<svg viewBox="0 0 216.83 286.85">
    <g class="lyricEar">
        <path d="M201.76,51.77C165.11-20.76,52.12-9.41,18.64,47-16.41,106,2.29,177,61.22,211.87c26.53,15.7,11,64.21,75.92,73.48,32.49,4.64,75.83-23.69,78.61-60,1.87-24.5-29.6-27-33.06-2.63-2.63,18.51-25.16,35.87-49.83,29.89-29.9-7.25-19-45.67-56.44-68C36,160.48,20.31,115.9,43.9,70.21s102.21-51,129.21-4.49C185.08,86.33,212,72,201.76,51.77Z"/>
        <path d="M166,109.69c-6.86-36.45-42.86-55.45-72.69-47.41C68,69.1,50.93,93.84,63.29,127.15c7.82,21.09,37.73,10,31-7.17C80.7,85.45,122.39,81.8,130.81,108.32c-16.28,15.41-43.75,50.12-13,80.57,13.84,13.71,39.82,11.56,49.5-5.12,10.21-17.58-4.63-42-26.19-43C145.17,127.28,156.28,118.4,166,109.69Z"/>
    </g>
</svg>
