<svg viewBox="0 0 47.5 47.5">
  <g class="steelDark" transform="matrix(1.25,0,0,-1.25,0,47.5)">
    <path d="m 0,0 6,6 c 0,0 6,6 12,0 6,-6 0,-12 0,-12 l -8,-8 c 0,0 -6,-6 -12,0 -1.125,1.125 -1.822,2.62 -1.822,2.62 l 3.353,3.348 c 0,0 -0.135,-1.364 1.469,-2.968 0,0 3,-3 6,0 l 8,8 c 0,0 3,3 0,6 C 12,6 9,3 9,3 L 5.271,-0.729 c 0,0 -1.854,1.521 -5.646,0.354 L 0,0 z" transform="translate(16,28)"/>
    <path d="m 0,0 -6,-6 c 0,0 -6,-6 -12,0 -6,6 0,12 0,12 l 8,8 c 0,0 6,6 12,0 1.125,-1.125 1.822,-2.62 1.822,-2.62 L 0.469,8.031 c 0,0 0.135,1.365 -1.469,2.969 0,0 -3,3 -6,0 l -8,-8 c 0,0 -3,-3 0,-6 3,-3 6,0 6,0 l 3.729,3.729 c 0,0 1.854,-1.52 5.646,-0.354 L 0,0 z" transform="translate(21.8447,10)"/>
  </g>
</svg>