<svg viewBox="0 0 404.02 467.37">
  <g class="liz">
    <path class="lizJeans" d="m384.01,244.99c4.73,24.97,2.19,70.52-4.05,102.92-1.35,6.08,2.7,6.08-.17,8.94-1.35,3.88,2.87,3.54.17,6.41,1.18,18.9-3.04,38.74-5.91,56.12l-17.89-.68c-1.01-19.24-6.38-40.99-5.06-54.6.42-4.39-.91-5.88-1.01-14.34-.06-5.47-5.08-17.05-4.89-61.23-1.86,42.61-5.19,56.93-4.89,61.74.34,5.54-1.37,9.98-.84,14.51,1.86,16.16-4.2,35.43-5.23,53.93l-18.39.34c-1.57-18.52-5.75-40.72-4.73-55.74-2.4-2.13.76-3.02-.34-6.96-3.48-1.26.93-3.34-1.35-12.83-6.45-26.86-10.13-72.88-3.88-98.36l78.47-.17Z"/>
    <g class="lizJeansCuff">
      <path d="m374.44,417.07c1.71.75.94,7.14-.43,7.06-2.57,5.76-15.57,7.68-19.53.19-1.8-1.05-.69-8.11,1.5-8.61,1.96,2.23,16.33,3.09,18.46,1.35Z"/>
      <path d="m334.38,416.33c1.72.03,1.59,7.95-.13,7.92-.22,6.36-16.76,5.15-18.54-.12-1.38.01-1.46-7.17-.07-7.18,2.9,1.86,16.71,1.36,18.74-.62Z"/>
    </g>
    <g class="soleLightTan">
      <path d="m379.5,459.13c-.19,1.53-.59,3.23-1.38,3.83-4.98,3.75-19.25,3.54-22.6.56-.69-.61-2.72-1.93-2.98-4.38-.64,0-1.29-.19-1.42-.78-.36-1.62-.61-7.48-.5-11.32l28.88,12.08Z"/>
      <path d="m308.52,459.13c.19,1.53.59,3.23,1.38,3.83,4.98,3.75,19.26,3.24,22.6.26,2.14-1.91,1.82-2.59,2.67-4.07.64,0,1.6-.19,1.73-.78.36-1.62.61-7.48.5-11.32l-28.88,12.08Z"/>
    </g>
    <g class="lizShoe">
      <path d="m374.01,424.13c-.64,4.64-.61,9.77.14,13.3.93,4.39,1.17,8.54,2.85,11.55,1.57,2.82,3.57,6.12,2.51,10.16-3.79,4.01-24.69,6.59-26.47-2.63-.82-4.28-2.47-6.25-2.41-9.45.12-6.71,4.81-11.99,3.85-22.73.72.75,1.16.55,1.16.55.96-3.21,9.48,5.05,18.37-.74Z"/>
      <path d="m315.72,424.13c.64,4.64-.47,9.72-1.96,13.45-1.67,4.17-1.57,9.16-3.24,12.17-1.57,2.82-3.16,5.88-1.99,9.38,3.79,4.01,24.86,5.94,25.7-2.63.52-5.29,3.24-6.25,3.18-9.45-.12-6.71-4.11-12.07-3.15-22.8-.57,1.25-.99,1.42-1.8,1.56-1.04-3.24-10.55,3.3-16.74-1.68Z"/>
    </g>
    <path class="lizShirt" d="m364.43,133.01c13.84,7.12,30.9,6.03,34.94,28.27-4.44,2.6-14.81,6.79-19.42,8.16-1.05,2.1,5.02,7.03,1.69,17.53-.77,2.41,2.69,5.14-1.56,7.82-.32,2.17,1,5.78-1.04,8.42-.89,1.63,2.71,4.66-.82,10.58,1.73,2.43,2.33,6.79,2.2,11.34-.09,3.32,3.7,12.99,4.55,22.19-11.63,5.7-24.19,9.35-37.56,11.19-1.24-4.26-2.12-9.59-2.85-15.74-.23,5.3-.76,10.35-1.99,14.8-13.18.28-27.31-8.16-38.6-9.1,4.84-17.64,2.26-24.07,5.6-27.79-1.63-2.82-1.6-5.73-.19-8.73-2.09-4.84,1.61-9.48-1.14-19.73-3.89-6.73-3.51-14.89,0-22.16-6.2-1.99-17.37-7.18-18.86-8.88,7.16-21.8,16.39-19.91,34.32-27.91"/>
    <path class="lizShirtCollar" d="m364.65,132.44c2.09,2.86-1.7,10.22-4.86,16.35-1.86-3.84-4.26-9.83-6.28-10.88l-19.39-.14c-2.73-1.42-5.28,6.01-8.23,9.77-1.99-5.44-3.69-13.72-2.93-14.77,2.35-3.22,4.1-7.12,6.84-7.42h28.74c2.81-.53,3.01,2.82,6.12,7.09Z"/>
    <circle class="hairBlackDark" cx="357.2" cy="116.68" r="11.42"/>
  </g>
  <g class="oldBennett">
    <g class="soleTan">
      <path d="m249.59,458.92c.44.69.24,1.97-.32,2.36-6.29,4.43-23.37,5.29-27.8-1.18-1.6-1.86-4.51-1.55-5.32-3.41-.28-.65-.55-1.87-.09-2.47l33.53,4.7Z"/>
      <path d="m199.96,452.87c.63,1.02.54,2.29.15,2.89-1.51,2.37-2.84.77-4.38,3.45-4.74,8.28-24.91,7.33-29.16,1.89-.75-.96-1.2-2.01-.6-2.64l33.98-5.59Z"/>
    </g>
    <g class="oldBennettShoe">
      <path d="m217.97,431.52c-1.77,6.27-4.57,15.17-1.91,22.71.92,2.62,4.82,2.35,6.54,4.55,5.16,6.58,25.23,3.3,26.99.15,7.4-13.22-8.78-10.07-12.4-26.01l-19.22-1.4Z"/>
      <path d="m197.07,431.88c2.62,6.77,4.72,13.48,2.89,20.98-.78,3.2-3.61,1.77-4.61,4.33-3.19,8.11-25.88,6.98-29.37,1.27-2.58-4.23.01-7.64,3.35-10.47,3.54-3.01,2.45-8.75,8.22-14.93l19.52-1.18Z"/>
    </g>
    <g class="clothingBrass">
      <path d="m242.71,442.91c-.84-.83-1.66-1.76-2.41-2.84-5.37-.88-11.23-.39-15.48,1.68l2.09,2.92c4.36-2.04,10.19-2.49,15.8-1.76Z"/>
      <path d="m172.83,441.08c-.38,1.05-.69,2.04-1.03,2.96,3.99-.78,9.63-.79,14.11,1.09l2.79-2.71c-4.92-2.32-12.43-2.38-15.87-1.34Z"/>
    </g>
    <path class="oldBennettPants" d="m246.04,217.06c1.96,14,5.13,30.18,4.42,43.95-1.65,31.7-1.96,60.16-5.65,81.27-.89,5.1-1.23,59.91-3.93,92.32-3.65,1.72-7.07,2.66-10.31,2.95-5.16-.2-10.04-.57-14.49-1.23l-9.08-102.14c-3.44,35.11-4.17,84.22-5.4,99.69-5.23,2.1-10.25,3.5-14.98,3.93-5.42-.46-10.34-1.49-13.5-2.43-1.72-30.97-4.98-64.21-4.17-83.02-2.46-5.91-1.87-16.39-3.19-26.52-3.77-28.98-1.96-70.22.98-108.04l79.31-.74Z"/>
    <g class="oldBennettVest">
      <path d="m184.87,105.43c1.38,23.43,18.95,54.29,25.93,56.74v60.07c.32,1.09-13.29,12.16-14,12.28-1.04.17-29.08-10.52-28.57-13.69-.2-3.66,1.72-35.31-.06-66.41,4.65-16.25,2.78-36.85,3.08-44.17-.29-.7,8.96-2.86,13.63-4.83Z"/>
      <path d="m231.23,106.85c.09-.5,14.77,3.8,14.99,4.92-.63,18.6-1.94,34.65,2.46,46.31-4.27,45.01-.53,60.1-1.34,60.41.54,1.12-28.44,15.68-30.16,15.17-1.3-.38-12.01-8.98-12.01-10.2l-.41-59.08c13.27-8.31,22.37-31.49,26.47-57.53Z"/>
      <path d="m242.48,196.59c.72,0,.72,4.81,0,4.81-5.88.87-13,3.15-19.16,3.05-.69,0-.76-5-.06-5.01,6.81-.11,13.23-2.18,19.22-2.85Z"/>
    </g>
  </g>
  <g class="eye">
    <g class="sclera">
      <circle cx="66.54" cy="57.09" r="23.77"/>
      <circle cx="208.74" cy="55.73" r="24.68"/>
      <circle cx="211.48" cy="197.01" r="17.8"/>
      <circle cx="343.86" cy="71.99" r="23.56"/>
    </g>
    <g class="irisDarkBrown">
      <circle cx="222.53" cy="54.38" r="3.47"/>
      <circle cx="195.36" cy="54.38" r="3.47"/>
      <circle cx="80.05" cy="56.04" r="3.47"/>
      <circle cx="53.27" cy="56.04" r="3.47"/>
      <ellipse cx="202.85" cy="198.62" rx="2.94" ry="3.01" transform="translate(-10.6 11.44) rotate(-3.15)"/>
      <ellipse cx="223.45" cy="197.18" rx="2.74" ry="3.01" transform="translate(-10.49 12.57) rotate(-3.15)"/>
      <circle cx="357.13" cy="83.18" r="3.33"/>
      <circle cx="330.83" cy="83.25" r="3.33"/>
    </g>
    <g class="pupil">
      <circle cx="222.53" cy="54.38" r="1.35"/>
      <circle cx="195.36" cy="54.38" r="1.35"/>
      <circle cx="80.05" cy="56.04" r="1.35"/>
      <circle cx="53.27" cy="56.04" r="1.35"/>
      <ellipse cx="202.84" cy="198.47" rx="1.14" ry="1.17" transform="translate(-10.59 11.44) rotate(-3.15)"/>
      <ellipse cx="223.44" cy="197.03" rx="1.07" ry="1.17" transform="translate(-10.48 12.56) rotate(-3.15)"/>
      <circle cx="357.13" cy="83.18" r="1.29"/>
      <circle cx="330.83" cy="83.25" r="1.29"/>
    </g>
  </g>
  <g class="skinIndian">
    <path d="m363.09,107.56c-3.29,4.53-5.76,15.65-2.74,20.58.36,4.42-2.74,6.97-6.84,9.77-2.37,1.62-5.72,10.05-9.77,14.51-3.21-6.98-6.7-13.16-9.63-14.65-3.64-1.85-5.85-4.63-5.86-9.12,1.89-3.18,2.09-15.32-.59-19.44"/>
    <path d="m276.55,251.88c3.56-13.42,7.18-32.01,11.82-49.1,1.86-6.85,1.32-26.92,3.5-39.88,4.01,2.27,11.64,5.66,16.37,7.18-3.51,7.27-3.89,15.43,0,22.16.26.98.47,1.91.62,2.8-1.01,5.75-1.74,10.92-2.03,15.15,1.29,17.16-13.24,29.1-19.81,44.25-1.3,5.08,2.72,5.44.47,14.06-1.13,4.34,1.77,7.8-3.24,19.99.42,1.75.32,3.3-1.68,4.1-.33,1.38-1.96,2.79-3.82,1.4-1.25,1.35-4.01-2.89-6.24-4.75-2-1.59-3.31-11.33-2.74-17.72.6-3.8,5.88-16.19,6.79-19.63Z"/>
    <path d="m385.69,263.3c1.88-21.39-4.82-34.79-2.35-54.18-.32-4.21-1.67-9.65-2.12-15.22,2.38-2.39-.27-4.78.41-6.92,3.33-10.49-2.74-15.43-1.69-17.53,4.13-1.24,12.9-4.73,17.86-7.31,2.33,13.07,2.22,30.99,4.57,42.75,3.95,19.74-1.52,36.44-3.73,56.54-.5,5.04,4.7,9.74,4.1,20.23-.49,9.4-1.08,9.99-3.76,11.08-2.68,2.7-7.81,6.21-9.66,4.79-2,1.31-3.19.17-4.95.92-2.85.76-1.18-4.87,2.18-4.53,2.94-2.6,2.69-3.78,2.71-7.64s-2.04-4.87-2.88-8.64c-.25,3.61-1.43,4.6-1.34,6.2,1.01,6.21-4.62,7.86-4.79,4.42.5-3.11-.25-4.58.32-7.84.42-13.01,5.05-14.29,5.11-17.12Z"/>
    <path d="m372.17,104.63c-6.63,12.38-9.57,14.29-18.83,19.17-2.92,1.54-4.34,3.16-9.57,3.09-5.68-.07-7.18-2.52-10.92-4.15-70.01-39.5,40.75-148.7,39.32-18.11Zm-20.12-19.96c1.06.11,3.2.6,5.27.56s4.3-.83,6.26-1.66c-1.85-1.33-3.65-2.51-6.63-2.51-1.79,0-4.82,1.07-6.43,3.19-.57.76,1.09.37,1.53.41Zm-15.05-.67c-2.31-2.27-4-3.22-6.82-2.97-2.63.24-4.75,1.85-6.22,2.5,2.11.81,3.58,1.65,5.99,1.76,2.53.12,3.9-.78,5.44-.74.44.01,2.36.18,1.6-.56Z"/>
  </g>
  <g class="oldBennettShirt">
    <path d="m276.06,208c1.34-2.53.79-6.02-.88-10.09.67-2.75.35-5.49-1.02-8.19,1.23-4.41.24-8.18-2.05-11.55.54-2.86,1.39-5.92-.88-7.02.13-4.94-.97-10.52-2.92-16.53-1.72-7.05-.94-13.18-2.49-19.74-.61-2.57-.26-5.29-1.4-7.9-2.44-9.58-9.94-12.24-17.96-15.63-.64,18.46-1.9,34.41,2.47,46-.88,9.28-1.42,17.29-1.73,24.16,1.4,2.35,3.15,4.02,3.71,6.04-1.22,2.65-1.58,4.23.48,5.71-1.52,3.44-1.19,6.29,1.27,8.46-1.44,2.68-.54,5.24,1.17,7.75-4.05,19.08,28.69,13.53,22.23-1.46Z"/>
    <path d="m208.69,160.86c11.17-9.89,18.92-30.79,22.68-54.08-10.08-1.41-15.78,1.93-22.7,4.2-11.45-5.39-16.99-6.31-23.76-4.86,1.53,21.24,15.98,48.22,23.78,54.74Z"/>
    <path d="m141.88,184.85c-1.72-2.41.36-6.74,1.28-11.52.82-4.25.31-8.91,1.94-12.07,1.43-11.76,2.33-24.83,5.55-32.71,4.42-10.84,12.07-14.85,20.58-18.09-.27,7.47,1.53,27.87-3.07,43.98.12,2.07.22,4.14.31,6.21-2.9,15.63-.98,19.95-5.76,24.04.2.72.21,1.31-.21,1.61,4.64,2.69,1.61,7.36,3.64,12.11,1.85,1.86,2.39,2.27,2.36,4.69,2.24,1.71,2.64,4.5,2.23,7.78,3.13,1.43,3.51,2.3,2.68,6.25,1.33,2.64,1.15,4.01.67,5.4,1.41,5.92,4.02,7.84,4.05,10.02.04,2.87-13.38,8.25-15.13,5.98-1.49-1.93-.76-5.2-2.99-9.25-3.03-1.37-4.85-1.46-4.05-4.61-2.67-.76-4.3-2.41-4.14-5.59-2.74-1.94-4.15-4.73-3.28-8.96-2.45-1.49-4.02-3.59-3.08-7.42-8.05-14.44-2.41-15.35-3.57-17.83Z"/>
  </g>
  <g class="oldBennettCollar">
    <path d="m224.31,96.39c2.58-.08,3.69,6.09,6.5,9.27,1.55,5.21-10.09,11.97-13.33,14.64-2.59-4.58-3.41-11.16-6.29-10.2,1.7-2.07,13.36-3.84,13.12-13.71Z"/>
    <path d="m192.96,96.68c-.21,7.64,9.79,10.35,12.89,13-3.55-1.11-3.75,7.16-6.7,11.3-5.24-4.29-12.39-10.49-11.97-16.4,2.81-3.91,3.33-8.79,5.79-7.9Z"/>
  </g>
  <g class="oldBennettBowtie">
    <path d="m223.26,107.65c-2.04-1.4-7.17,2.02-10.96,4.61.28,1.17.18,4.02-.17,5.56,1.62.81,6.05,4.33,10.93,3.64,1.74-.25,2.24-12.42.2-13.81Z"/>
    <path d="m204.98,112.19c-2-1.42-6.44-5.21-9.63-4.44-2.92.71-2.81,12.95.21,14.16,2.91,1.16,7.39-2.17,9.73-3.54-.45-1.2-.59-4.89-.32-6.19Z"/>
    <path d="m205.53,118.74c-.71-.37-.92-6.34-.4-6.95.59-.7,2.52.21,3.43.21s2.81-.79,3.53-.21c.68.55.38,6.67-.41,7.06-.9.44-1.8-.31-2.92-.31-1.01,0-2.19.76-3.23.21Z"/>
  </g>
  <g class="sockWhite">
    <path d="m212.25,444.84c.51-2.03.48-3.07,1.35-5.17,2.9,1.05,10.72,1.31,13.2.61.88,1.18,0,2.53.58,4.28,1.78,6.53-11.31,5.57-15.13.27Z"/>
    <path d="m199.01,444.75c-.65-2.02.51-3.83-.58-4.9-3.15,1.03-11.92,1.16-14.08.31-1.04,1.17.15,2.83-.74,5.05-2.51,5.72,13.29,3.56,15.41-.45Z"/>
  </g>
  <g class="soleWhite">
    <path d="m74.51,453.05c-.55,1.86-.72,5.16-.04,5.98,1.21,1.68,5.31,2.37,6.51,3.18,6.41,4.31,29.64,1.37,31.78-1.34,1.33-4.21-2.28-10.27-5.18-11.15-9.65-7.77-24.39-3.55-33.08,3.33Z"/>
    <path d="m61.82,452.55c.55,1.86.72,4.85.04,5.67-1.21,1.68-8.25,2.8-9.57,3.39-10.01,4.4-31.9,3.36-34.05.65-1.33-4.21.51-11.46,8.04-13.86,12.69-4.27,26.87-2.73,35.55,4.15Z"/>
    <path d="m238.53,460.79c1.04,5.08-9.63,7-16.58,5.83-4.39-.74-11.31-2.46-12.46-4.07-1.25-1.76-.99-3.75-.59-5.65,15.01-2.2,26.39-1.93,29.63,3.9Z"/>
    <path d="m201.55,457.35c.33,1.79.78,3.66.02,5.12-1.57,3.06-7.39,4.21-13.02,4.55-9.8.6-13.97-1.66-12.42-6.78l25.41-2.89Z"/>
  </g>
  <g class="bennett">
    <g class="bennettShoe">
      <path d="m77.51,425.45c1.72,12.04-2.05,16.85-3,27.6,1.26,1.87,3.22,1.89,6.25,2.87,1.98.64,2.51,1.38,5.07,1.9,1.57-9.83,15.79-10.64,21.76-8.1-7.37-4.44-11.32-14.31-11.08-26.68-3.67-7.17-12.28-2.28-19,2.41Z"/>
      <path d="m58.82,424.95c-.78,12.08,2.41,13.93,3,27.6-1.26,1.87-6.34,2.23-9.37,3.21-1.98.64-5.39,1.74-7.95,2.26,1-10.49-15.59-10.58-18.23-9.62,6.08-2.37,15.54-12.64,14.85-24.42,3.67-7.17,10.98-3.71,17.7.97Z"/>
    </g>
    <g class="shoelace">
      <path d="m97.17,432.2c-3.12-.54-8.55-.3-11.2.49.44,4.72,1.54,9.55,3.12,14.44,2.89-1.27,10.09-1.71,14.12-1.12-3.01-3.46-5.06-8.2-6.04-13.81Z"/>
      <path d="m31.7,444.85c4.11-.31,10.47.48,13.32,2.03,1.58-4.89,3.78-9.3,4.21-14.02-1.65-.68-5.71-1.27-9-1.32-1.6,5.46-5.02,10.18-8.53,13.31Z"/>
    </g>
    <g class="converseLogo">
      <path d="m80.23,450.22c3.71.6,3.91-10.74.27-11.5-3.62-.76-4.07,10.88-.27,11.5Z"/>
      <path d="m55.18,450.34c-3.71.6-3.91-10.74-.27-11.5,3.62-.76,4.07,10.88.27,11.5Z"/>
    </g>
    <path class="bennettJeans" d="m105.59,230.85c1.48,3.12,4.04,11.39,3.63,21.57.4,24.28.34,48.1-2.04,64.26-.89,6,1.56,11.56-1.87,18.32-2.68,5.27,1.49,11.35-.85,15.29-2,26.44,2.6,40.54-2.95,49.73-2.73,4.51,4.9,7.68-.23,14.53-3.22,3.25,2.28,8.3-4.5,14.85-.28-5.13-9.15-5.22-11.33,0-4.17,1.72-5.53,4.77-7.7,5.81-1.65-5.55-6.01-6.63-2.26-12.07,2.38-3.45-2.9-4.25-.52-8.48,2.41-4.3-3.26-6.09-1.68-13.72,1.73-8.34-.55-20.27.63-32.05.7-7.01-2.43-14.35-2.43-23.57,0-6.4-1.32-14.28-1.32-24.82,0-7.37-2.2-24.82-2.64-39.75-.8,21.47-3,40.62-2.32,49.89s-2.77,22.69-1.86,33.32c.94,11.04-.61,20.47-1.01,34.34-.21,7.12,2.45,14.6-1.69,20.81-2.03,3.04,4.05,8.25,1.01,12.18-2.05,2.66,1.01,3.55-1.8,7.11-3.27-2.54-6.12-6.25-9.84-6.86.76-5.43-7.74-8.58-10.21,1.32-7.06-6.85-.78-11.59-2.79-13.9-7.42-8.55-1.33-35.89-3.57-57.15-.68-6.5-1.97-12.08-.56-16.64-5.59-15.52-2.69-14.93-3.64-19.72-5.15-25.97-4.52-50.73-4.34-73.43.08-10.09,3.08-15.38,3.36-21.96l77.32.78Z"/>
    <path class="bennettSleeves" d="m84.09,104c5.01.22,9.89,3.59,14.99,5.2,6.82,2.16,13.32,3.54,17.59,6.65,8.79,6.38,10.95,36.36,9.87,57.58.35,5.03,3.42,9.23.97,12.72,3.23.12.18,4.77,4.29,13.66.89,2.18-21.85,5.66-22.17,3.75-1.69-1.7.13-6.52-3.83-8.85l-77.37-15.68c.35,2.72-1.68,5.76-2.85,7.07-1.53,1.7,1.43,2.74-1.2,6.02,2.24,2.81-1.27,6.6-.82,10.71.05.76-21.62,1.72-22.21.87-1.27-2.99.65-5.17.68-7.54-2.44-1.04-2.25-5.72-.17-9.01-.78-9.52,2.43-15.73,2.82-25.92.54-13.99,1.59-26.42,5-35.71,5.79-15.79,25.6-16.65,40.12-22.49l34.29.99Z"/>
    <path class="shirtWhite" d="m87.41,113.19c-8.35,11.25-34.21,11.25-41.4.14-7.11,2.99-18.12,10.97-21.7,17.3-.14,3.71,1.71,4.86,2.75,6.6.7,1.17-1.24,1.65,1.24,3.16-1.65,13.34-.69,35.35-.69,46.9,0,2.85-2.91,3.03,0,6.33,1.79,24.35-4.54,21.46-.28,26,0,3.03-2.85,4.38.41,7.84-1.48,1.87-.28,4.81-.83,7.29,13.62,3.71,24.76,11,39.2,11.28,21.6.41,26.41-7.29,41.4-13.07-.83-1.51-.44-3.03-.96-4.81,2.77-4.73-.96-6.6-.28-12.38,2.23-3.67-.83-5.64-.14-10.59,2.06-4.26.48-5.75.55-8.67.08-3.37.95-6.86-.55-10.18-.55-8.39.97-15.03.69-21.6-.41-9.48.83-17.74-.69-26.96,2.05-.71,1.65-4.54,2.34-7.29-4.87-7.96-12.79-12.38-21.09-17.3Z"/>
  </g>
  <g class="christopher">
    <g class="christopherShoe">
      <path d="m216.5,447.65c1.68-3.15,8.95-4.03,10.39-.84.32-.64.32-1.32.49-2.25,3.91,13.19,11.46,7.91,11.15,16.22-4.36-3.19-12.43-1.68-16.58,2.63-5.58-.35-10.06-2.33-13.05-6.52.27-2.65.27-10.08,3.35-12.05,1.77.08,3.66,1.39,4.26,2.81Z"/>
      <path d="m195.19,446.97c1.01-1.17,2.38-2.28,3.83-2.22,1.87,2.25,1.76,9.09,2.54,12.6-1.79,2.92-4.64,4.88-9.09,6.29-1.92-4.46-12.17-4.66-15.02-1.3-2.66-1.55-.88-4.15,1.9-6.98,2.81-2.4,1.9-7.51,4.26-10.15l.27,1.81c2.7-3.39,9.47-3.16,11.31-.04Z"/>
    </g>
    <g class="christopherStrap">
      <path d="m216.57,450.99c1.05,2.1,2.82,3.37,5.15,5.08,3.6-1.75,7.93-2.5,11.97-2.07.84.09-1.11-2.18-2.85-2.47.7-.54-.48-1.78-1.45-2.08-4.1-1.28-9.06-.6-12.82,1.54Z"/>
      <path d="m196.61,450.83c-.68,2.1-1.9,3.86-3.73,5.23-3.05-1.49-10.71-1.18-13.84-.4-.72.18.56-2.14,1.97-2.9-.84.11-.4-1.42.53-1.92,3.16-1.69,11.1-1.86,15.07,0Z"/>
    </g>
    <path class="christopherShorts" d="m235.87,318.75c2.26,11.45,1.35,28.84,2.09,44.31-2.58,3.8-24.67,5.28-29.46,2.45-.8-5.22-.24-9.41-1.23-14.85-.6,5.83,0,10.26-.61,14.94-3.07,2.58-26.48,2.91-31.39-1.38.86-14.11.09-27.43,1.69-37.98.39-2.57,0-4.66.86-7.61l58.05.12Z"/>
    <path class="christopherWaistband" d="m177.4,320.55c12.62,1.45,44.41,2.48,58.77-.14-.23-1.32.25-2.36-.26-4.12l-58.23.17c-.46.87-.09,2.39-.28,4.09Z"/>
    <path class="christopherShirt" d="m176.8,316.54c1.15-3.06-2.79-3.74.1-8.14-4.02-6.03-1.1-7.48-.75-11.81.63-7.79,0-14.95,1-23.62-4.52,0-13.69-2.26-16.96-4.15,4.65-8.54,6.54-20.05,11.68-25.63,3.49-3.79,14.07-5.02,20.35-7.66l26.63-.13c8.42,2.76,17.27,1.96,22.61,7.16,2.36,2.29,2.4,5.47,3.27,7.91s2.02,1.64,1.63,6.91c1.63,4.15,2.51,8.79,4.58,12.2-3.57,2.25-11.11,4.39-15.02,4.39-1.62,21.1,3.78,26.26-.87,30.9.75,2.76,3.73,4.66.72,7.55,1.71.34,1.24,2.93.82,3.84-16.5,4.81-45.92,3.77-59.81.26Z"/>
    <g class="triceratopsLogo">
      <path d="m203.82,283.44c-.44-.03-1.02-.11-1.35-.19-.21.41-.45.82-.72,1.25-1.23,1.78-.24,2.32.25,3.31.63,0,1.72-.06,2.21-.36-.04-1.38-1.46-1.73-.38-4Z"/>
      <path d="m231.97,275.72c.81-1.83.87-3.19-.2-4.23.57-1.23.71-2.82.26-3.92-.38,1.19-1.06,2.27-1.88,2.9-.51-.22-1.1-.42-1.79-.61-1.43-.39-2.66-1.11-3.7-2.02-.27.34-.64,1.16-.84,1.6.11-1.48,2.27-5.3,4.73-7.47-2.86,1.08-5.32,3.96-6.5,6.16.05-.51.5-1.42.94-2.1-1.03-1.47-1.71-3.23-2.02-4.9-1.15-1.34-3.68-.19-3.21,1.53-1.87-.72-3.34,1.34-2.14,2.88-1.72-.1-2.57,2.04-1.41,3.13-1.67.72-1.02,3.57.72,3.24-1.92.78-2.6-2.35-1.27-3.25-6.39-3-12.42-4.8-17.84-.91-2.38,1.7-4.21,5.92-6.64,8.65-2.05,2.31-6.11,3.33-10.35,3.26,4.52,2.41,9.06,2.27,13.62-.33,1.25,1.19,2.82,2.08,4.54,2.67.63-1.71-1.3-2.13-1.28-4.79.38,2.62,2.12,2.81,1.62,4.87-.94,3.92,0,5.35.03,6.91.67.38,3.87.38,4.6-.05-.02-.41-.21-.76-.34-1.12-.54-1.13-1.32-1.56-.2-3.35,2.21-3.54,2.52-6.32,1.09-9.23,1.34,1.63,1.7,4.43.09,7.76,1.5.39,5.2.23,7.51-.33.08-1.48.45-3.2,1.09-4.09-1.97,5.83.6,7.9.62,10.43.74.34,3.93.38,4.58-.03-.02-.43-.16-.81-.45-1.15-.26-.36-1.34-1.14-1.18-4.5.06-1.26.83-2.51,2.5-3.62,4.85-3.34,9.09,1.24,13.15-2.21-1.82.11-3.32-.33-4.52-1.28,2.6,0,3.79-2.14,6.06-.46Z"/>
      <path d="m217.08,280.21c-1.14.85-1.88,1.71-2.01,3.11-.1,2.17.25,3.55,1.35,4.51.63.02,1.41-.05,1.78-.31-.28-2.31-2.98-1.96-1.11-7.31Z"/>
    </g>
  </g>
  <g class="clothesDisplayLine">
    <path d="m206.15,322.02c.45,9.96-.66,18.99,1.12,28.64"/>
    <path d="m216.7,321.94c5.56,6.39,12.43,9.62,20.52,9.21"/>
    <path d="m197.71,321.83c-4.67,5.55-13.39,10.46-21.32,9.32"/>
    <path d="m62.31,245.8c-1.25,3.45.26,7.66-.12,11.94-.44,5.04,1.9,8.88,2.15,13.59.29,5.58,2.18,6.11,3.19,9.41"/>
    <path d="m71.92,245.94c-1.57,3.29-.43,6.23-.71,8.8-.72,6.58,4.86,15.17-6.87,16.6"/>
    <path d="m88.33,242.25c3.77,2.85,8.84,4.16,14.08,3.61"/>
    <path d="m47.23,242.06c-3.17,3.18-8.67,4.97-16.95,3.95"/>
    <path d="m44.5,458.03c-6.27,1.19-22.64,0-25.95-1.66"/>
    <path d="m85.82,457.82c7.38,1.46,22.87,0,26.37-2.82"/>
    <path d="m344.59,245.07c-.15,8.88.61,23.24.15,29.12-.53,6.84.01,10,.45,14.34"/>
    <path d="m353.72,257.51c.53,4.37-.21,8.63-.01,12.42.26,4.82-3.08,7.55-9.17,8.18"/>
    <path d="m326.41,254.73c-4.98,3.91-11.85,5.56-20.06,5.11"/>
    <path d="m366.48,254.48c4.7,3.19,9.82,4.82,15.47,4.66"/>
    <path d="m356.89,416.33c-1.42.94-2.25,7.33-1.25,8.54"/>
    <path d="m333.02,417.04c.92,1.31,1.1,7.27.22,8.54"/>
  </g>
  <g class="clothesOverlapLine">
    <path d="m216.5,447.65c.3.67.35,1.81,1.29,2.71"/>
    <path d="m226.89,446.82c.35.71.5,1.45.62,2.19"/>
    <path d="m195.19,446.97c-.66.57-1.02,1.7-1.27,3"/>
    <path d="m183.88,447.02c-.65.9-1,2.07-1.23,3.35"/>
    <path d="m235.26,255.73c1.11,5.73.73,12.24.68,18.25"/>
    <path d="m179,257.19c-1.46,5.66-1.46,10.87-1.84,15.78"/>
    <path d="m85.45,429.4c.81,1.32.26,2.06.52,3.3"/>
    <path d="m97.65,434.53c-3.22-.39-8.29-.23-11.39.63"/>
    <path d="m98.27,436.78c-3.56-.39-8.75,0-11.61.9"/>
    <path d="m99.07,439.06c-3.45-.44-8.37.09-11.92,1.02"/>
    <path d="m100.13,441.39c-3.69-.41-8.84.21-12.38,1.15"/>
    <path d="m101.41,443.61c-4.19-.41-9.66.14-13.04,1.18"/>
    <path d="m50.01,431.54c-.39.27-.8.88-.78,1.32"/>
    <path d="m39.39,433.94c3.18-.28,6.46.44,9.48,1.27"/>
    <path d="m38.29,436.33c3.39-.27,6.84.28,9.97,1.28"/>
    <path d="m37.01,438.56c2.89-.49,7.29.25,10.52,1.31"/>
    <path d="m35.47,440.76c3.67-.38,7.81.42,11.16,1.58"/>
    <path d="m33.68,442.89c3.53-.55,9.33.18,12.18,1.56"/>
    <path d="m204.84,118.65c.82,10.79-.31,23.01,0,37.96"/>
    <path d="m208.67,110.98c-.99.42-2.37-.11-2.83.54"/>
    <path d="m355.63,424.87c-.46,1.8.4,7.46-1.58,13.04"/>
    <path d="m332.45,425.81c.9,1.66.97,9.08,2.42,13.29"/>
    <path d="m343.75,152.42c2.81,8.26.81,8.84-.03,14.55-.74,5.05,2.28,5.99.58,13.07s.39,9.34-.09,15.04c-.62,7.27-2.16,8.01-.14,16.89,1.32,5.79.14,19.11.49,30.83"/>
  </g>
  <g class="clothesBorderLine">
    <path d="m218.43,453.45c3.66-1.85,8.47-2.66,12.41-1.92"/>
    <path d="m195.47,453.29c-3.72-1.21-10.99-1.4-14.46-.53"/>
    <path d="m211.18,118.98c.77,10.3-.19,23.98,0,39.44"/>
    <path d="m257.72,219.63c0-2.83-.86-5.12,0-7,2.39-5.19,14.06-6.19,15.73,0,.39,1.46-.47,2.52-.29,4.26"/>
    <path d="m160,229.26c.16-4.72,8.64-8.16,14.07-6.75"/>
  </g>
  <g class="clothesFoldLine">
    <path d="m212.46,114.44c7.46-1.62,12.8-2.55,8.61,1.21"/>
    <path d="m213.46,116.51c2.7,1.32,5.56,2.22,8.57,2.77"/>
    <path d="m204.94,116.38c-2.75,1.39-5.38,2.34-7.69,2.26"/>
    <path d="m204.85,114.64c-6.54-2.81-11.85-1.92-6.87.62"/>
    <path d="m210.43,133.71c-4.4.38-8.67.37-12.78-.13"/>
    <path d="m218.34,135.55c-5.62.55-10.75.81-14.83.46"/>
    <path d="m251.33,125.02c-1.9,4.27-3.49,8.5-3.46,12.46"/>
    <path d="m251.18,133.02c-1.03,3.73-2.77,6.36-5.23,7.92"/>
    <path d="m256.03,123.71c-.48,9.14-3.24,16.71-9.72,21.7"/>
    <path d="m258.33,133.1c-1.78,4.11-3.94,7.65-6.77,10.16"/>
    <path d="m254.8,145.95c-1.35,4.39-3.18,8.31-5.87,11.39"/>
    <path d="m253.72,154.72c-1.65,2.58-2.69,5.85-4.31,8.16"/>
    <path d="m263.03,142.95c-1.31,12.23.7,24.8-10.92,27.16"/>
    <path d="m267.96,153.03c1.38,8.39-1.62,16.39,3.27,18.12"/>
    <path d="m267.34,174.72c-16.39-3-23.39-.08,1.23,6.15"/>
    <path d="m247.41,177.21c3.16.41,4.31,1.38,1.51,3.44"/>
    <path d="m252.49,181.57c3.46-1.77,7.08-.37,7.79.08,1.18.75-5.48,1.15-9.36,5.89"/>
    <path d="m274.16,189.72c-3.2-3.64-6.81-5.73-11.21-4.84"/>
    <path d="m255.95,187.19c3.69.08,6.98-.98,7.85.38,1.08,1.69-5.62.15-10.54,6.92"/>
    <path d="m270.57,192.57c-6.54-3.54-15.18.21-14.23,2.23.62,1.31,9.31-4.62,17.08,3.46"/>
    <path d="m252.66,201.71c.09-1.75.82-2.86,2.14-3.37"/>
    <path d="m271.26,199.96c-3.77,3.15,3,3.31,4.8,8.04"/>
    <path d="m262.1,203.73c3-1.69,9.23,2.31,1.54,2.15"/>
    <path d="m253.83,209.46c3.66-9.35,13.9-10.02,12.97-11.89-.69-1.38-6.62-.85-10.31,2.08"/>
    <path d="m167.99,127.49c.22,4.3,1.11,8.08,2.86,11.21"/>
    <path d="m170.34,143.49c-4.88-7.12-6.05-20.47-8.79-19.37-3.13,1.26-.55,5.07,1.23,8.35"/>
    <path d="m164.54,140.96c-13.12-18.85-11.1-4.21,3.06,17.46"/>
    <path d="m156.12,146.24c1.68,6.97,6.58,12.63,5.36,13.78-1.63,1.53-5.87-1.98-8.81-7.89"/>
    <path d="m149.08,148.24c1.23,7.73,6.05,18.61,10.64,19.22"/>
    <path d="m148.46,157.58c-.6,12.85,8.66,26.49,14.94,21.01"/>
    <path d="m145.1,161.25c-.13,3.19,2.1,10.71,1.36,16.24"/>
    <path d="m162.71,184.68c-12.46-5.69-22.44,1.87-16.77,1.77"/>
    <path d="m162.49,186.28c-4.12-1.36-8.27-1.35-12.44-.03"/>
    <path d="m152.54,191.34c3.49-1,9.27-1.25,11.55,1.69"/>
    <path d="m166.14,198.39c-1.36-.91-2.71-1.31-4.04-1.18"/>
    <path d="m145.45,202.68c4.4-7.46,11.13-7.88,9.58-8.85-2.39-1.49-8.76.3-9.86,1.99"/>
    <path d="m148.53,210.1c.52-2.03,2.83-3.2.92-4.72"/>
    <path d="m158.71,196.61c-6.66,3.88-5.58,4.58-3.39,4.68,3.09.14,9.06-2.25,13.17,1.79"/>
    <path d="m151.81,219.06c-.47-6.71,8.78-11.69,10.69-13.48,1.64-1.54-2.79-2.8-6.87-2.24"/>
    <path d="m170.72,210.87c-5.54-1.96-9.52,1.33-9.12-.47"/>
    <path d="m167.68,213.49c2.15.47,4.12,1.5,5.72,3.63"/>
    <path d="m155.96,224.65c.05-1.07.81-1.8,1.96-2.34"/>
    <path d="m166.08,215.5c3.88.98,4.78,4.56.1,4.26"/>
    <path d="m244.96,308.17c-1.47,4.04-3.74,7.21-6.86,9.46"/>
    <path d="m168.82,342.46c1.22,4.23,2.78,7.68,4.97,9.7"/>
    <path d="m239.52,423.57c-1.16,4.06-2.89,7.26-5.44,9.22"/>
    <path d="m174.02,400.87c.75,9.93,2.36,18.21,6.38,23.41"/>
    <path d="m168.94,352.35c.71,1.38,1.62,2.49,2.72,3.35"/>
    <path d="m247.66,447.05c-3.12-2.64-12.67-1.86-16.07.26"/>
    <path d="m182.8,448.45c-4.69-1.87-9.41-2.15-13.47-.46"/>
    <path d="m169.85,269.4c-.83-1.4-1.29-3.07-1.56-4.87"/>
    <path d="m170.2,264.53c.12,1.4.54,2.52,1.36,3.27"/>
    <path d="m178.09,250.26c-1.31,4.6-1.58,8.8-.11,12.31"/>
    <path d="m182.51,256.14c-.51,1.42-2.86,4.96-4.31,4.91"/>
    <path d="m190.04,266.69c.9,4.36,2.21,8.27,4.12,11.5"/>
    <path d="m189.19,274.93c1.37,5.81,3.28,11.22,5.78,16.18"/>
    <path d="m176.91,308.4c2.84,3.4,7.35,2.83,4.19,4.96"/>
    <path d="m179.34,302.15c10.55,10.65,23.12,15.42,38.53,11.91"/>
    <path d="m233.45,298.39c-2.06,3.93-4.6,7.01-7.84,8.84"/>
    <path d="m235.79,312.43c-1.48,1.27-3.16,2.15-5.15,2.38"/>
    <path d="m235.07,304.88c-4.74,5.36-18.08,11.28-4.39,6.87"/>
    <path d="m225.36,276.89c-1.84,5.64-4.09,10.61-6.83,14.82"/>
    <path d="m229.38,273.67c-.79,4.37-1.74,8.46-3.11,11.86"/>
    <path d="m230.88,254.58c1.75,2.01,3.11,4.21,3.82,6.73"/>
    <path d="m238.07,251.27c.37,4.14-.75,8.64-2.11,10.89"/>
    <path d="m244.6,257.19c-.25,2.91-1.46,7.13-2.86,9.09"/>
    <path d="m246.38,257.39c-.15,4.5-1.31,8.14-2.93,11.4"/>
    <path d="m126.54,173.43c-.46,5.76-4.18,5.43-1.45,9.23"/>
    <path d="m118.15,189.15c6.75-11.98.17-4.56-8.1,3.37"/>
    <path d="m109.04,196.07c5.74-2.53,18.9-3.04,8.94,0"/>
    <path d="m110.05,184.26c3.54-1.35,4.89.84-1.69,4.56"/>
    <path d="m107.02,182.74c12.35-1.2,16.03-14.8,17.38-31.72"/>
    <path d="m106.76,169.98c3.88-4.03,7.72-13.28,11.56-24.63"/>
    <path d="m108.5,130.49c.62-2.56.32-7.58-.78-11.27"/>
    <path d="m114.65,124.91c-.69,7.1-3.5,12.93-7.89,17.8"/>
    <path d="m118.32,122.62c-.94,9.1-4.56,16.89-11.43,23.11"/>
    <path d="m106.16,137.78c-5.31-6.3-3.84-11.4-1.18-3.87"/>
    <path d="m38.74,152.16c9.13,1.93,19.44,2.36,30.5,1.85"/>
    <path d="m60.6,156.96c11.54.91,23.11.5,34.71-1.26"/>
    <path d="m106.16,186.34c-4.62,5.57-11.77,8.34-20.23,9.68"/>
    <path d="m101.95,185.83c-1.58,1.48-3.33,2.57-5.32,3.1"/>
    <path d="m104.02,202.15c-2.27,2.99-5.24,5.18-8.94,6.5"/>
    <path d="m106.16,205.18c-2,2.32-4.3,4.15-6.94,5.38"/>
    <path d="m102.76,213.89c-7.88,8.85-19.18,14.17-33.89,15.95"/>
    <path d="m106.57,228.16c-4.59,3.01-10.31,4.48-17.39,4.12"/>
    <path d="m99.51,223.05c-3.91,3.03-17.35,5.39-9.38,5.69"/>
    <path d="m90.95,235.16c-13.73,4.52-27.37,5.22-40.91.74"/>
    <path d="m27.75,227.47c2.73,2.24,6.41,3.53,10.54,4.37"/>
    <path d="m36.45,228.22c6.11-1.66-3.91-3.69-9.11-8.59"/>
    <path d="m33.79,218.98c4.66,4.43,10.48,6.84,17.21,7.68"/>
    <path d="m27.62,193.63c2.57,3.19,5.38,5.77,8.54,7.41"/>
    <path d="m33.42,194.76c4.5,3.93,9.47,6.69,14.84,8.42"/>
    <path d="m2.03,196.15c3.85,1.69,13.52-.5,8.13,3.05"/>
    <path d="m16.73,199.19c-6.04-1.8,2.66-2.51,6.87-3.91"/>
    <path d="m24.38,192.11c-4.99,1.75-10.02,2.45-15.1,1.99"/>
    <path d="m1.86,187.13c.77,2.24,2.95,3.82,1.8,5.71"/>
    <path d="m18.95,181.77c-3.14-2.39-6.49-3.56-10.04-3.62"/>
    <path d="m10.31,162.64c3.56,8.9,7.88,16.14,14.62,18.09"/>
    <path d="m22.79,185.39c-4.8,1.18-13.19-.02-13,1.4.35,2.57,7.26,1.61,13.66.81"/>
    <path d="m17.69,126.83c1.42,6.88,3.81,12.57,8.2,15.73"/>
    <path d="m20.65,121.29c5.32,7.75.59,10.26,4.14,16.17"/>
    <path d="m28.3,140.4c4.83-1.98,10.14-9.95,8.15-3.97"/>
    <path d="m74.79,269.33c5.43-1.6,12.08-2.19,19.32-2.29"/>
    <path d="m77.36,277.49c6.55.91,12.87,2.34,18.89,4.44"/>
    <path d="m60.19,269.62c-7.74-1.53-15.73-1.91-23.9-1.43"/>
    <path d="m60.91,276.49c-6.72,1.89-12.98,4.31-18.74,7.3"/>
    <path d="m72.35,287.93c5.01,8.32,8.89,17.15,11.3,26.61"/>
    <path d="m51.18,338.59c-6.01,1.86-13.02-.72-16.88-4.29"/>
    <path d="m32.88,345.17c1.17-2.07,1.04-4.88.12-8.16"/>
    <path d="m41.45,347.03c6.58,2.29,11.88,3.29-2.86,6.87"/>
    <path d="m57.47,339.87c-14.45,4.29-16.03,2.72-5.01,8.59"/>
    <path d="m102.83,331.43c-2.86,3.29-4.86,8.01-1.29,11.3"/>
    <path d="m99.25,332c-9.59,9.3-12.16,9.73-22.04,2.72"/>
    <path d="m78.65,340.02c9.44,2.58,14.59,4.44.14,7.73"/>
    <path d="m96.82,350.89c-5.64-3.42-12.59-2.8-20.75,1.57"/>
    <path d="m98.11,398.68c-6.15,4.15-18.74,5.44-1,9.44"/>
    <path d="m78.79,411.27c4.99-4.47,8.8-2.28,14.02-1.14,4.62,1.01-2.43,4.44-13.02,6.73"/>
    <path d="m96.68,414.85c-6.87,2.43-12.45,2.58-5.72,6.3"/>
    <path d="m79.51,419c7.01,2.43,10.73,2.72.57,9.01"/>
    <path d="m53.32,401.4c3.58,2.55,7.22,5.09,3.86,8.73"/>
    <path d="m43.74,399.97c-2.31,7.6-12.73,7.87-4.86,12.73"/>
    <path d="m59.33,412.56c-8.3,3.72-16,4.27-1.72,10.45"/>
    <path d="m38.16,414.71c5.58,1.86,11.54,1.21,1.29,6.73"/>
    <path d="m60.62,428.16c-4.29-2.86-15.49-5.21-20.75-2.58"/>
    <path d="m235.54,345.94c-.99,6.4-2.46,10.86-2.8,15.61"/>
    <path d="m220.66,342.87c-1.44-1.2-6.04,1.89-10.28,6.68"/>
    <path d="m209.38,352.43c2.49.32,4.88.81,6.59,2.62"/>
    <path d="m192.96,346.48c3.72.96,7.22,2.51,10.46,4.78"/>
    <path d="m202.71,353.34c-1.3-.2-3.92,1.98-6.68,4.42"/>
    <path d="m210.81,322.02c.39,1.43.39,3.68.2,5.61"/>
    <path d="m208.93,322.02c.08.54.07,1.91,0,2.63"/>
    <path d="m203.04,321.96c-.27,1.2-.25,2.75-.07,4.22"/>
    <path d="m234.55,321.04c.58,1.65.76,3.3.63,4.96"/>
    <path d="m233.11,321.22c.29.81.37,1.59.18,2.35"/>
    <path d="m181.42,320.94c-.06.81-.02,2.02,0,2.9"/>
    <path d="m179.33,320.75c-.28,1.53-.3,3.68-.17,5.43"/>
    <path d="m379.94,169.45c-1.74-3.51-4.7-5.21-8.59-5.52"/>
    <path d="m315.64,167.78c-2.36-1.86-6.14-.72-7.4,2.29.06-3.76,3.07-6,5.93-5.8"/>
    <path d="m342.25,158.84c-2.51.01-4.96.19-7.36.57"/>
    <path d="m339.98,157.36c-2.07-.58-4.31-.89-6.68-1.02"/>
    <path d="m341.12,174.01c-2.19-.71-4.55-1.14-7.02-1.36"/>
    <path d="m339.08,175.14c-2.9.28-6.04.45-9.29.57"/>
    <path d="m340.78,176.62c-2.48.47-4.74,1.06-6.68,1.81"/>
    <path d="m341.23,193.94c-2.57-.02-5.47.07-8.61.23"/>
    <path d="m340.1,195.41c-2.2.35-4.35.96-6.45,1.81"/>
    <path d="m339.76,212.28c-2.29-.73-4.64-1.24-7.02-1.59"/>
    <path d="m353.01,158.61c-2.81-.07-5.46-.09-7.81,0"/>
    <path d="m350.63,172.51c-2.23.04-4.37.39-6.26.23"/>
    <path d="m355.16,175.08c-3.03-.23-6.58-.27-10.39-.22"/>
    <path d="m352,177.16c-2.36-.25-4.75-.43-7.19-.54"/>
    <path d="m353.15,194.17c-3.21-.11-6.22-.17-8.88-.11"/>
    <path d="m353.15,196.94c-3.4-.58-6.5-.97-9.02-1"/>
    <path d="m355.39,211.09c-3.22.24-6.2.38-8.9.4"/>
    <path d="m352.13,213.72c-2.57-.36-5.19-.6-7.86-.71"/>
    <path d="m380.48,149.6c-2.09,5.93-3.09,11.9-1.75,17.94.6-5.19,2.87-9.12,6.03-12.39"/>
    <path d="m372.48,167.19c1.95-.02,5.65,1.13,7.47,3.59"/>
    <path d="m304.9,158.61c2.43,2.13,3.89,4.79,4.47,7.94,1.71-2.58,2.21-5.17,3.28-7.15"/>
    <path d="m308.24,149.47c1.41,5.53,2.18,11.16,1.13,17.08"/>
    <path d="m310.57,190.39c1.12,2.35,3.23,4.07,5.8,5.48"/>
    <path d="m308.23,192.23c1.58,2.1,3.24,3.79,5.05,4.78"/>
    <path d="m309.37,211.96c.45,1.02,1.1,1.78,2.02,2.2"/>
    <path d="m309.56,220.68c.82,1.35,1.92,1.88.19,3.5"/>
    <path d="m378.21,213.8c-.75,1.68-3.04,2.56-.62,3.83"/>
    <path d="m379.02,203.22c-1.25,1.04-2.03,1.53-.62,3.24"/>
    <path d="m378.4,192.59c-2.21,2.35-5.07,4.13-8.57,5.36"/>
    <path d="m380.07,194.8c-1.86,1.76-4.03,3.16-6.39,4.35"/>
    <path d="m340.56,280.93c-9.24-2.9-19.15-2.9-29.43-1.22"/>
    <path d="m341.61,285.21c-4.89-.26-11.62,1.14-15.2,3.14"/>
    <path d="m350.95,281.01c7.26-3.02,16.31-3.62,26.29-2.97"/>
    <path d="m349.99,285.47c4.1-.7,10.92,0,15.11,1.92"/>
    <path d="m379.79,356.85c-4.43,1.85-9.83,2.78-16.35,2.62"/>
    <path d="m379.96,363.26c-5.13,2.36-11.44,3.33-19.05,2.76"/>
    <path d="m310.77,356.34c3.72.93,9.01,1.03,12.68.6"/>
    <path d="m311.11,363.3c4.04,1.12,14.78,1.45,22.29-.12"/>
    <path d="m313.23,354.23c3.88.78,8.33.79,13.19.26"/>
    <path d="m319.51,361.65c4.16.26,8.51-.04,13.01-.79"/>
    <path d="m372.87,356.76c-4.95.83-9.92,1.17-14.93.79"/>
    <path d="m378.46,361.57c-3.3,1.47-6.76,2.2-10.39,2.01"/>
    <path d="m331.92,409.84c-3.8,2.6-7.86,3.82-12.31,3.06"/>
    <path d="m127.51,186.15c-1.23,2.01-2.47,3.92-1.86,5.16"/>
  </g>
  <path class="clothesEdgeLine" d="m230.57,437.55c-.36-4.35-.45-11.15-.43-18.85"/>
  <path class="lipFemaleBrown__noStroke" d="m333.87,107.51c.45,10.97,18.6,11.04,19.78-.06l-19.78.06Z"/>
  <path class="lipFemaleBrown" d="m354.83,107.16c-1.89.57-4.34-1.49-6.04-1.77-2.66-.44-3.66,1.04-8.34-.19-2.58-.68-4.32,2.33-7.82,2.18,7.1.82,19.05.86,22.2-.22Z"/>
  <g class="skinEastAsian">
    <path d="m192.96,96.68c-.21,7.64,9.79,10.35,12.89,13,0,0,0,0,0,0,.9.4,1.85.83,2.83,1.29.9-.3,1.78-.61,2.65-.93-.04.01-.09.02-.14.04,1.7-2.07,13.36-3.84,13.12-13.71,0,0,.02,0,.03,0,.06-2.13.16-4.15.31-6.06l-32.2-.46c.18,2.15.34,4.42.46,6.81.02,0,.03,0,.05.02Z"/>
    <path d="m220.59,225.31c-2.14,2.33-2.4,5.9-1.72,10.1-1.97,8.12-24.81,8.69-26.63.13.96-6.43-.49-19.71-4.93-19.75"/>
    <path d="m272.51,289.23c-.98-.78-1.8-3.53-2.31-6.88-7.12,1.66-14.07-.77-19.74-1.96-.67-3.07-.87-6.52-1.71-9.63-3.9,1.77-9.59,3.22-12.81,3.22-.39,5.11-.37,9.29-.18,12.75.95,3.93,2.29,6.41,3.95,7.2,10.04,4.82,25.63-1.83,35.1-2.38-.77-.84-1.56-1.71-2.3-2.32Z"/>
    <path d="m161.95,269.66c-1.24,3.73-2.21,7.58-2.82,11.07-6.56-3.81-14.74-1.41-20.91-5.49l-5.56,8.5c7.45,5.07,18.23,14.45,31.13,12.95,5.61-.65,10.33-8.67,12.85-16.61,0,0,0,0,0,0,.09-2.28.24-4.63.53-7.1-3.87,0-11.14-1.66-15.21-3.31Z"/>
    <path d="m235.17,364.77c-6.65,2.43-22.23,3.07-26.49.84-.39,17.32,2.8,20.85,2.45,30.97-.68,19.53,2.5,29.08,2.79,43.21,3.01.92,9.94,1.16,12.58.57,2.68-15.8,5.4-31.87,4.59-42.92-.58-7.84,2.14-8.83,4.07-32.67Z"/>
    <path d="m178.76,365.89c1.63,20.34,4.34,22.1,3.74,30.1-1.26,16.88,2.1,30.21,2.55,44.37,2.74.58,9.49.46,12.72-.32,1.38-16.03,5.24-21.31,5.56-43.08.16-9.68,2.58-13.18,2.59-30.93-4.17,1.81-19.52,2.16-27.16-.13Z"/>
    <path d="m84.19,88.58c-1.14,1.46-1.75,12.84-.1,15.42,5.24,15.45-39.96,17.85-34.29-.99,1.14-1.69,1.86-9.71.13-16.42"/>
    <path d="m8.05,245.99c.5,3.82-5.87,11.49-6.93,19.67-.3,2.28-1.39,9.74,2.08,11.11.52,2.67,2.59,7.43,5.21,7.01,1.27,2.34,2.41,4.32,5.38,4.03,2.06,1.45,1.98,2.97,4.6,2.26,1.93-1.14,1.36-4.69-.64-6.51-.27-1.4.42-4.18.14-6.79.08-1.19.5-3.46,1.06-5.73-.28,8.07,6.44,10.7,6.09,6.37-.3-3.65.28-6.09.42-9.69.54-13.69-3.47-13.02-4.48-18.64-1.52-17.81,3.19-32.59,2.13-46.06-2.73.63-17.08,1.27-20.86.89-.3,9.43,4.72,26.91,5.8,42.09Z"/>
    <path d="m136.5,246.05c-4.53-16.75-3.58-33.01-5.79-46.08-2.01-1.61-20,1.58-20.26,3.36-.03,10.34,11.66,24.55,13.36,43.11.21,5.95-2.82,7.67-1.74,18.12,1.03,3.9-.32,5.91,1.22,8.51,1.57,2.17,1.22,4.54,2.62,4.53,6.31-1.74.99-8.17,2.95-13.4,4.03,4.9,4.69,8.8,4.54,10.78-.84,2.93-.55,6.99-1.33,7.61-3.32,4.39-.08,8.46,2.13,6.39.45-1.14,1.24-1.93,2.55-3.95,2.03-.7,3.32-2.33,4.33-5.59,4.75-1.26,4.12-12.14,3.91-13.62-.63-4.58-5.2-11.3-8.49-19.77Z"/>
    <path d="m275.41,228.66c-.29,3.95-.44,12.27-2.41,15.15-2.95,3.4-4.92,6.28-10.44,2.95-2.65.91-5.67.23-7.64-2.19-1.79-.6-2.78-2.04-3.33-3.93-2.95-1.29-2.27-4.69-2.95-8.47,1.59-2.27,4.84-1.74,5.14,1.13.63,0,1.13-.31,1.51-.91-.6-5.56.21-15.46,7.93-16.01,3.66-.26,7.96-3.74,14.9,5.38,4.21,4.06,10.69,6.48,7.33,10.77-2.57,2.65-6.48-1.4-10.06-3.87Z"/>
    <path d="m167.37,264.14c-1.93,1.77-4.67.18-6.56-1.87-1.72-1.87-3.43-4.37-1.14-6.61-1.93-4.11.03-6.8,1.2-9.63.92-2.24-1.45-6.79,3.69-8.74,1.62-.61,1.98-4.63,7.02-5.05,1.82.05,9.37-3.23,12.64,1.66,2.61,3.89,1.87,8.43,3.07,12.49-.94,2.13-7.08.69-7.19-4.84-.43-2.6-2.76-4.61-5.77-1.97-1.39,1.41-1.45,7.43-.16,9.54,5.1,5.45,1.41,9.99-2.48,6.85,3.65,2.84,3.42,7.3.01,7.13-.23,1.52-2.12,1.97-4.35,1.04Z"/>
    <path d="m281.45,270.23c.4,4.35-2.2,10.95,1.45,11.35,4.68.12,2.41-7.52,4.59-13.09,1.77-.26,2.42,1.48,1.47,2.73-.98,1.28-.49,2.6-1.63,3.51,2.57,2,.57,3.5,1.42,5.17,1.75,3.43-1.5,3.98-2.15,5.63.21,1.88-2.1,2.4-3.2,3.65-1.66,2.26-3.93,2.14-7.3.15-4.6-2.72-5.55-7.3-2.05-7.1-3.5-2.68-3.25-5.65-.8-5.7-3.35-2.6-1.05-6.15,2-4.75-1.35-3.55,2.25-4.65,6.2-1.55Z"/>
    <path d="m128.19,267.32c-.95-1.25-1.1-2.67-.87-3.33.85-2.41,2.75-1.36,4.88-1.72,1.33-.17,1.91,1.17,1.36,2.23,4.14-1.69,5.56,2.54,2.7,4.41,2.64.41,1.67,4.58-1.98,5.85,2.27.33,1.8,4.23-1.6,5.18-.12,1.18-.24,2.38-.61,2.64-3.16,1.06-5.59-2.98-2.74-5.42-1.8-.06-2.8-2.99-.92-4.79-1.77-.36-1.61-3.41-.22-5.06Z"/>
    <path d="m242.49,50.68c2.48,1.36,2.95,7.79.07,16.13-.97,2.81-.92,6.14-4.86,5.6-1.88,13.68-9.78,18.21-17.94,24.58-5.66,4.42-16.1,4.09-20.98.22s-15.51-6.59-18.78-24.44c-4.59-.04-3.74-2.14-5.43-6.65-2.94-7.82-1.44-15.06.83-15.63-.79-54.91,66.29-54.72,67.08.19Zm-40.76,4.03c-2.72-2.05-4.16-2.35-6.52-2.28-2.74.09-4.59,1.89-5.83,2.58,1.99.55,2.46.99,5.37,1.1,1.68.07,4.12-.72,5.85-.98.45-.07,2.01.23,1.13-.43Zm15.62.66c1.64.14,3.4.91,5.08.84,2.86-.12,4.02-1.01,5.97-1.57-1.25-.69-3.01-1.96-6.16-2.02-2.36-.04-4.02.47-5.89,2.32-.78.78.54.39.99.43Z"/>
    <path d="m100.04,51.65c2.48,1.36,3.75,8.31.16,16.59-1.18,2.72-1.56,6.04-5.89,6.26-3.35,13.44-9.65,16.85-18.76,23.17-4.62,3.2-13.51,3.29-18.44-.1-6.52-4.48-14.69-9.73-18.08-22.88-4.59-.04-4.7-2.38-6.39-6.89-2.94-7.82-.57-15.1.96-15.81C32.85.4,99.3.06,100.04,51.65Zm-40.42,5.13c-1.54-2.46-4.28-3.07-6.64-3-2.74.09-4.64,1.98-5.88,2.67,1.96.57,3.48,1.41,6.34,1.53,1.68.07,3.38-.11,4.93-.63.44-.15,1.83.36,1.25-.58Zm15.72.61c1.56.32,3.21.9,4.89.82,2.86-.12,4.49-.85,6.45-1.41-1.25-.69-3.21-2.92-6.36-2.97-2.36-.04-4.69.52-6.23,2.99-.58.93.8.48,1.25.58Z"/>
    <path d="m223.72,171.7c7.46,16.58,6.57,18.38,6.43,23.5-.1,3.49,4.64,21.21-4.1,29.86-3.29,3.26-5.49,6.81-10.09,7.47-4.31.62-8.33-.78-11.29-1.64-4.54-1.33-9.9-4.98-12.57-7.78-43.39-16.84-6.57-75.6,31.63-51.41Zm-15.72,26.86c-1.53-1.69-2.79-2.44-4.86-2.22-2.05.21-4.08,1.59-5.21,2.78,1.15.48,3.15.99,4.97.94,1.49-.04,2.85-.9,4.35-.85.39.01,1.34,0,.74-.65Zm11.57-.24c1.25-.03,2.53.34,3.96.23,1.75-.13,3.09-.31,4.27-1.74-1.07-.46-2.06-1.97-4.81-1.78-2.38.16-3.18,1.29-4.37,2.59-.8.87.56.72.95.71Z"/>
  </g>
  <g class="skinOverlapLine">
    <path d="m2.99,271.24c-.1,1.55-.17,3.46.2,5.53"/>
    <path d="m7.15,272.87c-.52,4.87.26,8.4,1.25,10.91"/>
    <path d="m12.14,273.5c-.28,5.36-.35,10.09,1.64,14.31"/>
    <path d="m19.6,265.56c.26,2.36-.4,4.27-.65,5.48"/>
    <path d="m141.07,279.44c.87-3.47,1.54-7.33.84-10.55"/>
    <path d="m139.19,269.81c.56,6.77-.35,11.73-2.44,15.23"/>
    <path d="m159.67,255.66c1.42,3.22,4.57,7.32,7.7,8.48"/>
    <path d="m161.24,246.81c.29,7.11,4.89,13.29,10.48,16.29"/>
    <path d="m166.56,241.28c-.14,6.61,1.72,12.36,5.15,14.7"/>
    <path d="m254.92,244.56c-1.53-4.43.73-5.93.09-8.79,3.72-2.26,6.24.76,6.06,4.97"/>
    <path d="m262.56,246.75c-1.64-1.45-4.09-1.4-4.16-2.44,1.05-4.92,6.13-4.71,8.59-2.02"/>
    <path d="m255.91,235.31c-.18-.96-.69-2.02-2.12-2.02-5.21.84-2.39,3.67-2.19,7.34"/>
    <path d="m265.18,240.96c.89-1.18,2.04-1.74,3.38-1.83"/>
    <path d="m267.49,235.55c-.51,1.22-.74,2.55-.62,4"/>
    <path d="m273.15,227.37c.9.71,1.67.81,2.26,1.29"/>
    <path d="m395.62,285.7c-.42,6.97-1.68,8.31-6.3,11.84"/>
    <path d="m399.91,285.02c.2,2.43-.08,5.79-.92,7.72"/>
    <path d="m278.75,293.98c1.04-.83,1.14-1.93.95-3.1"/>
    <path d="m282.57,292.58c.12-.86-.17-1.53-.67-2.1"/>
    <path d="m128.19,267.32c1.13-1.08,3.84-2.13,5.37-2.82"/>
    <path d="m128.41,272.38c1.56-1.26,5.28-3.11,7.85-3.48"/>
    <path d="m129.33,277.17c1.48-1.36,3.32-2.15,4.95-2.41"/>
    <path d="m274.05,282.23c2.73,2.26,5.67,4.21,7.49,4.81"/>
    <path d="m273.25,276.53c3.43,2.15,8.62,5.46,11.41,6.34"/>
    <path d="m275.25,271.78c1.96,1.49,3.89,2.54,5.88,3.76"/>
    <path d="m287.32,274.73c-.24-.22-.55-.46-.93-.72"/>
    <path d="m238.16,55.25c-.53,4.01.9,8.73-.46,17.15"/>
    <path d="m180.09,56.17c.14,4.87-.95,9.47-.1,16.6"/>
    <path d="m96.3,56.73c-.53,4.01-.63,9.34-1.99,17.76"/>
    <path d="m37.61,56.82c.52,4.41.32,10.48,1.42,17.85"/>
  </g>
  <g class="skinFoldLine">
    <path d="m159.13,280.73c1.59.79,5.18,3.75,5.18,5.69"/>
    <path d="m250.45,280.39c-2.37-.47-5.94-.02-7.54,1.34"/>
    <path d="m281.76,282.76c-.17.84-.83,1.89-1.55,2.26"/>
    <path d="m278.96,287.36c-.22.75-.6,1.39-1.3,1.8"/>
    <path d="m278.49,226.18c-.91.14-2.15,1.71-1.77,3.42"/>
    <path d="m239.2,56.26c3.28-5.79,4.1,1.69,2.76,6.12"/>
    <path d="m238.29,66.17c2.19,1.33,1.68-3.17,2.02-4.11,1.33-3.68-.11-3.58-.8-2.99"/>
    <path d="m178.4,55.31c-2.29-4.26-4.92,2.46-2.34,8.35"/>
    <path d="m179.69,67.39c-2.53-.45-1.72-2.71-2.14-3.62-1.79-3.96-.21-5.49.6-4.37"/>
    <path d="m96.88,57.74c3.68-6.19,5.06,1.1,2.85,6.63"/>
    <path d="m96.37,66.81c2.19,1.33,1.27-2.56,1.78-3.42,1.96-3.29.81-4.18-.05-4.13"/>
    <path d="m37.6,57.82c-3.7-5.41-6.1,1.75-3.52,7.65"/>
    <path d="m37.96,68.12c-2.53-.45-1.72-2.37-2.13-3.28-1.79-3.96-.21-5.49.6-4.37"/>
    <path d="m184.98,206.44c-3.56-6.87-9.4-.01-2.42,5.4"/>
    <path d="m184.36,208.11c-1.55,1.45,2.87,3.75,1.63,4.81-.65.56-1.38-1.57-2.62-2.17-2.32-1.12-2.78-4.26-.22-3.66"/>
    <path d="m314.76,85.54c-.98-7.15-4.65,1.19-1.49,7.47"/>
    <path d="m315.64,95.19c-.78.18-.56-2.03-1.08-3.17-.96-2.12-.75-7.05.6-5.23.75,1.46-.15,3.47.96,5.11"/>
  </g>
  <g class="skinEdgeLine">
    <path d="m398.15,292.43c-.57.33-1.86.26-2.73,0"/>
    <path d="m393.21,292.24c-.52.28-2.17.14-2.87-.24"/>
    <path d="m401.87,282.4c-1.08.99-2.07-.09-2.98.62-.94.74-2.6-.08-3.92.5-1.1.48-2.73-.25-3.72-.2"/>
  </g>
  <g class="skinCreaseLine">
    <path d="m226.12,394.66c-2.94.91-6.92.81-9.47-.12"/>
    <path d="m197.71,394.66c-3.05.91-7.44.91-10.07-.24"/>
    <path d="m263.42,222.21c-.42,3,1.26,6.49,4.12,8.02"/>
    <path d="m383.34,209.12c2.75-.3,5.29-1.92,9.6-1.7"/>
    <path d="m300.03,208.25c2.12-.07,4.66,1.34,6.79,1.92"/>
  </g>
  <g class="lipMaleMedium__noStroke">
    <path d="m213.17,213.48c1.52.41,3.19.88,5.18-.09,1.51.59.73,2.54,3.19,4.54-1.42,1.34.41,4.96-5.97,5.81-6.51.87-5.72-3.71-8.36-4.89,3.38-1.93,3.71-4.26,5.97-5.37Z"/>
    <path d="m206.58,77.4c1.41.56,3.54.77,5.38-.04,1.74.5,3.74,2.62,6.65,2.85-2.99,3.12-2.22,9.76-9.68,9.89-7.49.13-6.2-7.35-9.35-9.66,3.76-.56,5.05-2.83,7-3.04Z"/>
    <path d="m64.2,78.78c1.41.56,3.54.77,5.38-.04,2.12.38,4.86,2.25,6.65,2.54-2.99,3.12-3.44,7.28-9.43,7.44-7.06.19-6.05-4.85-9.61-7.21,3.12-.77,4.91-2.84,7-2.73Z"/>
  </g>
  <g class="mouthInner">
    <path d="m220.67,217.86c-.41-.17-.79-.47-1.16-.78,0,0,0,0,0,0-.48.31-1.01.57-1.57.77.4.36.68.75.83,1.18-.04.03-.08.06-.12.09.64-.47,1.18-.97,2.02-1.26Z"/>
    <path d="m217.26,80.42c-1.7-.41-2.67-.93-3.52-1.29-2.94-1.26-4.09.91-4.91.42-3.6-2.14-4.78.8-8.17,1,5.85,7.36,11.15,7.14,16.6-.13Z"/>
    <path d="m74.29,80.99c-3.36,2.68-11.72,2.75-15.02.17-.3.1-.6.18-.9.24,6.23,4.55,11.71,4.37,16.53-.13-.2-.1-.4-.19-.6-.28Z"/>
    <path d="m352.89,107.43l-18.06-.04s0,0,0,0c-.16.05-.33.11-.5.15,3.8,6.78,16.06,5.91,18.97-.04-.14-.02-.27-.04-.4-.08Z"/>
  </g>
  <path class="tongue" d="m217.33,217.38c-2.74-.49-4.86-.49-6.39-.22-.75.63-1.6,1.29-2.7,1.57,2.15.81,3.14,1.79,7.4,1.47,1.58-.12,2.41-.64,3.13-1.18-.22-.63-.71-1.17-1.44-1.65Z"/>
  <g class="teeth">
    <path d="m219.51,217.07c-.81-.69-1.58-1.44-2.59-1.09-1.08.37-1.58.18-2.96-.23-1.37-.41-2.36.99-3.84,2.05,2.96.93,6.9.91,9.39-.73Z"/>
    <path d="m216.11,80.1c-1.03-.33-1.73-.69-2.37-.97-2.94-1.26-4.09.91-4.91.42-3.15-1.87-4.45.15-7,.82,3.45,2.18,10.9,2.08,14.27-.27Z"/>
    <path d="m74.29,80.99c-4.71-1.5-6.74.43-7.84.06-2.84-.96-5.31-.49-7.18.11,3.3,2.58,11.66,2.51,15.02-.17Z"/>
    <path d="m352.89,107.43c-1.01-.26-2.13-.94-3.06-1.14-2.23-.49-3.92,1.36-9.62-.07-2.14-.54-3.35.5-5.39,1.18,3.86,4.41,14.32,3.96,18.06.04Z"/>
  </g>
  <g class="lipOverlapLine">
    <path d="m208.24,218.74c-.6.15-1.05.11-1.49.04"/>
    <path d="m221.85,217.79c-.39.18-.94.24-1.17.06"/>
    <path d="m216.92,215.98c.49-.18.89-.45,1.17-.81"/>
    <path d="m199.54,80.27c.4.2.63.32,1.12.29"/>
    <path d="m218.95,80.14c-.54.31-1.19.41-1.69.28"/>
    <path d="m56.45,81.4c.65.12,1.29.15,1.91,0"/>
    <path d="m76.91,80.96c-.72.4-1.39.54-2.02.3"/>
  </g>
  <g class="lipEdgeLine">
    <path d="m218.35,213.39c-1.99.97-3.66.5-5.18.09"/>
    <path d="m220.33,220.9c-1.13,3.05-7.37,3.7-9.23,2"/>
    <path d="m214.63,87.51c-3.36,3.66-8.87,3.06-11.03.24"/>
    <path d="m211.97,77.36c-1.84.81-3.97.6-5.38.04"/>
    <path d="m69.58,78.74c-1.84.81-3.97.6-5.38.04"/>
    <path d="m72.49,86.42c-3.5,3.2-8.58,3.2-11.79-.04"/>
    <path d="m336.19,112.95c3.8,3.9,11.5,3.76,15.19-.59"/>
  </g>
  <g class="cheekLine">
    <path d="m215.35,68.35c1.46,1.97,4.23,3.91,4.97,6.86"/>
    <path d="m202.29,68.35c-1.47,1.69-3.8,4.12-4.12,6.18"/>
    <path d="m73.55,69.06c1.82,1.5,3.31,3.71,4.33,6.9"/>
    <path d="m60.48,69.25c-1.76.96-3.8,3.64-4.94,6.6"/>
    <path d="m350.34,96.56c2.52,1.69,1.67,3.59,3.49,6.37,1.4,2.14,2.68,2.56,2.42,6.01"/>
    <path d="m337.35,96.49c-2.46,1.33-2.22,3.98-3.79,6.17-1.66,2.32-2.55,3.22-2.52,5.78"/>
  </g>
  <g class="noseLine">
    <path d="m219.03,204.56c.27,1.93,3.12,2.74,1.21,5.27"/>
    <path d="m209.22,206.66c-.86.45-1.58,3.13.38,3.81"/>
    <path d="m217.34,210.05c1.04-.43,1.29-1.22,2.31-1.21"/>
    <path d="m210.9,209.7c1.57-.9,2.31-.18,3.42.35"/>
    <path d="m214.8,66.3c.06,2.7,2.7,3.68.46,5.77"/>
    <path d="m202.78,66.47c.06,2.47-2.47,3.05-.57,5.4"/>
    <path d="m204.07,71.91c1.84,0,1.48,1.07,4.71,1.16,3,.08,3.06-1.25,4.66-1.25"/>
    <path d="m73.55,69.06c2.18,2.29.32,4.22-.25,4.44"/>
    <path d="m60.48,69.25c-1.04.71-1.83,2.67-.13,4.02"/>
    <path d="m61.97,72.89c1.43,0,1.54,1.54,4.43,1.61,3.53.09,3.29-1.75,5.11-1.75"/>
    <path d="m337.35,96.49c-1.6,2.25-.29,4.27,1.75,4.55,1.7.23,1.85,1.73,4.87,1.7,2.67-.02,3.05-1.45,4.85-1.65,1.78-.2,3.7-1.95,1.52-4.53"/>
  </g>
  <g class="eyeFoldLine">
    <path d="m226.25,200.6c-1.04.91-3.33,1.1-4.67.36"/>
    <path d="m206.51,201.59c-1.07.84-4.18,1.52-6.01.55"/>
    <path d="m226.64,57.54c-2.53,1.32-5.92,1.21-7.65,0"/>
    <path d="m198.76,57.56c-2.07,1.38-5.81,1.32-7.59-.17"/>
    <path d="m84.45,60.26c-2.48,1.68-6.19,1.39-7.92.18"/>
    <path d="m57.44,60.08c-1.68,1.73-6.16,1.93-8.67-.29"/>
    <path d="m362.78,85.96c-2.09,2.57-7.2,1.41-9.15.69"/>
    <path d="m334.89,86.63c-1.44.11-7.18,2.68-10.16-.07"/>
  </g>
  <g class="eyeCornerLine">
    <path d="m227.8,196.81c.4.2.67.33,1.04.4"/>
    <path d="m195.26,200.26c.93.09,2.35-.88,2.67-1.14"/>
    <path d="m189.37,55.02c-.74.41-1.06.79-1.98,1.1"/>
    <path d="m228.4,54.63c.67.31,1.52.81,2.26,1.38"/>
    <path d="m47.1,56.45c-.63.49-1.13.87-1.93,1.12"/>
    <path d="m86.68,56.8c.59.41,1.14.61,1.94.85"/>
    <path d="m323.96,83.53c-1.09.43-1.59.31-2.24.24"/>
    <path d="m365.66,83.63c-.83.44-1.44.27-2.09-.07"/>
  </g>
  <g class="eyeCreaseLine">
    <path d="m189.9,53.25c3.22-3.45,8.11-2.82,10.91-.58"/>
    <path d="m47.33,54.78c3.37-3.4,8.09-3.24,10.71-.86"/>
    <path d="m350.79,82.33c2.84-3.4,8.36-4.22,12.08-.35"/>
    <path d="m324.28,82.03c4.51-4.43,9.54-2.71,11.79-.33"/>
  </g>
  <g class="eyebrowBlack">
    <path d="m194.02,194.95c5.98-6.97,10.22-3.92,15.39-4.78-2.65,3.79-9.06.36-15.39,4.78Z"/>
    <path d="m230.16,190.67c-4.37-3.86-11.07-.84-12.79-1.38,1.98,3.25,7.51-.62,12.88,2.94,0-.5-.03-1.01-.09-1.55Z"/>
    <path d="m213.65,44.68c3.91,4.77,12.95-.78,18.57,3.2-4.48-6.4-11.81-1.78-18.57-3.2Z"/>
    <path d="m204.62,44.4c-3.28,4.8-12.45-1.02-18.22,3.16,3.94-6.84,10.85-1.91,18.22-3.16Z"/>
    <path d="m72.32,47.17c3.87,4.6,12.18.24,17.42,3.89-3.98-5.97-10.15-2.38-17.42-3.89Z"/>
    <path d="m62.44,47.26c-3.46,4.47-13.25.07-18.31,3.49,4.56-6.33,11.04-1.98,18.31-3.49Z"/>
    <path d="m320.7,76.53c5.05-3.15,13.6-3.59,17.17-1.14.97.67-1.85,1.78-3.05,1.3-5.25-2.13-9.17-2.19-14.12-.15Z"/>
    <path d="m367.28,76.98c-5.35-4.31-13.83-3.59-17.1-1.66-1.01.6,2.2,1.91,3.37,1.36,5.44-2.58,8.3-2.2,13.73.3Z"/>
  </g>
  <g class="hairBlack">
    <path d="m183.62,225.56c1.38-1.95.28-4.78-3.38-7.87-6.07-5.11-15.14-23-7.56-39.34l-6.66,6.57c5.33-25.48,36.83-27.1,40.59-26.38-1.04-5.11-7.21-11.96-14.2-12.33,8.49-1.69,17.92,6.21,19.76,12.26,2.88-4.57,13.78-5,16.85-.64-2.99-1.63-10.96-.96-11.47,2.43,13,4.08,16.07,14.04,23.42,18.39-3.14.36-6.86-1.36-9.13-3.29,4.71,7.11,3.28,13.66,2.38,15.6-2.78-7.53-10.87-4.17-10.61-16.7-1.06,12.68-10.13,15.97-13.52,17.18,4.32-2.87,6.21-9.5,6.04-12.55-2.44,7.19-13.93,14.55-24.5,15.62,1.19-2.96,1.23-6.31-.87-10.13.43,6.54-.61,11.18-3.65,15.63,0,4.34.79,8.13,2.35,11.64-3.65-3.49-3.67-9.45-4.33-9.14-2.38,2.73-3.83,4.38-6.89,5.85.5,2.33,2.31,4.18,4.67,5.97s3.16,4.24,6.24,3.01c.51,2.25,1.41,4.1,2.94,5.75-2.33,2.61-5.2,3.44-8.47,2.45Z"/>
    <path d="m175.41,50.49c-4.26-23.08,2.44-33.37,13.03-41.24-1.76-1.3-3.54-1.77-6.13-.13,2.81-3.66,6.19-3.05,8.74-1.37.76-4.27,4.69-6.69,9.78-7.3-3.09,1.41-5.64,2.87-6.07,6.26,12.13-4.37,26.6-2.05,36.42,4.68,8.48,5.81,14.94,20.05,11.31,39.29-4.55-.87-1.56,4.77-4.33,4.58-.65-2.24.2-9.2-2.13-12.45-4.71-2.37-10.81-1.74-16.34-4.75.6,1.32,2.64,1.62,3.18,3.43-6.19-3-14.89-2.76-20.9-7.99.54,1.2,2.82,2.46,2.76,3.84-5.1-3.72-13.81-4.44-13.35-16.38.19,6.66-.53,9.04-2.31,11.84.04-1.54.13-2.81.09-3.99-1.36,5.7-5.04,9.43-6.62,11.01-.83,5.55-2.54,6.34-2.44,16.36-2.45.11-.84-7.29-4.69-5.68Z"/>
    <path d="m33.6,51.98c-4.59-22.68,1.43-33.39,13.02-41.45-2.15-1.15-4.01-.69-6.6.95,2.81-3.66,5.69-4.26,9.17-2.74,1.23-4.46,3.99-7.34,9.08-7.96-3.09,1.41-5.53,3.73-5.95,7.12,12.19-4.42,26.91-2.51,36.89,3.99,8.72,5.68,15.22,19.9,10.84,39.75-2.32.1-1.46,5.35-3.74,5.09-.65-2.24.34-6.5-1.99-9.75-5.88-4.79-14.56-1.05-20.47-5.38.8.92,2.83,2.2,4.07,4.01-5.63-3.23-9.97,2.3-18.86-4.53,1.65,1.36,1.78,3.34,2.4,4.99-5.12-4.16-10.57-3.96-11.74-16.15,1.3,15.05-5.15,14.33-7.52,18.88-.24-1.81.9-3.97,1.14-5.79-1.05,2.19-2.19,3.73-3.91,4.92-1.12,2.57-1.83,5.54-1.81,8.89-2.71-.58-1.41-5.81-4.02-4.84Z"/>
    <path d="m386.3,74.34c0-14.2-8.39-19.08-13.68-26.32-6.96-9.53-28.04-16.33-40.06-7.63-7.98-4.15-20.85,9.02-24.15,16.12-2.78,5.99-8.63,10.26-8.94,24.46-.24,10.99-4.7,21.14,2.24,38.55,1.49,3.73,3.94,4.25,4.04.21,6.91,11.62,18.21,12,11.28,3.62,4.27,2.4,7.45,3.58,9.72,3.96.77-.9,1.58-1.58,2.49-1.86.24-1.36.39-2.97.43-4.66-8.31-5.36-12.86-11.08-12.98-19.64-3.83.92-3.16-3.31-4.29-5.77-5-10.89-.29-19.51,2.48-15.13.5,1.02.1,4.64,1.69,4.18-.16-5.23-.21-9.62,2.2-13.58.79-.12,1.66-.64,2.79-1.36-6.41,5.13,10.16,3.8,11.43-6.15-.03,7.67,9.82,12.96,7.43,6.17,10.58,4.92,21.05,3.37,15.74.13,4.54,1.33,8.15,2.18,12.58,2.27,2.52,11.2,1.48,23.8-.99,31.03-1.4,4.1.61,4.98,3.23.72-4.38,13.7-13.93,23.39-15.03,25.39-1.53,2.78,4.25,3.79,12.18-2.75-1.99,6.6,7.8.13,12.25-7.8-.62,4.79,2.21,3.32,5.73-1.66,11.3-16.17.18-33.45.18-42.49Z"/>
  </g>
  <g class="stubbleBlack">
    <path d="m219.76,96.98c-5.38,1.07-6.17-.64-10.57-.67-4.22-.03-6.11,1.8-10.41.89,4.87,3.87,15.31,4.2,20.98-.22Z"/>
    <path d="m220.71,80.03c-1.7-5.21-4.16-6.94-11.93-6.81-6.74.12-9.23,1.51-11.66,7.21,8.98-2.23,8.21-3.66,9.1-3.76,1.68.99,3.65.89,5.54.08,1.17.22,3.14,1.99,8.96,3.28Z"/>
  </g>
  <g class="hairOverlapLine">
    <path d="m187.12,200.03c-.66,1.03-1.32,1.9-1.98,2.5"/>
    <path d="m178.24,208.38c-.9.41-2.48.74-3.26.76,3.43-2.4,5.49-5.11,7.27-8.17"/>
    <path d="m236.03,42.8c1.5.6,2.64,1.5,3.9,2.22-.13-.98-1.44-2.76-2.7-3.9"/>
    <path d="m182.54,39.81c-.83,1.05-2.11,2.19-3.6,3.03.93-1.35,1.65-2.66,2.19-3.95"/>
    <path d="m94.31,46.99c.79.36,2.65,2.03,3.31,2.1-.13-.98-.34-2.4-.97-3.77"/>
    <path d="m39.42,47.94c-1.47.79-2.75,1.36-3.7,1.57"/>
    <path d="m368.74,71.92c5.54.58,5.14-2.22,1.24-4.02"/>
    <path d="m318.77,70.87c-1.64.43-2.85.36-3.88.23"/>
  </g>
</svg>