<svg viewBox="0 0 400 400">
  <g class="light">
    <path d="M394.7,0c-5.64,147.63-51.34,268.58-176.93,227C127,152.13,238.86,24.89,394.7,0Z"/>
    <path d="M0,89.87C133,97,227.9,190,159.61,260.65,83.33,300.73,23.65,181.31,0,89.87Z"/>
    <path d="M226.56,318.83C210.15,232,327.23,226.41,400,260,354.85,332.8,260.09,384.57,226.56,318.83Z"/>
  </g>
  <path class="medium" d="M311.62,268.92c-40.34,10.08-81.13,34.44-118.28,74.37C203.62,242.12,254.49,172.85,325,80.17c-58.54,56.56-121,118.26-142.83,218.17C159.32,238.28,126,186.73,80.82,152.86c44,48.23,76.55,105.56,94.86,179.78-4.36,27.12-5.11,50.35-4.56,64-.72,5,25.29,4.13,26-.83a112.7,112.7,0,0,1-5.64-26.39C224.88,323.53,265.57,290.34,311.62,268.92Z"/>
</svg>
