<svg viewBox="0 0 400 400">
  <path class="light" d="M236.55,277.67c-30.16,14.26-32.15,39.95-37.15,61.86C190,380.7,129.93,443,43.48,356.52S19.3,210,60.47,200.6c21.91-5,47.6-7,61.86-37.15,20.23-42.8,53.38-67.62,117.61-3.39S279.35,257.44,236.55,277.67Zm-86.27-74.92a33.21,33.21,0,1,0,47,0A33.21,33.21,0,0,0,150.28,202.75Z"/>
  <g class="dark">
    <path d="M205.15,194.85a44.38,44.38,0,1,1-62.76,0A44.38,44.38,0,0,1,205.15,194.85Zm-54.87,7.9a33.21,33.21,0,1,0,47,0A33.21,33.21,0,0,0,150.28,202.75Z"/>
    <path d="M127.47,317.72,82.28,272.53l-9.38-9.38L61.73,274.32l9.38,9.39s-3.49,13.21,14.24,30.94,30.94,14.24,30.94,14.24l9.39,9.38,11.17-11.17Z"/>
    <path d="M400,45.13A81.44,81.44,0,0,0,354.87,0c-4.25,18.76-33.09,48.72-48.05,59.15l34,34c10.43-15,40.39-43.8,59.15-48.05"/>
  </g>
  <path class="medium" d="M197.25,202.75a33.07,33.07,0,0,1,9.7,22.36h0L336.15,88.48,311.52,63.85,174.89,193.05h0A33.07,33.07,0,0,1,197.25,202.75Z"/>
</svg>
