<svg viewBox="0 0 239.25 479.37">
  <path class="hairBlack" d="M54.72,149.05c10.68.23,18.41-12,27.56-29,1.66,8.35-1.61,17.67-6.11,28-3.27,7.5,8-.34,11.48-10.43,2.24,7.5,8.09-11.7-1.32-35.74-5.77-14.73-2.58-14.93-9-23.6-3.32-4.48-7.83-6.82-10-9.09-8.51-8.73-30.61-9.63-41.47,2.21C12.46,73,13.17,84.31,8.93,90.61,1.4,101.8,3.79,110.22,1.85,116.74c-6.68,22.43,9.72,41.25,9.63,31.58,10.17,11.31,23,12.6,18,6.23,14.83,4.32,18.25,1,13.48-1.09C51.49,153.65,60.62,151.66,54.72,149.05Z"/>
  <g class="eye">
    <g class="sclera">
      <circle cx="141.01" cy="77.8" r="19.74"/>
      <path d="M76.56,106.48c-42.18,7.77-44.12-2.74-1.93-10.52C76.62,95.75,79.67,105.4,76.56,106.48Z"/>
    </g>
    <g class="irisDarkBrown">
      <ellipse cx="137.13" cy="78.64" rx="2.68" ry="3.47" transform="translate(-20.87 83.78) rotate(-31.7)"/>
      <ellipse cx="153.95" cy="67.61" rx="2.68" ry="3.47" transform="translate(-12.56 90.97) rotate(-31.7)"/>
      <ellipse cx="57.82" cy="104.65" rx="3.17" ry="3.33" transform="matrix(0.98, -0.2, 0.2, 0.98, -19.54, 13.49)"/>
      <ellipse cx="75.39" cy="101.74" rx="2.55" ry="3.33" transform="translate(-18.62 16.91) rotate(-11.4)"/>
    </g>
    <g class="pupil">
      <ellipse cx="137.56" cy="78.38" rx="1.04" ry="1.35" transform="translate(-20.66 83.97) rotate(-31.7)"/>
      <ellipse cx="154.38" cy="67.34" rx="1.04" ry="1.35" transform="translate(-12.36 91.16) rotate(-31.7)"/>
      <ellipse cx="58.02" cy="104.54" rx="1.23" ry="1.29" transform="translate(-19.52 13.53) rotate(-11.4)"/>
      <ellipse cx="75.56" cy="101.64" rx="0.99" ry="1.29" transform="matrix(0.98, -0.2, 0.2, 0.98, -18.6, 16.94)"/>
    </g>
  </g>
  <g class="bennett">
    <g class="soleWhite">
      <path d="M211.57,454.93c4.63,1.33,10.63,4.4,9.25,12.31-2,3-17.8,4.31-30,1.45-6.19-1.45-21.12-.65-24.1-4.79a9.41,9.41,0,0,1-1-6.23C180.16,452.73,199.88,451.08,211.57,454.93Z"/>
      <path d="M126.34,465.1c-.54,1.86-.72,5.15,0,6,1.2,1.68,9.15,4,10.35,4.82,6.46,4.33,26,4.68,34.6-1.37,1.35-4.82-2.31-12-7.23-12.64C154.38,454.11,135,458.22,126.34,465.1Z"/>
    </g>
    <g class="bennettShoe">
      <path d="M187.85,426.21c-.67,5.72,3.38,12.85,6.63,16.94,3.9,4.91,10.92,10.34,17.09,11.78-6.55.13-11.24,4.41-12.1,9.73-5.12-.27-10.56-1.71-15.72-2-7.5-.39-17.19-3.72-18.05-5-1.29-5.85,4.23-18.78,2.6-29.19C173.44,423.88,183.29,423.9,187.85,426.21Z"/>
      <path d="M129.34,437.5c1.72,12-2,16.85-3,27.6,2.14,3.2,8.53,3.9,11.33,5.19a41.11,41.11,0,0,0,7.69,2.13c1-8.46,13.87-11.42,18.67-10.53-6.38-4.95-14.17-19.1-13.48-29.48C146.88,425.24,136.06,432.81,129.34,437.5Z"/>
    </g>
    <g class="shoelace">
      <path d="M194.48,443.15a37.75,37.75,0,0,1-3.51-5.3,29.6,29.6,0,0,0-6.66,1.72,32.1,32.1,0,0,0,10.87,14.72,32.68,32.68,0,0,1,8.87-2.69A39.65,39.65,0,0,1,194.48,443.15Z"/>
      <path d="M141.43,444.6c.43,4.73,2.74,10.28,5.1,14.62,3.13-1.38,8.58-2.41,12.32-1.6-2.71-3.85-5.95-9.07-7.21-14A26.86,26.86,0,0,0,141.43,444.6Z"/>
    </g>
    <path class="converseLogo" d="M176.45,456.27c5.82.66,6.85-10.63.59-11.5C171.19,444,170.22,455.55,176.45,456.27Z"/>
    <path class="bennettJeans" d="M197.9,238.38c.09,7.12,2.61,12,3,21.44,1.27,34.77-1.51,68.62-3.77,88.67-.69,3.71,1.08,7.84-1.59,12.44-.58,17.83-5,49.71-4.41,55.17.77,7.15-3,9.15-2.74,15.42-1.23-3-6-3.46-6.33,1.53-4.23.81-9,4.75-13.65,6.52-2.85-4-10.55-5.43-5.38-12.4,2-2.68-5.87-5.55-1.91-15.35,3.39-8.41-1.18-35,3.24-51.5.57-2.11-2.15-2.37.45-5.91,1.38-1.88-3.86-2.86-1.48-7.67,1.18-2.39.56-5.9-.57-9.45-.71,6.75-2.52,11.74-2.2,16.24.45,6.15-1.26,10-1.18,15.2.26,15.15-1.9,31.84-3.54,42.5-1.17,7.62,1,16.57-2.51,20.37-1,1.08,1.71,4.63-2.89,6,0-4.55-8.57-4.85-9.82.29-2.47-1.28-6.41,4.81-10.8,4.93,0-5.43-5-8.38-2.66-12.51,1.18-2.95-3.82-4.43-1.77-11.81,3-10.62-1.4-34.57.42-45.6.85-5.13-1.7-10.84.89-15.35,1.49-2.59-1.09-3.64,1-7.52,1.9-3.48-3.7-8.42-1.92-17.57,1.18-6.05-9.69-56.55-8.55-78.66.44-8.56,3.44-7.67,3.73-13.28Z"/>
    <path class="bennettJacketInner" d="M213.9,213.13c-23.17-23.48-27-12.63-17.44,21.83,3.66-.91,8.62-7.71,11.37-11.36C209.94,220.77,213.31,219.15,213.9,213.13Z"/>
    <path class="shirtWhite" d="M108.88,163.34C116.5,183,112.16,186.09,117,189c1.75,7-1.56,10.53,1.5,12.33,3.06,4.95-1.62,6.63,3.23,10,1.33,8.22-4.29,8.41-.23,13.25,2.87,4.53-3.68,4.34.57,8.64-4.07,2.64.81,4.14-2.53,10.14,14.15-1.39,27.66,9.8,48.39,8.87,13.42-.6,19.65-6.95,31-11.75a5.14,5.14,0,0,0-1-5.42c2-3.84-2.68-3.14-.58-7.49,3.53-6.14-2.28-5.58-.57-12.21,3.72-4.43-2.65-4.43-.81-12.1C203.46,86.31,150.24,91.55,108.88,163.34Z"/>
    <path class="bennettSleeves" d="M152.75,109.13c3.73-1.93,8.11-2.65,10.88-4.59.34-.94,1.32-1.21,1.38-2.06,9.59-8.54,24.3,6.75,21.42,24-4-1.34-7.77-2.31-10.75-2-2.67-3.22-4.71-.08-7.66-1.69-2.8-3.72-4.4-.44-7.48-2-3.1-3.63-3.64,11.59-25.09,10.84.58,2.31.31,4.16-.87,5.52a12.69,12.69,0,0,1,2.76,7c1.68,2.07,7.32,1.13,7.12,3.34,3.38-.8,5.43,3.64,8.57,4.36,2.72-1.76,2.62,2.84,4.79,2.32.64-1.65,1.67-1.45,2.76-1-.57-2.44,1.92-2.19,3.33-3.85,6.88-1.6,18.81,13.83,15.75,21-2.62,4.52-9.15,9.09-12.65,9.14-10.84.14-32.49-6.55-44.6-13.64-3.47,1.75-10.69.71-13.53-2.35a64.16,64.16,0,0,1-3.38-10.14c-10.41-19.64,5.8-26.86,16.74-34"/>
    <path class="bennettJacket" d="M165,102.48c.29-2.31,1.93-3,3.82-3.29a4.32,4.32,0,0,1,4.33-1c-.08-2.17,4.39-2.35,5.42-4.56-1-4.54,3.33-3.55,4.45-6.08-.79-4.13.36-3.19,1.84-5.86,1.56-2.82,1.15-5.51,4.45-5-.5-6.53,2.84-8.79,4.76-13.27,2.15-5,3.95-13,7.82-15-2-5.49,2.21-12,2.93-19.42,3.71-2.18,21.91,5.28,22,12.91C220.84,58,216.28,76.49,210.51,89c-4.72,10.22-10.64,25.76-19.39,39,18.69,36.91,11.52,31.47,15,46.41,3.34,14.3,8.57,22.36,7.76,38.71-1.49-1.93-5-.8-7-2-5.57-3.48-7.49-6.12-16.79-7.21l-6.62-87.44C179,110.29,173,100.26,165,102.48Z"/>
    <path class="bennettJacketCollar" d="M190.18,143c-2.83,4.34-3.79,10.65-5.86,16.91-1.91,15.28-2.72,32.24-1.5,44.78.25,2.6,8.85,6.9,11.5,6C186.63,187,194,163.65,190.18,143Z"/>
    <g class="zipperDisplayLine">
      <path d="M183.52,116.47c-4.49-6.18-10.57-16.21-18.51-14"/>
      <path d="M194.32,210.72c-7.69-23.75-.28-47.07-4.14-67.7"/>
    </g>
    <g class="skinEastAsian">
      <path d="M152.75,109.13c8.14,13.25-21.4,23.61-30.51,10.08.25-3.62-1.69-10.8-7.7-15.84"/>
      <path d="M195.41,111.24c1.53-5.14-.57-6.82-4.38-6.55-3.39.42-4.19,8.41-7.94,11.18l-2.36-3.3c-6.19,9,.62,17.61.18,19.75-4.95,9.24-10.76,12-16.15,16.77,6.41-.25,16.15,12,15.34,19.35,5.93-9.78,6-22.63,12.4-28.11,5.36-3.3,11-11.45,10.25-17.32,0-1.29-1.16-2.14-1.22-3.3a5.28,5.28,0,0,0-1.56-3.58C198.64,115.4,200.44,111.81,195.41,111.24Z"/>
      <path d="M239,21.93c-2.79-1.37-2.55-5.26-9.19-5.3A5.11,5.11,0,0,0,231.92,15c5.48,1.76,8.4-1.46,5.86-3.91-3.37,0-4.57-1.67-6.59-1.67s-5.11,2.95-7.13,4.1a11.09,11.09,0,0,0,1.76-4.23c5.06-2.73,5.36-9.76.84-8.93-1.32,1.49-3.17,3-5.09,5.28-3.94,4.66-3.28,4.38-5.75,10.29-.45-1.57-2.09-2.77-3.22-2.08-1.55,4.73-5.76,7.39-5.89,14.77h0c4.9,0,15.51,4.54,19,9.93,1.9-2.59,3-6.76,2.79-8.71a4.63,4.63,0,0,0,1.94-1.4c1.56,2.35,4.06,2,4.9.52.53-.83-1.59-1.6-.84-4.52C237.34,25.53,239.14,23.73,239,21.93Z"/>
      <path d="M158.05,66.52c1.46.7,1.25,2.65,1.51,3.16,1.35,2.7,10.2,8.85,4.43,26.05-1.57,4.66.18,9.7-3.94,12.82-6.24,4.71-9.94,3.9-20.14,4.49-9.64.56-20.33-2.09-24.43-7.72-2.31,3.43-4.44,3.08-6.43,1.81-2.76-2.48-5.5-1.14-9.54-5.77-19.79-16.72,16.68-68.76,46.72-56C151.62,59.73,156.86,55.88,158.05,66.52ZM140.79,78.27a5.49,5.49,0,0,0-5.67.5,13.72,13.72,0,0,0-4.93,5,16.24,16.24,0,0,0,6.7-1.6c1.44-.83,2.06-2.12,3.63-2.91C140.93,79.05,141.72,78.62,140.79,78.27Zm9.77-6.06c2.88-1.09,5.25-2.62,6.15-5.35a9.7,9.7,0,0,0-5.85,1.7c-1.43,1.07-1.11,2.37-1.51,3.93C149.08,73.56,150.13,72.38,150.56,72.21Z"/>
    </g>
  </g>
  <g class="liz">
    <path class="negligeeMesh" d="M96.8,207.78c3.11,15,4.73,29.15,7.23,48.53,2.35,18.29,3,37.88,5.13,51.11-1.9-1.86-83.37,1.51-85.11,3.74,1.76-29.66,7.08-82.31,9.59-100.83l63.16-2.55"/>
    <path class="negligeeTrim" d="M24.05,311.16c-.16,2.63-.31,5.28-.47,7.94,9.42-3.29,75.93-5.89,87.16-4.06a73.69,73.69,0,0,1-1.58-7.62C107.26,305.56,25.79,308.93,24.05,311.16Z"/>
    <g class="skinIndian">
      <path d="M65.25,457.25c-2.55-5.42-6-10.24-5.61-14.05.42-4.78-.6-6-.44-10.07.81-20.1,6.23-43.94,6.41-56.24.08-5.07,2.33-11.85,2.93-18.14.8,4.2,1.64,8.62,1.13,13.72-1.93,19.39,7.35,54.2,5,63.61-1.18,4.61.29,7.15.08,11-.33,6.38-3.71,12.89-2.89,20C69.3,466.16,67.34,461.68,65.25,457.25ZM31.12,126.37c5.65,2.91,9.59,19.41,8.15,22.87-2.84,6.83-8.25,10.38-14.39,15.26l7.9,71.05c.19,2.36-5,15.23-3.35,26.73-5.76,12.91-.77,52.63,7.25,84.12a71,71,0,0,1,1.24,31.88C34.41,396.63,44,433.43,42,439.67c-1.75,5.53.74,7.36-.79,12.22-1.16,3.68-4.46,9-2.58,12.51,1.68,3.16,4,3,7,5.5,2.08,1.7,3.77,1.61,4.69,3,1.36,2.11,4.68,2.06,5.25,1,1,1.94,4.11,1.88,4.86.86,1,1.31,3.71.85,4.11-.29,1.48,1.66,4.57,1.09,5.08-.46,1.88.86,5-.62,5.09-2.2,2.69,2.6,6.59,3.54,8.93,2.37,1.09,1,4.17,1.09,5.13.27.75.76,3.21.48,3.76-.47,1.16.68,4-.07,4.1-2.19,2.59.2,3.75-3.21,2.25-5.2-3.14-3.61-3-5.34-4.3-10.26-1.1-4.17-3.43-9.18-3.47-11.3-.13-5.47-1.66-5.49-1.37-7.45,3.38-22.48,10-50.58,5.64-68.54-1-4,.46-11.77,2.61-20.89,6.45-27.42,11.21-74.24,4.64-87.33,2.06-14-2.4-22.14-4.09-32.71-.79-5-.47-12.52-1.79-20.39l2.42-26.19c-4.58-7.92-7-16.16-13-21.73-4.67-4.33-12.42-6.17-19.35-11.11-2-1.45-1.3-14.16,2.61-17.93"/>
      <path d="M108.88,163.34a64.16,64.16,0,0,1-3.38-10.14c-3.14-5.92-3.86-10.71-3-14.71a5.65,5.65,0,0,0,1.83-4.71,20.91,20.91,0,0,1,3.11-4c2.37,1.2,5.77.32,6.6-2.14,2.46.58,5.07-1.1,4.44-3.34,4.34-.47,2.72-5.9,0-4.75-2,1.3-3,.73-4.69,2.58-1.73-1-3.93.43-5.64,1.11s-3.3,1.27-4.52,3.17c-2.38,2.16-3,4.35-3.79,7-1.38,1.76-2.37,2.8-2.29,9,.11,8.18,3.15,6.67,4.69,13,4.88,23.51-14.15,35.57-5,55.24.83,1.8,7,5.77,10.2,3.07,8.24-6.87,8.59-16.19,7.58-26.73C113.43,184.15,115,179,108.88,163.34Z"/>
    </g>
    <g class="skinOverlapLine">
      <path d="M90.67,276.39a59.15,59.15,0,0,0-12.54,10.22"/>
      <path d="M48.61,277.13c6,1.67,13.32,5.55,17.62,9.77"/>
      <path d="M71.78,291.38A250.92,250.92,0,0,1,71.23,320"/>
    </g>
    <path class="lizPanties" d="M102.83,259.82c.25-.11.59,1.74.25,1.91-3.18,2.07-12.78,4.3-17.71,4.82-1.47,11.92-8.13,24.83-13.59,24.83-5.75,0-7.47-10.59-15.09-23.86-7-.24-20.31-1.78-27.67-4.23-.42-.16,0-1.88.3-1.81C43.12,265.16,81.16,268.72,102.83,259.82Z"/>
    <path class="negligeeMesh" d="M38.36,312.18c4.8-.31,10.17.7,16,.37C64.73,312,66,312.8,79,311c5.8-.81,15.52-.24,20.23-1.39,2.06-.5,6.58-.34,9.93-2.17-2.14-13.23-2.78-32.82-5.13-51.11-2.5-19.38-4.12-33.55-7.23-48.53l-63.16,2.55c-2.51,18.52-7.83,71.17-9.59,100.83A50.14,50.14,0,0,0,38.36,312.18Z"/>
    <path class="negligeeTrim" d="M109.16,307.42c-3.35,1.83-7.87,1.67-9.93,2.17-4.71,1.15-14.43.58-20.23,1.39-13,1.82-14.27,1-24.6,1.57-5.87.33-11.24-.68-16-.37a50.14,50.14,0,0,1-14.31-1c-.16,2.63-.31,5.28-.47,7.94,3.72,1.78,5.84.44,9.39,1.12,4.74.91,6.5-.5,10.07.52,4,1.13,4.57-.61,8.47.2s5.51-.59,9.24-.42c3.92.17,5.72-.84,8.86-.57,5.9.51,8.5-1.32,12.83-.8,5.62.68,6.88-.9,11-.68s5.45-1.13,8.48-1.25c4.31-.17,7-.83,8.81-2.18A73.69,73.69,0,0,1,109.16,307.42Z"/>
    <path class="negligeeTop" d="M24.88,164.5a3,3,0,0,1,2-1.55c10.69-.6,14.3,15.67,19.05,26,2.53-1.08,6.5-.52,8.36,1.74,1.94-1.31,6.3-1.47,8.14.46L78,189c1.27-2.24,4.83-3.11,7.57-2,.67-3,3.92-4.64,7-4.06-4-8.93-6.33-18.09-13.92-27.75.21-.21,1.33.18,2.12,1.06,8.81,9.36,11,22.17,17,27.14,12.67,12.42.23,33-17,26.44-14.24-2.48-13.33,7.57-24.64,5.43C32.75,222.86,27.89,195.42,24.88,164.5Z"/>
    <path class="ribbonDark" d="M65.92,210.24c-1-1.34,3.13-4.16,5.16-3.87l4-.31c1.23.18,5.42-.68,6.34,1.23C81.9,211.7,66.13,211.77,65.92,210.24Z"/>
    <g class="ribbon">
      <path d="M74.38,224.47a33.91,33.91,0,0,0,5.31,2.19,112,112,0,0,1-4.63-15.42C75.41,215.61,74.66,219.65,74.38,224.47Z"/>
      <path d="M65.92,210.24c1.84.72,4.22-1.65,5.16-3.87,0-.56,4-.86,4-.31,1.94,1.67,5.74,2.63,6.34,1.23.58,0,.81,4.23.18,4.83-1,1.27-4.75.71-6.56-.88.44,5.49-.87,10.47-.78,17.14-2.72-2.46-4.79-3.06-5.15-3.82.62-4,2.48-7.65,2.71-13.12-.54,2.13-2.61,3.93-4.42,3.53C66.69,214.77,65.42,210.3,65.92,210.24Z"/>
    </g>
    <g class="skinIndian">
      <path d="M68.35,201.93c-14.22,16.77-16.5,30.32-32.87,33.25C33,235.63,25,237.54,20.84,225c-2.26-6.74-2.26-19.7-3.87-30.89-3-21.05,1.74-23.75,7.91-29.65,8.86-2.55,16.39,13.57,13.3,27.26-.69,4.94-.69,13.39,2.53,16.61,6.58-4.43,13.47-4.86,18.3-15.05-2.13-8.11,1.37-11,2.65-14.79,1.93-5.78,3.38-4.23,5.21-6.87.81-1.87,2.93-.33,3,1.06a3.07,3.07,0,0,1,3.77-.8,4.64,4.64,0,0,1,2.56,3.83,5.57,5.57,0,0,1,3.45,5.47c4,4.76,2.07,10.26-1.17,13.76C73.46,200.4,70.23,200.39,68.35,201.93Z"/>
      <path d="M36.07,129.65c-2.53,5.51-7.9-.29-9-1C13.94,120.1,22.7,105.06,30,113.22c3,3.3,6.49,1.22,5.46-2.39-1.54-4-.66-6.28.61-9.29,4.14-2.14,5.52-3.68,8.67-6.79-3.85,6.72,13.88-.82,11.75-11.75,2.14,10.53,10.44,10.24,7.18,6,3.79,1.43,8.61,2.61,12.81,2.16,2.43,4.19,1.11,4.66,1.63,6.55.86,1.86.45,3-.46,3.59a4.28,4.28,0,0,0-.1-.57c-1-.35-2-1.1-3.28-.87A4.2,4.2,0,0,0,70.88,103c-.38,1.11.5.54.76.62a8.31,8.31,0,0,0,3.77.18c1-.2,2.53-1,2.26-2.13,2,.55,1,2,1.69,3.51,4.67,9.69,6.44,21.72,1,29.56-1.9,2.71-1.54,6.53-6.79,8.11-3.81,1.15-4.78.77-8.73.42C55,142.4,48,141.41,42.67,137.44M61.3,104.57c-1.43-1.07-2.24-1.74-3.76-1.9-1.75-.19-4.75,3.17-7.14,4.36a13.18,13.18,0,0,0,6.57.12c2.74-.89,2.64-1.43,3.51-1.62C60.91,105.44,62.16,105.21,61.3,104.57Z"/>
    </g>
    <path class="braceletLight" d="M52.81,201.34a45.16,45.16,0,0,0,7.28,13.48,2.23,2.23,0,0,1-1.94,1.59,41.88,41.88,0,0,1-7.58-14.08C50.57,201.72,52.31,201,52.81,201.34Z"/>
  </g>
  <g class="clothesDisplayLine">
    <path d="M199.47,464.66c7.77.5,16.94-.08,20.81-3.05"/>
    <path d="M145.36,472.42c6.93,2.21,22.6-.73,25.39-4"/>
    <path d="M164.74,252.29c2,3.14-.64,6.5.78,10,2.19,5.37-.39,5.83.78,9.85,1.06,3.64,0,7,.39,9.2,4-1,7.82-4.45,6.15-10.5-1-3.75,2-3.92-.13-9.06-1.68-4,1.23-6.81-.61-9.93"/>
    <path d="M146.21,249.16c-3.76,3.24-8.93,4.83-13.85,5.35"/>
    <path d="M186.33,246.86a12.77,12.77,0,0,0,8.34,1.82"/>
  </g>
  <g class="clothesOverlapLine">
    <path d="M185.52,442.57a19.11,19.11,0,0,1,7.12-2"/>
    <path d="M186.89,445.08c2.19-1.15,4.86-2.3,7.3-2.3"/>
    <path d="M188.35,447.28c2-1.1,5.49-2.55,7.8-2.2"/>
    <path d="M190.39,449.86a15,15,0,0,1,8-2.62"/>
    <path d="M192.65,452.22c2.35-1.43,5.19-2.89,8.22-2.85"/>
    <path d="M182,433.05c.79,1,1.42,4.83,2.29,6.52"/>
    <path d="M140.58,437.85c1,.72.61,4.08.85,6.75"/>
    <path d="M152.42,446.08a33.1,33.1,0,0,0-10.6,1.05"/>
    <path d="M153.37,448.36a27.78,27.78,0,0,0-10.94,1.19"/>
    <path d="M154.53,450.7a30.09,30.09,0,0,0-11.38,1.06"/>
    <path d="M155.71,452.8c-3.64-.7-8.21,0-11.69,1.19"/>
    <path d="M157.07,455a23.83,23.83,0,0,0-11.88,1.6"/>
    <path d="M151.64,443.61a19.2,19.2,0,0,1-1.24-6.05"/>
    <path d="M166.69,281.33c-2.2,22.41-1.56,42.88-4,56"/>
    <path d="M128.13,140.25c3,2,6.62,1.82,9.21,3.79"/>
    <path d="M113,160.78c2.66,2,6.46,3.56,9.43,4.91"/>
    <path d="M75.1,206.06a18.88,18.88,0,0,1,0,5.18c-.11.47-3.19.68-3.22.2-.06-.84-.79-4.1-.76-5.07"/>
    <path d="M71.08,206.37a12.91,12.91,0,0,0,1.28-4.53,10.22,10.22,0,0,0,2.74,4.22"/>
  </g>
  <g class="clothesFoldLine">
    <path d="M174.33,277.18c3.16-.64,7.59-.4,12.44.13"/>
    <path d="M172.52,283.14c4.44,1.87,8.94,5.27,13.47,9.33"/>
    <path d="M156.2,285.34A94.13,94.13,0,0,0,143.11,290"/>
    <path d="M163.32,279.13c-11.27-7.65-19-5.45-3.37-.13"/>
    <path d="M194.15,338.72c-5.64,8.49-16.45,6.09-22.15-4.28"/>
    <path d="M193.37,345.71c-8.16,2.21-8,2.72.39,6.22"/>
    <path d="M169.59,342.73c3.63,3.11,9.72,3.74,8,6.35-1.55,2.33-8,3.28-10.44-.52"/>
    <path d="M171.54,355.56a19,19,0,0,1,18.07-.91c3.77,1.8-1,3.24-5.7,5.31"/>
    <path d="M154.25,347.92c-5.7,1.81-14.11.64-19.29-5.19"/>
    <path d="M129.83,348.69c7,.78,9.59,5.32.91,2.72"/>
    <path d="M128.15,362.56c4.68-2.8,10.86-2.26,16,.77"/>
    <path d="M129.05,355.56c3.25.39,4.1,1.23,1.43,2.72"/>
    <path d="M149.85,360c.26-.57,1.65-1,3.49-1.29,5.37-1.13-3.51-6.42-11.65-2.2-5.61,2.9,2.72,1.94,6.6,4.92"/>
    <path d="M156.92,350.9c-4.54,1.29-3.24,1.81.64,4.79"/>
    <path d="M152.12,421.24c-1.52,9.93-12.89,9.07-22.73-1.68"/>
    <path d="M131.84,429.4c7.45,2.55,7,5.83-.91,4.93"/>
    <path d="M127.31,436.31c2,2.61,4.84,3,6.95,1.54"/>
    <path d="M164.93,420.07c1.93,2.1,5.43-.17,8.94,1.3,5.55,2.33,11.12,2.73,14.71-.91"/>
    <path d="M181.07,427.59c-5.44-1.43-6.29,4.27-14.58,4.79"/>
    <path d="M162.75,424.59c3.74,1.83,9.76.1,9,2.77-.37,1.28-2.95,1.12-6.8,0"/>
    <path d="M121.5,224.58c4.91.82,10.54,5.61,4.91,4.77"/>
    <path d="M122.07,233.22c2,2.19,8.41.92,13.92,2.36"/>
    <path d="M121.74,238.09c29.58,1.44,36.41,8.26,57.6,7.66"/>
    <path d="M147.49,244.92c8.14,2.63,19.88,3.55,26,.87"/>
    <path d="M197.89,235.06c-9.95,4.59-19.76,7.24-29.32,6.5"/>
    <path d="M197.31,227.57c-7.79,6.33-44.91,6.45-51,5.25-10.93-2.14,6.23,6.23,18.56,5.87"/>
    <path d="M195.27,231.86c-6.11,3.12-15.81,5.39-21.08,4.43"/>
    <path d="M196.23,222.76a23.09,23.09,0,0,1-9.94,4.31"/>
    <path d="M196.74,215.36c-5.9,6-18.71,10.87-28.41,11.47"/>
    <path d="M193.83,212.1a40,40,0,0,1-9.1,6.35"/>
    <path d="M178.74,213.66a87.09,87.09,0,0,1-19.63,11.14"/>
    <path d="M168.81,216.3a95.53,95.53,0,0,0,13.89-12.93"/>
    <path d="M170.48,180.73c-7,29.21-21.79,40.48-28.62,43.83-2.65,1.3-4,5.75,8.5,4.07"/>
    <path d="M163.06,191.39c-9.22,16.4-23.25,30.74-38,29.46"/>
    <path d="M122.94,210.79c9.18-7,16-16.64,19.4-29.94"/>
    <path d="M137.31,184.8c-3.35,8.13-8.29,14.53-15,19"/>
    <path d="M122.1,194.26c-1.08,1.56-2.39,3-3.71,3.35"/>
    <path d="M118.5,201.3c1.19.28,2.57-.58,4.08-2.25"/>
    <path d="M117,189c3.21-.21,6.84-2.39,11.21-8.12"/>
    <path d="M128,175c-2.65,4.12-5.51,7.55-9,9"/>
    <path d="M190.94,188.87c4-.3,5.65,5.27,7.8,9.34"/>
    <path d="M202.22,163.36c-4.07,14.49-9.82,15.09,2,23.24"/>
    <path d="M201.9,48.38c3.91-2,8.68-.17,11.09.74,2.88,1.08.12-3.12-6.22-4.79"/>
    <path d="M210.36,59.18c1.32,2.73,3.19,3.75,5.39,3.71"/>
    <path d="M199,66.84c2.52-1.91,7.79-1.2,9-2.39.92-.92.59-3.84-6.95-9.7"/>
    <path d="M207.13,71.75c-7.67,2.28-4.43,4.79-1,12.58"/>
    <path d="M189.32,76.69c4.63.33,7,.77,4.51-2.9"/>
    <path d="M202.58,94.63c-4.91-2.88-4.61,4.23-7.12,11.66"/>
    <path d="M192.76,101c-.6-6.11-3.11-1.28-2.75,4.11"/>
    <path d="M187.49,88.88a81.42,81.42,0,0,0,.56,18.75"/>
    <path d="M183,87.53c-.15,5.56,2.77,11.54,2.77,24.83"/>
    <path d="M181.5,90.67a12.19,12.19,0,0,0,.72,4.43"/>
    <path d="M178.58,93.61c-.08,4,3.4,11.07,4.84,16.7"/>
    <path d="M173.16,98.17c3.31-.07,4.87,5.32,8.34,10.35"/>
    <path d="M168.83,99.19A8.74,8.74,0,0,1,173,100"/>
    <path d="M170,106.6a34.56,34.56,0,0,1,7.6,11.58"/>
    <path d="M167.08,108a39.65,39.65,0,0,1,8.43,11"/>
    <path d="M176.33,121.93c-1.43-.62.35,7.25-.12,12.28"/>
    <path d="M168.84,114.44c4.39,8.47,3.51,21.88-1.76,32.7"/>
    <path d="M165,112.33c4.07,5.62,4.51,16.71-1.07,36.87"/>
    <path d="M163.91,116.78c-1.51,6.9-.69,16.85-4.55,16.85s2.22-8.31,1.52-20.22"/>
    <path d="M140.1,139a10.3,10.3,0,0,1,.67,6.49"/>
    <path d="M130.93,134.33a26.72,26.72,0,0,1,3.65,2.74"/>
    <path d="M160.58,153.05c3,2.3,5.09,5.82,6.62,10.06"/>
    <path d="M153,151.74c-2.86,3.76-3.6,8.68-3,14.3"/>
    <path d="M157.82,154.06c-.25,1.5.68,3.48,2.36,5.78"/>
    <path d="M155.5,154.69c-1,1.68-.85,4.8-.12,8.66"/>
    <path d="M162.87,151.18c2.23.5,4,2.38,5.73,4.56"/>
    <path d="M145.09,150.48c-8.17,1.37-16.5,2.62-17,10.53"/>
    <path d="M114.55,154c4.09.7,7.84,2.44,9.36,6.31"/>
    <path d="M130.46,136.9a10.7,10.7,0,0,1,4.8,5"/>
    <path d="M144.46,147.38c-11,1.46-21.74,4.12-29.21,2.86"/>
    <path d="M109,145.54c4.18-4.83,12.73-7.41,19.14-5.29-2.12-4.87-5.42-7.75-10-8.55"/>
    <path d="M112.44,138.51c4.39-3,10-2,13.84.59"/>
    <path d="M40.41,233.84c-1.55,9.6-4.33,34.13-5.69,57.08"/>
    <path d="M59.2,320.54c-.32-6.46-.46-12.41-.29-17.49"/>
    <path d="M91.34,318.52c.23-12.13.4-23.22-.28-32.83"/>
    <path d="M62.17,223.13c.22,10-.75,22-.92,35"/>
    <path d="M89.05,211.14c1.08,11.22,1.16,23.42,1.36,36.26"/>
  </g>
  <g class="skinDisplayLine">
    <path d="M95.76,470.8a3.58,3.58,0,0,1-1.79.41"/>
    <path d="M92.26,471.39a1.88,1.88,0,0,1-1.88.31"/>
    <path d="M88.41,471.88a3.31,3.31,0,0,1-2.33.18"/>
    <path d="M83.53,470.18a13.38,13.38,0,0,1-4-.14"/>
    <path d="M73.05,469.15a8.94,8.94,0,0,1-3.86.94"/>
    <path d="M68.07,472.28a3.89,3.89,0,0,1-2.42.54"/>
    <path d="M63.64,472.51a6,6,0,0,1-2.29.31"/>
    <path d="M59.34,473a7.61,7.61,0,0,1-2,.18"/>
    <path d="M73.72,240.55c3.75,2.7-5.08,2.86-2.67.62"/>
  </g>
  <g class="skinOverlapLine">
    <path d="M71.23,320c-.76,12.3-1.94,25.6-2.69,38.72"/>
    <path d="M54,468.81c.71,2.1,3,3.05,1.64,5.15"/>
    <path d="M58,468.71c1.2,2,3.26,3.75,2.44,6.11"/>
    <path d="M61.5,468c1.4,2.45,4,3.65,3.09,6.52"/>
    <path d="M65.3,467.35A7,7,0,0,1,68.36,471c.45,1,1.6,1.3,1.31,3.11"/>
    <path d="M82.08,466.55a6.89,6.89,0,0,0,2,3.26,2.72,2.72,0,0,1-.44,4.43"/>
    <path d="M87.38,466.7c.81,2.86,3.11,4.61,1.44,7.81"/>
    <path d="M91.94,467c.8,2.61,2.13,4.57.64,7.09"/>
    <path d="M95.05,466c.75,1.51,2.12,3.06,1.63,5.9"/>
    <path d="M71.81,467.11c1.6,1,3.46,1.75,3,4.76"/>
    <path d="M40.71,208.37c-3.43,2-7,5.51-10.14,9.32"/>
    <path d="M36.89,185.2c.81,2.24.72,4.19,1.29,6.56"/>
    <path d="M63.63,180.83c3.39-4.78,6.12-4.23,6.23-8.11"/>
    <path d="M76.19,175.75a7.7,7.7,0,0,1-.32,3.78"/>
    <path d="M79.64,181.22a6.53,6.53,0,0,1-.18,1.8"/>
    <path d="M114,127.62c.26-.68-.21-1.83-2.77-2.09-1.49-.15-4.44-2-7.64.86"/>
    <path d="M113.76,122.11c2.7,1.61,4.38.43,4.69,2.17"/>
    <path d="M104.3,133.78c-.48-2.8-2.39-3.13-3.13-2.26-.46.53-.64,1.42-1.36,1.92"/>
    <path d="M102.47,138.49a3.8,3.8,0,0,1-1.72,1.06"/>
    <path d="M107.41,129.76a2.74,2.74,0,0,1-1.23-.77"/>
    <path d="M195.41,111.24a9.12,9.12,0,0,1-.63,1.79"/>
    <path d="M215.82,15.89A7.61,7.61,0,0,1,214.09,23c-.4,2-.12,3.5-.47,4.62"/>
    <path d="M224.06,13.48c-1.95,2.2-1.15,3.67-3.23,7.74"/>
    <path d="M229.8,16.63a12.62,12.62,0,0,1-3.12,1.59c.14.94-1,3.3-2.72,5.05"/>
    <path d="M234.5,24.4a4.16,4.16,0,0,1-2-2.14,3.08,3.08,0,0,1-2.76-.52S228.51,25,226.56,26"/>
  </g>
  <g class="skinFoldLine">
    <path d="M183.09,115.87a6.09,6.09,0,0,0-1.85,1.8"/>
    <path d="M230.31,26.09a3.49,3.49,0,0,0,.13,2.31"/>
    <path d="M232.31,20.31a4.66,4.66,0,0,0,.19,2"/>
    <path d="M231.92,15a2.61,2.61,0,0,1-1-1"/>
    <path d="M218.46,20.06c2.4.66,2.24,1.41,4,2.28,2.77,1.42,2.66,2.76,3.91,3.58a6.17,6.17,0,0,1,2.09,3.88"/>
    <path d="M228.52,19.75a3.07,3.07,0,0,0,1.22,2"/>
    <path d="M107,94.9c-5.16-6-11.89,1.39-3.61,7.18"/>
    <path d="M107.35,96.53c-1.65,2.6,4.67,3.87,3.23,5.41-1,1-2-1.7-4.39-1.44-3.21.34-5-4.92-1.19-4.65"/>
    <path d="M29.34,116c-5.5-6.65-10.42,3.65-2.22,10.07"/>
    <path d="M30.07,119.9c-1.05,2,3.52,3.85,1.72,5.31-.78.63-1.34-2.11-3.71-2.54-3.84-.69-2.62-6.36-.06-4.52"/>
  </g>
  <g class="skinCreaseLine">
    <path d="M217.21,25.92a16.36,16.36,0,0,1,2,6.9"/>
    <path d="M221.34,25.58c-.62,3.73.11,6.05,3.39,8.26"/>
    <path d="M89.49,366.11c-3.33,1.71-8.36,1.88-11.61.08"/>
    <path d="M60,367.47c-3.24,1.71-8.53,2-11.09.77"/>
  </g>
  <path class="skinEdgeLine" d="M70.67,177.64c3.24.47,2.41,2.4,4.45,3.24,3.77,1.55,2.46,2.82,3.57,3.45,2,1.15,1.41,1.84,2,3.35"/>
  <path class="lipMaleMedium__noStroke" d="M156.63,92.4c-.75,1.61-2,1.88-4.11,2.28-1.46,2-5.49,2-7.63,3.79,4.27-.34,6.56,3.32,12.21.54,4-2.38,1.51-6.36,3.23-9.1C159.15,90.58,157.93,92.57,156.63,92.4Z"/>
  <path class="lipBorderLine" d="M144.52,98.69c2.09-1.34,8-1.34,11.19-3.3,2.35-1.45,3.84-5.63,5.24-5.7"/>
  <path class="hairBlack" d="M124.4,59.79c11.07,13,20.51,4.24,22.71,3.59-1.24-.8-2.76-.22-4.24-.82,4.89-1.34,8.42-9.1,14.25-6.14-1.4-5.79-6.47-11.67-12-13.72,1.25.33,5.59.69,8-.3-10.34-3.15-16.81-22-48.76-9.25C95.24,36.77,86.72,45.61,84.17,52c-3-1.33-4.16-5.71-4.9-8.42-1.46,4.51,1.27,9.72,2.88,11.7-3.58.44-7.78,3-7.16,7.31.72-3,5.11-5,6.85-3.78-6.32,19.93,12.52,41.46,17.67,42.56-7.4-8.4,1.61-14.93,7.51-9a30.61,30.61,0,0,0,7.58-2.13c-1.07-1.84-1.3-1.81-.83-4.47,3.47-2.87,10.12-5.34,10.93-11.68,1.2,2-.33,3.46.23,5.59C125.15,77.64,132.34,76,124.4,59.79Z"/>
  <path class="lipFemaleBrown__noStroke" d="M76.23,127.07c-.63,1.16.63,4.77-4.09,5.91-5.24,1.28-6.06-2.37-7.64-3.24C67.43,127.42,71.16,125.27,76.23,127.07Z"/>
  <path class="lipFemaleBrown" d="M77.65,127.27a4.46,4.46,0,0,1-2.47-.67l-9.9,2.7a6.34,6.34,0,0,1-2,.85c3-1.2,3.23-5.51,5.67-6.25.84-.26,1.55.09,3.56-.41,1-.26,1.28-.71,2.12-.44C76.09,123.5,73.24,125.33,77.65,127.27Z"/>
  <path class="mouthInner" d="M66.57,128.08,74.25,126a8.56,8.56,0,0,0,.93.58c-1.16,1.17-1.45,1.77-3,2.3-2.28.78-3.72-.14-6.91.4A7,7,0,0,0,66.57,128.08Z"/>
  <path class="teeth" d="M66.57,128.08c1.06-1.16,1.4-2.31,2.9-2.76.74-.22,2.63-.24,3.39-.45A17.33,17.33,0,0,0,74.25,126C73.32,127.33,70.44,129,66.57,128.08Z"/>
  <g class="lipEdgeLine">
    <path d="M152.52,94.68c2.13-.4,3.36-.67,4.11-2.28"/>
    <path d="M150.29,99.81c8.41,1.5,9.5-4,9.4-6.21"/>
    <path d="M75.74,129.92c-.26,2.06-4.82,4.72-8.87,2.56"/>
    <path d="M72.86,124.87a3.44,3.44,0,0,0,1.38-.63"/>
  </g>
  <g class="cheekLine">
    <path d="M158.65,85.22c1,.3,2.75,1.52,3,3"/>
    <path d="M146.31,88.36c-.68.35-1.15,2.46-2.37,4.1a9.56,9.56,0,0,0-1.69,8.24"/>
    <path d="M75.36,119.15c.64,1,1.61,1.55,2.28,2.88"/>
    <path d="M64.17,117c-1.4,1.57-.62,2.37-2.1,5.13-1.34,2.49-1.16,2.76-1.23,4.93"/>
  </g>
  <g class="noseLine">
    <path d="M154.82,80.05c2,2.61,4.37,2.35,3.83,5.17a4.26,4.26,0,0,1-1.2,3.11c-2,2-4.69.94-7.41,2.6-3,1.89-4.69-1.06-3.73-2.57"/>
    <path d="M65.61,121.13c-2.45-.18-2.56-2.92-1.44-4.16"/>
    <path d="M71,118.86c-.33-.71-2.33-.34-3.9,1.63"/>
    <path d="M68.68,105.55c3.46,6.14,9.65,10.81,6.68,13.6a5,5,0,0,1-5.28.54"/>
  </g>
  <g class="eyeFoldLine">
    <path d="M157.14,70.14a5.88,5.88,0,0,1-4.61,3.16"/>
    <path d="M140.89,81.59c-.26,1-2.86,3.34-5,3.43"/>
    <path d="M78,104.61c-1,.84-4.18,1.32-6.2.78"/>
    <path d="M59.59,107.85a7.46,7.46,0,0,1-7.22,1.28"/>
  </g>
  <g class="eyeCornerLine">
    <path d="M156.71,66.86a1.37,1.37,0,0,0,.91-1.14"/>
    <path d="M127.59,85.39a4.42,4.42,0,0,0,2.6-1.62"/>
    <path d="M48.27,108.18A5.12,5.12,0,0,0,50.4,107"/>
  </g>
  <g class="eyeCreaseLine">
    <path d="M135.44,78.58c2-1.32,3.17-2.57,5.43-1.51"/>
    <path d="M69.93,101.91c1.89-4.27,6.65-4.58,8.1-2.62"/>
    <path d="M50.05,105.17c2.38-2.93,7-6.25,10.71-2.61"/>
  </g>
  <g class="eyebrowBlack">
    <path d="M138.73,71.46C136,76.46,130.31,74,125.4,80,128.1,73,132,74.61,138.73,71.46Z"/>
    <path d="M156.08,60.11a11.77,11.77,0,0,1,.6,1.06c-5.94.69-6,7.66-10.25,6.3C150.4,65.73,150.61,59.75,156.08,60.11Z"/>
    <path d="M69.53,93.5c2.31.59,5.33.29,8.42,1.45a4.55,4.55,0,0,1,0,.81,11.79,11.79,0,0,0-6.4-.05C69.51,96.29,67.94,93.1,69.53,93.5Z"/>
    <path d="M45.38,103.74c5.14-6.51,11.85-6.85,15.22-8.88.75-.46.39,2.66-2,2.9C53,98.33,50.71,99.22,45.38,103.74Z"/>
  </g>
  <g class="hairOverlapLine">
    <path d="M113.77,85.72a50,50,0,0,0-3.7,3.49c.06-1.84.83-4.35,2.15-5.43"/>
    <path d="M36,101.54c-5.1,2.54-5,.16-2.61-1.5"/>
    <path d="M76.45,91.17c2.61-.35,1.5-2.22-1-2.81"/>
  </g>
</svg>
