<svg viewBox="0 0 3108.33 2362.18">
  <g class="eye">
    <g class="sclera">
      <circle cx="1482.31" cy="436.85" r="45.22"/>
      <circle cx="680.51" cy="288.08" r="119.23"/>
    </g>
    <g class="irisDarkBrown">
      <path d="M1464,457.18c-2.45-.08-8-10.13-7.65-22.3s6.57-21.85,9-21.78A125.11,125.11,0,0,1,1464,457.18Z"/>
      <ellipse cx="637.51" cy="300.51" rx="21.42" ry="22.5" transform="translate(-52.32 156.07) rotate(-13.41)"/>
      <ellipse cx="773.69" cy="268.03" rx="21.42" ry="22.5" transform="translate(-41.07 186.77) rotate(-13.41)"/>
    </g>
    <g class="pupil">
      <path d="M1459.05,443.54c-2-.06-2.82-3.92-2.68-8.66s1.25-8.54,3.21-8.48A66.92,66.92,0,0,1,1459.05,443.54Z"/>
      <ellipse cx="638.97" cy="300.16" rx="8.33" ry="8.75" transform="translate(-52.2 156.4) rotate(-13.41)"/>
      <ellipse cx="775.15" cy="267.68" rx="8.33" ry="8.75" transform="translate(-40.95 187.1) rotate(-13.41)"/>
    </g>
  </g>
  <g class="bennett">
    <g class="soleWhite">
      <path d="M184.61,2251.11c-37.24,13.12-56.32,36.81-49.4,75,22,29.16,129.59,53.41,203.46,15.91,42-21.32,106.55-22.48,129.68-52.28,3.29-5.31,1.69-26.52,0-37.6C353.58,2245.57,232.05,2238,184.61,2251.11Z"/>
      <path d="M974.05,2256.47a168.27,168.27,0,0,1-2.64,56c-33.81,56.43-192.24,21.27-212-14.95-.77-16.71,1.59-31.87,8.71-47.54C822.32,2192.21,893.8,2206.19,974.05,2256.47Z"/>
    </g>
    <g class="bennettShoe">
      <path d="M441.06,2099.75c7.93,59.38,32.49,122.57,27.29,152.4-47.65,45.45-110.06,40.8-169.79,66.22-5.45-47.33-54.24-73.73-113.95-67.26,30.46-8.56,55-48,93-89.85,28.9-31.85,39.21-73.13,49.79-136.12C378.51,2000.06,417.55,2041.56,441.06,2099.75Z"/>
      <path d="M962.93,2046.08c-10.94,108.64,12.33,140,11.12,210.39-3.82,11.41-7.62,21.87-13.56,26.87-19.77-58.53-151.13-84.52-192.33-33.37,14-65.52,61.28-91.61,88.58-224.83Z"/>
    </g>
    <g class="shoelace">
      <path d="M363.57,2143.65c-18.41-12.26-40.78-18.1-59.58-18.47a209.81,209.81,0,0,1-26.36,36.08c-19.32,21.29-35.16,42.44-50.06,59.23,26,1.47,58.47,12,84.76,24.05C335.22,2210.15,353.66,2176.34,363.57,2143.65Z"/>
      <path d="M944,2131c-31-11.35-61.82-17.47-92.48-17.26-4.57,23.22-14.23,50.64-16,83.84a226.43,226.43,0,0,1,90.43,16.86C935.94,2185.18,938.92,2156,944,2131Z"/>
    </g>
    <g class="converseLogo">
      <path d="M409.59,2246.24c-32.64,9.13-39.33-65.13-3.36-74.67C438.41,2163,443.56,2236.73,409.59,2246.24Z"/>
    </g>
    <path class="bennettJeans" d="M1001.71,1293.76c12.55,26.22,41.36,40.52,34.45,66,21.56,43.35,27.18,97.74,20.09,156.45-6,49.67,22.06,72.91-15.79,137.79,0,69-21.64,184.75-27.27,271.29C1010,1974.51,1037,2037.5,977.31,2033c28.64,36.75,6.14,60.47-16.82,83.56-1.91-6.87-5.42-11.54-10.15-14.52,8.79-38.57-74.72-60.46-92.26-19a46.35,46.35,0,0,0-17.44,3.64c.34-27.82-28.56-39.53-29.79-53.7-2-22.63,20.61-20.76,15.79-53.11-22.12-22.76,5.52-52.79,4.31-96.17-3-106.51,10.67-169.14-1.44-229.66-28.88,10.42-58.68-20.74-79-12.91-60.59,23.33-111.07,39.41-159.33,38.75,1.19,12.61-4.05,22.15-21.53,25.84-16.37,43.58-28,78.54-32.32,106.77-6.49,42.35-9.58,85.84-30.83,104.22,7.86,26.51-8.59,58.55-5.74,80.38,4.12,31.6-6.46,50.37-35.89,50.24,39.44,32.75-6.1,55.52-18.38,83.72-23-5.42-45.8-29.33-66.26-18.14,13.79-29.87-47.74-50.27-60.88-19.84,1.63-25.52-34.56-44.87-9.45-64.4-22.12-25.22,7.2-41.89,12.92-76.07,16.74-100.06,20.73-229.35,41.63-334.44-13.61-41.38,2.33-51.63,15.78-68.9,23.45-90.36,80.67-169.4,149.23-238.27Z"/>
    <path class="bennettJacket" d="M801.73,558.14c104.42-16.53,172.93-68.1,237.78,64.16,43.45,36.89,87.72,157.35,128.33,252.88,5.73,13.49,18,16.07,7.55,34,19.29,9.46,24.43,23.37,20.13,40.26,23.89,129.7,41.94,252.17,27.68,334.66-1.45,51.6-136.07,47.83-134.62-3.78-12.91-90.26-31.28-187-45.29-266.72-1.77-10.06-21.2-28.48-13.58-47.8-25.68-27.2,13.17-16.37-39-76.3,8.39,72.64,19.28,135.28,19.28,191.08,0,14.38,16.25,11.3.26,37.66,4,36.5-1.44,42.52.45,61.93,1.95,20.16,20.61,36.71,4.91,56.76,7.43,23.54,10.63,58.38,8.46,63.33-19,26.13-492.28,55.09-509.93,14.87,4.94-33.24-8.81-63.18-4.57-88-25.1-32.79-7.44-53.27-8-80-20.07-14.54-.84-24.81-1.3-58.8-20.74-11.56-19.85-27.27-8.52-45-26.14-11.51-8.68-51-21.88-90-21.52-13.45-5.87-42.24-14-82.06-8.85,135.88-104.2,280.68-160,286.33-41.76,4.23-103.28-52.77-141.27-96.06-29.09-33.15-63.57-74.88-72.76-101-32.49-72.05,83.25-109.21,109.49-88.29,23.93,19.08,37.89,67.74,74.87,83.35,1.42-11.46,8.4-20.51,18.36-28.26,14-16.88,18.42-73.79,30.26-97.47,13.24-26.5,10.74-82.55,28-109.54-2.46-30.2,10.67-43.37,29.66-50.15,10.92-42.22,34.19-4.69,100.31-41Z"/>
    <g class="bennettJacketInner">
      <path d="M76.55,929.45c3.12,32.83,21.1,50.07,28.49,49.37,64-6.06,110.84-78.85,86.29-106.64C169.17,854.51,83.22,878.26,76.55,929.45Z"/>
      <path d="M1154.15,1234.47c-36,0-64.36,11-65.57,45.82-1.45,51.61,133.17,55.38,134.62,3.78C1230.34,1243.61,1187.37,1234.47,1154.15,1234.47Z"/>
    </g>
    <g class="bennettHoodie">
      <path d="M676.9,698.9c42.31-24.8,75-24.2,116-61.28,67.84-61.28,16.78-86.08,5.1-97-20.54-19.26-32.83-23.34-56.17-10.21L537.56,561c-64.2,4.38-52.69,35.63-67.57,51.9-21.82,23.87,4.17,47,47,60.32C582.79,693.8,634.59,690.88,676.9,698.9Z"/>
      <path d="M196.3,903.81C181,885.23,180.42,868.09,174,859.7c-18.14-23.85-103.7,16.16-95,44.83,4.11,13.52,23.81,36,27.75,57.63a77.3,77.3,0,0,0-.67,16.54C151.6,973.84,188.23,935.38,196.3,903.81Z"/>
      <path d="M1154.15,1234.47c-21.53,0-40.33,4-52.23,14.59.32,8.85-1.18,16.56-1.71,22.76-3.49,40.76,101.64,50.7,106.11,4.37.65-6.75.57-17.63,2.57-29C1194.69,1237.37,1172.87,1234.47,1154.15,1234.47Z"/>
    </g>
    <path class="bennettHoodieInner" d="M676.9,698.9c11.18-24.24,34.25-32.48,67.81-61.35,32.55-28,50.29-69,18.23-95.68-11.72-9.77-19.53-20.83-52.73-19.12L555.29,538.61c-27.34,9.12-26.19,30.19-34.5,42.31-24.08,35.15-2.58,58.72,47.59,81.21C598,675.38,654.88,674.66,676.9,698.9Z"/>
    <g class="hoodieLace">
      <path d="M624.47,877.05l5.07,38.42c.32,2.09,9,.76,8.72-1.33l-5.1-38.59Z"/>
      <path d="M618.8,697.81c-2.25,74.27-9,103.68,3.37,178,.68,4.21,12.85,1.67,12.64-2.16-11.89-66.83-5-111.66-3.08-176.93Z"/>
      <circle cx="625.21" cy="691.72" r="11.28"/>
      <path d="M739.52,858.28l6.17,38.26c.38,2.08,9.06.5,8.68-1.58l-6.2-38.43Z"/>
      <path d="M713.79,682.59c19.62,68.29,11.72,99.62,23.72,174.47,1.13,4.11,12.14,2.33,11.51-1.46-11.6-65.52-5.26-110.44-22.5-175.52Z"/>
      <circle cx="719.5" cy="675.84" r="11.28"/>
    </g>
    <path class="zipperDisplayLine" d="M676.9,698.9c3.92,86.94,17.2,143.58,25.66,204.47,5.88,42.31,5,71.06,11.17,99.45,14.8,68.37,5.87,185.54,28.93,330.75"/>
  </g>
  <g class="purse">
    <path class="purseMedium" d="M1216.3,1665.49c31.23-15.5,213.88-154.88,232.46-185.3,5.17-8.47,3.15-18-1.61-27.68-14.57-29.62-58.51-86-81.62-111.93l-251,185.51Z"/>
    <path class="purseLight" d="M1037.91,1428.5c67.76-51,182.23-130.76,242.39-165,10.07-5.74,16.66-6.36,23.19-.43,24.1,21.9,50.61,46,71.55,80.06,11.54,18.78,1.9,32.52-10.74,42.25-44,33.91-132.72,101.62-181.88,135.25-19.24,13.16-34.87,14.07-53.18-2.91C1103.76,1494.06,1037.91,1428.5,1037.91,1428.5Z"/>
    <path class="purseDark" d="M1027.26,1452.54c27.71,56.3,97.2,160.58,147.24,221.11,12.16,14.72,60-8.27,44.44-32.21-39.65-60.92-101.59-142.88-163.06-209.55C1043.5,1418.46,1018.72,1435.18,1027.26,1452.54Z"/>
    <path class="clothingBrass" d="M1289.25,1425.34l-39,28.08c-15.71,11.31-34.3-14.3-18.55-25.57l39.07-27.93C1286.31,1388.83,1304.71,1414.19,1289.25,1425.34Z"/>
    <path class="purseStrap" d="M1131.45,1617.59c-23.67,2.07-42.55,5.44-56.93,9.85a111.21,111.21,0,0,1-17.28-40.46c-13.5-62.22,2.24-111.6-20.68-158a21.12,21.12,0,0,0-7.67,6.38c20.3,40.5,2.78,96.56,19.37,164.75,2.82,11.55,6.62,22.06,12.62,31.66-32.23,15-27.17,35.74-4,44.62,29.85,11.44,75.63,17.55,126.11,18.76,37.81,2.38,82.42,2.11,130.16-9.41,104.49-5.13,102.68-57.68,49-78.65-13.28-5.19-25.47-11.89-34.71-21l-10.05,7.76a73.24,73.24,0,0,0,29.44,20c51.87,18.5,46.68,47.79-5.54,54,10.42-17.33-12.19-36.09-61.37-45.8l-14.15,10.35c64.61,9.83,81.07,32.63,37.43,41.24h0c-39,3.4-85.21,7.38-124.45,7.54-42.41-4.88-73.67-17.44-96.14-43.36,14.56-3.68,34.34-6.7,57.46-8.52ZM1074.08,1667c-25.65-7.26-24.57-16.45-5.35-24.15a128.93,128.93,0,0,0,38.2,31.58A331.75,331.75,0,0,1,1074.08,1667Z"/>
    <g class="purseOverlapLine">
      <path d="M1341.26,1667.88c-6,8.61-12.6,13.68-28.11,17.88"/>
      <path d="M1074.52,1627.44c2.34,4,4.64,6.61,8.06,10.41"/>
      <path d="M1060.88,1631.79q3.49,5.48,7.85,11"/>
      <path d="M1106.93,1674.41c17.49,9.36,44,15.65,76.06,20.76"/>
      <path d="M1303.17,1673.67c-27.46,7.88-91.34,13.85-124.45,7.54"/>
    </g>
  </g>
  <g class="liz">
    <g class="lizSock">
      <path d="M2562.14,1411.1c26.75-12.23,50.24-2.69,66.75,26.11,55.84,97.43,131.05,100.85,164.3,155.82,15.71,26,11.76,60.69-12.74,70.38-22.14,8.75-48.17-26.38-78.61-36.61-26-8.72-87.76-19.23-135.05-38Z"/>
      <path d="M2954.25,1991.26c41.64,51.63,124,56.19,150.66,111.9,17.19,36-62,79.08-79.94,129.34-22,61.8-49.24,105.3-104.15,108-23.93,1.19-51.79.46-49.89-25.19,2.9-39.24,30.52-25.19,39.24-36.82,16.95-41.17,11.62-88.49,14-146.29.63-15-23.18-42.26-40.2-54.84-6.61-4.89,7-14.38,31-45.11C2942.88,1996.51,2947.06,1982.35,2954.25,1991.26Z"/>
    </g>
    <g class="gown">
      <path d="M1703.74,827.32c-18.29,26.74-40.09,48.91-40.75,71-48,28.77-22.36,25.76-41.32,65.14-8.57,17.8,44.74,31.9,85.66,57.23C1696.63,965.72,1710.18,900.67,1703.74,827.32Z"/>
      <path d="M2168.73,902.88c24.55,18.42,89.46,27.19,139.46,53.5,24,12.61,42.1-10.53,51.14,17.66,124.28,40.23,210.24,124.43,207.09,301.21-2.4,134.67,20.69,253.89,36.55,333.78-109.71,29.75-257.94,29.62-389.81,4.82-88.59-16.66-180.39-16.3-251.86-65.22.36-55.07,47.79-103.7,83.8-190.67,7-11.26-4.43-44.59,42.17-64.54-1.91-13-24.55-5.7-31.95-32.59-63.12,5.7-128.89-30.14-157-55.69-17.18-15.61-45-10.27-61.6-58.49C1646,1077,1722,959.53,1701.69,808.83c27-20.46,55.86-77.16,84.5-114.16,23.74-30.66,42.79-47.22,52.55-67.34,129.68,33.4,239.6,165.46,295.08,239.52C2144,888.7,2162.45,871.73,2168.73,902.88Z"/>
    </g>
    <path class="gownStrapDark" d="M2249.15,935.3c1.87,14.38,9.2,67.76,19.9,68.35C2276.67,972.15,2262.79,952.34,2249.15,935.3Z"/>
    <g class="gownStrap">
      <path d="M2257.46,933.34a12.08,12.08,0,0,1-8.31,2c13.64,17,27.52,36.85,19.9,68.35,3.86.87,11.79.56,15-3.53C2291.23,968.05,2264.83,938.36,2257.46,933.34Z"/>
      <path d="M2249.71,936.48a20.72,20.72,0,0,1-10-3.15c6.65,16.32,6.5,59.65-3.65,99.9-1.38,4.44,16.61,10.06,18,5.62C2256.39,1013.2,2261.17,963.65,2249.71,936.48Z"/>
      <path d="M2253.79,912.19c-5.42,4.25-7.89,15.41-4.64,23.11C2263.23,936.73,2267.52,918.28,2253.79,912.19Z"/>
      <path d="M2239.68,933.33c-9.32-15.3,5.63-26.38,16-22.27-7,3-10.44,16.93-5.95,25.42A20.72,20.72,0,0,1,2239.68,933.33Z"/>
    </g>
    <g class="skinIndian">
      <path d="M2213.16,1613.85c-87.41-16.44-177.95-16.31-249-63.31-8.15,55,12.26,116.63,53.88,124,80.1,14.17,180.82-10.87,287.28-47.64C2274.18,1623.87,2243.24,1619.51,2213.16,1613.85Z"/>
      <path d="M1873.18,1342.63c117.85-62.81,228.52-163.16,275.21-250.54,22.39-41.92,15.54-62.82-6.48-101-44,36.91-98.42,59.57-153.47,90.66-42.76,76.84-94.8,185.33-163,205.85-21.26,6.6-45.45-11-98.23-9.33-33.71,1.07-42.52-16.32-76.25,5.67-44,29.32-22.3,33.89-38.43,54.41-1.26,19,33.7,14.74,37.49-17.27l14.32-9.68c-11.37,18.53-28.22,48-15.16,62.75-3.66,11.68.42,22.33-5.48,35.38-.84,17.69,29.49,12.64,29.91-8,10.53,0,19.37-5.9,26.74-14.85,4.43-2.84,38.54-13.79,55.39-10C1845.05,1396.88,1849.69,1359.39,1873.18,1342.63Z"/>
      <path d="M1569.06,654.93c76.27,30,123.66,109,133.9,152.88,26.59-21.24,55-76.72,83.23-113.14,22.87-29.54,41.39-46,51.44-65.14-16.09-5-34.42-23.16-56.49-82.61"/>
      <path d="M1207.77,1308.83c27.61-18.23,53-34.2,72.53-45.35,10.07-5.74,16.66-6.36,23.19-.43,5.47,5,11.06,10.06,16.69,15.35-4.15,11.56-18.58,19.83-26.61,29.89-18.24,13.26-28.18,42.13-14.37,45.45,21.55,4.42,43.1-26,67.07-38.47,57.14-29.8,37.37-50,60-68.43,98.26-52.55,210.27-87.59,258.26-143.2,10.92-12.65,33-28.67,54.1-47.79a149.24,149.24,0,0,1-11.25-35.19c-31.64-19.59-70.69-32.46-82.8-45.52-84.36,35.82-156.3,172.29-253.35,212.29-54.18,21.31-101.63.84-119.49,34.69C1225.89,1271,1204,1267.86,1207.77,1308.83Z"/>
      <path d="M2915,2032.28c17.56-22.5,25.72-36.45,31.15-41.48-114.65-80.85-185-252.89-318.13-292.53-24.29-7.24-23.8-50.26-28.77-88.26-70.85,18.62-157.24,25-244.78,20.54,38.77,75.12,78.24,141,115.3,181.36C2507.49,1853,2826.47,2023.86,2884,2070,2888,2063.44,2899.25,2052.43,2915,2032.28Z"/>
      <path d="M1606,661.87a349.18,349.18,0,0,1-44.43,21.83c-18.33,7.51-48.77,32-72,9.35-19.15-18.67.63-42.7-23.88-51.3-15.53-20.62,10.2-31.67,26.56-40.49-2.18-5.19-4.65-10.38-7.36-15.57-10.31-.2-25.82,16.51-36.44-.09-1.7-2.66,3.08-4.15,3.53-28.7-10.53,1-19.52,10-29.94,9.94-35.81-4.32-.41-64.9,12.53-101.68,7.74-22,2.29-30.19-6.09-63.31-6.7-26.53-.79-59.77-.26-78.65C1718.16,284.45,1662.31,628.76,1606,661.87ZM1460.63,454.62c9.09-5.81,25.66-10.25,38.84-12.06-11.55-2.28-28.23-15.82-42.11-16.85C1454.21,434.47,1457.86,451.35,1460.63,454.62Z"/>
    </g>
  </g>
  <g class="skinEastAsian">
    <path d="M739.08,552.28c48.34,55.55-52.66,99.56-62.18,146.62-11.4-36.24-113.84-34.8-126.83-98.28,5.91-15.91-.14-72.74-30.37-127.15"/>
    <path d="M168,868c-2,18.76-66.43,41.81-82.45,37.9-34-19.92-48.65-44.6-62.13-82C3.52,803.94-8.2,775.41,10.16,759.78c-2.73-16.8,4.53-30.06,15.24-33.6,3.52-36.73,26.13-43.51,57.44-22.27C80.11,679.68,74.25,684,66,672.65c-13.67,8.59-35.95-3.52-29.3-17.59,9.37-10.16,23-31.65,49.62-20.32,9.38,5.47,21.37,12.09,28.13,21.1,7,9.38,8.82,21.1,17,45.72,3.69-11.33,17.37-13.28,20.5-8.59,2,19.53,5.47,21.1,15.24,35.16,9.3,13.4,15.47,27.23,14.84,64.48C181.31,839.11,170,838.71,168,868Z"/>
    <path d="M1240.51,1358.66c-12.41-15.25-21.63-57.44-38.65-82.62-9.93-24.46-75.88-31.2-96.45-3.19-13.12,22-26.59,22.34-47.51,69.5-5.7,12.84-8.19,21.81-12.63,30.13-8,20.63-1.18,32.56.56,50.09,7.22-5.35,23.11-17.08,30.37-22.38,4.58-7.61,8.6-23.34,24.79-17.82,13.19,8.6,6.11,46.43,1.1,83.38-14,48.06,19.63,57.09,31.33,41.49-.35-22,9.32-43.53,10.29-68.09.71-18.08,5.36-29.51,7.44-53.54,4.26,32.27,13.48,43.26,5.32,91.48-12,22.34-9.57,55.32,16,52.48,11.89-3.29,11.7-23.75,21.28-39-.36,9.93,15.6,15.25,19.85,6.38,5.68-16.66,19.15-16.66,25.89-43.61,18.44-11,22.52-24.19,23.75-55.67C1263.77,1383.23,1250.09,1374.62,1240.51,1358.66Z"/>
    <path d="M826.06,491.58C809.84,524.93,806.13,546,780,557.2c-54.88,23.47-71.67,12.66-137.61,5.29-62.45-7-117.29-39.62-141.7-89.29-17.82,20.1-32.91,16.92-44.6,7-14.82-16.58-61.54-22.51-70.81-79.27C323.73,263,577.79,14.72,760.21,122.54c26.65,75.18,41.25,70.66,40.87,128.26C800.13,281.87,880.44,379.81,826.06,491.58ZM666.64,290.07c-10.93-13.26-26.38-19.69-40.07-15.44-26,8.06-36.6,26.49-46.8,36.15,21,7.19,49.37,14.82,78.51-13.6C660.2,295.31,670.44,294.68,666.64,290.07Zm68.91-11.82c6.23-1.73,32,9.87,54.69-7.45,1.49-5.05-.79-17.39-3.14-21C774,226.34,735.8,262.81,730,275,728.59,278,731.25,279.44,735.55,278.25Z"/>
  </g>
  <g class="clothesDisplayLine">
    <path d="M298.56,2318.37c-48.3,15.06-133,1.82-159.68-32.36"/>
    <path d="M960.49,2283.34c-26,37.39-201.66,2.31-192.33-33.37"/>
    <path d="M768.16,1358.14c-10.42,11.18-.55,44.91-5.36,62.63-6.84,25.24-3.41,55.8-4.55,76.29"/>
    <path d="M754.83,1585.88c-2.27,20.5,0,38.72,8.37,54.34"/>
  </g>
  <g class="clothesOverlapLine">
    <path d="M322.46,2228.87c-26.84-14.47-53.62-23.91-80.3-25.59"/>
    <path d="M332.5,2212.24c-25.58-14.28-51-23.9-76.51-25.81"/>
    <path d="M341.82,2195.36c-23.72-14.54-48-23.44-73.1-24"/>
    <path d="M349.91,2179c-21.09-15-46.15-22.71-69.54-20.81"/>
    <path d="M357,2162.39c-22.24-12.26-44-19.73-64.63-19.33"/>
    <path d="M380.24,2112.9c-11.45,11.67-10.09,16.24-16.67,30.75"/>
    <path d="M941.18,2146.16c-29.59-10.36-61.35-15.86-93.12-17.18"/>
    <path d="M938.78,2160.1A334.49,334.49,0,0,0,844.59,2143"/>
    <path d="M936.2,2174.34c-31.15-9.92-65.05-16.71-94.77-17.92"/>
    <path d="M933.23,2188.42c-30.56-9.94-64.42-17-94.44-18.77"/>
    <path d="M929.89,2201.59C900.22,2191,867.52,2184,836.77,2183"/>
    <path d="M858.08,2083c-.67,14-4.67,20.65-6.59,30.75"/>
    <path d="M950.34,2102c-4,10.24-4.67,21-6.37,29"/>
    <path d="M758.25,1564.25c8.32-87.07,53.73-145.34,125.26-183.33"/>
    <path d="M749.14,1546c-14.39-73-65.12-121.78-141.2-153.73"/>
    <path d="M1036.16,1359.79c-16-21.83-52.82-27.86-94.39-18.78"/>
    <path d="M889.24,1434.09c-50.76,59.3-91.3,118.94-51.77,181.2-6.1,13.43-9.52,26.46-8,38.74"/>
    <path d="M569.66,1705.71c24.66-45.31-24.53-114.24-50.41-145.3"/>
    <path d="M2055.32,1260.83c74.68-12,195.32-83.31,197.64-143.63"/>
    <path d="M1817.42,904.83c18.27,27,39.54,46.78,62.12,68.83,25.54,59.5,56.44,67.09,81.76,116.73,3,6.59,16.21-2,27.14-8.66"/>
    <path d="M2141.91,991.07c8.84-3.09-35.35-81.63-67-96.91-11.46-44.18-38.73-45.82-75.28-100.91"/>
    <path d="M959.29,714.62c6.49,63.9,26.79,120.06,31.41,174.85"/>
    <path d="M913.92,1076.72C938,1148,982.1,1191.23,984.3,1256.39"/>
    <path d="M555.52,1104.51c-16.67,38-41.68,77.79-46,122.55"/>
    <path d="M266.2,955.53c44.95,22.66,75.76,57.45,52.24,138.79"/>
  </g>
  <g class="clothesFoldLine">
    <path d="M519.25,1560.41c-24.8-32.1,13.88-49,33.72,34.36"/>
    <path d="M973.55,1354.72c-42.84-1.32-88.72,25.38-137.88,82.33"/>
    <path d="M902.13,1358.73c-70.57,3.06-118.08,38.4-138.28,37.13-28.53-1.78-69-42.13-164.26-37.72"/>
    <path d="M843.61,1391.42c-29.42,15.71-55.84,34.8-76.38,60.51"/>
    <path d="M624.39,1376.54c55.55,4,119.56,44.75,116.06,60.51-2.15,9.7-41.13-29.57-67.45-31.76"/>
    <path d="M597.61,1615.6c2-40.67-14.3-90.19-36.7-83.32-23.1,7.08,37.69,87.29,30.28,147.59"/>
    <path d="M500.4,1621.55c-29.8-34-42.65,17.86-34.72,92.25"/>
    <path d="M380.24,1549.25c15.93-12,19.35-31.85,31.8-35.82"/>
    <path d="M837.47,1615.29c22.92-47.3,58.44-88.54,49.7-115.75-6.24-19.42-34.71,21.83-44.63,78.37"/>
    <path d="M862.37,1676.11c20.84-103.16,62.5-150.78,44.64-35.71"/>
    <path d="M1036,1570q-52.56-122-21.82,69.44"/>
    <path d="M977.31,2033c-38.48-10.68-40.46,10.15,1.2,38.92"/>
    <path d="M826.64,1979.86c23.83,22.6,91.66,35.46,84.42,49.38-12.9,24.8-58.6-7.94-84.4-1"/>
    <path d="M501.39,1863.58c-2.8,22,3,41.67,5.12,53.12"/>
    <path d="M464.88,2047.32c-24.82-10.69-35.22-8.77-13.09,21.6"/>
    <path d="M309.91,2028.66c28.72,7.52,65-1.08,87.33,11.49"/>
    <path d="M470,2098.4c-10.33,7.38-24.72,6.57-42,0"/>
    <path d="M477.58,1942.94c1.28,43.63-34.71,79.35-123,50.59"/>
    <path d="M966.61,1936c40.11,51.69,9.92,80.34-80.35,31.74-20.5-11,8.59-26.52,31.74-39.68"/>
    <path d="M1034,1465.71c-37,4.72-38.79,15.37,5.85,33.82"/>
    <path d="M542.49,1336.44c-20.63-1.43-37,6.4-52.51,18.24"/>
    <path d="M2324.29,1174c-47,53.94-157.88,109.19-223.36,113.52"/>
    <path d="M2295.87,1255.82c-31.32,28.23-101.25,54.76-144.41,53.94"/>
    <path d="M2370.69,1174.62c24.94-23.78,37.42-2.42-20.3,71.34-96.19,122.91-294.95,87.71-270.58,59.5"/>
    <path d="M2087.27,1293.42c1.08,4.5,2.14,12-.76,16.89"/>
    <path d="M2359.33,974c3.19,19.07,2.24,33.55-2.32,44"/>
    <path d="M2337.14,971.31c4.14,9.71,5.55,18.44,2.92,25.71"/>
    <path d="M1999.92,1482.69c-2.34,27.47,59.61,59.62,121,68.38"/>
    <path d="M2347.66,1434.77c-23.38,61.36-83,133.25-150.78,136.17"/>
    <path d="M1815,730.64c-52,54.91-29.74,116.92-19.73,136,5.69,10.86-8.39,12.43-17.53-24.21"/>
    <path d="M1663,898.29c-.34,8.1-4.22,18.77-11.4,25"/>
    <path d="M1680.51,918.41c-15.74,11.8-41.84,17.5-36,1.17"/>
    <path d="M1782.09,893.09c14.42,26.92,46.79,52.24,74.4,57.95"/>
    <path d="M1818.62,953c17.53,11.82,37.93,18.53,60.92,20.64"/>
    <path d="M1861.56,1057.81a188.92,188.92,0,0,0,66.75-13.51"/>
    <path d="M1803.56,1060.37c37.82,16.27,79.33,20,123.7,14.1"/>
    <path d="M1799.07,1091.77c22.16,24.29,69.55,37.32,131.39,43.91"/>
    <path d="M1836.73,1146.65a169,169,0,0,0,62.65,10.74"/>
    <path d="M1879.19,1182.46c17,2.81,37.44-.82,58.13-9"/>
    <path d="M1985.17,931.73c42.94,32.51,111.33,35.68,117.79,4.29"/>
    <path d="M2074.93,894.16c2.38,11.75,7.43,21.75,13.92,30.82"/>
    <path d="M1967.37,713.93c27.61,30.67,68.1,42.33,66.84,121.51"/>
    <path d="M2142.23,901.05c-7.23,16.35-15.62,28.66-25.49,35.82"/>
    <path d="M2168.73,902.88c-3.66,16.45-10.22,32.43-24.05,47.25"/>
    <path d="M1999.65,793.25c-12.8-17.09-48.7-31.72-40.35-43.69,7.28-10.46,29.77,8.86,37.37,29.13"/>
    <path d="M372.44,670.11c11-1.83,22.07.89,33.36,8.38"/>
    <path d="M342.78,720.26c2.34,10.87,11.92,21.23,8.19,30.61"/>
    <path d="M389.72,729.67c4.46,14.92,16.81,27.05,26.31,43.13"/>
    <path d="M434.31,714.31c12.51,20.4,14.62,51.18,23.39,73.84"/>
    <path d="M494,889.65c-14.81-4.47-28.57-9.78-38.12-18.44-2.55-51.07-16.07-97.7-39.84-132"/>
    <path d="M331,854.56C353.35,888,389.29,896.43,435.5,886"/>
    <path d="M360.21,951.79c-21.2-13.16-53.37-23.4-75.65-24.52"/>
    <path d="M301,1046.09c14.61-40.38-.66-69.14-34.79-90.56C319.27,973,347.05,984,358,1051.21"/>
    <path d="M469.85,953.27c58.5,35.8,134.52,27,61.42,45.3"/>
    <path d="M501.3,943.75c33.94,16.78,72,26.83,113.31,31.43"/>
    <path d="M507.15,1022.7c15.68,13.27,34.51,22.36,55.55,28.51"/>
    <path d="M491.73,1043.24c15.42,8.7,50.51,13.82,16.15,21.86"/>
    <path d="M500.25,1088.23c12.8,3.07,28.64.24,45.64-4.85"/>
    <path d="M501.55,1147c5,4.46,12.11,7.34,20.22,9.45"/>
    <path d="M566.36,1268.33c32,13.88,87.73,11,125.74,16.08"/>
    <path d="M651.89,1261.75c111.85,30.7,173.26,7.31,255.87-8.77"/>
    <path d="M755,1040.24c-49.28,1.53-95.39,5.91-136.71,14.62"/>
    <path d="M640.93,1027.82c45.07-.15,106.73-9.51,165.94-13.89"/>
    <path d="M787.87,921.81c-38,10.61-74.53,17.85-108.93,19.74"/>
    <path d="M759.36,943.75c26.63.65,76-21.94,118.43-37.29"/>
    <path d="M966.24,625c-2.19-46.79-22.66,29.24-7,89.61"/>
    <path d="M1039.51,622.3c28.66,48.62,40.67,98.61,21.77,151.11"/>
    <path d="M1090.52,739.05c2.51,29.66-.42,57.52-18.28,80.42"/>
    <path d="M1175.39,909.15c-7.46,6.18-11.16,13.16,1.39,23.63"/>
    <path d="M1029.71,965.77c8.44,3,13.47,8.09,9.37,18.91"/>
    <path d="M1153.39,894c-.73,27.05-61,56.29-99,50.45"/>
    <path d="M1165.09,965c-42.95-9.87-82.23-3.36-112.85,30"/>
    <path d="M1191.4,1165.25c-13.16,38.75-70.18,47.52-100.15,17.55"/>
    <path d="M1010.24,1118.21c-8.87,7.13-17,12.31-23.53,13.41"/>
  </g>
  <path class="clothesEdgeLine" d="M2582,1426.25c10.75,79.74,167.56,145.15,191.75,182.78"/>
  <path class="lipMaleMedium__noStroke" d="M761,409.88c-14.74,19.35-27.11,1.19-39.94,14.81-9.67,7.43-11.57,27.94-26.22,47.5,14.76,6.81,24.41,33.19,59.16,23.4,37.11-10.47,22.15-36.67,29-46.69C767.14,433,775.12,412.25,761,409.88Z"/>
  <path class="mouthInner" d="M752.49,443.33c7.81,2.75,14.61,8.69,15.94,15.9,2.84-3,4.9-8.08,10.61-12.07-2.56-.7-5.08-6.15-11.55-11.08A72,72,0,0,1,752.49,443.33Z"/>
  <path class="tongue" d="M768.42,459.23c-1.69-9.21-12.32-16.37-22.58-17.4A164.92,164.92,0,0,0,713,449.67c-5.17,7-9.43,15.36-15.48,20.85,18.64.51,31.16,3.78,38.21.54,9.09-4.19,15.38-5.51,29.26-9.59A7.59,7.59,0,0,0,768.42,459.23Z"/>
  <g class="lipOverlapLine">
    <path d="M764.19,427.39c-2.3,0-6,1.15-7.67,3"/>
    <path d="M779,447.16a16,16,0,0,0,9,1.52"/>
    <path d="M692.06,472.86a13.84,13.84,0,0,0,5.44-2.34"/>
  </g>
  <g class="lipEdgeLine">
    <path d="M721,424.69c12.83-13.62,25.2,4.54,39.94-14.81"/>
    <path d="M725.37,495.52c13.15,5.66,40.36.68,51-13.91"/>
  </g>
  <g class="lipFemaleBrown">
    <path d="M1494,605.78q-.86-2.29-1.79-4.52c-16.36,8.82-42.09,19.87-26.56,40.49C1479.48,631.89,1488.13,619.5,1494,605.78Z"/>
    <path d="M1484.89,585.69c-8.46-1.72-23.92,1.63-36.44-.09C1459.07,602.2,1474.58,585.49,1484.89,585.69Z"/>
  </g>
  <g class="teeth">
    <path d="M767.49,436.08a36.7,36.7,0,0,0-11-5.71c-4.35,3.95-4.4,8.29-18.78,6.56-13.14-1.58-20.26,6.12-26.45,15.13C728,451.62,755.34,444.34,767.49,436.08Z"/>
    <path d="M1484.89,585.69c-3.94-.08-8.65,2.32-13.55,4.38a86.36,86.36,0,0,0,7.06,18.7c4.65-2.74,9.57-5.2,13.85-7.51C1490.07,596.07,1487.6,590.88,1484.89,585.69Z"/>
  </g>
  <g class="cheekLine">
    <path d="M769.92,373.19c2.26,5.89,5.35,10.34,6.47,17.78"/>
    <path d="M689.21,374.71c-11.53,12.08-19.16,42.31-18.34,58.22"/>
    <path d="M1498.5,620.54c-8.92-39.09-36.16-58.32-30.38-96.64"/>
  </g>
  <g class="noseLine">
    <path d="M750,338.17c6.14,15.07,31.61,18.75,14.9,46.47"/>
    <path d="M689.21,374.71c-6.21,7.83-4.65,23.77,9.7,28.22"/>
    <path d="M705.51,393.3c6.26-11.66,16.51,2.17,24,1.06"/>
    <path d="M762.69,374.91c-1.27,7.38-6.74,12.44-13.24,16"/>
    <path d="M1434.55,553.28c12.71-2.33,23.66,6.6,36.24,2.09"/>
  </g>
  <g class="eyeFoldLine">
    <path d="M791.25,290.61c-7.57,7.68-25,12.85-37.61,9.39"/>
    <path d="M653.57,323c-13.45,12.6-36.29,16.7-46,13.5"/>
  </g>
  <g class="eyeLidLine">
    <path d="M792.11,239c3.44,8.13,4.28,15.14-2.34,18.94"/>
    <path d="M1457.36,425.71c-11.6-1.79-4.38-15.43-4.38-15.43"/>
    <path d="M1460.63,454.62c-6.23,2.43-6.11,16.73,12.13,11.63"/>
  </g>
  <g class="eyeCornerLine">
    <path d="M569.48,319c3.63-1.89,6.39-4.58,10.29-8.24"/>
    <path d="M790.24,270.8a18.68,18.68,0,0,1,4.08-4"/>
    <path d="M1499.47,442.56c4.58.92,13.23,0,15.51-.76"/>
  </g>
  <g class="eyeCreaseLine">
    <path d="M580.43,297.21c13.44-24.94,44.88-42.92,69.62-28"/>
    <path d="M1491,429.66c-15.06-9.68-25.33-15.5-40-13.54"/>
  </g>
  <g class="eyebrowBlack">
    <path d="M716.54,210.84c22,16.57,41.87-13,80.15-1.79-.9-3.16-1.94-6.17-3.11-9.16C758.1,184.46,735.9,211,716.54,210.84Z"/>
    <path d="M659.22,225.1c-19.49,33.7-70.57-13.76-116.23,59.83C578.56,199,618.91,237.77,659.22,225.1Z"/>
    <path d="M1527.1,405.32c-30.74-28.62-62.24-16.86-84.86-21.27-10.42-2,.94,18.06,14.15,13.55C1480.15,389.49,1505.14,391.31,1527.1,405.32Z"/>
  </g>
  <g class="hairBlack">
    <path d="M553.31,135.55c37.11,96.15,117.61,55.82,145.85,72.26-5.77-8.07-16.23-16.19-27.87-22.82,33,16.06,77.45-28.26,133.1,6.26-.63-40.49-13.5-81.82-42.74-103.45,10.62,3.49,20.59,1.12,34.49-3.7C719.78,52.63,687.47-23.1,528.81,8.6c-55.21,11-119.76,41.29-140.67,70.67-4.09-22.08,12.44-43.22,27.07-61.57C376.83,41.3,368.74,64.56,370.75,95c-19.22-10-46.32,9.49-49.05,24.33,15.61-13.32,29.61-14.16,38.21-7.86-62.72,101.67-5.26,277.46,25.36,289.47-6-47.75,46.42-72.83,66.24-32.69,9.7-1.51,26.85-10.52,36.9-15.64-5.85-27.19-14.42-25.68-1.13-74.52,23.27-13.64,43.84-25.64,54.63-62.65.84,14.51,1,20.76-1.18,34.68C556.75,234.74,571,207.78,553.31,135.55Z"/>
    <path d="M1622.07,589.76c-13.53,64.57-34.56,100.86-69.15,149.91-35.21,50,76.94,24.07,126.22-23.58-14.6,45.12,83.94,3.87,129.37-47.66-21.56,60.91,209.71-20.27,157.84-232.83C1940.84,331,1962.18,272.79,1888.88,214c-42.27-33.89-78.82-107.89-227.61-99.29-171.15,9.88-200,44-241,111.29-23.5,38.56-45.28,87.62,5.17,139.1l2.8-41.89c33.13,51.22,118.81,67.17,87.87,31,23,19.28,47.08,27.26,76,26.29C1650.07,513.06,1564.52,625.86,1622.07,589.76Z"/>
  </g>
  <g class="hairOverlapLine">
    <path d="M487.28,278.09c-10.84,6.26-27.12,13.78-34.16,20.75,5.45-11.28,16.25-25.79,21.55-34"/>
    <path d="M1417.94,290.22c.92,11.56,3.89,22.66,10.28,33"/>
    <path d="M1592.11,380.45c34.08-1.07,52.63-8.78,35.55-19.54"/>
  </g>
  <g class="skinOverlapLine">
    <path d="M1664.36,1311.38c10.51-11.66,34.32-5.6,58.56-9.06"/>
    <path d="M1732.44,1315.74c-55.84,29.87-51.51,5.63-83.24,58.39"/>
    <path d="M1673.63,1401.51c-10,1-20.41-7-14.35-15.2,15.59-16.45,16-32.91,77.49-41.43"/>
    <path d="M1192.3,1374.45c7.21,31.79,13.52,42,11.15,62.6-3,25.57-1.64,36.71-9.74,53.52"/>
    <path d="M1220.82,1372.48c9.83,18,18.35,25.24,19,37,.69,12.47,1.31,30.48-.38,43.82"/>
    <path d="M131.51,701.56C124,715.8,124,739,136,750.12c2,9.6-3,19.31-6,35.18"/>
    <path d="M25.4,726.18c-3.07,41.53,12.38,47.54,20.1,64.7C70.81,793.45,70,763,60.51,751c3.49-8.09,4.65-17.38,4.29-27.46"/>
    <path d="M10.16,759.78c.16,43.11,23.76,45.25,33.19,61.13,20.6,6,28.75-21.45,17.08-34"/>
    <path d="M23.45,823.87c8.75,7.33,18.4,5.26,19.9-3"/>
    <path d="M82.84,703.91c0,9.2,1.37,16.73,4.7,21.76"/>
  </g>
  <g class="skinFoldLine">
    <path d="M1320.18,1278.4c3.26-3.89,5.7-10,7.47-17.9"/>
    <path d="M82,661.74c-3.16,4.82-10.29,9.87-15.92,10.91"/>
    <path d="M97.84,722.66A40.85,40.85,0,0,0,79,730.81"/>
    <path d="M450.68,389.29c-34.8-51.66-94.1,12.56-15.22,61.89"/>
    <path d="M454.83,406.7c-11.54,16.32,21.83,19.82,12.42,33.49-5.09,7.38-4.77-7.73-26-9.12-23.53-1.54-16.41-42.88-3.55-32.24"/>
  </g>
  <g class="skinCreaseLine">
    <path d="M1647.6,999.29c7.35,17,16.72,31.54,28.6,43.13"/>
    <path d="M108.13,763.42C86.68,791.31,79.39,827.34,94,872"/>
  </g>
</svg>
