<svg viewBox="0 0 191.05 395.36">
  <g class="eye">
    <g class="sclera">
      <circle cx="131.78" cy="73.14" r="17.91"/>
      <circle cx="86.62" cy="62.39" r="18.77"/>
    </g>
    <g class="irisDarkBrown">
      <ellipse cx="137.77" cy="76.49" rx="3.33" ry="3.17" transform="translate(7.81 165.61) rotate(-63.48)"/>
      <ellipse cx="118.25" cy="68.31" rx="3.33" ry="3.17" transform="translate(4.33 143.62) rotate(-63.48)"/>
      <ellipse cx="100.83" cy="65.54" rx="3.43" ry="3.22" transform="translate(14.95 149.72) rotate(-77.45)"/>
      <ellipse cx="80.27" cy="60.96" rx="3.43" ry="3.22" transform="translate(3.32 126.07) rotate(-77.45)"/>
    </g>
    <g class="pupil">
      <ellipse cx="137.6" cy="76.32" rx="1.29" ry="1.23" transform="translate(7.87 165.37) rotate(-63.48)"/>
      <ellipse cx="118.08" cy="68.14" rx="1.29" ry="1.23" transform="translate(4.39 143.37) rotate(-63.48)"/>
      <ellipse cx="101.11" cy="65.68" rx="1.33" ry="1.25" transform="translate(15.03 150.11) rotate(-77.45)"/>
      <ellipse cx="80.55" cy="61.11" rx="1.33" ry="1.25" transform="translate(3.41 126.46) rotate(-77.45)"/>
    </g>
  </g>
  <g class="bennett">
    <g class="soleWhite">
      <path d="M73.2,368.65a16.09,16.09,0,0,1,.45,7.5c-.34,2.09-1.33,3.22-1.59,5.27-2.47,19.45-27.43,14.19-29.83,8.34-1.17-2.85-1.3-7.57.15-10.4C46.13,371.87,58.94,369.82,73.2,368.65Z"/>
      <path d="M36.37,367.3c.8,2.65.39,5.22,0,7.65-.34,2.09-3.68,4-4,6-2.88,17.58-28.7,14.53-31.1,8.68-1.17-2.85-1.46-7.11,0-9.94C5,372.21,22.11,368.47,36.37,367.3Z"/>
    </g>
    <g class="bennettShoe">
      <path d="M69.07,340.2c1.76,9.18,5.51,20.27,4.13,28.45a24.07,24.07,0,0,1-1.45,5.58c-1.3,3.3-1.35,5.92-2.38,8-2.6-8.11-21.87-9.72-27-2.83,1.45-4.82,4.41-9.87,4.51-14.92.18-8.72,3.52-16.9,4.13-24.24Z"/>
      <path d="M29.47,339.93c1.07,10.08,7.05,18.76,6.9,27.37-.09,5.64-3.21,6.61-4.43,8.37-1.89,2.74-1.23,4.53-2.32,6.09C27,373.66,5.9,371.71,1.24,379.7c1.45-4.82,5.64-10.22,6.36-15.22C8.83,356,11.16,351.15,12,340.7Z"/>
    </g>
    <g class="shoelace">
      <path d="M64.18,369.42a44.61,44.61,0,0,0-14.84-.31c2-5.83,1.65-11.67,3-17.29,4.06.39,8,.26,12.7.31A91.18,91.18,0,0,1,64.18,369.42Z"/>
      <path d="M24.58,369.14A41.36,41.36,0,0,0,10.35,369c2-5.83,1.66-11.67,3-17.29,3.95.7,7.34.39,12.08.16A91.08,91.08,0,0,1,24.58,369.14Z"/>
    </g>
    <path class="converseLogo" d="M33,366.64c-2.33.56-3.66-10.59-1.54-11.4C33.07,354.64,35.29,366.1,33,366.64Z"/>
    <path class="bennettJeans" d="M84.46,213.9c1.44,20.84-.93,49.67-5.06,51.5.65,4.36.6,8.3-4.18,9.46,3.6,3.64-1.27,28.15.66,50.62.51,5.89,2.74,11.23-2.89,14.75,2.93,3.49.15,5.79-2.06,8.33-1.11-1.72-3.79-1.57-5.35-2.4,1.07-5.34-12.4-6.47-12.26-.51A8.26,8.26,0,0,0,50,346.74c-1.33-2.51-4.9-4.18-2.27-7.74-3.6-4.34-.84-11.51-.15-18.82,1.19-12.67-3.78-44.28-2.32-48.28-1.8-1.54-.16-7.68-1.85-9.56-.74,4.31-.27,8.63-4.47,8,1.46,16.9-4.06,39.95-3.24,53.06.47,7.55,4.86,12.37-1.23,15.89,1.87,5.09-.24,5.9-3.15,8.77-2.12-.93-3.42-3.32-5.46-2.34-.07-5.4-10.62-5.73-11.18-.67a5,5,0,0,0-3.18.63c-.64-3.09-3.44-5.74-1.11-7.78C5.19,336.19,9,328.82,9,321.73,9,303,5.32,274.92,7.74,270.21c-.33-3.88-4.39-3.56-.77-10-4.08-14.1-1.83-35.89,3.09-47.66C22.34,198.4,59,203.84,84.46,213.9Z"/>
    <path class="shirtWhite" d="M94,135.75c4.3,8.73,14,83-24.66,79.93-12.37-1.7-15.93.69-21.27.76-13.84.17-24.1-9.13-38-3.92-.78-5.31,2.47-5.05,2-8.86a5,5,0,0,1,1.29-3.86c-2.87-2.2,2.45-4.69.9-10.43-2-1.47-1.54-2.84-.68-4.81.59-1.36-2.32-.52-.74-4.46.91-5.41-1.23-12.53.64-16.73-2.53-1.8-.52-4-.5-8.17,0-4.84-1.2-11.93-1-25.6C19.43,95.4,95,101.38,94,135.75Z"/>
    <path class="bennettSleeves" d="M43.25,94.89c-13.4,3.22-27.38,3.41-29.76,17.57-1.48,8.79-3.46,22.4,2.26,23.36,1.7,10.64,5.8,23.29,9.21,31.68,1.5,3.7-.31,6.66,3.53,8.48.09,4,4.59,6.35,6.48,9.05,3.08.79,18.88-4.18,21.88-8.62-2.13-2.28-1-4.11-3.22-5,.33-1.43-.78-2.3-3-2.74,1.64-2.26.18-3-1.21-4.09-1-.74.22-2.83-2-3.2-3-6.4.79-5.44-3.22-8.9-3.32-6.75,3-4.83-4.07-12.17-3.17-5.49,2.41-6.71-2.17-10.75.78-2.32-1.79-5.3-1.41-8.15a29,29,0,0,0,3.81-3.77,2.31,2.31,0,0,0,2.45-3.24,20.72,20.72,0,0,1,2-2.2,3.07,3.07,0,0,0,3.77-1.48c5.84,4.28,17,5.9,24.73,1.83,11,16.14,17.54,21.8,20.63,28.28C108.64,125.78,83,108.15,43.25,94.89Z"/>
  </g>
  <g class="liz">
    <path class="lizJeans" d="M165.38,223.83c5.08,15.17,0,36.32-9.77,43.52-.32,1.67-2,1.27-2.24,1.93,1.48,1.54-.93,1.81-.35,3.27,4.25,16.4-3.24,37.2-4.57,54.22-7.1,3.19-13.72,3.43-19.66-.44-.69-17.65-6.91-37.72-6.56-54.73-1.54-.87.56-2.54-.44-3.16-1.43-1.05.22-2.64-1.16-5.32a11.81,11.81,0,0,0-1.19,2.95c.07,2.16-1.13,1.75-1.8,2.67-1.16,1.58.72,3.09-1.06,4-.1,13-4.72,34.73-6.86,55.82-6.83,3.57-13.25,4.2-18.92-.34-1.43-16.88-6.7-46.28-5.47-56.27.2-1.65-1.79-1.52-.82-3.89.38-3.82-1.43-3.82-.36-6.53-.39-11.9,0-28.23.59-42.51Z"/>
    <g class="lizJeansCuff">
      <path d="M148.79,323.3c-2.66,3.25-17.46,5.56-20.17,0-2.29.15-1.44,9.17.62,9.26,1.8,5.33,18.94,8.44,19.82.4C150.73,332.36,150.63,323.24,148.79,323.3Z"/>
      <path d="M110,325.59c-.88,4.31-18.39,4.07-19.51-.24-2.36,0-2.75,7.73-1.82,8.56-.12,5.66,21.07,6.12,21.19.45C111.38,334.39,111.52,325.61,110,325.59Z"/>
    </g>
    <g class="soleLightTan">
      <path d="M113,370.21c.31,3.48.15,6.68-1.56,8.87-3.17,4.06-20.35,4.65-24.1.21A12.84,12.84,0,0,1,84.84,371Z"/>
      <path d="M121.14,373.32c.2,1.63.73,3.64,1.48,4.41,4.33,4.48,19.33,3.48,22.89.29,2.29-2,3.55-6,4.1-8.15.68,0,2.32-.36,2.46-1a95.32,95.32,0,0,0,.85-13.67Z"/>
    </g>
    <g class="lizShoe">
      <path d="M109.9,334.36c-7.61,6-18.41-2.91-19.56,1.37a2.19,2.19,0,0,1-1.63-1.82,48.29,48.29,0,0,1-1.93,17.66C85.17,356.61,85,364,84.84,371c-.12,10.8,30.82,10.41,28.18-.83-1-4.11-1.11-8.73-2.13-13.18-.57-2.53-.07-8.34-1.1-13.86C109.44,341.31,109.66,338.12,109.9,334.36Z"/>
      <path d="M129.24,332.56c.69,4.95-1.93,10-2.66,14.2-1.08,6.21-1.34,10.37-2.25,13.94-1,3.87-4.32,9.08-3.19,12.62,2.92,4.56,24,7.07,26.89-3.78,1.4-5.34,5-10.9,4.89-14.32-.13-7.17-4.89-10.78-3.86-22.26a2,2,0,0,1-1.93,1.39C146,330.88,135.86,337.87,129.24,332.56Z"/>
    </g>
    <path class="lizShirt" d="M149.22,118.77a5.78,5.78,0,0,1,4.45,3.58,7.42,7.42,0,0,1,5.21,2.28c17,5.3,17.06,18.52,5.75,39.17.51,3.22.41,6.28-1.63,8.78,1.41,4.78-1.24,6.49-2.06,10-.49,2.09.8,4-.22,5.53,1.19,1.71,1.86,3.53-.21,5.86-1.2,13.23,5.75,24.19,6.83,35-10.85-7.81-21-5.78-26.39-3.26-7.66,3.6-12.18,8.84-21.89-3.9-2.81,3.78-5.91,6.74-9.66,7.81-20.77-11.09-32-5.43-22.13-23.65-1.52-4.23,1-6.35,1.19-11.17s-2.49-8.68.44-13.46a3.66,3.66,0,0,1-.65-3.69c-8.85-13.78-4.67-25.45,6.18-34.28-1.36-.88-1.47-1.76-1.09-2.7,5.21-12.91,6.84-24.53,23.77-24.64Z"/>
    <path class="lizShirtCollar" d="M137.65,133.91c6.45-6.48,14.5-11.08,13.81-13.48-.76-2.67-1.44-5.43-3.57-7.8-2.34-2.59-21.37-4.73-26.16-1.95-4,2.32-7.43,6.92-10.73,12.19Z"/>
  </g>
  <g class="skinEastAsian">
    <path d="M49.76,67.38c-1.14,14.37-3.22,24-6.51,27.51-.15,10.85,23.32,20.68,32.05,8.4l3-11"/>
    <path d="M80.52,225.73c-7.75-.63-14-5.95-13.12-13.31-10.31-12.07-24.63-17.56-31.23-27.31,4.53-.21,16.7-4.26,20.21-8.11,7.89,9.46,15.1,20.65,24.52,29.06,2.72,1.77,9.26.88,15.4,5,3,2,3.41,4.25,5.44,6.78,2.37,2,3.93.73,5,1.77.89,1.27.06,3.91-2.09,4.35,1.76,2.82,1.91,6.4,2.43,8.2.12,2.31-2.63,2.72-3.73,2.28.16,1.76,1.46,2.86,1,3.64-3,3.14-6.67-.39-7.22-5a23.15,23.15,0,0,1-1.22-3.09c.11,5.4-2,5.68-3.14,8.6-3.36,1.82-5.73-3-3.25-6.94-1.21,2.64-2.43,1.48-3.53,3.74-2.53,2.15-5.2-2.19-1.39-4.77a4.87,4.87,0,0,1-1-3A4.71,4.71,0,0,1,80.52,225.73Z"/>
    <path d="M160.37,197.48c2.13.5,3.69,1,4.25,2.43.67,1.76.06,3.58-1.33,5.15,2.54,1.09,2.72,4.3.85,6.29,2.42.79,2.66,4.36.48,6,3,.62,3.81,4.19,1.65,5.73-2.56,1.25-5.68-2.81-3.35-5-3.69,2-6-.69-4.29-3.17-5,1.93-5.33-3.88-.18-5.94a4.87,4.87,0,0,1,1.09-2.24c-4.73,1.09-3.88-5.08.42-6.17Z"/>
    <path d="M88.63,97.28c-5.2,3.18-6.56,5.81-13.57,5-6.82-.83-9-3.83-16.22-9.39-8-6.17-13.58-14.58-12.55-25.06-5,2.48-5.87-3.33-6.93-5.07-.87-1.43-4.24-10.1-.76-15.74C40.44,23.8,96.24,11,113,39.05c-8.16,11.17.86,12.29-7.15,27C102.82,71.49,106.52,86.33,88.63,97.28Zm-6.3-35c-.45-2.53-3.22-3.9-4.72-3.94a17.48,17.48,0,0,0-6.6.79c1.46,1.1,2.33,2.53,5.31,3.16,1.42.3,3.31.27,5.21.68C81.88,63,82.48,63.15,82.33,62.27Zm11.51,3.41c3.91.35,4.48,2,8.38,1.79a4.26,4.26,0,0,0,.56-2,9.62,9.62,0,0,0-3.65-2.29c-1.69-.46-3.9.5-5.67,1.8C93.07,65.26,93.26,65.63,93.84,65.68Z"/>
  </g>
  <g class="skinIndian">
    <path d="M146.76,115.25c-4.72,7-17.4,9.08-23.08,12.49-2.06-5.61-8.45-7.64-3.07-14.82a22.19,22.19,0,0,0-.83-12.2C134.39,73.59,161.37,88.11,146.76,115.25Z"/>
    <path d="M78.77,120.87c11.78,9.68,19,20.08,37.18,27.66,8.89,3.72,22,1.91,36.22,2.17,10.46-3.06,3.33-20.46-4.21-21-6.17.11-15.54.58-17.89-.51-12.82-7-24.4-4.43-45.81-19.56C84,100.82,84,99.51,77.47,94.77c-2.56-1.86-3.35-4.3-10.49-7-3.11-.07-3.19,4.44,1.4,7.4,1.05.68,1.44,1.7,2.56,2.53-4.77-.82-9.78-4.72-14.08-9.11-2.7-6.24-7.34-5.88-7.2-2.7-1-.21-1.45,1.13-1,2.28.82,2.23,1,5.33,3.54,9.16-1.41,5.56,2.86,7.81,4,11A16.53,16.53,0,0,0,62.06,115C70.47,120.06,75,118.69,78.77,120.87Z"/>
    <path d="M154.25,102.5c-8.3,7.75-15.4,9.41-27.14,8.84-4.21-.2-8,.1-12.75-2.17-6-2.89-4.47-5.7-6.63-11.93-4-11.62,1.83-24.08,6.73-31.17,1.57-2.27.91-4.39,2.33-7.16C120.81,17.49,195.47,72.71,154.25,102.5ZM135.44,75.69a18.24,18.24,0,0,0,3.11,1.8A24.66,24.66,0,0,0,145,78.9c-2.08-1.86-4-3.82-4.83-4.07a7.48,7.48,0,0,0-5.08.11C134.07,75.37,135,75.5,135.44,75.69Zm-10.86-5.07c-1.27-2.12-2.61-3.67-4-4-1.17-.3-3.24.16-4.61.52a9.49,9.49,0,0,0,2.86,2.29c2,1,3.36.86,4.66,1.42C124,71,125.12,71.53,124.58,70.62Z"/>
  </g>
  <g class="clothesDisplayLine">
    <path d="M146.69,324.75c.84,1.05,1,8.22.21,9.16"/>
    <path d="M148.19,323.87c1.19.62,1.45,8.41.39,9.83"/>
    <path d="M123.41,226.71a41.84,41.84,0,0,0-.9,10.47"/>
    <path d="M42.38,379.36c-1.06,11.22,20.8,13.2,27,2.83"/>
    <path d="M1.24,379.7c-1.06,11.23,22.68,12.39,28.38,2.06"/>
    <path d="M46.2,217.7a1.73,1.73,0,0,0-.39,2.28c-1.25,2.28-1.44,5.26-.71,9.2"/>
  </g>
  <g class="clothesOverlapLine">
    <path d="M122.51,237.18c-.6,2.4-1.27,16.8-1.63,22.95,0,.87-1,1.75-.25,3"/>
    <path d="M114.91,226.49a28.49,28.49,0,0,1,7.6,10.69,22,22,0,0,1,6.18-7.44"/>
    <path d="M90.34,335.73c-1.06,2.64-.77,7.78-1.64,12.56"/>
    <path d="M147.13,334.35c1,1.77,1,9.71,2.58,14.21"/>
    <path d="M160,152.43c-8.81-1.14-10.73,1.63-11.2-1.74"/>
    <path d="M163,129.55c-6.41-1.14-14.45-1.48-14.65.17"/>
    <path d="M97.78,137.81a3,3,0,0,0,.21,1.63c-2.86,1.12-.12,1.94-3.56,4"/>
    <path d="M65.11,355.1c-4.68,0-9.16-.12-13.35-.31"/>
    <line x1="65.1" y1="358.02" x2="51.39" y2="357.67"/>
    <path d="M65,360.93a123.53,123.53,0,0,0-13.94-.31"/>
    <path d="M64.82,363.75a90.48,90.48,0,0,0-14.14-.25"/>
    <path d="M64.53,366.67a70,70,0,0,0-14.39-.37"/>
    <path d="M65,352.13c0-2.43-.67-4.64.56-6"/>
    <path d="M53.32,345.65c-.84,1.35-.51,3.66-1,6.17"/>
    <path d="M25.51,354.83a89,89,0,0,1-12.74-.16"/>
    <line x1="25.5" y1="357.94" x2="12.4" y2="357.74"/>
    <path d="M25.4,360.66c-4.69-.27-8.75-.18-13.33-.16"/>
    <path d="M25.21,363.48a82.56,82.56,0,0,0-13.52-.1"/>
    <path d="M24.93,366.4a64.71,64.71,0,0,0-13.77-.22"/>
    <path d="M25.42,351.86c0-2.43-.82-4.8.4-6.12"/>
    <path d="M14.64,345.07c-.83,1.35-.82,4.12-1.3,6.63"/>
    <path d="M65.53,217.53c-10.64,1-18.8,6.11-20.57,21.54a115.34,115.34,0,0,0-.64,14c-.2,3.21-3.22,5.79-1,9.29"/>
    <path d="M17.8,215.12c14.67-2,26.84,5.14,27.16,23.95"/>
  </g>
  <g class="clothesFoldLine">
    <path d="M119.44,266.07a10.06,10.06,0,0,0-3.68-6.56"/>
    <path d="M111.8,259.08c3.36,1.53,5.66,4.09,6,7.78"/>
    <path d="M116.58,272.71a9.83,9.83,0,0,1-5.57.93"/>
    <path d="M115.33,271.62a7,7,0,0,1-4.9.29"/>
    <path d="M152,270.39a14.51,14.51,0,0,0-7.37-1.32"/>
    <path d="M153.37,269.28c-1.34-1.4-6.7-2-9.39-1.78"/>
    <path d="M122.23,271.6a7.71,7.71,0,0,0,3.11.25"/>
    <path d="M125.8,270a7.63,7.63,0,0,1-2.82,0"/>
    <path d="M84.51,268a9.11,9.11,0,0,1,4.62-4.53"/>
    <path d="M85.31,269.49a9.11,9.11,0,0,1,3.32-3.67"/>
    <path d="M155.61,267.35c1.17-4.67-.39-8.17-3.58-11"/>
    <path d="M153.93,267.35c.74-2.87.33-6.49-2.32-8.34"/>
    <path d="M84.15,261.5a12,12,0,0,1,4.48-4.73"/>
    <path d="M121.4,262.15c1.33-4.34,4.07-5.94,7-7.33"/>
    <path d="M115,148.14c-1.62,3.27,1.4,3.73-2.74,10.93-6.43,11.17,2.92,12.85,1.13,18.81-3.23,10.69,4.89,13.45,2.58,18.63-4.43,9.94,3.71,10.39,1.3,15.19-3.52,7,3.62,5.78,1.76,10.14"/>
    <path d="M111,155.51a17.61,17.61,0,0,0-7.44-1.25"/>
    <path d="M109.62,156.94c-3.34-.1-6.89-1.18-8.89-.67"/>
    <path d="M109,158.94a19.27,19.27,0,0,0-5.54.67"/>
    <path d="M110.77,174.78a54.22,54.22,0,0,1-8.59-.66"/>
    <path d="M109.53,177a7.42,7.42,0,0,0-3.92.29"/>
    <path d="M112.87,191.39a17.56,17.56,0,0,0-5.63-1.43"/>
    <path d="M112.2,193a18.28,18.28,0,0,0-3.63,0"/>
    <path d="M113.82,209.81a34.09,34.09,0,0,1-9.73-6.11"/>
    <path d="M89.77,186.05a31.8,31.8,0,0,0,10.6,14.6"/>
    <path d="M88.09,190.68c2.77,7.95,10.67,16.63,19.82,23.52"/>
    <path d="M88.9,181.37a10.86,10.86,0,0,0,5.26,2.48"/>
    <path d="M88.25,177.68a12.83,12.83,0,0,0,6.87,2.93"/>
    <path d="M153.67,122.35a5.18,5.18,0,0,0-3.39,2.61"/>
    <path d="M158.88,124.63a7.85,7.85,0,0,0-5.45.91"/>
    <path d="M167.56,137.47c-3.27-3.32-6.84-5.49-10.79-6.21"/>
    <path d="M137.68,156.27a15.65,15.65,0,0,1,5.09-5.52"/>
    <path d="M141.31,155.22a21,21,0,0,1,7.78-3.41"/>
    <path d="M99.48,139.13a4.16,4.16,0,0,0-1.49.31"/>
    <path d="M102.65,142.19a8.18,8.18,0,0,0-5.77.18"/>
    <path d="M154.91,152.14a19.38,19.38,0,0,1,6,5.63"/>
    <path d="M163.35,161.28a4.55,4.55,0,0,1,1.28,2.52"/>
    <path d="M157.07,157.55a24.27,24.27,0,0,1,5.68,8.89"/>
    <path d="M154.31,161.13a48.24,48.24,0,0,1,6,13.08"/>
    <path d="M161.48,169.58a7.37,7.37,0,0,1,1.52,3"/>
    <path d="M143.7,178.47c2.41,2.41,6.31,3.13,10.76,3.21"/>
    <path d="M139.52,178.32c1.84,2.53,5.23,4.49,9.71,6.05"/>
    <path d="M160.72,188.1c-.32,1.06-1.29,2.13-3.05,3.22"/>
    <path d="M160.51,194a4.1,4.1,0,0,1-2.39,1.17"/>
    <path d="M130.32,185.19A99.64,99.64,0,0,0,153.94,198"/>
    <path d="M136.23,192a67.77,67.77,0,0,0,18.45,11.43"/>
    <path d="M140,213.74c4.65,1.3,9.64.77,14.94-1.5"/>
    <path d="M162.68,222.11a9.94,9.94,0,0,0-7.17-1"/>
    <path d="M144.37,221.88c4.19-1.34,10.3-.41,8.07-2.69-4.51-4.61-16.29,8.3-34.43-1"/>
    <path d="M120.39,155.3a26.14,26.14,0,0,0-6.55.64"/>
    <path d="M122.93,158c-4,0-7.62-.42-9.81-.49"/>
    <path d="M120.93,161.13a72.19,72.19,0,0,0-8.64-2.06"/>
    <path d="M120.93,179.38c-2.91-1.21-6.24-3.52-7.31-3.54"/>
    <path d="M120.39,182.3c-2.69-2-5.63-5-6.79-5.24"/>
    <path d="M131.47,202.44c-8.22-3.46-11.36-7.46-15.5-9.93"/>
    <path d="M125.84,210.48a26.16,26.16,0,0,1-8.09-.32"/>
    <path d="M125.84,213.7c-2.85-.37-5.82-1.68-8.33-2.5"/>
    <path d="M79.4,265.4c-3.66-4.1-6-10.73-1.72-6.38"/>
    <path d="M72.17,283.69c-2.11-11.68-3.57-12.17-6.33-1.94"/>
    <path d="M75.22,274.86c-7.92-14.7-5.49-18.27,1.33-5.61"/>
    <path d="M52.53,277.69c2.73-12.07,1.38-13-3.57-4.22"/>
    <path d="M33.21,272.5c-3.21-10.07-6.13-11.19-8.6,1.13"/>
    <path d="M45.22,271.9c.17-3.62,5.85-6.71,9.09-12.39"/>
    <path d="M46.52,258.54c5.18-3.15,6.8-2,1,2.76-1.44,1.17-2.72,3.1-3.23,6.89"/>
    <path d="M41,259.35c-5.19-3.41-7.58-8.26-3.73-6.66"/>
    <path d="M38.89,265c-1.78-4.06-5.88-9.95-6.49-8.12-1.3,3.9,6,9.09,6.5,13.45"/>
    <path d="M7.74,270.21c2.26-4.21,6.32-7.62,6.75-9.49.36-1.54-1.73-1.53-4.49,3.82"/>
    <path d="M7,260.18c5.79-6,6.28-10.89,2.06-6"/>
    <path d="M24.77,295.06c-.55,13.39-.34,25.88,5.2,32"/>
    <path d="M65.19,306.25c-.08,8.46.93,16.18,4.87,21.92"/>
    <path d="M59.51,313.56c0,6.67-.63,12.88-7.31,15.09"/>
    <path d="M73,340.23c-1.76.68-3.21,1.48-1.63,3.52"/>
    <path d="M47.69,339c3.54,4.1,11,1.18,18,2.64"/>
    <path d="M10.35,337.92c4.69.79,9.75.89,4.85,3.72"/>
    <path d="M34.43,339.31a14,14,0,0,1-6.73,2.16"/>
    <path d="M70.06,336.12c7.3-1.14,2-4-16.23-3.25-4.06.16-4.87,2.44,3.57,4.22"/>
    <path d="M27.37,334.17c5.49-1-1.65-3.1-8.93-6.49-4.86-2.27-9.08,5-.16,6.33"/>
    <path d="M53.12,218.88A20.68,20.68,0,0,1,39,218.56"/>
    <path d="M85.46,132.25c-2.92-2.09-23.14-12.83-14.31-5.85"/>
    <path d="M65.57,119c3.91,2.05,8.73,2.86,13,5.76"/>
    <path d="M51.17,115c12.36,7.62,16.26,13.56,28.43,20.72"/>
    <path d="M50.89,131.69a32,32,0,0,0,12.55,7.81"/>
    <path d="M55.45,138.1a46.75,46.75,0,0,0,11.24,5.11"/>
    <path d="M48.29,119.71c-.23,5-1.13,8.93-3.62,10.59"/>
    <path d="M41,104.93c3.7,5.6,6.89,11.6,4,22.49"/>
    <path d="M41.7,112.46c3.28,4.82,3.25,11.75-.28,20.9"/>
    <path d="M29.9,105.68c8.79,4.58,12.91,13.1,10.59,22.48"/>
    <path d="M90.72,146.84A63.47,63.47,0,0,0,77,143"/>
    <path d="M89.24,148.52a20.37,20.37,0,0,0-7.59-2"/>
    <path d="M52.47,148a70.35,70.35,0,0,0,28.06,6.13"/>
    <path d="M44.58,148.42c8.41,4.93,18.72,7.18,30.19,7.8"/>
    <path d="M77.09,178.61a95.61,95.61,0,0,1-18.15,1.54"/>
    <path d="M84.34,179c-4.27,1.86-14.59,3.9-18.39,3.44"/>
    <path d="M85.64,189.57c-5.18,2.21-10,3.69-14.21,3.72"/>
    <path d="M88.09,190.68c-1.58,2.6-13.54,6.37-6.63,6.79"/>
    <path d="M87.87,198.4A23.4,23.4,0,0,1,76.73,202"/>
    <path d="M24.88,108.28c5.51,3.16,9.58,7.38,11.63,13.08"/>
    <path d="M18.93,110.7c4.66,1.73,8.86,4,12,7.33"/>
    <path d="M24.14,116.73c5.57,4.93,12.72,7.21,13.91,11.43"/>
    <path d="M18.93,116.18c4.46,6.59,16.26,10.23,14.78,11.42-.84.67-4.18-2.13-7.62-2.5"/>
    <path d="M15.77,120.54c7.16,16.82,22.4,17.28,27.48,29.41"/>
    <path d="M40.09,140.26c-4.9-5-17.8-10.88-16.79-12.56.28-.47,11.52,2.23,14.49,5.94"/>
    <path d="M35.38,148.23c3,2,6,2.12,8.78,4.2"/>
    <path d="M39.19,152.5a11.31,11.31,0,0,1,5.39,3.16"/>
    <path d="M47.38,161.33c-5.4.34-11-1.71-16.74-5.39"/>
    <path d="M38.26,163.65c5.7.68,8,2.47,2.23,6.88"/>
    <path d="M50.61,168.62c-2.41.61-5.89,3.67-9.94,4.51"/>
    <path d="M53.63,171.36a13,13,0,0,1-3.39,1.58"/>
    <path d="M52.57,174.8c-5,2.69-9.78,4.6-14.31,4.65"/>
    <path d="M47.36,163.75c-1.72,1-.65,1.72,2,2.23"/>
    <path d="M18.28,152.23c-3,5.29-5.08,4.55-5.89,7.44"/>
    <path d="M17.45,157.34c-1.65,1.91-3.34,3.81-3.94,6"/>
    <path d="M21,173.41a24,24,0,0,0-7.16,5.94"/>
    <path d="M32.5,178.8c.72-5.37-13.42-2.48-17.84,3.71"/>
    <path d="M15.87,183.72a8.82,8.82,0,0,1,5.76-2.14"/>
    <path d="M16.43,187.53c3.69-1.85,8.71-2.52,14.21-2.79"/>
    <path d="M63.72,208.52c-3.81,2-17.94,3-21.75,1.12"/>
    <path d="M13.39,199.8c8.14-2.14,19.29,4.83,37.23,7.8"/>
    <path d="M18.93,197c3.1-1,11.52,3,17.93,3.81"/>
    <path d="M24.69,192.73c8.27-.28,17,2.87,20.75,1.52"/>
    <path d="M10.16,209.23c3.9-4,8-4.19,12.13-3.62"/>
    <path d="M12.1,203.66a7.62,7.62,0,0,1,6-.43"/>
    <path d="M10.06,212.52c3-3.57,7.91-4.37,14-3.29"/>
  </g>
  <g class="skinOverlapLine">
    <path d="M78.5,99.74c-2.16-1.56-5.93-1.81-7.56-2.09"/>
    <path d="M52.18,97.28c1.83,3.46,4.85,5.75,7.5,8.9"/>
    <path d="M49.66,85.84c1.08,4.35,3,6.44,5.31,9a27.57,27.57,0,0,0,8.45,6.54"/>
    <path d="M86.06,222.47c2.61,3.17,4.2,3.25,3.44,9.13"/>
    <path d="M90.41,219.54c3.17,3.41,5.31,3.88,5.48,10.4"/>
    <path d="M95.41,216.29c3,5.47,6.9,11,8,18.12"/>
    <path d="M101.74,217.81c2,2.37,2.25,5.15,2.92,6.12"/>
    <path d="M163.29,205.06c-1.11,1.15-2.68,1.21-3.75,1.75"/>
    <path d="M164.14,211.35c-2,2.11-4.18,2.82-5.51,3.64"/>
    <path d="M164.62,217.39c-.65.51-1.19.35-1.7.77"/>
  </g>
  <path class="skinCreaseLine" d="M132.41,138.22c.9,1.68-.33,5.27-2.17,6.17"/>
  <g class="skinFoldLine">
    <path d="M46.2,51.93c-.47-11.15-11.42-2.5-6.15,7"/>
    <path d="M45.31,55.28c-2.54,1.37,1.16,5.2-.69,5.94-1.28.52-.85-2-3.21-4.25s1.17-6.81,2.24-4.47"/>
  </g>
  <g class="skinEdgeLine">
    <path d="M81.35,219.55c3.05-.78,1.86-3.51,5.42-3.74,2-.13,1-3.38,5.22-2.8,1.54.22,1.87-1.46,4-.9"/>
    <path d="M68.58,100.65c-.54,2-2.36,1.71-3.27,4.46-1,3-3.77,2.49-4.44,4.21-.37,1-1.34,1.69-2.11,1.52"/>
  </g>
  <path class="lipMaleMedium__noStroke" d="M80.34,83.8a7,7,0,0,0,5.08,1,7,7,0,0,0,2.64,1.31c-3.52,1.31-1.29,6.94-8.67,6.13-6.86-.75-5.16-5.47-6.74-9.27C74.92,82.1,78.63,83.93,80.34,83.8Z"/>
  <g class="lipOverlapLine">
    <path d="M72.2,83a4.54,4.54,0,0,1,1-.14"/>
    <path d="M88.84,86.3a5.4,5.4,0,0,0-3-.2"/>
  </g>
  <path class="lipFemaleBrown__noStroke" d="M114.19,91.08c.21,1.5-2.4,5.65,4.25,8.62,5.58,2.5,7.5-1,10.75-2.35C123.51,95.06,117.08,91.7,114.19,91.08Z"/>
  <path class="lipFemaleBrown" d="M113.19,90.63c2.47.7,2.92-2,4.35-1.11,4.08,2.58,6.1,1.42,7.19,3.06a12,12,0,0,0,5.68,5,4.41,4.41,0,0,1-2.24-.65l-12.85-5.53A6.21,6.21,0,0,1,113.19,90.63Z"/>
  <g class="teeth">
    <path d="M85.84,86.1a8.32,8.32,0,0,1-1.72,0,3.3,3.3,0,0,1-3.7-.57c-2.19-.85-5.33-3-7.25-2.66C75.64,87.41,83.38,90.5,85.84,86.1Z"/>
    <path d="M115.32,91.36A3,3,0,0,0,116.9,91c3.11,2.16,6.54,1.79,7.67,3a13.07,13.07,0,0,0,3.6,2.85C123.44,96.81,117.39,96.46,115.32,91.36Z"/>
  </g>
  <g class="lipEdgeLine">
    <path d="M80.34,83.8a7,7,0,0,0,5.08,1"/>
    <path d="M74.2,89.18a7.29,7.29,0,0,0,10.74,1.47"/>
    <path d="M114,94.5c-.86,2.93,5.73,7.47,10.79,5.45"/>
    <path d="M116.9,91a4.16,4.16,0,0,1-.64-.61"/>
  </g>
  <g class="cheekLine">
    <path d="M91,80.13a4.82,4.82,0,0,1,.74,3.15"/>
    <path d="M79.33,74.09c-1.22.34-2.19,2-5.17,3.28-2.27,1-4.34,2.3-5,3.69"/>
    <path d="M117.15,84.41a14.7,14.7,0,0,0-3.37,3"/>
    <path d="M129.84,87c1.13,1.42.09,2.24,1.14,4.92.67,1.72,1.17,2.69.92,4.56"/>
  </g>
  <g class="noseLine">
    <path d="M90.52,73.36c-.38,3.14,2.68,5.14-.38,7.57"/>
    <path d="M79.33,74.09a3.22,3.22,0,0,0-.92,4.63"/>
    <path d="M79.74,78.49c2.11.49,2.61,2.09,5,2.71,2.79.73,3.56-.52,4.5-.58"/>
    <path d="M127.83,90.6c2,.2,2.82-2.14,2-3.62"/>
    <path d="M127.42,72.46c-4.75,7.64-13.49,10.77-9.2,14.69,3.07,2.8,6.26-.5,7.82,2.39"/>
  </g>
  <path class="eyeLidLine" d="M104.57,64.48c0,1.34-.58,2.39-1.64,1.92"/>
  <g class="eyeFoldLine">
    <path d="M101.31,69.29A6.73,6.73,0,0,1,94.11,68"/>
    <path d="M80,64.55c-2,1.33-6.68.39-8.29-1.95"/>
    <path d="M116.26,69.77a5.47,5.47,0,0,0,5.62,2.44"/>
    <path d="M135.45,78.61c1,1.53,4.35,3.21,6.59,2.53"/>
  </g>
  <g class="eyeCornerLine">
    <path d="M66.58,59.19c1.63.84,3.19.16,4.43-.07"/>
    <path d="M102.78,65.46c.17.14.4.39.57.56"/>
    <path d="M102.22,67.47a2.42,2.42,0,0,1,1.07.17"/>
    <path d="M116,67.13a2.63,2.63,0,0,1-1.07.1"/>
    <path d="M146.12,79.83A6.36,6.36,0,0,1,145,78.9"/>
  </g>
  <g class="eyeCreaseLine">
    <path d="M77.61,58.33c1.88,0,3.42-1,5.55,2"/>
    <path d="M125,68.25c-2-4.08-6.17-3.3-8-2.61"/>
    <path d="M145,77.38c-2.59-3.64-6-5.61-9.72-4.18"/>
  </g>
  <g class="eyebrowBlack">
    <path d="M86.62,53.32c-4,4.14-13-1.74-18.28.78C73.52,49.14,79.19,53.83,86.62,53.32Z"/>
    <path d="M97.18,55.67c1.38,4.37,6,4,10.28,7,.27-.63.51-1.23.71-1.8C105.35,58.27,101.41,58.55,97.18,55.67Z"/>
    <path d="M127.7,61.66c-3.11-.46-5.7-2.52-11.7-.75,0,.17-.09.34-.13.51A15.06,15.06,0,0,1,125,63C126.88,63.94,129.32,61.91,127.7,61.66Z"/>
    <path d="M150.42,75.59c-3.34-6.93-10.23-8-13.15-9.9-.74-.47-1,2.27,1.34,2.9C143.58,69.92,146.06,70.59,150.42,75.59Z"/>
  </g>
  <g class="hairBlack">
    <path d="M81.76,36.12C78.7,52.76,93.93,49.16,97.43,54c-.43-1.62-1-4.11-1.84-5.27,5.06,5.16,11.56,5,14.94,11,1.94-3.81,4.33-6.45,3.44-13.1,1.22,1,1.93,2,4,2.51-4-7.06-.44-15.73-9.3-27.84-11-15-37.17-17.2-43-15,.84-4.08,4.19-4.59,7.49-5.91C68.34-.38,62.87,2.93,61.93,6.86c-.74-2.57-7.33-3.29-9.09-.6,2.26-.79,5.55-1,6.23,1.33C40.56,16.39,37.19,42,38.6,47c4.31-6,10.68-2.55,9.75,3a12.81,12.81,0,0,0,5.46,2.8c.54-3.19.95-3.9,5.37-7.29,1.94.06,9.7,1.84,15-2.27a16.75,16.75,0,0,1-3.72,3.71C74.19,46.73,79.25,45.06,81.76,36.12Z"/>
    <path d="M152.18,73.16c.53,5.87-1.14,20.11-5.44,26-2.3,3.14,0,4.91,3.16,2.62-2.65,9.1-7.87,17.29-10.87,20.44-3.88,4.09,6.28,9.64,19.22,1.64-3.48,7.18,10.06,3.21,15.77-5.74-2,5.15,2.14,4.55,5.95.43,16-17.27,9.24-28.84,10.25-38.61,1.56-15.07-2.08-16.86-4.95-25.66-2.52-7.73-17-20.11-24.69-16.77-4.94-8.65-24.09-6.77-32.33.81-5.09,4.68-13,7.16-11.46,20.59a21,21,0,0,1,2.59-3.4c6,.51,11.15-.14,15.43-4.83-4.84,10,2.9,15.27,2.42,9,2.79,5.11,10.74,10.93,8.63,5.54C148.16,69.19,149.2,70.6,152.18,73.16Z"/>
  </g>
  <g class="hairOverlapLine">
    <path d="M59.18,45.5c-1.14-.09-3.09,0-4.33-.65a14.76,14.76,0,0,0,4.73-1.73"/>
    <path d="M119.38,55.51c-1.69-.59-1-2.48,1.38-3.11"/>
    <path d="M152.18,73.16c4.21,2.24,6.4,1.63,3.74-1.61"/>
  </g>
</svg>
