<svg viewBox="0 0 613.05 435.71">
  <g class="eye">
    <g class="sclera">
      <circle cx="78.63" cy="62.63" r="5.58"/>
      <circle cx="441.23" cy="63.95" r="17.91"/>
    </g>
    <g class="irisDarkBrown">
      <path d="M77.39,66.58c-.37.11-1.71-1.1-2.28-2.93S75,60.07,75.35,60A19.68,19.68,0,0,1,77.39,66.58Z"/>
      <ellipse cx="447.93" cy="63.18" rx="3.33" ry="3.17" transform="translate(281.85 483.95) rotate(-76.49)"/>
      <ellipse cx="427.5" cy="58.29" rx="3.33" ry="2.95" transform="translate(270.94 460.34) rotate(-76.49)"/>
    </g>
    <g class="pupil">
      <path d="M76,64.81c-.29.09-.62-.45-.84-1.16s-.25-1.33,0-1.42A10.42,10.42,0,0,1,76,64.81Z"/>
      <ellipse cx="447.72" cy="63.06" rx="1.29" ry="1.23" transform="translate(281.81 483.66) rotate(-76.49)"/>
      <ellipse cx="427.31" cy="58.17" rx="1.29" ry="1.15" transform="translate(270.92 460.07) rotate(-76.49)"/>
    </g>
  </g>
  <g class="liz">
    <path class="lizJeans" d="M473.26,222.38A260.86,260.86,0,0,1,460.5,312c1.84,10,.94,12.91,1.51,15.27,1.44,5.93.1,8.6,1.29,11.3,4.4,9.92,5.8,34,7.34,40.51.79,3.32,3.11,6.14,2.38,11.07l-16.26,9.25c-7.44-17.63-19.58-29.86-21.89-48.81-6.72,9.07-13.88,26.17-19.67,32.65-3.84,6.24-20.14-4.14-16.31-10.38,9.13-14.74,9.55-46.45,21.82-59.13-18.14-34.69-28-63.75-21.94-93.87C424.64,212.72,461.75,211,473.26,222.38Z"/>
    <g class="lizJeansCuff">
      <path d="M473.16,388.25c1.78,0,4.71,5,4,6.34l-18.29,10.93c-1.18,0-3.62-5.22-2.91-8C456.85,393.84,468.19,388.25,473.16,388.25Z"/>
      <path d="M417.93,380.1c1.31,1-4.11,7.85-5.43,6.81-7.16,5.11-23.57.46-17.34-10,0-1.89,4.14-8.66,5.58-7.24C400.41,375.93,411.92,384.81,417.93,380.1Z"/>
    </g>
    <g class="soleLightTan">
      <path d="M385.56,393.69c-.64,3.25-1.29,6.35-1,8.64.56,4.09,5.67,7,5.67,7,.42,3-2.06,11.21,2.45,15.36,4.67,4.3,18.33,3.43,20.82,1.13a4.41,4.41,0,0,0,1.06-3.31Z"/>
      <path d="M463.23,428a17.74,17.74,0,0,0,4.43,7.15c1.49.75,3.92-.08,7.86-1.41l-.55-1.71a27.82,27.82,0,0,0,7.56,1.06c8.35-.85,21.41-4.92,23.6-8.06a5.48,5.48,0,0,0,.12-3.55Z"/>
    </g>
    <g class="lizShoe">
      <path d="M396.45,381.52c1.67-2.62,7.62,9.29,16.05,5.39-1.27,3.51-2.37,6.48-2,10.4.79,7.75-.52,14.42,1.41,18.58a5.3,5.3,0,0,1,2.64,6.65c-2.08,3.41-21,3.76-23.55-3.63-1.6-4.56,1.06-9.23-1.62-13.49-1.79-2.84-4.37-9.55-3.85-11.73,2.36-9.94,5.7-10.05,9.6-16.81A6.47,6.47,0,0,0,396.45,381.52Z"/>
      <path d="M460.58,403.31c-.05-5.32,12-8.69,16.55-8.72,2.68,3.58,3.85,8.84,6,10.67,3.7,3.16,5.12,7.53,9.27,8.7,3.91,1.1,12.36-1.72,13.85,7.55-1,3.41-21.56,9.81-29.41,8.35-5.93-1.1-10.43.19-13.61-1.83-3.1-8.47-1-15.74-4.39-22.51A5.89,5.89,0,0,1,460.58,403.31Z"/>
    </g>
    <path class="lizShirt" d="M465.35,109.26c1.58,1.18,3-.27,5.82,2.23,2.93-1.32,6.05.55,10.38,3.05,2.7,1.55,5.81,2.56,9.41,5,3.56,3,.71,21.69-3.9,23.36-2.64.08-3.46-.53-4.28-.09,7.38,8.73,10.28,23.65-1.65,32.1.56,1.5.41,2.9-1.92,4.06-.36,2.88-1.78,4.21-3.06,6.57,1.64,5.06,0,6.17-.25,8.83-.94,9.87.83,7.84-1.46,12.3,0,7.44,2.07,13.37,1.11,20.46-1.67,2.92-10.6,9.18-15.8,8.66-.79-6.59-2.32-12.54-2.67-17.81-.88,6.79-3.2,11.8-4.74,18.47-4.48,2.1-24.94-.87-37.92-7-5.65-2.68-15.59-4.57-17.5-7.4,2.41-9.86,6.75-20.65,9-28.06.8-2.62-2.9-5.66,2.7-10.19-4-5.05,1.7-8.86.61-17.43-1.65-12.95-1.71-22.85-3.8-25-1.43-.16-3,.83-4.1.67-1-.93-6.33-18.05-6.76-23,7.06-3.62,13.66-4.21,19.27-5.56.7-2.18,6.07-3.48,8.38-1.92,3.92-6.13,6.32,0,9.19-2.93Z"/>
    <path class="lizShirtCollar" d="M463.09,119.11c2.74,1.09,3.67,6.46,4.78,11,1-9.87,1.89-19.71-4.78-26l-26.91.34c-3.11,1-6.1,4.12-8,10-1.42,4.39,4.88,11.35,5.88,17.8,2.67-5.23,3.49-11.36,6.25-11.84Z"/>
    <g class="skinIndian">
      <path d="M463.87,108.66a11.6,11.6,0,0,1-.78,10.45c-3.07,4-4.78,9.33-6.56,15.49-1-2.1-2.44-2.61-4.2-4.82-3.4-4.28-8.56-9.82-12-9.38-5.12-4.56-7.49-9.75-5.12-13.19,1.74-5.17,1.6-17-3.35-21.27C451.42,58.32,483.45,81,463.87,108.66Z"/>
      <path d="M577.09,133.46c-23.17,11.36-46,17.43-56.94,14.68-5.89-1.47-17.64-1.3-32.31-5.65,3.93-2.9,6-17.8,3.77-22.07,14,4.45,26.06,8.92,29.88,8,15-4.24,20.3,2.72,52.71-7,6.6-4.45,8.08-8.69,18.89-13.35,6.36-3.39,12.64-5.31,18.36-5,3.18.53.43,5.72-5,5.08-5.19,1.59-6.49,3.93-9.77,5.2,2.54.75,5.29.82,6.09,2.6,1.32,2.91,1.12,4.8-1.11,6.41,1.23,1.46.38,4.76-2.65,5.51,1.34,1.83.46,3.83-2.6,4.45-1.19.24-2.56.76-4.15.21C584.52,136.86,580.38,133.09,577.09,133.46Z"/>
      <path d="M298.92,163.46c4.49.48,8.43-1.56,12.23-4.76,17-.16,34.89-.95,51.3-5.57,5.92-1.67,14.95-5.5,38.32-12-1.64-3.41-5.53-16.9-6.14-21.56-11.32,3.39-26.09,11.8-32.34,12.26-16.07,1.16-29.67,14.08-50.72,14.08-3.68-5-7.26-9.11-15-9.49-2.78-.14-4.39-1.48-6.92,2.38C275,144.24,284.27,169,298.92,163.46Z"/>
      <path d="M468.1,90.08c-7.78,9.21-18.59,11.9-27.16,11.91-5.45,0-7.76.83-12.6-1.11-5.12-2.06-5.14-5.25-7.4-11.45-4.43-12.16-1.13-21.09,2.57-30,1.06-2.55.54-4.51,2.89-9.21C425.43,10.25,507.41,53.67,468.1,90.08ZM445.39,63.44c.86.21,2.16,1.8,4.29,2.2a17.12,17.12,0,0,0,6.34-.27c-1.63-1.46-3.56-4-6-4.25a8.1,8.1,0,0,0-5.14,1.5C444,63.25,445,63.34,445.39,63.44ZM434,59.58c-1.57-1.84-3.08-3.09-4.42-3.41-2-.46-3.29.33-4.71,1.85a5,5,0,0,0,3.4,2.23c2.19.32,3.59-.17,5,.11C433.63,60.44,435,60.76,434,59.58Z"/>
    </g>
  </g>
  <g class="bennett">
    <path class="bennettJeans" d="M145.39,238.93c.09,9.8-2.12,18.21-9.34,26.49-.29,2.93-2,4.85-5.4,6.22,0,4.7-3.94,3.44-7.15,9.44-3.86,7.23-13.79,20.21-23.86,33.11-3.87,5-2.37,9.43-8.53,8.73,2.52,2.55,2,4.75-1,6.66,0,15-5,31.73-11.51,48.71-1.66,4.35-.14,14-7.82,14,7.24,7.9-2.32,10.21-6.45,14.18-4.13-3.86-10.69-5.17-18.07-5.63-3.08-3-2.66-5.49,1.12-7.5-9-.35,3-18.93,4.62-29.69,2.54-17.21,4.53-33.07,8.64-46.22,4.34-13.88,12.67-29.48,21.9-46.79-4.79,2.29-16.68,11-24.87,16.25-10.22,6.58-9.36,10.13-14,8.94,6.87,11.9-.5,40.22,3.73,46.56,1.69,3.09,2.06,5.87.49,8.2,2.82,3.59-1.66,7.44-2.81,11.32-3.2-6-15.59-3.72-21-.05-1.48-1.65-4-2.55-2.66-5.94-6.48-2.93-3.43-10.79-4-14.1-2.61-16.41-9.11-43.31-6.69-51.33,5.37-17.71,29.91-41.32,50-60.45,1.15-2,2.34-4.91,5.34-4.69-.62-3.08,4.39-4.08,5.65-6.76,1.71-3.66,5.46-8.08,8.66-11.84Z"/>
    <g class="soleWhiteDark">
      <path d="M49.2,385.5c-1.66,5-12.82,4.83-18.67,11.63-8,9.26-24.61,13.27-28.64,4C-5.27,385.13,54,367.29,49.2,385.5Z"/>
      <path d="M20.25,427.9c.75,2.43,12.31,5.12,22.16,4.87,6.42-.12,19,2.65,19.8.48C64.81,424.57,24.87,419.89,20.25,427.9Z"/>
    </g>
    <g class="soleWhite">
      <path d="M49.57,378.63a9.73,9.73,0,0,1-.37,6.87c0-6.4-14.31-6.75-23.21.23-9.66,6.76-24.28,8.19-24.1,15.42-5.13-9.14,2.89-12.72,8.6-17.06C32.14,368.58,46.61,367.53,49.57,378.63Z"/>
      <path d="M64.16,428.52c-.35,2-.67,3.44-1.95,4.73-.86-3-9.93-6.8-22.54-5.65-7.59.69-16.73-1.42-19.42.3-2.29-10,7.24-9.87,13.29-13.34C52.19,412.52,61.67,417.75,64.16,428.52Z"/>
    </g>
    <g class="bennettShoe">
      <path d="M45.07,361.88c-1.73-6.28-20.33-4.6-21-.05-1.9,8.06-7.25,16.53-13.59,22.26a5.94,5.94,0,0,0,0,4.35c3.36-2.11,7.07-2.39,11.47-5.74,8.73-6.64,21.73-9.56,27.57-4.07C49.55,372.11,46.3,368.53,45.07,361.88Z"/>
      <path d="M46.27,400.81c-8.81,15-14.45,10.68-17.22,21.46,11.22,1.91,27.52-4.18,35.11,6.25,3-12.25-.07-15.41.18-22.08C64.29,403.14,51.41,399.55,46.27,400.81Z"/>
    </g>
    <path class="converseLogo" d="M45.11,419.24c5.37.62,9.13-10.64,3.7-10.88C43.87,408.13,39.92,418.64,45.11,419.24Z"/>
    <path class="bennettSleeves" d="M78.42,141.91c-15.13-14.13-51.45-8.66-69.5-23-3-2.39,3.51-22.22,5.41-23.77,5.39-4.41,20.19-1.56,22.41,2.26-1.07,3.23,1.46,5.06-1.68,7.21,3.64,2.88,9.46-1.32,12.7,2.79,3-3.33,7.26,1.13,12.43.87,2.17-2,4.59.8,6.21.33,3-2.78,4.66.53,14.43-2.52,2.61-.82,5.21-3.21,10.35-1.5,3.69-3.43,3.8,3.3,9-4l30.64-3.31c3.38-.89,5,3.74,7.44,4.82,2.83,1.23,5.18-.63,8,3.19,2.88.05,6.54-2.09,8.63,2.53,3-2.21,2.72.39,4.13.67s3.19-1.79,4.62,1.72c4-.47,7.12.83,9.07,4.71,2.57-.22,6.28-3.67,7.75,1.84,2.59-.29,4.7-.48,5.72,2.8,5.5,5.16,6.42.63,9.55,2.29,3.31,1.77,4.71,6.6,8.76,6.35,3.06-.18,4.83-1.08,6,1.48,2.56.73,5.88-1.35,7.89,2.06a39.81,39.81,0,0,1,9.13,2.62c4.5,1.84-3.76,27.19-7.52,24.47-5.59-4.05-7.06-.66-7.68-4.8-1.14-2.44-5.08,6.21-6.19-3.48-1.87,3.35-4,1.43-5.38.13-1.94-1.82-8.39-.2-11.28-4.1-4.39,2.16-8.84-3.42-14.83-4.33-3,2.1-4-1.57-6-1.06a5.57,5.57,0,0,1-5.36,2.7c.35,3.76-4.68,6.08-5.42,13.63Z"/>
    <path class="shirtWhite" d="M159,153.7c-1.27,6.59-2.37,11.57-2.49,15.5-.28,8.51,1,11.14-3,16.94-4.3,11.54.92,12.29-4,16.92-1.35,5.34,1.3,8.44-2.08,11,.07,2,1.83,4-.38,6.93-1.16,2,3.74,5.27-.54,11.42.68,2.33.82,4.14.38,5.38-19.4,7.15-45.18-6-54.22-13-5.65-4.38-14.18-8.21-21.51-7.45,2.45-2.83,1.78-3.85,4.08-4.78-2.45-3.17,2.09-3.09,2-5.32-2.56-2,1.91-2.9,2.55-6.75-4.66-6.91,2.17-6.67.62-18.35-2.61-3.35.14-4.37.13-6.59,0-2.85-1.16-6,.74-8.42-4.94-4.78,1.93-7.8-2.82-25.15,12.78-4.59,24.06-20.64,35.93-33.46a116,116,0,0,0,20.39-2.26c3.76,5.55,6.13,3.33,7.47,7.15s5,3.2,5.94,7C148.82,123.31,162.1,137.66,159,153.7Z"/>
    <g class="skinEastAsian">
      <path d="M135.7,62.09a41.87,41.87,0,0,0-4.88,35.14c7.14,5.9-19.74,6.2-30.64,3.31,0-9.17-7.18-19.84-17.63-29.18"/>
      <path d="M294.4,141.33a8.84,8.84,0,0,0,5.59,0c1.13-.07,1.81,2.34.38,3.09,3,.68,2.63,4.44,1.73,6,1.81.83,1.28,5.05-.3,5.73.39,1.5-.08,4.59-2.41,5a4,4,0,0,1-4.06,4.37c-2.92-.09-7.53,1.43-13.62.62-8.72-1.15-9.93-4.94-12.18-5.58-19.36-2-38.13,1.9-49.1-2.8-3.24-1.08,4.16-23.29,7.41-22.21,12,4,21.33,7.78,42.26,10.06,4.75.18,8.12-8.22,14.89-8.32,2.82,0,3.58,1.15,4.68,1.43a10,10,0,0,1-2.1,2.53C286.14,143,291,144.86,294.4,141.33Z"/>
      <path d="M72.68,50.28c-3.77-1.89-6.68-1.62-9.4-2.57-3-1.06-6.12-2.41-9.68-2.53-2.25-.08-4.32-2.46-8,.73-6.79,5-14.41,10-17.43,16.39-5.36,9.62-7.31,21.07-12.5,32,5.7-2.88,17.08-.8,20.41,2.32.7-8.26-.23-20.1,4.59-32.82,9.51,5.36,14.71-1.65,19-2,5.33-.11,7.58-1.34,7.73-3.35-.28-2.84-3.56-3.16-7.77-2.83a7.28,7.28,0,0,1,3.65-1.34,41.93,41.93,0,0,1,10.61,2.27Z"/>
      <path d="M112,83.52c-1.78,3.94-4.62,7.49-8.57,11.23-4.46,4.22-10.48,8-13.21,8-7.14,0-2.82-7.91-10.24-8.4-1.27-5.23,2.88-4.09,6.06-7.29a14.78,14.78,0,0,0-1.75-1.7s-3.55.64-4.93,2.12c-.44.48-2.25-.52-2.83-1.32.44-2.51-.27-4-1.36-4.43-1.38-.18-6.08,2.48-6-3.26,0-4.35,5.3-12.28,2.77-16.15-5.15-7.91-1.84-19.2-3.56-29.6,22.74-35,87.55,10.79,53.49,34.3-1.73,3.06-4.24,6.82-7.65,4.13M75.35,64.44c1.2-.72,2.92-.79,4.68-1.37a12.31,12.31,0,0,0-5.12-1.18A4.89,4.89,0,0,0,75.35,64.44Z"/>
    </g>
  </g>
  <g class="clothesDisplayLine">
    <path d="M436.92,236.11c-4.49,3.09-10.4,3.72-17.49,2.82"/>
    <path d="M465.79,234.44c2.17,2.81,4.93,5.24,7.43,5.75"/>
    <path d="M452.34,236.47c.35,8.38,0,16-2.08,19.91,9.36-.83,9.81-10.94,10.09-20.53"/>
    <path d="M457.91,394.85c-.25,1.14,1.8,7,2.76,7.61"/>
    <path d="M456.31,396.63c-.16,1.86,1.93,7.23,3,8.08"/>
    <path d="M401.26,372.5c-1.46.91-4.81,6-5.39,8.21"/>
    <path d="M400.76,370.48c-1.73,1-4.89,6.12-5.48,8.37"/>
    <path d="M29.05,422.27a22,22,0,0,0-8.81.53"/>
    <path d="M10.53,388.44c-3.62,1.83-8,3.34-10.07,5.58"/>
    <path d="M121.94,239.44c-2.28,9.55-6.24,17-13.89,22.49"/>
  </g>
  <g class="clothesOverlapLine">
    <path d="M450.26,256.38c2.95,1.36.7,2.17,1.22,3.91,0,0,7.5,37.11,9,51.7"/>
    <path d="M420.71,313.72c2.23,3.92,6.64,9.7,7.55,11.8,1,2.38.3,6.13,3,6.13-1.21,4.54,3.58,6.9,3.51,13-2.13,1.89.12,2.75.07,5.92"/>
    <path d="M396.45,381.52c-3.36,2-3.94,6.34-6,9.28"/>
    <path d="M411.94,415.89a17.76,17.76,0,0,0-9-1.24"/>
    <path d="M460.58,403.31c-.27,1.84,2.58,6.6,4.18,11.26"/>
    <path d="M456.53,134.58c.49,2.81.21,5.43,2.13,9.56,3.71,8,1.14,12.63,2.13,18,1.58,8.42-1.5,13.14-1,20.08.45,6.29-2.42,10.46-1.68,16.83.79,6.73-.22,13.13-1,19"/>
    <path d="M475.17,134.11c2.6.39,5.43,2.41,4.72,5.6a33,33,0,0,1,2.89,3.12"/>
    <path d="M81.38,258.08c7.05,9.58,18.22,6.82,21.93,8.94,4.51,2.57,7.27,3.43,10.49,2.45"/>
    <path d="M82.55,270.61a42.14,42.14,0,0,1,11.82-5.48"/>
  </g>
  <g class="clothesFoldLine">
    <path d="M468.79,384.24c-4.08,3.3-9.5,1.29-15.7-3.82"/>
    <path d="M434.8,344.66c1.8-1.78,4.89-2.64,8.28-3.29"/>
    <path d="M437.28,345.48c2.76-1.73,6.48-2.53,10.61-2.9"/>
    <path d="M457.52,330.9c-6,0-11.52.93-16.42,3.54"/>
    <path d="M456.24,332.81c-5.94-.17-13,2-17.26,5.17"/>
    <path d="M431.29,331.65a9.43,9.43,0,0,1,4.65-2"/>
    <path d="M461.61,259.65c-13.67-.29-.88-4.3,6.84-5"/>
    <path d="M445.6,251.35c-11.08-3.81-24-4.54-37.9-3.42"/>
    <path d="M431,251.54a66.23,66.23,0,0,0-25.68.59"/>
    <path d="M424.6,255.84A44.12,44.12,0,0,0,408,260.63"/>
    <path d="M448.43,259.65c-12.64-2.52-24.57-2.06-35.45,2.83"/>
    <path d="M450.73,257.8c-5.73-2.67-15.15-2.14-14.76-4,.59-2.76,9.38,1,13.29,1.28"/>
    <path d="M471.17,111.49c2.85,2.49,1.3,10,3.58,2.85"/>
    <path d="M465.45,136c-1.73.27-8.84.24-8.72,0"/>
    <path d="M451.77,135c-3.1-.55-6.47-.42-8.94-1.1"/>
    <path d="M453.14,136.93c-2.92-.27-5.66.41-7.75.09"/>
    <path d="M457.74,150c-1.95-.47-4.43-.87-7.07-1.23"/>
    <path d="M466.54,148.69a46.48,46.48,0,0,1-6.07,1.14"/>
    <path d="M469.26,151.75c-2.84,0-5.93-.24-8.59-.24"/>
    <path d="M465,153.58c-1.48-.1-2.92-.34-4.26-.34"/>
    <path d="M457.2,151.61c-1.63-.1-7.07.44-10.33.39"/>
    <path d="M458.83,152.89a78.66,78.66,0,0,1-8.65,1.19"/>
    <path d="M458.31,168.46c-4-.1-8,.08-10.68-.49"/>
    <path d="M458.35,169.8a65.47,65.47,0,0,1-7.56,1.33"/>
    <path d="M468.17,167.72a35.53,35.53,0,0,1-6.95.25"/>
    <path d="M469.26,170.94c-2.4-.38-5.34-.25-8.22-.7"/>
    <path d="M455.92,186.25c-2.63-.44-5.87-1.64-7.9-1.65"/>
    <path d="M465.35,186c-2,0-3.89.07-5.7.22"/>
    <path d="M464.7,188.55a49.36,49.36,0,0,0-5.44,0"/>
    <path d="M464.25,204.34q-3.09-.09-5.94,0"/>
    <path d="M422.23,111.57c1.73,2.26,3,2.7,3.4.12"/>
    <path d="M413.85,113.49c3.46-1,4.48,1.49,5.54.28"/>
    <path d="M411.77,131.37a24.22,24.22,0,0,0,6.55,2.82"/>
    <path d="M405.69,133c5.92,1.49,11.94,6.82,20.36,7.19"/>
    <path d="M409.58,139.78c7.59,1.43,12.47,6.57,8,4.17"/>
    <path d="M405.44,141.38a16.5,16.5,0,0,1,3.71,1"/>
    <path d="M421.86,171.11a17.49,17.49,0,0,1-7.62,1.92"/>
    <path d="M426.76,170c-2.4,2.73-5,4.83-8.21,5.34"/>
    <path d="M408.63,183.78c2.7,3.67,9.85,7.88,1.53,6.18"/>
    <path d="M410.91,194.54c2.34.43,5.33,1.46,8.26,1.49"/>
    <path d="M481.13,174.93a6.07,6.07,0,0,1-5.34.06"/>
    <path d="M479.21,179a5.52,5.52,0,0,1-4.79-1.26"/>
    <path d="M476.15,185.56a5.78,5.78,0,0,0-1.06,2.2"/>
    <path d="M482.15,128.3c-.72,2.58-2.87,4.57-3.72,7.24"/>
    <path d="M482.15,132.54c-.89,1.27-1.11,4.11-2.26,7.17a4.57,4.57,0,0,0-2.05-1.3"/>
    <path d="M66.12,225.32a10.83,10.83,0,0,0,3.15,4.57"/>
    <path d="M130.65,271.64a9.54,9.54,0,0,1-5.09-.06"/>
    <path d="M99.88,273.1c-3.08-6.57-8.51-3.79-10.7,6.17"/>
    <path d="M84.19,285.69c-2.24,13.61-.51,24.46,6.7,30.41"/>
    <path d="M91.11,322.92c-4-.93-14.92-9.36-19.24-6-1.83,1.45,4.09,2.33,7.72,1.66"/>
    <path d="M79.28,325.43c-2.4-2.39-7.3-3.13-13-2.81"/>
    <path d="M90.12,329.58a5.81,5.81,0,0,1-4.3-.41"/>
    <path d="M38.45,279.89c2.13,4.35,5.16,8,8.51,9.17"/>
    <path d="M43.66,295.8c-13.67-7.25-23.94-3.07-25.06-5-1.29-2.23,4.24-2.14,9.41-1.06"/>
    <path d="M39.15,296.77c-6.28-1.76-13-1.69-17.58,1.83"/>
    <path d="M45.3,294.76c-5.39-7.15-13.16-8.21-19.2-12.33-4-2.76-4.52,2.41,4.44,3.14"/>
    <path d="M23.43,329.46c3.93,11.58,21.79,10,24.74,14.54"/>
    <path d="M47.88,350.56c-10.72-5.78-23.18-.67-21.94-2.91,1.53-2.75,8.4-.87,12.65-.94"/>
    <path d="M21.42,355.89c3.31-4.18,14.79-3.38,21.87-1.42"/>
    <path d="M73.12,382c-1.05,5.69-14.07-1.93-17.49-1.33"/>
    <path d="M47.39,393.31c6.32.2,13.91-.05,18.44,4.82"/>
    <path d="M70.79,392.26c-5.58-4-13.9-2.52-13.24-4.88,1.47-2,6.1-.28,9.52,2"/>
    <path d="M218.37,131.69c2.22,3.5-4.34,20.49-.5,18.75"/>
    <path d="M209.53,154.42c2.61-3.94,3.57-4.17,2.77-.44"/>
    <path d="M206.11,150.5c.53-2,1-2.81,1.54-1.76"/>
    <path d="M210.48,129.63c1,2.32-2.2,18.55,2,10.24"/>
    <path d="M200.12,129.36c1.92,13.63,3.86,26.85,6.15,5.76"/>
    <path d="M189.45,146.53c2.66-6.61,5.46-13.41,7.19-12.78s1.71,11.39,4.09,16.88"/>
    <path d="M186.19,119.51c.27,5.7,2.69,15.75,3.23,17.72.66,2.47,7.26-9.44,4.33-13.2"/>
    <path d="M180.47,116.71c.3,4.38-4,10,.28,7.06"/>
    <path d="M174.62,142.2c5.75-8.69,6.33-20.69,10.08-6.22"/>
    <path d="M172.72,114.87c.89,8.58-3.12,18.59-1.56,19.41,1.33.69,4.47-8.92,4.39-15.68"/>
    <path d="M168.59,141.14a4,4,0,0,0-1.31-4.28"/>
    <path d="M173,137.49c-.44,1.92-1.15,3.6-3.74,3.63"/>
    <path d="M163.65,110.16c-.44,8.38,1.41,17.9,2.57,17.87s.65-9.49,1-13.82"/>
    <path d="M160,114.45c-.55,10.25,4.74,30.3-.76,12.14"/>
    <path d="M154.9,107.77a26.92,26.92,0,0,1,1.69,11.6"/>
    <path d="M146.27,105.24c4.75,4.16,6.63,13.1,5.87,5.38"/>
    <path d="M146,108.5a47.1,47.1,0,0,1,4.91,10.28"/>
    <path d="M163.23,143.84c-1-5-2.68-9.9,1.1-4.84"/>
    <path d="M152.11,128.13A53.91,53.91,0,0,1,138.94,138"/>
    <path d="M150.92,135.33a60,60,0,0,1-14.68,7.54"/>
    <path d="M147.86,154.25c-9,6.74-26.71,5.69-36.08-2.39"/>
    <path d="M106.41,153.37c5.47,5,11.69,7.36,18.75,8.84"/>
    <path d="M153,160.57a40.53,40.53,0,0,1-7.85,6.7"/>
    <path d="M157.57,160.42a26.37,26.37,0,0,1-8.3,8.65"/>
    <path d="M153.52,186.14c-10.81,14.81-23,17.13-21.84,18.45s4.72.38,8.66-.9"/>
    <path d="M149.52,181.14c-7,12.51-16.43,21.15-30.09,24.16"/>
    <path d="M149.5,203.06c-11.81,5.7-23.78,8.27-36,5.71"/>
    <path d="M147.42,214c-11.45,6.08-37.67,4.8-50.47-1.63"/>
    <path d="M147,221a7.89,7.89,0,0,1-5.31,3.05"/>
    <path d="M146.34,227.22c-17.35,4.46-40.43-10-41.58-7.53-.73,1.6,5.42,3.55,12.88,5.72"/>
    <path d="M75.23,212.49c10.65,1.72,29.47,14.57,49.85,18.4"/>
    <path d="M146.5,232.37a33.3,33.3,0,0,1-22.57,1"/>
    <path d="M77.2,207.17c5.77,1.8,16.43,6.66,7,6.05"/>
    <path d="M79.75,200.42a52.44,52.44,0,0,0,20.07,5.94"/>
    <path d="M133.13,177.29c-6,6.54-43,19.06-50.3,16.23"/>
    <path d="M124.47,187.54c-12.71,8.5-31.39,9.63-32,11.18-.26,1.24,3.16,2.45,6.84,2.54"/>
    <path d="M80.37,182.07c5.84,3.53,12.68,1.28,19.79-2.57"/>
    <path d="M81.24,167.06c6,8,20.52,13.89,2.28,13.4"/>
    <path d="M83.42,164.81a18.34,18.34,0,0,0,7.69,6.81"/>
    <path d="M93.73,159.82a47.58,47.58,0,0,0,15,9.07"/>
    <path d="M102.45,111.05c-3.58,8-7.59,15.29-12.83,20.16"/>
    <path d="M93.59,112.06c-2.29,11.32-14.8,23.82-14.13,24.3,1.84,1.31,9.93-8,15.66-18.12"/>
    <path d="M91.18,104.56c-2.19,3.14-3.5,14.38-5.13,14.5-.75,0-1.16-1,.46-4.62"/>
    <path d="M84.61,106.62c-1,8.8-6.7,16.34-14.26,23.39"/>
    <path d="M66.4,108.58c-5.62,4.15-11.39,13.8-17.88,16.93"/>
    <path d="M54.19,114.69c2.39-2.13,3.69-4.94,6-6.44"/>
    <path d="M47.76,107.38c-2.57,5.93-7.22,11.07-14.38,15.26"/>
    <path d="M20,116.94c6.54-4.08,11.84-8.18,15.06-12.35-19.14-5.82-35.24,20.59-11.58,3.13"/>
    <path d="M27.57,107.59c-3.66,3.47-7.64,6.43-12.52,8"/>
    <path d="M13.83,103.54c2.94-.07,3.17.86-.1,3.07"/>
    <path d="M34.72,101c-11.26-3.31-17-.16-18.14-1-1.47-1.12,1.09-2,6.67-2.47"/>
    <path d="M82.07,124c5.87-4.14,1.45,2.07-4.63,10"/>
  </g>
  <g class="skinOverlapLine">
    <path d="M601.68,122.44a8.81,8.81,0,0,1-3.7,1.75"/>
    <path d="M599,128c-4.48,2.67-6.71,1.46-8.67,1.77-2.84.45-2.69-3.44.29-4.84"/>
    <path d="M592.28,132.61c-3-.49-3.74-1.72-3.19-3"/>
    <path d="M579.65,129.79c6.53.94,7.68-2.4,10.26-5.31"/>
    <path d="M588.2,118c2.7,1.13,4.32,1.2,5.5,2.07,2,1.44,2.52,3.32,4.28,4.14,2.58,2.14-3.07,6.4-7.33.69-1.82-1.13-2.7-.88-4.52-.88"/>
    <path d="M598,118a7.9,7.9,0,0,0-3.41,2.79"/>
    <path d="M55.52,56.78a10.59,10.59,0,0,0,4.07-1.24"/>
    <path d="M293.44,143.25c1.69,1,3.94.8,6.93,1.14"/>
    <path d="M302.1,150.41c-2.43.42-5.63,0-8.55.13"/>
    <path d="M301.8,156.14c-3,.77-6.71.42-9.8.42"/>
    <path d="M299.39,161.18c-2.68.68-5.26.44-8.51.44"/>
  </g>
  <g class="skinFoldLine">
    <path d="M294.4,141.33a3.5,3.5,0,0,0,.85-1.34"/>
    <path d="M593.16,115.53c-1.44,1.14-1.19,2.39-1.94,3.49"/>
    <path d="M594.92,116.86a2.64,2.64,0,0,0,.19,3.2"/>
    <path d="M114.17,57c1.64-9.87,14-5.15,8,5.73"/>
    <path d="M114.61,59.82c3.45,1.57-.82,5.23,1.52,5.77,1.34.3.57-2.4,2.63-4,2.7-2.11,1.56-6.65-2.05-4.67"/>
  </g>
  <g class="skinCreaseLine">
    <path d="M520.56,130.62c1.64,3.67,2.46,7,2,9.8"/>
    <path d="M362.17,136.42c-.62,2.36.18,7.69.8,9.8"/>
  </g>
  <g class="lipMaleMedium__noStroke">
    <path d="M86.05,87c-3.18,3.2-7.33,2.06-6.06,7.29C83.52,94.31,85.42,91.69,86.05,87Z"/>
    <path d="M79.37,87.44c1.38-1.48,4.93-2.12,4.93-2.12-2.94,0-5.8.8-7.76.8C77.12,86.92,78.93,87.92,79.37,87.44Z"/>
  </g>
  <path class="lipFemaleBrown__noStroke" d="M426.78,81.81c-.28,3.87-1.15,8.27,4.37,10,6.66,2,8.18-3.12,11.07-5.19C438,85.13,430.94,80.76,426.78,81.81Z"/>
  <path class="lipFemaleBrown" d="M427.38,81.66a3,3,0,0,1-1.84.08c2.74-.33,2.83-3,4.43-2.37,4.43,1.79,6.43.85,7.37,2,1.15,1.35,2.81,4.75,6.11,5.35a3.71,3.71,0,0,1-2-.42Z"/>
  <path class="mouthInner" d="M427.38,81.66c.94-.29,1.56-1.34,3-.74,3.35,1.61,5.26.83,6.41,1.74a30.77,30.77,0,0,0,4.61,3.61c-4.74,2.49-10.41,2.49-12.7-.63C427.47,84,427.87,83.36,427.38,81.66Z"/>
  <path class="tongue" d="M430.39,84.32a9.63,9.63,0,0,0-1.61,1.41c2.33,3,7.93,3,12.63.54a14.91,14.91,0,0,1-1.35-.87C436.94,86.3,432.62,85.4,430.39,84.32Z"/>
  <g class="teeth">
    <path d="M84.3,85.32a16,16,0,0,0-3.21,1,14.18,14.18,0,0,0,1,3.2,13.14,13.14,0,0,0,4-2.49A14.78,14.78,0,0,0,84.3,85.32Z"/>
    <path d="M440.06,85.4c-1.31-.94-2.19-1.89-3.26-2.74s-3.06-.13-6.41-1.74a1.86,1.86,0,0,0-1.39-.09,3.32,3.32,0,0,0-.07,2.44C429.85,84.66,435.94,86.58,440.06,85.4Z"/>
  </g>
  <g class="lipEdgeLine">
    <path d="M84,92.6a5.24,5.24,0,0,1-4,1.71"/>
    <path d="M426.74,87.68c.84,3.68,6.64,5.95,10.58,3.61"/>
  </g>
  <g class="cheekLine">
    <path d="M87,88.55c-2.2-4.1-6.12-5.12-6.28-7.89"/>
    <path d="M429.31,75.89c-1.06.89-2.89,1.57-4,3.32"/>
    <path d="M440.89,74.23c2,1.82,1.13,3.76,2.54,6.56,1.26,2.52,1.74,3.36,1.74,5.53"/>
  </g>
  <g class="noseLine">
    <path d="M73.26,81.27c2.25-.69,4,.35,4.95-.11,1.75-.8,1.47-2.59-.13-3.9"/>
    <path d="M439.58,78.38c2.46-.12,2.4-2.87,1.31-4.15"/>
    <path d="M437.08,61.48c-3.14,7.34-11,11.18-7.46,14.76,2.6,2.63,6.64-1.23,8.64,1.71"/>
  </g>
  <g class="eyeLidLine">
    <path d="M74.91,61.89c-1.68.11-1-3-1-3"/>
    <path d="M75.35,64.44c-1,.75-.33,2.49.48,3"/>
  </g>
  <g class="eyeFoldLine">
    <path d="M425.7,60.61c.9,1.51,3.93,2.31,5.88,1.34"/>
    <path d="M445.68,65.88c1.56,1.78,4.32,2.7,7.74,1.78"/>
  </g>
  <g class="eyeCornerLine">
    <path d="M80,63.07a7.59,7.59,0,0,0,3.74-.42"/>
    <path d="M457.3,66.42a4.53,4.53,0,0,1-1.28-1"/>
  </g>
  <g class="eyeCreaseLine">
    <path d="M434.27,57.66c-2.38-4.06-6.16-3.48-8.07-2.07"/>
    <path d="M456.62,63.31c-2.54-3.42-6.82-5.65-10.31-3.2"/>
  </g>
  <g class="eyebrowBlack">
    <path d="M71.59,56.29c3.59,3.45,7.9-.16,12.57.74C80.07,53.14,76,56.71,71.59,56.29Z"/>
    <path d="M435.21,49.77c-2-.92-5.41-.74-8.81.23v.25c-.15.31-.3.61-.43.9a17.78,17.78,0,0,1,6.44.39C433.67,51.83,436.29,50.26,435.21,49.77Z"/>
    <path d="M460.78,60.26c-3.63-5.35-12.6-8.37-14.78-7.77-1.14.32,1.32,2.52,2.61,2.53C453.14,55.06,456.9,56.78,460.78,60.26Z"/>
  </g>
  <g class="hairBlack">
    <path d="M64.89,33.73A17.79,17.79,0,0,1,61,37.32c3.12-5.75.9-15.83,21.27-25.6C89.12,8.42,104.9,4.34,115.46,7c-.8-2.68-3.42-5.29-8.16-6.7a11.39,11.39,0,0,1,11.51,7.27A7.48,7.48,0,0,1,129.3,4.33c-4.25-1-7.4,1.22-7.94,4.28,19.69,5.73,35.26,36,12.38,61.33a15.56,15.56,0,0,1-11.88-3c3.51-4.81,6.29-9.79,2.71-15.59-2.63-4.27-12.26-3.49-11.81,4.18a33.35,33.35,0,0,1-9.05,2c-1.14-5.16-1.9-6-6.85-8.94-6.5-.2-15.41,4.07-19.94-.61a58.61,58.61,0,0,1,3.79,4.8C72.81,47.8,61.29,49.81,64.89,33.73Z"/>
    <path d="M464.85,59.58c2.21,5.84-.37,24.25-4.16,30.28-2.08,3.29-.21,4.94,2.61,2.24-3.5,11.39-5.92,16.28-8.45,19.82-3.28,4.58,8.4,8.45,19.15-.59-2.45,5.39,6.49,2.28,15.08-4.47-2.42,4.73,4.14,3.75,7.71-.56,16.9-20.4,7.75-29.64,5.91-47.09-1.69-16.06-7.29-18-12.83-24.2-7.77-8.68-15.87-13.85-24.49-9.74-3.62-6.6-20.09-5.84-27.69,1-6.06,5.45-14.61,10.8-11.29,24A16.26,16.26,0,0,1,428.66,47c5.55-.59,8.76-1.27,11.81-7.4-2,9.46,5.85,13.35,3.6,7.71,5.56,5.76,16.09,11.81,13,5.18C459.4,55.41,461.21,57.62,464.85,59.58Z"/>
  </g>
  <g class="hairOverlapLine">
    <path d="M96.86,48.66a13.14,13.14,0,0,1,4.73.57,8.66,8.66,0,0,0-4.87-2.62"/>
    <path d="M428.66,47c-2.2-.29-2.05-1.67-.05-2.91"/>
    <path d="M464.85,59.58c3.94,1.34,4.41.51,2.81-1.58"/>
  </g>
</svg>
