<svg viewBox="0 0 1983.15 3020.54">
    <g class="eye">
        <g class="sclera">
            <circle cx="1020.03" cy="418.81" r="112.07"/>
            <circle cx="1557.66" cy="530.34" r="87.52"/>
        </g>
        <g class="irisDarkBrown">
            <ellipse cx="989.44" cy="405.24" rx="21.57" ry="20.92" transform="translate(360.9 1270.2) rotate(-76.27)"/>
            <ellipse cx="1107.87" cy="435.92" rx="21.57" ry="20.92" transform="translate(421.42 1408.63) rotate(-76.27)"/>
            <ellipse cx="1599.96" cy="529.16" rx="21.6" ry="14.81" transform="translate(811.61 2018.59) rotate(-80.41)"/>
            <ellipse cx="1487.85" cy="508.75" rx="21.6" ry="12.03" transform="translate(738.3 1891.03) rotate(-80.41)"/>
        </g>
        <g class="pupil">
            <ellipse cx="991.14" cy="406.69" rx="8.39" ry="8.14" transform="translate(360.8 1272.96) rotate(-76.27)"/>
            <ellipse cx="1109.57" cy="437.36" rx="8.39" ry="8.14" transform="translate(421.32 1411.39) rotate(-76.27)"/>
            <ellipse cx="1596.68" cy="528.6" rx="8.4" ry="5.76" transform="translate(809.42 2014.88) rotate(-80.41)"/>
            <ellipse cx="1484.23" cy="508.14" rx="8.4" ry="4.68" transform="translate(735.88 1886.96) rotate(-80.41)"/>
        </g>
    </g>
    <g class="bennett">
        <g class="bag">
            <path class="bagDark" d="M474,1453.29c-26,3.94-44.76,21.17-47.83,46.34-7.9,64.8-18,188.41-21.48,260.21-1.53,31.31-1.7,51,22.26,59.07Z"/>
            <path class="bagLight" d="M532.16,1874.29c-41.54-1.36-53.5-3.41-77.52-11.12-31.51-10.11-28.1-24.4-28.58-54.65-1.29-80.71,8.11-242.3,16.72-322.56,2.5-23.32,19.18-31.7,46.59-35.79,21.75-3.24,39-2.67,67,1.06Z"/>
            <path class="bagMedium" d="M556.34,1451.23c-24,1.42-74,12.09-76.42,42.3-6.66,83.72-8,249.71-1.08,335.94,3.87,48.45,39.56,52.91,155.8,36.66Z"/>
        </g>
        <g class="soleWhite">
            <path d="M727.66,2928.52c-3.55,12.1-4.7,33.49-.23,38.84,7.84,10.91,59.4,26.08,67.22,31.32,41.92,28.06,168.5,30.37,224.61-8.92,8.77-31.28-15-78-46.94-82.07C909.67,2857.23,784,2883.87,727.66,2928.52Z"/>
            <path d="M370.94,2239.94c-14.67,2-27.67,7.22-35.09,17.36-29,39.6-11.45,125-17.24,191.75-4.61,53.18-2.92,110.27,23.71,132.63,40.26,33.82,149.76,29.94,147.09-55.7Z"/>
        </g>
        <g class="bennettShoe">
            <path d="M747.14,2749.34c11.16,78.14-13.34,109.41-19.48,179.18,13.9,20.8,55.32,25.32,73.51,33.72,12.26,5.66,33.34,10.47,50,13.85,6.61-55,90-74.14,121.17-68.4-41.43-32.11-92-124-87.5-191.35C861,2669.8,790.76,2718.93,747.14,2749.34Z"/>
            <path d="M539.74,2288.43c-27.75,36-43.38,71.75-46.65,106.19-4.39,46.2-9.94,89.53-3.68,131.36-15.35-27.62-108-31.31-152.84-12.89-.5-56.19,4.39-102.49,3.07-141.79-1.85-54.63-3.07-110.49,31.3-131.36,16.72-9.41,38.34-17.75,61.38-25.78Z"/>
        </g>
        <g class="shoelace">
            <path d="M825.59,2795.47c2.82,30.67,17.81,66.71,33.14,94.89,20.28-8.92,55.67-15.63,80-10.36-17.59-25-38.61-58.9-46.8-91C876,2786.58,841.25,2789.33,825.59,2795.47Z"/>
            <path d="M489.75,2363.5a385.77,385.77,0,0,1-70.9-19.49c-13.19,34.86-17.61,71.47-18,112.51,17.6-1.29,47.74,3.16,64.22,8.78C469.67,2428.39,476.74,2397.43,489.75,2363.5Z"/>
        </g>
        <path class="converseLogo" d="M777.83,2911.29c29.84,3.88,28.21-71.19.39-74.66C757.5,2834.05,747.68,2907.37,777.83,2911.29Z"/>
        <path class="bennettJeans" d="M1002.45,1474.41c23.17,186.7,14.84,384.33-16.13,595.24-7.47,50.88,16.44,111-30.65,137.12,3.34,22.55,24.9,42.39-1.61,66.13-1.09,195.33-52,330.74-45.17,371-1.63,26.13,17.54,59.3-13.71,84.78,5.41,13.76,1.24,21.63-13,23.29-5.6-27.74-55.09-18.12-63.64,9.15-17.72,17.92-50.1,15-68.62,34.33,1-39.52-31.27-58.83,0-76.26-37.54-55.2-10.15-88.07-8.22-103.5,5.57-44.47,4.1-289.43,28.46-359.65-8.62-17.25-6.9-50.89,4.32-62.1-7.45-5.17-9.19-15.12-6.9-28.46-67.28,50-148.18,82.69-144.9,106.08-10.24,35.9-55,47.79-115.84,48.49,14.93-27.79-41.13-46.76-69.78-26.22-23.38-9.37-21.38-47.28-36.15-68,21.67-16.4,39.33-51.33,69.26-21.57C443.78,2131,539,2133.58,636.44,2036.12c-12.08-8.62-.86-31.91,18.11-32.77-9.49-4.31-5.18-17.25,4.31-15.53-43.12-84.52-126.39-165.22-148.35-301-13.89-85.93-1.12-167.28,26.74-245Z"/>
        <g class="bennettJacket">
            <path d="M524.14,724.93c8.26-10.81,11.29-42.58,38.8-46.2,11.85-37.76,69.45-55.21,101.74-38.63,15.71,8.07,25.31-14,45.16-2.94L961.63,674.4C1019.39,714,1101.9,755.85,1097,806.23c14.78,48,12.48,103.3,25.87,190.32,12.94,84.08,40.65,172.77,38.8,221.74-2.57,68.36-81.15,168.15-144.89,198.63a27.68,27.68,0,0,1-.16,12.94c-56.92-1.72-287.31,12.25-481.35-23.1C547.74,1299,539.88,1182,554.62,1137c-20.85-44.82,3.6-46.21.1-73.62-4.19-32.81-34.91-44.51-2.87-107.46-.42-16.56,2.29-32.83,6.47-49"/>
            <path d="M622.2,856.57c-19.09,47.63-62.07,101-69.7,114.43-35.69,62.61-36.39,114.2-75,112.31,15.25,33.08-16.77,70.82-101.82,193.07-27.45,39.45-59.66,96.84-104.68,143.71-25,3.26-111.82-68-114.14-89.24,62.53-67.18,106.85-198.24,194.19-312.74,14.65-15-1.95-41.09,37.08-54.89,40.15-77.1,77.9-153,136-238.29"/>
        </g>
        <g class="zipperDisplayLine">
            <path d="M867.91,737.48c2.3,50.31,1.31,93.14-3.52,127.26"/>
            <path d="M869.75,981.83c10.7,58.31-12.85,93.89-8.4,144.27,6.37,72.16,18,132.65-5.31,234.53"/>
        </g>
        <g class="bennettHoodie">
            <path d="M867.91,737.48c38.74-5.67,79-41.8,112.59-53,.17-9.71-2.09-18.44-14.13-23.21,9-24.66,1.08-38.48-23.22-41.8l-209-33.44c-23.52-2.7-54.8,26-69.48,54,15.61,7.28,36.1-1.56,47.62,13.9C748.36,702.37,830.14,725,867.91,737.48Z"/>
            <path d="M161.49,1341c-14.5,16.18-26.08,21-28.19,27.48-5.19,15.93,69.86,71.12,84.53,63,5.64-3.13,4.82-9.89,16.39-26.19C206.44,1387.79,173.46,1358.92,161.49,1341Z"/>
            <path d="M1007.73,1429.72h0c-69-.4-287.32,10.78-472.51-23-.3,21.43-14.88,56.29-10.18,63.65,73.26,1.1,228,32.09,484.67,21.43C1015.05,1485.59,1004.71,1448,1007.73,1429.72Z"/>
        </g>
        <path class="bennettHoodieInner" d="M771.21,664.1c-18.86-16.61-48.25-59.41-39.86-66.49,46.92-83.82,225-12.69,222.5,61.81Z"/>
        <path class="bagStrapLight" d="M1042.49,727.19c-58,122.53-358.9,492.44-548.32,743.22-10-4.39-28.69-9.08-36.21-10.37,205-295.77,455.78-662.75,522.54-775.51C997.13,686.84,1034.24,716,1042.49,727.19Z"/>
        <g class="hoodieLace">
            <path d="M815.54,903.21l2.65,38.66c.18,2.11,9,1.33,8.78-.78l-2.66-38.84Z"/>
            <path d="M821.14,724c-6.91,74-15.49,102.9-7.82,177.85.41,4.24,12.72,2.48,12.76-1.36-7.68-67.44,2-111.75,8-176.77Z"/>
            <circle cx="827.93" cy="718.29" r="11.28"/>
            <path d="M899.78,891.44l-5.39,38.38c-.25,2.09,8.51,3.14,8.76,1l5.4-38.55Z"/>
            <path d="M897.47,729.66c-4.61,67.27,13,82.48,1.12,159.92-1.05,4.2,11.11,6.18,12.16,2,13-78-8-96.89-2-161.36Z"/>
            <circle cx="902.84" cy="723.61" r="11.28"/>
        </g>
        <g class="skinEastAsian">
            <path d="M964.1,604.43c-6.24,22-9.61,38.94-10.25,55-10.51,53.21-82.78,44.67-85.94,78.06,1.19-28.13-85.27-35.23-129.62-114.84,14.78-28.9,29.32-111,23.51-199"/>
            <path d="M133.18,1369c-24.15,6.45-52.68,3.55-63,12-16.84,13.69-30.78,32.06-35,49.29-8.25,17.18-28.86,32.82-33.54,48.86-3.83,13.11,11.79,35.42,25.78,29.79-6.62,21.51,13.34,42.08,31.09,31.86-.31,12.82,24.49,28.08,37,17.28,31.73,24,46.65-10.84,53.56-18.53,23.26-27.32,61.15-52.42,64.77-107.21C193,1431.85,129.9,1384.3,133.18,1369Z"/>
            <path d="M1009.05,1303c-23.08-.77-21.87-7-51.39-13.09-19.81-4.09-24.55-10.37-37.93-13.72-18.11-4.53-14.94-17.09-24.27-17.09-20.69,7.53-22.5,42.25,8.78,61.46-10.55,17.34-21.85,13.3-38.3,42.12-7.81-3.22-21.94-4.77-32.3-3.64-17.76-10.9-44,0-42.58,20.24-3.28,1.4-42.76-14.64-44.31,19.11-19.71,6.58-31.8,22-21.4,43.45,4.94,6,19.88-7.71,30.73-9.14-3.37,9.59-2.58,17.4,4.49,22.42C766,1458,772.28,1446.85,784,1444c17.5-4.23,44.4-9.9,62.63-19.75,110.84,14.92,137.21-24.32,167.72-22.73C1053.22,1398.28,1051.18,1300.46,1009.05,1303Z"/>
            <path d="M771.62,445.64c-26.37,8.91-36.34-1.65-41.76-16.58-4.69-24.54-41.2-63.73-13.46-113.72,15.37-153.1,375.82-206.42,464.42-50.73-41.26,86.16.83,87.19-41.66,166.94-24.79,38.07-1.37,119.64-101.88,187.08-27.47,18.44-42.32,37.65-79.35,31.86-57.82-9-57.75-21.37-114.75-59.83-26.88-18.14-45.65-40-57.27-64.57m222-112c-5.32-17-14.81-22.36-28.58-25.37-17.68-3.86-37.67,1.8-51,6,16.18,15.11,37,29.17,73.67,23.72C1004.65,418.07,1009.75,419.91,1007.92,414.07Zm64.53,23.67c4.74,1.2,19.08,17.57,42.65,13.51,3.63-4,6.71-16.77,6.37-21.39-12.72-15.07-42-7.47-52.32,2.29C1066.69,434.47,1069.46,437,1072.45,437.74Z"/>
        </g>
    </g>
    <g class="liz">
        <g class="lizJeans">
            <path d="M1350.46,1941.53c1.21,77.72,9,153.58,28.39,233.43,6.51,26.77-2.66,51.85,10.65,84.68-11,4.23-11.85,21.15.88,25.33,12.16,42,10.65,71.85,12.42,101.14,7.8,128.61,33.81,217.56,46,324.7h117.33c-1-143.94,68.15-275.42,24.65-427.66C1584.59,1728.67,1585.56,1906.15,1350.46,1941.53Z"/>
            <path d="M1816.75,1956.56l-274.18,9.82c-6.54,93.61-9.82,206.25,7.37,266.82,18.91,66.64,13.1,108.85,58.11,230.8,19.37,52.48,47.69,110,64.66,155.5,49.39,13.23,91.3,5.18,123.58-30.28-18.82-137.5,15.83-264.81-43.1-363.84,13.09-20.47-5.19-16.74-13.37-35.56,14.73-18.82-8.06-20.81-.82-34.37C1768.4,2100.37,1796.14,2033.75,1816.75,1956.56Z"/>
        </g>
        <g class="lizJeansCuff">
            <path d="M1793,2559.82c10.68,3.75,17.47,41.11,8.8,48,14.93,67.78-91.72,94.84-116.35,44.56-13.8-.61-30.59-44.56-21.61-55.41C1698.73,2632.33,1786.16,2599.18,1793,2559.82Z"/>
            <path d="M1566.34,2694.31c-20.34,14.5-97.23,13.31-118.86,5.2-10.47,4.55-7,47.48,2.88,46.87,43.37,25.47,82.89,26.85,118.8,5.66C1580.64,2751.48,1577.82,2693.75,1566.34,2694.31Z"/>
        </g>
        <path class="soleLightTanDark" d="M1477.2,2976.55l28,4.6v-21.5C1496,2965.48,1486.72,2971.25,1477.2,2976.55Z"/>
        <g class="soleLightTan">
            <path d="M1861.1,2717.51a190.22,190.22,0,0,1,9.13,46.73c-1,25.23-12.74,40.91-27.4,46.31-10,42.46,1.8,76.29-12.36,106.15-24.7,52.1-108.07,62.53-137.79,32.81-6.57-6.58-10.81-16.22-11.68-26.91Z"/>
            <path d="M1583.3,2900.25c.64,12.07-6.81,54.52-9.61,62.23-2.65,7.2-42.8,16.38-68.45,18.67v-21.5c-33.15,20.93-67,41.09-109.75,41.86-31.14.57-59.52-4.19-83.29-17.53-2.58-2.83-4.44-13.44-1.83-19.07Z"/>
        </g>
        <g class="lizShoe">
            <path d="M1801.82,2607.86c14,41.74,56.06,58.34,59.28,109.65,2.76,44-24.19,35.34-28.23,161.41-2.37,74.17-132.1,98.6-151.87,43.68-9.7-26.94,9.85-53.32,10.87-73.72,1.93-38.69,5.92-69.12,2-100-4.71-37.5,4.08-48.68-8.44-96.47,60.74,39.57,90.73-31.76,100.69-6.71C1796.31,2640.7,1800.93,2620.27,1801.82,2607.86Z"/>
            <path d="M1533.52,2757.69c12.23-3.49,23-6.78,35.64-5.65,3.39,66.75,22.63,101.82,14.14,148.21-20.93,22.63-66.13,32.6-100.69,55.44-63.36,41.86-148.78,31.11-172.24,9.22-.87-40.9,39.64-41.95,60.53-61.4,27.23-25.34,41-55,60.23-90.94,9.71-18.17,15.55-40.73,19.23-66.19C1477,2746.38,1517.67,2739.12,1533.52,2757.69Z"/>
        </g>
        <g class="lizCoat">
            <path d="M1315.49,1070.8c-38.48,7.45-25.45,33.52-42.21,39.72-6.69-5.42-15.38-16.21-23.52-14.06-6.39-8.59-19.7-15-37.35-18.28-6-8.35-25.88-28.74-86.07-60.54,11.77,65.95,30.29,132.46,34.5,178.48,30.36,24.21,60.87,47.82,98.17,61.17,38.58,13.82,73.5-16.78,116-47.34l67.66-277C1393.73,977.11,1353.75,1022.71,1315.49,1070.8Z"/>
            <path d="M1914.94,987.63c20.7,58.29,28.17,148.39,37.51,225.12,16.8,138,8.16,176.37,13.2,268.84,3.6,66-12,146.62-13.2,248.64-3.16,13.21-69.81,19.06-95.11,14.7-7.55,174.29,7.06,206.11-5.31,221.54-12.75,12.83-198,22.25-225.92,17.88-55.66-386.43-97.74-885.14-97.74-885.14s75.78-130.11,75.78-191.71c0-32.06,166.06-91.93,166.06-91.93C1852.4,865.94,1905.83,922.23,1914.94,987.63Z"/>
            <path d="M1626.3,1277c35.29,240.74,3.68,471.84-1.32,713.36-85.1,7.5-307.84-25.78-315.35-40.8,3.75-192,25.4-383.09,73.83-488.54-2.5-107.62-1.25-177.7-17-245.27-36.36-107.66-9.51-146.45,50.87-238.42,33.36-50.82,84.23-122.62,142.22-172.45-9.83,19.67-11.76,57.58-15.88,93.78C1453.56,1134.35,1576,1147.73,1626.3,1277Z"/>
        </g>
        <rect class="lizUndershirt" x="1513.72" y="943.83" width="88.56" height="89.01"/>
        <g class="clothingPearl">
            <ellipse cx="1483.91" cy="1557.68" rx="23.41" ry="17.89" transform="translate(-174.21 2928.45) rotate(-85.97)"/>
            <ellipse cx="1488.02" cy="1388.75" rx="17.89" ry="23.41" transform="translate(-92.58 106.35) rotate(-3.97)"/>
            <ellipse cx="1589.04" cy="1389.69" rx="17.89" ry="23.41" transform="translate(-92.4 113.35) rotate(-3.97)"/>
            <ellipse cx="1470.36" cy="1226.21" rx="17.89" ry="23.41" transform="translate(-276.12 441.76) rotate(-15.64)"/>
            <ellipse cx="1571.74" cy="1225.04" rx="17.89" ry="23.41" transform="translate(-272.05 469.04) rotate(-15.64)"/>
            <ellipse cx="1589.25" cy="1561.48" rx="23.41" ry="17.89" transform="translate(-80.06 3037.06) rotate(-85.97)"/>
            <ellipse cx="1585.27" cy="1717.74" rx="23.41" ry="17.89" transform="translate(-239.64 3178.36) rotate(-85.97)"/>
            <ellipse cx="1472.99" cy="1710.93" rx="23.41" ry="17.89" transform="translate(-337.23 3060.04) rotate(-85.97)"/>
        </g>
        <path class="lizCoatBelt" d="M1821.42,1379.22c-76,11-373,11-439.69-2.71-8.58-1.31-6.31,82.56,1.73,84.54,52,16.15,367.1,15.59,441,6C1831.67,1420.62,1810.36,1397,1821.42,1379.22Z"/>
        <path class="clothingBrass" d="M1488.53,1375.74c4.91-3.26,76.83-3.26,85.46,1.94,7.55,5.79,8.89,97.52,3.16,105.55-4.51,3.61-77.06,2.46-84.47-1.94C1487.47,1477,1483.38,1381.14,1488.53,1375.74Zm78.85,11.13c-25-.29-49.38-.81-72-1.58-1.49,14.18.52,69.18,4.24,86.42,22.21.81,46.15,1.38,70.69,1.72C1572.21,1456.08,1571.4,1401.29,1567.38,1386.87Z"/>
        <g class="backpack">
            <path class="backpackMedium" d="M1769.21,815.57a87.39,87.39,0,0,1-15.27,19.23c35.47-5.8,100.6,40,97.38,64.49,32.26,17.49,56.76,58.7,62.62,88.34C1904.83,896.54,1852.53,836.89,1769.21,815.57Z"/>
            <path class="backpackAdjusterLight" d="M1821.42,1379.22c-9-22.76-17.82-45.51-29.18-68.78a25.44,25.44,0,0,1-19.13,10.78c15.79,30.81,33.2,75.28,52.7,118.75q.45-18.13,1.69-34.62A38.58,38.58,0,0,1,1821.42,1379.22Z"/>
            <g class="backpackStrap">
                <path d="M1753.94,834.8c35.47-5.8,100.6,40,97.38,64.49-90.28-50.3-111,193.29-56,382.18,12.21,41.92-39.46,57-55.9,14.41C1669.77,1115.49,1663.66,911.54,1753.94,834.8Z"/>
                <path d="M1533.66,829c-44.3,20.87-101.87,94.13-116.35,148.39C1445.61,934.26,1486.51,876.06,1533.66,829Z"/>
            </g>
        </g>
        <g class="lizCoatLapel">
            <path d="M1467.71,954.17c21.81-44.81,66.62-81.69,75.94-55.48,4.12-36.2,6-74.11,15.88-93.78C1517.71,814,1488.11,875.55,1467.71,954.17Z"/>
            <path d="M1770.21,815.57c9.18,18.32-54.6,87.22-82.07,162.27-40.63-52.75-72.31-106.66-84-70.34,2-33.3,149.12-106.51,142.74-127.76C1758,780.79,1759.85,810.32,1770.21,815.57Z"/>
            <path d="M1508.07,1119.4c43.14-47,108-87.14,186.81-122.87-30.49-23.47-65.94-51.59-90.73-89-29.71,51.85-61.16,80.13-87.47,118.22C1507.54,1036.64,1505.93,1069.18,1508.07,1119.4Z"/>
            <path d="M1432,1020.4c16.1,149.74,142.91,140.73,194.28,256.63h0c-15.16-103.41-91.17-127.64-105.78-203.47-14.91-77.35,15.85-110.77,23.13-174.87C1526.54,934.75,1468.55,974.83,1432,1020.4Z"/>
        </g>
        <g class="skinIndian">
            <path d="M1746.89,779.74c92.54-177.28,12.77-175.07-187.1-47.77,7.42,28.59,5,54.62-.26,72.94-9.83,19.67-11.76,57.58-15.88,93.78-2.06,18.15-6,33.84-10.26,48.77,2.89,24.11,17.66,23.55,41.39,4.39a420.2,420.2,0,0,0,29.37-44.35C1606.19,874.2,1753.27,801,1746.89,779.74Z"/>
            <path d="M1939.15,1738.71c13.37,20.8,24,55.39,20.56,87.78-2.17,20.25-9.75,52.16-25.88,54.25-3,17-10,28.7-27.58,26-7.27,11-24.9,15.09-38.43,7.81-17.42,30.83-43.43,14-53.15,5.2-5.72-9.89,4.68-25.5,15.09-21.85,3.35-12.6-.43-22.13-1.56-34.35,3.11,20.45-27.58,29.14-32.26,16.14,3.64-21.86-3.45-42.71-.48-71.81,3.6-35.38,19.73-40.59,24.29-78.51C1849.53,1741.28,1903.13,1747.53,1939.15,1738.71Z"/>
            <path d="M1037.24,1044.06c29.63,4.91,36.69,33.55,15.07,43.49,20.75,6.19,24,39.31-6.55,39.67,10.68,12.65,6.91,38.59-21.92,35C1026,1118.73,1031.1,1065.27,1037.24,1044.06Z"/>
            <path d="M1745.49,684.06c-40.67,60.8-96.14,76.81-159,84.83-39.65,5.05-57,10-81.63,1.51-52.25-18-30.65-36.12-48.69-72.71-28.11-57-8.77-129.45,11-168.46,3.88-7.64-5.52-11.44,6.22-23-2.44-6.24-1.61-11.16,5.21-19.33,4.52-5.41,2-14,3.36-22.09C1455.17,207.3,1969.8,424,1745.49,684.06ZM1583.94,534.31c6.69,1.88,13.41,5.08,26.67,7.1,13,2,22.22,3.8,32.88-.79-10.43-10.51-21.15-17.88-32.88-20-4.79-.88-20-4.4-32.07,9.4C1574.47,534.66,1581.19,533.53,1583.94,534.31Zm-69.7-17c-9.48-18.07-34.33-23.39-40.8-11.09-.35,9.62,21.16,14.22,34.56,12.83C1510.26,518.79,1515.65,520.62,1514.24,517.28Z"/>
        </g>
    </g>
    <g class="clothesDisplayLine">
        <path d="M1540.87,2702.61c4.32,6,7.16,45.16,2.79,52.26"/>
        <path d="M1556.72,2698.88c4.36,9.48,7.68,42.75,2.56,53.13"/>
        <path d="M1775.61,2586.55c6,5.13,18.32,42,16.13,54.29"/>
        <path d="M1784.86,2577c5.74,5,16.09,38.28,14.23,47.19"/>
        <path d="M730.15,1487.94c-17.16,32-55.83,49.12-122.6,39.73"/>
        <path d="M928.9,1494.07c9.23,22.58,32.34,34.08,62.7,38.08"/>
        <path d="M810.49,1492.31c17.91,33.59-6,46,5.32,70.07,11.5,24.41-6.29,45.19-1.76,74.14,4.13,26.38-.56,51.9-19.38,70.63,72.65-5.93,70.41-55.2,68.17-76.47-4-37.51,15.45-35,2.24-77.26-5.6-17.91,14.9-21.59-.77-59.66"/>
        <path d="M851.15,2976.09c45,14.34,146.69-4.78,164.78-26.25"/>
        <path d="M336.57,2513.09c-.48,47.75,17.64,80,69.66,88.42"/>
    </g>
    <g class="clothesOverlapLine">
        <path d="M785.58,1681.07c45.1,126.13,102,335.25,76.14,398.6-10.79,26.46-43.49,55-94.18,85.83"/>
        <path d="M467.31,2449.17a382.65,382.65,0,0,0-66-11"/>
        <path d="M470.13,2432.64c-21.62-4.9-44.21-8.9-67.65-12.59"/>
        <line x1="473.93" y1="2414.68" x2="404.76" y2="2399.95"/>
        <path d="M478.11,2398.46q-35.55-6.64-70.17-16.68"/>
        <path d="M483.38,2381.29a370,370,0,0,1-70.9-18"/>
        <path d="M437,2293.85c-.91,12.58-13.44,29.1-18.17,50.16"/>
        <path d="M506.8,2320.07c-.54,12.08-11,26.76-17.05,43.43"/>
        <path d="M818.5,2761.14c6.64,9.29,5.57,17,7.09,34.33"/>
        <path d="M897,2805.05c-20.65-1.79-49.83,1.29-68.84,6.87"/>
        <path d="M903.09,2819.85c-21.22-3.2-51.34,1.55-71,7.74"/>
        <path d="M910.63,2835c-22.34-3.25-54,.84-73.85,6.91"/>
        <path d="M918.34,2848.71c-23.66-4.57-53.35.21-75.92,7.72"/>
        <path d="M927.16,2862.93c-24.07-4.35-57,1.87-77.17,10.35"/>
        <path d="M882.14,2752c-.34,13.61,5.7,23.43,9.76,37.05"/>
        <path d="M1809.16,2645.71c8.79,26.36,25.23,37.53,35.09,69.1"/>
        <path d="M1556.52,2757.69c9.45,13.14,8.28,49.89,4.78,81.39"/>
        <path d="M968.46,1292.48c22.5-17.7,28.35-49,54.14-86.31.29-63.1,8.25-142.05,14.64-162.11,10-31.56,14.81-81.14,14.32-138.16"/>
        <path d="M1016.73,1416.92c-11.49,3.9-24,.87-35.43-6.48"/>
        <path d="M1121.12,1197.24c-12.37-30.64-91.89-38.88-98.52,8.93,20.71-24.86,81.9-20.32,103.05,9.89"/>
        <path d="M715.72,1216.34c-20.5,50.59-44,98.91-75.58,141"/>
        <path d="M1804.62,1060c-6.22,20.91.89,62.28,6.68,92.08,25,129,15.56,176.6,44.82,191.39,3.33,17-10.57,21.24-11.7,35.78"/>
        <path d="M1847.5,1467.05c-2.55,200.87-19.72,261.23-4.75,262.33"/>
    </g>
    <g class="clothesFoldLine">
        <path d="M1739.82,2189.82c-9.8,12.45-27.54,23.62-54.68,32.5"/>
        <path d="M1753.19,2225.38c-38.35,36.74-87.82,51.79-151.61,42.23"/>
        <path d="M1390.38,2285c18.62,6.49,41.83,7.77,66.4,7.51"/>
        <path d="M1524.4,2328.12c-17.23,5.74-67.62,9.57-79.1,5.1"/>
        <path d="M1511,2316.08c-31.25,5.11-77.18,5.75-95-1.27"/>
        <path d="M1726.61,2179.58c-13.81,14.4-32.27,26.12-60,32.53"/>
        <path d="M1735.54,2217.21c-24.68,27.35-62.28,41.26-116.74,37.64"/>
        <path d="M1394.27,2270.79c26,10.23,60.92,10.92,98.87,8.3"/>
        <path d="M1714.46,2513.81c15.81,26.68,34,45.58,56.89,48.9"/>
        <path d="M778.86,1658.67c-53-18.38-96.14-25.44-97.41-3.36-.45,7.81,48.15,1.12,84,13.44"/>
        <path d="M951.29,1655.31c-25.56-3-50.95,1.07-76.14,13.44"/>
        <path d="M876.27,1690q34.07,8.93,61.59,35.83"/>
        <path d="M757.59,1959.86c-10.24,16.2-58.23-12.31-100.77-52.62"/>
        <path d="M654.55,2003.35c28,24.81,71.92,36.14,61.49,45-8.62,7.29-27.47-4.89-44.67-23.51"/>
        <path d="M658.86,1987.82c45,6.75,93.16,36.73,92,19.07-1.1-16.83-25.22-20.06-61.58-19"/>
        <path d="M711.68,2086.39q-36.91-34.14-96.29,1.12"/>
        <path d="M947.93,2178.2c-30.57,17.23-69.13,19.35-123.16-7.84"/>
        <path d="M955.67,2206.77c-27.89-.58-32.06,9.29-7.74,35.25"/>
        <path d="M774.44,2194c71.6,30.15,118.67,10.9,124.23,30.15,5.18,18-26.35,18.25-79.5,9.43"/>
        <path d="M921.06,2272.25c-45.91-19-72.78,2.24-124.28-3.36"/>
        <path d="M586.28,2279c-39.79,6-65.63-6.51-72.78-43.67"/>
        <path d="M470.13,2204.31c4,17.41,12,32.6,22.1,46.67"/>
        <path d="M586.28,2308c-78.38,16.87-121.93-63.48-132.12-57-9.78,6.18,1.87,18,16,28.52"/>
        <path d="M886.35,2678.69c-11.49,24.8-56,33.59-103-12.31"/>
        <path d="M895.18,2728.7c-8.79,5.85-20.2,6.57-34.58,1.5"/>
        <path d="M749.88,2719.21c23.38,2,55.38,17.36,62.57,6.51,9.14-13.78-42.55-3.36-68.3-34.71"/>
        <path d="M1052.79,831c4.71,24,5.26,48.81-1.23,74.88,11.19-8.46,16.45-23.79,18.26-43.07"/>
        <path d="M1109.34,1133.62c-21,14.81-44.67,25.88-63.27,22.65"/>
        <path d="M1110.52,1262.62c-22.55,14.52-46.73,21.84-73.63,17.08"/>
        <path d="M1017.45,1159c-9.19,25.29-24.77,49.21-57.14,69.5"/>
        <path d="M992.71,1171.32c-30.63,40-103.09,74.22-180.84,61.26"/>
        <path d="M943.82,1103.58c-48.52,13.15-94.14,18.86-135.48,13.54"/>
        <path d="M686.74,1382.33c21.25,5.3,43.83,8.31,61.32,8.45"/>
        <path d="M554.62,1137c1.07,5.89,17.88,23.55,17.52,20.4"/>
        <path d="M566.84,1117.06c-.34,17.87,13.4,34.36,37.14,49.87"/>
        <path d="M552.5,971c2.55,51.41,10.56,80.4,36.88,102.82"/>
        <path d="M653.52,938c26.94,33.49,71,56.55,105.51,83.44"/>
        <path d="M670.07,894.51c14.34,29,45.52,51,63.45,70.34"/>
        <path d="M577,715.2c-14.05-3.19-27.49-4.6-38.62.68"/>
        <path d="M562.94,678.73c23,3.36,64.78,19.79,72.65,6.12,9-15.69-10.09-22.07-44.14-16.55"/>
        <path d="M411,1016.64c10,17.22,42.89,34.31,65.06,36.54"/>
        <path d="M477.54,1083.31c-16.54-6.46-27.82-6.22-28.78,7.15"/>
        <path d="M1212.41,1078.18c5.06,11.14,13.32,28.51,30.11,35.92"/>
        <path d="M1249.76,1096.46c7.55,7.59,13.78,13.81,9.4,31.65"/>
        <path d="M1273.28,1110.52c24.23,18,25.87,62.21,14.44,87.18"/>
        <path d="M1315.49,1070.8c11.07,6.21,13.12,12.68,16.36,19.4"/>
        <path d="M1289.86,1107.28c28.91,22.92,39.54,59.72,26.34,89.71"/>
        <path d="M1400.19,1357.18c15.16-22.07,16.19-4.35,13.59,23.57"/>
        <path d="M1430.1,1335.82c-.62,11.65-.4,25.83,1.92,46.39"/>
        <path d="M1384.53,1508.83c12.82,8.54,13.39-32.44,23-43.29"/>
        <path d="M1414.89,1494.07q-2.66-16.74,6.33-27"/>
        <path d="M1675,1359c-3.82,8.33-4.74,17.57-2.84,27.69"/>
        <path d="M1736.24,1342.23a122.68,122.68,0,0,0-4.56,43.06"/>
        <path d="M1764.72,1351.48c-11.31-4.84-13.84,10.78-13.52,33.06"/>
        <path d="M1764.72,1471.28c1.84,11.5,2,19.34,0,22.79"/>
        <path d="M1786.78,1470.19a110.83,110.83,0,0,1,4.28,42.91"/>
        <path d="M1852.29,1318c17.08,21.36,39.87,35.6,72.62,27.06"/>
        <path d="M1833.12,1343.44c22.73,19.44,66.75,12.52,15.61,51.47"/>
        <path d="M1933.45,1369.28c-48.41,15-52,37.74-69.77,45.57"/>
        <path d="M1924.91,1656.75c1.42-16.21,8.65-27.87,8.54-44.69"/>
        <path d="M1810.23,952.49c-20.79,24.5-34.9,78.71-28.61,107.48,10-21.34,22.67-51.79,50.89-69.61"/>
    </g>
    <g class="clothesBorderLine">
        <path d="M1191.36,1057.86c25.91,42,1.85,117-31.39,130.08"/>
        <path d="M1817.34,1645c19.28,12.68,114.1,18.19,138.78,5"/>
    </g>
    <g class="skinOverlapLine">
        <path d="M35.13,1430.21c-1.94,16.44,12.19,37,12.6,56.18,8,14.12,57.6-2.7,33.45-48.17,7.48-1.59,14.7-3.1,17.87-8.83"/>
        <path d="M27.37,1508.86c8.76-4.07,20.57-11.88,24.36-18.93"/>
        <path d="M58.46,1540.72c39.53-18.18,44.42-43.86,49-52.54-.77-10.55-12.83-19-23.29-12.47"/>
        <path d="M95.45,1558c25.42-25.89,25.43-38,31.25-47.31,6.85-11-8.14-28.26-19.23-22.51"/>
        <path d="M126.7,1510.69c11.34-7,26.54,3.2,20.13,15.8-4.71,10.19-8.24,23.39-18.72,32.62"/>
        <path d="M11.74,1468.26c7.42-8.41,16.88-16.83,26.19-18.82"/>
        <path d="M904.24,1320.56c14.39,9,27.28,5.26,45.25,24.11"/>
        <path d="M907.35,1397c-25.5,15-47.25,20.68-60.73,27.31"/>
        <path d="M746.75,1398.39a40.81,40.81,0,0,1,24.47-2.23c30.88-15.3,53.17-8.86,94.72-33.48-24.91,21.4-49.88,26.5-74.85,43.69-17.45.8-30.07,12.08-35,26.33"/>
        <path d="M791.06,1379.28c5.88-1,26.07-1,32.52,1.4"/>
        <path d="M1819.23,1796.73c-8,33.78,7.16,45.79,9,66.83"/>
        <path d="M1873.62,1873.34c.4,9.61-1.6,32.82-5.8,41.22"/>
        <path d="M1912.05,1866.14c-.4,15.61-1.61,30.82-5.8,40.61"/>
        <path d="M1936.06,1855.93c.15,5.4-1.2,17.81-2.23,24.81"/>
        <path d="M1052.31,1087.55c-9.46-2.91-15.94-3.5-21.85-5"/>
        <path d="M1045.76,1127.22c-7.28,0-19.44-3.25-19.44-3.25"/>
    </g>
    <g class="skinFoldLine">
        <path d="M776.63,350.38c3-76.13-89.41-37.48-49.93,37.29"/>
        <path d="M775.3,370.75c-25.89-1.41,1.2,31.7-14.85,35.16-9.08,2-1.77-16.62-17.86-31.72-21.9-20.55,10.11-42.58,16.94-26.69"/>
    </g>
    <path class="skinEdgeLine" d="M1949.28,1834.83c-17.06,0-15.36,11.52-32,13.09-11.23,1.06-17.09,9.73-30.94,7.81-21.62-3-19.82,3.6-30.93,2.4"/>
    <path class="skinCreaseLine" d="M85.7,1448.85c21.35,15,48.78,29.18,76.49,7.55"/>
    <g class="head50__edited">
        <path class="lipMaleMedium__noStroke" d="M987.63,557.19c10.44,7,22.06,6.27,30.4,4.16,2.45,6.62,9.89,4.77,14,9.81-7.77,4.08-11.51,26.15-46.85,22.11-41-4.69-38.07-32.12-46.74-39C951.46,550.78,968.48,565.42,987.63,557.19Z"/>
    </g>
    <g class="head48__edited">
        <path class="lipFemaleBrown__noStroke" d="M1484.7,662.87c8.56,9.61-10.86,32.24,26.55,41.17,36,8.61,40.51-14.12,53.63-23.66C1512.42,661.29,1504.07,666.44,1484.7,662.87Z"/>
        <path class="lipFemaleBrown" d="M1479.53,661.44c16.59,1.09-3.75-19.8,10.15-15.09,25,8.48,33.35,2.5,45.29,11.14,14.14,10.23,23.27,20.64,41.07,23.93-5.2,1.35-16.35-2.31-20-4.2l-60.6-13.58C1490.06,664.72,1484.94,662.93,1479.53,661.44Z"/>
        <path class="teeth" d="M1495.49,663.64a21.9,21.9,0,0,0,6.49-4.12c16.7,5.23,24.07.66,33.65,6.89,6.38,4.15,10.45,6.18,19.72,10.52C1525.21,687.76,1498.72,681.68,1495.49,663.64Z"/>
    </g>
    <path class="lipBorderLine" d="M933.49,554.33c11.37-1.67,16.58,3.7,20.57,5.56,23.5,11,26.47,3.41,33.81,8.65,7.61,5.44,14,4.78,20.85,1.8,7.22,4.43,17.65-3.09,27,2.44"/>
    <g class="lipEdgeLine">
        <path d="M987.63,557.19c10.44,7,22.06,6.27,30.4,4.16"/>
        <path d="M958.08,582.27c15.57,12.7,39.32,13.76,52.14,8.6"/>
        <path d="M1487.17,686.4c-.56,14.73,38.33,25.22,56.39,15.59"/>
        <path d="M1502.87,659.67a27.69,27.69,0,0,1-9.77-4.85"/>
    </g>
    <g class="cheekLine">
        <path d="M1050.32,533.28c2,5.86,1.4,12.84.16,17.92"/>
        <path d="M980.37,491.52c-11.78,3.27-31.41,26.13-55.14,38.78"/>
        <path d="M1484.31,615.7c-5.22,5.8-6,10.89-8.71,20.7"/>
        <path d="M1565,611.74c6.12,5.46,2.84,12.14,14.14,28.53,10.4,15.07,12.12,26,12.25,40.07"/>
    </g>
    <g class="noseLine">
        <path d="M1054.51,479.35c-3,28.25,18,40.83-5.63,54.82"/>
        <path d="M980.37,491.52c-7.92,3-13.25,18.28-3.69,25.88"/>
        <path d="M986.5,516.73c14.16,3.65,19.25,16.46,32.92,19.81,19.89,4.86,26.24-3.16,30.05-6.18"/>
        <path d="M1555,636.39c13.83-2.09,15.26-17.73,10-24.65"/>
        <path d="M1524,541c-23.24,37.47-43.35,56.81-39.7,74.67,2.79,13.64,21,21.33,32.21,16.2,10.9-5,21.83-6.63,27.67.46"/>
    </g>
    <path class="eyeLidLine" d="M1131.42,421.13c-2.86,7.67.52,17.11-11.58,19.44"/>
    <g class="eyeFoldLine">
        <path d="M1110.55,464.68c-9.08,5-25.46-.33-32.15-10.47"/>
        <path d="M987.08,431.23c-13.76,8.62-40,.06-49.29-12.7"/>
        <path d="M1467.67,521c6.33,9.17,24.6,16.48,37.32,12.6"/>
        <path d="M1584.06,548.77c11.32,9.15,31.26,13,47.3,8"/>
    </g>
    <g class="eyeCornerLine">
        <path d="M911.87,397.52c5.7,0,9.8-1.14,16.46-2.78"/>
        <path d="M1121.47,429.86a16.25,16.25,0,0,1,3.42,5.11"/>
        <path d="M1115.1,451.25a18.41,18.41,0,0,1,5.4-1.81"/>
        <path d="M1666.28,548.9c-8,1.32-18-3.34-22.79-8.28"/>
    </g>
    <g class="eyeCreaseLine">
        <path d="M940.22,379.21c12.32-2.26,52.87-7.42,66.26,15.51"/>
        <path d="M1518.77,504.36c-15.23-25.29-37.73-17-46.08-7.56"/>
        <path d="M1650.51,536.27c-16.59-22.12-41.91-39.24-67.1-20.58"/>
    </g>
    <g class="eyebrowBlack">
        <path d="M1035.43,352.09c-29.77,23.69-72.32-21-121.87-.68C958,313.46,986.86,347.26,1035.43,352.09Z"/>
        <path d="M1154.13,396.8c-20.18-24.64-44.28-16.9-65.21-31.17,9.21,27.55,35.55,19.31,61.43,41.94C1151.84,403.79,1153.09,400.2,1154.13,396.8Z"/>
        <path d="M1528.86,457.27c-14.94.25-28.39-4.44-47.45.56q.19,2.78.47,5.63c9.35-.33,19.36,1.19,30.7,4.7C1525.92,472.28,1539.48,457.09,1528.86,457.27Z"/>
        <path d="M1674.83,515.17c-28-41.33-72.86-40-93.36-49.17-5.23-2.34-4.32,15.52,11.33,17.34C1626,487.2,1642.1,487.19,1674.83,515.17Z"/>
    </g>
    <g class="hairBlack">
        <path d="M989.18,258.42c-16.27,79,61.14,74.71,85.21,110.88.19-10.41-5.52-22.79-11.31-35.15,23,35.64,93.76,29,106.56,74.61,20.6-26.33,51.95-103.46,34.81-143.74,6.59,8.18,14.21,13.3,28.11,16.22-39-52.77-43.73-177.48-201.89-224.82-55.7-16.67-114.36-17.74-156-2.19,6.23-27.31,23.88-44.53,46.27-53-36.29,1.55-63.74,28.89-70.23,57C847.14,39.63,816.65,27.12,792.28,43c26-1.18,41.72,5.32,38.65,28.38-113.72,48.51-126.06,216.79-114.53,244,17.08-36.65,83.05-24.77,72.61,21.5,8.72,5,27.25,12.66,40,15.38,9.88-27.46,2.55-38.07,23.71-46.13,14.5,5.36,53.78,20.09,83.76,2.09-8.47,13.47-7.75,12.14-16.79,24.67C937,328.31,974.41,320.24,989.18,258.42Z"/>
        <path d="M1706.69,507.82c9.65,39.44,7.28,132.16-10.83,174.49-11,25.82,7,32.48,21.93,9.18-20.85,77.07-60.3,119.35-75.8,142.91-23.16,35.21,45.54,39.79,124.17-2.32-18.1,37.63,48.13,22.72,103.66-21.44-15.56,30.84,22.94,47.93,82.54-43.95,49.15-75.75,23.15-150.36,21.08-221.49C1969.6,413.34,1940,418.53,1912.54,372c-32.45-55-142.69-130.09-206.44-92.61C1682.33,236.73,1576,260.52,1537,303c-38.74,42.31-88.55,85.05-55,161.74,1.14-6.78,7.71-13,13.66-21.41,30.72-6.32,39.89-33.37,51-62.17-18.7,65.2,73.36,110.75,57.52,64.12,23.67,33.3,96.41,69.95,74.29,32.5C1691.93,490.42,1689.32,499,1706.69,507.82Z"/>
    </g>
    <g class="hairOverlapLine">
        <path d="M852.75,306.09c-10.45-3.58-21-9.36-31.33-8.54,12.07-6.12,26.5-8.61,37.21-10.37"/>
        <path d="M1495.67,443.36c-10.4,1.73-13.66-7.89-4.59-18.21"/>
        <path d="M1706.69,507.82c49.9,26.57,51.93,12.4,41.47-1.05"/>
    </g>
</svg>
