<svg viewBox="0 0 273.04 516.35">
  <g class="soleWhite">
    <path d="M200.2,505.07l-51.66-7.89c.14,5.29,1.75,9.43,5.49,9.83,13.13,1.4,13.62,5.15,21.67,6.36C187.72,515.17,201.76,513.22,200.2,505.07Z"/>
    <path d="M62.34,509.38c.58,7.68,20.37,8.7,32.79,3.45,7.74-3.27,18.88-3.88,20.75-8.16a18.42,18.42,0,0,0,1.24-7.35C93.7,499.85,66.47,501.28,62.34,509.38Z"/>
  </g>
  <g class="jacobShoe">
    <path d="M167.15,506.81c5.2,2,12.65,3.66,13.94,2.25,3.53-5.13,13.08-6,17-2.25a4.35,4.35,0,0,0,2.15-1.74c-2.41-12.58-8-.27-24.5-28.37l-22.61,1.2a41.79,41.79,0,0,0-4.55,19.28C156.07,506.16,163,505.21,167.15,506.81Z"/>
    <path d="M80.74,512.36c1.53,1.1,8.74-.76,13.44-3.17,7.47-3.82,14-1.73,22.94-11.87-.07-6.84-2.61-15-6.19-19.82L88.84,477c-6.55,6.56-8.7,13.79-14.18,18.47-7.72,6.59-12.92,5.89-12.32,13.95a6.88,6.88,0,0,0,1.56.58C67.29,503.62,80.41,506,80.74,512.36Z"/>
  </g>
  <g class="shoelace">
    <path d="M178.45,484.6a31.71,31.71,0,0,0-13.29,2.25c3.41,3.59,6,8.09,9.57,11a58,58,0,0,1,12.33-2.38C183.58,493,180.88,489,178.45,484.6Z"/>
    <path d="M97.53,487.54a56.12,56.12,0,0,1-10.88,11.54,20.44,20.44,0,0,0-10.77-1.66c3.42-4.1,6.43-8.15,8-12C88.22,484.74,92.81,485.7,97.53,487.54Z"/>
  </g>
  <g class="adidasLogo">
    <g class="clothWhiteMedium">
      <path d="M165.07,506.21a30.73,30.73,0,0,1,4.72-9.6,88,88,0,0,1-7.52-6.3,43.65,43.65,0,0,0-5.8,13.35A33.52,33.52,0,0,0,165.07,506.21Z"/>
      <path d="M109,504a60.65,60.65,0,0,0-7.7-13.45,95.45,95.45,0,0,1-7.66,6.55,28.57,28.57,0,0,1,6.12,10C102.78,506.3,105.78,505.69,109,504Z"/>
    </g>
    <g class="adidasDisplayLine">
      <path d="M96.19,495.08a57.76,57.76,0,0,1,6.86,11.17"/>
      <path d="M98.74,492.86a64.17,64.17,0,0,1,7.46,12.38"/>
      <path d="M167.18,494.6a39.25,39.25,0,0,0-5.4,10.91"/>
      <path d="M158.74,504.62a48.19,48.19,0,0,1,5.95-12.14"/>
    </g>
  </g>
  <path class="jacobPants" d="M176.17,243.41c4.63,5.31,1,10.35,4.23,18.47,4.07,10.24.85,12.49,1.35,16.16,3.06,26.25.63,74.59.55,83.39,0,2.09,2.76,3.49-.36,8.58-2.14,3.5,2.75,2.15,0,13.66-1.73,7.28.65,19.63-.58,29.83-4.91,41,2.28,41.55-4.81,44.64-1,9.14,5,6.6,1.35,14.23,2.61,3.11,2.46,5.64.26,8.36-2.72-4.06-14.8-3.17-17.31,2.12-6.19.91-9.9-.61-10.08-5.29-.16-4,5.1-6.87,1-13.18-3.21-5,2.5-17.75-2.15-38.66-3.9-17.54-.81-32.51-3-40.14-2-7.12-1.45-15,.9-23.4-6.94-5.68-.6-13.87-13.12-63.07-5.25,18.22-8.71,51.95-11.3,60.74-2.21,7.52,3.6,7.68-1.24,16.32-3.33,5.95,1.44,7.23-2.27,15.29-1.45,9.29.08,33.84-3.31,49.16-1.27,5.75.59,10.53-2.27,18.8-1.46,4.23,3.72,8.68-.83,13,6.14,12.77-9.69,8.33-11.71,12.13,1.26-4.56-12.54-7.22-15.2-2.91,0-2.28-1.3-4.81,1.14-5.7-4.44-3.8,1.77-5.44,2.54-9.88-4.86-4.18-2.85-10.18-1.61-16.31,1.63-8.13-3.86-26.75-2.22-52.14.25-3.84-1.09-9.47-.4-14.09.76-5.12-1.28-7.06.4-12.89,1-3.34-.54-7.6-.2-13.49.81-14.09-2.42-52.94-.4-74.08.62-6.49-1.16-11.53,1.21-18.12,1.89-5.28,1.17-14.94,3.62-21.34Z"/>
  <path class="jacobShirt" d="M192.3,124.44c-7-9.54-21.87-8.34-35.42-13l-48.79.72c-10.45,4.16-19.84,2.59-29.68,11-3.74,3.18-5.73,6.14-9.19,12.71-3.11,5.91-7,8.31-4.37,12.13,4,3.48,14.06,10.11,18.87,12.21,3.56-1,3.44-4.59,5.36-7.46-.83,8.17.73,18.64-.47,24.3-.88,4.14,2.88,13.61.48,19.51-1.56,3.86,1.62,5.06-.17,10-1.64,4.49,1.79,9.24.41,16.3-.86,4.39-.25,6.78.14,9.45.53,3.55-.5,8.8,0,12.77,2.82,4.06,14.22,1.44,19.74,2.84,7.5,1.9,20.6,1.31,30.71.87,4-.17,28.09,1.92,37.68-4-1.07-4.28.31-9.36-1-13.78,2.23-3.72-1.67-7.59-.18-11.17,3-7.21-1.35-6.77.15-24.91.74-9,.59-21.53,1.95-39.3,1.81,2.62,3.87,4.67,6.76,4.75,5.73-2.46,15.5-9.26,19.64-14.05C204,139.9,198.18,132.44,192.3,124.44Z"/>
  <g class="readingRainbowLogo">
    <g class="rainbow">
      <path class="rainbowBlue" d="M133.07,165.49a15.39,15.39,0,0,0-15.4,15.4h3.85a11.55,11.55,0,0,1,23.1,0h3.85A15.39,15.39,0,0,0,133.07,165.49Z"/>
      <path class="rainbowGreen" d="M133.07,161.64a19.25,19.25,0,0,0-19.25,19.25h3.85a15.4,15.4,0,0,1,30.8,0h3.86A19.25,19.25,0,0,0,133.07,161.64Z"/>
      <path class="rainbowYellow" d="M133.07,157.78A23.11,23.11,0,0,0,110,180.89h3.85a19.26,19.26,0,0,1,38.51,0h3.85A23.11,23.11,0,0,0,133.07,157.78Z"/>
      <path class="rainbowOrange" d="M133.07,153.93a27,27,0,0,0-26.95,27H110a23.11,23.11,0,1,1,46.21,0H160A27,27,0,0,0,133.07,153.93Z"/>
      <path class="rainbowRed" d="M133.07,150.08a30.82,30.82,0,0,0-30.81,30.81h3.86a27,27,0,1,1,53.91,0h3.85A30.81,30.81,0,0,0,133.07,150.08Z"/>
    </g>
    <g class="book">
      <path class="bookCover" d="M144.33,151.84c-.26.2-.94.87-.94.87a1,1,0,0,0-.31.64c0-.55-1.57-.56-1.57,0v28.84c0,.58,1.57.58,1.57,0,.25.34.55.51,1.29.51h21.87V157.11H146.43V152.8A1.28,1.28,0,0,0,144.33,151.84Z"/>
      <polygon class="bookPageLight" points="164.47 178.03 164.47 154.5 146.43 154.5 146.43 176.1 144.12 178 164.47 178.03"/>
      <path class="paperStackLight" d="M164.47,177.52v3.37h-19.6c-1.37,0-1.37-3.37,0-3.37Z"/>
      <polygon class="bookmark" points="150.53 179.63 145.15 179.63 145.15 184.68 147.84 182.66 150.53 184.68 150.53 179.63"/>
    </g>
  </g>
  <g class="jacobShirtTrim">
    <path d="M151.14,108.56c1.59-.59,2.78,2,5.74,2.86-3.38,12.74-38.79,19-48.79.72,3.84-1.76,4.31-4.55,5.89-3.35"/>
    <path d="M208.2,151c.65-.43-2.62-5.26-3.27-4.82-4.14,4.79-13.91,11.59-19.64,14.05-.42.57,3,5,4.43,3.85C195,161.89,204,155.54,208.2,151Z"/>
    <path d="M83.72,160.15c-4.81-2.1-14.86-8.73-18.87-12.21-.83-.48-3.84,4.24-3,4.72,4.23,4.45,12.57,9.85,18.59,12.19C81,165.22,84.28,160.52,83.72,160.15Z"/>
  </g>
  <g class="clothesDisplayLine">
    <path d="M130.44,249.05c-1.18,11.86.8,28.59,1.4,44.3"/>
    <path d="M142.44,248.72c-1.13,8.3.82,21.21.82,29.81-.34,6.21-3.54,10.44-11.63,10.67"/>
    <path d="M112,251.26Q108.65,264,89,265.48"/>
    <path d="M155,251.26c1.87,10,12.23,14.23,24.45,14.22"/>
  </g>
  <g class="clothesOverlapLine">
    <path d="M184.57,493.33a41.84,41.84,0,0,0-12.15,2.31"/>
    <path d="M182.73,491.23a44.79,44.79,0,0,0-12.26,2.1"/>
    <path d="M181.21,489.16a27.24,27.24,0,0,0-12.39,2.07"/>
    <path d="M179.7,486.77A29.7,29.7,0,0,0,167,489"/>
    <path d="M89.24,496.86a30.24,30.24,0,0,0-11.26-2"/>
    <path d="M91.7,494.52a32.09,32.09,0,0,0-12-2"/>
    <path d="M93.92,492.14a35.76,35.76,0,0,0-12.66-1.84"/>
    <path d="M95.82,489.86c-4.76-1.65-9.72-2.38-13.22-1.79"/>
  </g>
  <g class="clothesFoldLine">
    <path d="M158.57,146.52c-14,2.08-27.11,3.2-38.76,2.81"/>
    <path d="M134.59,151.74c-9.91.87-20.7.06-31.46,1"/>
    <path d="M92.18,180.41c4.38,2.41,12.34,2.26,20.86,3"/>
    <path d="M170.91,190.49c-14.78,4.69-30.07,4.35-47.27,8.17"/>
    <path d="M92.51,200.8c15.67,3.89,26.83.82,26.42,5.15-.39,4.07-14.76,4.12-27.22,2"/>
    <path d="M140.55,200c-26.2,5.26-14.53,9,8.58,8.12"/>
    <path d="M140.55,211.67a147.56,147.56,0,0,0-34.09.91"/>
    <path d="M174.52,215.56c-3.77,1.94-19.33,4.69-24.59,4.23"/>
    <path d="M157.94,229.17c-14.19,2.59-28.86,1.78-42,.23-8.7-1-16.82-1-24.48-3"/>
    <path d="M101.66,230.66c10.86,1.6,37.29,2.73,38.89,5.37,1.1,1.82-3.15,2.85-10.07,3.09"/>
    <path d="M172.12,229.63c-11,4.23-27.64,4.29-27.57,7.89.12,5.43,12.47,5.61,22.54,4.92"/>
    <path d="M163.77,246c-6.75,2.17-9.13-.35-18.53-.23-10,.12-12.43,1.5-20.36.68-4.64-.47-8.77-.39-10.87.12"/>
    <path d="M197.86,139.83a19.52,19.52,0,0,1-2.18,10.07"/>
    <path d="M182.42,148.3a12.07,12.07,0,0,0,2.51,8.92"/>
    <path d="M180.47,153.9c-2.17-12.47-6.29-13.84-3.43-.57"/>
    <path d="M99,139C96.81,142,95.71,147.27,93,151.5"/>
    <path d="M95.66,138.83c-3.82,4.09-3.42,13.44-5.56,12.1-2.34-1.47,2-9.2-1.14-9-2.52.13-.23,4.92-1.14,10.41"/>
    <path d="M123.25,291.22c-1-1.36-6.89-1.71-13-2"/>
    <path d="M128.08,299.25c1.19-3.29-8.11.55-13.41,3.59"/>
    <path d="M142,295.9c-4.6,2.34,5.88,4.37,12.63,4.6"/>
    <path d="M179.16,375.68c-3.14,4.48-8.26,3.43-8.4,5.49-.12,1.57,4.37,3,8.4,3.36"/>
    <path d="M152.38,382.63c11,2,27.27,3.33,18.15,7.62"/>
    <path d="M159.1,368c7.85,3.47,16,3.62,15.92,5.26-.09,1.36-3.18,3-9.64,4.82"/>
    <path d="M158.32,377.47c-1.82,1.23-7.06-5.15-9.08-2.13-1.39,2.09,1.91,3.59,5.27,4.37"/>
    <path d="M89.4,365.93c2.57,3.25,15.57,2.8.33,5.83"/>
    <path d="M89.06,374.9c4.6,3.25,10.87,5.15.9,9.18"/>
    <path d="M113.38,390.47c-8-9.3-14.91-5.49-23.42-2.69"/>
    <path d="M115.84,383.64c-6.61-1-23.1-7.85-18.94-9.3,11.5-4,23.09-9.18,20.4-2.69"/>
    <path d="M90,466.08c2.6,2.13,7.35,2.85,10.67,5"/>
    <path d="M113.22,472.44c-1.28,1-4.42.65-8.35-.29"/>
    <path d="M110.87,451.72c-6.81,5.73-18.4,6.32-17.11,9.5,1.16,2.88,7.59,5.27,14.42,7.53"/>
    <path d="M87.45,476c6.4-2.64,14.1,3.09,20.47,2.47"/>
    <path d="M176.55,458.14c-11.72,4.24-28,4.42-2.58,7.83"/>
    <path d="M153.8,465.16c2.6,2.69,12.84,1.41,12.19,3.41-.89,2.78-12.37,5.29-11.56,6.9.95,1.9,11.2-1.61,18.28-1"/>
  </g>
  <path class="hairMediumBrown" d="M176.84,47.61c3.24-.72,4.24-3.25,3.87-6.9C172,44.1,175,34.53,173,25.28c-1.55-7.47-9.87-18.4-22.24-17.88-24.28-16.53-29,1.51-36.05-3.81L113.7,7C97.88,9,103.74,21.54,90,24.67a5.88,5.88,0,0,0,2.86,6.58c-7.12,5-2.95,12.06-10.3,13.44a8.26,8.26,0,0,0,2.76,5.82c-10.18,15.24,6.28,24.26-.8,27.39a5.1,5.1,0,0,0,4.35,3.26q-.22,8.4,8.68,9.09c2.71,4.65,7,7.09,13.65,6.29l43-.47c6.74,2.45,16.81-3,15.85-9.35,6.22-2.33,9.57-7.32,10.68-13.19,1.93-.74,3-2.38,3.75-4.46C174,68.45,187.44,60,176.84,47.61Z"/>
  <g class="hairOverlapLine">
    <path d="M95.16,69.82A9.34,9.34,0,0,1,92.87,72"/>
    <path d="M170,69c.51.51,1.37,1.1,1.37,1.9"/>
    <path d="M104.39,39.54a12.3,12.3,0,0,1-3.54-4.37"/>
    <path d="M136.73,25.32a23.2,23.2,0,0,1,14.76-2.78"/>
  </g>
  <path class="hairEdgeLine" d="M106.83,32C123,41.7,118.8,6.14,146,14"/>
  <g class="eye">
    <rect class="sclera" x="109.54" y="52.8" width="47.13" height="12.21"/>
    <g class="irisHazel">
      <circle cx="147.13" cy="57.5" r="3.74"/>
      <circle cx="117.79" cy="57.5" r="3.74"/>
    </g>
    <g class="pupil">
      <circle cx="147.13" cy="57.5" r="1.46"/>
      <circle cx="117.79" cy="57.5" r="1.46"/>
    </g>
  </g>
  <g class="skinGallic">
    <path d="M148.55,92.18c-.9,5.92-1.3,14.5,2.59,16.38.28,10-34.82,14-37.16.23,3-4.43,2.56-10.26,2.52-15.6"/>
    <path d="M272.88,226.44c-17.33-14.15-28.9-32.6-46.43-50.13-6.61-6.61-10.32-14.68-18.25-25.27-4.24,4.5-13.23,10.85-18.48,13.08,6.48,11.24,14.48,20.33,17.29,26.47,8.46,18.52,33.2,32.28,55,48.15"/>
    <path d="M10.41,246.62c16.65-15.46,37.88-24.44,50.25-48.46,4.6-8.93,12.21-21.42,19.78-33.31-6-2.34-14.36-7.74-18.59-12.19-5.61,11.3-11.76,23.61-19.92,32C34,192.73,23.34,216,.15,233.54"/>
    <path d="M95.16,69.82c2.53-3.26,3.57-7.29,3.64-11.81.57,1.72,2.6,2.9,2.34.2C100,46.54,104.37,47,104.39,39.54c12.33,10.07,20.64-8.68,32.34-14.22,8.83-1.3,16.74-.53,23.22,3.47-1.57,18.43,7,20.7,3.45,29.53-.85,2.16-.17,3.26,2.85.51A14.84,14.84,0,0,0,170,69c-2,4-.82,9.27-6.58,8-.95,8.63-4.41,17.52-17,24.66-5.11,2.88-6.92,5.55-14.25,5.55-9.25,0-8.27-2.29-13.13-5.17-13.61-8.09-17.29-16.09-18.14-24.63C95.71,78.06,96.81,74.29,95.16,69.82Zm29.58-11.37c-3.85-1.53-5.35-1.88-6.83-1.94-3.4-.16-4.53,1-6.75,1.82,2.58-.43,3.75.19,6,.26s4.08-.31,6.47-.05C124.15,58.6,125.85,58.89,124.74,58.45Zm16.74.09c2.39-.26,3.88.13,6.23.05s3.69-.61,6.27-.18c-2.22-.82-3.51-2.06-6.92-1.9-1.48.06-2.73.41-6.58,1.94C139.38,58.89,141,58.6,141.48,58.54Z"/>
  </g>
  <g class="skinOverlapLine">
    <path d="M164,60.4c-.41,5,.05,10.78-.6,16.59"/>
    <path d="M100.75,59.75c.34,5.87-.45,12.08.07,17.65"/>
  </g>
  <g class="skinFoldLine">
    <path d="M223,183c-3,1.15-5,4.64-8.23,6.94"/>
    <path d="M48.08,187.49c2.26,1.06,4.53,4.28,7.53,5.87"/>
    <path d="M100.67,70.56c-3.08-.69-1.93-3.8-3.14-5"/>
    <path d="M163.75,70.1c2.15,0,1.21-1.66,1.95-3.38s1.7-4.3-.31-4.48"/>
    <path d="M167.31,69.14a7.42,7.42,0,0,0,1.05-2.33"/>
  </g>
  <path class="lipMaleMedium__noStroke" d="M128,82.3a11.69,11.69,0,0,0,8.85.13c2.73.86,5.56,1.24,7.4,2.38-3.35,5.19-4.4,9.56-12.13,9.89-7.11.31-9.4-5.14-11.77-9.5A63.3,63.3,0,0,1,128,82.3Z"/>
  <path class="mouthInner" d="M131.79,90.88c6.35,0,9.52-1.21,11.63-6.33-4.52-1.22-7.63.19-11.33.2-4,0-5.41-1.73-11.17.25C123,90.58,127.09,90.85,131.79,90.88Z"/>
  <path class="tongue" d="M123.64,86.24A9.76,9.76,0,0,0,125.26,90a17.15,17.15,0,0,0,6.53.91c3.12,0,5.48-.27,7.31-1.18a9.18,9.18,0,0,0,2.08-3.82C137.06,88.47,127.85,88.63,123.64,86.24Z"/>
  <path class="teeth" d="M142.76,84.39c-4.17-.92-7.16.35-10.67.36-3.77,0-5.24-1.53-10.2-.07C124.66,89.15,139.88,89,142.76,84.39Z"/>
  <g class="lipOverlapLine">
    <path d="M120.92,85l-.86.3"/>
    <path d="M144.85,85c-.49-.18-1-.33-1.43-.45"/>
  </g>
  <g class="lipEdgeLine">
    <path d="M136.86,82.43A11.69,11.69,0,0,1,128,82.3"/>
    <path d="M138.49,92.78c-3.26,2.4-9.88,2.75-12.37.13"/>
  </g>
  <g class="cheekLine">
    <path d="M139.37,71.76c2.11,1.12,6.57,6.42,7.06,10.24"/>
    <path d="M125.16,72.05c-2.5,1.42-6.23,6.22-6.59,9.71"/>
  </g>
  <g class="noseLine">
    <path d="M139.37,71.76a3.1,3.1,0,0,1-.2,5.09"/>
    <path d="M125.16,72.05a3.36,3.36,0,0,0,.14,4.8"/>
    <path d="M126.72,76.36c1.67,0,1.62,1.82,5.3,2s3.43-2,5.73-2"/>
  </g>
  <g class="eyeFoldLine">
    <path d="M151.33,60.81a7.62,7.62,0,0,1-8.18-.26"/>
    <path d="M121.6,61.08a7.69,7.69,0,0,1-8.31-.62"/>
  </g>
  <g class="eyeCornerLine">
    <path d="M111.16,58.33a5.18,5.18,0,0,1-1.92.39"/>
    <path d="M154,58.41a5.43,5.43,0,0,0,1.92.4"/>
  </g>
  <g class="eyeCreaseLine">
    <path d="M142.21,56.22c4-2.31,9.22-.64,10.44.19"/>
    <path d="M111.05,56.84a11.63,11.63,0,0,1,12-.61"/>
  </g>
  <g class="eyebrowMediumBrown">
    <path d="M127.7,50.9c-3.54,3.68-10.62-1.7-20.57,2.06C116.93,45.78,122,50.53,127.7,50.9Z"/>
    <path d="M137.65,50.9c3.53,3.68,10.31-2.07,20.41,1.32C147.68,45.92,143.64,50.15,137.65,50.9Z"/>
  </g>
</svg>
