<svg viewBox="0 0 1243.65 2667.06">
  <path class="lizBlanket" d="M231.41,786.24c98.41-86.79,311.07,8.51,481.1,5.91,89.08-1.37,158,16.51,199.23,64.93,24.63,26.7,39.93,4.52,19.19,81.17-9.86,65.62,8.87,136.54-14.76,153.48,123.46,145.42,17.55,300.2,31,407.31,6.08,48.46,45.39,110.48,59,175.62,23,110-16.28,91-42.8,230.22-15,166,12.93,301.78,4.56,470.42-5.06,101.78,7.76,190.64,41.19,268.93-71.63.67-165.12-73.25-222.84-7.37-73.82,4.78-58.59-35.73-115.13-37.62-32.61-1.08-32.61,33.7-90,31.71-118.37,38-256.78,42.21-388.13,26.57-79.67-9.5-149.12,4.77-191.84-38.37,14.46-31.87,17.87-118.73,44.27-181.52-1.44-35.54,2.25-67.8,14.76-94.45-29.36-55.93,14.13-249.43,70.83-277.45-6.7-72-48-63.3,2.95-184.47-13.15-29.09,1.27-89.67-1.47-147.57-3.48-73.48-23.39-136.48-31-240.6-73.11-101.92-34.83-216.95,10.33-305.44-4.33-21.63-6.31-42.06-4.43-60.5-65.2-118.1-8.83-190.46-10.33-224.32C95.25,860.61,95,809,113.35,799.53,139.39,786.06,184.93,785.14,231.41,786.24Z"/>
  <g class="blanketFoldLine">
    <path d="M45.47,2437.63c-1.37,60.93,25.77,99.73,13.27,139"/>
    <path d="M60.23,2343.18c19,43.1,63.93,53.84,60,122.19"/>
    <path d="M331.14,2192c-58.58,16.6-204,97.63-227.49,126"/>
    <path d="M413.15,2078.73c-3.9,118.14-115.2,183.56-196.24,249"/>
    <path d="M131.06,2065.73c3.14,24.74,1.23,47.26-9.83,65.73"/>
    <path d="M581.17,2631c44.74-30.35,90.72-119.7,150.27-182.18"/>
    <path d="M824.19,2454.63c-22,69.53-40,135.37-37.89,182.23"/>
    <path d="M716,2615.54c4-15.47,10.64-32.63,18.41-50.59"/>
    <path d="M963.39,1904.88C935.5,2033.82,798.81,2190,782.21,2494.66"/>
    <path d="M134,1881.26a1476.3,1476.3,0,0,1,96.09-193.49"/>
    <path d="M727,1389.31c109.87,142.67,186.95,267.3,136.11,493.6C802,2154.69,572.83,2570,279.29,2447"/>
    <path d="M758.14,1225.32c-55.54-91.91-134.91-47.25-84,13.48,110,131.18,194.69,250.26,285.7,447.33,12.33,26.69,28.87-12.45-1.5-72.39"/>
    <path d="M390.76,2161.09c-85.85-105.75-172.66-186.57-141.23-358.68"/>
    <path d="M315,2067.59c172.47-176.88,506.23-132,515.21-393.9"/>
    <path d="M491.14,2167.26c.89,56.93,22.1,103.26,67.09,137.16"/>
    <path d="M604.67,2370.21c-142.6-12.86-137.39-171.64-243.24-115.25"/>
    <path d="M101.55,1493.09c67.87,83,156.13,158.35,255.35,229.49"/>
    <path d="M243.73,1893.32c65.19-86.77,141.78-92.31,139.93-179"/>
    <path d="M411.34,1745.65c-4.61,60-87.65,114.41-64.59,132.87,36,28.82,118.11-156.86,108.88-285.12"/>
    <path d="M111.88,1187.65c19.88,104.95,90.93,188.91,33.72,167.69"/>
    <path d="M124.85,1236.77c-45.6,103.14,4.41,208.54,104.38,315.11"/>
    <path d="M181.59,1255.69C208.49,1380.92,269.8,1488,356.9,1581.4"/>
    <path d="M243.73,1264c104.87,6.46,144.23,181.47,294.95,256.52,169.55,84.43,60.9,164.24-18.46,43.36"/>
    <path d="M176.05,1183.72c40.49,33.11,83.52,52,130.1,50.75"/>
    <path d="M318.15,1154.19c-43.37-5.54-105.36,18-58.13,48"/>
    <path d="M277.55,1181c43.83,24.51,78.63,52.89,81.2,95"/>
    <path d="M789.65,987.18c-66.69,5.58-126.39-17-179-68.28"/>
    <path d="M911.74,857.08c4.3,15.48,5.83,29.26,3.4,40.6"/>
    <path d="M562.67,846.93C487,838.62,411.37,775.52,272,856.16c-43.22,25-106,57.41-86.73,114.41"/>
    <path d="M221.37,887.67c-.83-31.18,3.06-65.33,10-101.43"/>
    <path d="M244.33,995.48c9.71,22.18-72,18.46-108.88-13.84"/>
    <path d="M269.25,931.82c-70.13,12.92,9.22,43.36,62.74,24"/>
    <path d="M107.45,1127.15c-7.28-52.71,10.64-91,52.92-85.53,64.59,8.3,101.49-16.61,106.11,7.38,5.33,27.72-55.36,3.69-68.28,4.61"/>
    <path d="M157.6,1073c36.91,24.91,75.54,62.58,125.49,27.68,57.07-39.87,35.77-144.5,148.55-159.63,69.54-9.32,171.58,40.13,272.2,93.8"/>
    <path d="M596.81,1019.47c-91.35-60-205.77-23.06-119-5.53"/>
    <path d="M583,1037c96,1.84,123.48-8.57,177.16,4.61,52.59,12.92,78.43,28.6,165.16,98.73"/>
    <path d="M888.44,1071.14c13.82-22.12-9.38-39.55-48.18-37.12-25.28,1.58-37.91,10.27-68.17,10.73"/>
  </g>
  <circle class="hairBlackDark" cx="385.73" cy="448.04" r="86.84"/>
  <g class="hairBlack">
    <path d="M424.22,372.49c-20,29.07-31,32.92-47,20.43,7.31-19.6,19.4-34.81,35.26-43.82C415,352.62,418.4,363,424.22,372.49Z"/>
    <path d="M626.38,634.37c-13.84,42.07,68.7,14.6,102.94-48.17,15.1,55.67,84.1-96.59,61.69-199.34,37.66,38.09,9.37-61.69,7.57-96.42-1-19.24,11.64-49.32-1.49-81.93-18.64-46.27-28.76-46.69-42.36-81.62C718.13,32.82,501.82-34.32,447.58,21.05,387.08-11.53,347,37,307.65,66.91c-99.94,75.92-87.58,122.56-119.2,155.68-86.95,91-63.79,245.19-33.53,192,2.33,49.17,50.14,128.58,59.2,84.77,54,113,119.6,94.38,108.44,65.17,48.05,59.91,124.6,63.52,101.58,24.58-76.19-104.31-66.35-209-11.68-240C614.07,349.1,407.77,634.62,626.38,634.37Z"/>
  </g>
  <g class="hairOverlapLine">
    <path d="M749.78,280.51c8.83,7.05,17.21-1.46,18.73-19.35"/>
    <path d="M560.57,243.85c-19.91-4.81-23.24-16,6.73-19.28"/>
  </g>
  <g class="skinIndian">
    <path d="M768.59,742.89c-6.24,12-11,26.59-14.23,42.11-21.1-18.15-46.64-41.76-69.78-63.23A159.75,159.75,0,0,0,696,701.91c-11.7-29-16.74-30.37-9.31-80,7.8-52.19,25.6-41.54,38.71-65.13,5.76-7.87,16.25-3.15,18.34,3.67,6.3-11,3.67-17.3,24.64-27.27,14.18-6.73,34.08,8.39,30.41,25.69,15.2-10,38.8,11.54,32.5,27.26,14.68-.52,21.88,16.38,17.3,28.84,22,.52,12,37.28-7.33,44.56C817.18,730.78,785.72,726.58,768.59,742.89Z"/>
    <path d="M1212.66,1083.24c-36-20.89-75.37-43.51-89.16-62.46,5.6.86,13.12-1.91,20.68.86,34,12.49,54.7-15.93,37.47-23.69-31-3-45.66-19.38-84-20.24-38.87-.87-53.41,8.18-71.9,4.57-98.89-49.45-150.15-123.59-234.45-169C760.94,796.94,653.45,690.39,626.13,669c-18.64-14.6-21.89-39.35-77.82-79.07,1.52-40.07,20-62.1,44.69-76.5,0,0-42.23-164.34-180.54-164.34,2.51,3.52,5.94,13.91,11.76,23.39-9.23,13.42-16.54,21.46-23.32,25,7.78,75.28-24.27,166.11-38.22,181.92-44.41,50.33-78.63,143.47-80.87,179.45,68.31-20.84,162.31-2,258.53,14.71C603.43,833.13,679,885.7,725,925.54c66.47,57.55,169.81,85.7,259.79,132.71,20.68,60.3,67.19,71.93,76.24,82.27,28.86,37.9,60.44,58.86,78.53,55.41,9.47-3,17.23-17.23-14.65-31.87-6.46-5.17-15.74-16.92-21.67-28.28,29.29,27.57,50.82,43.08,79.25,50.4,24.12-8.62,8.62-26.71-15.94-37-15-8.72-29.72-22-44.36-37.05,37.9,29.72,64.61,45.09,93,52,19.38-2.15,19.81-24.41-13.79-38.19-21.78-11.38-41.38-26.3-59.87-43.07,31.88,15.5,56.43,30.15,87.87,40C1251,1122.86,1246.69,1093.57,1212.66,1083.24Z"/>
    <path d="M473.34,457.88C491.84,502.77,538.7,530.61,583,558c23,14.21,37,31.4,63.11,33.95,52.15-3.07,16.08-55,54.35-64.75,5.48.07,11.48-14,3.74-23.67,6.31.43,13.75-2.24,14.1-7,1.14-3.57-3.23-14.62-2.41-27.54,10.77-1.95,21.66,11.88,33.83,3.11,20.42-14.73-7.77-69.15-20.86-105.06-9-24.7,20.47-29.46,20.55-84.93-12.74-15.84-18.34-37.45-9.84-95.8-9.91,90.32-115.32,99.23-74.06,59.34-41.57,16.31-68.41,7.93-105.31-.19C540.57,256.78,536.93,277.14,533,300c-4.06,23.22-42.32,12-60.45-23.31-12.68-78.25-128.18-21.09-60.42,74,6.13,8.6,17.81,58.26,56.21,35.27"/>
  </g>
  <g class="skinOverlapLine">
    <path d="M473.93,723.2c17.31,4.21,40.89,28.37,66.41,50.37"/>
    <path d="M548.31,589.94c-25.06-16.72-50.88-26.53-77.71-27"/>
    <path d="M743.78,560.4c2.79,14.49.47,28.67-14.44,42.06-6.42,16,1,31.13-14.76,43.32"/>
    <path d="M798.83,558.82c-1.46,7.38-4.34,11.23-6.27,19.57-5.13,11.88-35.3,2.57-28.24-28.24"/>
    <path d="M831.33,586.08c-2.31,19.8-15,24.72-18.23,39.49-9.63,17-41.72-.32-18.29-31.77"/>
    <path d="M777.9,582.29a99.58,99.58,0,0,1-7.48,16.32"/>
    <path d="M848.63,614.92c-12.1,30.54-19.81,28.3-27.83,38.25-12.19,13.15-27.92-6.74-18.61-20.94"/>
    <path d="M841.3,659.48c-5.1,3-17.61,11.66-24.48-3.19"/>
    <path d="M729.34,602.46c-4.55,2.16-9,3.63-13,3.14"/>
  </g>
  <g class="skinFoldLine">
    <path d="M1123.5,1020.78a62.49,62.49,0,0,0-10.46-10.87"/>
    <path d="M776.1,604.16c-3.31-5.36-8.41-7.9-15.39-7.47"/>
    <path d="M462.12,290.4c-4.3-60.18-86.13-28.74-40.38,45.13"/>
    <path d="M458.52,312c-19.06,5.92,8.77,31.51-5.64,34.82-10,2.31-8.29-20.37-18.09-27.45-22.17-16-4.72-39.3,12.54-26.31"/>
  </g>
  <g class="skinCreaseLine">
    <path d="M739.43,621.26c14.38,18.81,21.51,43.07,17.13,76"/>
    <path d="M771.49,622.14c-5.51,20.33,7,38,30.31,54"/>
    <path d="M731.77,852.53c-11.1,8.53-17.78,19.77-12.52,38.39"/>
  </g>
  <path class="lizUndershirt" d="M327,750.68C335.86,655.6,400,568.09,470.6,563c-56.31-20.55-151.69,75.54-158.94,189.38Q319.18,751.31,327,750.68Z"/>
  <path class="lipFemaleBrown" d="M677.72,476.44c9.34,5.75,18.28,5.13,25.77,8.79,9.84,4.79,9.16,8.51,15.18,9.7h0c-.35,4.75-7.89,7.4-14.1,7,7.74,9.7,1.74,23.74-3.74,23.66C681.71,514.83,684.17,493.56,677.72,476.44Z"/>
  <path class="lipBorderLine" d="M704.57,501.92c-3.85-6.9-16.25-11.65-26.85-25.48"/>
  <path class="cheekLine" d="M686.13,447.45c-5,24.05-17,18.83-23.9,53.89"/>
  <g class="noseLine">
    <path d="M732.62,452.66c-8-3.31-18.37-5.64-27.35.53"/>
    <path d="M692.85,449c-7.51-6.24-3.61-20.95,4-25.58"/>
  </g>
  <path class="eyeLidLine" d="M697.87,358.5c13.28,1.64,15.16-4.82,12.71-9.66,7.13-2.83,6.22-25.06,1.73-30.54"/>
  <path class="eyeLashLine" d="M669.52,328.22c23.42,5.19,32.2,15,41.06,20.62"/>
  <path class="eyebrowBlack" d="M663.06,287.83c23.18-11.79,65-1.12,78.1,13.77,4.23,4.82-6.14,11.89-11,7.41C714.18,294.41,689.7,282.75,663.06,287.83Z"/>
</svg>
