<svg viewBox="0 0 104.97 104.97">
  <path class="flatBlueDark" d="M13.07,12.84c.07,.29,.1,.58,.09,.88-.06,2.42,.08,4.84,.12,7.25,.02,1.32-.01,2.65,.07,3.97,.2,3.39-.02,6.78,.1,10.17,.14,3.81-.02,7.61,.09,11.41,.17,5.88,.09,11.77,.06,17.65-.02,3.2,.03,6.41-.09,9.61-.08,2.37,.03,4.75-.09,7.12-.09,1.8,.03,3.61-.09,5.41-.11,1.57-.03,3.14-.07,4.71,0,.11-.06,.23,.04,.32l-.18,.14s.09-.09,.14-.09c.85,.06,1.69,.04,2.54-.04,1.2-.1,2.4,.03,3.6-.09,1.16-.12,2.34,.03,3.51-.09,1.16-.12,2.34-.01,3.51-.09,1.9-.13,3.82,.02,5.73-.1,2.12-.13,4.25-.08,6.38-.08,8.49-.01,16.98-.13,25.46,.05,2.71,.06,5.42-.02,8.13,.1,1.28,.06,2.56-.03,3.84,.08,1.55,.12,3.11-.05,4.67,.1,.9,.09,1.81-.02,2.73,.08,1.02,.11,2.06-.01,3.1,.1,.92,.1,1.84,0,2.77,.08,1.15,.1,2.31-.03,3.46,.15,.02-.17,.04-.31,.05-.45,.03-1.17,.01-2.34,.07-3.51,.11-2.09,.01-4.19,.09-6.28,.12-3.12,.07-6.25,.08-9.38,.03-7.87,.14-15.74-.06-23.61-.07-2.86,0-5.73-.08-8.6-.13-4.88,.06-9.77-.09-14.65-.06-1.98-.12-3.97-.11-5.96,0-1.93-.16-3.85-.1-5.78,0-.08-.03-.15-.05-.28-.56,.01-1.13-.04-1.7-.08-1.14-.08-2.28-.04-3.42-.08-2.36-.08-4.71-.13-7.07-.2-3.31-.1-6.62-.03-9.94-.07-4.73-.07-9.46-.12-14.19-.11-6.5,.02-13-.1-19.5,.07-3.9,.11-7.79-.09-11.69,.09-1.74,.08-3.48,.02-5.22,.07-2.03,.06-4.07,.12-6.1,.12-.18,0-.37-.02-.51,.14l-.09-.28Z"/>
  <g class="hairDarkBrown">
    <path d="M67.88,27.63c1.5-2.16,3.49-3.33,6.19-3.03,0,0,.37,.04,.5,.08,.24,.09,.52,.16,.69,.02,.56-.44,1.21-.63,1.86-.87,.59-.22,1.22-.24,1.8-.19,1.01,.08,1.99,.4,2.77,1.12,.08,.07,.19,.19,.27,.13,.29-.19,.56,0,.84,.01,.92,.04,1.72,.42,2.35,1.07,.95,.99,1.45,2.21,1.43,3.59,0,.3,.07,.5,.33,.6,.78,.29,1.3,.83,1.67,1.57,.55,1.09,.61,2.22,.31,3.38-.15,.58-1.01,1.48-1.01,1.48,.61,.79,.5,1.7,.4,2.59-.08,.78-.42,1.48-.86,2.13-.71,1.04-2.18,1.89-4.05,1.52-.47,.99-2.48,1.76-3.68,1.42-.54-.15-1.08-.31-1.61-.49l-4.99-.28c-.84,.31-1.71,.39-2.59,.27-1.18-.16-2.27-.5-3.1-1.43-.2-.22-.41-.49-.43-.74-.04-.38-.27-.47-.53-.55-1.1-.34-1.77-1.39-1.8-2.5l3.23-10.91Z"/>
    <path d="M24.16,45.19c-.67-.17-1.21-.6-1.74-.99-.94-.68-1.67-1.6-2.36-2.53-.08-.11-.29-.92-.41-1.2-.46-1.05-.7-2.11-.44-3.28,.26-1.16,.46-2.33,.56-3.51,.05-.54,.14-1.1,.03-1.61-.23-1.1-.02-2.16,.43-3.08,.51-1.05,1.07-2.11,1.97-2.95,.88-.82,1.86-1.43,2.93-1.92,.13-.06,2.51-.71,3.6-.77,2.28-.11,4.17,.83,5.61,2.54,.67,.8,1.25,1.7,1.67,2.7,.26,.63,.48,1.25,.62,1.91h.14c-.17-.03-.14,.09-.14,.18,.02,.6,.06,1.21,.03,1.8-.07,1.16,.08,2.32-.2,3.47-.19,.81-.05,1.64,.1,2.44,.09,.5,.06,.96-.02,1.44-.23,1.22-.81,2.22-1.74,3.06-.95,.85-2.03,1.43-3.2,1.88l-7.44,.42Z"/>
  </g>
  <g class="hairMediumBrown">
    <path d="M57.11,38.02c-1.09,.02-1.86-.51-2.34-1.44-.1-.18-.17-.3-.34-.41-.6-.37-1.14-.79-1.45-1.47-.14-.31-.22-.55-.09-.89,.15-.4,.25-.82,.28-1.24,.06-.84,.21-1.69,.01-2.54l.92-3.79c.43-.49,.64-1.15,1.16-1.57,.44-.35,.75-.82,1.16-1.2,1.04-.99,2.21-1.66,3.69-1.78,.51-.04,1.02-.03,1.53-.1,.74-.1,1.4,.22,2.08,.45,1.81,.63,3.14,1.82,4.06,3.47,.36,.65,.53,1.39,.64,2.12,.09,.57,.26,1.11,.38,1.66,.19,.88,.3,1.78,.57,2.63,.35,1.09,.04,2.02-.43,2.96-.6,1.19-1.54,1.98-2.78,2.45l-9.06,.69Z"/>
    <path d="M50.68,33.07c.62-.34,1.3-.58,1.81-1.1,1.16-1.19,1.86-2.57,2-4.25,.11-1.38-.33-2.61-.94-3.79-.54-1.05-1.13-2.07-1.62-3.14-.62-1.34-1.5-2.52-2.72-3.36-1-.69-2.14-.89-3.31-.42-.37,.15-.68,.45-.98,.66-.57-.29-1.09-.49-1.76-.37-.67,.12-1.23,.37-1.81,.71-.62,.37-.97,.96-1.36,1.51-.48,.67-.97,1.34-1.32,2.11-.59,1.29-1.25,2.55-1.83,3.84-.23,.51-.49,1.01-.62,1.56-.31,1.32-.1,2.51,.74,3.61,.85,1.12,1.96,1.9,3.15,2.58,.23,.13,10.29,.01,10.58-.14Z"/>
  </g>
  <path class="skinAshkenazi" d="M71.57,46.11c.48-.59,.8-1.76,.92-2.36,.18-.48-.22-.82-.41-1.2-.54-1.09-1.3-2.71-1.35-3.98-.01-.32-.08-1.88,.07-2.61,.17-.82,.37-1.64,.5-2.47,.03-.16,.08-.31,.32-.33,.96-.07,1.79-.44,2.45-1.15,0,0,.5,.16,.74,.13,.89-.13,1.9-1.23,1.9-1.23,.26,.16,.23,.51,.5,.71,.49,.35,1.01,.51,1.58,.49,.41-.02,.72,.02,.88,.47,.25,.69,.88,1,1.48,1.28,.43,.2,.53,.44,.52,.89-.02,.89,.02,1.79,0,2.68-.02,1.08-.04,2.16-.35,3.25-.34,1.2-1.14,2.24-1.94,3.13-.05,.06,.56,2.96,.6,3.05,.28,.6-4.78,4.91-5.36,5.41,0,0-3.1-6.08-3.05-6.15Z"/>
  <g class="skinGallic">
    <path d="M26.47,49.85c.35-.28,4.81-4.61,4.72-4.95-.2-.71-.29-1.43-.19-2.17,.02-.17,.08-.33,.19-.41,.47-.29,.76-.75,1.1-1.17,1.07-1.33,1.55-2.89,1.61-4.57,.04-1.18-.26-2.34-.27-3.51-.01-.84-.4-1.09-1.05-1.3-.93-.29-1.72-.79-2.26-1.62-.18-.27-.56-.97-.56-.97-.43,.55-.35,1.17-.28,1.8,.03,.29,.32,.6-.02,.9-.45-.16-.76-.45-.99-.81-.47-.75-.73-1.59-.92-2.45-.05-.21-.09-.4-.24-.55,0,0-.17,.14-.43,.5-.85,1.22-1.8,2.35-3.08,3.16-.51,.32-1.05,.48-1.67,.6,0,.34,0,.7,0,1.05,.01,.62-.08,1.24-.18,1.85-.16,1.02-.12,2.03,.03,3.05,.15,1,.54,1.87,1.12,2.68,.24,.33,.41,.7,.73,.98,.22,.19,.19,.52,.14,.78-.2,.99-.38,1.98-.77,2.91-.06,.14,3.28,4.2,3.28,4.2Z"/>
    <path d="M61.59,52.16c1.68-2.09,4.92-6.54,4.85-6.65-.32-.54-.68-1.06-.96-1.62-.41-.83-.63-1.72-.8-2.63-.09-.52,0-.81,.42-1.11,.29-.2,.56-.4,.79-.69,.59-.74,.98-1.57,1.29-2.45,.38-1.09,.37-2.2,.24-3.33-.08-.73-.28-1.43-.3-2.17-.01-.54-.04-1.71-.04-1.71-.28-.03-.56,.06-.83-.09-.6-.33-1.85-1.02-1.85-1.02-.55,.5-1.2,.4-1.71-.28-.34-.46-.56-.98-.75-1.52-.08-.25-.31-.86-.31-.86-.19-.39-.35,.51-.41,.72-.18,.62-.28,1.27-.79,1.76-.21,.2-.34,.49-.7,.39-.36-.1-.69-.44-.69-.44-.08,.06-.17,.11-.23,.19-.61,.72-1.42,1.12-2.27,1.48-.08,.03-.77,.23-.7,.74,.04,.3-.11,.57-.1,.88,.03,.91-.08,1.82-.17,2.73-.09,.93-.07,1.89,.29,2.76,.39,.96,.93,1.87,1.75,2.54,.79,.64,.94,1.38,.7,2.33-.29,1.15-.65,2.26-1.17,3.32-.14,.28,4.44,6.75,4.44,6.75Z"/>
  </g>
  <path class="skinNordic" d="M45.6,51.61c1.48-2.09,3.96-7.82,3.76-8.4-.56-1.69-.89-3.4-.9-5.18,0-.37,.1-.69,.38-.92,.4-.32,.73-.69,1.01-1.11,.33-.49,.71-.95,.88-1.53,.04-.14,.7-2.47,.82-3.56,.08-.73,.16-1.47,.19-2.22,.02-.5-.19-.84-.41-1.2-.81-1.3-1.85-2.41-2.95-3.47-.03-.03-.28,.61-.27,.97,0,.2-.23,.28-.23,.28-.07-.11-.17-.19-.24-.32-.6-1.1-1.48-1.98-2.34-2.87,0,0-.07-.03-.17,.14-1.07,1.8-2.47,3.28-4.21,4.44-.31,.2-.56,.46-.92,.62-.26,.11-.38,.37-.32,.77,.1,.58,.02,1.2-.03,1.8-.02,.23,0,.46-.03,.69-.12,.97-.03,1.92,.2,2.86,.12,.53,.37,1.04,.61,1.52,.41,.82,1.68,2.4,1.74,2.46,.41,.37,.6,.95,.56,1.58-.06,1.18-.81,1.93-1.58,2.68-.64,.62-1.29,1.23-1.94,1.85l6.42,8.13Z"/>
  <g class="skinOverlapLine">
    <path d="M23.97,42.14c.47,.39,.91,.72,1.52,.93,.77,.27,1.56,.49,2.36,.43,1.25-.09,2.19-.08,3.14-1"/>
    <path d="M65.06,40.2c-.8,.78-1.81,1.13-2.87,1.33-1.4,.27-2.94-.25-4.02-1.19"/>
    <path d="M48.61,37.38c-.75,.82-1.62,1.21-2.64,1.55-.3,.1-.86,.15-1.2,.07-.99-.23-1.63-.51-2.36-1.25"/>
    <path d="M79.29,43.85c-.59,.58-1.25,.72-2.03,.84-1.01,.16-1.99,.14-2.96-.2-.57-.2-1.28-.87-1.76-1.25"/>
  </g>
  <path class="blackMediumDark" d="M84.28,92.6c.18-1.13,.34-2.27,.42-3.42,.11-1.52,.36-5.68,.36-6.24,0-4.25-.35-13.31-.5-13.31-5.67,0-11.34,0-17.01,0q-.51,0-.51,.51c0,7.95,0,15.9,0,23.84l17.24-1.39Z"/>
  <path class="dullGreenDark" d="M72.45,47.26c.8,.51,.64,.64,1.52,1.02,.11,.05,1.34,.46,1.34,.46,1.16-.31,2.24-.82,3.23-1.49,.64-.43,1.5-1.71,1.53-1.7,1.25,.57,2.5,1.13,3.74,1.71,1.07,.51,2.16,.99,3.18,1.59,.69,.4,1.39,.85,1.86,1.55,.65,.97,1.02,2.08,1.65,3.06,.05,.08,0,.21-.07,.32-.23,.36-.53,.64-.84,.93-.58,.55-1,1.21-1.12,2.03l-3.05,15.39c-.57,.57-1.32,.79-2.03,1.12-.83,.4-1.76,.45-2.6,.8-.27,.11-.61,.04-.92,.06-.66,.06-1.33,.22-1.99,.16-1.66-.13-3.34-.3-4.71-1.42-.07-.05-1.14-25.85-.74-25.6Z"/>
  <path class="blackMedium" d="M17.78,93.89c-.05-.29-.09-.59-.14-.88-.21-1.24-.32-2.49-.39-3.74-.04-.72-.04-1.45-.08-2.17-.02-.39-.12-.77-.13-1.16-.03-1.22-.11-2.44-.23-3.65-.09-.98-.13-1.97-.14-2.96-.02-1.48,0-2.96,0-4.44l-.32-.09h21.81l-.79,.09v20.19l-19.59-1.2Z"/>
  <path class="blackMediumLight" d="M32.94,48.24l-1.82-3.64c-1.14,1.19-2,1.72-3.08,2.01-.57,.15-1.13,.44-1.76,.2-.44-.17-.83-.43-1.25-.64-.94-.47-1.41-1.21-1.41-2.23,0-.21-.16-.32-.16-.32-.4,.16-.59,.54-.82,.84-.5,.65-1.06,1.27-1.36,2.07-.2,.54,4.93,24.26,5,25.1l6.65-23.38Z"/>
  <path class="blackMediumDark" d="M12.19,77.95c.41,1.32,.93,2.57,1.94,3.56,.44,.42,1.03,.52,1.57,.53,1.12,.03,2.27,.09,3.37-.21,.33-.09,6.23-2.17,6.56-2.4,.32-.23,.65-.45,.88-.79,0,0,1.13,1.26,1.81,1.61,1,.51,2.03,.97,3.14,1.15,.65,.11,1.29,.29,1.99,.17,.49-.09,1.77-.21,1.89-.25,0,0-.75-35.69-.83-35.77-.95-.85-3.36-1.89-3.42-1.89,0,0-.01,1.53,.08,2.36,.08,.68-.08,1.36-.17,2.03-.14,.99-.37,1.96-.66,2.91-.28,.94-.6,1.88-.87,2.82-.3,1.04-.54,2.1-.84,3.14-.26,.9-.55,1.79-.83,2.68-.32,1.03-.57,2.08-.73,3.14-.13,.89-.49,2.4-.7,3.28,0,0-.16-1.01-.19-1.2-.09-.74-.18-1.39-.25-2.31-.12-.55-.39-1.99-.39-1.99-.24-.7-.46-2.45-.46-2.45-.18-.65-.13-1.59-.29-2.26-.41-1.67-.81-3.35-1.14-5.04-.25-1.26-.51-2.51-.64-3.79-.08-.75-.23-1.51-.13-2.26,.05-.38-.1-.93-.1-.93-1.12,.8-2.25,1.6-3.37,2.4-1.31,.93-2.63,1.83-3.92,2.78-1.06,.78-2.17,1.5-3.1,2.44l-.18,26.52Z"/>
  <g class="fredShirtOverlapLine">
    <path d="M26.38,66.03c0,1.26-.01,3.96,0,5.22,.01,1.27,.24,2.52,.23,3.79-.01,1.23,0,2.46,0,3.7"/>
    <path d="M12.38,70.93c.45,.9,.96,1.76,1.51,2.6,.62,.95,1.09,1.99,1.64,2.99,.49,.89,.99,1.77,1.66,2.54,.1,.12,.17,.26,.32,.33,.41-.05,.53-.26,.79-.47"/>
    <path d="M17.69,55.54c-.18,2.73-.32,4.78-.55,6.65-.01,.09,0,.18,0,.28,.04,.83-.05,1.66-.1,2.5-.02,.28,.11,.52,.16,.78,.25,1.27,.88,2.39,1.49,3.53,.93,1.73,2,3.37,2.98,5.07,.29,.51,.63,1,.96,1.51-.12,.37-.37,.63-.82,.62"/>
    <path d="M30.58,74.34c.09,.41,.06,.84,.5,1.12,.49,.31,1.02,.33,1.53,.25,.91-.14,2.12-.48,2.17-.54"/>
    <path d="M31.88,69.82c-.55,.12-.19,.06-.74,.19-.21,.05-.38,.16-.46,.37"/>
  </g>
  <path class="blackMedium" d="M52.63,93.61v-22.41l-.32-.09h.83c5.27,0,10.54,0,15.8,0q.51,0,.51,.51c0,4.21,0,8.41,0,12.62,0,1.17-.08,2.34-.17,3.51-.1,1.25-.13,2.5-.3,3.74-.08,.59-16.36,2.13-16.36,2.13Z"/>
  <path class="dullRedDark" d="M66.11,43.34c-.22,.09-.36,.29-.4,.52-.22,1.29-.81,1.98-1.73,2.89-.99,.98-2.79,3.7-2.79,3.7-.23-.69-.32-.97-.47-1.24-.49-.89-.97-1.28-1.64-2.05-.9-1.03-1.16-2.12-1.26-3.64,.01-.11-.22-.19-.35-.25-.78,.33-1.42,.86-2,1.49l-1.11,28.84c.42-.08,.82,.12,1.19,.21,1.16,.29,2.33,.4,3.52,.44,.66,.02,1.33,.15,1.99,.12,1.07-.05,2.13-.09,3.19-.33,1.26-.29,2.85-.4,4.07-.91-.06,.57-.14,.6-.16,.89-.06,1.07-.29,2.11-.29,3.19,0,1.07,.29,1.26,1.08,1.48,.84,.23,1.7,.12,2.54,.12,.3,0,.63,.02,.93-.16,.61-.38,.94-.95,1.05-1.62,.13-.77,.21-1.55,.4-2.31,0,0,.26-1.41,.34-1.9,.12-.8,.29-1.6,.36-2.4,.04-.57,.2-1.11,.24-1.66,.04-.48,.18-.96,.14-1.43-.06-.58,0-1.15,.03-1.71,.09-1.79,.38-3.56,.14-5.36-.16-1.18-.22-2.37-.28-3.56-.08-1.64-.49-3.23-.74-4.85-.18-1.16-.39-2.34-.75-3.47-.23-.75-.5-1.44-1.11-2-.58-.53-1.23-.89-1.94-1.21-.99-.45-3.2-1.32-3.2-1.32l-.79-.51s-.12-.02-.2,.01Z"/>
  <g class="richardShirtOverlapLine">
    <path d="M59.37,49.21c.74,.46,.19,.09,.88,.51,.28,.17,.69,.49,.92,.74,0,0,1.6-1.1,2.31-1.35,.81-.28,1.59-.61,2.45-.69,.28-.03,.59-.2,.58-.5l.07-.83c.45,.12,.9,.23,1.34,.38,.41,.14,.82,.28,1.25,.37,.26,.06,.33-.02,.28-.28-.06-.35-.21-.66-.37-.97-.56-1.04-1.3-1.93-2.17-2.73"/>
    <path d="M68.71,54.29c.22,.66,.26,2.92,.32,3.6,.13,1.58,.32,3.17,.23,4.76-.08,1.34-.2,2.68-.32,4.02-.1,1.09-.21,2.19-.32,3.28-.06,.6-.2,2.71-.37,3.14"/>
  </g>
  <path class="blackDark" d="M37.01,93.89c.05-.22-.18-1.43-.27-1.85-.22-1.02-.41-2.06-.56-3.09-.19-1.31-.33-2.62-.52-3.93-.19-1.35-.37-2.71-.51-4.07-.07-.68-.06-1.36-.17-2.04-.03-.16-.01-.55-.01-.55-.16-.86-.22-1.72-.22-2.59,0-.92,.05-1.85,.08-2.77l9.75-4.48c1.28,.43,2.55,.87,3.84,1.29,1.46,.47,2.93,.93,4.39,1.39,.57,.18,1.14,.38,1.71,.55,.19,.06,.27,.14,.33,.33,.15,.53,.08,1.08,.11,1.62,.01,.22,.04,.46,.03,.69-.05,1.43-.05,2.87-.11,4.3-.04,1.05-.12,2.1-.23,3.14-.19,1.77-.41,3.54-.64,5.31-.15,1.14-.28,2.29-.52,3.42-.18,.83-.25,1.7-.58,2.5l-15.9,.83Z"/>
  <g class="blackLight">
    <path d="M50.82,43.2c.46-.24,.88-.24,1.4-.02,.83,.36,1.74,.51,2.57,.87,.82,.35,1.67,.66,2.41,1.19,.48,.35,.78,.8,.74,1.43l-2.91,22.92c.06,.51,.14,1.02,.18,1.53,.02,.26,.19,1.29-.74,1.75-1.07,.57-2.19,1.04-3.33,1.48-.93,.36-1.92,.5-2.91,.63-.45,.06-.74-.14-.91-.44-.21-.37-.31-.82-.43-1.24-.22-.76-.2-1.53-.19-2.31l-4.62,.09c.02,1.24,0,2.48-.28,3.7-.08,.33-.11,.71-.55,.73-.4,.02-.81,.03-1.2-.05-1.01-.22-2.03-.47-3.01-.82-.68-.25-1.4-.36-2.03-.74-.32-.19-.65-.73-.55-1.02,.34-1.01,.42-2.05,.41-3.1l-2.36-22.32c.02-.69,.12-1.32,.73-1.82,.5-.41,1.07-.7,1.6-1.02,1.15-.68,2.41-1.19,3.64-1.73,.31-.14,.59-.39,.97-.33l5.41,7.3,5.96-6.65Z"/>
  </g>
  <g class="blackMedium">
    <path d="M40.61,50.64c-.32-.91-.67-1.81-.97-2.73-.47-1.44-1-2.87-.89-4.43,.03-.36,.11-.71,.28-1.01,.47-.83,1.23-1.37,2.04-1.84,.25-.14,.8-.39,1.15-.24,0,0-.48,.91-.69,1.52-.28,1.2-.46,2.13,.2,3.36,.78,.97,1.63,1.88,2.62,2.64,.55,.43,.53,.4,1.07-.04,.75-.61,1.4-1.32,2.03-2.04,.5-.58,.91-1.22,1.23-1.9,.32-.68,.36-1.45,.2-2.21-.06-.31-.28-1.27-.18-1.38,.12-.12,1.01,.31,1.3,.59,.52,.49,1.12,.87,1.49,1.52,.22,.39,.25,.74,.16,1.12-.24,1.1-.61,2.16-1.06,3.19-.64,1.48-1.32,2.94-1.88,4.44-.39,1.04-.71,2.1-.88,3.22-.17,1.14-.38,2.27-.48,3.42-.09,1.01-.16,2.03-.19,3.05-.01,.46-.02,.93-.1,1.38-.11,.6-.04,1.2-.09,1.8-.11,1.25-.08,2.5-.09,3.74l-4.41,.05c-.02-.55-.05-1.11,.02-1.66,.04-.35,.11-.7,.09-1.04-.11-1.86,.01-3.72-.31-5.57-.11-.66-.16-1.32-.24-1.99l-1.43-6.98Z"/>
    <path d="M36.45,59.33c0-.9-.24-1.76-.39-2.64-.13-.75-.23-1.49-.39-2.24-.24-1.13-.55-2.24-.89-3.35-.11-.35-.19-.71-.28-1.06,0,0-.05-.59-.12-.73-.45-1-.77-2.05-1.19-3.06-.05-.11-.09-.29-.27-.33-.19-.01-.31,.11-.41,.23-.71,.83-1.28,1.7-1.42,2.86-.14,1.14-.14,2.28-.25,3.42-.08,.82-.25,1.63-.31,2.45-.04,.6-.03,1.2-.11,1.8-.09,.65-.23,1.31-.24,1.94-.01,.77-.26,1.47-.33,2.22-.04,.48-.2,.96-.33,1.43-.26,.9-.22,1.79-.16,2.69,.08,1.18,.45,2.27,1.06,3.28,.45,.75,1.05,1.36,1.77,1.84,.77,.52,1.85,.69,2.67-.18,.76-.8,1.4-1.71,1.79-2.73,.44-1.15,.58-2.36,.39-3.6l-.6-4.25Z"/>
    <path d="M51.89,65.7c.24-.53,.57-.95,1.04-1.32,.6-.46,1.25-.98,1.35-1.83,.08-.67,.12-1.36,.09-2.03-.04-1,0-2-.05-3-.01-.34,.03-.69-.05-1.01-.21-.88-.09-1.76,.02-2.64,.08-.64,.43-2.05,.46-2.13,.18-.6,.31-1.24,.58-1.79,.44-.91,.74-1.89,1.21-2.79,.28-.54,.58-1.05,1.02-1.48,.2-.19,.35-.18,.56,0,.82,.7,.92,1.67,1.06,2.64,.1,.74,.19,1.48,.28,2.22,.08,.66,.16,1.32,.23,1.99,.07,.68,.09,1.36,.2,2.03,.06,.37,.01,.74,.11,1.12,.16,.66,.23,1.35,.29,2.03,.06,.66,.04,1.34,.13,1.98,.14,1.07,.17,2.13,.15,3.19-.01,.48,.17,.96,.09,1.43-.13,.83-.21,1.66-.53,2.46-.32,.79-.76,1.47-1.45,1.93-1.41,.93-2.98,1.47-4.61,1.86-.81,.19-1.44-.17-1.66-.97l-.51-3.88Z"/>
  </g>
  <path class="skinAshkenazi" d="M89.06,55.31c.16,1.02,.25,1.76,.27,2.54,.14,.83,.17,2.65,.17,2.73,.03,1.09,.02,2.19,.03,3.28,0,1.22-.12,2.44-.22,3.65-.1,1.17-.21,2.35-.38,3.51-.11,.79-.34,1.57-.49,2.36-.12,.59-.16,1.19-.37,1.76,0,0-.05,.57-.1,.83-.18,.86-.37,1.7-.28,2.59,.07,.7,.31,1.35,.42,2.03,.22,1.41-.17,2.67-1.05,3.79-.16,.2-.33,.37-.51,.56-.71,.76-1.42,1.56-2.59,1.52-.53-.02-1.06-.15-1.43-.59-.34-.4-.45-.92-.64-1.39-.21-.51-.32-1.04-.02-1.57,.08-.14,.05-.33,.05-.5,0-.59,.02-1.18,.18-1.76,.3-1.08,.79-2.05,1.57-2.87,.21-.22,.37-.5,.43-.82,.13-.67,.11-1.37,.24-2.03,.26-1.37,.16-2.75,.26-4.12,.02-.34,.19-2.42,.21-3.14,.01-.4,.08-3.24,.13-4.25,.09-1.87,.03-3.76-.06-5.64-.03-.6,0-.6,.64-.7,.25-.04,.5-.11,.74-.18,1.06-.34,2.8-1.57,2.8-1.57Z"/>
  <g class="skinGallic">
    <path d="M18.66,79.91c.03,.11,.13,.61,.14,.76,.01,.86,.37,1.61,.74,2.36,.31,.61,.73,1.14,1.17,1.65,.32,.36,.79,.5,1.28,.57,.8,.12,1.56-.07,2.31-.28,1.8-.51,2.27-1.78,2.24-3.28-.01-.61-.34-1.18-.67-1.71-.63-1.01-1.45-1.77-2.58-2.24-.59-.24-1.21-.54-1.51-1.24-1.23,.69-2.39,1.4-3.44,2.3,.12,.31,.25,.82,.32,1.11Z"/>
    <path d="M27.07,68.38c-.88-.14-1.76,.02-2.63,.11-.5,.05-1.04,.06-1.49,.39-.18,.13-.27,.28-.31,.47-.21,.83-.01,1.64,.18,2.45,.42,1.75,2.78,3.24,4.48,3.31,.76,.03,1.55-.05,2.22-.53,.17-.12,.39-.19,.6-.23,.55-.11,.73-.27,.78-.79,.06-.57,.16-1.15,.12-1.71-.05-.62-.06-1.32-.86-1.58-.29-.1-.53-.32-.7-.59-.45-.73-2.4-1.29-2.4-1.29Z"/>
    <path d="M72.03,78.83c-.07,.92,.22,1.76,.5,2.61,.41,1.2,.3,2.36-.16,3.54-.35,.87-.7,1.7-1.5,2.26-.82,.57-1.71,.89-2.72,.69-.17-.03-.32-.11-.47-.21-.73-.48-1.17-1.11-1.2-2-.02-.57-.12-1.13-.1-1.71,.02-.73,.26-1.41,.51-2.08,.3-.8,.92-1.42,1.21-2.22,.13-.35,.27-.68,.23-1.06l3.7,.18Z"/>
  </g>
  <g class="skinNordic">
    <path d="M52.35,64.96c-.52,.05-.88,.43-1.34,.61-.82,.32-1.62,.71-2.46,1-.67,.24-1.38,.4-2.08,.56-.27,.06-.52-.09-.79-.17-.68-.2-1.35-.4-2.08-.39-.87,0-1.64,.33-2.4,.67-.76,.33-1.49,.73-2.18,1.19-.62,.42-.73,1.04-.54,1.66,.33,1.07,.68,2.14,1.45,3.02,.71,.8,1.47,1.24,2.6,.99,.8-.18,1.62-.27,2.4-.56,.88-.32,1.61-.87,2.25-1.5,.98-.98,2.23-1.35,3.48-1.74,.8-.25,1.6-.46,2.4-.7,.34-.11,.46-.39,.46-.73,.02-.9-.11-1.78-.42-2.63-.17-.46-.3-.94-.74-1.25h-.05Z"/>
    <path d="M38.58,55.49c-.08,.59-.38,1.06-.78,1.48-.99,1.01-2,2.01-2.95,3.06-.6,.66-1.2,1.32-1.86,1.93-.84,.77-.95,1.61-.52,2.65,.41,.99,1,1.8,1.87,2.39,.5,.34,.95,.25,1.29-.17,.51-.63,.86-1.36,1.29-2.04,.85-1.37,1.63-2.79,2.62-4.07,.39-.5,.77-1.02,1.17-1.52,.39-.5,.97-.7,1.53-.91,.7-.27,1.34-.65,1.88-1.13,.84-.75,1.41-1.71,1.58-2.85,.14-.93,0-1.85-.09-2.77-.11-1.01-.57-1.84-1.34-2.49-.35-.3-.69-.28-1.11-.05-.59,.32-1.2,.6-1.8,.88-1.31,.62-2.02,1.72-2.39,3.05-.18,.63-.28,1.29-.36,1.94-.02,.18-.01,.65-.01,.65Z"/>
  </g>
  <path class="blackDark" d="M.5,.5H104.47V104.47H.5V.5ZM13.07,12.84c.07,.29,.1,.58,.09,.88-.06,2.42,.08,4.84,.12,7.25,.02,1.32-.01,2.65,.07,3.97,.2,3.39-.02,6.78,.1,10.17,.14,3.81-.02,7.61,.09,11.41,.17,5.88,.09,11.77,.06,17.65-.02,3.2,.03,6.41-.09,9.61-.08,2.37,.03,4.75-.09,7.12-.09,1.8,.03,3.61-.09,5.41-.11,1.57-.03,3.14-.07,4.71,0,.11-.06,.23,.04,.32l-.18,.14s.09-.09,.14-.09c.85,.06,1.69,.04,2.54-.04,1.2-.1,2.4,.03,3.6-.09,1.16-.12,2.34,.03,3.51-.09,1.16-.12,2.34-.01,3.51-.09,1.9-.13,3.82,.02,5.73-.1,2.12-.13,4.25-.08,6.38-.08,8.49-.01,16.98-.13,25.46,.05,2.71,.06,5.42-.02,8.13,.1,1.28,.06,2.56-.03,3.84,.08,1.55,.12,3.11-.05,4.67,.1,.9,.09,1.81-.02,2.73,.08,1.02,.11,2.06-.01,3.1,.1,.92,.1,1.84,0,2.77,.08,1.15,.1,2.31-.03,3.46,.15,.02-.17,.04-.31,.05-.45,.03-1.17,.01-2.34,.07-3.51,.11-2.09,.01-4.19,.09-6.28,.12-3.12,.07-6.25,.08-9.38,.03-7.87,.14-15.74-.06-23.61-.07-2.86,0-5.73-.08-8.6-.13-4.88,.06-9.77-.09-14.65-.06-1.98-.12-3.97-.11-5.96,0-1.93-.16-3.85-.1-5.78,0-.08-.03-.15-.05-.28-.56,.01-1.13-.04-1.7-.08-1.14-.08-2.28-.04-3.42-.08-2.36-.08-4.71-.13-7.07-.2-3.31-.1-6.62-.03-9.94-.07-4.73-.07-9.46-.12-14.19-.11-6.5,.02-13-.1-19.5,.07-3.9,.11-7.79-.09-11.69,.09-1.74,.08-3.48,.02-5.22,.07-2.03,.06-4.07,.12-6.1,.12-.18,0-.37-.02-.51,.14l-.09-.28Z"/>
</svg>