<svg viewBox="0 0 104.97 104.97">
  <rect class="flatBlueLightest" x=".5" y=".5" width="103.97" height="103.97"/>
  <g class="dullGreenMedium">
    <path d="M66.21,99.44c0-3.68,0-7.36,0-11.04,0-.31-.05-.64,.1-.92,.4-.77,.79-1.54,1.34-2.22,.62-.77,1.37-1.35,2.36-1.57,.89-.2,2.31,.23,2.31,.23,.03-.06,.08-.12,.09-.19,.24-1.23,1.02-1.87,2.22-2.08,.36-.06,.7,.2,1.06,.04,.01-.58,.03-1.18,.29-1.7,.69-1.41,2.02-3.25,5.11-3.14,.61-.16,10.24,21.46,10.45,21.94l-25.32,.65Z"/>
    <path d="M6.23,55.31c1.19-3.05,6.99-2.06,7.29,1.32,1.11-.62,2.8,0,2.69,1.82,1.94-2.17,6.04-.54,5.48,2.45,2.43-.65,4.3,2.08,3.46,4.1-.09,.22-18.87,8.48-18.97,8.74l.05-18.44Z"/>
  </g>
  <g class="dullGreenMediumDark">
    <path d="M33.17,6.65c-.14-.02-.28-.04-.42-.04-8.56,0-17.13,0-25.69,0-.11,0-.23-.05-.37,.08v.42c0,11.55,0,23.11,0,34.66,0,.28,0,.5,.32,.65,1.49,.72,2.98,1.19,4.59,.28,.25-.14,.33-.39,.55-.52l.09-.09c1.17,.81,2.45,1.02,3.73,.4,1.14-.55,2.03-1.41,2.14-2.8,.02-.29,.06-.59,.09-.88l.05,.09c.16,.04,.28,.16,.42,.22,.54,.26,1.09,.47,1.71,.47,.82,0,1.46-.37,1.99-.97l.05-.28c-.01,.09-.09,.17,0,.28,.99,1.31,2.3,1.84,3.93,1.67,.8-.08,1.55-.24,2.27-.64,.92-.52,1.7-1.18,2.1-2.15,.67-1.6,1.23-3.23,1.87-4.84,.76-1.93,1.55-3.85,2.3-5.78,.85-2.17,1.66-4.34,2.5-6.51,.58-1.5,1.17-2.99,1.75-4.48l-5.96-9.24Z"/>
    <path d="M61.41,41.77c-.71,2.14-1.41,4.28-2.13,6.42-.89,2.64-1.78,5.27-2.68,7.9-.51,1.49-1,2.98-1.5,4.47-.15,.46-.09,.8,.17,1.11,.7,.86,1.57,1.44,2.72,1.59,.9,.12,1.57-.21,2.17-.81,.06-.06,.09-.16,.19-.18v-.18c.2,.42,.36,.86,.87,1.03,.27,.09,.5,.28,.79,.37,1.25,.37,2.07,.22,3.05-.66,.02-.01,0-.06,0-.09v.23c.13,.31,.16,.65,.26,.98,.34,1.04,1.11,1.68,1.96,2.26,1.21,.82,2.6,.94,3.97,.76,.91-.12,1.75-.58,2.45-1.22,.4-.36,.74-.76,.97-1.25l12.52-5.91c.93,.46,1.9,.57,2.91,.37,1.8-.35,2.83-1.57,3.56-3.14,.23-.5,.37-1.06,.34-1.57-.06-1.11-.55-2.06-1.45-2.78-.13-.1-.22-.13-.33,0l.28-.09c1.09-.91,1.55-2.06,1.29-3.47-.07-.38-.14-.78-.64-.83l.42,.18c.18-.26,.48-.16,.69-.17,1-.04,1.77-.42,2.46-1.16,.83-.88,1.22-1.93,1.4-3.07,.07-.42-.03-.86-.03-1.29,0-11.49,0-22.98,0-34.47v-.51H40.84l20.56,35.17Z"/>
  </g>
  <path class="dullOrangeDark" d="M36.27,23.47c-.09-.33-.44-.36-.65-.54-.88-.74-1.85-1.35-2.84-1.93-.52-.3-1.06-.6-1.58-.91-.96-.57-1.97-1.03-2.96-1.53-.85-.43-1.76-.71-2.6-1.18-.51-.28-1.08-.47-1.62-.68-1.03-.41-2.11-.7-3.18-.99-1.7-.46-3.44-.77-5.13-1.29-.66-.2-1.36-.29-2.03-.45-1.12-.26-2.27-.44-3.42-.56-1.13-.13-2.28-.2-3.42-.2l-.28-2.45c.62-.03,1.24-.12,1.85-.08,2.13,.15,4.27,.05,6.38,.47,.86,.17,1.76,.2,2.63,.34,1.56,.26,3.13,.44,4.67,.83,.83,.21,1.7,.3,2.53,.5,1.6,.37,3.17,.89,4.77,1.31,.73,.19,1.42,.48,2.12,.75,.69,.26,1.38,.51,2.08,.74,.91,.29,1.79,.7,2.73,.93l-.14-.09c.03-.26-.04-.47-.18-.7-1.05-1.68-2.17-3.3-3.34-4.89-.77-1.05-1.59-2.06-2.47-3.03-.3-.33-.76-.58-.85-1.09l13.35-.23c.97,.58,1.72,1.42,2.49,2.22,1.02,1.05,2.01,2.12,3.01,3.19,.98,1.04,1.98,2.06,2.86,3.19,.15,.19,.36,.28,.52,.45,1.47,1.51,2.65,3.26,4.05,4.82,1.29,1.43,2.44,2.98,3.67,4.46,.74,.9,1.53,1.76,2.29,2.65,1.35,1.59,2.7,3.18,4.07,4.76,1.21,1.4,2.47,2.75,3.64,4.17,1.06,1.29,2.15,2.55,3.12,3.91,.68,.94,1.53,1.76,2.29,2.65,.61,.7,1.19,1.42,1.81,2.12,.46,.52,.99,.99,1.42,1.53,.99,1.24,2.22,2.25,3.21,3.5,.92,1.15,1.93,2.23,2.9,3.34,.96,1.08,1.87,2.2,2.84,3.26,.65,.7,1.23,1.47,1.96,2.11,.23,.2,.4,.46,.61,.69,1.26,1.4,2.59,2.75,3.77,4.22,1.05,1.3,2.12,2.58,3.13,3.9,.55,.72,1.09,1.46,1.65,2.18l.14,28.28h-10.67c-.22-.8-.42-1.56-.65-2.31-.62-1.99-1.31-3.96-2.03-5.92-.39-1.05-.82-2.08-1.14-3.15-.64-2.15-1.36-4.26-2.23-6.33-.34-.8-.74-1.57-1.1-2.36-.66-1.42-1.32-2.84-1.99-4.25-.2-.43-.49-.82-.68-1.25-.51-1.14-1.12-2.21-1.75-3.29-.21-.36-.49-.68-.66-1.06-.4-.9-.9-1.74-1.39-2.58-.53-.9-1.07-1.79-1.62-2.68-.51-.83-1.01-1.66-1.52-2.5-.78-1.28-1.54-2.58-2.37-3.83-.98-1.47-2.01-2.91-3.03-4.36-1.09-1.55-2.24-3.06-3.38-4.57-.82-1.08-1.77-2.06-2.58-3.15-.26-.35-.68-.56-.8-1.01l-22.27-20.06Z"/>
  <path class="skinGallic" d="M53.97,83.45c.07-.15,.05-.31,.05-.46,0-4.51,0-9.03,0-13.54,0-.24,0-.42-.26-.62-.59-.46-1.12-1.02-1.3-1.78-.08-.34-.06-.71-.1-1.06-.03-.23,.17-.27,.29-.36,1.59-1.27,2.84-2.86,3.99-4.5,.78-1.12,1.29-2.41,1.69-3.73,.38-1.25,.77-2.49,.94-3.79,.04-.29-.05-.69,.26-.87,.88-.51,1.26-1.35,1.61-2.23,.3-.73,.4-1.51,.39-2.26,0-.89,.05-1.79-.1-2.68-.05-.3-.13-.57-.28-.83-.19-.34-.29-.7-.29-1.11,.01-4.84,0-9.67,0-14.51v-.49H31.16v13.05c-.4,.17-.76,0-1.08,.14-.51,.21-.68,.71-.87,1.16-.32,.76-.43,1.59-.56,2.4-.18,1.09-.18,2.19-.17,3.28,.01,1.56,.59,2.91,1.83,3.93,.27,.22,.53,.46,.84,.64,.27,.16,.26,.46,.31,.7,.15,.81,0,1.63-.03,2.45-.02,.51-.14,1.01-.15,1.52-.02,.65-.13,1.3-.27,1.94-.19,.87-.38,1.74-.78,2.54-.08,.16-.04,.31-.04,.46,0,6.93,0,13.86,0,20.79l23.8-.18Z"/>
  <g class="skinOverlapLine">
    <path d="M33.59,57.11c-.06,.73,.34,1.32,.61,1.94,.27,.63,.66,1.22,.9,1.86,.3,.8,.88,1.41,1.37,2.06,.72,.96,1.58,1.8,2.61,2.48,1.15,.76,2.37,1.31,3.7,1.67,1.03,.27,2.06,.34,3.1,.39,1.22,.06,2.44-.03,3.6-.42,1.09-.37,2.22-.7,3.1-1.51"/>
    <path d="M60.07,45.74c-.15,1.23-.39,2.46-.43,3.7-.03,.72-.15,1.44-.11,2.17,.02,.32-.05,.71-.15,1.06"/>
  </g>
  <g class="whiteMediumDark">
    <rect x="33.96" y="77.86" width="19.22" height="22.37"/>
  </g>
  <path class="flatIndigoMedium" d="M49.02,98.33c-.2-.41-.05-.83-.04-1.25,0-1.19-.21-2.37-.2-3.56,0-.71-.09-1.42-.18-2.12-.13-1.02-.29-2.04-.46-3.05-.17-1.02-.38-2.03-.55-3.05-.09-.55-.24-1.1,.22-1.62,1.18-1.37,2.03-2.94,2.6-4.66l-2.08-2.73c-.8,.12-1.6,.31-2.4,.35-.8,.05-1.6,.15-2.4,.02l-2.45,2.82c.09,.67,.37,1.27,.7,1.85,.49,.86,1.01,1.7,1.52,2.54,.07,.11,.18,.19,.27,.28-.23,.77-.49,1.54-.68,2.32-.13,.53-.31,1.04-.42,1.57-.35,1.71-.67,3.44-.89,5.17-.14,1.09-.27,2.18-.34,3.28-.04,.66-.12,1.33-.2,1.99-.01,.1,.03,.22,.04,.32l7.95-.46Z"/>
  <path class="tieCreaseLine" d="M43.52,83.96c1.14,.49,2.3,.75,3.51,.24,.11-.05,.24-.04,.37-.05"/>
  <g class="whiteMedium">
    <path d="M30.26,62.84c3.25,4.74,10.56,11.04,15.44,13.6-1.67,3.03-7.43,7.85-11.69,8.44l-3.74-22.04Z"/>
    <path d="M53.64,68.89c-.16,.58-.51,1.07-.88,1.52-.61,.75-1.04,1.64-1.75,2.31-1.2,1.13-2.29,2.38-3.65,3.32-.04,.03-.09,.24-.09,.24,.18,.28,.37,.28,.55,.55,.83,.9,1.57,1.89,2.18,2.95,.32,.55,.76,1.02,1.04,1.58,.55,1.11,1.42,2.03,1.83,3.22,.12,.33,.27,.7,.54,.98l.23-16.68Z"/>
  </g>
  <g class="flatRedMediumDark">
    <path d="M27.76,63.25c-.41,.37-.98,.37-1.44,.64-.92,.53-1.98,.74-2.95,1.16-1.35,.58-2.7,1.13-4.07,1.66-.94,.37-1.92,.65-2.86,1.03-1.69,.68-3.42,1.26-5.04,2.12-1.03,.54-2.1,1.02-3.16,1.49-.6,.27-1.18,.61-1.83,.77-.21,.05-.29,.17-.28,.37,0,.08,0,.15,0,.23v25.42q0,.51,.51,.51c9.86,0,19.72,0,29.57,0,.15,0,.31,.03,.46-.05l-8.92-35.35Z"/>
    <path d="M51.84,98.47h16.55c.18-.74,.03-1.44-.03-2.12-.11-1.28-.27-2.56-.4-3.84-.16-1.53-.31-3.06-.58-4.58-.21-1.17-.47-2.33-.66-3.51-.14-.91-.2-1.84-.2-2.77,0-1.19-.07-2.38-.26-3.56-.09-.6-.49-.99-.85-1.38-1.15-1.24-2.48-2.28-3.87-3.25-.68-.47-1.27-1.08-1.95-1.55-1.06-.74-2.07-1.56-3.18-2.22-.27-.16-.41-.52-.78-.51l-3.79,29.3Z"/>
  </g>
  <g class="flatRedMedium">
    <path d="M53.5,97.87c.76-1.33,1.4-2.72,1.94-4.16,.24-.64,.58-1.25,.77-1.9,.21-.75,.6-1.45,.75-2.21,.25-1.19,.67-2.34,.97-3.51,.36-1.43,.72-2.85,1.04-4.29,.13-.57,.15-1.15,.29-1.72,.06-.24-.05-.46-.22-.65-.56-.63-1.26-1.06-1.94-1.52-.48-.32-.94-.65-1.48-1.02,.7-.35,1.34-.64,1.9-1.09,.68-.55,.87-1.05,.6-1.86-.61-1.81-1.41-3.51-2.64-4.99-.78-.94-1.7-1.7-2.92-2.04-.12,.16-.1,.33-.04,.51,.35,1.08,.56,2.2,.54,3.33-.02,1.17,.06,2.35-.05,3.51-.1,1.02-.04,2.04-.07,3.05-.03,.96-.07,1.91-.11,2.86-.07,1.36-.23,2.72-.41,4.07-.14,1.11-.23,2.23-.43,3.33-.24,1.31-.33,2.65-.48,3.97-.09,.77-.13,1.55-.29,2.31-.25,1.23-.56,2.44-.89,3.65-.05,.18,.04,.42-.16,.56l3.33-.18Z"/>
    <path d="M39.5,98.14c.04-.29-.11-.53-.2-.78-.46-1.43-.88-2.88-1.16-4.35-.15-.8-.43-1.56-.57-2.35-.27-1.57-.81-3.07-1.17-4.62-.48-2.11-1.13-4.18-1.67-6.28-.35-1.35-.78-2.68-1.14-4.02-.24-.9-.44-1.81-.59-2.73-.07-.38-.2-.75-.31-1.1-.42-1.29-.72-2.62-1.03-3.94-.33-1.38-.69-2.76-.9-4.16-.11-.71-.32-1.43-.18-2.17,.06-.34-.26-.31-.45-.27-.41,.1-.82,.18-1.21,.35-.64,.29-1.31,.51-1.94,.84-1.24,.66-2.16,1.57-2.45,3-.2,.98-.45,1.94-.69,2.91-.28,1.15-.36,2.33-.46,3.51-.01,.14,.02,.28,0,.41-.09,.39,.05,.61,.41,.8,.71,.37,1.48,.53,2.23,.77,.79,.25,1.58,.5,2.43,.77-1.32,.99-2.59,1.94-3.86,2.88-.14,.1-.28,.21-.41,.33-.44,.39-.53,.71-.32,1.25,.66,1.71,1.43,3.36,2.16,5.04,.65,1.5,1.45,2.93,2.01,4.47,.18,.48,.5,.95,.61,1.44,.28,1.26,1.01,2.32,1.39,3.54,.32,1.04,.83,2.03,1.3,3.02,.21,.44,.41,.89,.62,1.33l7.58,.09Z"/>
  </g>
  <path class="hairDarkBrown" d="M35.57,32.11s.1,.05,.14,.09c.78,.83,1.76,1.08,2.87,1.03,.86-.04,1.56-.41,2.27-.84,1.34-.82,2.73-.98,4.16-.23,.85,.44,1.75,.75,2.68,.91,.92,.16,1.85,.07,2.77-.09,.83-.14,1.61-.46,2.36-.83,.8-.4,1.48-.98,2.22-1.47l.09-.28c-.09,.17-.03,.25,.14,.33,1.56,.75,2.81,1.79,3.58,3.41,.59,1.25,.98,2.55,1.27,3.89,.23,1.04,.25,2.1,.17,3.14-.08,1.01-.13,2.03-.43,3.01-.11,.35-.08,.74-.1,1.11-.01,.17,.01,.3,.22,.38,.23,.09,.32-.03,.42-.16,.09-.12,.15-.27,.19-.41,.15-.51,.56-.83,.85-1.24,.24-.33,.41-.66,.4-1.07,0-.4,.25-.69,.47-.96,.41-.52,.67-1.11,1-1.67,.22-.37,.17-.8,.13-1.2-.04-.4-.04-.74,.18-1.12,.41-.68,.66-1.44,.67-2.26,0-.28,.03-.55,0-.83-.03-.36-.18-.63-.43-.88-.34-.34-.69-.67-1.01-1.02-.37-.39-.52-.79-.25-1.34,.38-.77,.36-1.58,.22-2.45-.22-1.35-1.1-2.06-2.2-2.62-.26-.13-.58-.14-.87-.19-.71-.12-1.27-.48-1.81-.96-.82-.73-1.74-1.32-2.66-1.93-.98-.65-2.02-1.15-3.07-1.63-.8-.36-1.66-.59-2.53-.76-.56-.1-1.11-.27-1.66-.31-.7-.04-1.42-.04-2.12,.05-.96,.12-1.85,.51-2.74,.89-.48,.2-1.05,.12-1.56,.04-.48-.07-.96-.1-1.44-.14-1.24-.12-2.48-.13-3.7,.21-.6,.17-1.12,.51-1.66,.79-.91,.47-1.66,1.15-2.32,1.93-.09,.11-.22,.18-.32,.28-.73,.67-1.04,1.52-1.01,2.49,0,.28,.12,.55,.19,.86-.5,.09-.74,.5-.97,.86-.72,1.12-1.19,2.34-1.37,3.69-.11,.86-.2,1.72-.21,2.59-.01,.89,.29,1.73,.49,2.59,.21,.94,.67,1.77,.98,2.66,.19,.57,.43,1.18,1.01,1.61,.52,.38,.54,1.1,.57,1.73,.02,.3-.08,.63,.2,.88,.21-.03,.27-.16,.32-.37,.2-.93,.29-1.87,.33-2.82,.02-.6,.24-1.18,.4-1.76,.21-.76,.38-1.53,.52-2.31,.12-.68,.45-1.28,.91-1.81,.76-.87,1.38-1.81,1.3-3.04,0-.03,.03-.06,.04-.09l-.28-.37Z"/>
  <path class="hairOverlapLine" d="M33.96,29.29c.13,1.03,.81,1.76,1.39,2.54,.07,.1,.23,.16,.18,.32"/>
  <path class="whiteMediumLight" d="M44.31,7.25c5.73,.06,11.46-.04,17.19,.07,6.3,.13,12.6-.07,18.9,.11,1.72,.05,3.45-.03,5.18,.07,2.24,.13,4.5-.03,6.75,.1,1.54,.08,3.08,.02,4.62,.02,.56,0,.59,.03,.6,.6,.05,2.08-.05,4.16,.08,6.24,.13,2.09-.03,4.19,.09,6.28,.13,2.31,.04,4.62,.08,6.93,.13,6.96-.06,13.92,.1,20.89,.06,2.49,0,4.99-.05,7.49-.1,6.53,.04,13.06-.12,19.59-.06,2.36,.05,4.71-.08,7.07-.13,2.37,0,4.74-.09,7.12-.1,2.54,.01,5.08-.11,7.62,0,.05-.02,.09-.04,.19-.67-.02-1.33-.06-1.99-.08-2.97-.1-5.94,.04-8.92-.09-2.98-.13-5.98-.02-8.96-.08-6.42-.14-12.85-.01-19.27-.09-6.51-.08-13.03-.1-19.55,.05-5.88,.13-11.77-.09-17.65,.1-2.51,.08-5.02-.05-7.53,.08-1.87,.1-3.76,.02-5.64,.02-.13,0-.28,.06-.37-.1,.09-.1,.1-.23,.1-.36,.02-2.16-.04-4.31,.08-6.47,.1-1.72-.03-3.45,.08-5.18,.13-1.97,0-3.94,.09-5.91,.13-3.31,.02-6.62,.09-9.94,.11-4.85,.04-9.7,.11-14.56,.09-5.95-.03-11.89-.09-17.84-.03-3.68,.11-7.36-.08-11.04-.08-1.54,.05-3.08-.08-4.62-.12-1.49,0-2.99-.08-4.48-.11-1.83-.01-3.67-.11-5.5-.05-.97,0-1.94-.01-2.91,0-.17,.02-.33-.07-.52-.14-.3,.04-.5,.4-.5,2.43,0,4.87,.02,7.3-.09,1.72-.08,3.45,.03,5.18-.08,2.12-.13,4.25-.05,6.38-.09,5.54-.08,11.09-.03,16.64-.03,.28,0,.56-.02,.83-.09h.05ZM.5,104.47H104.47V.5H.5V104.47Z"/>
  <path class="flatAmberMedium" d="M74.72,13.48c.2,5.43,.13,15.79-.17,20.84,4.47-.18,21.85,.03,26.79,.18,.35-4.61,.21-16.5-.04-20.93-4.55-.22-21.93-.22-26.59-.09Z"/>
</svg>