<svg viewBox="0 0 189.64 370.88">
  <path class="fur" d="M77.53,178.52c-1.66,1.05-3.47,1.73-5.3,2.43-2.26,.86-4.64,1.02-6.95,1.56-.41,.1-.87-.06-1.31-.05-1.23,.02-2.45,.15-3.7,.1-2.19-.08-4.37-.33-6.55-.37-1.06-.02-2.16-.12-3.24,.24-2.04,.67-3.53,2.87-2.79,5.11,.63,1.89,2.1,2.73,3.72,3.45,1.7,.76,3.5,1.21,5.31,1.65,1.08,.26,2.16,.32,3.24,.43,.44,.04,.88,.09,1.31,.16,2.57,.4,5.01-.34,7.47-.85,2.01-.42,3.97-1.02,5.93-1.61,.59-.18,1.12-.52,1.77-.56,.35-.02,.44-.3,.48-.68,.19-2,.31-4,.46-6.01,.1-1.28,.3-2.56,.29-3.85,0-.4,.24-.76,.03-1.21-.13-.28,.19-.46,.51-.41l-.69,.46Z"/>
  <path class="pastBennettJeans" d="M98.94,225.04c.29,.34,.19,.76,.24,1.15,.13,.95,.34,1.9,.45,2.85,.19,1.67,.32,3.34,.47,5.01,.13,1.49,.18,2.99,.4,4.46,.33,2.16,.58,4.32,.93,6.48,.4,2.5,.82,5.01,1.09,7.54,.15,1.41,.47,2.84,.44,4.24-.03,1.85,.34,3.67,.07,5.56-.21,1.45-.58,2.83-.94,4.22-.35,1.37-.13,2.61,.63,3.78,.09,.14,.19,.28,.31,.38,.85,.76,.78,1.65,.47,2.63-.1,.31-.03,.67-.09,1-.38,2.02-.63,4.07-1.04,6.09-.18,.87-.16,1.79-.25,2.69-.18,1.8-.46,3.59-.69,5.39-.11,.86-.07,1.74-.15,2.62-.16,1.77-.45,3.53-.5,5.31-.02,.87-.09,1.76-.24,2.62-.19,1.1-.21,2.22-.4,3.32-.17,.95-.24,1.94-.36,2.92-.26,2.13-.58,4.24-1.12,6.32-.17,.66-.28,1.38-.32,2.07-.07,1.11-.48,2.12-.8,3.15-.59,1.93-1.11,3.87-1.46,5.86-.25,1.41-.38,2.81-.02,4.24,.23,.92,.77,1.62,1.34,2.29,.9,1.05,1.94,1.94,3.29,2.41,.72,.25,1.45,.14,2.17,.25,1.08,.17,2.2,.12,3.31,.16,1.44,.05,2.87,.17,4.31,.22,1.85,.06,3.69,.29,5.55,.27,.37,0,.72,.12,1.08,.17,2.04,.29,3.78-.39,5.57-1.29,1.4-.71,2.27-1.8,2.95-3.06,.55-1.01,.66-2.21,.72-3.37,.09-1.64,.07-3.3,.27-4.93,.12-.98,.28-1.94,.27-2.93,0-.8-.03-1.59,.04-2.39,.1-1.34,.33-2.67,.38-4,.04-1,.21-1.96,.36-2.92,.29-1.8,.61-3.59,.92-5.39,.26-1.49,.52-2.98,.77-4.47,.18-1.08,.38-2.15,.54-3.24,.28-1.94,.81-3.83,1.12-5.77,.29-1.77,.5-3.55,.8-5.32,.21-1.25,.32-2.51,.47-3.77,.18-1.45,.46-2.88,.75-4.32,.23-1.13,.3-2.3,.4-3.46,.23-2.75,.44-5.5,.83-8.24,.22-1.55,.23-3.13,.33-4.7,.16-2.64,.61-5.24,.95-7.85,.25-1.87,.42-3.77,.77-5.62,.33-1.74,.5-3.5,.69-5.25,.18-1.71,.33-3.44,.48-5.15,.19-2.11,.19-4.22,.49-6.32,.15-1.07,.23-2.16,.23-3.23-.01-1.68,.15-3.36,.37-5,.34-2.54,.4-5.09,.57-7.63,.19-2.82,.37-5.65,.54-8.47,.07-1.08,.02-2.17,.18-3.23,.16-1.05,.24-2.12,.25-3.16,.02-1.53-.22-3.05-.57-4.61-2.08-.31-61.56-9.58-62.36-9.78-.89,.73-1.52,1.68-2.14,2.67-1.08,1.71-1.83,3.58-2.79,5.35-.61,1.12-.9,2.42-1.43,3.6-.9,2.03-1.57,4.15-2.29,6.25-.53,1.52-.78,3.12-1.38,4.62-.51,1.28-.8,2.65-1.35,3.91-.77,1.8-1.35,3.66-2.03,5.49-.62,1.67-1.38,3.27-2.01,4.93-.57,1.48-.89,3.07-1.51,4.53-.89,2.13-1.53,4.34-2.37,6.48-.38,.97-.89,1.9-1.27,2.87-.44,1.13-.85,2.28-1.37,3.36-.85,1.76-1.57,3.57-2.54,5.28-.71,1.25-1.81,2.15-2.52,3.36-.94,1.58-1.45,3.21-.58,5.05-.69,.55-1.56,.8-2.28,1.32-.52,.38-1,.82-1.43,1.27-.5,.52-1.07,1.04-1.45,1.62-.76,1.19-1.7,2.24-2.42,3.45-.86,1.43-1.86,2.75-2.88,4.06-.48,.62-.8,1.34-1.3,1.94-1.43,1.7-2.81,3.46-4.19,5.2-1.24,1.57-2.43,3.21-3.45,4.96-.45,.77-.96,1.51-1.59,2.17-1.19,1.26-2.18,2.69-3.29,4.02-1.25,1.49-2.5,3-3.8,4.44-2.13,2.37-4.36,4.66-6.21,7.26-.77,1.09-1.1,2.4-.98,3.83,.13,1.56,.45,3.08,.63,4.62,.03,.28,.14,.45,.32,.61,1.93,1.67,3.86,3.33,5.77,5.01,1.48,1.29,2.93,2.62,4.39,3.92,.82,.73,1.63,1.45,2.47,2.15,.32,.27,.77,.35,1.15,.37,1.3,.05,2.58-.01,3.86-.4,1.38-.42,2.6-1.1,3.75-1.91,1.1-.77,1.91-1.84,2.58-3.04,.68-1.21,1.5-2.34,2.07-3.63,.49-1.12,1.3-2.05,2.05-3.02,1.27-1.65,2.66-3.2,4.05-4.74,1.37-1.53,2.72-3.09,4.03-4.67,1.54-1.85,3.16-3.62,4.76-5.42,1.23-1.39,2.54-2.72,3.63-4.22,1.05-1.44,2.32-2.71,3.23-4.27,.59-1,1.51-1.82,2.28-2.72,.18-.21,.44-.38,.52-.62,.28-.76,.78-1.37,1.33-1.91,.94-.92,1.37-2.19,2.22-3.17,1.25-1.44,2.15-3.12,3.32-4.62,.47-.61,.99-1.17,1.46-1.78,.94-1.25,1.75-2.58,2.56-3.92,.5-.83,1.1-1.61,1.69-2.39,.98-1.3,2.15-2.48,2.96-3.88,1.16-1.97,2.78-3.6,3.94-5.54,1.14-1.91,2.5-3.68,3.5-5.68,.47-.95,1.08-1.82,1.67-2.71,.69-1.03,1.22-2.17,1.87-3.22,1.72-2.77,3.28-5.62,4.84-8.48,.52-.95,.98-1.93,1.56-2.84,.14-.23,.14-.46,.15-.7v.69Z"/>
  <g class="clothesFoldLine">
    <path d="M125.52,272.56c-1.95-1.85-4.16-3.31-6.78-3.99-1.86-.48-3.78-.44-5.69-.33-2.92,.17-5.5,1.4-8.08,2.63-.38,.18-.8,.42-.93,.91"/>
    <path d="M69.37,263.47c-.25-1.5-1.15-2.69-1.94-3.92-1.27-1.96-3.04-3.45-4.99-4.71-1.89-1.22-3.91-2.11-6.06-2.83-2.32-.78-4.56-.73-6.87-.32-.06,.01-.1,.15-.16,.22"/>
  </g>
  <path class="skinEastAsian" d="M166.26,50.29c-1.49,.59-2.98,1.19-4.47,1.77-2.85,1.11-5.7,2.21-8.55,3.31-3.41,1.31-6.83,2.62-10.24,3.93-3.34,1.28-6.68,2.57-10.01,3.85-2.93,1.13-5.85,2.26-8.78,3.39-1.67,.64-3.34,1.28-5.01,1.93-.51,.19-.67,.48-.57,1.08,.13,.77-.01,1.59,.04,2.38,.14,2.04-.27,4.02-.62,6.01-.07,.39-.35,.59-.56,.84-2.07,2.45-4.1,4.94-6.08,7.47-.31,.4-.75,.7-.99,1.24,1.03,.65,2.19,1.13,3.31,1.7,3.45,1.73,6.91,3.44,10.31,5.26,.95,.51,1.87,.38,2.78,.25,1.05-.15,2.11-.25,3.16-.43,1.05-.18,2.11-.28,3.16-.43,.94-.13,1.9-.2,2.84-.34,1.49-.22,2.98-.39,4.47-.58,1.02-.13,2.04-.3,3.08-.35,.51-.02,1.02-.14,1.54-.17,.47-.03,.83-.29,1.1-.81,1.46-2.72,3.06-5.38,4.5-8.11,1.11-2.09,2.28-4.15,3.41-6.22,1.46-2.66,3.04-5.26,4.43-7.95,.94-1.83,2.12-3.53,2.88-5.45,.08-.21,.29-.37,.45-.54,1.16-1.24,2.06-2.67,2.84-4.16,.62-1.18,1.2-2.37,1.47-3.69,.3-1.48,.61-2.95,.52-4.47-.02-.28,.03-.65-.37-.77l-.08,.08Z"/>
  <path class="skinOverlapLine" d="M147.47,68.31c-.22,.6,.07,1.07,.38,1.54,.16,.23,.31,.46,.46,.69"/>
  <path class="shirtWhite" d="M140.23,199.55c.82-.75,.81-1.79,.91-2.77,.16-1.46,.05-2.92,.02-4.39-.03-1.44-.1-2.89,.21-4.31,.23-1.06,.07-2.15,.35-3.24,.51-2.02,.76-4.1,1.12-6.15,.15-.85,.37-1.69,.44-2.54,.06-.69,.08-1.39,.14-2.08,.08-.94,.41-1.84,.39-2.77-.02-1.4,.18-2.77,.24-4.16,.09-2.06,.46-4.09,.4-6.16-.01-.44,.05-.87,.07-1.31v.39c.77-.1,1.25-.72,1.83-1.11,1.95-1.31,3.81-2.76,5.74-4.1,.2-.14,.29-.19,.29-.41,0-.15,0-.31,0-.46,0-13.99,0-27.98,.01-41.97,0-.58-.14-.89-.7-1.17-3.84-1.99-7.65-4.05-11.49-6.06-2.46-1.29-4.91-2.6-7.38-3.87-3.37-1.73-6.68-3.59-10.02-5.37-2.35-1.25-4.75-2.42-7.07-3.73-.88-.5-1.84-.86-2.64-1.5-.27-.22-.65-.16-.99-.16-4.36,0-8.73,0-13.09-.01-.45,0-.75,.16-1,.48-1.85,2.31-3.69,4.63-5.55,6.93-1.61,1.99-3.23,3.96-4.85,5.93-.55,.67-.61,1.54-.91,2.32-.38,1-.57,2.07-.95,3.07-.79,2.08-1.24,4.26-1.72,6.41-.53,2.43-.87,4.9-1.15,7.38-.14,1.26-.38,2.51-.42,3.78-.05,1.83-.14,3.66-.41,5.47-.16,1.1,.12,2.24-.36,3.32-.11,.25,.04,.61,.06,.92,.07,1.83-.25,3.64-.26,5.47,0,1.62-.26,3.23-.35,4.85-.05,.93-.31,1.83-.25,2.77,.17,2.56-.25,5.09-.54,7.62-.14,1.21-.22,2.43-.47,3.62-.3,1.41-.58,2.85-.73,4.25-.15,1.41-.63,2.71-.87,4.07-.24,1.34-.75,2.63-1,3.94-.26,1.32-.6,2.61-.92,3.91-.35,1.42-.59,2.88-.64,4.32-.05,1.48,.21,2.94,1.16,4.26,1.03,1.43,2.23,2.72,3.29,4.1,1.82,2.35,4.05,4.21,6.4,5.93,1.4,1.03,2.84,2.05,4.48,2.8,2.05,.95,4.16,1.75,6.18,2.73,2.1,1.02,4.3,1.78,6.56,2.25,1.69,.35,3.35,.84,5.07,1.05,2.51,.31,5.02,.36,7.55,.19,1.67-.12,3.31-.3,4.93-.72,2.19-.57,4.19-1.55,6.16-2.63,1.62-.89,3.27-1.74,4.84-2.71,1.25-.77,2.57-1.36,3.94-1.82,.9-.29,1.88-.34,2.76,0,.79,.31,1.04,1.18,1.04,1.9,0,.68,.19,1.4-.11,2.08l.23-.77Z"/>
  <path class="hairBlack" d="M107.03,49.29c-.26-2.06-.13-4.11,.08-6.16,.11-1.05,.18-2.11,.32-3.16,.15-1.11,.37-2.21,.53-3.31,.29-2.02,1.23-3.81,2.08-5.62,.55-1.17,1.39-2.16,2.11-3.22,.94-1.39,2.02-2.69,3.15-3.93,.92-1.02,1.98-1.92,2.99-2.86,1.08-1.01,2.41-1.67,3.57-2.58,.89-.7,2.08-1.01,3.12-1.51,2.16-1.02,4.42-1.75,6.78-2.15,1.22-.21,2.46-.24,3.69-.36,2.13-.21,4.22,.06,6.32,.21,.74,.05,1.4,.42,2.08,.68,.29,.1,.59,.26,1.03,.09-.41-5.71-2.88-10.48-7.04-14.41,.26-.53,.5-.57,1.01-.41,1.56,.5,2.86,1.44,4.22,2.27,1.57,.95,3.11,1.95,4.4,3.3,1.41,1.47,2.54,3.11,3.49,4.92,.78,1.49,1.26,3.06,1.72,4.64,.18,.63,.13,1.33,.17,2,.04,.77,.47,1.05,1.07,.6,.91-.68,2.03-.88,3.01-1.39,1.66-.87,3.46-.92,5.24-1.05,2.26-.17,4.44,.25,6.46,1.31,.67,.35,1.24,.91,1.86,1.37,.14,.1,.21,.24,.14,.38-.08,.17-.24,.26-.45,.24-.46-.04-.93-.02-1.39-.09-1.91-.28-3.66,.28-5.4,1-.74,.31-1.51,.55-2.08,1.17,2.41,1.66,4.3,3.85,6.26,5.99,1.13,1.24,2.07,2.6,2.89,4.04,1.01,1.76,1.95,3.59,2.45,5.54,.7,2.75,.83,5.58,.19,8.38-.45,1.95-1.09,3.87-2.64,5.21-1.13,.98-2.52,1.64-4.05,1.89-1,.16-1.96,.56-3.01,.47-.38-.03-.71,.23-.93,.59-1.18,1.96-2.53,3.79-4.08,5.47-.18,.2-.4,.37-.61,.54-.5,0-.88-.3-1.15-.63-1.8-2.26-4.51-1.92-6.1,0-1.85,2.24-2.77,4.83-3,7.71-.05,.57-.09,1.14-.24,1.69-.16,.61-.64,1.02-1.14,1.39-.88,.66-1.77,1.26-2.85,1.55-.88,.24-1.65,.78-2.54,.99-2.28,.55-4.52,1.26-6.86,1.53-1.51,.17-3.02,.38-4.54,.24-.98-.09-1.95,.13-2.93,.16-1.66,.04-3.26-.21-4.86-.67-1.2-.35-2.05-1.16-3.01-1.85-1.55-1.11-2.63-2.66-3.99-3.95-1.11-1.05-2-2.31-2.81-3.57-1.19-1.87-2.29-3.83-2.98-5.98-.44-1.37-1.01-2.7-1.36-4.09-.3-1.2-.4-2.46-.55-3.69-.03-.27,.09-.56,.14-.85,0-.03,.05-.07,.07-.07s.05,.05,.08,.07l-.15-.08Z"/>
  <g class="hairOverlapLine">
    <path d="M156.71,51.36c.04,.26,.28,.32,.46,.38,1.19,.37,2.38,.76,3.62,.93,.61,.09,1.22,.22,1.85,.16"/>
    <path d="M161.17,21.02c-.59,.62-1.15,1.27-1.78,1.84-.82,.74-1.28,1.72-1.84,2.63"/>
    <path d="M144.85,15.47c-.09,.95,.1,1.9-.07,2.85-.04,.24-.05,.45-.32,.54"/>
  </g>
  <path class="pastBennettSleeves" d="M87.31,104.12c.15-.04,.26,.2,.49-.05,.28-.32,.58-.67,.91-.94,1.66-1.34,3.35-2.63,5.15-3.78,1.91-1.23,3.73-2.62,5.79-3.6,2.61-1.24,5.08-2.91,8.08-3.19,.06,0,.1-.15,.15-.22l.39,.23c1.31,.64,2.52,1.46,3.83,2.12,1.64,.83,3.37,1.34,5.1,1.89,2.21,.71,4.47,1.11,6.78,1.31,.72,.06,1.16,.55,1.05,1.53-.19,1.76,.55,3.39,.62,5.09,.07,2.01,.93,3.79,1.36,5.69,.22,.96,.71,1.87,1.13,2.78,.58,1.25,1.43,2.38,1.69,3.78,.03,.14,.13,.27,.23,.38,1.25,1.4,2.18,3.06,3.6,4.33,2.2,1.97,4.45,3.83,7.25,4.93,.53,.21,.99,.62,1.55,.82,.05,.02,.15-.09,.23-.14l-.15,.23c.05,1.67-.03,3.36,.19,5,.25,1.82,.15,3.67,.45,5.47,.28,1.65,.03,3.29,.19,4.93,.15,1.61,.09,3.24,.27,4.85,.28,2.54,.4,5.08,.52,7.63,.07,1.44,.02,2.89,.25,4.31,.14,.86,.67,1.59,1.23,2.22,1.35,1.53,2.85,2.83,4.9,3.44,1.7,.5,3.26,.22,4.86-.26,2.08-.63,3.85-1.83,5.61-3.02,.73-.5,1.36-1.27,1.64-2.01,.73-1.94,1.76-3.77,2.01-5.91,.4-3.31,.88-6.6,.66-9.94-.11-1.75-.18-3.5-.41-5.24-.19-1.45-.48-2.9-.52-4.38-.02-.8-.29-1.58-.39-2.39-.17-1.37-.45-2.72-.67-4.09-.03-.19-.05-.4,.06-.62,1.14-2.15,2.24-4.32,3.42-6.45,.21-.39,.16-.71,.04-1.01-1.22-3.05-2.26-6.16-3.37-9.25-.57-1.59-1.09-3.2-1.71-4.77-.27-.69-1.04-.97-1.61-1.39-3.45-2.53-6.92-5.04-10.39-7.55-2.28-1.65-4.57-3.29-6.85-4.93-.21-.15-.4-.32-.57-.45-1.96,.56-3.93,.82-5.91,.99-2.45,.21-4.89,.02-7.32-.24-1.28-.14-2.64-.06-3.83-.43-1.51-.46-3.07-.67-4.59-1.09-1.43-.4-2.82-.93-4.19-1.45-.99-.38-1.96-1.07-2.61-1.97-.43-.6-.93-.47-1.41-.4-.22,.03-.46,.11-.7,.11-1.96,.02-3.9,.27-5.85,.34-1.44,.06-2.87,.3-4.31,.28-1.67-.03-3.07,.77-4.29,1.72-2.59,2.02-5.09,4.19-6.77,7.07-.85,1.45-1.69,2.91-2.3,4.51-.48,1.27-.95,2.53-1.19,3.87l.23-.69Z"/>
  <g class="clothesOverlapLine">
    <path d="M98.48,219.73c.13,1.08,.21,2.16,.4,3.23,.14,.77,.21,1.54,.22,2.31"/>
    <path d="M118.74,221.96c-.36,.1-.71,.25-1.08,.3-1.43,.21-2.84,.34-4.31,.31-1.72-.04-3.39-.39-5.08-.51-.97-.07-1.81-.58-2.77-.63,0,0-.37,.09-.61,0-1.45-.54-2.95-.91-4.47-1.23-1.21-.26-2.41-.58-3.62-.84-2.17-.46-4.38-.72-6.55-1.22-1.55-.36-3.09-.83-4.52-1.45-1.75-.77-3.28-2-4.79-3.2-.26-.21-.65-.38-.63-.83"/>
    <path d="M142.23,118.68c0,2.88,.13,5.75,.31,8.63"/>
  </g>
  <g class="fur">
    <path d="M164.18,105.28c.75,.28,1.33-.29,2-.39,1.86-.26,3.46-1.13,4.83-2.33,1.04-.9,2.15-1.72,3.05-2.81,1.07-1.29,2.29-2.45,3.21-3.87,.59-.92,1.1-1.87,1.92-2.63,.56-.51,1.21-.85,1.85-1.24,1.97-1.22,4.01-2.32,5.68-4.02,.82-.83,1.47-1.73,2.1-2.67,.49-.73,.44-.97-.23-1.53-.79-.66-1.73-.98-2.69-1.33-1.59-.58-3.23-.99-4.86-1.43-.62-.17-1.28-.2-1.92-.24-1.21-.08-2.23-.36-3.2-1.28-1.27-1.21-2.23-2.69-3.58-3.82-1.6-1.33-3.19-2.67-4.82-3.97-.91-.72-1.9-1.33-2.82-2.02-.68-.51-.9-1.14-.92-1.94-.04-1.28-.36-2.52-.6-3.78-.32-1.67-.63-3.32-1.44-4.87-.5-.96-1.23-1.58-2.13-1.95-.75-.32-1.59,.07-2.12,.6-1.3,1.29-2.55,2.66-3.39,4.3-.76,1.47-1.68,2.87-2.29,4.4-.9,2.26-2.61,3.74-4.31,5.34-1.45,1.38-2.9,2.8-4.01,4.55-.65,1.02-1.23,2.09-1.83,3.14-.58,.99-.83,2.19-.98,3.36-.1,.77-.26,1.54-.38,2.31-.18,1.13-.11,2.26-.06,3.39,.08,1.7,.35,3.38,.07,5.09-.11,.66,.15,1.33,.39,1.91,.74,1.74,1.78,3.29,3.21,4.55,.87,.77,1.71,1.59,2.63,2.29,.83,.63,1.7,1.22,2.67,1.66,.96,.43,1.94,.76,2.94,1.04,1.56,.45,3.17,.35,4.77,.29,.29-.01,.47-.02,.7,.17,1.21,1.01,2.17,2.2,3.02,3.54,.84,1.32,1.54,2.67,1.99,4.17,.12,.39,.07,.69-.25,.84-1.94,.88-2.44,2.69-2.72,4.49-.26,1.69-.17,3.46,.27,5.15,.2,.79,.66,1.47,1.07,2.16,.42,.71,.63,1.49,1.29,2.1,1.54,1.42,3.32,1.9,5.33,1.67,1.93-.22,3.73-.87,5.31-2.01,.98-.7,1.48-1.79,1.68-2.92,.52-2.86-.12-5.55-1.33-8.17-.8-1.72-1.94-3.18-3.04-4.68-1-1.38-2-2.77-3.09-4.07-.72-.85-1.62-1.56-2.45-2.33l-.54-.23Z"/>
    <path d="M99.56,79.32c-.75,.58-1.59,1.05-2.08,1.92-.99,1.77-1.36,3.58-.96,5.63,.33,1.7,1.35,2.46,2.82,2.82,.71,.18,1.48,.14,2.23,.17,2.17,.09,4.27-.42,6.4-.71,1.71-.23,3.14-1.03,4.69-1.59,2.23-.8,3.19-2.63,3.95-4.69,.53-1.45,.89-2.94,1.43-4.42-.32-.02-.58-.05-.83-.05-2.46-.05-4.93-.08-7.39-.17-1.16-.04-2.32-.12-3.46-.32-1.63-.28-3.11,.2-4.63,.62-.73,.2-1.37,.55-2.07,.79h-.08Z"/>
  </g>
  <path class="furOverlapLine" d="M164.18,105.35c-1.48,.34-2.98,.09-4.47,.07-.67,0-1.34-.05-2-.07"/>
  <g class="pastBennettShoe">
    <path d="M94.86,354.58c-.13,.45,.21,.77,.33,1.15,1.8-.3,3.62-.49,5.45-.71,1.62-.2,3.23-.42,4.85-.61,1.83-.22,3.64-.52,5.47-.75,1.43-.18,2.88-.29,4.31-.47,1.31-.17,2.61-.37,3.93-.47,1-.07,1.16-.97,1.29-1.69,.34-1.9,.43-3.84,.32-5.77-.15-2.79-.66-5.55-.97-8.32-.21-1.87-.76-3.68-.9-5.55-.09-1.14-.4-2.2-.6-3.31-.12-.7-.75-1.08-1.36-1.39-1.19-.6-2.38-1.26-3.7-1.43-1.7-.22-3.38-.57-5.17-.23-1.87,.35-3.59,.99-5.31,1.73-1.18,.5-1.77,1.47-2.02,2.57-.14,.63-.32,1.28-.47,1.9-.58,2.4-1.05,4.82-1.77,7.18-.44,1.45-.92,2.88-1.43,4.3-.68,1.91-1.13,3.87-1.54,5.85-.35,1.66-.68,3.32-.86,5.01-.04,.33-.12,.63,.09,.93l.08,.08Z"/>
    <path d="M23.08,331.09c.61-1.17,.91-2.45,1.3-3.7,.6-1.91,.96-3.93,1.76-5.75,.71-1.63,1.43-3.28,2.22-4.89,1.24-2.52,2.78-4.92,3.63-7.61,.48-1.51,.81-3.06,.73-4.69-.12-2.43-1.21-4.32-3.02-5.85-1.85-1.57-4.04-2.45-6.4-2.8-.85-.13-1.87,.14-2.67,.52-1.98,.93-3.75,2.16-5.2,3.87-1.02,1.2-2.28,2.18-3.44,3.26-1.6,1.49-3.19,2.99-4.41,4.84-.29,.44-.21,.68,.02,1.02,2.59,3.67,5.19,7.34,7.78,11.01,2.57,3.64,5.14,7.29,7.7,10.94v-.15Z"/>
  </g>
  <g class="soleWhite">
    <path d="M96.02,351.12c-.08,.82-.59,1.48-.88,2.22-.38,.97-1.05,1.83-1.5,2.79-.85,1.85-1.43,3.75-1.28,5.85,.05,.75-.06,1.55,.06,2.3,.23,1.47,.29,1.96,1.79,3.21,2.18-.69,4.34-1.37,6.5-2.05,2.65-.84,5.29-1.69,7.93-2.54,2.9-.94,5.8-1.9,8.7-2.85,.39-.13,.8-.31,1.16-.35,1.16-.13,1.23-.97,1.38-1.81,.28-1.53,.3-3.08,.38-4.62,.04-.91-.05-1.82-.24-2.69-.32-1.44-1.52-2.11-2.68-2.78-3.2-1.84-6.66-2.72-10.32-2.94-2.32-.14-4.58,.17-6.6,1.28-1.19,.65-2.4,1.43-3.11,2.73-.4,.74-.99,1.37-1.3,2.16v.08Z"/>
    <path d="M18.61,339.03c.56-.12,1.04-.36,1.39-.84,.51-.69,1.18-1.26,1.66-1.95,1.21-1.73,1.8-3.66,1.52-5.84-.14-1.09-.61-2.07-.75-3.15-.11-.83-.09-1.67,.05-2.46,.26-1.49,.43-3,.31-4.47-.14-1.66-.72-3.22-1.59-4.73-1.02-1.76-2.33-3.21-3.77-4.57-.75-.72-1.76-1.13-2.67-1.64-1.55-.86-3.23-1.32-4.94-1.67-1.11-.23-2.2,.01-2.91,.99-1.63,2.22-3.21,4.46-4.04,7.15-.22,.71-.13,1.13,.31,1.72,4.55,6.08,9.08,12.19,13.56,18.33,.75,1.03,1.51,2.01,2.48,2.84l-.62,.31Z"/>
  </g>
  <g class="soleWhiteDark">
    <path d="M94.17,367.21c.81,1.27,2.19,1.54,3.47,2,1.77,.64,3.62,.78,5.47,1.02,2.04,.26,4.07,.14,6.08-.12,2.17-.28,4.39-.53,6.39-1.52,1.91-.95,3.41-2.34,3.99-4.46,.27-1.02,.29-2.1-.03-3.16-.08-.28-.08-.65-.05-1,.14-2.15-.4-4.14-1.75-5.84-.36-.46-.8-.85-1.37-1.1-.99-.43-1.85-1.13-2.93-1.38-2.8-.65-5.6-.92-8.48-.51-.97,.14-1.89,.41-2.84,.58-1.25,.22-2.33,.7-3.16,1.7-.89,1.06-1.43,2.23-1.46,3.63-.02,.75-.06,1.5-.29,2.24-.31,1.02-1.08,1.69-1.71,2.46-.81,.99-1.44,2.06-1.79,3.31-.21,.75,.21,1.34,.32,2.01l.15,.15Z"/>
    <path d="M18.85,329.86c-.09-1.98,.06-3.97-.05-5.93-.14-2.49-1.14-4.72-2.94-6.56-1.15-1.18-2.38-2.33-3.82-3.01-2.01-.95-4.2-1.7-6.52-.84-1.22,.46-2.08,1.3-2.79,2.38-.71,1.08-.62,2.21-.63,3.4,0,1.67-.05,3.33-.71,4.94-.31,.76-.78,1.47-.85,2.37-.06,.81-.09,1.63,.07,2.38,.52,2.32,1.64,4.41,2.92,6.38,.44,.69,1.13,1.23,1.75,1.78,1.17,1.03,2.28,2.13,3.69,2.86,1.68,.87,3.47,1.38,5.32,1.49,1.24,.07,2.46-.28,3.49-1.24,.98-.92,1.56-2.03,2.13-3.19,.19-.38,.23-.8,.24-1.23,.04-1.82-.54-3.5-1.17-5.16-.1-.26-.14-.51-.14-.78v-.08Z"/>
  </g>
</svg>