<svg viewBox="0 0 157.11 367.31">
  <path class="dullPastDark" d="M121.05,195.97c4.39,12.48,.3,34.4-5.41,53.12-1.85,6.05,3.69,10.84,.19,16.15,2.54,1.14,3.21,3.48,3.62,6.53,.27,2.03,5.12,8.41,9.9,15.04,3.45,4.78,7.59,9.32,11.22,11.71s3.52,5.99,.58,9.01l-16.46,11.73c-7.18,.7-8.05-3.97-12.29-11.58-2.55-4.59-7.17-9.89-10.91-13.63,2.11,14.17,3.89,25.01,6.42,34.02,1.18,4.19,1.25,8.21-2.53,9.53-6.46,2.25-13.69,2.1-20.48,.91-4.12-.73-5.24-2.68-4.41-6.48,2.21-10.09-3.14-29.23-8-51.64-7.81-36.02-14.27-60.31-11.04-84.77l59.61,.36Z"/>
  <g class="bennettFoldLine">
    <path d="M115.82,265.24c-3.67-.84-7.39,.33-11.14,2.89"/>
    <path d="M100.04,274.6c-3.89,2.5-7.89,2.39-11.24,2.83"/>
  </g>
  <g class="dullPastDarker">
    <path d="M121.58,336.14c2.66-5.98,2.74-10.07,.94-19.04-.76-3.77,11.69-12.34,15.37-11.41,4.72,1.2,10.09,6.89,14.3,12.3-14.17,15.92-32.76,42.82-30.61,18.15Z"/>
    <path d="M73.09,350.29c4.75-.54,9.31-5.78,11.8-11.79,7.98,1.35,14.43,1.21,20.48-.91,3.02,5.73,4.34,15.01,3.8,20.46-7.74,11.95-61.49,7.54-36.08-7.77Z"/>
  </g>
  <g class="whiteMedium">
    <path d="M120.37,357.8c-7.16-6.94-1.79-14.67,1.21-21.65,.89,2.53,2.12,4.63,3.76,6.23,10.07-6.77,18.2-25.29,26.85-24.38,1.79,1.32,3.23,2.88,4.08,4.83l-35.91,34.97Z"/>
    <path d="M109.17,358.06c.22,1.74,.3,6.33,0,6.9-4.36,3.12-16.92,1.45-25.04,1.09s-17.49,1.31-22.29-2.76c-.9-9.16,4.09-12.21,11.25-12.99-2.89,2.75-4.86,6.09-3.84,9.35,5.54,1.1,11.46,.3,17.13,.59,7.84,.4,17.36,.99,22.79-2.18Z"/>
  </g>
  <ellipse class="dullPastMediumLight" cx="132.31" cy="322.39" rx="4.32" ry="5.16"/>
  <path class="whiteDark" d="M156.27,322.82c2.28,2.12-7.73,11.39-11.92,17.83-4.49,6.91-10.08,12.83-18.69,16.54-4.9,2.11-7.23,.82-4.51-2.79,6.27-8.35,12.13-9.65,16.86-15.79,8.27-10.74,14.26-18.32,18.26-15.79Z"/>
  <g class="dullPastLight">
    <path d="M105.46,95.17h-30.67c1.06-2.77,1.79-5.56,1.96-8.34-13.33-4.39-15.15-12.71-15.71-22.67-.26-4.54,.89-7.17,.11-12.42-.55-3.69-.67-9.78-.02-12.93l52.06,5.2c-5.28,22.82-13.99,36.44-7.73,51.16Z"/>
    <path d="M146.35,164.35c.09,16.63-1.3,27.96,0,34.1,1.06,5,4.91,8.41,3.78,15.3-.46,2.78-1.89,3.87-2.46,8.12-.33,2.48-1.61,4.22-4.35,4.72-4.52,.82-9.32-.06-10.58-2.65-1.09-2.24-.06-4.08-1.42-7.46-2.08-5.2,4-13.99,4.25-18.04,.24-3.8-4-22.61-4.63-33.06l15.4-1.04Z"/>
    <path d="M35.55,156.19c-7.44,10.3-15.41,23.85-17.08,26.18-1,1.4-15.35,5.12-16.08,11.5-.32,2.75-2.49,4.08-1.73,7.11,.8,3.19,2.54,2.56,4.12,4.05,3.79,3.59,11.08,3.69,13.16-.53,1.86-3.79,5.31-5.05,7.44-10.17,1.66-3.99,.33-3.94,2.99-7.71,2.86-4.05,11.56-11.16,20.33-20.93l-13.16-9.5Z"/>
  </g>
  <path class="whiteLight" d="M123.13,195.66c-11.3,16.31-34.25,16.73-46.61,6.6-6.52-5.34-14.19-5.61-16.87-.08-.78-6.15,2.11-22.4,2.11-37.34,0-16.28,.34-35.57,1.85-53.35,29.19-22.47,49.21-24.98,57.67,.42,5.2,18.79-1.67,53.71,1.86,83.74Z"/>
  <path class="dullPastMediumDark" d="M48.83,167.63c-3.36,1.64-15.14-5.59-14.53-11.95,2.38-2.4,5.05-5.76,6.69-9.56,1.79-4.13,6.91-26.58,11.84-38.59,3.86-9.39,9.62-13.34,22.57-17.75,10.35,4.54,21.44,4.41,29.14,.17,8.11,5.13,15.04,4.69,21.72,16.2,5.07,8.75,15.94,33.75,18.22,41.75,1.45,5.07,2.51,9.23,3.07,16.78-.94,3.22-14.24,5.5-18.41,2.17-.16-4.62-.34-7.88-1.61-11.64-.94-2.78-2.35-4.36-4.58-8.39,.41-8.75,.44-16.13-.04-24.53-5.74-11.13-12.01-19.96-18.79-26.53-4.37,1.98-11.34,2.5-15.78,2.12-2.8,13.26-11.05,23.87-20.39,27.15-3.14,10.21-6.83,19.57-9.89,27.67-2.36,6.25-5.36,10.61-9.23,14.93Z"/>
  <path class="dullPastDarkest" d="M99.47,73.82c-4.66-5.55-11.67-.34-20.69-12.42,2.2-3.65,2.33-7.79,1.4-10.57-1.02-3.05-6.56-4.31-7.88,1.55-1.71-.1-3.56-.3-5.53-.45,.03-1.42,.11-4.39-.62-5.61-13.83-5.31-6.89-23.79-.42-28.97,12.25-9.81,25.28-9.61,38.72-5.03-1.11-4.38-4.02-8.39-7.63-11.4,6.4,1.41,11.62,5.81,14.67,13.66,4.87-3.34,10.69-4.74,15.21-2.39-3.99,.67-7.36,3-10.18,6.79,10.67,9.6,10.27,34.75-1.76,45.38-8.28,7.32-11.82,5.9-15.28,9.45Z"/>
  <g class="bennettOverlapLine">
    <path d="M78.77,61.4c-.46,.83-2.77,4.24-4.79,2.68"/>
    <path d="M76.22,78.48c.15,1.36,.37,2.72,.44,4.08,.05,1,.31,3.32,.02,4.31"/>
    <path d="M115.22,220.91c-5.38,4.69-9.28,4.14-14.35,5.11-5.73,1.09-10.76,3.04-18.22,.41"/>
    <path d="M100.87,226.02c.55,25.53-2.21,26.91,.41,43.89,.4,2.59-.16,4.2-1.24,4.69,1.79,6.76,.55,13.25,1.44,19.44"/>
    <path d="M72.75,46.37c-1.43,.44-4.3,.51-6.6-.04"/>
    <path d="M104.44,12.33c.36,1.43,.55,2.7,.56,3.62"/>
    <path d="M111.48,14.59c.37,1.03,.62,1.69,.74,2.43"/>
  </g>
  <path class="bennettDisplayLine" d="M61.15,51.74c-.73,.01-1.19-.14-1.96-.71"/>
</svg>