<svg viewBox="0 0 319.42 99.61">
  <path class="dullPastMediumDark" d="m242.94,57.04c-27.46,0,11.8,46.23,15.29,16.6.64-5.47-7.77-13.87-15.29-16.6Z"/>
  <g class="dullPastLight">
    <path d="m256.57,73.52c3.13,9.75,6.38,10.92,11.43,14.92-82.2,10.48-17.43-33.62-11.43-14.92Z"/>
    <path d="m272.2,84.1c6.73.16,14.94-.54,17.74-.93,1.55-.22,8.45-6,12.03-6.02,6.68-.03,13.23,3.58,15.69,6.71,1.06,1.35,2.2,6.26-.08,7.66-2.07,1.27-7.94-2.04-11.52-.54,0,0-6.71,2.54-11.43,1.03-3.47-1.11-9.82,1.85-21.36,4.77l-1.09-12.69Z"/>
  </g>
  <path class="dullPastDarker" d="m49.09,58.92c5.17-1.39,10.01-1.54,14.45-.15,4.33,1.97,4.9,6.28,2.4,12.06l-13.23-1.34-3.62-10.57Z"/>
  <path class="whiteMedium" d="m43.02,60.7c2.02-1.07,4.04-1.77,6.07-1.78,4.68.79,6.13,9.76,2.57,11.8l-9.69,2.77"/>
  <path class="whiteDark" d="m30.43,70.85c2.77-4.42,4.22-4.48,6.72-6,2.57-1.56,2.9-3.36,5.87-4.15,6.14-1.64,8.77,11.41-1.05,12.79l-11.54-2.64Z"/>
  <path class="dullPastDark" d="m153.09,89.07c-19.43,3.79-33.25,3.62-43.83,2.77-18.45-1.48-29.42.91-51.99-1.25-8.18-.79-16.11,1.71-20.49-1.51-5.97-6.92-1.38-21.91,6.15-19.46,3,.98,6.48-.16,9.77-.12,4.42.05,8.1.57,14.14-1.03,1.41-4.83.3-8.06-3.31-9.69,5.02-4.9,7.18-2.63,10.26-2.17,3.76.57,15.53-.32,19.27-1.6,2.62-.34,5.69-4.17,9.46-3.76,8.44.91,24.42-16.08,49.72-7.98l.83,45.81Z"/>
  <path class="dullPastMediumDark" d="m199.71,29.39c4.87.87,8.73,4.76,11.85,10.85-13.41,12.49-17.69,9.43-11.85-10.85Z"/>
  <path class="whiteLight" d="m216.79,88.39c-11.33,2.16-25.89,4.29-42.48,3.32-8.62-.5-17.37.58-22.92-.3-5.72-.9-2.08-6.43-.91-11.7,4.2-18.85-13.88-27.15-1.43-38.25,25.36,4.76,56.95-4.51,77.71,1.88,5.37,11.74,2.16,26.71-9.98,45.04Z"/>
  <path class="dullPastMediumDark" d="m226.77,43.35c12.01,3.9,8.05,14.17,14.15,20.32,5.21,5.25,6.69,7.99,9.15,10.72,3.1,3.44,8.09,7.04,11.73,8.95,2.34,1.22,6.32-.18,9.97-.18,4.52,0,3.73,13.88.78,14.71-4.83,1.36-12.95,1.5-16.67.9-7.76-1.27-21.44-10.62-27.25-11.02-2.13-.15-7.34-.3-11.83.65-9.45-14.35,1.63-29.26,10.78-32.95-1.93-3.81-2.32-8.16-.81-12.09Z"/>
  <g class="dullPastLight">
    <path d="m256.46,81.82c-.12-5.01,5.45-4.36,8.3-3.6,3.87,1.03,7.75,2.13,7.43,8.3-.16,3.09-4.18,4.6-8.69,4.37-10.17-.52-6.91-3.36-7.04-9.07Z"/>
    <path d="m237.1,41.3c-1.37,2.34-3.16,4.2-5.42,5.49-.87,7.25,6.49,14.34,10.28,17.94,1.2-1.06,2.54-2.32,3.99-3.38,2.5,2.98,6.58,4.54,9.92,4.02,15.44-2.4,15.26-14.7,23.03-18,2.23-15.31-39.57-21.4-41.8-6.08Z"/>
  </g>
  <path class="dullPastDarkest" d="m237.1,41.3c.16-4.57-4.81-9.54,1.76-22.47,3.23-6.34,10.66-13.15,23.7-12.05-.1-1.67-.94-3.57-2.09-5.55,2.55,1.32,4.61,3.32,6.12,6.09,12.33,3.59,23,14.59,22.95,27.77-.03,8.58-7.58,15.61-16.34,10.95-2.25-.06-4.3.46-6.13,1.63-1.08-.79-2.17-1.58-3.27-2.37,1.9-5.97-7.97-8.43-10.37.74-6.96,1.37-12.4-5.3-16.34-4.74Z"/>
  <path class="dullPastDarker" d="m24.28,68.99c5.32.13,10.72,1.47,14.35,3.78,4.24,2.71,3.24,13.19-2.16,15.43-3.27,1.35-7.45.74-11.42,1.31-2.67.39-5.4,2.31-8.33,2.08l7.56-22.6Z"/>
  <path class="whiteMedium" d="m16.34,69.91c2.63-.98,5.27-1.34,7.95-.93,6.17,4.86,3.63,13.42-1.31,17.44-2.31,1.88-3.66,3.74-6.25,5.17-3.89,1.24-7.95,1.23-10.34.62l9.95-22.3Z"/>
  <path class="whiteDark" d="m22.51,79.94c-.94,3.41-5.49,6.55-7.25,8.1-2.85,2.51-4.32,4.47-8.87,4.17-5.62-.38-7.33-7.95-4.63-15.04,1.07-2.8,5.32-4.47,9.03-3.78,2.55.48,3.18-2.75,5.55-3.47,4.55-1.39,7.56,5.01,6.17,10.03Z"/>
  <g class="dullPastMediumDark">
    <path d="m176.01,36.86c-4.38,2.68-8.01,5.52-8.96,8.07-.9,2.39-2.99,9.66-1.39,11.65,1.1,1.38,4.68,1.06,7.07-.2,1.69-.9,2.09-3.49,2.6-8.66.19-1.98.89-2.79,2.78-3.79l-2.09-7.07Z"/>
    <path d="m174.62,32.88c-1.47-4.03-1.77-7.25-.3-9.46,2.09-.6,6.13,1.59,8.96,3.78,3.3-.81,5.42-.96,8.16-.7,3-3.7,5.83-5.78,8.46-5.97,1.57,1.8,1.85,4.53,1,8.07,1.8,6.77,2.17,13.02-2.69,17.43-2.29,1.89-2.29,4.76-8.07,5.68-5.68.9-7.07-2.69-9.46-3.58-4.58-1.99-6.17-10.95-6.07-15.23Z"/>
    <path d="m215.54,39.66c.7,1.19.75,5.56-1.29,6.87-2.79,1.79-9.97-.81-10.26-3.78-.2-2.09,2.41-5.23,4.48-5.87,1.59-.5,6.03,1,7.07,2.79Z"/>
  </g>
  <g class="bennettOverlapLine">
    <path d="m262.31,15.17c.58-2.75.67-5,.25-8.39"/>
    <path d="m267.52,21.84c4.68-1.28,8.27.35,10.84,4.69-.45-6.28-4.44-9.59-10.11-10.94.21-3.25-.47-5.54-1.65-8.27"/>
    <path d="m273.2,46.04c-1.46-.82-2.76-2.29-3.54-3.53"/>
    <path d="m127.9,48.29c-2.86,4.09-2.56,6.47-2.39,9.89.12,2.41-.64,4.81.7,7.34"/>
    <path d="m125.51,58.18c-12.75,3.01-22.09,6.49-27.35,7.03-4.4.45-8.5-2.7-11.36,3.24-3.09-1.47-13.06-1-19.96,0"/>
    <path d="m245.94,61.36c-.56-.6-1.78-1.97-2.07-2.56"/>
    <path d="m253.43,46.04c-.41,2.19.25,3.79,1.95,4.81"/>
  </g>
  <g class="bennettFoldLine">
    <path d="m86.81,68.45c3.76,2.37,4.55,6.44,3.71,11.43"/>
    <path d="m98.86,56.32c2.02,2.65,3.06,5.39,2.93,8.24"/>
  </g>
  <path class="bennettDisplayLine" d="m273.89,51.73c.2.2.67.52,1.02.62"/>
</svg>