<svg viewBox="0 0 81.85 84.14">
  <g class="dullPastLight">
    <path d="m21.71,78.09c-.71-13.59-3.84-26.55-3.35-38.58.18-4.39,6.83-10.22,6.26-18.68-.33-4.94-3.52-4.11-4.18-1.81-2.87,10.06-7.43-.17-4.61-11.93,2.19-9.12-5.24-9.11-7.22,2.1-5.58,1.43-11.08,10.44-6.29,20.59,2.86,6.07,5.01,7.65,4.88,11.59-.24,7.7-3.17,27.51-2.93,38.4l17.43-1.69Z"/>
  </g>
  <path class="bennettOverlapLine" d="m8.62,9.2c-.26,1.77-.46,4.67-.22,6.61"/>
  <path class="dullPastMediumDark" d="m3.9,83.63c-.64-4.23-.89-7.72-.87-9.87.83-3.92,19.74-4.17,19.95-1.66.36,4.16,1.1,7.84,2.07,11.53H3.9Z"/>
  <path class="dullPastDarkest" d="m33.65,75.26c-2.87,2.49-3.74,4.51-4.31,8.38l49.46-.04c-.77-2.59-1.73-5.26-3.64-6.92,2.97.97,4.71.27,5.75-.56-5.36-2.51-13.42-13.42-18.66-3.19-4.08-14.98-20.47,2.48-31.28-3.71,0,2.2-.1,4.12,2.68,6.04Z"/>
</svg>