<svg viewBox="0 0 114.1 191.39">
  <path class="dullPastDark" d="m.5.5C25.85.5,41.71.19,41.71,34.85c6.85,16.08,12.27,34.32,16.68,48.22,1.48,4.67,6.14,6.42,4.71,10.03,11.2,9.04,11.97,22.37,25.49,35.21,3.67,3.49,10.16,7,6.21,13.47s-11.16,11.31-18.32,13.38c-4.28,1.24-5.98-.22-8.21-4.61-12.17-24.06-27.63-32.17-35.03-45.42C21.82,84.68,7.65,57.18.5,37.11V.5Z"/>
  <path class="whiteMedium" d="m109.16,154.77c1.34,1.6,3.18,3.76,4.12,5.33l-32.24,30.79h-14.38c-2.16,0-3-1.73-3.17-2.54-1.46-6.96,2.41-11.46,9.85-14.17,0,0,29.47-25.77,35.83-19.41Z"/>
  <path class="dullPastDarker" d="m76.41,153.49c-.67-3.67,12.77-13.72,16.12-12.16,6.93,3.24,11.87,7.23,16.63,13.44-14.18,4.19-18.62,23.97-31.62,29.09-2.69-2.48-4.81-4.91-4.21-9.68,3.67-4.66,4.42-13.38,3.08-20.69Z"/>
  <path class="whiteDark" d="m78.11,190.89c1.74-.36,3.64-1.4,5.61-3.33,4.74-4.66,9.34-7.68,12.91-12.66,5.02-7,14.05-16.81,16.65-14.8,2.38,1.84-8.72,12.16-15.72,18.9-3.87,3.72-5.09,6.08-9.29,9.82-.57.51-2.6,2.08-4.31,2.08h-5.84Z"/>
  <path class="bennettFoldLine" d="m63.1,93.1c-7.55-.7-13.66,1.77-17.71,8.78"/>
  <ellipse class="dullPastMediumLight" cx="87.93" cy="158.65" rx="4.89" ry="5.32"/>
</svg>