<svg viewBox="0 0 109.02 167.8">
  <path class="dullPastDark" d="M.5,.5H40.09c3.23,8.15-1.29,17.35-.34,18.19,6.53,15.32,11.69,32.68,15.89,45.92,1.41,4.45,5.84,6.12,4.48,9.55,10.67,8.61,11.4,21.3,24.27,33.54,3.49,3.32,9.68,6.66,5.91,12.83s-10.63,10.77-17.45,12.75c-4.07,1.18-5.7-.21-7.82-4.39-11.59-22.92-26.32-30.64-33.36-43.26C20.81,66.15,7.31,39.96,.5,20.84V.5Z"/>
  <path class="whiteMedium" d="M103.99,132.9c1.27,1.52,3.03,3.58,3.92,5.07l-30.71,29.32h-16.02c-2.9-8.02,.77-13.03,8.68-15.91,0,0,28.06-24.54,34.12-18.48Z"/>
  <path class="dullPastDarker" d="M72.79,131.68c-.64-3.5,12.16-13.07,15.35-11.58,6.6,3.08,11.31,6.88,15.84,12.8-13.5,3.99-17.74,22.82-30.11,27.71-2.56-2.36-4.58-4.68-4.01-9.22,3.5-4.44,4.21-12.75,2.93-19.7Z"/>
  <path class="whiteDark" d="M77.2,167.3c4.4-5.16,11.09-9.98,14.85-15.23,4.78-6.67,13.47-16.11,15.86-14.1,3.2,2.69-6.8,11.58-13.47,18-4.18,4.03-6.05,6.98-11.33,11.33h-5.91Z"/>
  <path class="bennettFoldLine" d="M60.12,74.16c-7.19-.66-13.01,1.69-16.87,8.36"/>
  <ellipse class="dullPastMediumLight" cx="83.77" cy="136.6" rx="4.66" ry="5.07"/>
</svg>