<svg viewBox="0 0 236.65 368.15">
  <path class="pastBennettShoe" d="M114.71,320.82c-3.56,3.63-10.34,7.41-9.8,14.02l40.82-8.16c.13-1.87-.55-3.87-1.32-5.85h-29.69Z"/>
  <path class="soleWhiteDark" d="M110.61,339.96c-1.7,.58-3.76,.35-4.16-.19-1.67-3.28,.68-3.82,4-3.7l.16,3.89Z"/>
  <path class="soleWhite" d="M145.73,326.67c.57,.95,.62,4.62-1.08,5.39l-34.2,4.93c-1.71,.71-3.85,1.54-4,2.77-1.39-1.08-1.85-3.23-1.54-4.93s5.9-2.99,14.17-7.55c7.55-4.16,25.3-2.86,26.65-.62Z"/>
  <path class="metalDark" d="M112.49,320.82l.15,19.72s2.28,.3,3.26-.12c1.03-.45,2.1-1.58,2.1-3.27l-.82-16.33h-4.69Z"/>
  <g class="metalLight">
    <path d="M84.88,184.19H44.53l-7.24-3.75c.92,2.36,.83,6.12-.25,8.22l5.65,2.93h19.1v7.7h7.09v-7.7h16.79l-.77-7.39Z"/>
    <path d="M109.91,320.82l1.01,18.02c.15,3.08,4.31,1.69,4.31-1.69l-.82-16.33h-4.5Z"/>
  </g>
  <g class="rubberDark">
    <path d="M59.93,320.81c0,.05,0,.1,0,.16,.05,8.5-.31,16.41-1.25,23.22,1.29,.54,2.73,.82,4.33,.81,10.69-.11,14.25-9.67,15.44-24.18h-18.52Z"/>
    <path d="M212.27,274.3c15.08,1.39,20.02,22.64,19.87,46.67-.15,23.88-3.08,46.32-19.87,46.67-14.79,.31-20.66-16.94-20.95-46.67-.31-31.42,7.55-47.91,20.95-46.67Zm-6.78,46.52c0,13.7,2.41,24.8,5.39,24.8s4.47-11.1,4.47-24.8-1.49-24.8-4.47-24.8-5.39,11.1-5.39,24.8Z"/>
    <path d="M26.81,320.97c-.15,21.57,2.46,46.21,16.33,46.67,13.24,.44,16.94-20.33,16.79-46.67-.15-27.42-5.08-45.75-16.79-46.67-11.53-.91-16.04,7.08-16.33,46.67Z"/>
    <polygon points="145.55 338.76 131.16 343.89 110.81 344.38 122.72 339.09 145.55 338.76"/>
  </g>
  <polygon class="rubberMediumDark" points="122.22 330.98 110.48 336.94 110.81 344.38 122.72 339.09 122.22 330.98"/>
  <g class="rubberMedium">
    <polygon points="122.72 339.09 145.55 338.76 145.05 330.98 122.22 330.98 122.72 339.09"/>
    <path d="M34.98,190.19H3.4c-3.87,0-3.87-11.86,0-11.86h31.58c3.92,0,3.92,11.86,0,11.86Z"/>
  </g>
  <path class="pastBennettJeans" d="M97.05,206.52c-6.69-4.41-15.08-11.18-17.78-16.56-13.3,5.83-27.51,11.63-28.28,17.02l46.06-.46Z"/>
  <path class="shirtWhite" d="M78.72,188.65c1.61,4.82,8.8,11.16,15.41,15.87h58.38c.02-34.26-4.24-74.07-12.64-90.42-21.87-32.19-53.46-22.47-67.16,23.88,2.94,14.67,5.65,28.39,6.16,38.82,.31,5.24-1.05,9.18-.15,11.86Z"/>
  <path class="pastBennettSleeves" d="M117.39,91.15c10.48,1.01,18.48,13.4,22.49,22.95-8.01-7.55-16.3-14.07-23.41-16.79-4.8,1.43-9.78,2.35-14.94,2.46-2.93,14.17-10.78,25.72-23.88,28.65-3.26,11.98-8.23,28.82-12.63,35.12-3.65,5.23-7.09,10.73-11.24,11.4-4.48,.72-10.74-3.97-12.32-10.32-.46-1.85-.34-3.71,1.54-5.39,2.2-1.96,5.57-6.6,7.24-10.63,3.77-9.11,5.21-19.99,8.47-32.35,2.16-8.16,4.8-14.63,12.48-18.79,4.69-2.54,9-3.95,14.79-5.08,10.38,2.86,21.52,1.86,31.42-1.23Z"/>
  <g class="pastSkinEastAsian">
    <path d="M68.25,63.73c-1.23,9.86,3.08,25.57,17.71,28.65,9.53,2.62,19.87,2,28.99-.52-2.29-7.71-.37-14.99,4.59-21.97l-52.37-26.8c-.15,8.01,2.16,12,1.08,20.64Z"/>
    <path d="M51.99,174.96c-4.15-.51-9.02-4.68-10.49-10.11l-8.69,8.09c-6.62-4.16-22.03-1.56-22.34,4.93-.13,2.77,2.62,5.85,4.78,7.39,1.78,1.27,4.05,2.17,6.53,2.49-2.1,2.08-1.25,4.54,1.48,4.6,4.23,.09,7.39-2.93,9.24-6.01,1.75-2.91,10.94-5.39,19.48-11.38Z"/>
  </g>
  <g class="skinOverlapLine">
    <path d="M81.19,66.66c-1.39,2.93-3.33,4.56-4.93,2.93"/>
    <path d="M85.96,92.38c.46-2.77,.62-6.78-.31-9.24"/>
    <path d="M32.82,172.94c-2.31,2-4.62,4.31-5.39,4.62"/>
    <path d="M21.73,187.73c2.49,.17,4.56-.32,6.47-1.08"/>
  </g>
  <path class="pastHairBlack" d="M120.93,17.83c4.81-3.17,10.78-2.99,17.41-.92-5.63,1.21-11.13,3.14-13.56,6.62,11.86,10.01,10.09,33.64-2.31,45.29-7.22,6.79-14.33,5.55-17.25,8.78-4.78-5.08-18.33-1.85-24.03-10.94,4.16-10.78-2.46-17.56-6.62-11.24l-2.46-.15c.11-2.18-.3-4.37-1.08-6.32-5.48-2.3-7.17-6.46-6.32-11.86,3.54-22.44,32.35-29.11,47.13-20.79-1-5.93-5.18-10.97-10.94-15.25,9.13,2.14,15.82,7.71,20.02,16.79Z"/>
  <path class="hairOverlapLine" d="M71.02,48.94c1.49,.72,3.04,1.27,4.62,1.69"/>
  <path class="pastOdinFur" d="M128.48,193.43c1.93,4.17-3.27,7.02-5.87,11.09h37.26c-.58-2.53-2.02-5.34-1.35-7.09,3.85-2.31,7.52-6.32,8.32-9.4,.89-3.4-1.99-7.24-2.77-11.24-.56-2.89-1.22-5.49-3.08-7.55,1.69-3.7,1.37-10.69-.46-11.71-2.4-1.33-7.8,3.43-10.32,7.39-4.16-.31-8.93,0-12.32,.92-1.51-3.06-6.03-7.64-7.55-7.24-3.3,.88-4.26,6.79-3.54,12.17,.54,4.02-3.73,10.95,1.69,22.64Z"/>
  <path class="rickshawDark" d="M58.3,298.02c1.05,6.54,1.58,14.22,1.63,22.8H195.51c7.57,0,13.73-6.11,13.78-13.69l.06-9.11H58.3Z"/>
  <path class="rickshawLight" d="M32.97,278.3c.95,1.36,.88,4.46,.92,6.62,.17,8.47,7.03,13.09,14.66,13.09H220.78c8.48,0,15.36-6.88,15.36-15.36v-62.77c0-8.48-6.88-15.36-15.36-15.36H54.96c-8.48,0-15.36,6.88-15.36,15.36v35.31h-2.51c-8.48,0-15.36,6.88-15.36,15.36v11.29c-.15,4.47,3.85,6.16,7.57,5.54,.59-2.93,2.13-7.24,3.67-9.09Z"/>
  <g class="rickshawOverlapLine">
    <path d="M212.1,345.18c-.75,1.36-1.67,2.28-3.09,2.95-1.29,.61-2.5,.63-3.73-.09-.54-.32-1.02-.75-1.37-1.25"/>
    <path d="M37.19,347.97c.52,.62,1.43,.67,2.09,.3,.85-.47,1.08-1.58,1.39-2.41,1.39-6.87,1.39-10.94,1.39-24.89s-.67-24.95-1.69-24.95"/>
    <path d="M32.97,278.3c-.77-2.62-2.62-4.62-5.24-4.16"/>
  </g>
  <g class="light">
    <path d="M61.16,268.14h17.1c11.46,0,11.46,17.41,0,17.41h-17.1c-11.5,0-11.5-17.41,0-17.41Z"/>
    <path d="M199.18,268.14h17.1c11.46,0,11.46,17.41,0,17.41h-17.1c-11.5,0-11.5-17.41,0-17.41Z"/>
  </g>
</svg>