<svg viewBox="0 0 397.79 128.66">
  <path class="pastBennettJeans" d="M185.36,50.32c-.64,.29-1.23-.13-1.76-.28-2.33-.65-4.68-.94-7.1-1.08-2.26-.13-4.48-.03-6.7,.23-1.74,.21-3.45,.6-5.16,.99-1.89,.43-3.77,.89-5.62,1.47-1.65,.52-3.26,1.17-4.85,1.84-2.3,.96-4.62,1.9-6.84,3.03-1.43,.73-2.98,1.26-4.29,2.11-1.66,1.08-3.57,1.6-5.24,2.64-.99,.62-2.25,.95-3.33,1.49-1.24,.62-2.5,1.12-3.79,1.59-1.42,.52-2.83,.56-4.32,.41-1.63-.16-3.27,.08-4.69,1.04-1.12,.76-2.11,1.69-3.18,2.51-.82,.63-1.82,1.01-2.9,1.21-1.58,.29-3.16,.57-4.71,1.01-1.25,.36-2.6,.4-3.92,.49-2.69,.19-5.39,.42-8.09,.44-2.26,.02-4.52,.3-6.78,.04-.55-.06-1.08-.26-1.52-.5-1.08-.58-2.27-.81-3.4-.75-.93,.04-1.93,.12-2.86,.53-.84,.37-1.72,.62-2.55,1.06-.95,.5-1.62,1.27-2.37,1.96-.19,.18-.18,.36-.17,.62,.03,3.47,.02,6.93,.02,10.4,0,.03-.05,.05-.15,.15H43.84c.15,.38,.12,.69,.12,1,0,7.5,0,14.99,0,22.49,0,.53,.15,.95,.45,1.4,.6,.92,1.32,1.71,2.1,2.45,1.4,1.33,3.17,1.74,5.01,1.92,2.36,.22,4.73,.04,7.08-.11,1.62-.1,3.24-.21,4.86-.23,1.38-.02,2.77,0,4.16,.03,.85,.01,1.7-.15,2.54-.13,2.31,.07,4.63,.13,6.93,.31,2.49,.19,4.99,.17,7.47,.39,2.49,.22,4.99,.27,7.47,.51,2.56,.24,5.13,.19,7.7,.1,1.46-.05,2.93-.06,4.39-.16,2.31-.16,4.62-.35,6.93-.36,1.13,0,2.26-.04,3.39-.04,.92,0,1.85-.05,2.77-.07,.54-.01,1.09-.06,1.62,.01,.95,.13,1.89,.14,2.85,.07,1.37-.1,2.72,.13,4.08,.25,.85,.07,1.71,.12,2.55,.16,1.25,.06,2.5,.39,3.77,.13,.49-.1,.97,.13,1.46,.17,3.13,.22,6.27,.17,9.4,.27,1.51,.05,3.03,.05,4.54-.04,1.46-.08,2.93,.08,4.39-.04,1.83-.15,3.65,.14,5.47,.08,2.67-.08,5.34,.04,8.01-.08,1.47-.06,2.93-.15,4.4-.39,1.05-.18,2.16-.13,3.22-.3,1.74-.28,3.52-.27,5.25-.71,.7-.18,1.48-.12,2.23-.24,1.37-.23,2.77-.35,4.16-.48,2.02-.19,3.99-.66,5.93-1.23,.09-.03,.2,0,.38,0v-.77c0-19.05,0-38.1,0-57.15,0-.43-.04-.69-.53-.96-1.28-.7-2.48-1.56-3.71-2.35-.36-.23-.73-.45-1.15-.54"/>
  <g class="clothesFoldLine">
    <path d="M112.73,100.46c.05-.69,.12-1.39,.15-2.08,.12-2.47-.12-4.9-.93-7.24-.68-1.97-2.48-3.97-4.22-5.09"/>
    <path d="M122.9,71.27c1.46,1.06,2.1,2.66,2.78,4.23,.7,1.63,1,3.5,1.23,5.24"/>
  </g>
  <path class="skinEastAsian" d="M337.86,96.6c-.87-.21-1.7,.14-2.54,.25-1.74,.24-3.5,.39-5.24,.25-1.17-.09-2.29-.61-3.23-1.36-2.29-1.83-4.46-3.79-6.47-5.93-1.73-1.84-3.09-3.94-4.03-6.31-.29,.11-.6,.08-.91,.08-5.98,0-11.96,0-17.95,0-.81,0-.93,.12-.93,.93,.01,10.53,0,21.05,0,31.63,.91,.35,1.9,.38,2.85,.56,1.46,.28,2.93,.47,4.4,.74,1.09,.2,2.21,.3,3.3,.5,1.46,.27,2.94,.41,4.4,.74,1.08,.25,2.21,.29,3.31,.49,1.46,.27,2.94,.42,4.4,.74,1.06,.24,2.15,.31,3.23,.48,1.13,.18,2.26,.42,3.39,.58,1.1,.15,2.2,.34,3.31,.51,1.47,.23,2.94,.45,4.4,.73,1.06,.2,2.16,.3,3.23,.49,.54,.1,1.08,.15,1.62,.3,1.18,.33,2.36-.05,3.54-.09,1.18-.03,2.37-.22,3.54-.37,1.83-.24,3.65-.51,5.47-.77,1.41-.2,2.83-.39,4.24-.62,1.24-.2,2.5-.36,3.69-.72,.9-.27,1.81-.34,2.71-.58,1.43-.38,2.87-.76,4.31-1.07,1.33-.28,2.67-.41,4,.06,1.66,.59,3.31,1.24,5.01,1.67,1.91,.49,3.87,.76,5.84,.98,2.18,.24,4.3-.11,6.39-.53,2.25-.45,4.44-1.21,6.63-1.9,.69-.22,1.29-.75,1.76-1.3,.95-1.12,1.78-2.25,1.76-3.91-.02-1.84-.49-3.51-1.32-5.07-.53-1-1.53-1.7-2.52-2.23-2.23-1.17-4.38-2.51-6.84-3.18-1.22-.33-2.43-.69-3.69-.88-.85-.12-1.73-.35-2.53-.64-1.18-.43-2.37-.45-3.56-.55-1.47-.11-2.92,.04-4.32,.59-.96,.38-1.82,.86-2.63,1.53-1.29,1.06-2.69,2-4.07,2.94-.66,.45-1.22,1.02-1.98,1.35-.62,.27-.92,.05-1.16-.42-1.19-2.29-3.04-3.96-5.08-5.47-2.34-1.73-4.9-3.08-7.4-4.53-.8-.46-1.71-.66-2.61-.85-.82-.18-1.64-.38-2.46-.45-1-.09-2.01,.08-3,.19-.59,.07-1.19,.07-1.78,.14-.79,.09-1.59,.12-2.38,.27h-.08Z"/>
  <path class="shirtWhite" d="M284.79,56.4c-.16,.24-.07,.52-.07,.77,0,17.35,0,34.71,0,52.06v.85h-.85c-4.03,0-8.06,0-12.09,0-.58,0-1.07,.04-1.49,.6-.39,.52-1.08,.57-1.74,.67-1.03,.16-2.07,.24-3.1,.43-.78,.15-1.65,.12-2.45,.32-1.73,.43-3.5,.52-5.25,.79-1.45,.22-2.92,.4-4.38,.61-1.78,.25-3.56,.47-5.32,.87-1.05,.24-2.16,.18-3.23,.34-4.14,.62-8.31,.65-12.48,.62-1.33-.01-2.66-.13-4.01-.04-1.1,.08-2.21-.11-3.31-.12-1.26-.01-2.52,.06-3.77,.06-1.28,0-2.57-.04-3.85-.07-2.93-.07-5.86-.23-8.78,.07-.33,.03-.67,.02-1,0-1.45-.08-2.88,.05-4.32,.3-.37,.06-.77-.02-1.15-.07-2.62-.34-5.24,.09-7.86,0-1.94-.06-3.86-.26-5.78-.53-1.01-.14-1.96-.32-2.78-1-1.72-1.43-1.85-2.62-1.23-4.55,.35-1.1,1.1-2.02,1.4-3.15,.5-1.91,1.11-3.78,1.35-5.77,.18-1.46,.66-2.93,.68-4.4,.04-2.36,.26-4.72,.04-7.09-.25-2.63-.84-5.18-1.57-7.72-.25-.87-.52-1.77-.72-2.67-.2-.95-.76-1.85-1.27-2.7-.94-1.57-1.65-3.26-2.24-4.96-.59-1.68-1.16-3.39-1.42-5.21-.28-1.93-.52-3.86-.3-5.78,.28-2.45,1-4.8,2.44-6.86,.66-.95,1.59-1.58,2.49-2.3,1.2-.96,2.42-.83,3.67-.75,1.44,.08,2.87,.41,4.32,.58,1.87,.22,3.73,.54,5.62,.62,1.5,.07,2.99,.19,4.47,.46,1.01,.19,1.82-.32,2.62-.84,2.52-1.65,5.04-3.3,7.61-4.87,.29-.18,.53-.29,.86-.29,15.15,0,30.29,0,45.44-.01,.58,0,1.04,.24,1.45,.5,3.29,2.03,6.73,3.81,10.02,5.84,.8,.49,1.64,.6,2.54,.71,2.04,.24,4.03,.81,6.01,1.35,1.74,.46,3.35,1.14,4.77,2.25v.08Z"/>
  <path class="pastBennettSleeves" d="M266,102.15c.18-.6-.12-1.15-.26-1.69-.27-1-.38-2.02-.39-3.01-.02-1.2,.29-2.41,.42-3.62,.12-1.09,.51-2.13,.56-3.23,.02-.39,.22-.77,.29-1.16,.28-1.52,.62-3.02,1.39-4.39,.88-1.58,1.64-3.22,2.92-4.55,1.46-1.52,2.81-3.14,4.4-4.54,2.06-1.81,4.22-3.48,6.55-4.92,.37-.23,.77-.41,1.15-.62,.41-.23,.42-.61,.3-1-.23-.73-.5-1.45-.8-2.15-1.21-2.84-1.35-5.78-1.15-8.79,.05-.76,.26-1.48,.37-2.23,.15-1.02,1.52-1.83,2.49-1.44,1.35,.54,2.81,.84,3.96,1.88,.64,.57,1.18,1.18,1.51,1.95,.22,.51,.54,.63,1.09,.63,5.29-.03,10.58-.02,15.87-.02,3.29,0,6.57,0,9.86,0,.39,0,.91-.22,1.13-.04,.41,.34,.17,.94,.18,1.43,.01,7.42,.01,14.84,0,22.26,0,.4,.03,.74,.3,1.09,.41,.53,.59,1.19,.69,1.84,.08,.53,.05,1.08-.52,1.52-.61-.65-1.31-1.21-2.15-1.61-.82-.4-1.65-.5-2.55-.55-2.42-.13-4.27,1.14-6.16,2.34-.73,.46-1.12,1.24-1.77,1.85,.86,1.17,1.81,2.19,2.84,3.16,2.64,2.47,5.22,5,7.87,7.45,1.17,1.08,2.55,1.92,3.82,2.88,1.35,1.03,2.79,1.84,4.41,2.27,.95,.25,1.94,.31,2.92,.4,1.92,.18,3.85,.09,5.78,.07,1.59-.01,3.18-.22,4.78,0,.35,.05,.68,.13,.91,.34,.6,.55,1.2,1.12,1.69,1.77,1.14,1.5,1.72,3.25,2.09,5.07,.68,3.31,.36,6.56-.55,9.78-.18,.63-.41,1.25-.7,1.84-.25,.52-.65,.86-1.29,1.03-1.56,.41-3.14,.69-4.71,1.05-.64,.15-1.28,.31-1.93,.46-.36,.08-.72,.23-1.08,.22-1.64-.03-3.22,.42-4.85,.5-1.23,.06-2.47,.12-3.69,.26-.82,.09-1.65,.1-2.48,.21-.89,.12-1.84-.15-2.77-.26-2.2-.27-4.09-1.44-6.16-2.09-2.38-.74-4.6-1.91-7-2.65-1.31-.41-2.59-1.03-3.88-1.53-1.14-.43-2.24-1-3.44-1.31-1.01-.27-1.97-.77-2.93-1.21-1.78-.81-3.52-1.69-5.32-2.45-2-.85-4.05-1.61-6.08-2.4-1.51-.59-3.02-1.22-4.55-1.76-2.29-.82-4.59-1.7-7.08-1.53-.74,.05-1.54-.14-2.28,.33-.63-1.13-1.26-2.24-1.88-3.36-.96-1.72-1.55-3.58-2.07-5.47-.04-.16-.06-.28-.24-.31h.15Z"/>
  <g class="clothesOverlapLine">
    <path d="M159.41,61.1c-.79,.64-1.29,1.48-1.69,2.39-.4,.89-.81,1.78-1.15,2.7-.47,1.29-.65,2.65-.6,4,.05,1.44,.32,2.88,.17,4.31-.12,1.14-.2,2.25-.06,3.39,.18,1.53,.51,3.03,.79,4.54"/>
    <path d="M156.02,73.58c-1.26,.26-2.84,.47-4.08,.78-1.75,.44-3.47,1.01-5.24,1.39-.52,.11-1.02,.31-1.54,.46-2.17,.63-4.37,1.11-6.55,1.68-2.01,.52-4,1.09-6.01,1.61-2.31,.6-4.63,1.14-6.93,1.79-1,.28-2.03,.47-3.02,.79-.71,.23-1.54,.09-2.3,.08-1.05-.02-2.11-.25-3.16-.43-1.73-.31-3.5-.46-5.15,.12-2.94,1.42-4.26,4.21-4.26,4.21-1.06-.57-2.25-.73-3.46-.71-1.32,.02-2.62-.19-3.93-.31-2.52-.23-5.03-.08-7.55,.1-1.43,.1-2.86,.33-4.31,.31-.97,0-1.96,.17-2.92,.37-.97,.2-1.95,.26-2.93,.37"/>
    <path d="M300.43,84.59c.03,.6,.56,.85,.94,1.14,1.42,1.11,2.73,2.36,4.07,3.56,.05,.05,.05,.15,.08,.23"/>
  </g>
  <path class="pastSkinEastAsian" d="M296.65,48.31h50.75v.85c0,3.26,0,6.52,0,9.78,0,.35-.08,.72,.3,1.02-.48,.35-.89,.76-1.39,.97-2.28,.97-3.73,2.83-5.15,4.72-1.71,2.27-3.13,4.77-5.1,6.84-1.46,1.52-2.75,3.18-4.35,4.59-2.19,1.94-4.53,3.54-7.18,4.76-1.9,.88-3.89,1.33-5.94,1.42-2.48,.11-4.8-.39-6.95-1.8-1.92-1.25-3.73-2.59-5.22-4.34-.22-.26-.51-.47-.8-.73-.97,.21-1.6,1.02-2.43,1.49-.96,.56-1.68,1.4-2.52,2.1-.44,.37-.67,.42-1.11,.06-1.61-1.35-3.29-2.57-4.51-4.36-.64-.94-1.42-1.85-2.16-2.75-.83-1-1.4-2.19-1.93-3.38-.31-.69-.6-1.42-.97-2.05-.79-1.36-1.02-2.87-1.44-4.33-.26-.9-.28-1.81-.18-2.7,.07-.63,.19-1.24,.93-1.75,2.51-1.74,4.61-3.94,6.18-6.58,.68-1.14,.96-2.44,1.01-3.77l.15-.08Z"/>
  <g class="skinOverlapLine">
    <path d="M315.68,58.25c-.41,2.31,.25,4.2,2.14,5.64,.23,.18,.48,.18,.7,.29"/>
    <path d="M340.55,107.31c1.33,.03,2.67,.03,4,.08,1.54,.06,3.08,.21,4.62,.21,2.55,0,5.08,.28,7.62,.31,1.77,.02,3.54,.05,5.31,.16,.36,.02,.7-.23,1.08-.15"/>
    <path d="M304.66,74.73c.28,.44,.56,.87,.85,1.31"/>
  </g>
  <path class="pastHairBlack" d="M325.84,.56c.65-.25,1.02,.31,1.45,.56,1.8,1.04,3.2,2.53,4.46,4.15,.47,.6,.87,1.29,1.14,2,.25,.64,.67,.91,1.26,.98,.91,.11,1.71,.54,2.53,.88,3.38,1.4,6.45,3.32,9.35,5.57,1.71,1.33,3.35,2.71,4.82,4.28,2.71,2.89,5.33,5.87,7.31,9.32,1.14,1.98,2.21,4.01,3.13,6.1,.34,.77,.51,1.68,.77,2.51,.33,1.09,.83,2.13,1.15,3.24,.81,2.78,1.21,5.59,.4,8.39-.58,2.01-1.44,3.95-2.88,5.56-.63,.71-1.14,1.51-1.85,2.15-.19,.17-.41,.31-.61,.46-1.51,1.08-3.14,1.89-4.92,2.5-1.5,.52-3.04,.8-4.56,.75-1.67-.05-3.36-.28-5.01-.71-.97-.25-2.01-.3-2.91-.72-1-.47-1.99-.4-3.01-.29-1.63,.17-3.1,.83-4.53,1.57-.56,.29-.86,.29-1.34-.09-.95-.76-2.05-1.31-3-2.09-.2-.16-.37-.22-.24-.55,.39-.97,.25-1.99,.24-3,0-.71-.61-1.06-1-1.54-1.19-1.46-2.87-1.92-4.62-2.04-.67-.05-1.41,.2-2.08,.49-1.67,.71-3.05,1.69-4.04,3.3-.67,1.09-1.25,2.17-1.49,3.41-.09,.44-.26,.6-.7,.62-2.03,.13-4.04,.27-6.02-.52-1.31-.52-2.65-.96-3.91-1.57-.97-.47-1.9-1.02-2.85-1.53-1.52-.82-3.12-1.44-4.77-1.93-.7-.21-1.38-.49-2.07-.74-.24-1.5-.45-3.05-.93-4.57-.61-1.92-1.46-3.78-1.76-5.78-.33-2.19-.67-4.37-.44-6.62,.24-2.48,.85-4.86,1.52-7.23,.34-1.2,1.15-2.19,1.69-3.31,1.15-2.41,2.79-4.49,4.55-6.46,2.16-2.41,4.58-4.59,7.39-6.23,1.46-.86,2.9-1.8,4.54-2.32,2.3-.72,4.52-1.79,6.93-2.05,1.35-.15,2.72-.25,4.07-.4,1.66-.18,3.29-.05,4.95-.11,.22-.91-.22-1.71-.48-2.54-.46-1.46-1.61-3.85-1.61-3.85Z"/>
  <g class="hairOverlapLine">
    <path d="M327.92,7.03c.22,.08,.28,.22,.32,.46,.48,3.41,.57,6.81-.39,10.17-.1,.34-.2,.67-.31,1"/>
    <path d="M333.08,7.42c0,.4,.19,.75,.39,1.08,.72,1.19,.92,2.53,1.24,3.85,.39,1.6,.28,3.24,.52,4.86,.09,.59-.02,1.19-.2,1.79,2.57,.51,4.95,1.39,7.05,2.92,1.48,1.07,2.8,2.31,3.63,3.99,.56,1.14,1.23,2.21,1.56,3.46,.19,.72,.48,1.4,.29,2.16l-.08,.08c-.6-.26-.97-.78-1.38-1.24-1.53-1.75-3.27-3.24-5.56-3.81-1.42-.35-2.9-.38-4.39-.14-.69,.11-1.38,.23-2.07,.34"/>
    <path d="M337.32,55.48c.45,.78,1.21,1.26,1.85,1.85,.33,.31,.87,.4,1,.92"/>
  </g>
  <path class="pastOdinFur" d="M252.52,29.98c.37,.48,.3,1.31,.73,1.56,.44,.26,1.01,.41,1.51,.66,2.52,1.29,4.7,3.03,6.7,5.01,1.37,1.37,2.55,2.89,3.77,4.39,.78,.96,1.28,2.08,1.88,3.14,.22,.4,.59,.77,1.19,.91,.79,.18,1.52,.64,2.24,1.04,.93,.53,1.9,.98,2.79,1.59,.91,.62,1.31,1.47,1.53,2.48,.39,1.74,.29,3.45-.16,5.16-.29,1.08-.59,2.16-1.11,3.14-.25,.47-.83,.76-1.35,1.02-1.34,.67-2.78,.75-4.24,.77-1.42,.01-2.77-.44-4.15-.65-.54-.08-1.12-.39-1.61-.68-1.22-.73-2.4-1.51-3.48-2.44-1.38-1.18-1.63-2.72-1.37-4.39,.06-.39-.04-.83,.35-1.13-.44-.81-1.26-.74-1.91-.84-1.03-.16-2.1-.13-3.22-.19-.39,1.06-1.01,2.01-1.7,2.94-.85,1.15-1.97,2.04-2.95,3.06-.66,.69-1.26,1.42-1.86,2.15-.95,1.15-1.56,2.6-2.9,3.41-1.19,.72-2.42,1.35-3.76,1.81-2.02,.69-4.08,.88-6.17,.96-.97,.04-1.9-.25-2.85-.44-2.59-.52-4.5-2.15-6.47-3.71-.45-.36-.96-.64-1.46-.93-2.21-1.27-4.1-2.89-5.54-5.01-.16-.24-.24-.52-.4-.76-.08-.12-.24-.17-.4-.28-1.66,1.29-2.44,2.96-2.62,5.05-.2,2.26-.3,4.53-.54,6.78-.28,2.57-1.31,4.83-3.51,6.39-1.06,.75-2.27,1.11-3.54,1.22-1.28,.11-2.57,.17-3.85,.15-1.2-.01-2.41-.17-3.07-1.38-.38-.71-.64-1.5-.69-2.3-.18-2.81-.1-5.61,.82-8.32,.26-.77,.35-1.59,.56-2.38,.45-1.67,1.05-3.27,1.73-4.87,1.1-2.59,3.11-4.35,5.12-6.15,1.43-1.28,3.01-2.36,4.63-3.37,.53-.33,1.01-.76,1.68-.88,.44-.08,.69-.4,.56-.98-.38-1.73-.8-3.46-.84-5.23-.02-.66-.1-1.27-.41-1.85-.78-1.45-1.13-3.05-1.42-4.63-.17-.93,.1-1.94,.1-2.92,0-1.79,.37-3.47,1.31-5.01,.49-.8,1.73-1.17,2.7-.85,1.83,.59,3.54,1.43,5.22,2.34,.72,.39,1.36,.94,2.01,1.45,.79,.61,1.56,1.26,2.33,1.88,1.65-.24,3.29-.74,4.99-.89,1.82-.16,3.64-.37,5.47-.38,.92,0,1.85-.03,2.77,.01,.41,.02,.64-.07,.94-.38,1.14-1.21,2.13-2.54,3.32-3.69,1.54-1.49,3.36-2.64,5.2-3.74,.96-.57,2-.71,3.02-.96,.95-.23,1.77,.28,2.09,1.21,.44,1.28,.71,2.58,.76,3.93,.08,2.08-.13,4.13-.56,6.16-.05,.24-.01,.47-.06,.7l.15,.15Z"/>
  <g class="furOverlapLine">
    <path d="M252.98,30.99c.01,.52,.22,.99,.39,1.46,.52,1.5,.45,3.08,.69,4.62,.29,1.89,.13,3.8,.15,5.7,.03,2.24-.3,4.42-1.29,6.47-.19,.39-.16,.88-.47,1.23"/>
    <path d="M213.4,42.85c.26,1.34,.41,2.69,.77,4.01,.33,1.19,.71,2.37,1.03,3.56,.33,1.23,.94,2.33,1.28,3.53"/>
    <path d="M267.16,45.46c-1.74-.54-3.32-.13-4.86,.76-2.07,1.2-3.5,2.9-4.38,5.09"/>
  </g>
  <g class="pastBennettShoe">
    <path d="M77.23,87.21c.41,.21,.93,.11,1.21-.04,.73-.4,1.52-.18,2.26-.41,.52-.16,1.07-.18,1.61-.24,1.06-.13,1.38-1.05,1.5-2,.11-.88,.17-1.74,.13-2.62-.13-3.26-1.44-5.81-4.32-7.48-.72-.42-1.5-.3-2.25-.5-1.86-.5-3.8-.46-5.7-.78-.98-.16-1.99,.12-3,.07-1.26-.06-2.52-.2-3.77,.06-1.28,.27-2.6,.44-3.82,1.08,.76,1.96,1.53,3.9,2.28,5.85,.78,2.05,1.55,4.1,2.31,6.16,.21,.56,.4,.9,1.16,.96,2.68,.2,5.34,.11,8.01-.03,.77-.04,1.55,.09,2.31-.08h.08Z"/>
    <path d="M19.54,115.17c1.94-.1,3.83-.55,5.69-1.05,1.09-.29,2.19-.67,3.25-1.11,1.68-.69,3.45-.91,5.24-.99,1.98-.09,3.96-.26,5.93-.44,1.53-.13,3.03-.41,4.54-.65,1.04-.17,1.87-.74,2.69-1.32,2.12-1.5,3.26-3.72,3.87-6.1,.55-2.13,.69-4.4,.34-6.61-.35-2.27-1.72-3.94-3.43-5.41-1.06-.91-2.34-1.28-3.55-1.84-1.18-.54-2.38-1.02-3.63-1.36-1.03-.28-2.08-.5-3.15-.67-1.08-.18-2.17-.39-3.24-.66-.54-.14-1.08-.03-1.62-.07-1.03-.08-2.05-.16-3.05-.24-1.46,4.39-2.9,8.71-4.34,13.02-1.67,4.98-3.34,9.96-5,14.94-.04,.12-.05,.26-.08,.38l-.46,.15Z"/>
  </g>
  <g class="soleWhite">
    <path d="M33.95,92.75c-.39-2.57-1.69-4.54-3.94-5.83-.53-.3-1.2-.4-1.84-.41-2.25-.03-4.45,.13-6.56,1.04-.42,.18-.61,.4-.75,.73-1.09,2.61-2.15,5.24-3.25,7.85-.85,2.04-1.78,4.04-2.61,6.09-.9,2.22-1.85,4.41-2.76,6.63-.92,2.26-1.87,4.51-2.81,6.79,.58,.34,1.23,.44,1.87,.5,2.43,.24,4.88,.28,7.23-.48,1.3-.42,2.61-.89,3.79-1.65,2.11-1.36,4.03-2.96,5.65-4.82,1.44-1.64,3.19-3.02,4.34-4.9,.86-1.42,1.57-2.9,1.82-4.61,.28-1.89,.16-3.75,.13-5.63,0-.44-.17-.82-.24-1.23l-.08-.08Z"/>
    <path d="M59.21,87.82c.28,.45,.73,.24,1.08,.21,1.08-.08,2.16-.24,3.24-.37,1.1-.13,2.21-.26,3.31-.39l-.15-.46c.38-.31,.29-.75,.31-1.16,.13-2.27-.13-4.49-.94-6.62-.44-1.16-1.05-2.23-1.98-3.1-.49-.46-.97-.91-1.55-1.22-1.06-.56-2.21-.71-3.3-.28-1.19,.47-2.46,.69-3.63,1.21-.2,.09-.36,.25-.54,.38l4.16,11.78Z"/>
  </g>
  <g class="soleWhiteDark">
    <path d="M11.84,92.45c-2.35-.69-4.54-.19-6.62,.93-2.4,1.3-3.44,3.59-4.07,6.08-.49,1.91-.71,3.86-.64,5.85,.07,2.13,.33,4.23,1.04,6.23,.6,1.7,1.71,2.94,3.57,3.61,1.75,.63,3.48,.85,5.25,.69,1.6-.15,3.11-.75,4.39-1.75,1.44-1.13,2.89-2.24,4.34-3.36,1.9-1.46,3.59-3.15,5.34-4.76,2.25-2.08,3.57-4.74,3.75-7.89,.13-2.32-.16-4.56-1.26-6.61-.56-1.06-1.38-1.92-2.44-2.57-.85-.52-1.63-1.07-2.7-1.09-.71-.02-1.33,.09-1.92,.42-.98,.56-1.78,1.35-2.62,2.07-.4,.34-.81,.69-1.23,1-1.05,.78-2.26,1.06-3.54,1.08-.18,0-.36,.05-.54,.07h-.08Z"/>
    <path d="M38.72,87.67c1.26,.44,2.52,.85,3.77,1.32,.63,.24,1.23,.58,1.86,.83,.17,.07,.44,.25,.61-.06l.15-.08c.68-.97,1.58-1.76,2.4-2.6,1.73-1.78,4.5-2.3,6.78-.8,.7,.46,1.25,1.15,2.14,1.34,.77,.16,1.53,.32,2.31,.39,.54,.05,.83-.23,.91-.63,.18-.97,.61-1.93,.46-2.92-.28-1.91-.19-3.9-1.35-5.64-.77-1.16-1.59-2.1-2.93-2.65-.81-.33-1.42-.04-2.01,.23-1.71,.78-3.33,1.72-4.73,3.04-1.52,1.43-3.35,2.42-5.22,3.32-1.92,.92-3.49,2.24-4.78,3.93-.28,.36-.26,.96-.84,1.08-.02,0-.05,0-.08,0l.54-.08Z"/>
  </g>
</svg>