<svg viewBox="0 0 133.05 260.97">
  <path class="dullPastMediumDark" d="m54.77,125.79c-6.52,3.86-10.12,3.28-17.82,2.93-3.31-.15-5.46,4.04-1.28,5.78,6.27,2.6,10.72,2.15,18.17-.33l.93-8.38Z"/>
  <path class="dullPastDark" d="m98.22,141.26c-.61,17.06-3.31,33.78-4.08,43.05-1,12-2.69,22.38-4.46,32.14-.93,5.13-.71,11.57-1.61,14.38-1.79,5.59-20.62,3.48-20.78-.61s2.42-10.25,2.94-16.54c1.04-12.74,1.19-17.16,2.56-22.56-2.76-1.25.02-3.92-.68-9.78-.9-7.63-1.98-15.97-2.68-23.07-4.44,9.79-10.35,17.15-15.98,25.39-6.39,9.36-17.31,22.46-20.74,26.05-3.66,3.83-6.24,11.7-11.71,11.2-4.1-.37-10.08-8.44-11-10.24-2.09-4.08,8.41-11.92,11.95-17.34,11.7-17.94,13.03-16.27,13.03-16.27-1.49-4.16,1.96-3.1,3.19-7.59,1.04-3.8,3.47-8.69,5.77-14.66,3.17-8.21,4.21-16.38,9.63-24.88,22.28.86,47.27.66,44.65,11.34Z"/>
  <g class="dullPastDarker">
    <path d="m5.56,216.89c2.16-2.92,4.94-5.79,8.49-8.2,3.08-2.09,9.35,2.34,8.82,6-.8,5.56-2.7,7.01-3.84,9.75-1.34,3.24-2.41,5.89-2.85,10.21l-10.62-17.77Z"/>
    <path d="m66.44,249.45c.02-2.13.73-5.77,2.02-9.42,1.1-3.11,1.79-5.65,2.57-9.29,1.43-3.14,11.36-2.36,12.01.07,1.3,5.78,2.01,11.26,1.38,16.07l-17.98,2.57Z"/>
  </g>
  <g class="whiteMedium">
    <path d="m83.74,253.07c.65-2.13,1-4.51.67-6.18-.76-3.96-13.61-6.59-16.24-1.32-.63,1.27-1.03,2.82-1.74,3.89-1.46,2.22-2.64,6.04-.69,8.75l18-5.13Z"/>
    <path d="m2.31,221.58c.27-1.84,1.65-3.24,3.25-4.69,5.48-.62,10.13,3.89,10.34,8.12.08,1.73-.08,3.17-.07,4.79s1.21,3.02.35,4.86c-.51,1.59-1.34,2.82-2.53,3.63l-11.35-16.71Z"/>
  </g>
  <g class="whiteDark">
    <path d="m69.41,248.58c2.46-2.2,9.76-2.37,12.75.26,1.54,1.36,1.52,2.73,1.58,4.22s.84,3.33-.7,4.66c-5.1,4.4-16.39,2.69-17.3.47-.84-2.06,1.82-3.87,2.34-5.48s-.19-2.79,1.32-4.13Z"/>
    <path d="m13.65,238.29c-2.37,3.78-10.2,1.32-12.84-5.72-.84-2.25.28-3.71.44-5.28.17-1.65.08-4.53,1.06-5.72,2.02-2.46,8.27-1.06,10.38,4.22,1.03,2.58.42,4.51.62,6.6s1.58,3.94.35,5.89Z"/>
  </g>
  <path class="whiteLight" d="m61.05,74.13c-4.32,11.09-3.08,23.99-4.9,38.42-.75,5.93-3.35,12.33-3.12,16.47,6.08,10.86,17.54,14.58,28.26,15.06,8.51.38,16.63-10.99,16.93-2.83,1.64-3.08.28-5.1,1.14-9.5,1-5.1,1.72-12.81,1.9-18.75,23.27-24.06-19.68-67.84-40.2-38.88Z"/>
  <path class="dullPastMediumDark" d="m79.96,62.02c-4.25-.31-14.53-2.52-18.9,12.11,4.59-3.98,9.47-6.86,14.68-8.5,3.44,2.53,7.42,3.79,11.84,4.02.13,8.59,4.65,17.81,12.33,20.5.65,6.54,1.07,14.3,1.34,22.86,1.5,2.42,3.94,4.32,6.34,3.94,1.91-.31,5.14-2.57,6.53-4.32,1.91-2.4,2.31-13.25.38-24.02,3.66-13.07-6.61-22.52-14.72-23.78"/>
  <path class="dullPastMediumDark" d="m84.04,55.8c-5.77.8-10.22-1.42-13.86.62-3.3,1.85-3.2,5.69-1.15,7.11,2.33,1.62,7.99-.43,12.7-2.13l2.31-5.6Z"/>
  <path class="dullPastLight" d="m79.96,62.02c2.64-3.62,3.48-8.03,3.19-12.93l33.73-13.04c.74,8.92-9.3,13.09-17.09,28.79-5.71,1.99-16.99.74-19.83-2.81Z"/>
  <path class="dullPastDarkest" d="m85.82,52.87c-2.22-1.42-10.62-6.13-10.93-18.74-.38-15.46,13.15-26.3,26.56-22.3-.03-3.97-2.07-7.48-5.15-10.75,6.22,2.01,10,6.13,11.1,12.53,4.44-2.1,8.53-2.22,12.53.62-2.69-.03-5.3.27-7.02,1.6,10.04,6.13,12.79,21.85,1.33,22.21-.37,2.08-2.58,2.58-3.55,4.62-1.15-1.87-3.59-1.98-5.15-.71-1.42,1.15-2.49,4.53-2.22,7.11-5.69,4.44-13.15,3.46-17.5,3.82Z"/>
  <g class="dullPastMediumDark">
    <path d="m114.43,73.21c5.93,6.24,9.77,12.7,7.64,16.17-1.39,2.25-4.45,2.86-6.49,2.49-3.38-.62-5.61-8.54-2.05-10.76-.56-3.06-2.43-6.21-5.05-7.98l5.95.09Z"/>
    <path d="m123.84,57.13c3.04.2,6.12.95,8.62,2.67-1.24,4-5.42,4.97-6.75,6.4-3.29,5.17-7.31,9.01-12.35,8.71-4.44-.27-7.39.34-11.28-2.49-4.89-3.55-3.39-6.46-3.64-10.66-.31-5.1,3.07-9.4,7.28-12.88,1.42-1.51,1.87-5.86,5.6-8.26,3.07,3.05,3.83,5.69,3.2,8.44,3.2,1.6,6.84,4.8,9.33,8.08Z"/>
  </g>
  <g class="bennettOverlapLine">
    <path d="m56.22,149.89c3.12,4.08,8.32,3.94,12.76,4.93,4.64,1.03,8.22,3.46,14.21,1.78"/>
    <path d="m68.99,154.82c.12,1.19.44,2.37.44,3.45"/>
    <path d="m99.91,90.15c-.17-1.72-.23-3.69-.17-5.95"/>
    <path d="m101.46,11.83c.06.99.03,1.71-.16,2.45"/>
    <path d="m110.54,18.79c.5-1.1,1.28-2.09,2.38-2.96"/>
    <path d="m114.25,38.03c-1.76-.07-3.33-.35-4.59-.98"/>
    <path d="m103.32,49.05c.04.58.3,1.02.74,1.28"/>
  </g>
  <g class="bennettFoldLine">
    <path d="m34.98,177.06c5.48-.04,11.77,3.05,13.33,8.2"/>
    <path d="m72.79,191.11c3.82-2.98,10.61-3.27,15.21.74"/>
  </g>
</svg>