<svg viewBox="0 0 60.42 102.7">
  <g class="brassDarkest">
    <path d="m.87,102.2c-.47-2.66-1.26-11.8,3.22-15.27h51.31c5.11,1.97,4.84,11.35,4.14,15.27H.87Z"/>
    <path d="m40.09,18.81c1.79-6.74.47-12.33-4.41-13.64,1.14-6.29-10.74-6.14-8.9-.07-5.65.67-6.85,9.16-4.94,13.55l18.25.16Z"/>
  </g>
  <path class="brassDarker" d="m39.03,35.89c1.52-1.25,3.73.75,7.2,3.04,2.46,1.63,3.77,3.9,4.55,6.64,1.13,3.96,1.66,7.42,2.3,11.45.31,1.99.69,4.64-1.91,7.72-1.5,2-2.63,2.68-4.44,4.36,3.99,2.72,7.31,5.94,9.31,7.67,2.89,2.5,3.71,4.19,3.53,8.2-.2,4.46-4.46,5.31-6,5.72-5.06,1.35-16.23.77-20.9,0-1.11-.18-20.65.43-20.65.43-3.2.23-10.26.93-10.95-5.26-.47-4.17.66-6.23,2.86-8.68,2.79-3.11,5.67-5.76,5.67-5.76,8.29-20.6,29.42-35.53,29.42-35.53Z"/>
  <g class="brassDark">
    <path d="m19.5,90.53c1.76.29,4.91,1.49,13.18.15.69-1.71,3.29-6.7,4.91-7.47,3.18-1.74,10.48-.34,13.87.42,1.05.24,2.28-.48,1.87-1.94-.72-2.55-7.28-2.62-9.79-6.06-.72-.99-1.6-1.94-2.55-2.48.69-.84,1.66-.89,2.21-1.94.04-1.68-2.93-3.85-4.91-3.05-3.35,3.58-4.34-1.18-6.08,2.26-1.27,2.53-4.71,1.83-7.41,1.63-6.65-.49-2.47,3.74.5,4.41,1.91,1.04,3.69,5.61,3.35,8.38-2.32,2.48-7,2.84-8.11,2.63-2.53-.47-3.31,2.67-1.03,3.05Z"/>
    <path d="m19.34,93.15c-.03,2.99-4.67,3.4-6.15.72-3.92-7.07-.13-9-1.69-14.05-.84-4.39-3.59-12.59-2.72-21.06.53-5.16.81-10.33,2.93-15.13,2.77-6.28,8.26-4.7,12.35-9.44,1.67-1.94,1.03-4.93,1.03-4.93-1.02-.6-2.44-2.68-2.64-4.79-3.34-1.01-2.38-6.09-.61-5.81,1.92-1.8,3.6-4.28,3.94-7.77,3.47,3.44,8.04,2.79,10.5.24.75,2.55,1.38,6.03,3.8,7.69,2.75,0,.89,6.16-1.15,6.12-.48,1.75-1.27,3.42-2.69,4.45-.72,4,.4,5.26,2.77,6.51-3.33,8.06-16.39,20.76-21.85,23.88-.23,3.75-.88,12.22.12,18.19.06,1.2.62,3.25,2.1,6.34,1.14,2.37-.03,5.34-.06,8.86Z"/>
  </g>
  <g class="buddhaOverlapLine">
    <path d="m42.28,49.34c.49,3.01,1.89,7.65,2.08,8.66.39,2.01-5.42,7.79-6.26,9.83"/>
    <path d="m17.3,77.95c2.77-.85,5.08-1.74,7.99-1.47,4.6,1.23,11.34,1.49,15.69-3.31"/>
    <path d="m18.51,48.6c-.38,4.41-.71,7.34-1.33,11.17"/>
    <path d="m25.09,29.26c3.06,2.81,8.08,2.85,11.16.12"/>
    <path d="m28.65,84.86c2.57-.61,5.46-1.87,8.95-1.64"/>
    <path d="m46.73,69.09c-1.39,1.25-2.67,2.21-3.54,2.13"/>
    <path d="m39.49,20.54c.07,1.3-.16,2.8-.55,4.39"/>
    <path d="m22.3,19.95c-.16,1.37-.08,3.14.15,4.52"/>
  </g>
</svg>