<svg viewBox="0 0 322.59 250.19">
  <rect class="oakDark" x="36.7" y="-35.7" width="249.19" height="321.59" transform="translate(36.2 286.39) rotate(-90)"/>
  <path class="fiberMedium" d="M306.07,233.68c-2.12-72.39-2.12-144.77,0-217.16-96.52,2.73-193.04,2.73-289.56,0,2.12,72.39,2.12,144.77,0,217.16,96.52-2.73,193.04-2.73,289.56,0Z"/>
  <path class="flatRedLighter" d="M245.68,222.14c16.01-.35,31.96-.38,47.97,0-.48-20.01-.48-39.96,0-59.97-16.01,.38-31.96,.35-47.97,0,.48,20,.48,39.96,0,59.97Z"/>
  <path class="flatOrangeLighter" d="M213.28,216.64c-.69-27.01-.69-53.96,0-80.97-33.75,.79-67.47,.79-101.22,0,.69,27.01,.69,53.96,0,80.97,33.75-.79,67.47-.79,101.22,0Z"/>
  <path class="flatMagentaLighter" d="M28.68,221.14c24-.51,47.97-.51,71.97,0-.79-30.01-.79-59.96,0-89.97-24,.51-47.97,.51-71.97,0,.79,30.01,.79,59.96,0,89.97Z"/>
  <path class="flatBlueLighter" d="M221.68,118.14c24-.51,47.97-.51,71.97,0-.79-30.01-.79-59.96,0-89.97-24,.51-47.97,.51-71.97,0,.79,30.01,.79,59.96,0,89.97Z"/>
  <path class="flatTealLighter" d="M210.65,117.14c-.36-16.01-.36-31.96,0-47.97-20.01,.49-39.96,.51-59.97,0,.36,16.01,.36,31.96,0,47.97,20.01-.51,39.96-.49,59.97,0Z"/>
  <path class="flatYellowLighter" d="M201.65,79.14c-.36-16.01-.36-31.96,0-47.97-20.01,.49-39.96,.51-59.97,0,.36,16.01,.36,31.96,0,47.97,20.01-.51,39.96-.49,59.97,0Z"/>
  <g class="flatGreenLighter">
    <path d="M223.68,190.14c16.01-.35,31.96-.38,47.97,0-.48-20.01-.48-39.96,0-59.97-16.01,.38-31.96,.35-47.97,0,.48,20,.48,39.96,0,59.97Z"/>
    <path d="M131.28,112.64c-.69-27.01-.69-53.96,0-80.97-33.75,.79-67.47,.79-101.22,0,.69,27.01,.69,53.96,0,80.97,33.75-.79,67.47-.79,101.22,0Z"/>
  </g>
  <g class="steelMedium">
    <circle cx="39.29" cy="41.79" r="2.16"/>
    <circle cx="122.33" cy="41.79" r="2.16"/>
    <circle cx="122.61" cy="143.79" r="2.16"/>
    <circle cx="257.29" cy="38.08" r="2.16"/>
    <circle cx="247.3" cy="138.2" r="2.16"/>
    <circle cx="203.81" cy="143.5" r="2.16"/>
    <circle cx="64.49" cy="138.5" r="2.16"/>
    <circle cx="171.33" cy="40.08" r="2.16"/>
  </g>
</svg>