<svg viewBox="0 0 161.55 117.52">
  <g class="dullPastMediumDark">
    <path d="m26.6,69.11c.87,5.22,2.21,15.33,1.83,17.2-1.23,6.08-3.84,12.35-6.86,18.21-3.47.33-6.88.82-7.96,2.75-1.28,2.29-1.55,4.76.09,6.59.82.92,12.35.73,13.54,0,4.04-2.49,13.27-23.79,22.33-38.89l-22.97-5.86Z"/>
    <path d="m87.32,113.14c-.6.4-3.85.13-4.38,0-2.72-.68-2-5.35-.07-7.17,3.25-2.19,5.83-1.08,8.3-1.59,3.52-.73,6.97-5.98,9.3-12.35,27.49,0-7.97,17.67-13.15,21.12Z"/>
    <path d="m11.78,6.5c3.81-.71,10.48-.57,13.73.04,3.68-3.17,7.36-6.41,8.56-5.72,1.92,1.12,3.12,7.04,1.95,11.32-1.39,5.09.6,9.78-2.63,15.5,22.5,13.37,40.2-4.24,76.43,6.57,11.72,3.5,36.11-6.68,45.35-28.63,1.99-4.72,6.09-3.96,5.87.88-.73,15.6-18.26,36.18-40.36,42.46,1.71,10.93-3.32,21.48-10.68,29.24,3.58,5.89,7.72,12.12,7.63,19.19-.02,1.77-4.71,6.94-8.72,10.69-2.88,2.7-4.49,5.48-8.45,8.29-.8.88-12.57.88-13.4,0-1.51-2.36-.62-6.58,2.36-8.23,1.78-1.49,5.92-.33,7-1.31,1.43-1.17,7.07-10.36,6.19-11.05-8.92-6.76-14.02-6.56-16.96-15.12-6.49,1.73-20.87,1.55-28.28,0,1.03,3.37,1.64,6.64,1.58,8.93-.06,2.08-6.39,22.18-9.89,26.79-.73.96-13.93.88-14.71,0-1.06-2.26-.84-5.5,1.41-7.57.7-.65,3.57-1.41,6.3-1.27,2.15-5.55,3.26-14.43,2.98-16.9s-4.06-6.36-6.92-12.43C13.68,69.35,14.56,45.13,7.03,36.3-2.04,25.66,1.2,19.56.73,15.47-.03,8.83,1.14.57,3.62.5c1.09-.03,5.15,3.51,8.16,6Z"/>
  </g>
  <g class="furOverlapLine">
    <path d="m38.11,78.16c-.82-1.75-1.56-3.27-1.98-3.86"/>
    <path d="m57.38,80.61c-.85-3.31-1.89-6.37-3.08-9.24"/>
    <path d="m85.65,80.61c-2.05-4.97-3.07-10.23-3.12-15.75"/>
  </g>
</svg>