<svg viewBox="0 0 90.28 169.03">
  <path class="dullPastMediumDark" d="M.99,77.65c-.72,.87-.47,1.94-.32,2.84,.25,1.47,.82,2.89,1.28,4.32,.11,.34,.36,.62,.5,.96,.85,2.08,2.44,3.63,3.78,5.36,1,1.29,1.87,2.7,2.52,4.22,.41,.95,.68,1.95,1.2,2.88,.75,1.34,1.71,2.48,2.83,3.47,.58,.52,1.1,1.1,1.66,1.48,.08,1.32-.11,2.56,0,3.81,.13,1.6,.3,3.21,.73,4.74,.33,1.19,.56,2.41,.88,3.61,.35,1.3,.68,2.6,1.13,3.87,.26,.74,.54,1.49,.88,2.19,.62,1.27,.89,2.65,1.36,3.96,.83,2.32,1.38,4.73,2.33,7.03,.5,1.22,.99,2.46,1.41,3.72,.83,2.47,1.57,4.97,2.36,7.46,.4,1.28,.99,2.49,1.33,3.8,.54,2.09,1.07,4.18,1.56,6.29,.23,1,.5,2,.69,3.01,.08,.42,.06,.76-.56,.98-1.71,.6-2.48,2.07-2.92,3.7-.22,.8-.31,1.65-.37,2.48-.08,1.14,.28,2.16,1.08,3,.72,.76,1.59,1.17,2.63,1.42,1.1,.26,2.19,.26,3.3,.26,2.39,0,4.78-.02,7.17,.01,1,.01,1.79-.5,2.64-.88,.77-.35,1.34-1,1.56-1.7,.32-1.04,.94-1.93,1.11-3.05,.4-2.59,.25-5.18,.07-7.76-.07-.97,0-1.96-.18-2.93-.09-.46,.26-.93-.05-1.4,.88-.42,1.85-.32,2.69-.78,.72-.4,1.42-.83,2.11-1.27,.51-.33,.65-.92,.9-1.45,.42-.87,.82-1.73,.85-2.72,.01-.46,.37-.62,.67-.72,1.84-.59,3.42-1.64,4.95-2.75,.83-.6,1.51-1.42,2.13-2.25,.79-1.06,1.57-2.09,2.1-3.34,.45-1.06,.64-2.15,.81-3.24,.3-1.91,.45-3.85,.69-5.78,.12-1.03,.32-2.05,.42-3.08,.03-.34,.2-.59,.32-.9,.75,.33,1.48,.7,2.26,.97,1.49,.51,3.04,.71,4.6,.65,.44-.02,.9-.11,1.31-.03,.92,.18,1.81-.09,2.71-.13,1.4-.06,2.81-.43,4.08-.96,1.62-.68,3.08-1.72,3.83-3.46,.75-1.75,1.5-3.5,1.96-5.35,.45-1.83,1.25-3.54,1.76-5.34,.6-2.13,1.18-4.28,1.73-6.43,.26-1,.67-1.98,.92-3.01,.59-2.42,1.32-4.82,1.42-7.32,.06-1.46-.23-2.93-.41-4.39-.11-.88-.45-1.71-.71-2.57-.52-1.73-1.04-3.47-1.79-5.11-.82-1.81-1.29-3.73-1.69-5.65-.15-.71-.17-1.5-.25-2.26-.15-1.48-.31-2.98-.21-4.46,.15-2.17,.22-4.35,.23-6.51,0-2.05,.07-4.1,.06-6.15,0-.87,.02-1.77-.13-2.63-.21-1.18-.01-2.34-.1-3.52-.2-2.59-.38-5.18-1.13-7.68-.92-3.07-2.42-5.86-4.23-8.49-1.33-1.93-2.93-3.57-4.73-5.08-1.1-.92-2.34-1.69-3.31-2.76-.85-.93-1.18-2.14-.94-3.35,.36-1.77,.99-3.45,2-4.99,.83-1.28,1.94-2.26,3.02-3.28,.32-.3,.59-.23,.96-.08,.93,.36,1.88,.7,2.85,.96,2.31,.62,5.13-.6,6.07-2.7,.7-1.57,.63-3.16,.14-4.76-.8-2.65-2.67-4.35-5.13-5.31-2.18-.85-4.56-1.1-6.85-.64-1.73,.34-3.43,.97-4.99,1.91-2.18,1.31-4.05,2.98-5.59,4.95-1.57,2.02-3.26,3.94-4.68,6.1-1.59,2.42-3.03,4.92-4.35,7.49-.91,1.77-2.35,3.04-3.81,4.32-1.99,1.73-4.16,3.18-6.36,4.61-.68,.44-1.27,1.02-1.91,1.52-1.6,1.26-3.05,2.68-4.23,4.33-1.46,2.03-2.85,4.11-4.12,6.28-.88,1.5-1.88,2.94-2.68,4.48-.72,1.4-1.29,2.9-1.84,4.38-.32,.86-.81,1.62-1.15,2.47-.52,1.3-1.01,2.61-1.57,3.89-1.08,2.49-1.95,5.05-2.84,7.61-.52,1.51-1.2,2.99-1.4,4.6-.03,.23-.17,.35-.31,.43-1.93,1.12-3.43,2.77-5.18,4.11-.54,.41-1.15,.72-1.62,1.23-.38,.41-.94,.41-1.38,.27-1.21-.37-2.47-.42-3.66-.36-2.01,.09-4.07,.09-6.01,.88-.92,.38-1.95,.52-2.7,1.26l-.15,.15Z"/>
  <g class="furOverlapLine">
    <path d="M76.64,85.04c-.08,2.04-.63,3.96-1.36,5.86-.81,2.08-1.86,4.05-2.69,6.12-.22,.55-.61,1.06-.84,1.62-.48,1.19-.98,2.36-1.54,3.51-.6,1.26-1.16,2.54-1.76,3.8-1.84,3.84-3.59,7.7-4.41,11.92-.21,1.06-.61,2.07-.82,3.14-.09,.44-.01,.9-.18,1.32"/>
    <path d="M22.35,69.89c.65-.79,1.54-1.23,2.42-1.66,.36-.18,.54-.37,.66-.75,.4-1.24,1.12-2.34,1.68-3.51,.49-1.02,1.05-2.01,1.6-3,.8-1.42,1.78-2.71,2.92-3.88,.49-.5,1.08-.89,1.68-1.25,.78-.47,1.41-.28,1.9,.15,.87,.76,1.37,1.75,1.83,2.78,.31,.7,.74,1.34,1,2.06,.29,.8,.47,1.65,.67,2.48,.46,1.93,1.15,3.6,2.89,4.88,1.83,1.34,3.61,2.79,5.25,4.4,1.74,1.7,2.9,3.76,4,5.87,.36,.7,.42,1.52,.72,2.27,.86,2.15,1.83,4.23,3.01,6.22,.58,.98,1.22,1.96,1.54,3.07,.3,1.05,.3,2.1,.16,3.23-.12,.98-.25,1.91-.68,2.76-.65,1.3-1.26,2.61-2.22,3.77-1.13,1.37-2.23,2.74-3.56,3.91-.95,.84-2.11,1.34-3.29,1.75-1.17,.4-2.4,.6-3.58,.98-2.35,.75-4.56,1.83-6.74,2.98-.79,.42-1.7,.44-2.56,.66-.86,.22-1.74,.23-2.63,.18-1-.05-1.96-.29-2.92-.48-1.23-.24-2.46-.51-3.65-.88-.87-.27-1.7-.7-2.56-1.01-1.3-.46-2.6-1-3.71-1.78-1.22-.86-2.64-1.54-3.46-2.89"/>
    <path d="M44.52,150.67c-.43,.13-.84,.31-1.32,.3-1.19-.03-2.4,.1-3.58-.09-1.71-.28-3.42-.63-4.39-2.33-.32-.56-.48-1.19-.6-1.83-.19-.97-.29-1.95-.19-2.93,.13-1.39,.49-2.74,.93-4.06l.15-.18c.34-.56,.28-1.22,.43-1.83,.47-1.9,1.58-3.51,2.36-5.26,.07-.17,.21-.34,.36-.43,.6-.37,1.04-.92,1.53-1.4,.22-.22,.46-.38,.74-.51,1.48-.72,3.03-1.11,4.68-1.09,.27,0,.54,.09,.8,.06,1.21-.14,2.41-.13,3.58,.24,.37,.12,.73,.12,1.1,.13"/>
    <path d="M38.52,158.28c-.83-.06-1.56-.45-2.33-.7-1.07-.34-2.15-.34-3.23-.4-1.33-.07-2.66,0-3.95,.36"/>
    <path d="M51.76,139.91c-.11,1.47-.22,2.95-.59,4.39"/>
    <path d="M76.06,113.5c-2.73-1.15-5.5-1.56-8.42-.69-.84,.25-1.59,.74-2.48,.83"/>
    <path d="M41.01,122.42c-.45,.17-.24,.62-.26,.88-.1,1.44-.19,2.88,.09,4.32,.14,.71-.14,1.46,.02,2.19"/>
  </g>
</svg>