<svg viewBox="0 0 148.23 67.36">
  <path class="pastOdinFur" d="M119.69,13.18c4.16,.46,10.63,6.32,12.32,9.7,4.31-.92,9.09-1.08,13.56-.46,2,.31,2.62,1.54,1.85,3.39-1.39,3.39-4.16,6.32-6.93,8.16-2.44,6.01-6.36,10.93-11.55,14.94,5.7,1.39,8.78,5.39,5.39,10.01-1.69,2.16-4.78,3.08-7.55,2.93-2.62-.31-4.47,0-6.62,.31-2.62,.46-4.47-1.23-5.08-2.16-6.16,1.54-14.04,1.28-21.1-.15-2.31,4.47-19.88,6.53-35.12,6.93-22.27,.7-49.45-3.39-55.76-10.94C-.46,52,0,46.45,2.31,41.06c.83-1.91,1.49-3.76,2-5.55,3.85-14.79,15.1-23.41,25.57-26.65C55.61,.7,86.57,4.4,102.59,14.87c.77-1.54,1.54-2.46,3.08-3.85,1.55-3.68,3.23-6.62,6.01-9.4,1.39-1.54,3.7-1.69,4.47,.77,1.08,2.77,2.93,6.93,3.54,10.78Z"/>
  <g class="furOverlapLine">
    <path d="M128.93,48.91c-2.51,1.42-5.55,2.46-9.24,2.62-2.77,.18-5.39,.92-7.86,.92-6.01,0-12.17-3.7-13.56-9.4-.62-2.62-.97-4.53-1.54-6.47-1.85-6.47-.15-13.09,3.23-17.41,1.05-1.31,1.85-2.77,2.62-4.31"/>
    <path d="M115.07,60.01c-1.85-4.31,.31-7.24,5.55-8.47"/>
    <path d="M81.33,23.5c9.86,2.46,13.4,19.56,3.23,26.65"/>
    <path d="M93.96,59.85c1.03-1.93-.15-6.16-3.85-6.16-29.43,.11-52.92-2.26-66.85-8.63"/>
    <path d="M90.37,41.01c3.13,.52,5.75,1.59,8.25,3.17"/>
  </g>
</svg>