<svg viewBox="0 0 120.2 75.61">
  <g class="dullPastMedium">
    <path d="m55.7,45.14c.69,4.48,1.23,11.36,1,14.6-.13,1.82-3.79,9.22-5.86,11.01-2.36,2.05-4.83,3.72-6.97,3.96-.83.24-3.62.24-4.44,0-2.8-3.5-1.92-6.34,2.22-8.4,1.65-.82,1.81-2.58,3.01-4.99,2.69-5.39.73-10.67.73-15.9l10.31-.28Z"/>
    <path d="m9.5,5.32c3.41-.67,8.1-.76,11.27.03,2.25-3.69,3.23-4.79,4.59-4.64,1.22.14,2.7,3.69,3.44,6.29,9.29,3.31,14.09-1.09,25.18-3.53,12.78-2.81,31.6-.72,39.57,10.03,6.61,8.92,5.86,22.29,23.47,23.97,3.79.36,3.77,5.31-1.5,6.09-7.44.81-13.89-.99-19.48-4.99,10.03,12.57,5.05,17.39,4.49,21.88-.73,5.97,1.2,7.15.31,9.67-1.23,3.5-7.21,2.89-7.9,1.52-4.48-8.91.83-13.26-2.7-18.68-.03-2.02-10.87-4.55-13.78-10.09-.64.59-1.33,1.14-2.07,1.64.81,4.16,5.4,9.53,5.5,13.14.05,1.9-4.81,12.19-8.97,16.72-.79,1-10.75,1-11.58,0-2.88-3.84-.34-8.59,4.34-8.68,1.47-.03,2.58-3.58,3.12-7.65.39-2.93-6.56-7.8-10.37-12.09-3.12,2.05-17.26,1.35-22.82-.11-3.12,1.27-5.22,24.89-11.27,28.53-1.12.67-10.11.88-11.71,0-2.58-1.41-.88-6.77,4.39-7.94,2.54-.1,4.14-8.43,4.78-14.64.59-5.76-2.72-12.06-2.43-18.5-4.38,2.63-10.39.62-12.29-3.7-1.51-3.42-3.26-6.58-2.67-11.9.38-3.41-1.59-7.01-1.88-10.72-.2-2.55.1-6.18,1.66-6.44,2.02-.34,4.98,2.54,7.29,4.79Z"/>
  </g>
  <g class="furOverlapLine">
    <path d="m17.4,33.29c-.02-2.19.88-5.14,2.15-7.06"/>
    <path d="m56.45,45.94c-1.83-1.96-3.18-3.31-3.95-5.39-.93-2.53-.54-15.76,4.05-21.23"/>
    <path d="m76.47,42.86c3.75-3.19,5.94-7.33,6.98-12.17"/>
    <path d="m96.05,38.57c-4.13-3.22-7.41-6.45-9.42-9.72"/>
  </g>
</svg>