<svg viewBox="0 0 131.04 95.38">
  <g class="dullPastMediumDark">
    <path d="m21.64,56.07c.7,4.23,1.79,12.42,1.48,13.93-1,4.93-3.11,10.01-5.56,14.75-2.81.27-5.57.66-6.45,2.22-1.04,1.85-1.26,3.86.07,5.34.67.74,10.01.59,10.97,0,3.27-2.01,10.75-19.27,18.08-31.5l-18.6-4.74Z"/>
    <path d="m70.82,91.74c-.48.32-3.12.11-3.55,0-2.2-.55-1.62-4.34-.05-5.81,2.64-1.77,4.73-.88,6.72-1.29,2.85-.59,5.65-4.84,7.53-10,22.27,0-6.46,14.31-10.65,17.1Z"/>
    <path d="m9.63,5.36c3.09-.58,8.49-.46,11.12.03C23.74,2.83,26.72.2,27.69.76c1.56.91,2.53,5.71,1.58,9.17-1.12,4.12.48,7.92-2.13,12.55,18.23,10.83,32.56-3.44,61.91,5.32,9.49,2.83,29.25-5.41,36.73-23.19,1.61-3.82,4.94-3.21,4.75.71-.59,12.63-14.79,29.31-32.69,34.39,1.38,8.85-2.69,17.4-8.65,23.69,2.9,4.77,6.25,9.82,6.18,15.55-.02,1.44-3.82,5.62-7.06,8.66-2.33,2.18-3.64,4.44-6.85,6.71-.65.71-10.18.71-10.85,0-1.23-1.91-.5-5.33,1.91-6.67,1.44-1.21,4.79-.26,5.67-1.06,1.16-.95,5.72-8.39,5.01-8.95-7.22-5.48-11.35-5.31-13.74-12.25-5.26,1.41-16.91,1.26-22.91,0,.84,2.73,1.33,5.38,1.28,7.23-.05,1.68-5.18,17.96-8.01,21.7-.59.78-11.28.71-11.91,0-.86-1.83-.68-4.46,1.14-6.13.57-.52,2.89-1.14,5.1-1.03,1.74-4.5,2.64-11.69,2.41-13.69s-3.29-5.15-5.6-10.07C11.18,56.27,11.89,36.65,5.79,29.5-1.56,20.88,1.07,15.94.69,12.63.07,7.25,1.01.56,3.03.5c.88-.02,4.17,2.84,6.61,4.86Z"/>
  </g>
  <g class="furOverlapLine">
    <path d="m30.97,63.4c-.66-1.42-1.26-2.65-1.6-3.12"/>
    <path d="m46.57,65.39c-.69-2.68-1.53-5.16-2.5-7.49"/>
    <path d="m69.48,65.39c-1.66-4.03-2.49-8.28-2.53-12.76"/>
  </g>
</svg>