<svg viewBox="0 0 218.19 290.59">
  <rect class="redwoodDark" x=".5" y=".5" width="217.19" height="289.59"/>
  <rect class="flatBlueLightest" x="5.5" y="5.5" width="207.19" height="279.59"/>
  <rect class="flatBlueMedium" x="5.5" y="201.63" width="207.19" height="83.46"/>
  <circle class="flatAmberLightest" cx="109.1" cy="77.95" r="62.5"/>
  <g class="lotus">
    <path class="dullTurquoiseDark" d="M153.78,227.98c2.06,4.67,7.32,.32,11.71,5.53,3.73,4.42,12.08,1.06,11.8,5.59-.48,7.53,10.19,9.79,.47,14.76-5.08,2.59-.61,6.87-8.42,6.35-9.45-.63-6.67,7.54-19.07,5.18-15.22-2.89-13.53,11.4-29.43,4.63-22.01-9.38-18.78,8.8-34.24-2.04-14.43-10.11-19.6,3.85-26.47-4.07-8.4-9.68-13.89,2.29-17.58-7.03-2.76-6.97-10.38-5.42-2.94-13.38,3.87-4.14,1.37-9.23,7.75-8.64,13.87,1.27,8.34-8.66,18.26-6.54l88.17-.33Z"/>
    <path class="dullGreenDark" d="M61.15,225.44c0,39.18,100.41,39.18,100.41,0H61.15Z"/>
    <ellipse class="dullTurquoiseLight" cx="111.36" cy="225.44" rx="50.2" ry="7.91"/>
    <g class="dullRedMedium">
      <path d="M49.21,241.3c3.22,.89,5.64,2.64,7.39,5.09-3.84-.04-7.49,.59-10.85,2.28,5.37-.53,9.56,2.15,14.22,1.67l-9.62,5.02c7.09-.96,11.99,3.55,20.46,.08l-4.72,5.42c7.32-1.76,12.38,1.94,20.08-1.48l-2.4,3.26c7.11-.09,15.24,3.3,19.16-4.41-6.84,10.64,19.5,9.93,13.8,.08,3.72,9.27,12.67,4.24,20.36,4.18l-2.04-2.78c5.6,5.06,12.79,.41,19.86,.7l-4.58-4.32c7.31,2.67,13.67-2.04,18.99-1.33l-6.75-2.94c5.23-.98,7.83-3.55,12.54-3.59l-9.34-1.91c1.54-2.36,3.37-3.09,6.91-5.01-13.84-4.51-24.9,11.92-60.6,0-18.37,11.03-44.07-4.21-62.88,0Z"/>
      <path d="M55.69,230.75c3.7,3.45,6.88,7.66,7,13.09-4.44-3.33-7.25-7.54-7-13.09Z"/>
      <path d="M66.51,232.5c3.91,4.52,7.38,9.75,4.19,15.65-5.36-5.42-7.8-10.89-4.19-15.65Z"/>
      <path d="M80.18,235.45c6.03,3.85,10.11,9.48,6.28,16.76-8.14-3.41-10.84-10.23-6.28-16.76Z"/>
      <path d="M98.91,235.82c7.24,4.21,10.47,12.45,3.08,18.24-6.78-3.45-12.08-12.69-3.08-18.24Z"/>
      <path d="M121.83,235.82c7.27,6.42,5.45,12.08-2.34,17.25-5.93-6.62-4.56-12.57,2.34-17.25Z"/>
      <path d="M141.06,234.84c3.94,6.26,4.39,12.14-6.53,16.76-5.73-6.99-1.14-12.15,6.53-16.76Z"/>
      <path d="M155.42,233.15c3.47,5.6,3.06,11.52-5.74,16.59-2.33-7.28,.71-12.83,5.74-16.59Z"/>
      <path d="M166.3,232.05c.62,7.02-3.54,8.69-7.75,11.51-.68-5.8,4.3-8.06,7.75-11.51Z"/>
    </g>
    <g class="dullRedLight">
      <path d="M64.41,243.45c-4.94-4.17-9.98-4.41-15.2-2.15,4.8-.59,9.94,.08,15.2,2.15Z"/>
      <path d="M157.49,243.58c4.82-4.18,9.91-4.65,15.2-2.28-5.16-.76-10.23-.07-15.2,2.28Z"/>
      <path d="M67.28,248.65c-8.13-4.47-9.7-11.88-6.55-16.92,9.03,8.19,6.14,13.07,13.68,20.55l-7.13-3.63Z"/>
      <path d="M147.19,252.62c7.58-6.71,5.46-14.1,14.75-20.72,2.84,5.51-1.19,11.33-7.13,17.32l-7.62,3.39Z"/>
      <path d="M74.41,252.28c-11.43-10.3-4.16-12.98-3.56-18.47,4.31,4.6,9.95,3.12,17.44,21.31l-13.87-2.83Z"/>
      <path d="M132.57,255.35c5.86-16.93,11.8-14.7,17.74-21.39,2.38,5.35,5.64,10.84-3.13,18.66l-14.61,2.73Z"/>
      <path d="M88.29,255.12c-8.97-10.63-3.46-13.3-1.41-20.23,5.99,5.82,12.94,3.38,15.74,21.43l-14.34-1.21Z"/>
      <path d="M117.91,256.51c3.15-18.54,9.29-15.48,16.22-20.84,3.31,6.14,7.09,7.88-1.56,19.68l-14.66,1.16Z"/>
      <path d="M102.62,256.32c-5.93-15.98,1.2-16.12,8.11-20.94,6.01,5.11,14.03,3.78,7.17,21.13l-15.29-.19Z"/>
      <path d="M67.28,248.65c-8.39-4.52-15.58-4.56-21.53,.01,5.2-1.93,12.03-.15,21.53-.01Z"/>
      <path d="M154.8,249.23c6.3-5.62,13.17-4.79,20.32-1.01-9.21-1.78-13.22,.59-20.32,1.01Z"/>
      <path d="M67.28,248.65c-7.97-.02-14.07,1.77-16.93,6.7,8.47-3.27,13.66,.74,24.06-3.07-2.36-1.6-4.73-2.87-7.13-3.63Z"/>
      <path d="M154.8,249.23c5.99-.42,10.84,1.42,14.52,5.53-7.72-3.12-15.6,1.04-22.14-2.14,2.58-1.72,5.13-2.94,7.62-3.39Z"/>
      <path d="M88.29,255.12c-5.07-1.59-9.82-2.73-13.87-2.83-3.82,.94-6.77,3.46-8.31,8.56,7.37-3.01,14.85-.15,22.19-5.73Z"/>
      <path d="M132.57,255.35c5.2-1.61,10.14-2.69,14.61-2.73,3.59,1.65,6.37,4.05,7.73,7.78-8.32-2.67-18.27,.45-22.35-5.05Z"/>
      <path d="M88.29,255.12c-2.77,2.36-4.5,4.84-4.51,7.51,6.09-2.08,13.22,1.19,18.85-6.3-5.05-1.02-9.88-1.52-14.34-1.21Z"/>
      <path d="M117.91,256.51c4.94-1.13,9.83-1.58,14.66-1.16,2.42,2.35,4.31,4.71,4.52,7.13-7.72-2.23-17.23,2.08-19.19-5.97Z"/>
      <path d="M102.62,256.32c5.11-.7,10.2-.6,15.29,.19-.03,5.42-.42,10.72-7.99,5.52-7.72,4.16-9.36,2.23-7.29-5.71Z"/>
    </g>
  </g>
  <g class="goddess">
    <g class="skinEastAsian">
      <path d="M128.16,210.6c2.97,9.24,5.85,9.72,6.52,12.48,.03,1.05-.16,2.04-1.46,1.97,.06,1.33-1.14,1.97-2.29,1.53,.38,1.46-1.78,2.48-2.67,1.59-.19,1.33-2.03,1.91-3.11,.89-.89,2.35-5.28,2.35-5.02-1.59,.57-3.3-2.1-7.5-2.16-14.62l10.19-2.25Z"/>
      <path d="M100.31,216.89c-8.01,6.16-17.86,13.22-19.26,8.64-1.02,.89-3.2,.27-2.95-1-.7,.21-1.86-.95-.68-1.79,4.44-3.16,7.52-6.74,10.42-11.38l12.46,5.53Z"/>
    </g>
    <g class="whiteMedium">
      <path d="M83.49,185.21c1.67-7.13,10.64,2.88,19.33,.48,5.25-1.45,35.89-6.15,29.58,2.69,1.85,10.03,4.54,19.3,9.37,26.63-13.23-2.01-18.49,10.08-32,3.87-7.22-3.32-12.49,4.52-19.93-.34-2.96-1.94-7.62-4.67-9.69-.71,1.37-8.54,4.68-16.25,3.33-32.61Z"/>
      <path d="M144.18,88.87c.63-3.66-6.86-5.87-11.58-23.73-3.63-13.73-3.02-35.21-12.15-41.42-5.48-3.73-10.76-4.11-15.67,.25-7.43,6.6-4.82,24.66-6.62,41.58-.91,8.56-6.22,13.15-6.88,21.17l52.9,2.15Z"/>
    </g>
    <g class="whiteDark">
      <path d="M126.96,79.3c4.07,1.23,4.81,2.59,2.78,4.36-3.36,.57-4.11-1.02-2.78-4.36Z"/>
      <path d="M136.46,86.21c3.6,.48,7.47,1.04,7.72,2.66,.37,2.36-1.82,4.76-6.98,5.94-.36-2.53-.59-5.46-.75-8.6Z"/>
    </g>
    <path class="bronzeMedium" d="M121.34,53.77c2.14-9.79-.79-16.34-9.62-19.14,2.17-4.55,1.78-9.91-1.74-14.3-4.58,4.23-7.23,9.69-5.38,14.39-4.72,2.2-6.2,6.48-5.99,11.83l22.74,7.22Z"/>
    <path class="flatTealMedium" d="M98.74,76.81c-9.24,5.16-9.96,15.78-13.7,24.19-4.98,11.52-3.65,23.61,3.82,36.27-2.57,17.41-7.12,35.16-7.76,43.33,2.33,6.45,53.26,5.83,59.44-1.69-1.15-1.83-2.01-4.16-2.65-6.86,11.21-8.17,14.23-19.52,8.55-28.97-2.89-4.81-6.01-11.57-8.23-20.26,2.76-5.52-.54-18.72-1.75-36.6-4.91-.85-8.56-2.74-9.49-6.92-1.78-.54-3.57-1.34-4.88-2.92-13.23,23.43-16.35,30.21-23.34,.43Z"/>
    <g class="bronzeDark">
      <path d="M78.03,105.36c-3.57,16.71,.2,36.07,7.76,49.32,1.65-8.57,2.94-15.45,3.79-23.42-7.64-6.46-8.94-10.4-11.55-25.89Z"/>
      <path d="M108.51,122.49c10.2,9.39,7.87,57.59,18.06,56.23,6.78-2-8.98-20.84-10.26-25.56-4-14.66,7.72-33.61-7.8-30.67Z"/>
      <path d="M80.62,187.17c-.37,1.73,1.14,2.85,2.86,3.29,.1-1.63,.82-11.87-2.86-3.29Z"/>
      <path d="M112.58,189.86c5.05-3.7,4.91-5.88-1.19-5.97,.8,1.88,.89,4.1,1.19,5.97Z"/>
      <path d="M130.08,188.59c4.63-3.33,3.49-4.85-1.08-5.29l1.08,5.29Z"/>
      <path d="M133.7,195.54c17.03-6.93,11.14-15.58-2.09-10.07,1.31,3.72,1.17,6.94,2.09,10.07Z"/>
    </g>
    <g class="bronzeMedium">
      <path d="M143.66,185.25c-.92-2.46-1.55-3.99-3.12-6.35-5.19-1.87-8.65,3.04-10.35,3.12-.16-6.57-12.56,4.07-15.81,1.31-.6-9.34-12.81,3.66-17.7,.51-6.17-3.98-11.12-6.41-15.58-3.25-.68,2.34-.87,4.54-.49,6.57,4.15-5.26,11.4,.49,15.66,2.84,4.96,2.73,22.95-10.74,16.3-.14,3.57,3,22.12-9.63,17.49-1.27,2.76,1.54,8.06-6.42,13.58-3.34Z"/>
      <path d="M103.47,72.84c-1.88,1.57-3.35,2.59-4.73,3.97,.25,9.73,2.64,17.51,6.46,24.6l3.62-4.38c-4.01-7.39-6.12-15.54-5.36-24.19Z"/>
      <path d="M119.3,70.89c.65,2.23,1.57,4.07,2.78,5.48-3.98,11.67-11.44,24.4-19.5,34.17l-6-.83c8.74-10.79,17.59-25.23,22.72-38.83Z"/>
      <path d="M124.63,108.03c-8.87,3.24-26.99,2-31.57-.71-.75,3.15-1.4,7.08-1.73,10.5,2.58,1.37,10.18,2.6,12.31,2.51,7.07-.29,9.19-6.14,21.36-10.39l-.38-1.91Z"/>
      <path d="M81.38,93.8c1.21,2.9,2.42,5.53,3.66,7.2,.97,7.32-6.06,18.21,4.55,30.26l-.89,7.09c-17.1-16.89-4.59-35.13-7.32-44.55Z"/>
      <path d="M108.35,118.39c1.78-.83,3.1-1.35,5.05-2.44,12.12,6.7,.24,30.88,5.78,38.15,5.08,6.66,12.8,14.99,11.37,22.82-1.07,.85-2.56,1.38-3.99,1.81,.9-10.39-11.23-18.26-13.18-26.53-1.89-8.02,6.71-28.04-5.03-33.79Z"/>
    </g>
    <g class="hairBlack">
      <path d="M98.72,52.19c-1.51-5.77,1.14-13.11,9.87-13.11,7.05,0,11.86,3.65,12.74,14.69,0,13.41-11.67,9.37-22.62-1.58Z"/>
      <path d="M102.7,70.6c-3.37,8.82-4.44,17.09-1.33,27.34,.08-8.45,.87-17.87,2.16-26.76-.28-.17-.58-.38-.83-.59Z"/>
      <path d="M120.58,74.14c.4,5.77-.57,15.35-.69,24.51-3.24-8.63-3.61-18.46-.5-27.47,.29,.99,.71,2.03,1.19,2.96Z"/>
    </g>
    <path class="porcelainDark" d="M96.93,124.71c-3.92,2.86-4.85,8.04-10.23,11.03-1.26,.86,.55,3.46,1.53,2.72,5.05-3.52,8.09-2.19,14.21-5.78,8.06-4.72,2.03-13.47-5.51-7.97Z"/>
    <g class="skinEastAsian">
      <path d="M107.01,45.52c-3.76-1.53-7.09-.22-7.93,3.34-1.28,5.38,1.25,7.66,.73,9.91s-.95,9.75,3.84,12.48c-1.1,8.28,.61,16.45,3.84,23.08,3.38-5.2,9.29-16.27,11.81-23.44-.15-2.47-.25-5.91,.54-7.83,.25-1.97,3.36,.37,3.81-6.35,.23-3.44-3.6-3.92-4.26-1.2-.34,1.39-.63,3.27-2.47,4.26,.56-3.23-.6-4.86-.43-10.81,.12-4.21-5.55-5.41-9.5-3.44Z"/>
      <path d="M108.35,118.39c2.15,1.01,4.49,3.28,5.05,5.69-3.77,3.77-2.5,8.07-6.25,10.42-3.84,2.41-6.1,2.11-9.46,1.6-3.15-.48-2.96-2.08-1.44-3.45,2.63-2.34,4.56-4.74,5.21-7.29-3.37,.16-6.04,2.96-6.17,.48-.08-1.52,3.92-4.44,6.41-5.45,2.8-1.13,4.96-.82,6.65-2Z"/>
      <path d="M79.57,114.29c.41-7.94,3.23-15.42,1.8-20.49l-.99-3.4c-.99-3.3,4.83-4.94,2.64-15.05,2.64-.55,1.65-3.4-1.76-3.84,1.29-3.8,.68-5.19-.13-5.3s-1.54,.36-2.67,5.36c-.61,.08-1.25,.27-1.81,.6,1.85-6.17,.39-6.02-.45-5.89-1.93,.3-3.05,1.52-4.37,6.3-3.38,12.22,2.19,16.04,2.84,18.59,1.1,4.28,1.6,13.27,4.9,23.13Z"/>
    </g>
    <g class="lipFemaleMedium">
      <path d="M108.33,66.32c-.16,2.48-4.92,2.28-5.2,0h5.2Z"/>
      <path d="M103.13,66.32c2.02,.43,3.06,.43,5.2,0-1.37-1.18-2.34-.86-3.06-.64-.69-.32-1.28-.19-2.14,.64Z"/>
    </g>
    <g class="flatGreenMedium">
      <path d="M78.89,51.08c1.71-3.6-.79-6.49-3.55-8.03-.69,4.2-.05,7.66,3.55,8.03Z"/>
      <path d="M83.47,47.12c1.43,4.8,1.11,7.99-1.77,8.76-2.27-1.58-1.43-5.69,1.77-8.76Z"/>
      <path d="M81.46,58.74c1.31-3.13-3.44-5.03-7.04-4.56,1.8,4.11,4.43,6.32,7.04,4.56Z"/>
    </g>
    <g class="flatChartreuseMedium">
      <path d="M83.17,72.1c.86-8.08-.22-15.51-4.22-21.69l-.68,.45c3.53,5.17,4.6,13.07,3.72,20.77,.3,.07,.83,.26,1.18,.47Z"/>
      <path d="M82.82,75.34c-.48,3.01-.8,4.17-1.62,6.97l-1.54-.59c1.15-3.17,1.16-3.02,1.75-6.29,.4-.05,.88-.08,1.41-.09Z"/>
    </g>
    <g class="paintingDisplayLine">
      <path d="M112.61,56.73c-1.51,.46-3.08,.68-4.7,.66"/>
      <path d="M103.44,57.3c-1.05,.03-2.43-.06-3.3-.52"/>
    </g>
    <g class="paintingOverlapLine">
      <path d="M91.33,117.82c-.86,5.55-1.49,10.85-2.02,16.02"/>
      <path d="M130.56,176.91c2.07-.84,4.45-2.35,7.33-4.86"/>
      <path d="M81.05,225.54c-.46-1.74,1.61-2.12,3.44-3.11"/>
      <path d="M78.11,224.53c.18-.79,.89-1.39,2.11-1.8"/>
      <path d="M125.15,229.06c.19-.86,.06-1.75-.52-2.7"/>
      <path d="M127.07,225.36c.85,.86,1.36,1.75,1.19,2.81"/>
      <path d="M129.75,224.67c.7,.44,1.01,1.12,1.18,1.91"/>
      <path d="M132.05,223.3c.65,.44,1.07,.86,1.18,1.76"/>
      <path d="M81.27,71.5c-.98-.13-1.92-.13-2.81,.06"/>
      <path d="M83.02,75.34c-2.26,0-4.26,.49-5.91,1.66"/>
      <path d="M76.65,72.16c-.84,1.91-1.11,3.99-.7,6.26"/>
      <path d="M79.86,75.73c-.6,1.64,.02,2.87-.61,4.47"/>
      <path d="M107.69,62.09c-1.31,1.86-3.83,1.97-4.7,.11"/>
      <path d="M103.65,71.25c3.13,2.01,6.61,.85,10.06-1.61"/>
    </g>
    <g class="paintingFoldLine">
      <path d="M93.24,85.5c-1.97,9.74-7.66,15.21-.19,21.82"/>
      <path d="M124.63,108.03c4.71-5.26,1.88-10.06,.46-16.18"/>
      <path d="M85.04,101c1.42,2.23,3.33,2.43,3.5,3.44"/>
      <path d="M138.2,122.81c-1.15,3.95-2.35,6.77-3.6,8.54"/>
      <path d="M125.01,109.94c1.78-.16,3.36,.33,4.78,1.28"/>
      <path d="M127.6,68.22c1.31,7.55,4.47,12.07,3.09,14.28"/>
      <path d="M83.63,225.15c-1.06,.2-1.75,.07-2.04-.43"/>
      <path d="M123.95,227.34c-.97-.03-1.89,.12-2.75,.47"/>
      <path d="M113.16,52.35c-1.79-.38-3.73-.09-5.55,.78"/>
      <path d="M103.9,53.07c-1.31-.75-3.47-.81-3.98-.5"/>
    </g>
  </g>
</svg>