<svg viewBox="0 0 218.19 290.59">
  <rect class="redwoodDark" x=".5" y=".5" width="217.19" height="289.59"/>
  <rect class="flatBlueLightest" x="5.5" y="5.5" width="207.19" height="279.59"/>
  <rect class="flatBlueMedium" x="5.5" y="201.63" width="207.19" height="83.46"/>
  <circle class="flatAmberLightest" cx="109.1" cy="77.95" r="62.5"/>
  <g class="lotus">
    <path class="dullTurquoiseDark" d="M153.78,227.98c2.06,4.67,7.32,.32,11.71,5.53,3.73,4.42,12.08,1.06,11.8,5.59-.48,7.53,10.19,9.79,.47,14.76-5.08,2.59-.61,6.87-8.42,6.35-9.45-.63-6.67,7.54-19.07,5.18-15.22-2.89-13.53,11.4-29.43,4.63-22.01-9.38-18.78,8.8-34.24-2.04-14.43-10.11-19.6,3.85-26.47-4.07-8.4-9.68-13.89,2.29-17.58-7.03-2.76-6.97-10.38-5.42-2.94-13.38,3.87-4.14,1.37-9.23,7.75-8.64,13.87,1.27,8.34-8.66,18.26-6.54l88.17-.33Z"/>
    <path class="dullGreenDark" d="M61.15,225.44c0,39.18,100.41,39.18,100.41,0H61.15Z"/>
    <ellipse class="dullTurquoiseLight" cx="111.36" cy="225.44" rx="50.2" ry="7.91"/>
    <g class="dullRedMedium">
      <path d="M49.21,241.3c3.22,.89,5.64,2.64,7.39,5.09-3.84-.04-7.49,.59-10.85,2.28,5.37-.53,9.56,2.15,14.22,1.67l-9.62,5.02c7.09-.96,11.99,3.55,20.46,.08l-4.72,5.42c7.32-1.76,12.38,1.94,20.08-1.48l-2.4,3.26c7.11-.09,15.24,3.3,19.16-4.41-6.84,10.64,19.5,9.93,13.8,.08,3.72,9.27,12.67,4.24,20.36,4.18l-2.04-2.78c5.6,5.06,12.79,.41,19.86,.7l-4.58-4.32c7.31,2.67,13.67-2.04,18.99-1.33l-6.75-2.94c5.23-.98,7.83-3.55,12.54-3.59l-9.34-1.91c1.54-2.36,3.37-3.09,6.91-5.01-13.84-4.51-24.9,11.92-60.6,0-18.37,11.03-44.07-4.21-62.88,0Z"/>
      <path d="M55.69,230.75c3.7,3.45,6.88,7.66,7,13.09-4.44-3.33-7.25-7.54-7-13.09Z"/>
      <path d="M66.51,232.5c3.91,4.52,7.38,9.75,4.19,15.65-5.36-5.42-7.8-10.89-4.19-15.65Z"/>
      <path d="M80.18,235.45c6.03,3.85,10.11,9.48,6.28,16.76-8.14-3.41-10.84-10.23-6.28-16.76Z"/>
      <path d="M98.91,235.82c7.24,4.21,10.47,12.45,3.08,18.24-6.78-3.45-12.08-12.69-3.08-18.24Z"/>
      <path d="M121.83,235.82c7.27,6.42,5.45,12.08-2.34,17.25-5.93-6.62-4.56-12.57,2.34-17.25Z"/>
      <path d="M141.06,234.84c3.94,6.26,4.39,12.14-6.53,16.76-5.73-6.99-1.14-12.15,6.53-16.76Z"/>
      <path d="M155.42,233.15c3.47,5.6,3.06,11.52-5.74,16.59-2.33-7.28,.71-12.83,5.74-16.59Z"/>
      <path d="M166.3,232.05c.62,7.02-3.54,8.69-7.75,11.51-.68-5.8,4.3-8.06,7.75-11.51Z"/>
    </g>
    <g class="dullRedLight">
      <path d="M64.41,243.45c-4.94-4.17-9.98-4.41-15.2-2.15,4.8-.59,9.94,.08,15.2,2.15Z"/>
      <path d="M157.49,243.58c4.82-4.18,9.91-4.65,15.2-2.28-5.16-.76-10.23-.07-15.2,2.28Z"/>
      <path d="M67.28,248.65c-8.13-4.47-9.7-11.88-6.55-16.92,9.03,8.19,6.14,13.07,13.68,20.55l-7.13-3.63Z"/>
      <path d="M147.19,252.62c7.58-6.71,5.46-14.1,14.75-20.72,2.84,5.51-1.19,11.33-7.13,17.32l-7.62,3.39Z"/>
      <path d="M74.41,252.28c-11.43-10.3-4.16-12.98-3.56-18.47,4.31,4.6,9.95,3.12,17.44,21.31l-13.87-2.83Z"/>
      <path d="M132.57,255.35c5.86-16.93,11.8-14.7,17.74-21.39,2.38,5.35,5.64,10.84-3.13,18.66l-14.61,2.73Z"/>
      <path d="M88.29,255.12c-8.97-10.63-3.46-13.3-1.41-20.23,5.99,5.82,12.94,3.38,15.74,21.43l-14.34-1.21Z"/>
      <path d="M117.91,256.51c3.15-18.54,9.29-15.48,16.22-20.84,3.31,6.14,7.09,7.88-1.56,19.68l-14.66,1.16Z"/>
      <path d="M102.62,256.32c-5.93-15.98,1.2-16.12,8.11-20.94,6.01,5.11,14.03,3.78,7.17,21.13l-15.29-.19Z"/>
      <path d="M67.28,248.65c-8.39-4.52-15.58-4.56-21.53,.01,5.2-1.93,12.03-.15,21.53-.01Z"/>
      <path d="M154.8,249.23c6.3-5.62,13.17-4.79,20.32-1.01-9.21-1.78-13.22,.59-20.32,1.01Z"/>
      <path d="M67.28,248.65c-7.97-.02-14.07,1.77-16.93,6.7,8.47-3.27,13.66,.74,24.06-3.07-2.36-1.6-4.73-2.87-7.13-3.63Z"/>
      <path d="M154.8,249.23c5.99-.42,10.84,1.42,14.52,5.53-7.72-3.12-15.6,1.04-22.14-2.14,2.58-1.72,5.13-2.94,7.62-3.39Z"/>
      <path d="M88.29,255.12c-5.07-1.59-9.82-2.73-13.87-2.83-3.82,.94-6.77,3.46-8.31,8.56,7.37-3.01,14.85-.15,22.19-5.73Z"/>
      <path d="M132.57,255.35c5.2-1.61,10.14-2.69,14.61-2.73,3.59,1.65,6.37,4.05,7.73,7.78-8.32-2.67-18.27,.45-22.35-5.05Z"/>
      <path d="M88.29,255.12c-2.77,2.36-4.5,4.84-4.51,7.51,6.09-2.08,13.22,1.19,18.85-6.3-5.05-1.02-9.88-1.52-14.34-1.21Z"/>
      <path d="M117.91,256.51c4.94-1.13,9.83-1.58,14.66-1.16,2.42,2.35,4.31,4.71,4.52,7.13-7.72-2.23-17.23,2.08-19.19-5.97Z"/>
      <path d="M102.62,256.32c5.11-.7,10.2-.6,15.29,.19-.03,5.42-.42,10.72-7.99,5.52-7.72,4.16-9.36,2.23-7.29-5.71Z"/>
    </g>
  </g>
  <g class="empress">
    <path class="whiteDark" d="M87.03,124.19c-5.27,5.92-11.42,9.02-18.61,8.71,32.66-23.74,16.92-80.83,30.2-86.41l23.34,21.97c15.8,50.95-1.83,52.6-34.92,55.73Z"/>
    <g class="hairBlack">
      <path d="M124.63,51.15c4.8-2.88,4.06-9.61,.96-12.86-15.04-3.71-24.71-1.14-25.5,11.82-.66,15.77,23.87,16.8,24.54,1.03Z"/>
      <path d="M103.64,38.66c-1.92-1.56-2.61-3.65-2-6.36,7.54,.3,3.92-6.73,7.76-10.57,2.07-2.07,8.72-1.85,10.49,.22,2.52,2.95,1.92,10.79-1.26,12.71l-15,3.99Z"/>
    </g>
    <path class="flatMaroonLight" d="M100.39,55.36c-3.92-.44-5.25-5.76-1.77-8.87-2.29-3.47,.52-8.06,5.03-7.83,1.11-4.36,6.21-5.62,9.39-3.33,2.14-3.2,7.46-2.98,9.02,.22,2.59-1.7,6.73,.15,6.13,2.66,4.66,1.26,3.4,7.39-.36,8.65l-.74-5.25c-2,.52-4.43-.22-5.62-2.36-1.92,2.14-6.28,1.77-8.2-.22-1.33,2.44-4.51,3.62-7.32,2.66,.35,2.63-.96,5.39-3.84,5.62,1.92,2.55,.3,6.95-1.7,8.06Z"/>
    <g class="skinEastAsian">
      <path d="M100.54,213.7c-1.21,4.28-3.66,7.18-4.63,10.16-1.62,4.97-5.08,6.55-8.02,4.4-.68,.53-1.85,.27-2.37-.42-.69,.43-1.91,.13-2.3-.65-.65,.43-1.86-.22-1.73-.95-1.58-1.72,.01-3.13,1.39-5.9,1.18-2.39,2.47-5.45,4.11-7.89l13.55,1.24Z"/>
      <path d="M126.51,213.73c2.41,1.43,3.62,4.17,7.95,6.25,1.61,.78,1.1,2.3-.05,2.91,.05,.93-.71,1.81-1.76,1.86-.33,1.21-1.48,1.76-2.47,1.48-.44,.88-2.14,.93-2.69,.44-3.4,2.96-7-.8-8.12-2.58-3.57-5.65-7.73-6.75-11.08-10.97l18.21,.6Z"/>
      <path d="M102.61,73c.62-4.26,.79-6.64,.79-7.92,0-1.03,.02-3.35-1.01-4.34-4.48-4.32-.36-11.09,1.42-7.11,.45,1-.43,1.76,1.28,3.18-.03-5.28,3.21-6.4,3.5-9.77,3.3-2.79,6.58-3.46,9.85-2.12,3.75-.77,6.38-.02,7.09,3.31,.72,2.96,.04,6.12-.76,8.49-.7,2.08,1.54,9.72-5.98,14.83,.05,.85,.34,1.77,1.22,2.46,19.15,27.62-26.97,30.93-17.4-1.01Z"/>
    </g>
    <path class="bronzeMedium" d="M102.61,73c3.48,5.32,13.71,6.28,16.49,0l.91,1.01c-2.05,6.82-13.92,6.91-17.83,.53l.43-1.54Z"/>
    <path class="flatRedDark" d="M135.47,145.6c-7.49,27.51,2.69,44.59-8.46,56.97-11-44.17-20.77-87.27,10.68-94.61,5.08,1.22,2.35,21.28-2.22,37.64Z"/>
    <path class="whiteMedium" d="M102.9,81.5c3.87,11.03,17.28,10.43,19.13-1.76,10.63,32.44,10.65,69.72,6.27,113.59-.66,6.64,3.76,11.75,2.98,15.04,.16,8.62-15.98,12.69-25.07,4.07-10.61,12.53-30.6,.3-26.16-16.45l22.86-114.49Z"/>
    <g class="flatRedMedium">
      <path d="M139.72,102.03c4.23,4.08,1.17,29.09-4.25,43.57,4.47-18.27,4.87-35.87,3.2-40.28l1.05-3.29Z"/>
      <path d="M102.61,73c6.41,13.37-1.92,53.08,.98,82.45,1.48,14.95,20.66,16.56,23.57,0,7.42-42.36-3.07-45.08-7.15-81.43,2.88,2.37,11.08,.49,14.49,14.15l-4.01,28.3c1.79,14.39,3.35,31.38-.77,47.86-3.66,14.63-24.6,16.53-32.1,0-9.6-21.16-4.27-49.35-11.97-61.9-3.06-29.29,10.95-23.14,16.96-29.43Z"/>
    </g>
    <path class="skinEastAsian" d="M128.18,113.79c-1.44-5.41-.81-10.89-1.42-14.38-.88-5,2.78-5.07,2.9-3.07,.18,2.81,1.32,4.3,1.91,.11,.4-2.82-.95-5.86-.7-7.29,.33-1.91,5.47-3.76,7.02-.97,4.39,7.9,2.6,13.64,.79,17.12,2.51,8.49-3.42,17.37-10.5,8.46Z"/>
    <path class="porcelainDark" d="M118.76,98.4c4.82-.47,11.54-.57,17.03,0,2.08,10.22-5.3,6.05-5.3,18.07h-6.15c.66-12.2-7.95-7.38-5.58-18.07Z"/>
    <path class="skinEastAsian" d="M85.65,102.43c1.14-1.14,7.46-1.93,9.22-1.4,.63,3.27,.97,5.62,1.32,7.37,4.83-.35,15.01,2.02,16.07,1.67,3.56-1.19,7.73-2.46,11.5-2.02,2.08,.24,2.28,2.46-1.23,2.99-3.88,.58-1.23,1.84,.79,2.19,3.17,.55,4.29,.36,7.89-1.57,1.48-.79,6.2,2.01,5.18,3.34-2.86,3.73-5.35,5.54-11.05,5.69-4.3,.12-9.66-3.95-13.26-4.21-3.95-.7-14.43,2.95-22.39,.97-1.4-.35-3.77-9.45-4.04-15.01Z"/>
    <g class="flatMaroonLight">
      <path d="M128.17,120.41c-3.5,19.84-22.07,21.48-24.16-3.21-1.11,.17-2.27,.33-3.45,.47,1.47,34.8,29.92,25.51,30.7,1.95-.97,.35-2,.61-3.08,.79Z"/>
      <path d="M101.24,108.63c-16.08,4.41-5.44,53.09-9.15,73.71-1.57,8.73-9.41,9.96-10.14,17.92-1.12,12.18-13.01,15.04-25.02,14.2,29.75-6.59,10.65-16.56,12.17-23.33,2.36-10.49,14.03-7.94,15.04-21.3,.71-9.36-5.58-57.47,12.04-61.43,1.81-.68,3.49-.53,5.05,.23Z"/>
    </g>
    <g class="lipFemaleMedium">
      <path d="M114.25,66.4c.16,2.48,4.92,2.28,5.2,0h-5.2Z"/>
      <path d="M119.45,66.4c-2.02,.43-3.06,.43-5.2,0,1.37-1.18,2.34-.86,3.06-.64,.69-.32,1.28-.19,2.14,.64Z"/>
    </g>
    <g class="paintingDisplayLine">
      <path d="M119.88,57.16c1.31-.09,2.32-.09,3.9-.74"/>
      <path d="M115.79,57.07c-1.72,.06-3.27-.54-5.02-1.21"/>
    </g>
    <g class="paintingOverlapLine">
      <path d="M125.38,222.59c1,1.39,3.06,1.43,2.12,4.08"/>
      <path d="M129.04,223.26c1.23,.91,1.63,1.9,1.15,2.97"/>
      <path d="M132.65,224.75c.06-.85-.34-1.58-1.28-2.16"/>
      <path d="M134.41,222.89c-.23-.7-.62-1.25-1.21-1.63"/>
      <path d="M90.12,223.51c-1.05,2.39-2.94,2.83-2.22,4.76"/>
      <path d="M85.53,227.85c-.34-1.06,.1-2.05,.98-3.01"/>
      <path d="M83.23,227.19c-.32-.96-.11-1.88,.79-2.75"/>
      <path d="M81.49,226.24c-.08-.91,.2-1.72,.97-2.4"/>
      <path d="M119.56,60.05c1.46,2.2,.35,4.59-3.34,3.44"/>
      <path d="M118.79,71.55c-1.85,1.4-6.14,1.31-8.27-.93"/>
      <path d="M106.2,212.44c6.04-6.25,6.82-15.89,7.47-30.81"/>
    </g>
    <g class="paintingFoldLine">
      <path d="M88.46,226.33c.63,.41,1.6,.41,2.69,.23"/>
      <path d="M126.85,225.06c-.57,.49-1.36,.66-2.49,.32"/>
      <path d="M96.05,86.49c-1.51,5.62-.22,13.84-1.19,14.53"/>
      <path d="M127.4,86.6c.76,3.35,1.08,5.73,1.03,8.43"/>
      <path d="M116.93,52.45c-2.69-1.13-4.55-1.34-6.13-1.11"/>
      <path d="M120.18,52.45c1.54-.62,2.98-.88,4.26-.52"/>
      <path d="M109.86,34.23c-1.74-2.23-.73-5.79,0-7.73"/>
      <path d="M93.56,209.09c7.47,2.06,11.24-6.38,14.49-16.54"/>
      <path d="M114.65,197.85c.05,6.16,1.22,11.27,6.27,12.76"/>
      <path d="M138.68,105.32c-.89,2.03-2.19,2.74-3.38,3.33"/>
    </g>
  </g>
</svg>