<svg viewBox="0 0 218.19 290.59">
  <rect class="blackMedium" x=".5" y=".5" width="217.19" height="289.59"/>
  <path class="dullBlueDarkest" d="M148.09,252.96c-.06-.29-.06-.56-.33-.77-2.7-2.07-5.42-4.12-8.08-6.24-4.54-3.63-9.12-7.21-13.71-10.78-4.21-3.28-8.38-6.62-12.56-9.93l-59.61,51.06c-.17,.86,.07,1.72,.19,2.54,.3,1.92,.51,3.84,.5,5.78,0,1.32,.27,2.62,.4,3.93,.05,.52,.15,1.03,.25,1.54h88.23c.77-2.4,1.45-4.83,1.97-7.31,.39-1.82,.67-3.65,.96-5.48,.1-.62,.26-1.23,.3-1.85,.09-1.32,.45-2.6,.5-3.93,.04-1.06,.31-2.1,.43-3.16,.18-1.61,.34-3.23,.46-4.85,.13-1.64,.27-3.28,.3-4.93,.03-1.69-.08-3.39-.14-5.08,0-.18-.01-.36-.05-.54Z"/>
  <path class="pantsOverlapLine" d="M111.1,242.72c-.14,2.65,.25,5.28,.27,7.93,.02,3.16,.33,6.32,.63,9.48,.19,2.07,.43,4.15,.42,6.24-.03,4.06,0,8.11-.1,12.17-.07,2.72-.33,5.44-.52,8.16-.1,1.41,.03,1.76-.23,3.16"/>
  <path class="skinAshkenazi" d="M121.57,58.19c.44,1.7,1.32,3.15,2.36,4.56,1.52,2.07,3.43,3.77,5.05,5.74,1.65,2,3.32,3.97,4.68,6.17,.99,1.6,.67,2.61-.08,3.85-.84,1.39-2.14,2.18-3.55,2.85-.43,.2-.58,.48-.64,1-.27,2.15-.39,4.32-.56,6.48-.1,1.34-.26,2.67-.42,4-.23,1.99-.59,3.96-1.24,5.85-.87,2.51-2.54,4.29-5.13,5.2-.98,.34-2.32,.9-3.33,1.11-.53,.56-10.95,12.37-12.54,14.11l-28.96,.08c0-5.67-.07-17.6,.15-17.87,.62-.74,.95-1.6,1.27-2.53,.93-2.71-.67-5.58-2.53-6.9-.41-.29-.43-.49-.43-.82,0-10.76,0-21.51,0-32.27l45.9-.62Z"/>
  <path class="hairDarkBrown" d="M92.77,62.65c.16,.76,.27,1.53,.32,2.31,.07,1.23-.38,2.36-.55,3.54-.24,1.66-.51,3.32-.17,5.01,.06,.31,.05,.55-.44,.73-1.39,.51-2.74,1.13-4.17,1.5-.4,.1-.75,.32-1.14,.44-.56,.17-.7,.03-.87-.43-.51-1.4-1.46-2.45-2.85-2.9-1.91-.62-3.39,.12-4.54,1.74-1.07,1.51-1.31,3.16-1.3,5.01,0,1.45,.29,2.75,.87,3.99,.5,1.05,1.4,1.85,2.28,2.64,.79,.7,1.56,1.42,2.31,2.16,.38,.38,.59,.86,.31,1.38-1.07,1.97-2.12,3.96-4,5.32-.79,.58-.76,.55-1.55,0-1.62-1.13-2.85-2.65-4.15-4.1-.4-.45-.9-.79-1.25-1.3-.85-1.21-1.9-2.28-2.68-3.55-.36-.59-.64-1.23-.9-1.86-.55-1.36-1.41-2.56-1.96-3.91-.58-1.43-1.23-2.82-1.4-4.39-.08-.75-.18-1.49-.05-2.24l27.88-11.09Z"/>
  <path class="dullBlueMedium" d="M112.72,40.93c-.2-1.27-1.03-2.22-1.71-3.23-1.19-1.77-2.47-3.49-3.68-5.25-1.37-2-3.1-3.56-5.33-4.53-.92-.4-1.93-.5-2.92-.39-1.03,.12-2.03,.38-3.01,.74-2.21,.8-3.98,2.28-5.76,3.72-.36,.29-.72,.42-1.16,.38-1.55-.14-3.09,.04-4.62,.24-1.51,.2-2.91,.8-4.32,1.36-4.16,1.67-7.96,3.97-11.55,6.63-1.81,1.34-3.62,2.67-5.23,4.24-1.44,1.4-2.47,3.09-3.38,4.86-.75,1.47-1.5,2.92-1.73,4.61-.17,1.24-.1,2.47-.04,3.7,.14,2.66,.8,5.22,1.76,7.7,.38,.99,.82,1.95,1.23,2.93l51.45-27.73Z"/>
  <path class="dullMagentaMedium" d="M119.57,51.25c.47-.64,.23-1.32-.1-1.83-1.04-1.58-2.2-3.09-3.28-4.64-.92-1.32-1.82-2.66-2.69-4.01-.22-.34-.48-.6-.7-.84-3.39,.82-6.44,2.34-9.56,3.68-2.13,.91-4.16,2-6.23,3.03-1.93,.97-3.81,2.03-5.7,3.07-2.57,1.41-5.15,2.8-7.7,4.24-1.28,.72-2.51,1.55-3.78,2.3-1.48,.87-3.01,1.65-4.46,2.56-2.31,1.45-4.71,2.76-6.87,4.45-.87,.68-1.89,1.18-2.75,1.87-1.19,.94-2.56,1.62-3.71,2.6-.03,.02-.05,.06-.08,.08-1.12,.75-1.14,.76-.53,1.92,.63,1.22,1.29,2.41,1.92,3.62,.38,.73,.56,1.56,1.08,2.23l55.14-24.34Z"/>
  <path class="dullBlueMedium" d="M139.98,53.26c-.36,1.39-1.6,1.74-2.71,2.13-1.16,.41-2.36,.72-3.54,1.09-1.41,.44-2.87,.72-4.31,1.1-2.21,.58-4.41,1.2-6.63,1.76-1.27,.32-2.55,.66-3.85,.83-1.61,.22-3.16,.7-4.77,.89-1.99,.24-3.95,.73-5.94,.95-1.9,.22-3.8,.4-5.7,.64-1.27,.17-2.53,.46-3.79,.71-1.6,.32-3.19,.66-4.76,1.08-1.66,.44-3.33,.88-4.94,1.51-2.91,1.12-5.75,2.43-8.63,3.6-1.65,.67-3.27,1.38-4.83,2.21-2.13,1.13-4.39,2.01-6.49,3.2-.68,.38-1.44,.61-2.15,.94-.65,.3-1.3,.6-1.84,1.11,.09,.42,.09,.96,.32,1.33,.45,.71,.04,.95-.49,1.17-1.66,.68-3.34,1.32-5.08,1.77-.74,.19-1.48,.38-2.23,.53-.4,.08-.8-.02-1.15-.22-.51-.3-.62-.72-.31-1.23,.76-1.22,1.87-2.11,3.02-2.9,1.25-.87,2.5-1.74,3.82-2.51,1.83-1.06,3.75-1.96,5.64-2.9,2.3-1.15,4.58-2.37,6.94-3.36,1.92-.81,3.79-1.73,5.74-2.48,1.74-.67,3.4-1.61,5.11-2.4,1.35-.63,2.72-1.23,4.08-1.85,.98-.45,1.93-.98,2.93-1.37,1.65-.64,3.24-1.44,4.87-2.12,2.25-.95,4.4-2.11,6.67-2.99,2.01-.78,3.97-1.71,5.94-2.6,2.21-.99,4.42-1.97,6.71-2.75,.49-.17,.98-.36,1.46-.55,1.3-.5,2.59-.15,3.84,.17,1.59,.41,3.12,1.02,4.71,1.42,1.46,.37,2.96,.56,4.46,.73,2.03,.23,4.06,0,6.09,.22,.74,.08,1.4,.35,1.77,1.07v.08Z"/>
  <g class="hatFoldLine">
    <path d="M92.68,36.37c1.93,1.18,2.44,3.32,.5,5.19-2.09,2.01-4.58,3.32-7.21,4.43-1.38,.58-2.86,.88-4.25,1.41-.25,.1-.57,.02-.86,.02"/>
    <path d="M97,32.23c-1.5-1.07-3.11-1.02-4.78-.46-1.05,.35-2.11,.65-3.23,.62"/>
  </g>
  <path class="dullTealLighter" d="M81.45,116.18c5.9,.05,11.81-.09,17.71,.07,1.25,.04,1.69,.54,1.69,.54,.53-.74,1.35-.79,2.14-1.05,1.4-.46,2.78-.68,4.25-.66,3.77,.05,11.84,.02,12.13,.02v45.29h-22.68l-15.25-44.21Z"/>
  <path class="shirtBorderLine" d="M100.93,116.8c.58,.54,1.51,2.85,1.67,3.55,.37,1.6,.66,3.23,.94,4.85,.17,1.02,.29,2.05,.39,3.08,.17,1.69,.28,3.39,.48,5.08,.22,1.91,.57,3.81,.86,5.71,.35,2.24,.69,4.5,.92,6.77,.12,1.21,.16,2.45,.42,3.61,.53,2.34,.31,4.68,.42,7.02"/>
  <g class="dullTealLight">
    <path d="M78.21,104.78c.91,.56,1.54,1.44,2.37,2.1,1.9,1.51,4.06,2.55,6.18,3.68,1.78,.95,3.61,1.83,5.47,2.61,1.91,.8,3.85,1.54,5.77,2.33,.31,.13,.65,.28,.88,.62-1.86,.77-2.65,2.5-3.44,4.09-.69,1.39-1.32,2.83-1.94,4.27-.72,1.67-1.23,3.39-1.79,5.11-.37,1.13-.89,2.24-.94,3.46l-12.55-28.27Z"/>
    <path d="M116.8,118.26c-.39,1.28-.68,2.6-1.18,3.84-.84,2.11-1.85,4.16-3.05,6.1-.14,.22-.26,.4-.48,.53-.21,.12-.08,0-.08,0-.26-.8-.49-1.6-.78-2.39-.71-1.92-1.57-3.8-2.65-5.52-.9-1.43-1.73-2.96-3.04-4.1-.95-.82-2.46-1.24-2.46-1.24,.05-.52,.56-.44,.86-.6,1.71-.9,3.31-1.96,4.92-3.02,1.45-.96,2.65-2.13,3.14-3.86,.17-.61,.54-1.19,.79-1.77l4,12.01Z"/>
  </g>
  <path class="dullBlueDarkest" d="M175.64,199.36c2.67,2.88,5.34,5.75,8.01,8.63,1.04,1.12,2.05,2.26,3.08,3.39,.56,.62,1.1,1.26,1.7,1.84,1.06,1.03,2.63,1.05,3.93,.33,2.29-1.26,3.76-3.27,5.25-5.32,1.14-1.57,1.92-3.27,2.57-5.08,.38-1.05,.73-2.08,.87-3.17,.02-.12,.07-.28-.07-.38l-25.34-.23Z"/>
  <path class="dullTealLight" d="M184.5,183.8c1.13,.05,2.26,.23,3.39,.34,1.34,.13,2.67,.3,4.01,.43l1.93,17.48c-.04,.59-.36,.98-.93,1.07-.76,.12-1.52,.18-2.31,.12-1.01-.08-2-.21-3-.33-1.33-.15-2.66-.29-3.92-.74-.46-.16-1.15,.1-1.4-.59l2.23-17.79Z"/>
  <g class="dullBlueMediumDark">
    <path d="M160.39,172.63c-.3-1.16-1.02-2.11-1.54-3.16-.53-1.07-1.34-2-1.55-3.23-.14-.83-.3-1.66-.54-2.46-.45-1.48-.92-2.95-1.47-4.39-.37-.99-.6-2.03-1.01-3-.86-2.02-1.48-4.14-2.5-6.1-.59-1.13-1.06-2.33-1.46-3.54-.24-.73-.24-1.53-.33-2.3-.24-2.21-.57-4.42-1.26-6.54-.78-2.42-1.45-4.88-2.16-7.32-.75-2.58-1.35-5.2-2.08-7.78-.27-.95-.34-1.93-.67-2.86-.73-2.11-2.2-3.62-3.93-4.93-1.39-1.05-2.92-1.86-4.55-2.45-2.88-1.05-5.38-2.78-7.92-4.41-1.43-.91-2.99-1.51-4.54-2.16-.85-.36-1.72-.63-2.62-.85-.85-.2-1.18-.13-1.69,.55-.09,.13,6.38,79.63,6.38,79.63l35.43-12.71Z"/>
    <path d="M175.48,181.88c.46,.45,1.08,.29,1.62,.36,2.07,.27,4.16,.43,6.24,.49,1.61,.05,3.18,.38,4.77,.47,.62,.03,1.23,.29,1.85,.44,0,0-3.26,2.81-4.02,5.23-.33,1.05-.78,2.06-1.01,3.16-.19,.87-.34,1.76-.41,2.63-.15,1.97-.11,3.95,.11,5.93,.2,1.78,.76,3.46,1.27,5.15,.44,1.45,.63,2.89,1.5,4.18,.4,.84,.69,1.04,1,1.54,1.1,1.45,2.25,2.53,2.25,2.53-1.2,.37-2.2,.28-3.3-.03-1.28-.36-2.59-.48-3.86-.81-1.05-.28-2.12-.46-3.15-.78-2.52-.78-5.1-1.24-7.7-1.61-1.62-.23-3.24-.46-4.85-.78-2.07-.4-4.14-.84-6.16-1.45-2.74-.83-5.59-1.11-8.39-1.62-2.65-.49-5.29-1.09-7.85-1.95-.32-.11-.67,.03-.93-.2,0,0,.76,4.31,1.19,6.31,.33,1.52,.31,3.04,.49,4.55,.34,2.77,.57,5.55,.95,8.31,.37,2.67,.57,5.37,1.14,8.01,.34,1.59,.71,3.18,.98,4.78,.14,.81,.17,1.64,.31,2.46,.36,2.06,.63,4.15,.68,6.24,.05,2.25,.29,4.52-.63,6.71-.52,1.23-1.46,2.01-2.43,2.74-2.13,1.6-4.6,2.54-7.06,3.51-1.94,.77-3.97,1.15-5.96,1.69-1.31,.36-2.7,.54-4.06,.77-1.79,.3-3.59,.55-5.4,.74-1.25,.13-2.51,.31-3.78,.03-.78-.18-1.16-.4-1.3-1.17-.4-2.15-1-4.26-1.09-6.47-.06-1.46-.19-2.93-.27-4.39-.08-1.38-.17-2.78-.33-4.16-.24-2.07-.17-4.16-.16-6.24v-48.51l57.76-8.79Z"/>
    <path d="M110.79,240.87c.01,1.2-.31,2.35-.42,3.54-.13,1.44-.32,2.88-.52,4.31-.34,2.41-.58,4.83-.83,7.24-.16,1.51-.29,3.02-.83,4.47-.44,1.19-1.2,1.94-2.4,2.31-2.14,.66-4.33,.91-6.55,.91-2.03,0-4.06,0-6.08-.09-1.7-.08-3.39-.04-5.09-.33-1.6-.28-3.26-.31-4.85-.72-.18-.05-.32-.25-.54-.17l-.08-21.57,28.19,.08Z"/>
  </g>
  <path class="dullBlueDark" d="M117.41,159.54c.3-.93,.42-1.9,.37-2.85-.12-2.01,.02-4.01,.02-6.01,0-3.44,0-6.88-.22-10.32-.14-2.2-.14-4.42-.25-6.62-.12-2.49-.19-4.99-.49-7.47-.22-1.85-.4-3.71-.74-5.55-.27-1.5-.46-3.02-.94-4.46-.88-2.68-1.51-5.45-2.89-7.95-.49-.88,.64-2.71,1.68-2.83,1.38-.16,2.95-.14,4.3-.43,1.02-.22,1.58,.05,2.07,.82,1.15,1.79,2.39,3.51,3.62,5.24,1.2,1.67,2.22,3.45,3.26,5.22,.78,1.31,1.46,2.66,2.04,4.14-1.92,.21-3.8,.44-5.44,1.49,0,0,1.62,.67,2.46,1.09,1.68,.84,3.47,1.52,4.72,3.06,.23,.28,.32,.56,.36,.86,.32,2.63,.42,5.28,.46,7.93,.05,2.95,.02,5.91-.24,8.85-.19,2.06-.38,4.13-.8,6.17-.3,1.44-.41,2.93-.64,4.39-.14,.9-.39,1.79-.52,2.7-.21,1.42-.48,2.83-.78,4.23-.57,2.62-1.16,5.23-2.23,7.7l-9.17-9.4Z"/>
  <path class="porcelainMedium" d="M15.21,240.1c-1.81-.26-3.6,1.41-3.41,3.31,.21,2.1,1.79,3.61,3.87,3.54,.98-.03,2-.91,2.23-1.93l-2.7-4.93Z"/>
  <path class="whiteMediumDark" d="M100.22,159.52c.85-.56,1.72-1.07,2.63-1.53,1.88-.94,3.88-1.51,5.94-1.83,1.55-.24,3.12-.34,4.7-.16,.85,.1,1.74,.06,2.53,.34,1.99,.69,3.99,1.36,5.72,2.65,1.51,1.12,2.97,2.26,4,3.86,.74,1.17,1.27,2.44,1.86,3.69,.54,1.16,.75,2.41,1.05,3.63,.43,1.73,.38,3.53,.51,5.31,.05,.64,.1,1.38,.52,1.92,.56,.71,1.12,1.5,1.86,1.98,1.48,.96,2.94,1.99,4.6,2.65l-10.47,22.87c-.3,.09-.54,.3-.68,.54-1.15,1.96-2.3,3.88-2.68,6.22-.31,1.92-.18,3.79,.18,5.62,.21,1.09,.85,2.16,1.51,3.07,1.54,2.13,3.84,3.21,6.22,4.08,1.85,.67,3.58,1.45,4.93,2.94,1.4,1.54,1.75,4.37,.68,6.16-.68,1.14-1.59,2.09-2.55,3-.99,.94-2.12,1.67-3.37,2.27-1.69,.81-3.46,1.38-5.25,1.89-1.14,.32-2.3,.54-3.46,.78-1.49,.3-2.97,.64-4.47,.83-1.81,.23-3.64,.32-5.47,.48-1.98,.17-3.92,.61-5.69,1.49-2.57,1.28-4.87,2.93-6.82,5.11-1.92,2.14-3.73,4.37-5.72,6.45-1.49,1.56-2.84,3.27-4.3,4.87-1.7,1.86-3.37,3.75-5.34,5.37-2.08,1.71-4.01,3.61-6.18,5.21-2.89,2.14-5.78,4.29-9.09,5.77-1.21,.54-2.45,1.03-3.77,1.24-1.54,.25-3.07,.53-4.62,.7-1.65,.18-3.31,.06-4.84-.45-1.76-.58-3.43-1.5-5.09-2.35-1.82-.93-3.58-1.98-5.4-2.91-2.61-1.33-5.13-2.83-7.77-4.1-2.47-1.19-4.83-2.58-7.15-4.02-1.35-.83-2.78-1.62-3.78-2.91-1.42-1.82-2.46-3.88-3.58-5.87-1.06-1.88-1.87-3.91-2.88-5.84-.86-1.66-1.62-3.38-2.4-5.08-1.34-2.92-2.69-5.84-4-8.78-.85-1.92-1.59-3.88-2.35-5.84-.81-2.11-1.48-4.25-2.12-6.4-.56-1.89-.92-3.82-1.16-5.78-.13-1.05-.27-2.1-.31-3.16-.05-1.36-.01-2.72-.02-4.08,0-1.3,.15-2.59,.39-3.84,.23-1.21,.74-2.38,1.15-3.56,.95-2.75,2.04-5.41,3.65-7.84l32.19-31.04s55.87-5.57,55.98-5.65Z"/>
  <path class="dullMaroonDarkest" d="M52.1,183.03c1.43-.44,2.92-.54,4.39-.59,1.74-.07,3.5-.07,5.23,.08,1.96,.17,3.9,.07,5.86-.02,1.18-.06,2.32-.3,3.46-.55,1.67-.36,3.24-1.02,4.78-1.76,1.13-.55,2.33-.97,3.37-1.64,1.85-1.2,3.66-2.48,5.4-3.84,3.71-2.89,7.39-5.83,11.18-8.62,2.17-1.6,4.3-3.28,6.78-4.38,2.14-.95,4.21-2.04,6.7-2.07,1.62-.02,3.24-.13,4.85,.07,1.45,.18,2.87,.43,4.25,1.04,3.49,1.54,5.2,4.39,6.06,7.89,.4,1.65,.64,3.33,.94,5,.13,.76,.22,1.54,.31,2.31,.15,1.27,.53,2.41,1.28,3.49,.7,.99,1.59,1.73,2.51,2.41,.83,.61,1.62,1.36,2.67,1.65l-11.24,23.11c-.29,.98-1.08,1.73-1.24,2.77-.23,1.46-.65,2.88-.64,4.39,0,1.11-.04,2.23,.21,3.31,.3,1.29,.73,2.54,1.42,3.71,.99,1.66,2.1,3.23,3.73,4.28,1.45,.93,3.11,1.45,4.76,1.95,1.2,.36,2.28,.98,3.15,1.86,1.25,1.27,1.04,3.27,.01,4.69-1.09,1.51-2.71,2.25-4.32,2.99-2.03,.93-4.2,1.48-6.39,1.83-1.76,.28-3.52,.57-5.31,.75-1.82,.19-3.66,.29-5.47,.6-2.3,.4-4.61,.88-6.69,1.94-2.34,1.19-4.57,2.6-6.48,4.44-2.79,2.69-5.37,5.59-7.84,8.56-2.12,2.55-4.33,5.02-6.58,7.44-.86,.93-1.93,1.66-2.82,2.57-1.22,1.23-2.47,2.43-3.87,3.45-2.03,1.49-4.06,3.02-6.32,4.14-2.31,1.15-4.58,2.41-7.15,2.97-.95,.21-1.91,.3-2.85,.52-.74,.18-1.47,.32-2.23,.15-1.82-.39-3.57-.91-5.25-1.75-2.16-1.08-4.38-2.01-6.46-3.26-3.43-2.06-6.97-3.92-10.48-5.85-1.49-.82-2.86-1.83-4.32-2.69-1.02-.61-1.93-1.34-2.85-2.08-1.29-1.03-2.05-2.42-2.82-3.8-1.04-1.86-1.99-3.78-2.94-5.69-1.11-2.26-2.08-4.59-3.19-6.84-1.2-2.42-2.25-4.91-3.4-7.35-.85-1.82-1.63-3.7-2.24-5.62-.64-2.02-1.49-3.97-2.14-5.99-.9-2.8-1.44-5.63-1.62-8.56-.1-1.65-.16-3.29-.1-4.93,.04-.97,.12-1.97,.41-2.93,.32-1.04,.43-2.12,.84-3.16,.83-2.1,1.75-4.14,3.04-5.99,.11-.15,.15-.31,.22-.47l37.43-15.94Z"/>
  <path class="oakLight" d="M217.69,152.15l-.15-5.47c-1.48,.8-3.08,1.34-4.62,2-2.02,.86-4.05,1.7-6.08,2.54-2.28,.95-4.57,1.9-6.85,2.85-2,.83-4.01,1.63-6.01,2.47-2.29,.96-4.57,1.96-6.86,2.92-1.97,.83-3.94,1.68-5.93,2.46-3.31,1.29-6.56,2.7-9.84,4.04-2.94,1.2-5.86,2.45-8.79,3.67-3.84,1.61-7.69,3.2-11.54,4.8-2.93,1.22-5.86,2.44-8.79,3.67-2.87,1.2-5.75,2.37-8.61,3.58-2.88,1.22-5.77,2.41-8.65,3.65-3.59,1.55-7.23,2.99-10.85,4.48-.86,.35-.9,.62-.55,1.54,1.11,2.95,2.41,5.84,3.59,8.76,.91,2.25,1.86,4.48,2.82,6.71,.48,1.1,.74,1.14,1.85,.63,3.48-1.61,6.98-3.18,10.47-4.78,2.27-1.04,4.51-2.11,6.78-3.15,3.33-1.53,6.68-3.02,10.01-4.55,2.27-1.04,4.51-2.11,6.78-3.15,3.33-1.53,6.68-3.02,10.01-4.55,2.27-1.04,4.51-2.11,6.78-3.15,3.33-1.53,6.68-3.02,10.01-4.55,2.27-1.04,4.51-2.11,6.78-3.15,3.33-1.53,6.68-3.02,10.01-4.55,2.27-1.04,4.51-2.11,6.78-3.15,3.33-1.53,6.68-3.02,10-4.56,.49-.23,1.05-.37,1.47-.73v-11.27Z"/>
  <path class="oakDark" d="M52.1,202.67c.56,1.26,1.16,2.5,1.69,3.78,1.37,3.32,2.95,6.54,4.34,9.85,.72,1.71,1.53,3.39,2.29,5.09,1.24,2.77,2.49,5.53,3.72,8.31,.8,1.81,1.62,3.6,2.43,5.4,1.2,2.66,2.44,5.3,3.57,8,.34,.81,.69,1.63,1.14,2.39,.29,.51,.11,.92-.32,1.06-1.36,.45-2.68,1.14-4.15,1.17-1.25,.02-2.37-.44-3.3-1.24-1.33-1.15-2.31-2.59-3.26-4.06-1.06-1.64-2.11-3.27-3.73-4.52-1.44-1.11-2.68-2.51-3.86-3.91-1.12-1.34-2.18-2.76-3.01-4.3-.98-1.84-1.84-3.77-2.36-5.78-.55-2.12-.86-4.33-.63-6.53,.14-1.31,.46-2.6,.35-3.93-.1-1.31-.11-2.65-.77-3.85l5.85-6.93Z"/>
  <g class="skinAshkenazi">
    <path d="M195.59,163.24c.13-.43-.1-.78-.23-1.16-.44-1.25-.83-2.48-.63-3.85,.23-1.54,2.28-2.82,3.79-1.54,.26,.22,.54,.44,.77,.7,1.98,2.27,3.71,4.7,5.09,7.39,.9,1.76,1.43,3.66,2.01,5.54,.18,.6,.19,1.26,.61,1.77,0,0,.33-.34,.35-.84,.1-2.07,.07-4.13-.37-6.16-.32-1.53-.71-3.05-1.16-4.54-.46-1.55-.98-3.07-1.82-4.48-.82-1.37-.98-2.85-.4-4.39,.56-1.5,1.95-1.96,3.25-1.08,1.36,.92,2.06,2.31,2.76,3.71,.91,1.82,1.9,3.6,2.67,5.48,.65,1.58,1.15,3.25,1.55,4.92,.49,2.06,.91,4.14,1.14,6.24,.13,1.18,.26,2.39,.17,3.62-.04,.61,.06,1.28,.02,1.92-.13,2.03-.41,4.04-.97,6.01-.66,2.29-1.65,4.43-2.53,6.63-1.11,2.76-2.7,5.15-4.71,7.32-1,1.08-1.97,2.15-3.25,2.91-2.01,1.2-4.18,2.02-6.47,2.45-1.32,.25-2.64,.57-4,.58-.34,0-.54-.06-.77-.26-2.72-2.28-4.17-5.25-4.79-8.7-.23-1.31-.14-2.6,.08-3.84,.17-.98,.77-1.95,1.63-2.64,.18-.14,.27-.4,.48-.73-.36-1.11-.81-2.49-1.24-3.88-.59-1.91-.93-3.88-1.03-5.85-.05-.97,.05-2,.1-3,.03-.8-.07-1.62,.1-2.38,.36-1.55,.69-3.15,2.51-3.8,.45-.16,.22-.67,.17-1.06-.15-1.06-.26-2.09,.13-3.17,.49-1.37,2.48-1.7,3.48-1.06,.89,.57,1.55,1.22,1.55,1.22Z"/>
    <path d="M61.27,203.37c1.45,.47,2.95,.78,4.39,1.3,1.92,.68,3.25,1.96,4.24,3.71,1.42,2.51,3.26,4.69,5.48,6.53,.54,.45,1.31,.62,1.9,1.03,.85,.59,1.5,1.42,2,2.3,1.01,1.8,2.61,2.57,4.56,2.76,1.51,.15,3.28-1.33,3.53-2.69,.05-.27,.32-.61,.32-.61,1.74,1.35,2.56,1.23,4.31,.46,1.2-.53,1.98-1.42,2.42-2.68,.2-.57,.2-1.01,.2-1.01,.34,0,.62,.14,.94,.28,1.06,.47,2.23,.77,3.28,.15,.9-.53,1.59-1.34,2.04-2.35,.43-.96,.26-1.9,.14-2.86,0,0,1.22-.03,2.07-.78,1.37-1.2,1.86-3.19,.87-5-.64-1.18-1.64-2-2.63-2.91,.82-.56,1.77-.71,2.54-1.23,1.48-1.01,2.73-2.17,3.17-4.01,.12-.51,.02-.91-.33-1.23-.86-.78-1.77-1.18-3.01-.72-2.11,.79-4.23,.46-6.31-.29-1.76-.63-3.21-1.77-4.7-2.84-2.22-1.6-4.64-2.79-7.39-3.06-1.53-.15-3.1-.19-4.62,.21-2.12,.56-4.26,.38-6.39,.14-2.32-.25-6.16-.92-7.63-1.54l-5.39,16.94Z"/>
  </g>
  <g class="skinOverlapLine">
    <path d="M190.58,167.09c.31,1.46,.56,1.8,.8,2.84,.24,1.03,.41,2.09,.76,3.08,.58,1.61,.97,3.29,1.65,4.87,.31,.72,.53,1.41,.79,2.15"/>
    <path d="M195.66,163.32c.92,1.39,1.44,2.99,1.73,3.56,1.31,2.59,2.16,5.35,2.66,8.22,.08,.46,.15,.92,.23,1.39"/>
    <path d="M93.31,203.21c1.23,1.05,2.63,1.94,3.85,3.01,.81,.7,1.75,1.43,2.54,2.16,.29,.26,1.03,.84,1.16,1.23"/>
    <path d="M82.83,88.76c.54,.92,.85,1.23,1.06,1.63,.09,.07,.77,.89,1.65,1.34,.84,.43,1.83,.65,2.83,.42"/>
    <path d="M89.46,208.91c.87,.9,1.87,1.98,2.78,2.84,.84,.79,1.69,1.85,2.46,2.71"/>
    <path d="M189.89,186.42c.39,1.08,.37,1.23,.6,1.85,.47,1.24,1.1,2.4,1.63,3.61"/>
    <path d="M96.31,197.43c.77,.54,.79,.56,1.16,.84,1.27,.95,2.56,1.86,3.84,2.79"/>
    <path d="M84.06,213.22c.69,.77,.88,1.23,1.6,1.86,.49,.43,.82,1.02,1.25,1.52,.26,.3,.46,.62,.76,1.01"/>
    <path d="M207.06,172.1c0,.77,.03,1.31,.15,2.08"/>
  </g>
  <path class="dullTealLight" d="M51.72,203.83c2.23,1.1,4.55,1.91,7.01,2.32,.72,.12,1.42,.28,2.16,.32,.97,.05,1.12,.03,1.3-.94,.21-1.12,.34-2.26,.55-3.39,.35-1.84,.79-3.66,1.29-5.47,.87-3.14,1.76-6.26,3.09-9.24,.06-.13,.11-.25,.15-.39,.27-.75,.15-1.02-.62-1.23-2.64-.72-5.31-1.26-8.01-1.69-.45-.07-.92,0-1.38,0l-5.55,19.72Z"/>
  <path class="dullBlueMediumDark" d="M70.89,104.55c-.98,.68-2.14,.89-3.24,1.22-2.61,.78-5.23,1.49-7.79,2.45-1.47,.55-2.96,1.07-4.45,1.59-1.46,.51-2.83,1.28-4.22,1.94-1.68,.8-3.45,1.36-5.1,2.2-2.72,1.38-5.38,2.88-7.76,4.79-.62,.5-1.01,1.27-1.25,2.06-.32,1.06-.47,2.12-.32,3.24,.18,1.4-.41,2.61-1.13,3.78-1.11,1.81-2.68,3.23-4.02,4.84-2.47,2.97-5.07,5.84-7.43,8.89-1.57,2.02-2.57,4.38-3.22,6.9-.48,1.84-.88,3.74-1.9,5.39-1.6,2.57-3.03,5.24-4.91,7.64-1.4,1.79-2.75,3.63-3.85,5.62-.9,1.64-1.7,3.34-2.55,5-1.2,2.32-2.36,4.65-3.48,7-.38,.8-.54,1.68-.92,2.47-.58,1.23-.83,2.55-1.05,3.86-.19,1.17,.21,2.3,.61,3.38,.7,1.87,1.79,3.51,3.21,4.94,2.05,2.08,4.29,3.88,6.78,5.39,1.56,.94,3.2,1.71,4.86,2.46,.31,.14,.63,.28,.92,.46,1.74,1.08,3.73,1.58,5.55,2.46,1.65,.81,3.44,1.24,5.14,1.89,1.7,.65,3.5,.92,5.17,1.59,2.06,.83,4.2,1.4,6.33,1.96,2.22,.59,4.43,1.26,6.69,1.74,.99,.21,1.93,.67,2.93,.9,1.25,.28,1.86-.1,1.88-1.61,0-1.29,.25-2.56,.24-3.85,0-1.2,.08-2.42,.33-3.62,.32-1.53,.51-3.09,.84-4.62,.28-1.28,.59-2.55,.83-3.84,.1-.5,.37-1.04,.57-1.55,.33-.81,.57-1.67,.94-2.46,.88-1.87,1.57-3.85,3.13-5.33,.7-.67,1.61-.83,2.41-1.24,.11-.05-.09-.06-.09-.06-.27-.47-.76-.63-1.23-.77-1.54-.45-3.11-.8-4.61-1.33-2.19-.78-4.37-1.59-6.49-2.57-.56-.26-.91-.65-.91-.65,.28-.08,.56-.2,.85-.22,2.83-.2,5.65-.03,8.47,.14,1.97,.12,3.95,.24,5.93,.22,1.81-.03,3.61-.23,5.4-.57,1.74-.32,3.4-.89,5.08-1.41,3.2-.98,5.81-3.02,8.51-4.83,2.36-1.58,4.66-3.3,6.85-5.14,.93-.78,1.28-1.62,1.5-2.67l-20.02-60.07Z"/>
  <g class="suitFoldLine">
    <path d="M33.77,166.25c1.79,.38,3.5,.9,4.94,2.14,1.49,1.29,1.76,4.55,1,6.26"/>
    <path d="M141.13,138.44c-.5,1.92-1.22,3.73-2.31,5.39"/>
    <path d="M60.73,152.84c-.93,1.7-2.87,3.9-4.78,4.54-.17,.06-.36,.06-.54,.08"/>
  </g>
  <g class="suitOverlapLine">
    <path d="M138.67,125.5c-.13,1.13-.25,2.26-.39,3.39-.23,1.84-.4,3.69-.56,5.54-.07,.82-.26,3.49-.25,4.01,0,1.62-.18,3.24-.14,4.85,.03,.94,.03,1.9,.17,2.85,.21,1.43,.4,2.87,.54,4.31,.12,1.22,.45,2.41,.67,3.61,.29,1.6,.69,3.18,.95,4.78,.29,1.82,.65,3.62,.8,5.47,.12,1.57,.29,3.13,.4,4.7,.06,.8,.11,1.59,.13,2.39,.05,2.41,.2,4.67,0,7.09"/>
    <path d="M55.8,147.99c.31,.85,.33,1.19,.33,1.85,.01,1.58-.42,3.05-1.04,4.46-.7,1.57-1.39,3.18-2.33,4.6-.93,1.41-1.89,2.81-2.89,4.19-1.4,1.94-2.82,3.87-4.14,5.87-.46,.7-.73,1.55-.93,2.38-.43,1.81-1.49,3.22-2.71,4.54"/>
    <path d="M143.14,197.59c.7,2.62,1.33,6.96,1.39,7.09"/>
    <path d="M48.33,179.18c-.73-.11-1.31-.58-1.92-.93-2.34-1.36-4.67-2.75-7.25-3.59-1.59-.51-3.25-.77-4.92-.87-2.09-.12-4.14,.19-6.16,.64-2.13,.48-4.16,1.33-6.07,2.39-.39,.22-.55,.2-1.17,.74"/>
  </g>
  <path class="dullBlueDark" d="M76.2,124.37c-1.19-.25-2.37-.03-3.54,.21-1.08,.22-2.15,.46-3.3,.71,0-.98-.22-1.83-.28-2.72-.13-2.06-.12-4.11-.14-6.16-.01-1.26-.07-2.52-.11-3.77-.08-2.39,.06-4.75,.53-7.08,.09-.46,.32-.89,.73-1.26,.7-.64,1.44-1.24,2.18-1.82,1.34-1.03,2.7-2.03,4.08-3.01,.54-.38,1.51-.42,1.92-.16l-.31,.77c-.11,.98,.22,1.87,.52,2.78,.64,1.89,1.44,3.71,2.4,5.47,.86,1.58,1.73,3.17,2.54,4.78,1.01,2.01,1.97,4.05,2.93,6.08,.69,1.48,1.42,2.95,1.99,4.47,.54,1.45,1.08,2.89,1.7,4.31,.57,1.3,.98,2.67,1.48,4,.47,1.26,.98,2.51,1.46,3.78,.57,1.5,1.32,2.92,1.78,4.47,.57,1.94,1.08,3.9,1.64,5.85,.52,1.83,1.12,3.63,1.6,5.47,.38,1.47,.85,2.92,1.21,4.39,.3,1.2,.84,2.35,.86,3.57-3.58,1.74-6.49,4.38-9.61,6.87-.51-1.14-1.16-2.19-1.74-3.27-1.68-3.08-3.53-6.07-5.28-9.11-1.09-1.9-2.26-3.76-3.45-5.58-1.16-1.78-2.31-3.58-3.45-5.37-1.98-3.12-3.99-6.22-6.05-9.29-.49-.73-.85-1.53-1.22-2.32-.15-.33-.19-.7,.08-.99,.57-.62,1.03-1.3,1.68-1.87,1.62-1.42,3.28-2.75,5.1-3.91,0,0,.39-.22,.07-.28Z"/>
</svg>