<svg viewBox="0 0 196.47 261.63">
  <rect class="flatYellowLighter" x=".5" y=".5" width="195.47" height="260.63"/>
  <path class="whiteLight" d="M101.57,228.62c-.29,.69-.28,1.03-.06,1.5-.39,.42-.9,.8-1.06,1.41-.05,.21-.18,.45-.12,.62,.28,.82-.11,1.45-.41,2.16-.49,1.17-.47,2.42,.06,3.59,.25,.55,.25,.97,.02,1.55-.25,.64-.19,1.38,.09,2.07,.2,.49,.28,.89-.38,1.28-.87,.52-1.34,1.47-1.25,2.52,.08,.94-.13,1.84-.1,2.77,.07,2.28,2.47,4.26,5.01,3.4,.49-.91,1.31-.43,2.01-.48,.8-.06,1.49-.37,2.08-.91,.17-.15,.39-.36,.4-.55,.04-.66,.58-.79,.97-1.13,.86-.77,1.55-1.68,1.41-2.96-.05-.45,.03-.87,.28-1.25,.86-1.32,.89-2.73,.4-4.15-.24-.68-.29-1.36-.1-2.01,.27-.94-.36-2.71-.36-2.78l.21-.21c.44-.18,.9-.33,1.31-.56,.8-.45,1.42-1.09,1.8-1.93,.21-.45,.52-.75,.97-.98,.69-.36,1.18-.92,1.55-1.64,.44-.85,.97-1.62,1.76-2.26,1.15-.93,1.56-2.29,1.34-3.78-.1-.69-.03-1.27,.39-1.89,.44-.65,.73-1.43,.39-2.27-.05-.11,.04-.27,.06-.41,2.51,.4,3.26,.02,4.26-.93,.68,.68,1.55,.8,2.46,.88,.93,.07,12.64-1.44,13.52-1.38,1.46,.11,2.72-.2,3.74-1.28,.08-.08,.1-.22,.13-.28,2.63,1.25,7.1-.16,7.94-2.47,.98,.53,1.8,.22,2.55-.5,.44-.41,1.08-.36,1.61-.67,.81-.48,1.36-1.15,1.86-1.92,.46,.21,.97,.1,1.45,.23,.08,1.32,.81,2.16,2.15,2.5,.41,.1,.74,.35,.69,.83-.1,.83,.44,1.25,1.06,1.51,.59,.25,.64,.53,.42,1.06-.3,.73-.5,1.51-.13,2.28,.1,.21,.02,.39-.03,.48-.86,1.71-.15,3.86,.88,4.68,1.09,.87,3.67,2.98,3.66,3.37,0,.48,.49,.54,.81,.53,.73-.02,1.51,.22,2.16-.38,.22-.21,.55-.09,.82,.06,1.01,.53,1.99,.33,2.62-.56,.06-.09,.19-.17,.15-.34-.15-.64,.31-1.14,.42-1.73,.35-1.82,.41-2.48-1.19-3.6-.29-.2-.17-.53-.33-.78-.38-.6-.24-1.28-.09-1.93,.25-1.06,.51-2.13-.12-3.3,.76,.21,1.41,.22,1.74,1,.21,.48,.78,.75,1.29,.83,1.65,.25,3.28,.21,4.63-.96,.36-.31,.75-.68,.69-1.24-.04-.37,.26-.48,.42-.69,.42-.54,1.03-.99,.9-1.8-.08-.5-.11-1-.54-1.4-.44-.41-.59-1.02-.77-1.58-.32-1.03-.83-1.87-1.88-2.29-.31-.12-.47-.37-.65-.68-.4-.72-.85-1.43-1.78-1.61-.49-.1-.86-.42-1.04-.9-.5-1.33-1.44-2.2-2.78-2.62-.57-.18-1.01-.49-1.31-.98-1.13-1.82-1.73-2.25-3.75-2.63,.05-.41,.2-.81,.08-1.25-.28-.95,.42-1.58,.83-2.28,.51-.86,.87-1.75,.83-2.78-.01-.25-.03-.49-.21-.7-.42-.5-.24-.99-.02-1.53,.34-.81,.51-1.71-.15-2.4-.6-.63-.48-1.27-.32-1.96,.27-1.18,.29-2.29-.69-3.2-.12-.11-.16-.31-.26-.51,.46-.34,.61-.8,.62-1.35,0-.34,.15-.66,.6-.78,.51-.13,.96-.44,1.39-.75,.55-.4,.9-.9,1.06-1.59,.14-.59,.4-1.03,1.14-1.3,1.66-.61,2.83-1.81,3.21-3.63,0-.02,0-.05,0-.07-.39-.86,.27-1.03,.81-1.42,.69-.5,1.46-.94,1.85-1.83,.45-1.02,.45-1.98,.12-2.99-.04-.13-.21-.69-.21-.69,.53,.25,1.62,.09,2.15-.27,.36-.24,.55-.21,.55-.21,.39,.56,.69,1.24,1.6,1.05,.29-.06,.45,.26,.61,.42,.41,.43,.89,.65,1.47,.75,.98,.18,1.3-.09,1.25-1.12,0-.16-.03-.32,.14-.42,0,0,1.02,.91,1.81,1.44,.37,.25,.78-.05,.89-.54,.16-.71,.04-1.4-.15-2.08-.67-2.36-1.98-4.34-3.66-6.11-.76-.79-1.47-1.61-2.5-2.08-.16-.07-.23-.27-.3-.47-.97-2.6-2.44-4.85-4.92-6.22-.98-.54-2.03-1.03-3.24-1.1-1-.06-1.84,.16-2.64,.72-.58,.4-1.17,.74-1.95,.37-.31-.15-.69,.1-.95,.33-.21,.18-.47,.28-.69,.42-.59,.37-1.03,.17-1.39-.29-.7-.9-1.56-1.58-2.65-1.92-.36-.11-.76-.24-1.17-.16-.68,.12-1.19-.07-1.54-.75-.24-.46-.65-.79-1.14-1.09-.53-.33-.95-.34-1.48-.18-.81,.25-1.31,0-1.66-.83-.7-1.67-1.94-2.38-3.74-2.46-1.01-.05-5.53-.85-5.62-.86-1.46-.3-2.09,.08-2.65,1.45-.27,.67-.21,1.34-.19,2.01,.02,.58-.17,.92-.76,1.13-.74,.26-1.11,.97-1.3,1.65-.29,1.04-.28,2.11,.4,3.04,.55,.76,.69,1.67,1.01,2.51,.12,.31,.48,.46,.46,.84-.41,.21-.86,.3-1.27,.52-1,.54-1.64,2.39-.82,3.61,.3,.45,.37,.81,.08,1.33-.77,1.42,.05,3.54,1.58,4.14,.36,.14,.68,.32,.97,.57,.2,.17,.33,.33,.36,.62,.16,1.56,.98,2.72,2.29,3.52,.35,.22,.74,.43,1.23,.46,.75,.05,1.07,.57,1.04,1.43-.02,.43,0,.82,.28,1.18,.36,.48,.3,1.17-.15,1.51-.86,.65-1.16,1.5-1.17,2.51,0,.59-.26,1.07-.69,1.45-.43,.38-.78,.82-.89,1.39-.07,.36-.34,.44-.63,.48-.95,.14-1.31,.45-1.52,1.39-.16,.73-.57,1.11-1.32,1.19-.65,.07-1.28,.37-1.71,.78-.55,.53-1.19,.59-1.83,.72-2.42,.53-4.84,1.09-7.28,1.51-1.93,.33-3.83,.78-5.75,1.14-1.97,.37-3.92,.85-5.9,1.23-1.6,.31-3.19,.63-4.79,.96-.41,.08-.89-.06-1.31-.14-1.54-.31-2.66,.44-3.79,1.32-2.05-.89-3.88-.43-5.78,1.47-1.37-.25-2.64-.19-3.84,.73-.46,.35-.96,.73-1.5,1.01,0,0-1.23-2.6-2.9-3.19,.17-1.46,.01-2.72-1.25-3.62-.21-.15-.28-.2-.28-.2,.42-1.28-.01-2.7-1.13-3.62,.12-.36,.32-.72,.35-1.09,.07-.87-.32-1.78-1.51-1.9-.86-.09-1.06,.53-1.46,.99-.4,.47-.37,1.06-.46,1.6-.17,1.02-.64,1.98-.59,3.05,.03,.68-.03,1.36,.28,2.01,.23,.49,.29,1.04,.29,1.59,0,1.6,.34,3.15,1.43,4.33,.48,.52,.53,.86,.38,1.43-.33,1.25,.13,2.33,.84,3.32,.2,.28,.27,.7,.27,.7-2.02,1.3-3.01,3.14-3.07,5.54-.02,.73-.1,1.41-.85,1.98-1.21,.92-1.74,2.31-1.92,3.84-.1,.8-.2,1.58,.09,2.36,.21,.57,.03,1.12-.22,1.59-.83,1.55-.86,3.05,0,4.59,.16,.28,.26,.59,.35,.9,.29,1.04-.31,1.84-1.38,1.87-.97,.02-1.57,.47-1.94,1.46-.11,.28-.21,.56-.32,.84-1.4-.39-2.5,.63-3.13,1.74-.21,.37-.41,.71-.78,.89-1.66,.8-2.37,2.24-2.54,3.96-.1,.97-.59,1.7-1.21,2.35-.87,.91-1.3,2-1.6,3.19-.21,.84-.84,1.42-1.5,1.95-1.09,.87-1.78,2-1.93,3.39-.08,.75-.15,1.54,.68,2.01,.06,.04,.13,.13,.14,.2,.07,1.55,1.19,1.9,2.43,2.17,.48,.1,.97,.21,1.4,.53,1.19,.9,3.03,.59,3.94-.62,0,0,.17-.34,.21-.34,.78,.04,1.28-.49,1.79-.92,.55-.47,1.14-1.04,1.08-1.79-.08-1.03,.41-1.73,1-2.43,.71-.84,1.15-1.87,1.06-2.91-.1-1.2,.34-2.07,1.02-2.91,.67-.84,1.2-1.71,.83-2.84l.35,.07c1.05-.34,2.1-.05,3.11,.11,.63,.1,1.16-.1,1.65-.29,.59-.22,.97-.82,1.27-1.44,.18,.05,.37,.1,.55,.16,.85,.31,1.69,.29,2.49-.15,.19-.1,.37-.16,.56-.19,.77-.13,1.55-.18,2.29-.49,0,0,.1,.3-.06,.7Z"/>
  <g class="furOverlapLine">
    <path d="M111.75,215.8c-.52,1.43-1.63,2.41-3.19,2.49-.46,.02-.47,.26-.35,.63,.4,1.19-.28,3.12-1.31,3.68-.4,.21-.82,.27-1.33,.29,.36,2.57-1.78,4.14-3.8,4.97"/>
    <path d="M183.49,155.84c-.46-.66-1.38-.48-2.02-.59-.83-.14-1.71-.31-2.56,.09-.38,.18-.59-.13-.76-.47-.54-1.05-1.26-1.91-2.56-2.01-.34-.03-.31-.25-.36-.49-.24-1.15-.99-1.74-2.21-1.73-.37,0-.62-.07-.85-.41-.24-.37-.59-.68-1.09-.7"/>
    <path d="M111.41,214.62c.02,1.24,1.04,2.5,2.7,2.98,1.18,.34,2.39,.39,3.6,.26,.34-.04,.5-.05,.71,.28,.43,.68,.82,1.06,1.65,1.12"/>
    <path d="M159.86,210.94c1.18-.04,2.25-.71,2.89-1.68,.22-.32,.37-.36,.71-.28,1,.23,1.99,.37,2.78-.59,.5,.38,.99,.77,1.71,.31,.16,.58,.23,1.12,.49,1.61,.54,1.02,1.39,1.66,2.5,1.84,.57,.09,.64,.36,.62,.79-.05,.99,.39,1.73,1.11,2.36,.25,.22,.84-.02,.98,.41"/>
    <path d="M146.06,207.82c.27,1.22,.64,1.67,2.01,2,.78,.19,1.57,.16,2.43-.06,.91,1.15,2.16,1.61,3.66,1.46,.96-.1,1.84-.32,2.44-1.19,.48,.31,.94,.83,1.58,.77"/>
    <path d="M168.87,198.19c-.35-.01-.66,.02-.98-.26-.94-.83-2.02-.84-3.11-.29-.54,.28-1.06,.61-1.6,.89-.18,.09-.38,.23-.62,.02-.9-.78-1.92-.57-2.82-.12-.83,.42-1.72,.59-2.59,.83-.29,.08-.92,.25-1.08-.57-.13-.68-.64-1.32-1.48-1.46"/>
    <path d="M145.72,153.97c.75,.55,1.05,1.01,1.94,1.25"/>
  </g>
  <path class="blackMedium" d="M154.53,143.64c.03-.65,.22-1.27-.05-1.95-.5-1.23-1.36-2.06-2.52-2.62-.32-.15-.65-.27-.97-.42-1.48-.67-3.27,.46-3.51,2.14-.35,2.52,.84,3.79,2.54,4.49,.93,.39,1.93,.48,2.9,.02,0,0,1.56-.78,1.6-1.66Z"/>
  <path class="blackDark" d="M147.52,155.91c.24,.84,.65,1.57,1.38,2.09,.22,.15,.4,.31,.69,.36,.48,.09,.99,.33,1.17,.82,.26,.72,.8,1.1,1.4,1.45l.14,.14c-1.29,.81-3.6-.11-4.16-1.66-.11-.29-.23-.52-.54-.71-.87-.53-.97-1.17-.51-2.13,.16-.34,.44-.59,.63-.9l-.21,.55Z"/>
  <path class="whiteMediumLight" d="M57.34,200.13c-2.22,1.59-4.4,3.23-6.64,4.8-1.02,.72-2,1.5-3.07,2.11-1.91,1.08-3.63,2.43-5.44,3.65-1.6,1.08-3.14,2.27-4.74,3.35-1.38,.93-2.67,1.97-4.06,2.89-1.18,.77-2.14,1.87-3.22,2.8-.83,.72-1.66,1.44-2.42,2.22-.2,.2-9.13,.16-9.22,.07,0-1.04,.03-7.63,.35-7.83,1.61-1.05,3.13-2.24,4.86-3.11,.35-.18,.56-.51,.88-.72,1.15-.77,2.32-1.55,3.32-2.5,1-.96,1.94-1.99,2.89-3,1.59-1.69,2.89-3.62,4.4-5.37,.91-1.06,1.67-2.25,2.51-3.38,1.29-1.74,2.45-3.57,3.9-5.18,.7-.79,1.6-1.4,2.41-2.1,.27-.24,13.31,11.12,13.38,11.23l-.07,.07Z"/>
  <path class="oakMedium" d="M23.86,210.87c-.58-.45-1.28-.74-1.94-.75-1.77-.02-3.46,.39-5.06,1.17-.91,.45-1.83,.88-2.7,1.39-1.11,.66-1.77,1.58-1.75,2.97,.04,2.91,.19,9.53,.7,9.72,1.81,.66,1.34,.37,1.6,2.07,.26,1.68,.41,3.38,.66,5.06,.25,1.7,.71,3.34,1.11,4.99,.05,.19,.08,.41,.17,.54,.83,1.19,1.25,2.63,2.2,3.75,.61,.71,1.27,1.35,1.97,1.98,1.73,1.54,3.83,1.5,5.86,1.66,2.11,.16,4.25,.08,6.37,.02,1.55-.04,3.1-.22,4.64-.33,.66-.05,.95-.55,1.01-1.05,.16-1.36,.34-2.74-.05-4.08-.51-1.76-1.62-2.93-3.38-3.56-1.01-.37-2.01-.56-3.04-.7-.12-.55-.17-1.15-.58-1.63-.11-.12-.23-.33-.35-.33-.96-.02-.8-.84-.87-1.34-.11-.85-.24-1.71-.27-2.56-.02-.61-.18-1.25,.08-1.88,.12-.3-.02-.68,0-1.03,.06-1.41,.22-2.82-.05-4.23-.15-.74-.39-1.39-1.08-1.9-1.21-.89-2.56-1.3-3.97-1.63-.39-.09-.78-.14-1.18-.21-.9-.16-1.67,.06-2.31,.8-.55-.42-.51-1.06-.67-1.63-.33-1.13-.44-2.3-.4-3.47,.03-1.25,.75-2.14,1.66-2.91l1.59-.9Z"/>
  <g class="dullOrangeDarkest">
    <path d="M42.71,23.65c-.94,1.29-10.53,11.79-10.88,11.79-1.22,0-2.45,.02-3.67-.02-.28,0-.6,.36-.82,0-.18-.3-.21-.67-.23-1.03-.04-1.37,.51-2.59,1.14-3.73,.71-1.29,1.49-2.57,2.55-3.61,1.12-1.09,2.33-2.11,3.53-3.12,.36-.3,8.13-.38,8.38-.35v.07Z"/>
    <path d="M39.46,147.03c-.74-.14-1.38,.27-2,.52-1.68,.69-3.36,1.42-4.93,2.33-1.33,.77-2.66,1.53-3.97,2.32-1.97,1.18-3.77,2.57-5.67,3.84-.57,.38-2.13,1.82-2.42,2.09-1.21,1.1-2.53,2.08-3.56,3.38-.27,.35-.77,.51-1.1,.95-2.23-1.97-3.8-4.37-5.39-6.76-.24-.36-.35-.79-.28-1.23,.99-.3,3.56-1.14,3.68-1.53,.24-.81,.55-1.59,.83-2.41-.77-1.12-1.59-2.32-2.59-3.33-1.37-1.38-2.36-3-3.31-4.66-.42-.75-.89-1.46-1.22-2.27-.11-.28-.87-1.65-1-2.3-.41-2.13-.65-4.27-.5-6.44,.12-1.84,.58-3.57,1.6-5.13,.17-.25,.33-.46,.68-.58,3.49-1.15,80.6-23.13,80.9-23.13,0,.3,0,41.71,.01,62.18,0,.53-.13,.94-.49,1.32-1.59,1.7-2.95,3.58-3.8,5.76-.77,1.98-1.64,3.92-2.13,6.02-.51,2.18-6.85,24.64-7.35,24.92-.35-.54-.68-1.05-1.01-1.55-.48-.72-1-1.41-1.74-1.86-1.28-.78-2.6-1.48-4-2.05-1.1-.45-2.27-.79-3.22-1.61-.39-.34-21.92-13.53-23.39-14.67-1.52-1.18-2.91-2.53-4.23-3.94-.55-.59-1.25-.96-1.83-1.5-.4-.37-.92-.71-1.44-.82-2.21-.47-4.4-1-6.65-1.3-1.65-.22-3.24-.71-4.51-1.91-.52-.5-.62-1.22-.19-1.8,1.06-1.43,2.06-2.91,2.96-4.45,.82-1.41,1.59-2.86,2.36-4.29,.68-1.26,1.29-2.57,2.03-3.8,.75-1.26,1.52-2.53,2.44-3.66,1-1.24,2.08-2.44,3.3-3.49,1.21-1.05,3.13-3.11,3.13-3.11Z"/>
  </g>
  <path class="dullMaroonDarkest" d="M84.03,162.49c.94,.75,1.84,1.52,2.97,2.04,1.08,.51,2.06,1.22,3.2,1.65,.83,.32,1.63,.72,2.5,.98,.98,.28,1.91,.73,2.78,1.29,1.27,.8,2.57,1.56,3.88,2.29,2.16,1.2,4.17,2.64,6.31,3.88,1.97,1.14,3.95,2.26,5.96,3.32,1.11,.59,2.3,1.04,3.46,1.53,.6,.25,1.16,.56,1.67,.97-.21,.38-.26,.84-.12,1.17,.26,.65-.1,1.05-.37,1.54-.68,1.23-.41,2.48,.23,3.59,.65,1.13,.72,2.34,.72,3.55,0,1.68-.51,3.29-.88,4.92-.24,1.08,.2,1.91,1.1,2.51,1.88,1.26,3.77,.83,5.54-.05,1.91-.95,3.9-1.68,5.85-2.51,2.3-.99,4.68-1.82,6.98-2.81,1.01-.44,2.1-.65,3.06-1.22,1.85-1.1,3.5-2.4,4.21-4.52,.54-1.6,1.02-3.27,.14-4.91-.58-1.08-1.24-2.12-1.94-3.12-.81-1.16-1.16-2.42-1.18-3.82,0-.72-.02-1.45-.25-2.15-.12-.35,.05-.71-.05-1.11-.62-2.59-1.95-4.75-3.78-6.64-1.96-2.03-4.09-3.88-6.32-5.6-1.75-1.35-3.58-2.59-5.25-4.04-2.05-1.77-4.2-3.4-6.45-4.92-.66-.45-1.26-1-1.88-1.52-.41-.34-.63-.82-.4-1.31,.56-1.21,.47-2.44,.25-3.68-.16-.91-.65-1.75-1.27-2.4-.5-.52-.56-1.04-.36-1.55,.65-1.68,.81-3.45,1.08-5.21,.04-.25-42.29-7.88-42.74-7.59-1.65,1.05-3.25,2.21-4.58,3.66-.53,.58-.88,1.33-1.2,2.06-.74,1.71-1.93,3.17-2.85,4.78-1.07,1.88-2.15,3.75-2.98,5.76-1.09,2.66-2.28,5.26-3.29,7.96-.7,1.86-1.39,3.73-1.97,5.63-.46,1.52-.97,3.04-1.38,4.58-.47,1.77-.84,3.56-1.26,5.33-.26,1.1-.49,2.19-.5,3.33,0,.43-.44,.68-.74,.98-.36,.37-.83,.57-1.26,.82-1.03,.62-1.39,1.56-1.47,2.71-.05,.75,.07,1.44,.28,2.15,.2,.7-.24,1.25-.68,1.72-1.53,1.61-3.13,3.15-4.62,4.8-1.06,1.17-1.95,2.46-1.56,4.22,.08,.33,.18,.66,.37,.89,1.58,1.8,2.8,3.87,4.34,5.71,.69,.83,1.5,1.53,2.32,2.18,1.14,.91,2.39,1.68,3.59,2.52,1.45,1.02,3.03,1.81,4.65,2.48,1.85,.76,4.13,.03,5.4-1.58,.77-.98,1.35-2.08,2-3.12,.83-1.32,1.81-2.51,2.85-3.66,1.02-1.13,2.13-2.18,3.1-3.35,.66-.8,1.2-1.73,1.6-2.69,.25-.61,.6-1.16,.9-1.73,.9-1.73,1.8-3.44,2.41-5.32,.34-1.06,.9-2.06,1.3-3.12,.36-.97,.74-1.94,1.13-2.9,.52-1.28,1.03-2.55,1.56-3.83,.56-1.36,1.1-2.73,1.82-4.01,.65-1.15,.88-2.49,1.71-3.55,0,0,.11-.12,.35,.07Z"/>
  <path class="pantsDisplayLine" d="M98.24,136.57c-.53,1.35-.88,2.75-1.4,4.11-.98,2.57-3.18,7.74-3.94,8.43"/>
  <g class="pantsFoldLine">
    <path d="M125.13,179.96c-.69-.07-1.9,.05-2.21,.11-2.44,.43-3.88,1.16-6.18,2.04"/>
    <path d="M52.63,170.39c.07,1.85,.77,3.13,1.71,4.73,.32,.54,.64,1.17,.92,1.65"/>
    <path d="M121.46,174.21c-2.3,1.55-3.58,3.71-4.64,6.17"/>
    <path d="M49.58,177.05c.16,.79,.65,1.23,1.18,1.8,.28,.3,.35,.62,.9,.97"/>
    <path d="M122.15,193.75c-1.04,.55-1.25,.87-2.08,1.25"/>
    <path d="M139.48,186.54c-.67,.2-1.39,.32-2.01,.69"/>
  </g>
  <g class="pantsCreaseLine">
    <path d="M82.71,145.02c.39,.9,.84,1.78,1.16,2.71,.38,1.09,.59,2.23,.73,3.39,.19,1.62,.3,3.24,.11,4.85-.24,1.95-.57,4.53-1.03,6.45"/>
    <path d="M111.34,148.14c-2.54-.15-4.91,.54-7.2,1.54-.84,.37-1.59,.94-2.36,1.45-.14,.09-.28,.14-.42,.2"/>
    <path d="M96.85,156.11c-.92,.8-1.76,1.68-2.89,2.25-.79,.4-1.58,.77-2.36,1.17-1.35,.69-2.79,.9-4.24,1.15"/>
  </g>
  <path class="whiteMediumLight" d="M142.39,225.92c-1.07-1.31-1.76-2.8-2.15-4.44-.35-1.51-.64-3.04-.67-4.58-.05-2.41-.19-4.81-.43-7.21-.11-1.1-.03-2.21-.12-3.33-.18-2.14-.28-4.3-.28-6.44,0-1.99,.04-3.99-.19-5.96-.21-1.78-.19-3.58-.54-5.34-.07-.35,.06-.72-.18-1.05-.16-.22-.32-.34-.56-.27-2.78,.9-5.58,1.75-8.33,2.75-2.27,.82-4.32,2-6.31,3.34-.42,.28-.48,.64-.4,1.05,.33,1.83,.55,3.69,1.07,5.47,.6,2.06,1.18,4.13,1.83,6.18,.53,1.66,.91,3.37,1.56,4.98,.71,1.74,1,3.55,1.42,5.35,.3,1.28,.56,2.58,.76,3.88,.32,2.12,.58,4.25,.84,6.38,.07,.6-.04,1.2,.06,1.8,.03,.2,3.59,2.75,5.35,3.93,2.41-2.13,4.84-4.28,7.27-6.43v-.07Z"/>
  <path class="oakMedium" d="M129.71,227.65c.2,.66,.83,.87,1.33,1.16,1.29,.76,2.73,.69,4.15,.49,.93-.13,1.82-.35,2.72-.71,1.7-.68,2.77-1.98,3.79-3.37,.19-.27,.39-.39,.7-.41,1.38-.08,2.74,.03,4.01,.57,.68,.29,1.26,.78,1.68,1.43,.47,.73,.57,.73,1.38,.49,.3-.09,.6-.19,.9-.28,.88-.24,1.77-.45,2.62,.11,.36-.25,.5-.64,.83-.88,.71-.53,1.45-.29,2.07-.02,.63,.28,.94,.1,1.34-.31,1.08-1.09,2.3-1.94,3.87-2.16,2.12-.29,4.09,.05,5.82,1.4,.27,.22,.26,.66,.6,.92-1.21,1.54-4.87,6.16-5.48,6.93-.26,.33-7.8,3.43-11.26,4.83-1.51,.61-3,1.25-4.51,1.86-.53,.21-15.93,.76-17.12,1.04-.36,.09-.54-.04-.79-.4-1.04-1.53-1.04-3.24-.93-4.94,.13-1.98,.66-3.88,1.51-5.68,.26-.54,.55-1.06,.83-1.6l-.07-.49Z"/>
  <g class="shoeFoldLine">
    <path d="M32.18,235.76c-1.75,.14-3.71,.62-5.33,1.27-.36,.14-.79,.32-.98,.74"/>
    <path d="M30.72,233.61c-.97-.21-1.02-.21-1.6-.24-1.51-.1-3.02,.01-4.09,1.35"/>
    <path d="M148.49,227.44c-.57,.1-1.17,.28-1.59,.76"/>
    <path d="M156.53,226.47c-.36,.37-.43,.83-.42,1.32"/>
    <path d="M153,227.09c-.42,.62-.23,.83-.35,1.25"/>
    <path d="M21.64,219.82c-.43,.28-.75,.63-.76,1.18"/>
  </g>
  <g class="blackMediumLight">
    <path d="M139.89,237.28c.28,.88,.22,1.81,.4,2.71,.07,.36-.27,.63-.48,.89-.51,.64-1.87,2.24-2.14,2.23-2.4-.05-4.81,.07-7.21-.05-.21-.01-.37,0-.48-.16-.46-.67-.99-1.29-1.29-2.1,.92-.93,2.13-1.38,3.3-1.75,2.17-.69,4.36-1.33,6.64-1.56,.38-.04,.74-.18,1.11-.27l.14,.07Z"/>
    <path d="M13.18,213.51c-.88,.24-1.65,.64-2.3,1.31-.25,.26-.46,.5-.54,.84-.29,1.23-.48,2.47-.42,3.74,.08,1.8,.39,3.56,.98,5.27,.21,.61,.47,1.2,.69,1.8,.21,.57,.58,.57,1.04,.35,.62-.3,1.25-.6,1.89-.91-.03-.59-.29-1.14-.41-1.72-.2-.97-.31-1.96-.52-2.92-.39-1.74-.33-3.52-.59-5.27-.07-.45-.01-.93,.07-1.38,.06-.29,.04-.56-.02-.83l.14-.28Z"/>
  </g>
  <path class="blackMedium" d="M139.83,237.42c-.46,1.5-.92,2.99-1.38,4.49,.63,.15,4.61,.08,6.02,.09,.37,0,.58-.06,.72-.48,.17-.53,.42-1.04,.56-1.67-2.01-.62-4.03-1.23-5.78-2.43h-.14Z"/>
  <g class="blackMediumDark">
    <path d="M139.07,240.46c-.2-.11-2.43,.76-3.73,1.16-1.15,.35-2.45,.64-3.62,.93-.51,.12-1,.28-1.46,.57,0,.69,.57,.97,1.05,1.21,1.4,.72,2.9,.73,4.43,.51,1.1-.16,2.19-.25,3.25-.58,1.15-.36,2.08-.61,3.4-.97,1.04-.34,1.88-.75,2.43-1.31,0,0-4.15-.62-5.75-1.53Z"/>
    <path d="M167.27,225.85c1.47,.7,1.45,2.84,.77,4.02-.63,1.09-1.5,1.97-2.44,2.75-1.47,1.22-3,2.39-4.57,3.47-1.85,1.27-3.89,2.19-5.95,3.06-.9,.38-1.8,.75-2.7,1.11-1.23,.5-2.48,.71-3.82,.44-.67-.14-1.34-.27-2.01-.43-.22-.05-.4-.13-.63-.36,.72-.33,1.39-.67,2.09-.96,2.05-.88,4.14-1.69,6.02-2.92,2.26-1.47,4.52-2.95,6.72-4.51,1.7-1.21,3.32-2.51,4.6-4.21,.48-.64,.97-1.33,1.86-1.46h.07Z"/>
  </g>
  <g class="skinGallic">
    <path d="M32.18,15.2c-.49-.28-.58-.21-.9-.35-.59-.26-1.21-.12-1.8-.11-.54,.01-1.08,.79-1.1,1.29-.03,.73-.04,1.39,.74,1.9,1.01,.66,2.23,.92,3.15,1.76,.35,.32,.8,.4,1.1,.9-.65,.08-1.23-.11-1.81,0-.95,.19-1.92,.28-2.7,.92-.42,.35-.81,.89-.56,1.52,.24,.61,.64,.97,1.31,1.13,.61,.14,1.18-.02,1.73-.12,.63-.11,1.1,.05,1.61,.37,.46,.28,.89,.58,1.26,1.03-.79,.48-1.15,1.08-1.08,1.96,.04,.46,.28,.74,.58,.96,1.11,.79,2.05,1.85,3.44,2.28l8.06-11.04c-.8-.58-1.53-1.23-2.37-1.68-1.18-.65-2.15-1.55-3.17-2.38-1.5-1.22-3.19-2.08-4.99-2.78-.76-.3-1.46-.24-1.99,.25-.55,.52-.61,1.27-.24,1.99,.02,.05,.38,.69,.35,.76l-.62-.55Z"/>
    <path d="M153.83,52.21c.18-1.39,.42-2.77,.54-4.16,.1-1.17-.06-2.33-.4-3.46-.25-.85-.42-1.75-.78-2.56-.63-1.41-1.57-2.61-2.89-3.47-.23-.15-27.49-.98-27.66-.42-1.04,3.36-5.83,18.43-6.06,19.07-.22,.6,.02,1.27,.21,1.85,.24,.73,.46,1.48,.86,2.17,.38,.65,.09,1.7-.39,2.29-1.2,1.46-2.57,2.74-3.9,4.08-.13,.13-.13,10.03-.13,14.84,0,.02,.04,.05,.1,.1h18.06v-8.51c1.78,.83,3.54,1.48,5.41,1.82,.32,.06,3.1,.62,4.15,.2,2.1-.83,3.96-2.12,5.38-3.83,1.6-1.93,2.82-4.14,3.46-6.63,1.69,0,2.8-.72,3.37-2.22,.21-.54,.19-1.1,.07-1.66-.2-.91-.47-1.8-.67-2.71-.18-.85-.2-1.75-.02-2.63,.23-1.18,.81-2.24,1.12-3.39,.06-.24,.12-.46,.12-.7l.07-.07Z"/>
  </g>
  <path class="hairSandy" d="M152.89,27.15c-.41-.3-.64-.77-.71-1.15-.23-1.25-.7-1.98-1.57-2.75-.32,.18-1.14,3.9-2.8,4.78-.23,.12-.42,.09-.63,.12,0,0-.04,.02-.01-.07,.27-.83,.73-1.62,.83-2.49,.18-1.5-.28-2.8-1.43-3.88-.2,.85-.46,1.61-.91,2.29-1.15,1.71-2.69,2.94-4.5,3.9-1.54,.81-3.17,1.25-4.86,1.49-1.19,.17-2.41,.08-3.6,.19-1.5,.14-3,.44-4.44,.93-1.21,.41-2.31,.98-3.41,1.64-1.85,1.11-3.42,2.52-4.9,4.06-.48,.5-.94,1.02-1.31,1.6-.48,.76-.98,1.52-1.46,2.28-.44,.69-.88,1.39-1.17,2.15-.43,1.13-.71,2.3-1.06,3.46-.57,1.9-.88,3.84-.75,5.82,.05,.77,.15,1.53,.31,2.29,.28,1.35,.9,2.55,1.39,3.81,.18,.47,.42,.9,.79,1.15,.61,.39,1.26,.87,2.06,.64,.98-.28,1.86-.77,2.57-1.52,.69-.73,.7-1.02,.14-1.87-.19-.28-.32-.6-.49-.9-.66-1.16-.75-2.38-.49-3.68,.21-1.03,.7-1.91,1.25-2.77,.57-.88,1.26-1.62,2.29-1.93,1.38-.42,3.02,.68,3.26,2.14,.08,.53,.26,1.03,.47,1.53,.56,1.31,1.7,1.93,2.89,2.61-.11-.21,.08-.27,.11-.39,.6-1.98,2-3.28,3.75-4.21,1.37-.73,2.79-1.35,3.73-2.65,.63-.87,1-1.83,1.22-2.9,.25-1.25,.11-2.39-.32-3.54-.09-.25-.15-.48,.08-.71,2.08,1.08,4.33,1.45,6.65,1.37,.52-.02,2.32-.11,2.63-.32,1.01-.65,2.21-.82,3.22-1.55,1.6-1.14,2.92-2.42,3.65-4.27,1.01-2.55,1.34-5.1,.14-7.7-.37-.81-.8-1.55-1.4-2.21-.08,.08-.13,.11-.13,.13-.05,1.21-1.08,3.08-1.08,3.08Z"/>
  <path class="flatTealLight" d="M141.42,94.98c-.49,1.39-.96,2.79-1.53,4.16-.81,1.94-1.78,3.8-2.83,5.62-1.13,1.95-2.39,3.82-3.75,5.61-.65,.86-1.42,1.63-2.14,2.43-.19,.21-12.54,5.59-12.55,7.7,0,1.3-.38,2.57-.27,3.88,.05,.58,.2,1.17,.12,1.73-.25,1.65-.44,2.29-2.42,3.69,.21,.75,.6,1.45,.66,2.27,.11,1.42-.52,2.65-1.82,3.26-1.85,.86-3.83,1.13-5.82,1.29-.55,.05-1.11,.12-1.66,.18-1.04,.1-2.08,.05-3.12,.05-2.2-.01-4.41-.1-6.58-.44-2.07-.32-4.12-.78-6.18-1.19-2.25-.44-4.41-1.15-6.59-1.81-1.25-.38-2.52-.67-3.73-1.14-1.41-.55-2.75-1.24-4.03-2.06-1.08-.69-2.19-1.34-3.33-1.94-1.18-.63-2.2-1.48-2.94-2.53-.93-1.33-1.11-3.29,.39-4.74,.52-.5,.48-.88,.28-1.48-.72-2.11-.38-4.07,1.02-5.82,.39-.49,.91-.8,1.45-1.12,.77-.46,1.57-.83,2.27-1.47,.66-.6,1.08-1.3,1.54-1.99,.56-.84,1.06-1.73,1.53-2.63,.47-.9,.52-1.93,.69-2.91,.07-.43,.18-.82,.43-1.18,3.1-4.39,27.08-38.17,27.31-38.4,.62,.53,7.79,11.78,8.76,13.67,.79,1.55,2.07,2.17,3.51,2.76,.71,.29,1.39,.6,2.15,.77,1.16,.25,2.26,.16,3.26-.5,1.92-1.27,3.82-2.56,5.76-3.87,1.54,1.24,3.03,2.48,4.57,3.66,1.09,.83,2.14,1.68,3.04,2.71,1.38,1.57,2.2,3.41,2.69,5.41,.19,.78,.54,1.53,.5,2.35,0,.12-.21,2.86-.63,4.02Z"/>
  <path class="shirtOverlapLine" d="M127.14,96.02c-.66,.08-1.05,.76-1.51,1.13-1.8,1.42-2.3,1.78-3.83,3.31-.69,.69-1.36,1.76-1.46,1.8"/>
  <g class="shirtFoldLine">
    <path d="M116.19,129.71c-1.66,1.03-3.54,1.39-5.41,1.62-1.37,.17-2.75,.44-4.15,.32"/>
    <path d="M71.83,120.28c.35,.97,.59,1.25,.82,1.6,.76,1.16,1.51,1.63,2.51,2.55,.22,.2,.2,.14,.76,.63"/>
    <path d="M126.79,91.86c-.62,1.02-1.06,2.11-1.39,3.26"/>
    <path d="M135.74,92.41c-1.55-.05-3,.41-4.43,.91-.28,.1-.76,.34-1.04,.62"/>
  </g>
  <g class="whiteMediumLight">
    <path d="M121.87,87.21c.63,.38,1.26,.04,1.79-.17,2.58-.98,4.73-2.6,6.45-4.76,.65-.82,1.18-1.73,1.6-2.7,.37-.85,.51-1.72,.35-2.63-.13-.78-.22-1.57-.37-2.35-.03-.14,0-.43-.33-.43-.26,0-.27,.21-.34,.36-.45,.92-1.06,1.76-1.7,2.54-.6,.72-1.48,1.19-2.18,1.83-1.42,1.31-3.17,1.78-5.02,2.08,.16,1.06,.21,2.12,.14,3.18-.07,1-.26,1.99-.4,2.98v.07Z"/>
    <path d="M117.57,78.76c-.56-1.54-1.45-2.93-2.08-4.44-.6-1.45-1.26-2.87-1.53-4.43-.19-1.09,.05-2.14,.29-3.19,.05-.25,.15-.48,.24-.77-1.1,0-2.12,.31-3.15,.49-.88,.16-1.75,.36-2.64,.47-.84,.11-.95,.13-1.03,.98-.13,1.5-.5,2.98-.35,4.5,.11,1.16,.14,2.33,.37,3.46,.31,1.56,.83,3.09,1.13,4.65,.2,1.02,.82,1.82,1.15,2.76,.21,.6,.95,.66,1.51,.14,1.16-1.08,2.38-2.11,3.59-3.13,.75-.63,1.62-.98,2.44-1.44l.07-.07Z"/>
  </g>
  <g class="dullOrangeDark">
    <path d="M83.26,176.22c-.68,.44-.75,1.24-1.1,1.87-1.24,2.22-1.88,4.68-2.59,7.08-.49,1.66-.77,3.41-1.17,5.11-.24,1-.56,1.99-.82,2.98-.28,1.06-.43,2.15-.83,3.19-.47,1.25-.95,2.5-1.44,3.75-.72,1.82-1.56,3.56-2.65,5.2-.96,1.45-1.96,2.87-3.08,4.21-.25,.29-.26,.64-.26,.64,.08,.13,.2,.16,.35,.14,.87-.15,1.65-.56,2.35-1.05,1.45-1.01,2.36-2.51,3.33-3.94,.78-1.16,1.39-2.42,2.01-3.67,.61-1.24,1.25-2.48,1.67-3.81,.62-1.97,1.03-3.99,1.42-6.02,.32-1.64,.42-3.3,.75-4.94,.21-1.04,.35-2.13,.57-3.17,.39-1.93,.94-3.83,1.38-5.75,.22-.97,.11-1.81,.11-1.81Z"/>
    <path d="M7.71,126.31c.16-.43,.67-.5,.89-.84,.74-1.13,1.9-1.85,2.81-2.81,1.2-1.26,2.47-2.49,3.91-3.5,.93-.65,1.8-1.39,2.71-2.07,.84-.62,1.74-1.17,2.56-1.81,1.55-1.22,3.29-2.16,4.93-3.25,1.07-.72,2.26-1.22,3.34-1.92,.97-.63,2.01-1.15,3.04-1.67,2.28-1.14,4.65-2.08,7-3.04,2.6-1.06,5.24-2.03,7.75-3.28,.92-.46,1.83-.92,2.7-1.46,1.36-.84,2.68-1.73,3.98-2.66,1.16-.83,2.32-1.67,3.34-2.63,1.29-1.22,2.35-2.68,3.55-4,1.52-1.65,2.94-3.39,4.41-5.08,1.34-1.53,2.68-3.05,4.2-4.4,.93-.83,1.82-1.69,2.82-2.45,.91-.69,1.83-1.35,2.72-2.06,.41-.32,.52-.69,.45-1.25-.13-.91-.41-1.76-.65-2.63-.41-1.52-.95-2.99-1.55-4.43-.96-2.31-1.83-4.7-3.58-6.6-.44-.48-.87-.97-1.39-1.38-.86-.69-1.76-1.34-2.56-2.09-1.22-1.14-2.38-2.33-3.43-3.65-.91-1.14-1.66-2.35-1.98-3.76-.52-2.29-1.12-4.53-2.58-6.44-.69-.91-1.6-1.62-2.71-1.76-1.16-.15-2.36-.08-3.53,.05-1.36,.16-2.69,0-4.02-.14-.75-.07-1.53-.18-2.29-.31-1.31-.21-2.58-.47-3.62-1.44-.87-.81-1.81-1.55-2.9-2.1-1.27-.64-2.64-.97-3.97-1.41-1.12-.38-2.35-.41-3.52-.67-.78-.18-1.53-.42-2.18-.99-.37-.33-.71-.76-1.22-.93l.42,.14c.46-.22,.93-.42,1.37-.65,1.08-.57,2.17-1.15,2.87-2.26,.72-1.15,1.65-2.07,2.96-2.59,1.58-.62,2.84-1.71,3.88-3.04,.83-1.07,1.43-2.28,2.11-3.45,.66-1.13,1.26-2.29,1.55-3.55,.24-1.06,.45-2.19-.48-3.06,.54-.51,1.12-.57,1.76-.34,.78,.29,1.55,.62,2.36,.82,1.37,.33,2.77,.58,4.16,.84,1.31,.25,2.62,.46,3.81,1.11,1.88,1.01,3.44,2.38,4.79,4.02,.47,.57,1.1,1.01,1.5,1.61,.6,.91,1.43,1.55,2.25,2.19,1.1,.86,2.47,.92,3.8,.98,2.13,.1,4.15,.61,5.95,1.75,2.44,1.54,4.62,3.43,6.67,5.46,1.36,1.35,2.37,2.98,3.61,4.43,1.16,1.36,2.18,2.83,3.01,4.39,.85,1.6,1.95,2.95,3.22,4.21,.46,.46,.95,.9,1.38,1.39,.69,.79,1.34,1.62,1.97,2.4,2.31-.19,4.56-.04,6.69,.8,2.09,.82,3.72,2.3,5.13,4.01,.85,1.03,1.71,2.06,2.92,2.69,.46,.23,.93,.42,1.33,.78-.23,.6-36.41,48.71-45.9,58.16-.56,.55-2.32,2.21-2.57,2.56-.81,1.13-1.78,2.1-2.91,2.91-1.33,.96-2.54,2.08-4.09,2.71-1.16,.47-2.27,1.07-3.47,1.45-1.01,.32-2.05,.59-3.03,.95-1.17,.43-2.33,.92-3.5,1.37-1.36,.53-2.71,1.05-3.94,1.84-1.03,.66-2.02,1.38-3,2.12-1.35,1.01-2.54,2.2-3.91,3.18-.78,.56-1.64,1.03-2.32,1.76-1.37,1.48-2.5,3.14-3.72,4.73-1.08,1.41-2.3,2.69-3.49,4-.47,.53-.59,.46-1.11-.06-.44-.44-.65-1.05-1.11-1.46-1.18-1.06-1.83-2.48-2.53-3.83-.98-1.9-1.87-3.85-2.51-5.93-.55-1.78-1.21-3.54-1.67-5.36-.32-1.24-.64-2.48-1.12-3.67-.47-1.18-1.24-2.06-2.5-2.42-.35-.1-.74,.05-1.11-.08l-.97,.83Z"/>
    <path d="M10.2,154.45l.19-.38c.9,.36,1.46,1.14,2.23,1.63,.65,.41,1.36,.57,2.09,.59,.87,.03,1.47-1.1,1.42-1.99-.08-1.2-.57-2.19-1.13-3.19-.13-.23-.3-.39-.55-.59-1.04,1.48-2.58,2.4-3.96,3.51l-.28,.42Z"/>
  </g>
  <g class="coatFoldLine">
    <path d="M68.15,39.39c0,1.5,.02,3-.01,4.51,0,.39,.46,4.21,.75,5.76,.28,1.48,.66,2.93,.89,4.43,.17,1.13,.58,2.22,.88,3.33"/>
    <path d="M61.36,44.24c-.64-.93-1.62-1.11-2.63-1.18-1.47-.1-2.92,.1-4.37,.27"/>
    <path d="M92.21,52.21c-1.71,.09-3.36,.48-4.99,.97"/>
  </g>
  <g class="dullOrangeDarker">
    <path d="M59.57,121.55c.85-.68,1.54-1.51,2.31-2.27,.88-.89,1.81-1.75,2.73-2.61,1.75-1.63,3.58-3.15,5.56-4.49,1.46-.99,2.91-2.03,4.45-2.89,1.74-.98,3.64-1.72,5.16-3.03,.89-.76,1.92-1.38,2.61-2.38,.22-.32,.63-.57,.95-.84,1.3-1.11,2.37-2.44,3.55-3.66,.43-.45-3.67-5.6-5.53-7.88-.64,.63-.92,1.48-1.35,2.25-.71,1.27-1.57,2.43-2.42,3.61-1.3,1.81-2.46,3.72-3.85,5.45-.99,1.23-2.11,2.36-3.19,3.52-1.9,2.03-4,3.85-5.77,6.03-1.82,2.25-3.26,4.69-4.5,7.26-.27,.56-.7,1.1-.65,1.79,0,0-.24,.31-.05,.16Z"/>
    <path d="M100.8,65.17c-.55-.28-1.09-.62-1.67-.82-1.02-.35-1.8-1.07-2.7-1.61-.17-.1-.35-.62-.35-.62,1.51,.24,3.01,.06,4.42-.39,1.29-.41,2.62-.71,3.9-1.19,1.17-.44,2.42-.7,3.67-.69,1.76,.02,3.21,.88,4.58,1.91,1.55,1.17,1.39,2.1,2.43,3.67,.61,.22-.69,.85-.77,1.12-1.04-.21-.41-.09-1.46-.18-1.73-.15-3.21,.63-4.56,1.59-1.19,.85-2.15,1.97-2.83,3.25-.95,1.8-1.88,3.62-2.6,5.53-.26,.69-.64,1.34-.96,2.01-.99,2.11-1.9,4.27-3.05,6.31-.82,1.44-1.57,2.91-2.77,4.09l-.07-.21-5.15-6.13c1.78-1.75,2.81-3.89,3.81-6.01,.64-1.35,1.14-2.77,1.56-4.21,.13-.43,.37-.83,.54-1.25,.37-.91,.75-1.82,1.32-2.63,.85-1.2,1.93-2.21,2.71-3.46,.08-.13,0-.07,0-.07Z"/>
  </g>
  <path class="skinGallic" d="M81.32,86.45c-.97,.83-.37,1.96-.25,2.7-.95,.14-1.78,.89-1.97,1.87-.13,.65-.19,1.28,.5,1.73,.27,.18,.57,.4,.9,.43,.75,.07,.9,.44,1.06,1.17,.2,.9,.76,1.65,1.23,2.43,.96,1.59,2.54,2.43,4.1,3.24,1.4,.72,2.27,1.9,3.18,3.07,.24,.31,.45,.66,.7,.97,1.63,2.02,2.89,4.25,3.91,6.64,.74,1.74,1.72,3.37,2.79,4.95,.87,1.28,1.72,2.58,2.69,3.77,.9,1.12,1.78,2.26,2.79,3.3,.83,.86,1.64,1.74,2.52,2.53,.85,.76,1.74,1.48,2.83,1.88,1.22,.44,2.3-.13,3.39-.5,1.43-.48,2.76-1.22,4-2.04,.98-.64,2.08-1.16,2.88-2.1,.35-.4,.93-.58,1.36-.92,1.48-1.17,2.75-2.56,4.02-3.95,.27-.29-7.02-6.94-8.72-8.24-.63-.48-2.99,1.7-4.13,2.24-1.8-1.39-3.85-2.45-5.64-3.9-.77-.63-1.46-1.37-2.23-2-1.37-1.11-2.34-2.56-3.47-3.88-.49-.57-1.03-1.09-1.53-1.66-.86-.98-1.47-2.12-2.22-3.17-.58-.81-.36-1.89-.06-2.88,.46-1.56,.9-3.13,.93-4.78,0-.54-.11-1.05-.3-1.52-1.09-2.67-2.98-4.57-5.6-5.76-1.11-.5-2.83-.07-3.54,1.32-2.08-.79-3.16,.46-3.4,2.29,0,0-1.87-.21-2.7,.76Z"/>
  <g class="skinOverlapLine">
    <path d="M32.52,15.13c.28,.76,.69,1.15,1.25,1.51,.71,.46,1.53,.77,2.2,1.28,.78,.6,1.66,1.08,2.38,1.77,.94,.9,1.72,1.94,2.56,2.92,.07,.09,.18,.14,.27,.21"/>
    <path d="M33.36,20.6c1.68,1.2,3.04,2.73,4.44,4.22,.45,.48,.86,.98,1.17,1.53"/>
    <path d="M38.9,26.22c-.83-.18-2.22-.64-3.05-.84-.58-.14-1.15-.07-1.73,.07"/>
    <path d="M85.69,87.21c-.53-.51-.87-1.24-1.66-1.46"/>
    <path d="M87.35,83.4c.58,.24,1.09,.55,1.32,1.18"/>
    <path d="M81.11,89.09c.68-.07,1.18,.26,1.59,.76"/>
  </g>
  <path class="dullTealMedium" d="M117.99,101.56c-1.33,.45-2.08,1.38-2.29,2.77-.15,.98-.96,1.42-1.66,1.94-.71,.53-1.36,1.1-1.74,1.94-.33,.73,.36,1.3,.53,2.06,1.34-.61,1.87,.09,3.02,.69,1.65,.86,2.96,2.11,4.36,3.28,1.27,1.06,2.25,2.38,3.33,3.61,.3,.34,.51,.72,.68,1.11,.43,.97,1.16,1.51,2.22,1.44,1.18-.08,1.98-.74,2.35-1.86,.2-.62,.37-1.23,.9-1.67,.2-.17,.4-.3,.63-.41,.63-.3,1.05-.78,1.4-1.38,.51-.89,.24-1.75-.17-2.49-.96-1.72-2.2-3.24-3.65-4.59-1.53-1.42-3.17-2.68-4.91-3.83-.57-.38-1.12-.85-1.7-1.19-1.01-.6-1.98-1.36-3.24-1.42h-.07Z"/>
</svg>