<svg viewBox="0 0 218.19 290.59">
  <rect class="dullBlueMedium" x=".5" y=".5" width="217.19" height="289.59"/>
  <path class="dullBlueDarkest" d="M92.15,241.49c0,2.67,0,5.34,0,8.01,0,1.62-.06,3.25,.1,4.85,.16,1.55,0,3.09,.14,4.62,.28,2.98,.37,5.98,.9,8.94,.43,2.38,.68,4.78,1.11,7.16,.32,1.76,.66,3.51,1.12,5.25,.25,.95,.34,1.95,.54,2.93,.25,1.18,.68,2.3,.93,3.46,.25,1.15,.61,2.26,.95,3.39h79.96c.88-3.13,1.41-6.34,1.89-9.55,.25-1.67,.47-3.34,.69-5.01,.26-1.98,.49-3.96,.78-5.93,.12-.85,.18-1.7,.33-2.54,.31-1.77,.45-3.55,.66-5.32,.11-.95,.14-1.9,.24-2.85,.16-1.38,.22-2.78,.25-4.16,.03-1.21,.26-2.4,.26-3.62,0-1.04,.27-2.09,.26-3.16,0-1.08,.06-2.16,.13-3.24,.07-1.17,.12-2.36-.05-3.54l-91.19,.31Z"/>
  <path class="pantsOverlapLine" d="M132.05,282c.23,2.23,.42,4.46,.47,6.7,0,.13,.15,.62,.15,1.39"/>
  <path class="skinNordic" d="M139.29,51.25c0-.08-58.38-5.01-58.38-5.01,0,7.21,4,51.14,3,50.85-2.85-.82,20.26,4.34,20.33,4.39,.92,.66,1.97,1.01,3.01,1.37,.7,.24,1.1,.81,1.2,1.47,.08,.53,.21,1.06,.2,1.61-.03,3.13-.01,9.91-.01,10.24h30.42l.23-64.93Z"/>
  <path class="whiteDark" d="M134.05,191.89c0-29.63,.41-89.68,.15-89.96,0,0-.83,.61-1.32,1.07-2.35,2.21-4.69,4.45-7.4,6.22-1.93,1.26-3.88,2.51-6.06,3.35-.99,.38-2,.84-3.02,.93-1.55,.13-3.18,.14-4.61-.66-1.29-.72-2.02-1.93-2.57-3.29-.46-1.13-.39-2.32-.6-3.47-.04-.23-.08-.47-.14-.76-.99,.68-1.54,1.74-2.42,2.43-.86,.68-.98,40.69-.98,59.79l28.96,24.34Z"/>
  <g class="dullMaroonDarkest">
    <path d="M59.5,170.63v28.38c-.2,0-8.76,.17-9.4,.33-.86,.22-1.66,.09-2.39-.52-1.81-1.5-2.29-3.53-2.45-5.71-.11-1.39-.08-2.78,.15-4.16l14.09-18.33Z"/>
    <rect x="143.6" y="208.91" width="25.11" height="30.5"/>
  </g>
  <path class="dullOrangeDark" d="M173.64,215.07c2.72-2.93,10.26-10.85,11.15-12.22,.89,2.27,1.6,4.37,2.06,6.59,.39,1.93,.96,3.84,1.24,5.79,.28,2,.69,3.98,.94,6,.31,2.55,.3,5.09,.21,7.63-.05,1.51-.03,3.11-.96,4.47l-14.63-18.25Z"/>
  <path class="dullMaroonDarker" d="M103.01,243.8c-.07,.91-.56,1.67-.94,2.46-1.07,2.22-2.7,4.04-4.55,5.6-1.97,1.65-4.12,3.1-6.75,3.58-.36,.07-.72,.1-1.09,.2-.59,.16-1-.24-.99-.9,.03-1.29,.24-2.56,.24-3.85,0-1.49,.11-2.98,.14-4.47,.06-3.44,.11-6.88,.16-10.32l-.31-12.32c-.22-1.29,.07-2.59,.21-3.84,.25-2.11,.12-4.22,.37-6.33,.26-2.09,.23-4.21,.44-6.31,.08-.82,.13-1.93,.13-1.93-.76-.02-1.42,.4-2.16,.46-2.59,.21-5.17,.48-7.78,.26-.47-.04-.92-.18-1.38-.17-1.8,.03-3.56-.25-5.31-.62-1.79-.38-3.59-.71-5.39-1.02-.87-.15-1.75-.34-2.62-.51-1.1-.21-2.2-.54-3.31-.59-1.94-.09-3.78-.62-5.61-1.13-2.17-.6-4.28-1.44-6.47-2-.32-.08-.7-.13-.99-.47,1.37-1.24,2.02-2.72,2.89-4.34,.95-1.57,1.56-3.42,2.18-5.57-.23-.43-2.31-11.01-2.31-16.71l24.65,3.23c.57-1.55,1.24-3.05,1.79-4.61,.78-2.22,1.52-4.44,1.84-6.78,.17-1.29,.44-2.57,.69-3.85,.19-1.03,.48-2.05,.6-3.08,.16-1.46,.44-2.9,.52-4.39,.09-1.75,.48-3.49,.73-5.24,.14-1.02,.12-2.1,.42-3.07,.5-1.65,.52-3.35,.78-5.02,.28-1.83,.49-3.67,.98-5.46,.63-2.33,1.17-4.68,2.03-6.95,.72-1.91,1.13-3.93,1.85-5.85,.67-1.79,1.68-3.24,3.19-4.38,1.22-.91,2.44-1.81,3.62-2.78,2.21-1.81,6.63-4.69,6.63-4.69,.25,.85,4.7,39.57,5,40.9,.33,1.5,.56,3.03,.86,4.54,.34,1.67,.63,3.36,1.1,5,.43,1.52,.5,3.15,1.35,4.56,.09,.16,17.13,15.46,18.04,15.78,0,0,0-3.62-.15-4.62-.4-2.58-.43-5.19-.67-7.78-.18-2.04-.06-4.11-.2-6.16-.19-2.88-.02-5.76,.07-8.63,.04-1.14,.41-2.31,.64-3.47,.35-1.74,9.52-50.94,10.25-50.93,3.49,.05,12.2,.78,12.32,.87,1.99,1.49,4.32,2.27,6.63,3.07,1.7,.58,3.44,1.02,5.15,1.56,1.32,.42,2.63,.91,3.93,1.38,1.03,.38,2.11,.62,3.08,1.16,1.19,.67,2.37,1.31,3.36,2.34,.78,.81,1.75,1.49,2.65,2.2,.79,.62,1.35,1.38,1.79,2.3,.48,1.01,.96,2.02,1.63,2.97,1.15,1.64,2.24,3.33,3.27,5.06,.87,1.46,1.47,3.06,2.17,4.61,.22,.48,.59,.9,.75,1.39,.5,1.58,1.2,3.08,2.11,4.45,1.96,2.93,3.78,5.92,4.99,9.25,.45,1.24,1.08,2.4,1.51,3.63,1.04,2.95,2.23,5.85,3.35,8.77,1,2.6,2.06,5.17,3.22,7.71,.77,1.68,1.5,3.38,2.39,5,1.21,2.2,1.66,4.6,1.7,7.08,.02,1.45-.17,2.89-.4,4.31-.24,1.43-.51,2.88-1.07,4.24-.76,1.85-1.69,3.6-2.84,5.24-1.48,2.1-3,4.16-4.6,6.18-1.95,2.46-4.02,4.81-6.02,7.23-1.23,1.49-2.41,3.03-3.63,4.54-1.55,1.92-2.9,3.98-4.68,5.72-.76,.74-1.07,1.67-1.05,2.83,.08,5.88-19.96,17.43-19.99,16.94-.18-2.71-1.2-5.16-2.66-7.37-.89-1.35-1.94-2.65-3.12-3.8l-51.29,23.72Z"/>
  <g class="suitOverlapLine">
    <path d="M90.59,204.52c-.12,.33-.32,.62-.59,.84"/>
    <path d="M88.84,142.37c.38,.23,1.2,2.95,1.51,3.94,.29,.93,.43,1.94,.47,2.92,.11,2.54,.14,5.08,.16,7.62,0,.9-.22,1.81-.12,2.69,.22,1.93-.11,3.85-.03,5.78,.08,1.9,.09,3.81,.25,5.7,.19,2.21,.27,4.42,.39,6.63,.09,1.55,.26,3.12,.19,4.7-.06,1.31,.02,2.54,.1,3.85"/>
    <path d="M174.33,176.41c-.9,.33-1.18,.85-1.7,1.62-1.13,1.67-2.11,3.44-3.38,5.02-1.59,1.98-3.27,3.85-5.16,5.55-.98,.87-1.97,1.73-2.97,2.57-1.7,1.43-3.44,2.82-5.14,4.26-1.48,1.25-3.68,2.53-5.23,3.71"/>
    <path d="M156.54,139.98c1.49,1.93,3.01,3.82,4.46,5.78,1.57,2.13,2.96,4.37,3.94,6.85,.83,2.11,1.86,4.12,2.99,6.09,.98,1.7,1.93,3.43,2.91,5.13,.94,1.64,1.56,3.41,2.46,5.05,.57,1.03,1.36,3.6,1.34,3.76"/>
  </g>
  <g class="suitFoldLine">
    <path d="M184.5,171.48c-1.16-.15-2.11-.12-3.16-.07-1.72,.09-3.41,.36-5.09,.75-1.02,.24-1.9,.76-2.68,1.41-.66,.55-.66,1.78-.09,2.44,.3,.35,.61,.46,1.16,.34,1.46-.32,2.97-.26,4.46-.1,.83,.09,1.64,.3,2.47,.45"/>
    <path d="M150.84,139.59c.41,.66,.77,1.34,1.3,1.93,1.14,1.27,2.54,2.19,4.02,2.99,.85,.46,1.71,.94,2.62,1.21,.85,.25,1.74,.41,2.61,.65"/>
  </g>
  <g class="brassMedium">
    <path d="M131.66,154.61c0,.84,.14,1.58,.76,2.25,1.13,1.21,2.6,1.15,3.85,.28,1.16-.8,1.31-2.64,.44-3.82-1.06-1.44-3.63-1.48-4.51,.06-.2,.36-.58,.66-.47,1.15l-.08,.08Z"/>
    <path d="M137.21,175.79c-1.65,.33-2.71,1.29-2.63,3,.08,1.88,2.12,3.19,3.77,2.29,.71-.39,1.47-.75,1.74-1.74,.43-1.6-.74-3.43-2.57-3.55-.08,0-.15,0-.23,0h-.08Z"/>
  </g>
  <g class="dullMaroonDarkest">
    <path d="M126.99,152.46c-.07-2.62-.15-5.24-.07-7.85,.04-1.38,.03-2.8,.24-4.15,.24-1.54,.24-3.09,.37-4.63,.2-2.41,.39-4.83,.62-7.23,.21-2.21,.4-4.44,.85-6.64,.32-1.56,.54-3.15,.96-4.69,.51-1.84,.96-3.7,1.47-5.54,.67-2.37,1.55-4.69,2.03-7.1,.74-3.66,4.64-10.97,4.9-11.49,.8,.89,5.35,6.22,5.36,6.42,.06,1.44,.14,2.88,.08,4.31-.1,2.16-.05,4.31-.19,6.47-.08,1.33-.02,2.68-.07,4-.08,2.25-.62,4.42-2.34,6.09-.53,.52-1.18,.8-1.85,1.09-.7,.3-1.44,.58-1.85,1.3-.2,.35-.3,.69-.01,1.08,.62,.87,1.12,1.8,.93,2.92-.18,1.06-.6,2.05-1.23,2.93-1.19,1.68-2.2,3.45-3.08,5.31-.82,1.73-1.77,3.41-2.51,5.17-.8,1.91-1.54,3.86-2.06,5.85-.46,1.75-.99,3.48-1.42,5.23-.16,.64-.44,2.46-.7,3.08-.13,.31-.43-1.58-.44-1.93Z"/>
    <path d="M101.32,132.59c.22,1.81,.9,3.5,1.37,5.24,.72,2.69,1.66,5.3,2.35,8,.58,2.27,2.36,6.63,2.36,6.63-.31-1.46,0-3.5-.16-4.7-.29-2.15-.23-4.32-.42-6.47-.07-.81-.1-1.64-.11-2.46-.04-2.62-.17-5.24-.13-7.86,.02-1.62,.13-3.24,.35-4.85,.13-.99,.18-2,.24-3,.14-2.31,.17-4.63,.42-6.93,.16-1.44,.32-2.87,.42-4.32,.06-.95,.07-1.9,.08-2.85,.01-1.01,.02-2.01,.22-3.01,.06-.3,0-.63,0-.94l-.21-.04c-1.68,1.46-3.35,2.92-5.03,4.38l-1.77,23.18Z"/>
  </g>
  <path class="dullOrangeDark" d="M106.01,102.47c-.85,.89-1.67,1.21-2.38,2.24-.69,.99-1.35,2-1.79,3.15-.47,1.22-1.1,2.39-1.51,3.63-.55,1.67-.82,3.41-1.11,5.15-.49,2.99-.49,6-.44,9.01,.03,1.96,.27,3.91,.54,5.85,.27,1.93,.71,3.84,.89,5.78,.18,1.91,.46,3.8,.7,5.7,.26,2.04,.28,4.11,.5,6.16,.2,1.9,.22,3.8,.32,5.7,.13,2.48-.25,4.89-.6,7.32-.38,2.65-1.2,5.16-1.99,7.69-.15,.48-.16,.94-.11,1.39,.07,.7,1.03,.99,1.75,.62,1.09-.56,1.7-1.53,1.97-2.63,.29-1.19,.73-2.35,.84-3.61,.1-1.1,.29-2.21,.34-3.32,.14-3.47-.02-6.93-.22-10.4-.03-.56-.06-1.13-.08-1.69-.04-1.86-.28-3.7-.46-5.55-.16-1.64-.22-3.3-.5-4.92-.17-1.03-.23-3.74-.25-4.09-.29-3.82-.43-7.64-.32-11.47,.04-1.57,.11-3.14,.26-4.69,.22-2.17,.47-4.36,1.06-6.47,.68-2.45,1.68-5.47,2.73-6.26,1.41-1.21,1.88-1.06,2.18-1.67,0,0-.05-1.61-.77-2l-1.54-.62Z"/>
  <path class="hairSandy" d="M109.71,58.88c.34-.13,.62,.04,.93,.15,1.07,.38,2.15,.74,3.23,1.08,.74,.23,1.57,.28,2.22,.65,1.43,.82,2.74,1.81,3.8,3.12,1.17,1.45,2.1,3,2.71,4.78,.22,.63,.35,1.33,.8,1.88,1.74-1.51,2.21-2.53,2.6-4.87,.26-1.53,.24-3.11,1.01-4.57,.69-1.32,2.59-2.48,4.04-2.05,2.38,.7,3.84,2.35,4.45,4.7,.5,1.92,.29,3.83-.43,5.7-.55,1.42-.88,2.91-.8,4.46,.04,.75-.13,1.52-.55,2.14-.46,.68-1.13,1.22-1.99,1.3-.3,.03-.54,.14-.6,.34-.53,1.65-1.11,3.29-1.39,5-.16,.97-.21,1.94-.25,2.92-.09,1.98-.24,3.95,.06,5.94,.08,.5,.21,1.02,.18,1.54-.04,.76,.09,1.48,.46,2.16,0,0,.36,1.23,.57,1.68,1.39,2.89,3.62,4.76,6.9,5.08,1.37,.13,2.78,.07,3.99-.71,.07-.5-.16-.77-.51-1.05-.6-.48-1.12-1.06-1.48-1.76-.09-.19-.1-.36,0-.54,0,0,.21-.11,.54,.15,1.36,1.07,2.8,1.92,4.53,2.36,1.85,.47,3.68,.65,5.56,.56,1.36-.07,2.72-.2,4.01-.75,1.14-.49,1.35-1.22,.36-1.92-.61-.43-1.13-.93-1.67-1.42-1.31-1.19-1.96-2.68-1.93-4.46,0-.42,.07-.54,.07-.54,.78,.14,1.3,.78,2,1.09,1.06,.46,2.15,.77,3.32,.77,.48,0,.9-.1,1.26-.49-.18-.38-.48-.68-.81-.89-1.39-.86-1.84-2.27-2.21-3.71-.25-.96-.35-1.95-.56-2.92-.29-1.33-.22-2.68-.12-4,.22-2.71,.15-5.36-.48-8.02-.43-1.81-1.06-3.53-1.77-5.24-.85-2.05-1.77-4.07-2.88-5.99-.82-1.41-1.92-2.65-2.85-4-1.7-2.44-3.34-4.91-4.66-7.57-1.58-3.19-3.49-6.16-5.52-9.05-.76-1.09-1.7-2.09-2.58-3.1-1.23-1.42-2.51-2.77-3.93-4.01-1.36-1.18-2.78-2.29-4.31-3.24-.47-.29-.9-.66-1.39-.91-2.5-1.28-5.15-2.05-7.93-2.4-3.01-.37-6.01-.06-9.01,.14-1.68,.11-3.35,.33-5,.64-1.95,.37-3.83,.94-5.65,1.79-.83,.38-1.67,.78-2.51,1.14-1.84,.78-3.33,2.1-4.78,3.45-.82,.76-1.26,1.77-1.87,2.68-.7,1.05-1.11,2.22-1.65,3.4-2.16-.9-3.48,.34-4.72,1.78-.82,.95-1.49,2.02-1.98,3.17-1.2,2.79-2.36,5.6-2.97,8.61-.36,1.74-.53,3.49-.63,5.25-.09,1.61,.09,3.23,.2,4.85,.09,1.31,.25,2.62,.4,3.93,.25,2.24,.65,4.47,.98,6.7,.25,1.74,.63,3.47,.62,5.24,0,.6,.14,1.17,.17,1.77,.12,2.65,.35,5.29,.43,7.93,.06,2.18,0,4.37-.07,6.55-.08,2.16-.1,4.35-.56,6.46-.4,1.83-.64,3.73-1.79,5.34-.26,.37-.88,.68-.56,1.33,0,0,.97-.59,1.51-1.22,.73-.85,1.4-1.77,1.89-2.82,1.12-2.44,2.21-4.88,2.7-7.55,.2-1.07,.7-2.49,.99-3.55,0,0,.46,1.08,.31,2.93-.06,1.7,0,2.01-.17,3.69-.32,3.01-1.33,5.76-3.45,8.01,0,0,.26,.43,.77,.39,1.44-.12,2.64-.97,4-1.32,.8-.21,1.33-.89,2.02-1.28,2.45-1.39,4.33-3.29,5.61-5.8,0,0,.26-.82,.28-.61,.15,1.21,.04,2.38-.41,3.55-.44,1.12-1.19,1.97-1.95,2.84-.18,.2-.31,.48-.21,.68,.13,.24,.45,.3,.75,.24,.84-.15,1.66-.33,2.47-.61,1.35-.49,2.67-1.1,3.75-2.03,1.1-.94,2.18-1.95,2.55-3.45,.05-.19,.17-.28,.32-.3,.27-.04,.27,.23,.3,.38,.15,.8,.18,1.63-.17,2.37-.14,.3-.13,.55,.04,.68,.19,.14,.56,.25,.75,.16,2-.95,4.88-4.21,4.72-4.31-1.16-.69-2.15-1.57-3.26-2.35-2.44-1.7-4.35-3.93-6.34-6.06-1.06-1.13-1.84-2.55-2.63-3.91-.4-.68-.87-1.32-1.2-2.06-1.06-2.41-1.56-4.98-2.26-7.49-.39-1.38-.96-2.61-1.88-3.69-.97-1.13-1.93-2.31-2.19-3.78-.19-1.07-.51-1.69-.81-3.23-.46-2.77-.3-5.19-.6-7.78-.08-.71,.21-1.49,.01-2.14-.21-.7,.12-1.13,.37-1.63,.14-.29,.39-.53,.61-.77,1.42-1.62,2.49-3.44,3.25-5.46,.09-.23,.55-.22,.67-.08,1.13,1.23,2.48,2.2,3.78,3.22,.64,.5,1.33,1.02,2.08,1.29,1.21,.44,2.24,1.19,3.36,1.76,1,.51,2.01,1.08,3.04,1.47,3.5,1.34,6.89,2.88,10.15,4.73,1.83,1.04,3.6,2.13,5.26,3.44,.79,.62,1.67,1.11,1.67,1.11,0-.24-1.73-3.32-2.77-4.47-1.81-2.02-4.71-4.69-4.71-4.69Z"/>
  <g class="hairOverlapLine">
    <path d="M121.26,50.02c-1.33-1.54-2.91-2.81-4.48-4.07-2.52-2.02-5.31-3.65-8.16-5.16-2.6-1.38-5.39-2.28-8.24-3.01-.46-.12-.92-.21-1.39-.31"/>
    <path d="M146.22,70.2c1.28,1.94,2.1,4.09,2.67,6.32,.59,2.31,.97,4.69,1.01,7.08,.04,2.47,.82,5.82,1.23,8.24"/>
    <path d="M137.44,79.6c.29,3.02-.16,6.01-.29,9.01-.07,1.66-.01,3.3,.47,4.94,.26,.91,.59,1.76,.99,2.6,.18,.37,.53,.93,.99,1.62"/>
    <path d="M82.91,57.99c-.6,1.44-1.16,3.43-1.39,4.97-.33,2.22-.5,4.46-.6,6.7-.05,1.15,.03,1.16-.02,2.31,0,1.23,.15,2.16,.39,3.08"/>
    <path d="M89.92,89.84c.61,.94,.82,2.02,1.07,3.08,.59,2.51,.53,5.67,.26,8.24"/>
    <path d="M124.65,61.27c-1.39,.24-2.78,.02-4.16-.03-1.31-.04-3.08-.33-4.39-.51"/>
    <path d="M81.21,92.69l.77,2.93"/>
    <path d="M98.77,99.78c.06,.85-.24,1.65-.39,2.46"/>
  </g>
  <path class="chromeLight" d="M171.02,262.9c-.08,.81,.26,1.53,.56,2.22,.36,.83,2.26,1.2,2.97,.61,.42-.34,.84-.66,1.2-1.11,.69-.86,.81-1.75,.4-2.64-.48-1.04-1.42-1.53-2.59-1.48l-2.54,2.39Z"/>
  <path class="flatTealLightest" d="M96.39,190.43c.48,.26,.93,.6,1.46,.78,1.1,.37,2.22,.58,3.39,.73,2.87,.38,5.29-.18,7.01-2.67,.8-1.16,1.26-2.44,1.62-3.83,.39-1.53,.34-2.94,0-4.41-.48-2.12-1.55-3.99-2.61-5.86-1.36-2.4-3.04-4.61-4.02-7.23-.64-1.7-.44-3.28,1.24-4.48,1.14-.81,2.35-.89,3.7-.71,2.27,.31,4.46,.88,6.45,1.97,2.83,1.55,5.35,3.55,7.55,5.92,2.56,2.76,4.95,5.66,7.11,8.76,1.82,2.61,3.48,5.32,5.15,8.02,1.1,1.77,2.46,3.33,4.1,4.6,1.39,1.07,2.85,2.08,4.39,2.91,1.13,.61,2.21,1.32,3.36,1.91,1.49,.76,3.07,1.36,4.48,2.29,0,0-2.6,2.15-4.08,3.08-1.37,.86-2.76,1.69-4.06,2.65-.39,.29-.78,.6-1.17,.9-1.13,.85-1.37,2.07-1.29,3.38,.01,.2,.01,.41,.06,.62,0,0,13.33,14.88,14.45,16.13,1.11,1.23,2.59,2.14,3.97,3.11,.73,.51,1.56,.99,2.53,.63,.63-.24,1.25-.53,1.85-.84,2.39-1.27,4.55-2.88,6.54-4.7,1.54-1.41,3.12-2.79,4.53-4.32,2.08-2.26,4.03-4.65,6.03-6.99l.19-.15c1.19,.62,2.07,1.57,2.9,2.61,1.77,2.22,3.06,4.7,4.06,7.33,.53,1.38,.96,2.79,1.34,4.23,.35,1.3,.69,2.6,.65,3.93-.06,1.72-.14,3.44-.4,5.17-.31,2.05-1,3.97-1.59,5.92-.54,1.82-1.45,3.48-2.29,5.17-1.14,2.31-2.51,4.47-4.04,6.52-1.79,2.39-3.76,4.65-5.76,6.87-1.08,1.2-2.17,2.4-3.23,3.62-.91,1.06-1.96,1.99-2.87,3.06-1.07,1.26-2.2,2.48-3.39,3.62-1.44,1.39-3.02,2.62-4.47,4.01-1.6,1.53-3.36,2.87-5.16,4.16-.45,.33-3.39,2.32-4.42,2.79-2.04,.93-4.08,1.95-6.43,2.12-1.68,.12-3.31,.33-5.01,.15-1.61-.18-3.21-.36-4.77-.81-2.06-.59-4.11-1.17-6.02-2.21-1.52-.83-2.8-1.92-4.05-3.05-1.13-1.02-2.28-2.08-3.14-3.32-1.17-1.7-2.52-3.26-3.66-4.98-.54-.81-1.11-1.6-1.69-2.39-1.07-1.44-1.87-3.05-2.84-4.55-.55-.85-1.03-1.74-1.55-2.61-1.12-1.9-1.69-4.05-2.84-5.94-1.31-2.14-2.38-4.41-4.38-6.11-2.68-2.28-5.36-4.49-8.48-6.16-2.42-1.3-4.79-2.69-7.26-3.88-1.45-.7-2.78-1.58-4.15-2.4-.88-.53-1.58-1.3-2.39-1.92-2.67-2.03-4.9-4.46-6.59-7.34-.54-.93-1.18-1.86-1.34-2.99-.13-.91-.38-1.81,.08-2.7,.36-.68,.9-1.19,1.53-1.63,1.98-1.36,4.36-1.2,6.15-.04,1.61,1.04,3.25,1.94,5.1,2.44,1.84,.5,3.62,.93,5.56,.19,1.74-.66,3.24-1.48,4.3-3.04,1.28-1.9,1.48-3.98,1.07-6.16-.21-1.08-.74-2.06-1.14-3.08l-1.31-18.79Z"/>
  <path class="steelMedium" d="M143.45,252.5c-1.95-2.16-3.9-4.31-5.85-6.47l12.94-14.17c2.21,1.85,4.42,3.7,6.62,5.55l-13.71,15.1Z"/>
  <path class="flatRedDark" d="M141.98,210.99c-1.44-2.04-3.13-3.87-5.18-5.29-1.53-1.06-3.28-1.8-4.98-2.58-2.05-.95-4.12-1.83-6.24-2.62-3.69-1.38-7.5-1.91-11.4-1.65-1.93,.13-3.85,.58-5.62,1.43l-5.62,12.4c.47,2.06,.27,4.02-.68,5.94-1.28,2.56-3.03,4.71-5.65,5.89-2.26,1.02-4.7,1.37-7.23,1.22-1.74-.1-3.41-.35-5-1.04-.75-.32-1.51-.63-2.23-1.02-.38-.21-.79-.25-1.18-.41-.38-.16-.81,.1-1.07,.5-.22,.35-.21,.65,0,1.01,1.06,1.8,2.43,3.35,4.02,4.68,1.35,1.13,2.76,2.18,4.19,3.22,2.13,1.56,4.5,2.57,6.82,3.71,1.68,.83,3.36,1.64,5.01,2.54,2.85,1.56,5.43,3.49,7.66,5.82,1.5,1.56,2.87,3.26,4.06,5.11,1.25,1.94,2.38,3.94,3.35,6.03,.71,1.53,1.58,2.96,2.37,4.44,.69,1.29,1.44,2.57,2.27,3.8,.9,1.34,1.94,2.58,2.95,3.83,.53,.66,1.22,1.19,1.83,1.78,.3,.29,2.29,1.74,3.08,2,1.64,.55,3.84-.27,4.61-1.77,.79-1.54,.76-3.13,.08-4.69-.56-1.27-1.28-2.48-1.73-3.79-.45-1.3-1-2.57-1.38-3.91-.76-2.68-.64-5.38-.6-8.1,.02-1.6,.44-3.13,1.01-4.52,.75-1.8,1.86-3.5,3.71-4.5,.16-.09,8.78-29.5,8.78-29.5Z"/>
  <g class="steelLight">
    <path d="M154.47,239.04c-1.11,1.15-2.12,2.4-3.17,3.61-1.86,2.12-3.71,4.26-5.6,6.35-.88,.98-1.77,1.95-2.64,2.95-.39,.45-.55,.71,.15,1.49,1.16,1.33,1.38,1.32,2.55,0,1.42-1.61,2.89-3.17,4.31-4.78,2.35-2.66,4.68-5.34,7.03-8.01,.62-.71,1.29-1.37,1.96-2.03,.49-.49,.27-.71-.13-1.12-.36-.37-.66-.71-1.03-1.01-.23-.19-.57-.18-.79,.02-.6,.56-1.83,1.7-2.64,2.54Z"/>
    <path d="M151.12,231.72c.15,.21,.13,.49-.04,.67-4.34,4.8-8.67,9.62-13.12,14.43-.11,.12-.31,.13-.43,0-.56-.59-1.13-1.04-1.5-1.71-.1-.19-.08-.41,.06-.57,1.4-1.54,2.84-3.11,4.27-4.68,2.62-2.87,5.24-5.74,7.85-8.63,.29-.33,.5-.73,.89-.95,.15-.09,.34-.07,.49,.03,.38,.28,1.19,.91,1.54,1.4Z"/>
    <path d="M124.5,256.12c.23-1.68-.68-2.8-2.31-2.76-.86,.02-1.39,.6-1.77,1.3-.76,1.44,.03,3.32,1.84,3.47,1.03,.08,2.28-1.01,2.16-1.93l.08-.08Z"/>
    <path d="M126.12,264.22c.58-.46,1.34-.63,2.04-.41s1.07,.73,1.34,1.63c.31,1.03-.08,1.96-1,2.39-1.42,.66-2.78,.12-3.39-1.35-.25-.6,.05-1.1,.32-1.57,.12-.22,.4-.47,.68-.69Z"/>
    <path d="M116.94,242.64c-.61,.71-.8,1.76-.38,2.55,.43,.81,1.56,1.34,2.46,1.16,1.79-.36,2.47-1.96,1.55-3.55-.2-.33-.48-.51-.78-.64-.7-.29-1.49-.29-2.18,.02-.27,.12-.51,.27-.67,.46Z"/>
  </g>
  <path class="oakMedium" d="M9.43,135.05c.18,.66,.35,1.23,.98,1.72,1.81,1.41,3.5,2.96,5.26,4.44,2.43,2.04,4.88,4.05,7.31,6.09,1.45,1.22,2.87,2.47,4.32,3.69,1.79,1.5,3.63,2.94,5.38,4.48,1.42,1.26,2.88,2.46,4.33,3.68,2.48,2.09,4.98,4.16,7.47,6.25,1.78,1.5,3.53,3.04,5.32,4.54,2.43,2.04,4.88,4.05,7.31,6.09,1.78,1.5,3.54,3.04,5.32,4.54,2.12,1.78,4.27,3.54,6.39,5.32,1.78,1.5,3.54,3.04,5.32,4.54,2.12,1.78,4.27,3.54,6.39,5.32,1.78,1.5,3.54,3.04,5.32,4.54,2.12,1.78,4.27,3.54,6.39,5.32,1.78,1.5,3.53,3.04,5.32,4.54,1.68,1.4,3.31,2.87,5.07,4.17,.5,.37,.84,.4,1.33-.07,1.89-1.83,3.5-3.9,5.23-5.86,1.11-1.25,2.25-2.48,3.3-3.78,.09-.12,.17-.24,.25-.37,.65-1.11,.66-1.22-.33-2.01-1.75-1.39-3.52-2.75-5.3-4.1-2.73-2.08-5.39-4.26-8.1-6.38-2.66-2.07-5.34-4.11-8.01-6.17-2.75-2.13-5.49-4.26-8.24-6.39-4.54-3.52-9.11-7.01-13.63-10.56-4.35-3.41-8.73-6.77-13.09-10.17-4.36-3.4-8.74-6.77-13.09-10.17-4.36-3.4-8.74-6.77-13.09-10.17-4.33-3.37-8.64-6.78-13.02-10.08-.41-.31-.67-.86-1.31-.76l-6.08,7.78Z"/>
  <path class="oakLightest" d="M13.66,120.49c.21-.8-.03-1.49-.77-1.91-.23-.13-.46-.28-.67-.42-2.87-1.81-5.88-3.39-8.86-5-.94-.51-1.9-.98-2.86-1.46v22.94c.98-.41,2.02-.64,3.08-.75,1.92-.19,3.75,.19,5.47,1.07l6.08-7.16c0-.53-.33-.95-.56-1.38-.96-1.89-1.48-3.82-.92-5.94Z"/>
  <g class="whiteMedium">
    <path d="M114.87,225.62c1.71-.09,2.31-1.43,2.82-2.71,.49-1.24,1.06-2.45,1.59-3.68,1.5-3.47,3.1-6.89,4.68-10.33,.57-1.24-.1-2.25-1.01-2.69-1.5-.73-2.51-.27-3.16,1.15-.67,1.47-1.39,2.93-2.07,4.39-1.49,3.21-2.98,6.42-4.47,9.63-.07,.15-.07,.34-.16,.46-1.07,1.34-.27,3.11,1.24,3.61,.15,.05,.29,.15,.46,.17h.08Z"/>
    <path d="M14.9,126.42c-1.03,.55-1.71,1.48-2.45,2.32-1.24,1.39-2.43,2.82-3.57,4.29-.31,.39-.41,.87-.73,1.26-.25,.3,.33,1.17,.9,1.53,.46,.29,.78,.19,1.08-.23,1.25-1.74,2.63-3.37,4.01-5,.79-.93,1.47-1.96,2.45-2.72-.21-1.04-.7-1.51-1.54-1.45h-.15Z"/>
  </g>
  <g class="skinNordic">
    <path d="M35.21,160.12c1.49-1.08,3.12-1.96,4.52-3.17,.43-.37,1.21-.64,1.81-.32,1.49,.81,2.31,2.06,1.93,3.98-.38,1.92-1.42,3.4-3.07,4.48-.98,.64-1.82,1.47-2.23,2.61-.25,.7-.39,1.85-.39,1.85,.21,.15,.91-.7,1.23-.93,1.23-.9,2.44-1.83,3.69-2.71,1.72-1.22,3.3-2.64,5.25-3.53,.85-.39,2.16-.22,2.78,.47,.9,1,.99,2.44,.41,3.71-.27,.59-.65,1.04-.99,1.55-.3,.46-.91,.63-1.06,1.22,.32,.28,.63,.56,.95,.83,1.26,1.05,2.55,2.07,3.76,3.17,.78,.71,1.77,1.28,2.08,2.38,.24,.85,.39,1.72,.4,2.61,.02,1.55-.14,3.09-.38,4.62-.27,1.78-.72,3.52-1.23,5.24-.46,1.52-.87,3.27-1.62,4.7-.79-.09-1.55-.34-2.31-.47-2.07-.34-4.12-.79-6.17-1.28-2.55-.62-4.74-1.78-6.55-3.71-1.17-1.25-2.32-2.52-3.83-3.42-1.04-.62-1.75-1.64-2.23-2.75-.31-.72-.78-1.25-1.4-1.69-1.02-.74-1.82-1.66-2.07-2.92-.17-.87-.48-1.67-.85-2.46-.4-.86-.63-1.8-.8-2.7-.31-1.61-.33-3.28-.43-4.92-.09-1.4,.19-2.78,.36-4.16,.2-1.63,.52-3.2,1.24-4.7,.81-1.69,1.81-3.2,3.13-4.58,1.5-1.57,3.17-2.79,5.13-3.65,.97-.43,2.7,.37,2.91,1.38,.26,1.28,.11,2.55-.6,3.69-.76,1.22-1.74,2.26-2.6,3.4-.54,.72-1.73,1.87-1.71,2.92,0,0,.41-.32,.97-.73Z"/>
    <path d="M120.88,231.4c-1.65,.64-2.15,2.6-.56,4.18,1.19,1.18,2.45,1.58,4.03,1.13l.08-.08c.24,1.81,1.37,2.96,3.01,3.43,1.51,.43,2.87-.2,4.07-1.27,.33,.24,.34,.74,.61,1.08,1.26,1.54,3.77,1.82,5.49,.79,1.75-1.05,3.34-2.29,4.83-3.65,1.68-1.54,3.19-3.23,4.57-5.06,1.69-2.24,2.92-4.73,4.35-7.11,.43-.72,.92-1.31,1.62-1.78,.76-.5,1.61-1.26,2.39-1.87-3.57-4.67-7.25-9.19-12.45-12.31-.87,.6-1.93,.97-2.96,1.12-1.51,.22-2.94,.63-4.39,1.04-1.09,.31-2.11,.76-3.15,1.19-3.13,1.3-5.51,3.55-7.73,6.05-1.31,1.49-2.6,3-3.89,4.5-.87,1.01-1.68,2.1-2.39,3.23-1.12,1.81-1.07,2.9,.68,4.53,.35,.32,.76,.57,1.15,.85h.62Z"/>
  </g>
  <g class="skinOverlapLine">
    <path d="M45.56,180.11c1.5-.47,2.48-1.51,3.25-2.84,.56-.98,.78-1.98,.61-3.09-.21-1.36-1.54-2.19-2.77-1.6-2,.95-4.02,1.9-5.91,3.03-.91,.54-1.61,1.45-2.27,2.34-.49,.67-.9,1.34-1.19,2.15-.49,1.36-.13,2.48,.69,3.46,.48,.57,.9,1.25,1.59,1.64"/>
    <path d="M127.89,89.46c-.55,1.9-1.46,3.6-2.68,5.17-.91,1.17-1.81,2.34-2.87,3.38-1,.99-2.08,1.88-3.21,2.73-1.01,.76-3.86,1.94-4.19,2.05-2.16,.61-5.19,.87-7.39,.3"/>
    <path d="M51.02,173.64q1.85,1.85,2.52,3.17c.74,1.47,1.17,3.04,.74,4.77-.57,2.27-1.69,4.06-3.8,5.15"/>
    <path d="M34.16,160.93c-.95,1.74-2.26,3.51-3.27,5.22-.69,1.18-.71,2.39-.81,3.64-.03,.33,0,.67,0,1"/>
    <path d="M130.2,232.17c-1.68,1.72-3.76,2.99-5.7,4.39"/>
    <path d="M125.58,227.32c-.94,1.41-1.94,2.07-3.23,3.09-.35,.28-.78,.53-1.39,.91"/>
    <path d="M37.85,169.63c-1.03,1.12-1.48,1.52-2.23,2.62-.33,.6-.62,1.08-.92,1.77"/>
    <path d="M134.51,236.25c-.81,1.04-1.96,1.69-2.94,2.53"/>
    <path d="M49.02,169.25c-.96,1.01-2.23,1.69-3.32,2.53-1.1,.85-2.46,1.72-3.31,2.86"/>
  </g>
</svg>