<svg viewBox="0 0 196.61 261.63">
  <rect class="flatBlueLightest" x=".5" y=".5" width="195.47" height="260.63"/>
  <path class="flatPurpleMedium" d="M.64,256.62l195.47-.94v-46.37c-.08-.02-.17-.05-.25-.07-2.9-.74-5.71-.53-8.49,.31-7.98,2.41-21.69,7.57-24.44,8.56-1.64,.59-17.87-.76-18.54-.84-.82-.1-12.92-4.64-13.95-4.62-1.3,.03-71.8,.99-74.08,1.03-.44,0-6.03,2.51-8.49,3.56-.65,.28-1.31,.56-1.99,.68-.9,.16-19.04,.14-20.36-.08-1.03-.17-1.92-.78-2.85-1.22-2.18-1-13.41-4.55-16.47-5.36-1.83-.49-3.74,.03-5.55,.37v44.99Z"/>
  <g class="flatOrangeMedium">
    <path d="M99.93,76.27c-.25,2.96,.22,5.86,.72,8.75,.51,2.96,.29,5.9-.03,8.84-.15,1.44-.28,2.89-.46,4.33-.19,1.6-.7,3.17-.9,4.77-.27,2.13-.89,4.17-1.4,6.24-.41,1.65-.91,3.29-1.26,4.95-.25,1.2-17.72,55.53-17.72,55.53h37.7c-.07-1.11-8.74-62.23-9.11-63.68-.44-1.71-.77-3.46-1.01-5.2-.16-1.17-.4-2.33-.44-3.55-.03-1.14-.26-2.3-.28-3.47-.02-1.56-.11-3.12-.07-4.68,.06-1.89,.04-3.8,.67-5.64,.3-.86,.39-1.76,.37-2.68-.03-1.53,0-3.06,0-4.59,0,0-6.75,0-6.76,.09Z"/>
    <path d="M89.8,77.48c-2.25,1.85-4.52,3.67-6.75,5.56-.71,.6-1.51,1.07-2.21,1.68-.34,.3-.37,.58-.49,.91,0,0,.43,.1,1.89-.56,3.02-1.37,5.87-3.11,8.77-4.73,.24-.13-1.21-2.86-1.21-2.86Z"/>
    <path d="M116.57,75.32c.28,.69,.6,1.35,1.12,1.91,1.77,1.87,5.36,5.86,5.38,5.97,0,0-4.7-1.93-7.7-3.23-.71-.31-2.48-1.26-2.7-1.28l3.9-3.38Z"/>
    <path d="M91.27,68.21c-1.58-2.56-3.41-4.68-6.66-5.26-1.67-.29-3.31-.24-4.95-.24-1.39,0-4.33,.74-4.33,.74-1.66,.23-4.94,1.21-4.94,1.21-.01-.21,.1-.31,.25-.44,1.37-1.16,2.86-2.15,4.28-3.25,1.59-1.22,3.49-2.01,5.35-2.79,.79-.33,1.59-.66,2.5-.77,.88-.11,1.74,0,2.6-.06,2.11-.16,4.22-.22,6.4-.06-.18-1.7-.62-3.33-1.13-4.94-.43-1.35-.94-2.67-1.47-3.99-.57-1.43-1.21-2.83-1.81-4.25,0,0,.73,.57,.87,.69,1.23,1.05,2.47,2.1,3.72,3.12,1.33,1.09,2.68,2.15,3.92,3.36,.5,.5,1.61,1.64,1.72,1.41,.38-.84,.23-1.76,.21-2.6-.05-2.22-.34-4.44-.31-6.67,.01-.73-.11-1.45-.23-2.17-.15-.93,.23-2.7,.45-2.27,1.27,2.5,2.7,4.92,4.02,7.39,1.36,2.53,2.66,5.08,3.99,7.62,.29,.56,.55,.51,.87,0,.65-1.02,1.33-2.02,1.99-3.04,1.22-1.9,3.86-6.24,3.99-6.5,0,0-.16,1.42-.18,1.65-.16,1.96-.34,3.93-.52,5.89-.06,.69-.35,1.37-.13,2.15,.95-.51,1.7-1.17,2.47-1.8,1.87-1.54,3.63-3.18,5.86-4.31,2.39-1.21,4.72-1.52,7.22-.87,1.58,.41,4.77,1.63,4.77,1.63-.24,.31-.54,.43-.95,.45-2.13,.1-4.07,.83-5.89,1.9-.9,.53-1.88,1.02-2.58,1.75-1.34,1.41-2.89,2.62-4,4.23-.52,.74-1.22,1.27-1.84,1.89-.32,.32-.55,.64-.6,1.1,.8,.53,1.67,.3,2.51,.2,1.67-.19,3.35-.27,5.03-.43,1.44-.14,2.88-.25,4.33-.25,.3,0,2.95-.18,2.95-.18-2.37,.64-4.75,1.23-7.1,1.92-1.67,.49-3.34,.99-4.87,1.88-.52,.3-1.14,.44-1.73,.61-.23,.07-.4,.15-.52,.36,0,0,1.11,.36,1.9,.55,1.5,.36,4.75,.86,4.86,.83l-.61,.26c-.73,.59-1.68,.52-2.52,.75-.85,.23-1.72,.43-2.59,.63-1.45,.33-2.94,.5-4.33,1.05l-22.27-.09Z"/>
  </g>
  <g class="flatRedLight">
    <path d="M105.57,70.64c.77-.59,1.22-1.47,1.97-2.1,.84-.71,1.12-3.29,.53-4.22-.83-1.31-2.92-1.46-4.08-.11-1.01,1.18-1.07,3.09-.28,4.37,.5,.81,1.07,1.47,1.77,2.05h.09Z"/>
    <path d="M105.13,74.71c-.4,.75-1.77,5.07-1.38,5.36,1.87,1.43,2.62,3.58,3.62,5.56,.7,1.38,1.14,2.9,2.35,3.98,1.23,1.11,2.61,1.57,4.25,1.12,1.29-.35,2.01-1.81,1.66-3.12-.67-2.51-1.97-4.67-3.58-6.66-.44-.55-6.92-6.25-6.92-6.25Z"/>
  </g>
  <path class="flatAmberMedium" d="M167.52,184.32c.49,1.07,1.03,2.12,1.46,3.21,.47,1.19,.73,2.43,.8,3.72,.14,2.83,0,5.64-.63,8.4-.67,2.93-1.57,5.8-2.74,8.59-1.06,2.52-1.99,5.12-2.48,7.8-.54,2.91-.07,5.8,.99,8.57,.14,.37-24.95,2.34-24.95,2.34,.17-.78,.38-1.55,.51-2.34,.44-2.52,.44-5.08,.32-7.62-.07-1.65-.27-3.3-.44-4.94-.18-1.67-.41-3.35-.62-5.01-.27-2.11-.87-4.19-.97-6.33-.09-1.91-.12-3.82,.18-5.72,.26-1.63,.54-3.26,.97-4.85,.28-1.01,.38-2.14,1.18-2.95l26.43-2.86Z"/>
  <path class="blackMedium" d="M175.4,237.52c.66-1.01,.44-2.17,.3-3.2-.35-2.66-1.07-5.26-3.1-7.17-1.33-1.26-2.92-2.13-4.73-2.66-1.49-.43-2.97-1.01-4.52-1.06-2.05-.07-4.1-.35-6.15-.2-1.5,.11-3-.16-4.51-.02-2.36,.22-4.7,.33-7.03,.91-1.93,.48-3.62,1.32-5.26,2.33-.56,.34-.85,.87-.81,1.63,.08,1.53,.02,3.06,.02,4.59l35.78,4.85Z"/>
  <path class="hairBlack" d="M156.51,121.24c-.29-1.83-1.51-2.51-3.04-2.75-2.97-.47-5.94-.14-8.82,.55-2.06,.49-4.14,1.2-5.89,2.49-1.07,.79-8.79,3.51-11.46,4.48-.44,.16,3.16,16.47,3.75,19.69,.23,1.23,.42,2.46,.85,3.62,.64,1.72,1.53,3.29,2.74,4.7,1.39,1.62,3.12,2.79,4.8,4.03,.79,.58,1.74,.98,2.68,1.29,.58,.19,1.11,.52,1.6,.78,1.56,.82,3.14,1.13,4.88,1.09,2.57-.07,7.88-39.96,7.88-39.96Z"/>
  <g class="skinBlack">
    <path d="M154.69,186.57c-.08,1.04-.21,2.06-.11,3.12,.09,.97-.04,1.96-.06,2.94,0,.52,0,1.04,.06,1.56,.07,.61,.06,1.15-.56,1.67-1.61,1.35-3.12,2.6-4.8,3.85-.33,.25-1.2,1.06-1.2,1.06-.29-.84-.79-1.84-1.03-2.69-.66-2.33-1.31-4.67-1.9-7.02-.33-1.32-1.03-2.56-.96-3.98l10.57-.52Z"/>
    <path d="M163.18,166.47c0-.87,0-1.73,0-2.6,0-.67,.19-.74,.87-.62,3.86,.72,6.96,.03,9.12-3.84,.89-1.6,.7-3.53-.2-5.25-.1-.19-.2-.39-.37-.74,1.95,.13,3.65-.18,4.71-1.94,.48-.81,.59-1.7,.51-2.6-.22-2.29-1.76-3.73-4.42-4.09,.11-1.06,.22-2.13,.31-3.19,.08-1.01-.1-1.97-.14-2.95-.1-2.36-.65-4.64-1.48-6.84-.56-1.49-1.4-2.85-2.13-4.26-1.05-2.04-2.7-3.47-4.63-4.55-1.29-.72-2.76-1.12-4.23-1.42-1.6-.34-3.23-.49-4.85-.57-1.23-.06-2.51,.02-3.72,.27-.87,.19-1.45,1.02-1.91,1.78-1.35,2.24-2.27,4.67-2.96,7.19-.52,1.88-.96,3.76-1.04,5.72-.05,1.1-.03,2.19-.02,3.29,0,1.31,.1,2.61,.3,3.9,.34,2.27,.83,4.51,1.63,6.67,.03,.08,0,.17,0,.26-2.56,.41-4.61,3.14-3.69,6.17,.38,1.23,1.01,2.11,2.06,2.64,.7,.35,.52,.71,.32,1.16-.12,.26-.29,.55-.52,.68-.53,.31-.48,.79-.41,1.23,.1,.64,.04,1.27,.07,1.91l16.81,2.6Z"/>
  </g>
  <path class="flatTealLight" d="M168.82,185.7c.15,.48-.07,.74-.52,.87-2.4,.65-4.8,1.26-7.27,1.58-1.16,.15-2.33,.43-3.47,.36-1.36-.09-2.66,.14-3.99,.24-1.97,.14-3.93,.45-5.89,.56-1.06,.06-2.12,.27-3.21-.03-.58-.16-1.27-.04-1.89,.07-.87,.16-1.76,.09-2.61,.4-.44,.16-.84-.16-.93-.59-.1-.48-.22-1.04-.15-1.46,.29-1.56-.07-3.14,.21-4.69,.44-2.44,.63-4.9,1.4-7.3,.62-1.93,1.2-3.88,1.91-5.78,.39-1.04,.87-2.05,1.39-3.03,.35-.67,.45-1.36,.41-2.09-.06-1.2,.56-2.83,1.39-3.55,1.04,.78,2.27,1.14,3.47,1.56,2.77,.96,5.64,1.55,8.5,2.14,2.02,.42,4.1,.55,6.15,.81,1.25,.16,1.67,.94,1.12,2.08-.09,.19-.22,.36-.34,.52-.62,.81-.28,1.68,.03,2.42,1.23,2.97,2.09,6.07,3.06,9.12,.55,1.71,1.08,3.46,1.27,5.27,.02,.17-.02,.29-.03,.44v.09Z"/>
  <path class="flatYellowDark" d="M21.95,178.25c-.13,1.44-.3,2.88-.25,4.33,.05,1.42,.15,2.83,.26,4.25,.16,2.08,.27,4.17,.53,6.24,.35,2.75,.67,5.5,1.14,8.24,.42,2.42,.78,4.88,.75,7.36-.03,2.14,.18,4.28-.15,6.41-.29,1.86-.74,3.64-1.84,5.2-.74,1.05-.92,2.31-1.38,3.47-.39,.98-.46,2.03-.74,3.04-.21,.75-.02,1.62-.22,2.41l28.42-1.3c-.2-.03-1.82-6.27-1.94-6.75-.53-2.14-.81-4.31-.83-6.51-.02-2.29,.15-4.57,.36-6.85,.15-1.62,.33-3.24,.54-4.84,.27-1.99,.76-3.95,1.28-5.89,.48-1.78,.99-3.57,2.06-5.11,.41-.58,2.74-9.77,3.72-13.69H21.95Z"/>
  <path class="blackMedium" d="M42.4,234.05c0-1.91-.01-3.81,0-5.72,0-.64-.16-1.07-.78-1.4-1.87-.99-3.74-1.99-5.82-2.47-.63-.15-1.33-.15-1.99-.17-2.41-.08-4.81,.17-7.19,.58-2.52,.44-4.84,1.47-7.1,2.61-1.51,.76-2.87,1.69-3.93,3.09-1.22,1.6-1.76,3.41-2.24,5.3-.25,1.01-.24,2.02-.25,3.04l29.29-4.85Z"/>
  <path class="hairSandy" d="M33.48,114.05c-1.75-.33-3.52-.62-4.86-1.99-.35-.35-.6-.69-.71-1.21-.14-.64-.26-1.46-1.02-1.62-.81-.17-1.46,.24-1.92,1-.29,.48-.51,.95-.71,1.47-.54,1.42-2.57,2.52-2.57,2.52-.32-.76,.04-1.56-.15-2.34-.09-.37-.08-.81-.3-1.11-.86-1.22-1.46-2.62-2.49-3.75-.74-.81-.71-1.94-.85-2.94-.22-1.61,.26-3.11,1.27-4.42,.24-.31,.46-.64,.7-.95,.89-1.17,2.1-1.8,3.45-2.39,1.99-.86,3.71-2.19,5.32-3.67,1.22-1.11,2.03-2.53,3.12-3.73,.96-1.07,2.05-1.98,3.54-2.27,1.65-.33,3.27-.44,4.94-.09,3.06,.65,5.61,2.23,8.07,4.07,2.01,1.5,4.36,2.23,6.84,2.42,2.21,.17,4.35,.6,6.31,1.6,2.03,1.03,3.64,2.52,4.43,4.74,.16,.45,.42,.86,.6,1.3,.59,1.45,.63,3,.57,4.5-.05,1.32-.6,2.59-1.45,3.63-1.17,1.44-1.24,2.99-.87,4.7,.22,1.02,.28,2.08,.17,3.11-.21,1.93-.7,3.81-1.91,5.36-.98,1.26-2.11,2.42-3.53,3.22-.72,.41-1.44,.81-2.17,1.21-1.97,1.11-3.17,2.83-3.92,4.93-.2,.55-.38,1.11-.59,1.65l-19.32-18.98Z"/>
  <path class="flatMaroonLight" d="M53.92,159.71c.38,1.14,.71,2.3,1.04,3.47,.17,.59,.2,1.09-.41,1.58-1.08,.87-1.4,.93-3.68,2.15,.16,2.74-.31,5.42,.45,8.22,.26,.95,.49,1.9,.69,2.86,.16,.79-.33,1.41-1.28,2-.94,.58-1.97,.39-2.96,.49-1.7,.17-3.38-.12-5.02-.52-1.61-.4-3.23-.44-4.86-.6-3.41-.33-6.67,.53-9.97,1.13-1.8,.33-3.63,.44-5.46,.52-1.03,.04-1.12-.23-1.33-1.2-.24-1.08-.2-2.15-.12-3.21,.17-2.2,.29-4.41,.74-6.59,.24-1.17,.39-2.36,.53-3.55,.33-2.84,1.12-5.58,1.92-8.31,.81-2.77,1.91-5.43,3.28-7.97,.21-.4,.6-.8,.78-1.21,.78-1.12,2.2-2.2,3.35-3.15,1.15,1.18,2.28,1.44,3.76,1.49,3.45,.11,6.67-.75,9.53-2.76,.48-.34,.74-.27,1.15,.17,1.72,1.85,2.78,4.12,4.05,6.26,.58,.96,1.1,1.96,1.66,2.94,.08,.14,1.55,3.99,2.15,5.81Z"/>
  <path class="flatIndigoMedium" d="M95.08,230.59c-.12-1.24-.28-2.48-.33-3.73-.06-1.5,.05-3.01-.03-4.5-.13-2.41,.79-32.75,.79-32.75h34.94c.35,1.73,.92,3.29,1.23,4.93,.36,1.93,.55,3.85,.49,5.81-.06,1.97-.09,3.96,.35,5.89,.51,2.27,1.17,4.5,1.71,6.76,.78,3.23,1.38,6.5,1.83,9.79l-40.98,7.8Z"/>
  <path class="blackMedium" d="M144.04,231.45c-.03-.4,.06-.8,.04-1.22-.07-1.09-.47-2.08-.73-3.12l-.09-.17c-.79-1.4-1.68-2.67-3.01-3.67-1.81-1.34-3.89-1.68-6-2.06-1.33-.24-2.67-.23-3.99-.14-2.45,.18-4.86,.64-7.16,1.67-1.55-1.77-3.74-2.51-5.93-3.25-2.05-.69-4.19-.91-6.33-1.01-1.12-.05-2.25,.27-3.38,.4-2.79,.31-5.12,1.68-7.36,3.22-1.72,1.18-3.25,2.54-4.54,4.22-1.2,1.56-2.28,3.2-3.44,4.79l51.9,.35Z"/>
  <path class="hairBlonde" d="M129.83,128.26c1.39-.34,2.63-1.01,3.9-1.64,1.25-.61,2.38-1.39,3.46-2.26,2.25-1.81,3.69-4.12,4.32-6.93,.34-1.53-.69-3.46-2.16-4.16-.83-.4-1.73-.58-2.6-.87-2.31-.75-4.48-1.83-6.68-2.84-2.62-1.21-5.03-2.81-7.7-3.93-1.32-.56-2.69-.87-4.08-1.09-.46-.07-.9-.2-1.38-.21-3.16-.1-6.05,.78-8.94,1.97-3.55,1.46-6.27,3.91-8.91,6.54-1.55,1.54-2.8,3.3-3.78,5.22-1.01,1.97-1.95,4-2.5,6.15-.37,1.45-.73,2.94-.67,4.5,.09,2.25,.17,7.87,.44,8.41,.86,1.74,1.66,3.52,2.8,5.1,1.73,2.39,3.89,4.23,6.65,5.41,1.23,.53,2.47,1.02,3.75,1.2,1.07,.15,2.17,.54,3.28,.23l20.79-20.79Z"/>
  <path class="hairOverlapLine" d="M133.99,119.25c-1.28,.21-2.46,.7-3.64,1.21"/>
  <path class="flatGreenLight" d="M100.8,190.9c.15,.35,.45,.54,.78,.69,2.07,.99,4.18,1.78,6.49,2.13,1.59,.24,3.2,.43,4.78,.8,.75,.18,1.56,.05,2.34,.08,1.85,.08,3.7,.11,5.55-.13,1.65-.22,3.35-.29,4.93-.82,2.43-.82,4.96-1.43,6.96-3.25,.83-.76,1-1.77,.79-2.6-.44-1.76-.53-3.52-.62-5.3-.03-.6-.24-1.21-.05-1.81,3.06-.4,3.91-2.31,4.39-4.94,.33-1.78-.42-3.17-1.24-4.6-1.13-1.98-1.83-4.14-2.69-6.24-.49-1.2-1.03-2.37-1.56-3.55-.65-1.46-1.79-2.48-3.22-2.99-1.49-.54-2.85-1.41-4.41-1.75-2.39,1.63-4.21,3.9-6.32,5.96-1.01-1.03-2.02-1.99-3.11-2.86-2.37-1.89-4.62-3.92-6.85-5.97-.5-.46-1.26-.3-1.81-.3-2.04,0-3.92,.57-5.3,2.27-.56,.69-.85,1.51-1.29,2.26-1.37,2.36-2.2,4.94-3.18,7.46-.54,1.39-.83,2.88-1.24,4.32l5.89,21.14Z"/>
  <g class="blackDark">
    <path d="M66.32,130.6c-.03-.98,.37-1.87,.64-2.76,.65-2.16,1.34-4.36,2.61-6.22,1.08-1.58,2.41-3.07,4.13-3.99,3.44-1.84,7.07-2.15,10.91-1.28,3.92,.89,6.35,3.3,7.85,6.81,.49,1.14,.71,2.4,.97,3.63,.34,1.58,.74,3.17,.83,4.77,.09,1.58,.08,3.17-.08,4.77-.15,1.48-.41,2.92-.85,4.32-.47,1.48-.79,3.03-1.7,4.35-.23,.34-.32,.79-.44,1.2-.32,1.04-.86,2.02-1.52,2.82-.84,1.01-1.43,2.18-2.29,3.16h-14.74l-6.33-21.57Z"/>
    <path d="M77.66,158.23c2.16-.47,13.37-4.11,13.42-3.89,.4,1.97,1.31,3.78,1.86,5.71,.37,1.31,.95,2.55,1.45,3.82,.79,1.96,1.36,4,2.1,5.97,.78,2.07,1.54,4.16,2.15,6.27,.46,1.58,1.06,3.15,1.22,4.83,.08,.86,.46,1.68,.71,2.5,.31,1.03,.3,2.1,.55,3.14,.24,1.02,.2,2.1,.49,3.1,.23,.82,.2,1.64,.26,2.44,.2,2.36,.16,4.73,0,7.1-.2,3.03-.87,5.94-1.71,8.83-.35,1.2-.9,2.35-1.47,3.46-.68,1.33-1.58,2.56-2.21,3.92-.61,1.32-1.46,2.46-2.29,3.62-.96,1.33-2.25,2.36-3.37,3.56-.36,.38-5.52,.43-7.63,.43,0,0-5.68-64.79-5.55-64.82Z"/>
  </g>
  <path class="whiteLight" d="M58.26,225.13c-.12-.09-2.54-3.53-3.3-5.37-.37-.89-.86-1.73-1.29-2.6-1.66-3.41-3.21-6.86-4.07-10.57-.61-2.6-.85-5.25-1.11-7.89-.16-1.67-.07-3.35,.08-5.02,.15-1.63,.27-3.26,.67-4.85,.41-1.64,.78-3.3,1.18-4.95,.57-2.29,1.13-4.57,1.75-6.84,.52-1.9,1.36-3.65,2.07-5.46,.99-2.54,2.1-5.02,3.17-7.52,.72-1.67,1.67-3.24,2.48-4.87,.51-1.02,.96-2.06,1.57-3.03l20.88-5.2c1.54-.22,2.94-.84,4.33-1.49,1.54-.72,3.23-1.24,4.17-2.84,.1-.18,.37-.13,.6,.08,.65,.61,.86,1.36,1,2.24,.25,1.6,.44,3.16,.15,4.77-.1,.54-.29,.98-.71,1.29-1.34,1-2.69,1.98-4.16,2.77-1.22,.66-2.44,1.3-3.68,1.95,.61,1.49,1.22,2.92,1.77,4.38,1.44,3.84,2.95,7.66,4.37,11.51,1.15,3.13,2.2,6.26,2.86,9.54,.51,2.56,1.15,5.09,1.4,7.71,.21,2.25,.39,4.51,.36,6.76-.06,3.73-.77,7.38-1.96,10.92-.84,2.5-2.1,4.81-3.25,7.17-.9,1.86-3.67,6.04-4.12,6.17l-27.21,1.21Z"/>
  <path class="flatRedMedium" d="M80.96,149.23c1.27-.06,2.27,.51,3.32,1.18,.91,.58,1.32,1.33,1.53,2.29,.23,1.04-.02,2.04-.27,3.03-.49,1.94-.92,3.9-1.9,5.68-.63,1.14-1.86,1.58-2.94,1.08-.99-.46-2-.87-2.94-1.4-1.56-.88-3.25-1.58-4.43-3.02v-.26c-2.05,1.31-4.02,.66-5.97-.24-.58,.36-1.02,.88-1.65,1.21-1.56,.84-3.22,1.35-4.95,1.61-.72,.11-1.52,.04-1.98-.68-.38-.6-.84-1.24-.93-1.9-.26-1.92-.45-3.85-.23-5.8,.12-1.13,.46-2.17,.89-3.2l22.44,.43Z"/>
  <g class="clothesOverlapLine">
    <path d="M156.51,193.76c-.73,.34-1.3,.87-1.99,1.65"/>
    <path d="M148.02,200.69c-.61,.52-1.13,1.04-1.56,1.39"/>
    <path d="M144.21,165.34c1.53,1.61,3.49,2.64,5.39,3.7,1.42,.79,3.02,1.23,4.48,1.96,1.47,.74,3.03,1.28,4.52,1.96,.83,.38,1.72,.62,2.6,.87,.32,.09,.56-.02,.8-.4,.87-1.37,1.7-2.74,2.05-4.35"/>
    <path d="M144.3,177.04c-.43,2.51-.78,5.05-1.34,7.53-.27,1.21-.46,2.42-.56,3.65-.02,.29-.01,1.1,.6,1.04"/>
    <path d="M155.56,177.39c.17,1.13,.71,2.05,.89,3.03,.43,2.3,.75,4.6,.66,6.94-.01,.32-.11,.64-.17,.95"/>
    <path d="M43.09,186.31c.61,.59,1.16,1.26,1.99,1.56"/>
    <path d="M39.28,181.37c.08,.68,.52,1.3,1.04,1.73"/>
    <path d="M41.36,157.63c-.13,2.19-.3,4.39-.25,6.58,.02,1.04,.06,2.1,.33,3.12,.14,.54,.44,.84,1.04,.88,.81,.05,1.99,.08,2.77,.08"/>
    <path d="M118.82,201.3c.17,1.3,.35,2.34,.46,3.47,0,.21,.32,7.39,.45,10.74,.06,1.61,.07,3.24,.3,4.85"/>
    <path d="M123.15,222.79c.69,1.29,1.14,2.02,1.22,3.55,.03,.55,.19,1.1,0,1.65"/>
    <path d="M106.95,164.65c.63,.37,.72,1.08,1.04,1.65,.54,.98,.94,2.01,1.13,3.12"/>
    <path d="M101.32,177.73c-.2,.64-.42,1.27-.6,1.91-.18,.65-.35,.8-.91,.76"/>
    <path d="M127.57,166.9c.47,.69,.41,1.48,.43,2.25,.01,.38,.17,.87,0,1.47"/>
    <path d="M132.77,180.59c-1.58,0-3.15-.11-4.68-.52"/>
  </g>
  <g class="clothesBorderLine">
    <path d="M73.59,152.43c.09,.66,.17,1.16,.26,1.82,.16,1.17-.08,2.28-.43,3.38"/>
    <path d="M67.7,152.61c-.42,1.65-.74,3.14-.35,4.85"/>
  </g>
  <g class="skinNordic">
    <path d="M103.4,143.94c.47,.32,.71,.81,.95,1.3,1.01,2.05,2.28,3.92,3.99,5.45,.88,.78,.67,1.79,.56,2.69-.05,.44-.06,.9-.1,1.35,1.88,1.71,3.78,3.4,5.77,4.98,1.09,.87,2.1,1.83,3.11,2.86,1.83-1.78,3.44-3.72,5.4-5.27-.09-.4-.17-.8-.21-1.22-.14-1.45-.11-1.65,1.15-2.25,1.75-.84,3.25-2.02,4.68-3.3,1.21-1.08,2.18-2.37,3.01-3.74,.66-1.09,1.06-2.31,1.43-3.53,.28-.92,.46-1.83,.49-2.78,.05-1.61-.36-3.13-.97-4.58-.6-1.41-.8-2.82-.7-4.34,.09-1.46,.11-2.94-.03-4.42-.22-2.26-.6-4.47-1.36-6.69-1.1,.49-2.22,.93-3.26,1.58-2.32,1.44-4.62,2.95-7.03,4.23-2.6,1.38-5.24,2.73-8.13,3.38-1.13,.26-2.28,.5-3.46,.58-.8,.06-1.62,.11-2.49,.15-.06,1.55-.31,3-.77,4.42-.2,.63-.28,.96-1.07,1.07-1.72,.22-2.5,1.58-2.84,3.09-.46,2.03,.08,3.79,1.88,5.02Z"/>
    <path d="M120.13,178.92c-2.03-.33-4.05-.72-6.07-1.12-.28-.06-.53-.26-.82-.4-2.17,1.18-4.58,1.89-6.99,2.45-1.69,.39-3.38-.07-4.74-1.27-.21-.18-.34-.41-.14-.87,.88-1.96,2.04-3.69,3.58-5.19,.98-.95,2.01-1.81,3.1-2.63,.79-.6,1.63-.47,2.36-.42,1.41,.09,2.76-.19,4.06-.46,2.36-.49,4.72-1.06,7.12-1.2,2.14-.12,4.35,.26,5.75,2.08,.81,1.06,1.71,2.1,2.36,3.27,.65,1.16,.68,2.51,.35,3.79-.2,.74-.35,1.52-.83,2.18-.46,.64-1.01,1-1.83,.86-1.96-.34-3.97-.28-5.89-.87,0,0-.97-.13-1.38-.19Z"/>
    <path d="M52.19,166.21c-2.17,1.14-4.34,1.81-6.73,2.16-1.39,4.91-2.54,10.01-5.15,14.74,.74,.94,1.54,2.05,2.53,3.03,.35,.35,.69,.35,1.04,0,1.02-1.02,1.72-2.28,2.52-3.46,1.58-2.33,3.06-4.72,4.06-7.37,.61-1.63,1.34-3.22,1.79-4.92,.32-1.23,.62-2.4,.3-3.65-.05-.19-.07-.4-.26-.52h-.09Z"/>
    <path d="M24.72,131.38c.88,.45,1.13,1.06,.96,2.08-.18,1.06-.59,2.06-.81,3.11-.34,1.57,.28,2.66,1.31,3.75,.87,.92,2.04,1.26,3.06,1.87,1.49,.89,2.4,2.08,2.6,3.82,1.08,1.01,2.16,1.24,3.55,1.28,3.45,.11,6.67-.75,9.53-2.76,.19-.14,.35-.2,.5-.21-.02-.16-.03-.32-.04-.48-.11-2.18,0-4.35,1.12-6.32,.15-.27,.24-.36,.24-.36,2.58,.97,5.53-.62,6.48-2.92,.68-1.66-.49-4.72-1.89-5.22-.27-.1-.58-.19-.86-.17-.8,.07-1.35-.29-1.82-.88-.73-.9-1.52-1.76-2.06-2.78-.47-.88-.38-1.89-.35-2.85,.04-1.44,.37-2.86,.03-4.34-.36-1.56-1.26-2.61-2.56-3.35-.99-.57-2.06-1.02-3.11-1.48-.82-.36-1.73-.41-2.6-.61-1.47-.35-2.89,.06-4.34,.23-1.21,.14-2.3,.4-3.02,1.43-.6,.86-1.1,1.78-1.48,2.77-.67,1.73-1.29,3.48-2.01,5.19-.76,1.81-2.35,2.55-4.15,2.95-.9,.2-1.8,.36-2.68,.62-1.68,.49-1.69,2.23-.61,3.11,1.01,.82,2.17,1.37,3.38,1.81,.56,.21,1.11,.44,1.64,.71Z"/>
    <path d="M93.7,230.07c.11-1.66,.19-3.3-.33-4.94-.71-2.24-2.16-3.82-4.28-4.64-3.3-1.28-6.75-2.04-10.3-1.99-1.94,.03-3.84,.44-5.73,.99-1.87,.54-3.65,1.22-5.28,2.28-.8,.52-1.51,1.14-2.25,1.78-.89-.76-2.01-.91-3.04-1.25-1.45-.47-2.93-.89-4.42-1.21-1.28-.27-2.59-.44-3.9-.52-1.3-.08-2.57-.38-3.9-.21-2.57,.32-5.09,.73-7.1,2.54-2.12,1.91-3.14,4.29-2.87,7.19,.12,1.32,.07,2.66,.27,3.98l53.11-3.99Z"/>
    <path d="M65.36,152.26c2.13,.25,4.27,.48,6.41,.33,3.74-.27,7.32-1.26,10.73-2.78,2.11-.94,3.89-2.29,4.54-4.73,.2-.74,.22-1.48,.11-2.17-.46-2.94-1.9-5.24-4.55-6.79-1.72-1.01-3.55-1.69-5.39-2.39-1.33-.5-2.56-1.17-3.81-1.83-2.01-1.06-3.88-2.39-5.98-3.29-3.13-1.34-6.63-.39-8.8,2.12-1.94,2.25-3.33,4.84-5.12,7.17-.96,1.25-1.91,2.46-3.14,3.45-.52,.42-1.02,.91-1.31,1.55-.63,1.38-.17,3,1.21,4.25,1.35,1.22,2.97,2,4.6,2.76,2.39,1.12,4.96,1.55,7.53,2.03,.96,.18,1.9,.31,2.87,.32h.09Z"/>
    <path d="M105.15,78.54c-1.39,1.8-3.03,3.24-5.22,3.97-2.02,.67-4.1,.96-6.14,.32-3.9-1.22-6.03-3.5-6.36-7.52-.3-3.58,.6-6.86,3.92-9.02,2.41-1.57,4.99-2.2,7.8-1.61,1.46,.3,2.93,.65,4.09,1.78,.92,.9,1.72,1.88,2.45,2.92,0,0,1.3-1.44,2.14-2.01,.83-.56,1.79-.95,2.84-.89,2.19,.14,4.21,.74,5.8,2.34,1.97,1.97,2.74,4.58,1.39,7.27-1.07,2.15-2.83,3.49-5.12,4.05-2.38,.59-4.53,0-6.31-1.72-.34-.33-.84-.6-.79-1.21,0,0-.31,1.08-.5,1.32Z"/>
  </g>
  <g class="skinOverlapLine">
    <path d="M160.41,161.62c.52,.61,.85,.8,1.21,.95,.71,.31,1.1,.4,1.82,.69"/>
    <path d="M149.84,158.76c-.6,.56-1.31,.52-1.99,.43-.23-.03-.64-.23-.87-.26"/>
    <path d="M148.72,150.09c.7,.3,1.16,.45,1.47,1.3"/>
    <path d="M105.72,69.31c1.05,2.52,1.06,5.46,.01,7.98"/>
    <path d="M123.41,154.25c-.85,.43-1.76,.72-2.69,.95-1.73,.43-3.32-.21-4.94-.61-1.73-.43-3.29-1.27-4.85-2.09-.56-.29-1.06-.72-1.56-1.12-.22-.17-.43-.26-.7-.25"/>
    <path d="M128.44,171.49c-1.57-.32-3.5,.19-4.85,.88-1.82,.93-3.59,1.95-5.39,2.91-1.51,.8-3.16,1.36-4.75,2.02"/>
    <path d="M65.45,223.65c-1.02,1.54-1.61,3.24-2,5.02"/>
  </g>
  <path class="flatChartreuseMedium" d="M196.11,239.84c-3.73-1.1-7.48-2.11-11.26-3.02-4.46-1.08-8.94-2.04-13.43-2.93-6.78-1.33-13.59-2.45-20.45-3.29-5.25-.64-10.51-1.2-15.77-1.73-2.36-.24-4.74-.29-7.1-.45-2.34-.16-4.68-.36-7.02-.51-1.67-.11-3.35-.21-5.03-.26-2.28-.06-4.56-.03-6.84-.1-4.24-.15-8.49-.28-12.74-.24-3.12,.02-6.24,.07-9.36,.18-2.45,.08-4.91,.07-7.36,.19-2.14,.11-4.28,.19-6.42,.47-.91,.12-1.85,.11-2.77,.14-1.42,.05-2.83,.16-4.24,.26-1.94,.14-3.88,.16-5.81,.46-1.4,.21-2.83,.2-4.24,.38-1.82,.24-3.65,.38-5.47,.65-1.87,.27-3.75,.52-5.63,.71-2.53,.26-5.03,.69-7.53,1.09-3.83,.61-7.64,1.37-11.45,2.1-4.89,.94-9.74,2.07-14.54,3.37-3.7,1-7.38,2.1-11.01,3.34v20.07H196.11v-20.88Z"/>
</svg>