<svg viewBox="0 0 218.19 290.59">
  <rect class="whiteMediumLight" x=".5" y=".5" width="217.19" height="289.59"/>
  <path class="dullRedDark" d="M.5,125.62v41.48c62.96,49.55,163.22,74.71,217.19,38.3v-53.26C172.03,192.69,65.15,176.74,.5,125.62Z"/>
  <g class="dullIndigoDark">
    <path d="M158.12,.5C150.6,48.79,60.29,60.49,.5,26.28v24.45C108.35,126.81,216.06,88.37,195.66,.5h-37.53Z"/>
    <path d="M210.32,.5C232.54,108.65,104.15,148.5,.5,71.93v27.16c70.96,61.69,183.84,75.8,217.19,26.99V.5h-7.37Z"/>
    <path d="M.5,189.36v21.83c51.03,40.8,165.3,88.39,217.19,59.37v-45.11c-50.97,35.1-167.54,8.27-217.19-36.09Z"/>
    <path d="M.5,229.14v23.1c11.88,12.19,34.21,28.48,51.71,37.86H120.35c-44.65-6.38-84.8-27.55-119.85-60.95Z"/>
  </g>
  <path class="blackMedium" d="M155.38,214.38l-91.04,.62c0,9.34,.01,18.69-.02,28.03,0,1.25,.34,2.45,.32,3.7,0,.85,.06,1.69,.14,2.54,.2,2.08,.39,4.16,.46,6.24,.05,1.64-.01,3.29,.11,4.93,.11,1.52,.22,3.04,.39,4.55,.11,1,.09,2.07,.25,3.07,.28,1.77,.19,3.56,.54,5.33,.23,1.15,.19,2.37,.45,3.53,.34,1.53,.39,3.09,.57,4.63,.34,2.89,.91,5.72,1.55,8.55h81.51c.29-.88,.47-1.8,.66-2.7,.3-1.45,.54-2.93,.86-4.37,.45-2.05,.78-4.12,1.15-6.18,.35-1.93,.6-3.89,.83-5.85,.23-1.98,.55-3.94,.67-5.93,.18-2.83,.49-5.65,.67-8.47,.14-2.26,.17-4.52,.24-6.78,.1-3.06-.3-6.11-.31-9.17,0-8.75,0-17.51,0-26.26Z"/>
  <path class="pantsDisplayLine" d="M103.18,231.63c-.45,1.94-.26,4.52,0,6.46,.27,2.01,.36,4.01-.02,6.01-.4,2.14-.8,4.28-.93,6.47-.12,2.03-.11,4.04,.42,6,.4,1.5,.65,3.03,.88,4.55,.1,.65,.03,1.34-.07,2-.19,1.3,.09,2.54,.4,3.77,.2,.8,.67,1.49,.96,2.25,.33,.86,.73,1.62,1.42,2.22"/>
  <g class="pantsOverlapLine">
    <path d="M113.49,268.91c-.85,1-3.77,1.72-5.24,2.07-2.45,.58-4.88,.71-7.33-.12-.58-.2-1.18-.36-1.76-.57"/>
    <path d="M106.17,271.33c-.15,1.5,.38,4.71,.45,6.74,.07,2.05,.02,4.11,.01,6.16,0,1.49,.04,2.98,.22,4.47,.05,.45-.04,.92-.06,1.38"/>
  </g>
  <g class="skinGallic">
    <path d="M89.76,113.95c0-3.23,.05-10.72,.33-11.07,1.05-1.37,1.6-7.59,.92-10.96-.74-1.81-7.94-8.34-10.18-10.32l-1.23-23.26c3.39-2.36,37.47-25.77,37.97-25.19,1.77,2.03,18.75,21.87,18.63,22.34-.59,2.29-3.84,13.35-3.85,13.48-.2,1.7,.38,3.69,.36,5.39-.02,1.46,.13,2.93,0,4.39-.14,1.63-.38,3.26-.77,4.85-.47,1.92-1.15,3.77-2.02,5.57-1.22,2.52-2.77,4.78-4.64,6.85-.91,1.01-2.16,1.91-3.25,2.65-.14,5.22,.11,10.25,.08,15.44l-32.35-.15Z"/>
    <path d="M156.31,242.11c-.24,1.12-.67,2.17-1.08,3.23-.1,.25-.31,.46-.31,.46-.74-.21-1.53-.32-2.23-.63-2.42-1.11-4.84-2.23-7.1-3.67-2.26-1.43-4.57-2.78-6.46-4.71-.78-.79-1.72-1.43-2.23-2.46,0,0,2.99-2.56,4.23-3.55l15.18,11.33Z"/>
    <path d="M78.61,233.92c.42,.34,.6,1.65,.6,1.65-1.34,.94-2.73,1.81-3.92,2.93-1.7,1.61-3.58,3.02-5.12,4.82-1.15,1.34-2.54,2.49-3.83,3.72,0,0-1.47-1.19-2.17-1.92-1.09-1.14-2.26-2.22-3.21-3.49,7.92-7.77,17.09-8.16,17.64-7.71Z"/>
  </g>
  <path class="skinOverlapLine" d="M98.54,95.15c1.85,2.19,4.19,3.72,6.86,4.68,2.35,.85,4.8,1.4,7.31,1.39,1.96,0,5.14-.59,7-1.23"/>
  <path class="dullOrangeMedium" d="M142.69,106.15c-1.23-.67-2.35-1.56-3.56-2.28-1.79-1.06-3.74-1.78-5.69-2.48-2.26-.81-4.61-1.35-6.94-1.89-1.04-.24-2.11-.4-3.15-.66-.71-.18-1.31-.36-1.87,.23-.06,.02-.75,.46-1.06,.55q-.69,.39-.54,.93c-.03,1.56,.16,3.09,.42,4.63,.14,.82-.33,1.76-.9,2.35-1.26,1.3-2.73,2.36-4.36,3.2-1.68,.87-3.52,1.17-5.33,1.5-2.31,.42-4.65,.37-7.01,.06-1.72-.22-3.36-.66-4.92-1.36-1.57-.7-3.07-1.52-4.25-2.83-1.36-1.52-2.08-3.3-2.33-5.32-.11-.87,.12-1.7,.1-2.54l-.15,.15c-.51-.12-.97,0-1.47,.13-1.96,.51-3.88,1.13-5.77,1.87-1.84,.71-3.71,1.36-5.54,2.1-1.13,.45-2.27,.89-3.31,1.53-.96,.59-4,2.88-4.93,3.54-1.2,.85,2.89,112.54,3.15,112.91,.91,1.31,2.22,2.15,3.46,3.1,1.61,1.23,3.4,2.07,5.25,2.84,2.04,.85,4.16,1.46,6.32,1.81,2,.32,3.98,.75,6,1,2.62,.33,5.23,.45,7.86,.48,.44,0,.89-.14,1.3-.05,.74,.17,1.49,.15,2.24,.22,1.14,.11,2.26-.06,3.39-.06,1.1,0,2.21,.03,3.31-.02,3.85-.15,7.71-.05,11.55-.54,1.69-.22,3.4-.32,5.08-.62,1.97-.35,3.86-.99,5.77-1.56,1.84-.55,3.52-1.39,5.1-2.51,1.31-.93,2.07-2.3,3.12-3.43,.17-.18,.83-116.35-.35-116.99Z"/>
  <path class="shirtCreaseLine" d="M76.3,219.05c2.06,1.35,4.92,2.51,7.24,3.3,1.58,.55,3.2,1.04,4.83,1.45,1.36,.34,2.74,.53,4.1,.86,.55,.14,3.68,.38,4.61,.65,.54,.16,4.09,.31,5.31,.5,1.57,.25,5.83,.26,6.4,.27,2.78,.07,5.54-.34,8.32-.24,1.6,.06,3.19-.16,4.78-.18,1.48-.02,2.93-.23,4.39-.32,1.62-.1,3.2-.53,4.78-.95,1.52-.4,2.95-1.03,4.38-1.65,1.53-.67,2.14-.87,3.4-1.99"/>
  <path class="hairDarkBrown" d="M101.62,58.96c-.22,.19,.54,.77,.54,.77,.22,.22,.51,.14,.77,.15,.76,.02,1.27-.48,1.76-.93,1.29-1.18,2.04-2.76,2.92-4.23,.99-1.64,1.55-3.47,1.94-5.35,.43-.1,.63,.05,.62,.51-.03,.87,.05,1.73-.11,2.63-.28,1.52-.72,2.95-1.43,4.3-.28,.54-.15,.8,.47,.86,.33,.03,.59-.09,.85-.24,.72-.44,1.39-.94,1.94-1.6,.37-.45,.76-.35,.97,.23,.17,.44,.5,.48,.86,.53,.56-.22,.7-.9,1.23-1.2l.57,.94c.51-.19,.9-.45,1.12-.89,.6-1.28,1.27-2.53,1.75-3.86,.54-1.47,1.09-2.93,1.29-4.53,.19-1.5,.35-2.97,.14-4.48-.06-.42-.37-.85-.1-1.31,0,0,.94,.56,1.65,1.04,1.81,1.23,3.29,2.78,4.66,4.44,1.11,1.35,1.86,2.93,2.41,4.61,.44,1.34,.6,2.69,.54,4.09-.02,.51-.38,1.03,0,1.54l.02,.53c.08,.22,.3,.39,.59,.32,.61-.14,1.12-.49,1.61-.85v.08c.52,.74,1.01,.88,1.85,.54l-.08,.23c.33,.9,.25,1.85,.3,2.77,.12,2.31-.28,4.59-.67,6.86-.04,.24-.33,1.15-.09,1.38,0,0,1.99-1.88,2.73-2.9,.5-.69,.98-1.38,1.46-2.09,1.13-1.66,2.02-3.44,2.56-5.34,.55-1.92,.7-3.91,.66-5.92-.05-2.26-.74-4.34-1.73-6.3-.94-1.86-2.49-3.36-3.14-5.4-.2-.61-.78-1-1.05-1.55-.72-1.45-1.72-2.67-2.88-3.75-1.5-1.39-3.28-2.38-5.08-3.31-.84-.43-1.71-.86-2.62-1.06-1.42-.31-2.91-.32-4.31-.8,0,0-.32-.02-.46-.08-1.56-.67-3.23-1.01-4.86-1.43-1.52-.39-3.08-.65-4.69-.36-1.11,.2-2.27,.09-3.38,.28-1.5,.25-2.99,.6-4.47,.99-1.4,.37-2.79,.64-4.24,.61-.41,0-.83,.1-1.23,.16-2,.33-3.87,1.07-5.7,1.9-3.38,1.54-6.02,3.9-8.2,6.9-1.22,1.67-1.98,3.51-2.79,5.35-.65,1.49-1.14,3.06-1.62,4.62-.23,.76-.35,1.58-.39,2.38-.06,1.51-.09,3.03,.01,4.54,.06,.87,.34,1.73,.46,2.62,.06,.44,.06,.88,.1,1.32,.12,1.48,.12,2.98,.18,4.46,.07,1.67,.26,3.34,.2,5.01-.07,1.98,.09,3.97-.27,5.93-.28,1.49-.05,2.98,.13,4.47,.18,1.5,.72,2.84,1.41,4.16,.5,.96,1.23,1.76,1.96,2.51,1.23,1.27,2.57,2.49,4.15,3.31,1.54,.8,3.21,1.33,4.84,1.94,.27,.1,.61,.01,.92,.01,0,0,.05-1.32-.14-2.16-.45-1.94-.98-3.84-1.71-5.7-.1-.26-.11-.56-.53-.63-2.83-.48-4.08-1.82-4.67-4.38-.2-.87-.38-1.75-.64-2.61-.48-1.58-1.38-5.16-1.38-5.16-.19-2.03,.39-3.82,1.68-5.47,.96,1.22,2.09,2.22,2.65,3.69,.45,1.19,.65,2.44,.93,3.67,.43,0,.5-.29,.66-.43,.41-.36,.67-.4,.79,.24,.03,.14,.19,.26,.3,.39,0,0,1.16-.74,1.52-1.4,.13-.24,.2-.4,.48-.37,.32,.03,.37,.85,.39,1,.07,.66,.57,.94,1.06,.53,.6-.51,1.29-.97,1.48-1.83,.17-.77,.54-1.46,.91-2.16,.89-1.69,1.85-3.35,2.32-5.23,.33-1.31,.8-2.58,1.01-3.93,.09-.6,.56-.9,1.14-1,.2-.03,2.51-.64,3.16-1.46l-.93,1.39Z"/>
  <g class="hairOverlapLine">
    <path d="M119.65,41.24c-1.22-1.09-2.64-1.87-4.08-2.62-.22-.12-.46-.21-.69-.31"/>
    <path d="M81.91,62.81c.1,.8,.64,1.4,1.01,2.07,.21,.37,.55,.67,.83,1.01"/>
  </g>
  <g class="dullBlueDarkest">
    <path d="M75.82,225.16c.75-1.47,.59-3.07,.52-4.62-.07-1.62-.34-3.23-.36-4.85-.01-.92-.31-1.8-.35-2.7-.03-.74-.06-1.49-.11-2.23-.15-2.08-.27-4.16-.39-6.24-.05-.79-.02-1.59-.09-2.39-.19-2.16-.37-4.32-.63-6.47-.07-.54-.08-1.09-.1-1.62-.04-.98-.13-1.96-.22-2.92-.27-2.8-.05-5.61-.41-8.4-.18-1.37-.01-2.77-.08-4.16-.07-1.51-.25-3.02-.18-4.54,.16-3.35-.22-6.68-.45-10.01-.12-1.79-.16-3.59-.24-5.39-.11-2.26-.21-4.52-.35-6.78-.06-1.02,.09-2.05-.03-3.08-.37-3.12-.47-6.26-.64-9.39-.18-3.34-.48-6.67-.51-10.01-.01-1.51,.03-3.03,.07-4.54,.03-.92,.05-1.85,.16-2.77,.2-1.72,.29-3.45,.65-5.17,.27-1.28,.5-2.57,.81-3.84,.24-.99,.48-1.97,.81-2.94,.46-1.32,1.14-2.47,2.02-3.55,.47-.57,1.11-.89,1.64-1.36,.32-.29,.65-.55,.6-1.01-.05-.49-.5-.42-.83-.56-1.77-.77-3.38-.33-4.93,.57-.65,.38-1.38,.58-1.94,1.14-.55,.55-.83,1.21-.99,1.93-.28,1.27-1.04,2.12-2.23,2.62-1.42,.6-2.46,1.69-3.37,2.86-1.14,1.47-2.18,3.02-3.02,4.69-.92,1.85-1.69,3.77-2.14,5.78-.46,2.06-.76,4.15-1.09,6.23-.3,1.9-.43,3.82-.84,5.7-.4,1.79-.81,3.58-1.06,5.39-.23,1.62-.6,3.22-.84,4.84-.23,1.57-.35,3.15-.7,4.71-.2,.9-.15,1.85-.26,2.77-.18,1.44-.39,2.88-.61,4.31-.41,2.68-.71,5.38-1.38,8.01-.49,1.93-1.38,3.74-1.77,5.7-.32,1.65-.4,3.31-.35,5.01,.05,1.95,.05,3.92-.35,5.85-.35,1.68-.33,3.38-.3,5.08,.02,1.03-.11,2.06,.07,3.08,.2,1.17,.1,2.36,.24,3.55,.14,1.11,.28,2.25,.28,3.38,0,1.45,.43,2.86,.32,4.31-.17,2.41,0,4.8,.46,7.16,.26,1.34,.53,2.68,.85,4,.36,1.45,.54,2.94,.87,4.4,.17,.78,.22,1.63,.29,2.45,.14,1.69,.18,3.39,.24,5.08,.07,1.83,.69,3.54,1.35,5.24,.95,2.44,2.31,4.67,3.34,7.07,.74,1.73,2.65,6.38,3.15,6.77,.47,.37,1.45,.08,2.14-.69,1.13-1.25,2.48-2.23,3.87-3.14,3-1.96,6.26-3.41,9.63-4.6,.65-.23,1.38-.31,2.06-.51,.78-.22,1.05-.92,.61-1.6-.31-.48-.51-1.02-.85-1.46-.65-.83-.8-1.84-1.17-2.77-.43-1.09-.9-3.4-.9-3.4Z"/>
    <path d="M137.05,102.86c.31-.64,1-.68,1.55-.91,1.3-.53,2.7-.78,4.07-.44,.91,.23,1.74,.19,2.63,.05,1.15-.18,2.23,.03,3.24,.67,.76,.47,1.04,1.22,1.36,1.95,.12,.26,.24,.39,.48,.45,1.13,.32,2.01,.95,2.71,1.91,.5,.69,.76,1.53,1.31,2.16,1.21,1.39,2.44,2.76,3.54,4.24,.94,1.28,2.13,2.42,2.88,3.8,1.1,2.04,2,4.19,2.83,6.36,.57,1.48,.78,3.04,1.21,4.55,.46,1.62,.94,3.23,1.36,4.86,.41,1.6,.93,3.14,1.65,4.61,0,0,.01,.67,.1,.83,.75,1.35,1.17,2.85,1.97,4.18,2.33,3.85,3.64,8.12,4.82,12.41,.82,2.95,1.62,5.9,2.23,8.92,.51,2.55,1.06,5.09,1.58,7.63,.39,1.91,.33,3.85,.55,5.78,.18,1.58-.02,3.15-.15,4.7-.12,1.59-.41,3.18-.56,4.78-.21,2.22-.5,4.43-.92,6.62-.51,2.63-1.46,5.12-2.36,7.64-.59,1.66-1.29,3.31-1.38,5.15-.07,1.34-.46,2.67-.74,4.01-.16,.77-.23,1.55-.36,2.32-.28,1.66-.64,3.29-1,4.93-.43,1.93-1.1,3.78-1.8,5.61-.37,.97-.79,1.94-1.31,2.85-1.16,2.02-1.9,4.17-2.22,6.48-.29,2.04-1.2,3.85-2.32,5.53-.55,.82-1.13,1.62-1.58,2.49-.85,1.62-2.3,2.62-3.61,3.8-1.2,1.08-2.3,.63-3.32,.02-2-1.18-4-2.39-5.8-3.89-1.54-1.28-3.06-2.57-4.47-4-1.23-1.25-3.57-4.04-3.61-4.1q-.79-1.16,.15-2.23c.24-.28,.63-.62,.62-1.08,0,0-1.26-.32-1.92-.7-.82-.47-1.41-1.15-1.46-2.15-.06-1.23-.06-2.46-.08-3.7-.03-1.33-.01-2.67-.09-4-.1-1.85-.09-3.7,0-5.55,.05-1,.23-2.01,.13-3-.21-2.19,.04-4.37,.07-6.55,.04-3,.02-6.01,.07-9.01,.03-1.44,.15-2.87,.18-4.31,.03-1.3,.2-2.62,.38-3.93,.28-2.04,.37-4.11,.62-6.16,.23-1.91,.31-3.85,.39-5.77,.02-.55,.22-1.07,.17-1.62-.1-1-.08-2.02-.03-3,.15-2.82,.23-5.65,.34-8.47,.06-1.44,.03-2.88,.17-4.31,.31-3.05,.37-6.11,.51-9.17,.09-2.02,.02-4.06,.02-6.08s.02-3.9,0-5.85c-.02-1.34-.16-2.67-.13-4,.02-1.08,.08-2.17,.01-3.23-.13-2.06-.14-4.11-.18-6.16-.05-2.54-.09-5.08-.07-7.62,.01-2.15-.1-4.29-.55-6.39-.25-1.16-.65-2.25-1.45-3.16-.74-.85-2.39-1.69-2.39-1.69Z"/>
  </g>
  <g class="hoodieOverlapLine">
    <path d="M154.77,224.85c2.08-.76,4.35-1.72,6.01-3.23,1.12-1.02,2.07-2.17,2.68-3.55,.76-1.75,.47-3.58,.24-5.39-.18-1.42-.42-2.82-.6-4.24-.09-.71,.04-1.49-.19-2.14-.44-1.27-.31-2.59-.58-3.86-.19-.91-.14-1.87-.29-2.76-.21-1.26-.15-2.53-.38-3.79-.24-1.31-.18-2.67-.31-4-.27-2.82-.44-5.65-.63-8.47-.14-2.08-.24-4.16-.39-6.24-.09-1.26-.3-2.51-.36-3.78-.02-.6-.23-1.17-.17-1.77,.16-1.59-.29-3.12-.37-4.7-.05-1.07-.18-2.17-.41-3.24-.18-.86-.21-1.74-.24-2.62-.01-.36-.2-.72-.21-1.08-.05-1.94-.45-3.85-.67-5.77-.21-1.85-.32-3.7-.31-5.55,0-1.52-.21-3.02-.21-4.54,0-1.57-.34-3.12-.41-4.7-.03-.74-.05-1.5-.07-2.24-.03-.78-.2-1.53-.19-2.31,.03-2.19-.08-4.37-.29-6.55-.29-2.87-.54-5.75-.77-8.63-.17-2.12-.56-4.21-.86-6.31-.15-1.03-.38-2.05-.53-3.08-.18-1.23-.61-2.44-1.01-3.62"/>
    <path d="M62.04,115.18c-.91,2.54-1.04,5.19-1.17,7.85-.08,1.64-.26,3.29-.4,4.93-.13,1.52-.15,3.03-.28,4.55-.24,2.69,.05,5.39-.14,8.09-.23,3.28-.4,6.57-.63,9.86-.24,3.42-.52,6.83-.76,10.24-.08,1.08-.06,2.16-.22,3.24-.04,.23-.17,1.29-.17,1.62,0,3.48,.26,6.94,.52,10.4,.13,1.84,0,3.7-.17,5.55-.09,.96,.02,1.95-.04,2.92-.11,2.18-.1,4.38-.34,6.54-.25,2.21-.34,4.42-.26,6.63,.08,2.05,.22,4.11,.21,6.16-.01,1.59,.12,3.21-.12,4.77-.28,1.82-.26,3.67-.66,5.49-.18,.82-.53,1.75-.17,2.69,.13,.35-.02,.81-.05,1.22-.18,2.01,.58,3.7,1.77,5.24,.81,1.04,1.8,1.84,3.08,2.23,1.07,.33,2.15,.35,3.23,.08"/>
    <path d="M75.75,225.32c-2.95,2.72-6.51,3.26-10.32,2.93"/>
    <path d="M142.44,228.55c1.42,.08,2.31,.52,3.69,.79,1.61,.31,3.14,.94,4.7,1.45,.28,.09,.88,.21,1,.53"/>
  </g>
  <g class="hoodieDisplayLine">
    <path d="M157.54,223.77c.59,.69,1.45,1.02,2.18,1.51,1.17,.8,2.22,1.73,3.29,2.65,1.22,1.04,2.33,2.18,3.08,3.62"/>
    <path d="M58.03,221.77c-1.53,.89-3.31,1.77-4.7,3.15-.15,.16-.35,.36-.53,.54"/>
  </g>
  <path class="hoodieFoldLine" d="M168.78,173.56c-1.16,.21-2.28,.55-3.39,.92-1.66,.55-3.6,1.15-5.01,2.24"/>
  <g class="zipperDisplayLine">
    <path d="M69.74,105.94c-.33,1.47-1.07,2.83-1.76,4.17-.47,.92-1.29,1.56-1.79,2.45-1.11,1.98-1.64,3.97-.88,6.26,.32,.97,.75,1.97,.67,3.07-.1,1.33-.45,2.55-1.07,3.74-.81,1.54-1.42,3.17-1.39,4.96,0,.59,.04,1.22,.24,1.76,.79,2.12,.81,4.3,.48,6.47-.15,1.03-.39,2.11-.78,3.07-.57,1.4-.4,2.79-.32,4.17,.09,1.56,.33,3.12,.78,4.61,.39,1.3,.52,2.62,.71,3.94,.16,1.12-.14,2.26-.28,3.38-.14,1.14-.52,2.22-.86,3.31-.55,1.72-.41,3.37,.25,5.01,.63,1.56,1.13,3.19,1.19,4.85,.07,1.74-.16,3.48-.73,5.16-.6,1.74-1.19,3.48-1.47,5.31-.14,.9-.36,1.77-.31,2.7,.07,1.28,.63,2.38,1.24,3.47,.82,1.48,1.17,3.09,1.33,4.77,.22,2.34-.51,4.46-1.35,6.54-.74,1.83-.77,3.61-.05,5.4,.7,1.72,1.24,3.47,1.45,5.32,.24,2.14-.09,4.23-.52,6.32-.25,1.21-.63,2.43-.4,3.69,.12,.64,.23,1.29,.39,1.92,.21,.88,.59,1.74,.66,2.62,.1,1.27,.54,2.56,.11,3.85"/>
    <path d="M151.99,231.32c.1-.15,.2-.31,.31-.46,1.53-2.23,2.45-4.66,2.55-7.39,.08-2.21-.48-4.27-1.41-6.23-.69-1.45-1.36-2.89-1.32-4.55,0-.3,.11-.74,.15-.93,.29-1.48,.71-2.93,.72-4.46,.02-1.75-.3-3.45-.88-5.08-.56-1.58-1.14-3.14-1.53-4.78-.39-1.67-.41-3.3,.16-4.93,.48-1.39,1.15-2.71,1.49-4.15,.15-.64,.05-1.31,.22-1.93,.44-1.61,.12-3.23-.15-4.77-.3-1.71-.95-3.39-1.43-5.09-.56-2-.33-3.96,.16-5.85,.43-1.66,1.06-3.27,1.5-4.94,.26-.97,.44-1.96,.27-2.92-.25-1.36-.65-2.69-1.06-4.01-.42-1.35-.9-2.68-1.38-4.01-.33-.9-.48-1.84-.6-2.78-.2-1.58-.26-3.17,.36-4.7,.43-1.06,.75-2.17,.84-3.31,.21-2.62,.12-5.23-.67-7.78-.7-2.26-.99-4.58-.68-6.93,.22-1.68,.56-3.35,.92-5.01,.41-1.94,.14-3.83-.33-5.7-.37-1.46-1.05-2.82-1.41-4.31-.18-.73-.1-1.43-.05-2.09,.09-1.05,.47-2.09,.88-3.08,.91-2.19,1.46-2.57,.52-4.63"/>
  </g>
</svg>