<svg viewBox="0 0 218.19 290.59">
  <rect class="blackDark" x=".5" y=".5" width="217.19" height="289.59"/>
  <path class="blackLight" d="M170.56,144.99c.14-.61-.13-1.18-.17-1.77-.09-1.54,.63-3.85,.63-3.85-.46-.15-.92-.32-1.39-.46-.92-.27-1.38-1.18-.91-2,.72-1.27,.6-2.59,.38-3.93-.31-1.87-.21-3.63,.99-5.25,1.08-1.46,2.56-1.77,4.32-.98,1.57,.7,2.24,2.18,2.87,3.67,.58,1.37,.94,2.86,1.98,4.01,.83,.91,.77,1.7-.15,2.54-.23,.21-.46,.41-.69,.62l.15,.39c1.42,1.16,2.24,2.71,2.85,4.39l-10.86,2.62Z"/>
  <g class="skinAshkenazi">
    <path d="M138.75,168.48c1.55-.22,3.04-.69,4.54-1.08,2.56-.66,5.12-1.33,7.78-2.02,.21-.94,.31-2.02,.19-3.06-.13-1.23-.14-2.47-.39-3.71-.29-1.41-.71-2.76-1.28-4.07-1-2.3-2.8-3.93-4.7-5.46-.41-.33-.71-.89-1.38-.78l-4.78,20.18Z"/>
    <path d="M13.88,104.77c.11,.8,28.54,62.22,29.29,63.85,.14,.31,19.76-1.07,20.94-1.08,0,0,.69,1.98,.92,2.77,.46,1.54,1.91,18.62,2.23,19.14,1.96-1.69,49.54-42.49,50.91-43.66-.06-.1-27.55-107.74-27.96-109.87-.12-.62-75.9,18.21-77.01,18.71,0,0,.57,49.43,.67,50.13Z"/>
    <path d="M141.67,139.06c-1.11,.73-1.39,1.92-1.69,3.08-.31,1.22,.11,2.37,.37,3.54,.22,1-13.95,6.95-17.39,7.82-4.54-17.86-1.47-31.67-6.02-49.57,15.31-3.89,22.92-11.78,38.18-15.66,.02,.27,6.61,25.78,7.89,30.75,.09,.34-12.84,21.8-13.43,21.7-1.18-.21-7.92-1.67-7.92-1.67Z"/>
  </g>
  <g class="skinOverlapLine">
    <path d="M106.09,131.12c-.44,2.74-1.57,4.26-3.01,6.54-1.18,1.86-2.47,3.67-4.03,5.21-1.49,1.48-2.95,3-4.55,4.4-1.91,1.67-3.97,3.12-5.99,4.63-2.64,1.98-5.59,3.5-8.48,5.06-2.43,1.31-4.97,2.45-7.54,3.46-1.94,.77-3.85,1.52-5.92,1.96-1.14,.25-2.92,.24-4.08,.29"/>
    <path d="M128.89,127.43c.43,2.67,1.53,5.08,3.18,7.19,1.52,1.94,3.43,3.33,5.99,3.69,1.31,.19,2.6,.42,3.93,.21"/>
  </g>
  <g class="hairRed">
    <path d="M155.15,89.22c1.42,.63,2.92,1.13,4.15,2.09,1.86,1.46,3.76,2.9,4.79,5.14,.57,1.23,.91,2.5,.76,3.85-.21,1.94,.34,3.77,.75,5.63,.38,1.74,1.35,3.21,1.95,4.85,.54,1.48,.54,3.02,.22,4.54-.25,1.22-.78,2.33-1.43,3.4-.39,.64-.85,1.16-1.48,1.53-1.34,.77-1.9,2.02-2.16,3.47-.21,1.15-.3,2.29-.26,3.47,.04,1.07-.07,2.18-.31,3.23-.26,1.15-.3,2.33-.63,3.48-.49,1.71-1.17,3.32-2.05,4.83-.78,1.33-.97,2.73-.64,4.16,.2,.89,1.05,1.41,1.83,1.84,.21,.12,.45,.23,.69,.32,.28,.11,.65,.09,.61,.55-.04,.43-.29,.66-.69,.77-1.69,.49-3.42,.48-5.07,.04-1.82-.49-4.13-1.98-5.78-2.9-.11-.06,.38,1.04,.54,1.24,.35,.46,.48,1.06,.92,1.47,.24,.22,.45,.48,.2,.93-.25-.08-.5,0-.82-.14-1.09-.46-2.15-.93-3.15-1.57-1.94-1.24-3.76-2.62-5.14-4.48-.52-.7-1.1-1.41-1.14-2.45,.73-.13,1.44-.21,2.12-.4,2.41-.67,4.63-1.67,6.58-3.34,1.93-1.65,3.22-3.63,4.05-5.97,.56-1.58,1.27-3.07,2.2-4.49,.81-1.24,1.63-2.47,2.49-3.68,.7-.98,2.24-2.61,2.24-2.61-.21-.18-.38-.42-.62-.53-1.72-.83-3.05-2.18-4.44-3.42-1.29-1.15-2.27-2.61-3.36-3.96-1.12-1.4-2.03-2.91-2.8-4.5-1.07-2.22-2.22-4.37-3.95-6.15-.83-.85-1.66-1.69-2.8-2.25-.36,1.29-.93,2.37-1.65,3.43-1.13,1.65-2.51,2.99-4.11,4.14-2.18,1.56-4,3.38-4.7,6.09-.07,.27-.07,.62-.51,.71-1.06-.91-1.95-3.09-1.95-3.09-.66,.3-.42,1-.57,1.48-.58,1.76-1.41,3.37-2.42,4.92-.9,1.39-2.07,2.62-2.49,4.3-.36,1.43-.7,2.85-.94,4.31-.2,1.18-.21,2.36-.3,3.55-.13,1.96-.13,3.91,.17,5.85,.15,.93,.37,1.85,.53,2.77,.1,.61-.1,1.08-.76,1.23,0,0-.85,0-1.23-.16-.78-.32-1.52-.43-2.23-.77-.26-.12-8.86-30.96-8.86-30.96,.43,.23,.8-.09,1.06-.26,1.5-.92,2.93-1.97,4.08-3.3,.89-1.03,1.84-2.05,2.17-3.45l36.35-8.78Z"/>
    <path d="M107.02,97.23c-.35,.31,12.11,43.68,12.01,44.82,.06,.15-2.18,.23-2.54,0-1.36-.9-2.73-1.78-3.87-2.99-1.25-1.32-2.49-2.65-3.67-4.03-.9-1.06-1.81-2.13-2.52-3.32-.83-1.37-1.46-2.86-2.17-4.31-1.01-2.04-1.64-4.25-2.45-6.36-.89-2.3-1.44-4.68-2.09-7.03-.85-3.11-1.52-6.27-2.34-9.39-.62-2.36-.8-4.79-1.29-7.17-.22-1.07-.29-2.17-.6-3.24-.22-.76-.25-1.58-.33-2.38-.1-1.05-.19-2.12-.35-3.15-.43-2.8-1.43-8.48-1.16-8.48-.09-.54-.2-1.08-.26-1.62-.1-.83-.12-1.66-.38-2.47-.14-.45-.7-.95-1.08-.75-1.12,.6-2.37,.65-3.56,.88-2.29,.43-4.58,.91-6.93,1.05-1.78,.11-3.54,.39-5.32,.6h-.08c-1.45-.03-2.88,.17-4.31,.29-3.07,.26-6.16,.28-9.24,.24-2.66-.03-5.31-.2-7.93-.61-3.07-.48-6.19-.72-9.15-1.65-1.51-.48-3.05-.86-4.51-1.59-1.45-.72-3.16-.92-4.66-1.61-.97-.44-6.17-3.12-7-3.7-1.34-.93-2.59-1.99-3.94-2.9-2.79-1.89-5.42-4.03-8.54-5.41-.53-.23-1.04-.44-1.62-.3v.08c-.35,.97-.45,2-.52,3.01-.09,1.48-.02,2.28-.02,3.77,0,.31,.13,6.62,.14,9.55,.01,2.3,.21,4.58,.45,6.85,.16,1.47,.44,2.95,.81,4.41,.4,1.57,1.04,3.05,1.45,4.6,.23,.88,.77,1.62,1.1,2.46,1.05,2.69,2.25,5.32,3.27,8.03,.5,1.34,.86,2.74,1.22,4.14,.44,1.69,.65,3.41,1.07,5.1,.34,1.38,.54,2.82,.81,4.23,.29,1.51,.76,2.98,1.05,4.47,.28,1.47,.69,2.91,.95,4.39,.15,.88,.52,1.68,.75,2.53,.55,2.04,1.17,4.07,2,6,.75,1.73,1.58,3.44,2.46,5.12,1.21,2.32,2.65,4.48,4.07,6.67,1.45,2.24,3.15,4.29,5.21,6.03,1.06,.9,2.12,1.83,3.1,2.83,1.31,1.33,2.98,2.21,4.47,3.3,1.79,1.31,3.79,2.28,5.85,3.07,1.62,.62,3.32,1.01,5.07,1.1,.67,.03,1.33,.16,2,.18,.64,.02,1.03,.36,1.2,1.12,.19,.86,.52,1.71,.81,2.55,.22,.65,.3,2.23,.3,2.23-1.45,.8-2.98,1.4-4.54,1.93-2.36,.81-4.81,1.25-7.23,1.81-1.39,.33-4.11,.81-4.26,.63-1.38,.15-2.76,.3-4.21,.46-.1,.12-4.2,.17-5.48,0-.14,.18-2.29-.19-3.4-.29-1.62-.15-3.24-.21-4.85-.41-.84-.11-2.89-.66-2.54-.98,.46-.31,.62-.46,1.39-.92,.03-.02,1.08-.92,1.54-1.54,1.18-1.57,1.04-3.35,1.46-3.46,.07-.02-3.21,1.99-3.85,2.24-.68,.26-1.32,.6-2.01,.83-2.04,.68-4.15,.77-6.23,.37-2.98-.58-5.77-1.68-8.09-3.75-.34-.31-.59-.67-.62-1.15,.34-.19,.68-.31,1.08-.32,1.17-.05,2.28-.35,3.4-.72,2.25-.75,3.76-2.36,5.13-4.13,.72-.93,1.17-2.05,1.65-3.14,1-2.29,1.68-4.64,1.6-7.16-.04-1.25-.33-2.47-.5-3.7-.13-.98-.24-2.03-.55-2.9-.83-2.3-1.57-4.63-2.55-6.88-1.04-2.39-1.92-4.84-2.95-7.23-1.07-2.46-1.8-5.06-2.97-7.49-.11-.22-.21-.49-.25-.76-.15-1.05-.57-2.03-.95-2.99-1.1-2.79-1.87-5.66-2.2-8.64-.29-2.63-.43-5.28-.39-7.93,.05-3.21,.12-6.42,.15-9.63,.02-2.62-.06-5.24,.02-7.86,.09-2.53-.1-5.03-.25-7.55-.08-1.33-.16-2.67-.23-4.01-.03-.62,.01-2.54,.01-2.54-.17-1.67-.04-3.39-.94-4.93-.97-1.67-1.45-3.47-1.64-5.39-.14-1.42-.15-2.83,.36-4.15,.49-1.28,1.06-2.54,1.81-3.71,.96-1.51,2.23-2.7,3.7-3.7,.5-.34,1.08-.55,1.48-1.06,.89-1.12,1.58-2.37,2.38-3.55l.23-4.62c.19-1.94,.68-3.78,1.33-5.64,.93-2.69,2.56-4.86,4.31-6.97,2.06-2.48,4.61-4.43,7.3-6.17,2.96-1.91,58.07-15.73,59.6-15.62,2.08,.15,4.17,.22,6.25,.55,2.27,.37,4.56,.63,6.77,1.29,1.82,.54,3.63,1.11,5.34,2.02,.99,.53,2.08,.93,3.06,1.51,1.84,1.08,3.67,2.17,5.47,3.31,3.95,2.49,7.33,5.68,10.68,8.88,1.55,1.48,2.82,3.24,4.18,4.9,2.36,2.87,4.28,6.05,6.15,9.25,1.59,2.72,2.97,5.55,4.2,8.45,.85,2.01,1.76,4.01,2.54,6.04,.73,1.91,1.37,3.87,2.02,5.82,.72,2.15,1.57,4.26,2.03,6.49,.37,1.81,.98,3.53,1.65,5.23,.6,1.54,1.33,3.03,1.98,4.55,.46,1.08,.94,2.16,1.35,3.25,.69,1.84,1.57,3.58,2.36,5.37,.39,.87,2.09,3.45,2.53,3.85l-51.99,13.32Z"/>
  </g>
  <g class="hairOverlapLine">
    <path d="M86.14,49.1c.47,.88,.92,2.31,1.22,3.24,1.55,4.16,.59,1.69,.98,2.75,.19,.53,1.64,4.31,1.98,5.73,.53,2.2,1.06,4.32,1.5,6.54,.31,1.56,.34,3.14,.64,4.69,.17,.87,.19,2.34,.18,3.24"/>
    <path d="M133.52,100.17c-.92,1.63-2.12,4.68-2.63,6.47-.07,.25-.39,.85-.39,1.69"/>
    <path d="M15.6,60.5c-1.28-.72-2.92-1.31-4.39-1.31"/>
  </g>
  <g class="maraHeadband">
    <path d="M85.53,46.55c-1.02-2.29-2.37-4.39-3.87-6.38-1.71-2.28-3.76-4.25-5.93-6.08-1.35-1.14-2.68-2.34-4.17-3.29-3.32-2.12-6.9-3.68-10.69-4.81-3.12-.93-6.31-1.38-9.54-1.55-.78,.02-3.26-.02-4.87,.14-3.31,.33-6.45,1.21-9.55,2.35-1.31,.48-2.52,1.17-3.78,1.75-1.47,.67-2.77,1.6-4.14,2.42-2.3,1.39-4.26,3.2-6.24,5-1.06,.96-2.1,1.96-3.08,3.01-1.27,1.36-2.3,2.91-3.32,4.46-.31,.46-.84,1.69-.61,1.7,.77,0,1.62-.76,2.15-1.09,1.48-.92,2.9-1.94,4.4-2.83,3.55-2.12,7.34-3.77,11.17-5.3,2.25-.9,4.63-1.43,7-1.96,2.64-.59,5.31-.93,8.01-.99,2.06-.04,4.12,.04,6.16,.31,1.42,.19,2.84,.4,4.23,.7,2.33,.49,4.62,1.16,6.85,2,3.31,1.24,6.52,2.71,9.62,4.41,1.84,1.01,3.66,2.11,5.26,3.51,.93,.82,2.04,1.44,2.83,2.41,.7,.84,2.09,2.22,2.86,2.84,0,0-.15-1.69-.76-2.7Z"/>
    <path d="M141.13,91.92c.77-.15,4.7,.46,4.7,.46,1.39-.07,2.77,.13,4.16,.22,1.93,.13,3.77,.58,5.54,1.32,3.48,1.43,6.58,3.42,8.99,6.33,1.3,1.56,2.41,3.28,2.71,5.38,.15,1.03-.17,1.87-.87,2.25-.7-.46-.87-1.3-1.26-1.95-1.31-2.2-3.05-3.98-5.05-5.51-1.23-.95-2.54-1.85-3.93-2.53-3.34-1.63-6.83-2.51-10.62-1.98-1.59,.22-3.17,.48-4.69,.98-1.45,.48-2.85,1.11-4.24,1.76-1.47,.68-1.78,.68-3.16,1.6,.77-1.69,2.31-3.23,3.08-4l4.62-4.31Z"/>
  </g>
  <path class="dullYellowLight" d="M56.2,181.96c-.31,.53-.56,1.08-.41,1.77,.4,1.83,1.42,3.34,2.31,4.93,.88,1.57,1.77,3.14,1.44,5.09-.04,.23-4.74,43.05-4.74,43.05,.18-.32,55.07-14.18,54.92-14.71-.36-1.28-6.77-26.87-7.69-27.37-2.07-1.11-25.94-15.86-27.66-15.84-1.54,.02-3.03,.24-4.14,1.41-.7,.73-1.37,1.52-1.72,2.52-.31,.89-.7,1.75-1.07,2.62-.28,.66-11.03-3.8-11.23-3.46Z"/>
  <g class="maraDress">
    <path d="M128.43,189.35c-.1-.41-8.39-32.35-8.39-32.35-.73,.43-23.89,34.43-24.49,35.05-.4,.42-1.76,4.35-2.04,5.84-.13,.67-.44,1.34-.68,2-1.11,3.12-1.9,6.34-2.71,9.55-.45,1.82-.84,3.66-1.31,5.47-.51,1.98-.92,3.98-1.14,6.01-.03,.24-.69,2.75-.93,3.77-.29,1.25,120.59-27.81,120.15-28.41-.64-.86-1-1.87-1.49-2.8-.93-1.77-1.86-3.53-2.8-5.3-.51-.96-1.15-1.84-1.67-2.78-1.32-2.4-2.92-4.55-4.79-6.54-1.55-1.65-3.41-2.95-5.02-4.53l-62.69,15.02Z"/>
    <path d="M121.8,142.83c.16,.03,.37,.61,.54,.77,.78,.8,1.61,1.49,2.61,2.02,1.42,.74,2.94,1,4.48,1.19,1.14,.15,2.32,.24,3.46,.14,1.3-.11,2.57-.48,3.7-1.2,1.06-.67,2.19-1.27,2.83-2.4,.24-.43,.81-.69,.71-1.3l.08,.54c1.36,1.35,2.73,2.69,3.77,4.32,.79,1.24,1.34,2.55,1.25,4.08-.04,.77,.05,1.54,.06,2.31,0,.21-.39,2.61-.49,3.39-.17,1.38-.34,2.77-.52,4.15-.07,.55-.28,1.08-.45,1.62-.64,2.06-1.1,4.16-1.92,6.17-.17,.43-9.2,3.59-12.56,4.54l-7.55-30.35Z"/>
    <path d="M61.19,232.86c-.13-1.69-.13-3.39-.26-5.08-.13-1.75-.19-3.5-.4-5.24-.11-.9,.13-1.85-.05-2.77-.25-1.36-.03-2.72-.13-4.09-.12-1.66-.2-3.34-.15-5,.09-3.42,.08-6.84,.5-10.25,.2-1.6,.22-3.22,.07-4.85-.11-1.23-.76-3.34-1.44-4.31,0,0-1.08,3.48-1.82,5.25-.34,.81-.7,1.64-.9,2.52-.15,.67-.51,1.28-.75,1.93-.78,2.13-1.25,4.36-1.88,6.54-.49,1.69-.89,3.4-1.3,5.1-.34,1.4-.55,2.86-.74,4.3-.2,1.56-.57,3.08-.83,4.62-.24,1.43-.54,2.84-.62,4.31-.05,1.04-.15,2.12-.44,3.17-.31,1.15-.63,3.09-.74,4.3,0,0,11.9,.02,11.86-.46Z"/>
  </g>
  <g class="dullYellowMediumLight">
    <path d="M120.72,159.31c.15,.54-.18,.94-.38,1.39-1.07,2.47-2.17,4.92-3.56,7.23-.91,1.5-1.98,2.91-2.9,4.41-.76,1.23-1.78,2.29-2.45,3.55-1.16,2.2-2.84,4-4.26,5.99-1.32,1.84-3,3.36-4.52,5.03-1.55,1.69-3.2,3.27-4.88,4.82-2.37,2.19-4.97,4.1-7.62,5.93-.34,.24-1.26,.98-1.29,.85-.5-1.65-1.58-3.45-2.42-4.91-.94-1.63-2.02-3.19-3.15-4.7-1-1.34-2.09-2.62-3.29-3.79-1.32-1.28-2.48-2.71-3.93-3.85-.69-.54-.88-.77-1.62-1.23-1.08-.46-.77-.31-2.77-.69,0,0,2.49-2.27,3.93-3.23,1.37-.9,5.9-3.76,6.77-4.33,1.2-.78,5.07-3.26,5.78-3.76,1.4-.99,2.9-1.86,4.22-2.95,2.23-1.84,4.68-3.39,6.88-5.28,1.94-1.66,7.14-5.96,7.77-6.48,2.04-1.7,4.01-3.5,5.74-5.5,1.28-1.49,2.75-2.82,3.89-4.43l4.08,15.94Z"/>
    <path d="M56.34,181.72c.03-.13,0-.25,.07-.39,.56-1.28,1.43-2.36,2.26-3.45,1.83-2.41,3.65-4.84,5.36-7.34,.27-.4,.86-.76,.86-.76,.08,.08,1.08,3.82,1.74,5.56,.65,1.71,1.36,3.4,2.13,5.06,.27,.59,.22,1,0,1.56-.47,1.2-.74,2.46-.48,3.76,.4,1.98,.75,3.97,1.25,5.93,.51,1.99,.91,4.01,1.64,5.95,.21,.55,.65,1.15,.33,1.86-.22,.02-.38,.14-.62-.16-1.06-1.29-1.83-2.77-2.83-4.1-1.92-2.54-3.53-5.28-5.38-7.86-.75-1.04-1.53-2.08-2.36-3.04-.89-1.02-2.04-1.83-3.41-2.32-.59-.21-.56-.26-.56-.26Z"/>
  </g>
  <g class="whiteLight">
    <path d="M217.69,190.46c-1.85,.43-3.7,.85-5.54,1.28-2.26,.52-4.52,1.08-6.78,1.61-4.29,1.01-8.58,1.98-12.86,3.01-3.68,.89-7.34,1.87-11.02,2.76-4.59,1.11-9.2,2.12-13.78,3.25-7.89,1.94-15.76,3.95-23.65,5.92-5.08,1.27-10.17,2.49-15.25,3.78-4.27,1.09-8.51,2.3-12.79,3.36-3.63,.9-7.23,1.87-10.86,2.79-4.47,1.13-8.94,2.24-13.4,3.4-5.04,1.31-10.06,2.68-15.1,3.99-4.43,1.15-8.89,2.25-13.32,3.4-6.09,1.58-12.18,3.16-18.25,4.78-4.3,1.14-8.57,2.37-12.87,3.51-.58,.15-1.18,.27-1.76,.43-.51,.14-.67-.01-.78-.48-.42-1.72-.93-3.43-1.29-5.17-.49-2.38-1.09-4.72-1.63-7.08-1.75-7.7-3.71-15.35-5.56-23.02-1.56-6.46-3.28-12.88-4.82-19.34-1.87-7.85-3.91-15.66-5.88-23.48-1.45-5.76-2.95-11.51-4.47-17.25-1.53-5.77-3-11.55-4.47-17.33-.35-1.36-.7-2.72-1.07-4.07v58.69c2.53,10.11,5.04,20.22,7.54,30.33,.94,3.79,1.81,7.6,2.7,11.4,1.11,4.77,2.17,9.56,3.33,14.32,.88,3.64,1.7,7.29,2.54,10.94,.98,4.29,2.01,8.57,2.99,12.86,.82,3.56,1.6,7.13,2.39,10.7,.85,3.87,1.69,7.75,2.54,11.63,.64,2.9,1.29,5.8,1.93,8.7H60.59c.28-.08,.55-.16,.83-.23,4.03-1.14,8.07-2.24,12.1-3.36,5.26-1.45,10.51-2.93,15.78-4.33,4.39-1.17,8.78-2.35,13.17-3.55,4.69-1.28,9.39-2.47,14.09-3.71,5.29-1.39,10.57-2.79,15.87-4.15,7.65-1.97,15.3-3.92,22.95-5.85,8.11-2.05,16.22-4.09,24.34-6.08,5.12-1.26,10.27-2.41,15.4-3.63,5.45-1.3,10.89-2.61,16.33-3.93,2.08-.5,4.16-.98,6.24-1.44v-59.36Z"/>
    <path d="M217.69,56.93c-1.12-4.64-2.21-9.27-3.31-13.91-.61-2.59-1.17-5.19-1.78-7.78-1.17-5.03-2.37-10.06-3.54-15.1-.68-2.92-1.35-5.85-2-8.78-.81-3.62-1.61-7.24-2.41-10.86h-14.24c.26,1.16,.52,2.31,.78,3.47,.66,2.93,1.34,5.85,2,8.78,.72,3.18,1.43,6.37,2.16,9.55,.73,3.16,1.5,6.31,2.23,9.47,.86,3.72,1.68,7.45,2.55,11.17,.87,3.73,1.79,7.45,2.69,11.17,1,4.18,1.99,8.37,3.01,12.55,.93,3.8,1.9,7.6,2.84,11.4,2.49,10.01,4.96,20.03,7.48,30.03,.5,1.97,1.01,3.93,1.53,5.89V56.93Z"/>
    <path d="M46.12,.5c-.19,.05-.38,.09-.56,.14-4.91,1.25-9.86,2.37-14.78,3.55-3.44,.82-6.88,1.64-10.32,2.47-3.62,.87-7.24,1.75-10.86,2.62-3.03,.72-6.05,1.48-9.09,2.18v14.9c2.85-.65,5.71-1.29,8.55-1.98,4.52-1.09,9.04-2.16,13.55-3.24,2.57-.61,5.13-1.24,7.7-1.85,4.36-1.03,8.74-2.02,13.09-3.09,5.14-1.27,10.25-2.68,15.41-3.9,4.7-1.11,9.38-2.33,14.08-3.44,5.14-1.21,10.22-2.65,15.33-3.97,4-1.04,8.01-2.05,12.01-3.08,1.7-.44,3.4-.87,5.09-1.31H46.12Z"/>
    <path d="M127.81,191.27c-.18-.49-.42-.96-.53-1.47-.89-3.92-1.73-7.86-2.64-11.78-.86-3.73-1.78-7.45-2.69-11.17-.97-3.96-1.97-7.9-2.92-11.86-1.25-5.25-2.56-10.49-3.94-15.71-1.23-4.65-2.55-9.27-3.68-13.95-1.57-6.52-3.47-12.95-5.26-19.4-.83-3-1.65-6.01-2.46-9.01-.22-.8-.2-.81,.61-1,4.26-.98,8.53-1.93,12.78-2.94,2.88-.68,5.75-1.45,8.63-2.15,7.25-1.75,14.5-3.5,21.72-5.4,5.47-1.43,10.94-2.88,16.41-4.31,3.23-.85,6.48-1.67,9.7-2.55,3.83-1.05,7.65-2.15,11.48-3.23,.46-.13,.67-.08,.79,.46,.74,3.42,1.53,6.83,2.3,10.25,.95,4.24,1.86,8.48,2.86,12.71,1.11,4.66,2.3,9.3,3.46,13.94,1.13,4.52,2.24,9.04,3.39,13.55,1.1,4.29,2.25,8.58,3.38,12.86,1.13,4.26,2.22,8.53,3.4,12.78,1.16,4.2,2.4,8.37,3.61,12.56,.64,2.23,1.27,4.46,1.91,6.68-.21,.07-.37,.14-.52,.17-2.34,.54-4.66,1.13-7.01,1.61-4.69,.96-9.36,2.05-14.01,3.17-4.62,1.12-9.24,2.26-13.86,3.39-3.57,.87-7.13,1.77-10.71,2.61-5.41,1.28-10.79,2.7-16.17,4.09-5.32,1.38-10.63,2.78-15.94,4.15-1.33,.34-2.67,.62-4,.93h-.08Zm52.6-107.44c-3.33,1.02-6.72,1.82-10.09,2.69-5.52,1.44-11.04,2.89-16.55,4.35-8.27,2.18-16.6,4.16-24.88,6.29-4.12,1.06-8.25,2.08-12.4,3-1.2,.27-2.41,.51-3.62,.77-.43,.09-.61,.28-.47,.77,.97,3.38,1.91,6.78,2.86,10.16,1.87,6.67,3.56,13.38,5.25,20.1,1.1,4.4,2.34,8.77,3.45,13.18,1.53,6.1,2.99,12.22,4.48,18.33,.38,1.54,.78,3.08,1.14,4.63,.05,.23,.22,.39,.28,.67,2.57-.66,5.15-1.33,7.74-1.99,5.47-1.39,10.94-2.78,16.4-4.16,3.39-.86,6.77-1.71,10.17-2.54,6.08-1.5,12.16-2.99,18.25-4.46,4.67-1.13,9.34-2.21,14.02-3.32,.39-.09,.77-.25,1.16-.38h-.15c-.05-.26-.09-.52-.16-.77-1.3-4.91-2.57-9.82-3.91-14.72-1.41-5.16-2.7-10.36-4.02-15.55-1.1-4.36-2.17-8.72-3.24-13.09-.92-3.77-1.82-7.54-2.7-11.32-.99-4.26-1.95-8.52-2.93-12.78l-.08,.15Z"/>
    <path d="M167.24,144.37c-.39-1.67-.77-3.34-1.16-5.01-.98-4.23-2.09-8.41-3.39-12.55,.21-.24,.46-.33,.77-.41,2.1-.55,4.21-1.05,6.32-1.54,2.99-.7,5.96-1.52,8.94-2.29,.91-.24,.93-.24,1.15,.69,.63,2.62,1.2,5.24,1.86,7.85,.77,3.04,1.59,6.06,2.41,9.12-.56,.33-1.21,.29-1.8,.42-4.51,.98-8.97,2.12-13.4,3.39-.52,.15-1.01,.56-1.61,.32h-.08Zm21.1,1.69c-.42-.46-.37-1.08-.52-1.62-1.13-3.97-2.27-7.94-3.31-11.94-.77-2.93-1.4-5.9-2.09-8.85-.29-1.26-.6-2.51-.83-3.78-.11-.62-.35-.81-.94-.62-2.61,.86-5.28,1.51-7.93,2.24-2.6,.71-5.23,1.28-7.85,1.85-1.76,.38-3.5,.83-5.27,1.25,.08,.67,.3,1.25,.49,1.83,1.73,5.31,3.12,10.72,4.32,16.17,.6,2.74,1.22,5.48,1.69,8.24,.12,.68,.3,.74,1,.54,3.72-1.04,7.42-2.17,11.17-3.05,3.01-.7,6-1.5,9.08-1.89,.27-.03,.51-.2,.77-.3l.23-.08Z"/>
  </g>
</svg>