<svg viewBox="0 0 218.19 290.59">
  <rect class="dullAmberMedium" x=".5" y=".5" width="217.19" height="289.59"/>
  <g class="dullYellowLighter">
    <path d="M8.53,93.47c31.99-.74,63.94-.74,95.93,0-.75-28.33-.75-56.61,0-84.94-31.99,.74-63.94,.74-95.93,0,.75,28.33,.75,56.61,0,84.94Z"/>
    <path d="M113.81,93.47c31.99-.74,63.94-.74,95.93,0-.75-28.33-.75-56.61,0-84.94-31.99,.74-63.94,.74-95.93,0,.75,28.33,.75,56.61,0,84.94Z"/>
    <path d="M8.53,187.77c31.99-.74,63.94-.74,95.93,0-.75-28.33-.75-56.61,0-84.94-31.99,.74-63.94,.74-95.93,0,.75,28.33,.75,56.61,0,84.94Z"/>
    <path d="M113.89,187.77c31.99-.74,63.94-.74,95.93,0-.75-28.33-.75-56.61,0-84.94-31.99,.74-63.94,.74-95.93,0,.75,28.33,.75,56.61,0,84.94Z"/>
    <path d="M8.53,282.06c31.99-.74,63.94-.74,95.93,0-.75-28.33-.75-56.61,0-84.94-31.99,.74-63.94,.74-95.93,0,.75,28.33,.75,56.61,0,84.94Z"/>
  </g>
  <g class="whiteLight">
    <path d="M120.28,181.2c27.57-.45,55.11-.45,82.68-.01-.37-19.88-.45-39.75-.23-59.63-27.41,.29-54.81,.29-82.22,0,.22,19.89,.15,39.76-.23,59.65Z"/>
    <path d="M15,275.5c27.57-.45,55.11-.45,82.68,0-.37-19.88-.45-39.75-.23-59.63-27.41,.29-54.81,.29-82.22,0,.22,19.89,.15,39.76-.23,59.65Z"/>
  </g>
  <g class="flatRedMedium">
    <path d="M30.3,86.62c22.46-.18,44.91-.09,67.38,.28-.31-16.69-.42-33.37-.34-50.06-22.28,.14-44.55,.18-66.82,.11,.05,16.56-.02,33.11-.21,49.67Z"/>
    <path d="M135.51,86.62c22.49-.18,44.97-.09,67.45,.28-.31-16.69-.42-33.37-.34-50.06-22.3,.14-44.6,.18-66.9,.11,.05,16.56-.02,33.12-.21,49.67Z"/>
    <path d="M97.68,181.19c-22.47-.36-44.94-.46-67.41-.28,.19-16.54,.26-33.08,.21-49.62,22.29,.07,44.57,.03,66.86-.11-.08,16.67,.03,33.33,.34,50Z"/>
    <path d="M160.24,152.53c0-2.82,0-4.23,0-7.05-5.35,0-8.02,0-13.37,0,0-2.83,0-4.24,0-7.06,2.67,0,4.01,0,6.69,0,0-2.82,0-4.23,0-7.06-10.97-.03-21.95-.09-32.92-.18,.08,16.68-.03,33.34-.34,50.02,7.64-.17,11.45-.24,19.09-.34,.03-2.83,.05-4.25,.08-7.08,5.44-.05,8.16-.07,13.6-.09,.01-2.82,.02-4.23,.02-7.05-2.62,0-3.93,.01-6.55,.03,.01-2.83,.02-4.24,.03-7.06-2.56,0-3.83,.01-6.39,.03,.01-2.83,.02-4.25,.03-7.08,8.02-.02,12.04-.03,20.06-.03Z"/>
  </g>
  <g class="dullMaroonMedium">
    <path d="M97.45,27.26c-22.34,.24-44.68,.3-67.03,.18,.04,3.82,.05,5.73,.07,9.56,22.28,.07,44.56,.03,66.84-.11,.03-3.85,.06-5.78,.11-9.63Z"/>
    <path d="M202.74,27.26c-22.34,.24-44.68,.3-67.03,.18,.04,3.82,.05,5.73,.07,9.56,22.28,.07,44.56,.03,66.84-.11,.03-3.85,.06-5.78,.11-9.63Z"/>
    <path d="M97.45,121.56c-22.34,.24-44.68,.3-67.03,.18,.04,3.82,.05,5.73,.07,9.56,22.28,.07,44.56,.03,66.84-.11,.03-3.85,.06-5.78,.11-9.63Z"/>
    <path d="M202.74,121.56c-22.34,.24-44.68,.3-67.03,.18,.04,3.82,.05,5.73,.07,9.56,22.28,.07,44.56,.03,66.84-.11,.03-3.85,.06-5.78,.11-9.63Z"/>
    <path d="M97.45,215.85c-22.34,.24-44.68,.3-67.03,.18,.04,3.82,.05,5.73,.07,9.56,22.28,.07,44.56,.03,66.84-.11,.03-3.85,.06-5.78,.11-9.63Z"/>
  </g>
  <g class="dullPurpleMedium">
    <path d="M30.5,37c-6.06-.03-9.09-.06-15.15-.11-.03-3.85-.06-5.78-.11-9.63,6.08,.09,9.12,.13,15.2,.19,.04,3.82,.05,5.73,.07,9.56Z"/>
    <path d="M135.78,37c-6.06-.03-9.09-.06-15.15-.11-.03-3.85-.06-5.78-.11-9.63,6.08,.09,9.12,.13,15.2,.19,.04,3.82,.05,5.73,.07,9.56Z"/>
    <path d="M30.5,131.3c-6.06-.03-9.09-.06-15.15-.11-.03-3.85-.06-5.78-.11-9.63,6.08,.09,9.12,.13,15.2,.19,.04,3.82,.05,5.73,.07,9.56Z"/>
    <path d="M135.78,131.3c-6.06-.03-9.09-.06-15.15-.11-.03-3.85-.06-5.78-.11-9.63,6.08,.09,9.12,.13,15.2,.19,.04,3.82,.05,5.73,.07,9.56Z"/>
    <path d="M30.5,225.59c-6.06-.03-9.09-.06-15.15-.11-.03-3.85-.06-5.78-.11-9.63,6.08,.09,9.12,.13,15.2,.19,.04,3.82,.05,5.73,.07,9.56Z"/>
  </g>
  <g class="dullTurquoiseMedium">
    <path d="M30.26,86.62c-6.11,.09-9.16,.14-15.27,.28,.31-16.67,.42-33.34,.34-50.01,6.05,.05,9.08,.08,15.14,.11,.05,16.54-.02,33.08-.21,49.62Z"/>
    <path d="M135.55,86.62c-6.11,.09-9.16,.14-15.27,.28,.31-16.67,.42-33.34,.34-50.01,6.05,.05,9.08,.08,15.14,.11,.05,16.54-.02,33.08-.21,49.62Z"/>
    <path d="M30.26,180.92c-6.11,.09-9.16,.14-15.27,.28,.31-16.67,.42-33.34,.34-50.01,6.05,.05,9.08,.08,15.14,.11,.05,16.54-.02,33.08-.21,49.62Z"/>
    <path d="M135.55,180.92c-6.11,.09-9.16,.14-15.27,.28,.31-16.67,.43-33.34,.34-50.02,6.05,.05,9.08,.08,15.14,.11,.05,16.54-.02,33.08-.21,49.62Z"/>
    <path d="M30.26,275.21c-6.11,.09-9.16,.14-15.27,.28,.31-16.67,.42-33.34,.34-50.01,6.05,.05,9.08,.08,15.14,.11,.05,16.54-.02,33.08-.21,49.62Z"/>
  </g>
  <g class="dullChartreuseMedium">
    <path d="M30.52,51.18c-6.05,0-9.07,0-15.11,0,0-2.86,0-4.29-.02-7.15,6.05,.03,9.07,.04,15.12,.06,0,2.84,0,4.25,0,7.09Z"/>
    <path d="M30.48,65.36c-6.05,.04-9.08,.06-15.14,.11,.03-2.86,.04-4.29,.05-7.14,6.05-.03,9.07-.04,15.12-.06,0,2.84-.01,4.25-.03,7.09Z"/>
    <path d="M30.35,79.53c-6.08,.07-9.13,.12-15.21,.23,.05-2.86,.07-4.29,.11-7.14,6.07-.08,9.1-.12,15.17-.17-.02,2.84-.04,4.25-.07,7.09Z"/>
    <path d="M135.8,51.18c-6.05,0-9.07,0-15.11,0,0-2.86,0-4.29-.02-7.15,6.05,.03,9.07,.04,15.12,.06,0,2.84,0,4.25,0,7.09Z"/>
    <path d="M135.76,65.36c-6.06,.04-9.08,.06-15.14,.11,.03-2.86,.04-4.29,.05-7.14,6.05-.03,9.07-.04,15.12-.06,0,2.84-.01,4.25-.03,7.09Z"/>
    <path d="M135.64,79.53c-6.08,.07-9.13,.12-15.21,.23,.05-2.86,.07-4.29,.11-7.14,6.07-.08,9.1-.12,15.17-.17-.02,2.84-.04,4.25-.07,7.09Z"/>
    <path d="M30.52,145.47c-6.05,0-9.07,0-15.11,0,0-2.86,0-4.29-.02-7.15,6.05,.03,9.07,.04,15.12,.05,0,2.84,0,4.25,0,7.09Z"/>
    <path d="M30.48,159.65c-6.05,.04-9.08,.06-15.14,.11,.03-2.86,.04-4.29,.05-7.14,6.05-.03,9.07-.04,15.12-.06,0,2.84-.01,4.25-.03,7.09Z"/>
    <path d="M30.35,173.83c-6.08,.07-9.13,.12-15.21,.23,.05-2.86,.07-4.29,.11-7.14,6.07-.08,9.1-.12,15.17-.17-.02,2.84-.04,4.25-.07,7.09Z"/>
    <path d="M135.8,145.47c-6.05,0-9.07,0-15.11,0,0-2.86,0-4.29-.02-7.15,6.05,.03,9.07,.04,15.12,.05,0,2.84,0,4.25,0,7.09Z"/>
    <path d="M135.76,159.65c-6.05,.04-9.08,.06-15.14,.11,.03-2.86,.04-4.29,.05-7.15,6.05-.03,9.07-.04,15.12-.06,0,2.84-.01,4.25-.03,7.09Z"/>
    <path d="M135.64,173.83c-6.08,.07-9.13,.12-15.21,.23,.05-2.86,.07-4.29,.11-7.14,6.07-.08,9.1-.12,15.17-.17-.02,2.84-.04,4.25-.07,7.09Z"/>
    <path d="M30.52,239.77c-6.05,0-9.07,0-15.11,0,0-2.86,0-4.29-.02-7.15,6.05,.03,9.07,.04,15.12,.06,0,2.84,0,4.25,0,7.09Z"/>
    <path d="M30.48,253.95c-6.05,.04-9.08,.06-15.14,.11,.03-2.86,.04-4.29,.05-7.15,6.05-.03,9.07-.04,15.12-.06,0,2.84-.01,4.25-.03,7.09Z"/>
    <path d="M30.35,268.12c-6.08,.07-9.13,.12-15.21,.23,.05-2.86,.07-4.29,.11-7.14,6.07-.08,9.1-.12,15.17-.17-.02,2.84-.04,4.25-.07,7.09Z"/>
  </g>
  <g class="numeralDisplayLine">
    <path d="M56.6,14.07c-1.18,.07-2.3,.09-3.32,0"/>
    <path d="M56.6,22.89c-1.18-.08-2.42,.06-3.48,0"/>
    <path d="M163.87,14.61c-1.91,.08-3.8,.11-5.78,0"/>
    <path d="M163.87,22.94c-1.59-.14-3.93,.13-5.78,0"/>
    <path d="M59.51,108.54c-3.53-.02-7.09,.17-9.46,0"/>
    <path d="M59.51,117.02c-2.94-.05-6.96,.14-9.46,0"/>
    <path d="M165.18,108.38c-3.68-.02-7.26,.19-9.85,0"/>
    <path d="M163.85,116.9c-2.78,.07-6.1-.09-8.22,0"/>
    <path d="M56.29,202.49c-2.75-.1-6.14,.24-9.4,0"/>
    <path d="M53.82,211.41c-1.57,.04-3.02-.09-4.3,0"/>
    <path d="M54.88,14.13c-.16,2.36,.07,6.05-.02,8.75"/>
    <path d="M159.76,14.68c.02,3.01-.23,5.99,0,8.29"/>
    <path d="M162.55,14.67c.08,3.06-.24,5.81,0,8.21"/>
    <path d="M156.89,108.46c-.05,3.45,.19,5.47,0,8.41"/>
    <path d="M159.16,108.45c.5,2.88,1.39,5.53,2.12,8.47,.93-2.8,1.79-5.65,2.57-8.54"/>
    <path d="M51.87,108.57c.14,2.14-.04,5.56,0,8.5"/>
    <path d="M54.91,108.58c-.08,3.39-.17,6.88,0,8.45"/>
    <path d="M57.8,108.54c.03,3.17-.08,6.59,0,8.48"/>
    <path d="M48.71,202.58c.66,2.67,1.86,5.55,3.03,8.79,1.1-2.94,2.02-5.91,2.74-8.89"/>
  </g>
  <path class="dullOrangeLighter" d="M207.78,234.41c-10.28,.34-20.65,.34-30.93,0,.3,17.05,.3,34.06,0,51.11,10.28-.34,20.65-.34,30.93,0-.3-17.05-.3-34.06,0-51.11Z"/>
  <path class="dullTealLighter" d="M170.66,283.83c-19.82-.48-39.6-.48-59.43,0,.36-16.49,.39-32.93,0-49.42,19.83,.48,39.6,.48,59.43,0-.39,16.49-.36,32.93,0,49.42Z"/>
  <path class="dullMagentaLighter" d="M151.81,240.02c19.68-.48,39.3-.48,58.98,0-.25-15.19-.25-30.37,0-45.56-19.67,.48-39.3,.48-58.98,0,.25,15.19,.25,30.37,0,45.56Z"/>
  <path class="dullTurquoiseLighter" d="M115.47,237.32c10.55-.35,21.18-.35,31.74,0-.27-13.73-.27-27.37,0-41.1-10.55,.35-21.18,.35-31.74,0,.27,13.73,.27,27.37,0,41.1Z"/>
  <g class="steelMedium">
    <circle cx="99.48" cy="13.66" r="2.16"/>
    <circle cx="13.52" cy="13.66" r="2.16"/>
    <circle cx="204.76" cy="13.66" r="2.16"/>
    <circle cx="118.8" cy="13.66" r="2.16"/>
    <circle cx="99.48" cy="107.95" r="2.16"/>
    <circle cx="13.52" cy="107.95" r="2.16"/>
    <circle cx="204.76" cy="107.95" r="2.16"/>
    <circle cx="118.8" cy="107.95" r="2.16"/>
    <circle cx="99.48" cy="202.25" r="2.16"/>
    <circle cx="131.49" cy="201.36" r="2.16"/>
    <circle cx="157" cy="199.67" r="2.16"/>
    <circle cx="205.68" cy="199.67" r="2.16"/>
    <circle cx="13.52" cy="202.25" r="2.16"/>
  </g>
</svg>