<svg viewBox="0 0 122.54 515.93">
  <g class="dullPastLight">
    <path d="m49.24,41.3l-2.93,7.58c-21.53,5.86-22.56,23.08-45.81,30.31,16.19-6.72,31.86-36.86,48.74-37.89Z"/>
    <path d="m82.13,71.78l-6.37,2.93c-3.79,21.01-14.81,39.27-27.9,48.05,16.71-6.03,28.42-26.87,34.27-50.98Z"/>
  </g>
  <path class="dullPastDarker" d="m121.11,15.73c.12,4.21-4.03,8.97-10.93,11.23-2.87.94-14.24,18.29-14.41,23.69-.2,6.33-1.24,10.12-6.64,16.57-6.61,7.91-11.95,8.55-17.11,12.64-34.3,58.19-12.84,93.82-13.75,161.41-.84,62.4-40.19,110.98,5.48,183.14,9.28,14.66,28.77,40.19,26.49,53.43-20.1-10.96-32.32-28.51-43.99-41.78C-27.47,352.26,10.27,293.64,9.85,240.81c-.46-58.46-29.69-115.55,34.45-186.56-.92-7.6,2.22-13.57,10.39-20.02,5.63-4.45,10.22-7.63,18.96-8.29,5.63-.42,20.96-14.02,22.04-16.96,2.22-6,4.85-8.34,10.17-8.48,5.09-.13,5.93,4.24,8.35,6.52,2.22,2.09,6.78,5.09,6.89,8.7Z"/>
  <path class="dullPastMediumLight" d="m72.66,51.63C12.55,127.31,36.44,173.46,38.41,241.21c1.54,53-44.18,122.08,43.75,222.1,8.53,9.7,33.17,20.75,39.89,52.12-33.56-15.34-31.63-39.51-43.06-51.09-97.85-99.09-44.78-167.39-52.92-239.63-10.19-90.52,1.83-137.54,46.6-173.08Z"/>
  <g class="flatPastLight">
    <path d="m88.25,57.52c5.31-4.66,4.47-13.69-.19-14.16-1.77,1.49.84,8.38.19,14.16Z"/>
    <path d="m60.96,34.98c3.74-5.14,13.43-6.73,15-2.42-2.79,2.33-9.69.84-15,2.42Z"/>
  </g>
  <g class="serpentOverlapLine">
    <path d="m57.6,36.93c.93-.84,1.77-1.58,3.35-1.96"/>
    <path d="m86.57,61.15c.86-1.12,1.4-2.34,1.68-3.63"/>
    <path d="m117.56,16.91c-1.46-1.36-2.57-2.63-2.86-4.8"/>
    <path d="m104.86,2.95c1.14,1.69,2.76,2.76,4.73,3.4"/>
  </g>
</svg>