<svg viewBox="0 0 195.12 210.69">
  <path class="snowglobeClearest" d="M7.67,97.2c0,49.64,40.24,81,89.89,81s89.89-31.35,89.89-81S147.2,7.32,97.56,7.32,7.67,47.56,7.67,97.2Z"/>
  <path class="snowTop" d="M20.34,140.86c46.54,24.2,101.41,24.43,154.44,0-21.66,3.76-38.68,6.33-53.09,5.27-22.13-1.63-41.65-7.32-56.23-8.59-14.97-1.3-25.58-.93-45.12,3.32Z"/>
  <g class="flatFutureDarker">
    <path d="M107.5,136.86c4.84,.38,7.23,2.24,7.19,5.55-5.81,1.43-11.65,2.38-15.37,1.65-.66-2.21-.72-3.8,.21-6.71l7.97-.49Z"/>
    <path d="M87.99,138.98c3.8,1.37,6.03,2.65,6.89,6.38-6.95,2.12-10.4,1.4-16.27-2.16-.11-2.12,.79-4.22,1.62-5.56l7.75,1.34Z"/>
  </g>
  <path class="flatFutureLighter" d="M101.29,99.13c-1.41,2.84-.44,5.47,2.26,7.37s6.34,1.24,8.03-2.24c1.39-2.86,1.34-5.24-2.59-7.71-2.69-1.69-6.29-.26-7.71,2.59Z"/>
  <path class="flatFutureDark" d="M83.6,98c-1.04,3.33-.68,13.09,.74,21.81l-5.11,16.54c3.85,2.42,7.93,2.93,12.18,2.08,1.91-9.37,2.21-21.14,3.22-30.05l2.73,11.89,.48,16.67c4.21,1.25,7.98,.99,11.19-1.19-1.1-12.88-2.46-30.29-4.93-38.78l-20.49,1.04Z"/>
  <path class="flatFutureDarker" d="M92.82,65.28c-10.67,4.02-12.1,18.14-10.62,33.43,6.65,2.28,14.33,2.63,22.34-.09,1.61-6.61,2.65-28.63-3.34-33.04l-8.38-.3Z"/>
  <g class="flatFutureLighter">
    <path d="M87.02,48.95c.05,5.94,.84,11.39,6.05,13.85-.16,1.08-.38,2.17-.68,3.27,3.01,.77,5.81,.86,8.38,.3-.15-1.25-.27-2.39-.36-3.42,2.64-.38,5.3-2.83,6.49-6.01,4.06-15.49-19.79-25.07-19.88-7.99Z"/>
    <path d="M99.1,77.72c-.18,3.28,1.72,5.39,5,5.57s6.38-1.89,6.58-5.17c.23-3.84-1.49-5.91-5.61-6.27-3.27-.28-5.79,2.59-5.97,5.87Z"/>
  </g>
  <path class="flatFutureDarkest" d="M91.37,44.1c2.03,4.06,6.42,5.1,12.44,6.65,2.72,.78,3.08,3.57,3.09,6.19,6.01-6.93,3.59-14.74-.84-18.43-4.44-3.5-11.23-3.86-16.17-1.31-5.01,2.68-6.32,8.9-3.95,12.44,0,0,4.58-2.65,5.43-5.54Z"/>
  <path class="snowSide" d="M20.34,140.86c15.69,23.64,44.4,37.35,77.22,37.35s61.53-13.71,77.22-37.35c-11.16-2.67-25.04-4.17-46.1-2.72-21.51,1.77-36.77,6.92-56.02,8.63-20.38,1.82-30.89,.57-52.32-5.91Z"/>
  <path class="snowglobeClear" d="M97.56,.5c53.6,0,97.06,43.46,97.06,97.06s-43.46,87.46-97.06,87.46S.5,151.16,.5,97.56,43.96,.5,97.56,.5ZM7.67,97.2c0,49.64,40.24,81,89.89,81s89.89-31.35,89.89-81S147.2,7.32,97.56,7.32,7.67,47.56,7.67,97.2Z"/>
  <path class="snowglobeBase" d="M16.7,200.41c-.1-17.44,.74-34.24,10.63-39.25,23.09,5.96,117.39,5.96,140.47,0,9.89,5.02,10.72,21.81,10.63,39.25,0,13.03-161.73,13.03-161.73,0Z"/>
</svg>