<svg viewBox="0 0 1172.24 3158.48">
  <g class="soleWhite">
    <path d="M430.18,3074.05a166.17,166.17,0,0,1-9.5,46.64c-26,60-224.38,33.88-234.63,10.45-8.48-14.36-4.72-27.28-2-42.43Z"/>
    <path d="M735,3077c8.52,17.6,6.53,43.08-1.65,54.18-17.66,24-130.32,31.57-177.84,13-41.77-16.32-32-36.51-52.52-62-5.06-9-6.75-26.3-5.81-46.46Z"/>
  </g>
  <g class="tomerShoe">
    <path d="M396.87,3101.11c-75.93,27.74-188.63,11.1-212.78-12.4,9.32-51.05,71.15-62,86.81-144.9l126,3.92c23.22,37.18,36,82.8,33.31,126.32C420,3086.86,409.05,3096.66,396.87,3101.11Z"/>
    <path d="M541.77,3092.63c-18.56-24.36-31.45-20.9-44.62-56.91,1.37-29.25,8.29-64.62,18.51-89.95l138.38.65C673,3034.54,720.22,3046.48,735,3077,738.24,3121.35,568.16,3127.26,541.77,3092.63Z"/>
  </g>
  <path class="tomerPants" d="M183.42,1592.69c-27.86,96.21-20.25,249.63-8.39,417.73,6.7,95,23.73,165.08,28.73,216.6,2.53,26.16-7.43,50.4.28,77.69,22.39,79.25-.59,256.7,21.59,363.41,39.31,189.18-22.45,191.3,28,252.76,1.28,16.92-18.53,34.15,3.44,52.75,9.4-4.11,18.43-6.1,24.66-5,18.17-17.8,61.05-14.66,79,5.48,22.84,7.74,48.61-17.13,59.79,5.65,4.18-34.16-13.83-62.54,2.35-79.83,37.61-40.17-5.59-116.73,10.34-180.88,21.84-88-12.83-155.72,5.72-262.13,6.77-38.81-8.32-110.81,2.89-149.59,10.59-36.63,4.87-104.62,18.09-155-3.89,69.65,11.55,138,11.8,165.34.57,62.69,21,156.59,10.23,217.86-18.33,104.36,13.62,211.83-2.05,257.74-14.54,42.63,6.65,71.39,31.71,91-14.48,22.12-30.94,41.53-5.19,77.56,16.77,7.61,33.81,11.45,51.27,9.47,7.67-23.74,70-27.45,83.41-7.84,30.91,13,47.67,7.23,36.36-35.65,16.93-22.21-7.41-39.66-15.68-56.32,48.86-19.21,26.76-72.14,27-98.55,1.54-182.08,22.67-294.76,12.28-367.54-10.94-76.62,20-170.73,28.33-314.51,7.52-129.31,55.41-290-9.23-516.93Z"/>
  <path class="tomerShirt" d="M701.46,1336.05c-3.38,33.35,21.12,45.43,5.54,74.21-2.56,26.54-2.56,48.6,1.11,64.24,24.51,9.87,8.87,43.5,13.41,81.16-90.59,20.43-456.75,30-538.89,8.63-9.61-23.47,6.46-43.94,8.24-69.86-24.46-31.17-7.66-47.55-4.91-74.19,3.4-33-21.12-49.27,6-63.15.25-82.31-10.65-136.65-5.54-182.65C143,1177.3,62,1162.84,20.3,1144.53c22.54-66.55,20-113.78,31-193.83,8-58.07,59.67-117.39,116.3-131.58,69.45-17.41,129.4-52.4,186.28-63l202,3.59c22.33-2.15,42.5-5.53,56.31-12.51,14.07-32.07,34.24-11,57.87-10.17,17.49.63,27.37-22.68,37.54,1.57,25-38.33,24.8-3.13,72.5-21.12,10.43-18.57,18.41-4.23,31.29,0,7.72,2.54,17.2-19.55,28.15-1.56a89.64,89.64,0,0,0,28.15-5.48c-2.13,53.15,3.52,123.21,8.77,190.45-64.85,16-132.11,43.39-147.31,118.51C713.77,1095.38,714.89,1203.56,701.46,1336.05Z"/>
  <g class="escherLogo">
    <path class="shirtWhite" d="M330.1,1368.21q187-58,370-130.12-43.38-149.43-86.64-298.9Q430.33,1008,243.23,1063,286.58,1215.62,330.1,1368.21Z"/>
    <g class="sleeveDisplayLine">
      <path d="M536.52,1116.34c25.21,9.69,59.79-9.12,82.49,10"/>
      <path d="M601.54,997.74c-21,4.06-53.15-2.25-71.68,10.22"/>
      <path d="M413.52,1201.12c-21.7-9.79-56.57,8.29-74.46-12.91"/>
      <path d="M340.62,1313.58c15.08-3.93,30.11-2.9,45.41-2,9.57.55,21.4,2.92,29.44-4.15"/>
    </g>
    <g class="shirtWhiteDarker">
      <path d="M536.52,1116.34h0c7-8,6-23,6.45-33a90.19,90.19,0,0,0-12.67-.92C530.32,1092,528,1109.74,536.52,1116.34Z"/>
      <path d="M406.7,1234c4,.53,8.38,1.2,12.77,1.65.53-10.07,1-26.86-6-34.51C406.5,1208.3,407.09,1224.51,406.7,1234Z"/>
    </g>
    <path class="shirtWhiteDarkest" d="M535,1368q39.62-100.44,78.95-201c1.51-4.26,14.89-36.27,5.24-40.65s-21.08,27.19-23.48,32.76q-39.33,100.41-79,200.67C514.77,1364.67,533,1372.91,535,1368Z"/>
    <g class="shirtWhiteDark">
      <path d="M326,1157.33c15.51,5.32,21.94-15.19,22.85-28.22,2.31-33.15,17.76-53.18,48.75-43.8,32.26,9.77-14.06,45.86-23.05,51.49-14.7,9.2-10.44,35.2,8.4,31.19,34.93-7.45,67.32-29.61,87.6-61.62,14.43-22.76,48.77-26.54,72.42-23,.52-21.29,1.71-59.06-13.11-75.41-44.72,5.74-88-26.26-132.52-16.25-34.85,12.56-78.25,36.51-79,82.37,5.68-15.72,17.78-30.51,32.94-35.58C327.43,1052.44,284.26,1143,326,1157.33Z"/>
      <path d="M605,1186.86c16.91,13,12.67,41.71,5.49,59.17-15.2,37-52.31,59.8-85.88,68.35-35.72,9.1-72-6.74-109.12-7-12-19.42-10.23-51.2-8.77-73.41,25.34,3.84,40.84-.12,57.56-22.27,22.59-30.32,66.8-17,77.37-60.86,4.38-18.19,30.25-31.87,38.09-8.34,8.72,26.16-13.34,65.56-31.23,81.83,23.45-11.17,42.43-55.21,35.47-82,49.33-4.83-2.92,92.26-17.19,106.25C587.16,1236.63,598.33,1209.63,605,1186.86Z"/>
    </g>
    <path class="shirtWhiteDarkest" d="M423.25,950.43q-39.39,98.8-79.08,197.49c-1.66,4.6-15.05,36.65-5.14,39.94,10.54,3.49,20.84-25.26,23.41-31Q402.12,1058,441.52,959C443.45,954.13,425.18,945.59,423.25,950.43Z"/>
  </g>
  <g class="tomerSweater">
    <path d="M329,781.82c14,30,84.54,69.43,143.57,71.73,34.5-10,89.7-46.3,90.83-78.72Z"/>
    <path d="M867.58,713.44c24.24-9.87,53.88-16,77.81-28.34,6.25-16.93,14.53-19.83,31-17.23,1.08-16,7-25,19-25.37-4.45-11.24-1.62-25.1-8.17-38.45-20.34-11.39-29.24-31.17-33.51-54.35-14.11.72-20-18.63-29.9-29.89C913,507.58,891.49,497.89,902.34,464c-13.79-19.93-36.18-29.92-44.1-51.55,20.08-15.75,46.17-38.69,62.4-65,18.92,3.4,29,35,54,48.65,20.71-9.75,41.56,40.5,59.72,62.27,68.54,82.16,119.68,140.26,135.89,217.43,4.93,23.46-10.22,25.9-14.49,48.91-4.58,24.68-23.17,22-45.53,49.69-25.58,31.7-71.84,28.79-106,58-24,20.47-78.38,28.11-128.57,58.53C870.94,828.5,865.81,763.35,867.58,713.44Z"/>
    <path d="M7.84,1441c-10.94-23.36-8.26-37.15,4.52-55.25,12.22-17.29-10.06-44.91,8.16-68.85-19.08-32.64,5.73-45.39,8.49-168.85,39.93,15.22,104.93,27,146.76,26.72-1.86,37.46-7.34,72.09-13.94,121.3,16.55,39.48.74,47.31-4.53,72.47-13.68,65.25,13.4,155.43-18.12,191.13,11.24,25.26-.05,40.84,2.93,49.44,4.84,14,12.09,15.39,2.51,36,9.58,9.35,8.41,23.57-.91,40.48,1.42,30.08,6.71,52,10,80.53-16.86,26.39-104.52,26.63-110.57,10-.66-30.88-10.94-58.12-7.19-78.76C17,1689,15.23,1679.7,18.71,1666.59c2.13-8.06-15.18-23.45-2.72-32.61-19.25-16-13.52-23,.9-45.29C31,1566.82,1.55,1495.78,7.84,1441Z"/>
    <path d="M176.86,1605.43c134.14,19.89,386.68,18.49,552.9-10.48-2.84-16.8,4-27.11-8.24-39.29-90.59,20.43-456.75,30-538.89,8.63C179,1580.9,170.87,1594.64,176.86,1605.43Z"/>
  </g>
  <g class="clothesDisplayLine">
    <path d="M974.65,396.07c13.14,27.13-44.93,73.54-72.31,67.92"/>
    <path d="M143.71,1685.61c-23.34,16.56-78.05,22.28-107.79,11.78"/>
    <path d="M474.77,1617.8c2.05,53.31,9.37,121.54,6.1,166.74-2.52,34.87,5,77.35-14,105.47"/>
    <path d="M412.72,1618.79c8.29,43.12,6.54,97.39,5.27,161-.56,28.16,14.35,55.37,62.33,47.86"/>
    <path d="M342.21,1618c-1.77,55.73-57.32,68-131,69.62"/>
    <path d="M558.34,1614c3.72,48.94,53.9,68.62,133.89,67.85"/>
    <path d="M525.13,3075.26c25.16-17.12,74.08-66.83,181.33-31.15"/>
    <path d="M208.3,3045.74C267,3023.44,389,3043,405.78,3096.81"/>
    <path d="M502.78,2990.84c7.41,20.7,10.78,43.88,8.1,70.76"/>
  </g>
  <g class="clothesOverlapLine">
    <path d="M186.7,1052.27c-3.54,42.67,9.22,86.59-.27,122.17"/>
    <path d="M995.37,642.5c2.17,31.88,43.08,52,89.49,54.69"/>
    <path d="M466.85,1890c4.85,124.87-4.85,222.47-7,262.25"/>
    <path d="M281.68,2968.6c36.62,5,30.34,41.06,21.37,70.61"/>
    <path d="M309.75,3007.41c6.25-29.45,32.91-35.36,50.93-33.33"/>
    <path d="M624.66,3031.88c-8.58-27.84-11-70.37-67-60.62"/>
    <path d="M641,2963.42c-22.35-.93-32.73,2.4-32.73,23.18"/>
  </g>
  <g class="clothesFoldLine">
    <path d="M161.83,1296.1c-4,56.1-76.58,48.23-111.56.13"/>
    <path d="M20.52,1316.93c6.16,8.87,13.11,17.1,21.88,23.9"/>
    <path d="M118.48,1388.05c-49,33.23-113,37.24-106.12-2.27"/>
    <path d="M139.18,1559.7c-14.58,14.62-35.15,14.89-32.07,30.36"/>
    <path d="M132.47,1535c-36.73,35.85-106,36.71-33.23,81.32,27.11,16.62-32.35,12.25-64.71-4.37"/>
    <path d="M144.62,1645.13c-25.27,14.89-54.24,17.8-48.88,6.14"/>
    <path d="M16,1634c21.16,12.92,84.77,19.13,21.16,22.54"/>
    <path d="M59,1043.89c5,41.3,17,74.8,51.59,83.07"/>
    <path d="M190.87,1494.43c12.48,11.92,31.28,21,57.91,26.66"/>
    <path d="M219.05,1486.11a446,446,0,0,0,118.05,36.73"/>
    <path d="M706.14,1487c-30.62,32.69-70.91,47.21-118.93,47.23"/>
    <path d="M707,1410.26c-22.73,21.63-51.63,32.3-70.82,52.24"/>
    <path d="M676.4,1404.78c-31.74,38.89-97.84,60.29-180.14,73.46"/>
    <path d="M654.54,1175.67c-71.18,57.88-190.19,129.79-122.43,146.91"/>
    <path d="M578.46,1180c-56.82,91.37-137.29,152.16-230,165.28"/>
    <path d="M437.67,1103.35c-52.56,19.59-100.29,46.89-140.79,85.7"/>
    <path d="M556.6,1000.16C502.87,1054,433.2,1090.92,352,1115.59"/>
    <path d="M968.45,529.66c29.81-.28,57.08,3.63,80.45,14"/>
    <path d="M953.69,549.7c29.43.45,57.65,7.33,84.72,20.19"/>
    <path d="M994.68,581.26c12.43,14.66,35,25.32,69.09,31.48"/>
    <path d="M987.2,604.05c12.83,6.57,28.36,14.41,37.39,15.34"/>
    <path d="M1015.84,648.25c9.11,19.37,37.64,22.86,92.53,19.58"/>
    <path d="M996.61,673.61c4.37,50.72,57.54,85.17,75.9,65.06,10.91-11.95-26.06-17.84-47-44.07"/>
    <path d="M976.35,667.87c0,26.91,11.15,52.37,48.1,88.31"/>
    <path d="M971.28,677.13c-37.6,17.49-11.54,122.77,9.45,58.94"/>
    <path d="M945.39,685.1c-12.21,25.79-15.38,65-31.13,85.94"/>
    <path d="M839.54,715.89c-6,11.78-6.34,20.49-4,27.82"/>
    <path d="M829.44,840.13c-2.49,24.7-2.53,42.81.87,51.59"/>
    <path d="M799.66,749.83C785.19,786.26,777,826.31,777,856.74"/>
    <path d="M780.1,717.45c-6.08,15.41-8.85,27.35-7.54,35"/>
    <path d="M773.47,785.91c-10.41,51.24-28.06,100.27-50.72,147.79"/>
    <path d="M734.12,746.56q-28,52-28,102.31"/>
    <path d="M707.6,738.57c-6.62,26-14,53.31,2.91,36"/>
    <path d="M686,750.06c-10.17,16.43-8.74,42-14,58.59"/>
    <path d="M631.81,785c-13,29.73-25.26,59-21,78.7"/>
    <path d="M629.18,737.81c-5.63,35.71-30.55,71.59-65.59,107.57"/>
    <path d="M714.65,988.84c-17,38-40,65.28-68.67,82.4"/>
    <path d="M704.09,1039.55a333.54,333.54,0,0,0-45.43,75"/>
    <path d="M204.36,1375.1c.61,20.38,52.08,38.85,138.4,56"/>
    <path d="M159.63,979.58c1.37,32.18,10.82,80.38,27.07,72.69,22.42-10.61,20.86-86.38,66.73-115.14"/>
    <path d="M185,898.1c-13,77.37-12.31,202.2,19.86,60.26"/>
    <path d="M228.1,1025.46c23.1-16.78,45.86-29.76,67.79-33.55"/>
    <path d="M284.25,1017.93c-31.46,5.88-59.16,17.49-80.8,38.34"/>
    <path d="M507.64,1847.67c14.42-12.5,46.68-12.76,79.49-12.64"/>
    <path d="M365,1830.22c21.54,6.16,46.72,11.07,57.17,21.06"/>
    <path d="M434.22,1884.38c7.36-28.59-36.1.6-61.37,21.66"/>
    <path d="M487.18,1882c13.53-15.31,32.95,4.71,52.95,28.28"/>
    <path d="M407.15,2292.81c-35.4,29-66.2-52.95-81.84-124.56"/>
    <path d="M673.71,2244.68c-8.25,46-30.1,72.36-75.21,65"/>
    <path d="M536.52,2398.72c40.92-53.55,113.13-28.28,134.19,67.39"/>
    <path d="M240.46,2597.29c9.63,98.09,113.73,24.07,131.78-40.91"/>
    <path d="M280.18,2815.12c25.27,43.33,77.62,45.73,112.52,1.21"/>
    <path d="M511.55,2884.23c21.36,29.58,80.33,35,96,51.84"/>
    <path d="M677.4,2927.77c-13.31,12.51-38.25,11.31-33.17,28.16"/>
    <path d="M661.72,2871.45c-28.92,23.7-66,9.28-60.82,24.3,4.93,14.27,38.64,11.56,51.75,24.68"/>
    <path d="M253.58,2920.88c50.07,23.62,78.35-19.71,133.11,8"/>
    <path d="M273,2895.15c-24.67-43.32,35.26,10.69,80-8.42,53.55-22.87,81.83-19.86,33.7,4.81"/>
    <path d="M422.82,2899.9c-8.13,7.95-17,12.15-26.51,12.7"/>
    <path d="M638.21,2774.2c15.65,75.82,2.41,46.34-35.5,89.06-47.85,53.93-102.3-39.71-59.57-54.16"/>
  </g>
  <path class="hairDarkBrown" d="M277.8,676c-7.37,5.72-19.86,2.57-23.51-5.71-19.71,11.89-44.54-8.06-43.48-27.54-14.42,7.09-39.5-7.81-41.22-26.32-10.81-.43-20.75-14.58-20.45-26.81C120.27,588,108.67,548.16,118.46,530c-11.91-4.64-16.75-25.72-11.2-35.57-23.18-2.16-40.48-41.47-31-55.28-24-10.69-28-46.21-14.57-64-10-14.87-1.07-42.27,15.55-48.84C70.42,306.9,81.49,279.3,96,273.64c-8.44-13.58-4.22-37.66,10.13-45.46-9.77-27.81,15.34-58.86,43.1-61.45-2-14.17,10.28-36.14,24.38-38.88-11.75-18.29,5.6-47.91,26.1-51.25,3.31-26.16,37.71-42.28,59-29.9,9.55-13.1,33.62-16.77,45-9.94,2.35-21,29.19-33.49,46.25-20,10.14-6.68,29.17-2.81,31.07,9.93,6.53-7.06,27.88-9,34.95-2.53,15.41-27.28,53-32.22,72.74-5.33,10.66-8.89,36.94-4.16,44.34,5.92,21.52-15.64,55.52-5.17,63.21,15.66,26.51-8.22,56.08,16.32,50.06,44.16,25,6.29,41.23,34.21,34.16,58.56,11.39-1.06,25.53,12,22.32,23.77,17-2.3,36.4,13.13,35.48,34,26.37,13.34,30.41,56.76,2.55,73.71,7.85,7.17,5.94,25.29-3.62,30.49,12.71,13.18,12.83,37.58-2.82,46.93C746.27,379,733,414,709.79,419c5.79,16,.6,37.28-17.65,41.85,11.69,17.58,2.69,44.27-12.21,51.36L334,663.06C327.26,682.9,294.47,693.13,277.8,676Z"/>
  <g class="eye">
    <circle class="sclera" cx="525.04" cy="469.16" r="138"/>
    <g class="irisAmber">
      <ellipse cx="437.46" cy="461.76" rx="22.36" ry="22.95" transform="translate(-40.91 42.53) rotate(-5.32)"/>
      <ellipse cx="609.6" cy="445.74" rx="22.36" ry="22.95" transform="translate(-38.68 58.41) rotate(-5.32)"/>
    </g>
    <g class="pupil">
      <ellipse cx="437.46" cy="461.76" rx="8.7" ry="8.92" transform="translate(-40.91 42.53) rotate(-5.32)"/>
      <ellipse cx="609.6" cy="445.74" rx="8.7" ry="8.92" transform="translate(-38.68 58.41) rotate(-5.32)"/>
    </g>
  </g>
  <g class="skinAshkenazi">
    <path d="M337.73,633.88c26.83,56.76,20.2,125.65-8.72,147.94,23.28,55.11,223.54,69.08,234.4-7-16.62-15.3-13.67-61-11-110.07"/>
    <path d="M148.12,1764.45c13.76,46.93,37.15,40.48,49.31,131.27,3.72,27.75.36,33.38,6.27,58.55,7,29.84-34.33,28.17-42.56-11.61-1.5,16.43-1.56,24.6,2,33.46,10.7,15.57,19,28.71,22.29,38.21,15.83,10.63,28.1,32.65,15.85,42.63-15.58,9.43-28.15-13.75-44.07-21.7-26.08,6.52-44.2-9.5-57.16-29-17.21,2.44-31.22-18.89-37.65-37-17.83-1.82-29.34-52.4-29.68-68.62-1.22-58.2,15.57-80.29,19-120.13C81.62,1767.51,113.87,1762.48,148.12,1764.45Z"/>
    <path d="M292.27,584.32c-5.18,14.67-32.73,13.56-43-2.5-17.73-27.76-43.11-54.72-44.14-74.23,5.71-1.07,11-4.72,11.78-10.72,5.24,10.8,24.28,13.26,33.09,6.8,4,18,21.38,7.42,25.91,20.64-2.37-15.31,17.22-17.13,5.89-37.71,8.37-11.13,8.5-30,3.22-41.22,19.93,1.91,34-19.15,27.9-38.81,13.14-5.46,17.58-27.12,11.95-42.12,21.21,4.22,44-13.42,46.36-33.86,17,10.65,57,6.45,70.19-14.06,8.19,7.23,28.58,3.92,34.29-5.54,15.08,15.52,53.5,19,69.14-5,5.27,6.1,24,10.47,32.49,5.44,6.56,14.91,38.15,15.74,54.16,5.78,2.61,12.93,14.6,25.45,27.78,25.64.88,14.5,11.1,35.38,8.6,57.05C661.6,454.48,700.6,529,669.8,622.64c-13,39.57-39.85,60.71-57.51,89.54-13.8,22.52-45.81,33.17-89,34.15-26.75.61-49.23-15.81-77.35-22.43C364.32,704.69,313.5,660.47,292.27,584.32ZM478,458.38c-14.76-7.91-28.18-12.27-42.17-10.46-16.37,2.11-29.28,9.44-41.7,18.07,22.78,11.31,55.57,10.51,79.33-2.61C476.07,461.92,483.76,461.49,478,458.38Zm101.1-5.13c32,12.65,55.36-1.68,68.11-9.86-9.93-5.29-22.93-10.32-36.62-9.05-16.23,1.51-24,7-38.63,15.67C565.64,453.73,576.22,452.13,579.05,453.25Z"/>
    <path d="M531.23,303.76c18.5-4,53.8-4,105.58-15.39,59-13,84.87-28.55,109.27-23.39,68.76,35.75,132.32,48.15,169.85,89.88-11.84,18.38-32.67,34.62-46.47,47.81-17.07-11.31-18.76-2.53-40.81-8.33-31.35,16.6-73.36,6.13-119.72-18.66-26.21-8.74-95.4,2.18-98.32-32.05-21.61,3.85-39.25,4.12-52.44-3.82C527.15,344,511.29,308.12,531.23,303.76Z"/>
  </g>
  <g class="skinOverlapLine">
    <path d="M52.63,1928.91c.74,13.71,4,26.11,9.73,40.4"/>
    <path d="M76,1935.73c7.78,33.09,10.09,46.53,24,70.55"/>
    <path d="M107.62,1944c7.11,38.08,10.22,53.53,49.55,91.26"/>
    <path d="M152.12,1881.78c4.18,25.79,10.6,39.53,9,60.88"/>
    <path d="M681.84,295.48c-53.73,7-92.93,18.79-131,20.89-6.79,2.08-5.4,14.61,7.36,23.44"/>
    <path d="M704.11,309.4c-41.76,4.87-82.48,11.84-95.71,11.14C598,325.76,606,357.78,650.86,348c31,2.44,84.95-10.65,95,1.74,47.84,38.62,71.3,42.28,82.77,44.57"/>
  </g>
  <g class="skinFoldLine">
    <path d="M216.36,499.17c2.33,14.19,10.36,32.07,27.44,51.4"/>
    <path d="M230.65,506.44c-2.92,14.23,22.72,17.86,30.67,46.63,3.11,11.28,16.76,2.58,2.61-16.35-6.39-8.55-15.62-19.74-12.66-29.11"/>
  </g>
  <path class="lipMaleMedium__noStroke" d="M565.34,601c-8,4.33-24.79,6.64-37.15,4.54-20.19,3.23-43.71,11.11-67.4,11.53,36.68,21.73,37,48.39,85,41,53.7-8.27,40.11-36.12,58-55.37C586,605.43,577.73,599.17,565.34,601Z"/>
  <path class="teeth" d="M592,604.87c-4.27.38-9.22.59-15.09.86-13.88.66-22.29,10.19-44.64,7.22-23.82-3.18-32.47,3.26-50.51,4.73C521.14,641.31,569.82,637.05,592,604.87Z"/>
  <g class="lipOverlapLline">
    <path d="M481.74,617.68c-8.21.66-18.36.3-32.76-2.47"/>
    <path d="M615.07,594.6c-5.79,7.21-12.24,9.3-23.09,10.27"/>
  </g>
  <g class="lipEdgeLine">
    <path d="M528.19,605.55c12.36,2.1,29.18-.21,37.15-4.54"/>
    <path d="M497.62,646c25.92,28.68,85,4.53,88-7.1"/>
  </g>
  <g class="cheekLine">
    <path d="M580.66,538.28c11.66,4.84,18.29,18,29.53,29.58,9.23,9.52,17.61,19.57,18.67,33.91"/>
    <path d="M488.43,546.4c-16.67,8-9.83,11.14-29.66,30.81-12.42,12.33-20.56,26.28-19.5,40.82"/>
  </g>
  <path class="noseLine" d="M580.66,538.28c6.05,4.48,10.83,21,1.15,27.46-12.78,8.6-10.36,19.19-35.2,23.37-19.86,3.33-20.53-10.3-49-14.13-18.45-2.49-16.86-21.64-9.2-28.58"/>
  <g class="eyeFoldLine">
    <path d="M641.85,460.16c-12,11.86-39.76,19.59-56.72,8.08"/>
    <path d="M467,479.24c-10.51,12.66-35.9,15.95-52.72,11"/>
  </g>
  <g class="eyeCornerLine">
    <path d="M647.16,443.39c2.28,1.16,6.88.83,9.33.49"/>
    <path d="M377,469.35c6.62,1.17,12.49.5,17.06-3.36"/>
  </g>
  <g class="eyeCreaseLine">
    <path d="M580.59,434.56c22.7-22.21,60-13.53,63-.73"/>
    <path d="M403.21,446.39c20.3-17.77,51.26-16.45,68.66-5.29"/>
  </g>
  <g class="eyebrowDarkBrown">
    <path d="M480.38,382.7c-.7,30.24-30.67,25-56,24.51-51.76-.92-61.08,37.62-61.74,22.94C381.52,372.6,446.16,388.34,480.38,382.7Z"/>
    <path d="M564.28,375.08c3.13,29.86,30.4,19.47,49.63,16.95,37.1-4.86,46,19.19,43.61,4.71C647.56,353.8,590.94,375.22,564.28,375.08Z"/>
  </g>
</svg>
