<svg id="presence" xmlns="http://www.w3.org/2000/svg" viewBox="0 0 2207.1 2506.91">
  <defs>
    <style>
      .cls-1 {
        fill: none;
      }

      .cls-1, .cls-2, .cls-3, .cls-4, .cls-5 {
        stroke: #000;
        stroke-miterlimit: 10;
        stroke-width: 2px;
      }

      .cls-2 {
        fill: #b5a08b;
      }

      .cls-3 {
        fill: #a4a888;
      }

      .cls-4 {
        fill: #bdc29d;
      }

      .cls-5 {
        fill: #bd7462;
      }
    </style>
  </defs>
  <title>steamTunnel</title>
  <path id="tomerSock" class="cls-1" d="M2070.46,2290.62c27.54-99.42-146.21-77.24-152.86-2.57C1971.59,2340.54,2022.19,2335.48,2070.46,2290.62Z"/>
  <g id="tomerSoleSide">
    <path class="cls-1" d="M1901.83,2399.35c1.4,14,4.45,25.91,9.34,34,8.66,14.36,48.79,35.38,71.14,47.26,76.76,40.81,180.16,29.33,219.39-13.71,6.56-7.2,6.21-29.27-3.92-43.1Z"/>
    <path class="cls-1" d="M956.72,2310.82c-1.65,12.3-1.62,23.45,1.52,32.07,55.08,34.61,145.84,20.71,207.66-3.35,50.61-19.7,148.86-20.58,176.14-53.13,2.66-4.28,2.81-16.36.7-32.33Z"/>
  </g>
  <g id="tomerShoe">
    <path class="cls-1" d="M2015,2465c64.62,17.71,169.92-9.57,182.74-41.14-21.47-29.32-79.35-36.4-127.32-133.19-2.08-10.86-9.07-12.56-20.57-5.88-17.63-14.69-49.95-6.86-65.62,14.69-23.53,3.43-44.58-4.86-63.66-22.53-15.06,36.49-22.36,86.5-18.78,122.45C1931.7,2435.74,1973.23,2453.49,2015,2465Z"/>
    <path class="cls-1" d="M1127.6,2318.48c69.1-31.48,159.37-19.71,215.14-64.4-4.74-35.79-20.87-91.16-45.69-122.28l-132.59,13.41c-98.6,131.63-198.76,98.58-207.74,165.61C996,2336.19,1084.52,2338.11,1127.6,2318.48Z"/>
  </g>
  <g id="tomerOverlapLine">
    <path class="cls-1" d="M1059.59,2254.08c56.71-22.32,92.91-78.78,127.47-94.14"/>
    <path class="cls-1" d="M1157.12,2154.7q6.08,6.78,4.05,22.76"/>
    <path class="cls-1" d="M1984.27,2299.43c58-11.13,61.79,60.73,103.41,87.82"/>
    <path class="cls-1" d="M2049.89,2284.74c-12.82,5.2-20.28,11.79-25.65,23.59"/>
  </g>
  <g id="tomerDisplayLine">
    <path class="cls-1" d="M1264.91,2286.55c-2.15-43,19.9-75.1,61.37-98.59"/>
    <path class="cls-1" d="M1171.86,2303.82c-27-49.74-87.92-29.4-128.75-58.8"/>
    <path class="cls-1" d="M1904.68,2335.49c20.26,16.77,27.77,47.78,24.87,90.42"/>
    <path class="cls-1" d="M2146.7,2384.49c-21.1-8.43-82.64,5.44-104.48,19-31.81,19.75-62,10.54-79.14,42.64"/>
  </g>
  <path id="tomerPants" class="cls-1" d="M1825.52,839.54c15.08,41.54,17.11,84.36,21.38,103.16,3.5,15.4,21.44,10.82,12.6,35.71,11.21,6.3,11.16,17.47,4.51,29.74-5.1,9.4,72,110.43,128.71,462.51,10.69,66.36,35.1,78.15,36.64,113.76,48.14,23.32,19.51,81.41,35.23,135.88,43.22,142.54-2.65,359.57,46.33,451.71,31.46,59.18-7.32,82.33-40.46,118.61-1.38-36.28-18.26-26.11-72.94-28.7-45.47-2.16-81.67,22.3-100.87,60,11.62-107.18-55.73-65.09-5.94-125.79-17.8-50.43-50.11-64.46-22.11-152.93,15.57-49.22-21.28-103.77-22.28-207.48-.52-53.73-35-81.36-27.29-115.19,10.22-45.07-55.79-63.14-55-152.5.33-36.11-42.54-64.18-62.68-124.06-46-136.61-90.93-231.63-163.23-231.13-121.55.85-257.1,341-338.77,347.72,45.2,49.32-24.49,49.55-7.58,58.94,40.06,22.22,8.16,43.43,15.16,52.2,45.54,57,16.74,218.32,38.34,239.21,100,96.62,7,118,37.43,142.18,28.49,22.68,25.22,50.1,40.41,72.4-72.28,65.85-143,13.91-200.45,48.07-13.68-38.89,3.79-50.21,2.35-68.21-24.15-12.91-85.94-14.81-72-62.65,27.9-95.92-107.4-322.9-107.3-399,0-20.48-19.92-44.65-16.57-69.13,6.79-49.55,184.49-374.73,310.94-559.39,9.83-14.36-7.33-35.29,19.05-40.86-7.92-31.35,23,.21,47.44-101.37Z"/>
  <g id="clothesDisplayLine">
    <path class="cls-1" d="M1413.93,909.32c-28.57,27.73-68.55,35.83-119.36,31.58"/>
    <path class="cls-1" d="M1594.61,914.88c35,54,109.1,51.61,189,40.77"/>
    <path class="cls-1" d="M1537.2,917.25c-25.81,62,6.14,86.07,5.42,110-.95,30.94,30,62-38.52,74.19"/>
    <path class="cls-1" d="M1476.13,915.6c-25.81,76.71,11.17,92.95,10.22,134.46-.74,31.87,26.55,56.06,34.66,91.46"/>
  </g>
  <g id="clothesFoldLine">
    <path class="cls-1" d="M1859.5,978.41c-15.33,7.58-42.17,9-63.26,6.74"/>
    <path class="cls-1" d="M1259.13,974.38q14.23-3.95,28.47,7.88"/>
    <path class="cls-1" d="M1468.09,1133.39c-29-15.39-85.91-11.26-144.09-6.21"/>
    <path class="cls-1" d="M1475.79,1176c-28.94,5.2-82.71,34.9-137.59,65.69"/>
    <path class="cls-1" d="M1587.64,1116.52c25.81-15.74,102.08.89,183.74-4.43"/>
    <path class="cls-1" d="M1685.28,1237.25c-41.72-30.18-115-70.38-110.07-44.39"/>
    <path class="cls-1" d="M2029.36,1584.42c-11.39,45.82,13,83.48,15.19,30.31"/>
    <path class="cls-1" d="M1764.32,1512.83c59.82,46.52,146.21,128.49,140.67,148.42-5.44,19.59-71.68-4.31-111.87-34.33"/>
    <path class="cls-1" d="M1918,1743.83c35-82.69-36.44-44.85-51.81-8.37"/>
    <path class="cls-1" d="M2015.75,1793.06c-47.62-100.79-93-46.52-95.25,109.65"/>
    <path class="cls-1" d="M1890.71,2196.16c13.24-18.88,21-37.66,26.47-56.42"/>
    <path class="cls-1" d="M2061.17,2093.22c-3.33,54.28-132.92,117.41-111.87,34.34"/>
    <path class="cls-1" d="M2077.78,2260.47c17.3-35.11-27-21.06-91.93-15.5-39.73,3.4-107.44-35.45-73.1,5.54"/>
    <path class="cls-1" d="M1125,2105.38c39,6.67,52.8,14.83,5.74,35.47"/>
    <path class="cls-1" d="M1089.79,2032.31c-24.39,28.38,18.82,32.12,58.7,26.58"/>
    <path class="cls-1" d="M1281.4,2119.81c-35.57,8.87-68.28,15.18-74.21,2.21-7-15.41,55.38-56.49,71.77-89.71"/>
    <path class="cls-1" d="M1238.21,1920.44c30,101.49-63.14-21-126.27-115.2"/>
    <path class="cls-1" d="M1258.14,1986.89c22.57,5.85,4,27.07-27.69,53.17"/>
    <path class="cls-1" d="M1114.15,1439.73c-80.4,107.64-58.39,140.54,75.32,91.93"/>
    <path class="cls-1" d="M1175.07,1584.83c-41,1.11-76.9-9.48-77.53,0-.73,11,15.48,15.86,33.23,19.93"/>
    <path class="cls-1" d="M1152.92,1690.05c-47.63-58.7-167.25-86.39-99.69,18.83"/>
  </g>
  <path id="tomerShirt" class="cls-1" d="M1821.81,800.47c10.82-15.28,10-30.3,1.52-45.13,10.12-30.35-16.55-31.27-23.91-64.38,4.6-62.53-24.83-65.29-40.47-137,7.56-35.7-24.4-46-23-89.21,1.54-46.88-33.1-71.73-46.9-119.55,54.26-3.68,106.68-124.15,88.29-163.7-48.06-25.13-92-57.11-139.79-82.77C1587.9,72.05,1501.45,95,1415,96c-298.25,66.46-366.68-20.28-374,30.34-21.53,7.19-54.72-24.36-60.1,0-12.22-4.5-22.87-5.33-27.08,8.93,1.16,47.25,20.87,127.21,53.76,166.16l165.52,158.74c18.4,106.68,82.68,171.23,89.21,224.4,6.43,52.42,31.21,78.14,31.29,143.7C1403.12,891.57,1737.4,873.18,1821.81,800.47Z"/>
  <g id="tomerSweater">
    <path class="cls-1" d="M1305.22,270.14c72.24-20.12,130-114,124.11-156.8l-230.88,54C1199.58,211,1258.26,265.19,1305.22,270.14Z"/>
    <path class="cls-1" d="M1821.81,800.47c15.88,16.72,7.52,30.09,17.55,47.64-123.69,78.56-392.78,92.76-551.57,29.25-3.14-10,4.18-29.07,5.85-49.13C1403.12,891.57,1737.4,873.18,1821.81,800.47Z"/>
    <path class="cls-1" d="M931.87,134.42c-14.2-17.49-31,5.7-55.39-2.45-27.69-19.55-29.47-1.63-60.27-1.63-18.74,0-50.5-18.73-101.82-5.7-27.55-19.25-34.21,13-65.16,6.52-23.23-12.73-42.61-17.27-52.13-.82-26.07-7.82-47.56-7.52-55.89,16.06-31.53-3.87-59.52-4.36-74.93-.57-19.86,4.88-18.3,106.1-2.75,110.32,15.23,4.13,46,7.08,79,6.14,26.07,25.25,37.7,9.22,66,14.66,88.78,17.11,259.83,20.06,399.11,24.44-32.89-38.95-52.6-118.91-53.76-166.16A49.64,49.64,0,0,1,931.87,134.42Z"/>
    <path class="cls-1" d="M2116.65,636.54c22.35-25.62,13.37-40.81-8.13-51.82,19.65-26.85-26.76-51.9-27.25-79.25-.44-25-18.35-37.32-23.56-76.22-1.76-24.15-30.28-52.26-39.63-69.1-18.7-42.9-48.9-75.8-99.58-92.47-27.89-9.18-82.29-48-138.49-77.71,7.81,39.62-27.75,123.85-70.29,148.42,25.26,28.2,63.78,42.44,85.84,49.61,32,10.41,41,36,74,31.2a26.7,26.7,0,0,0,6.73,10.4c-14.68,9.18-6.75,17.67,6.73,29.37,32.43,28.14,36.52,99.31,63,114.4,19.49,11.11,3.67,35.49,26.29,47.93,2.9,23.47,12.92,38.47,34.55,39.63,8.26,21.51,9.51,66.45,16.25,77.26,37.31,15,104-2.08,111.78-34.58A215.11,215.11,0,0,0,2116.65,636.54Z"/>
  </g>
  <g id="clothesDisplayLine-2" data-name="clothesDisplayLine">
    <path class="cls-1" d="M2006.91,660.93c34.91,4,86.19-9.09,109.74-24.39"/>
    <path class="cls-1" d="M541.21,146.4c31,1.39,45.2,88.67,1.32,115.89"/>
  </g>
  <g id="clothesOverlapLine">
    <path class="cls-1" d="M1689.06,345.18c-8.88-19.12-16.09-33.13-7.28-40.47"/>
  </g>
  <g id="clothesFoldLine-2" data-name="clothesFoldLine">
    <path class="cls-1" d="M686.79,499.1"/>
    <path class="cls-1" d="M597.1,130.34c43.42,8.9,50.55,97.39,59.46,48.1"/>
    <path class="cls-1" d="M649.23,131.16c7.33,3.93,11.48,8.08,16.24,13.43"/>
    <path class="cls-1" d="M706.44,149.93c24.29,25.06,36.29,55,27.32,93.24"/>
    <path class="cls-1" d="M714.39,124.64c24.66,16.54,44.31,72.8,92.41,112"/>
    <path class="cls-1" d="M841.24,160.62c7.36,28.54,9.77,57.2.6,86.11"/>
    <path class="cls-1" d="M868,151.71c-16.63,124.12,18.41,162.72,12.47,61.76"/>
    <path class="cls-1" d="M906,190.91c5.27,31,11.49,62.12,21.86,89.57"/>
    <path class="cls-1" d="M922,138.65c-2.63,31.79.86,61.5,12.47,88.48"/>
    <path class="cls-1" d="M980.94,126.3c2.17,26.44,7.19,50,17.08,68.76"/>
    <path class="cls-1" d="M1027.12,202.78c-27.12-35.56-16.18,5.12,4,44.91"/>
    <path class="cls-1" d="M1041,126.3c-.42,27.19,30.62,87.17-4.42,55.7"/>
    <path class="cls-1" d="M1068.69,164.18c10.89,24.81,24.85,46.87,42.16,65.92"/>
    <path class="cls-1" d="M1118,189.13c13.32,20.15,27.84,37.54,44.53,49.88"/>
    <path class="cls-1" d="M1142.32,134.49c3,24.35,44.54,70.08-5.34,26.13"/>
    <path class="cls-1" d="M1285.72,681.94c31,39.19,73.29,68.78,94.18,108.72"/>
    <path class="cls-1" d="M1216.19,560.58c32.51,71.3,98.26,113.1,183.3,137.79"/>
    <path class="cls-1" d="M1245.26,517.6c58.37,48.74,129.21,80.7,210.49,98.6"/>
    <path class="cls-1" d="M1293.93,576.38c51,20.46,112.26,56,177,96.71"/>
    <path class="cls-1" d="M1496.83,834.27c51.83-3.16,122.83-30,116.94-3.16"/>
    <path class="cls-1" d="M1474.08,771.69c102.39,32.87,296.44-52.46,307.82-118.83"/>
    <path class="cls-1" d="M1799.42,691c-13.1,35.86-120.51,95.06-109.17,104.75,13.53,11.58,124.07-37.82,115.67-54.36"/>
    <path class="cls-1" d="M1823.33,755.34C1817.59,770,1804.54,784,1778.74,797"/>
    <path class="cls-1" d="M1321.11,429.74c99.24,49.93,197.73,82.5,235.77,127.68"/>
    <path class="cls-1" d="M1293.93,395.61c172.56,92.28,308.78,101.4,414.65,24.65"/>
    <path class="cls-1" d="M1597.33,491.68c-61.94,24.65-22.75,36,39.19,65.11"/>
    <path class="cls-1" d="M1717.43,568.17c-15.88,30.42-59.87,45.9-139.69,42.34"/>
    <path class="cls-1" d="M1619.45,625.68c44.88-6.95,96.08-20.85,36.67,26.55"/>
    <path class="cls-1" d="M1759,553.94c-12.49,34.86-37.31,71.13-93.35,110.93"/>
    <path class="cls-1" d="M1716.16,168.69c25.27,23.29,34.18,57.57,9.48,114.41"/>
    <path class="cls-1" d="M1611.24,236.32c5.82,23.21,15.87,42.56,33.5,55"/>
    <path class="cls-1" d="M1606.18,258.45c13.27,25.28,5.06,28.44-32.24,21.49"/>
    <path class="cls-1" d="M1571.42,294.48c45.51,6.32,108.85,32.06,43,44.24"/>
    <path class="cls-1" d="M1661.17,345c-20,.51-38.7,5.16-54.36,19"/>
    <path class="cls-1" d="M1782.53,338.72c22.46-.4,42.48-5.66,61.31-13.27"/>
    <path class="cls-1" d="M1915.27,293.21c-27,30-58.2,53-98,61.31"/>
    <path class="cls-1" d="M1869.59,419.2c38.72-23.59,60.85-67.84,71.59-59,20.67,17-14.71,46.53-64.86,69.39"/>
    <path class="cls-1" d="M1974.68,386.13c-14.07,19.43-31.21,36.56-60,44.87"/>
    <path class="cls-1" d="M2039.79,410.78c5.64,17.89-17.86,37.22-60.68,57.52"/>
    <path class="cls-1" d="M2037.89,515.7c-5.69,31-64.47,55-98,32.24"/>
    <path class="cls-1" d="M1972.36,621.3c32,2.49,75.69-9,40.88,14.5"/>
    <path class="cls-1" d="M2108.52,584.72c-22.59,22-52.93,41.6-3.63,28.95"/>
    <path class="cls-1" d="M2079.61,574.49c-42.65,23.41-74.15,34.86-53.73-9.49"/>
  </g>
  <g id="broom">
    <path id="broomHandle" class="cls-2" d="M907.75,278.94,25.64,98.83c-26.06-6-35.1,33.63-9,39.58L898.32,324.09C888.85,313.35,894.79,285,907.75,278.94Z"/>
    <path id="bundleDark" class="cls-3" d="M1266,236c10.89,8.93,10.3,19.18,20.86,28.72-9,19.17-5.92,39.37-11.16,53.72-.08,23.1-7.72,26-7.7,47.92-9,19.09-9,55.22-17.16,71.27-.4,18.88-8.49,25.77-8.13,42-10.06,3.2-14.72,11-27.88,10.21C1184.29,392,1197.62,306.37,1266,236Z"/>
    <g id="bundleLight">
      <path class="cls-4" d="M1214.86,489.84c-63.2-34.42-173.67-60.46-240.53-98.67-56.22-32.12-35.12-136.73,35.16-142.19,79.56-6.18,179.59,3.62,256.54-13-2.18,23.28-14.79,34.76-15.24,56.72-7.62,22.4-9,60.69-17.06,79.06-1.79,23.3-9.87,35.69-10.77,58.1C1214.45,453.64,1218.8,469.49,1214.86,489.84Z"/>
      <path class="cls-4" d="M954,285.51l-38.67-7.44c-20.59-4.38-31.07,45.45-10.47,49.84l37.52,8.34A91.53,91.53,0,0,1,954,285.51Z"/>
    </g>
    <g id="string">
      <path class="cls-5" d="M936.72,282.19c-10.81,8.08-18.17,37.07-11.87,50.17L920,331.28c-6.6-12.62.41-41.39,11-50.2Z"/>
      <path class="cls-5" d="M1031.13,247.69c-18.84,32.79-38.15,107.49-41.63,151.6l-4.28-2.19c3.54-43.38,22.13-115.64,40.55-149.16Z"/>
      <path class="cls-5" d="M1061.11,246.82c-20.81,34-42.66,120.15-44.51,165l-4.32-1.87c1.9-44.19,23-128,43.5-163Z"/>
      <path class="cls-5" d="M1089.59,246.58c-22.29,35.2-46,128.91-47.32,175.65l-4.33-1.69c1.36-46.09,24.35-137.61,46.33-173.94Z"/>
    </g>
  </g>
  <g id="skinMizrahi">
    <path class="cls-1" d="M1385.94.36l43.39,113c9.82,81-176.84,135.9-230.88,54l-5.73-90.87"/>
  </g>
</svg>
