<svg id="presence" xmlns="http://www.w3.org/2000/svg" viewBox="0 0 1463.97 3483.16">
  <defs>
    <style>
      .cls-1 {
        fill: #61503e;
      }

      .cls-1, .cls-10, .cls-11, .cls-12, .cls-13, .cls-14, .cls-15, .cls-16, .cls-17, .cls-2, .cls-3, .cls-4, .cls-5, .cls-6, .cls-7, .cls-8, .cls-9 {
        stroke: #000;
        stroke-miterlimit: 10;
        stroke-width: 2px;
      }

      .cls-2 {
        fill: #9c8163;
      }

      .cls-3 {
        fill: #9c8e7d;
      }

      .cls-4 {
        fill: none;
      }

      .cls-5 {
        fill: #564d57;
      }

      .cls-6 {
        fill: #685d69;
      }

      .cls-7 {
        fill: #505f66;
      }

      .cls-8 {
        fill: #62757d;
      }

      .cls-9 {
        fill: #52544c;
      }

      .cls-10 {
        fill: #5f6158;
      }

      .cls-11 {
        fill: #5a6b73;
      }

      .cls-12 {
        fill: #6c818a;
      }

      .cls-13 {
        fill: #818f52;
      }

      .cls-14 {
        fill: #487d61;
      }

      .cls-15 {
        fill: #7d4848;
      }

      .cls-16 {
        fill: #565751;
      }

      .cls-17 {
        fill: #4b4f47;
      }
    </style>
  </defs>
  <title>officer</title>
  <g id="horse">
    <path id="horseHair" class="cls-1" d="M349.15,541.59c-72.49-61.25-108.55-2.74-147.62-14.76-17.13-5.27-99.12,56.77-110.41,89.85-8,23.47-25.77,30.74-46,37.11-9.73,3.06-1.61,24.2,18.27,25.93-4.49,16.11,3.55,35.33,12.66,54.83Z"/>
    <path id="horseHead" class="cls-2" d="M420.34,558.09c12.57-50,1-81.05-20.38-115-6.51-10.33-17.29-12.53-20.08-4-15.31,46.76-36,50.45-49.23,106.49-34.16-5.87-81.11-.74-113.94,14.83-3.53-53.93-24.42-92.68-65.23-124.7-9.35-7.33-25.43-3.66-24.6,8.19,24.6,61.12-49.87,112.74,12.14,173C79.56,670.26,34.82,779.79,39.51,814.78c4.35,103.6-27.9,162-21.25,251.48,2.48,33.41-29.7,84.63-11.83,135.07,29.6,83.58,121.88,74,184.38,37.09L192,1362C525.31,1318.83,541.57,998.54,420.34,558.09Z"/>
    <path id="horseBody" class="cls-3" d="M518.34,1120.83c-295.71,17-422,260.15-361.75,695.24l98.06,529.26c-5.39,147.73-7.58,306.42-7.54,472.76,12.31,12,34.91,14.27,60.32,13.87,8.56,32.6,51.92,21.45,93.28,38.11-1.35,46,66.67,29.59,125.36,31.09-1.64,42.38,83.93,11.67,156.46,14,2.06,61.25,266.45,9.69,373.77,28.92,69,12.35,133.82,11.45,128.68-30,41.55,6.39,129.32,23.95,120.51-34.17,51.59-16.48,151.42-4.41,153.35-48.34,8.65-462,10.77-892.84-67.43-1137-88.57-276.56-509.47-399.32-783.14-230.45Z"/>
    <g id="horseFoldLine">
      <path class="cls-4" d="M307.43,2832c6.65-77.67,8.41-159.91,6.54-245.53"/>
      <path class="cls-4" d="M400.71,2870.07c5.77-140.17,8.69-291.25,9.79-449.31"/>
      <path class="cls-4" d="M526.07,2901.16a375.74,375.74,0,0,0,1.39-59.29"/>
      <path class="cls-4" d="M682.53,2915.2c4-148.29,3.36-320.17.27-504.12"/>
      <path class="cls-4" d="M1185,2914.11c-3.3-58.64-2.6-124.64.22-194.54"/>
      <path class="cls-4" d="M1305.49,2879.94c-4.86-57.67-4.91-120.34-4.91-185.71"/>
    </g>
    <path id="horseOverlapLine" class="cls-4" d="M190.81,1238.42c-.06-85.7.15-173.27-9.25-197.87"/>
    <g id="horseHair-2" data-name="horseHair">
      <path class="cls-1" d="M1174.29,1623.79c-60-61.32-146.29,7.71-97.07,87.72,87,141.37-27.87,313.28,31.75,544.5,20.38,79-24.87,97.58,6.35,196.85,13.56,43.12,12.72,76.46-6.51,95.69-8.58,8.58,31.47,22.17,43-2,9.49,40.67,40.55,89.84,95.17,124.15,11.92,7.48,23.31,5.66,18.9-7.7-29.64-89.93,66.45-173,74.84-230.75,9.18,9.49,30.88,8.68,29.49-1-22-35,.13-87.07-15.06-146.77C1294.76,2047,1451.23,1906.68,1174.29,1623.79Z"/>
      <path class="cls-1" d="M315.22,652.4c19.41,52.79,52.38,47.06,62.26,99.35,5.26,27.84-.79,38.59-1.37,46.72-.62,8.71,27.48,8.93,36.11-11.17,8.43,28.61,10.76,58.8,7.16,90-3.16,27.42-14.32,109.49-14.32,109.49,50.88,65.55-7.46,87.43,25.22,146.92h0a479.94,479.94,0,0,1,88.06-12.92C748.45,1172,703.29,965.17,595,699.18c-32.21-59.08-74-105-143.16-113.47,24.31-6.52,22.61-34.77,12-33.91-55.05,4.48-149.48-59.58-233.55,32.13C244.58,620.77,298.14,605.94,315.22,652.4Z"/>
    </g>
    <path id="strapDark" class="cls-5" d="M399,993.67c-68.1,219.53-166.55,366.7-250.76,366.34-11.88-1.39-20.36-2.21-33.2-5.89C234.74,1359,304.78,1161.91,368.2,984.69Z"/>
    <g id="strapLight">
      <path class="cls-6" d="M136.35,1352.81l-.06,0c-39.81-32.37-55.8-102.48-60.43-166.66.41-10.4-18.78-11.24-19.19-.85,0,66.8,34.41,168.86,58.35,168.86A103.87,103.87,0,0,0,136.35,1352.81Z"/>
      <path class="cls-6" d="M305.46,543.3a204.09,204.09,0,0,0-36.53,2.26c-192.71,70-221.59,464.91-78.16,593.92l-1.87-42.6C81,965.16,94.37,606.13,305.46,543.3Z"/>
      <path class="cls-6" d="M104.85,811.44c8.39-67.11,29.25-131.5,62.4-181.24-82.15,109.68-118.2,284-110.59,476a131.2,131.2,0,0,0,22.68,27.54C72.83,1035.67,79.88,921,104.85,811.44Z"/>
      <path class="cls-6" d="M20,998.07a354.64,354.64,0,0,0-1.76,68.19c39.06,131.26,101.18,142.27,172.51,134.56l-.23-40.44C109.92,1170.45,45.84,1145.66,20,998.07Z"/>
    </g>
  </g>
  <g id="tomer">
    <path id="tomerSoleBottom" class="cls-4" d="M736.68,3251.46c-37.92,53.92-94.74,69-146.72,85.54,55.34,2.93,115,.89,177.73-3.26,43.18-19.65,67.45-46.26,101-89.15C859.91,3191.77,784.75,3183.08,736.68,3251.46Z"/>
    <g id="tomerSoleSide">
      <path class="cls-4" d="M435.71,3333c-67.47-9.15-125.75-2.09-158.07-27.25-.84,10.91-1,20.54,2,30.19,3.89,12.27,63.55,24,96.8,22.9,65.61-2.1,159.27,29.38,217.53-9.37,7.28-4.84,10.6-20.88,10.83-42.41C568,3332,514.37,3343.71,435.71,3333Z"/>
      <path class="cls-4" d="M734.16,3220.11c-36.8,52.34-93.38,74.92-144.2,91.33V3337c52-16.54,108.8-31.62,146.72-85.54,48.07-68.38,123.23-59.69,132-6.87q-3.54-26.09-7.74-48.84C837.05,3161,775.8,3160.9,734.16,3220.11Z"/>
    </g>
    <g id="tomerShoe">
      <path class="cls-4" d="M604.84,3307.09c.44-42.56-11.24-106.59-28.52-148.06H400.71c-40.45,119.09-117.57,74.86-123.07,146.75,32.32,25.16,90.6,18.1,158.07,27.25C514.37,3343.71,568,3332,604.84,3307.09Z"/>
      <path class="cls-4" d="M734.16,3220.11C775.8,3160.9,837.05,3161,861,3195.75c-25.61-137.54-73-178.79-191-53.86,0,40.24-57.43,106.89-80.07,110.24v59.31C640.78,3295,697.36,3272.45,734.16,3220.11Z"/>
    </g>
    <g id="clothesDisplayLine">
      <path class="cls-4" d="M331.57,3247.21c.53,28.87,11.71,55.24,31.16,79.69"/>
      <path class="cls-4" d="M596.9,3231c-46.56-21.93-174.31,13.3-179.91,99.9"/>
      <path class="cls-4" d="M607.25,3243c13.78,12.21,23.18,29.72,29.11,51.41"/>
      <path class="cls-4" d="M703.25,3254.15c-21.77-73.56,57.17-171.18,137.49-133.62"/>
    </g>
    <g id="tomerPants">
      <path class="cls-4" d="M818,3089.71c-48.25-18.42-125.94,28.58-154,78.58-42.14-13.66-61.8-104-123.21-173.33C659.17,2762.48,790.55,2839.48,818,3089.71Z"/>
      <path class="cls-4" d="M598,2896.88c7.57,112.3,55.52,135,7.57,194.32,4.75,29.28,89.33,44.09-32.81,95.9-38.85,10-170.47,2.76-190.54-7.57-41.64-21.45-30.74-62,0-84.55-102.21-58-5-93.37-24-254.89Z"/>
    </g>
    <g id="clothesFoldLine">
      <path class="cls-4" d="M382.19,3095c41,21.92,109.42,21.92,59.42,56.14"/>
      <path class="cls-4" d="M396.87,2965.13c14,131.6,165.8,159.67,201.77,61.41"/>
      <path class="cls-4" d="M605.54,3091.2c-33.22,15.18-66.55,49.39-19.18,46.76"/>
      <path class="cls-4" d="M720.58,2952c6.87,42.72-30.26,70.59-94,89.48"/>
      <path class="cls-4" d="M770.16,3029.18c-81.16,2.63-107.48,77.2-109.23,29.68"/>
      <path class="cls-4" d="M626.58,3117.85c25.07,6.25,25.07-13.7,50.14-8.84"/>
    </g>
  </g>
  <g id="nestor">
    <path id="nestorSoleBottom" class="cls-4" d="M1095.58,3388.32c.58,17.69-35.37,66.19-45.65,67.9-8.56,3.43-51.35,2.28-51.35,2.28-10.29,10.49-28.54,22.4-39.38,22.4-99.29,1.71-186.52,4.35-199.72-12.69C895.86,3345.52,1082.56,3267,1095.58,3388.32Z"/>
    <g id="nestorSoleSide">
      <path class="cls-4" d="M758.66,3447.14c-1.95,9.05-2.78,13.51.82,21.07,20.54,16.54,99.14,9.08,130.88-53.59l6.64,37c55.92-88.45,186-115.27,198.58-63.34,4-16.55,2.93-36.87-2.28-50.79C1055.07,3225.68,924.48,3282.52,758.66,3447.14Z"/>
      <path class="cls-4" d="M964.61,3430.71c1.34,5.9,3,12.15,5.09,18.81,74.58,8.73,121.39,9.52,145.39-13.24l.59,26.73c7.14,15.08,207.07,15.08,213.42,0a463.74,463.74,0,0,0,1.87-55.66C1257.29,3378.3,1045,3391.65,964.61,3430.71Z"/>
    </g>
    <g id="nestorBoot">
      <path class="cls-4" d="M1016.84,3109.84c8,75.9,65.62,141.52,76.46,227.69-24.54-53.07-154.07-23.4-220.27,66.19-39.14,53-79,56-114.37,43.42-15.08-136.46,110.38-61.68,92.69-279.66C894.36,3097.43,950.6,3082.73,1016.84,3109.84Z"/>
      <path class="cls-4" d="M1121.23,3411.44c32.11-3.73,148.53,6.59,209.74-4.09-2.64-107.39-38.69-197.87-26.46-309.29l-171.38,9.52c-10.68,261.88-202.85,172.56-168.52,323.13C1084.61,3437.39,1075.41,3416.77,1121.23,3411.44Z"/>
    </g>
    <g id="clothesDisplayLine-2" data-name="clothesDisplayLine">
      <path class="cls-4" d="M1225.31,3102.46c6.61,109.64,22,209,14,309.86"/>
      <path class="cls-4" d="M1277.29,3099.57c-16,159.25,12.54,214.82,16.88,311.66"/>
      <path class="cls-4" d="M955.59,3097.13c29.69,75,46.76,146,59.39,216.33"/>
      <path class="cls-4" d="M1001.13,3104.15c14.66,79.52,32.59,152.81,59.38,209.31"/>
    </g>
    <path id="clothesOverlapLine" class="cls-4" d="M897,3451.66c23,5.23,60,6.66,101.58,6.84"/>
    <g id="nestorPants">
      <path class="cls-4" d="M1316.17,2853.12c-14.55,128.54,15.76,152.79-14.55,224.33,17,3.64,23,37.26,3.64,44.3-53.27,19.34-159,16.9-179.65,6.59-45.66-22.83-12.89-62.48-16.8-103-15.77-27.55-17.52-92.94-18.19-161.28Z"/>
      <path class="cls-4" d="M985.48,2919.71c4.3,37.83,23,65.62,17.2,83.39,14.61,10.32,24.07,38.69,14.61,56.74,21.54,20.12,23.38,50,2.74,69.8-59.52-47.61-158.9,3.6-167.22,62.79-30.95-15.47-35.72-34.51-35.83-56.07-.18-37.06-26.54-35.75-27.94-70.5-2.27-56.2-29.66-93.71-51.15-143.57Z"/>
    </g>
    <g id="clothesFoldLine-2" data-name="clothesFoldLine">
      <path class="cls-4" d="M790.12,2958.46q55.41,61.1,137.38,56.24"/>
      <path class="cls-4" d="M1108.81,3025.31c21.19,36.06,105,68.17,18.71,71.78"/>
      <path class="cls-4" d="M1287.5,3015.06c-10.15,54.59-63.12,58.32-132.83,10.25"/>
      <path class="cls-4" d="M1301.62,3077.45c-9.15,11.75-25.92,18.72-46.11,23.54"/>
      <path class="cls-4" d="M817,3136.36c4.36-46.55,65.25-64.59,58.46-80.29-5.07-11.72-38.59-.38-51.39,15.83"/>
      <path class="cls-4" d="M1017.29,3059.84c-34.12-18.63-110.13,2-143.79,39.21"/>
    </g>
  </g>
  <g id="amy">
    <path id="soleBottom" class="cls-4" d="M256.47,2368.46c-2.31,6-21.91,4.55-35.64,3.77-33.17-1.89-108.11-14.56-168.69-27.15C144.31,2284,256.63,2309.93,256.47,2368.46Z"/>
    <path id="soleSide" class="cls-4" d="M264.73,2326.33c3.06,15.28,1.9,27.36-8.26,42.13-1-9.13-108-25.79-171.33-18l3.47-15.59c-41.52,28.61-97.58-8.56-82-37C96.75,2238.08,250.1,2257.39,264.73,2326.33Z"/>
    <path id="boot" class="cls-4" d="M187.12,1596.76C201.77,1563,394.87,1592,400.85,1629c-28.36,374-72.25,323.94-109.43,539-4.83,27.94,15.6,84.45-26.69,158.29-32.3-32.41-141.19-38.73-195.64-10.28-24,12.51-53,11.85-62.52-18.2-6.19-81,113.49-110,123.66-241.55C143,1891.76,155.15,1742.33,187.12,1596.76Z"/>
    <path id="bootStrap" class="cls-4" d="M85.24,2158l-28.78,32.09c-.18,18.5,6.33,32.57,16.71,44.48,15.46,17.76,46.72-13.21,32.2-31.75C94.44,2188.89,86.81,2173,85.24,2158Z"/>
    <path id="pants" class="cls-4" d="M1041.75,1035.1c38.51,60.72,71,142,83.53,235.85,6.13,46,48.93,117.63,54.81,186.37-173.94-92.41-401.9-97.36-571.82,6.8C538,1517.8,516.3,1538,487,1550.46c-27.63,11.79-43.1,48.24-66,40.48,8.18,18.74-3.07,37.49-30.8,36.07l-194.46-28.15c5.61-24.81,3.25-48.48,19.36-73-12.28-22.24,25.93-36.93,40.47-66,33.69-67.31,164.86-241.24,247.26-324.69.36-24.9,13.76-31.54,34.32-28.16-3-52.35,31.73-30.78,59-59C704,1078.88,940.08,1084.75,1041.75,1035.1Z"/>
    <g id="clothesFoldLine-3" data-name="clothesFoldLine">
      <path class="cls-4" d="M537.17,1107c2.36,11.23,5.84,21,11.62,27.88"/>
      <path class="cls-4" d="M502.85,1135.14a76.76,76.76,0,0,0,10.61,35"/>
      <path class="cls-4" d="M368.93,1357.54c-36.94,86.42-55.54,165.2,64.24,186.29"/>
      <path class="cls-4" d="M421,1590.94c-31.49-11.21-61.32-39-101.34-49.26-33.47-8.56-75.62-37.29-83.5-28.9-8.56,9.11,3.56,12.55,23.55,15"/>
      <path class="cls-4" d="M367.63,1596c-44.36-30.88-119.61-60.64-127.47-42.11-5.42,12.77,11.42,18.14,39.31,23.58"/>
      <path class="cls-4" d="M593.94,1377.57c13.08,15.36,29.68,27.22,49.53,35.85"/>
      <path class="cls-4" d="M548.79,1362.41c15.8,26.64,51.33,55.59,81.89,67.26"/>
      <path class="cls-4" d="M1118.44,1325.34c-10.11,24.15-25.27,41.56-40.67,52.23"/>
    </g>
    <g id="clothesDisplayLine-3" data-name="clothesDisplayLine">
      <path class="cls-4" d="M862.62,1190.66c8.9,27.67,11,78.23,4.38,110"/>
    </g>
    <g id="jacket">
      <path class="cls-4" d="M634.07,474.39c-66.36-34.9-142.45-53.2-192.22-107.55-52-56.76-68.65-69.8-83-103.55-13-30.61-38.33-49.77-42.91-81.24-84.1-25.17,105.84-164.76,105.84-83C459.59,112.83,448.72,133.42,467,158c17.4,23.37,48.34,47.63,66.08,73.37,25.63,1.77,40.75,13.58,53.34,35.33,32.19-22.31,45.11,35,208.16,13.13Z"/>
      <path class="cls-4" d="M578.64,964.18c-8.47,36.88-4,65.71,17.48,83.85,107.9,30.85,344,36.72,445.63-12.93,11.73-17.51,14.73-36.58,13.6-56.38,42.84-68-4.89-100.27,0-157.82,24.13-82.53,22.93-164.9,11.18-247.21,10.76-22.72,11.16-46.76-2.8-72.63-16.5-106-58-210.54-100.1-217.74-73.28-12.54-185.51-17.16-251.53,45.55C665.61,373,651,411.65,606.82,497.29c-47.07,91.14-55.46,125-36.11,175.56-19.35,29.41-44.42,58.35-57.26,96.37-18.73,12.28-27.05,30.67-23.75,55.87-15.81,13.66-25.61,30.39-23.74,53.07-32.92,13.47-26.2,80.06,37.6,111.73C511.87,994,543.14,988.49,578.64,964.18Z"/>
    </g>
    <g id="jacketTrim">
      <path class="cls-4" d="M958.62,282.49c-14.07-30-6.69-62.14-26.68-63.87C809.81,208.06,722,246.35,712.1,328.87h0C776.63,267.57,885.31,270.61,958.62,282.49Z"/>
      <path class="cls-4" d="M385.64,75.49C373.22,47,366.14,15,355.31,2.89s-95.88,38-91.25,53.72c3.42,11.63,28.46,41.08,43.2,73C325.4,105.81,359.38,82.11,385.64,75.49Z"/>
      <path class="cls-4" d="M446.56,911.62c-4.35,3.36-8.7,3-16.33,8.55-31.94,23.16,7.25,91,43.83,76.05,8.09-3.3,18.37-9.4,25.62-8.35C462.82,968,446.36,936.28,446.56,911.62Z"/>
    </g>
    <g id="clothesOverlapLine-2" data-name="clothesOverlapLine">
      <path class="cls-4" d="M578.64,964.18c21.52-8.56,29.77-28.15,45.64-46,22.3-25.07,38.59-27.76,64.76-91.59,33-80.51,57.48-42.3,166.39-302.51"/>
      <path class="cls-4" d="M570.71,672.85c7-11.62,8.63-36.07,22.8-46.22-8.88-15.48-2.5-33.59,14.13-45.24,3-27.52,27.46-82.14,51.56-136.38"/>
    </g>
    <g id="clothesFoldLine-4" data-name="clothesFoldLine">
      <path class="cls-4" d="M421.83,99.1c-15.38-2.74-28.31-1.57-37.89,5"/>
      <path class="cls-4" d="M339.87,194.7c15.8-38.26,99.79-79.84,34.09-69"/>
      <path class="cls-4" d="M433.84,140.64c-35,21.51-57.84,55.73-53.23,118.92"/>
      <path class="cls-4" d="M438.83,193.86c-34.1,37.43-12.48,75.68-12.48,114.77"/>
      <path class="cls-4" d="M533.1,231.39c-17.13,5.78-30.6,12.8-36.06,27.34"/>
      <path class="cls-4" d="M586.44,266.72C522,292,512.25,362.28,502.86,354.36c-10.08-8.5-4.16-31.6,29.94-64.86"/>
      <path class="cls-4" d="M601.82,287.84C555.51,300.58,539.9,334.32,576,403.43"/>
      <path class="cls-4" d="M611,331.08c1.1,35.61,13.57,63.29,39,81.91"/>
      <path class="cls-4" d="M607.64,581.39c20.79-13.3,51.42-30.41,79-53.22"/>
      <path class="cls-4" d="M593.51,626.63c7-9.49,20.26-15.14,34.92-23.61"/>
      <path class="cls-4" d="M540.28,762.69c-2.07,41.46-1.22,80.63,24.12,100.62"/>
      <path class="cls-4" d="M513.45,769.22c-6.22,20.55-9.39,39.43,1,50.85"/>
      <path class="cls-4" d="M489.7,825.09c5.07,12.08,11.56,21,20.65,24.08"/>
      <path class="cls-4" d="M466,878.16c3.37,13.93,8.08,25.9,15.28,34.22"/>
      <path class="cls-4" d="M699.94,803.43C667.52,840.86,665,870.8,615,886.6"/>
      <path class="cls-4" d="M838.83,537.32c22.45-44.91,52.39-16.63,15,15"/>
      <path class="cls-4" d="M878.75,566.43c-16.54.83-29.11,11.64-48,15"/>
      <path class="cls-4" d="M874.59,607.17c-14.17,10.16-39.08,3.33-59.18,7.65"/>
      <path class="cls-4" d="M1066.53,573.69c-5.13,11.69-11,20.84-19,23.51"/>
      <path class="cls-4" d="M1055.05,522.35c-4.73,17.65-12,30.86-23.28,37.42"/>
      <path class="cls-4" d="M837.17,845.85c-32.46,23.79-66.59,42.56-103.95,51.56"/>
      <path class="cls-4" d="M973.55,743.56C918,843.74,821.69,912.62,673.34,941.48"/>
      <path class="cls-4" d="M1032.6,740.23C993.36,846,930.73,932.66,820.54,980.57"/>
      <path class="cls-4" d="M1055.35,820.9q-50.79,136.73-193.23,223.7"/>
      <path class="cls-4" d="M1049.23,913.21c-1.66,30.77-60.71,93.14-94.8,104.78"/>
      <path class="cls-4" d="M1055.35,978.72c-13.61,16-24.42,25.13-36.06,28.46"/>
    </g>
    <g id="peripheral">
      <path id="belt" class="cls-4" d="M1076.83,1100.38a530.28,530.28,0,0,0-35.08-65.28C940.08,1084.75,704,1078.88,596.12,1048l8.56,79C697.28,1148.51,947.5,1165,1076.83,1100.38Z"/>
      <polygon id="metalDark" class="cls-7" points="1116.45 1064.69 1068.02 1084.12 1045.34 1029.31 1069.6 999.85 1116.45 1064.69"/>
      <path id="metalLight" class="cls-8" d="M1094.91,1068.57l16.44-2a12,12,0,0,0,10.13-15.21l-14-49.82a12,12,0,0,0-13.06-8.69l-16.44,2a12,12,0,0,0-10.13,15.22l14,49.81A12,12,0,0,0,1094.91,1068.57Z"/>
      <g id="leatherDark">
        <path class="cls-9" d="M955.75,1043.46c-6.86,2.38-13.56,7.65-13.94,19.74-1.38,44.34,1.46,90.33,19.32,111.86,8.87,8,28.36,7.91,44,6.7C1006.49,1094.15,995.05,1036.38,955.75,1043.46Z"/>
        <polygon class="cls-9" points="676.44 1117.82 631.94 1154.83 607 1238.3 645.87 1231.28 679.44 1118.82 676.44 1117.82"/>
      </g>
      <g id="leatherLight">
        <path class="cls-10" d="M723.34,1228.81l43.77-115.73c3.18-8.42-55.37-30.56-58.56-22.14l-43.76,115.73C660.12,1219,718.67,1241.17,723.34,1228.81Z"/>
        <path class="cls-10" d="M1057.1,1110.49c4.82,23.83,10.17,50-5.07,57.44-16.69,8.19-30.45,13.14-46.91,13.83-21.77.91-36-59.71-36-94.23Z"/>
        <path class="cls-10" d="M1042.38,1032.43c-11.19-2.49-57.89,1.42-86.63,11,15.06,6.17,7.56,71.36,33,83.72,16.56,8,63.3,4.43,73.33-15.84C1069.77,1095.71,1060.72,1046.59,1042.38,1032.43Z"/>
        <path class="cls-10" d="M917.11,1078.57c2.79,17.69,5.23,34.53,3.13,49.75-1.71,12.41-7.29,17.87-21.56,21.56-19.16,4.95-48.4,7-72,6-13-.52-25.21-3.49-28-18.22-3.22-16.71-2.21-35.11,1.71-56.8Z"/>
        <path class="cls-10" d="M922.23,1059.08c-40.81,5-83.49,6.06-127.66,4-1,34,19.56,54.65,69.27,52.73C905.26,1114.22,924,1094,922.23,1059.08Z"/>
        <polygon class="cls-10" points="631.94 1154.83 554.62 1126.38 530.29 1207.92 607 1238.3 631.94 1154.83"/>
      </g>
      <path id="metalDark-2" data-name="metalDark" class="cls-7" d="M709.53,1007l-33.09,110.84-44.5,37,24.92-83.42c-5.77,11-21.74,7.78-26.63,7.16l40.33-69.72Z"/>
      <g id="metalMedium">
        <path class="cls-11" d="M751.24,978.06c-3.48,9.21,55.07,31.35,58.55,22.14C813.79,989.61,755.24,967.47,751.24,978.06Z"/>
        <polygon class="cls-11" points="595.9 982.33 634.87 980.32 709.53 1006.84 670.56 1008.85 595.9 982.33"/>
      </g>
      <g id="metalLight-2" data-name="metalLight">
        <path class="cls-8" d="M728.4,1055.14,714.08,1093c-3.12,8.24,44.39,26.2,47.5,18l14.33-37.89C762.92,1073.68,737.76,1064.17,728.4,1055.14Z"/>
        <path class="cls-8" d="M668.16,1214.46l-17.27,45.67c-4.88,12.91,42.62,30.87,47.5,18l17.28-45.67C702.7,1233,677.53,1223.44,668.16,1214.46Z"/>
        <polygon class="cls-8" points="675.56 1008.85 631.94 1154.83 557.62 1127.38 600.9 982.33 675.56 1008.85"/>
      </g>
      <g id="metalLightest">
        <path class="cls-12" d="M783.61,1069.44l26.31-69.6c-3.66,9.68-62.21-12.46-58.55-22.14l-26.32,69.6C720.34,1059.77,778.89,1081.91,783.61,1069.44Z"/>
        <path class="cls-12" d="M670.56,1008.85l-17.91,58.76c-8.18,26.65-82.52-.35-74.31-27.46l17.56-57.82Z"/>
      </g>
      <ellipse id="lightYellow" class="cls-13" cx="780.81" cy="988.35" rx="3.88" ry="20.9" transform="translate(-419.82 1369.13) rotate(-69.29)"/>
      <path id="lightGreen" class="cls-14" d="M667.72,999.88c11.31-17.27-19.44-28.49-22.14-7.88C644.43,995.24,666.57,1003.12,667.72,999.88Z"/>
      <path id="lightRed" class="cls-15" d="M640.08,990.05c11.31-17.28-19.45-28.49-22.14-7.88C616.79,985.4,638.93,993.28,640.08,990.05Z"/>
      <path id="rubber" class="cls-16" d="M782.52,731.82a14.56,14.56,0,0,0-14.31,25c-28.3,64.08-62.57,153.23-90.06,242.79-1.17,3.31,12.43,8.12,13.6,4.82,25.52-91.06,57.59-181,84.12-244.51a14.55,14.55,0,0,0,6.65-28.07Z"/>
    </g>
  </g>
  <path id="saddle" class="cls-17" d="M1117,1428.49h0c-102.65-176.23-387.36-176.92-508.71,35.63C759.83,1370.6,956.55,1366.53,1117,1428.49Z"/>
</svg>
