<svg viewBox="0 0 215 461.18">
  <g class="soleTan">
    <path d="m127.05,443.97c-.07,1.64-.07,3.34.04,5.11.25,1.76,15.75,6.7,16.42,5.45l.46-1.14c17.3,14.21,40.27,4.33,40.89,2.43.36-1.09.38-2.1.15-3.03l-57.97-8.81Z"/>
    <path d="m48.15,416.17c.34,2.2.09,4.39-.45,6.44-1.45,5.53-7.04,9.94-13.15,16.06-3.55,3.55-2.44,8.29-10.29,14.22-8.34,6.3-21.77-3.59-23.71-10.82-.5-1.87-.5-4.62,1.17-5.96l46.43-19.93Z"/>
  </g>
  <g class="nestorBoot">
    <path d="m185.01,452.78c5.5-16.6-30.53-1.19-25.14-44.98l-20.9-3.18c-4.41,15.66-11.29,25.27-11.93,39.35,6.88,6.12,12.62,3.34,17.55,7.04,15.39,11.56,36.28,6.79,40.41,1.77Z"/>
    <path d="m55.2,391.1c-4.78,9.05-6.56,16.28-7.05,25.06-.42,7.54-8.88,14.06-14.15,21.61-3.44,4.94-4.2,14.93-15.42,14.75-7.31-.12-19.16-9.65-16.87-16.42,3.63-10.72,20.22-14.41,31.94-52.2l21.55,7.21Z"/>
  </g>
  <path class="nestorPants" d="m178.55,226.45c6.18,26.38,11.49,56.14,13.31,75.54.62,6.63,2.16,11.09,1.66,17.97-.88,12.11,2.45,17.33-3.83,29.95-13.64,27.45-15.24,41.57-21.63,46.59-2.36,1.85,0,5.32-6.16,7.65,2.21,3.12,3.2,6.07-1.66,7.65-7.28,2.36-22.89-3.79-23.42-6.02-1.49-7.64,4.35-7.43,4.03-9.87,0-4.88,2.34-3.3,3.5-5.26-.7-3.22,2.69-10.62,3.29-16.72s5.76-19.29,7.98-27.29c.5-1.8-3.42-6.78,2.85-13.05-5.73-7.44-2.12-7.97-4.78-22.41-3.37-18.31-12.85-37.4-21.45-39.71-7.46-2-18.39,15.27-21.81,28.14-2.17,8.16-6.96,8.92-13.75,26.76-4.82,12.66-7.68,8.65-11.68,18.16-14.65,34.83-23.36,38.86-24.31,42.58-.43,1.69.21,5.2-4.67,5.73-4.99,5.52-16.56,2.92-22.72-4.88-5.75-7.28,3.29-10.04,3.82-12.95,1.22-6.62,4.07-6.65,5.52-12.32,4.13-16.14,13.6-29.81,14.33-33.23,1.15-5.38,3.61-7.54,6.05-11.79-1.7-7.22,3.88-10.42,5.84-19.32,6.72-30.51,17.2-60.52,24.53-91.73l85.15,19.85Z"/>
  <path class="nestorShirt" d="m111.84,219.53c13.44,7.68,28.46,11.04,44.84,10.72,8.78-45.4,15.91-87.53,18.34-120.35l-32.92-8.73c-11.93,30.91-21.53,72.63-30.27,118.36Z"/>
  <g class="nestorJacket">
    <path d="m200.98,147.68c-3.37,9.08-6.68,17.83-9.38,22.78,5.29,1.83-9.89,35.75-8.12,59.81-4.14,9.07-23.08,12.23-28.99,19.92,1.18-27.81-1.78-54.04-2.15-82.61-.61-22.68,14.49-43.3,32.78-63.49l15.86,43.58Z"/>
    <path d="m138.49,166.51c-11.89,19.47-21.36,43.12-29.17,69.68-6.06-10.25-15.96-14.03-18.84-23.39,1.62-7.02,5.03-16.45,7.38-22.87,3.96-10.8,2.34-13.5,6.84-23.41-8.86-40.83-8.1-71.66,31.56-70.34,2.84,29.27,6.3,57.87,2.22,70.33Z"/>
  </g>
  <path class="clothingSilver" d="m183.15,181.63c-.05-.33-1.57.51-1.52.84,1.05,7.11-.11,17.33,1.71,27.1.07.38,1.42-.78,1.35-1.17-1.83-10-.59-20.89-1.54-26.77Z"/>
  <g class="nestorJacketLight">
    <path d="m185.86,212.18c-7.97,7.5-24.63,6.78-25.25,17.68l-1.01,11.2c2.44-10.82,20.11-10.12,25.5-17.73,1.56-2.2,2.16-12.48.75-11.16Z"/>
    <path d="m97.34,213.02c1.8-2.4,3.38-4.96,4.71-7.71,1.45-1.23-4.65-8.43-6.55-12.47-.78-.82-4.47,9.09-3.49,10.28,1.12,3.12,4.06,6.58,5.33,9.9Z"/>
    <path d="m163.53,223.23l-1.89,1.65c2.7-.5,3.68,8.95,2.19,10.54l2.2-1.41c1.76-1.78.04-11.23-2.5-10.78Z"/>
    <path d="m196.79,121.26c-23.35,9.76-41.99,17.71-44.45,46.33-2.92-39.39,29.08-47.4,22.47-67.86l1.23-3.54c8.25,1.81,17.47,23.25,20.75,25.07Z"/>
    <path d="m149.26,91.72c-7.54-1.85-15.7,7.08-24.31,13.08,3.42-.77,6.71-1.21,9.85-1.23-3.98,2.64-7.62,5.36-10.93,8.16,12,27.7,16.62,44.16,14.62,54.78,9.08-17.08-5.71-68,10.44-70.77l.33-4.02Z"/>
  </g>
  <g class="clothingBrass">
    <ellipse cx="158.11" cy="175.37" rx="2.66" ry="2.27" transform="translate(-77.03 153.86) rotate(-42.74)"/>
    <ellipse cx="171.22" cy="173.1" rx="2.66" ry="2.27" transform="translate(-72.01 162.16) rotate(-42.74)"/>
    <ellipse cx="182.27" cy="122.28" rx="2.66" ry="2.27" transform="translate(-34.58 156.16) rotate(-42.74)"/>
    <ellipse cx="129.06" cy="113.17" rx="2.66" ry="2.27" transform="translate(-42.53 117.63) rotate(-42.74)"/>
    <ellipse cx="170.42" cy="193.74" rx="2.66" ry="2.27" transform="translate(-86.22 167.09) rotate(-42.74)"/>
    <ellipse cx="159.11" cy="196.4" rx="2.66" ry="2.27" transform="translate(-91.04 160.12) rotate(-42.74)"/>
    <ellipse cx="159.51" cy="216.23" rx="2.66" ry="2.27" transform="translate(-104.39 165.66) rotate(-42.74)"/>
    <ellipse cx="169.42" cy="213.56" rx="2.66" ry="2.27" transform="translate(-99.95 171.68) rotate(-42.74)"/>
    <path d="m170.7,243.75c-3.18-2.75-7.5-5.95-10.31-7.3l-.2,2.35c2.55,1.31,6.17,4.21,9.68,7.02,1.09.88,2.54-.59.83-2.07Z"/>
    <path d="m159.8,231.62c1.52-.68,8.65,5.62,9.3,7.15.51,1.2-.08,11.32-1.29,11.8-1.34.48-8.38-6.53-8.56-7.73-.46-1.15-.05-10.94.55-11.21Zm1.06,10.31c.12.81,4.72,5.73,5.62,5.4.82-.32.88-6.85.53-7.66-.44-1.03-5.11-5.22-5.78-4.98-.42.15-.68,6.46-.37,7.24Z"/>
  </g>
  <g class="nestorJacket">
    <path d="m175.22,168.31c-6.83-.24-19.63-5.43-28.27-10.53-4.48-2.64-10.37-5.42-13.53-8.76-4.8-5.08-11.44-6.29-14.58-10.39-.94-4.36,8.82-20.43,10.76-20.31,4.15,1.65,9.3,5.57,12.36,8.63,2.84,2.85,8.21,2.11,13.64,6.65,2.64,2.21,6.03.81,7.87,2.66,1.31-1.24,2.99-.9,4.88.33.83-.9,2.04-1.02,3.55-.55,6.76-1.88,7.98-10.2,17.52-12.47-1.94-4.05-4.4-7.45-7.54-10,2.77-.89,7.24,3.49,10.93,3.69-5.24-5.77-4.56-8.62-7.69-13.17,4.1,1.85,8.11,3.71,12.31,5.21.43-3.59,8.63,1.77,13.05,7.19s2.6,17.4-.65,23.09c-4.06,7.09-9.65,11.27-15.12,16.44-5.98,5.64-15.11,12.45-19.48,12.3Z"/>
    <path d="m115.94,131.96c.83,10.76-3.9,9.37-3.43,12.43.83,4.92-3.28,4.67-2.69,7.14.76,3.2-1.21,4.73-2.78,7.05,3.12,4.78-3.71,10.3-11.78,12.24-6.69,1.61-9.74-1.95-12.62-5.19-1.92-2.17-.61-4.74-2.5-6.4-3.9-3.43-2.5-9,2.78-11.97.83-2.23-.28-5.77,2.97-6.59-1.76-6.4,1.9-4.51,2.78-6.86,1.12-2.99-1.76-5.29,4.36-8.63l22.91,6.77Z"/>
    <path d="m102.04,205.31c-7.42,15.43-23.15,24.74-37.58,35.01-.57.41-6.17,8.14-5.94,8.72.17.43,6.52,2.18,7.27,1.61,15.24-11.57,31.74-22.36,34.12-33.19.65-1.21,2.59-12.05,2.13-12.15Z"/>
  </g>
  <path class="zipperDisplayLine" d="m125.04,143.2c-3.13,5.25-4.45,19.52-7.02,26.41-5.85,15.64-11.97,44.47-14.4,59.28"/>
  <g class="clothesDisplayLine">
    <path d="m132.87,227.82c-1.25,10.88-1.65,23.54-2.45,37.22"/>
    <path d="m143.43,229.66c.13,7.46-1.32,16.88-1.88,22.96-.41,4.41-5.51,6.35-10.69,5.61"/>
    <path d="m40.87,393.93c-5.56,12.07-10.59,23.2-15.61,31.99,4.82,2.77,7.71,6.04,9.73,10.49"/>
    <path d="m37.93,392.24c-4.72,11.39-10.54,21.98-16.96,31.68-3.05-1.34-5.72-1.58-8.93-.88"/>
    <path d="m30.1,445.55c-1.18-10.03-16.76-17.98-23.31-17.04"/>
    <path d="m48.51,411.87c-3.48,4.5-5.65,9.87-6.47,16.13"/>
    <path d="m178.17,442.85c-10.49-1.82-20.96,2.72-22.13,13.81"/>
    <path d="m129.49,430.82c4.29,4.63,6.24,10.16,4.69,17.05"/>
    <path d="m153.65,412.18c-1.52,9.86-.17,17.9,6.01,24.29-6.04,4.02-10.86,9.4-13.79,15.45"/>
    <path d="m157.26,412.32c-1.25,8.46.27,16.54,6.4,23.23.4-.12.93-.23,1.56-.31"/>
  </g>
  <g class="clothesOverlapLine">
    <path d="m197.42,109.3c1.02,2.04,7.96,3.4,10.43,7.17"/>
  </g>
  <g class="clothesFoldLine">
    <path d="m191.6,170.46c.13,3.73-4.98,7.05-11.75,4.49"/>
    <path d="m103.49,185.17c-1.83,3.44-.51,7.66,3.96,12.64"/>
    <path d="m107.45,183.38c-5.87,5.49,2.3,13.02,6.51,19.28"/>
    <path d="m103.37,174.82c4.72-8.04,5.87-10.6,0-5.12"/>
    <path d="m116.14,157.33c7.53,5.49,20.68,16.22,6.38,14.05"/>
    <path d="m126.99,162.57c2.68,2.43,5.87,6.89,3.45,8.55"/>
    <path d="m82.91,147.27c2.2,11.6-3.55,12.75-1.89,4.06"/>
    <path d="m85.88,140.68c.8,1.63,1.18,3.75.89,6.69"/>
    <path d="m92.9,134.22c1.02,5.75,7.87,7.64,7.02,9.45-.89,1.92-10.09-1.53-12-6"/>
    <path d="m96.34,132.69c4.87,4.34,11.12,3.34,16.73,3.19"/>
    <path d="m111.79,139.84c-3.83.38-11.05-2.48-11.62-.89-.64,1.79,4.83,4.6,10.34,6.64"/>
    <path d="m106.3,149.16c-7.41,1.15-19.19-1.96-15.71,3.83,3.08,5.13,7.02,10.34,13.02,3.06"/>
    <path d="m107.03,158.58c-2,2.58-5.82,3.71-4.3,5.39"/>
    <path d="m146.27,114.43c2.94,1.96,4.91,4.26,5.11,7.15"/>
    <path d="m166.95,119.15c-2.6,1.1-4.95,2.74-6.89,5.24"/>
    <path d="m129.8,132.94c2.3,3.32,2.16,7.05,6.89,7.28,8.42.4,10.09-.64,17.24,10.73"/>
    <path d="m140.78,144.05c6.26-2.3,10.34,14.17,18.26,11.11"/>
    <path d="m144.61,182.49c-7.27,2.45-.86,4.46,8.4,6.38"/>
    <path d="m128.16,185.67c5.06,2.31,10.57,3.92,16.45,4.98"/>
    <path d="m133.5,207.89c6.49,2.69,13.39,4.24,20.65,4.79"/>
    <path d="m119.03,207.12c16.91,3.98,38.16,14.55,15.81,10.52"/>
    <path d="m125.55,219.63c9.01,3.43,18.74,5.21,29.06,5.64"/>
    <path d="m163.47,136.27c1.53,1.93,1.48,5.58-.3,11.11"/>
    <path d="m166.3,141.01c1.16,2.18,1.03,5.7-.12,10.3"/>
    <path d="m168.35,136.6c4.89,7.3.96,17.71,5.58,16.44,6.36-1.74,1.85-11.92-4.17-15.74"/>
    <path d="m185.73,150.38c-6.02-6.48-4.51,1.04-6.25,7.87"/>
    <path d="m171.9,136.05c3.83.59,7.82,4.04,10.37,8.44"/>
    <path d="m187.12,147.37c5.11-.8-.12-9.95-10.48-9.24"/>
    <path d="m187.7,131.64c9.14-1.5,7.41,2.55-7.06,4.17"/>
    <path d="m200.78,135.34c-5.21,1.62-12.83.61-6.36,6.94"/>
    <path d="m199.04,119.6c7.06-2.43.23-3.47-6.83,1.5"/>
    <path d="m203.44,122.15c-4.37-.18-8.51.3-12.27,1.85"/>
    <path d="m208.76,122.73c5.09,4.86-13.65-.35-26.38,5.67"/>
    <path d="m126.18,253.16c-9.61-3.84-18.96-7.45-27.98-10.76"/>
    <path d="m122.44,265.97c5.64-6.77-10.42.91-26.17,1.7"/>
    <path d="m157,259.39c-8.16-.33-16.41-.69-6.34,3.17"/>
    <path d="m147.48,252.6c3.67-1.1,8.75-1.46,14.28-1.59"/>
    <path d="m155.43,296.49c3.72,6.87,10.45,14.43,18.26,23.15"/>
    <path d="m155.81,302.14c1.65,2.71,3.3,5.11,5.08,7.15"/>
    <path d="m178.09,339.11c-6.44-6.05-18.02-13.01-16.98-9.56"/>
    <path d="m158.49,333.6c1.19,1.27,1.79,2.56,1.35,3.85"/>
    <path d="m169.79,342.62c-5.17.49-12.29-4-11.12,2.63"/>
    <path d="m161.91,404.16c-1.59.42-3.94-.09-5.49-.84"/>
    <path d="m152.42,391.6c3.02,1.56,5.27,6.54,11.12,4.78"/>
    <path d="m147.35,398.72c6.98,3.73,2.44,5.37-4.78,3.02"/>
    <path d="m38.16,375.89c1.95,7.51,10.46,10.17,9.37,11.71-.97,1.35-5.27-.59-7.12-2.15"/>
    <path d="m59.34,379.4c-3.9,1.95-12.25.42-6.04,5.39"/>
    <path d="m56.03,392.83c-3.82-.06-7.4,1.01-9.38.04"/>
    <path d="m31.41,383.9c.71,3.02,4.25,4.58,6.76,5.27"/>
    <path d="m63.04,317.66c1.21,4.15,3.93,7.07,7.82,9.04"/>
    <path d="m82.2,319.78c5.83,4.32-5.51,7.02-12.85.32"/>
    <path d="m64.16,327.13c3.46,6.37,13.84,7.61,12.96,9.61s-8.1,1.84-11.77.43"/>
    <path d="m80.36,341.81c-5.29,1.3-10.58-1.62-15.55-1.51"/>
  </g>
  <g class="skinIndian">
    <path d="m183.69,84.37c-3.7,3.91-7.49,19.54-8.66,25.53-3.61,3.86-5.12,4.15-8.7,4.94-3.57.79-7.86,3.39-11.61-.18-3.93-3.75-9.68-3.27-12.01-12.74.15-.41.32-.82.5-1.23"/>
    <path d="m129.13,118.5c-6.42-4.76-4.73-17.48-16.4-17.99-9.97-.43-14.34-5.85-16.66-2.59-1.9,2.66-1.06,4.36,3.19,7.85-3.19-.32-6.27-2.42-7.66,2.15-.56,2.97,2.98,4.15,5.92,6.01-2.58-.37-6.35-1.12-6.67,3.04-.22,2.87,3.53,3.65,6.91,4.51-2.78-.36-4.28-.58-5.29-.16-2.34.96-2.38,4.3-.13,5.48,2.96,1.56,4.92.83,10.88,3.49,7.28,3.26,11.32,2.01,16.68,3.19,2.25-5.79,7.27-13.71,9.23-14.98Z"/>
    <path d="m204.24,67.06c1.4,4.4-2.41,11.95-9.44,15.15-1.97.75-5.25,5.24-7.78.36-11.27,16.86-21.96,15.62-34.44,19.89-4.38,1.02-8.53.39-11.07-2.36-6.78-.63-5.62-8.08-7.65-11.86-10.25-19.02,2.98-34.14,2.55-38.95-.48-5.42,4-11,5.63-16.73,1.99-26.33,77.1,4.12,62.19,34.5Z"/>
    <path d="m91.33,79.26c.27,3.51,3.45,7.16,5.18,10.94,2.25,4.92,6.45,5.24,5.65,8.09.09,2.76,12.71,7.34,14.87,5.87,1.48-3.24,3.79-2.49,7.08-6.04,4.53-4.89,4.98-12.98,8.62-15.55,4.77-3.11,6.49-7.14,7.29-11.81.67-3.91-4.08-4.43-5.05-1.58-1.62,4.76-3.69,6.64-8.56,8.3,4.52-5.91,7.5-12.56,8.89-19.87.65-3.41-4.89-5.16-5.96-1.86-2.67,8.24-5.22,13.57-8.7,17.29.95-6.1,3.26-12.38,5.61-19.61,1.39-4.29-5.02-6.1-6.5-2.67-2.78,6.5-4.52,13.23-6.16,20.32.3-6.4,1.36-11.3,2.1-17.73.47-4.04-4.52-5.03-5.88-1.59-1.45,3.68-2.31,8.53-2.93,15.89-.49,5.74-1.93,10.71-6.54,11.89-3.64-.43-2.29-9.98-9.13-9.98-3.6.35-.16,5.09.12,9.72Z"/>
  </g>
  <g class="skinFoldLine">
    <path d="m193.82,70.92c9.38-9.64,11.86,3.69,1.01,8.83"/>
    <path d="m194.17,73.39c1.21,1.51-4.23,4.64-3,5.65,1.25,1.02,2-2.33,3.85-2.59,3.82-.54,5.47-5.53,1.76-4.53"/>
  </g>
  <path class="lipMaleBrown__noStroke" d="m143.94,83.62c.88,1.02,2.15,1.37,3.17,1.45,1.63,1.44,8,1.37,9.59,2.36-1.99.1-4.07,10.95-14.34,5.69-6.69-3.43-2.52-12.1-3.67-13.88,1.37.25,3.38,3.95,5.25,4.38Z"/>
  <g class="lipEdgeLine">
    <path d="m143.94,83.62c.88,1.02,2.15,1.37,3.17,1.45"/>
    <path d="m151.01,93.59c-4.75,2.8-13.09-1.17-12.55-7.11"/>
  </g>
  <g class="lipCornerLine">
    <path d="m158.42,87.31c-1.04.27-2.35-.07-3.49-.01"/>
    <path d="m140.48,81.45c-.81-1.27-1.73-2.05-2.1-3.75"/>
  </g>
  <path class="teeth" d="m154.92,87.3c-4.23,5.58-15.21,3.37-14.44-5.85,1.6,1.5,3,3.55,4.62,4.6,1.49.47,3.35.45,4.55.7,1.63.34,3.04.69,5.28.55Z"/>
  <path class="teethBorderLine" d="m140.5,83.4c2.4,4.81,9.83,6.8,13.66,4.75"/>
  <g class="cheekLine">
    <path d="m141.3,73.05c-.48.04-.95.21-1.39.46"/>
    <path d="m155.62,77.85c1.39.53,1.65,1.97,2.64,3.76,1.1,2.01,2.45,3.85,2.64,6.37"/>
  </g>
  <path class="noseLine" d="m155.62,77.85c.84,1.18.41,5.12-5.53,4.31-1.22-.16-6.7,1.98-8.3-3.61-.4-1.39-1.81-2.21-.87-4.7.84-2.22,3-3.14,4.85-5.98"/>
  <g class="eyeFoldLine">
    <path d="m170.08,72.2c-2.63.35-7.08-1.83-8.94-3.64"/>
    <path d="m144.92,61.5c-2.72-.22-4.92-1.07-6.21-2.53"/>
  </g>
  <g class="eyeLashLine">
    <path d="m157.77,66.76c6.4-.74,9.79,4.2,16.12,2.84"/>
    <path d="m137.2,53.39c2.32,6.06,8.06,5.44,10.2,7.61"/>
  </g>
  <g class="eyebrowBlack">
    <path d="m158.91,62.35c-1.62-.05-.55,1.77,1.75,2.7,3.93,1.6,9.91-1.56,16.04,1.38,2.44,1.17-.07-3.99-3.08-4.96-4.6-1.49-7.2,1.14-14.71.89Z"/>
    <path d="m148.16,56.9c-4.61-5.74-4.53-9.3-7.18-11.26-1.03-.76-2.53-.93-3.98-.89-.44.48-1.02,2.95-.61,3.55,5.44,1.64,6.58,7.76,9.02,8.95,1.86.91,3.71.84,2.75-.35Z"/>
  </g>
  <path class="hairBlack" d="m194.95,67.03c-4.47.11-6.64,11.18-9.13,16.01-1.39,2.7-3.57,3.18-6.15,3.1,5.01-7.97,9.72-19.61,9.03-22.13-2.25-8.26-5.6-6.45-.63-19.46-6.92-5.98-16.69-8.97-26.49-6.88-5.66-15.64-23.72,3.58-9.32,12.44-10.1-3.54-8.08-17.74,2.1-21.06-2.17-2.39-5.53-3.59-8.2-3.26-1.53,1.37-3.24,4.21-4.1,6.77-.67-2.65.77-5.74,2.87-8.08-2.93-8.89,2.09-19.28,10.72-22.03,5.08-1.61,10.84-3.23,16.58-1.36,4.32,1.41,11.28.51,17.13,3.77,5.23,2.92,13,5.06,16,10.23,4.12,7.1,14.43,13.75,6.49,25.93,3.7,2.68.37,17.79-7.59,26.03-1.38-3.26-5.6-4.08-9.29-.03Z"/>
  <g class="hairOverlapLine">
    <path d="m189.26,42.96c9.7-4.13,18.22-3.93,22.58-1.94"/>
    <path d="m154.35,29.04c.96-.31,2.2-.23,2.99.15"/>
  </g>
</svg>