<svg id="presence" xmlns="http://www.w3.org/2000/svg" viewBox="0 0 760.62 2024.68">
  <defs>
    <style>
      .cls-1 {
        fill: none;
        stroke: #000;
        stroke-miterlimit: 10;
        stroke-width: 2px;
      }
    </style>
  </defs>
  <title>epilogue</title>
  <g id="bradSock">
    <path class="cls-1" d="M437.46,1860.74a962,962,0,0,0,7.87-109c16.47,10.06,107.28,12.64,119.77,4.44-4.67,29.7-8.54,63.64-12,99.49Z"/>
    <path class="cls-1" d="M315.85,1855.17c-.4-34.9,2.47-69.22,3.78-99.29-19.49,8.5-95.41,11.63-111.4,2.43,1.62,32,2.69,64.65,3.39,97.83Z"/>
  </g>
  <g id="bradSole">
    <path class="cls-1" d="M119.49,1962.3c-19.21,66.83,124.08,82,177.46,31.07,22.15-21.13,28-16.08,42.75-40.19,2.82-4.6,3.14-16.11,1.57-30.52C341.27,1922.66,144.45,1927.16,119.49,1962.3Z"/>
    <path class="cls-1" d="M411.24,1919.79a191.13,191.13,0,0,0,3,29.51c2.87,16,14.33,14,30,37.31,38.67,57.24,227.84,34.3,181.09-39.73C592.17,1905.75,411.24,1919.79,411.24,1919.79Z"/>
  </g>
  <g id="bradShoe">
    <path class="cls-1" d="M261.31,1982c29-17.32,58.45-21.65,80-59.29-3.26-29.71-14.59-71.74-28.87-91.09-12.56-3.47-22.41,5.37-30.83,16.55-11.17-23.75-76.1-25.48-91.25-.8-11.26,25.1-15.15,61-33.77,75.32-21.26,16.32-32.48,23.74-37.06,39.66C147.9,1940.39,235.34,1940,261.31,1982Z"/>
    <path class="cls-1" d="M473.37,1977.41c25-50.8,127-53.91,152-30.53-9.75-15.44-25.86-24-36.8-36.8-24.53-28.83-17.75-48-33.76-76.62-.51,3.28-2.7,5.77-6.53,7.5-15.12-17.89-61.74-18.32-79.92,8.09a41.2,41.2,0,0,0-10.09-19.5c-28.32,5.46-48.11,41.36-47,90.24C433.34,1957,455.23,1958.13,473.37,1977.41Z"/>
  </g>
  <g id="bradShoelace">
    <path class="cls-1" d="M256.28,1922.65c10.66-16.89,7.2-28.58,15.86-51.09-26-7.27-64.83-9.12-90.5.21-6.2,20.14-12,40.84-25.09,50.87C188.84,1912.42,220.62,1910.52,256.28,1922.65Z"/>
    <path class="cls-1" d="M574,1910.49c-9.25-14.33-13.32-32.23-18.9-46.84-20.2-6.44-65.32-6-83.37,1.78,7.74,14.55,8.59,30.88,24.06,48.93C513.86,1904.91,553.4,1903.19,574,1910.49Z"/>
  </g>
  <g id="clothesOverlapLine">
    <path class="cls-1" d="M560,1877.65a239.07,239.07,0,0,0-82.18,2.33"/>
    <path class="cls-1" d="M565.78,1894q-45.43-7.86-80.7,4.2"/>
    <path class="cls-1" d="M267.06,1888.64c-30.36-8.66-68.61-8.66-90.74,0"/>
    <path class="cls-1" d="M263.34,1906.42c-33-10.54-69.19-10.11-93-2.4"/>
    <path class="cls-1" d="M468.37,1849.05c1.89,5.9,1.49,12.22,3.38,16.38"/>
    <path class="cls-1" d="M548.29,1841a91.77,91.77,0,0,1,6.83,22.69"/>
    <path class="cls-1" d="M281.57,1848.12a70.2,70.2,0,0,0-9.43,23.44"/>
  </g>
  <g id="skinWhite">
    <path class="cls-1" d="M597.5,1376.86c-2,20.47-.25,38.29,2,48.38,14.7,65.69-13.94,198-41.8,339.68l-106-2.33c-10.06-130-44.89-251.54-7.74-383.89Z"/>
    <path class="cls-1" d="M322.52,1377.16c31.73,135.44-4.74,311.91-9.39,388.53l-98.29,1.55c-20.13-105.26-54.13-213.94-48-280.18,3.1-33.39,6.19-73.53,5.87-122.29Z"/>
  </g>
  <path id="bradShorts" class="cls-1" d="M620.69,878.62c15.48,61.5,7.93,174.62,1.2,269.53-5.93,83.5.28,168.07-9.29,234.46-35.59,26.66-185.64,14.31-207.13,2.68,2.34-119.55-7.17-239.32-23.89-375.29-7.23,68-16.64,235.15-29.86,373.61-22.81,16.16-193,4.75-202.47-7.61,1-60.61-5.37-157-10.54-272.45C134.8,1016,133.29,918.4,145,868.37Z"/>
  <g id="clothesFoldLine">
    <path class="cls-1" d="M600.29,1114.57c-9.23,78.18-24.74,147.12-57.15,191.24"/>
    <path class="cls-1" d="M402,1008.06c30.68,2.6,52.8-12.58,119.5.87"/>
    <path class="cls-1" d="M345.71,1013.52c-45.76-2-119.9,20.31-116,36.1,2.23,9.11,36-15.54,62.35-12.12"/>
    <path class="cls-1" d="M403.61,1020.37c32.1,18.22,91.52,30.62,87.62,47.11-1.29,5.4-7.08,4.2-12.15,1.3"/>
  </g>
  <g id="skinWhite-2" data-name="skinWhite">
    <path class="cls-1" d="M708.21,852.16c23.89-123.31,59.63-251.45,49.72-337-2.56-22.07-8-45.93-15.5-70.37l-122,15.2c1.94,21.31,7.75,39,14.21,55.17-18.08,55.52,3.67,187.35-13.26,341.12"/>
    <path class="cls-1" d="M132.11,855.41c-18.31-141.29,16.83-254-3.67-338.23,3.3-16.64,3.67-43.93,9.52-73.21-2.93.73-122.26-7.32-122.26-7.32A439.17,439.17,0,0,0,4,498.15c-13.4,106.53,21.23,216,45.39,360.19"/>
    <path class="cls-1" d="M493.25,43.5,471.92,1H292L277.42,38.89C281.91,138.39,495.59,125.36,493.25,43.5Z"/>
  </g>
  <g id="skinFoldLine">
    <path class="cls-1" d="M128.44,517.18c-16.68-11.09-36.49-15.78-56.55-18"/>
    <path class="cls-1" d="M634.62,515.15c14.1-7.12,29.48-10,45.7-9.93"/>
  </g>
  <path id="bradShirt" class="cls-1" d="M493.25,43.5c82.31,40.89,163.32,47.36,193.32,87,35.08,46.34,31.15,183,68.29,307.06,3.27,18.76-15.64,16-28.65,22-11.45,5.31-21.56,19.88-39.74,18.24-23.18-2.08-45.61-14.33-70.16-9.69,4.93,88.19,2.41,172.56,2,237-.05,8,30.33,30.64-4.07,74,14.24,15.75,14.07,35.59,3.39,58.41,27.76,27.2-6.12,28.5,8.15,48.9-35.75,17.52-108,2.77-172.5,11.55-114.73,15.61-170.11-3.91-218.69-8.15-33.5-2.93-71.94-14.68-96.44-21.06-3.24-6.91-3.18-14.93,1.36-24.45-10.73-25.84,16.63-24.54,12.22-49.57-24.91-32.95-5.22-47.8-4.75-60.45,3.3-89.11,4.19-184.28,1.36-285.24-26.08,9.16-56.57,23.63-77.54,13.07C54.63,454,10.25,449.79,1.68,437.55,16.77,335.13,52.9,241.39,64.16,168.61,77.6,81.76,190.05,83,277.42,38.89,281.91,138.39,495.59,125.36,493.25,43.5Z"/>
  <g id="clothesOverlapLine-2" data-name="clothesOverlapLine">
    <path class="cls-1" d="M135,222.18c34.75-82.06,8.69,111,13.34,226.92"/>
    <path class="cls-1" d="M636,272.37c0-32.82-27.22-87.82-22.21-35.71,9.66,100.39,3.87,86.87,2.48,231.45"/>
  </g>
  <g id="clothesFoldLine-2" data-name="clothesFoldLine">
    <path class="cls-1" d="M685.28,276.68C685,333.42,694.34,385,716.63,429.74"/>
    <path class="cls-1" d="M662.53,354.75c-2.6,27.58-8.09,54.43-19,79.91"/>
    <path class="cls-1" d="M610.28,156.2c-12.29,41.18-10.39,80.58-12.91,89.13-1.82,6.2-12.9-1.84-9.22-62.08"/>
    <path class="cls-1" d="M476.28,171.57C442.88,205.35,389,228.12,346,257.62"/>
    <path class="cls-1" d="M403.13,237.34c-36.88,22.13-64.55,44.87-100.2,59.62"/>
    <path class="cls-1" d="M69.35,244.72c21.15,1.6,12.29,91-9.22,181.33"/>
    <path class="cls-1" d="M108.69,317.86c-4.92,28.9.61,86.68,6.76,111.88"/>
    <path class="cls-1" d="M157.86,174c6.15,105.73,28.89,35,9.22-43.64"/>
    <path class="cls-1" d="M288.84,713.17c-37.39,49.23-88.5,102.21-137.11,44.25"/>
    <path class="cls-1" d="M151.77,794.79c24.27,34.3,86.48,42.76,83.47,54.87-3.1,12.5-30.57,3.33-66.68-16.21"/>
    <path class="cls-1" d="M139.55,844.36c4.23,5.66,10.93,8.22,19,9"/>
    <path class="cls-1" d="M250.2,805.41c-31.16,15,31.16,44.25,96.61,53.6"/>
    <path class="cls-1" d="M294.45,818.5c134.62,48,215.65,0,235.59,3.11,12.58,2-.62,18.7-38,23.69"/>
    <path class="cls-1" d="M609.82,736.23c-3.74,38.64-81.5,67.67-154,64.19"/>
    <path class="cls-1" d="M617.67,837.57C589.29,860,521,872.67,421,877.7"/>
    <path class="cls-1" d="M614.28,779.16c-25,21.89-85.54,40.71-12.57,30"/>
  </g>
</svg>
