<svg viewBox="0 0 117.36 407.68">
  <g class="sockWhite">
    <path d="M67.48,382.33a146.42,146.42,0,0,0,1.21-16.79c2.54,1.55,16.53,1.95,18.45.69-.72,4.57-1.31,9.8-1.85,15.32Z"/>
    <path d="M48.75,381.47c-.06-5.37.38-10.66.58-15.29-3,1.31-14.7,1.79-17.16.37q.38,7.4.52,15.07Z"/>
  </g>
  <g class="soleWhite">
    <path d="M18.5,398c-3,10.29,19.11,12.62,27.34,4.78,3.41-3.25,4.31-2.47,6.58-6.19.44-.71.49-2.48.24-4.7C52.66,391.87,22.35,392.56,18.5,398Z"/>
    <path d="M63.44,391.43a28.34,28.34,0,0,0,.47,4.54c.44,2.47,2.2,2.17,4.62,5.75,6,8.82,35.1,5.28,27.9-6.12C91.31,389.26,63.44,391.43,63.44,391.43Z"/>
  </g>
  <g class="bradShoe">
    <path d="M40.35,401c4.47-2.67,9-3.33,12.31-9.13-.5-4.58-2.24-11.05-4.44-14-1.94-.54-3.46.83-4.75,2.55-1.72-3.66-11.72-3.93-14.06-.13-1.73,3.87-2.33,9.41-5.2,11.61-3.27,2.51-5,3.65-5.71,6.11C22.88,394.6,36.35,394.53,40.35,401Z"/>
    <path d="M73,400.3c3.85-7.82,19.57-8.3,23.42-4.7-1.51-2.38-4-3.69-5.67-5.67-3.78-4.44-2.73-7.4-5.2-11.8a1.54,1.54,0,0,1-1,1.15c-2.33-2.75-9.51-2.82-12.31,1.25a6.38,6.38,0,0,0-1.55-3c-4.36.84-7.41,6.37-7.25,13.9C66.85,397.15,70.22,397.33,73,400.3Z"/>
  </g>
  <g class="shoelace">
    <path d="M39.57,391.87c1.64-2.6,1.11-4.4,2.44-7.87-4-1.12-10-1.41-13.94,0-.95,3.1-1.85,6.29-3.86,7.84A23.43,23.43,0,0,1,39.57,391.87Z"/>
    <path d="M88.52,390c-1.43-2.21-2.06-5-2.92-7.22-3.11-1-10.06-.93-12.84.27,1.19,2.25,1.33,4.76,3.71,7.54C79.25,389.13,85.34,388.87,88.52,390Z"/>
  </g>
  <path class="hairSandy" d="M88.53,55.44C97,14.89,65.07,15,62.86,2.77,62.1,9.66,58.31,7.1,60.7.37c-7.83,2.22-8.41,8-12.57,10.67C34.55,20.6,24.38,29.44,28.91,55.13,28.79,79.34,88.4,79.65,88.53,55.44Z"/>
  <path class="hairEdgeLine" d="M58.34,13.46C56.92,18,62.24,22,58.68,31"/>
  <g class="eye">
    <rect class="sclera" x="36.23" y="54.95" width="44.38" height="11.08"/>
    <g class="irisBlue">
      <circle cx="71.57" cy="59.9" r="3.14"/>
      <circle cx="45.43" cy="59.9" r="3.14"/>
    </g>
    <g class="pupil">
      <circle cx="71.57" cy="59.9" r="1.22"/>
      <circle cx="45.43" cy="59.9" r="1.22"/>
    </g>
  </g>
  <g class="skinNordic">
    <path d="M86.2,366.56c4.23-21.43,8.47-41.35,6.24-51.31a23.32,23.32,0,0,1-.43-5.41c-5.8,1.84-17.21,1.45-24.12.49-4.64,19.08.06,36.77,1.67,55.58C73.06,367,82.83,367.32,86.2,366.56Z"/>
    <path d="M48.41,366.49c1-12,5.77-36.79,1.79-56.67a111,111,0,0,1-23.51-1c-.06,6.25-.48,11.51-.89,16-.93,10,4.06,26.22,7.18,42.1C36.23,367.79,44.82,367.46,48.41,366.49Z"/>
    <path d="M95.81,227.61c2.6-23.69-.74-44,2-52.55a29.59,29.59,0,0,1-2.19-8.5l18.8-2.34a62,62,0,0,1,2.38,10.84c1.53,13.18-4,32.92-7.65,51.91-2.72,9.18,2.8,14.8.52,20.61-1.17,3-2.25,9.14-5,8.78a4.72,4.72,0,0,1-4.71,3.05,6.69,6.69,0,0,1-5.56,1.95Z"/>
    <path d="M20.44,227.47c-2.81-21.76,2.6-39.13-.56-52.09.51-2.57.56-6.77,1.47-11.28C20.9,164.21,2.51,163,2.51,163a68.4,68.4,0,0,0-1.8,9.47c-2.06,16.41,3.27,33.27,7,55.49.3,4-2.74,6.1-3.17,14.25-.24,4.75-.4,10.54,2.8,11.47.27,1.73,3.13,2.24,4.6,2.29.77,3.08,4.09,4.85,5.8,4.38,1.71,2.79,3.65,2.73,5.6,2.53C28.14,236.58,20.53,230.45,20.44,227.47Z"/>
    <path d="M76.69,102.41c-2.9-1.55-3.4-11.51-2.65-20l-29.36.5c-.25,8.46,1,17.42-2.47,18.76C42.9,117,77.05,115,76.69,102.41Z"/>
    <path d="M31.64,60.49c.34-12.82,4.55-15,3.49-27A44.64,44.64,0,0,1,59,33.77c8.67-2.24,16.81-2.72,24-.11-1.39,14.28,2.52,11.83,2.87,27.14.93-2.25.72-4.37,1.29-4.87,4.13-2.52,6.58,4.94,3.28,14.69-.9,2.63-.49,5.48-4.55,5.69C82.06,92,72.4,94.21,68.06,97.64c-4,3.19-13.05,3.14-17.78.13-6.3-4-16.22-8-18.47-21.39-4.09-.5-3.33-1.72-4.86-6-2.38-6.59-1.9-17.83,3.76-14.75C31.5,56.63,30.74,58.47,31.64,60.49ZM66.32,61a16.58,16.58,0,0,0,4.89.8c2.69.09,4.1-.85,6.8-1.29-2.1-1.29-3.37-3.06-6.41-3.14-3.2-.08-4.54,1.37-6.36,2.84C64.48,60.8,65.89,60.84,66.32,61ZM51.8,60.53c-1.85-1.79-3.33-3.13-6.22-3.06s-4.72,1.81-6.14,2.86a10.31,10.31,0,0,0,5.45,1.82,17,17,0,0,0,5.69-.9C51,61.15,52.58,61.28,51.8,60.53Z"/>
  </g>
  <path class="bradShorts" d="M95.7,231.05c2.39,9.47,1.23,26.9.19,41.52-.91,12.86,0,25.89-1.43,36.11-5.48,4.11-28.6,2.21-31.91.42.36-18.42-1.1-36.87-3.68-57.81-1.11,10.47-2.56,36.22-4.6,57.55-3.51,2.49-29.72.73-31.18-1.18.16-9.33-.83-24.18-1.63-42-.6-13.49-.83-28.52,1-36.23Z"/>
  <g class="skinOverlapLine">
    <path d="M104.72,256.36a27.58,27.58,0,0,0,1.75-6.5"/>
    <path d="M102.37,251.48a35.58,35.58,0,0,1-2.36,7.93"/>
    <path d="M6.9,248.32c.36,2.41.08,3.85.43,5.33"/>
    <path d="M10.2,250.19c.36,1.52,1.2,4.17,1.73,5.75"/>
    <path d="M15,250.82s1.73,7.85,2.71,9.5"/>
    <path d="M85.87,60.8c0,3.39,1.06,7.61,0,15.51"/>
    <path d="M31.64,60.49c.17,4.21-.86,9,.17,15.89"/>
  </g>
  <g class="skinFoldLine">
    <path d="M19.88,175.38a19.32,19.32,0,0,0-8.71-2.78"/>
    <path d="M97.85,175.06a15.32,15.32,0,0,1,7-1.53"/>
    <path d="M85.87,60.8c2.78-6.87,6.4,1,3.79,6.65"/>
    <path d="M86.34,69.86c1.29.28,1.11-1.8,1.59-2.61,1.84-3.08.61-4.52-.19-4.48"/>
    <path d="M31.64,60.49c-4-5.65-6,2.28-3.34,7.74"/>
    <path d="M31.35,70.5c-1.88-.46-1.62-2.11-2-3-1.68-3.71-.18-6.05.58-5"/>
  </g>
  <g class="skinEdgeLine">
    <path d="M109.54,245.89c-1.9,1.91-1.66.4-4,2.06-1.44,1-3-.16-5.36,1.56"/>
    <path d="M18.14,247.25c-2.5.71-3.4-.52-4.91-.36-3.21.36-2.92-1.42-4.28-1.33-2.76.18-1.87-1.07-3.12-1.79"/>
  </g>
  <path class="bradShirt" d="M76.69,102.41c12.68,6.3,24.54,7.3,29.16,13.4,5.41,7.14,4.8,28.18,10.52,47.3.5,2.89-2.41,2.46-4.41,3.39-1.77.82-3.32,3.06-6.12,2.81-3.57-.32-7-2.21-10.81-1.49.76,13.58.37,26.58.31,36.51,0,1.23,4.68,4.72-.62,11.4,2.19,2.43,2.16,5.48.52,9,4.27,4.19-.94,4.39,1.25,7.53-5.5,2.7-16.64.43-26.57,1.78-17.67,2.4-26.2-.6-33.68-1.26-5.16-.45-11.08-2.26-14.86-3.24a4.23,4.23,0,0,1,.21-3.77c-1.65-4,2.56-3.78,1.88-7.63-3.83-5.08-.8-7.37-.73-9.31.51-13.73.65-28.39.21-43.94-4,1.41-8.71,3.64-11.94,2-2.5-1.26-9.33-1.91-10.66-3.79,2.33-15.78,7.89-30.22,9.63-41.43,2.07-13.38,18.78-13.18,32.23-20C42.9,117,77.05,115,76.69,102.41Z"/>
  <g class="clothesOverlapLine">
    <path d="M20.9,129.93c5.35-12.64,1.33,17.1,2.05,35"/>
    <path d="M98.07,137.67c0-5.06-4.19-13.53-3.42-5.51,1.49,15.47.59,13.39.38,35.66"/>
    <path d="M86.35,384.94a36.68,36.68,0,0,0-12.66.36"/>
    <path d="M87.25,387.46a24.89,24.89,0,0,0-12.43.65"/>
    <path d="M41.23,386.63c-4.67-1.33-10.57-1.33-14,0"/>
    <path d="M40.66,389.37A25,25,0,0,0,26.33,389"/>
    <path d="M72.24,380.53c.29.91.23,1.88.52,2.52"/>
    <path d="M84.55,379.28a14,14,0,0,1,1,3.5"/>
    <path d="M43.47,380.39A10.89,10.89,0,0,0,42,384"/>
  </g>
  <g class="clothesFoldLine">
    <path d="M105.65,138.33c0,8.74,1.4,16.69,4.83,23.58"/>
    <path d="M102.15,150.35a40.35,40.35,0,0,1-2.94,12.31"/>
    <path d="M94.1,119.77c-1.89,6.34-1.6,12.41-2,13.73-.28.95-2-.28-1.42-9.56"/>
    <path d="M73.46,122.14c-5.14,5.2-13.45,8.71-20.07,13.25"/>
    <path d="M62.19,132.27c-5.68,3.41-9.94,6.91-15.43,9.18"/>
    <path d="M10.78,133.41c3.26.24,1.89,14-1.42,27.93"/>
    <path d="M16.84,144.67c-.76,4.45.09,13.35,1,17.24"/>
    <path d="M24.41,122.52c.95,16.28,4.45,5.39,1.42-6.73"/>
    <path d="M44.59,205.56c-5.76,7.59-13.63,15.75-21.12,6.82"/>
    <path d="M23.47,218.14c3.74,5.28,13.33,6.58,12.86,8.45s-4.71.51-10.27-2.5"/>
    <path d="M21.59,225.77a3.93,3.93,0,0,0,2.93,1.39"/>
    <path d="M38.64,219.77c-4.8,2.31,4.8,6.82,14.88,8.26"/>
    <path d="M45.45,221.79c20.74,7.39,33.22,0,36.29.48,1.94.3-.09,2.88-5.85,3.65"/>
    <path d="M94,209.12c-.58,5.95-12.55,10.42-23.71,9.88"/>
    <path d="M95.24,224.73c-4.37,3.45-14.9,5.4-30.3,6.18"/>
    <path d="M94.72,215.73c-3.86,3.37-13.18,6.27-1.94,4.62"/>
    <path d="M92.56,267.39c-1.42,12.05-3.81,22.67-8.8,29.46"/>
    <path d="M62,251c4.72.4,8.13-1.94,18.4.13"/>
    <path d="M53.35,251.83c-7.05-.31-18.47,3.13-17.88,5.56.35,1.4,5.55-2.39,9.61-1.87"/>
    <path d="M62.27,252.88c4.94,2.81,14.09,4.72,13.49,7.26-.19.83-1.09.65-1.87.2"/>
  </g>
  <path class="lipMaleLight__noStroke" d="M58.41,90.11c6.44.14,7.45-6.69,10.51-8.82-3.09-.11-6.66.52-8,0a10.45,10.45,0,0,1-5,0c-1.72.66-4.66,0-7.49,0C51.31,82.83,51.86,90,58.41,90.11Z"/>
  <path class="teeth" d="M50,81.86c6.49,6.17,10.92,5.52,17.5-.14-3.71,0-5.9,1.26-9.15,1.26S53.29,82.05,50,81.86Z"/>
  <g class="lipOverlapLine">
    <path d="M69.53,80.75a3.8,3.8,0,0,1-2,1"/>
    <path d="M50,81.86a4.39,4.39,0,0,1-2.46-1.2"/>
  </g>
  <g class="lipEdgeLine">
    <path d="M60.9,81.31a10.45,10.45,0,0,1-5,0"/>
    <path d="M64.42,87.2a7.41,7.41,0,0,1-11.55.28"/>
  </g>
  <g class="noseLine">
    <path d="M64.62,72.19a2.38,2.38,0,0,1,.42,4"/>
    <path d="M53,72.24c-1.12.54-1.28,2.88.05,3.84"/>
    <path d="M54.3,75.66c1.41-.11,1.49,1.43,4.29,1.49,2.44.06,2.95-1.66,4.59-1.55"/>
  </g>
  <g class="eyeFoldLine">
    <path d="M74.92,63.17c-1.34,1-4.91,1.12-6.51.27"/>
    <path d="M48.34,63.81c-1.36,1-5.28,1-6.83-.21"/>
  </g>
  <g class="eyeCornerLine">
    <path d="M39.44,60.33a6.24,6.24,0,0,1-2.09.94"/>
    <path d="M79.69,60.87A5.72,5.72,0,0,1,78,60.49"/>
  </g>
  <g class="eyeCreaseLine">
    <path d="M39.86,58.21c2.21-2.39,7.2-3.21,10.29-.75"/>
    <path d="M65.84,57.73c2.46-2.19,7.53-3.15,10.57-.11"/>
  </g>
  <g class="eyebrowSandy">
    <path d="M36.77,54.62c4.42-4.62,12.9-3.83,16.52-1.46C52.57,56.51,47.63,48.88,36.77,54.62Z"/>
    <path d="M81.38,55.33c-4.62-4.4-13.47-4.69-16.78-2.77C65.13,56.18,70.33,49.54,81.38,55.33Z"/>
  </g>
</svg>
