<svg class="presence" 
    xmlns="http://www.w3.org/2000/svg" viewBox="0 0 1067.78 2634.36">
    <g class="sockWhite">
        <path d="M856.86,2298.5c6.4,24.35,9.78,45.86,17,64.92-8.07,45.64-44.78,56.22-106.33,36.36-6.3-24.76-16.79-46.86-23.6-66.77C763.17,2339.6,846.51,2314.68,856.86,2298.5Z"/>
        <path d="M323.45,2355.89c-13.27,8-110.87-2.28-121.76-13.53-3.6,31.28-2.36,63.92-7.33,97.52,57.06,36.1,107.72,28.8,119.28-22.49C315.2,2398.31,321.69,2377.9,323.45,2355.89Z"/>
    </g>
    <g class="soleWhite">
        <path d="M939.56,2448.74l-303,113c-14.45,13.42-21.13,28.44-6.55,46.45,28.43,35.11,132.09,38.41,201.37-21.39,40.52-35,98-57.74,115.81-104.9C949.26,2476.52,946.08,2463.92,939.56,2448.74Z"/>
        <path d="M20.1,2542.78c-21,16.22-27.1,36.22-6,60.74,19.41,22.53,106,27.66,170.6,6.72,55.2-17.9,153-10.26,155.26-48.64a212.91,212.91,0,0,0,2.43-24.84S54.69,2529.06,20.1,2542.78Z"/>
    </g>
    <g class="bradShoe">
        <path d="M737.06,2598.71c29.93,7.4,64.07-23.44,107.43-51.36,38.27-24.64,79.11-45,95.07-98.61-13.36-31.1-40.73-73-65.73-85.32-9,17.86-29.69,32.38-45.17,38-24-26.53-52.51-24.37-71.89,1.27-25.47,50.81-25.3,80.77-51.88,109.66-14.47,15.73-48.62,31-68.32,49.29C665.64,2555.65,716.62,2564.63,737.06,2598.71Z"/>
        <path d="M313.64,2417.39c-12.75,15.41-43.54,22.78-63.93,25.15-6.81-25.77-48.74-35.11-67.08-17.29-34.58,26.73-62.44,77.83-85.84,84.37-31.18,8.69-59.14,19.61-76.69,33.16,30.92.09,68.67,19.19,85.5,53.31,39.83,3.89,70.85-11.14,112.67-16.25,47.72-5.82,93.49-15.22,124.15-43.08A228.77,228.77,0,0,0,313.64,2417.39Z"/>
    </g>
    <g class="shoelace">
        <path d="M759.59,2519.58a296.22,296.22,0,0,0,39.31-77c-17.87-7.08-36.84-9-56.75-6.57-12.3,31.88-17.06,54.47-37.26,76.43C721.58,2511.3,740,2514.16,759.59,2519.58Z"/>
        <path d="M208.83,2472.94c-17.39-10.07-35.81-17.12-55.65-18.82-21.49,24.58-40,50.93-56.39,55.5a157.78,157.78,0,0,1,54.45,18C175.18,2511.16,188.92,2493.38,208.83,2472.94Z"/>
    </g>
    <path class="bradShorts" d="M761.74,1425.76c17.93,36.07,14.85,175.61,15,298,.09,78.71,13.58,170.31,10.3,235.19-20.61,20.61-198.64,38.42-236.12,19.68-13.81-55.17-18.74-201.46-45.91-315.77-26.24,121.81-39.85,260.82-63.72,313-20.62,23.43-210.83-3.74-238.81-32.92,15.84-60.69,24.66-199,44-291.28,19.77-94.16,33.19-183.8,51.41-240.81Z"/>
    <path class="bradShirt" d="M763.81,1391.18c11.31,5.32,15.33,13,4.07,25.68,7,5.14,6.45,11.89,3,19.27C653,1468,425.45,1471,289.33,1426.24q-2.15-25.85,12.16-42.42Z"/>
    <path class="bradHoodie" d="M704.9,644.31c13.15-7.89,34.72,3.68,35.77,15.25,17.35-2.1,23.13,10.24,35.76,14.21,17.34,5.45,37.87.52,41,30,19.89,5.81,31.56,25.24,44.18,39.12,43.65,6.11,14.73,34,102,82.9,16.36,2.37,25.69,10,26.82,23.67,21.56,3.15,36.29-5.79,50,33.66,6.39,18.45,50.68,56.18,7.89,101-33.68,35.26-62.59,72.06-109.93,62.07-15.37,9.94-29.87,12.9-43.13,5.78-5.26,31.56-46.81,45.24-63.11,24.2-15.78,5.26-33.34,20.61-47.87,20.51-60.48,77.32,18.41,183-26.3,234,5.36,1.33,11.14,58.38,5.79,60.49-87.84,34.71-356.22,35.55-462.32-7.36-5.89-2.39,6.72-54.29,11-53.13-8.94-8.94-8.12-37.13,2.63-57.85-16.83-44.71,3.12-71.1,3.69-107.83.62-40.34-12-72.55,3.15-123.6,7.39-24.86,2.11-56.27,11.05-93.62-65,84.87-99.84,95.23-126.23,96.78-13.52.79-23.83,9.52-36.82,4.21-11.57-4.74-29.31-26.7-22.09-51.55-16.16-23-18.88-48.11-23.14-74.16s-10.07-53-2.63-82.05c-15.26-16.83-1.58-35.76-5.26-46.81-17.41-9.86-19.34-24.37-8.94-42.6C106.36,719,94,704.33,93.73,683.23s92.6-31.78,101-11.57c7,17,5.26,52.07,8.41,64.17,34.19-2.1,23.6,26.19,27.35,49.44,3.15,19.43,12.63,27.35,0,44.71,6.33,3.16,5.79,10,7.89,15.25C269.93,820,272,782.15,295.7,776.85,291,750,309.9,749.5,316.22,737.41c4.68-9,13.15-37.35,33.13-34.72,7.93-23.08,26.54-34.75,54.18-36.81,10-18.41,18.4-15.26,25.77-25.25,8.5-11.54,15.39-19.76,43.13-31C521.68,589.58,670.19,580.14,704.9,644.31Zm96.7,322.75c9.59-6.27,19.18-8.63,28.77-5.12,15.35-5.75,18.54-21.1,34.16-30.14-16.26.09-39.27-22.09-56.37-32.12C811.19,931.45,798.3,948.85,801.6,967.06Z"/>
    <g class="clothesOverlapLine">
        <path d="M1011.72,901.8c-82.45-31.72-94.37,19.07-147.19,30"/>
        <path d="M784.32,1096.64"/>
        <path d="M801.6,967.06c-12.4,5.48-19.41,13.4-17.46,25.37-24.93,18-63,13.7-63,31.51"/>
        <path d="M333.05,947.79c0-44.44,14.71-74.9,13.48-110.39"/>
        <path d="M238.37,845.23c-1,4.93,21.65,17.7,25.9,68.75"/>
        <path d="M793.38,882.94a42.77,42.77,0,0,0,14.78,16.74"/>
        <path d="M403.53,665.88c7.76,55.34,54.61,86.38,120.66,83,42.34,21.45,86.37-5.65,123.63-23.71,34.63-16.79,62.66-16.94,92.85-65.61"/>
        <path d="M315.16,1272.84c9.39-18.91,17.37-60,41.27-98.33,68.56,8.92,192,17.83,240,6.86,28.11,44.57,17.09,56,26.05,87.08,10.29,35.65,26.11,29.22,37.77,71-132.33,48.68-237.29,35.92-347.69-8.8"/>
        <path d="M203.13,735.83c-19.83,19.25-67,27.12-95.19,15.78"/>
        <path d="M784.14,992.43c40.28-6.27,79.62,46.83,48.05,83.7"/>
        <path d="M758,1330.69c-41.76,23.23-163.69,42.9-200.16,35.44"/>
        <path d="M183.47,2499.79q-26.62-14.39-53.25-18.71"/>
        <path d="M196.12,2486.37a189.36,189.36,0,0,0-54.24-19"/>
        <path d="M167.61,2514.93q-21.75-14.13-51.34-18.51"/>
        <path d="M782.66,2481.32c-18.35-5.93-36.33-9.3-53.81-9.25"/>
        <path d="M791.32,2462.51c-19.13-5.93-37.76-9-55.78-8.61"/>
        <path d="M771.53,2501.47c-18.35-6.06-35.79-9.61-51.89-9.46"/>
        <path d="M828.66,2401.47c-20.06,8.25-22.36,26.3-29.76,41.07"/>
        <path d="M249.71,2442.54c-15.91.8-28.24,17.1-40.88,30.4"/>
    </g>
    <g class="clothesFoldLine">
        <path d="M704.9,644.31c-9.35,8.64-16.09,49.58-27.49,21.59"/>
        <path d="M817.46,703.75c-43.14.5-77.34,62.69-63.35,70.46,11.35,6.31,7.77-21.76,23.32-37.31"/>
        <path d="M861.64,742.87c13.22,16.31,24,38.15,3.89,61.4"/>
        <path d="M963.68,825.77c-15.24,2.85-38.29.76-45.29,13.22"/>
        <path d="M990.5,849.44c-22.19-3.27-41.73.92-57.6,15.46"/>
        <path d="M992.49,878.37c-31.09-2.59-61.6,3-81.93,32"/>
        <path d="M864.53,931.8c26.39-5.75,49.71,11.35,64.74,2"/>
        <path d="M830.37,961.94c25.83,6.6,39.82,44.95,46.27,43.71,6.53-3.35.8-12.74-9-24.15"/>
        <path d="M895.3,1051.93c5.47-22.75,1.32-44.52,17.91-30.53"/>
        <path d="M938.43,1046.15c7-12.41,21.42-3.5,51.47-31.48"/>
        <path d="M754.11,849.35c9.23,25.15,21,41.27,39.27,33.59-10.77-29.44-.4-71.42-10.25-73-8.76-1.39-13.55,31.09-6.81,58.56"/>
        <path d="M698.66,921.9c12.81,22,26.83,40.11,43,51.31"/>
        <path d="M656.68,896c19.18,32.65,47.56,63.17,49.75,90.69"/>
        <path d="M624.55,988.76c8.57,30.55,24.55,58.49,46.13,84.47"/>
        <path d="M552,937.45c25.91,39.39,58.56,103.13,71,147.7"/>
        <path d="M396.54,1031.25c-13,42.06-27.75,81.19-45.09,116.08"/>
        <path d="M394,932.27q-6.48,72.29-45.09,137.33"/>
        <path d="M571.18,1230.25c-22.89,27.49-49.95,44.11-82.4,46.64"/>
        <path d="M619.89,1316.27c-21.29,16.67-57.52,19.18-87.06,25.4"/>
        <path d="M339.53,1292.43c25,2.38,47.16,25.92,81.36,42.5"/>
        <path d="M349.35,702.69c-5.15,21.25,34.61,54.08-4.64,44.57"/>
        <path d="M295.7,776.85c10.15,15.5,31.14,22.84,17.92,30.53"/>
        <path d="M335.39,799.6c9.82-26.84,15,5.19,11.14,37.8-6.94-1-13.37-6.9-19.44-16.55"/>
        <path d="M289.26,883.56c16.38,13.9,32.31,22.34,47.62,23.39"/>
        <path d="M116.88,794.21c26.24,2.28,56.58-16.24,73.92,1.25"/>
        <path d="M122.14,841c11.22,5.75,15.2,11,7.51,15.59"/>
        <path d="M230.48,830c-16.88,35.44-59.07,52.33-38.12,74.31"/>
        <path d="M236.41,930.71c-10.89,27.47-32.65,32.65-39.39,42.5"/>
        <path d="M147.91,997.23c9.21,19,28.7,27.6,25.79,36.09"/>
        <path d="M270.09,994.46c20.21-29,14.84-80.4-5.82-80.48-2.44,25.13-47.33,61.9-39.78,73.22,6.21,9.33,26.43-5.18,35.24-28.5"/>
        <path d="M429.3,640.63c-3.95,9.32-3.24,21.46,4.2,37.69"/>
        <path d="M756.9,1797c2.41,60.09-11.84,112-49.48,152.5"/>
        <path d="M438.79,1745.53c-32.32,46.45-93.92,61.6-139.37,91.9"/>
        <path d="M474.14,1645.55c-32.7,44.23-89.86,81.17-145.43,127.25"/>
        <path d="M526.65,1657.67c20.23,20.08,50,47.44,73.72,79.78"/>
        <path d="M526.65,1633.43c28.36,3.74,61.18,21.43,84.83,41.41"/>
        <path d="M482.21,1603.14c-32.89-33-100.34-59.89-109.06-41.41-6.13,15.65,98.25,32.11,47.46,64.63"/>
    </g>
    <g class="hoodieLace">
        <path d="M575.19,930.4l-2.37,27.47c-.1,1.43,5.9,1.82,6,.38L581,930.4Z"/>
        <path d="M580.52,741.6c.57,56.86.57,115.8-7.3,186.46-.89,3.22,8.77,3.9,9.66.68,9-74.71,8.65-127.25,8.47-186.68Z"/>
        <circle cx="585.75" cy="740" r="8.55"/>
        <path d="M452.22,919.08,451,946.58c-.06,1.44-6.06,1.2-6-.24l1.42-27.59Z"/>
        <path d="M478.78,732.24c-4.82,60.67-23.15,119-24.91,184.88.25,3.34-8.94,2.92-9.19-.41,1.23-64.6,17.05-122.21,23.39-186.12Z"/>
        <circle cx="473.96" cy="729.66" r="8.55"/>
    </g>
    <path class="hairSandy" d="M657.21,179.43C683.6,164.71,642.4,109.57,587,80.07c-50.55-26.9-97-42.85-80-78.88-43.76,4.74-100.49,93.9-88.49,32.13-55.33,23.24-56.89,109.81-80.84,61.88-12.33,23.25-21.13,48.82-22.43,79.31.12,12.16-81.69,70.85,4.87,277.74C431.5,511.57,548.52,383.62,657.21,179.43Z"/>
    <path class="hairEdgeLine" d="M512,76.83c5,27.32,56.42,47.09,42.37,109.09"/>
    <g class="eye">
        <circle class="sclera" cx="593.01" cy="386.23" r="123.21"/>
        <g class="irisBlue">
            <ellipse cx="550.71" cy="393.81" rx="19.42" ry="20.4" transform="translate(-90.97 177.92) rotate(-16.97)"/>
            <ellipse cx="679.66" cy="354.01" rx="18.68" ry="20.4" transform="translate(-73.74 213.82) rotate(-16.97)"/>
        </g>
        <g class="pupil">
            <ellipse cx="552.01" cy="393.41" rx="7.55" ry="7.93" transform="translate(-90.8 178.28) rotate(-16.97)"/>
            <ellipse cx="681.37" cy="353.49" rx="7.27" ry="7.93" transform="translate(-73.51 214.3) rotate(-16.97)"/>
        </g>
    </g>
    <g class="skinNordic">
        <path d="M657.79,564.37c-14,39.45-5.09,63.63-3.72,86.25-11.09,41.49-88,98.57-132.79,91.68-32.59-17.55-74.95-61.54-65.17-87.61-1.95-17.78,13.32-48.32-15.95-145.05"/>
        <path d="M187.49,675.74c15.91-16.9,36.79-16.34,60.27-64.91C259.84,612,268,594.07,271.13,584.9c3.49-10.28,7.9-20.89-10.73-33.31,4.52-9.59-8.4-21.15-22-23.14,1.13-10.16-14.67-25.4-33.87-21.45-4-15.24-43.33-16.64-62.08-8.46-22,9.59-24,27.09-42.59,46.28-4,1.13-11.6.56-17.24-6.21-17.06-20.47-61.53-6.21-50.24,11.85,21.45,13,38.73,29,46.28,49.68,10.73,29.35,23.71,42.33,20.32,80.15C112.52,696.09,173.48,688.19,187.49,675.74Z"/>
        <path d="M799.14,1183.05c6.76,21.5,25.34,12.65,25.8,39.92.62,36.25-17.81,25.81-27,39.93-12.29,13.52-28.78-20.11-3-33.77A37,37,0,0,1,769,1215c4.5,26.12,10,39.88-2.65,68-8.81,16.51-17.61,17.06-34.2,16.82-7.63,11.79-28.54,9-34.41-6.14-18.89,9.68-33.61-5.54-40.9-23.89-10.31-25.92-1.11-45.68-.87-94.67-6.29,9.37-18.4,16-21.78,22.55-19.77,24.89-59.2,13.15-48.37-4.31,16.21-7.18,14.79-12.71,27.69-23.77,20.58-17.64,33-55.16,46.15-72.49,27.5-36.22,17.81-52.21,61.43-73.1,44.23-17.2,91,44.8,63.19,72.7C804.67,1129,791.55,1158.88,799.14,1183.05Zm-66.87,104.84c6.66-30.8,1.13-39.77-1.1-61.08C727.77,1259.09,731,1262.27,732.27,1287.89Z"/>
        <path d="M853.14,2302.45c-26.41-126.9-48.84-264.4-90.39-333-47.84,13.2-148.54,21.93-194.7,14,37.87,87.24,119.27,220.86,185.33,350.57C779.56,2333.77,836.33,2316.33,853.14,2302.45Z"/>
        <path d="M316.07,2357.89c28.39-107.55,99.76-205.65,77.69-327.58-2.23-12.35-1.71-27.89,2.27-45.66-50.64.13-129.4-12.64-170.3-28.63-16.62,129-17.06,264.23-17.07,390.16C230.78,2354.52,292.89,2361.06,316.07,2357.89Z"/>
        <path d="M557.49,208.7c25.76-21.79,80.27-34,99.72-29.27,20,20.44,59.42,120.61,55.95,150.34-2.18,18.64,4.68,27.26,12.26,45.69,54.41,132.25-1.07,175.1-10,208.07-13.3,37.37-62.11,52.66-91.59,49.29-60.37-6.9-150.5-2.93-202.91-91.87-32.26,24.44-39.65.22-54.4-9.2-18.62-11.87-37.38-24.57-44.77-46.69-17-50.88,32.77-74.9,50.83-38,10.26-1.67,19.83-4.36,28.28-8.76-24.91-55.08,45.48-70.45-3.76-175.24C444.08,225.48,506.59,201.41,557.49,208.7ZM569.3,387.64c-12.58-9.14-26.54-10.28-38.67-6.08-14.19,4.93-27.9,19.12-37.25,29,14.72.24,30.07,2.93,45.36-1,10.76-2.78,20.13-9.33,28.09-16C569,391.69,574.3,391.28,569.3,387.64Zm75.41-17.42c10.37-2,20.57-.6,31.88-4.67,12.46-4.47,19.38-8.62,24.39-18.66-9.89-5.92-22-9.77-35.38-4.82-13.91,5.16-20.74,15.7-27.9,26.39C634,374.06,642,370.74,644.71,370.22Z"/>
    </g>
    <g class="skinOverlapLine">
        <path d="M187.38,512.1c5.17-.23,9.58-4.05,17.14-5.1"/>
        <path d="M238.39,528.45c-10,.18-20.84,3.71-30,4"/>
        <path d="M260.4,551.59c-7.88-4.29-19.63,0-25.8-1.79"/>
        <path d="M250.77,588.61a63.37,63.37,0,0,1-3,22.22"/>
        <path d="M88.68,570.31c.11-10.56,2.75-15.84,11.17-25.49"/>
        <path d="M697.78,1293.62c-12.07-34.89-9.63-41.86-5.84-73.31"/>
        <path d="M658.19,1149.59c-2.82,9.35-2.28,17.87-2.18,25.47"/>
    </g>
    <g class="skinFoldLine">
        <path d="M800.44,1219.7c-11.09,12.71-3,8.9.81,14.56"/>
        <path d="M366.55,462.84c-32.14-42.1-62.58,17.41-3,55.23"/>
        <path d="M373,480.57c-5.82,14.62,28.85,25.28,18.44,33.74-9.26,7.54-11.62-11-23.34-10.86-22.3.35-24.06-34.65-8.22-28"/>
    </g>
    <g class="skinEdgeLine">
        <path d="M145.39,506.79c16.67,14,27.93-.45,39.64,22.52,6,11.86,17.12.46,28.83,24.33,5.22,10.65,17.11,8.1,18.46,25.67"/>
        <path d="M769.49,1192.18c-10.15,9.45-16.26-2.51-33.47,6.49-10.75,5.62-16.69-8.3-37.42-.7-11.18,4.1-17.21-5.82-26.4-6.12"/>
        <path d="M764.33,1267.16c-6.38,3.4-13.61,4.68-20.83,2.13"/>
        <path d="M722.82,1271.54c-8.84,4.18-17.38,4.71-25.5.42"/>
        <path d="M682.15,1268c-6.33,1.09-15.71,1.58-22.53-3"/>
    </g>
    <g class="head49">
        <path class="lipMaleLight__noStroke" d="M668.72,495c-5.77,5.73-16.45,8-27.4,7.53-9.12,6-29.05,15.45-43.63,36.81,16.2-1.63,36.33,37.31,65.91,22.45,31.66-15.89,23.36-49.77,13-52.22C687.45,483,675.08,497,668.72,495Z"/>
        <path class="mouthInner" d="M676.58,509.58c-.64-1.26-.93-5.7-3.32-9.25-17.74,15-30.6,8.61-39.73,13.31C621.18,520,614.4,527,605.92,533,628.55,536.76,666.64,554.79,676.58,509.58Z"/>
        <path class="teeth" d="M676.57,509.57c-.63-1.27-.93-5.7-3.31-9.24-17.74,15-30.6,8.61-39.73,13.31A111.47,111.47,0,0,0,614,526.79C636.74,530.72,667.8,526.25,676.57,509.57Z"/>
        <g class="lipOverlapLine">
            <path d="M591.31,541.82c4.88-.67,11.59-6.36,14.61-8.8"/>
            <path d="M673.26,500.33a26.17,26.17,0,0,0,5-5.41"/>
            <path d="M676.58,509.58c3.1,1.55,8.44,2,11.4.95"/>
        </g>
        <g class="lipEdgeLine">
            <path d="M641.32,502.53c10.95.48,21.63-1.8,27.4-7.53"/>
            <path d="M628.86,558.63c23.88,12.35,47.14,2.88,53.63-17"/>
        </g>
        <g class="noseLine">
            <path d="M608.69,486.48c-13.2-.43-22.07-17.8-13.29-28.51"/>
            <path d="M666.79,458C655,487.63,626.84,468,616,480.23"/>
            <path d="M649.17,413.46c10.55,20,33,27.83,22.54,47.54"/>
        </g>
        <g class="eyeFoldLine">
            <path d="M695.93,373.76c-6.7,8.74-21,13.86-30.14,12.32"/>
            <path d="M564.29,413.05c-12.94,14.2-33.07,15.89-42.16,12.42"/>
        </g>
        <g class="eyeCornerLine">
            <path d="M701,346.89a10.72,10.72,0,0,0,6.72,0"/>
            <path d="M475.34,422.06c6.4-1.32,11.62-5.25,18-11.52"/>
        </g>
        <g class="eyeCreaseLine">
            <path d="M494.72,394.13c19.81-19.87,43.48-30.77,68.86-17"/>
            <path d="M640.46,352.77c15-21.07,42-26.19,53.74-16.84"/>
        </g>
        <g class="eyebrowSandy">
            <path d="M464.15,384.63c20.1-31.38,73.93-52.51,99.82-45.77C565.83,361.06,520.92,327.24,464.15,384.63Z"/>
            <path d="M711.2,307.57c-27.93-11-66.7-2.48-83.24,14C637.64,340.3,652.55,297.54,711.2,307.57Z"/>
        </g>
    </g>
</svg>
