<svg viewBox="0 0 1372.31 368.44">
  <path class="mountain" d="M1310.79,9.53c-12.29,0-102,57.53-131.51,80-24-16.06-103.79-65.22-115-65.38-10-.14-76.63,34.39-103.59,51.08-18.92-11.21-43.45-26-52.75-26-10.23,0-51.31,22.11-87.85,44C749.47,53.73,637,.44,622.84.5c-14.9.07-128.3,64.83-174.33,95.27C401.1,68.55,335.9,36.62,328.24,36.31c-8.55-.35-52,20.82-77.18,37.05C207.28,47.13,135.31,7.13,119.28,7.13c-14,0-87.37,48.33-118.77,70.14V367.94h1371.3l-.12-323C1352.4,29.49,1322.35,9.56,1310.79,9.53Z"/>
  <path class="foliageNear" d="M1346,143.38c.43-19-19.41-27.6-33.64-16.39-11.22-16-36.23-10.78-42.27,7.33-13.37-9-28-3-32.35,11.65,1-6.21-4.53-21.13-18.11-40.11,21.25.6.33-24.7-8.2-47.44,18.39,2-11.75-45-16.39-45.29-4.8-.3-37.76,48.15-16.82,46.58-11,21.66-29.5,41.93-9.7,44.64-11.93,13.44-22.22,23.5-21.78,29.54-1.3-4.31-5.46-7.6-13.16-11.43,22.89-4.74.84-28.48-9.92-47.44,21.67-3.24-11.62-42.91-16.17-42.91-6,0-35.06,47-13.59,46.36-8.32,13.21-19.95,29.33-17.68,33.21-9.71-11.43-26.53-9.27-31.92,3-11.86-15.31-34.72-8.84-37.09,9.49-6.25-4.1-14.45.65-17.25,6.47,2.52-6.9-6.59-19.35-16-31.92,20.41-3.21-6.25-43.78-15.74-42.91-7.32.66-31.37,33.81-12.29,36.44-11.7,22.65-30.15,49.84-11.65,52.19-6,9.66-14.17,20.29-11.21,25.88-2.81-5.83-11-9.28-17.69-5.18,5.4-11.86-4.52-18.76-14.23-17.25,1.18-11.22-6.44-18-14.78-19.41-3.52-10.36-11.3-20.25-16.34-26.34,15.52-.21,1.21-27.43-9.49-42,14.66.22-5.61-37.95-12.29-38.38-5.88-.38-29.33,42.05-12.73,40.11-10.7,11.73-28.61,39.82-11.64,41.19-2.46,4.64-5.13,9.43-7.42,13.94,1.8-6.14-8.49-12.58-17.55-23.86,20.11.18,4.36-21.53-8.57-39.46,20.56,3.09-6.71-39.84-13.67-39.26-5.69.47-32.49,41.77-14.36,39.26-11.17,18.76-27.41,40.22-7.69,38.48-10.4,20.7-27.81,43.08-5.31,45.84-9.32,2.54-14.77,9.8-15.37,16.46-6.06-12.11-23-6.05-25.15,2.11-5.39-5-14-3.24-17.68,2.15.21-22.64-23.51-35.58-44.86-23.72-5.22-8.33-14-9.35-20.54-5.87-2.7-6.62-5-16.83-12.35-25.35,20.41.36,3.4-21.56-5.3-38.19,16,1.29-8.29-40.68-14-40.68-8.63,0-32.35,40.86-14,40.68-12.93,17.93-29.08,38.19-10.56,39.46-5.38,4.25-9.93,8.54-12.32,13.28-2.48-12.69-17.1-19.87-32.08-13.09,1.51-12.29-14-17.9-22-7.76-3.67-20.92-30-25.66-42.7-8.63-8.84-9.7-27.82-1.51-27.6,9.92-13.59-6.68-28.68,2.37-31.49,15.1-2.11-6.4-6-9.87-12.93-8.63,20-6.2,2.25-23.09-9.92-38.38,17.65-3.21-11.72-44-17-43.78-7.53.38-27.86,46-10.57,48.52-10.87,23.81-27.14,42.24-9.06,43.35-10.7,19.55-27.46,42.56-9.06,44-11.25,11.1-15.93,17.86-16.82,26.31-1-4.73-7.63-17.59-12.93-20.06,19.4-4.75,1.85-18.95-11.22-35.8,21.16-1.43,3.93-21.58-8.19-39.24C290.4,88.33,263,53.54,257.78,53.67c-6.55.17-27.74,39.81-12.3,43.78C236.17,114,223,132.38,236,138c-5.79,3.3-10,7.74-12.08,13.8,1.51-9.27-15.31-20.49-25-16.39,1-5.05-5.32-13.65-12.93-22.86,15.52-.21.68-25-9.5-42.05,14.66.22-5.61-37.95-12.29-38.38-5.88-.38-29.33,42.05-12.72,40.11-9.12,20.22-28.62,39.82-11.64,41.19-6.5,12.24-14.46,25.55-12.94,31.91-5.39-10.56-18.33-13.58-28-6.47-.21-27.82-27.82-34.29-44-16-11.86-9.7-27-2.8-25.88,12.94C16.25,130,.13,140.8.51,157.4V367.94h1371.3l-.08-199.21C1371.73,153.2,1354.71,141.29,1346,143.38Z"/>
</svg>
