<svg viewBox="0 0 350.71 129.45">
  <g class="cushion">
    <path d="M176.22,129H348.39c3.52-.54,1-7.5.44-10.24-1.7-8.93.46-23.41.69-42.43.85-26-2.23-49.38-2.38-55.34a81.43,81.43,0,0,1,2-14.39c1.08-5.22-1.38-6.6-6.4-5.87,0,0-11.45,2.08-16.87,2.3-24.63,1-24.17-1.49-62.42-.7-20.67.43-31.15,1.34-50,2.91-29.68,2.46-36.21-6.59-37.86,2.49-3.94-10-6.3-1.1-27.61-3-19.41-1.69-39.89-1.23-60.37-1-45.45.4-43.91,2-66.86,1.52A107.34,107.34,0,0,1,5,3.18C0,2.45.3,5.57.7,12.12a78.69,78.69,0,0,0,1.18,10.2C3,35.53.23,53,.74,76.28.55,88.52,3.27,109.63,2.2,118.71c-.32,2.77-3.08,9.7.44,10.24Z"/>
    <path d="M176.22,129H348.39c3.52-.54,1-7.5.44-10.24-1.7-8.93.46-23.41.69-42.43.85-26-2.23-49.38-2.38-55.34a81.43,81.43,0,0,1,2-14.39c1.08-5.22-1.38-6.6-6.4-5.87,0,0-11.45,2.08-16.87,2.3-24.63,1-24.17-1.49-62.42-.7-20.67.43-31.15,1.34-50,2.91-29.68,2.46-36.21-6.59-37.86,2.49-3.94-10-6.3-1.1-27.61-3-19.41-1.69-39.89-1.23-60.37-1-45.45.4-43.91,2-66.86,1.52A107.34,107.34,0,0,1,5,3.18C0,2.45.3,5.57.7,12.12a78.69,78.69,0,0,0,1.18,10.2C3,35.53.23,53,.74,76.28.55,88.52,3.27,109.63,2.2,118.71c-.32,2.77-3.08,9.7.44,10.24Z"/>
  </g>
  <path class="cushionBorderLine" d="M175.54,7.65c.61,51.6-.77,70.09-.16,121.38"/>
</svg>
