<svg viewBox="0 0 349.98 153.21">
  <path class="whiteLight" d="M330.38,40.75c.74-7.76-9.43-13.12-16.08-8.32-1.66-5.54-12.2-7-15-.74-3.89-5.91-14.61-4.8-15.9,1.85-4.44-4.8-15.9-1.85-16.08,5.55-.37-7.21-10.35-10.72-15.9-5.55-1.85-4.06-8.32-5-11.46-1.66-2.41-6.17-12.53-7.37-16.26-1.11-3.22-7-14.55-7.32-18.12-.37-2.59-2.77-9.7-1.91-10.72,2-1.8-5.29-13-5.41-15,.37-2.59-2.4-8.14-.92-8.69,3-1.85-4.62-9.43-5.54-11.83-1.85-4.07-9-16.45-9.61-22-1.48-3.51-5-12.57-5.54-16.08-.18-.37-3.7-7.39-5.73-10-3C108,20.79,94.15,18.2,88.42,27.44,82,22.82,72.34,25.22,69.75,32.8c-2.59-4.25-10.72-4.43-13.86.37-3.7-5.36-14.6-4.62-17.75,1.11-7.76-6.84-16.45,5-12.57,11.65Z"/>
  <g class="steelLight">
    <path d="M29.56,13.77c-.12-5.38-9.39-4.88-10,2.67-.19.62-.27,18.49-.27,18.49L8.66,34.56S8.73,19.6,9,16c1.9-22.49,33.2-17.89,31.33-2.64A48.84,48.84,0,0,1,29.56,13.77Z"/>
    <path d="M23.75,27.49c.91,2,.33,5.1-.26,7.11L12,34.09A11.12,11.12,0,0,1,12.52,27Z"/>
  </g>
  <path class="steelMedium" d="M41.66,18c.38-.31.53-5,0-5-2.41.73-10.75.85-13.52.29-.51-.15-.59,4.7-.19,4.81C30.72,19.05,39.46,18.86,41.66,18Z"/>
  <path class="oakLightest" d="M22.7,28.42c11.25,3.1,10.48-6.37.23-3.75-2-3.58-7.72-3.55-9.31-.41-11.08-3.42-11.8,6.54-.38,3.85C14.71,30.59,21.19,30.13,22.7,28.42Z"/>
  <path class="porcelainMedium" d="M342.39,41.49c-2.19,45.5-.66,81.88-31.42,85.58-61.37,7.4-217.74,9.61-268.76.93C14,123.19,11.34,89.73,7.83,43Z"/>
  <path class="basinLightLine" d="M328,64.6c-1.11,23.47-1.91,41.3-14.05,45.28"/>
  <path class="porcelainLight" d="M343.13,31.14c-118.24,5.63-230.44,6.8-337,1.11-7-.38-7.78,11.58-.74,12,106.1,6.47,218.57,6.27,338.81-1.11C351.92,42.68,350.81,30.77,343.13,31.14Z"/>
  <g class="porcelainDark">
    <path d="M320,151.93c7.8,2.42,9.63-10.43,1.75-12.18-5.44-1.2.82-11.92-3.61-17.19-3.06-3.65-15.56-3-17,2.57-1.6,6.17,7.36,12.07,5.43,17.54-5.67,8.5,2.15,11.65,6.4,9.26A8.39,8.39,0,0,0,320,151.93Z"/>
    <path d="M52.74,124.67c.89,3.53-3.29,11.27-6.31,13.86-2,1.74,2.09,2.43,2.73,6.56,1,6.65-3.74,9.11-8.71,6.67-1.69,1.19-5.91,1.23-7.48.08-6.73,2.85-9.42-8.73.39-13.31,3.47-1.62-.77-9.32,2.09-15.72C38.07,117,51.25,118.74,52.74,124.67Z"/>
  </g>
  <g class="clawCreaseLine">
    <path d="M33.71,144.36c-1.6,2.19-2.09,5.32-.65,7.48"/>
    <path d="M313.07,144.12a12.25,12.25,0,0,1-.07,7.81"/>
    <path d="M320,143.87a6.88,6.88,0,0,1,.08,8.06"/>
    <path d="M40.68,144.89c-.88,2.77-1.17,4.79-.13,7"/>
  </g>
</svg>
