<svg viewBox="0 0 499.04 175.94">
  <rect class="shadow" x="12" y="119.06" width="469.95" height="56.38"/>
  <g class="mapleDarkest">
    <path d="M477.48,175.44a1731.43,1731.43,0,0,1,0-174.56L467.3.52q-4.23,87.41,0,174.92Z"/>
    <path d="M21.5,175.44H31.7Q34,128,33.84,80.43l-10.11.3Q23.88,128.11,21.5,175.44Z"/>
  </g>
  <g class="mapleDark">
    <path d="M498.46,175.44a1581.13,1581.13,0,0,1,.06-173.76q-13.47-.54-26.93-1-4.3,87.32,0,174.77Z"/>
    <path d="M.53,175.44H27.41q2.32-47.4,2.18-94.88-13.33.39-26.66.83Q3.11,128.45.53,175.44Z"/>
  </g>
  <path class="oakMedium" d="M30.68,131.62q129.62-3.3,259.28-2.71,36.68.18,73.35.67,52.43.69,104.85,2-.51-21.78-.54-43.55-52.47-1.5-105-2.28-36.54-.54-73.08-.74-129.19-.67-258.35,3Q31.19,109.85,30.68,131.62Z"/>
</svg>
