<svg viewBox="0 0 296.26 240.13">
  <path class="oakDarkest" d="m130.04,231.42c42.31-5.31,115.67-12.43,156.23-17.41-2.39-55.4-2.32-110.79.21-165.92-40.72,2.61-114.28,6.11-156.82,8.51-.56,58.24-.44,116.52.38,174.82Z"/>
  <g class="oakMediumDark">
    <path d="m293.22,28.96c-2.04-.75-3.72-2.58-4.61-4.56-1.72.02-3.45.04-5.17.06-1.12,2-3.05,3.3-5.21,4.08,0,0-149.53,4.25-149.53,4.24-.99-.7-2.17-2.9-2.46-4.61-1.72,0-4.67-.07-6.39-.06-.55,1.63-1.67,3.59-2.89,4.28,0,0-101.21-10.83-101.21-10.83-1.69-.83-3.06-3.08-4.01-4.68l-4.24-.7c-.84,2.01-2.26,4.14-4.25,4.92,123.56,35.71,183.77,35.09,289.97,7.85Z"/>
    <path d="m287.83,211.81c-3.2-1.06-6.4-2.13-9.61-3.19v-.05c-35.97,4.33-104.6,10.73-141.99,15.31.03,1.94.06,3.87.09,5.81,40.69-5.45,112.45-12.72,151.51-17.88Z"/>
  </g>
  <g class="oakMedium">
    <path d="m281.37,62.05c-1.09.05-2.17.09-3.26.14-1.74,48.56-1.76,97.69.11,146.43,1.12.37,3.36,1.11,3.36,1.11-2.17-48.4-2.16-97.67-.22-147.68Z"/>
    <path d="m123.4,239.42c-18.81-6.69-103.04-35.65-119.08-40.89,1.21-38.74.93-135.5-1.06-177.62,15.31,2.22,102.63,11.57,119.71,13.08l.44,205.43Z"/>
  </g>
  <path class="bulbWhite" d="m9.99,53.06c8.42,1.34,16.89,2.66,25.41,3.98.77,46.76.81,93.52.11,140.21-8.45-2.78-16.86-5.54-25.23-8.29.1-5.13.18-10.27.26-15.4.57-40.11.38-80.32-.55-120.49Z"/>
  <path class="oakMediumLight" d="m35.51,195.24c-8.45-2.78-16.86-5.54-25.23-8.29v2c8.36,2.75,16.77,5.51,25.23,8.29v-2Z"/>
  <g class="oakLight">
    <path d="m73.05,168.14c.93.27,1.87.53,2.8.8-.03,13.93-.09,27.86-.17,41.79-.89.56-1.9.32-2.82-.05"/>
    <path d="m113.08,66.77c1.01.14,2.02.28,3.03.43-.02,14.9-.02,29.79-.01,44.69-1.01.38-2.05-.14-2.99-.79"/>
    <path d="m73.01,102.61c.74.55,1.86,1.64,2.8.86.14-.12-.17-33.89-.22-42.06-.94-.14-1.88-.27-2.82-.41"/>
    <path d="m73.13,155.79c.87.53,1.84.91,2.74.46.01-13.71,0-27.42-.03-41.13-.93-.21-1.87-.42-2.8-.62"/>
    <path d="m113.21,166.77c.97.5,2.02.85,3,.34-.05-14.35-.08-28.7-.1-43.05-1-.22-2.01-.45-3.01-.67"/>
    <path d="m113.36,224.23c1.02.4,2.13.57,3.1-.09-.08-14.55-.15-29.09-.21-43.64-1.01-.29-2.02-.58-3.03-.87"/>
    <path d="m26.4,59.95c.95-.63,1.9-1.26,2.85-1.89.63,38.4.8,76.83.48,115.19-.07,8.91-.18,17.82-.3,26.72-.91.62-1.94.45-2.89.1.68-46.66.64-93.4-.14-140.12Z"/>
  </g>
  <g class="oakLighter">
    <path d="m72.79,63.42c.93-.66,1.86-1.33,2.8-2-10.83-1.58-21.59-3.19-32.27-4.8-1.07.61-2.15,1.22-3.22,1.82"/>
    <path d="m113.09,69.25c1-.7,2.01-1.4,3.01-2.1-11.2-1.57-22.32-3.11-33.37-4.71-1.08.61-2.17,1.22-3.25,1.83"/>
    <path d="m73.11,117.45c.91-.79,1.82-1.58,2.73-2.38-10.9-2.43-21.72-4.81-32.47-7.22-.97.71-1.94,1.42-2.9,2.13"/>
    <path d="m113.12,126.4c.99-.76,1.99-1.52,2.98-2.28-11.24-2.5-22.4-5.03-33.48-7.5-.96.7-1.93,1.39-2.89,2.09"/>
    <path d="m73.05,171.52c.93-.86,1.87-1.71,2.8-2.57-10.91-3.11-21.75-6.2-32.52-9.26-.97.84-1.94,1.68-2.91,2.51"/>
    <path d="m113.19,183.13c1.02-.88,2.04-1.76,3.06-2.64-11.27-3.24-22.46-6.43-33.58-9.6-.99.84-1.97,1.68-2.96,2.52"/>
    <path d="m26.4,59.95c.95-.63,1.9-1.26,2.85-1.89,0,0,0,.43,0-.05l-18.18-5.88c-1.03.59-2.06,1.17-3.08,1.76l18.41,6.06Z"/>
  </g>
  <g class="oakLightest">
    <path d="m113.08,69.4c-11.28-1.62-22.48-3.24-33.59-4.88.08,13.22.14,26.43.18,39.65,11.06,2.35,22.2,4.72,33.42,7.09-.01-13.95-.01-27.91,0-41.86Z"/>
    <path d="m40.42,162.3c10.8,3.09,21.67,6.2,32.62,9.34-.04,13.05-.1,26.1-.19,39.14-11.01-3.66-21.95-7.27-32.81-10.85.17-12.54.3-25.08.38-37.64Z"/>
    <path d="m73.05,117.51c.03,12.84.03,25.67.02,38.51-10.91-2.96-21.75-5.89-32.51-8.81,0,0-.03,0-.07-.02.03-12.35.02-24.69-.03-37.04,10.79,2.45,21.65,4.9,32.59,7.37Z"/>
    <path d="m39.95,58.59c10.87,1.66,21.81,3.31,32.83,4.94.1,13.07.17,26.15.22,39.22-10.95-2.34-21.83-4.67-32.63-7-.09-12.39-.24-24.77-.42-37.16Z"/>
    <path d="m79.71,173.56c11.1,3.19,22.28,6.41,33.53,9.68.05,13.71.1,27.41.17,41.12-11.36-3.83-22.64-7.61-33.84-11.34.06-13.15.11-26.31.14-39.46Z"/>
    <path d="m113.19,166.94c-11.23-3.07-22.38-6.1-33.46-9.11.01-12.94,0-25.88-.02-38.82,11.05,2.49,22.19,4.98,33.4,7.5.02,13.48.05,26.95.09,40.43Z"/>
    <path d="m7.99,54.06l18.41,5.98c.77,46.76.81,93.52.11,140.21l-18.23-10.29c.1-5.13.18-10.27.26-15.4.57-40.11.38-80.32-.55-120.49Z"/>
  </g>
  <g class="oakDark">
    <path d="m123.4,239.42c-1.21-66.85-1.3-135.4-.44-205.43l170.26-5.03c-3.97,62.91-4.23,126.54-1,190.84-33.12,4.68-131.89,15.05-168.82,19.62-.05,0,0,0,0,0Zm12.41-171.57c-.81,56.87-.12,110.94.45,158.04,44.6-5.17,94.91-9.97,145.32-16.16-2.17-48.4-2.16-97.67-.22-147.68-50.39,2.17-99.07,4.13-145.56,5.79Z"/>
    <path d="m56.46,83.75c.78.27,1.77-1.76,1.76-3.36-.01-1.62-1.01-3.65-1.82-3.47-1,.23-.86,6.51.06,6.83Z"/>
    <path d="m56.66,136.19c.79.27,1.78-1.74,1.78-3.34,0-1.61-.99-3.67-1.78-3.49-.96.22-.95,6.5,0,6.82Z"/>
    <path d="m23.32,132.16c.83,0,1.41-1.74,1.41-3.32,0-1.6-.59-3.47-1.42-3.47-1.04,0-.89,6.79,0,6.79Z"/>
    <path d="m56.44,189.09c.8.27,1.8-1.7,1.82-3.31.01-1.61-.97-3.68-1.77-3.51-.95.21-1.02,6.48-.05,6.82Z"/>
    <path d="m95.99,91.1c.8.27,1.83-1.77,1.82-3.39,0-1.63-1.02-3.69-1.84-3.5-1.01.23-.94,6.58.02,6.89Z"/>
    <path d="m96.08,146.01c.81.27,1.82-1.75,1.82-3.36,0-1.63-1.02-3.71-1.83-3.53-.99.22-.97,6.57,0,6.89Z"/>
    <path d="m96.11,201.52c.81.28,1.84-1.7,1.84-3.33,0-1.64-1.02-3.73-1.84-3.56-.99.2-.99,6.55,0,6.89Z"/>
  </g>
  <g class="oakMediumLight">
    <path d="m52.24,80.45c.05,2.12,1.2,4.34,2.45,4.4,1.32.06,2.1-2.47,2.05-4.46-.05-1.92-.94-4.54-2.25-4.4-1.25.13-2.3,2.35-2.25,4.46Z"/>
    <path d="m52.48,132.85c.03,2.11,1.16,4.36,2.41,4.43,1.32.08,2.11-2.44,2.08-4.43-.03-1.9-.9-4.56-2.21-4.43-1.25.12-2.31,2.32-2.28,4.43Z"/>
    <path d="m18.86,128.84c.03,2.09,1.51,4.4,2.71,4.4,1.3,0,1.73-2.43,1.7-4.41-.03-1.89-.54-4.4-1.84-4.4s-2.61,2.32-2.58,4.41Z"/>
    <path d="m52.27,185.71c.01,2.11,1.14,4.37,2.39,4.45,1.32.09,2.14-2.39,2.13-4.4-.01-1.9-.88-4.57-2.19-4.45-1.25.11-2.34,2.28-2.33,4.4Z"/>
    <path d="m91.71,87.77c.04,2.14,1.2,4.33,2.49,4.44,1.35.11,2.16-2.58,2.13-4.51-.03-1.93-.94-4.59-2.28-4.44-1.28.14-2.37,2.37-2.33,4.51Z"/>
    <path d="m91.82,142.62c.03,2.13,1.19,4.35,2.48,4.48,1.35.13,2.16-2.55,2.13-4.47-.03-1.92-.93-4.61-2.27-4.48-1.28.12-2.37,2.34-2.34,4.47Z"/>
    <path d="m91.82,198.07c.03,2.15,1.21,4.37,2.49,4.52,1.35.16,2.18-2.49,2.15-4.43-.03-1.93-.94-4.62-2.28-4.52-1.28.1-2.39,2.28-2.36,4.43Z"/>
    <circle cx="9.3" cy="9.3" r="8.8"/>
    <circle cx="122.96" cy="18.93" r="10.65"/>
    <circle cx="285.9" cy="15.5" r="9.86"/>
  </g>
</svg>