<svg viewBox="0 0 606.73 395.43">
  <g class="brassDark">
    <path d="M60.57,74.09h12.73v-15.13c0-8.79-12.73-8.79-12.73,0v15.13Z"/>
    <path d="M170.54,238.6h12.73v-15.13c0-8.79-12.73-8.79-12.73,0v15.13Z"/>
    <path d="M522.53,231.12l12.73-1.9v-7.59c0-8.79-12.73-8.79-12.73,0v9.49Z"/>
    <path d="M403.39,22.22h12.73V7.09c0-8.79-12.73-8.79-12.73,0v15.13Z"/>
  </g>
  <path class="ironMedium" d="M115.74,218.84c-62.61,0-106.4-4.11-105.08-14.35,.79-6.13,6.93-5.9,25.03-10.14,12.97-3.04,20.91-15.35,20.91-26.95v-55.82c0-55.51,46.09-99.55,104.12-99.55H422.48c58.04,0,104.12,44.04,104.12,99.55v55.82c0,11.6,7.94,23.91,20.91,26.95,18.09,4.24,24.24,4,25.03,10.14,1.32,10.24-42.47,14.35-105.08,14.35H115.74Zm358.82,9.71c60.72,0,110.83-5.13,108.02-23.58-1.97-12.94-9.77-14.03-28.79-18.27-10.13-2.26-17.35-9.29-17.35-19.67v-54.75c0-60.72-49.22-109.94-109.94-109.94H156.69c-60.72,0-109.94,49.22-109.94,109.94v54.75c0,10.38-7.22,17.41-17.35,19.67-19.02,4.24-26.82,5.33-28.79,18.27-2.81,18.44,47.3,23.58,108.02,23.58H474.56Z"/>
  <g class="patinaDarker">
    <polygon points="120.51 242.51 126.18 247.86 126.18 391.02 120.51 391 120.51 242.51"/>
    <polygon points="233.85 242.51 228.23 247.86 228.23 391.01 233.85 391.02 233.85 242.51"/>
  </g>
  <g class="patinaMediumDark">
    <polygon points="603.97 239.07 603.97 377.22 564.49 377.42 564.49 243.84 603.97 239.07"/>
    <rect x="126.18" y="247.86" width="102.05" height="143.15"/>
  </g>
  <g class="patinaDarkest">
    <polygon points="228.23 321.23 233.85 318.3 120.51 318.32 126.18 321.23 228.23 321.23"/>
    <polygon points="126.18 247.86 120.51 242.51 233.85 242.51 228.23 247.86 126.18 247.86"/>
    <polygon points="564.49 229.26 603.97 239.07 564.49 243.84 564.49 229.26"/>
    <polygon points="564.49 312.32 603.97 309.57 564.49 304.89 564.49 312.32"/>
  </g>
  <g class="patinaDark">
    <polygon points="355.43 185.18 349.69 178.55 470.36 178.55 464.68 185.18 355.43 185.18"/>
    <polygon points="12.61 235.92 6.88 230.42 127.55 230.42 121.87 235.92 12.61 235.92"/>
    <path d="M562.4,225.18v156.33l43.47-.81V235.6l-43.47-10.42Zm41.57,13.9v67.55l-39.47-4.91v-72.46l39.47,9.82Zm-39.47,138.35v-72.55l39.47,4.7v67.65l-39.47,.2Z"/>
  </g>
  <g class="patinaMedium">
    <polygon points="464.61 381.35 562.4 381.5 562.4 225.18 464.61 239.75 464.61 381.35"/>
    <rect x="349.69" y="22.22" width="120.67" height="156.33"/>
    <rect x="6.88" y="74.09" width="120.67" height="156.33"/>
    <path d="M116.85,238.6v156.33h120.67V238.6H116.85Zm3.66,3.91h113.34v72.63H120.51v-72.63Zm0,148.51v-72.72h113.34v72.72H120.51Z"/>
  </g>
</svg>