<svg viewBox="0 0 85.68 126.28">
  <rect class="shadow" x="5.69" y="104.52" width="74.38" height="21.26"/>
  <path class="mapleDarker" d="M84.78,15.25c-30-.93-53.85-.93-83.87,0C.76,9.68.68,6.89.51,1.32,30.8.23,54.88.23,85.17,1.32,85,6.89,84.92,9.68,84.78,15.25Z"/>
  <path class="mapleMediumDark" d="M83.09,15.19c-28.89-.86-51.6-.86-80.5,0Q3.66,59.85,4,104.51c28,0,49.75,0,77.71,0Q82,59.85,83.09,15.19Z"/>
  <path class="ironDarker" d="M14.51,125.78c.3-2.93.51-7.41.86-10.83,20.37,0,34.58,0,55,0,.35,3.42.55,7.9.85,10.83H80c0-6.27,0-15,.06-21.26-26.86,0-47.57,0-74.44,0,0,6.26,0,15,.07,21.26Z"/>
</svg>
