<svg viewBox="0 0 165.13 119.44">
  <g class="shadow">
    <rect x="22.4" y="92.44" width="120.87" height="26.49"/>
    <path d="M142.77,92.94v25.5H22.9V92.94H142.77m1-1H21.9v27.5H143.77V91.94Z"/>
  </g>
  <g class="oakDarkest">
    <polygon points="134.42 103.42 136.12 119.44 151.99 119.44 153.69 103.42 134.42 103.42"/>
    <polygon points="30.71 103.42 29.01 119.44 13.14 119.44 11.44 103.42 30.71 103.42"/>
  </g>
  <path class="pillowSurface" d="M146.32,51.27c9-.22,15.17-3.42,15.17-5.81V7.77c0-2.2-4.55-4.45-12.34-5.64C135.58.07,30.33-.15,16,2.13,8.2,3.37,3.65,5.57,3.65,7.77V45.46c0,2.39,6.13,5.59,15.16,5.81C24.62,51.41,140.51,51.41,146.32,51.27Z"/>
  <path class="pillowEdge" d="M162,47.31c1,.14,1.18-.7,1-1.36a4.64,4.64,0,0,1-.23-3.46c2.39-5.24.69-28-.28-31.6a4.15,4.15,0,0,1,.21-3.4c.32-.66.35-2-.91-1.71C145,4.55,18.23,4.33,3.35,5.78,2.09,5.5,1.86,7.24,2.17,7.9A3.38,3.38,0,0,1,2.41,11c-1,3.56-2.38,26,0,31.27a4.24,4.24,0,0,1-.12,3.3c-.23.66-.2,1.92.81,1.78C21.14,45.58,146.12,46.25,162,47.31Z"/>
  <path class="skirt" d="M157,105.83A7.2,7.2,0,0,0,164.2,99,72.14,72.14,0,0,0,163,81.7c1.29-10.14,2.27-9.25,1-20.68-.72-6.49-3.13-9.33-8.24-9.61-13.73-.74-133.1-1.16-146.49,0-5.09.45-7.51,3.12-8.23,9.61C-.18,72.45.8,71.56,2.09,81.7A72.65,72.65,0,0,0,.93,99a7.21,7.21,0,0,0,7.19,6.88C25.59,104.32,139.55,104.33,157,105.83Z"/>
  <path class="weltDisplayLine" d="M163,81.65c-21.47-1.94-139.39-2-160.87,0"/>
</svg>
