<svg viewBox="0 0 109.42 124.73">
  <polygon class="steelDark" points="14.66 14.37 94.76 14.37 94.44 27.73 14.98 27.73 14.66 14.37"/>
  <path class="steelMedium" d="M1.34,34.86q.87,37.26.82,74.54l9.44.08q0-37.91-.7-75.79c-.14-6.22,3.27-9.79,9.58-9.93q33.44-.61,66.85,0c5.7,0,11.29,3.81,11.19,10q-.75,37.89-.7,75.79l9.44-.08q0-37.28.83-74.54c.1-10.35-9-21.16-19.88-20.67q-33.49-.67-67,0C11,14.61.27,23.94,1.34,34.86Z"/>
  <g class="rubberMedium">
    <polygon points="1.11 109.39 12.65 109.48 13.07 124.23 0.52 124.23 1.11 109.39"/>
    <polygon points="96.77 109.48 108.31 109.39 108.9 124.23 96.35 124.23 96.77 109.48"/>
  </g>
  <g class="oakMedium">
    <polygon points="11.1 1.23 38.45 0.53 38.6 13.88 11.51 14.47 11.1 1.23"/>
    <polygon points="41.04 0.5 68.39 0.5 68.26 13.85 41.16 13.85 41.04 0.5"/>
    <polygon points="70.98 0.53 98.32 1.23 97.91 14.47 70.83 13.88 70.98 0.53"/>
  </g>
</svg>
