<svg viewBox="0 0 1171.04 356.31">
  <path class="oceanRockMediumDark" d="M975.73,120.32c2.16,3.08,2.73,6.82,4.22,10.18,.67,1.51,1.71,2.89,1.88,4.61l.37,.37c1.03,1.65,1.32,3.59,2.02,5.36,1.39,3.5,2.55,7.1,4.12,10.51,2.34,5.11,4.47,10.32,7.68,15.02,2.39,3.5,4.4,7.27,7.81,9.94,3.59,2.81,7.09,5.68,11.41,7.5,2.87,1.21,5.39,3.28,7.96,5.11,1.07,.77,.71,2.21,.54,3.28-1.08,7.06-3.17,13.84-5.63,20.55-1.28,3.5-2.48,7.06-3.45,10.68-.65,2.43-2.27,4.62-2.81,7.06-.8,3.62-2.26,7.04-2.85,10.7-.29,1.82-1.12,3.5-1.32,5.36-.33,3.12-2.45,5.92-1.64,9.24-2.5,8.31-.92,15.74,.39,24.03,.56,3.53,1.62,7,1.93,10.55,.26,3.02,.69,6.02,.91,9.04,.27,3.64,.63,7.26,.68,10.91,.08,5.5-1.04,10.82-2.47,16.07-.89,3.27-.46,6.45,.1,9.62,.65,3.67,1.56,7.31,2.57,10.9,.83,2.94,1.99,5.78,3.07,8.88h156.23l.92-.92c-.54-1.69,.35-3.35,.14-4.98-.35-2.65-.46-5.31-.26-7.95,.12-1.61-.24-3.1-.45-4.62-.99-7.42-4.5-13.86-7.93-20.34-1.51-2.85-3.46-5.44-4.68-8.48-.71-1.78-1.06-3.71-2.01-5.37-1.21-2.12-1.92-4.41-2.8-6.64,1.06-.43,1.14-1.43,1.55-2.24,1.44-2.82,3.05-5.55,4.27-8.5,.53-1.27,.47-2.76,1.13-3.86,2.03-3.41,2.78-7.25,3.73-10.96,.74-2.89,1.18-5.92,.57-9.05-.36-1.84-.74-3.82-.58-5.7,.13-1.49,.04-2.99,0-4.44-.03-1.07,.66-2.31-.26-3.33l-.18-.37c-.3-3.88-.61-7.77-.83-11.65-.26-4.65-1.02-9.23-1.48-13.85-.37-3.72-1-7.46-2.06-11.12-1.85-6.37-4.02-12.57-6.55-18.72-1.91-4.64-3.77-9.33-5.66-14-1.55-3.84-3.09-7.69-4.88-11.43-2.14-4.48-4.34-8.92-6.65-13.31-2.86-5.43-6.94-9.97-11.29-14.21-4.05-3.96-8.37-7.65-12.53-11.5-1.57-1.45-2.57-3.14-3.26-5.32-1.83-5.77-3.58-11.58-6.27-17.08-1.56-3.19-3.2-6.35-4.77-9.54-1.49-3.01-3.76-5.58-5.62-8.38-3.04-4.56-7.06-8.27-10.31-12.6-2.11-2.81-3.47-6.19-5.06-9.37-2.2-4.42-4.03-9.02-6.17-13.46-2.79-5.79-6.33-11.1-11.96-14.63-2.88-1.8-5.96-3.36-8.64-5.42-3.57-2.74-7.47-4.92-11.35-7.1-3.48-1.95-7.12-3.76-10.9-4.95-4.47-1.42-8.69-3.64-13.46-4.23-2.57-.32-5.03-1.42-7.59-1.94-3.86-.79-7.75-1.41-11.64-2.05-3.55-.59-7.19-.41-10.7-1.02-3.83-.67-7.77-.83-11.47-2.13-1.39-.49-2.87-.16-4.25-.56-2.84-.83-5.65-1.8-8.51-2.56-3.8-1.01-7.71-1.64-11.43-2.86-3.88-1.27-7.9-1.59-11.86-2.28-2.28-.4-4.67-.17-7.01-.25-7.15-.25-14.19,.65-21.05,2.5-3.31,.89-6.56,2.3-9.48,4.31-1.26,.87-2.68,1.5-4.21,1.95-1.56,.45-2.95,1.47-4.46,2.14-3,1.33-5.99,2.73-9.07,3.84-1.59,.57-3.21,1.18-4.74,1.83-2.59,1.09-5.24,2.1-7.84,3.13-4.29,1.7-8.23,3.88-11.78,6.76-4.27,3.47-8.98,6.34-13.17,9.92-2.34,2-5.07,3.54-7.53,5.42-2.02,1.55-4.16,2.89-6.31,4.22-3.02,1.88-6.21,3.46-9.41,5.03-2.86,1.39-5.71,1.11-8.71,.77-3.56-.41-7.13,.32-10.5,1.33-2.76,.83-5.6,1.57-8.18,3.02-1.7,.96-3.51,1.77-5.35,2.4-3.54,1.22-6.74,3.17-10.12,4.72-2.39,1.1-4.57,2.75-6.66,4.39-2.99,2.34-5.72,5.03-8.74,7.33-3.77,2.88-7.36,5.97-11.12,8.83-2.11,1.6-4.78,2.59-6.73,4.39-3.18,2.93-7.17,4.3-10.76,6.43-3.76,2.24-7.51,4.52-11.07,7.05-2.29,1.63-4.27,3.72-6.31,5.69-3.01,2.91-6.39,5.49-9.15,8.58-2.62,2.93-5.85,4.49-9.14,6.22-5.12,2.69-10.64,3.49-16.28,4.09-1.82,.19-3.59-.31-5.36-.04-2.53,.39-5.07,.77-7.57,1.31-2.11,.45-3.96-.35-5.51-1.38-3.45-2.31-6.78-4.76-9.74-7.8-3.27-3.36-6.83-6.48-10.36-9.61-3.45-3.06-6.82-6.16-10.63-8.77-3.9-2.67-8.11-4.66-12.54-6.37-4.59-1.78-9.23-2.41-14.08-2.36-4.13,.05-8.26-.21-12.39-.48-4.18-.27-8.38-.27-12.57-.2-3.89,.06-7.61-1.08-11.46-1.38-3.33-.26-6.66-.16-9.99-.44-2.08-.17-4.13-.59-6.29-.29-6.24,.9-12.15,2.8-17.52,6.01-6.66,3.98-13.07,8.36-19.63,12.51-4.24,2.67-8.52,5.29-12.67,8.07-2.63,1.76-5.28,3.55-7.84,5.43-4.12,3.03-8.09,6.26-12.37,9.08-1.87,1.23-3.24,3.04-4.96,4.47-2.99,2.47-5.34,5.63-8.35,8.1-.65,.53-.37,1.34-.37,2.02-.01,12.51,0,42.95,0,45.84h1.29c9.98,0,19.96-.05,29.94,.05,1.92,.02,3.33-.67,4.62-1.9,5.13-4.87,9.57-10.34,13.65-16.1,2.09-2.95,3.96-6.08,5.74-9.23,3.28-5.81,8.6-9.64,13.38-13.98,.7-.63,2.1-.23,3.09-.16,3.31,.24,6.44-.67,9.61-1.23,4.25-.75,8.41-1.95,12.39-3.66,2.64-1.13,5.37-2.08,7.92-3.39,1.34-.69,2.76-.74,4.11-1.18,7.14-2.28,14.33-4.44,21.8-5.39,1.52-.19,3.11-.36,4.44,.88,2.52,2.36,5.58,3.95,8.48,5.76,1.65,1.03,3.07,2.39,4.81,3.33,4.76,2.57,9.17,5.78,14.07,8.09,4.38,2.07,7.47,5.5,10.55,9.06,3.42,3.96,6.67,8.07,10.66,11.52,3.03,2.62,5.65,5.7,8.89,8.11,2.88,2.15,5.94,4.04,8.86,6.12,3.36,2.39,6.93,4.45,10.25,6.9,3.83,2.83,7.59,5.9,12.12,7.7,1.32,.52,2.41,1.62,3.72,2.15,2.48,1,5.13,1.5,7.74,2.09,5.3,1.19,10.7,1.16,16.08,1.49,5.2,.31,10.35,.15,15.53-.33,2.81-.26,5.67-.44,8.5-.39,6.15,.12,11.87-1.3,17.18-4.33,1.4-.8,2.61-1.93,3.9-2.93,3.95-3.07,7.94-6.1,11.81-9.27,1.91-1.57,3.58-3.44,5.4-5.13,.47-.43,.52-.98,.73-1.49,.26-.65,.6-1.14,1.29-.37l-.18-.37c.37-.43,.69-.92,1.12-1.29,5.4-4.7,10-10.27,16.04-14.3,3.19-2.12,5.69-5.18,8.9-7.36,2.11-1.43,4.04-3.12,6.12-4.59,4.76-3.34,9.54-6.59,13.91-10.49,6.5-5.81,11.6-12.81,17.34-19.27,3.82-4.3,8.15-8.06,12.93-11.28,.74-.5,1.67-.7,2.05-1.54,3.62,1.59,6.81,3.63,10.15,5.38,4.98,2.61,10.13,4.84,15.69,5.96,2.26,.45,4.51,.88,6.84,.94,2.53,.06,5.04,.18,7.58,.05,4.92-.25,9.85-.07,14.78-.07,1.48,0,3.04-.3,4.42,.06,2.63,.7,5.35,.71,7.98,1.37,1.6,.4,3.47,.07,4.94,.4,3.09,.69,6.11,.33,9.09,.11,4.22-.31,8.41-1.17,12.57-1.97,2.76-.54,5.56-.82,8.31-1.33,3.93-.72,7.8-1.83,11.65-2.93,1.14-.32,2.7-.18,3.15-1.81l-.55,1.29Z"/>
  <path class="oceanRockMedium" d="M.5,355.63c1.29,.06,2.59,.18,3.88,.18,38.26,0,76.52,0,114.79,0h1.75c.6-.92,.29-1.79,.05-2.38-2.23-5.51-4.6-10.96-8.26-15.74-5.04-6.57-10.46-12.78-16.65-18.29-2.34-2.08-3.17-4.86-3.47-7.77-.56-5.4-1.4-10.68-4.45-15.35-.54-.82-1.41-1.48-1.49-2.2,6.03-15,4.97-29.6-.18-44.27,2.57-2.09,5.48-3.83,7.99-6.13,1.56-1.43,2.88-3.05,4.32-4.56,4.73-4.97,9.15-10.23,13.42-15.61,3.9-4.92,8.02-9.71,12.41-14.2,2.54-2.6,4.34-5.82,7.27-8.09,1.01-.79,2.12-1.54,3.01-2.52,3.75-4.08,6.67-8.67,9.11-13.66,2.9-5.94,5.46-12.06,8.84-17.76,1.91-3.21,3.46-6.6,5.62-9.69,1.44-2.07,2.95-4.12,4.4-6.18,2.35-3.32,5.09-6.38,9.92-5.42,.84,.17,1.72,.19,2.58,.19,3.93,0,7.76,.89,11.64,1.32,1.74,.19,3.45,.62,5.18,.9,4.04,.65,8.07,1.28,12.02,2.39,3.18,.89,6.36,1.91,9.62,2.35,3.77,.51,7.44,1.47,11.25,1.85,6.16,.62,12.32,1.22,18.5,1.3,4.19,.05,8.38-.55,12.57-.85,.67-.05,1.38,.12,2.03-.03,4.34-1,8.68-1.99,12.96-3.26,5.58-1.65,11.1-3.44,16.43-5.78,5.39-2.37,10.49-5.28,15.56-8.26,1.67-.98,3.05-2.38,4.79-3.16,2.57-1.15,5-2.6,7.58-3.69,7.37-3.13,14.46-6.86,22.11-9.45,4.78-1.62,9.54-2.98,14.47-3.92,4.12-.78,7.05,.71,9.27,4.08,.35,.53,.63,1.09,1.24,1.54,1.77,1.31,3.22,3.13,4.2,4.99,2.28,4.36,5.67,7.75,8.99,11.2,4.81,4.99,9.77,9.83,14.78,14.61,3.53,3.37,7.19,6.62,10.9,9.8,4.33,3.7,8.83,7.18,14.02,9.65,2.21,1.05,4.23,2.55,6.5,3.44,3.75,1.48,7.67,2.51,11.42,3.97,2.75,1.07,5.74,1.93,7.06,5.13,1.53,3.71,3.56,7.17,5.74,10.53,.9,1.39,2.27,2.49,3.08,3.92,1.98,3.49,4.83,5.98,8.15,8.15,3.75,2.45,7.42,5.03,10.77,8.07,3.38,3.07,6.35,6.49,9.18,10.04,.37,.46,.85,1.14,.62,2.01-.62,2.35-.68,4.78-.79,7.2-.12,2.67,.21,5.32,.47,7.94,.19,1.91,.27,3.86,.92,5.78,.32,.92,1.13,2.78-.81,3.46-4.17,1.47-7.26,4.5-10.29,7.46-2.9,2.83-5.4,6.09-7.82,9.37l-.18,.37c-1.38,2.08-2.56,4.28-4.04,6.3-2.46,3.36-4.32,7.14-7.01,10.36-.53,.63-1.12,1.21-1.57,1.97-2.12,3.61-4.98,6.68-7.73,9.81-2.59,2.95-5.14,5.9-7.22,9.24-1.14,1.83-1.94,3.83-3.23,5.61-1.26,1.73-2.41,3.82-2.72,5.88-.39,2.6-1.3,5.06-1.95,7.52-1.51,5.69-2.02,11.44-2.7,17.22-.15,1.3,.13,2.59-.25,3.9-.68,2.35,.34,4.81-.59,7.38h112.42c.12-.55,.01-1.3,.03-2.03,.03-1.88-1.1-3.15-1.89-4.63-2.34-4.37-5.66-8.06-9.19-11.32-3.31-3.07-7.03-5.78-10.41-8.83-1.83-1.65-3.55-3.48-3.87-6.09-.29-2.39-.57-4.77-.68-7.2-.2-4.41,.48-8.75,.42-13.13-.02-1.27,.9-2.69-.26-3.85,1.46-2.41,2.92-4.83,4.39-7.24,2.31-3.78,3.83-7.94,5.79-11.89,1.79-3.6,2.68-7.68,3.78-11.6,.72-2.57,1.61-5.2,1.92-7.77,.4-3.38,.95-6.75,1.25-10.15,.05-.52,.13-1.01,.37-1.48,1.56-3.05,2.91-6.1,3.42-9.6,.58-3.96,.17-7.75-.9-11.45-.71-2.46-2.19-4.71-3.14-7.09-.77-1.92-1.57-3.83-2.74-5.47-3.86-5.4-6.65-11.42-10.13-17.03-1.21-1.95-1.72-4.26-3.14-6.1l-.18-.37c-1.35-3.54-3.46-6.62-5.71-9.62-1.95-2.61-4.52-4.61-6.69-7-1.64-1.8-3.26-3.69-5.2-5.14-2.72-2.03-5-4.52-7.67-6.27,.55-2.43,.26-4.54-.2-6.73-1.37-6.6-4.14-12.52-8.38-17.72-2.76-3.37-5.93-6.38-9.03-9.45-3.31-3.28-6.81-6.37-9.82-9.96-3.54-4.21-7.79-7.79-10.9-12.39-.24-.35-.58-.66-.92-.92-3.27-2.5-5.98-5.61-9.33-8.07-3.18-2.34-5.99-5.3-8.64-8.34-.96-1.1-1.61-2.43-2.72-3.37-3.84-3.25-7.89-6.13-12.94-7.21-3.17-.68-6.34-1.52-9.39-2.51-4.7-1.52-9.35-3.27-13.92-5.2-4.81-2.03-9.75-3.73-14.4-6.15l-.18-.37c-1.82-.72-3.42-1.83-4.98-2.97-5.66-4.14-11.76-6.21-18.87-4.64-6.3,1.39-12.63,2.64-19.03,3.57-2.55,.37-5.05,1.13-7.59,1.61-1.08,.2-2.21,.18-3.32,.2-1.2,.03-2.35,.22-3.52,.53-3.48,.92-7.03,1.61-10.5,2.53-4.93,1.29-10.15,1.77-14.62,4.55-1.44,.89-2.86,1.82-4.29,2.7-3.89,2.39-7.41,5.25-10.86,8.21-1.07,.92-2.55,1.36-3.31,2.59-.52,.84-1.3,.3-1.68,.27-3.88-.39-7.77,.16-11.66-.41-5.32-.78-10.56-1.79-15.72-3.33-2.92-.87-5.93-1.39-9.03-1.64-4.08-.33-8.14-.06-12.21-.27-3.99-.21-7.7,1.04-11.46,2.06-5.53,1.5-11.09,2.78-16.82,3.13-2.28,.14-4.57,.18-6.84,.39-2.59,.24-5.27,.28-7.57,1.67-3.84,2.31-7.99,3.98-12.03,5.89-1.65,.78-3.32,1.48-4.99,2.22l.18,.37c-3.18-.72-6.39-.92-9.61-.36-3.21,.56-6.27,1.6-9.06,3.32-1.88,1.16-3.75,2.38-5.15,4.08-3.23,3.92-7.07,7.23-10.59,10.86-1.18,1.22-2.54,2.28-3.48,3.73-.2,.32-.55,.74,.18,.92l-.55,.18c-4.13,3.88-7.51,8.4-11.1,12.75-1.68,2.03-2.85,4.41-4.47,6.45-2.99,3.76-5.54,7.82-8.6,11.53-2.01,2.43-2.78,5.62-4.11,8.46-1.74,3.72-3.26,7.51-5.26,11.15-2.91,5.3-7.15,9.19-11.54,13.09-3.09,2.75-6.02,5.69-8.87,8.68-2.77,2.9-6.01,4.94-9.6,6.7-6.29,3.08-12.21,6.82-17.41,11.58-4.1,3.75-7.24,8.28-10.1,12.98-.93,1.52-1.11,3.52-1.54,5.32-1.08,4.55-2.3,9.08-3.09,13.69-.62,3.57-1.17,7.16-1.9,10.71-.7,3.39-1.62,6.71-2.72,10-1.07,3.19-1.96,6.46-2.71,9.76-.87,3.81-2.12,7.54-3.28,11.28-.81,2.61-1.09,5.37-1.93,7.92-1.04,3.18-1.36,6.45-1.44,9.64-.08,3-.73,5.98-.27,9.07,.29,1.93-.8,4.03-1.15,6.08-.63,3.73-2.07,7.21-3.81,10.48-.95,1.79-2.29,3.42-2.84,5.42-1.12,4.08-2.49,8.08-2.88,12.37-.32,3.51-.73,7.02-.83,10.54-.03,.98,.11,1.97,.17,2.96H.5Z"/>
  <g class="caveFoldLine">
    <path d="M1107.89,124.57c.65,4.99,2.06,9.89,2.03,14.97-.03,5.48,.13,10.98-.27,16.44-.24,3.39-.02,6.81-.78,10.19-.38,1.71-.18,3.56-.24,5.35"/>
    <path d="M1153,295.74c-.04,2.03-1.34,3.55-2.26,5.15-2.54,4.4-5.76,8.25-9.31,11.93-3.87,4.01-7.75,8.02-11.54,12.12-.32,.34-.38,.74-.54,1.12"/>
    <path d="M1012.88,157.11c.81,2.18,2.61,3.71,3.73,5.71,2.9,5.14,5.22,10.54,6.32,16.31,.58,3.04,1.06,6.23,.67,9.41"/>
    <path d="M860.2,113.85c-.68-1.11-1.94-1.06-2.92-1.56-3.44-1.75-7.17-2.58-10.78-3.75-4.23-1.37-8.67-1.59-13.11-1.54"/>
    <path d="M625.27,125.5c-2.51,1.14-4.99,2.34-7.56,3.37-5.76,2.31-11.7,3.9-17.76,5.13-.41,.08-.86,.01-1.29,.01"/>
    <path d="M843.2,60.06c-3.2-.86-6.41-1.72-9.61-2.59-1.05-.29-2.11-.57-3.14-.93-4.5-1.56-8.95-3.29-13.68-4.06"/>
    <path d="M702.35,120.32c-3.35,3.65-6.4,7.55-9.43,11.46-1.67,2.15-3.22,4.41-5.02,6.44-1.69,1.91-2.74,4.18-4.04,6.31"/>
    <path d="M665.38,127.9c-.98,1.13-2.5,1.47-3.73,1.94-4.67,1.74-8.46,4.76-12.34,7.68-1.68,1.27-3.27,2.67-5.03,3.83-.54,.36-1.15,1.02-2,.79"/>
    <path d="M994.95,108.49c-.25,.04-.49-.04-.75,.17-5.15,4.13-10.55,7.89-16.63,10.53-.65,.28-1.2,.61-1.65,1.13"/>
    <path d="M12.88,307.94c-.62,2.2,.3,4.23,.76,6.28,1.43,6.39,3.88,12.47,5.98,18.64,.65,1.89,1.09,4.06,2.68,5.58"/>
    <path d="M170.19,146.2c-4.13-.97-8.41-.61-12.58-1.41-1.52-.29-3.2,.09-4.79,.32-2.35,.35-4.68,.89-7.03,1.24-.81,.12-1.45,.25-1.66,1.14"/>
    <path d="M507.15,297.96c-1.35,2.62-3.08,5.03-4.27,7.75-1.82,4.15-4.14,8.08-5.21,12.57-.35,1.48-1.04,2.9-1.24,4.45"/>
    <path d="M75.73,225.87c-.09,3.28,1.05,6.11,2.73,8.9,2.15,3.59,3.93,7.4,5.99,11.05,.73,1.3,1.03,2.85,2.19,3.9"/>
    <path d="M374.25,114.04c-.87-.15-1.48,.48-2.22,.74-4.61,1.62-9.39,2.3-14.23,2.55-.85,.04-1.55,.61-2.4,.41"/>
    <path d="M435.81,165.98c-.64,4.03,.66,7.82,1.55,11.63,.44,1.87,.56,3.91,1.78,5.56"/>
    <path d="M493.11,245.83c-1.29,1.81-3.37,2.49-5.19,3.48-2.45,1.31-5.02,2.41-7.57,3.52-.54,.24-1.22,.15-1.84,.21"/>
    <path d="M173.7,99.62c-3.17-2.54-6.67-4.3-10.71-5.04-1.05-.19-2.05-.61-3.15-.5"/>
    <path d="M482.76,161.91c-.55,2-.41,4.08-.76,6.1-.61,3.5-1.25,6.99-1.45,10.54"/>
    <path d="M270.74,84.09c-2.91,3.13-5.89,6.18-9.06,9.06"/>
    <path d="M77.02,286.87c.78,.8,1.79,1.19,2.76,1.69,2.43,1.23,4.18,3.3,6.11,5.15"/>
  </g>
</svg>