<svg viewBox="0 0 532.84 300.5">
  <path class="oceanRockMedium" d="m.5,300c2.61-38.37,11.52-29.31,11.57-53.54-1.12-13.09,4.82-26.02,12.9-55.64,3.7-11.76,3.92-23.49,6.23-27.44,14.52-24.87,20.85-16.29,35.52-30.29,11.2-10.68,15.29-11.79,18.91-17.47,10.09-15.87,9.44-20.65,13.79-26.7,12.92-17.94,39.57-57.46,60.66-52.06,23.85-13.98,23.39-7.21,46.2-12.85,33.76-8.36,33.42,5.65,63.55,3.21C300.23.99,312.42,10.02,344.28,1.58c19.37-5.13,21.15,9.14,63.89,20.19,13.52,3.5,26.35,21.28,43.35,37.9,18.75,18.33,30.35,24.16,30.25,46.77,18.31,14.47,21.79,20.23,28.7,35.7,4.74,10.61,17.31,22.49,17.13,37.12-.1,8.3-4.48,7.36-5.16,21.82-.64,13.65-7,23.71-15.61,40.62,1.15,7.03-3.79,16.48.93,26.45,4.06,8.58,21.45,14.26,24.58,31.86h-112.42c.47-24.38,1.67-38.85,20.54-59.63,11.8-13,14.42-30.74,37.6-44.5-2.68-7.34-3.05-16.76-1.48-26.1-14.71-17.16-25.68-17.13-38.45-43.02-60.63-20.78-71.44-65.72-84.65-65.99-35.34,5.36-53.33,25.18-75.34,32.48-53.83,17.86-82.74-7.62-109.45-3.86-19.08,13.19-19.08,38.42-37.82,55.32-17.83,16.08-34.94,43.2-44.79,47.76,5.37,15.42,5.75,30.38,0,44.79,8.62,10.54,2.6,16.1,7.56,22.63,9.18,12.1,24.17,23.4,26.7,40.13H.5Z"/>
  <g class="caveFoldLine">
    <path d="m21.77,281.53c-4.09-14.31-10.37-17.88-9.7-35.07"/>
    <path d="m76.59,229.87c3.45,1.65,6.61,4.12,9.48,7.38"/>
    <path d="m74.9,168.75c-1.27,7.1,7.13,14.6,11.18,23.7"/>
    <path d="m143.82,90.15c7.03-2.27,14.26.85,24.86-.77"/>
    <path d="m173.19,42.95c-3.22-2.44-7.56-4.48-13.11-6.07"/>
    <path d="m260.97,36.16c2.64-2.62,5.63-5.64,8.86-8.92"/>
    <path d="m373.53,56.87c-5.93,2.82-12.56,2.55-20.05,3.88"/>
    <path d="m435.16,108.82c-.02,5.83,1.08,11.82,2.97,17.92"/>
    <path d="m479.81,121.38c1.03-3.22,1.64-8.41,1.96-14.95"/>
    <path d="m492.71,188.78c-5.14,2.33-10.06,4.69-14.65,7.08"/>
    <path d="m495.76,266.2c2.44-8,6.58-17.4,11.07-24.51"/>
  </g>
</svg>