<svg viewBox="0 0 428.44 259.83">
  <path class="blackDarkest" d="M48.4,197.67l67.07,3.47V111.21l-72.03,1.26s-6.16,68.42,4.96,85.2Z"/>
  <path class="rubberMediumDark" d="M73.41,256.33c5.82,3.67,24.58,4.1,38.6,.65,14.66-3.02,24.37-18.33,27.73-34.03,4.7-25.88,2.46-53.74-7.07-68.44-12.89-18.73-33.84-17.96-56.02-12.69l-3.23,114.51Z"/>
  <ellipse class="rubberDark" cx="80.1" cy="199.83" rx="31.7" ry="58.23"/>
  <path class="steelMedium" d="M76.54,158.9c-4.86,.63-8.06,3.74-10.64,7.54-3,4.42-4.77,9.39-6.09,14.53-.63,2.45-1.29,4.89-1.66,7.37-.35,2.32-.58,4.66-.72,7.01-.14,2.27-.23,4.53-.17,6.8,.07,2.89,.35,5.76,.75,8.61,.66,4.69,1.83,9.25,3.57,13.63,1.99,5.01,4.38,9.78,8.61,13.33,4.02,3.37,8.46,3.86,13.26,.84,3.45-2.17,5.88-5.29,7.87-8.76,3.08-5.37,4.71-11.22,5.85-17.24,1.01-5.3,1.29-10.64,1.12-15.98-.1-3.25-.62-6.47-1.09-9.69-.75-5.12-2.3-9.95-4.5-14.57-2.18-4.57-4.92-8.74-9.36-11.49-2.04-1.26-4.24-2.01-6.68-1.93h-.11Z"/>
  <path class="steelLight" d="M76,211.04c2.22-.51,3.27-2.2,3.97-4.12,1.22-3.33,1.46-6.76,1.13-10.26-.18-1.85-.42-3.67-1.14-5.36-.76-1.79-1.98-3.15-4.18-3.12-1.09,.01-2.02,.48-2.79,1.19-1.89,1.73-2.74,4.03-3.33,6.41-.62,2.49-.69,5.03-.22,7.54,.45,2.45,1.19,4.77,3.11,6.53,.81,.74,1.69,1.2,2.81,1.13,.3-.02,.62-.05,.54,.42"/>
  <g class="steelDark">
    <path d="M62.3,184.42c-.45,2.25-.08,4.45,.3,6.64,.12,.67,.37,1.34,.7,1.94,.85,1.54,2.64,1.37,3.81-.22,.91-1.24,1.21-2.7,1.46-4.07,.53-2.93,.61-5.9-.27-8.81-.21-.7-.58-1.32-.97-1.86-.73-1.01-2.24-.62-3.15,.62-1.14,1.56-1.77,3.29-2.1,5.16l.21,.61Z"/>
    <path d="M78.59,227.77c.11,1.32,.64,2.42,1.62,3.32,.72,.66,1.74,.84,2.59,.38,3.29-1.76,5.07-4.64,6.16-8.08,.7-2.22,.46-4.19-1.1-5.91-.71-.78-2.27-.84-3.12-.17-1.97,1.55-3.35,3.58-4.64,5.69-.72,1.18-1.14,2.46-1.42,3.8-.06,.31-.16,.58,.02,.87l-.11,.11Z"/>
    <path d="M93.36,187.94c.25-2.51-.07-4.91-.8-7.34-.6-1.96-1.23-3.82-2.65-5.33-.24-.26-.49-.51-.76-.74-1.1-.98-2.58-.66-3.23,.7-.43,.89-.69,1.87-.72,2.82-.05,1.88,.08,3.74,.43,5.61,.38,2.05,1.34,3.77,2.23,5.55,.55,1.1,1.52,1.67,2.69,1.88,1.15,.21,2.23-.57,2.68-1.87,.13-.38,.15-.79,.22-1.19l-.11-.11Z"/>
    <path d="M94.44,200.86c.05-1.72-.54-3.21-1.63-4.49-.63-.74-2.74-.62-3.68,1.02-.58,1-.78,2.1-1.02,3.16-.31,1.4-.36,2.87-.52,4.31-.21,1.85,0,3.62,.39,5.39,.23,1.07,.79,1.99,1.7,2.68,1.09,.82,1.86,.84,2.91-.06,.68-.58,1.06-1.36,1.28-2.18,.88-3.2,1.13-6.44,.66-9.71l-.11-.11Z"/>
    <path d="M63.39,200.75c-1.32,1.3-1.46,2.97-1.63,4.66-.24,2.43-.06,4.79,.65,7.11,.15,.48,.4,.91,.58,1.38,.41,1.05,1.94,1.15,2.53,.17,.31-.53,.57-1.13,.68-1.77,.56-3.28,.44-6.51-.66-9.64-.35-.98-.7-2.02-2.04-2.02l-.11,.11Z"/>
    <path d="M82.2,167.43c-1.15-1.68-2.78-2.42-4.8-2.4-1.45,.02-2.82,.16-4.23,.77-1.63,.71-2.49,1.99-3.3,3.36-.77,1.32,.05,3.51,1.38,4.18,2.4,1.21,4.79,.79,7.24,0,1.11-.36,1.87-1.12,2.66-1.83,.93-.83,1.45-1.92,1-3.23-.08-.22-.01-.5-.01-.75l.05-.11Z"/>
    <path d="M67.16,218.37c-1.24,.49-1.64,1.67-1.78,2.73-.32,2.29,.36,4.46,1.48,6.43,.78,1.37,1.74,2.62,3.09,3.54,.59,.4,1.19,.66,1.85,.8,.89,.19,1.54-.24,1.83-1.1,.58-1.7-.09-3.27-.47-4.84-.26-1.06-.95-2.01-1.31-3.03-.49-1.39-1.56-2.32-2.25-3.53-.45-.79-1.46-.88-2.34-1h-.11Z"/>
  </g>
  <g class="floodLight">
    <polygon points="201.08 207.19 251.32 206.31 251.32 179.57 201.08 180.45 201.08 207.19"/>
    <polygon points="385.67 196.16 415 195.64 415 171.11 385.67 171.63 385.67 196.16"/>
  </g>
  <polygon class="headLightDark" points="145.01 163.75 204.53 162.71 204.53 137.48 145.01 138.51 145.01 163.75"/>
  <path class="turnLight" d="M155.14,158.28c-.25-2,.03-4.03-.31-6.04-.28-1.67-.5-3.36-.64-5.06-.13-1.62-.58-3.2-.56-4.84l-24.69,.65c-.04,.47-.11,10.96-.11,15.74l26.31-.46Z"/>
  <g class="blackMedium">
    <path d="M236.99,185.56c14.31-4.99,24.73,32.66-31.69,21.02,48.09,9.19,39.63-24.25,31.69-21.02Z"/>
    <path d="M407.42,173.91c12.91-5.13,25.26,32.29-32.54,21.67,47.67,10.19,41.99-25.56,32.54-21.67Z"/>
  </g>
  <g class="headLight">
    <path d="M421.9,148.67c-.06-.68,.06-1.36-.1-2.05-1.02-4.37-2.84-8.21-6.8-10.66l-37.52,.33v18.98l44.42-6.6Z"/>
    <path d="M267.82,157.72c-23.11,.4-70.73,1.02-70.73,1.02,0-.14,0-.29,0-.43,.27-4.04-.98-7.67-2.78-11.18-.86-1.68-2.08-3.06-3.15-4.57,0,0,48.52-1.17,71.27-1.57l5.39,16.73Z"/>
  </g>
  <path class="hoodFront" d="M386.86,154.46c-.09-2.66,.15-5.31-.27-7.98-.55-3.47-2.64-10.51-2.64-10.73l-128.31,4.5c.8,2.63,1.53,5.27,1.63,8.06,.12,3.31,.57,10.68,.85,10.98l128.74-4.84Z"/>
  <path class="mirror" d="M94.44,4.04c-1.6,.04-3.55,1.52-4.08,3.2-.34,1.06-.81,2.1-.77,3.24,.12,3.54,2.16,6.34,6.26,6.56,5.67,.29,11.35,.54,17.03,.25,3.74-.19,7.49-.29,11.22-.92,1.96-.33,3.96-.37,5.92-.68,3.17-.5,5.5-1.59,6.41-5.39,.45-1.88-.17-4.26-2.4-5.79-.8-.55-1.69-.92-2.5-1.44l-37.09,.97Z"/>
  <path class="glassClear" d="M38.05,91.14L5.91,15.66C54.65,1.43,126.25-1.38,186.63,5.53c23.11,20.94,40.94,44.02,62.32,68.79L38.05,91.14Z"/>
  <g class="bodyDark">
    <path d="M48.4,197.67c-6.41-22.36-3.23-43.13,8.63-60.38,11.86-15.96,31.05-16.39,42.7-4.31,9.91,10.93,15.72,23.89,18.11,39.25,2.93,16.34,8.16,30.39,17.94,39.88,6.43,1.53,37.48,1.96,54.3-1.28,18.33-9.49,6.9-54.56,6.9-54.56l-58.23-.65c-1.78-2.65-2.65-6.2-2.94-9.98l57.93,.06c-29.28-51.4-82.11-65.09-155.78-63.05-2.79-.08-9.93,.89-10.3,3.66-5.14,39.09-4.88,83.08,2.99,109.16l17.74,2.2Z"/>
  </g>
  <g class="blackMediumLight">
    <path d="M200.97,165.25c-1.14-.91-2.44-1.42-3.88-1.66-24.57-.22-58.66-1.26-81.41-1.69-.95,.04-1.81,1.35-1.84,2.61-.27,2.55-.45,7.48,1.72,9.8,.88,.93,1.96,.84,3.04,.9,18.79,1.36,55.26,3.14,78.82,3.43,1.28,.05,2.58-.35,3.45-1.52l.11-11.86Z"/>
    <path d="M48.07,156.38c-.37,.19-.73,.39-1.19,.35-5.58-.24-16.22-.83-20.49-1.17-1.28-.08-1.94,.62-2.5,1.66-.52,.97-.67,2.02-.81,3.05-.26,1.9-.19,3.77,.59,5.61,.82,1.93,2.21,2.76,4.23,2.83,4.5,.17,9,.46,13.48,.94,1.15,.12,2.3,.18,3.45,.27l3.23-13.53Z"/>
  </g>
  <path class="blackMediumDark" d="M45.29,168.94c.88-3.09,1.02-6.28,1.62-9.41,.1-.51,.7-2.39,0-2.66-.6,.22-1.07,.87-1.51,1.51-2.06,2.96-2.31,6.17-1.29,9.5,.16,.52,.42,1.05,1.06,1.17,0,0,.04,.2,.12-.11Z"/>
  <g class="body">
    <path d="M422.06,146.68c4.63,13.61,3.86,28.65-.38,43.59-.69,2.43-2.5,4.4-4.88,5.24-36.57,12.91-142.89,15.32-226.93,15.32,9.63-10.52,10.57-32.13,7.12-54.34,86.69,1.08,165.46-.86,225.08-9.8Zm-10.76,29.16c-4.18,.51-8.3,1.15-12.35,1.93-3.38,.65-5.99,3.38-6.42,6.79-.28,2.21-.45,4.34-.51,6.38-.09,2.97,2.61,5.26,5.53,4.72,3.58-.65,7.07-1.37,10.46-2.16,4.27-.99,7.51-4.51,8.14-8.85,.18-1.28,.32-2.99,.42-4.29,.22-2.94-2.33-4.9-5.26-4.54Zm-170.41,10.72c-7.08-.39-14.05-.43-20.89-.09-3.86,.19-7.08,3.06-7.71,6.87-.33,1.98-.53,3.95-.59,5.93-.1,2.98,2.19,5.49,5.17,5.65,6.82,.37,13.8,.33,20.97-.21,3.88-.29,7.06-3.85,7.67-7.69,.28-1.8,.46-2.96,.53-4.77,.12-2.99-2.16-5.53-5.14-5.69Z"/>
    <path d="M189.12,5.87c-1.04-.97-2.39-1.55-3.8-1.75C125.84-4.47,33.73,3.58,1.81,14.03c-1.21,.4-1.62,1.89-1.06,3.03,11.42,22.97,19.83,45.83,27.19,68.53,1.38-2.22,7.5-3.01,10.03-2.93,1.11-.03,2.21-.06,3.31-.08C30.71,57.5,21.07,34.6,12.16,18.18c-.23-.42-.04-.96,.42-1.11C39.12,7.9,125.99-.12,185.08,7.11c.73,.09,1.45,.36,1.98,.88,19.2,18.67,38.82,40.88,58.66,65.9l5.61,.43c-21.57-26.52-40.76-48.52-62.2-68.44Z"/>
  </g>
  <path class="bodyLight" d="M37.18,82.51c65.34,5.47,120.28,24.12,156.56,62.97,82.39,1.13,157.59-.99,223.2-8.19-40.11-33.21-98.98-53.48-167.56-66.42-71.83-4.08-146-.86-212.2,11.65Z"/>
  <g class="hoodBorderLine">
    <path d="M86.78,74.96c61.46,5.39,139.74,31.92,170.26,70.7"/>
    <path d="M385.01,140.34c-35.57-35.61-122.04-67.75-185.34-71.17"/>
  </g>
  <path class="blackLighter" d="M197.84,163.38c.5,5.24,.79,10.41,.86,15.53,83.04,1.48,159.65-1,225.93-11.61,1.04-.17,1.91-.89,2.28-1.88,1.52-4.07,1.24-8.3-.19-11.34-.62-1.3-2.01-2.04-3.44-1.83-68.2,10.23-143.79,13.04-225.44,11.12Z"/>
  <path class="ornament" d="M320.12,129.31c-2.83-.57-5.62-.37-8.42,.45-1.06,.31-2.04,.6-2.59,1.68-.24,.47-.24,.8,.11,1.2,.97,1.11,2.33,1.4,3.68,1.64,2.79,.49,5.62,.43,8.4-.18,1.08-.24,2.33-.41,3.05-1.61,.48-.79,.22-1.27-.35-1.73-1.1-.88-2.41-1.27-3.77-1.56"/>
  <path class="grill" d="M366.27,181.34c-4.36,.08-8.7,.58-13.05,.88-4.14,.29-8.27,.66-12.4,.96-4.96,.36-9.92,.65-14.88,1.03-4.24,.33-8.48,.53-12.72,.76-4.46,.24-8.91,.58-13.37,.87-.47,.03-.93,.02-1.4,.03-5.9,.1-11.79,.5-17.68,.54-2.66,.02-5.32,.25-7.98,.33-1.98,.05-3.95-.04-5.93,.02-3.16,.1-4.06,1.21-4.92,3.54-1.04,2.81-1.52,5.75-1.09,8.74,.18,1.25,.44,2.48,1.25,3.56,.98,1.3,2.24,1.86,3.8,1.85,3.99-.04,7.98,0,11.97-.23,4.31-.24,8.63-.27,12.94-.51,3.63-.2,7.26-.31,10.89-.53,4.24-.25,8.48-.67,12.72-.83,3.28-.12,6.54-.45,9.81-.65,3.09-.19,6.18-.59,9.27-.77,2.52-.14,5.03-.38,7.55-.59,2.34-.19,4.67-.51,7.01-.73,2.3-.21,4.6-.38,6.9-.6,2.45-.23,4.89-.45,7.34-.74,2.07-.24,4.18-.14,6.25-.47,2.01-.31,4.04-.24,6.05-.72,2.46-.59,3.96-2.24,4.56-4.44,.62-2.29,.74-4.68,.45-7.11-.43-3.66-3.34-5.34-6.85-4.92-2.12,.25-4.22,.66-6.36,.74h-.11Z"/>
</svg>