<svg viewBox="0 0 940.46 339.49">
  <path class="dullIndigoDarkest" d="M939.56,212.62c-.37-12.5-4.66-17.33-14.4-23.01-58.06-33.89-133.21-55.99-215.24-60.11-28.78-34.49-52.9-75.79-82.7-102.81-9.96-9.03-19.47-17.44-43.16-19.07C475.49,.13,260.05-4.97,143.53,11.01c-21,2.88-23.24,.68-42.49,20.71-24.57,25.57-44.57,58.72-61.26,92.71-3.97,8.09-8.9,10.8-10.13,34.6-.65,12.53-.95,26.43-.64,40.96-17.45,.62-27.46,1.62-27.96,24.82-.64,29.55-.54,114.18-.54,114.18H939.56s.92-95.16,0-126.37ZM120.16,31.39c8.03-8.7,16.92-8.76,24.17-9.67,29.98-3.75,70.13-6.39,114.65-8.04-22.82,34.67-44.19,71.99-63.95,111.6-45.56,.81-91,1.85-136.2,3.09,18.43-42.6,39.58-73.42,61.33-96.99ZM280.08,13.96c-5.12,39.59-9,76.08-12.11,110.25-14.14,.17-28.28,.36-42.41,.57,15.98-35.69,33.48-72.67,54.52-110.82Zm-6.29,110.18c2.65-35.68,6.88-73.32,12.02-111.32,44.87-1.22,92.81-1.51,138.47-.96,3.63,37.05,6.43,74.28,8.29,111.7-52.93-.24-105.9-.01-158.79,.58Zm184.4-.42c-4.74-37.43-10.08-74.65-16.19-111.61,56.32,.96,107.95,3.21,144.35,6.58,8.85,.82,13.24,2.43,20.85,10.57,17.22,18.43,40.49,58.61,56.2,98.5-68.06-2.27-136.57-3.54-205.21-4.04Z"/>
</svg>