<svg viewBox="0 0 967.92 423.98">
  <rect class="blackDarkest" x="163.45" y="268.21" width="764.02" height="71.78"/>
  <path class="glossyYellowLight" d="M567.33,258.97c-1.03-1.71,.3-3.27,.34-4.93,.17-6.06,.09-12.11,.42-18.19,.66-11.99,.37-24.02,.63-36.04,.46-20.94,.35-41.9-.47-62.84-.33-8.52-.2-17.05-.44-25.57-.47-17.04-.89-34.09-1.31-51.14-.24-9.55-.98-19.08-.79-28.65,.09-4.61-.22-4.62,4.38-4.62,52.58,0,105.16,0,157.73,0,1.13,0,2.3,.22,3.39-.3l20.33,16.94c3.55,3.23,3.8,6.07,.92,10.47l9.86,110.91c1.36,1.91,3.65,2.3,5.55,2.34,3.31,.06,6.57,.61,9.85,.83,6.07,.41,12.14,.98,18.19,1.65,5.85,.65,11.69,1.35,17.54,1.99,5.97,.66,11.94,1.46,17.87,2.46,7.62,1.29,15.22,2.74,22.8,4.3,17.98,3.68,35.82,7.93,53.29,13.57,10.91,3.52,21.82,7.1,32.35,11.69,3.03,1.32,6.09,2.65,8.92,4.34,6.35,3.77,8.59,10.09,9.54,16.91,2.48,17.81,.86,35.73,1.2,53.6,.06,3.27-.93,6.55-.24,9.86l-64.08-1.23c-3.01-.79-5.91-1.67-8.67-3.32-10.6-6.35-22.18-10.11-34.47-11.03-5.59-.42-11.27-.38-16.95,.37-6.59,.87-12.91,2.47-19.08,4.76-13.06,4.85-23.98,12.89-32.91,23.44-7.97,9.41-13.48,20.18-16.51,32.27-1.08,4.31-1.08,8.79-2.69,13.06-9.92-.5-19.88,.1-29.86-.57-11.67-.79-23.4-.03-35.12-.64-14.45-.74-28.95,.02-43.44-.6-16.41-.71-32.85,0-49.29-.64-13.02-.5-26.08-.1-39.12-.11-1.13,0-2.3,.22-3.39-.3h-6.16c-.99,.49-2.05,.3-3.08,.3-67.88,0-135.76,0-203.64,.07-2.29,0-3.46-.65-3.69-2.83-1.04-9.93-4.35-19.2-9.34-27.67-11.15-18.96-27.13-31.89-48.56-38.05-9.79-2.82-19.71-3.81-29.59-2.82-20.33,2.05-37.69,10.56-51.83,25.66-10.36,11.07-16.59,24.13-20.16,38.59-.73,2.95-.85,6.14-1.4,9.52-4.15,.05-8.4,.5-12.57,.52-45.08,.17-90.16,.11-135.24,.09-.71,0-1.51,.34-2.46-.55v-82.31l183.92-5.24c5.86-.08,11.71-.25,17.57-.5,12.62-.53,25.25-.08,37.89-.62,12.1-.52,24.23-.11,36.35-.11l255.7,.92Z"/>
  <g class="bodyOverlapLine">
    <path d="M764.8,167.17c.17,4.11,0,7.09,0,11.09"/>
    <path d="M764.8,204.14v10.47"/>
    <path d="M946.26,244.8c-7.67-11.06-18.36-17.99-30.81-22.48-7.66-2.76-15.68-3.73-23.72-4.65-8-.92-16-1.59-24.03-2.2-9.03-.69-18.09-.73-27.11-1.28-15.72-.95-31.44-.53-47.14-.36-9.03,.1-18.08,.22-27.11,.75-1.6,.09-2.75,.93-3.66,1.92-5.21,5.71-9.83,11.87-13.91,18.45-5.47,8.83-9,18.51-11.9,28.38-1.59,5.4-2.58,11.01-3.62,16.58-.98,5.23-1.18,10.54-2.19,15.76-.41,2.15-.69,4.47-.79,6.75-.48,11.5-1.04,23-1.5,34.51-.12,2.98-.11,5.97,.29,8.93"/>
  </g>
  <g class="bodyCreaseLine">
    <path d="M765.11,178.57c-3.39-.31-6.16-.49-9.24,0"/>
    <path d="M765.11,203.83c-2.88-.5-5.75-.5-8.63,0"/>
  </g>
  <g class="rubberDark">
    <circle cx="844.9" cy="353.24" r="70.24"/>
    <circle cx="267.27" cy="353.24" r="70.24"/>
  </g>
  <g class="steelMedium">
    <circle cx="844.9" cy="353.24" r="34.81"/>
    <circle cx="267.27" cy="353.24" r="34.81"/>
  </g>
  <g class="hubcapReflection">
    <path d="M851.99,318.74c-1.44,3.56-3,7.03-4.13,10.74-1.41,4.65-.98,9.26-1.06,13.9-.04,2.07,1.71,3.28,3.03,4.62,2.28,2.3,3.56,4.97,3.11,8.32-.1,.77-.2,1.52-.65,2.15-2.35,3.34-2.68,7.18-3.13,11.09-.72,6.34-3.62,11.59-8.53,15.77-.95,.81-3.74,1.49-3.74,1.49,3.78-4.35,5.8-9.56,6.68-15.11,.5-3.16,.68-6.83-2.11-9.17-6.08-5.12-5.68-8.12-2.99-14.82,.57-1.43,1.45-2.68,1.52-4.33,.3-7.45,3.24-13.98,7.4-20,.53-.76,4.59-4.64,4.59-4.64Z"/>
    <path d="M262.24,382.16c2.21-5.72,2.62-11.76,2.21-17.83-.12-1.69-.85-3.19-2.39-4.36-3.7-2.82-4.72-7.57-2.81-11.67,.98-2.09,2.53-4.04,2.44-6.47-.19-5.19,1.29-9.89,4.07-14.15,1.96-3,3.85-6.27,7.97-6.8v.62c-3.07,4.02-4.92,8.42-5.68,13.54-.6,4.09-.79,7.62,2.6,10.49,3.78,3.19,5.32,7.17,2.99,11.67-2.1,4.05-2.38,8.41-3.3,12.68-1.57,7.28-4.96,13.42-11.09,17.87,0,0,2.6-4.59,2.98-5.58Z"/>
  </g>
  <path class="whiteMediumLight" d="M565.48,.5c-.38,.35-1.28-.09-1.24,.92,.37,8.85,1.72,17.63,1.64,26.6,1.32-.53,2.47-.41,3.61-.41,7.7,0,15.4,0,23.11,0,20.02,0,40.06-.32,60.07,.09,20.02,.41,40.04,1.01,60.07,1.26,4.82,.06,9.65,.51,14.73,.44-.24-9.2-.75-18.13-1.43-27.21-2.5-.16-4.97-.43-7.44-.44-14.27-.04-28.56,.34-42.82-.1-24.65-.77-49.3-.19-73.94-.62-12.01-.21-24.03-.53-36.05-.53h-.31Z"/>
  <path class="brakeLight" d="M756.79,14.67c5.59,5.55,6.97,11.94,4.36,19.43-1.89,5.44-6.08,7.63-11.31,9.15-2.45-7.89-3.55-15.94-5.99-23.64l12.94-4.93Z"/>
  <g class="blackMediumDark">
    <path d="M766.96,10.05c-1.28-.42-2.46,.06-3.71,.21-4.8,.56-9.65,.66-14.46,1.06-1.18,.1-1.73-.53-2.14-1.28-2.87-5.28-7.85-7.05-13.28-7.58-2.63-.26-5.28-1.49-7.95-.42-.42,14.62,1.1,29.17,1.25,43.76h27.47c-1.44-6.97-2.06-13.75-3.8-20.34-.27-1.03,.15-1.79,1.17-2.5,4.14-2.89,8.21-5.88,12.11-9.12,1.73-1.45,2.84-3.67,5.18-4.38l-1.85,.62Z"/>
    <path d="M717.22,274.07c-.8-27.94,.25-55.88-.63-83.79-.43-13.77,.22-27.55-.57-41.28-.73-12.64,.1-25.29-.62-37.89-.52-9.05-.12-18.09-.56-27.11-.58-11.71-.31-23.45-1.37-34.95-.32-.48-.52-.51-.73-.5-11,.49-21.98-.33-32.96-.71-26.7-.91-53.4-.24-80.1-.51h-.31c-3.95,1.35-8.02,.19-12.38,.75,.76,6.22-.04,12.61,.74,18.95,.06,.48,.24,1.04,.22,1.55-.38,10.28,.49,20.54,.73,30.81,.51,21.36,1.01,42.71,1.24,64.08,.1,9.34,.5,18.69,.5,28.04,0,50.63,0,101.25,0,151.88v.77c5.24,0,10.48,.05,15.71,.25,16.44,.64,32.88-.06,49.29,.64,14.49,.62,28.98-.14,43.44,.6,6.17,.32,12.35,.26,18.52,.25,.04-.58-.05-1.09-.05-1.59,.02-23.41,.55-46.84-.12-70.24Z"/>
    <path d="M8.79,354.17c1.44,1.26,2.87-.08,4.31-.02,11.82,.48,23.62-.53,35.42-.77,6.98-.14,14.01,.15,20.94-.57,5.78-.6,11.52-.11,17.26-.51,15.08-1.05,30.2-.84,45.28-1.39,8.74-.32,17.47-.12,26.19-.43,.72-.03,1.45,.08,2.15-.02,3.78-.52,4.06-1.12,4.37-4.91,.36-4.56,.97-9.1,2.09-13.56,1-3.96,.24-4.93-3.68-4.93-1.54,0-3.08,0-4.62,0-12.02-.03-24.03,.55-36.04,.82-6.77,.15-13.6-.23-20.32,.53-5.47,.61-10.94-.08-16.33,.61-5.57,.7-11.15-.07-16.64,.62-5.47,.69-10.9,.33-16.34,.49-1.85,.05-3.63,1.44-5.59,.31-.58-.51-.24-1.22-.24-1.82-.02-13.66,.04-27.32-.07-40.97-.02-2.45,.66-3,3.13-3.18,6.78-.5,13.6-.05,20.33-.66,4.95-.45,9.88-.18,14.8-.49,13.54-.85,27.11-.98,40.66-1.39,5.95-.18,11.92-.18,17.87-.46,9.55-.45,19.12-.31,28.64-.77,7-.34,13.97-.27,20.96-.41,1.88-.04,3.34-.72,4.61-1.9,6.85-6.42,14.69-11.42,22.84-15.96,2.72-1.51,5.88-2.15,8.6-3.8,.1-1.29-.48-1.86-1.85-1.81-6.78,.22-13.58-.49-20.33,.62-.4,.07-.82,.02-1.23,0-14.39-.42-28.75,.52-43.13,.75-16.74,.27-33.48,.83-50.21,1.26-6.67,.17-13.36,.12-20.03,.5-12.01,.67-24.03,.88-36.04,1.35-5.65,.22-11.34-.07-16.94,.57-5.87,.67-11.75,.03-17.56,.62-3.82,.39-7.6,.44-11.41,.51-2.59,.05-3.66,1.05-3.68,3.7-.04,4.62-.02,9.24,0,13.86,0,1.46-.29,2.52-1.46,3.78-4.96,5.35-6.04,11.78-4.05,18.7,.59,2.05,2.29,3.68,4.03,4.49,1.65,.77,1.46,1.74,1.47,2.91,.02,5.75-.02,11.5,.03,17.25,0,1.25-.35,2.12-1.2,3.12-4.46,5.19-5.08,11.43-3.96,17.81,.59,3.38,3.34,5.17,6.69,5.87l.31-.31Z"/>
    <path d="M887.72,284.23c.36,1.86,2.25,1.89,3.42,2.73,15.3,11.01,26.12,25.21,31.43,43.47,1.56,5.37,2.92,10.73,3.03,16.34,.03,1.62,1.1,2.99,.47,4.87,3.42,.22,6.03-1.13,8.79-1.75,8.23-1.86,16.44-3.77,24.33-6.82,6.83-2.64,9.54-8.25,7.41-15.1-.59-1.91-1.69-3.4-3.42-4.28-2.62-1.34-3.42-3.41-3.09-6.19,.16-1.32,.12-2.68,0-4-.3-3.41,.18-6.22,3.68-8.07,4.38-2.31,4.55-13.19,1.84-17.16-1.09-1.6-2.67-2.62-4.89-2.52-10.48,.49-20.95-.5-31.42-.72-11.81-.25-23.61-1.14-35.43-1.09-2.05,0-4.11-1.58-6.16,0v.31Z"/>
    <path d="M416.68,254.35c-.88,.46-1.84,.29-2.77,.31-27.93,.47-55.87,.09-83.79,.42-8.62,.1-17.25,.49-25.88,.49-.63,0-1.19,.02-1.54,.68-.17,2.17,1.9,2.56,3.11,2.94,9.44,2.96,17.25,8.7,24.86,14.65,3.16,2.48,6.06,4.49,10.24,3.33,.57-.16,1.23-.02,1.84-.02,27.62,0,55.26,.42,82.87-.12,26.4-.52,52.79-.78,79.17-.35,19.21,.32,38.41,.3,57.61,.46,4.23,.03,5.24-1.01,5.24-5.23,0-4.52,.02-9.04,0-13.56-.02-3.07-.35-3.37-3.38-3.39-.72,0-1.44,0-2.16,0-48.36-.81-96.73-.6-145.1-.61h-.31Z"/>
    <path d="M426.85,322.74c-3.46,.68-7,.48-10.48,.53-15.5,.21-31.01,.09-46.52,.09-3.7,0-4.17,.67-3.4,4.31,1.14,5.4,2.56,10.76,2.8,16.32,.07,1.7,1.07,2.63,2.76,2.77,.61,.05,1.23,0,1.85,0h189.46c3.81,0,4.3-.48,4.31-4.31,.01-5.13,.02-10.27,0-15.4-.02-3.43-.31-3.68-3.69-3.7-45.59-.27-91.19-.92-136.78-.61h-.31Z"/>
  </g>
  <path class="doorBorderLine" d="M645.58,48.25c.95,5.1,.6,10.27,.88,15.41,.73,13.24,1.38,26.49,1.84,39.74,.2,5.96,.54,11.91,.63,17.87,.28,18.08,1.11,36.14,1.39,54.22,.14,9.34,.17,18.7,.55,28.03,.53,12.74,.08,25.49,.67,38.2,.74,15.93,0,31.85,.56,47.75,.66,18.59,.48,37.17,.55,55.76"/>
  <g class="glassLight">
    <path d="M598.44,71.97c.12,18.8,1.14,37.57,1.38,56.38,.12,9.34,.14,18.7,.52,28.03,.53,13.04,.59,26.08,.55,39.13,0,.21,.01,.41,.78,.92,13.93,.22,28.29-1.31,43.07-.41-.51-5.34,.63-10.17-.66-15.01-.33-1.25-.09-2.66-.04-3.99,.43-13.67-.59-27.31-.81-40.97-.11-6.77,.16-13.6-.54-20.32-.63-6.08,.07-12.17-.62-18.17-.62-5.47-.05-10.92-.6-16.33-.34-3.39-.46-6.79-.55-10.58-9.01,.58-17.73-.52-26.48,.62-4.14,.54-8.41,.08-12.62,.1-1.13,0-2.3-.22-3.39,.3v.31Z"/>
    <path d="M705.65,323.36c.48-39.95-1.01-79.89-.58-119.99h-47.56c.5,4.06-.67,7.99,.68,11.87,.16,.46,.03,1.02,.02,1.53-.44,21.37,.62,42.72,.75,64.08,.08,13.76,.46,27.52,.48,41.28,0,.34-.08,.71,.92,1.23,5.03,0,10.69-.08,16.33,.02,8.63,.16,17.24,.93,25.88,.59,1.03-.04,2.09,.19,3.08-.31v-.31Z"/>
    <path d="M602.14,323.05c.67,.44,1.43,.3,2.16,.3,13.56,0,27.11,0,40.67,0,.42,0,.92,.21,1.53-.81,.2-.58,0-1.74,0-2.88,.02-9.24,.48-18.51-.1-27.72-.85-13.57,.21-27.14-.63-40.66-.73-11.73,.04-23.43-.59-35.12-.23-4.2-.46-8.43-.53-12.98-14.68,.17-29.06-.4-43.64,.92-.4,6.51,.41,12.97,.31,19.45-.02,.96,.19,2.06,.19,3.08,.03,18.28-.33,36.57,.14,54.83,.35,13.76,.43,27.52,.5,41.28v.31Z"/>
    <path d="M654.82,70.74c-.56,.06-.95,.37-.91,.92,.33,4.2-.74,8.47,.59,12.64,.12,.37,.03,.82,.01,1.23-.41,9.87,.5,19.72,.8,29.57,.21,6.98-.2,14.02,.56,20.94,.68,6.19-.03,12.36,.54,18.49,.85,9.14,.08,18.31,.71,27.41,.31,4.52,.14,9.07,.61,13.72h46.69c0-9.7,.21-19.26-.04-28.8-.49-18.69-.9-37.38-1.3-56.07-.27-12.53-.84-25.05-1.12-37.59,0-.34,.08-.71-.56-1.04-8.44-1.39-17.21-.84-25.94-.73-6.8,.08-13.54-1.08-20.33-.69h-.31Z"/>
    <path d="M727.52,51.02c-2.08,.73-1.65,2.77-1.44,3.99,1.05,6.06,.17,12.14,.52,18.19,1.01,17.45,.25,34.92,.75,52.37,.15,5.23,.86,10.53,.35,15.7-.73,7.41-.23,14.8-.48,22.19-.03,1.03-.22,2.09,.54,3.16,.86,.34,2.01,.23,3.15,.23,9.86,0,19.72,0,29.57,0,.41,0,2.46,0,5.12,.23,1.01-1.5,.66-3.67,.36-5.46-.78-4.71-.75-9.46-1.16-14.18-.56-6.36-1-12.74-1.56-19.1-.45-5.14-1.23-10.26-1.47-15.41-.23-5.06-.8-10.09-1.41-15.08-1.22-10.06-2.16-20.16-3.59-30.2-.67-4.73-1.52-9.44-2.1-14.18-.19-1.56-.88-1.76-2.2-1.87-8.21-.73-16.43-.57-24.65-.58h-.31Z"/>
  </g>
  <path class="visorOverlapLine" d="M746.93,11.59c1.6,3.85,2.74,7.8,2.77,12.01"/>
  <g class="turnLight">
    <path d="M959.19,277.15c.13-11.31-4.27-20.95-10.74-29.92-1.48-2.06-3.13-2.59-5.58-2.85-6.27-.66-12.55-.29-18.8-.81-3.6-.3-7.17,.41-10.78,.41-2.43,0-3.21,2.11-1.83,4.2,4.57,6.93,8.95,13.95,12.38,21.54,.6,1.34,1.2,2.7,1.73,4.06,.97,2.51,2.55,3.53,5.28,3.42,4.51-.18,9.04,.11,13.55-.1,3.95-.19,7.78,1,11.71,.67,.93-.08,1.89,.15,2.77-.31l.31-.31Z"/>
    <path d="M764.23,201.97c.2,1.97,1.37,2.35,3.35,1.56,6.22-2.46,8.71-10.11,6.72-16.64-1.41-4.62-3.78-6.56-9.37-8.5-.91,5.32-1.19,10.58-1.05,15.88,0,0,.1,5.34,.35,7.7Z"/>
    <path d="M62.71,299.95q-4,1.67-4,5.85c0,1.33-.05,2.67,.01,4,.14,2.75,1.6,4.3,4.3,4.29,4.83-.02,9.66,.25,14.49-.51,1.77-.28,2.84-1.2,2.98-2.55,.27-2.53,.75-5.11,.11-7.7-.57-2.35-1.85-3.46-4.34-3.41-4.41,.1-8.83,.03-13.25,.03h-.31Z"/>
  </g>
</svg>