<svg viewBox="0 0 963.75 423.64">
  <path class="dullIndigoDarkest" d="M963.25,237.22c-.11,4-.32,8-.5,12-.65,14.36-.3,28.75-.53,43.13q-.6,37.42-.8,74.86c-.1,17.56.83,54.78.32,55.91H4.64c-.74-.8,1.32-149.57-.13-223.2-.19-9.55-.06-19.09-.43-28.65-.59-15.39-.63-30.81-1.36-46.21-.38-8-.3-16-.51-24C1.77,83.8,1.17,66.55.83,49.3.72,44.06,1,38.83.57,33.58c-.33-4.19.6-8.4,0-12.63a8.59,8.59,0,0,1,.8-4c3.27-9,10.61-12,19.17-13.21,10.53-1.46,21.15-.41,31.74-1.1C65.8,1.75,79.38,2.58,93,2c16.61-.74,33.26-.23,49.91-.59C169.54.8,196.26.75,223,.75c94.37,0,188.75-.81,283.12.46,30.5.41,61-.19,91.5.54,27.41.67,54.83-.23,82.25.65,12.52.41,25.06,0,37.59.09,6.67,0,13.35-.32,20,.29,6.17.57,11.68,2.17,14.23,11.07a182.89,182.89,0,0,1,4.22,20.67c2.28,13.71,4.47,27.43,6,41.26,1,8.63,1.89,17.27,3,25.89.9,7.27,1.25,14.58,1.94,21.87.93,9.85,1.64,19.72,2.53,29.56.39,4.32-.1,8.72,1,13,10.25,1.08,20.45,1.57,30.61,2.67,5.65.61,11.29,1.31,16.92,2,8.67,1.07,17.28,2.76,25.92,4.07,14.24,2.17,28.17,5.68,42.14,9A332.69,332.69,0,0,1,922,194.73c9.28,3.33,18.6,6.5,27.48,11,7.26,3.66,10.64,9.41,12,17,.85,4.71,1,9.48,1.79,14.18ZM60.6,165.75c4.51,0,8.75.26,12.93-.12a54.47,54.47,0,0,1,5.86-.49c19.52.43,39-.57,58.53-.79,9.75-.11,19.53,0,29.27-.53,12.84-.75,25.67-.37,38.51-.52.2,0,.41,0,.77-.56V107.21c-2.1,0-4.05.06-6,0-13.87-.46-27.73.43-41.58.81-7.29.2-14.63-.21-21.87.52-7.92.79-15.87-.12-23.72.64C105.15,110,97,109,89,109.79c-5.87.55-11.75,0-17.56.62-3.6.4-7.22.24-10.84.65-.71,1.91.11,3.65.09,5.4C60.54,125.08,60.6,158.77,60.6,165.75ZM295.35,44.67C274.19,45,253,45,231.88,45c-1.15,0-2.37-.26-3.25.38.64,18-.61,35.79,1.07,54.08,48.7-1.23,97.38-.77,146-.88.9-6.69,1.38-48.5.61-54.2C350.29,44.37,296.18,44.66,295.35,44.67Zm105-.3a.9.9,0,0,0-.92.92c-.05,3-.46,6-.51,8.94-.25,14.27-.11,28.54-.1,42.82a1.23,1.23,0,0,0,.68,1.45c4.32.37,9.09-.32,13.79.41a46.6,46.6,0,0,0,7.08.29c17.15,0,34.31-.32,51.45.1,16.84.41,33.69.17,50.52.67,6.88.21,13.77.28,20.65.44.71,0,1.51.35,2.46-.54,0-7-.34-14.34.09-21.61.5-8.53.5-17.05.53-25.57,0-1.47.71-2.79.69-4.32,0-2.1-.74-2.83-2.85-2.81-7.29.1-14.58.18-21.87,0-33.58-.76-67.16-.53-100.74-.62-6.88,0-13.76-.39-20.64-.59Zm-224,1.23c-.76.44-33.68,1.21-49.29,1.37-10,.09-20,0-29.87.63-7.42.46-14.83-.13-22.18.58-5.46.52-10.92.2-16.77.69C58.86,67.07,60,85.13,60,103.68a98.92,98.92,0,0,1,10.17-.78c11.61.18,23.21-.53,34.8-.8,8-.19,16.07.21,24-.56,6.29-.62,12.55,0,18.8-.53,8.52-.68,17.08-.07,25.56-.69,10.8-.78,21.58-.21,32.36-.49.2,0,.41,0,.8-.59.8-17.61-1.07-35.46-.41-53.64H176.43Zm53.14,61v56.07H375.91V106H271.32S230.73,106.6,229.57,106.6Zm170.21-.31c-1.19.34-.91,1.33-.91,2.16q0,26.64,0,53.29c0,.21,0,.41.79.93a10.71,10.71,0,0,0,2.61,0c30.91.63,61.82.35,92.73.78,15.5.22,31,.27,46.52.46h3.33c.26-18.79-.49-37.28.93-56.07-7.14,0-13.72.24-20.28,0-16.33-.71-32.68,0-49-.68-24.55-.95-49.09-.13-73.64-.5a6,6,0,0,1-2.77-.31Z"/>
</svg>
