<svg viewBox="0 0 289.11 347.97">
  <g class="ghostTail">
    <path d="m231.95,196.27c17.62,15.48,33.17,30.81,37.24,45.24,3.45,23.28-19.04,38.39-45.49,52.24,4.37,17.46,4.71,32.69-5.75,41.99-10.75-23.49-43.99-17.25-32.24-54.74-12.08-53.1,3.36-81.33,46.24-84.73Z"/>
    <path d="m202.73,207.2c15.84,8.46,23.43,31.69,29.01,58.52,1.94.12,3.39,2.25,2.97,3.75,11.07,3.48,18.76,18.96,27.37,32.85,1.51-1.03,3.68.03,4.54,1.72,26.28,4.76,13.9,28.49,22.05,43.64-17.96-1.74-35.15-6.52-40.36-21.74-19.86-12.36-40.98-17.05-57.87-36.6-2.75-3.18-24.71-16.42-40.2-49.74,2.51-30.74,22.49-38.23,52.48-32.4Z"/>
  </g>
  <path class="chineseRed" d="m207.99,163.68c.25,2.22,2.78,1.1,3.38,6.85,4.79,4.07,11.74,17.72,16.68,20.88l-88.9,38.03c-1.06-6.34-1.06-14.13-3.75-25.22l72.6-40.54Z"/>
  <g class="chinesePink">
    <path d="m153.57,149.68c5.5-2.21,11.43-4,17.35-4.74,2.52,21.93,18.29,42.24,35.79,62.35,7.45,11.1-34.03,41.35-47.35,31.8.77,6.15-1.56,8.48-7.72,6.08-6.87-13.4-12.5-27.01-16.24-40.93-30.3-23.78-16.06-40.7,18.18-54.55Z"/>
    <path d="m150.76,162.77c3.9-3.36,4.17-10.6,2.81-13.09-.86-.98-1.61-1.36-2.39-1.9-1.21,7.33-6.87,12.42-8.86,16.54,2.4-.29,5.39-.7,8.44-1.55Z"/>
  </g>
  <g class="chineseTrim">
    <path d="m147.92,237.62c-1.89-4-3.67-8.02-5.3-12.07h0c-1.91,1.49-3.14,2.82-3.48,3.89.16,4.8,2.11,8.98,4.67,14.25-.18-1.25,1.13-3.4,4.11-6.07Z"/>
    <path d="m228.04,191.41c-8.56,1.07-16.46,8.03-26.15,10.27,1.77,2.25,6.14,6.68,6.85,8.58.17.63.19,1.31.07,2.04,13.63-3.36,17.05-11.14,30.9-10.82-3.57-3.69-7.42-7.09-11.67-10.07Z"/>
    <path d="m158.82,237.19c2.34,8.67,4.55,9.7-6.08,10.68-.54-.96-.8-1.75-1.1-2.71,2.11-.13,5.63-.35,5.93-1.03.59-1.33-.9-4.98-2.11-9.72l3.37,2.79Z"/>
    <path d="m206.71,207.28c2.74,10.47-31.95,35.29-40.99,32.51-8.12-3.02-18.19-18.52-28.79-44.56-1.5-5.08.29-13.49,3.33-18.73h-2.97c-2.32,4.58-4.6,10.89-3.67,17.82,8.5,21.58,20.22,44.17,31.35,48.28,9.65,3.56,46.54-22.17,43.77-32.34-.43-.99-1.26-2.09-2.03-2.98Z"/>
    <path d="m148.94,145.68c.85.64,1.6,1.33,2.24,2.1,1.4,8.09-5.96,12.95-8.86,16.54l-3.9.46c3.48-4.26,13.92-11.19,10.53-19.09Z"/>
    <path d="m171.23,155.79c.75-.28,1.72-.44,3.08-.37-.7-3.04-.88-8.1-.39-10.58-.7-.17-2.28,0-2.98.09-.48,1.95-.18,7.68.28,10.86Z"/>
  </g>
  <g class="chineseTie">
    <path d="m129.47,184.39c3.88.61,7.67,1.61,11.35,3,.51.13.94-1.49.43-1.62-3.88-.64-7.66-1.64-11.35-3-.69-.18-1.12,1.44-.43,1.62Z"/>
    <circle cx="135.36" cy="185.07" r="1.75"/>
  </g>
  <path class="chineseRed" d="m173.92,144.84c2.86.27,6.94,3.06,8.47,5.64-3.38.52-4.2,5.24-8.09,4.94-5.22-.28-4.77,2.85-7.6,3.34-4.31-1.28-8.48,3.24-15.95,4,4.87,22.52,15.69,39.46,31.18,50.97,7.2-7.45,17.19-21.4,22.42-36.97,7.16-21.33,2.97-29.75,4.71-51.58.69-8.64,2.28-10.43-.85-25.34-1.9-9.76-15.07-12.99-19.74-13.47-2.83-.29-2.28-3.71-5.89-1.12-3.3-3.25-4.17.32-7.16.64-2.84.3-8.36-2.18-10.49.63l-35.79,3.43-22.59,45.84c-15.9,36.08-13.23,37.64-14.43,40.76-2.35,6.1-2.12,12.63-.97,17.59,1.28,33.76,9.75,36.73,15.19,50.67,10.72-10.74,18.53-29.91,24.91-53.2-7.67-9.34-5.4-2.64-9.36-6.66-2.51-5.76-10.45-10.56-15.8-11.31l45.11-25.87c1.08.67,1.92,1.31,2.39,1.9,7.22-3.05,17.89-5.34,20.35-4.84"/>
  <g class="clothesOverlapLine">
    <path d="m184.95,109.37c-1.18,7.5.3,11.08.13,17.46-.18,6.69-2.3,14.88-.72,21.8-.58.97-1.23,1.58-1.96,1.85"/>
    <path d="m183.69,160.82c-2.42-2.66-5.34-4.7-9.38-5.4,4.73,1.14,16.98-4.45,23.63,14.18"/>
  </g>
  <g class="clothesFoldLine">
    <path d="m182.58,85.25c-1.1,1.06-1.54,2.92-.87,6.11"/>
    <path d="m178.64,86.57c-.53,5.46,2,10.38,2.79,17.96"/>
    <path d="m179.84,109.06c1.07,3.8,2.76,6.78,4.78,9.32.65-3.91,1.93-7.04,4.13-9"/>
    <path d="m184.9,100.41c1.35.11-1.4,4.51.05,8.96,3.09-4.77,9.41-7.71,5.14-7.5"/>
    <path d="m175.58,159.92c4.18,2.56,7.88,9.49,5.88,10.48-4.02,1.98-7.28-8.11-14.75-11.63"/>
    <path d="m172.62,186.1c4.02,5.87,9.42,8.85,16.49,8.31"/>
    <path d="m211.36,170.53c.05.87-.16,1.6-.97,1.99"/>
    <path d="m111.46,221.85c-4.18,2.13-8.2,1.01-12.1-2.77"/>
    <path d="m105.24,204.42c-.27,18.25,4.32-10.81,19.73-18.12"/>
    <path d="m245.83,262.89c-2.61,3.68-8.02,4.99-11.26,4.99"/>
    <path d="m231.74,265.72c.07,2.73-3.05,5.85-7.21,7.62"/>
    <path d="m234.71,269.47c-.52,2.44-1.69,4.31-3.62,6.51"/>
    <path d="m262.08,302.32c.65,2.01,1.02,4.08.42,6.34"/>
    <path d="m266.62,304.04c.9,1.94,1.15,3.66.94,5.22"/>
    <path d="m248.32,325.94c5.12,1.81,12.25-1.46,15.67-7.32"/>
  </g>
  <g class="clothesCreaseLine">
    <path d="m230.29,219.58c-4,1.3-7.92,2.89-11.83,4.66"/>
    <path d="m239.11,220.18c-.62-.22-19.31,7.14-18.96,7.37"/>
    <path d="m199.3,241.17c-4.29,3.95-8.8,7.39-13.54,10.27"/>
    <path d="m191.95,251.91c-4.69,3.48-9.47,6.63-14.36,9.46"/>
    <path d="m202.57,264.17c-4.48,3.79-9.1,7.16-13.89,10.04"/>
    <path d="m213.43,261.02c-4.83,4.11-9.93,7.79-15.29,11.09"/>
  </g>
  <path class="skinBlack" d="m117.55,150.7c.6,16.94,20.87,14.07,20.87,14.07,3.48-4.26,13.92-11.19,10.53-19.09l-2.02-5.41"/>
  <g class="hairDarkGray">
    <path d="m115.33,80.28c-1.1,6.36,2.55,9.05,10.25,8.6,4.33-39.33-15.04-38.57-10.25-8.6Z"/>
    <path d="m147.67,11.62c11.66-.61,30.97,19.69,24.96,37.06l-51.1,12.74c-3.56,5.17-10.07,4.24-13.58.95-5.04-6.16-8.66-28.93,4.04-41.52-5.64-7.54-.21-15.74,12.82-19.28,15.13-4.11,25.2,1.91,22.86,10.04Z"/>
  </g>
  <g class="eye">
    <circle class="sclera" cx="143.03" cy="68.8" r="8.86"/>
    <ellipse class="irisDarkBrown" cx="145.16" cy="70.31" rx="2.93" ry="3.27" transform="translate(-5.75 13.38) rotate(-5.18)"/>
    <ellipse class="pupil" cx="145.55" cy="70.43" rx="1.14" ry="1.27" transform="translate(-5.76 13.42) rotate(-5.18)"/>
  </g>
  <path class="skinGhostLight" d="m135.66,178.62c4.2-.37,9.81-.26,14.26.09-3.23-7.46-5.74-13.16-9.54-14.16-2.22.27-3.8.41-4.73.41-1.92-.02-4.32-5.02-10.07-6.8-4.59-1.42-7.98-.66-11.2-1.91-1.38-.49-2.36,1.09-1.76,2.62-4.81,1.36-6.75,3.3-7.22,4.43-2.81,1.48-4.33,2.88-3.94,6.23-1.26.93-1.77,3.18-1.06,4.77-1.88,2.25-2.18,4.21-1.45,6.45,2.04-2.16,7.32-4,10.79-3.71,3.16.49,5.04,4.5,12.39,5.04,7.99.59,10.86-3.43,13.52-3.46Z"/>
  <g class="skinEastAsian">
    <path d="m164.93,86.53c10.77,11.68,7.1,24.51,3.44,39.86-13.06-10.08-27.49-20.16-26.8-38.03"/>
    <path d="m121.71,80.59c-4.11,2.97-6.6-.09-8.01-2.86-1.17-2.3-7.77-6.98-5.67-15.37,2.8,2.53,6.09,3.01,8.51,2.52,2.16,4.65,2.88,10.44,5.17,15.7Z"/>
  </g>
  <path class="hairBlack" d="m81.88,99.98c-3.9,5.16-4.5,11.76-10.39,15.95-11.43,9.66-10.05,22.76-5.07,15.5-.47,12.31,9.24,24.81,8.63,15.54,5.07,5.84,13.13,11.1,11.69,4.75,6.07,5.51,17.23,6.39,12.61,1.91,2.42.57,4.62.85,6.36.55,22.21-9.77-1.63-63.96-23.83-54.19Z"/>
  <g class="skinGhostDark">
    <path d="m111.5,177.68c-.57-.31-1.14-.54-1.75-.64-3.06-.26-7.51,1.14-9.93,2.95-7.58,8.52-12.94,17.23-17.46,18.33-14.29,3.48-26.06,12.13-42.64,14.26-4.55-6.41-12.4-7.52-16.63-11.74-4.26-1.51-3.42,6.63,2.64,8.03,2.2,2.28,2.97,3.8,3,4.67-7.1,1.99-8.77-.87-16.01-1.7-5.78-.66-7.14.51-10.22,1.42-3.31,1.42-.95,5.49,5.7,3.48,4.64.57,8.41,1.73,11.67,3.93-3.69-.09-6.36-.49-9.79.22-3.47.73-6.55,3.35-9.2,4.39-2.18,2.27,1.51,5.49,6.72,2.18,4.42-1.5,8.89-2.14,13.28-.75-3.82.88-7.21,1.71-9.87,3.11-3.79,1.99-3.12,3.22-5.49,4.64-1.27,3.2,2.75,4.54,7.2.09,2.18-1.23,5.92-1.89,9.99-2.56-8.24,3.88-8.7,6.83-10.21,8.25-.58,2.73,3.4,4.25,6.33-.67,2.47-2.22,6.02-3.37,9.94-4.17,7.86.57,15.57-3.74,17.33-10.29,13.03-5.52,36.16-1.2,47.6-11.78,5.67-5.24,12.67-14.34,25.45-26.9-1.83-3.1-4.57-6.12-7.64-8.75Z"/>
    <path d="m223.6,187c-10.1,7.29-19.66,12.12-27.5,7.68,3.2-5.48,6.13-11.56,8.26-17.91,2.67.56,6.12,1.17,9.34,1-2.3-4.22,1.04-9.1,2.48-12.47,2.56-5.99,5.07-6.28,7.09-9.26.75-1.1,2.22-1.3,2.96-.37,1.88-1.83,3.34-4.2,5.31-5.48,3.48-2.26,5.84-1.9,9.42-2.99,3.84.14,1.64,5.4-3.58,5.99-5.48,2.7-5.18,5.4-7.82,9.02,3.81-2.74,6.11-5.79,9.79-7.2,3.71-1.42,6.55-1.02,10.27-1.31,4.02-.51,2.12,5.91-4.31,5.11-5.84.93-7.21,4.44-10.95,7.45,1.55-.31,4.47-2.66,7.83-3.9,2.97-1.1,5.45-.34,8.45-1.15,4-.15,1.74,5.69-3.22,5.33-5.62.66-6.9,3.5-10.84,5.9,2.91-1.01,6.89-2.39,12.44-2.61,3.72.22,2.71,4.41-2.63,4.82-3.67.91-6.76,1.46-8.33,3.1-3.72,6.87-10.25,10.92-14.47,9.26Z"/>
    <path d="m173.92,144.84c-.47,3.04-.36,6.55.39,10.58,3.89.31,4.71-4.42,8.09-4.94-1.53-2.58-5.61-5.37-8.47-5.64Z"/>
    <path d="m108.09,157.56c4.75,4.2,10.32,1,14.73-1.3,6.97-3.63,15.99-10.06,14.56-23.76-5.78-35.68-42.42-40.04-46.82-15.43,1.16,4.41-.97,4.68,2.15,7.71.88.85-.85,3.77,1.55,4.35-1.03,1.45.15,1.3.17,1.97.43,17.64,9.3,22.61,13.67,26.47Z"/>
  </g>
  <path class="lipFemaleDark__noStroke" d="m105.53,144.84c2.72,8.86,5.06,6.78,7.32,6.14,2.09-.59,7.14-.62,6.63-8.01l-13.95,1.87Z"/>
  <path class="lipFemaleDark" d="m105.53,144.84c-1.87-1.13-2.51-3.52.18-3.59,4.34-.12,5.7-6.05,13.28.84l-13.46,2.76Z"/>
  <g class="eyebrowBlack">
    <path d="m106.22,118.34c4.19.43,9.44-7.64,14.83-4.02-4.86-.34-9.82,7.32-14.83,4.02Z"/>
    <path d="m90.97,122.21c.11.53.38,1.08.99,1.78,2.77-.51,5.7-.65,7.26-3.49-3.12,1.43-5.67.45-8.24,1.71Z"/>
  </g>
  <path class="hairBlack" d="m90.34,113.82c-5.13,6.79,5.77,3.27,5.99-5.9,1.76,6.72,11.19,8.08,9.19,3.84,6.89,1.75,12.68.89,9.75-2.14,2.35,1.33,5.3,2.06,7.81,2.08,5.02,8.34,6.57,20.83,4.6,29.31-.5,2.13,1.28,3.6,2.73.39.12,7.22-2.25,11.85-4.92,18.81-2.8,7.3,15.66.17,20.37-9.88-.44,8.55,15.13-2.27,17.01-12.64,3.53,7.78,9.29-8.25,3.59-22.81-2.74-6.99-9.75-12.22-11.97-17.75l-32.77-16.54c-2.98,2.15-5.11,1.13-6.59-.64-2.47.9-6.28,2.42-7.63,4.93-8.42-4.97-14.97,5.81-15.64,6.56-2.9,3.25-7.29,5-9.96,8.54"/>
  <g class="hairOverlapLine">
    <path d="m150.83,38.45c-.71-12.18-10.8-23.04-15.66-24.56"/>
    <path d="m118.44,57.82c2.58-.23,4.45-1.05,6.54-2.28"/>
    <path d="m147.67,11.62c-3.4,1.79-8.28.7-19.98,4.02-9.55,2.71-12.47,4.98-15.7,5.22"/>
    <path d="m123.08,111.7c8.31.01,8.82-2.84,4.12-3.84"/>
  </g>
  <g class="skinGhostLight">
    <path d="m145.21,226.72c-2.75-3.59-8.2-7.84-10.42-13.86-.68-1.88-3.3-2.96-5.65-3.86,2-6.2,4.98-11.08,10.77-11.87,2.41,1.95,12.85-2.59,13.93-2.02l24.6,22.19c7.03-.18,10.4,6.28,5.62,6.56-2.25-.47-4.43.15-7.12-.36-4.87-.94-6.65-1.7-12.18-6.36,5.34,5.85,4.44,6.55,11.09,10.49,5.95.4,10.89,6.15,4.64,7.56-2.42-1.01-4.45-.68-6.86-1.92-7.46-3.83-8.07-4.13-13.92-9.38,1.51,4.44,3.65,7.94,6.76,9.98,5.65,1.82,6.15,7.76,1.51,7.26-2.62-1.01-3.86-1.17-6.15-2.72-3.43-2.32-5.95-5.34-8.97-10.69.56,3.35,1.21,5.6,3,7.51,7.16,4.74,1.06,9.41-.15,6.98-1.51-2.12-4.07-2.41-5.48-4.4-4.31-6.09-2.06-7.68-5.03-11.1Z"/>
    <path d="m172.4,90.92c-1.62,1.69-2.37,9.42-11.77,11.67-4.85,1.16-8.41-.58-11.51-.74-10.97-.58-23.4-7.65-27.42-21.25-2.3-5.26-3.01-11.05-5.17-15.7.58-.12,1.12-.29,1.58-.51.87,2.83,1.77,7.34,5.07,8.55-1.09-3.61-2.3-8.17-1.57-11.52.82-1.08,2.33-2.6,3.46-5.88,7.54-3.93,13.47-13.84,25.84-17.1,5.4-1.06,15.88,0,19.69,2.54,1.59,4.55,2.9,6.56,3.76,10.66.67,3.2-.9,4.98,1.29,11.32,4.03,11.68,1.63,22.89-3.24,27.96Zm-23.04-22.43c-1.76-.46-2.79-1.19-3.54-.97-1.86.54-4.8,2.79-7.85,3.58,1.55.79,3.54.63,5.85-.09,1.79-.55,2.77-1.58,4.91-1.82.36-.04,1.48-.48.63-.7Z"/>
  </g>
  <g class="skinOverlapLine">
    <path d="m119.1,159.13c-.73.08-1.36-.01-2.12-.17"/>
    <path d="m105.4,163.3c2.07-1.23,4.33-2.22,6.41-2.52"/>
    <path d="m101.46,169.53c1.69-1.92,5.8-4.08,9.62-4.75"/>
    <path d="m100.4,174.3c1.64-1.7,5.95-3.7,8.56-3.64"/>
    <path d="m226.23,155.67c1.39,2.01.3,7.04-3.14,8.38-1.55,2-1.51,4.11-1.01,5.87"/>
  </g>
  <g class="skinFoldLine">
    <path d="m28.73,213.53c.7,1.25,1.17,1.78,2.62,2.31"/>
    <path d="m46.1,225.12c.18-2.14-.09-3.7-1.03-5.37-.99-1.78-.68-3.42-3.25-5.42"/>
    <path d="m223.6,187c-2.14-.57-4.23-2.19-5.12-3.91-.56-1.08-2.1-1.53-3.06-3"/>
    <path d="m109.99,63.84c-1.16,1.97-1.08,6.17,2.46,10.28"/>
    <path d="m114.7,66.14c-.14-.4-.29-.76-.44-1.08"/>
    <path d="m116.08,69.72c-1.87,1.33,2.86,4.42,1.24,5.54-1.07.74-.71-1.39-3.12-2.73-2.29-1.27-2.71-5.87-.84-5.16"/>
  </g>
  <g class="skinCreaseLIne">
    <path d="m27.61,217.29c2.01,6.85,7.95,8.77,13.7,8.04"/>
    <path d="m25.42,222.87c3.11.64,5.48,5.75,5.57,9.96"/>
    <path d="m225.86,165.56c1.68,3.18,2.68,11.56-3.1,17.35"/>
    <path d="m229.71,166.9c-1.68,4.44.25,9.05,3.52,12.65"/>
  </g>
  <path class="skinEdgeLine" d="m148.88,224.56c1.39-.35,2.83-.24,3.85-1.75,1.64-2.44,4.18-1.08,5.19-4.12,1.08-3.24,3.74-2.04,4.72-4.81"/>
  <g class="chineseRedDark">
    <path d="m147.92,237.62c-2.98,2.68-4.29,4.83-4.11,6.07-.16.77,3.54.27,6.78-.61-.91-1.82-1.8-3.64-2.67-5.47Z"/>
    <path d="m134.79,212.86c-.68-1.88-3.3-2.96-5.65-3.86-2.32,7.2-3.3,16.2-5.78,22.68-2.85,7.44-11.84,17.51-10.05,21.24,3.71.95,11.4-6.74,14.78-21.81.92-4.1,4.44-10.05,7.79-15.86-.41-.77-.78-1.56-1.09-2.39Z"/>
    <path d="m149.92,178.71c-1.9-.15-4.02-.26-6.15-.3,3.39,6.01,7.88,12.96,11.22,18.73,9.53,16.45,13.07,25.83,16.68,24.65,10.32-8.22-21.76-43.08-21.76-43.08Z"/>
  </g>
  <g class="chineseTrim">
    <path d="m111.5,177.68c3.07,2.63,5.81,5.66,7.64,8.75.66-.56,1.55-1.21,2.74-1.48-.46-1.08-1.14-2.15-1.98-3.18-4.32-.85-6.37-2.99-8.39-4.1Z"/>
    <path d="m140.99,197.02c-.76-1.69-6.6-3.45-10.01-5.72-8.76,1.78-9.73,21.24-15.24,35.51-2.8,7.24-10.38,15.4-9.4,18,1.57,4.38,3.83,6.48,6.97,8.11-1.78-3.73,7.2-13.8,10.05-21.24,4.75-12.4,4.01-34.01,17.63-34.65Z"/>
    <path d="m140.38,164.55c2.59-.32,6.43-.69,10.38-1.78,6.65,2.92,11.28,18.59,16.7,28.54,4.86,8.92,15.4,17.51,14.27,22.86-3.81,3.84-7.29,6.72-10.05,7.62,4.07-6.36-7.13-15.24-14.43-27.89-7.95-13.78-10.7-27.73-16.86-29.35Z"/>
    <path d="m172.36,90.97c-.62.69-1.12,2.24-2.03,4.03,3.49,8.99,1.07,18.77-1.6,29.87.48,5.74-.47,10.74-1.86,13.21-.06,2.45-.01,4.94.03,7.52,1.34-.27,5.84-1.07,7.02-.75,1.87.18,4.27,1.44,6.13,3.01-3.13-22.98-1.63-45.19-7.69-56.88Z"/>
    <path d="m166.87,138.08c-1.21,2.14-2.75,2.4-4.01-.38-.12.64-.27,1.28-.46,1.92,1.45.94,2.93,1.85,4.45,2.73-.02-1.44-.01-2.86.02-4.26Z"/>
  </g>
  <path class="lipFemaleMedium__noStroke" d="m149.9,92.57c.98,1.33,3.36,1.57,6.59,2,7.95,1.04,12.56-5.13,10.78-10.86-1.19,3.29-11.98,8.03-17.37,8.86Z"/>
  <path class="lipFemaleMedium" d="m167.27,83.71c.43-.2.97-.26,1.56-.27-1.48-1.1-5.3.18-6.95,3-.41.69-2.08-1.03-6.4.62-2.45.94-6.05,3.22-5.57,5.51,5.47-.89,16.13-5.56,17.37-8.86Z"/>
  <g class="eyebrowDarkGray">
    <path d="m160.11,61.53c1.26.88,3.22-.53,6.15-3.52,3.55-3.61,6.76-2.45,6.46-3.88-8.02-2.14-10.01,6.23-12.61,7.4Z"/>
    <path d="m149.83,62.89c.86,2.06-3.82,2.24-8.4,2.34-5.67.12-7.83,3.16-8.54,2.63,4.05-8.07,12.55-4.29,16.94-4.97Z"/>
  </g>
  <path class="lipOverlapLine" d="m104.26,139.44c0,1.17-.64,2.35-.35,3.13"/>
  <g class="lipEdgeLine">
    <path d="m108.69,151.06c1.46,1.18,2.82.29,4.16-.09,1.42-.41,4.23-.55,5.7-2.94"/>
    <path d="m156.49,94.57c5.28.69,9.08-1.8,10.52-5.22"/>
  </g>
  <g class="mouthInner">
    <path d="m105.46,144.86c1.12,1.95,1.67,4.85,4.27,3.41,4.92-2.73,7.21-.77,9.23-3.68,1.54-2.22-.9-3.23-2.97-4.27-3.45-1.75-6.6,2.02-9.96,2.14-.88.03-1.3,1.14-.57,2.4Z"/>
    <path d="m158.04,90.68c-3.84,2.82-7.9,2.85-8.14,1.89-.51-2.05,3.7-4.56,7.57-4.36,6.61.34,7.29-3.3,9.8-4.5-.15,5.42-5.04,3.89-9.23,6.97Z"/>
  </g>
  <path class="tongue" d="m115.99,140.32c-1.94-.99-3.79-.22-5.63.66-1.51,2.36-2.35,4.49-1.86,6.7,1.37-.75,7.01-2.62,10.46-3.08,1.54-2.22-.9-3.23-2.97-4.27Z"/>
  <g class="teeth">
    <path d="m106.65,143.96c2.43.41,7.05-1.53,9.34-3.64-3.45-1.75-6.6,2.02-9.96,2.14.02.5.35,1.36.62,1.5Z"/>
    <path d="m108.31,147.79c-.06.23-.02.54.06.87.38.02.83-.09,1.36-.38,4.92-2.73,7.21-.77,9.23-3.68-3.65.49-9.73,2.54-10.65,3.2Z"/>
    <path d="m157.47,88.21c-2.18-.11-4.47.63-5.96,1.67,2.22.83,4.74.94,7.07.42,1.38-.88,2.82-1.33,4.11-1.74,1.42-.97,2.55-2.26,3.16-3.83-1.64,1.54-3.16,3.74-8.38,3.47Z"/>
  </g>
  <g class="smileLine">
    <path d="m153.02,60.66c.14,1.93-.1,3.66-1.01,5.02"/>
    <path d="m158.98,59.92c-.07,1.35.24,2.5,1.31,3.29"/>
  </g>
  <g class="cheekLine">
    <path d="m165.3,75.79c.76.92,4.24.12,5.51,6.01"/>
    <path d="m152.1,79.81c-.73.59-1.14,3.05-2.71,4.78-2.42,2.66-3.12,6.64-3.16,8.51"/>
  </g>
  <g class="noseLine">
    <path d="m102.21,129.79c.44,2-4.14,6.64.7,8.17"/>
    <path d="m111.25,131.47c.83.11,2.06,2.61.66,3.99"/>
    <path d="m104.48,137.73c-.69-.04-1.48-.25-1.75-.61"/>
    <path d="m110.09,135.37c-.59-2.33-1.76.86-3.21,1.58"/>
    <path d="m163.61,73.67c.56,1.41,3.54,2.59,1.56,5.39-1.38,1.96-.75,2.45-3.22,3.55-2.59,1.15-3.68-.05-5.37.24-3.44.6-5.24-2.63-4.19-4.43"/>
  </g>
  <g class="eyeLashLine">
    <path d="m94.26,129.12c2.88-2.76,5.55-2.26,6.4-3.24"/>
    <path d="m121.06,120.38c-2.21.79-5.37.28-7.88.96-3.05.83-4.02,2.7-4.73.74"/>
    <path d="m172.36,59.68c-3.2,4.07-6.15,1.41-10.34,5.77"/>
  </g>
  <g class="eyeFoldLine">
    <path d="m94.21,130.67c1.62.91,4.18-.86,5.04-1.87"/>
    <path d="m110.41,124.54c1.66.75,5.22-.45,6.41-1.8"/>
    <path d="m170.86,63.76c-1.11,1.65-3.13,2.88-5.46,2.95"/>
    <path d="m147.72,71.91c-1.16,1.66-5,3.22-7.33,2.22"/>
  </g>
  <path class="eyeCornerLine" d="m134.73,72.23c1.22.15,2.36-.88,3.24-1.13"/>
</svg>