<svg viewBox="0 0 218.62 397.65">
  <path class="treeTrunk" d="M19.25,87.55l4.52.22c5.18,15.85,41,14.55,86.26,16.92-.25-1.38.82-51.16.76-54.45l5-.21c.32,22.1,1,75.15,1.62,100.81,30,1.51,55-3.66,61.35-15.74l5.61-2c-2.92,12.4-21.89,26-66.58,25.93-.33,1.88.91,77.9,2.2,97.53,16.18-.21,29.76-3.66,33.21-16.17l5,2.8c-2.8,14.88-23.29,20.06-38.06,22.54,0,16.24.36,27.1.65,41.19l-14.23.43c0-4.75.12-20.95.1-23.83-20.91-1.08-43.56-5-45.93-18L68,267c4.75,9.17,33.21,8.73,39,7.86,0-.35,1.82-86,1.31-87.54-12.74-3-29.13-7.76-30.64-18.44l5.17-.11C85,177.15,100,179.09,108.74,180c.32-14.45,1.29-60.39,1.19-68.47C45.12,114.83,18.43,97.77,19.25,87.55Z"/>
  <g class="bushFurthest">
    <path d="M208.91,128.74c-.76,9.16-12.18,8.73-15.2,4.1-1.08,4.42-6.69,4.63-9.6,1.61-2.26,5-11.54,3.24-13.05-1.83-3.23,3.13-10.56-.54-8.47-5.9a4.76,4.76,0,0,1-4.4-8.35c-6.54-2.46-6.1-12.6,1.24-14.33-3.25-3.87,2.14-10.77,6.75-8-3.1-8.18,6.82-14.43,13.58-8.46.36-6.19,9.63-6.62,11.14-.36,4.1-6.9,17.69-2.38,14.76,6.46,6.16-4.09,15.22,5.18,8.86,12.19,4.42,1,5.28,8.52-.33,10.24C218.29,120.22,216.57,128.63,208.91,128.74Z"/>
    <path d="M15.26,85.72C16,92,25.71,91.54,27.33,87.66c4.42,6.47,15.85.43,12.51-6.58a4.5,4.5,0,0,0,4.31-6.79c6.36-2.81,2.91-11.43-1.31-11,2.93-3.71-.74-8.88-5.37-6.19,1.4-7.44-9.38-10.24-12-3.18-1.33-7.94-12.95-4.69-11.75.92-2.71-2.59-8.1.86-5.82,4.88-6.16-1.21-10.26,7-5.08,11C-.81,73.21.48,78,4,77.84-.16,86.58,11.7,90,15.26,85.72Z"/>
    <path d="M75,264.38c-.75,5.07-11.1,6.58-13.35,1-1,5.59-8.11,6.24-8.86.31-3.77,6.57-17.15,2.48-15.1-6-3.55,3.77-10.67.32-8.3-5.13-6.47,2.43-11.64-6.84-6.36-11.69-8.3-3.56-4.85-15.85,2.57-15.95-5.7-6.8,1.85-15.86,9.72-11.87-1-3.34,4-7.44,8-4.36.08-3.94,7-6.53,10-1.89,1.51-7.23,15.52-7.88,16,1.15,6-7.08,17.65-.18,13.83,7.95,8.35-2.74,12.45,7.82,6.62,11.6,5.39.32,6.47,8.08,2,10.24,3.78,1.94,3.34,13.37-4.52,13.19,2,4.28-1.84,8.38-5.83,6.22C82.65,263.41,79,266,75,264.38Z"/>
    <path d="M136.77,15.74c7.12-1.19,11,5.28,5.61,10.13,5.61.54,5.39,8.31.86,9.39,5.83,4.31.44,14-6.25,12.5,1.08,4.1-4.74,7.33-7.55,5.07-1.08,7-13.58,8.3-16.06,1.62-4,5.82-13.7,3.88-13.27-3.56-3.66,3.56-9-1.62-6.25-5.18C88,47.33,83.29,39.35,88.37,34.62c-5.29-2.6-2.92-9.07.64-9.28-5.72-5.4.54-13.81,6.68-11.76A4.18,4.18,0,0,1,101.62,8c-.86-8.09,11.22-10,14.23-3.77,4.32-6.48,16.61-2.38,15.1,5.06C134.83,7.22,139.79,11.32,136.77,15.74Z"/>
    <path d="M193,200.67c6.35-5.4.75-15.54-5.62-13.06,5.5-6.58-3.34-14.55-9.44-10.09.5-4.46-6.19-7.05-8.13-3.06A4.85,4.85,0,0,0,160.4,173c-2.92-5.74-12.41-2.29-11.66,3-5.28-6.36-18-1.84-16.17,6.68-4.42-4.2-11.75.76-8.84,6.58-4-1.29-8.3,4.1-4.64,8.09-6.47.75-11,13-2.59,17.57-2.58,4.31.87,11.22,5.93,10.05-4.2,5.48,1.84,13.24,8.72,9.54-1.92,5.86,5.62,9.74,9.83,6.07.75,5,10.46,6.9,13.26,1.73,4.75,5.82,13.59,3.67,14.56-4.21,2.26,2.92,9.16,1.19,8.73-4.42,5,3.45,14.67-3,11.75-10.26,6.58-.3,10.68-9.79,4.24-13.1C197.37,208,197.37,201.74,193,200.67Z"/>
    <path d="M97.2,162.81c-.1,7-9.38,10.68-13.58,5.93-.76,4.32-7.87,3.88-8.73-.05-1.6,4.67-10.11,5.85-13.48-.38-5.29,2.59-10.25-1.72-9.49-7-7,2.91-12.83-5.07-8.15-11.17-4.9,1.14-7.7-5.76-3.22-9.43-6.42,0-10.09-10.77-3-15.3-3.89-3.24-.22-12.51,6.17-11.55-3.8-9.37,9.35-15.62,13.66-11.64.44-4.85,7.55-5.49,9.2-2.26,1.37-8,14.74-6,15.17.86,1.73-3.45,8.63-2.8,8.41,2.16,6.91-5.82,15.32,1.51,11.54,7.33C107,109,110.25,114,108,118.06c4.63-1.5,7.65,3.46,4.2,7.44,5.61,1.19,7.12,13.48-1.19,16.18,4.43,2.48,2.48,9.16-3.34,9.49C111.11,156.45,105.29,166.37,97.2,162.81Z"/>
  </g>
  <path class="dullMaroonDarker" d="M160.71,313.55c-4,29.49-7.11,57.57-8.93,83.57l-74.2,0c-2-25.87-5.49-53.67-10-82.74Z"/>
  <path class="dullMaroonDark" d="M161.57,300.72c-22.85,3.67-72.24,3.88-93.91.44-5.08-.81-8.27,15.12-2.91,15.74,28,3.23,70.73,3.23,99-.65C169.85,315.41,166.36,300,161.57,300.72Z"/>
</svg>
