<svg viewBox="0 0 1011.13 1841.31">
  <path class="treeTrunk" d="M87.93,404.66l21,1c24,73.5,190,67.5,400,78.5-1.18-6.42,3.79-237.25,3.5-252.5l23-1c1.5,102.5,4.5,348.5,7.5,467.5,139,7,255-17,284.5-73l26-9.5c-13.5,57.5-101.5,120.5-308.74,120.23-1.51,8.72,4.23,361.22,10.24,452.27,75-1,138-17,154-75l23,13c-13,69-108,93-176.5,104.5.07,75.31,1.67,125.69,3,191l-66,2c.16-22,.58-97.15.5-110.5-97-5-202-23-213-83.5l34,7c22,42.5,154,40.5,181,36.43,0-1.59,8.44-398.69,6.11-405.93-59.11-14-135.11-36-142.11-85.5l24-.5c10,39,79.49,48,120,52,1.49-67,6-280,5.5-317.5C207.93,531.16,84.16,452.06,87.93,404.66Z"/>
  <g class="bushFurthest">
    <path d="M967.43,595.66c-3.5,42.5-56.5,40.5-70.5,19-5,20.5-31,21.5-44.5,7.5-10.5,23-53.5,15-60.5-8.5-15,14.5-49-2.5-39.31-27.37-26.9,8.16-39.69-24.13-20.39-38.72-30.3-11.41-28.3-58.41,5.76-66.43-15.06-18,9.94-50,31.3-37.05-14.36-37.93,31.64-66.93,62.94-39.23,1.7-28.7,44.7-30.7,51.7-1.7,19-32,82-11,68.44,30,28.56-19,70.56,24,41.06,56.52,20.5,4.5,24.5,39.5-1.5,47.5C1010.93,556.16,1002.93,595.16,967.43,595.66Z"/>
    <path d="M69.43,396.16c3.5,29,48.5,27,56,9,20.5,30,73.5,2,58-30.5,18.5,1.5,28.5-18.5,20-31.5,29.5-13,13.5-53-6.08-50.82,13.58-17.18-3.42-41.18-24.92-28.68,6.5-34.5-43.5-47.5-55.43-14.76-6.19-36.8-60.07-21.74-54.49,4.28-12.58-12-37.58,4-27,22.64-28.59-5.66-47.59,32.34-23.59,50.84-17,11.5-11,33.5,5.5,33C-2.07,400.16,52.93,416.16,69.43,396.16Z"/>
    <path d="M346.43,1224.66c-3.5,23.5-51.5,30.5-61.9,4.57-4.6,25.93-37.6,28.93-41.1,1.43-17.5,30.5-79.5,11.5-70-28-16.5,17.5-49.5,1.5-38.5-23.79-30,11.29-54-31.71-29.5-54.21-38.5-16.5-22.5-73.5,11.91-73.94-26.41-31.56,8.59-73.56,45.09-55.06-4.5-15.5,18.5-34.5,37.15-20.23.35-18.27,32.35-30.27,46.35-8.77,7-33.5,72-36.5,74.14,5.37,27.86-32.87,81.86-.87,64.16,36.84,38.7-12.71,57.7,36.29,30.7,53.79,25,1.5,30,37.5,9.5,47.5,17.5,9,15.5,62-21,61.18,9.48,19.82-8.52,38.82-27,28.82C381.93,1220.16,364.93,1232.16,346.43,1224.66Z"/>
    <path d="M632.93,71.66c33-5.5,51,24.5,26,47,26,2.5,25,38.5,4,43.5,27,20,2,65-29,58,5,19-22,34-35,23.5-5,32.5-63,38.5-74.5,7.5-18.5,27-63.5,18-61.5-16.5-17,16.5-42-7.5-29-24-27,7.5-49-29.5-25.48-51.45-24.52-12.05-13.52-42.05,3-43.05-26.5-25,2.5-64,31-54.5-10.5-21.5,13.5-36.5,27.5-26-4-37.5,52-46.5,66-17.48,20-30,77-11,70,23.48C623.93,32.16,646.93,51.16,632.93,71.66Z"/>
    <path d="M893.45,929.2c29.48-25,3.48-72-26-60.54,25.49-30.5-15.5-67.5-43.79-46.8,2.29-20.7-28.71-32.7-37.71-14.2-2-25.5-35-28.5-43.46-6.9-13.54-26.6-57.54-10.6-54,13.9-24.5-29.5-83.5-8.5-75,31-20.5-19.5-54.5,3.5-41,30.5-18.5-6-38.5,19-21.5,37.5-30,3.5-51,60.5-12,81.51-12,20,4,52,27.5,46.59-19.49,25.4,8.51,61.4,40.42,44.25-8.91,27.15,26.09,45.15,45.59,28.15,3.5,23,48.5,32,61.5,8,22,27,63,17,67.5-19.5,10.5,13.5,42.5,5.5,40.5-20.5,23,16,68-14,54.48-47.59,30.52-1.41,49.52-45.41,19.64-60.75C913.93,963.16,913.93,934.16,893.45,929.2Z"/>
    <path d="M449.43,753.66c-.5,32.5-43.5,49.5-63,27.5-3.5,20-36.5,18-40.47-.26-7.43,21.68-46.89,27.14-62.53-1.74-24.5,12-47.5-8-44-32.5-32.5,13.5-59.5-23.5-37.77-51.79-22.73,5.29-35.73-26.71-14.94-43.75-29.79,0-46.79-50-13.79-71-18-15-1-58,28.65-53.55-17.65-43.45,43.35-72.45,63.34-53.95,2-22.5,35-25.5,42.63-10.5,6.38-37,68.38-28,70.38,4,8-16,40-13,39,10,32-27,71,7,53.5,34,24.5-6,39.5,17,29,36,21.5-7,35.5,16,19.5,34.5,26,5.5,33,62.5-5.5,75,20.5,11.5,11.5,42.5-15.5,44C513.93,724.16,486.93,770.16,449.43,753.66Z"/>
  </g>
  <path class="pot" d="M743.93,1452.66c-18.55,136.72-33,267-41.44,387.5l-344.06.15c-9.13-119.94-25.47-248.88-46.5-383.65Z"/>
  <path class="brim" d="M747.93,1393.16c-106,17-335,18-435.51,2-23.54-3.74-38.35,70.12-13.5,73,130,15,328,15,459-3C786.3,1461.27,770.11,1389.61,747.93,1393.16Z"/>
</svg>
