<svg class="presence" xmlns="http://www.w3.org/2000/svg" viewBox="0 0 355.19 645.76">
  <path class="treeTrunk" d="M31.42,142.28l7.35.35c8.4,25.73,66.5,23.63,140,27.48-.41-2.25,1.33-83,1.23-88.38l8.05-.35c.52,35.88,1.57,122,2.62,163.63,48.65,2.45,89.25-5.95,99.58-25.55l9.1-3.33c-4.73,20.13-35.53,42.18-108.06,42.08-.53,3.05,1.48,126.43,3.58,158.3,26.25-.35,48.3-5.95,53.9-26.25l8,4.55c-4.55,24.15-37.8,32.55-61.77,36.57,0,26.36.58,44,1,66.85l-23.1.7c.06-7.7.2-34,.17-38.67-33.95-1.75-70.7-8.05-74.55-29.23l11.9,2.45c7.7,14.88,53.9,14.18,63.35,12.75,0-.56,3-139.54,2.14-142.07-20.69-4.9-47.29-12.6-49.74-29.93l8.4-.17c3.5,13.65,27.83,16.8,42,18.2.53-23.45,2.1-98,1.93-111.13C73.42,186.56,30.11,158.87,31.42,142.28Z"/>
  <g class="bushFurthest">
    <path d="M339.25,209.13c-1.23,14.88-19.78,14.18-24.68,6.65-1.75,7.18-10.85,7.53-15.57,2.63-3.68,8.05-18.73,5.25-21.18-3-5.25,5.08-17.15-.87-13.75-9.58-9.42,2.86-13.9-8.44-7.14-13.55-10.61-4-9.91-20.44,2-23.25-5.28-6.29,3.47-17.49,10.95-13-5-13.27,11.07-23.42,22-13.73.59-10,15.64-10.74,18.09-.59,6.65-11.2,28.7-3.85,24,10.49,10-6.64,24.69,8.41,14.37,19.78,7.17,1.58,8.57,13.83-.53,16.63C354.47,195.31,351.67,209,339.25,209.13Z"/>
    <path d="M25,139.31c1.22,10.15,17,9.45,19.6,3.15,7.17,10.5,25.72.7,20.3-10.68a7.31,7.31,0,0,0,7-11c10.32-4.55,4.72-18.55-2.13-17.79,4.75-6-1.2-14.41-8.72-10,2.27-12.07-15.23-16.62-19.4-5.17-2.17-12.88-21-7.6-19.07,1.5-4.41-4.2-13.16,1.4-9.45,7.93-10-2-16.66,11.32-8.26,17.79-5.95,4-3.85,11.73,1.93,11.55C-.08,140.71,19.17,146.31,25,139.31Z"/>
    <path d="M121.9,429.28c-1.23,8.23-18,10.68-21.66,1.6-1.62,9.08-13.17,10.13-14.39.5-6.13,10.68-27.83,4-24.5-9.8-5.78,6.13-17.33.53-13.48-8.32-10.5,3.95-18.9-11.1-10.32-19-13.48-5.77-7.88-25.72,4.17-25.88-9.25-11,3-25.74,15.78-19.27-1.58-5.42,6.47-12.07,13-7.08.12-6.39,11.32-10.59,16.22-3.07,2.45-11.72,25.2-12.77,26,1.88,9.75-11.5,28.65-.3,22.46,12.89,13.54-4.44,20.19,12.71,10.74,18.83,8.75.53,10.5,13.13,3.33,16.63,6.12,3.15,5.42,21.7-7.34,21.41,3.31,6.94-3,13.59-9.46,10.09C134.32,427.71,128.37,431.91,121.9,429.28Z"/>
    <path d="M222.17,25.73c11.55-1.92,17.85,8.58,9.1,16.45,9.1.88,8.75,13.48,1.4,15.23,9.45,7,.7,22.75-10.15,20.3,1.75,6.65-7.7,11.9-12.25,8.22-1.75,11.38-22.05,13.48-26.07,2.63-6.48,9.45-22.23,6.3-21.53-5.78-5.95,5.78-14.7-2.62-10.15-8.4-9.45,2.63-17.15-10.32-8.91-18-8.59-4.21-4.74-14.71,1-15.06-9.28-8.75.87-22.4,10.85-19.08-3.68-7.52,4.72-12.77,9.62-9.1C163.72,0,183.32-3.14,188.22,7c7-10.5,26.95-3.85,24.5,8.22C219,11.91,227.07,18.56,222.17,25.73Z"/>
    <path d="M313.36,325.87c10.31-8.76,1.21-25.21-9.11-21.19,8.92-10.67-5.43-23.62-15.32-16.38.79-7.24-10.06-11.44-13.21-5-.7-8.92-12.25-10-15.2-2.41-4.75-9.31-20.15-3.71-18.92,4.86-8.58-10.32-29.23-3-26.25,10.85-7.18-6.82-19.08,1.23-14.35,10.68-6.48-2.1-13.48,6.65-7.53,13.12-10.5,1.23-17.85,21.18-4.2,28.53-4.2,7,1.4,18.2,9.63,16.31-6.83,8.89,3,21.49,14.15,15.49-3.13,9.5,9.12,15.8,15.95,9.85,1.22,8.05,17,11.2,21.52,2.8,7.7,9.45,22,5.95,23.63-6.83,3.67,4.73,14.87,1.93,14.17-7.17,8.05,5.6,23.8-4.9,19.07-16.66,10.68-.49,17.33-15.89,6.88-21.26C320.52,337.76,320.52,327.61,313.36,325.87Z"/>
    <path d="M158,264.43c-.18,11.38-15.23,17.33-22,9.63-1.23,7-12.78,6.3-14.16-.09-2.61,7.58-16.42,9.49-21.89-.61-8.58,4.2-16.63-2.8-15.4-11.38-11.38,4.73-20.83-8.22-13.22-18.13-8,1.86-12.51-9.34-5.23-15.31-10.43,0-16.38-17.48-4.83-24.83-6.3-5.25-.35-20.3,10-18.75-6.18-15.2,15.17-25.35,22.17-18.88.7-7.87,12.25-8.92,14.92-3.67,2.23-12.95,23.93-9.8,24.63,1.4,2.8-5.6,14-4.55,13.65,3.5,11.2-9.45,24.85,2.45,18.73,11.9,8.57-2.1,13.82,5.95,10.15,12.6,7.52-2.45,12.42,5.6,6.82,12.07,9.1,1.93,11.55,21.88-1.92,26.25,7.17,4,4,14.88-5.43,15.4C180.52,254.11,171.07,270.21,158,264.43Z"/>
  </g>
  <path class="dullMaroonDarker" d="M261,509.08c-6.49,47.85-11.54,93.44-14.5,135.63l-120.42,0c-3.19-42-8.91-87.11-16.28-134.28Z"/>
  <path class="dullMaroonDark" d="M262.42,488.26c-37.1,5.95-117.25,6.3-152.42.71-8.24-1.31-13.43,24.54-4.73,25.54,45.5,5.25,114.8,5.25,160.65-1C275.86,512.09,270.19,487,262.42,488.26Z"/>
</svg>
