<svg viewBox="0 0 536.21 794.73">
  <path class="treeTrunk" d="M93,604.1c0,5.34-9.25,15.75-13.49,17-11.77,3.52-15,3-31,19-11,13-14.91,17.64-20.71,28.39a325,325,0,0,0-17.19,37.15c-4.51,11.67-6.78,23.83-7.91,36.43-.95,10.53-1.4,21-1.79,31.53-.2,5.58-1.16,20.1.6,20.5,1.27.29,357.5,0,529,0,7.76,0,4.54-24.35,4.35-32.5-.32-13.67-3.35-37.5-14.33-69-17-36.49-30.17-51.07-42.14-61.85-6.5-5.85-15.78-6.07-23.78-8.92-.92-5-.53-10.38-.6-15.72"/>
  <path class="bushFurthest" d="M422.54,558.6c25.29,1.29,48,9.68,65.78,27.73,11.8,12,19.09,27.19,22.28,44.6-1.22-.49-19.61-20.19-29.63-26.2-5.58-3.34-19.93-8.63-19.93-8.63,4,10.48,6.84,20.86,5.34,32.54A153.58,153.58,0,0,1,462,651.09c-2.5,8.86-4.26,9.52-11.95,5-7.91-4.64-16.42-8.43-23-15.05-7.06-7.15-17-19.95-17-19.95.5,15-.69,14.82-1.44,19.51-1.93,11.94-7.43,22.33-13.48,32.71-20.38-12.12-44.58-47.22-44.58-47.22-1,8-1,11-6,25-5.43,15.21-18,27.17-18.9,27.77-12.47-11.25-14.1-8.77-23.1-24.77s-8.5-29-8.5-29c1.95,14-4.07,26.2-9.18,38.42-2.7,6.44-7.82,11.62-14.24,15.86-13.38-10.69-24.11-23.1-27.76-40.74a33.17,33.17,0,0,1-.32-12.54s-2,23-12,35c-6,9-14,14-20.46,18.35-14-12.48-21.67-27.88-22.07-46.85-.08-3.84-.63-7.67-1-11.5,0,0-3.92,13.53-5.51,17-6.21,13.57-17.2,22.23-29.76,29.16-11.47-15.31-14.23-21.15-18.23-32.15-2-7-.75-21.14-1.5-22,0,0-10.32,20.81-19.67,30.84-7.15,7.69-30.16,16.66-31.83,17.16a119.94,119.94,0,0,1-6-26c-2-21,2-27,7-37,0,0-6.26-.17-10,.95-8.5,2.53-16,5.06-23.47,9.58a109.34,109.34,0,0,0-21.9,17.1,45,45,0,0,1,2.92-18.12c4.65-12,11.93-22.25,20.26-32.18,15.41-18.35,34.75-26.68,58.2-26.83"/>
  <path class="bushFurther" d="M259.54,528.1c2.36,1.24,19,25,30,30,8,2,14.65,0,19.47-2.07,3,2.94,2.32,7.42,5,10.63,9.94,12.12,24.86,14.21,40.58,9.48,9.19-2.77,16-9,23.05-15.39,2,1.65,3.54,3.47,5.92,4.42,11.21,4.49,22.3,4.73,34.07,1.59,33-16.66,22-41.16,22-41.16,4.84-.12,9.68.35,14.51-.48,12.29-2.12,19.82-10.12,26.46-20,16-24,.47-45.47-1-45.48,0,0,5,.5,12.15-6.37,6.93-7.85,8.29-26.4-1.65-34.63a39.67,39.67,0,0,0,21.5-32.5c2-23-9.08-31-14.5-36.5,0,0,14.5-3.5,15.5-17.5,2-20-14.5-21.5-14.5-21.5,1.5-1.67,14.57-8.69,9.5-20.5-6-14-15.53-9.72-18.2-10.53a39.82,39.82,0,0,0,11.29-10.41c9.56-13.72,11.33-28.16,4.89-43.55-4.08-9.74-12.21-15.05-21.48-19,0,0,15.46-9.63,18.91-19.53,4.37-12.53,2.26-24.36-3.41-36-3.18-6.52-13.5-12-13.5-12,.65-2,11.5-11,6.5-24s-21-15-21-15c3-4,7-18-6-32a35,35,0,0,0-31.43-5.28,42.58,42.58,0,0,0-19.44,12.77c-7-8.47-15.7-8.83-24.57-3.89-10.25,5.69-10.14,15.43-8.33,25.86-15.16-.14-27.18,5.69-35.19,18.56-7.27,11.71-8.22,23.94-1.78,36.84-10.42,1.47-21.26,5.14-28.26,20.14-10,26,.77,27.49,0,38-.3,4.16-45.54,73.84-46,78"/>
  <path class="bushCloser" d="M280,148.1c2.34-2.5,4.83-4.87,7-7.52,12.51-15.43,10.45-36.35-6.89-48.6a44,44,0,0,0-17.59-7.38,6.22,6.22,0,0,1,2.07-2.41c5.4-3.93,7.93-10.09,5.93-20.09-6-20-23.5-17.5-23.5-17.5a76.25,76.25,0,0,0,2.08-19,16.44,16.44,0,0,0-3.55-10.52,54.92,54.92,0,0,0-12-11C227.77.16,221.53,0,215.05,1.12c-8.15,1.45-17.25,7.44-23.51,13,0,0-2.39-2.62-3-3.5-6.26-9-15.24-9.51-24.48-6.89C147.4,8.44,136.57,21,137,40.1c.09,3.9,2.13,7.24,2.54,11,0,0-18.58,5.16-20.5,16.5-1.57,9.27,7.5,20,7.5,20a105.67,105.67,0,0,0-10,4.55c-10.68,6.24-21.13,26.9-16.59,40.47.62,1.85,7.18,9.7,9.58,12,3.67,3.47,5.52,4.21-1.51,7.53-6.71,3.16-19.43,9-22,28s11.46,32,14.46,33c0,0-12,1-14,18s15.22,17.1,17.08,18.4c-1,2.76-28.08,10.6-30.08,35.6s12.37,33.81,14.8,36.76c-5.23,3.54-12.8,4.24-13.8,17.24s8,17,13,21.5A30.12,30.12,0,0,0,84,363.55c-10.64,10.53-15.26,23.31-13.85,38,.77,8,2.36,15.89,10.82,20.15,1.89.95,4.16,2.64,4.59,4.86-4,3.94-7,8.22-10,12.48-7,9.78-4.24,20.05-.13,29.37A37.51,37.51,0,0,0,88.58,484a8.38,8.38,0,0,1,3.12,4c-1.43,1.91-2.71,3.8-4.17,5.53-5.3,6.27-4.16,13.21-.81,19.42,8.82,12.09,20.06,8.38,21.86,9.07-7.42,8.12-11,17.15-4.9,26.94,5.54,8.94,14.92,8,23.66,7.25,3.51,13.07,12.38,20.61,25.21,23.79,11.55,2.86,22.76,2.86,31.83-5.43,13,14.8,27.33,25.28,48.17,23.07,13.38-1.41,24-6.93,31.37-18.18,1.59-2.42,3-3.22,5.63-3a11.34,11.34,0,0,0,8-2.45c12.21-9.29,20.9-23.41,11.72-41.56a16.71,16.71,0,0,0,8.31-1.39c15.38-7.27,25.74-27.49,22.49-44-1.38-7-3.55-13.43-10.48-17.07-.94-.49,8.69-2.6,12.92-6.47,4.69-4.29,9.4-9,11.38-15,4.31-13.1.92-24.6-9.47-33.82,1.8-1.8,3.58-3.37,5.11-5.15,5.69-6.59,9.48-13.69,8.66-23a42,42,0,0,0-8.74-22.91C326,359.26,319,354.6,319,354.6c2.17-2,4.5-3.85,6.47-6,5.64-6.21,4.87-19.81-1.52-24.39-2.32-1.66-5.28-2.41-7.95-3.58,0,0,8.85-9.18,9.73-16.53,1.82-15.19,3.1-27.06-8.23-39-2.46-2.59-12-8-12-8,14.45-12.79,19-24.44,14.76-40.94-3.09-11.95-10.29-21.78-22.64-26.68,5-5,7.19-7.76,7.36-9.88,1.05-12.8-2.66-23.9-16.55-28.27Z"/>
</svg>
