<svg viewBox="0 0 803 748.5">
    <path class="leaves" d="M605.5,747.5c31.91-2.84,62.35-12.27,91.5-27.5,4.63-37.51-1.12-68.69-13.5-103.5,26.83,1.35,56.4-13.57,84.5-31.5-3.37-31.79-17.57-62.1-37.5-86.5,31.44-28,56-66.05,71.5-113.5-25.2-35.68-61.71-61.72-108.5-79.5C710.83,275.31,721.71,242,727,206c-33.54-11.66-67-17.23-98-17,2.92-43.31-1.65-87-15.12-129-47.37-1.53-91,8.67-129.38,23.51C463.61,51.79,436.1,21.27,403,1c-33.44,22.25-60.64,49.57-78.5,84.5C292,66.61,258.24,54.52,223,50c-19.88,35-31.93,71.49-35.5,109.5C137.58,162.16,94,170.28,56,191c2.53,45.27,17.31,86.46,40.5,129.5C68,326.11,38.41,340.81,17,359c8.71,29.41,25.14,61.1,46.5,83.5C37.92,467.37,13,500.56,1,531c27.3,32.33,59.66,46,89.5,62.5C77.88,631.56,69.89,669,71,705c36.27,19.83,75.56,33.76,117.5,42.5Z"/>
</svg>
