<svg viewBox="0 0 355.63 331.71">
  <polygon class="treeTrunk" points="192.23 239.34 193.53 307.49 206.9 331.21 135.73 331.21 149.1 307.92 152.12 239.34 192.23 239.34"/>
  <path class="treeCloser" d="M185.76,250.55c-16,3-19.41,18.55-36.23-4.74-17.25-3.45-27.6,25.45-47.44-6-19-3-21.13,27.17-47.44-17.68-16.19-10.53-32.78,23.29-34.94-38.39,6.26-23.17-27.17,4.75-12.08-41C22.4,118.83-23,138,18.42,94.85,28.34,81.48-1.85,78,39.12,61.64c24.15-15.09-14.66-26.31,42.7-29.32,14.23-3.46,3.88-27.61,36.23-17.26,26.74-25,28-4.74,46.15-6,16.82-.43,13.28-19.78,42.26,1.3,55.21-17.68,26.74,8.19,51.76,15.53,40.54-6.47,23.29,9.92,35.8,19.84,66.42,12.07,24.69,22.21,38.81,40.11,41.84,37.52,3.15,25.1,10.79,38,27.17,49.17-1.82,25.61-5.18,46.15,12.08,54.78-12.07,32.78-17.68,36.66-14.67,45.29-30.19,9.49-45.72,24.15-18.11,32.35-23.51,9.73-36.23,10.35C209.91,276,200.43,246.67,185.76,250.55Z"/>
</svg>
