<svg viewBox="0 0 637.14 1611.83">
  <path class="cypressFurther" d="M210.05,1610.83c-74,0-124-101-55.29-76.48C32.83,1444.14,3.65,1321.16,70.84,1380.07c-51.11-52.58-87.5-165.26-33.08-125.27-41.06-82.36-54.71-174.3-4.2-125-44.27-86.53-35.44-151.21,3.2-103.59C-3.93,893.93,14.3,861.25,46.08,904.41,14.22,766,37.53,710.64,63.19,769.37,45,637.14,77.64,559.16,98.82,614.41c-16.33-128.64,12.44-209.92,37.93-148.28C127.91,346.5,157.43,301.28,177,352.68c-9.54-166.14,29.67-166,44.65-110.71C219.81,124.11,243.18,51.56,270,121.21c39.25-249.78,74.17-40.38,82.07,7.13,28.54-91,54.51-12.11,54.51,72.25,31.57-53.46,49.51,47.55,49.51,114.15,31.67-46.42,54,46.22,45.35,135.88,31-46.55,39.36,51.72,30.74,134.48,29.93-62.21,51.73,22.41,31,105.17,34-41.13,43.1,25.86,22.41,106.9,36.9-54.54,45.19,62.59,17.24,158.62,35-52.17,53.3,36.43-1,133.89,41.85-32,18.25,92.15-13,164.47,53.22-46.32,24.22,76.68-25,146.44,66.25-30.76,10.25,85.24-68,138.15,74.22-12.91-2.78,72.09-61.78,72.09Z"/>
</svg>
