<svg viewBox="0 0 911.74 1725.63">
  <path class="cypressFurther" d="M441.64,1724.63h-214c-96.52-18.3-151.2-71.52-80-71-101-69-155.39-185.35-82-151-61-96-92.15-203.19-33-163,0,0-65-218,2.26-160.72-25.38-79.26-28.19-172.12,3.67-127.66-29.93-120.62-21.37-176.8,9.61-127C24.64,762.63,40.05,739.73,66.71,801.47c-15.07-138.84.15-211.88,24.52-148.33-9.59-134.51,10.13-172.73,30.29-115.25-4.88-109.26,14.19-177.89,33.9-133.53,9.15-112.61,31.82-171.9,49.7-127.44,8.52-90.29,32-194.29,50.73-154.61,56.79-220.68,65.39-80.16,77.79-42.68,13.15-46.31,37-29,57.35,73.29,25.68-55.7,37,12.55,54.85,123.84,17.8-57.13,47.8,12.87,43.73,114,50.86-179.85,127.64,716.53,122.41,753.3C615.24,1393.7,593.15,1724.63,441.64,1724.63Z"/>
  <path class="cypressCloser" d="M729.64,1724.63c74,0,124-91,55.28-66.48,112.72-91.52,131.72-214.52,73.93-154.27,41.79-67.25,71.79-194.25,23.07-145.28,26.72-80,46.72-173,4.2-125,24.57-76.74,28.46-137.76-3.19-93.58,26-104.86,18.57-145-8.35-101.7,20.46-140.5,7.06-177.79-16.11-124.12,13.1-120.69-.14-175.49-21.32-120.24,8.34-116.93-8.8-167.54-26.33-117.57,4.25-95-12.33-145.94-29.47-107.39-8-97.88-27.65-158.11-43.2-119.47-7.4-78.48-27.83-141.07-44.09-106.58-47.63-157-56.85-80.11-67.62-47.53-11.44-40.25-38.25,0-49.86,63.71-22.32-48.41-39.15,19.61-54.63,116.34-15.47-49.66-26.54,12.28-31.06,90.42-19.18-47.07-30,23.61-31.67,113.21-22.28-42.93-25.65,17.46-20.94,90.43-25.68-43.82-31.76,14.42-21.65,114.09-31-49.25-24,36.8-13.63,91.51-26-47.75-31.26,15.7-13.23,128.21-28.46-41.23-33.67,10.93-5.28,117.37-41.85-32-24.85,85,6.36,157.28-53.21-46.33-24.21,66.67,25,136.43-66.24-30.76-10.24,85.24,68,138.15-74.21-12.91,2.79,72.09,61.79,72.09Z"/>
</svg>
