<svg viewBox="0 0 399.13 207.43">
    <path class="dishRim" d="M380.15,105.82c14.43-1.32,16.73-23.41,1-25,15.18-.23,17.12-23.62,1.59-25.05,15.26.61,17.86-23.65,2.16-25,15.18.63,18.86-23.68,2.74-25q-187.89-9.4-375.86,0c-16.65.17-12.65,25.64,2.74,25-16.32.23-13.25,25.63,2.16,25-16,.28-13.88,25.62,1.58,25-15.75.31-14.53,25.62,1,25.06-15.52.33-15.22,25.65.44,25.08-15.39.34-15.86,24.7-.11,25.1-15.2.33-16.64,24.71-.67,25.11q180.78-2.07,361.55,0c15.45-1.41,14.32-24-.67-25.11,15.15-1.49,15.06-23.74-.11-25.07C395.43,130.33,394.53,107.87,380.15,105.82Z"/>
    <path class="dishBasin" d="M58.91,206.43q140.79-.69,281.6,0c9.81-.67,20.91-1.86,27.5-10.14,3.77-6.09,5.67-9.13,9.49-15.2q-177.79-2-355.59,0c3.82,6.07,5.72,9.12,9.5,15.22C38,204.58,49.1,205.76,58.91,206.43Z"/>
    <g class="dishOverlapLine">
        <path d="M19.6,156q180.11-3,360.21,0"/>
        <path d="M379.7,130.92q-180-4-360,0"/>
        <path d="M19.27,105.83q180.42-5,360.88,0"/>
        <path d="M18.26,80.77q181.43-6,362.9,0"/>
        <path d="M16.68,55.72q183-7.12,366.06,0"/>
        <path d="M14.52,30.69q185.16-8.24,370.38,0"/>
    </g>
</svg>
