<svg class="presence" xmlns="http://www.w3.org/2000/svg" viewBox="0 0 198.44 455.55">
  <g class="dullTurquoiseMedium">
    <path d="M1,5A1208.65,1208.65,0,0,1,197.44,5q-3.24,113.69-5,227.4-12.72,9-25.35,18.11-67.9-.45-135.81,0Q18.68,241.41,6,232.4,4.22,118.69,1,5Z"/>
    <path d="M167.13,250.51q-67.9-.45-135.81,0,.84,89.91,1.08,179.82Q20.27,442.51,8,454.55h182.4q-12.33-12-24.52-24.22Q166.22,340.42,167.13,250.51Z"/>
  </g>
  <path class="dullTurquoiseDark" d="M45.24,270.13q54-.12,108,0-.61,80.19-.83,160.38H46.06Q45.83,350.32,45.24,270.13Z"/>
  <path class="dullTurquoiseLight" d="M18.45,225.59q80.77-1.12,161.54,0,1.37-100.27,3.7-200.56A1301,1301,0,0,0,14.75,25Q17.12,125.31,18.45,225.59Z"/>
  <path class="steelMedium" d="M165,48.48c-3.58-1-8.46,1.16-8.46,5a6.45,6.45,0,0,0,6,6.07h0Q161.46,125,160.7,190.47c-5.85-.18-8.19,8.21-2.89,10.9h0a34.49,34.49,0,0,0,5.76,1.86c3.28.24,7.93-2.15,7.61-6.16.26-46.49.75-93,2.29-139.46C173.86,52.74,169,49.65,165,48.48Z"/>
  <path class="newspaper" d="M29.6,207q57.13-.91,114.29-.35.65-81.33,1.64-162.66Q86.28,42.08,27.05,45.12,28.6,126.06,29.6,207Z"/>
  <g class="print">
    <path d="M35.54,75.27q51-2,102-.83.12-11.85.23-23.7-51.33-1.32-102.64.94Z"/>
    <path d="M37.18,196q49.7-.81,99.39-.34,0-5.93.08-11.85-49.8-.53-99.61.39C37.09,188.12,37.13,192.06,37.18,196Z"/>
  </g>
  <path class="dullBlueMedium" d="M90.76,121.18c6.74,4.73,13.94,8.66,21,12.88,5.24,3.13,12.09,6.61,14.26,12.53,3.48,9.47,4.21,19.84,4.8,30.16q-46.32-.45-92.62.45c-.63-10.19-.71-20.36,1.81-30,1.52-5.83,8-9.56,12.81-12.69,6.8-4.39,13.79-8.46,20.39-13.16Q82,121.23,90.76,121.18Z"/>
  <path class="dullAmberMedium" d="M97.34,118.12c3.75,2.56,4.22,9,.58,12-12.17,12.74-18.19,30.13-23.37,46.6-4-15.92-9.17-31.65-8.49-48.25-1.49-3.27-1.77-8.78,1.8-11Q82.6,117.69,97.34,118.12Z"/>
  <path class="skinBlack" d="M62.73,104.78c2.05-8.92-2.15-20.72,4.51-28.36,11.18-12.84,40.25-8.58,40.83,11,.45,15.54-7.17,38.48-26.07,38.42C72.29,125.77,60.36,115.15,62.73,104.78Z"/>
</svg>
