<svg class="presence" xmlns="http://www.w3.org/2000/svg" viewBox="0 0 677 612.82">
  <g class="patinaDarkest">
    <rect x="616.9" y="265.52" width="53.1" height="73.2"/>
    <rect x="6.1" y="265.52" width="49.5" height="73.2"/>
    <path d="M624.1,555.92l-3.6,33.6h-7.8c-.05-4.73-3.05-29.08-3-33.6Z"/>
    <polygon points="48.4 557.42 53.8 588.32 61 587.72 63.1 556.52 48.4 557.42"/>
    <path d="M116.8,44.12c0-6.4-.08-12.8,0-19.2,0-2.15-.75-4.14-.73-6.3,0-1.84-2.08-2.44-3.51-1.19-2.29,2-2.07,4.92-2.33,7.5a179.84,179.84,0,0,0-.37,18Z"/>
    <polygon points="96.1 48.92 95.8 135.62 37.9 135.62 96.1 48.92"/>
  </g>
  <g class="rubberDark">
    <path d="M72.1,572.12a48.8,48.8,0,0,0-12.31.25c-3.81.69-6,2.15-6.87,5.76a53.15,53.15,0,0,0-.34,25.2,12.88,12.88,0,0,0,3.93,6.58,6.37,6.37,0,0,0,5.69,1.8,34.71,34.71,0,0,1,6.6-.28c2.58,0,4.66-.72,5.7-3.31Z"/>
    <path d="M599.8,609a22.65,22.65,0,0,0,9,1.13c3.27-.37,7,.23,9.55-2.39,3-3.16,4.13-7.28,4.26-11.64v-2.4a53.41,53.41,0,0,0-.6-15.3c-.91-5.14-2.66-6.34-7.78-7.32-3.52-.68-6.83-.05-10.22.18a9,9,0,0,0-4.5,2Z"/>
  </g>
  <g class="steelDark">
    <path d="M74.49,573.4c-2.92-1.95-4.31-1.42-5.08,2.1-1.32,6-1.17,12.18-.87,18.3a49.92,49.92,0,0,0,1.75,12,10.3,10.3,0,0,0,2.8,4.87c2-.26,2.71-1.37,3.27-3,1.58-4.71,1.71-9.57,2-14.42Z"/>
    <path d="M603.4,575.35c2.12,3.07,2.63,6.77,2.85,10.2.4,6.22.64,12.52-1.55,18.63a12.11,12.11,0,0,1-2.58,4.09,2.75,2.75,0,0,1-4.39-.24,17.43,17.43,0,0,1-3.08-6.57,38.32,38.32,0,0,1,1-23.11Z"/>
  </g>
  <g class="patinaDarker">
    <polygon points="57.1 337.52 57.7 317.16 9.1 337.22 57.1 337.52"/>
    <path d="M621.1,337.34c1.06.37,45.6-.72,45.6-.72l-45-17.4S621.1,330.92,621.1,337.34Z"/>
    <path d="M592,557.12c-.71,5.62,0,11.22.37,16.8a147.06,147.06,0,0,0,2.32,17.7c.06.29-.11.67,0,.89,1,1.59,1.07,4.07,3.58,4.17,2.3.1,2.93-2,3.53-3.58,1.92-4.89,2.45-10.12,3-15.28.73-6.7,2.1-13.33,2.18-20.1,0-.45.5-.52.88-.6Z"/>
    <path d="M68.5,558.92a165.49,165.49,0,0,0,2.21,28.48c.48,3.16.62,6.83,3.79,9l2.4.3a19.4,19.4,0,0,0,3.42-6.86,35.15,35.15,0,0,0,.71-4.55,183.48,183.48,0,0,0,2.47-27Z"/>
    <path d="M343.9,11.42h-5.7c-3.78,0-6,2.22-6,6,0,5.8,0,11.6,0,17.54a37.63,37.63,0,0,0,11.7.16Z"/>
    <path d="M114.4,16.82a39.19,39.19,0,0,0-9.92-.14,5,5,0,0,0-4.33,3.78,26.48,26.48,0,0,0-1.39,7.46c.13,6,0,12,0,18.14,5.28.52,6.87.46,11.85,1.21C109.15,34.07,110.35,16.37,114.4,16.82Z"/>
    <rect x="92.5" y="45.92" width="250.5" height="90"/>
  </g>
  <g class="patinaMediumDark">
    <path d="M332.2,24.92c-10.1,0-46.9-.31-66.6.16-18.3.44-36.6.83-54.9,1.27-7.7.19-15.42.44-23.09.84-10.4.54-20.82.79-31.22,1.53-7.28.51-14.6.93-21.89,1.17-6.5.21-12.68,1-19.2.77a2.45,2.45,0,0,1-2.71-2.14,10.54,10.54,0,0,1,.25-6.61c.3-1.56,1.57-2,3.06-2.12,6-.37,11.71-.72,17.71-1.06,7.49-.42,15-.89,22.49-1.21,8.51-.37,17-.59,25.5-1.27,4.69-.38,9.38.06,14.11-.5,5.64-.67,11.39,0,17.1-.65s11.77,0,17.7-.54c8.66-.72,17.4-.43,26.09-.59,23.79-.43,63.9-.45,76.5-.15C332.2,15.92,332.21,20.53,332.2,24.92Z"/>
    <path d="M635.8,135.92a3474.92,3474.92,0,0,0,0,425.7q-301.93-6.48-594,0a3966.81,3966.81,0,0,0,3.3-422.7Z"/>
  </g>
  <path class="flatYellowMediumDark" d="M602.8,161.12c-13.7.08-27.4.67-41.09,1.08-9.11.27-18.23-.15-27.3.52-7,.52-14-.07-21,.63-6.13.62-12.22.12-18.31.49-11.89.72-23.82.07-35.69.75-7.91.46-15.83-.06-23.85.59-.85,36.55.87,72.94.41,109,.85,1,1.53.64,2.13.65,21.1.3,42.2-.57,63.3-.79,10.29-.1,20.63.22,30.89-.51,7.22-.51,14.45.1,21.6-.6,6.82-.68,13.63,0,20.41-.53,9.19-.68,18.4-.79,27.6-1.14,1.47-.06,2.17-.64,2.1-2.12,0-.6,0-1.2,0-1.8q0-51.15,0-102.3c0-1.22.29-2.51-.59-3.6Z"/>
  <path class="flatRedMediumDark" d="M575.2,178.82c-.81.14-1.51.67-2.4.62-6-.36-12,.8-18,.64-8.1-.22-16.21.42-24.29.73-5.3.2-10.64-.11-15.9.47-9.4,1-18.85-.14-28.2.66s-18.41.21-27.61.43c-1.81,0-3.31,1.16-5.38.49-.25,13.27,1.26,26,.38,39.25,5.6-.49,10.72.65,15.81-.67a8.57,8.57,0,0,1,2.09,0c5.9,0,11.8-.09,17.7,0,11.71.22,23.39-.7,35.1-.79,4.87,0,9.85.14,14.68-.54s9.44-.09,14.12-.53c7-.64,14.05-.43,21-1.33,3.8-.5,7.8.57,11.72-1.49V178.82H575.2Z"/>
  <path class="garbageBagRear" d="M343,137.72V101c-7.89-5.85-16.83-10.63-27-12.76-6.43-1.34-12.9-.72-19.17.69-5.15,1.17-9.41-.29-13.51-2.84a36.35,36.35,0,0,0-14.71-5.72,30.5,30.5,0,0,0-19.45,4A46.08,46.08,0,0,1,232,90c-1.58.21-2.95-.61-4.5-.66-9.27-.28-16.75,3.48-23.1,9.94-2.13,2.17-4.21,4.4-6.37,6.54a4.84,4.84,0,0,0-1.44,4q0,14.55,0,29.1Z"/>
  <path class="garbageBagFront" d="M236.2,132.62c-2-4.59-4.18-9.08-7.51-12.89-5.24-6-11.3-10.73-19.17-13a48,48,0,0,1-16.22-8c-5.34-4.1-11.55-4.55-18-4.56-8.62,0-17,2.43-25.5,2.67-4.23.12-8.44-1-12.61-1.94-7-1.65-14.12-2.66-21.29-.68A17.69,17.69,0,0,0,110,97a62.1,62.1,0,0,1-13.57,7.4c-8,3.38-13,9.73-16.74,17.15a54.27,54.27,0,0,0-3.94,12Z"/>
  <g class="patinaDark">
    <path d="M676,272.77c0-4.62-1.93-8.13-5.33-11.26L631.5,224.65q-.78,21.93-1.29,43.87h30.25A7.44,7.44,0,0,1,667.9,276v52.32a7.44,7.44,0,0,1-7.44,7.44H629.3q-.09,23.68.15,47.36l41.74-42.52A15.18,15.18,0,0,0,676,329.5C675.59,309.65,675.55,290.64,676,272.77Z"/>
    <path d="M49.16,335.72H16.54a7.44,7.44,0,0,1-7.44-7.44V276a7.44,7.44,0,0,1,7.44-7.44h32.3q-.3-23.07-.86-46.21L6.33,261.51C2.93,264.64,1,268.15,1,272.77c.45,17.87.41,36.88,0,56.73a15.18,15.18,0,0,0,4.81,11.06l42.87,43.68Q49.07,360,49.16,335.72Z"/>
    <path d="M571,285.62c-26.5-.43-53,.32-79.5.79-25.9.45-51.8,0-77.7.42-95.9,1.37-191.8.4-287.7.41q-26.23,0-52.5-.41c-4.07-.07-6,2-6,6.29,0,3.87,1.86,5.51,6,5.72,24.59,1.25,49.2.21,73.8.59,88.7,1.36,177.4.53,266.1.39,26.09,0,52.21.33,78.29-.55,13.42-.45,26.84.27,40.2-.55,13.82-.86,27.63.2,41.4-.62,9.72-.58,19.41-.22,29.11-.48,5.35-.14,8.56-4.19,6.9-8.7-1-2.77-2.69-3.89-6-3.89C593.6,285,571.94,285.63,571,285.62Z"/>
    <path d="M417.1,417.32a7.25,7.25,0,0,1-3.3.29c-34.7,0-69.4-.28-104.1.12-22,.25-44,0-66,.63-18.7.53-37.42-.17-56.09.59-12.62.52-25.23-.17-37.8.59-11,.67-22-.16-33,.58-10.72.73-21.42.08-32.11.59-3.59.18-7.19.5-10.8.51s-6,2.38-6.34,6c-.34,3.45,1.67,6.28,5.75,6.49a109.42,109.42,0,0,0,16.49-.17c7.59-.75,15.21,0,22.8-.35,13.1-.64,26.22-.07,39.29-.72,10.12-.51,20.23.1,30.31-.5,19.1-1.13,38.21.07,57.3-.62,20.7-.76,41.4-.15,62.1-.56,63.1-1.26,126.2-.39,189.3-.42,14,0,28-.09,42,.58,12,.58,24-.11,36,.58,9.52.54,19,.56,28.51.83,2.5.07,4.91.62,7.51,0,3.88-.92,5.91-2.89,5.69-6.05-.27-3.86-2.4-6.25-6.3-6.24-5.62,0-11.18-.71-16.8-.73-15.1-.06-30.21-.26-45.29-.7-12.41-.36-24.82.05-37.21-.47-27.8-1.17-55.6-.22-83.4-.57-1.4,0-2.8-.19-4.2-.29Z"/>
    <path d="M343.3,34.82c-20.9,0-41.8,0-62.7,0-6.3,0-12.61.7-18.9.51-14.52-.44-29,.63-43.5.78-15.2.16-30.4,1.18-45.59,1.83-13.51.57-27,1.4-40.5,2.36-9.51.67-19.05,1-28.51,2.25-2.68.35-5.4-.06-8.11.58C90.93,44.23,88,47.5,85.36,50.77c-11.38,14-22.68,28-32.15,43.45q-8.74,14.23-17.4,28.51c-3.71,6.12-3.07,12.65-1.48,19.18.54,2.23.5,4.67,2.63,6.36A7,7,0,0,0,41.5,150c9.92,0,19.79.9,29.7,1.29,10.1.4,20.19.83,30.3,1.15,18.5.61,37,1.26,55.5,1.85,7.2.23,14.4.43,21.6.49q23.4.18,46.8.71c44.3,1,88.6.42,132.9.36q26.38,0,52.8-.55c10.7-.2,21.41-.21,32.1-.62,9-.35,18-.23,27-.55,16.5-.59,33-.7,49.5-1.21q19.65-.63,39.3-1.23,20.4-.58,40.79-1.26c5.4-.18,10.85.12,16.2-.55s10.81-.3,16.21-.5c7-.25,10.23-3,11-10.51.45-4.23.31-8.55-1.67-12.61a5.55,5.55,0,0,0-5.14-3.24c-8.61-.4-17.19.69-25.8.73-3.15,0-6.4.31-9.6.42q-22.65.83-45.3,1.31c-12.2.27-24.4.78-36.6,1.19-16.5.55-33,.87-49.5,1.25-9.1.22-18.22,0-27.3.54-11.2.65-22.41.16-33.6.58-15.5.58-31,.44-46.5.56-12.3.1-24.61.71-36.9.51-22.5-.37-45,.11-67.5-.31-11.6-.21-23.21.22-34.8-.29-12.5-.55-25-.06-37.49-.65-10.31-.49-20.61-.3-30.91-.72-11.49-.48-23-.71-34.5-1.05-11.9-.34-23.79-.84-35.7-1.2-9.4-.28-18.78-1.12-28.2-1.1a8.84,8.84,0,0,1-4.08-1.28c1.26-4,3.74-7.36,5.62-11,8.93-17.27,20.09-33.12,31.79-48.6,1-1.27,1.78-2.61,2.68-3.91,3.38-4.88,8.69-5.17,13.79-5.34,10.22-.35,20.37-1.62,30.6-2,6.59-.24,13.22-.42,19.79-1.12,10.09-1.06,20.23-.82,30.32-1.69,4.47-.39,9-.38,13.49-.54,9.2-.32,18.4-.67,27.6-.84,11.7-.21,23.4-.58,35.1-.86,4.4-.1,8.8-.11,13.2-.22,15.4-.38,30.81,0,46.2-.41,7.31-.19,14.6.37,21.9.12a3.38,3.38,0,0,1,2.1.29Z"/>
  </g>
  <path class="rubberMedium" d="M637.9,109.22c3.08-4.31,2.89-8.93.87-13.48A219.4,219.4,0,0,0,624.44,69a210.92,210.92,0,0,0-17.23-24.21c-8.73-10.41-18-20.36-28.66-28.93C574,12.23,569.6,8.51,564.07,6.7,558.88,5,553.34,4.87,547.9,4.53c-9.29-.6-18.6-.68-27.9-1q-19-.69-38.1-.44-24.9.3-49.8,1.22c-9.6.37-19.19.86-28.8,1.22-9,.34-18,.81-27,1.21-8.6.38-17.2.81-25.79,1.24-4,.21-8,.2-12.31.62V120.92Z"/>
  <g class="rubberMediumLight">
    <path d="M500.8,112.52a108.31,108.31,0,0,0-3.7-26.67c-4.94-19.91-13.4-38.57-21.52-57.32a205.49,205.49,0,0,0-12-23.4,5.39,5.39,0,0,0-7.79-1.81c-1.7,1.15-2.38,2.53-1.21,4.51,3.66,6.16,6.6,12.69,9.7,19.15,6.17,12.87,11.64,26,16.77,39.32a176.09,176.09,0,0,1,9.42,35.14,48.86,48.86,0,0,1,.72,12.28Z"/>
    <path d="M421,113.72a165.56,165.56,0,0,0-.7-24c-.83-7.71-1.33-15.46-2.75-23.14-.85-4.62-1.38-9.36-2-14.07-.85-6.85-2.31-13.62-3.45-20.42-1.33-8-3.39-15.77-4.92-23.68-.72-3.74-5.53-6-8.68-3.86-1.15.78-1.49,1.69-1.11,3.6,1.74,8.67,3.6,17.32,5.13,26C403.68,40.6,405,47,405.84,53.44c.51,3.87,1,7.8,1.5,11.66.7,5.11,1.08,10.27,2.15,15.34a55.84,55.84,0,0,1,.69,6.28c.83,9.19.59,18.4.62,27.6Z"/>
    <path d="M571.6,110.12c0-5.81-1.4-11.44-2.47-17.09a110.28,110.28,0,0,0-7.72-24.91A147.41,147.41,0,0,0,550.54,49C540.14,32.86,529.06,17.22,516.09,3c-2.27-2.49-5.05-2.69-7.48-.6-1.21,1-1.72,2-.35,3.63a400.42,400.42,0,0,1,30.61,40.18c6.43,9.83,13.22,19.49,16.85,30.88,2.11,6.64,4.49,13.24,5.56,20.12.66,4.24,2,8.48,1.32,12.88Z"/>
  </g>
  <path class="rubberMediumDark" d="M638.2,105.62c-8.9.6-17.8,1.24-26.7,1.79q-11.4.69-22.8,1.2c-14.1.61-28.19,1.26-42.3,1.61-12.1.29-24.19.87-36.3,1.2-10,.27-20,0-30,.64-9.32.58-18.61.12-27.91.47-22,.82-44,.17-66,.72-15.9.4-31.8.25-47.85.52v18.87a3.21,3.21,0,0,0,1.35.3c19.5.08,39,.4,58.5.19,10-.11,20,.1,30-.25,11.5-.4,23-.47,34.5-.6,11.3-.12,22.6-.53,33.9-.87,11.9-.36,23.8-.72,35.7-1.21,12.6-.51,25.21-1,37.8-1.82q18-1.14,36-2.25c9.8-.6,19.57-1.62,29.39-1.92,4.9-.15,7.2-2.44,8.13-7.48.78-4.25.12-7.91-3.32-10.83-.51-.43-1-.18-1.51-.28Z"/>
</svg>
