<svg viewBox="0 0 646.54 457.4">
  <g class="cup">
    <path d="M230.93,430c20.93,15.37,65.19,15.91,86.12.19q-5.37-78.78-10.67-157.58c-17.78-10.8-45.82-10.59-63.58.13Q237.4,351.41,230.93,430Z"/>
    <path d="M329.49,430.2c21,15.21,65.29,15.69,86.12-.19q-6.51-78.6-11.87-157.27c-17.73-10.84-45.78-10.8-63.58-.12Q334.82,351.42,329.49,430.2Z"/>
    <path d="M428.06,430c21.16,15,65.4,15.39,86.19-.62q-7.68-78-13.11-156.1c-17.74-10.82-45.74-11-63.6-.36Q432.23,351.38,428.06,430Z"/>
    <path d="M526.72,429.21c23.43-52,47.2-103.79,71.88-155.19-17.78-10.75-45.7-11-63.65-.54Q529.73,351.29,526.72,429.21Z"/>
    <path d="M119.82,429.21q-3.06-77.93-8.23-155.73c-17.92-10.61-45.84-10.09-63.65.54C72.62,325.42,96.39,377.23,119.82,429.21Z"/>
    <path d="M132.29,429.33c20.9,15.5,65.1,16.12,86.19.62q-4.23-78.57-9.48-157.07c-17.83-10.73-45.83-10.35-63.6.35Q139.93,351.38,132.29,429.33Z"/>
    <path d="M231.72,197.77c21.79,15,63.69,15.1,85.38-.34q-5.48-78.79-11.26-157.57c-18.31-10.48-47.64-11-65.6.54Q236.36,119.11,231.72,197.77Z"/>
    <path d="M329.44,197.43c21.67,15.19,63.56,15.57,85.38.34q-4.67-78.66-8.52-157.37c-18.13-10.81-47.44-11.73-65.6-.54Q334.88,118.63,329.44,197.43Z"/>
    <path d="M427.17,197.87c21.58,15.34,63.4,16,85.39,1q-3.9-78.1-5.84-156.29c-18-11.1-47.2-12.43-65.57-1.61Q433.4,119.36,427.17,197.87Z"/>
    <path d="M524.9,199.07c26.15-51.58,53.35-102.57,82.16-152.72-17.82-11.32-46.94-13-65.51-2.63Q531.91,121.26,524.9,199.07Z"/>
    <path d="M121.64,199.07q-7-77.82-16.65-155.35C86.31,34,57.1,34.32,39.48,46.35,68.29,96.5,95.49,147.49,121.64,199.07Z"/>
    <path d="M134,198.88c22,14.72,63.79,14.58,85.39-1q-6.27-78.51-14-156.89c-18.5-10.11-47.79-10.2-65.57,1.61Q137.84,120.77,134,198.88Z"/>
  </g>
  <g class="rack">
    <path d="M645.45,2.94q-10.69,112.92-13.11,226.3-309.06-4.81-618.14,0Q11.77,115.86,1.09,2.94,18.63,2,36.15,1q25.67,38.6,50.2,77.91,236.9-7.2,473.84,0Q584.74,39.63,610.39,1,627.93,2,645.45,2.94Zm-382.92,171q60.75-.19,121.49,0c28.05-1.11,29.66-47.58.4-46.3q-61.14-.27-122.29,0C233.61,128.11,234,174.49,262.53,173.91Z"/>
    <path d="M632.34,229.24q-1.38,113.4,5.25,226.6c.68-.34-629.32-.34-628.64,0q6.59-113.22,5.25-226.6l33.71-.58Q70,268.22,91.45,308.12q231.83-.42,463.64,0,21.48-39.89,43.54-79.46Zm-370,177.21q60.9.18,121.8,0c28.5-.52,28.7-46.84-.32-46.3q-60.58.11-121.17,0C234.05,359.7,233.8,406,262.38,406.45Z"/>
  </g>
</svg>
