<svg class="glassRack" 
    xmlns="http://www.w3.org/2000/svg" viewBox="0 0 602.81 451.78">
    <title>glass rack</title>
    <g class="glass">
        <path d="M295.06,184c-1.37-10.13-3.41-39.5-3.85-44-1.4-14.46-1.9-29-3.22-43.48-1.13-12.32-2.21-24.64-3-37-.22-3.32-.85-6.64-.93-10-.1-4-3.31-6-6.47-6.36-12.11-1.37-24.28-3.31-36.47-1.51-4.5.67-9-.23-13.62,1.62-3.41,1.38-4.77,2.68-5,6.24-.66,12.35-8.42,128.15-10.44,134.51Z"/>
        <path d="M390.06,184C388.69,173.9,380.78,71.89,380,59.54c-.22-3.32-.85-6.64-.93-10-.1-4-3.31-6-6.47-6.36-12.11-1.37-24.28-3.31-36.47-1.51-4.5.67-9-.23-13.62,1.62-3.41,1.38-4.77,2.68-5,6.24-.66,12.35-1.35,24.7-2.5,37-1.22,13-2.06,26-3,39s-2.13,26-3.21,39c-.53,6.48.28,13.16-1.74,19.52Z"/>
        <path d="M295.06,409q-1.76-19.23-3.14-38.49c-.86-12-5-60.66-6-73-.56-7.33-1.35-14.66-1.87-22-.28-4-3.35-6-6.51-6.36-12.11-1.37-24.28-3.31-36.47-1.51-4.5.67-9-.23-13.62,1.62-3.41,1.38-4.77,2.68-5,6.24-.66,12.35-8.26,127.5-10.44,133.51Z"/>
        <path d="M390.06,409c-1.17-12.82-8.17-99.15-9.13-111.49-.56-7.33-1.35-14.66-1.87-22-.28-4-3.35-6-6.51-6.36-12.11-1.37-24.28-3.31-36.47-1.51-4.5.67-9-.23-13.62,1.62-3.41,1.38-4.77,2.68-5,6.24-.66,12.35-7.6,102-8.71,115-.53,6.15.45,12.52-1.73,18.53Z"/>
        <path d="M192.06,87c-1.3-10.47-1.16-21.08-3-31.51C188.49,52,190.28,48,186.6,45c-3.17-2.59-7.16-2.52-10.55-2.71-9.8-.57-19.61-2.24-29.49-.78-3.64.54-7.35.55-11,1.07-6.6.94-7.42,1.69-8,8.47-1,12-1.7,24-2.54,36Z"/>
        <path d="M96.06,86c-1.47-10.12-1.18-20.41-3-30.51C92.48,52,94.28,48,90.6,45c-3.17-2.59-7.16-2.52-10.55-2.71-9.8-.57-19.61-2.24-29.49-.78C46.92,42,29.9,74.36,29.06,86Z"/>
        <path d="M477.06,86c-1.47-10.12-1.18-20.41-3-30.51C473.48,52,475.28,48,471.6,45c-3.17-2.59-7.16-2.52-10.55-2.71-9.8-.57-19.61-2.24-29.49-.78-3.64.54-7.35.55-11,1.07-6.6.94-7.41,1.7-8,8.47-1,11.66-1.7,23.33-2.54,35Z"/>
        <path d="M96.06,311q-1.5-17.76-3-35.5c-.34-4-3.36-6-6.52-6.36-12.11-1.37-24.24-3-36.49-1.65-3.49.39-20.16,32.17-21,43.51Z"/>
        <path d="M192.06,311q-1.5-17.76-3-35.5c-.34-4-3.36-6-6.52-6.36-12.11-1.37-24.24-3-36.49-1.65-3.49.39-7,.54-10.49,1-6.6.95-7.39,1.7-8,8.47-1,11.32-1.7,22.66-2.54,34Z"/>
        <path d="M477.06,311q-1.5-17.76-3-35.5c-.34-4-3.36-6-6.52-6.36-12.11-1.37-24.24-3-36.49-1.65-3.49.39-7,.54-10.49,1-6.6.95-7.39,1.7-8,8.47-1,11.32-1.7,22.66-2.54,34Z"/>
        <path d="M573.06,311c-1-11.84-6.35-41.51-9.51-41.86-12.11-1.37-24.24-3-36.49-1.65-3.49.39-7,.54-10.49,1-6.6.95-7.39,1.7-8,8.47-1,11.32-1.7,22.66-2.54,34Z"/>
        <path d="M573.06,84c-2-6-6.35-40.51-9.51-40.86-12.11-1.37-24.24-3-36.49-1.65-3.49.39-7,.54-10.49,1-6.6.95-7.38,1.7-8,8.47-1,11-1.7,22-2.54,33Z"/>
    </g>
    <path class="rack" d="M570.57,1.13c-1.88,0-2.69,2.09-3.59,3.86-2.77,5.44-6.19,10.57-8.86,16.06-6.47,13.3-14.81,25.56-21.11,39-2.34,5-5.41,9.63-7.89,14.56-1.23,2.44-2.67,3.51-5.55,3.54-24.51.21-49,.75-73.51.89-28.83.17-57.68-.68-86.49.21-42,1.3-84,1.39-126,.56-44.34-.88-88.68-.06-133-.91-8.32-.16-16.67-1-25-.75-5.54.16-6.73-4.36-8.38-7.64-9.79-19.4-21.37-37.8-31.6-56.94-1.58-3-3.91-5.47-4.61-9-.47-2.34-2.47-3.06-4.92-3.07-8.83,0-17.66-.29-26.5-.45h-.5c-2.66,1.33-2,3.81-2,6q0,85,0,170,0,134,0,268c0,1.84-.35,3.73.58,5.75H601.81V1C591.24,1,580.9.92,570.57,1.13ZM240.06,132h.5q60.26,0,120.5,0a14.67,14.67,0,0,1,6,1c13.31,5.77,16.86,22.72,11.79,34.43-2.3,5.29-6.76,9.85-13.3,10.53a166.57,166.57,0,0,1-17,1c-33.5.09-67,.05-100.5.05a45.79,45.79,0,0,1-10-.92c-9.85-2.2-18-14-18-22.58C220.06,144.29,227.84,135.09,240.06,132Zm138.8,260.41c-2.3,5.29-6.76,9.85-13.3,10.53a166.57,166.57,0,0,1-17,1c-33.5.09-67,0-100.5,0a45.79,45.79,0,0,1-10-.92c-9.85-2.2-18-14-18-22.58,0-11.24,7.79-20.44,20-23.5h.5q60.26,0,120.5,0a14.67,14.67,0,0,1,6,1C380.38,363.78,383.93,380.73,378.86,392.44ZM559.17,244.08C552.7,257.38,544.46,269.7,538,283c-2.73,5.63-6,11-8.94,16.53-1.1,2-2.09,3.55-5,3.59-13.84.19-27.68.32-41.51.64-47.82,1.13-95.66.06-143.5,1-41.31.81-82.67,1-124-.62-18.14-.72-36.33-.1-54.5-.13-26.67,0-53.34.28-80-.93-3.36-.15-5.92-.94-7.5-4.06-3-5.85-5.81-11.78-9-17.48-8.9-15.73-18-31.34-26.94-47-1.38-2.42-3.2-4.91-1.39-8.07,1.64-.75,3.53-.4,5.36-.4h280q120,0,240,.05c2,0,7-.05,7-.05C565.5,231.5,561.81,238.67,559.17,244.08Z"/>
    <g class="rackBorderLine">
        <path d="M600.56,226a242.36,242.36,0,0,1-33,.5"/>
        <path d="M34.56,226.53l-32-.5"/>
    </g>
</svg>
