<svg viewBox="0 0 374.7 530.53">
  <g class="paperStackLight">
    <rect x="36.27" y="73.66" width="3.66" height="149.37" transform="translate(-24.38 8.51) rotate(-9.67)"/>
    <rect x="39.99" y="73.68" width="3.66" height="149.37" transform="translate(-24.33 9.14) rotate(-9.67)"/>
    <rect x="43.71" y="73.69" width="3.66" height="149.37" transform="translate(-24.28 9.76) rotate(-9.67)"/>
    <rect x="47.42" y="73.71" width="3.66" height="149.37" transform="translate(-24.23 10.38) rotate(-9.67)"/>
    <rect x="51.14" y="73.73" width="3.66" height="149.37" transform="translate(-24.18 11.01) rotate(-9.67)"/>
    <rect x="54.85" y="73.74" width="3.66" height="149.37" transform="translate(-24.13 11.63) rotate(-9.67)"/>
    <rect x="13.68" y="116.94" width="3.66" height="149.37" transform="translate(-31.98 5.33) rotate(-9.67)"/>
    <rect x="17.39" y="116.96" width="3.66" height="149.37" transform="translate(-31.93 5.95) rotate(-9.67)"/>
    <rect x="21.11" y="116.98" width="3.66" height="149.37" transform="translate(-31.88 6.58) rotate(-9.67)"/>
  </g>
  <g class="oakDark">
    <polygon points="45.82 225.05 97.73 225.05 97.73 143.94 31.74 143.94 45.82 225.05"/>
    <polygon points="23.23 268.33 100.73 268.33 100.73 187.22 9.14 187.22 23.23 268.33"/>
  </g>
  <polygon class="oakMedium" points="348.88 33 65.73 33 84.93 465.53 329.68 465.53 348.88 33"/>
  <polygon class="oakMediumDark" points="329.68 63.85 84.93 63.85 104.13 434.68 310.48 434.68 329.68 63.85"/>
  <g class="oakLight">
    <rect x="40.9" y="1" width="332.8" height="32"/>
    <rect x="60.1" y="465.53" width="294.4" height="64"/>
  </g>
  <g class="oakMediumLight">
    <rect x="52.7" y="33" width="309.21" height="10.27"/>
    <rect x="71.9" y="455.26" width="270.81" height="10.27"/>
  </g>
</svg>
