<svg id="howieFridge" 
    xmlns="http://www.w3.org/2000/svg" viewBox="0 0 959.13 1763.52">
    <title>Howie fridge</title>
    <g class="base">
        <path d="M49.14,1647.5c0,9.5-.06,19,0,28.5.09,12.68-.85,25.33-1.25,38-.47,14.84-2.82,29.61-2.74,44.51,0,1.16-.55,2.46.89,4H896.64c3.32,0,6.72.42,10.51-2.68-.64-7,1.19-15.17-1-23.33a11.93,11.93,0,0,1,0-3c.23-28-1.75-56-1-84Z"/>
        <path d="M46.14,583.5v-64l859-3v84Z"/>
    </g>
    <g class="door">
        <path d="M35.64,1660c3.71,9.7,9.53,17.42,19.48,21.54a111.4,111.4,0,0,0,15,4.93c13,3.35,26.19,6,39.48,8.07,11.65,1.83,23.25,3.84,35,5.06,8.67.91,17.3,2.23,26,3,11.34,1,22.63,2.32,34,3.06,9,.58,18,1.41,27,2,11.84.76,23.67,1.32,35.5,2,16.17.95,32.35,1.2,48.51,2,57.48,2.75,115,2,172.5,1.6,19.15-.16,38.37.2,57.49-1,9.69-.59,19.41.18,29-.92,8.53-1,17.1.05,25.5-1,7.55-1,15-.25,22.52-.85,12.82-1,25.65-1.53,38.49-2.13,9.67-.45,19.32-1.4,29-1.95,13.35-.77,26.67-2,40-3,10.84-.81,21.66-2,32.5-2.94,10.21-.9,20.31-3,30.52-3.75,6.55-.47,13-1.56,19.48-2.24,9.54-1,19.06-2.32,28.5-4,11.55-2,23-4.51,34.51-7,10.81-2.3,21.73-5.15,31.31-10.33,7.59-4.1,12.23-12.25,14.17-21.14,2.75-12.65,5.66-25.28,7.92-38,1.82-10.25,2.39-20.71,4.21-31,1.69-9.47,1.86-19.1,3.72-28.55a101,101,0,0,0,1.11-11c.82-10,1.9-20,3-30,1.05-9.79,1.34-19.66,2.1-29.49.92-11.84,2.12-23.66,2.91-35.5.32-4.67.82-9.37.92-14,.49-22,2.5-44,3.36-66,.89-22.67,2-45.33,2.89-68,.89-22,1.33-44,2-66,1.23-37.83,1.32-75.67,2.05-113.5q1.17-61,.66-122c-.16-23.33-.64-46.66-.94-70-.3-23.67-1.1-47.34-2-71-.8-22-1.85-44-3-66-.8-15.34-1.83-30.68-3-46s-2.46-30.68-4-46c-1.42-13.86-2.94-27.73-5-41.5-3-19.73-6.44-39.47-12.66-58.43-3.74-11.42-12.28-19.07-24.75-21.64-12.07-2.5-24.27-3.73-36.5-5-11.82-1.27-23.65-2.12-35.5-3-10.83-.83-21.66-1.37-32.5-2-13.5-.82-27-1.33-40.5-2-17.83-.9-35.67-1.32-53.5-2-26.17-1-52.35-1.15-78.5-2.07-23.68-.84-47.35-.11-71-.84-57.49-1.77-115-1.06-172.5-.7-25.66.16-51.34.12-77,.93-16.84.53-33.69.24-50.5,1-21.17.91-42.36,1-63.5,2.06-8.84.45-17.69.32-26.5.89q-19.5,1.24-39,2.07c-10.33.45-20.7,1.14-31,2.05-12.18,1.08-24.42,1.7-36.55,3.63-4.74.75-9.76.68-14.44,1.77C29.25,577.48,22,587.66,19.16,601.5c-2.51,12.25-4.77,24.52-6.15,37C11.51,652,10,665.44,9,679c-.64,9.33-1.39,18.66-2,28-.84,12.83-1.35,25.67-2,38.5-1,18.67-1.25,37.34-2,56C.06,878,1.18,954.5,1.34,1031c0,26.66.15,53.35,1.06,80,.5,14.68-.28,29.4.93,44,1.1,13.37-.19,26.74,1,40,1.07,12-.15,24.08,1,36,1,10.21-.15,20.42,1,30.5,1,9.21-.14,18.43,1,27.5,1.09,8.71-.12,17.43,1,26,1.06,8.2-.1,16.44,1,24.5,1,7.54.24,15,.87,22.52,1.16,13.81,1.49,27.65,2.11,41.49.54,12,1.4,24,2,36,.57,11.5,1.42,23,2,34.5.52,9.83,1.36,19.66,2,29.5.85,13.51,1.94,27,3,40.5q1.34,16.76,2.93,33.5c1,10.7,3,21.31,3.83,32,1,12.77,3.49,25.32,5.17,38a34.57,34.57,0,0,0,2.52,8.48,4.49,4.49,0,0,1-.09,3.53Z"/>
        <path d="M458.14,1c-1.6.8-3.32.49-5,.49-16,0-32,0-48,0-21.84.07-43.66.93-65.5,1.19-15,.18-30,1.33-45,2-14.67.6-29.31,1.64-44,1.94-10.84.22-21.69,1-32.49,2-8.33.8-16.66,1.39-25,2-12.83,1-25.65,2.16-38.5,3-8.17.53-16.35,1.25-24.49,2q-16.53,1.59-33,3.59a147.6,147.6,0,0,0-21.94,3.84c-9.73,2.72-17.68,8.84-25,15.49C35.78,51.78,27,68.12,22.91,87.45c-2,9.68-4.15,19.38-6.17,29.07-1.67,8.06-2.4,16.32-3.61,24.48-.94,6.34-2.11,12.65-2.94,19-.48,3.64-.45,7.35-.77,11-.42,4.65-1.18,9.28-1.37,14-.5,12.19-1,24.41-2.9,36.5a8.34,8.34,0,0,0,0,1.5c.69,14.86-.94,29.66-1.18,44.5-.26,16-.37,32-.24,48,.15,18.34.59,36.68,1.55,55,.53,10,1.14,20,2.09,30,1,10.84,2.17,21.72,3.55,32.55,1.55,12.19,3.1,24.37,5.26,36.46,3.34,18.68,7.16,37.32,15.63,54.43,4.69,9.47,13.49,14.32,23.82,16.67,7.47,1.71,15.09,1.23,22.54,1.57,12,.56,24,1.05,36,1.6,10,.47,20.08-.18,30,.93,9.54,1.07,19.09-.14,28.5,1,9.87,1.16,19.71.23,29.52.91,24.48,1.68,49,1.32,73.49,2.21,15.68.56,31.38-.21,47,.85,26.51,1.79,53-.09,79.51,1,37.5,1.51,75,1.36,112.5.66,31-.58,62,.17,93-1,15.52-.59,31.07.41,46.5-.91,14.69-1.26,29.4.24,44-1,8.88-.77,17.77.16,26.5-1s17.76.11,26.5-1c9-1.15,18.1.11,27-1s18-.21,27-.89c12.82-1,25.71-1.11,38.47-2.26,7.84-.7,15.72-.51,23.57-1.29,7-.69,14.21-.46,20.93-2.51,18-5.48,30.59-16.75,33.88-35.91,2-11.59,4-23.22,5.34-35,1.42-12,2.85-24,3.95-36,.73-8,1-16.06,2.05-24,2-15.64,1.08-31.39,2.69-47,.8-7.77.08-15.65.56-23.49,1.2-19.65.77-39.34.42-59-.26-14.5-.55-29-1-43.5-.39-12-1.49-24-2-36-.49-12.35-1.68-24.69-2.94-37-1.43-13.86-2.92-27.73-5.05-41.49-2.22-14.41-4.85-28.77-8.07-43-1.43-6.29-5.2-12.05-9.42-17a89.82,89.82,0,0,0-37.3-25.86c-15.55-5.88-31.72-8.65-47.66-12.5C812,18.93,800,18.16,788.14,16.5c-7.46-1-15-1.56-22.49-2.12-13.33-1-26.66-2.1-40-3-8.5-.58-17-1.41-25.5-2-13.16-.91-26.33-1.41-39.5-2q-20.5-1-41-2c-14.5-.75-29-1.21-43.5-2-17.51-1-35,0-52.5-1-16.85-1-33.67-.56-50.51-.84-4.83-.08-9.67-.32-14.5-.49Z"/>
    </g>
    <g class="brass">
        <path d="M864.14,195.5a52,52,0,0,0,4.26-24c-.44-9.58-1.54-19.3-4.79-28.5-1.92-5.43-3.21-11-4.78-16.56-2.73-9.54-9.17-12.94-18.18-14-9.64-1.17-19.06.09-28.51,1.54-2.17.33-2.53,2-3,3.53-4.08,13.95-4.48,28.18-2.87,42.48.24,2.13.4,4.93,2.39,6.48,6.9,5.37,8.67,13.31,11,21a34.09,34.09,0,0,0,2.45,5Z"/>
        <path d="M823.14,925.5c-2,4.83-3.7,9.82-6.09,14.45-1.95,3.78-3.53,7.9-8.35,9.71-3.36,1.26-4.78,4.78-6.19,8.29-4.56,11.37-4.69,23.16-4.31,35,.1,3,.94,6,1.44,9,1.3,7.81,7.93,7.94,13.52,8.86,4.39.71,9,.17,13.48.13,8.92-.06,13.89-5.78,18.57-12.44,7.31-10.39,11.26-22.22,14.76-34.1,3.43-11.63,5.8-23.65,3.17-36Z"/>
        <path d="M867.14,457.5c5.92,15.54,3.22,30.76-1.43,46a94.26,94.26,0,0,1-8.24,18.39c-4.6,8.25-13.25,9.47-21.83,10.1-5.49.4-11-.39-16.54.8s-10.27-3-10.81-9.82c-.92-11.79-4-23.6-.66-35.49,1.28-4.59,3-8.38,7.94-10.66,6.16-2.85,8.75-8.73,9.57-15.34Z"/>
        <path d="M814.14,651.5c.69-5.4-2-9.54-5.57-12.92-5.46-5.25-5.41-12-5.84-18.59s.12-13-.16-19.49c-.21-5,2.19-9.51,2.26-14.5,0-2.28,3-3.22,5.3-4,7.19-2.53,14.67-2.43,22-1.78a54.09,54.09,0,0,1,14.58,3.15,13.23,13.23,0,0,1,8,7.64c6.44,14.33,8.55,29.64,9.77,45a28.34,28.34,0,0,1-3.31,15.48Z"/>
    </g>
    <g class="handle">
        <path d="M870.14,464.5c-4.41-2.5-9,.25-13.51-.43-9.77-1.47-19.81-.22-29.52-2.94-3-.84-3.26-2.42-2.94-4.63,2.62-17.74,2.86-35.62,3.53-53.5.51-13.68.43-27.37,2.21-41,.82-6.31-.76-12.94-.86-19.47-.19-12.34-1-24.66-1.37-37-.34-12.5-.82-25-.42-37.5.47-14.78-2.51-29.27-2.78-44-.17-9.85-1.57-19.71-3-29.48-.55-3.83-1.14-7.7-1.93-11.84a119,119,0,0,1,49.71.26c2.28,13,3,26.54,4.35,40.06,1,10.5,1.81,21,3.07,31.49.94,7.83.15,15.67.79,23.52.9,11,.88,22,1.12,33,.25,11.17.62,22.34.45,33.5-.2,13.34-.51,26.7-1.54,40-1.3,16.84-3.13,33.62-4.1,50.5-.43,7.65-.46,15.4-1.81,23-.34,1.86-1,3.67-1.48,5.5Z"/>
        <path d="M817.14,939.5c1.17-9.17,2.23-18.35,3.52-27.5a307,307,0,0,0,3.48-47.5c-.15-9.83-.41-19.67-.47-29.5,0-4.5.62-9,.42-13.5-.88-19.84-1.53-39.7-3.12-59.49-.81-10,.68-20-.55-30-1.63-13.37-.84-27-1.93-40.46-.77-9.5-.86-19-2.15-28.54-.69-5.06-3-10.17-1.2-15.47,4,0,8.1-.56,12,.11a100.48,100.48,0,0,0,31,.28c2.16-.3,5.52.36,6-3.39l-.5,3c2.8,6.37,3.06,13.3,3.88,20,1.59,13.12,2.26,26.34,3.7,39.48.79,7.17.9,14.4,1.13,21.52.52,15.48,1,31,1.31,46.49.25,12.5,1,25,.89,37.5-.06,10.84-.83,21.67-1.43,32.5-.57,10.34-1.18,20.68-2,31-1.66,20.86-1.74,41.88-6,62.49-.6,2.91-1.87,5.25-5.44,6.1-12.26,2.91-24.36,2.17-36.55-.45-1.56-.33-2.32-2-4-1.64Z"/>
    </g>
</svg>
