<svg class="presence" xmlns="http://www.w3.org/2000/svg" viewBox="0 0 387.24 705.95">
  <rect class="steelDark" x="21.92" y="130.95" width="344" height="574"/>
  <g class="porcelainDarkest">
    <path d="M369.1,239.37c-25.15-8.66-325.84-8.33-350.4,0-22.4,7.6-24.48,415.37-.8,426.4,41.2,19.2,308.4,20.8,348.4,1.2C391.2,654.77,393.5,247.77,369.1,239.37Z"/>
    <path d="M365.1,214.57c-25.15,8.66-317.84,8.33-342.4,0C.3,207,2.22,27.2,25.9,16.17,67.1-3,318.3-4.63,358.3,15,383.2,27.17,389.5,206.17,365.1,214.57Z"/>
  </g>
  <g class="mapleDark">
    <path d="M56.59,180.81c-3.88,1.61-13.38,2-20.73,1.49-4.64-19.31-4.64-94.44,0-113.75,7.35-.49,16.85-.12,20.73,1.48C52.22,81.79,52.22,169.05,56.59,180.81Z"/>
    <path d="M56.59,275.23c-3.88-1.6-13.38-2-20.73-1.48-4.64,19.31-4.64,94.44,0,113.75,7.35.48,16.85.12,20.73-1.49C52.22,374.25,52.22,287,56.59,275.23Z"/>
  </g>
  <g class="brassDark">
    <path d="M35.86,68.55c1.47-10.09,3.55-19,6.44-24.78,2-3.2,16.32-2.91,18.4,0s2.4,16,1.2,19.2a9.62,9.62,0,0,0-5.23,6.72c0,.11-.05.23-.08.34C52.71,68.43,43.21,68.06,35.86,68.55Z"/>
    <path d="M35.86,182.3c1.47,10.09,3.55,19,6.44,24.78,2,3.2,16.32,2.91,18.4,0s2.4-16,1.2-19.2a9.64,9.64,0,0,1-5.23-6.73c0-.11-.05-.22-.08-.34C52.71,182.42,43.21,182.78,35.86,182.3Z"/>
    <path d="M35.86,387.5c1.47,10.09,3.55,19,6.44,24.78,2,3.2,16.32,2.91,18.4,0s2.4-16,1.2-19.2a9.64,9.64,0,0,1-5.23-6.73c0-.11-.05-.22-.08-.34C52.71,387.62,43.21,388,35.86,387.5Z"/>
    <path d="M35.86,273.75c1.47-10.09,3.55-19,6.44-24.78,2-3.2,16.32-2.91,18.4,0s2.4,16,1.2,19.2a9.62,9.62,0,0,0-5.23,6.72c0,.11-.05.23-.08.34C52.71,273.63,43.21,273.26,35.86,273.75Z"/>
  </g>
</svg>
