<svg viewBox="0 0 1169.29 2038.56">
    <path class="back" d="M814.54,1016c-2.63-7.27-3.11-14.95-3.92-22.51-1.46-13.64-.47-27.34.1-41,.25-6-.72-12-.21-18,.77-9.16,1.36-18.34,2-27.5h-455c1.91,9.74,2.31,19.62,2.46,29.5.29,19.17.13,38.35-1.08,57.49-.48,7.71-2.22,15.34-3.38,23Z"/>
    <path class="cabinet" d="M44.54,1112c.66,12.66,1.54,25.32,2.16,38,.53,10.83,1.4,21.66,2,32.5.64,12.17,1.32,24.34,2.14,36.49.4,6,.37,12,.73,18,1.11,18,1.49,36,2.27,54,.35,8,.26,16,.75,24,1.7,27.47,1.46,55,2.26,82.49.44,15.34.14,30.68.76,46,1.76,43.82,1.27,87.67.68,131.49-.27,20.5.28,41-.92,61.5-.88,14.85-.5,29.67-.77,44.51-.24,13.5-.76,27-1.33,40.48-.41,9.85.28,19.75-.85,29.5-1.19,10.2-.16,20.38-.92,30.51-1.08,14.32-1.21,28.68-2,43q-1.73,30.24-3,60.5c-.59,13.67-1.33,27.34-2,41-.81,15.67-2.1,31.32-3,47-.57,10-1.38,20-2,30-.69,11.17-2,22.29-1.83,33.53,1.81,1.28,3.92,1,6,1h1073c5.8,0,7.24-1.9,6-8-.25-1.18-1-2.11-1-3.5-.19-9-.22-18-1-27-2.24-26-2.18-52-3.06-78-.56-16.5-1.13-33-2-49.5-1.05-19.83-.94-39.67-1.36-59.5q-.48-22.76-1-45.5c-1.64-68.66-.9-137.34-.94-206,0-28.67.56-57.34,1-86q.32-22.5,1-45,1.05-35.51,1.62-71c.37-25.51,1.57-51,3-76.5,1-19.33,1.66-38.65,2-58,.35-19.52,1.76-39,2.69-58.51.77-16.3,1.9-32.64,1.22-49-.08-1.83-.37-3.73.48-5.5Z"/>
    <g class="doorTop">
        <path d="M1028,1212.53c6.24-.09,7.54-5.41,8.72-9.58.83-2.93,1.68-6.59,0-10.54-13.22.86-26.75-1.15-40.23,1.09a18.48,18.48,0,0,1-3.49,0c-24.19-.63-48.32,1.5-72.51,1.2-4.24,0-8.64.83-13,.8-32.36-.21-64.65,2.08-97,2.17-15.16,0-30.33.93-45.5.83-42-.26-84,.66-126,1.29-43.84.66-87.67.73-131.5.54-21.33-.09-42.68.22-64-.39-29.34-.83-58.69.33-88-.6-19.17-.61-38.36-.19-57.5-1.4-10.68-.67-21.34-.14-32-.44-23-.64-46-1.06-69-2.08-18.33-.81-36.65-1.93-55-2-2.68,0-5.35-.45-8.17-.71-4.09,6.14-3.21,16.86,2.17,23.74,1.17,1.5,3.08,2.42,3.5,4.51Z"/>
        <path d="M1027,1448c6.71-3.92,9-9.87,9.23-17.5.09-3.49-1.27-3-3.23-3-8.85.08-17.67.23-26.52.8-11.78.76-23.66,0-35.48.23q-47.76,1.17-95.5,2.17c-15.17.33-30.33.62-45.5.79-15.84.17-31.68.15-47.5.53-42.84,1-85.67.23-128.51.41-10.16,0-20.33-.64-30.5-.91-1.14,0-2.45-.56-4,.87-.25,7.49.94,14.6,8.49,19.1Z"/>
        <path d="M540.54,1452c5.92-5.21,7.25-12.07,7-19.54-1-1.62-2.6-.94-4-.93-16.67.12-33.34.11-50,.51-43,1-86,.51-129,.32-25.33-.12-50.69-.28-76-1.09-16.84-.54-33.7.06-50.5-.93s-33.7,0-50.5-1-33.67-.57-50.5-.84c-1.35,0-2.75.31-4.22-1.17a26.58,26.58,0,0,0,5.72,22.68Z"/>
    </g>
    <g class="doorFront">
        <path d="M546,1445c-71.67,1.14-143.34.44-215,.37q-41.51,0-83-1.08c-18.67-.49-37.35-.22-56-.91-16.84-.62-33.66-.87-50.5-.91-3.17,0-6.26-1.87-10-.5.68,7.53-1.13,15.06,1,22.54a13.1,13.1,0,0,1,0,3.49c0,8.16-.36,16.35.06,24.49,1.12,21.33.16,42.7,1.09,64,1.73,39.84.52,79.67.77,119.51.31,50.16.44,100.33-.1,150.5-.22,19.82,0,39.71-1.08,59.48-1,16.87.21,33.71-.92,50.51-.54,8.18-.7,16.33-.82,24.51,0,1,0,2,0,3.63,7.5-.62,14.63-.51,21.45-1.48,5.18-.74,10.43-.67,15.59-1.3,6.21-.75,12.64-1,18.94-1.5,20.82-1.64,41.68-1.82,62.52-2.75,11-.49,22-.66,33-1,34.65-1,69.32-1.36,104-1.8,33.67-.42,67.34-1.15,101-.68,17.51.25,35,.11,52.51.34,2.26,0,4.66.46,5.69-.6,3.08-170.05.27-339.22.31-508.38Z"/>
        <path d="M1032.54,1441.53c-4,0-8,0-12,0-33.68-.44-67.34.89-101,1.35-19,.26-38-.46-57,.81-20.69,1.39-41.36.15-62,.89-57.83,2.08-115.67.39-173.5,1h-4.59c-1.44,1.54-.88,2.84-.88,4-.06,9,.17,18-.07,27-1.38,51.66-.07,103.35-1.17,155-1.41,66.18-1,132.35-.46,198.5.26,32.83-.12,65.68.83,98.5.21,7.49.81,15,.81,22.51,0,2.46,1.06,3.59,3.53,3.5,9.33-.32,18.68.62,28-.48a33.33,33.33,0,0,1,4,0c27.33,0,54.68-.6,82,.17,26.67.75,53.34.35,80,.93,24,.52,48,1.93,72,2.88,10.83.43,21.67.48,32.49,1.06,18.68,1,37.33,2.41,56,3.39,6,.31,12,.9,18,.93,9.52,0,19,.74,28.5,1.11a28.17,28.17,0,0,0,9.56-.77c-.68-5.7,1.05-11.73-1-17.72-.41-1.2,0-2.65,0-4,0-30.17.58-60.35-.12-90.5-1.72-74.5-.6-149-.73-223.5,0-16.49-.21-33,.45-49.5.51-12.68.39-25.34.35-38-.12-31.34,1.83-62.66,1-94,0-1.67,1.76-4.54-1.91-5Z"/>
        <path d="M133,1206.53c-3,2.77-1,6.34-1.33,9.52-.06.59.9,1.84.82,3-.71,11,.64,22,1.09,33,1,23.84,1.18,47.67.8,71.51-.21,13.34-1.56,26.66-2.37,40a9.39,9.39,0,0,0,.43,2h3.06c35,.38,70,.54,105,1.33,25.18.56,50.35-.22,75.5.72,56,2.11,112-.16,168,1.08q85,1.89,170,.61c58.51-.88,117,.25,175.5-1,25.68-.54,51.37.29,77-.92s51.36.06,77-1c16.68-.69,33.33-.67,50-.85a6.59,6.59,0,0,0,1.47-.31c1.85-3.12-.45-5.82-.55-8.67-1.26-35.16-1.29-70.34-.69-105.5.23-13.14.37-26.37,1.73-39.51.15-1.45.54-3.08-.72-5.1-11.07.84-22.43-1.18-33.74,1.09a11,11,0,0,1-2,0c-16.68.08-33.34.23-50,.85-31.48,1.17-63,1.09-94.49,2.28-23,.87-46,1-69,1.46-23.67.44-47.35-.1-71,.51-25,.65-50,.32-75,1-42,1.2-84,1.16-126,.73-51-.52-102-.68-153-1-18.16-.11-36.35-.38-54.5-1q-43.5-1.47-87-2.07c-9.48-.14-19.07,0-28.48-1-8.38-.86-16.77.12-25-1s-16.36-.49-24.52-.85c-2.52-.11-4.88-1.58-7.5-1Z"/>
    </g>
    <g class="doorHandle">
        <path d="M505,1705.53c1.64-15.4-3.77-27.07-21.53-29.32-18.08-2.29-28.93,7.32-31.05,25.81-1.18,10.28,6.15,23.25,16.59,25.42,5.39,1.12,10.82,1.81,16.51.7,12.39-2.42,15.81-12.27,19.48-22.11"/>
        <path d="M685,1676.53c-8.79,1.93-14.12,8.13-17.9,15.55-3.88,7.63-4.74,16.16-.91,23.85,3.76,7.53,10.79,11.79,19.31,13.1,20.55,3.15,35.28-16.81,31.59-35.52-1.73-8.77-7.85-12.38-15.07-15.54-5.43-2.38-10.9-2.33-16.52-1.44"/>
    </g>
    <path class="mirror" d="M250.17,47.53c-2,.43-3.53,774-4.13,826.38,2,0,594.61,1.52,685.5,2.12,0-1.94,2.5-827,2.5-827-85.88,0-631.35-1.19-683.37-1.5Z"/>
    <g class="reflection">
        <path d="M750.54,84c-.55,5-4.65,8-7.07,12-9.84,15.93-20.07,31.62-29.9,47.56-10.83,17.57-20.86,35.65-32.21,52.86-7.81,11.85-15.2,24-23.14,35.74-5.73,8.48-11.29,17.15-16.65,25.9-11.12,18.15-23.73,35.29-35.5,53-8.21,12.37-17,24.34-25.29,36.64-5.77,8.58-11.75,17.07-17.46,25.69-5.83,8.8-12.57,17.06-18.87,25.58-8,10.83-15.17,22.25-23.82,32.65-9.42,11.31-18.51,23-27,35-15.6,22.08-32.76,42.94-49.21,64.35-7.55,9.83-15.42,19.45-23.72,28.74-4.86,5.44-9,11.66-13.69,17.33-5.74,6.91-11.69,13.65-17.46,20.53-7.38,8.79-14.59,17.73-22,26.46-5.75,6.74-11.7,13.32-17.62,19.9-4.72,5.25-9.61,10.46-14.14,15.81-6,7-12,14-18.32,20.72-11.69,12.53-22.32,26-33.89,38.6-4.38,4.79-8.67,9.66-13,14.5l-5.5,118c32.83,0,65.66-.06,98.49.08,3.05,0,5.26-.75,7-3.09,3.35-4.48,7-8.81,10-13.52,13-20.41,26.49-40.49,40.35-60.26Q441,745.94,461,717c6.7-9.64,13.21-19.42,20-29,17.76-24.89,35.43-49.85,53.54-74.48C550.54,591.91,566.18,570,583,549c9.36-11.72,18-24,27.08-35.94,13.1-17.19,26.62-34,39.79-51.16,11.17-14.53,22.32-29.12,33.51-43.61,10.41-13.49,20.69-27.16,31.45-40.43,8.52-10.51,16.41-21.67,25-32.1,12.69-15.42,24-31.85,36.53-47.39,15.66-19.42,30.29-39.68,45.57-59.44,16-20.63,30.39-42.43,46.58-62.93,7.74-9.81,14.27-20.55,22.57-29.95a10.44,10.44,0,0,0,2.58-7.5c-.16-20.5-.08-41-.08-61.5Z"/>
        <path d="M886.54,376.53Q877.78,386.78,869,397c-5.36,6.32-10.45,12.87-16,19-10.74,11.66-20.85,23.85-31,36-9.38,11.26-19,22.29-28.45,33.53-11.09,13.27-21.67,27-33.11,39.91-14.91,16.88-27.64,35.49-42.76,52.21-8.51,9.41-15.41,20.26-23.18,30.35-6.39,8.29-12.62,16.73-19.12,24.9-10.89,13.68-21.63,27.48-31.69,41.73-11.86,16.78-24.4,33.05-36.12,49.92-8.91,12.83-17.31,26-26.07,39-6,8.92-12.48,17.57-18.43,26.54-9,13.57-17.46,27.49-26.67,40.89-3.92,5.71-7.55,11.88-13.37,16.09l-70.5,2.5c9.44-12.16,19.89-23.49,29.79-35.25,8.94-10.61,18.36-20.94,27.81-31.16,9.13-9.89,17.32-20.59,26.83-30.16,8.31-8.35,16.26-17.09,24-26,8.4-9.63,16.22-19.76,24.6-29.42,11.45-13.2,22.93-26.4,34.28-39.68,13.26-15.52,25-32.3,37.71-48.33,18.3-23.14,36.43-46.41,53.49-70.51,9-12.76,18-25.61,27.6-37.91,5.8-7.42,11.55-15,16.5-22.84,7.48-11.82,15.54-23.24,23.57-34.63,10.2-14.48,20.57-28.87,30.13-43.75,10.53-16.38,22.07-32.07,33-48.19,5.46-8.09,11-16.22,16.68-24.22,5.82-8.22,11.26-16.72,17.08-24.94,2.71-3.81,6.39-6.94,8-11.53Z"/>
    </g>
    <path class="frame" d="M587.54,918a17.47,17.47,0,0,1-3,.47c-62.52-.74-125,1-187.5,2-1.17,0-2.35-.11-3.5,0-18,2.06-36.05,1.14-54,2.92-7.46.74-15,.41-22.51.8-13.83.71-27.66,1.25-41.49,2.12-10.34.66-20.67,1.29-31,2.06-13.81,1-27.66,1.38-41.49,2.13-2,.11-4-.53-6.11.79-1.57,1-3.57-.13-3.43-2.83.17-3,.71-6.06.87-9,.81-14.69,2-29.34,3-44,.68-9.67,1.46-19.34,2-29,.64-11.84,1.18-23.67,2.12-35.5.64-8-.16-16,.84-24,1.1-8.89,0-18,1.08-27,1-7.92-.11-16,.93-24,1.15-8.89.39-18,1-27,1.21-18.45.08-37,1-55.49,1.19-24.63-.31-49.34,1.15-74,.31-5.13-.79-10.32-.87-15.49-.69-43,1.14-86-1-129-.85-17.14.62-34.32-.9-51.51-1.23-13.93.43-28-1-42-1.15-11.25.21-22.63-1-34s.09-22.63-1-34c-1.25-13.26.42-26.64-1-40-1.13-10.25.3-20.64-1-31-1.15-9.24.14-18.63-1-28-1.16-9.57.2-19.3-1-29s.2-19.3-1-29,.22-19.3-1-29c-1.15-9.24-.63-18.67-.86-28-.39-16.16-1.89-32.3-1.37-48.49.06-2,.56-4-.76-6.11a2.24,2.24,0,0,1,2.78-3.27c4.93,2,10.13,1.14,15.07,1.57Q230.78,5,251,6.4c8.68.59,17.34,1.52,26,2,11.51.59,23,1.15,34.5,2.11,6,.49,12,.58,18,.83,19.69.81,39.34,1.95,59,3.13,10.31.62,20.67.54,31,.91,31.82,1.15,63.66,1.75,95.5,2.13,57.83.68,115.66-.55,173.5-.95.5,0,1,0,1.49,0,25.64-1.7,51.33-2.11,77-2.95,16.86-.55,33.67-2,50.5-2.88,13.83-.74,27.67-1.34,41.5-2,11.68-.58,23.34-1.17,35-2,14.17-1,28.33-2.23,42.5-2.93,8.16-.4,16.28-1.88,24.5-1.22a6.42,6.42,0,0,0,2.53-.38c3.88-1.31,8.49-1.58,11.82-.23s.11,5.64.13,8.64c.11,16.53-1,33-1.83,49.51-.71,13.49-1,27-2.06,40.49-.65,8.47-.61,17-.87,25.5-.62,19.84-1.22,39.67-2.07,59.5-.7,16.33-1,32.68-2.07,49-.7,10.81-.57,21.68-.85,32.5-.67,26-1.45,52-2.08,78q-1,40-1,80c0,66-1.32,132,.77,198,.48,15.16.35,30.33.8,45.5.69,23,.78,46,2.14,69,.85,14.31,0,28.74,1.35,43,1,10.52.47,21,1.47,31.55,1.19,12.59,1.52,25.32,2.15,38,.55,11.18,1.37,22.34,1.93,33.51.62,12.17,1.9,24.3,2.22,36.49.06,2.52-.33,5,.85,7.56.89,1.93.14,3.82-2.88,3.47A163.29,163.29,0,0,0,957,929.6c-13.7-.16-27.34-1.34-41-1.92-14.84-.62-29.67-1.41-44.5-2-13.51-.56-27-1.4-40.5-2-14.51-.61-29-1.22-43.5-2.07-11-.64-22-.46-33-.88-32-1.23-64-1.7-96-2.14-21.82-.31-43.66-.05-65.49-.1-1.66,0-3.43.6-5-.46Zm295-80c-2-11.93-1.15-24-1.75-36-.95-19.14-1.37-38.32-2.17-57.49-1-24-1.6-48-2-72-.34-19-.48-38-.89-57-.85-39.65.29-79.33-.58-119-.3-13.66.08-27.34.25-41,.29-23,.51-46,1.12-69,.41-15.17.18-30.33.87-45.51.9-20.14.41-40.32,1-60.5.76-27.49.9-55,2-82.5.87-22.49,2-45,2.22-67.49.1-10.35,1.67-20.64,1-31A4.44,4.44,0,0,1,884,98v-2.5c-19.34.87-38.69,1.56-58,2.88-8.14.55-16.34.78-24.5,1-26.83.72-53.64,2-80.49,2.26-16.17.18-32.33.77-48.5.89-47.34.35-94.67,1.62-142,.87-19.5-.3-39-.4-58.5-1.1-15.33-.55-30.69-.28-46-1.36-9.84-.7-19.67-.27-29.51-.43-21.53-.36-43-1.65-64.5-2.9-7.82-.46-15.67-.56-23.5-1-7.32-.43-14.71.29-21.61-1.27-1.89,1-1.37,2.46-1.37,3.69.06,20.33.87,40.66,1.21,61q.5,29.25,2,58.49c.82,15.87-.21,31.72.87,47.51,1.43,21,0,42,1,63,.85,17.84.09,35.7,1,53.5.9,16.85.38,33.68.86,50.51,2.18,76.49.72,153,.73,229.5,0,21.31-.22,42.67-.87,64-.71,23.34-1.13,46.69-2.2,70-.59,12.83.68,25.77-1.72,38.58,2.37,2.18,5.45,1.87,8,1.29,4.36-1,8.69-.66,13-.86,20.84-1,41.67-2.15,62.51-2.93,10.83-.4,21.66-.52,32.5-.91,27.32-1,54.66-1,82-1.68,41.84-1,83.67-.13,125.5-.49,26.85-.23,53.68.76,80.5,1.25,30.5.56,61,1.32,91.5,2,17.65.41,35.35,1.47,53,2.47,12.12.69,24.3,1.7,36.49,1.3a59.36,59.36,0,0,1,6.5.47Z"/>
    <path class="counterTop" d="M1147.54,1059c6.8-7.2,13.6-14.39,20.75-21.94-7.19-6-13.94-12.6-21.71-18.13-11.3-8.05-23.15-15.49-32.49-26-1.4-1.57-2.91-1.57-4.55-1.43-13.82,1.24-27.72.17-41.49,1.23-10.2.79-20.4-.17-30.5.86-11.52,1.18-23,.19-34.51,1-17.49,1.23-35,1.49-52.5,1.92-22,.53-44,1-66,2.05-23,1.09-46,1.18-69,1.53-17.84.27-35.68-.08-53.5.51-12.68.42-25.34.13-38,.38-39,.74-78,1-117,1.15-12.16,0-24.35.62-36.5.24-22.51-.69-45,.19-67.5-.47-33.17-1-66.34-.49-99.5-1.05q-39.75-.67-79.5-.94c-17.17-.14-34.34-.93-51.5-1.43q-25-.75-50-1.51c-20.84-.65-41.67-1.36-62.51-2-18.16-.55-36.33-1-54.49-1.52-15.34-.46-30.7-.64-46-1.74-3.8-.28-5.55,1.73-7.42,3.36-11.5,10-23,20.1-35.05,29.45-5.12,4-9.74,8.57-14.8,13.07A262.06,262.06,0,0,0,19,1059.53Z"/>
    <path class="counterFront" d="M1165,1119c1.6-26-.71-52.08,2.57-77.9a4.09,4.09,0,0,0-5-1.5c-4.16,1.54-8.36.77-12.54.86-18.16.42-36.35.3-54.49,1.15-19.16.9-38.33,1.49-57.5,2-25,.69-50,1.3-75,2q-43,1.23-86,2c-24.34.43-48.67.78-73,.85-26.67.07-53.33,1-80,1.13-25.83.15-51.67.82-77.5.88-18.17,0-36.34.47-54.5.45-62-.09-124,0-186-.63-26-.28-52-.37-78-1-19.34-.46-38.68-.41-58-1-29.5-.83-59-1.39-88.5-2-23.34-.51-46.69-.93-70-2.06-22.5-1.09-45-1.47-67.52-2.55-14.12-.68-28.31-1.39-43-1.33,1.46,26.24,2.37,52.41,2.8,79,5.88.25,11.65.79,17.24.81,12.85.06,25.7.78,38.48,1.51,15.5.88,31,1,46.53,2.6,8.93.92,18,.77,27,.87,17,.19,34,1.15,51,1.37,22.51.3,45,1.41,67.5,2.14,10.5.34,21,.24,31.5.81,21,1.15,42,.37,63,1.13,15.17.56,30.35.24,45.5.91,34.83,1.54,69.68.18,104.5,1q68.51,1.62,137,.73c41-.53,82-.32,123-1,18.5-.33,37-.06,55.5-.94,16.84-.81,33.68-.29,50.5-.93,26.66-1,53.34-1.14,80-2q32.51-1.08,65-2c19.5-.57,39-1.38,58.5-2,16-.52,32-1.37,48-2,16.17-.62,32.31-1.9,48.5-1.82a2.48,2.48,0,0,0,2-1Z"/>
    <g class="stem">
        <path d="M455,1022.53c.66-.17,1.91-.35,1.91-.5-.11-3.83,1.65-7.32,2-11,1-10.28,3.7-20.28,5-30.5.71-5.47,1.94-10.91,1.53-16.49l25.5-1c-1.41,4.79.58,9.39,1.17,14,1.8,14,4.11,27.93,5.38,42,.12,1.37,1,2.67,1.45,4Z"/>
        <path d="M713,1022c-.73-2.82-2-5.37-2.23-8.49a88.08,88.08,0,0,0-.9-9.49c-2.25-12.62-3.58-25.35-5.37-38l-23.5.5c-3.54,2.71-2.64,7.08-3.28,10.54-2.44,13.14-6,26.09-7.28,39.45-.18,1.83-1.26,3.56-.94,5.51Z"/>
    </g>
    <g class="knob">
        <path d="M702.54,933c7,.17,6.15,6.37,7.74,10.74,5.31-2.13,10.22-4.13,15.72-4.95,6.67-1,10.47,1.93,14.09,6.67,2.7,3.54,1.11,7-.19,10-2.41,5.61-7.46,8.12-13.36,8a36.93,36.93,0,0,1-18.92-5.54,22.33,22.33,0,0,0-13.09-3.46c-4.48.08-9,.73-13.5-.41-2.25-.57-3.11,1.63-4.43,2.59-5.28,3.85-11,6.17-17.57,5.91-9.74-.38-15.17-6.43-13-14.5,1.2-4.47,7.37-8.85,13-9,4.7-.09,9.51-.53,13.55,2.9.58.49,1.95.07,2.95.07C678.3,931.19,686,930.09,697,931.1c1.71.16,3.34,1.26,5,1.93Z"/>
        <path d="M516,942c1.15,1.43,3.06,1.2,4.49,2,5.38,3.06,6.62,6.06,5.51,13-.63,3.85-6.19,8.32-11,9.56a19.4,19.4,0,0,1-18.93-4.65c-3.2-2.94-6.55-3.62-10.59-3.46-5.32.2-10.66,0-16,.06-4.39,0-8.24-.51-11.79,4.27-4.44,6-19.25,5.64-25.19.69a8.84,8.84,0,0,1-2.95-9c.85-4.08,3.46-6.75,7.39-8.59,8.52-4,16.4-3,24.48,2.67,2.37-9,8.52-13,17-12.47,7.29.43,14.84,1.45,16.44,11.59,6.16-5.41,13.58-4.65,20.57-5.71Z"/>
        <path d="M686,945c-7.06,2.09-10.67,7.11-12.62,14-.79,2.78.17,4.94,1.19,7,4.48,9,14.87,12.56,26.45,8.11,5.79-2.22,8.78-6.25,8.87-12.07.1-6.53-1.51-12.61-8.4-15.48-4.82-2-9.95-1.48-15-1.52Z"/>
        <path d="M470.54,950c-4,1.12-6.92,4-10,6.56-3.84,3.22-4.17,10.13-1.05,13.94,6.56,8,25.15,8.85,32.51,1.5,5.5-5.51,3.34-15.8-3.43-19.63-5.75-3.26-11.7-1.83-17.57-2.37Z"/>
    </g>
    <path class="faucet" d="M620,1023c-5.22-27.16-7.87-54.69-12-82l-52.5-.5c-2.57,4.68-1.94,10-2.9,15q-3.48,18.15-6,36.49c-1.34,9.61-2.06,19.32-3.07,29-.11,1-.33,2-.49,3Z"/>
    <path class="aerator" d="M552,920.53a45.86,45.86,0,0,0-.89,23.55c9.26,2.13,18.65,3.85,28.39,3,6.81-.6,13.65.16,20.53-.81,4.1-.58,7.39-3.07,11.46-3.37.69,0,1.57-1.56,1.52-2.87-.28-6.67.62-13.4-.79-20.5-5.38,0-10.55-.08-15.72,0-15,.27-30-.63-45,.46a4.43,4.43,0,0,1-1.49-.47Z"/>
    <path class="faucet" d="M552.54,928c3.86,1.54,8,1.13,12,1.56A181.73,181.73,0,0,0,612,928.05c3.88-.61,6.48-2.89,6.87-6.54a38.53,38.53,0,0,0-1.43-15c-3.12-10.6-12.21-13.87-21.46-16.45-15.21-4.25-28.88.34-42,7.84a11.43,11.43,0,0,0-5.37,6.62c-1.83,5.33-3.47,10.76-3.57,16.48-.1,6.08.22,6.37,7,7Z"/>
    <path class="sink" d="M857.54,1025.81c-15.49.4-31,1.07-46.49,2-10,.6-20,0-30,.77-15.33,1.19-30.72.08-46,1.18-14.7,1-29.39-.2-44,.87-24.83,1.82-49.7-.21-74.5,1-29.67,1.49-59.36,1.29-89,.58-23.18-.56-46.38.36-69.49-.92-18.2-1-36.39.24-54.5-1-12.86-.87-25.7-.14-38.51-.91-13.66-.82-27.33-1.38-41-2.09q-15-.78-30-1.77a4.79,4.79,0,0,1-3.49-1.54s-4.6,1.23-1.56-.12c5.88-2.61,12.1-1.33,18.09-2.1,10-1.3,20.29-.52,30.48-1.08,22-1.19,44-.23,66-1,38.31-1.24,76.67.37,115-1.13,12.64-.5,25.32-.3,38,.26,10.48.47,21-.27,31.49-.27,69.17.06,138.34-.7,207.51.76,19.49.42,39,1.41,58.5,1.39,6.6,0,13.32.59,20,.7a4.51,4.51,0,0,1,3.5,1.54A92.74,92.74,0,0,1,857.54,1025.81Z"/>
    <g class="photoBackground">
        <path d="M992.54,610c2,2.2.67,4.84.34,7-1.28,8.32-1.36,16.68-1.81,25-.56,10.5-1.4,21-1.31,31.5.14,18.23-2.7,36.29-2.24,54.5.27,10.66.55,21.33.46,32-.11,12.67-.7,25.33-.88,38-.05,3-1.32,3.64-4.05,4.1-6.72,1.14-13.37-.08-20-.28-11.69-.36-23.35-1.71-35-2.86-8.19-.81-16.32-2.57-24.51-2.81-10.11-.3-19.95-2.75-30-3.11-10.24-.36-20.22-3-30.49-3.13-3.85-.06-7.69-1.13-11.95-1.8-.4-8,.86-15.82,1.67-23.59.4-3.81,1.32-7.63,1.26-11.52-.26-19,1.69-38,2.75-57,.5-9-.09-18.08,1-27,1.08-9.33,2-18.64,2.31-28,.35-12.7,2.94-25.25,2.53-38-.15-4.67.58-4.71,5.49-4.1,10.46,1.31,21,2.47,31.49,3,6.26.29,12.26,1.94,18.46,2.51,4.78.43,9.84,1.11,14.55,1.32,15.51.69,30.91,3,46.49,2.92,10.33,0,20.66.79,31-.16,1.19-.11,1.5,1.13,2.51,1Z"/>
        <path d="M169.54,316.55q13.23-2.12,26.5-4c6.82-.95,13.72-1.37,20.48-2.58,18.72-3.38,37.82-3.08,56.57-6.64,9.08-1.72,18.59-2.15,27.94-2.85,11.22-.84,22.4-2,33.52-3.84,5.23-.85,10.69.4,16-.63,3.69-.72,7.32-1.77,11-2.45,3.24-.59,4.24-2.57,4-5.53-.48-5.67-.63-11.4-1.56-17-3.22-19.45-6.83-38.82-8.5-58.51-1-11.36-2.79-22.65-3.88-34C350.51,167.38,350,156.19,349,145c-.65-7.52-1.57-15-2.51-22.5a2.4,2.4,0,0,0-3.44-2c-12.73,5-26.11,7-39.51,9-14.15,2.11-28.2,4.9-42.5,6-8.36.66-16.65,2.52-25,2.78-8.86.28-17.67,1.29-26.47,1.93-10.17.75-20.3,1.94-30.52,2.28-12.84.44-25.67,1.22-38.5,2-4.13.24-5.37,2-5,6,1.52,17.31,4.87,34.36,7.61,51.48,2.66,16.67,6.21,33.19,7.94,50,1.58,15.32,3.12,30.63,3.93,46,.36,6.66.37,13.33.54,20C155.54,318,164,317.43,169.54,316.55Z"/>
    </g>
    <rect class="skinNordic" x="880.54" y="685.53" width="55" height="91"/>
    <path class="skinOverlapLine" d="M887.54,733c6.91,6,15,6.79,23.46,4.83,1.62-.38,3.31-1,5-1.33"/>
    <path class="debbieShirt" d="M938.54,749a52.22,52.22,0,0,0-13.5,1A15.37,15.37,0,0,0,917,754c-8.18,8-17.35,10.88-29,7.4-6-1.79-10.66-6.09-17.38-6.61-10.2-.78-19.25,1-27.51,6.79a55.52,55.52,0,0,0-11.12,10.38,98.41,98.41,0,0,0-.84,16.22c4.26.67,8.1,1.74,11.95,1.8,10.27.17,20.25,2.77,30.49,3.13,10.05.36,19.89,2.81,30,3.11,8.19.24,16.32,2,24.51,2.81,10.61,1,21.23,2.25,31.87,2.73a79.51,79.51,0,0,0,2.2-11.69c.72-8.08,1.46-16.14-1.12-24A24,24,0,0,0,938.54,749Z"/>
    <path class="debbieHat" d="M938,692c3.5-.34,7-.48,10.49-1,16.62-2.67,20.47-15.58,15.79-28.39-3.18-8.73-8.74-16.32-17.74-20.66a9.38,9.38,0,0,1-5.64-7.4c-.92-6.32-5.5-10.21-11-12.4-10.18-4.09-20.6-6.76-31-.13-3.35,2.15-5.86,5.16-8.43,8.06a20.82,20.82,0,0,1-10,6c-7.54,2.35-14.6,5.3-17.62,13.88-3.23,9.2-2.19,13.36,5.14,20a138.08,138.08,0,0,0,11,8.52c1.27.93,1.26,2.39,2,3.53Z"/>
    <path class="hairBlonde" d="M914,737c2.35,4.73,1.47,10.1,3.26,15.28,8.56-3.36,17.44-5.59,26.52-2.18,1.85-2.72.1-5.22-.4-7.58-3.12-14.78-1.48-29.67-1.34-44.52.07-7.5,1-15,.86-22.5a20.83,20.83,0,0,0-9.87-18c-10-6.54-20.75-10.56-32.48-6.78-11.1,3.59-19.07,10.65-21.25,23.29-1.29,7.52-4.53,14.68-6.79,22-2.68,8.74-3.95,17.82-6.91,26.53C861,736.21,855.47,749.5,850.53,763c-2.94,8.05-1.74,12.23,6.06,14.31,8,2.12,16.44,2.44,24.43-.85,4.5-1.86,6.43-5.49,6.58-10.45.3-10.33-.74-20.69.46-31,.18-1.55-.78-2.52-1.56-3.47A21.11,21.11,0,0,1,881.7,717c.38-8.34.28-16.77,2.25-25,.86-3.59,1.64-4.33,5.64-3.17A100,100,0,0,0,926,692.55a13.26,13.26,0,0,1,6.46.73c-.14,16.46-3.87,31.63-17,43.25Z"/>
    <path class="debbieHatOverlapLine" d="M943,639.53c-7.47-3.11-15.36-5.15-23.09-7.18a47.63,47.63,0,0,0-20.42-.85c-4.47.81-9,1.36-13.49,2"/>
    <path class="nkotbShirtDark" d="M245.55,295.53c0-21.84.19-43.67-.09-65.5-.17-12.84-5.92-22.81-17.47-28.92-1.5-.79-3.62-.53-5.46-.56-4-.07-8-.1-12,0-9.83.23-18,4.54-24.86,11.13-1.43,1.36-3.63,2.53-4.14,4.86l-2,1.5c-4.51,12.51-8.66,25.12-18.94,34.57-3.34,3.08-5.75,7.07-8.37,10.79,1.14,11.53,2.16,23.07,2.77,34.64.13,2.46.21,4.92.27,7.38L246,301C245.19,299.26,245.55,297.37,245.55,295.53Z"/>
    <g class="nkotbShirtLight">
        <path class="nkotbShirtLight" d="M325,291A10.72,10.72,0,0,1,329,285c7.95-6.81,10.33-15.24,9.35-25.95-1.54-16.85-11-29.21-20.25-42-7-9.57-16.49-15-27.49-18.62a14.28,14.28,0,0,0-4.54-.85c-5,0-10.06.45-15-.12-5.43-.63-8.92,1.85-12,5.62A50.72,50.72,0,0,0,249.82,221c-1,3.43-.18,6.42-.2,9.57-.16,20.5-.08,41-.08,61.5Z"/>
        <path class="nkotbShirtLight" d="M221.28,298a72.5,72.5,0,0,0-7.45-22.36c-3.8-7.48-8.76-14.5-15.75-19.69-6.56,2.71-13.6,4.56-19.38,8.34-5.26,3.43-9,9.14-12.08,14.79-4.05,7.5-7.51,15.31-11.45,22.85.19,5.37.23,10.74.37,16.11,0,0,8.48-.6,14-1.48q13.23-2.12,26.5-4c6.82-.95,13.72-1.37,20.48-2.58,1.92-.35,3.85-.65,5.78-.93C222,305.35,221.81,301.66,221.28,298Z"/>
    </g>
    <path class="nkotbShirtAverage" d="M208,311.16c2.84-.32,5.68-.69,8.48-1.19,18.72-3.38,37.82-3.08,56.57-6.64,1.63-.3,3.28-.56,4.94-.8-1-3.86-2.26-7.68-3.47-11.51-4-12.64-12.5-22.63-19.55-33.47-.86-1.32-2.27-2.53-4-2-4.25,1.39-8.69,1.2-13,1.9a5.19,5.19,0,0,0-3,2c-5.37,5.65-10.46,11.31-14.15,18.44a153.39,153.39,0,0,0-12.45,31.56C208.26,310.05,208.14,310.61,208,311.16Z"/>
    <path class="nkotbShirtDark" d="M273.09,303.33c9.08-1.72,18.59-2.15,27.94-2.85,10.11-.76,20.19-1.8,30.23-3.32-2.05-8.69-5.12-16.91-11.67-23.69-1.13-1.16-1.76-3-2.67-4.36-4.84-7.27-10.45-8.67-19.4-6.67-12.63,2.82-18.2,12.93-23.86,22.66a81.15,81.15,0,0,0-8.16,19.47Q269.31,304,273.09,303.33Z"/>
    <g class="skinAshkenazi">
        <path d="M292,171a54,54,0,0,0-16.5-1.46C271.6,170,268,168,264,168.43c-2,.2-3.44.3-4,2.59-2.52,9.91-2.89,19.72,2.09,29,3.1,5.76,8.89,7.88,14.94,7.88s9.71-4.28,12.51-9.33c4.88-8.78,5.6-17.95,3-27.51Z"/>
        <path d="M260.54,229c-.8-.57-1.07-2-2.5-1.5-7.62,2.85-15.72,4-23.58,5.63-4.92,1.05-6,3.8-5.71,6.85.57,5.87.18,11.68.33,17.52.13,5.38,8.07,12.15,13.94,11.38,6.21-.82,12.62-1.67,16.59-7.84a16.85,16.85,0,0,0,2.72-8.55c.17-7.49,1.23-15.13-1.29-22.49Z"/>
    </g>
    <g class="skinGallic">
        <path d="M279,256c1.41,10.47,6,15.2,15.49,16.53,8.06,1.13,14.86-5.38,17.51-12.53,1-2.67,1.93-5.36,3-8,1.38-3.36.11-6.79-.3-10-.33-2.5-4.34-2.51-6.74-3.47-7-2.76-14-5.23-21.52-8-3.62,3.06-5.08,7.41-4.94,12.42.12,4.37-1,7.5-2.51,12.5Z"/>
        <path d="M201.54,174c-1.67,6-2.47,12-.42,18,.85,2.49,1.33,5,2,7.49,1.86,6.37,13.83,12.76,19.76,9.82a20.46,20.46,0,0,0,11.42-16.8q.6-7,1.13-14a17.93,17.93,0,0,0-3.76-12.92L204,172.53Z"/>
        <path d="M173,226.53c-5,3.19-4.13,8.32-3.89,13a39.82,39.82,0,0,1-.05,8c-.9,6.14,3.59,13.73,9.44,16.49,4.59,2.16,13.18,1.23,16-2a35.27,35.27,0,0,0,8-19c.45-3.62.08-7.34.08-11.2-9.66-1.38-18.68-3.76-28-4.33-.35,0-.67-.63-1-1Z"/>
    </g>
    <g class="hairMediumBrown">
        <path d="M315,254.53c3.39-.42,2.78-3.54,3.42-5.53,4.75-14.87-1.6-27.68-19.41-29.61-10.78-1.17-21.58,10.82-18.26,22.14,3.72-.22,5-3.83,7.49-5.67,8.2,5.39,16.31,10.29,25.23,13.74,1.42.55,2.7.16,4,.43Z"/>
        <path d="M236.54,181c-2.39-.87-3.27-3.13-4.46-5a38.55,38.55,0,0,1-2.28-5l-31.26,10,1.5,2.5c-6.49-7.18-6.09-16.44.44-23.05,7.18-7.27,15.57-8.67,25.06-6.46,8.7,2,12.49,7.14,13.68,16,.71,5.27-1.89,9.35-2.68,14Z"/>
        <path d="M262.54,245c1.56-4.21,3.81-8,3.13-13-1.08-8-5.24-12.58-13.11-14.09-4.19-.81-8.12.08-12,.73-8.27,1.38-16,12.61-15.07,20.88.31,2.88,2.28,2.8,4,2.44,8.92-1.83,18.12-2.76,26.23-8.07,2.46,2.68,3.69,6.42,6.79,8.63Z"/>
    </g>
    <g class="hairDarkBrown">
        <path d="M179.54,229c5.42,3.36,11,6.4,16.09,10.38a20.68,20.68,0,0,0,11.05,4.38c4.47-7.36,1.85-21.49-5.15-26.75-.11-.08-.37.05-.49,0-3.61-2.37-21.31-3.68-25.51-2-5.94,2.36-7.22,8-9.48,13-1.75,3.88-2,7.76.37,11.66,6.09-1.51,9-6.55,12.62-10.66Z"/>
        <path d="M292,179.53c5.71-4.66,6.17-11.62,7.29-18,.47-2.65-1.84-5.59-4.81-6.4-11.59-3.12-23.24-4.1-35-.6-4.7,1.39-6.67,4.18-6,9,.47,3.48.56,7,1.07,10.49a6.17,6.17,0,0,0,4.19,5.12c4-1.46,4.2-6.28,7.38-8.52,7,2,14.15,3.23,21.75.26.45,3.79,3.22,6.55,4.14,10.15Z"/>
    </g>
</svg>
