<svg viewBox="0 0 2317.94 2206.55">
    <path class="case" d="M2283,2205.55H35C43.18,1651.92,28.08,694,1,20.81c586.13-25.5,1720.73-27.32,2315.94,0C2295.15,555.09,2274.76,1651.92,2283,2205.55Z"/>
    <rect class="displayBack" x="121.15" y="193.58" width="2056.3" height="1349.3"/>
    <g class="displayInnerDark">
        <path d="M2263.5,159.88q-60.83,46.26-121.24,93c-464.86-17-1468.4-16-1966.57,0q-60.43-46.77-121.24-93C614.48,138.4,1780.85,138.33,2263.5,159.88Z"/>
        <path d="M2233.06,1591.8Q2175.82,1543,2118.74,1494c-426.56-7.83-1433.75-2.48-1919.53,0q-57.09,49-114.33,97.81C630.17,1590,1739.47,1592.56,2233.06,1591.8Z"/>
    </g>
    <g class="displayInnerLight">
        <path d="M54.45,159.88q60.81,46.26,121.24,93Q196.81,873.25,199.21,1494q-57.09,49-114.33,97.81Q83.47,875.62,54.45,159.88Z"/>
        <path d="M2263.5,159.88q-60.83,46.26-121.24,93Q2121.14,873.25,2118.74,1494q57.09,49,114.32,97.81Q2234.49,875.62,2263.5,159.88Z"/>
    </g>
    <g class="land">
        <path d="M1661,447.58a41.37,41.37,0,0,0,6,2.95c13,4,16.63,12.64,16.55,26.06-.06,9.86,2.49,20.35,6.41,30s11.94,13.95,21,17c7.16,2.37,12.83-1,14-8,3.32-20,20.64-38.89,41-42.81,17.08-3.27,26.94-14.49,34.85-28.25,4.39-7.64.1-18.7-10-23.78-21.06-10.62-42.19-19.69-67.1-10.67-8.52,3.08-18.91,2.77-28.85,1.86-16-1.48-31.25,3-42.82,14.8-9.27,9.43-7.87,14.6,3.85,19.86,1.36.61,2.67,1.33,4,2Z"/>
        <path d="M981,948.58c-10.88,13-7,26.11,9,32.09,12.26,4.57,24,5.8,37.16,2.42a24,24,0,0,1,26,9.44c14.34,19.45,40.65,18.2,55-1.9,11.93-16.7,12.85-34.91,8.86-54-.45-2.12-1.43-4.61-3-5.92-8.14-6.74-12.25-16-17-25.06-6-11.37-20.1-12.91-27.79-2.92a21.91,21.91,0,0,1-7.14,5.9c-6.11,3.44-10.61,2.08-13-4-3.94-10-8.53-12.32-18-9s-16,10.79-22.72,17.28A114.56,114.56,0,0,0,987,940.58Z"/>
        <path d="M1611,484.58c9.07-9.55,6.24-26.22-5-32.09-12.31-6.45-25.75-7.89-39.07-9.78-8.53-1.21-20.65,7.73-23,15.87-1.67,5.86,8.16,14.19,15,11.87,14.67-5,26.06-.35,34.82,11.3,2.06,2.73,3.79,2.7,6.22,2.83,3.35.18,6.8-.6,10,1Z"/>
        <path d="M1105,689.58c-.65-7.75-8.7-13.41-17-10.86-11.74,3.61-21.32,10.52-24.9,22.9-2.75,9.52-6.66,17.61-16.11,22-1.2.56-1.87,2.22-3,2.89-5.32,3-6.78,8.74-4.62,12.86,3,5.73,9.46,3.64,14.63,2.14,8.1-2.35,14.27-7.17,18-14.94,5.8-12,11-24.29,25.9-28.27,3.16-.84,5.41-5.07,8.07-7.74"/>
        <path d="M545,589.58c8.8-3,11.94-7.93,12-19,.07-11.26-8.16-27.71-17.35-34.25-3.35,1.22-6.93,3.29-6.49,7.23,1.6,14.38-2.7,29.51,5.67,43.13,1.53,2.48,3.69,1.58,5.17,2.89Z"/>
        <path d="M1211,1004.58c3.16-2.09,6.11-4.92,10-1,2.94,2.9,2.06,5.79,1,9.06-3.46,10.72-13.2,16.14-20.24,23.79-.79.86-4.53,1.1-6.84-.75a7.18,7.18,0,0,1-1.69-8.91c3.22-5.77,7.73-10.81,11.73-16.15Z"/>
        <path d="M976,895.58c1.34-.33,3-.25,3.95-1.06,7.8-6.88,10-28.36,4.05-37.94-10.68,8.37-16.74,25.44-12.87,37,.34,1,2.54,1.38,3.87,2"/>
        <path d="M1071,629.58c-.62,18-11.45,31.2-21,45-2.12,3.05-5.6,3.22-8.93,4.2-9.78,2.86-15.88,13.62-11.74,22.68,3.37,7.39,1.76,13.51-3.55,16.73-5.53,3.35-12.86,2.77-17.78-3.57a34,34,0,0,0-3-3c3-7.74,1-16.44-5.08-18.79a7.55,7.55,0,0,0-8,1.66c-6.07,5.54-8.63,12.16-8.92,20.13-.43,12.15-3.46,23.8-8,35-4.48,10.93-13.62,18.29-22.08,25.86-3.94,3.51-10.71,4.17-10.8,11.17-.1,8.65-1,17.48,4.93,25,5.14,6.58,6.1,14,4,22-2.65,10.32-15.28,15.88-22.79,8.75-8.9-8.44-16.14-18.63-17.25-31.76-.61-7.21-2.43-13.9-10-17-8.09-3.27-15.26,0-20.8,5.17s-9.38,11.7-9.19,19.8l-4,6c0,2.11-1.89,2.8-3,4-11.88,12.14-21.05,10.8-28.81-5-4.4-9-9.49-17.72-11.35-27.89-.84-4.55-2.71-10-6-12.81-13.54-11.58-17.27-28.49-24.6-43.33-6.6-13.37-5.82-13.76-16.24-22.92-3.54,1.08-4,3.66-4.05,7-.41,14.65,3.43,27.64,13,39.07,8.51,10.14,9.94,19.78,5.08,26.93-6.75,9.94-21.92,15.92-33,13-15.31-4-22.82-14.47-23-32l-4-6c-.58-6.69-6.25-10.52-9.11-17.58-8.18,6.59-6,15.51-4.32,21.42C720,777.1,721.91,786,725,794.58l4,6a32.52,32.52,0,0,1,18.21,20.94c2.28,7.39,3.3,13.72-2.14,20.12-4,4.69-7.33,9.92-12.07,13.93-7.57,6.41-9.88,13.48-5.18,23.1,4.44,9.06,5,18.78-.82,27.91l-4,6c-2.87,7.06-8.06,12.6-13.17,17.84A22.82,22.82,0,0,0,703,949.58c.9,10.32-2.34,18.88-9.92,26.1-3.23,3.08-5.45,7.22-8.09,10.9-7.41,10.29-14.59,13.11-25.89,7.76-8.11-3.83-17.16-7.16-22.12-15.76l-6-8c-8.28-17.65-14.31-35.51-6-55,4.43-10.4,2.06-20.55-4.19-28.83-10.27-13.6-15.17-28.11-14-45.17.56-8.12-5.35-15.44-11.79-14.75-13,1.4-24.32-3.5-36-7.27-25.8-8.29-34.61-22.85-34.26-47a99.56,99.56,0,0,1,10.71-43.77c9.29-18.29,21.19-35.78,46.55-32.25a8.31,8.31,0,0,0,4,0c12.1-4.75,23.08-.31,34,4.1,8.77,3.54,17.17,8.24,27.07,3.07,4.33-2.27,9.25-1.65,14-.13,11.42,3.71,21.47,9.87,31,17,3.93,2.95,8.67,3.21,10.68-1.14,1.8-3.89,5.12-5.74,7.33-8.84,5.69-8,3.3-13.89-6-16.14-5.66-1.37-11-3.47-17-4.38-5.56-.86-10.89-5.7-8.08-13.5l4-4c4-2,6.87-6.27,12-6,8.21,6.88,22.57,8.42,28,3q9.67-9.65-4.07-25.08c-4.8,1.92-6.39,8.14-10.89,9.12-4.54-.92-6.82-3.53-9-6.07-6.34-7.39-11-7.2-16,1.05-2.45,4-3.57,8.56-5.19,12.93-2.36,6.4-6,13.33-13.82,12.73s-11.43-7.84-12.67-14.74c-.57-3.11-2.29-5.67-2.6-8.92-.45-4.88-4.44-8.23-8.84-9.8-2.29-.82-5.84-1.46-7.94,1.77-1.77,2.72-1.16,4.78,1,7.07s3.91,5.41,6.09,7.92c5.32,6.08,3.7,11.53-1,17.05-3,3.53-7.36,4.65-11,7-3,1.94-6.57,3-8.83.74s-1.81-5.69.66-8.9c3.75-4.85,2.61-9.92-1.91-13.85-3.92-3.41-6.9-7.65-11.86-10.24-9.7-5.08-22.31.62-24.24,11.17-1.4,7.65-4.59,15.21-11,19.79-4.47,3.18-10.1,1.13-14.86-1.71-.74-.44-2,0-3-.07-13-1.54-17.75-6.9-17-19,.84-13.48,7.63-21.35,19-20.86,7.18.32,10.51-1.87,13.45-9,2.85-6.88.38-11.51-2.69-16-2-2.9-2.72-6.63-1.54-8,8.21-9.35,17-18.32,28.83-23.08,11.23-4.54,23.5-6.7,32.54-14.81,3.06-.6,4.3,1.86,6.38,2.78,13.13,5.83,22.47,1.77,25.82-12.13.72-3,2.49-3.71,4.24-4.91,15.47-10.64,18.75-27.35,21.9-44.05a9.87,9.87,0,0,0-5.06-10.72c-3.44-1.71-7.22,1.3-9.78,3.82a37.76,37.76,0,0,0-11.19,19.89A54.2,54.2,0,0,1,645,547.63c-3.92,4.59-7.94,3.48-12,.89-2.61-1.66-3.13-5.38-6-6.93-5.14,4.17-8.78,9.95-15,13.08-5.18,2.62-8.28.08-8.84-4.12-1.21-9.18-1.9-19.79,4.13-26.67,12.12-13.83,19-32.29,36.61-41.4,9.8-5.06,18-13,29.05-15.9l8-3c8-3.66,15.81-7.88,24.07-10.81,6-2.13,12-3.34,19.13-.71,4.75,1.76,9.43,2.2,10.67,7.55,1.19,5.15-1.16,8.94-5.74,12.15-4,2.81-8.81,6.43-5.74,11.93,15.06,5.59,29,1.19,41.41-4.54,20.78-9.63,41.37-19.94,61.22-31.55,18-10.54,36.87-18.42,57.93-21.41,9.45-1.35,19.36.91,27.9-2.05,12.79-4.42,23.52-2.29,34.13,4.47,16.91,10.76,35.72,13.8,55,11.72,21.53-2.32,39.83,1.82,56.25,17,13.66,12.63,31,17.49,49.76,14.15,11.73-2.09,22.75.08,32.92,5.27s19.86,10.53,31.07,12.94a20.43,20.43,0,0,1,9.21,4.66c7.66,6.51,3.72,14.76,4.81,22.22l-4,6c-6.89,15.89-19.1,26-35,31.93a10.3,10.3,0,0,1-5,0c-12.4-2-18.52.88-19.76,12.06-1.8,16.32-10.62,27.79-21.5,38.18-14.72-4.14-22-20.55-16.82-33.24a45.27,45.27,0,0,0,3.3-18c-.07-5.27-3-5.92-6.18-4.86-10.41,3.42-30.32,33.25-28.81,43.83.7,4.89,3.42,9.47,7.59,13.22,3.25,2.92,8.53,5,8.17,10.81Z"/>
        <path d="M1237,973.58c-6.23,1.93-14.54-.7-17.14,9-1.67,6.19-.46,8,6.14,8.26,7.29.24,12.79-1.09,16-8.19,2.15-4.67,1-7.19-4-8"/>
        <path d="M1507,394.58c-7-1.08-11.4,5.79-18,6l-8,4c-24.31,2.64-43.51,13.45-57.39,35,4.42,3.07,7.62,5.67,12.39,4,7.32-2.61,14.5-.49,20.91,2.23,10.61,4.51,20.88,6.38,32.12,2.86,9.74-3.05,20-1.8,30-2.09l6-4c7.07-5.15,14.32-11.13,23-11.71,16.69-1.1,32.18-8.5,49-8.29l6-4c7.72-2.29,13.81-7.66,20.91-11.19,6.48-3.23,14.57-1.19,20.58-7.29-5.27-7.51-12.38-8.61-21.37-10.18-18.68-3.26-37.9,3-56.29-4.94-6-2.58-13.84.45-20.85,1.41-9.67,1.31-19.11,4.34-29,4.19Z"/>
        <path d="M1639,524.58c8.67,10.15,11,22,10.07,35-.93,12.58-5.61,16.44-18.07,14-7.31-1.44-16,4.88-15.84,12,.08,2.78.78,5,5.89,4.47,7.39-.76,10.21,4.78,10.19,12.53,0,8.11-4.63,8.5-10.23,7.92s-9.15,1.88-7.72,7c1.54,5.56-1.15,9-3.28,13.09-1,2-2.64,3.91-2.91,6-2.74,21.56-15,34.91-35.07,42.07-4.82,1.72-6.74,6.26-8,10.92l-2,2c-3.08,5.55,1.44,10.56,1.13,16-.37,6.81-6,14.37-12.13,15-7.24.74-10.31-2.42-12-12-1.22-6.8-6.35-11.63-12-12.51-5.26-.81-11.94,1.27-13.94,8.5-2.36,8.55-6,16.74-2.13,26.06,3.33,8,11.24,14.36,18.14,12.94,13.46-2.77,17.93-.5,23.94,13,3.71,8.34,8.79,16,16.24,20.69,9.78,6.08,20.32,12.77,32.86,5.35,6.63-3.93,14.29-3.4,20.88-.84a308.61,308.61,0,0,1,37,17c12.8,7,24.5,15.91,29,30.86,1.88,6.24,6.41,10.92,11.24,12.61,20.43,7.18,28.88,20,22.89,41.36a4.08,4.08,0,0,0,0,1l-4,8c-.82,7.4-6,12.35-10,18l-9,9a61.64,61.64,0,0,0-5.31,15.94c-2.25,10.56-6.35,20.73-9.69,31.06l-4,6c-5.81,10.24-13.38,19-22,27-12.71,11.84-24.55,24.53-30.84,41-2.46,6.44-8.17,13.85,1.65,20.18,2.64,1.7,2.13,6.68.07,9.69-3.09,4.53-15.19,5.15-20,2.14-14.63-9.25-16.26-24.36-16.65-39.09-.43-16,4.61-31.47,8.38-47.06,3.69-15.24,7.73-30.72,3.51-47-3.75-14.43-6.58-28.72-20.09-38.09-7-4.82-9.38-12.86-12.42-20.73-4.84-12.5-6-25.1-5.68-38.13l4-8a50.11,50.11,0,0,0,.19-28.05c-1.49-5.23-3.76-8.74-9.17-7.82-12.4,2.09-19.55-5.18-24.85-14.23-7.45-12.71-18.75-16-32.17-15.92-13.79.06-24.58-4.55-31.28-17.84-2.62-5.19-5.12-11-9.72-15.14l-2-2c-13.92-10.92-27-22.52-33-40-5.18-15.27-11.38-30.35-10-47,.69-8.22-2.49-15.48-4.88-23-1.71-5.41-6.95-9-7.15-15l-4-4c0-2.86-2.78-4.08-4.19-5.84-8.53-10.69-12-24.22-20-35-5.57-7.55-9.5-17.16-20.77-19.35-6.11-1.18-12.17-3.57-18.17-5.35s-13.18-1.84-18.12,5.39c-2.72,4-4.7,8.37-7.53,12.33-7.1,9.91-16.35,15.34-28.22,15.7-9,.28-12.07-3.37-9.79-11.8,1.53-5.63-1.45-8.75-4.3-12-4.67-5.29-9.84-10.15-14.93-15a13,13,0,0,1-3.89-13c1.22-5,2.38-10.07,3.73-15.07,2.54-9.41,6.7-18.83,2.34-29-.86-2-1.31-6,1.88-6.8,8.76-2.19,15.23-10,24-10.85,10.54-1.06,21.31-4.94,32-.29l8,4c6,.72,10.88,4.35,15.94,7.12,11.54,6.33,21.87,5.36,34.26.36,20.8-8.39,42.49-9.9,62.84,3.47a38.47,38.47,0,0,0,36.7,3.45c10-4.36,19.13-7.61,30.26-7.73,16.71-.17,27.66,13.41,20.86,28.27a10.67,10.67,0,0,0-.81,5.06c.39,14.44,14.29,27.74,29,28.07,3,.07,6.12-1,9.14,1.78a9.34,9.34,0,0,0,11.78,1c4.69-3.29,4.72-8.92,4-13.86-1.85-12,4.29-19.85,16.11-21.13,13.53-1.47,23.45,5.13,33,13.11Z"/>
        <path d="M929,886.58c3.11.46,4,5.34,8,4l8,6c.28,12.83.37,11.9-12,12.1-8,.14-13.71-2.59-17-10.08-2.12-4.76-4.62-9.35-7-14l-4-4c-3.59-5-2.21-9.35,2.06-12.93a5.84,5.84,0,0,1,7.86,0c2.26,2,5.1,3.71,6.08,6.91Z"/>
        <path d="M516,557.58c-11.4,10.38-11.73,12.68-3,21,9.57-8.08,9.95-10.08,4-21Z"/>
    </g>
    <path class="routes" d="M1269,904.58c-.2,4.23,1.65,7.71,3.76,11a385.47,385.47,0,0,1,37.24-26l15-11c-5.32,3.62-11.42,2.43-17,1.82-17.38-1.89-34.83-3.42-52.29-8.15.73,7.26,5.71,10.61,8.27,15.33l-7,3c-16.41.37-32.57,3.53-49,4.37-9.31.47-18.92,1.44-28,1-10.36-.47-20.65,2.06-31.07-.21-8.8-1.92-18-1.94-27-3.23-36.7-5.27-73.75-6.69-108.3-24.39-32.87-16.84-55.93-40.66-68.53-74.63-9-24.14-.47-44.78,12.86-54.88,27.51-20.83,44.77-49,57.92-80.07,7.28-17.22,12.83-35.15,21-52l4-6c16-28.88,39.86-49.37,69-63.94,25.47-12.72,53.34-17.64,81-21.68a411.3,411.3,0,0,1,72-4.47c41.89,1.29,81.93,7.62,114,38.09l4,4c25.75,25.8,44.54,56.25,60,89,11,23.15,16.85,48.32,28.9,71.06,16.85,31.8,39.36,58,71,76.08,10.41,5.93,20.06,13.22,30.06,19.88l11,11c25.46,29.82,41,64,46.07,103,1.61,12.32,4.39,24.51,2.14,37.52-5-2.19-11.16-2.08-11.21-9.51l1,6c-1.56,11.56,1.94,37.81,6.32,45.56,11.8-12.93,21.33-26.94,26.68-43.56l-3,3c-8.09,3.06-9.22-1.07-9.1-8,.36-20.75.47-41.48-3.78-62-3.28-15.82-11.06-29.88-16.12-45l-6-10-4-8-13-17c-1.7-2.29-5.38-2.61-6-6l-5-5c-15.74-13.42-31.62-26.64-48.91-38.13a72.66,72.66,0,0,1-16.92-15c-16.18-20.61-30.61-42.52-38-67.93-5.79-20-13.91-39.14-21-59.93,15-.22,28.71,4.62,42.18,2.87,1.88,4.3-1.52,7-.36,10.12l-3,4c.19-1.81,1.51-2.26,3-3.09,11-6.3,23.75-8.34,35-13.91l1-3c-10.78-7.6-23.69-11.57-34.15-19.81-.5-.4-3.18-2.82-4.85-.19l-3-4q2.51,6.51,5,13l4,3c-1.83.5-3-1.11-5-1.27-25.72-2.09-50.84-7-66.75-29.91-9.15-13.16-18.46-26-29.27-37.82l-8-8a140.74,140.74,0,0,0-56-33.9c-21.78-7.07-43.86-12.57-66.94-14.42-16-1.28-32-2.71-48-2.68l-6,2c-37.14,2.27-73.48,8.37-109.07,19.77-26.89,8.62-50.12,22.26-70,42.19-22.19,22.29-38.56,48.33-51,77-7.69,17.81-14.4,36.06-24,53l-4,6c-5.88,16-20.16,24.59-32.29,34.65A59.27,59.27,0,0,0,918,729.58l-2,2c-7.35,10.39-17.62,16.83-29,22.06-13.66,6.3-31.16-1.88-44-19.07-8.79-11.75-17.62-23.94-32.09-28.73-11.45-3.8-15.45-12.73-17.67-22.31A92.18,92.18,0,0,0,761.6,633c-24.32-20.13-52.87-31.71-85.63-30.67-12.45.4-24,4.37-36.27,6.55-1.19-4-1.11-7.66,1.11-13.54-18.7,5-33.47,14.76-49.16,23a23.88,23.88,0,0,0,7.22,4.48c10.15,3.66,20.63,5.56,31,8.15,3.68.92,7.43,2.34,9.92.34,3.33-2.68,0-6.48-1.15-9.88,19.77-5.25,39.11-5.14,58.34,1.11l8,4c20.59,11.88,36.5,27.62,40.9,52,2.71,15.06-2.19,28.28-13,38.93-21.17,21-46.79,33.44-75.94,39.08-18.21,3.53-36,3.39-53-5l-2-2c-3.2-4.11,2.19-6.49,2-10.45-8.11-.87-15.3,3.19-23,4.48-9.35,1.57-18.67,3.31-28,5l22,12c6.93,3,11.5,9.36,18.08,13,2.86-1.72,1.67-4.59,1.92-7l8,2c15.83,7.58,32.52,11.45,50,13.19,13.25,1.32,26.16,1.22,40.93-3-11.34,37.1-17.18,74.06-22.33,111.24L663,887.58l-3-2c6.66,16.17,9.37,33.52,14.38,52.54,8.54-18.42,19-33,26.94-49.18-3.41-.76-5.11-.18-6.32,1.64-2-1.46-4,2.94-7.21-1.76,9.53-42.8,23-85.47,47.21-124.24l7-9c1.16-3.91,5.84-5.09,7-9l6-6c.63-4,4.85-3.74,7.17-5.81,7.61-6.82,16.28-8,25.87-3.27,12.79,6.33,21.94,16.57,31,27.08l4,4c5.31,6,9.84,12.74,16,18l4,4c9.39,7.48,20.66,10.34,32,13,21.27,5,37.42,17.41,51.11,33.92,5.26,6.34,9.07,13.53,13.89,20.09l2,2,12,16,2,2c3.58,5.07,8.45,9.19,11,15l10,10c6.47,6.84,15.14,10.4,23.08,14.86,14.52,8.17,27.69,17.44,34.07,33.95-3.52,3.31-9.49-.54-14.75,2.61,4.5,3.22,8.71,6.39,13.6,8.58l6,4c10.55,5.28,21.2,10.37,31,17l7,7c.5-1.83-1.08-3.08-1.28-5-2.08-19.05-6.12-37.67-14.72-55l-1,3c-3,3-2.91,9.09-10,9-6.93-11.93-13.28-25-24.25-35.43,37.08,5.65,73.89,11,111.26,9.44l20,2c21.39,1.18,42.61-3.34,64-2l4-2h12Z"/>
    <path class="axeHandle" d="M1879,518.58c-6-6.84-3.93-15.24-3.85-23,.16-17.37,15.87-26.54,27.85-27,3.34-.12,7-.68,8,4l4,6c3,13,9.86,24.75,12,38l16,48c8,36.79,17.33,73.24,29.14,109,16.42,49.64,33.43,99.08,48.9,149,1.25,4,4.79,7.29,4,12l4,8c7.23,24.35,18.49,47,29.14,69.94,18.76,40.34,36,81.34,54,122,10.07,22.75,20.71,45.29,32.89,67,4.43,7.91,6.42,16.8,10.15,24.93,2.6,5.67-1,9.66-2.37,14-4,12.9-25.51,28-38.8,28.06-12.92.07-24.53-8.61-29-22-9.73-29.31-18.29-59-28.85-88-9.4-25.85-20.26-51.22-27.18-77.94l-4-6c-5.06-12.18-8.33-25-13.83-37.07-6.69-14.69-12.76-29.72-18.05-45-15.42-44.42-33.52-87.83-47.66-132.79-11-35.07-19.2-70.73-28.35-106.19-6.58-25.49-15.93-50-24.11-75Z"/>
    <path class="axeBlade" d="M1829,608.58c-4.91-10.32-9.54-20.81-11.91-32-3.84-18.09-4-36,4.91-53l2-2c14.46-7.49,30.66-7.43,46-8.52,28.38-2,57-.74,84.94,5.63,12.91,2.95,19.45,16,16,29.89v4c-4,12.67-15.49,15.48-26,17.79-37.09,8.1-72.87,19.24-105,40.18a57.77,57.77,0,0,1-6,3Z"/>
    <g class="axeTwine">
        <path d="M1922,566.58l-20-16-6-6c-7.23-4.77-11.84-12.16-18-18l-6-6c.26-1.62-1.29-2-2-3-2.08-2.82-5.16-5.62-1-9,3.32-2.65,5.59-.4,8,1.92,4.94,4.73,9.19,10.2,15,14l7,7c15.29,16.53,34.62,28.58,50.63,43.37-2.63,6.79-6.56,3.27-9.63,3.63Z"/>
        <path d="M1933,508.58c-9.84,5.06-16.63,13.28-23,22-11.13,15.17-18.71,32.3-26.68,49.16-1.41,3-4.4,9.42,1.78,11.63,5.13,1.84,7.85-2.11,10-6.73,10.85-23.1,23.23-45.25,40.81-64.13,3.81-4.08,6.65-9.23-1.91-11.92"/>
    </g>
    <path class="pot" d="M1731,1324.58c-9.24,1.21-18.06-1.81-27-3.24-9.44-1.51-17.86-.3-26,4.24l-5,7c-2.43,12,1.35,22.5,6.84,33.09,7.26,14,.55,26.94-4.76,39.94-9.47,23.22-15,47-7.1,72a61.41,61.41,0,0,0,20,30l5,5c11,7.93,21.87,15.83,34,22.07,35.49,18.33,74,23.87,113,25.65,48.25,2.2,95.21-6.47,141-21.71,41.57-13.84,69-39.82,76.28-85,3.24-20.2,1.06-39-9.55-55.88-9.22-14.69-13-28.19-1.9-43.29a27.36,27.36,0,0,0,3-5.93c5.59-14.57-3-32.37-16.89-33.71-10.89-1-22.29-2.21-32.93.94-26.18,7.74-53.22,10.3-80.08,12.4-28.52,2.23-57.31,1.62-86,1.28-30.67-.36-61.33-1.86-92-2.86Z"/>
    <path class="potOverlapLine" d="M2013,1328.58c3.68.22,7.46-.68,11,1l2,2c5.54,11.37-3.07,16.3-10,22l-2,2c-22.85,17.15-49.43,24.37-77,29-29.13,4.9-58.5,7.59-88,6.81-28.42-.74-56.72-3.9-85-6.85-3-.32-5.68-2.75-9-2l-34-12c-8.92-4.16-14.26-10.8-14-21,.26-9,8-9,14-11"/>
    <g class="vaseLeg">
        <path d="M1276,1482.58c-.27,13.2-6.51,23.24-15.92,32.09-10,9.45-8.57,20.52,4,25.72,19.33,8,44.13,6.77,54.92-12.81,4.69-8.5,4.12-17.78,4-27Z"/>
        <path d="M1487,1482.58c-1.34,11.56,1.87,21.6,10,30l4,4c.34,0,.87-.13,1,0,11.62,17.44,5.06,29.88-17,31.94-9.25.87-18.27.1-26-6l-8-8c-7.85-11-10.77-22.87-6-36Z"/>
    </g>
    <path class="vase" d="M1405,1166.58c-28.68.09-57.38-.64-86,2l-4,2c-20.55.68-40.43,5.3-59.94,11.19-10.93,3.3-14.86,17.4-10.87,28.75,2.4,6.83,6.54,13,10.58,19.21,10.59,16.25,18.27,33.59,12.26,53.86-3.51,11.82-12.11,20.61-18.12,30.94-18.93,32.5-23.45,66.27-14.45,103.18,4.94,20.25,11.75,38.7,24.59,54.83,14.71,18.47,34.7,29.21,57,34.79a236.91,236.91,0,0,0,70.92,7.08c32.82-1.86,64.75-8.88,94.9-22.07,12.5-5.47,21.77-15.92,30.11-26.76l2-2c19.58-21.95,27.27-48.37,26.79-77-.54-33-10.74-63.08-31.8-89-1.93-2.39-4.08-4.6-6-7-13.69-17.54-14.35-32.63-3.1-52,6.2-10.7,14.27-20.39,17.18-32.93,2.69-11.6-1-19.54-12.09-24a123.84,123.84,0,0,0-37-8.67c-17.67-1.35-35.16-5-53-4.32Z"/>
    <path class="vaseBand" d="M1540.76,1386.59a150.72,150.72,0,0,0-6-40.2c-22.91,5.74-46.39,7.17-69.81,9.39-17,1.61-34.06,1.35-51,2.24a751.79,751.79,0,0,1-84-.29c-21.75-1.31-43.37-3.81-65-6.37-10-1.19-20.21-2.13-30.16-4.23A130.12,130.12,0,0,0,1231,1399a559.47,559.47,0,0,0,57.91,10,748.42,748.42,0,0,0,95,5.59,815.81,815.81,0,0,0,110-7.66c15.16-2.16,29.84-6.28,44.93-8.46a8.44,8.44,0,0,0,1.55-.41Q1540.86,1392.39,1540.76,1386.59Z"/>
    <path class="vaseOverlapLine" d="M1492,1197.58c-6.94,11.39-19.39,11-30,12.74-36.37,6-73.12,7.68-110,6.19-23.51-.94-47.21-1-70-8.13-5.6-1.74-14.06-2-13.06-11.8"/>
    <path class="pitcher" d="M749,1188.58c18.55-6.2,27.07-1.4,31.89,9.05,10.4,22.55,5.1,48.36-9.94,65.91-9.44,11-22.44,17.6-33.59,26.6-27.61-43.28-22.21-77.42,7.64-99.56Zm-32,292c4.92,8.28,8.31,17.57,16,24l4,4c13.77,13.45,27.58,26.84,46,34l12,6c3.08-1,5.25,1.58,7.95,2.22,25.42,6,51.42,4.11,77.08,5.28a342.13,342.13,0,0,0,77-5.34c19.15-3.49,37.91-7.1,52-22.16l6-6c6.06-2.9,7.09-10.11,12-14l6-8c7.2-8.92,12.73-18.94,17.9-29,15.84-31,20.64-64,13.84-97.9-6.7-33.42-24-61.7-47.73-86.05-10.22-10.48-20.8-20.57-32-30-7-6-11.11-13.82-9.84-23,1.79-12.77,5.42-25.08,15.82-34l4-4c10.86-11.31,26.69-15.35,38.28-24.71-.62-5.7-3.22-7.59-7.21-9.43-25.45-11.76-52.36-16.8-80-20.24-19-2.37-38.07-2.66-57.06-3.31-25.77-.87-51.23,3.48-75.93,10.9-9.57,2.87-18.82.81-28,.46-13.81-.52-27.23.16-40,5.42-29.43,12.15-45.38,34.66-50.13,65.9-3,19.66-3.45,39,6.26,56.92a64.26,64.26,0,0,1,7.89,33.09c-.17,8.06-2.73,15.53-5.13,23-14.62,45.33-17.37,90.13,5.07,134Z"/>
    <path class="pitcherBand" d="M870,1280.06c28.3.27,56.82.19,85-4.42,13.7-2.24,27.47-4,40.53-8.84q-5.18-4.71-10.52-9.24a28.78,28.78,0,0,1-8.66-11.81,9.81,9.81,0,0,1-3.35.9c-30.35,1.36-60.43,6.34-91,5.14-33.16-1.3-66-4.33-98.12-12.32a64.19,64.19,0,0,1-12.92,24.07c-.47.54-.95,1.06-1.43,1.59,10.24,3.39,21.1,4.59,31.52,7.32C823.56,1278.37,847,1279.84,870,1280.06Z"/>
    <path class="pitcherOverlapLine" d="M819,1168.58a10.4,10.4,0,0,0-10.17,5.83c20.19,20,146.85,18.59,163.17-4.83-3.59-8.78-12.22-6.93-19-9"/>
    <path class="oar" d="M351,702.58c0,2.67-2,86-2,116,0,0-2,38.67-2,56,0,0-4.29,49.95-4.18,72,.17,33.46-12.08,62.91-29.46,91.22-12.5,20.38-24.3,41.52-31.43,64.76-3.32,10.82-3.21,22-4.73,33-3.69,26.84-5.1,53.88-6.65,81-1.07,18.67-2.4,37.31-2.58,56-.19,19.34-1.32,38.69-.82,58,.85,32.68.36,65.38,3.54,98,1.61,16.53.14,33.35,2.27,50a144.3,144.3,0,0,0,14.13,47c7.13,14.15,21.35,19.47,35,22.67,34,8,68,5.1,100.87-6.76,20.92-7.55,32.45-23.85,38.06-44.86,6.67-25,8-82,8-82v-146s-2-42-2-56c0,0-1.85-19.33-2-27-.62-28.25-1.57-56.45-8.93-84-3.54-13.28-9.51-25.54-15.09-38a401.44,401.44,0,0,0-23-44c-7.89-13-8.1-27.69-8.81-42-1.79-36.34-4.81-72.65-5.82-109-.94-34.31-1.6-68.69-2.79-103-2.57-74-1.58-148-1.25-222,.25-59,3.7-118,3.68-177,0-4.29,0-7.32,6-8.28C417,357,421,351.19,420,342.58c-.92-7.44-5.57-10.52-15-12.13-17.3-3-34.68-1.71-52-1.71-6.66,0-13.94.52-19.82,3.22-5.59,2.57-10.06,8.57-9,15.6,1.29,8.63,9.14,9.34,16.88,11.84-1.1,21.23,4,69.18,4,69.18,0,14,2,50,2,50,0,16,2,54,2,54v86Z"/>
</svg>
