<svg viewBox="0 0 1336.48 1138.34">
  <g class="bar">
    <path d="M194,129.63c-.47-4-43.88-62.1-44.4-61L1.09,1123.13c-2.54,18,51.46,19,56.17,1Z"/>
    <path d="M1125.56,1123.63c4-45.5,2-122.5-28-126.55-1-.82-57.71-2.78-60-2.68,21.77,5.13,32,65.73,30,129.73C1068.55,1142.13,1125.2,1140.81,1125.56,1123.63Z"/>
    <path d="M303.55,1124.13c-4.93,19-55,16-54.5.5,0,0,101.38-762.21,105-767.61,4.39,4.05,33.91,43.07,45.37,58.23Z"/>
    <path d="M772,946.67c38,41.05,40,120,39.55,176.46-2,16.5,55.62,19.61,58.39,2.48C889,896.67,772,946.67,772,946.67Z"/>
  </g>
  <g class="rung">
    <path d="M78.41,970.34l-4.51,32.84c43.68-.12,204.27-1.09,215.85-2,17.08,0,17.08-32.48,0-32.48C280,968.67,125.72,969.75,78.41,970.34Z"/>
    <path d="M161.66,365l-4.52,32.89c37.19.58,213.2,1.89,213.2,1.89C390.21,399,392.55,364.76,368,364,350.3,363.45,200.16,364.58,161.66,365Z"/>
    <path d="M120.51,664.26l-4.93,35.86c33.47,1,201.4.72,213.92-.92,20.78,0,20.78-34.53,0-34.53C327.4,664.67,158.44,664.54,120.51,664.26Z"/>
    <path d="M261,213.51c-3.55.72-57.31-2.39-78.28-1.87l-4.4,32c34.73.27,69.71-.69,104.92,1.16C276.19,233.84,269.13,223.19,261,213.51Z"/>
    <path d="M305.5,815.67,99.86,814.41,95.1,849c33.74-.55,208.61,1.13,213.9,1.13C331.21,847.92,327.71,813.42,305.5,815.67Z"/>
    <path d="M352.5,514.17S182.2,513.68,141,515l-4.69,34.15,215.66.49C371.08,547.67,371.08,514.75,352.5,514.17Z"/>
  </g>
  <path class="frameSide" d="M1038,806.65c39,48,65,97,113.5,101.19,6.75.5,140.61,1.87,168.48,2.83,0,29.7-1.45,52.29-1.45,81.46-2.13,0-364.85-.09-366.55-2.38C938.21,971.17,427,72.67,427,72.67c-.08-6.29,8-50.93,14.17-63,10.83-21,30.94,2.19,33.46,5.88Z"/>
  <path class="slide" d="M990.85,873.81c41.15,54.86,68.15,102.86,160.2,114.3-101,0-309-.44-372.41-93L211,75.67l215.54-2.1Z"/>
  <path class="frameSide" d="M786.33,843.5c22.13,25.9,42.12,45,80.65,57,44.48,13.85,155,9.85,168.48,9.85,5.57,0,9,91.55,8.08,93.09-4.94,1.22-148.38-2.25-198-11.64-35.69-6.75-70-30.45-91.56-56.94L147.46,84.4c1.71-12.7,7.66-66.62,24-71.57,18-5.43,25.9,10.36,30.93,16.1C212.63,40.58,786.33,843.5,786.33,843.5Z"/>
  <path class="frameFront" d="M1294,1007.67c27-1,40-13,40.82-40,.35-9.74,1.18-31,.18-44-1.77-19.37-29-17-27,1-1,17,2.48,53.29-9,54-37,5-202,6-240-2.24-5.47,0-11-4.76-9-47.8,1.9-28-31.1-26-29.17-.51-.4,11.34.07,32.22.07,43.55,1,28,23.34,31.89,26.06,32.41C1098.05,1013.39,1199.76,1009.46,1294,1007.67Z"/>
</svg>
