<svg viewBox="0 0 198.64 108.98">
  <path class="flatBlueDark" d="M198.14,14.55q-.1-4.11-.19-8.22a4.53,4.53,0,0,0-4.3-4.06Q99.35-1.27,5,2.27A4.52,4.52,0,0,0,.69,6.33Q.6,10.44.5,14.55l5.63-.2c4.25,28.82,7.67,57.74,10.46,86.73.34,3.33,2.62,7.4,5.57,7.4H176.48c2.74,0,5.23-4.07,5.57-7.4,2.79-29,6.21-57.91,10.46-86.73Z"/>
  <g class="whiteMediumDark">
    <path d="M94,62.44l-9.77-5.57,5-8.78c2.11-2.2,6.15-2.73,8.45-.41l2.48,4.08Z"/>
    <path d="M86.16,75.8c-5.19,0-5.19,0-5.19,0-3.35-.94-4.64-5-3.36-8l2.25-3.77-3.55-2L87.52,62q2.85,4.8,5.69,9.6l-3.53-1.9Z"/>
    <path d="M99.52,77.16V88.43l-12.42,0c-.73.07-1.26-.66-1.66-1.25-2-3.53-3.93-7.07-6.08-10.51a2.18,2.18,0,0,0,1.67.52Z"/>
    <path d="M121.08,77.23a2.9,2.9,0,0,0,1.8-.65l-6.29,10.9a1.72,1.72,0,0,1-1.59,1l-6.91,0v4l-5.64-9.56q2.82-4.82,5.66-9.61v3.88Z"/>
    <path d="M109.94,65.25l9.84-5.48,5.08,8.66c1.92,2.85-1,6.27-3.5,7.35l-5.25,0Z"/>
    <path d="M99.14,46.79a3.68,3.68,0,0,0-2-1.32l13.22,0a1.9,1.9,0,0,1,1.74.86l3.39,5.95L119,50.41l-5.61,9.45-11.08,0,3.34-2Z"/>
  </g>
  <path class="binCreaseLine" d="M154.25,108.48Q150,72.15,146.51,35.73a9.53,9.53,0,0,0-9.2-8.28q-38-.48-76,0a9.52,9.52,0,0,0-9.2,8.28q-3.56,36.4-7.75,72.75"/>
  <path class="binOverlapLine" d="M192.51,14.35q-93.16-3.28-186.38,0"/>
</svg>
