<svg viewBox="0 0 565.68 309.52">
  <path class="flatBlueDark" d="M565.18,40.65q-.28-11.74-.55-23.49a12.9,12.9,0,0,0-12.27-11.6q-269.43-10.12-539,0A12.9,12.9,0,0,0,1.05,17.16Q.78,28.9.5,40.65l16.09-.58C28.73,122.4,38.5,205,46.46,287.88c1,9.51,7.48,21.14,15.93,21.14h440.9c7.83,0,14.95-11.63,15.93-21.14C527.18,205,537,122.4,549.09,40.07Z"/>
  <g class="whiteMediumDark">
    <path d="M267.64,177.47q-14-8-27.92-15.91,7.22-12.54,14.44-25.09c6-6.29,17.58-7.81,24.13-1.18,7.1,11.67,7.09,11.67,7.09,11.67Q276.5,162.21,267.64,177.47Z"/>
    <path d="M245.25,215.65l-14.83.07c-9.59-2.67-13.26-14.16-9.61-22.71l6.42-10.77c-10.13-5.77-10.14-5.76-10.14-5.76q16-.1,32-.18,8.14,13.71,16.26,27.44c-10.09-5.45-10.1-5.44-10.1-5.44Z"/>
    <path d="M283.42,219.53v32.2q-17.75,0-35.48.05c-2.09.2-3.61-1.87-4.75-3.56-5.66-10.09-11.23-20.21-17.36-30,.9.75,1.9,1.5,4.75,1.48Q257,219.57,283.42,219.53Z"/>
    <path d="M345,219.73c3.62-.35,4.19-1.29,5.14-1.85q-9,15.57-17.95,31.14a5,5,0,0,1-4.56,2.8l-19.73-.07v11.49l-16.11-27.32q8.09-13.74,16.18-27.46l0,11.11Q326.47,219.63,345,219.73Z"/>
    <path d="M313.19,185.51q14.06-7.84,28.1-15.67,7.27,12.38,14.53,24.75c5.48,8.14-2.83,17.92-10,21l-15-.08Z"/>
    <path d="M282.32,132.75a10.48,10.48,0,0,0-5.56-3.77l37.78.06a5.43,5.43,0,0,1,5,2.47q4.85,8.49,9.68,17c9.78-5.41,9.79-5.4,9.79-5.4q-8,13.5-16,27L291.29,170l9.55-5.64Q291.6,148.57,282.32,132.75Z"/>
  </g>
  <path class="binCreaseLine" d="M439.8,309q-12.12-103.81-22.12-207.87C416.28,88,404.47,77.8,391.39,77.5q-108.55-1.36-217.1,0C161.21,77.8,149.4,88,148,101.15q-10.12,104-22.12,207.87"/>
  <path class="binOverlapLine" d="M549.09,40.07q-266.18-9.41-532.5,0"/>
</svg>
