<svg viewBox="0 0 895.58 511.76">
    <path class="bin" d="M855.43,59.73c-.66,15.17-.74,30.39-2.17,45.49-1.36,14.49-2.13,29-3,43.5a300.32,300.32,0,0,1-3.67,32.53c-.86,4.9-.42,10-.87,15-.75,8.23-2.14,16.34-3,24.51-.58,5.59-1.09,11.29-1.34,17-.5,11.2-1.46,22.37-2.7,33.53-.53,4.76-1.45,9.58-1.25,14.47.52,12.56-1.1,25-2.08,37.49-1.15,14.71-3.33,29.33-4.82,44-.66,6.46-.38,13-1.13,19.48-1.33,11.48-1.27,23-2.64,34.55a177.52,177.52,0,0,0-1.35,21.46c0,11.18-.77,22.55-4.67,32.91-6.51,17.32-17.62,30.6-37.26,34.13a70,70,0,0,1-12.51,1q-333,0-666,0c-8.19,0-14.32-3.5-19-10-9.36-13-13.17-27.77-14.58-43.5C69.9,441,67.48,424.92,66,408.72c-1.13-12.62-.94-25.37-2.25-38-1.07-10.33-.63-20.72-2.2-31-1.24-8.22-.94-16.66-1.7-25-1-10.36-2.24-20.68-3.46-31C55,271.93,53,260.17,53.49,248.24c.34-7.52-2.31-14.58-2.82-22-.32-4.61-1.54-9.31-1.69-14a213.35,213.35,0,0,0-2.92-27A235.12,235.12,0,0,1,44,160.73c-.39-7.37-2-14.57-2.17-22-.24-11.67-1-23.35-1.94-35-1.06-13.36-2.54-26.68-3.84-40a38.86,38.86,0,0,0-7.1-1.57c-8.3-.63-16.15-3.27-24-5.77-3-.95-4-2.7-3.87-5.13.39-6,.59-12,3.41-17.51,2.38-4.67,3.42-9.87,5.94-14.53C15.37,9.92,22.23,2.82,33,1.42c6.37-.84,13-.27,19.46.4,14.38,1.47,28.51,4.71,43,5.51,12.52.69,25,2.3,37.5,3.39,16,1.39,32,2.33,48,4.14,9.88,1.12,19.75-.1,29.49.66,10.5.82,21.13,0,31.53,2.19a11.5,11.5,0,0,0,2.49,0c16-.11,32,1.61,48,2,10.34.24,20.67.32,31,.53,3.84.07,7.67.36,11.5.47,2.22.06,4.56.42,6.47-1a2.74,2.74,0,0,1,2.52-.41c7.69,2.12,15.35.19,23-.09,2.77-.11,5.22,1.12,8,1.17,5.56.09,11-1,16.5-1.06,10.17-.07,20.43,1.2,30.48.2,12.6-1.26,25,.84,37.52.26,10.5-.48,21-.79,31.5-1,13-.27,26-.86,39-.4C547,19,564,19,580.91,17c12.92-1.51,25.69-.07,38.52-.22s25.7-1.64,38.51-1.7c7,0,14-.33,21-.84,9.32-.69,18.66-1.28,28-1.47,7.18-.15,14.41,0,21.48-1.17,13.63-2.18,27.36-1.22,41-2.09q21-1.35,42.05-3.44c15.57-1.54,31.21-3.91,47-3.33,4.68.18,9.51.33,14,1.6,6.51,1.85,11.34,6,14.65,12.3a63.63,63.63,0,0,1,7.41,23.55c.77,7.58-1.91,12.15-9,14.48-8.6,2.8-17.51,3.71-26.5,4-2,.07-4,0-6,0"/>
    <path class="logo" d="M453.93,257.23c5.84,10.44,13.12,19.92,19.16,29.59,5.7.89,9.26-2.94,12.72-5.74,11.08-9,23.77-15.6,34.75-24.7,1.65-1.37,2-1.95,1.39-3.65-3.92-11.11-9.23-21.37-18-29.5-4.18-3.87-7.42-4.56-12-2-9.95,5.65-19.06,12.13-25.18,22.36-2.81,4.7-7.22,8.46-10.34,13.1Z"/>
    <path class="logo" d="M554.88,299.18c4-4.14,9.54-6.74,13.23-12.49-6.47-.52-12.32-1.34-18.18-1.31-3,0-6,.44-9,.32-11.87-.49-23.64,1.76-35.51,1-2.6-.16-4,.89-4.53,3.51-2.16,10.06-7,19.22-10.09,29-1.83,5.72-3.29,11.64-7.17,16.7-1.42,1.85-2.68,5.51.17,8.26,6.21-2.17,15.62-8.42,15.62-8.42,5.18,6,10.22,12,14,19,4.57,8.38,10.43,16.27,13.65,25.13,3.09,8.51,6.19,17.43,5.85,26.88,0,.5,5-4.87,8-8.47,10.9-13.24,19.59-27.94,28.43-42.55,2.66-4.39,5.27-9.14,3.92-14.45s-1.46-10.61-3.86-15.54c-4.28-8.79-7.31-18.21-13.53-26"/>
    <path class="logo" d="M472.93,429.73c1.09-19,0-38,.56-57.52,3.18-.92,7.09-.39,10.94-.46,8.71-.17,17.47.55,26-2,1.51-.44,2.6.38,3.54,1.91,4.88,7.93,8.73,16.3,9.82,25.56.6,5.11,2.34,10,1.28,15.51-2,10.47-3.27,11.87-14.7,14.8-12.05,3.08-24.46,4.48-37,2.25Z"/>
    <path class="logo" d="M327.14,331.17c.08-.32.17-.63.27-.95,2.75-9.15,8.58-16.56,13.52-24.49,0,0,17.91,11.48,28,17.95,6.7,4.28,12.89,9.33,19.92,13.14a7.06,7.06,0,0,0,1.55.62c-4.3,6.85-9.5,13.16-11.62,21.26-.57,2.19-2.4,3.57-5.38,3.65a93.32,93.32,0,0,1-30.55-4c-7-2.17-10.78-7.34-14.34-12.73C325.67,341.28,325.77,336.21,327.14,331.17Z"/>
    <path class="logo" d="M373.32,430.39A26,26,0,0,1,363,422.17a91,91,0,0,1-7.27-11.83c-6.64-11.95-12.52-24.25-18.32-36.6a46.1,46.1,0,0,1-2.49-7.51c5.47.27,10.61,2.27,16,3.22,10.67,1.88,21.44.77,32,2.05s21.09-1,31.52.79c3,.52,5.19-1.91,8.5-1.49.05-5.5-.12-11,1.43-16.34a1.42,1.42,0,0,0,0-.36c9.51,11.21,19.75,21.8,28.58,33.6,2.39,3.2,5.32,6,8.24,9.24-2.75,4.57-6.16,8.92-8.16,13.84-5.08,12.46-13.62,22.4-22.05,32.51a26.06,26.06,0,0,1-4.58,3.94s-.6-9.37-1.19-15.5c-2.78,0-5.31-.19-7.8,0q-14.73,1.34-29.51,1.54c-2.3,0-4.19-1.14-6.49-1.2A22.18,22.18,0,0,1,373.32,430.39Z"/>
    <path class="logo" d="M489.43,213.23c-.71,2.18-2.89,2.46-4.49,3.51-8.47,5.54-16.86,10.67-23.8,18.74-14,16.25-25.37,34.25-38.17,51.28-1.92,2.55-2.34,6-4.54,8.47a21.86,21.86,0,0,0,4.05,4.95c3,2.55,6.29,4.79,7.94,8.56.8,1.84,0,.49,0,.49a4.24,4.24,0,0,1-3,1c-15.16-.14-30.34.47-45.49-.55-2.85-.2-5.67-1-8.43.08a11.74,11.74,0,0,1-3.07-4.55c-4.84-10-10.29-19.76-14.29-30.08-2.65-6.84-5.92-13.57-7.22-20.92l-1-1c2.2.16,4.44-.47,6.52,1,3.58,2.47,7.29,4.74,10.93,7.09,3.33-1.25,2.81-4.84,4.46-7.12A385.14,385.14,0,0,1,397,220.78a28,28,0,0,1,18.45-9c7.15-.68,14.32-1.37,21.49-1.47,15.83-.22,31.67-.08,47.5,0,1.37,0,2.89-.6,4,1C490.07,213.43,489.43,213.23,489.43,213.23Z"/>
    <path class="binLine strokeLine" d="M716.93,508.73c-13.33.5-20.82-7.7-27-18s-6.75-22.23-7.11-33.52c-.44-13.94-3-27.61-3.41-41.49-.12-3.67-.94-7.33-.91-11,.13-15.47-2.7-30.67-4-46-.88-10-1.68-20-2.5-30q-1.52-18.5-3-37c-.83-10.16-1.32-20.38-2.63-30.48a139,139,0,0,1-.85-17.52c0-7.31-.33-14.52-2.89-21.54-.68-1.86.17-4.32.25-6.46.34-9.73-1.11-19.36-2.19-29-.53-4.77-.78-9.65-1.07-14.48-1.29-20.79-16-32.88-35.1-35.63-12.3-1.77-24.35.61-36.52.68-5.33,0-10.8,0-16,1.09-11.46,2.47-23.18-.86-34.51,1.94-5.68,1.4-11.35.81-17,.89-19,.26-38,.11-57,.62-13.52.36-27,.15-40.51.07-13.16-.07-26.33,1.3-39.5,1.8-9.66.37-19.37,1-29,.41-16.33-1-32.7-1.12-49-2.67-10.5-1-20.8-3.54-31.48-3.3-14.07.31-24.68,6-30.92,18.64a88.47,88.47,0,0,0-9.27,34c-.72,13-3.6,25.55-4.62,38.46-1.77,22.17-3.7,44.32-5.42,66.5-.88,11.34-2,22.73-3.47,34.06-1.47,11.57-1.8,23.36-3.4,35-1.54,11.14-1.4,22.36-2.48,33.5-1,10-1.16,20-2.1,30-1.38,14.58-3.56,29.1-6.11,43.56-1.35,7.66-3.28,14.83-7.23,21.45-4.61,7.76-10.87,13.49-20,15.54a9.28,9.28,0,0,0-2,1"/>
    <path class="binLine strokeLine" d="M856.93,58.73c-15.07,2.33-30.25,3.1-45.48,3.79-9.31.42-18.73.37-28.05,2-4.64.82-9.59-.5-14.47-.49-11.46,0-22.71,1.82-34,3.29-8.83,1.15-17.71,1.55-26.49,2.61-13.49,1.62-27.05,1.24-40.55,2.49-7.25.66-14.67.67-22,1.36-13.32,1.25-26.68,1.2-40,1.88-13,.65-26,.82-39,1.41-16.31.73-32.66.43-49,.64-23,.3-46,.74-69,1-14.66.15-29.36.56-44-.14-11.4-.54-22.67.87-34,.63-14.35-.3-28.66.61-43,1-7.82.22-15.73.7-23.48-.13a191.71,191.71,0,0,0-28-1.24c-8.9.37-17.68-1-26.51-1a185.11,185.11,0,0,1-20.52-1.39c-4-.45-8.3,0-12.48-.12-15-.23-30.06.75-45-.35-12-.89-24.17.84-36.06-2.58-4-1.16-8.63-.41-13-.67q-19.5-1.18-39-2.5c-15.88-1.08-31.31-5.11-47-7.49"/>
</svg>
