<svg viewBox="0 0 1582.47 961.96">
  <path class="cypressCloser" d="M100,171.08c-19.91-62.59,68.12-83.41,82.9-45.24,11-61.87,109.79-94.57,145.5-33.1,7-41.26,67.59-46.73,94.33-5.63,11.44-43.35,72.07-60.33,96.76-20,24.71-60.59,119-74.06,154.82-15.09C692.39,6.57,762-2.41,788.9,43.9c27-59.78,103.35-56.28,143.73,1.11,15.76-52.89,89.86-59.63,122.43-3.1,47.66-78.35,169.63-18.93,163.38,59.26C1258,53.88,1346.66,73,1339.69,153.31c50.76-58.4,166.47,4.15,142.49,84.57,49-8.49,61.51,63.45,10.7,76.05,67.48,1.28,120.92,120.19,31.47,165.9,41.6,2.89,73.24,71.69,19.51,87.34,44.34,3.12,56.85,65.67.13,84.42,53.6,18.78,46.62,122-40.78,156.3,65.5,12.6,78,134.57-21,153.57H100.34C21,933,34.43,849.93,85,825.13c-75.24-24.6-99.24-127.9-32.65-157.19C-.8,659.06,3.7,591.69,51.17,582.7c-76.67-31.43-58.7-128,3.15-148.72-73.08-37.66-31.12-118.5,31.53-130.73C12.91,286.35,11.78,162.55,100,171.08Z"/>
  <path class="cypressEdgeLine" d="M173.3,220.23c23.06-63.41,118.19-54.77,121.07,17.3,25.26-37,112-10,105,41.13,7-31.4,52.32-44.19,74.41-7,22.87-41.27,73.35-58.7,105.07-18.47,11.41-42.5,84-69.85,111.14-25.89,9.21-30.34,50.06-37.15,72.46-6.45,9.38-35.24,54.77-47.78,74.91-14.67,7.66-44.36,85.48-56.15,113.79-10.12,16.49-36.59,63.65-41.31,79.21,8.95,10.6-56.86,108.61-62.63,125.26-3.15,12.35-61.6,107.7-76.71,151.89-6.94"/>
</svg>
