<svg viewBox="0 0 1566.93 893.71">
  <path class="cypressCloser" d="M1448.88,113.74c24.11-45-45-86.82-82.46-49.87-4.89-50.2-130.75-35.06-120.07,4.62-12.38-60.14-120.39-53.4-122,.21-23-52-123.15-40.72-131.44,10.72,6.64-54.76-97.9-71.35-113.2-16.2,1.63-72.77-152.43-90.67-175.61-8.17-34-62.12-157.11-28.73-165,22.28C523.27,1.6,367.2,13.33,373.46,91.52c-3.22-67.89-136.93-80.11-137.34,3.13C196.36,38,86.72,95.85,125.28,163.32c-56-27.9-105.28,82.91-39,110.29C14.43,266.14-10,359,68.56,396.39c-42.86-4.95-55.1,69.43-15.19,83.55-53-.52-61,104.58-3.8,113.92-61,31.94-10.73,159.39,74.68,136.71-59.49,39.24-12.21,172.61,76.6,162H1403.69c80.86-8.65,99.61-111.24,42-149.46,86.59,20.12,116.6-95.24,54.76-127.77,83.3-5.27,84.62-154.31,21.57-169.25,53.1-24.89,36.5-97.9-18.26-117.81,49.78-26.55,28.21-91.26-25.56-93.92C1543.73,203.77,1522.83,104.09,1448.88,113.74Z"/>
  <g class="rose">
    <path d="M258.28,640.49c32.66-49.71,82.37,68.17,22.72,51.13,12.78,49.7-96.57,24.14-59.64-18.47C174.49,661.79,237,589.36,258.28,640.49Z"/>
    <path d="M405.53,55.4c45.42,9.34,12.53,86.08-20,52.24-31.41,41.15-88-41.07-29.2-55.19C334.86,18.4,429.27,9.36,405.53,55.4Z"/>
    <path d="M17.52,456.91c-15.7-42,64.05-38.22,52.59-9.32,32.77-9.59,34.37,54.37,1.08,48.28,14.86,17.37-36.41,41.11-44.35,5.22C8,522.28-15.44,458,17.52,456.91Z"/>
    <path d="M736.15,596.19c-25.51,43-82.74-38.33-33.46-44.85C679.25,505.69,796,517.7,765,556.18,813.16,556.91,768.21,641.35,736.15,596.19Z"/>
    <path d="M670.31,737c53.61-25.77,44.69,85.16-6.87,55.52-25.75,39.68-84-20.56-41.6-46.56C587.53,712.1,678.41,682.23,670.31,737Z"/>
    <path d="M1020.57,163.55c41.67-10.21,34.72,57.94,6.2,46.81,15.3,22.95-41.72,35.47-41.72,9.74-18.78,7.65-29.9-25.73-10.34-38.46C940.56,161,1018.43,120.65,1020.57,163.55Z"/>
    <path d="M1072,373.3c4.44-53.28,91.79-.07,50.58,23.91,42.13,29.32-57.41,81.32-57.24,24.94C1024.2,433.47,1030.23,358.17,1072,373.3Z"/>
    <path d="M1213.7,761.43c16.6-40.08,62.66,29.75,31.54,30.73,26.58,10.13-8.34,58.82-27.85,29.12-8.86,30.38-56.51-15-34.18-31.65C1155.49,785.43,1186.78,734.52,1213.7,761.43Z"/>
    <path d="M1527.79,320.69c50.91,1.44-3.2,81.75-27.26,48.86-43.68,26.44-74.27-64.76-21-58.79C1460.46,266.45,1563.64,279,1527.79,320.69Z"/>
    <path d="M537.78,250.13c10.35-43.65,66.39-6.44,40.77,11.19,32.57,10.28,6.69,64.36-17.58,40.78,2.67,22.69-53.36,12.65-40-21.59C493.53,287.62,509.8,232.68,537.78,250.13Z"/>
  </g>
</svg>
