<svg viewBox="0 0 1491.14 1034.74">
  <g class="ropeDark">
    <path d="M298.4,225.26c28.24-.06,41.06,41.22,47.92,63.19,15.54,49.83,21,102,21.72,154,.66,50.06-3,100.47-17.6,148.39-6.54,21.43-18.25,57-45.54,58.23-26.79,1.2-39.84-37.59-46.24-57.44-15.32-47.56-20.09-97.67-20.93-147.57-.88-51.83,2.57-104,15.89-154.13C259.32,268.5,270.41,225.33,298.4,225.26ZM190.78,420.45c1.31,65.57,9.6,131.61,35.29,192.27,13.62,32.16,38.51,75,79,74.72s65.11-43.57,78.27-76C408.19,550,415,483.47,414.24,417.56c-.84-68.45-10.16-137.46-36.31-201.08-13.77-33.51-39-82.88-82.12-82-42.76.85-65.37,51.06-77.35,84.84C195.63,283.7,189.41,352.39,190.78,420.45Z" transform="translate(-14.51 -21.2)"/>
    <path d="M749.41,214.07c31.22,0,44.15,46.31,51,69.89,16,54.7,20.81,111.84,20.7,168.68S816,566.56,800,621.26c-6.8,23.31-19.53,69.84-50.45,69.85s-43.67-46.56-50.47-69.83c-16-54.7-21.06-111.77-21.2-168.6s4.64-114,20.56-168.69C705.3,260.45,718.08,214.07,749.41,214.07ZM635.73,442.14c.29,72.15,9,144.9,34.79,212.61,13.3,35,37.88,88,82.61,88.13s69.35-53.34,82.59-88.14c25.76-67.72,34.47-140.5,34.73-212.65S862.53,297,836.78,229.28C823.26,193.73,798.28,140.82,753,141s-70.26,52.84-83.72,88.34C643.58,297.1,635.44,370,635.73,442.14Z" transform="translate(-14.51 -21.2)"/>
    <path d="M1229.6,185c26.36.89,36.79,39.65,42.31,60.49,12.45,47,15.63,95.74,14.64,144.21s-6.18,97.11-20.33,143.67c-6.23,20.51-17.81,59.05-44,59.23s-37.22-40.12-42.89-60.12c-13.32-46.9-17-95.85-16.21-144.49s5.95-97.58,20.92-144C1190.55,223.85,1203.21,184.14,1229.6,185Zm-96.58,193c-.9,60.93,5,122.14,24.8,180,9.71,28.3,27.7,74.62,64.16,74.9,36.3.28,55-45.61,65.26-73.67,20.9-57.22,28.43-118,29.78-178.66s-3.44-121.62-22.2-179.53c-9.31-28.71-26.78-74.89-63.42-75.62-37-.73-56.93,44.67-67.85,73.18C1141.63,255.92,1133.93,317,1133,378.07Z" transform="translate(-14.51 -21.2)"/>
  </g>
  <path class="post" d="M1384.28,167.35q-624.09-15.91-1248.39,0-60.18,1.59-120.33,3.42,2.8,60.47,5.12,120.94c9.37,259.93,11.05,503.16,4.4,763.17,39.64.21,79.16-.19,118.8,0,5.56-261.16,4.19-504.93-3.69-766Q760,275.5,1380,288.85c-7.88,261.1-8.69,504.88-3.13,766,39.64-.18,79.16.2,118.8,0-6.65-260-5.54-503.24,3.84-763.17q2.31-60.48,5.12-120.94Q1444.45,168.94,1384.28,167.35Z" transform="translate(-14.51 -21.2)"/>
  <g class="ropeLight">
    <path d="M316.16,163.35c27,17.79,31.49,59.21,39,87.87a1011.37,1011.37,0,0,1,29.08,170c5.44,63.39,23,242.85-79.06,239.93C203.69,658.29,214,489.86,217.45,422.36A954.31,954.31,0,0,1,240.86,254c6.91-29.51,11.62-71.26,38.86-89.94ZM207.7,654.88c28.5,79.42,134.05,75.94,179,13.9,30.68-42.31,40.59-96.56,45.79-147.24,6.46-63,4.65-126.72-4.18-189.26-8-56.77-21.34-113.11-47.29-164.43-16.36-32.36-44.2-71.57-85.18-70.75-42,.84-70.51,38.83-86.71,73.08C184.64,222,173.63,278.74,167.41,335.6a847.51,847.51,0,0,0-.25,185.47C172.26,566.91,179.93,616.41,207.7,654.88Z" transform="translate(-14.51 -21.2)"/>
    <path d="M777.8,159.26c21.65,7.69,27.78,36.88,33.59,56.37,13.23,44.35,20.26,90,24.23,135.93,9.85,114,.48,231.93-40.25,339.56-17.52,46.3-80.27,42.27-97.42-1-41.53-104.82-44.11-222.21-32.14-333.85C670.72,310.5,678.69,265,694,221.47c7.56-21.53,19.92-59.37,47.39-62.21Zm-155,298.65c-4.6,70-5.6,140.38,9.28,208.68,10.72,49.16,37,110,93.7,118.92C826.47,834.29,872,709.1,886.37,632.93c22.84-121.38,21.91-247.15-1-368.85-10.54-56-31.39-119-81.87-151.22-33-21.11-76.2-14-99.71,18-38.95,32.35-53.94,85.38-64.14,132.62C625.86,327.34,621.94,392.42,622.81,457.91Z" transform="translate(-14.51 -21.2)"/>
    <path d="M1239.44,164c22.51,32.17,29.49,73.67,33.92,111.64,5.57,47.68,6.09,95.94,2.75,143.7-3,43.43-8.87,86.95-22.36,128.33-6.39,19.61-18.15,52.89-42.41,52.91-25.56,0-36.89-35.69-42.54-56.37-11.23-41.06-14.66-83.88-15.26-126.45-.69-49.29,2.81-99.09,11.72-147.53,6.92-37.64,16.56-74.21,37.74-106.93Zm-.14-59.55c-63.09-11.88-110.55,43-130.5,96-35.79,95.14-31.83,199.38-21.16,300,11.71,63.29,34.89,145.2,100.46,172.21,44,18.13,82.68-15.49,92.79-57.43,33-29,45.47-75.44,53.42-116.79,10.28-53.48,12.85-108.24,9.57-162.41-3.18-52.48-11.46-105-31.06-154C1300,150.09,1276.23,111.43,1239.3,104.48Z" transform="translate(-14.51 -21.2)"/>
  </g>
  <g class="ropeOverlapLine">
    <path d="M1164.63,605.73c36.55,18.43,67.89,8.92,95.62-18.65,26-25.86,31.83-69.07,36.39-104.14,6.37-48.95,7.14-98.53,3.69-147.63-3.25-46.44-9.78-92.88-25.82-136.64-8.34-22.75-26-59.84-55.72-57.76-71.19,5-88.85,116.71-96.88,171.18-13,88.4-14.47,188.36,27.83,269.29,27,51.63,85.33,82,131.15,34" transform="translate(-14.51 -21.2)"/>
    <path d="M703.79,130.9c22.43-13.08,44.3-22.7,69.23-19.42,25.7,3.39,45.3,27.43,58.94,49.4,25.64,41.29,29.89,92.86,35.47,139.91a1151.83,1151.83,0,0,1,5.77,208.89c-5.77,90.46-21.45,276.84-147.41,275.83" transform="translate(-14.51 -21.2)"/>
    <path d="M622.81,457.91c3.74,72.92,18,373,153.25,259.42" transform="translate(-14.51 -21.2)"/>
    <path d="M380.76,568.92c31.56-84.34,19.93-180.5,5.77-266.94-7.34-44.8-17.45-88.87-35.81-130.41-10.47-23.71-27.59-55.52-56.39-57.46-30.5-2-50.09,33.82-61.22,57.35-20.3,42.92-31.45,89.52-39.36,136.36C174.38,422.6,172.67,542.13,207.7,654.88" transform="translate(-14.51 -21.2)"/>
    <path d="M223,551.14c3.86,55.91,24,146.38,95.2,145,55.37-1.06,84.47-67.71,103.57-111" transform="translate(-14.51 -21.2)"/>
  </g>
  <g class="spindle">
    <path d="M777.64,40.51c-.39-24.54-35.14-24.28-36.11,0l.15,118.75h35.81Q777.57,99.89,777.64,40.51Z" transform="translate(-14.51 -21.2)"/>
    <path d="M1010.34,42c.08-24.63-34.69-24.5-36.11-.39q-.94,59.3-1.75,118.6l35.81.34Q1009.23,101.26,1010.34,42Z" transform="translate(-14.51 -21.2)"/>
    <path d="M1243,46c.55-24.66-34.23-24.66-36.1-.79q-2,59.06-3.66,118.11l35.81.68Q1240.9,105,1243,46Z" transform="translate(-14.51 -21.2)"/>
    <path d="M312.24,45.25c-1.32-24.15-36-23.65-36.1.8q2.13,59,4,118l35.81-.69Q314.21,104.3,312.24,45.25Z" transform="translate(-14.51 -21.2)"/>
    <path d="M544.93,41.6c-.85-24.38-35.59-24-36.11.4q1.11,59.27,2.06,118.54l35.81-.34Q545.88,100.89,544.93,41.6Z" transform="translate(-14.51 -21.2)"/>
  </g>
  <g class="sandbag">
    <path d="M1036.58,498.77c7.29,5.65-9.89,59.47-23,86,39.8,32.35,75.12,62.2,86,89,26,64-5,130,13,190,15,50-5.07,56.27,2,82,14.51,52.78,30.1,105.11-13.9,109.11H848.36c-29-10,12-44.6-9.78-80.11-10.6-17.25,17.59-43.21,4-79-8.06-21.22,8.35-110.61,20-184,6.88-43.34,40.22-84.87,80-126-9-41-35.73-69.69-29-76,7.3-6.83,18.06-4.28,28,0,10.73-18.18,35-10,54-1C1008.3,501.5,1026.94,491.29,1036.58,498.77Z" transform="translate(-14.51 -21.2)"/>
    <path d="M415.58,545.77c34,22,31,27,69-1a175,175,0,0,0,14,58c88,5,173.61,142,158,259-12,90,20.92,104,9,149-3.57,13.47,8.71,32.11-20.29,44.11H403.13c-30-14,6.63-32.49-9.55-68.11-14.65-32.26,29.13-79.55,4-112-16-20.62,11-37,15-57-23.29-5.41-28.78-15.61-20-37,15.3-37.24-2-88,46-141-12.2-12.2-39-17-60-27Z" transform="translate(-14.51 -21.2)"/>
  </g>
  <path class="sandbagInner" d="M415.58,545.77c3,5-9,52,24,6,21.2-29.54,40.26-27.16,45-7,3.56,15.12-50.09,29-52,38-1.05,5,17.32,6.35,4,18-8,7-25.71,11-35-6-5.91,11.45-15.82,20.55-23,18C371.72,610.33,408.58,534.11,415.58,545.77Z" transform="translate(-14.51 -21.2)"/>
  <g class="sandbagFoldLine">
    <path d="M441.36,592.58a128.35,128.35,0,0,0,22.22,29.19" transform="translate(-14.51 -21.2)"/>
    <path d="M412.58,817.77c44.42,8.37,98.41,11.83,66.5,42" transform="translate(-14.51 -21.2)"/>
    <path d="M941.58,509.77c17.29,5.07,35.59,4.21,34.43,11.53-3,63.83-2.91,126.26,20.8,135.77,14.91.87,5.7-25.88-3.23-34.8" transform="translate(-14.51 -21.2)"/>
    <path d="M995.58,508.77c10.53,4.58,20.72,7.93,29.44,6.07" transform="translate(-14.51 -21.2)"/>
  </g>
  <g class="string">
    <path d="M1021.58,583.77c5,2,5,10-3,12-13.51,3.38-63,6-77,3-7.29-1.56-9-8-5-12-4-4-.7-11.28,5-11a459.61,459.61,0,0,0,73-3C1022.87,571.69,1025.58,579.77,1021.58,583.77Z" transform="translate(-14.51 -21.2)"/>
    <path d="M512.58,602.77c7-2,13.68,4.91,7,11-23,21-49,35-80,42-6.17,1.4-12-6-6-10-6,1-8.41-9.88-1-12,28-8,50-21,70-38C507.85,591.3,515.58,596.77,512.58,602.77Z" transform="translate(-14.51 -21.2)"/>
  </g>
  <g class="stringBorderLine">
    <path d="M1021.58,583.77c-23,4-62,6-85,3" transform="translate(-14.51 -21.2)"/>
    <path d="M512.58,602.77c-21,21-49,35-79,43" transform="translate(-14.51 -21.2)"/>
  </g>
</svg>
