<svg viewBox="0 0 459.38 319.16">
  <g class="oakMediumLight">
    <path d="M87.91,63.36c8.67,0,12.61,12.66,14.71,19.4,4.78,15.31,6.47,31.32,6.67,47.31.21,15.37-.91,30.85-5.4,45.56-2,6.58-5.6,17.51-14,17.89-8.22.37-12.23-11.55-14.2-17.64-4.7-14.61-6.17-30-6.43-45.32-.26-15.92.79-31.93,4.89-47.34C75.91,76.64,79.31,63.38,87.91,63.36Zm-33,59.94c.4,20.14,2.94,40.42,10.83,59.05,4.19,9.88,11.83,23,24.26,22.94s20-13.37,24-23.34c7.64-18.85,9.75-39.29,9.5-59.53-.26-21-3.12-42.22-11.15-61.76-4.23-10.29-12-25.45-25.22-25.19S67,51.15,63.36,61.53C56.35,81.31,54.44,102.4,54.86,123.3Z"/>
    <path d="M226.41,59.92c9.59,0,13.56,14.23,15.67,21.46,4.91,16.81,6.4,34.35,6.36,51.81s-1.59,35-6.49,51.78c-2.08,7.16-6,21.45-15.49,21.45S213.05,192.12,211,185c-4.9-16.8-6.46-34.33-6.51-51.78s1.43-35,6.31-51.8C212.87,74.17,216.79,59.92,226.41,59.92ZM191.5,130c.09,22.16,2.77,44.5,10.69,65.3,4.08,10.73,11.63,27,25.36,27.06s21.3-16.38,25.37-27.07c7.91-20.79,10.58-43.15,10.66-65.3s-2.43-44.55-10.34-65.36c-4.15-10.91-11.82-27.16-25.73-27.11S205.94,53.71,201.8,64.61C193.91,85.42,191.41,107.8,191.5,130Z"/>
    <path d="M373.88,51c8.09.27,11.3,12.17,13,18.57,3.83,14.44,4.8,29.4,4.5,44.29s-1.9,29.82-6.24,44.12c-1.92,6.3-5.48,18.13-13.51,18.19s-11.43-12.32-13.17-18.46c-4.09-14.41-5.21-29.44-5-44.38s1.83-30,6.42-44.23C361.89,62.93,365.78,50.73,373.88,51Zm-29.66,59.28c-.28,18.71,1.52,37.51,7.62,55.28,3,8.69,8.5,22.92,19.7,23s16.89-14,20-22.62c6.42-17.57,8.73-36.23,9.15-54.87S399.67,73.73,393.91,56c-2.86-8.82-8.23-23-19.48-23.22S357,46.44,353.6,55.2C346.86,72.78,344.5,91.54,344.22,110.29Z"/>
  </g>
  <path class="mapleDark" d="M421.38,45.58Q229.73,40.69,38,45.58q-18.48.48-36.95,1.05.86,18.56,1.57,37.14C5.5,163.59,6,238.29,4,318.14c12.17.06,24.31-.06,36.48,0,1.71-80.21,1.29-155.07-1.13-235.25q190.35-4.1,380.74,0c-2.42,80.18-2.67,155.05-1,235.25,12.17-.06,24.31.06,36.48,0-2-79.85-1.7-154.55,1.18-234.37q.72-18.58,1.57-37.14Q439.87,46.06,421.38,45.58Z"/>
  <g class="oakLight">
    <path d="M93.36,44.35c8.3,5.46,9.67,18.18,12,27a310.88,310.88,0,0,1,8.93,52.22c1.67,19.47,7.07,74.58-24.28,73.69-31.17-.9-28-52.62-26.94-73.35a292.32,292.32,0,0,1,7.19-51.71c2.12-9.06,3.57-21.88,11.93-27.62Zm-33.31,151c8.76,24.38,41.17,23.32,55,4.26,9.42-13,12.46-29.65,14.06-45.21a240.54,240.54,0,0,0-1.29-58.13c-2.46-17.43-6.55-34.73-14.52-50.49-5-9.94-13.57-22-26.16-21.73-12.91.26-21.65,11.93-26.63,22.44C53,62.37,49.59,79.78,47.68,97.25a260.66,260.66,0,0,0-.08,56.95C49.17,168.28,51.52,183.48,60.05,195.3Z"/>
    <path d="M235.13,43.09c6.65,2.36,8.53,11.33,10.32,17.31a208.68,208.68,0,0,1,7.44,41.75c3,35,.15,71.22-12.36,104.28-5.38,14.21-24.66,13-29.92-.31-12.76-32.19-13.55-68.24-9.87-102.53,1.51-14,3.95-28,8.64-41.39,2.33-6.62,6.12-18.24,14.56-19.11Zm-47.6,91.72c-1.41,21.5-1.72,43.11,2.85,64.08,3.3,15.1,11.36,33.8,28.78,36.52,30.92,15,44.91-23.46,49.31-46.85a307.09,307.09,0,0,0-.3-113.28c-3.24-17.21-9.64-36.53-25.15-46.44a22.6,22.6,0,0,0-30.62,5.54c-12,9.93-16.56,26.22-19.7,40.73C188.47,94.71,187.27,114.69,187.53,134.81Z"/>
    <path d="M376.9,44.56c6.91,9.88,9.06,22.62,10.42,34.28a237.51,237.51,0,0,1,.84,44.13c-.93,13.34-2.72,26.7-6.86,39.41-2,6-5.58,16.24-13,16.25-7.85,0-11.33-11-13.06-17.31-3.45-12.61-4.5-25.76-4.69-38.83a233.1,233.1,0,0,1,3.6-45.31c2.12-11.56,5.08-22.79,11.59-32.84Zm0-18.29c-19.38-3.65-33.95,13.21-40.08,29.49C325.79,85,327,117,330.28,147.9c3.6,19.44,10.72,44.59,30.85,52.89,13.52,5.56,25.4-4.76,28.5-17.64,10.15-8.92,14-23.17,16.4-35.87A200,200,0,0,0,409,97.41c-1-16.12-3.52-32.25-9.53-47.29C395.49,40.27,388.2,28.4,376.86,26.27Z"/>
  </g>
  <g class="ropeOverlapLine">
    <path d="M353.93,180.2c11.22,5.66,20.85,2.74,29.36-5.72,8-7.95,9.78-21.22,11.18-32a228.25,228.25,0,0,0,1.13-45.33c-1-14.26-3-28.53-7.93-42-2.56-7-8-18.37-17.11-17.74C348.7,39,343.27,73.3,340.81,90c-4,27.15-4.45,57.85,8.54,82.7,8.29,15.86,26.21,25.2,40.28,10.43"/>
    <path d="M212.4,34.38c6.89-4,13.61-7,21.26-6,7.89,1,13.92,8.42,18.1,15.17,7.88,12.68,9.18,28.52,10.9,43a354.47,354.47,0,0,1,1.77,64.15c-1.77,27.78-6.59,85-45.27,84.71"/>
    <path d="M187.53,134.81c1.15,22.39,5.52,114.55,47.07,79.67"/>
    <path d="M114.43,168.57c9.69-25.9,4.89-55.11.54-81.65-2.25-13.76-5.36-27.29-11-40.05-3.22-7.28-8.48-17-17.32-17.65-9.37-.63-15.38,10.39-18.8,17.62C61.62,60,58.2,74.33,55.77,88.71c-6,35.25-6.48,72,4.28,106.59"/>
    <path d="M63.63,163.06C64.81,180.23,72.11,208.39,94,208c17-.33,25.94-20.79,31.81-34.1"/>
  </g>
  <g class="oakMedium">
    <path d="M235.08,6.62C235-.91,224.29-.84,224,6.62q0,18.24,0,36.47h11Q235.06,24.85,235.08,6.62Z"/>
    <path d="M306.54,7.07c0-7.56-10.65-7.52-11.08-.12q-.3,18.21-.54,36.43l11,.1Q306.21,25.29,306.54,7.07Z"/>
    <path d="M378,8.32c.17-7.58-10.51-7.58-11.09-.25q-.6,18.13-1.12,36.27l11,.21Q377.35,26.43,378,8.32Z"/>
    <path d="M92.16,8.08C91.75.66,81.09.82,81.07,8.32q.66,18.12,1.22,36.24l11-.21Q92.77,26.21,92.16,8.08Z"/>
    <path d="M163.62,7a5.55,5.55,0,1,0-11.09.12q.33,18.2.63,36.41l11-.11Q163.91,25.17,163.62,7Z"/>
  </g>
  <g class="fiberDark">
    <path d="M314.6,147.36c2.24,1.73-3,18.26-7.06,26.41,12.22,9.93,23.07,19.1,26.41,27.33,8,19.65-1.53,39.92,4,58.35,4.61,15.35-1.55,17.28.62,25.18,4.45,16.21,9.24,32.28-4.27,33.51H256.8c-8.91-3.07,3.7-13.7-3-24.61-3.26-5.29,5.4-13.27,1.23-24.26-2.48-6.51,2.56-34,6.14-56.5,2.11-13.31,12.35-26.07,24.57-38.7-2.77-12.59-11-21.4-8.91-23.34,2.24-2.1,5.54-1.31,8.6,0,3.29-5.58,10.75-3.07,16.58-.3C305.92,148.19,311.64,145.06,314.6,147.36Z"/>
    <path d="M123.89,161.79c10.45,6.76,9.52,8.29,21.19-.31a53.77,53.77,0,0,0,4.3,17.81c27,1.54,53.32,43.6,48.53,79.54-3.69,27.64,6.42,31.95,2.76,45.76-1.1,4.14,2.67,9.86-6.23,13.55H120.07c-9.21-4.3,2-10-2.93-20.92-4.5-9.91,8.94-24.43,1.23-34.4-4.91-6.33,3.37-11.36,4.6-17.5-7.15-1.66-8.84-4.8-6.14-11.36,4.7-11.44-.61-27,14.13-43.3-3.75-3.75-12-5.22-18.43-8.3Z"/>
  </g>
  <path class="fiberDarkest" d="M123.89,161.79c.93,1.53-2.76,16,7.37,1.84,6.51-9.07,12.37-8.34,13.82-2.15,1.1,4.64-15.38,8.9-16,11.67-.32,1.53,5.32,1.95,1.23,5.53-2.45,2.15-7.89,3.37-10.75-1.84-1.81,3.51-4.85,6.31-7.06,5.52S121.75,158.21,123.89,161.79Z"/>
  <g class="sandbagFoldLine">
    <path d="M131.81,176.16a39.73,39.73,0,0,0,6.82,9"/>
    <path d="M123,245.32c13.64,2.57,30.22,3.63,20.42,12.9"/>
    <path d="M285.43,150.73c5.31,1.56,10.93,1.3,10.57,3.54-.91,19.61-.89,38.78,6.39,41.7,4.58.27,1.75-7.95-1-10.69"/>
    <path d="M302,150.43c3.24,1.4,6.36,2.43,9,1.86"/>
  </g>
  <g class="whiteMedium">
    <path d="M310,173.46c1.53.61,1.53,3.07-.92,3.68-4.15,1-19.35,1.85-23.65.93-2.24-.48-2.77-2.46-1.54-3.69a2,2,0,0,1,1.54-3.38,141,141,0,0,0,22.42-.92C310.39,169.75,311.23,172.23,310,173.46Z"/>
    <path d="M153.68,179.29c2.15-.61,4.2,1.51,2.15,3.38a52.78,52.78,0,0,1-24.57,12.9c-1.89.43-3.68-1.84-1.84-3.07-1.84.31-2.58-3-.31-3.69a55.93,55.93,0,0,0,21.5-11.67C152.23,175.77,154.6,177.45,153.68,179.29Z"/>
  </g>
  <g class="stringBorderLine">
    <path d="M310,173.46c-7.07,1.23-19,1.84-26.11.92"/>
    <path d="M153.68,179.29c-6.45,6.45-15.05,10.75-24.26,13.21"/>
  </g>
</svg>
