<svg viewBox="0 0 311.93 305.34">
  <g class="rubberDarker">
    <circle cx="259.07" cy="283.94" r="15.36"/>
    <circle cx="43.47" cy="283.94" r="15.36"/>
  </g>
  <g class="steelDarker">
    <circle cx="259.07" cy="283.94" r="10.03"/>
    <circle cx="43.47" cy="283.94" r="10.03"/>
  </g>
  <g class="brassDark">
    <path d="M246.43,261.68l3.49,14.84a6.82,6.82,0,0,0,1.34,2.69l5.32,6.55a3.08,3.08,0,0,0,5.57-1.82c0-.44-4.08-18.53-4.92-22.26Z"/>
    <path d="M30.82,261.68l3.49,14.84a7,7,0,0,0,1.35,2.69L41,285.76a3.08,3.08,0,0,0,5.57-1.82c0-.44-4.08-18.53-4.93-22.26Z"/>
    <path d="M127.7,183.68l22.35,1.43c-.41,2.25-.82,4.51-1.22,6.76L132.09,191a4.74,4.74,0,0,1-4.38-4.69C127.71,185.23,127.7,184.72,127.7,183.68Z"/>
  </g>
  <g class="rubberDark">
    <circle cx="278.5" cy="289.27" r="15.57"/>
    <circle cx="59.9" cy="289.27" r="15.57"/>
  </g>
  <g class="steelDark">
    <path d="M289.47,30.18c-1.6-.12-3.16-.15-4.77-.12q-13,1-25.89,2c-3.94.19-7.82,2.63-9,6.51-10.71,49.91-20.31,100-29.39,150.26a18.42,18.42,0,0,0,3.87,15Q236,218.49,247.68,233a10.39,10.39,0,0,1,3,6.84q0,6.9.1,13.79-45.12.08-90.26.07c3.89-5.61,3.45-12.13,1.18-18.33q-10.71-24-21.42-48l-9.4-.55q11.1,24.39,22.15,48.81c2.74,6.05,3.15,14.57-3.58,18.1q-57.36,0-114.72-.13a21.32,21.32,0,0,0-10.53,3.65q-6.7,4.18-13.42,8.36a4.75,4.75,0,0,0-2.37,3.83,4.39,4.39,0,0,0,4.14,4.26,4.45,4.45,0,0,0,2.25-.63h0q6.53-4.26,13-8.57a12.56,12.56,0,0,1,7.51-2.6q85.07.28,170.11.16,26.79,0,53.58-.11-.13-12.29-.21-24.57c-.14-3.47-2-6.5-4.06-9.18q-11.78-14.46-23.46-29c-2.35-2.54-2.71-6.15-2.37-9.44,8.63-48.37,17.8-96.65,28-144.71.51-2.56,2-4.43,4.72-4.63q12.51-1.06,25-2.06,9.66,1.19,19.31,2.41l1.23-8.34Q298.37,31.29,289.47,30.18Z"/>
    <circle cx="278.5" cy="289.27" r="10.17"/>
    <circle cx="59.9" cy="289.27" r="10.17"/>
  </g>
  <g class="garbageBags">
    <path class="garbageBagRear" d="M147,44.51a24.08,24.08,0,0,1,10.06-5.73c3.09-.74,5.86-2.94,8.06-5.21A28.37,28.37,0,0,1,173.82,28a11,11,0,0,1-7.24-6.27,12.15,12.15,0,0,0-6.4-6.27,1.91,1.91,0,0,1-1-3.14c1-2,2.77-4.33,5.2-5A4.32,4.32,0,0,0,167.9,3.9c1.07-4.12,2.61-4.41,6-1.33a10,10,0,0,1,3.92,6.61,23.8,23.8,0,0,0,2.2,9,14.12,14.12,0,0,1,1.32,7.13,9.35,9.35,0,0,1,7.15-3.64,14.17,14.17,0,0,1,4.53-4.3c1.39-.88,2.13-.8,2.93-2.49a5.66,5.66,0,0,1,1.84-2.72,7.68,7.68,0,0,0,2.64-4.63c1-4.77,3.68-6.46,7.79-5.43a12.28,12.28,0,0,0,4.85.88c2.22.09,5.2,1.11,5.87,2.79.45,1.67,2.68,2.51,2.87,3.53s-4.19,4-5.73,6.53A6.44,6.44,0,0,1,211.74,19c-2.79.45-3.5,1.89-6.05,2.41s-3.06,1.9-5.11,2.37a10.07,10.07,0,0,0,2.59.93c3.11.88,3.68,3.08,2.5,5.13,2.89-.55,6,.4,5.74,2.83a1.39,1.39,0,0,1,1.41,1.49c1.8,2.35,5.21,3.37,7.83,3.37,4-.06,6.82,2.56,9,6.62a25.21,25.21,0,0,0,6.93,7.74c7.32,5.5,17.71,25.54,21.64,42.11l-14.37,81.84c-5.22,8.69-13.4,14.51-22,14.37l-96.94-5.82Z"/>
    <path class="garbageBagFront" d="M21,60.1c-9.32,5.71-10.3,17-10,30.7a87.71,87.71,0,0,1-2.1,22.11c-1.38,6.47-1.9,12.53.15,16.39a52.09,52.09,0,0,0-4,18,28.14,28.14,0,0,0,3.24,13.86,77.71,77.71,0,0,1,4.52,10.08c1.79,4.29,5.28,6.44,8.72,7.66l101.49,6c6.42-.64,12.79-1.9,15.56-5,1.47-1.73,2.77-2.69,4.5-4.51,6.06-6.57,2-13.41,3.29-15.23,4.3-6,1.46-16.76,2.82-21,2-6.91,0-9.43.42-13.1a20.25,20.25,0,0,0-.1-7.75,20.41,20.41,0,0,1,.31-9.65c.53-2.3.32-4.5.63-7.44.42-4.19-.52-8.8-.1-13,.52-5.25.31-10.49-1.16-13.94a14,14,0,0,1-1.57-6Z"/>
    <path class="bagLiningOuter" d="M95.32,91a109.26,109.26,0,0,1-47-17.08c-5.53-3.5-10.82-6.47-16.36-7.63-11-2-16.79-6.28-13.12-16.1a20.85,20.85,0,0,0,1.33-8.59c-.18-2.4.36-5.1,2.78-6.55-2.71-4.88-2-10.51,5.22-10.78,1.68-.08,3.42-1.19,5.49-2.38,2.21-1,4.5-1.65,7.17-.27a7,7,0,0,0,4.46.93c4.24,0,7.92.88,11.68,1.5a29.85,29.85,0,0,0,13.91-1.7c3.2-1.31,6.35-1.9,9.39-1s7.57.81,12.24.13a19.4,19.4,0,0,1,6,.47c3.62.7,17.85.32,24.56-1a10,10,0,0,1,10.21,3.68,32.08,32.08,0,0,0,6,7.34,10.52,10.52,0,0,1,3,4,6.15,6.15,0,0,0,2.81,2.93c5.53,3.58,8.38,8.18,3.2,14.14,1.14,1.28,1.23,3.12.93,5.14s.71,4.43,1.4,6.31a4.8,4.8,0,0,1-2.36,5.56,6.57,6.57,0,0,0-2.87,3.26c-.68,1.61-1.45,2.37-3.54,3.35C138,78.26,132.3,82.58,127,85.86a38.64,38.64,0,0,1-13.79,4.41,32,32,0,0,0-5.36,1C104.48,92.17,100.22,91.65,95.32,91Z"/>
    <g class="bagFoldLine">
      <path d="M23,35c1.05,2.33-1,5,2.13,7.7"/>
      <path d="M25.15,28.5c-2.66.36.57,4.24,1.33,6.7"/>
      <path d="M57,24c5.58,1.64,9.88,1.53,14.87,3.81"/>
      <path d="M81.06,21.51a29.22,29.22,0,0,1,9.58,3.72"/>
      <path d="M88.65,64.34c-4,2.61-7.65,4.06-5-.6"/>
      <path d="M148.26,53.05a23.3,23.3,0,0,1-5.57,4.41"/>
      <path d="M167.46,5.07c0,3.27,4.14,3.68,6.36,10"/>
      <path d="M162.86,35.67c-4.83,5.11-6,14.45-5.57,23.65"/>
      <path d="M9.08,129.3c1.21,2.25,3.09,3.81,3.93,6.06"/>
      <path d="M149.22,139.22c-1.48,3-4.26,5.51-6.21,8.4"/>
      <path d="M146.4,160.18a22.47,22.47,0,0,0-2.89,3.72"/>
      <path d="M176.48,27c-2.33-5.58-4.95-10.89-9-13.76-1.87-1.28-2.79-.41-1.53,1.34"/>
      <path d="M197.67,31.78a3,3,0,0,0,2-2.94"/>
      <path d="M211.41,32.71a4.39,4.39,0,0,1-2.18,3.37"/>
      <path d="M212.82,34.2a3.68,3.68,0,0,1-.86,2.26"/>
    </g>
    <g class="bagCreaseLine">
      <path d="M32.4,163.07a3.63,3.63,0,0,0-3.94-.84c-2.09.72-4.89-.42-7.81,3.46"/>
      <path d="M86.19,170.21c-5.8.83-13.43,2.1-14.12,0-.41-1.28,2.43-2.93,4.93-3.56"/>
      <path d="M129.45,175.08c-7.75,2-20.41,3-21.18,1.35-.42-1.25,2.16-3.46,4.93-4.25"/>
      <path d="M116.41,162.23c5.59.63,13.81,2,13.6,3.3s-2.48,1.5-4.64,1.13"/>
      <path d="M23.07,76.66c2.66,2.09,5.51,5.15,3.88,7.21-1.69,1.61-5.81.47-9.26-.86"/>
      <path d="M23.87,102.85c7.93,5,15.78,9.81,23.86,13.47,3.46,1.58,6.13,3.22,5.77,5.13-.57,1.76-5.32,3-8.85,3"/>
      <path d="M25.1,146.85c10.52,3.51,23.72,5.84,36.75,7.35"/>
      <path d="M39.63,50.32c6.54.92,15.56,1.94,15.54,4.5-.28,2.2-5.35,1.59-7.52,2.84"/>
      <path d="M27.79,54.37c-2.71-.77-5.18-1.44-5.47.22C22,57.4,29.59,60,32.9,63.15"/>
      <path d="M86.37,142.73c-4.17-1.72-9.09-3.66-10.6-2-.89,1.52,5.3,5.3,8.45,9.09"/>
      <path d="M66.68,117.37c6.44,6.31,18.68,15.14,17.29,17.29-1,1.64-8.45-1.64-12-2.27"/>
      <path d="M137.24,134.53a28,28,0,0,1-16.77,7.62c-8.13,1-14.54,2.43-18.12,4.4"/>
      <path d="M140.86,70.21c-1.48,2.61-2.86,3.75-4.64,4.37a10.72,10.72,0,0,0-6.43,5.25"/>
      <path d="M64,63.91c-2.67-.11-4.73.74-3.64,3.24s11,5.41,17.51,9"/>
      <path d="M140.59,107.37c-4.67,4.63-8.44,9.94-4.76,16"/>
      <path d="M145,84.77c-1.52,9.56-4.22,17.52-9.19,10.49"/>
      <path d="M125.36,61a46.71,46.71,0,0,1-21.48,6.85"/>
      <path d="M116.18,74.65c3.46-.51,6.8-.92,7.46.62.26,1.49-6.62,3.32-11.36,5.76a25,25,0,0,1-10.58,2.33"/>
      <path d="M60.43,76.49C67.51,78,72.74,82,75.48,82.18c2.84.3,6.22,2.18,9.19,2.43,3.18.3,8.5,3.14,12.36,3.65,2.73.28,5.63,2,7.85,1.94a6.59,6.59,0,0,1,4,.75"/>
      <path d="M70,86.72c-2.13.37-3.06,2.59-1.3,4.23,7.23,7.08,20.42,12.61,33,18.29"/>
      <path d="M127.54,123.89c-1.75-3.33-4.64-6.21-7.6-5.47C112.8,119.9,102.37,120.1,96,118"/>
      <path d="M37.15,84.86c3.67.45,7.08,1.21,9.46,3.8,4.61,5.15,9.5,10.21,7.78,12.89-2.18,3.43-4,4.32-5.47,2.87"/>
      <path d="M52.06,90.52c4.46,6.29,11.48,12.75,20.78,19.37"/>
      <path d="M234.85,168.11c3.24-3.33,6.4-6.43,8-5,1.57,1.57-6.87,14.61-13.84,21.23"/>
      <path d="M203.13,180.65c-5.29-1.05-13.5-7.54-15.29-5.82s2.31,8.43,9,11.94"/>
      <path d="M182.47,158.34c2.18,1,5.07,3.14,3.88,4.78-1.27,1.34-11.91,1.73-20.22,1.27"/>
      <path d="M210.92,143.32c-3.12,3.13-8.26,5.79-14.4,8.21"/>
      <path d="M226.39,115.87c-2.43,8.77-4.91,16.8-7.53,22.74-2,4.44-4,8.61-7.81,11.17"/>
      <path d="M230.83,139a152.08,152.08,0,0,0-7,16.54"/>
      <path d="M173.1,137.64c-3.9-7.51-9.89-8.47-12.77-.39"/>
      <path d="M156.1,133.13c2.43-3.78,4.8-7.63,7.79-8.42,5.37-1,14.87,6.3,23.22,13.5"/>
      <path d="M182.57,114.07c-.55,3.78-1.3,7.33-3.84,8.92"/>
      <path d="M211.32,110.38c-4.26-.69-9.86-5.25-13.84-9.07-2.47-2.39-6.18-1.54-7.53,2-1.79,4.5-2.73,11.25-2.61,18.14"/>
      <path d="M193.35,80.15c1,7.74,3.08,14.37,7.65,18.66"/>
      <path d="M162.73,79.21c-2,9.58-3,21.81-6.49,24.32-2.73,2.1-3.88,3.25-4.09,4.51"/>
      <path d="M250.9,98.19c-1-4.15-2.41-9.33-5.34-9.23-2.1.11-1.89,16.46-1.16,28"/>
      <path d="M205.72,68.62c-.55-2.69-.94-5.29.94-5.66,3.1-.5,8.67,7.14,12.79,14.15"/>
      <path d="M189.47,47.69c1.28,5.53,8.93,13.81,6.91,16.36-1.28,1.38-4.15-1.17-6.27-2.33"/>
      <path d="M163.66,54.28c-.54-2.36-.87-9.1,1.48-9s8.94,21.31,14,24.71"/>
      <path d="M177.85,31.44c-4.15-1-6.18,2.8-4.73,7.82"/>
      <path d="M189.93,24.19a8.84,8.84,0,0,1-5.41,5.7"/>
      <path d="M194.08,26c.58-1.45,1.65-3.19,2.9-2.51,1.16.87-1.35,4.73-4.25,7.05"/>
      <path d="M209.66,15.82c1.53-.6,3.28-1.62,1.91-2.92s-5.88,3.72-10,5.39"/>
      <path d="M209.21,7.68c.14-1.13-.78-1.67-1.54-.88-1.25,1.28-2.77,4.24-4.4,5.71"/>
    </g>
    <g class="bagOverlapLine">
      <path d="M200.58,23.82c-1.35-2.22-5.11-3.55-7.62-2.22-1.72.79-2.64-.33-4.43,0"/>
      <path d="M173.82,28c2.16-.61,3.88-2.2,6.65-1.34"/>
      <path d="M181.38,25.27a10.39,10.39,0,0,0-1.7,3.39"/>
      <path d="M205.67,29.88c-2.12,2.12-5.61,4.22-8,1.9-3.41,1.18-7.81.7-10.14-.94-2.19.58-5-.11-6-1.53"/>
      <path d="M218.92,65.7a59.48,59.48,0,0,0-10.73-10.65C200,48.41,194.34,39.2,197.67,31.78"/>
      <path d="M226.08,44.39c-1.26-2.69-3.37-3.54-5.56-2.78-8.69,3.12-17.37,5.23-22.75.17"/>
    </g>
    <path class="bagLiningInner" d="M76.88,29.88c-3.25,3.15-12.79-1.05-20.67.48-5.75,1-12.59-.32-21.37-3.72-2.79-1.07-5.92-.18-4.6,3.39,1.3,3.36,2.31,6.57,1.82,9.24-.26,2.83,2.7,5.14,6.95,5.23,8.78.15,18.19,1.36,24.77,4.27a48.76,48.76,0,0,0,9.75,3.51c7.28,1.43,7.55,4.34,11.18,5.66s4.36,3.44,3.94,6.4c3-2,6.9-2.58,11.19-2,3.35.57,6.17-.32,9.54-1.56a104.31,104.31,0,0,0,17.49-8.66,23,23,0,0,1,7.84-3.42c5.79-1.53,8.2-6.52,4.86-11.15a31.67,31.67,0,0,0-6.14-7c-1.33-1.18-2.5-2.3-2.51,0A41,41,0,0,0,132.68,39c-2.25-2.32-4-6-5.76-9.24-1.91-3.47-6-.57-9.48,1.38a16,16,0,0,1,5.48-5.37c2.17-1.38-.24-2.55-4.34-.92-7.88,2.9-14.38,4.65-20.24,2.8C95.54,31.24,82.23,24.53,76.88,29.88Z"/>
    <path class="bottlePurpleMedium" d="M74.34,43.48a6.81,6.81,0,0,0-4.4-1.75l-4.77,7.65a43.21,43.21,0,0,0,8.36,2.9,16.06,16.06,0,0,1,8.42,4,10.38,10.38,0,0,0,3.1-4.48Z"/>
    <path class="bottlePurpleLight" d="M71.72,42.43c-2.08-1.68-6-.32-8.66,3a12,12,0,0,0-1.53,2.43c.78.27,1.53.57,2.25.88a70.93,70.93,0,0,0,6.83,2.73C73.3,48.16,73.79,44.1,71.72,42.43Z"/>
    <g class="bottleGreen">
      <path d="M120.5,48.8c-4.27,2.1-7.63,4.67-11.66,3.48-4.76-1.36-14.66,3.7-21.2,7.53a5.37,5.37,0,0,1,1,4.53c3-2,6.9-2.58,11.19-2,3.35.57,6.17-.32,9.54-1.56a111.91,111.91,0,0,0,14.87-7.06C123.63,51.84,122,49.37,120.5,48.8Z"/>
      <path d="M51.89,40.49c-1.73-.25-5.81,1.79-6.63,3.67.13.3.2.48.27.65A75.87,75.87,0,0,1,56.78,46.5,32.09,32.09,0,0,1,51.89,40.49Z"/>
    </g>
    <path class="bottleLabel" d="M102.92,52.71A7.73,7.73,0,0,1,107,57.05l-9.19,4a8.72,8.72,0,0,0-4.33-4.42A53.2,53.2,0,0,1,102.92,52.71Z"/>
    <path class="bottleMagenta" d="M92.28,40.58c-2.34,4.45-4.93,9.34-7.79,10.21a6.85,6.85,0,0,0-4.37,4.09c1.64,1.16,2.62,2.34,4.59,3.06,3.49,1.32,4.36,3.44,3.94,6.4a15.64,15.64,0,0,1,10.27-2.07,7.19,7.19,0,0,0-.3-6.41c-1.38-2.93-.44-7.26,1.11-12.17C98.8,42.07,94.39,40,92.28,40.58Z"/>
    <g class="bottleCapSilver">
      <path d="M45.26,44.16c-.94-.22-2.35-2.58-1.89-3.66.73-1.91,4.35-3.86,6.42-3.54.94.17,2.32,2.73,2.1,3.53C49.87,40.34,46.05,42.49,45.26,44.16Z"/>
      <path d="M128.49,51.15c-.51-2-2.15-4.31-3.7-4.82-1.11-.42-4.1,1.51-4.29,2.47,1.35.57,3.06,3,3.72,5,1-.57,1.89-1.11,2.65-1.61C127.43,51.79,128,51.46,128.49,51.15Z"/>
    </g>
    <path class="bottleCapGold" d="M92.28,40.58c-.44-.93.59-3.66,1.8-4,2.08-.66,6.1,1.07,7.21,3,.48.9-.74,3.75-1.56,4.1C98.52,41.9,94.2,40.14,92.28,40.58Z"/>
    <g class="bottleCapCreaseLine">
      <path d="M51.67,39.29A8.57,8.57,0,0,0,46.85,41"/>
      <path d="M121.55,47.56a7.68,7.68,0,0,1,3.34,3.71"/>
    </g>
  </g>
  <g class="brassMedium">
    <path d="M265.68,266.7l3.54,15.05a7.06,7.06,0,0,0,1.36,2.74l5.4,6.63a3.12,3.12,0,0,0,5.64-1.85c0-.43-4.14-18.78-5-22.57Z"/>
    <path d="M47.09,266.7l3.54,15.05A6.92,6.92,0,0,0,52,284.49l5.39,6.63A3.13,3.13,0,0,0,63,289.27c0-.43-4.14-18.78-5-22.57Z"/>
    <path d="M149.69,193q44.63,2.31,89.23,4.82c-.3-2.52.77-7.08,1-8.24q-47.29-2.75-94.59-5.24v4A4.75,4.75,0,0,0,149.69,193Z"/>
  </g>
  <g class="steelMedium">
    <path d="M267.33,50.87q-29.85,2.46-59.64,5.35C144.85,62.33,82.14,69.88,19.57,78.37q.38,11.13.68,22.25C81,95,141.78,90.17,202.63,86.46q28.89-1.75,57.81-3.19c-.26,1.27-.53,2.54-.79,3.81q-28.8,1.4-57.58,3.12C141.43,93.83,80.85,98.55,20.35,104q.28,11.12.53,22.22,88.37-4.45,176.82-6.82,27.83-.72,55.67-1.2c-.28,1.44-.43,2.16-.71,3.6q-27.91.48-55.82,1.19-88,2.25-175.89,6.68.23,11.12.38,22.23,85.56-.19,171.12,1.17,27,.43,54,1c-.28,1.46-.42,2.19-.69,3.64q-26.91-.58-53.82-1-85.26-1.43-170.56-1.32.14,11.07.23,22.16,61.86,3.06,123.7,6.76v3.33Q83.49,184,21.63,180.84,12.3,179.72,3,178.62,2.53,127.29.52,76L19.4,75C82.07,66.4,144.88,58.77,207.82,52.61q30.12-2.94,60.31-5.43ZM18,155.29l-12-.66q.17,10.58.26,21.15l11.92,1.37Q18.1,166.22,18,155.29Zm-.44-25.51-12-.07q.24,10.86.41,21.7l12,.5Q17.75,140.84,17.52,129.78Zm-.61-25.56-12,.13q.33,11,.59,22l12-.1Q17.21,115.22,16.91,104.22Zm-.8-25.52L4,79.29q.4,10.84.75,21.69l12-.29Q16.5,89.7,16.11,78.7Z"/>
    <path d="M307.26,32.43c-9.47.42-19.12,1.34-28.67,2.11-4,.18-7.93,2.6-9.11,6.55-11.15,50.42-21,101.12-30.22,151.94a17.6,17.6,0,0,0,3.93,15.22Q255,223,266.9,237.69A10.49,10.49,0,0,1,270,244.6q.06,7,.14,13.94-45.78.13-91.56.15c3.93-5.7,3.47-12.31,1.17-18.59Q169.31,216.81,159,193.49l-9.26-.52-.32,0q10.78,23.7,21.57,47.4c2.77,6.14,3.23,14.76-3.61,18.35q-58.19,0-116.36-.13a21.58,21.58,0,0,0-10.68,3.7q-6.8,4.26-13.61,8.5a5,5,0,0,0-2.4,3.89A4.4,4.4,0,0,0,28.49,279a4.23,4.23,0,0,0,2.27-.64h0Q37.39,274,44,269.64A12.76,12.76,0,0,1,51.61,267q86.06.3,172.12.11,27.39-.06,54.79-.18-.18-12.42-.28-24.84c-.15-3.51-2.06-6.58-4.14-9.29q-12-14.61-23.82-29.3c-2.38-2.57-2.75-6.22-2.4-9.55C256.62,145,266,96.19,276.66,47.63c.54-2.59,2-4.47,4.81-4.66q12.67-1,25.36-2a4.49,4.49,0,0,0,4.6-4.12C311.53,34.74,309.56,32.33,307.26,32.43Z"/>
  </g>
</svg>
