<svg viewBox="0 0 2295.72 2247.23">
    <g class="wheelRear">
        <circle cx="1908.44" cy="2091.98" r="113.29"/>
        <circle cx="317.87" cy="2091.98" r="113.29"/>
    </g>
    <g class="hubRear">
        <circle cx="1908.44" cy="2091.98" r="74"/>
        <circle cx="317.87" cy="2091.98" r="74"/>
    </g>
    <g class="swivelRear">
        <path d="M1815.18,1927.76l25.75,109.49a50.84,50.84,0,0,0,9.93,19.9l39.24,48.27a22.74,22.74,0,0,0,41.08-13.44c0-3.18-30.12-136.7-36.33-164.22Z"/>
        <path d="M224.61,1927.76l25.74,109.49a51,51,0,0,0,9.94,19.9l39.24,48.27A22.74,22.74,0,0,0,340.61,2092c0-3.18-30.12-136.7-36.33-164.22Z"/>
    </g>
    <path class="cartRear" d="M1969.35,372.6Q1010,436.33,27,582.29C20.59,836.7,24,1076.93,43.43,1294.12c26.32,34.82,1158.64,93.8,1723.53,101.51Z"/>
    <path class="mountRear" d="M939.31,1352.38q82.43,5.22,164.82,10.55-4.47,24.93-9,49.86-61.76-3.39-123.51-6.73c-16.93-1.13-33.51-16.87-32.32-34.59C939.33,1363.83,939.32,1360,939.31,1352.38Z"/>
    <path class="barRear" d="M2132.74,219.93c-11.87-.83-23.35-1.11-35.25-.87q-95.52,7.23-191,15.08c-29,1.39-57.7,19.36-66.06,48-79,368.15-149.83,738-216.81,1108.49-6.64,40.72,2.53,79,28.56,111q85.85,107.52,172.22,214.63c12.92,14.26,22,30.81,22.3,50.46q.32,50.85.74,101.69-332.92.55-665.86.54c28.66-41.42,25.41-89.54,8.71-135.26q-79.11-177.11-158.08-354.28l-69.32-4.09q81.89,180,163.44,360.11c20.14,44.62,23.2,107.46-26.46,133.51q-423.17,0-846.34-.94c-28,1.61-54.29,11.48-77.64,26.89q-49.47,30.94-99,61.71c-9.93,6.05-17.35,16.83-17.49,28.22-.19,15.34,14,31.52,30.58,31.42a32.17,32.17,0,0,0,16.57-4.63h0q48.2-31.45,96.21-63.19c15.66-11.88,35.71-19.33,55.43-19.24q627.48,2.17,1254.95,1.24,197.61-.26,395.23-.81-1-90.64-1.53-181.28c-1-25.58-14.89-48-30-67.76Q1790,1574,1703.76,1466.85c-17.27-18.76-19.93-45.34-17.44-69.62,63.66-356.85,131.27-713,206.68-1067.56,3.81-18.89,14.65-32.66,34.87-34.18q92.27-7.86,184.57-15.17,71.22,8.78,142.41,17.79,4.53-30.78,9.12-61.53Q2198.38,228.15,2132.74,219.93Z"/>
    <path class="bagRear" d="M1081.75,325.65c21.67-19,44.42-34.68,74.22-42.26,22.76-5.42,43.2-21.71,59.45-38.42,16.32-16.23,38.21-29.6,64.07-40.94-25.44-7.35-42.77-23.26-53.39-46.27-10.42-22.88-26.88-37.27-47.17-46.28-11-4.71-13.75-13.38-7.12-23.14,7.33-14.5,20.46-32,38.34-36.83,16.25-4.34,21.71-12.11,25.74-25.46,7.85-30.35,19.23-32.52,44.49-9.79,17.08,14.15,27.08,30.6,28.92,48.79,1.92,22.69,5.56,44.81,16.25,66.1,7.56,18,12,36.59,9.75,52.55,12-15.74,32-26.55,52.76-26.83,8.6-11.93,16.59-21.39,33.39-31.68,10.29-6.5,15.71-6,21.67-18.42,2.71-8.67,6.5-13.55,13.54-20,10.84-8.67,15.71-19,19.51-34.13,7-35.22,27.08-47.68,57.42-40.09,10.84,3.79,21.13,7,35.76,6.5,16.41.67,38.38,8.18,43.35,20.59,3.28,12.34,19.78,18.53,21.12,26,.72,7.66-30.88,29.26-42.25,48.22-9.21,14.63-18.37,20.67-32.29,24-20.55,3.31-25.86,13.92-44.65,17.73C1496.3,159,1492.08,169.59,1477,173c6.51,2.64,10.6,5.49,19.13,6.88,22.89,6.52,27.15,22.73,18.42,37.84,21.29-4.05,43.91,3,42.32,20.91,7.62,1,10.44,5.1,10.46,10.95,13.24,17.36,38.37,24.9,57.75,24.89,29.57-.44,50.27,18.87,66.21,48.79,11.9,21.07,27.51,38.93,51.14,57.17C1796.41,421,1873,568.86,1902,691.1l-106,603.76c-38.54,64.11-98.85,107-162.34,106l-715.12-42.93Z"/>
    <path class="bagFront" d="M152,440.66C83.2,482.81,76,565.88,78.59,667.19c1,57.58-3.25,112.42-15.53,163.06-10.19,47.78-14,92.46,1.11,120.91C46.81,990.87,36.62,1039.45,34.7,1084c-1.8,35,8.23,71.89,23.92,102.29,14.7,26.46,23,48.42,33.28,74.31,13.23,31.67,39,47.57,64.34,56.57L905,1361.57c47.34-4.67,94.37-14,114.81-37,10.86-12.78,20.44-19.8,33.21-33.21,44.71-48.55,14.69-99,24.27-112.42,31.71-44.07,10.75-123.64,20.81-154.57,14.69-51,0-69.59,3.09-96.65,2.65-21.38,3.86-39.44-.78-57.22s-4.63-44.08,2.32-71.14c3.87-17,2.32-33.25,4.64-54.9,3.1-30.93-3.86-65-.77-95.88,3.87-38.66,2.32-77.33-8.5-102.84-7.32-13.33-10.68-28.22-11.6-44.08"/>
    <path class="bagLiningOuter" d="M700.44,668.43c-118.64-15.25-233.77-52.26-346.64-126-40.74-25.82-79.82-47.77-120.64-56.29-80.92-14.43-123.86-46.38-96.79-118.76,6.67-19.05,11.41-39.45,9.75-63.42-1.32-17.65,2.68-37.6,20.54-48.27-20-36-14.78-77.57,38.49-79.55,12.4-.58,25.22-8.79,40.49-17.56,16.31-7.36,33.26-12.19,53-2,8.72,5.13,16.41,7.69,32.89,6.88,31.23-.22,58.42,6.45,86.13,11.07,28.73,5.13,76.95-1.54,102.66-12.53,23.6-9.72,46.82-14.05,69.28-7.32,22.49,6,55.84,6,90.25,1,13.81-2.16,28.16.83,44,3.41,26.66,5.2,131.7,2.36,181.18-7.11,29.76-6.16,58.81,4.73,75.32,27.11a236,236,0,0,0,43.91,54.15c9.64,9.06,19,18.83,22.36,29.55,3.08,8.72,10.81,15.33,20.79,21.63,40.76,26.39,61.83,60.32,23.57,104.26,8.46,9.49,9.06,23,6.88,37.93-1.47,15.74,5.2,32.67,10.33,46.52,4.47,16.63-2.39,32.21-17.39,41.08-10.42,7-18.47,14.76-21.19,24-5,11.86-10.67,17.51-26.14,24.73C1015.3,574.69,973.23,606.5,934,630.74c-34.08,18.85-72,29.11-101.72,32.5-15.48,1.76-29.47,3.91-39.56,7.06C768,677.29,736.54,673.42,700.44,668.43Z"/>
    <g class="bagFoldLine">
        <path d="M166.66,255.69c7.76,17.14-7.49,37.21,15.68,56.75"/>
        <path d="M182.77,207.54c-19.62,2.65,4.21,31.32,9.81,49.44"/>
        <path d="M417.63,174.53c41.19,12.1,72.91,11.25,109.7,28.11"/>
        <path d="M595.23,156q41.85,9.06,70.66,27.43"/>
        <path d="M651.23,471.94c-29.15,19.3-56.44,30-36.86-4.43"/>
        <path d="M1091,388.66a171.44,171.44,0,0,1-41.08,32.57"/>
        <path d="M1232.61,34.72c-.06,24.12,30.56,27.17,46.88,73.57"/>
        <path d="M1198.69,260.45c-35.64,37.7-44.45,106.59-41.13,174.45"/>
        <path d="M64.17,951.16c9,16.62,22.84,28.17,29,44.72"/>
        <path d="M1098.07,1024.41c-10.94,22-31.47,40.59-45.87,61.93"/>
        <path d="M1077.26,1179a162.84,162.84,0,0,0-21.33,27.5"/>
        <path d="M1299.13,196.24C1282,155,1262.62,115.87,1232.61,94.72c-13.79-9.48-20.61-3-11.32,9.89"/>
        <path d="M1455.5,231.77c10.77-4.66,15.14-12.17,15-21.69"/>
        <path d="M1556.82,238.65c-.53,9.71-6.87,19.21-16.07,24.83"/>
        <path d="M1567.28,249.6a27.69,27.69,0,0,1-6.35,16.69"/>
    </g>
    <g class="bagCreaseLine">
        <path d="M236.21,1200.3c-8.8-7-16.28-10.56-29-6.16-15.4,5.28-36.08-3.08-57.63,25.52"/>
        <path d="M633.05,1253c-42.81,6.14-99,15.5-104.18,0-3-9.46,17.92-21.63,36.41-26.3"/>
        <path d="M952.19,1288.92c-57.2,15-150.59,22.23-156.25,10-3.1-9.22,15.94-25.54,36.39-31.39"/>
        <path d="M856,1194.16c41.28,4.63,101.92,14.36,100.33,24.32-1,9.24-18.24,11-34.2,8.36"/>
        <path d="M167.42,562.88c19.63,15.41,40.64,38,28.58,53.19-12.45,11.83-42.84,3.45-68.28-6.35"/>
        <path d="M173.32,756.06c58.46,36.6,116.38,72.37,176,99.36,25.55,11.65,45.24,23.81,42.58,37.85-4.2,13-39.25,22.48-65.29,21.76"/>
        <path d="M182.4,1080.65c77.62,25.88,175,43.13,271.06,54.22"/>
        <path d="M289.59,368.5c48.24,6.8,114.78,14.32,114.59,33.27-2.06,16.17-39.43,11.69-55.45,20.94"/>
        <path d="M202.21,398.44c-20-5.73-38.22-10.62-40.35,1.59-2.16,20.76,53.63,39.82,78,63.18"/>
        <path d="M634.37,1050.29c-30.77-12.73-67-27-78.2-14.89-6.52,11.17,39.1,39.1,62.37,67"/>
        <path d="M489.14,863.18c47.48,46.54,137.78,111.71,127.54,127.53-7.45,12.11-62.37-12.1-88.44-16.75"/>
        <path d="M1009.66,989.78c-32,30.57-72.32,50.47-123.68,56.22-60,7.66-107.31,17.92-133.68,32.48"/>
        <path d="M1036.36,515.24c-10.93,19.26-21.09,27.72-34.2,32.29-22.73,6.09-39.36,23.36-47.47,38.73"/>
        <path d="M469.53,468.78c-19.74-.79-34.94,5.45-26.91,23.93s81.34,39.88,129.19,66.2"/>
        <path d="M1034.36,789.38c-34.43,34.16-62.21,73.37-35.09,118"/>
        <path d="M1067.05,622.71c-11.2,70.52-31.1,129.19-67.78,77.35"/>
        <path d="M922,447c-48.06,29.13-100.56,46.78-158.43,50.51"/>
        <path d="M854.27,548c25.59-3.74,50.17-6.75,55.1,4.59,1.9,11-48.85,24.5-83.8,42.48C800.93,607,774.7,611.75,747.5,612.28"/>
        <path d="M443.05,561.56c52.22,11.33,90.79,41,111,42,21,2.18,45.85,16.08,67.8,17.89,23.47,2.2,62.69,23.19,91.18,27,20.14,2.06,41.5,14.44,57.88,14.28a49.06,49.06,0,0,1,29.34,5.55"/>
        <path d="M513.38,637.05c-15.73,2.73-22.57,19.15-9.57,31.22,53.35,52.26,150.63,93.07,243.69,135"/>
        <path d="M938.08,911.29C925.2,886.7,903.89,865.47,882,870.94c-52.66,10.94-129.58,12.41-176.44-3.42"/>
        <path d="M271.28,623.37c27.11,3.29,52.21,8.91,69.76,28,34,37.94,70.14,75.33,57.45,95.06-16.13,25.28-29.51,31.86-40.35,21.2"/>
        <path d="M381.25,665.09C414.2,711.5,465.93,759.18,534.55,808"/>
        <path d="M1729.77,1237.51c23.91-24.58,47.23-47.44,59.17-37.12,11.6,11.6-50.72,107.76-102.09,156.61"/>
        <path d="M1495.78,1330c-39.08-7.7-99.62-55.59-112.83-42.93-13.21,13.76,17.06,62.2,66.6,88.06"/>
        <path d="M1343.32,1165.44c16.09,7.7,37.43,23.12,28.62,35.23-9.36,9.91-87.82,12.75-149.16,9.35"/>
        <path d="M1553.21,1054.63c-23,23.1-61,42.68-106.21,60.55"/>
        <path d="M1667.36,852.14c-17.95,64.64-36.26,123.92-55.59,167.75-14.89,32.75-29.45,63.51-57.57,82.38"/>
        <path d="M1700.11,1022.86c-21.93,46-40.35,88-51.61,122.09"/>
        <path d="M1274.2,1012.75c-28.76-55.42-72.92-62.5-94.18-2.92"/>
        <path d="M1148.77,979.41c18-27.81,35.42-56.25,57.51-62.08,39.58-7.5,109.67,46.45,171.25,99.59"/>
        <path d="M1344.09,838.86c-4.07,27.85-9.64,54-28.35,65.78"/>
        <path d="M1556.15,811.65c-31.4-5.13-72.7-38.8-102.06-66.91-18.23-17.68-45.62-11.4-55.57,14.74-13.21,33.14-20.13,83-19.28,133.82"/>
        <path d="M1423.58,588.63c7.13,57,22.74,106,56.46,137.67"/>
        <path d="M1197.75,581.67c-15.13,70.65-22.43,160.87-48,179.43-20.11,15.47-28.62,24-30.16,33.25"/>
        <path d="M1848.18,721.65c-7.18-30.55-17.79-68.83-39.44-68-15.47.77-13.92,121.42-8.51,206.49"/>
        <path d="M1514.84,503.55c-4-19.84-6.94-39,7-41.76,22.87-3.69,64,52.68,94.35,104.41"/>
        <path d="M1395,349.16c9.4,40.75,65.83,101.88,50.94,120.69-9.4,10.19-30.56-8.62-46.24-17.24"/>
        <path d="M1204.55,397.75c-4-17.4-6.39-67.15,11-66.62,16.21.69,66,157.21,103.57,182.28"/>
        <path d="M1309.27,229.24c-30.65-7.13-45.61,20.67-34.92,57.73"/>
        <path d="M1398.36,175.78c-6.1,19.24-19,33.57-39.91,42.05"/>
        <path d="M1429,189.32c4.28-10.69,12.12-23.52,21.38-18.53,8.56,6.42-10,34.93-31.36,52"/>
        <path d="M1543.94,114.05c11.24-4.42,24.21-12,14.08-21.54-10.4-9.91-43.37,27.39-73.72,39.76"/>
        <path d="M1540.59,54c1.06-8.33-5.74-12.32-11.35-6.49-9.18,9.43-20.45,31.26-32.43,42.16"/>
    </g>
    <g class="bagOverlapLine">
        <path d="M1477,173c-9.93-16.39-37.71-26.14-56.23-16.39-12.67,5.85-19.5-2.44-32.66.24"/>
        <path d="M1279.49,204c16-4.51,28.65-16.21,49.12-9.88"/>
        <path d="M1335.3,183.7a75.61,75.61,0,0,0-12.54,25.08"/>
        <path d="M1514.5,217.74c-15.66,15.64-41.38,31.15-59,14-25.15,8.69-57.63,5.15-74.81-7-16.17,4.27-37.18-.77-44.33-11.28"/>
        <path d="M1612.21,482a438.3,438.3,0,0,0-79.12-78.54c-60.23-49-102.15-116.91-77.59-171.66"/>
        <path d="M1665.07,324.82c-9.33-19.9-24.88-26.12-41-20.52-64.06,23-128.11,38.56-167.78,1.24"/>
    </g>
    <path class="bagLiningInner" d="M564.38,217.75C540.4,241,470,210,411.91,221.31c-42.45,7.27-92.9-2.37-157.66-27.49-20.6-7.89-43.7-1.29-33.95,25.06,9.56,24.79,17,48.44,13.42,68.1-1.94,20.93,20,38,51.26,38.62,64.81,1.08,134.18,10,182.72,31.53,23.65,10.28,45.87,20.38,71.95,25.88,53.74,10.56,55.69,32,82.46,41.71,25.79,9.73,32.22,25.44,29.12,47.22,22.06-14.34,50.85-19,82.55-14.39,24.69,4.21,45.48-2.3,70.39-11.47,45.18-17,100-45,129-63.87C952,369.35,967.14,363.38,991,357c42.71-11.27,60.47-48.07,35.83-82.23-10.39-18.1-26.31-33.8-45.28-51.45-9.84-8.68-18.49-17-18.54,0,1.16,14.49,5.47,37.66,13,61.37-16.62-17.12-29.64-44.18-42.51-68.11-14.07-25.65-44.35-4.27-69.95,10.11,10.62-18,25.17-29.83,40.45-39.61,16-10.16-1.81-18.78-32-6.74-58.16,21.37-106.12,34.3-149.35,20.61C702.06,227.81,603.83,178.3,564.38,217.75Z"/>
    <path class="bottleMiddleSide" d="M545.65,318.05c-14.55-11.72-26.55-12.94-32.5-12.89L478,361.6c19.94,8.65,39.41,16.71,61.69,21.41,36.76,7.22,49.29,19.52,62.1,29.69,9.77-7.72,17.29-18.7,22.88-33Z"/>
    <path class="bottleMiddleBottom" d="M526.31,310.31C511,297.94,482.37,308,462.43,332.69a88.65,88.65,0,0,0-11.27,17.89c5.73,2,11.26,4.22,16.54,6.55,16.9,7.35,33.08,14.59,50.45,20.14C537.94,352.58,541.61,322.65,526.31,310.31Z"/>
    <g class="bottleRear">
        <path d="M886.21,357.29c-31.52,15.53-56.35,34.52-86.05,25.72C765.07,373,692,410.29,643.79,438.57c7.63,8.83,9.35,19.94,7.44,33.37,22.06-14.34,50.85-19,82.55-14.39,24.69,4.21,45.48-2.3,70.39-11.47,36.49-13.73,79.28-34.65,109.64-52.12C909.23,379.77,897.07,361.5,886.21,357.29Z"/>
        <path d="M380,296.05c-12.77-1.91-42.89,13.17-49,27,1,2.21,1.49,3.52,2,4.8,28.7,2.29,57.08,6.31,83,12.45C403.83,329.54,392,313.86,380,296.05Z"/>
    </g>
    <path class="labelRear" d="M756.45,386.19c14.43,5.61,24.65,18.28,30.41,32l-67.75,29.24c-7.72-15.35-17.9-26.61-32-32.65C710.14,402.81,733.24,393,756.45,386.19Z"/>
    <path class="bottleFront" d="M678,296.7c-17.25,32.8-36.4,68.92-57.44,75.31-18.31,6.37-26.29,16.87-32.28,30.18,12.12,8.55,19.34,17.25,33.85,22.53,25.79,9.73,32.22,25.44,29.12,47.22,20.46-13.3,46.73-18.26,75.74-15.23,5.55-16,7.13-30.85-2.23-47.3-10.18-21.59-3.26-53.56,8.24-89.79C726.1,307.7,693.57,292.58,678,296.7Z"/>
    <path class="labelFront" d="M684.25,417.78l-22.89,48.48c18.67-9,41.09-12.08,65.45-9.57,1.13-3.21,2.12-6.32,2.91-9.28C722.25,437.72,703,423,684.25,417.78Z"/>
    <g class="bottleCap">
        <path d="M678,296.7c-3.23-6.86,4.39-27,13.28-29.46,15.33-4.9,45,7.9,53.17,22.14C748,296,739,317.06,733,319.62,724,306.44,692.17,293.43,678,296.7Z"/>
        <path d="M331.08,323.09c-6.94-1.64-17.3-19-13.91-27,5.36-14.14,32.1-28.47,47.34-26.15,6.94,1.27,17.16,20.17,15.53,26.08C365.12,294.94,337,310.75,331.08,323.09Z"/>
        <path d="M945.15,374.68c-3.82-14.68-15.92-31.81-27.34-35.59-8.18-3.07-30.26,11.12-31.6,18.2,9.9,4.21,22.53,22,27.38,36.8,7.32-4.21,13.94-8.22,19.56-11.88C937.28,379.39,941.24,376.91,945.15,374.68Z"/>
    </g>
    <g class="bottleCapCreaseLine">
        <path d="M378.37,287.17c-12.16.32-25.83,4.73-35.51,12.23"/>
        <path d="M893.9,348.18c10.2,4.55,18,14.56,24.68,27.35"/>
    </g>
    <g class="wheelFront">
        <circle cx="2051.77" cy="2131.36" r="114.87"/>
        <circle cx="439.14" cy="2131.36" r="114.87"/>
    </g>
    <g class="hubFront">
        <circle cx="2051.77" cy="2131.36" r="75.03"/>
        <circle cx="439.14" cy="2131.36" r="75.03"/>
    </g>
    <g class="swivelFront">
        <path d="M1957.22,1964.86l26.09,111a51.8,51.8,0,0,0,10.08,20.18l39.79,48.94a23.05,23.05,0,0,0,41.64-13.63c0-3.22-30.53-138.6-36.84-166.5Z"/>
        <path d="M344.59,1964.86l26.09,111a51.8,51.8,0,0,0,10.08,20.18L420.55,2145a23.05,23.05,0,0,0,41.64-13.63c0-3.22-30.53-138.6-36.84-166.5Z"/>
    </g>
    <path class="cart" d="M1969.35,372.6q-220.12,18.16-439.95,39.48c-463.57,45-926.22,100.78-1387.83,163.39q2.76,82.08,5.06,164.17c448-41.45,896.51-77.1,1345.46-104.47q213.11-13,426.45-23.52-2.91,14-5.81,28.06-212.48,10.35-424.82,23c-447.3,26.78-894.24,61.58-1340.59,102q2.18,81.94,3.92,163.92,651.92-32.88,1304.48-50.37Q1661,873,1866.4,869.44c-2.1,10.62-3.15,15.93-5.23,26.55q-205.92,3.6-411.79,8.82-649,16.61-1297.62,49.26,1.63,82,2.81,164,631.23-1.47,1262.41,8.59,199.15,3.21,398.33,7.54c-2,10.75-3,16.12-5.06,26.87q-198.51-4.32-397-7.68-629-10.47-1258.29-9.76,1.07,81.74,1.69,163.48Q613,1329.74,1069.21,1357c0,9.83,0,14.75,0,24.58q-456.1-27.12-912.43-50.17Q87.91,1323.17,19,1315,15.81,936.38,1,558q69.65-3.84,139.3-7.47c462.3-63.38,925.68-119.69,1390-165.07q222.27-21.72,445-40.09C1972.91,356.26,1971.72,361.71,1969.35,372.6ZM129.68,1142.92,41.57,1138q1.16,78,1.86,156.09,44,5,88,10.05Q130.76,1223.55,129.68,1142.92Zm-3.22-188.2q-44.16-.26-88.34-.47,1.77,80,3.08,160.06,44.07,1.8,88.13,3.65Q128.13,1036.33,126.46,954.72Zm-4.53-188.55q-44.36.44-88.72.94,2.41,81,4.34,162,44.18-.4,88.36-.77Q124.14,847.27,121.93,766.17Zm-5.85-188.25Q71.52,580.07,27,582.29q3,80,5.48,160,44.37-1.14,88.75-2.2Q118.86,659,116.08,577.92Z"/>
    <path class="mountFront" d="M1069.21,1357q356.51,18.7,712.9,39.49-4.58,30.36-9.1,60.71-335.71-18.81-671.49-36.31c-16.93-1.15-33.5-16.92-32.3-34.64Q1069.22,1371.65,1069.21,1357Z"/>
    <path class="barFront" d="M2264,236.58c-69.9,3.1-141.06,9.87-211.54,15.58-29.55,1.33-58.45,19.17-67.23,48.25-82.22,372-155,746-222.9,1120.92-8.44,39.22,2.17,82.35,29,112.33q87.12,108.84,174.93,217.13c13.11,14.4,22.36,31.13,22.73,51q.43,51.42,1,102.85-337.73.93-675.45,1c29-42,25.61-90.77,8.63-137.08q-76.89-171.84-153.32-343.88l-68.3-3.83c-.8,0-1.59-.12-2.37-.22q79.53,174.86,159.12,349.69c20.47,45.27,23.81,108.89-26.65,135.35q-429.21.13-858.43-.93c-28.45,1.63-55.07,11.65-78.73,27.3Q244.3,1963.54,194,1994.81C184,2001,177,2011.67,176.31,2023.49c-.92,16.61,15.07,31.71,31.05,32a31.4,31.4,0,0,0,16.8-4.71h0q48.87-32,97.55-64.22c15.86-12.07,36.2-19.64,56.21-19.54q634.89,2.27,1269.8.78,202.1-.43,404.21-1.28-1.29-91.65-2.07-183.3c-1.11-25.89-15.22-48.54-30.53-68.51q-88.29-107.75-175.77-216.17c-17.51-19-20.23-45.87-17.71-70.46,64.48-361,133.92-721.1,212.33-1079.33,4-19.11,15.06-33,35.53-34.4q93.52-7.55,187.1-14.49c17,1.78,33.06-14.29,33.87-30.39C2295.49,253.59,2280.89,235.83,2264,236.58Z"/>
</svg>
