<svg viewBox="0 0 233.69 139.04">
  <g class="steelDark">
    <path d="M75.6,49c-.66-1.27-2.94-6.76-3.59-8.15-15.09,6.21-11.72,15,3.59,8.22Z"/>
    <path d="M158.8,41.88c-9-2.56-17.59,7.81-3.49,11.32C155.88,51.28,158.8,41.88,158.8,41.88Z"/>
  </g>
  <g class="rubberDark">
    <path d="M171.11,89.42c-15.3,13.38-30.1,25.94-44.25,37.45,0,0,1.6,2.69,2.48,4,1.52-.64,62.91-27.11,65.6-28.31.51-.22,1.52-.76,1.52-.76a62.4,62.4,0,0,1-4.09-5.64c-2.43.41-14-3.45-21.19-6.75Z"/>
    <polygon points="65.8 121.5 82.55 120.64 51.62 102.45 38.45 105.03 65.8 121.5"/>
    <polygon points="67.37 138.25 64.94 138.54 63.5 126.8 54.63 136.68 52.05 134.81 65.22 122.07 67.37 138.25"/>
    <path d="M33.07,108.85s4.44-2.94,5.38-3.82c-6.27,1-12.2,1.87-16.33,2.29l.43,3.15A92.4,92.4,0,0,0,33.07,108.85Z"/>
  </g>
  <g class="rubberMediumDark">
    <path d="M65.8,121.5l16.75-.86a122.81,122.81,0,0,1,4.15,14.89c-6.33.66-12.78,1.58-19.33,2.72-.5-4.54-1.38-9.89-2.43-15.61q-6.42,5.92-12.89,12.17c-9.77-6.77-19.38-13.1-28.78-18.9,4.84-3.44,9.92-7.09,15.18-10.88Q52.41,113,65.8,121.5Z"/>
    <path d="M152.14,133.91c10-6,33.79-22.72,44.25-32a76.53,76.53,0,0,1-23.06-7.31c-3.43,4-36.13,32-44,36.38A201,201,0,0,0,152.14,133.91Z"/>
    <path d="M171.11,89.42h.07c1.84.85,4,1.73,6.15,2.56C168.9,80.49,160.74,63.1,157,51.4c-12.69-5.51-41.75,7.52-43.74,22,7.14,7.86,19.37,29.78,25,44.12Q154.2,104.23,171.11,89.42Z"/>
    <path d="M77.68,119.49C70.23,124.5,42.31,110,42,104c5.6-14.85,11.14-29.79,16.47-44.91,8.79-24.91,44.09-10.46,35.51,14C88.74,88.14,83.5,103.66,77.68,119.49Z"/>
  </g>
  <ellipse class="rubberDarker" cx="162.77" cy="115.99" rx="17.76" ry="4.82" transform="translate(-36.85 105.96) rotate(-32.6)"/>
  <g class="dullBlueDarkest">
    <path d="M59.92,44.17a15.5,15.5,0,0,1-2.4-12.56h-9c.52,2,1,3.91,1.55,5.83q.91,3.38,1.86,6.73c.15.55.34,1.08.44,1.65,0,.19.15.36.57.25,2.38-.58,4.77-1.13,7.15-1.75a.74.74,0,0,1,.21,0Z"/>
    <path d="M72.88,31.72c-1.88,0-3.77,0-5.65,0a.61.61,0,0,0-.71.52c-.35,1.62-.67,3.24-1,4.87s-.67,3.1-1,4.65c-.38,1.74-.78,3.48-1.13,5.23,0,.18-.19.31-.16.54.42.23.82,0,1.21-.12a16.69,16.69,0,0,0,4.81-2.63,8.75,8.75,0,0,0,3.22-4.09,15.39,15.39,0,0,0,.79-3.8A26.94,26.94,0,0,0,73,31.79Z"/>
    <path d="M148.13,32.07a7.13,7.13,0,0,0-.59,5.59,8.43,8.43,0,0,0,1.23,2.43l.15.15c-.72,0-1.43.06-2.15.06h-5.19v-8h4.55a6.52,6.52,0,0,1,1.71.07"/>
    <path d="M160.23,30.57c-.6.42-.56,1.14-.77,1.72-1.35,3.72-2.33,7.57-3.81,11.24a2.59,2.59,0,0,0-.08.57,5.82,5.82,0,0,0,3.8-.15A8.41,8.41,0,0,0,164,39.59a18.49,18.49,0,0,0,1.39-4.5,11.42,11.42,0,0,0-.18-4.43c-1.64-.17-3.29-.06-4.94-.09Z"/>
  </g>
  <g class="oakDark">
    <polygon points="218.58 41.45 233.19 41.45 225.31 47.75 210.56 47.75 218.58 41.45"/>
    <polygon points="15.11 41.6 0.5 41.6 8.38 47.9 23.12 47.9 15.11 41.6"/>
  </g>
  <g class="oakMediumDark">
    <polygon points="218.58 41.45 210.56 47.75 210.28 0.5 218.58 8.09 218.58 41.45"/>
    <polygon points="15.11 41.6 23.12 47.9 23.41 0.64 15.11 8.23 15.11 41.6"/>
  </g>
  <g class="oakMediumLight">
    <polygon points="218.58 8.09 210.28 0.5 224.16 0.5 233.19 8.09 218.58 8.09"/>
    <polygon points="15.11 8.23 23.41 0.64 9.52 0.64 0.5 8.23 15.11 8.23"/>
  </g>
  <g class="oakMedium">
    <rect x="0.5" y="8.23" width="14.61" height="33.36"/>
    <rect x="218.58" y="8.09" width="14.61" height="33.36"/>
    <path d="M213.43,16.11c3.39,0,3.25,15.64-.15,15.61-70.78,2.44-136.63,3.25-192,.57-3.09-.08-2.66-15.69.43-15.61C80.4,19.4,145.46,19.71,213.43,16.11Z"/>
  </g>
  <g class="dullBlueDark">
    <path d="M151.07,18.33a18.73,18.73,0,0,0-3.51,0c-.72,0-.91.82-1.12,1.35a23.3,23.3,0,0,0-1.13,3.49c-.41,1.73-.62,3.49-1,5.23a25.78,25.78,0,0,0-.66,5.58,5.51,5.51,0,0,0,2.08,4.61c.37.27.56.77,1.06,1-.55,1.85-1.1,3.7-1.65,5.58a5.33,5.33,0,0,1-1.32-.81,13.44,13.44,0,0,1-4.15-5,13,13,0,0,1-1.25-5.44,22.36,22.36,0,0,1,1-6.94c.31-1.06.43-2.19.82-3.21.75-2,1.09-4.18,2.32-6a6.41,6.41,0,0,1,4-2.75c1.52-.39,2.93.45,3.78,2a3.56,3.56,0,0,1,.58,1.21Z"/>
    <path d="M55.41,17.25a6,6,0,0,0,3.51.55,2.25,2.25,0,0,0,1-.11,2.65,2.65,0,0,0-.27-2,4.37,4.37,0,0,0-3.9-3.26,4.46,4.46,0,0,0-4.22,2,10.46,10.46,0,0,0-2,3.36,26.89,26.89,0,0,0-1.07,4.51c-.15,1.23-.51,2.44-.77,3.66-.34,1.64-.64,3.29-1,4.94a35.45,35.45,0,0,0-.86,4.22,12.52,12.52,0,0,0,.58,5.16,15.35,15.35,0,0,0,1.67,3.49,11.26,11.26,0,0,0,4.15,4,10.77,10.77,0,0,0,4.92,1.54c.64,0,.93-.22.93-.86V44.24c-.67-.22-1.23.19-1.87,0a4.85,4.85,0,0,1-2.21-1A7.28,7.28,0,0,1,52,40.72a8.1,8.1,0,0,1-.71-3,35.21,35.21,0,0,1,.41-5.8c.38-2.55,1-5.07,1.13-7.66a16.19,16.19,0,0,1,.55-2.72A13.5,13.5,0,0,1,54.77,18a2.36,2.36,0,0,1,.57-.72Z"/>
    <path d="M162,32.58a12.45,12.45,0,0,1-1,6.08,11.92,11.92,0,0,1-4.95,5.85,8.48,8.48,0,0,1-4.21,1c-.42-.06.85-6.2,1.15-6.14,1.72.27,3-1.3,3.72-2.67a8.59,8.59,0,0,0,.5-2.93,18.23,18.23,0,0,0-.66-4.58A32.3,32.3,0,0,1,155.09,20a7.11,7.11,0,0,1,1.42-3.8,4.12,4.12,0,0,1,1.93-1.08c1.73-.72,3.18-.08,4.49,1a3,3,0,0,1,.89,1.89.78.78,0,0,1-.8.31c-.81-.05-1.62.06-2.43-.07-.5-.07-.85.28-.85.85C159.44,23.55,161.26,27.4,162,32.58Z"/>
    <path d="M72.67,18c-1.34.16-2.67,0-4,.07-.88,0-1.18.21-1.35,1.08A15.59,15.59,0,0,0,66.86,23a16.3,16.3,0,0,0,.72,3.73c.22.8.43,1.61.57,2.43a32.53,32.53,0,0,1,.37,6.16,22.15,22.15,0,0,1-.6,5.86,9.08,9.08,0,0,1-3,4.67A4.09,4.09,0,0,1,63,47l-2.09-4.8A5.7,5.7,0,0,0,62.79,40a9.45,9.45,0,0,0,1.21-4,22,22,0,0,0,0-4.37c-.14-1.17-.42-2.33-.63-3.51-.29-1.71-.57-3.43-.86-5.15a18,18,0,0,1-.11-4.15,6.34,6.34,0,0,1,1.26-3.22c.27-.39.57-.77.86-1.15a3.4,3.4,0,0,1,3.07-1.25,4.45,4.45,0,0,1,4,2.18A7.49,7.49,0,0,1,72.67,18Z"/>
  </g>
  <g class="steelMedium">
    <path d="M153.86,39.23c-.54,2.32-14.11,50.6-14.46,51.34-1.63,5.23-9.69,3.07-8.31-2.44,0,0,13.54-47.42,13.52-47.75.51-1.65.83-2.28,2.38-2.25s6.06.5,6.87,1Z"/>
    <path d="M62.2,41.32C62.72,42.51,77,78.58,77.09,79.54c1.74,4.73-5.14,7.16-7,2.3,0,0-14.21-35-14.75-36.23A1.23,1.23,0,0,1,56,43.79c.71-.28,3.82-2.26,4.8-2.63C61.5,40.88,61.93,40.88,62.2,41.32Z"/>
  </g>
  <g class="ironDark">
    <ellipse cx="69.09" cy="69.38" rx="3.29" ry="3.44"/>
    <ellipse cx="138.11" cy="78.68" rx="3.29" ry="3.44"/>
  </g>
</svg>
