<svg viewBox="0 0 3095.92 1380.94">
  <g class="flange">
    <path d="M2982.59,28c0-15.84.1-15.55,17-21.1,11.77-3.86,23.69-6.15,36-5.83,7.32.19,12.84,2.52,17.3,9.75,8.73,14.13,12.72,29.81,17.62,45.21,12.43,39,15,79.3,16.42,120a701.55,701.55,0,0,1-2.63,88,226.06,226.06,0,0,1-7.36,39.12c-3.39,12.32-10,17.67-22.27,20.27a226.51,226.51,0,0,1-43.08,4.45c-8.44.16-13.58-4.58-13-13.82Z"/>
    <path d="M2992.59,1006c0-5.34,2.29-7.65,8-8.14,19.53-1.68,38.93-1.78,58,3.22,10.55,2.77,13.45,12.82,17.94,21,7.33,13.32,8.87,28.43,12,43,3.65,17.09,5.11,34.61,5.88,52,1.87,42.17-1.15,84.26-7,126a373,373,0,0,1-36.89,118c-5.74,11.23-14.83,19.53-28.83,19-15-.52-30-1.09-44-7.88-7.29-3.52-11.51-7.73-7-16.08Z"/>
    <path d="M114.59,1004c-.42-10.62-10-8.4-15-8.52-14.63-.35-29.33,1.4-44,2.56-16.18,1.27-22.31,13.8-29.07,25.93-14.94,26.78-19.51,56.21-23,86-2.94,25.29-2.76,50.57-2.3,76,.8,44.31,12,86.1,27.59,126.9,6,15.79,13.64,31.09,21.23,46.35,7.16,14.41,18.75,16.64,31.53,17.53,15.35,1.08,30.8.57,46-2.77,9.86-2.16,12.67-5.51,13-16Z"/>
    <path d="M116.59,23C110.36,12.75,99.11,13,89.52,11.37,82.09,10.09,74.22,10,66.6,8.93c-10-1.45-16.32,3.12-22.17,10.91C33.51,34.36,27.13,50.91,22.85,68,15.73,96.49,10.48,125.16,10,155c-.41,23.72-1.93,47.42.8,71,3.24,28,8.26,55.94,22.05,80.9,13.34,24.14,35.58,29.21,60.75,25,5-.85,10.22-.21,15.08-2.76,6.72-3.53,11.12-8.38,11.94-16.1Z"/>
  </g>
  <g class="flangeSide">
    <path d="M128.59,1026a62.17,62.17,0,0,0-6-21c-4.87-10.26-10.91-11.13-17.94-1.94-10.2,13.34-15.33,29.16-20,45-6.48,22.25-12.19,45-13.58,68-1.34,22.18-2.12,44.55-1,67a438.8,438.8,0,0,0,8.63,64.93c6.16,30.21,14.68,59.84,29.87,87,6.09,10.89,12.15,21.85,20.8,31.16,3.35,3.6,6.89,4.57,11.11,3.8,4.75-.86,5.35-5.83,5.72-9,.9-7.56.29-15.3.29-23"/>
    <path d="M2964.59,1338c-.34,11-1.09,22.13,8.56,30.44,12.36-7.88,16.39-20.73,21.25-32.52a373.22,373.22,0,0,0,23.84-84c7.45-47.27,10.93-95.14,7.9-142.92-2-32-4.37-64.49-19.46-94.07-1.35-2.65-2-5.78-4.14-7.9-3.22-3.2-5-9.64-10.88-7.84-6.09,1.89-8.35,7.72-9,13.79a84.18,84.18,0,0,0-.06,9Z"/>
    <path d="M2988.59,304c-.23,8.7,2,16.22,9.66,21.65,10.51-5,12-15.18,14-23.72A406.48,406.48,0,0,0,3023,223a469.56,469.56,0,0,0-1-56c-1.65-19-3.64-38.15-6.93-57.13-4.66-27-10.93-53.31-20.41-78.93-2.5-6.77-5.51-13.1-12.35-18-9,9.17-8.22,20.1-7.67,31Z"/>
    <path d="M126.59,50c-.07-7.46.9-15.11-3-22-2-3.5-2.39-8.63-8-9-5.18-.36-7.66,3.78-9.87,7.08C96.6,39.65,92.59,55.36,88.64,71c-5.65,22.36-7.38,45.43-12,68-.53,2.56-.1,5.32-.07,8,.22,19-1.57,37.87-.55,57a399.86,399.86,0,0,0,16.73,96.92,44.93,44.93,0,0,0,12.82,20c7.76,7,13.81,5.64,19-4a30.3,30.3,0,0,0,4-15"/>
  </g>
  <g class="pipeLarge">
    <path d="M98.59,229c2.86,16.31,3.54,33,8,49,1.67,6,2.41,12.48,5.22,17.89,4.36,8.41,10.38,14.06,21.8,13.39,31.66-1.85,63.31,1.54,95,2.18,35,.71,70,2.1,105,4.08,24.73,1.4,49.46-.45,74,1.7,30.69,2.69,61.47-.31,92,2.19,27.41,2.23,54.72.35,82,1.62,53.31,2.47,106.71,2.33,160,4.51,40.39,1.65,80.72-.21,121,1.56,54.66,2.41,109.39.22,164,2.32,53.7,2.07,107.35.83,161,1.51,47,.59,94,.29,141,1.14q166,3,332,.4c98.68-1.45,197.36.35,296-1.94,46-1.07,92.08.39,138-1.91,42.7-2.14,85.42.33,128-2,42-2.29,84.1.45,126-2.13,27.73-1.71,55.46.59,83-1.83,29.71-2.61,59.46.32,89-2,29.38-2.34,58.79.3,88-2,27.38-2.15,54.8.28,82-2,25.4-2.14,50.82.34,76-2,22.07-2,44.16.32,66-2,22.06-2.31,44.17.31,66-2,22.73-2.41,45.39-.6,68-1.8,8.33-.45,16.55-2.51,25-1.91,4.75.34,5.87-2.58,7.24-6.88,3.35-10.51,3.54-21.44,5.64-32.1,4.61-23.43,4.32-47.2,4.23-71-.07-21.11-1.86-42-3.92-63-2.76-28.14-9.42-55.2-17.91-82.07-2.74-8.64-6.62-11.18-15.29-11.09-35,.38-70,1.77-105,2.8-24,.71-48,.32-72,1.43-61,2.82-122,2.9-183,4.43-31.68.79-63.42-.13-95,1.83-33,2-66.09,0-99,2-37.7,2.36-75.4.07-113,1.89-50,2.42-100.06.2-150,2.11-48.69,1.87-97.39.13-146,1.91-91.67,3.35-183.36,0-275,1.95-140,3-280,1.79-420,1.48-52.66-.12-105.36.56-158-.87-46.68-1.26-93.38.74-140-1-59.34-2.26-118.7-.35-178-2.09-44-1.3-88-.6-132-1.86-65-1.84-130-2.78-195-4.32-30-.71-60.08.16-90-1.76-31-2-62.1,0-93-2.2-20.74-1.47-41.52.54-62-1.87-21.4-2.51-42.85.45-64-2-21.4-2.48-42.71-1.12-64-1.34-3.87,0-6.45-3.25-11.11-1.67-8,2.72-9.7,10.14-11.43,15.5a362.78,362.78,0,0,0-14.67,67.83,482.53,482.53,0,0,0-3.66,70c.26,11,1.87,22,2.87,33Z"/>
    <path d="M146.59,1346c1.34-.33,2.69-1,4-.94,26.06,1.36,52.07-1.17,78-2.55,37.33-2,74.79-1.58,112-5.49a21.31,21.31,0,0,1,3,0c44.7,1.33,89.33-1.77,134-2.42,47-.67,94-2.38,141-3.86,50.66-1.61,101.34-2.65,152-4.13,44.69-1.3,89.38-.23,134-1.9,39-1.45,78-.45,117-2,37-1.47,74-.76,111-1.93,30.68-1,61.34-.11,92-.79,98.67-2.21,197.34-.6,296-.91,102-.31,204-.87,306,.22,67.34.72,134.69.72,202,2.09,43.34.88,86.71.3,130,2,37.69,1.45,75.39.24,113,2,34.36,1.6,68.7.6,103,1.83,53.32,1.91,106.66,3,160,4.26,24,.58,48,.6,72,1.72,46,2.15,92,2.9,138,4.18,39.33,1.1,78.66,2.63,118,4q49,1.74,98,3.72c6,.24,10-.83,13.21-7,9-17.12,13.26-35.61,17.83-54.1,5.85-23.68,7.25-48,10.73-72,1.7-11.8.74-24,1.27-36,1.37-31.35,3-62.59-.6-94-2-17.77-4.65-35.1-10.48-51.93-4.22-12.21-5.67-12.48-19-13.14-22.33-1.09-44.72-1-67-2.4-14.37-.89-28.73-.48-43-1.55-33-2.45-66-2.68-99-4.44-19.37-1-38.69-.8-58-1.47-56.31-2-112.65-3.12-169-4.35-43-.93-86-2.47-129-4-63.67-2.22-127.34-2.84-191-4.14-37-.76-74.06,0-111-1.88-36.36-1.8-72.72-.29-109-1.87-83.66-3.66-167.36.07-251-2-127.67-3.16-255.35-2.31-383-1.37-91.34.68-182.69.36-274,2-42,.75-84.06-.09-126,1.92-38.36,1.85-76.74,0-115,2-35.69,1.87-71.37.44-107,1.86-50,2-100,2.85-150,4.12-48,1.22-96,2.77-144,4-41.33,1.06-82.66,2.73-124,4-34.33,1.07-68.66,2.63-103,4-30.33,1.21-60.67,2.61-91,3.58-8.38.27-11.31,6-15.13,12-7.9,12.33-10.83,26.27-13.74,40.11-8.32,39.63-7.65,80-5.46,119.94,1.33,24,6,48.18,10.76,72.15a217.73,217.73,0,0,0,30.39,76c2.66,4.19,5.93,7.42,9.18,10.88Z"/>
  </g>
  <g class="flange">
    <path d="M667.59,269c28.93-2.77,51.46-14.6,65.2-41.9,18.48-36.74,14.37-71-8.24-104.07-12-17.55-28.82-26.74-49.91-30.31s-40.92-.54-60,7.49C592,109.72,579.86,129.3,570.58,151c-.58,1.37-1.32,2.67-2,4Z"/>
    <path d="M1479.59,930c-10.66,1.86-15.66,10.69-16.42,19.06-1.05,11.43-2.47,23.3,2,35.09,2.92,7.6,7.43,10.82,14.36,12.9,14.7,4.42,30,4.68,45,5.63a576.84,576.84,0,0,0,62,.09c14.54-.65,29.16-2.21,43.06-7.66,8.16-3.2,10.73-9,11-17.1.4-10.12-.79-20.17-2.42-30-1.76-10.54-11.17-14-20.68-16.06Z"/>
    <path d="M586.59,1220c7.3,20.32,22.25,31.1,43,35.06,12.25,2.34,24.38,4.33,37,4.13,35.2-.58,59.84-19.34,74.37-48.5,17-34.14,17.71-70.24-6.59-102.53-15.84-21-38.58-29.66-64.79-29.16Z"/>
    <path d="M3004.59,690c2.7,5-.41,10.76,2.8,16.13,4.77,8,13.05,10.3,20.31,12.53,24.1,7.38,40.34-.93,50.73-24.73,12.81-29.35,13.51-60.46,11.36-91.94-1-14.14-3.29-27.71-8.07-41-2.48-6.91-6.43-13-10.38-18.78-9.44-13.77-38.71-20.54-53.69-13.06-6.59,3.28-8.6,10.14-10,16.89-1,4.67-.89,9.57-3,14Z"/>
  </g>
  <g class="pipeSmall">
    <path d="M727.59,1151c-3.34-23.38-12-42.4-38-48.1-7.47-1.64-10.8-7.43-11-14.9-.14-5.33-.5-10.71,0-16,4.12-39.62.57-79.36,2-119,4.39-123.66,1.61-247.34,1.5-371,0-51.31-.15-102.71-2.08-154-1.08-28.7.51-57.45-1.84-86-1.79-21.72-.65-43.38-1.78-65-.65-12.43,4-21.65,14.18-28,37.15-22.92,41.31-80.28,20.12-110.17C697,119.48,678.56,111,655.6,109.93c-28.92-1.31-55.29,6.75-77.79,24.31-19.28,15-31.08,35.88-37.23,59.72-6.38,24.74-5.69,49.67-4.39,75,1.67,32.59-.22,65.33.51,98,4.12,185.66,1.58,371.34,1.4,557-.05,53.31-.22,106.7-1.93,160-.74,23-.93,46-1.64,69-1,31.26,12.92,54.37,39.15,69.86,33.1,19.55,68.48,23.87,106,14.35,20.37-5.18,33.28-16.91,41.14-36.13,6.54-16,9.42-32,6.8-49.08Z"/>
    <path d="M3031.59,620c-1-20-2.4-39.78-11.93-58-3.92-7.52-9.35-11.1-18.07-11.07-56.33.2-112.73-1.57-169,.59-52,2-104.06-.55-156,1.75-78.68,3.47-157.36.13-236,1.87-188.33,4.17-376.67.79-565,1.84-64,.35-128-.08-192,.12-22.6.07-45.16,1.78-67,8a189.37,189.37,0,0,0-76,41.92c-22.38,20.31-41.17,43.37-52,72-9.33,24.78-16.45,50-16.22,77,.5,56.33.33,112.67,0,169-.06,8.65,2.88,11.18,11.16,12.23a646.58,646.58,0,0,0,83,5.54c16.34-.05,32.7-2.15,49-3.91,6.37-.68,9.24-4.63,9.19-11.86-.34-47-.73-94,0-141a80.32,80.32,0,0,1,64.79-77.2,111.55,111.55,0,0,1,22-1.8c214,0,428,1.11,642-.57,82-.65,164,.9,246-1.9,61.37-2.09,122.75.91,184-1.94,50-2.34,100.07.49,150-2,21.71-1.11,43.36-.73,65-1.57,16.27-.64,22.71-6,28.08-22,4.19-12.41,3.47-25.33,4.87-38,.66-6,.72-12,1.05-18Z"/>
  </g>
  <g class="mount">
    <path d="M2207.59,568c1.93,9.95.86,20,1,30,.17,17-.18,34,.1,51,.38,22.74-.12,45.42-3.19,68.4,6.32,1.56,12,4.27,19.2,2.92,6.37-1.19,13.27.71,19.93.61,17-.25,34,.28,51-.62,10.77-.57,13-.92,15.16-13.28,4-22.87,5.09-46,6.91-69,2.36-29.82-.85-59.38-3-89-.36-5-1.74-7.56-7.09-8.07-33-3.17-66-2-99,.15-1,.07-2,1.26-3,1.92.35,8,2.48,15.91,2,24Z"/>
    <path d="M709.59,465c-59.33,0-118.66.19-178-.18-9.9-.06-12.47,2.59-12.79,11.19-.7,19-.37,38-.14,57,.09,7.46,3.34,12.1,11.92,12.08,57.67-.15,115.34-.07,173-.12a17,17,0,0,0,4-1Z"/>
  </g>
  <path class="spokes" d="M2105.59,676c37.44-9.36,75.63-15.3,113-24.91,8.75-2.25,18.19,9.27,14.94,17.9q-20.37,54-41,108l26,11c10.84-32.57,25.72-63.61,36.83-96.06,4.09-12,9.09-21.69,24.94-22.35,14.26,14.89,27.49,32.81,42.2,49.45,13.14,14.87,24,31.75,39,45l21-19L2301,645.74c3.52-1.19,4-4.19,4.49-6.79,1-5.14,4.74-7,9.09-8q57.48-12.11,115-24l-6-29c-14,3-28,6.12-42,9-25,5.09-50,9.81-75,15.24-4,.87-6.65.9-9-2.23s-3.55-5.44-1.39-10.15c3.83-8.38,7.22-17.12,10.26-25.87,9.85-28.32,23-55.38,32.1-84l-29-11c-13.66,35.67-27.21,71.38-41.07,107-4.11,10.56-14.78,12.59-21.83,3.95-25-30.66-51-60.55-75.1-91.93l-26,18c26,33.78,54.52,65.46,81.75,99.33-3.34,17.3-19.51,16.7-32.78,19.52-29,6.15-58.19,11.05-87,18.14-2.61.64-5.55-1.1-8,1Z"/>
  <g class="wheel">
    <path d="M2245.59,429c23.33-.85,46.49.59,69,7.09,40.81,11.8,75.22,33.48,102.07,66.88,40.75,50.68,53.06,108.64,39.36,170.9-9.64,43.84-33.18,81-69.39,109.15-48.11,37.34-101.7,51.28-162.05,40.15-49.58-9.14-89.35-34.35-119.67-73.4-31.9-41.08-46.07-88.1-40.62-140.8a212.36,212.36,0,0,1,14.53-58.88c12.11-29.64,31.66-54.41,56-74.89a188.88,188.88,0,0,1,73.75-38.53c12-3.2,24.31-4,36.08-7.67Zm3,42c-11.56,3.11-23.68,3.76-35,8C2160,499,2124,535.57,2110.71,592c-20,84.73,29.24,166.08,114,188.45,49.56,13.08,96.08,1.91,136.92-30.41,31.36-24.83,50.11-57.53,56.53-96.14,7.76-46.62-4.06-89.11-34.55-126-21.23-25.65-47.77-42.37-80-51.23-17.92-4.93-35.82-6-54.08-5.74Z"/>
    <path d="M735.59,574a312,312,0,0,1-7.77-65c-.25-23.21,2.84-46.26,7.77-69,0,0,6.3-14.16,8-17l1-3c12.68,16.15,15.68,35.79,17.66,55,2.92,28.33,2.56,56.91-3.78,84.94-2.55,11.25-4.89,22.84-12.55,32.24C742,589.6,735.59,574,735.59,574Zm1-181c-15.63,6.15-22.44,20.12-27.71,34.11-8.42,22.36-12.07,45.82-12.43,69.89-.45,29.71,1.69,58.91,12.19,87,3.2,8.56,6.9,17,13,24,13.34,15.12,30.17,15,44,.06,12.54-13.57,15.85-31.06,18.65-48.06,3.46-21.06,5.4-42.47,4.34-63.95-1.22-24.78-3.63-49.36-12-73-7.18-20.4-19.41-30-39-30Z"/>
  </g>
  <path class="spokes" d="M730.59,544c-.35-5.74,9.32-6.68,11.54-11.05a108.61,108.61,0,0,1,10.58,11c5.09,5.77,11,4.34,13.86-2.91,2.28-5.77,3.86-11.55-.93-17-.95-1.09-1.34-2.66-2-4-7.19-13.14-7.09-14.48,2-26,8.28-10.48,6.49-20.83-5.2-29.15-3.78.4-5,4.28-7.81,6.14-2.38,1.6-3.25,5.32-8.7,4.95-3.42-.58-7.73-6.49-13.24-8.28a204.71,204.71,0,0,0-1,69.34Z"/>
  <g class="cap">
    <path d="M2257.59,615c-6.23,3.52-11.17,8.26-9.84,16,1.11,6.42,4.66,11.08,11.78,13.24,6.89,2.09,10.71-1,15.15-5.13a12.78,12.78,0,0,0,3.58-14c-1.84-5.21-5.31-10.66-12.67-10.14-2.32.16-4.66,0-7,0"/>
    <path d="M753.59,492c-12.24,8.69-12.24,19.3,0,28a17.4,17.4,0,0,0,1-28Z"/>
  </g>
</svg>
