<svg viewBox="0 0 1038.64 2417.51">
    <path class="boxDark" d="M917.86,70.2c-27.5,4-55.25,8.22-83.06,9.28-13.54,14.13-27.51,27.66-42,40.77q120.07,21.88,239.93,44.92C990.52,141.75,948.73,107.25,917.86,70.2Z"/>
    <g class="boxMedium">
        <path d="M1032.69,165.17q-119.87-23-239.93-44.92-1,186-1.54,372c-1,384.75-.26,1539.5,2.24,1924.24h241C1028.37,1922.75,1027.77,658.94,1032.69,165.17Z"/>
        <path d="M3.93,125.21c53.36-30.69,106.19-68.34,150.71-111C275,30.58,400.29,25.48,521.38,23.75,645.28,22,774.15,23.69,896.5,1.41c-29.59,44.13-64.33,83.25-103.74,118.84Q398.32,114.81,3.93,125.21Z"/>
    </g>
    <path class="boxLight" d="M791.22,492.27q.49-186,1.54-372-394.44-5.44-788.83,5Q5.86,308.33,6.82,491.44c2,385,.5,1540.07-4.29,1925.07H793.46C791,2031.77,790.19,877,791.22,492.27Z"/>
    <g class="boxInner">
        <path d="M953,1126.67c-25.72-2.33-51.44-2.79-77.16-5.37-17.67-2.82-17.71-70.82.05-69.57,25.7,2.51,51.41,2.93,77.11,5.26C971.54,1059.12,971.49,1127.33,953,1126.67Z"/>
        <path d="M492.69,355.68q-93.85.1-187.71.78c-43.19-.71-43.3-68.7-.22-69.57q93.95-.78,187.91-.9C537.88,286.4,537.76,354.62,492.69,355.68Z"/>
        <path d="M492.75,1892.19q-93.69-.07-187.36-.5c-42.91-1.25-43-69.24.12-69.57q93.63.33,187.25.38C537.84,1823,537.72,1891.19,492.75,1892.19Z"/>
    </g>
    <g class="boxBorderLine">
        <path d="M1029.41,906.34q-119.33-9.65-238.62-19.58-391.57.47-783.14-.43"/>
        <path d="M1029.41,1658.06l-238.62-9.58q-391.57.46-783.14-.43"/>
    </g>
</svg>
