<svg id="storageBoxes" 
    xmlns="http://www.w3.org/2000/svg" viewBox="0 0 1070.33 1654.61">
    <path class="boxInside" d="M1037.13,158.5c-9.57-9.27-18.78-18.92-29-27.51-.9-.76-1.67-1.67-2.51-2.49-11.17-10.83-22.27-21.74-33.52-32.48C961.87,86.25,951.4,76.73,941.17,67c-2.85-2.72-6.18-2.45-9.54-2.45q-54.51,0-109,0H795.88v95.66c2.2-.87,4.24-.66,6.25-.66q114.5,0,229,0c2,0,4-.31,6-.48Z"/>
    <path class="boxTop" d="M865.13,71c2-5.46,7.49-8,10.32-12.61,2.28-3.67,5-4.4,8.68-4.39a163.89,163.89,0,0,0,24-2c8.3-1.23,16.65-2,25-3l2-1c-1.67,3.33-3.73,6.53-4.92,10-3.09,9-9.77,11.37-18.57,12.14-15.5,1.37-31,2.45-46.52,1.38-1-.06-2,.62-3,1Z"/>
    <path class="boxSide" d="M1026.13,144.5c-2.14-.9-4.47-3.35-6.42-2.34-7,3.57-14.1.46-21.09,1.3a96.55,96.55,0,0,1-14,1c-10-.25-20-.85-30-1.44-8.5-.51-17-.87-25.48-1.71-10.26-1-20.3-4.21-30.55-5.59-5.15-.69-10.57-1.27-15.36-2.58-6-1.65-12.19-1.17-18.18-2.87a143.65,143.65,0,0,0-17.94-4.16c-9.2-1.35-17.28-5.18-25-10.07h1c17.26-11.47,33.2-24.64,49-38,9.45-8,16.68-18,25-27,8.8-9.5,16.55-19.83,24.57-30.31-2.05-5.61-7.87-8-11.48-12.3C905.69,3,901.4,4.63,896.08,6.88c-11.51,4.88-23.29,9.1-35,13.63-5.87,2.28-10,7-14.45,11-15.3,14-30.25,28.44-45.59,42.4q-19.38,17.63-38.5,35.51c-14,13-28.22,25.79-42.52,38.48-3.34,3-4.54,6.1-4.53,10.56q.13,744.75.09,1489.5v5.25h353.7c-2.39-15.5-5.85-30.59-7.77-45.8-1.22-9.65-3.15-19.22-4.1-28.93-.86-8.75-3.27-17.36-4.61-26-1.31-8.43-1.86-17-3.2-25.47-1.27-8-2.69-16-3.45-24-1.27-13.47-1.84-27-3.14-40.48-1-10.86-2-21.73-3.64-32.55-.76-5.12-.66-10.7-1.1-15.93-.68-8-1.27-16-2.3-24-1.57-12.3-2.5-24.61-3-37-.4-9.84-.65-19.73-2.29-29.52-.68-4,0-8.31-.12-12.48-.51-27.84-2.57-55.63-2.1-83.5.1-6.18-.53-12.3.49-18.52,1.18-7.13-.81-14.3-.92-21.48-.19-12.58,2.81-25,2.46-37.5-.28-10.07,1.24-20,1.55-30,.33-10.88,1.58-21.68,2.54-32.5,1.07-12.19,2.78-24.32,4.18-36.48,1.58-13.7,3.06-27.44,5.56-41.06,1.54-8.35,1.62-17.06,3.33-25.44,2.54-12.42,3.24-25.07,5.12-37.56,1.92-12.82,4.09-25.61,6-38.43.35-2.35-.52-4.07-.8-6-1.79-12.86-4.5-25.62-5.7-38.53-.92-10-3.24-19.64-4.63-29.49-1.61-11.46-2.13-23.1-4.21-34.46-2.6-14.11-3.94-28.35-5.8-42.54-1.76-13.46-3.85-27-4.28-40.5-.3-9.45-1.22-18.94-.44-28.5.7-8.63-.26-17.32-1.06-26-.75-8.25-1.28-16.62-1.27-25,0-14.17-.34-28.34-.92-42.5-.35-8.5-.71-17-1.33-25.48-.94-12.72-.33-25.35-.41-38,0-8.32-.67-16.69-.21-25,.53-9.52.2-19,.39-28.51.22-10.5.38-21,1-31.5.8-12.5,1.68-25,2.72-37.48.64-7.64.83-15.38,1.9-23.06.89-6.34.44-13,1.37-19.45,1.54-10.63.12-21.36,1.79-32,1.88-12.08,3.36-24.25,4.22-36.47.62-8.84.39-17.73,1.9-26.51,1.62-9.43,1.7-19,2.2-28.52s2.26-18.91,2.68-28.46c.33-7.44,2-15.07,2.82-22.56.88-7.7,2.78-15.28,3.19-23,.55-10.48,3.62-20.55,3.9-31.7-4.47-3-9.45-6.36-14.42-9.55-5.17-3.32-10.06-7.09-15.22-10.42-11.22-7.24-22-15.23-32.57-23.39-11.24-8.68-22-18-33.06-26.92C954.14,60.1,946,52.79,936.46,47c-5.39,7.28-7.72,16.74-15.57,22.62,4.69,6.08,11.17,10,16.79,14.87,9.88,8.51,21.38,15,30.45,24.56,8.64,2.36,14.33,9.48,21.84,13.78,10,5.71,20.45,10.93,29.16,18.72Z"/>
    <path class="boxTop" d="M902.13,1c-2.32,3.7-6.44,2-9.56,2.75-9.16,2.21-18.66,3-27.93,4.81-17.71,3.47-35.26,7.76-53,10.75-10.41,1.75-20.92,3.21-31.44,4.46-7.83.93-15.71,3.07-23.54,3.49-12.79.68-25.26,3.34-38,4.41-18.32,1.55-36.59,3.47-55,4-10.49.29-21,1.09-31.5,1.51-18.19.72-36.33,2.54-54.5,3.81-10.66.75-21.33,1.6-32,2-13,.43-26.07-.36-39,.75-16.19,1.39-32.36,0-48.51.81l-1,1.5a2.88,2.88,0,0,0,.48-.51.51.51,0,0,0,0-.48c-.9-1.22-2.23-1-3.49-1-8.34-.16-16.67-.26-25-.52-7.5-.23-15-.59-22.5-1-8.17-.44-16.33-1.2-24.5-1.43-6.67-.18-13.36.44-20,.7-10.47.4-21-1-31.49-1.18-8.54-.12-16.94-1.69-25.5-1.73a148.2,148.2,0,0,1-21.54-2.11,179.23,179.23,0,0,0-23.47-2.43c-10.08-.18-19.73-2.32-29.47-4C217.8,28.17,205.09,25,192.12,23.6a110.54,110.54,0,0,1-29.44-7.22c-2.5-1-4.4-.64-6,.68-7.07,5.82-15.3,10-22.44,15.58a737.19,737.19,0,0,1-65.05,45C59.85,83.38,50.56,89.3,42.05,96.41a258.11,258.11,0,0,1-23,17c-4.24,2.81-7.68,6.34-11.43,9.61-1.42,1.23-.85,2.59-.5,4a74.31,74.31,0,0,0,7.74,18.37c2.3,4.14,3.7,8.62,6.05,12.75,4.49,7.87,9.53,15.57,12.19,24.61,3,.92,6-.3,9-.3q357.5.12,715,.07c.66,0,1.33,0,2,0,1.82.07,2.68-.29,3.64-2.44,8.53-19.08,15.85-38.68,24.7-57.64,1.77-3.79,3.67-7.8,4.5-12a8,8,0,0,1,3.52-5.65c6.27-4.77,13-9,19-14,8.09-6.77,16.49-13.16,24.76-19.67,11.95-9.4,22.46-20.17,33-31,6.57-6.71,12.06-14.25,18.27-21.21,4-4.5,8.79-8.81,9.61-15.41Z"/>
    <path class="boxFront" d="M3.13,1652c-.48-6.83,1.9-13.3,2.73-20,1.49-12,5.21-23.62,5.05-36-.1-8.12,2.06-16.35,3.37-24.48,2.9-18,6.24-35.92,8.25-54,1.36-12.28,1.85-24.65,2.54-37,.19-3.32-1-6.82-.27-10A93.66,93.66,0,0,0,26.54,1459c.52-5.46,0-11,.67-16.48,2.58-20.1,3-40.32,3.31-60.51a907.87,907.87,0,0,0-2.66-91.52c-1.34-15.72-.25-31.65-.21-47.48,0-2.67.94-5.48.36-8-1.89-8.14-1.23-16.34-1.42-24.53-.17-7.67-1.32-15.38-.77-23,.56-7.92-.26-15.71-.9-23.49-.36-4.49,1.12-8.68.69-13-1.4-14.49-1.51-29.08-3.88-43.52-1.69-10.24-2.39-20.65-3.61-31-2-16.67-4.1-33.32-6-50-1.07-9.65-1.39-19.37-2.61-29-2-15.62-2.76-31.33-4.11-47C5,945,4.86,939.4,3.92,934c-1.42-8-1.59-16.06-2.74-24C0,901.79,5,894.82,6.27,887c1.38-8.76,4.27-17.28,5.76-26,2.06-12.1,4.15-24.27,4.88-36.49.64-10.67,2.37-21.27,2.25-32,0-2.83-.3-5.87.58-8.46,3.43-10.11,3.33-20.72,4.13-31.06,1.41-18.26,1.28-36.65,1.75-55,.15-6.19-1.4-12.53-.71-18.47,1.41-12,1.33-24,2.16-36,.21-3-.93-6.14-.33-9,2.85-13.56,1.79-27.36,3-41,.25-3-.95-5.52-.8-8.52.65-12.64,1.13-25.35.56-38-.75-16.67-.23-33.4-2.28-50-1-8.27-.29-16.64-.85-25-1.52-22.62-.65-45.34-2.14-68-.66-10.16-1.34-20.36-2.33-30.47-1.29-13.16-2.5-26.3-3.49-39.5-1-13.86-.32-27.69-1.14-41.53-.64-11,.41-22.07-1.28-33-.69-4.42.35-8.64-.19-13a275.38,275.38,0,0,1-2-29c-.19-12.1-2.12-24-3.25-36-1.36-14.39-4-28.66-5.76-43-.57-4.6-.09-9.33-.09-14.49,1.79,0,3.27-.36,4.48.06,11.67,4.05,23.94,5,36,6.27s24.28,3.12,36.46,4.38c11.85,1.23,23.52,4.09,35.51,4.9,12.53.85,25,3.09,37.52,3.72,10.14.51,20.28,1.8,30.49,1.22,6.7-.39,13.33,1.15,20,1.35,9.17.27,18.31,1.85,27.5,1.07,10-.86,20.05,0,30,0,12.59.07,25.29,2.21,38,1.92,13.33-.31,26.63-1.09,40-.56,14.5.57,28.94-1.77,43.5-1.52,13.49.22,27-1.11,40.5-1.25,7.7-.08,15.32-1,23-1.38,8.15-.37,16.35-.71,24.5-1.37,7.17-.58,14.34,0,21.54-1.15,6.69-1.09,13.65-.85,20.46-.58a83.16,83.16,0,0,0,12-.05c7.14-.75,14.36-1.77,21.48-1.38,7.55.41,14.67-1.62,22-2.32,9.33-.89,18.71-1.27,28-2,9.93-.82,19.94-1.7,30-2,7.52-.19,15-1.52,22.51-2.37,7.17-.82,14.4-1.28,21.48-2.59,11.89-2.18,23.66-5.06,35.53-7.34,5.07-1,10.32-1,15.47-1.36,6.68-.52,13.11-3.22,20-3.9,8-.8,16-2.59,24-4.07,9.57-1.78,19.36-3.15,29.18-7.2-.3,9.67-1.67,18.81-2.34,28-.8,11.06-3.37,22-4.71,33-1.06,8.62-1.29,17.34-2.11,26-1.4,14.67-3.05,29.33-4.44,44-.86,9-1.78,17.95-2.23,27-1,19.34-2.85,38.63-3.61,58-.15,3.82.21,7.72.13,11.52-.2,9.21-2.14,18.28-1.81,27.49.27,7.34.78,14.66.94,22,.09,4.33-.45,8.67-.42,13,.08,13.5.3,27,.47,40.5.16,12.17.6,24.34.43,36.5-.24,17.17,1.16,34.31.23,51.51-.45,8.28,1.05,16.65,1.28,25,.25,9-.14,18,.1,27q.8,29.5,2,59a331.31,331.31,0,0,0,2.75,33.53c1.74,12,2.16,24.29,2.62,36.47.4,10.39,2.26,20.64,2.54,31,.23,8.84,1.58,17.55,1.57,26.5,0,10.72,2.92,21.52,3.07,32.5a168.73,168.73,0,0,0,2.69,30.54c.71,3.65,1.72,7.59,1.18,11.46-.7,5.09.75,10,1.26,15,1.29,12.53,6.44,24.58,4.78,37.52l1,.5c-2-.81-2.12,1.07-2.45,2a244.42,244.42,0,0,0-8.51,32.49c-2.84,14.3-5.55,28.63-8,43A286,286,0,0,0,781.07,998c-.76,13.34-1.47,26.73-3.11,40-1.06,8.51-1.27,17-1.72,25.53-1.17,22.14-2.6,44.33-2.31,66.49.18,13.82.11,27.68.79,41.5.54,11,0,22,0,33,0,4.33-.4,8.64.75,13,.81,3.08-.29,6.62-.29,10,0,14.51-.84,29.08,1.12,43.48,1.48,10.83,1.81,21.69,2.16,32.53.26,8.32-.35,16.66.66,25,1.62,13.44-.25,27.09,2.4,40.52.59,3-1,6.35-.75,9.46.49,5.67,1.22,11.3,1.44,17,.3,8.17,1.11,16.33,1.41,24.5.4,11.17,1.38,22.38,1.22,33.5-.12,8.72,1.21,17.3,1,26a180.08,180.08,0,0,0,1.59,25c.72,6.24.41,12.73,1.36,19,2,12.66-.31,25.39,1.35,38,1.76,13.49,3.38,27,5,40.5,1,8.66,1.47,17.44,3.16,26,1.59,8,2,16.27,4.73,24.2-1.07,1.92-3.1,1.31-4.88,1.32q-38.25,0-76.5,0h-66.5q-322.5,0-645,0c-2,0-4.22.67-6-1Z"/>
    <path class="boxInside" d="M239.63,326.5c-.58-12.12,5.81-19.77,16-25a14.28,14.28,0,0,1,7-1.51c11.16.22,22.36-.11,33.49.64,12.84.87,25.67.63,38.51.92,15.67.34,31.33,1.19,47,1.4,20.84.28,41.67-.34,62.5-.86,12.62-.32,25.5,0,37.39,4.22A46.91,46.91,0,0,1,504.1,323c4.6,6.46,3.85,21.36-1,28.5-8.39,12.51-20.61,18.13-35,20.55a232.7,232.7,0,0,1-52,3.23c-14.34-.82-28.69-1.76-43-1.59-12.34.14-24.65.64-37-.14-11.53-.74-23-1.25-34.51-2.92-9.58-1.39-19.14-2.64-27.95-6.73-9.13-4.24-19-7-26.63-14.32-6.32-6.08-8.75-13.24-8.88-21.6,0-.16.31-.33.48-.5Z"/>
    <path class="boxInside" d="M503.63,1117.5c9.91-2.2,17.64-8.34,23.76-15.7,4.92-5.93,5.69-13.71,3.89-21.83-3-13.64-12.74-19.67-24.69-22.82-11.45-3-23.24-1.93-35-.75-9.62,1-19.32,1.13-29,1.59-19.19.92-38.34-1.2-57.5-.81-8.55.18-17-.66-25.5-.56-13.63.17-27-3.07-40.5-3-11.34.06-22.74-3.67-34-.06-12.4,4-22.4,10.64-23.58,24.93-1.21,14.57,4.05,25.47,15.95,34.16,12.46,9.09,27,9.43,41.13,11.71,10.55,1.7,21.43,1.46,32,3.31,13.47,2.37,27,2.29,40.52,3,7.53.42,15.27,1.21,22.45,0,12.18-2.13,24.44-.63,36.58-2.53,13.48-2.11,27.18-2.8,40.47-6.19,4-1,8.39-1,12-3.45Z"/>
    <path class="boxSideLine strokeLine" d="M803.13,884.5c5.17.1,9.46,3.29,14.49,4,14.71,2.21,29.16,5.93,44,7.55,7.06.77,14,3,21,3.8,9,1.07,18,1.26,27,2.15,9.69,1,19.32,2.51,29,3.39,13.48,1.23,27,1.91,40.49,3.15,4.16.38,7.72-1.72,12-1.32a299.16,299.16,0,0,0,33.48,1.1c10.53-.21,21.19.11,31.5-2.87"/>
    <path class="boxFrontLine strokeLine" d="M4.13,900c5.48-1.11,10.59,1.46,16,1.61,10.34.29,20.71.8,31,2,16,1.85,32,2.45,48,2.87,8.51.22,17,.36,25.51.9q29.46,1.86,59,2.54c19.16.42,38.33.21,57.5,0,10.21-.08,20.35.83,30.49,1.65,6.78.54,13.34-.83,20-1.23,8-.47,16-.25,24-.35,18.51-.24,37,1.53,55.5,1,4.5-.13,9.07,1.68,13.5-.54l1-1c6.33,0,12.73.57,19-.1,22.78-2.47,45.7-.85,68.53-2.69,11.23-.9,22.65.83,34,.71,19.33-.2,38.67-.76,58-1.46,21.5-.78,43-.38,64.52-2.25,18.65-1.61,37.35-2.57,56-4.42,14.75-1.47,29.39-4.34,44.48-3.64,9.08.42,18.32-2.67,27.49-4.14,6.49-1,13-2.18,19.5-3,7.71-.92,15.44-1.64,23-3.54"/>
</svg>
