<svg viewBox="0 0 1038.64 1647.51">
    <path class="boxDark" d="M917.86,70.2c-27.5,4-55.25,8.22-83.06,9.28-13.54,14.13-27.51,27.66-42,40.77q120.07,21.88,239.93,44.92C990.52,141.75,948.73,107.25,917.86,70.2Z"/>
    <g class="boxMedium">
        <path d="M1032.69,165.17q-119.87-23-239.93-44.92-1,186-1.54,372-1.54,577.13,2.24,1154.24h241Q1025.31,905.87,1032.69,165.17Z"/>
        <path d="M3.93,125.21c53.36-30.69,106.19-68.34,150.71-111C275,30.58,400.29,25.48,521.38,23.75,645.28,22,774.15,23.69,896.5,1.41c-29.59,44.13-64.33,83.25-103.74,118.84Q398.32,114.81,3.93,125.21Z"/>
    </g>
    <path class="boxLight" d="M791.22,492.27q.49-186,1.54-372-394.44-5.44-788.83,5Q5.86,308.33,6.82,491.44q3,577.55-4.29,1155.07H793.46Q789.71,1069.4,791.22,492.27Z"/>
    <g class="boxInner">
        <path d="M492.75,1124.27q-93.69-.07-187.36-.5c-42.91-1.25-43-69.25.12-69.58q93.63.33,187.25.39C537.84,1055.06,537.72,1123.27,492.75,1124.27Z"/>
        <path d="M492.69,355.68q-93.85.1-187.71.78c-43.19-.71-43.3-68.7-.22-69.57q93.95-.78,187.91-.9C537.88,286.4,537.76,354.62,492.69,355.68Z"/>
    </g>
    <path class="boxBorderLine" d="M1029.41,906.34q-119.33-9.65-238.62-19.58-391.57.47-783.14-.43"/>
</svg>
