<svg class="presence" xmlns="http://www.w3.org/2000/svg" viewBox="0 0 236.2 533.73">
  <g class="oakDark">
    <path d="M230.25,37.43q-26.37-5.05-52.78-9.88-.22,40.92-.34,81.85c-.23,84.64-.06,338.69.49,423.33h53C229.3,424.1,229.17,146.06,230.25,37.43Z"/>
    <path d="M3.93,28.65A173.26,173.26,0,0,0,37.08,4.22c26.48,3.61,54.05,2.48,80.69,2.1,27.25-.39,55.6,0,82.52-4.91a140.69,140.69,0,0,1-22.82,26.14Q90.7,26.35,3.93,28.65Z"/>
  </g>
  <path class="oakMedium" d="M177.13,109.4q.1-40.92.34-81.85Q90.7,26.35,3.93,28.65q.42,40.28.63,80.56C5,193.92,4.67,448,3.62,532.73h174C177.07,448.09,176.9,194,177.13,109.4Z"/>
  <g class="oakDarkest">
    <path d="M205,16.54a172.44,172.44,0,0,1-18.27,2c-3,3.11-6.05,6.09-9.25,9q26.42,4.82,52.78,9.88A92.74,92.74,0,0,1,205,16.54Z"/>
    <path d="M212.71,249c-5.65-.52-11.31-.62-17-1.19-3.89-.62-3.9-15.58,0-15.3,5.66.55,11.31.64,17,1.15C216.8,234.1,216.79,249.11,212.71,249Z"/>
    <path d="M111.45,79.35q-20.64,0-41.29.17c-9.51-.16-9.53-15.12,0-15.31Q90.78,64,111.45,64C121.4,64.11,121.37,79.11,111.45,79.35Z"/>
    <path d="M111.47,417.38q-20.61,0-41.22-.11c-9.44-.28-9.47-15.23,0-15.31q20.61.07,41.2.09C121.39,402.15,121.36,417.16,111.47,417.38Z"/>
  </g>
  <g class="boxBorderLine">
    <path d="M229.53,200.49q-26.25-2.12-52.5-4.31-86.15.1-172.28-.09"/>
    <path d="M229.53,365.87,177,363.76q-86.15.11-172.28-.09"/>
  </g>
</svg>
