<svg viewBox="0 0 144.39 328.58">
  <g class="oakDark">
    <path d="M141.41,22.9q-16.24-3.12-32.52-6.09-.14,25.21-.21,50.43c-.14,52.15,0,208.68.31,260.84h32.67C140.83,261.15,140.75,89.83,141.41,22.9Z"/>
    <path d="M2,17.49a106.53,106.53,0,0,0,20.43-15C38.71,4.66,55.69,4,72.1,3.73c16.8-.24,34.27,0,50.85-3a86.37,86.37,0,0,1-14.06,16.11Q55.43,16.08,2,17.49Z"/>
  </g>
  <path class="oakMedium" d="M108.68,67.24q.07-25.21.21-50.43Q55.43,16.08,2,17.49q.27,24.81.4,49.64c.26,52.19.06,208.76-.59,261H109C108.65,275.92,108.54,119.39,108.68,67.24Z"/>
  <g class="oakDarkest">
    <path d="M125.85,10a109.23,109.23,0,0,1-11.26,1.26c-1.84,1.91-3.73,3.75-5.7,5.52q16.27,3,32.52,6.09A57.07,57.07,0,0,1,125.85,10Z"/>
    <path d="M130.61,153.24c-3.49-.32-7-.38-10.46-.73-2.4-.39-2.4-9.6,0-9.43,3.49.34,7,.39,10.46.71C133.12,144.08,133.12,153.32,130.61,153.24Z"/>
    <path d="M68.22,48.73q-12.73,0-25.45.1c-5.85-.09-5.87-9.31,0-9.43q12.73-.1,25.47-.12C74.34,39.33,74.32,48.58,68.22,48.73Z"/>
    <path d="M68.22,257q-12.69,0-25.39-.07c-5.82-.17-5.83-9.38,0-9.43q12.69,0,25.38.06C74.34,247.62,74.32,256.87,68.22,257Z"/>
  </g>
  <g class="boxBorderLine">
    <path d="M141,123.37q-16.17-1.31-32.35-2.66-53.07.08-106.15,0"/>
    <path d="M141,225.27,108.62,224q-53.07.06-106.15-.06"/>
  </g>
</svg>
