<svg viewBox="0 0 244.26 436.18">
  <path class="porcelainDarkest" d="M21.16,410c16.53,18.81,187.82,17.13,202.08,0,24.59-29.55,30-369.1,0-396C203.1-4,39.79-4,21.16,14-8.47,42.73-4.22,381.13,21.16,410Z"/>
  <g class="steelDark">
    <path d="M21.16,410l-.07,25.66H223.24V410C209,427.15,37.69,428.83,21.16,410Z"/>
    <ellipse cx="121.43" cy="36.36" rx="54.19" ry="3.46"/>
    <rect x="23.29" y="122.14" width="12.58" height="39.98"/>
  </g>
  <g class="brassDark">
    <path d="M3.65,308.05a1371.87,1371.87,0,0,0,237.32,0c3-.4,2.65-6.75.25-6.44a1244.57,1244.57,0,0,1-237.8,0C.88,301.4.61,307.81,3.65,308.05Z"/>
    <path d="M23,192.93c1.1,2.27,12.46,2.11,11.43,0-6.45-23.55-6.49-46.21,0-71.45.78-2-10.75-2.09-11.43,0C16.24,147.4,16.15,170.09,23,192.93Z"/>
    <ellipse cx="121.43" cy="36.36" rx="17.18" ry="8.96"/>
  </g>
</svg>
