<svg viewBox="0 0 1136.16 1026.66">
  <path class="treeTrunk" d="M666.82,1025.66H382.63c35.37-22.06,65.77-46.33,90.66-74.9,11.33-286.62,8.86-610.45,6-686.37h98.17c-4.9,249.67-4.21,483.41,6,686.37A421.8,421.8,0,0,0,666.82,1025.66Z"/>
  <g class="treeClosest">
    <path d="M979.76,433.4c9.54-11.93,39.35-10.73,41.73,11.92,20.27-14.31,66.78,4.77,66.78,39.35,14.3-13.12,46.5,13.12,29.81,31,28.61,4.77,17.88,47.7-7.16,41.73,2.39,27.43-34.58,48.89-56,29.81-2.38,22.66-33.39,27.43-45.31,13.12-9.54,26.23-60.81,31-85.85,1.19L787.79,522.83c-13.11-15.51,3.58-41.74,23.85-38.16-13.12-25,13.12-53.66,40.54-53.66l77.5-21.46C947.57,394.05,982.15,409.55,979.76,433.4Z"/>
    <path d="M51.8,410.52C23.37,409,1.58,440.26,17.08,465.6c-25.92,5.92-17.39,40,3.59,40.71C8.21,532.14,31,547.72,54.2,538.22,49.89,560,79.26,572.34,96.11,555c20.09,25.88,69.35,17.35,73-10.92l167.19-21V498c26-15.16,24.06-52.1,0-64.41V397.35L174,392c-10.42-35.05-57.78-35.05-77.87-10.17C74.52,370.16,47.05,390.05,51.8,410.52Z"/>
  </g>
  <g class="treeCloser">
    <path d="M773.48,251c23.85-22.66,77.51-1.19,79.89,32.19,29.81-23.85,84.66-2.38,83.47,38.16,53.65,0,59.61,57.23,13.11,69.15,1.2,26.24-29.81,45.31-46.5,33.39-10.73,25-62,37-79.89,14.31,3.58,23.85-31,33.38-41.73,17.88-21.46,34.58-170.65-43.68-246.78-82.5-27.46-4.54-35.81-60.58,1.39-72.43Q643.41,230.92,773.48,251Z"/>
    <path d="M443.93,618c20.27,3.58,37-22.66,23.84-38.16,17.84-9.46,10.62-37.69-10.39-33.75L402.91,511.3c-6.57-26.25-63-34.78-71.07-10.15-25-29.81-76.31-25-85.85,1.19-11.92-14.31-45.92-9.54-48.3,13.12-21.47-19.08-50.43,2.38-48.05,29.8-25-6-37.77,42-9.15,46.74C123.8,609.88,153,641.78,171.3,623c-6.05,28.34,37.5,48.65,57.77,34.35,2.39,22.65,37.19,23.84,46.73,11.92-2.38,23.85,32.2,39.35,50.08,23.85,24.37,21.15,54.25-.73,51.31-18.38Z"/>
  </g>
  <path class="treeMiddle" d="M764.56,499.59c19-9.22,1-61.95-18.34-54.36,5.07-40.34-43.72-69.63-76.67-51.46-6.2-20.23-36.18-23.79-47.77-9.83-16-31-58.18-31.88-74.2-4.33-9.38-22.11-46.26-20.18-49.23,1.55-20.87-25.61-65.25-9.93-73.13,16.16-27.23-9.87-55.49,19.35-38.67,46.21-21.52,20.65-5.62,49.61,16.87,47.4-19.48,20.54,4.68,50.1,29.05,44.71,3.28,23.46,52.19,35.28,68.37,10.8-3,21.73,29.22,28.26,41.63,10.15,9.81,30.3,67.29,29.35,78.35,5.14C674.44,574.23,745.23,551.66,764.56,499.59Z"/>
  <g class="treeFurther">
    <path d="M146.93,371.61c-40,4.11-25.65-68.79,9.23-50.32-11.29-22.57,24.67-52.35,42.12-39,4.1-21.55,36.88-24.6,42-7.16,14.36-22.57,50.24-24.59,67.69-3.05,13.33-23.6,129.29-.95,127.24,24.7,34.24-21.92,76.19,46.83,45.12,65.48,14.36,22.57-13.24,54.43-40.94,43.14-3.07,28.73-39.06,44.15-63.68,18.5-2.05,18.44-37.92,26.52-45.15,6-6.57,20.52-63.85,17.8-72.07-8.06-9.74,19.88-54,12.29-60.17-11.31C172.68,432.07,135.64,406.5,146.93,371.61Z"/>
    <path d="M766.33,652.79c39.35,20.27,13.12,79.89-22.65,71.54,2.38,23.85-29.81,35.77-42.93,22.66-8.35,32.19-66.77,40.54-87,8.35-11.93,27.42-47.7,23.84-52.47,1.19C548.13,778,506.4,778,494.47,758.91c-20.27,21.46-66.77,11.93-72.73-19.08-21.46,21.47-70.35-3.57-59.62-35.77-19.08,0-23.85-28.61-2.38-37-14.31-23.85,19.07-54.85,46.5-41.73,3.57-29.81,45.31-39.35,63.19-11.93,11.93-23.84,44.12-22.65,51.27,3.58,11.93-27.42,58.43-32.19,77.51-7.15Z"/>
  </g>
  <g class="treeFurthest">
    <path d="M923.75,564c40-4.1,25.65,70.8-9.23,52.33,11.28,22.57-26.68,53.35-44.12,40-4.1,21.55-34.88,23.6-40,6.16-14.37,22.57-49.25,23.59-66.69,2-13.34,23.6-56.43,20.52-68.74-4.11-21.54,17.45-61.56,2.06-59.51-23.59-31.8,24.62-82.07-33.86-44.11-58.48-14.36-22.57,9.23-56.43,36.93-45.14,3.08-28.73,42.07-45.15,66.69-19.5,6.16-14.36,33.86-18.46,45.14,0,18.47-29.75,63.61-32.83,82.08,2,13.34-15.39,40-11.28,46.17,12.32C894,506.52,935,529.09,923.75,564Z"/>
    <path d="M817.6,154.39c46.5,13.11,34.58,76.31-10.73,76.31-4.77,40.54-62,64.39-95.39,42.92-6,25-45.31,35.77-59.62,15.5-16.69,32.2-69.15,40.54-88.23,11.93-11.92,23.84-51.27,25-59.62,3.57-20.27,22.66-73.93,26.24-84.66-6-23.84,27.43-77.5,11.93-84.65-17.88-35.77,19.07-87-20.27-70.35-58.43-27.43,1.19-41.74-32.19-14.31-51.27-20.27-34.58,6-88.23,41.73-79.89C281,67.34,308.46,45.88,328.73,59,340.66,23.23,386-1.81,422.93,24.42c10.73-29.81,58.43-32.19,68-1.19C500.43.57,535,.57,543.36,30.38c29.81-26.23,79.89-17.88,93,23.85,14.31-17.89,46.5-7.16,47.7,22.65,35.77-23.84,85.85-4.77,91.81,41.74C797.33,105.5,824.76,128.15,817.6,154.39Z"/>
  </g>
</svg>
