<svg viewBox="0 0 1064.31 1383.8">
    <path class="antenna" d="M402,640.3a43.83,43.83,0,0,1,1-6c3.28-10.45,3.88-21.43,6.47-32,1.77-7.28,2.91-14.71,4.23-22,1.14-6.36,3-12.65,2.61-19.47-.26-4.62.07-10,2.65-14.48l.5-1c.16-10.62,2.15-21.11,3.91-31.44,1.73-10.16,2.94-20.41,4.34-30.6.93-6.75,1.75-13.62,2.44-20.45.89-8.69,2.37-17.4,3.49-26.06,1.45-11.11,4.17-21.92,5.93-32.94,2.2-13.74,5.62-27.29,7.77-41,1.91-12.19,5.06-24.16,6.17-36.48.63-7,3.6-13.48,4.59-20.49,1.74-12.33,6-24.13,8-36.49s5.15-24.78,8.42-37c3-11.08,5.23-22.28,7.46-33.51,2.39-12.08,6.92-23.65,9.61-35.59,1.95-8.66,3.22-17.63,5-26.39,2.67-13.17,4.26-26.53,7.76-39.55,3.61-13.49,7.07-27,8.69-41,.66-5.74,2.62-11.33,4.1-17.43-3.38-1.22-4.9-4.26-6.74-7.07-6.34-9.63-5.94-15.19,1.49-24.54C517.22.71,524.53.33,531.49,1.55c6.29,1.1,9.5,6.23,11.2,12.7,2.38,9.07-1.5,15.87-7.33,21.36-4.68,4.42-5.72,9.74-6.73,15.2-2,10.78-3.4,21.66-5.11,32.48-1.62,10.34-3.23,20.69-5,31-.91,5.25-3.1,10.18-4.07,15.49-2,10.73-4.79,21.31-6.78,32a134.37,134.37,0,0,1-3.51,13.86c-1.95,6.51-2.36,13.1-3.6,19.61-2,10.34-4.78,20.59-5.81,31-1.42,14.47-6.43,28.13-8.32,42.47a180.21,180.21,0,0,1-5.54,25c-.73,2.61-.21,5.15-.45,7.58-.69,6.88-2.54,13.54-3,20.46a88,88,0,0,1-4.67,22.57c-1.54,4.48-1.05,9.62-1.72,14.43-1.75,12.68-3.91,25.31-5.37,38-1.05,9.06-2.3,18.08-4.19,27-2.77,13.06-3.5,26.37-5.56,39.49-2.19,14-2.76,28-4.42,42-1.32,11.2-3.45,22.31-4.85,33.52-.72,5.78-1,11.63-1.21,17.48-.34,8.85-1.27,17.71-2.43,26.5-1.46,11-3.83,21.85-4.57,33-.72,10.87-2.52,21.67-3.88,32.76H374.21c-.18-7.84-3.28-14.68-5.49-21.81-2.34-7.58-3-15.66-4.73-23.43-3.65-16.09-7-32.24-11.85-48-3.38-11-5.56-22.36-8.67-33.45-2.87-10.25-6.57-20.27-9.36-30.54-3-11-7.85-21.27-11.5-32-2.73-8-4.88-16.27-7.05-24.48-3.12-11.8-5.5-23.83-9.16-35.45-4.69-14.92-5.21-30.72-10-45.5a304.11,304.11,0,0,1-10.56-43.59c-1.2-7.09-3.06-14.19-3.25-21.46-.06-2.3-2.34-3.26-2.6-5.49-.84-7.35-1.86-14.68-3-22-1.24-8.18-2.94-16.3-3.9-24.51s-2.33-16.39-4.05-24.5c-1.45-6.81-2.76-13.65-4-20.5-1.89-10.32-4.07-20.61-5.35-31-.62-5-2.71-9.5-3.47-14.43-.28-1.82-3.76-3.29-6.69-3.63-5.41-.62-12-6.42-13-10.92-.1-.45,1-2,1-2-2.65-6.18-.3-11.83,2.61-16.94,5.26-9.28,21.57-12.55,30.38-6.55a6.43,6.43,0,0,1,1.5,1.49c4.93,6.67,8.21,19.68.52,27.5-1.24,1.27-2.36,2.64-3.35,3.75,2.47,11.88,4.9,23.57,7.34,35.25,2.26,10.81,4.71,21.59,6.88,32.42,3.06,15.16,4.3,30.61,8.35,45.65,3.35,12.44,5.9,25.19,8.46,37.89,2.65,13.17,6.75,26.05,10.35,39,.9,3.25,2.87,6.26,3.35,9.53,1.47,9.9,4.85,19.35,7.47,28.89,3.22,11.71,6,23.58,9.86,35.19,4.5,13.64,7.61,27.76,12.25,41.41,2.9,8.51,4.21,17.62,7.36,25.87,4.31,11.23,7.47,22.76,11.07,34.16,3.32,10.51,6.05,21.23,8.51,32,1.71,7.5,4.54,14.61,6.73,21.93,3.7,12.37,6.27,25,11.15,37.13a133.28,133.28,0,0,1,6.38,22.38c1.27,6,2.17,12.54,7.33,17Z"/>
    <path class="antennaBase" d="M367.53,634.8C359.77,636,354,640.63,348,645.22a85.07,85.07,0,0,0-26.79,34.64,75.1,75.1,0,0,0-5.85,24.42c-.65,8.83-2.06,17.61-1.75,27h197c-.25-8.5.58-17-.49-25.51A94.79,94.79,0,0,0,499,672.31c-8.68-16-23.29-25.24-39-33-14.3-7-29.69-9.87-45.48-11.07a122.4,122.4,0,0,0-27,1.1A74.35,74.35,0,0,0,368,634.8Z"/>
    <path class="antennaRing" d="M405.53,629.8c3.07,4.6,8.34,6.35,12.57,9.4,17.69,12.75,28.48,29.7,32.44,51.09,1.44,7.78,3.49,15.49,2,23.51-.52,2.76.75,4,3.49,4,7.51,0,15,0,22.93,0a126.52,126.52,0,0,0-1.5-25c-1.65-10.12-5.44-19.69-9.58-28.95C462.64,652.17,454,643.05,443,636.3c-11.44-7-23.78-9.22-37-7.08-2.08.34-4.32-.26-6.49-.42Z"/>
    <path class="side" d="M1016.53,743.3c-11.22-1.51-22.14-4.6-33.48-5.68-10.58-1-21.06-3.3-31.51-5.37-14.41-2.85-29-4.54-43.5-6.49-13.86-1.85-27.63-4.45-41.53-5.79-9-.87-17.86-3-27-2.75-2.37,0-4.53.56-5.94,2.13-5.78,6.49-13.49,10.48-20.14,15.85a5.63,5.63,0,0,0-2.47,5.1c.09,19.66.35,39.33,0,59-2.17,121.33.33,242.68-1.2,364-.9,71.34-.13,142.67-.75,214,0,1.68,0,3.36,0,5.5h239.5c7,0,7.29-.27,7.51-7.5.61-20.35,2.19-40.64,2.62-61,.28-13.35.18-26.67,0-40-.25-15.82.38-31.66.34-47.49,0-9.17-1.14-18.36-.83-27.5.63-18.68,2.16-37.33,2.72-56,.16-5.27-.26-10.66-.34-16-.13-9-.64-18-.39-27,.21-7.83,1.47-15.66.86-23.5-1-13.66-1-27.33-.94-41,.1-19.34.43-38.67.45-58,0-15.17.28-30.38-.69-45.49-.55-8.52,1.61-17-.67-25.54a13.19,13.19,0,0,1,.85-8.24c1.56-3.85.33-7.93-.16-11.71a107.72,107.72,0,0,1-.38-17c.32-11.83.07-23.65.69-35.51.45-8.52,1.73-17,1.79-25.49.11-14.84,2-29.62,1.14-44.5-.41-6.75-4-10.24-12.51-13.09-7.88-2.63-16.2-3.19-24-5.87-3.06-1-5.83-3.68-9.49-2Z"/>
    <path class="back" d="M2.53,849.3c.17,6.83.41,13.66.48,20.5.11,9.67-.9,19.36-.72,29,.11,5.82.52,11.63.33,17.51-.44,13.49-1,27-.45,40.49.64,16.35.16,32.67.21,49,0,5.36.93,10.66.63,16-.66,12-.35,24-.21,36,.12,10.32-.24,20.66.19,31,.28,6.68-.75,13.35-.8,20-.06,7.48,1.5,14.91,1.49,22.5,0,8.51.9,17-.53,25.51-.54,3.22.38,6.65.35,10-.1,17.16.37,34.37-.63,51.49-1.37,23.37.94,46.67.3,70-.21,7.48.43,15,.11,22.51-.15,3.51.53,7.31.81,11,.26,3.44,1.41,6.79-1,10.06-1,1.4.9,2.84,1,4.44.45,12.17,1,24.34,1.45,36.51.12,3,0,6,0,9.5H834.09a243.45,243.45,0,0,0-.61-31.5,153.58,153.58,0,0,1-.06-20c.33-7-.21-14-.39-21-.32-12.34-1-24.67-.91-37,.13-13.84.79-27.69,1-41.51.18-9.27,1.25-18.58.13-28-1.23-10.36-.54-21-.58-31.47-.06-15.66,1.26-31.32,1.75-47a132.29,132.29,0,0,0-.34-17c-.36-3.79.18-7.66.41-11.49.49-7.88-1.86-15.75-.82-23.48,1.31-9.74,0-19.36.22-29,.37-14.83-.55-29.67-.64-44.5,0-8.43.55-17,.85-25.51.42-11.44,2-23,.36-34.48-.66-4.69.16-9.41-.19-14-.58-7.53.49-15-.18-22.52a148.66,148.66,0,0,1-.28-16.5c.25-10.82-.63-21.66-.79-32.5-.19-12.16-.87-24.39-.3-36.48,1.16-24.86-.57-49.69.29-74.51.15-4.51.53-9,1-13.5.81-7.81-1.62-10.85-9.52-12-9.29-1.38-18.67-1.8-28-2.8-7.86-.85-15.73-.61-23.55-1.59-2.77-.35-5.68.57-8.48.36-13.66-1-27.3-2.28-41-1.89-10.5.29-21,0-31.51,1.36-2.93.38-6-.37-9-.39-13.67-.11-27.35.84-41-.55-20-2-40-1.51-60-1.83-15.49-.24-31,1.38-46.5,1.18-11.19-.14-22.33,1.63-33.5.64a210.44,210.44,0,0,0-37,.23c-10.85,1-21.72,1.08-32.52,1-8.48,0-17.08-.07-25.48.25-6.54.25-13.65-1.3-20,2-.66.34-1.65,0-2.48,0-20.22.54-40.35,2.62-60.52,3.68-11.84.62-23.61,2-35.47,2.59-14.49.69-29,1.9-43.52,2.58-6.67.31-13.33.72-20,1.17-11.18.77-22.41.94-33.52,2.87-4,.71-8.27-.3-12.49-.08-6.24.32-12.32,1.68-18.45,2.46-7,.89-14.09,1-21.06,1.42-12.71.72-25.3,2.5-38,3.34-10,.66-20,1.55-30,2.49-9.34.88-18.64,2.44-28,2.86-11.8.52-23.08,4.73-35,4.19-5.88-.27-7.41,1.68-7.52,7.42s1.41,11.27,1.1,17c-.34,6.15-.18,12.33-.06,18.49.26,12.51.52,25,1,37.5.23,5.57-1.26,11-1.07,16.51.08,2.37-.17,4.78,1,7Z"/>
    <path class="panel" d="M793.81,752.72c-8.26-3.09-16.87-1-25.29-1.8-17.48-1.65-35-3-52.5-4.42-15.43-1.2-30.87-2.74-46.51-1.49-10,.8-20.33,1.06-30.5-.59-3.87-.62-8,.29-12,.36-16.85.29-33.67-1-50.5-1.48-1.26,0-4-.5-4-.5a391.12,391.12,0,0,0-53.48.32c-13.49,1-27.06,1-40.56,2.91a159.76,159.76,0,0,1-27,1.57c-11.61-.37-23.28,1.36-35,1.28-15.68-.11-31.28,1.91-47,2.1-14.49.18-29,.35-43.51,1.71-15.62,1.46-31.32,2.22-47,3-7.49.4-15.17,0-22.46.57-11.49.88-23.08,1.05-34.53,2.54-6.87.89-13.77-.76-20.49.1-14.47,1.86-29.06,1.81-43.55,3.63-8.41,1-17,1.55-25.48,2-9.39.52-18.67,1.82-28,2.85-3.68.41-7.38.39-11,.92-8.7,1.27-17.35,2.89-26,4.44-10,1.79-20.06,3.67-29.81,5.45-.63,3.38-1.56,6.2-1.62,9q-.69,28.25-1.05,56.5c-.2,14.5-.39,29-.77,43.5-.31,12-1.54,23.94,0,36,1.2,9.2.69,18.64.67,28,0,15-.33,30-.46,45-.08,9.52.85,19,1.4,28.5.45,7.64.09,15.33.09,23,0,14.16.61,28.36-.17,42.49-.74,13.36-.29,26.67-.32,40,0,10.17.5,20.34.77,30.5.28,10.31,0,20.75.57,31,1,19.17,2,38.35,1.92,57.51,0,9.51-.23,19,.24,28.51.13,2.83.68,5.69.43,8.49-1.73,19.68-.83,39.33,0,59,.17,4,1.33,5.6,5.58,5.58,15.52-.08,31.05,0,46.49-1.69,3.58-.4,7,.55,10.51.13,7.14-.87,14.17-1.91,21.51-1.8,12.8.19,25.61-1.29,38.49-1.5,25.51-.41,51-2.67,76.51-3.63,17-.64,34-2.3,51-.63a43.63,43.63,0,0,0,8,0A494.61,494.61,0,0,1,353,1340c13.88.36,27.72,0,41.49-.92,17.17-1.1,34.37-.12,51.52-1.68,6.44-.58,13,.07,19.5.22,11.16.25,22.27,1.61,33.51.95,4.18-.24,8.59-.75,13,.09,8,1.52,16.31.84,24.49,1.42,13.44.94,27,.15,40.48.81,15.16.74,30.34.64,45.51,1.18,12.79.46,25.62-1.1,38.5-.37,15.67.9,31.35,1.65,47,3,12.3,1.06,24.66,1.38,37,2.09,7.5.43,15.11.37,22.47,1.66,7.17,1.25,14.33,1.77,21.53,2.34,2.72.22,3.9-1.26,5.07-3.48,2.48-4.72.93-9.75,1.22-14.55.66-11,1.41-21.93-.09-33-1.37-10.21,1.65-20.55,0-31-1-6.65.26-13.63.24-20.46,0-12.5-1.29-25.09-.22-37.48,1.35-15.53.86-31.06.91-46.53.06-16,.66-32-.67-48-.86-10.2,1.19-20.26.73-30.51-.79-17.64-.8-35.35,0-53,.51-11.52.68-23,.14-34.5-.65-13.68-.6-27.32-.54-41,.1-26-.5-52-1.51-78-.42-10.89-.58-22,.64-33,1.35-12.13-.13-24.34.63-36.49.45-7-1.28-14.11-.36-21,1.08-8.05.32-16,.82-24a23.13,23.13,0,0,0-2-11.5S794.51,753,793.81,752.72Z"/>
    <path class="tubeSide" d="M380.53,1048.3c.31,9.93,1.9,19.7,3.2,29.54s3.87,19.12,6.77,28.47a155.52,155.52,0,0,0,16.76,35.85c4.09,6.6,10.17,12.07,15.83,17.58A116.62,116.62,0,0,0,459,1183.37c15.59,6.66,31.47,12.3,48,15.9,10.52,2.28,21.19,3.94,32,2.94,7.71-.72,15.37-2.09,23-3.46,6.05-1.09,12-2.49,18-4a36.25,36.25,0,0,0,7-3c23-11.43,43.39-26.29,59.44-46.54,5.11-6.44,8.81-13.9,13.19-20.87a118,118,0,0,0,10.94-23,184.14,184.14,0,0,0,7.92-29,127.84,127.84,0,0,0,1.41-39c-2-16.6-4-33.44-12-48.43-5.17-9.61-12.19-18.22-17.74-27.65-4.74-8-11.6-14.19-17.85-20.7-5.69-5.93-13-10.64-20.38-14.51-6.1-3.21-11.23-7.93-17.85-10.3-15.83-5.68-31.63-11.1-48.51-13.08a130.84,130.84,0,0,0-29-.14,184.93,184.93,0,0,0-32,6.83c-11.31,3.29-21.92,8.25-32.65,13.17-17.69,8.11-31.23,20.71-42.08,36-7.36,10.38-14.87,21.29-19,33.39-5.71,16.71-10.29,33.91-9.76,51.92a22.84,22.84,0,0,1-1,8Z"/>
    <path class="tubeBack" d="M554.53,1138.8c8.4-4.74,16.9-9.23,24.05-16a112.81,112.81,0,0,0,29.76-45.12c4.71-13.45,4.94-27.72,3.72-41.94-.76-9-2-18.1-4.9-26.36-3.87-11.09-8.66-22-15.9-31.81C585.47,969.78,579,963,571,957.9A108.48,108.48,0,0,0,534,942.76c-5-1-9.78-3.51-15-2.41-9.12,1.91-18.49-.46-27.48,1.57a185.41,185.41,0,0,0-25,7.52c-6.23,2.37-12.7,4.45-18.1,8.8s-10.71,9-14.47,15c-3.46,5.59-8.55,10-11.48,16-8.12,16.57-15.27,33.6-13.75,52.47.62,7.67-.27,15.43,1.69,23,3.74,14.57,9.14,28,19.37,39.65,9.78,11.14,20.17,21.5,33.28,28.15,20.61,10.46,42.53,15.31,65.92,11.81a97.56,97.56,0,0,0,23.5-6.08c.37-.16,1,.29,1.48.46Z"/>
    <path class="slat" d="M313,1103.3c.26-6.84.65-13.65.74-20.5.12-9.33-.46-18.71.39-28s-.61-18.67-.19-28c.31-6.82-.33-13.69.26-20.48.22-2.6-.37-5-.29-7.52.37-12,.5-24,.57-36,.09-14-.32-28,.11-42,.54-17.84,1-35.68,1.6-53.52.33-9.6,2.53-19.32.16-29.14a78.33,78.33,0,0,0-14.36.05c-5,.46-10,.49-15,2-7.06,2.16-7.79,2.22-7.89,9.1-.2,12.66,0,25.33.15,38,.07,7.61-.32,15.34-.88,23a58.82,58.82,0,0,0-.22,11c.9,7.72.29,15.4-.31,23-.67,8.54.21,17-.37,25.51-1.38,20.16-.81,40.34-.92,60.51,0,6.16.88,12.38.36,18.49-1.25,14.5-.95,29-.81,43.5.09,9.84,1.55,19.69,1.2,29.5-.23,6.21.41,12.35.47,18.5.18,19.35-1.5,38.67-.7,58,.4,9.67,1.12,19.32.93,29-.08,3.86-1.13,7.67.45,11.53,1,2.48,2.71,4.34,5,3.35,6.9-2.93,14.11-.12,21.11-1.62,1.6-.34,3.65-.47,5.43-.82,3.35-.67,5-2.63,5.11-6.43.54-14-.65-28-1-42-.22-8.32.53-16.67.38-25-.29-16.17-.47-32.35-1.3-48.51-.24-4.62,1.29-9.33-.15-14Z"/>
    <path class="slat" d="M125.53,1137.3c1.12-7.15.39-14.34.45-21.5.06-8-.36-16-.43-24-.21-21.67-.13-43.34-.58-65-.44-20.69,1.25-41.32,1.33-62,.06-16,.49-32,.78-48,.29-16.34,1-32.67,1.44-49,.16-5.67-.79-11.31.2-17.16-4,1-7.33,1.74-10.62,2.46-6.95,1.53-14.34,1.68-20.69,6C94.77,860.92,94,862.6,94,865.3c0,7.66.8,15.43-.2,23-1.24,9.38-.24,18.7-.81,28-1,16.34,0,32.67,0,49,0,15.66.37,31.33.45,47,.09,16.66-.41,33.35.26,50,.23,5.81-2,11.58.43,17.64,1,2.48.19,6.86-.89,9.78-2,5.3-1.21,10.41-.71,15.58a121.3,121.3,0,0,1,.37,16.5c-.35,9.54,1,19,1,28.51.1,13-.17,26,.07,39,.3,16,.64,32,1.64,48,.29,4.62.1,9.5,1.84,14.15,3.8,1.18,7.78.14,11.43-.39,4.36-.64,8.73-.57,13-1.24,3.22-.49,4.47-1.93,4.14-5.52-.42-4.45.2-9,.23-13.49.09-14.33,1.09-28.63.31-43-.62-11.46-1.3-23-.28-34.5.45-5.12-.23-10.33-.4-15.49Z"/>
    <path class="slat" d="M153,1250.3c.17-6.67.48-13.34.47-20,0-8.17-.33-16.34-.46-24.5-.35-21-.47-42-1.1-63-.27-9-1.77-18.07-.74-27,1.77-15.37.21-30.7.08-46-.12-13.7,1.23-27.37.57-41-.62-13-.17-26-1.29-39a35.15,35.15,0,0,1,1-12c1.24-4.69-.11-9.34,0-14,.39-17.17.32-34.34,1.26-51.52.45-8.25-.29-16.65-.25-25,.05-10.34.41-20.67.41-31,0-3.17,1.53-4.62,4-6.06,6.11-3.54,12.92-3.24,19.54-3.88,3-.28,6-1.41,9.32.34.85,8.43-.13,17.28-.47,26.09-.48,12.51.15,25-.42,37.5-.72,15.51-.71,31-.29,46.5.34,12.52-.56,25,0,37.5.59,13.19,0,26.42-.64,39.48-.62,13.52-.76,27-.92,40.53-.22,18.16-.24,36.33.85,54.5.86,14.31,1.63,28.67,1.4,43-.19,12.47,3,24.66,2.47,37-.38,9-.16,18-.16,27,0,3.88,1,7.67-2.3,9.71-10.65,1.65-21,.36-31.34,1.79Z"/>
    <path class="slat" d="M248.53,1165.8c1.46-2.84-.14-5.66-.08-8.51.21-10.33.84-20.73-.12-31-1.07-11.35-.71-22.69-1.13-34-.53-14.31.38-28.66.25-43-.07-8.67-1.19-17.33-1.33-26-.11-6.66.79-13.33.87-20,.16-14.67.36-29.33.9-44,.62-17,.76-34,0-51-.76-16.37.63-32.67.19-49-.13-4.51,1.16-8.88.77-13.53-.27-3.27-1-4.06-3.78-4-6.83.18-13.67.34-20.5.53-.17,0-.32.44-.5.46-9.87.93-9.63.94-10.05,11-.68,16-.33,32-.43,48-.05,9.5.13,19,.36,28.5.23,9.32-.75,18.66-.83,28-.16,17.16.36,34.34-.15,51.49-.67,22.34-.06,44.67-.43,67-.11,6.69.69,13.31.69,20,0,16.68-1.1,33.32-1.4,50-.29,15.7.24,31.36.94,47,.46,10.54.26,21-.11,31.51a115,115,0,0,0,1,15.49c.32,3.15,2.77,3.65,5.45,3.51,6.5-.34,13-.88,19.5-1,11.14-.12,11.14,0,11-11a10.89,10.89,0,0,0-.24-1.5Z"/>
</svg>
