<svg viewBox="0 0 839.27 3034.71">
    <g class="support">
        <path d="M442.94,759.7h150q.45-28,.91-56h-150Q443.39,731.7,442.94,759.7Z" transform="translate(-1.21 -0.06)"/>
        <path d="M400.47,938.71h230q-1.32,111.49-2.16,223h-230Q399.15,1050.21,400.47,938.71Z" transform="translate(-1.21 -0.06)"/>
    </g>
    <path class="pole" d="M566.45,2956.66q-24.72-833-20.92-1666.54,1.26-265.21,5.41-530.42h-66q-4.12,265.21-5.41,530.47-3.91,833.44,20.92,1666.67c-52.9,2.41-106.09,8-157.19,22.51-34.82,9.87-75.73,24.27-98.45,54.42h582c-22.66-30.77-64.45-45.05-99.71-54.91C674.9,2964.26,620.45,2958.83,566.45,2956.66Z" transform="translate(-1.21 -0.06)"/>
    <g class="casing">
        <path d="M71.81,1241.73h256c38.13.84,70.21-32.54,70.48-70q.88-121,2.33-242c.48-37.41-31.05-70.88-69.12-70H75.5c-37.51,0-71.29,31.87-70.93,70q-1.45,121-2.33,242C1.12,1209.78,34.37,1241.74,71.81,1241.73Z" transform="translate(-1.21 -0.06)"/>
        <path d="M648.81,1241.73h137q26.13-191.12,53.69-382h-187a21.6,21.6,0,0,0-21.31,21q-2.22,170-3.29,340A21.12,21.12,0,0,0,648.81,1241.73Z" transform="translate(-1.21 -0.06)"/>
        <path d="M416.14,2.05q119.64-2,239.27,0c10.21.19,18.1,7.75,17.63,16.84Q655.48,354.2,642.47,689.71a16.87,16.87,0,0,1-17.11,16.15q-106.54-1.74-213.09,0a16.18,16.18,0,0,1-16.56-16.15Q394.3,354.3,397.46,18.89C397.55,9.8,405.91,2.24,416.14,2.05Z" transform="translate(-1.21 -0.06)"/>
    </g>
    <g class="visor">
        <path d="M436.37,557.48c.46-105.18,174-107.62,170.33,0C603.41,653.21,436,654.13,436.37,557.48Z" transform="translate(-1.21 -0.06)"/>
        <path d="M438,347.52c.92-105.82,180.63-108.69,176.42,0C610.65,443.84,437.11,445.1,438,347.52Z" transform="translate(-1.21 -0.06)"/>
        <path d="M440.46,137.57c.94-106.95,187.23-109.66,182.5,0C618.78,234.42,439.6,236.45,440.46,137.57Z" transform="translate(-1.21 -0.06)"/>
    </g>
    <g class="lightGreen">
        <path d="M395.26,502.24q0,76,.31,152C346.16,652.59,345.81,505.92,395.26,502.24Z" transform="translate(-1.21 -0.06)"/>
        <path d="M650.08,502.24q-3.23,76-6.22,152C693,652.35,699.53,505.66,650.08,502.24Z" transform="translate(-1.21 -0.06)"/>
    </g>
    <g class="lightOff">
        <path d="M78.76,1210.73H321.19c24.37,0,44.75-20.29,44.95-44.65q.86-115.36,2.23-230.73a44.43,44.43,0,0,0-44.09-44.65H81.85C57.47,890.73,37,911,36.64,935.35q-1.37,115.36-2.23,230.73A44.72,44.72,0,0,0,78.76,1210.73Z" transform="translate(-1.21 -0.06)"/>
        <path d="M522.7,500.87c99,0,93.35,152-3,152C421.64,652.88,425.45,500.88,522.7,500.87Z" transform="translate(-1.21 -0.06)"/>
        <path d="M527.57,290.89c102,0,95.21,152-3.62,152C422.86,442.88,427.83,290.9,527.57,290.89Z" transform="translate(-1.21 -0.06)"/>
        <path d="M395.62,292.3q-.28,76-.35,152C344.43,443.22,344.77,295.72,395.62,292.3Z" transform="translate(-1.21 -0.06)"/>
        <path d="M396.9,82.38q-.61,76-1,151.94C343.54,233.3,344.72,85.86,396.9,82.38Z" transform="translate(-1.21 -0.06)"/>
        <path d="M659.45,292.3q-3.54,76-6.87,152C703,442.94,710.35,295.43,659.45,292.3Z" transform="translate(-1.21 -0.06)"/>
        <path d="M669.74,82.38q-3.87,76-7.54,151.94C714,233,722.11,85.55,669.74,82.38Z" transform="translate(-1.21 -0.06)"/>
    </g>
    <g class="lightRed">
        <path d="M533.36,80.92c43.12,0,82.91,31,81.08,76.54-1.8,44.56-42.69,75.42-85.36,75.43-42.33,0-81.85-31-81.1-75.43C448.75,111.87,489.93,80.93,533.36,80.92Z" transform="translate(-1.21 -0.06)"/>
        <path d="M181.82,1091.49q.6-65.52,1.34-131c.6-18.23-27.23-18.06-27.09,0q-.39,34.6-.75,69.21c0,5-7.91,5-7.86,0q.4-40.14.87-80.28c-.34-17.65-27.21-15.14-27.11,1.84q-.45,39.22-.85,78.44c-.05,5-7.92,5-7.87,0q.33-32.3.7-64.6c.6-18.23-27.23-18.06-27.09,0q-.47,41.54-.88,83c0,5.06-7.91,5.06-7.86,0q.24-25.36.52-50.75c.59-18.22-27.24-18.06-27.09,0q-.52,49.36-1,98.74c-.45,35.18,18,65.62,54,71.63,25.56,4.26,58.38-3.23,74.81-24.57Q201,1115,223.39,1086.87c12.44-14.91-10.93-33.71-22.9-18.45Z" transform="translate(-1.21 -0.06)"/>
    </g>
    <g class="visor">
        <path d="M395.26,475.24q-29.16.69-58.3,1.54c12.81,42.37,30.29,81.15,58.42,115.62Q395.26,533.83,395.26,475.24Z" transform="translate(-1.21 -0.06)"/>
        <path d="M395.73,265.31q-30.18.68-60.35,1.59c13.14,42.56,31.14,81.31,60,115.56Q395.49,323.89,395.73,265.31Z" transform="translate(-1.21 -0.06)"/>
        <path d="M397.13,55.4q-31.22.72-62.42,1.64c12.37,42,31.77,83,61.53,115.5Q396.62,114,397.13,55.4Z" transform="translate(-1.21 -0.06)"/>
        <path d="M651.23,475.24q29.12.69,58.23,1.54c-13.78,41.62-33.06,83.14-63.13,115.62Q648.71,533.83,651.23,475.24Z" transform="translate(-1.21 -0.06)"/>
        <path d="M660.73,265.31q30.13.68,60.27,1.59c-14.73,42.62-35.36,82-65.69,115.56Q658,323.89,660.73,265.31Z" transform="translate(-1.21 -0.06)"/>
        <path d="M671.13,55.4q31.17.72,62.32,1.64c-16,42.84-36.78,82-68.24,115.5Q668.11,114,671.13,55.4Z" transform="translate(-1.21 -0.06)"/>
    </g>
</svg>
