<svg class="presence" xmlns="http://www.w3.org/2000/svg" viewBox="0 0 251.96 911.81">
  <g class="steelDark">
    <path d="M120.84,228.49h-45l.27-16.8h45Z"/>
    <path d="M132.1,282.2h-69q-.41,33.46-.65,66.93h69Q131.69,315.66,132.1,282.2Z"/>
  </g>
  <path class="steelMediumDark" d="M113.27,887.68c-5.58-166.17-8.58-476.07-4.65-659.09H88.82c-4.23,181.82-.93,492.92,4.65,659.15-27.18.87-65.28,7.47-76.69,23.07h174.6C181.49,897,147.89,888.61,113.27,887.68Z"/>
  <g class="brassDark">
    <path d="M229.08,373.15H152.3c-11.33.5-20.94-10-20.87-21q.25-36.31.7-72.62c.15-11,10-21.52,21.28-21h76.78c11,0,21.38,9.7,20.74,21q-.45,36.32-.7,72.62C250.65,363.45,240.08,373.13,229.08,373.15Z"/>
    <path d="M56,373.15H14.89Q7.72,315.85,1,258.5H57.09a6.35,6.35,0,0,1,6.23,6.31q-.68,51-1,102A6.51,6.51,0,0,1,56,373.15Z"/>
    <path d="M139.58,1.28q-35.9-.55-71.78,0c-3.07.06-5.58,2.32-5.6,5.05q-1,100.57-.53,201.16a4.86,4.86,0,0,0,5,4.85q32-.5,63.93,0a5.07,5.07,0,0,0,5.13-4.85q3.88-100.61,9.17-201.16C145,3.6,142.65,1.34,139.58,1.28Z"/>
  </g>
  <g class="brassDarkest">
    <path d="M125,167.83c1.12-31.37-50.93-31.24-51.1,0C73.71,196.69,124,196.08,125,167.83Z"/>
    <path d="M127.27,104.85c1.28-31.72-52.61-31.56-52.92,0C74.06,134.08,126.12,133.38,127.27,104.85Z"/>
    <path d="M129.85,41.9c1.72-32.3-54.3-31.91-54.75,0C74.68,71.52,128.3,70.84,129.85,41.9Z"/>
  </g>
  <g class="lightOff">
    <path d="M61.54,151.25q0,22.8.09,45.59C45.85,195.88,45.86,152.65,61.54,151.25Z"/>
    <path d="M138,151.25q-1,22.8-1.86,45.59C151.71,196,153.72,152.78,138,151.25Z"/>
    <path d="M101.23,87.87c-29.24,0-30.52,45.57-1.09,45.58C129.07,133.45,130.83,87.87,101.23,87.87Z"/>
    <path d="M140.79,88.29q-1.06,22.78-2.06,45.57C154.73,133.18,156.92,89.66,140.79,88.29Z"/>
    <path d="M61.65,88.29q-.09,22.78-.11,45.57C45.34,133.09,45.59,89.58,61.65,88.29Z"/>
    <path d="M103,24.92c-12.8,0-25.43,9.46-25.65,22.94C77.1,61,89.15,70.48,101.68,70.48s25-9.46,25.57-22.62C127.79,34.42,115.72,24.92,103,24.92Z"/>
  </g>
  <g class="lightRed">
    <path d="M143.88,25.36q-1.17,22.77-2.26,45.55C158,70.25,160.42,26.72,143.88,25.36Z"/>
    <path d="M62,25.36q-.2,22.77-.31,45.55C45.13,70.15,45.58,26.4,62,25.36Z"/>
  </g>
  <path class="lightGreen" d="M99.77,150.84c-28.44,0-29.58,45.6-.89,45.6C127.14,196.44,128.49,150.85,99.77,150.84Z"/>
  <g class="brassDarkest">
    <path d="M138.33,143.16q8.73.21,17.47.46a110.08,110.08,0,0,1-18.94,34.68Q137.57,160.74,138.33,143.16Z"/>
    <path d="M141.18,80.2q9,.21,18.08.48c-4.74,12.71-10.86,24.3-19.71,34.65Q140.35,97.77,141.18,80.2Z"/>
    <path d="M144.3,17.27q9.34.23,18.69.49a97.84,97.84,0,0,1-20.47,34.62Q143.39,34.83,144.3,17.27Z"/>
    <path d="M61.53,143.16q-8.73.21-17.48.46c3.82,12.7,9,24.43,17.52,34.68Q61.54,160.74,61.53,143.16Z"/>
    <path d="M61.68,80.2q-9.06.21-18.11.48c4,12.76,9.52,24.27,18,34.65Q61.61,97.77,61.68,80.2Z"/>
    <path d="M62.1,17.27q-9.36.23-18.73.49C47.29,30.28,53,42.54,61.83,52.38Q61.94,34.83,62.1,17.27Z"/>
  </g>
</svg>
