<svg viewBox="0 0 871.61 3071.36">
    <path class="support" d="M678.52,976.75c1.06,1.58.46,3.34.46,5q.06,105,0,210a26.87,26.87,0,0,1-.31,5c-.4,2.12-1.06,3-3.15,3-6.51-.25-12.86.71-19.58-.63-7.85-1.57-16.26-.5-24.42-.33-9,.18-18,.68-27,.94-4.36.12-8.6,1.62-13.75.79V977.26c9.75,0,19.6-2.13,29.76-1.18,6.08.57,12.32-.71,18.49-.78,12.16-.16,24.33-.06,36.5,0,1.06,0,1.69,1.56,3,1Z"/>
    <path class="support" d="M478,1200.25c5.39,2.18,11,.79,16.5.83a50.76,50.76,0,0,0,7-.37c.75-1.91.54-4,.54-6q0-102.49-.06-205c0-4.19,2.57-8.25.41-12.45A522.65,522.65,0,0,0,399,980.71v218.54c9.32,0,18.17.27,27-.11,4.7-.2,9.32-.22,14,0,8.15.39,16.33.11,24.5.11,3.33,0,6.66,0,10,0,1.56,0,3.07.07,4-1.52Z"/>
    <path class="pole" d="M491.52,775.25c2.33,1.64,4.66,0,7,0q51.24.09,102.5,0a8.22,8.22,0,0,1,1.61.35c1.16,3.14-.28,6.13-.17,9.14.55,14.75.68,29.58.07,44.23-.46,11.18,1.57,22.15.62,33.28-.93,10.78-1,21.66-1.09,32.49-.12,11-2.07,22-1,33,1.11,11.17.21,22.39,1.11,33.5.87,10.84,1.51,21.64,1.33,32.51-.06,3.57,0,7.14-1.49,10.51a2.44,2.44,0,0,0,0,1.49c3,10.34.3,20.66,0,31a112.93,112.93,0,0,0,.85,17.51c1.6,12.64-.35,25.33-.63,38-.22,10.17.31,20.33-.13,30.51-.55,12.47.26,25-.23,37.49q-.93,23.25-.9,46.5c0,4.67.23,9.35,0,14-.71,11.76,2.75,23.26,2,35-.4,6.5-1.08,13-1.08,19.5,0,11-.66,22-.89,33-.25,11.67.13,23.33-.19,35-.25,9.08.35,18.35.45,27.49.17,14.82-.17,29.7.07,44.49.17,10.7-1.07,21.46-.08,32,1.84,19.71-.34,39.38.88,59,.52,8.34-.31,16.66,1.1,25,1.08,6.46-.28,13.3-.21,20,.15,14.33.25,28.68.22,43,0,16.22,2.58,32.27,1.81,48.5-.68,14.15-.23,28.37-1.24,42.49a278.51,278.51,0,0,0,0,31.52,316,316,0,0,1-.5,32c-.31,5.22,0,10.34.09,15.51.16,14,.07,28,.43,42,.28,10.82-1.83,21.68-.8,32.49,1.74,18.17.45,36.35.92,54.51.32,12.33.27,24.7,1.17,37,.44,6,1.94,11.92.84,18a47.09,47.09,0,0,0-.23,16.54c.9,5.34.3,11-.69,16.48-1,5.28,1.49,10.54.5,16-.8,4.43-.13,9-1.53,13.5-1.06,3.35.93,6.59,1,10,.13,6.84,1.51,13.77.77,20.48-2.23,20.32-1.2,40.69-2.17,61-.23,4.71.86,9,.81,13.52-.06,6.33-.47,12.67-.44,19,.08,20.17-.28,40.36.75,60.49.42,8.38-.67,16.75.36,25,1.32,10.53-.45,21.16,1.11,31.48,1.64,10.77-.23,21.46,1,32,1.49,13.42.82,26.75-.42,40-1,10.71-.62,21.36-.7,32-.07,10,1.18,20,.74,30-.4,9-.61,18-1.51,27-1.24,12.38-.56,25-.12,37.46.1,2.72-.39,5.32-.27,8,.38,8.66.68,17.34.52,26-.31,17.5-1.18,35-1.33,52.5-.07,7.5,0,15,.07,22.5,0,6.31,1.88,12.59,1.82,19-.08,8.34,0,16.66-.38,25a175.45,175.45,0,0,0,.5,24.48c.76,8.29-.79,16.35-1.08,24.51-.7,19.84-2,39.62.23,59.53,1.27,11.18.47,22.64.13,34-.19,6.68-.11,13.33,0,20,.08,8.32.9,16.7-.4,25-.41,2.66,1.15,4.89,1.1,7.5-.15,7.35-.41,14.67-.92,22-.29,4.11,1.18,8.32,1.28,12.49.14,6-.24,12-.43,18-.4,13.37,1.72,26.66,1.4,40-.31,12.87,1.42,25.64,1.14,38.5-.29,12.67-1.28,25.31-1.17,38,.06,7,1.41,14,1.14,21-.14,3.5,2.39,4.22,5,4.47,12.83,1.24,25.65,3.09,38.5,3.33,13.28.24,26.12,2.91,39,5.38,16.07,3.09,31.7,8.2,47.59,12.12,12.55,3.1,25.09,5.91,36.95,11.2,12.34,5.49,24.25,11.81,36.07,18.37a271,271,0,0,1,31,20.57c1.89,1.41,3.07,2.93,2.35,5-.64,1.87-2.74,1.53-4.4,1.53h-2q-285.51,0-571,0c-2,0-4.22.67-6-1l-3,.5c.5-.17,1.14-.19,1.48-.52,7.25-7.27,16.56-11.56,25.12-16.82,10.2-6.26,21.15-11.32,31.79-16.87,7-3.63,13.94-7.18,21.15-10.17,5.43-2.25,11.42-3.11,16.92-5.21,6-2.28,12.1-4.33,18.12-6.12a366.48,366.48,0,0,1,41.94-9.63c14.09-2.44,28-5.47,42.44-6.61,14-1.11,28.16-.43,42.07-3.54,1.81-3.11-.65-6.47-.61-10,.19-16-1.71-31.93-1.23-48,.33-10.77.74-21.68-.26-32.48-.26-2.84,1.59-5.28,1-8a84.1,84.1,0,0,1-1.42-20.51c.8-16.66.05-33.33.26-50,.27-22.33-.7-44.67-1.37-67-.25-8,.07-16-.19-24-.54-17.17-.7-34.34-.75-51.51,0-4.67.58-9.42-.13-14-1.18-7.52,0-15-.44-22.54a248.24,248.24,0,0,1,.24-26c1.08-20.94-1.47-41.94.17-63,1.41-18.11,2-36.32,1.95-54.49,0-8.81-.75-17.63-.38-26.5.54-12.49,0-25-.15-37.5-.26-19,.25-38-1.13-57-.78-10.62-.5-21.34-.41-32,.1-11.15.12-22.34,1.13-33.51.76-8.43.21-17,.13-25.49-.07-7-.58-14-.4-21,.15-5.86-.2-11.69-.3-17.5-.24-14.55-1.8-29-2.13-43.5-.1-4.45.23-9,.34-13.5.23-9-.63-17.94.25-27,1.13-11.74.11-23.64.62-35.49.59-14.14.56-28.34,0-42.48-.46-11.68.14-23.35-.38-35-.14-3.33-.84-6.74-.4-10,1.63-12,1.15-24,.67-36-.41-10.36.52-20.65-.07-31-.78-13.62-.06-27.32-.23-41-.16-12.67-1.06-25.34-.86-38,.26-16-.84-32,.59-48a305.75,305.75,0,0,0,.74-33.47c-.12-6-2.18-12.22-1.17-18,2.07-11.72.9-23.39,1.1-35,.33-19.84-3.23-39.63-1.24-59.49.57-5.68-.21-11.32.73-17,1.58-9.57,1.12-19.29.72-29-.22-5.32,1.12-10.82.23-16-1.4-8.06-1-16.09-.55-24a134,134,0,0,0,.31-16.52,173.14,173.14,0,0,1-.44-20.49,138.74,138.74,0,0,0-.1-18c-.43-5.66-1.08-11.35-.88-17,.13-3.5.16-7,.36-10.51.45-7.73-2.29-15.24-1.52-23,.58-5.83,1.79-11.72,1.36-17.49-.93-12.33.82-24.73-1.28-37-.42-2.43-.72-5.22.07-7.44,1.77-5,1.36-10,1.34-15-.09-18-.23-36-.52-54-.09-5.5-1.11-10.85-.16-16.53,1.48-8.86.72-18,.88-27,.28-16.14,1.84-32.3.44-48.5-.78-9-.21-18-.69-27-.38-7.18,0-14.34,0-21.5-.12-15-.85-30-1.4-45-.15-3.89,1.34-7.56,1.09-11.5-.56-9-.71-18-1.1-27-.06-1.33-.39-2.84-.32-4,.57-9.42-2.57-18.64-1.56-28a124.27,124.27,0,0,0,.1-18.5c-.46-11.52.26-23,.16-34.51-.08-8-1.89-16-.42-24a10.83,10.83,0,0,0-.49-5,16.55,16.55,0,0,1-.36-7.51c1.5-10.29,2.67-20.7,2.2-31-.57-12.36.2-24.67-.16-37-.5-17.32-.15-34.67-.1-52,0-3,.74-6,.39-9a213.35,213.35,0,0,1-1.12-23.51c-.17-21.33,1.38-42.66,1.53-64,.06-8.09,1.22-16,1.85-24,.53-6.68-.54-13.39.83-20Z"/>
    <path class="support" d="M581,794.75c3.34,2,7,1.12,10.49.89,6.53-.44,13-1.48,19.5-2.41,11.45-1.62,12.82-5.45,13.71-16,.46-5.53.18-11.33.41-17,.34-8-1-16-.63-24,.14-3-.2-6,.79-9.5h-149a108.28,108.28,0,0,0-.85,25c.7,8.12-.88,16.3.05,24.5a110.94,110.94,0,0,0,1.95,11c1,4.74,4.43,5.92,8.14,6.39,10.94,1.39,22,1.92,33,2.66,17.2,1.15,34.33-1.2,51.51-.62,3.49.12,7-.29,10.5-.46Z"/>
    <path class="shell" d="M41.52,1268.25c2.85,3.11,7,2.8,10.52,3.33,10.58,1.57,21.3,2.07,32,2.94,14.66,1.2,29.51,0,44,3.21a7.86,7.86,0,0,0,2,0c16.52-.9,33,.53,49.5,1,9.17.24,18.44-1.27,27.48-.67,13.87.94,27.63-1.25,41.56.29,8.37.92,17.25-1.34,26-1.63,9.67-.32,19.33-1.1,29-1.42a225.62,225.62,0,0,0,38-4.56c10.27-2.11,20.78-2.56,31-4.93,19.58-4.54,28-13.56,32.43-31.56a235.35,235.35,0,0,0,6.62-40.49c.91-13.67,2.92-27.27,2.92-41,0-17,.18-34.06,1.71-51,1.26-13.86.72-27.69,1.4-41.52,1-21.27-1.89-42.33-2.44-63.5-.3-11.51-1-23-1.21-34.5-.23-12.31-2.72-24-8.82-35.07-6.7-12.15-17.21-18.85-29.63-23.42a136.31,136.31,0,0,0-30-7.14c-11.65-1.5-23.42-.9-35-2.53-6.33-.88-12.75-1.45-19.05-2-6.76-.59-13.67-.79-20.46-1.45-6.34-.6-12.71-.58-19-1-5.26-.38-10.65-.83-16-.78-10.51.1-21-.54-31.5-.77-11.68-.25-23.33-2.17-35-3.24a29.26,29.26,0,0,0-5.49.45c-7,.68-14.08,0-21-.39s-13.71,0-20.54-1c-4.07-.56-8.32.37-12.48.34-9.34-.06-18.67-.44-28-.43-10.34,0-20.68.06-31,.52-15.64.69-27.15,8-35.69,21.32-6.21,9.71-8.48,20.09-10.64,31.06-1.36,6.87-1.11,13.81-2.13,20.64a64.73,64.73,0,0,0-.51,17.42,18.74,18.74,0,0,1-.77,8.59c-.9,2.76.65,6.24.69,9.41.12,10.33.07,20.67,0,31,0,10.5.35,21,.27,31.5a75.28,75.28,0,0,0,.78,10.49c1.17,8.69-.45,17.41.18,26,.92,12.5.11,25.11,2.25,37.52a18.59,18.59,0,0,1,0,3.5,278.06,278.06,0,0,0,2.31,37c1.26,10.73.93,21.65,1.18,32.48.2,8.67.68,17.38,1.33,26,.64,8.32,2.47,16.49,9.41,23.3,6.53,6.4,12.9,12.53,21,16.72Z"/>
    <path class="shell" d="M666,955.25c-1.1,6.81-.36,13.67-.46,20.5s-1.28,13.61-1.15,20.5c.22,12.5-.88,25-.25,37.49,1.07,20.89-1.42,41.66-1.29,62.51.09,13.82-1.2,27.64-.46,41.51.32,6-1.21,12-.75,18,.8,10.4-.88,20.68-.59,31,.25,8.84,1.68,17.71,1.23,26.49-.4,7.69,1.28,15.42-.37,23-1.09,5,.31,9.5,1.66,14,2.32,7.78,9,9.46,15.93,10.49,6.65,1,13.31,2.14,20,2.43,9.66.41,19.3,1.4,29,1.18,5.66-.12,11.33.86,17,.83,4,0,7.93-1,12-1,11.5.14,23.07.86,34.48-.56,17.49-2.18,27.8-7.66,33.34-28.29,2.7-10.07,1.5-20.19,3.66-30.09,2.43-11.2,2.5-22.71,4.18-34,2-13.47,2.06-27.19,4.62-40.47,2.24-11.66,3.36-23.34,4.92-35,2.19-16.44,5.47-32.77,8.94-49,1.67-7.82,1.11-15.79,2.84-23.53,2.59-11.59,4.19-23.37,6.22-35,1.43-8.16,2.94-16.45,3-25,.07-7,1.91-14,3.33-21,1.88-9.26,2.14-18.69,3.37-28,.9-6.79-1.82-10.39-7.89-13.55-8.79-4.59-18.19-4.31-27.53-3.81-6,.32-12,.32-18,.33-9.72,0-19.39,2-29,1.75-10-.28-20,.76-30,0-9.26-.7-18.65.4-28,.79-10.34.44-20.72.53-31,1.63-8.88,1-18.08.49-26.51,4.36-4.94,2.26-7.29,6.31-6.92,11.49.52,7.18,0,14.36.48,21.51.33,5.35-1.47,10.67-.06,16Z"/>
    <path class="offLight" d="M341.52,929.25c7.71,1.21,15.69,2.61,22.35,6.28,9.3,5.13,15.81,13.31,16.65,24.72.64,8.83,1.64,17.61,1.56,26.5-.11,12.51.27,25,1.36,37.51.33,3.79-.36,7.66-.41,11.49-.23,21.34,1.26,42.65,1.16,64-.07,12.49,0,25,.07,37.5.07,16-2.05,32-2.61,48a121.73,121.73,0,0,1-2.36,21.44c-2.08,9.63-7.09,17.86-15.73,23.62s-18.33,7.85-28.07,9.77c-6.68,1.32-13.64,1.11-20.47,1.67-11.84,1-23.66,2.17-35.51,2.91-5.33.33-10.7.3-16,1.11-7.35,1.13-14.66.25-22,.15-22.32-.32-44.69-.48-67,.53-16.9.76-33.66-1.26-50.52-.79-10,.28-20.2.92-29.93-.79-7.85-1.37-16.1-1.06-23.78-5.23-4.16-2.26-9.68-2.92-13.19-6.49a39.47,39.47,0,0,1-11-22.42c-1.59-11.13-3.15-22.29-3.93-33.5-.65-9.29.15-18.67-.23-28-.27-6.51-2.12-12.86-2-19.5.15-8.84-1.55-17.59-1.53-26.5a314,314,0,0,0-2.29-42c-.36-2.76.52-5.67.39-8.49-.77-16.69.54-33.34.86-50,.24-12.16.38-24.34.8-36.5.31-9.28,2.18-18.5,4.51-27.47,2.71-10.45,10.86-15.44,20.88-17.46C69.6,920.09,75.84,919.7,82,919c23.79-2.74,47.73-1.21,71.56-3.31,13.62-1.21,27.72-.9,41.54,2.23,4.69,1.06,10.27.39,15.42.25,20.62-.55,41.06,1.67,61.5,3.69,17.15,1.71,34.36,2.3,51.51,3.9,4.57.43,9.23.79,13.44,2.64,1.53.67,2.63,1,4.06.36"/>
    <path class="offLight red" d="M679,265.25c6.2-3,11.3-7.05,14.63-13.43,2-3.81,5.19-6.9,6.94-11,5-11.71,7.22-24.07,8.3-36.54,1.7-19.77,2.13-39.63,2.11-59.49,0-.33-.32-.67-.73-1.5-9.75,0-19.75.06-29.75,0-4.9,0-3.56,4.76-3.17,5.91a19.63,19.63,0,0,1,.62,6.61c.07,34.33,0,68.67.07,103,0,3.33.31,6.67.48,10Z"/>
    <path class="offLight red" d="M416.52,271.75c.16-1.5.47-3,.48-4.5q0-59.74,0-119.5a30.08,30.08,0,0,0-.23-3c-7.6,0-14.94-.1-22.26.05-3.34.06-6.67.89-10,.87-3,0-4.17,1.77-4.44,4.09-.84,7.31-2,14.67-1.93,22,.21,14.34,1,28.68,2,43,.32,4.56,2.88,9,3.23,13.52.76,10.05,6.2,17.89,11.18,26,4.15,6.74,10.94,10.49,17.42,14.59,2.47,1.56,5.56,3,5,6.94Z"/>
    <path class="greenLight" d="M667.52,679.75c12.75-6.65,19.65-17.62,24.14-31,4.09-12.12,6.38-24.39,5.72-37-.4-7.57.73-15,.47-22.5-.31-9.19-1.73-18.36-2.94-27.5-.2-1.46-.64-3.62-3.39-3.57-8.34.16-16.68.06-25.5.06v5.5q0,53.5,0,107c0,3.33.31,6.67.48,10Z"/>
    <path class="offLight yellow" d="M671,480.75c12.06-4.84,17.83-15.43,23.37-26.06,1-2,2.4-3.88,3.06-6,3.83-12.22,7.32-24.52,7.63-37.48.06-2.51,1.28-5,1.38-7.5.69-16.68-.4-33.34-.61-50.25H670V481.75Z"/>
    <path class="offLight yellow" d="M426,365.75q0,58.5,0,117c0,2,.66,4.22-1,6"/>
    <path class="greenLight" d="M435.52,562.75c1.07,1,.46,2.35.46,3.5q.06,57.25,0,114.5v5.46c-9.74-5.52-18.62-10.56-24.48-19.47-.82-1.24-1.16-2.81-2.05-4-8-10.31-9.82-22.6-11.54-35-1.49-10.8-3.5-21.6-2.8-32.5s-1-21.87,2.79-33H435Z"/>
    <path class="offLight yellow" d="M428.52,365.25c-11.84,0-23.67.12-35.5-.08-3.21-.06-4.68,1.28-5,4.08-1.07,10.47-2.38,20.83-1.89,31.52.38,8.15.2,16.43,1.5,24.46,2.47,15.29,2.87,31.39,13.88,44,6,6.87,12.29,13.46,20,18.5a10,10,0,0,1,4.49,6Z"/>
    <path class="visor" d="M665.52,643.75c-.11-4.61,2.58-8.25,5.13-11.39,7.07-8.75,11.26-18.87,15.38-29.1,1.73-4.29,4.09-8.33,6.2-12.4,3.92-7.52,6.5-15.56,10.18-23.16a247.84,247.84,0,0,0,12.16-30.93c1.14-3.45,3.22-6.59,4.38-10,1.42-4.25.08-5.73-4.43-6a211.89,211.89,0,0,0-39,1c-3.28.41-6.66.06-10.24.06-.08,1.83-.24,3.66-.24,5.5q0,52.5,0,105c0,2.06-.86,4.46,1.47,6Z"/>
    <path class="visor" d="M428.52,472.75c2.07-.74,1.48-2.53,1.48-4q0-75.75,0-151.5a13.41,13.41,0,0,0-.47-2.18c-7.06,1.4-14-.05-21-.23-11.82-.32-23.66-.12-35.49-.07-3.89,0-10.13,3.88-11,6.47s.21,4.78,1,7c3.44,9.19,7.07,18.31,10.45,27.52,3.78,10.29,7.05,20.78,11.12,30.95,3.36,8.36,7.54,16.39,11.42,24.54,4.45,9.35,8.61,18.88,13.6,27.94a237.6,237.6,0,0,1,11.52,23.5c1.53,3.67,4.53,6.73,6.87,10.06Z"/>
    <path class="visor" d="M439.52,666.75c-.42-1.47-1.13-2.69-.63-4.53a37.11,37.11,0,0,0,1.08-9.47q.11-65.25,0-130.5c0-1.51.84-3.33-1-4.52-.67.35-1.34,1-2,1-12.58-.26-24.93,2.76-37.5,2.53-1,0-2.11,0-2-1.49l-.5,1.5c-5,.33-10,1.08-15,.83a18.32,18.32,0,0,0-6.72,1.3c-3.56,1.13-4.71,5.5-2.22,9.33,6.9,10.58,10.37,22.67,15.29,34.1,5.07,11.8,10.71,23.34,15.28,35.39,6,15.95,15.41,30.28,23.73,45.12,3.28,5.85,7.68,10.92,10.63,16.93"/>
    <path class="visor" d="M670,444.75c-.77-2.68,2.2-2.84,3-4.49,6.18-12.6,13.7-24.46,20.12-36.94,6.32-12.3,11.7-25,17.26-37.62a358.27,358.27,0,0,0,13.15-33.93c.68-2.11,2-4,3-6,2-4.14,0-7.21-4.49-7.52-15.69-1.1-31.32,1.31-47,.56a22,22,0,0,0-4.44.7c-1,1.67-.52,3.27-.53,4.76q0,56,0,112c0,1.83.31,3.67.48,5.5Z"/>
    <path class="visor" d="M679.52,98.25c14.16-.83,28.38-1.17,42.47-2.73a45.92,45.92,0,0,1,18,1.19c3.25.92,4.32,2.27,2.53,5.56-4.73,8.72-8.51,17.89-13.37,26.58-4,7.19-6.17,15.4-9.74,22.87-7.82,16.35-15.27,32.91-25.4,48.05-5.48,8.18-9.89,17.08-16.53,24.48Z"/>
    <path class="visor" d="M677.52,97.75c1.43-.09,2.05.57,2,2-1.16,38.5-.18,77-.5,115.5,0,1.57-.32,3.22,1,4.5"/>
    <path class="redLight" d="M205,1116.75c1.74-2.63-.91-4.85-.65-7.51a117.09,117.09,0,0,0,.12-15c-.25-9.67-1.19-19.36-.79-29,.3-7.33,1.27-14.7.7-22-.77-9.92,1-19.67,1.13-29.51.12-10.83.37-21.67.45-32.5a6.64,6.64,0,0,0-2.46-5.5l1-.5a11.5,11.5,0,0,0-11-11.1c-7-.5-12.13,1.93-16,7.58a9.84,9.84,0,0,0-1.54,4.51c-1.62,11.62-.68,23.36-1.61,35-.7,8.69.19,17.64.12,26.47a83.49,83.49,0,0,1-2.32,18c-.6,2.63-2.11,3.79-4.13,3.85-2.86.1-2.5-2.4-2.5-4.38,0-19.33.18-38.67-.06-58-.15-12-.79-24-1.49-36-.41-7.07-4.32-10.43-11.44-10.48-2.86,0-5.54-.7-8.58.83-7.17,3.61-7.32,10.5-8.29,16.67-2.18,13.93-1.43,28-.26,42,.7,8.44-.3,17,.27,25.48.4,5.89-.2,11.68-.13,17.51,0,2.87-.47,5.38-4,5.47-3.32.08-3.42-2.74-4-5-1.83-7.07-.26-14.4-1.55-21.49-1.21-6.63.67-13.45-1.42-20a13.09,13.09,0,0,1,0-3.49q-.24-15-.5-30c-.07-3.59-4.05-9.47-7-10.5-5.39-1.89-7.84-.65-12.1,2.88C97.83,977,97.7,985,97.72,992.75c0,7.15.28,14.33.26,21.5,0,17,.75,34,1.44,51,.15,3.56-.88,7.17-1.37,10.74-6.55,1.81-8.1.55-8.08-5.74,0-9.17.08-18.36-.57-27.49-.54-7.69-.2-15.34-.34-23-.07-4.08-1-7.52-4.53-10-3.25-2.34-8.42-2.89-11.47-.42-4.72,3.81-8.11,7.93-8.85,14.91a291.73,291.73,0,0,0-1.39,38c.35,13.67-.6,27.32.2,41,.49,8.39,1.34,17,1.43,25.47.09,7.64-.19,16.24,5.45,23.09,1.12,1.36.67,3.94,1.13,5.91,4,17,14.8,29.27,28.62,38.81,6.45,4.45,14.5,6.29,22.37,7.7,9.43,1.69,18.77,3.5,28.51,2.06,16.95-2.51,32.85-7.78,45.33-19.74a167.77,167.77,0,0,0,23.41-27.5c7.2-10.76,16.36-20.07,22.65-31.38,3.93-7,8.26-14.14,9-22.46a15.54,15.54,0,0,0-2.45-10.46c-5.44-7.75-12.25-8.17-20.42-1-7.35,6.46-14.38,13.29-21.54,20"/>
    <path class="visor" d="M414.52,230.75c-3.87-4.39-8.07-9.28-10.06-14.18-4.19-10.39-11-19.14-15.59-29.26-6.09-13.59-13-26.83-19.91-40a367.72,367.72,0,0,1-15.85-34.06c-1.94-4.82-5.17-9.38-4.55-15,.29-2.66.62-6,4.45-5.43,10.32,1.46,20.69-1.36,31,.87s20.67.53,31,1.31v.75c1.46,1.44,1,3.29,1,5q0,62.51,0,125c0,2-.32,4-.48,6"/>
    <path class="shell" d="M686.52,21.25c-5.72,1.63-11.46.31-17-.68-6.34-1.13-12.72-.86-19-1.78-12.77-1.86-25.8-1-38.53-3.89-4.79-1.09-10-.35-15-.68-8.51-.56-17-1.24-25.5-2-6.18-.55-12.58-.48-18.44-2.19C545.74,7.91,538.3,8.64,531,8c-17.93-1.51-36-.89-54-2.48-19.32-1.71-38.68-2.54-58-4-6.79-.51-13.42-1.27-20,.71-4.41,1.32-5.39,4.8-5,9,.86,9.83,2.33,19.67,2.32,29.5,0,10,.46,20,.84,30,.29,7.5,1.7,15.12.67,22.49-2.34,16.68,1,33,1.92,49.51.43,7.68.6,15.33.82,23a93.92,93.92,0,0,0,1.53,15c1.14,5.87.26,11.76.1,17.51-.28,10.17,1.78,20,2.07,30,.29,9.82.5,19.66.81,29.49.58,18.34.81,36.75,2.74,55,1.05,9.87.22,19.76,1.71,29.53,2.1,13.76.35,27.7,2.27,41.53,1.26,9,.38,18.31.74,27.47.53,13.34,1.69,26.66,1.81,40,.06,7.16-.29,14.33.14,21.5.61,10.33-.36,20.75.35,31s.7,20.37,1.61,30.53c.62,7,1.06,14,1,21-.22,22.7,1.38,45.35,2.41,68,.61,13.5.09,27.1,1.77,40.51,1.63,13,.9,26.11,2.65,39a219.28,219.28,0,0,1,2.25,33c-.06,4.62,1.37,5.94,6,6.53,7.21.92,14.4-.53,21.5-.27,8.48.3,17.11-1,25.51,1.21a11,11,0,0,0,2.5,0c11.83.32,23.65-.4,35.5-.25,11.14.14,22.33-.09,33.5-.23,9.33-.11,18.7.53,28-.13,21.48-1.51,43-.79,64.52-2.8,6.81-.63,13.71.08,20.93,1.2,1.09-6,2.69-12.27,3.13-18.78.73-10.86,1.93-21.68,2.92-32.51.52-5.66,1.49-11.34,1.39-17-.14-8.27,1.68-16.32,2.38-24.48.85-9.85.4-19.69,1.14-29.53,1.36-18,.63-36.07,2.8-54,.59-4.84-.53-9.35-.24-14,.78-12.66,1.86-25.33,1.81-38,0-5.64-.56-11.29-.34-17,.83-20.83,1.09-41.68,2.19-62.49.61-11.52.1-23,.35-34.51.39-18.84.84-37.68,1.94-56.5.52-9,0-18,.13-27,.14-7.5.74-15,.91-22.5.09-4-.58-8-.41-12,1.09-24.82,1.47-49.66,2.11-74.5.4-15.66,2.23-31.28,2.5-47a330.31,330.31,0,0,1,3-39c1.71-12.52.64-25,1.42-37.51.51-8.18.71-16.37,2.16-24.55a99.6,99.6,0,0,0,1-24.94c-.41-5.41-3.21-10.69-9.74-12Z"/>
    <path class="redLight" d="M626,210.75c3.54-8,3.8-16.56,4.41-25,.75-10.37-.8-20.68-1.91-31-.66-6.19-5.72-9.57-9.09-13.94-8.24-10.69-16.94-21-25.38-31.58-1.39-1.74-3-2.06-5-2-24.85.74-49.66-1.58-74.5-1-3.29.07-5.35.69-7.73,3.86-6.67,8.83-14.31,17-21.82,25.13-4.79,5.2-8.53,11.35-14.36,15.66-1.12.83-1.44,3.19-1.54,4.88-.92,16-1.91,32-2.48,48-.32,9,1,18,5.14,25.89a58.59,58.59,0,0,0,10.69,14.71c8.59,8.55,19.14,13.84,29.59,19.41a72.42,72.42,0,0,0,24,7.41c13.37,1.93,26.53-.56,39.46-3.54,12.67-2.93,21.82-11.82,31-20.37,10-9.23,14.5-21.64,19.93-33.54a2,2,0,0,0-.44-2.47Z"/>
    <path class="offLight green" d="M512.52,680.75c-.54,3,2.49,2.59,3.54,2.83a98.36,98.36,0,0,0,29.47,2.32c10.8-.73,21-3.88,30.9-7.39,13-4.61,23.11-13.44,30.18-25.7,5.2-9,7.94-18.73,11.16-28.48,4.37-13.23,3.11-26.71,4.24-40.08.86-10.27-3.62-18.23-10.41-25.58-7.7-8.33-14.81-17.2-22-26-1.69-2-3.55-2.48-6-2.52-17-.25-34-1.52-51-.88-2.32.09-4.26-1-6.49-1.2-10.26-1.08-18.11,1.58-25.25,9.94-10.23,12-22.1,22.53-33.26,33.7,1.4,4.33.24,8.75-.18,13-1,9.89,0,19.72.41,29.51.32,7.39,2.86,14.66,4.25,22a61.28,61.28,0,0,0,15.58,30.94,57.65,57.65,0,0,0,23.94,15.06Z"/>
    <path class="offLight yellow" d="M513.52,324.25c-10.1,6.58-19.31,14.38-29.08,21.4-5.2,3.73-10.1,7.3-12.46,13.59a115.36,115.36,0,0,0-7.6,37c-.19,6.33-2.54,13.23,1.14,19.49-2,9.58,0,18.76,3.59,27.46C476,459.71,486.36,473,504,479.28c14,5,28.21,6.44,43,5.62s27.51-6.3,39.56-14.54a63.26,63.26,0,0,0,18.88-19.64c9-14.87,13-31.15,13.66-48.47.29-7.34,0-14.68.44-22,.31-5.66-1.76-10.94-2.27-16.48-.21-2.28-2.6-4.51-4.31-6.49-8.94-10.39-18-20.65-26.93-31.07-1.61-1.88-3.4-2-5.54-2q-33.25.07-66.5,0Z"/>
    <path class="visor" d="M459,152.25a65.82,65.82,0,0,0,.05,27.49c.56,2.46,1.15,5.06,3,7,2.83,3,5.33,2.7,7.44-1a10.48,10.48,0,0,0,1.49-4.48c.46-9.78,4.24-18.36,8.39-27.08,5.18-10.87,13.61-18.64,22.22-26.36a30.09,30.09,0,0,1,15.92-7.22c3.35-.52,6.61-2.06,10-3A57.23,57.23,0,0,1,543,115.33c4.55,0,8.93-1.18,13.5-1.18,14.21,0,27.7,3.38,38.81,11.84a61.58,61.58,0,0,1,22.78,35.74c1.81,7.74,3.4,15.59,6.39,23,1.14,2.86,2.31,5.42,6,5.52,3.89.1,4.9-3.19,5.86-5.59A43.69,43.69,0,0,0,640,167.25c-.2-6.5.38-13-.79-19.53-2-11.39-7.52-20.51-15-29.07a84.13,84.13,0,0,0-30.61-21.9A79.21,79.21,0,0,0,571.05,91c-8-.94-16.07-1-24-2.24-9.46-1.42-18.39,1.55-27.51,3.39C505,95.07,493,102.58,482.7,112.44c-10,9.62-18.57,20.76-23.25,34.29-.6,1.73-.16,3.36-.43,5Z"/>
    <path class="visor" d="M631.52,385.75c1.15,6.08-2.73,10.76-4.57,16-.94,2.64-2.62,5-4,7.51-5.22-.89-6.44-1.87-5.87-7.48,1.38-13.6-4.34-25.4-9.91-36.85-3.09-6.34-8.78-11.6-14-16.81-4.44-4.41-10.09-6.83-14.64-10.86-1.47-1.3-3.44-.81-5.08-1.26-8.63-2.35-17-5.75-26.45-4.86-10.79,1-21.2,2.63-31.58,6.35-12.21,4.36-21.77,11.93-30.26,20.92C477.69,366.3,472.84,376,472,387.25c-.25,3.57-2.35,5.95-4.73,8.29-4.2-1.51-5.26-5.63-6-8.37-2.07-7.81-3.08-15.93.13-23.95,1.08-2.71,1.16-5.8,2.57-8.47a72.78,72.78,0,0,1,23.87-26.7A109.56,109.56,0,0,1,513,314.7c16.79-6,33.87-6.88,51.54-5.15,17.25,1.69,31.45,9.57,44.31,19.91,8.68,7,14.56,16.58,18.84,27.22,3.78,9.38,5.95,18.58,3.83,28.57Z"/>
    <path class="visor" d="M624,603.75c3.93-2.42,4.34-6.31,5.17-10.47,1.38-7,2.77-13.82,1.89-21-1.33-10.94-6.63-19.76-13.51-28-11.49-13.8-26.46-21.43-43.56-25.43a107,107,0,0,0-30-3c-10,.53-20.29-.39-29.94,2.21-11.51,3.1-23.22,6.43-31.64,16.2-4.74,5.51-10.67,10.21-13.31,17.11-3.5,9.18-7.53,18.23-7.75,28.46-.15,6.88,2.41,12,7.23,16.48a3.33,3.33,0,0,0,2.87-3.48c-.5-9.48,4.63-16.8,9-24.53,6.32-11.22,16-19.27,26.78-25.06C515,539,523.85,536,533.52,536c10.94,0,21.76-.44,32.51,2.21,8.78,2.16,17.57,4,24.54,10.49,2.86,2.66,6.68,4.33,9.37,7.12a65.55,65.55,0,0,1,15.81,27.86c1.26,4.34,2,8.79,3,13.13.85,3.4,2.81,5.73,4.48,8.44Z"/>
</svg>
