<svg viewBox="0 0 835.19 3034.65">
  <g class="brassMedium">
    <path d="M400.47,759.3h-150q.43-28,.91-56h150Q400.9,731.31,400.47,759.3Z"/>
    <path d="M438,938.35H208q-1.34,111.54-2.16,223.1h230Q436.66,1049.9,438,938.35Z"/>
  </g>
  <path class="pole" d="M308,2956.62q-24.86-833.1-20.92-1666.72,1.26-265.28,5.42-530.6h66q-4.17,265.31-5.42,530.65Q349.14,2123.36,374,2956.8c53.68,2.72,106.87,8.52,158.54,22.49,36.18,9.77,77.4,23.74,101.81,54.36h-582c21.41-31.45,61.45-45.32,96.32-54.85C200.62,2964.6,254,2959.07,308,2956.62Z"/>
  <g class="brassDark">
    <path d="M761.28,1241.49H505.33c-37.75,1.69-69.78-33.43-69.57-70.06q.86-121,2.34-242.06c.5-36.65,33.17-71.73,70.93-70H765c36.64.06,71.28,32.34,69.13,70q-1.49,121-2.34,242.06C833.17,1209.18,797.94,1241.43,761.28,1241.49Z"/>
    <path d="M184.28,1241.49h-137Q23.42,1050.5,1,859.32H188a21.18,21.18,0,0,1,20.75,21q-2.25,170-3.29,340.09A21.66,21.66,0,0,1,184.28,1241.49Z"/>
    <path d="M462.94,1.94Q343.3.06,223.67,1.94c-10.23.19-18.59,7.73-18.68,16.82Q201.78,354,203.23,689.31a16.19,16.19,0,0,0,16.57,16.15q106.54-1.63,213.09,0A16.87,16.87,0,0,0,450,689.31q12.94-335.37,30.57-670.55C481,9.67,473.15,2.13,462.94,1.94Z"/>
  </g>
  <g class="brassDarkest">
    <path d="M414.23,557.09C418,452.53,244.47,453,243.9,557.09,243.37,653.32,410.85,651.26,414.23,557.09Z"/>
    <path d="M421.91,347.17c4.25-105.74-175.38-105.21-176.42,0C244.53,444.59,418.07,442.27,421.91,347.17Z"/>
    <path d="M430.49,137.34c5.75-107.67-181-106.37-182.5,0C246.59,236.06,425.34,233.79,430.49,137.34Z"/>
  </g>
  <g class="lightOff">
    <path d="M202.79,501.85q0,76,.3,151.95C150.51,650.59,150.54,506.51,202.79,501.85Z"/>
    <path d="M457.6,501.85q-3.23,76-6.22,151.95C503.38,651,510.06,506.94,457.6,501.85Z"/>
    <path d="M335.1,290.56c-97.48,0-101.72,151.92-3.62,151.94C427.89,442.51,433.78,290.57,335.1,290.56Z"/>
    <path d="M467,292q-3.56,75.94-6.88,151.9C513.45,441.6,520.73,296.53,467,292Z"/>
    <path d="M203.15,292q-.3,75.94-.35,151.9C148.81,441.31,149.64,296.27,203.15,292Z"/>
    <path d="M340.89,80.73c-42.65,0-84.77,31.55-85.5,76.48-.72,43.94,39.43,75.39,81.22,75.39,42,0,83.47-31.52,85.23-75.39C423.65,112.39,383.4,80.73,340.89,80.73Z"/>
  </g>
  <g class="lightRed">
    <path d="M477.27,82.2q-3.88,75.9-7.54,151.83C524.32,231.83,532.38,86.75,477.27,82.2Z"/>
    <path d="M204.43,82.2q-.63,75.92-1,151.83C148.11,231.51,149.61,85.67,204.43,82.2Z"/>
  </g>
  <path class="lightGreen" d="M330.22,500.48c-94.78,0-98.58,152-3,152C421.46,652.48,426,500.49,330.22,500.48Z"/>
  <g class="brassDarkest">
    <path d="M458.76,474.86q29.12.69,58.22,1.54c-14.37,42.2-34.8,81.11-63.12,115.6Q456.23,533.43,458.76,474.86Z"/>
    <path d="M468.26,265q30.14.71,60.26,1.59c-15.79,42.39-36.19,81-65.68,115.51Q465.48,323.55,468.26,265Z"/>
    <path d="M478.66,55.23Q509.83,56,541,56.87C526,99.72,503.62,139,472.74,172.28Q475.64,113.75,478.66,55.23Z"/>
    <path d="M202.78,474.86q-29.15.7-58.29,1.54c12.74,42.35,29.86,81.45,58.42,115.6Q202.77,533.44,202.78,474.86Z"/>
    <path d="M203.26,265q-30.18.71-60.35,1.59c13.16,42.54,31.71,80.91,60,115.51Q203,323.55,203.26,265Z"/>
    <path d="M204.66,55.23q-31.22.75-62.42,1.64c13,41.74,32.13,82.58,61.53,115.41Q204.15,113.75,204.66,55.23Z"/>
  </g>
</svg>
