<svg class="presence" xmlns="http://www.w3.org/2000/svg" viewBox="0 0 236.58 345.52">
  <polygon class="ironMediumDark" points="8.35 47.52 39.1 344.52 197.35 344.52 228.1 47.52 8.35 47.52"/>
  <g class="ironDark">
    <path d="M176.91,121.9l-12.1,196.39c9.81-.79,18.86-1.84,26.63-3.14L210.3,118.06C200.56,119.67,189.22,121,176.91,121.9Z"/>
    <path d="M160.48,123c-11,.58-22.58.93-34.21,1.05l-1.43,196c8.94-.11,17.82-.39,26.37-.85Z"/>
    <path d="M25.77,118.42,44.6,315.22c7.54,1.36,16.62,2.43,26.63,3.22L59.13,122.06C46.84,121.15,35.5,119.94,25.77,118.42Z"/>
    <path d="M75.56,123.07l9.27,196.24c8.48.43,17.37.68,26.36.75l-1.43-196C98.13,123.93,86.6,123.61,75.56,123.07Z"/>
  </g>
  <g class="ironMedium">
    <path d="M18.34,83l1.92,22.15c4.84.77,10.15,1.46,15.84,2.07L34.79,85C28.83,84.44,23.31,83.78,18.34,83Z"/>
    <path d="M52.89,86.45l1,22.31c5.46.41,11.15.76,17,1.06l-.69-22.39C64.2,87.16,58.43,86.83,52.89,86.45Z"/>
  </g>
  <path class="ironMediumLight" d="M60.6,92.27c5.89-.23,6.76,7.12.5,10.5-4.69,2.54-10.58,2.76-17,2.5-11-.43-23-2-28.5-3.25-4.25-1-5-7.75-.25-10.25a25,25,0,0,1,9.5-2.5c4.46-.18,5.77,2.69,5,6,4,.5,9.26.87,14.5,1,3,.08,9.82-.2,11.75-1.75C57.35,93.52,58.34,92.36,60.6,92.27Z"/>
  <path class="handleOverlapLine" d="M29.85,95.27c-2-.25-6.5-.5-7.25-1.75"/>
  <path class="bagLiningOuter" d="M231.85,23c-5.1-6.93-49-12.25-113.5-12.25S8.86,16.1,4.1,23c-5.5,8-3.22,31,3.25,32.5,41.25,9.5,47,17.25,95,18,57.31.9,52.5-9.75,126.5-15.5C236.09,57.46,238.1,31.52,231.85,23Z"/>
  <path class="bagLiningInner" d="M118.35,15c-58.58,0-106.07,5.15-106.07,10s47.49,9,106.07,9,106.07-4.15,106.07-9S176.93,15,118.35,15Z"/>
  <path class="flatRedMedium" d="M37.1,16c-5.29,1.11-9.76,6.23-13.92,12.82,6.93,1.19,16.88,2.23,29,3.06Q44.86,23.56,37.1,16Z"/>
  <path class="bananaInnerRear" d="M106.85,8.77c-11.18,11-17.26,19.51-16.91,24.8,8.59.21,17.62.32,26.94.33C117.74,28.69,114.3,20.25,106.85,8.77Z"/>
  <path class="bananaOuterRear" d="M111.6,4l-5.75-.25c-.3,3.91-5,4.5-11.75,14l5,5.5a28.42,28.42,0,0,0,7.25-11.75c1.49,7.68,7,19.87,7,19.87L125.85,20C116.35,9.27,112.4,8.3,111.6,4Z"/>
  <path class="bananaEnd" d="M111.6,4c-.08,1.59-5.83,1.34-5.75-.25S111.68,2.47,111.6,4Z"/>
  <path class="bagFront" d="M62.85,14.77l-.07,17.77c10,.54,21.19.93,33.09,1.16a19.65,19.65,0,0,1-1-5.68Z"/>
  <path class="bagFlapAbove" d="M100.35,16c-9-3.08-18.5-6.25-26.5-10.5v.25L68.44,21.56A178.13,178.13,0,0,1,94.1,30.77C101.1,33.74,107.35,19,100.35,16Z"/>
  <path class="bagSideLight" d="M73.85,5.52c-3.75-2-8-2.5-13.25,1C54.29,11,56.28,22,49.83,31.74c6.34.46,13.32.86,20.81,1.18-2.56-5-4.74-9.74-5.29-13.15C75.6,28,84.22,11.05,73.85,5.52Z"/>
  <path class="bagOverlapLine" d="M65.35,19.77c-3-3.22-2.41-8.86,1.69-10.07C71.87,8.27,75,16,68.54,16.28"/>
  <path class="flatGreenMedium" d="M151.85,13.77l-22.67,17.4a22,22,0,0,0,4.14,2.64c10.73-.13,21-.4,30.4-.79A36.24,36.24,0,0,0,175,25.65Z"/>
  <path class="flatPurpleMedium" d="M126.6,17.27c-3.75-2.39-6.55-2.06-10.5-.75-7.5,2.5-15.25,4-20.65,8-2.39,1.78-2.77,6-3,9.07,8.29.18,17,.27,25.9.27,9.51,0,18.73-.11,27.5-.31C142.86,28.16,135,22.6,126.6,17.27Z"/>
  <path class="flatBlueMediumDark" d="M188.76,2.92,146.17,33.58c10-.23,19.44-.59,28.05-1l19.36-13.88Z"/>
  <path class="flatBlueDark" d="M193.6,18.77l13.27,11.05c4.34-.56,8-1.15,10.78-1.78L188.85,3Z"/>
  <path class="flatBlueMedium" d="M174.22,32.53c13-.7,24.19-1.63,32.65-2.71l-13.27-11Z"/>
</svg>
