<svg viewBox="0 0 150.78 58.83">
  <path class="trayRim" d="M4.31,33.59c-3.65.41-3.74,6.06.08,6.16-3.68.13-3.92,6.1-.08,6.17C.67,46.05.17,52,4.06,52.1c-3.59.12-4.36,6.09-.4,6.18,0,.06,143.4.06,143.4,0,4.05,0,3.27-6.08-.4-6.18,4,0,3.46-6.07-.24-6.17,3.91,0,3.66-6.07-.09-6.18,3.87,0,3.88-6.06.09-6.17,3.83.24,4.07-6.06.25-6.17,3.8.24,4.28-6.06.41-6.17,3.79.25,4.5-5.79.59-6.17a1359.77,1359.77,0,0,0-144.61,0c-3.83.41-3.14,6.39.58,6.17-3.78.44-3.29,6.09.42,6.16C.33,27.8.53,33.54,4.31,33.59Z"/>
  <path class="trayBasinLight" d="M138.93,2.14a1228.2,1228.2,0,0,0-127.14,0A6.86,6.86,0,0,0,5.43,7.51C4.92,10,4.37,12.53,3.8,15a1361.06,1361.06,0,0,1,143.12,0q-.85-3.75-1.63-7.53A6.86,6.86,0,0,0,138.93,2.14Z"/>
  <g class="trayOverlapLine">
    <path d="M147.08,21.24q-71.7-3.55-143.44,0"/>
    <path d="M4.06,27.41q71.3-3.26,142.61,0"/>
    <path d="M146.42,33.58q-71.05-3-142.11,0"/>
    <path d="M146.33,39.75q-71-2.69-141.94,0"/>
    <path d="M146.42,45.93q-71.05-2.41-142.11,0"/>
    <path d="M146.66,52.1Q75.36,50,4.06,52.1"/>
  </g>
</svg>
