<svg viewBox="0 0 609.74 236.62">
    <path class="trayRim" d="M16.45,135.24c-14.8,1.67-15.18,24.61.33,25C1.87,160.8.9,185,16.45,185.31c-14.74.52-16.79,24.74-1,25.06-14.6.49-17.71,24.71-1.63,25.07,0,.25,581.85.25,581.85,0,16.4-.17,13.27-24.67-1.64-25.07,16.14-.15,14.05-24.64-1-25.06,15.9-.11,14.87-24.61-.33-25.05,15.68-.07,15.73-24.59.34-25,15.56,1,16.52-24.58,1-25,15.45,1,17.4-24.56,1.68-25,15.38,1,18.25-23.5,2.38-25a5518.68,5518.68,0,0,0-586.76,0c-15.51,1.66-12.72,25.92,2.38,25C-1.61,87,.37,109.9,15.44,110.18.32,111.76,1.13,135.05,16.45,135.24Z"/>
    <path class="trayBasinLight" d="M562.69,7.65a4992.88,4992.88,0,0,0-515.89,0A27.87,27.87,0,0,0,21,29.42Q17.89,44.74,14.38,60a5514.59,5514.59,0,0,1,580.74,0q-3.51-15.24-6.62-30.57A27.87,27.87,0,0,0,562.69,7.65Z"/>
    <g class="trayOverlapLine">
        <path d="M595.75,85.15q-290.94-14.4-582,0"/>
        <path d="M15.44,110.19q289.26-13.23,578.63,0"/>
        <path d="M593.06,135.22q-288.28-12.07-576.61,0"/>
        <path d="M592.72,160.26q-288-10.92-575.94,0"/>
        <path d="M593.05,185.31q-288.3-9.8-576.6,0"/>
        <path d="M594,210.37q-289.29-8.69-578.58,0"/>
    </g>
</svg>
