<svg viewBox="0 0 1438.86 3108.75">
    <g class="pole">
        <path d="M790.57,3032.87q11.41-833.28-5.49-1667.6-5.34-265.18-13.54-530.37l-66,1.08q8.22,265.17,13.54,530.41,16.78,833.14,5.49,1666.74c-87.59,0-243.35,27.72-258.15,74.62h580.32C1033.25,3063.37,871.71,3032.87,790.57,3032.87Z"/>
        <path d="M771.85,609c.89-65.56,12.52-138.85,53.44-191.61,18.82-24.26,51.61-38.68,82-28.82,22.91,7.43,42.64,29.19,36.32,54.62-52.29,16.68,17.75,95.45,36.88,22.4C995.3,409,960.27,357.5,902.35,349.5c-67-9.24-120.93,40.06-138.54,101.64-2.48-55.74-7.19-111.66-5.31-167.5,1.51-44.93,6.77-94,32.85-131.95,111.78-162.59,450-156.6,475.07,73.67L1306,225C1292.5,84.18,1159,3.77,1027.18,1.07c-145.57-3-278.64,85.18-311.36,230.84C670.71,88.68,530.81,4.14,383.69,11.77c-130.48,6.77-256.81,91.49-258.11,232.45l39.59-.94c1.76-105.4,86.58-175,185.16-190.83C453,35.92,567.49,71.42,633.1,154.26,662.16,191,672,239.54,677.35,285c6.55,55.51,6.36,111.67,8.21,167.45-22.13-60.31-79.26-108.59-146.43-97-58,10-87.66,63.55-68.85,118.5,7.13,20.83,28.37,43.28,48.93,22.31,16.52-16.84,8.13-40.1-13.82-45.88-7.71-24.84,9-47.3,32-55.74,30.61-11.26,63.58,2.7,84.16,26.12,45.45,51.71,62,122.61,67.69,189.64Z"/>
    </g>
    <g class="light">
        <path d="M35.9,368.68A1152.92,1152.92,0,0,1,263.76,365c34.07,81.81,24.87,187.8-30.23,258.57L86.79,625.94C26.47,559.24,9.37,453.35,35.9,368.68Z"/>
        <path d="M1406,346.38a1153.68,1153.68,0,0,0-227.86,3.71c-28,84.69-9.07,189.7,49.81,257.27L1374.69,605C1431.3,535.08,1438.61,428.19,1406,346.38Z"/>
    </g>
    <path class="brass" d="M803.34,803.38l-132,2.15c-43.83-35.82-42.12-116.41-41.92-165,.07-15.86,18.21-29.19,33.11-29.68l136.56-2.22c15.76-.54,33.73,12.47,35.15,28.56C838.59,686.23,844.38,766.15,803.34,803.38Z"/>
    <g class="copper">
        <path d="M661.36,805.69l152-2.47c8.06,8.38,8.79,22.19,1,31l-152,2.47A24.44,24.44,0,0,1,661.36,805.69Z"/>
        <path d="M625.86,669.25l214-3.48c13.9,8.8,15.59,37.5,1.59,47l-214,3.48C614.58,706.63,612.46,679.3,625.86,669.25Z"/>
        <path d="M35.9,368.68c-31.67-6.17-43.18-41.8-28.75-68.2,3.07,22.68,46.12,24,44.58-.72-.35-22.69,11.37-53.92,38.3-54.28,35.61-.48,73.33-3.13,109.29-1.78,26.25,1,43.36,28,42.85,53,3.07,22.68,46.12,24,44.58-.73C306,321.44,293,355.58,263.67,365A1152,1152,0,0,0,35.9,368.68Z"/>
        <path d="M247.37,623.33,72.75,626.17c-10.08,10.35-8.51,30.7,1.42,40.55l52-.84c-24.27,22.47,20,37.67,36.26,37.08,17-.63,57.46-16.18,32.94-38.21l53.46-.87C258.88,653.73,258.57,632.67,247.37,623.33Z"/>
        <path d="M1406,346.38c30.06-8.69,41.27-43.57,23.08-69-.28,23.82-43.12,24.53-44.58.72-1-24.26-16-52.61-42.86-52.95-36.12-.47-73.41.3-109.28,1.77-26.79,1.1-40,30.82-38.3,54.28-.28,23.83-43.12,24.53-44.58.73-15.42,26.65-2.25,61.13,28.75,68.2A1152,1152,0,0,1,1406,346.38Z"/>
        <path d="M1214.11,607.59l174.62-2.84c9.86,9.86,11.58,30.22,1.42,40.55l-52,.85c25.29,22.18-16.93,37.59-33.69,38.21-16.49.61-59-14.78-35.51-37.09l-53.46.87C1205.05,638.64,1203.3,617.59,1214.11,607.59Z"/>
    </g>
</svg>
