<svg viewBox="0 0 826.59 785.18">
    <path class="trunk" d="M441.13,597.12c-2.4.62-1.39,2.58-1.47,4-1.54,29.48-.55,59-1.3,88.49-.18,6.88.49,13.7.15,20.5-.77,14.94,4.11,28.17,11.73,40.44,6.8,11,12.57,22.59,21.39,32.38-2,1.48-3.77,1.18-5.5,1.18q-75.49,0-151,.07c-2.66,0-5.33-1.43-8-.06l3-1c2.67-3.5,5.53-6.88,8-10.53,11.13-16.58,20.29-34,21.44-54.48.56-9.81.32-19.66.93-29.5.7-11.31,0-22.66-.74-34-1-14.5,1.39-29,1-43.5-.16-6.48-1.27-13-.13-19.49"/>
    <path class="leaves" d="M557.63,586.62c-.6,1.42-1,2.8.5,4,8.5,6.79,17.69,11.7,29,11.54a81.08,81.08,0,0,0,14-1c11.05-2.08,21.35-5,28.15-15.4a128.9,128.9,0,0,0,11.13-20.1c.55,0,.94-.12,1.2,0,1.19.62,2.32,1.36,3.52,2,11.15,5.68,22.55,10.14,35.5,7.54,5.46-1.1,10.42-3.41,15.52-5.47,6.69-2.71,13.31-5.56,19-10.1,11.28-9.09,20.85-19.58,27.08-32.94,5.67-12.14,10.22-24.21,3.94-37.52l-1-1.5a30.68,30.68,0,0,0,18.87-1.8c10.38-4.49,19.53-11.16,25.18-21.68,5.9-11,7.22-23,8.35-35,.92-9.67-4.17-17.19-10.4-24l-1-.5a6.29,6.29,0,0,0,2,0c14.24-5,24.14-15.67,30.6-28.19,6.1-11.84,8.08-25.32,6.17-39.32A90.35,90.35,0,0,0,811,300.18c-3.6-5.64-8-10.95-14.9-13.06l3,.5a59.58,59.58,0,0,0,15-27.61,43.89,43.89,0,0,0-4-30.88c-9.76-17.77-16.36-22.46-35.4-29.68a70.37,70.37,0,0,0-5.42-44.17c-5.57-11.57-12.15-23.5-23.72-30.56-21.35-13.06-36.46-19.37-60.88-18.59.53-5.62-1.52-10.77-3.09-16-5.47-18.34-19.54-27.3-36.48-33-3.75-1.25-7.62-2.7-11.49-2.87-4.81-.2-9.65,1-14.5,1.28-6.27.31-11.77,3-17.5,5.06l-1.5,1.5c2.27-3.79-.91-7-2.27-9.34-5.67-9.64-11.85-19.1-22.2-24.71-4.47-2.42-8.64-5.37-13-7.94-9.26-5.4-19.65-7.28-30-8.93-12.77-2-25.3.45-37.43,4.11-5.4,1.63-9.73,6-14,9.88-.32.29.27,1.59.43,2.43l-.5-3c-6.07-5.12-11.24-11.5-18.53-14.92a57.47,57.47,0,0,0-34-4.78,64.11,64.11,0,0,0-27,10.65c-5.27,3.6-9.15,8.52-13.71,13.34A94.86,94.86,0,0,0,359.08,7.72c-8.89-4.26-18.66-5.8-28.45-6.54-5.14-.38-10.33,0-15.5-.07C304,1,294,5.1,284.7,10.73c-3.19,1.94-6.24,4.1-9.49,6-5.68,3.34-11,7.36-13.58,13.88l.5,1C238.46,17.56,217.4,24,201.66,45.13c-5.92,7.95-7.58,16.82-5.1,26.5.43,1.67.77,3.83-1.41,5-8.1-4.19-16.39-5-25.55-3.73-10.69,1.49-20.77,3.64-30.57,8.53-9.06,4.53-15.91,11.45-23.35,17.76-12.64,10.73-18.3,25.42-21.92,41-1,4.32.36,9-.61,13.42-9.08-.76-17.12,2.23-24.49,7.09-15.86,10.45-24.45,26-27.73,44-1.82,10,1.5,20,6.7,29l-2.5-3C21.58,241.92,10.07,262.85,3,286.23c-3,10-2.22,21.14-.6,31.92A72.11,72.11,0,0,0,7,334.66c3,7.43,7.32,13.39,15.41,17.09-8.86,7.85-10.85,18.54-13.16,28.9-1.67,7.49-2.38,15.12-.88,23,.87,4.65.8,9.71,2.87,13.89,7.59,15.34,19.8,25,37.59,28.12-4.11,24.51,1.37,47.4,15.52,67.28,16,22.5,38.53,34,67,32,.27,6,2.66,10.4,5.67,14.72,7.37,10.57,15.21,21,26.17,27.79,14.32,8.93,30.36,13.25,47.37,11.53a42.45,42.45,0,0,0,22.53-9.33c1.87-1.5,4-2.69,6-4l-.5-3a32.84,32.84,0,0,0,4,8.53c7.33,10.34,18.56,14.85,29.64,18.72a95.33,95.33,0,0,0,39.92,5.35c9.88-.85,19.16-2.91,28.08-7.44,3.72-1.89,5.52-5.82,9.29-7.33,18,24.18,52.74,31.09,84.42,10.47,11.58,11.69,26.52,14.46,42.2,15.21,6.78.33,13.35-1.17,20-1.9,17.75-2,33.51-8.76,48.55-18,6-3.71,8.25-9.85,11.93-15.1"/>
</svg>
