<svg viewBox="0 0 1109.97 829.1">
  <g class="treeTrunk">
    <path d="M918.15,505.1c-21.41,24.15-39.25,47.67-39,68l3,185c1,24.76,15.15,47.64,33,70h-163c17.3-22.28,31.25-44.77,34-68l7-185c-1.7-21.94-17.43-46.94-38-73Z"/>
    <path d="M251.15,519.1c22.64,28.85,43.91,57.5,43,83l-6,147c.11,24-16.44,51.13-37,79h201c-24.6-23.06-42.93-48.18-47-78l-6-147c-1.62-21.23,25.52-55.54,53-90Z"/>
  </g>
  <path class="treeFurther" d="M574.15,435.1c0,30,50,57,90,42,11,40,77,66,120,32,32,46,117,37,144-9,41,20,99-8,104-54,65-4,102-103,57-149,25-43,3-92-43-102,1-54-54-89-104-68-21-38-85-42-114-10-41-39-110-34-144,14-29-22-79.7-8.29-88,36Z"/>
  <path class="treeCloser" d="M652.15,178.1c51,4,57,92,23,117,30,46-8,134-73,134-2,44-55,86-107,69-25,51-121,64-156,26-50,42-141,15-161-23-63,30-121-42-114-79-47,0-79-72-52-110-26-42-4-113,40-120-10-54,39-117,94-106,15-43,69-68,117-53,39-48,135-39,163,6,44-36,110-18,124,32C603.15,60.1,667.15,113.1,652.15,178.1Z"/>
</svg>
