<svg viewBox="0 0 586.59 1283.31">
    <g class="plantFurther">
        <path d="M401.91,1A1475.62,1475.62,0,0,1,436.5,303.88c15.8,341.36-123.4,354.29-101,4.67C347.55,190.46,366.38,73,401.91,1Z"/>
        <path d="M207.47,131.87c26.17,38.33,48.7,96.07,65.43,141.16,49.55,132.74-44.87,228.09-69.17,19.63C201.31,234,200,176.74,207.47,131.87Z"/>
    </g>
    <g class="plantMiddle">
        <path d="M87.92,100c80,264.77,138.84,542.66,159.23,844.47l83.74-4.71C316.45,516.29,240.91,224.62,87.92,100Z"/>
        <path d="M537.29,51.6Q462.38,488.92,406.37,936.18l-59,1.18C338,550.5,405.19,186.06,537.29,51.6Z"/>
    </g>
    <g class="plantCloser">
        <path d="M363.31,911.05c35.57-317.65,2-622.95-101.23-894.25-21.9,283.54-10.35,617,47.72,894.52Q336.56,911.34,363.31,911.05Z"/>
        <path d="M402.06,910.47q28.85-.54,57.7-1.45c21.8-236.27,66.14-483.11,125.83-737.16Q418.49,464.39,402.06,910.47Z"/>
        <path d="M184.9,483.18C141.79,369.63,81.13,267.07,1,176.72c97.94,218,168.17,476.35,201,733.3q21.34.5,42.7.8A3545.13,3545.13,0,0,0,184.9,483.18Z"/>
    </g>
    <path class="vase" d="M467,1282.31H189.88c-3.19-115.74-8.21-240.55-13.9-373q149.51,4.35,299-.81C470.41,1040,466.39,1164.84,467,1282.31Z"/>
</svg>
