<svg viewBox="0 0 115.05 176.97">
  <path class="panelDark" d="M94.22.5H1.8L18.05,13.81h96.12Q104.18,7.15,94.22.5Z"/>
  <path class="panelMedium" d="M1.8.5,18.05,13.81q-2.13,81.32.38,162.66-8.5-8.25-17-16.51Q-.6,80.24,1.8.5Z"/>
  <path class="panelLight" d="M18.05,13.81h96.12q-2.13,81.32.38,162.66H18.43Q15.93,95.16,18.05,13.81Z"/>
  <path class="monitorDark" d="M24.63,73.34c12.86-8.13,25.5-16.77,37.1-26.65,13.82,10.07,29,18.38,44,26.65Z"/>
  <g class="monitorMedium">
    <path d="M25.42,20C35.49,30.92,47.67,41.38,61.73,46.69c-11.6,9.88-24.24,18.52-37.1,26.65Q24.78,46.69,25.42,20Z"/>
    <path d="M106.47,20c-13.73,10.43-28.76,20-44.74,26.66,13.82,10.07,29,18.38,44,26.65Q105.83,46.69,106.47,20Z"/>
  </g>
  <g class="monitorLight">
    <path d="M106.47,20c-13.73,10.43-28.76,20-44.74,26.66C47.67,41.38,35.49,30.92,25.42,20Z"/>
    <path d="M23.69,127c.17,22.67,20,41.82,42.57,41.69A41.43,41.43,0,0,0,107.07,127c-.31-22.6-19.34-41.56-42-41.7S23.51,104.43,23.69,127Z"/>
  </g>
  <g class="coneOuter">
    <path d="M45.48,46.69A16.15,16.15,0,0,0,61.53,62.93,16.64,16.64,0,0,0,78,46.69,16.07,16.07,0,0,0,62,30.44,16.72,16.72,0,0,0,45.48,46.69Z"/>
    <path d="M33.48,127c.24,17.44,15.13,31.89,32.52,31.89A31.55,31.55,0,0,0,97.27,127c-.24-17.36-14.74-31.9-32.15-31.9S33.24,109.64,33.48,127Z"/>
  </g>
  <g class="coneInner">
    <path d="M53.14,127c.09,6.52,6,12.16,12.43,12.23a12.22,12.22,0,0,0,12-12.23A12.62,12.62,0,0,0,65.24,114.8,12.46,12.46,0,0,0,53.14,127Z"/>
    <path d="M51.81,46.69c-.09,5.15,4.38,10,9.79,9.91a10.41,10.41,0,0,0,10-9.91,10.08,10.08,0,0,0-9.75-9.92C56.44,36.66,51.9,41.49,51.81,46.69Z"/>
  </g>
</svg>
