<svg viewBox="0 0 465.73 947.49">
    <path class="bottom" d="M458.15,881.45c0,7-.24,14,.06,21,.42,9.91-1,19.53-5.19,28.44-3.19,6.82-10.51,8.55-16.86,8.26-10.41-.47-20.66,1-31,.87-10.83-.14-21.73-.44-32.49.58-19.65,1.88-39.42.49-59,2.56-10.26,1.09-20.37-.47-30.52.31-20.32,1.57-40.69-.18-61,1-25.83,1.54-51.67.85-77.5.86q-20.28,0-40.5,1.06c-8.24.42-16.37-1.16-24.48-2.17a137.32,137.32,0,0,1-21.56-4.66,20.87,20.87,0,0,1-8.86-4.74c-9.17-9.05-18.51-18.08-25.47-29-4.15-6.5-7.15-13.76-6.16-21.93.06-.47-.3-1-.47-1.49l1,2c13-1,26-.47,39-.47q200-.08,400,0Z"/>
    <path class="side" d="M462.15,735c-1.44,9.66-.74,19.5.32,29a326.21,326.21,0,0,1,1.21,55.54c-.37,6.32-.6,12.67-.48,19,.26,14-.78,28-1.68,42A69.26,69.26,0,0,1,459.4,892c-1.2,4.93-4.58,6.29-8.27,6.8a141.46,141.46,0,0,1-19,1.08,371.44,371.44,0,0,0-42,2.85c-5.22.59-10.65.59-16,.7-20.67.44-41.33,1.17-62,1.78-17.16.5-34.39.22-51.5,1.87-4.17.4-8.32.84-12.51.85-9.17,0-18.4.73-27.48-.15-16.23-1.58-32.37,0-48.51.39q-23.74.57-47.51,1.15c-10.49.27-21-1.08-31.5-.76-15,.46-30-1.12-45-.36-6.4.31-12.23-3.93-17.91-6.92-2.37-1.26-4.74-2.86-7.08-4.35-8.92-5.66-9.23-15.05-9.91-24-1-13.14-2-26.33-1.88-39.49.07-8.34.3-16.72-.36-25-1-12-.92-24-1.11-36-.12-8-.31-16,.21-24,.15-2.31-.44-4.66-.43-7,.13-21.67-.14-43.35.69-65,.37-9.75-1.1-19.39-.5-29,.57-9.2-.51-18.32.08-27.53.6-9.44-.66-19-.75-28.48-.15-17.67.06-35.34-.09-53-.07-8.34-1.29-16.71-.8-25,.88-15.19-.5-30.35.26-45.52.25-5-.66-10-.89-15-.24-5.2.95-10.41.78-15.5C8,424.28,9.47,411,7.94,398c-2.73-23.14-1.63-46.38-3.1-69.53-.28-4.43-.1-8.7-1.55-13-.87-2.6.65-5.5.57-8.46-.24-9.32.94-18.67.67-28-.33-11.17.83-22.48-.66-33.46C2,231.61,3.19,217.77,2.33,203.94c-.42-6.77.47-13.65-.14-20.5-.31-3.5,0-7-.92-10.52-1.12-4.34,1.6-8.46,1.57-13-.06-6.82.73-13.61.48-20.51-.34-9.31.66-18.66.78-28,.09-7.84-.8-15.75-.65-23.5.28-14.66-.39-29.34.58-44,.61-9.11,1.33-18,5.07-26.51C12.43,9.88,18.24,7,26.15,6.92c19-.08,38,.21,57-.64,13.67-.62,27.34-1.76,41-1.23,19.24.74,38.34-1.55,57.5-1.95,18.32-.38,36.67.55,55,.82a64.08,64.08,0,0,0,10-.52c10.47-1.49,21.06-.65,31.52-1,18.28-.6,36.66-.76,55-.48,13.17.19,26.31-1.78,39.5-.49,10.85,1.05,21.73-.71,32.49-.21,11.66.54,23.61-.29,35,3.29a54.49,54.49,0,0,1,12.94,5.56A16.5,16.5,0,0,1,460.58,24c.3,11.34.56,22.67.88,34,.43,15.48-.7,31-.7,46.5,0,6.33,0,12.67,0,19,.15,12.67-.58,25.32-.44,38s.93,25.29-.35,38c-.83,8.29-.25,17,.17,25.47a165.75,165.75,0,0,1,.1,22.51c-.49,5.78.18,11.66.37,17.49.32,9.5.84,19,.94,28.5.06,6.06.9,12,1.4,18a185.31,185.31,0,0,1,.44,24.48c-.71,14.35,0,28.7.06,43,.05,18.81-1.14,37.7,1.08,56.51.62,5.27-.71,10.6-.56,16,.39,14.16,0,28.33-.72,42.51-.44,8.62.92,17.33.76,26-.19,9.83.74,19.65-.29,29.51-.61,5.94-.1,12-.11,18,0,20.83.13,41.67-.44,62.5-.34,12.82-.28,25.67,0,38.5.25,11.53-1,23-1.31,34.49-.21,8.82-.64,17.67-.73,26.51,0,1.71-.48,3.56,1,5Z"/>
    <path class="panel" d="M312.15,209c.39-4.46-2.48-7.23-5.55-9.43a32.28,32.28,0,0,0-19.45-6c-6.09.09-11.86-2.12-18-1.68a263,263,0,0,1-27.49.95c-9.53-.31-19-.07-28.51.57-9.81.66-19.66,1-29.49,1-4.86,0-9.44.26-14,2-6.81,2.65-11.56,10.61-9.92,18,1.31,5.94,3.19,11.77,8,16a14.19,14.19,0,0,0,10,3.58c14-.14,28-.11,42,0,9.83.06,19.72,1,29.49.29,11.08-.82,22,.74,33,.72a101.42,101.42,0,0,0,20.49-2.58c5.05-1,7.91-3.8,9.31-9.38,1.17-4.69,2.38-8.92.7-13.57Z"/>
    <path class="panel" d="M298.15,277c-3.48,1.48-6.12-1.52-9.47-1.81a348.4,348.4,0,0,0-47-1.32c-12.8.63-25.66-.13-38.49.22a91.86,91.86,0,0,0-24,3.38c-5.35,1.61-9.46,5-12.9,9.1-2.17,2.58-2,6.24-1.52,9.42,1.84,11.34,5.44,15.31,17.4,18.11,12.26,2.88,24.75,2.77,37,2.56,14-.25,28,.8,42,.1,10.24-.5,20.38-1.38,30.48-2.82,8.44-1.21,17.78-7.12,17.08-19.95-.4-7.49-3.84-12.75-10.07-16.49Z"/>
</svg>
