<svg viewBox="0 0 2023.75 994.78">
  <path class="tableDark" d="M292.87,789.65,313.82,954c-38.22,35-71,11.12-96.09,19.24-90.33,29.21-100.67-4.81-138,1.79-33.69,6-65.87-9.08-65.87-15.83l21-169.52Z"/>
  <ellipse class="tableLight" cx="163.87" cy="789.65" rx="129" ry="23"/>
  <g class="shrubCloser">
    <path d="M215.05,679.77c17.13-10.79,0-38.13-18.72-26.73.13-36.09-56.31-40.72-67-11.89-22.21-20-42.71,5.56-30.16,23.31C129.55,743.83,168.58,745.17,215.05,679.77Z"/>
    <path d="M87,670.27c25.33-23.85,69,1.37,58.28,35.76,26.37-8.6,44,34.46,25.07,44.62,10,29.88-41.68,58.83-72.53,38.25-33.06,30.9-89.23-16.82-71.23-47.73C-21,729,5.11,660.46,45.35,677.33,47.52,652.44,77.9,647.57,87,670.27Z"/>
    <path d="M177.37,703.65c-12.85-12,6.95-37.17,26-27.5-1.61-52.94,72-49.79,76-5,17.9-8.68,37.82,18.83,17.9,32.5,29.1-3.45,34.83,53.68,1.13,54.58,8.48,11.15-7.57,31.42-20.12,24.38-2.27,15.73-42.06,24.77-51.32,9.86-19.81,23.68-76-8.2-58.59-35.32C139.23,753.64,143.53,701.44,177.37,703.65Z"/>
  </g>
  <g class="rose">
    <circle cx="34.87" cy="750.01" r="26"/>
    <circle cx="111.13" cy="770.65" r="26"/>
    <circle cx="96.81" cy="700.2" r="26"/>
    <circle cx="201.76" cy="750.01" r="26"/>
    <circle cx="266.77" cy="711.89" r="26"/>
  </g>
  <path class="curtainFlap" d="M391.87,386.13l-42.5,571c7.4,20.62,71.56,22.86,87.1,3.85l-6.61-574.82Z"/>
  <g class="curtain">
    <path d="M1996,355.31l21.1,569.61c-8.56,14.49-81.63,24.75-117.8,15.68-61.12-15.34-92.76,39.82-191.51,9.65-46.34-14.15-100,32.62-183.07,2.24-47-17.19-96.29,29-171.77-5.18-35.91-16.27-77.52,19.51-144.31-17.17L1202,355.31Z"/>
    <path d="M1223.83,386.13l21.11,569.61c-8.57,14.49-81.63,24.75-117.8,15.68-61.12-15.34-92.77,39.82-191.52,9.65-46.34-14.15-100,32.61-183.07,2.24-47-17.19-96.29,29-171.76-5.18-35.92-16.27-77.53,19.5-144.32-17.18l-6.61-574.82Z"/>
  </g>
  <g class="canopyDark">
    <path d="M2021.12,331.26V470.19c-37.72,5.26-83,2-106.1-25.86-31.71,46.92-126.76,46.92-163.7,6.6C1724,503,1611,504.69,1576.54,453.85c-31.49,53.41-157.37,47.41-188.56-4-33,46.27-132.37,46.27-151.21-6.94-21.41,26.69-85.8,34.4-120.89,12.19l5-123.82Z"/>
    <path d="M1249,362.08V501c-37.73,5.27-83,2-106.11-25.85-31.7,46.91-126.76,46.91-163.7,6.6-27.28,52-140.32,53.76-174.77,2.92-31.49,53.41-157.38,47.41-188.56-4-33,46.28-132.38,46.28-151.22-6.93-21.41,26.69-85.8,34.4-120.89,12.19l5-123.82Z"/>
  </g>
  <g class="canopyLight">
    <path d="M1197.21,1.19l443.1,288.43c-169.58,32.07-735.43,32.07-900.24,0Z"/>
    <path d="M1578,42.83l443.1,288.43c-169.58,32.07-735.43,32.07-900.24,0Z"/>
    <path d="M805.87,73.65,1249,362.08c-169.59,32.07-735.43,32.07-900.25,0Z"/>
  </g>
</svg>
