<svg class="weddingCrowd"
    xmlns="http://www.w3.org/2000/svg" viewBox="0 0 1934.43 1057.84">
    <path class="tableTop" d="M295.66,880a36.84,36.84,0,0,0-.27-12.55c-1.75-8.21-7.14-11.88-14.24-13.9-10.11-2.87-20.47-3.21-31-3.17-62,.24-124,0-186,.2-7.25,0-14.69.49-21.47,3.48-9.44,4.17-11.17,12.93-12,21.94-.29,3.31-.05,6.66-.05,10Z"/>
    <path class="floralBack" d="M128.66,715c-.65-6.91-10.5-13.94-18-12.46C96.86,705.24,94,715,96.31,727.43a18.11,18.11,0,0,0,5.41,10.47c2,1.77,2,3.81,2,6.06q0,24,0,48v5.25h110V770.46c0-8.17-.5-16.38.13-24.49.81-10.38-7.57-20.8-18.66-23.13.21-4.48.47-9.32-2-13.34-4.91-7.86-11.22-14.43-20.45-17-14.22-3.94-30.82-.53-40,11.94-1.56,2.13-3,4.33-4.51,6.5Z"/>
    <path class="floralLeft" d="M187.66,843v-62.5h-32.5c-6.18,0-6.18,0-11.12-4.62,1-3.21,2.88-6.18,2.7-9.89-.31-6.35.24-12.44-4.41-18.13-6.3-7.71-13.48-13.52-23.17-15.83a34.45,34.45,0,0,0-29.51,6,15.4,15.4,0,0,1-2,1c-.53.28-1,.6-1.92,1.12-6-8.26-12.37-16.79-24.57-14-10.88,2.45-15.84,10.28-17,21.1-7.87-3-15.83-3.88-24-1.2-8.77,2.89-18,13.79-18.74,24.5C.93,777.53.31,784.27,3.15,791c4.43,10.43,12.15,17,23,20.26C23.86,828,30,842,41.06,854.55c4.14,4.69,8.34,9,14.12,11.37,8.38,3.49,16.95,2.51,25.48.53a37,37,0,0,0,15.91-7.74c4.32,1.72,7.18,5.53,11.58,6.78a46.49,46.49,0,0,0,38.93-5.67c6.54-4.14,13.9-7.74,17.61-15.35.84-1.73,2.61-1,4-1,6.17-.06,12.34,0,18.5,0Z"/>
    <path class="curtainsRight" d="M1188.66,451c1.27,2,1,4.28,1,6.5q0,247.24-.12,494.5c0,4.37,1.51,6.9,5.13,8.47,13.62,5.93,27,12.41,40.59,18.3,7,3,14,6.32,21.42,8.16s14.51,4.18,22,5.68c10.93,2.21,21.72,5.1,32.5,8,2.84.75,5.71.64,8.57,1.2a124.56,124.56,0,0,0,32,2.53c8.54-.52,17-1.36,25.47-2.41,13-1.63,26-3.81,39-5.93,10.52-1.72,20.65,0,31,1.74,11,1.88,20.36,7.68,30.92,10.4,12.37,3.19,24.81,5,37.53,4.25,2.66-.15,5.52-.81,8-.21,4.37,1.07,8.54-.07,12.5-.84,12.19-2.37,24.37-5.18,36.59-6.92,10-1.42,18.84-6.22,28.91-7.2a73.35,73.35,0,0,1,18,.64c12.5,1.91,24.71,5.72,37.06,8.64a42,42,0,0,0,15,1.14c7.61-1,15.29.55,23,0,15.83-1.18,31.29-3.21,46.61-8.24,13.69-4.49,27.3-9.58,41.43-12.64,3.73-.81,8-.69,12-.67,10,0,20,.7,30,1.17a174,174,0,0,0,47.56-3.87c11.62-2.68,21.09-9,31.39-13.9a92.65,92.65,0,0,0,18.63-12.31,65.06,65.06,0,0,0,9.78-10.72c2-2.56,1.34-6.23,1.08-9.4-1.14-13.82-1.32-27.71-2.89-41.51-1.34-11.8-2.07-23.66-3.06-35.49-1.68-20-3.63-40-4.86-60-.46-7.55-1.79-15.11-1.76-22.49,0-9.91-1.06-19.67-1.45-29.5-.8-20.68-2-41.33-2.88-62-.3-7.17-.76-14.36-1.35-21.47-.56-6.67-.39-13.37-1.09-20-.82-7.78-.48-15.68-1.18-23.48-1.24-13.82-.77-27.74-2.83-41.52a118.44,118.44,0,0,1-1-19.48c.25-15.6-2.76-31-3.18-46.5-.17-6.33-.74-12.66-.93-19-.44-13.89-3.1-27.6-3.26-41.74-2-.09-3.87-.25-5.71-.25q-350.49,0-701,0c-1.48,0-3.1-.65-4.5.47Z"/>
    <path class="floralRight" d="M176.16,773.46c-6.85.57-13.4,1-19.63,5.31-10.87,7.59-15.27,27.06-4.78,37.6a32.46,32.46,0,0,0,10.9,7.61,9.58,9.58,0,0,1,4.51,3l3-1.5c-6.72,4.55-9.49,14-6,21s7.27,13.23,14.9,16.69c3.55,1.6,6.81,4.29,10.61,5.21a58,58,0,0,0,22,1.1c6.1-.88,12-2.14,15-8.91,6.84,5.54,14.58,7.49,23,7.48,4.7,0,8.31-2.87,12.52-4,6.67-1.8,11.88-5.36,14.9-11.6.83-1.72,1.24-1.87,3.1-1.57a17.31,17.31,0,0,0,11.44-2.46c7.52-4.42,9-10.61,5.57-20.34,5.83-1.93,12-3.65,15.9-8.64,8.45-10.73,12-22.43,5.05-35.43-4.25-7.93-9.54-11.54-17-10.51l2-1c8-16.87.56-27.44-16.54-32.36-2.53-.72-5.62.52-8.46.86l-1.5,3c2.32-4.21-1.42-3.71-3.5-4.5h2.5c1.5-10.36-2.35-24.94-15-30.06-14.88-6-28.92-7-42.64,3.41-6,4.51-8.92,10.61-12.39,16.65l-1,1a22.82,22.82,0,0,0-1.78,11.47c.18,1.67-.87,2.65-.72,4l1.5,3c-3.42-6.39-9.61-5.46-15-4.79-4.43.56-8.86,2.67-10.54,7.78a60.16,60.16,0,0,1-2.51,6.5c-2.62,5.63-.57,13.74,4.52,17.51Z"/>
    <path class="curtainDoorRight" d="M1136.16,464c-1.06,1.57-.46,3.34-.46,5q-.06,248.25-.2,496.5c0,5.29,1.7,8.24,6.17,10,11.78,4.57,23,10.31,34.54,15.42,15.93,7.08,32.69,7.65,49.42,3.46,7.62-1.91,14.29-6.52,19.9-12,2.86-2.78,2.88-7.35,2.6-11.36-.72-10.36-1.86-20.68-2.8-31-1.33-14.65-3.06-29.26-3.84-44-.51-9.5-1.66-19-2.39-28.51q-1.32-17-3.49-34c-1.95-15.28-2.2-30.67-3.35-46-.85-11.32.14-22.83-2.49-34.06-.55-2.33.35-5,.37-7.47,0-7.7-.64-15.35-1.21-23-.52-7.06-.83-14.31.17-21.49,1.12-8.18-.39-16.4-1.25-24.46-.65-6-.51-12-1-18-1.4-15.63-2.11-31.32-3.14-47-1-14.67-3.08-29.37-2.7-44,.39-14.91-1.38-29.66-1.38-44.5,0-7.67-1.68-15.39-1.2-23s-1.6-15-.76-22.52c.56-5.05-1.94-9.89-.8-14.49h-80.16Z"/>
    <path class="rose" d="M92.16,754.46c-8.77,3.51-11.84,8.14-11.52,17,.26,7.34,7.22,13.93,12.51,15.53,8.44,2.53,17.15-1.68,22-10.52,5.92-10.69.54-18.64-7.12-22.86a11.25,11.25,0,0,0-8.93-.69,66.61,66.61,0,0,1-6.49,1.54Z"/>
    <path class="rose" d="M265.16,761.46c-8.14,1.72-13.11,6.81-16.05,14.48-3.93,10.28,1,21,8.53,24.58,7.91,3.77,17.79-.29,22.66-8C287,782,282.74,764.63,268.16,762c-.83-.15-1.66-.33-2.5-.49Z"/>
    <path class="rose" d="M202.16,800.46c-12.47,2.34-18.85,9.72-19,21.5-.15,8.93,7.07,16.52,12.54,18,7.48,2,14.72-2.49,19-9.54,7.81-13,.89-23.28-9-28.47-1-.52-2-1-3-1.5Z"/>
    <path class="rose" d="M37.16,800.46c-9.56.67-17.63,10.64-19,20.49-1.15,8.24,5.82,17,14,18.06,16.05,2.12,27.58-15.25,21.4-30-2.81-6.72-9.28-8.12-15.9-8.54Z"/>
    <path class="rose" d="M110.16,823.46c-6.22,1.49-12,3.8-15,10-2.75,5.66-1.87,18.85,3.35,23.15,9.09,7.51,20.4,2.65,25.29-6.07,3.84-6.84,2.39-13.4.07-19.49-2-5.15-7.21-7.82-13.23-7.6Z"/>
    <path class="tableSide" d="M33.66,863.46c3.7,7.48,10.38,5.84,17.05,7.31,13.68,3,27.53,5.33,41.42,7.39,8.18,1.2,16.33,1.79,24.53,2.33,3,.2,5.88,1.52,9,1.5,14.67-.1,29.32.58,44,.17,9-.26,18.08-1,27-.84,14.14.29,27.81-2.37,41.46-4.65A255.92,255.92,0,0,0,281.19,866a39.29,39.29,0,0,0,11-6.06l3.5,4c2.58,20.44,4.19,41,6.14,61.48.72,7.52,2.06,15.06,3.07,22.56.89,6.55.89,13.31,1.74,20,1.66,13,2.81,26.06,4.84,39,.55,3.55.78,7.31,1.11,11,.59,6.7-3.14,11.09-8.9,14-7.1,3.56-14.22,7.09-22,9-7.06,1.72-14,3.46-21.51,2.66-8.12-.85-16.41.76-24.5-1.61a34.17,34.17,0,0,0-20.72.51c-12.29,4.11-24.55,8.34-37.27,10.92-11.21,2.26-22.35,3.83-34,3.3-15.78-.71-30.31-5.32-45-10.12a54.12,54.12,0,0,0-22-2.66,126.65,126.65,0,0,1-35.55-1.19c-9.31-1.75-17.34-5.48-25.53-9.65-3.18-1.62-3.11-3.74-2.87-6.15q1.84-18.27,4-36.5c1.33-11.34,2-22.73,3.86-34,1.58-9.57,2-19.33,3.16-29,.93-7.86,2.28-15.7,3.21-23.53,1.05-8.79,1.67-17.66,2.76-26.47.31-2.51.66-4.5,1-7Z"/>
    <path class="canopyTopFar" d="M1403.16,173c-12-8.79-24.43-17-36.91-25.14-10.42-6.8-21-13.47-31.68-19.69-18.36-10.64-35.54-23.07-53.74-33.95-9.88-5.9-19.35-12.78-28.78-19.56C1240.2,66.11,1227.39,59,1215.2,50.9c-8.36-5.53-16.5-11.44-24.47-17.53-3.21-2.45-6.83-4.1-10.07-6.4-10.82-7.7-21.61-15.42-32.52-23-5.93-4.12-9.57-4.13-16.51.92-11.13,8.12-22.74,15.61-33.81,23.76-8.48,6.24-17.33,12.08-25.25,19.18-6,5.38-13,9.71-19.4,14.62-15,11.46-29.84,23.21-45.07,34.4-9.69,7.13-18.67,15.15-28.81,21.78-9,5.9-17.08,13.26-26,19.45-16.2,11.22-32.74,21.92-48.21,34.22-17.53,13.93-36,26.61-53.8,40.26-5.25,4-10.71,7.86-16.46,12.23,7.79,6.68,16.06,11.35,23.89,16.61,16.58,11.12,33.31,22,50,33q50,33,100,66c25.14,16.54,50.37,32.94,75.43,49.6,2.8,1.87,4.35,1.93,7.12,0q38.85-27.21,78-54.08c31.16-21.51,62.22-43.15,93.39-64.65q35.91-24.76,71.6-49.86,34.26-24,68.5-48Z"/>
    <path class="canopyTopRight" d="M1916.66,362c-7.78,7.67-14,16.65-20.91,25.06-1.88,2.29-4.88,3.72-4.83,6.94-3.09-.2-5.42-.48-7.76-.48l-764,0c-2.2,0-4.42.32-6.51-1-12.69-7.8-25.42-15.53-38.31-23.38,16.12-13.35,32.07-26.38,49.38-37.55,11.19-7.22,21.4-15.74,32.47-23.05,11.38-7.52,23-14.64,34.46-22.06,14.54-9.44,28.45-19.83,43.51-28.49,11.6-6.67,23-13.76,33.39-22.14,7.82-6.29,16.33-11.54,24.23-17.7,9.16-7.15,19.19-13.19,28.89-19.64,13-8.66,26.41-16.71,39.06-25.93,6.67-4.86,13.85-9,20.46-14,10.55-8,22.06-14.7,31.94-23.59a87.62,87.62,0,0,1,10.69-8.21c6.29-4,11.6-9.15,17.28-13.82,7.93-6.51,16.08-12.65,24.32-18.76,7.87-5.84,15.88-12,22.69-19.22,2.36-2.52,5.42-4.11,7.69-6.83,2-2.34,8.56-2.81,11.94-.73,7.57,4.65,14.2,10.55,21.27,15.83,7.84,5.85,16.77,9.63,24.9,14.9,14.56,9.42,29.4,18.31,43.51,28.53,6.44,4.66,12.94,9.81,20.29,13.25,1.87.88,2.12,2.7,3.8,3.83,10.64,7.22,20.67,15.32,31.19,22.72,12.1,8.5,23.73,17.6,35.62,26.35,9.81,7.22,19.9,14.13,29.81,21.25,6.66,4.78,12.87,10.19,19.58,14.89,8,5.6,16.6,10.32,24.39,16.15,15.56,11.66,32.25,21.73,47.15,34.32,5.65,4.77,12.24,8.44,18.41,12.59,13.13,8.84,26.31,17.57,40,25.47,8.15,4.7,16.07,9.77,24.32,14.33A135.85,135.85,0,0,1,1917.63,351c3.67,3.42,3.43,4.81-.47,11Z"/>
    <path class="canopySideRight" d="M1068.66,377.46c1-1.08,2.35-.46,3.5-.47,13.36-.06,26.64,1.5,40,1.68,5.35.07,10.66-.58,16-.23,11.33.73,22.66,1.49,34,2,6.82.29,13.83-.9,20.46.27,11.06,1.95,22,.19,33,.8,7.67.43,24.46.44,25.5.53a365.13,365.13,0,0,0,38,1.06c11.49-.17,23,.66,34.49.87,9.68.17,19.37.73,29,.72,9.17,0,18.49-.41,27.46.65,10.14,1.19,20-.92,30.05,0,8.78.84,17.74,0,26.47.51,7.47.47,15.17-.84,22.54,1.54a9.68,9.68,0,0,0,4.48,0c9.34-1.65,18.67.08,28,0,14.67-.2,29.35-1.49,44-1.19,7.69.16,15.36-.19,23-.43,14-.42,28-.16,42-1.51,8.89-.85,17.91-2.76,27-1.29,1.48.24,2.71-.76,4-.92,5.48-.7,11-1.18,16.49-1.57,15-1.05,30-2.13,45-3,14.49-.82,29-.9,43.48-2.19,10.17-.91,20.43-.9,30.53-2.77a92.55,92.55,0,0,1,12.48-1c8.78-.42,17.3-2.62,26-3.5,6.32-.64,12.7-.74,19-1.58,19.43-2.59,39.07-2.48,58.55-5.11,14.47-2,29-3.55,43.46-5.77,1.6-.25,3.32.32,5.5.57.48,5.33,1.25,10.84,1.45,16.37.62,17.83.49,35.7,1.74,53.48.82,11.67.9,23.37,2.11,35,.86,8.18,1.26,9.06-7.21,14.14-10.8,6.47-22.82,8.36-34.61,11.29-12.37,3.08-24.57,1.38-37.05-.57a210.29,210.29,0,0,1-22.86-4.66c-7.7-2.09-15.56-4.51-22.67-9.25-8.5,9.93-20.21,14.09-31.43,19-9.53,4.14-19.21,8.52-29.51,9.83-10.06,1.27-20.19,2.95-30.47,2.26-15.05-1-30.09-1.76-44.53-6.95-5-1.8-8.52-5.61-12.86-8.14-12.92,12.93-28.53,20.74-45.51,26.81-9.79,3.51-19.62,4.39-29.6,4.6-11.22.24-22.14-2.62-33-5.35-6.82-1.71-13.75-3.05-20.47-5.08a45.9,45.9,0,0,1-20.91-13.6c-8.3,6.52-17.94,11.19-27.65,15.6a108.63,108.63,0,0,1-41,10.16c-11,.44-21.7-1.31-32.56-2.61-8.95-1.08-17.56-3.49-26.43-4.57-2.92-.36-5.76-1.73-8.5-2.94-8.35-3.67-16.68-7.4-24.28-13-8.06,7.29-18.42,10.62-28.17,15.21-8.21,3.86-17.12,5.14-25.64,6.37s-17.87,1.89-27-.31c-7.67-1.85-15.65-2.54-23.48-4a126.35,126.35,0,0,1-35.9-12.83c-11.13-5.89-22.39-11.6-33.12-18.28-7.32-4.57-12.72-10.95-18.44-17.1-.88-.95-1.61-2.06-2.52-3-14.65-15-29.69-29.67-43.87-45.12-12-13-25.31-24.76-36.52-38.47C1067.6,377.75,1068.66,377.46,1068.66,377.46Z"/>
    <path class="curtainsLeft" d="M1172.16,890c-2.18-16.44-.38-33-1.8-49.52-1.09-12.75.54-25.7-.81-38.47-1.08-10.23-.5-20.33-.35-30.52.11-7.65-1.55-15.62-2.26-23.47-.34-3.67,0-7.37-.43-11.06-1-8.89-1.71-17.87-1.08-27,.69-9.93-.51-20-.74-30-.2-8.5,0-17-.46-25.51-1-18-.48-36.07-2.68-54-1.27-10.33-1.06-20.69-1.86-31-1.11-14.49-2.21-29-2.93-43.5-.26-5.38-.39-10.73-1.57-16.24H465.66V515q0,244-.16,488c0,5.89,1.54,10.34,5.7,14,6.91,6,14.91,10.21,23.44,13.59,14.68,5.81,30.12,7.22,45.51,6.62a171.69,171.69,0,0,0,27-3.55c11.12-2.26,22.2-2.47,33.53.68,14.39,4,28.32,9.64,43,12.58,11.34,2.29,22.88,3.35,34.45,4.35s23.11.13,34.5-1.38,23.07-3.33,34.58-5c11.82-1.71,23.24-5.06,35-6.7a126.3,126.3,0,0,1,35.48.26c15.07,2.18,29.62,6.61,44.51,9.48,11.73,2.26,23.61,3.69,35.45,5.31,11.19,1.53,22.12.19,33-1a198.79,198.79,0,0,0,25.58-4.54,225,225,0,0,0,35.42-11.78c6.69-2.87,13-6.55,19.53-9.92,6.12-3.2,12.81-4.12,19.51-4.42,17.91-.82,35.66,2,53.49,3,7.18.37,14.57,2.34,21.45,1.16,10.33-1.78,20.94-.57,31.16-4.4,7.07-2.66,14.77-3.82,21.92-6.73,10.48-4.25,14.65-12.55,14.89-23.06.3-13.49.21-27-.82-40.5-.43-5.62.36-11.33.38-17,.06-14.51.14-29-1-43.5Z"/>
    <path class="curtainDoorLeft" d="M479,929.47c.76,6.08,0,12.32.17,18.49.23,9.33,1.18,18.68.82,28s1.15,18.64.28,28c-.52,5.67-1.63,10.82-5.65,15-3.37,3.48-8.27,3.56-12.51,4.92-19.16,6.15-38.12,2.22-56.94-2-4.51-1-9.2-2.25-13.05-5.34a8.74,8.74,0,0,1-3.48-8c1.34-17,1.85-34.12,4.26-51,2-13.82,3.19-27.73,5.12-41.55s2.33-27.72,4.28-41.46c1.42-10,2-20,3.2-30C406.75,834,409,823.6,408.73,813a39.17,39.17,0,0,1,1.12-9.45c1.89-8.34,0-16.75,1.28-25,2-13.09,3-26.3,4-39.49.85-10.67,1.6-21.34,2.53-32,.72-8.34,1.8-16.66,2.43-25,.83-10.82,1.07-21.69,2.16-32.48.67-6.67.43-13.46,1.55-20,2.05-12,2.68-24.06,4.11-36.06,1-8.38.16-17,1.27-25.47s.62-17,4-25.25h36.93c0,1.9,0,3.57,0,5.25-.22,15.66.1,31.34.23,47,.15,18.35-1.17,36.7-.07,55,.63,10.36.2,20.72.05,31-.29,18.83.17,37.67-.43,56.52-.32,9.91-.72,20.09,1.66,30,.37,1.56-.29,3.37-.33,5-.19,8.52-.32,17,1.33,25.51a30.65,30.65,0,0,1,.42,8c-1.23,16.11,1.51,32,2,48,.26,8,1,16,1.64,24a142.26,142.26,0,0,0,1.63,15.47C478.79,895.87,477.8,919.64,479,929.47Z"/>
    <path class="canopyTopLeft" d="M734.66,130.46c5.88,1,10.13,5,14.45,8.57,12.56,10.31,26.89,17.84,40.56,26.41,7.29,4.57,14.61,9.09,22,13.5,9.74,5.81,20.19,10.44,29.46,17,10.41,7.42,21.38,14,32.16,20.76,12.48,7.86,24.8,16,37.32,23.78,14.84,9.23,29.38,18.93,44,28.44q28.51,18.48,57,37c17.5,11.35,34.95,22.75,52.52,34,19.94,12.75,40.46,24.67,59.83,38.24,14.45,10.13,28.46,20.94,43.2,30.7,1.92,1.27,3.19,3.13,5.36,4.26,2.79,1.47,2.12,7.71-.94,10.79-5.56,5.6-11,11.37-17,16.44-7.44,6.25-14.07,13.28-20.84,20.17a9.53,9.53,0,0,1-7.59,3q-400-.08-800-.07c-2.06,0-4.13.56-6.05-1.42-11.56-11.94-23.29-23.71-34.93-35.57a19.87,19.87,0,0,1-3-4c-2.77-4.92-2.18-8.24,2.5-11.44,8.83-6.06,17.73-11.94,27.93-15.66,4.75-1.72,8.64-5.39,12.88-8.14,5.57-3.61,11.57-6.28,17.18-9.73,10.12-6.23,20.25-12.46,30.5-18.49,16.63-9.79,32.6-20.62,49.25-30.41,15.65-9.2,31.82-17.76,46.35-29,9.64-7.43,19.85-14.26,30.08-20.84,7.53-4.84,15.76-8.87,23.25-13.89,14.64-9.81,29.9-18.64,44.73-28.13,9-5.76,18.18-11.45,27.71-16.5,6-3.19,11.56-7.72,17-12,7.64-6,16.18-10.45,24.2-15.75,7-4.61,14.3-8.71,21.46-13.06,14.84-9,29.62-18.08,44.54-26.93A88.72,88.72,0,0,0,711,145.8c7.32-5.76,15.2-10.55,23.12-15.34Z"/>
    <path class="canopySideLeft" d="M1171.66,420.46c-12.5,1.5-25,3.06-37.5,4.46-3.81.43-7.65.11-11.5.44-16.15,1.39-32.35,2.22-48.49,3.66-13,1.17-26,3-39,4.42-7,.77-14,1.7-21,1.95-18.87.68-37.66,2.59-56.5,3.42-5.13.23-10.45-1.13-15.47.25-6.77,1.87-13.79-.14-20.6,2.18-3.24,1.11-7.14-.69-10.94-.46-10.8.66-21.65.44-32.49.7-9.66.23-19.33.69-29,1-6,.16-11.95-.56-18-.11-12.3.92-24.66,1.07-37,1.64-20.67.95-41.33.35-62-.39a269.11,269.11,0,0,0-31.48,1.07c-3.1.25-6-.32-9-.28-10,.16-20,1-30,0-7.66-.73-15.36-.35-23-1.33-4.25-.54-8.68.58-13,.31-12-.77-24-.08-36,.05-9.66.1-19.46,1-29-.21-17.48-2.28-35.07-1-52.52-2.82-3-.31-5.6,1.48-8.5,1-8.29-1.27-16.71.19-25-1.34-3.68-.68-7.64.32-11.48.33-9.9,0-19.64-2.15-29.5-2.37-7.55-.16-15-1.16-22.49-1.67-11-.74-22-1.92-33-2.94-5-.46-10-.88-15-1.52-9.85-1.25-19.71-2.43-29.5-4-9.51-1.56-19-3.49-28.47-5.13a78.24,78.24,0,0,1-19.55-6.28c-4.44-2.07-5.69-1.36-6,3.47-1,18-.72,36-.73,54,0,20.55,1.56,41,2.18,61.5.15,5-.07,10,.31,15,.34,4.56,2.45,5.89,6.19,7.07,5.9,1.86,12.07,1.57,18,2.89,11.69,2.59,23.45.73,35-.71a116,116,0,0,0,42.49-13.84c3.46-1.94,7.76-2.21,10.27-5.75.83.38,1.47.48,1.75.85,6.2,8.31,15.17,12.75,24,17.56,7.37,4,14.81,7.46,23,9.51,14.27,3.55,28.65,4.89,43,1.75,11.28-2.47,22.08-6.75,32.58-11.75,4.6-2.19,9.38-4,13.41-7.14,4.49-3.47,8.68-7.33,13.51-11.46,6.3,9.86,16.17,15.5,25.63,21.35,11.08,6.86,22.27,13.94,34.94,17.53,11,3.12,22.1,5.73,34,5.37a126.18,126.18,0,0,0,59.1-16.56c12.79-7.17,25.4-14.18,34.92-25.66,1.35-1.63,2.62-1.51,3.94.5,8,12.29,19.27,20.81,32.57,26.38,18.16,7.62,36.9,13.71,56.95,11.93,10.67-.95,21-4,31.12-8.08C873,566,885.2,555.62,898.68,547c3.58-2.29,5.16-6.57,9.28-8.43,1.36.57,2.18,2,3.27,3.34,5.81,7.15,13.89,11.29,22,14.92,10.57,4.73,21.18,9.4,32.9,11.32a111.66,111.66,0,0,0,33,.43,78,78,0,0,0,10-1.62c16.17-4.39,30.85-11.8,44.56-21.41,6.16-4.32,12.58-8.23,17.94-13.58,3.8,1.54,5.41,5.58,9,7.56,14.47,8.07,29.35,14.76,46,17,9.49,1.3,18.86,3.29,28.51,2.42,4.33-.4,8.86,0,13-1.16,8.36-2.36,10.7-3.6,11.46-13.86a42.43,42.43,0,0,0-.39-12c-1.39-6.62,0-13.32-.44-20-.67-9.48-1.38-19-.91-28.48.45-8.88-.36-17.68-.22-26.51.18-10.85-.19-21.68-.89-32.51a12.83,12.83,0,0,0-2-5.57c-1.24-.21-1.59,1.44-2.61,2.08Z"/>
</svg>
