<svg viewBox="0 0 120.11 57.78">
  <g class="bronzeMediumDark">
    <path d="M101.69,33.15c-.3,3.63-1.51,5.1-2.3,7.74,3,.51,2,4.21-1,3.54s-.08-6.68.28-10.51Z"/>
    <path d="M98.88,25c3.63-11.49,4.58-21.38-3.22-23.72-7-2.1-10.68.55-19.08.88-9.1.35-13.18-2.68-21-.53-14,3.87-7.87,18.53-3.82,27.9a18.88,18.88,0,0,1,1.6,7.23c.3,3.63,2.37,5.41,2.81,8.51-3,.51-2.36,4.06.6,3.48,3.92-.77.17-7.38-.06-10.85Z"/>
  </g>
  <path class="bronzeDark" d="M62.25,39l-5.54-1.11c-.2-2.85-.2-6.46-1.63-8C60.75,22.74,69.71,29.28,62.25,39Z"/>
  <g class="flatTurquoiseMedium">
    <path d="M94.66,3.78C89,2.47,85.48,4.83,77,5.31c-9.45.54-16.84-2.55-21.59,0-11.16,6,.45,18.18,1.53,23.21L98.88,25C98.17,15.93,104.07,6,94.66,3.78Z"/>
    <path d="M98.88,25c-.38-3.42.71-7.36,3.91-7.07a119.92,119.92,0,0,0,12.89.35C113.9,29.38,109.39,34.14,98.88,25Z"/>
    <path d="M61.46,30.44c-4.55-.53-9-1-13.41-1.28-4.69-.28-4.16-9.34.54-9.06a106.78,106.78,0,0,0,11.71.23Z"/>
  </g>
  <path class="flatTurquoiseMediumDark" d="M110.65,27.34,98.88,25a205.6,205.6,0,0,0-32.49,2.64l-.07,3C81.63,29,96.43,27.85,110.65,27.34Z"/>
  <path class="bronzeMedium" d="M114,18.51c-4.65,1.28-3.67,6.7-3,12l-45,3.33c.48-6.1,1.09-12.06-4-13.36-7.13-1.83-7.54,10.26-.64,9.94,1.12,2.81.46,4.49.79,8.59.33,3.93,2.57,5.85,3,9.22-3.21.55-2.56,4.4.64,3.77,4.26-.84.19-8,0-11.77a1.62,1.62,0,0,1,0-.22c11.91-.59,15.55,2.48,25.27,1.45,8.34-.88,12-4.22,20.23-5.56-.39,4.15-3.33,10.7-.3,11.39,3.18.73,4.28-3.29,1.06-3.83.86-2.86,2.17-4.46,2.49-8.39.21-2.52-.36-4.3.05-6.64C121.57,28.77,121.13,16.55,114,18.51Z"/>
  <path class="flatTurquoiseMediumLight" d="M66.32,30.69c15.31-1.69,30.11-2.84,44.33-3.35a11.37,11.37,0,0,1,.66,5.51A305.89,305.89,0,0,1,65.9,36.71,18.6,18.6,0,0,1,66.32,30.69Z"/>
  <ellipse class="dullTurquoiseMedium" cx="23.83" cy="27.19" rx="19.87" ry="3.54"/>
  <path class="dullTurquoiseLight" d="M43.71,27.19C43,31.86,4.82,31.94,4,27.19L.72,53.3c3.85,3.05,11.22,4.27,16.73,3.05,5.71-1.25,11.3,3.83,20.46-1.74,3.48-2.11,6.61,1.18,9-2.11Z"/>
  <path class="bonsaiFurther" d="M29.36,7.67c1.45-5.8-6.62-5.8-7.25-3.45-3-3.8-11.43,1.27-7.35,6.53C16.08,17,30.68,13.91,29.36,7.67Z"/>
  <g class="bonsaiCloser">
    <path d="M45.69,19.92c1.61,2.39-2.25,6.37-4.72,4.17-.45,6.16-13.51,4.44-13-.52-6.39,2.24-8.47-11.91-2.22-12-1.85-5.21,6.77-8.13,8.8-4.17,2.27-4.08,11.7.29,9,4.44C48.74,12.32,49.36,19.32,45.69,19.92Z"/>
    <path d="M12.9,26.36C9,30.08,2.28,26.27,3.87,21c-4,1.37-4.71-6.2-.54-6-1.63-5,6-8.62,9.43-4.63,5-4.81,12,.25,9.33,5C29.63,15,27.24,28.25,21,25.72,20.72,29.56,14.34,29.84,12.9,26.36Z"/>
  </g>
  <g class="rose">
    <circle cx="23.29" cy="13.2" r="3.6"/>
    <circle cx="12.9" cy="24.84" r="3.6"/>
    <circle cx="39.41" cy="17.21" r="4"/>
  </g>
</svg>
