<svg viewBox="0 0 176.93 246.51">
  <path class="flatYellowDarker" d="M20.66,87c-2.3,14.68-4.65,30.12-1.26,44.8,5.23,22.59,6,46.21,3.88,69.3C30.16,174.79,35.05,146,31,118.9c-1.57-10.37-2.94-20.76-2.9-31.29Z"/>
  <path class="flatYellowMediumDark" d="M23.28,201.09a137.58,137.58,0,0,0,.6,34.17c1.11-1.67,1.59-8.92,3.21-8.72,2.05.25,2-3.6,2.75-4.48s3.91.1,3.53-1.38a212.65,212.65,0,0,1-7.08-32Q24.78,194.91,23.28,201.09Z"/>
  <path class="brassDark" d="M65.77,2.17q-1.23,40-1.66,80.05l-53.69-4q.39-33.31,1.33-66.64Z"/>
  <path class="brassDarkest" d="M65.77,2.17l92.89,4.62c-2.38,23.33-7,50.93-24.94,67.85C114.85,92.49,87,89.3,64.11,82.22Q64.55,42.19,65.77,2.17Z"/>
  <path class="patinaDark" d="M172.56,5.86Q171.33,47.17,171,88.48l-58.83,6.1q.3-39,1.35-78Z"/>
  <path class="patinaDarker" d="M63.48.5,4.38,11.22l7.37.36,54-9.41,92.89,4.62L104.8,16.15l8.67.43L172.56,5.86Z"/>
  <path class="patinaDarkest" d="M104.8,16.15q-.93,34.5-1.28,69l-93.1-6.94q.39-33.31,1.33-66.64l-7.37-.36Q3.32,48.36,3,85.53l109.17,9q.3-39,1.35-78Z"/>
  <path class="rubberMedium" d="M10.42,78.22c4.34-2,10.15-8,14.26-7.67,1.63.15,3.55,1.85,4.92,3.14C31.35,72,33.75,69,35.92,68.9A5.83,5.83,0,0,1,39,70.38c2-2.75,5.65-7.35,8.81-7.57a6.51,6.51,0,0,1,3.63,1.65c2.24-2.62,6.5-7.55,9.78-7.57,2.07,0,4.67,2.15,6,4,.93-1.49,2.54-2.82,3.53-2.79a6.46,6.46,0,0,1,4,2.44c2.23-2.56,6.22-6.13,9.24-6.18,2.48,0,5.77,2.46,7.58,4.61,1.54-1.37,3.74-3.34,5.62-3.22,2.12.14,4.77,2.48,6.55,4.08q-.21,12.66-.33,25.32Z"/>
  <g class="rackDisplayLine">
    <path d="M80.28,41,31.6,45.66"/>
    <path d="M92.59,41.76,43.91,46.43"/>
    <path d="M104.16,42.62,56.5,47.19"/>
    <path d="M104.12,44.58,68.8,48"/>
    <path d="M104.08,46.58l-23,2.21"/>
    <path d="M104.16,42.62,68,40.16,19.29,44.83"/>
  </g>
  <path class="ironDark" d="M104,52,14.22,46.17c-2.61-.1-2.68-3.64.06-3.34l89.77,5.66C104,49.88,104,50.58,104,52Z"/>
  <g class="steelMediumDark">
    <path d="M129.26,246c-4.27-4.79-10.76-7.18-16.78-8.73a125.83,125.83,0,0,0-23-3.57q-2-70.52-1-141.09L74,91.39q-.1,8.81-.16,17.62c-.28,41.56-.11,83.17,1.18,124.72-14.16.59-28.49,1.86-39.09,12.28Z"/>
    <path d="M168.72,45.12,157.26,44a3,3,0,0,0-.68-.07,4.05,4.05,0,0,0-3.64,2.69l-10.85,1L128.71,46.4a3.94,3.94,0,0,0-.6,0c-5.13,0-5.36,9-.17,9l13.39,1.17a2.91,2.91,0,0,0,.6.06,4.48,4.48,0,0,0,.63-.06l26-2.4C173.67,54.13,174,45.05,168.72,45.12Z"/>
  </g>
  <path class="handleOverlapLine" d="M152.94,46.58l10.39-.88"/>
</svg>
