<svg class="presence" xmlns="http://www.w3.org/2000/svg" viewBox="0 0 290.46 400.47">
  <path class="flatYellowDarker" d="M35.17,141.38c-3.71,23.83-7.54,48.88-2,72.7,8.49,36.66,9.65,75,6.29,112.49,11.18-42.69,19.1-89.36,12.45-133.41-2.55-16.83-4.77-33.69-4.7-50.78Z"/>
  <path class="flatYellowMediumDark" d="M39.43,326.57a222.73,222.73,0,0,0,1,55.45c1.8-2.71,2.57-14.48,5.21-14.16,3.32.4,3.29-5.85,4.47-7.27,1-1.25,6.33.16,5.72-2.23a346,346,0,0,1-11.5-51.86Q41.86,316.53,39.43,326.57Z"/>
  <path class="brassDark" d="M108.39,3.7q-2,64.95-2.69,129.92l-87.14-6.48Q19.2,73.07,20.73,19Z"/>
  <path class="brassDarkest" d="M108.39,3.7l150.77,7.5c-3.86,37.87-11.44,82.67-40.48,110.13-30.63,29-75.91,23.79-113,12.29Q106.41,68.66,108.39,3.7Z"/>
  <path class="patinaDark" d="M281.71,9.7q-2,67-2.61,134.1l-95.48,9.9q.48-63.31,2.19-126.6Z"/>
  <path class="patinaDarker" d="M104.67,1,8.75,18.4l12,.59L108.39,3.7l150.77,7.5L171.74,26.41l14.07.69,95.9-17.4Z"/>
  <path class="patinaDarkest" d="M171.74,26.41q-1.52,56-2.08,112L18.56,127.14Q19.2,73.07,20.73,19l-12-.59Q7,78.69,6.44,139l177.18,14.7q.48-63.31,2.19-126.6Z"/>
  <path class="rubberMedium" d="M18.56,127.14C25.61,124,35,114.11,41.7,114.7c2.65.23,5.76,3,8,5.08,2.86-2.67,6.74-7.54,10.27-7.76,1.24-.08,3.59,1.12,5.06,2.4,3.24-4.46,9.17-11.94,14.3-12.29,1.27-.09,4.28,1.14,5.89,2.68,3.64-4.26,10.56-12.25,15.87-12.28,3.36,0,7.59,3.48,9.78,6.49,1.51-2.4,4.11-4.56,5.72-4.52,1.89.06,4.81,1.72,6.57,4,3.63-4.16,10.1-9.95,15-10,4-.07,9.37,4,12.3,7.49,2.5-2.23,6.07-5.43,9.12-5.23,3.45.23,7.76,4,10.63,6.62q-.33,20.55-.53,41.09Z"/>
  <g class="rackDisplayLine">
    <path d="M132,66.7l-79,7.59"/>
    <path d="M151.92,68l-79,7.59"/>
    <path d="M170.71,69.36,93.34,76.79"/>
    <path d="M170.64,72.54,113.32,78"/>
    <path d="M170.58,75.79l-37.29,3.58"/>
    <path d="M170.71,69.36l-58.73-4L33,73"/>
  </g>
  <path class="ironDark" d="M170.41,84.55,24.72,75.12c-4.23-.15-4.34-5.9.11-5.43l145.69,9.2C170.47,81.15,170.45,82.28,170.41,84.55Z"/>
  <g class="steelMediumDark">
    <path d="M211.44,399.47c-6.93-7.78-17.47-11.66-27.24-14.17a202.91,202.91,0,0,0-37.39-5.8q-3.18-114.45-1.67-229l-23.44-2q-.17,14.31-.26,28.6c-.45,67.46-.18,135,1.91,202.42-23,1-46.22,3-63.44,19.94Z"/>
    <path d="M275.47,73.42l-18.58-1.88a5.08,5.08,0,0,0-1.1-.12,6.57,6.57,0,0,0-5.92,4.36l-17.61,1.63L210.55,75.5a6.37,6.37,0,0,0-1-.08c-8.32,0-8.7,14.64-.27,14.53L231,91.86a5.25,5.25,0,0,0,1,.09,5.69,5.69,0,0,0,1-.1L275.2,88C283.52,88,284,73.31,275.47,73.42Z"/>
  </g>
  <path class="handleOverlapLine" d="M249.87,75.78l16.87-1.43"/>
</svg>
