<svg viewBox="0 0 2866.51 2938.77">
    <g class="willy">
        <g class="willyShoe">
            <path d="M1185.36,2658.54c8.42-21.39,23.05-43.91,41-67l166.86,20.1c18.25,60.14,43,113.81,81.75,153.46,15.42,10.73,52.84,22.6,66.62,44.25C1463.59,2920.54,1213.25,2812.1,1185.36,2658.54Z"/>
            <path d="M2232.79,2734.26a295.35,295.35,0,0,1,.78-107.9l168.88-50.26q53.1,46.46,129.33,65c26.52-1.64,53.91,1.85,82.15,10.3C2646.37,2755,2305.28,2824,2232.79,2734.26Z"/>
        </g>
        <g class="soleWhite">
            <path d="M2232.79,2734.26c-.28,17.94-1.45,33.86,11.52,46.83,17.3,23.06,139.87,4.85,229.12.72,77.82-3.6,166.16-29.29,176-87.9,3.34-19.9-15.34-40.35-35.51-42.51-49.71,7.2-85,47.55-102.31,87.9-36.75,20.89-182.48,24.73-229.84,13.37C2263.77,2748.34,2246.48,2738.58,2232.79,2734.26Z"/>
            <path d="M1185.36,2658.54c-11.53,17.15-21.87,32.23-17.84,55.82,7.48,34,73.63,61.12,132.94,113.38,80.37,70.81,215.72,66.64,251,28.2,12-13.13,2.8-36.58-9.81-46.62-28.2-22.44-97.58-8.64-151.93,24.17-44.89-.57-151.91-87.08-181.29-127.76C1200.9,2695.37,1191.69,2685,1185.36,2658.54Z"/>
        </g>
        <g class="shoelace">
            <path d="M2437.21,2602c-19.82,4.64-42.35,17.46-65.59,32.42a375.84,375.84,0,0,0,101.19,40.21c20.39-15.91,40.13-27.65,59-33.51q-52.84-12.82-94.54-39.11Z"/>
            <path d="M1415.29,2672.49v0c-24.23-4.72-49.23-3.2-74.67,1.83,15.7,35.68,41.09,67.53,73.41,96.63a171.52,171.52,0,0,1,61-5.86C1449.89,2739.4,1430.68,2707.86,1415.29,2672.49Z"/>
        </g>
        <path class="willyPants" d="M2120.91,1437.31c10.56,131.21,55.8,190,90.46,369.64,12.86,66.7,40.75,82.82,52.82,176.33,6.44,49.92,30.16,72.39,34.69,123.67,4.32,48.94,37.7,48.26,39.21,131.21,1,53.13,17.82,104.37,22.63,132.73,4,23.51,111.6,66.36,22.62,143.28,60.18,5.42,30.36,35.24,31.67,73.9-28.58,37.25-120.59,54.21-188.52,93.51-18.12-27.37-76.84-41-54.76-70.83,40.12-54.25-18.6-54.37-38.46-66.73-115.06-71.64-92.19-322.06-152.39-384.83-19.17-20-1.69-60.41-20.45-84.35-40-51.12-14.51-62.51-40.89-82.64-16.66-12.71-14.49-83.5-86.06-228.34-5.75,20.29-34.44,50-37.32,79.12-7.68,77.56-93.18,195.54-131.85,310.9-26.71,79.66-69,152.79-113.45,215.25,12.68,76.82-53.89,88.66-62.65,136.49-9.7,53-24.65,57.86-58.18,60.41,3.74,32.07-3.12,58-23.12,75.33-107.4,30.58-150.66-12.68-199.88-30.58-3.37-13.31,3-30.86,11.18-49.22-20.8-37.29-42.53-81-10.44-130.53,61.93-95.54,74.92-208.27,100.69-208.09,73.09-100.69,42.51-137.23,92.49-212.56-13.43-41.77,38-43.26,29.83-76.08-14.17-47.73,33.56-164.08,65.63-527.31Z"/>
        <path class="willyShirt" d="M1755.81,506.89,1969.37,515c56.72,16,102.06,54.39,127,60,17.64,4,49.91-1.5,61.19,35.78,16.64,6.41,36.67-2.69,41.56,46.18,21.75,12.35,49.12,52.48,76.19,85.42,14.2,64.17-68.34,164.31-112,181.24-4.91,1.27-11-7.22-20.52-14,1,24.35,35.64,33.45,15.72,64.52,37.52,157.07,16.1,241.15,3.13,320.36,10.59,24.17-3.24,37-11.5,52.63-23.3,62-15.41,90.57-20.25,105.76-335.71,78.72-473.45-8.77-638.33-34-10.92-230.29-1.66-552.48-60.23-565.64,10.37-37.66,44.78-73.51,61.9-110.46,35-75.57,65.58-136.72,108-162C1651.06,551.07,1705.77,536.77,1755.81,506.89Z"/>
        <g class="skinLatino">
            <path d="M1428.59,1490.66c-16.36-134.35-82.95-250-56.91-436.11,3.53-25.27-8.52-47.57,73-196.16,43.54,23.06,90.75,59.6,173.22,91.34-16.28,43-36.21,83.6-60.41,121.51,14,113.32-35.44,260.64-22.89,407.82,4,46.33,48.37,49.17,41.23,164.15.8,40.44-8.13,70.16,7.93,87.23,1.59,23.79-33.72,19-45.61-6.34-3.12,15-32.55,18.22-42.35,3-12,8.72-38.69,8.17-46.87-12-17.08,3-28.64-3.73-33.78-21.8-17.51,3.06-33.77-58.36-19.4-108.85C1415.75,1514,1430.36,1515.65,1428.59,1490.66Z"/>
            <path d="M2655.56,1131.08c-55.65-27.14-60.37-65.22-81.66-61.74-129.36-21.21-248.12-5.31-334-97.55-16.89-18.15-42.9-34.33-64.77-54.18,41.42-25.36,102.21-102.41,101.76-160.32,35.7,40.37,55.78,70,63.74,82,78.52,6,166.47,116.63,273.56,126.17,13.6-27.06,61.62-35.49,78.58-50.84,22.41-20.28,44.32-27,58.72-44.32,32.13-1.85,21.42,48.38-11.47,61.13-10.26,10.07-20.07,18.59-29.23,24.93,20.18-7.85,37.35,6.52,78.92-9.59,13-5,29.62-5.72,46.25-8.84,29.63-6.24,30.15,27.54-6.23,40-17.15,6.23-42.1,13.51-70.68,28.58,34.3,6.76,49,13.49,94.18,15.07,21.71,2.08,16.51,41.06-30.78,40.54-30.61-2.95-60.51-3.06-82.33-.47,31.68,34.2,59.33,35.71,79.45,55.82,15.59,21.62-15.59,32.69-46.26,13.07-18.48-12.18-44.25-17.59-64.37-27.65-6,9.33,11.65,41.28,19.47,53,13,15.84,20.94,31.72,5.87,37.82-16.59,6.71-30.64-6.52-39.77-20.87C2680.46,1153.07,2673.82,1151.3,2655.56,1131.08Z"/>
            <path d="M1787.13,435.75c-3.89,28.34-12.36,53.44-31.32,71.14,8.81,54.27,99.65,89.64,218.63,113,45-38.29,47-73.51-5.07-104.87l-3-18.13"/>
        </g>
    </g>
    <g class="christopher">
        <g class="sockWhite">
            <path d="M884.37,2763.38c-1.9-12.64-7.65-18.06-6.32-28.31,18.76-1.24,69.64-16.15,84.69-27.65,10.07,11,8,29.8,19.21,43.93C956.3,2788.57,902.25,2783.61,884.37,2763.38Z"/>
            <path d="M641.34,2689.08c6.34-10.28,4.84-22.89,15.3-34.09,11.57,13.73,60.1,32,79.39,30.32-1.56,16.46-12.67,25.47-15.84,41.75C678.91,2727.49,651.39,2715.9,641.34,2689.08Z"/>
        </g>
        <g class="soleWhite">
            <path d="M1124.31,2800.13c25.3,35.25-46.67,66.38-83.15,68.69-52.42,3.31-99.4,19.25-130.88,19.58-19.5.2-22.91-16.37-25.76-34.35C983.74,2817.19,1080.92,2785.14,1124.31,2800.13Z"/>
            <path d="M840.47,2829.16c18.37,38-71.2,44.33-98.82,41-44.58-5.42-147.95-61.44-152.13-78.32-3.47-14,.33-26.18,7.83-37.36C699.87,2779.16,804.38,2803.85,840.47,2829.16Z"/>
        </g>
        <g class="christopherShoe">
            <path d="M948.1,2774c7.16-18.1,17.85-29.09,35.82-25.34,24.85,21.28,50.93,36.61,78.93,33.74,23.5-2.41,51.76.36,61.46,17.77-16-.9-42.78,14.62-53,34.5-15.61,13.67-36.78,16.71-54.53,18.23-52.51,4.49-94.13,25.9-132.24,1.19-8.68-31-9.94-63.19-.15-90.67C896.72,2771.21,930,2763.08,948.1,2774Z"/>
            <path d="M692.85,2721.31c10.24-10.24,31.11-10.92,36.75,0,43.76,84.75,96.1,67.79,110.87,107.85-21.69-9.64-58,.91-76.68,23.5-65.52,4.22-144.14-49.4-166.44-98.21,11-28.59,24.82-51.87,44-65.37C661.52,2714.08,684.42,2708.66,692.85,2721.31Z"/>
        </g>
        <g class="christopherStrap">
            <path d="M1003.8,2764c-19,9.84-35,22.84-44.69,40.93-4,7.46,16.56,18,25.12,10.82-4.63,7.73,26.4,14.14,32.08,5.79,11.18-16.4,26.93-29.3,46.54-39.13C1042.22,2784.47,1022.63,2776.7,1003.8,2764Z"/>
            <path d="M684.64,2754.51c9.36,17.46,27.38,32.92,49.08,47.54,16-9.16,39-13.67,58.47-12.17,6.24.48-7.78-16.7-29.11-21.83,2.47-6.61-11.89-22.38-19.89-23.84C721.44,2740.24,701.76,2744,684.64,2754.51Z"/>
        </g>
        <path class="christopherShortsInner" d="M682,2273.37c-6.23-18.3,19.24-26.58,26.25-1.11C696.07,2274.88,684.14,2277.35,682,2273.37Z"/>
        <path class="christopherShorts" d="M992.8,1942.77c2.88,28.86,14.4,37.1,5.51,62.1-8.46,23.76,12.68,45.31-24.84,230-4.81,9.62-57.72,18.28-77.92,11.54-3.91-18.41-7.48-37.39-12.51-51-35.59-6.73-201.06,58.69-201.06,77.93-31-59.75-53.87-163.64-58.68-226.18-1.06-13.73-12.51-18,1-33.4,3.85-19.24-14.43-31.75,4.81-45.22.77-11.69,4.12-17.21,9.62-27.19C759.08,1946.14,877.27,1946.88,992.8,1942.77Z"/>
        <path class="christopherWaistband" d="M992.8,1942.77c3.85-7.83-.75-24.13-.63-37.84l-349.51-3.88c-2.34,17-8.3,30.8-4,40.33C759.08,1946.14,877.27,1946.88,992.8,1942.77Z"/>
        <path class="christopherShirt" d="M1073.34,1519.22c9.62,38.12-40.12,94.27-74.5,90.37-4.78,52.59-7.31,74.66-6.9,110.81,1.06,93.14,19,103.72,3.2,132.15,8,12,11,24.63-3.67,39.76,5.9,5,.93,14.27,5.51,23.86C927,1935,699,1935.46,636.1,1903.32c12.26-44.37,2.13-96.66,18.2-132.12-84-52.51-88.22-139.26-51.86-243.44,14-44.37,14-98.1,56.08-123,20.81-12.33,52.84-12.8,90.87-26.74l140.77,2.12C1010.82,1405.52,1016.28,1463.14,1073.34,1519.22Z"/>
    </g>
    <g class="preteenBennett">
        <g class="soleWhite">
            <path d="M466,2783.08c18.25,9,28.37,29.42,21.28,58-21.28,33.37-113.52,37.81-159.45,11.7l8.23-33.56C350.81,2752.93,425.34,2744.88,466,2783.08Z"/>
            <path d="M164.48,2842.28c-3.37,11.68-4,23.28-1.23,34.79,10.67,20.34,46.32,25.13,70.72,40.68,54.67,34.82,147.59,18.85,159-7.18,8.32-24-.6-50.94-25-65.19C333.37,2822.35,254.88,2825.15,164.48,2842.28Z"/>
        </g>
        <g class="bennettShoe">
            <path d="M441.11,2578.59c6,31.8,1.75,65.51,4.11,102,1.82,28.11,8.29,72.76,20.8,102.48-32-16-106.06-9-129.94,36.15-29.41-57.55-39.92-110.32-39-171.44,9.31-52.28,32.07-52,49.83-91.86Z"/>
            <path d="M185.12,2673.56c-1.67,119.25-20.06,113.63-20.64,168.72,15.07,30.1,61.26,39.12,90.85,53.76,7.41-43.71,74.5-68.83,112.6-50.66-48.73-45.28-60.55-112-55.8-185Z"/>
        </g>
        <g class="shoelace">
            <path d="M429.67,2646.79a329.12,329.12,0,0,1-67.59-3.9c-1.79,27.69.52,69.85,6.69,100.68,22.7-3.08,43.3-5,63.5-2.12C427.91,2710.68,428.71,2682.45,429.67,2646.79Z"/>
            <path d="M309.15,2740.73c-22.12-1.93-50.07-.82-64.06,4.38,2,23.46,10.85,53.3,22.37,81.21,17.14-6.59,46.25-7.66,69.1-6C322.31,2796.4,313.27,2769.49,309.15,2740.73Z"/>
        </g>
        <path class="converseLogo" d="M304.07,2705.37c12.92,17.1,38.77-43.07,24.35-59.91C316,2631,291.25,2688.39,304.07,2705.37Z"/>
        <path class="bennettJeans" d="M541.27,1681.86c3.2,58.74,16.92,70.55,15.45,106.72-3.41,84.16,9.31,169.86-12.7,310.83-8.46,54.18,31.06,100.12-17.79,144,3.8,18.42,21.07,39.45-7.62,60.14-8.52,50.57-20.56,114.29-31.34,163.06-9.15,41.37,24,56.6-18.63,86.39,8.05,33.69-3.27,45-37,52.8,1.31-28.06-66.79-31.24-68.1-3.18-6.43-13.35-37.65-14-47-37.77-7.43,49.64,22.18,81.65,1.57,94.67-16.7,10.55,27.5,34.59-12.81,52.45-2.4-23.27-58.92-17.58-62.79,1.6-11.21,15.53-53.25,14.66-62.76,34.18-18.47-35.63-46-33.08-13.87-72-35.17-21-.19-50.24-3.75-82.88-8-73.46-9.67-161-5.4-241.89,1.55-29.38-22.54-48.85,2-70.57-33-16.44-5.61-46.3-20.91-99.31-45.51-157.67-52.27-366-12.4-501.3Z"/>
        <path class="shirtWhite" d="M536,1503.52c-6.11,47.48,19.58,44.73.38,64.15-4.18,24.3,15.65,43.43,2.1,66.42,6.93,18.32.64,38.67,9.49,61.16-30.57,8.43-87.51,60.1-165.53,62.21-128.66,3.47-185.57-29.53-265.71-71.7C-182,1082,700.32,676.33,536,1503.52Z"/>
        <path class="bennettSleeves" d="M133.81,1498c-6.37,13.34-121.76,15.31-130.11,2.75,3.1-27.43-8.5-116.6,1.37-169.5-6.6-21.84,19.43-183.9,46.51-234.92,35.22-66.34,148-78,206.83-108.66L408.67,995c75.42,35.77,144.12,44.3,168.38,105.92,13.14,33.4,21.42,67.43,12.77,110.3,3.62,39.19,13.1,58.13,1.18,98,8.48,40.14,25.89,54,13.74,83.38,6.71,8.67,8,18.67,2.75,30.23,13,41.27-6,30.12,6.42,72.38-13.77,6.91-60.32,11.5-77.88,8.25-2.77-15.1,2.67-28.5-.92-46.73,13.89-34.59.58-43.44,4.06-60.82,5.24-26.22-5.91-43.27-4.59-74.08,1.76-41.48,4.66-88.05.27-137.22-7.84-49.13-60.59-71.93-101.9-109.3-39.33,34.75-135,34.1-179,3.94-40.66,43.25-82.92,70.79-108.64,97,.66,52.45-16.8,98.4-17,162.59-2.63,17.71,3.17,38.5-2.63,49.18-1.31,29.5,14.27,51.14,2.43,68.18C130.06,1475.3,129.4,1487.76,133.81,1498Z"/>
    </g>
    <g class="clothesDisplayLine">
        <path d="M1901.07,1481.69c-3.64,29.11,23.15,67-3.71,119.55-23.87,46.71-10.89,65-47.48,102-23.15,23.34-9,45.66-16.4,60.67"/>
        <path d="M424.88,1751.46c5.58,13.92-8.92,19.77-5.4,40.08,7.39,42.69-13.4,79.89-60.43,77,11.87-11,1.31-24.82,8.89-42.14,6.64-15.2-6.36-32.61-.78-41.07,6.34-9.6,7.45-19.77,3.48-27.57"/>
        <path d="M245.69,1743c-24.14,14.72-55.06,25.86-92.58,23.41"/>
        <path d="M493.22,1723.35c15.25,15.27,32,28.55,50.32,36"/>
        <path d="M350.58,2826.05c42.2,13.9,127.62,6.84,135.16-21.3"/>
        <path d="M255.33,2896c44.3,19,112.4,9.12,139.71-13.4"/>
    </g>
    <g class="clothesOverlapLine">
        <path d="M983.06,1503.29c11.36,31.07,18.25,71.44,15.78,106.3"/>
        <path d="M698.89,1532.66c.86,25.46-4.09,44.17-8.58,62.62-3.4,13.94-4.27,39-12.35,36.36"/>
        <path d="M2131.83,743.89c17.28,63.45,7.26,135.56,11,165.76"/>
        <path d="M1617.85,949.73c7,1,13.18,2,16.13-3.05,38.5-66.78,81.92-138.28,91.25-191.64"/>
        <path d="M1463,2751.8c-18.7-1.32-40.75.28-63.54,5.3"/>
        <path d="M1452.64,2738.7c-20.58-2.87-43.2-.6-66,5"/>
        <path d="M1443.36,2725.31c-18.43-2.48-43-1-68.74,4.27"/>
        <path d="M1434.19,2710.33c-19-4.59-45.88-3.21-71.39,3.39"/>
        <path d="M1425,2693.16c-14.89-6.37-44.9-5.09-74.3,1.18"/>
        <path d="M2511.87,2635.67a208.08,208.08,0,0,0-57,34.24"/>
        <path d="M2494.73,2630q-31.86,13.82-55.2,35.15"/>
        <path d="M2477.12,2623c-21.51,10.22-40.38,21.85-55,35.79"/>
        <path d="M2461,2615.39c-20.34,8.4-39.66,20.44-58.26,35"/>
        <path d="M2447.79,2608.32c-19.55,7.45-39.83,19.79-60.47,34.61"/>
        <path d="M359.05,1868.49c-10.49,118.25-.49,226.88-13.22,285.34-11.05,50.68,11.26,102.85-17.63,124.77,11.3,11.53,17.67,24.82,4.41,45.17,7.67,37.82-13.49,151.94-16,241.1"/>
        <path d="M429.2,2665.43a286.82,286.82,0,0,1-67.71-2.43"/>
        <path d="M428.92,2684.77c-21.22-.12-43.65-1.09-67-2.13"/>
        <path d="M429.2,2705.16c-20.3-1.45-42.52-1.73-65.88-1.34"/>
        <path d="M430.24,2723.22c-21.1-3.14-42.74-2.81-64.8,0"/>
        <path d="M363.54,2602.64c6.5,12-1.45,19.62-1.46,40.25"/>
        <path d="M431.64,2605.82c3.3,13.36-1.54,23.44-2,41"/>
        <path d="M247.62,2762.88c26.15-5,41.82-5.07,64.71-4.52"/>
        <path d="M251.52,2779.79c26.26-5.63,42.07-5.6,65.28-4.38"/>
        <path d="M256.15,2795.52c25.82-6.5,41.48-6.79,65.79-5.27"/>
        <path d="M261.45,2810.91c25-7.57,40.81-7.61,66.57-6.55"/>
        <path d="M242.55,2713.59c3.25,5.94,1.76,22.06,2.54,31.52"/>
        <path d="M305.34,2712c2.75,6.46.24,19.51,3.81,28.74"/>
        <path d="M937.71,2035.81c-14.85,28.17-46.12,49.56-71.58,62-2.76-20.65-41.45-83.53-59.89-79.85"/>
        <path d="M866.13,2097.76c2.06,27.53,28.22,92.29,16.91,97.68"/>
        <path d="M948.1,2774c8.23,3.18,14.53,9.81,20.58,16.88"/>
        <path d="M692.85,2721.31c4.35,6.31,6.77,15.22,10.48,24.75"/>
    </g>
    <g class="clothesBorderLine">
        <path d="M706.92,2781.51c12-9.16,40.06-13.5,56.16-13.46"/>
        <path d="M1027.37,2776.78a91.35,91.35,0,0,0-43.14,38.92"/>
    </g>
    <g class="clothesFoldLine">
        <path d="M1003,1489c.54,25-2,44.74-8.17,58.28"/>
        <path d="M1012.52,1536.55c6.06,20.64,8.29,39.07,5,54.31"/>
        <path d="M672.66,1456.48c-2.67,29,2.64,58,16.79,86.79"/>
        <path d="M635.14,1501.28c1.89,25.59,8.6,51.37,18.48,77.26"/>
        <path d="M632.34,1554.47c1.24,12.91,4,23.53,9,30.79"/>
        <path d="M719.69,1495.12q-6.41,27.2-20.8,37.54c14.08-50.42-8.88-68.9-9.44-24.66"/>
        <path d="M738.73,1638.46c2.37,29.4,7.42,54.94,16.23,75"/>
        <path d="M721.37,1686.05c7.5,40,17.34,75.79,31.91,103"/>
        <path d="M947,1714q-8.46,44.16-34.71,86.79"/>
        <path d="M972.77,1711.8c-2.54,16.44-6.79,32.32-14.56,47"/>
        <path d="M672.1,1828.83c31.93,25.42,69.35,42.55,111.42,52.63"/>
        <path d="M977.81,1824.35c-16.66,31-46.71,52.47-94.07,61.59"/>
        <path d="M995.14,1852.55c-4.45,6.51-12.29,9.87-15.09,24.43"/>
        <path d="M991.47,1892.31a73.24,73.24,0,0,1-40,9.3"/>
        <path d="M898.86,1911.69A336.53,336.53,0,0,1,779.6,1910"/>
        <path d="M655.86,1854c39.19,39.75,143.9,46.47,21.84,42.55"/>
        <path d="M1539,1310.41c71.16,26.71,90.75,52.71-4.14,45.25"/>
        <path d="M1541.86,1286.59c70.46,43.76,162.72,33.79,224.35-8.25"/>
        <path d="M1781.17,1307.55c-62.66,20.17-120.05,44.87-168.49,77.3"/>
        <path d="M1800.05,1340.33c-24.94,8.9-54.86,54.14-68.75,70.88"/>
        <path d="M1799.34,1364.9c-10.44,12.57-18.43,25.91-22.09,40.61"/>
        <path d="M1879.39,1402.88c50-28.28,97-32.34,140.3-7.2"/>
        <path d="M2117.55,1295c13.7,12.26,20.89,27.62,20.14,46.77"/>
        <path d="M2133.38,1250.34c8.63,25.9,20.14,26.62,28.26,44.19"/>
        <path d="M1668.57,940.23c33.76,14.61,65.33,32.39,94.25,54"/>
        <path d="M1673.72,877.3c25.07,35.59,56,64.37,107.45,89.91"/>
        <path d="M1633.31,731.57c-11,49.43-15.34,98.17-11.51,146.06"/>
        <path d="M1558.48,691.28a458.08,458.08,0,0,1-82,107.92"/>
        <path d="M1692.31,664.66c9.36,32.37,38.43,96.94,5,87.06"/>
        <path d="M1721.09,654.58c7.92,48.93,1.74,74.29,5.37,80.53,8,13.75,26.29-63.26,14.78-132.33"/>
        <path d="M1770,647.39c-4,45.73-10.61,86.41-30.94,99.29"/>
        <path d="M1790.89,824.39c56.08,8.65,145.34,6.47,216.57,8.63"/>
        <path d="M2085.17,849.57c-81.53,5.53-157.61,8.52-224.49,7.2"/>
        <path d="M2157.54,610.78c11.09,36.61,11.81,116.47,23.32,60.35"/>
        <path d="M2199.1,657c2.83,38.41-1,71.62-6.72,103.39"/>
        <path d="M2093.8,648.11c15.77,33.17,22.22,59.92,20.87,81.3"/>
        <path d="M2139.85,735.89c10.79-57.56-1.21-119.86-21.58-105.09-13.95,10.11,24.52,26.16,13.56,113.09"/>
        <path d="M2383.34,2514.17c-31.63,23.51-64.39,55.11,4.52,36.37"/>
        <path d="M2311.54,2306.32c-22.73,123.51-54.62,208.87-145.4,152.63"/>
        <path d="M2225.59,2599.54c149.89-79.37-39.37-49.31-81.14-64.64"/>
        <path d="M2381.44,2577.85c-47.88,31.26-103.24,42.46-164.69,49-13.19,1.41-12,8.94-3.21,17.68"/>
        <path d="M2211.56,1911.43c-7.46,55.66-67.63,13-130.2-34.11"/>
        <path d="M2197.61,2099c32.55,58.9,85,125.69,114.7,93"/>
        <path d="M2073.61,2050.93c33-25.13,85.25,55.8,128.65,139.5"/>
        <path d="M1960.43,2074.84c18.61,18.21,33.12,36.55,35.19,55.29"/>
        <path d="M1576.93,1744.3c6.82,53.1,12.48,94.4,19.31,133"/>
        <path d="M1547.61,1801.17c11.48,65.28,24.13,125.26,38.39,177.86"/>
        <path d="M1493.87,1989.27c16.64-25.59-35.83-15.35-62.7,5.12"/>
        <path d="M1522,2045.57c102.37-57.24,53.74,16.64-89.57,129.24"/>
        <path d="M1525.86,2405.14c-27.28,24.48-47.22-5.3-66.54-39.67"/>
        <path d="M1293,2304.05c57.65,1.64,87.7,61.7,108.77,140.76"/>
        <path d="M1308.46,2222.94c12-.85,27.74-10.59,45.4-24.93"/>
        <path d="M1415.65,2476.57c32.63,40.81,28.95,62.1-32.47,52.36"/>
        <path d="M1218.21,2561.56c6.84,12.4,33,19.73,37.21,45.91"/>
        <path d="M1430,2566c-64.65,2.69-144-19.29-151.57-5.68-11.13,20,57.6,41.89,99.49,41.89"/>
        <path d="M1929.8,1655c34.29,1.85,78.56-2.77,111.21.92"/>
        <path d="M1822.29,1622.56c-56.58-15.11-110.24-23.16-159.4-20.39"/>
        <path d="M1826,1649.44c-31.51,1.73-64.8,10.35-99.17,23.16"/>
        <path d="M1901.07,1628.12c34.29-38.93,98.31-86.53,110.28-75.07,6.9,6.6-46.22,39.39-82.48,66.73"/>
        <path d="M1858,1694.39c18.46,21.46,70.2,54.88,110,89.34"/>
        <path d="M108.14,1475.76c-88.69-.47-93.15-13.12-69.71-18.7,23.62-5.62,56.18,7.82,89.66-.77"/>
        <path d="M23,1409.44c25,29.49,53.28,40.23,84.46,33.48"/>
        <path d="M5.07,1331.27c7.1,21.67,19.31,36.54,35.75,45.79"/>
        <path d="M32.63,1349.16c5,11.29,13.5,19.59,23.82,26.42"/>
        <path d="M57.94,1264.7c6,21.58,31.25,84.83,50.6,109"/>
        <path d="M52.36,1196.61C54,1240.25,79.14,1277.35,101.1,1322"/>
        <path d="M101.47,1209.26c10.14,13.46,18.13,27.25,22,41.67"/>
        <path d="M98.49,1163.86c13.77,34.23,29.06,47.09,34.61,70.33"/>
        <path d="M81.38,1108.8c24.18,28.27,39.81,66.23,64,67.54-16-86.52-73-101.2-33.07-44.1"/>
        <path d="M142.77,1074.19c4.09,11.54,9.3,39.44,8.56,56.19"/>
        <path d="M201.93,1151.21c-15.63,8.19-33.15,8.56-40.56,20.47"/>
        <path d="M185.19,1179.12c-14.14,7.07-31.73,12.34-40.79,22"/>
        <path d="M462.6,1301.9c-68.65,15.36-139.78,17.26-213.2,6.7"/>
        <path d="M361.77,1333.16c-55.33-.58-107-4.28-152.18-13.4"/>
        <path d="M125.72,1570.91c16.28,7.68,35,11,54.84,12.29"/>
        <path d="M124.39,1588.41c37.06,14.13,88.48,18.82,144,20.83"/>
        <path d="M120.85,1633.79c17.79,8.53,40.26,13.83,64.55,17.87"/>
        <path d="M119.59,1654.62c29.27,16.35,64.3,26.81,102.27,34.25"/>
        <path d="M270.61,1710.45c74.39,13.21,167.8,6.32,217.66-19.72"/>
        <path d="M488.27,1634.54c-41.36,14-83.8,17.85-127.25,12.28"/>
        <path d="M538.51,1634.09c-22.33,20.55-94.14,37.66-119.07,33.94"/>
        <path d="M513.57,1563.48c-13.76,9.3-42.78,19.34-69.2,19"/>
        <path d="M536.41,1567.67c-18.37,19.25-55.21,21.48-73.44,33.39"/>
        <path d="M371.07,1527.38c-35-.37-113.11,7.07-148.83-8.55"/>
        <path d="M295.91,1541.9c37.21.74,75.49,3.24,110.13-2.61"/>
        <path d="M428,1471.57a342.18,342.18,0,0,0,85.2-17.49"/>
        <path d="M535.11,1456.79c-19.77,13.78-42.94,21.36-69.16,23.34"/>
        <path d="M588,1478.64c-48.37-4.46,13-10,23.29-21.85"/>
        <path d="M607.49,1422.89c-14.12,8.27-29.18,13.06-45.55,13"/>
        <path d="M569.76,1388.6c-11.1,7.24-21.44,10.43-30.59,7.37"/>
        <path d="M604.74,1392.66C591,1408,548.92,1413.53,588,1416.13"/>
        <path d="M591,1309.28c-4.15,12-8.5,20.46-13.06,25.37"/>
        <path d="M580.92,1276.23c-7.82,26.58-17,45.18-28.65,50.23"/>
        <path d="M578.69,1196.23c-4.09,15.63-22,43.54-39.22,43.55"/>
        <path d="M589.82,1211.24c-8.77,18.88-23.55,34.09-43.13,46.39"/>
        <path d="M534.85,1184.67c-18.12-24.41-37-41.53-57-49.09"/>
        <path d="M552.64,1113.26c.39,26-1,50.17-11.53,64.74"/>
        <path d="M532.16,1173.05c10.32-34,8.43-84.81-1.1-85.84-13.76-1.48-.07,25.31,1.49,58.42"/>
        <path d="M474.72,1859.51c-22.62,4-46.47,11.22-71.8,22.36"/>
        <path d="M449.66,1917.77c-14.59-5.15-28.84-8-42.68-8.13"/>
        <path d="M332.47,1888c-52.83-20.32-18.29-29.12,19-14.9"/>
        <path d="M323,1900.16c-43.93-21.26-89.15-26.09-135.48-16.94"/>
        <path d="M232.22,1898.8a227.17,227.17,0,0,0-52.16,7.45"/>
        <path d="M322.31,1915.06a290.08,290.08,0,0,0-58.25,23.71"/>
        <path d="M524.17,2196.38c-10.77,16.11-23.36,28.64-40,33.19"/>
        <path d="M415.1,2234.31c-19.52-4.41-36.83-12.29-50.13-26.41"/>
        <path d="M526.23,2243.43c-9.58,6.5-17.77,13.45-12.9,24.75"/>
        <path d="M518.61,2303.57a45.59,45.59,0,0,1-29.66,9.32"/>
        <path d="M312.83,2247.86c-27.77,26.42-75.12,27.16-126-5.42"/>
        <path d="M158.73,2280.43c34.88,8.75,97.88-.06,71.46,25"/>
        <path d="M328.2,2278.6c-28.24,11.26-85.14,12.61-10.63,33.61"/>
        <path d="M268.8,2331.18c-31-4-59.32-1.7-84,9.48"/>
        <path d="M332.61,2323.77c-3.11,4.87-17.07,10.79-26.56,6.05"/>
        <path d="M342.75,2219.1c8.69,24.33,62.09,33.08,23.37,53.15"/>
        <path d="M290.82,2637.79q-52.17,20.73-104-5.41"/>
        <path d="M165.92,2675.77c31.08,13.51,104.22,4.22,44.62,30.44"/>
        <path d="M318.15,2659.54c-33.09,19.57-115.06,14.83-22.93,27.7"/>
        <path d="M468.64,2553a74.42,74.42,0,0,1-48.11,8.23"/>
        <path d="M381.92,2561.93c-28.16-4-52.48-12.06-63.35-34.57"/>
        <path d="M389.37,2318.31c47.55-8.11,57.38,48.66,42.68,135.24-3.16,18.57-61.71,31.25-56.23,46.06,4,10.9,41.23,25.75,29.81,30.48-18.67,7.74-30.48,12.87-50.13,0"/>
        <path d="M463.88,2352.85c-14.22,87.38-2.46,114.75-17.61,123.73-14.93,8.84-51.69,18.62-39.29,26.42,18,11.32,49.8,41.59,60.29,23"/>
        <path d="M889.56,1945.17c8.35,16.41,4.05,42,6.33,66.65,5.24,56.63-20,65.16-29.76,85.94"/>
        <path d="M938.08,2117.22c-18.36-10.41-36.21-17.09-53.34-18.55"/>
        <path d="M962,2041.47c-12,12.08-25,23.13-40.19,31.69"/>
        <path d="M806.24,2017.91c-18.12,8.1,16.23,13.23,34,47.24"/>
        <path d="M847.27,2081.37c-34.14-30.17-95.95-50.26-121.85-47.72"/>
        <path d="M789.9,2063.6c-35.54-13.44-70.2-14-104.08-3"/>
        <path d="M624.26,2013.79c12.82-7,28.56-6.41,43.79-1"/>
        <path d="M629.07,1968.57c34.92-9,95.84,5.67,142.55,34.61"/>
        <path d="M638.6,1985.41c22.23-2.78,46.63,2.15,72.61,12.7"/>
        <path d="M936.63,1993.54c-22.17-1.43-43.19-1.5-62.45.5"/>
        <path d="M983.89,1943.08c2.49,9.44,3.89,20.19,2.5,28.62"/>
        <path d="M974.14,1943.39c1.59,4.93,2.13,10.58,1.08,15.11"/>
        <path d="M903.24,1945c2.82,8,3.49,14.81,1.92,22.65"/>
        <path d="M871.2,1945.42c2.78,6.14,3.48,10.83.95,16.13"/>
        <path d="M855.93,1945.42c2.5,9.74,2.71,17.6.48,25.78"/>
        <path d="M664.52,1942.34c-1.79,7.31-2.1,14.73-.53,20.22"/>
        <path d="M649.44,1941.79a29.51,29.51,0,0,0-1.7,13.16"/>
    </g>
    <g class="eye">
        <rect class="sclera" x="253.98" y="707.53" width="277.66" height="71.94" transform="translate(785.62 1487) rotate(180)"/>
        <g class="irisDarkBrown">
            <ellipse cx="469.67" cy="740.22" rx="19.87" ry="20.4"/>
            <ellipse cx="312.89" cy="740.22" rx="19.87" ry="20.4"/>
        </g>
        <g class="pupil">
            <ellipse cx="469.67" cy="740.22" rx="7.73" ry="7.93"/>
            <ellipse cx="312.89" cy="740.22" rx="7.73" ry="7.93"/>
        </g>
    </g>
    <g class="skinEastAsian">
        <path d="M895.55,2246.43l-146.46,114c-61.82,70.19-51.08,183.46-90.16,296.9,13.74,12.57,53.67,27.6,73.54,28.06,51-87.51,140.71-251.3,209.91-438.94C925.52,2249.27,906.08,2249.94,895.55,2246.43Z"/>
        <path d="M920.28,2415.92c-11.26-47.58,4.1-21.39-24.73-169.49-3.91-18.41-7.48-37.39-12.51-51-29.53-5.58-148.42,38.48-188.09,64.65,38.51,87.33,80,171.68,86.13,206.36,18.95,107.06,64.47,157.08,99.35,268.4,19.33-2.12,64.32-15.27,80.42-26.09-15-82.63-20.77-157.37-33.3-213.58C923.11,2475.26,927.68,2447.2,920.28,2415.92Z"/>
        <path d="M759.64,1339.77,749.39,1378c25,87.91,187.79,73.12,140.77,2.12l9.64-45"/>
        <path d="M1354.48,1670.05c-97.89,4.28-166,17.82-263.78-8.45-27.89-11.5-53.57-31.67-77.42-53.54,29.57-8.75,62.52-48.36,61.23-80.51,6.92,5.44,19,12.77,26.65,20.69,55.33,8,142.86,60.46,229.92,58.8,22.28-22.21,11-42.47,53.94-58,36.42-13.21,34.25,1.13,59.29,7,11.6,5.24-.38,35.93-36.53,21.18-5.44-.48-8.34,3-11.37,4.68-9.44,31.24-7.07,71.13,1.42,92.53C1384.89,1677.41,1366.15,1669.27,1354.48,1670.05Z"/>
        <path d="M595.05,1614.57c20.32,1.63,62.59,10.57,82.91,17.07.28,31.38-14.63,61.78-13.82,94.29.47,37.73-14.13,80.06-28.3,106.9,14.13,17.19,15.89,43.19-9.69,38.54C564.85,1806.89,574,1713.2,595.05,1614.57Z"/>
        <path d="M626,1863.72c-6.51-57.47-30-81.19-32.59-114.57-4.23-70.42,20.09-170.77,13.12-251.16-18.66,5.31-55.31,8.33-70.45,5.53-6.11,47.48,19.58,44.73.38,64.15-4.18,24.3,15.65,43.43,2.1,66.42,6.93,18.32.64,38.67,9.49,61.16a58.41,58.41,0,0,0-5.58,1.89c4.48,45.87,15.63,58.64,14.3,91.44-2.32,57.09,2.79,114.91-.56,190.19a87.34,87.34,0,0,0,27.33-21.66c16.21-4.93,22.62-9.42,28.9-33.13C618,1887.32,628.1,1882.74,626,1863.72Z"/>
        <path d="M445.34,913.07c-18.3,31.24-20.64,64.79-19,98.93,35.65,76.49-199,78.72-188.64-4.46,12.35-25.35,10.76-65.21-1.53-116.22"/>
        <path d="M46.21,1740.7C42.6,1675,5.22,1612.26,8.6,1503.88c20.8,7.83,96.06,6.76,118.87-1.67,3.32,74.28-16.39,157.43-5.61,246.52C124.8,1764,145.62,1780,154,1825.16c7.09,38.31-4.35,55-1.28,79.23,2.31,18.16-3.25,20.93,0,36.28-3.17,14.25-33.48,8.37-29.76-26.51.61-5.73-3.08-11.67-2.56-18.91-14.18,11.93-3.95,39.84-10.93,54.25,4.1,6.73,6.63,13.65,6.51,20.93,29.77,2.32,21.86,36.74,7,32.09-19.07-6.51-26.51-2.33-36.27-21.4-13-2.79-31.16-10.23-40.93-28.83-10.69-.93-21.85-4.65-24.18-20.92-18.13-20.47-10.23-61.85-5.65-90.95C31.33,1766.28,45.58,1767.84,46.21,1740.7Z"/>
        <path d="M588.62,1872.42c13.66-4.14,11.29-24.44,1.06-28.07-8.57-3-20.25-2.58-33.47-3.57.41,33.18,1.64,68.18.89,108,18.71.36,25.39-10,21.33-20.39,20.22-.12,22.53-20.9,12.63-25.51C610.19,1898.57,606.85,1874.74,588.62,1872.42Z"/>
        <path d="M474.67,954.93c-24.39,21.75-31.73,39.77-78.11,43.34-39.92,3.07-37.43-3.59-91.6-26.74-59.88-25.59-101.85-70-118.63-129.45-23.29,15.44-31.16-6.84-38.45-19.23C140,809.5,107.3,755.76,132.66,716.09,114.66,588,343.33,366.1,540,574.26c-21.62,81.36,9.27,64.47-5.35,156.59C530.74,755.48,565.81,873.64,474.67,954.93ZM359.37,744.35c-7.15-12.93-19.5-22-35.52-21.33-15.85.67-31.47,8.31-42.76,18.44a67.2,67.2,0,0,0,37,13c11.59.69,20-3.93,35.32-6C356.28,748.12,362.44,749.89,359.37,744.35Zm88.13,3.78c19.67,8.77,49.78,7,64.54-7.74-9.71-5.54-16.47-17.08-39.08-16.88-13.33.12-21.1,5.76-32.43,19.49C436.07,748.4,444.83,746.94,447.5,748.13Z"/>
    </g>
    <g class="head52">
        <rect class="sclera" x="1930.65" y="178.89" width="224.48" height="76.34" transform="translate(4085.78 434.13) rotate(180)"/>
        <g class="irisBrown">
            <ellipse cx="1988.03" cy="212.87" rx="18.12" ry="23.4"/>
            <ellipse cx="2123.5" cy="212.87" rx="17.34" ry="23.4"/>
        </g>
        <g class="pupil">
            <ellipse cx="1991.46" cy="212.87" rx="7.05" ry="9.1"/>
            <ellipse cx="2127.29" cy="212.87" rx="6.74" ry="9.1"/>
        </g>
        <g class="skinLatino">
            <path d="M1815.85,58.49c41.59-23.57,72-57.7,132.37-57.49,103.3.37,127.1,86.56,188.34,126.07,30.32,19.57,18.1,52.3,23.46,80.46,4.7,42.24,48.95,122-6.32,214.53-43.29,168.32-360.43,97.24-363.45-78-35.2,22.36-37.93-2.07-60.86-18.37C1686.81,295.43,1686,225,1719.83,206,1748.08,146.26,1791.88,76.89,1815.85,58.49Zm199.63,153.67c-14-10.52-17.33-12.51-29.24-12.89-18.2-.6-36.59,12.06-49.54,19.3,14.33-5.26,26.25-2.69,40.64-2.69,11.52,0,19.38-3.36,33.42-.62C2014.27,215.94,2020.39,215.86,2015.48,212.16Zm73.41,2.41c10.67-2,17.73.35,32,1.24,6.7.42,11-.68,19.8.45,1.2-2.39,1.43-7.18.77-9.76-3.67-4.71-11.28-8-19.79-7.37-16.5,1.16-23.11,6.31-36.82,11.82C2081.71,212.21,2084.56,215.4,2088.89,214.57Z"/>
        </g>
        <path class="lipMaleBrown__noStroke" d="M2052.39,364.4c9.87,2.6,22.1,3.24,31.29,1,11.83,4.13,27.15,1.43,31.14,15.22-12.23,14.9,5.32,66.05-54.62,71.89-62.58,6.09-61.62-49.55-84.48-62.59C2017.78,359.39,2037.11,367.38,2052.39,364.4Z"/>
        <path class="mouthInner" d="M2030.29,422c32.29,8.87,66.32-.59,81.37-44.71-16.85-12.12-17.9-3.86-41.62-3.6-24.25.25-30.71-17.8-85.92,12.64C1999.09,400,2006.57,415.52,2030.29,422Z"/>
        <path class="tongue" d="M2074.55,389.1c-30.58-11.41-53.33-14.71-69-13.25a222.31,222.31,0,0,0-21.48,10.52c15,13.67,22.45,29.15,46.17,35.67,20.49,5.63,41.67,3.87,58.27-9.43C2090.37,400.3,2083.34,390,2074.55,389.1Z"/>
        <path class="teeth" d="M2101,371.5c-8.28-2.51-13.43,2-30.95,2.23-22.85.24-29.91-15.76-76.81,7.84C2022.24,397.69,2105.81,409.78,2101,371.5Z"/>
        <g class="skinFoldLine">
            <path d="M1760.66,250c-19.23-66.64-81.9-10.28-36.14,49.08"/>
            <path d="M1763.31,265.91c-19.56,11.27,13.44,32.66,2.32,38.79-9.61,5.31-2.65-13.26-23.87-16.91-23.15-4-12.6-47.41,4.64-33.16"/>
            <path d="M1764.25,214.8c2.75,5.12,4.6,9.82,4.74,13.72"/>
        </g>
        <g class="lipOverlapLine">
            <path d="M2111.66,377.33A11.89,11.89,0,0,1,2116,383"/>
            <path d="M1971.54,391a47,47,0,0,0,12.58-4.58"/>
        </g>
        <g class="lipEdgeLine">
            <path d="M2101,428.22c-17.81,32.75-71,28.8-88.41,11.44"/>
            <path d="M2083.68,365.35c-9.19,2.29-21.42,1.65-31.29-1"/>
        </g>
        <path class="smileLine" d="M1931.28,233.6a144.8,144.8,0,0,0-31.91,13.71"/>
        <g class="cheekLine">
            <path d="M2113.39,316.87a75.24,75.24,0,0,1,14.28,20.25"/>
            <path d="M2015.53,292.47c-7.24,1.39-12.76,8.82-20.84,15.22-9.91,7.86-19.37,16.62-24,26.05"/>
        </g>
        <g class="noseLine">
            <path d="M2092.1,254.93c2,8.79,6.14,10.44,12.52,24,6.23,13.26,29.76,24.69-3.38,49.05"/>
            <path d="M2015.53,292.47c-7.42,3.43-11.37,27.4,1.48,34.84"/>
            <path d="M2033.59,325.62c-7.1-21.31,20.63-1.35,31.12,1.35"/>
            <path d="M2109.35,314.76c-4.37-11.64-3,9.78-21.49,12.37"/>
        </g>
        <g class="eyeFoldLine">
            <path d="M2143.18,241.71c-14.55,7.44-36,3.78-47-3.05"/>
            <path d="M2007.38,238.19c-12.81,10.58-41.08,11.05-56.53,1.67"/>
        </g>
        <g class="eyeCornerLine">
            <path d="M1911.87,219.44c7.91,4.35,18,1.47,24.83-.87"/>
            <path d="M2141.47,206.5c2.4,1.36,3.86,2.36,6.41,2.72"/>
            <path d="M2140.7,216.26c3.55.69,7.28,1,11.28,4.43"/>
        </g>
        <g class="eyeCreaseLine">
            <path d="M2089.4,196.52c45.66-19.62,58.18.33,56.82,8.11"/>
            <path d="M1940.23,206.09c19.28-13.87,46.68-26.39,64.24-7.53"/>
        </g>
        <g class="eyebrowLightGray">
            <path d="M2156.09,158.64a51.52,51.52,0,0,0-7.38-18.78c-22.93-6.71-36,.1-64.19-7.62C2080.57,168.14,2127,148.62,2156.09,158.64Z"/>
            <path d="M2029.58,133.56c2.1,30.84-46.31,15.69-68.42,18.42-53.3,6.58-54.29,25.33-64.81,19.74C1949,119.06,1980.39,136,2029.58,133.56Z"/>
        </g>
        <path class="hairLightGray" d="M1960.31,398.66c3.79-36,49.78-50.24,73.4-44.94,28.07,6.29,41,8,68.59,1.63,8-1.86,24.75-7.31,25.37,38.79.35,26.09-35,107.64-57.64,66a46.8,46.8,0,0,1-20.21,1C2035.23,495.68,1954.36,455.25,1960.31,398.66ZM1719.83,206c12.65-8,35.78-5.92,44.42,8.77,50.08,24.26,23.9,119.15,20.15,186.71-2.64,47.55,44.46,74.41,52.67,122.82,6.7-7.78,12.55-20.86,16.22-35.43,30.77,43.65,68.47,45.13,93.64,77.86,3-10.61,3.37-21.83,1.78-33.5,29.4,29.39,72.55,20.14,100,67.44,35.11-23,55.45-53.16,65.2-88.43,4.17,10.68,10.25,19.07,18.76,24.57.36-42,36.92-71.05,21-114.78a70.13,70.13,0,0,1-25.91,25c-7-21.25,15.54-53.8,1.87-94.8-8.65-26-30.34-12.64-46.84-13-33.38-.75-71-20.08-115.72,12-42.21,30.32-12.3,57.42-46.08,101.6-33.83-12-62.72-31.33-85.74-59.4,9.44,2.63,20.62.72,32.63-3.35-51.91-34.49-68-108.39-58.78-172.33,8.86-61.18,63.77-91-14.6-136.67,6.55-8.32,12.89-15.69,21.32-22.64-74.62,3.79-75.14,64-121.4,85.26,12.74,3.6,25.19,3,37.24-3.46C1718.46,155.6,1711.8,185,1719.83,206Z"/>
        <g class="hairFoldLine">
            <path d="M1794.53,81.13a37.58,37.58,0,0,0-7.33-3.53"/>
            <path d="M1921,452.88a60.2,60.2,0,0,1-15.27,13"/>
            <path d="M2127.79,447.07c.91,4.92,2.66,8.91,5.78,11.42"/>
        </g>
    </g>
    <g class="head47">
        <rect class="sclera" x="679.47" y="1108.87" width="192.53" height="69" transform="matrix(0.98, 0.17, -0.17, 0.98, 210.24, -117.3)"/>
        <g class="irisDarkBrown">
            <ellipse cx="813.64" cy="1145.89" rx="18.93" ry="16.95" transform="translate(-456.09 1748.28) rotate(-80)"/>
            <ellipse cx="699.18" cy="1125.72" rx="18.93" ry="13.99" transform="matrix(0.17, -0.98, 0.98, 0.17, -530.82, 1618.88)"/>
        </g>
        <g class="pupil">
            <ellipse cx="811.74" cy="1144.6" rx="7.36" ry="6.59" transform="translate(-456.39 1745.34) rotate(-80)"/>
            <ellipse cx="696.73" cy="1124.33" rx="7.36" ry="5.44" transform="translate(-531.48 1615.32) rotate(-80)"/>
        </g>
        <g class="skinEastAsian">
            <path d="M919.18,1302.38c-25.72,37.48-85.13,59.9-124.83,61.93-40.56,2.07-53.09,4.83-84.62-6.53-28.57-10.3-27-31-39.3-51.43-43-71.39,10.1-168.67,8.46-190.69-2.28-56.24,21.94-47.84,27.46-120.38C926.18,865.17,1253.72,1315.65,919.18,1302.38ZM801.29,1150.44c7,1.1,13.41,5,23.78,7.07,13.79,2.81,17.56-.15,30.31-.27-8.28-8.43-12.26-17.19-28.43-20-13.16-2.32-21.94,1.4-29.05,7.9C793.8,1148.85,798.9,1150.07,801.29,1150.44ZM734,1134.69A33,33,0,0,0,706,1114c-5.73-.58-9.21.66-12.17,3.1-2,3.71-3.53,9.89-2,14.52,10.13,8.49,29.35,5.32,37.3,6.48C733.12,1138.7,735.16,1137.51,734,1134.69Z"/>
        </g>
        <path class="lipMaleMedium__noStroke" d="M710.83,1242.83c2.26-1.91,8.67,2.69,16.59,4.08s17.55-1.33,20.66,2.87c6.61,7.49,19.3,19.69,34.57,27.81-10.73,8.24-19.78,35.41-56.57,27.32-33.79-7.42-16.87-31.75-26.45-44C709.58,1254.39,705.29,1245.8,710.83,1242.83Z"/>
        <path class="mouthInner" d="M775.88,1276.07c-22.21-6.42-26.64-19.61-40.39-17.15-9.76,1.76-9.72.41-14.59-2.57-6.77-4.14-12.65,3.37-16,3.93,4.86,5.29,5.56,18.41,21.78,22.55C754.82,1290,760.17,1280.15,775.88,1276.07Z"/>
        <path class="teeth" d="M768.83,1273.6c-16.31-6.8-21.19-16.86-33.34-14.68-9.76,1.76-9.72.41-14.59-2.57a8.2,8.2,0,0,0-7.61-.56c-.79,4.52-.89,9,.19,10.21C721.22,1275.49,746.17,1279.49,768.83,1273.6Z"/>
        <g class="skinFoldLine">
            <path d="M970.57,1219.49c27-48.78,72.92,5.9,8.42,47.25"/>
            <path d="M968.89,1229c13.83,14.29-14.31,25.2-6.59,32.76,5.34,5.22,6.71-10.26,20.79-16,20-8.08,10.74-28.23.6-22"/>
        </g>
        <g class="lipOverlapLine">
            <path d="M775.88,1276.07a30.28,30.28,0,0,0,9.56,1.43"/>
            <path d="M697.24,1260.29a17.09,17.09,0,0,0,7.63,0"/>
            <path d="M720.9,1256.35a19.22,19.22,0,0,1-5.64-5.24"/>
        </g>
        <g class="lipEdgeLine">
            <path d="M710.83,1242.83c2.26-1.91,8.67,2.69,16.59,4.08s17.55-1.33,20.66,2.87"/>
            <path d="M704.06,1287.8c3.4,15.61,32.05,23.35,51.18,15.18"/>
        </g>
        <g class="noseLine">
            <path d="M781.15,1203.84c4.79,5.3,6.33,18.06-6.7,23.45"/>
            <path d="M720.32,1182c-9,13.79-20.82,17.82-11.54,33.73"/>
            <path d="M737.12,1221.08c8.26-3.3,17.76-11.51,23.09,1.87"/>
            <path d="M713.06,1208.05c1,3.79,3.15,6.28,8.92,9.63"/>
        </g>
        <g class="eyeFoldLine">
            <path d="M845.12,1173.13c-9.33,5-30.77,2.27-40.46-7.13"/>
            <path d="M718.91,1152c-8.5,2.53-26.22,3.43-31.86-8.18"/>
        </g>
        <g class="eyeCornerLine">
            <path d="M869.68,1165.1c-6.32-1-10.28-4.22-14.3-7.86"/>
            <path d="M693.86,1117.12c-2.35.83-6.24,3-8.56,2.86"/>
            <path d="M691.88,1131.64c-2.35-1.73-5.31-2.77-6.56-3.49"/>
        </g>
        <g class="eyebrowBlack">
            <path d="M883.39,1134.19c-27.26-52.2-59-35.51-89.38-44.51C809,1117,846.89,1095.35,883.39,1134.19Z"/>
            <path d="M684.4,1073.85a81.49,81.49,0,0,0-3.07,10c24.54-7.16,40.46,12.07,54.46-4C721,1077.88,704.26,1064.66,684.4,1073.85Z"/>
        </g>
        <path class="hairBlack" d="M1053.27,950.89c3.69-11.73,42.81-26.48,75.23-8.93-22.91-28.78-87.61-33.07-108.45-12.53,6.56-29.59-30.1-123-77-128.71,29.53,18.65,43.17,87.78,39.74,110.31-32.91-11.72-88.23-29.91-163.67-20.78-86.87,10.52-115,72.28-165,93.59,12.27,2.55,40.42-.4,52.58-5.26-26.51,17.84-39.11,54.54-35.25,81.42,43-30.75,80.33,36.84,164-22.72-2,10.88-23.06,28.78-37,36.89,22.2-3.91,62.36,1.21,98.2-66.78-15.93,77.34,6,128.57,15.14,137.58-2.47-10.33-.34-42.15,4.56-56,5.41,22.61,15.67,42.8,29.52,62,9.45,22.92-3.25,57.87-17,84.87,34.53-19.66,35-61.67,47.55-47.2,11.8,11.89,31.38,28.64,46.05,38.18-1.58,17.22-19.55,43.32-42.27,54-18.75,8.77-27.7,27.24-49.15,5.23a102.8,102.8,0,0,1-11.86,16.3c11.85,41.73,49.13,66.69,85.13,59.55-25.47-23.46-4.19-49.06,38.9-76.66,50.6-32.4,100.7-98.55,79.34-202.34,17.67,19.52,29.66,41.57,34.67,66.73C1169,1071.77,1120.06,990.92,1053.27,950.89Z"/>
        <g class="hairOverlapLine">
            <path d="M945.86,1151a335.15,335.15,0,0,0,30.55,37.67"/>
            <path d="M1022.46,1226.82a152,152,0,0,0,27.41,16.76c-12-16.08-21.61-34.94-29.51-55.77"/>
        </g>
    </g>
    <g class="head49">
        <path class="lipMaleMedium__noStroke" d="M402.68,939.69c-35.34,4.07-34.38-30.23-49.37-40.29,19.2-9.22,25.28-25,40.18-28,12.63,5,19.57,5,32.45.49,12.39,2.3,5.91,17.49,16.85,23.82C432.65,907,438.48,935.56,402.68,939.69Z"/>
        <path class="mouthInner" d="M437.82,894.2c-3.83-1.08-16-4-16.83-8.43-16.6,8.18-23.32-2.61-30.48-.74-9.39,2.44-14.37,8.67-32.46,13.62C370.14,909.45,412.24,933.23,437.82,894.2Z"/>
        <path class="tongue" d="M429.46,904.31c-2.29-4.9-6.7-8.69-12.91-11.54-14.95-3.07-26.91-4-36.13-3.41a94.26,94.26,0,0,1-22.37,9.29C368.9,908.34,403.9,928.47,429.46,904.31Z"/>
        <path class="teeth" d="M429.84,891.82c-4.21-1.49-8.39-3.53-8.85-6.05-16.6,8.18-23.32-2.61-30.48-.74-5.82,1.52-10,4.49-16.58,7.71C390.52,901.63,414.84,901.92,429.84,891.82Z"/>
        <g class="lipOverlapLine">
            <path d="M348.64,899.1a21.19,21.19,0,0,0,9.41-.45"/>
            <path d="M421,885.77a18.2,18.2,0,0,0,3.71-2.48"/>
            <path d="M437.82,894.2a42.17,42.17,0,0,0,8,1.51"/>
        </g>
        <g class="lipEdgeLine">
            <path d="M393.49,871.4c12.63,5,19.57,5,32.45.49"/>
            <path d="M375.89,931.61c15.12,12.88,38.65,9.91,53-3.72"/>
        </g>
        <g class="noseLine">
            <path d="M363.44,843.19c-8.52-6.45-6.52-21.56,1.13-26.09"/>
            <path d="M430.94,839.5c-23,21.49-38.57-1.42-53.89,2"/>
            <path d="M438,817.1c9.07,2,13.33,17,4.25,23.82"/>
        </g>
        <g class="eyeFoldLine">
            <path d="M486.81,763.78c-7.75,6.19-22.66,4.13-30.92,0"/>
            <path d="M335.36,762.64c-16.52,9.81-32.19,3.88-39.42,0"/>
        </g>
        <g class="eyeCornerLine">
            <path d="M512,740.39c3.4,2,8.07,5.11,11.11,4.53"/>
            <path d="M268.55,746.76c6.52-1.39,9.17-2.44,12.54-5.3"/>
        </g>
        <path class="eyeCreaseLine" d="M281.48,726.91c16.73-8.79,46.51-26.94,72.37-3"/>
        <g class="eyebrowBlack">
            <path d="M258.42,697.39c33.55-36.82,71.51-15.78,110-17.26C349.28,703.76,295.84,672,258.42,697.39Z"/>
            <path d="M437.94,681.12c24.17,6.9,57.21-17.76,86.81,18.74C490.71,678.16,455.7,702.33,437.94,681.12Z"/>
        </g>
        <path class="hairBlack" d="M446.12,432.08C381.86,407.4,281,417,247,440.15c-.4-25.92,26.92-54.77,45.21-67.27-34.71,5.42-64.82,41.05-66.2,73.19-8.2-15.7-50.29-23.15-64.59,7.54,20-18.47,43.07-8,47.36,8.07-102.69,73.18-93.11,208-76.1,254.41,6.4-9.22,30.15-11.42,34.19,27.92,4.5,2,16.61,2.57,22.76,1.12.41-25.36-5.73-28.63,15.54-63.81,19.6-3,45.88-15.48,58.25-40-.9,10.82-4.9,20.79-9.63,31.72,17.68-4.9,42.18-42.33,41.18-106.7,22.77,130.72,122.92,79.87,156.93,103.58-2.31-10-16.74-25.59-25.59-32.13,60.84,45.55,104.83-2.81,137.27,32.44,7.62-27.2,9-43.5-3.34-70.22,8.74,3.1,19.83,16.38,31.75,15.61-35.52-44.67-18.33-83-62.71-118.94,10.39,0,24.63-3.91,34.62-9.79C525.23,479.44,483.37,446.39,446.12,432.08Z"/>
        <path class="hairOverlapLine" d="M205.15,681.32c-8.46,3.07-23.53,4.49-29.3,4.88"/>
    </g>
    <g class="skinOverlapLine">
        <path d="M132.71,1856c0,14.42-5,31.58-12.33,39.22"/>
        <path d="M73.85,1897.29c-2.33,25.11-3.92,42.45-.67,53.14s2.79,14.88,13.49,30.69"/>
        <path d="M42,1894.55c0,22.79-4.19,44.41,3.72,57.74"/>
        <path d="M21.1,1891.37a96.24,96.24,0,0,0,.46,40"/>
        <path d="M583.49,1957.11c5-6.06,8-18.36,10.26-34.65"/>
        <path d="M1413.44,1651.93c-4,12.14-1.43,26.59,1.66,41.35"/>
        <path d="M1435.77,1662.58c.49,14.88,5.57,35.25,13.11,52.5"/>
        <path d="M1471,1665.56c-.11,15.68,14.89,48.62,24.76,61.51"/>
        <path d="M1538.1,1724.1c3.34-17.86-13.53-31.26-10-70.34"/>
        <path d="M588.62,1872.42c-10.94-.94-21.52.73-31.72-.7"/>
        <path d="M591.06,1902.86a135,135,0,0,1-33.78.27"/>
        <path d="M578.43,1928.37c-7.91.86-17.68.52-21-.63"/>
        <path d="M635.84,1832.83c-4.21-5.16-13.3-5.44-16-1.79"/>
    </g>
    <g class="skinFoldLine">
        <path d="M2340.63,839.25c.25,17.33-4.69,37.9-20.18,65.07"/>
        <path d="M1557.44,1071.24c-11.64-15.9-27.85-28.19-49.23-36.41"/>
        <path d="M2759.14,994.49a28.2,28.2,0,0,1-5.2,22"/>
        <path d="M2742.19,1052c-.41,5.5-2,12.63-7.33,14.66"/>
        <path d="M2713.2,1096c-2.66,5.69-6.95,10.87-14,13.27"/>
        <path d="M1554.84,1626.86c-9.92,17.36-24.45,29.88-41.68,30.76"/>
        <path d="M1101.16,1548.24c10.31,9.42,15,28,12.8,41.41"/>
        <path d="M657.54,1709.56c-12.34-6-24.34-10.06-35.84-11.19"/>
        <path d="M1382.81,1585.53c4.42.58,9-1.46,13.6-3.6"/>
        <path d="M1361.91,1638.84c9.2,1.9,22.88-2.42,28.33-7.94"/>
        <path d="M155.79,754.85c-13.18-42.52-27-10.84-19.73,16.16"/>
        <path d="M162.14,772.57c-15.92,14.81,13.64,35.44,2.92,41.28-4.83,2.64-5.83-14.33-14.9-23.06-11.48-11.06-6.54-29.84.53-27.22"/>
    </g>
    <g class="skinCreaseLine">
        <path d="M2716.17,1003.6c-16.55,30.93-56.11,53.22-84.16,45.31"/>
        <path d="M2613,986.13c-4.08,10.21,3.58,32.14-6.19,52.71"/>
        <path d="M2809,958.81c2.2,6.41,3,12.39.91,17.49"/>
        <path d="M2818.89,1034.19c1,6.63.09,14-4.43,18.69"/>
        <path d="M2783.1,1109.57c-2.08,5.29-4.91,10-10.25,12.66"/>
    </g>
    <g class="skinEdgeLine">
        <path d="M104.8,1882.54c-23.71-13-26,0-40-6.51-15.89-7.42-18.6,4.18-29.76-1.86-8.23-4.46-14.42,0-17.21.93"/>
        <path d="M1489,1644.75c-16.41,5.2-21.88-4.35-36.82-2.4-18.4,2.4-22-10.4-32.41-9.2-14.11,1.63-16-6.81-20.41-10"/>
    </g>
</svg>
