<svg viewBox="0 0 2866.51 2926.99">
  <g class="willyShoe">
    <path d="M1185.36,2646.76c8.42-21.39,23.05-43.91,41-67l166.86,20.1c18.25,60.14,43,113.8,81.75,153.46,15.42,10.72,52.84,22.6,66.62,44.25C1463.59,2908.76,1213.25,2800.32,1185.36,2646.76Z"/>
    <path d="M2232.79,2722.48a295.35,295.35,0,0,1,.78-107.9l168.88-50.26q53.1,46.45,129.33,65c26.52-1.64,53.91,1.85,82.15,10.3C2646.37,2743.24,2305.28,2812.26,2232.79,2722.48Z"/>
  </g>
  <g class="soleWhite">
    <path d="M2232.79,2722.48c-.28,17.94-1.45,33.86,11.52,46.83,17.3,23.05,139.87,4.85,229.12.72,77.82-3.6,166.16-29.29,176-87.9,3.34-19.91-15.34-40.35-35.51-42.51-49.71,7.2-85,47.55-102.31,87.9-36.75,20.89-182.48,24.73-229.84,13.37C2263.77,2736.56,2246.48,2726.8,2232.79,2722.48Z"/>
    <path d="M1185.36,2646.76c-11.53,17.15-21.87,32.23-17.84,55.82,7.48,34,73.63,61.12,132.94,113.38,80.37,70.81,215.72,66.64,251,28.2,12-13.13,2.8-36.58-9.81-46.62-28.2-22.44-97.58-8.65-151.93,24.17-44.89-.57-151.91-87.08-181.29-127.76C1200.9,2683.59,1191.69,2673.23,1185.36,2646.76Z"/>
    <path d="M1124.31,2788.35c25.3,35.25-46.67,66.38-83.15,68.69-52.42,3.31-99.4,19.25-130.88,19.58-19.5.2-22.91-16.37-25.76-34.35C983.74,2805.41,1080.92,2773.36,1124.31,2788.35Z"/>
    <path d="M840.47,2817.38c18.37,38-71.2,44.33-98.82,41-44.58-5.42-147.95-61.44-152.13-78.32-3.47-14,.33-26.18,7.83-37.36C699.87,2767.38,804.38,2792.06,840.47,2817.38Z"/>
    <path d="M466,2771.3c18.25,9,28.37,29.42,21.28,58-21.28,33.37-113.52,37.81-159.45,11.7l8.23-33.56C350.81,2741.15,425.34,2733.1,466,2771.3Z"/>
    <path d="M164.48,2830.49c-3.37,11.69-4,23.29-1.23,34.8,10.67,20.34,46.32,25.13,70.72,40.68,54.67,34.81,147.59,18.84,159-7.18,8.32-24-.6-50.94-25-65.19C333.37,2810.57,254.88,2813.37,164.48,2830.49Z"/>
  </g>
  <g class="bennettShoe">
    <path d="M441.11,2566.81c6,31.8,1.75,65.51,4.11,102,1.82,28.11,8.29,72.76,20.8,102.48-32-16-106.06-9-129.94,36.15-29.41-57.55-39.92-110.32-39-171.44,9.31-52.28,32.07-52,49.83-91.86Z"/>
    <path d="M185.12,2661.78c-1.67,119.25-20.06,113.63-20.64,168.71,15.07,30.11,61.26,39.13,90.85,53.77,7.41-43.71,74.5-68.83,112.6-50.66-48.73-45.28-60.55-111.95-55.8-184.95Z"/>
  </g>
  <g class="shoelace">
    <path d="M2437.21,2590.2c-19.82,4.64-42.35,17.46-65.59,32.42a375.49,375.49,0,0,0,101.19,40.2c20.39-15.9,40.13-27.64,59-33.5q-52.84-12.83-94.54-39.11Z"/>
    <path d="M1415.29,2660.71v0c-24.23-4.72-49.23-3.2-74.67,1.83,15.7,35.68,41.09,67.53,73.41,96.63a171.52,171.52,0,0,1,61-5.86C1449.89,2727.62,1430.68,2696.08,1415.29,2660.71Z"/>
    <path d="M429.67,2635a327.72,327.72,0,0,1-67.59-3.9c-1.79,27.7.52,69.86,6.69,100.69,22.7-3.08,43.3-5,63.5-2.12C427.91,2698.89,428.71,2670.66,429.67,2635Z"/>
    <path d="M309.15,2729c-22.12-1.93-50.07-.82-64.06,4.38,2,23.46,10.85,53.3,22.37,81.21,17.14-6.59,46.25-7.66,69.1-6C322.31,2784.62,313.27,2757.7,309.15,2729Z"/>
  </g>
  <g class="willy">
    <path class="willyPants" d="M2120.91,1425.53c10.56,131.21,55.8,190,90.46,369.64,12.86,66.7,40.75,82.82,52.82,176.33,6.44,49.92,30.16,72.39,34.69,123.67,4.32,48.94,37.7,48.26,39.21,131.21,1,53.13,17.82,104.37,22.63,132.72,4,23.52,111.6,66.37,22.62,143.28,60.18,5.43,30.36,35.25,31.67,73.91-28.58,37.25-120.59,54.21-188.52,93.5-18.12-27.37-76.84-41-54.76-70.82,40.12-54.25-18.6-54.37-38.46-66.73-115.06-71.64-92.19-322.06-152.39-384.83-19.17-20-1.69-60.41-20.45-84.35-40-51.12-14.51-62.51-40.89-82.64-16.66-12.71-14.49-83.5-86.06-228.34-5.75,20.29-34.44,50-37.32,79.12-7.68,77.56-93.18,195.53-131.85,310.9-26.71,79.66-69,152.79-113.45,215.25,12.68,76.82-53.89,88.66-62.65,136.49-9.7,52.95-24.65,57.86-58.18,60.41,3.74,32.07-3.12,58-23.12,75.33-107.4,30.58-150.66-12.68-199.88-30.58-3.37-13.31,3-30.86,11.18-49.22-20.8-37.3-42.53-81-10.44-130.53,61.93-95.54,74.92-208.28,100.69-208.09,73.09-100.69,42.51-137.23,92.49-212.56-13.43-41.77,38-43.26,29.83-76.08-14.17-47.73,33.56-164.09,65.63-527.31Z"/>
    <path class="willyShirt" d="M1755.81,495.11l213.56,8.08c56.72,16,102.06,54.39,127,60,17.64,4,49.91-1.5,61.19,35.78,16.64,6.41,36.67-2.69,41.56,46.18,21.75,12.35,49.12,52.48,76.19,85.42,14.2,64.17-68.34,164.31-112,181.24-4.91,1.27-11-7.22-20.52-14,1,24.35,35.64,33.45,15.72,64.52,37.52,157.07,16.1,241.15,3.13,320.36,10.59,24.16-3.24,37-11.5,52.63-23.3,62-15.41,90.57-20.25,105.75-335.71,78.72-473.45-8.76-638.33-34-10.92-230.29-1.66-552.48-60.23-565.64,10.37-37.66,44.78-73.51,61.9-110.46,35-75.57,65.58-136.72,108-162C1651.06,539.29,1705.77,525,1755.81,495.11Z"/>
  </g>
  <g class="christopher">
    <g class="sockWhite">
      <path d="M884.37,2751.6c-1.9-12.64-7.65-18.06-6.32-28.31,18.76-1.24,69.64-16.15,84.69-27.65,10.07,11,8,29.8,19.21,43.93C956.3,2776.79,902.25,2771.83,884.37,2751.6Z"/>
      <path d="M641.34,2677.3c6.34-10.28,4.84-22.89,15.3-34.09,11.57,13.73,60.1,32,79.39,30.32-1.56,16.46-12.67,25.47-15.84,41.75C678.91,2715.71,651.39,2704.12,641.34,2677.3Z"/>
    </g>
    <g class="christopherShoe">
      <path d="M948.1,2762.18c7.16-18.1,17.85-29.09,35.82-25.35,24.85,21.29,50.93,36.62,78.93,33.75,23.5-2.41,51.76.35,61.46,17.77-16-.9-42.78,14.61-53,34.5-15.61,13.66-36.78,16.71-54.53,18.23-52.51,4.49-94.13,25.9-132.24,1.19-8.68-30.95-9.94-63.19-.15-90.67C896.72,2759.43,930,2751.29,948.1,2762.18Z"/>
      <path d="M692.85,2709.53c10.24-10.24,31.11-10.92,36.75,0,43.76,84.75,96.1,67.79,110.87,107.85-21.69-9.64-58,.91-76.68,23.5-65.52,4.22-144.14-49.41-166.44-98.21,11-28.59,24.82-51.87,44-65.37C661.52,2702.3,684.42,2696.88,692.85,2709.53Z"/>
    </g>
    <g class="christopherStrap">
      <path d="M1003.8,2752.17c-19,9.84-35,22.84-44.69,40.92-4,7.47,16.56,18,25.12,10.83-4.63,7.73,26.4,14.14,32.08,5.79,11.18-16.41,26.93-29.3,46.54-39.13C1042.22,2772.69,1022.63,2764.92,1003.8,2752.17Z"/>
      <path d="M684.64,2742.73c9.36,17.45,27.38,32.92,49.08,47.53,16-9.15,39-13.66,58.47-12.16,6.24.48-7.78-16.7-29.11-21.83,2.47-6.61-11.89-22.38-19.89-23.84C721.44,2728.46,701.76,2732.21,684.64,2742.73Z"/>
    </g>
    <path class="christopherShortsInner" d="M682,2261.59c-6.23-18.3,19.24-26.58,26.25-1.11C696.07,2263.1,684.14,2265.57,682,2261.59Z"/>
    <path class="christopherShorts" d="M992.8,1931c2.88,28.86,14.4,37.1,5.51,62.09-8.46,23.77,12.68,45.32-24.84,230-4.81,9.62-57.72,18.27-77.92,11.54-3.91-18.41-7.48-37.39-12.51-51-35.59-6.73-201.06,58.69-201.06,77.93-31-59.75-53.87-163.65-58.68-226.18-1.06-13.73-12.51-18,1-33.4,3.85-19.24-14.43-31.75,4.81-45.22.77-11.7,4.12-17.21,9.62-27.19C759.08,1934.36,877.27,1935.1,992.8,1931Z"/>
    <path class="christopherWaistband" d="M992.8,1931c3.85-7.83-.75-24.14-.63-37.84l-349.51-3.88c-2.34,17-8.3,30.8-4,40.33C759.08,1934.36,877.27,1935.1,992.8,1931Z"/>
    <path class="christopherShirt" d="M1073.34,1507.44c9.62,38.12-40.12,94.27-74.5,90.37-4.78,52.59-7.31,74.66-6.9,110.8,1.06,93.15,19,103.73,3.2,132.16,8,12,11,24.63-3.67,39.76,5.9,5,.93,14.26,5.51,23.86-69.94,18.78-298,19.29-360.88-12.85,12.26-44.37,2.13-96.66,18.2-132.12-84-52.51-88.22-139.26-51.86-243.44,14-44.37,14-98.1,56.08-123,20.81-12.33,44.84-12.8,82.87-26.74l161.77,3.12C1023.82,1394.74,1016.28,1451.36,1073.34,1507.44Z"/>
  </g>
  <g class="preteenBennett">
    <path class="converseLogo" d="M304.07,2693.59c12.92,17.1,38.77-43.07,24.35-59.91C316,2619.21,291.25,2676.61,304.07,2693.59Z"/>
    <path class="bennettJeans" d="M541.27,1670.08c3.2,58.74,16.92,70.55,15.45,106.71C553.31,1861,566,1946.66,544,2087.63c-8.46,54.18,31.06,100.12-17.79,144,3.8,18.42,21.07,39.44-7.62,60.14-8.52,50.56-20.56,114.29-31.34,163.06-9.15,41.37,24,56.6-18.63,86.39,8.05,33.69-3.27,45-37,52.8,1.31-28.06-66.79-31.24-68.1-3.18-6.43-13.35-37.65-14-47-37.77-7.43,49.64,22.18,81.65,1.57,94.67-16.7,10.55,27.5,34.59-12.81,52.45-2.4-23.27-58.92-17.58-62.79,1.59-11.21,15.54-53.25,14.67-62.76,34.18-18.47-35.62-46-33.08-13.87-72-35.17-21-.19-50.24-3.75-82.88-8-73.46-9.67-161-5.4-241.89,1.55-29.38-22.54-48.85,2-70.57-33-16.44-5.61-46.3-20.91-99.31-45.51-157.67-52.27-366-12.4-501.3Z"/>
    <path class="shirtWhite" d="M536,1491.74c-6.11,47.48,19.58,44.72.38,64.15-4.18,24.3,15.65,43.43,2.1,66.42,6.93,18.32.64,38.67,9.49,61.16-30.57,8.43-87.51,60.1-165.53,62.21-128.66,3.47-185.57-29.53-265.71-71.7C-182,1070.21,700.32,664.55,536,1491.74Z"/>
    <path class="bennettSleeves" d="M133.81,1486.24c-6.37,13.34-121.76,15.31-130.11,2.75,3.1-27.44-8.5-116.6,1.37-169.5-6.6-21.84,19.43-183.9,46.51-234.92,35.22-66.34,148-78,206.83-108.67l150.26,7.33c75.42,35.78,144.12,44.3,168.38,105.93,13.14,33.39,21.42,67.43,12.77,110.3,3.62,39.18,13.1,58.13,1.18,98,8.48,40.14,25.89,54,13.74,83.38,6.71,8.67,8,18.66,2.75,30.23,13,41.27-6,30.12,6.42,72.38-13.77,6.91-60.32,11.5-77.88,8.25-2.77-15.11,2.67-28.51-.92-46.73,13.89-34.59.58-43.44,4.06-60.82,5.24-26.22-5.91-43.27-4.59-74.08,1.76-41.48,4.66-88,.27-137.22C527,1123.76,474.26,1101,433,1063.59c-39.33,34.75-135,34.1-179,3.94-40.66,43.25-82.92,70.79-108.64,97,.66,52.45-16.8,98.4-17,162.59-2.63,17.7,3.17,38.5-2.63,49.17-1.31,29.51,14.27,51.15,2.43,68.19C130.06,1463.52,129.4,1476,133.81,1486.24Z"/>
  </g>
  <g class="clothesDisplayLine">
    <path d="M1901.07,1469.91c-3.64,29.11,23.15,67-3.71,119.55-23.87,46.71-10.89,65-47.48,102-23.15,23.34-9,45.66-16.4,60.67"/>
    <path d="M424.88,1739.68c5.58,13.92-8.92,19.77-5.4,40.08,7.39,42.69-13.4,79.89-60.43,77,11.87-11,1.31-24.82,8.89-42.14,6.64-15.2-6.36-32.61-.78-41.07,6.34-9.6,7.45-19.77,3.48-27.57"/>
    <path d="M245.69,1731.25c-24.14,14.72-55.06,25.86-92.58,23.4"/>
    <path d="M493.22,1711.57c15.25,15.27,32,28.55,50.32,36"/>
    <path d="M350.58,2814.27c42.2,13.9,127.62,6.84,135.16-21.3"/>
    <path d="M255.33,2884.26c44.3,19,112.4,9.12,139.71-13.4"/>
  </g>
  <g class="clothesOverlapLine">
    <path d="M983.06,1491.51c11.36,31.07,18.25,71.44,15.78,106.3"/>
    <path d="M698.89,1520.88c.86,25.46-4.09,44.17-8.58,62.62-3.4,13.94-4.27,39-12.35,36.36"/>
    <path d="M2131.83,732.11c17.28,63.45,7.26,135.56,11,165.76"/>
    <path d="M1617.85,938c7,1,13.18,2,16.13-3.05,38.5-66.78,81.92-138.28,91.25-191.64"/>
    <path d="M1463,2740c-18.7-1.32-40.75.28-63.54,5.3"/>
    <path d="M1452.64,2726.92c-20.58-2.87-43.2-.6-66,5"/>
    <path d="M1443.36,2713.52c-18.43-2.48-43-1-68.74,4.28"/>
    <path d="M1434.19,2698.55c-19-4.59-45.88-3.21-71.39,3.39"/>
    <path d="M1425,2681.38c-14.89-6.37-44.9-5.09-74.3,1.18"/>
    <path d="M2511.87,2623.89a208.08,208.08,0,0,0-57,34.24"/>
    <path d="M2494.73,2618.17q-31.86,13.82-55.2,35.15"/>
    <path d="M2477.12,2611.17c-21.51,10.22-40.38,21.85-55,35.79"/>
    <path d="M2461,2603.61c-20.34,8.39-39.66,20.44-58.26,35"/>
    <path d="M2447.79,2596.54c-19.55,7.45-39.83,19.79-60.47,34.61"/>
    <path d="M359.05,1856.71c-10.49,118.25-.49,226.88-13.22,285.34-11.05,50.68,11.26,102.85-17.63,124.77,11.3,11.53,17.67,24.82,4.41,45.17,7.67,37.82-13.49,151.94-16,241.1"/>
    <path d="M429.2,2653.65a286.82,286.82,0,0,1-67.71-2.43"/>
    <path d="M428.92,2673c-21.22-.12-43.65-1.09-67-2.13"/>
    <path d="M429.2,2693.38c-20.3-1.45-42.52-1.73-65.88-1.34"/>
    <path d="M430.24,2711.44c-21.1-3.14-42.74-2.81-64.8,0"/>
    <path d="M363.54,2590.86c6.5,12-1.45,19.62-1.46,40.24"/>
    <path d="M431.64,2594c3.3,13.36-1.54,23.44-2,41"/>
    <path d="M247.62,2751.1c26.15-5,41.82-5.08,64.71-4.52"/>
    <path d="M251.52,2768c26.26-5.64,42.07-5.6,65.28-4.38"/>
    <path d="M256.15,2783.74c25.82-6.5,41.48-6.79,65.79-5.27"/>
    <path d="M261.45,2799.13c25-7.57,40.81-7.61,66.57-6.55"/>
    <path d="M242.55,2701.8c3.25,5.95,1.76,22.07,2.54,31.53"/>
    <path d="M305.34,2700.21c2.75,6.46.24,19.51,3.81,28.74"/>
    <path d="M937.71,2024c-14.85,28.17-46.12,49.56-71.58,62-2.76-20.65-41.45-83.53-59.89-79.85"/>
    <path d="M866.13,2086c2.06,27.53,28.22,92.29,16.91,97.68"/>
    <path d="M948.1,2762.18c8.23,3.18,14.53,9.81,20.58,16.87"/>
    <path d="M692.85,2709.53c4.35,6.31,6.77,15.22,10.48,24.75"/>
  </g>
  <g class="clothesBorderLine">
    <path d="M706.92,2769.73c12-9.16,40.06-13.51,56.16-13.46"/>
    <path d="M1027.37,2765a91.35,91.35,0,0,0-43.14,38.92"/>
  </g>
  <g class="clothesFoldLine">
    <path d="M1003,1477.18c.54,25-2,44.74-8.17,58.28"/>
    <path d="M1012.52,1524.77c6.06,20.64,8.29,39.07,5,54.31"/>
    <path d="M672.66,1444.7c-2.67,29,2.64,58,16.79,86.79"/>
    <path d="M635.14,1489.5c1.89,25.59,8.6,51.37,18.48,77.26"/>
    <path d="M632.34,1542.69c1.24,12.91,4,23.53,9,30.79"/>
    <path d="M719.69,1483.34q-6.41,27.2-20.8,37.54c14.08-50.42-8.88-68.9-9.44-24.66"/>
    <path d="M738.73,1626.67c2.37,29.41,7.42,54.94,16.23,75"/>
    <path d="M721.37,1674.27c7.5,40,17.34,75.79,31.91,103"/>
    <path d="M947,1702.26q-8.46,44.15-34.71,86.79"/>
    <path d="M972.77,1700c-2.54,16.44-6.79,32.32-14.56,47"/>
    <path d="M672.1,1817c31.93,25.43,69.35,42.56,111.42,52.64"/>
    <path d="M977.81,1812.56c-16.66,31-46.71,52.48-94.07,61.6"/>
    <path d="M995.14,1840.77c-4.45,6.51-12.29,9.87-15.09,24.43"/>
    <path d="M991.47,1880.53a73.24,73.24,0,0,1-40,9.3"/>
    <path d="M898.86,1899.91a336.53,336.53,0,0,1-119.26-1.68"/>
    <path d="M655.86,1842.24c39.19,39.75,143.9,46.47,21.84,42.55"/>
    <path d="M1539,1298.63c71.16,26.71,90.75,52.71-4.14,45.25"/>
    <path d="M1541.86,1274.81c70.46,43.76,162.72,33.79,224.35-8.25"/>
    <path d="M1781.17,1295.77c-62.66,20.16-120.05,44.86-168.49,77.3"/>
    <path d="M1800.05,1328.54c-24.94,8.91-54.86,54.15-68.75,70.89"/>
    <path d="M1799.34,1353.12c-10.44,12.57-18.43,25.91-22.09,40.61"/>
    <path d="M1879.39,1391.1c50-28.28,97-32.34,140.3-7.2"/>
    <path d="M2117.55,1283.17c13.7,12.26,20.89,27.62,20.14,46.77"/>
    <path d="M2133.38,1238.56c8.63,25.9,20.14,26.62,28.26,44.19"/>
    <path d="M1668.57,928.45c33.76,14.61,65.33,32.39,94.25,54"/>
    <path d="M1673.72,865.51c25.07,35.6,56,64.38,107.45,89.92"/>
    <path d="M1633.31,719.79c-11,49.42-15.34,98.17-11.51,146.06"/>
    <path d="M1558.48,679.5a458.08,458.08,0,0,1-82,107.92"/>
    <path d="M1692.31,652.87c9.36,32.38,38.43,97,5,87.07"/>
    <path d="M1721.09,642.8c7.92,48.93,1.74,74.29,5.37,80.53,8,13.75,26.29-63.26,14.78-132.33"/>
    <path d="M1770,635.61c-4,45.73-10.61,86.41-30.94,99.29"/>
    <path d="M1790.89,812.61c56.08,8.65,145.34,6.47,216.57,8.63"/>
    <path d="M2085.17,837.79c-81.53,5.53-157.61,8.52-224.49,7.19"/>
    <path d="M2157.54,599c11.09,36.61,11.81,116.47,23.32,60.35"/>
    <path d="M2199.1,645.18c2.83,38.41-1,71.61-6.72,103.39"/>
    <path d="M2093.8,636.33c15.77,33.17,22.22,59.92,20.87,81.3"/>
    <path d="M2139.85,724.11c10.79-57.56-1.21-119.86-21.58-105.09-13.95,10.11,24.52,26.16,13.56,113.09"/>
    <path d="M2383.34,2502.38c-31.63,23.52-64.39,55.12,4.52,36.38"/>
    <path d="M2311.54,2294.54c-22.73,123.51-54.62,208.87-145.4,152.63"/>
    <path d="M2225.59,2587.76c149.89-79.37-39.37-49.32-81.14-64.64"/>
    <path d="M2381.44,2566.07c-47.88,31.26-103.24,42.45-164.69,49-13.19,1.41-12,8.94-3.21,17.68"/>
    <path d="M2211.56,1899.64c-7.46,55.67-67.63,13-130.2-34.1"/>
    <path d="M2197.61,2087.2c32.55,58.9,85,125.69,114.7,93"/>
    <path d="M2073.61,2039.15c33-25.13,85.25,55.8,128.65,139.5"/>
    <path d="M1960.43,2063.06c18.61,18.21,33.12,36.55,35.19,55.28"/>
    <path d="M1576.93,1732.52c6.82,53.09,12.48,94.4,19.31,133"/>
    <path d="M1547.61,1789.39c11.48,65.28,24.13,125.26,38.39,177.86"/>
    <path d="M1493.87,1977.49c16.64-25.59-35.83-15.36-62.7,5.12"/>
    <path d="M1522,2033.79c102.37-57.25,53.74,16.64-89.57,129.24"/>
    <path d="M1525.86,2393.36c-27.28,24.48-47.22-5.3-66.54-39.67"/>
    <path d="M1293,2292.27c57.65,1.64,87.7,61.7,108.77,140.76"/>
    <path d="M1308.46,2211.16c12-.85,27.74-10.59,45.4-24.93"/>
    <path d="M1415.65,2464.79c32.63,40.81,28.95,62.1-32.47,52.36"/>
    <path d="M1218.21,2549.78c6.84,12.4,33,19.73,37.21,45.91"/>
    <path d="M1430,2554.25c-64.65,2.69-144-19.29-151.57-5.68-11.13,20,57.6,41.88,99.49,41.88"/>
    <path d="M1929.8,1643.21c34.29,1.86,78.56-2.76,111.21.93"/>
    <path d="M1822.29,1610.78c-56.58-15.11-110.24-23.16-159.4-20.39"/>
    <path d="M1826,1637.65c-31.51,1.73-64.8,10.36-99.17,23.17"/>
    <path d="M1901.07,1616.34c34.29-38.93,98.31-86.54,110.28-75.07,6.9,6.6-46.22,39.39-82.48,66.73"/>
    <path d="M1858,1682.61c18.46,21.45,70.2,54.88,110,89.34"/>
    <path d="M108.14,1464c-88.69-.47-93.15-13.12-69.71-18.7,23.62-5.62,56.18,7.81,89.66-.77"/>
    <path d="M23,1397.65c25,29.5,53.28,40.24,84.46,33.49"/>
    <path d="M5.07,1319.49c7.1,21.67,19.31,36.54,35.75,45.79"/>
    <path d="M32.63,1337.38c5,11.29,13.5,19.59,23.82,26.42"/>
    <path d="M57.94,1252.92c6,21.58,31.25,84.83,50.6,109"/>
    <path d="M52.36,1184.82c1.68,43.65,26.78,80.75,48.74,125.4"/>
    <path d="M101.47,1197.48c10.14,13.46,18.13,27.25,22,41.67"/>
    <path d="M98.49,1152.08c13.77,34.23,29.06,47.09,34.61,70.32"/>
    <path d="M81.38,1097c24.18,28.28,39.81,66.23,64,67.55-16-86.52-73-101.2-33.07-44.1"/>
    <path d="M142.77,1062.41c4.09,11.54,9.3,39.44,8.56,56.18"/>
    <path d="M201.93,1139.43c-15.63,8.19-33.15,8.56-40.56,20.47"/>
    <path d="M185.19,1167.34c-14.14,7.07-31.73,12.34-40.79,22"/>
    <path d="M462.6,1290.12c-68.65,15.36-139.78,17.26-213.2,6.7"/>
    <path d="M361.77,1321.38c-55.33-.58-107-4.28-152.18-13.4"/>
    <path d="M125.72,1559.13c16.28,7.68,35,11,54.84,12.29"/>
    <path d="M124.39,1576.63c37.06,14.13,88.48,18.82,144,20.83"/>
    <path d="M120.85,1622c17.79,8.53,40.26,13.83,64.55,17.87"/>
    <path d="M119.59,1642.84c29.27,16.35,64.3,26.8,102.27,34.25"/>
    <path d="M270.61,1698.67C345,1711.88,438.41,1705,488.27,1679"/>
    <path d="M488.27,1622.76c-41.36,14-83.8,17.84-127.25,12.28"/>
    <path d="M538.51,1622.31c-22.33,20.54-94.14,37.66-119.07,33.94"/>
    <path d="M513.57,1551.7c-13.76,9.3-42.78,19.34-69.2,19"/>
    <path d="M536.41,1555.89c-18.37,19.25-55.21,21.48-73.44,33.39"/>
    <path d="M371.07,1515.6c-35-.37-113.11,7.07-148.83-8.55"/>
    <path d="M295.91,1530.11c37.21.75,75.49,3.25,110.13-2.6"/>
    <path d="M428,1459.79a342.18,342.18,0,0,0,85.2-17.49"/>
    <path d="M535.11,1445c-19.77,13.78-42.94,21.36-69.16,23.34"/>
    <path d="M588,1466.86c-48.37-4.46,13-10,23.29-21.85"/>
    <path d="M607.49,1411.11c-14.12,8.27-29.18,13.06-45.55,13"/>
    <path d="M569.76,1376.82c-11.1,7.24-21.44,10.43-30.59,7.37"/>
    <path d="M604.74,1380.88c-13.77,15.29-55.82,20.87-16.75,23.47"/>
    <path d="M591,1297.5c-4.15,12-8.5,20.46-13.06,25.37"/>
    <path d="M580.92,1264.45c-7.82,26.58-17,45.18-28.65,50.23"/>
    <path d="M578.69,1184.45c-4.09,15.63-22,43.54-39.22,43.55"/>
    <path d="M589.82,1199.46c-8.77,18.87-23.55,34.09-43.13,46.39"/>
    <path d="M534.85,1172.89c-18.12-24.41-37-41.53-57-49.09"/>
    <path d="M552.64,1101.48c.39,26-1,50.17-11.53,64.74"/>
    <path d="M532.16,1161.27c10.32-34,8.43-84.81-1.1-85.84-13.76-1.48-.07,25.31,1.49,58.42"/>
    <path d="M474.72,1847.73c-22.62,4-46.47,11.22-71.8,22.36"/>
    <path d="M449.66,1906c-14.59-5.15-28.84-8-42.68-8.13"/>
    <path d="M332.47,1876.18c-52.83-20.32-18.29-29.12,19-14.9"/>
    <path d="M323,1888.38c-43.93-21.26-89.15-26.09-135.48-16.94"/>
    <path d="M232.22,1887a227.17,227.17,0,0,0-52.16,7.45"/>
    <path d="M322.31,1903.28A290.08,290.08,0,0,0,264.06,1927"/>
    <path d="M524.17,2184.6c-10.77,16.11-23.36,28.64-40,33.19"/>
    <path d="M415.1,2222.53c-19.52-4.42-36.83-12.29-50.13-26.42"/>
    <path d="M526.23,2231.65c-9.58,6.5-17.77,13.45-12.9,24.75"/>
    <path d="M518.61,2291.79a45.59,45.59,0,0,1-29.66,9.32"/>
    <path d="M312.83,2236.08c-27.77,26.42-75.12,27.15-126-5.42"/>
    <path d="M158.73,2268.65c34.88,8.75,97.88-.06,71.46,25"/>
    <path d="M328.2,2266.82c-28.24,11.26-85.14,12.61-10.63,33.61"/>
    <path d="M268.8,2319.4c-31-4-59.32-1.7-84,9.48"/>
    <path d="M332.61,2312c-3.11,4.86-17.07,10.79-26.56,6.05"/>
    <path d="M342.75,2207.32c8.69,24.33,62.09,33.08,23.37,53.14"/>
    <path d="M290.82,2626q-52.17,20.73-104-5.42"/>
    <path d="M165.92,2664c31.08,13.5,104.22,4.22,44.62,30.44"/>
    <path d="M318.15,2647.76c-33.09,19.57-115.06,14.83-22.93,27.7"/>
    <path d="M468.64,2541.24a74.42,74.42,0,0,1-48.11,8.23"/>
    <path d="M381.92,2550.15c-28.16-4-52.48-12.06-63.35-34.57"/>
    <path d="M389.37,2306.53c47.55-8.11,57.38,48.66,42.68,135.24-3.16,18.57-61.71,31.24-56.23,46.06,4,10.9,41.23,25.75,29.81,30.48-18.67,7.74-30.48,12.87-50.13,0"/>
    <path d="M463.88,2341.07c-14.22,87.38-2.46,114.75-17.61,123.73-14.93,8.84-51.69,18.61-39.29,26.42,18,11.32,49.8,41.59,60.29,23"/>
    <path d="M889.56,1933.39c8.35,16.41,4.05,42,6.33,66.65,5.24,56.63-20,65.16-29.76,85.94"/>
    <path d="M938.08,2105.44c-18.36-10.41-36.21-17.09-53.34-18.56"/>
    <path d="M962,2029.68c-12,12.09-25,23.14-40.19,31.7"/>
    <path d="M806.24,2006.13c-18.12,8.1,16.23,13.23,34,47.24"/>
    <path d="M847.27,2069.59c-34.14-30.17-95.95-50.26-121.85-47.72"/>
    <path d="M789.9,2051.82c-35.54-13.44-70.2-14-104.08-3.05"/>
    <path d="M624.26,2002c12.82-7,28.56-6.41,43.79-1"/>
    <path d="M629.07,1956.79c34.92-9,95.84,5.67,142.55,34.61"/>
    <path d="M638.6,1973.63c22.23-2.78,46.63,2.15,72.61,12.69"/>
    <path d="M936.63,1981.75c-22.17-1.42-43.19-1.49-62.45.51"/>
    <path d="M983.89,1931.3c2.49,9.44,3.89,20.19,2.5,28.62"/>
    <path d="M974.14,1931.61c1.59,4.93,2.13,10.58,1.08,15.11"/>
    <path d="M903.24,1933.21c2.82,8,3.49,14.81,1.92,22.65"/>
    <path d="M871.2,1933.64c2.78,6.14,3.48,10.83.95,16.13"/>
    <path d="M855.93,1933.64c2.5,9.74,2.71,17.6.48,25.78"/>
    <path d="M664.52,1930.56c-1.79,7.31-2.1,14.73-.53,20.22"/>
    <path d="M649.44,1930a29.49,29.49,0,0,0-1.7,13.16"/>
  </g>
  <g class="eye">
    <g class="sclera">
      <circle cx="2015.87" cy="216.35" r="111.36"/>
      <circle cx="770.72" cy="1116.85" r="92.79"/>
      <circle cx="393.51" cy="732.26" r="132.88"/>
    </g>
    <g class="irisBrown">
      <ellipse cx="469.67" cy="728.44" rx="19.87" ry="20.4"/>
      <ellipse cx="312.89" cy="728.44" rx="19.87" ry="20.4"/>
      <ellipse cx="809.62" cy="1127.46" rx="18.93" ry="16.95" transform="matrix(0.31, -0.95, 0.95, 0.31, -512.87, 1548.95)"/>
      <ellipse cx="699.08" cy="1091.53" rx="18.93" ry="13.99" transform="translate(-555.08 1419.01) rotate(-72)"/>
      <ellipse cx="1958.9" cy="212.87" rx="18.12" ry="23.4"/>
      <ellipse cx="2094.37" cy="212.87" rx="17.34" ry="23.4"/>
    </g>
    <g class="pupil">
      <ellipse cx="469.67" cy="728.44" rx="7.73" ry="7.93"/>
      <ellipse cx="312.89" cy="728.44" rx="7.73" ry="7.93"/>
      <ellipse cx="807.92" cy="1125.92" rx="7.36" ry="6.59" transform="matrix(0.31, -0.95, 0.95, 0.31, -512.58, 1546.27)"/>
      <ellipse cx="696.85" cy="1089.82" rx="7.36" ry="5.44" transform="matrix(0.31, -0.95, 0.95, 0.31, -554.99, 1415.7)"/>
      <ellipse cx="1962.33" cy="212.87" rx="7.05" ry="9.1"/>
      <ellipse cx="2098.17" cy="212.87" rx="6.74" ry="9.1"/>
    </g>
  </g>
  <g class="skinLatino">
    <path d="M1428.59,1478.88c-16.36-134.36-82.95-250-56.91-436.11,3.53-25.27-8.52-47.57,73-196.16,43.54,23.06,90.75,59.6,173.22,91.34-16.28,43-36.21,83.6-60.41,121.51,14,113.32-35.44,260.64-22.89,407.82,4,46.33,48.37,49.16,41.23,164.15.8,40.44-8.13,70.16,7.93,87.23,1.59,23.79-33.72,19-45.61-6.34-3.12,15-32.55,18.22-42.35,3-12,8.71-38.69,8.17-46.87-12-17.08,3-28.64-3.73-33.78-21.8-17.51,3.06-33.77-58.36-19.4-108.85C1415.75,1502.17,1430.36,1503.87,1428.59,1478.88Z"/>
    <path d="M2655.56,1119.3c-55.65-27.14-60.37-65.23-81.66-61.75-129.36-21.2-248.12-5.3-334-97.54-16.89-18.15-42.9-34.34-64.77-54.19,41.42-25.35,102.21-102.4,101.76-160.31,35.7,40.37,55.78,70,63.74,82,78.52,6,166.47,116.63,273.56,126.17,13.6-27.06,61.62-35.49,78.58-50.85,22.41-20.27,44.32-26.95,58.72-44.31,32.13-1.85,21.42,48.38-11.47,61.13-10.26,10.07-20.07,18.59-29.23,24.93,20.18-7.85,37.35,6.52,78.92-9.59,13-5,29.62-5.72,46.25-8.84,29.63-6.24,30.15,27.54-6.23,40-17.15,6.23-42.1,13.51-70.68,28.58,34.3,6.76,49,13.49,94.18,15.07,21.71,2.08,16.51,41.06-30.78,40.54-30.61-3-60.51-3.06-82.33-.47,31.68,34.2,59.33,35.71,79.45,55.82,15.59,21.62-15.59,32.68-46.26,13.07-18.48-12.18-44.25-17.6-64.37-27.65-6,9.33,11.65,41.28,19.47,53,13,15.84,20.94,31.72,5.87,37.81-16.59,6.72-30.64-6.52-39.77-20.86C2680.46,1141.29,2673.82,1139.52,2655.56,1119.3Z"/>
    <path d="M1780.64,314c19.46,87.55-5.84,165.37-24.83,181.1,8.81,54.27,99.65,89.64,218.63,112.95,45-38.29,47-73.51-5.07-104.87"/>
    <path d="M1786.72,58.49c41.6-23.57,72-57.7,132.37-57.49,103.31.37,127.11,86.56,188.34,126.07,30.32,19.57,18.1,52.3,23.47,80.46,4.69,42.24,48.94,122-6.33,214.53-43.29,168.32-360.43,97.24-363.45-78-35.2,22.36-37.92-2.07-60.86-18.37-42.58-30.27-43.4-100.74-9.55-119.67C1719,146.26,1762.75,76.89,1786.72,58.49Zm199.63,153.67c-14-10.52-17.33-12.51-29.24-12.89-18.2-.6-36.59,12.06-49.54,19.3,14.34-5.26,26.26-2.69,40.64-2.69,11.52,0,19.38-3.36,33.42-.62C1985.14,215.94,1991.27,215.86,1986.35,212.16Zm73.41,2.41c10.67-2,17.74.35,32,1.24,6.69.42,11-.68,19.79.45,1.21-2.39,1.44-7.18.78-9.76-3.68-4.71-11.29-8-19.8-7.37-16.49,1.16-23.11,6.31-36.82,11.82C2052.58,212.21,2055.43,215.4,2059.76,214.57Z"/>
  </g>
  <g class="skinEastAsian">
    <path d="M895.55,2234.65l-146.46,114c-61.82,70.19-51.08,183.46-90.16,296.9,13.74,12.57,53.67,27.6,73.54,28.06,51-87.51,140.71-251.3,209.91-438.94C925.52,2237.49,906.08,2238.16,895.55,2234.65Z"/>
    <path d="M920.28,2404.14c-11.26-47.58,4.1-21.39-24.73-169.49-3.91-18.41-7.48-37.39-12.51-51-29.53-5.58-148.42,38.48-188.09,64.65,38.51,87.33,80,171.68,86.13,206.35,18.95,107.07,64.47,157.09,99.35,268.41,19.33-2.12,64.32-15.27,80.42-26.09-15-82.63-20.77-157.37-33.3-213.58C923.11,2463.48,927.68,2435.41,920.28,2404.14Z"/>
    <path d="M741.84,1264.93c27.85,7.74,7.64,68.75-.45,101.29,25,87.91,208.79,74.12,161.77,3.12,1-37.57,7.59-96.7,54.49-108.23"/>
    <path d="M1354.48,1658.27c-97.89,4.28-166,17.81-263.78-8.45-27.89-11.5-53.57-31.67-77.42-53.54,29.57-8.75,62.52-48.36,61.23-80.51,6.92,5.44,19,12.76,26.65,20.69,55.33,8,142.86,60.46,229.92,58.8,22.28-22.21,11-42.47,53.94-58,36.42-13.2,34.25,1.14,59.29,7.06,11.6,5.24-.38,35.93-36.53,21.18-5.44-.48-8.34,3-11.37,4.68-9.44,31.24-7.07,71.12,1.42,92.53C1384.89,1665.63,1366.15,1657.49,1354.48,1658.27Z"/>
    <path d="M595.05,1602.79c20.32,1.63,62.59,10.57,82.91,17.07.28,31.38-14.63,61.78-13.82,94.29.47,37.73-14.13,80-28.3,106.9,14.13,17.19,15.89,43.19-9.69,38.54C564.85,1795.11,574,1701.42,595.05,1602.79Z"/>
    <path d="M626,1851.93c-6.51-57.46-30-81.19-32.59-114.57-4.23-70.41,20.09-170.76,13.12-251.16-18.66,5.32-55.31,8.34-70.45,5.54-6.11,47.48,19.58,44.72.38,64.15-4.18,24.3,15.65,43.43,2.1,66.42,6.93,18.32.64,38.67,9.49,61.16a58.41,58.41,0,0,0-5.58,1.89c4.48,45.87,15.63,58.64,14.3,91.43-2.32,57.1,2.79,114.92-.56,190.2a87.34,87.34,0,0,0,27.33-21.66c16.21-4.93,22.62-9.42,28.9-33.13C618,1875.54,628.1,1871,626,1851.93Z"/>
    <path d="M445.34,901.29c-18.3,31.24-20.64,64.79-19,98.93,35.65,76.49-199,78.72-188.64-4.46,12.35-25.35,10.76-65.21-1.53-116.22"/>
    <path d="M46.21,1728.92c-3.61-65.75-41-128.44-37.61-236.82,20.8,7.83,96.06,6.76,118.87-1.67,3.32,74.28-16.39,157.43-5.61,246.52,2.94,15.22,23.76,31.24,32.12,76.43,7.09,38.31-4.35,55-1.28,79.23,2.31,18.16-3.25,20.93,0,36.28-3.17,14.25-33.48,8.37-29.76-26.51.61-5.73-3.08-11.67-2.56-18.91-14.18,11.93-3.95,39.83-10.93,54.25,4.1,6.72,6.63,13.65,6.51,20.93,29.77,2.32,21.86,36.74,7,32.08-19.07-6.51-26.51-2.32-36.27-21.39-13-2.79-31.16-10.23-40.93-28.83-10.69-.93-21.85-4.65-24.18-20.93-18.13-20.46-10.23-61.85-5.65-90.94C31.33,1754.5,45.58,1756.06,46.21,1728.92Z"/>
    <path d="M588.62,1860.64c13.66-4.14,11.29-24.44,1.06-28.07-8.57-3-20.25-2.59-33.47-3.58.41,33.19,1.64,68.19.89,108,18.71.36,25.39-10,21.33-20.39,20.22-.12,22.53-20.9,12.63-25.52C610.19,1886.79,606.85,1863,588.62,1860.64Z"/>
    <path d="M474.67,943.15c-24.39,21.75-31.73,39.77-78.11,43.34-39.92,3.07-37.43-3.59-91.6-26.74-59.88-25.59-101.85-70-118.63-129.46-23.29,15.44-31.16-6.83-38.45-19.22C140,797.72,107.3,744,132.66,704.31c-18-128.06,210.67-350,407.34-141.83-21.62,81.36,9.27,64.47-5.35,156.59C530.74,743.7,565.81,861.86,474.67,943.15ZM359.37,732.57c-7.15-12.93-19.5-22-35.52-21.33-15.85.67-31.47,8.31-42.76,18.44a67.2,67.2,0,0,0,37,13c11.59.69,20-3.93,35.32-6C356.28,736.34,362.44,738.11,359.37,732.57Zm88.13,3.78c19.67,8.77,49.78,7,64.54-7.74-9.71-5.54-16.47-17.08-39.08-16.88-13.33.12-21.1,5.76-32.43,19.49C436.07,736.62,444.83,735.16,447.5,736.35Z"/>
    <path d="M860.11,1320.85c-31.63,16.26-71.59,22.73-100,20.2-40.46-3.59-53.24-2.61-82.89-18.25-26.85-14.18-22.42-34.49-31.75-56.4-32.68-76.69,33.5-165.62,34.94-187.66,5.58-56,28.4-44.32,44-115.37,228-95,480.05,361.47,198.87,337.92m-126.47-171c6.79,2.06,12.58,6.78,22.56,10.32,13.26,4.7,17.41,2.29,30,3.94-7-9.49-9.75-18.72-25.36-23.79-12.71-4.14-21.92-1.68-29.86,3.77C789.56,1127.62,794.44,1129.54,796.76,1130.24Zm-64.48-25a33,33,0,0,0-24.78-24.36c-5.59-1.37-9.21-.63-12.48,1.38-2.47,3.4-4.88,9.3-4,14.1,8.84,9.82,28.32,9.36,36,11.62C730.89,1109.12,733.07,1108.23,732.28,1105.26Z"/>
  </g>
  <path class="lipMaleBrown__noStroke" d="M2023.27,364.4c9.86,2.6,22.1,3.24,31.28,1,11.84,4.13,27.15,1.43,31.15,15.22-12.24,14.9,5.31,66.05-54.63,71.89-62.58,6.09-61.61-49.55-84.48-62.59C1988.66,359.39,2008,367.38,2023.27,364.4Z"/>
  <g class="eyebrowLightGray">
    <path d="M2127,158.64a51.34,51.34,0,0,0-7.38-18.78c-22.93-6.71-36,.1-64.18-7.62C2051.44,168.14,2097.84,148.62,2127,158.64Z"/>
    <path d="M2000.46,133.56c2.1,30.84-46.31,15.69-68.43,18.42-53.29,6.58-54.28,25.33-64.81,19.74C1919.88,119.06,1951.27,136,2000.46,133.56Z"/>
  </g>
  <path class="hairLightGray" d="M1931.19,398.66c3.78-36,49.77-50.24,73.4-44.94,28.06,6.29,41,8,68.58,1.63,8-1.86,24.75-7.31,25.37,38.79.35,26.09-34.95,107.64-57.64,66a46.79,46.79,0,0,1-20.21,1C2006.1,495.68,1925.24,455.25,1931.19,398.66ZM1690.71,206c12.64-8,35.77-5.92,44.42,8.77,50.08,24.26,23.89,119.15,20.14,186.71-2.64,47.55,44.47,74.41,52.67,122.82,6.71-7.78,12.55-20.86,16.22-35.43,30.77,43.65,68.47,45.13,93.64,77.86,3-10.61,3.37-21.83,1.79-33.5,29.4,29.39,72.54,20.14,100,67.44,35.12-23,55.45-53.16,65.2-88.43,4.17,10.68,10.25,19.07,18.76,24.57.36-42,36.92-71.05,21-114.78a70,70,0,0,1-25.9,25c-7-21.25,15.53-53.8,1.86-94.8-8.65-26-30.34-12.64-46.84-13-33.38-.75-71-20.08-115.71,12-42.22,30.32-12.31,57.42-46.08,101.6-33.83-12-62.72-31.33-85.75-59.4,9.44,2.63,20.63.72,32.63-3.35-51.91-34.49-68-108.39-58.77-172.33,8.86-61.18,63.76-91-14.61-136.67,6.56-8.32,12.89-15.69,21.32-22.64-74.61,3.79-75.14,64-121.4,85.26,12.74,3.6,25.19,3,37.24-3.46C1689.33,155.6,1682.67,185,1690.71,206Z"/>
  <g class="lipMaleMedium__noStroke">
    <path d="M694.31,1209.13c2.5-1.58,8.2,3.86,15.86,6.35s17.56,1.13,20.05,5.72c5.51,8.34,16.37,22.19,30.37,32.35-11.78,6.67-24.52,32.31-59.83,19.18-32.42-12.06-12.28-33.8-20.06-47.26C691.46,1220.4,688.41,1211.3,694.31,1209.13Z"/>
    <path d="M402.68,927.91c-35.34,4.07-34.38-30.23-49.37-40.29,19.2-9.22,25.28-25,40.18-28,12.63,5,19.57,5,32.45.49,12.39,2.3,5.91,17.49,16.85,23.82C432.65,895.19,438.48,923.78,402.68,927.91Z"/>
  </g>
  <g class="mouthInner">
    <path d="M2001.16,422c32.29,8.87,66.33-.59,81.37-44.71-16.85-12.12-17.89-3.86-41.62-3.6-24.25.25-30.7-17.8-85.91,12.64C1970,400,1977.45,415.52,2001.16,422Z"/>
    <path d="M754.09,1251.11c-21.1-9.46-23.65-23.14-37.6-22.61-9.91.37-9.68-1-14.1-4.58-6.13-5.05-13,1.57-16.41,1.65,4.07,5.92,2.93,19,18.42,25.37C731.29,1262,738,1253,754.09,1251.11Z"/>
    <path d="M437.82,882.42c-3.83-1.08-16-4-16.83-8.43-16.6,8.17-23.32-2.61-30.48-.75-9.39,2.45-14.37,8.68-32.46,13.63C370.14,897.67,412.24,921.45,437.82,882.42Z"/>
  </g>
  <g class="tongue">
    <path d="M2045.42,389.1c-30.58-11.41-53.33-14.71-69-13.25A221.13,221.13,0,0,0,1955,386.37c15,13.67,22.45,29.15,46.16,35.67,20.49,5.63,41.68,3.87,58.27-9.43C2061.24,400.3,2054.22,390,2045.42,389.1Z"/>
    <path d="M429.46,892.53c-2.29-4.91-6.7-8.7-12.91-11.54-14.95-3.07-26.91-4-36.13-3.41a94.69,94.69,0,0,1-22.37,9.29C368.9,896.56,403.9,916.69,429.46,892.53Z"/>
  </g>
  <g class="teeth">
    <path d="M2071.87,371.5c-8.29-2.51-13.44,2-31,2.23-22.84.24-29.9-15.76-76.8,7.84C1993.12,397.69,2076.68,409.78,2071.87,371.5Z"/>
    <path d="M747.46,1247.67c-15.21-9-18.64-19.64-31-19.17-9.91.37-9.68-1-14.1-4.58a8.18,8.18,0,0,0-7.45-1.62c-1.42,4.37-2.13,8.75-1.24,10.14C700,1242.91,724.2,1250.35,747.46,1247.67Z"/>
    <path d="M429.84,880c-4.21-1.49-8.39-3.53-8.85-6-16.6,8.17-23.32-2.61-30.48-.75-5.82,1.52-10,4.5-16.58,7.72C390.52,889.85,414.84,890.14,429.84,880Z"/>
  </g>
  <g class="lipOverlapLine">
    <path d="M754.09,1251.11a30.56,30.56,0,0,0,9.27,2.74"/>
    <path d="M678.42,1224.52a17,17,0,0,0,7.56,1"/>
    <path d="M702.39,1223.92a19.41,19.41,0,0,1-4.85-6"/>
    <path d="M2082.53,377.33a11.92,11.92,0,0,1,4.31,5.68"/>
    <path d="M1942.41,391a47.11,47.11,0,0,0,12.59-4.58"/>
    <path d="M348.64,887.32a21.19,21.19,0,0,0,9.41-.45"/>
    <path d="M421,874a18.2,18.2,0,0,0,3.71-2.48"/>
    <path d="M437.82,882.42a42.17,42.17,0,0,0,8,1.51"/>
  </g>
  <g class="lipEdgeLine">
    <path d="M694.31,1209.13c2.5-1.58,8.2,3.86,15.86,6.35s17.56,1.13,20.05,5.72"/>
    <path d="M681.34,1252.72c1.2,15.92,28.48,27.58,48.57,22.16"/>
    <path d="M2071.9,428.22c-17.81,32.75-71.06,28.8-88.41,11.44"/>
    <path d="M2054.55,365.35c-9.18,2.29-21.42,1.65-31.28-1"/>
    <path d="M393.49,859.62c12.63,5,19.57,5,32.45.49"/>
    <path d="M375.89,919.82c15.12,12.89,38.65,9.91,53-3.71"/>
  </g>
  <path class="smileLine" d="M1902.15,233.6a144.92,144.92,0,0,0-31.9,13.71"/>
  <g class="cheekLine">
    <path d="M2084.26,316.87a74.8,74.8,0,0,1,14.28,20.25"/>
    <path d="M1986.4,292.47c-7.24,1.39-12.76,8.82-20.84,15.22-9.91,7.86-19.37,16.62-24,26.05"/>
  </g>
  <g class="noseLine">
    <path d="M769.38,1180.32c4,5.91,3.75,18.76-9.91,22.28"/>
    <path d="M712.18,1150.21c-10.85,12.39-23.09,14.74-16.13,31.78"/>
    <path d="M723.37,1191.25c8.64-2.12,19.19-8.92,22.61,5.07"/>
    <path d="M701.36,1175c.49,3.89,2.24,6.65,7.49,10.77"/>
    <path d="M2063,254.93c2,8.79,6.13,10.44,12.51,24,6.24,13.26,29.77,24.69-3.38,49.05"/>
    <path d="M1986.4,292.47c-7.42,3.43-11.37,27.4,1.49,34.84"/>
    <path d="M2004.46,325.62c-7.1-21.31,20.63-1.35,31.12,1.35"/>
    <path d="M2080.22,314.76c-4.36-11.64-3,9.78-21.48,12.37"/>
    <path d="M363.44,831.41c-8.52-6.45-6.52-21.56,1.13-26.09"/>
    <path d="M430.94,827.72c-23,21.49-38.57-1.42-53.89,2"/>
    <path d="M438,805.32c9.07,2,13.33,17,4.25,23.82"/>
  </g>
  <g class="eyeFoldLine">
    <path d="M837,1158.82c-9.94,3.62-30.79-2-39.08-12.7"/>
    <path d="M715,1120.29c-8.77,1.32-26.45-.25-30.42-12.53"/>
    <path d="M2114.05,241.71c-14.54,7.44-36,3.78-47-3.05"/>
    <path d="M1978.26,238.19c-12.81,10.58-41.09,11.05-56.53,1.67"/>
    <path d="M486.81,752c-7.75,6.19-22.66,4.13-30.92,0"/>
    <path d="M335.36,750.86c-16.52,9.81-32.19,3.87-39.42,0"/>
  </g>
  <g class="eyeCornerLine">
    <path d="M862.44,1154.28c-6.12-1.83-9.6-5.61-13.07-9.78"/>
    <path d="M695,1082.28c-2.44.5-6.6,2-8.88,1.64"/>
    <path d="M691,1096.38c-2.1-2-4.89-3.48-6-4.37"/>
    <path d="M1882.75,219.44c7.91,4.35,18,1.47,24.82-.87"/>
    <path d="M2112.35,206.5c2.39,1.36,3.86,2.36,6.4,2.72"/>
    <path d="M2111.57,216.26c3.56.69,7.28,1,11.28,4.43"/>
    <path d="M512,728.61c3.4,2,8.07,5.11,11.11,4.53"/>
    <path d="M268.55,735c6.52-1.39,9.17-2.44,12.54-5.3"/>
  </g>
  <g class="eyeCreaseLine">
    <path d="M2060.27,196.52c45.66-19.62,58.18.33,56.83,8.11"/>
    <path d="M1911.11,206.09c19.28-13.87,46.67-26.39,64.23-7.53"/>
    <path d="M281.48,715.13c16.73-8.79,46.51-26.94,72.37-3"/>
  </g>
  <g class="eyebrowBlack">
    <path d="M880.31,1125.59c-19.72-55.49-53.43-43.38-82.3-56.53C809.08,1098.24,849.58,1082,880.31,1125.59Z"/>
    <path d="M691.67,1038.11a84.13,84.13,0,0,0-4.42,9.42c25.3-3.66,38.38,17.59,54.49,3.66C727.39,1047.2,712.62,1031.78,691.67,1038.11Z"/>
    <path d="M258.42,685.61c33.55-36.82,71.51-15.78,110-17.26C349.28,692,295.84,660.22,258.42,685.61Z"/>
    <path d="M437.94,669.34c24.17,6.9,57.21-17.76,86.81,18.74C490.71,666.38,455.7,690.55,437.94,669.34Z"/>
  </g>
  <g class="hairBlack">
    <path d="M1074.08,967.74c5.28-11.1,46.08-20.26,75.74,1.64-18.67-31.7-82.15-45-105.65-27.52,10.62-28.39-12.67-126-58.29-138.18,26.65,22.59,30.53,92.94,24,114.77-31-16.19-83.21-41.91-159.18-43.38-87.49-1.68-123.92,55.56-176.43,69.7,11.79,4.23,40.09,5.23,52.8,2.12-28.74,14-46.33,48.55-46.25,75.71,46.83-24.47,74.42,47.67,165.53.34-3.52,10.49-26.85,25.29-41.78,31.37,22.52-.78,61.58,9.89,106.54-52.44-26.54,74.36-12,128.15-4.17,138.34-1-10.57,5.54-41.79,12.31-54.82,2.22,23.15,9.56,44.57,20.61,65.52,6.16,24-11.29,56.85-28.66,81.67,36.92-14.66,43.23-56.2,53.66-40.12,10,13.42,27.08,32.74,40.28,44.22-4,16.83-25.39,40.18-49.39,47.62-15.13,4.64-25.38,15.7-37.49,9.56-6.33,12.25-10,26.47-12.18,40.46,14.34,21.86,37.57,35,62.26,33.62-22-26.77,2.68-49.16,49.2-70.48,54.63-25,113.45-83.56,106.75-189.32,14.79,21.79,23.59,45.3,25,70.92C1171.85,1103.57,1134.64,1016.68,1074.08,967.74Z"/>
    <path d="M446.12,420.3C381.86,395.62,281,405.24,247,428.37c-.4-25.92,26.92-54.77,45.21-67.28-34.71,5.43-64.82,41.06-66.2,73.2-8.2-15.7-50.29-23.15-64.59,7.54,20-18.47,43.07-8,47.36,8.07-102.69,73.18-93.11,208-76.1,254.41,6.4-9.22,30.15-11.42,34.19,27.92,4.5,2,16.61,2.57,22.76,1.12.41-25.36-5.73-28.64,15.54-63.81,19.6-3,45.88-15.48,58.25-40-.9,10.82-4.9,20.79-9.63,31.72,17.68-4.9,42.18-42.33,41.18-106.7,22.77,130.72,122.92,79.87,156.93,103.58-2.31-10-16.74-25.59-25.59-32.13,60.84,45.55,104.83-2.81,137.27,32.44,7.62-27.2,9-43.5-3.34-70.22,8.74,3.1,19.83,16.38,31.75,15.61-35.52-44.67-18.33-83-62.71-118.94,10.39,0,24.63-3.91,34.62-9.8C525.23,467.66,483.37,434.61,446.12,420.3Z"/>
  </g>
  <g class="hairOverlapLine">
    <path d="M939.85,1150.91a333.69,333.69,0,0,0,25,41.55"/>
    <path d="M1005.13,1236.68a152.5,152.5,0,0,0,24.81,20.43c-9.65-17.61-16.53-37.62-21.45-59.35"/>
    <path d="M205.15,669.54c-8.46,3.07-23.53,4.49-29.3,4.88"/>
  </g>
  <g class="hairFoldLine">
    <path d="M1765.4,81.13a37.58,37.58,0,0,0-7.33-3.53"/>
    <path d="M1891.9,452.88a60.54,60.54,0,0,1-15.27,13"/>
    <path d="M2098.67,447.07c.9,4.92,2.66,8.91,5.77,11.42"/>
  </g>
  <g class="skinOverlapLine">
    <path d="M132.71,1844.25c0,14.41-5,31.58-12.33,39.22"/>
    <path d="M73.85,1885.51c-2.33,25.11-3.92,42.45-.67,53.14s2.79,14.88,13.49,30.69"/>
    <path d="M42,1882.77c0,22.79-4.19,44.41,3.72,57.74"/>
    <path d="M21.1,1879.59a96.2,96.2,0,0,0,.46,40"/>
    <path d="M583.49,1945.33c5-6.06,8-18.36,10.26-34.65"/>
    <path d="M1413.44,1640.15c-4,12.14-1.43,26.59,1.66,41.35"/>
    <path d="M1435.77,1650.8c.49,14.88,5.57,35.25,13.11,52.5"/>
    <path d="M1471,1653.77c-.11,15.69,14.89,48.62,24.76,61.52"/>
    <path d="M1538.1,1712.32c3.34-17.86-13.53-31.26-10-70.34"/>
    <path d="M588.62,1860.64c-10.94-.94-21.52.73-31.72-.7"/>
    <path d="M591.06,1891.07a134.57,134.57,0,0,1-33.78.28"/>
    <path d="M578.43,1916.59c-7.91.86-17.68.52-21-.63"/>
    <path d="M635.84,1821.05c-4.21-5.16-13.3-5.44-16-1.79"/>
    <path d="M995.58,1227.59c-1.06,13.24-11.86,30.09-39.06,42.57"/>
    <path d="M954.76,1222.19c7.34-9.74,14.88-14.45,21.45-15.54"/>
    <path d="M951.78,1231.38c11.7,16.08-17.69,23-11.09,31.52,4.56,5.92,8.07-9.22,22.81-12.9,20.9-5.21,14.57-26.46,3.66-21.66"/>
    <path d="M918.25,1293.86c-6.29-1.87-11.7-8.06-12.48-15.79"/>
  </g>
  <g class="skinFoldLine">
    <path d="M2340.63,827.47c.25,17.33-4.69,37.9-20.18,65.07"/>
    <path d="M1557.44,1059.46c-11.64-15.9-27.85-28.19-49.23-36.41"/>
    <path d="M2759.14,982.71a28.16,28.16,0,0,1-5.2,21.95"/>
    <path d="M2742.19,1040.25c-.41,5.51-2,12.63-7.33,14.67"/>
    <path d="M2713.2,1084.23c-2.66,5.69-6.95,10.87-14,13.26"/>
    <path d="M1554.84,1615.08c-9.92,17.36-24.45,29.88-41.68,30.76"/>
    <path d="M1101.16,1536.46c10.31,9.42,15,27.94,12.8,41.41"/>
    <path d="M657.54,1697.78c-12.34-6-24.34-10.06-35.84-11.2"/>
    <path d="M1382.81,1573.75c4.42.58,9-1.46,13.6-3.6"/>
    <path d="M1361.91,1627.06c9.2,1.9,22.88-2.42,28.33-8"/>
    <path d="M155.79,743.07c-13.18-42.52-27-10.84-19.73,16.16"/>
    <path d="M162.14,760.79c-15.92,14.81,13.64,35.44,2.92,41.28-4.83,2.63-5.83-14.33-14.9-23.07-11.48-11-6.54-29.83.53-27.21"/>
    <path d="M1731.53,250c-19.23-66.64-81.89-10.28-36.14,49.08"/>
    <path d="M1734.19,265.91c-19.57,11.27,13.43,32.66,2.32,38.79-9.62,5.31-2.65-13.26-23.88-16.91-23.14-4-12.6-47.41,4.65-33.16"/>
    <path d="M1735.13,214.8c2.74,5.12,4.6,9.82,4.73,13.72"/>
  </g>
  <g class="skinCreaseLine">
    <path d="M2716.17,991.82c-16.55,30.92-56.11,53.22-84.16,45.31"/>
    <path d="M2613,974.35c-4.08,10.21,3.58,32.14-6.19,52.71"/>
    <path d="M2809,947c2.2,6.41,3,12.39.91,17.49"/>
    <path d="M2818.89,1022.41c1,6.63.09,14-4.43,18.69"/>
    <path d="M2783.1,1097.79c-2.08,5.29-4.91,10-10.25,12.66"/>
  </g>
  <g class="skinEdgeLine">
    <path d="M104.8,1870.76c-23.71-13-26,0-40-6.51-15.89-7.42-18.6,4.18-29.76-1.87-8.23-4.45-14.42,0-17.21.94"/>
    <path d="M1489,1633c-16.41,5.2-21.88-4.35-36.82-2.4-18.4,2.4-22-10.4-32.41-9.2-14.11,1.62-16-6.81-20.41-10"/>
  </g>
</svg>
