<svg id="presence" xmlns="http://www.w3.org/2000/svg" viewBox="0 0 2592.6 2502.22">
  <defs>
    <style>
      .cls-1 {
        fill: none;
        stroke: #000;
        stroke-miterlimit: 10;
        stroke-width: 2px;
      }
    </style>
  </defs>
  <title>reassuringEnchanted</title>
  <g id="willy">
    <g id="willyShoe">
      <path class="cls-1" d="M1127.14,2222.93c8.42-21.39,23-43.91,41-67L1335,2176c18.25,60.14,43,113.81,81.76,153.46,15.41,10.73,52.83,22.6,66.61,44.25C1405.37,2484.93,1155,2376.49,1127.14,2222.93Z"/>
      <path class="cls-1" d="M2174.56,2298.65a295.13,295.13,0,0,1,.79-107.9l168.87-50.26q53.12,46.46,129.33,65c26.52-1.64,53.92,1.85,82.15,10.3C2588.15,2319.41,2247.05,2388.44,2174.56,2298.65Z"/>
    </g>
    <g id="willySole">
      <path class="cls-1" d="M2174.56,2298.65c-.28,17.94-1.44,33.86,11.53,46.83,17.29,23.06,139.87,4.85,229.12.72,77.81-3.6,166.16-29.29,176-87.9,3.35-19.9-15.33-40.35-35.51-42.51-49.71,7.2-85,47.55-102.31,87.9-36.74,20.9-182.47,24.73-229.84,13.37C2205.54,2312.73,2188.25,2303,2174.56,2298.65Z"/>
      <path class="cls-1" d="M1127.14,2222.93c-11.54,17.15-21.87,32.23-17.84,55.82,7.48,34,73.62,61.12,132.94,113.38,80.37,70.81,215.72,66.64,250.94,28.2,12-13.13,2.8-36.58-9.81-46.62-28.2-22.44-97.57-8.64-151.93,24.17-44.89-.57-151.9-87.07-181.28-127.76C1142.68,2259.76,1133.47,2249.4,1127.14,2222.93Z"/>
    </g>
    <g id="willyShoelace">
      <path class="cls-1" d="M2379,2166.37c-19.81,4.64-42.34,17.46-65.59,32.42A375.84,375.84,0,0,0,2414.58,2239c20.39-15.9,40.14-27.65,59-33.51q-52.83-12.82-94.53-39.11Z"/>
      <path class="cls-1" d="M1357.07,2236.88v0c-24.23-4.72-49.24-3.19-74.67,1.83,15.7,35.68,41.09,67.53,73.4,96.63a172.06,172.06,0,0,1,61-5.86C1391.66,2303.79,1372.45,2272.25,1357.07,2236.88Z"/>
    </g>
    <g id="clothesOverlapLine">
      <path class="cls-1" d="M1404.72,2316.19c-18.7-1.32-40.74.28-63.54,5.3"/>
      <path class="cls-1" d="M1394.42,2303.09c-20.59-2.87-43.21-.6-66,5"/>
      <path class="cls-1" d="M1385.13,2289.7c-18.42-2.48-43-1-68.74,4.27"/>
      <path class="cls-1" d="M1376,2274.72c-19-4.59-45.88-3.21-71.4,3.39"/>
      <path class="cls-1" d="M1366.74,2257.55c-14.89-6.37-44.9-5.09-74.31,1.18"/>
      <path class="cls-1" d="M2453.64,2200.06a208,208,0,0,0-57,34.24"/>
      <path class="cls-1" d="M2436.51,2194.35q-31.86,13.8-55.2,35.14"/>
      <path class="cls-1" d="M2418.89,2187.34c-21.5,10.22-40.38,21.85-55,35.79"/>
      <path class="cls-1" d="M2402.73,2179.78c-20.34,8.4-39.66,20.44-58.26,35"/>
      <path class="cls-1" d="M2389.56,2172.71c-19.55,7.45-39.82,19.79-60.46,34.61"/>
    </g>
    <path id="willyPants" class="cls-1" d="M2062.69,1001.7c10.55,131.21,55.8,190,90.45,369.64,12.87,66.7,40.76,82.82,52.82,176.33,6.45,49.92,30.17,72.39,34.69,123.67,4.32,48.94,37.71,48.26,39.22,131.22,1,53.12,17.81,104.36,22.62,132.72,4,23.51,111.61,66.36,22.62,143.28,60.18,5.42,30.36,35.24,31.68,73.9-28.59,37.25-120.6,54.21-188.53,93.51-18.12-27.37-76.83-41-54.76-70.83,40.12-54.25-18.59-54.37-38.45-66.73-115.07-71.64-92.2-322.06-152.39-384.83-19.18-20-1.7-60.41-20.45-84.35-40-51.12-14.52-62.51-40.9-82.64-16.66-12.71-14.48-83.5-86-228.34-5.76,20.29-34.44,50-37.33,79.12-7.68,77.56-93.18,195.54-131.85,310.9-26.71,79.67-69,152.79-113.45,215.25,12.68,76.82-53.89,88.66-62.65,136.49-9.69,52.95-24.64,57.86-58.17,60.41,3.74,32.07-3.13,58-23.12,75.33-107.41,30.58-150.66-12.68-199.89-30.58-3.37-13.31,3-30.86,11.19-49.22-20.8-37.29-42.54-81-10.44-130.53,61.92-95.54,74.92-208.27,100.68-208.09,73.1-100.69,42.52-137.23,92.49-212.56-13.43-41.77,38-43.26,29.83-76.08-14.17-47.73,33.57-164.08,65.64-527.31Z"/>
    <g id="clothesFoldLine">
      <path class="cls-1" d="M2325.11,2078.56c-31.62,23.51-64.38,55.11,4.53,36.37"/>
      <path class="cls-1" d="M2253.32,1870.71c-22.73,123.51-54.63,208.87-145.41,152.64"/>
      <path class="cls-1" d="M2167.36,2163.93c149.9-79.37-39.36-49.31-81.14-64.64"/>
      <path class="cls-1" d="M2323.21,2142.24c-47.88,31.26-103.23,42.46-164.69,49-13.19,1.4-12,8.93-3.21,17.67"/>
      <path class="cls-1" d="M2153.34,1475.82c-7.47,55.66-67.64,13-130.21-34.11"/>
      <path class="cls-1" d="M2139.39,1663.37c32.55,58.9,85,125.7,114.7,93"/>
      <path class="cls-1" d="M2015.38,1615.32c33.06-25.13,85.25,55.8,128.66,139.5"/>
      <path class="cls-1" d="M1902.21,1639.23c18.6,18.21,33.12,36.55,35.18,55.29"/>
      <path class="cls-1" d="M1517.54,1304.14q10.23,79.65,20.47,137.57"/>
      <path class="cls-1" d="M1489.39,1365.56c11.48,65.28,24.12,125.26,38.39,177.86"/>
      <path class="cls-1" d="M1435.64,1553.66c16.64-25.59-35.82-15.35-62.7,5.12"/>
      <path class="cls-1" d="M1463.8,1610c102.36-57.24,53.74,16.64-89.58,129.24"/>
      <path class="cls-1" d="M1467.63,1969.53c-27.27,24.48-47.21-5.3-66.53-39.67"/>
      <path class="cls-1" d="M1234.75,1868.44c57.64,1.64,87.69,61.7,108.76,140.76"/>
      <path class="cls-1" d="M1250.23,1787.33c12-.85,27.75-10.59,45.41-24.93"/>
      <path class="cls-1" d="M1357.42,2041c32.64,40.81,28.95,62.1-32.46,52.36"/>
      <path class="cls-1" d="M1160,2126c6.84,12.4,33,19.73,37.21,45.91"/>
      <path class="cls-1" d="M1371.81,2130.42c-64.66,2.69-144-19.28-151.57-5.68-11.13,20,57.59,41.89,99.48,41.89"/>
      <path class="cls-1" d="M1871.57,1219.39c34.29,1.85,78.56-2.77,111.22.92"/>
      <path class="cls-1" d="M1764.07,1187c-56.59-15.11-110.24-23.15-159.41-20.39"/>
      <path class="cls-1" d="M1767.77,1213.83c-31.51,1.73-64.79,10.35-99.16,23.17"/>
      <path class="cls-1" d="M1842.84,1192.51c34.29-38.92,98.31-86.53,110.29-75.07,6.89,6.6-46.22,39.39-82.48,66.73"/>
      <path class="cls-1" d="M1799.76,1258.78c18.45,21.46,70.2,54.88,110,89.34"/>
    </g>
    <g id="clothesDisplayLine">
      <path class="cls-1" d="M1842.84,1046.08c-3.63,29.11,23.16,67-3.7,119.55-23.88,46.72-10.9,65-47.49,101.95-23.14,23.34-9,45.66-16.39,60.67"/>
    </g>
    <path id="willyShirt" class="cls-1" d="M1697.58,71.28l213.56,8.08c56.73,16,102.06,54.39,127,60,17.64,4,49.91-1.5,61.18,35.78,16.64,6.41,36.67-2.69,41.56,46.18,21.75,12.35,49.12,52.48,76.19,85.42,14.2,64.17-68.33,164.31-112,181.25-4.91,1.26-11-7.23-20.51-14,1,24.35,35.63,33.45,15.72,64.52,37.51,157.07,16.09,241.15,3.12,320.36,10.59,24.17-3.24,37-11.5,52.63-23.3,62-15.41,90.57-20.25,105.76-335.71,78.72-473.44-8.77-638.33-34-10.91-230.29-1.65-552.48-60.23-565.64,10.38-37.66,44.78-73.51,61.91-110.46,35-75.57,65.57-136.72,108-162C1592.84,115.46,1647.54,101.16,1697.58,71.28Z"/>
    <g id="clothesOverlapLine-2" data-name="clothesOverlapLine">
      <path class="cls-1" d="M2073.6,308.28c17.28,63.45,7.27,135.56,11,165.76"/>
      <path class="cls-1" d="M1559.63,514.12c6.95,1,13.18,2,16.12-3.05,38.51-66.78,81.93-138.28,91.26-191.64"/>
    </g>
    <g id="clothesFoldLine-2" data-name="clothesFoldLine">
      <path class="cls-1" d="M1480.81,874.8c71.15,26.71,90.74,52.71-4.15,45.25"/>
      <path class="cls-1" d="M1483.63,851c70.47,43.76,162.73,33.79,224.35-8.25"/>
      <path class="cls-1" d="M1722.94,871.94c-62.65,20.17-120,44.87-168.49,77.3"/>
      <path class="cls-1" d="M1741.82,904.72c-24.93,8.9-54.85,54.14-68.75,70.88"/>
      <path class="cls-1" d="M1741.11,929.29c-10.44,12.57-18.43,25.91-22.08,40.61"/>
      <path class="cls-1" d="M1821.16,967.27c50-28.28,97-32.34,140.31-7.2"/>
      <path class="cls-1" d="M2059.32,859.34c13.7,12.26,20.9,27.62,20.15,46.77"/>
      <path class="cls-1" d="M2075.15,814.73c8.63,25.9,20.15,26.62,28.26,44.19"/>
      <path class="cls-1" d="M1610.34,504.62c33.77,14.61,65.33,32.39,94.26,54"/>
      <path class="cls-1" d="M1615.49,441.69c25.07,35.59,56,64.37,107.45,89.91"/>
      <path class="cls-1" d="M1575.09,296c-11,49.43-15.34,98.17-11.52,146.06"/>
      <path class="cls-1" d="M1500.26,255.67a458.38,458.38,0,0,1-82,107.93"/>
      <path class="cls-1" d="M1634.09,229.05c9.35,32.37,38.43,96.94,5,87.06"/>
      <path class="cls-1" d="M1662.87,219c7.91,48.93,1.74,74.29,5.37,80.53,8,13.75,26.29-63.26,14.77-132.33"/>
      <path class="cls-1" d="M1711.79,211.78c-4,45.73-10.6,86.41-30.93,99.29"/>
      <path class="cls-1" d="M1732.66,388.78c56.09,8.65,145.34,6.47,216.57,8.63"/>
      <path class="cls-1" d="M2026.94,414c-81.52,5.53-157.61,8.52-224.49,7.2"/>
      <path class="cls-1" d="M2099.31,175.17c11.1,36.61,11.82,116.47,23.33,60.35"/>
      <path class="cls-1" d="M2140.87,221.35c2.84,38.41-1,71.62-6.72,103.39"/>
      <path class="cls-1" d="M2035.58,212.5c15.76,33.17,22.22,59.93,20.86,81.3"/>
      <path class="cls-1" d="M2081.63,300.28c10.79-57.56-1.22-119.86-21.59-105.09-13.94,10.11,24.53,26.16,13.56,113.09"/>
    </g>
    <g id="skinLatino">
      <path class="cls-1" d="M1370.36,1055.05c-16.35-134.35-82.95-250-56.91-436.11,3.54-25.27-8.51-47.57,73-196.16,43.53,23.06,90.74,59.6,173.22,91.34-16.29,43-36.22,83.6-60.42,121.51,14,113.32-41.22,262.87-19,408.91"/>
      <path class="cls-1" d="M2556,529.82c-107.09-9.55-195-120.19-273.56-126.18-8-11.93-28-41.58-63.73-82,.44,57.91-60.35,135-101.76,160.32,21.87,19.85,47.87,36,64.76,54.18,85.89,92.24,204.64,76.34,334,97.55"/>
      <path class="cls-1" d="M1728.9.14c-3.89,28.34-12.36,53.45-31.32,71.14,8.81,54.27,99.66,89.64,218.64,113,45-38.28,47-73.51-5.08-104.87l-3-18.13"/>
    </g>
    <g id="skinFoldLine">
      <path class="cls-1" d="M2282.4,403.64c.26,17.33-4.68,37.9-20.18,65.07"/>
      <path class="cls-1" d="M1499.21,635.63c-11.63-15.9-27.85-28.19-49.22-36.41"/>
    </g>
  </g>
  <g id="christopher">
    <g id="christopherSock">
      <path class="cls-1" d="M839.9,2344.54c-1.81-12-7.28-17.19-6-27,17.87-1.18,63.33-15.38,77.66-26.33,9.59,10.46,7.59,28.38,18.3,41.84C905.4,2368.53,856.93,2363.81,839.9,2344.54Z"/>
      <path class="cls-1" d="M608.08,2265.07c6-9.79,4.61-21.8,14.58-32.47,11,13.08,57.23,30.45,75.6,28.87-1.48,15.69-12.07,24.27-15.08,39.76C643.86,2301.64,617.66,2290.61,608.08,2265.07Z"/>
    </g>
    <g id="christopherSoleSide">
      <path class="cls-1" d="M1065.41,2379.54c24.1,33.57-44.44,63.22-79.18,65.42-49.93,3.16-91.67,18.33-121.65,18.65-18.58.19-21.82-15.59-24.53-32.71C934.54,2395.79,1024.09,2365.26,1065.41,2379.54Z"/>
      <path class="cls-1" d="M797.73,2398.48c17.5,36.15-67.81,42.22-94.11,39-42.46-5.16-140.91-58.52-144.89-74.6-3.31-13.35.31-24.93,7.46-35.57C663.83,2350.86,763.36,2374.37,797.73,2398.48Z"/>
    </g>
    <g id="christopherShoe">
      <path class="cls-1" d="M897.6,2354.62c6.82-17.24,17-27.7,34.11-24.14,23.67,20.27,48.51,34.87,75.17,32.14,22.38-2.3,49.3.34,58.53,16.92-15.2-.86-40.74,13.92-50.49,32.86-14.86,13-35,15.91-51.93,17.36-50,4.28-86.65,24.67-122.94,1.14-8.28-29.48-9.47-60.18-.15-86.36C851.67,2352,880.36,2344.25,897.6,2354.62Z"/>
      <path class="cls-1" d="M657.14,2295.77c9.75-9.76,29.63-10.41,35,0,41.67,80.71,91.53,64.55,105.59,102.71-20.66-9.18-55.24.86-73,22.38-62.4,4-137.28-47.05-158.51-93.53,10.44-27.23,23.63-49.41,41.89-62.26C627.3,2288.88,649.11,2283.72,657.14,2295.77Z"/>
    </g>
    <g id="christopherStrap">
      <path class="cls-1" d="M950.65,2345.08c-18.1,9.38-33.3,21.76-42.56,39-3.83,7.11,15.77,17.15,23.92,10.31-4.42,7.36,25.14,13.47,30.55,5.52,10.64-15.63,25.65-27.9,44.32-37.27C987.23,2364.63,968.58,2357.23,950.65,2345.08Z"/>
      <path class="cls-1" d="M649.32,2327.38c8.91,16.63,26.07,31.35,46.75,45.27,15.24-8.71,37.18-13,55.68-11.58,5.94.45-7.41-15.91-27.73-20.79,2.36-6.3-11.32-21.32-18.94-22.71C684.37,2313.79,665.62,2317.36,649.32,2327.38Z"/>
    </g>
    <g id="clothesOverlapLine-3" data-name="clothesOverlapLine">
      <path class="cls-1" d="M897.6,2354.62c7.84,3,13.84,9.34,19.6,16.07"/>
      <path class="cls-1" d="M657.14,2295.77c4.14,6,6.45,14.48,10,23.56"/>
    </g>
    <g id="clothesBorderLine">
      <path class="cls-1" d="M670.54,2353.1c11.42-8.73,38.15-12.87,53.48-12.82"/>
      <path class="cls-1" d="M973.09,2357.31A87,87,0,0,0,932,2394.37"/>
    </g>
    <path id="christopherShortsInner" class="cls-1" d="M644.15,1884.87c-5.93-17.43,18.33-25.32,25-1.06C657.57,1886.3,646.21,1888.66,644.15,1884.87Z"/>
    <g id="skinEastAsian">
      <path class="cls-1" d="M694.87,2261.55c49.6-85.11,134.91-229.59,201.46-413.75-85.54-12.66-153,17.14-188.27,123-58.88,66.85-46,156-83.23,264C637.92,2246.8,676,2261.12,694.87,2261.55Z"/>
      <path class="cls-1" d="M909.74,2292.52C895.43,2213.83,890,2142.65,878,2089.11c-4.23-19,.12-35.69-6.93-65.48-10.72-45.31,3.91-23.37-23.55-164.42,15.77-121.54-93.83-54.73-196.2,1.22,38,88,81.07,166.74,87.18,201.32,18,102,64.4,149.61,97.62,255.62C854.56,2315.35,894.41,2302.83,909.74,2292.52Z"/>
    </g>
    <path id="christopherShorts" class="cls-1" d="M940.17,1593c2.75,27.49,13.71,35.34,5.24,59.14-8,22.63,12.08,20.16-23.65,196.07-4.58,9.16-55,17.41-74.21,11-3.72-17.53-7.13-35.61-11.91-48.56-33.9-6.41-191.49,55.89-191.49,74.22-29.54-56.9-51.31-132.85-55.89-192.41-1-13.08-11.91-17.15.92-31.81,3.66-18.33-13.75-30.24,4.58-43.07.73-11.14,3.92-16.38,9.16-25.9C717.58,1596.22,830.14,1596.93,940.17,1593Z"/>
    <path id="christopherWaistband" class="cls-1" d="M940.17,1593c3.67-7.46-.72-23-.6-36l-332.87-3.7c-2.23,16.19-7.9,29.33-3.78,38.4"/>
    <g id="clothesOverlapLine-4" data-name="clothesOverlapLine">
      <path class="cls-1" d="M887.7,1681.62c-14.14,26.83-43.92,47.2-68.17,59-2.62-19.67-39.47-79.55-57-76"/>
      <path class="cls-1" d="M819.53,1740.62c2,26.22,26.87,64.89,16.11,70"/>
    </g>
    <g id="clothesFoldLine-3" data-name="clothesFoldLine">
      <path class="cls-1" d="M841.84,1595.29c8,15.64,3.86,40,6,63.48,5,53.94-19.09,62.06-28.34,81.85"/>
      <path class="cls-1" d="M888.05,1759.15c-17.48-9.91-34.48-16.27-50.79-17.67"/>
      <path class="cls-1" d="M910.88,1687c-11.46,11.51-23.81,22-38.29,30.18"/>
      <path class="cls-1" d="M762.5,1664.57c-17.26,7.71,15.45,12.6,32.38,45"/>
      <path class="cls-1" d="M801.57,1725c-32.51-28.73-91.39-47.87-116.05-45.45"/>
      <path class="cls-1" d="M746.93,1708.09c-33.84-12.8-66.86-13.38-99.12-2.9"/>
      <path class="cls-1" d="M589.18,1660.65c12.21-6.62,27.2-6.1,41.7-.92"/>
      <path class="cls-1" d="M593.76,1617.58c33.25-8.52,91.28,5.4,135.77,33"/>
      <path class="cls-1" d="M602.84,1633.62c21.17-2.65,44.4,2,69.14,12.09"/>
      <path class="cls-1" d="M886.68,1641.36c-21.12-1.36-41.14-1.43-59.48.48"/>
      <path class="cls-1" d="M931.68,1593.31c2.37,9,3.71,19.22,2.39,27.26"/>
      <path class="cls-1" d="M922.4,1593.61a28.41,28.41,0,0,1,1,14.38"/>
      <path class="cls-1" d="M854.87,1595.13c2.69,7.66,3.33,14.1,1.83,21.57"/>
      <path class="cls-1" d="M824.36,1595.53c2.65,5.86,3.32,10.32.91,15.37"/>
      <path class="cls-1" d="M809.81,1595.53c2.39,9.28,2.59,16.77.47,24.55"/>
      <path class="cls-1" d="M627.52,1592.6c-1.71,7-2,14-.51,19.26"/>
      <path class="cls-1" d="M613.16,1592.08a28.1,28.1,0,0,0-1.62,12.53"/>
    </g>
    <path id="christopherShirt" class="cls-1" d="M1016.88,1188.68c9.16,36.3-38.22,90.73-71,87-4.55,50.08-7,71.1-6.57,105.52,1,88.71,18.14,98.79,3,125.87,7.64,11.39,10.47,23.45-3.5,37.86,5.62,4.81.89,13.59,5.25,22.72-66.61,17.89-283.76,18.38-343.69-12.23,11.67-42.26,2-92.06,17.33-125.83L568.4,1197.77c13.36-42.26,13.36-93.44,53.41-117.17,19.82-11.74,47.46-20.76,83.68-34l134.07,2C954.47,1072.77,962.53,1135.27,1016.88,1188.68Z"/>
    <g id="clothesOverlapLine-5" data-name="clothesOverlapLine">
      <path class="cls-1" d="M930.89,1174.46c10.82,29.59,17.39,68,15,101.24"/>
      <path class="cls-1" d="M660.25,1202.43c.82,24.24-3.89,42.07-8.17,59.64-3.23,13.27-4.06,37.13-11.76,34.63"/>
    </g>
    <g id="clothesFoldLine-4" data-name="clothesFoldLine">
      <path class="cls-1" d="M949.89,1160.81c.51,23.85-1.94,42.61-7.79,55.51"/>
      <path class="cls-1" d="M959,1206.14c5.77,19.65,7.9,37.2,4.8,51.72"/>
      <path class="cls-1" d="M635.27,1129.88c-2.54,27.65,2.52,55.2,16,82.65"/>
      <path class="cls-1" d="M599.54,1172.54c1.8,24.38,8.19,48.93,17.6,73.59"/>
      <path class="cls-1" d="M596.88,1223.2c1.17,12.3,3.8,22.41,8.53,29.33"/>
      <path class="cls-1" d="M680.06,1166.68q-6.09,25.89-19.81,35.75c13.41-48-8.45-65.62-9-23.49"/>
      <path class="cls-1" d="M698.19,1303.19c2.26,28,7.07,52.32,15.47,71.45"/>
      <path class="cls-1" d="M681.66,1348.51c7.15,38.1,16.52,72.19,30.4,98.12"/>
      <path class="cls-1" d="M896.56,1375.18q-8.05,42-33.06,82.65"/>
      <path class="cls-1" d="M921.09,1373c-2.42,15.66-6.47,30.78-13.86,44.8"/>
      <path class="cls-1" d="M634.74,1484.49c30.41,24.22,66,40.53,106.11,50.13"/>
      <path class="cls-1" d="M925.89,1480.23c-15.86,29.54-44.49,50-89.59,58.65"/>
      <path class="cls-1" d="M942.4,1507.09c-4.25,6.2-11.71,9.4-14.38,23.26"/>
      <path class="cls-1" d="M938.9,1545a69.74,69.74,0,0,1-38.07,8.86"/>
      <path class="cls-1" d="M850.7,1563.41a320.39,320.39,0,0,1-113.58-1.6"/>
      <path class="cls-1" d="M619.27,1508.49c37.33,37.86,137.05,44.26,20.8,40.52"/>
    </g>
    <g id="skinEastAsian-2" data-name="skinEastAsian">
      <path class="cls-1" d="M715.25,1010.15l-9.76,36.41c23.85,83.73,178.85,69.64,134.07,2l9.18-42.88"/>
      <path class="cls-1" d="M1269.24,1189.62c-71.07,25.68-153.29,22.25-229.68,26.7a220.06,220.06,0,0,0-21.57-19.71c1.22,30.62-30.16,69.3-58.31,77.63,22.71,20.83,47.16,37.18,73.73,48.13,89.73,17.06,171.31-45.24,255.11-73.64"/>
      <path class="cls-1" d="M590,1505c15.49-20.91,37.72-73.15,37.16-118.45-.77-31,13.43-59.92,13.16-89.8-19.35-6.2-59.61-14.71-79-16.26l-11.61,198.19"/>
    </g>
    <g id="skinFoldLine-2" data-name="skinFoldLine">
      <path class="cls-1" d="M1039.56,1216.32c9.82,9,14.31,26.61,12.19,39.44"/>
      <path class="cls-1" d="M620.87,1370.91c-11.74-5.68-23.18-9.59-34.13-10.67"/>
    </g>
  </g>
  <g id="preteenBennett">
    <g id="bennettSoleSide">
      <path class="cls-1" d="M437,2355.35c17.21,8.49,26.75,27.75,20.07,54.7-20.07,31.47-107,35.65-150.36,11l7.76-31.65C328.34,2326.93,398.62,2319.33,437,2355.35Z"/>
      <path class="cls-1" d="M344.48,2414.1c23,13.43,31.45,38.8,23.6,61.47-10.75,24.54-98.36,39.6-149.91,6.77-23-14.66-49.08-19.18-59.14-38.36a63.44,63.44,0,0,1,1.15-32.81"/>
    </g>
    <g id="bennettShoe">
      <path class="cls-1" d="M413.49,2162.53c5.65,30,1.65,61.77,3.87,96.18,1.72,26.51,7.82,68.62,19.62,96.64-30.19-15.07-100-8.52-122.53,34.09-27.74-54.27-37.64-104-36.77-161.66,8.78-49.3,30.23-49,47-86.62Z"/>
      <path class="cls-1" d="M184.36,2252.08c6.75,116.63-23.63,107.16-24.18,159.09,14.22,28.38,50.23,36.89,78.13,50.7,7-41.21,70.25-64.9,106.17-47.77-46-42.7-57.09-105.57-52.61-174.4Z"/>
    </g>
    <g id="bennettShoelace">
      <path class="cls-1" d="M402.71,2226.83a309.24,309.24,0,0,1-63.74-3.67c-1.69,26.11.49,65.86,6.31,94.94,21.4-2.91,40.83-4.71,59.88-2C401,2287.08,401.8,2260.46,402.71,2226.83Z"/>
      <path class="cls-1" d="M289.06,2315.42c-20.86-1.82-47.22-.77-60.41,4.13,1.85,22.12,10.23,50.26,21.09,76.58,16.17-6.22,43.61-7.23,65.16-5.67C301.47,2367.92,293,2342.53,289.06,2315.42Z"/>
    </g>
    <path id="converseLogo" class="cls-1" d="M284.27,2282.08c12.18,16.12,36.55-40.62,23-56.5C295.55,2211.94,272.17,2266.06,284.27,2282.08Z"/>
    <g id="clothesOverlapLine-6" data-name="clothesOverlapLine">
      <path class="cls-1" d="M402.26,2244.42a271.23,271.23,0,0,1-63.85-2.29"/>
      <path class="cls-1" d="M402,2262.65c-20-.11-41.16-1-63.16-2"/>
      <path class="cls-1" d="M402.26,2281.87c-19.14-1.36-40.1-1.63-62.12-1.25"/>
      <path class="cls-1" d="M403.24,2298.91c-19.9-3-40.3-2.65-61.1,0"/>
      <path class="cls-1" d="M340.34,2185.2c6.14,11.33-1.36,18.51-1.37,38"/>
      <path class="cls-1" d="M404.56,2188.2c3.11,12.6-1.45,22.11-1.85,38.63"/>
      <path class="cls-1" d="M231,2336.31c24.66-4.74,39.43-4.79,61-4.27"/>
      <path class="cls-1" d="M234.72,2352.25c24.75-5.31,39.67-5.28,61.56-4.13"/>
      <path class="cls-1" d="M239.08,2367.09c24.34-6.14,39.11-6.41,62-5"/>
      <path class="cls-1" d="M244.08,2381.6c23.59-7.14,38.48-7.18,62.78-6.19"/>
      <path class="cls-1" d="M226.26,2289.82c3.06,5.6,1.66,20.8,2.39,29.73"/>
      <path class="cls-1" d="M285.46,2288.32c2.6,6.09.24,18.4,3.6,27.1"/>
    </g>
    <g id="clothesDisplayLine-2" data-name="clothesDisplayLine">
      <path class="cls-1" d="M314.45,2389.44c30.24,21,133.05,16.48,141.12-13.65"/>
      <path class="cls-1" d="M238.31,2461.87c41.77,17.88,106,8.6,131.74-12.64"/>
    </g>
    <path id="bennettJeans" class="cls-1" d="M507.93,1347c3,55.39,16,66.53,14.58,100.63-3.23,79.37,8.77,160.18-12,293.11-8,51.08,29.29,74.41-16.78,115.8,3.59,17.37,19.87,37.19-7.18,56.7-8,47.69-19.38,97.78-29.55,143.76-8.63,39,22.62,53.38-17.57,81.46,7.59,31.78-3.09,42.42-34.89,49.79,1.24-26.45-63-29.45-64.22-3-6.06-12.58-35.5-13.22-44.28-35.61-7,46.81,20.92,77,1.49,89.27-15.76,9.95,25.93,32.61-12.09,49.46-2.26-22-55.55-16.58-59.2,1.5-10.58,14.65-34.18,13.83-43.15,32.23-17.42-33.59-59.4-31.19-29.11-67.88-33.16-19.79-.18-47.38-3.54-78.15-7.56-69.28-9.12-141.86-5.09-218.1,1.47-27.7-21.26-46.06,1.85-66.54-31.1-15.51-5.29-43.66-19.71-93.65-42.92-148.67-49.29-325.15-11.7-452.7Z"/>
    <g id="clothesDisplayLine-3" data-name="clothesDisplayLine">
      <path class="cls-1" d="M398.18,1412.58c5.27,13.13-8.4,18.64-5.09,37.79,7,40.26-12.63,75.34-57,72.57,11.19-10.38,1.24-23.4,8.38-39.74,6.27-14.33-6-30.75-.73-38.72,6-9.06,7-18.65,3.28-26"/>
      <path class="cls-1" d="M229.22,1404.64c-22.76,13.87-51.92,24.38-87.3,22.07"/>
      <path class="cls-1" d="M462.63,1386.08c14.37,14.4,30.17,26.92,47.44,34"/>
    </g>
    <g id="clothesOverlapLine-7" data-name="clothesOverlapLine">
      <path class="cls-1" d="M336.11,1522.94c-9.89,111.51-.46,213.94-12.47,269.06-10.41,47.79,10.62,77-16.62,97.66,10.66,10.86,16.67,23.4,4.16,42.59,7.23,35.66-12.72,133.27-15.12,217.34"/>
    </g>
    <g id="clothesFoldLine-5" data-name="clothesFoldLine">
      <path class="cls-1" d="M445.18,1514.47c-21.32,3.75-43.82,10.58-67.7,21.08"/>
      <path class="cls-1" d="M421.55,1569.4c-13.75-4.85-27.19-7.57-40.24-7.66"/>
      <path class="cls-1" d="M311.05,1541.3c-49.82-19.16-17.25-27.46,17.88-14"/>
      <path class="cls-1" d="M302.11,1552.8c-41.42-20-84.07-24.6-127.75-16"/>
      <path class="cls-1" d="M216.52,1551.52a214,214,0,0,0-49.19,7"/>
      <path class="cls-1" d="M301.47,1566.85a273.37,273.37,0,0,0-54.93,22.36"/>
      <path class="cls-1" d="M491.81,1812.12c-10.16,15.2-22,27-37.69,31.3"/>
      <path class="cls-1" d="M387.06,1847.89c-18.41-4.16-34.73-11.59-47.27-24.91"/>
      <path class="cls-1" d="M493.75,1856.49c-9,6.12-16.75,12.68-12.16,23.34"/>
      <path class="cls-1" d="M486.57,1913.19a42.91,42.91,0,0,1-28,8.79"/>
      <path class="cls-1" d="M292.53,1860.67c-26.19,24.91-70.83,25.6-118.81-5.11"/>
      <path class="cls-1" d="M147.22,1891.38c32.89,8.25,92.29-.05,67.38,23.58"/>
      <path class="cls-1" d="M307,1889.66c-26.63,10.61-80.28,11.88-10,31.69"/>
      <path class="cls-1" d="M251,1939.23c-29.2-3.77-55.94-1.6-79.2,8.94"/>
      <path class="cls-1" d="M311.18,1932.25c-2.93,4.58-16.1,10.17-25,5.7"/>
      <path class="cls-1" d="M320.74,1833.54c8.19,23,51.88,31.2,15.37,50.12"/>
      <path class="cls-1" d="M271.78,2218.36q-49.21,19.53-98.06-5.11"/>
      <path class="cls-1" d="M154,2254.17c29.3,12.73,98.27,4,42.08,28.7"/>
      <path class="cls-1" d="M297.55,2238.86c-31.21,18.46-108.5,14-21.63,26.12"/>
      <path class="cls-1" d="M439.45,2138.41a70.2,70.2,0,0,1-45.37,7.77"/>
      <path class="cls-1" d="M357.68,2146.82c-26.56-3.75-49.49-11.37-59.74-32.6"/>
      <path class="cls-1" d="M364.7,1927.09c44.84-7.64,54.11,35.89,40.24,117.53-3,17.51-58.19,29.46-53,43.43,3.8,10.28,38.87,24.28,28.1,28.75-17.6,7.3-28.74,12.13-47.26,0"/>
      <path class="cls-1" d="M435,1959.67c-13.41,82.4-2.32,98.2-16.6,106.67-14.08,8.33-48.75,17.55-37.05,24.91,17,10.67,46.95,39.22,56.85,21.71"/>
    </g>
    <path id="skinEastAsian-3" data-name="skinEastAsian" class="cls-1" d="M559.94,1419.11c-4.2-70,21-171.57,11.21-250-129.56-31.52-71.43,43.42-64.43,258.41"/>
    <path id="bennettShirt" class="cls-1" d="M503,1178.79c-5.76,44.77,18.47,42.17.36,60.49-3.94,22.91,14.76,41,2,62.63,6.53,17.28.6,36.46,8.95,57.67-28.84,8-82.53,56.67-156.1,58.66-121.31,3.28-175-27.84-250.54-67.61C-177.7,774,656.46,406.12,503,1178.79Z"/>
    <path id="bennettSleeves" class="cls-1" d="M123.72,1173.6C117.71,1186.18,8.9,1188,1,1176.2c2.93-25.87-3.25-110,6.05-159.83C.87,995.77,25.4,843,50.94,794.85c33.21-62.56,134.77-73.57,190.27-102.47l141.69,6.91C454,733,512.13,741.07,535,799.18c12.39,31.49,20.19,63.58,12,104,3.41,36.94,19,54.81,7.78,92.44,8,37.85,24.42,50.95,13,78.62,6.32,8.18,7.51,17.6,2.59,28.51,12.23,38.91-5.7,28.4,6,68.25-13,6.52-56.88,10.85-73.44,7.78-2.6-14.24,2.52-26.88-.86-44.06,13.09-32.62.54-41,3.82-57.35,4.95-24.73-5.56-40.81-4.33-69.86,1.67-39.11-2.26-83-6.4-129.39-7.4-46.33-50.47-67.82-89.42-103.06-37.09,32.76-127.35,32.15-168.77,3.71-38.35,40.78-73.43,66.75-97.68,91.49.62,49.46-15.84,92.79-16.08,153.32-2.47,16.69,3,36.3-2.47,46.37-1.24,27.82,8.69,48.22-2.47,64.29C120.18,1152.18,119.56,1163.93,123.72,1173.6Z"/>
    <g id="clothesFoldLine-6" data-name="clothesFoldLine">
      <path class="cls-1" d="M99.51,1152.61c-83.62-.44-87.83-12.37-65.73-17.63,22.27-5.3,53,7.37,84.55-.73"/>
      <path class="cls-1" d="M24,1090.07c23.62,27.81,50.24,37.94,79.64,31.58"/>
      <path class="cls-1" d="M7.08,1016.37c6.7,20.43,18.22,34.45,33.72,43.18"/>
      <path class="cls-1" d="M33.08,1033.23c4.67,10.65,12.73,18.48,22.45,24.91"/>
      <path class="cls-1" d="M56.94,953.59c5.61,20.35,29.47,80,47.71,102.8"/>
      <path class="cls-1" d="M51.67,889.38c1.59,41.16,25.27,76.14,46,118.24"/>
      <path class="cls-1" d="M98,901.31c9.56,12.7,17.09,25.7,20.7,39.3"/>
      <path class="cls-1" d="M95.18,858.51c13,32.28,27.4,44.4,32.63,66.31"/>
      <path class="cls-1" d="M79,806.58c22.81,26.67,37.54,62.45,60.31,63.69-15-81.58-68.87-95.42-31.19-41.58"/>
      <path class="cls-1" d="M136.93,774c3.86,10.88,8.77,37.19,8.07,53"/>
      <path class="cls-1" d="M192.72,846.58c-14.74,7.72-31.26,8.07-38.25,19.3"/>
      <path class="cls-1" d="M176.93,872.89c-13.33,6.67-29.92,11.64-38.46,20.72"/>
      <path class="cls-1" d="M433.75,988.68C369,1003.16,302,1005,232.71,995"/>
      <path class="cls-1" d="M338.67,1018.15c-52.17-.54-100.85-4-143.5-12.63"/>
      <path class="cls-1" d="M116.09,1242.33c15.36,7.25,33,10.39,51.72,11.59"/>
      <path class="cls-1" d="M114.83,1258.83c35,13.33,83.44,17.75,135.78,19.65"/>
      <path class="cls-1" d="M111.5,1301.62c16.78,8.06,38,13.05,60.87,16.86"/>
      <path class="cls-1" d="M110.31,1321.27c27.61,15.42,60.64,25.28,96.44,32.29"/>
      <path class="cls-1" d="M252.71,1373.91c70.15,12.46,158.24,6,205.25-18.59"/>
      <path class="cls-1" d="M458,1302.34c-39,13.17-79,16.82-120,11.58"/>
      <path class="cls-1" d="M505.34,1301.91c-21.06,19.37-88.78,35.51-112.29,32"/>
      <path class="cls-1" d="M481.82,1235.32c-13,8.78-40.35,18.25-65.26,17.9"/>
      <path class="cls-1" d="M503.35,1239.28c-17.32,18.15-52.05,20.25-69.25,31.48"/>
      <path class="cls-1" d="M347.44,1201.29c-33-.35-106.66,6.67-140.34-8.07"/>
      <path class="cls-1" d="M276.57,1215c35.09.7,71.18,3,103.85-2.46"/>
      <path class="cls-1" d="M401.12,1148.66a322.69,322.69,0,0,0,80.35-16.49"/>
      <path class="cls-1" d="M502.13,1134.73c-18.65,13-40.49,20.14-65.22,22"/>
      <path class="cls-1" d="M552,1155.33c-45.61-4.21,12.28-9.47,22-20.6"/>
      <path class="cls-1" d="M570.38,1102.76c-13.32,7.8-27.52,12.32-43,12.22"/>
      <path class="cls-1" d="M534.8,1070.42c-10.47,6.83-20.22,9.84-28.85,7"/>
      <path class="cls-1" d="M567.79,1074.25c-13,14.42-52.64,19.68-15.8,22.14"/>
      <path class="cls-1" d="M554.83,995.63q-5.87,17-12.31,23.92"/>
      <path class="cls-1" d="M545.32,964.47c-7.37,25.06-16.07,42.6-27,47.36"/>
      <path class="cls-1" d="M536.55,889c-3.86,14.74-20.7,41.05-37,41.06"/>
      <path class="cls-1" d="M547.05,903.19c-8.27,17.79-22.2,32.14-40.67,43.73"/>
      <path class="cls-1" d="M495.22,878.13c-17.09-23-34.92-39.16-53.75-46.29"/>
      <path class="cls-1" d="M512,810.79c.37,24.54-.95,47.31-10.87,61.05"/>
      <path class="cls-1" d="M492.68,867.18c9.73-32.09,7.95-80-1-80.95-13-1.4-.06,23.86,1.41,55.09"/>
    </g>
    <g id="skinEastAsian-4" data-name="skinEastAsian">
      <path class="cls-1" d="M384.87,662.79l14.7,52.52c33.62,72.13-187.68,74.23-177.87-4.2l18.91-62.33"/>
      <path class="cls-1" d="M112.45,1410c-10.16-84,8.42-162.41,5.29-232.45-21.51,7.94-92.48,9-112.09,1.57C2.47,1281.33,39,1347.31,42.42,1409.31"/>
    </g>
  </g>
</svg>
