<svg viewBox="0 0 438.66 442.73">
  <g class="willyShoe">
    <path d="M184.22,407.79a43.92,43.92,0,0,1,6.32-10.32l25.7,3.09c2.81,9.27,6.62,17.53,12.6,23.64,2.37,1.65,8.14,3.48,10.26,6.82C227.08,448.15,188.52,431.45,184.22,407.79Z"/>
    <path d="M339.4,423.31a45.75,45.75,0,0,1,.12-16.63l26-7.74a46.26,46.26,0,0,0,19.92,10,36,36,0,0,1,12.65,1.58C403.11,426.5,350.57,437.14,339.4,423.31Z"/>
  </g>
  <g class="soleWhite">
    <path d="M339.4,423.31c0,2.76-.22,5.21,1.78,7.21,2.66,3.55,21.54.75,35.29.11,12-.55,25.6-4.51,27.11-13.54.52-3.07-2.36-6.21-5.47-6.55-7.65,1.11-13.09,7.33-15.76,13.54-5.66,3.22-28.1,3.81-35.4,2.06C344.18,425.48,341.51,424,339.4,423.31Z"/>
    <path d="M184.22,407.79c-1.77,2.64-3.36,5-2.74,8.6,1.15,5.23,11.34,9.41,20.47,17.46,12.38,10.91,33.23,10.27,38.66,4.35,1.85-2,.43-5.64-1.51-7.18-4.35-3.46-15-1.33-23.41,3.72-6.91-.09-23.39-13.41-27.92-19.68A17.13,17.13,0,0,1,184.22,407.79Z"/>
    <path d="M173.28,427.44c3.9,5.43-7.19,10.23-12.81,10.59-8.07.51-15.31,3-20.16,3-3,0-3.53-2.52-4-5.29C151.63,430.07,166.6,425.14,173.28,427.44Z"/>
    <path d="M129.56,431.92c2.83,5.84-11,6.83-15.22,6.31-6.87-.84-22.79-9.47-23.44-12.07a6.92,6.92,0,0,1,1.21-5.75C107.9,424.21,124,428,129.56,431.92Z"/>
    <path d="M71.88,418.66c2.81,1.38,4.37,4.53,3.28,8.93-3.28,5.14-17.49,5.83-24.56,1.81l1.26-5.17C54.13,414,65.61,412.77,71.88,418.66Z"/>
    <path d="M25.43,427.78a10.36,10.36,0,0,0-.19,5.35c1.65,3.14,7.14,3.88,10.9,6.27,8.42,5.36,22.73,2.9,24.49-1.1a8.34,8.34,0,0,0-3.86-10.05C51.45,424.71,39.36,425.14,25.43,427.78Z"/>
  </g>
  <g class="bennettShoe">
    <path d="M68,387.16c.93,4.9.27,10.09.64,15.71.28,4.33,1.27,11.21,3.2,15.79-4.93-2.47-16.34-1.4-20,5.57a53.18,53.18,0,0,1-6-26.41c1.43-8.06,4.94-8,7.67-14.15Z"/>
    <path d="M28.61,401.79c-.26,18.37-3.09,17.5-3.18,26,2.32,4.63,9.44,6,14,8.28,1.14-6.74,11.47-10.6,17.34-7.81-7.51-7-9.33-17.24-8.59-28.49Z"/>
  </g>
  <g class="shoelace">
    <path d="M370.89,402.93c-3.05.72-6.52,2.69-10.1,5a57.73,57.73,0,0,0,15.59,6.2,29.67,29.67,0,0,1,9.08-5.16,48.56,48.56,0,0,1-14.56-6Z"/>
    <path d="M219.64,409.94h0a29.59,29.59,0,0,0-11.5.28,44.31,44.31,0,0,0,11.31,14.88,26.42,26.42,0,0,1,9.39-.9A46.66,46.66,0,0,1,219.64,409.94Z"/>
    <path d="M66.28,397.66a50.55,50.55,0,0,1-10.41-.6,67.55,67.55,0,0,0,1,15.51,35.74,35.74,0,0,1,9.78-.33A84.4,84.4,0,0,1,66.28,397.66Z"/>
    <path d="M47.72,412.13c-3.41-.29-7.72-.12-9.87.68a45.52,45.52,0,0,0,3.44,12.51c2.64-1,7.13-1.18,10.65-.93A32.74,32.74,0,0,1,47.72,412.13Z"/>
  </g>
  <g class="willy">
    <path class="willyPants" d="M325.25,219.68c3.17,20.21,7.06,30,12.39,57.71,2,10.27,6.28,12.75,8.14,27.16,1,7.69,4.65,11.15,5.34,19.05.67,7.54,4.27,7.43,4.5,20.21.15,8.18,2.75,19.16,3.49,23.52.61,3.62,17.19,10.23,3.48,22.07,9.27.84,4.68,5.43,4.88,11.39-4.4,5.74-18.57,8.35-29,14.4-2.79-4.22-11.83-6.31-8.43-10.91,6.18-8.36-2.87-8.37-5.93-10.28-17.72-11-12.66-52.69-21.93-62.36-2.95-3.08-.26-9.3-3.15-13-6.17-7.87-2.23-9.63-6.3-12.73-2.56-2,.85-5.93-10.17-28.24-.89,3.13-3.77,7.7-4.21,12.19-1.18,11.94-12.81,22.42-18.77,40.19-4.11,12.27-10.63,23.53-17.48,33.15,2,11.84-8.3,13.66-9.65,21-1.49,8.15-3.79,8.91-9,9.3.58,4.94-2,8.94-5.1,11.61-16.54,4.71-23.21-2-30.79-4.71-.52-2.06.46-4.76,1.72-7.59-3.2-5.74-6.55-12.48-1.6-20.1,9.54-14.72,11.54-32.08,15.51-32.06,11.25-15.51,6.54-21.14,14.24-32.74-2.07-6.43,5.86-6.66,4.6-11.72-2.19-7.35,3.63-25.27,7-81.22Z"/>
    <path class="willyShirt" d="M267.47,76.36l32.9,1.24c8.74,2.48,15.72,8.38,19.56,9.25,2.72.62,7.69-.23,9.42,5.51,2.57,1,5.65-.41,6.4,7.12,3.36,1.9,7.57,8.08,11.74,13.15,2.19,9.89-10.53,25.31-17.25,27.92-.75.2-1.69-1.11-3.16-2.15.16,3.75,5.49,5.15,2.42,9.94,5.78,24.19,5.56,37.14,3.57,49.34,1.63,3.73-.5,5.7-1.78,8.11-3.58,9.56-2.37,14-3.12,16.29-51.71,12.13-72.92-1.35-98.32-5.23-1.68-35.48-3.34-85.11-12.36-87.13,1.6-5.8,6.9-11.33,9.54-17,5.39-11.64,10.1-21.06,16.64-25C251.34,83.17,259.76,81,267.47,76.36Z"/>
  </g>
  <g class="christopher">
    <g class="sockWhite">
      <path d="M136.32,421.78c-.29-1.94-1.18-2.78-1-4.36,2.89-.19,10.72-2.48,13-4.26,1.55,1.7,1.23,4.59,3,6.77C147.4,425.66,139.07,424.9,136.32,421.78Z"/>
      <path d="M98.88,410.34c1-1.58.75-3.53,2.36-5.25,1.78,2.11,9.26,4.92,12.23,4.67-.24,2.53-2,3.92-2.44,6.43C104.67,416.26,100.43,414.47,98.88,410.34Z"/>
    </g>
    <g class="christopherShoe">
      <path d="M146.14,423.41c1.1-2.78,2.75-4.48,5.52-3.9,3.82,3.28,7.84,5.64,12.15,5.2,3.62-.37,8,.05,9.47,2.73-2.46-.13-6.59,2.26-8.17,5.32-2.4,2.1-5.66,2.57-8.4,2.81-8.08.69-14.5,4-20.37.18-1.33-4.77-1.53-9.73,0-14C138.22,423,143.35,421.74,146.14,423.41Z"/>
      <path d="M106.82,415.3c1.58-1.57,4.79-1.68,5.66,0,6.74,13.06,14.8,10.45,17.08,16.62-3.34-1.49-8.94.14-11.81,3.62-10.1.65-22.21-7.61-25.64-15.13,1.69-4.41,3.82-8,6.77-10.07C102,414.19,105.52,413.36,106.82,415.3Z"/>
    </g>
    <g class="christopherStrap">
      <path d="M154.72,421.87a15.65,15.65,0,0,0-6.89,6.31c-.62,1.15,2.55,2.77,3.87,1.66-.71,1.19,4.07,2.18,4.94.9a18.45,18.45,0,0,1,7.17-6C160.63,425,157.62,423.84,154.72,421.87Z"/>
      <path d="M105.55,420.42c1.45,2.69,4.22,5.07,7.57,7.32a16.75,16.75,0,0,1,9-1.87c1,.07-1.2-2.58-4.48-3.37.38-1-1.83-3.44-3.07-3.67A12.48,12.48,0,0,0,105.55,420.42Z"/>
    </g>
    <path class="christopherShortsInner" d="M105.15,346.3c-1-2.81,3-4.09,4-.17C107.32,346.54,105.48,346.92,105.15,346.3Z"/>
    <path class="christopherShorts" d="M153,295.38c.45,4.45,2.22,5.72.85,9.57-1.3,3.66,1.95,7-3.82,35.43-.75,1.48-8.9,2.81-12,1.78a63.85,63.85,0,0,0-1.92-7.86c-5.49-1-31,9-31,12-4.78-9.2-8.3-25.2-9-34.83-.17-2.12-1.93-2.78.14-5.15.6-3-2.22-4.89.74-7a8.58,8.58,0,0,1,1.49-4.19C117,295.9,135.23,296,153,295.38Z"/>
    <path class="christopherWaistband" d="M153,295.38c.6-1.21-.11-3.72-.09-5.83L99.09,289c-.36,2.62-1.28,4.75-.61,6.22C117,295.9,135.23,296,153,295.38Z"/>
    <path class="christopherShirt" d="M165.43,230.14c1.48,5.87-6.18,14.52-11.48,13.92-.73,8.1-1.12,11.5-1.06,17.07.16,14.34,2.93,16,.49,20.35,1.24,1.85,1.7,3.8-.56,6.13.91.78.14,2.2.85,3.67-10.78,2.9-45.9,3-55.59-2,1.89-6.83-.53-16.1,2-21.56-12.94-8.09-12.74-20.24-7.14-36.29,2.16-6.83,2.16-15.11,8.64-18.94,3.21-1.9,7.37-2.13,13.23-4.28l24.92.48C158.26,212.62,156.64,221.5,165.43,230.14Z"/>
    <g class="triceratopsLogo">
      <path d="M129.49,257.65a7.26,7.26,0,0,1-1.13-.12q-.27.62-.6,1.26c-1,1.81-.2,2.29.2,3.24a3.85,3.85,0,0,0,1.85-.47C129.78,260.21,128.59,259.94,129.49,257.65Z"/>
      <path d="M152.55,248c.33-1.26.92-2.93-.16-4.05a6.12,6.12,0,0,0,.21-3.8,6.83,6.83,0,0,1-1.51,3,9.64,9.64,0,0,0-1.44-.42,6.22,6.22,0,0,1-3-1.62,12,12,0,0,0-.69,1.61c.34-2.69,2.15-5.63,3.83-7.61a13.79,13.79,0,0,0-5.27,6.48,7.22,7.22,0,0,1,.77-2.11,12,12,0,0,1-1.65-4.59c-1.23-1.27-2.86.25-2.62,1.7-1.76-.5-2.58,1.61-1.76,2.94-1.42,0-2.12,2.14-1.16,3.13-1.07.84-1.13,3.2.59,3.11-1.83.59-1.88-2.07-1-3.08-5.16-2.37-10.43-3.83-14.9-.12-2.49,2.07-3.62,6-5.64,8.69s-5.65,3.21-8.88,3.31c4.28,2.24,7.58,2,11.67-.48a9.33,9.33,0,0,0,3.84,2.49c.38-1.61-1-3-1.08-4.68.25,1.63,1.68,3.07,1.37,4.74a24.28,24.28,0,0,0,0,6.81,6.3,6.3,0,0,0,3.87-.27,4.19,4.19,0,0,0-.29-1.08c-.45-1.09-1-1.5-.17-3.28,1.4-2.87,2.3-6,.92-9.12,1.55,2.35.9,5.13.07,7.61a12.87,12.87,0,0,0,6.26-.75,10,10,0,0,1,.9-4.06c-.89,3.87.31,6.46.51,10.14a6.7,6.7,0,0,0,3.78-.38,1.87,1.87,0,0,0-.37-1.08,6.5,6.5,0,0,1-1-4.3,5.82,5.82,0,0,1,2-3.71c3.14-2.58,8.1.06,10.69-3.3a4.18,4.18,0,0,1-3.65-.81C149.28,248.68,150.92,246.75,152.55,248Z"/>
      <path d="M140.47,253.64a4.75,4.75,0,0,0-1.65,3.18c-.1,1.46,0,3.2,1.11,4.29a2.66,2.66,0,0,0,1.46-.45c-.14-1-.78-1.49-1.11-2.35A7.34,7.34,0,0,1,140.47,253.64Z"/>
    </g>
  </g>
  <g class="preteenBennett">
    <path class="converseLogo" d="M46.93,406.69c2,2.63,6-6.64,3.75-9.23C48.78,395.23,45,404.07,46.93,406.69Z"/>
    <path class="bennettJeans" d="M83.47,249c.49,9,2.61,10.87,2.38,16.44-.53,13,1.43,26.16-2,47.88-1.3,8.34,4.79,15.42-2.74,22.18.59,2.84,3.25,6.08-1.17,9.27-1.31,7.78-3.17,17.6-4.83,25.11-1.41,6.37,3.7,8.72-2.87,13.31,1.24,5.19-.5,6.93-5.7,8.13.21-4.32-10.28-4.81-10.49-.49-1-2.05-5.8-2.16-7.23-5.81-1.14,7.64,3.42,12.57.24,14.58-2.57,1.62,4.24,5.33-2,8.08-.37-3.59-9.08-2.71-9.67.24-1.73,2.4-8.2,2.26-9.67,5.27-2.84-5.49-7.08-5.1-2.14-11.09-5.41-3.23,0-7.74-.57-12.77a242,242,0,0,1-.84-37.26c.24-4.52-3.47-7.52.31-10.87-5.08-2.53-.87-7.13-3.22-15.3-7-24.28-8.06-56.38-1.91-77.21Z"/>
    <path class="shirtWhite" d="M82.66,221.56c-.94,7.31,3,6.89.06,9.88-.64,3.74,2.41,6.69.33,10.23,1.06,2.82.09,6,1.46,9.42-4.71,1.3-13.48,9.26-25.5,9.58-19.82.54-28.58-4.54-40.93-11C-27.82,156.86,107.85,94.73,82.66,221.56Z"/>
    <path class="bennettSleeves" d="M20.71,220.71c-1,2.06-18.76,2.36-20,.43.47-4.23-1.31-18,.21-26.11-1-3.37,3-28.33,7.16-36.19,5.43-10.22,22.79-11.71,31.86-16.43l23.15,1.13c11.61,5.51,22.2,6.52,25.93,16,2,5.14,3.3,10.38,2,17,.56,6,2,9,.18,15.1,1.31,6.18,4,8.32,2.12,12.84a4.26,4.26,0,0,1,.42,4.66c2,6.36-.93,4.64,1,11.15-2.12,1.06-9.29,1.77-12,1.27-.42-2.33.41-4.39-.14-7.2,2.14-5.33.09-6.69.63-9.37.8-4-.91-6.66-.71-11.41.27-6.39.72-13.56,0-21.13-1.21-7.57-9.33-10.78-15.69-16.53-6.06,5.35-20.81,5.25-27.57.6-6.27,6.67-12.78,10.6-16.74,14.64.1,8.08-2.59,15.16-2.62,25.05-.41,2.72.49,5.93-.41,7.57-.2,4.55,2.2,7.88.38,10.5C20.13,217.21,20,219.13,20.71,220.71Z"/>
  </g>
  <g class="clothesDisplayLine">
    <path d="M292.93,226.51c-.56,4.49,3.57,13.4-.57,21.5-3.68,7.2-1.68,14.64-7.32,20.32-3.56,3.6-1.38,7-2.52,9.35"/>
    <path d="M65.54,259.75c.86,2.15-1.37,3.05-.83,6.17,1.14,6.58-2.06,12.31-9.31,11.86,1.83-1.7.2-3.83,1.37-6.49,1-2.35-1-5-.12-6.33a4.23,4.23,0,0,0,.54-4.25"/>
    <path d="M37.94,258.45a23.93,23.93,0,0,1-14.26,3.61"/>
    <path d="M76.07,255.42A24.46,24.46,0,0,0,83.82,261"/>
    <path d="M54.1,425.28c6.5,2.14,19.66,1.05,20.82-3.28"/>
    <path d="M39.43,436.06C46.25,439,56.74,437.46,61,434"/>
  </g>
  <g class="clothesOverlapLine">
    <path d="M151.52,227.68A42.1,42.1,0,0,1,154,244.06"/>
    <path d="M107.75,232.21a32.91,32.91,0,0,1-1.32,9.64c-.52,2.15-.66,6-1.9,5.61"/>
    <path d="M325.39,112.87c2.66,9.77,1.12,20.88,1.69,25.53"/>
    <path d="M246.22,144.57c1.07.16,2,.32,2.49-.47,5.93-10.28,12.62-21.3,14-29.52"/>
    <path d="M227,422.16a34.79,34.79,0,0,0-9.78.81"/>
    <path d="M225.4,420.14a27.48,27.48,0,0,0-10.17.77"/>
    <path d="M224,418.08a33.16,33.16,0,0,0-10.58.65"/>
    <path d="M222.55,415.77a24.2,24.2,0,0,0-11,.52"/>
    <path d="M221.13,413.12c-2.29-1-6.91-.78-11.44.19"/>
    <path d="M382.39,408.12a32.38,32.38,0,0,0-8.78,5.27"/>
    <path d="M379.75,407.24a30.35,30.35,0,0,0-8.5,5.41"/>
    <path d="M377,406.16a32.37,32.37,0,0,0-8.47,5.51"/>
    <path d="M374.55,405a38.12,38.12,0,0,0-9,5.39"/>
    <path d="M372.52,403.91a42.46,42.46,0,0,0-9.31,5.33"/>
    <path d="M55.4,277.78c-1.61,18.21-.07,35-2,44-1.71,7.81,1.73,15.84-2.72,19.22,1.74,1.77,2.72,3.82.68,7,1.18,5.82-2.08,23.4-2.47,37.14"/>
    <path d="M66.21,400.54a44.48,44.48,0,0,1-10.43-.38"/>
    <path d="M66.16,403.51c-3.26,0-6.72-.16-10.31-.32"/>
    <path d="M66.21,406.65c-3.13-.22-6.55-.26-10.15-.2"/>
    <path d="M66.37,409.44a35.87,35.87,0,0,0-10,0"/>
    <path d="M56.09,390.86c1,1.85-.22,3-.22,6.2"/>
    <path d="M66.58,391.35c.51,2.06-.23,3.61-.3,6.31"/>
    <path d="M38.24,415.55a40.07,40.07,0,0,1,10-.7"/>
    <path d="M38.84,418.15a33.13,33.13,0,0,1,10.06-.67"/>
    <path d="M39.55,420.57a28.77,28.77,0,0,1,10.14-.81"/>
    <path d="M40.37,422.94a27,27,0,0,1,10.25-1"/>
    <path d="M37.46,408c.5.92.27,3.4.39,4.86"/>
    <path d="M47.13,407.71c.42,1,0,3,.59,4.42"/>
    <path d="M144.54,309.71c-2.29,4.34-7.11,7.64-11,9.54-.42-3.18-6.38-12.86-9.22-12.29"/>
    <path d="M133.51,319.25c.32,4.25,4.35,14.22,2.61,15.05"/>
    <path d="M146.14,423.41a8.37,8.37,0,0,1,3.17,2.6"/>
    <path d="M106.82,415.3a20.22,20.22,0,0,1,1.61,3.82"/>
  </g>
  <g class="clothesBorderLine">
    <path d="M109,424.58c1.84-1.41,6.17-2.08,8.65-2.08"/>
    <path d="M158.35,423.85a14.05,14.05,0,0,0-6.65,6"/>
  </g>
  <g class="clothesFoldLine">
    <path d="M154.59,225.48c.09,3.85-.31,6.89-1.26,9"/>
    <path d="M156.06,232.81a17.59,17.59,0,0,1,.78,8.36"/>
    <path d="M103.71,220.48a24.69,24.69,0,0,0,2.59,13.36"/>
    <path d="M97.93,227.38a42.34,42.34,0,0,0,2.85,11.9"/>
    <path d="M97.5,235.57a10.2,10.2,0,0,0,1.38,4.74"/>
    <path d="M111,226.43q-1,4.19-3.2,5.78c2.17-7.77-1.37-10.61-1.45-3.8"/>
    <path d="M113.89,248.51a36.35,36.35,0,0,0,2.5,11.55"/>
    <path d="M111.21,255.84c1.16,6.16,2.67,11.67,4.92,15.87"/>
    <path d="M146,260.15a39.9,39.9,0,0,1-5.35,13.37"/>
    <path d="M149.94,259.8a22.66,22.66,0,0,1-2.25,7.25"/>
    <path d="M103.62,277.83a43.44,43.44,0,0,0,17.17,8.11"/>
    <path d="M150.71,277.14c-2.56,4.78-7.19,8.08-14.49,9.49"/>
    <path d="M153.38,281.48c-.68,1-1.89,1.52-2.32,3.77"/>
    <path d="M152.82,287.61a11.31,11.31,0,0,1-6.16,1.43"/>
    <path d="M138.55,290.59a51.67,51.67,0,0,1-18.37-.26"/>
    <path d="M101.12,281.71c6,6.12,22.17,7.16,3.37,6.56"/>
    <path d="M235.62,200.13c11,4.12,14,8.12-.64,7"/>
    <path d="M236.06,196.46c10.85,6.74,25.06,5.21,34.55-1.27"/>
    <path d="M272.92,199.69c-9.65,3.11-18.49,6.91-26,11.91"/>
    <path d="M275.83,204.74c-3.84,1.37-8.45,8.34-10.59,10.92"/>
    <path d="M275.72,208.53a15.82,15.82,0,0,0-3.4,6.25"/>
    <path d="M289.59,214.37c7.7-4.35,14.94-5,21.61-1.1"/>
    <path d="M326.27,197.75a8.8,8.8,0,0,1,3.11,7.2"/>
    <path d="M328.71,190.88c1.33,4,3.11,4.1,4.36,6.8"/>
    <path d="M254,143.11a71.67,71.67,0,0,1,14.52,8.31"/>
    <path d="M254.83,133.42c3.86,5.48,8.63,9.91,16.55,13.85"/>
    <path d="M248.6,111a76,76,0,0,0-1.77,22.5"/>
    <path d="M237.08,104.76a70.68,70.68,0,0,1-12.64,16.63"/>
    <path d="M257.69,100.66c1.44,5,5.92,14.94.78,13.41"/>
    <path d="M262.13,99.11c1.21,7.54.26,11.44.82,12.41,1.23,2.11,4.05-9.75,2.28-20.39"/>
    <path d="M269.66,98c-.62,7-1.63,13.31-4.76,15.3"/>
    <path d="M272.88,125.27c8.64,1.33,22.38,1,33.36,1.33"/>
    <path d="M318.21,129.15c-12.56.85-24.28,1.31-34.58,1.1"/>
    <path d="M329.35,92.36c1.71,5.64,1.82,17.94,3.6,9.3"/>
    <path d="M335.75,99.48a61.48,61.48,0,0,1-1,15.92"/>
    <path d="M319.54,98.11c2.42,5.11,3.42,9.23,3.21,12.53"/>
    <path d="M326.63,111.63c1.66-8.86-.19-18.46-3.33-16.18-2.14,1.55,3.78,4,2.09,17.42"/>
    <path d="M362.59,389.4c-4.87,3.63-9.91,8.49.7,5.61"/>
    <path d="M351.54,357.39c-3.51,19-8.42,32.17-22.4,23.51"/>
    <path d="M338.29,402.55c23.09-12.22-6.06-7.59-12.49-9.95"/>
    <path d="M362.3,399.21c-7.37,4.82-15.9,6.54-25.37,7.55-2,.22-1.85,1.38-.49,2.72"/>
    <path d="M337.67,293.48c-1.14,8.57-10.41,2-20.05-5.25"/>
    <path d="M335.53,322.37c5,9.07,11.54,19.36,16.12,14.33"/>
    <path d="M316.42,315c5.1-3.87,13.14,8.59,19.82,21.49"/>
    <path d="M299,318.65c2.87,2.81,5.1,5.63,5.42,8.52"/>
    <path d="M243,267c1.05,8.17,3.46,14.54,4.51,20.49"/>
    <path d="M238.48,275.73c1.77,10,5.26,19.29,7.46,27.39"/>
    <path d="M231.75,304.7c2.56-3.94-5.52-2.37-9.66.79"/>
    <path d="M236.08,313.37c15.77-8.82,8.28,2.56-13.8,19.91"/>
    <path d="M238.21,368.76c-4.2,3.77-7.27-.82-10.25-6.11"/>
    <path d="M200.8,353.19c8.88.25,15,9.5,18.29,21.68"/>
    <path d="M203.19,340.69c1.85-.13,4.27-1.63,7-3.84"/>
    <path d="M221.24,379.76c5,6.29,4.46,9.57-5,8.07"/>
    <path d="M189.28,392.85c1.06,1.91,5.09,3,5.74,7.08"/>
    <path d="M223.45,393.54c-10,.42-23.72-3-24.88-.87-1.72,3.07,8.87,6.45,15.32,6.45"/>
    <path d="M297.35,256.29c5.29.29,12.11-.43,17.13.14"/>
    <path d="M280.79,251.29c-8.71-2.32-17-3.56-24.55-3.14"/>
    <path d="M281.37,255.43A52.91,52.91,0,0,0,266.09,259"/>
    <path d="M292.93,252.15c5.28-6,15.14-13.33,17-11.56,1.06,1-7.12,6.06-12.71,10.28"/>
    <path d="M286.29,267c2.84,3.3,10.82,5.37,16.94,10.68"/>
    <path d="M16.75,217.28c-13.66-.07-14.35-2-10.73-2.88s8.65,1.21,13.81-.12"/>
    <path d="M3.63,207.07c3.86,4.54,8.21,6.19,13,5.15"/>
    <path d="M.88,195a12,12,0,0,0,5.5,7.05"/>
    <path d="M5.12,197.78a9.55,9.55,0,0,0,3.67,4.07"/>
    <path d="M9,184.77c.92,3.33,4.81,13.07,7.79,16.79"/>
    <path d="M8.16,174.28c.26,6.73,4.13,12.44,7.51,19.32"/>
    <path d="M15.73,176.23a19.15,19.15,0,0,1,3.38,6.42"/>
    <path d="M15.27,169.24c2.12,5.27,4.47,7.25,5.33,10.83"/>
    <path d="M12.63,160.76c3.73,4.35,6.13,10.2,9.85,10.4-2.46-13.33-11.25-15.59-5.09-6.79"/>
    <path d="M22.09,155.43a30,30,0,0,1,1.32,8.65"/>
    <path d="M31.2,167.29c-2.41,1.26-5.11,1.32-6.25,3.15"/>
    <path d="M28.62,171.59c-2.18,1.09-4.89,1.9-6.28,3.38"/>
    <path d="M71.35,190.5a90.22,90.22,0,0,1-32.84,1"/>
    <path d="M55.82,195.32a127.19,127.19,0,0,1-23.44-2.07"/>
    <path d="M19.46,231.94a23.19,23.19,0,0,0,8.45,1.89"/>
    <path d="M19.26,234.63c5.7,2.18,13.63,2.9,22.18,3.21"/>
    <path d="M18.71,241.62a37.71,37.71,0,0,0,9.94,2.76"/>
    <path d="M18.52,244.83a53.57,53.57,0,0,0,15.75,5.28"/>
    <path d="M41.78,253.43c11.46,2,25.85,1,33.53-3"/>
    <path d="M75.31,241.74a43.27,43.27,0,0,1-19.6,1.89"/>
    <path d="M83.05,241.67c-3.44,3.17-14.51,5.8-18.35,5.23"/>
    <path d="M79.2,230.79a21,21,0,0,1-10.66,2.93"/>
    <path d="M82.72,231.44c-2.83,3-8.5,3.31-11.31,5.14"/>
    <path d="M57.25,225.24c-5.38-.06-17.42,1.08-22.92-1.32"/>
    <path d="M45.68,227.47c5.73.11,11.62.5,17-.4"/>
    <path d="M66,216.64a52.73,52.73,0,0,0,13.13-2.7"/>
    <path d="M82.52,214.36A21.07,21.07,0,0,1,71.87,218"/>
    <path d="M90.67,217.73c-7.45-.69,2-1.55,3.58-3.37"/>
    <path d="M93.67,209.14a13.6,13.6,0,0,1-7,2"/>
    <path d="M87.86,203.86c-1.71,1.11-3.3,1.6-4.71,1.13"/>
    <path d="M93.25,204.48c-2.12,2.36-8.6,3.22-2.58,3.62"/>
    <path d="M91.13,191.64a11.49,11.49,0,0,1-2,3.91"/>
    <path d="M89.58,186.55c-1.21,4.09-2.63,7-4.41,7.74"/>
    <path d="M89.23,174.23c-.63,2.4-3.38,6.7-6,6.7"/>
    <path d="M91,176.54a16.93,16.93,0,0,1-6.64,7.14"/>
    <path d="M82.48,172.45c-2.79-3.76-5.7-6.4-8.78-7.57"/>
    <path d="M85.22,161.45c.06,4-.15,7.72-1.77,10"/>
    <path d="M82.07,170.66c1.59-5.25,1.3-13.07-.17-13.23-2.12-.23,0,3.9.23,9"/>
    <path d="M73.22,276.39a48.43,48.43,0,0,0-11.06,3.45"/>
    <path d="M69.36,285.37a20.17,20.17,0,0,0-6.57-1.25"/>
    <path d="M51.31,280.78c-8.14-3.13-2.82-4.49,2.92-2.3"/>
    <path d="M49.85,282.66A32.26,32.26,0,0,0,29,280.05"/>
    <path d="M35.87,282.45a35.35,35.35,0,0,0-8,1.14"/>
    <path d="M49.74,285a44.67,44.67,0,0,0-9,3.65"/>
    <path d="M80.84,328.28c-1.66,2.49-3.6,4.42-6.16,5.12"/>
    <path d="M64,334.13a14.74,14.74,0,0,1-7.73-4.07"/>
    <path d="M81.15,335.53c-1.47,1-2.73,2.07-2,3.81"/>
    <path d="M80,344.8a7,7,0,0,1-4.57,1.43"/>
    <path d="M48.28,336.21c-4.28,4.07-11.57,4.19-19.4-.83"/>
    <path d="M24.55,341.23c5.37,1.35,15.07,0,11,3.85"/>
    <path d="M50.65,341c-4.35,1.73-13.11,1.94-1.64,5.18"/>
    <path d="M41.5,349.05c-4.77-.62-9.14-.26-12.94,1.46"/>
    <path d="M51.33,347.91a3.81,3.81,0,0,1-4.09.93"/>
    <path d="M52.89,331.78c1.34,3.75,9.57,5.1,3.6,8.19"/>
    <path d="M44.89,396.28a18.73,18.73,0,0,1-16-.84"/>
    <path d="M25.65,402.13c4.79,2.08,16.06.65,6.88,4.69"/>
    <path d="M49.1,399.63c-5.1,3-17.72,2.28-3.53,4.26"/>
    <path d="M72.28,383.22a11.45,11.45,0,0,1-7.41,1.27"/>
    <path d="M58.93,384.59c-4.34-.61-8.09-1.85-9.76-5.32"/>
    <path d="M60.07,347.07c7.33-1.25,8.84,7.49,6.58,20.83-.49,2.86-9.51,4.81-8.66,7.09.62,1.68,6.35,4,4.59,4.7-2.88,1.19-4.7,2-7.72,0"/>
    <path d="M71.55,352.39c-2.19,13.46-.38,17.67-2.71,19.06s-8,2.86-6.05,4.06c2.77,1.75,7.67,6.41,9.28,3.55"/>
    <path d="M137.12,295.75c1.29,2.53.62,6.47,1,10.27.81,8.72-3.08,10-4.58,13.23"/>
    <path d="M144.59,322.25a20.58,20.58,0,0,0-8.21-2.86"/>
    <path d="M148.28,310.58a28.35,28.35,0,0,1-6.19,4.89"/>
    <path d="M124.29,307c-2.79,1.24,2.5,2,5.23,7.27"/>
    <path d="M130.61,316.73c-5.26-4.65-14.78-7.74-18.77-7.35"/>
    <path d="M121.77,314a23.55,23.55,0,0,0-16-.47"/>
    <path d="M96.25,306.32a8.27,8.27,0,0,1,6.75-.15"/>
    <path d="M97,299.36c5.38-1.38,14.77.87,22,5.33"/>
    <path d="M98.46,302a22.66,22.66,0,0,1,11.19,1.95"/>
    <path d="M144.37,303.2a57.84,57.84,0,0,0-9.62.08"/>
    <path d="M151.65,295.43a11.47,11.47,0,0,1,.39,4.41"/>
    <path d="M150.15,295.48a4.53,4.53,0,0,1,.16,2.32"/>
    <path d="M139.23,295.72a6.27,6.27,0,0,1,.29,3.49"/>
    <path d="M134.29,295.79a2.68,2.68,0,0,1,.15,2.48"/>
    <path d="M131.94,295.79a7.27,7.27,0,0,1,.07,4"/>
    <path d="M102.46,295.31a6.41,6.41,0,0,0-.09,3.12"/>
    <path d="M100.13,295.23a4.62,4.62,0,0,0-.26,2"/>
  </g>
  <g class="eye">
    <g class="sclera">
      <circle cx="307.53" cy="33.42" r="17.15"/>
      <circle cx="119.28" cy="169.82" r="14.29"/>
      <circle cx="60.71" cy="104.88" r="20.47"/>
    </g>
    <g class="irisBrown">
      <ellipse cx="72.44" cy="104.29" rx="3.06" ry="3.14"/>
      <ellipse cx="48.29" cy="104.29" rx="3.06" ry="3.14"/>
      <ellipse cx="124.96" cy="171.76" rx="2.92" ry="2.61" transform="translate(-77.01 237.51) rotate(-72)"/>
      <ellipse cx="107.93" cy="166.23" rx="2.92" ry="2.16" transform="translate(-83.52 217.5) rotate(-72)"/>
      <ellipse cx="298.76" cy="32.88" rx="2.79" ry="3.6"/>
      <ellipse cx="319.62" cy="32.88" rx="2.67" ry="3.6"/>
    </g>
    <g class="pupil">
      <ellipse cx="72.44" cy="104.29" rx="1.19" ry="1.22"/>
      <ellipse cx="48.29" cy="104.29" rx="1.19" ry="1.22"/>
      <ellipse cx="124.7" cy="171.52" rx="1.13" ry="1.02" transform="matrix(0.31, -0.95, 0.95, 0.31, -76.97, 237.1)"/>
      <ellipse cx="107.59" cy="165.96" rx="1.13" ry="0.84" transform="translate(-83.5 216.99) rotate(-72)"/>
      <ellipse cx="299.28" cy="32.88" rx="1.09" ry="1.4"/>
      <ellipse cx="320.21" cy="32.88" rx="1.04" ry="1.4"/>
    </g>
  </g>
  <g class="skinLatino">
    <path d="M220.15,227.9c-2.52-20.7-14.69-39-11.85-67.18.4-3.91-1.31-7.33,11.24-30.22,6.71,3.56,14,9.18,26.68,14.07a102.06,102.06,0,0,1-9.3,18.72c3,20.25-2.38,40.15-.45,62.82.61,7.14,7.45,7.57,6.35,25.28.13,6.23-1.25,10.81,1.22,13.44.25,3.67-5.19,2.93-7-1-.48,2.31-5,2.81-6.53.46-1.84,1.34-6,1.26-7.21-1.85-2.64.47-4.42-.57-5.21-3.35-2.7.47-5.2-9-3-16.77C218.17,231.48,220.42,231.75,220.15,227.9Z"/>
    <path d="M406.07,172.51c-8.58-4.18-9.3-10-12.58-9.51-19.93-3.27-38.22-.82-51.45-15-2.6-2.79-6.61-5.29-10-8.34,6.38-3.91,15.75-15.78,15.68-24.7a115,115,0,0,1,9.82,12.63c12.09.92,25.64,18,42.13,19.43,2.1-4.17,9.49-5.47,12.11-7.83,3.45-3.13,6.82-4.15,9-6.83,5-.28,3.3,7.45-1.76,9.42a35.34,35.34,0,0,1-4.51,3.84c3.11-1.21,5.76,1,12.16-1.48,2-.78,4.56-.88,7.13-1.36,4.56-1,4.64,4.24-1,6.16A75.34,75.34,0,0,0,422,153.32c5.28,1,7.55,2.08,14.5,2.32,3.35.32,2.55,6.32-4.74,6.24a63.36,63.36,0,0,0-12.68-.07c4.88,5.27,9.14,5.5,12.24,8.6,2.4,3.33-2.4,5-7.13,2-2.84-1.87-6.81-2.71-9.91-4.26-.92,1.44,1.79,6.36,3,8.17,2,2.44,3.22,4.89.9,5.82-2.55,1-4.72-1-6.12-3.21C409.9,175.9,408.88,175.62,406.07,172.51Z"/>
    <path d="M271.3,48.46c3,13.49-.9,25.48-3.83,27.9,1.36,8.36,15.35,13.81,33.68,17.4,6.92-5.9,7.25-11.32-.78-16.16"/>
    <path d="M272.23,9.11C278.64,5.48,283.32.22,292.62.25c15.92.06,19.58,13.33,29,19.42,4.68,3,2.79,8.06,3.62,12.39.72,6.51,7.54,18.8-1,33.05-6.67,25.92-55.52,15-56-12-5.42,3.45-5.84-.31-9.37-2.82-6.56-4.67-6.69-15.52-1.48-18.44C261.79,22.63,268.54,11.94,272.23,9.11ZM303,32.78c-2.15-1.62-2.66-1.93-4.5-2-2.8-.09-5.64,1.86-7.63,3,2.21-.81,4-.41,6.26-.41,1.77,0,3-.52,5.15-.1C302.8,33.36,303.74,33.35,303,32.78Zm11.31.37c1.65-.32,2.73.05,4.93.19a27.35,27.35,0,0,1,3,.07,2.68,2.68,0,0,0,.12-1.51,3.62,3.62,0,0,0-3.05-1.13c-2.54.18-3.56,1-5.67,1.82C313.19,32.78,313.63,33.28,314.29,33.15Z"/>
  </g>
  <g class="skinEastAsian">
    <path d="M138,342.16l-22.56,17.55c-9.52,10.82-7.87,28.27-13.89,45.74,2.12,1.93,8.27,4.25,11.33,4.32,7.86-13.48,21.68-38.71,32.34-67.61C142.66,342.59,139.67,342.7,138,342.16Z"/>
    <path d="M141.85,368.26c-1.73-7.33.63-3.29-3.81-26.1a63.85,63.85,0,0,0-1.92-7.86c-4.55-.86-22.87,5.93-29,10,5.94,13.45,12.33,26.44,13.27,31.79,2.92,16.49,9.93,24.19,15.3,41.34,3-.33,9.91-2.35,12.39-4-2.31-12.73-3.2-24.24-5.13-32.9C142.29,377.4,143,373.08,141.85,368.26Z"/>
    <path d="M114.83,192.63c4.29,1.19,1.17,10.59-.07,15.6,3.86,13.54,32.16,11.42,24.92.48.15-5.78.86-14.89,8.08-16.67"/>
    <path d="M208.73,255.53c-15.07.66-25.56.59-40.63-3.46-4.29-1.77-8.25-4.88-11.92-8.25,4.55-1.34,9.63-7.45,9.43-12.4a37.68,37.68,0,0,1,4.1,3.19c8.53,1.23,22,11.47,35.42,11.21,3.43-3.42,1.7-6.54,8.31-8.93,5.61-2,5.27.17,9.13,1.08,1.79.81-.06,5.54-5.62,3.26-.84-.07-1.29.47-1.76.73-1.45,4.81-1.09,10.95.22,14.25C213.42,256.66,210.53,255.41,208.73,255.53Z"/>
    <path d="M91.75,244.83a76.16,76.16,0,0,1,12.78,2.63c0,4.83-2.26,9.51-2.13,14.52-.21,6.11-2.36,9.8-3.44,10.77a3.23,3.23,0,0,1-2.41,5.47C87.1,268.29,88.51,260,91.75,244.83Z"/>
    <path d="M96.51,277c-1-8.85-4.61-12.5-5-17.65-.65-10.84,3.1-26.3,2-38.68a33,33,0,0,1-10.86.85c-.94,7.31,3,6.89.06,9.88-.64,3.74,2.41,6.69.33,10.23,1.06,2.82.09,6,1.46,9.42-.27.08-.56.18-.86.29.69,7.07,2.41,9,2.2,14.09-.36,8.79.43,17.7-.08,29.3a13.44,13.44,0,0,0,4.2-3.34c2.5-.76,3.49-1.45,4.46-5.11C95.3,280.68,96.85,280,96.51,277Z"/>
    <path d="M68.69,130.92c-2.81,4.81-3.17,10-2.92,15.24,5.49,11.78-30.66,12.12-29.06-.69,1.9-3.91,1.66-10.05-.23-17.9"/>
    <path d="M7.21,258.09C6.66,248,.9,238.31,1.42,221.62c3.2,1.2,14.8,1,18.31-.26.51,11.44-2.52,24.25-.86,38,.45,2.35,3.66,4.81,4.94,11.77,1.1,5.9-.67,8.48-.19,12.21.35,2.8-.5,3.22,0,5.59-.49,2.19-5.16,1.28-4.59-4.09.1-.88-.47-1.8-.39-2.91C16.45,283.74,18,288,17,290.26a6,6,0,0,1,1,3.22c4.58.36,3.37,5.66,1.07,4.94-2.93-1-4.08-.36-5.58-3.29a9.08,9.08,0,0,1-6.31-4.44c-1.65-.15-3.36-.72-3.72-3.23-2.8-3.15-1.58-9.52-.87-14C4.92,262,7.12,262.27,7.21,258.09Z"/>
    <path d="M90.76,278.38c2.11-.63,1.74-3.76.17-4.32a22.61,22.61,0,0,0-5.16-.55c.06,5.11.25,10.5.14,16.63,2.88.06,3.91-1.54,3.28-3.14,3.12,0,3.47-3.22,2-3.93C94.09,282.41,93.57,278.74,90.76,278.38Z"/>
    <path d="M73.21,137.37c-3.9,3.17-4.89,6.12-12,6.67-6.15.47-6.68-.23-14.88-4.12-8.76-4.15-14.92-10.78-17.5-19.94-3.59,2.38-4.8-1-5.92-3s-6.26-10.33-2.35-16.45C17.76,80.85,53,46.66,83.28,78.73c-3.34,12.53,1.42,9.93-.83,24.12C81.85,106.64,86.31,126.7,73.21,137.37ZM55.45,104.93A5.91,5.91,0,0,0,50,101.64a11,11,0,0,0-6.59,2.84,10.29,10.29,0,0,0,5.7,2c1.78.11,3.08-.6,5.44-.91C55,105.51,55.92,105.78,55.45,104.93Zm13.58.58c3,1.35,7.66,1.08,9.94-1.19-1.5-.85-2.54-2.63-6-2.6-2,0-3.25.89-5,3C67.27,105.55,68.62,105.33,69,105.51Z"/>
    <path d="M132.74,200.94a29.06,29.06,0,0,1-15.1,3.11c-6.23-.56-8.2-.1-12.77-2.51-4.14-2.18-3.14-5.31-4.58-8.68-5-11.82,4.85-25.51,5.07-28.91.86-8.63,4.07-7.13,6.47-18.08,34.84-14.51,72.57,55.87,30.63,52.36m-19.48-26c1,.32,1.94,1.05,3.47,1.59,2,.72,2.69.35,4.63.61-1.08-1.46-1.5-2.89-3.9-3.67a4.88,4.88,0,0,0-4.6.58C121.87,171.79,122.62,172.08,123,172.19Zm-9.93-3.85a5.09,5.09,0,0,0-3.82-3.75,2.31,2.31,0,0,0-1.92.21,3.23,3.23,0,0,0-.62,2.18c1.37,1.51,4.37,1.44,5.55,1.78C112.83,168.94,113.17,168.8,113.05,168.34Z"/>
  </g>
  <path class="lipMaleBrown__noStroke" d="M308.67,56.23a10.38,10.38,0,0,0,4.82.14c1.82.64,4.18.22,4.8,2.35-1.89,2.29.82,10.17-8.42,11.07-9.64.94-9.49-7.63-13-9.64C303.34,55.46,306.32,56.69,308.67,56.23Z"/>
  <g class="eyebrowLightGray">
    <path d="M324.64,24.53a7.75,7.75,0,0,0-1.13-2.89c-3.54-1-5.55,0-9.89-1.17C313,26,320.16,23,324.64,24.53Z"/>
    <path d="M305.16,20.67c.32,4.75-7.14,2.42-10.54,2.84-8.21,1-8.36,3.9-10,3C292.75,18.44,297.58,21.05,305.16,20.67Z"/>
  </g>
  <path class="hairLightGray" d="M294.49,61.5c.58-5.54,7.66-7.73,11.3-6.92,4.33,1,6.32,1.24,10.57.25,1.24-.28,3.81-1.12,3.91,6,.05,4-5.39,16.58-8.88,10.16a7.38,7.38,0,0,1-3.12.16C306,76.45,293.57,70.22,294.49,61.5ZM257.44,31.83c1.95-1.23,5.52-.91,6.85,1.35,7.71,3.74,3.68,18.36,3.1,28.76-.41,7.33,6.85,11.46,8.11,18.92A13.8,13.8,0,0,0,278,75.4c4.74,6.73,10.55,7,14.42,12a12.54,12.54,0,0,0,.28-5.16c4.53,4.52,11.17,3.1,15.41,10.38a23.1,23.1,0,0,0,10-13.62A7.68,7.68,0,0,0,321,82.79c.06-6.47,5.69-11,3.24-17.68a10.78,10.78,0,0,1-4,3.85c-1.09-3.27,2.39-8.29.28-14.6-1.33-4-4.67-2-7.21-2-5.14-.11-10.95-3.09-17.83,1.86-6.5,4.67-1.89,8.84-7.09,15.65a29.38,29.38,0,0,1-13.21-9.15,8.77,8.77,0,0,0,5-.52c-8-5.31-10.48-16.7-9.05-26.54,1.36-9.43,9.82-14-2.25-21.06a22,22,0,0,1,3.28-3.48c-11.49.58-11.57,9.85-18.7,13.13a7.46,7.46,0,0,0,5.74-.53A11.08,11.08,0,0,0,257.44,31.83Z"/>
  <g class="lipMaleMedium__noStroke">
    <path d="M106.74,184c.38-.24,1.26.6,2.44,1s2.7.18,3.09.88a20.27,20.27,0,0,0,4.68,5c-1.82,1-3.78,5-9.22,3-5-1.86-1.89-5.2-3.09-7.28C106.3,185.77,105.83,184.37,106.74,184Z"/>
    <path d="M62.28,135c-5.45.62-5.61-4.66-7.92-6.21,3-1.42,3.9-3.85,6.19-4.31a6.75,6.75,0,0,0,5.31.07c1.91.36.91,2.7,2.59,3.67C66.89,130,67.79,134.38,62.28,135Z"/>
  </g>
  <g class="mouthInner">
    <path d="M305.27,65.1c5,1.37,10.21-.09,12.53-6.88-2.6-1.87-2.76-.6-6.41-.56s-4.73-2.74-13.24,2C300.46,61.72,301.61,64.1,305.27,65.1Z"/>
    <path d="M115.94,190.5c-3.25-1.46-3.64-3.56-5.79-3.48-1.52.06-1.49-.15-2.17-.71-.94-.77-2,.24-2.53.26.63.91.46,2.92,2.84,3.91C112.43,192.18,113.46,190.79,115.94,190.5Z"/>
    <path d="M67.69,128c-.59-.17-2.47-.62-2.59-1.3-2.56,1.26-3.9-.4-5-.11-1.44.37-2.21,1.33-5,2.1C57,130.36,63.75,134,67.69,128Z"/>
  </g>
  <g class="tongue">
    <path d="M312.08,60c-4.71-1.76-8.21-2.27-10.62-2a35,35,0,0,0-3.31,1.62c2.31,2.11,3.46,4.49,7.12,5.49a9.8,9.8,0,0,0,9-1.45C314.52,61.76,313.44,60.18,312.08,60Z"/>
    <path d="M66.4,129.57a3.79,3.79,0,0,0-2-1.78,24.46,24.46,0,0,0-5.87-.53,14.51,14.51,0,0,1-3.44,1.44C56.77,130.19,62.47,133.29,66.4,129.57Z"/>
  </g>
  <g class="teeth">
    <path d="M316.16,57.32c-1.28-.39-2.07.31-4.77.34-3.52,0-4.61-2.42-11.83,1.21C304,61.36,316.9,63.22,316.16,57.32Z"/>
    <path d="M114.92,190c-2.34-1.39-2.87-3-4.77-2.95-1.52.06-1.49-.15-2.17-.71a1.28,1.28,0,0,0-1.15-.25,2.75,2.75,0,0,0-.19,1.57C107.62,189.24,111.34,190.38,114.92,190Z"/>
    <path d="M66.46,127.64c-.65-.23-1.29-.54-1.36-.93-2.56,1.26-3.9-.4-5-.11a13.9,13.9,0,0,0-2.55,1.19C60.1,129.15,64.15,129.2,66.46,127.64Z"/>
  </g>
  <g class="lipOverlapLine">
    <path d="M115.94,190.5a4.65,4.65,0,0,0,1.43.42"/>
    <path d="M104.29,186.41a2.7,2.7,0,0,0,1.16.16"/>
    <path d="M108,186.31a3.07,3.07,0,0,1-.75-.92"/>
    <path d="M317.8,58.22a1.8,1.8,0,0,1,.66.87"/>
    <path d="M296.22,60.32a7.21,7.21,0,0,0,1.93-.71"/>
    <path d="M53.65,128.77a3.28,3.28,0,0,0,1.45-.07"/>
    <path d="M65.1,126.71a3,3,0,0,0,.57-.38"/>
    <path d="M67.69,128a5.92,5.92,0,0,0,1.23.23"/>
  </g>
  <g class="lipEdgeLine">
    <path d="M106.74,184c.38-.24,1.26.6,2.44,1s2.7.18,3.09.88"/>
    <path d="M104.74,190.75c.18,2.45,4.39,4.25,7.48,3.41"/>
    <path d="M316.16,66.06c-2.74,5-10.94,4.43-13.62,1.76"/>
    <path d="M313.49,56.37a10.38,10.38,0,0,1-4.82-.14"/>
    <path d="M60.55,124.5a6.75,6.75,0,0,0,5.31.07"/>
    <path d="M57.84,133.77c2.33,2,6.26,1.53,8.48-.57"/>
  </g>
  <path class="smileLine" d="M290,36.08a22.38,22.38,0,0,0-4.91,2.11"/>
  <g class="cheekLine">
    <path d="M318.07,48.91a11.81,11.81,0,0,1,2.2,3.11"/>
    <path d="M303,45.15c-1.11.21-2,1.35-3.21,2.34a13.33,13.33,0,0,0-3.7,4"/>
  </g>
  <g class="noseLine">
    <path d="M118.3,179.9a2.26,2.26,0,0,1-1.53,3.44"/>
    <path d="M109.49,175.27c-1.67,1.91-3.56,2.27-2.49,4.89"/>
    <path d="M111.21,181.59c1.33-.33,3-1.38,3.48.78"/>
    <path d="M107.82,179.09a2.41,2.41,0,0,0,1.16,1.65"/>
    <path d="M314.79,39.36c.31,1.36.94,1.61,1.93,3.7s4.58,3.81-.53,7.56"/>
    <path d="M303,45.15c-1.14.52-1.75,4.22.23,5.36"/>
    <path d="M305.77,50.25c-1.09-3.28,3.18-.21,4.8.21"/>
    <path d="M317.44,48.58c-.67-1.79-.46,1.51-3.31,1.91"/>
    <path d="M56.08,120.15a2.63,2.63,0,0,1,.17-4"/>
    <path d="M66.48,119.58c-3.55,3.32-6-.21-8.3.31"/>
    <path d="M67.57,116.13a2.14,2.14,0,0,1,.65,3.67"/>
  </g>
  <g class="eyeFoldLine">
    <path d="M129.18,176.59c-1.53.56-4.75-.31-6-2"/>
    <path d="M110.38,170.66c-1.35.2-4.07,0-4.68-1.93"/>
    <path d="M322.65,37.33a8.3,8.3,0,0,1-7.24-.47"/>
    <path d="M301.74,36.79c-2,1.63-6.33,1.7-8.71.25"/>
    <path d="M75.08,107.92c-1.19,1-3.49.64-4.76,0"/>
    <path d="M51.75,107.75a6.08,6.08,0,0,1-6.07,0"/>
  </g>
  <g class="eyeCornerLine">
    <path d="M133.1,175.89a4.05,4.05,0,0,1-2-1.5"/>
    <path d="M107.31,164.8a4.93,4.93,0,0,1-1.37.26"/>
    <path d="M106.69,167a7.68,7.68,0,0,0-.92-.68"/>
    <path d="M287,33.9c1.21.67,2.77.22,3.82-.14"/>
    <path d="M322.39,31.9a2.51,2.51,0,0,0,1,.42"/>
    <path d="M322.27,33.41a3.23,3.23,0,0,1,1.74.68"/>
    <path d="M79,104.32c.52.31,1.24.78,1.71.7"/>
    <path d="M41.46,105.3a3.65,3.65,0,0,0,1.93-.82"/>
  </g>
  <g class="eyeCreaseLine">
    <path d="M314.37,30.37c7-3,9,.05,8.75,1.25"/>
    <path d="M291.39,31.84c3-2.14,7.19-4.06,9.9-1.16"/>
    <path d="M43.45,102.24c2.58-1.35,7.17-4.15,11.15-.46"/>
  </g>
  <g class="eyebrowBlack">
    <path d="M135.85,171.47c-3-8.54-8.23-6.68-12.68-8.7C124.88,167.26,131.12,164.77,135.85,171.47Z"/>
    <path d="M107,158a12.2,12.2,0,0,0-.69,1.45c3.9-.56,5.92,2.71,8.4.56C112.45,159.4,110.17,157,107,158Z"/>
    <path d="M39.9,97.7c5.17-5.68,11-2.44,16.94-2.66C53.9,98.68,45.67,93.78,39.9,97.7Z"/>
    <path d="M67.55,95.19c3.73,1.06,8.82-2.74,13.38,2.89C75.68,94.73,70.29,98.45,67.55,95.19Z"/>
  </g>
  <g class="hairBlack">
    <path d="M164.77,146.85c.82-1.71,7.1-3.12,11.67.25-2.88-4.88-12.65-6.92-16.27-4.23,1.63-4.38-2-19.41-9-21.29,4.1,3.48,4.7,14.32,3.69,17.68-4.77-2.49-11.58-6.46-23.29-6.68-13.47-.26-19.39,8.25-27.48,10.43a19.67,19.67,0,0,0,8.13.32c-4.42,2.15-6.83,7.79-6.81,12,7.21-3.77,11.46,7.35,25.49,0-.54,1.62-4.13,3.9-6.43,4.84,3.47-.12,9.48,1.52,16.41-8.08-4.09,11.45-1.84,19.74-.64,21.31a23.1,23.1,0,0,1,1.89-8.45,26.67,26.67,0,0,0,2.87,10.1c.95,3.69-1.74,8.75-4.41,12.58,5.68-2.26,6.65-8.66,8.26-6.18a50.89,50.89,0,0,0,6.21,6.81c-.61,2.59-3.92,6.19-7.61,7.33-2.33.72-3.91,2.42-5.78,1.48a20.08,20.08,0,0,0-1.56,6.23,10.85,10.85,0,0,0,9.59,5.18c-3.39-4.13.1-7.58,7.27-10.86,8.41-3.86,16.55-12.87,15.52-29.16a21.38,21.38,0,0,1,3.85,10.92C179.83,167.77,174.1,154.39,164.77,146.85Z"/>
    <path d="M68.81,56.52c-9.89-3.8-25.43-2-30.67,1.55-.06-4,4.15-8.44,7-10.36-5.34.83-10,6.32-10.19,11.27-1.27-2.42-7.75-3.56-9.95,1.16,3.08-2.84,6.63-1.23,7.29,1.25-16.53,9.69-15,31.51-11.72,39.18,1-1.41,4.64-1.75,5.27,4.31a7.64,7.64,0,0,0,3.5.17c.07-3.91-.88-4.41,2.4-9.83a12.34,12.34,0,0,0,9-6.16,15.87,15.87,0,0,1-1.48,4.88c2.72-.75,6.49-6.52,6.34-16.43C49,97.64,64.46,89.81,69.7,93.46c-.35-1.54-2.58-3.94-3.94-4.95,9.37,7,16.15-.43,21.14,5,1.18-4.19,1.39-7.47-.51-11.59,1.35.48,4,2.53,5.82,2.41C86.73,77.45,89.38,71.54,82.55,66a11.75,11.75,0,0,0,5.33-1.51C81.93,63.35,74.55,58.72,68.81,56.52Z"/>
  </g>
  <g class="hairOverlapLine">
    <path d="M145,175.07a51.65,51.65,0,0,0,3.85,6.4"/>
    <path d="M155.08,188.28a22.79,22.79,0,0,0,3.82,3.14,35,35,0,0,1-3.31-9.14"/>
    <path d="M31.7,95.22a20.78,20.78,0,0,1-4.52.75"/>
  </g>
  <g class="hairFoldLine">
    <path d="M269,12.59a5.84,5.84,0,0,0-1.13-.54"/>
    <path d="M288.44,69.86a9.18,9.18,0,0,1-2.36,2"/>
    <path d="M320.29,69a2.78,2.78,0,0,0,.88,1.76"/>
  </g>
  <g class="skinOverlapLine">
    <path d="M20.54,275.86c0,2.22-.77,4.86-1.9,6"/>
    <path d="M11.47,282.21c-.36,3.87-.6,6.54-.1,8.19a12,12,0,0,0,2.08,4.73"/>
    <path d="M6.57,281.79c0,3.51-.65,6.84.57,8.9"/>
    <path d="M3.35,281.3a14.74,14.74,0,0,0,.07,6.16"/>
    <path d="M90,291.43c.77-.93,1.24-2.83,1.58-5.34"/>
    <path d="M217.82,252.74c-.61,1.87-.22,4.09.25,6.37"/>
    <path d="M221.26,254.38a23.71,23.71,0,0,0,2,8.08"/>
    <path d="M226.68,254.84c0,2.41,2.29,7.49,3.81,9.47"/>
    <path d="M237,263.85c.51-2.75-2.09-4.81-1.54-10.83"/>
    <path d="M90.76,278.38c-1.68-.14-3.31.12-4.88-.11"/>
    <path d="M91.14,283.07a20.64,20.64,0,0,1-5.2,0"/>
    <path d="M89.19,287a10.3,10.3,0,0,1-3.23-.1"/>
    <path d="M99,272.75c-.65-.8-3-1.3-3.39-.74"/>
    <path d="M153.6,186.88c-.16,2-1.82,4.63-6,6.56"/>
    <path d="M147.32,186.05a5.58,5.58,0,0,1,3.3-2.4"/>
    <path d="M146.86,187.46c1.8,2.48-2.73,3.54-1.71,4.86.7.91,1.24-1.42,3.51-2,3.22-.8,2.25-4.08.57-3.34"/>
    <path d="M141.69,197.09a2.84,2.84,0,0,1-1.92-2.44"/>
  </g>
  <g class="skinFoldLine">
    <path d="M357.56,127.56c0,2.66-.73,5.83-3.11,10"/>
    <path d="M236.92,163.29a16.45,16.45,0,0,0-7.59-5.61"/>
    <path d="M422,151.47a4.31,4.31,0,0,1-.8,3.38"/>
    <path d="M419.41,160.33c-.06.85-.31,1.95-1.13,2.26"/>
    <path d="M414.94,167.11a3.68,3.68,0,0,1-2.15,2"/>
    <path d="M239.6,248.88c-1.53,2.67-3.77,4.6-6.42,4.73"/>
    <path d="M169.71,234.61a7.71,7.71,0,0,1,2,6.38"/>
    <path d="M100.61,259.46a16.81,16.81,0,0,0-5.52-1.73"/>
    <path d="M213.1,242.51a4,4,0,0,0,2.09-.55"/>
    <path d="M209.88,250.72a5.67,5.67,0,0,0,4.36-1.22"/>
    <path d="M24.09,106.55c-2-6.55-4.15-1.67-3,2.48"/>
    <path d="M25.07,109.27c-2.45,2.29,2.1,5.46.45,6.36-.74.41-.9-2.2-2.29-3.55-1.77-1.7-1-4.59.08-4.19"/>
    <path d="M263.73,38.6c-3-10.26-12.61-1.58-5.56,7.56"/>
    <path d="M264.14,41.06c-3,1.73,2.07,5,.36,6-1.48.82-.41-2-3.68-2.6-3.56-.62-1.94-7.31.72-5.11"/>
    <path d="M264.29,33.18A5.3,5.3,0,0,1,265,35.3"/>
  </g>
  <g class="skinCreaseLine">
    <path d="M415.4,152.87c-2.55,4.77-8.64,8.2-13,7"/>
    <path d="M399.51,150.18c-.62,1.57.55,4.95-.95,8.12"/>
    <path d="M429.71,146a3.92,3.92,0,0,1,.14,2.7"/>
    <path d="M431.22,157.58a3.39,3.39,0,0,1-.68,2.88"/>
    <path d="M425.71,169.19a3.33,3.33,0,0,1-1.58,1.95"/>
  </g>
  <g class="skinEdgeLine">
    <path d="M16.24,279.94c-3.65-2-4,0-6.16-1-2.45-1.14-2.87.64-4.59-.29a2.73,2.73,0,0,0-2.65.15"/>
    <path d="M229.46,251.63c-2.53.8-3.37-.67-5.67-.37-2.84.37-3.39-1.6-5-1.42-2.18.26-2.47-1-3.15-1.54"/>
  </g>
</svg>
