<svg id="presence" xmlns="http://www.w3.org/2000/svg" viewBox="0 0 1125.17 789.06">
  <defs>
    <style>
      .cls-1 {
        fill: none;
        stroke: #000;
        stroke-miterlimit: 10;
        stroke-width: 2px;
      }
    </style>
  </defs>
  <title>sobbing</title>
  <g id="christopherSock">
    <path class="cls-1" d="M218.81,212.35c5.78,6.71,21.16,6.4,26.71,16.46-25.3-3.75-53.73,52.71-35.94,73.62-9.44,3.52-24.11-8.08-31.64-9.84C112.77,277.74,153.73,165.55,218.81,212.35Z"/>
    <path class="cls-1" d="M399.32,585.63c16.32,8.16,20,1.14,32.35,3.19,22.54,2.09,29.68,86.75,11.28,92.82-9.61,4.89-18-1-32.81,5.13Z"/>
  </g>
  <path id="christopherSoleBottom" class="cls-1" d="M285.91,575.27c-18,3.28-21.08,46.48-3.91,94.42C296.81,711,304.45,771,337.16,783,448.93,759,323.53,554.56,285.91,575.27Z"/>
  <g id="christopherSoleSide">
    <path class="cls-1" d="M55.89,266.53C9.47,270.66-12.28,239,9.48,183.94c22.68-57.36,73.26-53.83,113.74-36.79Z"/>
    <path class="cls-1" d="M401.32,720.85c8.35,38.17-27.09,82.33-64.16,62.16,42.08-19.06,37.18-84.37,3.27-120.77-27.62-29.66-29.44-85.88-54.52-87,3.81-4.36,25.52-7.47,39.8-6C370.26,614,399.37,663.37,401.32,720.85Z"/>
  </g>
  <g id="christopherShoe">
    <path class="cls-1" d="M158,277.64c21.93-6.48,34.39-52.33,18.94-70.77,23.43,10.46,26.42-.5,41.87,5.48-44.36-56.82-117.63-83.24-158.5-62.3,12,33.39-4.48,82.74-40.86,94.2,12.45,23.92,25.91,21.43,48.84,22.92,29.34,1.92,91.71,34.14,109.65,25.42C168,285.62,165.47,277.62,158,277.64Z"/>
    <path class="cls-1" d="M399.32,585.63c-7.64,15.81,20.71,26.72,12,45.26,18,1.63,23.45,38.71,8.09,55-11.18,11.83-13.95,21.51-18.08,35-8-32.71-28.34-41.28-43.44-62.7C311,591.63,335,591.09,325.71,569.28,349.75,569.4,378.43,574.34,399.32,585.63Z"/>
  </g>
  <g id="christopherStrap">
    <path class="cls-1" d="M130.88,267.43a285.27,285.27,0,0,0-59.55-15.17c14.8-20.71,22.56-43.27,25.15-72.49,1.34-15.11,34.77-11.84,31.29,7.4,7.57-16.53,30-5.92,28.63,12.2C154.55,223.78,144.77,248.36,130.88,267.43Z"/>
    <path class="cls-1" d="M393.65,627.29c-2.28,11.21-9.82,21.58-11.85,37.35,9,15,18.18,37.74,19.52,56.21,2.89,3.1,8.87-13.37,5.38-18.27,3.49,4.61,8.51-3.92,7.92-9.72C412.31,670,407.38,646.69,393.65,627.29Z"/>
  </g>
  <g id="clothesOverlapLine">
    <path class="cls-1" d="M176.94,206.87c-6.41-2.33-13-6.59-20.54-7.5"/>
    <path class="cls-1" d="M158,277.64c-8.24.78-16.35-6.8-27.12-10.21"/>
    <path class="cls-1" d="M411.31,630.89c-3.06,4.48-8.28,5.5-8.76,12"/>
  </g>
  <g id="clothesBorderLine">
    <path class="cls-1" d="M387.31,645.06c10,18.66,17.59,40.2,19.39,57.52"/>
    <path class="cls-1" d="M105.14,259.19c11.89-18.66,19.94-42.81,22.63-72"/>
  </g>
  <path id="christopherShirt" class="cls-1" d="M1107.5,412.72c-22.86,46.61-19.66,91.53-47.36,117.07-26.05,24-94.2,21-146.08,55.27-15.83-5.27-36-43.89-42.21-76.49C590.49,495.38,603.67,490.1,616.84,132c22.88-26.16,29,14.28,55.42-5.06,83.36.81,175.76,7.93,189.92-39.57,63.31,16.71,144.15,19.54,169.7,77.38,19.34,3.52,13.72,13.34,18.47,20.22,5.09,7.41,15.82,7,7,25.5,2.64,24.62,21.1,13.19,16.71,36a175.55,175.55,0,0,0,22,44.84Z"/>
  <g id="clothesOverlapLine-2" data-name="clothesOverlapLine">
    <path class="cls-1" d="M871.85,508.57c36.57,4.81,68.63-3.2,97.34-5.87"/>
    <path class="cls-1" d="M842.46,184.27c3.19,7.23,29.62,7.65,45.93,11.9,27.18,7.09,49.42,15.36,92.16,2"/>
  </g>
  <g id="clothesFoldLine">
    <path class="cls-1" d="M644.68,150.63c13.44,49,9.59,9.16,20.33-19.58"/>
    <path class="cls-1" d="M632.11,210.85c16.39-23.79,2.57,50.42,3.21,110.48"/>
    <path class="cls-1" d="M695.85,145c-20.94,40.61-32,91.32-36.12,149.06"/>
    <path class="cls-1" d="M707.9,227.87c-8.91,38-11,74.32-3.53,108.23"/>
    <path class="cls-1" d="M767.09,164.52c-20.33,21-31.89,56.61-35.1,69.78-2.16,8.86-12.85-3.86-5.46-36.94"/>
    <path class="cls-1" d="M761.86,210.85c-11.4,18-17.34,45.28-25.37,68.09"/>
    <path class="cls-1" d="M794,226.91c-9.61,26.15-15.43,51.2-14.13,74.19"/>
    <path class="cls-1" d="M822.56,209.25c-13.23,28.07-23.73,55.33-22.16,79"/>
    <path class="cls-1" d="M780.3,358.71c-2.65,17-4.07,33.26,2.32,44.53"/>
    <path class="cls-1" d="M762.87,449.71c2.4,11,6.54,20.93,13.94,28.66"/>
    <path class="cls-1" d="M790.36,437.32c3.95,22.14,14.2,42.32,31.9,60.19"/>
    <path class="cls-1" d="M805.47,440.42c2.93,13,7.41,24.77,14.32,34.46"/>
    <path class="cls-1" d="M843.8,314.57c-.42,42.29,3,82.78,11.62,120.81"/>
    <path class="cls-1" d="M861.62,282a359.9,359.9,0,0,0-1.17,91"/>
    <path class="cls-1" d="M958,448.94c-.25,20.26,1.4,42-17.43,47.63"/>
    <path class="cls-1" d="M1016.12,510.51c-26.27.2-50.75-.34-62.75-6"/>
    <path class="cls-1" d="M1005.28,524.84c-28.78-3.15-53.39-8.05-64.67-18.54"/>
    <path class="cls-1" d="M930.16,112.82c-22.46,15.1-26.72,49.56-43,64.28"/>
    <path class="cls-1" d="M913.89,160.83c-4.12,13.34-11.54,25.5-25.5,35.34"/>
    <path class="cls-1" d="M961.52,126c-16.87,15.14-23.23,44.53-46.46,56.93"/>
    <path class="cls-1" d="M977,134.11c-10.94,6.54-19,22.08-29,33.69"/>
    <path class="cls-1" d="M997.54,159.28c-1.94,12.78-21,25-41.82,31"/>
    <path class="cls-1" d="M1030.84,178.26c4.84,8.26,3.31,19.11-5.42,32.91"/>
    <path class="cls-1" d="M1057.38,210.49c-6,10.2-18,17-35.83,20.43"/>
    <path class="cls-1" d="M1061,230.15c-7,8.13-14.53,8-24,10.07"/>
    <path class="cls-1" d="M1074.09,246.54c-2.51,4.18-16.14,11.1-26.6,9.94"/>
    <path class="cls-1" d="M1000.63,237.51c-23.23-1.17-57.31-13.94-71.25-22.46"/>
    <path class="cls-1" d="M963.85,251.83c-27.46-14.19-50.89-31.2-66.91-53.38"/>
  </g>
  <g id="skinEastAsian">
    <path class="cls-1" d="M1125.08,274.68l-53.63,4.4c-103.76-22.87-117.82,167.06-.88,156.51l51.88-7"/>
    <path class="cls-1" d="M592.14,19.37C636.21,68.43,603.05,92.51,688,141.12c27.38,15.67,94,23.62,154.46,43.15,17.26-4.08,44.52-76.77,20.89-91.76-29.07-7.73-74.6-17-87.67-26.08-41.8-28.89-76.33-27.07-119-65.69"/>
    <path class="cls-1" d="M674.63,450.05c42,33.28,109.8,81.65,114.76,134,36.91-1.68,69.5-6.07,107.72-14.42-12.08-17.56-20.32-38.06-25.26-61.07-17.1-5.08-42.84-2.32-49.59-11.06-20.09-1.29-28.64,5.55-38.47-1.29-17.53-13.68-23.94-10.68-44-34.62"/>
  </g>
  <path id="christopherShortsInner" class="cls-1" d="M504.11,584.87c84-17.6,26.79-41.64-32.29-24.65A130.46,130.46,0,0,0,504.11,584.87Z"/>
  <path id="christopherShorts" class="cls-1" d="M385.17,280.61c-4.69-91.27,63.49-110.42,71.7-120.87C469.26,144,480.11,135.38,500,137c15.41-.53,23.6-21.31,54.69-8.83,25.6-7.44,43.23,1.37,62.12,3.89,8,36.8,12.15,72,0,100.78,8.26,21.44,11.15,43,5.67,64.87,12.36,30.56,15.84,64.15-2.52,105.18,17,16.37,50.39,23.93,54.64,47.2L490.34,559.54c-4.48,10.38,5.33,19.25,13.77,25.33-59.84-26.46-123.37-81-112.29-158Z"/>
  <path id="clothesDisplayLine" class="cls-1" d="M632.31,357.43c-35.43,34.3-43.72,24.83-66.73,39.76"/>
  <g id="clothesOverlapLine-3" data-name="clothesOverlapLine">
    <path class="cls-1" d="M622.51,297.67c-4.21,19.16-10.8,35.28-20.91,46.87"/>
    <path class="cls-1" d="M565.58,397.19c20.64-4.26,39.06-3.08,54.41,5.66"/>
  </g>
  <g id="clothesFoldLine-2" data-name="clothesFoldLine">
    <path class="cls-1" d="M491.41,552c-10.27-9.81-23.66-13.26-38-23.39"/>
    <path class="cls-1" d="M573.94,180.32q-29.73-19-75-19.68"/>
    <path class="cls-1" d="M500,137c40.41,7.73,96.24,31.66,116.81,95.84"/>
    <path class="cls-1" d="M614.89,201.05c-13.38-34.47-34.79-60.91-75-68.59"/>
    <path class="cls-1" d="M606.23,338.57c5.66,16.6,8.76,32.43,5.83,46.47"/>
    <path class="cls-1" d="M597.87,406.84c-14.81-1.08-30,0-45.8,5.26"/>
  </g>
  <g id="skinEastAsian-2" data-name="skinEastAsian">
    <path class="cls-1" d="M406.57,277.91c-69.53-30.19-86.25-19.68-163.09-49.26C220,228.1,195,276.63,207.24,299c74.59,50.35,104.62,106.88,185.68,134,20.13,6.73,42.86,23.08,62.81,25,56.56,5.4,112.39-53.12,145.87-113.46C643.36,236,476.93,160.86,406.57,277.91Z"/>
    <path class="cls-1" d="M674.63,450.05c-43.37-37.16-107-14.3-138.32,13.84-61.69,55.41-40.1,71.6-46,95.65,13.3,6.49,26.71,10.51,43.64,13.08-30.87,11.4-60.93,14.57-96.42,18.81C452.87,604,458.19,657.86,448.67,676c28.07,4.25,165.37,23.41,232.25,2.4,34.27-10.76,79.43-8,103.39-62.92C812.24,551.39,724.94,489.9,674.63,450.05Z"/>
  </g>
  <g id="skinOverlapLine">
    <path class="cls-1" d="M406.57,277.91a295.21,295.21,0,0,1,74.94,42.88"/>
    <path class="cls-1" d="M654,538.27C599.17,533,567.45,556.77,534,572.62"/>
  </g>
  <g id="skinFoldLine">
    <path class="cls-1" d="M783.79,496.22c11.67,11.24,21.1,31.46,19.19,48.56"/>
    <path class="cls-1" d="M776,95.42c-.46,14.74-8.72,29.92-29.17,45.78"/>
  </g>
</svg>
