<svg viewBox="0 0 258.44 278.78">
    <path class="key" d="M52,1.56C30.72-5,6.32,48.83,2.23,70.36.09,81.6.15,249.5,7.23,259.57c7.91,11.26,62.24,17.44,122,18.21,59.75-.77,114.08-6.95,122-18.21,7.08-10.07,7.14-178,5-189.21C252.12,48.83,227.72-5,206.45,1.56,182.74,8.93,78.58,9.82,52,1.56Z"/>
    <g class="keyEdgeLine">
        <path d="M213.68,13.81c9.61,38.88,5.31,130.88,5.31,183,9.27,12.81,19.43,41.2,22.83,55.78"/>
        <path d="M44.76,13.81c-9.6,38.88-5.3,130.88-5.3,183C30.18,209.65,20,238,16.62,252.62"/>
        <path d="M39.46,196.84c11,18.85,168.48,18.85,179.53,0"/>
    </g>
</svg>
