<svg viewBox="0 0 131.2 390.75">
  <g class="andrewShoe">
    <path d="M104.27,378.28a59,59,0,0,0-4-15.59l-21.8-2.15c-1.2,5.35-3.07,9.27-8,14.65a14.74,14.74,0,0,0-7.2,7C72.16,392.12,100.39,388.12,104.27,378.28Z"/>
    <path d="M54.45,377.44c.28-4.73-.68-8.52-2.34-13.23l-20.74-4.92c-5.63,6.35-13.57,12.08-19.08,12.84-5.87,1.25-8.83,3.71-10.54,5.63C3.74,393.13,51.88,387.43,54.45,377.44Z"/>
  </g>
  <g class="soleWhite">
    <path d="M104.27,378.28c-6.47,5.06-18.23,10-25.88,6.25-6.68-3.24-11.62-4.9-15.09-2.3-1.27,2.21-.2,4.84,3.07,6.24,4.75,2,11,2.51,17.77,1.58s17.13-4.26,19-5.92A8.16,8.16,0,0,0,104.27,378.28Z"/>
    <path d="M54.45,377.44a9.68,9.68,0,0,1-.55,5.85c-2.53,2-10.33,3.84-16.19,3.78C28.87,387,23.92,389.44,8,388.44c-7.86-.49-9.32-8.39-6.24-10.68,3.24-.31,6.87,2.29,8.13,5.92,8.15,2.52,13.94.15,27.6-.71C45.21,382.48,51.64,379.75,54.45,377.44Z"/>
  </g>
  <g class="shoelace">
    <path d="M77.21,364.92a32.24,32.24,0,0,1-6.71,10.27c2.84-1.27,8.63-1,12.58,1.54a49.81,49.81,0,0,0,7-10.42A17.26,17.26,0,0,0,77.21,364.92Z"/>
    <path d="M36.45,368.81a56.67,56.67,0,0,1-17.21,8.3,11.47,11.47,0,0,0-6.95-5,38.23,38.23,0,0,0,13.89-7.74C28.63,363.6,34,365.49,36.45,368.81Z"/>
  </g>
  <path class="andrewPants" d="M102.71,200c1.47,10.86,2.47,21.27,1.29,28.87-2.48,15.92-2.74,36.13-5.92,51.41-.39,1.87,2.93,5.55-2.16,8.32.54,1.82,4.8,3.6,1,7.73,4.25,6.51.94,24.12,4.84,38.19a13.73,13.73,0,0,1,0,10.05c-.71,2,4.5,4,.48,8.16-.12,3,3.54,5.67-.12,13-6.66,1.19-10.66-6.37-25-2.81-3.45-4.89,0-10.9-.89-14C72,346.17,74.05,341.5,73,337.5c-2.54-9.91-1.37-23.54-4.45-36.18-.74-3-4.24-4.39-.62-9.13-5.37-2.81-2.59-5.11-2.53-9.39.13-9.33-1.44-31.43-2.07-43.83.23,13-3.45,30.65-5.14,47.27-.2,1.95.16,5.57-1.63,6.84,1.2,9.13,3.57,41.18,1.31,48.36-1.15,3.65.58,8.42-.65,10.87-1.9,3.78-2.61,13.48-3.7,14.89-9.89,2.5-19-5.65-25.29-6.43-1.16-5.61,2-8.58-.17-16.17-3.13-3.14.17-11.39,0-28.05-.08-8.12-.79-16,.5-20.46-4.95-2.48-.33-5.61-.83-8.09-3.79-3-.58-4.77-.82-6.76-2.27-18.4-3.69-41.09-1.32-52.8-2.81-1.82-.49-4.62-.17-6.93,1.51-10.73,2.08-22.4,5.61-29.7Z"/>
  <path class="andrewShirt" d="M98.29,91.81c5.54,1.9,14.74.53,17.79,3.8,10.15,10.89-3.65,29.3-4.23,37.46-.25,3.51-3.12,5.24-2.62,8.16,2.3,3.58-1.4,6.48-.44,9.33.5,4.69.18,9.23-3.21,13.27,0,4.48,3.08,11.77-.58,17.57-1.27,6,1.49,10.95-2,14.29,2.49,1.59.27,4.26.73,6.85-2.76,1.41-4.7-.55-24-.4-12.9.1-38.49-3.29-50.09-9.07-1.8-3.12.91-4.16,1.31-5.69.59-2.27.34-9.95,3.21-15.6,1.56-3.09,2.19-39.11,7.14-50.08a3.62,3.62,0,0,1-3,1.45C27.06,118.66,31.6,106,41,90.8,48.15,81.91,75,91.67,98.29,91.81Z"/>
  <g class="andrewShirtInner">
    <path d="M87.4,103.27l-2.31,0c-1.28-4-2.87-6.75-5.32-6.9L91.48,84.6c6.18-.61,6.1,5,9.12,7.39,1.15.93-1.49,4.81-6,8.62C92.16,101.49,87.86,100.61,87.4,103.27Z"/>
    <path d="M67.74,83c-8.65,1.6-12.54,8-12.76,15.59,3.46-3.2,7.24-4.87,11.53-1.52Z"/>
    <path d="M87.4,103.27c-.37-.58-5.23.55-5.16,1,8.4,3.22,7.26,19.26,1,23.46-.64.38,4.78,1.32,5.59.5C95.22,121.84,95.3,107.9,87.4,103.27Z"/>
    <path d="M34.4,116l-.11.09A28.22,28.22,0,0,1,31.47,121a8,8,0,0,1,2.11,4.84c0,.82,4.69-1.73,4.69-2.72C38.19,120.48,36.13,117,34.4,116Z"/>
  </g>
  <g class="clothesDisplayLine">
    <path d="M71.11,126.53c-.08,1.65-.14,3.32-.21,5-2.48-.14-6.5.08-8.76-.49a49.38,49.38,0,0,1,.29-5.58"/>
    <path d="M82,97.37c-4,.32-6.47,3.25-8,7.82"/>
    <path d="M48.77,198.83c-3.44,6.88-2.34,14.55-13.26,15.86"/>
    <path d="M77.38,202.12c.34,9.79,7.63,14.11,17.36,15.06"/>
    <path d="M58,200.4c-2.14,3.92-1.34,8.48-1.74,13.1-.43,5.11.1,15,4.51,21.37"/>
    <path d="M66.55,201.44c-1.54,2.84-1,6.71-1.25,9.69-.47,7.12,2.38,17.45-5.34,16.62"/>
  </g>
  <g class="clothesOverlapLine">
    <path d="M41.3,121.7c1.3-3.18.91-4.49,2.28-8"/>
    <path d="M108.68,98c-6-2.18-7.2.86-14.11,2.61"/>
    <path d="M88.82,128.25c5.29,1.5,7.21-.78,10.09-1.86,3.49-1.32,8.74-2.39,11.17-5.63"/>
    <path d="M15.7,370.86a15.62,15.62,0,0,1,6.56,5.29"/>
    <path d="M18,369.82a16.75,16.75,0,0,1,7.71,5"/>
    <path d="M20.35,368.59a17.78,17.78,0,0,1,8.47,4.79"/>
    <path d="M22.67,367.14c3.06.36,6,2.14,8.85,4.8"/>
    <path d="M24.86,365.52c3.44.34,6.5,2.2,9.38,4.78"/>
    <path d="M84.44,375.09a17.59,17.59,0,0,0-12.28-1.81"/>
    <path d="M85.82,373.27a23.51,23.51,0,0,0-12.26-1.79"/>
    <path d="M86.94,371.65A25.09,25.09,0,0,0,74.6,370"/>
    <path d="M88,370a23.1,23.1,0,0,0-12.38-1.65"/>
    <path d="M89,368.25a20.24,20.24,0,0,0-12.54-1.54"/>
  </g>
  <g class="clothesFoldLine">
    <path d="M54.81,129.36a70.42,70.42,0,0,1-8.49,16.54"/>
    <path d="M53.17,144c-3,4.09-4.76,10-7.44,15.71"/>
    <path d="M36.27,176A37.33,37.33,0,0,0,50.2,186.39"/>
    <path d="M32.05,188c-.89,1.51,2,2.56,4.73,3.62"/>
    <path d="M36.26,184.46c5.13,6.12,15.54,5.57,12.89,9.84"/>
    <path d="M103,195.69c-1,.82-2.91.56-1.81,3.21"/>
    <path d="M102.9,177.33C96,182,88.44,184.87,79.72,185"/>
    <path d="M105,181.4c-5,6.1-16.21,5-15.76,8.3.31,2.31,5.62,2.52,11.65,2.4"/>
    <path d="M105.58,163.83c-3.43,4.53-11.16,3.48-7.8,8.4"/>
    <path d="M84.83,140.76c1.62,8.11,4.73,14.41,10.56,17.42"/>
    <path d="M85,129.62a48.22,48.22,0,0,0,5.64,11.79"/>
    <path d="M99,128.06c1.88,5.79,4,11,6.8,14.45"/>
    <path d="M100.18,136.48a27.94,27.94,0,0,0,5,10"/>
    <path d="M104.71,132.47a12.55,12.55,0,0,0,4,4.86"/>
    <path d="M104.91,129a37.89,37.89,0,0,0,4.14,5.05"/>
    <path d="M103.61,95.36a6.41,6.41,0,0,0-4.07,3.52"/>
    <path d="M97.72,118c6,2.55,11.3,4,14.7,2"/>
    <path d="M111.58,116.34a13.25,13.25,0,0,1-9.2,1.17"/>
    <path d="M25.61,228.44c1.52.62,2.66.24,4.71,1.1"/>
    <path d="M92.77,280.26A20.17,20.17,0,0,1,81.45,289"/>
    <path d="M68.56,283.72a7.39,7.39,0,0,0,6.08,5.35"/>
    <line x1="67.95" y1="292.19" x2="71.5" y2="294.19"/>
    <path d="M95.92,288.64c-4.88-.36-6.9,3.05-2.42,5.87"/>
    <path d="M93.82,304.67c-6-6.77-17.22-7.85-21.27-1"/>
    <path d="M32.94,282.77c3.33,3.53,9.12,4.58,16,4.51"/>
    <path d="M56.58,293.08c-2,.53-2.5,1.45-1.11,2.9"/>
    <path d="M27.75,288c2.41-.1,5.36,2.17,1.94,4"/>
    <path d="M28.58,296.09c2.15,1.11,4.34,1.86,4.78,4.39"/>
    <path d="M53,299.22c-.57-3.68-9.6.63-11.21,2.1"/>
    <path d="M47.5,291.78c-4-1.89-14.19-1.44-14.35,1.89-.11,2.12,4.12,2.63,8.17,3"/>
    <path d="M95.18,342.92c-2.44,4.34-7.56,5-12.05,3.46"/>
    <path d="M97.28,347.32c-5,4-3.92,7.08,1.46,10.06"/>
    <path d="M76.25,349c5,1.57,19.82,6.51,12.22,9.58"/>
    <path d="M54.84,324c.37,11.83-6.45,24.67-13.1,21.27"/>
    <path d="M28.08,344.6c2.21,3,11.21,2.7,11.77,7.18.26,2-4.21,4.79-7.12,5.08"/>
    <path d="M52.11,353.71c-5.71-.28-13.16,2.86-12.68,4.51.61,2.08,2.58,2.94,4.82,3.88"/>
    <path d="M101.78,344.61a3.56,3.56,0,0,0-1.28,2.87"/>
    <path d="M84.7,233.42a97.72,97.72,0,0,0-17.18-.52"/>
    <path d="M54.94,232.79a54.11,54.11,0,0,0-11.52.63"/>
    <path d="M57.56,236.67a27.42,27.42,0,0,0-11.42,2"/>
    <path d="M67.1,236.77a26.21,26.21,0,0,1,9.11,2.1"/>
  </g>
  <path class="hairBlack" d="M122.24,27.52c2.86-2.75,5.75-3.06,8.43-.65C122.63,2.22,74-8.69,68.6,8.86,58,9.2,50.22,36.31,54.91,48.42,83.52,52.34,89.09,52.67,122.24,27.52Z"/>
  <g class="hairOverlapLine">
    <path d="M91.8,17.69c5.81-7.48,29.82,1,38.87,9.18"/>
    <path d="M82.48,16.64c-2.48.07-4.42,2.05-6.44,3.74,1.51-4.26,6.49-8,10.77-6.14,4.9-7.64,21.6-6,30.11-.11"/>
    <path d="M68.6,8.86a10.52,10.52,0,0,1,5.78.59"/>
  </g>
  <g class="skinFilipino">
    <path d="M95.88,79.17c-.81,3.3-1.8,5.81-1.13,8.21-3.67,11.72-18.12,4.07-26.12,17.37.64-8.17-7.07-11.15-6.12-16,2.67-7.62,5-18.42,2.46-34.93"/>
    <path d="M110.25,24.29c3.91-.92,10.3,0,12,3.23,1.48,4.16,1,18.28-1.4,22.75-.77,1.44.76,3.68-1.47,4.9.84,1.72-.56,1-.58,4.08-.15,22-11.16,25.48-14.53,29.51-4.28,4.37-11.89,2.89-16.63-.32-8-5.46-22.42-12.7-22.73-26.6-5.44,2.26-4.41-1.35-6.82-3.67s-3.45-6.06-3.17-9.75c.61-8.25,9.88-9,10.69-1.41a18.81,18.81,0,0,0,7.84,1.21c.22-8.94,11-8.62,10.85-26.46C93.29,19.54,103.6,20,110.25,24.29Z"/>
    <path d="M46,83.3C38.59,94.08,38.76,111,31.47,121a8,8,0,0,1,2.11,4.84c-9.51,8-20.93,10.15-23.27,5.52C1.5,114,21.57,100.19,33.75,80.33c1.24-2.81-4.95-7.19,0-21.62.86-4.21-.28-6.55,1.61-10.2,2.2-4.27,4.9-3.59,7-6.44.87-1.68,2.83-3.51,3.37-4.64.77-1.59,4.76-.68,3.55,3.25,1.48-1.89,2-1.44,3.77-3.31,2.71-2.64,6,2.87.23,6.79-1.51,2.27-1.82,4.15-2.41,6.55,4.21-6,5.47-5.25,9.7-7.06,3.09-1.28,4.15,4.08-2,6.41-5.66,6.88-3.75,8.17-3.92,12.93-.11,3.07-1.43,6.95,3.58,6.6,1.81-.07,7.48-4.07,9.89.15,1.36,4-7.18,3.86-11.4,7.1C53.61,79.23,52.73,83.41,46,83.3Z"/>
    <path d="M26.73,83C44,94.43,60.48,100,67.87,105.6c2,.57,7.52-1,14.66-1.19,7.49,3.21,7,16.93,2,22.24-7.74.44-15.48-.37-23.33-1.41C48.57,123.57,33,99.75,16.43,89.39c-5-.31-5.78-4.45-8.87-7.81C5.16,79,.34,74.89,1.21,72.41,2.67,70,6.86,70.6,8.78,74.85c2.27,2.28,3.45.32,5-.83,3.8-2.93,1.76-5.85,3.36-8.89-.78-5.26.72-6-2-10.9-5.35-1.21-4.2-6.74-2-5.85a29,29,0,0,0,3.58,1c-2.91-5.19,1.17-7.17,2.48-5.23.78,1.41,1.32,1.46,2,2.29.15-1.13,2.15-2.56,3.33-1.18s3.41,3.34,3.77,8.79a1.61,1.61,0,0,1,2.29.1c.89,2,2.58,1.7,1.51,8.88-.79,5.36-3,4.69-4.17,10C27.49,74.66,28.19,77.69,26.73,83Z"/>
  </g>
  <g class="skinOverlapLine">
    <path d="M41.14,43.33c3.51-1.45,4.57,4.83-.64,6.42-2,3.7-1,6.19-.67,8.68"/>
    <path d="M49.26,40.68A7.51,7.51,0,0,1,46.39,45c-1.55,5.17-2.19,9-1.66,13.29"/>
    <path d="M50.85,50.71c-.76,3.64-1.3,5.32-1.06,7.64"/>
    <path d="M28.22,54c-1.32.91-1.09,4-.55,5.53.24,3.57-1.36,5.17-3.25,7.82-2.53.91-2.87,5-4.78,7.88-1.05,1.59-3.6,3.07-3.7,9.09"/>
    <path d="M16.63,49.34c2.94,4,3.52,8.82,3,15.87"/>
    <path d="M21.12,46.4a6.13,6.13,0,0,0,1.43,5.37c.92,1.6,1.73,9-.27,14.18"/>
  </g>
  <g class="skinFoldLine">
    <path d="M60.24,72.78c-.88-.18-1.41-3.06.09-3.84"/>
    <path d="M40.86,58.79a1.54,1.54,0,0,0-2.09.09"/>
    <path d="M45.63,58.54a1.61,1.61,0,0,0-1.89.05"/>
    <path d="M50.66,58.63a2,2,0,0,0-2.09-.05"/>
    <path d="M8.78,74.85a3.65,3.65,0,0,0-3.45,1.34"/>
    <path d="M22.93,66.48a1.16,1.16,0,0,0-1.51-.42"/>
    <path d="M20.44,65.64a1.15,1.15,0,0,0-1.6-.19"/>
    <path d="M23.51,127.28a22,22,0,0,0,8-6.25"/>
    <path d="M56.84,52.34a12,12,0,0,0,1.77,3.39"/>
    <path d="M64.44,50A10.27,10.27,0,0,0,63,46"/>
    <path d="M64.33,52.08c-1.75,1.67,1.43,4.72-.57,5.24-1.79.45-1-2.77-2.69-3.42-3.43-1.32-.8-6.56,1-4.61"/>
  </g>
  <g class="skinCreaseLine">
    <path d="M52.66,65.92c-8.36,3.18-7.9,9.49-11.28,14"/>
    <path d="M47.62,61.14c.42,5.59-4.38,7.1-11,6.57"/>
    <path d="M70.82,114.36c0,2.8-.7,5.25-3.81,6.55"/>
  </g>
  <path class="lipMaleBrown__noStroke" d="M98.6,73a12.28,12.28,0,0,0,5.9.64c.7.74,2.18.46,3,1.73-3.41,1.82-.62,8.55-8.28,7.14-8.1.37-6.53-7-8.63-9.35C93.08,71.05,97.18,73.51,98.6,73Z"/>
  <path class="teeth" d="M106.24,75c-1.59,5.44-3.18,4-5.93,3.65-3.57-.39-7.52-.29-8.59-5.85,2.81-.58,5.66,1.85,9.11,2.3C103.65,75.42,104.83,74.79,106.24,75Z"/>
  <path class="teethOverlapLine" d="M92.34,72.68c.6,3.74,10.8,5.82,13.36,3.88"/>
  <g class="lipOverlapLine">
    <path d="M107.86,75.39c-.56-.06-.93-.34-1.62-.43"/>
    <path d="M90.06,73.25a10,10,0,0,1,1.66-.49"/>
  </g>
  <g class="lipEdgeLine">
    <path d="M98.6,73a12.28,12.28,0,0,0,5.9.64"/>
    <path d="M94.22,81.1c1.27,1.43,3.11,1.15,5,1.36,2,.24,3.17.43,4.9-.88"/>
  </g>
  <path class="smileLine" d="M89.19,52.67a4.6,4.6,0,0,0-3.08.73"/>
  <g class="cheekLine">
    <path d="M110.22,69.6a5.83,5.83,0,0,1,.4,4.26"/>
    <path d="M95.35,65.46c-1.64,2.4-5.62,1.2-8.65,7"/>
  </g>
  <g class="noseLine">
    <path d="M108.73,58.42c.28,4.71,5,9.17-1.37,10.46"/>
    <path d="M99.43,63.52A2.3,2.3,0,0,0,99,67.38"/>
    <path d="M100.83,67.65a4.15,4.15,0,0,1,3.88-.05"/>
  </g>
  <g class="eyeLashLine">
    <path d="M119.37,55.17c-3.27-2-8-1.17-9.29-1.09"/>
    <path d="M87.25,50.76c2.5.53,2.14-1,6.49-.62,1.83.14,3.77.89,6.92,2.14"/>
  </g>
  <g class="eyeFoldLine">
    <path d="M117.08,57.4c-1.32.54-3.34-.06-4.54-.89"/>
    <path d="M98,54.64c-1.53.65-4.54,0-6-.75"/>
  </g>
  <g class="eyebrowBlack">
    <path d="M103.64,44.6c.4-.11.62-1.5.08-1.55-4.63.76-9.06-3-14.9-.16-.33.1.14,1.47.46,1.37C95,42.93,98.85,46.12,103.64,44.6Z"/>
    <path d="M113.35,44.43c-.53-.1-.69,1.29-.33,1.51,3,2.24,5.25,1.55,8.52,2.55.18-.58.34-1.22.49-1.91C118.77,45.44,116.09,46,113.35,44.43Z"/>
  </g>
</svg>
