<svg id="presence" xmlns="http://www.w3.org/2000/svg" viewBox="0 0 778.09 2026.68">
  <defs>
    <style>
      .cls-1 {
        fill: none;
        stroke: #000;
        stroke-miterlimit: 10;
        stroke-width: 2px;
      }
    </style>
  </defs>
  <title>feigningFear</title>
  <g id="andrewShoe">
    <path class="cls-1" d="M676.33,1946.35c-2.63-31.42-12.63-65.65-26.12-101.22l-141.51-14c-7.79,34.78-20,60.21-51.62,95.11-23.84,11.14-38.52,28.54-46.79,45.74C467.83,2036.2,651.14,2010.22,676.33,1946.35Z"/>
    <path class="cls-1" d="M352.88,1940.86c1.82-30.68-4.43-55.3-15.21-85.88L203,1823c-36.52,41.22-88.06,78.41-123.87,83.33-38.09,8.17-57.31,24.13-68.4,36.59C23.67,2042.74,336.16,2005.74,352.88,1940.86Z"/>
  </g>
  <g id="andrewSole">
    <path class="cls-1" d="M676.33,1946.35c-42,32.81-118.41,64.59-168.06,40.52-43.33-21-75.43-31.8-98-14.89-8.2,14.35-1.27,31.4,20,40.5,30.81,13.17,71.28,16.28,115.33,10.25,44.87-6.15,111.24-27.68,123.54-38.45C676.94,1970.7,678.7,1958.16,676.33,1946.35Z"/>
    <path class="cls-1" d="M352.88,1940.86c2.42,13.08,1.92,24.36-3.59,38-16.4,13.32-67.05,24.93-105.08,24.55-57.43-.57-89.58,15.36-193,8.89-51-3.19-60.49-54.46-40.5-69.33,21-2,44.6,14.87,52.8,38.4,52.89,16.4,90.44,1,179.12-4.59C292.87,1973.62,334.63,1955.89,352.88,1940.86Z"/>
  </g>
  <g id="andrewShoelace">
    <path class="cls-1" d="M500.65,1859.6c-8.4,22.81-23.77,44.94-43.57,66.64,18.45-8.2,56-6.37,81.66,10a324.67,324.67,0,0,0,45.11-67.67C557.19,1853.24,521.56,1852.71,500.65,1859.6Z"/>
    <path class="cls-1" d="M236,1884.84c-34.91,24.61-71.69,42.41-111.75,53.87-10.72-17.59-30.24-29.27-45.11-32.34,34.71-11.41,65.21-27.65,90.22-50.24C185.26,1851,220.12,1863.31,236,1884.84Z"/>
  </g>
  <g id="clothesOverlapLine">
    <path class="cls-1" d="M101.32,1898.17c15.33,5.73,29.43,17.56,42.55,34.33"/>
    <path class="cls-1" d="M116.44,1891.38c17.95,4.62,34.49,16.15,50.06,32.38"/>
    <path class="cls-1" d="M131.48,1883.42c19.27,3.73,37.49,14.85,55,31.12"/>
    <path class="cls-1" d="M146.53,1874c19.87,2.31,38.93,13.89,57.49,31.15"/>
    <path class="cls-1" d="M160.78,1863.46c22.31,2.26,42.17,14.34,60.86,31"/>
    <path class="cls-1" d="M547.56,1925.64c-26.24-14.15-55.6-17.71-79.73-11.77"/>
    <path class="cls-1" d="M556.55,1913.78c-28.14-11.41-54.43-15.13-79.6-11.59"/>
    <path class="cls-1" d="M563.79,1903.3c-28.77-11.07-55.48-13.92-80.13-10.74"/>
    <path class="cls-1" d="M570.57,1892.64c-28.22-11.38-55.19-14.75-80.41-10.7"/>
    <path class="cls-1" d="M577.19,1881.24c-27.32-13-55.63-14.83-81.43-10"/>
  </g>
  <path id="andrewPants" class="cls-1" d="M666.15,789.18c9.59,70.49,16.07,138.13,8.39,187.43-16.1,103.37-17.79,234.57-38.43,333.75-2.52,12.12,19,36-14,54,3.51,11.82,31.14,23.34,6.58,50.2,27.63,42.22,6.14,156.58,31.47,247.92,8.38,22.27,8,44,0,65.24-4.61,13,29.17,26.09,3.07,53-.77,19.18,23,36.84-.77,84.43-43.24,7.69-69.22-41.39-162.32-18.29-22.37-31.76,0-70.73-5.77-90.93-27.43-18.05-14.26-48.36-20.93-74.34-16.53-64.33-8.91-152.83-28.91-234.9-4.78-19.62-27.51-28.45-4-59.27-34.87-18.19-16.86-33.14-16.47-61,.85-60.58-9.34-204-13.41-284.53,1.5,84.64-22.42,199-33.34,306.85-1.29,12.71,1,36.21-10.59,44.45,7.76,59.26,23.16,267.35,8.47,314-7.46,23.66,3.76,54.61-4.23,70.55-12.31,24.53-16.94,87.49-24,96.66-64.21,16.23-123.47-36.69-164.2-41.75-7.5-36.42,12.85-55.7-1.07-105-20.36-20.35,1.07-73.91,0-182.1-.53-52.72-5.14-103.66,3.21-132.83-32.14-16.07-2.14-36.42-5.36-52.49-24.63-19.28-3.76-31-5.35-43.92-14.73-119.46-23.91-266.72-8.57-342.78-18.21-11.79-3.18-30-1.07-45C174.34,859,178.06,783.17,201,735.74Z"/>
  <g id="clothesDisplayLine">
    <path class="cls-1" d="M316,781.34c-22.35,44.69-15.2,94.48-86.09,103"/>
    <path class="cls-1" d="M501.73,802.73c2.2,63.55,49.51,91.58,112.69,97.75"/>
    <path class="cls-1" d="M376.05,791.53c-13.87,25.43-8.73,55-11.28,85.06-2.82,33.16.61,97.28,29.28,138.69"/>
    <path class="cls-1" d="M431.45,798.25c-10,18.49-6.83,43.57-8.12,62.93-3.08,46.23,15.41,113.27-34.67,107.87"/>
  </g>
  <g id="clothesFoldLine">
    <path class="cls-1" d="M165.62,973.55c9.87,4.07,17.26,1.6,30.58,7.17"/>
    <path class="cls-1" d="M601.64,1310c-16,25.56-39.26,45.4-73.47,56.46"/>
    <path class="cls-1" d="M444.5,1332.42c4.75,17.51,21.18,33.32,39.45,34.77"/>
    <line class="cls-1" x1="440.52" y1="1387.41" x2="463.55" y2="1400.44"/>
    <path class="cls-1" d="M622.11,1364.39c-31.73-2.35-44.84,19.82-15.71,38.09"/>
    <path class="cls-1" d="M608.44,1468.47c-39.23-44-111.78-51-138.09-6.8"/>
    <path class="cls-1" d="M213.21,1326.29c21.64,22.91,59.24,29.73,104.08,29.26"/>
    <path class="cls-1" d="M366.71,1393.22c-12.75,3.41-16.25,9.37-7.24,18.79"/>
    <path class="cls-1" d="M179.54,1360.25c15.66-.7,34.76,14.09,12.58,25.91"/>
    <path class="cls-1" d="M184.9,1412.74c14,7.18,28.17,12.11,31,28.52"/>
    <path class="cls-1" d="M343.14,1433.1c-3.72-23.93-62.31,4.07-72.79,13.6"/>
    <path class="cls-1" d="M307.77,1384.8c-25.71-12.31-92.13-9.4-93.2,12.24-.68,13.78,26.79,17.09,53.06,19.73"/>
    <path class="cls-1" d="M617.28,1716.77c-15.82,28.2-49.07,32.23-78.23,22.44"/>
    <path class="cls-1" d="M630.89,1745.34c-32.26,25.77-25.4,46,9.52,65.3"/>
    <path class="cls-1" d="M494.37,1755.92c32.52,10.21,128.71,42.28,79.38,62.2"/>
    <path class="cls-1" d="M355.38,1593.64c2.41,76.75-41.85,160.16-85,138.09"/>
    <path class="cls-1" d="M181.69,1727.67c14.34,19.3,72.73,17.53,76.42,46.64,1.64,12.94-27.33,31.07-46.26,32.93"/>
    <path class="cls-1" d="M337.7,1786.83c-37.07-1.86-85.43,18.55-82.31,29.25,3.93,13.51,16.7,19.07,31.29,25.17"/>
    <path class="cls-1" d="M660.16,1727.75c-6.19,6.5-9.24,12.74-8.34,18.64"/>
    <path class="cls-1" d="M549.26,1005.89c-39.34-4.32-76.7-5.7-111.56-3.4"/>
    <path class="cls-1" d="M356.06,1001.81c-23.86-1.58-48.95.17-74.82,4.08"/>
    <path class="cls-1" d="M373.07,1027c-27.7-.42-52.6,3.59-74.15,12.92"/>
    <path class="cls-1" d="M435,1027.66c17.48.26,37.26,4.89,59.19,13.6"/>
  </g>
  <path id="andrewShirt" class="cls-1" d="M637.51,96.56c36,12.37,95.69,3.45,115.45,24.66,65.9,70.74-23.67,190.25-27.44,243.21-1.63,22.78-20.25,34-17,53,15,23.23-9.05,42.05-2.84,60.56,3.24,30.4,1.15,59.91-20.82,86.12.32,29.1,20,66.4-3.78,104.1-8.23,39.26,9.65,71-13.25,92.74,16.16,10.35,1.77,27.66,4.73,44.48-17.89,9.15-30.49-3.56-155.51-2.59-83.75.65-249.93-21.37-325.23-58.92-11.69-20.22,6-27,8.52-36.91,3.81-14.75,2.22-64.58,20.82-101.26,10.16-20,14.26-243.93,46.37-315.13-7,7.65-13.1,9.7-19.63,9.4-72.78-29.16-43.32-111.4,17.73-210C312,32.27,486.09,95.67,637.51,96.56Z"/>
  <g id="andrewShirtInner">
    <path class="cls-1" d="M566.78,171l-15,.18c-8.26-26-18.59-43.84-34.53-44.79l76-76.58c40.13-4,39.59,32.12,59.2,48,7.49,6-9.64,31.18-39.09,55.94C597.67,159.41,569.76,153.69,566.78,171Z"/>
    <path class="cls-1" d="M439.16,39.14C383,49.58,357.73,90.85,356.29,140.41c22.51-20.83,47-31.64,74.88-9.87Z"/>
    <path class="cls-1" d="M566.78,171c-2.39-3.77-34,3.54-33.52,6.62,54.57,20.87,47.15,125,6.42,152.29-4.11,2.46,31.08,8.55,36.31,3.21C617.52,291.51,618,201,566.78,171Z"/>
    <path class="cls-1" d="M222.72,253.81l-.75.57a185.24,185.24,0,0,1-18.27,31.88c8.05,8.71,12.5,19.24,13.67,31.41,0,5.35,30.49-11.23,30.49-17.65C247.32,282.69,234,260.23,222.72,253.81Z"/>
  </g>
  <g id="clothesDisplayLine-2" data-name="clothesDisplayLine">
    <path class="cls-1" d="M461,322c-.47,10.69-.9,21.54-1.32,32.47-16.13-.86-42.22.53-56.91-3.16-.31-9.7.68-22.72,1.87-36.25"/>
    <path class="cls-1" d="M531.49,132.68c-26,2-42,21.09-52.21,50.74"/>
  </g>
  <g id="clothesOverlapLine-2" data-name="clothesOverlapLine">
    <path class="cls-1" d="M267.49,290.62c8.44-20.62,5.88-29.14,14.78-52.26"/>
    <path class="cls-1" d="M704.93,136.75c-39.2-14.14-46.73,5.61-91.57,16.94"/>
    <path class="cls-1" d="M576,333.1c34.37,9.76,46.83-5,65.49-12.06,22.7-8.55,56.79-15.51,72.55-36.52"/>
  </g>
  <g id="clothesFoldLine-2" data-name="clothesFoldLine">
    <path class="cls-1" d="M355.22,340.36c-14.39,38.42-31.85,74.8-55.12,107.34"/>
    <path class="cls-1" d="M344.59,435.62c-19.35,26.59-30.95,64.79-48.36,102"/>
    <path class="cls-1" d="M234.83,633.37q37.82,44.6,90.41,67.21"/>
    <path class="cls-1" d="M207.44,710.74c-5.77,9.86,12.65,16.68,30.69,23.55"/>
    <path class="cls-1" d="M234.77,688c33.28,39.74,100.91,36.16,83.67,63.91"/>
    <path class="cls-1" d="M667.79,761c-6.27,5.29-18.88,3.61-11.73,20.85"/>
    <path class="cls-1" d="M667.41,641.79c-44.69,30-93.89,49-150.52,49.61"/>
    <path class="cls-1" d="M681,668.21C648.49,707.8,575.8,700.75,578.69,722.1c2,15,36.54,16.33,75.68,15.55"/>
    <path class="cls-1" d="M684.82,564.11c-22.3,29.41-72.49,22.6-50.63,54.56"/>
    <path class="cls-1" d="M550.1,414.33c10.51,52.67,30.72,93.56,68.54,113.1"/>
    <path class="cls-1" d="M550.94,342c7.72,25.72,20.5,51.2,36.58,76.53"/>
    <path class="cls-1" d="M641.76,331.92c12.19,37.56,25.87,71.39,44.15,93.76"/>
    <path class="cls-1" d="M649.75,386.58c5.27,22.26,16.66,43.93,32.37,65.17"/>
    <path class="cls-1" d="M679.18,360.51c5.89,11.36,12.6,22.26,25.65,31.54"/>
    <path class="cls-1" d="M680.44,337.81a245.81,245.81,0,0,0,26.91,32.79"/>
    <path class="cls-1" d="M672,119.6c-12.19,4.2-22.9,12.58-26.42,22.86"/>
    <path class="cls-1" d="M633.77,266.33c38.81,16.53,73.37,25.64,95.44,13"/>
    <path class="cls-1" d="M723.75,255.82c-18,9.2-37.67,12.44-59.71,7.57"/>
  </g>
  <g id="skinFilipino">
    <path class="cls-1" d="M597.61,25.2l16.87,42.61c-23.8,76.07-117.62,26.43-169.58,112.76,4.15-53-45.91-72.38-39.73-104.21l27.3-76"/>
    <path class="cls-1" d="M218.47,24C139.39,153,9.14,240.29,66.29,353.49c15.19,30.09,89.37,16.12,151.08-35.82-1.17-12.17-5.62-22.7-13.67-31.41C251,221,248.88,114.33,296.83,44.32"/>
    <path class="cls-1" d="M535.14,178.37c-46.31,1-82,11.4-95.15,7.69-48-36.58-150-67.21-262-141.74L136.39,101c97.39,76.82,183.81,198.44,260.23,212.61,50.54,9.38,101.19,12,151.43,9.12C580.74,288.27,583.77,199.23,535.14,178.37Z"/>
  </g>
</svg>
