<svg id="presence" xmlns="http://www.w3.org/2000/svg" viewBox="0 0 1063.97 2568.99">
  <defs>
    <style>
      .cls-1 {
        fill: #81ad66;
      }

      .cls-1, .cls-2, .cls-3 {
        stroke: #000;
        stroke-miterlimit: 10;
        stroke-width: 2px;
      }

      .cls-2 {
        fill: #6b5a3f;
      }

      .cls-3 {
        fill: none;
      }
    </style>
  </defs>
  <title>throwing</title>
  <path id="apple" class="cls-1" d="M310.8,1C357.73,7.4,399.06,31,418.18,77.28c10.31,25,5.52,53.49-17.22,72.13-14.61,12-28.14,23.13-41,35.24-24.51,23.11-56.75,18.56-84.43-4.09-27.05-22.14-46.72-59-39.35-125.42Z"/>
  <path id="appleStem" class="cls-2" d="M361.17,128c9.6,10,18.69,27.51,25.18,42.86.72,3-4.78,5.5-7.57,3.79-4.45-15.74-12.76-32.44-22.42-42.76C355.9,129.34,358.88,126.59,361.17,128Z"/>
  <g id="appleOverlapLine">
    <path class="cls-3" d="M356.36,131.86c-.23,7.11-1.84,15.82-6.65,22.46"/>
    <path class="cls-3" d="M361.17,128c6.65.91,15.13-2.07,21.32-7.57"/>
  </g>
  <g id="andrewShoe">
    <path class="cls-3" d="M564.58,2348.72c14.28-29.56,37.86-54,65.78-76.13l124.25,49.61c6.2,38.72,30.71,76.82,69.44,114.9,29.36,8,61.59,28,71.7,55C810.61,2574.51,548.52,2433.11,564.58,2348.72Z"/>
    <path class="cls-3" d="M358.55,2364.18c-1.27,68.93,39.44,99.66,44.57,135.58l-206.77,2.09c1.91-42.26,26.93-93.88,41.77-144.87Z"/>
  </g>
  <g id="andrewSole">
    <path class="cls-3" d="M403.12,2499.76c-6.62,9.46-14.15,16-24,15.11-44.32-25.85-88.42-26.3-132.29,2.08-17.84,2.73-34.53-3.45-50.52-15.1,2.09,30.21,7.81,43.79,30.21,52.12,49.17,18.3,100,18.92,153.65.48C400.78,2547.38,408.7,2525,403.12,2499.76Z"/>
    <path class="cls-3" d="M564.58,2348.72c-7.66,14.86-13.59,28.65-14.06,43.27,3.51,25.38,83.44,62.1,133.85,99.71,42.84,32,90.07,41.92,154.17,41.92,28.65,0,59.29-9.25,57.21-41.54-13-19.27-56.69-11.59-71.27,10.29-47.6,6.22-95.19-7.11-133.86-36.34C640.12,2427.87,580.09,2405,564.58,2348.72Z"/>
  </g>
  <g id="andrewShoelace">
    <path class="cls-3" d="M766.37,2359.83c13.54,28.6,33,54.21,57.68,77.27-15.11.05-28.54,2.49-39.73,8.16-32.29-15.46-56.94-40.86-75.63-74C727.54,2363.74,746.69,2359.23,766.37,2359.83Z"/>
    <path class="cls-3" d="M339.23,2395c.25,23.75,5.38,47.12,14.69,70.37-27.21-10.34-80.8-8.16-100.93,1.63-.93-24.35-2.68-48.44-5.53-72.19C272.58,2386,310.93,2386,339.23,2395Z"/>
  </g>
  <g id="clothesOverlapLine">
    <path class="cls-3" d="M810.61,2423.72c-14,0-32.18,3.29-44.24,11.43"/>
    <path class="cls-3" d="M799.89,2411.67c-15.52-1-33.61,4.74-48.84,12"/>
    <path class="cls-3" d="M789.84,2398.91c-16.59,0-36.53,4.81-52.5,11.8"/>
    <path class="cls-3" d="M780.92,2386c-17.33-1.82-37.26,4-53.77,12.93"/>
    <path class="cls-3" d="M773.25,2373.19c-16.36-2.18-38,3.72-57,12.79"/>
    <path class="cls-3" d="M350.06,2455c-28.27-7.09-70.94-7.35-97.54,1.21"/>
    <path class="cls-3" d="M346.59,2444.08c-34-6.71-63.71-6.87-94.67,1"/>
    <path class="cls-3" d="M343.78,2433.11c-34.47-7.17-63.47-7.5-92.65,0"/>
    <path class="cls-3" d="M341.48,2421.22c-32.06-7.46-60.52-7.77-91.3,0"/>
    <path class="cls-3" d="M339.85,2408c-33.49-8.71-62-9.23-90.93,0"/>
  </g>
  <path id="andrewPants" class="cls-3" d="M662.51,1314c5,18.5,8.53,37,18,47.56,3.91,4.35,22.63,6.34,15.08,24.36,23.71,6,6.72,22.07,13.34,30.16,50.54,72.31,149.58,249.54,157.16,282.3,6.2,26.82,45,45.65,46.46,119,.27,13.54,11.48,18.78-9,79.07-40.65,119.86-27.73,190.29-145.11,437.77-19.36,14.06-121.87-19.43-155.71-48.09-30.87-50.91,13.17-79.16,17.12-92.94-27.22-51.87,62.53-146.61,69.29-256.79,1.43-23.16-.55-43.51,14.68-52.73-23.93-1.31-31.41-19.92-14.68-30.42-43.33-13.92-114-154.88-218.45-264.48-20.3,27.09-8.19,163.62-19,270.52-1.76,17.39,15.82,45.09-17.41,66.45,1.59,18.19,12.67,38.81-.79,56.16.19,69.38-17.47,143.16-33.22,221.49-10.87,54.06,49,43.5-24.52,168.48-15,16.61-124.19,15.82-145.55.79-34.8-88.59-11-167.18-4-215.15,11.07-75.94-28.48-163,12-221.87-45.71-43.43-10-67.69-9.14-85.71,2.77-59.4-27.43-221-33.14-287.25,0-9.14-19-21.68,1.14-35-16-7.2-2.51-32-5.71-50.28-13.25-75.9-.92-149.73,27.42-221.69Z"/>
  <g id="clothesDisplayLine">
    <path class="cls-3" d="M398.16,1346.81c-1.08,46.78-56.24,69.43-143.49,77.77"/>
    <path class="cls-3" d="M591.91,1335.91c6.12,25,56.52,40.2,90.43,27.1"/>
    <path class="cls-3" d="M525.09,1329.13c14.31,36.07,1,81.18,8.09,97.66,15.41,36,10.94,71.66-36.71,71.53"/>
    <path class="cls-3" d="M466.62,1326c19.9,46.65,6.26,89.31,14.3,116.32,8.71,29.23-10.54,53.14-3.11,82.11,6.22,24.26-7.46,46.65-7.1,64.37"/>
  </g>
  <g id="clothesFoldLine">
    <path class="cls-3" d="M434.32,1925.79c-12.57,4.63-17.77,13.79-17.94,26"/>
    <path class="cls-3" d="M429.46,1889.53c-6.39,15.34-19.64,25.89-40.49,31.14"/>
    <path class="cls-3" d="M241.36,1873.34c-3.19,28.2,22.79,49.74,46.09,51.69"/>
    <path class="cls-3" d="M279.35,1974.86c-20.21,1.6-33.14,12.38-39.24,31.77"/>
    <path class="cls-3" d="M352.85,2141.17c-11.21,48,5,89.69-28,125.19-7.89,8.49-34.74,17.18-26.78,31.77,7.47,13.7,61.66,19.93,84.71,4.36"/>
    <path class="cls-3" d="M318.59,2217.78c8.1,40.48-60.48,46.73-51.7,78.48,8.1,29.27,49.16,21.8,50.45,36.12,1.81,19.94-42.88,13.79-74.74-1.24"/>
    <path class="cls-3" d="M414.3,2002.91c-15.23-18.31-35.48-24.71-50.68-19.64"/>
    <path class="cls-3" d="M197.1,1527.73c8-2,23.56.31,39.22,2.72"/>
    <path class="cls-3" d="M651.24,2129.54c0,52.69,23.81,100,57.38,135.83"/>
    <path class="cls-3" d="M619.87,2193.24c12.64,21.78,46.84,53.22,39,65.1-5.26,7.95-21.15,0-33.38-6.44"/>
    <path class="cls-3" d="M689.88,1777.1c46.84,7,72,23.42-2.34,45.08"/>
    <path class="cls-3" d="M703.84,1883.72c26.44-.07,54-11.19,21.17,23.35"/>
    <path class="cls-3" d="M689.16,1853.3c42.88-8.87,82.35-39.65,86.79-28.19C782.45,1841.93,727.35,1840.91,689.16,1853.3Z"/>
    <path class="cls-3" d="M695.57,1386c-17.82-4.91-35.57-3.41-53.27,2.41"/>
    <path class="cls-3" d="M618.48,1454.2c-38,13-75.92,41.6-100,71.28"/>
    <path class="cls-3" d="M571.27,1506c-28.73,14.44-51.69,30.76-65.73,50"/>
    <path class="cls-3" d="M632.37,1519.93c-30.55,4.62-68.13,23-92.58,38"/>
    <path class="cls-3" d="M394.45,1559.73q-36.12-15.13-78.68-17.59"/>
    <path class="cls-3" d="M391.68,1584.73c-34.87-8-72.49-9.86-112-7.41"/>
  </g>
  <g id="andrewTurtleneck">
    <path class="cls-3" d="M209.42,1260.26c117.55,63.6,446.14,89.61,461.35,66.73,3.09-18.55,21.9-53.9,17.06-77.25,15-22.65,14-42.27,2.26-59.82,30.3-30.72,12.68-81.9,29.34-160.26,6.09,22.8,15.16,42.1,36.12,47.4,22.38,32.88,36.33,69.79,57.55,73.36,11.15,37.68,97.81,100.21,136.56,169.29,39.3,12.82,120-56.79,112.86-93.67-29.41-19.07-50.44-52.5-73.34-67.63-2.15-35-33-43.76-50.7-58.91.37-43.52-36.25-54.12-42.48-62.85,1-39.68-31.35-53.9-53.42-88.21,1.84-53.38-15.25-48.42-22.36-85.72,6.57-25.83-4.21-48.62-6.22-87-1.88-35.85-12.58-78.72-31.06-103.12-33-43.52-154.6-50.12-206.4-78.21-114.9-2.75-138.75-68.41-177.3-61.67-13.49-22.16-35.65-17.34-52-18.3-19.27-19.28-35.65-12.53-59.74-19.28-12.91-8.86-26.19-4.58-39.51-6.74-15.29-2.47-26.57-9-38.54-6.75C201,466.29,187.67,457.62,168,457.59q10.11-27.87-1-36.61c13.84-20.61,10.63-43.38,14.52-52,4.78-10.62,17.07-29.47,12.46-47.22,15.42-20.24,46.25-48.18,50.1-72.27-7.7-34.69-86.72-72.27-110.7-74.09-16.74,4.36-28.05,51-40.58,88.54C77.94,276.4,68,294,65.84,319.8c-15.42,51.07-53,85.76-54,113.71C11.15,454.78-10.25,496,9,548.06c12.13,32.76,139.79,69.66,187.86,105.14,45.75,33.77,84.44,66.58,83.83,106,1.39,44.42-5.71,93.55-7.64,144.53-3.85,102.14-49.21,145.51-20.3,186.94-1.93,31.8-50.11,40.47-30.84,80-4.82,21.2-24.09,16.38-11.56,58.78C204.52,1237.71,203.76,1247.83,209.42,1260.26Z"/>
    <path class="cls-3" d="M528.82,491.51c-19.91-1.52-37,6.85-37.21,32.7-2.26,19.17-28.19,24-18.05,46.23,36.09,78.94,193.21,99.31,198.09,70,5.63-33.83,22-40.89,19.55-63.28C687.82,545.64,595.66,496.6,528.82,491.51Z"/>
  </g>
  <g id="skinFilipino">
    <path class="cls-3" d="M537,442.44l-21.54,58.87C537,544.38,626,584.58,677.65,574.53l23-35.9"/>
  </g>
  <g id="clothesDisplayLine-2" data-name="clothesDisplayLine">
    <path class="cls-3" d="M1000.19,1167.05c0,19.79-67.12,81.89-104.86,81.89"/>
    <path class="cls-3" d="M92.82,263.91c20.53,2.43,85.36,31.92,101.18,57.82"/>
  </g>
  <g id="clothesOverlapLine-2" data-name="clothesOverlapLine">
    <path class="cls-3" d="M719.43,1029.66c27.8-90.46,18.84-193.77,48.36-256.49"/>
  </g>
  <g id="clothesFoldLine-2" data-name="clothesFoldLine">
    <path class="cls-3" d="M65.84,319.8c1,11,7.65,18,3.38,24.25"/>
    <path class="cls-3" d="M167,421c-11.36,17-31.13,29.17-65,33.28"/>
    <path class="cls-3" d="M168,457.59c-8.39,18.48-43.6,54.19-84.26,68.57"/>
    <path class="cls-3" d="M209.42,481.68c8.53,18.42,14,36.26,15.63,53.4"/>
    <path class="cls-3" d="M233.48,567.81c2,32.94,10.51,60.71,26.78,82.32"/>
    <path class="cls-3" d="M287.47,495.17c9.43,7.45,12.24,14.2,11.47,20.58"/>
    <path class="cls-3" d="M347.21,514.45c22.64,28.07,20.16,70.22,33.55,97.5"/>
    <path class="cls-3" d="M399.24,532.75c8.82,11.56,13.26,20.24,14.24,26.63"/>
    <path class="cls-3" d="M335.63,715.09C352.81,780.41,378.5,838.38,416,886.17"/>
    <path class="cls-3" d="M252.78,1090.67c17.39,26.58,58.55,41.46,32.27,60.3"/>
    <path class="cls-3" d="M221.94,1170.65c5.3,10.21,12.58,21.39,3.11,24.46"/>
    <path class="cls-3" d="M210.38,1229.43c4.25,9.32,18.92,8.56,15.66,15.27"/>
    <path class="cls-3" d="M283.07,1199.57c47.3,27.71,100.08,49.8,157.19,67.44"/>
    <path class="cls-3" d="M340.09,1008.16c71.13,167.51,163.11,243,286.62,179.51"/>
    <path class="cls-3" d="M687.83,1249.74c-38.3,33.63-120.13,22.23-161.78,36.11"/>
    <path class="cls-3" d="M690.09,1189.92c-14,10.07-28.42,20.21-6.84,24.53"/>
    <path class="cls-3" d="M513,765c36.34,56.75,80,105.07,133.39,142"/>
    <path class="cls-3" d="M820.22,862.72c-7.73,14.93-14.66,29.38-4.5,33.47"/>
    <path class="cls-3" d="M792.22,943.83c-19.28,24.41-38.51,48.78-28.59,56.53"/>
    <path class="cls-3" d="M842.58,948.44c-2.73,27.15-34.49,40.49-22.42,51.92"/>
    <path class="cls-3" d="M847.48,1035.93c-14.61,18.42-68.6,45.1-91.93,41.13"/>
    <path class="cls-3" d="M813.1,1150.42c9.92.34,16.74-5.32,23.58-11"/>
    <path class="cls-3" d="M896,1036.65c-2.45,9.4-.72,15,3.56,18.34"/>
    <path class="cls-3" d="M938.48,1099.5c-.31,9.81-3.25,20.12-19.23,33"/>
    <path class="cls-3" d="M989.18,1158.41c-.48,8.34,0,13.18,1.21,15.36"/>
  </g>
</svg>
