<svg viewBox="0 0 194.26 398.79">
  <path class="apple" d="M48,3.14c7.23,1,13.6,4.61,16.54,11.74A9.37,9.37,0,0,1,61.86,26c-2.25,1.84-4.34,3.56-6.31,5.43-3.78,3.56-8.75,2.86-13-.63s-7.2-9.09-6.06-19.32Z"/>
  <path class="appleStem" d="M55.73,22.69a23.52,23.52,0,0,1,3.88,6.6c.11.46-.74.85-1.17.58A16.87,16.87,0,0,0,55,23.29C54.92,22.9,55.38,22.47,55.73,22.69Z"/>
  <g class="appleOverlapLine">
    <path d="M55,23.29a6.35,6.35,0,0,1-1,3.46"/>
    <path d="M55.73,22.69A4.4,4.4,0,0,0,59,21.52"/>
  </g>
  <g class="andrewShoe">
    <path d="M87.06,364.76c2.2-4.55,5.83-8.32,10.13-11.72l19.14,7.64c1,6,4.73,11.83,10.7,17.7,4.52,1.23,9.49,4.31,11,8.46C125,399.54,84.59,377.76,87.06,364.76Z"/>
    <path d="M55.33,367.14c-.2,10.62,6.07,15.35,6.86,20.89-1.2,10.25-25.18,12.45-31.85.32.29-6.51,4.15-14.46,6.43-22.32Z"/>
  </g>
  <g class="soleWhite">
    <path d="M62.19,388c-1,1.46-2.18,2.46-3.69,2.33-6.83-4-13.62-4.06-20.38.32-2.74.42-5.32-.53-7.78-2.33.32,4.65,1.2,6.74,4.65,8a34,34,0,0,0,23.67.07C61.83,395.36,63.05,391.91,62.19,388Z"/>
    <path d="M87.06,364.76a15.87,15.87,0,0,0-2.16,6.67c.54,3.91,12.85,9.56,20.61,15.36,6.6,4.92,13.88,6.45,23.75,6.45,4.41,0,9.13-1.42,8.81-6.4-2-3-8.73-1.78-11,1.59a28.07,28.07,0,0,1-20.62-5.6C98.7,377,89.45,373.44,87.06,364.76Z"/>
  </g>
  <g class="shoelace">
    <path d="M118.14,366.47A39.53,39.53,0,0,0,127,378.38a13.5,13.5,0,0,0-6.12,1.25,26.58,26.58,0,0,1-11.65-11.4A22.23,22.23,0,0,1,118.14,366.47Z"/>
    <path d="M52.35,371.89a29.93,29.93,0,0,0,2.26,10.84c-4.19-1.59-12.44-1.25-15.54.26-.15-3.76-.42-7.47-.86-11.12A24.65,24.65,0,0,1,52.35,371.89Z"/>
  </g>
  <path class="andrewPants" d="M102.15,205.38c.77,2.85,1.31,5.71,2.77,7.33.6.67,3.48,1,2.32,3.75,3.65.92,1,3.4,2.05,4.65,7.79,11.14,23,38.43,24.21,43.48,1,4.13,6.93,7,7.16,18.33,0,2.09,1.77,2.9-1.38,12.18-6.26,18.47-4.27,29.32-22.35,67.44-3,2.16-18.78-3-24-7.41-4.75-7.84,2-12.19,2.64-14.32-4.19-8,9.63-22.58,10.67-39.55.22-3.57-.08-6.7,2.26-8.12-3.68-.21-4.84-3.07-2.26-4.69-6.67-2.14-17.55-23.86-33.65-40.74-3.13,4.17-1.26,25.2-2.92,41.67-.27,2.68,2.43,6.95-2.68,10.24.24,2.8,2,6-.12,8.65,0,10.68-2.7,22.05-5.12,34.11-1.68,8.33,7.55,6.7-3.78,26-2.31,2.56-19.13,2.43-22.42.12-5.36-13.65-1.69-25.75-.61-33.14,1.71-11.7-4.38-25.1,1.84-34.18-7-6.69-1.53-10.43-1.4-13.2.42-9.15-4.23-34-5.11-44.25,0-1.41-2.93-3.34.18-5.39-2.47-1.11-.39-4.92-.88-7.74-2-11.7-.15-23.07,4.22-34.15Z"/>
  <g class="andrewTurtleneck">
    <path d="M32.35,197.1c18.11,9.8,68.73,13.8,71.07,10.28.48-2.86,3.37-8.3,2.63-11.9,2.3-3.49,2.16-6.51.34-9.21,4.67-4.74,2-12.62,4.52-24.69.94,3.51,2.34,6.48,5.57,7.3,3.45,5.07,5.59,10.75,8.86,11.3,1.72,5.81,15.07,15.44,21,26.08,6.05,2,18.49-8.75,17.38-14.43-4.53-2.94-7.77-8.09-11.29-10.42-.34-5.39-5.09-6.74-7.81-9.07.05-6.71-5.59-8.34-6.55-9.68.16-6.12-4.83-8.31-8.23-13.59.29-8.22-2.34-7.46-3.44-13.21,1-4-.65-7.48-1-13.39-.29-5.52-1.94-12.13-4.78-15.89-5.08-6.7-23.82-7.72-31.8-12C71.21,94.11,67.53,84,61.59,85c-2.07-3.42-5.49-2.67-8-2.82-3-3-5.49-1.93-9.2-3-2-1.37-4-.71-6.09-1-2.35-.38-4.09-1.38-5.94-1A6.77,6.77,0,0,0,26,73.46q1.56-4.29-.15-5.64c2.14-3.17,1.64-6.68,2.24-8,.74-1.64,2.63-4.54,1.92-7.28,2.37-3.11,7.12-7.42,7.72-11.13C36.51,36.06,24.34,30.27,20.64,30c-2.57.67-4.32,7.85-6.25,13.64a11.9,11.9,0,0,0-4.15,8.61C7.86,60.1,2.07,65.45,1.93,69.75,1.81,73-1.48,79.38,1.49,87.4c1.86,5,21.53,10.73,28.93,16.19,7,5.2,13,10.26,12.92,16.33.21,6.84-.88,14.41-1.18,22.26C41.57,157.92,34.58,164.6,39,171c-.29,4.9-7.72,6.23-4.75,12.32-.74,3.26-3.71,2.52-1.78,9A4.51,4.51,0,0,0,32.35,197.1Z"/>
    <path d="M81.55,78.68c-3.06-.23-5.7,1.06-5.73,5-.35,3-4.34,3.71-2.78,7.12,5.56,12.16,29.76,15.3,30.51,10.79.87-5.21,3.39-6.3,3-9.74C106,87,91.85,79.47,81.55,78.68Z"/>
  </g>
  <g class="clothesDisplayLine">
    <path d="M154.16,182.74c0,3-10.34,12.62-16.15,12.62"/>
    <path d="M14.39,43.63c3.17.37,13.15,4.91,15.59,8.9"/>
    <path d="M61.43,210.43c-.17,7.21-8.67,10.7-22.11,12"/>
    <path d="M91.27,208.75c.94,3.86,8.71,6.2,13.93,4.18"/>
    <path d="M81,207.71c2.2,5.56.16,12.5,1.24,15,2.38,5.55,1.69,11-5.65,11"/>
    <path d="M72,207.23c3.07,7.19,1,13.76,2.21,17.92,1.34,4.5-1.63,8.18-.48,12.64,1,3.74-1.15,7.19-1.1,9.92"/>
  </g>
  <g class="clothesOverlapLine">
    <path d="M110.91,161.58c4.29-13.94,2.91-29.85,7.45-39.51"/>
    <path d="M125,376.32a13,13,0,0,0-6.82,1.76"/>
    <path d="M123.31,374.46a16.24,16.24,0,0,0-7.53,1.86"/>
    <path d="M121.76,372.49a21.51,21.51,0,0,0-8.09,1.82"/>
    <path d="M120.39,370.5a15.14,15.14,0,0,0-8.29,2"/>
    <path d="M119.2,368.53c-2.52-.33-5.85.57-8.77,2"/>
    <path d="M54,381.14c-4.36-1.09-10.93-1.13-15,.19"/>
    <path d="M53.48,379.45a31.84,31.84,0,0,0-14.58.16"/>
    <path d="M53.05,377.76a30.54,30.54,0,0,0-14.27,0"/>
    <path d="M52.7,375.93a28.52,28.52,0,0,0-14.07,0"/>
    <path d="M52.45,373.89c-5.16-1.34-9.55-1.42-14,0"/>
  </g>
  <g class="clothesFoldLine">
    <path d="M67,299.62a4,4,0,0,0-2.77,4"/>
    <path d="M66.25,294c-1,2.36-3,4-6.24,4.8"/>
    <path d="M37.27,291.54c-.49,4.34,3.51,7.66,7.1,8"/>
    <path d="M43.13,307.17a6.43,6.43,0,0,0-6.05,4.9"/>
    <path d="M54.45,332.79c-1.73,7.39.76,13.82-4.32,19.29-1.22,1.3-5.35,2.64-4.13,4.89s9.5,3.07,13,.67"/>
    <path d="M49.17,344.59c1.25,6.24-9.32,7.2-8,12.09,1.24,4.51,7.57,3.36,7.77,5.57.28,3.07-6.61,2.12-11.51-.2"/>
    <path d="M63.91,311.5c-2.34-2.83-5.46-3.81-7.8-3"/>
    <path d="M30.46,238.3c1.23-.31,3.62,0,6,.42"/>
    <path d="M100.41,331c0,8.12,3.67,15.4,8.84,20.92"/>
    <path d="M95.58,340.81c2,3.36,7.21,8.2,6,10-.81,1.23-3.25,0-5.14-1"/>
    <path d="M106.36,276.71c7.22,1.08,11.1,3.61-.36,7"/>
    <path d="M108.51,293.14c4.08,0,8.31-1.73,3.26,3.59"/>
    <path d="M106.25,288.45c6.61-1.37,12.69-6.11,13.37-4.34C120.62,286.7,112.13,286.54,106.25,288.45Z"/>
    <path d="M107.24,216.46a14,14,0,0,0-8.21.37"/>
    <path d="M95.36,227A36.44,36.44,0,0,0,80,238"/>
    <path d="M88.09,235c-4.42,2.22-8,4.74-10.12,7.7"/>
    <path d="M97.5,237.1c-4.7.71-10.49,3.54-14.26,5.84"/>
    <path d="M60.86,243.23a36.39,36.39,0,0,0-12.12-2.71"/>
    <path d="M60.43,247.08a60.57,60.57,0,0,0-17.26-1.14"/>
    <path d="M10.24,52.24c.15,1.69,1.18,2.77.52,3.73"/>
    <path d="M25.82,67.82c-1.75,2.62-4.79,4.49-10,5.13"/>
    <path d="M26,73.46C24.68,76.31,19.26,81.81,13,84"/>
    <path d="M32.35,77.17a25.39,25.39,0,0,1,2.41,8.23"/>
    <path d="M36.06,90.44c.31,5.07,1.62,9.35,4.12,12.68"/>
    <path d="M44.38,79.25c1.45,1.15,1.88,2.19,1.76,3.17"/>
    <path d="M53.58,82.22c3.49,4.32,3.1,10.82,5.17,15"/>
    <path d="M61.59,85a10.12,10.12,0,0,1,2.2,4.1"/>
    <path d="M51.8,113.12c2.64,10.07,6.6,19,12.37,26.36"/>
    <path d="M39,171c2.68,4.09,9,6.38,5,9.29"/>
    <path d="M34.28,183.3c.82,1.57,1.94,3.29.48,3.76"/>
    <path d="M32.5,192.35c.66,1.44,2.92,1.32,2.41,2.35"/>
    <path d="M43.7,187.75a114.86,114.86,0,0,0,24.21,10.39"/>
    <path d="M52.48,158.27c11,25.8,25.13,37.43,44.15,27.65"/>
    <path d="M106.05,195.48c-5.9,5.18-18.51,3.42-24.92,5.56"/>
    <path d="M106.39,186.27c-2.15,1.55-4.37,3.11-1,3.77"/>
    <path d="M79.12,120.82a75.56,75.56,0,0,0,20.55,21.87"/>
    <path d="M126.44,135.86c-1.19,2.31-2.26,4.53-.69,5.16"/>
    <path d="M122.13,148.36c-3,3.76-5.93,7.51-4.41,8.71"/>
    <path d="M129.88,149.07c-.42,4.18-5.31,6.24-3.45,8"/>
    <path d="M130.64,162.55c-2.25,2.83-10.57,6.94-14.16,6.33"/>
    <path d="M125.34,180.18a5.35,5.35,0,0,0,3.63-1.69"/>
    <path d="M138.11,162.66c-.37,1.44-.11,2.31.55,2.82"/>
    <path d="M144.66,172.34c0,1.51-.51,3.1-3,5.08"/>
    <path d="M152.47,181.41a5.27,5.27,0,0,0,.18,2.37"/>
  </g>
  <path class="hairBlack" d="M78.3,65.06c-17.64-8.39-5-54,12.23-53.4,8.92-14.41,55.25-1.91,59.88,30.46-2.47-3.74-5-4.23-8.55-.25Z"/>
  <g class="hairOverlapLine">
    <path d="M120.08,29.73c11.24-5.74,25.19,4.09,30.33,12.39"/>
    <path d="M111.77,26.89c-3.17-.45-5.2.77-7.45,2.52,1.44-4.14,7-7.28,11.32-4.78,5.72-4.64,16.51-3.83,24,3.24"/>
    <path d="M90.53,11.66a21,21,0,0,1,6,.69"/>
  </g>
  <g class="eye">
    <path class="sclera" d="M132.82,71.43,96.12,56.32l39.65,4.43A13.6,13.6,0,0,1,132.82,71.43Z"/>
    <g class="irisDarkBrown">
      <ellipse cx="117.92" cy="62.96" rx="3.14" ry="2.06" transform="translate(25.88 159.9) rotate(-74.58)"/>
      <ellipse cx="133.47" cy="67.25" rx="3.14" ry="1.72" transform="translate(33.16 178.04) rotate(-74.58)"/>
    </g>
    <g class="pupil">
      <ellipse cx="118.51" cy="63.12" rx="1.22" ry="0.8" transform="translate(26.16 160.59) rotate(-74.58)"/>
      <ellipse cx="134.06" cy="67.41" rx="1.22" ry="0.67" transform="translate(33.44 178.72) rotate(-74.58)"/>
    </g>
  </g>
  <g class="skinFilipino">
    <path d="M83.69,57.25c.79,8.91-1.12,18-4.2,22.94,3.32,6.64,17,12.83,25,11.28"/>
    <path d="M188.9,198.49c-2.73-2.52-6.3-.94-12.92-3.78-5.23-2.24-9.19-1.58-12.15-2.06-.07,4.15-6,10.25-11.45,12.74,3.14,12.5,11.78,11,15.72,21.05,4,3.78,6.62-4.41,2.52-7.67-2.32-3.41-1.66-6.55,1.2-9.08,0,1.61,1.72,1.89,2.87,1.43.81-.33.71-1,2.34-1.39-1.89,3.37,2,5.15,3.36,3.47,2.21-3.36,5.1-2.44,6.1-5.36-1,4.63,4.72,5.26,5.25,2.73C192.89,205.11,197.52,202.8,188.9,198.49Z"/>
    <path d="M32.46,35.31c2.46-.94,4.94-.31,8.44-6.06a18.25,18.25,0,0,1-4.59-11.52c3.28-2.5,3-5,8.68-3.69,5.46,3.51,8.79.12,6.71-1.78-3-1.39-4.05-3.62-8.08-4,1.61.06,2.74-.76,6.24-.16,3.62,1.84,6.25.71,7.44-1.76,3.37,1.25,5.39-3,2.9-3.62C56.31,2.26,53.84.39,48.61.26c-8-.18-9.74,1.61-12.59,3-3.33,1-6.83,2.31-8,4.14-3,4.3-3.33,14.06-5.93,22.87A36.39,36.39,0,0,1,32.46,35.31Z"/>
    <path d="M84.16,66.89c-2.74,1.67-5.23.41-5.86-1.83-.9-3.2-3.75-7.64-2.93-12.61,1.35-8.25,11.74-8.59,11.71-1a24.83,24.83,0,0,0,6.81,2.12C96.37,42.48,109,50.47,112,32.51c6-.71,18.6,1.67,23.69,5.9a9.27,9.27,0,0,1,6,1.72c.35,4.42-1.84,20.37-4.18,22.46-1.65,1.47.66,2.26-2,3.69.06-.2.1-.41.16-.62-.88-2-4.15-2.18-7.05-.07-.52.37.34.39.56.59,1.78,1.58,5.41,2.85,6.12.84,1.73,1.66-.32,1.73-.24,3.69-.31,14.77-12.3,22.87-13.67,25.34-5.72,9.49-17,3.06-20.16.17C96.4,91.89,89.5,87.15,86.13,79m34-16.13a3.9,3.9,0,0,0-3-3.46c-2.72-.86-6.49-.49-8.43-.21,2.61,2.61,7.24,5.12,10.57,4.1C119.59,63.22,120.24,63.75,120.08,62.89Z"/>
  </g>
  <g class="skinOverlapLine">
    <path d="M176.72,198.07c5.35.74,7.35-1.26,12.18.42"/>
    <path d="M171.82,209.69c4.06-4,7.91-2.9,12.25-5.42,4.61.74,2.4,1.18,2.42,3.57"/>
    <path d="M177,209.73c1.32-3.1,3.11-2.95,4-4.15"/>
    <path d="M35,10.51c3.79-1.66,4.1-2.85,8.63-2.24"/>
    <path d="M36,3.24A44.5,44.5,0,0,1,44.64,2C49.31,1.85,51.43,3.87,56,3.82A1.84,1.84,0,0,1,57.3,6.35"/>
    <path d="M33.37,31.12c2.4-2.76,3.35-7.13,2.94-13.39"/>
  </g>
  <g class="skinFoldLine">
    <path d="M190.06,204.59c-.71.8-2,.89-3.62.23"/>
    <path d="M85.6,53.56c-1.71-9.7-12.11-4.06-7.57,6.1"/>
    <path d="M84.55,56c-2.69,1.38,1.26,5.07-1.42,5.37-1.69.19.06-2.36-2.2-3.42-3.71-1.74.4-6.74,1.92-4.57"/>
  </g>
  <path class="lipMaleBrown__noStroke" d="M118.07,81.47a10.85,10.85,0,0,0,4.59,1.23c.31.82,1.15,1.2,1.08,1.89-3.25-.71.21,10-7.48,8.55s-6.66-6.44-7.78-8.54C111.79,80.53,116,81.8,118.07,81.47Z"/>
  <path class="mouthInner" d="M122,84.17c-5.18-.16-7.7-4.4-12.9,0-.63.63.45,2,1,2.49,3,3.16,6.57,1.86,9.14,3.14C120.8,90.66,122.47,86.82,122,84.17Z"/>
  <path class="tongue" d="M120.69,88.25A4.6,4.6,0,0,0,120,85.5a29.71,29.71,0,0,0-8-3,8.9,8.9,0,0,0-2.79,1.66C110.18,85.8,114.25,88.08,120.69,88.25Z"/>
  <g class="teeth">
    <path d="M111.18,82.78a11.36,11.36,0,0,0,9.06,3.38,4.42,4.42,0,0,0,.9-2C117.21,83.66,114.81,81.05,111.18,82.78Z"/>
    <path d="M109.85,83.59c-.26.18-.53.39-.8.62-.63.63.45,2,1,2.49,3,3.16,6.57,1.86,9.14,3.14,1,.52,2.09-.81,2.6-2.53C118.93,88.63,112.2,86.61,109.85,83.59Z"/>
  </g>
  <path class="lipOverlapLine" d="M122,84.43c.93,0,1.73.1,2.09.77"/>
  <g class="lipEdgeLine">
    <path d="M118.07,81.47a10.85,10.85,0,0,0,4.59,1.23"/>
    <path d="M112,91.56c1.25,1.25,2.42,1.12,4.23,1.58,2,.5,4.07.06,4.72-1.73"/>
  </g>
  <path class="cheekLine" d="M114.68,73.11c-2.07,1.8-2.68,1-6.46,6.35"/>
  <g class="noseLine">
    <path d="M120.05,78.2c1.19,1,3.25,1.89,5,1.41,4.35-1.22,2.54-5.14,2.51-9.48"/>
    <path d="M116.54,72.46a2.46,2.46,0,0,0-.87,3.73"/>
    <path d="M117.52,76.42c1.26-1.26,3.55.79,4.46,1.83"/>
  </g>
  <g class="eyeFoldLine">
    <path d="M133.3,70.25a4,4,0,0,1-3.52-.17"/>
    <path d="M117.48,66.29c-2.25.81-5-.35-6.53-2"/>
  </g>
  <path class="eyeCornerLine" d="M106.28,59.07a13.65,13.65,0,0,0,2.39.15"/>
  <g class="eyebrowBlack">
    <path d="M121.86,58.12c.2.26,1.34-1.1,1.13-1.36A15.3,15.3,0,0,0,108.1,52c-.33,0-.37,1.86,0,1.81C112.81,53.36,116.79,54.09,121.86,58.12Z"/>
    <path d="M131.79,59.55c-.47.06-.25,1.61.24,1.53,1.46,0,3.27-.66,6,.8a10.57,10.57,0,0,0,.82-2.17C136.08,58.21,134.28,59,131.79,59.55Z"/>
  </g>
</svg>
