<svg viewBox="0 0 19.76 63.14">
  <g class="labelReverse">
    <path d="M.5,54.18c0-.72,2.48-1.34,6-1.59V28.83c-3.5.22-6,.76-6,1.39Z"/>
    <path d="M8,16,6.59,10.7l-.75.17q-.24,2.28-.51,4.53A13.06,13.06,0,0,1,8,16Z"/>
  </g>
  <ellipse class="bottleBottom" cx="9.88" cy="60.79" rx="8.19" ry="1.83"/>
  <path class="beerSide" d="M9.88,25.6c4.65,0,8.44-.69,8.44-1.57a8.72,8.72,0,0,1,.94,4.71v31c0,3.92-18.78,3.92-18.76,0v-31A8.72,8.72,0,0,1,1.44,24C1.44,25,5.25,25.58,9.88,25.6Z"/>
  <ellipse class="beerTop" cx="9.88" cy="24.06" rx="8.39" ry="1.54"/>
  <path class="bottleSide" d="M17,22.53a7,7,0,0,1-2.25-4.44q-.84-6.71-1.46-13.67c.53-.16.84-.36.84-.57V1.45c0-.52-1.9-.95-4.25-.95s-4.25.43-4.25,1v2.4c0,.21.31.41.84.57q-.62,7-1.46,13.67a7.06,7.06,0,0,1-2.26,4.44C1.06,24,.5,25.45.5,28.74v31c0,3.92,18.78,3.92,18.76,0v-31C19.26,25.45,18.69,24,17,22.53Z"/>
  <path class="bottleCreaseLine" d="M13.29,4.42a17.4,17.4,0,0,1-6.82,0"/>
  <path class="bottleOverlapLine" d="M12.39,1.44a22.71,22.71,0,0,1-5.08,0"/>
  <g class="label">
    <path d="M.5,54.18c0,.94,4.2,1.71,9.38,1.71,1.22,0,2.39,0,3.47-.12h0V31.6c-1.08.06-2.25.1-3.47.1C4.7,31.7.5,31,.5,30.22Z"/>
    <path d="M10.3,16.61l1.31-5.3a43.8,43.8,0,0,1-5.93,1c-.12,1.1-.24,2.2-.37,3.29A12.7,12.7,0,0,0,10.3,16.61Z"/>
  </g>
</svg>
