<svg viewBox="0 0 124.07 327.95">
  <g class="brassMediumLight">
    <path d="M114.53,129.97c.82,0,1.89-.66,1.89-1.48v-5.24c0-.82-1.07-1.48-1.89-1.48v8.2Z"/>
    <path d="M114.53,158.66c.82,0,1.89-.66,1.89-1.48v-5.24c0-.82-1.07-1.48-1.89-1.48v8.2Z"/>
    <path d="M114.53,48.19c.82,0,2.37-.66,2.37-1.48v-7.33c0-.82-1.55-1.48-2.37-1.48v10.29Z"/>
    <path d="M114.53,117.15c.82,0,2.37-.66,2.37-1.48v-7.33c0-.82-1.55-1.48-2.37-1.48v10.29Z"/>
    <path d="M114.53,232.7c.82,0,2.37-.66,2.37-1.48v-7.33c0-.82-1.55-1.48-2.37-1.48v10.29Z"/>
    <path d="M114.53,296.13c.82,0,2.37-.66,2.37-1.48v-7.33c0-.82-1.55-1.48-2.37-1.48v10.29Z"/>
  </g>
  <path class="oakDarker" d="M120.65,156.42c1.83-1.25,1.68-5.87,1.68-5.87,1.61-1.12,1.69-19.6,0-20.83,0,0,.48-4.75-1.68-6.01-1.08-.64-2.9-.66-4.24-.61v5.43c.43,0,.66,.45,.77,1.23-1.71,1.37-1.71,19.23,0,20.78-.1,.89-.32,1.42-.77,1.42v5.24c1.29,.05,3.3-.15,4.24-.77Z"/>
  <g class="caseMedium">
    <path d="M5.03,36.26c-1.02,1.56-2.12,2.96-3.34,4.12-.77,.73-1.19,1.76-1.19,2.83v7.41c0,1.13,.47,2.22,1.31,2.97,1.23,1.09,2.28,2.42,3.22,3.91v-21.23Z"/>
    <path d="M5.03,271.05c-1.02,1.56-2.12,2.96-3.34,4.12-.77,.73-1.19,1.76-1.19,2.83v7.41c0,1.13,.47,2.22,1.31,2.97,1.23,1.09,2.28,2.42,3.22,3.91v-21.23Z"/>
  </g>
  <rect class="caseLight" x="-103.69" y="109.23" width="326.95" height="109.49" rx="11.84" ry="11.84" transform="translate(223.75 104.19) rotate(90)"/>
  <g class="caseEdgeLine">
    <path d="M122.33,150.55c-1.72,.22-3.43,.21-5.14-.02"/>
    <path d="M122.33,129.72c-1.72-.2-3.43-.19-5.15,.03"/>
  </g>
</svg>