<svg viewBox="0 0 123.83 194.16">
  <g class="porcelainLight">
    <path d="M27.56,165.74v21.85c0,8.09,83,8.09,83,0V165.74Z"/>
    <path d="M42.29,94.83C14.24,107.68.25,126.7.5,130.06c.47,6.08,17.44,39.71,26,42.84,2.94,1.08,23.44,3.22,22.2.27,19.82,1.68,38.36.84,52.87.19.64.76,8.85.18,9.7-2.44,8.66-15.1,13.14-35.88,11.86-41.78-.92-4.24-21.43-34.21-80.83-34.31"/>
    <path d="M85,7.49C78.83-2.89,63.47,6.71,57.1.69a5.09,5.09,0,0,0-1.37,5.72c-14.09-4.94-16.63,6.77-24,5.07a5.94,5.94,0,0,0-.59,5.71c-8.21,2-3.37,5.81-6,7.22-16,8.44.51,21.42-8.28,19.88C10.47,47,20.69,53.45,10,56.77c-.7,3.74.52,7.25,3.3,10.57-9.83,15.55,15.44,16.81,4.93,24,4,2.4,8.31,2.47,13.12-.63,4.33,2.74,8.63,2.36,11.79-.17l65.26-9.79c5.33-.15,9.2-2.73,11.46-8a3.93,3.93,0,0,1-2.64-4.17c2.67-2,4-4.18,3.61-6.41a5.21,5.21,0,0,1-3.93-4c11.38-9.46,2.08-9,1.84-11.22.48-2.48-.93-6.27-4.33-8.49-4.32-8.18,9.38-13.07.81-22.12-3.5.34-6.27-.21-7.86-2.25,1.92-3.59,1-6.43-1.6-8.81C99.82,8.37,92.77-1.16,85,7.49Z"/>
  </g>
  <g class="porcelainLighter">
    <path d="M38.92,97.45c-5.28-6.78-9.39,3.87-23.58,11.61a70.08,70.08,0,0,1,9.77,24.5c6-4.86,11.67-8.15,14.18-5.52,2.14,2.23-3.42,7.93-9.58,13.63,4.27,10.74,9.94,20,19,31.5,2.11,2.7,25.47,2.5,25.06,1C63.74,136.89,46.11,106.67,38.92,97.45Z"/>
    <path d="M100.46,101.32c6.67,4.06,11.89,9.12,14.74,15.85,4,13.08,2.21,32.24-13.64,56.19-1.41,2.14-14.6,1.75-14.19.57A234.09,234.09,0,0,0,100.46,101.32Z"/>
    <path d="M77.69,121.36c.14-5.31,14.61-5.84,14.39-.65,9.31.28,7.78,8.46,8.46,13.66.89,6.77,1.23,14.76-8.08,18.1C90,146.32,84.2,141.75,90,129.62c-2.29,2-10.71,1.94-12.88-1.23-2.81,3.52.34,9.19-.48,12.48-1.76,7-6.43,10-10.2,13.18-3.63-4.37-5.79-10.44-3.54-19.14C64.25,129.68,63.74,118.87,77.69,121.36Z"/>
    <path d="M36.61,75.49c2.94-1.51,5-4.11,6.85-7.24,6.94-1.45,10.92-5,11.85-10.68-1.17-1.69,7.95-3.39,5.08-11.73-1.17-1.69,5-2,6.65-9.37,4.71,1.59,5.86-2,11.46-2.61,4.78-.56,9.12,1.56,15.44-3.54a19.33,19.33,0,0,0,13.35,5.36c3.13,3.26,1.26,10,4.56,16.16,2.08,3.91-2.64,7.13-3.78,13.68-1.56,9,2.92,14.39-.91,26.83-2.75,9-5.46,12.14-9.12,17.33-3.13,4.43-8.34,5.34-12.11,5.47C69,120.76,49.93,111,42.29,94.83a25.52,25.52,0,0,0,.13-9.64C41,81.15,36.81,78.54,36.61,75.49Z"/>
  </g>
  <g class="porcelainLight">
    <circle cx="80.62" cy="64.83" r="2.54"/>
    <circle cx="105.24" cy="65.4" r="2.42"/>
  </g>
  <g class="statueOverlapLine">
    <path d="M75.5,144.13c3.83,6.68,5.74,12.72,5.88,14.86.09,1.47-.27,7.36-.82,15.1"/>
    <path d="M88.88,145.31A70.37,70.37,0,0,0,81.38,159"/>
    <path d="M92.08,120.71c.59,2.69-.63,8-2.08,8.91"/>
    <path d="M77.69,121.36a15.37,15.37,0,0,0-.57,7"/>
    <path d="M97.09,63.32c.46,10.42,11.3,17.08,2,21.53-2.16,1-7.29,1-9-.23"/>
    <path d="M48.71,94.46c5.44,10.18,19.32,20.63,37.22,20.69"/>
    <path d="M47.44,85.2c-1.39,1-3.83,2-5,0"/>
    <path d="M89.35,58.12c-3.07,0-5.24-2.35-7.74-2.62-5.24-.57-11.44,1-14.75,3.78"/>
    <path d="M98.56,58.12c2.21-.29,3.22-1.41,5.15-1.51,2.73-.14,5.55.6,7,2"/>
    <path d="M91.77,52.68c.91,1.67,1.51,3.42,1,5"/>
    <path d="M98.48,52.91a6.79,6.79,0,0,1-1.74,4.63"/>
    <path d="M86.56,65.18c-4.37-4-11-4.29-15.16.11"/>
    <path d="M84.59,68c-2.16,4.06-10.53,2.78-12.38-.69"/>
    <path d="M99.29,68c2.2,2.32,6.48,3.13,8.57.67"/>
    <path d="M108.52,63.69c-3.68-1.52-6.57-.48-9.35,2.18"/>
    <path d="M84.13,83a21.73,21.73,0,0,1-10.88,7.29"/>
    <path d="M101.49,88.55a19.4,19.4,0,0,0-2.43-3.7"/>
    <path d="M101.69,94.93c-4.34-2.35-6.06-.48-11.27-.59-4.14-.09-8.69-1.51-14.35,1"/>
    <path d="M77.83,92.77c.24,1.8-3,2.87-3.47,4.31"/>
    <path d="M100.34,92.05a6.35,6.35,0,0,1,1.43,4.07"/>
    <path d="M97.32,98.52c-3.85,1.77-9,1.75-13.46.48"/>
    <path d="M94.11,103.33c-2.24-1.6-7-1.28-9.45.32"/>
    <path d="M28.2,75.16a9.88,9.88,0,0,0,8.41.33"/>
    <path d="M107.29,35.68A4.63,4.63,0,0,0,111.86,33"/>
  </g>
</svg>
