<svg viewBox="0 0 125.89 192.44">
  <g class="porcelainMediumLight">
    <path d="M27.56,164v21.85c0,8.09,83,8.09,83,0V164Z"/>
    <path d="M42.29,93.11C14.24,106,.25,125,.5,128.35c.47,6.07,17.44,39.7,26,42.83,2.94,1.08,23.44,3.22,22.2.28,19.82,1.67,38.36.84,52.87.18.64.77,8.85.18,9.7-2.43,8.66-15.11,13.14-35.89,11.86-41.79-.92-4.23-21.43-34.21-80.83-34.31"/>
    <path d="M85,5.77C78.83-4.6,66.84,9.43,57.49.64c-2.79,2-3.5,5-.49,8.65-12.74-6.59-17.9,2.17-25.25.47a6,6,0,0,0-.59,5.72c-8.21,2-3.37,5.8-6,7.21-16,8.44-.11,17.18-8.28,19.88-7,2.34-2.26,12.16-14.23,14C.94,61.92,4.09,67.49,8.42,68.17-1.41,83.71,23.51,86.44,13,93.68c4,2.39,13.26,1.14,17-3.71,9.61,20.53,68,8.06,73.2-2.16,1.29,2.46,7.45,4.38,14-1.86-6.75-3.49,1.26-6.56-3.54-11.42,4.59,1.44,11.07-3.71,11.64-8.93-5.74-1.45-7.51-4.27-8.87-8.41,11.71-7.49,1.07-11.65.36-20.58-.54-6.74,4.55-7.3,1.77-19.27-5,1.94-9.66-2.87-11.25-4.91,3.38-2.62,3.54-6.67.79-9.25C98.92,10,92.77-2.88,85,5.77Z"/>
  </g>
  <g class="porcelainLight">
    <path d="M38.92,95.74c-5.28-6.78-9.39,3.87-23.58,11.6a70.06,70.06,0,0,1,9.77,24.51c6-4.87,11.67-8.16,14.18-5.53,2.14,2.23-3.42,7.93-9.58,13.63,4.27,10.75,9.94,20,19,31.51,2.11,2.69,25.47,2.49,25.06,1C63.74,135.17,46.11,105,38.92,95.74Z"/>
    <path d="M100.46,99.61c6.67,4,11.89,9.12,14.74,15.84,4,13.08,2.21,32.24-13.64,56.19-1.41,2.14-14.6,1.75-14.19.57A234.08,234.08,0,0,0,100.46,99.61Z"/>
    <path d="M84.11,123c-16.33-12.28-9.91-19.57-39.56,3.27-3.39-10-11.06-30.2-9-32.67C39.36,89,40.73,88.36,42.8,89l61.47,9.22a40.39,40.39,0,0,1,4.28,27.37C99.76,109,98.36,107.48,84.11,123Z"/>
    <path d="M77.36,127.46c-2.81,3.52.1,8.4-.72,11.69-1.76,7-6.43,10-10.2,13.19-3.63-4.37-5.79-10.45-3.54-19.15,1.35-5.23.92-17.18,14.87-14.69Z"/>
    <path d="M92.08,118.74c9.31.29,7.78,8.71,8.46,13.91.89,6.78,1.23,14.76-8.08,18.1C90,144.6,84.8,139.34,90.6,127.21Z"/>
    <path d="M77.77,118.5c2.13-4.14,13.19-4.71,14.31.24.39,1.74.16,6.09-1.48,8.47-2.25,3.26-12.26,2.55-13.24.25A11.3,11.3,0,0,1,77.77,118.5Z"/>
    <path d="M36.61,73.78c2.94-1.51,5-4.12,6.85-7.25,6.94-1.45,10.92-5,11.85-10.68-1.17-1.69,7.95-3.39,5.08-11.72-1.17-1.7,5-2,6.65-9.38,4.71,1.59,5.86-2,11.46-2.61,4.78-.55,9.12,1.57,15.44-3.54A19.34,19.34,0,0,0,107.29,34c3.13,3.25,1.26,10,4.56,16.15,2.08,3.91-2.64,7.13-3.78,13.68-1.56,9,2.92,14.39-.91,26.83-2.75,9-5.46,12.15-9.12,17.33-3.13,4.43-8.34,5.34-12.11,5.47C66.91,111,52.39,101.93,42.8,89a21.89,21.89,0,0,0-.38-5.5C40.34,80.05,37.18,78.8,36.61,73.78Z"/>
  </g>
  <g class="porcelainMediumLight">
    <circle cx="80.62" cy="63.66" r="2.54"/>
    <circle cx="105.24" cy="64.23" r="2.42"/>
  </g>
  <g class="statueEdgeLine">
    <path d="M97.09,61.61c.46,10.41,11.3,17.07,2,21.52-2.16,1-7.29,1-9-.23"/>
    <path d="M47.44,83.48c-1.39,1-3.83,2-5,0"/>
    <path d="M101.69,93.21c-4.34-2.35-4.9-.06-10.1-.17-4.14-.09-8.06-2.28-15.52.54"/>
    <path d="M75.5,142.41c3.83,6.68,5.74,12.72,5.88,14.86.09,1.47-.27,7.36-.82,15.11"/>
    <path d="M88.88,143.59a70.37,70.37,0,0,0-7.5,13.68"/>
    <path d="M89.35,56.4c-4,.41-6-2.16-8.5-2.57-4.26-.69-10.35.1-13.67,2.86"/>
    <path d="M98.24,57c2.6,0,4.56-2.15,7-2a8.49,8.49,0,0,1,5.51,2"/>
    <path d="M96.41,96.46c-3.28,2.57-8.69,2.14-12.11,0"/>
    <path d="M28.2,73.44a9.85,9.85,0,0,0,8.41.34"/>
    <path d="M107.29,34a4.66,4.66,0,0,0,4.57-2.72"/>
  </g>
  <g class="statueCreaseLine">
    <path d="M86.56,63.46c-4.37-4-11-4.28-15.16.11"/>
    <path d="M84.59,66.24c-2.16,4.05-10.53,2.77-12.38-.7"/>
    <path d="M99.29,66.24c2.2,2.31,6.48,3.12,8.57.66"/>
    <path d="M108.52,62c-3.68-1.52-6.57-.48-9.35,2.18"/>
    <path d="M91.77,51c.91,1.67,1.51,3.43,1,5"/>
    <path d="M98.48,51.19a6.77,6.77,0,0,1-1.74,4.63"/>
    <path d="M84.13,81.28a21.67,21.67,0,0,1-10.88,7.29"/>
    <path d="M101.49,86.84a19.39,19.39,0,0,0-2.43-3.71"/>
    <path d="M77.83,91.05c.24,1.8-3,2.88-3.47,4.31"/>
    <path d="M100.34,90.34a6.31,6.31,0,0,1,1.43,4.07"/>
    <path d="M94.11,101.61c-2.24-1.6-7-1.28-9.45.32"/>
  </g>
</svg>
