<svg viewBox="0 0 85.87 35.98">
  <path class="bennettShoeLining" d="M1.16,22.57c-3.5,6.19,7.33,9.09,23.2,5.91C25.23,17.8,9.35,15.79,1.16,22.57Z"/>
  <path class="soleWhite" d="M8.92,8.11C9,5.92,11.63,2.76,12.93,2,19.57-2,30.54,3.32,37,2.66c9.33-1,23.55-3.42,29.57,2.45C75.43,13.71,69.19,28,54.82,28Z"/>
  <path class="bennettShoe" d="M1.16,22.57C6.47,18.32,5.5,12.51,8.92,8.11c6.82-8.78,17.15-1,28.58-2A159.57,159.57,0,0,1,55.19,4.88C56.54,8,56.08,25.1,54.82,28c-12.67-.92-21.9-2.06-28,6.85-2.34,3.41-3.25-7.1-5.54-11.43C15.13,25.83,7.37,18,1.16,22.57Z"/>
  <g class="shoelace">
    <path d="M33.18,29.21a32.23,32.23,0,0,0-2-13.42,39,39,0,0,1,14.62-2.53A80,80,0,0,1,46.39,26C41.05,26.51,36.53,27.55,33.18,29.21Z"/>
    <path d="M85.31,28.06l-4.66.22c-1.1-.58-4.18-.56-6.57-.17-4.93.81-5.61-.09-9,.05a231.91,231.91,0,0,1-28.58-.1,16.79,16.79,0,0,0-3.66,1.32c9,.91,22,.73,32.26.19,3.26-.17,3.75.84,9.11,0,2.49-.4,5.35,0,6.47-.44l4.69-.26Z"/>
    <path d="M29.32,16c6.41,1,11.41,11.58,17.62,15-3.38,1.19-4.52.31-6.32,1.08l-5.11-.32-.09.87,5.2.31c1.68.32,6.12-.07,7.89-1.1,1.85,1.2,9.48,1.29,10.26-.54.93-2.16-7-2.41-10.32-.9-7.61-4.58-12.22-15-18.91-15.75A.71.71,0,1,0,29.32,16Zm27.8,15c-.27.42-5.87.49-7,.12C51.57,30.52,56.71,30.3,57.12,30.93Z"/>
  </g>
  <path class="converseLogo" d="M27.31,10.5c.12-3.27-11.33-3.67-11.45-.41C15.75,13.2,27.2,13.61,27.31,10.5Z"/>
  <g class="clothesOverlapLine">
    <path d="M21.25,23.38c-3.4-8.7,4.74-5.65,8.8-7.24"/>
    <path d="M35.58,19.76a47.35,47.35,0,0,1,.68,8.2"/>
    <path d="M34.46,14.68c.25.92.47,1.84.67,2.76"/>
    <path d="M38.77,23.22c.08,1.34.1,2.67.06,4"/>
    <path d="M37.35,14a54.78,54.78,0,0,1,1.23,6.93"/>
    <path d="M41.4,26.19v.48"/>
    <path d="M40,13.61A73.59,73.59,0,0,1,41.32,24"/>
    <path d="M42.68,13.37a65.48,65.48,0,0,1,1.24,12.91"/>
    <path d="M46.94,30.94a10.37,10.37,0,0,0,1.57.84"/>
    <path d="M48.45,30.34a5.44,5.44,0,0,0,1.7.71"/>
  </g>
  <path class="clothesDisplayLine" d="M55.19,4.88C61.27,4.7,69,7.41,70.37,11.68"/>
</svg>
