<svg viewBox="0 0 57.24 142.78">
  <path class="steelLight" d="M8.36,135.34c0,.41,9.06.92,20.25.92s20.25-.51,20.25-.92-9.06-.72-20.25-.72S8.36,134.94,8.36,135.34Z"/>
  <g class="steelMedium">
    <path d="M48.86,135.34c0,.41-9.06.92-20.25.92s-20.25-.51-20.25-.92v6.15c7.67,1,32.06,1.12,40.52,0v-6.15Z"/>
    <path d="M25.61,18.59V135.34a36.55,36.55,0,0,0,6,0V18.57C29.63,18.59,27.61,18.6,25.61,18.59Z"/>
  </g>
  <path class="fiberMedium" d="M48.52,2.27c-6-2.25-33.74-2.46-39.8,0L.56,57.72c5.63,1.63,51.35,1.38,56.12,0Z"/>
</svg>
