<svg viewBox="0 0 93.36 76.49">
  <polygon class="flatRedDark" points="92.86 71.14 58.22 75.91 58.22 17.19 92.86 14.23 92.86 71.14"/>
  <path class="oakDark" d="M92.86,14.23c-4.32-4.57-8.27-9.15-11.86-13.73-15.68,3.18-43.11,2.78-57.85,0,2.8,4.2,5.7,8.26,8.7,12.16l61,1.56Z"/>
  <path class="flatRedDarker" d="M92.86,14.23c-6.33-.87-12.45-1.95-17.32-3.08-8.38,1.79-19.94,2.81-33.27,2.61l15.96,3.43,34.63-2.96Z"/>
  <g class="flatRedMediumDark">
    <polygon points="58.22 75.91 .5 73.03 .5 15.77 58.22 17.19 58.22 75.91"/>
    <path d="M58.22,17.19c5.83-3.75,11.6-7.87,17.32-12.28-18.58,2.38-45.5,1.75-58.36-1.04C11.95,7.87,6.37,11.83,.5,15.77l57.72,1.42Z"/>
  </g>
  <path class="oakDarkest" d="M70.6,28.93l11.91-1.24c3.84-.4,3.25-6.09-.59-5.69l-11.91,1.24c-4.02,.42-3.43,6.11,.59,5.69Z"/>
  <polyline class="flatPurpleMediumDark" points="58.22 50.31 61.82 51.72 70.18 47.72 73.94 49.54 80.72 45.22 86.77 48.08 89.97 45.97 92.86 47.49 92.86 71.14 58.22 75.91 58.22 50.31"/>
  <polygon class="flatPurpleMedium" points=".5 46.73 4.19 48.49 7.32 46.73 9.08 47.61 11.77 46.22 23.63 51.72 30.12 47.86 32.88 49.2 34.83 47.92 41.46 51.02 48.32 47.99 52.14 49.61 54.26 48.27 58.22 50.31 58.22 75.91 .5 73.03 .5 46.73"/>
  <g class="bottleOpaque">
    <path d="M22.5,41.38c-.72-.41-1.48-1.01-2.08-2.38-1.11-2.69-2.2-5.45-3.26-8.28,.27-.19,.42-.36,.38-.49l-.42-1.5c-.09-.33-1.26-.27-2.61,.12-1.35,.39-2.37,.98-2.28,1.31l.42,1.5c.04,.13,.25,.2,.58,.21,.59,2.97,1.11,5.89,1.58,8.77,.21,1.49-.12,2.41-.51,3.14-.71,1.2-.78,2.2-.2,4.25l5.48,19.3c.68,2.45,11.51-.71,10.8-3.15l-5.48-19.3c-.58-2.05-1.16-2.86-2.4-3.49Z"/>
    <path d="M32.19,45.29c-.4-.97-.71-2.16-.29-3.92,.87-3.39,1.82-6.83,2.84-10.3,.4,.06,.67,.02,.73-.13l.67-1.73c.15-.38-1.03-1.3-2.63-2.06s-3.01-1.08-3.16-.7l-.67,1.73c-.06,.15,.1,.39,.41,.68-1.58,3.21-3.19,6.33-4.82,9.35-.87,1.54-1.86,2.11-2.78,2.45-1.56,.51-2.35,1.37-3.27,3.73l-8.67,22.25c-1.11,2.81,11.69,8.92,12.77,6.1l8.67-22.25c.92-2.36,.94-3.59,.2-5.2Z"/>
    <path d="M44.25,49.78c-.43-.7-.81-1.59-.71-3.02,.26-2.77,.57-5.59,.93-8.45,.32-.01,.52-.08,.54-.21l.31-1.44c.07-.32-.95-.87-2.28-1.24s-2.46-.42-2.52-.1l-.31,1.44c-.03,.13,.12,.29,.4,.47-.83,2.73-1.69,5.39-2.58,7.98-.48,1.33-1.18,1.91-1.84,2.3-1.14,.62-1.65,1.4-2.07,3.37l-3.97,18.6c-.51,2.35,10.11,5.33,10.6,2.97l3.97-18.6c.42-1.97,.29-2.93-.48-4.09Z"/>
  </g>
  <g class="label">
    <path d="M24.92,68.67c-.26,.68-3.34-.14-6.86-1.82-1.79-.85-3.35-1.76-4.42-2.54h0l6.73-17.34c1.08,.75,2.65,1.64,4.44,2.49,3.53,1.68,6.57,2.57,6.8,1.98l-6.69,17.23Z"/>
    <path d="M33.18,36.53c-.93-.15-1.96-.38-2.99-.75-.89-.67-1.74-1.4-2.51-2.16-.6,1.16-1.2,2.3-1.8,3.44,.96,.38,1.83,.57,2.85,.71,1.18,.92,2.3,1.68,3.48,2.4,.31-1.21,.64-2.42,.97-3.64Z"/>
    <path d="M43.94,42.78c-.17-.06-.4-.26-.59-.39l-1.45,2.97c.63,.07,1.49,.13,1.77-.07,.08-.83,.17-1.67,.26-2.51Z"/>
    <path d="M17.6,38.82l-.18-3.52c-1.12,.63-2.61,1.43-3.24,1.62,.13,.71,.25,1.41,.37,2.12,.63,.2,1.99,.05,3.05-.21Z"/>
    <path d="M17.45,48.93c-1.74,.34-2.99,.37-3.09,.02l1.3,4.58,1.79-4.59Z"/>
  </g>
  <g class="bottleCreaseLine">
    <path d="M34.74,31.07c-1.68-.42-3.23-1.16-4.65-2.22"/>
    <path d="M44.47,38.31c-1.35-.09-2.64-.45-3.86-1.08"/>
    <path d="M17.16,30.72c-1.24,.67-2.55,1.05-3.93,1.15"/>
  </g>
  <g class="bottleCap">
    <path d="M40.01,36.37c.76,.55,4.41,1.59,5.35,1.5-.03-.1-.03-.25,.02-.36,.04-.54,.1-1.12-.11-1.29-.68-.55-3.68-1.41-4.52-1.27-.26,.03-.45,.6-.62,1.09,0,.14-.03,.27-.12,.33Z"/>
    <path d="M29.53,27.54c.85,.86,5.24,2.98,6.44,3.08-.02-.14,0-.32,.09-.44,.15-.66,.35-1.38,.12-1.63-.75-.84-4.35-2.59-5.44-2.6-.34-.02-.69,.64-.99,1.21-.02,.17-.09,.32-.21,.38Z"/>
    <path d="M12.28,31.42c.94,.09,4.66-.98,5.45-1.59-.08-.08-.15-.21-.16-.34-.23-.51-.46-1.09-.72-1.13-.87-.13-3.93,.75-4.6,1.34-.22,.18-.11,.8-.02,1.34,.07,.12,.1,.26,.06,.37Z"/>
  </g>
  <g class="bottleCapLightLine">
    <path d="M44.75,36.51c-1.25-.21-2.47-.56-3.67-1.03"/>
    <path d="M16.54,28.91c-1.2,.5-2.45,.86-3.74,1.09"/>
    <path d="M35.48,28.78c-1.53-.55-3-1.25-4.42-2.11"/>
  </g>
  <polyline class="flatBlueMedium" points="58.22 53.44 60.87 54.44 65.09 51.72 67.27 54.12 69.69 51.33 72.7 52.66 76.19 50.33 78.88 51.97 81.8 49.58 84.28 51.46 87.35 48.82 89.58 51.46 92.86 49.43 92.86 71.14 58.22 75.91 58.22 53.44"/>
  <polygon class="flatBlueMediumLight" points=".5 51.87 2.53 53.61 6.61 50.46 10.26 52.03 14.53 49.6 17.48 52.7 19.41 51.6 22.78 54.04 26.79 51.03 30.36 53.21 34.46 51.32 36.79 53.15 39.47 51.59 44.07 53.68 46.87 51.75 50.07 53.76 52.06 52.6 55.9 55.33 58.22 53.44 58.22 75.91 .5 73.03 .5 51.87"/>
  <g class="iceOverlapLine">
    <line x1="17.48" y1="52.7" x2="14.07" y2="54.69"/>
    <line x1="30.36" y1="53.21" x2="32.26" y2="54.4"/>
    <line x1="50.07" y1="53.76" x2="48.02" y2="55.26"/>
    <line x1="60.87" y1="54.44" x2="62.5" y2="55.08"/>
    <line x1="72.7" y1="52.66" x2="73.94" y2="53.28"/>
    <line x1="84.28" y1="51.46" x2="83.53" y2="52.23"/>
    <line x1="2.53" y1="53.61" x2="3.7" y2="54.71"/>
  </g>
</svg>