<svg viewBox="0 0 173.84 19.98">
  <g class="flatPurpleMedium">
    <polygon points="12.82 14.66 20.27 7.16 9.73 5.58 7.29 7.53 13.21 8.45 11.93 9.51 6.96 8.82 5.46 10.26 10.51 10.92 9.35 12.02 3.5 11.33 1.12 13.72 12.82 14.66"/>
    <polygon points="71.3 18.56 86.29 18.44 86.78 15.93 82.48 15.97 83.51 10.9 77.18 10.94 76.59 15.98 71.67 16.02 71.3 18.56"/>
    <path d="M164.21,16.98l-2.73-2.07c9.35-1.28,7.29-6.21-3.81-4.91l-1.81-2.53c18.92-1.91,23.65,6.54,8.35,9.51Z"/>
  </g>
  <g class="flatGreenMedium">
    <path d="M130.72,18.25c-9.66,1.48-15.71-2.21-6.83-4.18l-7.83-2.59,6.14-1.08,6.81,2.19-1.2-2.8,5.62-.36,3.79,7.55c-1.9,.45-4.05,.92-6.52,1.27Zm.66-2.03l-1.06-1.68-3.52,1.3,4.57,.38Z"/>
    <path d="M61.99,18.36c-13.19-.32-7.01-8.24,1.9-7.92,9.35,.55,8.51,8.09-1.9,7.92Zm2.71-3.89l-1.85-1.17-2.4,1.03,1.93,1.4,2.32-1.27Z"/>
  </g>
  <g class="flatBlueMedium">
    <polygon points="140.48 17.26 137.55 9.18 143.36 9.07 144.57 12.37 150.05 12 148.79 8.82 154.07 8.41 157.84 16.23 152.39 16.6 151.14 14.1 145.38 14.55 146.2 16.98 140.48 17.26"/>
    <path d="M89.53,18.82l.73-2.15c1.26,.23,3.23,.46,4.57,.46,3.22,.03,3.52-.82,.57-.98-7.62-.49-8.34-3.99-.87-4.9,2.91-.38,6-.45,9.59-.5v2.45c-2.34-.16-5.14-.31-7.03-.2-2.71,.16-3.21,1.38-.25,1.57,10.98,.51,6.93,5.1-.77,4.92-2.14-.05-4.32-.3-6.54-.66Z"/>
    <path d="M41.95,17.35c-9.97-1.72-4.32-6.04,5.24-4.9l1.51-2.77,5.55,.37-3.94,7.76c-2.54,.14-5.63-.04-8.36-.46Zm4.16-1.61l.66-1.64-4.41,.56,3.76,1.08Z"/>
  </g>
  <g class="flatMaroonMedium">
    <polygon points="17.15 14.16 24.42 7.4 30.62 8.15 27.83 10.63 31.23 11.12 34.15 8.49 39.21 9.12 32 16.59 26.39 15.8 29.41 12.93 26.03 12.46 23.03 15.05 17.15 14.16"/>
    <polygon points="109.43 18.67 107 11.67 112.6 11.22 115.9 18.26 109.43 18.67"/>
    <path d="M91.56,14.15l10.92-6.33-16.5-2.62,1.26,3.75c-8.39,.12-10.45,2.68-6.35,3.74,2.74,.72,6.96,1.14,10.67,1.45Z"/>
  </g>
  <g class="flatTealMedium">
    <path d="M66.98,5.2c.05,.58,3.86,.35,3.8-.27-.03-.35-.24-.72-.3-1.09,0,0,2.78-.78,2.75-1.2l-.08-1.28c-.03-.55-2.37-.98-5.22-.81s-5.12,.88-5.09,1.43l.08,1.28c.02,.42,1.86,.77,3.77,.84,.17,.42,.22,.73,.29,1.12Z"/>
    <path d="M62.18,5.96c.2-.04,.12,1.54-.16,1.54l-4.73,.08c-.21,.53-2.38,1.18-5.07,1.34-2.85,.17-5.19-.27-5.22-.81l-.09-1.54c-.03-.55,2.24-1.26,5.09-1.43s5.22,.06,5.22,.89l4.96-.06Z"/>
  </g>
  <g class="handleOverlapLine">
    <path d="M65.46,1.58c-.26,.08-.4,.16-.4,.24,.01,.24,1.34,.35,2.96,.25,1.62-.1,2.92-.37,2.91-.6,0-.08-.16-.15-.43-.19"/>
    <path d="M49.52,6.18c-.26,.08-.4,.16-.4,.24,.01,.24,1.34,.35,2.96,.25,1.62-.1,2.92-.37,2.91-.6,0-.08-.16-.15-.43-.19"/>
    <path d="M66.69,4.08c-.1-.31-.26-.59-.44-.79"/>
    <path d="M70.48,3.83c-.1-.31-.1-.56,.06-.87"/>
  </g>
  <path class="steelLight" d="M67.34,4.49c.21,.72-.04,1.62,.19,2.42,.61,2.2,3.66,4.85,7.44,7.15l-4.89-9.74c-.09-.26-2.82-.09-2.73,.17Z"/>
  <path class="steelLighter" d="M67.59,5.58c-2.41,.25-3.24,.47-5.31,.63,.03,.28,0,.73-.08,1.02l31.6,1.09c-7.1-1.24-22.5-3.16-26.2-2.73Z"/>
  <ellipse class="steelDark" cx="69.27" cy="6.33" rx="1.08" ry=".31" transform="translate(-.25 4.13) rotate(-3.41)"/>
</svg>