<svg viewBox="0 0 62.37 62.37">
  <rect class="noStroke" x="0.5" y="0.5" width="61.37" height="61.37"/>
  <g class="condomBag">
    <path d="M36.18,55.45s-7,2.12-7.74,3.61c-5.26,3.39-17.15-.1-7.59-2.79,3.64-1.45,3.92-1.81,6.78-2.36Z"/>
    <path d="M37,54.11c.41.74,2.35.56,3.06,1.67s2.33.79,3.29,2c.44.57.25,1.09-.5,1.57,1.82.83,2.55,2.1.91,2.4-2.66.48-4.55-1.67-6.73-2-2.94-.39-2.23-1.75-4.11-2.43-2.22-.81-1-1.35-2.91-1.91-2.19-.66-.83-1.08-2.36-1.55C28.33,53.73,36.32,53.77,37,54.11Z"/>
  </g>
  <g class="condomCreaseLine">
    <path d="M30,53.81a2.28,2.28,0,0,1,.39.52c.43.79,2.59.89,3,1.69.81,1.5,7.27.4,6.85,3.12"/>
    <path d="M34.52,53.87a2.69,2.69,0,0,1,.81.59c.71,1,2.33.74,2.68,1.6"/>
    <path d="M25.69,55.49a9.55,9.55,0,0,1,2.78-1.06"/>
  </g>
  <g class="condomFoldLine">
    <path d="M42.83,59.37c-.71.36-.73.76-.4,1.2"/>
    <path d="M20.42,58.13a12.14,12.14,0,0,0,3.89-1.67"/>
    <path d="M25.28,58.94a5.39,5.39,0,0,1,2.66-1.61"/>
  </g>
  <path class="condomRing" d="M22.71,56C26.16,56,29,57.11,29,58.51S26.16,61,22.71,61s-6.26-1.13-6.26-2.53S19.25,56,22.71,56ZM18,58.43c0,.78,2.11,1.42,4.71,1.42s4.71-.64,4.71-1.42S25.31,57,22.71,57,18,57.64,18,58.43Z"/>
</svg>
