<svg viewBox="0 0 22.49 22.19">
  <path class="wrapperOuter" d="M12.23,21.45c3.18-4,6.37-7.77,9.59-11.24A99.19,99.19,0,0,0,11.58.7c-3,3.44-5.7,6.35-8.27,8.93a9.49,9.49,0,0,0,3.36,2.59c3.29-1.73,7,1.69,5.26,5.79-1.23-.55-2.75-.9-3.3-2-1.85-1.35-2.4-.91-3.31-2.33a6.51,6.51,0,0,1-3.25-2.17A12.23,12.23,0,0,0,.67,13.7,55.43,55.43,0,0,1,12.23,21.45Z"/>
  <path class="wrapperInner" d="M11.89,3.88a52,52,0,0,1,6.77,6.36c-2.32,2.52-4.55,5.13-6.73,7.77-1.26-1-2.32-2-2.48-2.83-.75-1.27-2.34-1.71-2.78-3a7.67,7.67,0,0,1-1.5-.87C7.37,9,9.6,6.56,11.89,3.88Z"/>
</svg>
