<svg viewBox="0 0 126.94 133.22">
  <g class="steelLight">
    <path d="M54.81,113.23l-37.51,.87c-3.08,.19-2.85,4.47,.23,4.29l37.28-.78v-4.37Z"/>
    <polygon points="56.09 80.66 49.63 113.35 50.91 113.32 56.09 86.74 56.09 80.66"/>
    <polygon points="104.97 113.98 64.92 113.29 64.92 117.65 109.8 118.61 104.97 113.98"/>
    <polygon points="54.81 68.64 7.59 123.41 10.54 126.12 54.81 74.84 54.81 68.64"/>
    <path d="M116.89,118.96l-51.97-50.36v6.43s48.63,47.21,48.63,47.21l3.35-3.28Z"/>
  </g>
  <g class="rubberMedium">
    <path d="M117.76,118.1l-4.96,4.86s1.78,6.95,5.75,7.38c4.09,.44,6.61-2.37,7.77-4.83l-8.56-7.41Z"/>
    <path d="M11.36,121.31l-4.45-.08-6.36,6.89c.62,2.3,2.94,4.08,4.41,4.48,.59,.16,4.94,.13,5.37,.03,2.24-.54,3.76-6.76,3.76-6.76l-2.72-4.56Z"/>
    <path d="M45.71,117.79c-.77,2.89-1.24,5.86-1.34,8.44,.9,.28,7.05,.28,7.89,0,1.08-2.66,1.14-5.56,.35-8.57l-6.89,.14Z"/>
  </g>
  <g class="steelDark">
    <path d="M54.81,118.33c0,.94,10.1,.94,10.1,0v-7.81c0-.67-10.1-.67-10.1,0v7.81Z"/>
    <path d="M54.81,75.03c0,.73,10.1,.73,10.1,0v-7.81c0-.52-10.1-.52-10.1,0v7.81Z"/>
    <path d="M51.78,17.23h16.18c-1.11,2.67-2.04,5.46-2.76,8.42,0,1.02-10.65,1.02-10.65,0-.69-2.81-1.61-5.61-2.76-8.42Z"/>
  </g>
  <g class="steelMedium">
    <path d="M56.09,26.21v41.04c0,.48,7.55,.48,7.55,0V26.21c-2.02,.28-5.53,.28-7.55,0Z"/>
    <path d="M56.09,75.41v35.08c0,.59,7.55,.59,7.55,0v-35.08c-1.94,.22-5.61,.22-7.55,0Z"/>
  </g>
  <g class="supportOverlapLine">
    <path d="M58.59,24.11c.01-2.69-.26-5.15-1.5-6.88"/>
    <path d="M61.05,24.11c.07-2.76,.38-5.24,1.4-6.88"/>
  </g>
  <path class="blackMediumDark" d="M95.3,2.49c1.35,1.99,1.27,10.2,0,12.74-.68,1.36-15.87,1.99-35.44,1.99s-34.68-.53-35.44-1.99c-1.19-2.29-1.04-10.75,0-12.74H95.3Z"/>
  <ellipse class="blackMedium" cx="59.86" cy="2.49" rx="35.44" ry="1.99"/>
</svg>