<svg viewBox="0 0 264.59 129.4">
  <polygon class="guitarLiningLight" points="0.85 99.32 80.78 96.55 78.88 104.09 0.85 99.32"/>
  <path class="guitarLiningDark" d="M1,99.33c13.77.25,29.3.19,33.6,2.06Z"/>
  <g class="guitarBrassDark">
    <path d="M78.09,125.7a7.88,7.88,0,0,0,.42,2c.26.75,1.32,1.2,3,1.25s2.66-.33,3-1.08a6,6,0,0,0,.57-2.17Z"/>
    <path d="M2.69,120.71A9.83,9.83,0,0,0,3.1,123c.26.75,1.31,1.21,3,1.25s2.67-.32,3-1.08A6.32,6.32,0,0,0,9.69,121Z"/>
    <path d="M223,119.24a7.88,7.88,0,0,0,.42,2c.26.74,1.31,1.2,3,1.25s2.66-.33,3-1.09a7.93,7.93,0,0,0,.59-2.93Z"/>
  </g>
  <path class="guitarCaseDark" d="M88.42,122.83l.52-19.17,135-5.84-.52,18.55a3.45,3.45,0,0,1-3.31,3.36l-133.1,5.61v0A3.16,3.16,0,0,0,88.42,122.83Z"/>
  <g class="guitarLeatherDark">
    <path d="M75,126.12a3.14,3.14,0,0,0,3.35-3l.52-19h0l10.06-.43-.52,19.17a3.25,3.25,0,0,1-3,3s-5.51.28-7.15.31-3.26-.07-3.26-.07Z"/>
    <path d="M223.46,116.37,224,97.82h0l7.74-.36-.53,18.87a3.45,3.45,0,0,1-3.3,3.36l-6.2.3a2.51,2.51,0,0,1-1.54-.26A3.45,3.45,0,0,0,223.46,116.37Z"/>
  </g>
  <g class="guitarBrassDark">
    <path d="M220.07,99.41l-1.54,6.78c-.24,1-4.16,1.11-4.41.07l-1.54-6.52Z"/>
    <path d="M170.16,101.58l-1.56,6.78c-.24,1-4.15,1.11-4.4.07l-1.54-6.53Z"/>
    <path d="M102.93,104.49l-1.53,6.76c-.24,1-4.16,1.11-4.41.07l-1.54-6.5Z"/>
    <path d="M78.88,104.09l-.18,6.25a7.22,7.22,0,0,0,3.23-.43,3.37,3.37,0,0,0,1.93-2.82,6.37,6.37,0,0,0,2.65-.1c1.4-.52,1.6-2.34,1.57-3.3Z"/>
    <path d="M231.72,97.46l-.18,6.25a6.94,6.94,0,0,1-3.21-.16,2.81,2.81,0,0,1-1.77-2.66,6.32,6.32,0,0,1-2.65.13c-1.38-.41-1.48-2.21-1.39-3.17Z"/>
  </g>
  <g class="guitarBrassMedium">
    <path d="M80.3,119.44c-.06,1.92,1.18,3.52,2.77,3.56a3.27,3.27,0,0,0,3.42-3.39A3.33,3.33,0,0,0,83.26,116C81.68,116,80.35,117.51,80.3,119.44Z"/>
    <path d="M225.63,113.19a3.06,3.06,0,0,0,2.63,3.39,3.11,3.11,0,0,0,3.25-3.23,3.17,3.17,0,0,0-3.07-3.4A3.06,3.06,0,0,0,225.63,113.19Z"/>
    <path d="M85.18,105a15.77,15.77,0,0,0,.52,3.34c.28.74,1.31,1.2,3,1.24s2.63-.34,3-1.08a12.24,12.24,0,0,0,.9-3.44S85.18,105,85.18,105Z"/>
    <path d="M230.54,98.84A14.1,14.1,0,0,0,231,102c.27.7,1.25,1.14,2.83,1.18s2.5-.32,2.89-1a11.81,11.81,0,0,0,.86-3.27Z"/>
  </g>
  <g class="guitarCaseDark">
    <path d="M256.08,9.52,234,97.19c-.46,2.42-2.1,1.93-5.51,2.11h0L96.84,105,121.43,8l134-1.72A3.8,3.8,0,0,1,256.08,9.52Z"/>
  </g>
  <path class="guitarCaseLight" d="M248.37,3.22l5.66,2a3,3,0,0,1,1.43,1L121.43,8l-6.16-3.37Z"/>
  <g class="guitarLeatherDark">
    <path d="M115.29,3.9,104.14,4C112.31,8.76,110,9.89,84.9,106.09l10.21-.32c2.35-.08,4.21-.46,4.74-2.53l23.47-93A3.62,3.62,0,0,0,121,5.93Z"/>
    <path d="M230.59,99.84l8.06-.16h0A3.51,3.51,0,0,0,241.86,97L264,8.42a3.52,3.52,0,0,0-2.22-4.17L256.25,2.3l-7.18.16a.81.81,0,0,0-.7.76l5.66,2a3.52,3.52,0,0,1,2,4.26L234,97.19c-.46,2.42-2.1,1.93-5.51,2.11A2.82,2.82,0,0,0,230.59,99.84Z"/>
  </g>
  <g class="guitarLeatherLight">
    <path d="M1,99.33l77.87,4.76-.52,19a3.14,3.14,0,0,1-3.35,3L3.42,121.2A3.12,3.12,0,0,1,.5,118Z"/>
    <path d="M104.14,4,78.88,104.09l5.08,1.8a3.64,3.64,0,0,0,4.74-2.53l23.47-93a3.62,3.62,0,0,0-2.31-4.31Z"/>
  </g>
  <g class="guitarCaseLight">
    <path d="M5.44,99.6,5,114.79a1.52,1.52,0,0,0,1.42,1.56l65.82,4.2a1.51,1.51,0,0,0,1.61-1.47l.43-15.26Z"/>
    <path d="M103.06,8.3l2.68.94a2.11,2.11,0,0,1,1.35,2.51l-22,88a1.51,1.51,0,0,1-2,1.07L80,99.75Z"/>
  </g>
  <g class="guitarBrassLight">
    <path d="M78.88,104.07l-.18,6.27a5.73,5.73,0,0,1-3.2-.5A3.26,3.26,0,0,1,73.73,107a7.76,7.76,0,0,1-2.64-.15c-1.09-.32-1.56-1.59-1.36-3.32Z"/>
    <path d="M9.12,102.82c-1,.64-2.47.25-3.32,0a3.17,3.17,0,0,1-2.13,2.77,7.35,7.35,0,0,1-2.84,0L1,99.33l9.26.58C10.24,100.4,10.21,102.14,9.12,102.82Z"/>
    <path d="M104.14,4l6,2.12a9.31,9.31,0,0,1-.87,2.75,2.87,2.87,0,0,1-3.13.9c-.08.82-.18,2.34-1,2.82-.48.3-1.26.72-3.2.08Z"/>
    <path d="M84,105.89l-5.08-1.8,2.27-9c.71.24,2.3.76,2.75,2.23a5.31,5.31,0,0,1-.67,3.1,3.89,3.89,0,0,1,2.28,3,5.46,5.46,0,0,1-.61,2.69A3.51,3.51,0,0,1,84,105.89Z"/>
    <path d="M128.15,3.63a1.9,1.9,0,0,1,3.79,0c.61.16,1.07.4,1.18.73.36.86-.79,1.49-2.13,1.52-2,0-3.31-.22-3.84-1.46C127.24,4,127.62,3.8,128.15,3.63Z"/>
    <path d="M178.13,3a1.9,1.9,0,0,1,3.79,0c.61.15,1.07.39,1.18.72.36.87-.79,1.49-2.12,1.53-2,0-3.31-.23-3.84-1.46C177.22,3.41,177.6,3.16,178.13,3Z"/>
    <path d="M242.13,2.27a1.9,1.9,0,0,1,3.78,0c.62.15,1.07.4,1.19.72.36.87-.79,1.5-2.13,1.53-2,0-3.31-.22-3.84-1.46C241.21,2.68,241.59,2.43,242.13,2.27Z"/>
  </g>
</svg>
