<svg viewBox="0 0 86.18 68.67">
  <path class="labelReverse" d="M13.72,33.14v25.03c-3.58-.34-12.25-.07-13.22,2.52v-25.79c1.04-2.21,9.63-2.38,13.22-1.76Z"/>
  <ellipse class="bottleBottom" cx="9.4" cy="64.01" rx="7.67" ry="1.56"/>
  <g class="beerSide">
    <path d="M62.4,21.03c-.52-4.49-.7-5.94-.95-10.52,0,.57-7.9,.57-7.9,0-.25,4.58-.44,6.03-.95,10.52-.18,2.25-.83,3.77-1.82,5.35h13.43c-.99-1.59-1.63-3.11-1.82-5.35Z"/>
    <path d="M81.04,21.56c-.54-4.66-.74-6.29-.99-11.05,0,.57-7.83,.57-7.83,0-.25,4.76-.45,6.39-.99,11.05-.18,2.25-.83,3.77-1.82,5.35-.06,.1,13.5,.1,13.43,0-.99-1.59-1.63-3.11-1.82-5.35Z"/>
  </g>
  <g class="beerTop">
    <path d="M53.54,10.51c0,.57,7.9,.57,7.9,0s-7.9-.57-7.9,0Z"/>
    <path d="M72.22,10.51c0,.57,7.83,.57,7.83,0s-7.83-.57-7.83,0Z"/>
  </g>
  <g class="bottleSide">
    <path d="M6.24,3.36c-.99,.08-1.21,.57-1.2,1.85,0,1.08-.08,1.66,.72,1.93-.24,5.51-.65,10.96-1.27,16.34-.18,2.25-.83,3.77-1.82,5.35-1.19,1.86-2.21,3.99-2.18,6.08v27.23c.01,1.57,.65,2.27,1.82,2.54,4.7,1.19,9.42,1.2,14.16,0,1.12-.32,1.8-.97,1.82-2.54v-27.23c.03-2.09-.99-4.22-2.18-6.08-.99-1.59-1.63-3.11-1.82-5.35-.62-5.38-1.03-10.83-1.27-16.34,.8-.26,.72-.84,.72-1.93,.02-1.28-.21-1.77-1.2-1.85-2.1-.29-4.21-.29-6.31,0Z"/>
    <path d="M82.85,26.92c-.99-1.59-1.63-3.11-1.82-5.35-.62-5.38-1.03-10.83-1.27-16.34,.8-.26,.72-.84,.72-1.93,.02-1.28-.21-1.77-1.2-1.85-2.1-.29-4.21-.29-6.31,0-.99,.08-1.21,.57-1.2,1.85,0,1.08-.08,1.66,.72,1.93-.24,5.55-.66,10.99-1.27,16.34-.18,2.25-.83,3.77-1.82,5.35-.06,.1,13.5,.1,13.43,0Z"/>
    <path d="M64.21,26.38c-.99-1.59-1.63-3.11-1.82-5.35-.62-5.38-1.03-10.83-1.27-16.34,.8-.26,.72-.84,.72-1.93h-8.71s-.08,1.66,.72,1.93c-.24,5.51-.65,10.96-1.27,16.34-.18,2.25-.83,3.77-1.82,5.35-.08,.12,13.51,.12,13.43,0Z"/>
  </g>
  <g class="bottleCreaseLine">
    <path d="M13.03,7.13c-2.42,.34-4.84,.34-7.26,0"/>
    <path d="M79.76,5.23c-2.42,.34-4.84,.34-7.26,0"/>
    <path d="M61.13,4.69c-2.42,.34-4.84,.34-7.26,0"/>
  </g>
  <path class="bottleOverlapLine" d="M12.25,3.91c-1.9,.19-3.8,.19-5.7,0"/>
  <g class="labelSecondary">
    <path d="M13.72,17.76c-.18-2.06-.34-4.13-.46-6.22-1.58-.29-5.51-.09-6.22,.35-.68,.6-.61,5.2,0,5.88,.66,.66,2.48,1.42,4.18,1.64,1.58-.21,1.94-1.01,2.51-1.65Z"/>
    <path d="M76.09,10.03c-.42-.32-2.32-.59-3.8-.57-.16,2.6-.36,5.04-.6,7.54,.3,.21,.67,.35,1.13,.39,1.24,.07,2.6-.83,3.26-1.49,.61-.68,.68-5.28,0-5.88Z"/>
    <path d="M61.82,15.4c-.18-2.06-.34-4.13-.46-6.22-1.58-.29-5.51-.09-6.22,.35-.68,.6-.61,5.2,0,5.88,.66,.66,2.48,1.42,4.18,1.64,1.58-.21,1.94-1.01,2.51-1.65Z"/>
  </g>
  <path class="labelMain" d="M18.29,56.49v-18.09c-.98-2.72-2.75-4.42-5.88-4.42-5.91,0-9.03,6.55-9.03,14.06s3.07,13.14,9.03,13.14c3.08,0,4.88-1.82,5.88-4.69Z"/>
  <g class="bottleCap">
    <path d="M52.78,3.48c1.46,.53,7.92,.56,9.46,0-.09-.15-.14-.38-.1-.57-.13-.86-.23-1.81-.64-1.98-1.33-.57-6.64-.59-7.99,0-.43,.17-.54,1.14-.65,1.98,.06,.21,.04,.43-.07,.57Z"/>
    <path d="M71.39,3.98c1.46,.53,7.92,.56,9.46,0-.09-.15-.14-.38-.1-.57-.13-.86-.23-1.81-.64-1.98-1.33-.57-6.64-.59-7.99,0-.43,.17-.54,1.14-.65,1.98,.06,.21,.04,.43-.07,.57Z"/>
  </g>
  <g class="bottleCapLightLine">
    <path d="M60.75,1.61c-2.16,.21-4.32,.22-6.49,0"/>
    <path d="M79.36,2.11c-2.16,.21-4.32,.22-6.49,0"/>
  </g>
  <g class="bottleCapCreaseLine">
    <path d="M57.27,3.58c-.24-.55-.78-.58-1.01-.01"/>
    <path d="M58.73,3.58c-.24-.55-.8-.57-1.03,0"/>
    <path d="M60.09,3.49c-.27-.52-.73-.47-.91,.04"/>
    <path d="M61.39,3.35c-.33-.46-.64-.42-.82,.09"/>
    <path d="M55.82,3.55c-.16-.52-.64-.56-.9-.04"/>
    <path d="M54.48,3.49c-.14-.53-.59-.65-.86-.11"/>
    <path d="M52.85,2.92c.2,.07,.33,.28,.35,.42"/>
    <path d="M62.14,2.92c-.15,.07-.24,.22-.3,.37"/>
    <path d="M75.88,4.08c-.24-.55-.78-.58-1.01-.01"/>
    <path d="M77.35,4.08c-.24-.55-.8-.57-1.03,0"/>
    <path d="M78.7,3.99c-.27-.52-.73-.47-.91,.04"/>
    <path d="M80,3.85c-.33-.46-.64-.42-.82,.09"/>
    <path d="M74.44,4.05c-.16-.52-.64-.56-.9-.04"/>
    <path d="M73.1,3.98c-.14-.53-.59-.65-.86-.11"/>
    <path d="M71.47,3.42c.2,.07,.33,.28,.35,.42"/>
    <path d="M80.75,3.41c-.15,.07-.24,.22-.3,.37"/>
  </g>
  <polygon class="packageSideDark" points="67.99 46.07 67.99 68.08 85.68 65.26 85.68 44.57 67.99 46.07"/>
  <g class="packageSideLight">
    <polygon points="31 21.21 22.15 26.76 22.15 44.6 31 44.88 31 21.21"/>
    <polygon points="85.68 27.04 77.21 21.77 67.99 27.99 67.99 46.07 85.68 44.57 85.68 27.04"/>
  </g>
  <g class="packageFrontDark">
    <polygon points="22.15 44.6 22.15 65.64 67.99 68.08 67.99 46.07 22.15 44.6"/>
    <path d="M67.99,27.99l9.13-6.15v-7.97l-46.12-.75v13.88l36.99,1h0Zm-6.22-4.48l-16.48-.5c-3.93-.02-4-6.04,.13-6.02l16.48,.35c4.01,.02,3.84,6.2-.13,6.18Z"/>
  </g>
  <polygon class="packageFrontLight" points="67.99 27.99 22.15 26.76 22.15 44.6 67.99 46.07 67.99 27.99"/>
  <polygon class="star" points="54.19 30.25 57.01 39.49 66.18 39.94 58.75 45.66 61.16 55.04 53.74 49.33 46.06 54.68 48.91 45.43 41.75 39.36 50.93 39.35 54.19 30.25"/>
</svg>