<svg viewBox="0 0 119.3 15.94">
  <g class="flatMaroonMedium">
    <path d="M64.23,5.58c-2.15-.42-4.04-.83-4.9-1.29-3.38,.62-6.49,1.29-9.47,1.58,.43,.49,1.36,1.07,2.65,1.71,2.43-.71,6.9-1.36,11.72-2Z"/>
    <path d="M56.2,2.03c-2.19-.68-4.31-1.07-6.3-.93-1.39,.74-2.33,1.45-2.78,2.16l9.08-1.22Z"/>
    <path d="M93.93,5.45c-3.32,1.48-6.99,2.46-10.38,3.14-4.46,0-8.78-.59-13.04-.33,2.39-1.18,5.36-2.04,8.85-2.59,3.95,.14,9.3,.14,14.57-.21Z"/>
    <path d="M41.04,2.97c-.29,.41,5.6,1.84,5.95,1.58-1.74,.48-3.04,1.03-3.85,1.67l-12.6-1.28c-.24-.54,.21-1.1,1.05-1.67,3.3,.07,9.45-.31,9.45-.31Z"/>
  </g>
  <g class="flatBlueMedium">
    <path d="M31.95,3.93c-.33,.07-4.69,1.51-4.69,1.51,4.89-.08,10.74,.7,17,1.85,3.33-.68,7.44-1.29,11.99-1.85l-4.36-.48c-5.17,1.42-12.03,.83-19.94-1.03Z"/>
    <path d="M76.96,3.32l-5.88,1.44c-3.9-.41-7.22-.46-9.92-.14,2.74-.52,5.09-1.02,5.99-1.44,1.39,.79,5.5,.5,9.81,.14Z"/>
    <path d="M94.16,2.66l3.06,1.8c-.77,.6-2.03,.97-3.67,1.15-3.06-.34-4.59-.64-8.98-.58,5-.91,7.33-1.75,2.96-2.44,2.64,.23,4.86,.26,6.63,.06Z"/>
    <path d="M86.8,13.62l-3.22,1.77c-2.72-1.08-6.56-1.39-12.86,0l-9.51-1.6,4.96-1.85c4.52,.79,12.38,1.26,20.64,1.69Z"/>
    <path d="M60.24,8.45c-4.96,.59-9.45,1.24-9.3,2.46l-6.65,1.79c5.56-1.95,2.15-2.76-4.75-3.12,2.64-.67,4.93-1.31,6.13-1.86,3.38-.1,8.66,.53,14.58,.73Z"/>
  </g>
  <g class="flatPurpleMedium">
    <path d="M74.82,2.26l-4.17,1.86c3.22,.14,6.62,.48,10.19,.99,5.9-2.05,2.49-2.81-6.02-2.85Z"/>
    <path d="M24.06,5.71c-3.24,1-4.79,2.22-3.49,3.84l-5.45,.27c-1.06-1.75-7.74-1.1-12.31-1.58l4.25-1.1c5.61,.57,9.64-.11,12.86-1.44h4.14Z"/>
    <path d="M29.66,1.25c2.07,.7,3.51,1.6,4.45,2.66,3.35-.34,7.04-.51,10.97-.55,4.76-1.25-5.74-.86-6.3-1.57-.36-.53,.97-.86,2.5-1.16l-11.62,.61Z"/>
    <path d="M56.85,9.27l2.36,2.7c2.02-.64,4.61-.52,7.49,0l1.53-1.22c-4.17-.09-7.96-.58-11.37-1.48Z"/>
    <path d="M112.31,5.85c-5.45,.4-2.47,2.15,3.75,2.11l1.66,1.48c-6.05-.89-11.82-1.04-17.33-.52l-3.05-1.05c4.61-.18,8.29-.58,6.93-1.96,1.43,.25,4.85-.29,8.04-.07Z"/>
  </g>
  <g class="flatGreenMedium">
    <path d="M65.84,6.07c.53,.43,1.52,.48,2.3,.83-5.12,1.17-.9,1.87,4.8,2.4-5.38,.36-11.54,.26-14.75,.48-.79-.98-.98-1.76-.94-2.84,2.41-.19,5.15-.3,8.59-.87Z"/>
    <path d="M59.2,.51l12.42,.96c-7.08,.21-13.1,.68-15.8,1.99l-5.45-.69c3.48-.62,6.42-1.38,8.83-2.26Z"/>
    <path d="M96.48,9.23c.58,.56,1.55,1.11,2.76,1.65-6.89,.28-13.65,.73-20.26,1.39,6.2-1.44,3.72-3.04-3.31-2.77,4.85-1.21,10.05-1.8,13.37-2.86l4.41,.61c-10.82,1.48-7.72,2.84,3.03,1.99Z"/>
    <path d="M32.83,6.81c1.83,1.18,4.94,1.61,8.72,1.64-.92,.41-1.97,.81-3.38,1.16-4.18-.12-8.07,.13-11.55,.89-1.75-.32-3.26-.67-4.69-1.03,3.97-.35,7.62-1.2,10.9-2.67Z"/>
  </g>
</svg>