<svg viewBox="0 0 107.01 102.13">
  <path class="paperStackLight" d="M.62,34.91c12.05,22,26.11,47.51,37.21,64.62,22.46,6.43,43.4-2.63,66.26-16.7l1.26-1.31L.69,33.61Z"/>
  <path class="sketchPaperLight" d="M39.16,97.65c20.84,4.59,35,2.14,66.19-16.13Q83.89,40.78,61.19.69,31.66,18.44.69,33.61C14.16,58.15,28.83,83.14,39.16,97.65Z"/>
  <g class="wireDisplayLine">
    <path d="M63.43,4.65c1.1-.23,1.89-.78,1.85-1.36s-1.22-1.12-2.63-1-3.28,1.08-2.3,1.82"/>
    <path d="M65.35,8.06c1.1-.23,1.88-.79,1.84-1.37s-1.21-1.12-2.62-1-3.28,1.09-2.3,1.82"/>
    <path d="M67.27,11.46c1.09-.23,1.88-.78,1.84-1.36s-1.22-1.13-2.62-1-3.28,1.09-2.3,1.83"/>
    <path d="M69.17,14.87c1.1-.23,1.89-.79,1.85-1.36s-1.22-1.13-2.62-1-3.28,1.08-2.3,1.82"/>
    <path d="M71.08,18.28c1.09-.23,1.88-.79,1.84-1.36s-1.21-1.13-2.61-1S67,17,68,17.73"/>
    <path d="M73,21.69c1.09-.23,1.88-.78,1.84-1.36s-1.21-1.13-2.61-1-3.28,1.08-2.3,1.82"/>
    <path d="M74.87,25.11c1.1-.23,1.88-.79,1.85-1.37s-1.21-1.13-2.61-1-3.28,1.09-2.3,1.83"/>
    <path d="M76.77,28.52c1.09-.22,1.88-.78,1.84-1.36S77.4,26,76,26.15,72.72,27.23,73.7,28"/>
    <path d="M78.65,31.94c1.1-.22,1.88-.78,1.85-1.36s-1.21-1.13-2.61-1-3.28,1.08-2.3,1.82"/>
    <path d="M80.53,35.37c1.1-.23,1.88-.79,1.85-1.37s-1.2-1.13-2.6-1-3.28,1.08-2.31,1.82"/>
    <path d="M82.41,38.79c1.09-.22,1.88-.78,1.85-1.36s-1.21-1.14-2.6-1-3.28,1.08-2.31,1.83"/>
    <path d="M84.28,42.22c1.1-.23,1.88-.78,1.85-1.36s-1.2-1.14-2.6-1-3.27,1.08-2.3,1.82"/>
    <path d="M86.15,45.65c1.09-.23,1.88-.78,1.85-1.36s-1.2-1.14-2.59-1-3.28,1.08-2.31,1.82"/>
    <path d="M88,49.08c1.09-.22,1.88-.78,1.84-1.36s-1.19-1.14-2.59-1S84,47.78,85,48.52"/>
    <path d="M89.88,52.52c1.09-.23,1.87-.79,1.84-1.37s-1.19-1.14-2.58-1S85.86,51.21,86.83,52"/>
    <path d="M91.73,56c1.09-.22,1.88-.78,1.85-1.36s-1.19-1.14-2.59-1-3.27,1.08-2.31,1.82"/>
    <path d="M93.58,59.39c1.09-.22,1.88-.78,1.85-1.36s-1.19-1.14-2.58-1-3.28,1.07-2.31,1.82"/>
    <path d="M95.49,62.8c1.09-.23,1.88-.79,1.85-1.37s-1.19-1.14-2.58-1-3.27,1.08-2.31,1.82"/>
    <path d="M97.34,66.24c1.09-.22,1.87-.78,1.84-1.36s-1.18-1.15-2.57-1-3.28,1.08-2.31,1.83"/>
    <path d="M99.17,69.69c1.09-.23,1.88-.78,1.85-1.37s-1.18-1.14-2.57-1-3.28,1.08-2.32,1.83"/>
    <path d="M101,73.14c1.09-.23,1.88-.79,1.85-1.37s-1.18-1.14-2.57-1S97,71.82,98,72.57"/>
    <path d="M102.83,76.59c1.09-.22,1.88-.78,1.85-1.37s-1.18-1.14-2.57-1S98.84,75.27,99.8,76"/>
    <path d="M104.66,80c1.08-.22,1.87-.78,1.84-1.36s-1.18-1.15-2.56-1-3.27,1.07-2.32,1.82"/>
  </g>
  <g class="sketchLightest">
    <path d="M36.13,48.77c-.88,1.87-3.67,1.36-5.49-.88A18,18,0,0,1,27,39.28c-.45-3-.78-5.84-1.12-8.54a11.5,11.5,0,0,1,.47-5.21,30.86,30.86,0,0,0-6.25,4A11.29,11.29,0,0,1,16,31.8c-1.85.52-2,1.8-.86,3.27a9.22,9.22,0,0,1,1.76,3.27,101.48,101.48,0,0,0,6.33,12,.88.88,0,0,1,.56.72c0,.84,1.83,1.53,2.5,2.2a6.31,6.31,0,0,1,1.79,5.1,3.55,3.55,0,0,0,3.07-1.43,5.59,5.59,0,0,1,3-1.72,18.48,18.48,0,0,0,3-.83,7.46,7.46,0,0,1,2.56-4.71A5.34,5.34,0,0,1,36.13,48.77Z"/>
    <path d="M57.66,33.71v0c.43-1.21,1-2.66,1.3-3.33-.5.06-1.29.11-2.05.13A7,7,0,0,1,57.66,33.71Z"/>
    <path d="M47.1,20.37a25.68,25.68,0,0,0,5.61,5.12,41.29,41.29,0,0,1,8.22-2.69,48.59,48.59,0,0,0-4.83-7.53,7.49,7.49,0,0,1-1.37-2.41c-.72-2-2.15-2.16-3.61-.51a6.78,6.78,0,0,1-3.07,1.74,34.71,34.71,0,0,0-6.68,2.69A13.32,13.32,0,0,1,47.1,20.37Z"/>
    <path d="M67,34.27a7.42,7.42,0,0,1-1.4-2.33c-.32,1.92-1.15,5.6-1.62,7.48.44-.22,1-1,1.82-1.33C68.72,37,68.19,35.3,67,34.27Z"/>
  </g>
  <g class="bedCreaseLine">
    <path d="M66,50.53a25.88,25.88,0,0,0,3.46-6.7"/>
    <path d="M54.2,91.76c.3-8.23-5.45,2.78-7.63,4.76"/>
    <path d="M79.79,73a31.51,31.51,0,0,0,7.52-.14"/>
    <path d="M33.06,84.79C42.91,83,59.53,79,47.61,91.26"/>
    <path d="M52,80c-8.53.22-11.56,1.15-2-8.47"/>
    <path d="M93,69.43c-14.41,2.59-16,1.9-7.33-4.29"/>
    <path d="M87.7,59.37C86.14,60.76,73.87,75.18,79,63.26"/>
    <path d="M80,51.34c-16.19,6-11.34,6.3-3,7.28"/>
    <path d="M32.27,68.92a63.56,63.56,0,0,1-6.42-.24"/>
    <path d="M38,79.08c12.81-8.33,8.52-9.72,5.71-10"/>
    <path d="M74.1,51.44C59.65,59,72.63,44.92,75.6,41.05"/>
  </g>
  <g class="sketchMiddle">
    <path d="M79.38,83.68c-1.95-3.12-4.06-6.18-6.33-9.21-2.47,6-.88,8.34-2.31,9.47-1,.76-2.85-1.15-8.7-1.31,2.26,2.64,4.54,4.5,6.83,7.3a15.82,15.82,0,0,1,5.25-1.86A18.22,18.22,0,0,1,79.38,83.68Z"/>
    <path d="M73.68,73.07q3.6,4.89,6.82,10a13.13,13.13,0,0,1,4-1.5,35,35,0,0,0-8.42-12.77A39.09,39.09,0,0,0,73.68,73.07Z"/>
    <path d="M67.83,90.6c-2.43-3-5-4.89-7.49-8a38.4,38.4,0,0,0-7.28.55,27.25,27.25,0,0,0,2.72,5.06c2.2,3.08,4.49,4.7,7.64,7.44C63.72,94.45,65.3,92.33,67.83,90.6Z"/>
    <path d="M66.73,77.57c3.65-2.34,5.83-5.86,8.16-9.94-.5-.46-1-.91-1.51-1.35A20.05,20.05,0,0,1,69,61.36,35.77,35.77,0,0,1,66.85,57c-2,3.55-6.22,4-9.2,2.52a6.86,6.86,0,0,1-2.23,1.35c-.1,4.07-4,7.3-7.52,6.91a19.46,19.46,0,0,1,3.32,8.17,39.15,39.15,0,0,0,1.14,5.24C56.89,81,62.28,80.41,66.73,77.57Z"/>
    <path d="M56.91,30.49c.76,0,1.55-.07,2.05-.13-.33.67-.87,2.12-1.3,3.33a2.94,2.94,0,0,1-2.1,2.94c.51,1,0,2.86-1,4.2,2.59,2.42,5,5.13,8.57,7.44A7.42,7.42,0,0,1,62.79,44c1.56-6.31,3.46-13,3.43-19.38,0-1.54-1.06-2.37-2.68-2.21a36.91,36.91,0,0,0-10.83,3.09A14.29,14.29,0,0,1,56.91,30.49Z"/>
    <path d="M42.79,59.88c.58-3.79-.69-7.61-.69-11.23a4.77,4.77,0,0,1-2.48,1,7.79,7.79,0,0,0-2.52,4.3,56.06,56.06,0,0,0-.27,11C34.67,63.14,31,62,28,58.68a6.55,6.55,0,0,0-1.78-5.46c-.71-.7-2.45-1.33-2.5-2.2s-1.25-.93-1.89-1.19a2.75,2.75,0,0,0-3.07.64,1.78,1.78,0,0,0,.13,2.4,1.18,1.18,0,0,0,0,1.4c-1.39,1.66-.65,3.5.55,4.78,2.07,2.23,4.82,2.21,6.06,3,2.52,2.53,4.44,4.31,6.71,6.83,2.41,2.68,5.94,4.3,8.06,4.41a2.3,2.3,0,0,0,2.2-1.18c1.17-2,1.34-4.41,1.52-6.8A7.49,7.49,0,0,1,42.79,59.88Z"/>
    <path d="M36.27,41.54a10.11,10.11,0,0,0,3.68,2c3.23,1.12,3.75,2.88,2.94,4.23.38,4.16,1.4,8.93,1.15,12.74,7.61,1.93,16.92-1.71,18.32-11-2.94-2.43-5.8-5.4-8.41-7.94a2.46,2.46,0,0,1-2.46.84c-.48-.27-.8-1.07-1.19-2.12a10.37,10.37,0,0,0,.46-8.86c-.77-1.95-2-2.91-2.86-4.78a4.36,4.36,0,0,1-2.78-.3c1.08,2.92-2.82,2.7-6.28-.44.75,3.34-.34,7.67-2.9,6-.82,3.43-1.5,6-3.21,4.2C29.85,37.05,34,42.57,36.27,41.54Z"/>
  </g>
  <g class="sketchDarker">
    <path d="M80.5,83.05q-3.23-5.08-6.82-10a38.19,38.19,0,0,1,2.41-4.29l-1.2-1.15c-2.33,4.08-4.51,7.6-8.16,9.94-4.45,2.84-9.84,3.44-14.37,3.6l.7,2a38.4,38.4,0,0,1,7.28-.55c2.52,3.09,5.06,5,7.49,8-2.53,1.73-4.11,3.85-4.41,5.07.89.77,1.62,1.2,2.57,1.89,2.65-3.61,8.1-6.1,10.34-6.64,1.31-1.49,6.25-4.65,9.44-5.62-.39-1.22-.81-2.48-1.26-3.75A13.47,13.47,0,0,0,80.5,83.05Zm-6.38,5a15.82,15.82,0,0,0-5.25,1.86c-2.29-2.8-4.57-4.66-6.83-7.3,5.85.16,7.74,2.07,8.7,1.31,1.43-1.13-.16-3.49,2.31-9.47,2.27,3,4.38,6.09,6.33,9.21A18.22,18.22,0,0,0,74.12,88.07Z"/>
    <path d="M63.43,48.45c-3.74-2.34-6.19-5.14-8.85-7.62a5.71,5.71,0,0,1-.63.74c2.61,2.54,5.47,5.51,8.41,7.94C61,58.79,51.65,62.43,44,60.5c.25-3.81-.77-8.58-1.15-12.74a3.15,3.15,0,0,1-.79.89c0,3.62,1.27,7.44.69,11.23s1.88,7.25,4.65,7.81c3.64.74,7.88-2.59,8-6.84a6.86,6.86,0,0,0,2.23-1.35c3.07,1.53,7.49,1,9.39-2.87C68.67,53.32,66.67,50.47,63.43,48.45Z"/>
  </g>
  <path class="sketchDarkest" d="M38.84,25.91c.75,3.34-.34,7.67-2.9,6-.82,3.43-1.5,6-3.21,4.2-2.88.92,1.3,6.44,3.54,5.41a10.11,10.11,0,0,0,3.68,2c5.86,2,2.79,6.17-.86,6.12a5,5,0,0,1-3-.88c-.88,1.87-3.67,1.36-5.49-.88A18,18,0,0,1,27,39.28c-.45-3-.78-5.84-1.12-8.54-.78-6.19,2.84-10.59,8.09-11.66,4.29-4.49,9.33-2.49,13.12,1.29a23.4,23.4,0,0,0,5.12,4.74c6.2,4.57,6.8,10.53,3.34,11.52.94,1.91-1.65,6.57-4.07,5.78-.48-.27-.8-1.07-1.19-2.12a10.37,10.37,0,0,0,.46-8.86c-.77-1.95-2-2.91-2.86-4.78a4.36,4.36,0,0,1-2.78-.3C46.2,29.27,42.3,29.05,38.84,25.91Z"/>
  <g class="bodyOverlapLine">
    <path d="M50.3,40.29a7.43,7.43,0,0,1-2.18,3c-1.94,1.1-6.18.84-8.17.23"/>
    <path d="M59,30.36c.36-.71.84-1.6,1.29-2.37"/>
    <path d="M36.83,65a8.52,8.52,0,0,1,1.44,1.55"/>
    <path d="M19,54.27a2.83,2.83,0,0,1,2.38-.83c.9.2,1,.83,1.8,1.7.63.84-.22,1.7-1,1.83a1.47,1.47,0,0,1-1.46-.62"/>
    <path d="M18.93,52.87a2.32,2.32,0,0,1,1.52-1.22c1.23-.21,1.78.9,2.77,1.36a1.22,1.22,0,0,1-.09,2.13"/>
    <path d="M23.76,51A1.4,1.4,0,0,1,22.2,52.3"/>
    <path d="M22.12,57c.66.47,2.24.43,3.56,2.07"/>
    <path d="M70.74,83.94c2,2.33,3.69,4.47,5.59,7"/>
    <line x1="73.68" y1="73.07" x2="73.05" y2="74.47"/>
    <line x1="62.04" y1="82.63" x2="60.34" y2="82.62"/>
    <line x1="80.5" y1="83.05" x2="79.38" y2="83.68"/>
    <line x1="68.87" y1="89.93" x2="67.83" y2="90.6"/>
  </g>
  <g class="bodyFoldLine">
    <path d="M41.45,55.76a18.86,18.86,0,0,1,1.34,6.08"/>
    <path d="M55.42,60.85A7.35,7.35,0,0,0,53,55.64"/>
    <path d="M57.65,59.5a6.7,6.7,0,0,1-2.88-5"/>
    <path d="M62.25,70.36c1.1.11,1.22,1.23,1,1.4s-.91,0-.89-.83"/>
  </g>
  <g class="skinDisplayLine">
    <path d="M47.35,29.57A6.6,6.6,0,0,1,43.23,32"/>
    <path d="M40.92,33.4a6.65,6.65,0,0,1-4.19,2.3"/>
  </g>
  <path class="skinFoldLine" d="M48.17,36.5a9.66,9.66,0,0,1-5.76,3.81"/>
  <path class="skinEdgeLine" d="M45.74,35.85a3.06,3.06,0,0,1-2.85,1.81"/>
  <path class="skinCreaseLine" d="M47.68,38.85A2.48,2.48,0,0,1,45,40.64"/>
  <rect class="pencilBody" x="66.5" y="79.25" width="3.25" height="34.79" transform="matrix(0.13, -0.99, 0.99, 0.13, -36.74, 151.28)"/>
  <g class="pencilMetal">
    <polygon points="46.18 94.61 50.74 95.38 51.03 93.27 46.42 92.8 46.18 94.61"/>
    <rect x="50.69" y="95.18" width="13" height="2.12" transform="translate(101.03 199.25) rotate(-172.34)"/>
    <polygon points="85.58 97.35 92.03 99.86 85.14 100.57 85.58 97.35"/>
  </g>
</svg>
