<svg viewBox="0 0 51.41 72.9">
  <path class="antennaMedium" d="M.78,5.46Q.41,11.77.53,18.09a1.51,1.51,0,0,0,1.61,1.4,1.51,1.51,0,0,0,1.6-1.4c.09-4.73,0-8.88-.25-12.63Z"/>
  <g class="antennaLight">
    <ellipse cx="2.14" cy="5.46" rx="1.35" ry="1.18"/>
    <path d="M3.77,15.38c0,.88,0,1.79,0,2.71H5a11,11,0,0,1,.5-2.71Z"/>
    <path d="M41.55.85c-.36-.46-2.95-.48-3.4,0L37.52,11l4.67.64Z"/>
  </g>
  <path class="phoneLight" d="M10.69,10.84c-2.67.73-5.14,3-5.5,5.73a174.22,174.22,0,0,0-.5,44.16C5.32,66.35,9.36,71.15,15,72c4,.58,20.48.58,24.51,0,5.6-.81,9.65-5.61,10.28-11.23a174.68,174.68,0,0,0-.51-44.16c-.36-2.75-2.83-5-5.49-5.73C38.25,9.33,16.18,9.33,10.69,10.84Z"/>
  <path class="phoneMedium" d="M26.7,16c3.92-1.89,13.88-1.85,17.38,0V64.25H27.22Z"/>
  <g class="phoneDark">
    <path d="M44.08,16c-.77.56-1.8,6.24-1.8,7.18.63,8,.35,22.54.16,31.44.05,4.81-.53,6.43-1.56,7.87a12.88,12.88,0,0,0,3,3.43c1-1.13,2.22-5,2.32-8.15.63-11.29.56-30.56-.46-38.72A3.62,3.62,0,0,0,44.08,16Z"/>
    <path d="M26.7,16c.77.56,1.8,6.24,1.79,7.18-.63,8-.34,22.54-.15,31.44-.05,4.81.53,6.43,1.56,7.87a12.88,12.88,0,0,1-3,3.43c-1-1.13-2.24-5-2.32-8.15C23.9,46.49,24,27.22,25,19.06A3.62,3.62,0,0,1,26.7,16Z"/>
    <path d="M40.88,62.5c-1.77.65-9.2.65-11,0a12.88,12.88,0,0,1-3,3.43c2.14,1.91,15.19,2,17.08,0A12.88,12.88,0,0,1,40.88,62.5Z"/>
  </g>
  <path class="phoneLight" d="M35.37,9.15A18.54,18.54,0,0,1,41,10a6.17,6.17,0,0,1,4.08,4.73,26.2,26.2,0,0,1,.12,10c-.56,3.07-2,4.49-2.06,7.12V61.13c.07,2.73-.75,4.23-3,4.64-.55.09-3,.13-4.78.13s-4.24,0-4.79-.13c-2.26-.41-3.08-1.91-3-4.64V31.86c0-2.63-1.5-4.05-2.06-7.12a26.2,26.2,0,0,1,.12-10A6.17,6.17,0,0,1,29.71,10,18.55,18.55,0,0,1,35.37,9.15Z"/>
  <path class="buttonLarge" d="M10.88,60.64a25.82,25.82,0,0,0,7.24,0A1.09,1.09,0,0,0,19,59.57v-4a1.08,1.08,0,0,0-.93-1.07,27.27,27.27,0,0,0-7.22,0A1.07,1.07,0,0,0,10,55.61v4A1.08,1.08,0,0,0,10.88,60.64Z"/>
  <g class="buttonSmall">
    <path d="M11.33,38.93a1.31,1.31,0,1,0,0-2.61H9.2a1.31,1.31,0,1,0,0,2.61Z"/>
    <path d="M19.75,38.93a1.31,1.31,0,1,0,0-2.61H17.62a1.31,1.31,0,1,0,0,2.61Z"/>
  </g>
</svg>
