<svg viewBox="0 0 149.96 155.77">
  <g class="flatYellowMedium">
    <path d="M39.86,96.1l-10.71,57.19,3.96-.7c.3-2.88,1.9-4.9,5.59-5.36,3.16-.36,4.74,1.01,4.68,3.54l3.03-.54,3.66-53.86-10.21-.27Z"/>
    <path d="M118.89,151.96l-3.12,.58c-.54-2.67-2.09-3.82-5.95-3.25-3.5,.62-4.62,2.59-4.55,5.2l-3.74,.69-4.41-57.9,11.48-1.36,10.3,56.04Zm-18.12-49.32c-1.52,.91-1.11,4.06,.65,4.27,1.32,.23,5.27-.31,6.11-1.04,1.24-.96,.62-3.76-.8-4.11-1.16-.32-4.83,.18-5.96,.89Z"/>
  </g>
  <g class="flatYellowDark">
    <polygon points="101.52 155.17 96.37 155.17 92.24 96.18 97.02 96.08 101.52 155.17"/>
    <path d="M109.81,149.28c-.11,.02-.22,.04-.33,.06,1.07,.6,1.63,1.55,1.89,3.19h4.39c-.54-2.67-2.09-3.82-5.95-3.25Z"/>
    <path d="M38.7,147.23c-.49,.06-.94,.15-1.36,.26,1.14,.49,1.71,1.35,1.83,3.27h4.21c.06-2.53-1.52-3.9-4.68-3.54Z"/>
    <path d="M107.53,105.86c1.24-.96,.62-3.76-.8-4.11-.76-.21-2.58-.07-4.07,.25,1.63,.89,2.12,3.46,.92,4.88,1.58-.16,3.41-.55,3.95-1.02Z"/>
    <polygon points="35.06 95.97 23.96 153.29 29.15 153.29 39.86 96.1 35.06 95.97"/>
  </g>
  <path class="whiteDark" d="M53.53,107.95l5.05-.49c1.47-1.95,4.13-3.89,7.72-4.66-6.2-.16-10.11,1.87-12.77,5.15Z"/>
  <path class="whiteMedium" d="M92.33,97.47l-51.08-1.34-2.08,11.45,14.37,.36c2.67-3.29,6.58-5.32,12.8-5.15,6.07,.17,10.2,2.24,13.35,5.81l13.46,.34-.8-11.48Z"/>
  <path class="flatRedMedium" d="M110.34,95.71l-15.47,1.83v-6.47l15.47-1.49c.7,2.07,.72,4.12,0,6.13Z"/>
  <path class="flatRedDark" d="M94.87,97.54l-61.8-1.62c-.7-1.85-.6-3.89,0-6.05l61.8,1.2v6.47Z"/>
  <g class="oakMediumDark">
    <path d="M107.07,3.36l15.07,76.65,17.81-3.73c-.26-19.39-7.03-55.04-12.76-70.75-5.07-.95-12.06-1.67-20.12-2.16Z"/>
    <path d="M96.87,2.88l15.17,77.16-70.39-.56C33.14,60.04,24.48,23.96,24.5,5.58c17.59-2.64,47.84-3.55,72.37-2.69Zm-7.75,11.36c.35-.54,.56-1.19,.56-1.89,0-1.91-1.55-3.46-3.46-3.46h-27.17s-.09,0-.14,0c-.35,.54-.56,1.19-.56,1.89h0c0,1.91,1.55,3.46,3.46,3.46,0,0,27.26,0,27.3,0Z"/>
    <path d="M71.99,86.72c-8.36-.06-16.01-.18-23.95-.39-.55,1.26-1.28,2.72-2.29,3.82,9.71,.57,18.67,.57,27.74,.5h0c-.59-1.23-1.09-2.54-1.5-3.93Z"/>
  </g>
  <g class="oakMedium">
    <path d="M107.07,3.36c-3.24-.2-6.66-.36-10.2-.48l15.17,77.16,10.1-.03L107.07,3.36h0Z"/>
    <path d="M20.04,6.33c-.16,18.24,8.18,53.17,16.3,72.98l5.31,.16C33.14,60.04,24.48,23.96,24.5,5.58c-1.59,.24-3.08,.49-4.45,.76Z"/>
    <path d="M88.98,7.33h-27.17c-.54,0-1.06,.13-1.51,.35h0c-.15,.08-.3,.16-.44,.26l-2.02,1.18c.38-.14,.79-.22,1.22-.22h27.17c1.91,0,3.46,1.55,3.46,3.46,0,1.07-.49,2.03-1.26,2.67l1.79-1c.31-.12,.6-.28,.86-.48h0c.83-.63,1.36-1.63,1.36-2.75,0-1.91-1.55-3.46-3.46-3.46Z"/>
    <path d="M41.84,86.15c-.96,2.46-1.84,4.11-3.14,5.86,2.52-.38,4.89-.97,7.04-1.85,.99-1.06,1.68-2.4,2.28-3.82-2.05-.06-4.1-.12-6.18-.18Z"/>
  </g>
  <g class="oakLight">
    <path d="M139.95,76.28c-.26-19.39-7.03-55.04-12.76-70.75C104.64,1.3,44.18,1.64,20.04,6.33c-.16,18.24,8.18,53.17,16.3,72.98h-2.03C26.01,59.79,17.58,23.04,18.22,4.73,44.7-.78,103.31-.64,128.46,3.6c6.17,15.4,13.77,55.07,13.41,72.37l-1.92,.31Z"/>
    <path d="M115.35,83.3c-34.08,1.43-80.23,.28-111.8-2.15,.35,3.09,1.22,5.92,2.71,8.43,10.51,1.34,21.34,2.12,32.43,2.43,1.31-1.75,2.19-3.4,3.14-5.86,10.09,.33,19.69,.5,30.14,.57,.67,2.27,1.57,4.32,2.71,6.14,11.65,.7,25.36,.3,40.44-.15l.21-9.42Z"/>
  </g>
  <g class="oakMediumLight">
    <path d="M138,5.96c-2.78-1.24-6.11-2.03-9.54-2.36,6.17,15.4,13.77,55.06,13.41,72.37,2.89-1.47,5.58-3.69,7.38-6.21,1.62-11.88-6.39-54.26-11.25-63.79Z"/>
    <path d="M88.98,14.24h-27.17c-1.91,0-3.46-1.55-3.46-3.46h0c0-.7,.21-1.35,.56-1.89-1.84,.07-3.32,1.59-3.32,3.45s1.55,3.46,3.46,3.46h27.17c1.21,0,2.28-.62,2.89-1.57-.05,0-.09,0-.14,0Z"/>
    <path d="M144.06,80.72c-.83,3.29-1.98,6.25-3.52,9.12-8.16,1.61-16.84,2.46-25.41,2.87,.03-3.14,.31-6.18,.21-9.42,10.16-.39,19.24-1.02,28.71-2.58Z"/>
  </g>
  <path class="fiberMedium" d="M114.51,83.33c9.91-.34,19.48-1.01,28.61-2.46l-.35-4.13c-10.03,.72-18.33,1.41-28.41,1.78,0,0,.16,4.8,.15,4.81Z"/>
  <path class="fiberMediumDark" d="M142.77,76.74l-28.41,1.78c-35.31,4.5-71.93,3.15-109.5-2.43,11.29-.66,22.48-1.08,33.52-1.21,34.8-.1,69.6,.52,104.39,1.85Z"/>
  <path class="fiberDark" d="M114.5,83.33l-.15-4.81c-28.98,.5-81.32-.24-109.5-2.43l-.35,5.13c31.28,2.36,76.34,3.47,110,2.11Z"/>
  <path class="glossyOrangeDark" d="M85,71.89v3.41c0,.85-11.73,1.55-26.2,1.55s-26.2-.69-26.2-1.55v-3.41h52.41Z"/>
  <ellipse class="rubberMediumDark" cx="58.79" cy="71.29" rx="52.08" ry="3.07"/>
  <ellipse class="dullChartreuseMedium" cx="58.79" cy="71.29" rx="17.66" ry="1.04"/>
  <path class="glossyOrangeDark" d="M87.1,70.89c-3.05-.21-6.05-.28-8.98-.19l-.06-3.45,8.99,.24,.06,3.4Z"/>
  <polygon class="glossyOrangeMediumLight" points="117.55 69.85 87.1 70.89 87.04 67.49 80.78 67.75 80.75 66.05 117.49 65.07 117.55 69.85"/>
  <polygon class="glossyOrangeMedium" points="117.49 65.07 80.75 66.2 74.83 65.43 111.57 64.47 117.49 65.07"/>
  <g class="glossyOrangeMediumDark">
    <polygon points="80.78 67.75 80.75 66.2 74.83 65.43 74.91 70 78.11 70.7 78.03 67.37 80.78 67.75"/>
    <path d="M57.71,68.38c0-1.3,2.17-1.3,2.17,0v3.05c-.12,.23-1.99,.26-2.17,0v-3.05Z"/>
  </g>
  <g class="dullIndigoMedium">
    <path d="M27.1,76.63l2.19-.14c-1-2.16-3.98-3.24-6.79-3.11-.77,.03-1.5,.08-2.24,.15l6.85,3.11Z"/>
    <polygon points="90.5 73 91.38 77.61 86.62 77.9 85.91 73.15 90.5 73"/>
  </g>
  <g class="dullIndigoMediumDark">
    <path d="M27.1,76.63c-1.76-3.82-9.78-4.26-11.98-.59l11.98,.59Z"/>
    <polygon points="86.62 77.9 82.89 77.83 83.96 73.15 85.91 73.15 86.62 77.9"/>
  </g>
  <path class="fiberMediumDark" d="M140.23,76.92c-.21-2.69-1.62-11.22-2.19-12.87-1.62-.39-21.29,.34-22.9,.76-.57,1.92-1.7,11.81-1.55,13.71,8.13-.25,17.63-.94,26.64-1.61Z"/>
  <g class="fiberDark">
    <path d="M109.24,64.73l5.91,.08c1.13-.3,17.07-1.11,22.88-.75-6.28-1.08-22.16-.32-28.79,.66Z"/>
  </g>
  <path class="fiberDarker" d="M115.14,64.82l-5.95-.08c-.6,1.59-2.35,11.21-2.35,13.89,2.35-.02,4.61-.05,6.74-.08-.06-2.95,1.04-11.96,1.57-13.72Z"/>
</svg>