<svg viewBox="0 0 124.38 570.46">
  <circle class="tetherball" cx="74.85" cy="473.53" r="31.37"/>
  <path class="rope" d="M74.85,442.16h.24L65.73,1.27H63.58l9.35,441Q73.89,442.16,74.85,442.16Z"/>
  <path class="steelLight" d="M.5,547.58c0,6.92,27.62,12.53,61.69,12.53s61.69-5.61,61.69-12.53-33.6-10.84-61.69-10.84C35.47,536.74.5,540.66.5,547.58Z"/>
  <g class="steelMedium">
    <path d="M67.53,1.1c-1.21-.72-9.36-.88-10.68,0V548.42c1.13,1.12,9.53,1.19,10.68,0Z"/>
    <path d="M62.19,560.11C28.12,560.11.5,554.5.5,547.58v9.84C.5,564.35,28.12,570,62.19,570s61.69-5.61,61.69-12.54v-9.84C123.88,554.5,96.26,560.11,62.19,560.11Z"/>
  </g>
</svg>
