<svg viewBox="0 0 104 28.4">
  <path class="bananaOuterRear" d="M63.82,15.3c-6.11,1.6-12.47,2-13.45,0,3.66.94,11.4-.46,14.8-4,3.08-3.07,4.16-6.15,5.76-8.22,2-2.45,5.41-3.24,6.74-2C80.12,3.55,76.94,11.65,63.82,15.3Z"/>
  <g class="bananaOuterMiddle">
    <path d="M76.31,21.45a50.14,50.14,0,0,1-19.46-2.2c1.76,2.42,3.79,3.17,8.31,4C70.21,23.73,73.72,23,76.31,21.45Z"/>
    <path d="M97.57,11.46c-.49,2.21-.66,4.92.24,6.06a16.33,16.33,0,0,0,5.45,3.65l-1.56,2.37c-2.51-2.3-4.88-3.81-7.08-4.09a5.61,5.61,0,0,1-5-5.43c.08-3.4,1.31-6,3.2-7.51C95.57,6.79,97.15,8.46,97.57,11.46Z"/>
  </g>
  <path class="bananaInnerMiddle" d="M78.92,5C81.63,3.61,85,1,88.15,1.14c4.63.16,11,5.73,9.42,10.32C95.93,8.1,93.61,6,91,8a11.42,11.42,0,0,1-5.78,2.7Z"/>
  <path class="bananaInnerRear" d="M77.67,1.12a9.38,9.38,0,0,1,4.24,6.1l-9.86.69C75.32,6.5,78.4,3,77.67,1.12Z"/>
  <path class="bananaOuterFront" d="M80.48,6.24c-1.59-.48-9.19,1-12.73,2.59A10.19,10.19,0,0,0,64.17,11a5.22,5.22,0,0,1-2.35,1.47l.52,3.77a7.15,7.15,0,0,1,2.57.42,11.4,11.4,0,0,0,2.74,1.2,17.8,17.8,0,0,0,7.51.07,34.35,34.35,0,0,0,7.4-2.21C84.67,11.83,83.79,8.72,80.48,6.24Z"/>
  <path class="bananaInnerFront" d="M80.48,6.24c4.46.86,8.19,6.36,8.71,11,.17,3.21-1.69,5.46-4.81,6.58-4.8,1.61-12.09.34-19.22-.6,5-.12,9-.82,12.47-2.86C82.09,17.88,84.81,10.74,80.48,6.24Z"/>
  <g class="bananaEnd">
    <path d="M61.82,12.47c-1.1.36-.58,4,.52,3.77C63.6,15.6,63.08,12.85,61.82,12.47Z"/>
    <path d="M103.26,21.17c.7.36-.45,3-1.56,2.37C100.94,23.12,102.36,20.76,103.26,21.17Z"/>
  </g>
  <g class="bananaEdgeLine">
    <path d="M92.52,10.13c-1.27,3-1,5.48,1.4,7.34"/>
    <path d="M66,12.52A34.68,34.68,0,0,0,81.44,9.89"/>
    <path d="M91.58,3.71c-3.22-.33-4,1.23-6.23,2"/>
    <path d="M73.77,3.72c-1.2,1.11-1.84,2.91-3,4"/>
  </g>
  <polygon class="puddingCupTop" points="35.98 9.84 32.33 27.21 24.38 24.68 28.15 8.04 35.98 9.84"/>
  <ellipse class="puddingCupInner" cx="30.01" cy="17.46" rx="7.29" ry="2.85" transform="translate(6.34 42.86) rotate(-77.22)"/>
  <path class="puddingCupBottom" d="M32.62,25.84c2.77.15,7.81.55,11.18,1,3,.48,5.48-11.14,2.56-11.95-3.23-1-7.92-2.82-10.63-3.83Z"/>
  <g class="pudding">
    <path d="M9.93,27.67a25.2,25.2,0,0,1-8.82-.38c-1.22-.33-.63-1.64,2-1.68,3.26,0,1.7-1.23,4.56-1.55a25.24,25.24,0,0,1,6,0c2.48.3,2.45,1.68-.45,2C10.48,26.4,11.62,27.41,9.93,27.67Z"/>
    <path d="M29.72,24.17c-1.26.28-.74,2.38-2.49,2.52A16.41,16.41,0,0,1,20,26.17c-1.24-.49.9-1.77,3.49-1.82,3.25,0,.76-1.62,3.84-2a17.84,17.84,0,0,1,3.87,0A6.3,6.3,0,0,1,29.72,24.17Z"/>
  </g>
</svg>
