<svg viewBox="0 0 120.17 30.6">
  <path class="flatMaroonMedium" d="M99.12,16.78L51.01,8.59C30.82,14.07,9.55,14.94,1.38,13.81c6.75,8.55,50.75,21.32,97.75,2.97Z"/>
  <path class="flatBlueMedium" d="M8.25,4.95c8.24,1.09,14.64,2.26,30.02,.06,7.46-1.07,15.24-2.83,21.45-3.72,0,0,55.21,8.77,55.57,8.75C100.69,18.72,17.54,20.03,8.25,4.95Z"/>
  <path class="flatPurpleMedium" d="M43.65,1.09c1.28,1.68,7.3,1.78,7.45,3.16,2.91-1.07,2.76,.77,5.83-.15-.46,1.69,3.84,.46,3.53,1.53,2.3-.61,2.3,1.07,4.45,.61-.31,1.38,4.45,0,4.3,1.23,3.22-.92,2.76,.77,5.22,.15-.15,1.38,4.3,0,4.91,1.07,3.07-.46,3.22,1.53,5.98,1.07-.15,1.38,4.22,.09,4.91,1.07,1.99-.61,3.68,.49,6.14,0,3.22,1.84,15.55-.6,18.92-.76L59.72,1.32c-3.4,.25-13.18,.86-16.06-.23Z"/>
  <path class="flatGreenMedium" d="M49.9,1.12c2.29-.49,5.03,2.05,8.72,1.59-.92,1.53,4.45,.15,4.91,1.53,3.07-1.07,2.91,.92,5.98,0-.15,1.23,4.6,.77,5.22,1.69,2.15-.77,2.45,1.23,5.22,.46-.31,1.53,5.22,.31,4.91,1.53,2.91-.92,4.45,.92,7.36,.15-.46,1.69,5.22,0,5.83,1.53,2.45-1.38,3.22,.92,5.75-.13,1.85,.48,8.11,.73,11.48,.57L59.72,1.3c-3.4,.25-7.49-.78-9.81-.17Z"/>
  <g class="magazineStackDark">
    <path d="M66.57,20.13c14.45-3.85,31.82-3.86,48.91-7.85,.17-.83,.1-1.57-.19-2.24-9.99,1.99-21.15,2.82-33.04,4.49-6.9,1.04-13.23,.14-16.19-1.9-2.21,2.04-1.9,5.72,.52,7.49Z"/>
    <path d="M50.6,23.34c3.16,2,6.87,2.2,14.6,.77l33.93-7.33c.36,.72,.51,1.54,.43,2.47l-48.22,10.8c-2.22-2.08-2.01-4.35-.73-6.7Z"/>
  </g>
  <g class="magazineStackLight">
    <path d="M1.26,19.02l50.07,11.02c.69-.79-1.15-1.1,.23-2.17-1.38-.77,.31-1.07-.61-2.15,1.23-.77-.4-1.68-.35-2.38-4.25,2.38-10.39,.85-14.38,.39-5.63-.65-15.77-2.8-20.97-4.01-7.43-1.73-10.24-2.96-13.87-5.91,.48,1.02-.6,2.09,.17,2.71-.77,.77,.77,1.53-.29,2.5Z"/>
    <path d="M7.42,13.15c10.35-1.66,35.79,3.51,59.15,6.98-.89-.85,.79-1.46-.43-2.38,.92-1.07-1.07-1.53,0-2.61-.92-.77,.15-1.53-.09-2.5-3.53,2.18-12.61,2.35-15.56,2.35-6.2,0-15.17-1.91-21.29-2.86-8.32-1.29-15.39-3.27-20.95-7.18-.36,.76,.82,2.36-.41,3.13,.92,1.23-.77,1.84,.31,2.91-1.07,.77-.31,1.38-.72,2.15Z"/>
  </g>
</svg>