<svg id="presence" xmlns="http://www.w3.org/2000/svg" viewBox="0 0 1048.22 2060.59">
  <defs>
    <style>
      .cls-1 {
        fill: none;
        stroke: #000;
        stroke-miterlimit: 10;
        stroke-width: 2px;
      }
    </style>
  </defs>
  <title>comforting</title>
  <g id="motherSole">
    <path class="cls-1" d="M956.68,1783.57c16.33,3.82,24.17,9.4,33.49,20.21,26.15,30.31,49.2,86.29,56.49,135.75,11.13,75.45-146.89,123.7-176.54,81.87-8.83-12.46-13.51-27.84-17.38-43.83Z"/>
    <path class="cls-1" d="M673.11,1972.78c4.13,17.52,7.77,40,3.79,53.88-13.11,45.73-162.31,38.81-178.92,9.74-7.9-13.84-10.91-34.73-12.26-51.42Z"/>
  </g>
  <g id="motherSandal">
    <path class="cls-1" d="M509.81,1855.9c-31.13,3.36-28.41,117.95-21.55,139.35,14.79,46.15,208.38,54.85,184.85-22.47Z"/>
    <path class="cls-1" d="M956.68,1783.57c19.16,5.27,61.79,83.83,69.46,136,10.06,68.5-152.33,125-173.4,58Z"/>
  </g>
  <g id="skinEastAsian">
    <path class="cls-1" d="M358.73,1346.29c23.34,216.25,145.54,352.45,149.56,502.94.76,28.72-24.81,34.66-18.06,138.71.49,11.84,16.3,18.43,25.22,12.61,1.61,9.11,22.69,10.43,29.8,4.59,2.11,11.1,27.13,13.74,35.54,5.16,4.1,10.55,40.32,9.24,37.83-14.33,5.29,11.35,21.14,15.41,34.39,11.46,23.42-7,27.67-25.47,18.34-43.56-7-11.35-11-14.64-16.49-41.35-5.4-26.29-20.19-50.35-22.56-65.63-6.7-43.25-18.65-63.25-22.26-78.53C581.9,1659.19,595.48,1440,547.87,1354c24.54-13.43,58.67-38.65,100.7-59.79-16.33-158.92-90-223.88-254.13-140.72C371.26,1218.9,342.74,1278.43,358.73,1346.29Z"/>
    <path class="cls-1" d="M632.27,1427.27c54.37,138.15,198.17,276.85,215.88,376.36,11.12,62.53-1.55,141.36,3.37,174,3.24,27.15,46.73,31.42,60.57,16.85,8.69,4.86,34.32-1.74,36.92-12.4,7.89,6.39,32-4.49,29.39-15.92,10.73,4.44,29-6.82,24.37-22.58,7.82,5.62,30.26-6.26,20.87-25.66-9.28-21.76-21.69-60.71-41.5-96.83-6.6-12-18.46-22.09-21-32.62-9.61-40.36-22.14-45.2-28.35-58.65-28-60.61-50.21-278.37-139-385.61,35.15-13.53,64.66-32.87,91.49-55-28.62-132.4-96.22-184.18-210.26-139.9-43.87,55.46-81.89,153.58-78,181.46C605.53,1391.07,622.91,1403.49,632.27,1427.27Z"/>
  </g>
  <g id="skinOverlapLine">
    <path class="cls-1" d="M905.15,1956.08c2.62,13.85,15.67,25.22,6.94,38.42"/>
    <path class="cls-1" d="M938,1946c4.43,13.44,12.57,23.14,11,36.15"/>
    <path class="cls-1" d="M964.06,1930.4c3.71,12.71,13.6,24.59,14.34,35.78"/>
    <path class="cls-1" d="M990.58,1916.68c4.11,9.84,10.22,18.39,12.19,26.92"/>
    <path class="cls-1" d="M615.18,1970.16c1.61,8.34-.33,20.64,3.44,25.81"/>
    <path class="cls-1" d="M579.41,1973.39c.52,12-2.43,25.68,1.38,36.91"/>
    <path class="cls-1" d="M549.22,1969.28c-2.47,14.53-5.92,28.93-4,35.86"/>
    <path class="cls-1" d="M517.21,1972.48c-.83,11-4.27,24.16-1.76,28.07"/>
  </g>
  <g id="skinDisplayLine">
    <path class="cls-1" d="M663,1978c-12.71-.86-23.8,1.75-32.76,8.93"/>
    <path class="cls-1" d="M602.79,1990.89a24.47,24.47,0,0,0-15.55,2"/>
    <path class="cls-1" d="M570,1994.53c-5.7-1.19-10.8-.93-15.22,1.32"/>
    <path class="cls-1" d="M538.61,1991.55c-6.24-1.87-11.83-2.27-16.54-.66"/>
    <path class="cls-1" d="M901.54,1977c-9.08-3.36-21.52-3.06-29.44,2.31"/>
    <path class="cls-1" d="M938.93,1974.33c-5.66-.26-13.35,2.18-16.89,5.63"/>
    <path class="cls-1" d="M967.71,1963.43c-5-.67-9.15.8-12.24,4.63"/>
    <path class="cls-1" d="M995.17,1945.57a21.36,21.36,0,0,0-12.24,7.94"/>
  </g>
  <g id="motherSandalStrap">
    <path class="cls-1" d="M624,1901.31c-1.28-9.4,7-18.1,28.3,1.29-3.8-11.87-7.83-22.71-13-31.29-18.73-31.85-118.91-25.57-141.58,9a88.79,88.79,0,0,0-9.42,33.58c15.85-17.48,44.12-29.24,74-31.83,21.83-1.89,24,8.66,24.68,17.32,1.61,19.53,4.67,40.1,9.8,58.56,5.07,18.26,42.06,14.94,37.53-2.23C629.42,1937.55,626.2,1918,624,1901.31Z"/>
    <path class="cls-1" d="M936.9,1833.83c19.92-4.21,40.42-2.88,57.78,3a111.86,111.86,0,0,0-18.28-28.74c-37.47-15.3-109.32,7.32-125.91,41.46a105.81,105.81,0,0,0,.24,31.81c21.59-25.32,25.48-9.61,27.18-.16a520.09,520.09,0,0,1,7.49,62.38c.21,24.33,37.44,14.31,36.64-13.2a358.79,358.79,0,0,0-9.74-67C910.2,1855,909.8,1839.56,936.9,1833.83Z"/>
  </g>
  <path id="motherShorts" class="cls-1" d="M925.2,982.63c8.65,16.33,16,36.5,16,52.62,0,14.63,12.85,28.08,7.09,52.09,31,108.1,11.48,189.36-51,224.9C841.63,1108.59,691.77,1083.5,637,1198.77c-65.32-83.57-156.58-106.63-237.27-60.52C424,993.8,710.48,1010.05,925.2,982.63Z"/>
  <path id="motherShortsInner" class="cls-1" d="M876.11,1296.63h0a341,341,0,0,1-52,33.88v0c5.45,12,19.31,14.66,29.07,11.37C876.08,1331.48,879.56,1317.76,876.11,1296.63Z"/>
  <path id="motherShortsCuff" class="cls-1" d="M378.27,1197.69c0-33.18,13.89-56.75,32.66-69.51,111.17-49.48,193.47-12.9,226.13,60.1,51.87-108.55,202.94-77.7,227.62,9.53,14.41,50.91,60.89,66.35,33.62,118-8.6,12.58-25.28,24.26-45.14,26.09,22.92-10.42,26.4-24.14,23-45.27-3.93-24.13-18.07-24.56-39.38-72.94-28.78-82.15-123-93-176.55-53.62a497.75,497.75,0,0,0-42,80.21C618.14,1129.56,400.29,1084.85,378.27,1197.69Z"/>
  <path id="motherBelt" class="cls-1" d="M918.63,995.12c7.26,14.13,11.48,27.91,12.49,41.31-36.24,15.47-95.26,27.86-146.17,29.86C797.72,1039.23,859.08,1018.08,918.63,995.12Z"/>
  <g id="clothesOverlapLine">
    <path class="cls-1" d="M664,1150.71c8-13.3,25.77-29,41.92-40.64"/>
    <path class="cls-1" d="M794.27,1070.13c56.4-3.84,76.43,35.35,106.71,47.58"/>
  </g>
  <g id="clothesFoldLine">
    <path class="cls-1" d="M880.79,1085.27c22.92,12.54,41.28,27.73,54.08,46.14"/>
    <path class="cls-1" d="M892.33,1194.14c15.14,7.93,28.54,29.27,49.75,26"/>
  </g>
  <g id="motherShirt">
    <path class="cls-1" d="M579.46,550.84C610,494.79,726.08,437.5,743,368.38c72.39,35.42,157.6,25.91,180.1,95.23,13.61,41.94,6.8,103.45-12.5,183.41l-25.8,52.58c18.72,47.91-8.75,115.12,19.66,187.35q28.92,21.57,12.43,63.13c14.1,8.31,6.12,28,18.63,43.48-33,27.6-95.94,31.56-141.27,76.57-67.61,10.24-88.32,57-158.12,66.91-5.3-34.59-23.4-57.68-26.17-83.9C504.81,901.76,520.46,730,579.46,550.84Z"/>
    <path class="cls-1" d="M617.73,1132.07c-53-48.31-123.63-59.31-201.68-54.81,39.3-67.22-47.57-59,3.11-143.76-5.17-48.6-14.62-96.82-1.11-121-67.15-156.17-9.38-219.85-1-272a75.37,75.37,0,0,0-38.2-33.09c-45.76-60.81-36.41-176.53,60-170.65,29.62,7.78,73.44,1.1,117.9,6.21-121.42,117.3,5,120.86,22.75,207.87,9.72,75.57-65.16,135.53-1.83,283.28,15.43,36-18.79,69.32,10.1,117C661.16,1044.17,574.29,1085.53,617.73,1132.07Z"/>
  </g>
  <g id="motherShirtCollar">
    <path class="cls-1" d="M579.46,550.84c-22-57.07-51.4-56-72.19-71.06-21.67,10.85-43.44,35.84-60.44,35.53C482.45,403.09,526,317.12,645,322.36c141.93,6.25,121.09,91.74,101.17,220.16C719,529.65,694.23,504.26,668,488,638.46,491.38,609.19,517.11,579.46,550.84Z"/>
    <path class="cls-1" d="M438.81,336.76c2.85-6.9-31.41-18.45-38.66-16.64-94.88,23.73-98,112.85-52.94,173.65,4.11,5.55,32,20.45,31.61,13.64C333.06,446.6,342.41,330.88,438.81,336.76Z"/>
    <path class="cls-1" d="M910.62,647c6.76,3.94,3.35,45-2.85,49.74-14.13,10.87-156.61,6.52-171.83-3.81-3.09-2.09-1.23-49.33,2.26-50.63C776.25,628.19,878.51,628.28,910.62,647Z"/>
  </g>
  <g id="skinEastAsian-2" data-name="skinEastAsian">
    <path class="cls-1" d="M539.69,310.84l-1.78,56c-55.15,109.4,30.24,102.29,41.55,184,31.38-65.66,124.78-103,147.9-170.62l-.89-72.93"/>
    <path class="cls-1" d="M494.89,1028.18c85.29-57.85,126-136.9,202.63-229.2,9.65-11.63,26-72.66,38.42-106,18.24-9.92,109.51-16.66,145.47-3.83C829.09,791.62,802.63,898.76,755,944.31c-77.08,73.64-138.94,80-202.43,130.2"/>
    <path class="cls-1" d="M392.42,322.27c-25.85-11-48.5-27.69-61.75-46.11C264.34,183.94,146.8,119.52,64.73,1.32L1.58,36.9c74,82.62,106.79,236.32,224.14,338,26,22.51,52.81,30.61,99,75.14C308.68,398.47,325.12,342.74,392.42,322.27Z"/>
  </g>
  <g id="clothesOverlapLine-2" data-name="clothesOverlapLine">
    <path class="cls-1" d="M746.5,639.73c2.92-21.39,8.52-43.52,16-66.15"/>
    <path class="cls-1" d="M436.59,426.92C426.88,450,432.35,494.3,417,540.5"/>
  </g>
  <g id="clothesFoldLine-2" data-name="clothesFoldLine">
    <path class="cls-1" d="M771.72,487.33c-8.45,33.41-37.42,64.81-25.73,96.4"/>
    <path class="cls-1" d="M852.38,450c-54.92,45.76-99.48,98.37-89.92,123.56,13.1-33.25,42.29-66.28,76.09-89.32"/>
    <path class="cls-1" d="M853.14,596.78c-11.18,14.61-24.29,26.72-39.95,35.54"/>
    <path class="cls-1" d="M907.3,581c-8.43,18.69-21.84,36.73-39.95,54.15"/>
    <path class="cls-1" d="M901.53,608.12a123.08,123.08,0,0,1-20.12,29.34"/>
    <path class="cls-1" d="M405.06,466.63c8.47,14.92,15.07,30.29,19,46.32"/>
    <path class="cls-1" d="M397.21,491.39A202.74,202.74,0,0,1,419.62,532"/>
    <path class="cls-1" d="M446.83,338.48C425.9,345.89,406.57,365.79,402,386"/>
    <path class="cls-1" d="M443.1,358.24c-18.88,14.95-30.51,34-31.09,59.18"/>
    <path class="cls-1" d="M630.58,731a605,605,0,0,1-77.87,8.87"/>
    <path class="cls-1" d="M659.7,744.05c-26.57,8.16-51,12.92-72.29,13"/>
    <path class="cls-1" d="M504.19,718A154.93,154.93,0,0,0,552,725.32"/>
    <path class="cls-1" d="M479.22,725.32a382.84,382.84,0,0,0,75.49,31.73"/>
    <path class="cls-1" d="M455.3,731.56c8.71,49.74,20.75,92.63,39.53,121.71"/>
    <path class="cls-1" d="M418.05,812.5c-3.32,76.14,45.57,11.64,25.81-48.17"/>
    <path class="cls-1" d="M419.16,933.5c1.81,15,12.21,17.55,14.29,29"/>
    <path class="cls-1" d="M419.93,965.61c3.12,38,60.85,51,93.1,24.45"/>
    <path class="cls-1" d="M904.48,887c11,53-55.46,92.19-136.59,84.38"/>
    <path class="cls-1" d="M916.91,950.08C903.56,971,897.07,986.49,907.27,989"/>
    <path class="cls-1" d="M738.76,990.58c87,4.31,65.53,35.89-78.54,48.89"/>
    <path class="cls-1" d="M766.32,1053.51c-45.37,7.34-87.08,17.3-116,36.41"/>
  </g>
  <g id="clothesEdgeLine">
    <path class="cls-1" d="M668,488c15.05-18,36-36.89,46-61.09"/>
    <path class="cls-1" d="M507.27,479.78c-5.5-23.46-8.75-46.79-2.68-69.86"/>
  </g>
  <g id="skinEdgeLine">
    <path class="cls-1" d="M789.93,843.87c2.38,15.82-1.84,28.29-22.9,32.2"/>
  </g>
  <g id="skinFoldLine">
    <path class="cls-1" d="M288.45,280.48c-23.21,13.75-40,30.35-48.29,50.77"/>
    <path class="cls-1" d="M547.87,1354a94,94,0,0,0-11-20.58"/>
  </g>
</svg>
