<svg viewBox="0 0 1169.21 2299.51">
    <g class="motherSole">
        <path d="M1077.67,2022.49c16.32,3.82,24.17,9.4,33.49,20.21,26.15,30.31,49.2,86.29,56.49,135.75,11.13,75.45-146.89,123.7-176.54,81.87-8.83-12.46-13.51-27.84-17.38-43.83Z"/>
        <path d="M794.1,2211.7c4.13,17.52,7.77,40,3.79,53.88-13.11,45.73-162.32,38.81-178.92,9.74-7.9-13.84-10.91-34.73-12.27-51.42Z"/>
    </g>
    <g class="motherSandal">
        <path d="M630.8,2094.82c-31.14,3.36-28.41,117.95-21.56,139.35C624,2280.32,817.63,2289,794.1,2211.7Z"/>
        <path d="M1077.67,2022.49c19.16,5.27,61.79,83.83,69.46,136,10.06,68.5-152.33,125-173.4,58Z"/>
    </g>
    <path class="motherShorts" d="M1046.19,1221.56c8.65,16.33,16,36.5,16,52.61,0,14.63,12.85,28.08,7.08,52.09,31,108.11,11.49,189.36-50.95,224.9C962.62,1347.51,812.76,1322.42,758,1437.69c-65.32-83.57-156.58-106.63-237.27-60.52C545,1232.72,831.47,1249,1046.19,1221.56Z"/>
    <path class="motherShortsCuff" d="M499.26,1436.61c0-33.18,13.89-56.75,32.66-69.51,111.17-49.48,193.47-12.9,226.13,60.1,51.87-108.54,202.93-77.7,227.62,9.53,14.41,50.91,60.89,66.35,33.62,118-8.6,12.58-25.28,24.26-45.15,26.09C974.14,1428.36,646.48,1583.83,499.26,1436.61Z"/>
    <path class="motherShortsInner" d="M997.1,1535.55h0a341,341,0,0,1-52,33.88v0c5.45,12,19.31,14.66,29.06,11.37C997.07,1570.4,1000.55,1556.68,997.1,1535.55Z"/>
    <path class="beltTan" d="M1039.62,1234c7.25,14.14,11.48,27.91,12.49,41.31-36.24,15.47-95.26,27.86-146.17,29.86C918.71,1278.15,980.07,1257,1039.62,1234Z"/>
    <g class="hairDarkGray">
        <path d="M939.09,422.14c65.34,58.51,1.57,161.44-67,135Z"/>
        <path d="M938.72,95.64c65.07,34.22,33.54,117.13,28.18,148.57-3.12,18.33,28.26,40.7-31.43,54.23l-190.11,279C646,602.2,474.76,596.07,492,470.72c-42.31-22.23-64.33-76.84-38.14-118.57-15.79-4.29-23.07-21.27-18.27-28.55C491.38,252,476,107,567.61,52.74,699.73-25.43,807.09,8.8,864.07,35.13,900.63,52,928.92,36.8,938.72,95.64Z"/>
    </g>
    <g class="hairOverlapLine">
        <path d="M874.29,116.28c-13,1.37-28.2,6.37-36.9,21.26"/>
        <path d="M636.92,250.66c-16.61,5-36.35,7.7-45.77,7.91"/>
        <path d="M609.12,294.25c-10.91,14.44-20,27.91-27.72,35.45"/>
        <path d="M938.72,95.64c-.19,6.51-1.24,12.61-4.57,17.61"/>
        <path d="M512.62,384.71A111.17,111.17,0,0,1,493.51,396"/>
    </g>
    <path class="hairEdgeLine" d="M873.85,55.54c-77,8.14-96.64,77.68-143.36,105.92"/>
    <g class="motherShirt">
        <path d="M700.45,789.77C730.94,733.71,847.07,676.42,864,607.3c72.4,35.42,157.61,25.91,180.1,95.23,13.62,41.94,6.81,103.45-12.49,183.41l-25.8,52.58c18.72,47.92-8.75,115.12,19.66,187.35q28.9,21.57,12.42,63.13c14.11,8.31,6.13,28,18.64,43.48-33.06,27.6-95.94,31.56-141.27,76.57-67.61,10.24-88.32,57-158.12,66.91-5.3-34.59-23.4-57.68-26.17-83.9C625.79,1140.68,641.45,968.89,700.45,789.77Z"/>
        <path d="M738.72,1371c-53-48.3-123.63-59.31-201.68-54.81,39.3-67.22-47.57-59,3.11-143.75-5.18-48.61-14.62-96.83-1.11-121-67.15-156.16-9.38-219.85-1-272a75.37,75.37,0,0,0-38.2-33.09c-45.76-60.81-36.41-176.53,60-170.65,29.62,7.78,73.44,1.1,117.9,6.21-121.42,117.3,5,120.86,22.75,207.88,9.72,75.56-65.16,135.52-1.83,283.27,15.43,36-18.79,69.32,10.1,117C782.15,1283.09,695.28,1324.46,738.72,1371Z"/>
    </g>
    <g class="motherShirtCollar">
        <path d="M700.45,789.77c-22.05-57.08-51.4-56-72.19-71.07-21.67,10.85-43.44,35.84-60.44,35.53C603.44,642,647,556,766,561.28,907.88,567.53,887,653,867.12,781.45,840,768.57,815.22,743.18,789,726.93,759.45,730.3,730.18,756,700.45,789.77Z"/>
        <path d="M559.8,575.68c2.84-6.9-31.41-18.45-38.66-16.64-94.88,23.73-98,112.85-52.94,173.65,4.11,5.56,32,20.45,31.61,13.64C454.05,685.52,463.4,569.8,559.8,575.68Z"/>
        <path d="M1031.61,885.94c6.76,3.94,3.35,45-2.85,49.74-14.13,10.87-156.61,6.52-171.83-3.8-3.09-2.1-1.24-49.34,2.26-50.64C897.23,867.11,999.5,867.2,1031.61,885.94Z"/>
    </g>
    <g class="clothesOverlapLine">
        <path d="M867.48,878.65c2.93-21.39,8.52-43.52,16-66.15"/>
        <path d="M557.58,665.84c-9.71,23.07-4.25,67.38-19.57,113.58"/>
        <path d="M785,1389.63c8-13.3,25.76-29,41.92-40.64"/>
        <path d="M915.26,1309.05c56.4-3.84,76.43,35.36,106.71,47.59"/>
    </g>
    <g class="clothesFoldLine">
        <path d="M892.71,726.25c-8.45,33.41-37.42,64.82-25.73,96.4"/>
        <path d="M973.36,688.94c-54.92,45.76-99.47,98.37-89.92,123.56,13.11-33.25,42.3-66.28,76.1-89.32"/>
        <path d="M974.13,835.71c-11.18,14.6-24.3,26.71-40,35.53"/>
        <path d="M1028.28,820c-8.42,18.69-21.83,36.73-39.94,54.16"/>
        <path d="M1022.52,847a123.08,123.08,0,0,1-20.12,29.34"/>
        <path d="M526.05,705.55c8.46,14.92,15.07,30.29,19,46.32"/>
        <path d="M518.2,730.31a202.74,202.74,0,0,1,22.41,40.61"/>
        <path d="M567.82,577.4c-20.93,7.41-40.26,27.31-44.79,47.54"/>
        <path d="M564.09,597.16c-18.88,15-30.51,34-31.1,59.18"/>
        <path d="M751.56,970a604.7,604.7,0,0,1-77.86,8.88"/>
        <path d="M780.69,983c-26.57,8.16-51,12.92-72.29,13"/>
        <path d="M625.18,957A154.93,154.93,0,0,0,673,964.24"/>
        <path d="M600.21,964.24A382.84,382.84,0,0,0,675.7,996"/>
        <path d="M576.29,970.48c8.7,49.75,20.75,92.63,39.53,121.71"/>
        <path d="M539,1051.42c-3.32,76.14,45.57,11.64,25.81-48.17"/>
        <path d="M540.15,1172.43c1.81,14.94,12.21,17.54,14.29,29"/>
        <path d="M540.92,1204.53c3.12,38,60.85,51,93.1,24.45"/>
        <path d="M1025.47,1125.87c11,53-55.46,92.19-136.6,84.39"/>
        <path d="M1037.89,1189c-13.34,20.88-19.83,36.41-9.63,38.94"/>
        <path d="M859.75,1229.5c87,4.31,65.53,35.89-78.54,48.89"/>
        <path d="M887.31,1292.43c-45.37,7.34-87.09,17.3-116,36.41"/>
        <path d="M1001.78,1324.19c22.92,12.54,41.28,27.73,54.08,46.14"/>
        <path d="M1013.32,1433.06c15.14,7.93,28.53,29.27,49.75,26"/>
    </g>
    <g class="clothesEdgeLine">
        <path d="M789,726.93c15-18,36-36.89,46-61.09"/>
        <path d="M628.26,718.7c-5.5-23.46-8.75-46.79-2.68-69.86"/>
    </g>
    <g class="eye">
        <circle class="sclera" cx="805.54" cy="322.78" r="131.08"/>
        <g class="irisDarkBrown">
            <ellipse cx="762.69" cy="319.27" rx="19.04" ry="22.05" transform="translate(-11.62 29.31) rotate(-2.18)"/>
            <ellipse cx="904.52" cy="313.67" rx="17.76" ry="22.05" transform="translate(-11.3 34.71) rotate(-2.18)"/>
        </g>
        <g class="pupil">
            <ellipse cx="765.14" cy="319.18" rx="7.4" ry="8.57" transform="translate(-11.61 29.4) rotate(-2.18)"/>
            <ellipse cx="907.29" cy="313.57" rx="6.91" ry="8.58" transform="translate(-11.3 34.82) rotate(-2.18)"/>
        </g>
    </g>
    <g class="skinEastAsian">
        <path d="M775.85,2161.44c-5.4-26.29-20.19-50.35-22.56-65.63-6.7-43.25-18.65-63.25-22.26-78.53-28.14-119.17-14.56-338.33-62.17-424.35,24.54-13.43,58.67-38.65,100.7-59.79-3-29.15-7.93-55.13-15-77.63q-8.46,16.76-15.37,33.69c-.06-111-184.25-157.73-231-76.82-3,8.13-6,16.19-8.91,24.21v0h0c-17.74,48.92-31.87,96.29-19.55,148.61,23.35,216.25,145.55,352.45,149.57,502.94.76,28.72-24.81,34.66-18.07,138.71.5,11.84,16.31,18.43,25.23,12.61,1.61,9.11,22.69,10.43,29.8,4.59,2.1,11.11,27.13,13.74,35.54,5.16,4.1,10.55,40.32,9.24,37.83-14.33,5.29,11.35,21.14,15.41,34.39,11.46,23.42-7,27.67-25.47,18.34-43.56C785.36,2191.44,781.34,2188.15,775.85,2161.44Z"/>
        <path d="M1144.62,2156.86c-9.27-21.76-21.68-60.71-41.49-96.83-6.61-12-18.46-22.09-21-32.62-9.62-40.35-22.15-45.19-28.35-58.65-28-60.61-50.21-278.37-139-385.61,31.18-12,57.92-28.58,82.28-47.6-3.93-24.13-18.07-24.56-39.38-72.94-28.78-82.15-123-93-176.55-53.62l0,0q-13.15,20.6-24,41.45c-24.9,48.54-41.74,100.23-39.08,119.25,8.45,60.25,25.84,72.67,35.19,96.45,54.38,138.15,198.18,276.85,215.89,376.36,11.12,62.53-1.55,141.36,3.37,174,3.24,27.15,46.73,31.42,60.57,16.85,8.69,4.86,34.32-1.74,36.92-12.4,7.89,6.39,32-4.48,29.39-15.92,10.73,4.45,29-6.82,24.37-22.58C1131.58,2188.14,1154,2176.26,1144.62,2156.86Z"/>
        <path d="M615.88,1267.1c85.29-57.85,126-136.9,202.63-229.2,9.65-11.63,26-72.66,38.42-106C875.17,922,966.44,915.22,1002.4,928c-52.32,102.5-78.78,209.64-126.45,255.19-77.08,73.64-157.93,88.34-226.32,150.37-35.78,47.14-63.22,51.31-118.91,38.25-13.08,6.13-20.26,14.54-27.23,35-12.5-13.67-33.74-16.44-20.81-55.22,4.61-8.31-9.7-21.23,2.07-37.38,7.66-10.49-3.28-22.25,21.5-31.77,13.55-4,31.54-20.32,46.72-16.82C582.41,1272.19,601.56,1275.93,615.88,1267.1Z"/>
        <path d="M122.56,275.82c74,82.62,106.8,236.32,224.14,338,26,22.5,52.82,30.6,99.06,75.13-16.09-51.55.35-107.28,67.65-127.75-25.85-11-48.5-27.68-61.75-46.11-66.33-92.22-195-165-274.37-288.62-11.91-21.84-12.41-109.2-33.75-135.5C122.69,67.63,125.67,45.79,81,33.38,48-2.4,29.14,9,13,1.05-10.89,5.82,3.31,37.39,34.36,40.33c-7.7,2.63-13.94,8.74-20.58,9.8C.52,61.27,15,78.21,33.41,77.37,26.19,86.28,44.05,102.11,56,99.59c6.33,11,13.81,14.78,26.46,11.22,8,34-3.18,29.25-8.93,48.64C47.9,140.46,47.9,95.07,17,104.14-9.3,112.77,20.21,140,31.1,177.68,44.72,224.77,59.25,263.93,122.56,275.82Z"/>
        <path d="M643.74,486.63c18.21,37.09,19.75,102,15.16,119.17-55.15,109.4,30.24,102.29,41.55,184,31.38-65.67,124.78-103,147.9-170.63-6.6-26.1-9.42-51.13-.89-72.93"/>
        <path d="M742.35,580.17C688.8,559.45,620.67,543.43,587.47,433.9c-18,19.09-33.8,6.39-42.63-5.59-8.5-11.52-23-21.3-32.22-43.6,21.41-14.12,47.23-35,68.78-55,7.06,18.49,7.66,39,26.87,38.1-1.46-22.64-3-50.66.85-73.55,9.42-11.24,16.38-30,27.8-43.59,81.68-19.3,141.87-65.22,200.47-113.12,25.44-9.57,68.86-13.95,90.27-1.68,11,35.17,14,102.68,16,131.79,1.48,21.2-7.08,40-1.34,66C963.11,428.23,932,506.5,890.74,545.13c-30.16,28.27-23.39,46.36-73.29,50.8C776.72,599.55,761.68,585.12,742.35,580.17ZM779,323.92c-12.39-13.51-22.6-19-32.73-17.09-14,2.63-32.84,13.81-47,21.1,11,2.21,23.69,8.37,43.2,7.48,9.74-.44,18.59-4.28,32.25-6C777.25,329.14,782.9,328.19,779,323.92Zm77.18-1.61c4.27-1.19,37.8,16.3,59,1.87a25,25,0,0,0-.24-14.67c-4.83-1.94-17.93-10-26-10-16,.05-30.39,8.48-37.23,20C850.13,322.31,852.16,323.42,856.16,322.31Z"/>
    </g>
    <g class="skinDisplayLine">
        <path d="M784,2216.91c-12.7-.86-23.79,1.75-32.75,8.93"/>
        <path d="M723.78,2229.81a24.47,24.47,0,0,0-15.55,2"/>
        <path d="M691,2233.45c-5.7-1.19-10.8-.93-15.22,1.33"/>
        <path d="M659.6,2230.47c-6.24-1.87-11.83-2.27-16.54-.66"/>
        <path d="M1022.53,2215.92c-9.08-3.36-21.52-3.06-29.44,2.31"/>
        <path d="M1059.92,2213.25c-5.66-.26-13.35,2.18-16.89,5.63"/>
        <path d="M1088.7,2202.35c-5-.67-9.15.8-12.24,4.63"/>
        <path d="M1116.16,2184.49a21.36,21.36,0,0,0-12.24,7.94"/>
    </g>
    <g class="skinOverlapLine">
        <path d="M1026.14,2195c2.61,13.85,15.67,25.22,6.94,38.42"/>
        <path d="M1059,2184.87c4.44,13.44,12.58,23.14,11,36.15"/>
        <path d="M1085,2169.32c3.72,12.71,13.61,24.59,14.35,35.78"/>
        <path d="M1111.57,2155.6c4.11,9.84,10.22,18.39,12.19,26.92"/>
        <path d="M736.16,2209.08c1.62,8.34-.32,20.64,3.45,25.81"/>
        <path d="M700.4,2212.31c.52,12-2.43,25.68,1.38,36.91"/>
        <path d="M670.21,2208.2c-2.48,14.53-5.92,28.93-4,35.86"/>
        <path d="M638.2,2211.4c-.83,11-4.27,24.16-1.76,28.07"/>
        <path d="M81,33.38C100,52.91,107.25,63,119.17,91.2"/>
        <path d="M34.36,40.33c28.33,22.31,36.8,37.06,48.13,70.48"/>
        <path d="M33.41,77.37c11.71-.1,20.47-2,28.73-9.77"/>
        <path d="M56,99.59c6.22-.75,13.44-1.82,19.66-7.19"/>
        <path d="M514.12,1384.8c-.18-2.65-1.86-4.58-4.06-6.07,3.89,2.68,10.7-2,20.66-6.88"/>
    </g>
    <g class="skinFoldLine">
        <path d="M409.44,519.4c-23.21,13.76-40.05,30.35-48.29,50.77"/>
        <path d="M668.86,1592.93a94.46,94.46,0,0,0-11-20.58"/>
        <path d="M518.22,1365.93c-3.75,9.59-9.48,15.79-17.54,18"/>
        <path d="M524.55,376.56c3.46,8.88,8.17,18,16.65,26.46"/>
        <path d="M567.15,363.15c-13,11.8,16.39,37.53,1,39.87-9.56,1.46.36-16.52-16.41-22.69-6.71-2.47-9.67-9.82-10.75-16.18"/>
    </g>
    <g class="skinEdgeLine">
        <path d="M910.92,1082.79c2.38,15.82-1.84,28.29-22.91,32.2"/>
    </g>
    <g class="motherSandalStrap">
        <path d="M744.94,2140.23c-1.28-9.4,7-18.1,28.3,1.29-3.8-11.87-7.83-22.71-13-31.29-18.73-31.85-118.91-25.57-141.58,9a89,89,0,0,0-9.43,33.59c15.86-17.49,44.13-29.25,74-31.83,21.83-1.9,24,8.65,24.68,17.31,1.61,19.53,4.67,40.1,9.8,58.56,5.07,18.26,42.06,15,37.53-2.23C750.41,2176.47,747.19,2156.87,744.94,2140.23Z"/>
        <path d="M1057.89,2072.75c19.92-4.2,40.42-2.88,57.78,3a112.13,112.13,0,0,0-18.28-28.74c-37.47-15.3-109.32,7.32-125.91,41.46a105.81,105.81,0,0,0,.24,31.81c21.59-25.32,25.48-9.61,27.18-.16a520.33,520.33,0,0,1,7.49,62.38c.21,24.33,37.44,14.31,36.64-13.2a358.79,358.79,0,0,0-9.74-67C1031.19,2093.87,1030.79,2078.48,1057.89,2072.75Z"/>
    </g>
    <g class="head49">
        <path class="lipFemaleMedium__noStroke" d="M853.73,473.78c29.64,81.31-90.52,68.71-84.42,6.15C799.92,505.66,827.89,501.61,853.73,473.78Z"/>
        <path class="lipFemaleMedium" d="M853.73,473.78c5.93-1.47,13.8-5.3,22.46-5.71-17.48-1.28-24.59-5.75-30.77-5.22-7.75.67-11.81,7.41-15.63,5-20.58-13-45.72,9.7-75.39,9.55a45.06,45.06,0,0,0,14.91,2.54C803.14,505.82,830.75,501.16,853.73,473.78Z"/>
        <path class="lipEdgeLine" d="M857.41,506.55c-8.39,35.23-65.51,29.95-83.15-1.79"/>
        <path class="mouthInner" d="M768.35,479.59c43.48,55.27,115.84,10,48.2-.78C792.29,476.45,782.08,479.92,768.35,479.59Z"/>
        <path class="teeth" d="M774.48,479.51c13.64,15.74,60.67,22.64,73.94,10.48,4-3.39,4.87-9.86,5.31-16.21-5.8,2.28-23.82,6.38-37.18,5C798.68,476.75,783.2,479.22,774.48,479.51Z"/>
        <g class="cheekLine">
            <path d="M864.6,423.72a54,54,0,0,1,12,20.87"/>
            <path d="M783.94,405.73c-10.71,9.86-15.23,20.6-24.62,28.22-16.34,13.26-22.13,23.89-24.53,32.4"/>
        </g>
        <g class="noseLine">
            <path d="M849.73,368.82c9.3,29.62,32.35,36.42,10.47,60.29"/>
            <path d="M783.94,405.73c-7,8-7.58,16.71,1,26.32"/>
            <path d="M799.34,428.5c15-16.15,31.63,20.09,58.25-6.23"/>
        </g>
        <g class="eyeFoldLine">
            <path d="M911.11,341.24c-12.53,11.28-33.33,9.92-46.19,1.33"/>
            <path d="M763.63,349c-12.64,8.69-33,8.6-44.88,1.71"/>
        </g>
        <g class="eyeCornerLine">
            <path d="M687.69,332.83a31.2,31.2,0,0,0,11.61-4.9"/>
            <path d="M915,309.51c2.14,1.32,5.84,2.11,8.09,2.84"/>
            <path d="M915.2,324.18c2-1.08,4.34-2.29,5.74-2.86"/>
        </g>
        <g class="eyebrowDarkGray">
            <path d="M789.05,261.65c10.37,13.82-23.44,11.15-53.12,13-30.45,1.86-46.18,24-53.29,17.34C710.18,239.87,762.61,266.67,789.05,261.65Z"/>
            <path d="M943.16,284.12a104.21,104.21,0,0,0,.62-13.6c-29.28-33.08-74.55-9.45-84.07-10.11C856.82,281.05,905.83,249.54,943.16,284.12Z"/>
        </g>
    </g>
</svg>
