<svg id="presence" xmlns="http://www.w3.org/2000/svg" viewBox="0 0 1198.29 1084.24">
  <defs>
    <style>
      .cls-1 {
        fill: none;
        stroke: #000;
        stroke-miterlimit: 10;
        stroke-width: 2px;
      }
    </style>
  </defs>
  <title>future</title>
  <path id="ghostTail" class="cls-1" d="M257.91,435.9c-57.9-52.81-143.8-57.9-203,5.72-20,4.95-37.51-2.62-53.45-17.81-4.35,64.65,21,115.17,64.91,134.26-.51,20.52,14,15.91,15.9,28.63C91,643.36,110.8,775.8,153,810c36.86,29.92,79.49,48.65,129.86,59.72C338.52,882,404.5,859.51,473.16,829.68,474.94,674.67,394.14,545.15,257.91,435.9Z"/>
  <g id="clothesCreaseLine">
    <path class="cls-1" d="M234,738a553.29,553.29,0,0,0,79.48,47.46"/>
    <path class="cls-1" d="M296.5,756.47a701.48,701.48,0,0,0,91.15,45.58"/>
  </g>
  <path id="clothesOverlapLine" class="cls-1" d="M172.51,561C153.39,610,157.86,650.42,184.1,687.87"/>
  <g id="clothesFoldLine">
    <path class="cls-1" d="M54.93,441.62c-4.7,6.07-15.56,14.09-24.53,14.8"/>
    <path class="cls-1" d="M66.39,558.07C66,544.43,74.89,529.78,85.14,515"/>
    <path class="cls-1" d="M157.25,721c-14.78-24.19-14.78-61.36,7.33-79.76-15.25-3.1-31.52,4.51-37.34,18.4"/>
  </g>
  <path id="motherChineseGown" class="cls-1" d="M193.45,510.32c22.79,108.73,120.47,163,232.27,206.93,29.09,116.77,67,220.91,118.14,306.18,46.79-166,132.21-334.4,133.25-393.78,10-34.26,34.61-54,66.54-66.54,33.7-11.64,89.94.73,138.3-90.37,0,60.73,4.55,118.31,2,171C879.7,731.42,916,841,924.69,856.27c28.11,49.48,84.4,124.1,137.32,178.16l104-316.69c-19.73-16.69-36-53.18-56.85-52.68-18-20.24-25.42-39.57-42.74-45,5.29-15.62-.47-31.7-20.24-48.37-21.37-128.21-2.36-280-34.87-325-26.57-36.83-84.35-63-121.43-96.11l-194.94-47C627.76,129.7,497.3,84.71,464.68,215.18c-38.24,37.11-41.62,67.48-54.6,93.15L352.3,386.25C287.07,384.62,234.65,427.82,193.45,510.32Z"/>
  <g id="motherGownInner">
    <path class="cls-1" d="M1194.7,741.73c16.7,105.87-55.26,156.67-39.8,250.53,13.43,81.52-41.32,95.74-62.86,73.55C1044.34,1048.46,1095.64,637.23,1194.7,741.73Z"/>
    <path class="cls-1" d="M615.75,755.81c95.16,8,25.52,124.18,34.46,224.25,8.55,95.76-18,116.28-62.91,96.17C539.92,1050.17,554.66,712.21,615.75,755.81Z"/>
  </g>
  <g id="clothesOverlapLine-2" data-name="clothesOverlapLine">
    <path class="cls-1" d="M464.68,215.18C449,268.46,437.3,321.8,431,375.22"/>
    <path class="cls-1" d="M412.68,519.8c-5.05,46.25-4.94,87.31,1.22,122.28"/>
    <path class="cls-1" d="M583.37,310.48c-11.18,84-24.29,176.07-22.09,204.42"/>
    <path class="cls-1" d="M593.69,623.57c19.49,22.84,26,46.1,42.42,63"/>
    <path class="cls-1" d="M882,472.74c10.42-24,19.39-54.08,25.88-94.61"/>
  </g>
  <g id="clothesFoldLine-2" data-name="clothesFoldLine">
    <path class="cls-1" d="M625,218.84c-18.54-33.18,2.53,78.81-41.58,91.64,7.73-32.5,12-59.07,3.08-77.69"/>
    <path class="cls-1" d="M957.91,281.75c-12.16,50-26.78,90.23-50.08,96.38C913,354.75,903,320.38,917,317.71c3.93-.75,9.32,7.11,3.78,32.05"/>
    <path class="cls-1" d="M932.94,371.94c-4.43,65.42-25.17,97.41-21.62,129.17"/>
    <path class="cls-1" d="M939.6,469c.82,43.9-18.3,54.33-3.88,111.43"/>
    <path class="cls-1" d="M1046.16,571.71c-6.85-4.33-12.77-7.37-17.31-8.51"/>
    <path class="cls-1" d="M1066.4,620.08c-10.38-1.66-22.37.64-36.44,8"/>
    <path class="cls-1" d="M1109.14,665.06c-22.63-4.84-55.65,6.28-65.32,27.87-26,58.21-51.1,58.15-45.46,7.76"/>
    <path class="cls-1" d="M945.7,643.59c10-59.32,93.69-65.42,107.65-23.56"/>
    <path class="cls-1" d="M657.08,631.06c-5.44,9.84-13.77,17.92-25.37,24"/>
    <path class="cls-1" d="M580.38,629.37c-38,.68-65.49,18.29-80.24,93.21-3.72,18.91-24.18,5.9-18.87-23.6"/>
    <path class="cls-1" d="M566,585.4c-20.08-42.72-74.13-51.61-113.07-15"/>
    <path class="cls-1" d="M572.12,598.69c-13.74-15.78-38.35-8.85-54.87-9.44"/>
    <path class="cls-1" d="M460.62,468.9c-6.49,69.61-44.1,90.49-34.22,123.3"/>
    <path class="cls-1" d="M451.77,404.59c3.59,31.46-15.93,54.87-15.34,82.6"/>
    <path class="cls-1" d="M356.42,425.43c-31.49,19.87-74,25.66-43,.91"/>
    <path class="cls-1" d="M388.86,491.51c-16.12,5.54-28.21,13.45-36.7,23.48"/>
    <path class="cls-1" d="M406.13,512.74c-23.39,29.9-52.89,36.39-33.42,7.06"/>
    <path class="cls-1" d="M1048.54,796.07c-3.92,20.36-11.31,39-29,52.55"/>
    <path class="cls-1" d="M1050.62,856.92c-26.28,35.26-72.6,25.58-97.49-13.14"/>
  </g>
  <g id="motherChineseTrim">
    <path class="cls-1" d="M1194.7,741.73c-10.42-9.62-21.14-19.54-28.71-24-85.25-12-80.8,85.89-85.34,162.82-3.15,53.5-37.49,116.94-18.64,153.87,9.72,14,16.16,24,30,31.38-41.17-63.49,30.65-128.65,22.54-221C1108,770.09,1128.05,724.68,1194.7,741.73Z"/>
    <path class="cls-1" d="M193.45,510.32c-8.82,13.06-18.75,32.63-22.8,47.3,51.52,93.75,145.27,157.94,255.07,159.63a492,492,0,0,1-11.82-75.17C321.42,655,225.93,590.07,193.45,510.32Z"/>
    <path class="cls-1" d="M615.75,755.81c-45.32-7.38-20,99.08-28.45,152.84-8.4,53.49-33.73,129.64,0,167.58-17.82-11-30.11-27.36-43.44-52.8-10.32-45.22,8.65-68.41,12.87-128.49,3.82-54.49-9.49-140.18,22.13-166.53Z"/>
    <path class="cls-1" d="M694.91,103.59c16.91-4.45,39.88-34.83,58.29-40.93l136.66,87.9L730.12,426.34C728.11,314.76,673.18,148.53,694.91,103.59Z"/>
    <path class="cls-1" d="M637.72,543.72C729.17,450.07,738.87,369,772.59,325.32l117.31-189c14.22,85.55-26,138.18-75.23,217.72-35.11,56.8-22,117.23-102.41,204.55Z"/>
  </g>
  <g id="motherBeltTrim">
    <path class="cls-1" d="M410.08,308.33c-23.54,25.11-44.23,50.79-57.78,77.92-2.2,46.88,22.16,93.64,60.38,133.55C416.82,469.59,423,421.52,431,375.22,420.42,353.53,413.07,331,410.08,308.33Z"/>
    <path class="cls-1" d="M637.72,543.72c-24-3.09-50.35-13.33-76.44-28.82,4.94,20.93,22.45,41,4.74,70.5,15.72,12.6,18.3,23.16,27.67,38.17,29.06,6.95,57.57,9.35,83.42,6.08,15.08-25.83,39.12-47.06,66.54-66.54C706.88,560.48,692,550.72,637.72,543.72Z"/>
  </g>
  <g id="motherChineseBelt">
    <path class="cls-1" d="M399.67,319.72a372.89,372.89,0,0,0-34.24,43.85c.38,46.86,19.48,90.62,49.81,127.94Q420,444.17,427,399.29A310,310,0,0,1,399.67,319.72Z"/>
    <path class="cls-1" d="M566.67,530.79c6.15,15.8,12.58,32.57-.65,54.61a125.72,125.72,0,0,1,12.85,13.19c37.83,11.44,76.48,15.83,112,11.43,11-13.3,24.28-25.38,39-36.75C671.14,567.5,615.36,553.91,566.67,530.79Z"/>
  </g>
  <g id="skinEastAsian">
    <path class="cls-1" d="M787.19.48l-34,62.18c-44.35,44.5,19.32,182,19.39,262.66,38.5-55.65,115.1-74.22,117.27-174.76l40.94-87.9"/>
  </g>
</svg>
