<svg viewBox="0 0 2151.57 2762.15">
    <path class="ghostTail" d="M1658.05,1413.17c59.49,87.9,31.41,196.84,55.92,332.83,1.31,16,30.28,31,3.67,67.38,16.18,5.38,22,32,12.25,46.56,15.72,5.27,24.21,27.77,18.38,42.88,118.84,52.68,106.59,236.13,202.15,341.49,50.54,55.72,130.74,24.18,177.87,168.17,34.23,104.57-73.83,241.45,20.5,348-247.48-53.91-219.3-202.15-261-278.11-20.54-3.92-31-22.46-25.73-34.3-32.47-6.12-29-28.14-46.56-36.76-148.24-95.56-312.41-200.92-414.09-333.24-117.81-150.09-195.11-281.58-266.11-448.4C1149.05,1287.54,1385.09,1425.71,1658.05,1413.17Z"/>
    <path class="motherChineseGown" d="M1152.88,598.21c38.09,6.06,108.34-32.84,184.81,39,27.65,26,61.09,69.48,111.6,111.79l103.37-1.23c18.36,26.53,28.39,58.37,38.85,91.63,22.22,37.14,45.6,46.23,52.7,107.48s-16.19,134.84-62.92,170c-65.43,49.21-107.81-100.08-180.19-183,16.48,37.25,3.79,85.11,96.8,210.25,19.94,26.83,53,20.9,111.7,104.36,22.1,31.41,49.39,96.24,97.79,162.74C1506,1473.88,1255.32,1232.34,1107,1573.55c-21.14-76.16-58.44-163.6-36.92-211.4C989.72,1089.34,881.89,1184.48,864.3,1031c-119.34,53.29-172.58,383.14-408,521l-97.68-372c30.55-11.26,83.51-87.34,114.91-87.62,13.63-21.61,33.54-23.13,50.69-39.22,26.46-24.81,39-50.64,88.84-69.84,77.39-79.5,155.3-210.66,277.92-298.14Z"/>
    <g class="motherGownInner">
        <path d="M1163.23,1723c2.74,5.22,9.41,8.56,19.29,10.26q-16-32.77-31.3-67.16C1152,1683,1155.64,1701.77,1163.23,1723Z"/>
        <path d="M1686.46,1478.87h0c5.68,23.17,8.27,47.68,9.63,73.5,29.88-23.38,46.67-64.4,45.1-65.94C1734.65,1475.16,1715.22,1476.6,1686.46,1478.87Z"/>
        <path d="M292.87,1222.25c86.09-54.2,169.29,342.67,85.74,377.81-12.31-.7-22.61-6.59-27.8-114.94-1.39-29.19-14.94-49.77-19.63-91.39C316.42,1262.76,273.08,1236.38,292.87,1222.25Z"/>
        <path d="M1470.63,1037.78c-11.51-25.42,8.19-37,6.38-122.1-1-46.49-3.66-57.64-14.64-141.82C1655.44,1057.51,1521.85,1115.16,1470.63,1037.78Z"/>
    </g>
    <g class="chineseTrim">
        <path d="M1256.53,1416.2a336.86,336.86,0,0,1-78.13-34.61c-6.93,89.45-67,136.39-71.43,192,11.8,27.6,13.44,94.29,56.26,149.46C1110.53,1575.62,1245.57,1548.45,1256.53,1416.2Z"/>
        <path d="M1078.64,555.3l-186.55,79c-3.92,140.12,55.43,204.13,115.41,251.89C1007.5,886.17,1102.57,579.4,1078.64,555.3Z"/>
        <path d="M1126.35,1344.72c82.27,67.72,146.86,74.43,160.56,79.76,128.81,50.08,175.52,14.87,238.33,38.1,112.74,41.7,200.46-2.82,216,23.85,10.81-13.66-14.63-43-33.8-75.2-54-19.57-67.21-4.5-103.18-8.5-77.5-8.61-56.59-33.21-184.51-27.06-46.33,2.23-80-29.52-126.68-34.44-27.44-2.89-51.48-18.4-74.31-34.71l-113.27-166.61c-21.55-74.22-20-175.17-9.25-279.64,13.53-131.61,55.35-183.28,56.69-262.06-22.9-7.58-48-23.13-74.24-42.91-47.33,51.46-110,462.53-52.11,617"/>
        <path d="M1518.52,689.4c65.48,47.15,30.87,202.79,43.22,264.54,11.79,58.94,23.42,101.78-21.59,119.78-39.17,15.67-53.45-10-69.52-35.94,13.7,26.14,62.21,26,78.37-3.63Z"/>
        <path d="M430.27,1367.34C408.6,1226,389,1174.2,358.59,1180l-65.72,42.28c36.75-17.9,48.05,93.27,67.84,179,20.09,87.08,49.36,172.21,24.29,194.85L456.27,1552C472.83,1508.67,441.61,1441.3,430.27,1367.34Z"/>
    </g>
    <path class="motherBeltTrim" d="M1413.29,971.63c-93.52,67.82-311.39,179.84-431.62,215.81,34.94,57.55,66.8,123.32,88.38,174.71,100.71-23.64,328.85-136.69,430.59-217.87Q1442,1069,1413.29,971.63Z"/>
    <path class="motherChineseBelt" d="M1002.56,1223.42c19.3,34.66,37.08,70.53,52,103.24,125.73-33.86,351.25-153,425.71-210.64a508.86,508.86,0,0,1-53.11-103.31C1359.68,1063.29,1128.71,1178.71,1002.56,1223.42Z"/>
    <g class="clothesOverlapLine">
        <path d="M1278.86,798.76c40.1,42.46,78.78,99.41,122.24,135.12"/>
        <path d="M864.3,1031c-8.85-61.24,2.46-120.59-14.75-173.28"/>
    </g>
    <g class="clothesFoldLine">
        <path d="M1591.51,839.38c1.38,21.36,1,39.9-3.7,51.44"/>
        <path d="M1585.87,951.84c8.72,22.28,3.88,48.43,30,70.71"/>
        <path d="M1358.25,759.09c25.19,88.14,73.62,144.32,103.64,198.56"/>
        <path d="M1280.77,685.48c27.12,33.9,44,109.81,72.64,149.16"/>
        <path d="M1202.31,726.16c15.5,48.43,55.21,53.27,76.55,72.6-22.31-72.6-70.74-98.75-40.71-43.54"/>
        <path d="M1342.19,873c-50.5-4.84-115.66-1.53-79.83-25.75"/>
        <path d="M1291.55,940.19c23.33,14.09,56.92,8.29,92.73,10.93"/>
        <path d="M1290.79,979c-56.92-33.93-61.82,31.67,15.67,59.55"/>
        <path d="M1238,1045.37c7.59,8.26,15.59,14.3,24.1,17.67"/>
        <path d="M1483.12,1157.67a56.47,56.47,0,0,1,21,17"/>
        <path d="M1462.37,1172.37c29.35,65.63,72.33,50.93,38.27,22.66"/>
        <path d="M1333.82,1249.4c7.1,18.59,18.6,34.55,32.75,48.92"/>
        <path d="M1089.3,1357c-5,17.61-5.58,34,0,48.74"/>
        <path d="M976,1150.54c5.66,10.93,20.36,26,29.24,29.31"/>
        <path d="M812,843.31c4.51,27.88,26.76,38.83,46.17,58.45"/>
        <path d="M837.67,848.21c-16.59-30.16-4.52-79.54,8.29-87.84,9.07-5.86-5.27,58.44,3.59,97.36"/>
        <path d="M728.73,1032.55c14.95,19.24,33.61,27.1,56.92,20.73"/>
        <path d="M677.46,996c19.61,7.48,28.27,45.24,59.56,63.33"/>
        <path d="M577.18,1043.86c32.67,3.68,54.68,25.31,66.73,63.71"/>
        <path d="M473.5,1092.35c11.32-1,26.48,1.23,40-5.89"/>
        <path d="M685.75,1183c-24.28,18.87-49.51,28.56-76.52,21.11"/>
        <path d="M538.35,1196.16c27.74,29.37,63.83,34.95,105.56,24.5"/>
        <path d="M474.27,1296.81c32.42,54.28,102.16,58.43,149.28,17.72"/>
        <path d="M430.54,1257.23c14.59,49.65,42.78,86.75,86.33,109.7"/>
        <path d="M1862.11,2448.11c30.25,2.11,52.92-7.38,72.41-21.76"/>
        <path d="M1887.84,2482.41c17.71,3,42.62.72,59.42-7.8"/>
        <path d="M1748.27,1902.82s-9.21,21.85-16.76,28.92"/>
        <path d="M1729.89,1859.94c-11.13,22-44.74,48-65,54.42"/>
        <path d="M1717.64,1813.38c-17.47,19.87-38.11,29.83-60.3,34.93"/>
    </g>
    <g class="clothesCreaseLine">
        <path d="M1526.61,1711.93c-47.86,21.22-92.12,38.78-130.95,51"/>
        <path d="M1443.17,1712.51a1261.67,1261.67,0,0,1-118.78,44"/>
        <path d="M1389.57,1451.18A1214.89,1214.89,0,0,1,1252,1508"/>
        <path d="M1460.58,1453.5c-1.87,1.64-160.1,71.56-159.94,69.72"/>
    </g>
    <g class="hairDarkGray">
        <path d="M1128.84,351.29c8.08,31.48,6.94,63.93-16.15,98.68,79,44.93-4,115.08-75.7,68.19C939.24,400.3,933.6,327.59,1128.84,351.29Z"/>
        <path d="M789.8,101.6c-79.8,27.9-207.95,160-125,296.4l320.28-19.78c32.68,16.56,89.94,5.48,117.05-6.67,97.56-43.64,6.53-222.12-77-265.08C1073.39,54.13,1001.51,6.4,909.43,1.52,779.77-5.35,741.15,57.4,789.8,101.6Z"/>
    </g>
    <g class="hairOverlapLine">
        <path d="M715.5,301.28c-26.12-86.4,42.65-159.44,92.23-199.51"/>
        <path d="M993.22,336.15c-16.47,3.25-59.86,16.13-79.32,9.81"/>
        <path d="M789.8,101.6c16.12,4.49,37-8.47,116.23-4.45,63.49,3.21,77.55,21.18,119.1,9.32"/>
        <path d="M1112.69,450c-10.16,11.91-22.09,19.37-35.64,22.79"/>
    </g>
    <g class="eye">
        <circle class="sclera" cx="789.06" cy="453.48" r="104.14"/>
        <g class="irisDarkBrown">
            <ellipse cx="830.55" cy="464.09" rx="19.04" ry="22.05" transform="translate(-29.79 57.88) rotate(-3.92)"/>
            <ellipse cx="705.88" cy="473.32" rx="16.7" ry="22.05" transform="translate(-30.71 49.37) rotate(-3.92)"/>
        </g>
        <g class="pupil">
            <ellipse cx="828.1" cy="464.25" rx="7.4" ry="8.57" transform="translate(-29.81 57.71) rotate(-3.92)"/>
            <ellipse cx="702.8" cy="473.53" rx="6.49" ry="8.58" transform="translate(-30.73 49.16) rotate(-3.92)"/>
        </g>
    </g>
    <g class="skinEastAsian">
        <path d="M892.09,634.28C903,738,1016.67,795.78,1016.67,795.78c16.32-134.42,48.55-143.22,62-240.48-17.72-13-56-70.85-40-102"/>
        <path d="M1042.6,487.27c25.38,5.46,33.34-10,40.19-26.74,6.38-15.53,38.33-49.25,19.37-89-17.22,7.62-44.23,14-68.29,15.33C1030,416.3,1040.55,450.33,1042.6,487.27Z"/>
    </g>
    <g class="skinGhostLight">
        <path d="M1564.64,594.6c-10.85,74.47-52.78,85.31-46.12,94.8,22.58,21,26.15,121.22,23.52,213.55-1.22,42.87,22.35,72.37,7,131.2-40.72-14.48-35.29-57.92-52.8-131-13.84-57.75-36.4-122-59.54-190.73-73.75-36.15-50.08-85-73-117.85-5.2-10.38,16.83-28.39,38.67-13,23.54-24.23,32.23-49.19,51.18-65.86,23.39-20.57,35.74-22.19,59.37-35.48,8.33-3.45,14.63-.31,20,5.91,17.23-8.64,24.74-5.57,35.66-11.37,11.26-4.1,18.87,8.44,15.68,18.6,9.57,2.55,18.37-7.34,23.9.16,6.49,8.24,6.82,20.14-.68,27,2.74,5.29,9.89,2.73,13.3,6.14,11.94,17-10.91,32.76-24.56,31.73C1565.75,571,1568.14,582.93,1564.64,594.6Z"/>
        <path d="M221.36,1398.16c72.92-14.19,73.56-69,120.27-89.48-11.71-55.08-24.85-98.08-48.76-86.43-21.18,9.43-59.25-24.77-92.16-24.77-20.65,0-33.55-11-55.49-9-21.56,1.9-26.12-4-40-1.94-19.36,11.61,3.47,53.52,44.12,43.84,10,8.91,23,11,30.09,17.46-25.89,20.41-72.65,42.4-118.42,52.91-56.65,1.12-64.91,28.14-47.48,43.73-24.18,13.29-11.42,42.56,21.84,36.18-17.51,12.76-4.75,42,36.19,33.07C86.51,1460.92,208.07,1398.26,221.36,1398.16Z"/>
        <path d="M1033.87,386.88c-3.83,29.42,6.68,63.45,8.73,100.39-9,69.52-76.24,154.8-142.1,188-18,9.06-29.48,23.26-61.8,24.86-53.75,2.65-55.91-26.7-75.71-40-48-32.18-80.81-95.94-81.89-176.17-.52-37.87-12.59-30.64-16.35-55.64-4-26.91-10.27-43.41-8.69-74.66,5.25-18.64,26.27-38.17,59.44-52.35,83-2.3,128.76,35.83,198.4,44.68,29,17.88,55,27.65,69.32,34,12,19.28,20.43,48.12,24.23,70.5,16.17-5.84,16.15-33.4,10.5-63.5A143.52,143.52,0,0,0,1033.87,386.88ZM808.14,462.27c36.66,8.52,49,5.83,62.81-8.18-11.7-4.41-45.24-25.18-66.73,4.55C800.77,463.41,805.68,461.7,808.14,462.27Zm-72.5,2.61c-9.31-7-14.62-15.79-28-13.67a36.42,36.42,0,0,0-16.86,6.93c-.62,4.24.54,12.37,3.46,15.69,16.18,4.92,31.17-5.36,40.37-5.14C738.78,468.79,738.19,466.81,735.64,464.88Z"/>
    </g>
    <g class="skinOverlapLine">
        <path d="M138.05,1312.59c-47,22.77-91.9,18.87-124.53,31.86"/>
        <path d="M148.46,1345.39c-54.4,22.47-94.33,24.21-113.1,35.24"/>
        <path d="M71.55,1413.7c-1.43-10.83,22.48-21.29,39.42-17.81,7.1,1.47,40.16-15.42,57.89-23.69"/>
        <path d="M1402.31,581.57c24.63,19.26,8.6,34.67,25.46,46.85"/>
        <path d="M1532.82,486.14c10.75,13.48-7.48,35.77-28.57,38.62-17,10.07-30.66,24.21-35,40.45"/>
        <path d="M1584.16,493.37c-5.26,11.57-14.24,20.59-31.47,24-18.41,8.42-40.51,34.13-48.49,49.52"/>
        <path d="M1607.38,520.49c-7.05,8.22-18.79,12.24-29.61,12.24-18,10.58-37.78,30-43.48,42"/>
    </g>
    <g class="skinFoldLine">
        <path d="M149.33,1230.35c5-1.48,10.64-7.39,11.23-16"/>
        <path d="M188,1255.67a38.11,38.11,0,0,0-8.56-7.86"/>
        <path d="M138.49,1305.75c-2.45,3.43.36,11.52,4,11"/>
        <path d="M167.08,1367.92c.26,3.64,2.85,6.7,7.45,7.72"/>
        <path d="M147.78,1341a7.42,7.42,0,0,0,4.66,7.61"/>
        <path d="M1089.25,376.44c7.18,12.16,9.34,31.25-1,53.95"/>
        <path d="M1045.24,393.86a69.88,69.88,0,0,1,1.21-8.11"/>
        <path d="M1047.57,410.48c14.09,4.85-8.16,33.41,3.93,37.43,8,2.67,5.23-15.52,14.44-22.69,22.69-17.66,13.64-42.84-4.2-33.67"/>
    </g>
    <g class="skinCreaseLine">
        <path d="M182.62,1282.22c24.39,18.46,52.51,18.84,82.9,8.2"/>
        <path d="M174.85,1304.24c15.54,1.29,35.84,17.7,41.88,37.13"/>
        <path d="M1436.17,593.91c24,6.54,59.75,34.45,58.44,64.1"/>
        <path d="M1481.09,591.73c5.51,18.58,26.17,30.09,48.84,34.88"/>
    </g>
    <g class="head49">
        <path class="lipFemaleMedium__noStroke" d="M831.35,609.18c29.2,45.15-78.23,56-53.72,2.52Z"/>
        <path class="lipFemaleMedium" d="M831.35,609.18c-21.3-21.49-38-28.11-47.57-12-11.12-7.68-16.45-2.54-17.25.1-2.36,7.78,12,19.42-1.73,23.4,4.28-.66,9.16-3.87,12.83-9Z"/>
        <g class="lipOverlapLine">
            <path d="M780.5,604.07a65.65,65.65,0,0,1-7-2"/>
            <path d="M831.35,609.18c6.64,2.85,14,6.17,21,6.9"/>
        </g>
        <path class="lipEdgeLine" d="M836.37,625.44c-2,26.14-58.73,31.39-62.24,3.63"/>
        <path class="mouthInner" d="M777.63,611.7a27.27,27.27,0,0,0,2.87-7.63c16.16,3.47,25.83-10.59,50.85,5.11C816.14,623.32,792.44,631.08,777.63,611.7Z"/>
        <path class="teeth" d="M783.34,609.72a16.74,16.74,0,0,0-1.37,6.69c14.79,13.17,35.58,5.6,49.38-7.23C816.33,617.31,793.5,619.78,783.34,609.72Z"/>
        <g class="cheekLine">
            <path d="M859.86,597.18c-7.14-20.37-35.12-66.06-43.57-67.6"/>
            <path d="M748.8,599.5c-1.26-8.76-2-22.53.69-29.74"/>
        </g>
        <g class="noseLine">
            <path d="M816.29,529.58c7.38,3.86,11.65,21.16.69,28.64"/>
            <path d="M747.77,524.52c-10.11,26.82-9.5,50.31,18.49,49,20.39-.94,25.83-19.08,38.62-14.86"/>
        </g>
        <g class="eyeFoldLine">
            <path d="M695.78,486c4.94,7.9,20.22,9.41,34.39-1.17"/>
            <path d="M817.73,479.13c9.55,8.13,29.32,9.51,41-3.48"/>
        </g>
        <g class="eyeCornerLine">
            <path d="M884.85,455c-6.36.8-8.93.49-13.9-.94"/>
            <path d="M690.8,458.14a19.21,19.21,0,0,1-6.14,4.08"/>
            <path d="M694.26,473.83c-1.9-.78-4.11-1.25-5.41-2.22"/>
        </g>
        <g class="eyebrowDarkGray">
            <path d="M780.27,404.55C776,413,790.6,425.46,832.48,419.61c30.82-4.31,48.48,6.59,52.77-.33C838.51,386.54,811,416.09,780.27,404.55Z"/>
            <path d="M665.5,432.37A42.86,42.86,0,0,0,670.81,446c15-15.83,58.13-15.9,49.39-34.08C703.11,422.94,684.24,417.85,665.5,432.37Z"/>
        </g>
    </g>
</svg>
