<svg viewBox="0 0 289.76 367.05">
  <path class="hairBlondeDark" d="M94,78.22c31.33-.51,29.87,25-1.19,25.46C89.89,89.27,98.15,86.72,94,78.22Z"/>
  <g class="bennett">
    <path class="bennettJeans" d="M203.93,278.31c-1.2,4.39-8.9,5.65-3.93,10.84,1.15,1.47,1.13,5.65,4.36,5.76-2.43,2.14-1.21,6.82,2,6.56-1.88,4.18,1.58,8.32,5.38,7.11-.16,5.46,15.7,20.06,22,18.76-1.31,8,7.88,5.87,17.25,19l38.32-39.83c-15.29-10.85-10-18.17-17.34-16.93.45-3.6-1.5-5.59-4.21-7.07.91-3.2-1.09-1.84-1.5-3.59-.46-2,1.67-5.24-2.12-6.17,3.67-6.51-.43-8.37-4.4-9.22Z"/>
    <g class="eye">
      <path class="sclera" d="M80.93,71.38C40.12,85.61,25.5,88.06,77.12,60.73,80.15,63.09,81.45,67.3,80.93,71.38Z"/>
      <g class="irisDarkBrown">
        <ellipse cx="62.43" cy="72.55" rx="2.68" ry="3.47" transform="translate(-20.77 25.24) rotate(-19.67)"/>
        <ellipse cx="78.14" cy="65.87" rx="2.24" ry="3.47" transform="translate(-17.61 30.14) rotate(-19.67)"/>
      </g>
      <g class="pupil">
        <ellipse cx="62.91" cy="72.38" rx="1.04" ry="1.35" transform="translate(-20.69 25.39) rotate(-19.67)"/>
        <ellipse cx="78.57" cy="65.71" rx="0.88" ry="1.35" transform="translate(-17.53 30.27) rotate(-19.67)"/>
      </g>
    </g>
    <g class="skinEastAsian">
      <path d="M128.79,216.87c-6.64,5-18,9.75-24.79,21.72,3.82,6,4.84,17.22,17,23.37,24.48,12.34,54.82,14.85,83.88,17.41,3.05.27,4.67,2.27,6.74,3.82,18.93-5.68,32.33-14.52,38.16-25.7C237.38,225.18,128.79,216.87,128.79,216.87Z"/>
      <path d="M86.13,110.31,51.76,129.77c1-5.38-3.84-21.37-15.55-30.85Z"/>
      <path d="M39.93,100.39c-1.48,4.79-5.53,2.26-7.71,1.09-36.35-5.77,1.39-80.88,37.5-62C72.48,52.21,80,53.92,79.85,61.2c0,1.6,2.72,2.36.41,3.93-.13-.35-.29-.72-.47-1.1-1.71-.57-4.38,1.14-5.3,4.5,0,.61.75.2,1.14.18,2.39-.16,5.09-1,5-2.44,2.47,0,1.33,1.68,1.8,2.23a35.18,35.18,0,0,1,7,28.93c-1,4.36.69,7.76-5.09,10.87-6.47,3.49-10.56,2.89-19.2,3.11a37.19,37.19,0,0,1-17.43-4m18.49-35c-1.93-1.7-3.1-1.74-4.27-1.28-2.5,1-4.54,3.42-5.85,5,2.33.13,5.25.1,9.63-2.85C66,73,66.88,72.91,66.19,72.31Z"/>
    </g>
    <path class="bennettUnderwear" d="M226.6,283.32c7.07-15,5.46-19.58,5.66-21.26,5-3.09,10.57,1.87,22-3.1C253.74,280.48,240.6,284.11,226.6,283.32Z"/>
    <path class="bennettWaistband" d="M211.65,283.19c10.12-12.67,27.22-12.71,36.77-27.85,4.21-.73,4.86,3.82,3.47,8.79-2.9,4.85-9.92,10-19.62,16C223,284,215.72,285.65,211.65,283.19Z"/>
    <g class="bennettJeansInner">
      <path d="M248.42,255.34c4.84,1.14,1.76,15.42-3,23.74-3.7.5-10.88-1.28-19.95,1.57-4.24,1.33-7.53,3.23-13.85,2.54,6.58,3.16,13.88,11.49,20.59,17.21,2.23,1.9,6.41,4.07,8.07,6.59,3.8-1.43,2.85-5.94,4.53-9.94,1.36-3.24.59-8.05,2.45-10.12,2.09-2.32,2.16-5.35,1.76-8.26,6.34-.33,11.72-2.68,16.71,4.34-3.18-8.57-2-14.53-7.13-20.79C255.42,257.58,252.45,254.15,248.42,255.34Z"/>
      <path d="M204.91,279.37c-1.17,1.76-3.87,3.47-3,5.28,1.18,2.61,6.17-3.46,9.79-1.46C209.58,281.64,208,279.64,204.91,279.37Z"/>
    </g>
    <path class="shirtWhite" d="M128.79,216.87c-6.82,5.16-18.59,10-25.34,22.72-1.06-.84-2.82-2-3-4.49-1.23-2.88-4.9-3.21-4.52-6.48,1.06-5-6.37-4.75-5.71-9.87-4.66.06-4.38-5.86-7.7-8.69C-.88,110.82,134.41,62.67,128.79,216.87Z"/>
    <path class="bennettSleeves" d="M91.47,123.08c.17,7.39-12.72,16.09-22.78,13.57-2.19,5.66-5.52,9.6-7.62,13.68.13,2.3-1.68,2.53-2.41,3.55A5.05,5.05,0,0,1,59.6,160c1.58,1.32,2.22,2.65,1.09,4a23,23,0,0,1,3.89,9.19c1.43.89,3,3,2.23,4.64,1.49,2.13,2.44,5.2,3.22,8.54,1.93,1,1.28,2.53,3.22,2.66.84-1,2.76.45,6.81-.48,4.3-1,3.86,24.12-.54,24-8.64,1.66-16.84,2.54-21.9-1.79-6.59-5.65-7.51-16-11.82-24.09C37.46,171,31,155.57,42.42,138.66Z"/>
  </g>
  <path class="hairBlack" d="M50.56,46.8c2.64,5.14,4.27,7,7.17,9a10.56,10.56,0,0,1-1.55-4.53c4.8,9.07,14,4.15,18,5.57-.59-.87-2.67-2.05-4.15-2.72,2.81,1,5.47-1.22,10.24,1.5-3-3.58.15-12-10.5-16.88,1.56.24,4.11.69,6.26,0-9.27-2.42-14.06-13-36.38-8.18-8.37,1.82-22.22,7-26.82,16.21-.94-3.16-1.37-8.08.34-11.5-3.85,3.91-4.16,9.29-3.05,14-3.55-.77-7.94,2.58-7.56,6.49a5.69,5.69,0,0,1,6.61-3.31C2.26,66.55,7.89,95.14,30.24,105.26a5.15,5.15,0,0,0,2-3.16c-5.34-2.34-9.76-3.94-10.89-11.9-.81-5.78,8.55-10.24,11.42-3.53a25.34,25.34,0,0,0,6.06-3.49c-2.22-4.75-2.54-5.41.16-11.5,4.39-3.63,10-6.21,10.41-11.87.48,1.82-.49,3.78-.07,5.5C50.1,62.2,55.85,58.72,50.56,46.8Z"/>
  <g class="miriam">
    <path class="miriamPantyhose" d="M149.47,289.1c12.74.74,24.46,8.55,43.12,15.81,9,3.49,14.07,4,32.77,6.63,7.1,1,2.54,12.86,1.47,25.13-.52,5.94,2.3,14.25-.12,19.48s-6.61,10.64-9.08,10.65c-7.53,0-2.82-8-3.81-11.25-3.75-12.2-7.06-11.3-13.89-25.82-5.42-11.57-59.55-3.58-80.47-21.64-8.3-7.15-.11-41.29,6.57-64.58l91.39-30.86c9.23,7.15,22.3,25.53,33.83,42.6a4.11,4.11,0,0,0-2.82.19c-5.37-8.4-13.35-11.3-26.82-16.94-5-1.85-12-5.18-20.16-6.2-5.29-.66-11.34,1.85-16.49,4.28C169.67,244.23,162.37,263.83,149.47,289.1Z"/>
    <path class="miriamPantyhoseDense" d="M128,237.64c-1.79,1.48-.45,2.28-1.42,3.87a1.33,1.33,0,0,0-.53,2c26.38,8.29,40.58,2.06,58.93-6.93,14.7-7.2,28.32-16.64,32.46-23.93-.44-1.49-1.74-1-2.42-2.4,0-.67-.48-1.16-1.26-1.43l-21.16,19.75c-2.88,1.69-6.51,3.47-9.87,5.05Z"/>
    <g class="skinNordic">
      <path d="M128.55,65.15c-.19,9.57,6.34,19,19.16,27.4,25.84,22,2.49,76.05,52.21,97,11.07,4.95,15.58,13,13.82,19.23-7.89,7.19-13,20.46-27.33,20.81-6.73,8.38-15.81,13-28.66,11.42A57.24,57.24,0,0,1,128,237.64a30.81,30.81,0,0,1,.21-10.69c11.16-54.85-31-82.23-33.44-103.95-13.53,6.62-31.5,24.19-43.34,21.53-18.1-4.07-27-30.75-37.28-45.35-5.58-8.05-4.72-9.71-6.39-12.09C5.79,84.31.17,85,2.51,79.54.13,78,.25,75.73,1.43,73.5c-1.19-1.13-1.8-2.21-.27-5.4.84-1.76,2.47-2.4,4-3.79.6-2.76.67-4.51,1.63-6,1.25-1.88,3-2.08,5.09-3.9,2.31-1.06,4.08,3.53-.21,6.06-.34,2-.49,2.33-.68,3.6-.73,4.91,2.19,2.2,9.65,12,2.64,3.2,3.8,3,6.36-.74-2.24-4.95,2.26-9.23,3.36-6.32.49,3.39,3.28,4.2,2.16,7.33-1.4,3.88-.86,7-2.23,10.22-1.8,4.18-4,4.92-4.48,6.51,5,11.5,25,22.75,28.14,29.91,8.63-5.25,16.69-8.39,26.1-18,7.14-7.33,14.36-13.07,24.91-13.68,2-1.11,2.17-5.17,1.81-10"/>
      <path d="M109.37,81.66C103,84.14,100.65,85.32,97.26,85c-5.7-.53-6-4.15-7.79-7.12C83.49,68.06,80.06,61,82.93,50c.19-.74-.74-1.68-.06-2.33-1-1.09.07-4-.33-4.87-1.92-4.34-1.63-7-.67-12.36C81-21.52,157.6,31.84,109.37,81.66Z"/>
    </g>
    <path class="miriamDress" d="M147.71,92.55c7.3,2.28,12,15.91,15.57,34.69,1.91,2.87,3.73,10,4.56,16.45.34,2.06,2.92,4.29.86,6.17-.88,5.28,4.59,6,3.16,8.65,1.09,2.94,3.33,4.35,4,6.37,3.34,1.13,4.85,2.78,4.49,5,7.3.26,7.62,5.81,11.74,8,5.75.89,4.9,10.67,15.5,14.89-20.69-.56-44.9,26.35-61.4,29.35-8.28,1.5-16.55-.37-18,4.86-5.81-2.09-.17-6.95-.8-11-3.56-1.9-.2-4.94-.88-7.56-1.29-3-4.64-4.54-2.15-8-2.65-6.48-6.17-2.5-4.56-9.14-7.11-12-9.31-27-13.36-29.67C88.88,149.88,96.17,139.8,95.7,127.33c9.79,14.11,26.67,12.68,35.09,4-5.07-16.52-14.29-35.55-25.86-40-.64-.78.44-1.48,1.46-1.27,8.23,3,19.51,18,26.25,41.26,8.15,5.72,25.92,4.13,29.07-1.64C159.34,111.35,153.52,97.29,147.71,92.55Z"/>
  </g>
  <path class="hairBlonde" d="M164.34,92.72a10.55,10.55,0,0,0,7.72,2.56c-5.8-7.08-12.6-23.2-9.14-40.82,2.26-12.1-3.89-20.84-7.94-32C148.21,3.34,128-1.19,111,.61,96.57,2.85,93.16,6.8,85.83,9.21,77.44,12.84,76.77,25.26,81.3,34h0c.13-1.07.33-2.23.57-3.57.83-4.54,1.65-9.57,4.47-13.72a5.51,5.51,0,0,1,5.76,1.46C103.31,11,109,33,118.08,42.48c.68,17.6-4.42,24.9-8.71,39.18C104.7,97.9,118.3,114.4,105,128.88c10.36,4.45,25.07-3,26.92-20.88,1,16,16.38,23.82,29.92,23.88C152.33,119.45,172.91,116.09,164.34,92.72Z"/>
  <g class="clothesDisplayLine">
    <path d="M244.25,298.83c-8.22-3.25-10.06-6.29-16.57-10-5.18-2.94-6,0-11.12-2.54"/>
    <path d="M257.57,278.06c.94-7.14-.48-6.42-.59-10.19-.16-5.33-2.84-6.19-2.76-8.3a7.15,7.15,0,0,0-.51-3.07"/>
  </g>
  <g class="clothesOverlapLine">
    <path d="M248,285.94a5.67,5.67,0,0,1,1.84,5.64c2.13-.05,3,3.35,1.7,5.51,2.15.21,3,4.16.87,6.21,3.19.62,5.75,1.9,6,4.79,3.52,5.23,8.65,10.47,14.49,15.71"/>
    <path d="M245.45,279.08c1.12,0,2.19-.35,3.6-.41"/>
    <path d="M149.47,289.1c-3.88-.06-11.58,1.45-16.18,5.68"/>
  </g>
  <g class="clothesFoldLine">
    <path d="M168.7,149.86c-4.5,2.62-10.44,4.49-17.78,5.63"/>
    <path d="M171.86,158.51c-1.56,1.3-4.22,2.07-7.48,2.85"/>
    <path d="M174.1,165.3c-4,.46-9.92.29-16.09,2.9"/>
    <path d="M180.37,169.85c-6.15-.95-13.72.71-21.63,3"/>
    <path d="M189.62,177.66c-3.16.11-12.54-.15-27.28,4.76"/>
    <path d="M180.47,174.85c-7.34-2.5-16.47-.81-26.54,3.08"/>
    <path d="M165.37,157.24c-2.54,1.31-6.58,2.22-9.2,3.46"/>
    <path d="M167.05,146.5c-6.05,4.5-21.33,6-32.16,7.26"/>
    <path d="M129.32,160.54a63.12,63.12,0,0,0,6.46-.71"/>
    <path d="M117,160a56.88,56.88,0,0,0,6,.59"/>
    <path d="M112.67,162.06a28.59,28.59,0,0,0,8.62,1.32"/>
    <path d="M124.36,200.4c30.73-24.48,47.5-9.54,61.57-15.05"/>
    <path d="M192.5,182.59c-8.38-2.51-15.74-.14-22.87.9"/>
    <path d="M122.59,195c.9-1.19,3-2.36,5.5-3.53"/>
    <path d="M127.89,203.61c6.8-5.83,17.76-11,27.73-11"/>
    <path d="M183.4,192.53c-12,.2-30.73,4.78-39.53,9.37"/>
    <path d="M196.52,192.75c-14.2,3.24-24.46,15.3-34.34,18.07"/>
    <path d="M158.71,214.8c-21.89,9.37-29.75,2.81-32.65,6.76"/>
    <path d="M167.42,203.42c-6.2,2.14-11.41,5.67-16.73,8.37"/>
    <path d="M127.39,216c2.11-4.72,9.28-6.59,16.07-7.09"/>
    <path d="M135.07,207.08c-3.5.82-6.35,2.16-7.9,4.57"/>
    <path d="M191.45,191.07c-8.19,5.88-22.76,5.45-33.34,12.3"/>
    <path d="M215,210.25c-1.53,2.6-6.3,7.22-9.3,9.61"/>
    <path d="M126.56,241.51c4.55,2,12.64,3.6,18.58,3.79"/>
    <path d="M129.45,240.5c6.6,2.66,20.49,4.06,27.43,2.53"/>
    <path d="M100.48,235.1c7.57-12.32,15.16-18.85,11.69-17.71-4.6,1.53-8.76,7.15-13.1,13"/>
    <path d="M99.53,213a17.48,17.48,0,0,0-9.28,5.74"/>
    <path d="M122.27,197.14a80.21,80.21,0,0,0-13.5,7.23"/>
    <path d="M124.8,205.77c-10.72,3.44-17.21,11-20.37,10.59-2.28-.33,4.33-7.06,13.73-11.36"/>
    <path d="M126.11,207.65c-5.89,5-12.16,10.22-11,12.9.93,2,5.37-4.57,10.58-6.8"/>
    <path d="M69.84,204.32c-1.36-5.32.45-10.35,3.41-15.26-11,2.53-6.59,19.95-10.67,19.44-5.68-.7-.77-15.81,6.81-18.91"/>
    <path d="M54.08,199.28c3-.62,5.36-5,9.53-7.78"/>
    <path d="M58.27,202.55c1.29-3.78,1.08-5.06-2.34-1"/>
    <path d="M53.51,195.22a11.11,11.11,0,0,0,6.79-.92"/>
    <path d="M72.21,188.65c-7-3.27-13.56,6.2-20.42,3.55"/>
    <path d="M50,183.88c3.41,2.13,9.46,2.85,15.74,3.45"/>
    <path d="M70,186.4a49.79,49.79,0,0,0-11.49-2.8"/>
    <path d="M54.12,170.45c5.3,1.71,9.89,3.93,12.69,7.41"/>
    <path d="M64.58,173.22c-5-4.21-10.94-5.95-17.62-5.77"/>
    <path d="M46.36,157.15c5.41,2.82,10.48,2.59,14.33,6.88"/>
    <path d="M59.6,160c-5.58-3.93-12-5.73-18.4-7.44"/>
    <path d="M43.82,148.41a20.11,20.11,0,0,1,14.51,8.76"/>
    <path d="M57.75,148.25c.94,2.08,1.45,4,.91,5.63-1.38-2.5-4.19-4.74-7.46-6.9"/>
    <path d="M60.18,145.53c1,4.11,1.65,8.15,0,11.61"/>
    <path d="M61.3,158.94c2.38-3.78,3.59-8.65,4-14.29"/>
    <path d="M60.83,161.35c5.2-4,8.29-11.51,13.63-16.85"/>
    <path d="M61.13,163.3c3.3-1.87,6.43-6.51,9.79-8.72"/>
    <path d="M63.42,169.13a17,17,0,0,0,8.45-1.36"/>
    <path d="M64.16,171.4c10.5,1.34,21.53-2.85,32.8-9.62"/>
    <path d="M69,182.73a38.42,38.42,0,0,0,12.29-4.15"/>
    <path d="M69.66,184.91a16.7,16.7,0,0,0,7-1.9"/>
    <path d="M85.77,143.45a42.72,42.72,0,0,0,7.69-4.77"/>
    <path d="M87.84,163.59c4.32-2.32,9-4.42,12.34-7.09"/>
    <path d="M111.55,171.71a91.72,91.72,0,0,1-17.19,9.93"/>
    <path d="M112.57,174.65c-3.11,2.56-5.64,5.22-6.48,8.67"/>
    <path d="M91.11,186.34c8.43-4.06,18.69-11.27,10.62-3"/>
    <path d="M278.35,304.05c-4.41-.64-7.69,2.19-10,7.93"/>
    <path d="M272,289.6c-1.57,3.13-2.92,5.89.75,8.77"/>
    <path d="M267.82,282.53c-.72,5.21-9.93,8.2-8.13,12.43.71,1.67,2.66-.63,4.49-3.24"/>
    <path d="M261.51,282.72a33.82,33.82,0,0,1-8.94,7.84"/>
    <path d="M260.1,278.51c-2.54,4.23-5.84,7.61-10.54,9.44"/>
    <path d="M251.11,283.16a15.2,15.2,0,0,0,5.83-5.13"/>
    <path d="M264.08,304c1.93-7.41-4.91.7-9,.09"/>
    <path d="M258.49,308.09c-.14,4.26-3.05,6.51.81,10.66"/>
    <path d="M265,328.88c-8.43-7.24-21.28-9.26-20.67,1.05"/>
    <path d="M233.8,327.34c2.46.3,4.76.69,3.25,3.25"/>
    <path d="M229,321.46c6.39-2.95,14.62-3.28,7.53,2.69"/>
    <path d="M252.45,303.3c-5.39,3-12.16,15.47-2.63,7.79"/>
    <path d="M229.62,312.64c2.12-2.61,4.67-4.89,6.41-4.76,2.66.2-1,4.87-6.83,8.42"/>
    <path d="M217.6,310.45c4.64-3.47,8.86-3.46,5,.7"/>
    <path d="M249.88,291.58a4.4,4.4,0,0,1-2.47,2.06"/>
    <path d="M249,296.61c-1,1.66-3.6,2.67-5.12,4.09"/>
    <path d="M251.58,297.09a15.78,15.78,0,0,1-3.89,4.45"/>
    <path d="M200,289.15c3.9,2.16,7.72,2.15,11.53,1.54"/>
    <path d="M204.36,294.91c4.12-.16,7.54-1.53,11.72-3.21"/>
    <path d="M206.38,301.47c4-.31,11.23-3.27,16.21-5.83"/>
    <path d="M211.76,308.58a18,18,0,0,0,6.23-2.81"/>
    <path d="M232.24,300.4c.77,3.11-5.09,5.46-2.12,6.58"/>
    <path d="M223.09,292A42.86,42.86,0,0,1,210,297.22"/>
    <path d="M227.44,296.05c-6.85,5.15-18.39,7.38-17.5,9.14.7,1.39,3.59-1.34,6.29-2.63"/>
    <path d="M240.6,284.11c-3.8.23-3.64,4,.68,6.64"/>
    <path d="M232.31,283.05c2-.09,4.79,4.08,1.62,5.91"/>
    <path d="M238.07,263.43a15.46,15.46,0,0,0-3.81,2.68"/>
    <path d="M249.09,270.51a24.3,24.3,0,0,1-5.66,4.95"/>
    <path d="M255.22,268c-2.16-4.51-2.2,5.79-4.37,7.48"/>
    <path d="M224,278.67c5-3.64-3.52-.8-7.54,3.85"/>
    <path d="M201.86,284.65c2,4.27,7.41,2.29,12.38,3.15"/>
  </g>
  <path class="clothesEdgeLine" d="M225.23,315.69c-2.7.11-6.29,18.17-2.64,34.66,1.65,7.46-5.44,12.57-5,15"/>
  <g class="skinEastAsian">
    <path d="M121.41,191.56c-12.31,3-25,17.23-42.26,20.49-4.32-.23-5.08-21.83.68-22.8,7.48-1.25,21.17-1.83,34.1-10.06,2.7-2.28,1.61-6.44,3.78-10.23,2.81-4.94,6.24-7.84,6.31-12.68,1.23-3.44,8.29,0,4.07,9,2.26-1,4.12,0,8.31-2.72a44.85,44.85,0,0,1,7.67-3.65c2.22-1.1,5,2.94,2.37,4.28,1.25-.43,3-1.07,3.95-.75,1.27.42,3.09,3.54,1,5,.87,0,2.16,1.87,1.72,3.73-.19.77-1.81,2.09-2.35,2.59.88,1.37,1.76,4.72-2.27,8.95-1.65,1.71-5.89.66-7.87,2.65C132.27,193.72,124.28,190.52,121.41,191.56ZM140.69,180c2.88-1.16,4.91.18,6.87-4A75.43,75.43,0,0,1,140.69,180Z"/>
    <path d="M192.11,177.85c-5.68.56-6.19-4.82-3.91-5.37,2.54.52,4.82-1.78,7.47.16-.21-2.9,2.28-2.47,4.79-3.87,2.83-1.54,5.56.46,5.49,3.66-.06,2.39-2.62,3.41-3,5.25.44.43,3.08-.87,4.07,2.18.48,1.48.27,2.11-1.48,4-.79.81-.57,2.25.82,1.63,2.84-1.17,4.64,3.71,2.5,5.26,1.66.17,2.64,5.17-1.25,6.54-2.35.64-3.4.3-6,.89-3,.25-2.71-3.31-1.62-3.83-3.7,0-4-4.19,1.27-5.93A17.33,17.33,0,0,1,200,187c-4.13,2.5-7.08-1.16-3-4.68C195.51,179.65,194.13,178.14,192.11,177.85Z"/>
  </g>
  <g class="skinOverlapLine">
    <path d="M195.67,172.64c.61,2.33,4.35,2.94,6.55,1.26"/>
    <path d="M197,182.34a20,20,0,0,1,4.87-2.81"/>
    <path d="M200,187c1.66-1.11,3.37-1.25,5.48-3.15"/>
    <path d="M208.81,190.76c-3.59,2.73-6.6,2.74-8.87,3.6"/>
    <path d="M205.7,186.25c-.33.6-2.25,1.16-4.49,2.18"/>
    <path d="M192.11,177.85c1.2-.21,1.94-.55,2-1.1"/>
    <path d="M197.11,177.1a5.65,5.65,0,0,1,1.16-2.34"/>
    <path d="M137,168.54c3.55-1.8,6.84-4.33,9.48-5.33"/>
    <path d="M139.37,174.3c5-2.7,7.77-5.47,12-6.84"/>
    <path d="M147.56,176a18.34,18.34,0,0,0,3.16-2.19"/>
    <path d="M124.22,167.33a16.93,16.93,0,0,1,3.87-2"/>
    <path d="M186.41,229.63a30.4,30.4,0,0,0,.46-30.58"/>
    <path d="M94.75,123a14.51,14.51,0,0,1,5.54-1.25"/>
    <path d="M2.51,79.54a34.16,34.16,0,0,1,5.67,4.18"/>
    <path d="M1.43,73.5c1.28,1.14,4.48,2.3,7.75,5.87"/>
    <path d="M5.13,64.31c-.47,2.32-.61,3.6.16,4.78.93,1.44,3,2,6,5.62"/>
    <path d="M232.26,262.06c-6.36-9.55-29.13-17.3-49.7-24.12"/>
  </g>
  <g class="skinFoldLine">
    <path d="M194.94,179.38a4.25,4.25,0,0,0,.83-2.24"/>
    <path d="M32.34,89.46a11,11,0,0,0-2.14-2.24"/>
    <path d="M32.83,92.26c-1.1,2.12,3.71,2.85,2.27,4.73-1.31,1.72-2.08-2-4.5-1.8-4.38.27-3-6-.81-4.55"/>
  </g>
  <path class="skinCreaseLine" d="M150.77,130.13c.39,1.57.69,3,.9,4.34"/>
  <g class="skinEdgeLine">
    <path d="M141.52,161.22a5.34,5.34,0,0,1,1.57,2.58"/>
    <path d="M145.28,165.34a5.65,5.65,0,0,1,1.9,2.84"/>
    <path d="M147.58,171.09a4.37,4.37,0,0,1,1.3,2.73"/>
    <path d="M146.77,179.6a3.68,3.68,0,0,1,.75,2.51"/>
  </g>
  <path class="lipMaleMedium__noStroke" d="M83.9,98c3.64-5,.92-6.82.07-7.46-2.44-1.52-.12-5.33-2.56-4.62-1,1.3-1.65,2.4-4.3,2.18-1.67,1.5-2.64,6.07-3.08,8.44C74,99.52,81.72,101,83.9,98Z"/>
  <path class="mouthInner" d="M83.66,90.57a5.16,5.16,0,0,1-2.81-1.8,2.33,2.33,0,0,1-2.64,1.1c-1.32-.09-4.42,6.28-4.18,6.71C78.33,98,84.35,95.68,83.66,90.57Z"/>
  <path class="tongue" d="M75.6,92.92A11.8,11.8,0,0,0,74,96.58a8.36,8.36,0,0,0,1.22.3c1.59-.16,4.09-1.13,7.45-3.43a3.33,3.33,0,0,0-2-2.5A16.44,16.44,0,0,0,75.6,92.92Z"/>
  <g class="eyebrowBlack">
    <path d="M64.74,61.26c-1.43,5.51-10.6,5.6-14.1,11.58C52.43,64.76,58.78,65.57,64.74,61.26Z"/>
    <path d="M79.32,58.22c-2.61-.39-4.12.82-7.21.46,2.27,2.63,4.2,1.33,7.68,1.42A7.62,7.62,0,0,0,79.32,58.22Z"/>
  </g>
  <path class="lipFemaleLight__noStroke" d="M92.08,69.64c-2.47,1.5-1.51,3.65-.6,4.43,2.35,2,10.2-.31,11.15-5.62Z"/>
  <path class="lipFemaleLight" d="M92.08,69.64c-2.09-.4-3.82-1.48-3.29-2.28s2.59.5,5.78-.65c2.32-.84,5.8,2.22,9.64,1.32l-1.58.42Z"/>
  <g class="eyebrowBlonde">
    <path d="M94.27,38c3.21,4.05,10.77-2,18,3.36C105.94,34.09,98.88,38.33,94.27,38Z"/>
    <path d="M81.37,39.18A13.86,13.86,0,0,0,81.86,41c1.79-.37,3.2-.95,4-2.32A15.18,15.18,0,0,1,81.37,39.18Z"/>
  </g>
  <g class="teeth">
    <path d="M80.85,88.77a2.33,2.33,0,0,1-2.64,1.1c-.76-.05-2.12,2-3.08,3.92a11.58,11.58,0,0,0,7.38-3.65A6.22,6.22,0,0,1,80.85,88.77Z"/>
    <path d="M83,90.69c.58,3.34-5,5.65-8.79,5.24a1.22,1.22,0,0,0-.14.65c4,1.33,9.55-.62,9.68-5A3.11,3.11,0,0,0,83,90.69Z"/>
    <path d="M91.88,68.38a3.08,3.08,0,0,0,.81,2.23c2.84,1,6-1.69,9.94-2.16-3.5.34-6.13-.84-7.67-.4A6.78,6.78,0,0,1,91.88,68.38Z"/>
  </g>
  <g class="lipOverlapLine">
    <path d="M80.85,88.77a2.92,2.92,0,0,0,.31-.61"/>
    <path d="M83.66,90.57a2.94,2.94,0,0,0,.64.05"/>
    <path d="M91.88,68.38A4.29,4.29,0,0,1,90.41,68"/>
  </g>
  <g class="lipEdgeLine">
    <path d="M81.41,86c-1,1.3-1.65,2.4-4.3,2.18"/>
    <path d="M85.55,93.14c.69,5.68-5.85,7.82-9.26,5.9"/>
    <path d="M92.08,69.64c-2.47,1.5-1.51,3.65-.6,4.43,1.9,1.62,7.41.41,9.94-2.92"/>
  </g>
  <g class="cheekLine">
    <path d="M81.75,82.05a7.31,7.31,0,0,1,2.41,2.52"/>
    <path d="M71.14,82.84c-.91,2.24-2.76,4.46-2.72,10.51"/>
    <path d="M101.78,62.31c-1.35-1-2.65-3.9-3.87-4.42"/>
  </g>
  <g class="noseLine">
    <path d="M71.14,82.84c-.59,1.42-.28,3.42,1.89,3.68"/>
    <path d="M74.72,85.45c1.91-1.93,5.4-.58,7-3.4,1.45-2.48-2.43-5.13-4.29-7.22"/>
    <path d="M97.91,57.89c1.87,2,.34,3.74-.81,4-1.6.3-2.4-.94-4.41-.21"/>
    <path d="M89.88,45.32c2.05,6.43-4,12.62-2.88,15.09,1.27,2.66,3.82,2.49,6.2,1.85"/>
  </g>
  <g class="eyeFoldLine">
    <path d="M81.62,68.11a6.39,6.39,0,0,1-5.44,2.56"/>
    <path d="M65.56,75.47a9.41,9.41,0,0,1-6.15,2.25"/>
    <path d="M105.45,48c-1.7,1.27-5.19,1.12-6.9.06"/>
    <path d="M86.85,48.81c-1,1.13-3,1-3.94.6"/>
  </g>
  <g class="eyeCornerLine">
    <path d="M54.09,78.07c.6-.51,1.15-1.33,2-2"/>
    <path d="M79.79,64a2,2,0,0,1,.85.38"/>
  </g>
  <path class="eyeCreaseLine" d="M56.2,73.68c2.41-3.14,5.95-5,8.36-3.61"/>
  <g class="eyeLashLine">
    <path d="M96.91,46c1,0,1.51.56,4.44.55,2.36,0,4-1,7.59-1.11"/>
    <path d="M88.26,46.83c-1.82.3-2.65,1-5.39.81"/>
  </g>
  <g class="hairOverlapLine">
    <path d="M81.09,21c1.54-2.5,3.28-4,5.25-4.35"/>
    <path d="M118.08,42.48a44.69,44.69,0,0,0,13.5,10.45"/>
    <path d="M39,71.68a15.85,15.85,0,0,1-4.62,2.69A24.25,24.25,0,0,0,37,69.86"/>
  </g>
  <g class="hairEdgeLine">
    <path d="M92,11c-1.06-1.9-4.13-2.26-6.14-1.76"/>
    <path d="M94.91,11.32c21.38-7.69,23.65,20.55,33.63,29.31"/>
  </g>
</svg>
