<svg id="presence" xmlns="http://www.w3.org/2000/svg" viewBox="0 0 1469.35 824.46">
  <defs>
    <style>
      .cls-1 {
        fill: #86cca7;
      }

      .cls-1, .cls-2, .cls-3, .cls-4, .cls-5, .cls-6 {
        stroke: #000;
        stroke-miterlimit: 10;
        stroke-width: 2px;
      }

      .cls-2 {
        fill: #99e8be;
      }

      .cls-3 {
        fill: #8fd9b2;
      }

      .cls-4 {
        fill: #95afc9;
      }

      .cls-5 {
        fill: #88a0b8;
      }

      .cls-6 {
        fill: none;
      }
    </style>
  </defs>
  <title>caress</title>
  <g id="phone">
    <path id="phoneDark" class="cls-1" d="M628.14,250.58C619,267.43,573,285.35,554.27,286.83c-15.28,2-50-.15-58,18.55l50.26-50.09C572.82,222.56,599.66,227.34,628.14,250.58Z"/>
    <path id="phoneLight" class="cls-2" d="M397.78,321.12c-2.94-15.23,11.23-42.62,27.43-60.06,23-26.18,54.54-44.91,92.4-55.26,32.51-8.9,68.5-8.68,95.09,5,7.4,4.84,17.15,25.85,15.44,39.76-43.31-22-96.89-10.84-143.31,9.39Z"/>
    <path id="phoneMedium" class="cls-3" d="M480.6,260.55c28.53-32.44,95.48-51.55,132.1-49.73q16.17,15.62,15.44,39.76c-32.84.71-64.41,2.76-82.35,14.72-1.56,1.51,4.11,6,2.55,8.54-4.89,6.35-28.14,20.29-37.46,23.41Z"/>
    <path id="phoneDark-2" data-name="phoneDark" class="cls-1" d="M510.88,297.25c-5.58,10.08-78.4,62.57-91.54,56.31-7.38-4.32-22.84-25.06-21.56-32.44,3.74-13,69.87-59.91,85.23-62.6C491.52,265.6,505.85,285.2,510.88,297.25Z"/>
    <path id="antennaLight" class="cls-4" d="M480.36,306.8c13.89-9.76-.07-29.63-14-19.87l-16.17,11.36c-13.89,9.76.07,29.63,14,19.87Z"/>
    <path id="antennaMedium" class="cls-5" d="M471.22,310.31c9.74-6.84-.05-20.78-9.79-13.94l-11.34,8c-9.74,6.84.05,20.78,9.79,13.94Z"/>
  </g>
  <g id="skinBlack">
    <path class="cls-6" d="M274.58,367.68c-50.86-2.26-112.47,2.29-159.37,6.8C83.46,379,37.52,364.84,50.43,400c-21,0-29.93,7.38-28.22,26.09C5.19,425-1,446.51,10.3,453.31c-10.21,4-15.88,31.76,4,35.17C.09,525.34,38.43,524.26,68.14,529.31c56.72,9.64,99.25-9.08,149.16-15.88,30.78-4.2,69.19-9.87,110-22.12Z"/>
    <path class="cls-6" d="M961.17,709.1c30.42,72.79,88.69,114.36,137.58,114.36,44.25,0,71.79-53.06,89.24-121.52,74.47-6.23,113.1-45.24,142.39-71.15,112.25-99.3,68.6-291.28-43.65-323.66,21.08-68.81-20-119.79-75-156.48C1155.33,87,1049.94,26.18,981.5,1.19L710.38,362.26Z"/>
    <path class="cls-6" d="M1379.35,397.43a215.6,215.6,0,0,1,10.06,130.81c33.29,4.55,60.4.92,70.83-20.75C1487.09,451.73,1444,409.46,1379.35,397.43Z"/>
  </g>
  <g id="skinIndian">
    <path class="cls-6" d="M1120.15,246.23c-22.39,86.06,18.63,237.39-45.07,350.64-31.94,56.78-80.86,76.65-141.83,138.77C894.82,774.8,854,811.29,799.19,816.9c-49.65,5.07-106.13-35.67-160.47-44.17L395.52,633.92c-47.52-38-52.27-72.07-88.7-122.76-32-44.56-56.82-86.32-49.69-136.22,6-41.82,30.12-64.62,56.06-97.24C345.87,236.6,387.51,168,435.91,154.77c29.68-8.09,58.46-.19,87.91,23L952.28,482.65c24.55-83.95,69.7-145.72,82.37-266.1"/>
    <path class="cls-6" d="M411.78,685.5C349.59,663,305.67,587.07,305.67,509.56,374.07,550.56,409.79,609,411.78,685.5Z"/>
  </g>
  <g id="skinDisplayLine">
    <path class="cls-6" d="M49.28,490.34a41.44,41.44,0,0,1-1.42,23"/>
    <path class="cls-6" d="M22.28,461.38a22.32,22.32,0,0,1-1.94,17.44"/>
    <path class="cls-6" d="M23.44,432.68c1.16,4.66.77,8.53-1.16,13.57"/>
  </g>
  <g id="skinOverlapLine">
    <path class="cls-6" d="M50.43,400c9-1.15,20.46.94,33-.33"/>
    <path class="cls-6" d="M22.21,426.09c18.14-3.24,33,.89,54.14.07"/>
    <path class="cls-6" d="M10.3,453.31c18.47,1.81,43.71-2.32,69-3.57"/>
    <path class="cls-6" d="M14.27,488.48c17.91,5.61,49.26-3.15,76.57-4"/>
    <path class="cls-6" d="M1211.74,150.65c81.22,85.07,78.06,214.49,97.53,249.74"/>
    <path class="cls-6" d="M1260.88,389c-30.46,46.1-51.6,231.5-72.89,313"/>
    <path class="cls-6" d="M1143.74,684.63c-14-36.26-41-62.28-75.69-76.24"/>
  </g>
  <g id="skinOverlapLine-2" data-name="skinOverlapLine">
    <path class="cls-6" d="M1016.51,545.66c-26.37-22.07-59.38-24.49-80.19-6.12"/>
    <path class="cls-6" d="M832.86,663.2c21.43-21.43,17.14-38,42.85-61.22"/>
    <path class="cls-6" d="M393.58,203c-23.3,41.33-.43,58.48,5.59,102.43"/>
    <path class="cls-6" d="M416.45,380.6c5-9.44,7.16-21.08,13.34-28.16"/>
  </g>
</svg>
