<svg viewBox="0 0 1469.35 1012.63">
    <g class="skinBlack">
        <path d="M961.17,897.28c30.42,72.79,88.69,114.35,137.58,114.35,44.25,0,71.79-53.06,89.24-121.51,74.47-6.24,113.1-45.24,142.39-71.16,112.25-99.29,68.6-291.28-43.65-323.66,21.08-68.8-20-119.78-75-156.48-56.41-63.62-161.8-124.46-230.24-149.45L710.38,550.44Z"/>
        <path d="M1379.35,585.61c16.26,39.43,21.74,86.29,11.06,130.8,33.29,4.55,59.4.93,69.83-20.75C1487.09,639.91,1444,597.64,1379.35,585.61Z"/>
        <path d="M258.84,555.37c-47.44-.85-101.47,3.23-143.63,7.29C83.46,567.2,37.52,553,50.43,588.18c-21,0-29.93,7.37-28.22,26.09C5.19,613.13-1,634.68,10.3,641.49c-10.21,4-15.88,31.76,4,35.16C.09,713.52,38.43,712.43,68.14,717.49c56.72,9.64,99.25-9.08,149.16-15.88,23.33-3.19,51-7.22,80.87-14.32C270.57,648.59,247.19,611.08,258.84,555.37Z"/>
    </g>
    <g class="phone">
        <path class="phoneDark" d="M628.14,438.76C619,455.6,573,473.52,554.27,475c-15.28,2-50-.14-58,18.56l50.26-50.09C572.82,410.73,599.66,415.52,628.14,438.76Z"/>
        <path class="phoneLight" d="M397.78,509.3c-2.94-15.23,11.23-42.63,27.43-60.07,23-26.17,54.54-44.9,92.4-55.26,32.51-8.89,68.5-8.68,95.09,5,7.4,4.83,17.15,25.85,15.44,39.76-43.31-22-96.89-10.84-143.31,9.39Z"/>
        <path class="phoneMedium" d="M480.6,448.73c28.53-32.45,95.48-51.56,132.1-49.73q16.17,15.62,15.44,39.76c-32.84.71-64.41,2.75-82.35,14.72-1.56,1.5,4.11,6,2.55,8.53-4.89,6.36-28.14,20.3-37.46,23.42Z"/>
        <path class="phoneDark" d="M510.88,485.43c-5.58,10.07-78.4,62.57-91.54,56.3-7.38-4.32-22.84-25.05-21.56-32.43,3.74-13,69.87-59.92,85.23-62.61C491.52,453.78,505.85,473.37,510.88,485.43Z"/>
        <path class="antennaLight" d="M480.36,495c13.89-9.76-.07-29.63-14-19.88l-16.17,11.36c-13.89,9.76.07,29.64,14,19.88Z"/>
        <path class="antennaMedium" d="M471.22,498.49c9.74-6.85-.05-20.78-9.79-13.94l-11.34,8c-9.74,6.84.05,20.78,9.79,13.93Z"/>
    </g>
    <g class="skinIndian">
        <path d="M952.28,670.83c33-80.59,92.69-130.4,105.36-250.78-21.65-17.45-22.5-43.16-35-64.28-19.08-32.38-13.87-45.67-25.44-64.17-3.46-24.29,38.16-17.93,49.3,25.12,11.81-26.5,17.22-55.18,18.37-85.3,7.87-13.18,22.22-13.88,33.77-4.77,9.36,7.37,5.26,29.76,5.52,45.87,6.74-16.81,6.79-27.36,19.34-30.47,8.47-2.09,28.71,7,27.31,24.86,16.22-6.89,42.17,6.26,27.82,36.61,28-10,40.86,31.61,25.8,40-30.81,19.7-16.28,73.67-59.07,93.9-24.28,91.35-6.63,234.35-70.33,347.6-31.94,56.79-80.86,76.66-141.83,138.78C894.82,963,854,999.47,799.19,1005.07c-49.65,5.08-106.13-35.66-160.47-44.16L395.52,822.1c-47.52-38-52.27-72.07-88.7-122.76-32-44.56-62.71-85-46.64-149.85,10.16-41,27.07-51,53-83.62,32.68-41.1,74.32-109.73,122.72-122.92,25.67-7,50.67-2,76,14.41,5.41-2.12,13.18,1.66,22.53,9.36,15.09-10.42,22.53-6.18,33.74,4.82,13.88-4.9,19.65,6.81,27.26,23.37,7.52,16.39,5.34,26.28-4.53,27.65,1.59,7.63-8.69,10.21-14,9.72,3.56,11.85-16.39,22.83-31.33,7.71-22.38,10.32-44.65-8-42.42-29.4-11.95,4.39-22.29-1.39-27.43-.4a171.75,171.75,0,0,0-50.47,39c-16.2,17.44-30.37,44.84-27.43,60.07-1.28,7.38,14.18,28.11,21.56,32.43,13.14,6.27,86-46.23,91.54-56.3,3.87-1.3,10.14-4.45,16.49-8.16,10.12-1.32,20.32-1.42,26.9-2.27,18.74-1.48,64.73-19.4,73.87-36.24Z"/>
        <path d="M411.78,873.68c-62.19-22.54-106.11-98.43-106.11-175.95C374.07,738.73,409.79,797.2,411.78,873.68Z"/>
    </g>
    <path class="skinBlack" d="M954.93,662.1c-1.95-11.6-17.28-16.14-18.43-26-3.61-31.15-20.76-23.93-32-32.5-14.9-4.07-12.64-23.93-40.63-23.48-51.47,0-71.78,19.41-102,36.57-13.55,20.77,18.51,38.82,51.92,10.74,9.48-4.87,22.12-7.13,38.37-8.48-40.63,19-52.37,44.24-73.59,65-13.54,23.47,24.38,43.34,55.53.45,19.87-10.39,42-38.83,77.65-29.8-29.55,17-57.72,42.28-85.32,70.88-14.9,19,10.83,38.83,24.83,30.7,20.65-15.21,46.43-32.1,70.88-56.43-14,25.23-18.15,36.34-32.39,48.83-20,11.47-36.45,29.17-14,41.59,18.94-22.52,49.4-44.91,60.61-62.45C940.51,701.89,946.26,690.94,954.93,662.1Z"/>
    <g class="skinDisplayLine">
        <path d="M49.28,678.52a41.4,41.4,0,0,1-1.42,23"/>
        <path d="M22.28,649.55A22.35,22.35,0,0,1,20.34,667"/>
        <path d="M23.44,620.86c1.16,4.65.77,8.53-1.16,13.57"/>
    </g>
    <g class="skinOverlapLine">
        <path d="M1016.51,733.84c-26.37-22.07-59.38-24.49-80.19-6.13"/>
        <path d="M832.86,851.37c21.43-21.42,17.14-38,42.85-61.21"/>
        <path d="M393.58,391.13c-23.3,41.33-.43,58.48,5.59,102.43"/>
        <path d="M416.45,568.77c5-9.43,7.16-21.07,13.34-28.16"/>
        <path d="M1046.55,316.72c-3.87,8.66-9.83,19.16-7,29"/>
        <path d="M1150.86,266.91c-1,8.4-4.55,20.66-7,27.31"/>
        <path d="M1180.12,318.18c-3.25,1.45-5.77,4.48-7.7,8.75-.7-6.3-1.1-14.2,6.26-23.41"/>
        <path d="M422,394c27.41-5.11,35.76-35.7,83.61-18.54,15,5.37,30.1,13.24,31.52,25.27,2.87,24.4,18.21,30.44,8.41,39.31"/>
        <path d="M511.91,357.36c-11.29,4-19.86,8.45-26.54,13.18"/>
        <path d="M534.44,366.72c35.29,16.08,27.86,41.17,42.42,65.56"/>
        <path d="M568.18,371.54c15.41,14.83,18,39,22.73,51"/>
        <path d="M50.43,588.18c9-1.16,20.46.94,33-.33"/>
        <path d="M22.21,614.27c18.14-3.25,33,.89,54.14.06"/>
        <path d="M10.3,641.49c18.47,1.81,43.71-2.33,69-3.57"/>
        <path d="M14.27,676.65c17.91,5.62,49.26-3.14,76.57-4"/>
        <path d="M1211.74,338.82c81.22,85.07,78.06,214.49,97.53,249.74"/>
        <path d="M1260.88,577.16c-30.46,46.1-51.6,231.5-72.89,313"/>
        <path d="M1143.74,872.81c-14-36.26-41-62.28-75.69-76.25"/>
        <path d="M891.12,609.43c-14.34-1.39-26.4,3.84-39,9.5"/>
        <path d="M941.51,682.38c-6.24,1.92-13.72,12.49-19.45,17.36"/>
    </g>
    <g class="head53">
        <g class="skinBlack">
            <path d="M1053.52,265.62c38.13-9.66,11,76.59-32.22,107.79C1036.47,339.65,1048.11,302.93,1053.52,265.62Z"/>
            <path d="M735.85,556.22C699,579,672.05,570,665.08,527.45A253,253,0,0,0,735.85,556.22Z"/>
            <path d="M912,519.4C791.9,624.07,562.8,526.55,562.66,361.17,628.57,215.65,977.93,373.88,912,519.4Z"/>
        </g>
        <path class="hairBlack" d="M912,519.4c71-49.29,167.65-210.16,140-349.43C1028.69,52.78,865.79-41.66,734.11,21c-102,48.51-170.72,184.19-171.45,340.22a51.35,51.35,0,0,1,14.18-13c13.24,193,185.69,250.75,333.61,143.29C913.75,499,914.3,508.26,912,519.4Z"/>
    </g>
</svg>
