<svg viewBox="0 0 1471.28 1050.05">
  <g class="skinBlack">
    <path d="M1379.35,745l-103.43,125.4c29.7-11.62,154.16,35.16,184.32-15.34C1492,801.9,1444,757,1379.35,745Z"/>
    <path d="M961.17,936.64c29.31,53.51,85.52,87.64,137.58,94.36,43.89,5.66,71.79-33.06,89.24-101.51,74.47-6.24,113.1-45.25,142.39-71.16,112.25-99.3,68.6-291.28-43.65-323.66,21.08-68.81-20-119.78-75-156.48-56.41-63.63-161.8-124.47-230.24-149.45L710.38,589.8Z"/>
    <path d="M313.08,710.8C265.65,709.94,157.37,718,115.21,722c-31.75,4.54-77.69-9.64-64.78,25.52-21,0-29.93,7.38-28.22,26.09C5.19,772.5-1,794.05,10.3,800.85c-10.21,4-15.88,31.76,4,35.17C.09,872.88,38.43,871.8,68.14,876.85c56.72,9.64,99.25-9.07,149.16-15.88,23.33-3.18,51-7.22,80.87-14.31Z"/>
  </g>
  <g class="phone">
    <path class="phoneDark" d="M628.14,478.12C619,495,573,512.89,554.27,514.37c-15.28,2-50-.15-58,18.55l50.26-50.09C572.82,450.1,599.66,454.88,628.14,478.12Z"/>
    <path class="phoneLight" d="M397.78,548.66C394.84,533.43,409,506,425.21,488.6c23-26.17,54.54-44.91,92.4-55.26,32.51-8.9,68.5-8.68,95.09,5,7.4,4.84,17.15,25.86,15.44,39.76-43.31-22-96.89-10.84-143.31,9.39Z"/>
    <path class="phoneMedium" d="M480.6,488.09c28.53-32.44,95.48-51.55,132.1-49.73q16.17,15.63,15.44,39.76c-32.84.72-64.41,2.76-82.35,14.72-1.56,1.51,4.11,6,2.55,8.54-4.89,6.36-28.14,20.3-37.46,23.41Z"/>
    <path class="phoneDark" d="M510.88,524.79c-5.58,10.08-78.4,62.57-91.54,56.31-7.38-4.32-22.84-25.05-21.56-32.44,3.74-13,69.87-59.91,85.23-62.6C491.52,493.14,505.85,512.74,510.88,524.79Z"/>
    <path class="antennaLight" d="M480.36,534.34c13.89-9.75-.07-29.63-14-19.87l-16.17,11.36c-13.89,9.76.07,29.63,14,19.87Z"/>
    <path class="antennaMedium" d="M471.22,537.85c9.74-6.84-.05-20.78-9.79-13.93l-11.34,8c-9.74,6.84.05,20.78,9.79,13.94Z"/>
  </g>
  <g class="skinIndian">
    <path d="M952.28,710.19c33-80.59,92.69-130.39,105.36-250.78-21.65-17.45-22.5-43.16-35-64.27-19.08-32.38-13.87-45.68-25.44-64.18-3.46-24.28,38.16-17.92,49.3,25.13,11.81-26.5,17.22-55.18,18.37-85.31,7.87-13.17,22.22-13.87,33.77-4.77,9.36,7.37,5.26,29.76,5.52,45.87,6.74-16.81,6.79-27.36,19.34-30.46,8.47-2.1,28.71,7,27.31,24.86,16.22-6.89,42.17,6.25,27.82,36.6,28-10,40.86,31.62,25.8,40-30.81,19.71-16.28,73.67-59.07,93.91-24.28,91.35-6.63,234.35-70.33,347.6-31.94,56.79-80.86,76.65-141.83,138.78-38.43,39.16-79.25,75.64-134.06,81.25-49.65,5.07-106.13-35.67-160.47-44.17L395.52,861.46c-47.52-38-52.27-72.07-88.7-122.76-32-44.55-62.71-85-46.64-149.84,10.16-41,27.07-51,53-83.62,32.68-41.1,74.32-109.73,122.72-122.93,25.67-7,50.67-2,76,14.42,5.41-2.12,13.18,1.66,22.53,9.36,15.09-10.42,22.53-6.18,33.74,4.82,13.88-4.91,19.65,6.81,27.26,23.37,7.52,16.39,5.34,26.27-4.53,27.65,1.59,7.62-8.69,10.2-14,9.71,3.56,11.85-16.39,22.84-31.33,7.71-22.38,10.32-44.65-8-42.42-29.4-11.95,4.39-22.29-1.38-27.43-.4a171.78,171.78,0,0,0-50.47,39.05C409,506,394.84,533.43,397.78,548.66c-1.28,7.39,14.18,28.12,21.56,32.44,13.14,6.26,86-46.23,91.54-56.31,3.87-1.29,10.14-4.45,16.49-8.16,10.12-1.32,20.32-1.41,26.9-2.26C573,512.89,619,495,628.14,478.12Z"/>
    <path d="M411.78,913c-62.19-22.53-106.11-98.43-106.11-175.94C374.07,778.1,409.79,836.56,411.78,913Z"/>
  </g>
  <g class="skinBlack">
    <path d="M954.93,701.46c-1.95-11.6-17.28-16.14-18.43-26-3.61-31.15-20.76-23.93-32-32.51-14.9-4.06-12.64-23.92-40.63-23.47-51.47,0-71.78,19.41-102,36.56-13.55,20.77,18.51,38.83,51.92,10.74,9.48-4.87,22.12-7.12,38.37-8.48-40.63,19-52.37,44.24-73.59,65-13.54,23.48,24.38,43.34,55.53.45,19.87-10.38,42-38.82,77.65-29.79-29.55,17-57.72,42.27-85.32,70.88-14.9,19,10.83,38.82,24.83,30.7,20.65-15.22,46.43-32.1,70.88-56.44-14,25.23-18.15,36.34-32.39,48.84-20,11.47-36.45,29.16-14,41.58,18.94-22.51,49.4-44.91,60.61-62.44C940.51,741.26,946.26,730.31,954.93,701.46Z"/>
    <path d="M1037.35,265.62c38.14-9.66,11,76.59-32.22,107.79C1020.3,339.65,1031.94,302.93,1037.35,265.62Z"/>
    <path d="M719.68,556.22C682.87,579,655.88,570,648.92,527.45A252.93,252.93,0,0,0,719.68,556.22Z"/>
    <path d="M895.86,519.4C775.74,624.07,546.64,526.55,546.5,361.17,612.4,215.65,961.77,373.88,895.86,519.4Z"/>
  </g>
  <g class="skinDisplayLine">
    <path d="M49.28,837.88a41.44,41.44,0,0,1-1.42,23"/>
    <path d="M22.28,808.92a22.32,22.32,0,0,1-1.94,17.44"/>
    <path d="M23.44,780.23c1.16,4.65.77,8.53-1.16,13.57"/>
  </g>
  <g class="skinOverlapLine">
    <path d="M1016.51,773.2c-26.37-22.07-59.38-24.49-80.19-6.12"/>
    <path d="M832.86,890.74c21.43-21.43,17.14-38,42.85-61.22"/>
    <path d="M393.58,430.49c-23.3,41.34-.43,58.48,5.59,102.43"/>
    <path d="M416.45,608.14c5-9.43,7.16-21.08,13.34-28.16"/>
    <path d="M1046.55,356.09c-3.87,8.66-9.83,19.16-7,29"/>
    <path d="M1150.86,306.28c-1,8.4-4.55,20.65-7,27.31"/>
    <path d="M1180.12,357.54c-3.25,1.46-5.77,4.48-7.7,8.76-.7-6.3-1.1-14.21,6.26-23.42"/>
    <path d="M422,433.31c27.41-5.11,35.76-35.69,83.61-18.54,15,5.38,30.1,13.24,31.52,25.27,2.87,24.4,18.21,30.44,8.41,39.31"/>
    <path d="M511.91,396.73c-11.29,4-19.86,8.44-26.54,13.17"/>
    <path d="M534.44,406.09c35.29,16.07,27.86,41.16,42.42,65.55"/>
    <path d="M568.18,410.91c15.41,14.82,18,39,22.73,51"/>
    <path d="M50.43,747.54c9-1.15,20.46.94,33-.33"/>
    <path d="M22.21,773.63c18.14-3.24,33,.9,54.14.07"/>
    <path d="M10.3,800.85c18.47,1.82,43.71-2.32,69-3.56"/>
    <path d="M14.27,836c17.91,5.61,49.26-3.15,76.57-4"/>
    <path d="M1211.74,378.19c81.22,85.07,78.06,214.49,97.53,249.74"/>
    <path d="M1260.88,616.53c-30.46,46.09-51.6,231.49-72.89,313"/>
    <path d="M1143.74,892.17c-14-36.25-34-53.8-68.66-67.76"/>
    <path d="M891.12,648.79c-14.34-1.38-26.4,3.84-39,9.5"/>
    <path d="M941.51,721.74c-6.24,1.92-13.72,12.49-19.45,17.36"/>
  </g>
  <g class="hairBlack">
    <path d="M895.86,519.4c71-49.29,167.66-210.16,140-349.43C1012.52,52.78,849.62-41.66,717.94,21c-102,48.51-170.72,184.19-171.44,340.22a51.21,51.21,0,0,1,14.18-13c13.23,193,185.69,250.75,333.61,143.29C897.58,499,898.13,508.26,895.86,519.4Z"/>
    <path d="M814.31,1022.2c54.78-5.26,108.16-55.83,68.79-56.92-21.17-.58-22.53,9.23-71.27-.67C839.63,908.52,839,826.25,833.68,782c24.12-1.48,26.73-76.23,9.56-134,37.4,9.08,13.57-52-32.36-75.62-3.88-37.07-32.21-62.44-44.61-44.42-36.62-51.75-102.14-76.53-100-48-54.31-21.2-116.61-10.61-110,9.94-60.66,13.65-110.41,52.59-95.59,67.82C334,635.76,312.17,706,283.94,734.15c-80.51,80.24-56.08,221.22-17.43,183.6,8.72,65.62,61.41,147.9,74.45,112,36.73,35.36,118.21,11.23,237,11.71C696.33,1041.93,837.63,1059.15,814.31,1022.2Z"/>
  </g>
  <path class="hairOverlapLine" d="M811.83,964.61c-12.62,22.67-34.31,41.94-50.58,49.68"/>
</svg>
