<svg id="presence" xmlns="http://www.w3.org/2000/svg" viewBox="0 0 1610.62 1531.99">
  <defs>
    <style>
      .cls-1 {
        fill: none;
        stroke: #000;
        stroke-miterlimit: 10;
        stroke-width: 2px;
      }
    </style>
  </defs>
  <title>jokingLaughing</title>
  <g id="khari">
    <g id="khariSole">
      <path class="cls-1" d="M1382.53,1439.21c3.29,6.49,2.07,15.51-3.19,19.65-35.13,27.6-154.16,27-175.55,6.67l-62.5-60.41Z"/>
      <path class="cls-1" d="M1606.39,1396.55c2.93,4.42,5.3,16,.43,19.07-50.72,31.47-168.58,39.69-231-4.08l-98.65-83.5"/>
    </g>
    <g id="khariShoe">
      <path class="cls-1" d="M1138,1306.44c5.58,27.06,20.29,43.31,36.19,52.08-7.13-40.57-7.48-72.09,13.16-79.5,38-13.62,96.52-12.06,104.17,14.26,27.41,94.3,108.56,86.08,91,146.93-6.11,21.21-132.11,36.47-165.58,13.71-18.61-12.66-75.66-48.8-75.66-48.8C1129.9,1372.23,1130.09,1339.33,1138,1306.44Z"/>
      <path class="cls-1" d="M1361.6,1314.35c-8.67-22.35-9-51.06,7.3-56.11,29.77-9.24,69.92-15,78.18,0,64.14,116.78,167.24,62.5,159.31,138.31-1.82,17.37-97,37-158.57,26.9-47.58-7.77-108-49-170.61-95.41l13.68-59.76C1314.55,1294.26,1336.65,1308.2,1361.6,1314.35Z"/>
    </g>
    <g id="clothesDisplayLine">
      <path class="cls-1" d="M1375.86,1399.56c-15.17,18.34-104.61,29-141.08,13.15-17.86-7.79-46.07-34.49-60.59-54.19"/>
      <path class="cls-1" d="M1581.05,1352.15c-24.7,17.81-101.33,27.54-122.74,21-31.07-9.42-64.52-33.85-96.71-58.85"/>
    </g>
    <path id="khariShirt" class="cls-1" d="M1035.88,143.91c-102.74,133.7-168.69,107.68-209.75-26.38Z"/>
    <g id="khariSweater">
      <path class="cls-1" d="M1047.35,66.43c108.11,17.12,194.52,96.26,166.26,180.25-21.07,62.6,14.53,88-22.77,141.24,12.87,24.54,21.77,49.32,7.12,75.58,6,11.93,6,22.6-1.09,31.77,18.42,10.68,9.46,31.1,18.83,42,0,0,44.47,16.13,40.87,52.72l-87.63,68.46c-24.74-5.38-45.12-14.48-55.32-32.32-18.85-7.58-34.8-17.34-41.62-33.95-13.9-4.64-23.79-15.09-30.13-30.67-12.38,15.35,1.8,33.19-9.86,41.07,6.21,14.46,1.87,32.93.55,54.22l-496.3,64.36c-25.33-7.85,12.79-66.1,8-100.24l6.52-460.46C640.2,4.36,722-24.86,873.62,24.59Z"/>
      <path class="cls-1" d="M598.32,436.79c11.56,43.2,33.81,39,29.8,76.77a48.08,48.08,0,0,1,26.35,26.93c84.79,69.89-88.23,174.16-122,52.7C500.94,557.91,552.34,496.5,598.32,436.79Z"/>
    </g>
    <g id="khariSweaterTrim">
      <path class="cls-1" d="M1018.84,153.94c-35.92,32.47-71.71,59.7-107,66.47-29.38-21-52.2-53.39-71.69-91.53-11.34.06-22.59,3.87-34.73,10.3,19.47,47.52,52.74,89,99,124.92,51.17-13.29,100-47.42,147.6-92.27C1038.92,154.35,1029.3,151.16,1018.84,153.94Z"/>
      <path class="cls-1" d="M702.17,617c-7.45-11.8-25.87-23.52-32.93-37.9-48.46-28-121.77,6.84-93.19,57.79Z"/>
      <path class="cls-1" d="M1252.64,577.88c-32.93-46-142.35-3.36-92,52.19Z"/>
    </g>
    <g id="khariCollar">
      <path class="cls-1" d="M1070.23,201.05c-45.52-83.2-51.8-35.32-106.74-24.33C1013.13,141,1030.2,99,1026.28,44.08,1071.71,63.2,1073.69,129.19,1070.23,201.05Z"/>
      <path class="cls-1" d="M885.79,17.39c-40.71,13.7-83,74.52-101,134.35,40-26.68,67.28-35.46,108.1,3.79C849.44,110.58,844,64.77,885.79,17.39Z"/>
    </g>
    <g id="khariShorts">
      <path class="cls-1" d="M1184.51,873.09c126.06-29,193.5-81.39,201.93-107.48,8.77-26.69-15.65-31.8-24.21-64.57-8-30.48-54.76-72.16-258.66-52.77Z"/>
      <path class="cls-1" d="M933.41,911.59l-391-150.4c-6.18-8.49-10.44-27.23-6.18-40,31-31.59,212.61-55.56,316.89-72.41,25.55-14.48,48.91,5,80.07-.85,40.89-7.67,105.63-1.71,143.11-2.56,70.7-1.6,82.62,57.08,108.18,108.18C1196.12,800.57,1032,895.51,933.41,911.59Z"/>
    </g>
    <g id="clothesFoldLine">
      <path class="cls-1" d="M853.15,648.78c-30.89,15.6-48.79,30.86-76.7,39.29"/>
      <path class="cls-1" d="M936.51,696.49c-31.43,16.71-64.21,46.8-97.93,86.35"/>
      <path class="cls-1" d="M982.31,710.71c-16.2,54.21-47.74,109.95-94.94,162.32"/>
      <path class="cls-1" d="M1128.68,705.44c-11,21.54-28.79,40.34-54.76,55.81"/>
      <path class="cls-1" d="M1012.87,870.76c-34.77-42.64,2.61-112.56,44.2-157.42"/>
      <path class="cls-1" d="M984.42,854.44c-14.22-39.49-2.67-100,7.89-99.51,6.82.34-3.3,32.45,0,44.23"/>
      <path class="cls-1" d="M1042.33,703.86c-20.53,15.27-23.74,44.37-33.69,41.07-12.17-4-7.84-36-2.64-60.55"/>
      <path class="cls-1" d="M1212.91,750.19c-7.81,13.92-11,27.8-4.73,41.6"/>
      <path class="cls-1" d="M1200.28,807.06c-22-41.61.32-53-.42-72.66-.77-20.33,12.53-50.54,27.27-72.66"/>
    </g>
    <g id="skinBlack">
      <path class="cls-1" d="M1043.81,35.28c-12.55,74.21-31.34,142.68-117.27,149.47C849.53,126,833.36,71.58,877.61.53"/>
      <path class="cls-1" d="M1165.81,752.38c-13.66,4-34.16,13-63,19-39.23,8.07-89.9,38-96.08,65.91,37.07,249.36,146.22,270.3,131.3,469.16-1,121,118.12,73,133.35-13C1214.11,1143.81,1220.93,898.13,1165.81,752.38Z"/>
      <path class="cls-1" d="M1375.33,753.61c-15.41-6.14-42,5-70.78,12-43.91,10.74-78.72,4.68-93,39.07,0,.07,0,.13,0,.2,3.42,158.4,105.85,251.86,79.34,463.4,52.47,107.11,100.32,87.27,139.22,2.37C1407,1234.9,1402.44,883.46,1375.33,753.61Z"/>
    </g>
    <g id="clothesOverlapLine">
      <path class="cls-1" d="M1097.29,321.55c-4.67,31.52-11.29,61.66-26.74,86-5.26,8.29,13.66,31.36-12.14,54.64-1.52,10.62,17.71,33.39-17.71,57.67-9.61,17.21,16.19,23.28,1.17,41.7"/>
      <path class="cls-1" d="M692.08,195.09c-13.28,31.22-32.82,57.22-45.44,79.94"/>
      <path class="cls-1" d="M926.54,184.75c-11,1.36-20.89,9.19-24.21,28.26"/>
    </g>
    <g id="clothesFoldLine-2" data-name="clothesFoldLine">
      <path class="cls-1" d="M1062.68,230.26c15.87,22.18,37.92,65.32,34.61,91.29,19.81,12,22.49-49.46,38.48-79"/>
      <path class="cls-1" d="M701.29,155.53c16.78-24.85,30.2-3.28-9.21,39.56,12.22.72,37-17,63.38-26.06"/>
      <path class="cls-1" d="M688.35,126.37c-7.14,18.45-10.38,36.6-6.23,54.16"/>
      <path class="cls-1" d="M604,129.24c3.66,27.86,11.54,52.65,26.37,72.39"/>
      <path class="cls-1" d="M749.23,303.25c30.32,37.15,65.49,64.32,107.38,77.66"/>
      <path class="cls-1" d="M732.45,335.85c21,16.1,42.21,30.42,63.76,42.18"/>
      <path class="cls-1" d="M628.19,498.39c64,52.21,156.75,50.82,119.12,77.14"/>
      <path class="cls-1" d="M707.23,419.89C790.64,476,890.64,477.26,848.94,492.6"/>
      <path class="cls-1" d="M1032,602.61c-16.73,11.27-62.75,6.48-54.12,23.73"/>
      <path class="cls-1" d="M1040.7,519.84c-52.27,33.16-179.3,20.22-266.06-11.9"/>
      <path class="cls-1" d="M1041.87,561.54c-80.76,39.4-179.82,6.59-182.87,23.1-2.54,13.76,27.65,17.37,69.51,19.17"/>
      <path class="cls-1" d="M1058.41,462.17c-21.82,18.11-67.17,18.46-56.74,34"/>
      <path class="cls-1" d="M1060.72,427.9c-71,30.3-142.19,35.05-213.61,8.22"/>
      <path class="cls-1" d="M1120.29,227.12c-10.34-15.2-19.51,10.27-16.43,43.65"/>
      <path class="cls-1" d="M1177.8,346.25c-13.63,29.22-35.1,45.17-67.78,42.11"/>
      <path class="cls-1" d="M1098.72,452.55c29.79-32.87,83.19-21.57,99.24,10.95-19.15-20.37-64.83-22.25-90-4.28"/>
      <path class="cls-1" d="M1133.64,467.44c-18.12,1.94-34.41,5.69-44.67,15.41"/>
      <path class="cls-1" d="M1103.35,492.09c27.21-14.38,73.43-13.35,93.52,3.18"/>
      <path class="cls-1" d="M1094.1,533.68c-16.43,8.73-30.49,34.28-22.1,58.53"/>
      <path class="cls-1" d="M1171.64,509.55c16.95,1,35.58,8,40.31,20.33"/>
      <path class="cls-1" d="M1091,586.57c21.39-1.84,7.7,19.52,22.6,39.59"/>
      <path class="cls-1" d="M654.47,540.49c-25.14-11.24-49.4-12.17-72.54.12"/>
      <path class="cls-1" d="M628.12,513.56C619,510,611.79,509.2,606.34,511"/>
    </g>
  </g>
  <g id="liz">
    <g id="lizJeans">
      <path class="cls-1" d="M335.3,735.27c53.32-44.38,121.52-36.28,202,14.92,138,25.49,287.43,68.63,350.12,122.84,9.13,9,30.21,4,30,19.9,99.51,58.53,196.31,126.35,271.39,162.65l-59.57,88.89c-132-46.06-263.19-59.18-331-108.75Z"/>
      <path class="cls-1" d="M58.69,674.24c279.94,50.28,542,105.45,667.18,227.21,35.83,34.84,147.77,214.78,226.36,353.24l-94.7,64.76c-71.33-88.3-200-151-233.49-246.06-17.1-5.06-7.15-15.77-10.75-20.17-15.16,11.29-22-4.79-26.14-5.36-14.27,12.82-21.54-2.11-28.15-2.68C146.18,1051.21-62.29,970.12,58.69,674.24Z"/>
    </g>
    <g id="lizJeansCuff">
      <path class="cls-1" d="M1177.09,1049.77c11.55-10.17,46.37,10.42,44.4,23l-69.4,92.53c-8.13,5.23-34.26-13.92-30.62-23.47C1120.56,1130.68,1168.39,1054.93,1177.09,1049.77Z"/>
      <path class="cls-1" d="M945.79,1243.38c10.28-3.08,31.47,23.92,27.31,31.63,8.55,46.24-55.72,99.1-105.47,70.31-8.64,1.28-27.09-30.85-21.13-38.83C862,1311.31,938.49,1267.26,945.79,1243.38Z"/>
    </g>
    <g id="clothesDisplayLine-2" data-name="clothesDisplayLine">
      <path class="cls-1" d="M869.21,1301.32c-2,9.83,17.3,40.48,24.39,43.25"/>
      <path class="cls-1" d="M853.56,1306.41c-.85,7.88,16.05,38.14,23.1,41"/>
      <path class="cls-1" d="M1137.6,1106.6c1.22,8.05,20.08,24.16,28.26,22.81"/>
      <path class="cls-1" d="M1127.12,1126.29c1.09,8.4,21.13,22.94,28.32,22.36"/>
      <path class="cls-1" d="M424.2,720.74C428,732.32,431.13,743.2,430,755"/>
    </g>
    <g id="clothesOverlapLine-2" data-name="clothesOverlapLine">
      <path class="cls-1" d="M448,760.35c4.24-5.67,9.55-10.89,16.22-18"/>
    </g>
    <g id="clothesFoldLine-3" data-name="clothesFoldLine">
      <path class="cls-1" d="M184.65,716.2c-14,5.73-29.5,12.95-38.64,18.4"/>
      <path class="cls-1" d="M201.11,721.53a425.4,425.4,0,0,0-60.69,30.78"/>
      <path class="cls-1" d="M176.31,750c-36.7,21.75-69.55,47.89-97.42,79.71"/>
      <path class="cls-1" d="M236.52,729.2c-29,18.09-56.17,38.35-76.53,59"/>
      <path class="cls-1" d="M256.79,731.67c-33.18,20.9-63.24,45.61-85.61,73.31"/>
      <path class="cls-1" d="M256,758.37A509.94,509.94,0,0,0,149.74,877.23"/>
      <path class="cls-1" d="M308.17,736.14a427.93,427.93,0,0,0-83.39,94"/>
      <path class="cls-1" d="M324,738c-38.42,36.15-73.17,75.47-95.44,113.09"/>
      <path class="cls-1" d="M587.15,1047.86c.51-13.1,7.63-26.63,14.25-40.12"/>
      <path class="cls-1" d="M576.36,1039.9c4.53-20.51,12.45-40.55,22.71-56.4"/>
      <path class="cls-1" d="M613.29,1053.22c13-23.36,36.25-43.63,60.35-63.66"/>
      <path class="cls-1" d="M603.26,1044.56a164.94,164.94,0,0,1,30.3-37.75"/>
      <path class="cls-1" d="M624,1073.39c9.53-1.27,37-19.51,55.66-24.17"/>
      <path class="cls-1" d="M628,1059.48c11.64-2.29,33.1-17.71,49.41-22.38"/>
      <path class="cls-1" d="M795.76,1212.36c42,27,84.08,39.57,126.32,31.7"/>
      <path class="cls-1" d="M1110.85,1094c-13-7-65.25-3.73-82.5-.93"/>
      <path class="cls-1" d="M917.38,892.93c-11.77,3.1-21.45,10.48-28.86,22.52"/>
      <path class="cls-1" d="M901.1,888.88c-10.12,4.37-18.42,12.31-25.17,23.31"/>
      <path class="cls-1" d="M805.55,935c-8.92,11.29-17.11,24.92-24.49,41.18"/>
      <path class="cls-1" d="M791.1,936a114.6,114.6,0,0,0-17.69,28.73"/>
    </g>
    <polygon id="lizSoleInner" class="cls-1" points="1361.15 1221.78 1374.58 1238.07 1345.04 1247.34 1331.5 1230.16 1361.15 1221.78"/>
    <g id="lizSoleBottom">
      <path class="cls-1" d="M1503,1108.86c6.1,9.89-71.69,83.42-141.86,112.92l-29.65,8.38C1400.67,1170.86,1479.89,1095.73,1503,1108.86Z"/>
      <path class="cls-1" d="M1345,1247.34l29.53-9.27c-21.07,22.54-73.16,65.27-84.25,63.18C1282.57,1284.37,1309.75,1264.92,1345,1247.34Z"/>
    </g>
    <g id="lizSoleSide">
      <path class="cls-1" d="M1228.56,1420.42c3.16,7.93,5,23.49,3.46,27.53-11,28.45-104.19,69.81-168.83,53.61-26.8,17.44-71.59,34.55-87.21,28-15.49-8.69-30.46-32-42.31-52.21Z"/>
      <path class="cls-1" d="M1494,1091.37a21.48,21.48,0,0,1,9,17.49c-31.45-3.52-89.7,91.4-171.51,121.3l13.54,17.18c-22,14.67-56,46.85-54.72,53.91-19.51-4.56-35.16-17.28-54.73-31C1272.75,1200,1439.26,1075.58,1494,1091.37Z"/>
    </g>
    <g id="lizShoe">
      <path class="cls-1" d="M867.63,1345.32c9.39,3.92,23,2.51,32.12-4.24-6-30.59,51.2-31,73.35-66.07,14.26,22.08,35.68,42.81,56.15,52.7,38,18.37,61,39.16,94.26,51.32,38.89,14.21,80.68-3.79,105,41.39,2.08,33.26-99.15,78.37-162.81,64-55.43-12.47-108.77,5.16-132.08-7.12C899.47,1444.59,917.3,1394.2,867.63,1345.32Z"/>
      <path class="cls-1" d="M1173,1120.15c-7.23-31.6,25.39-37.8,48.52-47.4,11.25,19.19,40.5,31.17,54.16,27.65,37.51-9.66,99.23.5,106.19-6.08,36-34,103.32-34.09,112.15-3-40.63,6.77-96,85.15-132,104.37-33.85,18.06-99.3,45.7-126.38,74.48-32.16-28.21-38.36-75.6-83.5-104.94C1152.09,1150.05,1161.82,1133.36,1173,1120.15Z"/>
    </g>
    <path id="lizShirt" class="cls-1" d="M496.6,123.51c12.1,9.68,37.32,6,58.18,31.14,6.29,7.59,35.89,12.7,59,65.77,6.42,14.75,24.77,22.84,32.35,48.94,3.9,16.74-36.55,1.5-44.9,167,.9,34.15-20,69.33-48.88,80.94-.62,8.08-3.94,13.69-10.55,16.31.44,14-13.67,29.36-18.7,44.59-.75,35.22,14,70.95-15.83,110.29,11.93,6.89-2.78,17.4,2.47,30C514,729,535,737,539.66,748.12c-42,8.77-100.5-8.25-104-27.59a163.21,163.21,0,0,1-28.67-.89,119.25,119.25,0,0,1-23.53,33.53c-56.43-22.71-110.08-15.68-164.16-27-56.76-11.9-106.51-48-168.64-41.77,4.51-13.79,10-37.48,25.12-51-7.49-47.36,12.91-23.31,38.88-97.2C99.21,485.55,155,572.07,143.55,175.34,136,168,160.85,142,177.67,123.21c-1.23-12.67,7.19-17.51,20.5-18.39C217.61,61.21,374.71,88.53,496.6,123.51Z"/>
    <g id="lizShirtCollar">
      <path class="cls-1" d="M466.52,204.73c20.91-3.1,38.33-29.34,46.72-27.15,5.17,1.35,8.19,26.66,18.77,47.51-8.8-41.65.34-65.68-22.61-101.8C492.68,97,364.5,70.12,361.69,79.61L383,187.55c15.25-17,26.39-58.07,45.38-49C456.75,146.87,466.52,204.73,466.52,204.73Z"/>
    </g>
    <path id="clothesEdgeLine" class="cls-1" d="M513.24,177.58C517,166.49,516,152,511.54,135"/>
    <g id="clothesOverlapLine-3" data-name="clothesOverlapLine">
      <path class="cls-1" d="M899.75,1341.08c2.78,17.74,24.38,42.18,33.48,66.05"/>
      <path class="cls-1" d="M1173,1120.15c4.56,22.28,25.29,35.31,45.08,57"/>
      <path class="cls-1" d="M466.52,204.73c74.3,169.49.86,237.75-33.64,343.33-17.56,53.74,17,115.89-18.18,172.37"/>
      <path class="cls-1" d="M557.44,269.92c8.23,2.91,15,7.08,19.7,13"/>
      <path class="cls-1" d="M482.61,704.93c-69.08,46.24-170.35-21.36-243-36-44.86-9.08-49.69,10.39,5.2,24.68"/>
    </g>
    <g id="clothesFoldLine-4" data-name="clothesFoldLine">
      <path class="cls-1" d="M177.67,123.21c11.78-.95,23.25,3.48,34.49,12.35"/>
      <path class="cls-1" d="M198.17,104.82c25.92,0,48.93,37.3,31.26-2.24"/>
      <path class="cls-1" d="M196.77,425.44c31.72-.94,66.44-3.45,93.59-30.46"/>
      <path class="cls-1" d="M302.3,406.6C290.8,425.21,270,432,251.42,442.4"/>
      <path class="cls-1" d="M152.17,577.45c5.39-7.18,34.86-3.77,56.53,3.77"/>
      <path class="cls-1" d="M114.62,536.21c18.08,53.17,78.7,76.1-6.73,62.91"/>
      <path class="cls-1" d="M148.09,506.78c19.47,19.79,50.37,53.42,11.62,42.72"/>
      <path class="cls-1" d="M116.05,625.82c18.22-3.46,47.74,4.08,56.54,23.86"/>
      <path class="cls-1" d="M75.74,633.41C79,645,95.82,648.63,84,655.34"/>
      <path class="cls-1" d="M416.3,554.21c-17.07-2.87-36.43-1.89-53.39-3.46"/>
      <path class="cls-1" d="M414.42,541.65c-25.57-10.5-31.41-9.11-42.09-15.08"/>
      <path class="cls-1" d="M449.59,456.22q-25.77-9.72-51.5-21"/>
      <path class="cls-1" d="M447.4,467.21a348,348,0,0,1-55.28-10.36"/>
      <path class="cls-1" d="M480.37,371.42c-15.24-.79-31-4.1-47.11-9.42"/>
      <path class="cls-1" d="M476.92,357.6c-19.47-6.28-38.27-10.38-51.82-18.53"/>
      <path class="cls-1" d="M471.58,345c-12.25-6.28-22.3-11-33-17.9"/>
      <path class="cls-1" d="M568.21,195.7c-2.26,25.61,1.92,55.54,3.73,82"/>
      <path class="cls-1" d="M587.85,215.09c-9,20.53-14.17,42.55-10.71,67.86a85.77,85.77,0,0,1,22.68-53"/>
      <path class="cls-1" d="M514.56,371.42c-6.37-1.06-12.4-2.05-17.86-2.94"/>
      <path class="cls-1" d="M535.65,396.34c-15.93-7.9-31.06-15.08-40.54-17.26"/>
      <path class="cls-1" d="M517.22,473.91a276.59,276.59,0,0,0-38.55-10.06"/>
      <path class="cls-1" d="M512.67,491.39c-12.88-6.13-24.86-11.4-35.68-15.57"/>
      <path class="cls-1" d="M472.68,568.24a301.28,301.28,0,0,1-42.26-11.17"/>
      <path class="cls-1" d="M552.36,517.33c-13.31,3.78-25.07,3.34-35.38-1"/>
      <path class="cls-1" d="M541.81,533.64A40,40,0,0,1,517,534.72"/>
      <path class="cls-1" d="M523.11,578.23c-4.91,7.2-5.65,16.35-9.25,23.29"/>
    </g>
    <g id="skinIndian">
      <path class="cls-1" d="M516.55,71.67l-7.15,51.62c-10.26,31.11-31.94,58.4-42.88,81.44-13.69-19.53-14.87-46.51-38.11-66.19-16.64-18.44-53.59-38.38-66.72-58.93l13.5-56.38"/>
      <path class="cls-1" d="M435.46,215.73c43.2,38.09,102.73,73.52,148.38,81.4-1.05-5.25-3.15-8.93-6.7-14.18,6.47-12.86,54.19-24.9,64.56-13.28C701.46,341.05,728,430.75,690.25,445,592.32,482.14,498.1,343.36,389.4,256"/>
      <path class="cls-1" d="M330.76,268.07C221.33,355.13,149.35,490.3,39.8,469.56,8.39,463.61.87,432.08,1,395.72c.15-41.89,74.09-132.11,144.55-223.38,30.83,12.45,81.34,55.79,101.74,84.85,4-2.05,10-6,16.52-10.39"/>
    </g>
    <g id="skinOverlapLine">
      <path class="cls-1" d="M247.29,257.19C173.43,311.31,92.91,310.78,55.8,356.55"/>
      <path class="cls-1" d="M583.84,297.13c30.51,3,57.09,12.82,78.89,31"/>
    </g>
  </g>
</svg>
