<svg viewBox="0 0 177.27 458.96">
  <g class="soleWhite">
    <path d="M45.69,442.25c5.14,2.4,12,3.13,9.75,11.79C33,464.58,26,445.34,12,439.51,6.26,437.1-.24,431,.28,428.66c.16-1.37,1.63-3,3-4.46Z"/>
    <path d="M157.5,430.69c10.08-3.7,18.73-3.17,19.51,4.9-.89,6-20.13,10.7-35,17.41-7.18,3.25-19.56,6.45-21.76,5.56a10,10,0,0,1-2.61-5.83Z"/>
  </g>
  <g class="bennettShoe">
    <path d="M128.41,411.91c1.63,6.61,5,11.78,10,14.09,5.79,2.67,12.49,4.95,19.09,4.69-.37,2.46.25,5.32,1.47,8.42-6.85,3.24-15.5,5.18-23.69,9.11-6.33,3-12.36,4.52-17.61,4.51-2.69-6.25-2.34-16.66-5.47-25.77Z"/>
    <path d="M39.27,408.06c-2.45,5.41-4.58,10.95-1.93,17.12,2.76,6.45,4.6,14.42,8.35,17.07-4,1.56-7.08,3.69-7.55,7.55-8.94-3.38-15.36-11.15-22.3-14-5.58-2.3-12.5-9.42-12.58-11.59,5.2-7.63,12.36-11.88,18-21.08C27.34,402.55,33.54,404.35,39.27,408.06Z"/>
  </g>
  <g class="shoelace">
    <path d="M41.58,436.18c-1.45-3.35-2.7-7.41-4.24-11a14.55,14.55,0,0,1-1.21-5.33,8.58,8.58,0,0,0-3,.41,38.16,38.16,0,0,0,5.55,17.39A7.32,7.32,0,0,1,41.58,436.18Z"/>
    <path d="M151.09,430.21A52.34,52.34,0,0,1,138.41,426a14.69,14.69,0,0,1-4.64-3.39,9.23,9.23,0,0,0-2,2.69c4.06,4.42,10.4,6.91,17.87,8.45A9.33,9.33,0,0,1,151.09,430.21Z"/>
  </g>
  <circle class="converseLogo" cx="18.64" cy="424.45" r="5.75"/>
  <path class="bennettJeans" d="M113.73,243c.12,3.31,1.48,7.24,0,11.12-3.41,8.92,1.11,13.38-4.53,22.73,1.94,13.63,4.26,28.42,5.8,42.1.7,6.19,4.54,13.5,2,17.92-.32,6.05,5.53,5.3,1.83,9.79,1.38,6.48.45,15.31,3.94,29.2,2,7.92,2.26,18.79,5.7,31.31.76,2.77,3.94,4.61.82,7.74-.93-2.24-4-.94-3.56,3-.9,6.07-4.87,3.68-12,15-2.61-6.07-15-5.75-8-15.92-6.35-.63-5-6.89-6-9.36C87.84,380.38,90.2,366,86.86,357.94c-1.37-3.35,1.07-6.13-1-9.05-1.39-2-1.9-3.34-1.27-6.51-8.1,19.05-24,36.32-33.72,55.53-1.81,3.6-3.48,6.23-7.62,6.51-.39,3.38-1.66,5.82-5.06,6,.46-4.71-3.51-2.64-4.87,2.58-5.31-.3-12.47-3.41-17-3a5.92,5.92,0,0,1,.12-6.71c-4-7.94,4.45-9.37,5.88-10.95-2.38-2.7,2-6.23,3.18-9.21,6.32-15.62,22.66-38.71,23-40.93-1.11-6,4-3,3.81-7-.14-3.66,6.09-2.09,4-5.71-2.63-4.49,1.8-8.09,1.59-12.23-.71-14.44,1.41-32.28,3.63-37.53,0-2.85-4.6-4.92-2.54-7.93,1.91-4.13-10.77-15.72-3.79-40.18Z"/>
  <g class="bennettHoodie">
    <path d="M116.25,186.49c2.62.17,6.41-.38,8.64-3,2,1.08,4.23-1.67,6.41-3.41,4.73-2.72,5.67-12.21,2.68-17.24.05-4.53-2.15-5-3.63-7.21-1.1-1.64.44-3.45-3.19-5,.22-1.91-.53-3.53-2.89-4.65-2.72-2.85-1.39-8.2-7.43-12.19.25-6.15-3.21-5.93-9.8-17.25-2-3.83-3-9.49-6.69-12.19-2.72-2-1.86-4-8.46-5.45-19.06-3.58-32.83.62-36,20.43-3.77,23.33-4.41,41.69-2.94,60.82.56,7.25-1.31,13.39,2.54,23.32-4.18,4.86-3.15,12.32.51,20.26-.77,4.25-2.75,8.71-1.81,9.32C64.88,240,86,240.4,98.78,243.36a58.82,58.82,0,0,0,18,1.85,6.4,6.4,0,0,0,1.56,3.1c2,2.3,14.87-2.76,14.28-5.76-.49-2.5-2.23-4.3-4.31-11,1.43-2.33-.62-4.6-1.77-5-.14-1.15.72-3.73-2.72-5.25-3-4.79-.56-10.9-4.4-12.53a6.43,6.43,0,0,0-.63-4.89C119.26,198.88,117.41,192.7,116.25,186.49Z"/>
    <path d="M82,105a14,14,0,0,0,15.19,2.09c10.73-11.43-28.85-14-45.71-7.67-2.61,1-4,3.09-3.9,6.69-2.93.7-3.49,5.58-2.37,9.48-2.51,3.34-.25,4.68,1.81,6.69,2.63,2.56,7.35,4.92,8.64.69C60.25,107.89,68.28,100.79,82,105Z"/>
  </g>
  <path class="bennettHoodieInner" d="M59,99.92c-.12-4.86,1.88-7.46,6.69-7.66,22-.88,30.71,4.28,31.51,14.8a63,63,0,0,0-17.94-6.46C70.51,98.66,65.18,100.5,59,99.92Z"/>
  <path class="zipperDisplayLine" d="M97.18,107.06c13.23,22.11,12.84,26.36,13.38,35.51.32,5.52,4.18,6.77,1.37,18.59"/>
  <g class="hoodieLace">
    <path d="M105,135.59l1.7,5.72c.1.31,1.39-.1,1.29-.41l-1.7-5.75Z"/>
    <path d="M93.55,109.26c5.11,9.77,7,14.83,11,26,0,.67,2.07.15,2-.52a170.12,170.12,0,0,0-11.26-26.42Z"/>
    <circle cx="94.09" cy="108" r="1.74"/>
  </g>
  <g class="clothesDisplayLine">
    <path d="M38.14,449.8a23.4,23.4,0,0,0,17.3-1.35"/>
    <path d="M174.27,430.21c-2.74,3.19-8.4,6.1-15.3,8.9"/>
  </g>
  <g class="clothesOverlapLine">
    <path d="M114.12,163.79c2.26-8.16.52-7.91.58-12,.14-10.91-1.18-23.74-7.66-35.15"/>
    <path d="M116.75,245.21l-2.13-6.47c-3.94-.27-7.34-3.81-5.58-6.66a19.39,19.39,0,0,1-2.58-5.44c-7.61-4.62-5.25-7.54-7.07-9.51-3.12-3.4-6.52-10.83-11.69-27.14-.27-2.38-3.62-2.74-3.12-5.17,1-3.22-1.55-2.95-2.91-4.27C79.06,178,74,151.1,68.8,145.55"/>
    <path d="M118.76,203.87c-3.36-3.56-1.09-10.36-6.86-13.15.85-3-1.29-6-2.6-8.73,2,2.62,3.67,4,7,4.5"/>
    <path d="M108.55,180.69c.65,2.86,4.67,1.29,6.51,1.38,9,.47,9.51-16.65.45-16.11"/>
    <path d="M98.32,215.83c-3.6,6.13-6.83,5.52-7.34,6.65-.54.88-.8,6.2-1.65,10"/>
    <path d="M56,223.8c4.13,4.18,38.51,10.56,52.68,10.9"/>
    <path d="M114.62,238.74c3.68-.62,11.27-4.29,13.66-7.17"/>
    <path d="M93.05,131.94c1.18,1.14.6,3,1.1,4.22.4,1,1.71,1.71.91,4.42,3.29,1.32,1.43,4.07,2.63,8.69"/>
    <path d="M61.5,279.76c2.73,12.75,10.61,28.52,18.43,46.85,2.55,6,1.23,13.6,4.71,15.77,3,.49,5.7.12,1.39,2.81"/>
    <path d="M33.37,413a44.27,44.27,0,0,0-.28,7.28"/>
    <path d="M33.44,423.45a6.52,6.52,0,0,1,3.1-.66"/>
    <path d="M34.07,426.66a12,12,0,0,1,3.54-.83"/>
    <path d="M34.84,429.4a8.76,8.76,0,0,1,3.77-1"/>
    <path d="M35.84,432.11a12.45,12.45,0,0,1,3.67-1.3"/>
    <path d="M37.09,434.84a10.06,10.06,0,0,1,3.41-1.35"/>
    <path d="M135.83,424.47a7,7,0,0,0-2,2.76"/>
    <path d="M138.41,426a8.16,8.16,0,0,0-2.11,3"/>
    <path d="M141.42,427.31a5.49,5.49,0,0,0-2,3.31"/>
    <path d="M144.54,428.49a7.93,7.93,0,0,0-2,3.36"/>
    <path d="M147.56,429.42a7.67,7.67,0,0,0-1.88,3.39"/>
    <path d="M125.72,417.82c2.1,1.09,3.46,4.95,6,7.48"/>
  </g>
  <g class="clothesFoldLine">
    <path d="M52.74,101A12.08,12.08,0,0,1,59,99.92"/>
    <path d="M55.79,104.13c-.29,1.83-3,2.94-8,3.37"/>
    <path d="M45.2,115.56c.69,2.44,2.86,2.71,5.66,2"/>
    <path d="M82,105a21.32,21.32,0,0,1,5.7,1.43"/>
    <path d="M90.83,119.88c-10.51-13.24-26.42-5.48-16.23-4.39"/>
    <path d="M63.47,129.76a39.27,39.27,0,0,0,5.33,15.79c-3.68-2-7.36-3-9.95-5.06"/>
    <path d="M91.92,127.25c.74,1.44.47,2.74,1.13,4.69-2.85-1.87-6.77-5.93-9.75-7"/>
    <path d="M60.65,137.12c2.28,1.88,3.93,3.65,4.63,5.26"/>
    <path d="M69.59,135.17c.24,5,1.93,12.47,4,20.6"/>
    <path d="M86.52,133.52a34.36,34.36,0,0,0,8.54,7.06"/>
    <path d="M83.54,133.91a30.67,30.67,0,0,0,9.64,8.54"/>
    <path d="M75.47,184.62c-2.18,6.1-4.47,13.35-7.22,17.29"/>
    <path d="M80.31,177.85c-1.53,9.06-3.33,18.82-5.55,25.71"/>
    <path d="M55.53,203.54a5.63,5.63,0,0,1-.09,5"/>
    <path d="M123.79,221.29c-.06,3.29-6.55,5.87-11.72,3.21"/>
    <path d="M126.51,226.54a13.91,13.91,0,0,1-4.27,4.86"/>
    <path d="M106.46,226.64a15.74,15.74,0,0,0,6.7,2.25"/>
    <path d="M114.89,231.63c.38,2.61-4.55,3.84-5.85.45"/>
    <path d="M119.39,208.76c-2.38-1.74-7.64-2.38-5.61-4"/>
    <path d="M113.46,200.19c1.12,2.3,3.45,1.74,5.3,3.68"/>
    <path d="M111.9,190.72a3.76,3.76,0,0,1-1.57,2.76"/>
    <path d="M93.41,191.05a19.06,19.06,0,0,1,7.29.07"/>
    <path d="M97.1,186.74c2.51,1.88,6.46,2,10.81,1.56"/>
    <path d="M84.79,145.12a16.51,16.51,0,0,0,7.2,4.35"/>
    <path d="M81.89,149.43a11.3,11.3,0,0,0,5.31,2.85"/>
    <path d="M84.56,155.46a17.71,17.71,0,0,0,9.86,3.91"/>
    <path d="M76.72,151.15C80.11,155.8,83.86,160,88,162.8"/>
    <path d="M80,159.54c1.77,2.48,3.7,4.36,5.59,5.15"/>
    <path d="M80.4,166A9.7,9.7,0,0,0,89,168"/>
    <path d="M83.46,172.63a18.92,18.92,0,0,1,5.16-1.78"/>
    <path d="M87.93,173.88c.62-.65,2.63-1,4.4-1.23"/>
    <path d="M87.85,179.53c-.1-2.12,2.22-3.53,4.7-4.55"/>
    <path d="M96.16,175.92c-1,4.47-7.12,8.53-6.82,4.94"/>
    <path d="M98.43,175.61a6.94,6.94,0,0,0-1.18,4.07"/>
    <path d="M116.84,133.86a5.78,5.78,0,0,0-2.34-1"/>
    <path d="M124.27,146.05c-3.58-.77-7.76,1.63-4.68-1.24"/>
    <path d="M127.16,150.7a6.56,6.56,0,0,0-4-.57"/>
    <path d="M130.72,159.77a7.67,7.67,0,0,1,3.26,3.12"/>
    <path d="M127.27,155.62c-4.31-.63-11,2.74-12.22,4.15"/>
    <path d="M118.34,153.9a6.81,6.81,0,0,0-3.2,1.64"/>
    <path d="M128.92,161.11c-5.25-2.43-10.9-2-14.13,0"/>
    <path d="M126.88,165c-2.74-2.82-9.56-3.29-12.65-1.56"/>
    <path d="M131.82,165.18c-3.45-.15,5.48,4-.52,14.95"/>
    <path d="M124.89,183.54a10.36,10.36,0,0,0,3.4-6.37"/>
    <path d="M124.37,178.11c2.67-6.89-4.15-15.51,4.86-6.58"/>
    <path d="M126.46,408.22c-2.32,3.62-7.19,4.32-14,1.6"/>
    <path d="M105.78,416.89c5.69-.51,8.09,1.57,1.37,4.29"/>
    <path d="M125.72,417.82c-4.52,3.77-14.08,4.23-14.17,6.41-.07,1.89,3.43-.5,6.69-2.09"/>
    <path d="M16.47,403.31c1.38,2.79,4.37,4.27,8.41,4.38"/>
    <path d="M45,399.58c-4.21,2.21-8.06.93-11.62-3.18"/>
    <path d="M22.35,392.36c1.36,3.13,9.89,9.73,13.65,10.57"/>
    <path d="M33.83,407.11c-4.19-1.76-10.33-6.91-12.86-5-1.28,1,3.31,2.83,7.25,3.51"/>
    <path d="M43.3,404.42a3.21,3.21,0,0,0-3.17,1.45"/>
    <path d="M114.08,333.28c-3.46,3.7-9.23,4.87-16.69,2"/>
    <path d="M93.94,333.18a4.58,4.58,0,0,1-7.44,2.33"/>
    <path d="M117,336.82c-3.49,2-5.24,4.93.35,5.11"/>
    <path d="M92.27,344c6.61-2.79,17.33-4.48,17.9-1.58.39,2-7.65,4.7-14.74,7.35"/>
    <path d="M115.66,348.64c-2.42-3.15-19,4.75-20.41,8.75"/>
    <path d="M85.91,348.89a10.93,10.93,0,0,0,6.36,3"/>
    <path d="M68.62,308.88c1.85,8.58,4.51,16.15,10.24,19.93"/>
    <path d="M64.75,314.1c2,9,3.89,15.82,10.76,17.69"/>
    <path d="M59.85,328.43c10.3,6.48,13,10.05-3.16,6.43"/>
    <path d="M57.25,340.72c5.22-1.34,12.09-1.78,11.09-.18s-8.49,1.3-15.47,5.49"/>
    <path d="M105.19,264.92c-1.06-1.51-6.9-5.14-6.55-1.24.38,4.18,9.21,1.94,10.56,13.12"/>
  </g>
  <g class="eye">
    <circle class="sclera" cx="91.98" cy="53.14" r="21.02"/>
    <g class="irisDarkBrown">
      <ellipse cx="107.36" cy="52.46" rx="3.3" ry="3.47" transform="translate(-3.09 6.87) rotate(-3.61)"/>
      <ellipse cx="84.08" cy="53.95" rx="3.3" ry="3.47" transform="translate(-3.23 5.41) rotate(-3.61)"/>
    </g>
    <g class="pupil">
      <ellipse cx="107.59" cy="52.44" rx="1.28" ry="1.35" transform="translate(-3.09 6.88) rotate(-3.61)"/>
      <ellipse cx="84.31" cy="53.94" rx="1.28" ry="1.35" transform="translate(-3.23 5.42) rotate(-3.61)"/>
    </g>
  </g>
  <g class="skinEastAsian">
    <path d="M59.11,69.67c3.69,1.62,8.13,14.77,6.27,24.55C77.2,96,89.22,100.7,97.18,107.06c-4.87-5.37-3.31-16.64-.59-19"/>
    <path d="M140.76,260.1c-4.21-12.19-7-13.08-8.88-15.93-2.3,2.47-9.49,5.19-12.49,4.65.2,4.62-3.66,12.29,4,19.81a4.43,4.43,0,0,0-.07,2.69c-4.4-.61-5.94,3.79-1.38,5.17a3.54,3.54,0,0,0,3.38,2.54c.28,1,1,1.67,2.71,1.69.64,1,6,1.26,7.27.34,2.45-1,6.76-5.92,6.93-7.69C142.26,268.1,141.87,263.53,140.76,260.1Z"/>
    <path d="M116.08,167c4.13,4.86.54,15-6.11,13.91-6.29-.53-4.25-5-8.42-5.58-3-.08-5.45.79-7,.64-2.71-.26-2.81-2.83-1.73-4.14-5.38.8-5.24-3.05-3-4.46-3.4.51-5.47-2.61-3.34-3.79,3.45-1.51,4.75-3.92,13-5.65-1.54-1.48-1.67-3.14-5.71-3.78-4.37,1.73-7.32,0-6.38-2.83,2.43-.32,5.12-2.86,8.33-2.57a13.43,13.43,0,0,1,7,3.63C107.18,158.51,111.54,158.51,116.08,167Z"/>
    <path d="M106.47,85.78c-4,3.44-4.34,7.17-11.66,8.66-6.45,1.31-7.61.07-16.62-2.78-9.63-3-15-8.92-18-17.72-3.35,2.43-5.54-.92-6.57-3-1.13-2.28-8.32-10.18-3.65-16.81C45.75,33.8,80.08-3.41,113.71,28c-2.73,14.4,2,10,.43,23.76C113.7,55.7,119.5,74.46,106.47,85.78ZM86.93,54.43c-1.79-2.06-2.92-2.86-5.27-2.71-3.24.58-5.41,2.18-7.45,3.6a15.55,15.55,0,0,0,6.35,1c1.51,0,3.13-.65,5.58-1C86.65,55.24,87.44,55.22,86.93,54.43Zm12.76,0c1.11-.19,6.59,1.13,9.88-.81a6,6,0,0,0,0-2.16c-8.71-3.74-9,.6-10.78,2.18C98.41,54,98.91,54.55,99.69,54.42Z"/>
  </g>
  <g class="skinOverlapLine">
    <path d="M129.38,268.36c-.21,6.64-1.44,10.1-7.47,8.13"/>
    <path d="M134,267.13c-.26,4.76-.29,9.05-2.25,10a14.9,14.9,0,0,1-6.5,1.87"/>
    <path d="M138.9,265.23c0,3.06.32,9-1.18,10.62a13.82,13.82,0,0,1-9.72,4.87"/>
    <path d="M106.26,160.15c-2.57-.6-4.81-2.41-6.79-2.22"/>
    <path d="M106,165.22c-1.44-.53-5.37-2-7-1.51a34.14,34.14,0,0,0-9.14,3.66"/>
    <path d="M92.78,171.83c4.18-.7,6.07-4,13.33-1.31"/>
  </g>
  <g class="skinFoldLine">
    <path d="M56.21,60.58c-4.38-11.15-9.82-.69-3.08,6.3"/>
    <path d="M56.27,62.48c-2.24,2.35,2.45,4.36.88,5.59-1.09.85-1.15-2.28-3.31-3.53-2.46-1.42-1.6-6,.07-4.08"/>
  </g>
  <path class="lipMaleMedium__noStroke" d="M82.39,76.87c2.68-1.77,8.29,1.39,11.43,1.48,3.52.09,6.17-1.94,8.35-1.53-4.4,1-3.07,3.18-7.48,3.48C89.48,80.66,88.9,76.38,82.39,76.87Z"/>
  <path class="lipBorderLine" d="M82.39,76.87c2.68-1.77,8.29,1.39,11.43,1.48,3.52.09,6.17-1.94,8.35-1.53"/>
  <path class="lipEdgeLine" d="M98,79.33a8.35,8.35,0,0,1-6.71.53"/>
  <path class="smileLine" d="M73.77,75.94a6.86,6.86,0,0,0,.64,8.8"/>
  <g class="cheekLine">
    <path d="M101.17,67.9a11.54,11.54,0,0,1,2.74,5.75"/>
    <path d="M88.06,66.75c-1.43.86-1.65,2.67-5.32,5.41-2,1.48-3.95,2.91-3.92,7"/>
  </g>
  <g class="noseLine">
    <path d="M100.08,66.26c1,.61,1.94,2.4,0,4.6"/>
    <path d="M88.06,66.75a3.39,3.39,0,0,0,.42,4.85"/>
    <path d="M89.92,70.77c2-.29,2.57,1.58,5.32,1.46s3-1.48,4.16-1.81"/>
  </g>
  <g class="eyeFoldLine">
    <path d="M108.63,56.84c-2.1,1.32-6,1.45-7.84.22"/>
    <path d="M84.93,57.67c-1.74,1.79-5.33,1.85-7.54.64"/>
  </g>
  <g class="eyeCornerLine">
    <path d="M72.57,56.23a11.32,11.32,0,0,0,1.64-.91"/>
    <path d="M109.6,51.45a4.59,4.59,0,0,0,1,.33"/>
  </g>
  <path class="eyeCreaseLine" d="M75.67,52.41c4.18-2.34,7.94-3.25,9.78-.73"/>
  <g class="eyebrowBlack">
    <path d="M98.17,42.35c3.28,4.85,8.83.62,14,3.73C107.92,40.48,103.7,44.73,98.17,42.35Z"/>
    <path d="M88.92,45.14c-3.23,4.78-11.53-1.25-17.56,3.54C76.17,41.88,82.46,46.51,88.92,45.14Z"/>
  </g>
  <path class="hairBlack" d="M96,5.23c-10.54-3.31-26.55.06-31.77,4.11C63.91,5.19,66.17,2.75,69,.56a10,10,0,0,0-7.46,10.31c-1.33-2.49-7.33-2.44-8.13,1.69,1.81-1.72,4.21-1.94,5.94-.06-15.71,12.76-12.59,34.37-9.4,41.64.68-.89,5.29-2.5,6.72,3,.36.29,2.44.05,3.35-.19.48-4.12-1.13-4.2,1.92-8.85,3.26-1.43,5.25-3,8.65-7.35a15.55,15.55,0,0,1-.89,4.8c2.25-1.41,5.67-7.5,4.81-17.46C75.93,45.93,94.4,40.09,99,42.18c-.47-1.58-2.43-3.13-3.91-4.09,6.27,4.19,16.48.59,23.44,5.52,1.48-4.75.45-9.2-2.94-13.85,1.43.41,3.33,1.44,5.23,1.2-5.12-3.75-5.54-11.23-11.87-17a9.45,9.45,0,0,0,4.81-1.71C107.81,11.6,102.13,7.14,96,5.23Z"/>
  <path class="hairOverlapLine" d="M61.92,48.08a18.29,18.29,0,0,1-3.82,1.35"/>
</svg>
