<svg viewBox="0 0 214.18 322.92">
  <g class="phone">
    <g class="phoneLight">
      <path d="M13.58,296.23a69.26,69.26,0,0,1,12.57,2.25l22.16-3a67.44,67.44,0,0,0-12.47-1.75C31.7,293.62,19.78,294.52,13.58,296.23Z"/>
      <path d="M20.57,302.08l-7-1.42-7.41,4.19a53.18,53.18,0,0,0,8.26,1.61C16.38,305,20.57,302.08,20.57,302.08Z"/>
      <path d="M100.85,47.8c-2.43-.53-6.87,1-8.49,2.31-5.14,4.38-2.47,41.57,5.18,49.78l5.82-4.47C98.78,89,96.25,74,96.25,63.19l2-1Z"/>
    </g>
    <g class="phoneDark">
      <path d="M61.53,305.71c-4.51,2.79-39.66,8.86-47.29,8.19a26.22,26.22,0,0,1,.19-7.44c3.6-2.73,7.52-5.38,11.72-8a125.66,125.66,0,0,1,22.16-3c4.07.7,11.41,3.09,12.81,5A6.33,6.33,0,0,1,61.53,305.71Z"/>
      <path d="M13.58,300.66v-4.43A53,53,0,0,0,1,303.09a50.07,50.07,0,0,0,5.18,1.76Z"/>
      <path d="M113.71,101c-5.85-8.42-9.77-21.77-10.2-32.4l-7.26-5.36c0,10.79,2.53,25.8,7.11,32.23C105,97.4,111,100.39,113.71,101Z"/>
      <path d="M100,47.85c1.78-.65,7.32,4.77,7.93,6.74.77,1.64-.33,12.61-2.3,13.2-2,.4-7.09-3.69-7.91-5.56C96.71,59.93,97.85,49.15,100,47.85Z"/>
    </g>
    <g class="phoneMedium">
      <path d="M14.24,313.9a26,26,0,0,1,.19-7.44A51.64,51.64,0,0,1,1,303.09a11.67,11.67,0,0,0-.43,6.67C2.4,311.37,10.58,313.55,14.24,313.9Z"/>
      <path d="M13.58,300.66l7,1.42,5.58-3.6a69.26,69.26,0,0,0-12.57-2.25Z"/>
      <path d="M98.3,62.23l-2,1c1.47,2.27,5.31,5.26,7.26,5.36l2.71-.76C104.25,68.19,99.13,64.1,98.3,62.23Z"/>
      <path d="M103.36,95.42c1.68,2,7.6,5,10.35,5.53-1.12,1.94-4.07,4.22-5.72,4.44-2.34,0-8.61-3.17-10.45-5.5Z"/>
    </g>
  </g>
  <path class="bennettUnderwearInner" d="M143.28,235.94c-1.44,0-3.43-1.65-4.7-4.06C130.46,216.47,165.64,233.54,143.28,235.94Z"/>
  <g class="sockWhite">
    <path d="M149.76,263.18a63.93,63.93,0,0,1-18.31,8.4c2.31,4.84,9.66,15,9.36,21.65-.16,3.52-2.72,6.14-4.73,12.58-1.37,4.38-6.85,6.74-5.64,11.27,1.39,5.22,16.94,6.65,23.76,4.84,4.31-1.15,6.24-5.44,9.51-8.41,7.72-7,1.95-14.88-2.57-23C155.21,279.84,154.8,274.15,149.76,263.18Z"/>
    <path d="M112.62,267.26a119,119,0,0,1-20.43,5.33c2.42,7.05,6.76,14,3.83,19.93-1.88,3.8-6.86,7.34-11.18,11.78-2.26,2.33-10.61,2-14.19,5.23-3.07,2.74-2.52,7,.4,8.16,15.52,6.42,25.83-1.12,41-1.31,15.81-.2,8.56-16.41,5.34-27.28C113.92,277.5,114.64,275.21,112.62,267.26Z"/>
  </g>
  <g class="eye">
    <circle class="sclera" cx="115.05" cy="58.71" r="16.4"/>
    <g class="irisDarkBrown">
      <ellipse cx="124.09" cy="57.9" rx="3.38" ry="3.36" transform="translate(-4.42 10.61) rotate(-4.81)"/>
      <ellipse cx="102.94" cy="59.68" rx="3.38" ry="3.36" transform="translate(-4.64 8.84) rotate(-4.81)"/>
    </g>
    <g class="pupil">
      <ellipse cx="123.95" cy="57.99" rx="1.31" ry="1.31" transform="translate(-4.43 10.6) rotate(-4.81)"/>
      <ellipse cx="102.79" cy="59.77" rx="1.31" ry="1.31" transform="translate(-4.65 8.83) rotate(-4.81)"/>
    </g>
  </g>
  <g class="skinEastAsian">
    <path d="M196,105.35C190.87,91,184.53,91.06,174,89.79a96.82,96.82,0,0,1-13.1-2.68c-3.69-1.8-7.77-16.74-3.15-27.31L131.94,89.93c-5.4,1.21-9,3.55-13.66,4.76-4.3,1.12-5.84,2.26-6.73,3.85.49.84,1,1.65,1.54,2.41a11.67,11.67,0,0,1-4.38,4c-2.19,4.68-1.76,9.8-2.87,14.74-2.69-4.63-3.74-10.36-4.82-17C96.11,100,93.68,94.91,91.41,83c1.41-1.18,3-1.27,4.52-2.47,3.35.91,3.5,3.19,5.79,3.5L99,68.17c-1.36-2.41-6.18-6.34-9-6.82-3.69-.21-4.84,5.37-7.49,9.62-3,3.61.32,5-.48,7.06C81.48,81.88,88,91,88.38,94.58c4.32,29.53-5.26,55,12.79,64.91,3.76,2.07,15.4-3,19.17-21.28,2.29,9.84,4.76,14.42,5.75,22,.25,2,.39,4,.45,6a3.33,3.33,0,0,0-1.71,2.19c-.53,2.65-.15,4.4,1.66,5.56v.1c-1.85.56-3.55,1.9-4,3-1.08,2.82-1,5.47,3.47,6.35-1.62.53-2.12,2.11-2.39,3.71-4.4-.34-8.77-.72-12.11,0-18.83,0-37.6.42-40.59,14.4-3.07,14.35,8.79,43,21.83,71a118.07,118.07,0,0,0,19.18-5c-1.84-10.13-2.73-22.5-4.52-30.64,5.21,8.55,16,21.81,24.51,34.59a64.34,64.34,0,0,0,17.22-7.85c-3.66-10.13-7.06-27.24-11-36.08a26.15,26.15,0,0,0,10.89,4.3c34.45-11.17,46-38,46-38,1.17-4,1.34-9.3,1.08-15.06,9.77-3.46,17.77-9.65,17.86-15.19C214.2,146.16,203.75,127.34,196,105.35Z"/>
    <path d="M148.9,78.76c-1.43,5-6.77,10.34-12.13,13.2-8.19,4.38-7.39,5.5-15.35,6.05-6.14.43-6.49-3.79-11.37-6.34-6-3.16-9.13-7.23-10.7-15.51-2.83-14.91-1.2-14.11-2.12-15-1.88-1.91-.4-3.36-1.06-4.77C93.64,51,97.78,46.09,94.28,36.43,111.2,8.33,160.75,24.57,163,50c1.91,5.46-2.6,11.21-3.56,14.78-.59,2.22-3.7,4.92-6.29,3M120.56,59c1.19-.64,2.75-.23,4.34-.26a12.45,12.45,0,0,0,5.53-1.27c-2.23-.88-4.51-1.7-6.44-1.54a6.63,6.63,0,0,0-4.15,2.59C119.2,59.26,120.11,59.21,120.56,59Zm-11.6.3c-.94-.52-2.09-1.45-3.55-1.31a11.06,11.06,0,0,0-5.65,2.49,11.29,11.29,0,0,0,4.12.27c1.27-.14,2.43-.83,4.08-.85C108.43,59.85,109.93,59.79,109,59.26Z"/>
  </g>
  <g class="skinOverlapLine">
    <path d="M138.12,227.52c-1.6-5.29-5.46-9.32-10.9-12.46"/>
    <path d="M119.38,191.17c-11,1.06-21.27,2.22-23.82,15.11-1.45,7.36,4.76,18.83,11.84,30.58"/>
    <path d="M105.84,119.66c3.08,5.55,7.24,14.85,7.83,25.57"/>
    <path d="M116.83,115.82c2.74,4.77,0,7.27,3.51,22.39"/>
    <path d="M152.91,188.47l2.61-1.33c15.84-6.31,28.22-3.1,40.55-8.39"/>
    <path d="M175.52,117.37a10.08,10.08,0,0,1,3.22,4.64c4.4,13.46,8.91,25,13.45,35.36-11.43,2.86-24.88,15.48-37.38,16.19-1-4.2-7-6.54-8.15-10.64-1.48-3.92-4.18-1.44-6.95-3-3.14.73-2.34,5.47,1.31,6.2.46,1.07.8,2-.66,2.63-3.94.87-6.05.65-8.46-.22,1.34-1.73.51-3.87-1.16-4.16-1.35,1-3,1.1-4.2,1.75"/>
    <path d="M200.69,156a23.45,23.45,0,0,0-8.5,1.4"/>
    <path d="M126.49,173.9c2.17,1.28,5.49,2.65,1.2,3.62"/>
    <path d="M126,183.31c2.34.45,4.36,1.53,1.45,2.06"/>
    <path d="M87.25,69.8c2.14-1.67,3.74-3.45,5.81-3.64,1.47-.14,2.94.43,5,1.32"/>
    <path d="M88.09,74.08c2.67-2.06,4-2.84,6.41-3a8.43,8.43,0,0,1,4.1.77"/>
    <path d="M89.62,78.27c3-2.06,5.1-3,7.07-3.13a4.85,4.85,0,0,1,2.58.61"/>
    <path d="M126.7,190.63c3.73-.14,10.32-.36,13.6-.3"/>
  </g>
  <g class="skinFoldLine">
    <path d="M154.49,53.78c3.08-9.62,10.15-1.65,5.57,5.33"/>
    <path d="M154.64,56.15c2.43,1.85-1.07,5.61.61,5.92,1.37.26.9-2.12,2.63-3.23,2.51-1.62.71-6.32-1.42-4.71"/>
  </g>
  <g class="nippleEastAsian">
    <ellipse cx="126.46" cy="137.76" rx="2.34" ry="1.34" transform="translate(-5.26 5.02) rotate(-2.23)"/>
    <ellipse cx="164.96" cy="137.27" rx="2.34" ry="1.34" transform="translate(-5.21 6.51) rotate(-2.23)"/>
  </g>
  <path class="bennettWaistband" d="M194.15,201.65c1-2.5.27-4.54.84-7.84-9.86-10-33.11-4.94-42.08-5.34-.67.37-1.39.72-2.17,1.06Z"/>
  <g class="bennettUnderwear">
    <path d="M194.15,201.65c3.89,27.55-18.87,38.52-50.87,34.29,1.28,0,1.9-.7,2.87-2.51,1.68-3.12,6.9-2.69,9.93-16.35a64.71,64.71,0,0,1,11.41-3.2,97.18,97.18,0,0,0-11.75-1.83c2-14.16-2.75-23.55-15.44-21.72,3-1.37,12.13-1,18.75,0,1.36.2,3.2-1.37,5,.57,3.17-2.21,8.27,1.28,13,3.78C183.06,196.16,188.55,196.39,194.15,201.65Z"/>
    <path d="M126.7,190.63c-2.68.07-5.14.45-7.32.54-.27-1.81-3-3.43-7.88-4.11,3.54-.84,8.46-.27,12.11,0C123.6,189.26,124.09,190,126.7,190.63Z"/>
  </g>
  <g class="clothesFoldLine">
    <path d="M170.81,203.9c-1.92-5.34-4.76-8-5.19-9.39s-.43-2.64-1.54-3.61c2.65,2,5.95,5.53,7.23,9.55"/>
    <path d="M172,193.87c5.36,2.89,9.43,8,12.53,14.87"/>
    <path d="M177.11,194.68a21.86,21.86,0,0,1,6.44,7.09"/>
    <path d="M158.43,225.11a21.15,21.15,0,0,0,11.6,6"/>
    <path d="M154.52,228.09a17.62,17.62,0,0,0,6.12,2.71"/>
    <path d="M191.19,199.3a16.61,16.61,0,0,1-.31,8.51"/>
    <path d="M188.11,197.63c.33,2.52.42,4.56,0,5.63"/>
  </g>
  <path class="lipMaleMedium__noStroke" d="M114,78.87c1.85.77,3.59.23,5.65-.54,3.41.22,8.67-1.5,10.84,3.6,1.15,1.22-5.35,6.26-12,6.2-8.66.57-6.08-6.72-8.34-7.13C110.71,78.83,112.93,79.67,114,78.87Z"/>
  <path class="mouthInner" d="M118.51,83.2c3.64,0,5.95,1.3,8.68.83,1-.16,4-.89,3.17-2.24-4-6-9-2-12.78-1-2.61.7-6.15-2.19-7.47.07C113.3,87.08,113.65,83.18,118.51,83.2Z"/>
  <g class="teeth">
    <path d="M127.68,79.25c-3.41-1.71-7.14.79-10.1,1.58-1.57.42-3.49-.46-5-.73a5.28,5.28,0,0,0,1.3,2.59,6.63,6.63,0,0,0,2.22.86,8.43,8.43,0,0,1,2.45-.35,14.74,14.74,0,0,1,1.94.14A17.73,17.73,0,0,0,127.68,79.25Z"/>
    <path d="M128.81,80a14.6,14.6,0,0,1-5.46,3.9,9.6,9.6,0,0,0,3.84.14c1-.16,4-.89,3.17-2.24A7.9,7.9,0,0,0,128.81,80Z"/>
  </g>
  <path class="lipOverlapLine" d="M109.26,83a9.29,9.29,0,0,1,.85-2.13"/>
  <g class="lipEdgeLine">
    <path d="M119.68,78.33c-2.06.77-3.8,1.31-5.65.54"/>
    <path d="M123.47,87.28c-1.7,1-3.48.7-5.16.77s-2.82.37-4.14-.45"/>
  </g>
  <g class="cheekLine">
    <path d="M109.54,74.57c-.46,2-2.1,1.58-2.71,9.18"/>
    <path d="M122,69.89c2.07.84,4.08,3.1,7,5,4.48,3,4.89,8.57,4.92,9.71"/>
  </g>
  <g class="noseLine">
    <path d="M109.88,70.91c-.57.67-1.79,2.9.43,4.35"/>
    <path d="M122,69.89c1.1.63,2.38,2.83.79,4.33"/>
    <path d="M120.32,74.23c-2.18.21-2.34,2.16-5.28,2.24s-3.56-1-4-1.59"/>
  </g>
  <g class="eyeFoldLine">
    <path d="M129.65,60.12c-2.35,1.9-6.05,1.65-7.85,1"/>
    <path d="M107.67,62.16a7.26,7.26,0,0,1-6.65.53"/>
  </g>
  <g class="eyeCornerLine">
    <path d="M99.76,60.44c-.31.23-.87.74-1.25.76"/>
    <path d="M135,57.49a8.49,8.49,0,0,1-4.6-.06"/>
  </g>
  <path class="eyeCreaseLine" d="M102.72,58.66c1.6-.95,3.17-2.38,5.71-1.08"/>
  <g class="eyebrowBlack">
    <path d="M117.1,49.5c4,6.07,12.14.1,17.72,3.33C130.32,47.16,123.19,51.84,117.1,49.5Z"/>
    <path d="M95.93,55.82c5-3.36,9.9-1.07,12.13-5.52-5.77,2.26-8.62,0-12.45,4.53A9.49,9.49,0,0,0,95.93,55.82Z"/>
  </g>
  <path class="hairBlack" d="M128,45.4a9.68,9.68,0,0,1,3.77,3.08c-7.89-3.42-12.37,3-20.6-2.42,2.22,2.3,2.81,3.09,3,4.47-5-4.09-12.48-1.94-12.9-16.31-.18,9.49-1.92,13.47-8.62,17.43C94,44,87.35,41.93,93,31.14c-1.18.38-2.32,2.55-4.19,2.94,4.29-4.88,1.13-11.17,16-21.93-1.53-2.7-4.18-2.67-7.13-.49.44-2.59,6.42-5.7,9.67-1.57C107,5.2,110.57,1.17,115.45.25c-3.44,1.32-5.64,5.66-4.56,8.22,5.35-2,23.16-7.23,38,2C167.83,22.31,165,45.17,163,50c-2-5.77-10.13-5.26-10.29,1.67a12,12,0,0,1-4.36,1.58c-.59-4.93-2.36-2.87-6.74-7.47C138.94,45.81,132.23,47.25,128,45.4Z"/>
  <path class="hairOverlapLine" d="M141.64,45.8a25.43,25.43,0,0,1,7.6.91,14.74,14.74,0,0,0-3-3.14"/>
</svg>
