<svg viewBox="0 0 120.72 452.9">
  <path class="soleWhiteDark" d="M.32,422.24c-.7,4.15,3.88,14.14,14.53,18.54,2,.47,17.65.87,23.87,0C22.65,424.28,6.28,413.26.32,422.24Z"/>
  <g class="soleWhite">
    <path d="M73.16,437.15c4.5,2.38,7,6.87,4.5,12.94-2.3,2.11-10.74.92-15.89,1.81-9,1.55-22,.52-23.32-1.41-.82-1-.72-3.5-.27-5.9Z"/>
    <path d="M36.25,425.67c3.4,2.94,6.52,7.25,5.42,14.51-7.9,2.57-14.44-2.43-18.73-9.22C16.14,420.22,6.2,416.64.32,422.24c-.18-1.74,1-4.47,2.6-6C9.4,407.53,26.13,421.41,36.25,425.67Z"/>
  </g>
  <g class="bennettShoe">
    <path d="M33.22,397.3c-.09,10.56-2.3,20.93,3,28.37a16.23,16.23,0,0,1-.83,9.92c-5.78-1.75-10.43-12.08-15.7-16.53s-11.93-5.23-16.8-2.85c3-7.34,8-13.22,11.2-22.58Z"/>
    <path d="M63,420.34c.5,7.08,3.87,12.69,10.19,16.81,1.93,2.91,2,6,1.1,9.27-6.15,1.1-9.3.05-17.44.64-6.34.46-14.41-.13-18.64-2.47-.74-10.56,4.25-15.66,5.41-24.7Z"/>
  </g>
  <path class="converseLogo" d="M29.44,417.27c3,1,2.88-10.11,0-11.5S26.19,416.14,29.44,417.27Z"/>
  <g class="eye">
    <circle class="sclera" cx="91.85" cy="45.94" r="6.05"/>
    <path class="irisDarkBrown" d="M95.62,49c.38-.08,1-1.78.62-3.66s-1.57-3.22-1.95-3.15A19.59,19.59,0,0,0,95.62,49Z"/>
    <path class="pupil" d="M96.05,46.72c.3-.06.33-.69.19-1.42s-.41-1.29-.71-1.23A10.46,10.46,0,0,0,96.05,46.72Z"/>
  </g>
  <g class="skinEastAsian">
    <path d="M40.88,64.42C48,73.1,51.16,74.11,50.42,88.26l32,5.92c-1.4-7.52,1-13.58,6.81-23.1"/>
    <path d="M104.93,225.41a17.28,17.28,0,0,1-1.28,12.26C93.2,251.21,92.09,219,104.93,225.41Z"/>
    <path d="M63.84,68c-2.91,5.26-4.53,2.55-7.85.65-40.71-7.5-.64-76.06,34.44-53.45,2.43,10.5,9.52,18.4,7.93,27.79-.83,4.91,5.91,7.83,9.73,13.58,1.8,2.71.12,4.94-4.8,5.89a3,3,0,0,0,1.36,3.9c.29,1.31-.81,3.25-1.31,3.13a6.14,6.14,0,0,0-4.57,1.48,7.78,7.78,0,0,1,0,1.08c3.21-1.49,6.16-.44,6.12,2.52-4.72,3.22,2.42,10.31-6.74,12.2-2.39.49-6-.47-13.19-1.78A29.78,29.78,0,0,1,70.15,78M95.24,43c-2.47,1-3.73,3.56-4.6,4.8a25.35,25.35,0,0,0,5.62-.08A6.32,6.32,0,0,0,95.24,43Z"/>
  </g>
  <g class="skinFoldLine">
    <path d="M57.46,56.89c-5.19-11.52-17.37,3.18-2.64,8.7"/>
    <path d="M57.45,59c-1.92,2.62,3.29,3.21,1.85,4.82s-.66-1.31-5.43-1.67c-3.67-.27-2.17-6.44.1-4.85"/>
  </g>
  <path class="bennettJeans" d="M97.28,232.18l-74.06-8.75c-8.54,18.12-2.53,29.44-4.75,34.39-1.62,1.7-1.63,3.58.17,5.64-.72,20.74.18,40,4.1,56.58-.51,3.42-3.76,5.13-.17,8.89-2.74.49-2.22,5-3.42,8-3.56,9.12-4.78,25.81-5.3,35.9-.19,3.79-5.29,8.38-1.58,12.82-6.45,5.47,1.76,6.32,0,12.63,7.22-3.06,17.48-1,20.7,5.66,2.08-4.27,7.55-5.47,5.5-13.33,5.71-3.87,0-10.42,2.22-16.75,4.34-12.53,7.12-24.47,8-35.56,2.4-2,2.41-4.87,1.37-8,5.06-1.48-.34-3.76,5-23.25,4.27,23.59-3.08,22.56,1.88,28.2-2.74,1.54-2.91,6.67-1.37,9.06C52,354.72,43,399.9,38.81,407.73c-1.37,2.56-1.88,6.49,2.17,9.31a13.61,13.61,0,0,1,1.62,7.58c7.14,3.3,14.24,3.79,21.28.75-1.14-7.73,6.89-4.48,1.9-12.68,4.81-2.4,4.53-14.92,7.83-24.44s8.1-19.15,10.17-34.19c2.72-3.05,1.89-5.67,3-10.52a429.61,429.61,0,0,0,9.29-66.64c3.73-4.4,0-8.83,1.76-16.84.41-4.22,5.73-11.21,5.84-22.39a9.47,9.47,0,0,1-4.45,2.51A14.05,14.05,0,0,0,97.28,232.18Z"/>
  <g class="bennettHoodie">
    <path d="M89,93.62c5.75,0,9.36-.32,12.18,1.73,1.94,1.41,4.93,1.94,4.74,6.33,5.83,3.19,6.64,16.69,7.17,22.68,2.58,4.45,3.41,17.46,5.57,31.79,2.55,4.4,2.7,8.35-1.59,11.45-.67,1.58,5.36,2.72.18,12.16-2.31,8-2.25,18.83-6.88,27a8.71,8.71,0,0,1-2.64,9c-1.22,3.19-1.61,7.91-2.12,9.69-.56,2-5.86,3-7.57,1.94-.68,3.1,1.82,5.81.88,6.52-9.68,3.56-66.06,1.06-77.38-9.52-1-1.07,1.85-4.51,1.94-9.34-3.94-7.13-.82-9.11.53-12.86-1-.92-1.11-2.52-.88-4.41-5.88-5.36-8.17-11.81-9.52-16.7-1.56-5.65-5.52-10.41-6.45-16.86-.32-2.17-2.29-3.12-.63-5.3,2.6-3.41-.31-8.33,2.68-10.66,2.11-1.52,1.28-5.36,5.23-9.53,1.61-1.69,8-17.06,8.12-19,.18-3.54.49-4.54,2.51-6,3-3.17,5.69-19.09,13.3-18.24Z"/>
    <path d="M95,93.62c-5.28-2.68-8.22-1.32-13.94,0-19.44-3.87-42.72-10.45-45.21,5-.81,5-.11,8.54,4.79,13.22C44,119.87,52.35,123,58.64,123,73.88,122.76,79.27,93.15,95,93.62Z"/>
  </g>
  <path class="bennettHoodieInner" d="M81,93.62c-12.14,3.9-27,5.76-35.67,1.64,1.34-6,2.31-10.87,7.13-10C66.14,87.5,74.25,88.39,81,93.62Z"/>
  <g class="clothesDisplayLine">
    <path d="M48.49,233c-2.24,7.85-3.38,19.5-1,27.16"/>
    <path d="M74.26,446.42a8.82,8.82,0,0,0,4.41-1"/>
    <path d="M35.42,435.59a10.12,10.12,0,0,0,3.42.54"/>
  </g>
  <g class="clothesOverlapLine">
    <path d="M33.26,112c-3.84,20-6.89,38.74-7,51.6-.14,25.05-6.16,26.16-.89,29.86l-2.27,4.32"/>
    <path d="M98.05,227.35c-.2-1.82.77-3.69-.33-4.38,2.31-7.54.79-13.51-2.84-18.63,5-6.35-1.62-5.94,0-13,1.89-3.37.68-4.59.54-7.29-.14-2.89,2.7-4.72.41-9.18-2.43-3.51.32-4.69.27-6.88s-1.39-3.3-1.08-7c.94-11.61-6.59-25.12-5-35"/>
    <path d="M23.49,215c16.86,9.59,52.79,13.27,74.23,8"/>
    <path d="M107.74,215.72A13.25,13.25,0,0,1,98.79,217"/>
    <path d="M28.49,261c4.48,5.61,20.24,5.84,25,7.1,3.55.93,16.44,4.48,22.41.37"/>
    <path d="M55.05,307.05c-.79-14.26-2.47-27.71-1.54-38.91"/>
  </g>
  <g class="clothesFoldLine">
    <path d="M38.58,101.91c3.92,0,13.08,3.56,19.5,3.56,6.78,0,15.91-4.13,14.52-.6"/>
    <path d="M40.6,111.81c1.65,1.2,4.28,1.87,5.82,3.3"/>
    <path d="M71.76,109.87c-5.75,2.07-10.19,4.56-10.94,8.2"/>
    <path d="M37.15,110.82c-1,3.46-2.55,6.56-5.33,8.78a16.5,16.5,0,0,1-2.16-5.34"/>
    <path d="M32.4,107.61c-.87,3.64-.8,6.18.24,7.6"/>
    <path d="M24.79,120.21a16.32,16.32,0,0,0,5.77,6.43"/>
    <path d="M41.91,133.76c-2.28,5.78-5.33,10.94-10.11,14.75"/>
    <path d="M27.17,150A14.42,14.42,0,0,1,20,153.74"/>
    <path d="M26.38,160.16A11.11,11.11,0,0,1,20,163"/>
    <path d="M26.8,153.74c-1.89,5.59-7.6.71-8.43,3.09-.76,2.17,1.71,2.1,4.77,1.31"/>
    <path d="M25.07,180.24c-1.68,3.74-3.47,6.18-5.51,5.37"/>
    <path d="M95,161c1.47,4,6.32,7.41,2.42,8.44"/>
    <path d="M95.83,174.9c3.87,2.38,8.51-5.94,6.48,1"/>
    <line x1="83.65" y1="128.68" x2="89.6" y2="132.61"/>
    <path d="M87.69,123.94c-2.14-4.3.09-10.91,1.31-10.12.72.46-.72,7.25,1,12.2.85-6.73,3.7-15.53,4.89-10.06"/>
    <path d="M25.41,193.42c7.77,5.1,17,10.89,4.49,6.57"/>
    <path d="M24,202.15a12,12,0,0,0,4.45,2.72"/>
    <path d="M33.47,206.18c14.51,4.42,27.71,5.7,39.71,4"/>
    <path d="M32.75,191.43c11.3,8.33,32.35,6.31,46.73.24"/>
    <path d="M68.19,219.49c13.08-3,29.72-3.68,18.43.36"/>
    <path d="M94.88,204.34a22,22,0,0,1-8.5,4"/>
    <path d="M93.75,197.26c-.53,2-3,3.53-8,4.52"/>
    <path d="M94.88,191.37C78.41,203.8,55.58,200,54.75,202.73c-.6,2,8.59,2.53,14.51,1.9"/>
    <path d="M62.36,138.28c3.57,12.61,13,20.83,26.87,25.33"/>
    <path d="M63.31,151.36c6.08,9.79,14.77,17.56,25.92,23.43"/>
    <path d="M82.46,119.17a18.89,18.89,0,0,0,5.47,9.51"/>
    <path d="M105.93,101.68c-4.73-1-6.81,1.61-8.77-.06-1.43-1.21,2.63-2.28,5.35-2.49"/>
    <path d="M109.81,116c1,3.77,2,6.75,3.29,8.4"/>
    <path d="M104.45,119.88c2.5,3,6,6.06,6,10.58"/>
    <path d="M115.51,150.29a25.41,25.41,0,0,0,3.16,5.86"/>
    <path d="M116.34,161.71a8.29,8.29,0,0,1,.74,5.89"/>
    <path d="M116.82,175.26a13.4,13.4,0,0,1,0,6.17"/>
    <path d="M110.4,180.73a36.67,36.67,0,0,0,.36,15.7"/>
    <path d="M110.38,206.73c-1.75,3.5-4.43,5-9.37,1.59"/>
    <path d="M102.31,214.14c4.17-1.42-2.26-.23-4.41-3.9"/>
    <path d="M18.64,263.46a15,15,0,0,0,5.78,3.22"/>
    <path d="M67.13,275.74c-5.93-3.89-13.81-5.94-8.52.1"/>
    <path d="M42.54,279.08c6.6-10,8.78-8.49,6,5.93"/>
    <path d="M31.13,263.19c-1.61,1.78,1.49,3.81,7.2,6"/>
    <path d="M87.51,310.36c-2.9,12.25-7.13,22.59-20.38,19.95"/>
    <path d="M28.49,317.91c8.33-1.62,14.26,2.58,17.65,1.94"/>
    <path d="M48.58,323.41c-8.2,1.61-3.78,2.26-.11,6.36"/>
    <path d="M36.28,336.24c4.79,2.07,7.48,5.44,7,10.79"/>
    <path d="M80,353.39a27.65,27.65,0,0,0-14.88-6.47"/>
    <path d="M56.93,335.25c8.58,2.5,22.42-1.47,21.85,2.28-.28,1.79-4.3,1.27-9.39-.21"/>
    <path d="M22.91,324.27c5-3,15.42,1.51,15.74-1.51.17-1.51-5.13-1.71-8.62-.65"/>
    <path d="M22.57,328.93c9.18-3.15,18.23,5.28,21.48,4.18,4.16-1.41-2.68-5-7.77-4.2"/>
    <path d="M72.41,343.9c-4,0-12.15-5-14-2.59-1,1.38,2.53,2.34,7.34,2.26"/>
    <path d="M24.85,377.33c4.36-.09,8.67,1.71,12.94,4.86"/>
    <path d="M12.27,385.68c2.65-1.77,6.35-2.35,10.21-2.74"/>
    <path d="M11,392.46c3,1.7,17-3.8,21.61,3.21"/>
    <path d="M38.47,390.64c-3.7-5.87-12.43-2-12.54-4.36,1.51-2.15,7.44-1.07,9.38.87"/>
    <path d="M65.78,412.69c-6.74,2.5-14,3.15-17.74-.31"/>
    <path d="M38.81,407.73a5.4,5.4,0,0,0,4.7,4.65"/>
    <path d="M41,417c5.27,2.51,9.92,2.45,14.18.74"/>
    <path d="M66.46,419a15.16,15.16,0,0,1-10.87,3.28"/>
  </g>
  <g class="lipMaleMedium__noStroke">
    <path d="M98.77,70.92a6.14,6.14,0,0,1,4.57-1.48c.5.12,1.6-1.82,1.31-3.13C103,68.58,100.26,68.35,98.77,70.92Z"/>
    <path d="M98.77,72c2,.46,2.33,3.11,6.12,2.52h0C104.93,71.56,102,70.51,98.77,72Z"/>
  </g>
  <path class="lipEdgeLine" d="M101.82,74.22a3.44,3.44,0,0,0,3,.32"/>
  <path class="cheekLine" d="M98.53,73.35a9.6,9.6,0,0,0-.09-4.75"/>
  <path class="noseLine" d="M104.67,61.07c-2.34.3-3.48,2-4.56,1.94-1.92,0-2.41-1.77-1.48-3.61"/>
  <g class="eyeLidLine">
    <path d="M95.24,43c2-.93.12-2.86.12-2.86"/>
    <path d="M96.26,47.69a1,1,0,0,1,.61,1.63"/>
  </g>
  <path class="eyeCornerLine" d="M90.56,47.78a3,3,0,0,1-.7.72"/>
  <path class="eyeCreaseLine" d="M90.7,45.5A11.48,11.48,0,0,1,95.93,41"/>
  <path class="eyebrowBlack" d="M96.46,35.08c-1.13,4.46-5.27,2.73-8.79,6.42C89.14,36.21,92.54,37.92,96.46,35.08Z"/>
  <path class="hairBlack" d="M87.11,16.94c1.6,9.39,8.1,14.79,16.12,14.18-6.64-4.12-1.37-15-11-18.88a17.45,17.45,0,0,1,5.63.13C89.07,8,86.65.85,68.2.76,59.75.72,46.55,2.85,36.37,10.9,35.92,7.29,37.66,4,40.2.93,36,3.39,33.15,6.84,32.93,12.26c-4-1.66-7.55-.69-10.73,2.87,3.06-1.9,5.93-2.26,8.51-.11-13.13,18.38-8.59,50.07,17,60a23.94,23.94,0,0,0,8.22-6.43c-5.21-3-10.73-4.7-10.09-12.31C46.31,50.47,55.58,47,58,53.47a50.61,50.61,0,0,0,9.56-1.71c-1.08-6-1.42-4.65,2.67-11.28C74.61,38.21,82,37.8,84,25.15a14.27,14.27,0,0,0,1.57,5.27C85.83,26.27,88.72,24.78,87.11,16.94Z"/>
  <path class="hairOverlapLine" d="M70.22,40.48c-1.35.62-2.69,1.32-4,2.08,1.76-1.88,3.48-3.42,3.89-5"/>
</svg>
