<svg viewBox="0 0 175.34 318.95">
  <g class="eye">
    <circle class="sclera" cx="55.58" cy="51.83" r="20.41"/>
    <g class="irisDarkBrown">
      <ellipse cx="69.33" cy="48.73" rx="3.38" ry="3.31" transform="translate(-11.24 22.47) rotate(-17.05)"/>
      <ellipse cx="47.66" cy="55.7" rx="3.38" ry="3.31" transform="translate(-14.24 16.42) rotate(-17.05)"/>
    </g>
    <g class="pupil">
      <ellipse cx="69.43" cy="48.78" rx="1.31" ry="1.29" transform="translate(-11.25 22.5) rotate(-17.05)"/>
      <ellipse cx="47.76" cy="55.75" rx="1.31" ry="1.29" transform="matrix(0.96, -0.29, 0.29, 0.96, -14.25, 16.45)"/>
    </g>
  </g>
  <g class="skinEastAsian">
    <path d="M77.79,76.44c-2.41,4.17-1.21,8.82-8.62,12.25-6.81,3.15-7.42,1.52-17.58.41S30.9,82,26.4,74.43c-2.68,3.15-6.25,1.47-7.81-.87-2.54-2.6-9.72-7.49-8-15.17C.77,37.31,40.72,1.67,69.11,17.78c.7,14.65,6.31,11,7.64,24.29C77.16,46.18,87.25,60,77.79,76.44ZM52.19,53.68c-1.55-.61-2.81-1.36-4-1.18A19.9,19.9,0,0,0,40.12,57c4.08,1.68,7.92-1.06,11.78-2.3C52.73,54.42,53.12,54.05,52.19,53.68Zm12-3c2.5-1.3,5.6-1,8.52-3a3.54,3.54,0,0,0-.45-2c-1.7.17-6-.92-8.92,4.64C63.2,50.7,63.66,51,64.24,50.69Z"/>
    <path d="M129.11,123.31a53.11,53.11,0,0,0-4.8,4.81c-4.12-7.69-7.81-10.8-10.56-16.75-5.15-11.14-8.26-17.83-11.25-21.27-6-6.9-14.1-3.82-20.18-4.3-3.06-.23-5.92-.45-7.71-1.54h0a11.91,11.91,0,0,1-5.44,4.43c-6.81,3.15-7.42,1.52-17.58.41A37.71,37.71,0,0,1,40.1,85.83c.15,2.79-1.15,6.08-8.43,8.41s-12,2.5-14.38,15.38c-1.65-5.16-2-12.67-1.37-23.57.43-1.61,4.1.44,9.07-4.33,2.18,1.25,5.79-1.63,7-4.7.94-2.33-1.87-4.82-4-7.82-4.38-7.82-8-6.92-9.46-6.61-1.83.68-4-2.61-6.84.84C5.37,71.88,2.22,80.1,2.83,86.28c2.06,29.25-10,56.44,5.41,65.77,3.8,2.29,6.32.9,10.09-1.17,10.8-6.83,12.93-15.4,15.35-26.23C41.24,159,52.61,167.19,60.81,197,103.58,181.05,129.67,156.21,129.11,123.31Z"/>
  </g>
  <g class="nippleEastAsian">
    <ellipse cx="58.59" cy="128.46" rx="2.34" ry="1.34" transform="translate(-19.82 11.04) rotate(-9.22)"/>
    <ellipse cx="96.9" cy="121.77" rx="2.34" ry="1.34" transform="translate(-27.32 28.03) rotate(-14.45)"/>
  </g>
  <g class="book">
    <path class="bookPageMedium" d="M141.27,123.47c1.4-3.76,5-17.75,5.77-27.09-10.12,16.51-20.92,16.74-20.75,41.81Z"/>
    <path class="paperStackLight" d="M167.49,104.68a31.58,31.58,0,0,1-8.57,2.69c-10.65,12-31.56,7.76-32.63,30.82-25.26-9.27-28.8,15.9-43,21.59a44.8,44.8,0,0,1-3.71,7.9C119.12,152.64,140.21,140.63,167.49,104.68Z"/>
    <g class="bookPageDark">
      <path d="M92.43,160.51c11-9.66,17.47-23.89,31.6-17.6Z"/>
      <path d="M131.8,137.76c.63-11.66,10.43-13.13,21.19-19.64Z"/>
    </g>
    <path class="bookCoverDark" d="M153.54,141.92l-34.06,32.17L73.82,201.65,78,170.79c10.93-7.16,40.59-26,51.92-27.93,5.17-9.75,30.83-30.15,40.63-38.67Z"/>
    <polygon class="bookCoverMedium" points="73.82 201.65 77.95 170.79 76.92 169.15 73.09 199.83 73.82 201.65"/>
    <path class="bookCoverLight" d="M170.5,104.19l-36.81,34.28c.7,1.76-7.54,7.69-9.68,6.52L78,170.79l-1-1.64L124,142.91c1.15,2.13,9.85-4,7.77-5.15L169.26,103Z"/>
    <g class="coverCreaseLine">
      <line x1="124.01" y1="144.99" x2="113.49" y2="177.71"/>
      <line x1="133.73" y1="138.83" x2="123.7" y2="170.13"/>
    </g>
  </g>
  <g class="skinEastAsian">
    <path d="M106.52,175.53c13.24-11.71,22.19-32.74,44.11-48.65,6.31-4.59,7.53-5.68,12.93-5,7.22.88,7.93,6,10,8.21,5.26,5.41-3.78,27.89-20.26,61.36L139,214.69c1.18,10.5,2.07,32.06,4.49,52.09l-19.08,3.83c-6-17.11-10.23-27.13-14.06-42.19C90.33,238.42,47.42,234.46,106.52,175.53Z"/>
    <path d="M152.51,112.42a4.35,4.35,0,0,0,.94-4.1c4.19-2.38,4.42-6.21,2.16-7.24,6.29-3.26,4.61-8.87-.43-7.44-4.13,1.1-7.29,2.56-9.47,5.64a2.63,2.63,0,0,0,.44,4c-.74,4.52-1.77,9-2.89,13.44A81.8,81.8,0,0,0,152.51,112.42Z"/>
    <path d="M143.65,101.34c1.84-2.27.61-6.28-1.42-5.66a24,24,0,0,1-4.36,4.34c-3,2.6-5,8.58-6.4,16C134.71,111,139.12,107.34,143.65,101.34Z"/>
  </g>
  <g class="skinOverlapLine">
    <path d="M137.13,203.57c-2.13-12.13-10-18.49-17.71-16.1,22.26-15.44,43.71-25.89,51-46.46"/>
    <path d="M109.32,223.15a64.28,64.28,0,0,1-.54-17.47"/>
    <path d="M146.15,103.25c2.4,1.93,5.71-.66,9.46-2.17"/>
    <path d="M153.45,108.32c-2.41,1.1-7.21,2.86-8.76,2.41"/>
    <path d="M25,81.72a9.57,9.57,0,0,0,3.35-8.09"/>
    <path d="M29.74,75.93a1.16,1.16,0,0,0-1.48-.38"/>
    <path d="M17.29,109.62c1.95,5.83,5.62,18.4,3.85,28.62"/>
    <path d="M38.52,118.58c-3-3.42-3.61,1.85-4.84,6.07"/>
    <path d="M100.53,101.8c-.38,3.09,2.29,7.34,5.25,14.88s6.28,12.79,9.39,19.5"/>
    <path d="M124.31,128.12c-.54.52-2.23,2-2.78,2.5"/>
  </g>
  <g class="skinFoldLine">
    <path d="M19.61,62.11c-4-7-8-4-7.26.64"/>
  </g>
  <g class="bennettUnderwear">
    <path d="M137.13,203.57c.57,3.39,1.18,7.12,1.83,11.12,5.82-6.53,10.47-14.45,14.37-23.27C148.87,199,141.64,204.42,137.13,203.57Z"/>
    <path d="M109.32,223.15C106.86,226.73,102,228,99.2,226l-15.46-8.7c-2.26.51-4.32.7-5.91,1.17a22.37,22.37,0,0,0,3.51-6.13c-.3-6.13-1-10.85-2-14.07l-5.53,3.34-.73-1.82.24-1.88a28.61,28.61,0,0,0-9.89,7C66,233.68,90,241.2,110.31,228.42Z"/>
  </g>
  <path class="bennettWaistband" d="M73.33,198a28.61,28.61,0,0,0-9.89,7c-2-4-.54-4.56-2.63-7.91,2.59-3.74,9.28-6.84,13.77-9.11Z"/>
  <g class="sockWhite">
    <path d="M106.3,175.09c3.23.64,12.1,9.18,13.32,12.9-5.13,5.73-13.49,10.37-17.54,18.71-1.16,2.37-1.67,6.82-1.64,10.77,2.93,3.91,2.19,10.79-4.79,10.05-3.62-.39-5.72-4.41-8.39-5.59a13.61,13.61,0,0,1-7.19-7.56c-8.11-4.39-7.32-12.72-.44-15.88a41.18,41.18,0,0,0,12.56-8.81C97.76,184.25,99.79,180.51,106.3,175.09Z"/>
    <path d="M143.79,265.38c-4.35,2.19-15,4-20.44,4.14,2.65,10.81,7,22.51,5.21,33-1.29,7.7-.14,12.41,7.11,13.75,7,1.31,12.48,4.12,21.69,1,7.56-2.55,16.81-3.77,16.3-9.61-.93-10.65-12.12-3.27-17.46-10.42-5.16-6.89-8.2-9.19-9.15-12.89C145.26,277.45,145.12,269.91,143.79,265.38Z"/>
  </g>
  <g class="clothesOverlapLine">
    <path d="M86.67,205.63c6.55,1.62,8,6.93,10,8.18a11.15,11.15,0,0,1,3.8,3.66"/>
    <path d="M80.07,214.37c-.3-1-.6-1.25-2-2.46"/>
    <path d="M164.85,301c-3.22.18-7.61,1.06-9.92,2.4"/>
  </g>
  <g class="clothesFoldLine">
    <path d="M72.36,209.18c-.63,5.29-.23,10.29,1.92,14.8"/>
    <path d="M71,204c-1.61,5.69-2.14,11.1-.69,16"/>
    <path d="M65.64,202.72c-.72,2.8,2.19,6,1.41,8.68"/>
  </g>
  <path class="lipMaleMedium__noStroke" d="M64.75,72.62a6,6,0,0,0,4.19-2.34c1-.16,2.12-1.37,3.35-1.15-2,1.88-.59,6.6-3.73,8.16-5.57,2.77-8.25-.52-11.31-.17C59.47,74.81,62.91,75,64.75,72.62Z"/>
  <path class="lipBorderLine" d="M56.89,77.44c1.6-1.58,4.17-1.23,6.66-2.48,2-1,3.06-.58,4-1.32,1.35-1,2.45-4,5-4.61"/>
  <g class="lipEdgeLine">
    <path d="M64.75,72.62a6,6,0,0,0,4.19-2.34"/>
    <path d="M64.19,78.39c2.38.35,6.26-1.09,6.66-5"/>
  </g>
  <g class="cheekLine">
    <path d="M67.81,61.43a10.75,10.75,0,0,1,6.44,4.9"/>
    <path d="M56.4,65.79a25.68,25.68,0,0,0-2.08,8.57"/>
  </g>
  <g class="noseLine">
    <path d="M57.91,69.66c-1.58,0-2.43-2.61-1.51-3.87"/>
    <path d="M64.84,57.94c2.31,4.33,3.49,2.91,4.56,5.06.46.92.16,1.82-.87,2.68s-1,2.56-4.26,3.36c-1.5.38-3.34-.64-5.1.22"/>
  </g>
  <g class="eyeFoldLine">
    <path d="M73.28,49.94A7.32,7.32,0,0,1,66,52.56"/>
    <path d="M50.88,57.79C49.41,60,45.76,60.88,43.28,60"/>
  </g>
  <g class="eyeCornerLine">
    <path d="M38.39,58a5.52,5.52,0,0,0,1.73-1"/>
    <path d="M72.31,45.59a8.93,8.93,0,0,0,2-.35"/>
    <path d="M72.76,47.64a4.2,4.2,0,0,0,.94-.86"/>
  </g>
  <path class="eyeCreaseLine" d="M48.17,52.5A7.78,7.78,0,0,1,50.59,52"/>
  <g class="eyebrowBlack">
    <path d="M60.43,42.14c5.09,2.41,7-3.51,14.43-1.69C68.74,35.76,65.48,41.49,60.43,42.14Z"/>
    <path d="M51.1,45.23c-2,5.29-11.61,3.64-15.45,8.39C38.19,46.64,44.59,48.8,51.1,45.23Z"/>
  </g>
  <path class="hairBlack" d="M35.13,31.84c6,17.11,21.08,7.31,26.78,7.5A10.83,10.83,0,0,0,58.28,37c5.7,1.28,11.26-6.07,19.17-2.89.34-5-2.37-12.47-6.75-16.21,1.49.07,3.7.34,5.34-.64C67,13.44,61.83,2.36,43.06.44,32.07-.69,17.13,6,13,11.15c-1.28-4,.88-7.57,3.1-10.35-4.51,2.44-7,8.55-5.72,12.83-1.88-2.11-6.57-1.82-8.15,2.46,2.61-2.6,4.91-3.12,6.27.06-11,17.14-1.42,39.64,2.12,42.24.49-3,7.19-6.08,9.4,0,1.08.4,2.12.31,4,0-1.1-3-1.9-3.64.62-8a18.2,18.2,0,0,0,9.74-9.18,14.49,14.49,0,0,1,0,4.7C36.28,44,38.28,41.33,35.13,31.84Z"/>
  <path class="hairOverlapLine" d="M24.64,50.4a17.42,17.42,0,0,1-3.05,1.19"/>
</svg>
