<svg viewBox="0 0 129.93 460.79">
  <g class="soleWhite">
    <path d="M87.89,445c4.08,2,7.73,4,6.35,11.95-3.83,4.4-22.89,4.73-32,1.09-5-2-10.87-2.93-12.85-5.65-1.16-2.2-1-4.26-.71-6.85C63.17,440.61,76.19,441.16,87.89,445Z"/>
    <path d="M42.46,419.57c2.58,10.64-4.85,18.26-16.34,15.09-9-2.47-6.31-16.17-6.91-24.47-1.47-10.89-6.92-24.71-.82-30.5,2-1.34,4.51-1.94,7.58-2.36Z"/>
  </g>
  <g class="bennettShoe">
    <path d="M69.89,417.15c-.48.24,4.08,11.55,6.34,14.65,3.44,4.74,6.4,10.18,11.66,13.21-6.33-2.41-19.92.7-19.38,8.57-4.48-.29-4.72-1.36-8.82-2.31-5.06-1.18-10.12-4.43-11-5.72-1.28-5.84,3.67-15.76,3.24-26.34C58,414.46,69.58,416.05,69.89,417.15Z"/>
    <path d="M41.31,372.76c-7.78,4.92-14.27,2.61-18.11,6.15-8.66,8,.33,25.06-.76,40.17,6.8-.9,14.77-1.15,20,.49-2.29-8.77,2.95-22.46,8.94-31.15C51.69,388.6,41.31,372.76,41.31,372.76Z"/>
  </g>
  <g class="shoelace">
    <path d="M82.12,440c-2.15-2.57-3.94-5.48-5.89-8.16a42.64,42.64,0,0,1-3-5.37c-2.93-.33-9.1-.19-10.77.34a25.25,25.25,0,0,0,7.27,14C71.68,440.13,78.49,439.89,82.12,440Z"/>
    <path d="M36.35,395.8a25.52,25.52,0,0,0-3.1,14.76A34.65,34.65,0,0,1,42,412.32a46.81,46.81,0,0,1,3.69-13.48A39.64,39.64,0,0,0,36.35,395.8Z"/>
  </g>
  <path class="converseLogo" d="M26.61,393.05c4.88,2.65,9.74-8.06,4.28-10.69C25.82,379.92,21.22,390.13,26.61,393.05Z"/>
  <path class="bennettJeans" d="M112.34,223.43c3.38,10.58,5.52,19.93.41,22.8,4.52,21.83,6,46.6,6.36,75.21,1,7.15-3,9.41-4.2,15.69-1,5.42-4.76,4.81-5.47,7.29-1.32,4.56-22.5,19.93-37.08,33.25-3,25.41,2.86,26.89.14,35.18,2,2.55-1.45,5.08-1.32,9.16-1.86-3-8.05-2.72-9.09,2.2-2.92,3-9.6,1.51-11.49,7.29-1.2-5.65-6.3-8.8-3.68-13.33,2-3.41-2.22-5.69-1.48-9.52S45,395.44,43.7,385.88C40,384.6,37,380.74,34.29,375.69c3.6-3.44-.35-8.48,7.56-10.47.85-7.64-3.83-18.26-1.58-23-5.91-3.85-.68-10.91-1-16.58-1.94-36.46-8.4-73.83-3.58-101.42C57,227.94,93.61,227.53,112.34,223.43ZM74.51,326.49c3,8.28-2,6.32-1.05,10.54,2.19-2.88,4.6-5,7.37-5.87-1.66-4.36,1-7.37,4.06-7.07-1.5-2.11-1.66-6.62.45-9-3.91-3.61.89-4.3-8-27.77C75.35,299.72,73.61,325,74.51,326.49Z"/>
  <path class="bennettSleeves" d="M63.58,93.63,95.85,94.7c19.36,22.58,13.92,72.74,13,124.82l-69.75,1.36C46.54,166.33,53.79,109.56,63.58,93.63Z"/>
  <path class="shirtWhite" d="M101.66,115.12a50.76,50.76,0,0,0-6.11-7.77c-3.59,5.06-21,5.14-29-1.25a78.36,78.36,0,0,1-6.39,6L50.66,217c20.17,23.55,40.32,21.49,56.7.53Z"/>
  <g class="bennettHoodie">
    <path d="M95.85,94.7c11.47-4.57,26.75-2.41,27.27,7.1.85,15.92.46,29.21-1.22,40.61-2.33,6,2.37,7.23,0,12.85-.61,1.47.37,3.12-1.15,4,.67,2,1,4-.33,5.76,1.66,4.13-.15,4.53-.18,6.58s1.26,3.92-.43,5.69c.41,2.76-.79,5.07.12,7.09,4.25,2.88-.13,6.12-.13,6.12-.06,1.87,3.77,1.92-.11,5.11-1.34,6.07.94,10-.34,11.94-.79,1.2-11.51.08-11.43-1.37C108.78,163.8,107.81,110.29,95.85,94.7Z"/>
    <path d="M33.73,142.57c-.95,16.9-.81,31.89-2.49,42.18-.36-3.92-3.1-6.9-5.12-8.92,1.67-4.16-1.19-3.57-.83-8.92,3.09-3.21.94-5,1.66-7.5s3-3.52,3-6.72c0-2.5,1.61-2.87,2.26-4.52S32.13,143.8,33.73,142.57ZM43.91,92.08c-10.35,5.29-16.63-.83-18.17,6.78-4.15,4.79-7.16,11.91-9.7,20-3.56,1.86-.92,7.06-3.86,13.7C9,139.71,7,138.1,9.12,142.88c-5.4,2.54-3.87,6.92-4.89,11.62-.72,3.26-6.84,3.1-2.35,15.94-1.94,3.48.82,3.79,1.43,8.69.81,4.18,2.72,5,4,7.34,3.67,6.83,5.45,13.05,11.53,13.83.14,3.25,3.07,3.91,6.62,3.39-.66,4.91-1.16,8.33-.86,12.16.21,2.63-1.63,4.38,1.16,7.39-.45,7.91-2.64,8.25-1.69,9.54a17.36,17.36,0,0,0,6,3.39C58.87,235.06,75.76,82.71,43.91,92.08Z"/>
    <path d="M56.67,115.41c-1.51-10.26-8-18.61-15.26-22.22,3.74-5.12,3.74-10.89,13.65-5.82C57.5,94.56,57,103.83,56.67,115.41Z"/>
  </g>
  <g class="bennettHoodieInner">
    <path d="M44.75,212.28c14.62-39.91,8.92-53.75,12-64,3.79-12.43-.59-24.87-.13-32.83,1.17-20.41-9-19.72-6.78-26.24C54.43,85.42,57.79,85.42,60,85c1.25-.9,2.57-3.24,8.3-4.54-2.54,5.37-4.44,12.12-6.12,19.36,2,44.06-.07,84.58-10.08,119.75Z"/>
    <path d="M108,116.41c-.23,3.57,1.56,9.15.43,18.65-.84,7,1.59,11.82,1.91,17.53.29,5.34-1.41,8.83-.49,14.89a140.19,140.19,0,0,1,.88,30c-.23,3.57.71,5.38-.16,8.62l-5.71,8.73c-5.47-43,1.74-91.95-10.21-123.87C108.29,89,108.91,102.92,108,116.41Z"/>
  </g>
  <g class="zipperDisplayLine">
    <path d="M44.75,212.28c14.62-39.91,8.92-53.75,12-64,3.79-12.43-.59-24.87-.13-32.83"/>
    <path d="M108,116.41c-.23,3.57,1.56,9.15.43,18.65-.84,7,1.59,11.82,1.91,17.53.29,5.34-1.41,8.83-.49,14.89a140.19,140.19,0,0,1,.88,30c-.23,3.57.71,5.38-.16,8.62"/>
  </g>
  <g class="hoodieLace">
    <path d="M54,132.65l-.22,6c0,.32-1.37.24-1.35-.08l.21-6Z"/>
    <path d="M54.56,105.31c-1.7,10.81.11,15.45-.3,27.12-.09.64-1.81.58-1.79,0,.53-10.23-1.3-17,.1-27.25Z"/>
    <circle cx="53.56" cy="104.38" r="1.74"/>
  </g>
  <g class="clothesDisplayLine">
    <path d="M79,233.94c-.78,6.44,1.53,11.26.72,16.7-.85,5.66,2.44,10.22-.58,19.06"/>
    <path d="M69.18,231.65c-2.41,6.14-7.49,9.81-17.45,9"/>
    <path d="M94.16,231c2.74,6.19,7.74,8.28,13.88,8.33"/>
    <path d="M88.69,232.37c-1.78,7.33,1.13,11.13-.54,16.27-1.54,4.72,4.46,14.44-7.92,16.55"/>
    <path d="M68.51,453.58c9.4,1,23.27-.73,25.57-2.87"/>
    <path d="M22.44,419.08c-.67,7.24,1.22,15.83,12.49,15.81"/>
  </g>
  <g class="clothesOverlapLine">
    <path d="M112.9,127.39c-.45,8.66.91,16.1.6,24.65-.32,8.77-2.09,17.9-2.54,26.56"/>
    <path d="M33.73,142.57a4,4,0,0,0,.37-4.46c1.71.26,2.48-.94,2.65-3.07"/>
    <path d="M31.24,184.75a7.93,7.93,0,0,0,2.29,4.67c2.23-.5,2.24,2.19,3,3.51s2.67,1.61,1,4.39c3.17,5.19,6.12,8.18,6.09,9.67s-9.61,4.14-14.74,6.79c-1.46.76-1.91-6.54-3.41-10.09.53-2.15,10.45-6.31,12.06-6.37"/>
    <path d="M119.69,195.62c-2.19-1.13-6-1.56-8.76-1.41"/>
    <path d="M49.25,198.76a12.13,12.13,0,0,1-2.59-1.19,20.65,20.65,0,0,1-4.77,6.18"/>
    <path d="M25.74,223.24a3.61,3.61,0,0,0,2.17,1.18"/>
    <path d="M98.64,105.36c3.27,4.78,6.55,9.56,7.53,14.39"/>
    <path d="M62.14,99.84A36,36,0,0,1,56.71,110"/>
    <path d="M79.15,269.7c-.63,3-.83,10.92-1.8,17.59"/>
    <path d="M73.46,337c2.24,5.88-1.88,6.57-1.68,11.57.36,8.67.82,19.23.58,29.07"/>
    <path d="M41.85,365.22c-.31,6.52,1.47,13.17,1.85,20.66"/>
    <path d="M62.09,424.21a7.31,7.31,0,0,1,.38,2.56"/>
    <path d="M63,429.41a70.13,70.13,0,0,1,11.6-.24"/>
    <path d="M63.9,432c2.31-.46,9.55-1.25,11.9-.8"/>
    <path d="M65.12,434.56c1.91-.66,9.42-1.85,12.11-1.35"/>
    <path d="M66.36,436.6c2-.82,9.38-1.7,12.46-1.08"/>
    <path d="M68,438.76c2-.82,8.7-1.64,12.32-1.16"/>
    <path d="M35.29,398.06a43,43,0,0,1,9.5,3.12"/>
    <path d="M34.29,400.72A34.82,34.82,0,0,1,44,403.53"/>
    <path d="M33.64,403.14a34.87,34.87,0,0,1,9.64,2.66"/>
    <path d="M33.25,405.5A32,32,0,0,1,42.73,408"/>
    <path d="M33.11,408a27.25,27.25,0,0,1,9.22,2.08"/>
    <path d="M41.08,384.45c-.22,3.28-2.62,6.9-4.73,11.35"/>
  </g>
  <g class="clothesFoldLine">
    <path d="M60,85c-2.68,3.53-2,8.08-4.07,7.28"/>
    <path d="M94.66,91c7.45.5,10.33,7.12,9.15,18.46"/>
    <path d="M116.24,101.82c.3,7.36-4.73,16.47-3.34,25.57a47,47,0,0,0,7.54-22.47"/>
    <path d="M120.23,125.67c-1.22,7.2-3.85,14.07-6.85,18.07"/>
    <path d="M116.32,147.81a7.94,7.94,0,0,1-2.78,2.61"/>
    <path d="M113.5,152c4.25,1,6.11-1.23,2.32,2.55"/>
    <path d="M117.49,157.13c-2.31-.34-4.45.51-4.4,1"/>
    <path d="M120.75,159.27c-.56.4-1.44.6-1.67,1.21"/>
    <path d="M119.81,177.3c-.67.58-3.65.61-4.55,1"/>
    <path d="M118.91,184.78c-1.58.67-5.58-.08-7.77,0"/>
    <path d="M121.14,189.09c-2.06,1.85-6.3.46-6.56,1.85"/>
    <path d="M101.92,138.36c-8.15-.2-17,.44-25.34.61"/>
    <path d="M85.72,136.15A171.89,171.89,0,0,1,63.94,136"/>
    <path d="M102.55,177.3a55,55,0,0,1-16.83,5.28"/>
    <path d="M93.52,183.12c-8.72,2.64-17,3.49-24.61,1.61"/>
    <path d="M57.18,197.57a44.07,44.07,0,0,0,14.56,6.18"/>
    <path d="M85.72,205.31c-10.21,2.42-19.94,1.15-29-5.27"/>
    <path d="M54.92,208.47c6.63,5.42,15.49,8.95,22.57,8.76"/>
    <path d="M89.79,217.79c-10.28,3.17-20.3,2.09-30.1-2.61"/>
    <path d="M103.73,203.75C94,222.28,77.49,230.1,55.68,215.18"/>
    <path d="M53.36,214.82c4.74,3,7.07,10.62,18.38,12"/>
    <path d="M104.16,208.47c-3.51,6.35-12.23,10.72-3.06,7.65"/>
    <path d="M77.49,227.3c7.27-1.31,15.56-3.08,25.06-8.67-9.31,5.59-14.72,11.56-23.7,10.07"/>
    <path d="M43.05,170.45c-.62,11.3-3,24.12-5.55,26.87"/>
    <path d="M19.85,195.52c2.69-.41-.22,2.29-1,4.78"/>
    <path d="M20.52,192c-3.11,1.48-3.11,6.65-6.43,3"/>
    <path d="M33.53,189.42a14.48,14.48,0,0,0-8.26,2.77"/>
    <path d="M34.81,193.67c-6.88,1.48-10.94,8.21-11,5"/>
    <path d="M26.12,175.83a9.8,9.8,0,0,0-6.25.17"/>
    <path d="M5.36,172.89c1-4.68,5-7.74,10.22-9.61"/>
    <path d="M1.88,170.44c1.07-3.86,5-7,9.25-8.19"/>
    <path d="M25.29,166.91c-.32-1.56-3.27-3-4.53-2.82"/>
    <path d="M20.61,166.9a5.28,5.28,0,0,1,3.77,2.44"/>
    <path d="M24.68,163.36c-1.78-3.78-16.21-5.55-21.91.36"/>
    <path d="M4.75,149.93c.83,4.36,7.89,7.33,3.72,8.65"/>
    <path d="M7.65,146.16C9,153,21.28,157.62,26.9,155.4"/>
    <path d="M9.12,142.88a4.59,4.59,0,0,1,.68,3.06"/>
    <path d="M11.57,141.8a12.62,12.62,0,0,0,4.61,6.95"/>
    <path d="M16.21,121.91c1.5,3.25,4.9,5.77,7.88,7.69"/>
    <path d="M21.06,131.37c2.58,2.22,6.65,9,6.43,12"/>
    <path d="M34.1,138.11c-1.49,0-2.74.28-2.4,2.21"/>
    <path d="M26.56,110.3c1.11,6.23,5.65,16.09.71,12.94"/>
    <path d="M25.74,98.86c3.79,3.59,7.84,7,8.48,10"/>
    <path d="M31.56,111.92c3,7.72,5.16,16.76,5.19,23.12"/>
    <path d="M32,95.88a7.11,7.11,0,0,1,2.81,3.84"/>
    <path d="M40.66,147.63c-3.95,12-7.17,22.83-8.93,33.55"/>
    <path d="M71.4,331.07c-7.59,4.49-18.06,2.18-26-8.45"/>
    <path d="M68.67,345.85c-4-3.88-13.59.86-22.91,3.59"/>
    <path d="M40.27,342.2c1.79,1.34,4.94,2.1,2.69,3.47"/>
    <path d="M73.92,334.37c-2.15,2.11-8.39,3.33-3.91,5.76"/>
    <path d="M49.51,334.59c5.55.53,11.81,2.86,10.11,4.87-3.35,4-11.17,4.14-15.44-.55"/>
    <path d="M89,318.82c-2.07,4.2,12.09,11.57,14.33,10.07.79-.53.31-1.88-2.36-5.93"/>
    <path d="M84.89,324.09c2.59,2.58,10.08,5.57-1.13,2.83"/>
    <path d="M80.83,331.16c.9,1.12,2.8,1.5,5.49,1.3"/>
    <path d="M90.4,331.55c13.94.2,12.26,2.18-5.18,4.56"/>
    <path d="M95.06,339.82c-5.64-1-11.56.67-16.9,4.26"/>
    <path d="M36.19,371.31c.09,3.24,2.67,4.76,5.62,6"/>
    <path d="M69.63,407.63c-6,5.8-11.52.55-18.27-2.12"/>
    <path d="M72.5,412.85a4.6,4.6,0,0,1-5.3,1.53"/>
    <path d="M62.58,420.81c-6,.08-7.85,2.43-11.85,3.76"/>
    <path d="M49.4,411.55c4,2.51,8.32,2.1,9.1,3.45.91,1.6-6.16,5.4-9.1,3"/>
    <path d="M106.23,254.86a66.91,66.91,0,0,0-13,4.38"/>
    <path d="M106.74,266.33a55,55,0,0,0-20,.77"/>
    <path d="M74.66,260.4a89.67,89.67,0,0,0-16-3.86"/>
    <path d="M75,266.46a121.71,121.71,0,0,0-18.17-.39"/>
  </g>
  <g class="eye">
    <path class="sclera" d="M117.37,65,76.54,53.86l42.7-.07C120.48,57.57,119.66,61.48,117.37,65Z"/>
    <g class="irisDarkBrown">
      <ellipse cx="97.28" cy="55.72" rx="3.47" ry="3.38" transform="translate(26.3 142.5) rotate(-80.52)"/>
      <ellipse cx="115.27" cy="58.33" rx="3.47" ry="3.38" transform="translate(38.76 162.43) rotate(-80.52)"/>
    </g>
    <g class="pupil">
      <ellipse cx="97.28" cy="55.72" rx="1.35" ry="1.31" transform="translate(26.3 142.5) rotate(-80.52)"/>
      <ellipse cx="115.27" cy="58.33" rx="1.35" ry="1.31" transform="translate(38.76 162.43) rotate(-80.52)"/>
    </g>
  </g>
  <g class="skinEastAsian">
    <path d="M56.16,59.46c7.19,14.63,7.65,11.23,7.26,34.17-.75,12.46,40.33,23.7,31.9-7.06"/>
    <path d="M107.2,224.4c2.38,5.48,4.34,4.53,6.22,11.8a46.46,46.46,0,0,0,.22,7.06c-3.48,5-.6,8.64,2.69,7.74.58-2.9,2.58-4.69,2.9-8.77,3.89-3.1,3.66-5.13,3.24-8.69,1.23-1.48,2.65-7.72.91-10.76-2.26-3.93-1.36-8.83-4.74-15.7-.9-.68-6.94-1.2-8.21-1-7.89,9.93-7.89,14.35-10.51,19.26Q103.49,225,107.2,224.4Z"/>
    <path d="M60.61,226.56a59.92,59.92,0,0,1-5.76-5.05c-3-5.94-7.92-7.68-11.66-14-1.51,1.55-9.47,3.81-14.18,6.16.27,4.12-2.29,8.45-.93,20.47.13,1.4-1.39,2.61-1.62,4.16-.39,2.6,3,4.28,5.64,2.8-.61,1.41,2.54,3.42,4.62,2.48-3.35,3.15-4.89,7.37-.8,8.24,1.54-.67,1.54-2,4.49-3.55,2.12-1.11,3.28-3.5,4.48-5.79a4.49,4.49,0,0,0,.47,2.24c-2.94,3.55-2.68,8.64,1.41,8.38.13-1.61,3.82-6.17,4.15-9.38,2.08-8.51.2-11.59,0-17.64Q55.71,226.38,60.61,226.56Z"/>
    <path d="M68.42,68c-4.54,1.29-5.59-1-6.93-3.08C32.89,42.43,99.66-3,121.69,30.5c-2.64,12.54,3.66,15-.4,24-.36.82,1.41,2.53-1.56,4.36a14.13,14.13,0,0,0,.09-1.62,5.22,5.22,0,0,0-6.51,2.88c-.29.64.76.55,1.17.7,2.67,1,4.52,1.73,4.93-.35,1.39,1.4.44,1.83.57,2.48,1.58,8-1.53,18.48-10.19,26.82-3.24,3.11-3.7,7.81-10,7.26-7.35-.65-10.5-3.38-18-7.63a27,27,0,0,1-11.24-12m34-19.12a5.42,5.42,0,0,0-4.69-4.19c-3.11-.33-5.35,1.75-7,2.63,2.81,2,5.87,3.59,10.83,2.28C104.05,59,104.74,59.21,104.5,58.33Z"/>
  </g>
  <g class="skinOverlapLine">
    <path d="M35,234.3c-.89,2.9-1.93,5.8-2.74,6.75"/>
    <path d="M40.73,233.77c-.67,3.88-1.56,8.17-3.86,9.76"/>
    <path d="M46.31,232.29c0,3.79.22,5.51-1.26,10.14"/>
    <path d="M118.26,229c.75,5.12,1.9,9.9,1.12,13.24"/>
    <path d="M122.17,226.85c.33,2.18.32,4.79.46,6.69"/>
    <path d="M54.85,221.51c.84,2.18,1.07,3.52,1.65,4.87"/>
  </g>
  <g class="skinFoldLine">
    <path d="M67.68,52.19c-2.27-10.34-14.09-1.55-6.55,7.6"/>
    <path d="M66.79,56c-2.28,1.38,2.33,4.14.23,5.38-1.87,1.1-1.2-2-3-3.39-4.1-3,.26-7.16,1.46-4.87"/>
  </g>
  <path class="lipMaleMedium__noStroke" d="M104.86,79.07a3.92,3.92,0,0,0,4.1.49c1.06.76-.17,1.3.89,1.7-2.13,1.28.68,5.75-6.25,6.66-5.18.68-5.87-6.32-8.18-8C100.43,80.85,102.5,78.72,104.86,79.07Z"/>
  <path class="teeth" d="M96.26,80.28c3.76.63,7.34-.23,7.89.42,2.27,2,3.25.17,4.1.52C107.64,85.39,101,84.66,96.26,80.28Z"/>
  <g class="lipOverlapLine">
    <path d="M95.12,79.8a5.42,5.42,0,0,0,1.3.51"/>
    <path d="M108.25,81.22a2.69,2.69,0,0,0,1.76-.09"/>
  </g>
  <g class="lipEdgeLine">
    <path d="M109,79.56a3.92,3.92,0,0,1-4.1-.49"/>
    <path d="M108.26,85.42a5.72,5.72,0,0,1-9.64-.29"/>
  </g>
  <path class="cheekLine" d="M101.76,70.18a40,40,0,0,0-8.23,9.27"/>
  <g class="noseLine">
    <path d="M111.65,66.74c-.16,4.28,2.84,7.93-.52,9.53-2.77,1.31-4.4-.69-7.59-1.22-1.53-.26-4.92-.64-1.71-4.85"/>
  </g>
  <g class="eyeFoldLine">
    <path d="M118.43,64.53a3.47,3.47,0,0,1-3.38-.3"/>
    <path d="M101.92,61.82A7.92,7.92,0,0,1,95.29,61"/>
  </g>
  <g class="eyeCornerLine">
    <path d="M90.78,57.49a5.39,5.39,0,0,0,2.06-.72"/>
    <path d="M120.39,57.8a.69.69,0,0,0-.57-.54"/>
  </g>
  <path class="eyeCreaseLine" d="M93.09,54.72c5.74-3.88,9.22-1.54,11,.34"/>
  <g class="eyebrowBlack">
    <path d="M108.35,47.73c-3.4,4-11.23-.67-16.83,1.65C97.46,44,101.15,48.55,108.35,47.73Z"/>
    <path d="M115.72,48.89c1.08,2.75,3.44,3.22,6.28,3.82a14,14,0,0,0,.46-1.7C119.79,50.05,118,50.42,115.72,48.89Z"/>
  </g>
  <path class="hairBlack" d="M102.53,28.45c-.78,6.53-.7,10.4,1.39,13.38a8.73,8.73,0,0,1,1-5.63c.94,10.89,11.08,9.95,13.47,12.24a9.08,9.08,0,0,0-2.44-3.63c1.58,1.88,6.75,1.53,9.44,5.38,1.83-5.28,3-11.84-1.16-19,1.42.54,2.78,1.59,5.13,1.35-7.8-7.16-3.82-17.23-27.76-26C92.07,3.14,76.4,3.05,67.87,8.87c1-3.53,2.76-6.8,6-8.31-5.27.9-8.31,5.28-9.62,9.91a7.28,7.28,0,0,0-10.11.09c3.52-1.25,6.11-.65,7.62,2.06C50.27,23.34,43.55,50.3,57.81,67a6.24,6.24,0,0,0,3.65-2C58.09,59.71,55,56.44,57.74,49.3c2.38-6.14,12.2-5.27,11.55,2.21a25.32,25.32,0,0,0,5.65,1.87c.94-5.28,2-4.46,7.38-8.49,5.55.39,10.06.65,13.29-5.51-.65,2.1-1.28,3.76-1,5.49C95.94,41.06,100.82,41.12,102.53,28.45Z"/>
  <path class="hairOverlapLine" d="M82.34,44.74a23.14,23.14,0,0,0-5.51.47,31.52,31.52,0,0,1,4.69-2.81"/>
</svg>
