<svg viewBox="0 0 207.33 457.21">
  <g class="soleWhite">
    <path d="M134.72,409.49c6.11-.73,15.28-6.36,18.23,1.45.72,14.45-18.3,15.66-37.06,25.45-5.55,2.89-13.94,5.13-15.53,4.28a6,6,0,0,1-2.71-4.6Z"/>
    <path d="M58.15,440.78c6.89.61,9.94,6.37,9.08,11.26-15.77,9.9-24.21,2.21-37.29-.13-5.79-1-14.76-3.21-16.35-5.9a7.78,7.78,0,0,1-.11-6.14Z"/>
  </g>
  <g class="bennettShoe">
    <path d="M105.4,395.05c3.45,5.55,7.19,10.44,12.78,11.87,5.35,1.37,11,3.72,16.54,2.57a14.67,14.67,0,0,0,2.13,11.69c-5.63,3.7-15,5.94-25.07,11.1-3.91,2-11,4.15-14.13,3.79-3.71-4.68-4.39-18.85-7.9-29.47Z"/>
    <path d="M38.55,410.4c-.6,5.32.09,10.28,2.89,14.43,4.84,7.16,10.12,13.67,16.71,15.95-6.64.47-10.91,3.53-12.61,9.42-5.1.16-13-3.44-20.66-5-4.4-.9-10.2-3.31-11.4-5.32-1.13-5.73,4.23-16.42,3.61-26C22.9,407.39,31.19,406.86,38.55,410.4Z"/>
  </g>
  <g class="shoelace">
    <path d="M41.44,424.83a16.45,16.45,0,0,1-1.27-2.22,12.16,12.16,0,0,0-6.42.75c1.07,4.4,4.18,9.62,8.14,15a25.92,25.92,0,0,1,9.3-1.77A60,60,0,0,1,41.44,424.83Z"/>
    <path d="M127.09,414.2a9.41,9.41,0,0,1,2.61-4.5c-3.9-.39-7.78-1.82-11.52-2.78a14.05,14.05,0,0,1-4.83-2.33,9.42,9.42,0,0,0-3.3,3.21C114.37,411.45,120.12,413.51,127.09,414.2Z"/>
  </g>
  <ellipse class="converseLogo" cx="104.7" cy="423.28" rx="5.67" ry="5.81" transform="translate(-145.39 66.09) rotate(-21.1)"/>
  <path class="bennettJeans" d="M3.7,216.71c-6.94,14.82-1.28,27.07-1.14,33.06-.69,2.17.55,2.7,2,5.88,1.08,2.4,2.79,41.44,6.92,57.21.61,3.53-4.05,6.43-.3,10.26,1.9,1.95-1.4,4.91.91,7.66,1.51,1.79-2.31,5.72.31,8.42-3.33,14.32,1.07,37.52,1.23,55.13.05,6-5.15,11.83.15,17-3.68,5.36,2.3,6.58,2,13.9,2.82-4.77,12.56-6.55,16-9.65-.23-4.25,6.81-4.87,6.77,1.42,2.47-2,3.14-4.38,1.71-7.14,4.84-5.19.88-10.63,1.25-16.3,1.17-17.93,4.54-37.37,2.91-50.53,4-5.82-.13-9.93,1.68-12.25,3.68-4.72-1.08-2.91,3.06-19.6,10,18.83,2.43,19.6,9.16,22.51-2.13,5.67,2.63,6.58,2.77,9.34.71,14.54,11.26,29.42,15.77,45.48,2.41,8.59,1.71,15.58,6.6,16.54-2.61,4.59.46,6.58,3.83,5.51.48,3.71,3.21,4.44,5.06,6.46.76-3.94,7.55-9.32,11.07-14-2-4.38,1.94-7.29,4.11-4.71,1.27-3.31,1.52-4.88-.62-6,5-6.07-.57-5.86-2.6-11-5.84-14.87-8-38.13-12-47.47,2.86-4.44-2.45-6.58-1.83-10.26,1.8-5.64-2.68-9.11-3.68-15-1.08-6.36-1.71-12.2-3.06-17.46C51.45,244.81,20.8,213.56,3.7,216.71Z"/>
  <path class="dishroomApron" d="M80.91,160.54c-1.28,16.14,1.87,33.26-4.76,38.89,1.85,3.12,2,6.45-1.23,10.21.87,2.54.68,4.81-1.09,6.68,2.32,3.4.08,3.76.27,5.72.25,2.51,2.32,3.4-1.09,7.22,2.4,1.94,3.32,4.31,1.91,7.35a6.06,6.06,0,0,1,1,6.27c-.82,1.22,4.08,11.36,6.4,30.7,2.59,3.82.41,7.77,1.22,11.31,2.37,2.13,1.09,6.4,2.36,9.93-6,5.7-54,12.34-68.24,8.2C7.07,300,5.48,295.59,6,281.19c.78-22.07,1.25-43.57,3.66-61.38-5.57-13.51,31-119,58.82-118.71C88.22,109.57,85.54,131.85,80.91,160.54Z"/>
  <g class="dishroomShirt">
    <path d="M9.65,219.81a20,20,0,0,1-7.56-2.15,11,11,0,0,0,1.47-4.73c-1.25-2.78,2.18-5,4.4-7.66-2.85-4.77,2.26-7.78,3.64-12.58-5-6,2.08-9.46,1.92-15.77-3.13-6.53-.32-6.24,2.05-11.44,2.07-4.55.5-11.94,4.65-21.52,11,8.76,23.44,19.12,18.45,27.15C23.2,196,11.38,187.87,9.65,219.81Z"/>
    <path d="M64,103.1c3,5.25,3.79,15.21,3.93,26.41a40.78,40.78,0,0,0,9.84.28c.7-8,2.59-28.22,1.38-30.16C73.28,96.78,66.41,94.45,64,103.1Z"/>
    <path d="M79.31,109.73c3.6,3.52,5,8.22,7,14.51,1.81.82,4,.81,5.59,6.57.56,2.06,6.24.33,7.06,5.91-1.64,9.69-9.35,18.89-18.06,23.82C84,138.21,83.81,120.09,79.31,109.73Z"/>
  </g>
  <path class="dishroomApronLace" d="M11.6,192.69a14.45,14.45,0,0,0,3.87,3.39A22.61,22.61,0,0,0,13.33,200a14.51,14.51,0,0,1-3.67-3.32C9.29,196.45,11.23,192.5,11.6,192.69Z"/>
  <g class="book">
    <path class="bookCover" d="M72.56,123.47,20,129a312.5,312.5,0,0,1,.53,35.89L73.27,159C73.89,149.65,73.4,137.08,72.56,123.47Z"/>
    <path class="paperStackLight" d="M79.55,161.39c-2.06-8.81-3.42-22.41-4.68-36.67l-2.31-1.25c.84,13.61,1.33,26.18.71,35.54Z"/>
    <polygon class="paperStackDark" points="79.55 161.39 73.27 159.01 20.49 164.88 28.46 166.95 79.55 161.39"/>
  </g>
  <g class="bennettSleeves">
    <path d="M61.43,163.79c-.14-2.74-1.38-2.28-2.87-4-3.82.38-21.71-.18-26.17-.31-.42,3.88-4,6.49-.83,11.11-2.45,3.67,5.91,8.76,9.17,12.43,10.91,3.57,23.35-4.07,24.87-13.66A5.7,5.7,0,0,0,61.43,163.79Z"/>
    <path d="M107.51,145.39c1.64-6.42-3.06-3.21-4.93-5.08-.44-.45-.78-4.66-3.61-3.59-1.47,8.68-7.81,17-15.37,22.14,4.1,2.29,8.85,7.95,18.08,10.84,5-3.5,15.72-16.31,17.15-20.6C111.07,148.5,112.73,141.36,107.51,145.39Z"/>
  </g>
  <path class="dishroomShirt" d="M62.31,159.6c-6.1.14-9.05,1.28-14.45,1.27s-13.89-1.8-18-1.27c.41-10.33,1.18-21,2.27-31.89l-9.34,1c4-25.85,13.45-29.66,18.55-38.23l16.43,8.64c8.23,6.26,6.8,22,5,43.79-.3,3.63.67,5,.57,7.79S61.6,155.77,62.31,159.6Z"/>
  <path class="dishroomCollar" d="M39.78,91c3.12-4,3.82-9.78,8-8.64,16,4.38,23.64,5.64,31.38,17.25-2.55-.85-1.38,4.57-2.94,9.52.14-3.82-1-9.72-2.27-10.06-2.43-.65-3.38,5.39-5.37,9.92C58.2,99,40.2,95.27,39.78,91Z"/>
  <g class="clothesDisplayLine">
    <path d="M76.18,109.15a29.33,29.33,0,0,1-.62,8"/>
    <path d="M136.85,421.18c7.23-3.88,11.23-8.57,11.17-14.28"/>
    <path d="M45.54,450.2c7.5,1.05,16.36,0,20.81-4.14"/>
  </g>
  <g class="clothesOverlapLine">
    <path d="M49.16,311.18a79.65,79.65,0,0,0,1.26-8"/>
    <path d="M103.42,403c2,.67,4,2.61,6.63,4.8"/>
    <path d="M31.78,415.58c.69.94.91,4.81,2,7.78"/>
    <path d="M34.67,426.19a22.33,22.33,0,0,1,7-1"/>
    <path d="M35.91,428.94a30.13,30.13,0,0,1,7.59-1.15"/>
    <path d="M37.3,431.49A32.72,32.72,0,0,1,45,429.85"/>
    <path d="M38.65,433.68a30.27,30.27,0,0,1,8-1.86"/>
    <path d="M40.26,436.08a30.43,30.43,0,0,1,8.44-1.9"/>
    <path d="M112.18,409.4a14.62,14.62,0,0,1,3.47-3.41"/>
    <path d="M114.73,410.87a24.66,24.66,0,0,1,3.45-3.95"/>
    <path d="M117.35,412a14.85,14.85,0,0,1,3.62-4.33"/>
    <path d="M120.22,413a18.55,18.55,0,0,1,3.21-4.56"/>
    <path d="M123.66,413.73a9.29,9.29,0,0,1,2.84-4.56"/>
  </g>
  <g class="clothesFoldLine">
    <path d="M8,205.27a4.79,4.79,0,0,1,.46,4.2"/>
    <path d="M3.56,212.93a5,5,0,0,1,1.83,4.31"/>
    <path d="M17,198.93c5,6.59,11.09,6.85,12.54,8.34,2.21,2.26-.69,4.37-8.4,4.18"/>
    <path d="M26.76,200.24q5.56,4.47,14.1,4.75"/>
    <path d="M34,213.29a50.48,50.48,0,0,1-14.33,5"/>
    <path d="M68.9,212a67.56,67.56,0,0,1-18.69.53"/>
    <path d="M57.86,200.51c-4.75-1.26-8.88-4.73-12.78-9"/>
    <path d="M76.15,199.43a7,7,0,0,1-4.61,1.47"/>
    <path d="M73,229.26c-2.13,1.69-8.85,1.56-5.82,3.67"/>
    <path d="M34.4,227.92c7.64,5,19.24,2.5,19.24,3.56.75,1-1.48,1.56-4.87,2"/>
    <path d="M29.13,252.17a142.15,142.15,0,0,1-.79,40.69"/>
    <path d="M33.35,244.66c2,11.89,5.33,23,10.67,28.7"/>
    <path d="M79.84,275.34c.92,6.45-14.34,6.85-21.59,1.18"/>
    <path d="M74.92,236.61c-1,1.32-2.5,1.46-1.27,3.3"/>
    <path d="M73.83,216.32c-12.31,5.8-31.65,2.9-33.1,4.61-2.24,2.64,13.17,4,24.51,3.17"/>
    <path d="M14.22,191.68a6.07,6.07,0,0,1,5.13-.2"/>
    <path d="M14.08,184.83c1.71,3.7,12-3.83,17.43-11.21"/>
    <path d="M20.83,166.9c-2.11,2.64-5.41,3.82-5.67,2.11"/>
    <path d="M34.66,172a15.89,15.89,0,0,0,3.56,6.85"/>
    <path d="M41.29,165.89a9.5,9.5,0,0,0,3.83-5.14"/>
    <path d="M47.47,165.44c.73-1.77,2.49-3.37,5-4.85"/>
    <path d="M58.56,159.82c1.36,2.84-.33,6.64-5.11,9.63"/>
    <path d="M61.43,163.79c-.7,4.63-4.7,8.37-11.41,11.39"/>
    <path d="M62.69,165.89a6.74,6.74,0,0,1-3,5.85"/>
    <path d="M30.26,127.9a5.39,5.39,0,0,1-1.91-3.23"/>
    <path d="M31.22,118.38c-.77,4.69-.86,9.1.91,9.33,2.13.26.2-19.69,13.71-22.93,4.72-1.13-3.8,2.13-7,8.88"/>
    <path d="M45.1,110.51c-3.75,3-6.62,6.43-7.78,10.83"/>
    <path d="M43.06,125.6c-1.5,15.47-3.61,28.81-9.53,29"/>
    <path d="M52.22,133.55c.46,8.42,5.64,23,8.88,17.4"/>
    <path d="M86.32,124.24c.78,2.37,0,6.12.78,5.52"/>
    <path d="M93.12,134.39c-5.39,2.65-1.21-2.53-1.84-5.52"/>
    <path d="M92.66,138.64c-4.44,2-7.07,3.2-10.08,6.33"/>
    <path d="M106.63,153.17c-2.65,4.59-5.39,8.68-8.52,10.92"/>
    <path d="M107.51,145.39a72,72,0,0,1-9.4,13.52"/>
    <path d="M94,159.65c.86-3-1.48-2.18-5.83,1.11"/>
    <path d="M102.58,140.31c-1,5.18-9.47,13.89-8.54,14.71,1.35,1.19,8-5.83,9.16-10.92"/>
    <path d="M112.11,145.39c2.15,2-3,8.15-4.6,13.52"/>
    <path d="M43.87,326.68c-4.64,3.87-10.61,1.66-18.16-1.8"/>
    <path d="M11.16,323.12A21.65,21.65,0,0,0,19,327.83"/>
    <path d="M42,340.37c1.59-5.69-8.05-2.81-16.37,1.41"/>
    <path d="M26.22,329.49c11.32,2.93,10.77,5.3-4.48,8.2"/>
    <path d="M86.28,318.48c2.3,8.71-11.17,5.89-20.77-2.69"/>
    <path d="M63.21,322.45c7.42,5,20.35,5.51,3.84,7.94"/>
    <path d="M58.32,333.69a13.45,13.45,0,0,0,7.57.54"/>
    <path d="M89.35,331.93c.1-6.88-9.78-1.24-18.33,5.76-3.83,3.13-1.19,3.87,4.09,3.71"/>
    <path d="M103.18,389.79c-6,3.42-15.64,5-20.5,1.79"/>
    <path d="M83.46,405.05a15.62,15.62,0,0,1,3.06-4"/>
    <path d="M87.29,410.56c6.27-4.2,9.21-10.05,10.24-8.86,1.51,1.75-6.09,4.65-7.5,8.35"/>
    <path d="M106.91,392.34c-1.91,2.27-11.18,5-16.35,9.25"/>
    <path d="M38.8,404.51c-3.21,4.8-15.47,4.13-19.27.62"/>
    <path d="M40.26,409.86a8,8,0,0,1-3.18,2"/>
    <path d="M13.76,411.33c3.81,3,20.53,2.16,7.23,4.51"/>
    <path d="M13.14,416.9c.82,1.58,4.67,1.72,7.37,1.63"/>
  </g>
  <g class="lancetPen">
    <path class="penCapLight" d="M179,175.79c-2.74-.59-4.78-.89-5.52-.72-1.77.4-2.61,3.6-1.33,4.66a22.49,22.49,0,0,0,5.08,2.26C176,180.94,177.23,176.19,179,175.79Z"/>
    <path class="lancetPenLight" d="M206.53,184.49c-2.22-1.77-18.58-6.78-27.53-8.7-1.77.4-3.05,5.15-1.77,6.2,8.62,3.1,25,7.43,28,7.16C206.76,189,207.77,185.48,206.53,184.49Z"/>
    <path class="lancetPenDark" d="M206.53,184.49h0c-1.56-.58-3.06,4.33-1.33,4.66h0C206.76,189,207.77,185.48,206.53,184.49Z"/>
  </g>
  <g class="eye">
    <path class="sclera" d="M107.27,62.69c-59.52-1.26-57.19-17.58,1.28-10.22A15.28,15.28,0,0,1,107.27,62.69Z"/>
    <g class="irisDarkBrown">
      <ellipse cx="87.18" cy="56.01" rx="3.35" ry="2.68" transform="translate(22.09 136.64) rotate(-83.81)"/>
      <ellipse cx="106.77" cy="57.61" rx="3.35" ry="2.13" transform="translate(37.97 157.55) rotate(-83.81)"/>
    </g>
    <g class="pupil">
      <ellipse cx="87.67" cy="56.22" rx="1.3" ry="1.04" transform="translate(22.32 137.31) rotate(-83.81)"/>
      <ellipse cx="107.16" cy="57.81" rx="1.3" ry="0.83" transform="matrix(0.11, -0.99, 0.99, 0.11, 38.12, 158.11)"/>
    </g>
  </g>
  <g class="skinEastAsian">
    <path d="M51.77,61.8c1.58,5.44-.16,12.18-4.58,21.76,1.68,3.79,21.38,10.76,26.71,15.53.53-4.08,3.68-8.64,5.86-9.5"/>
    <path d="M184,184.22c1.77-3.41,5.16-.52,8.95,2.62,3.54,2.68-1,7.18-4.78,4.13-1,2.43-4.31,3.42-6.21,1.7-2.3,3.75-6,2.2-8.18-.16,2.44,2.11-2,4.88-4.22,3.58A63.51,63.51,0,0,0,164,193c-8.23-2.93-7.9-10.5-10.18-11.23-19.46-4.45-40.32-6.19-51.48-12.58,4.87-3.82,13.81-14.44,16.08-19.17,13.15,7.19,25.6,14.94,41.17,19.12,7.63-5.08,12.74-.64,17.66-.16,8.15.78,8.94,5.4,12.77,5,1,1-.48,3.81-4.09,3.51,0,0-4.94-1.27-7-1.7-2.74-.59-4.78-.89-5.52-.72-1.77.4-2.61,3.6-1.33,4.66a7.94,7.94,0,0,0,1.51.85c2.81-1.47,5.49,1,8.08,2.93Z"/>
    <path d="M82.12,182.17a43.29,43.29,0,0,1-16.56-12.51c-1.6,8.82-12.42,15.92-22.64,14,8.85,9.11,24.49,8.15,40.73,13.93a18.21,18.21,0,0,0,7.74,1c4.22-.1,7.75.31,12.27-5.28,7.14-8.8,3.74-10.16,3.74-13.36.11-6.28-2.3-5.38-3.06-8.22-.64-2.4-5.21-6.46-8-8.15s-6.87-1-9-1.57c-3.29,1.49-1.12,6.22,5.15,6.36a12.35,12.35,0,0,0,4,3.65,5.89,5.89,0,0,0,.82,3.83c-3-.52-4.74-2.68-7.33-3.83-2.06-.83-3.68.8-7-.33-2.47.42-1.81,4.29.14,5.64C81.3,177.25,79.49,181,82.12,182.17Z"/>
    <path d="M55.21,65.6C49.54,68,47.46,59.76,46,57.45,29,33.7,96.65,1.27,112.85,36.66c.6,4-.43,6.66-1,9.07-.6,2.67.86,4.33-1.21,7.17-.68,1,.93,3.46-1.83,4.35,0-.35,0-.73.05-1.12A5.74,5.74,0,0,0,101,58c-.55.47,0,.77.46.72s6.74,2.87,7.27-.77c2.18,2.16.46,3.06.51,3.79.76,11.75-4,20.37-11.17,27.31-3.55,3.45-4.75,7.76-12,7.92S77,93.69,70,89.71c-3.63-2.08-10.17-7.83-12.5-13.82m33.09-19.4a6.66,6.66,0,0,0-5.71-3.25,16.19,16.19,0,0,0-6.58,2.14c3,1.85,7.18,4,11.72,1.86C90.42,57.06,91.09,57.27,90.63,56.49Z"/>
  </g>
  <g class="skinOverlapLine">
    <path d="M83.16,177.25a6.47,6.47,0,0,0,4.5,1.16,6,6,0,0,0-.8,5.54c-1.25-.49-3.1-1.1-4.74-1.78"/>
    <path d="M97.35,175.77a10.37,10.37,0,0,0,4.9-.24"/>
    <path d="M188.19,191c-2.64-2.3-5.27-4.37-4.17-6.75"/>
    <path d="M173.66,180.58c-3.27,2.81,2.83,7.37,8.32,12.09"/>
    <path d="M181.74,183.51c.82.79,1.1,1.37,2,1.77"/>
    <path d="M172.79,183c-1.86-1.24-5.73.68-3.9,3.41a28.58,28.58,0,0,0,4.91,6.06"/>
    <path d="M168.89,186.45c-2.59-1.17-5.32,2.05-1.29,6.53"/>
  </g>
  <g class="skinFoldLine">
    <path d="M84.18,183c1.87.09,2.42-2.7,1.94-3.48"/>
    <path d="M179.44,173.39a2.79,2.79,0,0,0,1.23,2.78"/>
    <path d="M55.05,51.49c.39-9.93-14.7-7.92-7,5.51"/>
    <path d="M54.1,52.59c-2.39,1.59,1.51,6.33-1,7.24-1.29.49.19-3.21-2.52-5-4.25-2.88,1.45-6.65,1.9-4.12"/>
  </g>
  <path class="skinCreaseLine" d="M160.92,177.23c2.51,2.38,7.79,3.88,11.94,3"/>
  <path class="lipMaleMedium__noStroke" d="M91,78.24a5,5,0,0,0,4.68.93c.45.78,1.33.55,2.33.71-3.11,2.06-1.6,8.89-8.83,8-5.76-.71-4.94-7.69-7.37-9.72C84,77.35,87.9,79.4,91,78.24Z"/>
  <path class="mouthInner" d="M82.64,78.16c2.35,4.78,6.36,7,9.4,6.65,2.25-.24,2.84-2,4.3-4.45-2.29.74-4.29.1-6.27-.56C89,79.45,84.52,78.72,82.64,78.16Z"/>
  <path class="teeth" d="M84,78.5c1.94,3.13,7.36,6.22,10.71,3.81a5.48,5.48,0,0,0,1.16-1.81,10.17,10.17,0,0,1-5.77-.7C89.2,79.51,86.12,79,84,78.5Z"/>
  <g class="lipOverlapLine">
    <path d="M98.59,79.29c-.73,1.1-1.7.85-2.25,1.07"/>
    <path d="M81.37,78.16c.34.1.76-.09,1.27,0"/>
  </g>
  <g class="lipEdgeLine">
    <path d="M95.68,79.17A5,5,0,0,1,91,78.24"/>
    <path d="M94.1,86.65a6.18,6.18,0,0,1-9-1.15"/>
  </g>
  <g class="cheekLine">
    <path d="M89.23,70.13c-1.34.65-8.64,5.61-11.44,10.19"/>
    <path d="M100.55,78.29a8.74,8.74,0,0,0,.15-3.55"/>
  </g>
  <g class="noseLine">
    <path d="M89.23,70.13c-.87,1.31-.93,2.67.54,3.62"/>
    <path d="M91.89,74.12c3.54-.38,6.38,2.95,8.81.62,3.06-2.92-1-6.49-.41-9.33"/>
  </g>
  <g class="eyeFoldLine">
    <path d="M80.82,59.91c1.86,1.71,5.53,1.61,6.81.59"/>
    <path d="M103,62.44c1.13,1.2,4.28.49,5-.32"/>
  </g>
  <g class="eyeCornerLine">
    <path d="M76,56a6.69,6.69,0,0,0,2.38-.61"/>
    <path d="M108.9,56.13a1.08,1.08,0,0,1,.49.7"/>
  </g>
  <path class="eyeCreaseLine" d="M89.86,53.61c-2.52-3.3-7.9-1.9-11,.18"/>
  <g class="eyebrowBlack">
    <path d="M94.07,46.66c-3.72,4.74-9.57-2.19-17.85,3.46C82.66,42.86,86.77,47.41,94.07,46.66Z"/>
    <path d="M111.7,51c-2.92-1.76-5.41-.8-8.58-2.14,1.82,3.22,4.43,2.26,7.92,3.47A6.06,6.06,0,0,0,111.7,51Z"/>
  </g>
  <g class="hairBlack">
    <path d="M44.08,50.05c-.7.36-1.37.74-2,1.1A12.29,12.29,0,0,0,46,57.45,13.31,13.31,0,0,1,44.08,50.05Z"/>
    <path d="M110.08,34.71c5.36,2.41,6.31,8,3,13.74-2.68-2.19-5.92-1.73-7.85-4.38A15.38,15.38,0,0,1,107,48c-2-2.61-14.08-.88-13.38-11.74a16.75,16.75,0,0,0-1.31,4.57c-1.18-3.42-2-5.87-.25-12.18-3.57,12.2-7.78,12-9.62,16.09A14.45,14.45,0,0,1,84.17,39c-3.49,5.87-11.65,7.41-16.06,5.66-5,2.4-3.86,4.09-4.51,6.87a21.09,21.09,0,0,1-6.81-2.21,8.86,8.86,0,0,0-1.12-4.58C67.77,30.84,92.58,21,110.08,34.71Z"/>
  </g>
  <path class="hairOverlapLine" d="M68.11,44.69a10.83,10.83,0,0,0-3.17-.89c2-.85,4.9-1,6.24-1.66"/>
  <path class="cafeteriaHatMesh" d="M41.44,24.9c.58-5,5.69-6.44,8.34-9.63C54.19,10,56.89,3.32,67.52,3.09,76,2.91,83.73-.55,89.79.42c8,1.28,9.57,4.85,15,7.07,3.4,1.4,7,3.58,6.43,6.87Z"/>
  <path class="cafeteriaHatDark" d="M110.08,34.71c4.29,1.93,5.75,5.9,4.46,10.33,3.13-.45,7.2-.51,12.43-5C133.79,30.64,127.15,24.2,110.08,34.71Z"/>
  <g class="cafeteriaHat">
    <path d="M126.27,28.5c-19.68,3-34.64-.77-56.47,7.14,29,5.28,55.7-5.3,57.67-5.35,1.91.62,1.46,7.3-.5,9.72C130.75,36.17,131.41,27.72,126.27,28.5Z"/>
    <path d="M115.24,29.61c-.84-2.4-.1-3.44-.47-5.63s-1.37-2.58-1.83-4.49c-.63-2.62.94-2.86-1.74-5.13C90.74,1.64,73.65,8.44,65,10.9,54.73,13.79,42,24,40.6,25.61c-2,3.2-.47,8.19-1.25,11.76-.93,4.26.79,5.92,1.54,8.53.52,1.8,0,3.58,1.17,5.25.63-.36,1.31-.73,2-1.1,0-7.31,7.5-10.23,11.59-5.28,4.84-1.94,8.15-7.57,14.13-9.13C87.39,29.27,100.51,30.46,115.24,29.61Z"/>
  </g>
</svg>
