<svg viewBox="0 0 207.19 288.87">
  <g class="condom">
    <path class="condomBag" d="M32.05,255.3c1.63,3.85-.56,6.35.66,9.53.8,2.06-1,2.53.15,5.26,1,2.27-.77,3,.17,5.81.75,2.27-1.39,4.71.5,6.66,1.38,1.42.4,5.82,2.93,6.06,1.58.15,2.6-2.27,2.24-4.49a4.67,4.67,0,0,0,2.55-2.8c1-3-.82-3.2.15-5.83,1.11-3-.95-3.47-.15-5.59,1.07-2.84-.63-3.06.22-5.25,1-2.62-1.54-6.24,1.27-9.66C43.47,244.65,31.05,244.28,32.05,255.3Z"/>
    <g class="condomCreaseLine">
      <path d="M35.06,262.68c-.8,1.86.36,2.34-.32,4.65s1.15,3.54.45,5.73c-1.21,3.75,5.83,4.18,1.75,9.6"/>
      <path d="M37.25,260.1c-.34,4.2,3.16,5.45,1.89,9.94-.78,2.77,1,3,0,5.18"/>
    </g>
    <g class="condomFoldLine">
      <path d="M38.7,284.13a2.86,2.86,0,0,0-1.83,2"/>
      <path d="M34,252.05a7,7,0,0,1,1.07,4.21"/>
      <path d="M38.79,256.57a5.91,5.91,0,0,1,1.8-5"/>
    </g>
    <path class="condomRing" d="M37.15,246.56a5.82,5.82,0,1,1-5.92,6A5.94,5.94,0,0,1,37.15,246.56Zm-4.47,5.94a4.65,4.65,0,1,0,4.51-4.56A4.54,4.54,0,0,0,32.68,252.5Z"/>
  </g>
  <path class="bennettJeans" d="M122.11,145.59c1.47,5.71,5.89.55,5.34,4.79,15.5,6.74,31.27,17.81,47.15,30.94,6.82.56,4.84,6.41,7.55,10,6.63,8.66,14.74,16.13,24.75,28.13l-24.32,58.71C173.75,265,142.1,226.81,142,221.48c-1.47,1.47-4.74.28-5.34-2-2,.62-4.37-1.08-6.82-3.68-19-4-36.48-6.52-45.86-10a39.25,39.25,0,0,1-25.05-33C75.89,159.15,97.61,150.81,122.11,145.59Z"/>
  <path class="shirtWhite" d="M120.43,135.25c1.13,2.55,3.52,4.18,1.6,7.32,1,1.66,1.79,2.73,3.13,3.38C114,157.12,97.28,158.67,81.9,162.65c-8.4,6.22-18.16,11.94-23.68,12.31,1.5-5.31-3-5.62-1.13-8.67-2.4-1.19-3.56-3.45-2.26-5.47-3-1.84-1.3-4.47-1.23-8.14a4.34,4.34,0,0,1-2.05-4.37c-3.39-.51-3-4.17-3.69-6.63-3.91-.94-.36-3.88-4.17-7.66C24,74.26,92.34,46.59,120.43,135.25Z"/>
  <path class="bennettSleeves" d="M27.89,173.73c-3.19,2.57-18.42,4.12-23,2.83a14.33,14.33,0,0,1-.28-4.81c-2.49-11.75,2.18-22.94,4.11-34,1.88-10.75,2.78-23.25,7.19-31.43,14.06-26.1,35.69-42.69,62.44-44.08,2.86-1.88,5.45-2.48,7.49-.42,3.5-1.88,4.36,0,6.12.06s3-1.37,4.42.27c1.27,1.43,3.73-.07,7.42,5.36s3.23,6.67,3.9,9.67c.22,1,2.76.41,1.89,3.93a187.66,187.66,0,0,1,10.45,23,3.61,3.61,0,0,1,1.85,4.18c3.66,8.15,6.58,16.79,4,24-1.5,4.23-9.39,6.9-17.94,7.76,1-5.91-4.67-19.2-9.1-21.15,1-1.84,3-.73,2.88-2.5-2-.45-2.29-1.65-1.39-3.34-2.83-1.62-2.29-4.44-2.51-7.15-2.5-2.33-1.26-6.69-3.37-8.23-1.87-.79-1.36-3.22-2.76-4.38-1.66-.88-3.1-3.07-4.46-5.73-3,.93-6.46-2.33-10.9-4.88C77,95.39,60.5,105.38,45.78,100.42c-3,6.11,0,6.41-2.1,9-4.28,7.11-7.39,15.68-9.72,24.92-1.55,10.42-4.05,14.25-4.51,17.76-.48,3.68-.2,5.79-2.52,7,1.16,2.6,1.16,4.58-.58,5.63C27.77,167.41,26.64,171.45,27.89,173.73Z"/>
  <g class="clothesDisplayLine">
    <path d="M106.7,160.74c3.45,2.39,4.94,5.85,5,10.09"/>
  </g>
  <g class="clothesOverlapLine">
    <path d="M73,182.69c8.81-13.89,22.09-16.79,38.74-11.86,13.68,4,28.43,10.63,47,20.4,12.62,4-1.22,11.73,34,44.77"/>
  </g>
  <g class="clothesFoldLine">
    <path d="M4.58,171.75c2.23,1.33,6.68,1.29,11.56,1"/>
    <path d="M26.35,164.66c-7.76,2.54-16.93,1-16.93,3.18,0,1.78,1.64,2.18,12.53.72"/>
    <path d="M26.93,159c-3.07.82-9.12-1.5-6.43,1.82"/>
    <path d="M12.51,143.86c.09,3.91,2.81,10.9-1.82,13.9"/>
    <path d="M14.42,127.06c-1,15.19,1.71,25.77,11.71,27.34"/>
    <path d="M21.23,122.52c1.36,2.45,3.63,2.55,8.26,7.54"/>
    <path d="M18.87,114.26c2.38,5.53,6.53,8.44,10.17,11.08"/>
    <path d="M25.22,111.44a27.56,27.56,0,0,1,7.81,8.9"/>
    <path d="M27,105.18a29,29,0,0,1,8.62,12.44"/>
    <path d="M33.12,105.81a25.74,25.74,0,0,1,3.73,10.54"/>
    <path d="M35.48,104.54a25.34,25.34,0,0,1,3.27,10.72"/>
    <path d="M43.68,109.37c8.24,3,13.31-.44,14,.71.43.76-4,3.83-7,5.47"/>
    <path d="M46.2,108.08A34.23,34.23,0,0,0,60,105.45"/>
    <path d="M65.45,106.54c-2.63,4.09-9.55,8.95-11.91,10.77"/>
    <path d="M75.17,103.63c-3.81,6.51-9.18,13-15.66,17.27"/>
    <path d="M82.07,90c-1.31,11.71-5.92,22-15.07,30.42"/>
    <path d="M87.43,99.09a18.08,18.08,0,0,1-5.18,7.81"/>
    <path d="M47.86,141.68c3.35.23,5.88-2.72,8.87-4.17"/>
    <path d="M51.55,148.31c5.54.5,14.91-1.77,12.63,1"/>
    <path d="M60.28,142.41a53.92,53.92,0,0,0,12.35-6.36"/>
    <path d="M62.73,143.77a46.25,46.25,0,0,0,13.79-8"/>
    <path d="M53.6,152.68c14.15,3.37,29.51-2.22,45.45-12.09"/>
    <path d="M70.36,149.49c8.74-2.09,16.28-5.42,22.08-10.52"/>
    <path d="M54.83,160.82c1.78.23,2.66.91,1.9,2.39"/>
    <path d="M57.09,166.29a19,19,0,0,0,3.64-.18"/>
    <path d="M55.92,157c5.32,2.31,13.33,2,22.34.64"/>
    <path d="M66.45,165.66c4.66-.15,10.17-2.18,15.45-3"/>
    <path d="M122,142.57c-5.93,6-14.44,10.2-26.7,11.92"/>
    <path d="M116.85,143.23c-8.3,6-19.5,9.53-33,11.17"/>
    <path d="M94.39,111.94a46.14,46.14,0,0,1-7,9"/>
    <path d="M94.89,116.58a23.23,23.23,0,0,1-3.49,3.72"/>
    <path d="M95.16,98.43c-3.22.53-5.83,2.48-7.73,6.11"/>
    <path d="M88.36,93.77c1.36,1.76,2.9,2.63,4.69,2.23-.21-4.46,7-10.37,12.58-16"/>
    <path d="M108.05,91.56c-5,.22-11.06,2.76-13.59,6.08"/>
    <path d="M83,76.78c2.09,2.84,2.94,7.47,4.2,10.75"/>
    <path d="M85.81,61.85c-11.46.42-5.15,18.52-8,28.71"/>
    <path d="M78.32,62.27c-1.92,1.5-3,4.48-3.19,7.86"/>
    <path d="M93.28,66.54c-2.71,9.74-3.66,18.81-1.58,26.72"/>
    <path d="M97.82,72.46c-3.32,3.6-5.81,13.84-5.15,19"/>
    <path d="M109.56,81.14c-2.83,3.19-9.69,7.7-4.6,7.43"/>
    <path d="M100.77,117.57c5,0,9,4.9,12.94,10"/>
    <path d="M119.57,129.42c-3.74-7.4-10.3-12.84-17.84-13.06,8.67-3.07,19,1.73,21.71,8.9"/>
    <path d="M115.58,120.46a24.32,24.32,0,0,1,6.93,8.24"/>
    <path d="M100.34,113c2-1,5.25-1.2,2.7-3.72"/>
    <path d="M101.23,104.18c4.87-1.43,12.52-1,18,2.81"/>
    <path d="M99.49,102.43A26.59,26.59,0,0,1,120,104.11"/>
    <path d="M125.24,153.12c-5.06,2.74-9,6.17-11.59,10.49"/>
    <path d="M122.48,156.54a44.09,44.09,0,0,0-8.28,12.25"/>
    <path d="M98.31,161.07c-8.61,2.76-22.84,4.85-29.58,14"/>
    <path d="M80.87,168.57c-6.12,3.38-10.81,7.53-13.79,12.58"/>
    <path d="M103.17,166.36a39.63,39.63,0,0,0-13,1.88"/>
    <path d="M126.34,148.51c-3.86,1.08-9.68,4.63-15.23,8.92"/>
    <path d="M174.6,181.32c1.53,1.16,2.39,1.68,3.05,3.36"/>
    <path d="M129.84,215.77a25.72,25.72,0,0,1-3.06-4.6"/>
    <path d="M161.32,194.73c2.49,1.13,5.11,7.45,7.87,12.53"/>
    <path d="M153.49,217.13c-3.87-13.58-8.94-12.36-6.85,5.18"/>
    <path d="M136.66,219.45c-1.93-5-1.52-14.21-4-13.91-1.88-.26-1.41,3.9-.77,8.39"/>
    <path d="M142,221.48c-1.31-7.66,4.2-16.35,1.33-17.93-2.2-1.2-2.87,3.86-3.2,10.6"/>
  </g>
  <g class="eye">
    <rect class="sclera" x="15.02" y="66.88" width="40.28" height="10.01"/>
    <g class="irisDarkBrown">
      <ellipse cx="44.15" cy="73.14" rx="3.23" ry="2.38"/>
      <ellipse cx="21.08" cy="73.14" rx="3.23" ry="2.38"/>
    </g>
    <g class="pupil">
      <ellipse cx="43.99" cy="73.68" rx="1.26" ry="0.92"/>
      <ellipse cx="20.92" cy="73.68" rx="1.26" ry="0.92"/>
    </g>
  </g>
  <g class="skinEastAsian">
    <path d="M64.78,58.61S67.87,73,70.13,75.06C82,90.2,48.35,106.8,40.88,90"/>
    <path d="M38.3,246.63a6,6,0,0,1,4.22,2.7c1-.2,1.75-.89,1.6-1.85-4.67-6-1.73-10.77-2.23-13.61-1.43-13.2-7.52-14.52-9.39-17.48-5.79-15.63-2.58-25.54-5.31-42.21-4.08,2.19-16.78,3.48-21.68,2.53C7.15,189.93,15.87,205.49,17.27,219c.9,5.67-4.23,6.66-.67,19,1,3.76,3.2,7.59,5.79,6.09a3.58,3.58,0,0,0,4.16,1.32c1.26,1.21,2.93,1.33,4.88.72a13.38,13.38,0,0,0,3.65,5.58c2.1,2.4,6.06-.95,3.22-5"/>
    <path d="M58.44,134.22c18.93-.84,30.44,7.06,49.57,5.24.54-5.94-4.49-17.84-8.7-20.36-14.63,2.11-22.18,4.52-38.45,2.33-3.08-.53-15.6-11.46-19.38-7.16-3.16,1.56-2.81-.37-8.3,6.14-2.18,2.59-5.47,4.39-3.85,7.36-.58.7,0,3.18,1.28,3.22a3.68,3.68,0,0,0,1.52,3.37c3.95,2.52,7,2.6,8.44.51C49.68,138.61,54.07,134.17,58.44,134.22Z"/>
    <path d="M11.26,67.6c-2.56-5.21-.72-14.3-1.4-23.55,19-26.33,65.69-19.82,65.83,5.49C80,54.47,76,63.16,73,67.06c-1.4,1.8-1.78,3.77-4.46,3-.81,13.49-9.79,20-18.76,24C46.58,95.46,44,98.45,39.21,98c-5.62-.57-4.48-1.54-9.33-4.06-5.48-2.85-12.51-6.43-15.31-13.6C12.79,75.75,12.48,70.08,11.26,67.6Zm28,6.46c1.92-.15,2.93.39,5.11-.16a11.84,11.84,0,0,0,5.55-3.53c-3.88,1.49-9.5,1-11.14,3C38.15,74.17,38.82,74.09,39.26,74.06ZM26.6,73.31c-3.18-2-8.7-1.27-10.25-1.94.37,1.6,2.34,2.56,4.29,2.83,1.79.25,3.3-.37,5.07-.33C26.15,73.88,27.52,73.88,26.6,73.31Z"/>
  </g>
  <g class="skinOverlapLine">
    <path d="M36.71,120c-2.6,2.88-5.84,5.39-7.38,7.82"/>
    <path d="M30.61,131c1.31-2.74,4.27-4.38,6.78-7.21"/>
    <path d="M40.57,134.87a17.33,17.33,0,0,1-3.54-2"/>
    <path d="M29.39,235.29a39.52,39.52,0,0,0,2,10.77"/>
    <path d="M23.91,237.12c.2,2.44,1.32,6.4,2.64,8.22"/>
    <path d="M20,237.52a13.36,13.36,0,0,0,2.44,6.5"/>
    <path d="M37.72,230a29.32,29.32,0,0,1-.91,6.09c-.57,2.85.29,7.71,1.49,10.53"/>
  </g>
  <g class="skinFoldLine">
    <path d="M37,130.44a6,6,0,0,0,.05,2.42,5.51,5.51,0,0,1-3.38-.28"/>
    <path d="M70.42,58c1.57-9.91,7-5.86,4.54.33"/>
    <path d="M70.38,59.73c2,.9-.9,4.61.3,5s.33-1.53,2.1-3.82,1.09-6-.45-3.9"/>
  </g>
  <path class="lipMaleMedium__noStroke" d="M32.75,88.88c.85-.21,1.48,1.44,3.72-.25,3.43,1.3,5.54-.45,8.19-.11-2.2,2-2.06,5.49-8,5.83-4.67.28-4.7-4.12-8.44-5.52C29.39,88.5,31.72,89.72,32.75,88.88Z"/>
  <path class="teeth" d="M39.89,89.46a6.27,6.27,0,0,0-3.28.86A5.4,5.4,0,0,0,39.89,89.46Z"/>
  <g class="lipOverlapLine">
    <path d="M45.64,88.61c-2.19-.42-4.08.79-5.75.85"/>
    <path d="M36.61,90.32c-2.09,1.15-3.25-.71-4.71-.82-2-.16-3.73-1.1-4.28-.49"/>
  </g>
  <g class="lipEdgeLine">
    <path d="M36.47,88.63c-2.24,1.69-2.87,0-3.72.25"/>
    <path d="M42.39,91.71c-3,3.34-8.37,3.84-11-.34"/>
  </g>
  <path class="cheekLine" d="M39.33,80.08a11.43,11.43,0,0,1,4.75,3.54"/>
  <path class="noseLine" d="M27.09,80.61c-.84.76-1.27,3.82.37,4.64,1.06.53,1.64,3.06,4.79,3,3.76-.12,2.6-1.56,6.29-2.9,2.71-1,2.27-4.65.79-5.23"/>
  <g class="eyeFoldLine">
    <path d="M49.26,74c-2.06,2.37-5.64,2.74-8.17,2"/>
    <path d="M26,75.81c-2.69,1.06-5.91,1.16-7.39-.16"/>
  </g>
  <g class="eyeCornerLine">
    <path d="M16.35,71.37a4.3,4.3,0,0,1-1.85-1.21"/>
    <path d="M51.67,69.44a9.75,9.75,0,0,1-1.75.93"/>
  </g>
  <g class="eyebrowBlack">
    <path d="M36.36,69.31C43.23,71.19,48.92,65,54.1,65.69,49.88,63.36,41.25,69.66,36.36,69.31Z"/>
    <path d="M27.22,68.9c-5.56,1.46-11.91-3-14.71-2C16.42,64.82,20.46,68.2,27.22,68.9Z"/>
  </g>
  <path class="hairBlack" d="M47.51,61.25c1.78.87,3.31,1.08,4.55,2.69-5.85-2.71-12.92,4.56-22.77-1.78,2.11,2.2,2.89,3.27,3.39,4.89-4.6-4.85-17.43-2.74-17.31-19-.74,10.56-2.75,12.13-9.69,15.49,3.15-9.77-3.43-12.13-.54-22.32-1,1.45-2.51,3-4.39,3.23,6.48-5.84.43-22,17-34-1.5-2.21-4.64-1.78-7.38-.21.36-2,7.08-5.34,10.3-1.61C20.52,4,25.82.88,30.86.25c-3.5,1-6.82,4.51-6.7,6.84C29.53,3.74,49.55.25,64,11.66,79.35,23.74,77.11,44.91,75.69,49.54c-3.28-2.65-6.58-.26-6.89,5.6a10.7,10.7,0,0,1-4.55,3.15C64.08,55.1,64.69,55,62,53,59,54.75,56.2,60.46,47.51,61.25Z"/>
  <path class="hairOverlapLine" d="M62,53a6.87,6.87,0,0,1,3.55-1.19c-1.64-1-4-1-6.79-.76"/>
</svg>
