<svg viewBox="0 0 129.03 281.81">
  <g class="soleWhite">
    <path d="M20.07,265.36c-3.91,2.3-10.31,4.86-8.32,12.64,6.35,4.48,19.44,4.88,30,.38,6-2.59,13.9-3.65,17-7.66a10.8,10.8,0,0,0,.64-6.76Q37.15,258.26,20.07,265.36Z"/>
    <path d="M126,231c4.1,6.32-1.19,19.45-1,33.8.13,12-22.63,10.77-27.07,6.71l5-12.28"/>
  </g>
  <g class="bennettShoe">
    <path d="M32.72,236.31c.38,6.07.61,11.91-2.31,16.24-3.51,5.19-4.38,10.18-10.34,12.81,6.22-2,16,1.17,17.08,7.77,4.44-.63,6.63-2.42,11.26-3.41s10.18-4.41,10.94-5.76C59,254,51,248.09,50.67,237,44.07,233.91,38.35,232.9,32.72,236.31Z"/>
    <path d="M120.75,222.85c4.91,3.11,7.85,13.21,4.81,20.11-2.06,4.71-1.7,13.23-3.68,20.22-4.16-5.39-14.92-5.76-19-4Z"/>
  </g>
  <path class="shoelace" d="M32.62,246.53a14.58,14.58,0,0,1-2.21,6c-1.87,2.76-3,5.46-4.52,7.78,4.43-.41,9.87,1.07,11.77,1.53,3.56-4.77,3.67-9.66,4.49-15C40.2,246.16,35.29,246.07,32.62,246.53Z"/>
  <path class="converseLogo" d="M50.36,264C45.94,265,44.27,253.82,49,252.52,53.16,251.39,54.78,262.9,50.36,264Z"/>
  <path class="shirtWhite" d="M121.58,170.82c1.5,2.72,5.43,4.41,2.91,8.44,1.42,1.08.84,2.72.53,4C-57.82,230.32,63.37-42.18,121.58,170.82Z"/>
  <path class="bennettSleeves" d="M24.28,145.53a25.07,25.07,0,0,1,12.7.07c-1.06-7.36-4.08-13-3.48-17.14a8.15,8.15,0,0,1-1.87-5.34c3.05-4.26,5.81-11.63,12.25-17.24,8.77,10.58,25.43,6.42,34.2-4.3a60.1,60.1,0,0,0,7.76,6.21c.64,2.85,2.31,3.74,4.24,2.48,1.61.71,5.26,3.55,8,4.4-3.36,6.46,1,6.53.75,15.72-1.7,5,.17,6.87,1.22,13,.8,4.64.2,11.59,2,15.41,0,1.52-2.21.72-2.42,3.77a12,12,0,0,0-3.77,3.1c-5.79,7.54,4.35,19.82,14.67,17.77,2.21-.44,3.2-1.72,4.83-2.86,7.86-5.44,6.25-8.56,7.66-9.67,2.71-3.3.71-7.87,1.24-10.49,4.42-4.92.68-5.94-1.07-10.91,1.55-3.1-1.07-7.33-1.28-15.4-.26-10.48-1.5-24.3-2-26.31-3.83-15-6.38-12.85-6.81-14.56-2.16-8.62-31.7-6.91-42.27-12.92L48.59,86.77C39.15,95.4,25.44,100.13,23.42,107c-1,3.48-3.73,3.35-1.08,13.2.27,5.38-.34,10,1.08,12.52A45.81,45.81,0,0,0,24.28,145.53Z"/>
  <path class="bennettJeans" d="M125,183.29c.17,1.63,3.4,3.46.89,6,5.15,8.82,3.35,25.59-5.33,41.54-.61,2.68,3.14,6.6-3.12,11.58.06,4.65-2.6,6.67-8.53,18.1-5.24,10.08-13.44,20.48-31.55,17.22-7.3-1.32-11.13-6.9-9.62-17-.1-6.43,4-19.47,8.15-32.47-5.71,1.8-17,.49-22-2.28.65,4.08,7.36,9.53-1,11.75,6.85,2.28,2.28,6,.93,10.82-3.22-4.62-8.6-3.48-11.69-4.7,0-6-9.15-4.33-9.23-.9-3,0-4.62-1.26-4.16-4.41-4.58-1.73,1-12.56-5.71-32.63-3.74-11.21-8.32-26.11-9.79-37.69-4.57-4.4.33-5.38.33-7.34-3.53-3.15-.07-4.77,1.3-7.51C20.19,142.91,32,144.34,37,145.6c9,2.28,21,21.74,32.73,36.88C113.6,190.8,117.35,181.66,125,183.29Z"/>
  <g class="money">
    <path class="dollarEdge" d="M13,196.45l5.43,4.9-6.16,12.51c-5.42.94-7.78-2.78-11.85-5.08C3.39,204.72,9.93,200.2,13,196.45Z"/>
    <path class="dollarEdge" d="M18.69,196.65c4.15,5.76,9.91,13.15,14,11.69,2.22-1.25,6.17,0,9.91.93a49.47,49.47,0,0,0-12.94,8.45l-16.16-1.56C9.41,214,6,207.92,3.26,205.31,6.91,203.77,14.41,200.1,18.69,196.65Z"/>
    <g class="dollarEdge">
      <path d="M46.64,175.65c-3,2.08-5.53,2.57-8.39,4.2-4.33,2.46-6,2-8.28,3.14,3.42,4.14,6.92,8.24,10.14,10.84,3.49,2.74,5.1,5.12,7.58,8.39,1.85,2.67,4.67,5,7.81,7.69A131.58,131.58,0,0,0,71,204.08c-6.66-6.33-14.06-12.28-17.25-18.5C51.29,180.78,47.77,178.64,46.64,175.65Z"/>
      <path d="M32.42,209.56c-2.14,1.14-6.36-6.16-7.5-11C20.1,199.65,13.34,203,7,202.53c3.82,8,11.85,14.93,20.63,19.82,1.6-1.74,4.62-2.28,7.43-4.15s4.89-3.55,7.77-4.42C39,211.41,35.64,207.82,32.42,209.56Z"/>
    </g>
    <g class="dollarCentre">
      <path d="M42.83,180.11c-2.76.73-4,2.2-6.4,2.93,1,1.61.81,3.39-.32,4.27,1.85,3.14,6.28,6.29,9,9.19,2.18,2.41,4.92,6.84,7.82,8.78A4.07,4.07,0,0,1,57.3,207l7-2.42c-.91-1.14-.66-2.24.8-3.3-3.92-3.13-9.18-8.54-10.55-10.64-2.5-3.46-3.22-6.2-6.37-9.1A4.64,4.64,0,0,1,42.83,180.11Z"/>
      <path d="M36.51,212.1c-1.69-1.67-4.3-2.59-6-1.45-.81.53-3.51-3.28-5.44-6.65a4.71,4.71,0,0,1-4.36-2.14,26.68,26.68,0,0,1-6.83,1.94,3.17,3.17,0,0,1-1.14,4c1.91,3.37,6.26,6.91,11.59,10.51a7.44,7.44,0,0,1,5,.4,21.33,21.33,0,0,0,6.76-3.88A2.1,2.1,0,0,1,36.51,212.1Z"/>
      <path d="M9.18,206.27a2.61,2.61,0,0,1-1.15,2c1.56,2.06,3.32,4.63,5.58,6.2a7.19,7.19,0,0,0,1.17-1.57A41.64,41.64,0,0,1,9.18,206.27Z"/>
      <path d="M5.9,208.4A2.58,2.58,0,0,1,5,210.2a9.15,9.15,0,0,0,4,2C7.88,211,6.85,209.62,5.9,208.4Z"/>
    </g>
    <g class="dollarSeal">
      <path d="M41.3,186.71a2.37,2.37,0,0,0,2.48,2,1.92,1.92,0,0,0,1.82-2.12,2.45,2.45,0,0,0-2.34-2.15A2,2,0,0,0,41.3,186.71Z"/>
      <path d="M31.54,213.1a3.23,3.23,0,0,0-3.4-.51c-1,.51-.71,1.6.16,2.47a2.72,2.72,0,0,0,3,.31C32.3,214.89,32.28,213.89,31.54,213.1Z"/>
      <path d="M18.49,208.32c0,1,1.15,1.82,2.38,1.82a2,2,0,0,0,2.22-1.74,2.19,2.19,0,0,0-2.32-1.83A2.09,2.09,0,0,0,18.49,208.32Z"/>
    </g>
    <g class="dollarPortrait">
      <path d="M48.72,191.74c-2.21,1.16-3.26,3.57-2.18,4.85s3.79,1.67,6,.51,3.14-3.28,2-4.71C53.55,191.11,50.94,190.58,48.72,191.74Z"/>
      <path d="M24.47,211.42c-2.64,1.37-3.14,2.93-2.62,4.15a71.08,71.08,0,0,0,7.5-4.26A5.42,5.42,0,0,0,24.47,211.42Z"/>
    </g>
    <line class="dollarOverlapLine" x1="32.42" y1="209.56" x2="29.35" y2="211.31"/>
  </g>
  <g class="clothesDisplayLine">
    <path d="M75.1,197.81c-.49,2.89,3,6.66,3,8.46a8.87,8.87,0,0,0,1.78,6.79"/>
    <path d="M79.89,193.54c-.9,2.38.43,4-.36,6.29s.79,4.44-1.47,6.44"/>
    <path d="M37.15,273.13c-8.55,2.77-23.16,1-25-1.43"/>
    <path d="M121.88,263.18c-1.33,4.36-10.13,6.09-17.64,4.88"/>
  </g>
  <g class="clothesOverlapLine">
    <path d="M51.21,206.17c1.12,7.82,2.2,15,2.68,19.87"/>
    <path d="M44.1,158.82c.87,2.4,1.32,4.53.81,6,2.25,1.82,3.52,3.62,2.29,5.39,2.16,1.48,1.3,4.34,1,8"/>
    <path d="M114.25,190.47c-21.52-4.75-31.16,14.68-38.34,37.85"/>
    <path d="M120.58,230.86c-7.79,16.88-13,18.51-14.16,24.38-1,4.5-3.63,6.24-6.52,7.51-1.15,3.26-6.2,5.55-9,4.08"/>
    <path d="M72.81,199.93c0,6.34,2.76,13.59,7.51,15.76"/>
    <path d="M42.15,243.91a15.2,15.2,0,0,0,0,2.94"/>
    <path d="M41.77,249.6c-2.16-.58-7.49-1.34-9.64-.82"/>
    <path d="M41.37,252.34c-2.5-.94-7.77-1.72-10.12-1.25"/>
    <path d="M40.86,254.9c-2.24-.94-8.73-2-11.07-1.4"/>
    <path d="M40.13,257.3c-2.08-1.12-9.09-2.21-11.64-1.55"/>
    <path d="M39,259.72c-3-1.63-9.25-2.09-11.73-1.79"/>
  </g>
  <g class="clothesFoldLine">
    <path d="M29.9,106.6c1.09,5-.34,11.23,1.73,16.52-3.54-2.88-5.54-7.54-6.43-13.49"/>
    <path d="M24,117.25c2.23,5.39,5.45,9,9.49,11.21"/>
    <path d="M22.34,120.16a24.43,24.43,0,0,0,10.46,12"/>
    <path d="M23.42,132.68a28.18,28.18,0,0,0,5.16,8.1"/>
    <path d="M37.77,119.05c.75,2.6-.35,6-2.49,6.93"/>
    <path d="M42.86,124.08a18.12,18.12,0,0,0-6.07,4.33"/>
    <path d="M44.36,139.05A36.47,36.47,0,0,0,63,144.25"/>
    <path d="M87.77,140.26c-10.55,5.1-20.5,8-29.14,6.13"/>
    <path d="M100.32,145.81a41,41,0,0,1-11.46,6.76"/>
    <path d="M85.69,161.36c-7.06,5.43-21.62,5.2-31,.94"/>
    <path d="M100,157.48C90.54,167,77.42,171,65.4,168.81"/>
    <path d="M63.32,174a24,24,0,0,0,13.4.57"/>
    <path d="M99.62,162.56c14.21-4.33,19.94,14.58,15.72,9.14"/>
    <path d="M120.42,172.45c.7-8.44-9.71-13.64-17.8-12.65"/>
    <path d="M102,158.79c5.26-2.35,17.8,2.1,15.37,5.87"/>
    <path d="M124.25,160.41c-1,1.7-3.8,2.62-3.42,4.36"/>
    <path d="M111.29,154.94c7.74-1.73,16.76,1.79,10.52,2.49"/>
    <path d="M123.18,149.5c-.79,1-1.58,1.42-.39,2.38"/>
    <path d="M120.13,146.15c-2.83,4.74-11.21,4.46-14.79,7.29"/>
    <path d="M112.27,131.7a43.7,43.7,0,0,0-7.22,10.12"/>
    <path d="M114.93,123.38c-1.67,4.57-6.36,9-10.29,13.3"/>
    <path d="M98.81,130.39a12.07,12.07,0,0,1,3.93-4.7"/>
    <path d="M85.16,103.21c.69,9.21,5,16.4,12,22.19"/>
    <path d="M88.23,102.69c.23,4.57,3.64,13.47,7.22,16.76"/>
    <path d="M101.81,96.5c-3,5-3.64,13.38-3.75,18.17,4.27-5.2,8.68-10.88,9.36-19.55"/>
    <path d="M111.29,98.3c.27,6.66-7.63,10.69-2.77,11.5"/>
    <path d="M115.68,110.32c-6.18,5.84-15,3.78-15.31,9.25"/>
    <path d="M124.49,179.26a5.14,5.14,0,0,1-3.54,2.21"/>
    <path d="M116.12,181.14c3.86-2.65,8.33-6.09,7-2.15"/>
    <path d="M125.91,189.32a9.16,9.16,0,0,0-5-2.72"/>
    <path d="M123.74,196.33c-5.31-3.19-10.65-4.52-16.06-3.39"/>
    <path d="M117.46,242.44c.14-2.24,0-3.75-.43-4.53"/>
    <path d="M102.39,261.42c-1.37,5-4,9-9.06,11.21"/>
    <path d="M98.19,261.89c-3,2.72-5.88,3.37-8.48.57"/>
    <path d="M95.47,189.88c-5.21,2.43-10.4,5.66-12.88,8.48"/>
    <path d="M29.45,165.13c-1.93-5.46,9.73,4,15.49,10.4"/>
    <path d="M44.91,164.85C39.52,160,32.18,157,34,154.73c.9-1.14,5.76,2.82,6.78,5.76"/>
    <path d="M47.2,170.24C42,166.37,34.54,164,35,162.53c.85-2.75,4,1.13,7.69,3.95"/>
    <path d="M32.22,219.72c1.48,5.73,11.55,7.42,18.83,10.18"/>
    <path d="M28.44,197.57a74.55,74.55,0,0,1,2.25,10.85"/>
    <path d="M29,221.28c.7,3.84,2.78,4.83,4.95,6.25,2.49,1.63.76,4.07-3.85,5.65"/>
    <path d="M22,183.67c2.16,4.74,3.5,11.62,4.62,19.56"/>
    <path d="M52.91,237.79c-2.15,0-3.76.5-3.79,2.51"/>
    <path d="M28.76,238.6c2.47,2,10.53-.22,16,.91"/>
    <path d="M42,236.35c5.69-1.3,6.62-2.56,4.52-3.51-2.94-1.33-5.84-2.26-7.91-.9-2.94,1.92-7.57,2.14-2.83,3.95"/>
  </g>
  <g class="eye">
    <circle class="sclera" cx="45.78" cy="49.42" r="19.38"/>
    <g class="irisDarkBrown">
      <ellipse cx="34.49" cy="46.95" rx="3.38" ry="3.38" transform="translate(-17.82 72.6) rotate(-79.82)"/>
      <ellipse cx="55.48" cy="50.72" rx="3.38" ry="3.38" transform="translate(-4.24 96.37) rotate(-79.82)"/>
    </g>
    <g class="pupil">
      <circle cx="34.58" cy="46.89" r="1.32" transform="translate(-17.68 72.63) rotate(-79.82)"/>
      <circle cx="55.57" cy="50.66" r="1.32" transform="translate(-4.11 96.41) rotate(-79.82)"/>
    </g>
  </g>
  <g class="skinEastAsian">
    <path d="M71.33,181.06c15.39-4,20-12.12,25.62-16,13-4,21.23,9.54,14.7,16.93-10.06,7.22-23.14,7.77-34.83,12.75-2,.52,1,5.25-12,9-1.13.28-2.55,1.74-3.37,2.08-2.5,1-4.24-2.29-3.31-3.6-2.19,2.85-5,1.37-5.49-1.16-1.64.56-3.56-1.91-3.19-4.06.53-3,1.5-4.12,3.18-6.47s4.69-2.52,7.87-4.39a12.14,12.14,0,0,1-5.34-.56c-1.13,1.09-2.87,1.71-4.3,2.5-.56,5.71-5.53,6.39-6.46,4.33,1.5-2.81.75-5.71,2.81-8.33,2-2.06,6.46-4.87,8.61-4.59C58.47,179,66.43,181.55,71.33,181.06Z"/>
    <path d="M77.51,73c-2.65,1.91-3.68,9.75-1,12.64C83.83,100,46.87,119.53,45.32,95L43.66,80.05"/>
    <path d="M68.84,84.64c-4.37,4.23-11.87,6.2-19,7.17C39.68,93.17,37.9,93.22,32.12,91c-5.39-2.08-6-7-7.85-11C16.17,62.44,25.86,50.13,26,45.57,26.6,32,33.61,34,34.4,18.6c27.89-17.13,66.89,26,55.93,46.54.36,9.56-7.26,11.43-9.18,13.78s-5.77,2.63-7.25-.45M47,51.6c2.31.77,2,1.59,5.67,2.31,1.42.28,3.09.23,6.45-1.11-1.35-1.49-3.54-3.94-6.49-4.54-2-.41-4.62-.1-6.08,2.32C46.09,51.36,46.64,51.47,47,51.6ZM36.5,48.91c-1-1.89-2-3.58-4.33-4a8.75,8.75,0,0,0-3.44.4,7,7,0,0,0-.45,3.45c3.93,2.24,6.7.53,7.44.72S36.73,49.36,36.5,48.91Z"/>
    <path d="M3.31,210.78a4.19,4.19,0,0,0,1.42,7.9c-.46,1.37.68,3.65,2.39,4.33-.49,2.29,1.71,4.56,4.11,4.91-.29,2.07,2.74,3.31,4.9,2.51,1.6-.23,6.6-2.17,7.73-5,.66-1.63,3.68-5,1.63-6.35.26-.72,0-2-.91-2.16,1.09-2.78-3.72-4.77-7.19-2.4-2.05-2.51-3.54-3-7.64-1.37A15.07,15.07,0,0,1,3.31,210.78Z"/>
  </g>
  <g class="skinOverlapLine">
    <path d="M52.67,201.06c3.43-7.18,4-5.21,9-8.66"/>
    <path d="M58.16,202.22c1.85-2.95,3.61-2.55,6.56-4.4"/>
    <path d="M4.73,218.68c2.39.62,6,1.25,7.5.31,2.88-1.47,6.28-1.69,5.16-4.42"/>
    <path d="M7.12,223c1.76.69,5.12.69,6.69.58s4.49-2.14,7.52-3.76c1.64-.88,2.11-2.29,3.25-2.86"/>
    <path d="M25.49,219.13c-1.11,1.4-1.38,3.54-2.81,4.81-2.7,2.41-9.22,4.81-11.45,4"/>
  </g>
  <g class="skinFoldLine">
    <path d="M80.66,64.55c7-8,11.89,5,3,10.24"/>
    <path d="M80.14,67c1.61,3.85-4,4.66-2.16,6.74.91,1,1.66-1,4.77-2,3.82-1.28,2.46-6.54.22-5.32"/>
  </g>
  <path class="lipMaleMedium__noStroke" d="M38.61,71.43c-1.63-1.56-2.77.62-5.63-1.76-2.47.44.73,2.88-2.64,4.3,1.8,1.32-1.52,6.31,4.95,7.86,6.31,1.51,6.45-3.93,7.89-4.67C40.53,75.45,40.29,73.1,38.61,71.43Z"/>
  <path class="mouthInner" d="M31.36,73.9a3.94,3.94,0,0,0,2.35-1.69c1.66,1.5,2.85,0,3.9.44,1.39.63,2.14,2.76,4.14,4C39.14,77.74,34.23,80.65,31.36,73.9Z"/>
  <path class="teeth" d="M32.7,73.27a2.83,2.83,0,0,0,1-1.06c1.66,1.5,2.85,0,3.9.44a7.56,7.56,0,0,1,2.2,2.21A11.14,11.14,0,0,1,32.7,73.27Z"/>
  <g class="lipOverlapLine">
    <path d="M43.53,77.26a4.79,4.79,0,0,1-1.78-.64"/>
    <path d="M33.71,72.21a10.76,10.76,0,0,1-.86-.81"/>
    <path d="M31.36,73.9a3.49,3.49,0,0,1-1.37,0"/>
  </g>
  <g class="lipEdgeLine">
    <path d="M33,69.67c2.86,2.38,4,.2,5.63,1.76"/>
    <path d="M31.79,79.84a7.21,7.21,0,0,0,7.57,1.77"/>
  </g>
  <g class="cheekLine">
    <path d="M31.53,63.45a10.74,10.74,0,0,0-1.78,3.29"/>
    <path d="M44.41,62.22c1.39,1.53,2.9,6.09,3.36,8.13"/>
  </g>
  <g class="noseLine">
    <path d="M33.59,59.27C32.82,61,29.72,62,32.74,65.4"/>
    <path d="M44.41,62.22c1,.69,1,3.88-.94,4.53"/>
    <path d="M42.14,66.55c-.5-2.13-2.69-.57-3.7-.29"/>
    <path d="M32.26,63.9c.85.82,1.41,1.84,2.5,2.28"/>
  </g>
  <g class="eyeFoldLine">
    <path d="M28.17,50.94A5.33,5.33,0,0,0,33.59,52"/>
    <path d="M47.85,54.48C49,55.69,53.46,57.27,56,56.31"/>
  </g>
  <g class="eyeCornerLine">
    <path d="M61,54.34a5.92,5.92,0,0,1-1.89-1.54"/>
    <path d="M28.73,45.3a3.25,3.25,0,0,1-1.15.14"/>
    <path d="M28.28,48.75a2.6,2.6,0,0,1-.7-.59"/>
  </g>
  <g class="eyeCreaseLine">
    <path d="M36.55,46.59a6.15,6.15,0,0,0-8.24-2.86"/>
  </g>
  <g class="eyebrowBlack">
    <path d="M46.83,39.61C49.76,45.45,58.61,41.73,62.6,48,60,40.36,53.62,43.24,46.83,39.61Z"/>
    <path d="M37.7,38.53c-3.29,2.85-5.38-.55-11,1.87.11-.49.24-1,.38-1.41C30.74,36.35,33.84,38.83,37.7,38.53Z"/>
  </g>
  <path class="hairBlack" d="M63.17,40c1.14,1.35,1.25,3,2,5-4.71-5.18-13.68-5.54-17.6-10.44a9.21,9.21,0,0,0,2.25,4.71c-7.2-1.76-11.53-9.95-10.74-16.41-1.5,9.56-8.31,11.72-13.69,13.59C29.25,32,24.81,28,32.54,20.15a7.08,7.08,0,0,1-5.42.09C33.4,17.7,36.3,10.39,50.37,7.66c.34-2.09-1.51-4.06-3.3-4.68a6.43,6.43,0,0,1,6.64,4.3A11.4,11.4,0,0,1,62.59.42C60,1.86,56.91,5.15,57,7.46c11.09-.76,27.45,5.09,35.87,18,10.86,16.6,1.23,35.37-2.5,39.71.32-4-6.86-8.59-10.23-3a30.71,30.71,0,0,1-6.74-3.29c1.47-4.23,2.82-5.65.28-10.15C66.67,45.33,66.85,43.55,63.17,40Z"/>
  <path class="hairOverlapLine" d="M75.66,46.76c2.33,2.1,2.62,3.91,3.82,5.35-.92-.41-4.29-3-5.84-3.42"/>
</svg>
