<svg viewBox="0 0 161.23 461.6">
  <g class="bennettShoe">
    <path d="M71.31,419.86c.68,6.07,2.75,11.23,7.68,14.43,6.15,4,11.11,9.41,16.53,11.75,19,16.77-40.62,13.93-46.32,5.59,0-5.55,4.42-16.87,4.54-26.77C58.17,419.91,64.21,418.64,71.31,419.86Z"/>
    <path d="M38.73,408.8a27.94,27.94,0,0,0-2.14,18.86c1.79,7.21,3.53,13.73,8.07,18.5,4.44,25.19-43.3-8.71-41.78-22.34,2.21-4.9,15-12.46,20.6-20.95Z"/>
  </g>
  <g class="soleWhite">
    <path d="M95.52,446c-1.86,1.52-2.64,4.64-2.45,7.69-8.61,1.51-19.26,0-30.95.35-5.24.15-11.52-.59-12.92-2.45a10.73,10.73,0,0,0,.08,6.12c1.75,1.19,11.46,1.54,18.86,1.33,15-.42,31.5,3.42,40.44-3.63C108.44,446.65,101.74,447,95.52,446Z"/>
    <path d="M44.66,446.16c-3.77.48-6.42,2.77-8.38,6.17-4.81-1.87-13.64-9.16-23.27-16.64C9.6,433,2.88,426,2.88,423.82a10.1,10.1,0,0,0-2.63,5.3c.77,3.21,6.08,8.66,12,12.71,12.5,8.53,20.53,21.72,40.58,19.21C56.34,449.93,47.33,450.7,44.66,446.16Z"/>
  </g>
  <g class="shoelace">
    <path d="M39.61,437.88a83.17,83.17,0,0,1-3-10.22,26,26,0,0,1-.75-5.21,10.24,10.24,0,0,0-3.51-.26,42.67,42.67,0,0,0,3.94,16.26A10,10,0,0,1,39.61,437.88Z"/>
    <path d="M75,430.52a8.65,8.65,0,0,0-2.29,1.55c2.8,3.88,8,8,13.9,12.25a8.66,8.66,0,0,1,2.56-2.24C86,439.62,82.7,436.7,79,434.29A15.15,15.15,0,0,1,75,430.52Z"/>
  </g>
  <ellipse class="converseLogo" cx="61.25" cy="440.67" rx="5.48" ry="5.75"/>
  <path class="bennettJeans" d="M90.13,241.46c-.1,3,2.37,7.18-.06,10.38-2.26,3,2.24,6.13-3,13.55,1.93,31,3,67.91-1.06,78.06-2.54,6.4-6.31,11.75-9.9,18.49.32,19.83-4.25,45.09-2.73,50.21,1.19,4,1.44,7.45-1.62,10.69-.59-3.5-4.7-2.23-4.06,1.21-3.91,4.61-12.21,5-14.88,9.24-1.9-5.56-7.13-5.56-5.28-12.42-7.08-3.7,0-8.17-.76-15.9-1.74,4.47-6.86,4.47-9.89,8.64,1.18-4.44-3.29-3.19-4.81,2.14-3.86-2.85-11.87-1.85-18.21-2.75,1.88-6.72-3.45-9.88,1.45-13.69-.32-8.39,6.1-6.75,7.52-8.71-.77-4.94,3.64-9.65,6.31-13.61,6.75-10,10.85-22.58,15.35-27.23-3.37-4.68,1.55-8.35-.1-9.47-4.05-2.73,1.36-6.44.87-9.91-1.23-8.63-1.89-22.05-2-36.15-3-10.67-4.35-22-6.75-26.79-4.08-.55-2.73-4.94-4-8.6-4.36-12.2-3.61-24.28,4.12-35.72C55.26,222.13,73,229,90.13,241.46Z"/>
  <path class="shirtWhite" d="M56,109.2C45.66,124.43,44,143.6,44.7,167.52c.11,3.26-3.12,6.91-.62,8.77,2.38,6.76-4.39,10.27-.88,15.78a7.46,7.46,0,0,0-1.75,7.64C40.2,206,35.6,209.25,37.69,212c1,2.63-2.6,5.07-.88,7.14-1,1.24-1.21,2.93-1.32,5,5.14,2.26,22.62-.12,40,10.9,6.57,4.16,11.22,8.35,15.28,7.89.91-2.61,2.4-5.71.87-8.77,3.67-1,1.06-5.33,1.51-7.26,4.14-2.29,1.21-5,2.14-6.95,6.4-9.14,4.81-22.81,4.81-22.81,1.11-.75,1.31-3.35.18-4.19,2.63-13.27,1.81-25,3.14-36.69,2.17-19.09,1.39-32.57-4.12-44.84Z"/>
  <path class="bennettSleeves" d="M96.28,106.51c1.85.93,2.34,3.09,3,4.9a11.83,11.83,0,0,1-9,1.13c-2,4.69,1.75,5.57-2.29,9.28,1.19,4.5-5.56,14.39-8.94,14.72-1.11,2.24-2.29,3.2-3.49,3.49-.69,4.32-2.29,8.18-3.06,11.35,1.53,2.18-.38,4-.76,7.63s1.09,5.46-.76,7.09c2.83,5-1.31,5.78-1.31,8.07,3.6,5-.88,6.11-.88,8.51,3.93,3.38-1.09,2.51.77,6.55,1.33.05,1.17,1.08.76,2.94-1,4.47.67,7.66-1.2,7.58l-21.32-1.1c-.86.11-.66-2.35-1-4.73-.45-2.82-1.35-5.65-.33-5.78-2.18-8.51.77-5.4.44-12.33a136.89,136.89,0,0,1,2.62-30.21c-.77-4.37,1.52-8.68,1.85-12.44.22-2.51-2.18-4.25,1.53-9.93.18-12.87,6.63-23.27,15-28.63Z"/>
  <g class="clothesDisplayLine">
    <path d="M82,239.34c-2.4,2.72-7.18,2.73-10.23,1.75"/>
    <path d="M36.28,452.33c5.14,3.29,9.66,4,17.34,3.68"/>
    <path d="M93.07,453.73c4.23.08,10.24-.83,14.17-3.52"/>
  </g>
  <g class="clothesOverlapLine">
    <path d="M43.33,294.23c2.83,13.28,7.18,22,7.62,26.35-.76,3.81,1.19,7.44,3.81,10.56-.33,4.79-5.23,3.27-3,8.06-3,2.21-2.5,6.21-7.19,10.56"/>
    <path d="M76.13,361.94C63.6,381.44,48.54,394.3,46.8,405"/>
    <path d="M32.1,415.75c1,1.85-.13,3.65.23,6.44"/>
    <path d="M67.72,424.05c1.72,2.3,2.73,5.32,5,8"/>
    <path d="M32.51,424.94a11,11,0,0,1,3.59.27"/>
    <path d="M32.9,427.74a9,9,0,0,1,3.69-.08"/>
    <path d="M33.44,430.29a11.6,11.6,0,0,1,3.81,0"/>
    <path d="M34.11,432.71a10.34,10.34,0,0,1,3.75-.15"/>
    <path d="M35.12,435.67a12.65,12.65,0,0,1,3.58-.33"/>
    <path d="M74.87,434.65A10.87,10.87,0,0,1,77,432.79"/>
    <path d="M76.85,436.6A20.07,20.07,0,0,1,79,434.29"/>
    <path d="M79,438.49A15,15,0,0,1,81.4,436"/>
    <path d="M81.4,440.44a9.78,9.78,0,0,1,2.36-2.68"/>
    <path d="M84,442.43a8.26,8.26,0,0,1,2.43-2.49"/>
  </g>
  <g class="clothesFoldLine">
    <path d="M79.09,136.54a17,17,0,0,0,3.36-8.47"/>
    <path d="M74.41,123.89c1.82,4.5,3.54,9.71,1.19,16.14"/>
    <path d="M71.62,123c1.29,5.15,2.9,8.9,1.83,14.58"/>
    <path d="M61,115.21a47,47,0,0,0-8.1,8"/>
    <path d="M61.65,118.85c-3.78,3.45-7.39,7-8.25,11.26"/>
    <path d="M53.51,138.47a23.88,23.88,0,0,0-4,7.13"/>
    <path d="M67.44,138.68c1.34,5.38,3,9.83,5.1,12.7"/>
    <path d="M80.09,119.6c1.39,4.72-.32,14.79-3.51,16.5"/>
    <path d="M63.16,155.08c1.76,5.67,4,10.48,7.28,13.4"/>
    <path d="M54.69,158.51a14.22,14.22,0,0,1-5.47,6.65"/>
    <path d="M67.34,170.84a6.93,6.93,0,0,0,2.37,3.33"/>
    <path d="M64.23,170.19c1,2.69.21,5.58-1.82,5.9"/>
    <path d="M68.41,179.84c-4.08-1.5-12.23.76-7.72,2.79"/>
    <path d="M51,181.45c-2,1.81-2.89,6-4.57,6.69"/>
    <path d="M69.6,189.23q-32.2-2.41.11-3.14"/>
    <path d="M67.87,191.63a47.94,47.94,0,0,0-16.51,1.07"/>
    <path d="M43.2,192.07a3.62,3.62,0,0,1,.13,4.28"/>
    <path d="M41.45,199.71c.28,1.09,4.45,1.57,6.86,3.08"/>
    <path d="M42.79,208.35c2.51.73,4.62,1.71,5.89,3.22"/>
    <path d="M38.93,212.1c3.65,1.29,11.25,2,6.86,3.76"/>
    <path d="M36.81,219.12c4.13-1.1,9.47-.18,15.38,1.67"/>
    <path d="M91.67,234.15c-4.93.52-14.9-7.68-23-10.14"/>
    <path d="M74.73,230.43c4.82,3.87,12.86,5.9,15.87,7.51"/>
    <path d="M93.18,226.89c-3.12.65-9.13-2.78-8.48,0"/>
    <path d="M90.6,223.25a67.4,67.4,0,0,1-20.91-4.61"/>
    <path d="M70.87,200.21c2.15,1.82,6,3.6,1.93,3.32"/>
    <path d="M70,195.27a40,40,0,0,0,17,10.83"/>
    <path d="M90.27,154.54a39.43,39.43,0,0,1-18.38,3.64"/>
    <path d="M87.06,158.51c-1.81,1.91-11.88,4-14.08,3"/>
    <path d="M70.67,172.19c1.82,1.24,4.84,2.24,8.19,3.17"/>
    <path d="M81.67,179.94a38.63,38.63,0,0,1-10.88-3.85"/>
    <path d="M88.21,190a13.55,13.55,0,0,0,8.93,3.2"/>
    <path d="M100.13,197.13c-2.9,2.52-10-.5-16.45-4.64"/>
    <path d="M97.65,207.68a9.58,9.58,0,0,1-5.34-.49"/>
    <path d="M96.57,212.18c-6.31.17-18.67-2.6-23.54-5.42"/>
    <path d="M46.7,179.35c2.15-5.35,5.28-8.19,5.87-10.74.73-2.7-2.42.28-4.73,1"/>
    <path d="M36.58,267.44a12.85,12.85,0,0,0,5.77-.65"/>
    <path d="M32.83,391.88c0,8,2.36,13.43,9.83,13.63"/>
    <path d="M22.86,390.6a13.25,13.25,0,0,0,1.3,3.87"/>
    <path d="M15.34,399.31c4,.85,9.62,5.2,3.65,3.79"/>
    <path d="M30.85,411.46c-5-5.26-12.38-1.72-16.78-5.69"/>
    <path d="M40.33,409.22c-8.79.17-10.09-6.9-13.71-7.25"/>
    <path d="M71.73,418c-3.37-.55-5.1.32-7,2.93-2.5,3.45-9.49,3-11.73,5.34"/>
    <path d="M69.94,411.73a12.85,12.85,0,0,1-13.82.16"/>
    <path d="M47.56,420.87c5.28,1.2,6.14-2.34,11.06-1.3"/>
    <path d="M46.2,410.34c0,2.72,8,3.19,3.27,6"/>
    <path d="M56.15,319.06c3.57,10.92,12.59,12.31,14.68,15.88"/>
    <path d="M54.76,331.14c1.76,2.7,7,2.31,4.56,4.3"/>
    <path d="M50.19,351.82c8.14-5.19,18.17-6.95,25.54-4.34"/>
    <path d="M51.71,339.2c5.73,3.39,19.31-3.09,21,1.6.71,2-6.34.1-11.5-.2"/>
  </g>
  <g class="eye">
    <circle class="sclera" cx="120.42" cy="62.24" r="6.12"/>
    <path class="irisDarkBrown" d="M123,66.1c.39,0,1.44-1.43,1.61-3.34s-.62-3.53-1-3.56A19.57,19.57,0,0,0,123,66.1Z"/>
    <path class="pupil" d="M124.06,64.07c.31,0,.51-.56.58-1.31s0-1.35-.34-1.38A10.14,10.14,0,0,0,124.06,64.07Z"/>
  </g>
  <g class="skinEastAsian">
    <path d="M124,226.58c-12.43-9.49-17.12-20.26-23.83-29.45-1.62,4.45-1.48,9.68-2.48,10.55,1.3,1.44.95,4.51-1.08,4.5a36.65,36.65,0,0,0-1.25,7.76c4.55,4.24,10.82,7.15,15.36,11.17,4,3.93,4.34,14.17,11.06,16.48,6.28,1.87,7.63,5,10.23,6.37,3.14,1.81,6.08-1.47,4.53-3.06-1.59-1.21-2.13-2.91-4-4.28-1.54-1.14-3.81-2.74-3.94-4.15.67-4.23,6.82-5.06,12.62-4.27-.46,1.67,1.27,3.61,3.74,3.34.35,2.93,4.55,5.34,6.28,2.81,1.81,3.4,6.55,4,7.55,1.46.47-.4-2.41-2.32-2.47-3.67,3.67,1.4,5.57-1.27,4.3-2.94-3.07-1.13-5.8-4.2-9.31-4.85.33-2.8-3.72-3.37-6.55-4.7-2.17-1-4-3.47-7.28-3.27C132,226.64,125.78,228,124,226.58Z"/>
    <path d="M65.11,271c-3.6.15-5.29-4-2.94-5.51-7-8.42-4.48-16.91-4.5-20.2-2.54-16-8.84-33.8-9.83-46.61,2.54-.22,19.22.33,21.32,1.1.44,11.38-2.21,22.75,1.43,40.54,2.31,5.58,10.9,10,12.06,16,1.34,4.26,2,10.35,1.28,12.08-3.83,8.94-7,6.73-10.1,8.59-1.28.32-2.38-.78-2.32-2.44-1.61.11-3.26-.89-3.26-2.33A3.53,3.53,0,0,1,65.11,271Z"/>
    <path d="M115,90c-13.38-.86-16.76,8.79-18.68,16.54-5.88,3.49-28-6.58-28.41-11.91,4.47-11.28.8-26-7.36-38.33"/>
    <path d="M85.42,72.57c-4.55,2.71-6.5-.24-8.94-3.18C41,48,103.7-2.12,128.56,31.41c-1.43,10.68,3.56,20.25-.73,28.75-2.3,4.57,2.38,11.24,3.44,16.69,1.32,6.76-5.53,2.89-7,3.64-.34,2.46-.15,4.4.51,5.11-.39,1.26-2.16,2.05-2.77,1.7-1.64-1-5.39.6-5.76.91,2.62,1.23,7.7,4.64,4.14,6.65-5.45-.07-.86,9.52-9.36,8.44-2.93-.37-7.88-4.19-13.17-7.77A29,29,0,0,1,89,85.46m35.27-25.54a12.33,12.33,0,0,0-5.9,2.4,32.94,32.94,0,0,0,5.16,3.49A6.32,6.32,0,0,0,124.25,59.92Z"/>
  </g>
  <g class="skinOverlapLine">
    <path d="M65.11,271c2.89-.11,2.93-3.94,3.71-6.78"/>
    <path d="M73.9,261.69c-.25,4.91.87,10.09-5.65,10.53"/>
    <path d="M78.48,259.7c.34,4.4,1,8.39-.39,10.71-.91,1.54-4.27,3.18-6.58,4.14"/>
    <path d="M142,230.25c2.32,1.33,6.82,3.56,9.33,4.1"/>
    <path d="M141.19,238.2c4.92.29,7.39,1.56,11.19,1.75a12.34,12.34,0,0,0,3.91,2.19"/>
    <path d="M144.93,241.54c-.54-1.41.14-2.08-1-3"/>
    <path d="M151.21,244.35c-1.25-2,.5-1.4-3.84-5.2"/>
  </g>
  <g class="skinFoldLine">
    <path d="M62.47,264.08a7,7,0,0,0-.3,3.06"/>
    <path d="M83.52,58.34c-2.62-9.94-13.84-3-8.07,5.74"/>
    <path d="M83.2,61.92c-2.72,1.77,1.39,4.14-.42,5-1.25.58-.52-1.87-3.51-3.23-3.5-1.59-.31-7,1.74-4.83"/>
  </g>
  <path class="lipMaleMedium__noStroke" d="M116.3,88.21c.37-.31,4.12-1.91,5.76-.91.61.35,2.38-.44,2.77-1.7-3.14.4-7.08,1.41-8.75,2.57.85,3,1.37,5.62,4.36,6.69C124,92.85,118.92,89.44,116.3,88.21Z"/>
  <path class="lipEdgeLine" d="M120.36,94.85a4,4,0,0,1-2-1.36"/>
  <path class="noseLine" d="M127.18,79.93c-2.17-.32-3.81.5-4.79,0s-1-2.24.16-3.38"/>
  <g class="eyeLidLine">
    <path d="M124.25,59.92a1.46,1.46,0,0,0,1.33-2.16"/>
    <path d="M123.51,65.81c.61.47.95,1.21-.23,2.19"/>
  </g>
  <path class="eyeCornerLine" d="M118.35,62.32a5.62,5.62,0,0,1-1.92.62"/>
  <path class="eyeCreaseLine" d="M120.94,59.29c1-.81,3.39-1.08,4.75-1.12"/>
  <path class="eyebrowBlack" d="M128.36,53.76c-3.53,3.52-7.15.14-11.89,1.61C120.73,51.21,124,54.27,128.36,53.76Z"/>
  <path class="hairBlack" d="M126.8,33.62c-1.8,9.35,1.44,17.07,9.58,17.77-4.66-6.07,2.94-13.69-4.64-20.95a46.82,46.82,0,0,1,5.61,3.15c-3.47-5.55-5.27-14.74-24.5-22.34C105,8.14,90.89,5.72,81.17,7.5,82,4.58,85,1.91,88.52.25c-5.07-.11-9.43,4-11.5,8.43-2.81-3.62-7.23-4.19-10-1C70.68,6.11,72.59,7,73.89,10c-19,11.53-26.38,46.94-7.48,62.49a24,24,0,0,0,10-3.09c-3.88-5.14-6.48-8.67-3.34-15.19C75.7,48.69,85.69,49,85.78,56.55A44.79,44.79,0,0,0,94.86,58c1.12-6,.65-4.74,5.52-8.46,5,0,16.74,3.21,22.1-10.52-.5,1.95-.2,3.83-.18,5.7C123.82,40.31,125.81,39.51,126.8,33.62Z"/>
  <path class="hairOverlapLine" d="M100.38,49.55a26.69,26.69,0,0,0-5.91.44c2.31-1.14,4-2,5.25-2.83"/>
</svg>
