<svg viewBox="0 0 186.5 457.96">
  <g class="soleWhite">
    <path d="M41.15,444.1c.55,1.87.46,5.3-.23,6.12s-2.91,1.14-4,2.63c-5,7-27.43,5.47-28.87,1.53-1-3.11.33-10.27,2.92-12.37C20.64,434.24,32.47,437.22,41.15,444.1Z"/>
    <path d="M120.05,440.44c4.63,1.33,9.68,5.24,8.31,13.14-4.37,2.94-19.3,4.93-30.12,1.26-4.75-1.61-20.18-2.14-23.48-5.35-1.15-2.19-.8-3.79-.55-6.38C88.67,438.17,108.36,436.59,120.05,440.44Z"/>
  </g>
  <g class="bennettShoe">
    <path d="M36.78,416.29c-1.72,12,3.43,17.07,4.37,27.81-.6,1.21-2.09,1.84-4.13,2.8-1.57.75-2,2-3.23,2.61-1-9-14.93-11.65-22.8-7.5,5.68-4.8,7.48-16.35,6.79-28.13C23.68,410.29,30.06,411.6,36.78,416.29Z"/>
    <path d="M98.16,411.22a32.31,32.31,0,0,0,6.17,17.51c3.89,4.9,10.9,9.67,15.72,11.71-6.36-1.55-16.25,3.05-15.82,10.1-5.12-.27-9.91-2.55-15.08-2.73-4.84-.17-14.08-3.41-14.94-4.7-1.29-5.85,5.74-18.23,4.1-28.63C82.71,410.54,92.29,408.25,98.16,411.22Z"/>
  </g>
  <g class="shoelace">
    <path d="M29.84,423.56a20.57,20.57,0,0,0-11.11-.17,46.8,46.8,0,0,1-2.59,13.37,32.43,32.43,0,0,1,12,.48A33.1,33.1,0,0,0,29.84,423.56Z"/>
    <path d="M104.33,428.73a27.73,27.73,0,0,1-3.55-6.18h0A18.45,18.45,0,0,0,94.27,424c2,6.14,5.21,11,9,13.58,2.8-1.48,5.21-1.85,9.08-1.61A39.76,39.76,0,0,1,104.33,428.73Z"/>
  </g>
  <g class="converseLogo">
    <path d="M37.33,440.88c-2.34.49-3.33-10.7-1.19-11.44C37.74,428.89,39.6,440.41,37.33,440.88Z"/>
    <path d="M84.2,441.53c5.28.67,6.22-10.63.55-11.5C79.44,429.21,78.55,440.82,84.2,441.53Z"/>
  </g>
  <path class="bennettJeans" d="M99.15,220.59c3.11,14.21,1.41,37.24,3,45.66,1.92,10.3-.08,37.91,1.58,53,.88,7.94-2.72,14.82-2.17,17.67,1.07,5.51-1.1,12.27-.55,17.39.72,6.65-1.23,28.41-.58,30.67,2.6,9-2.24,14.47-1,15.78,3.49,3.79-1.14,7.65-1,13.53-.77-2.56-6.87-2-6.75,2.66-3.94-1.2-8.82,3.43-13,4.82-1.3-3.58-8-5.47-4.29-10.94,1.65-2.42-4.22-2.9-3.78-10.63.9-15.86-4-43.17-1.34-61.46,1-7-1.54-11.94-2.7-22.17-2.17-18.93-4.06-43.61-7.35-49-3.78,6.85-5.35,40.56-7.34,60.38-.59,5.92-.48,10.66-2.88,16.22-3.42,7.93.82,21.27-4,42.9-2,8.9,1.8,16.94-4,25,4.18,7.77-2.53,7.51-4.46,11.47-1.49-2.49-4.81-1.54-6.54-4.64-.06-3.85-9.74-4.58-10.18-.64-1,1.79-1.76,2-2,3.49-6.86-6.55-2.48-11.29-2-17.8-2.37-2.49-2.23-6.56-1-11.25,1.31-5.18-.69-27.93.57-40.7.38-3.83,2-7.88,1.48-12.29-.87-7.22,3.63-9.41,2.07-11.24-5.18-6.07-1.48-5.86-2.66-29.9-1.48-30-.55-60.09,4.34-81.84"/>
  <path class="shirtWhite" d="M100.55,223.43c-24.18,17.14-61.6,13.39-81.64-5.09,1.15-2,1.65-5.67.52-7.42-1.33-2.08,1.77-3.66.93-6-2-2.54,1.45-5.67,1-10.32C-1,77.58,122.51,68.14,97,151.19c-2.48,27.19,3.35,23.79-.88,28.94,1.66,4.38,0,6.31.16,8.64s2,2.62-.63,5.13C99.9,201.16,96.52,211.67,100.55,223.43Z"/>
  <path class="bennettSleeves" d="M74.58,92.28C85,97.55,95.43,96.81,98.19,103c.54,1.2,2.83.47,3.66,5.09,4.35,3.42,4,12.13,7.82,19.31,2.1,4,4.7,3,4.83,10,2,2.84,5.72,4.35,6,9.53,3.51,7.23,11.25,12.61,5,28.26-1,2.49-23.25-1.72-22.25-4.14,1.08-3.23-1.32-5.92,1.31-6.82.43-2.26-2.95-1-1.75-3.91-5-1.83-4-5.52-5.86-9.15,1.61-3.76.14-6.56.23-12.09.09-4.6,1.8-4.85.43-8.33,2.29-2.78-.19-3.61-.3-6,.11-6.86-5.7-2.2-9.72-11.47-2.16-5-3.91-1.05-8.13-7.38-7.06,6-23.51,6.85-32.59,2.74-11.82,9.93-8.73,11.42-12.65,11.71-.13,1.78-.61,3.15-1.65,3.79,1.34,2.55-1.25,12.34-4.24,20.44-1.78,4.84-.32,8.64-2.66,10.34-2.24,6.82,2.87,7.75-2.24,10.34.88,1.94,1.22,3.65-.64,4.37,2.88,1.57,4.4,3.37,5,5.33C31.53,183.19,9,197.8,4.28,187c-4.79-1.5-4.64-16.08-3-17.64s-2-2.13.85-9.17C.66,156,4.6,155.43,4.6,148c-3.07-5.27,2.27-7,5.12-26.54C13.28,97,32.53,100.32,43.09,91.58Z"/>
  <g class="clothesDisplayLine">
    <path d="M61.8,234.45c-.71,3.43,2.45,8,.78,12.26-1.6,4.08.87,6.12-1.17,10.34-2.26,4.69.44,4.51-2.18,10.49"/>
    <path d="M69.59,234.21c1.53,9.62,2.77,24.59-9.17,26.92"/>
    <path d="M45.62,232.22c-6.61,4.71-13.86,6.86-22.21,5.18"/>
    <path d="M84.41,231.35a22.23,22.23,0,0,0,12.29,4.53"/>
    <path d="M33.79,449.51c-9.17,4.29-22.28,3.11-25.92.19"/>
    <path d="M104.23,450.54c7.19,1.26,20.1.48,24-2.48"/>
  </g>
  <g class="clothesOverlapLine">
    <path d="M30,418.92a18.6,18.6,0,0,0-.16,4.64"/>
    <path d="M28.88,435a38.23,38.23,0,0,0-12-.51"/>
    <path d="M29.39,432.73a39.22,39.22,0,0,0-11.92-.39"/>
    <path d="M29.74,430.34A50.91,50.91,0,0,0,18,430"/>
    <path d="M29.91,428.15a51.35,51.35,0,0,0-11.62-.37"/>
    <path d="M30,425.81a36.14,36.14,0,0,0-11.43,0"/>
    <path d="M18.73,423.39a14.06,14.06,0,0,1,1.09-5.11"/>
    <path d="M95.21,426.62c2.39-.74,5-1.57,6.83-1.45"/>
    <path d="M96.41,429.24a22.05,22.05,0,0,1,7.09-1.64"/>
    <path d="M97.79,431.67a19.33,19.33,0,0,1,7.4-1.91"/>
    <path d="M99.35,433.88a17.14,17.14,0,0,1,7.94-2"/>
    <path d="M101.19,435.91c2.88-1.4,5.65-2.29,8.43-2"/>
    <path d="M91.67,417c.79,1,1.74,5.4,2.6,7.09"/>
  </g>
  <g class="clothesFoldLine">
    <path d="M2.53,182.1C.32,169,13.16,165.94,22.83,169.61"/>
    <path d="M6.62,176c1.87-5,10.71-6.37,16.83-4.93"/>
    <path d="M4.92,164.75c5.18-.51,10.32-3.18,14.53-.42"/>
    <path d="M6,159.48c8.67.26,13.6,4,17.45,5.76"/>
    <path d="M4.6,148c1.42,1.48,5.53,8.45,1.59,7"/>
    <path d="M8.57,146.31c6.12,12.58,14.88,12.15,17,14.81"/>
    <path d="M13.25,133.13c4.08,7.73,9.92,14.54,12.46,21.77"/>
    <path d="M15.54,129.05C17.67,138.82,27,149.11,27,152.63"/>
    <path d="M20,113.78a19.43,19.43,0,0,0,6.65,13.56"/>
    <path d="M23.88,118.34c1.73,5.39,4.55,9.36,8.7,11.6"/>
    <path d="M25.9,110c3.29,3.41,5.48,8.19,6.71,14.13"/>
    <path d="M31.31,110.52c1.33,2.61,3,6.38,2.95,9.81"/>
    <path d="M38.09,113.84c.13,3.68-1.05,7.85-4.3,12.78"/>
    <path d="M34,128.88c3.39-3.78,5.55-1.94.86.93"/>
    <path d="M42.26,125.12c-2.77,4.4-5.84,7.4-9.58,7.37"/>
    <path d="M74.52,119.12a64.13,64.13,0,0,1-24.36,9.68"/>
    <path d="M85.06,115.08c-5.79,5.65-12,10-18.94,12.45"/>
    <path d="M75.06,142.85a89.68,89.68,0,0,1-30,6.27"/>
    <path d="M89.21,137.21a52.72,52.72,0,0,1-27.77,11.7"/>
    <path d="M52.18,168.38c-6.9.33-13.3.29-18.51-.64"/>
    <path d="M66.12,167.74a63.73,63.73,0,0,1-23.83,2.77"/>
    <path d="M57.08,184.87A57.1,57.1,0,0,1,40.9,184"/>
    <path d="M68.46,186.79a71.52,71.52,0,0,1-20.21.42"/>
    <path d="M23.88,203a7.62,7.62,0,0,0,4.79,3.51"/>
    <path d="M34.45,212.39a121.08,121.08,0,0,0,16.88,4.72"/>
    <path d="M20.36,205a46,46,0,0,0,8.51,5.11"/>
    <path d="M33.8,217.35a115.32,115.32,0,0,0,23.7,3.8"/>
    <path d="M19.43,210.92a33.79,33.79,0,0,0,7.76,4.2"/>
    <path d="M35,221.47c10.77,4.74,22.45,6.41,34.89,5.53"/>
    <path d="M75.41,220.75c1.49-.11,2.36.25,2.09,1.57"/>
    <path d="M64.2,223.28a51.63,51.63,0,0,0,6-1.39"/>
    <path d="M94.1,204.45C89.76,210,83.4,213.72,75.59,216"/>
    <path d="M95.07,210.22c-8.3,6.39-21.6,10.69-3.74,7.42"/>
    <path d="M94.63,219.56c-2.56,2.33-6.5,3.63-11.49,4.14"/>
    <path d="M92.82,191.89A56.83,56.83,0,0,1,74.74,196"/>
    <path d="M94.53,177.74a23.41,23.41,0,0,1-6.92,1.92"/>
    <path d="M96.11,180.13a8.63,8.63,0,0,1-5.52,1.76"/>
    <path d="M95.64,193.9c-1.75,1.29-4.73,2.25-8.56,3"/>
    <path d="M91.65,110c.59,5,1.91,10.48,2.24,16.17"/>
    <path d="M96.33,105.82a39.72,39.72,0,0,1-.21,23.73"/>
    <path d="M101.85,108.07c1.16,6.41.23,13.5-3.43,21.48"/>
    <path d="M101.12,129.76c2.87-7.7.11,6.17.22,17.87"/>
    <path d="M104.31,117.52c3,16-4,37.88,4.9,39.37"/>
    <path d="M111,131.14c.63,1.72,0,3.77-1.92,6.17"/>
    <path d="M114.5,137.42c-.16,2.43-1.28,5-4.12,7.87"/>
    <path d="M117.4,142.42c1.35,3.3-.53,7-4.15,11"/>
    <path d="M120.5,147a11.27,11.27,0,0,1-1.29,5.9"/>
    <path d="M102,156.89a2.25,2.25,0,0,1,.88,3.45"/>
    <path d="M123.36,159.76c-8.09-1.91-16.77,4.54-20,2.71"/>
    <path d="M107.4,167.53A24.13,24.13,0,0,1,121.23,169"/>
    <path d="M104.6,164.25c5.57-.13,19.72,1.79,10.67-1.93"/>
    <path d="M122.83,162.42a20.81,20.81,0,0,0-8.33-2.2"/>
    <path d="M70.39,262.5c5.52.16,11,.59,16.38,1.26"/>
    <path d="M69.54,269.85c3.78.86,10.17,3.95,15.68,5.79"/>
    <path d="M54.14,261.8c-7.09.67-13.61,1.41-19.36,2.26"/>
    <path d="M52,268.86q-11.12,4.18-21.9,9"/>
    <path d="M77.45,293c-1.3,6.77-3.86,12.62-7.41,15.11"/>
    <path d="M97.29,327.2c-7.14,4-15.7,3.28-22.59-2.54"/>
    <path d="M72.58,328.62c5.94,3.39,13.56,3.81.85,10.59"/>
    <path d="M98.42,330.74c-2.68,1.55-5.51,1.83.85,4.94"/>
    <path d="M98.56,340.06c-4.27-5.69-16-3.5-15.38-1.23.25.82,5.6.75,8.39,3.85"/>
    <path d="M89.61,344.49C84.86,341,77,339.62,73.06,342.15"/>
    <path d="M20.6,319.21c7.06,13.2,17.82,16,28.42,7.39"/>
    <path d="M18.93,328.49c2.47,2.15,3.58,4.19.39,5.88"/>
    <path d="M47.73,331.51c-4.89,2-5.88,4.56-.68,8.15"/>
    <path d="M20.45,338.3c6.34-7.25,21.66.55,19.89,1.12-7.1,2.27-9.7,4.54-14.23,3.18"/>
    <path d="M46,342.9c-3.34-2.64-9.92,2.64-14.9,2.94"/>
    <path d="M15.84,404c3.57,2.25,7.07,3.63-.12,6.91"/>
    <path d="M41,412.09c-1.48-2.18-8.42-1.48-1.56-4.11"/>
    <path d="M37.94,416.06c-6.07-3.95-14-5.89-21.63-1.58"/>
    <path d="M97.7,390.22c2.63,5.36-10,14-15.45,10"/>
    <path d="M97,400.77c-4.16,3.43-3.25,4.39.79,4.48"/>
    <path d="M73.45,401c1.85,4,11.2,6.72,4.82,8.53"/>
    <path d="M94.82,408.42c-7.48-2.38-11,3.86-16.47,5.8"/>
    <path d="M18.36,398.31c.79,5.62,3,3.07,8.06,5.71,3,1.57,20.66-1.49,12.58-6.07"/>
  </g>
  <g class="cable">
    <g class="cableWire">
      <path d="M74.12,440.47A58.63,58.63,0,0,1,61.89,439a101.79,101.79,0,0,1,12.53-.49c.13-.67.3-1.37.49-2.1a113.68,113.68,0,0,0-15.18,1c.84-1.11,7.89-2.09,15.5-2.18.26-.92.54-1.87.83-2.85-12.73.29-27.36,1.29-27.22,5.77.06,1.74,1.91,3,4.76,3.84,1.94,3,11.74,3.3,20.38,3.54,0-.74.14-1.53.23-2.44A8.73,8.73,0,0,1,74.12,440.47Zm-20.52-.65c-1.38-.46-2.21-1-2.21-1.63,0-1.13,3.07-2,7.42-2.6-1,.55-1.58,1.24-1.55,2.08a1.09,1.09,0,0,0,0,.26A6.75,6.75,0,0,0,53.6,439.82Zm2.44.61a3.34,3.34,0,0,1,2.16-.95c1.42,1,4.23,1.72,7.26,2.09A83,83,0,0,1,56,440.43Z"/>
      <path d="M152.32,441.64c-38.86-28.21-63.67-127.1-59.73-171.16,10.34,13.74,29.63,10.7,38.76-5.23,10.19-17.8,4.18-41.71-14-41.74-16.83,0-25.12,24.4-26,41-14.5-23.63-14.74-58.78-29.16-67.31-19.9-11.76-34.81,1.67-37.6,33-2.44,27.29,9.21,44.5,25,44.5,18.87,0,25.73-23.5,24.93-48.8,4.15,17,8.83,29.66,16.15,41.87-4.45,39.67,15.82,138.32,58.11,174.73-1.12.28-2.27.53-3.43.76a56.55,56.55,0,0,0-9.42-3.45c0-1.37-2-2.95-5.28-3.86.49-4.47-12.81-7.14-24.71-5.36.68.72,1.42,1.42,2.19,2.11,6-.31,15.35.59,16.3,2.28a95.53,95.53,0,0,0-14.12-.46c1,.78,2,1.51,3,2.2,3.51,0,7.94.19,10.87.42-.76.81-3.8,1.42-7.27,1.78,1.09.6,2.14,1.12,3.1,1.53a11.94,11.94,0,0,1,7.1,5.12c5.51,1.88,11.72,1.62,17.82.16,3.16,1.55,6.61,4.15,10,5.45a2.22,2.22,0,0,1,.68-2c-3.28-1.28-5.24-3-7.64-4.26.86-.21,2.33-.43,3.2-.68C163,451.69,185,452.94,186.19,447S168.28,439.09,152.32,441.64ZM117,225.68c17.45-.83,21.16,24.39,12.39,38.61s-26.58,18.31-36.35,3C94.62,253,99.39,226.52,117,225.68Zm-46.22,7.94c-.5,18.53-8.14,44.57-28.5,35.08-15.92-7.43-17.72-35.56-9.93-58.31a81.5,81.5,0,0,0-1.32,18,6.14,6.14,0,0,0,2.34,0c-.08-9.88.82-19,3.95-25.78C49.24,190.72,71.78,197.26,70.79,233.62ZM129.69,438a6.6,6.6,0,0,1,2.93,1.25,18.11,18.11,0,0,0-4.19-.24A9,9,0,0,0,129.69,438Zm-4.34,4.08c-.09-1,3.05-1.69,6.59-1.17A19.8,19.8,0,0,1,125.35,442.06Zm3.82,1.77c2-.33,5.12-1.4,5.69-2.2a48,48,0,0,1,7,2.45C138.08,444.74,132.21,444.86,129.17,443.83ZM183,446.48c-.3,3.14-18.39,2-27.59-2.85C168,441.63,183.26,443.88,183,446.48Z"/>
    </g>
    <g class="cableGuard">
      <path d="M30.5,239.53c0,.44,3.52.44,3.52,0V228.47c0-.33-3.52-.33-3.52,0Z"/>
      <path d="M163,454c1.75.41,2.56-3,.81-3.43l-6.92-1.64c-1.88-.45-2.69,3-.82,3.42Z"/>
    </g>
    <g class="cablePlug">
      <path d="M31.3,239.81v8l1,1.13,1-1.13v-8A10.16,10.16,0,0,1,31.3,239.81Z"/>
      <path d="M163.73,453.34l5.22,1.24,1.33-.66-.88-1.2-5.23-1.24C163.05,451.21,162.61,453.07,163.73,453.34Z"/>
    </g>
    <g class="cableOverlapLine">
      <path d="M74.53,225.89a47.31,47.31,0,0,0-3.18-16.59"/>
      <path d="M37.33,202.57a24.77,24.77,0,0,0-5,7.82"/>
      <path d="M64.34,201c13.9,17.2,8.12,57.52-5,66.32"/>
      <path d="M48.74,194.67c-15.13.93-23.32,18.07-23.21,43,.08,19,8.75,33.93,23.37,35.35,12.66,1.24,21-11.23,24.56-27.8"/>
      <path d="M53.6,439.82a1.74,1.74,0,0,0,0,2.19"/>
      <path d="M56,440.43c-1.12,2.15,7.67,2.48,18.17,2.68"/>
      <path d="M58.81,435.59c3.44-1.6,10.79-2,16.92-2.06"/>
      <path d="M59.73,437.43a23.14,23.14,0,0,0-2.44.5"/>
      <path d="M61.89,439a35.07,35.07,0,0,0-3.69.46"/>
      <path d="M65.46,441.57c3.18.22,5.83.33,8.61.37"/>
      <path d="M90.68,267.76c.61.87,1.24,1.78,1.91,2.72"/>
      <path d="M91.33,264.53c.5.83,1.09,1.85,1.72,2.75"/>
      <path d="M148.79,442.49c.76.59,1.58,1.18,2.46,1.76"/>
      <path d="M152.32,441.64a19.59,19.59,0,0,0,3.1,2"/>
      <path d="M148.05,444.93c-1,.29-2,.55-3.08.79"/>
      <path d="M145.36,443.25l-3.5.83"/>
      <path d="M135.94,439.8a3.3,3.3,0,0,1-1.08,1.83"/>
      <path d="M129.17,443.83a24.08,24.08,0,0,1-2.95.42"/>
      <path d="M124.22,437.13a28.64,28.64,0,0,1,5.47.85"/>
      <path d="M124.44,435a35.52,35.52,0,0,1,6.22,1"/>
      <path d="M126.59,437.37c-1.41.92-4.06,1.74-8.22,2.29"/>
      <path d="M106.05,430.69c11.7-1.13,21.26,1.75,21.77,4.67"/>
      <path d="M132.62,439.23c.86.57.6,1.12-.68,1.66"/>
      <path d="M125.35,442.06c-.53,0-1.06.06-1.56.06"/>
      <path d="M128.43,439a25.11,25.11,0,0,1-6,2.37"/>
    </g>
  </g>
  <g class="eye">
    <circle class="sclera" cx="80.13" cy="50.49" r="16.34"/>
    <g class="irisDarkBrown">
      <ellipse cx="74.76" cy="51.87" rx="3.3" ry="3.47" transform="translate(-4.47 7.12) rotate(-5.3)"/>
      <ellipse cx="93.62" cy="49.99" rx="3.3" ry="3.47" transform="translate(-4.22 8.86) rotate(-5.3)"/>
    </g>
    <g class="pupil">
      <ellipse cx="74.99" cy="51.85" rx="1.28" ry="1.35" transform="translate(-4.47 7.15) rotate(-5.3)"/>
      <ellipse cx="93.85" cy="49.97" rx="1.28" ry="1.35" transform="translate(-4.21 8.88) rotate(-5.3)"/>
    </g>
  </g>
  <g class="skinEastAsian">
    <path d="M37.16,203a5.58,5.58,0,0,0,6,3.08c2.2,4.57,5.81,1.24,7.38,2.46,2,1.58,3.82.6,5.79.13,6.5-1.53,8.52-3.73,11.07-9.79a2,2,0,0,0-2.55-3.07c1.14-2.63-1.76-4-3.6-2.9-.88-2.89-4.83-1.93-6.59,2,0-1.59-1.42-2.12-2.65-1.95-1.71-3.72-4.85-6-9.81-6.21-3.52.13-4.74-4.74-10.91-3.7-1.32-1.84-2.28-4-4.46-7-9.11-5.37-23.46,1.11-20.58,12.23,5.29,8.37,18.09,8.65,27.89,12.29,4.7-5.9,10.38-8.06,16.81-7.42-1.59.65-3,2.14-4.25,4.34C42.63,198.17,37.58,201.63,37.16,203Z"/>
    <path d="M96.94,204.64c5.28-9.8,4.62-21.2,6.66-33.41,4.91-4.08,20.09.27,21.47,4-1.26,9.91-9.44,22-14,32.49-1,1,6.5,4.63,7.7,19.52-.1,1.3,1.47,4.13,1.2,5.92a2.55,2.55,0,0,1-3.43,1.52c.6,2.74-2.22,4.53-3.93,3.42.08,2.53-3.25,3.77-4.71,2.65.26,3.17-3.68,4.37-5.39,2.57-.89-.7-2-6.46-3.19-7.36-.61,1-1.08,2-1.59,3-1.3-4.73-4.14-7.45-3.34-15.1C95.15,216.76,93.68,210.69,96.94,204.64Z"/>
    <path d="M78.39,83.8C75.46,85.05,75.27,93.16,77,96c5.45,11.51-33.45,13.53-35.78-1.71,4.38-1.54,4.58-18.57,1-26.52"/>
    <path d="M45,72.44c-3.27,2.53-5.6,1.18-6.77-.87-2.1-3.66-7.38-5.18-7.79-12.74-5.35-22.64,40.7-53.15,65.21-31.6C93.72,41.84,99.17,41,97,50c-.62,4.76,6.71,17.3-2.44,33.17-2.23,3.87-3.2,8.81-8.63,10C78,95,74.75,93.37,64.27,90a26.44,26.44,0,0,1-13.39-9.38M77.62,52.07a5.29,5.29,0,0,0-5.46-2.71c-2.57.31-5,2.43-6.36,3.7a17.81,17.81,0,0,0,6,.93c1.53-.07,3.11-1.05,5.24-1C77.42,53,78.07,52.86,77.62,52.07ZM89,51.77c1.16-.51,3.47,1.43,6.55-.85a3.64,3.64,0,0,0,0-2.44,3.29,3.29,0,0,0-2.88-.59c-2.21.54-3.29,1.91-4.4,3.39C87.88,51.68,88.37,52,89,51.77Z"/>
  </g>
  <g class="skinOverlapLine">
    <path d="M96.66,226.82c.35,3.45,1,6.7,2.69,9.12"/>
    <path d="M105.47,234.13c1,.86,2.25,5.1,2.46,6.6"/>
    <path d="M110.89,232.48a51.19,51.19,0,0,1,1.75,5.6"/>
    <path d="M115.6,230.2c-.39,1.1.76,3.17,1,4.46"/>
    <path d="M64.83,195.77c-.91,1.42-1.27,4.83-3.17,7.37-1.18,1.56-3,2.05-5.57,3"/>
    <path d="M52.28,204.9c4.69-1.86,7.42-6.26,8.95-12"/>
    <path d="M43.14,206c8.55-2.32,10.31-8.28,11.5-11.15"/>
    <path d="M31.27,183c-3.2,1-2.05,4.58,2.35,7.6a11.1,11.1,0,0,0,1.62,8.62"/>
    <path d="M42,192.49c-2.68-.86-5.55.07-8.33-1.86"/>
    <path d="M52,192.94a3.21,3.21,0,0,0-1.06.2"/>
  </g>
  <g class="skinFoldLine">
    <path d="M40,187c.32,1.15-.44,3.06-1.4,3.44"/>
    <path d="M39.9,58c-4.7-8.59-12.25,1.07-3.53,8.19"/>
    <path d="M40.17,61.57C38,64,43.2,66,41.66,67.32c-1.06.88-1.13-1.9-4-3.54-3.45-2-1-6.31.68-4.41"/>
  </g>
  <path class="lipMaleMedium__noStroke" d="M89.39,72.26a5.39,5.39,0,0,1-5,.95c-2.53.06-3.64,2.32-8.75,3.87,1.3,1.13,4.3,7.9,9.65,6.55,7.34-1.85,1.77-5.21,4.84-8.47C88,74.39,91.47,73.23,89.39,72.26Z"/>
  <path class="mouthInner" d="M78,76.7c-.67.16-1.36.31-2.06.43,4.76,4,11.65,4.28,11.92-.2h0C85.51,78.9,80.92,78.39,78,76.7Z"/>
  <path class="teeth" d="M87.6,74.51a2.36,2.36,0,0,1-2.66.32c-.67-.32-3.49,1-6.93,1.87,2.91,1.69,7.5,2.2,9.86.22l.12-.1a2.08,2.08,0,0,0,.21-.21l0,0,.13-.14,0-.06.09-.12.09-.12a.35.35,0,0,0,0-.08,4.43,4.43,0,0,0,.49-1v0A4.9,4.9,0,0,1,87.6,74.51Z"/>
  <g class="lipOverlapLine">
    <path d="M87.6,74.51l.33-.3"/>
    <path d="M89.14,75a4.38,4.38,0,0,0,1.68-.1"/>
  </g>
  <g class="lipEdgeLine">
    <path d="M84.39,73.21a5.39,5.39,0,0,0,5-.95"/>
    <path d="M78.28,80.75c3.84,4.47,11.11,3.77,11.19-1.65"/>
  </g>
  <g class="cheekLine">
    <path d="M91.5,66.86c.81.63,1,1.32,1.39,2.64"/>
    <path d="M78.78,65.34c-1.1.72-1.92,1.65-3.25,4.2s-2.16,3.27-2.4,4.81"/>
  </g>
  <g class="noseLine">
    <path d="M88.56,59.34c.76,4.22,4.92,5.59,2,9.43"/>
    <path d="M78.78,65.34a2.66,2.66,0,0,0,.9,4.22"/>
    <path d="M81.75,69.47c.9-1.61,2.5.28,5.17,0a3.82,3.82,0,0,0,3.3-1.72"/>
  </g>
  <g class="eyeFoldLine">
    <path d="M95,53.43a4.26,4.26,0,0,1-4.5.52"/>
    <path d="M75.87,55.2a6.12,6.12,0,0,1-5.92.59"/>
  </g>
  <g class="eyeCornerLine">
    <path d="M64,55a23.83,23.83,0,0,0,1.85-1.92"/>
    <path d="M95.46,48.48c.33.21.48.61.81.73"/>
  </g>
  <path class="eyeCreaseLine" d="M66.19,50.89A7.84,7.84,0,0,1,76.43,49"/>
  <g class="eyebrowBlack">
    <path d="M79.66,41.69C77.19,46.8,68.17,42.11,63,48,66.77,40.3,72.65,44.16,79.66,41.69Z"/>
    <path d="M96.89,42.27c-3.23-2-6.14-.36-9.08-1.39,1.79,3.8,4.46.79,9.51,3.12A16.81,16.81,0,0,0,96.89,42.27Z"/>
  </g>
  <path class="hairBlack" d="M66.43,28.53c2.78,13.39,16,10.3,19.69,13.26a13,13,0,0,0-2.43-4.34c4,2.89,11.47.07,15.7,4.33.49-5.94.11-12.77-3.41-18,1.09.7,2.6,1,5.19,1.43C92.7,18.47,88.8,3.26,63.88,3.5,55.21,3.58,42,6.13,37,11.23,36.52,7.52,38.63,3.08,41.37.8c-5,2-8.08,8.42-7.62,12.69-1.6-3.5-7.2-3.94-9.37-.28,4.29-2.47,7.65-.31,7.41,3.3-10.52,13.12-4.95,40.24-1.38,42.32-.43-7,8-10.24,10.21-2.94a32.86,32.86,0,0,0,8.14-.63c.19-5.17-1.21-4.08,1.73-9,4.23-1.15,10.72-2,13-7.61a16.6,16.6,0,0,1-.71,5.45C64.38,41.85,67.47,40.25,66.43,28.53Z"/>
  <path class="hairOverlapLine" d="M50.49,46.27a45.64,45.64,0,0,1-4.58,1A29.48,29.48,0,0,0,49.27,44"/>
</svg>
