<svg viewBox="0 0 250.97 253.11">
  <g class="wheel">
    <path class="wheelHubLight" d="M141.6,137.08l-3.72-17-5.32,8.31,5.87,10.1c-.74,2.06-5.4,9.23-6.28,9.44l-14,3-1.93,3,17-3.75C134.29,149.9,141.84,138.17,141.6,137.08Z"/>
    <path class="wheelHandle" d="M101.93,158.8c-3.3,5.15,4.62,10.22,7.91,5.07l34.43-53.77c3.22-5-4.69-10.09-7.92-5.06Z"/>
  </g>
  <path class="soleWhite" d="M232.12,210.37c6.12-4.65,12.69-8.73,18.58-1.93-1.7,8.05-14.15,17.58-23,29.24-4.36,5.75-13,14.73-14.74,15.07a7.67,7.67,0,0,1-4.64-3.17Z"/>
  <path class="bennettShoe" d="M193.25,211.65c6.66,6.25,12.8,6.54,19,5.41,5.91-1.08,13.72-1.48,19.84-6.69.68,2.95,2.26,5,5.1,7.25-4.37,6.61-11.67,12.63-17.57,20.63-3.77,5.11-8.61,10.76-11.33,11.33-5.93-3-11.11-9.6-19-16.74Z"/>
  <path class="shoelace" d="M225.29,217.58a6.27,6.27,0,0,1-.92-3c-4.2,1.39-8.49,1.79-12.09,2.45a26.55,26.55,0,0,1-7.21.41,6.77,6.77,0,0,0,.27,3.69C210.49,221.88,220.64,219.93,225.29,217.58Z"/>
  <path class="shirtWhite" d="M68.83,185.52c1.63,1.62,1.72,3.51-.87,5.89.81,1.48.77,3.43-.25,4.43-15.37,12.67-47.83,33.73-59.19,26.82-1.78.43-.2-5.66-1.25-8.52-1.68-4.55,2.83-3.6.55-7.71Z"/>
  <path class="bennettJeans" d="M8.52,222.66c9.28,0,17.49-4.32,25.08-11.21a32.94,32.94,0,0,1,20.71-9.69c24.48-10.73,51.43-25.28,62.49-26.13,9.42-.74,34.18,15.08,62,28.57,2.82,1.37,8.79.11,11.21,5.18,4.62-2.31,4.21,2.25,6.61,5.23-2.48-1-2.54,3.23,0,5.21a67.29,67.29,0,0,1-4.5,15.76c-4.67-.62-8.75,5.58-11.25-.75-5.78,3.29-8.41-2.22-12.67-3.7-37.71-13-39.52-16.39-44.45-16-4.54.36-3.21-3.18-4.89-3.94-1.08,4.07-3.81,2.75-6.44,4.65-19.36,14.06-52.84,36.64-65.71,37C24.38,253.46,11.61,240.44,8.52,222.66Z"/>
  <g class="bennettHoodie">
    <path d="M84.69,136.8a2.82,2.82,0,0,1,3.23.83c9.65-4.27,10.56-6.26,12.13-6.52,1-.18,4.49,2.62,3.8,3.4C81.33,149.69,73.34,152,84.69,136.8Z"/>
    <path d="M90.18,111.85c.29,7.87-3,8-3.53,13.57-.73,7.35,3.21,6.55-4.54,18.75,3.29-.06,4.82-5.36,8.75-2.92,3.45-1.77,7.23-6.9,8.78-8,3.27-2,12.58,11.34,9.38,13.49-1.19.8-7,4.27-9.73,7.13-1.17,3.3-2.7,5.82-5.67,5.19-6.27,13.49-11.29,9-20.5,17.24-.75,3.85-2.16,7.36-5.16,10.05C57.06,197.24,45,190,31,193.77,15.34,197.94,9,212,.37,205.2c1.11-3.33,6.69-4.31,9.48-10.32-1-6.27-3.76-7.8,2.51-17.86-.14-12.12,4.61-13.52,4.75-19,.07-2.93,15.28-39.47,31.74-56.64C66.7,88.31,92.85,94.47,90.18,111.85Z"/>
    <path d="M90.18,111.85c.29-13.22-20.5-20.64-45.45-5.71-8.8,5.27-19.45,1.25-11.88-10.63-3.45-5,4-6.83,5.94-10.24C38.5,79.62,44.62,71.13,49.93,74,64.87,82,100.33,93.48,90.18,111.85Z"/>
  </g>
  <g class="bennettHoodieInner">
    <path d="M55.76,81.62c5.5-2.52,7-8.32,13.07-5.05,14.7,7.89,23.6,17.5,22.62,24.61C87.16,94.33,67.64,89.49,55.76,81.62Z"/>
    <path d="M68,186.37c-14.65,12.53-30.82-3.57-42.9-4.12C20.48,196.82,8.26,210.15.37,205.2c.81,3.84,13.94,2.45,21.76-2.15,8.41,0,15.58-2.18,21.06-7.38C54.66,196,62.48,192.39,68,186.37Z"/>
  </g>
  <g class="hoodieLace">
    <path d="M81.3,123.33l-5.52,2.28c-.29.13.25,1.38.55,1.25l5.57-2.37Z"/>
    <path d="M89.91,116.1a16.61,16.61,0,0,1-8.42,6.75c-.6.28.3,2.09.91,1.81C86.49,123.28,91.58,118.81,89.91,116.1Z"/>
  </g>
  <path class="clothesDisplayLine" d="M237.22,217.62a65.43,65.43,0,0,0,8.5-12.53"/>
  <g class="clothesOverlapLine">
    <path d="M85.2,123.33c-.8,3.8-.69,7.77-4.42,8.12a7.26,7.26,0,0,1-1.71,7.75c-1.5,1.14,1,6.74-4.43,9.65-1,.52-.19,2-1,3.12l4.63-2.72,3.85-5.08"/>
    <path d="M87.92,137.63a4,4,0,0,1,.9,3"/>
    <path d="M90.86,141.25c2.79.86,8.82,8.61,8.43,12.64"/>
    <path d="M73.12,176.32c-4.72,3.51-18.49,4.05-22.62-.17-6.43-5.84-5.53-25.49.81-39.27,1.4-2.11-.71-5.73,2-8.24"/>
    <path d="M45.23,189a15,15,0,0,0,5.16-4c5.78,2.91,12,2.81,18.44.55"/>
    <path d="M205.34,221.16a36.53,36.53,0,0,1-8.74-1.34"/>
    <path d="M208,217.55a11.57,11.57,0,0,0,0,3.76"/>
    <path d="M211.4,217.17a11.84,11.84,0,0,0,0,3.94"/>
    <path d="M214.67,216.66a28.24,28.24,0,0,0,0,4"/>
    <path d="M217.71,216.17a12.25,12.25,0,0,0,.23,3.85"/>
    <path d="M220.92,215.55a7.73,7.73,0,0,0,.55,3.45"/>
  </g>
  <g class="clothesFoldLine">
    <path d="M69.39,80.46c-1.6-1.38-3-2.71-1-2.69"/>
    <path d="M55.76,81.62c-6.58-2.79-10.5-8-4.63-5.4"/>
    <path d="M38.79,85.27c.15,1.92,1.56,3.18,1.37,4.65"/>
    <path d="M32.85,95.51A2,2,0,0,1,33,98.06"/>
    <path d="M87.73,117.27C90,106,76.72,99.47,84.24,110"/>
    <path d="M51.86,123.88c-1.52-2.51-1.68-5.83-1-9.64"/>
    <path d="M53.14,121.31c-1.28-7.62,5-1.29.18,7.33"/>
    <path d="M30,136.9a29,29,0,0,0,16.36,3.95"/>
    <path d="M48.12,145.9a34.48,34.48,0,0,1-10.21-.37"/>
    <path d="M19.62,164.43c4.95,4,12.74,3.6,20.49,1.56"/>
    <path d="M12.36,177a5.31,5.31,0,0,0,.19,2.91c2,2.37,9.91,2.48,18,.55"/>
    <path d="M9.85,194.88c.56,1.93.56,4.15-2.34,7.81"/>
    <path d="M68,191.41c-2.83,1.56-9.31,2.19-6,4.12"/>
    <path d="M42.5,200.21c-10.64,5.6-25,16.34-31.29,12.57"/>
    <path d="M54.89,133.23c3.94.92,1.28,2.48-1.75,6.43"/>
    <path d="M48.37,160.85c1.21,1.49,1.59,3.7,1.29,6.51"/>
    <path d="M80.78,131.45c-1.21-3.45-3.69-2.71-2.5,1.14"/>
    <path d="M65.44,124.43c4.31,13,11.37,10.73,12.52,20.6"/>
    <path d="M72.64,143.4c-11.12-3.77-.12,1.8,1.44,6.55"/>
    <path d="M67.85,155.3c-7.23-4.3,1.68-1.79,5.78-3.33-1.47,6.26-14.59,8.21-18.21,15.65"/>
    <path d="M60.26,156c8.93.63-1,2.39-4.6,6.76"/>
    <path d="M66.72,165.77a17.05,17.05,0,0,1-5,9.09"/>
    <path d="M66.72,158.57A23,23,0,0,1,61,171.33"/>
    <path d="M71.7,155.12c.47,3.92-.22,8.51-1.75,13.58"/>
    <path d="M73.63,152c1.94.24,2.84,6,2.24,10.51"/>
    <path d="M78.26,149.25c6.22,1,7.84,7.55,8.07,15.8"/>
    <path d="M86,150.34c4.08,2.29,6.85,5.1,7.59,8.74"/>
    <path d="M88.19,144.78c2,.54,8.07,6.69,3,5.62"/>
    <path d="M184.4,210A19,19,0,0,1,180,221.6"/>
    <path d="M190,209.38c.85,3.63-5,16.68-3.33,17.67s3.5-6.77,4.85-12.07"/>
    <path d="M180.85,234.83c3.38-2.6,5.64-5.08,5.3.11"/>
    <path d="M132.56,185.41c3,6,7,11.13,12.63,14.77"/>
    <path d="M112.37,191.5c-.56,7.22,4.94,18.62.24,18.27"/>
    <path d="M124.33,191.16c-1.82,19.39-.34,17.52,3.72,1.92"/>
    <path d="M118.84,211.19c1-8.63-1.73-20.48.41-20,3.14.66.69,10.16.92,19.07"/>
    <path d="M46.58,211.55c-3.38.25-5.4,5.6-6.77,13.31"/>
    <path d="M33.6,211.45A41.89,41.89,0,0,0,27.51,222"/>
    <path d="M54.31,201.76C46.24,206.7,34.39,211.1,35.52,218c.48,2.88,4.51-5.53,9.14-9.81"/>
  </g>
  <g class="eye">
    <circle class="sclera" cx="124.03" cy="64.22" r="4.9"/>
    <path class="irisDarkBrown" d="M124.53,68.22c.37.11,1.71-1.1,2.27-2.93s.13-3.58-.23-3.7A19.81,19.81,0,0,0,124.53,68.22Z"/>
    <path class="pupil" d="M126,66.45c.29.09.61-.45.83-1.16s.25-1.33,0-1.42A10,10,0,0,0,126,66.45Z"/>
  </g>
  <g class="skinEastAsian">
    <path d="M75.22,65.51a25.52,25.52,0,0,1-5.83,14.95c8.4,7.52,21.06,13.15,22.06,20.72,1.25-3.94,2.55-7.05,13.62-7.05"/>
    <path d="M133,131.06c-3.77-.89-6.66-3.05-10.59-4.19l1.39-2.18c-3.32-1.63-7.49-1.52-12.54.43-5.68,2.19-5.09,3.92-9.3,8.41,3.67,2.05,8.85,10.12,7.54,12.71,5.32,3.83,8.71,2.83,11,3.68,4.44,1.11,5.27-.6,5.43-2.7a3.46,3.46,0,0,0,3.38-4.66c3.55.11,4.45-4.12,3.4-5.4C135.25,136.16,134.86,131.72,133,131.06Z"/>
    <path d="M87.19,77.47c2.3-7.48,5.47-42,47.6-29.07-2.74,7.61-.21,8.62-4.88,15.73-2.74,4.15,1.82,10.33,1.68,17.24-.12,5.48-6.26,1.69-7.29,1.44-.87,1.48-1.37,2.35-.57,3.93.2.26-.57,1.1-1.23,1.54a2.6,2.6,0,0,1,.57,3.25c-6.26.92-1.45,11.34-12.42,10.77-2.43-.13-5.73-3-11.52-7.31a39.21,39.21,0,0,1-9-9.24m36.91-23c-2.51.2-5,.83-6.47,1.06,1.71,1.08,3.83,2.61,5.18,3.49A6.67,6.67,0,0,0,127.05,62.76Z"/>
  </g>
  <g class="skinOverlapLine">
    <path d="M129.18,136.74a9.2,9.2,0,0,0,3.46.42"/>
    <path d="M126.21,142.12a13.9,13.9,0,0,0,3,.44"/>
    <path d="M122.59,146.29a8.32,8.32,0,0,0,3.27.93"/>
  </g>
  <path class="lipMaleMedium__noStroke" d="M116.58,87.82c2.81.33,4,3.12,6.49,3.71h0a2.6,2.6,0,0,0-.57-3.25c.66-.44,1.43-1.28,1.23-1.54C121.67,87.2,119,86.32,116.58,87.82Z"/>
  <path class="lipBorderLine" d="M122.5,88.28c-3-1.53-4.54-.53-5.92-.46"/>
  <path class="lipEdgeLine" d="M120.18,89.66a9,9,0,0,0,2.89,1.87"/>
  <path class="cheekLine" d="M115.16,89.74c2-2,1.79-4.2,5.41-7.08"/>
  <path class="noseLine" d="M127,82.85c-2.3-.5-4,.52-4.76-.19a2.11,2.11,0,0,1-.13-2.9"/>
  <g class="eyeLidLine">
    <path d="M127.05,62.76c2.77.08,1.89-2.95,1.89-2.95"/>
    <path d="M125.76,67.31c.78.67.08,1.7-.77,2.16"/>
  </g>
  <path class="eyeCornerLine" d="M120.58,63.82a7.33,7.33,0,0,1-1.16.12"/>
  <path class="eyeCreaseLine" d="M122.31,62.32a22.59,22.59,0,0,1,6.74-1.17"/>
  <path class="eyebrowBlack" d="M131.75,55.84c-3,3.89-6.79,0-11.42,1.74C124,53.52,127.1,56.6,131.75,55.84Z"/>
  <path class="hairBlack" d="M140.52,45.42c1.3,2.16-2.62,6.22.23,11.26-7.53-4.82-10.36-11.56-8.09-20.37-10.14,17.38-18.22,13.94-25.1,18.18a8.42,8.42,0,0,1,2.7-4.08,13.13,13.13,0,0,1-6.9-.1C101.87,26.57,136.8,24.46,140.52,45.42Z"/>
  <path class="goKartHelmetTrim" d="M145.87,51.38c-1.33,3.25-31.41-4.4-39-.94-6.37,2.92-7,22.27-17.41,30-10.11,7.48-38.95-17-39.94-19.17-.87-.76.87-8.89,1.87-8.45,30.77-21.19,62.35-21.28,94.44-7.74C147.3,44.88,146.17,51,145.87,51.38Z"/>
  <path class="goKartHelmet" d="M145.86,45.06c-15.4-.39-34-4.8-42.28-1.18-10,4.39-10.59,26-18.32,29.65-4,1.93-23.92-9.5-33.84-20.73C43.48,31.59,65.11-2,95.78.37,131.15,3.17,148.87,20.38,145.86,45.06Z"/>
</svg>
