<svg viewBox="0 0 137.27 458.81">
  <g class="soleWhite">
    <path d="M58.46,441.08c-.71,2.62-2.1,6.49-1.24,8.68,1,2.54.64,3,2.16,5.35,2.95,4.53,30.41,4.57,32.2.27,1.25-4.19-1.19-8.78-4.22-11.49C82.75,438.27,72.09,438.29,58.46,441.08Z"/>
    <path d="M113.32,429.61a10,10,0,0,1,4.16,11.4c-3.23,4.3-24,6.24-28.76-.43-5.23-7.39-4-10.33-8.74-17-2-2.84-1-7-.29-9.25Z"/>
  </g>
  <g class="bennettShoe">
    <path d="M61.71,411c.33,12.64-2.17,19.23-3.25,30.1a7.58,7.58,0,0,0,.78,4.84c1.12,2.19,1.17,2.17,2.25,3,2.7-10.26,21.71-8,25.87-5-2.17-3.92-3.09-6.76-5.64-11.93s-4-10.22-3.63-19.83C73.21,409.33,68.19,408.64,61.71,411Z"/>
    <path d="M108,397.63c-1.49,5.14-3,10.23-1.8,15.06,1.81,7.26.57,13.26,7.17,16.92-5.59-3.08-18.09-1.89-22.23,6.12-2.49-1.56-4.28-5.35-5.59-8.9-1.6-4.31-5.6-8.77-5.81-12.49,1.29-8,6.45-10.47,9.54-22.31Z"/>
  </g>
  <g class="shoelace">
    <path d="M67.61,438.52a25.49,25.49,0,0,1,13.27-.21c-1.33-5.14-3-10.05-3.11-14.46a22.55,22.55,0,0,0-11.88-.16A47.16,47.16,0,0,0,67.61,438.52Z"/>
    <path d="M94.21,424.26a25.12,25.12,0,0,1,12.38-.31c-1.16-5.09-2.55-9.95-2.54-14.34a24.91,24.91,0,0,0-11.17-.08A49.51,49.51,0,0,0,94.21,424.26Z"/>
  </g>
  <path class="converseLogo" d="M85.53,416.57c3.23,1.25,5.61-9.84,2.48-11.23S82.22,415.3,85.53,416.57Z"/>
  <path class="bennettJeans" d="M111.39,218.74c7,23,11,53.36,11.1,87.65,0,4,4.32,7.38-1,13.72,4.37,7.91-1.34,12.21-1.2,21.87.18,12-5.51,27.21-6.23,39.65,2.2,4.09,2.27,10.1-3.58,13.49-2.44,1.42-1.23,7.76-6,8.41,1.19-5.68-9.44-6.56-11.25-1.09-2.13-1.66-4.77-1.4-7-2.13-2.84-2.75,3.39-8.47,1.06-12.17-3.89-6.16-.25-10,.26-14.79,1.75-16.26-.86-28.94,1.16-37.27-2.15-5.51,3.53-7.31.8-10.35-2.25-2.52-1.5-4.81.54-6.85-6.32-3-1.61-7.8-3.09-11.83-2.86-4.26-3.42-15.86-7.31-26.48,1.52,16.47-.76,33.12.42,42.34,1.22,9.59-2.27,8-.54,11.56,2.08,4.22-2.57,10-.81,18.54,2.53,7.73-1.1,25.2.91,37.14.76,4.57,2.12,7.27-1.21,8.6.35,8.29,5.12,7.33,2.07,13,3,2.85-1.53,7-3.24,8,.18-5.73-10.59-4.89-11.62.33a7.67,7.67,0,0,0-3.92,3.57c-8.7-5.11-2.36-12.13-6-14.12-5.55-3.07,1.06-11.54-2.88-15.31-4.77-4.56,1.2-10.44-3.17-24-3.59-11.13-1.09-25.56-3.08-28.31-1.64-2.09-.83-6.23,1.42-7.11-7.43-6-1.33-20.62-5.94-28.45-3.09-5.27-.88-8.09-1.43-10.54-6-26.93-3.91-43.84-5.64-48.33-1.94-5,.24-13-.86-22.78Z"/>
  <path class="bennettSleeves" d="M44.45,101.35c-14.19,51.43,50.32,22.73,40.39-8.2Z"/>
  <path class="shirtWhite" d="M51.87,115.67c10.94,5.2,28.34,1.06,31.36-11.84L95.07,229.37c-11.13,8.1-29.42,8.8-45.91.53l-4.7-102A73.4,73.4,0,0,1,51.87,115.67Z"/>
  <g class="bennettHoodie">
    <path d="M82.53,94.53c7.77-3.21,12-1.29,16.08-1.86,12-1.69,18.63,4.38,20.43,20.6.86,7.77,5.71,12.5,6.72,20.94,3,7.26,8.73,14.93,5.75,18.41,0,4,3.87,8,.33,10.64,2.2,5.91.3,8.15,0,12-.21,2.72,1.27,5.72-.67,7.93,1,2.54,1,4.77-.34,6.59.73,2.21.67,4.29-1,6.08a9.64,9.64,0,0,1-.51,5.57c4.73,3.38-3.21,6.08-1,8.62,1.07,2.58.41,4.31-1.86,5.23-1.69,6.42.17,9.93-.62,11-2.28,3.22-14.41,3.15-15.25.61-2.87,6.08-10.64,5.91-14.19,11.49-12-17.06.57-22.73-6.92-40.36-5.74-13.51,1.73-20-4.23-31.41-4.28-8.26,3.07-17-.84-26.35-2.45-5.87.68-10.13-.51-18.07C86.24,110.9,86.76,100.94,82.53,94.53Z"/>
    <path d="M44.46,127.94c6.85,16.67,2.34,18,3.56,27.64,1.5,11.94,6.76,7.49-.55,37.84,2.75,1,2.62,8.76,2.61,16.23-2.79,5.7,5.25,20.32-3.91,38.79-4-4.84-11-4.94-16.42-8.76.9-12.45-4.95-11.17,1.41-32.21-3,2.4-6.43,1.52-10.17-1.72-5.69.28-6.54-2.8-9.35-4.84C9,199,6.15,198.84,4.1,195.42c-4-6.72-3.89-10.74-2.88-15.9.61-3.09-3.47-3.1,1.63-9.12-3.27-4,.65-6.17.32-8.6-1-7.5,2-13.42,3.54-19.38C8,137.53,5.8,133,9.59,128.73c3-24,11.92-16.29,27.46-27.8ZM26.73,166.06c-.75.91,2.51,4.19-.48,7.89a7.29,7.29,0,0,1-1.19,7.66c2,.35,2.27,3.1,5,4.78,1.31-11.84-1.2-26.9.24-34.31C25.65,158.41,31.15,160.68,26.73,166.06Z"/>
    <path d="M79.35,94.28c10.6-3.23,1.9,16,4.53,27.94,2.34-9.8,11.38-20.8,6-27.17-2.42-2.86-6.4-4.93-12.1-4.15l-40,8.5c-5.22-.79-6.38,1.06-8.36,3.91-7.69,4.61,0,10.94,8,16.71,8.46,6.17,11,18,11,24.36,3.11-17.76-8-33.36-3.9-43Z"/>
  </g>
  <g class="bennettHoodieInner">
    <path d="M46.16,91.64c-4.83,3.1-11.61,11.42-11.58,13,.15,7.81,11.6,18.27,13.28,23.31C46.18,115.37,41.67,108.29,46.16,91.64Z"/>
    <path d="M82.07,94c12.62,3.54,1.3,13.57,1.81,28.21-2.76-7.64,0-12-.43-16.8C82.94,99.45,79.39,97.9,82.07,94Z"/>
  </g>
  <g class="zipperDisplayLine">
    <path d="M83.88,122.22c1.19,7.94-1.94,12.2.51,18.07,3.91,9.35-3.44,18.09.84,26.35,6,11.46-1.51,17.9,4.23,31.41,7.49,17.63-5.07,23.3,6.92,40.36"/>
    <path d="M47.47,193.42c7.31-30.35,2.05-25.9.55-37.84-1.22-9.68,3.29-11-3.56-27.64"/>
    <path d="M46.17,248.44c9.16-18.47,1.12-33.09,3.91-38.79"/>
  </g>
  <g class="hoodieLace">
    <path d="M91,143.51l1.38,5.81c.08.32,1.4,0,1.32-.34l-1.39-5.83Z"/>
    <path d="M86.19,115.6c3.31,10.43.86,17,4.52,27.73.19.63,1.8.22,1.69-.36-3.64-9.09-1.37-20.09-5-30.09Z"/>
    <path d="M39.28,149.47l-.45,5.95c0,.32-1.39.19-1.35-.13l.46-6Z"/>
    <path d="M41,122.17c-2.14,10.73-.52,15.44-1.4,27.08-.12.65-1.84.52-1.79-.07.94-10.21-.61-17,1.2-27.23Z"/>
    <circle cx="40.02" cy="121.2" r="1.74"/>
  </g>
  <g class="clothesDisplayLine">
    <path d="M76.32,235.68c-.38,3.81,2.32,6.25,2.17,11.33-.2,6.68,3.29,13.05,1.31,20"/>
    <path d="M84.09,234.44c2.39,5.87,1.87,6.89,2.77,12.77.84,5.56,1.5,11.6-6.56,13"/>
    <path d="M109.79,240.74a25.86,25.86,0,0,1-5.45-4.42"/>
    <path d="M61.49,448.89c5.89,3.64,25.25,3.19,29.86.93"/>
    <path d="M91.09,435.73c5.42,4.56,23.26,2.79,26.29-1"/>
  </g>
  <g class="clothesOverlapLine">
    <path d="M110.57,226.92c-.69-1.53,1-7.56.83-10.4S108,212.6,110,210.31c-2.77-4.67.48-7.15,1.15-8.87-1.31-1.48-1.05-4.39,0-5.82.38-5.72-3.34-10.78-1.31-22.09-2.68-2.73.53-2.65-.16-5.12-2.41-2.22.94-1.72-.75-6.84-1.91-1.08.47-5.28.52-7.95.17-9.42-1.9-19,0-29.68"/>
    <path d="M126.44,215.27c-4.5,1.78-14.13,1-15.22.32-3.6,5.89-12.1,9.62-19.65,13"/>
    <path d="M29.09,230.4c5.22,4.36,13.75,5.09,20.17,9.88"/>
    <path d="M89.46,198.05a42.38,42.38,0,0,0,11.76-5c2.36,4.46,7.08,5.47,6.57,11.71-.17,2.53.34,4.72,2.18,5.51,2.49,1.38,7.19.43,4.83,2.55"/>
    <path d="M29.33,138.49c1.34,4.86,1,9.08,1,13.59"/>
    <path d="M47.47,193.42c-1.75-.49-3.77-.24-6.92-1.9-4.92.26-8.43,13-3.93,15,3.78.36,6.53,1.94,8.47,2C48.08,208.59,50.35,194.22,47.47,193.42Z"/>
    <path d="M31.16,207.47c2.3,1.7,4.72,1.33,7.22-.64"/>
    <path d="M42.86,192.49c.5-5.37-6.15-6.47-9.52-4.42-.88-1.29-2.34-1.39-3.26-1.68"/>
    <path d="M44.87,112.46c-.5,3.45.64,6.88-.29,10.1"/>
    <path d="M65.82,426.54c5.05-1.14,7.74-1.2,12.16-.07"/>
    <path d="M66,429.09a33.63,33.63,0,0,1,12.54.15"/>
    <path d="M66.22,431.64c5.28-.68,8.45-.89,12.82-.09"/>
    <path d="M66.61,434c5.2-.83,8.52-1.05,13-.29"/>
    <path d="M67.06,436.24a30.83,30.83,0,0,1,13.15-.42"/>
    <path d="M65.89,423.69a10.29,10.29,0,0,0-.31-3.57"/>
    <path d="M92.76,412.36a23.54,23.54,0,0,1,11.42-.3"/>
    <path d="M92.83,414.9a24.26,24.26,0,0,1,11.67-.42"/>
    <path d="M93,417.43c3.76-.92,8.44-1.62,11.89-.66"/>
    <path d="M93.36,419.79c3.79-1,8.66-1.66,12.08-.72"/>
    <path d="M93.74,422a25,25,0,0,1,12.24-.64"/>
    <path d="M92.88,409.53c0-2.7,1.77-4.51.34-7.09"/>
    <path d="M79.6,280.57c-.55-4.07,1-9.48.2-13.54"/>
  </g>
  <g class="clothesFoldLine">
    <path d="M21,205.75A5.8,5.8,0,0,1,19.81,202"/>
    <path d="M27,204.89c2.34-7.9,1.46-.88,4.18,2.58"/>
    <path d="M33.34,188.07c-11.92,6.07-7.31,17-10.09,14.11"/>
    <path d="M29.76,187.41A6.61,6.61,0,0,0,26,188.87"/>
    <path d="M27.35,184.85a8.2,8.2,0,0,0-5-.15"/>
    <path d="M14.33,178.78c-5,.51-9,2.95-10.53,8.34"/>
    <path d="M2.85,170.4c1,1.07,3.1,1.47.95,4.07"/>
    <path d="M14.26,175.2c-8-2.12-12.31,5.53-11.19,6.07.67.32,5.56-6.22,16-3.22"/>
    <path d="M6.65,166.5c4,4.09,13.38,6.65,18.43,4.9"/>
    <path d="M26.25,174c-.81,1-1.76,1.47-2.27,2.05"/>
    <path d="M13.6,144.12c6.29,4.95,10.87,11.13,11,20.48"/>
    <path d="M9.43,132.35a15.93,15.93,0,0,0,11,9.8"/>
    <path d="M27.2,141.49c-8.08-5.68-4.9-9.8,2.13-3,0-14.63-6.07-16.54-7.47-15.69s2.6,3.87,4.58,9.13"/>
    <path d="M24,145.28c2.33.73,4.5,1.05,6.29.38"/>
    <path d="M30.36,148.8q-1.62,2.82-3.23.51"/>
    <path d="M41.67,157.36a91.76,91.76,0,0,1-3.36,14.33"/>
    <path d="M45,164.16c-.87,7.72-2,14.44-3.51,19.3"/>
    <path d="M40,207.21c1.5,3.7,3.15,6.68,5,8.5"/>
    <path d="M39.78,213.52a21.62,21.62,0,0,0,3.36,4.24"/>
    <path d="M32.68,215.64c2,4.89,7.54,8.7,10.83,13.09"/>
    <path d="M63.18,229.38c-4.78,0-9.2-.31-12.5-1.9"/>
    <path d="M50.36,222.58a40.84,40.84,0,0,0,16.69,1.32"/>
    <path d="M58.42,221.41a72.64,72.64,0,0,0,20-1"/>
    <path d="M90.92,224.12c-9.68,7.31-35.35,6.28-17.87,3.36"/>
    <path d="M91.23,218.44a39.64,39.64,0,0,1-18.47,4.95"/>
    <path d="M92,209.2c-2.2,0-5.29,1.46-8.19,1.9"/>
    <path d="M91.71,205.75c-4,1.11-9,4.77-13.36,5.35"/>
    <path d="M49.4,184.85a30.38,30.38,0,0,0,8.44-1"/>
    <path d="M52.28,182.8a34.65,34.65,0,0,0,8.26-1.61"/>
    <path d="M66.61,187.19a35.06,35.06,0,0,0,11.85-3.8"/>
    <path d="M73.05,187.7a38.83,38.83,0,0,1-8.56,1.76"/>
    <path d="M69.1,149.6a76.08,76.08,0,0,1-15.65,1.83"/>
    <path d="M62.88,148.65c16.82-4.9,16.85-2.92,22.47-5"/>
    <path d="M57.4,125.91c6.65-2.92-4.68-1.61-9.54,2"/>
    <path d="M52.06,123.13c-1.53.75-3.36.66-4.78,1.18"/>
    <path d="M102.94,110.56c.35,4.58,3.8,7.6,4.17,12.43"/>
    <path d="M105.57,105.29c.08,9.07,4.17,18,3.59,5.56"/>
    <path d="M112.3,109.61c-.22,5.43-2.27,9.87-2.86,14.33"/>
    <path d="M121.82,132.42c1.32,5.27-2.12,17-7.6,19"/>
    <path d="M103.4,152.9c-2.2,8.4-8.19,15.06-13,12.28"/>
    <path d="M108.85,172.23a123.73,123.73,0,0,1-7.65,17.89"/>
    <path d="M109.2,180c-.76,4.32-1,8.23-2.15,10.17"/>
    <path d="M108.73,195.16c-3.11,5.18-6.89,8.46-11.62,9"/>
    <path d="M110.57,200.54c-4,8.66-17.63,13.2-7.17,13.63"/>
    <path d="M126.5,210.37a31.72,31.72,0,0,1-11.19-2"/>
    <path d="M111.12,201.44a11.8,11.8,0,0,0,4.63,2.13"/>
    <path d="M111.15,204c3.07,2.41,14,4.75,18,2.82"/>
    <path d="M111.12,195.62c2.77,3.85,16.7,4.95,18.19,5.8"/>
    <path d="M111.37,189.24c1.9.73,6.6,3,10.67,2.92"/>
    <path d="M131.17,183.18c-2.58,2.26-7,.94-10.81.72"/>
    <path d="M130.83,189.77c-2,.78-2.79,1.47-.6,1.95"/>
    <path d="M129.82,195.85c-2,1.29-6.32.92-8.88.7"/>
    <path d="M109.81,173.53c2.47,2,5.53,2.67,8.79,2.84"/>
    <path d="M125.76,134.21c.08,9.33-4.6,18.71.45,15.32"/>
    <path d="M131.51,152.62c-3-3.67-7.64,4.44-12.39,5.25,3.95-.29,7.91-1.62,10.6-.44"/>
    <path d="M108.9,161.57c7.22.83,14.08-2.2,14.82-1.29,1.22,1.48-1.53,2.85-10.67,3.73"/>
    <path d="M131.84,163.26c-2.41,1.34-10,1.08-3.58,2.8"/>
    <path d="M110.2,165.91c1.84,1.23,5.14.91,8.92.07"/>
    <path d="M109.65,168.41c6.76,2.18,16.9-.29,17.22,1.67.42,2.6-10.39,3.22-16.24.07"/>
    <path d="M29.42,103.31c-.82,2,.23,2.84-.82,4.35"/>
    <path d="M37.3,105.57c4.25-2.2,1.21,7.85,3.25,11.62"/>
    <path d="M107.83,252.6a82.76,82.76,0,0,0-15.48.85"/>
    <path d="M73.23,255.75a107.67,107.67,0,0,0-20.57,4"/>
    <path d="M73.47,261.67c-5.22,1.86-9.72,4.12-13.06,7"/>
    <path d="M86.9,260.71c4.42,1,10.16,2.7,16.33,4.72"/>
    <path d="M56.78,274.5c-1.89,10.38-5.29,20.21-13.27,24.8"/>
    <path d="M77.41,326.76c-3.39,8.11-17,9.68-27.12,4.36"/>
    <path d="M75.11,334.87c-4.6,3.14-9.56,4.84,3.27,5"/>
    <path d="M48,334.81c4.34,2.49,10.77,5.08,3,6.95"/>
    <path d="M53.43,345.63c4.45-5.25,12.19-5,20.23-2.66,2.41.69.36,4-6.29,5.93"/>
    <path d="M90,318.88c6.48,4.49,16.22,6,2.13,10.79"/>
    <path d="M121.5,320.11c-3.67,2.47-6.16,4.73-2.45,5.93"/>
    <path d="M100.84,335.84c2.72-5.57-2.43-4.35-9.92-1.09"/>
    <path d="M120.86,329.18c-3.14,1-5.31,2-2,6.17"/>
    <path d="M112.06,385.72c-10.17,3.51-19.59,2.06-20.8-9.07"/>
    <path d="M87.24,388.14c3.05,2.42,7,3.8,2.69,5.45"/>
    <path d="M111.69,391.17c-4,.6-8.71,1-3.63,4"/>
    <path d="M104.31,397.46c-3.08-3.9-8.16-4.76-13.29-1.82"/>
    <path d="M76,395.64c-6.05,2.68-12.68,4.06-17.25,1.21"/>
    <path d="M78.37,398.75c-7.56,2.22-18.69,2.82-.3,6.69"/>
    <path d="M58.52,407.5c4.47-5,11.69-1.09,16.16.24s-4.67,6.41-13,2.06"/>
    <path d="M55.69,409.57c3.54,1.51,6.42,3.06,2.58,4.95"/>
    <path d="M57.18,416.09c1.82,1.93,5.31,3.2,8.4,4"/>
    <path d="M80.44,411.79c-.47,1.19-2,1.9-4.65,2.13"/>
  </g>
  <g class="eye">
    <circle class="sclera" cx="69.26" cy="56.76" r="21.3"/>
    <g class="irisDarkBrown">
      <ellipse cx="55.65" cy="58.6" rx="3.3" ry="3.34" transform="translate(-6.53 6.99) rotate(-6.79)"/>
      <ellipse cx="79.61" cy="55.75" rx="3.3" ry="3.34" transform="translate(-6.03 9.8) rotate(-6.79)"/>
    </g>
    <g class="pupil">
      <ellipse cx="55.43" cy="58.7" rx="1.28" ry="1.3" transform="translate(-6.55 6.96) rotate(-6.79)"/>
      <ellipse cx="79.39" cy="55.85" rx="1.28" ry="1.3" transform="translate(-6.04 9.77) rotate(-6.79)"/>
    </g>
  </g>
  <g class="skinEastAsian">
    <path d="M79.35,94.28c5.23,18.92-28.48,25.66-34.9,7.07.8-5.85,1.48-12.8-2.14-22.46"/>
    <path d="M60.84,189.78c-3.82-2.09-8.54,2.44-14.29,4.88-2.79,1.4-5.41,9-1.83,12.38a11.09,11.09,0,0,0,6.62,2.61c.79,2.6,3.06,3.12,6.45,2.09,1.27,1.25,2.94,1.42,5.05.35a6.49,6.49,0,0,0,6.8-2.61c6.36,1.92,7.67-2.44,6.45-4-1-1.31-2.66-1.05-5-3.49a12.12,12.12,0,0,0-.67-3.36c-.46-1.1-1.2-1.56-2.36-2.56,2.44-.09,4.1-.87,8,1,4.44,4.19,10.63,1.77,8.25-1.81-2.45,0-5.86-3.6-10.17-5.22C71.57,189.06,65.37,190.92,60.84,189.78Z"/>
    <path d="M134.72,247c4.18-3.27,2-5.46-1.32-9.35-1.76-2.07-.88-7.48-9.32-11.86l-13.51,1.11c-.27,2.77-2.64,5.75-.78,13.82,3.24,1.56,8.34,10.38,12.46,16.66,1,2.1,6.55-.16,5-3.48,1.72.08,4.23-2.11,3.74-3.64C132.69,250.84,135.18,248.45,134.72,247Z"/>
    <path d="M86.57,87.38C82.9,91.75,83.2,96.47,75.19,98c-6.73,1.3-7.79,0-17.59-2.9S39.39,85.39,36.5,76.86c-3.73,2.85-5.14-.92-6.79-2.62C26.57,71,20.3,62.09,25,56.72c-5.94-22.5,38.23-50.25,63.3-29.34C86.16,42.63,92,39.64,90.9,52.91,90.57,57,97.91,73.85,86.57,87.38Zm-22-29.29C63,56,61.07,54.82,58.77,55.24c-4.32.78-5.59,3-7.2,4.32,5.26,3,8.73-.15,12.21-.72C64.21,58.77,65.19,58.85,64.58,58.09Zm12.83-.6c3.38.17,9.13.89,10-3.53-1.54-.7-2.62-1.74-5.62-1.42-2.3.25-4.1,1.93-5.51,4.27C75.73,57.73,77,57.47,77.41,57.49Z"/>
  </g>
  <g class="skinOverlapLine">
    <path d="M63.91,193.85a20.81,20.81,0,0,1,4.14,2.21"/>
    <path d="M71.08,202a21.2,21.2,0,0,1-1.44,7.5"/>
    <path d="M62.75,199.36c1.61,1.1,2.93,2.31,3,3.76.06,2.11-.06,6.82-2.89,9"/>
    <path d="M58,201.46a5.77,5.77,0,0,1,2.3,3.64c.07,1.66-.53,5-2.48,6.64"/>
    <path d="M51.34,209.65a3.12,3.12,0,0,0,2.13-1.37"/>
    <path d="M124.76,249.87a12.08,12.08,0,0,1,2.49,4"/>
    <path d="M128.65,247.36a11.45,11.45,0,0,1,2.34,2.92"/>
    <path d="M132.28,243.86a10.67,10.67,0,0,1,2.44,3.16"/>
  </g>
  <g class="skinFoldLine">
    <path d="M53.47,207.05a2.11,2.11,0,0,0,.43,2.17"/>
    <path d="M32.57,63.19c-5.36-10.64-11-.27-4.17,6.5"/>
    <path d="M32.65,65.56c-2.1,2.47,3.16,4.86.65,6-1.19.54-1.34-2.15-3.23-3.31-3.34-2-1.18-6.22.6-4.36"/>
  </g>
  <path class="lipMaleMedium__noStroke" d="M72.06,79.3a5.21,5.21,0,0,0,5-.89,6.13,6.13,0,0,0,3.63.58c-2.78,2.55,1,7.73-5.46,9.74-7,2.21-8.21-5.38-11.26-6.84C68.45,81.26,70.6,79.53,72.06,79.3Z"/>
  <path class="mouthInner" d="M66,81.79c-.42,0-.86.09-1.3.12,3.29,1.59,6.34,3.4,8.9,3.17,4-.36,4-3.2,5.83-5.67C76,83.46,71,83.84,66,81.79Z"/>
  <path class="teeth" d="M76.55,80.18a2.88,2.88,0,0,1-3.52.55c-1.18-.46-3.77.63-7.08,1.06,5,2,10.09,1.67,13.43-2.38C78.17,79.63,77.44,79.42,76.55,80.18Z"/>
  <g class="lipOverlapLine">
    <path d="M63.51,81.82a5.48,5.48,0,0,0,1.14.09"/>
    <path d="M81.09,78.68a4.15,4.15,0,0,1-1.71.73"/>
  </g>
  <g class="lipEdgeLine">
    <path d="M77,78.41a5.21,5.21,0,0,1-5,.89"/>
    <path d="M79.09,85.22C77.57,89.54,72,89.69,69.54,88"/>
  </g>
  <g class="cheekLine">
    <path d="M79.81,70.23A6.06,6.06,0,0,1,82.24,73"/>
    <path d="M66.62,70.82c-1.51,1.05-4.58,5.51-5.33,8.39"/>
  </g>
  <g class="noseLine">
    <path d="M77.57,66c.5,3.22,4.15,4.09,1.53,7.3"/>
    <path d="M66.62,70.82a3,3,0,0,0,1,4.63"/>
    <path d="M69.14,75c3.18-.32,3.41.76,5.72.31,2.88-.56,2.67-2,3.54-2.34"/>
  </g>
  <g class="eyeFoldLine">
    <path d="M86,58.85A4.63,4.63,0,0,1,80.41,60"/>
    <path d="M62,62c-1.46,1.92-5.06,2.41-7.11,1.28"/>
  </g>
  <path class="eyeLidLine" d="M88.34,56.11a1.13,1.13,0,0,0-1.17-1.3"/>
  <g class="eyeCornerLine">
    <path d="M87.42,54a2.5,2.5,0,0,0,1,.27"/>
    <path d="M49.89,60.81a12.1,12.1,0,0,0,1.68-1.25"/>
  </g>
  <path class="eyeCreaseLine" d="M51.39,57.94c2.89-4.11,7.43-5,10.27-3.62"/>
  <g class="eyebrowBlack">
    <path d="M74.56,47c4.92,3.34,8.85-3.28,15.94.4C85.53,41.45,81.27,47,74.56,47Z"/>
    <path d="M65.16,47.54c-2.1,5-10.71.29-18.37,5.81C51,46.11,58.28,49.55,65.16,47.54Z"/>
  </g>
  <path class="hairBlack" d="M47.35,32C51.92,52,68.25,43.3,74.73,45.7a12.83,12.83,0,0,0-3.35-3.38C78,45.23,86.3,37.07,92.77,41.21,94.3,35.79,92,27.77,88.05,23.8c1.28.6,2.42,1.9,4.39,2C86.31,18.65,80.28,9.25,64.88,5.42,54.35,2.8,40.49,6.05,35.26,9.24,34.7,4.88,36.67,3,39.35.62c-4.87,1.6-7.66,5.72-7.16,10.16-1.47-2.41-6.83-1.89-8.27,1.87,1.52-1.51,4.59-2.45,5.89.3C12.88,26.66,19.33,52,25,56.72c2.23-2.3,7.51-1.58,8,3.7a11.29,11.29,0,0,0,4.33.6c-.54-3.19-1.88-5.47.89-8.82,4.26-.84,6.32-3.58,7.81-7.93.52,1.83,0,3.78-.08,5.67C48.66,48.29,49.64,41.74,47.35,32Z"/>
  <path class="hairOverlapLine" d="M38.28,52.2a17.3,17.3,0,0,1-3.21.63"/>
</svg>
