<svg viewBox="0 0 259.72 468.98">
  <g class="soleWhite">
    <path d="M105.77,451.15c2.08.6,13.12,1.66,11.35,11.88-3.22,3.1-17.11,6-29.77,2.07-4.79-1.49-19.1-1.56-23.3-6.17-1.15-2.2-.81-3.8-.55-6.39C78,447.6,94.07,447.3,105.77,451.15Z"/>
    <path d="M46.5,450.61a15.23,15.23,0,0,1-1.1,7.19c-2.2,2.87-7.72,3.3-11.18,5.95-9.5,7.29-27,6.08-33.34-.42-2.58-5.54,3.34-11.66,7.73-12.72C16.34,448.6,31.31,449.56,46.5,450.61Z"/>
  </g>
  <g class="bennettShoe">
    <path d="M90.12,421.26c-1.27,9.85.23,14.15,3.48,18.24,3.9,4.9,7.27,9.24,12.17,11.65-5.32.09-13.53,3.52-13.53,8.71-5.12-.26-6.57-1.92-11.74-2.1-4.84-.16-15.4-2.43-17-5.22-1.29-5.84,6.2-17.61,4.57-28C72.46,420.59,84.25,418.29,90.12,421.26Z"/>
    <path d="M44.56,424c-.39,10.69,3.29,13.1,1.94,26.65-2,2.25-7.44,4.49-10.63,5.75-4,1.59-6.9,4.25-10.11,5.26-1-6.66-7.92-11.69-17.15-11,4.38-2,7.27-8.76,11.61-15.57,2.51-3.94,5.17-10.93,7-18.72C33.51,415.13,39.43,418.61,44.56,424Z"/>
  </g>
  <g class="shoelace">
    <path d="M100.27,447.21a76.05,76.05,0,0,1-6.67-7.71,23.4,23.4,0,0,1-3.68-5.95c-2.16.07-5.56.47-7.52,1.59,1.06,5.36,3.45,9.6,8.1,13.9C91.91,447.72,96.57,447.05,100.27,447.21Z"/>
    <path d="M20.22,435c-2.25,3.52-4.11,7-6,9.89A35.52,35.52,0,0,1,27,448.23a40.45,40.45,0,0,0,6.88-14.61A28.35,28.35,0,0,0,22.38,431,35.32,35.32,0,0,1,20.22,435Z"/>
  </g>
  <g class="converseLogo">
    <path d="M72.7,450.5c5,.66,5.86-10.63.51-11.5C68.19,438.18,67.36,449.78,72.7,450.5Z"/>
    <path d="M41.16,447.53c-3.83.38-3.63-10.94.5-11.49C45.53,435.52,45.27,447.14,41.16,447.53Z"/>
  </g>
  <path class="bennettJeans" d="M121.3,234.24c1.27,6.09,4.13,8.74,2.07,13.24-1.58,3.17,3.2,10-11.8,69.92l-2.42,10.51c-.88,3.3,1.34,5.63-3.26,10.79-.84,4.82,1.87,7.8-2.13,11.93-.82,3.65.41,5.18-1.47,9.15-1.45,3.05-3.73,25.48-7.35,38.23-3.07,10.8.44,17.09-2,22.71-1,2.12-.19,6.17-4.14,8.86-.66-5.18-7.55-5.51-8.44-.85-1.68,2.9-8,1.67-13.08,6.41.42-9.07-5.27-10.41-4.6-15,1-3.11,2.86-4.55,2.55-7.33-4.59-4.39,1.78-10,1.78-30.44,0-17.66,4-24.33,3.78-34.21-1.71-4.69,1.55-10,2.22-13.22-5.31-6.21,1.33-12.22,1.44-29.22.06-9.23,1-20.33,1.35-30.55-4.49,10.72-5.41,26.89-9.31,41.66-3,11.32-.6,20.64-4.44,25.33-1.86,2.27.45,9.27-3.45,12,.38,8.87-3,23-5.44,40.44-2.11,15.22,4,20.44-3.89,25.33,4.45,5.1-1.68,8.66-4.12,14.21-2.45-4.22-6.34-3.22-9.11-7.53.33-3.35-9-6.91-11.27-1.83-4.62-2.63-1.17-6.42-3-8.72-3.78-4.84,1.44-4,5.77-68.45-3.66-6.55,1.49-2,1.56-23.55.11-32.55,6-66.72,12.9-101.2Z"/>
  <path class="bennettJacketInner" d="M209.82,182c-2.07,5.67-1.74,17.5.25,21.11C211.52,203.75,211.35,181.6,209.82,182Z"/>
  <path class="bennettHoodieInner" d="M80.63,83.64l3.81.23c-3.23,6.14-1.53,15.19,3.8,21C78.85,100.46,76.52,93.29,80.63,83.64Z"/>
  <g class="bennettHoodie">
    <path d="M67.14,96.4c1.91-7,4-5.28,6-7.48,1.57-1.68,3.56-4.5,7.48-5.28C77,91,82.69,100.32,92.37,108.87,81.77,108.29,73,104.75,67.14,96.4Z"/>
    <path d="M122,227.1c-16.49,1.91-40.72-1.39-65.54-6.27l-3.84,9.06c13.74,2.16,42.12,10.2,70,7C122.2,234.33,123.44,230,122,227.1Z"/>
    <path d="M214.07,182.29c-.82-.48-3.35-.2-4.25-.25-1.43,3.92-1.71,10.5-1.1,15.1,3.17.05,4.8.62,5.45,0C214.94,197.06,214.84,182.2,214.07,182.29Z"/>
    <path d="M124.11,89.14c1.6-2,2-4.59,3.39-4.9,4.62-1,12.27,6.63,10.89,13-.31,1.41-3.07,1.87-4.95,4.69Z"/>
  </g>
  <path class="bennettJacket" d="M164,179.05c2.17-2.59,4.59,1.69,20.61,2.6,2.43.14,5.35-1.09,9.4.06,3.16-1.51,10.2.88,15.81.33-2.07,5.67-1.74,17.5.25,21.11-13.1.4-21.88,1.4-32.08,2.25a71,71,0,0,1-27.29-3.11c-4.55-1.55-12.41-18.59-20.76-36.7.39,7.4-3.49,15.33-3.79,22.15-.17,3.83,1.66,6.23-2.28,9.11,3.34,7.59-.64,9.56-.61,13.66s3.24,7.5-.76,10.46c1,2.76.71,4.71-.5,6.13-18.63,2.16-47.14-2.33-75.21-8.25L50,162c1.82-24-2.42-53.62,1.52-58.93,5.31-13.51,21.24-10.32,24.13-1.37,4.25.15,4.55,3,6.52,3.49,1.67-1.52,5.37-.63,5,2.12a2,2,0,0,1,2.47-1c0-8,31.09-21.55,35.53-18.79,3.58.07,15.92,13,7.14,26,1.59.41,2.33,1.29,2.2,2.64,5.46,1.22,8.35-1.82,8.2,6.68,2.5.84,3.28,5.15,4.09,9.41,2.83,2,4.17,8.91,6.38,17,1.32,4.85,4.4,10.62,3.79,15.63,3.07,4.08,6.62,10.84,5.74,12.77A2.41,2.41,0,0,0,164,179.05Z"/>
  <path class="zipperDisplayLine" d="M90.8,133.55c-2.69,12.21-2.89,35-4.53,45.58-3.14,20.19-2.31,37.25-4,46.13"/>
  <g class="clothesDisplayLine">
    <path d="M104.63,237.58c1.08,5.31,6.31,8,13.73,9.3"/>
    <path d="M68,232.87c-2.54,3.8-7.77,5.13-16.21,2.68"/>
    <path d="M79.12,234.9c-1.72,4.28-.5,8-2.39,11.44-2.46,3.72-.64,8.44-2.3,11.74-2.2,4.36-.33,10.76,1,15.56"/>
    <path d="M88.73,236.3c-2.29,2.41-1,8.5-2.78,11.27-2.2,3.38-.83,8.09-1.71,9.4-3.13,4.64,1.18,10.5-10.62,8.82"/>
    <path d="M92.24,459.86c7.19,1.26,19.82.41,23.92-3.5"/>
    <path d="M25.76,461.62c-7.31,2-21.79,0-24-5.73"/>
  </g>
  <g class="clothesOverlapLine">
    <path d="M83.07,437.8c2.39-.74,6.42-1.67,8.21-1.54"/>
    <path d="M84.08,440.5a33.29,33.29,0,0,1,8.82-1.9"/>
    <path d="M85.43,443c2.5-1.06,6.87-2.38,9.12-2.34"/>
    <path d="M86.88,445.12c2.22-1.55,6.37-2.42,9.29-2.42"/>
    <path d="M88.59,447.14a21.26,21.26,0,0,1,9.31-2.4"/>
    <path d="M80.4,428.58c1.44,2.22,1,4.15,2,6.56"/>
    <path d="M28.64,445.88a36.88,36.88,0,0,0-12.75-3.61"/>
    <path d="M30,443.51a31.36,31.36,0,0,0-12.89-3.35"/>
    <path d="M31.18,441.17A31.85,31.85,0,0,0,18.44,438"/>
    <path d="M32.14,438.85a27.79,27.79,0,0,0-12.4-3.06"/>
    <path d="M33,436.36a35.31,35.31,0,0,0-11.92-2.82"/>
    <path d="M33.84,433.62c.79-2.59.92-5.17,2.24-7"/>
    <path d="M61,127.63c12.69,4.5,23.41,9.85,26.46,6.1,1.58-1.93,6.4,2.67,10.35-2.34,1.73-2.19,9.82-6.09,16.09-9.77"/>
    <path d="M132,148.59c-1.7,5.13-1.19,11.82-2,17"/>
    <path d="M110.46,185.62c2.65,9.95,7.26,19.55,8.48,29.65"/>
  </g>
  <g class="clothesFoldLine">
    <path d="M73.15,88.92a4.67,4.67,0,0,0-.21,4.53"/>
    <path d="M114.56,94.62c6.83-2.67,13.74,4.14,2.32,14.79"/>
    <path d="M89.62,106.32c-.38,2.61,6.83,3,7.68,7.22"/>
    <path d="M87.15,107.32c0,2.67.73,7.41-3.81,6.55S85.83,109.12,87.15,107.32Z"/>
    <path d="M82.14,105.2c-1.8.9-3.4,1.88-3.79,3.35"/>
    <path d="M90.16,107.63c-.86,2.28,1.47,4.66,1.47,6.67"/>
    <path d="M66.56,98.19c3.31-.74,6.4,0,9.06,3.52-8.08,1.39-15,6.25-21.09,13.46"/>
    <path d="M58.79,98.05c-2.2.29-5.85,2.92-7.3,5"/>
    <path d="M66.51,108.36a36.61,36.61,0,0,0-10.26,8.77"/>
    <path d="M66.94,129.83a43,43,0,0,0-7.14,4.85"/>
    <path d="M70.41,131.15a54.55,54.55,0,0,0-10.08,10.29"/>
    <path d="M75.57,140.24c-5,9-10.55,16.17-16.78,21.09"/>
    <path d="M67.52,159a43.53,43.53,0,0,1-9.45,7.82"/>
    <path d="M94.23,185.32a63.55,63.55,0,0,1-15-.82"/>
    <path d="M96.07,218c-6-.1-17.1.2-23.62-1.93"/>
    <path d="M118.15,159.87a123.92,123.92,0,0,0-16.69,6.82"/>
    <path d="M124.36,150.92a92.21,92.21,0,0,0-13.64,7.22"/>
    <path d="M134.49,116.12a4.08,4.08,0,0,0-2.8-.12"/>
    <path d="M142.69,122.8c-1.64-.59-3-.45-4.18-1.4"/>
    <path d="M140.24,129.34a12.27,12.27,0,0,0,6.72,4.58"/>
    <path d="M139,161c6.59,5.57,17.4,11,18.62,8.25"/>
    <path d="M157,164.83c0,1.7-.31,3.41-1.14,3.08"/>
    <path d="M164,179.05c1,4.24-.74,7.5-3.91,12.88"/>
    <path d="M169.16,184.58a23.59,23.59,0,0,1-3.74,8.09"/>
    <path d="M162.69,177.6c-1.63,3.16-4.28.86-11.86,9.55"/>
    <path d="M164,179.05c-1.52,5.53-7.62,11.7-10.63,14.21"/>
    <path d="M194,181.71c-.85.36-.92.95-1.89,1.16"/>
    <path d="M188,182c.48,2.14,4.08,2.28,6.56,3.32"/>
    <path d="M122.5,221c-1,.75-2.09,1-2.85,2.12"/>
    <path d="M123.87,196.85c-1.79,1.64-5.37,2.28-2.74,4.18"/>
    <path d="M122.71,190.15a7.36,7.36,0,0,1-3.48,4.12"/>
    <path d="M120.39,205.67a13.12,13.12,0,0,0-4.12-2.08"/>
    <path d="M132.21,133.35a41.43,41.43,0,0,0-1.47,13.52"/>
    <path d="M136.23,138.21c-.43,4.12-5.6,15.41-4.23,7.81"/>
    <path d="M136.12,145.49c-1.18,2.55-2.41,4.64-3.8,5.49"/>
    <path d="M88.34,265.24c4.9.2,13.22,2.18,20.81,4.57"/>
    <path d="M86.07,272a181.05,181.05,0,0,1,20.61,9.88"/>
    <path d="M68,261.78q-11-2-21.72-3"/>
    <path d="M67.43,269.07a85.65,85.65,0,0,0-20,3.58"/>
    <path d="M100.26,296.72c-6,14.37-15.27,30.86-26,27.9"/>
    <path d="M103.35,335.73c-6.92,2.71-19.72,1.23-25.28-4.32"/>
    <path d="M105.89,338.7c-2.79,3.94-24.15-.26-4,8.39"/>
    <path d="M98.16,351.65c-3.91-2.89-7.9-2.73-12,.13"/>
    <path d="M73.05,335a15.14,15.14,0,0,0,4.53,2.48"/>
    <path d="M60,333.75c-8,4.57-22.56,4.69-28.24-2.59"/>
    <path d="M32.24,337.83c7.41,4.44,14.45,8.64-2.09,7.16"/>
    <path d="M58.51,338.07c-4.7,4.57-17,1.86-1.36,10"/>
    <path d="M53.94,351.53c-3-4.2-16.2-6.25-11.73-.74"/>
    <path d="M80.67,340.05c11.76,9,4.46,11.1-7.41,5.43"/>
    <path d="M70.83,348.2a7.21,7.21,0,0,0,4.28,3.21"/>
    <path d="M27.62,347.64a14,14,0,0,0,5,2.29"/>
    <path d="M68.2,406.71c7.19,8.17,18.36,12.84,23.17,8.52"/>
    <path d="M65.27,412.85c5.15,4.48,14.75,5.47,5.74,7.07"/>
    <path d="M68,426.71c6-4.27,12.62-4.68,19.63-3.08"/>
    <path d="M50.85,414.37c-8.93,5.09-19.09,6.55-26.38-.87"/>
    <path d="M49.31,420c-4.51,2.43-10.64,2.63-4.75,4"/>
  </g>
  <g class="bag">
    <g class="bagStrapDark">
      <path d="M49.23,178.64l-7.78-1.56Q45.56,169.65,50,162c-.15,5.93.07,12.18-.74,16.63"/>
      <path d="M125.15,87.53c.84-1.57,1.33-3.06,2.35-3.29a5.44,5.44,0,0,1,3.19.4c6.17-15.29-21.32-5.8-18.6,11l2.47-1.06c1.27-3.17,3.82-2.64,5.83-3.92S123.75,87.28,125.15,87.53Z"/>
    </g>
    <path class="bagStrapLight" d="M138.39,97.25c-.23,1-1.83,1.58-3.41,3a23.08,23.08,0,0,1-1.15,10.19c-.84,1.87-9.57,5.2-20,11.23C97.43,140.94,77.2,164,60.63,182.37l9.27,5.88c27.54-32,63.21-74.89,75.68-91.9Z"/>
    <path class="bagLight" d="M60.63,182.37a41.84,41.84,0,0,1,9.27,5.88c2,2.3-10.75,30.92-20.6,53-2.57,5.75-4.92,6.3-7.71,5.54a57,57,0,0,1-16.11-7.44Z"/>
    <path class="bagDark" d="M60.63,182.37c-8,11.61-21.33,39.85-27.84,52.85-1.41,2.82-4.64,5.67-7.31,4.11A73.36,73.36,0,0,1,15.86,232a3.82,3.82,0,0,1-1.15-4.49C33.9,194.21,49.29,178.74,60.63,182.37Z"/>
    <path class="bagMedium" d="M60.63,182.37c-6.42-1.15-18.72,26.85-30.39,47.76-2.55,4.28-4.85,6.15-7.31,4.36-3.36-2.43-6.9-4.41-8.86-6-2.85-2.36-1.5-5,.52-7.69,5.77-7.75,13.73-23.68,21.41-39,2.07-4.14,4.83-5.07,8.08-4.49A84.89,84.89,0,0,1,60.63,182.37Z"/>
  </g>
  <g class="eye">
    <circle class="sclera" cx="94.66" cy="55.48" r="20.22"/>
    <g class="irisDarkBrown">
      <ellipse cx="78.35" cy="51.31" rx="3.34" ry="3.3" transform="translate(13.01 118.4) rotate(-78.97)"/>
      <ellipse cx="100.44" cy="59.08" rx="3.34" ry="3.3" transform="translate(23.24 146.37) rotate(-78.97)"/>
    </g>
    <g class="pupil">
      <ellipse cx="78.11" cy="51.34" rx="1.3" ry="1.28" transform="translate(12.78 118.19) rotate(-78.97)"/>
      <ellipse cx="100.2" cy="59.11" rx="1.3" ry="1.28" transform="translate(23.02 146.16) rotate(-78.97)"/>
    </g>
  </g>
  <g class="skinEastAsian">
    <path d="M258.51,177.17c-2.93-.57-4-1.64-6.24-2a33.79,33.79,0,0,0-13.16.34c.89-1.82-.9-4.3-2.69-3-6.64,3.29-11.61-3-23.06,10.36-1,1.77-1.26,13.33,0,14.34,4.39,1.18,7.93,3.14,12.21,2.13,4.88,1.84,7,.09,7.73-2.46,3.87.43,7.08-1.32,7.2-5.44,2.66-.85,3.68-2.19,3.53-5.16-.13-2.46-1-3-4-3.57,3.1-1.93,6.48-1.87,10.53-1.6C258.43,184.13,261.11,178.65,258.51,177.17Z"/>
    <path d="M89.62,106.32c.7-1.27,3.44-.89,7.57-3,5-2.56,7.87-4.55,14.9-7.63.12-3.08,5.81-10.6,8.53-15.58,0,0-40,12.18-40.1,13.47C82.07,97.73,85.31,102.08,89.62,106.32Z"/>
    <path d="M74.13,48.68c.8-15.3,9.85-11.28,11.43-28.37,30-14.52,68.7,28.08,52.2,48.83-1.75,7.18-6,8.06-7.41,10-1.57,2.15-5.76,4.87-7.28,1.4-5.06,8.78-13.51,12.5-23.54,13.69-8.92,1-12.71,2.53-19.55-.55-5.86-2.64-5.11-6.7-7.17-11.3C64.5,63.84,73.8,54.93,74.13,48.68Zm12,4.62C84,49.53,78.72,49,76.56,49.75c2,2.52,4,3.08,8.42,3.67C85.44,53.49,86.62,54.16,86.12,53.3Zm12.11,4.6a15.69,15.69,0,0,0,10,2.78c-1.35-1.39-6-5.47-10.69-3.29C96.55,57.86,97.84,57.66,98.23,57.9Z"/>
    <path d="M162.56,84.16c-.55-2.57-3.28-1.67-5.14-1.67-1.21-1.07,0-1.91-.38-3.3-.27-1-.92-1-1.5-2.39-.67-1.56.8-2.57-.27-4.45-.82-1.44-3-1.28-3.93-3.17,2-3.41,3-5.68.14-7-3.86-1.73-5.71,4.14-11.48,7.73-2.46,1.48-8.46-.07-11.65,14.26,4.57,0,11.08,7.15,10,13.1,14.1-.19,15.82-7.64,18.67-8.46C162.14,87.14,163,86.31,162.56,84.16Z"/>
  </g>
  <g class="skinOverlapLine">
    <path d="M239.11,175.46c-.9,2.5-3.79,4.41-8.69,3.84-1.23,0-2.47,1.84-4.32,2.19"/>
    <path d="M240.5,191.36c-7.44,1.93-10.38.17-13.65-1.74-1.21-3.1,2.73-5.38,7.6-3.32a7.6,7.6,0,0,1,4.59-1"/>
    <path d="M233.3,196.8c-4.81-.21-6.36-1.78-9.28-3.1-2.12-1.45.21-4.72,2.83-4.08"/>
    <path d="M225.57,199.26c-2.38-.95-3-2-4.49-2.81-1.75-1.5.82-4,2.94-2.75"/>
  </g>
  <g class="skinFoldLine">
    <path d="M135.21,73.56A14.74,14.74,0,0,1,140,69.89"/>
    <path d="M240,182.63a7.94,7.94,0,0,1-2.33.59"/>
    <path d="M129.28,67c4.27-6.63,9.34-.85,5.83,4.8"/>
    <path d="M128.29,69.16c2.29,2.8-3.37,5.2-1.76,6.38,1.14.84.66-1.53,4-2.46,2.86-.78,3.07-4.84.87-4.5"/>
  </g>
  <g class="skinCreaseLine">
    <path d="M223.58,191a26.91,26.91,0,0,1-6,.19"/>
    <path d="M233.55,181.8a12.62,12.62,0,0,1-1.38,3.81"/>
  </g>
  <path class="lipMaleMedium__noStroke" d="M82.13,75a5.75,5.75,0,0,0,4.46,1.44c1.68,1.15,4.69,1.71,7.12,3.49-2,1.28-4.42,7.57-11.17,5.66-7.49-3.94-.85-7.68-3.77-11.5C80.06,75.14,81.06,74.81,82.13,75Z"/>
  <path class="mouthInner" d="M93.71,79.9c-2.65-.7-4.68-2.4-7.31-2.12-2,.21-2.54.12-3.32-.65a8,8,0,0,0-3.09-2c.73,1.93-.7,5.24,3.09,6.68C88,83.74,90.31,81.24,93.71,79.9Z"/>
  <path class="teeth" d="M92,79.29c-1.87-.77-3.54-1.73-5.57-1.51s-2.54.12-3.32-.65a8.78,8.78,0,0,0-2.28-1.64,3,3,0,0,0,0,2.16C82.91,80.55,88.92,80.56,92,79.29Z"/>
  <g class="lipOverlapLine">
    <path d="M95.11,80a4.51,4.51,0,0,1-1.4-.11"/>
    <path d="M80,75.17a2.49,2.49,0,0,1-1.57-2.25"/>
  </g>
  <g class="lipEdgeLine">
    <path d="M86.59,76.41A5.75,5.75,0,0,1,82.13,75"/>
    <path d="M87.69,85.3c-5.41,2.22-8.19-1.8-8.62-3.35"/>
  </g>
  <g class="cheekLine">
    <path d="M80.1,67.92a4.11,4.11,0,0,0-1.25,1.25"/>
    <path d="M93.47,70.11c1.08.84,2.51,5.37,3.94,8.65"/>
  </g>
  <g class="noseLine">
    <path d="M81.76,66c-1.13.66-2.82,2.27-.77,4.92"/>
    <path d="M93.47,70.11c.88.9.69,3.51-1.37,3.8"/>
    <path d="M90.19,73.1c-2.87-.68-3.61.55-6.2-.27a4.24,4.24,0,0,1-3-3.34"/>
  </g>
  <g class="eyeFoldLine">
    <path d="M106.34,62.8c-2.25.94-5.85.48-7.49-1.71"/>
    <path d="M83,55.81c-2.4.41-4.92-.15-6-1.73"/>
  </g>
  <g class="eyeCornerLine">
    <path d="M108.24,60.68a6.42,6.42,0,0,0,2.94,1.51"/>
    <path d="M74.88,50.3c.74-.2,1.18-.45,1.68-.55"/>
  </g>
  <path class="eyeCreaseLine" d="M76.64,48.88c1.6-1.13,6.43-1.39,8.58,1.92"/>
  <g class="eyebrowBlack">
    <path d="M97.78,48.78c2.81,5.59,10.32,2.79,15.27,8.54C110,49.76,104.35,52.14,97.78,48.78Z"/>
    <path d="M75.09,42.65c-.15.5-.29,1-.41,1.61,7.65-1.28,10.42,4.24,14.11,1C83.51,44.53,80.52,40.42,75.09,42.65Z"/>
  </g>
  <path class="hairBlack" d="M105.68,6.7c20.83-.71,36.67,11.68,40.41,22.51,4.6,13.33,2.11,31.33-8.33,39.93,1.42-4.53-3.1-12.8-9.33-4.23a6.82,6.82,0,0,1-4.38-.6c1.52-4.75,1.27-2.58-.06-7.55a25.23,25.23,0,0,1-10.79-6.92,22.08,22.08,0,0,1,3.52,6.21C109.11,48.81,98.09,51.52,94,43.67c.7,2.25,1.07,4.32.4,5.77-2.3-5.86-10.62-8.61-5.78-18.95-2.67,5.77-7.74,8.86-14.53,10,3.75-4.8.53-12.66,8.8-18.94-1.49.11-2.61,1.19-5,1.06,7.46-4.46,5.78-11.36,21.32-14.86-.5-3.12-2.45-3.58-5.52-2,2.68-3.22,7-2.82,8.58,1.16,2-5.21,5.62-6.72,9.86-6.68C108.3,1.51,105.68,3.39,105.68,6.7Z"/>
  <path class="hairOverlapLine" d="M124,56.76a9.1,9.1,0,0,1,3.87,3.5c.19-2.52-1.19-4.62-2-5.87"/>
</svg>
