<svg viewBox="0 0 286.26 342.56">
  <g class="pencil">
    <path class="pencilBody" d="M238.11,53.7,217.26,68.6c-.64.45-2.53-2.2-1.89-2.66l20.85-14.89Z"/>
    <g class="pencilMetal">
      <path d="M238.11,53.7l3.08-4.2-5,1.55C235.58,51.5,237.48,54.15,238.11,53.7Z"/>
      <rect x="214.33" y="62.71" width="9.57" height="0.5" transform="translate(4.22 139.09) rotate(-35.54)"/>
      <path d="M215.33,66.69,213,68.51c-.46.32.6,1.82,1.06,1.49l2.48-1.61A4.21,4.21,0,0,1,215.33,66.69Z"/>
    </g>
  </g>
  <g class="sketchbook">
    <polygon class="sketchPaperMedium" points="0.89 168.74 0.89 166.49 26.45 158.57 68.03 172.01 68.03 174.32 0.89 168.74"/>
    <polygon class="sketchPaperLight" points="68.03 174.32 26.5 161.17 0.89 168.74 40.69 180.31 68.03 174.32"/>
    <g class="wireDisplayLine">
      <path d="M39.9,178.89c-.29.83-1.48,2-2.58,1.68-.49-.14-.67-.79-.53-1.39"/>
      <path d="M36.07,177.77c-.29.83-1.49,2-2.59,1.68-.48-.14-.67-.78-.53-1.39"/>
      <path d="M32.23,176.65c-.29.83-1.49,2-2.59,1.68-.48-.14-.67-.78-.52-1.38"/>
      <path d="M28.39,175.52c-.28.84-1.48,2-2.58,1.69-.48-.14-.67-.78-.53-1.38"/>
      <path d="M24.56,174.4c-.29.84-1.49,2-2.59,1.69-.47-.14-.66-.75-.54-1.34"/>
      <path d="M20.72,173.28c-.29.83-1.48,2-2.59,1.69-.47-.14-.66-.75-.53-1.35"/>
      <path d="M16.89,172.16c-.29.83-1.49,2-2.59,1.68-.47-.13-.66-.75-.54-1.34"/>
      <path d="M13.05,171c-.29.83-1.49,2-2.59,1.68-.47-.13-.66-.75-.53-1.34"/>
      <path d="M9.21,169.92c-.29.83-1.48,2-2.59,1.68-.46-.13-.66-.75-.53-1.34"/>
      <path d="M5.38,168.8c-.29.83-1.49,2-2.59,1.68-.47-.13-.66-.75-.54-1.34"/>
    </g>
  </g>
  <path class="bennettUndershirt" d="M116.32,216.29c-2.44-2-1.58-5.84-3-8.24-3.16-1.56-.51-5.34-1.37-8.09-2-1.1.17-2.58-.52-4.3-2.15-2,0-5.85-2.23-11.18-4.22-1.85-1.72-9.29-6-16.86-7.06-26.15-21.34-17.2-21-23.91.83-16.18,4.8-33.11,17.72-36.47,1.37-3.27,3.61-.86,5.85-1,3.61-1.72,7.78-1.53,13.32-3.9l31.78-5c.42-.52,2.44-.74,4.61-.78,1.21-3.27,3.79-.17,5-2.41,1.72-2.23,4.71-1.28,8.09-1.89,5.25-1,11.35,1.84,16.68,5.85C178.24,154.43,165.14,204.3,116.32,216.29Z"/>
  <path class="bennettUndershirtInner" d="M85.76,147h0c.11-.77.21-1.55.31-2.33-1.62-.19-3.34,0-3.54.58C83.06,146.21,84.22,146.6,85.76,147Z"/>
  <g class="guitar">
    <path class="guitarDark" d="M219.28,203.28c-2.2,4.87-6.57,11.58-9.63,16.15l-66.87,3.42c-8.33-3.61-14.06-8.07-14.06-18.25a180.81,180.81,0,0,1,2.05-20.06Z"/>
    <path class="guitarLight" d="M143.75,211.64c-14.15-7.08-16.59-22.72-10.18-38.4,3.29-8.07,5.32-11.11,9.48-16.32,2.52-3.16,4.21-8.58,3.76-14.25-1-12.88,1.87-28.19,13-33.44,7.49-3.53,15.53-4.46,29.25-2.18,12.55,2.08,22.86,5.59,28.61,13.46,7.54,10.29,6.2,20.25,1.29,32.2a21.6,21.6,0,0,0-.5,14.59c3.17,9.46,4.71,16.84,3.58,25.47-1.37,10.47-5.71,19.72-18.25,25.14Z"/>
    <path class="pickGuard" d="M212.05,161.93c-.73-10.5-4-17.88-9.84-21a14,14,0,0,1,.81,7.43c-1.3,7.76-9.07,13.12-18.25,13.18-1.21,3.74-2,7.59-1,11.35a7.65,7.65,0,0,0,4.49,4.89,27.27,27.27,0,0,0,15,2.46,8.23,8.23,0,0,0,6.53-5.16A28.3,28.3,0,0,0,212.05,161.93Z"/>
    <ellipse class="rosette" cx="183.28" cy="145.07" rx="16.37" ry="20.01" transform="translate(9.96 301.91) rotate(-80.5)"/>
    <ellipse class="soundHole" cx="183.33" cy="144.77" rx="11.97" ry="14.63" transform="matrix(0.16, -0.99, 0.99, 0.16, 10.3, 301.7)"/>
    <path class="saddle" d="M165.3,186.27a195,195,0,0,0,23.44,4,2.11,2.11,0,0,1,2.65-1.88c1.64.21,6.61.53,6.61.53l1-5.34-40.66-6.89-.82,5.68s4.52,1.19,6,1.52A1.89,1.89,0,0,1,165.3,186.27Z"/>
    <g class="pegPin">
      <circle cx="171.86" cy="183.92" r="1.17"/>
      <circle cx="174.17" cy="184.23" r="1.17"/>
      <circle cx="176.49" cy="184.54" r="1.17"/>
      <circle cx="178.8" cy="184.85" r="1.17"/>
      <circle cx="181.11" cy="185.15" r="1.17"/>
      <circle cx="183.43" cy="185.46" r="1.17"/>
    </g>
    <g class="bridgeNut">
      <polygon points="193.01 31.97 207.12 34.16 206.8 35.97 192.69 33.78 193.01 31.97"/>
      <path d="M185.49,184.53l-15.18-2.05a.76.76,0,1,1,.21-1.51L185.73,183A.76.76,0,1,1,185.49,184.53Z"/>
    </g>
    <polygon class="guitarNeck" points="205.48 35.77 194 33.99 178.78 126.8 193.27 129.26 205.48 35.77"/>
    <path class="headstock" d="M211.5,2.39A61.08,61.08,0,0,0,197.89.25a3.85,3.85,0,0,0-4.13,3.34c-.56,5.79-1.57,16.65-1.77,21.13A15.87,15.87,0,0,0,193.13,32L207,34.15a15.89,15.89,0,0,0,3.15-6.63c1.08-4.34,3.21-15,4.33-20.75A3.89,3.89,0,0,0,211.5,2.39Z"/>
    <g class="tuningKey">
      <circle cx="206.36" cy="26.75" r="1.66"/>
      <circle cx="208.02" cy="17.85" r="1.66"/>
      <circle cx="209.68" cy="8.95" r="1.66"/>
      <circle cx="195.81" cy="25.05" r="1.66"/>
      <circle cx="196.76" cy="16.05" r="1.66"/>
      <circle cx="197.7" cy="7.05" r="1.66"/>
      <path d="M192,24.72l0-.53-1.11,0a3.41,3.41,0,0,0-.14-1.41,4.94,4.94,0,0,0-3.26-.17,6.14,6.14,0,0,0-.25,4,4.32,4.32,0,0,0,3.18.16,3.78,3.78,0,0,0,.36-1.3l1.17.09C192,25.24,192,25,192,24.72Z"/>
      <path d="M192.7,15.15l-1.24,0a6.61,6.61,0,0,0-.11-1.94,4.94,4.94,0,0,0-3.26-.17,11.5,11.5,0,0,0-.27,4.83A4.22,4.22,0,0,0,191,18a6.56,6.56,0,0,0,.36-1.66l1.23.1C192.63,16,192.66,15.58,192.7,15.15Z"/>
      <path d="M192.12,7.45l1.26.11c0-.45.08-.88.12-1.3l-1.25,0a.53.53,0,0,0-.09-.2,5,5,0,0,0-3.26-.17,1.8,1.8,0,0,0-.06,1.55,4.27,4.27,0,0,0,3.18.17A.49.49,0,0,0,192.12,7.45Z"/>
      <path d="M215.17,26.43a5,5,0,0,0-3.17-.77,6,6,0,0,0-.62,1.65L210.3,27l-.12.5-.21.76,1.15.24a7,7,0,0,0-.16,1.86,4.19,4.19,0,0,0,3.09.75A11.36,11.36,0,0,0,215.17,26.43Z"/>
      <path d="M216.77,19.16a5,5,0,0,0-3.18-.76.47.47,0,0,0-.1.1l-1.26-.35L212,19.43l1.25.26a.48.48,0,0,0,.08.23,4.26,4.26,0,0,0,3.09.74C216.67,20.53,216.91,19.49,216.77,19.16Z"/>
      <path d="M219,8.58a5,5,0,0,0-3.18-.76,6.62,6.62,0,0,0-.68,1.9L214,9.41c-.08.41-.17.84-.25,1.27l1.16.25a6,6,0,0,0-.12,1.61,4.26,4.26,0,0,0,3.09.75A11.54,11.54,0,0,0,219,8.58Z"/>
    </g>
  </g>
  <g class="eye">
    <path class="sclera" d="M98,66.9c49.51,9.81,51.94-2.45,2.42-12.26C98.35,57.75,97.11,63.14,98,66.9Z"/>
    <g class="irisDarkBrown">
      <ellipse cx="118.6" cy="65.58" rx="3.47" ry="2.38" transform="translate(28.32 166.66) rotate(-77.17)"/>
      <ellipse cx="99.84" cy="61.98" rx="3.47" ry="1.83" transform="translate(17.24 145.56) rotate(-77.17)"/>
    </g>
    <g class="pupil">
      <ellipse cx="118.08" cy="65.47" rx="1.35" ry="0.92" transform="translate(28.03 166.06) rotate(-77.17)"/>
      <ellipse cx="99.32" cy="61.86" rx="1.35" ry="0.71" transform="translate(16.95 144.97) rotate(-77.17)"/>
    </g>
  </g>
  <g class="skinEastAsian">
    <path d="M70.81,175.13c7.13.59,8-2.08,12.41-3.2-.12-7.94,1.49-16.81,2.85-27.23,4.52-.45,17.62,4.09,19.06,7.32-.33,14.94-1.6,35.54-7.51,38.67-10.56,5.59-14.89.53-22.59-1.08-3,4.25-7.79,6.81-14.77,6.25-2-.34-2.08-2.37-3.71-2.48a4.9,4.9,0,0,1-4-3.88c-.42-1.73-4-.73-5.23-4.61-3.28.07-5.93-.57-7-3-.61-2.87.17-4,1.35-4.33,6.19-2,10.11-.92,12-.05,1.33-1.08,4.53-1.83,7.24-1.58L68,174.32A3.32,3.32,0,0,1,70.81,175.13Z"/>
    <path d="M153.21,81.74c-3.18,2-6.82,9.65-3.39,15.92,11.27,10.91-36.66,25.24-31.78,5-2.1-9.47-20.53-9-17.64-8.7"/>
    <path d="M244.49,73.42A3.85,3.85,0,0,0,241.1,68c2-3.46-.54-6.67-4.15-6,2.21-3.19,1.72-6.19-.37-7.21C235,54,233.09,56.25,232,58.1L229.33,60a5.3,5.3,0,0,0,.13-4.09c2.78,1.36,6.47-.71,5.54-3.16-2.89-.94-2.81-4.4-7.64-2.24-2.41.74-2.59,5.77-4.2,9.9a7.46,7.46,0,0,0-1.58,5.13l-1.64,1.18c-1.3,6.34-.56,9.27,0,13.55.93,7.2,4.61,8.72,4.47,11-.51,10.74-4.54,18.84-9.36,26.26a23,23,0,0,1,2.64,3c5.29,7.23,6.21,14.29,4.59,22,1.6.3,3.45-.37,5.42-2.58,13.92-15.58,5.91-28.81,8.78-45.93.51-2.92,4.55-6.45,6.44-10.26C246.31,76.88,243.89,74.94,244.49,73.42Z"/>
    <path d="M132.66,216.22a105,105,0,0,1,18.61-16.67c4.44-3,14.2,0,20.45.8,12.42,1.52,26.41,7,41.49,13.65,3.78-6.05,8.57-12.62,9.17-24.92,5.05-3.38,18-3.59,22.51,1.62,4.14,4.8,3,11.28,3.84,15.66,2.64,14.61.62,41.35.73,63.62-6.84,3-13.66,3.45-20.42.25-3.58-13.66-8.92-29.22-9-36.55a42.62,42.62,0,0,0-7.47-.21C198.58,272.84,100.65,255.13,132.66,216.22Z"/>
    <path d="M136.49,91.26c-2.8,3.89-11.33,8.1-16.77,9.09-5.21,1-8.37,2.45-13,1.65-7.23-1.26-7.6-6.64-9-9.93-7.13-12.77-2.9-22.16-1.27-27.57-.72-1,0-2.12,1.47-2.85.84,2.33,3.6,2.67,6,1.77.45-.17,1.56.33,1.24-.61-1.28-2.89-3.53-5.05-6.63-3.8-.14.51-.28,1.05-.4,1.63-2.23-1.66.12-4.59-.2-5.76-.92-3.36-.19-3.64.27-5.5.81-3.25.38-4.6,3.36-11,30.37-24.56,82.32,32.29,48.95,44.72-1.91,1.57-4.19,5.63-7.5,1.38M116.06,65.82c2.73,1.91,8.31,2.23,10.94.16-1.8-1.45-4.59-3.79-7.32-3.65a5.72,5.72,0,0,0-4.33,2.84C114.86,65.91,115.75,65.61,116.06,65.82Z"/>
  </g>
  <g class="skinOverlapLine">
    <path d="M213.21,214a18.2,18.2,0,0,0,4.32,1"/>
    <path d="M171,231.83a42.7,42.7,0,0,1-11.42-3.77"/>
    <path d="M175.48,232.67c10.78,1.87,24,.7,37.07.8"/>
    <path d="M220.13,210.56a106,106,0,0,0-.11,23.12"/>
    <path d="M47.32,184.89a5.77,5.77,0,0,1-.36-1.43c6-.28,9.08-3.46,6.7-6"/>
    <path d="M57.06,190.65c4-5.47,5.58-4.49,9.67-6.51,2.59.21,4,4.69-1.77,6.51a5,5,0,0,1-1.53,2.18"/>
    <path d="M53.26,187a12.08,12.08,0,0,1,3.21-3.79c2.71-2,4.13-1.71,7-2.9,3.27-1.37,4.57,2.73,3.27,3.88"/>
    <path d="M60.9,175.89a2.62,2.62,0,0,1,1.8,4.66"/>
    <path d="M223.16,60.38c2.15-2.61,3.42-6.83,6.3-4.5A7.14,7.14,0,0,1,227,53.6"/>
    <path d="M221.58,65.51c-.16,2.51-.93,4.34-.93,7.46"/>
    <path d="M237,62c-1.89,3.59-4.33,7-5.06,8.5-3.7,1.83-6.34-2.58-2.34-7.93A33.83,33.83,0,0,1,232,58.1"/>
    <path d="M229.33,60a10.7,10.7,0,0,1-2.15,4.09,16.76,16.76,0,0,1,0,7.49"/>
    <path d="M241.1,68c-2.68,4.26-6,7.59-7.26,10-3.39,2.34-6-1.65-2-7.49"/>
    <path d="M233.84,78c-.78,2.78,3.41,3.89,5.88-.85a11.73,11.73,0,0,0,2.63-1.72"/>
  </g>
  <g class="skinFoldLine">
    <path d="M83.22,171.93a11,11,0,0,1,12.25,5.28"/>
    <path d="M148.11,71.6c3.92-9.43,12.1-1.09,5.34,5.56"/>
    <path d="M148.49,73.94c3,1.84-3.06,4.53-1.2,5.67,1.17.73.49-1.21,3.21-2.72,3.93-2.18,1.33-6.63-.21-4.58"/>
  </g>
  <g class="skinCreaseLine">
    <path d="M71.42,176c2.26,2.8,1.16,4.34,1.49,6.07.47,2.37,2.61,2.72,2.26,5.79"/>
    <path d="M71.89,182.54a5.68,5.68,0,0,1-4.66.72"/>
    <path d="M234.47,83.71a7.24,7.24,0,0,0,0-3.64"/>
    <path d="M239.79,80.4a5.38,5.38,0,0,1-2-.8"/>
  </g>
  <g class="sockWhite">
    <path d="M250.08,267.81c-2.48,4.35-19.77,4.35-21.79.41-.2,5.45,3.53,11.58,1.92,22.64-1.08,7.44-5.36,15.43-3.13,20.73,3.45,8.24,8,13.18,10.81,19.61,2,4.61,3,10.27,11.12,11,9.47.86,22.41-4.33,20.42-10.82-1.87-6.11-9.58-8.92-11.22-15.47-1.95-7.8-4.51-15.74-7.38-20.52C247.8,290.36,252.35,272.66,250.08,267.81Z"/>
    <path d="M217.35,214.54c1.93,4.53,1.93,14.86.15,19.7a9.9,9.9,0,0,0,2.54.07,111.14,111.14,0,0,1-.29-19.77A11.87,11.87,0,0,0,217.35,214.54Z"/>
    <path d="M284.7,236.91c-2.12-4.37-6.68-5.51-10.15-7.72-9.59-6.08-13.37-16.11-19.9-15.13-1.71.32-3.35.57-4.94.76.5,7.37.44,16.26.25,25.58,4.28,2.9,8.81,5,14.23,10.32,3.44,3.34,6.55,10.77,11.73,7.72C284,253.68,288.36,244.43,284.7,236.91Z"/>
  </g>
  <path class="bennettUnderwear" d="M212.55,233.47c-3.73,8.69-13.72,17.63-22.23,16.19-4.73-.8-13.32-8.29-14.84-17-1.6-.29-3.09-.57-4.44-.84-.5,9-12.31,21.23-20.24,20.74-7.24-.55-14.13-7.07-16.36-15.81-1.78-.16-3.12.56-5.14.7a20.68,20.68,0,0,1,3.19-5.83c-2.07-6.17-3.09-11.86.17-15.41a13.48,13.48,0,0,1-1-1.26c-2.77-2-12.59,4.95-13.78,9.2-1.72,19.07,6.06,30.52,20.58,34.51,11.92,3.28,23.31-4.57,32.58-2.35C193.31,261.64,210.51,243.17,212.55,233.47Z"/>
  <path class="bennettWaistband" d="M129.26,209.56c-5.23,1.36-10,3.66-12.94,6.73,1.19,3.21.06,4.15,1.56,7.87,2.14-1.88,3.7-3.32,6-3.06,1.46-2.24,4.82-5.62,7.76-6.14h0A15.37,15.37,0,0,1,129.26,209.56Z"/>
  <g class="clothesOverlapLine">
    <path d="M104.63,136.87c.2,5.38,1.65,11.31.5,15.15"/>
    <path d="M164.59,250.85c5.11-5,7.25-11.53,7.46-18.82"/>
    <path d="M132.66,216.22c-4.4,1.67-9.65,9.82-10,19.73"/>
  </g>
  <g class="clothesFoldLine">
    <path d="M100,107.24a5.21,5.21,0,0,1,3.78,3.17"/>
    <path d="M102.84,105.62a7.87,7.87,0,0,1,3.54,2.86"/>
    <path d="M95.7,116.27c1.21,7.75,3.15,15.14,8.93,20.6a57.58,57.58,0,0,1,9.47-17.06"/>
    <path d="M107.59,123.34c-2.42,4.66-3.71,9.2-3,13.53A34.35,34.35,0,0,1,100,122.46"/>
    <path d="M104.9,158.05c4.19,1.49,9,1.41,14.25.52"/>
    <path d="M108.39,166.73c3.13,1.22,7.25,1.37,11.89,1"/>
    <path d="M104.32,168.33c6.8,3.55,16.37,2.26,26.49,0"/>
    <path d="M109.24,184.48a56.28,56.28,0,0,0,13.45,4.18"/>
    <path d="M118.51,178.86a22,22,0,0,0,11.74,8.59"/>
    <path d="M111.28,174.84c5.15,6.75,10.57,9.84,10.29,10.69s-6.35-.49-11.49-3.94"/>
    <path d="M118,194a35.93,35.93,0,0,0,11.51-.32"/>
    <path d="M111.47,195.66c4.81,1.76,11.1,1.56,17.81.79"/>
    <path d="M112,200a13.35,13.35,0,0,0,5.72.67"/>
    <path d="M114.74,205.53a40.54,40.54,0,0,0,14-.32"/>
    <path d="M113.36,208.05c4.19,1,9.18.71,3.8,3.1"/>
    <path d="M128.9,207.57a17.65,17.65,0,0,0-4.91,2"/>
    <path d="M131.25,140.56a34.52,34.52,0,0,0,14,1.83"/>
    <path d="M120.1,140a52.3,52.3,0,0,0,23.21,7.39"/>
    <path d="M160.5,94.16c.27,2.83.33,5.14-1.48,2.92"/>
    <path d="M155.51,96.57a3.17,3.17,0,0,0,1.08,2.34"/>
    <path d="M163.38,95.77a20.74,20.74,0,0,0,.5,8.81"/>
    <path d="M172.8,98.91c.86,2.72,1.23,5.1.81,7"/>
    <path d="M175.74,102.35a5.63,5.63,0,0,1,.41,3.46"/>
    <path d="M166.92,250.72c-2.4,2-5.18,2.72-2.33.13"/>
    <path d="M171.77,244.63c-.1,3.53.71,6.18,3.37,7"/>
    <path d="M127.61,224c-2.73,7.87-3.34,15.33-.32,22.08"/>
    <path d="M119.39,222.85c.32,2-1,3.24.32,4.9"/>
    <path d="M123.9,221.1c-1.78,2.35-2.92,4.58-3.1,6.65"/>
  </g>
  <path class="lipMaleMedium__noStroke" d="M102.83,82.89c1.84,1.07,2.91,1.75,4.41,1,2.41,1,4,2.12,7.44,3.47-1.57,1.22-2.66,7.25-9.3,6-7.57-1.87-1.43-7.48-5-9.73C101.83,83.77,101.79,82.82,102.83,82.89Z"/>
  <path class="mouthInner" d="M107,85.52c-3.51.77-2.75-1.4-4.74-1.37-.32,6.77,5.59,7.41,12.47,3.26C110.5,87.05,108.5,85.18,107,85.52Z"/>
  <path class="tongue" d="M107.85,85.53a13.38,13.38,0,0,0-4.6,2.91c1.9,2.46,6.49,2,11.43-1C110.74,87,109.29,85.79,107.85,85.53Z"/>
  <path class="teeth" d="M111.32,86.74c-1.87-.61-3.28-1.46-4.37-1.22-3,.65-2.93-.94-4-1.28C102.26,87.06,107.73,88.45,111.32,86.74Z"/>
  <g class="lipOverlapLine">
    <path d="M100,83.39a3.47,3.47,0,0,0,2.24.76"/>
    <line x1="114.68" y1="87.41" x2="116.67" y2="87.33"/>
  </g>
  <g class="lipEdgeLine">
    <path d="M102.83,82.89c1.84,1.07,2.91,1.75,4.41,1"/>
    <path d="M101.27,88.51c-.08,6,7.75,5.9,10.25,3.26"/>
  </g>
  <path class="cheekLine" d="M112.06,75.86c1.65.64,2.29,5.09,6.73,8.08"/>
  <g class="noseLine">
    <path d="M112.06,75.86c1.45,1.11,1.1,3.88-.76,5"/>
    <path d="M110,80.31c-4-1.83-5.71.93-8.89-1.19-3.5-2.32,2.23-7.42,3.4-11"/>
  </g>
  <g class="eyeFoldLine">
    <path d="M98.11,65.33c1.18,1.19,3.45,1.19,4.79.72"/>
    <path d="M116.84,69a6.84,6.84,0,0,0,6.28,1"/>
  </g>
  <g class="eyeCornerLine">
    <path d="M129.6,67a5.61,5.61,0,0,1-2.6-1"/>
    <path d="M98.47,59c-.37.21-.79.43-1,.6"/>
  </g>
  <path class="eyeCreaseLine" d="M104,58.79a6.11,6.11,0,0,0-6.94-.39"/>
  <g class="eyebrowBlack">
    <path d="M114.07,54.54c2.87,4,9.47.92,16,7.08C125.58,54.25,121.28,56.28,114.07,54.54Z"/>
    <path d="M97.43,52.19a7.65,7.65,0,0,0,.12,1.32c2.19-.49,4,.6,6.07-.75C101.83,52.72,99.34,51.18,97.43,52.19Z"/>
  </g>
  <path class="hairBlack" d="M125.25,51.86c5.68,4.83,7.76,4.83,12.52,6.16,3.83,4.72,3.39,4.49,2.44,10.3a22.32,22.32,0,0,0,6.26.6c3.12-6.81,11.3-5,11.57,1.84.24,6.17-3,7.9-7.59,12.33a2.09,2.09,0,0,0,1.31,1.22c11.55-7.74,15.2-21.22,15.2-33,0-14.08-12.54-31.53-34.82-32.94,1.14-2,2.7-3.37,6.11-4.74a10.83,10.83,0,0,0-9.72,4.74,5,5,0,0,0-7.59-1.87c2.25-.39,3.87.5,4.55,2.19-24.52-.09-24.51,14.76-32,19a8.27,8.27,0,0,0,4.85-.34c-1.42,2.84-1,7.26.21,9.88a32.41,32.41,0,0,1,2.93-8.9c.9,6,2.82,5.94,4.41,11.18.17-1.83,1.17-3.16,1.23-5.27-1,10.91,15.51,7.64,21,12C127.71,54.71,125.8,53.29,125.25,51.86Z"/>
  <g class="hairOverlapLine">
    <path d="M137.77,58a28.52,28.52,0,0,1,5.65,2.38,34,34,0,0,0-3-4.08"/>
    <path d="M101.5,38.37a10.36,10.36,0,0,1,.37-3.89"/>
  </g>
</svg>
