<svg viewBox="0 0 258.8 319.01">
  <g class="soleWhite">
    <path d="M225.71,288.59c8,1.49,15.3,3.71,13.59,13.13-7.09,4.73-18.61.82-34.56,1.76-10.82.64-22-.61-24.17-1.68a11.93,11.93,0,0,1-.55-7.18Z"/>
    <path d="M205,301.33c.11,2.8,1.22,6.45,2.88,7.7,4.48,3.36,11.94,3.58,18.71,6.87,14.31,7,29,.09,31.86-8.6.82-4.83-2.67-10.3-7.68-13"/>
  </g>
  <g class="bennettShoe">
    <path d="M202,264.1c0,6.21,1,11.8,5.22,15.33a39.56,39.56,0,0,0,18.47,9.16,15.17,15.17,0,0,0-1.29,9.72c-5.28.68-15.38-1.27-23.33-.79-7.56.45-19.31-1.4-21.07-2.9-.46-8,5.78-16.63,4.34-23.59Z"/>
    <path d="M217.69,268.92c2,6.52,6.6,12.48,12.48,17.08,7,5.44,15.15,5.34,20.58,8.33-4.87-.11-19,8.31-17.48,18.53-12.43-5.28-20.93-4.84-28.29-11.53-2.25-7.11.51-14.46-4.31-26.72Z"/>
  </g>
  <path class="shoelace" d="M230.17,286a43.32,43.32,0,0,1-4.84-4.41,28.19,28.19,0,0,0-9.94,6c3.27,5.18,9,8.94,16.25,11.79.66-2.62,5.2-6.7,9.53-8.3A30.91,30.91,0,0,1,230.17,286Z"/>
  <circle class="converseLogo" cx="194.46" cy="287.48" r="5.75"/>
  <g class="bennettJeans">
    <path d="M183.13,261.58c-4-3.76-1.23-13.7-1.23-22,2.52-31.87-24.2-40.53-62.81-52,23.92-6,75.1-7.66,80.68,1.09,5.81,9.09,5.11,42.21,5.37,78.29-8.35,2.25-16.81,4.49-20.57,6.51C182.89,269.45,177.26,268.45,183.13,261.58Z"/>
    <path d="M71.05,197.36c-5.81,17.1,12.5,36.41,34.8,35.77,20.68-.59,36.56-7.24,54.35-10.65,2.31-.44,5.73,1.09,6-2.13a3,3,0,0,0,5.43,0,2.82,2.82,0,0,0,3.64,2.68c-1.43,4.75,1.76,7.44,2.82,9.45,2.2,9.59,9,21.14,12.59,29.38-1.64,5.58,1.05,8.11,5.25,9.59-1.26,6.45,5.32,5.07,6.6,9,3-1.59,5.42.09,7.85-2.21,0-6.05,8.18-8.39,9.13-4.79,1.53-1.7,2.69-4,1.12-6.47,3.24-7.51-3.48-10.19-5-13-5.54-10-10.48-48.32-23.26-63.28C181,177.37,96,180.85,71.05,197.36Z"/>
  </g>
  <g class="bennettHoodie">
    <path d="M64.17,96.83c-3.69,1.9-8.45,6.19-16.31,3.33-10,3.34-14.53,8.1-15.31,19.89-1.12-3.34-13.14-4.65-9.45-15.72-.87-4.52.36-7.52,3.1-8.93C31.79,73.73,78.94,82.66,64.17,96.83Z"/>
    <path d="M69.13,208.72c9.7-6.21,19.9-7.91,28.24-14.47,7.84-4.23,15.94-8.18,25.59-10.38,0-1-1-2.73-2-4.57,4.61-7.91-.9-9.93-2.52-14.59-.18-2.7,1.08-11-7-14.07-3.39-4.3-3.25-10.39-4.47-13.3-4.16-9.92-7.46-6.19-9.91-12.79-5.76-15.49-10.44-12.78-13.87-19.81,1.44-6.12-5.44-7.14-8.82-9.72-3.14-2.39-5.78-6.49-10.45-5.77-21.19,3.75-38.2,9.56-31.33,30.8C44.66,161.21,68.46,202.51,69.13,208.72Z"/>
    <path d="M59.05,118.06c-3.53,13.86,1.49,17.38-3.14,23.47,1.14,3.06-.09,3.28,0,5,.06,2.81.87,4.76-1.39,8.36-1.56,1.44,3.13,5.07-.74,8.22a5.22,5.22,0,0,1-.85,5.69c4.73,2.33-1.12,4.73,2.85,8.78,4.06,2.57-.6,3.93,4.32,7.82,4,1.43,1.78,3.11,2.92,3.82,4.15,2.59.29,3.5,4.56,6.42,3.36-.14,3.39,1.28,3.83,2.3,1.37,1.14,3.78.18,3.24,4.56,1.57,2.83,7.17,5.61,8.15,7.75,1.67,3.67-6.72,12.27-10.39,10.92-1.81-.66-4.88-4.82-8.82-7.86-4.49.76-7.19-.56-7.21-3.19-2-.14-5.88-.7-5.4-4-20.51-15.85-21.71-35.78-22-53.55-.22-11.93-2.23-17.89,2.58-37.11"/>
  </g>
  <path class="bennettHoodieInner" d="M26.2,99.33c.47-5.24-2.63-11.67,10.82-16.67l26.2,13.22C52.26,92.9,37.39,99.57,26.2,99.33Z"/>
  <path class="zipperDisplayLine" d="M64.17,96.83C72.79,100,74.49,107.5,78,110.38c2.45,2,9.43,5.21,11.61,12.59,2.24,5.64.62,16.77,7.39,16.2,9.91-.7,6.4,12.91,8.18,17.7,2.12,5.29,6.11,6.4,7.86,10.71,1.07,2.64.89,8.23,2.33,12,.71,1.88,1.93,4.51,1.12,6.18"/>
  <g class="bennettHoodieLace">
    <path d="M76.94,120.45l4.22,4.23c.24.22,1.18-.76.94-1l-4.23-4.25Z"/>
    <path d="M59.47,99.06c7,7.25,8.45,13.51,17.08,21.46.47.45,1.72-1,1.34-1.45-7.42-6.58-9.81-13.42-16.94-21.35Z"/>
    <circle cx="59.68" cy="97.72" r="1.74"/>
    <path d="M86.9,113.51l3.78,4.62c.2.25-.86,1.1-1.07.84l-3.8-4.64Z"/>
    <path d="M66.74,91.88c6.44,4.76,7.14,7.56,11.91,13.31,2.28,2.75,6.43,5.48,8.39,8,.38.49-1,1.76-1.54,1.24-2-2.43-5.51-4.94-7.94-7.62-5.13-5.68-5.6-9.08-11.89-13.5Z"/>
    <circle cx="65.5" cy="91.9" r="1.74"/>
  </g>
  <g class="clothesDisplayLine">
    <path d="M233.27,312.86c10.71,2.22,23.73-6.09,23.87-12.22"/>
  </g>
  <g class="clothesOverlapLine">
    <path d="M111.4,150.64c-1.88,4.66-10,9.12-16.56,9.77a26,26,0,0,1-8.59,20.33c-1.88,1.66.2,8.21-.35,10.69"/>
    <path d="M121,179.3C115.82,184.88,101,191,85.9,191.43c-3.49.54-9.4,4.6-15.06,5.25"/>
    <path d="M74.6,202.46c-1.36,3.71-7,9.54-11.06,10.81"/>
    <path d="M217.26,290.14a37.2,37.2,0,0,1,10.36-6.29"/>
    <path d="M219.56,292.45A36.91,36.91,0,0,1,230.17,286"/>
    <path d="M222.27,294.57a43.41,43.41,0,0,1,10.3-6.93"/>
    <path d="M225,296.31a37.82,37.82,0,0,1,10-7.36"/>
    <path d="M228.28,298a25.44,25.44,0,0,1,9.47-7.94"/>
    <path d="M210.39,278.25c1.34,1.11,2.56,5.57,5,9.38"/>
  </g>
  <g class="clothesFoldLine">
    <path d="M118.45,164.71c-.56,4.18-1.48,7.66-1,11.69"/>
    <path d="M89.42,180.92c13.48-6.2,29.88-6.26,10.2,1.45"/>
    <path d="M88.21,186.4c6.41-1.09,22.34-3.27,8.37,1.85"/>
    <path d="M71.36,197.9q-1,3.61-7.16,7.16"/>
    <path d="M67.53,195.6c.27,2.88-8.13,9.78-12.75,10.27"/>
    <path d="M62.57,188.56c-.27,1.06-1.36,1.31-1,2.22"/>
    <path d="M60.05,185.36a7.33,7.33,0,0,0-4.9,2"/>
    <path d="M56.4,182.17a3.89,3.89,0,0,0-3.3,1.09"/>
    <path d="M54.58,172.53c-1.75,2.72-12.39,2.47-14.2,4.71"/>
    <path d="M52.88,168.76c-4.32-.55-10,.38-16.17,1.74"/>
    <path d="M53.73,163.07c-3.6-2.49-12.21-1.61-18.06,1.79"/>
    <path d="M54.47,154.85c-3.38.09-14,1.23-3.12,3.23"/>
    <path d="M41.07,144.66c2.57,5.23,6.2,7.42,10.92,6.42"/>
    <path d="M37.14,142.66c.76,7.52,6.23,12.11-1.55,18.18"/>
    <path d="M47.69,135.73c2.12,1.62,3.79,3.37,4.33,5.43"/>
    <path d="M55.91,141.53c-.87,1.68-4.09,2.34-5.45,4.44"/>
    <path d="M50.32,133.91c-3.72-6.19.81-4.71,3.83.79"/>
    <path d="M23.1,104.33c1,3.55,4.36,7.32,1,5"/>
    <path d="M31.46,115.41c.82-4.21,4.45-8.48,7.46-10.68"/>
    <path d="M32.66,86.43c-2.88,2.43-2.63,6.74,1.12,8"/>
    <path d="M34.59,97.28c6.54-4.9,12.39-.84,16-1.62"/>
    <path d="M33.68,91a9,9,0,0,0-2.8.63"/>
    <path d="M47.86,100.16c3.54-1,7.11-2.34,10.14-2"/>
    <path d="M39.32,112c-7.1,1.06,5.84-10.43,16.14.88"/>
    <path d="M57.37,108.93c1.86,1.84,2.09,6.39,1.68,9.13,1.35-.6,2.56-4.14,2.53-5.49"/>
    <path d="M69.49,120c-2.55,1.09-5.54,3-7,5.36"/>
    <path d="M74,121c-3.63,1.82-10.74,7.36-12.77,10"/>
    <path d="M78.79,109.56A6.87,6.87,0,0,1,74.27,112"/>
    <path d="M83.44,128.53a27.59,27.59,0,0,1-15.7,4.83"/>
    <path d="M85.7,131.42c-6.68,3.48-12.88,7.24-17.65,11.81"/>
    <path d="M65.66,137c6.24-1.86,6-.47-2.12,5.65"/>
    <path d="M95.58,121c-1,2.26-2.78,2.76-4.1,3.72"/>
    <path d="M102,133.55c3.34,2.16-13,11-21.48,10.87"/>
    <path d="M68.93,149.45C84.45,150,97,141,97.7,143.16c.72,2.38-5.93,6.21-16,10.87"/>
    <path d="M92.36,155.79c-9,2.33-18.39,7.77-27,9.24"/>
    <path d="M78.16,165.15c-3,1.17-10.73,4.54-17.75,5.91"/>
    <path d="M55.73,177.54c-2.82-.8-7.8,3.35-15.19,1.28"/>
    <path d="M88.34,168.42c-5.75,1.26-15.91,5.49-21.36,7.12"/>
    <path d="M84.63,175c-2.56.4-4.33,2-9.76,3.37"/>
    <path d="M166.21,220.35c.33-4.57,2-9.82,4.08-15.28"/>
    <path d="M175.28,223c1.19-2.05,7.65-7.93,8.47-6.75.54.76-4.18,3.77-5.3,5.93"/>
    <path d="M187.49,206.47c-4.54,2.67-9.89,8.2-4.38,5.47"/>
    <path d="M190,211.72c-2.43,5.42-7.65,9.3-7.31,14.8"/>
    <path d="M171.64,220.35c.68-9,7.51-16.9,9-15.58,1.77,1.59-6.92,7-7.34,14.2"/>
    <path d="M183.13,261.58c2,1.39,5,2.67,1.06,3.54"/>
    <path d="M216.47,258.5c.15,4.9-2,8.74-8.13,10.81"/>
    <path d="M190.69,261.86c1.49,3,4.34,4,7.79,4.06"/>
    <path d="M195.94,271.45c4.52.92,6.88.63,7.9-.44"/>
    <path d="M220.64,267c-1.08,3.12-12.33,8.15-17.09,8.09"/>
    <path d="M80.71,208c7.18-5.87,9.06-5.07,2.16,2.4"/>
    <path d="M93.83,201.89c-3,2.9-5.19,5.62-6.31,8.73"/>
    <path d="M56.33,210.08c1.94.15,8.42-3,5.18.23"/>
    <path d="M64.2,190.1c3.22-.21,7.09-1.94,9.82-2.72"/>
  </g>
  <g class="skinEastAsian">
    <path d="M23.61,68.49C30,73.29,33.07,82.6,33.68,91c9.74-1.14,22.17,2.72,29.54,4.93-.9-4-1.7-8.17,3.74-13.93"/>
    <path d="M107.11,224c1-2.62-6.43-10.75-8.79-11.59-6.31-2.26-12-1.63-15.47-1.9,1.05,3.48-5.59,10.57-9.47,10.77,3.29,8,17.47,14.41,24.71,11.79,1,1.76,4.59,2.83,5.56,1.45,2.25,1.61,4.48,1.07,5.35-.8C110.24,231,109.21,227.19,107.11,224Z"/>
    <path d="M76.05,50.69c2.41,6.07,4.91,15.42,1.4,24.76-1.73,4.6-.69,8.27-7,12-5.69,3.43-8.35,1.47-18.93,1.35-11.48-.12-22.14-8.14-26.1-16.11-3.07,2.78-5.55,1-7-.83-2.05-2.68-5.32-2.77-8-9.87C-1.56,40.4,42,4.32,68.71,23.82c0,10.41,6,8.55,5.86,18.67,0,1.28,1.82,3,.82,4.81C76.8,49.21,75.75,49.91,76.05,50.69Z"/>
  </g>
  <g class="skinOverlapLine">
    <path d="M93.29,228.43c2.22,2,4.2,3.08,4.8,4.63"/>
    <path d="M96.16,222.86c2.89,2.16,5.73,3.66,6.84,5.3.92,1.35,1.75,5,.65,6.35"/>
    <path d="M99.78,219.31c2.78.67,6.65,3.75,7.33,4.68"/>
  </g>
  <g class="skinFoldLine">
    <path d="M19,58.63c-5-9.21-11.1,1.41-3.31,7.24"/>
    <path d="M19.51,61.61c-2,2.58,2.93,4.25,1.5,5.64-1,1-.63-1.5-3.7-2.65-2.78-1-1.64-6.38.24-4.62"/>
  </g>
  <path class="lipMaleMedium__noStroke" d="M68.25,72c1.73,0,2.68-.53,3.11-1.23,1.17-.14.83,1.3,2.24,1.39-.85,1,.52,5.29-3.4,7-4.84,2.1-6.81-1.93-8.46-1.93C62.21,75.86,64.59,76.13,68.25,72Z"/>
  <path class="teeth" d="M65.67,75a9.22,9.22,0,0,1,2.07-1.35c.68-.19.88.5,2.27.38C68.32,75.27,66.52,75.58,65.67,75Z"/>
  <g class="lipOverlapLine">
    <path d="M61.35,77.63c.89-1.34,2.42-1.24,4.32-2.59"/>
    <path d="M74.34,71.69c-1.08,1.17-2.21.37-2.7,1.09A2.48,2.48,0,0,1,70,74.07"/>
  </g>
  <g class="lipEdgeLine">
    <path d="M68.25,72c1.73,0,2.68-.53,3.11-1.23"/>
    <path d="M64.64,78.94c2.77,1.62,8.19,1,8.48-4.55"/>
  </g>
  <path class="cheekLine" d="M61,65.33c-.88,1-1.82,2.67-2.49,5.92"/>
  <g class="noseLine">
    <path d="M61,65.33a2.3,2.3,0,0,0,3,3.37c2.3-1.06,6-.31,8.05-2.13,2.68-2.42,1-5.06-1.35-7.8"/>
  </g>
  <g class="eyeFoldLine">
    <path d="M49.05,58.92c1.66.71,6.33-.91,7.2-2.06"/>
    <path d="M70.54,52.1c1,.36,3.72-.51,4.32-1.69"/>
  </g>
  <g class="eyeLashLine">
    <path d="M44.48,57.69c4.19.91,6.21-2.92,13.86-3.4"/>
    <path d="M68.78,50.92c2.7-3.23,4.77-2.73,6.61-3.62"/>
  </g>
  <g class="eyebrowBlack">
    <path d="M57.9,46.07c-2.66,5.24-11.24,2.73-16,7.9C45.44,47.05,50.9,49.4,57.9,46.07Z"/>
    <path d="M66.84,42.9c2.31,1.72,4.75.28,7.73-.75,0-.52,0-1,0-1.47C70.67,41.1,68.66,43,66.84,42.9Z"/>
  </g>
  <path class="hairBlack" d="M45.27,31.6c5,16.34,17.08,10.09,19.95,10.55-.49-1.1-2.38-1.38-3.25-2.14,2.62.76,11.15-5.14,14.26-2.35.93-5.93-1.86-13.3-5.78-17.55,1,.44,3.16.1,4.66.67C67.68,15,63.23.35,38.4,2.4c-8.86.73-21.51,4-25.42,8.4A10.89,10.89,0,0,1,16.18.91C11.33,3.28,9,9.27,9.83,13.49,8,10.12,2.93,10.4.68,14c3.69-1.88,6.63-.27,6.94,2.59-12.27,16.76-3.15,41.7,2.83,45.08C7.2,53,15.56,48.67,20,55.62a13.23,13.23,0,0,0,5.84.64c-.47-3-.65-3.4,1.15-6.06,2.86-.37,12.93-.72,16.3-5.67a13.62,13.62,0,0,1-.89,3.91C45,46.7,48,43.55,45.27,31.6Z"/>
  <path class="hairOverlapLine" d="M26.94,50.2c-1.82.1-3.34-.16-4.5-.05,1.12-1.33,3.32-1.23,4.46-2.95"/>
</svg>
