<svg class="cemeteryBackdrop"
    xmlns="http://www.w3.org/2000/svg" viewBox="0 0 3147.11 1099.52">
    <title>cemetery backdrop</title>
    <path class="cityFar" d="M3135.61,505.52c.5-4.17,2.38-44.83,2.43-49,.15-12.21,1.29-24.35,1.86-36.51.6-12.84,1.95-25.63,2.25-38.49.17-7,.55-14.06,1.31-21,.45-4.11-.77-8.66,1.65-12.54l-1,.5c-1.6-.8-3.33-.5-5-.49q-25.76.23-51.5.48c-5,.05-10,0-14.92,0-3.2,12-1.52,24.22-3.83,36.38l-151,1.31c.73-9.62,1.4-18.52,2.1-27.72-31.7,0-63,1.07-94.95.35,0-8.55,1.52-16.69,2.29-24.8,1.12-11.68,2.27-23.39,4-35,.66-4.34.95-8.8,1.4-13.08.56-5.38,2.32-10.91,1-16.8-11.34-.55-22.53-.37-33.69-.52-40.5-.58-81,.36-121.5-.61-2.82-.06-6.09-1-8.39.62s-.93,4.84-1.06,7.35c-.06,1.31-1,2.14-1.14,3.49-1.18,12.35-2.68,24.67-3.88,37-1.14,11.65-2.11,23.33-3,35-.25,3.41-1.8,5-5,5-25.17,0-50.33,0-76.24,0,1.44-14.77,2.85-29.24,4.31-44.19-52.24,1-103.9-1.13-155.48.36a11,11,0,0,1-.56-2.67c.75-8.16,1.48-16.33,2.24-24.48.31-3.32.13-6.74.77-10a103.86,103.86,0,0,0,1.94-23c-42.14,0-84.32.31-126.22-1.27-1.23,3.55-.28,6.49-.81,9.26-1.78,9.26-2,18.68-2.83,28-.47,5.14-.88,10.34-1.33,15.47-.91,10.5-2.19,21-2.7,31.52-.18,3.67-1.13,5.1-5.09,5.08-35.17-.14-70.33-.08-105.5-.08h-15.5c0-2.17-.42-4.2.07-6,2.06-7.41.54-15,1.73-22.55,1.51-9.54,1.22-19.34,2.28-29,1.26-11.32,2.69-22.61,2.95-34a19.64,19.64,0,0,1,.35-3.53,43,43,0,0,0,.12-15.47l2.5-1.5c-1.29-.11-2,1.15-3.5,1.11-10-.22-20-.11-30-.11-1.76-6.22.2-12.18.83-18,.51-4.8.93-9.81,1.28-14.57.58-7.78,1-15.65,1.51-23.46.73-12,2.63-24,3.78-36,.42-4.48.74-9,.85-13.5.28-11.54,2.52-22.93,2.28-34.49-.06-3,1.8-5.92.21-9.67L2057.62,78.4c-1.13,18-2.26,36-3.41,54.32l-89.31-1.36c.85-6.51-.93-13,1.19-19.35a4.13,4.13,0,0,0,0-1.49c-.76-11.2,1.28-22.32,1-33.5-.26-10.35,1.75-20.64,1-31-.09-1.17.55-2.46-.9-4h-65.43c1-12.17,1.84-23.84,2.9-35.5.33-3.61-.62-5-4.55-5.09-25-.76-50-.24-75-.41-1.43,0-2.9-.22-4.61.85.94,17.31.54,35,.61,52.65,0,6.5,0,6.74-6.5,6.45-16-.73-32-.29-48-.48a23.8,23.8,0,0,0-.51,3.53c.42,21.18-1.79,42.32-1,63.5.44,11.21-.37,22.38-1.3,33.48a248.78,248.78,0,0,0-.63,26,323.45,323.45,0,0,1-1.38,33c-.87,10.71-.53,21.35-.62,32,0,5.19-1.86,10.09-1,15.37H1738c-2.51-2.87.42-5.84.28-8.88-.35-8.15-.32-16.33-.07-24.49.43-14,1.5-28,.9-42a394.12,394.12,0,0,1,.88-44c.8-11.45-.55-23-.57-34.49,0-13.82.21-27.67.18-41.5,0-14.5-.62-29-.93-43.5,0-2.72-.26-4.74-4-4.57-15,.68-30-1.58-45-.71-17,1-34,.24-51.13.94-1.68,9.91,1.66,19.31,1.63,29-16.78,1.9-33.27-.43-49.94,2.25-.39,7.47.81,14.77,1.44,22.09.8,9.33,1.4,18.7,2.56,28,1.49,12,1.27,24,2.78,36,.86,6.74.69,13.66,1,20.49,1,23.31,2,46.66,1,70-.37,8.67-.38,17.35-.87,26-.45,7.78-1.54,15.51-2.37,23.51-8.89,0-17.72,0-26.56,0-3.37,0-4.11-1-3.17-4.56,1-3.79-.42-8,.67-12l-.5-3c.47-6.16-.8-12.36.89-18.53.82-3-.54-4.84-4.38-5.08-18.5-1.15-37-.84-55.51-.88-15,0-30,.1-45-.09-3.9-.05-5,1.43-5.09,5.08-.09,3.43.81,6.66,1.06,10,.44,6-2,11.74-.68,17.91-11.62.32-22.47-.38-33.25.73a13.75,13.75,0,0,1-.78-10.07,15.32,15.32,0,0,0,.6-7c-1.31-6-.78-12-.8-18,0-3.4-1.42-4.66-4.54-3.91a6.76,6.76,0,0,1-2,.39c-11.2-.63-22.32,1-33.49,1.25-9.33.22-18.74,0-28,1-7.37.77-14.75-.06-22,.91-8,1.09-16.11,0-24,1-9.7,1.31-19.36.37-29,.83-4.85.24-9.58,1.8-14.55.75-.23,4.43-1,8.24.37,12.31.94,2.86.07,6.28.2,9.44.54,13.19-1.67,26.3-1.06,39.5.28,6.17,1.43,12.28,1.08,18.5-.28,5.18-.39,5.49-5.54,5.49-7.33,0-14.67,0-22.5,0V318c0-17.34-.15-34.67,0-52,.23-21.51-1.84-43-1-64.5.09-2.22-1.44-3.74-1.61-5.88h-13.38c-.41-.62-1.07-1.15-1-1.62.69-7.22-1.05-14.31-1.11-21.5-.07-10.34-1.11-20.64-1.08-31a28.54,28.54,0,0,0-6.7-18.63c-6.93-8.52-12.81-17.88-19.19-26.85-.54-.75-1.14-1.85-3.11-1.35-5.31,9.84-10.5,20.28-16.47,30.26a30,30,0,0,0-3.4,24.07,6.83,6.83,0,0,1,0,1.5c.33,10.33.28,20.7,1.18,31,.41,4.71.71,9.33.86,14.46-5.53.19-10.62-.29-15.45.84-1.5,4,.27,7.56.37,11.22.43,16.66.09,33.37,1.18,50,1.89,29,0,58,1.09,87.34-33.39.14-66.54,2.09-99.58.94-2.16-7.84-1.63-15.83-1.64-23.77,0-11.5,0-23,0-34.5,0-2.7.55-5.57-1-8-1.15-1.72.45-2.69.55-4l-1.5,2.5c-5.5,0-11-.15-16.5.05-3.44.13-4.55-1.4-4.52-4.55.07-6,0-12,0-18s-1.93-11.92-.72-18.71c-17.79.85-34.78,1.72-52.39,1,.37,13.93,2,27.43.73,41.18H961.59c-1.77,16.41.87,32.58.49,48.65a10,10,0,0,1-1.47.34c-29,.34-58,.39-87,1.13-14.66.37-29.32,1-44.15.86-1.53,13,2.23,25.77.15,38.77H771.69c-2.22-7.65-1.47-15.48-1.58-23.25-.08-5.5-.09-5.56-5.5-5.49q-33.5.47-67,1c-1.67,0-3.33,0-5,0-1.31-5.26-.81-10.47-1.19-15.53-.51-6.95-1.26-13.95-1.42-21-.3-12.84-.8-25.71-2-38.49-1-10.66-2.21-21.31-3.11-32-.3-3.53-.11-7.28-1.42-11.27l-75.74,2.46c-1.32,3.33-.9,7.2-.48,10.77,1.17,9.83,2.91,19.58,2.88,29.52l1,1c-12.67.33-25.33.73-38,1-3.67.06-5.46.3-4.23,5.1,1.14,4.41.4,9.26,1.09,14,.92,6.25.31,12.72,1.25,19,1.67,11,1,22.1,2.85,33a22.11,22.11,0,0,1-.18,4.51c-10.94.33-21.61.72-32.28,1-24.16.55-48.33,1-72.5,1.52-14,.31-28,.73-42,1-7.83.14-15.67,0-24.13,0,.58,8,1,15.26,1.75,22.49a24.06,24.06,0,0,1,.36,2.51c-.2,11,1.77,22,1,33a14.91,14.91,0,0,0,0,2.5c.73,7.5.73,7.46-7,7.51-21.5.14-43,.24-64.5.52-10.67.14-21.34.53-32,1-3.54.16-4.65-1-4.57-4.56.18-8.11.58-16.26-1.62-24.5-28.16-.21-56.47,1.64-84.73.88-2,10.37,1.65,19.62-.07,29.62-9.34,0-18.67,0-28,0-19.17.13-38.33.25-57.5.51-15.83.22-31.68.36-47.5,1.06-15.34.68-30.67.19-46,.4-6.5.09-13,0-19.82,0,.46,12.84.8,24.71,1.58,36.48,1.16,17.51,1.8,35,1.76,52.52a32.31,32.31,0,0,0,.48,4Z"/>
    <g class="cityNear">
        <path d="M2120.11,439c-1.89-32.81-.14-65.71-2.31-99.15-5.76.91-11.14-.67-16.69-.92-12.69-.58-25.36-1.56-38-2.84-5.79-.58-11.69.14-18-.94,0-4-.18-8.07.06-12.15.19-3.44-1.16-5.19-4.56-5-8.21.52-16.31-1-24.49-1.21-12.84-.4-25.66-1.34-38.5-2-9.83-.49-19.68-1.21-29.49-2-8.36-.71-16.71-.22-25-.86-20.48-1.57-41-1.32-61.5-2.19-14.52-.61-29-.39-43.51-.7-1.65,0-3.43-.73-5.48,1.25-1.23,10.82-.1,22.56-.65,34.71h-5.37c-27.67,0-55.33-.07-83,0-7.67,0-15.34.53-23,1-3.46.21-4.78-1.1-4.54-4.54.21-3.16-.09-6.34.08-9.5.16-3-1.05-4.33-4-4-17.45,1.92-35,.18-52.51,1.87-6.13.59-8.24,1.68-7.39-6.86.81-8.18.86-16.33.9-24.51,0-1,0-2,0-3.31-10.32-.45-20-2.13-30-.38-5.82,1-12,.19-18,.19-20.33,0-40.68-.51-61,.17-14.68.49-29.37.17-44,1.05-8.68.52-17.34.72-26,.69-3.87,0-5.25,1.2-5,5.09.7,13.87-.8,27.67-1.47,41.5a10.63,10.63,0,0,1-.68,2.08c-24,.59-48.18.69-72.41,2.29-2,29.77-.49,59-.89,88.13Z"/>
        <path d="M1306.11,432q0-36.75,0-73.5c0-5.47,0-5.73-5.5-5.46-20.65,1-41.34,1.24-62,2.22-8.51.41-17,.15-25.51.77-11.67.86-23.32,2.53-35,2.78-8.69.19-17.3,1.83-26,1.15-3.88-.3-5.09,1.17-5.07,5,.14,23.66.07,47.33.07,71Z"/>
    </g>
    <path class="foliage" d="M2.61,472c4-11.72,13-17,24.48-19.58s20.78.88,29.35,8.72c8.28-14.87,22.58-20,38.19-21.44s29.72,3,40.29,15.66c14.49-16.93,29.29-11.32,43.92-.85,4.33-8.1,17.07-17.69,26.26-20.56,12.56-3.92,24.59-2.15,35.93,3.71,4.39,2.28,9.42,4.74,11.08,10.34v-2c3.67-3.34,7.15-6.9,11-9.95,6.46-5,13.44-8.77,22-9.69a61.9,61.9,0,0,1,23,2.13,36,36,0,0,1,21.5,15V441c2.67-1.84,5.28-3.76,8-5.49,12.26-7.75,27.21-3.08,33.49,9.49l-.5-2c3.87-2.38,6.36-6.3,10.44-8.61,10.09-5.72,20.57-6.27,31.56-3.91,8.84,1.9,16.25,6,21.5,13.52l-.5-2c6.38-5.53,12.09-12,20-15.45,3.37-1.47,7.3-1.83,10.42-3.66,8.24-4.83,16.7-2.62,25-1.25,4.86.79,8.28,5,12.8,7.87,2.5-8.25,9.17-12.58,15.33-16.85,8.55-5.91,18.38-6.83,28.39-3.65,9.77,3.12,16.3,9.82,20.5,19l.5-2a62.69,62.69,0,0,0,5.95-5.54,21.64,21.64,0,0,1,11.11-7.21c7.93-1.93,16.15-3.09,24.45-1.29,5.8,1.26,11.72,3,16.29,6.32,4.26,3.11,8.8,6.26,12.37,10.58,2.74,3.31,4.94,7.31,8.83,9.64v2c2.51-7,9.15-10.23,14.12-14.88,5.3-4.94,12.61-6.66,19.44-8.4,4.31-1.1,8.82-3.09,13.43-2.15,7.34,1.5,15,2.58,21.45,6.53,8.11,5,17.2,9.08,21.1,18.88a2.28,2.28,0,0,0,2.46,1.52l-.5,3c0-4,3.27-6.21,5.62-8.37,7.1-6.51,15.37-9.49,25.41-7.78,8.62,1.46,14.78,6.19,20.47,12.15l.75,1.5c3-4.2,5.84-8.55,9.2-12.55,7.37-8.79,17.91-11.05,28.1-12.67a76.57,76.57,0,0,1,34.91,2.35c3.34,1,7,1.06,10.08,3.31,4.35,3.22,9,6.06,13.46,9.06l-1.5-2.5a19,19,0,0,0,2.47-3c5.78-11.21,15.75-15.24,27.53-16.23l.5,1.75c-.16-2.41,1.21-2,3-2.11,3.37-.12,5.79,2,8.44,3.23,4.26,2.05,8.18,4.85,9.56,9.88v-2c3.11-2.2,2.62-6.48,5-9,6.16-6.34,12.24-12.42,21.93-13.76,7.18-1,14.19-3.64,21.53-3.71,7.95-.07,15,3.63,21.35,7.67A26.43,26.43,0,0,1,1016.11,416l.5-2.5a9.12,9.12,0,0,0,2.47-1.53c6.87-8.42,15.78-9.38,25.51-6.88,1.5.38,3.4.37,4.52,1.91a44.65,44.65,0,0,0,9.58,9.39c1.85,1.37,1.89,2.82,1.92,4.61l-.5-4a37,37,0,0,0,6.55-4.44c6.64-5.14,13.65-9.2,22.44-10.19,19.88-2.22,35.78,4.6,48.67,19.57,1.52-1.09,3.2-2.24,4.84-3.45,10.12-7.48,20.73-6.67,30.05,1.95,3,2.81,5.25,6.47,8.95,8.56l-.5,2c2.94-5.07,8.51-6.75,13.09-9.34,12.13-6.85,25-11.86,39.41-9.64a57.32,57.32,0,0,1,28.61,12.85c1.78,1.48,2,4.76,5.55,4.61,4.3-4.9,8.21-10.63,14.82-13.53,7.54-3.31,14.83-7.42,23.52-4.45V413c.3-4.11,3.34-1.73,4.46-1.37,10.12,3.34,19.56,8,27,15.89.17.17,0,.64,0,1l.5-1.5c5.6-8,14.38-11.32,23.06-13.25,14.62-3.25,26.28,4.15,36.13,13.31,5.68-7.79,9.84-15.69,19.21-19.79,10.65-4.65,21.32-7.29,32.56-4.58a78.84,78.84,0,0,1,19.42,8c3.16,1.75,6.48,4.74,6.62,9.29l1-2c2.24-.76,3-3.06,4.44-4.56a23.67,23.67,0,0,1,32.56-1.44c2.32,2,4.67,4,7,6l1,2c-.6-.67-.81-1.19,0-2,13.82-14.78,30.16-21.74,50.52-16.49,8.75,2.25,17,5.46,23.51,12,1.94,1.95,3.71,4.14,6.49,5l-.5,2.5c1-4.32,4.56-5.83,8-7.5,8.72-4.23,17.64-6.23,27.53-4.65,8.83,1.41,16.69,3.86,22.52,11.11,2,2.56,4.77,4.58,6.91,7.08,1.88,2.19,3.11,2.09,5.09,0,6.11-6.41,12.78-10.92,22.42-11.9,9.91-1,18.34,1.4,26.46,6a20.56,20.56,0,0,1,9.07,9.88l.5-2.5c5.61-6.69,12.6-10.77,21.5-10.44,6.8.26,12.39,3.7,17.5,7.94l.5,1a20.53,20.53,0,0,1,5.51-7.49,61.26,61.26,0,0,1,20.48-11c9.49-3.19,18.53-2.36,27.55,1.94a48.39,48.39,0,0,1,13.45,9.09c2.29,2.27,4,2.16,6.06-.47a37.46,37.46,0,0,1,17-11.84c11.48-4,22.08-1.31,31.19,7.41,1.54-.89,3.42-1.35,4.31-3.58a14.57,14.57,0,0,1,4.44-6c7-5.64,14-10.48,23.37-13,11.28-3,21.92-3.13,32.57.12,11.45,3.5,20.47,11.3,28.28,20.09,1.16,1.31,5,.38,3.77,3.76l1-1.5a33.19,33.19,0,0,1,15.59-12.78c14.58-6.19,29.25-5.92,43.47,2.18,3.86,2.2,5.74,6.51,9.94,8.1v2c1.62-4.58,5.18-7.51,9-9.95,9.27-5.87,19.65-8.37,30.47-9,5.23-.3,10.81-.89,15.45,2,8.8,5.55,18.9,9.26,25.59,17.89,2,2.57,3.63,1.63,6.07-.34a40.26,40.26,0,0,1,22.4-8.51c10.22-.84,18.66,3.19,25,11.38l-1,3.5c1-5.68,6.11-7.54,10.08-9.86,11-6.41,24.28-8.52,35.44.84a41.62,41.62,0,0,0,4.15,2.8c2.16.55,2.59-.65,3.32-1.29a46.67,46.67,0,0,1,27-11.37c8.53-.79,16.77-.81,25.17,3.54s15.41,9.82,22.32,15.84l-1,4.5a8.59,8.59,0,0,1,5.57-8.35c2.91-1.24,5.53-3.16,8.46-4,8.31-2.52,16.45-3.43,24.05,2.79,4.65,3.8,7.38,8.74,10.42,13.6v-2c8.14-15.59,22.44-22.32,38.55-25.24a32.66,32.66,0,0,1,24.07,5.05c5.79,3.77,9.31,9.44,14.38,13.69l-1,2.5c2.8-4.53,7.41-6.91,12-8.33,6.58-2,13.08-3.21,19.91,1.53,4.33,3,7.1,7.74,12,9.8l-.5-1a60.39,60.39,0,0,1,29-13.11,44.25,44.25,0,0,1,26.52,4.12c6.08,2.92,10.79,7.56,15.25,12.49l-.25-1a8.18,8.18,0,0,0,3.07-2.44,54.71,54.71,0,0,1,22.46-15,68.54,68.54,0,0,1,27-4c10,.47,19.83,2.13,27.46,9.47,4.07,3.92,7.71,8.29,11.54,12.46l-.25,1.5c4.4-4.84,9.59-8.1,16.24-9.06,6.9-1,13.94-2.19,19.94,2.16,7.28,5.27,14.75,10.55,18.5,18.8,2.21.39,2.49-1.43,3.58-1.87,4.7-1.89,7.8-6.08,12.91-7.77,7.76-2.56,15.35-4.43,23.58-4.36,11,.09,22-.18,30.49,8.61,2.53,2.63,4.9,5.43,7.44,8.26,11.76-13.15,26.17-21.31,43.06-25.31,7-1.66,13.92-.69,20.46,1.21,9,2.61,17.87,5.57,25.15,12.22,5.78,5.27,10.32,11.69,16.31,16.52,5.7-5,12.42-8.92,19.62-9.61,11.07-1.07,21.06,3.21,29.3,11.53,2.52-3.52,4.43-6.57,6.7-9.31,7-8.44,17.14-11.15,27-14.59,9.1-3.2,17.76-1.82,26.54,1,2.56.83,5.72.36,7.91,1.67,7.52,4.51,15.08,9.12,21.91,14.57,3,2.37,6.68,5.18,7.16,9.81l-.5-3c2.74-.89,5-2.69,7.53-3.94,5.78-2.88,11.88-4.9,18.47-4s12.4,2.81,16.57,8.42c.87,1.17,2.6,1.72,3.93,2.55v2c2.55-5.68,8.14-8.29,12.6-11.88a36.54,36.54,0,0,1,18.38-7.77c3.56-.47,7,0,10.53-.23,9.49-.56,22.09,6.68,25.25,14.27,2.79,6.68,3.2,13.29,3.2,20.11.06,97.33,0,625.09,0,627H1.8c-1.21-1.3-.7-518.5-.65-611,0-3.5.63-7,1-10.5Z"/>
</svg>
