<svg class="clipboard"
    xmlns="http://www.w3.org/2000/svg" viewBox="0 0 463.81 598.77">
    <title>clipboard</title>
    <path class="folder" d="M416.08,127.52c0-6,0-12,0-18,.17-22.5-.29-45,.36-67.5.12-3.9-.47-8.15-3.35-11.51a12.15,12.15,0,0,0-10-4.57c-49.67.13-99.35.8-149-.19-28.34-.57-56.67-.22-85-.74a10,10,0,0,1-1.77-.38c-.07-3.79-1.27-7.31-1.33-11.1-.11-6.68-6.13-12.45-12.9-12.47q-47.51-.12-95,0c-4.53,0-9.57.85-11.28,5.53-1.3,3.58-1.1,8-.46,11.87a32.86,32.86,0,0,1,.7,5c.06,16,.56,32-.1,48-.71,17.17-2,34.3-1.92,51.5C45,125.18,416.08,127.52,416.08,127.52Z"/>
    <path class="rack" d="M435.08,286.52q1.74-15,3.5-30c1.17-10.16,2-20.38,3.59-30.48,1.69-10.83,2.14-21.8,4.68-32.57,1.68-7.12,1.95-14.65,3.22-21.95C452.79,156,454.52,140.37,458,125c.4-1.75.06-3.66.06-5.74H2.07c-2.23,2.88-.34,5.31.07,7.74,2.27,13.35,4.4,26.72,6.66,40.06,1.56,9.26,2.72,18.71,4.54,27.9,2.07,10.48,2.87,21.09,4.51,31.59,1,6.4,1.51,13,2.29,19.46,1.1,9.19,2.83,18.31,3.82,27.52.4,3.65.33,7.36,1.12,11Z"/>
    <path class="folder" d="M422.08,278.52c1.79-8.77.18-17.72,1.12-26.48,1.65-15.51.11-31,1.05-46.51.29-4.82,1-9.67.77-14.5q-.72-14.52-2-29c-.49-5.54-5.37-9.93-11.95-9.89-13.83.08-27.67-.83-41.52.75-6.91.78-14,.13-21,.13-11.67,0-23.34.12-35,0-9.1-.13-12.22,2.68-13.44,13-.35,3-.53,6.12,1.06,8.73-.95,1.77-2.39,1.22-3.62,1.25-74.5,1.75-149,.79-223.5,1-4.84,0-9.67-.83-14.5-.9-6-.09-11.18,5.52-11,11.44.2,7,.32,14,.51,21,.23,8.67,1.89,17.34.91,26-1,9-.27,18-1.14,27-.53,5.37-.49,10.69-.77,16Z"/>
    <path class="rack" d="M437.08,437.52q1.74-15,3.5-30c1.17-10.16,2-20.38,3.59-30.48,1.69-10.83,2.14-21.8,4.68-32.57,1.68-7.12,1.95-14.65,3.22-22C454.79,307,456.52,291.37,460,276c.4-1.75.06-3.66.06-5.74H4.07c-2.23,2.88-.34,5.31.07,7.74,2.27,13.35,4.4,26.72,6.66,40.06,1.56,9.26,2.72,18.71,4.54,27.9,2.07,10.48,2.87,21.09,4.51,31.59,1,6.4,1.51,13,2.29,19.46,1.1,9.19,2.83,18.31,3.82,27.52.4,3.65.33,7.36,1.12,11Z"/>
    <path class="folder" d="M418.08,430.52q0-16,0-32c0-6.68-.12-26.67-.05-30,.17-9.16,0-18.33.06-27.5,0-6.6-6-13.32-13.51-13.21-35.66.48-71.33.21-107,.21h-5.5c0-4,.19-7.5,0-11-.55-8.13-6.09-13.18-13.46-13.11q-47,.38-94,0c-8.54-.06-15.49,5.95-12.63,15.63.82,2.77.13,6,.13,9.46h-5.5c-35,0-70,.15-105-.11-7.74-.05-12,2.36-11.7,12.62.27,8.18,1.22,16.31,1.21,24.49,0,15.17-.24,30.34.09,45.5.16,7.4-1.71,14.63-1.1,22Z"/>
    <path class="rack" d="M424.58,421c-1.77.85-3.66.49-5.5.49-137.84,0-275.67,0-414.42,0C15,480,24.18,538.58,30,597.77H438.19C444.32,538.69,452,480,462.81,421H424.58Z"/>
    <path class="labelBottom" d="M185.06,303.94c.07,7,.14,14.06,0,21.08-.08,3.12.94,4.08,4.06,4.06,22.83-.11,45.67.2,68.49-.22,6.64-.12,13.34-.91,20.39-.79.39-8.29-.29-16.25-.85-24.15Q231.09,304.3,185.06,303.94Z"/>
    <path class="labelMiddle" d="M312.07,166.52c.05,3,0,6,0,9.25h96.68c2.19-7.75,1.23-15.67.44-23.63-13.2,0-26.42-.76-39.64.75-6.91.78-14,.13-21,.13-11.67,0-23.34.12-35,0-.62,0-1.2,0-1.76,0Q312,159.76,312.07,166.52Z"/>
    <path class="labelTop" d="M59,12a34.59,34.59,0,0,1,0,9c-.23,3.13.94,4.43,4,4a14.8,14.8,0,0,1,2,0h87.16c-.83-6.83.81-13.14-1.06-19.53a12.6,12.6,0,0,1-.25-4.43q-46.43-.12-92.85,0h-.54A104.2,104.2,0,0,0,59,12Z"/>
</svg>
