<svg class="dumpster"
    xmlns="http://www.w3.org/2000/svg" viewBox="0 0 2252.56 2038.06">
    <title>dumpster</title>
    <rect class="bodyBack" x="306.28" y="150.74" width="835" height="300"/>
    <g class="slotSide">
        <rect x="2054.28" y="882.74" width="177" height="244"/>
        <rect x="18.28" y="882.74" width="165" height="244"/>
    </g>
    <g class="slotBottom">
        <path d="M36.28,1121.74c3.15,2.12,6.68.92,10,.93q71,.15,142,.07l2,4v-71.88c-26.11,10.61-51.13,20.56-76,30.93-27.43,11.45-54.71,23.24-82,35.08a14.23,14.23,0,0,1-4,.87Z"/>
        <path d="M2068.28,1058.74v63.39c3.55,1.25,7.33.56,11,.57q65.49.09,131,0c3.31,0,6.84,1.19,10-.93v-2c-32-13.65-64.6-25.5-97-38-17.63-6.76-34.78-14.8-53-20Z"/>
    </g>
    <g class="slotFront">
        <path d="M172.28,1118.74c-3.21-1.6-6.66-1-10-1-27,.34-54.06-1.28-81,1.94-9.42,1.12-18.61-1.7-28-2.2-14.4-.76-21.21-8.52-23.15-22.75a148.79,148.79,0,0,1-.87-15c-.73-21.38,2-42.71,1.62-64-.3-17.31-1.55-34.65-1.69-52-.12-14.33.78-28.66-.79-43-1.2-11,5.91-22.22,15.93-24.72,5.08-1.26,10.33-2.51,15.94-2.45,36.66.37,73.33.19,110,.19l-4-161c-14.6,9.18-25.26,22.75-37.9,34.11C93,798.72,59.13,832.31,23.48,864,8.85,877,1.09,894.41,1.24,914.74c.22,31.33-.47,62.68,1.07,94,1.36,27.69-1.65,55.3-1.28,83,.28,20.31,6.72,35.93,21.92,50.34,37,35,72.9,71.1,107.41,108.59,11.16,12.12,23.25,23.4,34.92,35.07Z"/>
        <path d="M2080.28,1118.74c3.2-1.6,6.65-1,10-1,28.34,0,56.7-.62,85,1.87,8.66.76,17.59-.73,25.91-2.32,15.93-3,21.57-9.34,22-30.57.42-21.68-2.08-43.52-1.21-65,1.36-33.69-.08-67.4,2.25-101,1.14-16.28-10.91-27-29.93-27q-56-.07-112,0l4-161c14.59,9.18,25.26,22.75,37.89,34.11,35.43,31.87,69.26,65.46,104.9,97.12,14.64,13,22.4,30.44,22.25,50.77-.23,31.33.46,62.68-1.07,94-1.36,27.69,1.65,55.3,1.27,83-.27,20.31-6.71,35.93-21.92,50.34-36.94,35-72.89,71.1-107.4,108.59-11.17,12.12-23.26,23.4-34.92,35.07Z"/>
    </g>
    <g class="casterBack">
        <path d="M2078.28,1850.74c-1.67,14.67-2.84,29.41-5.14,44-2.37,15-2.61,30.13-5.45,45.1a101.15,101.15,0,0,0-1.41,22.92h-26a320.18,320.18,0,0,0-4.38-46.94c-1.07-6.68-1.27-13.64-1.9-20.13-1.44-14.9-3.88-29.85-3.72-44.93Z"/>
        <path d="M159.28,1855.74c3.64,9,4.05,18.72,5.69,28,4,23,7.51,46.09,12.26,69,.39,1.92.05,4,.05,6l24-2c-1.07-11.11,2-22,1.87-33-.16-14.4,1.8-28.69,2.76-43,.62-9.24-.31-18.89,2.37-28Z"/>
    </g>
    <g class="wheelFront">
        <path d="M238.28,1904.74c-13.7-1-27.3-1.69-41,.82-12.69,2.32-19.89,7.19-22.9,19.19a176.89,176.89,0,0,0-1.12,84c2,8.84,6.68,15.91,13.09,22,5.29,5,11.69,7.3,19,6s14.67-1,22-.91c8.59.06,15.54-2.41,19-11Z"/>
        <path d="M1997.28,2027.74c9.79,2.92,19.91,4.9,30,3.77,10.89-1.23,23.45.77,31.82-8,10.07-10.53,13.79-24.28,14.21-38.8v-8a178,178,0,0,0-2-51c-3-17.14-8.88-21.13-25.93-24.42-11.76-2.27-22.78-.14-34.07.61-5.48.36-10.48,3.46-15,6.81Z"/>
    </g>
    <g class="wheelSide">
        <path d="M246.26,1909c-9.75-6.49-14.39-4.72-16.95,7-4.39,20.14-3.88,40.61-2.89,61,.65,13.46,1.88,27,5.83,40,1.91,6.3,4.59,12,9.32,16.22,6.78-.86,9.05-4.56,10.92-10.18,5.24-15.68,5.69-31.89,6.79-48.07Z"/>
        <path d="M2009.26,1915.49c7.08,10.23,8.78,22.57,9.52,34,1.32,20.71,2.12,41.72-5.17,62.09a40.27,40.27,0,0,1-8.59,13.63c-4.07,4.46-10.37,4.49-14.64-.81-5.14-6.38-8.1-13.8-10.27-21.88-7-26.12-5.67-51.68,3.16-77Z"/>
    </g>
    <g class="casterFront">
        <path d="M1971.28,1854.74c-2.38,18.71-.17,37.4,1.24,56a491.83,491.83,0,0,0,7.73,59c.19,1-.36,2.23.09,3,3.24,5.29,3.56,13.56,11.94,13.91,7.67.31,9.77-6.82,11.78-12,6.39-16.28,8.15-33.73,10-50.93,2.43-22.32,7-44.42,7.25-67,0-1.52,1.68-1.74,3-2Z"/>
        <path d="M226.28,1860.74c-.66,31.89,2.56,63.54,7.36,94.94,1.61,10.53,2.08,22.76,12.64,30.06l8,1c5.61-6.74,8.77-14.46,11.4-22.88,1.6-5.12,1.46-10.17,2.38-15.16,5.48-29.71,7.14-59.82,8.22-90Z"/>
    </g>
    <path class="jointFront" d="M376.28,52.74a108.4,108.4,0,0,0-30.08.53c-8.62,1.32-12.89,6.75-14.43,12.6-2.11,8-4.82,16.15-4.63,24.87.44,20,.14,40,.14,60.45,17.6,1.73,34.41-1,51,1.55Z"/>
    <path class="jointSide" d="M387.28,144.74c0-21.33-.26-42.67.14-64,.14-7.18-2.51-13.8-2.43-21,.06-6.12-6.94-8.15-11.7-4-7.64,6.69-6.91,16.42-7.76,25-2,19.91-1.27,40-1.25,60Z"/>
    <path class="pin" d="M1141.28,80.74c-33.68-.08-27.35-.26-61-.61q-98.47-1-197,1.14c-61,1.46-122,2.76-183,4.24-25.67.62-51.39,1.45-77,2.78-34.67,1.8-69.4,2.63-104.06,5.09-24.28,1.73-48.67,3.13-73,3.91-21.66.7-42.25,3.48-64,2.56-5.15-.22-7.5-1.7-9-7.11a35.13,35.13,0,0,1,.83-22c1-5.2,5.24-6.75,10.19-7.06,20-1.25,39-2.41,59-3.53,25-1.4,50-3,75-4,28.35-1.22,56.7-2,85-4.24,15.63-1.26,31.28.2,47.05-1.67,18.8-2.22,37.93,0,57-2.14,19.52-2.19,39.25-.14,59-1.8,28.84-2.42,58-1.45,87-2,79.3-1.44,158.66-.17,238-.64,35.7-.21,8-.85,50,.15Z"/>
    <path class="jointFront" d="M1144.28,35.74c-6.34,0-12.67,0-19,0-12.6-.1-20.06,7.41-20,20,.06,19.33,0,38.67,0,58.48,12.93,2.47,26,2.07,39,.52Z"/>
    <path class="bodyFront" d="M2114.28,444.74c-2.22,12.92.37,26.11-2.21,39a19.6,19.6,0,0,0-.73,5c1.41,22.08-1.69,44-2.43,66-1,31-2.68,62-4.16,93-.58,12-.38,24.07-1.55,36-2.37,24.31-.25,48.8-2.41,73-1.81,20.42-.18,40.74-1.59,61-2.48,35.65-.76,71.37-2.13,107-4,103.66-.56,207.35-1.77,311-.16,14-1.05,28.09.17,42,3.63,41.33-.26,82.76,2.28,124,1.23,20.06-.44,40.16,1.82,60,2.88,25.37-.43,50.83,2.11,76,2,19.75.19,39.42,1.74,59,2.1,26.64,2.62,53.36,4.38,80,1,15.72-.35,31.52,1.75,47,2.45,18,.48,36.09,1.9,54q2.41,30.49,4.25,61c.57,9.39,1.25,18.66,1.72,29.32-24.14-1.75-47.2,2.34-70.15-2.27a13.57,13.57,0,0,0-3,0c-38.71,1.44-77.3-2.5-116-2.19-50.67.39-101.36-1.08-152-2.46-37-1-74.08.59-111-1.54-65-3.75-130-.34-195-1.87-188-4.43-376-1.83-564-1.29-64,.18-128.07-1.05-192,1.81-45,2-90.1-.8-135,1.92-36.38,2.2-72.8-.66-109,2-32.07,2.38-64.13-.62-96,1.92-28.71,2.29-57.47-.39-86,2-25.73,2.2-51.5-.52-77,2-22.75,2.24-45.38.75-68,1.57-1.66.06-3.64.88-6-2.24,1.24-12.38-2.41-26.14,2-39.72a8.33,8.33,0,0,0,0-3c-1.42-21.07,1.63-42,2.36-63,1-28,2.76-56,4.18-84,.61-12,.6-24,1.5-36,1.59-21.31.79-42.77,2.5-64,1.38-17.08-.38-34.17,1.71-51,2.74-22-.28-44.19,2.16-66,2.29-20.43.1-40.76,1.71-61,3.09-38.65.66-77.37,2-116,4.25-120.32,1.65-240.68,1.22-361-.13-36.61.85-73.42-1.77-110-1.61-22.4.31-44.82-2-67-1.62-15.75.25-31.56-2-47-2.5-17.42.25-34.86-1.94-52-2.51-19.71-.46-39.41-1.88-59-1.6-22-2.67-44-4.19-66-1.57-22.67-3.86-45.26-3.65-68Z"/>
    <path class="warningField" d="M2007.28,534.74c-45.68.27-91.34,2.23-137,3.59-30.36.9-60.77-.49-91,1.74-23.38,1.72-46.83-.24-70,2.11-20.43,2.07-40.73.37-61,1.61-39.64,2.41-79.42.25-119,2.52-26.37,1.51-52.76-.19-79.5,1.94-2.82,121.84,2.89,243.15,1.37,363.3,2.82,3.22,5.11,2.1,7.1,2.13,70.35,1,140.66-1.89,211-2.6,34.31-.35,68.76.72,103-1.71,24.06-1.71,48.16.33,72-2,22.74-2.24,45.42-.1,68-1.76,30.64-2.26,61.34-2.64,92-3.79,4.9-.18,7.22-2.14,7-7.06-.08-2,0-4,0-6q0-170.5,0-341c0-4.09,1-8.38-2-12Z"/>
    <path class="warningLabel" d="M1915.28,593.74c-2.72.47-5,2.22-8,2-20.06-1.21-39.91,2.67-60,2.13-27-.73-54,1.42-81,2.45-17.67.67-35.46-.36-53,1.56-31.34,3.43-62.81-.47-94,2.19-30.73,2.62-61.37.72-92,1.43-6,.14-11,3.87-17.92,1.65-.82,44.24,4.19,86.84,1.27,130.84,18.66-1.65,35.72,2.17,52.68-2.22,2.18-.57,4.64-.08,7-.08,19.66,0,39.34-.31,59,.06,39,.74,78-2.34,117-2.65,16.24-.13,32.85.5,49-1.77,15.76-2.23,31.44-.33,47-1.77,23.3-2.15,46.84-1.45,69.93-4.45,12.67-1.65,26,1.9,39.08-4.94V593.74h-36Z"/>
    <g class="ridge">
        <path d="M1901.28,949.73c-88.35-1.42-176.69,1.07-265,2.62-86.36,1.52-172.68.17-259,1.41-319.66,4.58-639.34,1.35-959,1.36-58.29,0-116.67-.34-175-1.34-13.58-.24-19.92,6.62-20,21-.08,12.88,6.2,18.37,20,19.07,82,4.15,164,.7,246,2,295.66,4.53,591.33,1.76,887,1.3,87-.14,174,1.1,261-1.84,44.71-1.51,89.44.91,134-1.84,46-2.84,92.1.68,138-2.06,32.39-1.93,64.7-.73,97-1.59,17.83-.47,28.54-14,23-29-3.41-9.25-9-13-20-13C1976.61,947.7,1904.41,949.78,1901.28,949.73Z"/>
        <path d="M1388.28,1388.74c-3.55,1.69-7.32,1-11,1-115.67,0-231.35-.94-347,.38-73.33.84-146.71.06-220,2.11-62.36,1.76-124.73-.58-187,2-42,1.72-84.1-.58-126,2-36.72,2.23-73.44-.52-110,1.95-35.71,2.41-71.39.26-107,2-12,.57-24,1.65-36,1.7-12.24,0-19.95,7.93-21.14,20-1.14,11.51,5.57,20.93,19.16,21.65,18.25,1,36.65,1.23,55-.57,25.29-2.49,50.69.06,76-1.18,43.66-2.13,87.41-.23,131-2.4,33.73-1.67,67.41.34,101-1.65,63.66-3.77,127.38.22,191-2.09,69-2.5,138-.49,207-1.86,210.32-4.18,420.67-1.3,631-1.39,46.63,0,93.39-.31,140,1.93,40,1.93,80.08-.36,120,1.93,31.7,1.81,63.35,1.88,95,2.78,8.33.24,16.39,2.07,25,0,12.93-3,19.69-9.61,19-20.15-.89-12.89-8-20.83-21-20.81-18.72,0-37.26-2.36-56-2.44-50.33-.2-100.7-.87-151-2.33-41.36-1.2-82.71.18-124-1.56-92.66-3.91-185.34-.73-278-1.9-4.67-.06-9.34-.63-14-1Z"/>
    </g>
    <path class="bodySide" d="M318.28,160.74c-1.69,3.54-1,7.32-1,11q-.06,133.5,0,267v11h-193Z"/>
    <path class="garbageBack" d="M1141.28,456.74V334.34c-26.32-19.51-56.09-35.44-90-42.53-21.4-4.48-43-2.41-63.9,2.3-17.16,3.87-31.34-1-45-9.48-15.23-9.48-31-16.72-49.05-19.05-23.35-3-45.11,2.15-64.83,13.49-18,10.36-37,16-57.18,18.73-5.29.71-9.84-2-15-2.19-30.9-.94-55.85,11.58-77,33.12-7.1,7.24-14,14.69-21.21,21.79-4.18,4.12-4.84,8.12-4.82,13.22q.12,48.5,0,97Z"/>
    <path class="garbageFront" d="M785.28,439.74c-6.65-15.31-13.93-30.28-25-43-17.48-20-37.69-35.75-63.93-43.21a159.65,159.65,0,0,1-54.06-26.8c-17.81-13.68-38.49-15.19-60-15.22-28.75,0-56.53,8.1-85,8.9-14.1.39-28.12-3.22-42-6.48-23.37-5.47-47.05-8.85-71-2.26A59.07,59.07,0,0,0,364.45,321c-13.93,10.5-29.39,18-45.22,24.65-26.8,11.27-43.21,32.44-55.83,57.18-6.39,12.53-9.79,26.28-13.12,39.94Z"/>
    <path class="bodyRim" d="M1142.28,113.74c-69.67,0-139.34-.15-209,.09-21,.07-42,2.32-63,1.69-48.39-1.45-96.66,2.1-145,2.62-50.67.54-101.33,3.94-152,6.08-45,1.9-90,4.68-135,7.87-31.68,2.25-63.48,3.44-95,7.52-8.92,1.16-18-.19-27,1.93C301,145.11,291.36,156,282.49,166.91c-38,46.6-75.63,93.49-107.19,144.84q-29.15,47.42-58,95c-12.35,20.41-10.23,42.16-4.94,64,1.8,7.4,1.68,15.55,8.79,21.17,4.64,3.66,9.15,5.93,15.12,5.9,33.05-.14,66,3,99,4.31,33.67,1.33,67.33,2.75,101,3.85,61.67,2,123.33,4.19,185,6.15,24,.77,48,1.44,72,1.63q78,.62,156,2.35c147.67,3.37,295.34,1.42,443,1.23q88-.1,176-1.84c35.67-.68,71.37-.69,107-2.08,30-1.16,60-.74,90-1.81,55-2,110-2.33,165-4.06,43.67-1.37,87.33-2.81,131-4.07q68-2,136-4.23c18-.59,36.17.41,54-1.81,18.07-2.26,36-1,54-1.66,23.4-.85,34.09-10.14,36.71-35,1.48-14.1,1-28.53-5.57-42-3.68-7.55-9.81-10.47-17.15-10.81-28.69-1.34-57.28,2.3-86,2.44-10.5.05-21.32,1-32,1.41q-75.48,2.75-151,4.35c-40.67.92-81.34,2.59-122,4-55,1.84-110,2.91-165,4.19-30.34.72-60.73,0-91,1.79-37.35,2.15-74.7.54-112,1.94-51.67,1.92-103.34,1.46-155,1.87-41,.32-82,2.37-123,1.69-75-1.24-150,.35-225-1-38.68-.71-77.38.71-116-1-41.68-1.83-83.4-.21-125-2.17-34.35-1.62-68.7-1-103-2.39-38.31-1.58-76.66-2.37-115-3.49-39.67-1.15-79.33-2.82-119-4-31.33-.93-62.62-3.74-94-3.67-4.8,0-8.92-1.87-13.59-4.25,4.18-13.28,12.45-24.53,18.74-36.69,29.76-57.6,67-110.41,105.93-162,3.2-4.23,5.95-8.71,8.95-13,11.26-16.26,29-17.23,46-17.8,34.06-1.16,67.89-5.39,102-6.65,22-.82,44.1-1.41,66-3.73,33.6-3.55,67.41-2.73,101-5.64,14.92-1.29,30-1.28,45-1.81,30.64-1.07,61.3-2.22,92-2.78,39-.71,78-1.94,117-2.87,14.67-.35,29.34-.37,44-.74,51.32-1.28,102.68-.1,154-1.38,24.39-.61,48.67,1.25,73,.4,2.36-.08,4.82-.44,7,1Z"/>
    <path class="lid" d="M2124.28,361.74c10.27-14.38,9.63-29.78,2.88-44.95a728.09,728.09,0,0,0-47.76-89.13c-17.5-28.1-36.23-55.41-57.41-80.68-29.1-34.72-60-67.87-95.55-96.44-15-12.1-29.83-24.52-48.25-30.54-17.33-5.67-35.77-6.09-53.91-7.25-31-2-62-2.26-93-3.38q-63.52-2.32-127-1.47c-55.34.68-110.69,1.93-166,4.06-32,1.23-64,2.86-96,4.07-30,1.14-60,2.7-90,4q-43,1.92-86,4.14c-13.29.68-26.75.66-41,2.07V400.74Z"/>
    <g class="lidTrim">
        <path d="M1667.28,372.74c.14-30.23-5.12-59.91-12.33-88.92-16.49-66.37-44.66-128.56-71.75-191a682.31,682.31,0,0,0-40-78c-5.68-9.53-17.11-12-26-6-5.68,3.82-7.94,8.44-4,15,12.2,20.55,22,42.3,32.32,63.84,20.56,42.91,38.8,86.69,55.9,131.06a588.84,588.84,0,0,1,31.42,117.14c2.18,13.31,3.62,27.18,2.39,40.94Z"/>
        <path d="M1401.28,376.74c1-26.71.55-53.48-2.32-80-2.8-25.7-4.46-51.54-9.18-77.12-2.84-15.41-4.61-31.23-6.56-46.9-2.84-22.87-7.72-45.4-11.5-68.09-4.43-26.58-11.31-52.55-16.41-78.93-2.41-12.45-18.42-19.92-28.94-12.85-3.84,2.58-4.94,5.62-3.68,12,5.77,28.89,12,57.73,17.09,86.79,3.75,21.35,8.13,42.72,11,64.16,1.7,12.88,3.25,26,5,38.86,2.34,17,3.59,34.23,7.16,51.15,1.41,6.67,1.67,13.92,2.31,20.92,2.76,30.62,2,61.32,2.06,92Z"/>
        <path d="M1903.28,364.74c0-19.37-4.68-38.14-8.23-57a367.37,367.37,0,0,0-25.74-83.06c-10.09-22.42-23-43.32-36.25-63.84-34.66-53.69-71.57-105.81-114.81-153.12-7.57-8.29-16.85-9-24.94-2-4,3.48-5.75,6.71-1.17,12.08,36.45,42.77,71.25,86.87,102,133.94,21.44,32.77,44.06,65,56.15,102.92,7.05,22.14,15,44.15,18.54,67.08,2.19,14.12,6.58,28.28,4.4,42.94Z"/>
    </g>
    <path class="lidRim" d="M2125.28,349.74c-29.67,2-59.33,4.14-89,5.95q-38,2.32-76,4c-47,2-94,4.22-141,5.36-40.34,1-80.65,2.92-121,4-33.34.89-66.77.09-100,2.15-31.07,1.94-62,.4-93,1.56-73.32,2.74-146.7.57-220,2.41-53,1.33-106,.83-159.51,1.71v62.92a11.11,11.11,0,0,0,4.5,1c65,.27,130,1.35,195,.64,33.34-.36,66.69.34,100-.83,38.33-1.34,76.67-1.56,115-2,37.67-.42,75.33-1.76,113-2.9,39.67-1.2,79.34-2.41,119-4,42-1.73,84-3.44,126-6.09q60-3.78,120-7.49c32.67-2,65.25-5.4,98-6.39,16.34-.5,24-8.15,27.11-24.95,2.6-14.17.38-26.37-11.06-36.08-1.71-1.45-3.39-.6-5-.94Z"/>
</svg>
