<svg class="forebodingTrees"
    xmlns="http://www.w3.org/2000/svg" viewBox="0 0 1121.87 668.68">
    <title>foreboding trees</title>
    <path class="treeFar" d="M146.5,667.41c1.33-.33,3.13-.22,3.93-1.07,7.26-7.65,17.36-11.4,25.1-18.39A26.11,26.11,0,0,1,182,643.5a7.93,7.93,0,0,0,5-7.09c.83-8.66,2.6-17.36,2.31-26-.65-18.95,3.72-37.57,2.75-56.51-.83-16.35,1.46-32.65,1.41-49-.06-20.19.4-40.37,2.08-60.49.33-4-1.34-6.94-4.06-9.5-5.48-5.19-11-10.31-16.48-15.52-4.29-4.09-8.16-8.65-13.51-11.49l-.5,1.5a5.57,5.57,0,0,1-1.51,1c-11.82,2.86-23.72,5.46-35.47,8.61-6.48,1.74-13,3.44-19.51,5a279.07,279.07,0,0,0-28,7.87c-4.61,1.59-9.15,2.7-14.1-.73-4.39-3.05-9.78-4.77-14.89-6.64-14.4-5.27-28.55-11.09-42-18.55-1.68-.93-3.82-1.28-4.5-3.46a6.07,6.07,0,0,1,5-1c8.19,2.3,16.73,2.5,25,4.29,10.48,2.27,21.07,3.92,31.53,6.4,3.44.82,7.27,1.86,11.51.48,8.32-2.7,16.59-5.76,25-8,15-3.92,29-10.11,43.44-14.74,0-1,.21-1.67,0-2-7.18-9.1-15-17.68-23-26-6.23-6.43-11.78-14.08-19.19-18.68C89.6,336.61,77.53,332.18,66,326.94c-6.74-3.06-13.84-5.47-20.38-8.76-9.08-4.57-18.48-8.37-27.57-12.86-5.13-2.54-11-3.88-15.11-8.4,1.69-2,4-1.75,6.06-1.45,8.61,1.28,16.75,4.52,25.48,5.63,9.11,1.16,18,3.87,27,5.8,12.66,2.72,25.36,5.24,38,8.06,6.07,1.35,10.12,5.61,14.69,9.75a557.16,557.16,0,0,0,61.36,48.14c2.11,1.44,4.67,2.92,7.46,1.06l1.5,2c-1.68-2.67-.33-5.74-1-8.49a48,48,0,0,1,.91-27.55,10,10,0,0,0-1.18-8.57c-6.38-10.77-14-20.55-21.49-30.54C154.85,291.6,148.46,282,141.4,273c-3-3.8-4.64-9.35-9.45-10.91-9.79-3.19-18.16-9.11-27.3-13.49-7.57-3.63-14.82-8.54-22.34-12.31s-14.61-8.41-22.14-12.2c-10.61-5.35-20.9-11.56-31.1-17.78-1.59-1-4.1-1.4-4.89-5.54,33.32,7.77,64.31,20.7,96.32,29.65a44.49,44.49,0,0,0,2-5c2.4-8.81,4.65-17.67,7-26.48,3.79-14,7.66-28,11.49-42l1,3.5a14.41,14.41,0,0,1,2.05,7.5c.18,6.67.62,13.34.95,20,.7,14,1.86,28,1.52,42-.18,7.5,1.48,14.34,6.93,20.05,6.53,6.81,12.52,14.14,19.09,20.91,9,9.26,17.13,19.36,27.1,27.76a12.16,12.16,0,0,0,5.38-6.21c3.35-8.26,9-15.25,12.6-23.45,4.64-10.62,10.74-20.58,7.45-33.08-4.14-15.75-7.57-31.69-11.66-47.45-1.47-5.66-2.49-10.89,2.1-15.52,3.34-3.38,5.2-7.76,8-11.52,10.44-14.15,19.87-29,29.09-43.94,8.13-13.23,16.92-26,25.42-39l1-1c2,1.53,1.6,3.38,1.05,5.52-2.87,11.08-7,21.8-9.68,32.95-2,8.33-4.23,16.88-8.14,24.39-4,7.73-5.67,16.36-10.54,23.77-3.05,4.63-3.58,10.77-7.12,15.42-.34.45.32,1.61.42,2.45,1.43,11.47,6.32,22.1,8.07,33.49.1.61.91,1.09,1,2,.32,3.83,1.82,4.63,4.93,2.48,8.06-5.59,16.16-11.13,24-17,13.77-10.35,27.09-21.34,41.17-31.26,5.25-3.69,10.38-8.38,18.38-7.4,16.25,2,32.63,3.11,49,4.12,10.51.64,21.05.55,31.5,2.07,1.82.26,3.66.35,5.59.52,1.71,3.36-1.32,4.08-3.11,4.38C418,176.57,410.42,177,403,178.52c-8.31,1.67-16.81,1.74-25.09,4.15-7,2-14.61,1.83-21.93,2.76a156.37,156.37,0,0,1-20.5,1.45c-1.61,0-2.17,1.21-3,2.06-3.57,3.77-6.9,7.77-10.56,11.45-13.2,13.29-26.89,26.1-40.15,39.34-6.38,6.38-13.61,12-20.32,18.19-.86.79-2.17,1.53-2.43,2.51-3.46,13.61-11.28,25.6-14.83,39.05-2.57,9.7-7.62,18.49-9.32,28.42-.3,1.76-1.6,3.34-2.42,5-4.31,8.78-1.11,17,1.4,25.53,3.23,10.89,5.75,22,8.61,33,1.74,6.69,3.54,13.37,5.38,20.27,5.3-2,9.16-5.79,13.06-9.32,11.6-10.44,22.94-21.19,35.55-30.45,2.1-1.54,3.81-2.84,4.72-5.93,2.84-9.63,5.63-19.23,8.06-29,1.89-7.55,4.9-14.94,6.63-22.59,2.64-11.63,11.12-19.33,18.19-27.89s14.82-16.49,22.43-24.56c4.68-5,9.62-9.71,14.48-14.51.81-.8,1.36-2.27,3.08-1.25a7.49,7.49,0,0,1-1.64,7.69c-9.68,11.36-15.59,25.14-24.3,37.15a59,59,0,0,0-10.84,30.38c-.73,8.91-3.75,17.62-4.58,26.53-.49,5.29-2.36,10.56-1.17,16.31,5.82-2,11.71-3.83,17.38-6,12.91-4.93,26.16-9.05,38.64-15.17a36.31,36.31,0,0,1,8.92-3.15c10.1-1.95,14.24-10.82,19.88-17.62,10.09-12.15,19.62-24.77,29-37.48,2.4-3.26,4.66-6.67,6.95-10.12,2.67,2.19,1.69,4.38.69,6.71-5.21,12.15-9.51,24.78-15.79,36.35-5,9.18-8,19.15-13,28.27a11.89,11.89,0,0,1-4.81,4.76c-14.46,8.25-29.65,15-44.86,21.78-19.48,8.71-38.86,17.64-58.59,25.78-8.84,3.65-14.14,11.05-20.68,17.35s-12.79,12.56-19.67,18.36c-6.45,5.44-11.43,12.59-17.74,18.22-5.56,5-6.56,10.81-6.45,17.62.27,16.52.63,33,2,49.51a128.3,128.3,0,0,1,.36,13c-.18,10.38,2.08,20.55,1.45,31-.58,9.59,1.07,19.32,1.74,29,.91,13.19,3.16,26.26,3.48,39.5.09,3.83,1,6.4,4.91,8.68a271.93,271.93,0,0,1,36.45,25.65c-1.63,1.47-3.28,1.17-4.84,1.17q-71.25,0-142.5,0a24.73,24.73,0,0,1-3.5-.48Z"/>
    <path class="treeMiddle" d="M638.21,329.18c.7-.88,1.22-2.05,2.12-2.58,7.39-4.34,13.71-10.09,20.4-15.34,2.84-2.22,5.62-4.68,9-5.59a70,70,0,0,0,17.72-7.62c13.72-8.26,27.92-15.63,42.18-22.79,15.7-7.89,30.6-17.16,46-25.49,2.33-1.26,5-3.05,6-6.76-3,.29-5.73-.46-8.63,1a90.24,90.24,0,0,1-14.16,6.29c-14,4.42-27.58,10-41.48,14.69-12,4-23.64,9-36.19,11.12l1-1c1.5-7.23,2.86-14.46,5.08-21.57,2.83-9,6.39-18.08,7.69-27.3,1.76-12.35,8.68-20.08,17.62-27.32,9.35-7.57,18.06-15.93,27.43-23.46,5.16-4.15,9.59-9,14.5-13.37,1.5-1.34,5.31-3.24,2-7-15.55,11.2-32.72,19.69-48.81,30-7.15,4.59-14.58,8.95-22,13.2-4.33,2.49-6.15,5.94-7.82,10.13q-9.64,24.15-17.68,48.88c-2.89,8.87-6,17.61-9.52,26.23-.51,1.24-.33,3-1.65,3.6-9.74,4.17-17.36,11.87-27.22,16-5.08,2.11-9.46,5.87-14.24,8.76-10.76,6.48-22.18,11.64-33.6,16.81-3,1.35-5.25,4.28-9.38,4.2-3.14-10.06-6-20.39-9.6-30.42-5.44-15-8.49-30.72-13.84-45.79-3.57-10-4.75-20.92-7.11-31.41a7,7,0,0,1,1-5.81c5-7.8,9.59-15.89,14.81-23.55,6-8.82,11.68-17.88,18.25-26.34,5.47-7.05,11-14,15.42-21.93,2.15-3.87,7.23-5,11-6.09,12.41-3.62,23.93-9.4,36.11-13.5,16.06-5.4,31.85-11.56,47.85-17.12,2.09-.72,3.73-2.08,5.75-2.71a2.1,2.1,0,0,0,1.48-2.64,2,2,0,0,0-2.55-1.64c-2.6.36-5.25.29-7.88.46-13.19.86-26.21,3.21-39.34,4.59-13.3,1.39-26.71,1.71-39.92,4-2.83.48-5.6-1.47-8.4,0l2.1-1Q580.46,87.41,571,63c-4.7-12.08-9.26-24.23-14.24-36.2-3.24-7.8-6-15.83-10.39-23.15-1.16-2-2.7-3-4.74-2.52-2.49.62-1.78,2.58-1.71,4.65.4,13.14,4.53,25.58,7.07,38.29,3.24,16.24,6.55,32.43,9,48.82,1.32,8.77,3,17.59,5,26.29,2,8.49-1.23,15.57-6.3,22-12.51,15.92-25.84,31.14-39.34,46.23-1.65,1.84-3,4-4.67,6.35-11.64-10.18-23.62-19.28-34.22-30-3.92-4-7.74-8.11-12.13-11.48-7.05-5.42-8.87-13.36-10.87-21.11-3.13-12.17-5.7-24.48-8.48-36.73-1.26-5.59-2.61-11.17-3.6-16.81-.38-2.18-1.28-3.94-3.24-4.07-3-.2-1.95,2.47-2.06,4.08-.91,13.16,0,26.27,1,39.38.35,4.37,1,8.74,1,13.12.07,10.21,2.62,20.2,2.24,30.45-.18,4.78,2.38,8.69,5.68,12.08,10.17,10.48,20.19,21.11,30.53,31.42,2.64,2.62,5.5,4.87,7.94,7.84,6.52,8,7.18,17.35,8.4,26.87.83,6.39,3.15,12.59,4.56,18.92,3.06,13.81,5.91,27.66,9,41.47,3.42,15.41,7.06,30.78,10.38,46.22a26.7,26.7,0,0,0,1.76,4.67c2.68,6.58.37,12.72-2.9,17.76-6.63,10.22-9.68,22.17-16.59,32.16-1,1.48-1.68,3.2-2.67,4.7-1.29,2-3,2.51-4.68.52-7.6-9-17.35-15.94-25.13-24.73-15.29-17.25-32.11-33-47.9-49.77-2.13-2.25-2.87-5.77-6.6-6.39,2.56-7.41,1-14.52.7-21.46-.94-20.32-2.72-40.6-4-60.91-.42-6.61-4.79-10.62-9-14.65-9.68-9.24-19.38-18.41-27.85-28.86a187.47,187.47,0,0,0-32.57-31.43c-1.13-.85-3-2.87-5.16-1.18l-1.05-2.1c1.2,8.88,6.75,15.72,11.09,23.06,6.66,11.3,14.31,22,20.46,33.62,3.12,5.89,7.82,10.77,11.72,16.14,4.44,6.1,5.63,12.48,6.16,19.58,1.1,14.88.33,29.75.46,44.63.08,8.75.46,17.5.45,26.25,0,3.68,1.9,6,4.25,8.41,8.37,8.45,16.56,17.07,24.16,26.24,1.59,1.91,3.15,3.85,4.73,5.77l-1.58-1.05c-3,2.52-6.59.86-9.41.31-13.79-2.7-27.6-5.15-41.5-7.23a138.79,138.79,0,0,1-23.57-5.36c-5.52-1.86-9.24-7.06-13.7-10.84-11.06-9.38-22-18.85-32.67-28.75-1.84-1.71-4.76-3.72-8.07-.9,2.27,6.3,6.84,11.36,10.31,17.05,8.06,13.2,18,25.07,26.65,37.88,5.8,8.64,14.71,10.55,23.72,12.51,15.69,3.4,31.33,6.82,46.79,11.31,14.09,4.1,28,9,42.44,11.89,4.25.85,7.48,3.4,10.07,7.23,11.18,16.57,22.93,32.78,33.88,49.51,3.11,4.76,5.2,10.27,9.15,14.53,1.15,1.25,1,2.44,1,3.74,0,12.25-.08,24.5,0,36.75.15,16.14-2.07,32.21-1.91,48.29.17,17.39-2.15,34.63-1.78,52,.09,4.22-2.18,8.33-.36,12.74-15.15,11.57-28.25,25.52-43.89,36.4,1.45,2.2,3.5,1.78,5.39,1.78q78.23,0,156.45,0c1.58,0,3.16-.26,5.6-.47-3.89-4.95-8.41-8.28-12.95-11.58-10.14-7.37-20.18-14.89-30.5-22-5.46-3.75-5.83-9.35-6.13-14.78-.58-10.3,0-20.67-.77-31-.65-9.11-.93-18.26-1.14-27.32-.27-11.56-1.59-23.06-1.6-34.64,0-3.5.52-7,.28-10.51-1.27-19-.17-38.16-1.52-57.23-.57-8,2.11-16.1.86-24.12-1.7-10.92,1.62-20.46,6.31-30a189.55,189.55,0,0,0,9.4-22.58,25.16,25.16,0,0,1,9.14-12.44c9.37-6.83,19.18-13.05,28.78-19.55a2.27,2.27,0,0,1,2.66,0c9.42,4.41,19.93,5.95,29.3,10.2,16.3,7.4,33.61,12.39,49.39,20.89,6.36,3.42,12.5,1.62,18.38-.19,19.9-6.12,39.71-12.51,59.85-17.86,6-1.6,11.46-5.17,17.42-7,2.53-.79,2.61-2.15,3.22-3.95-2.36-1.78-5.19-1.33-7.45-.84-8.68,1.91-17.73,1-26.24,3.18-9.55,2.47-19.35,2.94-28.94,5a137.92,137.92,0,0,1-22,2.55c-2.22.1-4.52-2.29-6.82-3.47-9.15-4.65-18.64-8.62-27.73-13.31-10-5.12-20.56-8.55-30.53-13.5-1.76-.87-3.4-1.51-5.26-.49Z"/>
    <path class="treeNear" d="M855.18,387.54a17.51,17.51,0,0,0,3.91-.93c6.9-2.29,12.78-6.7,19-10,9.51-5.12,19.4-9.87,28.38-16.05,10.29-7.09,21.56-12.93,30.28-22.09,13-13.68,24.59-28.63,37.37-42.55,7-7.66,15-14.78,20.81-23.21,8.64-12.46,18.51-23.74,28.45-35,1.33-1.5,2.83-4.5,5.39-2.15,2.11,2-.21,4-1,6a13.46,13.46,0,0,1-1.08,1.66c-9.82,15.35-20.52,30.17-28.12,46.86l-2.2,3.3c0,.19.07.41,0,.55-5.81,9.86-11.63,19.71-17.61,29.84,4.4,2.13,8.78,1.15,12.63.81,10.29-.93,20.57-1.87,30.9-1.94,7.23-.06,13.78-.61,20.57-4.7,10.89-6.55,22-12.7,32.35-20.14,12.84-9.22,25.65-18.49,38.67-27.44,1.74-1.2,4.46-3.52,7.06-.7a4.71,4.71,0,0,1-1,3.38c-4.15,5.53-9.92,9.23-15,13.69-17,15-34.17,29.78-51.23,44.7-12.33,10.79-25.65,19.42-42.44,21.58a198.76,198.76,0,0,0-21.5,4.37c-10.27,2.49-20.39,5.54-30.87,7.15-7.1,1.09-14.07,2.35-19.37,8.17-4.63,5.08-9.83,9.64-14.82,14.39-10.08,9.59-20.24,19.12-30.52,28.44-11.76,10.66-21.58,23.44-35,32.25-4.9,3.2-6.07,7.69-5.24,13.77.93,6.86.8,13.93,1.21,20.92.82,13.75.94,27.55,1.22,41.34.43,20.76,1.1,41.52,1,62.29-.06,13.28,2,26.43,1.78,39.69a14.59,14.59,0,0,0,6.67,12.59c7.89,5.43,16.08,10.42,24.2,15.51,7.13,4.47,14.33,8.83,21.49,13.24h-1.1c-2,.18-4,.53-6.06.53-55.86,0-111.72,0-167.58.13-3.19,0-9.66-.27-9.66-.27,14.38-10.59,32.36-21.91,46.15-33.34,3.14-2.61,4.39-5,4.38-8.94,0-9.23,2.82-18.16,2.48-27.58-.2-5.49.89-11.41,1.86-17.07,1.41-8.25.38-16.56.37-24.81,0-7.41,2-14.65,1.27-22-.15-1.66-.91-3.48-.46-4.94,3.18-10.28,1.77-21,2.92-31.48a270.17,270.17,0,0,0,1.54-33.59c-.13-9,.92-18,1.54-27a12.93,12.93,0,0,0-3.34-9.92c-3.29-3.69-7-7.05-9.83-11.09-6.34-9.2-14.08-17.13-21.59-25.29-6.78-7.37-14.58-14-20.12-22.24-5.83-8.63-13.55-14-22.33-18.54-10.27-5.31-21.49-8-32.56-10.87-9.9-2.53-19.41-6.14-29.12-9.17-9.32-2.9-19.12-5.52-26.44-12.57-6.92-6.67-13.14-14.06-20-20.84-7.86-7.83-14-17.11-21.89-25-7-7-13-14.91-19.36-22.52-.77-.94-1.86-2.22-.63-3.84,1.59-2.07,3.06-.72,4.42.07a26.49,26.49,0,0,1,3.33,2.71c8.82,7.17,17.68,14.29,26.45,21.51,7.95,6.55,16.22,12.8,23.58,20,5.78,5.61,12.62,8.13,20,9.71,10.78,2.31,21.81,3.56,32.48,6.27,14.68,3.74,29.81,5.65,44.14,10.86,9,3.28,17.74,6.93,23.67,14.94,5,6.77,11.28,12.19,17.58,17.72,9.45,8.32,18.82,16.81,27.07,26.38,4.84,5.62,9.09,11.78,15.09,17.17,5-9.23,8.49-18.56,12.64-27.6,5.23-11.42,9.07-23.36,14.17-34.8.88-2,2.43-4.11,0-6-4.39-3.51-8-7.84-12.18-11.53-12.42-10.95-25.57-21-38.06-31.94-13-11.29-25.92-22.49-38.16-34.61-6.24-6.17-12.26-12.79-19.6-17.91-5.73-4-12.19-6.51-18.27-9.78-9.34-5-19.25-8.85-28.76-13.6-11.36-5.68-23.51-9.88-35.17-15.09-1.93-.86-3.4-1.59-3.23-4.83a374.33,374.33,0,0,1,71.06,13.23c0-10.66.63-21.18-.13-31.61-1.43-19.65-3.52-39.28-3-59,.18-6.4.19-13.08,2.56-19.3l.55-1.66c3,9.53,3.77,19.46,5.59,29.21,2.58,13.85,6.58,27.39,8.88,41.33,1.91,11.5,5,22.8,7.57,34.2.48,2.18.84,4.4,1.1,6.62.86,7.29,6.16,11.63,11.11,15.9,7.79,6.72,15.6,13.39,23.22,20.33,11.56,10.52,25,18.63,38.39,26.71,6,3.64,11.38,8.45,17.18,12.53,2.34,1.64,4.36,4.12,7.88,3.9.37-3.76-1.39-7.15-2.54-10.42-5.19-14.81-11.63-29.22-16.12-44.23-2.83-9.44-6.73-18.63-8.31-28.53a10.09,10.09,0,0,1,.39-5c2.6-7.95,5.66-15.76,8.15-23.74,4.4-14.1,8.49-28.29,12.73-42.43,1.82-6.07,3.85-12.08,5.46-18.21,2-7.74,5.16-15.65,2.68-23.65-3.94-12.7-6.18-25.75-9.18-38.64-1.23-5.29-1.4-10.81-3.29-16-.25-.7.65-1.81,1-2.73V18.75c-.6,4.69,3.75,7.09,5.07,11,3.25,9.63,9.06,18.05,13.72,27,5.49,10.58,11.35,21,17,31.45,2.64,4.87.79,9.89-.71,14.27-6.49,18.91-9.57,38.6-14.32,57.9-1.13,4.6-1.63,9.29-3,13.87-2.39,8.06,0,15.81,3.71,23.1,6.49,12.7,11.34,26.12,17.2,39.09,3.77,8.36,7.67,16.62,10.14,25.5,6.68-1.63,11-6.4,15.63-10.57,14.15-12.66,28.14-25.5,41.28-39.2,3.33-3.47,7-6.83,8.9-11.51l1.65-1.1a3.18,3.18,0,0,1-.56.54c-.14.08-.5.07-.52,0-1.59-4,.44-8.1-.06-12.11-1.17-9.21-.07-18.38.08-27.57.17-10.11,1.24-20.23.86-30.31-.23-6.37.56-12.11,3.51-17.65,8.53-16,14.44-33.19,22.21-49.53,2.76-5.82,4.46-12.6,10.51-17.19,1.44,4.43.82,8.2-.11,12.17-1.93,8.2-3.37,16.52-5.06,24.78-2.17,10.67-4.4,21.32-6.6,32A71.4,71.4,0,0,0,955,135.06c1.17,14.16,2.64,28.29,3.77,42.45.42,5.31.62,5.49,6.12,5,12.12-1.05,23.84-4.34,35.83-6.11,11.2-1.66,22.46-3.07,33.6-5.1,3.63-.66,8.83-.21,9.83-5.4.9-4.63,3.66-8.38,5-12.68,5-16.23,11.92-31.64,19.41-46.82,1-1.93,1.46-4.41,4.39-4.42,1.32,1.12.93,2.29.65,3.88-2.41,14.18-6.49,28-9.82,41.92-3.18,13.34-6.1,26.7-10.67,39.64-.59,1.69-1.1,4.44-2.74,4.24-5.23-.64-9.6,2-14.33,3-11.65,2.64-23.4,5.1-34.69,8.9-12.39,4.17-25.11,7-37.65,10.47-5.49,1.5-10,2.83-13.09,7.57-1.79,2.78-4.31,5.06-6,7.76-15.71,25.34-35,48.06-53.38,71.32-8.94,11.31-14.28,23.6-19,36.66-5.18,14.5-10,29.12-15.62,43.47-1.34,3.45-.4,8.8-5.88,10Z"/>
</svg>
