<svg class="nasAlbum" 
    xmlns="http://www.w3.org/2000/svg" viewBox="0 0 1127 1127">
    <title>Nas album</title>
    <rect class="frame" x="1" y="1" width="1125" height="1125"/>
    <path class="street" d="M2,722.87v401.88H1124.75V718.43C947.61,717.89,191.14,718.53,2,722.87Z"/>
    <g class="buildingRearFront">
        <path d="M658.5,534.5c-2-4.22-7.14-3.6-9.79-6.55C632,536.2,615.53,544.39,599,552.47c-4.09,2-6.4,4.33-6.14,9.54.69,13.64.38,27.33.49,41,.21,27.83-1.14,55.66-1.59,83.5-.19,11.65-.51,23.33-.75,35,0,2.18.22,4.38-.71,6.55,13.52,4.35,26.84,8.72,40.24,12.86A23.11,23.11,0,0,1,635,743c2.76,1.56,5.36,1.63,8-.44a52.92,52.92,0,0,1,6-3.55Z"/>
        <path d="M435.5,558.5c1.33-.83,2.62-1.77,4-2.48,2.07-1,3.62-4.58,5.37-3.77,3,1.39,6.61,1.7,9.13,4.24,4.26,4.28,10.37,4.58,15.54,6.9,6.47,2.89,12.32,7.15,19.44,8.66,3.27.7,4.22,3.44,4,6.45-1.35,17.31-.8,34.67-1.38,52-.78,23.16-1.38,46.34.33,69.51.53,7.29,0,14.66.1,22,0,2.22-1,3.06-3,4.09-12.1,6.49-24.19,13-36,20-5.85,3.48-11,4.53-16.61,0-1.33-1.08-3.28-1.39-4.95-2.06Z"/>
    </g>
    <g class="buildingRearSide">
        <path d="M718.5,526c-13.69-.55-27.36.69-41,1.36-9.63.47-19.54-.9-29.52,2.39v2.75c0,16.17.07,32.33,0,48.5-.12,21.18-2,42.3-2.28,63.5-.13,9.13,0,18.36-.77,27.49-1.34,15.82-.17,31.77-2.16,47.48-1,8,.7,16.12-2.54,24.73,16.27-1,31.26.86,46.29-1.08,5.73-.74,11.65-.09,17.48-.13,1.84,0,3.73.35,5.5-.49Z"/>
        <path d="M403.5,750c13.67-.41,27.41,1.08,41.64-1.44-.19-65.39-2.83-130.73.38-196.56h-44Z"/>
    </g>
    <g class="buildingMiddleFront">
        <path d="M792.5,406c-3.48-1.51-6.25-4.18-9.34-6.24a5.48,5.48,0,0,0-7.06.36c-10.67,8.56-22.68,15-34.19,22.24-14,8.78-27.4,18.61-41.88,26.7a4.79,4.79,0,0,0-2,2.94c.33,1.17,1,2.34,1,3.5-.46,14.52,1.48,29,.9,43.49-1.6,39.84-.11,79.68-1.05,119.51-.23,9.48.08,19.08-1,28.48-1,8.88.13,17.75-.92,26.5-1.22,10.19,0,20.42-1.08,30.5-.81,7.38-.26,14.7-.84,22-.82,10.51-2,21-2.92,31.5a23.66,23.66,0,0,0,.26,3.77c20.27,7,40.27,14.53,60.71,20.73,4.34,1.31,8.45,4.06,13,3.84,5-.24,8.62-4.28,13-6.33.82-.38,1.67-.68,2.5-1Z"/>
        <path d="M344.5,395c4.25-.86,6.54-4.39,9-7.08,20.78,12,41.38,23.27,62.25,34.08a12.65,12.65,0,0,1,.23,3.5c-.6,9.37-1.44,18.72-2.89,28-.57,3.61-.69,7.36-.9,11-.61,10.67-1.93,21.28-2.39,32-.74,17.34-1.69,34.7-3,52s-1.28,34.68-1.92,52c-.91,24.5-.8,49-.87,73.5,0,10,.83,20,1.21,30,.54,14.17,1.11,28.36,2.1,42.49.5,7-.59,14.14,1.61,21,.79,2.48-1.56,3.53-3.42,4.46C390.68,779.42,377,788.9,362,796c-2.78,1.32-5.2,3.22-7.89,4.69-6,3.3-10.05.72-14.1-3.17Z"/>
    </g>
    <g class="buildingMiddleSide">
        <path d="M878.5,398H781.42c-1.28,4.4.76,8.12.66,12-.25,9.66.15,19.34-.13,29-.45,15.19,1.77,30.37.85,45.49-1.06,17.19.23,34.39-1,51.49-.93,12.87-.39,25.69-.78,38.52-.52,16.86-1.46,33.7-3,50.5-.54,6-.55,12-.77,18-.37,9.83-1.23,19.64-1.47,29.49-.31,12.66-1.27,25.33-2,38-.6,10.5-1.9,21-2.93,31.5-1,10.66-2,21.33-3.06,32-.34,3.55-.67,7-.88,10.95,32.23.64,63.89-1.72,95.56-.93Z"/>
        <path d="M320.5,803.5h30c-2.06-9-1-17-2.05-25A13.2,13.2,0,0,1,348,776c.68-9.21-.65-18.35-1.18-27.49-1.16-19.84,0-39.71-1-59.5-1.7-33-1.09-66-.53-99,.33-19.34-.26-38.71.89-58,.5-8.52.2-17,.86-25.5,1.21-15.49,1.44-31,2.08-46.5.66-16.17,1.25-32.35,2.17-48.49.38-6.61-.66-13.51,1.62-20,.29-.84-.27-2-.44-3-3.46-.9-7-.37-10.5-.47-7.17-.2-14.33-.34-21.5-.51Z"/>
    </g>
    <g class="buildingNearFront">
        <path d="M982.5,158.5c-56-.5-57.07-.9-58-1.52-6.14-4.09-8-3.88-14,.48-9.15,6.59-17.26,14.43-25.88,21.64-10.84,9.06-21.79,18-33.2,26.24-3.74,2.72-3.92,5.86-3.2,9.12a41.4,41.4,0,0,1,.81,7c.73,14.35,1.36,28.71,3,43a10.28,10.28,0,0,1,0,2c-.75,12.36.68,24.68,1.2,37,.65,15.34,1.14,30.68,2,46,1.56,29,1.14,58,2,87,1.14,37,.83,74,.65,111-.12,23.83-.51,47.67-1,71.5-.4,18.16-1.35,36.32-2,54.49-.56,16.34-1.28,32.68-2,49-.73,15.84-2,31.67-3,47.5q-.92,14.76-2,29.5c-.26,3.32-.6,6.67-.92,10-.35,3.68,1.37,5.45,4.56,6.52,20.68,7,41.37,13.91,62,21.1,2.61.91,4.13,1,6.1-1.05,2.29-2.36,5.49-3.75,62.44-6.56Z"/>
        <path d="M253.5,261.5c2.65-.63,4.17-2.77,6-4.5,4.88-4.56,9.08-4.9,13.95-.45,5.87,5.37,13,8.68,19.54,13,14.19,9.3,28.84,17.88,42.58,27.9,3.32,2.42,6.48,5.52,11,6.18,1.68,5.3-.3,10.67-.84,15.88-.71,6.82-1.55,13.72-2.58,20.55-1.19,7.79-1.68,15.69-3,23.5-.56,3.27-.67,6.67-.94,10-1,12.5-2.5,24.95-3.32,37.48-.75,11.34-1.95,22.67-2.93,34q-1.54,18-3.13,36c-.52,5.86-.34,11.69-.79,17.52-1.12,14.31-1.44,28.66-2.16,43-.59,11.67-1.66,23.33-1.75,35-.21,26.33.26,52.67-.24,79-.19,10.18-.34,20.39.35,30.49,1,15.33,1.11,30.71,2.7,46,.75,7.28.55,14.66.94,22,.6,11.39,1.91,22.68,3,34,.71,7.16,1.3,14.34,2.05,21.5.44,4.23-3.73,5.48-6.47,6.87-10.93,5.56-21.52,11.76-31.84,18.28-10.51,6.63-22.16,11.35-32,18.93-4.75,3.66-8.82,2-13-.16-2-1.06-3.7-2.85-6-3.43Z"/>
    </g>
    <g class="buildingNearSide">
        <path d="M259.5,252c-24,0-48-.12-72,0-16.17.11-32.36.19-48.49,1.1-12.17.69-24.37.87-36.5,2-11.33,1-22.69,1-34,2-12.86,1.07-25.65,3-38.52,3.8-8.52.53-16.91,2.15-25.49,2.34-.83,0-1.66.07-2.5.13V857.72c62.33-1.24,124.67-.31,187-.86,22.33-.2,44.67-.08,67-.38.84,0,1.82.44,2.9-1,.84-4.2-.46-9-1.24-13.42s-1-8.84-1.36-13.09c-1.11-13.15-3-26.23-3.48-39.46-.41-10.33-1.22-20.68-2-31-1.15-15.83-1.12-31.69-2.06-47.5-1.38-23.19.14-46.36-1-69.5-.44-9.22.46-18.33.27-27.51-.54-25.67,1.1-51.32,1.2-77,.05-9.79.07-19.69.79-29.49,1-13.66,1.42-27.33,2.08-41,.64-13.5,1.37-27,2-40.5.55-11.84,1.1-23.69,2-35.5q1.13-15.5,2-31c.63-10.33,1.38-20.66,2-31,.65-10.83,1.24-21.68,2-32.5,1-14,2.31-28,2.81-42a9.94,9.94,0,0,0-.43-2Z"/>
        <path d="M1124.75,159h-1.25c-15.85.29-31.67-.87-47.49-1.33-10.33-.3-20.75.32-31-.83-11.7-1.32-23.42.17-35-1-12-1.23-24.08.17-36-1-15.85-1.53-31.68-.34-47.51-.87-2-.07-4-.32-6-.49l-.5.5c.19,11.24,2,22.34,2.83,33.51.67,8.5,1.39,17,2.31,25.47.87,8,1.08,16.1,2.75,24,.71,3.39.69,7,.94,10.49q1.21,17,2.39,34c.91,13.34,1,26.73,2.67,40,.76,5.93.27,12,1,18,1,8.43.29,17,1.28,25.47,1.61,13.67-.17,27.4,1,41,1.37,15.35-.14,30.72,1,46,1.64,22.51,1.26,45,.61,67.5-.63,21.35,0,42.69-.87,64q-.95,24-2,48c-.57,13-1.4,26-2,39-.56,11.84-1.35,23.67-2,35.5-.69,12.51-2.06,25-3,37.5-.55,7.33-.92,14.72-1.93,22-1.17,8.48-1.35,17-2.7,25.54-.71,4.54-.73,9.31-1.19,14-1.11,11.17-2.15,22.35-3.27,34.06,68.19-1.89,136.59-.85,205-1Z"/>
    </g>
    <path class="skin" d="M915,223.5V218H245s-41,202.5-40.93,286.5A16.86,16.86,0,0,1,201,515c-7,9.59-7.91,20.61-8.13,32-.11,5.82-.43,11.67-.29,17.5.25,10.5-.84,21,.56,31.48.13,1,.31,2,.35,3,.47,11.77,3.56,23.06,5.77,34.55,2.16,11.17,6.07,21.75,9.62,32.33,3.77,11.24,9.72,22,20.68,28.56,1.44.85,1.4,1.82,1.47,3.06.67,13.7,3,27.11,5.79,40.54s6.51,26.46,10.6,39.49a237.48,237.48,0,0,0,16.22,38.91c8.78,16.83,19.14,32.67,32.85,46.09,9.09,8.9,18.07,18,27.23,26.76,5.56,5.35,12,10,17.92,15.07a9.92,9.92,0,0,1,3.93,8.64c-.14,10-.07,20,0,30,0,6.47-.91,13.17-4.29,18.31-3.62,5.51-6.53,11.86-11.82,16.07-2.53,2-2.4,4.15-2.4,6.62v140.75H766q0-63.87,0-127.75c0-10.7-3.22-20.42-7.48-30a150.68,150.68,0,0,0-11-20c-4.66-7.31-5.73-15.59-6-24-.57-18.58,1.75-37,2.82-55.51.58-10,6.65-16.65,12.31-23.36a267.39,267.39,0,0,0,27.28-38.67c7.5-13,14.74-26.12,21.48-39.51a137,137,0,0,0,13.53-43.46c.26-2,2.33-3.31.24-6.13A65.16,65.16,0,0,0,838,715a38.08,38.08,0,0,0,19.43-10.54c9.82-9.62,18.93-19.94,25.05-32.44,4.82-9.84,9.74-19.61,13.78-29.88,3.66-9.3,9.14-17.94,14.35-26.54,3.64-6,4.5-12.19,4.5-19.06Q914.89,410,915,223.5Z"/>
    <g class="skinOverlapLine">
        <path d="M746.5,857c-7.64,7.68-14.31,12.07-22.78,18.78-7.82,6.19-15.82,12.18-24.37,17-10.12,5.65-20.62,10.74-30.87,16.23-5.78,3.1-12,5.23-17.57,8.91-3.54,2.35-7.87,3.56-11.92,5.11-8.73,3.34-16.61,8.51-25.48,11.56-9.87,3.39-20,6.58-29.32,10.88a148.35,148.35,0,0,1-30.73,9.9,192.69,192.69,0,0,1-24.93,4c-11,.93-22,2.57-33,2.48-16.75-.14-33.4-2-50-4.55a189.07,189.07,0,0,1-47.31-13.6C382,936.59,366.8,927.1,354,914.48c-3.24-3.19-7.82-4.66-10.52-8.48"/>
        <path d="M221,542.5c-1.35,10,.79,18,.4,28-.44,11.5-1.21,23.09-.15,34.48,1.21,13,1.32,26.08,3.16,39,1,7.1,1.1,14.32,1.59,21.49.64,9.4,2,18.71,3.5,28"/>
        <path d="M807.5,704c2.23,5.32,6.41,8.84,11,12"/>
    </g>
    <g class="shirt">
        <path d="M343.45,972.5c.42-5,.41-10,.54-15,.05-2.31.43-4-3.5-3.72-8.27.54-16.06,2.8-24,4.69a145.71,145.71,0,0,0-26.43,8.66C278.65,972.28,267,976.91,256,982.9c-13.26,7.19-26.36,14.69-39.29,22.37s-26.06,14.58-37.78,24.08c-7.14,5.79-15.72,9.71-22.9,15.62-11.33,9.32-22.44,18.88-33.56,28.44-14,12-25.11,26.33-34.67,41.75-2.06,3.33-4.49,6.44-6.85,9.59H430.6c-4.92-3.85-9.67-7.93-14.51-11.86-12-9.75-23.83-19.74-33.64-31.85a47.45,47.45,0,0,0-6.46-6c-13.09-11.1-22-25.68-31.23-39.68-8.13-12.26-9.88-26.4-4.79-40.84C342.47,987.4,342.84,979.9,343.45,972.5Z"/>
        <path d="M967.13,1072.36c-17.55-15.68-38.15-26.85-57.31-40.1-9.36-6.46-20.18-11.1-29.69-17.45-14.16-9.47-29.08-17.59-43.73-26.15a467.39,467.39,0,0,0-41.28-21.93c-11.47-5.24-22.65-11.1-34.6-15.28A12.24,12.24,0,0,1,757,949c-2.92-2.49-5.32-1.65-7.51,1,7.59,11.83,8.58,24.67,3.84,37.44A236.34,236.34,0,0,1,730,1033c-7.9,12.26-17.7,22.76-27.88,33.13-10.87,11.07-22.54,21.15-34.14,31.38-9.69,8.55-20.43,15.78-30.11,24.37a39,39,0,0,1-3.69,2.85H1029c-9-7.91-18.31-15.48-26.8-23.91C991.35,1090.11,978.32,1082.37,967.13,1072.36Z"/>
    </g>
    <path class="hair" d="M611,235.5A52.18,52.18,0,0,1,598,252a18.91,18.91,0,0,1-9.55,4.26c-6.41.83-12.83,2.53-19.49,1.34-2.85-.51-4.59-3.11-8-3.17a24.83,24.83,0,0,1-12,12.64c-11.22,5.43-23,.33-28.49-9.12-.55-1-.38-2.3-.55-3.47l-.5,3a36.19,36.19,0,0,1-4,5C502.34,274,486.91,275,471,270.85c-14.36-3.72-23.55-13-25.54-28.35l-1,1c-6.43,2.79-12.55,5.95-20,6.18-9.82.31-18.3-2.39-25.43-8.77-4.59-4.1-9.87-7.89-11.57-14.41a4.17,4.17,0,0,1,0-1l.5,4c-4.39,9.13-11.89,14.71-21,18.51-10,4.18-20.2,3.79-30.5,1.47-2.52-.57-5-1.4-7.36-2.08-3,2.27-2.15,5.79-3,8.63-5.16,16.74-17.41,32.84-37.61,37a10.26,10.26,0,0,1-2,0l-3,2c2.68,2.86,1.89,6,.48,9-4.94,10.68-9,12.86-21,11.56-.41,0-.91.71-1.74,1.41,4.7,9.19,3,18.24-2.23,27.05-5.42,9.16-12.25,16.69-22.63,20.87a28.51,28.51,0,0,1-11.48,39.37c5.38,8.58,8.51,16.83,8.14,26.25-.44,11.48-3,22.23-10.14,31.43-1.9,2.47-2.33,4.44-.92,7.08,3.93,7.33,4,15.6,5.41,23.51,1.9,11-.39,21.49-5.32,31.52-1.88,3.82-1.93,8.26-1.43,12.44.19,1.61.22,2.77-.65,4l.5,2c-.17-.5-.19-1.15-.52-1.48-5.53-5.36-11.66-9.41-19.45-11.17-6.12-1.39-8.82-5.45-9-10.85-.19-4.77,1.8-7.46,6.89-9.46l.61,2-2.5-2C195.09,507,193,505.07,191,503c-8.69-9.34-9.48-26.49-1.32-33.72-13.59-12.53-26.31-26-26.43-45.77-.1-17.49,2.16-34.95,17.13-47.95-9.35-7.53-16.93-16-15.64-28,1.18-11,4.53-21.79,16.14-27-5.11-9.38-9.1-18.47-10.39-28.54-.92-7.12.87-13.9,3.08-20.47,3.78-11.24,7.58-22.69,18.94-29,5.39-3,10.82-6.31,17.48-4l-1.5-1.5c-5.67-7.56-10.12-15.47-8.55-25.51.42-2.69,1.5-5.16,1.66-8a33.58,33.58,0,0,1,11.83-24.08,83.56,83.56,0,0,1,10.05-8c5.2-3.33,10.71-5.61,17-5.48,1.9,0,3.83.21,5.43-1-2.28-7.41-4-15.2-.3-22.39,6.59-12.68,17.58-19.2,31.87-20-1.19-33,36.64-68.52,76.05-50.08.55-12.33,5.55-22,18-24.82,10.72-2.42,21.34-1.43,30.5,7.95,6.58-17.2,15.74-30.58,35.45-32.75,16.14-1.77,31.26-.91,44.16,10.55a6.24,6.24,0,0,0,2.84-2.92c2.7-5.75,7.49-9.73,12.58-12.88,12.05-7.45,24.8-11.35,39.48-8.34C547.07,11.44,556.62,14.2,563,23.5l.5-1.5c6.73-8.45,16.06-10.49,26-9.36s19.35,4.44,24.26,14.12c6.88-5.36,13.74-10.21,21.31-11.42A45.9,45.9,0,0,1,670,24c8.17,5.92,12.08,14.36,15,23.54l.5,1c5.13-4.44,6.85-4.71,16.46-7.63,8.5-2.59,15.55-.22,22,4.71,5.43,4.17,9,9.81,9.52,16.92a2.56,2.56,0,0,0,1.06,2c30.88-11.71,66.15,5.09,66,45.11,17.11-5.94,32.79-1.58,46.9,8.05,15.93,10.89,18.08,28.32,18.87,46.44,11.62-4.23,21.58-.08,30.08,6.6,9.41,7.37,12.24,18,9.84,30.47,8.86-1.3,16,2.39,22.8,6.86,10,6.58,14.38,16.5,15.45,28,.91,9.87,0,19.44-4.71,28.61-1.4,2.72-1.85,6.16-3.73,8.88l-4.5.5c1.5.73,2.8-1.13,4.54-.06,5.66,3.5,13.86,3.25,16.89,10.59,4.41,10.64,5,20.43-5.43,28,2,2.71,5.58,2.38,8,4.44,11.07,9.23,14.25,21.45,13.37,35.06-.65,10.24-5.16,19.17-10.92,27.5l-2,1c2,2.79,5.45,3.13,8,5,6.33,4.49,7,10.7,5.35,16.51-.61,2.17.18,4.6-1.38,6.53s-3.13,3.91-5,6.31c15.15,9.1,20.55,22.94,19.52,39.69-1.07,17.26-8.36,30.72-25.29,38.8,7.61,6.33,12,13.82,8.79,23.69-3,9.19-7.54,17.17-18.66,19.81,5.21,4.73,9.41,8.52,12.27,13.66,4.35,7.81,3.61,15.72.83,23.51-4,11.13-11.34,19.15-22.87,23.14a20.73,20.73,0,0,1-9.49,1.09c-4.63-.7-3.44,2.2-2.93,3.76a22.31,22.31,0,0,1-.71,15c-4.7,12.62-13.59,21.18-26.42,25.49-.58.2-1.49.37-2.37-1.12,1.52-5.1,3.44-10.66,4.83-16.35,2.57-10.5,3.46-21.26,4.61-32,1.14-10.53.37-21.06-.33-31.49a85.59,85.59,0,0,0-3.46-19.6c-1.59-5.12-1.55-10.78-3.73-15.94-3.59-8.47-7.78-16.44-15-22.54a22.61,22.61,0,0,0-7.75-4c-3,5.82-5.47,12.19-11.31,16.06-4.86,3.22-9.17,7.6-15,8.87-3.25.7-4.13,2.89-4.9,5.16-3.14,9.23-9.66,14.14-19.07,15.45-3.75.52-6.67,3.34-10.5,3.53l-1,2c1.75-7.55,3.23-14.71-2.84-21.64-4.46-5.08-7.5-11.37-2.73-18.41.78-1.15-.56-2.4-1.41-3.46-7.13-8.89-9.48-18.62-5-29.49l-1,2c-5.73-3.1-11.31-6.13-16.14-10.86A51,51,0,0,1,769,441c-2.07-10.83-1-21.16,5.45-30.52.66-1,1.58-2.06.85-3.81a104.57,104.57,0,0,1-17.84-12.15C743,382.83,740.58,364,750,349a16.49,16.49,0,0,0,2.54-6.48C727.63,330,727.45,312.4,734.77,298A77,77,0,0,1,717,296.1c-9-1.89-16.64-5.66-21.34-13.68-1.62-2.78-3.36-6.25-1.64-9.92l-1.5,2c-5.41-.31-10.82-.4-16-2.46-8.79-3.48-13.37-10.21-15.56-19.36-4.38-1-8.52,1.36-12.92,1.45-14,.28-25.76-3.43-33.59-16.07-1.89-3.06-4.63-5.53-3.91-9.56Z"/>
</svg>
