<svg class="taiwanFridge"
    xmlns="http://www.w3.org/2000/svg" viewBox="0 0 981.47 1762.83">
    <title>Taiwan fridge</title>
    <path class="base" d="M920.86,1611.08v150.75h-861V1613.08Z"/>
    <path class="door" d="M848.86,22.08c-4.05.58-7.68-1.29-11.49-2-9.43-1.87-19.06-2.36-28.48-4.08-10.14-1.84-20.41-3.11-30.56-4C767.59,11,756.7,10.57,745.87,10,729,9.2,712.21,7.77,695.36,7.21c-9-.3-18-.73-27-1.14-20.84-1-41.67-2-62.51-3-5-.22-10,0-15,0-19.67-.08-39.34-.57-59-1.19C479.7.26,427.53,1.4,375.36,1.2c-19.49-.08-39,1.2-58.5,1.88-18.83.66-37.67,1.1-56.49,2.07C244.52,6,228.7,7.48,212.86,8.56c-13.66.93-27.32,1.83-41,2.49-29.33,1.42-57.35,7.78-82.94,22.62C79.74,39,72.44,46.9,66,55.16,51.48,73.69,43.92,95.31,38.71,118a328.61,328.61,0,0,0-6.29,38c-1.2,11-2.14,22-3.24,33-1.3,12.83-1.71,25.75-3.7,38.54-.75,4.74-.46,9.64-1,14.49-.87,8.28-.49,16.68-1.23,25-.94,10.66-1.48,21.32-2.06,32-.56,10.33-1.39,20.66-2,31-.63,10.67-1.42,21.32-2,32-.56,10.33-1.4,20.66-2,31-.61,10.5-1.16,21-2,31.5-1.72,21.15-1.79,42.35-3,63.5-1.14,20-1.06,40-2.73,60-.76,8.95-.7,18-.87,27-.26,13.51-.8,27-1.45,40.49-1.37,28.17-1.59,56.33-1.93,84.51-.2,16.66-.86,33.32-.88,50,0,30.17-.74,60.33-1.2,90.5-.49,32,.36,64,.43,96,0,24.82.67,49.66.82,74.5.15,22.83.23,45.68,1.07,68.49,1,26.84,2.08,53.67,3,80.51.61,17.83,1.43,35.66,1.95,53.5q1.1,36.51,3,73c.58,10.67,1.3,21.34,2,32q1.62,23.25,2.93,46.5c1,17.69,2.72,35.33,3.88,53,.88,13.32.94,26.71,2.18,40,1.09,11.66,1,23.4,2.75,35,.67,4.42.58,9,1,13.49,1.05,11.33,1.62,22.69,3,34,.57,4.62.53,9.32.95,14,1.43,15.82,1.65,31.8,4.26,47.47A112.51,112.51,0,0,0,63,1660c9.46,10.39,21.82,16.49,34.8,21.83,8.42,3.46,16.88,6.31,25.55,8.93a99.72,99.72,0,0,0,22.57,3.66c13,.84,26,1.86,39,2.33,10.83.39,21.65,1.39,32.5,2q17.25.91,34.49,2c12.67.83,25.33,1.4,38,2,10.84.5,21.73.08,32.48,1.06,8.05.73,16,.22,24,.8,32.47,2.37,65,1.12,97.5,2.2,33.51,1.12,67,1.1,100.5.47,23.84-.44,47.69.08,71.5-.82,19.17-.72,38.34-1.36,57.49-2.15,8.17-.34,16.39,0,24.51-.82,9.83-1,19.69-.39,29.5-1,10.83-.73,21.7-1.11,32.49-2,21.82-1.89,43.8-1.46,65.5-4.43,13.5-1.85,26.78-5,40-8.29a116,116,0,0,0,39.49-18.09c13.32-9.35,23-21.7,30.49-36,9.8-18.81,13.43-39.23,16.06-60,2.51-19.78,2.78-39.69,4.45-59.51,1.25-14.84,2.85-29.65,3.88-44.51.39-5.49.67-11,1-16.5.91-14.34,1.67-28.68,3-43,.51-5.63.85-11.35,1-17,.14-8.53.75-17,1.43-25.48,1.12-14,.94-28.07,2.63-42,.78-6.44.67-13,.84-19.5.27-10.17,1-20.34,1.44-30.48,1.12-24,2-48,2.94-72,.64-16.83,1.43-33.66,2-50.5.79-24.66,1.34-49.33,2.06-74,.43-14.67.55-29.33.92-44,.62-23.83.62-47.67,1-71.5.87-51.33.43-102.67.25-154-.08-19.83.13-39.67-.39-59.5-.45-17.33-.59-34.67-1.08-52-.42-14.67-.64-29.33-.93-44-.41-20.5-.86-41-2.14-61.49-.49-7.85-.35-15.69-.83-23.51-1.1-17.82-1.49-35.66-2.13-53.5-.58-16.16-1.42-32.32-2-48.5-.55-16.5-1.08-33-2.07-49.49-1.2-20-2.63-40-3.84-60-1.14-19-2.94-38-3.84-57-.56-12-1.36-24-2.11-36-1.2-19.5-2.3-39-3.52-58.5-.71-11.38-1.67-22.74-3.49-34-3-18.39-7.17-36.5-11.86-54.54a168.38,168.38,0,0,0-12.86-34.85,117.75,117.75,0,0,0-32.65-39.77c-12.55-9.73-26.89-14.75-41.62-19.36a35.77,35.77,0,0,1-3.51-1.48Z"/>
    <g class="chrome">
        <path d="M271.36,139.58c.6-.94,1.48-1,2.5-1,7.54-.28,14.94-1.73,22.49-2.15,11.54-.65,23-2.9,34.52-3.69,9.84-.68,19.61-1.92,29.49-2.31,18.36-.72,36.65-3.1,55-3.63,15.66-.45,31.33-.92,47-1.16,11.16-.17,22.33,0,33.49,0,29.71-.21,59.37.62,89,2.82,14.49,1.07,29,1.44,43.49,3.13,8.63,1,17.35,1.2,26,2.1,14.52,1.51,29,3,43.47,5.21,3.1.49,6.71-.55,9.53,1.75,0,0-4.83,3-9.46,3.4-3.73.34-7.83.89-11.57,1.26-6.43.62-13,1-19.44,1.58-9.84.91-19.73,1.21-29.55,2.54a117.17,117.17,0,0,1-15.48,1.17c-10.68,0-21.35.72-32,1.28-18,1-36,1.49-54,1.88-21,.46-42,1.68-63,.7-16.85-.78-33.69-.17-50.5-.94-12.67-.58-25.32-1.45-38-2-11.33-.5-22.68-1.23-34-2-11.84-.83-23.67-2-35.5-3-10.51-.9-21-2.09-31.51-2.86A28.64,28.64,0,0,1,271.36,139.58Z"/>
        <path d="M111.86,652.58c10.34,0,20.67-.13,31,.07,3.54.07,4.63-1,4.58-4.57-.19-13-.14-26-.06-39,.17-30.53,1.43-61,2.88-91.51.42-8.84,1.84-17.62,1-27.33-4.57-1.17-9.94-.94-15.35-.16Z"/>
    </g>
    <g class="brass">
        <path d="M8.36,1221.08c-3.82,3.7-5.7,8.16-5,13.5,1.26,9.26,3.08,10.89,12,11.51,13.51,1,27,1.74,40.5,3.08,8,.8,16,1.44,24,2,11,.82,22,1.42,33,2s22,1.4,33,2,22,1.27,33,2c20.82,1.36,41.63,2.47,62.5,3,20.5.54,41,1,61.49,2,31.51,1.65,63,1.22,94.51,1.93,34.67.79,69.34,1,104,.79,26.67-.15,53.34-.69,80-1.18,17.17-.32,34.35-.14,51.5-.86,18.17-.76,36.33-1.4,54.5-2,17.17-.62,34.33-1.34,51.5-2.06,9-.38,18-.19,27-.88,11.33-.88,22.66-1.42,34-2.06,11.66-.65,23.32-1.38,35-2,11.33-.6,22.66-1.39,34-2q17.25-.92,34.49-2c13.18-.82,26.33-2.07,39.51-3,8.66-.59,17.28-1.85,26-1.9,4.95,0,8.09-2.36,9.46-7a20,20,0,0,0-.11-11.94c-1.7-5.05-8-7.68-13.29-5.87a15.14,15.14,0,0,1-4.06.8c-11.33.7-22.69,1.06-34,2.11-9,.84-18,1.46-27,2-12.33.78-24.66,1.41-37,2-12,.61-24,1.4-36,2s-24,1.27-36,2c-13.34.84-26.69,1.21-40,2.08-9.53.63-19.08-.19-28.5.9s-19,.29-28.51.9c-17.82,1.16-35.69,1.15-53.49,2.2-16,.94-32-.16-48,.84-23,1.46-46-.05-69,1.08-25.35,1.26-50.7,1.25-76,.62-34-.86-68-.14-102-.94-20.83-.49-41.67-1.36-62.5-2-20.17-.63-40.32-1.5-60.5-2-12.67-.3-25.33-1.37-38-2-10.83-.54-21.65-1.44-32.5-2-12.17-.58-24.33-1.4-36.5-2-10.66-.57-21.35-1.18-32-2.05-9.5-.76-19-1.36-28.55-2.52-5.55-.68-11.29-1-17-1.35-9.68-.52-19.34-1.58-29-2.41Z"/>
        <path d="M122.86,686.58c-.58-7.16-1.6-14.27-1.57-21.5.06-10.67-.31-21.36-.18-32,.14-11.82.52-23.73,2.21-35.51a60.6,60.6,0,0,0,.51-10c-.26-10.3,2.16-20.32,3.14-30.49,1.92-19.84,8-38.93,11.45-58.5a31.69,31.69,0,0,1,2.12-6.93c1.75-4,.15-5.41-3.17-6.6-8-2.85-16.26-3.14-24.5-2.79-3.43.15-7,.12-10.55,1.14-6.61,1.88-10.15,6.12-12.49,12.16-4.71,12.14-7.54,24.77-9.92,37.52-1.4,7.45-2.73,14.95-3.47,22.5-1.28,13.14-1.62,26.38-3.21,39.47-1.55,12.82-2.26,25.68-2.7,38.52-.34,10.14,1.42,20.35,1.12,30.49-.18,6.32.2,22.19.32,24,.8,12.35,1.91,24.67,2.89,37,1.28,16,5.8,31.37,9.06,47,.39,1.87,1.53,3.56,2.13,5.45.43,1.32,2.39,2.12,4.14,2.93,8,3.7,16.46,2.92,24.69,3.41,4.09.25,8.47-1.38,12.44-2.9s5.15-6.79,4.08-12.89c-1.19-6.78-1.8-13.66-2.78-20.46s-1.38-13.4-2.6-20.06c-1.35-7.37-1.56-15-2.13-22.47-.45-6-.69-12-1-18Z"/>
        <path d="M477.36,105.58c-3.92,2.21-8.33.82-12.54,1.82-13.37,3.15-26.27,6.92-37,16.15-12.57,10.85-12.55,25.18,0,36.07,10.7,9.29,23.56,13.23,37,16a105.81,105.81,0,0,0,30,1.86c18.75-1.59,37-5,52-17.87,12.61-10.79,12.58-25.19,0-36-10.71-9.23-23.55-13.23-37-16-10.59-2.18-21.29-2-32-2Z"/>
    </g>
    <path class="brassLightLine" d="M127.86,493.08c-3.13,9.59-3.88,19.62-5.61,29.48-1.46,8.32-3.11,16.57-4,25-2,19.16-4.86,38.19-5.62,57.5-.45,11.5-.36,23-1.06,34.52a193.29,193.29,0,0,0,.11,30c1.26,13.18.29,26.36,1.78,39.57,1.64,14.44,2.89,29,4.5,43.44.55,4.93,2.54,9.69,3.87,14.52"/>
</svg>
