<svg class="towelRack"
    xmlns="http://www.w3.org/2000/svg" viewBox="0 0 1138 811.95">
    <title>towel rack</title>
    <path class="rack" d="M50.5,64.44c6.85.08,13.68.51,20.51.81,14.34.61,28.67,1.1,43,2.12,9.8.7,19.66.42,29.5.82,19.49.8,39,1.44,58.5,2.1s39,1.07,58.49,2.08c15,.78,30-.28,45,.9s30-.21,45,1c14.61,1.18,29.31.32,44,.93,31.47,1.3,63,.67,94.49.91,65,.49,130,1.52,195-.65,19.83-.67,39.66.57,59.51-.86,17.11-1.24,34.31.33,51.5-1,15.77-1.22,31.64-.06,47.5-.91,18.81-1,37.67-1,56.49-2.19,9.49-.61,19,.22,28.52-.9,9.08-1.07,18.31-.46,27.49-.89,16-.76,32-1.2,48-2.11,12.49-.72,25-1.55,37.5-2,15.34-.52,30.64-1.79,46-2.18v-29c-17,.07-34,1.77-51,2.26-6.47.19-13,.23-19.51.79-14.31,1.23-28.68,1.33-43,2.22-8.36.52-16.69.3-25,.74-21.32,1.1-42.66,1.47-64,2.16-20,.65-40,1.36-60,2-19.83.62-39.69.23-59.49,1-15.18.62-30.35.33-45.51.86-54.49,1.89-109,.58-163.5.91-31.67.19-63.34.46-95-.1-26.67-.47-53.35-.2-80-1.1-19.17-.65-38.37,0-57.51-1.31-12-.84-24,0-36-.5-22.66-.94-45.32-1.72-68-2.13-9.15-.17-18.33-.57-27.5-.87-21.5-.72-43-1.52-64.5-2.11-17.49-.49-35-1.5-52.49-2-8-.24-16-.79-24-.82Z"/>
    <g class="ball">
        <circle cx="34" cy="45.44" r="33"/>
        <circle cx="1104" cy="45.44" r="33"/>
    </g>
    <g class="band">
        <path d="M543,681.94c-1.28-15.8-2.81-31.64-1.83-47.49.46-7.53.74-15,.84-22.76H117.24c-.64,6.28.82,12.33.54,18.24-.61,13-.21,26-1.11,39-.26,3.82,1,8.51-2.17,12Z"/>
        <path d="M1014,683.94a338.76,338.76,0,0,1-1.81-53c.34-7,.66-14,.86-21.51H600.5c-5.52,0-5.51,0-5.5,5.5,0,16.67.37,33.35-.18,50-.22,6.65-.78,13.32-.82,20Z"/>
    </g>
    <g class="towel">
        <path d="M139,5.44c-6.86,1.39-14.12,1.14-20.46,4.57a8.52,8.52,0,0,0-4.68,7.42,227.61,227.61,0,0,0-1.07,28c.41,9.81-.77,19.71-1.3,29.52-.44,8.21-.88,16.63-.55,25,.32,8.17.7,16.27-.52,24.56-.62,4.25.21,9.25.1,13.93-.34,14.7-1.22,29.36-2.12,44-.33,5.45.31,11.31.07,17-1,23-1.09,46-1,69,.07,11.51.44,23,.26,34.5-.35,21,.1,42-1.09,63-.9,15.62-1.5,31.39.48,47,1.24,9.73.57,19.34.38,29-.22,10.36,1.43,20.7,1.2,31-.15,6.63,0,13.4-.88,20-1,7.55.87,15-.21,22.53-.29,2,.39,4.23-.07,6.5-1.77,8.77-1,17.67-.36,26.47a47,47,0,0,1-.32,9c-1.32,10.76,1.19,21.33,1.13,32A95.09,95.09,0,0,0,110.49,611c2,9.11,5.94,12.63,15,14,12.17,1.87,24.37,1.11,36.49.22,4.44-.32,8.57.91,13,.47a269.66,269.66,0,0,1,35.47-1.54c13,.43,26-.84,39,.17,7.77.61,15.66-.29,23.49-.33,6.53,0,13,0,19.54,1.3,5.66,1.14,11.6.64,17.47.3a108.28,108.28,0,0,1,24,.87c4.9.81,9.63-1,14.5-1.07,13.06-.3,25.92,2.37,39,2.23,9.91-.1,19.75,1.39,29.79.14,5-.62,10.43.44,15.71.24,24.33-.92,48.66-2,73-2.38,9.5-.15,18.93-1.77,28.52-.88,3.19.29,6.26-2.51,8-5.78a51.66,51.66,0,0,0,5.67-28.47c-1.32-15.35,0-30.7-1.48-46-1.81-18.58-1.74-37.33-1-56,.41-10.17.14-20.34.51-30.52.77-21.13,0-42.33.06-63.49,0-13.47-1.35-27,.4-40.54.64-5-.22-10.63-.9-16a106.77,106.77,0,0,1-.11-25c1.9-17,.56-34,1.43-51,.73-14.22.34-28.65.23-43s-.66-29,.55-43.51c.46-5.43-.5-11-.88-16.49-.57-8.33,1.65-16.74-.09-25-1.62-7.67-.67-15.37-1.22-23a97.59,97.59,0,0,1,1-21.46c1.33-8.73.38-17.36.33-26-.06-10-.27-20-.49-30-.18-8.3-9-16.66-18.49-17.49-18.65-1.66-37.16-4.6-56-4.78-10.11-.1-20.33-1.53-30.48-2.43-6.39-.56-12.66.33-19-.1-12.46-.84-25-.92-37.49-.59-13.09.34-26-2.85-39-1.87-8.35.62-16.71.27-25,1.16-2.93.31-6-1.06-9-.82-20.13,1.66-40-2.93-60-2.42-7.85.2-15.64-.59-23.51-.29-12.65.49-25.32.08-38,.37-7.49.18-15,.21-22.49.78-2.58.19-4.9-1-7.49-1.15-6.94-.33-13.58,2.42-20.51,1.63Z"/>
        <path d="M853.5,661.94c-12.72-.28-25.35,1.57-38,1.74-8,.1-16,.42-24,.33-10.66-.11-21.33.36-32,.41-16.83.08-33.67.15-50.5,0q-37.25-.34-74.5-1c-10.34-.18-20.66-.79-31-.92-6.92-.1-11.9,3.19-12.87,9a72.63,72.63,0,0,0-.56,15c.45,10.5.46,21,.76,31.49.25,8.49.47,17,.63,25.51.18,9,1.13,17.9.36,27-.85,9.91-1.13,20-1.29,30a32,32,0,0,1-1.12,8.82c3,1.64,6.28,1.76,9.59,1.67a69.16,69.16,0,0,0,10-.55c11.76-2,23.69-2.16,35.52-3.31,18-1.74,35.89-4.47,54-4.57,16-.1,31.76,2.39,47.5,4.94a187,187,0,0,0,53.51,1.06,33.31,33.31,0,0,1,10,0c7.23,1.33,14.48.2,21.49-.43,9.67-.86,19.38-1.05,29-2.11,32.07-3.53,64.28-3.48,96.49-3.64,7.83,0,15.58,1,23.53-.21,12.23-1.91,22.91-6.66,30.74-15.9,4.28-5,6.73-11.88,7.73-18.81a169.79,169.79,0,0,0,1.77-30.51c-.17-4.85-.52-10,1-15,.88-2.85-.24-6.28-.29-9.45-.21-12.16-.14-24.34-.61-36.49a37.1,37.1,0,0,0-4.92-17c-3.28-5.72-7.46-6.36-16.49-4.48a198,198,0,0,1-31.51,4.28c-10.5.45-21,1.77-31.49,1.6-15.69-.25-31.31,1.69-47,1.14-10.83-.39-21.67-.39-32.5-.53-.68,0-1.5-.34-2,.48Z"/>
        <path d="M593.52,624.37c4.84,1.73,9.55,3.66,15,3.68,21.17.08,42.35.19,63.49,1.07,8.71.36,17.34-.41,26-.27,17.67.29,35.34.78,53,.91,10,.08,20-.69,30-.18,8.2.42,16.37-.5,24.5,0,19.5,1.12,39,.9,58.51.84,11.5,0,23-.77,34.5-.91,14.33-.16,28.7.51,43-.23,9.39-.49,18.67,1.12,28,.22,10.81-1,21.64-1.75,32.49-2.3,3.26-.16,6.57-2,9.37-6,8.08-11.53,8.85-24.22,9.09-37.26.22-11.83,0-23.66.07-35.5,0-6.36.82-12.68,1.31-19,.38-4.92,1.19-10.08-.78-15a7.26,7.26,0,0,1,0-3,374.8,374.8,0,0,0-.12-38.51c-.69-14.26-.64-28.67-.21-43,.27-8.7-1.15-17.45,0-26,1.78-13,.83-26.06.9-39,0-9.24,1.23-18.74-1-28-.82-3.34.75-6.65.9-10,.2-4.82-.17-9.67.09-14.49,1.24-23.66,2.46-47.33,2.25-71-.1-11.68.53-23.33.31-35-.36-18.49.23-37-.21-55.49-.31-13-.3-26-.38-39-.06-11.83-.11-23.66,0-35.5.11-10.5-.64-21-.94-31.48A185.71,185.71,0,0,0,1020,17.44c-1.13-6.24-6.61-12-13.51-11.74-5.8.21-10.8-2.44-16.51-2.46-10,0-19.85-2-30-1.67-8.23.23-16.67-.19-25-.46a295.55,295.55,0,0,0-31.48,1c-6.69.5-13.31-.43-20,.22C872.66,3.33,861.73,3,851,5.3c-3.47.75-7.3-.18-11-.36-16.5-.78-33-1.24-49.48.2-9.38.82-18.69.61-28,.76-12.33.19-24.77-.93-37,.36-9.17,1-18.46-.79-27.6,2C694,9.4,689.31,7.76,685,8c-10.84.63-21.67,2.21-32.5,2.23-7.6,0-15,1.43-22.49,1.84-6.83.37-13.69.93-20.49,1.54-15,1.34-23.57,11-23.37,26.32.13,10.67-.14,21.34.06,32,.2,10.13.33,20.33-.19,30.5-.21,4,.43,8-.87,12-1.4,4.37.72,8.93,1,13.45.55,9.69-.06,19.34,0,29,0,9.5-1.89,19,.3,28.53.46,2-.25,4.31-.41,6.47-1.2,16.32-.64,32.68-1.2,49-.3,8.74,0,17.67.46,26.51.32,6.58-.74,13.35-.18,20,1.22,14.16.59,28.35.7,42.51.16,21.35,2,42.63,1.91,64-.05,9.46,2.32,18.95,1.73,28.49-.54,8.71,1,17.33.56,26-.42,8.51-1.36,17-1.39,25.5,0,11.67-1.21,23.32-.16,35,.56,6.3.48,12.66.55,19,.09,8.37.48,16.67,1.32,25,.89,8.91.15,18,.22,27,.05,7.88-1.24,15.71-1.24,23.5,0,5.08-2,10.6,1.22,15.5C590.5,618.94,590.85,623.42,593.52,624.37Z"/>
        <path d="M108.75,712.44c.75,14.5,1.33,29,2.31,43.5.71,10.52,1.77,21,3,31.5.93,8,4.22,11.17,14.45,11.84,12.79.83,25.62,1.79,38.49.72,14.82-1.24,29.66-2.15,44.5-3a229.44,229.44,0,0,1,26.48-.13c5.89.34,12.05-.24,18.13,1.77,4.27,1.41,9.51-.24,14.4.24,11.3,1.11,22.67,1.61,34,2.64,6.74.6,13.17,3.12,20,3.48,6.51.34,13,1.3,19.5,1.4,14.83.21,29.69-.46,44.49.23,12,.55,23.69-1.4,35.52-1.92,4.39-.2,8.93.56,13.49.34,12.33-.59,24.68-1.19,37-.92,7,.16,14.09-.42,21,1.31a11.36,11.36,0,0,0,4,.48c13.61-1.5,27,1.74,40.5,2a2,2,0,0,0,2.39-1.15c.81-6.47,2.32-13.64,2.45-20.84.17-9,.68-18,.94-27,.41-14.51-.73-29,.07-43.51.75-13.65.68-27.39-1.36-41a32.25,32.25,0,0,0-1-5.49c-2-6-4.78-7.81-11.46-7.5-9.5.44-19,.6-28.49,1.57-17,1.73-34,.46-51,.81-15,.32-30,.2-45-.51-18.36-.87-36.67-2.75-55-3.79a138.24,138.24,0,0,0-22.47.6c-3.29.36-6.34-.38-9.52-.26-9.66.35-19.36.91-29,.46-20.33-1-40.68-2.38-61-1.7-14.54.49-29-1.56-43.5-.08-15.07,1.54-30.08.58-45-.88-8-.78-15.69-1.64-23.55.69-4.31,1.27-6.61,3.77-7.51,8.07-1.71,8.09-1.81,16.29-2,24.5-.12,5.84.38,11.68-.4,17.52A23,23,0,0,0,108.75,712.44Z"/>
    </g>
</svg>
