<svg class="twinStreetlamp"
    xmlns="http://www.w3.org/2000/svg" viewBox="0 0 1441.75 3107.06">
    <path class="pole" d="M970.71,3069.54c-60.33-25.95-123.14-40.49-189-41.21-1.21-19.1-1.12-38.45-1-57.79.42-51.68-1.2-103.33-1.91-155-.57-42-1.14-84-1.34-126-.09-18.17-.42-36.69,1.16-55,.9-10.39-2-20.63-1.9-31,.42-31.66-1-63.34.91-95,1.67-27,1-54,1-81,0-47.33,1-94.69-.3-142-1.08-39.67-1.76-79.33-1.65-119,.09-32-.11-64,.54-96,.3-14.91-1.15-30.07-.34-45,1.91-35.38-.79-70.68-.31-106,.36-27.32-.11-54.66.16-82,.11-10.68,2.79-21.51,1.63-32-4.08-37-.32-74-1.71-111a17.65,17.65,0,0,1,0-5c3.81-14.55,1.8-29.36,1.79-44,0-19.33-1.13-38.66-1.86-58-.5-13.36,2.64-26.61,1-40-1.46-12.29-.54-24.68-1.14-37q-1.12-23-.86-46c.5-41.67,1.91-83.3-.59-125-1.25-20.85-1.57-41.91-.81-63,1.33-37,.28-74,.44-111,0-8,2.54-15.81,2-24-2.32-36.63-2.53-73.32-1.94-110,.38-23.7-1.85-47.35-1-71,1.32-38.34.17-76.68,1.09-115,.23-9.66.57-19.34.83-29.51H668.53c1.58,9.66-2,18.3-1.92,27.51.31,54.67-1.26,109.34-2.48,164-.69,30.67-1.26,61.35-1.21,92,0,24.33,3.41,48.75,1.46,73-2.41,29.78.52,59.36.54,89,0,30.34,3.5,60.73,2.37,91-1.54,41.67,2,83.42-2.38,125-.76,7.18,1.6,14.63,1.7,22,.18,13.33-.42,26.67-.66,40-.48,26-.28,52,.92,78,2,43,2.61,86-.14,129-.15,2.32,0,4.66,0,7,0,33.67.13,67.34,0,101-.2,41.34-1.59,82.7-.56,124,.51,20.36-.21,40.68.37,61,.85,29.64.22,59.33.22,89,0,30-.74,60,.17,90,1.49,49.67,1.29,99.34,2.12,149,.39,23.36.51,46.65.21,70-.4,31.29-1.23,62.64.21,94,1.32,28.63-1.64,57.34-2.24,86-.7,32.95-3,66.06,1.41,99,.56,4.22-.83,8.65-.84,13-.08,36,2.18,72,2.81,108,.24,13.65-1.6,27.32-1.76,41-.31,26.66-.69,53.35.1,80,.64,21.34.66,42.67.74,64,0,2.31,1.12,4.92-1.36,7.58-81.2,1.48-157.42,20.05-223.44,72.1,9.52,3.53,556.3,5.44,574,2.1-10.34-16.06-26.86-22.62-42.17-30.78Z"/>
    <path class="light" d="M1396.71,355.54c4.76,11.3,10.94,21.83,14.24,33.94,10.38,38,12.66,76.2,5.85,115.08-7,40-28.25,72-53.8,102.23-8.62,10.22-17.64,13.27-30.3,13-32.65-.71-65.32-.33-98-.14-5,0-8.94-.7-12-5.06-16.67-23.37-32.27-47.16-41.29-74.93-3.62-11.14-8.95-21.86-12.65-33.11-4.59-14-5.4-28.52-5.9-43-.92-26.64.82-53.05,7.75-79a172,172,0,0,1,17.82-42.15c3.89,1.55,7.63,1.18,11.32,1.18,58,0,116-.15,174,.29,4.81,0,10.82-5.1,15,1.71Z"/>
    <path class="light" d="M24.71,401.54c-4.81,19.77-4.2,39.91-4,60,.31,28.29,4.48,56.17,13.35,82.88,5.57,16.76,16.78,31.11,27.75,45,5.28,6.7,11,13,15.94,20,4.27,6.14,10.22,8.28,17.94,8.21q55-.56,110,0c7.13.06,12.84-1.12,17-7.16,7-10.13,14.93-19.63,20-31l4-6c6.2-13.1,11.14-26.85,17.38-39.81C276,509.06,279.71,483,279.31,456.55c-.37-24.45-2.06-49.11-8.6-73l-4-8c-.94-10.1-6.5-18.31-10.87-27.06-1.82-3.66-4.44-2.91-7.13-2.91q-97,0-194-.05c-4.3,0-5.84,1.42-8.51,5.71C38.29,364,34,377.88,28.71,391.54Z"/>
    <path class="arch" d="M819.71,418.54c6.2-6.46,11.34-14,19-19l6-4c12.37-9.68,27.15-12.63,42-11.7,26.58,1.68,44.54,17.09,53,40.72,4.54,12.73,4.29,12.82-6.94,21l-4,4a80.11,80.11,0,0,0-9.05,22c-1.79,7.27,2.69,18.58,9,23.05,17.79,12.58,34.6,7.13,47.93-9.11,13.6-16.56,16.17-37,13.56-56.85-2.88-21.85-10.36-43-28.46-58.08l-2-2c-13-11.86-27.64-20.92-45-25a116.66,116.66,0,0,0-58.06.77c-26.48,7.09-47.79,21.22-64.95,42.21-11.89,14.54-18.88,31.64-24.72,49.1-2.2,6.56-8.55,12-6.27,19.91l1-11c-1-4.33-2.65-8.63-2.89-13-1.36-24.66,0-49.38.49-74a814.93,814.93,0,0,1,12.91-131.1c4.38-24.14,11.18-47.41,22.11-68.6a190.54,190.54,0,0,1,49.38-61.32l5-5c5.87-4.18,11.25-9.13,18-12l6-4c3.47-1,6-4.3,10-4l10-6c2.67-1,5.37-1.92,8-3,26.91-11.17,55-18.21,84-18.7,27.82-.47,55.44,3.21,83,7.38,34.06,5.15,66,15.93,97,30.33l6,4c2.83,1,4.76,3.82,8,4l8,6c25.43,20.29,45.84,44.85,62,73,12.43,21.67,16.28,45.56,17.93,70h47c-8.56-65.89-38.3-119.82-85-165l-6-6c-6.83-3.19-11.7-9-17.87-13.19-32.34-22-69.18-32.56-106.16-42.69-18.9-5.17-38.42-6.54-57.9-8.7a345.38,345.38,0,0,0-84.95,1.46,304.62,304.62,0,0,0-89.21,26.93c-4.54,2.15-8.24,6.54-13.91,6.19l-8,6-14,8-10,8c-7.81,6.86-15.54,13.79-22,22l-4,4c-1.36,4.38-6.64,5.63-8,10l-4,4c-3.39,4.26-5.58,9.2-8,14l-4,6c-2.42,4.81-4.61,9.75-8,14l-6,10c-3.58,8.21-10.09,15-12,24l-6,12q-8.51,25-17,50h-2c-4.53-5.55-6.1-12.54-7.79-19-7.11-27.42-17.69-53.22-33.21-77l-4-6c-1.33-2.66-2.67-5.33-4-8l-6-8-12-16-6-6c-9.26-14.73-23.22-24.78-36-36l-8-6c-18.56-11.66-38.1-21.36-59-27.92a353.63,353.63,0,0,0-78-15.45,554.18,554.18,0,0,0-83-.22c-15.49,1.08-31.12,5-45.94,9.88-25.62,8.44-52,15-76.09,27.71-13.29,7-26.23,14.59-38,24l-4,4c-21.86,16.53-39,37.28-54,60l-4,4c-6.25,14.71-13.34,29-19.09,44-5.86,15.21-9,31-10.83,47-.53,4.71-2.15,9.11-2.38,14-.29,6.08.58,9.2,7.3,9.07,10-.2,20-.16,30,0,4.36.07,7-.85,7.06-6.05,0-37.6,14-70.25,35.94-100l4-4c8-12.49,19.17-22.11,30-32l8-6q17.11-10.67,35-20c26.82-14,55.71-21.42,85-28.13,20.83-4.79,41.95-5.8,63.05-6.6,18.07-.68,36,.2,54.13,4.12,16.84,3.64,32.35,10.6,48.86,14.65l8,4c10.88,2.79,19.7,10,30,14l8,6,20,16,6,6c6.12,5.31,13.17,9.78,16,18l4,4c3.43,7.65,11,13,12,22l6,10c14.92,32.44,20,67.55,26.68,102.07a386.15,386.15,0,0,1,6.79,73.93c0,30.32,1.06,60.75,4.33,91a100.64,100.64,0,0,1-.8,29v-5a5.07,5.07,0,0,1-4-4c-3.81-15.07-10-29.19-17-43l-10-14c-2.87-5.63-9.13-8.36-12-14l-4-4a19.81,19.81,0,0,1-8-8l-10-8c-19.79-11.54-40.83-18.75-64-19-48.22-.55-85.25,29.05-99.49,68.21-9.76,26.86-4.15,54.43,10.8,78.62,9.81,15.89,33.05,21.58,50.44,5.92,6.54-5.9,6.81-15.76,6.26-24.73a27.2,27.2,0,0,0-21-25c-2.85-5.53,0-10.71,1-16l4-6c9.72-28.41,46.78-46.66,77-31,26.44,13.73,46.21,33.78,59.26,60.85,4.62,9.59,8.2,19.74,13.16,28.9,11.31,20.9,15.12,43.56,18.29,66.27,3.36,24.12,4.45,48.57,4.52,72.45h83.78c0-7.5.15-14.5,0-21.49-.62-24.89.09-49.67,6.06-74,2.47-10,5.3-20,8-30l6-12c-.72-4.68,4.72-7.31,4-12l4-6c2.76-11.37,10.86-19.89,16-30Z"/>
    <path class="copper" d="M1318.71,648.54c12.66-1.68,25.68-.56,38-5,10.66-3.82,22.89-6,24.83-20.05,1-6.85-.12-13.9-5.88-18.93-3.11-2.72-6.45-4.31-11-2.13-21.1,10.13-43.81,6.2-66,7.08-19.38.76-38.55-2.88-58-2.43a56.12,56.12,0,0,1-28.2-7.18c-9.45,5.45-10.28,14.55-11.53,22.66-1.39,9.13,9.17,17.49,20.74,18,5,.21,10-.51,15,.82,4.51,1.18,9.36,1.09,15,1.65-6.38,11.44-6.19,21.67,1.83,31.63,2.4,3,4.77,5.47,8.17,6.83,18.29,7.32,36.16,8.27,53-4,7.93-5.77,9.7-18.45,4-28Z"/>
    <path class="copper" d="M1380.71,253.54c4.17,9.92,4.88,20.61,5.78,31,1.6,18.34,13,22.18,28.19,15.92,9.15-3.77,15.76-10.69,21-18.94v4c14.13,29.13-1.63,72.53-45,75.13-12.69.77-25.44-.23-38,1.13-14.36,1.56-28.67,1.72-43,1.74-29,0-58,.72-87-.29-14.66-.52-29.23,1.6-44.1-1.26-15.14-2.92-23.79-11-28.89-24.45-6.68-17.58-7.73-35.62-4-54l1,3c5.41,6.47,12.7,10.38,20,13.9,12.67,6.07,24.77,2,27.59-10a144.85,144.85,0,0,0,2.56-14.89c3.59-28.86,9.79-32.86,33.84-40.92,13.85-4.64,28.71-3.61,43-4.62,24.23-1.71,48.77-1.56,72.93,1.81,10.3,1.44,21.56,3.33,28,13.7Z"/>
    <path class="brass" d="M625.71,705.54c2.76,34.44,7.2,68.18,33.87,94.14,4.56,4.44,9.1,6,15.13,5.94,28.33-.17,56.68-.65,85,.21,11.15.34,19.08-3.69,26-11.31,20.87-23,31.31-50.78,35.85-81,.72-4.81-1.38-9.92-.66-15.48H625.26c-1.62,1.84-.37,4.17.45,6.5Z"/>
    <path class="copper" d="M651.71,793.54c-7,10.12-3.74,20.75-.67,30.9.88,2.92,5.39,4.7,9.65,5.24,26.3,3.34,52.68,1.4,79,1.64,2.65,0,5.17-.41,8,0,11.72,1.9,23.56-.41,34.89-2.3,15.19-2.54,21.45-23.7,11.08-37.52-13.32,4.34-26.52,6.93-41,6.6-15.9-.36-32,.12-48,.28-17.52.17-35.33,1.82-52-5.89Z"/>
    <path class="copper" d="M288.71,293.54c-9.89,5.79-18.88,12.94-32.11,8.31-9.6-3.36-12.23-9.45-13-18.3-.9-10.61-1.75-21.28-6.9-31-6.83-12.9-19.79-16.49-32.08-18.63-24.76-4.3-49.88-3.07-75-1.51-14.35.9-28.77-.16-43,3.07-15.86,3.59-24.92,13.1-28.15,29C57,272.17,57,280,54.88,287.59c-4.12,15.08-17.08,20.18-33.07,11.76-6.19-3.25-12.39-7.52-14.69-15.58-12.13,22.76-5,53.59,10.39,67,7.31,6.39,15.9,9.18,24.27,10.26,10.15,1.31,20.47,2.71,30.93,2.73,27.66.06,55.36.4,83,.35,33.32-.05,66.76,1.2,100-1,26.59-1.77,38-17.29,40.92-44.57,1-8.92,2.12-18,.18-27-.43-2,.51-4.61-3.06-3.95-.39.07-.75.59-1,1s0,.65,0,1Z"/>
    <path class="brass" d="M791.71,605.54c17.34,2.26,25,10.84,25,28,0,11.49-.07,22.8-3.62,34.12-1.73,5.49-4.09,5.91-8.38,5.91q-82-.06-164,0c-4.29,0-6.32-.72-8.42-5.86-5.56-13.63-8.09-27-3.55-41.16,4-12.53,14.5-17.92,26-18.66,19.59-1.27,39.29-1.72,59-1.87,14.63-.11,29.32.66,44-.1,10.87-.56,22-1.77,33,.62Z"/>
    <path class="copper" d="M102.71,611.54c-11.81.49-22.09-3.31-31.58-11.75-5.28,9.53-13.07,16.83-8.88,29.9,3.13,9.78,10.1,12.15,17.51,14.71,11.25,3.88,22.84,6.71,36.5,4.66-4.17,11.28-4.47,20.41,3.21,28.71,1.66,1.8,2.36,3.73,5.16,5,16.55,7.19,33.17,8.27,50.07,1.8,15.59-6,19.92-18.19,13-36,1.63-1.74,3.39-3.24,6-3,11.42,1.11,22.17-2.09,33-4.94,8.48-2.23,12.77-7.85,13.92-16.07.92-6.52-4.87-18.42-10-20.95-2.2-1.09-4.73-2.21-7,0-9.74,9.52-23.1,7.43-34,7.27-28.37-.44-56.68,1.4-85,.71Z"/>
    <path class="copper" d="M825.71,674.54c-7.11-12.59-18.44-15.39-32-15.15-29,.5-58-.19-87,.26-25.33.38-50.7-.29-76,1.75a13.26,13.26,0,0,0-8,3.18c-8.8,7.44-12.83,26.33-8,37,3.69,8.19,9.24,12.31,19,12.19,38-.47,76,.73,114-.57,20.67-.7,41.36.18,62-1.5,16.61-1.34,24.38-10.73,20.93-27.11-.58-2.76-1.94-5.35-2.94-8Z"/>
</svg>
