<svg class="vanNuysPlant"
    xmlns="http://www.w3.org/2000/svg" viewBox="0 0 1556 785.17">
    <path class="leavesLeft" d="M710.42,126.58a117.86,117.86,0,0,0-25-20c-12.35-7.21-25-13.77-38.53-18.45a133.65,133.65,0,0,0-46-5.87c-10.54.63-21,2.09-31.51,3.41-4.37.54-8.66,1.7-13,2.43-10.42,1.76-19.14,7.32-28,12.58-2.74,1.64-6.11,1.74-8.07,4.17C510,94.64,501.45,83.25,489.85,75.17q-20.58-14.34-42-27.46c-6.55-4-14-6-21.91-6.75-5.73-.54-11.35-2.2-17-3.38-11.39-2.39-23-3.79-34.47-2.25-12.85,1.74-26.08,1-38.56,5.68-10.43,4-21.41,6.92-30.36,13.72-8,6-16.86,10.42-25.26,15.62a61.58,61.58,0,0,0-18.76,17.29c-8,11.52-16.25,22.84-22.69,35.39-3.78,7.36-7,15.12-12.47,21.5-1.75,2.05-.89,4.5-1.85,6.4a59.21,59.21,0,0,0-30.05,2.25c-7.94,2.66-16.1,4.82-23.54,8.88-15.65,8.53-31,17.22-43.18,30.85-9.08,10.12-17.19,20.88-25.19,31.76-4.56,6.19-6.11,13.86-7.68,21.4-3.75,18-3.24,36.3-2.73,54.5.16,5.38,3.58,10.42,5.71,15.54.66,1.57,2,3,1.45,5.4-7.44,3.28-15.21,6.56-22.84,10.13a30.87,30.87,0,0,0-7.49,5C56.37,348,43.64,359.3,31.51,371.18c-8.37,8.19-11.77,19.51-16.63,29.88A176.08,176.08,0,0,0,2.49,438.59c-1.93,8.9-1.73,17.85-.83,27,1.1,11.15,4.38,21.84,5.42,33,.64,6.8,4.59,12.85,7.52,18.93,4.54,9.4,9.14,19,17.3,26-6.29,7.33-8.93,16.32-12,25.1-2.26,6.5-2.4,13.37-2.79,20-1,16.47-2.12,33-1,49.48.59,8.89,2.71,17.7,4.36,26.5,3.77,20,14.94,35.78,28.33,50.64s29.13,26,46.71,34.74c10.82,5.37,22.36,9.26,33.41,14.19,9.66,4.31,18.92,9.56,29.52,11.46,9.85,1.75,19.81,3.1,29.47,5.6C203,785.11,218.2,784,233.42,784q236,.09,472,0Z"/>
    <path class="leavesRight" d="M551.42,567.08c-2.17,1.88-4.08,3.2-6.56,0-5.15-6.58-11.85-11.49-18.4-16.6-13.59-10.6-21.06-25.84-28.9-40.52-10.61-19.85-12.7-41.82-13.7-63.92a110.92,110.92,0,0,1,1.26-19c.65-5.19,1.2-10.57,3.3-15.53,1.83-4.33,3.89-8.59,5.45-13A92.19,92.19,0,0,1,512,367.61c4-4.53,9.85-7.26,13.83-11.65,13-14.39,30.09-22.88,46.14-32.88l3,2.5c-1.87-3.81-5.1-6.6-7.52-10-4.14-5.81-8.62-11.25-11.67-17.92-4.07-8.92-6.38-18.26-8.73-27.61-2.63-10.46-3.49-21.24-4-32-.53-10.53,1.59-20.85,4-31,4-16.57,11.22-31.78,25-42.34,8.79-6.72,16.64-14.48,25.43-21.08,8-6,16.27-11.84,25.94-15.08,8.79-2.94,17.67-5.65,26.48-8.53,12.63-4.13,25.43-5.42,38.17-2.21,3.26-8.08,5.5-16.1,8.62-23.87,2.69-6.72,3.88-14.16,7.82-20.34,3.49-5.47,8.64-9.68,13-14.47C731.31,44.05,745.4,29.26,766.9,25c12.44-2.47,24.65-6.19,37.52-5.94,5.33.11,10.74.6,16-.11,9.39-1.26,18.75-1.65,28,.22,10.86,2.19,22,2.58,32.56,6.79,16.31,6.5,31.85,13.54,42.7,28.44,2.88,4,6.06,8.68,11.12,10.9a146.49,146.49,0,0,1,27.51-26.89c10.37-7.91,22.1-12.86,33.68-18.22,8.6-4,17.23-8.15,26.47-10.54,6.57-1.7,13.33-2.63,20-4.1,10.56-2.33,21-5.2,32-4.42,5.36.38,10.67,1.29,16,2,9.09,1.13,18.09,2.68,26.48,6.53,7.73,3.54,15.32,7.36,23,11,12.8,6,23.48,14.43,31,26.53,5.23,8.45,11.4,16.19,17.46,24,2.67-2.26,6.09-2.34,9.08-3.54,12.28-4.95,23.9-11.73,37.48-13.07,7.67-.75,15.26-3,23-2.33,7,.64,14,1.45,21,2.06,4,.35,8.2,0,12,1,8.81,2.3,17.71,4.45,26,8.33,10.82,5,22.25,8.91,32,16.07a234.78,234.78,0,0,1,32.46,29.52c7.1,7.64,13.1,16.24,16,26.45,3.83,13.37,4.81,27.18,4.23,41-.12,2.65,1,6.67-2.17,9h1.5c16.41,2.48,31.48,8.92,45.94,16.6,16.32,8.67,31.74,18.78,43.53,33.42,7,8.68,11.29,18.85,13.9,29.51,3.62,14.74,6.57,29.68,6.6,45,0,10.92-3.32,21.21-6.5,31.49S1496,360.86,1491,370.1c-5.2,9.46-13.74,15.62-21.59,22.43-4.92,4.27-10.29,8.05-15.45,12.05l-4.5.5a7.58,7.58,0,0,1,5.06.35c7.68,3.2,15.57,5.92,23.45,8.61a44,44,0,0,1,15.46,9.07c11.29,10.22,22.07,21,33.9,30.62,5.82,4.76,9.2,11.8,12.17,18.83,3.7,8.76,8,17.27,10.47,26.51,3.51,12.95,5.73,26.09,4.9,39.5-.68,10.8-3.6,21.25-6.95,31.5-7.74,23.69-23.62,41.52-42,57.5-1.61,1.4-3.6,2.45-5,4-10.12,12-25,14.78-38.58,19.87-6.26,2.34-12.69,4.5-19.46,5.09l-2.5-1.5c2.58.79,2.53,2.91,2.49,5-.11,6.18.18,12.33-.92,18.51-2.68,15.11-7.76,29.37-17.22,41.37-12.21,15.5-27.24,28.21-43.32,39.66-8.83,6.28-18.46,11.09-28.08,15.86-8.58,4.25-18.28,5.26-27.52,7.29a78.16,78.16,0,0,1-16.43,1.28q-297.75.06-595.5,0c-7.5,0-15,0-22.52-.75-14.82-1.43-26.9-7.7-36.91-18.27a18,18,0,0,1-4.82-10.25c-2.44-.61-4.57-1.3-6.76-1.65-12.57-2-25-4.68-37-9.11-20.18-7.51-38.37-18.33-53-34.43-9.82-10.79-18.63-22.38-22.9-36.52s-8-28.79-7.12-44c.33-5.5,0-11,.8-16.53a68.59,68.59,0,0,1,6.63-21c4.15-8.43,10-15.41,16.58-22"/>
</svg>
