<svg class="yellowTapedGrill"
    xmlns="http://www.w3.org/2000/svg" viewBox="0 0 919.93 1361.75">
    <path class="tapeBottom" d="M130.89,1036.73c-3.16,6-4.3,12.49-5.48,19-2.26,12.52-4,25.1-6.84,37.54-2.08,9.13-2.66,18.61-3.64,28-1.16,11.15-1.62,22.39-3.21,33.47-.8,5.56-.16,11.08-.9,16.52-2,14.78-2.18,29.72-2.95,44.53-.6,11.66-1.86,23.62.76,35.54,1.58,7.19.76,14.94.71,22.44,0,6.86,2.06,13.33,3.13,20,.37,2.26.74,5.24,4.42,4.76l.5-1.25c.5-.5,1.29-.92,1.46-1.51,2.63-9.2,6.23-18.15,6.1-28-.09-6.24,3-9.11,8.94-9,8.74.15,10.32-1,10.52-10,0-1.84.59-3.69.43-5.5-.37-4.1,1.39-7.62,3.16-10.94,2.12-4,6.39-3.83,10.38-4.18a50.94,50.94,0,0,1,5.51-.35c2.6.08,3.9-1.81,2.86-3.44-2.44-3.81-1.58-8.19-2.51-12.17-2.62-11.21-3.5-22.82-6.86-33.92-2-6.7-3-13.61-4.39-20.42-1.22-6-2.72-12.06-4.05-18.09-1.86-8.46-3.31-17-5.07-25.49-1.56-7.52-3.69-14.94-4.9-22.51-2.28-14.29-4.77-28.61-5.81-43C132.59,1040.67,130.89,1036.73,130.89,1036.73Z"/>
    <path class="pole" d="M528.89,1286.23c.86-15.54-1.17-31-1.84-46.49-.56-12.9.06-25.67.27-38.51.19-12.16.25-24.37-.65-36.48-.44-5.82,1-11.33.77-17-.28-6.34.61-12.7-.93-19-.44-1.81.78-4,.84-6,.41-12.17.14-24.38,1.2-36.49,1.17-13.39-.13-26.68-.22-40-.05-7.53,1.74-15.14.82-22.47-1.59-12.55.68-25-.58-37.55-.92-9.24-.11-18.65-.2-28-.08-8.51.54-17.05-1-25.5a3.72,3.72,0,0,1,0-1c.89-11.32-.56-22.66.4-34,.52-6.12.07-12.32.1-18.49,0-7.5-.33-15,.48-22.5,1.07-9.82-.16-19.7.61-29.49,1.21-15.53-.45-31-.21-46.51.21-13.66-1.21-27.36-.74-41,.78-23,.27-46,.47-69,.1-10.45.61-21,0-31.51s.54-21.34.63-32c.05-6.11-.69-12.32-.77-18.5-.12-9.33-.35-18.67-.48-28q-.3-21.26-.5-42.5c0-5.33,0-10.67,0-16.25H410.73c-1.9,10.66-1.44,21.22-2,31.74-.78,15.18.36,30.33-.12,45.52-.49,15.46-.43,31,0,46.5.25,8.82,1.39,17.8.48,26.46-1.71,16.3,2.1,32.34.79,48.53a304.54,304.54,0,0,0-.88,39.49c.5,10.35-.64,20.77.59,31,1.13,9.46-.11,18.7-.21,28-.06,5.67.42,11.29.15,17-.67,14.14-.65,28.32-.62,42.49,0,13.17.91,26.33,0,39.5-.7,9.86.63,19.67.88,29.5.15,6.17.08,12.32.37,18.51.69,14.8,0,29.66.27,44.49.32,20.84,1.6,41.68,1.22,62.5-.24,13.15-1.05,26.32-1.36,39.5-.2,8.69.08,17.34.23,26,.13,7.6,1.29,15.3,0,23-.67,4,.12,8.32.36,12.48,1,16.18.06,32.34-.56,48.5-.21,5.51.08,11,.26,16.49.36,10.71-1.05,21.33-.79,32,.22,8.83-.24,17.67-.42,26.5,0,1.84-.17,3.67-.3,6.5-10.36,0-20.58-.61-30.69.15-14.54,1.09-29,2.94-43.5,4.93-11.88,1.63-23.82,3.31-35.46,6.12-9.09,2.19-18.47,3.36-27.17,7.54-3.83,1.85-8.63,2.22-13,3.46a53.38,53.38,0,0,0-9.8,4c-5.36,2.77-11.27,3.85-16.54,6.42a111.7,111.7,0,0,0-17.49,11c-3.83,2.85-7.53,5.93-11.63,8.32-8.81,5.12-14.4,13.65-22,20a2.9,2.9,0,0,0-1,3c.3,1.73,1.73,1.49,3,1.5h580c2,0,4.05.21,6.05-.58-.15-3.06-2.77-4.47-4.56-6.41-11.4-12.32-25.06-21.5-40-29.07-7.12-3.61-13.8-7.93-21.49-10.54-15.7-5.33-31.27-10.8-47.48-14.64-14.76-3.49-29.61-6.06-44.56-8.22-17.09-2.48-34.08-6.16-51.5-5.52-10.83.4-21.66,1-32.5,1.45a7.35,7.35,0,0,1-2-.47Z"/>
    <path class="cls-3" d="M115.39,1299.73"/>
    <path class="tapeTop" d="M119.39,1090.73c4.83-7.5,6.43-22.2,8.91-30.53,3-10.11,6.47-20.07,8.73-30.44,3.26-14.93,6-29.92,8.6-45,2.33-13.7,5.87-27.22,7.75-41,1.39-10.16,2-20.48,4.19-30.46,2.32-10.62,2.56-21.47,5-32.12,1.88-8.31,1.69-17.26,2.25-25.93,1.17-18,1.38-36,1.08-54-.24-14.34-.3-28.67-1.3-43-1.09-15.63-.83-31.35-2.2-47-.73-8.34-2-16.65-2.39-25-.48-10.81-4.07-21.2-4-32,0-7.75-3-15-3.48-22.51-.85-14.44-3.64-28.64-5-43-.93-9.48-2.27-18.92-2.76-28.48-.41-8-2.36-16-1.7-24,1.08-13.16-1-26.41,1.38-39.51A5.77,5.77,0,0,0,144,495H104.78c-2.79,16.54-6.53,32.7-7.89,49.25-.65,7.83-1.08,15.7-2.06,23.49-1.3,10.31-1.44,20.71-2.78,31-1.1,8.4-.14,17.08-1.32,25.46-1.6,11.32-1.43,22.69-2.23,34-.54,7.63-.1,15.32-.11,23,0,8.36.78,16.67,1.4,25s2.23,16.7,3.67,25c3.1,17.71,6.37,35.39,10,53,1.63,7.84,3.83,15.56,4.9,23.52.71,5.26,3.06,10.59,3.08,15.5,0,9.24,3.21,17.65,4.46,26.49.91,6.37,2.74,12.63,3.35,19,1.12,11.64,3.9,23.19,2.56,35-.47,4.13.65,8,1.18,12,1.84,13.86.38,27.69.34,41.52,0,11.83.25,23.71-.61,35.49-1.25,17-1.05,34-3.13,51-1.27,10.37-1.54,21-2.09,31.45A55,55,0,0,0,119.39,1090.73Z"/>
    <path class="grillEdge" d="M916.39,41.73c-.39-5-4.68-5.58-8-6.39C891,31.15,873.49,28,855.89,25.24q-21.32-3.39-42.52-7.37c-9.2-1.74-18.69-1.86-28-3.24-6-.89-12.18-.52-18.08-2.75-2.66-1-5.91-.11-9-.51-7.27-.94-14.65-1-22-1.66-12.5-1.08-25-2.31-37.5-3.48-.16,0-.33,0-.5,0-15.56.35-30.91-2.61-46.49-2.83-9.62-.14-19.32-1.15-29-1.16q-22,0-44,0c-8.5,0-17,0-25.5,0-8.18,0-16.33-.25-24.51-.82-10-.7-20-.3-30-.13-8.33.14-16.66.74-25,.93-11.83.28-23.73-.35-35.48.69C418.58,4.64,398.7,4,378.9,5.37c-11.35.8-22.63,1.2-34,1.11a75.18,75.18,0,0,0-16.57,1.4c-6.23,1.34-13,1.09-19.42,1.9-9.54,1.19-19.06,2.52-28.53,4.33-10.57,2-21.36,2.86-32,4.68-18.08,3.09-36.35,4.52-54.51,6.9-9.14,1.21-18.31,2.29-27.5,3-12,.9-23.64,3.58-35.48,5.16-9.67,1.3-19.43,2.42-29,4.19A310.17,310.17,0,0,0,59.37,49.18c-12.43,4.18-23.55,10.24-32.5,20C17.06,80,9.68,91.58,8.16,106.71c-.93,9.33-1.91,18.68-2.68,28-1,12.3-1.56,24.65-2,37-.39,9.66-.51,19.33-.52,29,0,19.67-1.38,39.32-.81,59,.08,2.84-.09,6-.15,9-.32,14.66-.47,29.33-.55,44-.08,15.67-1,31.42.28,47,1.22,14.55.33,29,1,43.54.67,14.3-.27,28.69.79,43,.85,11.54,1.87,23.07,3.74,34.53.86,5.3,1.31,10.43,3.43,15.57s6.08,7.08,10.73,8.38c8.33,2.31,16.87,3,25.49,3.05,11.5.09,23,1,34.49.3,13.2-.78,26.35.31,39.52.07,8.21-.16,16.65.79,25,1.32,2.09.13,4-.51,6-.22,12.12,1.74,24.4.14,36.48,1.67,4.13.51,8-.24,12-.2,11.18.1,22.35-.54,33.51-.7,9.63-.15,19.35-.09,29-.09,13.38,0,26.68,1,40,1.51,17.33.68,34.66,1.73,52,2.57,12.84.63,25.72-.08,38.51,1.28,19.45,2.06,39,1.41,58.52,3.31,8.08.79,16.28,1,24.48,1a105.45,105.45,0,0,1,24.54,2.5c3.8.91,8,.59,12,1.1,12,1.53,24,2.65,36,4.09,11.51,1.39,23,3.08,34.51,4.45,9.64,1.15,19.33,1.95,29,3.1,1.66.2,2.79-.67,4-1.17a83.18,83.18,0,0,0,8-4.44c-1.89-4.93,2.24-8.12,4.24-11.35,22-35.48,43.25-71.38,64.93-107s43.36-71.32,65-107,43.34-71.33,65-107,43.56-71.2,65-107c6.16-10.26,12.46-20.47,18.76-30.65,3.31-5.37,5.75-11.28,8.58-17Z"/>
    <path class="grillOuterSide" d="M698.39,76.73c-10.5,3-21.51,4.86-31.37,9.28-12.76,5.73-25.3,11.91-33.48,25a187.08,187.08,0,0,0-15,28.77c-3.07,7.56-3.6,15.8-4.16,23.95-1.53,22.14-3.1,44.3-2.87,66.5.17,15.89-2.14,31.64-2.08,47.5,0,3.67.36,7.29.11,11a322.85,322.85,0,0,0-.88,32.5c.28,8.27,0,16.66-.25,25-.33,12-1.61,24.07-.72,36,.82,10.84,1,21.74,1.3,32.53.36,11.11,1.8,22.29.57,33.51-.53,4.73.33,9.67.89,14.47,1.08,9.15,0,18.36,1.35,27.53,1.63,10.78,1.82,21.75,4,32.51.62,3.13,1.07,6.64,0,10,1.91,2,4.44,1.74,6.6,1.35a218.87,218.87,0,0,1,22.51-2.91q17.75-1.37,35.47-2.86c9.15-.78,18.6-.63,27.61-3.94,4.22-1.55,9.26-.86,13.92-1.21,10.84-.83,21.74-1.16,32.48-2.64,11-1.52,22-3.13,33-4.36,7.34-.82,14.86-.91,22-2.69,8.63-2.18,17.54-2.34,26.15-5,5.55-1.71,11.93-1.4,17.91-2.3q11.22-1.69,22.5-3c7-.81,14-1.42,21-2,7.18-.61,14.36-1.1,22-1.67-.36-7.52,0-14.79-1.2-21.82-1.61-9.82-1.63-19.71-2.16-29.54-.66-12.19-1.83-24.32-2.66-36.49-.58-8.5-1.19-17-1.48-25.5-.93-27-1.86-54-2.46-81-.23-10.32-.49-20.67.32-31a46.86,46.86,0,0,0-.94-11c-1.39-8.69-.37-17.39.34-26,.28-3.27-1.52-5.52-1.42-8.52.35-10.84-.84-21.7-.61-32.49.18-8.64.88-17.33,1.33-26a261.58,261.58,0,0,0,.21-27c-.24-4.68,1.22-9,1.23-13.51,0-6.83.39-13.67.44-20.5.14-18.38,1.66-36.69,3.06-55A76.85,76.85,0,0,1,914.46,46c-1.48-.57-2.22-2-4.6-1.46-7.24,1.59-14.69,2.22-22,3.73-6.8,1.4-13.67,2-20.5,3-13.14,1.94-26.47,1.83-39.57,4.63a185.87,185.87,0,0,1-22.43,3,171.34,171.34,0,0,0-19.52,2.76c-10.74,2.25-21.62,3.64-32.5,5-9.56,1.16-19.11,2.27-28.5,4.51-7.82,1.87-15.69,3.56-23.46,5.64-1.09.29-1.7-.12-2.54-.13Z"/>
    <path class="grillInnerSide" d="M47.89,109.23a81.14,81.14,0,0,0-2.9,18c-1,14.64-2.07,29.28-1.64,44,.37,12.83.64,25.67.48,38.5-.27,22.85-3.39,45.64-2.29,68.49.7,14.53,0,29,.09,43.51.19,20.68,1.75,41.33,1.16,62-.2,7,2.57,13.5,2.18,20.5-.83,14.76,2.6,29.28,3.18,44,.15,3.87-.09,8.2,2.46,12.26H353.39v-3.25q0-203,.07-406c0-3.52-.85-5.6-4-7.62-8.23-5.31-16.14-11.13-24-16.94a7.3,7.3,0,0,0-5.54-1.4c-12.06,1.45-24,3.89-36,5.19-12.41,1.33-24.57,4-37,5.41-18.4,2.13-36.75,4.83-55,8-13.93,2.4-27.6,6.42-41.55,8.71-11.05,1.81-21.72,5.49-33,6.25-2,.13-4,1.31-6,1.91C98.7,64.46,85.63,67.38,74.45,74.81,62.64,82.65,53.16,92.74,48,106.25a2,2,0,0,0,.44,2.48Z"/>
    <path class="grillBack" d="M843.89,38.73a69.7,69.7,0,0,1-15-.5l-1-.5c-4.48-2.86-9.7-1-14.54-2.35-9.74-2.74-20-2-30-3.94-9.31-1.81-19-1.64-28.45-2.76-18-2.13-36-3.42-54-4.43-10-.55-20-1.1-30-1.13-11.83-.05-23.7-.82-35.48-1.66-20.18-1.43-40.33-1.89-60.52-1.67-16.83.19-33.66,1.19-50.5,1.35-11.49.12-23-.35-34.49-.75-13.51-.46-27,.76-40.52-.53a55.7,55.7,0,0,0-16,1.25c-4.21.83-8.61-.25-13-.05-8.64.37-17.29.67-26,.44-13.81-.36-27.66,1.36-41.5,1.64-11.43.23-22.64,2.34-34.3,2.75-.58,8.32-1.3,16.32-1.66,24.34-.54,11.86-.78,23.69-2.27,35.53-.84,6.67-.47,13.64-.77,20.47-.49,11.17-.6,22.37-1.62,33.49-.87,9.51,0,19-.79,28.52-1.61,19.46-1.23,39-3.06,58.49-.62,6.65.71,13.31,0,20-1.53,15-.43,30-.75,45-.29,13.47-1.45,26.94-.51,40.5s.21,27.32.21,41v4.5h5.5q113.51,0,227,0c3.05,0,5.48-.43,7.57-3a34.21,34.21,0,0,1,7.91-7.1c6.49-4.18,8.55-10.37,8.63-18,.17-17.5,1.45-35,1.23-52.5-.21-17.2.57-34.35,1.3-51.49.75-17.68,3.2-35.26,3.46-53,.17-12,1.19-24,1.92-36,.45-7.44,1.2-14.85,3.49-22a36.3,36.3,0,0,0,1.63-9c.38-9.45,5.81-16.37,10.53-23.38,8.83-13.13,21.18-21.71,36.78-25.81,5.22-1.36,10.22-3.91,15.55-5.32,12.72-3.37,25.68-5.68,38.43-8.77,9.65-2.34,19.61-2.89,29-5.8,8.7-2.69,17.56-3.23,26.52-4.07,14.89-1.41,29.66-4,44.52-5.79,8.19-1,16.4-2.33,24.42-3.9,8.34-1.62,17.06-.86,25.07-4.15Z"/>
    <path class="coal" d="M59.89,459.73a10,10,0,0,1,1.51-1.48c6-3.78,13-4.78,19.54-6.86,10.21-3.24,20.44-6.59,30.32-10.49,10.6-4.17,20.93-9,32.16-11,4.13-.73,9-1.38,12.52,2.78a4.34,4.34,0,0,0,3.88,1.55c4.38-4.36,8.6-8.83,13.12-13,3.14-2.87,6.13-6,10-8,4.24-2.24,8.31-5.65,13.51-2,2.09,1.45,3.65,0,5-1.49.89-1,.78-2.5,2-3.52,10.71-9.09,20.36-19.39,31.54-27.95,4.86-3.72,10.78-6.61,16.37-4.22,6.2,2.66,10.67,3.13,14.64-2.78,0-.08.37.06.47,0a262.44,262.44,0,0,1,32.41-20.68c7.26-3.88,14.34-8,22.1-10.82,2.46-.88,5.11-1.71,7.47-.43,7.41,4,15.25,7.43,21,13.93,4.58,5.15,5.72,5.4,11.46,1.47,6.6-4.51,13.79-5.48,21-2.8,5.68,2.12,11.31,4.39,16.82,6.43,2.31-3.54,6.4-4.28,9.18-6.66,9.55-8.19,20.87-13.23,32.11-18.31a17.17,17.17,0,0,1,15-.13,119,119,0,0,1,13.58,7.38c5.26,3.46,11.18,5.93,16.72,8.79,4.94-4.24,10.9-5.28,16.7-6.62,3.79-.88,8-2.59,11.42-1.74,4.72,1.14,9.77,1.89,14.1,4.66,5.73,3.66,11.71,6.93,17.44,10.6,2.06,1.32,3.49,1.29,5.58,0,4.18-2.57,8.62-4.74,12.95-7.07l1-5c-.94,6,.88,12,.51,18-.54,8.83-1.37,17.66-1.43,26.5-.11,15.67.3,31.33.41,47q.11,17.25,0,34.5c0,5.3-2.21,7.3-7.47,7-8.32-.52-16.74-.39-25-1.21-16.49-1.66-33.07-1.25-49.57-3.46-15.31-2.06-31-1.68-46.46-2.28-10.66-.42-21.33-1-32-.94-16.07.15-31.94-3.32-48-2.5-12.87.66-25.68-.33-38.5-.7-15.51-.45-31-.9-46.51-.88-5.66,0-11.34.19-17,0-22.16-.88-44.37-.43-66.5-2.41-2.8-.25-5.69.62-8.49.38a259.82,259.82,0,0,0-34.51-1c-16.16.79-32.31-1-48.5-.09-14.54.87-29.06-.55-43.5-2.39Z"/>
    <path class="handle" d="M909.89,286.73c4.57,5.65,6.4,11.76,4.08,19-1.82,5.71-6.53,7.79-11,10.55a81.93,81.93,0,0,1-30.06,10.76c-12,1.94-23.81,5-36,6.38-10,1.17-20.06,2.34-30.06,3.53-12.25,1.46-24.53,3.65-37,3.21-5-.18-10-.9-15-1.46-9.47-1.07-19-.41-28.51-1.32-13.77-1.32-27.66-1.36-41.48-2.25-4.67-.3-9.32-1.1-14-1.55-2.66-.26-4.29-3.16-4.88-5.4-2.73-10.35-4.23-20.79.87-31a33.73,33.73,0,0,1,10-11.48c3.34-2.58,7.46-1.86,11-1.36,12.46,1.79,25,2,37.53,3.23,8.13.8,16.34.57,24.51,1.49,4.29.48,8.71.75,13,1.32,9.24,1.23,17.47-1.84,26.06-4.06,7.16-1.85,14.61-2.65,22-3.54,2.35-.28,3.53-.77,4.58-3.06,4.89-10.75,14.81-12.44,24.91-12.41,13.77,0,27.47,2,41,4.54,10.53,2,21.18,4.72,28,14.33Z"/>
    <path class="handleLine fineLine" d="M859.89,280.73c-13.67,0-27.35-1.39-41,.5-1.33.18-2.66.33-4,.5"/>
    <path class="handleLine fineLine" d="M765.39,299.23c4.89,5.58,7.85,12.06,6.85,19.48-.62,4.62-.37,10-5.35,13"/>
    <path class="cls-3" d="M115.39,1299.73c.42,2.5-2.32,4-2,6.5"/>
    <path class="rack" d="M564.39,297.23c2.1-4.77.44-9.66,1.13-14.49a122.79,122.79,0,0,0-26.64-3.57c-9.55-.3-18.91-2.15-28.49-2.2-7.28,0-14.63-1.66-22-2.31-8-.71-15.78-2.33-24-1.2-7.16,1-14.64-.36-22-.74-8.67-.46-17.33-1.05-26-1.47-11.66-.57-23.33-1-35-1.53-9.83-.45-19.72-.79-29.47-1.73-16.53-1.59-33.05.15-49.54-1.16-5.61-.45-11.32.34-17,.38-14.84.09-29.7-1.1-44.49-.75-18,.42-36.07,0-54,2.19-4.27.52-8.66,0-13,.09-10.16.14-20.38-.22-30.48.68-6.66.59-23.52.84-25,.9q-17,.75-34,1.94c-9.51.68-19,1.49-28.49,2.54-4.29.47-6.82,8.22-4.51,12.93,2.13,4.33,4.73,5.87,10,4.94,9-1.57,18.06-.88,27-2,14.13-1.81,28.37-1.71,42.54-3.08,11.42-1.1,23-1.75,34.47-2.32,11-.54,22-1.36,33-1.42,14.5-.09,29-.06,43.51.28,13,.31,26-.57,39,0,6.64.3,13.36-1.18,20-.77,15.84,1,31.66-.72,47.53.61,10.41.88,21,1.21,31.48,1.29,10.17.08,20.34.32,30.5.48,14.68.24,29.35,1,44,1.82,9.81.55,19.72,1.11,29.51,2.28,14.47,1.73,29.09.27,43.51,2.43,10.19,1.52,20.31,3.46,30.52,4.88A32.58,32.58,0,0,0,564.39,297.23Z"/>
    <path class="rackLine fineLine" d="M567.39,236.23a2.48,2.48,0,0,0-2.5-2.5c-16-1.29-31.88-3.29-48-3.82-17.5-.57-35-.52-52.51-1-16.65-.46-33.33.67-50,.78-14,.09-28-.82-42-.32-19.52.7-39.11.5-58.51,3.33a41.4,41.4,0,0,1-6,0"/>
    <path class="rackLine fineLine" d="M310.89,233.73c-14.29-.42-28.1,3-42,5.54-10.64,2-21.33,3.73-32,5.68-11.36,2.09-22.89,3-34.14,6.43-8.52,2.57-17.59,3.89-26.39,5.86a273.14,273.14,0,0,0-41,12.45,7.13,7.13,0,0,1-2.49,0"/>
    <path class="rackLine fineLine" d="M556.89,234.73c-9.5,1-19,1.76-28.49,3.06-11.63,1.61-23.32,2.45-35,3.42-11.16.92-22.45.93-33.47,2.69-19.37,3.08-38.87,5.25-58.09,9.57-14.89,3.35-30.13,5.33-44.92,9.31-4.42,1.19-8.66,3-13,4.39-1.21.38-2.64.06-4,.06"/>
    <path class="rackLine fineLine" d="M444.39,230.23c-4.83.5-9.67,1.43-14.5,1.42-13.86,0-27.4,2.28-41,4.48-10.21,1.65-20.37,3.87-30.54,5.22-13.07,1.75-25.93,4.55-39,6.26-9.08,1.18-18.09,2.74-26.95,4.79-11.49,2.65-22.77,6.28-34,9.92-5.16,1.68-9.85,4.84-15.53,4.91"/>
    <path class="rackLine fineLine" d="M564.89,249.23c-10.07-.09-20,1.21-30,2.52-10.84,1.42-21.63,3.35-32.51,4.39-16.13,1.56-32,4.79-48,7.28a179.41,179.41,0,0,0-32.55,7.75c-2.18.77-4.64.73-7,1.06"/>
    <path class="rackLine fineLine" d="M565.39,262.73c-12.16,1.83-24.47,1.72-36.61,5.09-8.78,2.45-17.92,3.67-26.41,7.35-1,.43-2.31.06-3.48.06"/>
</svg>
