<svg viewBox="0 0 110.76 192.15">
  <g class="eye">
    <circle class="sclera" cx="31.09" cy="58.02" r="4.88"/>
    <path class="irisDarkBrown" d="m30.36,62.44c-.32.14-1.66-.83-2.35-2.44s-.47-3.24-.15-3.38c1.18,1.79,2.01,3.73,2.5,5.82Z"/>
    <path class="pupil" d="m28.89,60.97c-.26.11-.6-.34-.87-.96s-.36-1.19-.1-1.3c.42.71.74,1.47.97,2.26Z"/>
  </g>
  <path class="skinEastAsian" d="m25.06,106.02c.8-2.95,4.36-3,5.17-5.05.81-2.48-4.37-2.32-5.72-.27-9.89,25.44,42.86,33.3,29.05,2.3-2.41,3.77-4.51,7.74-6.28,11.93-5.38-2.8-14.4-3.67-22.23-8.91"/>
  <g class="whiteLight">
    <path d="m4.17,108.69c-1.87,1.55-.32,3.57,1.25,2.87-.77,1.45,1.36,2.84,2.74,1.7.54,2,3.67,1.7,3.45-.71,2.21-3.87-6.88-7.07-7.44-3.85Z"/>
    <path d="m11.11,90.41c-.58-2.14,2.54-2.6,3-.88,1.03-1.4,3.6-.45,3.16,1.19,1.54-1.06,3.59.55,2.43,2.19,0,5.39-8.59,1.31-8.59-2.5Z"/>
    <path d="m23.33,97.48c0,.15,1.23,9.81,1.23,9.81,1.86,0,2.31-1.79,1.27-2.65,1.6-.15,1.86-2.76.15-2.98,1.57-.82.97-2.61-.6-2.65.71-1.42-.78-2.57-2.05-1.53Z"/>
  </g>
  <g class="skinEastAsian">
    <path d="m91.17,191.92c35.18-14.16,11.72-38.84,11.15-54.97-.98-27.52-7.84-51.97-27.77-63.52-5.59-4.04-7.04-11.8-3.8-24.63l-32.5,22.45c6.52.81,13.02,6.76,15.21,12.6.79,4.8-4.65,24.9,6.78,48.18,3.88,7.89,2.13,20.06,4.97,25.76-19.01-4.67-44.62-9.9-51.79-3.19"/>
    <path d="m58.49,96.29c-.32,2.21-1.34,4.84-1.93,6.61-1.88,5.61-5.2,11.55-6.16,16.49-3.89-3.07-15.96-5.75-24.66-11.86-1.27-.55-.64-6.67-1.46-10.4-.74-3.35-.76-5.68,1.01-9.41.63-2.59-5.05-1.89-5.39,3.36-1.28,2.03-.5,3.77-1.57,4.43-3.37-1.28-9.38-2.82-11.67-5.62-3.57-4.37-6.77-.94-5.62.55.63.56.63,1.12,1.16,1.8-2.63,0-2.4,3.78-.44,5.48-1.9.07-2.05,3.95,0,5.19-.73,4.68,2.3,6.03,4.97,8.05,5.41,4.09,8.48,3.14,11.55,4.6,10.34,5.29,21.7,19.52,35.44,20.78,3.37.31,11.44-5.64,19.69-29.21,1.29-3.69,3.08-5.17,4.59-11.29"/>
    <path d="m55.99,70.99c-.78,2.49-3.46,8.56-10.82,12.38-6.84,3.56-7.17-2.62-11.02-3.07-.67-.31-1.97-1.76-1.15-3.23-1.25.3-2.75-1.12-2.6-1.84.2-.98-.03-1.64-.81-2.4-1.62.33-5.3-.33-3.85-4.15,1.35-3.56,1.05-7.14-1.04-10.12-5.32-7.55-6.69-14.6-7.26-24.02,20.36-39.41,63.66,9.64,46.38,24.3-1.37,2.1-2.25,6.25-6.27,4.86m-28.71-2.38c1.15-.96,2.5-2.02,3.8-3.18-1.59-.19-3.26-.52-5.1-.86-.15,1.09.41,3.13,1.31,4.03Z"/>
    <path d="m9.3,88.93c1.54-.27,3.26.48,2.88,1.73,2.74-.53,4.18.67,3.84,2.45,2.4-.29,3.6,1.3,2.93,2.88-.42,1.29-2.4,1.2-3.41,1.39-1.96,3.73-5.66,1.63-4.37-.29-1.43,1.57-4.2.51-3.46-.82-1.43.36-3.17-.72-2.26-2.26.34-1.06.19-1.92.91-2.69-2.67.27-2.88-3.74-.88-3.4.91.14,2.49-.5,3.81,1Z"/>
  </g>
  <g class="whiteLight">
    <path d="m8.65,93.5c.44-1.05,1.29-2.1,3.53-2.85-.4-1.2-2.83-1.14-2.86.57-1.17-.32-1.93,1.74-.67,2.28Z"/>
    <path d="m13.14,94.18c-1.06.87-1.39,2.06-1.96,2.91-1.42-.3-1.05-2.38.24-2.29-.09-.91,1-1.52,1.73-.62Z"/>
    <path d="m1.75,97.71c1.09,1,3.01,2.21,4.4,2.76-.24,1.59-2.68,1.45-2.88-.21-1.66.68-2.79-1.32-1.52-2.54Z"/>
  </g>
  <g class="skinOverlapLine">
    <path d="m65.37,157.78c6.8,1.79,8.57,2.9,10.91,3.79"/>
    <path d="m11.17,97.09c.91-1.36,1.23-3.6,4.85-3.98"/>
    <path d="m12.18,90.66c-4.36,1.47-3.47,4.05-4.46,5.62"/>
    <path d="m9.3,88.93c-.93.25-2.35,1.8-2.93,2.4"/>
    <path d="m1.75,102.9c1.25.92,2.54,1.67,3.85,2.28"/>
    <path d="m2.19,92.23c.63,1.21,1.94,2.31,3.04,2.87"/>
  </g>
  <g class="skinFoldLine">
    <path d="m20.87,97.94c-.28-.78-.81-1.43-1.76-1.96"/>
    <path d="m57.17,51.92c.34-7.98,11.73-3.89,5.29,5.81"/>
    <path d="m57.72,53.8c3.37,1.17-.76,4.5,1.11,5.12,1.39.46-.19-1.42,2.18-3.32,1.3-1.04,1.53-5.39-1.29-3.86"/>
  </g>
  <path class="skinEdgeLine" d="m7.88,108.98c-.9-1.03.37-1.82-.38-3.76-.9-2.33,1.16-2.47.6-4.01-.72-1.95.32-2.83.85-3.27"/>
  <path class="lipMaleMedium__noStroke" d="m37.02,76.65c-2.53-1.03-4.55-.48-6.62-1.42-.18.73,1.37,2.13,2.6,1.84-.82,1.47.5,2.94,1.15,3.23.07,0,.13,0,.2.01,3.03.18,2.47-1.81,2.67-3.66Z"/>
  <path class="lipBorderLine" d="m33,77.07c2.22-1.05,2.58-.11,4.07-.43"/>
  <g class="lipEdgeLine">
    <path d="m34.15,80.3c1.26.09,2.28-.16,3.05-1.11"/>
    <path d="m34.15,80.3c1.26.09,2.28-.16,3.05-1.11"/>
  </g>
  <path class="cheekLine" d="m35.13,74.34c.62,1.49,2.57,2.51,2.71,3.31"/>
  <path class="noseLine" d="m31.55,67.96c1.07.27,1.74,2.43.65,3.23-1.2.88-1.87-.26-3.1.52"/>
  <g class="eyeLidLine">
    <path d="m27.53,57.29c-1.86-.3-1.22-1.56-1.3-2.89"/>
    <path d="m28.83,61.32c-.45.29-.93,1.01-.35,1.92"/>
  </g>
  <path class="eyeCornerLine" d="m32.63,58.14c.58.05,1.14-.09,1.62-.32"/>
  <path class="eyebrowBlack" d="m22.11,50.96c4.52,1.43,5.98-2.09,9.62,1.44-5.47-.82-6.56,2.78-9.62-1.44Z"/>
  <path class="hairBlack" d="m15.83,32.93c-2.15,1.27-5.4,2.68-7.83,2.9,6.84-4.92,6.28-9.18,13.77-16.53,8.07-7.91,18.08-10.26,29.01-10.62-1.07-2.83-3.6-7.3-7.87-8.34,5.13-.84,9.97,4.32,11.4,8.56,2.13-3.88,6.34-5.61,10.05-4.63-3.63.56-6.13,3.14-6.18,5.18,15.84,3.23,29.06,28.05,12.31,49.65-3.12.62-4.42.5-6.67-.27,1.76-2.91,4.61-7.58.58-11.88-3.28-3.5-9.25-.59-9.04,4.18-2.46,1.01-3.86,1.51-6.5,1.62-.83-2.63-.92-3.79-5.32-6.44-4.23.99-6.7.5-11.51-1.41,2.49,1.59,3.13,2.89,2.96,4.01-6.34-3.61-21.45,4.47-19.15-15.99Z"/>
  <path class="hairOverlapLine" d="m43.53,46.32c3.02-.95,5.43-.1,6.8-.12-1.31-1.61-3.79-2.87-5.03-3.38"/>
</svg>