<svg viewBox="0 0 264.83 300.04">
  <g class="sockWhite">
    <path d="m178.77,231.31l-3.68-1.31-5.87,14.2c8.02,1.78,13.29,4.51,19.1,11.01l-9.55-23.89Z"/>
    <path d="m55.57,259.76c-3.69,6.12-8.48,12.43-13.89,18.85,9.24,8.98,23-6.22,23-6.22l-9.11-12.63Z"/>
  </g>
  <g class="bennettShoeLining">
    <path d="m49.43,276.45c3.65-2.8,8.17-5.2,10.91-4.79-3.94,5.34-8.87,9.79-10.91,4.79Z"/>
    <path d="m184.65,249.65c-.58-5.41-2.53-9.04-6.99-9.4.83,2.97,4.06,6.51,6.99,9.4Z"/>
    <path d="m171.73,244.81c.19,1.11.63,2.13,1.18,2.99-4.46-1.36-4.03,2.73-2.55,3.72,1.46,1.02,8.32-.98,7.83-4.33-1.99-.98-4.11-1.74-6.47-2.38Z"/>
  </g>
  <g class="soleWhite">
    <path d="m56.29,294.02c-.6,1.81-2.31,3.61-2.95,4.12-4.72,1.04-9.7-.94-15.51-2.98-10.41-3.65-22.46-3.88-25.28-13.16.42-5.02,5.81-7.83,11.8-5.7l31.93,17.72Z"/>
    <path d="m199.49,233.48c2.05,0,3.9.82,5.55,2.19,2.37,2.09-.14,11.12-1.01,18.99-1.17,10.54.04,21.05-6.73,24.09-6.4,2.88-13.07-1.58-10.9-9.23l13.09-36.04Z"/>
  </g>
  <g class="bennettShoe">
    <path d="m67.32,273.77c-6.19,6.88-7.36,16.88-11.03,20.25-2.52,1.22-9.37.26-14.58-1.82-6.12-2.45-10.7-2.8-14.6-4.43,1.76-3.82.69-9.02-2.75-11.47,2.91.46,7.03,1.45,9.63.69,3.42-1.01,5.5-2.52,10.09-5.28,1.97-1.18,1.9-6.04,4.12-9.1-.38,6.33,6.3,3.17,5.36,5.2-.88,2.05-.99,6.12-4.13,8.64,6.43,1.49,4.88-9.16,17.89-2.68Z"/>
    <path d="m177.31,230.27c12.31,3.72,17.01.91,22.18,3.21,2.17,1.31,2.08,9.17.78,15.06-1.64,7.41-1.29,15.88-2.13,19.34-4.71-.8-9.45.31-11.73,1.64-.28-5.38-1.29-9.69-4.04-13.63-4.65-6.68-10.15-2.77-12-4.37,3.4.81,2.96-3.63,4.49-4.15,3.52-.94,6.77-.07,9.79,2.28-3.42-4.29-1.71-7.6-5.83-8.49-3-.65-.48-7.06-1.5-10.9Z"/>
  </g>
  <g class="shoelace">
    <path d="m41.87,273.05c-3.15,1.93-5.07,3.11-7.88,3.93-.82.24-1.8.31-2.85.27,1.77,1.28,3.34,3.06,4.11,5.41,2.76-.09,9.02-3.04,11.07-4.44-1.07-1.97-2.55-3.68-4.46-5.17Z"/>
    <path d="m185.79,264.2c1.13-1.14,2.25-1.76,3.99-2.16-.73-3.9-2.13-7.57-4.14-11.03-1.98.91-3.17,2.07-4.5,3.38.41.43.82.92,1.22,1.5,1.78,2.55,2.83,5.26,3.43,8.31Z"/>
    <path d="m54.26,278.2c3.99,2.12,9.4,9.61,15.95,15.04,2.04,1.69,4.5,2.31,5.77,3.92l4.15,1.84-.33.71-4.15-1.83c-1.81-.36-4.22-1.51-6.63-3.4-6.18-4.86-10.65-11.85-15.62-14.93-.84-.52-.02-1.81.85-1.35Z"/>
    <path d="m69.01,292.22c1.57.64,3.11,1.11,4.33,1.36l4.18,1.15.25-.8-4.25-1.13c-1.8-1.23-4.57-1.9-7.57-3.47.99.99,2.02,1.96,3.07,2.89Z"/>
    <path d="m186.67,248.19c-.26,10.4-6.91,19.98-14.45,24.44l-3.47,3.46-.54-.54,3.49-3.44c.8-2.11,12.85-7.76,13.36-23.98.04-1.15,1.63-1.1,1.6.05Z"/>
    <path d="m180.3,253.6c-3.45,10.7-12,14.33-12.94,16.07l-4.54,1.67.23.69,4.6-1.7c3.34-.64,10.39-7.39,13.75-15.67-.36-.41-.73-.76-1.1-1.06Z"/>
  </g>
  <path class="converseLogo" d="m185.73,241.78c-.38-6.58,10.21-6.39,10.06.33s-9.69,6.04-10.06-.33Z"/>
  <g class="backpack">
    <path class="backpackInner" d="m187.42,226.19c-36.3-49.69,12.83-85.28,51.48-42.14l-51.48,42.14Z"/>
    <polygon class="flatMaroonMedium" points="231.72 187.55 216.99 168.06 176.74 201.25 191.34 220.53 231.72 187.55"/>
    <polygon class="flatGreenMedium" points="230.61 190.07 217.27 172.43 180.82 202.49 194.04 219.94 230.61 190.07"/>
    <g class="paperDark">
      <polygon points="214.49 172.48 179.9 201.01 180.82 202.49 217.27 172.43 214.49 172.48"/>
      <polygon points="214.95 168.25 176.2 200.18 176.74 201.25 216.99 168.06 214.95 168.25"/>
    </g>
    <path class="backpackPocket" d="m261.77,210.14c-2.6-4.22-4.9-9.04-12.04-15.74-1.63-1.53-2.24-1.52-3.65-3.23-.21.85-54.16,41.16-55.66,42.31,8.19,8.74,13.62,21.79,20.48,24.67,2.17.91,8.54,1.03,11.79-.69,25.39-13.42,31.49-23.02,35.91-26.93,6.75-5.96,7.76-12.96,3.17-20.39Z"/>
    <path class="backpackMedium" d="m204.13,227.52c-7.78,5.51-12.21,4.81-13.71,5.96-3.27-3.49-7.89-10.11-12.12-15.23-2.85-3.45-5.24-8.59-7.27-13.36-3.82-8.94-2.84-17.15,4.2-25.62,6.28-7.56,14.62-14.39,24.66-17.19,7.68-2.15,15.62,1.19,23.01,5.72,4.46,2.73,10.97,11.45,15.38,14.19,2.06,1.28,5.22,6.04,7.8,9.17-.56,2.03-2.15,4.21-3.85,6.03-6.92,7.4-25.77,21.58-38.1,30.32Zm-12.1-13.79c17.83.25,27.41-7.43,34.18-26.67,1.64-4.67,6.4-4.09,11.15-2.31-15.6-16.84-34.38-27.07-49.86-15.81-7,5.09-10.01,10.27-12.03,16.07-3.74,10.69,2.06,24.21,11.8,36.68-1.82-5.61-.53-8.03,4.77-7.96Z"/>
    <path class="backpackLight" d="m231.6,189.08c4.52-3.06,8.25-1.33,11.26,1.38,7.27,6.56,9.97,12.12,15.81,18.91,6.71,7.81,3.46,17.22-5.37,23.66-4.89,3.57-10.16,9.41-16.5,13.31-3.18,1.96-7.22,8.25-14.02,8.75-3.93.29-6.54-2.76-8.94-4.89-6.51-5.77-12.4-13.58-17.12-20.51-3.98-5.84-3.28-10.64,1.31-14.02,10.68-7.87,21-18.07,33.58-26.59Z"/>
    <path class="backpackMedium" d="m226.78,184.05c-8.54,1.7-13.34,10.39-19.13,15.96-5.3,2.97-15.61,8.12-19.11,12.72,19.21,2.9,31.29-6.21,38.24-28.68Z"/>
    <path class="backpackDark" d="m226.37,187.06c-6.77,19.24-16.35,26.92-34.18,26.67-5.3-.07-6.59,2.34-4.77,7.96.23-4.19,1.36-5.29,4.81-4.91,19.36,2.12,32.16-14.16,37.98-29.5,1.05-2.76,3.95-3.07,7.3-2.52-4.75-1.77-9.51-2.36-11.15,2.31Z"/>
    <g class="backpackCreaseLine">
      <path d="m231.99,200.41c-3.1,3.75-3.65,7.03-6.17,9.86-3.23,3.63-7.61,4.26-10.69,7.26"/>
      <path d="m250.73,204.88c1.18,2.01,1.28,4.3.56,7.25s2.29,2.27,4.3,1.2"/>
      <path d="m227.94,244.89c-4.78.4-3.67-2.47-6.46-2.63-2.63-.15-1.12,4.7,1.2,8.61"/>
      <path d="m170.55,196.99c1.2-5.82,1.43.64,3.59,5.98"/>
      <path d="m219.69,192.9c-1.82-4.03-2.13,2.89-4.18,7.6"/>
      <path d="m207.24,206.35c-3.11.46-7.29-.59-7.29,2.81"/>
      <path d="m212.86,253.71c-3.26-2.47-2.37-.59-2.17,2.37"/>
    </g>
    <g class="backpackZipperTeeth">
      <path d="m226.98,194.13c-.38.72-.77,1.44-1.17,2.15,4.8-3.96,10.79-8.62,14.58-6.44-3.57-3.18-9.29.88-13.41,4.28Z"/>
      <path d="m200.71,216.48c-.44.08-.88.15-1.33.21-5.64,4.24-2.71,9.71,3.09,17.12l.84-.34c-5.52-6.97-9.13-12.43-2.61-16.99Z"/>
      <path d="m192.02,213.73c17.83.25,27.41-7.43,34.18-26.67,1.64-4.67,6.4-4.09,11.15-2.31-15.6-16.84-34.38-27.07-49.86-15.81-7,5.09-10.01,10.27-12.03,16.07-3.74,10.69,2.06,24.21,11.8,36.68-1.82-5.61-.53-8.03,4.77-7.96Zm33.03-27c-7.39,19.35-14.89,25.84-35.34,25.84-2.97,0-4.48,2.77-3.95,5.81-8.58-11.73-12.48-22.84-9.35-32.72,2.64-8.34,9.16-15.73,17.69-19.07,12.44-4.87,28.31,3.81,40.52,16.43-4.51-1.44-8.08-.21-9.58,3.72Z"/>
    </g>
    <g class="backpackZipperPull">
      <polygon points="203.32 233.48 204.99 239.98 203.06 240.45 202.47 233.82 203.32 233.48"/>
      <polygon points="185.76 218.38 180.28 222.07 181.31 224.32 186.33 219.68 185.76 218.38"/>
      <polygon points="234.62 183.02 237.59 176.5 239.61 177.74 235.67 183.64 234.62 183.02"/>
    </g>
    <path class="backpackFoldLine" d="m207.65,200.02c2-.8,3.34-.72,4.76-1.67"/>
  </g>
  <path class="bennettJacketInner" d="m137.17,109.33c11.83,20.91,5.39,26.06,8.24,38.44,3.37,14.61,12.88,21.96,4.22,44.14-29.78-12.67-76.45-21.54-75.82-27.67l63.36-54.91Z"/>
  <g class="bennettJeans">
    <path d="m138.94,195.07c1.6,6.03.96,12.39,3.02,13.38,1.65.64,2.96,2.95,2.64,6.03,1.7-1.22,4.15.09,4.24,2.36,3.39-1.6,4.05,1.13,5.47,1.6,5.09,2.07,9.23,5.75,21.3,8.2,3.21,9.89-1.98,19.32-10.65,24.97-4.48-2.89-8.95-5.77-12.63-6.12-5.18-.5-8.29-3.03-11.78-3.39-13.89-1.43-20.82-12.06-28.65-24.22l27.04-22.8Z"/>
    <path d="m144.48,171.62c.89-.87.29-2.35-1.06-2.82-.54-1.14-.84-2.75-1.1-4.37-34.75-3.29-30.77,10.93-48.72,7.17.06,5.55-.13,11.88,2.92,17.3-3.29.17-2.87,2.79-4.58,5.2-3.09,4.36-12.33,17.43-12.33,17.43-3.8,5.22-13.4,25.59-19.01,35.76-2.89,5.24-7.2,7.84-10.73,12.9,5.46,5.18,12.67,16.35,20.91,16.47,2.31-10.67,10.84-11.83,21.19-38.34.97-2.44,4-.4,4.17-5.06,2.58-.41,2.9-2.36,2.82-4.58,2.92,1.61,4.55-2.9,8.59-5.65,21.7-14.74,42.95-28.23,36.93-51.4Z"/>
  </g>
  <path class="bennettSleeves" d="m138.64,107.84c-.06-.61-.07-1.29-.04-2.03,2.31,2.6,9.31,5.85,12.32,7.54,1.98,1.11,3.58,3.46,6.06,2.97-.99,3.94,3.46,4.2,3.83,7.54,4.2-2.72,12.24-6.18,14.83-8.53-4.33-3.96-.12-5.69-5.31-7.66.25-4.57-3.46-3.96-5.07-5.81-1.36-2.22-3.34-5.31-7.42-6.18-8.65-4.2-12.81-9.43-19.41-13.23-5.18-2.98-11.99-3.46-16.93-5.81l-25.08.11c-11.63,20.04-.63,27.95,42.22,31.09Z"/>
  <path class="shirtWhite" d="m138.64,108c-7.89-2.15-16.31-10.09-22.68-20.02-7.34,3.2-19.62,2.12-22.26-4.26-9.9,24.55-5.4,62.71-2.65,78.81-.24,4.33,2.53,3.01,1.8,8.9,18.89,4.33,14.2-10.47,49.93-6.96,2.17-4.93-1.44-7.23-1.32-9.76,1.93-4.45-.72-5.78-.84-7.34,3.25-3.42-1.08-5.66-1.08-8.18-.22-3.67-.21-7.23.24-10.59,2.66-2.97-.62-5.04-.36-7.1.42-3.34-.12-8.1-.78-13.5Z"/>
  <g class="bennettJacket">
    <path d="m73.81,164.25c1.7-3.1,17.02,1.35,17.79-1.14.3-23.17-10.5-60.87,4.81-86.36-2.14-1-4.34-.92-6.62.75-6.02-3.31-6.63.78-9.07.6-6.17-.45-10.79-1.2-13.49-.3-4.21-2.71-6.44-.96-9.33-1.2-3.61-.3-3.31-4.51-6.92-.75-.7-2.85-2.47-3.82-5.5-2.55-2.47-2.11-5.19-1.84-7.74-3.02-2.55-1.18-4.36-3.91-7.52-4.06-1.61-1.8-5.12-2.71-7.07-4.36-1.81-.3-9.33,13.39-7.52,14.74,10.23,6.92,29.04,17.27,34.6,18.78,12.55,3.39,25.28-.12,30.24,9.36-3.01,20.91-3.91,41.37-6.66,59.52Z"/>
    <path d="m167.13,157.69c-1.81-1.2-3.02-.93-6.02-1.96-2.55-.87-3.76-2.11-7.37-2.56-1.69-13.35-2.59-9.37-9.07-17.5-.09,3.83-.33,7.45.74,12.1,1.78,7.74,5.29,13.44,6.91,20.39,4.06,1.32,7.33,3.66,10.45,4.12,2.71.4,6.64-13.07,4.36-14.59Z"/>
  </g>
  <path class="bennettJacketCollar" d="m91.6,163.1c-.37-1.74-4.41-2.85-7.22-2.52,5.94-36.37-.52-67.56,10.97-84.24.14-.68,2.69-.14,2.54.54-14.23,18.88-2.22,63.79-6.29,86.23Z"/>
  <g class="clothesDisplayLine">
    <path d="m115.54,166.53c.85,3.5,12.83,1.16,17.78,6.6"/>
    <path d="m98.61,172.29c-.46,3.25.38,6.45,2.06,9.32"/>
    <path d="m96.04,172.02c-.62,6.91,1.98,9.47,3.56,12.2"/>
    <path d="m27.11,287.76c-6.08-1.41-12.34-7.66-11.63-10.78"/>
    <path d="m198.14,267.88c-.63,5.87-1.53,10.6-7.53,11.23"/>
  </g>
  <g class="clothesOverlapLine">
    <path d="m81.75,91.4c.71,3.45-.71,7.85-1.28,13.33"/>
    <path d="m129.81,93.89c1.77,5.11,4.75,9.03,8.78,11.91"/>
    <path d="m116.1,171.89c1.26,2.17-8.75,2.87-11.97,7.65-5.32.97-2.57,4.07-7.62,9.36,2.31-.35,4.72.07,7.19,1.07"/>
    <path d="m33.99,276.98c1.74,1.25,2.99,3,3.84,5.15"/>
    <path d="m36.17,276.2c1.79,1.33,3.09,3.06,4.02,5.08"/>
    <path d="m38.18,275.23c1.74,1.42,3.07,3.17,4.16,5.13"/>
    <path d="m40.02,274.17c1.58,1.29,2.97,3.12,4.27,5.23"/>
    <path d="m46.33,278.22s2.12-1.2,3.11-1.77"/>
    <path d="m182.37,255.89c1.36-1.16,2.34-1.88,4.36-2.87"/>
    <path d="m183.6,257.89c1.34-1.11,2.24-1.74,4.16-2.62"/>
    <path d="m184.48,259.74c1.27-1.01,2.16-1.58,4.06-2.42"/>
    <path d="m185.23,261.89c1.19-1.16,2.03-1.7,3.97-2.42"/>
  </g>
  <g class="clothesBorderLine">
    <path d="m30.22,66.21c-2.34,2.84-6.87,10.99-7,15.21"/>
    <path d="m160.14,155.36c.14,3.95-2.58,11.54-4.64,14.06"/>
  </g>
  <g class="clothesFoldLine">
    <path d="m33.16,68.79c-.36,2.47.54,5.2,4.02,8.44"/>
    <path d="m45.48,73.29c-1.02.41-1.87.99-2.27,1.99"/>
    <path d="m50.98,75.84c-1.47,5.14-5.09,7.95-2.47,1.59"/>
    <path d="m54.6,77.76c-1.1,2.29-1.62,4.69-.6,7.37"/>
    <path d="m64.92,78.7c1.54,3.71,4.03,6.9,7.3,9.65"/>
    <path d="m78.32,98.73c-2.55-1.67-5.09-.33-10.32-.99"/>
    <path d="m89.79,77.5c-2.83,1.87-2.83,6.94-3.84,2.61"/>
    <path d="m93.39,89.62c4.96,5.59,10.38,10.13,16.28,13.6"/>
    <path d="m115.3,115.01c-9.68-6.87-18.81-13.81-23.61-21.39"/>
    <path d="m99.62,115.15c2.5,4.14,5.52,7.6,9.18,10.25"/>
    <path d="m101.16,124.19c-4.11-4.87-7.86-9.79-10.46-14.86"/>
    <path d="m91.14,121.4c3.09,7.99,6.53,14.68,10.39,19.78"/>
    <path d="m92.42,146.25c.74,1.15,1.6,2.08,2.62,2.77"/>
    <path d="m92.49,150.62c1.82,2.07,4.13,3.57,6.72,4.74"/>
    <path d="m92.2,158.45c3.94,3.05,8.26,4.78,12.91,5.35"/>
    <path d="m110.87,165.74c-5.97,2.29-13.13,1.51-19.15-3.35"/>
    <path d="m137.1,146.24c-5.24,5.07-10.86,8.9-16.86,11.52"/>
    <path d="m140.62,147.37c-3.17,4.84-14.41,9.15-4.56,7.41"/>
    <path d="m141.46,154.71c-3.11,4.24-16.16,5.55-22.13,8.05"/>
    <path d="m140.15,159.98c-4.37-.28-9.28.1-14.5.86"/>
    <path d="m125.79,125.77c2.79,2.25,5.71,4.06,8.74,5.52"/>
    <path d="m132.33,127.65c-4.14-4.76,5.55,1.13,7.45.95"/>
    <path d="m133.21,90.94c-.05,3.68.54,7.02,2.43,9.65"/>
    <path d="m141.19,92.12c2.51,5.27,4.56,10.38,5.69,15.2"/>
    <path d="m144.8,95.31c1.88,5.03,4.27,9.29,7.29,12.63"/>
    <path d="m159.58,99.41c2.84,1.87,2.71,10.2-1.39,11.8"/>
    <path d="m156.97,116.31c2.33-1.71,4.09-5.1,4.97-1.57"/>
    <path d="m165.25,101.85c1.2,4.22-1.07,9.07,2.03,4.7"/>
    <path d="m165.69,115.16c-2.84-.97,4.02-3.4,4.63-7.5,1.98,1.42,2.65,3.75.43,6.88"/>
    <path d="m166.73,116.61c-2.61,1.87-6.59,4.23-8.3,3.74"/>
    <path d="m143.45,160.84c2.89,1.64,4.92,4.73,6.51,8.58"/>
    <path d="m147.91,144.2c3.07,1.31.07,4.68-1,8.79"/>
    <path d="m153.74,153.17c.39,2.61.32,4.36,3.5,3.12"/>
    <path d="m107.14,175.03c3.78-2.31,7.59-5.22,8.96-3.15"/>
    <path d="m106.62,172.8c-1.23.95-2.47,3.53-1.83,5.91"/>
    <path d="m113.24,176.11c3.21-.75,6.32-1.05,9.31-.79"/>
    <path d="m104.13,179.54c3.49-.84,7.58-.87,11.97-.51"/>
    <path d="m108.53,180.99c5.69-.32,11.62.48,17.73,2.13"/>
    <path d="m97.87,190.92c3.12.3,6.22,1.18,9.31,2.47"/>
    <path d="m144.48,171.62c-.83-.5-3.08-.95-4.26-.78"/>
    <path d="m143.42,168.8c-1.73-.68-3.51-.79-5.33-.59"/>
    <path d="m102.92,214.76c-5.51,3.58-11.28,5.88-17.78,4.6"/>
    <path d="m98.95,228.67c-1.7-.73-5.85-3.8-6.13-1.68"/>
    <path d="m96.14,233.25c-4.33-.54-7.19-5.69-9.09-4.86s2.3,3.87,3.42,5.95"/>
    <path d="m81.66,228.5c2.61,2.79,4.37,6.2,5.67,9.93"/>
    <path d="m93.11,237.1c-1.18.21-2.28.13-2.64,1.34"/>
    <path d="m78.74,254.58c-8.86,4.74-17.89,8.3-22.83,3.93"/>
    <path d="m75.15,263.45c-2.52,1.91-7.33,1.65-7.29,5.83"/>
    <path d="m141.14,212.44c-.78,4.36-3.15,9.29-6.76,14.66"/>
    <path d="m144.16,224.19c-3.22,2.5-8.19,4.09-10.09,7.59"/>
    <path d="m144.6,214.48c-.23,3.37-4.33,6.26-1.9,7.43"/>
    <path d="m148.84,216.84c-.45,1.81-2.92,3.48-2.7,5.28.09.71,2.61-1.74,4.16-2.5"/>
    <path d="m169.5,227.17c1.16,2.73,3.75,2.73,5.86,5.04"/>
    <path d="m169.57,241.41c-.32-2.33-.5-5.28-3.14-5.11-3.95.25-6.75,4.63-13.77,5.79"/>
    <path d="m138.53,126.03c-2.07-.45-8.63-3.51-10.61-6.11"/>
    <path d="m85.51,40.58c.33-.17.87-.05,1.37-.52"/>
  </g>
  <g class="eye">
    <circle class="sclera" cx="102.11" cy="43.45" r="6.84"/>
    <ellipse class="irisDarkBrown" cx="101.79" cy="43.7" rx="3.02" ry="2.59" transform="translate(28.4 126.68) rotate(-71.74)"/>
    <ellipse class="pupil" cx="101.42" cy="43.58" rx="1.18" ry="1.01" transform="translate(28.26 126.24) rotate(-71.74)"/>
  </g>
  <g class="skinEastAsian">
    <path d="m89.48,60.44c6.65,3.37,8.07,9.73,7.57,17.82.16,10.19,22.77,5.25,24.6.26.6-6.66-.27-10.94,7.55-15.08"/>
    <path d="m184.47,144.78c-5.75-10.5-5.63-23.1-9.4-29-2.92,2.23-9.75,5.26-13.77,7.75,2.3,6.64,9.9,13,11.16,22.66-.15,1.83-2.89,6.75-2.48,12.64.31,4.4,2.36,7.8,1.03,12.04-.61,1.16,2.93,1.6,3.84-1.02.26,2.68,5.13,3.51,5.99-.95,1.46.14,3.12-.13,3.91-2.17.7.3,2.39.23,3.15-1.33,2.97,0,3.52-7.52,2.79-10.94s-4.8-6.65-6.21-9.69Z"/>
    <path d="m22.37,62.22c-1.22-2.12-1.16-6.65-5.81-14.87-2.66-4.71-2.8-9.35-6.46-14.57-.71-2.34-5.28-1.29-3.56,3.27-.6-.59-.78-.66-1.51-1.33-1.48-1.35-4.12.6-2.25,3.57-2.19,1.24-1.48,3.91.95,5.58-1,1.71.1,3.76,2.2,4.86,1.56.81,2.44,2.8,4.39,3.88-.17,1.71-1.05,2.33-.78,3.97-3.22-2.82-4.1-2.33-6.22-3.84-3.69-2.25-4.51,4.1.15,6.34,2.25,1.09,3.21,3.98,4.02,5.27,2.16,3.44,3.86,5.98,9.27,6.87,1.59-3.55,4.14-7.75,5.62-9.01Z"/>
    <path d="m112.34,71.69c-3.71,1.81-6.45,3.04-9.89,3.47-6.59.81-12.32.06-16.12-1.76-3.21-1.53-3.41-5.15-4.6-7.99-3.76-9.01-1.18-20.4,1.5-22.24,1.25-.86,1.23-2.49,1.39-3.16,1.48-6.13,1.36-9.79,7.25-19.15,30.84-16.55,63.44,37.07,33.43,42.78-1.86,1.02-3.8,3.45-6.85.26m-18.91-20.25c2.6,1.67,3.7.63,8.2,1.68-1.31-1.11-2.96-3.17-5.5-3.94-1.83-.55-2.63.27-3.45,1.25-.72.87.37.76.74,1.01Z"/>
  </g>
  <path class="lipMaleMedium__noStroke" d="m85.06,56.37c.93.89,1.82,1.1,3.22,1.03,4.2,1.42,8.08,2.69,7.42,6.91.28,1.52-6.82,3.43-10.75.64-1.89-1.46-.69-3.31,1.47-3.1,1.35-3.48-4.27-5.13-1.36-5.49Z"/>
  <path class="mouthInner" d="m87.9,62.09c.3-.76.93-1.42,1.72-1.78-1.07-.22-2.73-.78-2.76-.79.13.79.03,1.57-.44,2.34.48.01.98.1,1.48.24,0,0,0,0,0,0Z"/>
  <path class="tongue" d="m87.9,62.09c3.59.98,7.35,4.54,7.56,1.95.12-1.49-.29-2.5-1.03-3.21-.94-.46-2.17-.77-3.69-.81-1.31.1-2.4.99-2.84,2.07Z"/>
  <path class="teeth" d="m85.81,58.08c-.14.51.05.97.82,1.33,1.95.77,5.2,1.39,8.32,2.05-1.58-2.52-6.25-2.25-9.13-3.38Z"/>
  <g class="lipOverlapLine">
    <path d="m84.06,55.01c-.26,1.34.21,2.51,1.75,3.07"/>
    <path d="m84.48,62.45c.37-.48.87-.7,1.94-.59"/>
  </g>
  <g class="lipEdgeLine">
    <path d="m88.28,57.4c-1.41.07-2.29-.14-3.22-1.03"/>
    <path d="m90.34,66.15c-1.83.33-3.65.11-5.39-1.19"/>
  </g>
  <g class="noseLine">
    <path d="m93.42,54.9c1.87-.31,2.31-2.83,1.77-3.54"/>
    <path d="m88.19,53.81c1.05-.41,2.14-.68,3.35.28"/>
    <path d="m88.65,45.78c-1.07,2.47-6.58,4.56-2.33,7.29"/>
  </g>
  <path class="eyeFoldLine" d="m98.66,45.36c1.62,2.61,5.68,2.29,7.04,1.82"/>
  <path class="eyeCornerLine" d="m107.73,45.31c.49.48.92.72,1.74,1.09"/>
  <g class="eyebrowBlack">
    <path d="m98.43,34.51c4.03,2.23,10.56,1.1,13.08,6.82-4.35-3.53-10.59-2.12-13.08-6.82Z"/>
    <path d="m85.96,33.9c2.12.13,4.05-.45,5.11-1.63-1.34.17-3.21.04-4.64-.15-.16.58-.35,1.21-.48,1.77Z"/>
  </g>
  <path class="eyepatch" d="m91.58,41.05c1.32-5.42-2.17-6.97-5.38-8.11-.58,2.34-1.31,4.42-1.59,7.06-.19,1.78-2.44,3.43-3.22,6.08,3.8.5,9.19-.91,10.2-5.03Z"/>
  <path class="eyepatchGauze" d="m82.96,43.11c1.91-.08,5.07-.4,5.87-2.93.52-1.63-.48-3.57-3.43-4.45-.72.34-.46,1.21-.72,1.81-.28.64-.77,1.41-.07,2.45-1.02.75-.88.86-.92,1.29-.06.65-.88,1.03-.73,1.82Z"/>
  <path class="hairBlack" d="m108.59,32.3c4.08,5.63,5.18,6.74,8.98,8.63,1.74,3.98,2.58,3.73,1.35,7.44,1.33.95,3.6,2.04,5.23,2.57,3.69-4.13,8.46-1.04,8.38,3.42-.1,5.32-3.74,6.02-7.24,9.27.33.87.79,1.49,1.74,2.11,7.94-1.49,18.93-14.58,19.21-26.91.32-13.77-5.11-25.91-23.92-31.77,1.34-2.51,5.56-6.11,8.66-6.73-4.56-.7-10.16,3.32-11.83,5.8-1.27-2.82-6.06-5.52-8.79-5.14,1.83.52,5.52,3.48,5.65,5.09-19.71-2.6-23.94,5.63-34.07,6.77,1.68.95,6.2,2.03,8.46,1.52-1.82,3.98-2.21,9.22-1.35,11.39.86-1.64,1.81-3.41,2.81-4.93-1.37,5.64-1.11,7.66,2.23,11.05-.44-1.52-.5-2.93.06-4.55,2.06,7.73,11.62,3.29,14.87,8.88.19-1.16.25-2.09-.43-3.92Z"/>
  <g class="hairOverlapLine">
    <path d="m117.58,40.92c1.35.55,6.3,2.7,7.35,3.5-.59-1.78-1.16-2.65-1.87-3.74"/>
    <path d="m91.86,20.84c.43-1.34,1.32-3.19,1.88-4.02"/>
  </g>
  <g class="backpackAdjusterLight">
    <path d="m175.46,167.41c-.32,2.35-1.04,3.38-1.52,3.75,0,0,0,0,0,0,.42,2.46,1.07,5.43,1.29,8.11.74-.88,1.85-2.17,2.53-2.87-.33-1.64-1.95-5.13-2.3-8.99Z"/>
    <path d="m190.79,160.45c-.11.85-.28,1.67-.52,2.39,1.05.58,2.13,1.23,3.03,1.74,1.34-.57,2.46-1.19,3.56-1.52-1.59-.5-3.92-1.65-6.08-2.61Z"/>
  </g>
  <g class="skinOverlapLine">
    <path d="m6.54,36.04c.26,1.07.84,1.7,1.48,2.41,2.52,5.86,1.62,9.37,2.29,14.15"/>
    <path d="m2.77,38.28c.65,1.44,2.09,2.39,3.35,2.84,1.23,1.12,2.44,2.51,3.66,4"/>
    <path d="m3.72,43.87c.55.37,1.45.77,2.17.82,1.76,1.53,2.75,3.2,4.11,4.14"/>
    <path d="m173.22,157.59c.77,6.2,3.52,7.1,1.62,12.26"/>
    <path d="m181.63,165.51c-.2,1.24-.44,2.4-.8,3.4"/>
    <path d="m185.78,163.24c-.2,1.22-.58,2.38-1.04,3.5"/>
    <path d="m188.77,162.35c-.18.94-.45,1.94-.88,3.05"/>
  </g>
  <g class="skinFoldLine">
    <path d="m9.53,56.58c.98.9,2.24,1.4,3,2.43"/>
    <path d="m124.44,54.36c4.94-7.56,10.68,2,1.96,6.35"/>
    <path d="m124.39,56.01c2.21,2.02-3.01,3.53-1.63,4.79.88.8.59-1.03,3.07-2.03,3.43-1.38,2.58-4.11,1.32-3.48"/>
  </g>
</svg>