<svg viewBox="0 0 124.72 250.34">
  <rect class="noStroke" x="24.56" y="199.42" width="51.25" height="50.67"/>
  <path class="skinEastAsian" d="m24.83,101.81c7.35-11.53,15.5-7.71,23.53-9.61,1.72-.57,2.18-12.58-4.49-20.69l35.21,3.22c-7.63,5.99-8.57,15.69-5.87,19.58,7.18,4.65,16.33,6.86,19.18,10.45,3.06,4.06,3.91,14.89,4.01,21.56l-16.15,24.54c-4.13,23.49,2.15,29.21-1.79,48.81l-55.17-.09c-3.77-14.67,1.35-27.05,2.26-33.87,5.01-36.04,4.26-41.66,5.33-45.74-.93.98-1.82,1.89-2.62,2.66"/>
  <g class="violin">
    <g class="violinDark">
      <path d="m65.4,122.76c3.11.47,4.37.58,7.59,1.8,5.26,2,10.27,16.79,5.06,25.09-3,4.79-7.16,6.5-12.87,6.11"/>
      <path d="m124.22,130.65c-2.96-.16-5.03.69-7.17,2.56,1.01.12,6.52-1.75,7.17-2.56Z"/>
      <path d="m122.57,132.5c-1.68-.66-2.76-.18-3.34,1.21.58.12,3.07-.73,3.34-1.21Z"/>
      <path d="m25.06,165.71c4.26.58,10.13-.64,13.21-2.9,1.75-1.29,3.91-2.23,5.67-1.64,1.51.5,2.55-1.68,1.32-2.26-2.56-1.21-.97-5.42,4.59-6.33-10.95-4.78-19.42-1.1-24.79,13.14Z"/>
      <path d="m35.05,126.34c1.17.27,2.8.53,3.95,1.21.44.26.54.84.27,1.46-.65,1.5,2.35,2.34,4.94,2.32-5.72,4.43-11.93,3.31-9.17-4.99Z"/>
    </g>
    <g class="violinMedium">
      <polygon points="117.22 132.71 104.64 135.09 103.79 129.91 116.47 128.14 117.22 132.71"/>
      <path d="m122.34,131.1c.1-.02.33,1.39.23,1.4-1.29.25-2.2.62-3.34,1.21-.17.11-.76-1.3-.54-1.39,1.05-.8,2.26-1.2,3.65-1.22"/>
      <path d="m121.78,127.66c.1-.02-.04-.98-.17-1.02-1.28-.28-2.26-.35-3.55-.08-.17.02-.28,1.02-.14,1.04,1.15.57,2.45.53,3.86.07Z"/>
    </g>
    <g class="violinLight">
      <path d="m75.3,148.73c-2.52,4.99-7.05,7.3-12.38,7.09-2.83-.11-7.05,0-7.85.77-1.06,1-2.54-.37-1.94-1.43.77-1.38-.77-2.26-1.95-2.49-2.63-.5-8.24.91-9.72,2.22-1,.88-1.41,2.57-.63,3.27,1.22,1.03.13,2.79-1.31,2.32-.93-.42-3.36.83-4.8,2.13-6.04,5.46-19.46,4.14-23.35-7.44-1.65-4.9-2.38-9.37-2.38-14.54,0-12.21,11.36-16.71,19.84-13.82,1.34.46,4.39.5,5.14-.2,1.21-.9,2.81.42,1.98,1.78-.51.92.41,2.38,1.64,2.9,1.82.77,7.59.31,9.92-1,1.05-.59,2.23-1.92,1.05-2.98-.9-.82.06-2.58,1.39-1.97,1,.46,5.04-.77,7.69-1.78,4.99-1.9,10.2-1.34,14,2.77,4.87,5.28,6.83,16.12,3.67,22.4Z"/>
      <path d="m124.22,130.65c-2.7.55-4.79,1.35-7.17,2.56-.97.5-1.95-5.31-.9-5.49,2.62-.35,4.86-.22,7.61.14.32.05.79,2.73.46,2.78Z"/>
    </g>
    <g class="violinInner">
      <path d="m115.7,129.04l-11.77,1.73.56,3.44,11.68-2.1c-.29-.89-.48-2.13-.47-3.07Z"/>
      <path d="m44.76,146.21c-.54,0-.83.19-.89.51-.08.39.1.76.49.87.38.11.78-.1.9-.49.03-.11.03-.21.02-.32.16.12.29.3.37.56.3.98-.77,1.61-1.54,1.94-.86.36-2.55,1.09-4.27,1.88l-.65-.51-.27.34.47.37c-1.35.64-2.67,1.3-3.58,1.87-.95.59-2.16,1.89-1.89,2.88.16.59.97.91,1.28.95.39.06,1,0,1.24-.45.24-.46.1-.98-.36-1.22-.46-.24-1.03-.05-1.27.41-.06.11-.09.23-.11.35-.1-.1-.18-.22-.23-.36-.26-.84.97-1.46,1.73-1.74.93-.34,2.59-1.05,4.25-1.85l.76.6.27-.34-.6-.47c1.65-.81,3.24-1.67,4.1-2.33.81-.62,1.5-1.63,1.2-2.61-.2-.65-.99-.85-1.44-.86Z"/>
    </g>
    <rect class="nut" x="102.79" y="129.99" width="1.43" height="5.25" transform="translate(-20.07 18.47) rotate(-9.3)"/>
    <g class="shinyBlack">
      <path d="m118.26,134.74c-.24-.6-.77-.75-1.78-.41l-.24-1.44-1.02.19.26,1.56c-1.14.47-1.31.83-1.36,1.23-.1.84.68,2.32,1.05,2.6.6.45,2.74-.33,3.07-.97.22-.43.16-2.4.01-2.77Z"/>
      <path d="m110.02,135.24l-.18-1.13-1.02.19.26,1.56c-.52.38-.63.87-.58,1.27.13,1.02.48,2.03.85,2.31.6.45,1.66-.48,1.83-.92s.03-1.69-.11-2.6c-.07-.46-.45-1.02-1.05-.68Z"/>
      <path d="m111.04,127.53l.22,1.33,1.03-.14-.25-1.51c.55-.34.98-.69,1.08-1.03.11-.39-.52-2.33-.9-2.63-.52-.42-2.04.25-2.46.87-.26.39-.25,2.45-.01,2.77.27.38.77.65,1.3.33Z"/>
      <path d="m104.79,129.77l1.03-.14-.25-1.51c1.09-.18,1.39-.59,1.56-.96.17-.37-.52-2.33-.9-2.63-.52-.42-3.03-.06-3.45.56-.26.39-.29,2.48-.01,2.77.28.29.69.59,1.78.41l.24,1.48Z"/>
      <path d="m17.6,127.44c2.55,1.13,3.65,5.96,2.97,10.68s-3.73,7.4-9.01,6.68c-2.83-.39-3.22-3.63-2.6-7.55.94-5.95,5.64-11.13,8.64-9.8Z"/>
    </g>
    <path class="flatBlackDark" d="m30.75,140.2c-3.59.59-2.21,9.02,1.38,8.43.65-.11-.73-8.54-1.38-8.43Z"/>
    <g class="flatBlack">
      <path d="m102.37,130.14l-54.12,7.84c-1.57.26-.4,7.43,1.17,7.17l53.79-9.83-.85-5.18Z"/>
      <path d="m30.75,140.2c-3.73.61-6.32,2.04-8.74,3.19-2.17,1.04-4.91,1.66-6.32,1.99s-4.37.97-5.44,1.24c-1.51.38-1.12,2.59.4,2.44,1.1-.08,4.11-.42,5.55-.56,1.44-.14,4.24-.42,6.63-.13,2.67.32,5.58.85,9.31.24-1.4.23-2.78-8.2-1.38-8.43Z"/>
    </g>
    <g class="tuner">
      <circle cx="27" cy="146.09" r=".69"/>
      <circle cx="27.31" cy="147.96" r=".69"/>
      <circle cx="26.39" cy="142.37" r=".69"/>
      <circle cx="26.7" cy="144.24" r=".69"/>
    </g>
  </g>
  <path class="cowboyHat" d="m55.58,9.47c6.51-6.79,11.8-11.19,18.11-8.35,6.54,2.95,12.04-6.82,25.17,16.41l-43.28-8.06Z"/>
  <path class="cowboyHatBrim" d="m63.99,73.59c28.9,12.17,50.38,2.93,50.35-22.72-1.27-22.26-14.22-43.36-38.69-43.08-8.22.1-14.13,3.11-25.03-1.01-10.63-4.02-19.26.61-25.47,13.01-10.88,21.71,1.91,56.42,38.85,53.79Z"/>
  <g class="skinEastAsian">
    <path d="m25,101.54c-6.37,10.01-26.24,24.23-24.66,30.77,2.86,11.81,19.53,9.92,31.99,10.77,4.23,1.47,4.75,5.71,11.97,5.95,3.98.13,10.87,3.04,10.79-2.99,2.12-.37,2.12-3.27,1.64-4.53,1.71-.89,1.64-4.38.22-4.75,1.79-1.04,1.12-4.48-.07-4.7.45-.97-.24-2.07-1.43-1.86-2.53.45-5.35-1.12-10.78-.15-6.95,1.24-8.49,2.31-10.92,2.16-10.55-.99-12.2-3.69-15.88-5.18,1.91-.74,4.37-1.17,6.66-1.03,1.9-1.53,4.06-3.6,6.36-6.02"/>
    <path d="m97.76,140.89c3.28,7.07.3,15.97-9.06,16.93-6.93.31-11.07-6.68-6.79-15"/>
    <path d="m95.37,147.72c-2.87-5.04,4.35-5.53,4.05-11.46-.15-1.32-.53-5.61-.53-5.61l1.82-.26c.94-4.05-2.91-4.23-3.57-5.56s-2.52-.27-2.27,1.46c-.71.07-1.18.16-1.48.49-1.01-1.19-4.56-.91-4.94.3-1.26-.68-4-.34-4.3.74-2.87-.41-3.54,1.72-3.94,3.22-2.27,11.46,3.7,10.38,2.32,16.2"/>
    <path d="m91.24,60.64c2.32,4.23-.99,9.03-4.35,11.63-2.58,1.99-3.17,5.54-6.54,3.14-4,6.67-11.49,12.17-20.07,13.44-4.37.65-8.77,1.43-12.88.03-3.85-1.31-5.01-4.65-6.79-7.33-6.81-10.28-3.63-21.02-2.53-28.88.84-6.03-.46-6.13,4.55-18.97,7.77-14.73,44.71,3.13,48.62,26.94Z"/>
  </g>
  <ellipse class="nippleEastAsian" cx="39.6" cy="121.37" rx="1" ry="1.75" transform="translate(-86.46 141.52) rotate(-81.01)"/>
  <path class="skinDisplayLine" d="m50.08,165.51c.94,4.74-3.16,3.75-1.34,0"/>
  <g class="skinOverlapLine">
    <path d="m11.92,125.55c1.37-.48,3.52.27,5.95,1.47"/>
    <path d="m32.84,107.04c.23,3.87-.97,7.76-1.95,12.92"/>
    <path d="m79.84,115.81c-.7,6.48.8,10.06.91,13.67"/>
    <path d="m94.88,126.28c2.92-.23,3.7.86,4.02,4.37"/>
    <path d="m93.4,126.77c.26,2,.12,5.37.31,8.02"/>
    <path d="m88.46,127.07c-.63,2.37-.35,5.4-.35,8.11"/>
    <path d="m84.15,127.8c-1.17,1.37-.5,5.1-.5,7.75"/>
    <path d="m50.32,132.31c2.82.14,5.32-.31,6.56-.26"/>
    <path d="m56.95,136.75c-1.5.34-4.41.42-5.94.42"/>
    <path d="m50.09,141.91c1.85.05,4.95.03,6.64-.4"/>
    <path d="m55.09,146.04c-1.98.16-3.8.19-5.52.19"/>
  </g>
  <g class="skinFoldLine">
    <path d="m84.71,63.83c3.91-6.69,8.68.91,2.05,6.26"/>
    <path d="m84.19,66.23c2.68,1.5-2.61,3.89-.95,5.17.96.74.8-1.92,2.22-2.43,3.28-1.18,2.86-4.69.79-4.33"/>
  </g>
  <path class="skinEdgeLine" d="m95.99,138.2c-3.37-.48-3.44,2.4-6.66,1.33-2.3-.77-2.85.78-4.62-.04-2.2-1.01-2.37.3-3.37-.26"/>
  <path class="lipMaleMedium__noStroke" d="m48.07,67.99c1.44.63,2.93.76,4.46.39,2.38.07,4.55,3.6,7.1,5.37-2.55,2.37-2.39,8.69-9.37,7.76-5.87-.78-2.75-6.91-5.04-9.48,2.69-1.93,1.77-2.93,2.85-4.04Z"/>
  <path class="mouthInner" d="m47.76,75.62c.38-1.06,1.03-1.75,1.87-2.14-1.28-.38-2.38-1.03-3.14-1.97-.2.13-.4.25-.6.34,1.04,1.5,1.41,2.82,1.9,3.86-.01-.03-.03-.06-.04-.09Z"/>
  <path class="tongue" d="m59.07,73.58c-.68-.21-1.26-.63-1.83-1.09-1.38-.24-3.38-.12-6.11.58-1.59.18-2.79.92-3.37,2.54.46,1,1,1.75,2.3,2.16,2.79.88,5.58-.61,9.01-4.2Z"/>
  <path class="teeth" d="m57.76,72.89c-1.36-.98-2.51-2.42-4.57-1.97-2.15.47-2.23.33-3.48-.4-1.13-.66-2.17.31-3.22.99,2.22,2.77,7.49,3.01,11.26,1.39Z"/>
  <g class="lipOverlapLine">
    <path d="m59.07,73.58c.29.09.61.14.95.14"/>
    <path d="m44.9,72.06c.34.03.67-.06,1-.22"/>
  </g>
  <g class="lipEdgeLine">
    <path d="m48.07,67.99c1.44.63,2.93.76,4.46.39"/>
    <path d="m46.52,78.24c.52,3.09,5.56,4.42,8.01,2.62"/>
  </g>
  <g class="noseLine">
    <path d="m58.18,65.94c1.62-.9,1.37-3.36.41-3.84"/>
    <path d="m52.57,65.11c1.24.19,2.33-2.3,4.11-.18"/>
    <path d="m48.06,63.35c.21.76.8,1.19,1.9,1.49"/>
    <path d="m47.91,61.11c-.89,1.13-1.13,2.87.06,3.64"/>
  </g>
  <path class="eyeFoldLine" d="m61.97,56.95c1.87,1.58,4.07,1.1,5.25.58"/>
  <path class="eyeLashLine" d="m59.97,54.65c1.35.23,1.73-1.15,5.36-.69,4.41.56,5.09,2.64,6.65,2.56"/>
  <g class="eyebrowBlack">
    <path d="m38.99,47.97c3.99-4.24,5.77-1.52,11.98-3.04-2.88,4.1-7.04.95-11.98,3.04Z"/>
    <path d="m59.33,45.96c4.31,2.07,11.04-.27,14.23,5.8-4.66-4.43-11.52-1.29-14.23-5.8Z"/>
  </g>
  <path class="eyepatch" d="m37.1,57.79c1.16,1.19,2.55,2.3,5.11,2.39,5.23.18,10.44-1.57,10.98-6.62.66-6.26-4.23-6.9-9.57-7.67-2.48-.36-3.94.25-5.04,1.29-.18,1.67-.18,3.12-.51,5.48-.22,1.57-.58,3.29-.97,5.13Z"/>
  <path class="eyepatchGauze" d="m50.11,53.25c.29-3.35-2.43-3.92-5.56-4.39-2.91-.43-5.68.62-5.9,3.93-.25,3.68,2.06,4.47,5.05,4.28,3.19-.2,6.19-1.25,6.41-3.82Z"/>
  <path class="hairBlack" d="m62.21,26.06c-18.23-2.23-18.01,3.93-26.9,2.05.55,1.33,3.03,3,4.43,2.47-4,4.33-.11,6.68-4.92,11.9,4.75-.75,9.42-3.89,11.98-11.32-1.73,12.06,4.24,9.95,8.25,13.6-.37-1.62-1.32-3.09-1.88-4.27,5.18,5.84,11.51.71,16.89,5.45-.47-1.54-.62-3.47-1.62-4.91,4.63,4.92,8.11,4.14,10.88,6.64.69,6.17,2.41,6.42,1.02,11.69.81.74,2.21,1.53,3.41,1.95,1.23-4.05,6.28-2.84,7.51-.67,1.19-7-2.46-19.77-8.27-24.58,1.53-.28,2.47-.88,3.64-1.84-9.82-1.07-7.55-6.1-24.41-8.16Z"/>
  <path class="hairOverlapLine" d="m82.16,46.7c.82,1.82.85,3.15.72,4.68-.3-.12-1.6-2.19-3.57-3.7"/>
</svg>