<svg viewBox="0 0 104.18 323.09">
  <path class="backpack" d="M16.21,153.12c-.26,7.71-.28,15.08,3.17,17.55l2.14-17Z"/>
  <g class="soleWhite">
    <path d="M81.85,316.93a5.38,5.38,0,0,1-.14,3c-3.22,2.6-17.72,2.62-21.27,1.83a55.38,55.38,0,0,0-5.65-1c-2-.12-4.95-1-5.09-1.73a5.88,5.88,0,0,1-.38-3.46Z"/>
    <path d="M45.61,315.88c.25,1.33.28,3.31-.13,3.78-3.81,4.45-20.37,3.89-23.63.45a6.3,6.3,0,0,1-.62-4.07Z"/>
  </g>
  <g class="sockWhite">
    <path d="M52.87,301.14c.35-2.64,0-5.45.4-6.53s13.95-1.09,14.36.41c.29,1.05-.46,3-.28,5.11C68.26,304.56,53.22,307.41,52.87,301.14Z"/>
    <path d="M40.91,293.85c.5,1-.41,3.74-.31,6.12,0,4.8-14.37,5.24-14.07,0-.09-2-.49-5-.19-5.83C26.74,293.05,40.49,293,40.91,293.85Z"/>
  </g>
  <g class="shoe">
    <path d="M52.46,300.24c.48,1.59,1.75,2.24,3.56,2.27,2-4.27,11.35-4.32,12.24-1.22.66-1.19,1.39-.84,1.81,0,5.64,12.15,11.85,9.46,11.78,15.59-.41,1.85-15.63,3.21-20.91,2.24-1.75-.32-4.24-.85-5.67-1-1.59-.14-5.6-1.44-6-2.68C49,311.76,50.2,302.92,52.46,300.24Z"/>
    <path d="M39.3,300.72a2.06,2.06,0,0,0,1.72-1.5c1.43,7.5,4.74,12.59,4.59,16.82-.2,5.43-23.3,5.84-24.38,0-.92-5,4.52-8.53,5.05-16.55a2.92,2.92,0,0,0,1.58,1.65C29,298.05,38.14,298.12,39.3,300.72Z"/>
  </g>
  <g class="shoelace">
    <path d="M69,304.87a16.14,16.14,0,0,0-9.54,1,17,17,0,0,0,4.09,4.37c2.22-.85,4.84-.75,7.68-.59C70.46,308.11,69.28,306.33,69,304.87Z"/>
    <path d="M37.83,305.49a23.14,23.14,0,0,0-10-.05c-.22,1.51.06,3.3-.34,4.93a20.66,20.66,0,0,1,9.09-.11C37.1,308.52,37.4,307.21,37.83,305.49Z"/>
  </g>
  <path class="shorts" d="M78.26,181.79c1.38,13.32,2.6,25.91,1.83,35.29-.52,6.29.35,12.84-.66,17.92-5.09.78-12.58,4-17.78,2.87-4.31-.91-7.84-.39-11.5-1.44-4.31,2-12.73,3.81-18.17,2.1-4.06-1.28-10.37.11-12.42-1.57-.52-6.8-.52-13.05-1-19.35a176.29,176.29,0,0,1,.81-35.43Z"/>
  <g class="hoodie">
    <path d="M102.27,63.21c-.31-4.31-4-10.73-6.65-15-1.77-2.79-.6-5-4.57-7.31.6-4.31-2.56-5.5-4.55-5.4-.65-2-.63-3.38-1.5-4.38-1.85-2.1-10.8,1.73-10.8,4.53,0,1.48.86,2.49,1.81,4.81a3.87,3.87,0,0,0-.64,2.39,6,6,0,0,0,3.06,3.34c-1.54,1.43.8,2.62.35,5.09-.4,2.18,0,4.2,1.54,4.81,2.42,4.11.14,8.57,3.41,10.24-.75.76-1.25,1.59-.63,2.72-.76,1.16-3-.82-4.67,3.34-5.1,5.55-9.07,4.46-9,7.53C66.47,78.6,65.3,81,64,82.72c-4.63-1.47,1.27,3.33-40.52,9.1C8,96.28,9,109.65,7.34,114.9c-2.71,5-3.47,12.4-3.57,20.61-9.57,11,1.95,29.8,15.46,18.13-.89,2.18-.74,5.58-.69,11.2,0,5.15-1.79,8.53.69,10.71,0,3.76-2.08,7.91-.72,8.28,16.38,3,53.13,1.71,60.3,0,.19-2.13-1.24-5.07-.74-7.5a6.19,6.19,0,0,0-.26-5.42c2.5-5.06.27-9.54-1.4-13.09a9.43,9.43,0,0,0,.24-6.54c1.53-2.38-.35-5.57-.19-8,1.25-2.41.85-4.3-.65-5.87,3.76-1.35-1.2-24.13-.65-27.26.44-4,3.2-8.81,6.59-12.63,6.32-7.13,14.07-12.48,20.59-21.46C105.84,71.27,102.52,66.74,102.27,63.21Z"/>
    <path d="M30.41,82.69s-3.57-.72-5.24,4c-1.74.44-2.89,2.34-3.52,5,11.72,10.39,25.15,7.84,30.11,9.77,6-3,16.86-13.56,4.66-21.08C50.76,76.91,36.5,77,30.41,82.69Z"/>
  </g>
  <g class="backpackStrap">
    <path d="M61.14,85.1c1.4,2.73.89,5.57-.53,8.14,7.28,9.81,13.77,23.73,17,35.17C79.74,114.8,69.27,91.76,61.14,85.1Z"/>
    <path d="M21.65,91.72h0a2.42,2.42,0,0,0-1,1.12c2.17,11.58,2.07,27.3-3.3,48.81,14.51-9.2,18.53-30.13,17.54-42.83A32.62,32.62,0,0,1,21.65,91.72Z"/>
  </g>
  <g class="backpackCreaseLine">
    <path d="M28,96.11c1.43,9.26,0,23.07-3.61,32.3"/>
    <path d="M61.89,89.6A80.09,80.09,0,0,1,73,110.14"/>
  </g>
  <path class="hoodieInner" d="M33.31,80.69c-11.76,6.12,3,14.31,10.73,16Z"/>
  <path class="zipperDisplayLine" d="M51.76,101.49c1.08,7.91,4,13.55,1.87,22.06-1.14,4.51,3.91,10.35,1.34,22.65-1.6,7.64,3.69,14.63-.71,28.13-.92,2.82-.14,5-1,11.25"/>
  <g class="clothesOverlapLine">
    <path d="M76,40.47c.81-2.73,7.26-5.19,10.49-5"/>
    <path d="M78.07,176.33c-6.72,2-49.23,3.19-58.84-.78"/>
    <path d="M76.41,157.82a22.57,22.57,0,0,1-3-6.55,296.52,296.52,0,0,1-38.65.21c-1.72,10.09-9.77,14.28-9,19,.46,2.93-.49,2.65,0,6.54"/>
    <path d="M56,302.51c1.58,0,2.51,2,3.39,3.38"/>
    <path d="M39.3,300.72c-.75.95-.78,3.16-1.47,4.77"/>
    <path d="M27.86,301.14c-.47,1.11,0,2.89-.07,4.3"/>
    <path d="M68.26,301.29c.36,1,.28,2.36.69,3.58"/>
    <path d="M50.15,236.43c.39-6.14-.39-12,0-18.82.32-5.54-.39-8.5,0-12.55"/>
  </g>
  <g class="clothesFoldLine">
    <path d="M25.17,86.7a3.39,3.39,0,0,0,1.19,3.77"/>
    <path d="M91.05,40.91a12.49,12.49,0,0,0-7-1"/>
    <path d="M78.43,46.2c2.31-3.21,7.32-1.57,3.37-3.34"/>
    <path d="M90.39,43.48a5.33,5.33,0,0,1,4.49,3.21"/>
    <path d="M80.32,56.1c1.23.27,2,1.32,3.53,1.7"/>
    <path d="M83.1,69.06c2.74,2.86,8.72,4.17,8.1,5.1C89.83,75.35,87.09,73,85,71.24"/>
    <path d="M83.85,71.86A14.82,14.82,0,0,0,88,79.45"/>
    <path d="M81.61,71.86c-.5,4.36-.25,9.77,1,13.13"/>
    <path d="M78.43,72.4C78,75.16,78,77.67,79,79.64"/>
    <path d="M73.52,77.59c-.62,1.86-.87,4.41.25,6.16"/>
    <path d="M69.45,79.93a8.65,8.65,0,0,0,.65,2.88"/>
    <path d="M64,82.72a4,4,0,0,1,2.48,2.09"/>
    <path d="M71.47,89.78a40.89,40.89,0,0,1,.34,11.09"/>
    <path d="M73.77,94.26A38.1,38.1,0,0,1,74,106"/>
    <path d="M63.5,129.05A95,95,0,0,1,44,128.93"/>
    <path d="M58.09,132.1a79,79,0,0,1-14.25-.56"/>
    <path d="M75.81,137.45c-1.22,1-2.67,1.82-1.48,4.05"/>
    <path d="M76.46,143.32c-.54.88-1.1,1.43-1.69,1.48"/>
    <path d="M76.65,151.28a3,3,0,0,0-.82,2.73"/>
    <path d="M64.44,154.63c-1.75.5-9.09.37-11.76,0"/>
    <path d="M63.13,157.18A49.49,49.49,0,0,1,49,156.5"/>
    <path d="M77.81,170.91c-1.45,1.62-4.46,2.51-8.58,2.89"/>
    <path d="M28.41,172.49c4.45,1.14,10.06,1.26,16,1.12"/>
    <path d="M26.23,160.42a10,10,0,0,0-7.71-2.18"/>
    <path d="M7,132.67c2.75,3.85,6.4,3.86,10.57,1.72"/>
    <path d="M3.77,135.51a4.48,4.48,0,0,1-.63,4.23"/>
    <path d="M3.1,145.19c.43-5.1,6.53-9.08,11.48-6.26"/>
    <path d="M7.34,114.9a20.17,20.17,0,0,0,4.07,11.63"/>
    <path d="M10.23,118c1.39,5.15,3.48,8.31,6.28,9.88"/>
    <path d="M16.66,102c1,5.54,2.52,10,5.09,12"/>
    <path d="M16.51,112.24c1.75,3.21,4.28,5.12,4.67,8.47"/>
    <path d="M63.35,191.72c.09,10.06,1.34,19.39,4.58,27.46"/>
    <path d="M28.45,186.88a63.93,63.93,0,0,1-1.31,15.3"/>
    <path d="M37.73,211.07a96.58,96.58,0,0,1-2.22,21.18"/>
  </g>
  <g class="eye">
    <circle class="sclera" cx="37.72" cy="48.09" r="16.53"/>
    <g class="irisDarkBrown">
      <ellipse cx="46.76" cy="47.82" rx="2.9" ry="2.33" transform="translate(-10.32 82.67) rotate(-77.04)"/>
      <ellipse cx="27.41" cy="44.34" rx="2.9" ry="2.2" transform="translate(-21.95 61.11) rotate(-77.04)"/>
    </g>
    <g class="pupil">
      <ellipse cx="46.37" cy="47.58" rx="1.13" ry="0.91" transform="matrix(0.22, -0.97, 0.97, 0.22, -10.4, 82.1)"/>
      <ellipse cx="26.96" cy="44.09" rx="1.13" ry="0.86" transform="translate(-22.05 60.49) rotate(-77.04)"/>
    </g>
  </g>
  <g class="skinEastAsian">
    <path d="M61.65,237.87c-3.92-.83-7.19-.47-10.5-1.19-.1,6.48,1,12.32.16,16.89-2.71,15.48,3.27,26.33,2.95,41.25,0,1,12.69,1.33,12.71.33,5.42-30.81,4.46-36.53,5.09-42.34.52-4.73,1.85-8.82,2.22-16.63C70,237.32,65.28,238.64,61.65,237.87Z"/>
    <path d="M45.87,237.94c-4.39,1.19-9.93,1.83-13.89.59-2.84-.9-6.77-.49-9.58-.73.06,8.55,1.89,16.3,1.27,21.24-1.15,9.16,1.64,22.39,3.38,35.24,0,1,13,.89,13-.11,2.19-16.13,6.12-28.58,4.48-42.89C45.29,247.89,45.15,243,45.87,237.94Z"/>
    <path d="M29.42,71.11c3.46,5,4.68,10.15,3.75,15.35,3.85,13.24,17.15,8.44,18.59,15,.83-6.08,7.23-7.09,5.4-17.27A20.6,20.6,0,0,1,61,69.36"/>
    <path d="M74.38,35.24c1.27-2.55,8.12-5.4,10.4-4.16-.86-4.07.43-9-1.4-14.88-1-3.16-1.17-6-3.3-9.2C78.55,4.68,74.71.68,73.24,2.3c-.63-.45-1.63-.63-2.43-1.25-1.51-2.26-3.61.75-2.29,3.13-1.32,1.28-.84,3.05,1.19,4.6,1.07.81,4.87,6.62,3,10.56a2,2,0,0,1-1-1.17,3,3,0,0,0-4.82-1.11c-1.59,1.36,2.63,3.78,3.31,7.62C69.83,31.41,73.38,32.71,74.38,35.24Z"/>
    <path d="M5.14,145.55c-1.24-.71-4.07,1.22-3.29,3.27a24.9,24.9,0,0,0,2.32,4.35,2.59,2.59,0,0,0,4.62-.29c.24,4,4.57,3.22,5.29,1.53.23,1.44,1.54,1.49,3.18,1.08.43,1.77,3.44,2.53,4.82.12.89-1.57,2.55-2.49,2.4-4.81,5.85.77,5.85-3.53,3.61-4.3s-2.83-2-4.64-1.64c-1.29-3.09-3-7.39-5.93-7.28-1.89.06-2.2,1.78-4.44,1.44-3.61-.86-3.57,2.41-5.2,3.09C6.43,142.77,6.47,144.86,5.14,145.55Z"/>
    <path d="M73.9,62.52A12.12,12.12,0,0,1,69.06,69c-2.56,2-4,4.41-6.77,1.54-3.81,5.23-12.53,9.54-21.19,10.07-6.39.38-6.1,1.51-12.57-.48-2.76-.85-4.47-3.38-7.39-7.3-5.47-7.31-2.88-20.48-.86-25.82,1.21-3.19.9-7.13,2.28-11.11C28.42,0,87.22,36.46,73.9,62.52ZM41.13,49.69a12.36,12.36,0,0,0,4.15,1.78c2.39.5,4.27-.17,6.29-.61A9.15,9.15,0,0,0,46,47a5.88,5.88,0,0,0-5.37,1.77C40,49.37,40.82,49.49,41.13,49.69Zm-10.36-2.8c-1.26-1.52-2.39-3.16-4.75-3.45a4.76,4.76,0,0,0-3,.84,4.14,4.14,0,0,0-.36,2.25c2.95,2.59,6.56.65,7.41.9C30.63,47.6,31.08,47.25,30.77,46.89Z"/>
  </g>
  <g class="skinOverlapLine">
    <path d="M73.24,2.3C72.18,3.5,73,5.63,74.86,6.78c1.77,1.72,2.43,3.87,2.77,7.88-1.45,3.83.26,4.49-1.06,10.16-1.16,2.87-1.1,5.41-.28,6.67"/>
    <path d="M70.81,1.05c-3.44-.28-2.5,4.62.62,5.09A15.21,15.21,0,0,1,76.06,15"/>
    <path d="M68.52,4.18c1.19,2.51,3.87,1.66,6.17,11.16"/>
    <path d="M72.68,19.34a18.23,18.23,0,0,0-2.52,5.34"/>
    <path d="M23.45,144.86a19.84,19.84,0,0,1,1,5.94"/>
    <path d="M16,142.75c2,2.67,3.18,1.95,3.32,7.16.1,3.57-.3,5-2,5.58"/>
    <path d="M11.19,144.72c2.17,4,3.17,3.62,2.89,9.69"/>
    <path d="M5.14,145.55c1.64,1,3.7,5.11,3.65,7.33"/>
  </g>
  <g class="skinFoldLine">
    <path d="M66.58,60.41c3.88-6.95,9.82,1.36,2.29,6.45"/>
    <path d="M65.9,62.16c2.56,1.68-2.12,2.88-.56,4.26.91.81.88-1.07,2.33-1.49,3.35-1,2.64-4.08.55-3.86"/>
  </g>
  <g class="skinCreaseLine">
    <path d="M67,249.64a11.06,11.06,0,0,1-7.54-.22"/>
    <path d="M38,250.3a10.63,10.63,0,0,1-7.1-.33"/>
    <path d="M74.42,18.32a2.91,2.91,0,0,0,2.67,3.09"/>
  </g>
  <g class="skinEdgeLine">
    <path d="M17.89,147.29a6.83,6.83,0,0,1-3,1"/>
    <path d="M12.7,150a6.18,6.18,0,0,1-3,.8"/>
    <path d="M5.42,147.08a4.09,4.09,0,0,0-2.52,1.43"/>
    <path d="M22.16,144.36a6.06,6.06,0,0,1-2.78.9"/>
    <path d="M23.36,152.32a4.26,4.26,0,0,1-2.7.53"/>
  </g>
  <path class="lipMaleMedium__noStroke" d="M28.34,62.31c1.75,1.23,2.63.89,4.27.64,1.76,1,2.46,3.62,5.1,6.67-2.54.18-3.68,3-7.76,2-3.75-.93-3-3.28-3.93-4C28.07,65.62,26.35,63.17,28.34,62.31Z"/>
  <path class="teeth" d="M36.64,68.84c-2.91-2.11-3.35-3.21-4.22-3.51-1.38-.48-1.6.51-3.2-.15-.16.55-1.41,1.52-2,2.08,1.22-.12,2.12.48,3.3.59C32.51,68,33.69,67.59,36.64,68.84Z"/>
  <g class="lipOverlapLine">
    <path d="M38.14,70.1a5.68,5.68,0,0,0-1.5-1.26"/>
    <path d="M27.24,67.26a3.32,3.32,0,0,0-1.63.66"/>
    <path d="M29.22,65.18c-.41-.24-.69-.59-1.19-.91"/>
  </g>
  <g class="lipEdgeLine">
    <path d="M32.61,63c-1.64.25-2.52.59-4.27-.64"/>
    <path d="M33.29,71.42c-1.47.45-4.12.58-5.51-.8"/>
  </g>
  <g class="noseLine">
    <path d="M28.7,54.9a2.52,2.52,0,0,0-.51,3.72"/>
    <path d="M38.24,56.59a2.25,2.25,0,0,1-1.15,3.8"/>
    <path d="M36.45,59.82c-.36-2.33-1.7-.29-3.53-.09"/>
    <path d="M28.51,57A2.84,2.84,0,0,0,30,59.17"/>
  </g>
  <g class="eyeFoldLine">
    <path d="M22.91,48.49c1.28,1.81,4.55,1.7,5.81,1.17"/>
    <path d="M41.85,52.35c1.29,1.52,4.6,1.88,6.36,1.15"/>
  </g>
  <g class="eyeCornerLine">
    <path d="M52.37,51.6c-.36-.16-.52-.47-.8-.74"/>
    <path d="M23,44.28c-.36.13-.52.35-.83.38"/>
  </g>
  <path class="eyeCreaseLine" d="M29.92,44.14a5.18,5.18,0,0,0-7.23-1.21"/>
  <g class="eyebrowBlack">
    <path d="M41.35,40.54c4.21,2.06,9.86.08,12.28,5.26C49.22,42.52,44.14,45.15,41.35,40.54Z"/>
    <path d="M21.54,40.49c4.52-1.48,7.91,1.8,10.85-1.76-5.05.75-7.41-1.64-10.67.44C21.66,39.61,21.6,40.06,21.54,40.49Z"/>
  </g>
  <path class="hairBlack" d="M73.9,62.52c2-4.77-4.59-9.74-7.62-4.38-1.21-.54-2.59-.7-3.42-1.46,1.58-5.92,1-5.38-1.62-12.52-4.63-2-7.73-4.64-11.32-7.21A8.2,8.2,0,0,0,51.62,40C45.75,37.94,41,35.64,38,33a5.25,5.25,0,0,0,.73,3.19C33.81,33,31.57,29,31,24.54A20.94,20.94,0,0,1,26.11,31a2.41,2.41,0,0,0,0-1.91c-1.43,1.26-2.56,3.8-3.58,6.79C16.48,27,30.62,9.58,50.31,12,81.5,14.49,87.73,45.28,73.9,62.52Z"/>
  <path class="hairOverlapLine" d="M61.24,44.16a20.1,20.1,0,0,1,3.31,2.07A12.77,12.77,0,0,0,62,42.67"/>
</svg>
