<svg viewBox="0 0 2856.19 289.5">
    <g class="rafterFront">
        <rect x="976.48" y="1" width="903.24" height="260.14"/>
        <rect x="3.1" y="1" width="903.24" height="260.14"/>
        <rect x="1949.85" y="1" width="903.24" height="260.14"/>
    </g>
    <g class="rafterBottom">
        <polygon points="1879.72 261.13 1866.41 286 990.88 286 976.48 261.13 1879.72 261.13"/>
        <polygon points="906.34 261.13 921.79 286 37.59 286 3.1 261.13 906.34 261.13"/>
        <polygon points="1949.85 261.13 1934.4 286 2818.61 286 2853.1 261.13 1949.85 261.13"/>
    </g>
    <g class="rafterSide">
        <polygon points="906.34 261.13 906.34 1 921.79 1 921.79 286 906.34 261.13"/>
        <polygon points="1949.85 261.13 1949.85 1 1934.4 1 1934.4 286 1949.85 261.13"/>
    </g>
</svg>
