<svg viewBox="0 0 1803.12 2382.83">
    <defs>
        <linearGradient id="fill__curtainSideLit" x1="0%" y1="0%" x2="100%" y2="0%">
            <stop offset="0%" stop-color="rgba(149,15,15,0.85)" />
            <stop offset="50%" stop-color="rgba(190,12,21,0.85)" />
            <stop offset="100%" stop-color="rgba(149,15,15,0.85)" />
        </linearGradient>
        <linearGradient id="fill__curtainSideDark" x1="0%" y1="0%" x2="100%" y2="0%">
            <stop offset="0%" stop-color="rgba(149,15,15,0.85)" />
            <stop offset="50%" stop-color="rgba(190,12,21,0.85)" />
            <stop offset="100%" stop-color="rgba(149,15,15,0.85)" />
        </linearGradient>
        <linearGradient id="fill__curtainRear" x1="0%" y1="0%" x2="0%" y2="100%">
            <stop offset="0%" stop-color="#000" />
            <stop offset="100%" stop-color="#be0c15" />
        </linearGradient>
    </defs>
    <path class="curtainRear" d="M1,1V2366.87s23.59,15,65.54,15c43.25,0,61-15.41,94.74-15.56,36.92.15,50.27,15.56,96.49,15.56,43.15,0,54.32-12.65,85.87-12.79,30.3.14,45.88,12.79,97.44,12.79,40.66,0,54.74-14.35,80.68-14.54,26.35.19,36.07,14.54,75.87,14.54,28.2,0,38.26-11.76,59.48-11.93,24.72.17,39.58,11.93,72.3,11.93,36,0,52-12.57,76.33-12.73,28.27.16,40.18,12.73,83.28,12.73,35.22,0,50-13.41,83.55-13.55,32,.14,49,13.55,100.59,13.55,42.16,0,47.52-12.27,76.87-12.42,25,.15,36.19,12.42,73.42,12.42,36.07,0,47.89-12.74,79.73-12.81,45.32.14,52.14,12.81,99.77,12.81,43.9,0,53.11-12.06,83.09-12.19,30.24.13,50.83,12.19,90.43,12.19,40.21,0,47.72-11.64,78.56-11.77,31.64.13,41.32,11.77,79,11.77,40.12,0,68-12.45,68-12.45V1Z"/>
    <g class="curtainSide">
        <path d="M1654.52,1V2370.05c32,0,41.62,11.78,79.55,11.78,40.12,0,68-12.45,68-12.45V1Z"/>
        <path d="M1485.53,1V2369.63c30.52,0,51.12,12.2,90.94,12.2,40.43,0,47.79-11.78,79.06-11.78V1Z"/>
        <path d="M1302.43,1V2369c46,0,52.63,12.82,100.52,12.82,44.14,0,53.21-12.2,83.59-12.2V1Z"/>
        <path d="M1149.57,1V2369.4c25.38,0,36.42,12.43,73.88,12.43,36.17,0,48-12.82,80-12.82V1Z"/>
        <path d="M972.08,1V2368.28c32.32,0,49.26,13.55,101.08,13.55,42.42,0,47.57-12.43,77.41-12.43V1Z"/>
        <path d="M805.2,1V2369.09c28.66,0,40.44,12.74,83.82,12.74,35.4,0,50.13-13.55,84.07-13.55V1Z"/>
        <path d="M656.57,1V2369.89c25,0,39.88,11.94,72.84,11.94,36.25,0,52.23-12.74,76.8-12.74V1Z"/>
        <path d="M521.25,1V2367.29c26.75,0,36.32,14.54,76.38,14.54,28.41,0,38.4-11.94,60-11.94V1Z"/>
        <path d="M343.15,1V2369c30.62,0,46.09,12.8,97.93,12.8,40.92,0,54.91-14.54,81.18-14.54V1Z"/>
        <path d="M160.76,1V2366.26c37.32,0,50.57,15.57,97,15.57,43.38,0,54.43-12.8,86.39-12.8V1Z"/>
        <path d="M1,1V2366.87s23.59,15,65.54,15c43.46,0,61.13-15.57,95.22-15.57V1Z"/>
    </g>
</svg>
