<svg viewBox="0 0 2920.97 2002">
    <rect class="stageFront" x="5.58" y="1866.76" width="2909.81" height="134.24"/>
    <polygon class="stageTop" points="2844.4 1840.46 2915.39 1866.76 5.58 1866.76 76.56 1840.46 2844.4 1840.46"/>
    <g class="prosceniumSide">
        <polygon points="158.09 140.03 196.12 163.27 196.12 1840.46 158.09 1857.03 158.09 140.03"/>
        <polygon points="2762.88 140.03 2724.85 163.27 2724.85 1840.46 2762.88 1857.03 2762.88 140.03"/>
    </g>
    <polygon class="prosceniumBottom" points="2724.85 163.27 196.12 163.27 158.09 140.03 2762.88 140.03 2724.85 163.27"/>
    <polyline class="prosceniumFront" points="2762.88 140.03 2762.88 1857.03 2887.3 1857.03 2887.3 1 33.67 1 33.67 1857.03 158.09 1857.03 158.09 140.03"/>
</svg>
