<svg viewBox="0 0 3011.48 2002">
    <rect class="stageFront" x="5.74" y="1866.76" width="3000" height="134.24"/>
    <polygon class="stageTop" points="2932.55 1840.46 3005.74 1866.76 5.74 1866.76 78.93 1840.46 2932.55 1840.46"/>
    <g class="prosceniumSide">
        <polygon points="203.35 140.03 241.37 163.27 241.37 1840.46 203.35 1857.03 203.35 140.03"/>
        <polygon points="2808.13 140.03 2770.11 163.27 2770.11 1840.46 2808.13 1857.03 2808.13 140.03"/>
    </g>
    <polygon class="prosceniumBottom" points="2770.11 163.27 241.37 163.27 203.35 140.03 2808.13 140.03 2770.11 163.27"/>
    <polyline class="prosceniumFront" points="2808.13 140.03 2808.13 1857.03 2932.55 1857.03 2932.55 1 78.93 1 78.93 1857.03 203.35 1857.03 203.35 140.03"/>
</svg>
