<svg viewBox="0 0 1309.78 2565.07">
    <path class="spireInner" d="M763.54,418.69C722,291.07,678,153.07,633.88,3.69q-55.7,207.48-111.61,415Q642.9,418.43,763.54,418.69Z" transform="translate(-0.09)"/>
    <g class="towerInner">
        <path d="M814.32,2134.83Q803.85,1447,782.73,759.15q-133.9-.21-267.83,0-.12,217.67-1.43,435.31-4.19,684.87-20.76,1369.61H819.83Q817.57,2349.45,814.32,2134.83Z" transform="translate(-0.09)"/>
        <path d="M513.07,475.28Q644,475,775,475.28q-.27-15.7-.57-31.42-131-.3-261.94,0Q512.76,459.56,513.07,475.28Z" transform="translate(-0.09)"/>
        <path d="M514.59,500.42c.41,82.65.41,160.65,0,242q133.92-.21,267.85,0c-4.49-84.32-5.49-150.32-8.11-242Q644.48,500.14,514.59,500.42Z" transform="translate(-0.09)"/>
        <path d="M750.05,365.24q-108.15-.23-216.3,0l1.08,53.42q108.12-.21,216.24,0Z" transform="translate(-0.09)"/>
    </g>
    <g class="towerOuter">
        <path d="M504.52,759.16q144.3-.23,288.6,0l-.25-16.76q-144.32-.24-288.61,0C504.36,749.11,504.42,752.46,504.52,759.16Z" transform="translate(-0.09)"/>
        <path d="M504.2,500.44q140.28-.33,280.58,0l-.45-25.13Q644,475,503.72,475.3C503.91,485.36,504,490.39,504.2,500.44Z" transform="translate(-0.09)"/>
        <path d="M503.1,443.88q140.32-.35,280.66,0c-.18-10.05-.28-15.08-.46-25.13q-140.35-.37-280.7,0Z" transform="translate(-0.09)"/>
        <path d="M533.75,365.24q108.15-.23,216.3,0c-.12-6.28-.19-9.42-.31-15.71q-108.16-.22-216.32,0C533.55,355.81,533.62,359,533.75,365.24Z" transform="translate(-0.09)"/>
    </g>
    <g class="spireOuter">
        <path d="M767.56,418.7C759,376.07,749.86,331,744.31,285.62c-7.27,46.24-13.34,91.2-20.19,133Z" transform="translate(-0.09)"/>
        <path d="M519.32,418.7c4.51-40,10.86-85.82,17.89-133.08,6.92,44.32,16.79,92.45,25.54,133Z" transform="translate(-0.09)"/>
    </g>
    <g class="window">
        <path d="M662.64,2359.89H652.23q.1-25.14.2-50.29h10.41Q662.75,2334.74,662.64,2359.89Z" transform="translate(-0.09)"/>
        <path d="M663.3,2143H652.9q0-25.16.07-50.29h10.4Q663.34,2117.88,663.3,2143Z" transform="translate(-0.09)"/>
        <path d="M663.38,1926.16H653l-.06-50.29h10.38Q663.37,1901,663.38,1926.16Z" transform="translate(-0.09)"/>
        <path d="M662.9,1709.29H652.52q-.09-25.14-.19-50.29H662.7Q662.81,1684.14,662.9,1709.29Z" transform="translate(-0.09)"/>
        <path d="M661.84,1492.42H651.46q-.15-25.14-.32-50.29h10.37Z" transform="translate(-0.09)"/>
        <path d="M660.2,1275.55H649.83q-.23-25.15-.46-50.29h10.37Q660,1250.4,660.2,1275.55Z" transform="translate(-0.09)"/>
        <path d="M658,1058.68H647.62q-.29-25.15-.59-50.29H657.4Q657.72,1033.53,658,1058.68Z" transform="translate(-0.09)"/>
        <path d="M667.86,716.09H628.41q-2.26-74.9-2.78-149.81c.7-25.95,41-27.2,39.48,0Q665.61,641.2,667.86,716.09Z" transform="translate(-0.09)"/>
        <path d="M721.85,716.12l-39.45,0q-2.25-74.9-2.75-149.82c.7-26,41-27.14,39.48,0Q719.63,641.24,721.85,716.12Z" transform="translate(-0.09)"/>
        <path d="M613.87,716.09l-39.45,0q-2.28-74.89-2.81-149.81c.7-25.94,41-27.24,39.48,0Q611.62,641.21,613.87,716.09Z" transform="translate(-0.09)"/>
        <g>
        </g>
    </g>
    <g class="hourDisplayLine">
        <path d="M610.74,815.68l-6.39-10.89" transform="translate(-0.09)"/>
        <path d="M696.78,962.66l-6.36-10.9" transform="translate(-0.09)"/>
        <path d="M582.66,844.45l-10.88-6.28" transform="translate(-0.09)"/>
        <path d="M718.53,923l10.87,6.3" transform="translate(-0.09)"/>
        <path d="M560.33,883.75h12.45" transform="translate(-0.09)"/>
        <path d="M728.44,883.74H740.9" transform="translate(-0.09)"/>
        <path d="M717.47,844.45l10.71-6.28" transform="translate(-0.09)"/>
        <path d="M583.75,923,573,929.31" transform="translate(-0.09)"/>
        <path d="M612.61,951.76c-2.44,4.36-3.66,6.54-6.09,10.9" transform="translate(-0.09)"/>
        <path d="M688.57,815.68l6.08-10.89" transform="translate(-0.09)"/>
        <path d="M649.32,792.56c.07,5,.11,7.55.18,12.57" transform="translate(-0.09)"/>
        <path d="M651.8,974.86l-.15-12.57" transform="translate(-0.09)"/>
    </g>
    <path class="handInner" d="M654.69,874.35s-6.36-1.92-9.47.3c-3.35,2.39-5.53,6.52-4.16,10.29l-30.57,24.81a5.75,5.75,0,0,1-4.35-.77c-2.36,2.32-6,7.84-9.6,13.3,6.4-1.68,13.31-3.4,15.66-4.72a6.87,6.87,0,0,1,.71-4.38l33.4-20.81c3.09,2.54,7.69,1.84,11-.55,3.11-2.22,3.41-8.88,3.41-8.88,6-5.25,9-7.87,15-13.11a6.67,6.67,0,0,0,6.86-.52,6.82,6.82,0,0,0,1.53-9.48A6.7,6.7,0,0,0,672,864.48Z" transform="translate(-0.09)"/>
    <path class="handOuter" d="M659,890s3.41-5.68,2-9.32c-1.46-3.91-4.88-7.17-8.82-6.86q-12.69-30.6-25.41-61.2a5.74,5.74,0,0,1,1.81-4c-1.64-2.93-6-8-10.37-13,0,6.71,0,13.91.67,16.56a6.82,6.82,0,0,1,4,1.89q10.46,31.43,20.89,62.86c-3.19,2.31-3.65,7-2.2,10.91,1.36,3.64,7.67,5.75,7.67,5.75l8.85,18.18a6.86,6.86,0,0,0,7.49,10.91,6.73,6.73,0,0,0,3.93-8.72,6.88,6.88,0,0,0-5.38-4.41C662.11,901.68,661.07,897.77,659,890Z" transform="translate(-0.09)"/>
    <g class="wallSideOuter">
        <path d="M809.07,2419.41l-50,.17q-.95,72.24-2,144.49h50Q808.14,2491.74,809.07,2419.41Z" transform="translate(-0.09)"/>
        <path d="M554.35,2419.58l-49.94-.17q-1.1,72.33-2.3,144.66h50Q553.29,2491.82,554.35,2419.58Z" transform="translate(-0.09)"/>
    </g>
    <g class="wallSideInner">
        <path d="M809.07,2419.41q.33-25.62.64-51.24l-49.93.16q-.31,25.62-.66,51.25Z" transform="translate(-0.09)"/>
        <path d="M504.41,2419.41q.38-25.62.74-51.24l49.93.16q-.36,25.62-.73,51.25Z" transform="translate(-0.09)"/>
    </g>
    <g class="wallFrontOuter">
        <path d="M1308.86,2490.09q-250.38,4.5-500.8,5.67-.46,34.15-1,68.31h501Q1308.49,2527.08,1308.86,2490.09Z" transform="translate(-0.09)"/>
        <path d="M503.23,2495.76q-250.34-1.17-500.63-5.67-.72,37-1.49,74h501Q502.68,2529.92,503.23,2495.76Z" transform="translate(-0.09)"/>
    </g>
    <g class="wallFrontMiddle">
        <path d="M1289.61,2490.44q.39-38,.74-76-240.61,3.93-481.28,5-.5,38.18-1,76.35Q1048.86,2494.64,1289.61,2490.44Z" transform="translate(-0.09)"/>
        <path d="M21.83,2490.44q.74-38,1.43-76,240.56,3.93,481.15,5-.57,38.18-1.18,76.35Q262.51,2494.64,21.83,2490.44Z" transform="translate(-0.09)"/>
    </g>
    <g class="wallFrontInner">
        <path d="M809.07,2419.41q.33-25.62.64-51.24,235.2-1,470.38-4.6l-.48,51Q1044.37,2418.38,809.07,2419.41Z" transform="translate(-0.09)"/>
        <path d="M504.41,2419.41q.38-25.62.74-51.24-235.14-1-470.25-4.6l-.9,51Q269.19,2418.38,504.41,2419.41Z" transform="translate(-0.09)"/>
    </g>
    <g class="ledgeSide">
        <path d="M810,2344.06q-25,.09-49.92.15l-.3,24.12,49.93-.16C809.83,2358.52,809.89,2353.7,810,2344.06Z" transform="translate(-0.09)"/>
        <path d="M505.49,2344.06q25,.09,49.92.15c-.13,9.65-.2,14.47-.33,24.12l-49.93-.16C505.29,2358.52,505.36,2353.7,505.49,2344.06Z" transform="translate(-0.09)"/>
    </g>
    <g class="ledgeFront">
        <path d="M1295.07,2363.34q-242.67,3.81-485.36,4.83c.12-9.65.18-14.47.29-24.11q242.65-1,485.28-4.73C1295.2,2348.93,1295.15,2353.73,1295.07,2363.34Z" transform="translate(-0.09)"/>
        <path d="M19.92,2363.34q242.61,3.81,485.23,4.83c.14-9.65.21-14.47.34-24.11q-242.58-1-485.15-4.73C20.17,2348.93,20.09,2353.73,19.92,2363.34Z" transform="translate(-0.09)"/>
    </g>
    <rect class="stepTop" x="540.91" y="2451.07" width="228" height="38"/>
    <rect class="stepMiddle" x="526.91" y="2489.07" width="254.77" height="38"/>
    <rect class="stepBottom" x="515.91" y="2527.07" width="278" height="37"/>
    <path class="spireOuter" d="M1179,2501.07c2-42-28-63-68-50-23-35-71-43-101-12-25-17-54-9-68,10-47-13-87,12-85,59-24,9-34,34-21.26,56h368.07C1222,2536.07,1207,2509.07,1179,2501.07Z" transform="translate(-0.09)"/>
    <g class="bushSmall">
        <path d="M940,2508.07c-48,0-65,41-41.12,56h79.06C1000,2548.07,982,2508.07,940,2508.07Z" transform="translate(-0.09)"/>
        <path d="M93,2510.07c-44,1-58,43-37.29,54H127.4C147.41,2548.64,131.09,2510.07,93,2510.07Z" transform="translate(-0.09)"/>
    </g>
    <g class="bushMiddle">
        <path d="M1123,2494.07c-20-36-65-36-91-2-46,2-71,40-60.19,72H1170C1180,2530.07,1158,2496.07,1123,2494.07Z" transform="translate(-0.09)"/>
        <path d="M177.17,2501.07c-49.17,2-67.28,44.43-42.78,63h89.14C250.48,2549.12,238,2497.07,177.17,2501.07Z" transform="translate(-0.09)"/>
    </g>
    <path class="bushSmall" d="M267.22,2511.07c-44.22,0-59.22,41-37.45,53h72C321.88,2548.92,310,2513.07,267.22,2511.07Z" transform="translate(-0.09)"/>
    <path class="bushMiddle" d="M348.62,2500.07c-50.62,0-65.62,46-41.73,64h87C420.14,2549.57,406,2500.07,348.62,2500.07Z" transform="translate(-0.09)"/>
    <path class="bushSmall" d="M433.18,2511.07c-42.18,1-54.18,39-32.63,53H465C487.7,2547.39,473.65,2508,433.18,2511.07Z" transform="translate(-0.09)"/>
</svg>
