<svg viewBox="0 0 1499.61 527.84">
    <g class="graveLight">
        <path d="M834,34.28c-8.63,5.74-13.65,15.11-21.55,21.45-6.23,5-6.4,12.13-7.76,18.64-3.78,18.08-6.82,36.31-10.15,54.47a10.72,10.72,0,0,0,4,2.09c12,2.45,24,5.17,36.25,7.85.09-1.09.26-2.27.26-3.44q0-48.49,0-97a26.27,26.27,0,0,0-.48-3.5S834.88,33.71,834,34.28Z"/>
        <path d="M1011.06,93.34c-4.5,1.34-9,2.52-13.49,4-20.05,6.78-22.45,22.24-22,39,.15,5.5.54,11,.76,16.49.28,6.8,1,13.73,1.8,20.76h34.36c1-1.66.52-3.25.52-4.75q.06-35,0-70c0-1.87,1-4.2-1.45-5.5Z"/>
    </g>
    <g class="graveDark">
        <path d="M991.94,151.34c1.64,4,1.44,8.28,1.56,12.5.19,6.69.58,7,7.16,7,16.75,0,33.51-.12,50.26.09,4.08,0,5.29-1,5.24-5.09-.24-19-.45-38,.09-57,.17-6.28-3.34-9.73-7.48-12.35-9.37-5.92-19.66-7.2-30.71-4.28-8.72,2.3-13.49,8.73-17.76,15.22-7.73,11.76-9.87,25.08-8.24,38.89a11,11,0,0,1-.12,4.51Z"/>
        <path d="M834.81,34.34c1.35,5.86,6.37,9.66,8.83,14.95a25.94,25.94,0,0,0,5.17,7.9c6.53,6.06,6.28,13.61,5.93,21.15-.6,12.84-1.17,25.72-2.65,38.48-1.06,9.17-.35,18.46-2.42,27.69-10.78-2.23-21.55-4.42-32.3-6.69-2.7-.57-3.91-2.48-3-5,2.66-7.47,2.68-15.35,4-23,1.49-8.79,2.47-17.65,3.66-26.49.86-6.33,1.25-12.77,2.67-19,2.26-9.79,4.52-19.64,9.64-28.53Z"/>
    </g>
    <g class="graveDark">
        <path d="M183.49,334.85a90.72,90.72,0,0,0-9-28c-4.84-9.68-12.83-15.36-23.91-14.39-8.41.74-16.95,1.92-24.61,5.89,3.78,14,7.44,27.46,11.1,41,1,3.67,2.41,7.28,2.88,11,.51,4,2.2,3.09,4.63,2,12.81-5.72,25.65-11.36,38.49-17C183.06,335.34,183.7,336.4,183.49,334.85Z"/>
        <path d="M479.06,166.34c-5.45,1.11-11.16,0-16.48,2-1.64,3.55-1.54,7.28-1.53,11q0,33,0,66c0,2-.21,4,.64,6.2,15.39-3.89,30.85-7.89,46.38-11.61,2.76-.66,2.59-2.26,2.45-4.09-.43-5.5-.79-11-1.52-16.49-1-7.15-1-14.41-1.1-21.51-.14-8-4.37-13.58-7.43-20-1.22-2.55-3.6-4.54-4.84-7.08-2-4-5-5-9.09-4.51a60.33,60.33,0,0,1-7,.05Z"/>
    </g>
    <g class="graveLight">
        <path d="M462.56,167.84c-7.78,7.14-13.08,16.25-18.17,25.19-2.3,4.05-1.08,10.14-1.32,15.31-.55,12.33-1.4,24.67-1.28,37,0,3.68-1.44,7.34-.43,11.6,5.09-1.07,9.91-2,14.69-3.11,7.18-1.62,14.29-3.63,21.53-4.86,3.72-.64,4.94-2.2,4.47-5.63-1.36-10,.2-20-1.24-30a49.31,49.31,0,0,1,.31-12.46,15.9,15.9,0,0,0-2.67-10.44c-4.84-7.71-10.23-15.07-15.39-22.57Z"/>
        <path d="M124.06,297.34c-8.29,3.52-13.75,9.75-17,18a30.72,30.72,0,0,0-1.38,16,139.69,139.69,0,0,0,9.49,34.4L164.92,347c-4.34-14.19-8.12-28.83-18.36-40.64-5.82-6.72-13.36-9.19-22-9Z"/>
    </g>
    <path class="meadowNear" d="M1.06,526.84h1497.5q0-115,0-230c0-5.59-1.6-9-6.92-12.23-14.76-8.85-30.24-16.3-45.73-23.56-23.7-11.11-47.67-21.66-71.41-32.69-14.61-6.78-29.39-13.22-44-20.06-12.7-6-25.59-11.47-39.06-15.34-10.16-2.92-20.62-4.81-31-7.11-12.83-2.86-25.59-6.14-38.53-8.37-11.41-2-22.89-3.69-34.46-4.75-10.33-.94-20.65-1.57-31-2-13.5-.62-27-1.35-40.5-2-13-.63-26-1.11-39-2-18.84-1.32-37.65-1.73-56.51-1.92-6.4-.06-12.62,1.38-19,1.17a113.85,113.85,0,0,0-22.5,1.45c-9.77,1.61-19.7,1.8-29.53,2.69-11.2,1-22.41,1.61-33.47,3.8-5.17-3.06-10.4-.75-15.49.09-7.83,1.31-15.72,2.37-23.55,3.66-7.44,1.22-15,2.21-22.46,3.25-8.2,1.14-16.35,2.72-24.53,3.78-7.51,1-14.95,2.39-22.47,3.27-8.22,1-16.35,2.67-24.53,3.73-7.51,1-15,2.23-22.46,3.3-10.2,1.46-20.39,3-30.55,4.69-7.43,1.24-15,2.19-22.46,3.23-8.2,1.14-16.35,2.67-24.53,3.79-7.49,1-15,2.17-22.47,3.21-8.2,1.14-16.35,2.72-24.53,3.78-7.51,1-15,2.3-22.46,3.29-8.2,1.09-16.41,2.17-24.54,3.79-3.33.67-7-.19-10.47-.36-9.26-.43-18,2.57-27,4.06-11.71,1.93-23.33,4.35-35,6.42-8.69,1.53-17.32,3.45-25.95,5.22-9.4,1.93-18.88,3.7-28.08,6.7a190,190,0,0,1-22,5.53c-9.67,1.92-18.91,5.32-28.48,7.59-8.53,2-17.16,3.64-25.52,6.43q-26.78,9-54,16.62c-22.59,6.37-45.22,12.68-67.44,20.17-12,4-23.85,8.48-35.65,13.1-16.72,6.54-33.14,13.91-50,19.9-13.32,4.73-25.63,11.78-39,16.08-19.69,6.36-37.73,16.24-56.43,24.72-10.92,5-22,9.77-32.43,15.6-11.08,6.18-22.73,11.41-33.08,18.86l-.5.5c-2.49-1.12-3.8,1.13-5.46,2.07-2.81,1.58-5.2,4-8.09,5.33C1.37,416.69,1,418.81,1,421.84Q1.11,474.34,1.06,526.84Z"/>
    <g class="graveLight">
        <path d="M670.06,381.34c3.09,1.62,6.29,1,9.5.51,4.09-.59,4.28-3.93,5.62-7,10-22.62,18.93-45.71,28.27-68.6,8.33-20.43,16.44-41,24.83-61.37,9.41-22.86,18.58-45.84,28.23-68.61,6.74-15.9,13-32,19.6-48,1.26-3,.81-4-2.53-4.62-6.78-1.28-13.42,0-20,.72-15.56,1.66-30.86,5.07-46,9-9,2.32-15.89,8-21.57,15.36-6.46,8.37-12.18,17.23-17.83,26.12a38.43,38.43,0,0,0-4.68,11.41c-.79,3.15-3.18,4.47-6.44,4.54-10.57.23-21,1.94-31.5,3-4.9.49-6.28,3.18-5.53,9.48,1.55,12.91,3.45,25.75,5.92,38.52,2,10.4,3,21,4.63,31.48,1.41,9.35,3.35,18.63,4.36,28,.89,8.19,2,16.34,3.12,24.49.4,2.86-1.46,4.34-3.52,5.47-7.34,4-10.57,11.08-11.16,18.56a123.65,123.65,0,0,0-.31,16.47,5.47,5.47,0,0,0,3.42,5.13,93.71,93.71,0,0,0,25.59,8.74c2.43.47,4.71,2.83,7.48,1.13Z"/>
        <path d="M587.56,218.84c-.85-1.77-.49-3.66-.49-5.5q0-92.49.07-185c0-3.77-.74-6.12-4.54-7.6a83.11,83.11,0,0,1-11.52-5.94,9,9,0,0,0-8.55-.54c-6.06,2.44-12.3,4.43-18.47,6.58-2.88,1-4.07,2.92-4,6q.12,14.79,1.66,29.49c.21,2,.15,4,.38,6,.83,7.33.81,7.21-6.5,8.53C528,72.23,520.59,74,513,75.25c-3.31.54-4.25,2.2-4,5.09,1,9.84,1.25,19.74,2.93,29.51.39,2.27-.12,4.68.1,7,.28,2.9,1.32,4.35,5,3.62,10.1-2,20.33-3.35,30.47-5.17,3.62-.65,4.6.76,4.54,4-.11,6.17-.34,12.35,0,18.5.52,8.34,1.27,16.63.46,25-1.14,11.81,0,23.67-.26,35.51-.18,8.86-.71,17.67-1.4,26.5,4.66,3.35,10.37.86,15.12,3,7.9,3.56,12.5-2.56,18-6a29.45,29.45,0,0,0,3-2.48Z"/>
        <path d="M260.56,179.34c-9.5,4.51-19.52,7.9-28.51,13.49-7.57,4.71-12.56,10.92-14.66,20-2.56,11-.7,21.43,1.62,32,3.66,16.74,10,32.55,16,48.52,4.33,11.58,8.93,23,13.51,34.5,1.16,2.9,3.15,3.3,5.56,2.93,6.66-1,13.24-2.55,20-3.05,2.86-.22,5.17-1.61,3.55-5.43-1.47-3.47-.77-7.33-1.32-11-1.62-10.91-1.94-22-3.3-33-1.53-12.32-2.73-24.66-4-37s-2.71-24.66-4.08-37c-.91-8.17-1.07-16.51-3.31-24.52Z"/>
    </g>
    <g class="graveDark">
        <path d="M572.56,123.34c.66,10.84,2.07,21.69,1.78,32.5-.26,9.84,1.53,19.65-.14,29.53-.83,4.86.36,9.93,0,15-.62,8.8.22,17.67-.63,26.49-.07.67-.35,1.5,1.47,2.59,16.4-3.79,33.56-8.17,51.28-11.22,2.22-3.7-.05-7.66-.45-11.35-2.6-23.8-5.74-47.54-6.37-71.52-.21-8-1-16-1.45-24-.18-2.93.78-4.52,4-5.64,7.85-2.77,16-4,24-5.84s9.45-3.63,8.5-12c-1.17-10.17-2.51-20.32-3.42-30.51-.38-4.28-1.82-5.09-6.1-4.65-10.9,1.12-21.65,3.17-32.5,4.8-.42-6.31-1.52-12.41-1.54-18.64a161,161,0,0,0-2.31-25.52c-.53-3.19-2.09-4.11-4.63-3.93-10.17.72-20.33,1.68-30.51,2.37-1.12.07-2.14.55-3.53.27-3.31-.68-5.23,1.6-4.89,4.8.76,7.34.83,14.74,2.3,22,.88,4.37.29,9,.86,13.51.39,3-.23,6.3.7,9.48.48,1.65.09,2.72-2.41,3.11-10.88,1.7-21.69,3.85-32.52,5.88-3.74.7-5.77,3.38-5,7,2.13,9.57,1.78,19.37,3,29,.35,2.85.92,5.68,1.42,8.64,12.85,1.68,25.3-3.16,37.88-2.6.25,3.64.46,6.8.68,10Z"/>
        <path d="M277.56,327.34c11.19-5.27,22.2-10.93,33.43-16.14,16.76-7.78,33.06-16.55,49.58-24.83a29.71,29.71,0,0,0,6.81-4.79c-6.42-12.7-10.58-25.95-15.52-38.85a363.44,363.44,0,0,0-17.28-38.9,64.67,64.67,0,0,0-27.07-27.41c-10.95-5.93-22.76-6.35-34.4-2.42a49,49,0,0,0-15.19,7.67c-11.44,9-13.16,21.75-14.85,34.67-1.83,14,2,27.52,4.76,40.94,1.9,9.14,6.49,17.69,9.7,26.57,4.69,12.95,11.59,24.89,17,37.52a14.12,14.12,0,0,0,3.57,5Z"/>
        <path d="M922.06,177.84a68.17,68.17,0,0,0-3.18-24c-1.58-5.28-7-6.3-11.81-5.89-5.83.5-11.74.41-17.54,1.73a9.49,9.49,0,0,1-9-2.33c-9.12-8.43-20-14.05-31.46-18.51a114.85,114.85,0,0,0-36-7.61c-18.36-1-36,2.65-53.5,7.58-.55.16-1,.68-1.51,1-4.16,2.34-8.41,4.53-12.48,7-12.91,7.92-20.59,20.36-28,33-1.88,3.21-3.32,6.67-5.05,10-1.58,3-4.79,2.92-7.49,3.45-5.3,1-10.67,1.67-16,2.58-3.19.55-6.35,1.26-9.5,2-7.25,1.67-8.68,3.74-6.95,11,1.65,6.93,1.68,14,2.89,21,1.88,10.8,3.45,21.65,5,32.49,1.1,7.49,1.79,15,3.07,22.49,1.6,9.29,2.4,18.66,3.56,28,1.48,11.85,2.44,23.78,4.8,35.53.39,1.94,1.06,4.69-1.44,5.94-8.12,4.06-8.89,11.31-8.43,19,.29,5,1,10,1.43,15,.16,2,.05,2.88,3,2.69A247.57,247.57,0,0,0,722,376.56c12.8-2.71,25.82-3.82,38.58-6.63,10.4-2.28,21.12-3.18,31.43-5.77,8.14-2.05,16.43-3.22,24.58-5.19,12.38-3,25-4.86,37.45-7.7,12-2.76,24.11-5.19,36.1-8.08s24.46-5.23,36.38-9c10.41-3.25,21.09-5.35,31.59-8.18,3.3-.88,6.76-1.36,9.94-2.73,9.1-3.92,11.68-7,7-16.49-4.9-10-11.33-17.9-23.52-18.46-4.5-.21-9,1.33-13.91-.46-5-36.2-10-72.89-15.09-109.57Z"/>
    </g>
    <g class="graveDark">
        <path d="M1355.56,48.84a28,28,0,0,1,.48,3.5q0,31.5,0,63c0,.68.35,1.5-1.36,2.52-11.42-.35-23.63,1-35.71-3.8-8.45-3.34-17.83-4-26.91-5.24-2.56-.35-5-1.23-7.53.48-2.36,1.6-3.63,2.77-2.07,6.09,11.18,23.91,22.07,48,33.11,72,4.93,10.7,10,21.35,15,32,1.18,2.48,1.1,4.69.79,7.54-.82,7.39-2.39,14.64-3.49,21.94-1.4,9.36-2.59,18.78-4.69,28.06-1.6,7-1.89,14.35-3.18,21.46-1.72,9.49-2.94,19.06-4.73,28.55-1.33,7.07-2,14.34-3.27,21.45-1.72,9.49-3.08,19.05-4.69,28.56-1.19,7.1-2.19,14.3-3.32,21.44-1.18,7.52-2.56,15.05-3.66,22.55-1.08,7.31-1.93,14.73-3.44,21.93-2.15,10.19,4.94,17.34,7.25,26,.4,1.48,2.32,1.77,3.91,2.05a165.19,165.19,0,0,0,30.51,2.43c9-.13,18-.58,27-1,11.35-.5,22.86.05,34-2.65,5.57-1.36,11.61-2,16.21-6.67a11.87,11.87,0,0,0,3.13-6.21c2.14-10.92,1.45-22,.18-33-.62-5.44-1.37-10.94-3.55-16-3.65-8.43-10.76-14.06-18.08-18.8-5.11-3.32-6.15-7.24-5.28-12.21,1.46-8.3,1.35-16.73,2-25.05.54-6.59.61-13.4,1.57-19.94,1.67-11.35,2.21-22.87,5.11-34.08a48.92,48.92,0,0,0,1.65-11,7.45,7.45,0,0,1,2.16-5.18c5.15,3.91,11.26,1.71,16.93,2.55,8.42,1.24,17,.76,25.48.24,4.49-.28,9,.59,13.54-.42,2.54-.56,3.42-1.62,4-3.69,4.8-18.5,12-36.23,17.54-54.49,1.53-5,3.47-10,5.2-14.93,1.93-5.56-.45-9.27-3.85-11.94-9.4-7.35-19-14.51-29.85-19.72-3.42-1.64-6.41-4.21-9.53-6.44-1.37-1-1.65-2.08-1.11-4a441.5,441.5,0,0,1,16.58-47c2.93-7.12,5.74-14.3,8.49-21.5a6.31,6.31,0,0,0-1.41-7c-4-4.43-9.29-6.76-14.08-9.91-9.27-6.09-18.47-12.33-28-17.93-7.83-4.59-16.73-6.81-25.46-9-13.09-3.31-26.31-6.12-39.5-9-1.26-.28-3-.71-4,.93Z"/>
        <path d="M1125.06,3.34c-3.89.26-3,3.19-3,5.5q0,66,0,132,0,19,0,38c0,2,.12,3.32,2.42,4.65,7.07,4.09,13.71,8.92,20.63,13.29a7.84,7.84,0,0,0,4.46,1.11c11.06-.41,22-2,33-2.89,3.57-.28,4.28-2.19,5-4.66,2.78-10.1,5.44-20.21,7.78-30.44,4-17.25,7.6-34.49,9.78-52.05,1.21-9.68,4-19.22,3.84-29-.25-12.21-.57-24.56-5.89-36-5.46-11.74-12.53-21.82-25.47-26.57-13.73-5-27.51-9.76-42-11.91-3.31-.5-6.66-.69-10-1Z"/>
    </g>
    <g class="graveLight">
        <path d="M1318.56,130.34c-10.54-6.56-21-13.23-32-19-3.2-1.69-5.33-1-7,2-4.38,7.79-7.23,16.23-10.57,24.47-4.68,11.55-7.79,23.53-10.94,36.06,12.13,11.62,26.62,20.66,40.69,30.59q-16.29,69.33-26.51,140.19c-12.17-2.9-20.08,2.64-26.67,11.19-9.69,12.58-17,26.69-25.4,40.06-1.65,2.6-1.74,5.55.83,8.51a193.48,193.48,0,0,0,38,34c8.79,5.9,16.84,12.91,25.63,18.82,6.82,4.58,12.88,10.37,20.9,13.18,4.45,1.57,5.28,1.7,6.49-2.59q4.18-14.94,8-30c2.43-9.53,4.82-19,8.79-28.1,2-4.58,1.61-10.23,2.23-15.4,1.36-11.5,2.25-23.07,4.11-34.48,2.31-14.15,4.21-28.36,6.5-42.5,2.53-15.64,4.25-31.41,7-47a197.18,197.18,0,0,1,7.09-28.73c19,12.41,32.71,31.1,52.21,42,2-.76,2.78-1.84,3-3.26,1.37-7.78,3.77-15.4,5.16-23.06,2-10.94,5.26-21.38,8.36-31.94q2.49-8.51,5-17c2-6.65,1.3-9.08-4-13-10.17-7.47-21.08-13.74-32-20.06-5.64-3.27-11-6.94-17-10.71,10.06-28.05,22.87-55.06,34.16-83.2-7.48-5.54-15-11-23.49-15.41-9-4.69-17.69-10.27-26.71-15.11-1.24-.67-2.87-1-3.88-1.68-2.79-1.81-3.93-.76-5.12,1.64-8.3,16.76-16,33.71-22.25,51.42-3.3,9.37-5.15,19.34-10.18,28.12C1318.68,131.13,1318.56,130.34,1318.56,130.34Z"/>
        <path d="M1150.73,173.9c4-12,5.41-24.42,8.14-36.6,2.09-9.29,2.48-19,3.7-28.46,1.45-11.34,3.6-22.62,4.36-34,1.47-22.15-2.43-43.13-19-59.35-9.15-8.93-21.19-13.62-33.88-14.4a38.63,38.63,0,0,0-29.55,10.69c-8.71,8.15-16.7,16.88-21.8,27.64a190.37,190.37,0,0,0-12.55,35c-4,15.92-8.29,31.84-10.83,48-2.49,15.8-5.87,31.37-9.15,47a12,12,0,0,0,.72,8.16c7.68-2.12,15.22-.65,22.67-.07,13,1,26,1.92,39,3.78,17.79,2.56,34.85,7.18,51,15.11C1143.56,196.34,1148.16,181.63,1150.73,173.9Z"/>
    </g>
    <g class="graveEdgeLine">
        <path d="M936.56,289.34c-13,5.72-27,7.77-40.52,11.45-11.93,3.24-23.92,6.34-36,9-9.74,2.11-19.76,3-29.45,5.23-8.64,2-17.38,3.44-26,5.33-8.46,1.84-16.89,3.8-25.48,5.14-8.41,1.32-17,2.76-24.9,5.7a66.31,66.31,0,0,1-13.66,3.34c-9.6,1.35-18.77,4.63-28.44,5.45-5.38.46-10.67,1.94-16,2.89-4.71.84-9-1.37-13.5-2-11.84-1.77-23.51-4.23-34-10.45"/>
        <path d="M1272.06,343.34c-.5,3-1.47,6-1.4,9,.12,5.08,2.55,9,6.87,12.05q24.57,17.16,47.54,36.43c4.3,3.59,9.33,4.69,15,5.2,12,1.08,23.93,2.76,36,2.89,3.33,0,6.44-1.4,10.07-.31,2.62.78,5.88-3.69,5.88-7.26,0-5.33-.33-10.66-.42-16a27.42,27.42,0,0,1,.47-4"/>
        <path d="M1443.56,173.84c-13.21-3-26.56-4.91-40-6.63-9-1.16-17.89-3.16-27-3.37"/>
        <path d="M1468.56,95.84c-11.72-3.89-23.41-7.91-35.51-10.45-7.8-1.64-15.5-3.91-23.49-4.55"/>
        <path d="M1486.06,206.34c-3.71-3.36-8.7-3.22-13-3.79-13.74-1.81-27.51-4-41.47-3.21"/>
        <path d="M507.06,192.34c-.69-2-1.88-1.35-3.52-1.1-7.3,1.07-14.65,1.77-22,2.6"/>
    </g>
</svg>
