<svg viewBox="0 0 1130.83 1859.78">
  <path class="wallLowSide" d="M717.11,50.77c-332-2.67-380.84,1.36-712.65,12.11,40.7,247.36,29.61,1333.68,1.13,1795.9H715.35C740,1345.28,737.47,460.66,717.11,50.77Z"/>
  <path class="wallLowFront" d="M1026.2,485.32q-3.17-215-9.36-430.11Q867,52.13,717.11,50.77c20.36,409.89,22.92,1294.51-1.76,1808h305.87C1032.56,1420.72,1032.48,912.91,1026.2,485.32Z"/>
  <path class="doorLightFront" d="M850.5,1330.4q-38.06.24-76.12.42-4.47,264.06-14.65,528h80.89C845.73,1691,848,1490.13,850.5,1330.4Z"/>
  <g class="frameLightFront">
    <path d="M995.7,1345.94q-2.18,153.88-5.93,307.73-55,.87-109.95,1.59,4.2-154.18,6.64-308.41Q941.08,1346.43,995.7,1345.94Z"/>
    <path d="M774.38,1330.82c.18-10.72.26-16.08.43-26.81q38-.18,76.09-.39c-.15,10.71-.23,16.07-.4,26.78Q812.45,1330.64,774.38,1330.82Z"/>
    <path d="M864.26,720.59q.15,18.45.28,36.9l-94.15-.23q-.14-18.48-.3-37Q817.18,720.43,864.26,720.59Z"/>
    <path d="M994.39,721.12q.14,18.4.25,36.82-47.08-.2-94.15-.34-.13-18.44-.27-36.88Q947.31,720.9,994.39,721.12Z"/>
  </g>
  <g class="frameLightSide">
    <path d="M685,1347.9q-2.94,154.62-7.93,309.18-133.55.69-267.07.25,6-154.61,9.57-309.3Q552.29,1348.29,685,1347.9Z"/>
    <path d="M659.12,720.1q.18,18.49.33,37-72.35-.08-144.7-.07-.16-18.51-.36-37Q586.75,720,659.12,720.1Z"/>
  </g>
  <g class="windowFront">
    <path d="M995.39,1367.84q-2,132.51-5.12,265-54.94.86-109.89,1.54,3.51-132.78,5.73-265.59Q940.74,1368.37,995.39,1367.84Z"/>
    <path d="M864.26,720.59q-47.09-.17-94.17-.28-1.41-153.94-4.74-307.85c-.31-31.15-3.77-124,44.36-123.8s49.18,92.15,50.2,124.48Q863,566.86,864.26,720.59Z"/>
    <path d="M994.39,721.12q-47.08-.21-94.17-.4Q899,567.07,896,413.47c-.23-30.63-3.76-124.87,44.71-123.37,48.83,1.51,48.89,90.8,49.85,124.36Q993.27,567.78,994.39,721.12Z"/>
  </g>
  <g class="windowSide">
    <path d="M662.63,1370q-2.7,133.17-7,266.3-111.39.46-222.78.19,5-133.15,8.13-266.37Q551.83,1370.26,662.63,1370Z"/>
    <path d="M659.12,720.1Q586.76,720,514.39,720q-1.73-154.15-5.77-308.28c-1-44.31,10.84-123.9,69.13-124.38,58-.49,75.11,80,76.18,124.59Q657.58,566,659.12,720.1Z"/>
  </g>
  <g class="windowDisplayLine">
    <path d="M437.43,1503.29q111.06.21,222.13-.16"/>
    <path d="M514,1370.16q-3,133.24-7.75,266.42"/>
    <path d="M588.4,1370.12q-2.86,133.23-7.35,266.4"/>
    <path d="M883.58,1501.6q54.78-.57,109.55-1.25"/>
    <path d="M653.93,411.94q-72.66-.21-145.31-.21"/>
    <path d="M586.75,720q-1.63-154.15-5.48-308.26"/>
    <path d="M657.07,566q-72.48-.15-145-.15"/>
    <path d="M581.27,411.77q-23.22-50.89-46.68-101.68"/>
    <path d="M581.27,411.77q20.6-50.74,41.05-101.53"/>
    <path d="M859.91,413.14q-47.28-.37-94.56-.68"/>
    <path d="M817.18,720.44q-1.35-153.86-4.55-307.67"/>
    <path d="M862.54,566.86q-47.16-.27-94.32-.48"/>
    <path d="M812.63,412.77C802.4,378.86,792.11,340,781.74,306.1"/>
    <path d="M812.63,412.77c8.78-33.71,17.51-72.44,26.21-106.18"/>
    <path d="M990.58,414.46q-47.28-.54-94.56-1"/>
    <path d="M947.31,720.91q-1.18-153.49-4-307"/>
    <path d="M992.89,567.78q-47.16-.37-94.33-.7"/>
    <path d="M943.3,413.93c-10.14-33.87-20.35-72.72-30.62-106.56"/>
    <path d="M943.3,413.93c8.86-33.6,17.69-72.22,26.49-105.84"/>
  </g>
  <path class="signOuter" d="M758.93,985.76q185.45-.19,370.9-.57,0,27-.1,54.06l-15.09.06q-.06,27-.16,54.1l-16,.09q-.3,75.78-.85,151.55-170.24,1.92-340.47,3Q758.65,1116.93,758.93,985.76Z"/>
  <path class="signInner" d="M1079,1226.17q-151.18,1.56-302.36,2.53,1.14-111,1.45-222.06Q929,1006.4,1080,1006,1079.78,1116.1,1079,1226.17Z"/>
  <g class="letterLarge">
    <path d="M965.84,1028.26c-26.57-.64-31,32.11-31,51.86-.12,19.91,3.75,53.08,30.55,52.93,14.91-.62,24.77-13.48,24.52-28l-7.55-2.22c-3.3,12.26-7.61,17-16,15.81-12.05-7.15-9.27-27.06-9.16-38.61.1-11.16-1.49-30.29,10.47-37.06,6-1.89,12.82,5.86,14.92,16.38l7.57-1.16C992.5,1042.81,981.5,1028.45,965.84,1028.26Z"/>
    <path d="M833.1,1029.62c39.59-1,39.19,60.12-.24,57.77h-3.73q-.12,22-.27,44l-25.7.12q.35-50.93.52-101.86Zm5.56,29.45c-.55-14.57-3.94-20-9.7-20.31q-.08,19.83-.17,39.67C836.48,1076.24,838.62,1070.1,838.66,1059.07Z"/>
    <path d="M1031.65,1028.06c26.66,1.09,28.66,33.94,28.38,54-1,18.71-5,48.4-28.77,49.59-25.59,1.28-29.9-31.13-30.17-49.84C1001.39,1061.21,1004.45,1028.56,1031.65,1028.06Zm-8.51,51.82c-.13,11.8-2.47,26.76,6.29,36.22,9.41-8.86,8.39-24.95,8.08-36.85.43-11.45,2-26.84-6.82-35.65C1020.93,1052.44,1023.05,1068,1023.14,1079.88Z"/>
    <path d="M894.61,1029.31l12.23,0q9.48,50.81,18.84,101.65l-24.48.13s-2.91-17.39-4.17-24.87l-16.37.07c-1.66,7.6-5.46,24.94-5.46,24.94l-13.16.06q11.54-50.94,22.9-101.92Zm-12.4,69.84,13.63-.06q-3-17.61-6-35.22l-1.1,5.08Q885.51,1084.05,882.21,1099.15Z"/>
  </g>
  <g class="letterDisplayLine">
    <path d="M877.34,1155.5q-.21,27.86-.45,55.71l25.48-.18"/>
    <path d="M912.8,1155.29q-.19,27.82-.43,55.66l25.48-.2"/>
    <path d="M948.81,1210.66Q957.42,1182.8,966,1155q7.07,27.72,14.11,55.45"/>
    <path d="M973.72,1185.33l-17.85.13"/>
    <path d="M993.31,1210.29q.21-27.76.39-55.53c9.5-1.63,24.92.19,24.11,12.32-.72,11-14.61,14.21-24.28,14,17.19-3.74,25.07,15.27,24,29"/>
    <path d="M1054.49,1162.91c0-4.69-2.34-10.69-10-10.64s-14.25,1.81-14.32,14.07,7.4,10.86,14,12.81,12.21,4,12.14,14c-.08,12-7,16.09-13.92,16.1-8.78.09-13.94-4.34-13.32-11.55"/>
    <path d="M848.49,1155.66c12.89.22,15.13,20.19,15.14,30.44,0,9.85-4.41,25.27-15.43,25.31-11.18,0-14.11-15.44-14.15-25.13S835.75,1155.45,848.49,1155.66Z"/>
    <path d="M822,1202.61c-1.63,4.57-5,9.54-14.1,9.07-11.84-.62-14.1-15.43-14.14-25.16,0-10.06.92-30,14.45-30.65,5.36-.25,10.86,1.39,13.46,11.46"/>
  </g>
  <g class="roofFront">
    <path d="M347.46,50.43Q346.25,26,345,1.51,688.32-.74,1031.61,6.92c33.16-.16,35.38,50.57,1.41,48.64Q690.3,48.3,347.46,50.43Z"/>
    <path d="M369.32,923.13q0-24.48-.1-49,338.09-.13,676.16.34c33.46-1,33,49.73,0,48.68Q707.37,923.12,369.32,923.13Z"/>
  </g>
  <g class="roofSide">
    <path d="M4.46,62.88Q2.81,38.76,1.07,14.65C341,3,398-1.13,738.15,2.08,771.31,1.59,774.48,52.38,740,51,400.43,47.93,343.91,51.89,4.46,62.88Z"/>
    <path d="M34.2,923.26q0-24.13-.13-48.27c335.19-.72,387.26-1,722.45-.78,33.5-1,33.06,50,.07,48.93C421.42,923.11,369.37,923.15,34.2,923.26Z"/>
  </g>
</svg>
