<svg viewBox="0 0 2368.05 1188.44">
  <g class="wallSide">
    <path d="M2000.39,703.93q-384.81.69-769.63.77.26,241.38,1.5,482.74h780.59Q2002.5,946.06,2000.39,703.93Z"/>
    <path d="M1109.9,806.15q-384.89-.23-769.76-1.61-3.19,191.75-11.65,382.9H1108.2Q1109.43,996.8,1109.9,806.15Z"/>
  </g>
  <g class="roofSide">
    <path d="M1346.91,704.67l-125.26,0c0-9.51,0-14.26,0-23.76q62.63,0,125.24,0C1346.88,690.42,1346.89,695.17,1346.91,704.67Z"/>
    <path d="M994.79,806.06q61,.06,122,.09c6.72,0,6.77-27.9,0-27.9l-122-.08C994.86,789.33,994.84,794.9,994.79,806.06Z"/>
  </g>
  <g class="wallFront">
    <path d="M1346.81,630.85H1293q.18,278.31,2.45,556.58H1350Q1347,909.18,1346.81,630.85Z"/>
    <path d="M1044.29,560.72H995.22q.18,313.41-3.59,626.72h49.78Q1044.43,874.1,1044.29,560.72Z"/>
  </g>
  <g class="wallSide">
    <path d="M2000,630.63q-326.61.18-653.22.22.23,278.32,3.23,556.59h662.81Q2001,909.49,2000,630.63Z"/>
    <path d="M995.22,560.72q-326.78.07-653.54.3.65,313.72-13.19,626.42H991.63Q995.38,874.12,995.22,560.72Z"/>
  </g>
  <g class="roofSide">
    <path d="M1466.51,630.17l-190.67,0c-9.48.66-9.49-32.37,0-32.37h190.66C1466.49,610.77,1466.5,617.23,1466.51,630.17Z"/>
    <path d="M871.93,560.75c0-14.61,0-21.92-.07-36.54q91.49,0,183-.07a48.66,48.66,0,0,1,0,36.57Z"/>
  </g>
  <g class="wallFront">
    <path d="M1466.69,482.43l-71.85-.05q-.84,352.57,3.77,705.06h72.86Q1465.65,835,1466.69,482.43Z"/>
    <path d="M950.51,411l-79.11.1q2.13,388.28-4.84,776.38h80.15Q952.19,799.28,950.51,411Z"/>
  </g>
  <g class="wallSide">
    <path d="M2000.51,483.18q-266.91-.53-533.82-.75-1.07,352.58,4.78,705h541.38Q1997.8,835.93,2000.51,483.18Z"/>
    <path d="M871.4,411.06q-265.51.38-531,1.26,5.22,388-11.9,775.12H866.56Q873.54,799.38,871.4,411.06Z"/>
  </g>
  <g class="roofFront">
    <path d="M1444.09,417.87l-71.24-.07q-.12,32.28-.2,64.56l71.18.05Q1444,450.15,1444.09,417.87Z"/>
    <path d="M707.18,411.34q-.4-45.63-1-91.26,133.65-.39,267.31-.59c19.83,1.79,20.12,87.6.48,91.45Q840.59,411.07,707.18,411.34Z"/>
  </g>
  <g class="roofSide">
    <path d="M1443.83,482.41q.12-32.27.26-64.54,94.14.12,188.28.28-.22,32.22-.41,64.44Q1537.9,482.49,1443.83,482.41Z"/>
    <path d="M707.18,411.34q-.4-45.63-1-91.26,95.09-.29,190.18-.46c19.81,1.79,20.29,87.55.63,91.41Q802.1,411.15,707.18,411.34Z"/>
  </g>
  <g class="wallFront">
    <path d="M1633.89,277.87q-57.71-.18-115.41-.33-4.65,455,4,909.9h116.58Q1627.89,732.91,1633.89,277.87Z"/>
    <path d="M817.76,208.56q-56.62.18-113.23.41,8.36,489.28-4.35,978.47H814.34Q824.35,698.19,817.76,208.56Z"/>
  </g>
  <g class="wallSide">
    <path d="M2003.83,279.49q-185-1-369.94-1.62-6,454.88,5.16,909.57h373.79Q1993.45,734.23,2003.83,279.49Z"/>
    <path d="M704.53,209q-184.31.78-368.61,2,14.11,488.36-7.43,976.43H700.18Q712.87,698.5,704.53,209Z"/>
  </g>
  <g class="roofFront">
    <path d="M1707.22,278.12q-100.18-.36-200.36-.61c-28.26-.64-27.53-79.7.91-78.67q100.41.32,200.84.76Q1707.86,238.87,1707.22,278.12Z"/>
    <path d="M1705.35,766.2q-93.88.18-187.77.3c-13.41-.16-14.45-35.28-.17-34.7q93.84-.1,187.69-.24C1705.18,745.42,1705.24,752.34,1705.35,766.2Z"/>
    <path d="M632.21,209.29q-.66-31.77-1.38-63.54,92.37-.5,184.73-.85c10.34,5.22,28.85,54.2,11.83,63.63Q729.8,208.85,632.21,209.29Z"/>
    <path d="M635.41,767.88q.26-31.77.44-63.54,91.62.1,183.22.19c10.6,5.78,26.93,52.55,10.5,63.68Q732.49,768.08,635.41,767.88Z"/>
  </g>
  <g class="roofSide">
    <path d="M1707.2,279,1619,277.82c-28.34-.64-27.18-79.62,1.18-78.59q44.23.6,88.46,1.23Q1707.84,239.71,1707.2,279Z"/>
    <path d="M1705.35,766.58l-73.87-.25c-12.79-1.13-13.67-33.71-.22-34.66l73.84.27C1705.19,745.79,1705.24,752.72,1705.35,766.58Z"/>
    <path d="M632.21,209.29q-.66-31.77-1.38-63.54,35.8-.19,71.62-.36c10.26,5.15,29.12,54.06,12.07,63.54Z"/>
    <path d="M635.41,767.88q.26-31.77.44-63.54l71,.08C717.5,710.2,733.74,757,717.3,768Z"/>
  </g>
  <g class="wallFront">
    <path d="M1860,63q-74.09-.55-148.19-1-14.48,562.58,1.36,1125.49H1861.7Q1841.84,625.71,1860,63Z"/>
    <path d="M630.64,135.77q-74.28.4-148.56.92,15.14,525.3-4.16,1050.75H627.31Q642.79,662,630.64,135.77Z"/>
  </g>
  <g class="wallSide">
    <path d="M2363.42,68.13Q2111.69,64.92,1860,63q-18.14,562,1.74,1124.47h505A9715.43,9715.43,0,0,1,2363.42,68.13Z"/>
    <path d="M482.08,136.69q-237,1.63-473.95,4.26A9722.59,9722.59,0,0,1,1.06,1187.44H477.92Q497.19,662.64,482.08,136.69Z"/>
  </g>
  <g class="roofFront">
    <path d="M1833.91,2.09Q1759.62,1.49,1685.3,1q-.83,30.38-1.61,60.78,74.1.43,148.19,1Q1832.86,32.42,1833.91,2.09Z"/>
    <path d="M1823.34,583.3l-146.4,0c0,18.74,0,28.11,0,46.85l146.41-.06C1823.32,611.36,1823.32,602,1823.34,583.3Z"/>
    <path d="M492.91,35.54q74-.6,147.94-1.09,1.41,50.61,2.62,101.24-73.65.41-147.3.9Q494.67,86.06,492.91,35.54Z"/>
    <path d="M502.89,628.1l146,0c0,20.25-.05,30.38-.13,50.63l-146-.16C502.82,658.41,502.86,648.31,502.89,628.1Z"/>
  </g>
  <g class="roofSide">
    <path d="M2363.42,68.13q1.73-30,3.57-60.06-266.53-3.78-533.08-6-1,30.33-2,60.67Q2097.65,64.74,2363.42,68.13Z"/>
    <path d="M2348.51,629.77c-.06-18.52-.07-27.78,0-46.3q-262.56-.11-525.13-.17c0,18.7,0,28.06,0,46.76Q2085.94,630,2348.51,629.77Z"/>
    <path d="M8.13,141Q5.64,90.87,2.74,40.85q245.08-3.29,490.17-5.31,1.75,50.5,3.26,101.05Q252.15,138.26,8.13,141Z"/>
    <path d="M19,677.89c.17-20,.22-30,.28-50q241.83.17,483.65.26c0,20.21-.07,30.31-.17,50.52Q260.85,678.35,19,677.89Z"/>
  </g>
  <g class="door">
    <path d="M598.23,767.8l-71.38-.16q-2.29,210.12-9.62,419.8h72.36Q596.16,977.79,598.23,767.8Z"/>
    <path d="M1832.76,767.66l-54.11.12q2.08,210,8.76,419.66h54.85Q1835,977.74,1832.76,767.66Z"/>
    <path d="M769.81,869.43l-40.27-.11q-1.93,159.13-5.89,318.12h40.74Q768,1028.49,769.81,869.43Z"/>
    <path d="M1598.69,869.43l-49.75.11q1.59,159,4.87,317.9h50.31Q1600.48,1028.49,1598.69,869.43Z"/>
  </g>
  <g class="windowFront">
    <path d="M619.67,274.51q2.26,137.82,2.72,275.68l-119.55.08Q502.3,412.6,499.6,275,559.63,274.75,619.67,274.51Z"/>
    <path d="M724.54,347,756,346.9q1.38,140.64,1.3,281.28h-31.4Q726,487.55,724.54,347Z"/>
    <path d="M771,346.87l31.48-.07q1.25,140.68,1.17,281.4h-31.4Q772.37,487.5,771,346.87Z"/>
    <path d="M1615.36,620.15l-82.58,0q0-101.1.56-202.18l82.7.13Q1615.32,519.13,1615.36,620.15Z"/>
    <path d="M1775.8,208.19l-53.53-.26q-2.62,137.35-3.52,274.77l53.22.08Q1772.94,345.42,1775.8,208.19Z"/>
    <path d="M1841.39,208.53l-53.54-.28q-2.91,137.24-3.9,274.55l53.22.08Q1838.25,345.65,1841.39,208.53Z"/>
  </g>
</svg>
