<svg viewBox="0 0 1174.48 1831.37">
    <path class="wallSide" d="M726.67,502.34q-4.12-211.93-12.44-423.9-354.3-3-708.4,11.76Q18.24,298.73,24.6,507.54C37.55,941.7,29.7,1396.26,2,1830.37H711.36Q739.38,1166.76,726.67,502.34Z"/>
    <path class="wallFront" d="M1023.11,502.2q-3.11-208.77-9.34-417.57Q864,80,714.23,78.44q8.25,211.89,12.44,423.9,12.9,663.87-15.31,1328H1012C1025.85,1393.86,1029.61,938.18,1023.11,502.2Z"/>
    <path class="door" d="M848.71,1299.33q-40.86.33-81.71.58-4.62,265.32-15.49,530.46h83C841.11,1655.17,845.86,1474.4,848.71,1299.33Z"/>
    <g class="trimFront">
        <path d="M992,1277.26q-2.65,198.62-8.16,397.17-55.06,1.41-110.12,2.52,6.13-199.21,9.11-398.5Q937.39,1277.92,992,1277.26Z"/>
        <path d="M988,431.7q3.25,182.3,4.12,364.62-112.79-.48-225.55-.7-1.08-183.36-5.1-366.69Q874.71,429.81,988,431.7Z"/>
        <path d="M767,1299.91c.15-8.24.22-12.37.35-20.62q40.85-.22,81.68-.55c-.12,8.24-.19,12.35-.32,20.59Q807.85,1299.66,767,1299.91Z"/>
    </g>
    <g class="windowFront">
        <path d="M988.37,454.69q2.73,159.93,3.61,319.9-112.79-.55-225.57-.82-1.11-160.87-4.47-321.72Q875.16,452.89,988.37,454.69Z"/>
        <path d="M991.69,1297.76q-2.52,178.8-7.36,357.55-55,1.38-110.06,2.45,5.4-179.34,8.22-358.74Q937.09,1298.47,991.69,1297.76Z"/>
    </g>
    <g class="windowDisplayLine">
        <path d="M879,1478.41q54.8-.81,109.56-1.86"/>
        <path d="M764.76,612.9q112.95.55,225.89,1.73"/>
        <path d="M839.59,452.71q3.15,160.62,4.18,321.27"/>
        <path d="M914.48,453.59q2.94,160.32,3.89,320.66"/>
    </g>
    <path class="awningFront" d="M730.44,1029.36q195.34-.27,390.69-1.25c39.81-1,52.67,40.3,52.34,73.19q-.32,58.31-.84,116.62-222,3.39-444.05,4.24Q729.92,1125.77,730.44,1029.36Z"/>
    <path class="awningSide" d="M730.44,1029.36q47.55-.06,95.12-.17c40.12-.88,52.61,41.23,52.21,74.19q-.45,59-1.18,118-74,.53-148,.81Q729.92,1125.77,730.44,1029.36Z"/>
    <g class="roofFront">
        <path d="M746.78,2q150,2.15,299.92,7.59,1.18,38.11,2.29,76.23-149.54-5-299.14-7Q748.37,40.4,746.78,2Z"/>
        <path d="M765.83,875q147.54.11,295.08.37.06,38.15,0,76.28-147.54.2-295.08.27Q765.9,913.48,765.83,875Z"/>
    </g>
    <g class="roofSide">
        <path d="M5.83,90.2Q3.53,52.3,1.06,14.38,373.68-2.62,746.78,2q1.59,38.42,3.07,76.86Q377.74,74.65,5.83,90.2Z"/>
        <path d="M30.7,951.5q.07-37.93,0-75.88,367.58-.81,735.16-.6.06,38.46,0,76.92Q398.27,952.1,30.7,951.5Z"/>
    </g>
</svg>
