<svg viewBox="0 0 1515.17 1787.14">
    <path class="wallMediumSide" d="M1181.36,460.34q-3.37-209.2-10-418.42Q587.51,31.34,3.65,50.68,17.84,258.83,25.29,467.36c15,429.44,7.21,888.7-22.41,1318.78H1170.37Q1191.94,1123.47,1181.36,460.34Z"/>
    <path class="wallMediumFront" d="M1471.89,466.68q-2.28-208.65-6.77-417.33-146.83-4.59-293.73-7.43,6.57,209.16,10,418.42,10.68,662.75-11,1325.8h294.4C1474.24,1353.35,1476.6,898.78,1471.89,466.68Z"/>
    <path class="shutter" d="M1442.52,1189.62q-112.1,1.17-224.17,2-3.13,297.33-12.45,594.54h227.74C1438.07,1592.81,1441,1381.83,1442.52,1189.62Z"/>
    <g class="shutterDisplayLine">
        <path d="M1441.87,1263.19q-112.18,1.45-224.39,2.48"/>
        <path d="M1442.22,1225.93q-112.14,1.32-224.27,2.23"/>
        <path d="M1441.08,1337.69q-112.33,1.77-224.67,3"/>
        <path d="M1441.5,1300.44q-112.26,1.61-224.53,2.73"/>
        <path d="M1440.14,1412.2q-112.5,2.05-225,3.49"/>
        <path d="M1440.63,1375q-112.43,1.9-224.84,3.24"/>
        <path d="M1439,1486.69q-112.68,2.36-225.38,4"/>
        <path d="M1439.61,1449.45q-112.59,2.21-225.19,3.74"/>
        <path d="M1437.81,1561.18q-112.9,2.65-225.83,4.51"/>
        <path d="M1438.44,1523.94q-112.79,2.5-225.6,4.25"/>
        <path d="M1436.42,1635.66q-113.14,3-226.31,5"/>
        <path d="M1437.13,1598.42q-113,2.8-226.06,4.76"/>
        <path d="M1434.89,1710.14q-113.42,3.24-226.86,5.51"/>
        <path d="M1435.67,1672.9q-113.28,3.11-226.58,5.26"/>
        <path d="M1434.07,1747.37q-113.57,3.39-227.15,5.77"/>
    </g>
    <g class="frameMediumFront">
        <path d="M1442.36,399q2.4,181.47,3.05,363l-66.48-.32q-.72-181.89-3.37-363.78Q1409,398.37,1442.36,399Z"/>
        <path d="M1275.75,396.31q3,182.43,3.86,364.88l-66.48-.24q-.92-182.76-4.17-365.49Q1242.37,395.87,1275.75,396.31Z"/>
        <path d="M1358.07,397.53q2.7,182,3.46,364l-66.48-.28q-.83-182.37-3.78-364.72Q1324.66,397,1358.07,397.53Z"/>
    </g>
    <g class="windowFront">
        <path d="M1442.44,420.83q2,157.62,2.67,315.27l-66.09-.38q-.75-158-3-316Q1409.27,420.26,1442.44,420.83Z"/>
        <path d="M1275.91,418.29q2.5,158.46,3.37,316.94l-66.09-.27q-.95-158.75-3.64-317.48Q1242.73,417.87,1275.91,418.29Z"/>
        <path d="M1358.19,419.46q2.24,158.07,3,316.17l-66.09-.32q-.86-158.41-3.3-316.81Z"/>
    </g>
    <g class="windowDisplayLine">
        <path d="M1444.11,578.45l-66.2-.73"/>
        <path d="M1278,576.76q-33.09-.28-66.19-.55"/>
        <path d="M1360.07,577.53q-33.09-.33-66.19-.63"/>
    </g>
    <path class="awningFront" d="M1442.52,1189.62c45.68-1.59,46.72-72.41.49-73.24q-112,.87-224,1.48-.29,36.87-.67,73.74Q1330.43,1190.79,1442.52,1189.62Z"/>
    <path class="awningSide" d="M1218.35,1191.6c45.8-1.44,47-72.77.67-73.74Q1218.73,1154.73,1218.35,1191.6Z"/>
    <g class="roofFront">
        <path d="M1213,42.73l-1.14-37Q1358.43,9,1504.92,14q.39,18.33.75,36.65Q1359.38,45.84,1213,42.73Z"/>
        <path d="M1225.89,916.63q0-18.51,0-37,144.15.06,288.28.17v36.68Q1370,916.57,1225.89,916.63Z"/>
    </g>
    <g class="roofSide">
        <path d="M3.65,50.68Q2.38,32.35,1.07,14,606.25-6.88,1211.88,5.75l1.14,37Q608.34,30.66,3.65,50.68Z"/>
        <path d="M32.82,916.46q0-18.35,0-36.68,596.54-.43,1193.07-.17,0,18.51,0,37Q629.36,916.89,32.82,916.46Z"/>
    </g>
</svg>
