<svg viewBox="0 0 305.19 360.51">
  <path class="wallLowSide" d="M299.57,100.84q1.33-41.08,4-82.15Q186.29,15,68.89,17,67.66,58.25,67,99.5q-2,130.23,2.29,260.51H304.19C298.44,275.67,296.84,184.94,299.57,100.84Z"/>
  <path class="wallLowFront" d="M67,99.5Q67.66,58.27,68.89,17q-29.32.54-58.65,1.43Q9.4,59.57,9,100.71C8.13,184,9.06,276.1,10.87,360H69.33Q65.1,229.81,67,99.5Z"/>
  <path class="doorLightFront" d="M32.44,255.47l-15.51-.19c.32,31.94.69,71.43,1.38,104.73h16.1Q33,307.75,32.44,255.47Z"/>
  <g class="frameLightFront">
    <path d="M61.11,251.59q.53,42.21,1.68,84.42-11.74-.22-23.47-.48-1-42.07-1.45-84.16Z"/>
    <path d="M60.31,73.28q-.89,46.5-1,93l-18.41,0q.11-46.4.9-92.78Q51,73.4,60.31,73.28Z"/>
    <path d="M34.74,73.66Q34,120,33.88,166.35l-18.41,0q.09-46.2.75-92.4Z"/>
    <path d="M16.93,255.28c0-1.66,0-2.49,0-4.15l15.51.18c0,1.66,0,2.5,0,4.16Z"/>
  </g>
  <path class="frameLightSide" d="M116.52,251.91q.69,42.41,2.18,84.8-18.89-.15-37.78-.41Q79.66,294,79.08,251.72,97.8,251.84,116.52,251.91Z"/>
  <g class="glassMedium">
    <path d="M61.16,255.76q.51,38.19,1.52,76.37-11.73-.21-23.45-.47-.87-38.06-1.31-76.13Z"/>
    <path d="M60.23,77.08q-.73,41.15-.91,82.29l-18.41,0q.15-41,.82-82.08Q51,77.19,60.23,77.08Z"/>
    <path d="M34.68,77.45q-.65,41-.78,82l-18.41.06q.12-40.87.68-81.74Q25.42,77.59,34.68,77.45Z"/>
  </g>
  <path class="glassDark" d="M112.89,256.08q.64,38.37,2,76.7-15.15-.11-30.3-.31-1.14-38.27-1.7-76.54Q97.85,256,112.89,256.08Z"/>
  <g class="windowDisplayLine">
    <path d="M113.69,294.29q-15.07-.09-30.15-.23"/>
    <path d="M97.86,256q.61,38.33,1.83,76.63"/>
    <path d="M61.79,293.8q-11.67-.15-23.33-.35"/>
    <path d="M49.35,255.65q.46,38.13,1.41,76.26"/>
    <path d="M51,77.2q-.7,41.1-.87,82.19"/>
    <path d="M25.42,77.6q-.6,40.94-.73,81.88"/>
  </g>
  <g class="roofFront">
    <path d="M142.68,16.26Q143,8.38,143.36.5,75.62.71,7.91,3C.74,3.4,0,18.66,7.58,18.52Q75.11,16.45,142.68,16.26Z"/>
    <path d="M139.32,204.19q0-7.89-.06-15.77-66.66,0-133.31-.1c-7.26.26-7.28,15.48,0,15.56Q72.64,204.17,139.32,204.19Z"/>
  </g>
  <g class="roofSide">
    <path d="M303.59,18.69q.53-7.77,1.07-15.53Q185.27-1,65.8,1.39c-7.2.34-8,15.73-.48,15.69Q184.45,14.91,303.59,18.69Z"/>
    <path d="M298.36,203.86q-.06-7.77-.09-15.54-117.69.15-235.37.06c-7.27.28-7.29,15.62,0,15.7Q180.65,204.38,298.36,203.86Z"/>
  </g>
</svg>
