<svg viewBox="0 0 350.85 431.19">
  <path class="wallHighSide" d="M344.79,106.41Q346.68,55,350.31,3.65,223.1-.94,95.76,1.15,93.92,53.2,92.94,105.28q-3,162.66,2.74,325.41H349.27C342.58,326.55,341,209.29,344.79,106.41Z"/>
  <path class="wallHighFront" d="M92.94,105.28q1-52.07,2.82-104.13Q57.83,1.83,19.9,3.06,18.63,54.57,18,106.11C16.65,209.32,16.7,326.18,19,430.69H95.68Q90,268,92.94,105.28Z"/>
  <path class="doorDarkFront" d="M62.66,301.41l-17.44-.17c.43,38.61,1.26,88.29,2.32,129.45H65.46Q63.47,366.07,62.66,301.41Z"/>
  <g class="frameDarkFront">
    <path d="M83.67,85.11q-1.12,54.15-1.34,108.31l-16.38,0q.19-54.08,1.25-108.14Q75.44,85.2,83.67,85.11Z"/>
    <path d="M82.78,296q.72,56.34,2.42,112.66l-11.67-.21q-1.62-56.27-2.3-112.54Z"/>
    <path d="M42.58,85.71q-.93,53.9-1.1,107.81l-16.39.06q.16-53.79,1-107.57Q34.34,85.85,42.58,85.71Z"/>
    <path d="M37,295.61q.57,56,1.93,112.08l-11.67-.32Q26,351.43,25.43,295.48Z"/>
    <path d="M62.88,85.38q-1,54-1.22,108.09l-16.38,0q.18-53.94,1.12-107.87Z"/>
    <path d="M45.22,301.24c0-2.22,0-3.33-.06-5.55l17.43.17c0,2.22,0,3.33.07,5.55Z"/>
  </g>
  <g class="frameDarkSide">
    <path d="M152.87,84.6q-1.45,54.36-1.73,108.73l-45.2,0q.24-54.26,1.48-108.51Q130.14,84.68,152.87,84.6Z"/>
    <path d="M151.72,296.32q.93,56.57,3.13,113.09Q132,409.3,109.1,409q-1.87-56.41-2.66-112.87Q129.07,296.28,151.72,296.32Z"/>
  </g>
  <g class="windowFront">
    <path d="M83.44,94.36q-.91,47-1.14,94.08L66,188.49q.21-47,1-93.94Z"/>
    <path d="M82.85,301.58q.69,51,2.2,101.92l-11.67-.21Q72,352.41,71.3,301.49Z"/>
    <path d="M42.37,94.91q-.75,46.83-.93,93.66l-16.28.06q.16-46.71.85-93.44Z"/>
    <path d="M37,301.15q.54,50.7,1.75,101.39l-11.67-.31Q26,351.62,25.48,301Z"/>
    <path d="M62.66,94.61q-.82,47-1,93.89l-16.28.06q.18-46.86.94-93.71Z"/>
  </g>
  <g class="windowSide">
    <path d="M147.6,93.9q-1.15,47.21-1.44,94.43l-35.19,0q.25-47.16,1.27-94.29Q129.93,94,147.6,93.9Z"/>
    <path d="M146.79,301.9q.89,51.15,2.79,102.29-17.79-.09-35.58-.28-1.69-51.06-2.47-102.14Q129.17,301.86,146.79,301.9Z"/>
  </g>
  <g class="windowDisplayLine">
    <path d="M146.65,141.11l-35.24.12"/>
    <path d="M147.92,352.85q-17.7-.06-35.39-.2"/>
    <path d="M41.76,141.74l-16.31.17"/>
    <path d="M62,141.55l-16.32.15"/>
    <path d="M82.69,141.4l-16.31.12"/>
    <path d="M83.74,352.35c-3.87,0-7.73-.09-11.6-.15"/>
    <path d="M37.74,351.65l-11.59-.22"/>
  </g>
  <g class="roofBelow">
    <path d="M85.18,20.08q-37.38.69-74.74,1.86c.06-3.1.13-6.19.2-9.29q37.41-1.23,74.84-1.94Z"/>
    <path d="M82.35,273.59q-36.91-.19-73.81-.53-.18-27.94-.17-55.88H82.09Q82.1,245.38,82.35,273.59Z"/>
  </g>
  <g class="roofFront">
    <path d="M75.91,11q-36.63.76-73.26,2c.07-3.12.13-6.25.2-9.37Q39.53,2.33,76.22,1.53,76.06,6.26,75.91,11Z"/>
    <path d="M72.67,217.27H.5V207.9l72.17-.1Z"/>
  </g>
  <g class="roofSide">
    <path d="M76.22,1.53q-.16,4.72-.31,9.46l9.57-.19-.3,9.28,9.94-.16q.31-9.39.64-18.77Q86,1.33,76.22,1.53Z"/>
    <path d="M72.67,207.8v9.47h9.42q0,28.15.26,56.32l9.82.05q-.3-32.92-.26-65.85Z"/>
  </g>
</svg>
