<svg viewBox="0 0 819.8 491.7">
  <g class="foliageFar">
    <path d="M1,352.37V286.25c2.82-13.16,24-15.51,26.36,0,3.72-15.51,33.33-14.1,32.86,4.7,12.69-15.51,36.66-2.82,33.84,18.8,8.89-15.51,27.26-15,32.9,0v42.77Z"/>
    <path d="M818.8,303.17c0-9.4-6.58-19.27-15.51-17.86,4.23-12.22-8.93-19.74-19.74-13.16-9.4-10.81-24-3.76-24.91,9.4-12.22-4.23-25.85,3.76-21.62,19.74H423.53l-4.23-29.14c.47-16.92-21.62-25.38-33.84-15-8-13.16-30.08-4.7-29.14,9.87-12.22-2.82-19.27,7.52-16.45,17.39a6.6,6.6,0,0,0-10.81-.47c5.64-19.74-18.33-27.73-30.08-16-8.93-16.45-30.08-11.75-32.9,5.64V431.48H818.8Z"/>
  </g>
  <g class="antennaWhite">
    <path d="M144.72,277.56C150.15,185,154.9,92.43,163.11.09c3.21,91.57,5.68,183.16,9.08,274.72"/>
    <path d="M207,274.81C203.57,183.25,201.1,91.66,197.89.09c-8.22,92.34-13,184.94-18.4,277.47"/>
  </g>
  <g class="antennaRed">
    <path d="M165,55.6q-.92-27.76-1.89-55.51-2.42,27.17-4.49,54.35A33.21,33.21,0,0,1,165,55.6Z"/>
    <path d="M151.21,166.05a104.18,104.18,0,0,1,17.27-.23q-.87-27.31-1.72-54.63a84.26,84.26,0,0,0-12.06-.81Q152.9,138.22,151.21,166.05Z"/>
    <path d="M170.22,219A179.81,179.81,0,0,0,148,220.53q-1.63,28.51-3.29,57c10.46,3.35,17.85,2.23,27.47-2.75Q171.16,246.9,170.22,219Z"/>
    <path d="M193.4,54.44q2.08-27.18,4.49-54.35,1,27.75,1.89,55.51A33.35,33.35,0,0,0,193.4,54.44Z"/>
    <path d="M203.26,165.77c-5.8-.31-11.44.16-17.28.33q1.7-27.85,3.49-55.72a84.4,84.4,0,0,1,12.07.81Q202.4,138.48,203.26,165.77Z"/>
    <path d="M182.79,220.53A193.12,193.12,0,0,1,205,219q.93,27.92,2,55.83c-9.7,5-17.11,6.07-27.47,2.75Q181.17,249,182.79,220.53Z"/>
  </g>
  <path class="antennaBuilding" d="M325.75,332.31a478.42,478.42,0,0,1,1.7-57.79q-107.65-3.74-215.33,0a478.42,478.42,0,0,1,1.7,57.79Q219.78,329.75,325.75,332.31Z"/>
  <path class="antennaRoof" d="M112.12,274.52q107.65-3.74,215.33,0c-.46,4.62-.84,9.27-1.13,13.91q-106.53-3.45-213.07,0C113,283.79,112.58,279.14,112.12,274.52Z"/>
  <path class="buildingsFar" d="M431.74,331.84q158.65-2.2,317.42,1.36a364.35,364.35,0,0,1,0-60.64c-23.89-.88-70.88-2.37-70.88-2.37s.81-10.91,1.35-17.07c-23.76-.93-48.36-2.59-71.39-2.12,0,6.2.28,12.45.15,18.64-36-.81-71.74-1.49-107-.38-.12-6-.07-12.21-.27-18.26-24.24.19-47.47.94-71.91,2.42.66,6,1.18,11.48,1.68,17.47-11.79.48-24.71,1.26-35.33,1.83a353.16,353.16,0,0,1-.28,59.7Q413.48,332.1,431.74,331.84Z"/>
  <path class="foliageMiddle" d="M818.8,432.42V322.81c-1.92-14-24.93-18.7-35.48-6.48,0-16.45-31.64-23-36.91-6.11-13.42-8-28.76-.47-32.12,13.16-3.83-16-24.45-23.5-39.79-13.16-10.07-14.57-36-13.16-43.62,3.76-14.39-8.46-29.73.94-32.12,15-4.8-11.75-21.58-17.86-32.12-6.11-8.63-12.22-26.85-9.87-34.52,2.82,1-16.92-15.34-27.26-33.56-17.86-3.83-12.69-19.65-16.45-30.68-8-11.51-12.69-33.56-5.64-36.91,10.81-12.47-7.05-27.81-.94-31.64,11.28-8.63-10.34-23.5-9.87-28.77,2.35-6.23-10.81-23.49-11.28-29.72,0-3.36-12.69-24-19.27-32.6-9.4-4.32-11.28-20.62-14.57-29.24-3.76-8.63-13.63-31.17-11.75-38.36,5.17-14.86-8.46-32.12-.47-32.6,16-2.87-8.46-13.9-8.93-20.13-3.76-.48-12.22-23-17.39-27.81-6.58-2.87-13.16-31.64-11.75-32.59,3.76-11.83-11.28-31.1-1.41-30.59,16.94-3.8-10.83-20.72-10.83-24,2.33,1.88-15.51-16-18.8-23.5-8.46-2.35-12.22-21.15-14.1-24.92-1.24C20.27,323.38,3.35,327.14,1,337.48v94.94Z"/>
  <g class="buildingsNear">
    <path d="M657.34,389.6c1.47-15.4.55-31.05-.1-46.48,5.77-.28,16.81-.47,18.7-.47.48,0,.16-7.41-.1-12,11,0,22.51.23,34.3.74-.19,4.49-.45,7.23-.64,11.72,24.93.47,49.63,1.18,74.4,1.85a350.22,350.22,0,0,0-.29,47.5Q720.46,392,657.34,389.6Z"/>
    <path d="M479.83,391.55c.62-11.44.25-22.84,0-34.29,5-.26,8.7-1,15.95-1.18-.08-5.74-.12-10.07-.31-15.81,11.69-.68,23.81-.69,36.2-.34-.08,5.79-.16,10.17-.22,16,12.69-.09,23.72-.56,35.81.36-.38,11.77-1.13,23.47-.56,35.25Q523.24,392.52,479.83,391.55Z"/>
    <path d="M280.43,402.35c.32-16.65,0-33.23-1.06-49.85,6-.47,12-1.53,18-1.46-.19-3.65-.31-5-.54-8.66,11.19-.95,22.87-1.09,34.74-.91,0,3.65,0,5.48,0,9.14,4.93-.44,12,.14,18,0-.11,16.65.45,33.23,1.68,49.84Q315.9,402.57,280.43,402.35Z"/>
  </g>
  <path class="foliageNear" d="M1,377.43C1,365.21,26,363,30.78,374.3c5.28-5.17,15.82-3.29,17.74,4.7,6.53-9.09,24.84-4.7,24.36,5.17,1-7.05,10.37-7.21,13.42-2.82.73-12.06,15.28-13.32,20.78-6.74,3.83-9.87,22.7-6.11,19.65,8.46,3-7.52,15.27-9.4,19-.47,1.92-6.58,10.85-7.52,12.95-2.35-3-10.81,12-21.15,17.17-13.16-1.41-8.93,11.28-12.22,13.63-3.76,4.79-10.34,21-13.16,25.29-1.88a9,9,0,0,1,15.82,1.41c8.15-7.52,19.65-3.29,22,7.52,8.63-3.29,19.17,1.88,19.65,12.69,2.4-6.58,10.55-8,15.34-2.35.48-9.87,11.51-13.63,18.22-5.64,3.36-5.64,17.26-2.35,16.3,5.64,7.19-3.29,17.26.94,17.26,9.87,1.92-7.52,10.55-10.81,15.82-8.46,0-9.87,12-14.57,19.18-9.4,1.91-7.05,12-8.46,16.3-1.88,5.27-8.93,22.05-9.4,26.84,1.88,5.28-5.17,15.82-3.29,17.74,4.7,8.63-3.76,20.13,4.7,19.66,14.57.95-7.05,8.15-10.34,13.42-7.52,1.44-9.4,11.5-12.69,20.13-6.58,4.32-7.52,14.86-6.58,17.26,1.88a13,13,0,0,1,19.66,6.58c1.91-8,10.54-10.81,17.26-5.64-.48-9.4,10.54-15,18.69-8.46,3.36-7.05,14.38-8.93,20.62-.94,4.31-9.4,16.78-9.4,21.09-.47,2.88-6.58,11-7.05,14.86-.94,6.71-9.87,20.62-7.05,23,3.76,5.28-4.7,11.51-.94,12,4.23,5.27-3.76,13.9.47,14.38,7.05,0-8,9.59-13.63,15.82-9.87A7.82,7.82,0,0,1,696.07,369c2.4-10.34,14.39-12.22,21.58-4.23,3.83-4.7,12.94-3.29,15.34,2.82,6.71-4.7,17.26-1.41,17.26,8.46,3.35-3.76,9.58-.94,11.5,3.29-1.44-6.11,7.19-10.81,11-8,1.44-8,15.34-11.75,21.57-3.76,4.79-6.11,12.94-3.29,13.9,3.29,4.32-2.82,10.07-.94,10.55,3.77V490.7H1Z"/>
</svg>
