<svg viewBox="0 0 1181.67 580.21">
    <path class="wallFront" d="M31.2,579.21H1149.79q-5.61-249.44,5.36-498.76C779.49,75.23,403.84,68.65,28.39,82.21,38.57,244.05,39.38,417.19,31.2,579.21Z"/>
    <g class="cactusFurther">
        <path d="M844.53,557.65c-10.66,5.15-6.47,18.38,3.36,21.21l91.14.35h9.82c15.43-6.07,8-25.74-3.67-30.79,18-7.87,14.5-35.84-4.73-39.32,12.46-20-10.3-47.78-30.33-29.79-.47-22.85-28.6-20-31.82,0-13.71-14.6-35,5.9-23.59,21.18-20.2-4.18-22.47,23.56-6.56,30.72C831.28,530.68,834.43,551.33,844.53,557.65Z"/>
        <path d="M249,558.91c-10.72,5.54-5.05,17.77,4.21,20.3h81.6c10.49-2.87,14-15.13,6-23.29,16.13.26,17.77-23.41,5.42-29.92,14.08-9.34,10.29-36.58-9.6-33,6.8-15.19-12.47-29.09-23.72-16.38-2.71-18.72-28.9-20-33.76-1.87-15.91-8.57-34.52,12.35-23.14,26.77-18.13-4.6-23.08,22.46-6.4,27.67C232.8,532.61,235.57,553.62,249,558.91Z"/>
    </g>
    <g class="trimFront">
        <path d="M1090.36,183q-3.52,132.56-3,265.17-69-1-138-2-.08-132.3,2.28-264.6Q1021,182.1,1090.36,183Z"/>
        <path d="M233,185.91q3.44,127.25,1.75,254.53-69-.15-138-.2,2-125.67-2.43-251.29Q163.67,187.29,233,185.91Z"/>
        <path class="doorTrim" d="M684.09,168.64q-92.36.3-184.72,1.18,1.83,165.26-.45,330.51,92,1,184,2.13Q684,335.56,684.09,168.64Z"/>
    </g>
    <path class="door" d="M668.13,186.58q-76.3.22-152.6.83,1.35,156.54-.7,313.09,76.08.84,152.15,1.76Q668.09,344.42,668.13,186.58Z"/>
    <g class="beam">
        <path d="M368.73,579.21h50.84q6.15-252.48-.41-505-25.61.51-51.21,1.07Q375.74,327.19,368.73,579.21Z"/>
        <path d="M811,579.21q0-250.52,2.72-501-25.63,0-51.26.13-1.56,250.44-2.3,500.88Z"/>
    </g>
    <g class="windowFront">
        <path d="M1078.06,195.58q-2.93,119.78-2.67,239.58-57.08-.82-114.14-1.6,0-119.6,2.12-239.16Q1020.72,194.9,1078.06,195.58Z"/>
        <path d="M221.38,198.4q2.93,114.86,1.63,229.76-57.06-.06-114.12,0,1.48-113.69-2.15-227.33Q164.05,199.5,221.38,198.4Z"/>
    </g>
    <g class="windowDisplayLine">
        <path d="M1075.93,315.37q-57.07-.76-114.14-1.39"/>
        <path d="M223.36,313.27q-57.08.53-114.14,1.17"/>
    </g>
    <path class="roofSide" d="M1178.9,87.3c.52-9,.79-13.42,1.34-22.36Q590.93,49.64,1.49,66.7c.52,8.4.77,12.6,1.25,21Q590.73,72.35,1178.9,87.3Z"/>
    <path class="roofTop" d="M1180.24,64.94q-10.34-29.05-20.59-58.12Q591.39-7.12,23.06,11.84,12.37,39.3,1.49,66.7,590.75,50,1180.24,64.94Z"/>
    <g class="stepFront">
        <path d="M769.39,579.21q-.2-20.31-.35-40.6-178.56-.57-357.1-.75-.26,20.67-.55,41.35Z"/>
        <path d="M421.18,499.5q-.31,19.18-.7,38.39,169.89.17,339.79.65.06-19.54.13-39.09Q590.8,499.24,421.18,499.5Z"/>
    </g>
</svg>
