<svg viewBox="0 0 1474.25 678">
  <g class="foundation">
    <path d="M1310.14,406.5c-1,92.5-4,176.5-9.7,270.25h40.83c-6.13-82.75-7.13-195.75-5.13-270.25Z"/>
    <path d="M118.14,314.5c.91,90.82-6.84,273.11-14,362.5h62c-6.14-78.75-18-294-15-362.5Z"/>
    <path d="M523.64,649l-.5,27.75H890.89V648.91C785.14,652,615.14,651,523.64,649Z"/>
  </g>
  <path class="towerLeftTopBottom" d="M267.14,334c4-13,4-59-1-71-33-5-220-6-263,0-3,15-3,58,1,71C43.14,341,235.14,339,267.14,334Z"/>
  <path class="towerLeftFront" d="M1.61,276.24A313.09,313.09,0,0,0,2,321.3c84.42,5.91,182.62,5.93,267.15.07a252.46,252.46,0,0,0-.42-45.85C186.58,272,85.65,271.74,1.61,276.24Z"/>
  <circle class="spokes" cx="705.14" cy="301" r="282"/>
  <g class="car">
    <path d="M381.93,253.27H454a0,0,0,0,1,0,0v23.21a16.66,16.66,0,0,1-16.66,16.66H398.6a16.66,16.66,0,0,1-16.66-16.66V253.27a0,0,0,0,1,0,0Z"/>
    <path d="M400,404.22h72.08a0,0,0,0,1,0,0v23.21a16.66,16.66,0,0,1-16.66,16.66H416.64A16.66,16.66,0,0,1,400,427.43V404.22A0,0,0,0,1,400,404.22Z"/>
    <path d="M489.8,525.72h72.08a0,0,0,0,1,0,0v23.21a16.66,16.66,0,0,1-16.66,16.66H506.46a16.66,16.66,0,0,1-16.66-16.66V525.72A0,0,0,0,1,489.8,525.72Z"/>
    <path d="M620.29,580.08h72.08a0,0,0,0,1,0,0v23.21A16.66,16.66,0,0,1,675.71,620H637a16.66,16.66,0,0,1-16.66-16.66V580.08A0,0,0,0,1,620.29,580.08Z"/>
    <path d="M770.47,567.18h72.08a0,0,0,0,1,0,0v23.21A16.66,16.66,0,0,1,825.89,607H787.13a16.66,16.66,0,0,1-16.66-16.66V567.18A0,0,0,0,1,770.47,567.18Z"/>
    <path d="M884.88,491.36H957a0,0,0,0,1,0,0v23.21a16.66,16.66,0,0,1-16.66,16.66H901.54a16.66,16.66,0,0,1-16.66-16.66V491.36A0,0,0,0,1,884.88,491.36Z"/>
    <path d="M953.74,353.5h72.08a0,0,0,0,1,0,0V376.7a16.66,16.66,0,0,1-16.66,16.66H970.4a16.66,16.66,0,0,1-16.66-16.66V353.5A0,0,0,0,1,953.74,353.5Z"/>
    <path d="M946.1,204.59h72.08a0,0,0,0,1,0,0V227.8a16.66,16.66,0,0,1-16.66,16.66H962.77A16.66,16.66,0,0,1,946.1,227.8V204.59A0,0,0,0,1,946.1,204.59Z"/>
    <path d="M863.29,79h72.08a0,0,0,0,1,0,0v23.21a16.66,16.66,0,0,1-16.66,16.66H880a16.66,16.66,0,0,1-16.66-16.66V79A0,0,0,0,1,863.29,79Z"/>
    <path d="M721,9.1h72.08a0,0,0,0,1,0,0V32.3A16.66,16.66,0,0,1,776.39,49H737.63A16.66,16.66,0,0,1,721,32.3V9.1A0,0,0,0,1,721,9.1Z"/>
    <path d="M575.34,21.1h72.08a0,0,0,0,1,0,0V44.3A16.66,16.66,0,0,1,630.76,61H592A16.66,16.66,0,0,1,575.34,44.3V21.1A0,0,0,0,1,575.34,21.1Z"/>
    <path d="M442.89,113.37H515a0,0,0,0,1,0,0v23.21a16.66,16.66,0,0,1-16.66,16.66H459.55a16.66,16.66,0,0,1-16.66-16.66V113.37A0,0,0,0,1,442.89,113.37Z"/>
  </g>
  <path class="wheel" d="M705.14,1c165.68,0,300,134.31,300,300s-134.32,300-300,300-300-134.31-300-300S539.45,1,705.14,1Zm-282,300c0,155.74,126.25,282,282,282s282-126.26,282-282S860.88,19,705.14,19,423.14,145.26,423.14,301Z"/>
  <path class="support" d="M589.27,650.09C637.15,539.9,675.39,424.33,705.14,304c30.54,112.31,75.64,240.14,121.91,346.22,10.47-.15,20.67-.31,30.52-.51C807.43,546.32,757.65,410.14,729.14,301h-48c-24.6,110.2-65.67,239.75-121.28,348.67C569.24,649.82,579.07,650,589.27,650.09Z"/>
  <circle class="hub" cx="705.14" cy="301" r="26"/>
  <path class="tentLeftWall" d="M63.86,577.74q-1.44,50-7.72,99.26h339c-3.56-32.07-5.79-65.42-6.93-99.84C307.76,581.51,148,580.85,63.86,577.74Z"/>
  <path class="tentRightWall" d="M1026.58,592q-1.92,43.13-7.82,84.74h193.38c-2.87-28-4.58-56.27-5.3-84.84C1145.36,595.41,1085.19,595.62,1026.58,592Z"/>
  <g class="tentWallLight">
    <path d="M106.36,677H164.6c1.83-29.06,2.94-61.76,3.53-97-20-.2-39.25-.5-57.09-.88Q110.5,626.47,106.36,677Z"/>
    <path d="M388.21,577.16c-11.88.64-25.5,1.17-40.35,1.61-.06,32.05,2.07,64.28,4.44,98.23h42.84C391.58,644.93,389.35,611.58,388.21,577.16Z"/>
    <path d="M227.62,677h66.15c-1.33-30-2.15-62.53-2.53-97.11-20.32.24-41.55.36-62.85.36C229.18,616,229,648.6,227.62,677Z"/>
    <path d="M1064.77,593.81q-19.2-.64-38.19-1.8-1.92,43.13-7.82,84.74h42.44C1063.19,650,1064.3,622.24,1064.77,593.81Z"/>
    <path d="M1112.94,594.62q.48,42,2.38,82.13h50.8q-4-41.09-4.65-82.86Q1137.05,594.63,1112.94,594.62Z"/>
  </g>
  <path class="towerRightFront" d="M1471.22,374.11c-41.44,3.81-233.24,6.88-304.76,2-1.69,14-.84,33,0,45,83.42,4.73,253.13,3.81,305.61-1C1473.77,407.11,1473.77,387.11,1471.22,374.11Z"/>
  <path class="tentRightFront" d="M1226.42,547.73a118.16,118.16,0,0,1,.27,42.95c-72.72,5-143.62,5.4-212.37.53a118,118,0,0,1-1.06-41.9A1789.19,1789.19,0,0,0,1226.42,547.73Z"/>
  <path class="tentLeftFront" d="M405.14,527c-64,5-290,6-359,2-2,14-1,36,0,48,83,4,283,5,360-1C408.14,563,408.14,540,405.14,527Z"/>
  <g class="tentFrontLight">
    <path d="M1143.34,594.34q21.53-.4,43.28-1.39c.41-13.9.22-28.26-.4-43q-21.4,1-42.92,1.38C1143.75,566.72,1143.81,581.16,1143.34,594.34Z"/>
    <path d="M1091,551.65q-21.42-.2-43-.9-.27,21.57.11,42.41,21.28,1,42.82,1.29Q1090.74,573.6,1091,551.65Z"/>
    <path d="M1202.46,377.7l-.59,44.78c15.47.53,35,1,53.6,1.28-.17-15.51.11-28.43.34-45.13C1236.76,378.45,1217.47,378.14,1202.46,377.7Z"/>
    <path d="M1305.3,424.3c19.08.1,33.43.07,52.21-.09-.31-15.56-.51-29-.57-46-18.59.24-32.83.38-51.73.41C1305.55,395.51,1305.59,408.78,1305.3,424.3Z"/>
    <path d="M1402.13,423.4c15.11-.39,29.13-.9,41.48-1.54,0-16.63,0-30,0-46.15-11.94.58-26,1.08-41.53,1.48C1402.25,393.65,1402.27,407.05,1402.13,423.4Z"/>
    <path d="M83.14,530.38v48c18.22.53,38.85,1,60.78,1.27-.2-15.51-.15-31.66.11-48.36C121.6,531.12,100.82,530.82,83.14,530.38Z"/>
    <path d="M201.44,580.19c22.48.1,45.27.08,67.39-.09-.37-15.56-.59-32-.67-49.05-21.9.24-44.56.38-66.83.41Q201.95,556.89,201.44,580.19Z"/>
    <path d="M327.29,579.29c17.79-.39,34.31-.9,48.86-1.54q0-24.93,0-49.14c-14.05.58-30.67,1.07-48.91,1.48Q327.52,554.76,327.29,579.29Z"/>
  </g>
  <path class="towerRightTop" d="M1471.22,374.11c-52.26-10.4-102.71-27-151.1-40-49.16,14.54-100.44,31.8-153.66,42C1238,381,1429.78,377.92,1471.22,374.11Z"/>
  <path class="tentRightTop" d="M1226.42,547.73c-43.06-26-78.58-57.09-105.92-93.54-28.59,35.52-64.73,67-107.24,95.12A1789.19,1789.19,0,0,0,1226.42,547.73Z"/>
  <path class="tentLeftTop" d="M405.14,527c-67-31.84-130-71-178-122-48,52-116,96-181,124C115.14,533,341.14,532,405.14,527Z"/>
  <g class="tentTopLight">
    <path d="M226.14,405c29,45,96,95,149,124l-49,1C293.14,504,242.14,448,226.14,405Z"/>
    <path d="M226.14,405c8.51,44.88,21.54,87.23,41,126l-66.81.46C214.33,492.32,222.42,449.66,226.14,405Z"/>
    <path d="M226.14,405c-20.43,47.22-48,90.07-83.11,126.29l-60.89-.91C142.35,496.16,191.79,454.09,226.14,405Z"/>
    <path d="M1119.5,454.19c16.76,36.17,38.48,68.26,65.72,95.81l-42.92,1.38C1130.33,523.08,1123.58,489.89,1119.5,454.19Z"/>
    <path d="M1119.5,454.19c-6.3,36-15.9,68.74-29.51,97.46l-43-.9C1079.15,520.08,1104.67,488.15,1119.5,454.19Z"/>
    <path d="M1319.12,334.11c38,13,79.46,30.31,123.48,42l-41.59,1C1372.65,365.91,1345.32,348.3,1319.12,334.11Z"/>
    <path d="M1319.12,334.11c11,13.82,23.19,31.87,36.8,44H1304C1310.22,367,1315.06,348.7,1319.12,334.11Z"/>
    <path d="M1319.12,334.11c-21.23,15.09-42.64,33.5-64.31,44.52l-53.35-.93C1241.11,367.65,1280.31,349.64,1319.12,334.11Z"/>
  </g>
</svg>
