<svg viewBox="0 0 1287.45 426.73">
  <path class="checkerBlack" d="M490,31.82a53.75,53.75,0,0,1-10.76-.36c-3.08-.42-6.11-1.11-9.15-1.74l-11.34,8.59a136,136,0,0,1,10.78,10.45L480.57,62.1a194.59,194.59,0,0,1,11.08,16.64L521,101.6a55.41,55.41,0,0,0,14.91-2.14C551.34,59.2,541.49,33.51,490,31.82Z"/>
  <g class="checkerWhite">
    <path d="M545.05,90.05c1.09,2.53-1.76,6.49-5.34,8a33.07,33.07,0,0,1-3.83,1.38l.06,0q-3.37-6.94-7.11-13.7l0-.09c4.67-.88,9.59-3.1,11.45-7.46a2.33,2.33,0,0,0,.1-2.07"/>
    <path d="M526.13,50.32a28.09,28.09,0,0,1-14,6.63c-.52.1-1,.17-1.58.24h.1q4.84,6.74,9.31,13.74l-.07.07a33.41,33.41,0,0,0,7.75-3.45c2.75-1.59,5.42-3.65,6.73-6.55Z"/>
    <path d="M516,37.35c-4.39,3.95-15.68,6.54-16,5.95q-4.83-5.89-10-11.54s13.1-2.06,19.1-4.89Z"/>
    <path d="M491.65,78.74c3.08,5.17,5.92,10.42,8.52,15.68,2.47,5,11.35,7.28,20.8,7.18l0,.06c-1.67-2.88-2.81-6.1-4.29-9.1-1.35-2.71-3.72-7-3.72-7a85.6,85.6,0,0,1-13.47-3.5C496.57,81.11,491.65,78.74,491.65,78.74Z"/>
    <path d="M502.28,69.28c1.55,2.28,3,4.61,4.58,6.85,2.15,3.15,4.28,6.27,6.21,9.52l-.09,0a45.21,45.21,0,0,0,15.82.1l0,.09q-4.2-7.56-8.84-14.87l-.07.07a16.42,16.42,0,0,1-5,.62,33.21,33.21,0,0,1-6.22-.62c-2.11-.49-4.23-1.06-6.34-1.68Z"/>
    <path d="M480.57,62.1c-3.46-4.65-11.12-13.37-11.12-13.37,7.41.28,14.45,3.51,21.64,5.93l7.66,9.74c1.23,1.57,2.4,3.21,3.53,4.88,0,0-4.88-1.39-7.24-2.37C490.09,64.87,480.55,62,480.57,62.1Z"/>
    <path d="M480.15,40.92c1.46,1.79,2.9,3.6,4.33,5.41,2.19,2.77,6.61,8.33,6.61,8.33,1.83.61,3.67,1.18,5.53,1.62a38.88,38.88,0,0,0,14,.91S503.7,47.82,500,43.3a66.73,66.73,0,0,1-9,.07A98.9,98.9,0,0,1,480.15,40.92Z"/>
    <path d="M470.08,29.72c-2-.42-4.08-.81-6.15-1.07-5.14-.67-10.6-.48-15.2,1.9a114,114,0,0,1,10,7.76c.44-.52,9.59-.52,14.62.74,2.21.56,4.41,1.18,6.61,1.81Z"/>
  </g>
  <path class="checkerBlack" d="M566.9,6.25C561.84,8.62,555.73,8.46,550,8.19l-20.11-.94a51.82,51.82,0,0,0-13.69.68,24.36,24.36,0,0,0-3.89,1.22l-1.56,24.38c2.81,3.93,5.45,7.27,8,10.36l9.39,11.69A94,94,0,0,1,535,66c.73,1.3,1.45,2.61,2.13,3.94l21,5.2c.69,0,13.75.16,19.61.34l19.49-.57a57.54,57.54,0,0,0,11.32-2.55,58.48,58.48,0,0,0,7.29-3.11C606.36,43.38,590.5,22.06,566.9,6.25Z"/>
  <g class="checkerWhite">
    <path d="M561.93,48.6l-.27-.38c-5.4.12-10.81.1-16.21.32-1.12,0-2.24.1-3.36.2,2.15,3.11,4.29,6.23,6.39,9.37.9,1.35,1.8,2.71,2.68,4.07,6.4-1,12.92-.78,19.43-.73-.93-1.56-1.9-3.09-2.89-4.6C565.85,54.05,563.89,51.32,561.93,48.6Z"/>
    <path d="M580.9,46.6c-3-4.29-6.18-8.51-9.33-12.7-.38-.52-.77-1-1.16-1.55a103.14,103.14,0,0,1-18.8,1.89l10,14c3.64-.07,7.27-.21,10.9-.52C575.35,47.46,578.14,47.11,580.9,46.6Z"/>
    <path d="M551,34.24h.58l-3.86-5.37c-2.1-2.91-4.19-5.83-6.37-8.68a84.24,84.24,0,0,0-16.5,1.14c-.8.15-1.6.33-2.39.53q4.93,6.42,9.71,13C538.31,33.72,544.75,34.26,551,34.24Z"/>
    <path d="M511,32.91c.1-2.62,0-4.69,4.8-8.12a19.7,19.7,0,0,1,6.57-2.9l.05-.09q-5-6.45-10.07-12.79l0,.14a17.23,17.23,0,0,0-8.3,6.71c-1,1.67-2.17,3.91-1.16,5.59,2.78,4.63,5.41,8.58,7.9,12.08Z"/>
    <path d="M527.64,36a26.94,26.94,0,0,1,4.55-1.18h0q5.07,6.95,9.95,14a39.69,39.69,0,0,0-7,1.3,13.51,13.51,0,0,0-7.08,5.57s-9.37-11.61-9.34-11.81A16.9,16.9,0,0,1,527.64,36Z"/>
    <path d="M551.14,62.16h0c-.26-.17-9.84,1.6-12.94,5.86a5.5,5.5,0,0,0-1.12,2A74.52,74.52,0,0,1,541,79.72c1,3.82,1.47,8.1,4.3,10.86-2.86-3.22-1-10,2.51-12.52,2.92-2.15,6.62-2.75,10.29-2.92A88.27,88.27,0,0,0,551.14,62.16Z"/>
    <path d="M570.59,61.45a89.44,89.44,0,0,0,13.29-.64c1.89-.33,3.78-.64,5.65-1.09a129.82,129.82,0,0,1,7.7,15.19,123.88,123.88,0,0,1-19.49.57C577.94,75.38,573.37,65.62,570.59,61.45Z"/>
    <path d="M589.53,59.72h0c-2.66-4.47-5.57-8.8-8.59-13.07a63.43,63.43,0,0,0,16.43-5.43q4.39,6.07,8.81,12.76S595.17,58.37,589.53,59.72Z"/>
    <path d="M560.84,20h-.06a46.33,46.33,0,0,0,16-4l0-.05c3.37,3.6,6.78,7.5,10.19,11.68l-.24.13a97.49,97.49,0,0,1-16.33,4.65S564.18,24.06,560.84,20Z"/>
    <path d="M529.92,7.25l1.2,0L550,8.19l.06.09A132.46,132.46,0,0,1,560.84,20h-.06c-3.13.27-6.29.35-9.42.34-3.36,0-6.73-.11-10.09-.14l.14,0A106,106,0,0,0,530.28,7.52"/>
  </g>
  <g class="steelMedium">
    <path d="M731.34,414.81C694.57,233.46,622.26,55.52,566,5.47c.26-2.34,1.94-3.81,4.27-4.88C625.59,50.34,711.45,237.64,745,414.81Z"/>
  </g>
  <g class="rubberDark">
    <path d="M177,361.81C153.63,336.06,26,336.65,3.53,363c-6.35,11.83-2,35.57,6.73,51.79s162.8,14.32,171.19-.38C189.54,401.18,182.17,368,177,361.81Z"/>
    <path d="M360.69,361.81c-23.37-25.75-151-25.16-173.47,1.21-6.36,11.83-2.05,35.57,6.72,51.79s162.81,14.32,171.19-.38C373.22,401.18,365.85,368,360.69,361.81Z"/>
    <path d="M544.21,361.81c-23.37-25.75-151-25.16-173.47,1.21-6.35,11.83-2.05,35.57,6.73,51.79s162.8,14.32,171.18-.38C556.74,401.18,549.38,368,544.21,361.81Z"/>
    <path d="M727.89,361.81c-23.36-25.75-151-25.16-173.46,1.21-6.36,11.83-2.06,35.57,6.72,51.79s162.8,14.32,171.19-.38C740.43,401.18,733.06,368,727.89,361.81Z"/>
    <path d="M911.7,361.81c-23.37-25.75-151-25.16-173.47,1.21-6.35,11.83-2.05,35.57,6.73,51.79s162.8,14.32,171.19-.38C924.24,401.18,916.87,368,911.7,361.81Z"/>
    <path d="M1095.39,361.81c-23.37-25.75-151-25.16-173.47,1.21-6.36,11.83-2,35.57,6.72,51.79s162.81,14.32,171.19-.38C1107.92,401.18,1100.55,368,1095.39,361.81Z"/>
    <path d="M1278.91,361.81c-23.37-25.75-151-25.16-173.47,1.21-6.35,11.83-2,35.57,6.73,51.79s162.8,14.32,171.18-.38C1291.44,401.18,1284.08,368,1278.91,361.81Z"/>
  </g>
  <g class="rubberMediumDark">
    <path d="M175.76,361.08v-.53c-25.55-23.75-143-23.5-170,.27v.74C5.46,368.19,54.21,371,92.25,371,128.64,371,174.71,368.11,175.76,361.08Z"/>
    <path d="M359.44,361.08v-.53c-25.55-23.75-143-23.5-170,.27v.74c-.26,6.63,48.48,9.46,86.53,9.46C312.33,371,358.4,368.11,359.44,361.08Z"/>
    <path d="M543,361.08v-.53c-25.54-23.75-143-23.5-170,.27v.74c-.26,6.63,48.48,9.46,86.53,9.46C495.85,371,541.92,368.11,543,361.08Z"/>
    <path d="M726.65,361.08v-.53c-25.55-23.75-143-23.5-170,.27v.74c-.25,6.63,48.49,9.46,86.54,9.46C679.53,371,725.61,368.11,726.65,361.08Z"/>
    <path d="M910.46,361.08v-.53c-25.55-23.75-143-23.5-170,.27v.74c-.26,6.63,48.49,9.46,86.53,9.46C863.34,371,909.41,368.11,910.46,361.08Z"/>
    <path d="M1094.14,361.08v-.53c-25.55-23.75-143-23.5-170,.27v.74c-.26,6.63,48.48,9.46,86.53,9.46C1047,371,1093.1,368.11,1094.14,361.08Z"/>
    <path d="M1277.66,361.08v-.53c-25.54-23.75-143-23.5-170,.27v.74c-.26,6.63,48.48,9.46,86.53,9.46C1230.55,371,1276.62,368.11,1277.66,361.08Z"/>
  </g>
  <g class="rubberDarker">
    <ellipse cx="91.81" cy="360.06" rx="29.89" ry="3.37"/>
    <ellipse cx="275.5" cy="360.06" rx="29.89" ry="3.37"/>
    <ellipse cx="459.02" cy="360.06" rx="29.89" ry="3.37"/>
    <ellipse cx="642.71" cy="360.06" rx="29.89" ry="3.37"/>
    <ellipse cx="826.51" cy="360.06" rx="29.89" ry="3.37"/>
    <ellipse cx="1010.2" cy="360.06" rx="29.89" ry="3.37"/>
    <ellipse cx="1193.72" cy="360.06" rx="29.89" ry="3.37"/>
  </g>
</svg>
