<svg viewBox="0 0 1382.98 449.25">
  <g class="bushFurther">
    <path d="M700.12,280.2c-.07-20.57-22.21-24.25-28.19-16.15,2.08-15.65-21.54-21.81-29.57-9.17-3.5-17.35-31.72-16-35.87.46-12.57-12.79-31.44,2.15-29.64,25Z"/>
    <path d="M1273.16,286.16c1-29.41,27.89-40.18,36.23-26.79,0-16.33,22.12-20.64,25-7.14,1.93-18.81,30.31-12.34,26.79,6.12,10.46-10.21,23.73-1.27,19.65,27.81Z"/>
    <path d="M1226.49,282.17c6.5-10.73-8.85-29.33-20.59-17.54,1.49-14.89-18.69-17.8-25.7-7.65-.6-17.57-23.84-19.77-28.55-5-3.77-13.82-27-9.42-25.13,7.22-13.59-12-36.28,6.52-24.14,24.94Z"/>
    <path d="M82.77,289.23,3.93,290.34c0-53.09,25.7-44.74,30-36.09,0-11,24.89-11.55,22.2,3.89C67.23,245.37,86.06,253.33,82.77,289.23Z"/>
  </g>
  <g class="roofSide">
    <path d="M357.94,297c-13.29-10-56.25-41.29-70-55.71-14.8,15.53-51.67,43-64.95,52.66Z"/>
    <path d="M88.61,288.15c11.93-10,41.29-36.92,52-48.54,21.5,1.76,67.22,0,67.22,0a590.4,590.4,0,0,0,48.4,46.88Z"/>
    <path d="M593.67,248.75c-26.27.77-57.29,1.66-66,.87-6.26-4.19-11.61-6.42-17.39-11a60.82,60.82,0,0,1-15.35,11c-10.59.79-28.71.19-47.89-.87-9.64,10.73-37.17,33.07-46.41,41.08l237.55,2.48C627.24,282.19,599.7,256.37,593.67,248.75Z"/>
    <path d="M895.59,292.31C874.67,275.5,836.3,243.63,824,230.94c-30.27.93-58.3,1.64-81.24.43l-15.68-9.13c-16.2,16.66-66.29,56.31-89.19,75Z"/>
  </g>
  <g class="cactusFurther">
    <path d="M376.26,286.05c-5.17-6.66-12-14.37-11.39-18.12.58-3.36,9-9,13.87-10.83-3.2-2.6-10-10-8.74-14.5,1.38-4.89,15.28-11.5,20.13-12-3.89-4.57-10.77-16.64-7.79-21,2.74-4,19-5.11,25.44-4.63.08-7.72,4.08-23.86,8.39-24.59,5.58-.95,14.9,14.93,14.75,23.46,5-1.8,22.73-4.46,24.47-.78,2,4.33-4.58,14.48-8.64,19.09,7.31.81,24.79,6,26.22,10.7,1.29,4.2-10.37,14.42-16.08,18.22,4,3.34,12.22,9.73,13,14.89.71,4.78-5.23,13.2-13.1,22.3Z"/>
    <path d="M882.26,290s-18.19-16.66-17.48-21.58c.65-4.41,8.13-9.64,11.93-11.4-5.64-5.55-14.44-19.56-13-23.89,1.56-4.62,18.18-5.34,25.32-4.87-3.27-5.43-8.85-18.48-5.25-21.91s15.73,1.53,20.3,3.86c-.2.23,16-26.45,22.23-25.53,5.23.77,11.59,19.1,11.52,27,6.68-1.84,24-2.27,25.85,1.93,2.17,4.86-5.93,14.91-9.75,19,4.75.22,16.47,2.92,17.29,6.64,1,4.66-10.69,13.86-15,16.37,3.11.93,13,3.36,13.8,7.87s-8.63,16.55-15.85,26.25C944.32,291.1,882.26,290,882.26,290Z"/>
    <path d="M1016.47,284.89c-4.46-2.82-26.64-20.59-24.49-26.82,1.9-5.54,15.41-7.16,20.94-8.82-4.09-4.33-12.31-14.26-9.68-20,2.22-4.79,17.75-6.26,23.32-5.65.85-6.2,4.88-20.5,11.21-20.84,5.5-.29,12.76,15.15,14.14,22,6.15-.23,21.4-1.08,24.4,4.33,2.19,3.94-2.9,16.33-6.72,21.76,5.17.58,18.3.32,19.59,5.49,1.43,5.78-19.08,22.67-23.72,27.19Z"/>
  </g>
  <g class="treeTrunk">
    <path d="M1169.32,196c-15.94,33.58-15.08,22.56-15.72,53.13,0,1.84,1.93,41.41,1.93,41.41L1121.85,289s2.47-36.86,2.55-39.24c.73-22.6-2.71-29.66-16.22-48.64Z"/>
    <path d="M1300.6,214.4c-19.67,41.18-15.95,39.6-16.59,53.13-.32,6.76,2.8,41.41,2.8,41.41l-33.68-1.53s3.33-36.86,3.41-39.24c.37-12.06,2.16-16.82-17.08-48.64Z"/>
    <path d="M286.34,230.78c-2,2.85-18.6,20.34-20.79,26.16-1.71,4.58-.11,25.36.12,30.11l-42.12-.56s1.86-28.26.22-33.5c-1-3.06-12.58-20.39-15.58-24.78Z"/>
    <path d="M133.4,199.33c-3.77,5-15,20-16.74,29.48-.68,3.66,4,59.42,4,59.42,0-.15-32.1-2-32.1-2-1.09-.54,1.54-50.86.15-58.78-1.89-10.86-15.68-27.49-17.52-29.76S133.4,199.33,133.4,199.33Z"/>
  </g>
  <g class="treeFurther">
    <path d="M152,199.77c-12.19,12.21,1.54,33,16.59,25.53-4.68,22.81,34.61,29.68,41,14.1,1.39,14.74,25,11.75,25.89.93,4.15,18,33.32,14.64,34.51,1.69,7.17,17.07,40.25,12,40.71-7.23,10.89,9.1,34.18-14.16,20.55-26.48,23.22-10.9,12.36-47.46-12.6-43,13.66-11.44.12-32.75-15.29-25.41,20.05-15.28-1.39-47.43-23.27-37.36,2.69-22.8-33.19-29.45-42.43-8.52-6.4-13.48-28-8-24.72,8.63-8.63-12.81-37.34-.24-30.66,15.85-2.64-1.75-17.08,2-18.44,4.88Z"/>
    <path d="M1202.19,191.84l14.29-93.18c-1.24-6-7.83-11.61-13.89-12.55C1221,72,1204.45,41.21,1182,48.35c13.67-10.17,2.57-30.16-12.34-23.93,3.34-25.93-38.56-33.6-45.79-8.82-12.83-14.21-35.31-.48-28.76,18.53-18.95-6.86-34.11,21-18.81,34.67-12.41-1.32-16,14.59-4.67,19.39-19,1.36-25.68,35-7.79,43.28-15.16,6.18-11.7,39.32,6,40.74-9.15,13.66,7.88,33.93,22.61,25,1.85,22.22,39.13,28.9,47.71,9.32,4.83,11.9,23.61,11.67,25.26-1.49,12.22,16.31,38.76,3.91,36.76-13.23"/>
  </g>
  <g class="treeCloser">
    <path d="M164,181.19c20.06-1.05,23.69-33.14,5.77-39.9,13.88-3.13,13.31-18.79-.63-20.21,18.32-10.37,8.72-39.57-10.71-36.22,11.44-5.07,7.25-22.2-5.7-20.86,17.31-12.51.85-39.83-19.53-32.65,3.91-17.18-18.65-24.87-26.92-9.68C93.54,7.6,69.14,24.47,78.85,40.57,62.23,33.36,44.84,59,59.27,70.74c-18-5.59-34.05,28.56-18,40.63-12.09,2.47-13.73,23.87-.89,27.51-16.85,7.46-14.45,42.25,5,44.4C41.06,202.82,74.81,215.43,85.77,199c2.34,16.56,32.44,17.23,35.31,1C134.05,218.57,170.34,200.72,164,181.19Z"/>
    <path d="M1316.11,96.44c16.81-7.49,24.57,10.54,13.46,20.23,22.37-8.32,37.51,25.7,18.61,39.45,16.18,5.66,9.33,34.1-7.75,35.17,14.91,14-1,46.15-22.42,38.22,2.23,17.11-26.84,25.7-35.52,9.81-9.68,18.8-43.9,9.72-41.28-10.34-10.2,10.25-29-1.38-24.19-16.45-19.71,6.17-35.18-28-18.43-41.23-15-8.24-9.23-34.37,5.19-34.44-18.1-13.94-.52-48.66,21.78-44-4.2-12.5,10.14-20.58,18.37-10.78-.79-21.62,31.3-29.58,40.13-10.63C1301.45,57,1328.43,77.66,1316.11,96.44Z"/>
  </g>
  <polygon class="fence" points="1382.48 280.12 1365.45 268.39 1349.84 280.64 1332.96 268.84 1317.7 280.3 1300.1 268.06 1284.77 280.08 1269.27 268.06 1254.22 279.52 1236.77 267.36 1222.01 279.97 1204.99 267.81 1189.38 280.06 1172.49 268.69 1157.24 280.15 1139.64 267.48 1124.45 280.09 1109.08 268.65 1094.04 280.11 1076.59 267.51 1061.83 280.12 1044.81 268.39 1029.19 280.64 1012.31 268.84 997.05 280.3 979.45 268.06 964.13 280.08 948.62 268.06 933.58 279.52 916.12 267.36 901.37 279.97 884.35 267.81 868.73 280.06 851.85 268.69 836.59 280.15 818.99 267.48 803.8 280.09 788.44 268.65 773.39 280.11 755.94 267.51 741.18 280.12 724.16 268.39 708.54 280.64 691.66 268.84 676.41 280.3 658.81 268.06 643.48 280.08 627.98 268.06 612.93 279.52 595.48 267.36 580.72 279.97 563.7 267.81 548.08 280.06 531.2 268.69 515.95 280.15 498.35 267.48 483.16 280.09 467.79 268.65 452.75 280.11 435.3 267.51 420.54 280.12 403.52 268.39 387.9 280.64 371.02 268.84 355.76 280.3 338.16 268.06 322.83 280.08 307.33 268.06 292.28 279.52 274.83 267.36 260.08 279.97 243.06 267.81 227.44 280.06 210.56 268.69 195.3 280.15 177.7 267.48 162.51 280.09 147.15 268.65 132.1 280.11 114.65 267.51 99.89 280.12 82.87 268.39 67.25 280.64 50.37 268.84 35.12 280.3 17.52 268.06 0.5 281.12 1.24 448.75 1381.74 448.75 1382.48 280.12"/>
</svg>
