<svg viewBox="0 0 508.26 247.18">
  <path class="wallSide" d="M497.58,48.8q-2.06,98.87-.86,197.76-207.77-.27-415.53.12a1684.84,1684.84,0,0,0,0-196.17Q289.34,45.82,497.58,48.8Z"/>
  <g class="beam">
    <path d="M276.74,190.23Q277.53,119,276,47.74l-12.68.08q1.73,71.21.86,142.43Z"/>
    <path d="M123.67,190.85q1.44-70.62-2.15-141.2l-12.67.26q3.77,70.46,2.26,141Z"/>
  </g>
  <g class="frameMediumFront">
    <path d="M229.93,190.34q.84-61-.59-122-36.45.33-72.89.85,2.12,60.74,1,121.49Q193.68,190.47,229.93,190.34Z"/>
    <path d="M447.66,71.37q-.44,48.27-.59,96.55-61-.27-122.09-.26.24-48.41-.19-96.81Q386.23,70.84,447.66,71.37Z"/>
  </g>
  <path class="doorMediumFront" d="M221.1,190.37q.83-56.68-.42-113.38-27.35.27-54.71.62,1.67,56.49.65,113Q193.86,190.46,221.1,190.37Z"/>
  <path class="glassLight" d="M441.71,76.93q-.34,42.67-.49,85.35Q386,162,330.88,162q.17-42.76-.14-85.55Q386.23,76.49,441.71,76.93Z"/>
  <g class="windowDisplayLine">
    <path d="M414.73,76.73q-.18,42.72-.34,85.44"/>
    <path d="M359.41,76.5q.13,42.78,0,85.55"/>
  </g>
  <path class="roofTop" d="M507.44,40q-4.57-9.22-9.17-18.43-209.52-3.39-419,1.93-4.14,9.19-8.3,18.36Q289.14,36.55,507.44,40Z"/>
  <g class="roofSide">
    <path d="M507.21,49Q289.38,45.64,71.52,50.74c-.23-3.55-.35-5.32-.6-8.87Q289.14,36.55,507.44,40C507.35,43.58,507.3,45.37,507.21,49Z"/>
    <path d="M280,48.38A9.41,9.41,0,0,0,279.8,39q-44.4-14.34-89-28.14-43.34,15.12-86.56,30.5a9.82,9.82,0,0,0,.64,9.33Q192.46,48.89,280,48.38Z"/>
  </g>
  <g class="wallFront">
    <path d="M276.74,190.23q-82.78.15-165.55.71-.8,27.85-2.27,55.7,83.37-.15,166.74-.17Q276.37,218.36,276.74,190.23Z"/>
    <path d="M191.05,20.6q44.58,13.62,89,27.78-87.57.51-175.11,2.26Q148,35.52,191.05,20.6Z"/>
  </g>
  <g class="stepFront">
    <path d="M247.56,246.49q.21-7.12.41-14.24-55.14.06-110.28.2-.31,7.06-.67,14.15Q192.3,246.51,247.56,246.49Z"/>
    <path d="M237.68,232.26q.19-7.11.37-14.23-44.73.08-89.48.24-.25,7.08-.55,14.15Q192.86,232.32,237.68,232.26Z"/>
    <path d="M227.91,218.05q.17-6.93.31-13.85-35,.09-70,.24-.21,6.9-.43,13.79Q192.84,218.13,227.91,218.05Z"/>
  </g>
  <g class="shrubCloser">
    <path d="M469.55,246.53c6.32-.43,6.4-9.24.47-10.47,8.38-4.77,8.75-20.35-2.34-21.68,6-4.17,1-12.95-5.56-11.61-1.65-13.29-20.31-18-27.55-6.45-9.82-10.87-31.05-3-26.11,12.68-12.69-2.89-18,16-9.28,23.23-6.75,2.4-7,13.6,1,14.25Q434.86,246.5,469.55,246.53Z"/>
    <path d="M366.2,246.46c5.91-2.05,4-11.24-2.08-11.25,6.05-5.45,3.64-18-5.74-17.26,10.21-7.86.23-26.57-11.95-21.77-2.36-12.91-23.95-14.1-27.16-1.12-10.8-6.52-27.7,6.47-19,18-10.68-.52-14,13.61-8.1,20.63-4.63,2.37-7.92,13.95.4,12.76Z"/>
  </g>
  <path class="cypressCloser" d="M18,246.61c-10.76.14-13.51-13.5-7.67-20.5C-1,220.66-3.16,203.63,7.09,195.94-2,186.79-1.85,168.77,9,161,2,154.79,2.8,141.1,11.57,136.78c-4.81-3.05-5.27-11.34.13-14.14-7.44-9.06-6.82-24.25,3.13-31.23-4.67-4-2.6-11.75,2.6-14.1-6.77-7-5.53-20.11,3.46-24.87a12,12,0,0,1,5.29-18.5c-5.86-7.23-2.1-18.65,6.76-21.42C34.09,7,38.38-1.25,45.36.83c7.17,2.13,6.73,12,5.17,17.67,11.93,3.17,12.88,19.25,5.53,27.22,6.5,1.79,6.67,11.06,1.18,14.12,10.93,4.69,13.58,19.64,5.19,27.9,4.75,3.06,5.75,11.47-.39,13.7,8.23,5.48,11.23,18.49,3.17,25.61C74.13,133.89,77.62,147.94,68,156c6.84,4,7.37,12.48,2.3,18.16,10.73,7.5,12.18,25.12.6,32.58,9.07,7.9,9,28.27-6,28.87,2.6,4.9-1.28,10.19-6.18,11.1Z"/>
</svg>
