<svg viewBox="0 0 197.42 1513.67">
  <path class="steelMedium" d="M116.39,1469q15.51-525.85,8.08-1052.06-.94-67.21-2.27-134.43l-37.51.74Q86.4,370.09,87.49,457,89,577.72,89.29,698.5q.94,385-10.42,769.91c-29.54,3.22-62.33,16.82-77.19,44.26h194.1C180.72,1483.19,146.28,1475,116.39,1469Z"/>
  <path class="stripeWhite" d="M33.26,453.06c9.86,20.1,31.11,22.89,76.43,67.84,10.23,10.15,16.31,22,23.39,35.24,11.46-9.42,21.54-19.21,37.6-23.32,8.14-2.08,13.08-6.51,11.09-10.7l-108-154.19C46.34,403.48,19.79,431.19,33.26,453.06Z"/>
  <g class="stripeRed">
    <path d="M111.21,481.67c-27.38-25.51-53.82-38.09-69.3-49.7-4.19-3.62-6-7.61-6.3-11.76-6.41,12.23-8.34,23.12-2.35,32.85,9.86,20.1,31.11,22.89,76.43,67.84,10.23,10.15,16.31,22,23.39,35.24,7.67-6.31,14.73-12.79,23.38-17.61C156.46,538.53,135.1,504.85,111.21,481.67Z"/>
    <path d="M177.8,529.91c-11.16-19.58-19.13-37.67-43-59.56-29.31-26.8-38.7-33.57-67.07-51C55.34,411.59,50,405.54,49.3,399.31c7.25-9.72,15.82-20.16,24.48-31.38l108,154.19c1.31,2.74-.36,5.59-4,7.81Z"/>
  </g>
  <path class="stripeWhite" d="M92.31,27c13.48,26,33.88,133.56,41,182s18.16,107.31,27.51,156.84,17.09,104,20.91,156.28c-6.3-9.62-13.94-16.14-25.31-13.21-19.34,5.41-35.64,11.48-50.63,7.16-16.29-4.21-31.84-8-47.85-5C71.09,407.78,81.77,219.77,92.31,27Z"/>
  <g class="stripeRed">
    <path d="M126,516.76c9.38-1.46,19.43-4.76,30.46-7.85"/>
    <path d="M78,271.47h.14"/>
    <path d="M130.87,277.71h0"/>
    <line x1="109.69" y1="276.16" x2="109.69" y2="276.16"/>
    <path d="M126,516.51c4.49-76.89-12.63-150.27-16.27-240.35a55.46,55.46,0,0,1,15.55.07,30.45,30.45,0,0,1,5.63,1.48c7.49,89,25.59,158.19,25.59,231.2Z"/>
    <path d="M92.79,275.75c-.91,91.31,4.39,167,.9,237.33-12-2.69-23.71-4.25-35.71-2,7.35-57.94,13.94-142.52,20.17-239.63,4.88.49,7.85,2.91,14.64,4.27Z"/>
  </g>
  <path class="stripeWhite" d="M50.34,267.17C35.87,326.59,26.51,376.53,23.8,414.61c0,20.71,2.15,27.32,9.46,38.45-3.07-12.71,1.7-28.61,11.91-37.8C60,402,71.73,391,79.24,377.85,110.1,320.6,79.82,294.08,50.34,267.17Z"/>
  <g class="stripeRed">
    <path d="M87.79,312c-4.31,19.7-11.22,32.71-30.8,52.66-14.56,13-26.15,23.05-31.91,35.47q-.78,7.48-1.28,14.45c0,20.71,2.15,27.32,9.46,38.45-3.07-12.71,1.7-28.61,11.91-37.8C60,402,71.73,391,79.24,377.85,94.4,349.72,94.8,329,87.79,312Z"/>
    <path d="M78,295.39a140.89,140.89,0,0,0-13.22-14.72,153.64,153.64,0,0,1-14.4,17.69c-3.3,3.14-6.43,6.1-9.35,8.95q-5.05,23.1-8.77,43.78c5.78-7.29,13.51-14.35,22.44-22.67C66.63,315.76,73.53,306,78,295.39Z"/>
  </g>
  <path class="fieldBlue" d="M78,271.47c6.5.59,9.56,4.6,22.38,5.16,8,.35,14.73-2.06,24.85-.4,9.28,1.52,14.62,6.32,21.35,12.5-4.93-27.55-9.59-55-13.24-79.73-7.16-48.42-27.56-156-41-182C87.68,111.68,83,195.42,78.15,271.48Z"/>
  <path class="stripeWhite" d="M92.31,27,26.51,288c2.46-6.16,8.22-5.14,15-3.16,10.66,3.12,22.41,11,38.88,32.33,15.29,19.84,8.64,34.7-1.1,60.72C96,354,99.28,316.5,98.56,273.76,100.53,206.84,97.3,120.26,92.31,27Z"/>
  <g class="stripeRed">
    <path d="M98.53,295c-15.66-27.28-39.28-50.55-61.4-46.6L26.51,288c2.46-6.16,8.21-5.14,15-3.16,10.66,3.12,22.41,11,38.88,32.33,15.29,19.84,8.64,34.7-1.1,60.72C93.13,358.06,97.77,328.8,98.53,295Z"/>
    <path d="M45.93,213l8.33-33.38c16.27-3.59,32.29,10.83,44.78,31.46.15,15.2.14,29.78-.07,43.64C85.2,231.21,66.45,211.46,45.93,213Z"/>
  </g>
  <path class="fieldBlue" d="M98.31,170.11c-10.46-16.46-22.62-26.93-36.49-20.79L92.31,27C95,77.34,97.18,125.71,98.31,170.11Z"/>
  <path class="finial" d="M74,24.76a23,23,0,1,1,45.9-1.4A23,23,0,1,1,74,24.76Z"/>
</svg>
