<svg class="oceanBottomNear"
    xmlns="http://www.w3.org/2000/svg" viewBox="0 0 3017.53 837.31">
    <g class="tubeWormCavity">
        <path d="M1279.41,372.5c3.9-6,8.74-11.32,12-17.92a25.1,25.1,0,0,0-17.44-2c-3.21.79-6.51,2.09-6.52,6.42Z"/>
        <path d="M1162.41,358.5c3.66-4.38,7.63-8.51,10.72-13.34-8.59-6.24-18-4.31-19.72,3.84Z"/>
        <path d="M1215.41,330.5l15.5-19.5,2-.5c-2.74.32-4.56-1.92-7-2.53-7.59-1.89-15-3.08-22.05,2a8.46,8.46,0,0,0-3.46,4.06Z"/>
    </g>
    <g class="tubeWorm">
        <path d="M1238.41,504c2.52-4,6.63-6.38,10-9.48,11-10.07,21.56-20.63,29.91-33.06a84.06,84.06,0,0,0,12.47-29c1.25-5.7,3.54-11.06,4.3-17,.81-6.33,1.75-12.67,2.24-19,1-12.67.29-25.23-3.37-37.52a6.84,6.84,0,0,0-2.25-3.32c-7.83,8.7-16.26,6.62-24.89.92-7.29,10.19-9.88,21.64-11.4,33.42-1.2,9.29-.83,18.66-1.1,28-.21,7,1,13.75,2.21,20.47a48.7,48.7,0,0,1-.12,17.53c-2.53,14.66-9.56,26.28-22.53,34a21.29,21.29,0,0,1-3,1.21c-2-2.9-1.72-6.07-2.12-9.18-1-7.48-.22-15-1.17-22.54-.74-5.87,2.28-11.63,4.86-16.92,4.68-9.61,8.7-19.36,9.88-30.05,1.82-16.45,3.12-32.9,2.1-49.5-.79-12.78-1.92-25.46-4.47-38-.81-4-3-7.23-4.22-10.94-1.1-3.28-4.5-3.38-6.82-1.94-8.21,5.1-16.5,5.24-25.06,1.38-2.86-1.29-4,.43-5,2.52-2.56,5-3.46,10.6-4.38,16a276,276,0,0,0-3.51,28.49,153.28,153.28,0,0,0,2,37,177.09,177.09,0,0,0,15.79,48.58c4.77,9.47,3.77,20.12,3.59,30.43-.06,3.17-.63,6.33-1,9.5Z"/>
        <path d="M1148.41,426c-1.82-7.84-4.6-15.48-5.43-23.51-1-9.67-1.29-19.27.7-29a138.73,138.73,0,0,1,5.23-19.45c2.18-6.09,3-6.32,9.51-5.6,4.2.46,8.52.56,12.53-1.84,3.53-2.11,5.29-1.06,6.48,2.94,3.83,13,3.44,26.25,2.41,39.49-.77,9.84-2.09,19.61-2.67,29.5-.64,11.14,1.94,21.7,3.24,32.51Z"/>
    </g>
    <g class="kelpBack">
        <path d="M2337.91,558.5a34.31,34.31,0,0,0,10.73-15.1c3.09-8.31,7.45-16,10.53-24.3,4.18-11.3,7.77-22.69,8-34.6A156.12,156.12,0,0,0,2365.8,462c-1-7.4-1.05-15-2.35-22.46-1.17-6.63-2.52-13.3-2.9-20-.4-7-.5-14-.33-21,.34-13.24,2.94-26.11,5.36-39,2.25-11.91,6.82-23.24,11.25-34.56,7.15-18.27,10.09-37.42,10.56-57,.2-8.42-1.94-16.67-2.31-25a79.94,79.94,0,0,0-3.67-19.49l-.5-1.5c-3.25,1.48-3.46,4.68-3.95,7.51-2.17,12.55-7,24.28-11.71,35.92-6.26,15.4-16.05,29.09-20.75,45.45-2.58,9-5.25,17.89-6,27.13-1.07,13.78,1.84,27.36,3.44,41,1.18,10,3.73,19.82,3.53,30-.05,2.62-3.08,27.82-5.9,37.41-3.49,11.9-6.9,24.19-15.2,34.09-.6,8.37-7.1,12.92-11.87,19-6.51-14.29-49.4-107-53.64-113.47-5.37-8.16-8.94-17.19-13.08-26-6.33-13.44-7.94-27.46-6.93-42,.65-9.41,2.09-18.7,3.5-28a166.28,166.28,0,0,0,1-40.49,163.16,163.16,0,0,0-3-19c-2.56-12.15-6.9-23.79-10.89-35.53-4.29-12.64-10.89-24.24-16.1-36.46-.63-1.48-2.32-1.94-4-2l-1-4.5c1.07,12.48,3.93,24.78,1.64,37.52-2.09,11.62-4.65,23.18-5.64,35-.85,10.17-1.93,20.32-2.42,30.5a188.37,188.37,0,0,0,.09,25.48c.68,7.58,2.67,15.06,4.36,22.51A279.23,279.23,0,0,0,2224,355c4.76,10.68,10.22,21,15.43,31.53A105.73,105.73,0,0,1,2250,426c.47,6.17.48,12.36,1.65,18.56,1,5.44.28,11.32-.36,16.94-.54,4.82,1.2,9.27,1.26,14a140.06,140.06,0,0,1-2.67,29c-1.12,5.64.85,10.5,3,15.54,6.66,15.93,13.06,32,19.56,48Z"/>
        <path d="M869.41,587a107.63,107.63,0,0,1,7.49-33c2.87-7.49,5.72-15.14,10.66-21.39a273.21,273.21,0,0,0,17.51-24.51c7.26-11.62,12.17-24.11,15.75-37.13,4.38-16,5.77-32.49,6.44-49,.36-9.13-.61-18.34-1.4-27.49-1.3-14.89-.15-29.76,1.34-44.47,1.27-12.56,4.86-24.85,8.45-37.11,4.18-14.23,8.38-28.53,10.47-43.39A223.14,223.14,0,0,0,948.39,236a182.88,182.88,0,0,0-8.52-53c-3.93-12.55-8.72-24.94-10.29-38-1.13-9.45-3.05-18.81-2.84-28.48.19-9.38.55-18.7,1.63-28,.08-.62.53-1.54-.77-2.18-4.45,2.86-6.39,7.77-8.61,12.22A184.89,184.89,0,0,0,902.92,146c-1.92,9.91-4.12,19.92-3.33,30a104.61,104.61,0,0,0,6,28.95,167.23,167.23,0,0,1,6.06,21.13c1.91,8.13,4.3,16.17,6,24.38A182.9,182.9,0,0,1,920.8,273a232.56,232.56,0,0,1,.55,24.49c-.34,15-4.34,29.19-9.94,43-1.83,4.5-3.61,9-5.51,13.5a194.12,194.12,0,0,1-18.19,33.86c-3.1,4.53-30.83,171.69-29.3,174.14l-1-4c-5.76-10.44-8.6-22-12.94-33-5.1-12.94-11.06-25.46-17-38-4.36-9.23-8.33-18.72-9.46-29a88.06,88.06,0,0,1,0-15.49c.32-5-.83-9.89-.29-15,1.33-12.77,1-25.64.23-38.48-.55-9.13-1.32-18.27-4.14-27a152.65,152.65,0,0,0-10-22.74,247.39,247.39,0,0,1-11.43-25.79,89.39,89.39,0,0,1-5-18c-2.12-13.82-1.39-27.73-.68-41.5.77-14.88-1-29.4-2.79-44a41.43,41.43,0,0,0-1.51-7.49c-2.23-7-2-14.64-5-21.51l2-8c-.43,5.62-4.61,9.45-7.21,13.87-4.59,7.78-6.77,16.25-9.19,24.66-2.28,7.87-3.91,15.94-5.56,24-1.82,8.89-3.5,17.84-2,27,1.67,10.31,5.69,19.84,9.26,29.58a65.33,65.33,0,0,1,3.66,25.42c-.54,11.18-1.56,22.34-2.44,33.5-1,13,.72,26,1.25,39,.48,11.59,4.22,22.67,8.63,33.56,7.64,18.89,18.5,36.11,27,54.52,3.66,7.93,5.52,16.6,6.81,25.41,1.84,12.51.71,25,1.43,37.52.59,10.35.19,20.75,2.68,31.06,1.25,5.15.75,10.71,2.64,16,2.24,6.29,6.05,11.66,9.13,17.45,3.22,6.06,6.64,12,10,18Z"/>
    </g>
    <g class="kelpFront">
        <path d="M878.41,593c-3.75-8.61-4.48-17.92-5.89-27-1.7-10.91-1-22-.36-33a73,73,0,0,1,3.42-18c3.59-11.07,7.91-21.89,11.44-33a119.7,119.7,0,0,0,5.51-24.58c1.34-14.23,1.65-28.73-1.56-43-1.34-5.93-1.52-12.15-3.18-17.95-2.71-9.47-6.36-18.66-9.34-28.05s-7.8-18.29-11.65-27.44c-5-12-6.36-24.51-5.16-37,1.37-14.4,5.7-28.37,8.77-42.52,1.16-5.33,2.6-10.63,3.44-16,1.54-9.8,3-19.63,4-29.5,1.94-18.21,2.91-36.39-1.38-54.51-2.86-12-5.48-24.07-10.48-35.52C859.4,110.88,852.75,95.8,847.88,80s-10.82-31.27-12-48c-.74-10.32-4.12-20.51-1.44-31l-3,11.5c-.33.5-.93,1-1,1.5-.78,12.17-3.09,24.17-5.79,35.94-3,12.94-5.76,25.83-6.73,39.06-.61,8.33-1.84,16.72-1.27,25,.5,7.16,1.17,14.39,1.54,21.53.67,13,4.38,25.37,8.21,37.33,3.88,12.13,10.93,23.33,15.05,35.64,2.73,8.15,6.55,16,7.86,24.53,1.89,12.36.65,24.88-1.66,36.94-3.36,17.52-8.31,34.74-12.79,52a176.65,176.65,0,0,0-4.8,32,235.54,235.54,0,0,0-.24,29,79.85,79.85,0,0,0,9.6,34c6.91,12.88,13.83,25.76,21,38.48,5,8.76,7.74,18,7.42,28a118,118,0,0,1-12.11,47.93c-5.66,11.68-7.53,24.17-9.09,36.6a96.56,96.56,0,0,0,1.21,30c.18,1,.45,2.4,0,2.94-3.8,4-7.79,7.92-11.9,12a193.13,193.13,0,0,0-16.12-26.9c-7.87-10.69-18.33-19.18-25.07-31-7.29-12.75-14.81-24.79-14.13-40.6.54-12.35-1.61-24.75-4.09-37-3.1-15.3-7.33-30-14.44-44.07-5.24-10.38-13.09-18.74-19.4-28.26a114.63,114.63,0,0,1-8.89-15.33C728,377,723,363.62,723.88,349c0-.66-.39-1.33-.45-2a60.3,60.3,0,0,1,1.66-20.95c2.13-8,3.75-16.07,5.73-24.07a109.22,109.22,0,0,0,3.24-26.48c0-9.85.92-19.56-.33-29.54-1.41-11.24-3.54-22.31-5.17-33.48-2.72-18.71-8.55-36.42-15.15-54l-1-5.5A255.34,255.34,0,0,1,703,212.51c-3.75,13.27-7,26.67-10.56,40-2.15,8-3.6,16.31-3.27,24.49.44,10.92,1.12,21.8,4.44,32.61,3.16,10.27,6.37,20.56,9.25,30.92a55,55,0,0,1,1.7,16.48c-.25,8.82.45,17.67.31,26.5-.09,6.17-1.16,12.33-1.36,18.5a172.1,172.1,0,0,0,1.43,24c2,17.93,9.65,33,22.49,45.52q5.94,5.81,11.5,12c6.2,6.89,10.31,15,14.2,23.4s5.71,17.29,7.61,26.12a47.27,47.27,0,0,1,.07,16.44c-1.48,10,1,19.28,4.15,28.52,4.67,13.62,10.5,26.66,21.55,36.44,5.85,5.18,11.84,10.48,18.57,14.34a190.85,190.85,0,0,0,18.89,9.69c.79.34,1.39.62,1.48,1.53Z"/>
        <path d="M2309.41,561c-2.17-3.54-2.44-7.77-4-11.48-5.65-13-10.59-26.3-16.81-39.09-4.85-10-9.36-20.2-13.42-30.52-4-10.15-7.91-20.55-9.6-31.43-1.16-7.44-2.39-14.86-3-22.45-.9-11.7-1.67-23.4-.94-35,.81-12.92,4.74-25.43,7.82-38,2.78-11.35,6.6-22.39,8.63-34,2.39-13.63,4.41-27.15,3.38-41-.74-10-1.79-19.88-4.58-29.49-5.52-19-10.95-37.86-11.2-58a213.78,213.78,0,0,1,3.9-41c2.07-11.47,5.71-22.65,8.29-34a199.52,199.52,0,0,1,13.67-39.94c2.21-4.77,4-10,8.38-13.55l-1,2c2.25,4.53-.65,8.75-1.25,13-1.94,13.8-3.9,27.51-4.54,41.52-.54,11.72,1.05,23.14,2.67,34.46,1.21,8.51,4.87,16.84,7.95,25.11,2.12,5.7,5.15,11,6.65,16.94a211.23,211.23,0,0,1,5.54,34c1.38,16.23-1.68,31.74-7,47-5.18,15-11,29.89-13.71,45.54-.87,5-2.18,10.35-.68,16,1,3.73.43,8.24.65,12.42.54,10.86,3.21,21.12,5.82,31.58,1.66,6.67,4.34,13,5.49,19.89,2.54,15.13,9,29.29,11.47,44.5,1.58,9.64,2.53,19.32,3.44,29a135.5,135.5,0,0,1-.83,33.45c-1.2,7.68-.69,15.46-2.55,23.09-1.71,7-.23,14.5-2.69,21.45-1,3-.93,6-1,9Z"/>
    </g>
    <g class="rockBack">
        <path d="M1726.91,569a51.15,51.15,0,0,0-11.5-17c-3.21-3.12-6.28-6.42-9.35-9.64-4.85-5.1-11.38-6.4-17.18-9.3-4.81-2.4-8.32-6.68-13.46-8.59-15.69-5.84-31.46-8.19-47.51-1.46-7.57,3.17-15.07,6.51-22,11-8.42,5.44-18.46,7.76-26.54,14-6.82,5.24-13.91,10.11-21,15-11,7.68-20.76,16.89-30.34,26.16-6.77,6.54-13.35,13.39-18.44,21.67-2.71,4.41-5.82,8.77-8.85,13.08-3.72,5.29,38.85,205.46,40.06,210.6h313.08Z"/>
        <path d="M1321.41,595c-4.48-18-13.4-33.81-22.76-49.64-6.34-10.71-14.71-19.3-23.36-27.74-4.65-4.53-10.32-8.16-16-11.49-3.77-2.23-6.7-5.38-10.36-7.72-11.64-7.45-22.86-15.53-34.47-23.05-14.6-9.46-24.93-23.31-35.76-36.72-9.37-11.62-21.22-20.21-37.33-19.57-5,.2-10,1.29-15,1.92-10.75,1.37-21.36,3.48-32,5.47a173.39,173.39,0,0,0-36.46,11.62c-12,5.15-24.06,10.27-35.44,16.58-14.79,8.2-29.39,16.83-43.09,26.84-5.39,3.94-11.73,6.33-17,10.47s-11.07,8.13-15.07,14a18.36,18.36,0,0,1-6.34,6.19c-4.28,2.34-5.14,7.5-7.52,11.4a104.64,104.64,0,0,1-20.83,25.23A215.12,215.12,0,0,1,895,562.59c-7.88,5.54-16.47,9.8-24.58,14.89a196.5,196.5,0,0,0-26,19C832.69,606.91,824,619.75,815.94,633s-16,27-24,40.47a9.3,9.3,0,0,1-1.33,1.35c5.58,9.15,79.8,132,91.89,151.63,1.57,2.55,2.34,5.66,4.95,7.53l-1.5,1c1.77-.84,3.66-.49,5.5-.49h335.5Z"/>
        <path d="M599.91,834.5q-266,0-532,0c-5.88,0-10.4-2.35-14.58-6.44s-4.8-11-10.42-14.08c-4.68-10.51-11.75-19.67-17.84-29.28-6.87-10.86-11.19-22.46-15.73-34.19C5.15,739.69,4.21,728.3,2.26,717c-3.29-19.06,0-36.88,8.26-54,1.51-3.12,2.24-6.68,3.73-9.36,3-5.34,4.79-11.3,8.6-16.24,4-5.2,7.82-10.6,11.38-16.07,5.87-9,12.44-17.43,16.61-27.71,3-7.37,8.88-13.95,15-19.7a91.68,91.68,0,0,0,18.79-24.1c4.61-8.75,7.24-18.54,10.74-27.87l.5-1c3.83-11.67,7.3-23.47,11.63-34.95,2.86-7.57,7.06-14.62,10.52-22,3.13-6.66,7.86-12.56,11.27-19.11,4.53-8.74,10.3-16.59,16.08-24.46l1-.5c3.11-6.12,8.18-10.2,14-13.5l3.5-2.5c2.23.47,2.93-1.77,4.47-2.57,4.43-2.31,8.7-4.93,13-7.43l.5-1c8.89-4.21,16.31-10.79,23.72-16.84,8.6-7,18.31-12.89,25.66-21.26,5.8-6.61,12.83-11.81,18.78-18.25,8-8.62,17.8-15.29,27.34-22.15,11.65-8.37,23.65-16.18,35.93-23.61,6.13-3.72,12-8.05,19.09-9.3,9.4-1.65,18.82-3.3,28.51-1.21,4.85,1,10,.65,15,1.15a122.47,122.47,0,0,1,20,3.88c12.5,3.41,23.2,10.18,32.75,18.36,4.07,3.49,8.07,7.64,12,11.48,10.15,9.94,20,20.46,33.2,26.86,6.63,3.21,12.57,7.83,19.1,11.3,4.65,2.48,9.73,4.17,14.57,6.33,5.86,2.6,10.09,7.12,15.26,10.44,5.5,3.53,10.78,7.52,16,11.48a36.68,36.68,0,0,1,7.48,6.95c5.28,7.23,12.37,12.66,18.21,19.33,10.49,12,20.75,24.1,29.53,37.49,11.59,17.67,22.33,35.8,33,54,3.75,6.37,5.23,13.24,6.19,20.11a86.92,86.92,0,0,0,16.07,40.05c5,6.92,11.39,12.27,17.52,18s10.67,12.83,14.71,20.34a328.88,328.88,0,0,1,18.84,41.57c3.06,8.25,4.48,17,6.73,25.44s2.51,17.18,4.83,25.54c.56,2-.45,2.86-2,3.51Z"/>
    </g>
    <g class="rockMiddle">
        <path d="M1394.44,569.39a54.19,54.19,0,0,0-20.52-1.76c-8.1.66-16.21,1.22-24.08,4.18-6.1,2.29-12.77,3.32-18.38,6.77-9.69,5.94-18.55,13-24.47,23-2.87,4.81-7,8.46-10.67,12.37-9.34,9.82-18.17,20.16-28.42,29.07-10.07,8.76-20,17.75-29.85,26.67-13,11.69-26.78,22.4-39.34,34.65-13,12.69-18.61,28-21.34,45.19-1.2,7.52-.59,15-.67,22.51a39.79,39.79,0,0,0,4.23,19c4,7.75,9.35,14.55,14.52,21.48A119.75,119.75,0,0,0,1208.39,827a26.25,26.25,0,0,0,19,7.48c29.17,0,237.5,0,312.5,0,10.47,0,19.78-3.28,26.95-11,10.53-11.38,18.94-24.48,23.65-39.08,2.7-8.34,7-15.3,11.48-22.32,6.15-9.53,5.92-19.85,3.66-30-1.3-5.85-2.85-11.78-4.6-17.6-3-10.17-7.06-19.93-13.29-28.34a174.4,174.4,0,0,0-27.29-29.69c-8.25-7-18.12-10.83-27.63-15.28-10.19-4.77-19.89-10.19-29.58-15.9-10.65-6.28-19.55-14.38-29-22-13.35-10.77-27.18-21.4-44.82-24.71C1427.53,578.16,1404,572.31,1394.44,569.39Z"/>
        <path d="M2280.91,561c-3.38-8.52-8.29-16.19-12.68-24.17s-6-17.63-9.41-26.29c-3.83-9.66-8.82-18.82-16-26.49-4.72-5.07-7.91-10.93-11-17-5.93-11.62-12.68-22.42-24.29-29.77-5.89-3.73-10.62-9.35-16.52-13.44a47.44,47.44,0,0,0-9.15-4.75c-16.76-7-34.13-12.33-51.54-17.32-7.46-2.14-15.18-3.91-22.89-5.44-6.35-1.27-12.46-3.93-18.52-6.37-9.94-4-20.28-6.87-30.12-11.23-3.9-1.73-6.55-4.7-9.73-7-11.25-8-23.21-14.85-34.36-23-10.76-7.88-21.49-16-33.66-22.06-8.61-4.33-17-9.34-25.65-13.7-10.08-5.07-20-11-32-9-14.42,2.42-28.87,4.27-41.61,12.82a288.18,288.18,0,0,0-28.62,21.47c-9.55,8.3-18.67,17.29-27.9,26.05-10.52,10-21.45,19.58-30.81,30.69-7.27,8.64-14.84,17.09-20.62,26.91a26,26,0,0,0-3.47,11c-.9,9.35-4.78,17.85-8.05,26.47-5.28,13.89-12,27.14-18.21,40.63-4.65,10.17-9.31,20.37-14.36,30.33a142.29,142.29,0,0,0-11.2,30.11c-2,8-2.49,16.29-3.66,24.46-1.48,10.36-3.81,20.58-5.08,31-1.15,9.37-3.79,18.82-3.91,28-.13,10.5-1.76,21.1.12,31.8.89,5,.09,10.82.49,16.18a46.35,46.35,0,0,0,10.26,25.61c12.63,16.15,25.11,32.47,39.33,47.2,6.65,6.9,14.37,13.07,21,20,7.57,7.81,15.63,15.07,23.43,22.58a117.86,117.86,0,0,0,28.28,19.78c11.12,5.69,22.59,7.57,35.05,7.54q167.25-.39,334.5-.14c1.84,0,3.73-.35,5.5.49Z"/>
        <path d="M2569.91,834.5q170.25,0,340.5,0c1.82,0,6.5-1.45,6.5-1.45,7.51-1.47,12.57-6.76,18-11.5,9.94-8.65,15.71-20.38,23-31,4-5.76,10-9.38,15.45-13.54,11.62-8.81,20.44-20.26,29.52-31.48a69.34,69.34,0,0,0,10.54-17c4.68-11.24,3.51-22.49-.2-33.47a135.69,135.69,0,0,0-8.64-19.66c-2.7-5.12-3.19-11.36-5.29-16.86a140.46,140.46,0,0,1-6.19-22.58c-1.52-7.55-3.45-15-5.1-22.48a20,20,0,0,0-4.74-9.36c-7.11-7.56-11-17-16.42-25.59-9.73-15.3-19.12-30.93-35-41-9.44-6-19.11-11.3-29.94-14.71-7.82-2.47-14.92-7.13-22.59-10.23a319.42,319.42,0,0,1-45.05-22.44c-8.59-5.17-16.78-10.82-24.95-16.58-10.2-7.2-20.64-14.05-31-21.05-8.84-6-17.76-11.87-26.47-18-7.07-5-15-8.29-22.57-12.38-4.74-2.57-9.32-5.43-14-7.92-8.5-4.47-16.75-9.56-25.93-12.64-11.89-4-23.44-8.92-35.46-12.61-12.67-3.88-25.6-3.46-38.53-3.36-7.33.06-14.67.59-22,1-11.82.59-23,2.95-33.07,9.88-11.84,8.12-23.07,17-34.92,25.12-7,4.79-14.1,9.53-21,14.55-2.92,2.14-5.37,4.94-8,7.44-10.91,10.22-19,23-29.62,33.38-9.28,9.05-19.16,17.59-27.72,27.26-12.44,14.08-26.48,27.17-34.06,44.9-3.69,8.65-9,16.62-11.22,25.93-.57,2.34-.81,4.71-1.38,7Z"/>
    </g>
    <g class="rockFront">
        <path d="M2612.41,781a115.24,115.24,0,0,0-6.77-23.59c-2.4-6-6.75-10.89-8.65-16.93a180.74,180.74,0,0,0-16.08-37c-2-3.49-3.46-7.49-6.11-10.4-6.2-6.8-12.11-13.91-18.1-20.85-6.41-7.43-14.29-12.55-21.9-18.09-7-5.07-14.89-8.83-22.39-13.16s-15-8.72-22.51-13c-9.92-5.62-32-22.45-32.27-22.72-5.87-6.21-14.07-8-21.17-11.88-11.05-6-22.93-10.11-34.11-15.79a41.86,41.86,0,0,0-13.43-4.66c-4.62-.61-8.36-3.58-11.91-6.1-12.4-8.81-26.54-13-41.13-14.57a87.56,87.56,0,0,0-40,4.58c-6.55,2.42-13.62,3.46-20.45,5.13a89.08,89.08,0,0,0-38.48,20,227.86,227.86,0,0,0-31.44,33.54c-5.18,6.9-8.91,14.86-14.61,21.41q-9.54,10.93-19.49,21.51c-10.69,11.4-19.15,24.38-27.61,37.44-4.21,6.5-7.45,13.54-11.64,19.9-3.57,5.43-5.6,11.71-9.83,16.59A8.55,8.55,0,0,0,2120,737c-.66,6.69-5.75,11.28-7.89,17.38-2.73,7.77-2.43,15.31-2.23,23.11.18,7,2,13.71,3.23,20.46,2.22,12,5.92,23.57,16.8,31a27.91,27.91,0,0,0,8.51,3.47,47.83,47.83,0,0,0,13,2.06q227.25-.06,454.5,0Z"/>
        <path d="M885.41,832c.45,2.17,2.24,1.65,3.49,1.45,16-2.54,28.5-10.35,34.74-25.56,2.19-5.33,3.16-11.5,4.3-17.38,1-5.14,1.07-10.33,1.56-15.5,1.21-12.9-5.71-22.54-12.69-31.93a121.28,121.28,0,0,0-26.31-25.7c-3.77-2.73-6.81-6.47-10.45-9.55a234,234,0,0,0-32.7-22.72c-6.82-4-14.44-6.49-21.92-9.17-6.2-2.23-12.54-4-18.55-6.88-8.52-4-17.47-5.17-27-4.21-10.84,1.1-20.73,5.21-31.06,7.87-9.51,2.45-18.45,6.45-27.93,8.77a123.84,123.84,0,0,0-38.06,16.91c-5.4,3.5-7.91,9.13-11.93,13.61-3.71,4.13-6.59,9.81-11.19,12.13-6.3,3.18-11.93,7.38-18.25,10.5-15.39,7.61-30.75,15.43-43.08,27.85-2.29,2.31-4.54,4.66-4.95,8-.58,4.77-5,7.3-6.25,11.94-2.87,10.39-5.94,20.87-4.49,31.52,1,7.07,4.19,14,12.16,17.15a44.69,44.69,0,0,0,17,3.46q133.76-.15,267.5-.12c1.82,0,4,1,5.5-1Z"/>
    </g>
    <path class="coralTube" d="M1915.41,834.5c.1-7.38-1.18-19.44-8.1-22.8s-13.84-7-20.9-10.19c-14.4-6.5-26-16.06-33-30.51l24.5-21.5c4.62,1.58,7.45,5.11,10,9,3.25,4.93,7.22,9,13,11s8.26.92,11-4.5c2.85-5.62,1.93-11.55.34-17-4.21-14.31-9.55-28.28-13.7-42.59-2.12-7.34-5.22-14.57-5.15-22.46l35.5-15.5c5.43,4.62,5.76,11.26,6.38,17.51.75,7.45,3.16,14.39,5,21.51.74,2.79,2.31,5.05,3.63,7.45,2.45,4.44,5.74,4.66,9.45,1,3.95-3.86,5.15-8.83,6-14,1.34-8.14,1.52-16.44,3.48-24.5,3.59-14.79,9.87-28.43,17.51-41.5l29.5,22.5c-4.67,3.7-4.83,9.64-6.85,14.56-3.85,9.41-5.62,19.51-7.52,29.46-1.34,7-1.12,14.37-2.24,21.46-.9,5.8-.09,11.34.2,17,.18,3.47-1.18,7.38.06,10.93.5,1.44.3,3.74,3.31,4.27,2.67.48,3.5-1.09,4.48-2.27,6.69-8.1,11.3-17.45,15.52-27q3.83-8.61,6.93-17.52a2.84,2.84,0,0,1,2.11-2l30.5,14.5c-3.23,16.62-8.32,32.68-16.65,47.41a120.81,120.81,0,0,1-18.2,24.23c-8.33,8.68-14,19-12.7,31.86a96,96,0,0,1-.45,10Z"/>
    <g class="coralTubeCavity">
        <path d="M2004.88,643c-4.93-4.67-10.86-10-18.47-9.53-4.81.3-7.46,3-5,7,5,8,15.46,14.31,24,17,2.53.8,6,0,5-4C2010.41,653.5,2007.4,645.42,2004.88,643Z"/>
        <path d="M2032.41,701.5c-7.71,5-7.55,5.14.45,11.07a51.13,51.13,0,0,0,16.1,7.77c1.86.56,4.58,2.93,6.36.11,1.64-2.59-.15-5.38-1.52-7.37-3.56-5.22-8.84-8.34-14.89-10.07-2-.57-4-1-6-1.51Z"/>
        <path d="M1853.41,769.5c-.44,2.88.73,2.32,3,2,5.67-.79,21-14.32,22.5-20,.6-2.31-1.42-4.24-4-3.44a27.08,27.08,0,0,0-9,4.92,52,52,0,0,0-12.49,14.52Z"/>
        <path d="M1919.41,666a47.52,47.52,0,0,0-26.79,16.43c2.51,3.36,4.76,3.77,8.88,2.33,5.82-2,11.82-3.6,17.39-6.3,4.68-2.26,9-5,9.68-11.08-2.76-1.7-5.75-1.33-8.66-1.38Z"/>
    </g>
    <path class="coralBrain" d="M1072.66,818.5a4.84,4.84,0,0,1-.2,3.52c-3,6.82-1.83,9.14,5.45,11,6.26,1.58,12.67,1.09,19,1a141.63,141.63,0,0,0,27-3.53c10.28-2.25,19.41-7.25,27.49-13.95,5.34-4.44,7.21-15.42,4-22-1.63-3.33-1.91-6.12.41-9.58,6.35-9.47,6.72-20.16,4.54-30.92-2.5-12.39-9.29-22.09-19.94-29-3-1.91-9.9-1.31-12.49,1-5.53,4.9-9.55,3.84-12.88-3.06a25.09,25.09,0,0,1-2-9.44c-.77-15-10.57-22.59-23.14-26.79-10.26-3.44-21.09-4.92-31.94-1.25-8.83,3-17.24,5.83-19.16,17-1.08,6.3-7.47,8.2-13.33,5-12.06-6.49-23.64-4.92-35,2-10.55,6.38-17.65,15.85-23.93,26.07-1.58,2.58-2.19,5.73-3.6,8.44a24.09,24.09,0,0,0-.4,22.49,34.32,34.32,0,0,0,4.46,6.51c6.69,8.4,5.33,12.79-.12,19.44-4.39,5.36-7.16,10.91-4.31,17.54,3.8,8.82,8.08,17.26,17.34,22.18,6,3.17,12.15,2.9,18,2.12,8.61-1.14,16.67-.06,25.08,1.5,8.62,1.59,17.5-.11,23.81-6.89,4.09-4.39,7.91-7.09,14.17-6a9.41,9.41,0,0,0,6.83-2c1.69-1.47,4-1.58,5.39-3.33Z"/>
    <g class="coralBrainCavity">
        <path d="M1057.91,707c-.88,3.27,1.93,4.59,3.53,6.48,3.55,4.18,6.7,8.54,8,14,2,8.44-2,15.15-6.58,21.44-3.53,4.82-7.72,9.23-10.36,14.59-5.19,10.5-4.11,25.81,6.92,32.48,4.08,2.47,9.94,2.27,13.47-1,4-3.77,7.74-7.66,10.25-12.86,1.72-3.55,4-7,8.14-9.38,4.36-2.44,8-1.82,11,.44,4,3,6.22,7.25,4.7,12.86-2,7.45-8.32,11.82-12.1,18-.48.79-1.48,1.25-2,2-2.12,3.52-6.28,6.55-3,11.48s8.36,7.32,13.45,6.26c11.3-2.35,22.8-4.9,31.08-14.24,4.19-4.73,5.15-9.64,2.55-15.56-2-4.5-1.82-9.23,2-12.93,6.36-6.22,8.6-14,9-22.53.31-7.07-2.8-12.74-7.63-17.37-1.55-1.48-4.56-1.42-7-2.09-4.13,1.46-5.74,5.17-6.26,9-.65,4.82-4.09,6.52-7.67,7.3s-7.93.73-10.39-2.86c-5-7.32-9.1-14.84-7.69-24.48,1.91-13-9.28-27.79-22.41-29.8-3.32-.52-6.58-1.46-10-1.72-5-.39-11,3.18-12,7.54a2.17,2.17,0,0,0,1,2.5Z"/>
        <path d="M1037.91,755c-3.11,8.77-7.2,17.17-6.7,27,.26,5.07,3,8.12,5.72,11.47,3,3.68,6,7.44,5.44,12.52a17.59,17.59,0,0,1-24.91,14.4c-5.11-2.35-9.59-2-14.59,0-4.61,1.85-9.68,3.84-14.42.53-5.5-3.84-6-18,3-20.84,7.93-2.49,10.87-8.89,11.63-15.64.59-5.27-1.76-10.8-6.09-15-3-2.91-6.18-5.28-10.08-6.38-13.08-3.67-13.12-9.95-8.68-19.4,4-8.48,11-15.36,17.74-22.11,2.85-2.88,7-1.23,10.49-1.79,1.24-.2,3.36,2.45,2.9,4.74-.61,3,.08,6.19-1.84,9.08-1.12,1.69-.82,3.89.33,6s2.68,2.44,4.56,1.44c5-2.66,9.22-6.1,11.52-11.48,1.29-3,2.84-6,5.52-8,6-4.38,13,1.24,14,7,1.52,8.5-.79,16.12-4.6,23.49-.44.87-1.66,1.41-.46,2.52Z"/>
    </g>
    <path class="urchinBack" d="M282.91,834.5q-74.25,0-148.5,0a31.66,31.66,0,0,1-13-2.94c-3.11-1.39-3.8-3.5-3.5-6.57.65-6.88,5.84-10.94,13-10l-5.5-1.5c-5.47-5.66-5.38-7.69.5-12h7c-2.69-1.32-5.64-.79-8.64-2.2-9-4.26-7.77-8.39-2.39-13.83,3.55-3.58,8.53-2.12,12.46-4.18l1.07,2.71-3-3.5c-5.47-6.34-5.54-11.51.05-14.41,1.71-.89,3.95-.76,5.95-1.09l6,4c-2.83-2.83-6-5.41-8.39-8.58-2-2.66-3.33-5.78-1.17-9.46,5.09-8.67,13.46-10.36,21.05-4,.61.51,1.06,1.22,2,1l3,5c-4.56-7.47-2.6-13.44,4-17,4-2.17,7.42-.17,11,1l2,3c-2.54-2.09-1.06-5.11-1.27-7.52-.41-4.58,3.73-8.63,8.27-9.48s7.94,1.1,9.87,6a8.87,8.87,0,0,0,2.13,3.45l.5,3.5a4,4,0,0,1,0-3.53c4.4-8.73,10-10.54,19-6l2,5.5c-2.8-8.55,2.44-14.9,9.5-17.5,4.23-1.56,9.49.47,11,4.51,1.89,5.2,3.37,10.49,1,16l2-7.5a21.61,21.61,0,0,0,2.49-1c6.11-3.37,9.34-1.52,11.2,5,1.16,4-1.08,6.48-2.19,9.55l3.5-7c2.95-1.22,5.09-3.53,7.54-5.45,5-3.94,11.23-3.06,14.42,2,1.61,2.55.9,5.61,1.08,8.47.1,1.68-.61,3.4.92,5,5.94,6.4,11.71,13,17.54,19.46Z"/>
    <path class="urchinFront" d="M481.91,783.5c5.8-1,11.74-.78,17.11-4.34,3.61-2.39,6.57-5,6.2-9.14-.34-3.74-1.91-7.45-6.29-9.08-6.74-2.5-13.35-1.87-20,.06l5-2c-.1-2,1.65-3,2.52-4.49,4-6.71,1.5-13.29-5.09-16.88-1.89-1-4.69-.15-6.93-1.13l-7.5,3.5c2.33-1.17,6.47-2.1,6.66-3.55.55-4.19,4.09-6.49,5.05-10.4,1-4.1,1.62-8.25-1.38-10.85s-7.25-1.92-10.8-.14c-3.13,1.56-6,3.61-9,5.44l-4,6c3.6-4.21,3.81-10.43.5-14s-9.19-3.68-13.61-1.19c-2.56,1.44-3.64,4.28-6.39,5.19l4-4c-1.46-1.44-1-3.29-1-5,.1-7.84-3.2-12.38-9.52-13-5.15-.51-11.18,4.37-12.4,10.52a9.2,9.2,0,0,1-3.1,5l-.5,6c1.55-5.39-.55-9.6-4.53-13-3.68-3.11-11.28-1.18-15,3.45-2.63,3.29-5.18,6.58-5.48,11l1.5-6.5c-2.86-.55-2-3.42-2.84-5.08-2.84-5.76-5.57-7.84-11.66-7.42-4.53.31-9.56,4.4-10.41,9a17.73,17.73,0,0,1-2.59,6V721c1.09-6-3.46-10.59-9.5-9.5-8,1.45-11.35,6.26-9,13l-1-4c-2.2-.47-3-2.26-4.05-4-2.73-4.27-8-6.33-11.95-5-5.2,1.7-8,5.49-7.35,11.48.41,3.66-.42,7.49,1.28,11,.52,1.08,1.32,1.09,2.07,1.47l-4-4.5c-2.6.61-3.85-2-6-2.53-6.78-1.76-14.38,4.52-13.33,11.5.24,1.53-1.28,4.75,2.32,5l-2.5-1.5c-3.71-1-6.12-4.61-10.5-4.63-4,0-8.68,1.83-10.93,6.16-1.83,3.51-2.26,7.18.91,10.49,2.94,3.07,5.69,6.31,8.52,9.48l-4.5-3.5c-.5.17-1,.36-1.5.5-4.38,1.12-8,3.16-9,8-.7,3.66,2.74,8.49,7.46,11l-2.25-.5c-2.08.83-4.18,1.63-6.25,2.51-4.59,1.94-8.17,6.2-7.43,9.47,1,4.31,4.54,6,8.44,7,3.13.78,6.32,1.35,9.49,2h-4.5c-.65,2-2.84,2.79-3.61,5-1.51,4.22.84,6.77,3.11,9.54l5-.5c-4,.28-7.81,1.28-10.47,4.52-4.52,5.51-3.14,11,3.47,14.48h8q96.75,0,193.5.08c10.66,0,18.13-4.92,24-13.11a11.62,11.62,0,0,0,.95-12.42c-2.15-4.22-6.14-5.79-10.9-6.17-3.13-.25-5.5,2.13-8.51,1.62l10-2a14.26,14.26,0,0,1,1.51-2c6.14-5.72,6.73-10.88,2-17.51Z"/>
</svg>
