<svg viewBox="0 0 262.51 261.43">
  <path class="treeFurther" d="M211.19,183.66c7.82,3.76,21.74-1.39,18.1-11.83,10.16,1.46,14.24-13.31,5-17.54,6.45-2.3,8.56-16.09.3-17.39,9,1.83,17.33-9.15,14.12-17.45,7.39,1,11.3-9.19,5.5-13.7,9.82-4,10.45-19.39,1.27-24.47,11.85-7-2-21.54-11.31-21.55,4.37-7.18-6.2-12.32-11.86-9.53,1.26-9.93-11.36-15.63-19.08-10.67,6.72-5.07,0-15.29-7.3-14,8.6-12.6-9-21.16-19.38-16.16,0-9.59-12.78-9.75-17.63-3.85C162.05-5.29,145.58,3,147.17,14.66c-6-5.67-17.14.15-15.95,8.39-2.47-10.81-14.62-9.8-21.28-3.64-6-9.75-21.24-5.1-23.24,5.24-5.34-6-13.46,1.65-14,7.53-11.26-3.67-23.41,8.09-18.2,19.36C46.42,50,42.18,61.26,46.93,66.88,102.76,104.28,156.93,144.05,211.19,183.66Z"/>
  <path class="wallFront" d="M187.34,75.68q13.49,18.07,27,36.16-2.13,74.55,1.19,149.08-36.8,0-73.57-.05-4.26-92.79-2.21-185.7Q163.54,75.26,187.34,75.68Z"/>
  <path class="wallSide" d="M139.15,110.89q-.66,75,2.79,150-67.24,0-134.48.06Q3.8,187.07,1.74,113.16,70.43,110.81,139.15,110.89Z"/>
  <g class="frameMediumFront">
    <path d="M178.36,228.72q-16.1-.06-32.19-.07-.94-28.29-1.32-56.59,16.2,0,32.41.17Q177.49,200.48,178.36,228.72Z"/>
    <path d="M184.77,172.29c0,1.91,0,2.86,0,4.77l19.46.2c0-1.9,0-2.85,0-4.76Z"/>
  </g>
  <path class="frameMediumSide" d="M128.17,228.64q-28.95,0-57.91.12-1.12-28.18-1.84-56.39,29.16-.3,58.31-.32Q127.18,200.34,128.17,228.64Z"/>
  <path class="doorMediumSide" d="M184.8,177.06l19.46.2q.23,37.13,1.71,74.21l-19.32,0Q185.14,214.26,184.8,177.06Z"/>
  <path class="windowFront" d="M178.21,224q-16.1-.06-32.2-.08-.73-23.51-1.09-47,16.19,0,32.38.16Q177.54,200.48,178.21,224Z"/>
  <path class="windowSide" d="M123.54,223.86q-24.47,0-48.92.12-.9-23.44-1.51-46.89,24.6-.22,49.2-.26Q122.74,200.35,123.54,223.86Z"/>
  <g class="windowDisplayLine">
    <path d="M73.79,200.53q24.52-.15,49-.18"/>
    <path d="M145.36,200.36q16.14,0,32.27.12"/>
  </g>
  <path class="stepFront" d="M185.13,251.43l27,0c.13,3.15.26,6.29.4,9.44l-27,0"/>
  <path class="stepSide" d="M185.54,260.89c-.14-3.15-.28-6.31-.41-9.46h6.23c.14,3.15.27,6.31.41,9.46Z"/>
  <path class="roofBelow" d="M221.79,112q-15.25-20.4-30.48-40.85c-1.59,1.8-2.39,2.7-4,4.51q13.49,18.07,27,36.16Z"/>
  <path class="roofSide" d="M157.16,111Q174,90.86,191.31,71.17,206.55,91.6,221.79,112l10.28.27q-17.91-23.94-35.75-47.93l-9.77-.21q-20.31,23.09-39.91,46.77Z"/>
  <path class="roofTop" d="M146.64,110.92q19.62-23.67,39.91-46.77-93-1.67-186,2.48.54,23.27,1.23,46.53Q74.16,110.67,146.64,110.92Z"/>
</svg>
