<svg viewBox="0 0 1052.07 1050.71">
    <path class="treeCloser" d="M377.74,294.25c-12.54-14.34-22.24-31.43-26.79-50a63.72,63.72,0,0,1,31.55-27.07,107.34,107.34,0,0,1-18-39.67c10.49-10.24,25.08-14.87,39.53-14.8-6.55-22.7-8-44-6.38-67.43a232.29,232.29,0,0,1,67.28-.69A123.91,123.91,0,0,1,474.5,46a150.35,150.35,0,0,1,48.37,8.39C527,33.74,540.53,14.65,556.16,1.09c20.38,4.77,39.68,17.81,52.1,34.54,12.54-11,28.24-21,45.16-23.32C665.1,21.65,676,34.7,679.09,49.79c19.33-9.51,37.17-13.7,58.6-14.12,11.31,16.72,10,40.5,5.15,59.07,12-4.79,25.22-5.36,37.8-2.9,5.94,11.4,6.81,24.61,5.53,37.2,10.15-10.92,23.76-21.63,39.07-23.61,13.23,10.55,25.25,23.74,32.87,39,20-16.27,44.64-25.55,69.41-31.59,13.59,21.47,16.53,47.71,16.24,72.56,13.8-1.22,27.91.33,40.83,5.48,2.33,14.64-.93,29.45-6,43.17,16.69,2.65,30,7.87,44.79,16.06-2.77,14.51-9.19,28.53-20.1,38.72,19.91,9.84,37.53,25.33,47.69,45.29a110.41,110.41,0,0,1-46.2,49,82.31,82.31,0,0,1,32,56.67c-17.51,11.63-37.73,20.83-58.57,24.39a71,71,0,0,1,4.41,39.71,73.41,73.41,0,0,1-40.55,14,122.72,122.72,0,0,1,55.59,27.88c-4.67,17.62-15,33.49-27.69,46.36,13.09,5.15,26,14.83,31.85,28.07-3.89,12.27-10.89,23.72-21.3,31.51,18.67,6.5,33.48,23.76,41.36,41.32-13.79,13.56-27.87,25-44.57,34.87a55.83,55.83,0,0,1,14.27,35.06,78.29,78.29,0,0,1-40.52,10.67,112.65,112.65,0,0,1,6.25,52.86c-26,3.65-50.45,2.24-76.34-1.78C712.88,648.17,547.4,469.22,377.74,294.25Z"/>
    <path class="wallFront" d="M784.06,326.75q56.63,57.75,113.13,115.61-9.72,303.64,3.68,607.31-151-.21-302-.22-16.59-362.38-8.41-725.26Q687.29,324.84,784.06,326.75Z"/>
    <path class="wallSide" d="M588.45,437.64q-3.59,306,10.44,611.81-285.28-.2-570.56.19Q13.42,748.33,5,446.76,296.64,436.59,588.45,437.64Z"/>
    <path class="shrubFurther" d="M422.24,1049.43c-18.86-3.11-26.79-26.09-25.81-42.46,1.57-26.27,29.17-41.9,53.56-42.4,26.22-.53,63.42,9.32,67.81,40.17,2.55,17.91-5.9,42.1-26.53,44.69Z"/>
    <path class="shrubCloser" d="M483.25,1049.43c-18-2.58-21.6-26.24-20-40.63,2.58-23,23.41-39.21,46-38.91,24.53.33,60.18,9.34,63.8,38.66,2.06,16.63-6.2,38.51-25.15,40.89Z"/>
    <g class="trimFront">
        <path d="M711.27,878.58q-41.57-.17-83.14-.26-3.25-114.75-4.07-229.53,41.9.23,83.8.57Q708.24,764,711.27,878.58Z"/>
        <path d="M778.35,669.42c0-7.73,0-11.6,0-19.33q38.21.48,76.41,1.06c0,7.71,0,11.56-.06,19.28Q816.53,669.88,778.35,669.42Z"/>
    </g>
    <path class="trimSide" d="M535.76,878.2q-64,0-128,.13-3.89-114.71-5.83-229.45,64.51-.33,129-.33Q532.23,763.39,535.76,878.2Z"/>
    <path class="door" d="M778.35,669.42q38.17.45,76.35,1-.09,150.11,5.06,300.13-37.85-.15-75.7-.26Q778.75,819.9,778.35,669.42Z"/>
    <path class="windowFront" d="M710.76,859.23q-41.58-.18-83.17-.29-2.54-95.37-3.39-190.76,41.87.21,83.72.54Q708.45,764,710.76,859.23Z"/>
    <path class="windowSide" d="M517,858.8q-45.88,0-91.76.11-3-95.35-4.73-190.74,46.19-.2,92.37-.23Q514.21,763.39,517,858.8Z"/>
    <g class="windowDisplayLine">
        <path d="M422.52,763.55q46-.15,92-.17"/>
        <path d="M625.44,763.56q41.7.16,83.41.42"/>
    </g>
    <path class="stepFront" d="M778.89,970.28q55.41.16,110.82.4.69,19,1.43,38.09l40.59.11q.82,20.42,1.73,40.82-75.66-.1-151.31-.14Q780.38,1009.92,778.89,970.28Z"/>
    <path class="stepSide" d="M778.89,970.28l27.7.09q.7,19.1,1.47,38.2l25.5,0q.84,20.49,1.76,41l-53.17,0Q780.38,1009.92,778.89,970.28Z"/>
    <path class="stepOverlapLine" d="M891.14,1008.77q-55.38-.16-110.77-.26"/>
    <path class="roofBelow" d="M802.33,309.63q64.57,66.76,129,133.66-17.07-.48-34.15-.93-56.52-57.84-113.13-115.61C791.36,319.89,795,316.47,802.33,309.63Z"/>
    <path class="roofSide" d="M5,446.76q331.4-11.55,663.05-8.54,66.45-65,134.24-128.59,64.57,66.76,129,133.66.69-18.75,1.44-37.49-55.41-58.5-110.89-117L785.67,288q-64.84,58.44-128.5,118.15-326.58-2.83-653,9.11Z"/>
    <path class="roofTop" d="M4.14,415.25Q2.46,356,1,296.74q392.1-16.89,784.65-8.75-64.84,58.44-128.5,118.15Q330.59,403.31,4.14,415.25Z"/>
</svg>
