<svg viewBox="0 0 1063.03 1058.68">
    <path class="treeFurther" d="M855.86,744.15c31.73,15.29,88.22-5.61,73.44-48,41.2,5.93,57.76-54,20.37-71.16,26.14-9.35,34.72-65.29,1.21-70.56,36.46,7.41,70.31-37.15,57.3-70.81,30,3.9,45.84-37.28,22.32-55.59,39.81-16.25,42.37-78.68,5.14-99.3,48.06-28.3-8-87.38-45.9-87.43,17.74-29.15-25.14-50-48.13-38.65,5.13-40.31-46.09-63.44-77.39-43.3,27.27-20.56,0-62-29.63-56.76C869.48,51.49,798,16.76,756,37c-.12-38.9-51.85-39.56-71.53-15.6-28-43.9-94.78-10.23-88.33,37-24.58-23-69.57.59-64.71,34C521.35,48.65,472,52.72,445,77.74,420.73,38.17,358.84,57,350.73,99c-21.65-24.55-54.6,6.68-56.58,30.56-45.69-14.92-95,32.8-73.86,78.52-33-6.28-50.2,39.45-30.91,62.27C415.9,422.07,635.68,583.47,855.86,744.15Z"/>
    <path class="wallFront" d="M759.09,306q54.72,73.36,109.45,146.74-8.6,302.44,4.82,604.87-149.24-.2-298.48-.19Q557.56,681,565.9,304,662.5,304.35,759.09,306Z"/>
    <path class="wallSide" d="M563.56,448.93q-2.68,304.37,11.32,608.53-272.85-.18-545.68.22Q14.41,758,6,458.13,284.68,448.56,563.56,448.93Z"/>
    <g class="trimFront">
        <path d="M722.64,927q-65.29-.21-130.59-.28-3.85-114.78-5.36-229.6,65.73.2,131.48.68Q719.1,812.42,722.64,927Z"/>
        <path d="M748.65,698.05c.05,7.74.08,11.61.14,19.34q39.48.36,79,.81c0-7.72,0-11.58-.07-19.3Q788.16,698.44,748.65,698.05Z"/>
    </g>
    <path class="trimSide" d="M519,926.67q-117.49,0-235,.49-4.54-114.37-7.46-228.81,118.29-1.19,236.58-1.31Q515,811.9,519,926.67Z"/>
    <path class="door" d="M748.79,717.39q39.48.36,79,.81.93,150.62,6.92,301.11l-78.38-.15Q750.16,868.34,748.79,717.39Z"/>
    <path class="windowFront" d="M722,907.64q-65.31-.24-130.64-.32-3-95.39-4.46-190.82,65.7.18,131.39.65Q719.29,812.42,722,907.64Z"/>
    <path class="windowSide" d="M500.21,907.29q-99.25,0-198.5.47-3.61-95.11-6.1-190.26,99.81-.88,199.62-1Q497,811.9,500.21,907.29Z"/>
    <g class="windowDisplayLine">
        <path d="M298.37,812.64q99.48-.66,199-.76"/>
        <path d="M588.74,811.92q65.47.14,131,.48"/>
    </g>
    <path class="stepFront" d="M750.1,1019.15q54.82.08,109.63.21.79,19.14,1.65,38.28-54.79-.06-109.6-.09"/>
    <path class="stepSide" d="M751.78,1057.55q-.85-19.2-1.68-38.4l25.3,0q.81,19.18,1.67,38.38Z"/>
    <path class="roofBelow" d="M898.85,453.5q-61.9-82.81-123.67-165.74c-6.45,7.3-9.67,11-16.09,18.28q54.72,73.36,109.45,146.74Q883.71,453.13,898.85,453.5Z"/>
    <path class="roofSide" d="M636.62,449.28q68.29-81.61,138.56-161.52Q837,370.65,898.85,453.5q20.85.54,41.71,1.11-72.64-97.17-145-194.51-19.82-.44-39.64-.84-82.41,93.66-162,189.77Q615.28,449.12,636.62,449.28Z"/>
    <path class="roofTop" d="M593.93,449q79.61-96.06,162-189.77Q378.38,252.51,1,269.33q2.19,94.41,5,188.8Q299.86,448,593.93,449Z"/>
</svg>
