<svg viewBox="0 0 1145.28 1337.01">
  <path class="wallFront" d="M379.41,42.66Q283.82,44.22,188.25,47,135.38,125.39,82.41,203.67,117,769,85.93,1335.57q15.5.24,31,.44H383.86C404.76,905.13,404.06,473.37,379.41,42.66Z"/>
  <path class="wallSide" d="M1144.28,207Q766,192.29,387.38,196.62,412.3,766.09,383.86,1336h739.71C1137,963,1144.11,580.09,1144.28,207Z"/>
  <path class="wallFront" d="M511.43,853.33l-75,.06q-3,241.43-14.61,482.62h75Q508.14,1094.81,511.43,853.33Z"/>
  <path class="wallSide" d="M739.32,853.51Q684.24,784.23,628.68,715.3q-58.57,69.06-117.25,138-3.24,241.45-14.59,482.68H725.29C732,1178.07,736.72,1011.08,739.32,853.51Z"/>
  <g class="frameDarkFront">
    <path d="M355,785.65q-.64,120-3.46,240.06l-104.77-.19q2.74-119.7,3.16-239.43Q302.46,785.82,355,785.65Z"/>
    <path d="M207.85,808.52c0-8.88,0-13.32.05-22.2q-35.52.21-71.05.46c0,8.85,0,13.28,0,22.13Q172.33,808.7,207.85,808.52Z"/>
  </g>
  <g class="frameDarkSide">
    <path d="M702.25,965q-2.49,109-6.28,218-74.87.14-149.74.15,3.88-109.1,6.28-218.22Q627.38,965,702.25,965Z"/>
    <path d="M585.38,313.24q3.4,141.6,4.17,283.23-70.89,0-141.78.24-1.45-141.53-5.85-283Q513.65,313.23,585.38,313.24Z"/>
  </g>
  <path class="doorDarkFront" d="M202.5,1113.2Q207.2,960.89,208,808.52q-35.55.16-71.12.39-.56,152-5.26,303.87Z"/>
  <path class="stepFront" d="M207.38,1113.22l-92.77-.55q-.66,19.61-1.35,39.21l-21-.17q-.69,18.58-1.42,37.17l-21-.22q-.76,18.57-1.57,37.13l-21-.26q-.84,18.54-1.71,37.09c-8-.11-12-.17-20-.3q-.87,17.54-1.76,35.06L3,1297c-.64,12-1.29,26.84-1.95,39H197.9Q203.63,1224.67,207.38,1113.22Z"/>
  <path class="stepSide" d="M207.38,1113.22l-15.46-.08q-.66,19.66-1.34,39.33l-15-.11q-.69,18.65-1.41,37.3l-17-.15q-.75,18.63-1.54,37.27l-17.47-.19q-.82,18.63-1.68,37.25l-16.71-.21q-.86,17.61-1.72,35.21l-15.25-.22c-.59,11.48-1.2,25.53-1.81,37.39H197.9Q203.63,1224.67,207.38,1113.22Z"/>
  <g class="stepOverlapLine">
    <path d="M22,1297.35q88.89,1.43,177.77,2.52"/>
    <path d="M40.71,1262.55q80.37,1.13,160.73,2"/>
    <path d="M60.39,1225.69q71.36.84,142.71,1.54"/>
    <path d="M80.91,1188.77q61.86.62,123.73,1.13"/>
    <path d="M99.3,1151.77q53.37.42,106.74.8"/>
  </g>
  <g class="windowFront">
    <path d="M354.88,808q-.7,97.74-2.82,195.45l-104.77-.13q2-97.46,2.57-194.93Q302.38,808.1,354.88,808Z"/>
    <path d="M156.22,279q-74.88,2-149.74,4.58,10.69,187.88,14.09,376,73.77-1.14,147.55-2Q165.5,468.2,156.22,279Z"/>
  </g>
  <path class="windowMiddle" d="M233.67,277.17q-38.73.85-77.45,1.82,9.32,189.2,11.9,378.63,38.15-.43,76.28-.79Q242.21,466.92,233.67,277.17Z"/>
  <g class="windowSide">
    <path d="M682.82,985.29q-2.13,88.79-5.11,177.55-55.89.08-111.79.1,3-88.82,5.11-177.66Q626.93,985.27,682.82,985.29Z"/>
    <path d="M563.66,339.55q2.67,115.27,3.61,230.59-48.82,0-97.63.18-1.33-115.25-4.55-230.46Q514.38,339.59,563.66,339.55Z"/>
    <path d="M310.1,275.75q7.84,190.15,9.58,380.47-37.64.27-75.28.61-2.19-189.92-10.73-379.66Q271.88,276.41,310.1,275.75Z"/>
  </g>
  <g class="windowDisplayLine">
    <path d="M353.88,905.68q-52.44,0-104.87.13"/>
    <path d="M566,454.84q-49,0-98.05.24"/>
  </g>
  <g class="bayWallFront">
    <path d="M157.52,305.16Q82.73,307.08,8,309.56c-.58-10.39-.87-15.59-1.48-26Q81.35,281,156.22,279C156.75,289.46,157,294.69,157.52,305.16Z"/>
    <path d="M166.9,582.07q.71,37.77,1.22,75.55-73.78.86-147.55,2-.66-37.51-1.54-75Q93,583.16,166.9,582.07Z"/>
  </g>
  <g class="bayWallMiddle">
    <path d="M234.86,303.42q-38.69.81-77.34,1.74c-.51-10.47-.77-15.7-1.3-26.17q38.73-1,77.45-1.82C234.16,287.67,234.39,292.92,234.86,303.42Z"/>
    <path d="M243.36,581.09q-38.22.45-76.46,1,.71,37.77,1.22,75.55,38.15-.43,76.28-.79Q244,619,243.36,581.09Z"/>
  </g>
  <g class="bayWallSide">
    <path d="M310.1,275.75c.45,10.52.67,15.78,1.09,26.3q-38.18.63-76.33,1.37c-.47-10.5-.7-15.75-1.19-26.25Q271.88,276.41,310.1,275.75Z"/>
    <path d="M319.68,656.22q-37.64.27-75.28.61-.43-38-1-75.91,37.72-.42,75.45-.77Q319.34,618.17,319.68,656.22Z"/>
  </g>
  <g class="roofBelow">
    <path d="M56.84,204.55q58.5-86.53,116.8-173.2c5.68,6.37,8.51,9.56,14.17,15.94q-52.65,78.22-105.4,156.38C72.19,204,67.07,204.19,56.84,204.55Z"/>
    <path d="M767.31,853.57l-28-.06q-55.23-69.37-110.94-138.38c5.76-6.83,8.65-10.24,14.41-17.06Q705.37,775.56,767.31,853.57Z"/>
  </g>
  <g class="roofSide">
    <path d="M189.42,6.61,155.25,7.74q-65.46,99.08-131.14,198,16.37-.63,32.73-1.2,58.5-86.53,116.8-173.2,73.07,82.29,144.13,166.31,17.91-.28,35.83-.57Q272.78,100.75,189.42,6.61Z"/>
    <path d="M642.9,655.43q-84.64,99-169.45,197.92l38,0q65.76-77.57,131.36-155.26,62.58,77.49,124.52,155.5l37,.09Q724.06,754.18,642.9,655.43Z"/>
  </g>
  <g class="roofTop">
    <path d="M1144.28,207q-395.14-15.35-790.68-9.9Q272.78,100.75,189.42,6.61,666.56-7.88,1143.71,15,1144.29,111,1144.28,207Z"/>
    <path d="M473.45,853.35l-75,.09q87.28-98.87,174.14-198.09,35.14,0,70.27.08Q558.26,754.46,473.45,853.35Z"/>
  </g>
</svg>
