<svg viewBox="0 0 282.21 375.62">
  <path class="bushCloser" d="M275,354.71c6.88-2.27,4.9-11.32-1.45-12.65,12.33-2.75,9.51-19.47-.82-22.85,6.09-1.76,4.49-10.23-1.26-11.11,9-4.9,4.5-20-5.71-19.08,5.68-6.74-2.09-19.4-10.77-15.77.55-4.86-5.59-10.47-10.29-7.42-1.72-11.73-16.63-14-23.21-4.95q.92,57.15,3.64,114.24h46.77C280.09,372.55,283.53,359.53,275,354.71Z"/>
  <path class="wallFront" d="M229.42,48q-7.14-14.82-14.27-29.66-40.08-.9-80.18-.65-6.85,178.67,1.47,357.43h92.41A3247.67,3247.67,0,0,1,229.42,48Z"/>
  <path class="windowFront" d="M217.23,62.67l18.39.44q-7.12,143.58-1.12,287.33l-17.84.21Q210.87,206.71,217.23,62.67Z"/>
  <path class="windowSide" d="M195.34,62.29q10.95.16,21.89.38-6.57,143.91-.57,288-10.62.11-21.24.18Q189.65,206.62,195.34,62.29Z"/>
  <g class="bayWallFront">
    <path d="M216.82,71.7q.19-4.52.41-9l18.39.44c-.15,3-.3,6-.44,9Q226,71.86,216.82,71.7Z"/>
    <path d="M214.51,141.81l18.12.26q-.28,12-.5,24.07-9-.12-18.06-.2Q214.27,153.86,214.51,141.81Z"/>
    <path d="M213.83,236l17.92,0q.09,11.77.23,23.55H214.09Q213.94,247.75,213.83,236Z"/>
    <path d="M215.85,329.77l17.85-.16q.38,10.41.8,20.83l-17.84.21Q216.23,340.21,215.85,329.77Z"/>
  </g>
  <g class="bayWallSide">
    <path d="M195,71.28c.11-3,.24-6,.36-9q10.95.16,21.89.38-.21,4.48-.41,9Q205.9,71.45,195,71.28Z"/>
    <path d="M192.94,141.69l21.56.22q-.24,12-.43,24l-21.48-.18Q192.74,153.73,192.94,141.69Z"/>
    <path d="M202.4,235.93l11.43,0q.1,11.79.26,23.6H202.68Q202.52,247.75,202.4,235.93Z"/>
    <path d="M215.85,329.77l-21.26.14q.38,10.47.8,20.92,10.63-.07,21.27-.18Q216.23,340.21,215.85,329.77Z"/>
  </g>
  <path class="wallFront" d="M202.32,224.07q-7.78-16.73-15.51-33.47-15.67-.06-31.35-.06.14,92.33,4.39,184.58h46.51Q202.82,299.64,202.32,224.07Z"/>
  <path class="wallSide" d="M155.67,224q-11.78,0-23.56,0-.9-88.49,1.81-177Q101.73,28.45,69.05,10.71C53.49,11.29,16.37,12,.83,12.81-.35,132.48,1.68,255.5,6.51,375.12H159.9Q156.47,299.61,155.67,224Z"/>
  <g class="frameDarkFront">
    <path d="M169.58,63.92q-1.47,42.19-2,84.41-11.7,0-23.41,0,.42-42.22,1.66-84.43Q157.69,63.88,169.58,63.92Z"/>
    <path d="M170.27,235.89c0-2.5,0-3.75-.07-6.25l22.26,0,0,6.24Z"/>
  </g>
  <g class="frameDarkSide">
    <path d="M120.09,64.06q-1,42.18-1.25,84.36-22,.17-44,.47,0-42,.53-84Q97.73,64.33,120.09,64.06Z"/>
    <path d="M139.68,235.9q.6,42.21,2,84.41-31.87-.07-63.75-.33-1.4-42-2.19-84Q107.69,235.91,139.68,235.9Z"/>
  </g>
  <path class="doorDarkFront" d="M194.59,329.91q-1.62-47-2.11-94l-22.21,0q.55,47.07,2.19,94.11Z"/>
  <path class="stepFront" d="M220.34,364.33l-6.47.07q-.26-5.61-.49-11.22l-6.16.06q-.24-5.78-.47-11.54l-6.15,0q-.22-5.92-.44-11.86l-23.08.1q.82,22.57,1.87,45.14h41.83C220.63,371.64,220.49,367.45,220.34,364.33Z"/>
  <path class="stepSide" d="M193.55,364.59l-4.92,0q-.25-5.62-.49-11.25l-5.23,0q-.24-5.77-.47-11.56l-4.92,0q-.22-5.94-.44-11.88l-6.47,0q.22,5.94.44,11.88H168.9q.22,5.79.46,11.57h-1.84L168,364.7h-2.16c.14,3,.28,7,.42,10.41H194C193.83,371.69,193.69,367.63,193.55,364.59Z"/>
  <g class="stepOverlapLine">
    <path d="M213.87,364.4q-22.93.23-45.87.3"/>
    <path d="M207.22,353.24q-18.93.13-37.86.21"/>
    <path d="M200.6,341.74q-14.78.09-29.55.14"/>
  </g>
  <path class="windowFront" d="M169.37,69.83q-1.2,36.28-1.75,72.59-11.72,0-23.43,0,.41-36.31,1.42-72.61Q157.49,69.79,169.37,69.83Z"/>
  <g class="windowSide">
    <path d="M114.25,70q-.77,36.27-1,72.53-16.4.13-32.8.37,0-36.15.53-72.3Q97.61,70.27,114.25,70Z"/>
    <path d="M134.51,241.81q.59,36.3,1.71,72.59-26.64-.07-53.28-.25Q81.79,278,81.07,241.88,107.8,241.82,134.51,241.81Z"/>
  </g>
  <g class="windowDisplayLine">
    <path d="M113.6,106.3q-16.51.18-33,.48"/>
    <path d="M168.31,106.12q-11.79,0-23.58,0"/>
    <path d="M157.49,69.79q-1.11,36.3-1.59,72.61"/>
    <path d="M135.21,278.11,81.89,278"/>
    <path d="M107.79,241.83q.66,36.25,1.8,72.48"/>
  </g>
  <g class="roofBelow">
    <path d="M219.4,11.89q8.5,18.17,17,36.31l-7-.2q-7.12-14.78-14.24-29.55C216.86,15.82,217.71,14.51,219.4,11.89Z"/>
    <path d="M190.57,183.12q9.38,20.5,18.87,41l-7.12,0q-7.77-16.68-15.47-33.38Z"/>
  </g>
  <g class="roofSide">
    <path d="M223.63,1.41q10.83,23.54,21.7,47.06l-8.91-.27q-8.52-18.15-17-36.31Q208,29.52,197,47.32q-31.53-.42-63.05-.25Q101.73,28.45,69.05,10.71C53.49,11.29,16.37,12,.83,12.81c0-2.87.06-5.75.09-8.62C16.5,3.34,53.66,2.61,69.26,2Q102,19.85,134.2,38.63q29.52-.16,59,.2,11.82-18.9,24-37.6Z"/>
    <path d="M190.73,164.69q13.88,29.77,28,59.43l-9.28,0q-9.49-20.46-18.87-41-10,20.38-19.79,40.89h-9.59Q175.7,194.22,190.73,164.69Z"/>
  </g>
  <g class="roofTop">
    <path d="M217.2,1.23q-12.15,18.7-24,37.6-29.52-.37-59-.2Q102,19.88,69.26,2,143.21-.54,217.2,1.23Z"/>
    <path d="M161.19,224q-16.55,0-33.1,0,15.36-29.85,31.19-59.45,15.72,0,31.45.11Q175.69,194.21,161.19,224Z"/>
  </g>
</svg>
