<svg viewBox="0 0 296.87 346.48">
  <path class="wallFront" d="M98.44,11.28Q73.71,11.69,49,12.41,35.29,32.69,21.58,53a2567,2567,0,0,1,.91,292.91l8,.12H99.59A3169.43,3169.43,0,0,0,98.44,11.28Z"/>
  <path class="wallSide" d="M296.37,53.81Q198.48,50,100.5,51.12,107,198.5,99.59,346H291C294.49,249.45,296.33,150.36,296.37,53.81Z"/>
  <path class="wallFront" d="M132.6,221.07H113.2q-.78,62.47-3.78,124.9h19.41Q131.76,283.55,132.6,221.07Z"/>
  <path class="wallSide" d="M191.58,221.11q-14.27-17.93-28.64-35.76-15.15,17.86-30.34,35.72-.84,62.48-3.77,124.91h59.11C189.69,305.1,190.9,261.89,191.58,221.11Z"/>
  <g class="frameDarkFront">
    <path d="M92.12,203.55q-.16,31.06-.89,62.12l-27.12,0q.72-31,.82-62Q78.52,203.6,92.12,203.55Z"/>
    <path d="M54,209.47c0-2.3,0-3.45,0-5.74l-18.39.11c0,2.29,0,3.44,0,5.73Z"/>
  </g>
  <g class="frameDarkSide">
    <path d="M182,250q-.64,28.21-1.62,56.42-19.38,0-38.75,0,1-28.23,1.62-56.47Z"/>
    <path d="M151.74,81.3q.88,36.65,1.08,73.3-18.34,0-36.69.06-.37-36.63-1.52-73.24Q133.18,81.3,151.74,81.3Z"/>
  </g>
  <path class="doorDarkFront" d="M52.66,288.31q1.22-39.4,1.41-78.84l-18.41.1q-.13,39.33-1.36,78.64Z"/>
  <path class="stepFront" d="M53.92,288.32l-24-.14c-.11,3.38-.23,6.76-.34,10.15l-5.43-.05-.36,9.62-5.43-.06q-.2,4.82-.4,9.61l-5.43-.07q-.21,4.8-.44,9.6l-5.17-.07c-.14,3-.3,6-.45,9.07L1,335.88C.87,339,.7,342.83.53,346H51.47Q53,317.15,53.92,288.32Z"/>
  <path class="stepSide" d="M53.92,288.32l-4,0q-.16,5.08-.35,10.18l-3.87,0-.36,9.65-4.39,0c-.13,3.22-.27,6.43-.4,9.65l-4.52,0c-.15,3.21-.29,6.42-.44,9.64l-4.32-.06-.45,9.11-3.94-.05c-.16,3-.31,6.61-.47,9.68H51.47Q53,317.15,53.92,288.32Z"/>
  <g class="stepOverlapLine">
    <path d="M5.94,336q23,.38,46,.65"/>
    <path d="M10.79,327q20.79.3,41.59.52"/>
    <path d="M15.88,317.43l36.93.39"/>
    <path d="M21.19,307.87q16,.17,32,.29"/>
    <path d="M26,298.3l27.62.2"/>
  </g>
  <g class="windowFront">
    <path d="M92.09,209.32q-.18,25.31-.73,50.58l-27.11,0q.52-25.23.66-50.45Z"/>
    <path d="M40.68,72.44Q21.3,73,1.93,73.62q2.78,48.63,3.65,97.32,19.1-.3,38.18-.52Q43.09,121.4,40.68,72.44Z"/>
  </g>
  <path class="windowMiddle" d="M60.72,72q-10,.21-20,.47,2.41,49,3.08,98l19.74-.2Q62.93,121.06,60.72,72Z"/>
  <g class="windowSide">
    <path d="M177,255.21q-.56,23-1.33,46l-28.93,0q.8-23,1.33-46Z"/>
    <path d="M146.12,88.11q.69,29.83.93,59.67-12.63,0-25.26.05-.35-29.82-1.18-59.64Q133.36,88.12,146.12,88.11Z"/>
    <path d="M80.5,71.6q2,49.2,2.48,98.46-9.74.06-19.48.16Q62.93,121.06,60.72,72,70.62,71.76,80.5,71.6Z"/>
  </g>
  <g class="windowDisplayLine">
    <path d="M91.83,234.61l-27.14,0"/>
    <path d="M146.71,117.94q-12.69,0-25.37.07"/>
  </g>
  <g class="bayWallFront">
    <path d="M41,79.21q-19.37.5-38.7,1.14c-.15-2.69-.23-4-.39-6.73Q21.31,73,40.68,72.44C40.82,75.15,40.89,76.5,41,79.21Z"/>
    <path d="M43.45,150.87q.18,9.78.31,19.55-19.09.22-38.18.52-.18-9.72-.4-19.42Q24.31,151.15,43.45,150.87Z"/>
  </g>
  <g class="bayWallMiddle">
    <path d="M61,78.76Q51,79,41,79.21c-.13-2.71-.2-4.06-.34-6.77q10-.25,20-.47C60.85,74.68,60.91,76,61,78.76Z"/>
    <path d="M63.23,150.61l-19.78.26q.18,9.78.31,19.55l19.74-.2Q63.4,160.41,63.23,150.61Z"/>
  </g>
  <g class="bayWallSide">
    <path d="M80.5,71.6c.12,2.72.18,4.08.28,6.81q-9.87.15-19.75.35c-.12-2.72-.18-4.08-.31-6.79Q70.62,71.76,80.5,71.6Z"/>
    <path d="M83,170.06q-9.74.06-19.48.16-.11-9.83-.27-19.65l19.53-.2Q82.89,160.21,83,170.06Z"/>
  </g>
  <g class="roofBelow">
    <path d="M15,53.17Q30.11,30.79,45.19,8.35l3.67,4.13Q35.23,32.72,21.58,53Z"/>
    <path d="M198.82,221.13l-7.24,0q-14.29-18-28.71-35.81c1.49-1.76,2.23-2.65,3.73-4.41Q182.78,200.95,198.82,221.13Z"/>
  </g>
  <g class="roofSide">
    <path d="M49.27,2l-8.84.3Q23.5,27.89,6.49,53.48L15,53.17Q30.11,30.79,45.19,8.35q18.9,21.3,37.3,43l9.27-.15Q70.85,26.31,49.27,2Z"/>
    <path d="M166.62,169.85q-21.9,25.64-43.84,51.22h9.82q17-20.08,34-40.18,16.18,20.06,32.22,40.24l9.57,0Q187.63,195.41,166.62,169.85Z"/>
  </g>
  <g class="roofTop">
    <path d="M296.37,53.81q-102.26-4-204.61-2.57Q70.85,26.31,49.27,2q123.48-3.75,247,2.17Q296.37,29,296.37,53.81Z"/>
    <path d="M122.78,221.07l-19.4,0q22.58-25.58,45.06-51.26l18.18,0Q144.72,195.49,122.78,221.07Z"/>
  </g>
</svg>
