<svg class="rollerCoaster"
    xmlns="http://www.w3.org/2000/svg" viewBox="0 0 1261.15 621.82">
    <path class="platformBack" d="M1209.31,619.76q0-85.75.09-171.5c0-3.75-1.12-5.72-4.57-7.05-16.54-6.39-86.1-34.35-104.58-41.29-4.68-1.76-183.34-215.78-196.4-231.69-4-4.86-58-25.47-60.05-28-1-1.24-12.13,2.89-17,2.89-14.72,0-46.51,44.43-56,56.11-12.18,15-54.51,67.95-64.12,78.89-6,6.87-88.32,157.49-99.3,176.65-6.75,11.76-40.8,73.81-50.59,93.2-5.67,11.21-50.67,39.56-64,48.27-7,4.6-24.55,15.21-27.06,14.72-14.4-2.81-70.34-12.5-83.93-14.35-2.14-.29-90.78-86.65-98.49-96.41C270.9,484.48,259,468.3,246.12,452.91c-4.42-5.29-88.91-53.24-92.31-53.23-46,.11-141.37.08-143.5.08v215c0,6,0,6,6,6q593.75,0,1187.5,0c1.84,0,3.73.36,5.5-.48Z"/>
    <path class="trackBack" d="M1208.31,445.76c-5.73,2.12-11.72,1.17-17.49.82-7-.43-14-2-21-3.36-14-2.73-27.36-6.92-40.12-13.76-16.22-8.71-28.19-22-41.51-34.08-14.4-13-27.28-27.45-40.2-41.79-11.93-13.24-24-26.35-35.59-39.91C1003.81,303.6,994.77,294,986,284.07c-9.16-10.34-19.27-19.84-27.36-31.21-6.08-8.54-13.93-15.8-20.25-24.18-7.76-10.3-16-20.28-22.58-31.44-1.87-3.18-5-5.09-7.62-7.37-7.86-6.82-14.17-15.15-22.31-21.73a88.53,88.53,0,0,0-31.06-16,47.08,47.08,0,0,0-26.56-.48,31.93,31.93,0,0,0-11.87,6.71,256,256,0,0,0-46.65,50.35c-4.89,7-10.28,13.7-15.45,20.54-8.94,11.82-16.31,24.68-24.61,36.92-8,11.81-15.81,23.7-22.91,36.07-6.4,11.16-13.21,22.11-19.61,33.22-6.16,10.7-11.52,22.07-17.18,33.12C664.78,378.77,659.43,389,653.69,399c-7.71,13.4-15.83,26.69-22.4,40.77-1.8,3.86-4.4,7.29-6.59,10.94-9.48,15.75-17.29,32.52-28,47.47-6,8.33-10.61,17.44-16.74,25.68-8.8,11.82-16.06,24.73-25.06,36.46-15.24,19.88-33.67,35.45-57,45-15,6.14-30.37,10.86-46.53,12.34-5.77.53-11.66-.19-17.49-.39-8-.29-16.23.7-24-2.06C404,613.1,398,611.53,392.21,609s-11.89-4.18-17.38-7.27c-22.46-12.69-41.12-29.71-57.1-49.9-6.3-8-14.09-14.69-19.89-23.09-7.79-11.28-15.88-22.36-24.61-32.91-10.69-12.9-21.28-25.95-33.45-37.53-10.28-9.78-21.78-18-33.34-26.22a156.91,156.91,0,0,0-23.8-13.46c-9.67-4.61-20.48-7.13-31.33-8.34-18.44-2-37-4.16-55.48-2.79-10,.74-20.09,1.09-30,.84-5.77-.14-39.67-1.79-48.51-1.09-2.68.21-5-1.21-7.54-1.83-4.11-1-3.75-3.92-3.37-6.63a5.93,5.93,0,0,1,5.41-5.51c12-1.48,24-.52,36-1.25,11.41-.7,22.68.61,34,.37,11.82-.24,23.69,1.12,35.49.73,15-.49,29.48,2,44,4.74,12.63,2.36,24.48,7.3,36,12.91,17.87,8.71,34.49,19.59,48.8,33.21a377.34,377.34,0,0,1,37.32,41.19C294,498.73,304,512.72,315.18,525.87c11,13,22.25,25.76,34.72,37.29,16,14.82,33.76,27.3,54.41,35.09,8.7,3.28,17.88,4.33,27,4.86,10.15.59,20.44.84,30.48-1.39,14.53-3.24,29-7.19,41.41-15.6,16-10.85,30.89-23.21,43-38.43,4-5.07,7.07-11,10.59-16.43,5.48-8.51,11.07-17,16.48-25.52,4.94-7.83,9.86-15.66,14.21-23.88a106.38,106.38,0,0,1,8.94-14c7.86-10.45,13.1-22.32,19.21-33.69,2.8-5.2,6.17-10,8.71-15.39,8-16.76,17.42-32.77,25.66-49.42,7.4-14.95,15.72-29.5,24.59-43.73,7.16-11.49,13.34-23.65,20.16-35.4,5.94-10.26,12.74-20,18.88-30.07,5.08-8.37,10.94-16.17,16.26-24.34s11.44-16.16,17.42-24c13.82-18.22,27.28-36.73,43.46-53,10-10.08,21-18.84,34.57-23.32,7.3-2.4,15.28-2.79,22.94-2,19.86,1.95,36.77,10.33,51.63,23.76,10,9.07,18.72,19.3,27.8,29.2,4.8,5.24,8.68,11.31,13.09,16.91,5.72,7.27,12.17,13.89,17.59,21.45a305.7,305.7,0,0,0,25.35,30.62c10.59,11.31,18.86,24.74,30.18,35.3,13.27,12.37,23.62,27.29,36.56,40,4.89,4.79,9.37,10.81,14.11,15.91,11.78,12.65,22.54,26.44,36.67,36.81,6.86,5,12.18,11.82,19,17.07a127.57,127.57,0,0,0,30.56,17.95c8.77,3.54,17.48,6.84,27,8.09,7.5,1,14.92,2.41,22.52,2.36a76.22,76.22,0,0,1,8,0c5.49.53,8.28,2.94,8.5,7,.34,6.16-2,9.16-8,10.5Z"/>
    <path class="platformFront" d="M8.81,620.76H1209.06V219.3c-1.66-1-3.26-.51-4.75-.52-13.17-.05-26.37.57-39.49-.21-10.26-.62-19,2.73-28,6.64-13.76,6-27.65,11.72-41.48,17.54-11.5,4.85-23,9.64-34.49,14.53a18.42,18.42,0,0,0-7.16,5.85c-7.45,9.15-15.6,17.72-23.33,26.64-9.92,11.43-19.63,23-29.54,34.47-7.74,8.92-15.73,17.61-23.46,26.53-9.91,11.43-19.63,23-29.54,34.47-7.74,8.92-15.68,17.65-23.47,26.53-3.58,4.09-7.06,8.28-10.5,12.5-2.92,3.58-7,5.89-10.61,8.34-20.53,13.73-40.68,28-60.91,42.13C831.87,482,821.23,489,810.87,496.33a12.2,12.2,0,0,1-7.56,2.46q-40.5-.09-81,0a16.18,16.18,0,0,1-7.54-2c-25.1-12.47-50.29-24.76-75.46-37.08-13-6.36-26.21-12.28-38.9-19.19-5.28-2.88-9.61-7.63-14.07-11.85-15.75-14.91-31.21-30.13-47.08-44.91q-17.35-16.14-34.52-32.48c-11.83-11.18-23.7-22.3-35.5-33.5-11.46-10.87-23-21.63-34.5-32.5-11.8-11.2-23.7-22.29-35.51-33.49-9.66-9.17-19.21-18.49-29.07-27.41-5.3-4.8-12.16-7.88-18.36-11.67-24.32-14.85-48.73-29.55-72.95-44.57-8.74-5.41-18.4-8-28-11-24.14-7.59-48.55-14.29-72.56-22.3a51.15,51.15,0,0,0-16.46-2.23c-48.67.19-97.33.11-146,.11h-5.5v485.5Z"/>
    <path class="trackFront" d="M106.81,139.26c7.82.91,15.68.17,23.5.55,10,.48,20,.47,30,1.12,11.24.73,22.55,2,33.49,4.9,12.08,3.19,24.49,5.09,36.07,10.31,10.09,4.55,20.54,8.32,31,12.07,18.16,6.53,34.82,16,51.47,25.56,20.72,11.86,38.93,27,55.35,44.14,10.83,11.28,23.39,20.58,34.16,31.84,8,8.35,16.07,16.61,24,25,15.68,16.67,31.39,33.26,48.88,48.15,7.14,6.07,13.87,12.83,20.87,19.07,9.25,8.25,18.2,16.88,28.15,24.42,11.19,8.48,21.36,18.29,32.14,27.32,13.07,10.95,26,22,39.58,32.4,8.3,6.36,17.56,11.46,26.4,17.12,6,3.85,11.91,7.81,18,11.47,10.57,6.34,22,11,32.94,16.61A173,173,0,0,0,714.87,506c12.07,2.57,24.45,4.61,36.94,4.77,19.14.23,38.13-1,56.49-7,13.36-4.37,25.52-11.31,37.48-18.52,18.24-11,34.62-24.51,51-38a472.65,472.65,0,0,0,49.05-47.45c8.72-9.6,18.14-18.6,26.37-28.61,13.41-16.32,25.91-33.4,39.18-49.85a332.84,332.84,0,0,1,31.31-34.18c6-5.64,11.57-11.78,18.11-16.89,14.53-11.38,29.61-21.7,47-28.64,8.9-3.57,17.94-6.54,27.07-9.29,7.82-2.36,16-3.19,24-4.62,9-1.58,18-1.4,27-2.31,6.29-.64,12.67.32,19,.65,3,.15,6.7.79,9.44-1.33s4.73-5.24,4-8.93c-1-4.94-5.61-6.05-9.46-7.43-6.61-2.36-13.65-.8-20.48-1.44s-14,.78-21,1.22c-6.65.42-13,2.34-19.48,3.24-15.08,2.07-29.62,6.59-44,11.5a78.39,78.39,0,0,0-15.48,7.49c-7.4,4.55-15.58,8-22,14-6.84,6.36-14.48,11.73-21.32,18.16-7.61,7.16-16.2,13.43-23.7,20.82a234,234,0,0,0-23.09,25.92c-5.91,7.85-12.51,15.2-18.4,23.08-8.67,11.6-18.72,22.06-27.2,33.85a179.55,179.55,0,0,1-26.77,29.2c-10,8.92-19.31,18.69-29.12,27.86-5.61,5.24-11.62,10.05-17.46,15-4.49,3.85-9.28,7.4-13.45,11.56-13,12.93-28.11,22.85-44.14,31.28-11,5.78-23.08,9.15-35.41,11.15-21.91,3.54-43.56,2-65-3.48-11.16-2.85-22.49-5.18-33.46-8.63-13.15-4.13-25.11-10.94-37.11-17.75-26-14.72-49-33.35-71.94-52.12-10.46-8.55-21.11-16.86-31.45-25.55-8.68-7.29-16.94-15.08-25.57-22.42-10.27-8.74-20.68-17.35-30.82-26.21-13.29-11.62-25.53-24.45-38.14-36.84-8.91-8.76-17.64-17.69-26.52-26.47-9.72-9.62-18.39-20.23-28.32-29.69-4.12-3.92-8.61-7.37-12.67-11.33-6.91-6.75-14.37-12.87-20.7-20.32-4.45-5.23-10.65-9-16.33-13.13-10.92-7.86-21.89-15.65-33.41-22.65-3-1.8-6.13-3.08-9.08-4.86-19.46-11.73-40.19-20.77-61.5-28.49a331.82,331.82,0,0,0-54.93-14.8c-16.31-2.9-32.65-3.67-49.05-4.79-19.65-1.35-39.34-1.17-59-1.87-6.48-.23-13,.84-19.5.86-12,0-24-.4-36-.39a124,124,0,0,0-16,1c-3.5.47-6.79,1.22-8.2,5.85-1.63,5.31.08,8.82,3.73,12a4.21,4.21,0,0,0,3.46,1.08c15.77-2.21,31.65-1.84,47.5-2,13.5-.14,27,.07,40.5-.09,3.17,0,6.33,1.49,9.5.07Z"/>
    <g class="flag">
        <path d="M62.31,24.51c0-1-.59-1.16-1.5-1.29-7.16-1-12.61-4.82-17.55-9.92C35.54,5.34,25.49,2.45,15.11,1c-2.36,5.76-1.73,11.58-2.55,17.42a46.45,46.45,0,0,1,27.35,5.65,23.55,23.55,0,0,0,22,.79C63.52,24.09,62.31,24.51,62.31,24.51Z"/>
        <path d="M1258.31,125.76c-2-3.14-5.68-3.65-8.5-5.5-5.29-3.47-8.66-8.78-12.38-13.6-5.75-7.43-13.12-11.39-22.49-13-.94,4.13-2.17,8.27-1.55,12.55.36,2.56-3,5-.09,7.53,2.15,1.9,4.71.48,7,1,7.08,1.61,13.86,3.77,20.07,7.88,5.62,3.71,11.83,6.12,19,3.7C1261.63,125.57,1258.31,125.76,1258.31,125.76Z"/>
    </g>
    <g class="flagpoleStandaloneLine">
        <path d="M14.81,1.76c-.91.09-1.58.61-1.47,1.49.62,5.24-.8,10.33-1.08,15.5-2,38.15-2.22,76.32-1.95,114.51"/>
        <path d="M1214.31,93.26c-.83,10-1.38,20-2.62,30-.65,5.17-.34,10.34-1.16,15.55-1.2,7.7-.91,15.63-1.21,23.47-.37,9.49-1.07,19-.9,28.49.17,8.83,1.22,17.65.89,26.51"/>
    </g>
</svg>
