<svg viewBox="0 0 1035.16 467.24">
  <g class="roofDark">
    <path d="M628.84,24.55,641.66,14,639.05,1l-15.58,14.2Z"/>
    <path d="M406.3,24.55,393.48,14,396.09,1l15.58,14.2Z"/>
    <path d="M408.41,303.82q109.13-.27,218.25,0,0-62.77.36-125.54-109.49-.42-219,0Q408.45,241.06,408.41,303.82Z"/>
    <path d="M969.29,255.83l-.09,12q-116.26-1.39-232.54-2.08,0-6.06.05-12.12Q853,254.37,969.29,255.83Z"/>
    <path d="M65.85,255.83l.09,12q116.26-1.39,232.54-2.08,0-6.06-.05-12.12Q182.14,254.37,65.85,255.83Z"/>
    <path d="M981.35,287.72q13,5.52,25.93,11l-25.92-.28C981.35,294.87,981.35,291.3,981.35,287.72Z"/>
    <path d="M53.79,287.72q-13,5.52-25.93,11l25.92-.28C53.79,294.87,53.79,291.3,53.79,287.72Z"/>
  </g>
  <g class="roofLight">
    <path d="M641.66,14,639.05,1q54.29.38,108.57,1-3.2,6.47-6.38,12.94Q691.46,14.37,641.66,14Z"/>
    <path d="M393.48,14,396.09,1q-54.29.38-108.57,1Q290.71,8.48,293.9,15,343.68,14.37,393.48,14Z"/>
    <path d="M975.24,242.1q4.68,10,9.4,19.93l-18.33-.23Q970.77,251.95,975.24,242.1Z"/>
    <path d="M59.9,242.1q-4.68,10-9.4,19.93l18.33-.23Q64.38,251.95,59.9,242.1Z"/>
  </g>
  <g class="brickDark">
    <path d="M981.36,298.45l19,.2q.17,47.24,1.45,94.44L982.76,393Q981.53,345.72,981.36,298.45Z"/>
    <path d="M53.78,298.45l-19,.2q-.16,47.24-1.45,94.44L52.38,393Q53.61,345.72,53.78,298.45Z"/>
    <path d="M736.66,265.77q116.28.69,232.54,2.08-.27,62.55,1.31,125.07-116.61-.66-233.22-1Q736.53,328.86,736.66,265.77Z"/>
    <path d="M298.56,265.77q-116.28.69-232.54,2.08.24,62.55-1.39,125.07,116.61-.66,233.22-1Q298.66,328.86,298.56,265.77Z"/>
    <path d="M1031.63,393.3q-147.17-1-294.34-1.37.5,37.36,1.29,74.72l296.05.09Q1032.79,430,1031.63,393.3Z"/>
    <path d="M297.85,391.93q-147.18.4-294.34,1.37-1.15,36.57-3,73.12l296,.09Q297.35,429.24,297.85,391.93Z"/>
    <path d="M721.89,14.73q-30.43-.33-60.88-.57-4.83,226.2-1.71,452.47h60.16Q715.09,240.7,721.89,14.73Z"/>
    <path d="M374.13,14.16q-30.44.24-60.88.57,6.87,225.83,2.44,451.79l60.15,0Q378.9,240.36,374.13,14.16Z"/>
    <path d="M517.58,158.17Q578.51,185.92,639.29,214q-.21,44.89-.18,89.78-121.54-.33-243.08,0,0-44.89-.15-89.78Q456.68,186,517.58,158.17Z"/>
  </g>
  <g class="brickLight">
    <path d="M480.61,227.68c.37-19.65,16.51-38.37,37-37.85,19.83.51,37.58,17.54,37,37.85q0,38,0,75.95-36.94,0-73.89,0Q480.66,265.65,480.61,227.68Z"/>
    <path d="M557.9,256.79c.41-19.63,16.58-38.33,37-37.76,19.81.56,37.48,17.64,36.86,37.91q0,23.42,0,46.82-36.94-.11-73.88-.13Q557.89,280.2,557.9,256.79Z"/>
    <path d="M403.38,256.94c.35-19.61,16.42-38.38,36.86-37.91,19.82.46,37.59,17.46,37,37.76q0,23.41,0,46.84-36.94,0-73.88.13Q403.42,280.34,403.38,256.94Z"/>
    <path d="M661,14.16,641.66,14q-4.17,226.27-1.48,452.6H659.3Q656.24,240.4,661,14.16Z"/>
    <path d="M741.24,15l-19.35-.22Q715,240.61,719.46,466.64h19.12Q733.8,240.81,741.24,15Z"/>
    <path d="M313.08,14.73,293.73,15q7.51,225.71,2.67,451.56h19.12Q319.87,240.64,313.08,14.73Z"/>
    <path d="M393.31,14,374,14.16q4.83,226.16,1.71,452.38h19.12Q397.45,240.29,393.31,14Z"/>
    <path d="M969.24,261.84l12.21.15q-.41,65.52,1.31,131l-12.25-.07Q968.86,327.4,969.24,261.84Z"/>
    <path d="M65.9,261.84,53.69,262q.41,65.52-1.31,131l12.25-.07Q66.28,327.4,65.9,261.84Z"/>
  </g>
  <path class="wallFront" d="M639.13,315.92q-121.54-.3-243.09,0-.17,75.32-1.05,150.63l245.19.07Q639.3,391.28,639.13,315.92Z"/>
  <g class="trimDark">
    <path d="M658.56,401.77l59.85.12q-.09-6.87-.17-13.75-29.9-.08-59.8-.13Z"/>
    <path d="M969.5,342.32l.18,12Q853.3,353.46,736.89,353l-.09-12.13Q853.16,341.36,969.5,342.32Z"/>
    <path d="M65.64,342.32l-.18,12q116.39-.88,232.79-1.32l.09-12.13Q182,341.36,65.64,342.32Z"/>
    <path d="M737.48,405.68q147.3.36,294.59,1.2-.22-6.78-.44-13.58-147.17-1-294.34-1.37Q737.38,398.81,737.48,405.68Z"/>
    <path d="M297.66,405.68q-147.3.36-294.59,1.2.23-6.78.44-13.58,147.17-1,294.34-1.37Q297.76,398.81,297.66,405.68Z"/>
    <path d="M376.58,401.77l-59.85.12q.09-6.87.17-13.75,29.89-.08,59.8-.13Z"/>
    <path d="M721.89,14.73q-.17,5.3-.32,10.59-30.39-.32-60.79-.55c.08-3.54.15-7.08.23-10.61Q691.45,14.4,721.89,14.73Z"/>
    <path d="M719.9,89.3c0,2-.06,3-.11,5q-30.12-.27-60.26-.47c0-2,.05-3,.08-5Q689.76,89,719.9,89.3Z"/>
    <path d="M718.71,152.45c0,2,0,3-.07,5q-30-.24-59.92-.4c0-2,0-3,.06-5Q688.75,152.21,718.71,152.45Z"/>
    <path d="M717.81,239.6c0,2,0,3,0,5q-29.84-.18-59.66-.3c0-2,0-3,0-5Q688,239.43,717.81,239.6Z"/>
    <path d="M658.16,340.63l59.68.19c0-4.05-.05-8.11-.06-12.16q-29.84-.12-59.66-.2Q658.14,334.55,658.16,340.63Z"/>
    <path d="M313.25,14.73q.17,5.3.32,10.59Q344,25,374.36,24.77c-.08-3.54-.15-7.08-.23-10.61Q343.69,14.4,313.25,14.73Z"/>
    <path d="M315.24,89.3c0,2,.06,3,.11,5q30.12-.27,60.26-.47c0-2-.05-3-.08-5Q345.38,89,315.24,89.3Z"/>
    <path d="M316.43,152.45c0,2,0,3,.07,5q30-.24,59.92-.4c0-2,0-3-.06-5Q346.39,152.21,316.43,152.45Z"/>
    <path d="M317.33,239.6c0,2,0,3,0,5q29.83-.18,59.66-.3c0-2,0-3,0-5Q347.17,239.43,317.33,239.6Z"/>
    <path d="M377,340.63l-59.68.19c0-4.05.05-8.11.06-12.16q29.83-.12,59.66-.2Q377,334.55,377,340.63Z"/>
    <path d="M639.29,214q-60.79-28-121.71-55.83Q456.67,185.92,395.88,214c0-3.51,0-5.26,0-8.77q60.81-28.06,121.74-55.84,61,27.75,121.75,55.84C639.31,208.74,639.3,210.49,639.29,214Z"/>
    <path d="M639.11,303.78q0,6.06,0,12.14-121.54-.3-243.09,0,0-6.07,0-12.14Q517.59,303.45,639.11,303.78Z"/>
    <path d="M629,454.27q-.39-39.16-.61-78.32c.46-18.25-15.71-33.72-33.52-34.18-18.33-.48-33.07,16.44-33.32,34.1q.09,39.19.24,78.37Q595.43,454.24,629,454.27Z"/>
    <path d="M551.19,454.24q-.12-39.19-.19-78.37c.53-18.24-15.61-33.72-33.42-34.16-18.34-.45-33.1,16.48-33.42,34.16q-.06,39.18-.18,78.37Z"/>
    <path d="M473.35,454.24q.16-39.18.25-78.37c.6-18.23-15.53-33.69-33.32-34.1-18.35-.43-33.14,16.5-33.52,34.18q-.22,39.17-.61,78.32Z"/>
  </g>
  <g class="trimLight">
    <path d="M557.89,303.63q0-63.49.14-127l-3.38-1.54q-.14,64.26-.12,128.53Z"/>
    <path d="M477.28,303.63q0-63.49-.14-127l3.38-1.54q.14,64.26.12,128.53Z"/>
    <path d="M631.77,303.76l7.34,0q0-44.89.18-89.78L632,210.62Q631.74,257.2,631.77,303.76Z"/>
    <path d="M403.4,303.76l-7.34,0q0-44.89-.18-89.78l7.34-3.38Q403.43,257.2,403.4,303.76Z"/>
    <path d="M628.2,315.9l10.93,0q.15,69.15.91,138.29H629Q628.35,385,628.2,315.9Z"/>
    <path d="M396,315.92l10.93,0q-.14,69.15-.82,138.31h-11Q395.9,385.08,396,315.92Z"/>
    <path d="M550.88,315.75h10.55q0,69.23.32,138.45H551.13Q550.92,385,550.88,315.75Z"/>
    <path d="M473.68,315.79h10.55q0,69.23-.25,138.46H473.35Q473.64,385,473.68,315.79Z"/>
    <path d="M684.29,14.35l14.32.14q-5,186.75-3.24,373.59l-14.06,0Q679.69,201.2,684.29,14.35Z"/>
    <path d="M718.41,401.89l-8.45,0q.4,32.38,1,64.77h8.5Q718.83,434.27,718.41,401.89Z"/>
    <path d="M667.06,401.79l-8.44,0q.28,32.43.73,64.86h8.5Q667.39,434.22,667.06,401.79Z"/>
    <path d="M376.55,401.77l-8.45,0q-.32,32.37-.78,64.75h8.5Q376.26,434.16,376.55,401.77Z"/>
    <path d="M325.21,401.87l-8.45,0q-.42,32.33-1.05,64.63h8.5Q324.8,434.2,325.21,401.87Z"/>
    <path d="M355.91,14.31l-3.09,0q4.57,186.83,2.95,373.72h3Q360.38,201.17,355.91,14.31Z"/>
    <path d="M334.56,14.5l-3.09,0q5.17,186.74,3.33,373.56h3Q339.6,201.28,334.56,14.5Z"/>
    <path d="M1031.63,393.3l-12.76-.08q1.13,36.76,2.92,73.52h12.84Q1032.79,430,1031.63,393.3Z"/>
    <path d="M883.48,392.47l-10.91-.05q.79,37.15,2.07,74.27h11Q884.31,429.59,883.48,392.47Z"/>
    <path d="M956.56,392.85l-10.91-.06q1,37,2.5,73.93h11Q957.55,429.79,956.56,392.85Z"/>
    <path d="M810.39,392.17l-10.91,0q.63,37.28,1.65,74.54h11Q811.05,429.42,810.39,392.17Z"/>
    <path d="M16.27,393.22l-12.76.08q-1.15,36.57-3,73.12H13.37Q15.16,429.83,16.27,393.22Z"/>
    <path d="M162.57,392.42l-10.91.05q-.81,37-2.12,74h11Q161.77,429.45,162.57,392.42Z"/>
    <path d="M89.49,392.79l-10.91.06q-1,36.81-2.55,73.6H87Q88.53,429.63,89.49,392.79Z"/>
    <path d="M235.66,392.13l-10.91,0q-.66,37.17-1.71,74.32h11Q235,429.31,235.66,392.13Z"/>
    <path d="M981.48,314.59c4.46,1.83,8.95,6.33,9.42,11.39a15.77,15.77,0,0,1,9.53-11.2c1.11,1.36,1.14,2.63.08,3.83a11.64,11.64,0,0,0-6.16,10.13q.38,32.17,1.24,64.33l-6.68,0q-.85-32.17-1.23-64.35a12.17,12.17,0,0,0-6.22-10.19C981.47,316.93,981.47,316.15,981.48,314.59Z"/>
    <path d="M53.66,314.59A15.59,15.59,0,0,0,44.24,326c-.42-5.05-5.2-9.33-9.53-11.2-1.11,1.36-1.14,2.63-.08,3.83a11.64,11.64,0,0,1,6.16,10.13q-.37,32.17-1.24,64.33l6.68,0q.85-32.17,1.23-64.35a12.17,12.17,0,0,1,6.22-10.19C53.67,316.93,53.67,316.15,53.66,314.59Z"/>
  </g>
  <g class="brickDarker">
    <path d="M627,199.52l12.37,5.71q.57-95.61,2.33-191.21L628.84,24.55Q627.44,112,627,199.52Z"/>
    <path d="M408.18,199.52l-12.37,5.71q-.57-95.61-2.33-191.21L406.3,24.55Q407.7,112,408.18,199.52Z"/>
    <path d="M863.21,297.31c.36-9.61,8.29-19.29,18.55-18.7,9.69.55,19.06,8.76,18.55,19q.06,22.1.29,44.17-18.55-.12-37.13-.24Q863.26,319.43,863.21,297.31Z"/>
    <path d="M920.65,297.81c.36-9.61,8.31-19.23,18.55-18.63,9.67.56,19.06,8.75,18.55,19q.07,22,.34,44.05L921,341.94Q920.72,319.88,920.65,297.81Z"/>
    <path d="M805.76,296.89c.37-9.62,8.28-19.35,18.56-18.77,9.7.54,19.06,8.78,18.55,19q0,22.14.25,44.27L806,341.21Q805.82,319.06,805.76,296.89Z"/>
    <path d="M748.32,296.54c.37-9.62,8.26-19.39,18.55-18.83,9.72.53,19.07,8.79,18.55,19.05q0,22.17.21,44.35l-37.14-.17Q748.36,318.74,748.32,296.54Z"/>
    <path d="M171.93,297.31c.56-10.24-8.89-18.33-18.55-18.7-10.29-.4-18.15,9.38-18.55,19q-.06,22.1-.29,44.17,18.56-.12,37.13-.24Q171.88,319.43,171.93,297.31Z"/>
    <path d="M114.49,297.81c.57-10.24-8.91-18.28-18.55-18.63-10.28-.38-18.15,9.36-18.55,19q-.08,22-.34,44.05l37.13-.28Q114.42,319.88,114.49,297.81Z"/>
    <path d="M229.38,296.89c.55-10.25-8.87-18.39-18.56-18.77-10.3-.41-18.15,9.4-18.55,19q0,22.14-.25,44.27l37.14-.21Q229.33,319.06,229.38,296.89Z"/>
    <path d="M286.82,296.54c.55-10.25-8.85-18.42-18.55-18.83-10.32-.42-18.16,9.41-18.55,19.05q0,22.17-.21,44.35l37.14-.17Q286.79,318.74,286.82,296.54Z"/>
  </g>
  <g class="brickDarkest">
    <path d="M571.54,454.24q-.19-39.24-.3-78.48c-.3-12.83,10.89-24.25,23.67-24.23,13,0,23.76,11.43,23.83,24.29q.19,39.23.56,78.44Z"/>
    <path d="M493.71,454.24q.07-39.25.13-78.49c0-12.85,10.88-24.12,23.74-24.27s23.73,11.65,23.75,24.27q0,39.24.13,78.49Z"/>
    <path d="M415.87,454.26q.36-39.21.56-78.44c.07-12.86,11-24.13,23.83-24.29s23.69,11.63,23.66,24.23q-.1,39.24-.29,78.48Z"/>
    <path d="M489.2,227.61c0-15.42,12.77-29.05,28.38-29.05S546,212.19,546,227.61q0,38,0,76H489.23Q489.23,265.61,489.2,227.61Z"/>
    <path d="M566.48,256.74c0-15.41,12.82-29,28.42-29s28.33,13.69,28.31,29.1q0,23.44,0,46.87-28.37-.06-56.72-.09Q566.47,280.2,566.48,256.74Z"/>
    <path d="M412,256.86c0-15.41,12.7-29.06,28.31-29.1s28.4,13.57,28.42,29q0,23.44,0,46.9-28.36,0-56.72.09Q412,280.3,412,256.86Z"/>
  </g>
  <g class="slit">
    <path d="M715.55,41.14A6.76,6.76,0,0,0,709,34.32,7,7,0,0,0,702.1,41q-.51,20.67-1,41.34l13.38.12Q715,61.8,715.55,41.14Z"/>
    <path d="M679.46,40.81A6.77,6.77,0,0,0,672.88,34,7,7,0,0,0,666,40.7q-.42,20.69-.77,41.37l13.37.1Q679,61.48,679.46,40.81Z"/>
    <path d="M672.49,265.72a3.31,3.31,0,1,0-6.61,0q0,10.33,0,20.68l6.61,0Q672.47,276.06,672.49,265.72Z"/>
    <path d="M672.48,304.46a3.31,3.31,0,1,0-6.61,0q0,10.33,0,20.68l6.61,0Q672.5,314.81,672.48,304.46Z"/>
    <path d="M849.31,424.77a7.52,7.52,0,0,0-7.26-7.2,7.07,7.07,0,0,0-6.92,7.16q.52,21,1.17,41.95h14.23Q849.86,445.74,849.31,424.77Z"/>
    <path d="M868.81,424.83a7.54,7.54,0,0,0-7.27-7.2,7.06,7.06,0,0,0-6.91,7.16q.55,21,1.24,41.9H870.1Q869.38,445.77,868.81,424.83Z"/>
    <path d="M829.81,424.71a7.51,7.51,0,0,0-7.25-7.2,7.08,7.08,0,0,0-6.93,7.16q.5,21,1.1,42H831Q830.32,445.7,829.81,424.71Z"/>
    <path d="M922.52,425a7.58,7.58,0,0,0-7.3-7.19,7,7,0,0,0-6.88,7.13q.63,20.88,1.43,41.74H924Q923.18,445.86,922.52,425Z"/>
    <path d="M942,425.09a7.58,7.58,0,0,0-7.31-7.18,7,7,0,0,0-6.87,7.13q.67,20.83,1.5,41.67h14.23Q942.71,445.91,942,425.09Z"/>
    <path d="M903,425a7.57,7.57,0,0,0-7.29-7.2,7,7,0,0,0-6.89,7.15q.6,20.89,1.36,41.8h14.23Q903.65,445.82,903,425Z"/>
    <path d="M995.83,425.31a7.62,7.62,0,0,0-7.34-7.17,7,7,0,0,0-6.84,7.11q.75,20.75,1.69,41.48h14.23Q996.61,446,995.83,425.31Z"/>
    <path d="M1015.33,425.4a7.63,7.63,0,0,0-7.35-7.17,6.93,6.93,0,0,0-6.83,7.1q.78,20.71,1.76,41.4h14.23Q1016.14,446.07,1015.33,425.4Z"/>
    <path d="M976.33,425.23a7.62,7.62,0,0,0-7.33-7.18,7,7,0,0,0-6.85,7.12q.72,20.77,1.62,41.55H978Q977.07,446,976.33,425.23Z"/>
    <path d="M776.19,424.57a7.48,7.48,0,0,0-7.22-7.21,7.13,7.13,0,0,0-7,7.18q.4,21.06.9,42.12h14.23Q776.62,445.62,776.19,424.57Z"/>
    <path d="M795.69,424.62a7.5,7.5,0,0,0-7.23-7.21,7.11,7.11,0,0,0-7,7.18q.43,21,1,42.07h14.23Q796.14,445.64,795.69,424.62Z"/>
    <path d="M756.69,424.53a7.47,7.47,0,0,0-7.21-7.22,7.15,7.15,0,0,0-7,7.19q.38,21.08.83,42.15h14.23Q757.08,445.6,756.69,424.53Z"/>
    <path d="M705.59,424.43a7.44,7.44,0,0,0-7.19-7.22,7.18,7.18,0,0,0-7,7.2q.29,21.1.64,42.23h14.23Q705.89,445.54,705.59,424.43Z"/>
    <path d="M686.09,424.4a7.42,7.42,0,0,0-7.18-7.22,7.19,7.19,0,0,0-7,7.2q.26,21.12.57,42.25h14.23Q686.37,445.53,686.09,424.4Z"/>
    <path d="M318.15,39.21a4.71,4.71,0,0,1,4.66-4.86,4.91,4.91,0,0,1,4.92,4.77q.57,21.8,1,43.6l-9.54.09Q318.75,61,318.15,39.21Z"/>
    <path d="M360.54,38.83A4.73,4.73,0,0,1,365.23,34a4.87,4.87,0,0,1,4.89,4.78q.44,21.82.81,43.64l-9.53.07Q361,60.65,360.54,38.83Z"/>
    <path d="M339.34,39A4.73,4.73,0,0,1,344,34.15a4.9,4.9,0,0,1,4.91,4.78q.49,21.81.92,43.62l-9.53.07Q339.87,60.81,339.34,39Z"/>
    <path d="M363.34,114.09a3.32,3.32,0,0,1,3.28-3.4A3.38,3.38,0,0,1,370,114q.15,10.35.28,20.69l-6.65,0Q363.48,124.43,363.34,114.09Z"/>
    <path d="M364.11,177.57a3.32,3.32,0,1,1,6.63,0q.09,10.34.17,20.68l-6.62,0Z"/>
    <path d="M322.9,265.91a3.31,3.31,0,1,1,6.61,0q0,10.33,0,20.67l-6.61,0Q322.93,276.25,322.9,265.91Z"/>
    <path d="M322.91,304.61a3.38,3.38,0,0,1,3.32-3.39,3.32,3.32,0,0,1,3.3,3.36l-.06,20.67-6.62,0Q322.9,314.95,322.91,304.61Z"/>
    <path d="M200,424.73a7.07,7.07,0,0,0-6.92-7.16,7.52,7.52,0,0,0-7.26,7.2q-.54,20.87-1.21,41.71h14.23Q199.5,445.62,200,424.73Z"/>
    <path d="M180.51,424.79a7.06,7.06,0,0,0-6.91-7.16,7.54,7.54,0,0,0-7.27,7.2q-.57,20.82-1.28,41.64h14.23Q180,445.63,180.51,424.79Z"/>
    <path d="M219.51,424.67a7.08,7.08,0,0,0-6.93-7.16,7.51,7.51,0,0,0-7.25,7.2q-.51,20.9-1.14,41.78h14.23Q219,445.58,219.51,424.67Z"/>
    <path d="M126.8,425a7,7,0,0,0-6.88-7.13,7.58,7.58,0,0,0-7.3,7.19q-.66,20.72-1.47,41.44h14.23Q126.16,445.72,126.8,425Z"/>
    <path d="M107.3,425a7,7,0,0,0-6.87-7.13,7.58,7.58,0,0,0-7.31,7.18q-.69,20.69-1.54,41.36h14.23Q106.64,445.75,107.3,425Z"/>
    <path d="M146.3,424.9a7,7,0,0,0-6.89-7.15,7.57,7.57,0,0,0-7.29,7.2q-.63,20.76-1.4,41.51H145Q145.7,445.68,146.3,424.9Z"/>
    <path d="M53.49,425.25a7,7,0,0,0-6.84-7.11,7.62,7.62,0,0,0-7.34,7.17q-.77,20.57-1.73,41.13H51.81Q52.74,445.85,53.49,425.25Z"/>
    <path d="M34,425.33a6.93,6.93,0,0,0-6.83-7.1,7.63,7.63,0,0,0-7.35,7.17q-.81,20.52-1.8,41H32.24Q33.2,445.9,34,425.33Z"/>
    <path d="M73,425.17a7,7,0,0,0-6.85-7.12,7.62,7.62,0,0,0-7.33,7.18q-.73,20.61-1.66,41.21H71.38Q72.27,445.81,73,425.17Z"/>
    <path d="M273.13,424.54a7.13,7.13,0,0,0-7-7.18,7.48,7.48,0,0,0-7.22,7.21q-.42,21-.94,41.93h14.22Q272.73,445.53,273.13,424.54Z"/>
    <path d="M253.63,424.59a7.11,7.11,0,0,0-6.95-7.18,7.5,7.5,0,0,0-7.23,7.21q-.45,20.94-1,41.88h14.22Q253.2,445.54,253.63,424.59Z"/>
    <path d="M292.63,424.5a7.15,7.15,0,0,0-7-7.19,7.47,7.47,0,0,0-7.21,7.22q-.39,21-.87,42H291.8Q292.27,445.51,292.63,424.5Z"/>
    <path d="M343.73,424.41a7.18,7.18,0,0,0-7-7.2,7.44,7.44,0,0,0-7.19,7.22q-.3,21-.68,42.09h14.22Q343.45,445.47,343.73,424.41Z"/>
    <path d="M363.23,424.38a7.19,7.19,0,0,0-7-7.2,7.42,7.42,0,0,0-7.18,7.22q-.27,21.06-.61,42.13h14.22Q363,445.45,363.23,424.38Z"/>
    <path d="M599.06,361a4.12,4.12,0,1,0-8.24,0q0,11,.08,22.08h8.25Z"/>
    <path d="M610.4,363.64a4.19,4.19,0,0,0-4.13-4.21,4.14,4.14,0,0,0-4.11,4.2q0,9.71.1,19.41h8.25Q610.45,373.35,610.4,363.64Z"/>
    <path d="M587.74,363.61a4.19,4.19,0,0,0-4.13-4.21,4.14,4.14,0,0,0-4.11,4.21l.06,19.41h8.24Z"/>
    <path d="M444.33,361a4.14,4.14,0,0,0-4.11-4.2,4.19,4.19,0,0,0-4.13,4.21q0,11-.08,22.08h8.24Q444.29,372,444.33,361Z"/>
    <path d="M455.65,363.61a4.14,4.14,0,0,0-4.1-4.21,4.19,4.19,0,0,0-4.14,4.21q0,9.72,0,19.42h8.25Z"/>
    <path d="M433,363.63a4.13,4.13,0,0,0-4.1-4.2,4.19,4.19,0,0,0-4.14,4.21q0,9.71-.08,19.41h8.24Q433,373.34,433,363.63Z"/>
    <path d="M521.55,360.91a4.12,4.12,0,1,0-8.24,0V383h8.24Z"/>
    <path d="M532.88,363.58a4.12,4.12,0,1,0-8.24,0l0,19.41h8.24Z"/>
    <path d="M510.22,363.58a4.12,4.12,0,1,0-8.24,0q0,9.71,0,19.42h8.25Q510.21,373.29,510.22,363.58Z"/>
  </g>
  <g class="wallInner">
    <path d="M574.76,454.24q-.16-32.7-.28-65.4L595,381.68l20.62,7.2q.18,32.69.47,65.38"/>
    <path d="M419.07,454.26q.29-32.68.47-65.38l20.61-7.2,20.56,7.16q-.12,32.7-.28,65.4"/>
    <path d="M496.76,454.23q.06-32.7.1-65.41l20.59-7.18L538,388.82q0,32.7.1,65.41"/>
  </g>
  <g class="frameDarkFront">
    <path d="M576.62,412.94c.34-9.61,8.17-19.39,18.45-18.89,9.7.48,19.09,8.67,18.63,18.92q.15,20.64.32,41.29l-37.2,0Q576.7,433.59,576.62,412.94Z"/>
    <path d="M421.45,413c.44-9.63,8.34-19.4,18.63-18.92,9.68.45,19,8.66,18.45,18.89q-.09,20.65-.2,41.3l-37.2,0Q421.31,433.62,421.45,413Z"/>
    <path d="M498.88,412.92c.4-9.62,8.26-19.4,18.55-18.91,9.69.47,19.06,8.67,18.54,18.91l.06,41.31H498.82Q498.85,433.57,498.88,412.92Z"/>
  </g>
  <g class="doorDarkFront">
    <path d="M611.5,454.26l-32.16,0q-.12-21.17-.21-42.34l32,0Q611.32,433.1,611.5,454.26Z"/>
    <path d="M455.81,454.24l-32.16,0q.18-21.17.32-42.33l32,0Q455.93,433.08,455.81,454.24Z"/>
    <path d="M533.5,454.23H501.35q0-21.17,0-42.35h32.05Q533.48,433.06,533.5,454.23Z"/>
  </g>
  <g class="doorBorderLine">
    <path d="M595.16,411.91q.11,21.15.26,42.28"/>
    <path d="M440,411.91q-.11,21.15-.26,42.28"/>
    <path d="M517.43,411.88v42.3"/>
  </g>
  <g class="windowFront">
    <path d="M892.25,297.58c-.1-5.35-4.88-10.94-10.5-10.75-5.28.17-10.89,4.92-10.48,10.57q0,22.1.27,44.2l21,.14Q892.32,319.66,892.25,297.58Z"/>
    <path d="M949.69,298.12c-.1-5.35-4.89-10.92-10.5-10.74-5.26.16-10.89,4.89-10.48,10.53Q928.77,320,929,342l21,.16Q949.76,320.14,949.69,298.12Z"/>
    <path d="M834.81,297.12c-.1-5.35-4.88-11-10.5-10.76-5.29.18-10.89,5-10.49,10.61q0,22.14.23,44.29l21,.11Q834.86,319.25,834.81,297.12Z"/>
    <path d="M777.36,296.73c-.09-5.34-4.86-11-10.49-10.76-5.3.19-10.89,5-10.49,10.64q0,22.18.18,44.37l21,.09Q777.41,318.9,777.36,296.73Z"/>
    <path d="M941.74,392.76l10.89.06q-.3-12.78-.57-25.56l-10.88-.07Q941.44,380,941.74,392.76Z"/>
    <path d="M928.31,392.69l10.89.06q-.3-12.78-.55-25.58l-10.88-.07Q928,379.9,928.31,392.69Z"/>
    <path d="M884.12,392.48l10.89,0q-.27-12.81-.49-25.63l-10.88-.06Q883.85,379.67,884.12,392.48Z"/>
    <path d="M870.69,392.42l10.89.05q-.26-12.83-.47-25.64c-3.63,0-7.25-.05-10.88-.06Q870.44,379.6,870.69,392.42Z"/>
    <path d="M826.5,392.23l10.9,0q-.24-12.84-.42-25.68l-10.88,0Q826.28,379.38,826.5,392.23Z"/>
    <path d="M813.07,392.18l10.9,0q-.22-12.84-.4-25.69l-10.88,0Q812.85,379.34,813.07,392.18Z"/>
    <path d="M768.88,392l10.9,0q-.19-12.85-.34-25.73l-10.88,0Q768.71,379.16,768.88,392Z"/>
    <path d="M755.45,392l10.9,0q-.18-12.87-.33-25.74l-10.88,0Q755.29,379.11,755.45,392Z"/>
    <path d="M142.89,297.58c-.38-5.66,5.2-10.48,10.5-10.75,5.59-.3,10.41,5.24,10.48,10.57q0,22.1-.27,44.2l-21,.14Q142.82,319.66,142.89,297.58Z"/>
    <path d="M85.45,298.12c-.38-5.66,5.21-10.46,10.5-10.74,5.58-.31,10.41,5.2,10.48,10.53q-.06,22.05-.32,44.09l-21,.16Q85.38,320.14,85.45,298.12Z"/>
    <path d="M200.33,297.12c-.37-5.67,5.2-10.49,10.5-10.76,5.61-.29,10.41,5.28,10.49,10.61q0,22.14-.23,44.29l-21,.11Q200.29,319.25,200.33,297.12Z"/>
    <path d="M257.78,296.73c-.38-5.66,5.18-10.5,10.49-10.76,5.62-.28,10.41,5.31,10.49,10.64q0,22.18-.18,44.37l-21,.09Q257.73,318.9,257.78,296.73Z"/>
    <path d="M93.4,392.76l-10.89.06q.3-12.78.57-25.56L94,367.19Q93.71,380,93.4,392.76Z"/>
    <path d="M106.83,392.69l-10.89.06q.3-12.78.55-25.58l10.88-.07Q107.13,379.9,106.83,392.69Z"/>
    <path d="M151,392.48l-10.89,0q.27-12.81.49-25.63l10.88-.06Q151.29,379.67,151,392.48Z"/>
    <path d="M164.45,392.42l-10.89.05q.25-12.83.47-25.64l10.88-.06Q164.7,379.6,164.45,392.42Z"/>
    <path d="M208.64,392.23l-10.9,0q.24-12.84.42-25.68l10.88,0Q208.86,379.38,208.64,392.23Z"/>
    <path d="M222.07,392.18l-10.9,0q.22-12.84.4-25.69l10.88,0Q222.29,379.34,222.07,392.18Z"/>
    <path d="M266.26,392l-10.9,0q.19-12.85.34-25.73l10.88,0Q266.43,379.16,266.26,392Z"/>
    <path d="M279.69,392l-10.9,0q.18-12.87.33-25.74l10.88,0Q279.85,379.11,279.69,392Z"/>
    <path d="M576.29,259.2c.39-9.64,8.26-19.47,18.58-18.95,9.73.49,19.08,8.77,18.53,19q0,22.26,0,44.51l-37.1-.07Q576.27,281.46,576.29,259.2Z"/>
    <path d="M499,259.16c.38-9.65,8.25-19.5,18.59-19,9.74.47,19.13,8.72,18.59,19v44.53H499Q499,281.43,499,259.16Z"/>
    <path d="M421.77,259.28c.37-9.64,8.19-19.51,18.53-19,9.73.44,19.11,8.68,18.58,18.95q0,22.26,0,44.52l-37.11.07Q421.8,281.53,421.77,259.28Z"/>
  </g>
  <g class="windowDisplayLine">
    <path d="M882,341.67q-.27-27.42-.29-54.84"/>
    <path d="M892.34,319.22l-21-.16"/>
    <path d="M892.25,297.58l-21-.18"/>
    <path d="M939.53,342.08q-.33-27.36-.34-54.7"/>
    <path d="M949.8,319.7l-21-.19"/>
    <path d="M949.69,298.12l-21-.21"/>
    <path d="M824.55,341.31q-.22-27.48-.24-54.95"/>
    <path d="M834.88,318.8l-21-.13"/>
    <path d="M834.81,297.12l-21-.15"/>
    <path d="M767.06,341q-.18-27.52-.19-55"/>
    <path d="M777.42,318.46l-21-.11"/>
    <path d="M777.36,296.73l-21-.12"/>
    <path d="M933.21,367.14q.24,12.8.54,25.58"/>
    <path d="M928,379.9l10.89.06"/>
    <path d="M946.62,367.23q.25,12.78.57,25.56"/>
    <path d="M941.44,380l10.89.06"/>
    <path d="M875.67,366.79q.21,12.82.47,25.65"/>
    <path d="M870.44,379.59l10.89.06"/>
    <path d="M889.08,366.87q.23,12.81.49,25.63"/>
    <path d="M883.86,379.66l10.89,0"/>
    <path d="M818.13,366.5q.17,12.86.39,25.7"/>
    <path d="M812.87,379.33l10.88,0"/>
    <path d="M831.54,366.57q.18,12.84.41,25.68"/>
    <path d="M826.29,379.39l10.88,0"/>
    <path d="M760.58,366.26q.15,12.87.32,25.74"/>
    <path d="M755.29,379.11l10.89,0"/>
    <path d="M774,366.31q.15,12.87.33,25.74"/>
    <path d="M768.71,379.16l10.89,0"/>
    <path d="M153.1,341.67q.27-27.42.29-54.84"/>
    <path d="M142.8,319.22l21-.16"/>
    <path d="M142.89,297.58l21-.18"/>
    <path d="M95.61,342.08q.33-27.36.34-54.7"/>
    <path d="M85.34,319.7l21-.19"/>
    <path d="M85.45,298.12l21-.21"/>
    <path d="M210.59,341.31q.22-27.48.24-54.95"/>
    <path d="M200.26,318.8l21-.13"/>
    <path d="M200.33,297.12l21-.15"/>
    <path d="M268.08,341q.18-27.52.19-55"/>
    <path d="M257.72,318.46l21-.11"/>
    <path d="M257.78,296.73l21-.12"/>
    <path d="M101.93,367.14q-.24,12.8-.54,25.58"/>
    <path d="M107.12,379.9,96.23,380"/>
    <path d="M88.52,367.23Q88.26,380,88,392.79"/>
    <path d="M93.7,380,82.81,380"/>
    <path d="M159.47,366.79q-.21,12.82-.47,25.65"/>
    <path d="M164.7,379.59l-10.89.06"/>
    <path d="M146.06,366.87q-.23,12.81-.49,25.63"/>
    <path d="M151.28,379.66l-10.89,0"/>
    <path d="M217,366.5q-.16,12.86-.39,25.7"/>
    <path d="M222.27,379.33l-10.88,0"/>
    <path d="M203.6,366.57q-.18,12.84-.41,25.68"/>
    <path d="M208.85,379.39l-10.88,0"/>
    <path d="M274.56,366.26q-.15,12.87-.32,25.74"/>
    <path d="M279.85,379.11l-10.89,0"/>
    <path d="M261.14,366.31q-.15,12.87-.33,25.74"/>
    <path d="M266.43,379.16l-10.89,0"/>
    <path d="M594.83,303.68q0-31.73,0-63.43"/>
    <path d="M613.38,281.1,576.27,281"/>
    <path d="M613.4,259.31l-37.11-.08"/>
    <path d="M603.87,303.77q.14-30.56.36-61.1"/>
    <path d="M585.47,303.66q0-30.42,0-60.84"/>
    <path d="M517.58,303.61V240.16"/>
    <path d="M536.14,281H499"/>
    <path d="M536.14,259.19H499"/>
    <path d="M526.62,303.69l.33-61.13"/>
    <path d="M508.22,303.61V242.75"/>
    <path d="M440.34,303.68q0-31.73,0-63.43"/>
    <path d="M458.9,281l-37.11.07"/>
    <path d="M458.88,259.23l-37.11.08"/>
    <path d="M449.37,303.74q.18-30.56.3-61.11"/>
    <path d="M431,303.69q0-30.4-.05-60.83"/>
  </g>
  <path class="stepFront" d="M640,454.21q-122.46-.09-244.91,0-.06,6.17-.14,12.34l245.19.07Q640.11,460.43,640,454.21Z"/>
  <g class="stepSide">
    <path d="M643.05,450.47H629q.09,8.09.17,16.16h14.09Q643.15,458.55,643.05,450.47Z"/>
    <path d="M405.91,450.46H391.84q-.09,8-.19,16.07h14.09Q405.83,458.51,405.91,450.46Z"/>
  </g>
  <g class="stepOverlapLine">
    <path d="M629.07,458.6q-111.63-.08-223.25,0"/>
    <path d="M629.11,462.66q-111.66-.06-223.33,0"/>
  </g>
  <g class="trimOrnamentInner">
    <path d="M799.72,405.85l10.92,0q.52-6.86,1.06-13.71l-13.53-.05Q799,399,799.72,405.85Z"/>
    <path d="M872.87,406.11l10.92.05q.48-6.84,1-13.68l-13.53-.06Q872.06,399.26,872.87,406.11Z"/>
    <path d="M946,406.43l10.91.06q.47-6.83.94-13.64l-13.53-.07Z"/>
    <path d="M1019.29,406.81l12.78.07q-.22-6.78-.44-13.58l-14.08-.09Z"/>
    <path d="M235.42,405.85l-10.92,0q-.52-6.86-1.06-13.71l13.53-.05Q236.19,399,235.42,405.85Z"/>
    <path d="M162.27,406.11l-10.91.05q-.5-6.84-1-13.68l13.53-.06Q163.08,399.26,162.27,406.11Z"/>
    <path d="M89.12,406.43l-10.91.06q-.46-6.83-.94-13.64l13.53-.07Z"/>
    <path d="M15.85,406.81l-12.78.07q.23-6.78.44-13.58l14.08-.09Z"/>
    <path d="M484.16,375.87h11.31l-1.65,12.54h-9.68Q484.16,382.13,484.16,375.87Z"/>
    <path d="M539.69,375.86H551l0,12.53h-9.68Q540.52,382.13,539.69,375.86Z"/>
    <path d="M561.57,375.87h11.31q-.79,6.27-1.6,12.53H561.6Z"/>
    <path d="M617.1,375.93l11.31,0q0,6.26.07,12.52h-9.67Z"/>
    <path d="M406.76,376l11.31,0-1.71,12.53h-9.68Q406.73,382.22,406.76,376Z"/>
    <path d="M462.29,375.88H473.6l0,12.53h-9.68Q463.1,382.14,462.29,375.88Z"/>
    <path d="M550.94,315.78h10.55q.32-6.07.64-12.16H550.28Z"/>
    <path d="M628.06,315.9l11.07,0q0-6.07,0-12.14l-11.72,0Q627.72,309.83,628.06,315.9Z"/>
    <path d="M473.68,315.79h10.55l.66-12.16H473Q473.36,309.71,473.68,315.79Z"/>
    <path d="M396,315.92l11.1,0q.33-6.07.67-12.16l-11.75,0Q396,309.84,396,315.92Z"/>
  </g>
  <g class="trimOrnamentOuter">
    <path d="M473.57,388.4h10.57q.35-6.27.68-12.53H472.94Z"/>
    <path d="M551,388.4h10.57l.63-12.53H550.29Q550.62,382.13,551,388.4Z"/>
  </g>
  <g class="brickOrnament">
    <path d="M568.12,256.74l-10.22.05c0,3.52,0,7,0,10.57h8.59Q567.29,262.06,568.12,256.74Z"/>
    <path d="M631.79,256.89l-10.22,0,1.62,10.57,8.59,0C631.78,264,631.79,260.43,631.79,256.89Z"/>
    <path d="M490.84,227.68l-10.23.07c0,3.52,0,7.05,0,10.57h8.59Q490,233,490.84,227.68Z"/>
    <path d="M554.56,227.69l-10.23.05q.81,5.28,1.63,10.57h8.59C554.55,234.78,554.56,231.24,554.56,227.69Z"/>
    <path d="M413.59,256.86l-10.21.08c0,3.53,0,7.05,0,10.57l8.59,0Q412.79,262.17,413.59,256.86Z"/>
    <path d="M477.27,256.73l-10.22.07q.82,5.28,1.64,10.57h8.59C477.28,263.81,477.27,260.27,477.27,256.73Z"/>
  </g>
  <g class="stainedGlass">
    <path d="M508.78,215.39c0,4.08,3.9,9.24,8.65,8.84,4.32-.36,8.64-4.27,8.64-8.84s-4.32-8.48-8.64-8.84C512.68,206.16,508.78,211.32,508.78,215.39Z"/>
    <path d="M524.69,227.67a7.1,7.1,0,1,0,7.1-7.26A7.32,7.32,0,0,0,524.69,227.67Z"/>
    <path d="M496.28,227.68a7.1,7.1,0,1,0,7.1-7.27A7.33,7.33,0,0,0,496.28,227.68Z"/>
  </g>
</svg>
