<svg viewBox="0 0 1086.86 495.43">
  <g class="roofDark">
    <path d="M660.26,26Q667,20.4,673.72,14.82,672.34,7.89,671,1,662.79,8.49,654.62,16Z"/>
    <path d="M426.59,26q-6.72-5.59-13.46-11.17L415.86,1Q424.05,8.49,432.23,16Z"/>
    <path d="M428.81,322.15q114.57-.28,229.16,0,0-66.57.37-133.14-114.95-.45-229.91,0Q428.85,255.58,428.81,322.15Z"/>
    <path d="M1017.73,271.26q-.06,6.36-.09,12.74-122.08-1.47-244.17-2.2,0-6.44,0-12.86Q895.63,269.71,1017.73,271.26Z"/>
    <path d="M69.12,271.26,69.21,284q122.07-1.47,244.16-2.2,0-6.44,0-12.86Q191.21,269.71,69.12,271.26Z"/>
    <path d="M1030.39,305.08l27.23,11.67-27.22-.3Q1030.39,310.77,1030.39,305.08Z"/>
    <path d="M56.45,305.08,29.23,316.75l27.21-.3Q56.46,310.77,56.45,305.08Z"/>
  </g>
  <g class="roofLight">
    <path d="M673.72,14.82Q672.34,7.89,671,1q57,.39,114,1.11-3.36,6.86-6.7,13.72Q726,15.17,673.72,14.82Z"/>
    <path d="M413.13,14.82,415.86,1q-57,.39-114,1.11,3.36,6.86,6.7,13.72Q360.85,15.17,413.13,14.82Z"/>
    <path d="M1024,256.7q4.93,10.57,9.88,21.13l-19.25-.24Q1019.27,267.14,1024,256.7Z"/>
    <path d="M62.87,256.7Q58,267.27,53,277.83l19.24-.24Q67.57,267.14,62.87,256.7Z"/>
  </g>
  <g class="brickDark">
    <path d="M1030.4,316.45l20,.22q.18,50.08,1.53,100.15l-20-.12Q1030.58,366.59,1030.4,316.45Z"/>
    <path d="M56.44,316.45l-20,.22q-.18,50.08-1.53,100.15l20-.12Q56.28,366.59,56.44,316.45Z"/>
    <path d="M773.47,281.8q122.09.72,244.17,2.2-.3,66.33,1.37,132.64-122.43-.7-244.88-1.05Q773.32,348.71,773.47,281.8Z"/>
    <path d="M313.46,281.8q-122.08.72-244.17,2.2.25,66.33-1.46,132.64,122.45-.7,244.88-1.05Q313.56,348.71,313.46,281.8Z"/>
    <path d="M1083.19,417q-154.53-1-309.06-1.45.51,39.63,1.35,79.24l310.86.1Q1084.41,456,1083.19,417Z"/>
    <path d="M312.71,415.59Q158.18,416,3.66,417,2.45,455.83.53,494.59l310.84.1Q312.2,455.14,312.71,415.59Z"/>
    <path d="M758,15.57Q726,15.21,694,15q-5.07,239.9-1.79,479.85l63.16,0Q750.83,255.21,758,15.57Z"/>
    <path d="M392.81,15q-32,.25-63.92.61,7.2,239.49,2.55,479.12l63.17,0Q397.82,254.85,392.81,15Z"/>
    <path d="M543.44,167.69q64,29.43,127.78,59.21-.21,47.6-.18,95.2-127.62-.35-255.24,0,.06-47.6-.15-95.2Q479.48,197.15,543.44,167.69Z"/>
  </g>
  <g class="brickLight">
    <path d="M504.61,241.4c.4-20.84,17.34-40.69,38.83-40.14,20.82.54,39.45,18.6,38.82,40.14q0,40.28,0,80.54-38.78,0-77.57,0Q504.67,281.68,504.61,241.4Z"/>
    <path d="M585.77,272.27c.43-20.82,17.4-40.64,38.88-40,20.8.59,39.35,18.7,38.71,40.21q0,24.82,0,49.64-38.79-.09-77.57-.13Q585.75,297.11,585.77,272.27Z"/>
    <path d="M423.52,272.44c.37-20.81,17.24-40.71,38.71-40.21,20.81.49,39.47,18.52,38.88,40q0,24.84,0,49.68-38.79,0-77.58.13Q423.56,297.26,423.52,272.44Z"/>
    <path d="M694,15l-20.31-.14q-4.4,240-1.56,480h20.08Q689,254.89,694,15Z"/>
    <path d="M778.27,15.8,758,15.57q-7.22,239.55-2.56,479.26h20.08Q770.47,255.33,778.27,15.8Z"/>
    <path d="M328.7,15.57l-20.31.23q7.89,239.36,2.8,478.89h20.07Q335.85,255.14,328.7,15.57Z"/>
    <path d="M413,14.82,392.63,15q5.07,239.85,1.8,479.75H414.5Q417.29,254.77,413,14.82Z"/>
    <path d="M1017.68,277.63l12.82.16q-.42,69.48,1.37,138.93l-12.86-.08Q1017.27,347.15,1017.68,277.63Z"/>
    <path d="M69.17,277.63l-12.82.16q.42,69.48-1.38,138.93l12.86-.08Q69.57,347.15,69.17,277.63Z"/>
  </g>
  <path class="wallFront" d="M671.06,335q-127.62-.32-255.25,0-.17,79.88-1.1,159.74l257.45.08Q671.23,414.9,671.06,335Z"/>
  <g class="trimDark">
    <path d="M691.46,426q31.42,0,62.84.12-.09-7.29-.17-14.58-31.39-.09-62.79-.14Z"/>
    <path d="M1018,363q.09,6.38.19,12.75-122.22-.94-244.43-1.41l-.09-12.86Q895.78,362,1018,363Z"/>
    <path d="M68.89,363q-.09,6.38-.19,12.75,122.22-.94,244.43-1.41.06-6.42.1-12.86Q191.06,362,68.89,363Z"/>
    <path d="M774.32,430.17q154.66.39,309.33,1.28-.24-7.2-.46-14.41-154.53-1-309.06-1.45Q774.22,422.88,774.32,430.17Z"/>
    <path d="M312.52,430.17q-154.66.39-309.32,1.28.24-7.2.46-14.41,154.52-1,309-1.45Q312.62,422.88,312.52,430.17Z"/>
    <path d="M395.38,426l-62.84.12.18-14.58q31.39-.09,62.78-.14Z"/>
    <path d="M758,15.57c-.12,3.74-.23,7.49-.34,11.23q-31.9-.35-63.83-.59L694,15Q726,15.22,758,15.57Z"/>
    <path d="M755.87,94.65c0,2.1-.07,3.16-.11,5.26q-31.63-.28-63.28-.5c0-2.11,0-3.16.09-5.27Q724.22,94.35,755.87,94.65Z"/>
    <path d="M754.62,161.62c0,2.11,0,3.16-.08,5.27q-31.45-.24-62.91-.42c0-2.11,0-3.16.06-5.27Q723.16,161.38,754.62,161.62Z"/>
    <path d="M753.68,254.05c0,2.1,0,3.15,0,5.26q-31.32-.18-62.64-.31c0-2.11,0-3.16,0-5.27Q722.35,253.87,753.68,254.05Z"/>
    <path d="M691,361.19q31.34.09,62.66.2l-.06-12.9L691,348.28Q691,354.75,691,361.19Z"/>
    <path d="M328.89,15.57l.33,11.23q31.92-.35,63.83-.59L392.81,15Q360.85,15.22,328.89,15.57Z"/>
    <path d="M331,94.65c0,2.1.07,3.16.12,5.26q31.64-.28,63.27-.5c0-2.11-.05-3.16-.08-5.27Q362.63,94.35,331,94.65Z"/>
    <path d="M332.22,161.62c0,2.11,0,3.16.08,5.27q31.45-.24,62.91-.42c0-2.11,0-3.16-.06-5.27Q363.7,161.38,332.22,161.62Z"/>
    <path d="M333.17,254.05c0,2.1,0,3.15,0,5.26q31.32-.18,62.65-.31c0-2.11,0-3.16,0-5.27Q364.49,253.87,333.17,254.05Z"/>
    <path d="M395.8,361.19q-31.33.09-62.66.2,0-6.45.07-12.9l62.64-.21Q395.82,354.75,395.8,361.19Z"/>
    <path d="M671.22,226.9q-63.83-29.75-127.78-59.21-64,29.43-127.79,59.21l0-9.31q63.86-29.75,127.84-59.22,64,29.43,127.83,59.22Z"/>
    <path d="M671,322.1q0,6.45,0,12.88-127.62-.32-255.25,0,0-6.44,0-12.88Q543.43,321.76,671,322.1Z"/>
    <path d="M660.45,481.7q-.41-41.54-.64-83.06c.48-19.35-16.5-35.76-35.2-36.25-19.25-.51-34.73,17.44-35,36.17q.11,41.55.26,83.11Z"/>
    <path d="M578.72,481.67q-.12-41.57-.19-83.11c.55-19.35-16.4-35.76-35.09-36.23-19.27-.48-34.77,17.48-35.09,36.23q-.08,41.55-.2,83.11Z"/>
    <path d="M497,481.67q.15-41.55.25-83.11c.63-19.33-16.3-35.73-35-36.17-19.27-.45-34.8,17.5-35.2,36.25q-.24,41.53-.64,83.06Q461.71,481.69,497,481.67Z"/>
  </g>
  <g class="trimLight">
    <path d="M585.76,322q0-67.33.14-134.68l-3.54-1.63q-.15,68.15-.14,136.3Z"/>
    <path d="M501.12,322q0-67.33-.15-134.68l3.54-1.63q.17,68.15.14,136.3Z"/>
    <path d="M663.33,322.08l7.71,0q0-47.6.18-95.2l-7.7-3.59Q663.3,272.69,663.33,322.08Z"/>
    <path d="M423.54,322.08l-7.71,0q0-47.6-.18-95.2l7.7-3.59Q423.58,272.69,423.54,322.08Z"/>
    <path d="M659.58,335l11.48,0q.16,73.33,1,146.66H660.45Q659.73,408.3,659.58,335Z"/>
    <path d="M415.81,335l11.48,0q-.14,73.34-.86,146.67H414.86Q415.66,408.32,415.81,335Z"/>
    <path d="M578.4,334.8h11.07q.06,73.41.35,146.82H578.66Q578.43,408.22,578.4,334.8Z"/>
    <path d="M497.34,334.84h11.07q0,73.43-.26,146.84H497Q497.29,408.26,497.34,334.84Z"/>
    <path d="M718.48,15.17l15,.14q-5.28,198-3.39,396.2l-14.77,0Q713.66,213.32,718.48,15.17Z"/>
    <path d="M754.3,426.15l-8.87,0q.42,34.35,1.06,68.69h8.91Q754.76,460.5,754.3,426.15Z"/>
    <path d="M700.39,426h-8.87q.32,34.39.77,68.78h8.92Q700.73,460.43,700.39,426Z"/>
    <path d="M395.35,426h-8.87q-.33,34.33-.82,68.67h8.92Q395,460.38,395.35,426Z"/>
    <path d="M341.44,426.13l-8.87,0q-.44,34.28-1.1,68.54h8.92Q341,460.41,341.44,426.13Z"/>
    <path d="M373.68,15.12l-3.24,0q4.8,198.12,3.09,396.32h3.18Q378.36,213.27,373.68,15.12Z"/>
    <path d="M351.26,15.33l-3.24,0q5.43,198,3.49,396.16h3.18Q356.57,213.41,351.26,15.33Z"/>
    <path d="M1083.19,417l-13.41-.09q1.18,39,3.07,78h13.49Q1084.41,456,1083.19,417Z"/>
    <path d="M927.62,416.17l-11.45-.06q.84,39.39,2.18,78.77h11.52Q928.49,455.54,927.62,416.17Z"/>
    <path d="M1004.36,416.56l-11.45-.06q1,39.21,2.62,78.4h11.52Q1005.4,455.75,1004.36,416.56Z"/>
    <path d="M850.88,415.84l-11.45,0q.66,39.54,1.73,79.05h11.52Q851.57,455.35,850.88,415.84Z"/>
    <path d="M17.06,417,3.66,417Q2.45,455.83.53,494.59H14Q15.89,455.79,17.06,417Z"/>
    <path d="M170.67,416.11l-11.45.06q-.85,39.24-2.23,78.47h11.52Q169.83,455.39,170.67,416.11Z"/>
    <path d="M93.93,416.5l-11.45.06q-1,39-2.68,78.06H91.32Q92.93,455.57,93.93,416.5Z"/>
    <path d="M247.41,415.8l-11.45,0q-.69,39.42-1.79,78.82h11.52Q246.76,455.24,247.41,415.8Z"/>
    <path d="M1030.53,333.57c4.68,1.94,9.4,6.72,9.89,12.08a16.64,16.64,0,0,1,10-11.87q1.74,2.14.08,4.05a12.37,12.37,0,0,0-6.47,10.75q.4,34.11,1.3,68.22l-7,0q-.9-34.12-1.29-68.25a13,13,0,0,0-6.53-10.81C1030.51,336.05,1030.52,335.23,1030.53,333.57Z"/>
    <path d="M56.32,333.57a16.51,16.51,0,0,0-9.9,12.08c-.44-5.35-5.45-9.9-10-11.87-1.17,1.43-1.19,2.78-.08,4.05a12.36,12.36,0,0,1,6.46,10.75q-.39,34.11-1.3,68.22l7,0q.88-34.12,1.28-68.25a13,13,0,0,1,6.54-10.81C56.33,336.05,56.32,335.23,56.32,333.57Z"/>
  </g>
  <g class="brickDarker">
    <path d="M658.28,211.54l13,6.05q.6-101.38,2.45-202.77Q667,20.39,660.26,26,658.79,118.75,658.28,211.54Z"/>
    <path d="M428.57,211.54l-13,6.05q-.6-101.38-2.44-202.77Q419.87,20.4,426.59,26,428,118.75,428.57,211.54Z"/>
    <path d="M906.34,315.25c.38-10.2,8.71-20.46,19.48-19.84,10.17.59,20,9.3,19.48,20.17q.06,23.42.31,46.84l-39-.26Q906.4,338.7,906.34,315.25Z"/>
    <path d="M966.66,315.78c.38-10.2,8.73-20.4,19.48-19.76,10.15.6,20,9.28,19.48,20.14q.07,23.35.35,46.72l-39-.31Q966.72,339.17,966.66,315.78Z"/>
    <path d="M846,314.8c.39-10.2,8.69-20.52,19.49-19.91,10.18.58,20,9.31,19.47,20.19q.06,23.48.27,46.94l-39-.22Q846.07,338.31,846,314.8Z"/>
    <path d="M785.71,314.43c.39-10.2,8.67-20.56,19.48-20,10.2.57,20,9.32,19.48,20.2q0,23.52.21,47l-39-.17Q785.74,338,785.71,314.43Z"/>
    <path d="M180.5,315.25c.59-10.87-9.33-19.45-19.48-19.84-10.8-.42-19.05,9.95-19.48,20.17q-.06,23.42-.3,46.84l39-.26Q180.44,338.7,180.5,315.25Z"/>
    <path d="M120.19,315.78c.59-10.86-9.36-19.39-19.48-19.76-10.79-.4-19.06,9.92-19.48,20.14q-.08,23.35-.36,46.72l39-.31Q120.13,339.17,120.19,315.78Z"/>
    <path d="M240.82,314.8c.58-10.87-9.32-19.5-19.48-19.91-10.82-.43-19.06,10-19.48,20.19q-.06,23.48-.26,46.94l39-.22Q240.77,338.31,240.82,314.8Z"/>
    <path d="M301.14,314.43c.57-10.87-9.3-19.54-19.49-20-10.83-.45-19.06,10-19.47,20.2q0,23.52-.22,47l39-.17Q301.1,338,301.14,314.43Z"/>
  </g>
  <g class="brickDarkest">
    <path d="M600.09,481.67q-.2-41.61-.31-83.22c-.32-13.61,11.43-25.72,24.85-25.71,13.66,0,24.94,12.13,25,25.76q.21,41.6.59,83.2Z"/>
    <path d="M518.37,481.66q.07-41.61.13-83.23c0-13.63,11.43-25.58,24.94-25.74s24.91,12.36,24.93,25.74q.06,41.61.14,83.23Z"/>
    <path d="M436.64,481.7q.38-41.61.58-83.2c.08-13.63,11.51-25.58,25-25.76s24.88,12.34,24.85,25.71q-.1,41.61-.31,83.22Q461.72,481.69,436.64,481.7Z"/>
    <path d="M513.63,241.33c0-16.36,13.41-30.8,29.81-30.8s29.81,14.44,29.8,30.8q0,40.3,0,80.61-29.78,0-59.55,0Q513.67,281.64,513.63,241.33Z"/>
    <path d="M594.78,272.22c0-16.35,13.45-30.77,29.84-30.73s29.75,14.52,29.72,30.86q0,24.86,0,49.71-29.77-.07-59.55-.1Q594.76,297.09,594.78,272.22Z"/>
    <path d="M432.53,272.35c0-16.34,13.34-30.82,29.72-30.86s29.83,14.38,29.84,30.73q0,24.87,0,49.74-29.78,0-59.55.1Q432.57,297.21,432.53,272.35Z"/>
  </g>
  <g class="shadow">
    <path d="M751.3,43.58a7.13,7.13,0,0,0-6.87-7.23,7.39,7.39,0,0,0-7.25,7.09q-.54,21.91-1,43.84l14.05.13Q750.71,65.5,751.3,43.58Z"/>
    <path d="M713.41,43.23A7.16,7.16,0,0,0,706.5,36a7.38,7.38,0,0,0-7.21,7.11q-.43,21.95-.81,43.88l14,.1Q712.94,65.16,713.41,43.23Z"/>
    <path d="M706.09,281.75a3.47,3.47,0,1,0-6.94,0q0,11,0,21.94l6.94,0Q706.07,292.72,706.09,281.75Z"/>
    <path d="M706.08,322.83a3.55,3.55,0,0,0-3.48-3.6,3.51,3.51,0,0,0-3.46,3.57q0,11,.05,21.94l6.94,0Q706.1,333.79,706.08,322.83Z"/>
    <path d="M891.75,450.42a7.94,7.94,0,0,0-7.62-7.64,7.46,7.46,0,0,0-7.27,7.59q.55,22.25,1.23,44.49H893Q892.33,472.64,891.75,450.42Z"/>
    <path d="M912.23,450.48a8,8,0,0,0-7.64-7.63,7.44,7.44,0,0,0-7.25,7.58q.57,22.23,1.29,44.44h14.94Q912.84,472.68,912.23,450.48Z"/>
    <path d="M871.28,450.36a7.94,7.94,0,0,0-7.62-7.65,7.48,7.48,0,0,0-7.27,7.61q.51,22.26,1.15,44.54h14.94Q871.81,472.61,871.28,450.36Z"/>
    <path d="M968.62,450.68a8,8,0,0,0-7.67-7.63,7.4,7.4,0,0,0-7.22,7.57q.67,22.14,1.5,44.27h14.94Q969.32,472.8,968.62,450.68Z"/>
    <path d="M989.09,450.76a8,8,0,0,0-7.67-7.62,7.39,7.39,0,0,0-7.22,7.56q.7,22.1,1.58,44.19h14.94Q989.82,472.84,989.09,450.76Z"/>
    <path d="M948.14,450.6a8,8,0,0,0-7.65-7.62,7.42,7.42,0,0,0-7.24,7.57q.64,22.17,1.43,44.33h14.94Q948.81,472.75,948.14,450.6Z"/>
    <path d="M1045.59,451a8,8,0,0,0-7.7-7.6,7.34,7.34,0,0,0-7.19,7.54q.79,22,1.78,44h14.94Q1046.42,473,1045.59,451Z"/>
    <path d="M1066.07,451.08a8,8,0,0,0-7.72-7.59,7.31,7.31,0,0,0-7.17,7.52q.83,22,1.85,43.91H1068Q1066.92,473,1066.07,451.08Z"/>
    <path d="M1025.12,450.9a8,8,0,0,0-7.7-7.61,7.35,7.35,0,0,0-7.19,7.55q.76,22,1.7,44.06h14.94Q1025.91,472.91,1025.12,450.9Z"/>
    <path d="M815,450.21a7.89,7.89,0,0,0-7.58-7.65,7.53,7.53,0,0,0-7.31,7.61q.43,22.33.95,44.67H816Q815.42,472.54,815,450.21Z"/>
    <path d="M835.45,450.26a7.91,7.91,0,0,0-7.6-7.65,7.51,7.51,0,0,0-7.29,7.61q.45,22.32,1,44.63h14.94Q835.92,472.56,835.45,450.26Z"/>
    <path d="M794.5,450.16a7.88,7.88,0,0,0-7.57-7.65,7.54,7.54,0,0,0-7.32,7.62q.39,22.35.87,44.7h14.94Q794.91,472.51,794.5,450.16Z"/>
    <path d="M740.84,450.06a7.85,7.85,0,0,0-7.54-7.66A7.58,7.58,0,0,0,726,450q.3,22.39.67,44.79h14.94Q741.17,472.44,740.84,450.06Z"/>
    <path d="M720.37,450a7.85,7.85,0,0,0-7.54-7.66,7.6,7.6,0,0,0-7.35,7.64q.27,22.41.6,44.81H721Q720.67,472.42,720.37,450Z"/>
    <path d="M334,41.54a5,5,0,0,1,4.9-5.16,5.16,5.16,0,0,1,5.16,5q.6,23.13,1.1,46.24l-10,.1Q334.66,64.64,334,41.54Z"/>
    <path d="M378.54,41.13A5,5,0,0,1,383.46,36a5.14,5.14,0,0,1,5.14,5.07q.47,23.13.85,46.27l-10,.08Q379,64.26,378.54,41.13Z"/>
    <path d="M356.28,41.32a5,5,0,0,1,4.91-5.15,5.16,5.16,0,0,1,5.16,5.06q.52,23.13,1,46.26l-10,.08Q356.85,64.44,356.28,41.32Z"/>
    <path d="M381.48,120.94a3.5,3.5,0,0,1,3.44-3.61,3.58,3.58,0,0,1,3.56,3.56q.15,11,.29,21.94l-7,0Z"/>
    <path d="M382.29,188.26a3.48,3.48,0,1,1,7,0q.11,11,.18,21.94l-6.95,0Q382.39,199.22,382.29,188.26Z"/>
    <path d="M339,282a3.54,3.54,0,0,1,3.46-3.6,3.51,3.51,0,0,1,3.48,3.56q0,11,0,21.92l-6.94,0Q339.05,292.91,339,282Z"/>
    <path d="M339,323a3.56,3.56,0,0,1,3.48-3.6A3.49,3.49,0,0,1,346,323q0,11-.06,21.92l-6.94,0Q339,333.95,339,323Z"/>
    <path d="M210,450.37a7.45,7.45,0,0,0-7.26-7.59,7.94,7.94,0,0,0-7.63,7.64q-.56,22.11-1.26,44.23h14.93Q209.44,472.52,210,450.37Z"/>
    <path d="M189.51,450.43a7.45,7.45,0,0,0-7.26-7.58,7.94,7.94,0,0,0-7.63,7.63q-.6,22.08-1.34,44.16h14.94Q188.93,472.54,189.51,450.43Z"/>
    <path d="M230.46,450.32a7.49,7.49,0,0,0-7.28-7.61,7.93,7.93,0,0,0-7.61,7.65q-.54,22.14-1.2,44.3h14.94Q229.94,472.49,230.46,450.32Z"/>
    <path d="M133.12,450.62a7.41,7.41,0,0,0-7.23-7.57,8,8,0,0,0-7.66,7.63q-.69,22-1.55,43.95h14.94Q132.45,472.63,133.12,450.62Z"/>
    <path d="M112.64,450.7a7.38,7.38,0,0,0-7.21-7.56,8,8,0,0,0-7.68,7.62q-.72,21.93-1.61,43.86h14.93Q111.94,472.66,112.64,450.7Z"/>
    <path d="M153.59,450.55a7.41,7.41,0,0,0-7.23-7.57,8,8,0,0,0-7.66,7.62q-.66,22-1.47,44h14.94Q153,472.59,153.59,450.55Z"/>
    <path d="M56.14,450.93A7.33,7.33,0,0,0,49,443.39a8,8,0,0,0-7.71,7.6q-.81,21.81-1.81,43.61H54.37Q55.35,472.77,56.14,450.93Z"/>
    <path d="M35.67,451a7.32,7.32,0,0,0-7.18-7.52,8,8,0,0,0-7.72,7.59q-.84,21.76-1.88,43.52H33.83Q34.84,472.8,35.67,451Z"/>
    <path d="M76.62,450.84a7.36,7.36,0,0,0-7.2-7.55,8,8,0,0,0-7.69,7.61Q61,472.76,60,494.61H74.92Q75.86,472.73,76.62,450.84Z"/>
    <path d="M286.76,450.17a7.52,7.52,0,0,0-7.31-7.61,7.89,7.89,0,0,0-7.58,7.65q-.44,22.23-1,44.46h14.94Q286.35,472.44,286.76,450.17Z"/>
    <path d="M266.29,450.22a7.52,7.52,0,0,0-7.3-7.61,7.9,7.9,0,0,0-7.59,7.65q-.48,22.2-1.07,44.41h14.94Q265.83,472.46,266.29,450.22Z"/>
    <path d="M307.23,450.13a7.53,7.53,0,0,0-7.31-7.62,7.89,7.89,0,0,0-7.58,7.65q-.4,22.26-.91,44.52h14.94Q306.85,472.4,307.23,450.13Z"/>
    <path d="M360.89,450a7.57,7.57,0,0,0-7.34-7.63,7.85,7.85,0,0,0-7.55,7.66q-.31,22.32-.72,44.64h14.94Q360.6,472.37,360.89,450Z"/>
    <path d="M381.37,450a7.6,7.6,0,0,0-7.36-7.64,7.84,7.84,0,0,0-7.53,7.66q-.3,22.35-.65,44.68h14.94Q381.1,472.36,381.37,450Z"/>
    <path d="M629,382.75a4.42,4.42,0,0,0-4.34-4.47,4.36,4.36,0,0,0-4.31,4.46q0,11.7.08,23.41h8.66Q629,394.46,629,382.75Z"/>
    <path d="M640.9,385.59a4.43,4.43,0,0,0-4.35-4.47,4.38,4.38,0,0,0-4.31,4.46q.06,10.29.11,20.58H641Q641,395.88,640.9,385.59Z"/>
    <path d="M617.1,385.56a4.33,4.33,0,1,0-8.65,0l.06,20.59h8.66Q617.13,395.86,617.1,385.56Z"/>
    <path d="M466.52,382.74a4.36,4.36,0,0,0-4.31-4.46,4.42,4.42,0,0,0-4.34,4.47l-.09,23.41h8.66Q466.49,394.45,466.52,382.74Z"/>
    <path d="M478.41,385.55a4.33,4.33,0,1,0-8.65,0q0,10.29-.05,20.59h8.66Q478.4,395.85,478.41,385.55Z"/>
    <path d="M454.61,385.58a4.37,4.37,0,0,0-4.31-4.46,4.43,4.43,0,0,0-4.34,4.47q0,10.29-.09,20.58h8.66Q454.58,395.87,454.61,385.58Z"/>
    <path d="M547.6,382.69a4.33,4.33,0,1,0-8.65,0q0,11.71,0,23.42h8.66Z"/>
    <path d="M559.5,385.52a4.33,4.33,0,1,0-8.66,0q0,10.29,0,20.59h8.65Z"/>
    <path d="M535.7,385.52a4.33,4.33,0,1,0-8.65,0q0,10.31,0,20.59h8.65Q535.71,395.82,535.7,385.52Z"/>
  </g>
  <g class="wallInner">
    <path d="M603.47,481.67q-.18-34.68-.29-69.36l21.58-7.59,21.64,7.63q.2,34.68.5,69.34"/>
    <path d="M440,481.69q.3-34.67.49-69.34l21.65-7.63,21.57,7.59q-.1,34.68-.28,69.36"/>
    <path d="M521.58,481.66q.06-34.68.1-69.37l21.61-7.61,21.61,7.61q0,34.69.11,69.37"/>
  </g>
  <g class="frameDarkFront">
    <path d="M605.42,437.87c.36-10.19,8.58-20.57,19.37-20,10.19.5,20.06,9.19,19.57,20.06q.15,21.9.34,43.79l-39.07,0Q605.51,459.77,605.42,437.87Z"/>
    <path d="M442.49,437.9c.47-10.21,8.76-20.57,19.57-20.06,10.16.48,20,9.18,19.37,20q-.09,21.9-.21,43.8l-39.06,0Q442.34,459.79,442.49,437.9Z"/>
    <path d="M523.8,437.85c.42-10.2,8.67-20.57,19.47-20.05,10.18.49,20,9.19,19.47,20.05l.06,43.81H523.74Z"/>
  </g>
  <g class="doorDarkFront">
    <path d="M642.05,481.69l-33.77,0q-.12-22.44-.22-44.9,16.83,0,33.65,0Q641.86,459.24,642.05,481.69Z"/>
    <path d="M478.57,481.67l-33.76,0q.18-22.44.33-44.89l33.65,0Q478.7,459.23,478.57,481.67Z"/>
    <path d="M560.15,481.66H526.39q0-22.46.05-44.91H560.1Q560.12,459.21,560.15,481.66Z"/>
  </g>
  <g class="doorBorderLine">
    <path d="M624.89,436.78q.12,22.43.27,44.84"/>
    <path d="M462,436.78q-.12,22.43-.28,44.84"/>
    <path d="M543.27,436.75V481.6"/>
  </g>
  <g class="glassDark">
    <path d="M936.84,315.53c-.11-5.67-5.13-11.6-11-11.4-5.54.18-11.44,5.22-11,11.21q.06,23.45.29,46.87l22,.15Q936.9,338.95,936.84,315.53Z"/>
    <path d="M997.15,316.1c-.11-5.67-5.14-11.58-11-11.39-5.53.18-11.44,5.19-11,11.17q.07,23.39.33,46.76l22,.17Q997.23,339.46,997.15,316.1Z"/>
    <path d="M876.52,315c-.1-5.67-5.12-11.62-11-11.41-5.56.19-11.44,5.26-11,11.25q0,23.49.23,47l22,.12Q876.58,338.51,876.52,315Z"/>
    <path d="M816.2,314.64c-.1-5.68-5.11-11.64-11-11.42-5.56.2-11.43,5.29-11,11.29q0,23.52.19,47l22,.1Q816.24,338.15,816.2,314.64Z"/>
    <path d="M988.8,416.47l11.44.07q-.33-13.56-.6-27.11l-11.42-.08Q988.47,402.91,988.8,416.47Z"/>
    <path d="M974.7,416.4l11.44.06q-.33-13.56-.58-27.12l-11.43-.08Q974.39,402.84,974.7,416.4Z"/>
    <path d="M928.3,416.17l11.44.05q-.29-13.58-.52-27.17L927.8,389Q928,402.57,928.3,416.17Z"/>
    <path d="M914.2,416.11l11.44.05q-.28-13.61-.5-27.19l-11.43-.07Q913.94,402.51,914.2,416.11Z"/>
    <path d="M867.8,415.91l11.44,0q-.24-13.62-.44-27.24l-11.42-.06Q867.56,402.29,867.8,415.91Z"/>
    <path d="M853.7,415.86l11.44,0q-.24-13.62-.42-27.25l-11.43,0Q853.48,402.22,853.7,415.86Z"/>
    <path d="M807.3,415.69l11.44,0q-.19-13.64-.36-27.28L807,388.4Q807.11,402.05,807.3,415.69Z"/>
    <path d="M793.2,415.65l11.44,0q-.2-13.64-.34-27.29l-11.42,0Q793,402,793.2,415.65Z"/>
    <path d="M150,315.53c-.4-6,5.46-11.11,11-11.4,5.88-.32,10.93,5.56,11,11.21q-.06,23.45-.28,46.87l-22,.15Q150,338.95,150,315.53Z"/>
    <path d="M89.69,316.1c-.39-6,5.48-11.09,11-11.39,5.86-.32,10.93,5.52,11,11.17q-.06,23.39-.33,46.76l-22,.17Q89.63,339.46,89.69,316.1Z"/>
    <path d="M210.32,315c-.39-6,5.46-11.12,11-11.41,5.88-.31,10.93,5.6,11,11.25q-.06,23.49-.24,47l-22.05.12Q210.27,338.51,210.32,315Z"/>
    <path d="M270.64,314.64c-.4-6,5.44-11.14,11-11.42,5.9-.3,10.93,5.63,11,11.29q0,23.52-.19,47l-22.05.1Q270.6,338.15,270.64,314.64Z"/>
    <path d="M98.05,416.47l-11.44.07q.31-13.56.59-27.11l11.43-.08Q98.36,402.91,98.05,416.47Z"/>
    <path d="M112.15,416.4l-11.44.06q.32-13.56.58-27.12l11.42-.08Q112.46,402.84,112.15,416.4Z"/>
    <path d="M158.55,416.17l-11.44.05q.28-13.58.51-27.17l11.43-.07Q158.82,402.57,158.55,416.17Z"/>
    <path d="M172.65,416.11l-11.44.05q.27-13.61.5-27.19l11.42-.07Q172.92,402.51,172.65,416.11Z"/>
    <path d="M219,415.91l-11.44,0q.26-13.62.44-27.24l11.43-.06Q219.28,402.29,219,415.91Z"/>
    <path d="M233.15,415.86l-11.44,0q.22-13.62.42-27.25l11.42,0Q233.37,402.22,233.15,415.86Z"/>
    <path d="M279.54,415.69l-11.44,0q.19-13.64.36-27.28l11.43-.05Q279.72,402.05,279.54,415.69Z"/>
    <path d="M293.64,415.65l-11.44,0q.19-13.64.34-27.29l11.43,0Q293.82,402,293.64,415.65Z"/>
    <path d="M605.07,274.83c.41-10.22,8.68-20.65,19.52-20.1,10.22.52,20,9.3,19.45,20.19q0,23.59,0,47.19l-39-.06Q605.06,298.44,605.07,274.83Z"/>
    <path d="M523.88,274.79c.4-10.24,8.67-20.68,19.52-20.15,10.23.49,20.09,9.24,19.52,20.15V322h-39Q523.9,298.4,523.88,274.79Z"/>
    <path d="M442.83,274.92c.39-10.23,8.61-20.69,19.45-20.19,10.22.47,20.07,9.21,19.52,20.1q0,23.61,0,47.22-19.49,0-39,.06Q442.87,298.52,442.83,274.92Z"/>
  </g>
  <g class="windowDisplayLine">
    <path d="M926.11,362.28q-.29-29.07-.3-58.15"/>
    <path d="M936.93,338.48l-22-.17"/>
    <path d="M936.84,315.53l-22-.19"/>
    <path d="M986.48,362.72q-.35-29-.35-58"/>
    <path d="M997.26,339l-22-.2"/>
    <path d="M997.15,316.1l-22-.22"/>
    <path d="M865.75,361.91q-.24-29.15-.25-58.28"/>
    <path d="M876.6,338l-22-.14"/>
    <path d="M876.52,315l-22-.16"/>
    <path d="M805.39,361.6q-.2-29.19-.21-58.38"/>
    <path d="M816.27,337.67l-22-.11"/>
    <path d="M816.2,314.64l-22-.13"/>
    <path d="M979.85,389.3q.25,13.56.57,27.13"/>
    <path d="M974.39,402.83l11.44.07"/>
    <path d="M993.93,389.39q.27,13.56.59,27.12"/>
    <path d="M988.49,402.91l11.43.07"/>
    <path d="M919.43,388.93q.21,13.6.49,27.2"/>
    <path d="M913.94,402.5l11.43.06"/>
    <path d="M933.51,389q.22,13.61.51,27.19"/>
    <path d="M928,402.58l11.43.06"/>
    <path d="M859,388.62q.18,13.63.41,27.26"/>
    <path d="M853.48,402.23l11.43,0"/>
    <path d="M873.09,388.69q.2,13.62.43,27.24"/>
    <path d="M867.57,402.29l11.43,0"/>
    <path d="M798.59,388.37q.15,13.65.33,27.3"/>
    <path d="M793,402l11.43,0"/>
    <path d="M812.67,388.42q.17,13.65.35,27.29"/>
    <path d="M807.12,402.05l11.43,0"/>
    <path d="M160.73,362.28q.28-29.07.3-58.15"/>
    <path d="M149.91,338.48l22-.17"/>
    <path d="M150,315.53l22-.19"/>
    <path d="M100.37,362.72q.33-29,.35-58"/>
    <path d="M89.58,339l22-.2"/>
    <path d="M89.69,316.1l22-.22"/>
    <path d="M221.09,361.91q.24-29.15.26-58.28"/>
    <path d="M210.24,338l22-.14"/>
    <path d="M210.32,315l22-.16"/>
    <path d="M281.46,361.6q.19-29.19.2-58.38"/>
    <path d="M270.57,337.67l22-.11"/>
    <path d="M270.64,314.64l22-.13"/>
    <path d="M107,389.3q-.25,13.56-.57,27.13"/>
    <path d="M112.45,402.83,101,402.9"/>
    <path d="M92.91,389.39q-.25,13.56-.58,27.12"/>
    <path d="M98.36,402.91,86.93,403"/>
    <path d="M167.42,388.93q-.22,13.6-.49,27.2"/>
    <path d="M172.91,402.5l-11.44.06"/>
    <path d="M153.34,389q-.24,13.61-.51,27.19"/>
    <path d="M158.81,402.58l-11.43.06"/>
    <path d="M227.84,388.62q-.19,13.63-.41,27.26"/>
    <path d="M233.36,402.23l-11.43,0"/>
    <path d="M213.75,388.69q-.18,13.62-.43,27.24"/>
    <path d="M219.27,402.29l-11.43,0"/>
    <path d="M288.26,388.37q-.15,13.65-.34,27.3"/>
    <path d="M293.82,402l-11.43,0"/>
    <path d="M274.17,388.42q-.15,13.65-.35,27.29"/>
    <path d="M279.73,402.05l-11.44,0"/>
    <path d="M624.55,322q0-33.63,0-67.27"/>
    <path d="M644,298.06l-39-.08"/>
    <path d="M644,274.94l-39-.08"/>
    <path d="M634,322.09q.15-32.38.39-64.79"/>
    <path d="M614.72,322q0-32.26,0-64.52"/>
    <path d="M543.44,321.93V254.64"/>
    <path d="M562.92,297.94H524"/>
    <path d="M562.92,274.82H524"/>
    <path d="M552.92,322q.18-32.42.35-64.82"/>
    <path d="M533.61,321.93q0-32.28,0-64.54"/>
    <path d="M462.33,322q0-33.63-.05-67.27"/>
    <path d="M481.81,298l-39,.08"/>
    <path d="M481.8,274.86l-39,.08"/>
    <path d="M471.81,322.06q.19-32.4.31-64.8"/>
    <path d="M452.5,322q0-32.26-.05-64.52"/>
  </g>
  <path class="stepFront" d="M672,481.64q-128.57-.09-257.15,0l-.15,13.08,257.45.08Z"/>
  <g class="stepSide">
    <path d="M675.18,477.67H660.41q.08,8.56.17,17.14h14.8Q675.27,486.23,675.18,477.67Z"/>
    <path d="M426.17,477.66H411.4q-.09,8.54-.2,17.05H426Q426.09,486.2,426.17,477.66Z"/>
  </g>
  <g class="stepOverlapLine">
    <path d="M660.49,486.29q-117.19-.07-234.4,0"/>
    <path d="M660.54,490.6q-117.25-.08-234.5,0"/>
  </g>
  <g class="trimOrnamentInner">
    <path d="M839.68,430.36l11.46,0q.55-7.26,1.12-14.54l-14.21-.05Q838.86,423.07,839.68,430.36Z"/>
    <path d="M916.48,430.63l11.47.05q.51-7.26,1-14.51l-14.21-.06Q915.63,423.37,916.48,430.63Z"/>
    <path d="M993.29,431l11.46.06,1-14.46-14.21-.08Q992.42,423.74,993.29,431Z"/>
    <path d="M1070.23,431.37l13.42.08q-.24-7.2-.46-14.41l-14.78-.1Q1069.31,424.16,1070.23,431.37Z"/>
    <path d="M247.16,430.36l-11.46,0q-.55-7.26-1.12-14.54l14.21-.05Q248,423.07,247.16,430.36Z"/>
    <path d="M170.36,430.63l-11.46.05q-.53-7.26-1.06-14.51l14.21-.06Q171.21,423.37,170.36,430.63Z"/>
    <path d="M93.55,431,82.09,431q-.48-7.23-1-14.46l14.21-.08Q94.44,423.74,93.55,431Z"/>
    <path d="M16.61,431.37l-13.41.08q.24-7.2.46-14.41l14.78-.1Q17.54,424.16,16.61,431.37Z"/>
    <path d="M508.35,398.56h11.87q-.87,6.65-1.73,13.29H508.32Z"/>
    <path d="M566.65,398.55h11.88q0,6.63,0,13.28H568.39Z"/>
    <path d="M589.62,398.56H601.5l-1.68,13.29H589.65Z"/>
    <path d="M647.93,398.62l11.88,0q0,6.64.07,13.28H649.72Q648.82,405.27,647.93,398.62Z"/>
    <path d="M427.07,398.64l11.87,0q-.88,6.64-1.79,13.29H427Q427,405.28,427.07,398.64Z"/>
    <path d="M485.37,398.57h11.88l0,13.29H487.06Q486.22,405.22,485.37,398.57Z"/>
    <path d="M578.46,334.83h11.07q.35-6.45.68-12.89H577.77Z"/>
    <path d="M659.44,335l11.62,0q0-6.44,0-12.88l-12.3,0Q659.09,328.52,659.44,335Z"/>
    <path d="M497.34,334.84h11.07q.36-6.43.7-12.89H496.66Q497,328.4,497.34,334.84Z"/>
    <path d="M415.78,335l11.65,0q.36-6.45.71-12.89l-12.34,0Q415.8,328.55,415.78,335Z"/>
  </g>
  <g class="trimOrnamentOuter">
    <path d="M497.22,411.85h11.1q.36-6.64.71-13.29H496.56Z"/>
    <path d="M578.49,411.84h11.1l.66-13.29H577.78Q578.13,405.2,578.49,411.84Z"/>
  </g>
  <g class="brickOrnament">
    <path d="M596.5,272.22l-10.73,0c0,3.74,0,7.47,0,11.21h9Q595.64,277.85,596.5,272.22Z"/>
    <path d="M663.36,272.38l-10.73,0q.84,5.61,1.7,11.21l9,0C663.34,279.89,663.35,276.13,663.36,272.38Z"/>
    <path d="M515.35,241.41l-10.74.07c0,3.73,0,7.47,0,11.21h9Z"/>
    <path d="M582.26,241.42l-10.74.05,1.71,11.21h9C582.25,248.93,582.26,245.17,582.26,241.42Z"/>
    <path d="M434.25,272.35l-10.73.09c0,3.73,0,7.47,0,11.2l9,0Q433.41,278,434.25,272.35Z"/>
    <path d="M501.11,272.21l-10.73.07q.86,5.61,1.72,11.21h9Z"/>
  </g>
  <g class="stainedGlass">
    <path d="M534.2,228.37c0,4.32,4.09,9.8,9.07,9.38,4.54-.39,9.08-4.53,9.08-9.38s-4.54-9-9.08-9.37C538.29,218.58,534.19,224.05,534.2,228.37Z"/>
    <path d="M550.89,241.4a7.46,7.46,0,1,0,7.46-7.71A7.74,7.74,0,0,0,550.89,241.4Z"/>
    <path d="M521.07,241.4a7.46,7.46,0,1,0,7.45-7.71A7.74,7.74,0,0,0,521.07,241.4Z"/>
  </g>
</svg>
