<svg viewBox="0 0 3139.21 1415.93">
  <g class="roofDark">
    <path d="M1907.13,73.49q19.44-16,38.89-32-3.94-19.8-7.9-39.6Q1914.47,23.44,1890.85,45,1899,59.25,1907.13,73.49Z"/>
    <path d="M1232,73.49q-19.44-16-38.89-32,3.94-19.8,7.9-39.6Q1224.7,23.44,1248.31,45,1240.17,59.25,1232,73.49Z"/>
    <path d="M1238.44,920.68q331-.79,662.09,0-.13-190.42,1.08-380.84-332.13-1.29-664.26,0Q1238.58,730.26,1238.44,920.68Z"/>
    <path d="M2939.94,775.1q-.15,18.23-.26,36.46-352.72-4.21-705.45-6.29.06-18.4.13-36.79Q2587.16,770.67,2939.94,775.1Z"/>
    <path d="M199.22,775.1q.15,18.23.26,36.46,352.73-4.21,705.45-6.29-.06-18.4-.13-36.79Q552,770.67,199.22,775.1Z"/>
    <path d="M2976.52,871.86q39.33,16.7,78.67,33.39-39.32-.45-78.64-.87Q2976.52,888.12,2976.52,871.86Z"/>
    <path d="M162.64,871.86Q123.31,888.56,84,905.25q39.32-.45,78.64-.87Q162.64,888.12,162.64,871.86Z"/>
  </g>
  <g class="roofLight">
    <path d="M1946,41.53q-3.94-19.8-7.9-39.6,164.67,1.13,329.34,3.18-9.71,19.61-19.35,39.24Q2097.07,42.57,1946,41.53Z"/>
    <path d="M1193.14,41.53q3.94-19.8,7.9-39.6Q1036.37,3.06,871.7,5.11q9.7,19.61,19.35,39.24Q1042.09,42.57,1193.14,41.53Z"/>
    <path d="M2958,733.46q14.23,30.24,28.53,60.46l-55.61-.7Q2944.4,763.31,2958,733.46Z"/>
    <path d="M181.18,733.46q-14.24,30.24-28.53,60.46l55.61-.7Q194.76,763.33,181.18,733.46Z"/>
  </g>
  <g class="brickDark">
    <path d="M2976.55,904.38l57.7.63q.52,143.28,4.42,286.5l-57.88-.35Q2977.07,1047.79,2976.55,904.38Z"/>
    <path d="M162.61,904.38l-57.7.63q-.52,143.28-4.42,286.5l57.88-.35Q162.09,1047.79,162.61,904.38Z"/>
    <path d="M2234.23,805.27q352.74,2.07,705.45,6.29-.84,189.75,4,379.43-353.74-2-707.51-3Q2233.82,996.64,2234.23,805.27Z"/>
    <path d="M905.18,805.26q-352.74,2.09-705.45,6.3.72,189.75-4.22,379.43,353.75-2,707.51-3Q905.46,996.64,905.18,805.26Z"/>
    <path d="M3129.06,1192.13q-446.46-2.91-892.92-4.14,1.49,113.34,3.89,226.67l898.13.27Q3132.56,1303.57,3129.06,1192.13Z"/>
    <path d="M903,1188q-446.46,1.23-892.92,4.14-3.49,111-9,221.84l898.09.27Q901.53,1301.13,903,1188Z"/>
    <path d="M2189.42,43.68q-92.36-1-184.7-1.72-14.64,686.21-5.19,1372.62l182.5.06Q2168.8,729.19,2189.42,43.68Z"/>
    <path d="M1134.44,42q-92.36.72-184.7,1.72,20.84,685.08,7.39,1370.58l182.5.06Q1148.92,728.15,1134.44,42Z"/>
    <path d="M1569.62,478.84q184.83,84.2,369.21,169.38-.64,136.15-.54,272.33-368.71-1-737.42,0,.15-136.17-.45-272.33Q1384.84,563.13,1569.62,478.84Z"/>
  </g>
  <g class="brickLight">
    <path d="M1457.45,689.69c1.14-59.59,50.1-116.4,112.17-114.81,60.15,1.54,114,53.21,112.17,114.81q-.12,115.2-.1,230.41-112.07-.09-224.13,0Q1457.59,804.89,1457.45,689.69Z"/>
    <path d="M1691.92,778c1.25-59.55,50.3-116.27,112.33-114.52,60.11,1.68,113.71,53.49,111.84,115q-.12,71-.06,142-112.07-.29-224.13-.39Q1691.87,849.06,1691.92,778Z"/>
    <path d="M1223.15,778.48C1224.24,719,1273,662,1335,663.48c60.13,1.39,114,53,112.34,114.52q0,71.06,0,142.1-112.06.1-224.13.39Q1223.28,849.48,1223.15,778.48Z"/>
    <path d="M2004.72,42l-58.7-.43q-12.66,686.45-4.49,1373l58,0Q1990.25,728.29,2004.72,42Z"/>
    <path d="M2248.11,44.35l-58.69-.67q-20.85,685.28-7.39,1371l58,0Q2225.56,729.53,2248.11,44.35Z"/>
    <path d="M949.22,43.68l-58.69.68q22.82,684.69,8.09,1369.88l58,0Q969.85,729,949.22,43.68Z"/>
    <path d="M1192.62,41.54q-29.36.2-58.7.42,14.64,686.07,5.2,1372.36l58,0Q1205.15,727.94,1192.62,41.54Z"/>
    <path d="M2939.79,793.33l37,.46q-1.22,198.74,4,397.42l-37.15-.22Q2938.63,992.2,2939.79,793.33Z"/>
    <path d="M199.37,793.33l-37,.46q1.21,198.74-4,397.42l37.15-.22Q200.54,992.2,199.37,793.33Z"/>
  </g>
  <path class="wallFront" d="M1938.35,957.4q-368.73-.93-737.45,0-.51,228.48-3.18,456.94l743.81.22Q1938.86,1186,1938.35,957.4Z"/>
  <g class="trimDark">
    <path d="M1997.29,1217.84q90.78.15,181.55.36-.26-20.87-.49-41.72-90.7-.24-181.41-.41Q1997.12,1197,1997.29,1217.84Z"/>
    <path d="M2940.58,1037.47q.26,18.24.55,36.47-353.1-2.68-706.21-4-.14-18.4-.26-36.79Q2587.63,1034.56,2940.58,1037.47Z"/>
    <path d="M198.58,1037.47q-.26,18.24-.55,36.47,353.1-2.68,706.21-4,.13-18.39.26-36.79Q551.54,1034.56,198.58,1037.47Z"/>
    <path d="M2236.7,1229.7q446.85,1.08,893.69,3.65-.69-20.61-1.33-41.22-446.46-2.91-892.92-4.14Q2236.41,1208.84,2236.7,1229.7Z"/>
    <path d="M902.46,1229.7q-446.85,1.08-893.69,3.65.69-20.61,1.33-41.22Q456.56,1189.22,903,1188,902.75,1208.84,902.46,1229.7Z"/>
    <path d="M1141.87,1217.84q-90.78.15-181.55.36.25-20.87.49-41.72,90.7-.24,181.41-.41Q1142,1197,1141.87,1217.84Z"/>
    <path d="M2189.42,43.68q-.51,16.07-1,32.14-92.21-1-184.4-1.69.33-16.08.68-32.17Q2097.07,42.68,2189.42,43.68Z"/>
    <path d="M2183.38,269.9c-.13,6-.2,9-.33,15.06q-91.4-.84-182.8-1.43c.09-6,.14-9,.23-15.08Q2091.93,269.07,2183.38,269.9Z"/>
    <path d="M2179.78,461.49c-.09,6-.14,9-.23,15.06q-90.87-.71-181.76-1.2c.06-6,.1-9.05.16-15.08Q2088.86,460.78,2179.78,461.49Z"/>
    <path d="M2177.05,725.87c0,6-.05,9-.08,15.06q-90.49-.52-181-.89l0-15.08Q2086.54,725.34,2177.05,725.87Z"/>
    <path d="M1996.09,1032.37q90.51.23,181,.56-.1-18.44-.19-36.88-90.49-.36-181-.61Q1996,1013.91,1996.09,1032.37Z"/>
    <path d="M949.74,43.68q.51,16.07,1,32.14,92.21-1,184.41-1.69L1134.44,42Q1042.08,42.68,949.74,43.68Z"/>
    <path d="M955.78,269.9c.13,6,.2,9,.33,15.06q91.39-.82,182.8-1.43c-.09-6-.14-9-.23-15.08Q1047.22,269.07,955.78,269.9Z"/>
    <path d="M959.38,461.49c.09,6,.14,9,.23,15.06q90.87-.71,181.76-1.2c-.06-6-.1-9.05-.16-15.08Q1050.29,460.78,959.38,461.49Z"/>
    <path d="M962.11,725.87c0,6,0,9,.08,15.06q90.49-.52,181-.89l0-15.08Q1052.62,725.35,962.11,725.87Z"/>
    <path d="M1143.07,1032.37q-90.51.23-181,.56.11-18.44.19-36.88,90.49-.36,181-.61Q1143.15,1013.91,1143.07,1032.37Z"/>
    <path d="M1938.83,648.22q-184.42-85.1-369.21-169.38-184.81,84.2-369.2,169.38c-.05-10.65-.08-16-.14-26.63q184.48-85.11,369.34-169.39Q1754.54,536.38,1939,621.59C1938.91,632.24,1938.88,637.57,1938.83,648.22Z"/>
    <path d="M1938.29,920.55l.06,36.85q-368.73-.93-737.45,0,0-18.42,0-36.85Q1569.62,919.56,1938.29,920.55Z"/>
    <path d="M1907.69,1377.1q-1.18-118.8-1.86-237.61c1.4-55.35-47.66-102.29-101.69-103.69-55.62-1.45-100.33,49.88-101.07,103.47q.27,118.86.73,237.73Q1805.74,1377,1907.69,1377.1Z"/>
    <path d="M1671.57,1377q-.36-118.87-.56-237.75c1.61-55.34-47.37-102.29-101.39-103.62-55.65-1.36-100.43,50-101.38,103.62q-.2,118.88-.56,237.75Q1569.62,1377,1671.57,1377Z"/>
    <path d="M1435.45,1377q.46-118.86.73-237.73C1438,1084,1389.09,1037,1335.11,1035.8c-55.67-1.29-100.55,50.06-101.7,103.69q-.67,118.82-1.85,237.61Q1333.5,1377,1435.45,1377Z"/>
  </g>
  <g class="trimLight">
    <path d="M1691.9,920.1q-.06-192.61.41-385.24l-10.23-4.68q-.43,195-.39,389.92Z"/>
    <path d="M1447.35,920.1q0-192.61-.41-385.24l10.23-4.68q.43,195,.39,389.92Z"/>
    <path d="M1916,920.49l22.26.06q-.11-136.17.54-272.33L1916.58,638Q1915.92,779.22,1916,920.49Z"/>
    <path d="M1223.22,920.49l-22.27.06q.12-136.17-.53-272.33L1222.67,638Q1223.33,779.22,1223.22,920.49Z"/>
    <path d="M1905.18,957.32l33.17.08q.47,209.77,2.75,419.53l-33.41,0Q1905.61,1167.13,1905.18,957.32Z"/>
    <path d="M1200.9,957.4l33.16-.08q-.42,209.8-2.5,419.58l-33.41,0Q1200.43,1167.17,1200.9,957.4Z"/>
    <path d="M1670.63,956.87l32,0q.16,210,1,420h-32.24Q1670.77,1166.89,1670.63,956.87Z"/>
    <path d="M1436.44,957l32,0q-.14,210-.76,420h-32.23Q1436.28,1167,1436.44,957Z"/>
    <path d="M2075.35,42.54l43.44.41q-15.26,566.54-9.81,1133.36l-42.67-.1Q2061.39,609.34,2075.35,42.54Z"/>
    <path d="M2178.84,1218.2l-25.63-.06q1.24,98.25,3.06,196.49H2182Q2180.14,1316.42,2178.84,1218.2Z"/>
    <path d="M2023.09,1217.89l-25.63-.05q.9,98.37,2.24,196.74h25.76Q2024.05,1316.24,2023.09,1217.89Z"/>
    <path d="M1141.78,1217.84l-25.62.05q-1,98.2-2.37,196.42h25.76Q1140.87,1316.09,1141.78,1217.84Z"/>
    <path d="M986,1218.14l-25.63.06q-1.29,98-3.18,196.06H983Q984.8,1316.22,986,1218.14Z"/>
    <path d="M1079.16,42.4l-9.37.09q13.89,566.75,8.93,1133.71l9.21,0Q1092.69,609.26,1079.16,42.4Z"/>
    <path d="M1014.39,43l-9.37.1q15.69,566.47,10.09,1133.24l9.2,0Q1029.71,609.62,1014.39,43Z"/>
    <path d="M3129.06,1192.13l-38.73-.25q3.42,111.55,8.87,223h39Q3132.56,1303.57,3129.06,1192.13Z"/>
    <path d="M2679.61,1189.63l-33.09-.15q2.42,112.66,6.29,225.3h33.28Q2682.1,1302.23,2679.61,1189.63Z"/>
    <path d="M2901.33,1190.76l-33.09-.18q2.91,112.15,7.58,224.27h33.28Q2904.31,1302.84,2901.33,1190.76Z"/>
    <path d="M2457.89,1188.71l-33.09-.12q1.92,113.07,5,226.12h33.28Q2459.88,1301.73,2457.89,1188.71Z"/>
    <path d="M48.83,1191.88l-38.73.25q-3.49,111-9,221.84H40Q45.43,1303,48.83,1191.88Z"/>
    <path d="M492.64,1189.48l-33.09.15q-2.48,112.26-6.46,224.48h33.29Q490.24,1301.82,492.64,1189.48Z"/>
    <path d="M270.92,1190.58l-33.09.18q-3,111.66-7.73,223.28h33.27Q268,1302.34,270.92,1190.58Z"/>
    <path d="M714.36,1188.59l-33.09.12q-2,112.74-5.18,225.47h33.29Q712.44,1301.39,714.36,1188.59Z"/>
    <path d="M2976.92,953.37c13.54,5.54,27.16,19.2,28.58,34.53,2.69-14.94,14.86-28.37,28.92-33.95q5,6.13.23,11.6A35.32,35.32,0,0,0,3016,996.29q1.15,97.59,3.77,195.15l-20.28-.12q-2.58-97.59-3.71-195.22a37,37,0,0,0-18.88-30.92C2976.88,960.45,2976.89,958.09,2976.92,953.37Z"/>
    <path d="M162.24,953.37c-14.38,5.35-25.87,19.64-28.58,34.53-1.28-15.3-15.77-28.3-28.92-33.95q-5,6.13-.23,11.6a35.32,35.32,0,0,1,18.69,30.74q-1.15,97.59-3.77,195.15l20.28-.12q2.58-97.59,3.71-195.22a37,37,0,0,1,18.88-30.92C162.28,960.45,162.27,958.09,162.24,953.37Z"/>
  </g>
  <g class="brickDarker">
    <path d="M1901.42,604.27,1939,621.59q1.71-290,7-580.06-19.45,16-38.89,32Q1902.92,338.86,1901.42,604.27Z"/>
    <path d="M1237.74,604.27l-37.55,17.32q-1.71-290-7-580.06,19.45,16,38.89,32Q1236.24,338.86,1237.74,604.27Z"/>
    <path d="M2618.12,900.94c1.11-29.17,25.16-58.53,56.29-56.74,29.38,1.68,57.82,26.6,56.27,57.69q.18,67,.89,134-56.33-.39-112.65-.75Q2618.27,968,2618.12,900.94Z"/>
    <path d="M2792.38,902.45c1.11-29.15,25.22-58.34,56.29-56.52,29.32,1.72,57.81,26.55,56.27,57.62q.22,66.83,1,133.64l-112.65-.87Q2792.57,969.39,2792.38,902.45Z"/>
    <path d="M2443.85,899.66c1.12-29.19,25.11-58.68,56.29-56.94,29.43,1.64,57.83,26.63,56.28,57.74q.15,67.15.75,134.29l-112.65-.63Q2444,966.89,2443.85,899.66Z"/>
    <path d="M2269.59,898.61c1.13-29.2,25.06-58.82,56.29-57.12,29.46,1.61,57.84,26.65,56.27,57.77q.13,67.28.62,134.55-56.33-.27-112.65-.51Q2269.7,966,2269.59,898.61Z"/>
    <path d="M521,900.94c1.7-31.07-27-55.63-56.29-56.74-31.21-1.19-55.05,28.46-56.27,57.69q-.18,67-.89,134,56.32-.39,112.65-.75Q520.89,968,521,900.94Z"/>
    <path d="M346.78,902.45c1.72-31.05-27-55.45-56.29-56.52-31.16-1.14-55,28.4-56.27,57.62q-.22,66.83-1,133.64l112.65-.87Q346.59,969.39,346.78,902.45Z"/>
    <path d="M695.31,899.66c1.68-31.09-26.92-55.77-56.29-56.94-31.26-1.24-55.07,28.51-56.28,57.74q-.15,67.15-.75,134.29l112.65-.63Q695.17,966.89,695.31,899.66Z"/>
    <path d="M869.57,898.61c1.67-31.11-26.87-55.9-56.29-57.12C782,840.2,758.21,870,757,899.26q-.13,67.28-.62,134.55,56.33-.27,112.65-.51Q869.46,966,869.57,898.61Z"/>
  </g>
  <g class="brickDarkest">
    <path d="M1733.31,1377q-.57-119-.9-238.07c-.93-38.93,33-73.57,71.8-73.52,39.46,0,72.06,34.69,72.28,73.68q.62,119,1.69,238Z"/>
    <path d="M1497.19,1377q.24-119.06.39-238.1c.07-39,33-73.18,72-73.63s72,35.35,72,73.63q.15,119.05.4,238.1Z"/>
    <path d="M1261.06,1377.08q1.08-119,1.7-238c.21-39,33.24-73.18,72.28-73.68s71.88,35.27,71.8,73.52q-.33,119-.9,238.07Z"/>
    <path d="M1483.52,689.5c0-46.8,38.74-88.12,86.1-88.12s86.15,41.32,86.11,88.12q-.11,115.29-.08,230.58-86-.06-172.05,0Q1483.61,804.79,1483.52,689.5Z"/>
    <path d="M1718,777.86c0-46.76,38.87-88,86.22-87.9s86,41.53,85.87,88.27q-.12,71.1-.06,142.2-86-.21-172.06-.3Q1717.92,849,1718,777.86Z"/>
    <path d="M1249.2,778.23c-.08-46.74,38.53-88.16,85.87-88.27s86.17,41.14,86.21,87.9q.06,71.14,0,142.27-86,.09-172,.3Q1249.3,849.33,1249.2,778.23Z"/>
  </g>
  <g class="slit">
    <path d="M2170.17,123.81c0-11.13-8.83-20.6-19.85-20.69s-20.34,9.1-20.94,20.29q-1.56,62.72-2.9,125.41l40.57.36Q2168.51,186.49,2170.17,123.81Z"/>
    <path d="M2060.7,122.81c0-11.14-8.92-20.6-19.95-20.67s-20.3,9.15-20.84,20.35q-1.25,62.74-2.33,125.49l40.58.29Q2059.33,185.54,2060.7,122.81Z"/>
    <path d="M2039.56,805.12a10,10,0,1,0-20.06-.08q0,31.37-.06,62.75l20,.07Q2039.51,836.5,2039.56,805.12Z"/>
    <path d="M2039.53,922.62a10.2,10.2,0,0,0-10-10.29,10.09,10.09,0,0,0-10,10.22q.06,31.38.14,62.75l20.06.06Q2039.58,954,2039.53,922.62Z"/>
    <path d="M2576,1287.61c-.63-11.85-10.25-21.79-22-21.86s-21,10-21,21.73q1.58,63.64,3.54,127.27h43.16Q2577.61,1351.19,2576,1287.61Z"/>
    <path d="M2635.12,1287.79c-.65-11.85-10.28-21.77-22.06-21.84s-21,10-21,21.71q1.68,63.55,3.76,127.11H2639Q2636.86,1351.29,2635.12,1287.79Z"/>
    <path d="M2516.82,1287.43c-.62-11.85-10.23-21.79-22-21.86s-21,10-21,21.74q1.47,63.72,3.32,127.42h43.16Q2518.36,1351.09,2516.82,1287.43Z"/>
    <path d="M2798.05,1288.35c-.71-11.85-10.37-21.72-22.15-21.81-11.62-.08-21,10-20.87,21.66q1.93,63.32,4.34,126.62h43.16Q2800.06,1351.61,2798.05,1288.35Z"/>
    <path d="M2857.21,1288.57c-.73-11.85-10.41-21.7-22.18-21.79s-21,9.93-20.84,21.63q2,63.22,4.55,126.42l43.16,0Q2859.31,1351.72,2857.21,1288.57Z"/>
    <path d="M2738.89,1288.14c-.68-11.85-10.34-21.74-22.11-21.82s-21,10-20.91,21.67q1.85,63.4,4.13,126.81h43.16Q2740.81,1351.48,2738.89,1288.14Z"/>
    <path d="M3020.45,1289.25c-.79-11.86-10.5-21.65-22.27-21.75-11.59-.1-20.91,9.88-20.76,21.56q2.31,62.93,5.15,125.82l43.16,0Q3022.82,1352.08,3020.45,1289.25Z"/>
    <path d="M3079.61,1289.51c-.81-11.85-10.54-21.62-22.31-21.73-11.57-.11-20.89,9.86-20.72,21.54q2.4,62.81,5.36,125.58l43.16,0Q3082.07,1352.22,3079.61,1289.51Z"/>
    <path d="M2961.29,1289c-.77-11.85-10.47-21.66-22.24-21.76-11.59-.1-20.92,9.9-20.78,21.59q2.2,63,4.93,126h43.16Q2963.55,1351.94,2961.29,1289Z"/>
    <path d="M2354.15,1287c-.56-11.84-10.14-21.83-21.92-21.89s-21.05,10-21.1,21.79q1.22,63.88,2.72,127.77H2357Q2355.44,1350.85,2354.15,1287Z"/>
    <path d="M2413.3,1287.16c-.58-11.85-10.17-21.83-22-21.88s-21,10-21.07,21.77q1.32,63.83,2.94,127.65h43.16Q2414.69,1350.93,2413.3,1287.16Z"/>
    <path d="M2295,1286.88c-.53-11.85-10.1-21.85-21.88-21.9s-21.06,10-21.14,21.81q1.13,63.93,2.51,127.87h43.17Q2296.18,1350.79,2295,1286.88Z"/>
    <path d="M2140,1286.58c-.48-11.84-10-21.87-21.8-21.91s-21.09,10.06-21.22,21.84q.87,64,1.95,128.1l43.16,0Q2140.9,1350.6,2140,1286.58Z"/>
    <path d="M2080.81,1286.48c-.46-11.84-10-21.88-21.77-21.91s-21.1,10.07-21.25,21.85q.78,64.08,1.73,128.17l43.16,0Q2081.64,1350.55,2080.81,1286.48Z"/>
    <path d="M964.61,118a14.27,14.27,0,0,1,14.14-14.75,14.88,14.88,0,0,1,14.94,14.46q1.69,66.13,3.16,132.27l-28.92.26Q966.4,184.09,964.61,118Z"/>
    <path d="M1093.2,116.79a14.33,14.33,0,0,1,14.23-14.72,14.8,14.8,0,0,1,14.84,14.5q1.34,66.18,2.46,132.38l-28.92.21Q1094.61,183,1093.2,116.79Z"/>
    <path d="M1028.9,117.35a14.31,14.31,0,0,1,14.19-14.74A14.84,14.84,0,0,1,1058,117.09q1.51,66.16,2.81,132.33l-28.92.23Q1030.51,183.5,1028.9,117.35Z"/>
    <path d="M1101.69,345.11a10.07,10.07,0,0,1,10-10.32A10.27,10.27,0,0,1,1121.91,345q.45,31.36.85,62.74l-20.19.13Q1102.15,376.47,1101.69,345.11Z"/>
    <path d="M1104,537.69a10.1,10.1,0,0,1,10-10.31,10.21,10.21,0,0,1,10.16,10.2q.27,31.38.51,62.75l-20.09.1Q1104.33,569.07,1104,537.69Z"/>
    <path d="M979,805.68a10,10,0,1,1,20.06-.1q.06,31.35.07,62.7l-20,.09Q979.1,837,979,805.68Z"/>
    <path d="M979.06,923.09a10.22,10.22,0,0,1,10.05-10.29,10.06,10.06,0,0,1,10,10.2q-.07,31.37-.18,62.71l-20.06.07Q979,954.45,979.06,923.09Z"/>
    <path d="M606.21,1287.48c0-11.73-9.33-21.8-21-21.73s-21.4,10-22,21.86q-1.63,63.27-3.66,126.53h43.16Q604.64,1350.82,606.21,1287.48Z"/>
    <path d="M547.06,1287.66c0-11.73-9.32-21.79-21-21.71s-21.41,10-22.06,21.84q-1.74,63.18-3.88,126.33h43.16Q545.39,1350.91,547.06,1287.66Z"/>
    <path d="M665.37,1287.31c0-11.73-9.36-21.81-21-21.74s-21.39,10-22,21.86q-1.54,63.38-3.45,126.73h43.16Q663.89,1350.75,665.37,1287.31Z"/>
    <path d="M384.13,1288.2c.08-11.71-9.25-21.74-20.87-21.66-11.78.09-21.44,10-22.15,21.81q-2,62.87-4.45,125.72h43.16Q382.21,1351.16,384.13,1288.2Z"/>
    <path d="M325,1288.41c.11-11.7-9.22-21.72-20.83-21.63-11.78.09-21.46,9.94-22.19,21.79q-2.08,62.76-4.66,125.48l43.16,0Q323,1351.25,325,1288.41Z"/>
    <path d="M443.29,1288c.06-11.71-9.28-21.75-20.9-21.67-11.78.08-21.43,10-22.12,21.82q-1.9,63-4.25,125.95h43.16Q441.45,1351.05,443.29,1288Z"/>
    <path d="M161.74,1289.06c.15-11.68-9.17-21.66-20.76-21.56-11.77.1-21.48,9.89-22.27,21.75q-2.34,62.38-5.24,124.75l43.16,0Q159.45,1351.54,161.74,1289.06Z"/>
    <path d="M102.58,1289.32c.17-11.68-9.15-21.65-20.72-21.54-11.77.11-21.49,9.88-22.31,21.73Q57.12,1351.76,54.1,1414l43.16,0Q100.2,1351.66,102.58,1289.32Z"/>
    <path d="M220.89,1288.82c.14-11.69-9.19-21.69-20.78-21.59-11.77.1-21.47,9.91-22.24,21.76q-2.25,62.54-5,125H216Q218.7,1351.44,220.89,1288.82Z"/>
    <path d="M828,1286.91c0-11.75-9.42-21.84-21.1-21.79S785.57,1275.17,785,1287q-1.28,63.6-2.86,127.2h43.16Q826.82,1350.57,828,1286.91Z"/>
    <path d="M768.88,1287.05c0-11.75-9.4-21.83-21.07-21.77s-21.37,10-21.95,21.88q-1.36,63.51-3.07,127H766Q767.57,1350.63,768.88,1287.05Z"/>
    <path d="M887.19,1286.79c-.08-11.76-9.45-21.86-21.14-21.81s-21.35,10-21.88,21.9q-1.18,63.67-2.64,127.35h43.16Q886.07,1350.52,887.19,1286.79Z"/>
    <path d="M1042.22,1286.51c-.13-11.78-9.52-21.88-21.22-21.84s-21.32,10.07-21.8,21.91q-.93,63.84-2.08,127.69l43.16,0Q1041.35,1350.39,1042.22,1286.51Z"/>
    <path d="M1101.37,1286.42c-.15-11.78-9.54-21.89-21.25-21.85s-21.31,10.07-21.77,21.91q-.82,63.9-1.86,127.81l43.16,0Q1100.59,1350.37,1101.37,1286.42Z"/>
    <path d="M1816.8,1094a12.71,12.71,0,0,0-12.54-12.79A12.58,12.58,0,0,0,1791.8,1094q.12,33.49.24,67l25,0Q1816.92,1127.52,1816.8,1094Z"/>
    <path d="M1851.2,1102.17a12.71,12.71,0,0,0-12.54-12.79,12.56,12.56,0,0,0-12.46,12.75q.15,29.44.31,58.89l25,0Q1851.36,1131.61,1851.2,1102.17Z"/>
    <path d="M1782.45,1102.08a12.5,12.5,0,1,0-25,0l.18,58.9,25,0Q1782.54,1131.52,1782.45,1102.08Z"/>
    <path d="M1347.4,1094a12.58,12.58,0,0,0-12.46-12.76A12.72,12.72,0,0,0,1322.4,1094q-.11,33.49-.25,67l25,0Q1347.29,1127.49,1347.4,1094Z"/>
    <path d="M1381.75,1102.05a12.5,12.5,0,1,0-25,0q-.06,29.45-.13,58.89l25,0Q1381.7,1131.5,1381.75,1102.05Z"/>
    <path d="M1313,1102.13a12.56,12.56,0,0,0-12.45-12.75,12.72,12.72,0,0,0-12.55,12.79q-.12,29.43-.25,58.88l25,0Q1312.9,1131.58,1313,1102.13Z"/>
    <path d="M1581.65,1093.87a12.5,12.5,0,1,0-25,0q0,33.5,0,67h25Q1581.65,1127.38,1581.65,1093.87Z"/>
    <path d="M1616,1102a12.5,12.5,0,1,0-25,0q0,29.46.08,58.91h25Q1616.07,1131.43,1616,1102Z"/>
    <path d="M1547.28,1102a12.5,12.5,0,1,0-25,0q0,29.44,0,58.9h25Z"/>
  </g>
  <g class="wallInner">
    <path d="M1743.07,1377q-.51-99.21-.84-198.42l62.35-21.71,62.53,21.83q.57,99.18,1.43,198.35"/>
    <path d="M1270.76,1377.07q.87-99.16,1.44-198.35l62.53-21.83,62.35,21.71q-.33,99.21-.84,198.42"/>
    <path d="M1506.46,1377q.19-99.23.31-198.45l62.43-21.78,62.44,21.78q.12,99.23.3,198.45"/>
  </g>
  <g class="frameDarkFront">
    <path d="M1748.71,1251.7c1-29.14,24.79-58.82,56-57.29,29.43,1.44,57.93,26.29,56.53,57.38q.43,62.64,1,125.28l-112.87,0Q1749,1314.37,1748.71,1251.7Z"/>
    <path d="M1278,1251.79c1.36-29.19,25.31-58.84,56.54-57.38,29.37,1.37,57.72,26.26,56,57.29q-.26,62.65-.59,125.32l-112.87,0Q1277.53,1314.43,1278,1251.79Z"/>
    <path d="M1512.89,1251.65c1.2-29.17,25-58.85,56.25-57.35,29.41,1.41,57.83,26.29,56.25,57.35q.09,62.67.19,125.34H1512.71Q1512.8,1314.32,1512.89,1251.65Z"/>
  </g>
  <g class="doorDarkFront">
    <path d="M1854.52,1377.07l-97.55,0q-.36-64.23-.64-128.46l97.23.08Q1854,1312.86,1854.52,1377.07Z"/>
    <path d="M1382.22,1377l-97.55,0q.52-64.21,1-128.43l97.22-.08Q1382.58,1312.79,1382.22,1377Z"/>
    <path d="M1617.92,1377h-97.56q.11-64.24.17-128.48h97.23Q1617.82,1312.74,1617.92,1377Z"/>
  </g>
  <g class="doorBorderLine">
    <path d="M1805,1248.6q.35,64.13.79,128.26"/>
    <path d="M1334.24,1248.6q-.35,64.13-.8,128.26"/>
    <path d="M1569.14,1248.5v128.31"/>
  </g>
  <g class="windowFront">
    <path d="M2706.23,901.75c-.31-16.22-14.82-33.18-31.85-32.62-16,.53-33.05,15-31.81,32.09q.16,67,.82,134.07,31.86.2,63.71.42Q2706.41,968.73,2706.23,901.75Z"/>
    <path d="M2880.49,903.38c-.31-16.22-14.84-33.12-31.85-32.58-16,.5-33.06,14.84-31.81,32q.21,66.87,1,133.74l63.71.49Q2880.71,970.2,2880.49,903.38Z"/>
    <path d="M2532,900.36c-.29-16.23-14.78-33.25-31.84-32.66-16,.56-33,15-31.81,32.2q.14,67.19.68,134.35l63.71.36Q2532.11,967.49,2532,900.36Z"/>
    <path d="M2357.7,899.19c-.29-16.23-14.77-33.29-31.84-32.67-16.08.59-33,15.14-31.82,32.3q.12,67.29.55,134.58l63.71.29Q2357.82,966.45,2357.7,899.19Z"/>
    <path d="M2856.36,1190.51l33,.18q-.94-38.78-1.73-77.54l-33-.22Q2855.43,1151.72,2856.36,1190.51Z"/>
    <path d="M2815.61,1190.3l33,.17q-.91-38.79-1.67-77.59l-33-.21Q2814.71,1151.47,2815.61,1190.3Z"/>
    <path d="M2681.56,1189.64l33.05.15q-.83-38.86-1.49-77.74l-33-.19Q2680.77,1150.76,2681.56,1189.64Z"/>
    <path d="M2640.82,1189.45l33,.15q-.79-38.88-1.44-77.78l-33-.18Q2640.05,1150.55,2640.82,1189.45Z"/>
    <path d="M2506.77,1188.89l33.05.13q-.71-38.94-1.27-77.91l-33-.16Q2506.09,1149.94,2506.77,1188.89Z"/>
    <path d="M2466,1188.74l33,.12q-.67-39-1.22-77.94l-33-.16Q2465.39,1149.76,2466,1188.74Z"/>
    <path d="M2332,1188.28l33.05.1q-.57-39-1-78.05l-33-.13Q2331.43,1149.24,2332,1188.28Z"/>
    <path d="M2291.24,1188.15l33.05.1q-.54-39-1-78.08l-33-.12Q2290.72,1149.09,2291.24,1188.15Z"/>
    <path d="M432.93,901.75c-1.14-17.17,15.79-31.77,31.85-32.62,17-.89,31.59,15.91,31.81,32.09q-.16,67-.82,134.07-31.86.2-63.71.42Q432.75,968.73,432.93,901.75Z"/>
    <path d="M258.67,903.38c-1.13-17.16,15.82-31.71,31.85-32.58,16.94-.92,31.59,15.8,31.81,32q-.21,66.87-1,133.74l-63.71.49Q258.46,970.2,258.67,903.38Z"/>
    <path d="M607.2,900.36C606.05,883.17,623,868.53,639,867.7c17-.87,31.58,16,31.81,32.2q-.14,67.19-.68,134.35l-63.71.36Q607,967.49,607.2,900.36Z"/>
    <path d="M781.46,899.19c-1.15-17.19,15.73-31.87,31.84-32.67,17-.84,31.58,16.11,31.82,32.3q-.12,67.29-.55,134.58l-63.71.29Q781.34,966.45,781.46,899.19Z"/>
    <path d="M282.8,1190.51l-33.05.18q.94-38.78,1.73-77.54l33-.22Q283.73,1151.72,282.8,1190.51Z"/>
    <path d="M323.55,1190.3l-33.05.17q.92-38.79,1.67-77.59l33-.21Q324.45,1151.47,323.55,1190.3Z"/>
    <path d="M457.6,1189.64l-33.05.15q.82-38.86,1.49-77.74l33-.19Q458.39,1150.76,457.6,1189.64Z"/>
    <path d="M498.34,1189.45l-33,.15q.79-38.88,1.44-77.78l33-.18Q499.11,1150.55,498.34,1189.45Z"/>
    <path d="M632.39,1188.89l-33,.13q.7-38.94,1.27-77.91l33-.16Q633.07,1149.92,632.39,1188.89Z"/>
    <path d="M673.14,1188.74l-33,.12q.66-39,1.21-77.94l33-.16Q673.78,1149.76,673.14,1188.74Z"/>
    <path d="M807.18,1188.28l-33,.1q.57-39,1-78.05l33-.13Q807.74,1149.24,807.18,1188.28Z"/>
    <path d="M847.92,1188.15l-33,.1q.54-39,1-78.08l33-.12Q848.44,1149.09,847.92,1188.15Z"/>
    <path d="M1747.7,785.34c1.19-29.25,25.06-59.09,56.39-57.51,29.52,1.48,57.86,26.6,56.2,57.74q-.09,67.51,0,135-56.3-.12-112.57-.2Q1747.65,852.86,1747.7,785.34Z"/>
    <path d="M1513.13,785.21c1.15-29.29,25-59.15,56.39-57.65,29.54,1.42,58,26.45,56.4,57.65q0,67.54,0,135.08-56.39,0-112.78,0Q1513.15,852.75,1513.13,785.21Z"/>
    <path d="M1279,785.57c1.11-29.24,24.86-59.18,56.2-57.74,29.52,1.35,58,26.35,56.38,57.51q.06,67.53,0,135-56.28.08-112.57.2Q1279,853.08,1279,785.57Z"/>
  </g>
  <g class="windowDisplayLine">
    <path d="M2675.24,1035.5q-.82-83.19-.86-166.37"/>
    <path d="M2706.5,967.39l-63.68-.48"/>
    <path d="M2706.23,901.75l-63.66-.53"/>
    <path d="M2849.65,1036.75q-1-83-1-166"/>
    <path d="M2880.81,968.85l-63.68-.56"/>
    <path d="M2880.49,903.38l-63.66-.62"/>
    <path d="M2500.84,1034.43q-.69-83.37-.72-166.73"/>
    <path d="M2532.19,966.14l-63.67-.41"/>
    <path d="M2532,900.36l-63.65-.46"/>
    <path d="M2326.45,1033.54q-.57-83.5-.59-167"/>
    <path d="M2357.89,965.1q-31.84-.18-63.68-.33"/>
    <path d="M2357.7,899.19l-63.66-.37"/>
    <path d="M2830.49,1112.77q.74,38.81,1.65,77.61"/>
    <path d="M2814.74,1151.48l33,.19"/>
    <path d="M2871.18,1113q.77,38.78,1.7,77.56"/>
    <path d="M2855.46,1151.72l33,.2"/>
    <path d="M2655.92,1111.73q.64,38.89,1.42,77.8"/>
    <path d="M2640.07,1150.55l33,.16"/>
    <path d="M2696.61,1112q.67,38.88,1.48,77.76"/>
    <path d="M2680.78,1150.75l33,.17"/>
    <path d="M2481.36,1110.84q.54,39,1.19,78"/>
    <path d="M2465.4,1149.75l33,.14"/>
    <path d="M2522.05,1111q.55,39,1.24,77.93"/>
    <path d="M2506.11,1149.92l33,.15"/>
    <path d="M2306.8,1110.11q.43,39,1,78.09"/>
    <path d="M2290.73,1149.1l33,.11"/>
    <path d="M2347.49,1110.27q.45,39,1,78.06"/>
    <path d="M2331.45,1149.24l33,.12"/>
    <path d="M463.92,1035.5q.82-83.19.86-166.37"/>
    <path d="M432.66,967.39l63.68-.48"/>
    <path d="M432.93,901.75l63.66-.53"/>
    <path d="M289.51,1036.75q1-83,1-166"/>
    <path d="M258.35,968.85l63.68-.56"/>
    <path d="M258.67,903.38l63.66-.62"/>
    <path d="M638.32,1034.43q.69-83.37.72-166.73"/>
    <path d="M607,966.14l63.67-.41"/>
    <path d="M607.2,900.36l63.65-.46"/>
    <path d="M812.71,1033.54q.57-83.5.59-167"/>
    <path d="M781.27,965.1q31.85-.18,63.68-.33"/>
    <path d="M781.46,899.19l63.66-.37"/>
    <path d="M308.67,1112.77q-.74,38.81-1.65,77.61"/>
    <path d="M324.42,1151.48l-33,.19"/>
    <path d="M268,1113q-.76,38.78-1.7,77.56"/>
    <path d="M283.7,1151.72l-33,.2"/>
    <path d="M483.24,1111.73q-.64,38.89-1.42,77.8"/>
    <path d="M499.09,1150.55l-33,.16"/>
    <path d="M442.55,1112q-.68,38.88-1.48,77.76"/>
    <path d="M458.38,1150.75l-33,.17"/>
    <path d="M657.8,1110.84q-.54,39-1.19,78"/>
    <path d="M673.76,1149.75l-33,.14"/>
    <path d="M617.11,1111q-.55,39-1.24,77.93"/>
    <path d="M633.05,1149.92l-33,.15"/>
    <path d="M832.36,1110.11q-.43,39-1,78.09"/>
    <path d="M848.43,1149.1l-33,.11"/>
    <path d="M791.67,1110.27q-.45,39-1,78.06"/>
    <path d="M807.71,1149.24l-33,.12"/>
    <path d="M1804,920.25q0-96.21.13-192.42"/>
    <path d="M1860.23,851.77q-56.28-.13-112.57-.21"/>
    <path d="M1860.29,785.65q-56.3-.14-112.59-.23"/>
    <path d="M1831.37,920.53q.44-92.67,1.12-185.35"/>
    <path d="M1775.56,920.21q0-92.3.1-184.58"/>
    <path d="M1569.62,920.05V727.56"/>
    <path d="M1625.91,851.44q-56.29,0-112.57,0"/>
    <path d="M1625.92,785.29q-56.3,0-112.59,0"/>
    <path d="M1597,920.28q.49-92.71,1-185.43"/>
    <path d="M1541.22,920.05q0-92.31,0-184.62"/>
    <path d="M1335.29,920.25q0-96.21-.13-192.42"/>
    <path d="M1391.58,851.56q-56.28.08-112.56.21"/>
    <path d="M1391.54,785.42q-56.3.09-112.58.23"/>
    <path d="M1362.69,920.43q.54-92.68.89-185.38"/>
    <path d="M1306.89,920.3q0-92.26-.13-184.54"/>
  </g>
  <path class="stepFront" d="M1941.1,1376.93q-371.47-.29-742.95,0-.21,18.71-.43,37.41l743.81.22Q1941.31,1395.75,1941.1,1376.93Z"/>
  <g class="stepSide">
    <path d="M1950.25,1365.58l-42.68,0,.51,49,42.75,0Q1950.53,1390.08,1950.25,1365.58Z"/>
    <path d="M1230.83,1365.54l-42.68,0q-.27,24.38-.57,48.75l42.74,0Q1230.59,1389.95,1230.83,1365.54Z"/>
  </g>
  <g class="stepOverlapLine">
    <path d="M1907.82,1390.24q-338.61-.23-677.24,0"/>
    <path d="M1908,1402.56q-338.75-.21-677.5,0"/>
  </g>
  <g class="trimOrnamentInner">
    <path d="M2425.53,1230.22l33.11.11q1.61-20.8,3.23-41.61l-41-.15Q2423.16,1209.41,2425.53,1230.22Z"/>
    <path d="M2647.43,1231l33.12.13q1.5-20.75,3-41.49l-41-.19Q2645,1210.23,2647.43,1231Z"/>
    <path d="M2869.34,1232l33.12.16q1.39-20.69,2.84-41.36l-41-.23Q2866.78,1211.26,2869.34,1232Z"/>
    <path d="M3091.62,1233.13l38.77.22q-.69-20.61-1.33-41.22l-42.7-.28Q3089,1212.49,3091.62,1233.13Z"/>
    <path d="M713.64,1230.22l-33.12.11q-1.6-20.8-3.23-41.61l41-.15Q716,1209.41,713.64,1230.22Z"/>
    <path d="M491.73,1231l-33.12.13q-1.5-20.75-3-41.49l41-.19Q494.19,1210.23,491.73,1231Z"/>
    <path d="M269.82,1232l-33.12.16q-1.39-20.69-2.84-41.36l41-.23Q272.38,1211.26,269.82,1232Z"/>
    <path d="M47.54,1233.13l-38.77.22q.69-20.61,1.33-41.22l42.7-.28Q50.21,1212.49,47.54,1233.13Z"/>
    <path d="M1468.24,1139.25h34.31l-5,38h-29.37Q1468.22,1158.25,1468.24,1139.25Z"/>
    <path d="M1636.7,1139.24H1671l.06,38h-29.36Z"/>
    <path d="M1703.07,1139.27l34.31,0-4.86,38-29.37,0Q1703.1,1158.27,1703.07,1139.27Z"/>
    <path d="M1871.53,1139.44l34.3,0q.11,19,.22,38l-29.36,0Q1874.11,1158.45,1871.53,1139.44Z"/>
    <path d="M1233.41,1139.49l34.31,0q-2.58,19-5.17,38l-29.36,0Q1233.31,1158.48,1233.41,1139.49Z"/>
    <path d="M1401.87,1139.29l34.31,0-.09,38-29.36,0Z"/>
    <path d="M1670.81,957l32,0q1-18.43,2-36.87-18,0-36,0Q1669.82,938.53,1670.81,957Z"/>
    <path d="M1904.77,957.32l33.58.08-.06-36.85-35.55-.09Q1903.76,938.9,1904.77,957.32Z"/>
    <path d="M1436.44,957l32,0q1-18.45,2-36.88-18,0-36,0Q1435.46,938.56,1436.44,957Z"/>
    <path d="M1200.81,957.4l33.66-.08q1-18.44,2-36.86l-35.63.09Z"/>
  </g>
  <g class="trimOrnamentOuter">
    <path d="M1436.09,1177.28h32.08q1-19,2.06-38l-36,0Q1435.15,1158.28,1436.09,1177.28Z"/>
    <path d="M1670.89,1177.27H1703q1-19,1.9-38l-36,0Q1669.86,1158.26,1670.89,1177.27Z"/>
  </g>
  <g class="brickOrnament">
    <path d="M1722.92,777.87l-31,.13q0,16,0,32.07l26,0Z"/>
    <path d="M1916.09,778.31l-31,.08q2.46,16,4.91,32.06l26,.07Q1916.07,794.43,1916.09,778.31Z"/>
    <path d="M1488.48,689.71l-31,.2q0,16,0,32.07l26.06,0Q1486,705.84,1488.48,689.71Z"/>
    <path d="M1681.79,689.74l-31,.14q2.46,16,4.93,32.07l26.06,0Z"/>
    <path d="M1254.15,778.22l-31,.26q0,16,.06,32l26-.07Q1251.7,794.34,1254.15,778.22Z"/>
    <path d="M1447.33,777.83l-31,.21,5,32.06,26,0Q1447.34,793.95,1447.33,777.83Z"/>
  </g>
  <g class="stainedGlass">
    <path d="M1542.92,652.43c0,12.36,11.83,28,26.23,26.82,13.11-1.1,26.22-13,26.23-26.82s-13.12-25.73-26.23-26.82C1554.74,624.41,1542.92,640.06,1542.92,652.43Z"/>
    <path d="M1591.17,689.68c0,11.65,9.78,22,21.53,22.05s21.54-10.38,21.55-22-9.79-22-21.53-22.05S1591.17,678,1591.17,689.68Z"/>
    <path d="M1505,689.7c0,11.65,9.81,22,21.55,22s21.53-10.4,21.53-22.05-9.8-22-21.55-22S1505,678.05,1505,689.7Z"/>
  </g>
</svg>
