<svg viewBox="0 0 491.82 249.2">
  <path class="wallFront" d="M17.56,22.71q6.68,112.91,2.34,226,225.36-.15,450.72,0-4.23-113,2.33-226Q245.3,16.8,17.56,22.71Z"/>
  <path class="stepFront" d="M20.33,237.25l14.64,0c.14-4.08.2-6.11.32-10.19l14.18,0c.12-4.34.17-6.51.27-10.84q53.45-.19,106.89-.28c104.68,10.79,209.32,22,314,32.81q-225.36-.15-450.72,0C20.09,244.12,20.17,241.83,20.33,237.25Z"/>
  <g class="frameLightFront">
    <path d="M75.24,216.08q1.14-65.18-.32-130.36,40.13-.57,80.25-.89.78,65.54.17,131.06Q115.29,216,75.24,216.08Z"/>
    <path d="M205.87,77.55q.24,40.26.25,80.52,54.76-.1,109.52.07,0-40.21.44-80.44Q261,77.37,205.87,77.55Z"/>
    <path d="M334.59,77.83q-.51,40.19-.55,80.38,54.76.24,109.52.74.07-39.87,1.23-79.73Q389.7,78.28,334.59,77.83Z"/>
  </g>
  <path class="doorLightFront" d="M81.89,216.06q1.1-65.22-.3-130.43,33.34-.47,66.7-.74.84,65.5.18,131Q115.19,216,81.89,216.06Z"/>
  <g class="windowFront">
    <path d="M212.79,84.53q.15,33.48.18,67,47.91-.08,95.83.07,0-33.45.33-66.91Q261,84.41,212.79,84.53Z"/>
    <path d="M341.38,84.87q-.42,33.41-.49,66.82,47.92.24,95.84.7.13-33.18,1-66.35Q389.55,85.28,341.38,84.87Z"/>
    <path d="M139.8,148.69q-24.39.13-48.78.33-.1-27-.59-53.94,24.48-.3,49-.51Q139.72,121.63,139.8,148.69Z"/>
  </g>
  <g class="windowDisplayLine">
    <path d="M261,84.49q-.06,33.49-.08,67"/>
    <path d="M308.9,117.89q-48-.19-96-.1"/>
    <path d="M389.55,85.36q-.65,33.3-.74,66.62"/>
    <path d="M437,119q-48-.61-96-.93"/>
  </g>
  <path class="roofFront" d="M1.88,23.14q-.64-9.48-1.34-19,245.31-7.36,490.74,0-.7,9.48-1.34,19Q245.95,16.38,1.88,23.14Z"/>
  <path class="awningFront" d="M158.18,84.81,158,69.52q-43.11.36-86.22,1,.23,7.6.42,15.2Q115.18,85.14,158.18,84.81Z"/>
</svg>
