<svg viewBox="0 0 1246.37 578.06">
  <path class="wallFront" d="M1222.49,124.53q-11.34,226.17-.88,452.53-598.45-1.18-1196.9,0Q35,350.85,23.83,124.53,623.1,111,1222.49,124.53Z"/>
  <g class="frameDarkFront">
    <path d="M938.51,254q-1.28,113.76.21,227.51-76.54-.76-153.08-1.44-.75-114.06-.08-228.14Q862,252.83,938.51,254Z"/>
    <path d="M1163,256.77q-2.14,112.91.46,225.81-76.58-.93-153.14-1.8-1.81-113.52-.24-227.06Q1086.49,255.12,1163,256.77Z"/>
    <path d="M233.32,254.77q1.58,113.52-.28,227-76.54-.15-153.1-.21,2.58-112.89.42-225.79Q156.83,255.15,233.32,254.77Z"/>
    <path d="M457.78,253q.68,114.06-.09,228.13-76.53-.34-153.06-.58,1.49-113.74.18-227.49Q381.3,252.84,457.78,253Z"/>
    <path d="M722.66,576.37q-1.21-164.88-.6-329.76-99.87-.26-199.74,0,.63,164.88-.61,329.75Q622.18,576.34,722.66,576.37Z"/>
  </g>
  <path class="doorDarkFront" d="M698,576.36q-.84-151.71-.52-303.43-75.13-.12-150.26,0,.33,151.71-.53,303.42Z"/>
  <g class="windowFront">
    <path d="M918.44,274.06q-.78,93.57.16,187.15Q862,461,805.38,460.85q-.57-93.77-.09-187.53Q861.87,273.62,918.44,274.06Z"/>
    <path d="M1142.74,276.55q-1.34,92.93.36,185.83-56.62-.36-113.26-.67-1.3-93.3-.24-186.58Q1086.18,275.77,1142.74,276.55Z"/>
    <path d="M213.74,275.16q1.08,93.29-.25,186.56-56.62.31-113.25.68,1.7-92.91.36-185.8Q157.17,275.8,213.74,275.16Z"/>
    <path d="M438.05,273.33q.49,93.76-.09,187.53-56.61.15-113.22.36.94-93.57.16-187.14Q381.47,273.65,438.05,273.33Z"/>
  </g>
  <g class="windowDisplayLine">
    <path d="M861.87,273.64q-.64,93.69.12,187.37"/>
    <path d="M918.05,367.63q-56.49-.31-113-.55"/>
    <path d="M1086.17,275.8q-1.2,93.12.3,186.22"/>
    <path d="M1142.1,369.46q-56.5-.57-113-1"/>
    <path d="M157.17,275.84q1.22,93.11-.3,186.2"/>
    <path d="M214.26,368.44q-56.5.48-113,1.05"/>
    <path d="M381.47,273.66q.64,93.69-.12,187.36"/>
    <path d="M438.29,367.1q-56.49.22-113,.55"/>
  </g>
  <path class="roofSide" d="M1242.5,125c.54-10,.82-15,1.41-25Q623.24,84.79,2.41,100c.59,10,.87,15,1.4,25Q623.09,110.53,1242.5,125Z"/>
  <path class="roofTop" d="M1243.91,100q-46-46.27-92-92.62Q621.71-5.41,91.37,7.45,46.9,53.74,2.41,100,623.08,84.79,1243.91,100Z"/>
</svg>
