<svg viewBox="0 0 1843.44 1976.87">
  <g class="foundationRear">
    <path d="M1839.48,1749.19l-186.72.13q-.09,113.28.14,226.55h186.62C1839.45,1894.09,1839.43,1798.34,1839.48,1749.19Z"/>
    <path d="M190.68,1749.32,4,1749.19c0,49.15,0,144.9,0,226.68H190.54Q190.78,1862.61,190.68,1749.32Z"/>
  </g>
  <path class="wallRear" d="M12.88,1089.28q690.69-9.09,1381.46-4.39,218.1,1.5,436.22,4.39-4.35,329.94-4.82,659.92-215.7.15-431.39.26-688.32.29-1376.65-.26Q17.22,1419.23,12.88,1089.28Z"/>
  <path class="trimRear" d="M78.82,1749.25q639.39.39,1278.78.22,203.51-.08,407-.22.16-122.28.79-244.57-203.7-.84-407.4-1.27-640-1.35-1280,1.27Q78.65,1627,78.82,1749.25Z"/>
  <path class="doorRear" d="M97.32,1749.26q627.3.38,1254.58.22,197.11-.07,394.22-.22.15-113.07.68-226.13-197.27-.74-394.53-1.1-627.79-1.2-1255.63,1.1Q97.18,1636.2,97.32,1749.26Z"/>
  <path class="roofTopRear" d="M1842.44,1064q-82-71.82-163.94-143.68-756.73-10.46-1513.56,0Q83,992.18,1,1064l.35,25.42q699.11-9.33,1398.29-4.52,221.19,1.55,442.43,4.52C1842.22,1079.27,1842.29,1074.19,1842.44,1064Z"/>
  <g class="foundationMiddle">
    <path d="M1689.34,1718.56l-301.65,0q-.11,128.64.06,257.28h301.56C1689.26,1880.18,1689.27,1771.61,1689.34,1718.56Z"/>
    <path d="M455.75,1718.59l-301.65,0c.08,58.25.08,166.62,0,257.31H455.69Q455.86,1847.23,455.75,1718.59Z"/>
  </g>
  <g class="shrubFurther">
    <path d="M1512.08,1914.46c-8.94-17.66-33.14-16.28-44.73-2.43-12.5-9.56-35.4-6.07-38,11.91-13.08-2-20.1,11.76-12,21.75-14.6,1.6-22.91,17.78-16.44,30.18h111.32Q1512.12,1945.17,1512.08,1914.46Z"/>
    <path d="M432.91,1947.12c13.44-8.33,5.27-27.62-9.21-26.82,1.68-18.08-20.51-26.07-34-17.58-3-22.06-31.09-20.82-38.44-2.32-13.06-10.46-35.9-.92-36.61,16.26q-18,29.61-36.12,59.21H442C452,1967.84,444.85,1949.87,432.91,1947.12Z"/>
  </g>
  <g class="shrubCloser">
    <path d="M1647.43,1940.76c9-15.66-4.88-40-24.16-31.1-1.9-22.37-30.22-29.61-44.1-12.93-14.21-15.8-43.37-9.55-46.61,12.57-15.51-3.67-35.65,9.24-32,26.89-13.92-5-25.16,12.11-21.22,24-7.63,2.5-9.14,11.11-5.78,15.68h185C1673.11,1965.7,1664.36,1942.49,1647.43,1940.76Z"/>
    <path d="M318.65,1966.86c11.65-9.71.82-24.93-10.3-27.95,14.9-8.82,9.43-33.16-8.09-34.14,9.12-20.35-15.84-33.06-31.4-22-15.34-16-42.28-4.83-41.78,17.33-17-6.33-36.84,12.26-30.73,29.75-16,1-20.18,19.33-11.78,30.59-6.54,2.42-9.19,11.15-4.6,15.48H324.59C325.8,1972.84,324.12,1968.5,318.65,1966.86Z"/>
  </g>
  <g class="wallMiddleLight">
    <path d="M1375.23,1101.12q150.51,1,301,2.59-3.3,307.41-3.81,614.85-149.75,0-299.5,0Q1373.25,1409.85,1375.23,1101.12Z"/>
    <path d="M1396.82,783.94q131.92,1.37,263.83,3.43-2.18,141.76-3.78,283.52-131.23-1.42-262.48-2.37Q1395.42,926.23,1396.82,783.94Z"/>
    <path d="M1418.1,517q114.48,1.59,229,3.83-2,105.18-3.69,210.36-113.89-1.85-227.79-3.15Q1416.74,622.52,1418.1,517Z"/>
    <path d="M468.21,1101.12q-150.49,1-301,2.59,3.3,307.41,3.81,614.85,149.76,0,299.5,0Q470.21,1409.85,468.21,1101.12Z"/>
    <path d="M446.62,783.94q-131.92,1.37-263.82,3.43,2.16,141.76,3.77,283.52,131.25-1.42,262.49-2.37Q448,926.23,446.62,783.94Z"/>
    <path d="M425.34,517q-114.48,1.59-228.95,3.83,2,105.18,3.69,210.36Q314,729.35,427.87,728,426.7,622.52,425.34,517Z"/>
  </g>
  <g class="wallMiddleDark">
    <path d="M1451.08,1069q74.55.6,149.09,1.35,2.7-257.16,7.16-514.29-75.32-1.35-150.65-2.44Q1453.19,811.24,1451.08,1069Z"/>
    <path d="M392.36,1069q-74.55.6-149.09,1.35-2.7-257.16-7.16-514.29,75.31-1.35,150.65-2.44Q390.26,811.24,392.36,1069Z"/>
  </g>
  <g class="trimMiddleDark">
    <path d="M1582.44,1070.12q.76-74.74,1.65-149.48c2.05-31.28-27.09-55.76-56.3-57.48-31.13-1.83-56.11,26.74-57.6,56.21q-.75,74.86-1.37,149.72Q1525.63,1069.56,1582.44,1070.12Z"/>
    <path d="M261,1070.12q-.76-74.74-1.65-149.48c.85-29.48,25.17-58.56,56.31-57.48,29.28,1,58.95,24.87,57.6,56.21q.74,74.86,1.36,149.72Q317.82,1069.56,261,1070.12Z"/>
  </g>
  <g class="trimMiddle">
    <path d="M1379,1141.68q153,.93,306.07,2.48c-.08,7.66-.12,11.49-.19,19.16q-153-1.48-306-2.4C1378.93,1153.22,1379,1149.38,1379,1141.68Z"/>
    <path d="M1375.45,1068.39q155.22,1.06,310.43,2.83-.2,16.29-.37,32.59-155.15-1.68-310.28-2.69Q1375.34,1084.76,1375.45,1068.39Z"/>
    <path d="M1387.52,820.37q140.76,1.38,281.52,3.52l-.3,19.88q-140.7-2.1-281.4-3.44C1387.41,832.35,1387.45,828.35,1387.52,820.37Z"/>
    <path d="M464.44,1141.68q-153,.93-306.07,2.48l.2,19.16q153-1.48,306-2.4C464.51,1153.22,464.49,1149.38,464.44,1141.68Z"/>
    <path d="M468,1068.39q-155.22,1.06-310.42,2.83l.36,32.59q155.15-1.68,310.28-2.69Q468.11,1084.76,468,1068.39Z"/>
    <path d="M455.92,820.37q-140.76,1.38-281.51,3.52c.12,8,.18,11.93.29,19.88q140.7-2.1,281.41-3.44C456,832.35,456,828.35,455.92,820.37Z"/>
    <path d="M1422.76,1718.58h199q.23-140.21,1-280.41l-97-56.52q-51.19,27.83-102.33,55.75Q1422.92,1578,1422.76,1718.58Z"/>
    <path d="M420.68,1718.58h-199q-.22-140.21-.95-280.41l97-56.52q51.18,27.83,102.32,55.75Q420.52,1578,420.68,1718.58Z"/>
    <path d="M315.92,885.93a33.86,33.86,0,0,0-8.36,1.14q-1.21-18-2.44-36.1c8.31-.11,12.47-.16,20.78-.25q-.79,18.07-1.6,36.16A33.56,33.56,0,0,0,315.92,885.93Z"/>
    <path d="M1527.52,885.93a33.86,33.86,0,0,1,8.36,1.14q1.21-18,2.45-36.1l-20.79-.25q.8,18.07,1.6,36.16A33.56,33.56,0,0,1,1527.52,885.93Z"/>
    <path d="M1458.36,1260.57c-.21,34,31.69,65.29,65.32,66.31,34.79,1.06,65.9-31.35,66.16-65.47s-30.44-67-65.26-66.36C1490.9,1195.64,1458.57,1226.48,1458.36,1260.57Z"/>
    <path d="M385.08,1260.57c.21,34.14-30.47,67-65.32,66.31-33.6-.66-65.9-31.45-66.16-65.47s31.66-65.28,65.27-66.36C353.73,1193.92,384.88,1226.39,385.08,1260.57Z"/>
  </g>
  <g class="trimMiddleDark">
    <path d="M1525.65,1406.79l75.71,43.33q-78.33-.33-156.64-.58Q1485.16,1428.14,1525.65,1406.79Z"/>
    <path d="M317.8,1406.79l-75.71,43.33q78.32-.33,156.63-.58Q358.28,1428.14,317.8,1406.79Z"/>
  </g>
  <g class="trimMiddleLight">
    <path d="M1523.85,1299.17a38.06,38.06,0,0,1-9.55-1.27q-1.62,20.83-3.25,41.67l25.11.13q-1.38-20.85-2.75-41.69A37.71,37.71,0,0,1,1523.85,1299.17Z"/>
    <path d="M1524.37,1222.76a38.06,38.06,0,0,1,9.55,1.28l3.33-41.65-25.15-.18q1.34,20.85,2.7,41.7A38.24,38.24,0,0,1,1524.37,1222.76Z"/>
    <path d="M1562.2,1261.22a38.28,38.28,0,0,1-1.28,9.57l41.54,3.29.2-25.17-41.6,2.72A37.88,37.88,0,0,1,1562.2,1261.22Z"/>
    <path d="M1486,1260.73a38.3,38.3,0,0,1,1.27-9.58l-41.55-3.26-.15,25.22,41.58-2.78A38.48,38.48,0,0,1,1486,1260.73Z"/>
    <path d="M319.59,1299.17a38.06,38.06,0,0,0,9.55-1.27q1.64,20.83,3.25,41.67l-25.11.13q1.38-20.85,2.75-41.69A37.71,37.71,0,0,0,319.59,1299.17Z"/>
    <path d="M319.07,1222.76a38.06,38.06,0,0,0-9.55,1.28l-3.33-41.65,25.16-.18q-1.35,20.85-2.71,41.7A38.24,38.24,0,0,0,319.07,1222.76Z"/>
    <path d="M281.24,1261.22a38.28,38.28,0,0,0,1.28,9.57L241,1274.08c-.08-10.07-.11-15.1-.19-25.17l41.59,2.72A38.4,38.4,0,0,0,281.24,1261.22Z"/>
    <path d="M357.44,1260.73a38.3,38.3,0,0,0-1.27-9.58l41.55-3.26.15,25.22-41.58-2.78A38.48,38.48,0,0,0,357.44,1260.73Z"/>
  </g>
  <g class="window">
    <path d="M1444.11,1673.24l156.46.08q.24-111.6.79-223.2-78.33-.33-156.64-.58Q1444.3,1561.38,1444.11,1673.24Z"/>
    <path d="M399.33,1673.24l-156.46.08q-.24-111.6-.78-223.2,78.32-.33,156.63-.58Q399.16,1561.4,399.33,1673.24Z"/>
  </g>
  <g class="windowDisplayLine">
    <path d="M1525.44,1449.82q-.48,111.72-.7,223.46"/>
    <path d="M1444.35,1561.39q78.26.13,156.53.33"/>
    <path d="M1444.51,1505.65q78.3.19,156.58.45"/>
    <path d="M1444.21,1617.12q78.24.09,156.49.21"/>
    <path d="M318,1449.82q.48,111.72.7,223.46"/>
    <path d="M399.1,1561.39q-78.27.13-156.54.33"/>
    <path d="M398.93,1505.65q-78.3.19-156.58.45"/>
    <path d="M399.23,1617.12q-78.24.09-156.49.21"/>
  </g>
  <g class="slit">
    <path d="M1559.11,1069.89q.73-75,1.6-150.1c-.1-17-15.5-34.4-33.19-33.86-16.66.51-35,15.09-33.94,33.12q-.76,75.12-1.43,150.24Z"/>
    <path d="M1522.08,729.37q.92-67.27,1.9-134.55c1.29-14-12.59-24.32-25-25.53-13.9-1.36-24.44,12.26-25.73,24.78q-.91,67.32-1.74,134.64Q1496.79,729,1522.08,729.37Z"/>
    <path d="M1587.44,730.31q1-67.21,2.1-134.42c1.32-14-12.56-24.32-25-25.55-13.9-1.39-24.47,12.2-25.78,24.71q-1,67.26-2,134.52Q1562.16,729.93,1587.44,730.31Z"/>
    <path d="M284.34,1069.89q-.75-75-1.6-150.1c-1.47-18,16.55-33,33.18-33.86,17.68-1,33.47,16.08,33.94,33.12q.76,75.12,1.43,150.24Q317.81,1069.58,284.34,1069.89Z"/>
    <path d="M321.36,729.37q-.9-67.27-1.9-134.55c.93-12.55,11.07-26.47,25-25.53,12.44.83,26.63,10.76,25.73,24.78q.92,67.32,1.74,134.64Q346.65,729,321.36,729.37Z"/>
    <path d="M256,730.31q-1-67.21-2.1-134.42c.91-12.55,11-26.46,25-25.55,12.43.81,26.64,10.69,25.77,24.71q1,67.26,1.95,134.52Q281.3,729.93,256,730.31Z"/>
    <path d="M1486,1260.73c-.13,20.47,17.31,38.32,37.85,38.44s38.2-17.49,38.35-38-17.29-38.32-37.83-38.46S1486.13,1240.24,1486,1260.73Z"/>
    <path d="M357.44,1260.73c.13,20.47-17.31,38.32-37.85,38.44s-38.2-17.49-38.35-38,17.3-38.32,37.83-38.46S357.31,1240.24,357.44,1260.73Z"/>
  </g>
  <g class="roofSide">
    <path d="M1415.57,728q113.9,1.31,227.79,3.15l26.55,36.69c-.13,7.85-.19,11.78-.31,19.63q-140.86-2.24-281.73-3.67l.2-19.71Z"/>
    <path d="M1432.6,467.89q100.8,1.5,201.57,3.51l23.38,32.37c-.14,6.91-.21,10.36-.34,17.27q-124.62-2.49-249.26-4.18c.08-6.93.13-10.39.22-17.32Q1420.38,483.7,1432.6,467.89Z"/>
    <path d="M427.87,728Q314,729.35,200.08,731.19l-26.55,36.69c.13,7.86.19,11.78.32,19.63q140.85-2.24,281.72-3.66c-.08-7.89-.12-11.83-.19-19.72Z"/>
    <path d="M410.84,467.89q-100.79,1.5-201.57,3.51l-23.38,32.37c.14,6.91.21,10.36.34,17.27q124.64-2.49,249.27-4.18c-.09-6.93-.14-10.39-.23-17.32Q423.06,483.7,410.84,467.89Z"/>
  </g>
  <g class="roofTop">
    <path d="M1520.25,234.3l34.85.72q38.6,118.16,77.06,236.34-98.78-2-197.54-3.44Q1477,351,1520.25,234.3Z"/>
    <path d="M323.19,234.3l-34.85.72q-38.59,118.16-77.06,236.34,98.78-2,197.55-3.44Q366.41,351,323.19,234.3Z"/>
  </g>
  <g class="cross">
    <path d="M1552.84,72.55l45.61,1.1c.2-8.68.31-13,.52-21.7l-45.64-1.11q.56-24.63,1.12-49.25L1530.83,1l-1.08,49.27-45.65-1c-.17,8.7-.26,13-.43,21.74l45.61,1q-1.26,58.87-2.44,117.76l23.46.49Q1551.53,131.42,1552.84,72.55Z"/>
    <path d="M290.6,72.55,245,73.65c-.21-8.68-.32-13-.53-21.7q22.83-.57,45.65-1.11Q289.55,26.21,289,1.59L312.61,1q.54,24.65,1.08,49.27l45.65-1c.17,8.7.26,13.05.43,21.74l-45.61,1q1.26,58.87,2.44,117.76l-23.46.49Q291.91,131.42,290.6,72.55Z"/>
  </g>
  <g class="ball">
    <path d="M1511.75,213.33c-.24,12.28,11.74,27.2,25.83,26.35,12.77-.77,26.57-11.52,26.85-25.25s-13.07-25.07-25.82-26.38C1524.56,186.61,1512,201,1511.75,213.33Z"/>
    <path d="M331.69,213.33c.26,13.74-13.08,25.06-25.83,26.35-14,1.43-26.6-13-26.85-25.25s11.72-27.21,25.82-26.38C317.61,188.81,331.43,199.58,331.69,213.33Z"/>
  </g>
  <path class="foundationFront" d="M1387.7,1709.84q-466-.06-932,0,.12,133-.05,266h932.06Q1387.59,1842.87,1387.7,1709.84Z"/>
  <path class="wallFront" d="M470.52,1709.84q451.2-.06,902.41,0,.3-271.89,1.89-543.78-453.09-2.6-906.2,0Q470.21,1437.95,470.52,1709.84Z"/>
  <g class="trimBeam">
    <path d="M1282.89,1709.84h98.31q0-18.31,0-36.63l-98.32,0Z"/>
    <path d="M1284.24,1202.25q49.34.23,98.67.49.1-18.32.22-36.63-49.37-.3-98.72-.52Q1284.32,1183.92,1284.24,1202.25Z"/>
    <path d="M1091.89,1709.84h98.3l0-36.69-98.32,0Q1091.9,1691.48,1091.89,1709.84Z"/>
    <path d="M1092.52,1201.65q49.35.11,98.68.26.06-18.36.13-36.7-49.36-.17-98.73-.27Q1092.57,1183.29,1092.52,1201.65Z"/>
    <path d="M560.55,1709.84H462.24q0-18.31,0-36.63l98.32,0Z"/>
    <path d="M559.2,1202.25q-49.34.23-98.67.49-.11-18.32-.22-36.63,49.37-.3,98.72-.52Q559.12,1183.92,559.2,1202.25Z"/>
    <path d="M751.55,1709.84h-98.3l0-36.69,98.32,0Q751.54,1691.48,751.55,1709.84Z"/>
    <path d="M750.92,1201.65q-49.33.11-98.68.26l-.12-36.7q49.35-.17,98.72-.27Q750.87,1183.29,750.92,1201.65Z"/>
  </g>
  <g class="beam">
    <path d="M1291.86,1673.18l81.11,0q.35-235.26,1.64-470.52-40.71-.21-81.41-.4Q1292.14,1437.73,1291.86,1673.18Z"/>
    <path d="M1100.84,1673.13H1182q.19-235.62,1-471.26l-81.41-.21Q1101,1437.4,1100.84,1673.13Z"/>
    <path d="M551.59,1673.18l-81.12,0q-.35-235.26-1.64-470.52,40.71-.21,81.41-.4Q551.31,1437.73,551.59,1673.18Z"/>
    <path d="M742.61,1673.13H661.49q-.19-235.62-.94-471.26,40.69-.12,81.4-.21Q742.47,1437.4,742.61,1673.13Z"/>
  </g>
  <g class="trimFrontLight">
    <path d="M921.72,1094.94q-239.15,0-478.29,1.64l-.27-38.3q238.68-167.37,478.56-333,240.14,165.27,478.56,333l-.27,38.3Q1160.86,1095,921.72,1094.94Z"/>
    <path d="M453.78,1166.14q467.94-2.75,935.88,0c.07-10.76.1-16.14.17-26.9q-468.1-2.88-936.22,0C453.68,1150,453.72,1155.38,453.78,1166.14Z"/>
  </g>
  <g class="marbleLight">
    <path d="M921.72,1068.37q-223.56,0-447.11,1.5,223-154.81,447.11-308.12,224.28,153,447.12,308.12Q1145.28,1068.39,921.72,1068.37Z"/>
    <path d="M468.46,1139.15q453.25-2.7,906.53,0l.27-42.73q-453.54-2.91-907.08,0Q468.31,1117.78,468.46,1139.15Z"/>
  </g>
  <path class="trimFrontDark" d="M742,1832.53q0-363.42-.93-726.84c-.26-97.86,82.64-181.79,180.66-181.79s180.92,83.92,180.66,181.79q-.93,363.42-.93,726.84Q921.72,1832.59,742,1832.53Z"/>
  <path class="marbleDark" d="M1066,1832.54q0-363.46.75-726.93c.17-78.45-66.49-145.94-145.07-145.94s-145.24,67.49-145.06,145.94q.74,363.47.74,726.93Q921.72,1832.59,1066,1832.54Z"/>
  <g class="trimFrontDarkest">
    <path d="M807.07,1105.55c.1,59.84,53.11,115.51,114.65,115.14,60.91-.37,114.55-54.2,114.65-115.14.11-61.1-53.63-114.95-114.65-115.32C860.08,989.86,807,1045.56,807.07,1105.55Z"/>
    <path d="M811.35,1832.55q110.37,0,220.75,0,0-154.38.09-308.76-110.46-.06-220.94,0Q811.34,1678.17,811.35,1832.55Z"/>
  </g>
  <path class="frame" d="M835.25,1105.51c.06,46.71,39.61,86.86,86.47,86.86s86.42-40.15,86.47-86.86-39.54-87-86.47-87S835.19,1058.72,835.25,1105.51Z"/>
  <path class="stainedGlass" d="M843.86,1105.5c0,41.93,35.78,78.22,77.86,78.22s77.82-36.29,77.87-78.22-35.75-78.29-77.87-78.29S843.81,1063.51,843.86,1105.5Z"/>
  <path class="frame" d="M980.71,1105.48c8.89-6.06,9.67-18,6.22-27.12-3.19-8.47-13.83-17-23.47-14.81,2.08-9.61-6.22-20.24-14.71-23.59-9.06-3.56-21.08-2.34-27,6.21-6-8.55-18-9.77-27-6.21-8.5,3.34-16.79,14-14.72,23.59-9.64-2.15-20.27,6.33-23.46,14.81-3.46,9.17-2.68,21.06,6.21,27.13-8.88,6.08-9.63,18-6.16,27.13,3.2,8.46,13.83,16.93,23.46,14.78-2.06,9.6,6.23,20.23,14.72,23.57,9,3.56,21,2.33,27-6.22,5.93,8.55,17.94,9.78,27,6.22,8.49-3.34,16.78-14,14.72-23.57,9.63,2.15,20.27-6.32,23.47-14.78C990.34,1123.46,989.59,1111.57,980.71,1105.48Z"/>
  <g class="stainedGlass">
    <path d="M905.05,1118.4a21.5,21.5,0,0,1-4.22-10.23h-29A16.68,16.68,0,0,0,884.55,1139Q894.8,1128.72,905.05,1118.4Z"/>
    <path d="M942.61,1102.76a21,21,0,0,0-1.43-5.39,21.33,21.33,0,0,0-2.78-4.84l20.53-20.61a16.68,16.68,0,0,1,12.7,30.85Z"/>
    <path d="M919,1126.46a21,21,0,0,1-5.37-1.45,20.72,20.72,0,0,1-4.8-2.79q-10.26,10.3-20.51,20.63A16.62,16.62,0,1,0,919,1155.62Z"/>
    <path d="M934.59,1088.7a21.15,21.15,0,0,0-4.81-2.79,20.87,20.87,0,0,0-5.37-1.44v-29.16a16.63,16.63,0,1,1,30.71,12.78Z"/>
    <path d="M934.59,1122.22a20.79,20.79,0,0,1-4.81,2.79,21,21,0,0,1-5.37,1.45v29.16a16.62,16.62,0,1,0,30.68-12.77Z"/>
    <path d="M919,1084.47a20.87,20.87,0,0,0-5.37,1.44,21.15,21.15,0,0,0-4.81,2.79l-20.53-20.61A16.63,16.63,0,1,1,919,1055.31Z"/>
    <path d="M942.61,1108.17a21.5,21.5,0,0,1-4.22,10.23q10.26,10.3,20.5,20.62a16.68,16.68,0,0,0,12.73-30.84Z"/>
    <path d="M905,1092.53a21.33,21.33,0,0,0-2.78,4.84,21,21,0,0,0-1.43,5.39h-29a16.68,16.68,0,0,1,12.7-30.85Z"/>
    <path d="M906.65,1105.46a15.07,15.07,0,1,0,15.07-15.14A15.11,15.11,0,0,0,906.65,1105.46Z"/>
  </g>
  <g class="trimFrontLight">
    <path d="M921.72,959.67a147,147,0,0,1,16.74,1q1.51-38.73,3-77.47H901.94q1.51,38.73,3,77.47A146.66,146.66,0,0,1,921.72,959.67Z"/>
    <path d="M811.22,1488.92q110.5-.06,221,0,.1-138.74.29-277.48-55.37-36.87-110.79-73.66-55.43,36.78-110.79,73.66Q811.11,1350.18,811.22,1488.92Z"/>
  </g>
  <path class="marbleLight" d="M838.31,1441.24q83.41,0,166.83,0,.06-107.21.17-214.39-41.77-27.8-83.59-55.54-41.81,27.75-83.59,55.54Q838.24,1334,838.31,1441.24Z"/>
  <path class="marbleDark" d="M972.18,1441.23q0-87.88.08-175.75c1.59-27.6-24.66-49.71-50.54-50.91-27.47-1.26-49.66,24.89-50.54,50.91l.09,175.75q50.44,0,100.91,0"/>
  <path class="door" d="M841.67,1832.56h160.1q0-114,0-227.92H841.63Q841.68,1718.61,841.67,1832.56Z"/>
  <path class="doorBorderLine" d="M921.72,1832.57V1604.63"/>
  <path class="step" d="M1307.88,1941.77l-41.86.08,0-36.48-41,.06q0-18.26,0-36.49l-40.79,0q0-18.26,0-36.5-262.41.15-524.82,0,0,18.24,0,36.5l-40.78,0q0,18.24,0,36.49l-41-.06q0,18.24,0,36.48l-41.87-.08q0,17.06,0,34.1h772.4Q1307.89,1958.82,1307.88,1941.77Z"/>
  <g class="stepOverlapLine">
    <path d="M659.3,1869q262.43.21,524.84,0"/>
    <path d="M618.5,1905.43q303.22.36,606.44,0"/>
    <path d="M577.43,1941.85q344.3.57,688.59,0"/>
  </g>
  <g class="lamp">
    <path d="M1128.81,1565.34l25.34,0c7.28-12.75,8.25-27.87,6.06-42.11l-37.34,0C1120.71,1537.51,1120.74,1552.72,1128.81,1565.34Z"/>
    <path d="M714.63,1565.34l-25.34,0c-7.27-12.75-8.25-27.87-6.06-42.11l37.34,0C722.73,1537.51,722.7,1552.73,714.63,1565.34Z"/>
  </g>
  <g class="lampholder">
    <path d="M1129.7,1576.22l23.55,0c1.21-4.35,1.81-6.53,3-10.88l-29.55,0C1127.91,1569.69,1128.51,1571.87,1129.7,1576.22Z"/>
    <path d="M1150.77,1507.58l14.17,0c-1.21,6.26-1.81,9.39-3,15.65l-40.76,0c-1.19-6.27-1.79-9.4-3-15.66h14.17c-.94-4.35-1.4-6.53-2.34-10.88l23.13,0C1152.19,1501.05,1151.72,1503.23,1150.77,1507.58Z"/>
    <path d="M713.74,1576.22l-23.55,0c-1.2-4.35-1.81-6.53-3-10.88l29.55,0C715.53,1569.69,714.94,1571.87,713.74,1576.22Z"/>
    <path d="M692.67,1507.58l-14.17,0c1.21,6.26,1.81,9.39,3,15.65l40.76,0c1.19-6.27,1.79-9.4,3-15.66H711.09c.94-4.35,1.4-6.53,2.34-10.88l-23.13,0C691.25,1501.05,691.72,1503.23,692.67,1507.58Z"/>
  </g>
  <path class="stJosephRear" d="M945.57,1441.22H898.2l7.59-108.07H936.6Z"/>
  <path class="robe" d="M929.08,1292.72c5.33.86,11.28,2.79,15.17,6.11,6.87,6.37,11.14,17.75,12.3,26.84,2.24,9.86-2.6,20.37-11,25.81,3.26,24.89,5.3,49.74,6.33,74.83-7.1-6-18.3-10.13-27.52-10.8-.12-18.73-1.23-37.32-2.71-56a446.16,446.16,0,0,0-4.26,55.6c-8.85.86-19.51,5.22-26.16,11.2,1.2-22.39,2.94-44.57,5.94-66.79-4.05-2-6.47-5.86-7.54-11.16-.72-15.77.39-34.87,9.71-48.38,5.22-4.83,9.75-6.07,15.62-7.21Z"/>
  <path class="scroll" d="M899.31,1374.86c1.43,2,3.38,2.49,5.92,1.24,3-11.61,6.3-22.95,9.94-34.37,0-2-4.78-3.2-6.91-2C905.68,1351.65,902.75,1363.18,899.31,1374.86Z"/>
  <path class="book" d="M950.23,1347.49c-4.64,4.9-8.35,6.21-13.64,7.76a33.87,33.87,0,0,0-2.73-12.67,31.08,31.08,0,0,0,11.73-10.8c-1.91-6.07-2.87-9.11-4.79-15.18L921.29,1330l11.1,35.18,19.51-13.42C951.23,1350.06,950.89,1349.2,950.23,1347.49Z"/>
  <g class="stJosephRear">
    <path d="M906.12,1268.35c1.37,8.64,6,21,15.6,21s14.34-12.27,15.61-21c1.43-9.79-5.51-18.8-15.61-19C911.36,1249.17,904.55,1258.51,906.12,1268.35Z"/>
    <path d="M927.32,1285.08c.9,3.88,1.34,5.82,2.24,9.71a12.8,12.8,0,0,1-14.56,0l2.25-9.71Z"/>
  </g>
  <g class="stJosephFront">
    <path d="M909.57,1276.49c0,7.39,6.54,15.28,12.15,15.28,5.8,0,12.14-7.63,12.14-15.28,0-9.91-2.23-16.28-12.14-16.38C912.11,1260,909.57,1266.12,909.57,1276.49Z"/>
    <path d="M925.38,1350.86c1.47,3.37,5.38,5.52,8.59,3.75,4.56-2.53,5.06-5.23,3.72-8.65s-3.65-4.12-8.59-2.65C925.6,1344.36,923.49,1346.5,925.38,1350.86Z"/>
    <path d="M900.3,1355.34c-1.67,3.27-1.14,6.38,2.84,9,3.06,2,7.11.34,8.92-2.86,2.19-3.9.56-6.54-2.84-7.88C904.13,1351.57,902,1352.06,900.3,1355.34Z"/>
  </g>
</svg>
