<svg viewBox="0 0 300.76 139.43">
  <path class="wallFront" d="M294.38,30.18q-2.72,54.35-.21,108.74-143.8-.28-287.61,0Q9.05,84.58,6.35,30.18,150.35,26.93,294.38,30.18Z"/>
  <g class="frameDarkFront">
    <path d="M226.15,61.3q-.32,27.33,0,54.66l-36.79-.34q-.18-27.41,0-54.82Q207.77,61,226.15,61.3Z"/>
    <path d="M280.08,62q-.51,27.14.11,54.26l-36.8-.43q-.44-27.29-.06-54.56Q261.71,61.56,280.08,62Z"/>
    <path d="M56.69,61.48q.38,27.27-.07,54.56-18.39,0-36.79-.05.63-27.13.11-54.26Q38.32,61.57,56.69,61.48Z"/>
    <path d="M110.63,61q.16,27.42,0,54.82l-36.78-.14q.35-27.33,0-54.66Q92.25,61,110.63,61Z"/>
    <path d="M174.28,138.76q-.3-39.61-.15-79.24-24-.06-48,0,.15,39.62-.15,79.24Z"/>
  </g>
  <path class="doorDarkFront" d="M168.35,138.76q-.19-36.46-.12-72.92-18.06,0-36.11,0,.09,36.45-.13,72.91Z"/>
  <g class="glassDark">
    <path d="M221.32,66.12q-.18,22.48,0,45l-27.2-.09q-.15-22.53,0-45.06Q207.74,66,221.32,66.12Z"/>
    <path d="M275.22,66.71q-.32,22.33.09,44.66l-27.22-.16q-.32-22.42-.06-44.84Z"/>
    <path d="M52,66.38q.25,22.41-.06,44.83l-27.22.16q.42-22.32.09-44.65Q38.39,66.54,52,66.38Z"/>
    <path d="M105.89,65.94q.12,22.53,0,45.06l-27.21.09q.23-22.49,0-45Q92.29,66,105.89,65.94Z"/>
  </g>
  <g class="windowDisplayLine">
    <path d="M207.73,66q-.15,22.5,0,45"/>
    <path d="M221.23,88.6q-13.57-.07-27.15-.13"/>
    <path d="M261.63,66.53q-.3,22.38.07,44.75"/>
    <path d="M275.07,89q-13.57-.14-27.16-.25"/>
    <path d="M38.39,66.54q.3,22.38-.07,44.75"/>
    <path d="M52.11,88.79,25,89.05"/>
    <path d="M92.29,66q.17,22.52,0,45"/>
    <path d="M106,88.47l-27.16.13"/>
  </g>
  <path class="roofSide" d="M299.19,30.3c.13-2.41.2-3.61.34-6q-149.14-3.66-298.33,0c.15,2.4.21,3.6.34,6Q150.35,26.82,299.19,30.3Z"/>
  <path class="roofTop" d="M299.53,24.29,277.42,2Q150-1,22.58,2.05,11.9,13.18,1.2,24.29,150.34,20.63,299.53,24.29Z"/>
</svg>
