<svg viewBox="0 0 3163.14 1726.62">
    <g class="mountainRear">
        <path d="M3062.87,803c29.06,74.79,22.25,546.08,30.65,922.59H2058.2c2.92-62.48,7.24-121.56,18.73-163.33,15.09-65,54.51-59.71,61.28-126,5.65-107.22,8.17-206.43,25.54-311.54,10.4-69,64.27-74.37,64.69-134.27,2-49.29,13.95-83.84,13.95-83.84l148.27-.18c3.6-97.38,7.54-163.38,25.31-217.51l73.2-20.43c.65-57,3.59-125.37,15.33-193.88,7.07-48.49,64.23-52.21,69.79-102.34,5.68-72.2,11-142.94,32.24-223,10.83-34.15,35.37-52.08,68.2-61.28,45.4-7.85,91.78-7.79,140.6,3,35.28,9.57,52.2,33.42,56.88,66.8,10.57,128.62,46,32,57.88,187.26,9.19,120.73,32.18,67.51,42.86,168.53,8.78,92.4,16.33,179,18.42,270.38Z"/>
        <path d="M1110.44,1725.56c2.55-42.87,5.59-72.24,0-106.14-9.61-68.41-57.21-41.06-71.83-120.43.19-98.13-2.09-193.23-15-285.21-13.92-99.32-72.61-27.5-80.46-195-3.33-50-22.39-112.14-22.39-112.14-56.6-.84-84.18,1.7-129.38,0-.13-111.48-6.9-261.85-26.6-309.74L696,580c-1.45-110.36.07-236.57-11.68-279.76-10.09-74.06-46.55-53.8-56.93-125.87-7.16-99.65-21-162.92-124.65-171.91-46.28-3.17-104-1.14-141.55,5C267.09,27.67,251.89,62.11,234.47,125.79c-11.77,54.31-16.42,115.06-16.9,179.58C220.49,429.79,178,361.93,166.86,485c-11.15,84-15,170.74-12.67,259.86l-65.5,19q-12.45,156.1-10.56,304.23c-.45,162.94-46,79.88-63.38,259.86-11.49,135.25-16,267.92-12.68,397.7Z"/>
    </g>
    <g class="road">
        <path d="M2991.37,784c32-.68,69.71,8.36,71.5,19,12.47,41.93-390.79,132.83-820.48,103.64,371.31-2.61,591.84-47.45,713.06-79.54C2992.25,817.07,3027.21,801.06,2991.37,784Z"/>
        <path d="M2489.17,668.55c-28.75,1.82-74.26,11.26-73.2,20.43,34.73,24.56,308,32.14,482.8,17.76-150.58,3.44-370.78-3.52-403.11-23.53C2488.27,679.29,2489.87,674.47,2489.17,668.55Z"/>
        <path d="M154.19,744.81c-17.78,17.11,5.86,26.68,44.45,43.12C304,829.57,542.9,901.2,920.74,906.67,514.15,919,174.33,829.76,88.69,763.83,83.8,749.86,120.29,744.81,154.19,744.81Z"/>
        <path d="M696,580c31.33,2.75,62.55,5.54,68.72,16.91-21.45,37.53-357,35.62-536.9,18.29,172.6,10.11,378.12,1.54,438.23-12.88C702.94,592.93,701.86,588.13,696,580Z"/>
    </g>
    <path class="taiwanTreeFurthest" d="M2930.05,569.22c17.85,10.91,25.11,28.6,12.38,34.17,11.34,16.5,22.88,36.09,8.94,39.69,9.94,16.2,17.9,31.34,2,33.71,11,15.37,13.21,27.57-16.36,28.25h-22.3c-19.23-24.4-24.52-36.89-12.39-62.46-7.89-6.92,4.38-27.92,15.86-39.13C2903.32,599.94,2918.65,576.66,2930.05,569.22Z"/>
    <path class="taiwanTreeMiddle" d="M2882.17,556.26c10.35,2.8,32,41.79,12.79,39.33,14.21,16.11,25.56,36.88,8.85,40.32,12.87,13.54,23.6,32,8.85,36.87,9.63,18.88,21.93,41.74-21.27,34.72-6.66,3.42-14.87,3.23-24.46-.2-32.18,6.77-36.77-11.75-15.73-38.75-18.69-5.11-3.81-24.22,7.86-36.77-16.33-6.61-4.17-22.24,8.85-38.16C2851.2,589.2,2870.37,560.68,2882.17,556.26Z"/>
    <path class="bonsaiFurther" d="M310.91,505.17c-4.09-23.49-31.77-22.64-50-4.2-10.54-13.69-29.79-11.23-35.05.28-19.74-9.32-37.07,1.62-34.33,15.47,1.05,12.14,22.75,15.67,33,3.88,6.16,12.84,29,11.06,36.49-.69C274,534.83,315.36,527,310.91,505.17Z"/>
    <path class="treeTrunk" d="M285.43,617.88c10.42-77.61-29.78-101.26,21.3-172.68-59.59,68.58-9.46,108.31-35.47,172.15Z"/>
    <g class="bonsaiCloser">
        <path d="M354.44,437.26c16.69-13.06,45.66-16.34,49.58,8.14,2,21.5-34.12,22.87-47,9.69-6.5,15.46-36.13,16-44.07,3.69-8.5,9.23-37.8,6.38-37.69-8.31-.36-20.38,23.81-21.39,37.18-11C318.73,424,345.32,423.47,354.44,437.26Z"/>
        <path d="M343.15,562c0-18.59-22.78-24.05-36.42-10.87-11.84-18-49.19-13.79-49.19,8,0,16.5,37,18.22,47.68,6C313.09,581.3,341.91,577.66,343.15,562Z"/>
    </g>
    <path class="palaceTrimSide" d="M2636.16,708.11a1377,1377,0,0,0,143.67,0q-1-58.4-1.42-116.79-70.42,1.66-140.83,0Q2637.12,649.71,2636.16,708.11Z"/>
    <path class="palaceTrimFront" d="M2708,710.17q-36-.17-71.83-2.06,1-58.4,1.42-116.79,35.21.84,70.41.92Z"/>
    <g class="palaceWallSide">
        <path d="M2672,511.73q36,.06,71.94,0,0-43.43.11-86.84-36.08-.31-72.15,0Q2672,468.31,2672,511.73Z"/>
        <path d="M2655.31,591.72q52.7.91,105.36,0-.21-40-.25-80-52.43.13-104.85,0Q2655.52,551.71,2655.31,591.72Z"/>
        <path d="M2724.68,710.06q20.21-.27,40.38-1.19-.75-58.61-1.13-117.21-19.79.4-39.58.53Q2724.47,651.13,2724.68,710.06Z"/>
    </g>
    <g class="palaceWallFront">
        <path d="M2708,511.77q-18,0-36,0,0-43.43-.1-86.84,18-.18,36.07-.19Z"/>
        <path d="M2708,592.24q-26.34-.06-52.68-.52.21-40,.26-80,26.22.07,52.42.08Z"/>
        <path d="M2650.93,708.87q20.18.92,40.38,1.19.21-58.93.33-117.87-19.8-.12-39.58-.53Q2651.69,650.27,2650.93,708.87Z"/>
    </g>
    <g class="palaceRoofTrimBelow">
        <path d="M2708,522.63c-37.68-.18-81.33,6.8-94.29-35.31,22.55,12.44,43,14.57,67.45,14.67,11.13.05,20.7-5.4,26.84-14.84,6.15,9.44,15.71,14.89,26.85,14.84,24.47-.1,44.9-2.23,67.44-14.67C2789.36,529.45,2745.62,522.45,2708,522.63Z"/>
        <path d="M2708,604.26c-26.92-.16-63,3.25-88.12-9.47-13.67-6.92-17.54-19.45-21.73-33.33,25.29,15.17,49.79,18.77,78.53,18.66,13.29,0,24.08-5.84,31.32-17.1,7.52,10.62,18.25,17.44,31.33,17.1,28.13-.72,53.1-3.41,78.53-18.66-4.17,13.85-8.12,26.44-21.73,33.33C2771,607.51,2735,604.1,2708,604.26Z"/>
    </g>
    <path class="palaceRoofTrimAbove" d="M2708,439.78c-22.72,0-57.52,3.15-63.37-25.76,19.79,6.61,38.94-5.45,48.57-22.52,16.48-30.21,12.93-75.11,14.79-108.27,1.85,32.82-2.13,78.58,14.8,108.27,9.63,17.07,28.78,29.13,48.57,22.52C2766,443,2730.4,439.82,2708,439.78Z"/>
    <path class="wallSide" d="M375.48,563.21l47.14.07q-.25,28.9-1.45,57.76-24.15-.3-48.3-.88C374.32,601.17,375.19,582.25,375.48,563.21Z"/>
    <path class="wallFront" d="M560.69,505.34c8.84.13,12.9,5.84,12.58,12.77a11.79,11.79,0,0,1-4.75,9.59c3.53,9.77,10.25,19.84,17.24,27.48.09,21.74,1,43.33,2.59,65q-27.09.59-54.18.94Q532.06,563,533.79,505C544.55,505.12,549.93,505.19,560.69,505.34Z"/>
    <path class="roofBelow" d="M585.76,555.18c3.37,3.87,6.76,7.32,9.8,10.25l-9.77,0C585.75,561.35,585.75,559.3,585.76,555.18Z"/>
    <g class="roofSide">
        <path d="M551,527.55c-6.12,14.46-16.95,27-27.91,38l-53.78,0c11-11,21.8-23.7,27.61-38.32Q524,527.37,551,527.55Z"/>
        <path d="M438.09,539c-5.27,12.87-14.18,23.84-24.11,33.41q-23.6-.07-47.19-.22c10-9.35,18.91-20.18,24.06-33Q414.48,539,438.09,539Z"/>
    </g>
    <g class="roofFront">
        <path d="M497,527.29c-2.66-2.34-4.34-4.83-4.32-9.77,0-7,4.5-12.74,13.34-12.7q27.36.15,54.71.52c-8.84-.13-13.5,5.49-13.73,12.48-.16,4.9,1.47,7.39,4.08,9.73Q524,527.36,497,527.29Z"/>
        <path d="M390.85,539.18a10.18,10.18,0,0,1-4-8.4c-.2-6.08,3.4-11,11.09-11.14q23.79-.27,47.57-.39c-7.69,0-11.41,5-11.31,11.2a10.21,10.21,0,0,0,3.93,8.52Q414.47,539,390.85,539.18Z"/>
    </g>
    <path class="wallSide" d="M533,549.45q-29.21,0-58.42,0,0,36-.17,72,29.93.06,59.85-.3Q532.94,585.29,533,549.45Z"/>
    <path class="wallFront" d="M445,494.84c-9.67.08-14.25,6.31-14,13.93.17,5.34,2.08,8,5,10.53a148,148,0,0,1-18.88,30.17q.08,35.79-1.57,71.49,29.43.43,58.86.46.3-63.36,0-126.71Q459.7,494.73,445,494.84Z"/>
    <g class="door">
        <path d="M434.33,621.19c8.52.09,12.78.12,21.31.17q.39-22.32.56-44.63c-8.33,0-12.5,0-20.83-.05Q435.06,598.94,434.33,621.19Z"/>
        <path d="M571.07,620.56c-7.85.15-11.77.22-19.62.34q-1.11-20.39-1.49-40.79l19.2-.12Q569.66,600.29,571.07,620.56Z"/>
    </g>
    <path class="roofSide" d="M417.12,549.47c-3.65,4.26-7.31,8.07-10.58,11.3h10.6C417.15,556.26,417.15,554,417.12,549.47Z"/>
    <path class="roofFront" d="M455.06,519.21c7,15.72,17.86,29.62,30.12,41.59l58.41,0C531.34,549,520.56,535,514,519.24Q484.54,519.11,455.06,519.21Z"/>
    <path class="roofTop" d="M514,519.24c2.94-2.53,4.84-5.21,5-10.57.18-7.63-4.47-13.86-14.14-13.91q-29.93-.15-59.85.08c9.67-.07,14.61,6.11,14.71,13.75.07,5.36-1.76,8.07-4.63,10.62Q484.54,519.09,514,519.24Z"/>
    <path class="taiwanTreeFurther" d="M2922.44,937.78c-22.43-26-53.28-2.21-45.2,22.6-31.24,1.1-41.53,37.12-19.11,53.65-19.84,6.25-21.31,35.28-1.1,42.26-28.66,13.23-15.07,63.21,16.9,57.7-3.3,20.58,26,42.69,45.47,32,63.8,12.22,81.8-81.41,50.06-202.59C2964.08,922.87,2931.7,914.53,2922.44,937.78Z"/>
    <path class="mountainFront" d="M3159.35,1725.62H2688.44c-2.26-75.78,8.64-163.53,25.53-224.11,20.39-74.21,70.2-52.59,80.85-113.47,9.3-65.63,23.79-126.27,46.81-178.72,16.61-33.11,48-58.78,82.26-67.5s114.39-15.56,153.77-4c38.93,11.42,50.41,29.26,64.67,89.94C3163.29,1351.57,3165,1558.55,3159.35,1725.62Z"/>
    <path class="taiwanTreeCloser" d="M3089.66,1137.82c26-2.7,32.2-35.41,7.15-44.79,50.77-3.11,59.22-68.89,8.71-84.93,29.57-23.28,9-58.93-22.77-52.28,22.94-39-26.67-76.84-60.62-44.71-24.85-28.09-70.78-14.86-68.2,28.79-32.35-1.39-49.62,38.67-22.73,61.38-34.61,17.34-28,62.54,5.94,72-25.48,18.85-17.77,56.33,10.73,65.93,26.46,4.37,50.15,2.39,70.49-7.27C3042.08,1139.26,3065.84,1141.69,3089.66,1137.82Z"/>
</svg>
