<svg class="taiwanMountainRight"
    xmlns="http://www.w3.org/2000/svg" viewBox="0 0 1539.6 709.82">
    <path class="mountainBack" d="M27,564.8c-4.1,11-7.69,22.23-9,34-.45,4.1-2,7.89-2.65,12-1.66,11.05-3.46,22.12-6,33-3.64,15.67-4.47,31.65-6.53,47.5C2.13,697,.91,702.54,1,708.55c1.81.08,3.65.24,5.49.24l709,0c6.8,0,12.74-3.25,19-5.18,21.63-6.75,43-14.25,64.55-21.32,18.13-6,36.34-11.65,54.49-17.53,18.35-5.95,36.67-12,55-18l52-17,55-18,55-18,55-18,55-18,55-18,55-18,52-17,55-18,55-18q27.49-9,55-18c9-3,17.94-6.2,27-8.88,3.27-1,4-2.47,4-5.61q-.1-162,0-324v-4.69c-7.39-1.62-14.51-1.15-21.51-1.68-13.31-1-26.62-2-40-2.39-13.65-.41-27.32-2.11-41-1.66-21.33.71-42.66.87-64,1a256.38,256.38,0,0,0-49,4.52,92.23,92.23,0,0,0-31,12c-14.1,8.8-25.71,20.5-36,33.43-10.12,12.69-21.78,23.42-35.93,31.65-6.9,4-14,6.6-21.5,9.12-10.21,3.45-20.52,4.95-31.06,6.43a245.63,245.63,0,0,1-34.53,2.76c-16.18,0-32.34,0-48.51-.83-5.62-.28-11.33-.34-17-.37-16.36-.09-32.65,1.53-49,1.3-25.83-.36-51.67.69-77.49,1.27-17.17.38-34.38-.47-51.49.82-17.86,1.34-35.72-.15-53.5,1-10.71.71-21.33.54-32,.46-6.23,0-12,3-18,4.9-12.14,3.89-23.87,8.64-34.57,15.86-7.61,5.13-13.12,12.27-19.34,18.69-6.64,6.87-13.46,14-18.34,22.06-6,10-13.13,19.46-18,30-6.86,14.73-14,29.36-20.13,44.43-3.53,8.73-8.06,17-11.4,25.84-1.61,4.25-4.72,8.29-7.62,12.19-9.44,12.68-22.23,19.63-37.06,24.08a247,247,0,0,1-24.07,6.19c-6.36,1.23-13,.81-19.46,1.71-16.77,2.36-33.7,2.7-50.53,3.62s-33.65,1.6-50.48,2.37c-12.33.57-24.69.5-37,1.22-6.14.36-12.37.32-18.53,1.09a29,29,0,0,1-10.46-1c-8.19-2-16.39-.47-24.52-.24-14.17.39-28.35-.22-42.5.4-15.68.68-31.42,1.24-47,3.15-12.37,1.51-24.74,3.45-37.07,5.52-11.27,1.89-22.7,3.31-33.92,5.46-14.91,2.86-29.89,5.47-44.6,9.58-8.47,2.36-17.25,4-26,5.62-9.56,1.79-18.63,5.18-28,7.59-18,4.62-33.71,13.75-48.41,24.62-11.25,8.31-21.51,18.1-28.9,30s-12.77,25-17.15,38.4c-1.56,4.76-3.49,9.44-4,14.49Z"/>
    <g class="pineSide">
        <path d="M480.5,372.3a80.48,80.48,0,0,1,12.13,23.46c4.06,13.06-4.58,27-20.16,25.31-6.41-.69-11.75-3.22-16.87-5.11-18.16,10.92-35.42,7.18-52.63-1.06.19-.77.61-1.49.49-2.09-1.89-9.43-2.68-19-4-28.5-.77-5.5-1.17-11.07-2.15-16.48-1.55-8.65-2.23-17.4-3.78-26-1.13-6.31-2.47-12.63-2.89-19-.38-5.73-1.55-11.31-2.17-17-.69-6.37-1.93-12.7-2.73-19-.73-5.77-1.6-11.61-2.26-17.72h22.64c2.67-16.27,12.64-29,19.9-43.25-8.17,0-10.6-1.13-11.41-6-.46-2.8.51-5.7,1.38-8.49,3.87-12.44,8.38-24.53,18.53-33.48,3.67-3.24,6.6-3.49,10.44-.45a27.69,27.69,0,0,1,6.07,6.42c6.86,10.56,10.43,22.38,12.92,34.53,1.54,7.52-1.37,12.24-8.44,15l-2-3c2.33,6.39,7.32,11.11,10.69,16.88,2.61,4.47,4.54,9.25,7.14,13.72,4,6.86.19,15.38-7.33,18.4l-1.5-2c3.63,7.43,9.05,13.73,13.15,20.91a46.29,46.29,0,0,1,6.19,20.1c.5,7.49-1.76,9.15-10.34,12l-2-3c1.25,3.23,3.38,5.63,5.87,8.12a63.54,63.54,0,0,1,15.55,24.9c2.5,7.51,1.26,13.24-6.17,16.73Z"/>
        <path d="M271.5,363.3a19,19,0,0,0-2.5,0c-7.37,1-9.79-3-9.58-9.51.22-7,2.78-13.48,5.79-19.39,4.26-8.36,8.12-17,12.79-25.11l-1,.5a9.38,9.38,0,0,0-6.46,0c-4.49-4.49-5.2-5.49-4.5-8.53a77.42,77.42,0,0,1,5.82-17.08,191.5,191.5,0,0,1,10.58-18.34c-8.84-1.77-11.95-5-10.3-12.56,2.8-12.89,7.83-25.16,17.51-34.37,7.45-7.1,11.57-6.58,17.13,2,7.8,12,14,25.05,14.72,39.86l-2.5,1h34.56c-2.42,11.66-4.75,22.83-7.06,34Q342.74,314,339,332.3c-2.5,12.17-5.05,24.32-7.49,36.5-2.4,12-4.45,24.05-7.13,36-1,4.5-2.11,9-2.85,13.53-1.1,6.78-2.2,7.84-8.53,8.53-8.48.93-16.84,2.95-25.52,1.6-3-.47-5.9,1.79-8.93,2.58A41.34,41.34,0,0,1,268,432.29c-6.08,0-10-4.55-8.42-10.47a77,77,0,0,1,4.46-11.5,79.72,79.72,0,0,1,4-7l-2,1c-.84.17-1.68.31-2.5.5-6.35,1.46-9.84-1.61-9-8,.37-2.73,1.87-5,3-7.51,3.45-7.7,9.71-13.71,13-21.5,1.08-2.54,1.07-5.58,3.51-7.49Z"/>
    </g>
    <path class="pineCentre" d="M339.5,218.8c-1.1,5-3.89,9.31-6.61,13.43-6.38,9.6-10.84,20.1-15.28,30.62-1.3,3.06-2.51,6.76.39,9.94,2.06,2.26,4.51,3.52,7.47,1.95a3.91,3.91,0,0,1,3.53.06l2-2.5c-7.07,14.05-15.15,27.59-20.58,42.47-3.21,8.79,3.12,15.65,12.06,14.82,1.47-.14,3.17,1.27,4.52-.29l-1,1c-6.67,13.67-13.63,27.2-19.82,41.08-1.78,4-3.63,9,.29,13.44,3.06,3.48,10.78,3.3,14-.52l-2.5,3a6.26,6.26,0,0,1-1.47,3.52c-5.76,6.95-8.66,15.08-9.53,24-.41,4.23,2.8,6.93,5.15,9.35,4.6,4.76,10.28,6.43,17.41,4.94,4.77-1,9.6-1,14-3.67,1.37-.83,3.06.69,4.46,1.83,7.64,6.21,16.57,7.2,26,6.05,2.66-.33,5.38-.46,8-1,5.71-1.29,10.13-4.73,13.65-9.14,11.31,5.78,19.41,2,24.76-3.42,6.21-6.26,9.55-14.65,4.6-24.4l1.5,2c3.35-.1,6.74,1.66,10-.95,6.09-4.82,6.76-11.24,3.71-17.42a83.42,83.42,0,0,0-13.61-19.76C421.84,354,416,349.64,412.5,343.3l2.5,2.5c5.21-1.19,9-3.51,10.11-9.48,1.24-6.66-.13-13.05-3.82-17.86-8.08-10.51-15.37-21.72-24.85-31.11-1.07-1.06.4-1.38.06-2.05l1.5,3c8.82-2.63,11.06-5.07,11.48-13,.65-12.26-4.89-22.4-11.55-32-4.88-7-9.63-14.16-16.88-19.78,10.59-3,12.67-5.71,12.41-15.77-.17-6.37-2.5-12.24-5-18-4.48-10.32-10.83-19.5-17.46-28.52-4.85-6.6-8.9-7.33-15.5-2.47a32.18,32.18,0,0,0-4.49,4c-6.2,6.65-9.24,15.18-13.61,22.93a66.13,66.13,0,0,0-7.88,20.05c-.92,4.77,1.34,9.92,5,12,2.63,1.51,5.46.5,7-2.5Z"/>
    <g class="bonsaiLeavesBack">
        <path d="M799,214.3c9.25,5.09,19,7.13,29.51,5.1,2.54-.49,5.32.37,8,.38,28.33,0,56.66,0,85,.06,3.3,0,5.86-.48,8.09-3.47,4.37-5.87,10.9-9.41,16.4-14.08,9.27-7.87,13.59-17.46,12.26-30-.68-6.35-2.64-12.15-6.5-16.24A32.58,32.58,0,0,0,931,145.71c-13.56-1.34-26.86.17-40,3.28-3.37.8-7.06,1.86-10.08,4.26-4.44,3.51-18.65,4.24-23.9.95-6.58-4.11-13.92-4.4-21.07-4.67a94.36,94.36,0,0,0-15.53.49c-11.42,1.48-20.36,6.63-28,14.79-1.21,1.3-2.26,2.75-3.3,4C776.86,158.27,764,151.91,748,153.23c-15,1.24-28.6,5.74-40.61,15.2-3.52-1-6.35-3.46-9.82-4.8-8.13-3.14-16.46-3.11-24.52-1.6-8.22,1.54-16.13,4.84-22.56,10.75-5.54,5.1-6.71,12.95-3.44,20,1.59,3.44,3.8,6.61,5.68,9.89,2.68,4.64,8.15,6.1,13.28,7.1,11.66,2.27,23,.75,34-3.46,1.13-.43,2.33-.69,4-1.17,4,7.36,11.38,10.89,18.53,14.56,2.85,1.45,6.31,1.66,9.44,2.62,10.77,3.27,21.33,5.93,33,6,13.34,0,23.49-5.22,33.5-12.47Z"/>
        <path d="M1128,391.3c8.18,10.06,19.65,14.26,31.48,18.05,13.62,4.36,32.62-4.21,34.77-18,1.08-6.94-.28-13-4-17.86-4.87-6.34-12-10.66-19.3-14.09a37.28,37.28,0,0,0-30-1.07c-4.1,1.54-8.56,1.91-12.54,3.9a2.24,2.24,0,0,1-2.57-.82c-10.25-10.92-23.51-14.28-37.89-14-7.31.12-13.82,3.45-19.93,7.05-3.59,2.12-7.55,3.84-10.49,7.39-12.34-11.44-26.84-16.75-43.08-15.86S984.93,355.3,972,364.33c-5.81-6.53-12.8-10.93-21-14.18-13.19-5.25-26.41-5.79-40.06-2.9-3.49.74-6.19,3-9.45,4.16-2.17.77-2.07,3.25-2.07,5.39,0,14,.62,28-.23,42-.42,7,2.26,10.68,7.16,14.63,6.62,5.33,13.2,10.22,22.1,10.37,17.36.29,32.12-5.67,44.51-18.5,2,.19,3.89,1.93,6,3.07,12.95,7.23,26.77,11.25,41.48,8.7,7.54-1.3,14.94-3.4,21.86-8.32,6.15-4.37,11.3-8.55,14.13-15.68,5.11,2.21,8,7.24,13,9.29a56.79,56.79,0,0,0,35,3,43.67,43.67,0,0,0,23-13.58Z"/>
        <path d="M832.5,76.3c-5.44,8.28-13.7,11.54-23,13-5.21.82-10.3.24-15.52-.33a26.47,26.47,0,0,1-17-8.21c-4.13-4.31-6.16-13.54-3.45-17.42C780.65,53.19,791,47,805.51,49.75a33.22,33.22,0,0,1,12.71,5.71c2.7-4.05,5.32-7.8,7.76-11.67,6.9-10.93,16.76-17.48,29.53-18.86,7.16-.78,14.4-.05,19.49,6.37v-1a8.4,8.4,0,0,0,2-1.52,60.35,60.35,0,0,1,24.52-21c11.45-5.42,23.4-8.39,36-5.88a47.74,47.74,0,0,1,27.11,15.81c3.71,4.22,6.33,9,9,14.38,4.39-4.13,7.78-8.22,12.84-10.33,14.19-5.94,28.62-9.15,44-5.5,10.67,2.53,20.11,6.68,25.49,17v1c9.28-13.56,24.11-13.8,38-14.66,7.24-.44,14.75,2.06,21.57,6,6.25,3.61,12.3,6.94,14.9,14.16,3.57,9.89,4.29,17.25-5.88,24.66-7.7,5.62-15.7,9.74-25.12,10.8-16.83,1.91-31.34-3.53-44.33-14.19-9,13.18-22.33,19.44-38.16,19-15.15-.4-28.67-6-39.13-17.93a7.82,7.82,0,0,0-4.35,4.16C969.34,74.86,960.7,78,953.37,82.6c-2,1.28-5.75.87-8.33.06-5.95-1.87-12.08-.83-18.08-1.52-6.55-.75-13.3-1-20-1.46-12.51-.8-25-1.26-37.52-2.79-5.11-.62-10.35-.65-15.49-.85-6.35-.26-12.62-1.59-19-1.24Z"/>
    </g>
    <path class="bonsaiTrunk" d="M901.5,98.3c-3.46-1-7-.37-10.51-.43a3.32,3.32,0,0,0-3,1.43c-4.51,7.5-9.44,14.78-13.39,22.56a192.46,192.46,0,0,0-11.4,26.51c-2.08,6.33-4.5,12.61-4,19.95a284.25,284.25,0,0,1,.06,41c-1.28,16.7-.2,33.36-.84,50a12.74,12.74,0,0,0,2,7.49c12.13,19.27,17.32,40.59,19.69,63,1,9,.64,18,1.12,27,.67,12.34-3.09,24.19-6.35,36s-6.36,23.57-9,35.49c-2.5,11.1-4.39,22.26-6,33.51-2,14.27-1.14,28.43,1.17,42.49,1.84,11.25,4.12,22.47,7,33.49,3.14,12,6.93,23.79,11,35.5,3.8,11.06,8.32,21.88,12,33,1,3.12,3.28,4.76,7.41,4.69,21.49-.35,43-.16,64.5-.16,2,0,4,.21,6-.57.45-2.69-2.27-2.82-3.58-3.85-9.15-7.18-14.23-17.71-21.87-26.14-11.81-13-20.65-28.3-27.64-44.13-4.93-11.15-10.25-22.69-11.49-35.3-.19-1.89-1.21-3.7-1.94-5.51-2.57-6.25-2.76-12.91-3.56-19.49a182.69,182.69,0,0,1,.27-45.49,97.27,97.27,0,0,1,6.48-23.45c3.09-7.68,4.64-15.62,6.23-23.59,1.34-6.74,2.82-13.42,2.79-20.48,0-8.05-.58-16-1.21-24-1-13.28-4.63-26.15-7.86-38.91-3.6-14.28-9.38-28.19-18.74-40a11.35,11.35,0,0,1-2.45-7.09c-.94-14.49-1.41-29-2.21-43.49-.35-6.33.18-12.77-.85-19-1.69-10.15.26-20.46-1.9-30.52-1.24-5.75,2.14-10.41,3.59-15.48,3.74-13.06,9.55-25.37,14.59-38,1-2.52,3-4.81,3.84-7.56Z"/>
    <g class="bonsaiLeavesFront">
        <path d="M792.5,443.3c7.46,5.56,15.32,10.14,25,10.56,1.69.07,3.31,1.26,5,1.39,18.65,1.47,35.06-3.94,49-16.49,5.09-4.59,6.34-11,7-17.46.53-5.19-2.82-8.87-6.06-11.9C861.22,398.93,848.06,396,833,399.12a123.23,123.23,0,0,0-24.07,7.94c-9,3.92-16.32,10.08-25,15.41-4.89-3-9.93-6.51-16.31-7.86-7.18-1.52-14.18-.68-21,.43a55.22,55.22,0,0,0-18.07,6.72c-7.47,4.23-11.12,10.68-11.42,19-.19,5.41,3.25,9.35,7,12.4,7.65,6.18,16.45,8.1,26.44,7.28,14.25-1.18,26.43-6.55,37.5-15.16a42,42,0,0,1,4-2.52Z"/>
        <path d="M835.5,75.05c-6.06,13.81,0,22.29,12.43,26.45,6,2,12,3.74,18.06,5.3a33.32,33.32,0,0,0,25.41-3.67c3.26-1.86,5.23-1.56,8.13.11,12.43,7.17,25.57,9.9,40,7.21,9.69-1.81,16.3-6.64,21.1-15.08,2.59-4.56,1.09-8.47-.17-12.56-2.23-7.28-9-9.23-15-11.35a40.24,40.24,0,0,0-26-.76c-3.46,1.08-6.8,2-9.15,4.8-1.36-.73-2.07-1.19-2.44-2.67A12.2,12.2,0,0,0,902,65.31a56.1,56.1,0,0,0-21-7.73,69.84,69.84,0,0,0-23,.21c-9.23,1.75-16.26,6.45-20.51,15a4.67,4.67,0,0,1-1,1Z"/>
        <path d="M870.5,217.3c.14-3.84-2.68-5.22-5.51-6.49-15.4-6.9-30.43-7-43.89,4.11a46.13,46.13,0,0,0-15.17,23.44c-8.92-2.27-17.78-2.53-26.44,1.43A24.5,24.5,0,0,0,768,250.32c-2.43,4.34-4.06,8.63-2.23,14,1.72,5,6.39,10.73,11.18,11.46,10.09,1.55,19.42-.92,28.51-5,3-1.33,4.37-4.36,7.46-6.32,6.86,7.21,15.66,10.65,25.51,12.44a61.39,61.39,0,0,0,22-.22c9-1.6,17.12-5.59,24.48-11,1.94-1.42,3.33-1.36,5.58-.56a49.45,49.45,0,0,0,26,2.47c8-1.41,15.65-3,22.91-6.41A36.53,36.53,0,0,0,955,247.3l.5,1.5c6,4.18,13.2,4.79,20,6.44a58.62,58.62,0,0,0,22.94.78c9.27-1.51,19.27-3.44,25.85-10.9,4.44-5,8.86-4.86,13.65-2.72,10.07,4.5,20.29,3.33,30,.17,10.53-3.44,19.36-10,23-21.3,1.66-5.18.34-14.9-6.91-17.46-.14-.06-.41.06-.48,0-6-7.29-14.34-8.53-23-9.66-3.46-.44-7.23-.63-9.92.43-7.82,3.08-16.86,3.52-23.17,10.18-1.37,1.44-3.58,2.09-5.63,3.23-6-5.68-13-10.29-21.32-11-11.86-1-23.17,1.48-33,8.83-5,3.71-9.94,7.4-14.7,10.94-8.88-4.89-16-11.77-25.13-16.28-11.07-5.48-21.41-5.31-32.69-2.27-8.1,2.19-14.31,6.82-20,12.59-1.4,1.43-3,2.69-4.48,4Z"/>
    </g>
    <path class="mountainFront" d="M699.5,693.8c-2.68,3.56-3.09,8-4.54,12-1,2.74.38,3.1,2.54,3,.83,0,1.66,0,2.5,0h838.5v-5.5q0-135.75.1-271.5c0-4.39-1-6.3-5.6-6.59a250.47,250.47,0,0,1-26-2.53c-11.3-1.91-22.76-.68-34-2.49a31.7,31.7,0,0,0-5-.36c-17.5-.05-35-.72-52.49.27-8.31.47-16.72-.09-25,1.54-6.18,1.22-12.59-.59-19,0-11.45,1.11-23,1.5-34.49,2.09-1.82.1-3.7-.63-5.49-.41-13.8,1.7-27.72.06-41.5,1.52s-27.38,2-41,3.61c-10.17,1.2-20.34,2.71-30.53,3.14-11.7.5-23,3.21-34.47,4.83-7.45,1.05-14.77,3.24-22,5.41-14.39,4.3-28.54,9.47-43.06,13.28-13,3.42-25.35,8.52-37.41,14.25-11.21,5.33-21.93,11.54-30.11,21.35-2.39,2.87-5.71,4.94-8.41,7.58-12.1,11.79-19.37,26.59-25.48,42-5.42,13.69-10.44,27.58-18.6,39.94a38.16,38.16,0,0,1-28,17.46c-13,1.66-26,2.37-39,4.2-10.81,1.52-21.73,1.19-32.49,2.58-5,.65-10.14,0-15,1.34-4.68,1.32-9.32-.38-14,.38-10.94,1.75-22,2.31-33,3.92l-17,2.48c-9.51,1.38-18.67,4-28,6.16a299.23,299.23,0,0,0-29.5,8.51c-14.39,4.85-27.89,10.91-38.62,22.39a109.77,109.77,0,0,0-19.3,28.65c-2.25,4.81-3.74,10-5.57,15Z"/>
</svg>
