<svg viewBox="0 0 341.39 508.88">
  <path class="wallLowFront" d="M102,494.33q-41.32.14-82.65.58Q13.59,290.94,17.91,87C33.66,70.71,45.27,51.86,47.4,28.74,44.55,17.12,48.75,5.86,61.7,4.34,73.89,7.75,77,19.72,74.51,30.79,76.91,55.68,89,77.51,103.56,97.55Q97.79,295.79,102,494.33Z"/>
  <path class="wallLowSide" d="M322.42,496q.18-193,9.69-385.62-114.23-7.59-228.55-12.8Q97.79,295.79,102,494.33,212.18,494,322.42,496Z"/>
  <path class="stepFront" d="M217,494.61Q112.66,493.8,8.38,495c0,1.79.11,7.48.16,13.35H217C217,501.59,217,496,217,494.61Z"/>
  <path class="stepSide" d="M322.42,496q-111.08-2-222.12-1.64c0,1.71.08,7.7.11,14.05h222Z"/>
  <g class="frameMediumFront">
    <path d="M63.53,224q13.22.34,26.42.73.58-47.22,1.7-94.42l-26.65-1Q64,176.63,63.53,224Z"/>
    <path d="M26.48,223.08q13.22.3,26.43.64.42-47.43,1.37-94.85-13.32-.5-26.65-1Q26.79,175.49,26.48,223.08Z"/>
    <path d="M81.83,494.41q-1.65-75-2-149.91-22.45-.3-44.9-.51.68,75.36,2.68,150.73Q59.7,494.53,81.83,494.41Z"/>
  </g>
  <g class="frameMediumSide">
    <path d="M112.87,439.49q40.75.21,81.52.71-.21-44.83,0-89.68-41.1-1-82.21-1.64Q112.3,394.18,112.87,439.49Z"/>
    <path d="M113,225.42q41.58,1.31,83.16,2.92,1-46.59,2.59-93.17-41.93-2.1-83.86-3.89Q113.64,178.34,113,225.42Z"/>
  </g>
  <path class="doorMediumFront" d="M72,494.46q-1.72-75-2.17-150.09-12.49-.15-25-.28.62,75.27,2.53,150.55Z"/>
  <g class="shadow">
    <path d="M187.33,356.74q-.17,38.49,0,77l-12.43-.15q-.22-38.55-.12-77.1Z"/>
    <path d="M168.88,356.35q-.09,38.56.15,77.15l-12.43-.12q-.28-38.65-.24-77.28Z"/>
    <path d="M150.43,356q0,38.67.29,77.34l-12.43-.11q-.36-38.73-.38-77.46Z"/>
    <path d="M132,355.65q0,38.76.43,77.51L120,433.08q-.44-38.82-.52-77.64Z"/>
    <path d="M191.29,141.45q-1.28,40-2.18,80l-12.68-.49q.85-40.05,2.09-80.09Z"/>
    <path d="M172.48,140.55q-1.22,40.06-2,80.16l-12.68-.47q.78-40.16,1.95-80.28Z"/>
    <path d="M153.66,139.68q-1.16,40.17-1.91,80.34l-12.68-.44q.72-40.25,1.81-80.47Z"/>
    <path d="M134.84,138.84q-1.08,40.26-1.77,80.54L120.39,219q.64-40.33,1.67-80.66Z"/>
    <path d="M84.74,136.77q-.9,40.51-1.41,81l-13.13-.38q.47-40.59,1.31-81.17Z"/>
    <path d="M47.39,135.38q-.77,40.69-1.13,81.41l-13.13-.33q.32-40.78,1-81.54Z"/>
  </g>
  <path class="awningFront" d="M82.42,344.54q-31.77-.44-63.54-.68-.21-21.71-.32-43.41,31.91.42,63.8,1Q82.35,323,82.42,344.54Z"/>
  <path class="awningSide" d="M82.42,344.54l7.27.1q-.06-21.51,0-43l-7.3-.14Q82.35,323,82.42,344.54Z"/>
  <g class="roofBelow">
    <path d="M107.34,90.84q116.72,5.46,233.34,13.39c-1.47,3.89-5.7,6.1-9.71,6q-116.54-7.72-233.18-13Q102.56,94.06,107.34,90.84Z"/>
    <path d="M60.43,9.21c-6.33-.28-11.16,5.95-11,11.48a14,14,0,0,0,2.95,8.81,1.85,1.85,0,0,1,.37,1.59C49,44.44,45.29,57.83,39.52,70.34c-4.35,9.44-10.87,19.77-21.29,23.39-3.18,0-6.28-.08-9.45-.28a79.32,79.32,0,0,1-3.47-7.91c25-4.38,31.48-35.18,36.84-55.77a35.89,35.89,0,0,1-1.89-9.53C39.69,9.69,50.25.22,60.74.76"/>
  </g>
  <path class="roofTop" d="M307,45.54a25.72,25.72,0,0,0,2.73-8.95c1.2-10-8.05-21-18.55-21.29Q175.13,6.78,58.92.67c11.42,6,13.64,19,13.54,30.58q58.77,3,117.51,6.53Q248.52,41.35,307,45.54Z"/>
  <g class="roofSide">
    <path d="M307,45.54c5.53,20.7,11.4,49.29,33.67,58.69q-123.09-8.37-246.3-14C83.54,71.74,73.11,53,72,31.22Q189.54,37.15,307,45.54Z"/>
    <path d="M325.51,278Q213,272.84,100.41,270a11.52,11.52,0,0,1,.09-11.26q112.68,3,225.32,8.22C333.18,267.28,332.84,278.32,325.51,278Z"/>
  </g>
  <g class="roofFront">
    <path d="M37.44,29.55A35.67,35.67,0,0,1,35.54,20C35,9.48,45.61.09,56,.51,66.65.94,76.07,11.82,75,22a33,33,0,0,1-2.54,9.27c5.9,21,12.08,50.3,34.88,59.59-1.85,4.36-7,7.74-11.85,6.12-21.77-13.75-27.37-42-33.59-64.91a2.5,2.5,0,0,1,.54-2.18,14.13,14.13,0,0,0,3.44-8.36C66.25,15.74,61.82,9.28,55.7,9s-11,5.69-11,11.49a14.55,14.55,0,0,0,2.82,8.64,2.55,2.55,0,0,1,.43,2C41.72,53.56,36.27,85.29,10.83,93.5,6,93.89,1.77,89.9.62,85.36,25.68,81,32,50.14,37.44,29.55Z"/>
    <path d="M100.5,258.78Q58.22,257.7,16,256.92c-7.5-.21-7.42,11.26,0,11.38q42.22.72,84.46,1.74A11.52,11.52,0,0,1,100.5,258.78Z"/>
  </g>
</svg>
