<svg viewBox="0 0 1768.65 622.53">
    <path class="cypressCloser" d="M459.89,90.69c22.81-3,44.52,53.71,27,62.57,29,2.59,45.27,64.09,15.95,78.53,29.92-1.77,45,46.46,19.63,60.12,24.16.21,38.17,38.63,26.92,53.86L390,393.75c-28.44-11.79-24.22-80.53,3.82-100.61-14.78-19.71-5.13-49.86,19.13-55.22-24.86-24.79-11-76,22.08-78.52C420.6,137.76,437.07,93.65,459.89,90.69Z"/>
    <g class="cypressFurther">
        <path d="M932.42,378.91c16.67-9.06,11.28-37.38-7.37-40.49,22.25-23,3.36-79.18-23.31-82.21,17.68-14.95,3.74-45.08-16-45.4,34.08-15.42,17-81.52-13.5-87.11,17-12.84,6.66-46.57-17.17-49.08C880.3,51.06,847,1,828.12,1s-32.8,27.57-25.76,50.31c-31.78,4.69-41.67,65.84-19.64,82.2-22,7-34.17,50.19-11,63.81-29.42,9.31-35.72,56.08-11,72.39-29.17,8-36.37,57.88-22.09,74.84Q827.34,446.32,932.42,378.91Z"/>
        <path d="M294.24,19.52c20.75,0,56.15,57.81,35.59,87.12,28.4-.06,40.93,49.56,22.08,68.71,32.44,4.88,42.36,60.77,15.95,78.52,26.93,2.62,39.47,49.63,22.09,62.58,26.26,6.9,32,67,2.93,77.3h-190c-24.38-6.67-28-90.25,4.17-106.75-20.19-14.31-8.18-65.5,21.63-72.39-21.45-7.22-14.66-58.93,11.81-60.12C214.58,141.58,227.64,84.12,262,83.32,248,61.66,273.5,19.52,294.24,19.52Z"/>
    </g>
    <path class="foliageNearest" d="M1160.81,518.5c23.68-8.62,11.73-55.36-20.44-50.48,6.94-23.47-20.41-48.43-47.17-34.55,17.46-35.39-27.68-72.31-58.55-52.13-.74-21-23.84-30.27-40.91-12.84-13.74-33.36-60.74-34.16-77.8,0C899,348.15,866.88,349,857,374.92c-3.13-33.14-38.45-46.68-63.66-25.67-8.78-33-47.55-39.6-66.69-13.17-1.57-33.6-44.06-48.74-69.91-23.72-13.72-22.9-49.57-22.63-58.36,3.79-21.75-27.75-57.6-20.31-65,13.85-13.28-14.51-37.71-8.67-38.5,12-27.36-28.14-65.6-14.59-68.18,25.67-12.29-12.38-31.41-7.86-33.64,10.43-4.68-32.37-43.18-47.24-68.16-20.86-8.48-23.46-34.51-27.18-49.37-8.82-14.62-43.32-69.85-43.58-84.65-1.6-16.27-14.1-42.3-4.54-40.91,16.84C126.49,337,83.2,358.77,95.78,394c-25.59-7.3-46.57,17.66-29.26,38.12C32,419.32.35,448,13.75,486.63c-19.24,1.74-15,31,1.38,31.87Z"/>
    <polygon class="court" points="1768.49 618.11 1163.56 518.5 6 518.5 35.5 618.11 1768.49 618.11"/>
    <g class="stripeDisplayLine">
        <line x1="438.09" y1="600.49" x2="312.88" y2="528.55"/>
        <line x1="1253.69" y1="600.49" x2="920.7" y2="528.55"/>
        <line x1="8.98" y1="528.55" x2="1224.61" y2="528.55"/>
        <line x1="30.28" y1="600.49" x2="1661.5" y2="600.49"/>
        <line x1="359.58" y1="555.38" x2="1044.88" y2="555.38"/>
    </g>
    <path class="pole" d="M569,328.5c-.15-1.94,9.75-2.69,9.89-.75q6.48,94.33,9.1,188.84c.06,2.34-9.32,2.55-9.38.21Q575.75,422.54,569,328.5Z"/>
    <path class="mesh" d="M588.8,512.63c97.52,25.47,198,51.69,294.69,80,1-104.21,4.84-208.32,12.18-312.28-105,10.63-212.51,26.82-315,51.75C584.44,390.24,587.1,454.41,588.8,512.63Z"/>
    <path class="net" d="M573.8,326.66c113-31.29,227.54-55.47,344.17-68.11-10.39,119.63-15.28,239.56-16,359.63-106.23-33.28-211.74-68.83-318.7-99.73Q580.54,422.45,573.8,326.66Zm15,186c97.52,25.47,198,51.69,294.69,80,1-104.21,4.84-208.32,12.18-312.28-105,10.63-212.51,26.82-315,51.75C584.44,390.24,587.1,454.41,588.8,512.63Z"/>
    <path class="pole" d="M908.4,257.71c.31-3.72,19.81-1.93,19.45,1.76-11,119.28-16.12,238.89-16.83,358.65,0,4.46-17.73,4.59-17.72.11C894,497.89,898.57,377.66,908.4,257.71Z"/>
</svg>
