<svg viewBox="0 0 236.37 226.92">
  <g class="bennett">
    <path class="shirtWhite" d="m183.18,185.48c66.45-61.28-123.3-40.51-23.32,6.87,6.24,2.36,18.8-.07,23.32-6.87Z"/>
    <path class="bennettSleeves" d="m186.44,151.41c3.7,3.41,7.5,8.36,10.38,12.45-1.24,7.1-8.01,11.37-12.12,17.11-.18,1.84-.64,3.03-1.51,4.52-1.1,10.29-.55,13.31,6.3,18.46,4.93,2.48,16.16-4.73,15.89-12.42-.07-2.03-1.78-4.52-1.78-7.14,2.02-4.64,2.25-8.51,2.05-12.19,3.14-2.05,2.09-5.13,4.18-10.81,6.21-16.86-8.76-21.15-19.97-25.81-12.43-5.16-32.61-5.73-45.48-.82l-9.25,26.88c-1.23,4.81.8,6.28-.57,15.58l13.37,27.02c9.32,2.48,14.76-13.82,13.73-14.66-4.28-7.11,1.58-25.19,6.81-39.18,3.84,2.76,13.33,4.06,17.95.99Z"/>
  </g>
  <g class="sketchbook">
    <polygon class="paperDark" points="235.05 219.49 235.05 221.98 203.17 226.66 174.77 212.24 174.77 209.8 235.05 219.49"/>
    <polygon class="paperLight" points="174.77 209.8 203.17 223.89 235.05 219.49 205.72 207.48 174.77 209.8"/>
    <g class="blueDisplayLine">
      <line x1="195.33" y1="220" x2="227.34" y2="216.34"/>
      <line x1="192.48" y1="218.59" x2="224.35" y2="215.11"/>
      <line x1="189.58" y1="217.15" x2="221.3" y2="213.86"/>
      <line x1="186.63" y1="215.69" x2="218.2" y2="212.59"/>
      <line x1="183.66" y1="214.21" x2="215.04" y2="211.3"/>
      <line x1="180.63" y1="212.71" x2="211.92" y2="209.97"/>
      <line x1="177.56" y1="211.18" x2="208.54" y2="208.64"/>
    </g>
    <line class="redDisplayLine" x1="199.11" y1="207.98" x2="228.01" y2="220.47"/>
    <g class="wireDisplayLine">
      <path d="m202.52,222.56c-.16-.8-1.67-.94-2.36,1.34-.63,2.05.68,2.85,1.27,1.88"/>
      <path d="m199.91,221.23c-.16-.8-1.67-.94-2.36,1.34-.63,2.05.68,2.85,1.27,1.88"/>
      <path d="m197.3,219.91c-.16-.8-1.67-.94-2.36,1.34-.63,2.05.68,2.85,1.27,1.88"/>
      <path d="m194.69,218.58c-.16-.8-1.67-.94-2.36,1.34-.63,2.05.68,2.85,1.27,1.88"/>
      <path d="m192.08,217.26c-.16-.8-1.67-.94-2.36,1.34-.63,2.05.68,2.85,1.27,1.88"/>
      <path d="m189.47,215.93c-.16-.8-1.67-.94-2.36,1.34-.63,2.05.68,2.85,1.27,1.88"/>
      <path d="m186.86,214.61c-.16-.8-1.67-.94-2.36,1.34-.63,2.05.68,2.85,1.27,1.88"/>
      <path d="m184.24,213.28c-.16-.8-1.67-.94-2.36,1.34-.63,2.05.68,2.85,1.27,1.88"/>
      <path d="m181.63,211.95c-.16-.8-1.67-.94-2.36,1.34-.63,2.05.68,2.85,1.27,1.88"/>
      <path d="m179.02,210.63c-.16-.8-1.67-.94-2.36,1.34-.63,2.05.68,2.85,1.27,1.88"/>
    </g>
  </g>
  <g class="soleWhite">
    <path d="m31.95,137.74c-1.47-1.28-3.34-2.28-4.44-2.32-5.95,3.12-9.43,9.5-12.52,16.93-3.38,8.14-7.62,15.83-6.03,18.86,6.67,4.81,10.25,1.25,14.18-3.3l8.81-30.18Z"/>
    <path d="m35.4,101.1c-.55-1.87-1.57-3.56-2.48-4.18-6.7-.56-13.04,3.1-19.63,7.71-7.22,5.05-12.75,8.17-13.04,11.58,3.04,7.64,7.38,6.44,13.14,4.72l22.01-19.83Z"/>
    <path d="m22.05,202.75c-3.85-1.19-6.89-11.1-.36-17.22,4.79-4.49,15.92-1.28,22.39-1.39l-22.04,18.61Z"/>
    <path d="m163.59,179.56c-.14.77-.4,2.13-.38,2.04-.67,6.66-.98,12.81-.07,17.17,8.02-.66,7.84-16.12.46-19.2Z"/>
  </g>
  <g class="bennettShoe">
    <path d="m48.78,151.07c-7.4-1.41-7.43-9.09-16.83-13.34-5.61,1.67-8.79,6.61-11.69,13.3-3.38,7.82-5.48,10.07-6.9,15.86,12.15,6.19,7.02-4.7,30.34-.79l5.08-15.04Z"/>
    <path d="m42.43,121.39c-5.49-5.17-1.39-11.66-7.03-20.29-5.63-1.6-10.97.85-17.01,4.94-7.05,4.78-7.86,4.47-12.16,8.59,6.92,11.75,6.81.02,23.83,16.71l12.36-9.95Z"/>
  </g>
  <path class="converseLogo" d="m24.24,152.77c2.52-4.34,10.18.24,7.75,4.49-2.42,4.23-10.25-.19-7.75-4.49Z"/>
  <path class="bennettJeans" d="m73.83,190.75c-13.92-2.2-30.32-7.93-34.93-15.88-2.47-4.26-7.78-19.2-10.8-33.44-.4-1.89-3.64-2.87-2.74-7.53-7.92-5.64,6.93-18.22,10.74-16.94,3.82,1.29,9.09.03,7.3,5.86,8.09,5.83,1.41,6.11,12.47,25.66,3.96,4.57,13.26-1,21.6,1.6l-3.65,40.67Z"/>
  <g class="christopher">
    <g class="christopherShoe">
      <path d="m56.01,203.57c-6.87.86-14.21-1.43-17.72-.74-6.5,1.28-12.53,1.2-16.24-.08-.47-.8-.66-1.59-.49-2.38,3.55-4.23,3.62-8.76.9-13.53,4.92-5.08,15.76-2.18,19.76-2.54,9.24-.85,17.09-1.29,20.57,6.25,2.63,5.71-.86,12.28-6.78,13.02Z"/>
      <path d="m163.21,181.6c-.5,2.55-1.05,5.12-1.71,7.67.06.11.12.22.18.33.53.44-.68,5.05-3.28,9.03,1.64.33,3.23.4,4.74.14.43-.4.71-1.09.94-2.05-2.18-2.44-.74-9.64,2.39-11.18-.68-1.62-1.75-2.94-3.25-3.94Z"/>
    </g>
    <path class="christopherStrap" d="m44.09,200.5c-4.13-.19-8.19-.22-12.85.27,1.21-5.2,1.55-9.95.83-14.42-.32-1.96,5.97-2.95,6.56.07.27-2.08,5.62-2.6,6.2.19.99,4.75.69,9.43-.75,13.88Z"/>
    <path class="sockWhite" d="m50.92,188.65c2.03.86,2.12,2.01.95,4.63-1.98,4.44,1.16,6.7-.78,8.24,2.49-.17,2.54,1.42,4.15,1.03l7.09-12.21c-1.22-1.78-1.98-1.02-2.68-1.69-1.73-1.62-6.22-2.14-8.72,0Z"/>
    <path class="christopherShorts" d="m140.84,184.51c-1.16-3.64-2.65-7.1-4.96-10.41-.95-8.49-12.94-7.38-30.78-.79-14.62-4.99-37.2-12.42-35.73.2-2.08,4.15-3.21,8.73-3.34,13.74l32.4,17.97c3.36,1.14,5.43-1.55,5.88-6.28.38,4.96,3.46,6.5,7.46,6.28l29.09-20.69Z"/>
    <g class="christopherShortsInner">
      <path d="m106.98,200.61c-.2,3.29,1.2,4.11,4.77,4.6l-4.77-4.6Z"/>
      <path d="m101.57,200.5c.52,2.76.2,5.13-3.15,4.7l3.15-4.7Z"/>
    </g>
    <path class="christopherShirt" d="m71.53,132.47c.12-.79.59-2.28,1.15-3.94-.07,14.81-.68,28.41-2.12,40.13h0c4.83-5.31,22.41.5,34.53,4.63,13.06-4.82,23.13-6.7,27.79-4.04,0,0,0,0,0,0-1.15-7.21.18-25.33-2.66-33.62,4.08-.09,12.49-2.41,16.4-4.66-2.79-11.74-3.36-23.71-7.27-30.18-4.29-8.38-16.95-7.08-26.83-13.04l-21.49-.03c-10,4.13-22.99,4.55-26.21,11.96-5.16,11.87-7.47,11.2-6.52,15.46-1.92,4.06-3.19,8.24-4.1,12.48,2.59,1.46,12.94,4.51,17.33,4.84Z"/>
    <g class="triceratopsLogo">
      <path d="m98.6,145.27c-.45-.04-1.02-.12-1.35-.2-.21.41-.45.82-.72,1.24-1.24,1.77-.24,2.32.25,3.32.63.01,1.72-.05,2.21-.35-.04-1.38-1.46-1.74-.38-4Z"/>
      <path d="m126.76,136.54c.42-1.31,1.13-3.09-.2-4.22.57-1.27.71-2.87.26-3.94-.38,1.22-1.06,2.35-1.88,3.04-.51-.18-1.1-.35-1.79-.49-1.43-.3-2.66-.94-3.69-1.79-.27.35-.63,1.19-.84,1.64.42-2.82,2.76-5.85,4.73-7.75-2.76,1.28-5.12,3.84-6.5,6.53.05-.51.5-1.44.94-2.15-.92-1.53-1.72-3.01-2.02-4.8-1.29-1.14-3.49-.13-3.21,1.66-1.83-.57-3.29,1.38-2.14,2.95-1.64.03-2.57,1.94-1.41,3.17-1.39.83-1.2,3.42.72,3.22-2.05.8-2.34-2.16-1.27-3.22-5.99-2.58-12.35-4.6-17.85-.96-2.82,1.86-4.3,5.87-6.64,8.39-2.53,2.72-6.85,2.79-10.34,2.6,4.67,2.52,8.78,2.7,13.62.47,1.49,1.26,2.75,2.02,4.54,2.81.49-1.59-1.24-3.18-1.28-4.83.3,1.68,1.99,3.17,1.62,4.91-.51,2.43-.22,4.45.03,6.91,1.36.49,3.23.49,4.6.03-.02-.41-.21-.76-.34-1.12-.54-1.14-1.24-1.6-.2-3.35,1.68-2.84,2.74-5.96,1.1-9.22,1.8,2.39,1.11,5.2.09,7.76,2.42.5,5.14.24,7.51-.35.08-1.48.45-3.21,1.09-4.1-.6,2.2-.96,4.18-.43,6.44.32,1.35.96,2.58,1.05,3.98,1.41.39,3.2.35,4.58-.15-.02-.43-.16-.81-.45-1.13-1.11-1.2-1.25-2.91-1.18-4.47.07-1.65,1.39-2.83,2.51-3.7,3.63-2.82,9.71.59,13.15-2.91-1.41.27-3.36-.08-4.52-.99,1.83-.24,4.27-2.31,6.06-.87Z"/>
      <path d="m111.88,141.85c-1.14.89-1.88,1.77-2.01,3.17-.12,1.57.08,3.38,1.35,4.47.63,0,1.41-.1,1.78-.37-.19-1.05-.96-1.56-1.35-2.48-.68-1.58-.32-3.2.24-4.79Z"/>
    </g>
  </g>
  <g class="clothesDisplayLine">
    <path d="m13.36,166.9c-.79,2.47-1.25,4.61-1.1,6.13"/>
    <path d="m6.23,114.63c-1.99,1.66-3.64,3.37-4.32,4.74"/>
  </g>
  <g class="clothesOverlapLine">
    <path d="m129.64,117.47c.89,5.41-.27,11.99.59,18.18"/>
    <path d="m72.72,111.34c1.19,5.58-.27,13.63-.04,17.2"/>
    <path d="m104.29,198.92c.29-5.54-.3-11.66.18-15.19"/>
    <path d="m45.14,188.31c2.08,0,3.8,1,5.78.33"/>
    <path d="m51.08,201.52c-1.95.08-4.33-1.39-6.99-1.02"/>
    <path d="m146.85,177.28c-1.42.04-3.78,3.39-5.5,8.26"/>
  </g>
  <path class="clothesBorderLine" d="m37.86,200.38c1.1-3.37,1.53-10.34.78-13.95"/>
  <g class="clothesFoldLine">
    <path d="m144.16,118.19c.03,3.55-.69,6.87-2.99,9.72"/>
    <path d="m141.35,122.32c-.58,3.3-3.66,6.13-5.67,8.24"/>
    <path d="m132.84,109.96c.46,2.75-1.46,6.5-3.2,7.5-.73-1.37.56-3.45-.09-4.67"/>
    <path d="m61.56,112.62c-.1,4.15,2.38,7.41,5.03,10.43"/>
    <path d="m58.31,115.15c.59,2.13,1.6,4.05,2.98,5.8"/>
    <path d="m75.74,107.95c-.07,3.6-.82,6.83-2.55,9.52"/>
    <path d="m70.62,111.06c.16,2.76.65,5.15,1.83,6.77"/>
    <path d="m100.27,131.65c-5.95-.15-11.61-.53-16.84-1.28"/>
    <path d="m111.7,133.02c-6.35,1.1-12.73,1.34-19.12.73"/>
    <path d="m124.97,142.81c-6.35,4.01-13.03,6.42-20.22,6.22"/>
    <path d="m109.05,151.23c-8.35.86-16.26-.05-23.61-3.29"/>
    <path d="m129.01,172.81c-2.14-.49-4.29-.61-6.18.17"/>
    <path d="m131.58,171.42c-2.41-.97-5.14-1.29-7.94-.57"/>
    <path d="m154.81,159.87c-1.89-3.23-3.7-5.87-5.38-7.3"/>
    <path d="m156.09,155.67c-2.26-6.39-4.82-10.93-7.87-12.46"/>
    <path d="m165.05,170.94c6.38,1.83,12.46.1,18.33-3.95"/>
    <path d="m164.53,174.09c3.47,1.14,7.29,1.08,11.39,0"/>
    <path d="m144.86,183c-.45,3-.1,5.99,1.04,8.99"/>
    <path d="m198.3,184.2c-2.97.24-6.82-1.14-9.16-4.58"/>
    <path d="m144.78,155.62c2,2.48,4.16,4.21,6.49,5.04"/>
    <path d="m145.02,160.02c1.8,1.72,4.32,2.88,6.81,4.16"/>
    <path d="m146.85,177.28c-2.02.18-3.86.76-5.51,1.8"/>
    <path d="m184.69,180.96c-3.55,4.44-9.04,7.33-13.28,7.04"/>
    <path d="m198.98,154.81c-1.04,3.28-3.89,5.78-4.56,8.65"/>
    <path d="m200.9,161.62c-1.95,1.84-3.35,2.66-4.09,2.24,5.53-4.4,6.17-10.57,8.01-10.49,1.08.05.48,2.08-1.04,5.52"/>
    <path d="m207.39,158.26c-4.96,7.05-8.17,7.53-11.55,8.89"/>
    <path d="m204.29,169.55c-1.07,1.7-2.49,3.03-4.48,3.76"/>
    <path d="m193.48,176.12c4.15.78,8.21-.46,12.17-3.92-.08,2.33-1.76,4.58-6.97,6.64"/>
    <path d="m205.65,176c-1.6,3.34-5.44,6.2-9.45,5.91"/>
    <path d="m203.6,184.39c-4.51,3.9-13.88,2.62-16.92-2.18"/>
    <path d="m202.45,187.49c-5.36-2.32-11.67.25-16.41,5.93"/>
    <path d="m56.76,162.37c-4.44,1.3-7.54,5.38-9.33,10.47"/>
    <path d="m56.64,157.16c-5.33.39-9.78-.42-9.18-4.87"/>
    <path d="m58.26,158.99c-7.08.52-12.54,7.88-12.7,15.38"/>
    <path d="m45.6,155.51c.82,2.97,3.66,2.13,3.96,3.79.22,1.24-4,1.4-5.28,6.47"/>
    <path d="m25.36,133.89c2.49-6.21,7.61-6.54,7.14-7.31-.5-.81-3.97.61-6.3,3.5"/>
    <path d="m45.19,129.98c-5.93-4.15-12.55.3-16.46,7.27"/>
    <path d="m43.4,122.81c-5.59-1.59-11.41,2.12-12.34,1.25-.65-.6,5.38-4.28,9.3-4.1"/>
  </g>
  <g class="eye">
    <circle class="sclera" cx="176.21" cy="102.55" r="17.18"/>
    <g class="irisDarkBrown">
      <ellipse cx="182.37" cy="108.08" rx="3.14" ry="2.71" transform="translate(-1.29 213.97) rotate(-60.62)"/>
      <ellipse cx="164.21" cy="98.23" rx="3.14" ry="2.41" transform="translate(-1.96 193.12) rotate(-60.62)"/>
    </g>
    <g class="pupil">
      <ellipse cx="182.07" cy="107.91" rx="1.22" ry="1.05" transform="translate(-1.29 213.61) rotate(-60.62)"/>
      <ellipse cx="163.8" cy="98.01" rx="1.22" ry=".94" transform="translate(-1.96 192.65) rotate(-60.62)"/>
    </g>
  </g>
  <g class="skinEastAsian">
    <path d="m206.79,115.66c-6.4,1.57-18.07,22.67-18.66,28.78-4.93,8.77-24.44,3.01-24.03-4.52"/>
    <path d="m206.66,207.26c-4.02-1.76-13.2.02-16.76-3.95-5.34-5.34,3.29-18.08,14.25-13.15,2.19,1.78,4.24,4.12,6.2,3.84,3.38-2.94,6.81-3.89,11.34-3.17,3.4.54,6.97.47,11.78,1.63,2.43.5,3,4.24,2.49,5.93s-3.54,3.42-4.92,4.03c1.14,2.4.17,4.97-1.99,6.35-1.33,1.27-1.48,4.19-7.57,5.48-8.77,1.86-14.05-.49-11.4-3.77-1.56-.86-2.49-1.96-3.41-3.24Z"/>
    <path d="m142.35,188.27c4.46,3.28,8.75,11.65,6.43,16.8-2.36,5.25-5.71,11.02-12.6,10.5-10.49-.79-22.51-7.22-29.21-14.97-1.46-8.78,2.49-14.79,10.89-19.52,9.32-5.51,20.71-5.52,24.49,7.18Z"/>
    <path d="m62.32,190.34c1.07.01,2.17-.44,3.24-.37,1-10.61,9.37-12.8,17.98-11.07,13.16,2.93,17.31,6.77,18.02,21.6-2.56,6.54-17.78,18.3-25.38,17.57-3.48-.33-7.47-.76-12.21-4.99-4.03-3.59-6.47-7.75-8.76-10.52-6.67-4.53-.55-16.12,7.09-12.21Z"/>
    <path d="m116.03,160.18c3.97-1.58,8.49-10.97,14.18-13.77,0-2.86.45-5.6.01-10.77,5.14-.39,10.23-1.87,15.29-4.07,1.42,9.74,1.68,21.18-2.3,26.34-5.02,6.51-14,6.66-18.6,10.76-2.65,4.92-2.56,12.91-14.84,15.67-2.85.64-5.39.5-5.42-2.46-1.42.05-2.49-1.64-2.72-3.37-2.6-.33-3.81-1.34-3.54-3.8-2.3-1.11-3.93-2.22-4.57-4.43l22.52-10.1"/>
    <path d="m68.19,166.78c-5.03-6.23-14.68-6.14-17.48-22.4-.63-3.63,2.52-10.97,4.05-16.47,3.03,1.43,11.35,3.87,15.82,4.46-1.14,4.16-2.65,7.97-3.26,11.14,3.61,4.59,3.93,8.85,9.51,15.74,2.76-.38,6.2,1.44,8.6.12,2.75-1.51,2.73-.33,5.75-2.07,3.18-1.59,3.21,4.91-1.02,5.66-4.73,1.65-7.01,3.75-6.68,6.32.6,2.84,1.47,5.15,4.91,5.18.49-2.15,2.94-2.49,3.48-.93.72,2.1,1.56,3.58.33,5.26-.99,1.36-1.92,1.07-3.81,1.07-.04,2.04-2.07,3.47-4.95,3.05-1.15,1.95-7.34.42-9.62-1.02-3.68-1.82-1.87-11-5.64-15.12Z"/>
    <path d="m114.7,82.95l.47,7.98c.97,14.89-28.2,15.58-26.77.31l-.78-9.39"/>
    <path d="m160.42,93.09c2.59-12.66,10.31-9.25,13.14-24.73,28.74-10.79,57.3,30.22,45.74,48.82.05,6.94-7.83,9.24-9.6,10.76-2.54,2.18-6.9,2.9-8.49,0-8.6,9.15-18.39,10-27.59,8.65-7.63-1.12-8.77-.77-12.62-2.95-4.81-2.73-3.92-5.54-5.56-9.89-5.38-14.27,3.73-24.48,4.99-30.66Zm19.68,13.08c3.49,3.98,6.32,5.01,9.59,4.18-1.25-1.68-2.65-4.65-5.32-5.61-2.15-.77-2.85-.39-4.69.42-.84.37.16.71.42,1.01Zm-10.26-6.4c-.57-2.03-1.25-4.01-3.6-4.79-1.73-.57-2.65-.19-3.35,0-.33.43-.52,1.03-.5,1.59,1.93,3.85,5.77,3.32,6.62,3.69.59.26.97,0,.83-.48Z"/>
    <path d="m157.21,151.9c-2.37,12.9-6.1,16.05-10.36,25.38,1.01,5,10.56,12.95,14.52,12.47,3.57-13.53,4.21-26.67,7.81-36.89,1.12-3.42,4.32-6.15,1.53-15.27,2.05-.91,2.72-3.91,2.2-6.24-.33-1.49-.63-2.29-3.47-3.54-.16-1.68-2.36-2.71-4.08-2.99.04-1.25-1.87-2.57-3.89-2.35-3.44-1.81-5.24,1.86-7.97,5.04-2.1,2.44-4.17,4.02-4.17,5.74-.45,5.16,8.6,15.4,7.88,18.66Z"/>
    <path d="m128.94,55.09c2.88.29,3.45,4.97,1.37,11.52-1.2,3.78-.97,6.06-4.61,5.63-3.16,17.54-12.27,18.61-16.7,22.12-4.2,3.33-11.11,3.91-15.74-.33-3.93-3.59-13.13-4.77-15.7-21.61-3.74.36-3.57-2.98-4.28-5.38-.66-2.23-.8-4.05-.85-5.62-7.97-10.85,56.5-6.34,56.5-6.34Z"/>
  </g>
  <g class="skinOverlapLine">
    <path d="m98.09,174.72c.6.11,2.21.31,3.27.24,3.46-.23,7.79-2.43,9.58-2.43"/>
    <path d="m101.63,178.51c1.74.33,5.82-.6,9.23-1.37"/>
    <path d="m104.35,181.88c1.6.21,4.87-.39,7.16-1.21"/>
    <path d="m79.11,175.12c1.84,1.5,1.33,4.37,9.28,4.75"/>
    <path d="m77.44,178.17c2.4.9,6.48,1.72,10.09,1.79"/>
    <path d="m76.19,181.08c1.76.86,4.93,1.5,7.25,1.84"/>
    <path d="m230.9,194.55c-3.12,2.68-6.6,3.39-6.96,5.19"/>
    <path d="m231.03,202.43c-1.34.53-3.28.44-4.45.48"/>
    <path d="m212.75,195.32c.8.14,1.97-.25,3.13-.16"/>
    <path d="m222.74,203.18c-1.87,2-5.51.77-7.91-1.92-.29.83-1.33,1.16-2.83,1.18"/>
    <path d="m229.04,208.78c-9.59,1.87-9.73,0-13.41-1.13-2.12-.31-1.7-4.46,1.09-4.74"/>
    <path d="m210.08,210.49c2.74-1.8,4.99.1,8.61-1.6"/>
    <path d="m154.42,129.69c2.69-2.85,5.27-6.49,7.05-7.23"/>
    <path d="m157.58,130.7c3.16-2.64,5.57-5.93,7.78-5.87"/>
    <path d="m161.43,132.12c2.58-1.64,5.23-4.8,8.01-4.31"/>
    <path d="m170.7,137.59c-.14-.74-.66-1.69-1.14-2.36"/>
    <path d="m170.61,134.09c-.25.79-1.72,1.73-2.58,1.68"/>
    <path d="m65.56,189.97c-.15,1.59.07,2.47-.4,3.75"/>
    <path d="m142.35,188.27c.33,1.93.55,3.78.35,5.33"/>
    <path d="m77.38,58.75c.29,3.57-.54,7.06.18,13.68"/>
    <path d="m126.35,61.45c-.3,3.66.06,4.85-.66,10.79"/>
  </g>
  <g class="skinFoldLine">
    <path d="m67.31,143.51c-1.3-1.28-4.08-2.22-6.67-2.23"/>
    <path d="m136.66,146.05c-2.24-.38-4.41-.37-6.45.36"/>
    <path d="m210.34,194c-4.52,2.86-7.33,8.56-3.68,13.26"/>
    <path d="m211.57,208.5c.99.04,2.26-.57,2.96-1.64"/>
    <path d="m210.59,116.68c5.27-6.73,12.11,3.99-1.16,8.97"/>
    <path d="m209.29,118.71c1.86,2.76-4.27,3.88-2.87,5.44.87.97,1.19-1.34,4.91-1.66,2.72-.24,3.22-4.47,1.18-4.34"/>
    <path d="m75.85,62.55c-.74-8.49-2.9-1.45-1.04,3.21"/>
    <path d="m125.43,59.88c2.97-4.76,5.12.44,3.39,5.89"/>
    <path d="m126.16,66.61c1.88.8,1.16-2.7,1.49-3.58,1.04-2.82.25-4.22-.44-3.28"/>
  </g>
  <path class="skinEdgeLine" d="m115.05,179.73c.44-2.18-1.11-1.93-.35-4.73.88-3.25-1.8-3.04-2.14-4.89-.14-2.37-1.67-2.47-2.05-3.27"/>
  <g class="paper">
    <g class="flatTealMedium">
      <path d="m87.69,179.84c.24-.36.54-1.47.62-2.79.06-1.1-.05-2.06-.21-2.58-.56-.02-1.1-.13-1.63-.32.38-1.39.92-2.29,1.36-2.31l1.31.07c.45-.49.88-1.15,1.23-1.53.79-.02,1.57,1.09,1.36,2.25-.63.68-1.1,1.35-1.44,1.93.11.79.16,1.68.11,2.59-.14,2.55-1.04,5.11-1.78,5.12l-1.37-.08c-.48-.06-.92-1.04-1.12-2.51.48.08,1.01.1,1.55.16Z"/>
      <path d="m88.66,163.54c.23-.46.47-1.47.54-2.65s-.06-2.11-.22-2.62c-.49.14-1.21.18-1.77.34.36-1.75.97-2.94,1.52-2.94l1.37.08c.73.09,1.34,2.73,1.21,5.28-.05.9-.19,1.79-.39,2.56.27.62.67,1.33,1.22,2.08.08,1.17-.82,2.19-1.6,2.09-.31-.42-.67-1.12-1.06-1.66l-1.31-.07c-.37-.06-.73-.74-.97-1.79.5-.24.99-.51,1.48-.69Z"/>
    </g>
    <g class="handleOverlapLine">
      <path d="m90.3,174.55c-.22.35-.39.7-.45,1.05"/>
      <path d="m90.9,163.58c-.22-.46-.23-.88-.3-1.24"/>
      <path d="m88.46,172.47c.23-.11.46-.32.69-.57"/>
    </g>
    <path class="steelLight" d="m91.43,169.58v-3.5s10.41,15.16,10.41,15.16c-3.3-2.92-9.71-9.62-10.41-11.66Z"/>
    <path class="steelLighter" d="m91.45,168.8c-.55,1.29-.52,1.28-1.05,2.35-.05.45.38,1.22.82,1.3l11.27-14.73c-3.45,2.74-10.23,9.07-11.03,11.07Z"/>
    <path class="paperLight" d="m66.33,164.24c-3.41-.84-8.59-4.22-11.75-8.28,8.98,4.2,17.28,7.44,24.47,9.13-3.31.2-7.41,0-12.72-.85Z"/>
    <path class="paperDark" d="m130.5,154.79c-14.47,4.89-27.56,16.65-35.28,16.33-9.87-2.95-19.52-5.29-28.89-6.88,4.6,1.08,9.29-.25,12.62-2.71,17.63,10.95,33.7-2.3,51.55-6.74Z"/>
  </g>
  <g class="pencil">
    <path class="flatChartreuseMedium" d="m224.45,205.45l-1.71-2.27c1.06-1.96-.82-3.18-2.15-4.67-1.41-1.58-1.93-3.04-4.71-3.35l-13.78-16.55,2.5-2.09,19.33,23.22c-.53,1.91.85,3.07,2.64,3.17l.38.46-2.5,2.09Z"/>
    <g class="steelLight">
      <polygon points="201.09 173.41 204.18 176.88 202.53 178.25 199.68 174.58 201.09 173.41"/>
      <rect x="202.24" y="181.03" width="13.05" height="1.06" transform="translate(202.8 458.16) rotate(-129.78)"/>
      <polygon points="224.45 205.45 230.02 209.6 226.96 203.37 224.45 205.45"/>
    </g>
  </g>
  <g class="lipMaleMedium__noStroke">
    <path d="m161.47,122.47c2.02-.21,3.94,1.1,3.89,2.35,1.18.19,2.59.74,3.41,1.61,1.11-.2,2.07-.47,2.83-.34-2.93-2.71-2.51-4.62-3.89-5.5-2.68-.16-2.89-.6-4.28-2.21-1.36-.2-1.25,1.3-3.13.78.64.91.42,1.93.58,3.05.19.07.39.16.6.26Z"/>
    <path d="m101.21,93.5c6.28.2,5.26-3.66,7.2-5.18-1.27-.24-2.82,1.56-5.4,1.07-.88.68-2.17.67-3.07-.02-3.89.12-4.19-1.29-5.69-.85,1.89,1.55,1.38,4.81,6.96,4.99Z"/>
  </g>
  <path class="lipOverlapLine" d="m163.55,119.99c.03.29.1.58.21.87"/>
  <g class="lipBorderLine">
    <path d="m171.78,126.13c-2.87-1.56-3.93-3.88-5.12-3.75-2.27.24-2.64-1.12-2.91-1.52-.49-.57-1.33.28-3.47-1.72"/>
    <path d="m93.62,88.42c1.86-.19,1.62,1.44,5.27,1.37,1.26-.03,1.51,1.1,2.43,1.19,1.02.09,1.46-1.19,3.02-1.02,2.09.23,3.06-2,4.45-1.58"/>
  </g>
  <g class="lipEdgeLine">
    <path d="m167.71,120.59c-2.68-.16-2.89-.6-4.28-2.21"/>
    <path d="m95.71,90.55c1.05,2.06,2.04,2.78,5.5,2.94,3.43.16,4.43-.67,5.54-2.71"/>
  </g>
  <g class="noseLine">
    <path d="m171.58,117.73c2.26-.02,2.67-2.71,1.97-3.58"/>
    <path d="m166.14,107.18c-.95,1.9-4.87,3.1-3.19,5.54,1.75,4.61,6.67,2.3,7.25,4.17"/>
    <path d="m107.03,79.83c.91.69,1.19,3.47-1.46,4.57-1.8.74-1.79,2.02-4.39,2.06-3.12.05-2.92-1.33-4.21-1.92-2.29-1.05-2.29-3.47-1.23-4.89"/>
  </g>
  <g class="eyeLashLine">
    <path d="m119.6,70.19c-1.97.72-2.21,2.57-5.55,3.71-3.21,1.1-5.05-.42-6.13-.34"/>
    <path d="m95.04,73.64c-1.97.4-2.73,1.48-6.13.6-2.68-.7-3.42-2.33-5.47-3.45"/>
  </g>
  <g class="eyeFoldLine">
    <path d="m185.3,111.82c-3.36-.17-4.23-2.46-4.96-3.21"/>
    <path d="m166.65,101.3c-2.54-.11-3.74-1.44-4.26-2.26"/>
    <path d="m117.57,72.82c-1.14,1.83-5.99,3.25-8.05,2.33"/>
    <path d="m93.16,75.29c-3.25,1.01-6.04-.23-7.5-1.83"/>
  </g>
  <g class="eyeCornerLine">
    <path d="m190.96,111.44c-.64-.28-.88-.63-1.27-1.1"/>
    <path d="m162.88,94.97c-.39.1-1.1.28-1.67.25"/>
  </g>
  <path class="eyeCreaseLine" d="m163.25,93.61c3.37-.98,5.99.62,7.01,3.77"/>
  <g class="eyebrowBlack">
    <path d="m181.18,95.99c3.84,4.59,11.97,3.79,12.8,11.83-3.1-6.28-11.87-6.03-12.8-11.83Z"/>
    <path d="m162.01,88.11c-.23.49-.45,1.02-.66,1.6,6.32-.72,8.34,4.47,12.25,1.91-4.72-.94-7.13-4.5-11.59-3.51Z"/>
    <path d="m120.4,65.93c-5.7,1.52-7,4.23-14.05,3.63,5.75,3.42,10.03-2.06,14.05-3.63Z"/>
    <path d="m83,66.91c5.16,1.56,4.76,3.34,13.37,3.11-5.48,3.29-10.06-1.59-13.37-3.11Z"/>
  </g>
  <g class="hairBlack">
    <path d="m196.65,57.19c16.83,1.83,30.24,13.45,32.76,25.86,2.58,12.72-2.28,26.22-10.12,34.13.43-2.22-4.51-7.93-9.31-2.45-1.37-.07-2.73-.42-3.97-.91,2.54-4.57,1.82-4.51.48-9.19-3.99-1.87-11.33-3.91-13.48-6.92,1.35,2.21,2.04,4.33,2.4,6.07-6.37-7.27-15.65-3.79-18.68-15.46.1,3.55.14,5.29-.6,6.56-1.62-5.57-7.8-10.44-3.73-19.09-2.93,5.06-6.01,9.16-13.46,9.37,5.45-5.21,1.31-11.24,9.51-16.24-1.69.28-4.03-.07-5.77-.64,11.33-2.14,11.25-8.11,26.05-10.97-.19-2.8-2.09-4.83-5.04-3.65,3.32-3.58,7.61-.92,8.76,2.87,2.39-4.02,6.68-5.67,10.41-5.92-3.25,1.46-5.73,4.28-6.21,6.6Z"/>
    <path d="m134.38,38.34c3.32,2.45,5.68,6.11,7.24,10.76-.21-11.72-9.22-23.18-20.52-30.53,2.23-3.76,6.09-5.18,10.54-5.75-5.14-1.64-10.51-.76-16.19,3.3-1.6-6.28-6.39-12.78-14.06-15.44,4.15,3.51,8.09,8.63,8.41,13.42-18.75-5.18-47.28,9.55-47.07,38.83,1.22-4.02,2.86-7.21,5.01-9.37-.94,6.69.05,17.24,3.09,22.83-.24-1.95-.05-3.79,1.59-4.97-.03-.62-.11-1.22.08-1.83,2.44.27,6.58-1,8.98-3.32-2.06,3.3-5.96,5.8-9.9,6.45,11.68,12.32,23.87,12.65,34.24,1.75-1.66,4.11-5.21,8.17-9.69,10.22,11.41,1.27,17.92-5.64,21.41-15.34,1.87,3.83,4.58,6.66,8.31,8.31-2.04-2.7-3.42-5.85-4.26-9.37,2.7,2.68,5.92,3.59,9.69,2.66.83,1.29,1.16,3.3,1.28,5.33,1.15-2.47,2-4.9,2.58-7.28.51-.41.94-.85,1.3-1.32-.36.11-.71.2-1.06.28,1.27-6.07.78-14.04-1-19.63Z"/>
  </g>
  <g class="hairOverlapLine">
    <path d="m206.5,104.62c.88.58,3.26,1.51,3.93,3.22.15-1.59-.61-3.14-1.29-4.36"/>
    <path d="m127.58,56.7c2.23,1.55,4.85,1.9,7.8,1.27"/>
    <path d="m131.29,60.96c1.47-.46,2.78-1.08,3.86-1.95"/>
    <path d="m72.51,59.59c-1.42-.2-2.65-.59-3.69-1.16,2.07-.36,4.12-1.7,6.16-3.65"/>
  </g>
</svg>