<svg viewBox="0 0 2858.62 2164.75">
  <g class="buoyRear">
    <path class="orangeDark" d="M1359,90.19l0-.16C801,279.28,501.74,883.77,691,1441.69s794.16,854.21,1352.09,664.95Z"/>
    <path class="yellowDark" d="M1398.22,76C840.29,265.3,541,869.78,730.26,1427.71S1524.81,2283.28,2082.74,2094Z"/>
    <circle class="yellowMedium" cx="1790.58" cy="1068.04" r="1066.75"/>
  </g>
  <g class="bennettShoe">
    <path d="M2017.55,1316.17c-53.81,14.53-52.08,41.6-95.38,49.53l14.61,99.72c183.51,33.06,153.61,72.43,209.27,99.24Z"/>
    <path d="M1923.77,1878.79c-34-29.94-77.54-52.15-122.21-63.29L1750,1893.31c50,17.73,113.82,132.39,189,174.58Z"/>
  </g>
  <g class="soleWhite">
    <path d="M2038.81,1309.24a91.32,91.32,0,0,0-36,15.57c-22.57,16.24-15.18,82.11,41.86,111.34,53.71,27.52,73.57,111.21,101.33,128.51,16.43,7.7,39.24,11.14,55.81,11.14Z"/>
    <path d="M1940.53,1892.26c-10.32-10.85-20.89-17.36-33.78-19.39-37-5.85-90.81,59.16-45.68,105.16,39.48,40.24,56.71,90.48,105.34,102.31Z"/>
  </g>
  <g class="soleWhiteDark">
    <path d="M2062.35,1427.83c-89.93-50.64-60-129,2.14-120.19,38.87,5.53,95.36,86.19,149,127.13,78,59.48,23.4,179.69-41.66,128.74C2120.72,1523.46,2109.65,1454.46,2062.35,1427.83Z"/>
    <path d="M1960.77,1911.93c26.1,39.69,93.93,50.38,85.78,106.34-7.56,51.81-67.23,97.46-118.68,32.9-34.16-42.87-65.21-70.6-66.74-107.16C1858.77,1887.52,1927.89,1861.91,1960.77,1911.93Z"/>
  </g>
  <path class="converseLogo" d="M1986.88,1451.36c-11.39-21.74,44.44-14.23,57.75,5.71C2060.45,1480.78,2001,1478.39,1986.88,1451.36Z"/>
  <path class="bennettJeans" d="M1092.48,1570.31c98.78,65.63,265.73,135.71,367,183.31,11.64,4.09,10.35,28.67,40,18.91,3.8,14.17,12.29,18.17,25.3,12.34,3.94,20.44,23.16,15,34.92,23.94,29.11,22,66.7,48.94,109.31,64,16.82,27.81,32.61,52.8,56.92,42.69,16.17-1.29,24.58,20.7,51.4-5-13.23-35.76,19.11-73.27,49.51-87.51-6.47-11.64,5.82-32.33-24.58-36.22-7.21-24.08-27.17-32.34-47.22-27.16-29.11-16.17-77-73.09-128.07-97.67-12.29-9.7-5.17-32.34-31.69-27.17-2.59-23.28-25.56-21.64-33.64-29.1-42.69-39.46-112.54-93.14-170.75-129.36,69.85,35.57,147.47,56.27,198.57,68.56,20,4.8,35,28.76,50.45,14.87,54,15.19,119.07-.9,187.57-30.28,62.1-26.64,84.33,5.34,106.73-27.28,16.53-5.23,23.14-17.06,24-32.71-20.32-36.61-24.09-73.7-13.49-111.21,1.13-24.9-29.92-30.72-47.38-13.9-20-11.1-40.1,4.52-60.8,14.23-44.63,9-106.47,10-125.48,19.4-9.71,1.94-25.23-25.23-42,5.17-6.46-11-27.81-12.93-33.63-3.88-49.8-31-135.78-88.11-185-104.78,1.3-8.41-7.38-18.08-21.34-13.58-3.45-12.34-26.52-9.7-43.34-16.82-46-24.12-90.26-45.15-124.19-47.22Z"/>
  <g class="buoyFront">
    <path class="yellowDark" d="M2017.79,1272.36c-140.94,47.8-294-27.69-341.76-168.64s27.69-294,168.63-341.76l50.1-17,173.13,510.4Z"/>
    <circle class="yellowLight" cx="1981.33" cy="1000.16" r="269.48"/>
    <g class="orangeLight">
      <path d="M1130.68,1779.1l661-537.33c26.09-21.19-19.67-77.56-45.77-56.38l-661,537.33C1053.72,1748,1099.49,1804.42,1130.68,1779.1Z"/>
      <path d="M1089.63,435.19l647.43,392.44c16.15,10,80-36.43,64.87-45.9L1127.25,373.08C1082.15,345.77,1044.54,407.88,1089.63,435.19Z"/>
      <path d="M2494.93,1734.6l-304.59-564.31a267.94,267.94,0,0,1-55,51l295.71,547.85C2454.69,1812.74,2518.53,1778.15,2494.93,1734.6Z"/>
      <path d="M2438.52,369.7,2145.11,786.14A268.17,268.17,0,0,1,2197,838.53l300.82-426.94C2525,373.13,2465.68,331.24,2438.52,369.7Z"/>
    </g>
  </g>
  <g class="skinEastAsian">
    <path d="M210.36,1459.52c78.68,19.06,136.18,45.68,201.35,27.93-61.42-23.56-51-110.49-34.33-128.36-52.08,3-92.62,34.91-165.37,22.07-10.86-39.73-25.22-41.71-40.58-56.08-15-14-22.3-25.27-36.67-43.11-13.38-14.37-33.2,23.79-3,50,3.86,3.36,5.09,7.68,9.41,10.9-13.38,7.43-59.45,7.43-98.59-6-34.19-19.82-51.53,5-35.68,15.86,14.87,8.42,18.83,15.85,38.16,21.8-5.45,5.94-3.47,24.79,5.45,30.74-4.46,10.88,3.47,27.71,16.84,32.66.62,21.71,31.91,29.85,50.94,33.69C167.46,1481.64,188.27,1455.39,210.36,1459.52Z"/>
    <path d="M232.51,1135.7c61,50,91.14,59.18,113,68.66,27.59,12,99,89,182.09,59.15,26.79-9.64,39-12.07,54.15-26.64,76.9-74.09,63.73-251.49-27.13-334.2Z"/>
    <path d="M483.33,1136.39c33.87,7.13,65.86,26.17,83.81,45.88,22.44,1.58,105.55-118.63,91.21-143.34-25.73-5.44-52-25.56-71.61-55.87"/>
    <path d="M863.41,937.78C845.07,912.5,832,887,790.6,880.74c-20.88-3.13-55.74-18.91-64.89,8.64C717.25,888,704,905.19,708.4,915.2c-7.49,4.09-13.24,21.32-6,27.85-9.83,18.54,5.32,33.17,33.21,34-28.41,3.4-40.43,19.07-30.24,26.89Z"/>
  </g>
  <g class="skinOverlapLine">
    <path d="M745.31,946.4c-14.19-2.16-30.09-5.76-42.93-3.35"/>
    <path d="M708.4,915.2c9.69-2.2,29.09.27,47.24,4.84"/>
    <path d="M725.71,889.38c7-.9,27.06.67,40.36,5.1"/>
    <path d="M45.08,1374.63c17,7.61,30.42,8.8,38.33,12.75"/>
    <path d="M50.53,1405.37c8.76,6.92,27.34,9.29,35.25,12.46"/>
    <path d="M67.37,1438c8.92,4.31,19.6,5.89,23.95,7.47"/>
    <path d="M385.52,1140.64c15.05,12.87,22,25.16,31,37.84,7.34,10.3,8.24,24.59-8.22,30.34"/>
  </g>
  <g class="skinFoldLine">
    <path d="M212,1381.16a33.85,33.85,0,0,1-13.15-3.66"/>
    <path d="M349.79,1158.43c.5,11,12.8,9.76,23.45,16.93,3.81,2.57,5.81,10.28,14.43,5.85"/>
    <path d="M331.83,1152.31c-6.1-13.94,44.35,8.18,66,41.89"/>
  </g>
  <path class="skinEdgeLine" d="M100,1375.13c2.77,16.21-10.48,22.69-.32,36.76,7.44,10.29-1.68,17,4.72,27.26,3.17,5.08.72,14.26,7.83,18.61"/>
  <path class="hairBlack" d="M256.29,760c-5.22-19.55,2.54-35,16.35-48.64-25.88,8.53-39.56,29-33.19,54.53-21.11-11.56-54-3.08-75.95,17.08,22.34-7.57,42.92-10.06,59.58-1.32C158.81,832.84,120.29,917.91,127.24,1000c4.82,57,41.29,101.47,56.35,155.08,3.51-7.78,6.29-15.26,6.72-27.7,12.06,17.07,36.73,40.74,70.14,31.65,28.78,1.64,21.07-10.66,55.73,10,2.62-3.29,3.16-12.54,3-19.82-42.28-28.39,8.36-60.79,66.31-8.49,73-13.28,106.77-115.12,171.84-139.37-14.19-44.69,79.82-132-75.32-228.16C388.51,722,316.53,728.62,256.29,760Z"/>
  <path class="hairOverlapLine" d="M260.69,1142c9.28-.26,19.3-4.75,29.75-4.35-11.47,7.5-21.21,16.88-30,21.33"/>
  <path class="bennettSleeves" d="M382.73,1355.9c-19.57,2.29-39.9,111,34.45,133.44,113.29-7.84,207.45-103.86,287.62-94.94l431.68-256.84c41.94-25.21-7.72-79.5-34.1-101-12.31-17.73-23.86-13.69-30.22-17.73-6.35-9.82-28.29-17.33-44.46-17.33C944,966.83,853.89,906.19,795,932.18c-39.69,17.51-47.35,35.8-80.26,64.67-16.74,14.68-43.2,20.26-56.37,42.08,14.79,23-67.7,144.25-91.21,143.34-13.34,6.68-7.56,16.5-8.72,27.47-21.94,3.46-7.12,16.37-11.17,32.53-10.39,8.09-23.67,7.51-28.87,39.85-16.34,19.74-39.84,21.37-43.89,46.2-26,16.74-54.53,4.56-56,28.29C408.16,1347.6,394.34,1357,382.73,1355.9Z"/>
  <path class="shirtWhite" d="M1270.6,1193.8c57.24,95.22,3.44,244.91-92.34,324.72-23.18,19.31-48.08,33.92-83.16,57.9-6.78-4.39-15.78-6.68-27.11-6.78-22.33,7.18-19.86-16-30.13-27.11-22.7,9.35-45.47-22.43-92.64-42.18-59.38-8.37-103.58-45.52-151.12-72-29.15-16.23-62.16-19.73-89.3-33.95-43.39-33.13-39.45-82.46-59.35-136.58,2.76-6.3-.66-18.52-4.78-29.21,3.53-8.26,1.86-14-8-20-.58-12.53-4.41-27.77-9.15-40.64,19.34-19.44,54.25-77.55,57.78-110.53,11.64-1.83,23-2.62,35.71-8.12-1.17-6.76,13.52-12.36,22.77-7.35,15.66-6.79,39.15-11,62.1-14.59-.41-5.7,13.19-9.29,22.54-6.32,23.79-1.47,54.26-10.65,81.89-8.06,54.41,17.43,146.84,90.27,167.4,90.5,18.22.21,33.78,19.75,51.22,29.38,22.67,12.51,41.43,7.53,52.73,31.63,15-4.5,27.1.8,36.91,13.56C1234.58,1176.29,1249.75,1189.27,1270.6,1193.8Z"/>
  <g class="clothesDisplayLine">
    <path d="M1269.57,1395c29.75,12.19,53.91,29.79,75.24,52.34"/>
  </g>
  <g class="clothesOverlapLine">
    <path d="M882.13,1003.89a75.4,75.4,0,0,1,24.14,9.1"/>
    <path d="M1420.07,1386.92c3.1,28.69-5,58.35-29.16,89.43"/>
  </g>
  <g class="clothesFoldLine">
    <path d="M418.48,1356.61c-10.63,34.59,2.64,70.58-9,68.66-10.08-1.67-14.22-29.89-7.54-54.4"/>
    <path d="M474.49,1328.32c-2.29,31.68,3.48,58.85,17.95,81.15"/>
    <path d="M495.57,1362q4.76,34.71,19.84,54.3"/>
    <path d="M518.38,1282.12c-1.55,13.78.63,24,5.39,31.8"/>
    <path d="M547.25,1242.27c9.41,60.68,53.8,88.36,46.49,95.67-11.24,11.23-38.64-18.8-52.74-51.7"/>
    <path d="M558.42,1209.74c20.92,3.18,27.2,2.86,14.13-13"/>
    <path d="M608.88,1240.29c27.68,10.26,52.54,23.21,72.06,41.25"/>
    <path d="M732.11,1282.06c-39.09-28.25-87.72-52.21-117.49-65.79"/>
    <path d="M707.05,1235.59c-36.55-19.84-67.88-23-96.6-34.46"/>
    <path d="M702.47,1037.41c32.4,28.5,77.85,53.73,129.23,77.49"/>
    <path d="M718.26,1023.67c45.9,44.44,110,65.68,152,80.7"/>
    <path d="M775.57,1006.42q26.52,24.51,50.29,33.62"/>
    <path d="M792.23,1000.57c15.26,12.56,47,28.71,79.53,45"/>
    <path d="M843.2,957.4c20.35,17,38.15,33.5,44.34,47.75"/>
    <path d="M887.14,979.49c15,12,26.92,24.36,30,37.49"/>
    <path d="M1027.7,1001.47c17.79,10.78,37.4,34.7,45.09,61.29"/>
    <path d="M1072.16,1018.8c8.87,8.37,14.77,20.83,19.47,35"/>
    <path d="M1102.38,1036.53c7.44,12.22,12.26,23.48,13.28,33.33"/>
    <path d="M1077.16,1119c37.93,44.86,58.46,94.68,54.33,151.52"/>
    <path d="M1005.09,1271.34c-12.4,31.1-27,58-45.05,78.08"/>
    <path d="M1038.67,1208.27c1.36,36.59-27.58,106.75-48.87,128.87"/>
    <path d="M892.36,1461.34c56.78,20.84,110.77,13.92,162.06-19.64"/>
    <path d="M945.22,1500.35c15.53.83,31.45-1.83,47.64-7.07"/>
    <path d="M1020.15,1525.23c15.39-2.76,30.33-8.7,44.92-17"/>
    <path d="M1037.86,1542.53c13.83-4.78,28.66-13.65,43.85-24"/>
    <path d="M1068,1569.64c13.09-5,24.65-11.35,34-19.45"/>
    <path d="M1167.57,1318.24c-19,38.47-39,73.54-60.23,103.16"/>
    <path d="M1200.85,1263.66c-14.56,57.29-34.93,108.87-66.89,149.09"/>
    <path d="M1238.78,1272.32c-10,53.09-25.83,102.28-53.91,143.42"/>
    <path d="M1260.42,1309.25c-13.64,58.54-36,109-68.89,149.76"/>
    <path d="M1177.62,1164.5c9.58,14.64,17.05,36.18,16.57,46.58"/>
    <path d="M1214.53,1178.06c6.54,9.56,10,20.59,10.28,30.36"/>
    <path d="M1429.07,1261c4.57,6.43,6.11,22.22,4.13,35.85"/>
    <path d="M1449.45,1344.23c-2.3,31.82-9.37,62.62-24.15,91.78"/>
    <path d="M1450.41,1274.54a42.54,42.54,0,0,1,.35,14.36"/>
    <path d="M1635.4,1379.32c-15.88,14-23.46,35-26.12,60.2"/>
    <path d="M1642.65,1413.61c-32.93,55.33-10.1,85.63,4.39,127.34"/>
    <path d="M1672.51,1461c-18,19.91-23.08,43.52-7.9,72.9"/>
    <path d="M1686.56,1400.88c-6.46,10.64-6.75,22.39.88,35.56"/>
    <path d="M1607.09,1505.38a75.53,75.53,0,0,0,9.22,28.11"/>
    <path d="M1836.56,1358.63c-13.88,10.48-27.6,22.71-42.85,17.66"/>
    <path d="M1805.56,1411c14.92-.49,19.76,39.08,44.35,65.42"/>
    <path d="M1934.23,1502.22c-14.74-7.06-18.64-20.48-17.57-36.79"/>
    <path d="M1897.36,1344.4c-58,59.11,14.92,138.53-2.66,142.1-16.79,3.42-72.45-75.52-32.93-123"/>
    <path d="M1932.24,1337.16c-19.13-1.39-34.31,44.86-27.44,91.38"/>
    <path d="M1799.85,1804.42c-53.57,23.71-50,79.75-59.71,80.35-12.72.8-6.59-57.52,15.36-75.08"/>
    <path d="M1726,1915.53c-10.4-5.78-14.27-13.87-14.36-23.29"/>
    <path d="M1675.59,1793.88c22,16.77,26.49,43.54,22,75.52"/>
    <path d="M1755.06,1759.65c-15,4.21-32.42,5.11-54.44,0"/>
    <path d="M1802.28,1786.81c-10.77-1.71-16.92,2.68-22.62,1.36"/>
    <path d="M1595.3,1634.81c-60.23,11.53-103.7,78.27-95.8,137.72"/>
    <path d="M1567.13,1678c-40.4,34.25-41.72,74.21-42.33,106.92"/>
    <path d="M1476.23,1715.28c-7.12,21.44-12.93,42.38,0,56.2"/>
    <path d="M1615.87,1699.47c.88,21.52-9,45.83.44,58.84"/>
    <path d="M1561,1740.31c9.28-23,20.38-33.85,31.18-25.47,10.55,8.19-12.62,50,16.68,54.89"/>
    <path d="M1575.74,1612.28c-15.64-2.39-40,10.35-48.13,22.53"/>
  </g>
</svg>
