<svg id="presence" xmlns="http://www.w3.org/2000/svg" viewBox="0 0 1037.89 1898.31">
  <defs>
    <style>
      .cls-1 {
        fill: none;
        stroke: #000;
        stroke-miterlimit: 10;
        stroke-width: 2px;
      }
    </style>
  </defs>
  <title>cautious</title>
  <g id="bennettSoleSide">
    <path class="cls-1" d="M629.4,1817.41a53.13,53.13,0,0,1,14,48.63c-5.74,31-124.5,45.9-163.07,11.68-21.14-18.75-21.85-35-32.87-62.42-10.09-25.17-30.79-42.52-28.47-53.37.55-14.69.78-25.92,5.58-36.69C479.93,1801.67,577.65,1767.58,629.4,1817.41Z"/>
    <path class="cls-1" d="M271.32,1670.26c14,13.48,12.43,39.85,8.88,46-15.43,26.85-147.86,48.87-176.88-6.06-10.44-19.77-18.64-34.3-20.56-50.17-1.29-10.59,0-24.75,3.65-36.39C171.55,1616.29,238.13,1627.74,271.32,1670.26Z"/>
  </g>
  <g id="bennettShoe">
    <path class="cls-1" d="M588.24,1618.27c-2.46,36.2.67,53.38,5.85,100.35,3.32,30.13,12.22,71.43,35.31,98.79-32.77-22.71-114.12-10.71-142.8,26.79-20.54-18.32-19.06-39.69-33.18-62.75-9.52-15.55-32-34.79-28.82-56.21,7.18-50.41,36.84-71,54.17-117.82Z"/>
    <path class="cls-1" d="M243.17,1489.59c-8.22,30.06-3,60.54,2,93,5.23,34.3,10.55,63.86,26.19,87.72-23.87-28.82-132.88-26.48-157.52,14.59-12.93-30.2-24.63-29.63-27.39-61.18,7.08-70.73,42.64-69.59,53.33-149.79Z"/>
  </g>
  <g id="bennettShoelace">
    <path class="cls-1" d="M589.09,1762.91c-15.74-3.74-56.23-3-71.61,2.25-6-34.49-4.49-62.61-6.12-86.35a225.26,225.26,0,0,1,70.23.5C585.64,1699.74,582.34,1729.17,589.09,1762.91Z"/>
    <path class="cls-1" d="M231.62,1618.69c-16.73-4.28-60.42-4.9-77.33-.17-4.19-34.7-.71-62.77-.89-86.57a261.22,261.22,0,0,1,75.67,2.87C232.08,1555.39,226.58,1584.72,231.62,1618.69Z"/>
  </g>
  <path id="converseLogo" class="cls-1" d="M453.76,1742.84c14.66,11.46,31.09-49.93,15-60C455.21,1674.39,438,1730.56,453.76,1742.84Z"/>
  <g id="clothesOverlapLine">
    <path class="cls-1" d="M511.81,1646.42c3.92,8.42-2.2,18.64-.45,32.39"/>
    <path class="cls-1" d="M579.48,1648.38c3.19,8.34.24,18.56,2.11,30.93"/>
    <path class="cls-1" d="M583.47,1695.45a307.51,307.51,0,0,0-71.37,0"/>
    <path class="cls-1" d="M584.22,1713.13a399,399,0,0,0-71.56,1.53"/>
    <path class="cls-1" d="M584.94,1729.1a247.63,247.63,0,0,0-71.42,2.64"/>
    <path class="cls-1" d="M586.41,1745.9a212.61,212.61,0,0,0-71.3,3"/>
    <path class="cls-1" d="M155.79,1502.74c1.9,10.3-3.36,15.4-2.39,29.21"/>
    <path class="cls-1" d="M230,1551a357.08,357.08,0,0,0-76.93-2.42"/>
    <path class="cls-1" d="M229.67,1568.74c-26.17-4.19-52-4.92-77.24-.89"/>
    <path class="cls-1" d="M229.38,1584.74c-25-3.46-50.71-3.25-77.15.22"/>
    <path class="cls-1" d="M229.86,1601.58a247.47,247.47,0,0,0-77.05.55"/>
    <path class="cls-1" d="M229.86,1510.27c-3.25,7.07-.48,15.8-.79,24.55"/>
  </g>
  <g id="clothesDisplayLine">
    <path class="cls-1" d="M486.6,1844.2c28.51,26.57,131,21.45,155.37-6.26"/>
    <path class="cls-1" d="M113.8,1684.85c37.1,43.89,157.52,18.87,165.19-2.85"/>
  </g>
  <path id="bennettJeans" class="cls-1" d="M550.85,754.78c-5.07,48.05,33.87,48.6,11.12,79.85,2.76,42.77,26.69,38.94,11.12,67.73,16.53,42,24.5,139.93,35.38,234.52,4.72,41.1,35.2,72,11.11,99.06-11.12,12.48,21.83,35.94,0,53.57,4.61,66.43-1.25,143-11.11,221.38-5.66,45,31.09,77.17-7.08,95,17.16,30.42-5.7,38.82-21.91,42.47,2.46-26-60.31-29.42-67.67-2-12.68-3.85-36.77,4.9-52.1-.63,1.6-15.06-24-36.27,0-43.66-27.83-19.46-5.34-40.06-4.06-59.74,3.2-49.46-9.41-153.52-9.17-215.12.12-29-36.44-45.89-1.64-74.06-35.51-17.72-10.54-57.47-17.56-74.6-25.71-62.8-35.12-124.55-62-173.9,11.67,84.16,14.28,173.61,17.56,196.39,1,6.88,17.16,24.58-10.43,40.05-3.58,44.34-41.46,98.83-64.18,151.4-10.52,24.34-.79,56.42-29.08,71.87,2.13,27.07-24.79,39.3-49.3,45.85-1-24.69-55.91-31.07-73.07-7.53-8.34,7.85-19.61,4.9-26.29,11.51.3-27.2-43.34-44.85,0-77.81-23.24-31.28,25.4-53.61,27.27-71.49,8.83-84.34,26.32-78.72,23-110.82-2.45-24,1.61-23.48,7.28-30-16.11-6.3-13.66-26.9-1.65-29.08-30.15-25.77,9.41-21.38-18.1-90C131.21,1012.49,81.76,898.61,102,782c-16.28-33.42,16.57-32.44,29.37-83.93Z"/>
  <g id="clothesDisplayLine-2" data-name="clothesDisplayLine">
    <path class="cls-1" d="M383.7,786.39c-1.49,20,13.36,38.38,3.85,56.76-7.47,14.46,3.19,33.93-7,52.36-5.83,10.57-17.95,44.87-17.95,44.87-5.28-69.1-79.08-125.73-97.55-107.76-13.67,13.31,28.35,18,50,37.63"/>
    <path class="cls-1" d="M430.25,786.83c-4,12.46,9.77,35.65-3.8,60.81-10.76,20,21.44,46.87-53.37,64.81"/>
    <path class="cls-1" d="M295.89,768.77C264,799,226.72,815,180.14,803.76"/>
    <path class="cls-1" d="M469.76,781.43c14.7,28.16,47.93,39.29,80.34,34.8"/>
  </g>
  <g id="clothesOverlapLine-2" data-name="clothesOverlapLine">
    <path class="cls-1" d="M362.62,940.38c3.49,24.43-2.49,43.38,2.67,64.33"/>
  </g>
  <g id="clothesFoldLine">
    <path class="cls-1" d="M562,834.63c-10.82-4.07-59.27-6.65-107.72,7.27"/>
    <path class="cls-1" d="M573.09,902.36c-22-7.27-47.12-7.54-74.52-2.73"/>
    <path class="cls-1" d="M545.48,915.09c-20.51-2.9-40.12-1.46-58.76,4.64"/>
    <path class="cls-1" d="M455.79,955.81c-27.34-4.55-52.93-6.37-75.25-3.09"/>
    <path class="cls-1" d="M336.72,903.75C284,864.91,220.6,850.08,147,857.88"/>
    <path class="cls-1" d="M190.33,835.71c-22.58-3.14-43-3.63-56.18,4.64"/>
    <path class="cls-1" d="M362.62,940.38c-23.59-15.69-53.74-23.31-87.24-26.83"/>
    <path class="cls-1" d="M415.31,894.54c22.16-17.53,54-25.84,61.62-14.5,7.48,11.17-21.65,4.13-34,18.56"/>
    <path class="cls-1" d="M512.49,1244c-26-5.87-47.74-16-60.82-34.53"/>
    <path class="cls-1" d="M444.84,1253.21c17.14,8.78,40.86,7,9.41,24.76"/>
    <path class="cls-1" d="M503.73,1294c-15.69,2.47-28.63,10.76-38.66,25.26"/>
    <path class="cls-1" d="M372.42,1241.15a80.82,80.82,0,0,0-29.51,18.27"/>
    <path class="cls-1" d="M265.59,1270.76c-23.12-8.15-45.55-2.89-67.52,11.34"/>
    <path class="cls-1" d="M188.1,1224.14c19.24,4.35,25.43,18.27,3.27,17.75"/>
    <path class="cls-1" d="M186.45,1195.06c27.59,10.75,71,17.91,62.13,29.82-6.18,8.27-32.47-8.76-50-16"/>
    <path class="cls-1" d="M185.7,1160.45c44.32,30.41,64.94,1.55,12.88-3.61"/>
    <path class="cls-1" d="M272.29,1432.61C237.76,1471.78,162,1458.38,162,1392.4"/>
    <path class="cls-1" d="M130.5,1436.44c18.6,32.25,61.38,26.06,41.28,42.56"/>
    <path class="cls-1" d="M279.16,1464.42c-17.56,11.94-34.81,17.33-51.71,15.61"/>
    <path class="cls-1" d="M601.39,1605.91c-9.52,4.53-17,8-27.56,7.11"/>
    <path class="cls-1" d="M459.71,1602.13c15.65,10.75,31.36,14.81,47.11,14.49"/>
    <path class="cls-1" d="M551.15,1531.06c-133,26.8,47.94,55.67-60.31,58.76"/>
    <path class="cls-1" d="M584.65,1419.72c-26.28,108.25,20.66,124.22-14.43,128.35-61.34,7.21-32.71,23.21,17.53,39.17"/>
  </g>
  <path id="bennettSleeves" class="cls-1" d="M530.47,89C607.61,153.84,637.41,130.6,663,202.78c5.56,15.69,20.32,13.64,21.78,59.21,11,4.56,19.13,12.11,18.91,28.67,12.13,5.06,18.17,14,18.32,26.61,12.47,1.11,12,26.09,21.28,31.33,6.18-4.65,23.46,12.63,24.24,22.46,26-5.06,29,22.95,63.26,36.66,5.09,14.9-60.66,111.63-72.31,110.14-9.2,1.49-20.34-14.79-50.66-26.79-19.14-.52-16.07-12.32-29.27-24.35-26.82-24.44-53.4-62.42-75.54-90.34L195.31,338.83c-12.26,2.29-24.62,33.6-41.81,46.24.19,11.21-4.42,17.94-13.11,20.86,6.82,108.18-161,123.11-137-1.79,9.56-22-.51-36.77,22.62-53C53.29,319,70.52,274,111.21,235.22c4.42-14.8,13.33-35.24,24-38.05,89.67-142.11,116.39-106.49,237-133.32Z"/>
  <path id="bennettShirt" class="cls-1" d="M555.34,763.89c-51.49,2.68-93.79,33-188.4,20.73C261.28,771,164,708.89,126.19,704.52c.94-11.47,11.83-21.16,14.64-33-6.9-15.8,14.8-26.87,14.49-38.83-8.76-18,10.43-28.1,11.59-47.52,1.91-54.56,6.07-106.8,13.33-155.9-15.81-18.39.52-23.52,1.36-34.68,1.4-18.58,3.52-31.69,13.71-55.73C207.13,314.88,234.43,286.71,251,256c27.06-2.71,45.5-18.59,65.36-34.41C340.08,202.62,362.1,189,395.25,158c33.32,18.63,102.88,35.36,132.14,15.06,23.9,11.72,34.83,68.15,68.64,117.83,7.13.51,17,10.76,16.55,17.21-19.71,64.91,1.16,72.44-20.86,102-8.12,53.31,9.85,55.63-7,80.55-18,70.13,6.55,69.34-5.79,95.05-23.25,48.4,13.91,59.69-18.55,85.77-1.74,9.27,16.81,23.18-6.95,48.1C557.87,731.58,552.89,746.83,555.34,763.89Z"/>
  <g id="clothesFoldLine-2" data-name="clothesFoldLine">
    <path class="cls-1" d="M623.56,227.23c7,31.6-19.77,70.45-53.66,73.91"/>
    <path class="cls-1" d="M633.27,182c20.09,56.27,3.12,126.39-63.37,138.45"/>
    <path class="cls-1" d="M668.1,243.64c1.68,40.57-7.43,77.49-40.64,106.3"/>
    <path class="cls-1" d="M684.76,262c.16,24.86-4.93,50.47-24.7,78.12"/>
    <path class="cls-1" d="M703.67,290.66c.61,23.55-19.54,55.28,4.18,26.68"/>
    <path class="cls-1" d="M722,317.27c-1.67,21.7-13,42.46-44.51,61.25"/>
    <path class="cls-1" d="M743.27,348.6c7,30.1-21.13,61.19-79.19,54.49"/>
    <path class="cls-1" d="M667.21,421.85c18.21.37,29.45,3.68,22.33,14.74"/>
    <path class="cls-1" d="M767.51,371.06c-2.94,36.05-64.31,71-58.32,81.16,6.49,11,25.34-16.91,35.73-37.07"/>
    <path class="cls-1" d="M793.16,393.26a474.2,474.2,0,0,0-48.68,73.25"/>
    <path class="cls-1" d="M707.8,491.07c17.7-3.9,31.67-5.05,28.19,6.7"/>
    <path class="cls-1" d="M344.74,267.76c-20.54,1.34-67.88-12.95-83.51-21.88"/>
    <path class="cls-1" d="M361.27,287.41c-30.75-2.66-60.74-9.82-71.91-16.52"/>
    <path class="cls-1" d="M436.3,371.82c-53-3-102.73-8.54-145.15-19.65"/>
    <path class="cls-1" d="M507.32,391.92a567,567,0,0,1-145.6-9.38"/>
    <path class="cls-1" d="M557.79,483.48c-25.38,12.41-52.82,19.78-83.52,19.21"/>
    <path class="cls-1" d="M584.76,490.67c-20.48,14-45.62,23.61-77.44,26.75"/>
    <path class="cls-1" d="M424.24,580.4c-45.8-1.41-87.72-8.58-124.6-23.23"/>
    <path class="cls-1" d="M514.46,590.23c-60.85,14.24-119,15.52-173.74,0"/>
    <path class="cls-1" d="M529.2,665.7c-45.11,21-74.59,47.79-122.37,51.37"/>
    <path class="cls-1" d="M560.42,671.49c-22.17,24.4-114.29,42.9-33.9,40.66"/>
    <path class="cls-1" d="M553.47,719.59c-14.86,10.17-30.9,16.43-49.28,14.9"/>
    <path class="cls-1" d="M467.12,754.58c-62.1,1.54-120.38-1.59-171.95-13"/>
    <path class="cls-1" d="M140.83,671.49C164.54,691.55,199.72,705,235.77,718"/>
    <path class="cls-1" d="M155.32,632.66c12.11,17,37.17,29.05,12.11,27.24"/>
    <path class="cls-1" d="M186.19,625.06c24.05,27.92,49.47,49.64,76.38,64.76"/>
    <path class="cls-1" d="M180.24,429.24c13.11,16.25,26.93,28.07,41.68,34.14"/>
    <path class="cls-1" d="M205.4,425.42c7.14,16.52,35.52,35.61,59.4,44.66"/>
    <path class="cls-1" d="M195.31,338.83a108.46,108.46,0,0,0,44,44.61"/>
    <path class="cls-1" d="M205.4,322a95.93,95.93,0,0,0,25.45,32.89"/>
    <path class="cls-1" d="M263.46,134.67c11.16,21.43.89,96.91-12.51,121.29"/>
    <path class="cls-1" d="M292.49,134.22c1.25,24.24-.14,48.5-10.27,72.8"/>
    <path class="cls-1" d="M233.09,154.32c-3.15,26.66,15.18,51.81,20.1,73.69"/>
    <path class="cls-1" d="M215.67,127.52c-7.15,26.9,9.38,67.89,11.61,103.17"/>
    <path class="cls-1" d="M174.58,197.19c-2.61,47.71,1.57,90.52,17.86,124.61"/>
    <path class="cls-1" d="M157.16,260.17c9.7,29.1,19.71,58.16,9.83,89.77"/>
    <path class="cls-1" d="M126.79,240.07c-12.06,98.7,20.1,127.29,26.71,145"/>
    <path class="cls-1" d="M111.21,235.22c-26.62,69,17.37,128.12-38.46,98.64"/>
    <path class="cls-1" d="M3.34,404.14c14.92-40.8,78.79-36.34,29.21-39.91"/>
    <path class="cls-1" d="M140.39,405.93c-20.3-42.14-71.21-36.79-71.66-43.93.45-5.36,22.18-5,44.22,3.57"/>
  </g>
  <g id="skinEastAsian">
    <path class="cls-1" d="M535.54,45.64,530.47,89c53.19,105.49-182.83,66.46-158.26-25.17L388.49.25"/>
    <path class="cls-1" d="M988.8,568.46C924,542.91,847.19,546.12,760.16,515.23c-5.11-3.35,62.88-107,68-103.67,54.38,18.71,116.59,79.37,209.54,97.87"/>
    <path class="cls-1" d="M174.58,486c-34.53-34.54-34.57-69.54-46.73-80.24C61.21,348.85.48,430.14,29.57,477.65c15.29,23.19,49.79,33,61.14,38.46"/>
  </g>
</svg>
