<svg viewBox="0 0 1368.62 1435.71">
  <path class="bennettUndershirt" d="M9.79,879c-18.47-1.14-2.24-8.35-1.33-122.91.66-83.92,83.49-107.33,130-142.88L320.2,598c51.54,9.26,109.48-16.9,132.3,81.84C646.16,920.22,405.33,1173.67,297.44,1278c-8.88-13.16-22.77-44.94-32.09-68.61-5.88-14.91-16-10.84-18.48-25.35-5.77-11.84-19.61-8.21-19.34-22.78-3.24-12.93-18.78-10.9-17.2-25.79-3.75-14.37-15.59-33.82-29.27-52.52Z"/>
  <path class="clothesOverlapLine" d="M134.15,877.51c6.3-5.1-1.35-34.79-4.71-56.94"/>
  <g class="clothesFoldLine">
    <path d="M46.63,783.51c21.16,22.21,45.55,38.1,74,46.13"/>
    <path d="M114.67,823.24c-14.61-17.81-16.89-42-4.11-26.94"/>
    <path d="M85.45,752c20.93,21.21,38.53,43.29,44,68.56,17-13,20.37-37,21.76-62.56"/>
    <path d="M126.55,705.89c6.85,19.63,8.22,84.93,4.11,97.26"/>
    <path d="M196,720.5c34.13,1.36,62.4-.74,85.4-5.94"/>
    <path d="M229.29,733.74c42.23,1.83,81.92-6.57,118.27-28.31"/>
    <path d="M141.16,879.87c21.56-27.8,51.09-44.72,86.3-53.89"/>
    <path d="M187.28,860.23c-20.51,13.59-37.31,29-46.58,47.95"/>
    <path d="M400.53,695.38c8.5,0,15.94,2.71,22.05,8.91"/>
    <path d="M395.05,646.07c16.93,17,29.45,34.31,33.86,52"/>
    <path d="M320,1031.93c43.06-41.68,101.06-62,169.18-67.78"/>
    <path d="M290.93,1087.85c14.76-28.18,60.84-64,89-75.6"/>
    <path d="M210.33,1135.47c5.74-22,21.83-42.17,39.89-61.93"/>
    <path d="M227.53,1161.26c-.4-22.66,7.87-35.74,17.77-47"/>
    <path d="M246.87,1184c-2.47-13-2.47-24.61,3.8-30.87"/>
  </g>
  <g class="money">
    <path class="dollarEdge" d="M473.55,576c2.77-10.74,17.37-11.09,30.2-2.11,10.7,7.17,24.6,9.39,39.82,12.89a744.19,744.19,0,0,1-44.4,112.35c-22.31.2-49.88-22.61-64.58-17.46C450.25,642.91,464.78,607.57,473.55,576Z"/>
    <path class="dollarCentre" d="M501.54,588.19c-8.09-2.58-18.43-11.31-29.64-6.43h0c-7.87,26.67-19.53,55.91-32.31,87.54h0c9.72-3.18,20.58,3.58,30,7.46,7.12-8.54,16.7-12.91,28.8-13,6.44-12.23,13.23-29,20-48.73C505,610.14,500.72,600.5,501.54,588.19Z"/>
    <path class="dollarSeal" d="M459.31,643.18c8.57,3.07,18.06-.48,21.56-8.88s-.14-19-8.88-21.56a14.47,14.47,0,0,0-10.55.49c-2.79,7.71-5.79,15.61-8.94,23.68A11.35,11.35,0,0,0,459.31,643.18Z"/>
    <path class="dollarBelow" d="M434.59,681.65c-2.78,2.81,3.73,14.08,12.63,21.39L465,689C453.12,683.75,442.15,679,434.59,681.65Z"/>
  </g>
  <g class="envelope">
    <path class="sketchPaperLight" d="M577.05,758,574.54,925.8,353.33,972.31,350.82,792c.71-10.47,8.27-25.6,20.11-37.08L438.18,689a42.35,42.35,0,0,1,52.63-5.21L558,729.13C570.79,738.44,576.6,748.91,577.05,758Z"/>
    <line class="paperCreaseLine" x1="577.05" y1="758.01" x2="350.82" y2="791.95"/>
    <g class="textDisplayLine">
      <line x1="418.99" y1="797.18" x2="367.81" y2="805.32"/>
      <line x1="428.58" y1="807.5" x2="368.6" y2="817.38"/>
      <line x1="422.58" y1="820.91" x2="367.81" y2="830.33"/>
      <line x1="518.71" y1="862.94" x2="430.15" y2="879.04"/>
      <line x1="517.53" y1="875.95" x2="430.13" y2="892.28"/>
      <line x1="527.15" y1="886.5" x2="428.91" y2="905.62"/>
    </g>
    <polygon class="stamp" points="562.74 774.13 562.15 821.73 524.41 828.75 525.11 780.21 562.74 774.13"/>
  </g>
  <g class="eye">
    <circle class="sclera" cx="343.94" cy="385.44" r="103.87"/>
    <g class="irisDarkBrown">
      <ellipse cx="414.72" cy="394.42" rx="19.42" ry="17.61" transform="translate(-17.75 769.3) rotate(-84.48)"/>
      <ellipse cx="285.62" cy="381.95" rx="19.42" ry="17.61" transform="translate(-122.02 629.52) rotate(-84.48)"/>
    </g>
    <g class="pupil">
      <ellipse cx="412.51" cy="393.72" rx="7.55" ry="6.85" transform="translate(-19.04 766.46) rotate(-84.48)"/>
      <ellipse cx="283.41" cy="381.24" rx="7.55" ry="6.85" transform="translate(-123.32 626.69) rotate(-84.48)"/>
    </g>
  </g>
  <g class="skinEastAsian">
    <path d="M629.17,668.67c5.14-21.91-5-38.83-20.8-37,5-15.69-20-27.22-27.27-20.68,5-17.31-17.53-24.53-25.6-21.07,5-14.6,7.77-28.3,2.92-37-8.08-14.48-30.38-17.3-36.86-7.46-31.68,60-11.2,81.28,11.09,74.44-9.84,26.15-19.42,50.48-29.87,72L558,729.13c12.8,9.31,18.61,19.78,19.06,28.88L574.54,925.8l45.06-61.16c-2-40-29.93-91.24-27.47-123.14C592.25,731.73,614.17,732.5,629.17,668.67Z"/>
    <path d="M320.2,598c74.83,72.49-194.57,95.88-181.7,15.2,12.66-29.23,2.29-149.42-32.3-198.7"/>
    <path d="M370.93,754.87c-34,1.9-63,30.48-86,56.28-36.68,45.4-31.2,61.23-50.07,89.5-42.9,53.51-71.83,72.3-100.27,80.5,4.42-26.43,0-65.07-.48-103.64-34.54,6-80.61,1-124.36,1.45,3.86,64.59,10.92,84.22,14.46,124.36,4.34,49.17,11.09,91.59,29.89,105.57,34.13,25.37,83.05,16.86,119.54-10.61,44.83-33.74,71.34-87.25,101.71-121C305.47,976.16,336.1,962,358,931.58c6.65-9.06,36.08-10.49,26-36.22,13.59-8.3,8.31-30.18-7.12-38.59a58.07,58.07,0,0,1,16.22.78c15.81,37.56,38.2,18.94,33.8,7.82-8.77-17-2.89-27.37-24-37.21-17-7.94-29.71-16.08-77.35,5.88,4.2-10.8,10.15-30.89,25.28-38.81-.74-13.3,8.83-29.46,20.07-40.36"/>
    <path d="M386.77,578.93c-23.22,21-30.72,38.51-66.1,36.41-47.07-2.8-38.86-6-96.44-36.2C173,552.25,125.44,506.63,117.42,443c-17.6,16.08-35.34-1.38-41-15.29-6.6-16.22-22.34-16-29-62.66C11.68,213.25,347.09,55.51,477.7,219.89c-24,80.19,4.49,96.64-23.45,168.16C441.63,419.11,471.73,502.23,386.77,578.93ZM335.89,384.5c-5.06-15.68-17.75-19.38-30.16-19.45-11.91-.07-29.07,4.33-42.83,9.94,7.9,6.57,20.47,16.89,35.47,18.59,16.06,1.82,22.14-2.2,32.88-4.14C333.62,389,337.64,390,335.89,384.5Zm67.48,11.77c2.15.39,12.81,13.56,35.45,7.57,3.25-5.36,5.18-14.34,3-20.89-4.21-2.54-25-13.13-42.06,9.05C397.86,394.49,399.15,395.51,403.37,396.27Z"/>
  </g>
  <g class="skinOverlapLine">
    <path d="M72,1025.29c16-25.66,37.74-38.54,62.65-44.14"/>
    <path d="M532.65,619.92c13.47-9.31,9.12-26.72,13.08-38.91"/>
    <path d="M555.5,589.93c-7.85,2.61-25.15,49.9-29.92,62.59-4.61,20,18.23,29.22,29.53,14.61,9.08-12.69,20.86-38.66,26-56.13"/>
    <path d="M608.37,631.68C606.1,662.9,561.5,717.5,548,672.83"/>
    <path d="M624.94,657.9c-14,35.1-33.84,54.6-56.14,31.15"/>
    <path d="M376.92,856.77c-13.05-3.69-26.53,5.49-37.88,8"/>
    <path d="M384,895.36c-8.46-13.22-22.19-5.55-37-1.16"/>
  </g>
  <g class="skinFoldLine">
    <path d="M112.28,358.4c-16.75-61.08-83.9-19.71-33.92,46.28"/>
    <path d="M107.68,373.82c-16.64,2.57,10.45,32.44-5.52,36.56-7,1.81-3.11-14.74-15.08-22.69-17.35-11.53,1-40.89,8.28-30.07"/>
  </g>
  <g class="blanket">
    <path class="bennettBlanket" d="M775.89,838.24c43.89-54.09,60-73.71,123.61-68.21,118.84,10.28,135,161.42,188.89,238,37.7,53.59,88,77.42,131.4,243.55,27.09,22.56,50.93,51.92,72.5,86.09,35,13.73,42.11,61.71,72.5,71.91-8.1,1.67-17.87.74-32.23-7.23-65.61-36.37-74.93,6.52-121.71,18-28.92,7.08-56.73-25.15-104.94,3.51-20.52,15.57-134.92,17.39-182.4-14.44-57.41,37.35-122.94,8.55-174.4,18.84-48.11,9.62-147.68-38.66-212.68-12.56-33.21,8.35-77.61-7-108.54-2.53,10.37-8.3,16.58-4.48,26.29-11.89-30.48,1.68-40.41-12.08-84.65,3.83-38.45,13.82-56.73-49.13-147.11-12.21,34.69-25.05,48.55-75.29,81.58-88.38-3.21-30.83-31.47-50.75,25.06-84.79-12.85-36,29.22-57.14,25.69-92.51-5.3-53.18,48.18-67.45,87.37-94.43C498,923.56,539.76,810.5,629.7,788,692.25,772.38,743.28,789.59,775.89,838.24Z"/>
    <g class="bennettBlanketInner">
      <path d="M222.42,1392.88c31.51-13.83,68-16.72,93.53-2.4C290.63,1388.72,262.91,1399.81,222.42,1392.88Z"/>
      <path d="M536.43,1415.68c39.4-14.26,74-5.6,121,4.52C608.16,1411.63,566.83,1421.21,536.43,1415.68Z"/>
      <path d="M1230.48,1413c35-.08,73.67-13,102.08-10.68C1277.66,1371.39,1260,1398.48,1230.48,1413Z"/>
      <path d="M1105.91,1423.84a663.58,663.58,0,0,0,91.49-3C1173.51,1418.13,1144,1400.39,1105.91,1423.84Z"/>
    </g>
    <g class="blanketFoldLine">
      <path d="M775.89,838.24c51.55,74.46,68.85,166.73,112.42,277.27"/>
      <path d="M1219.79,1251.58c-45.78-49-76.48-111.43-195-61.68-61.81,25.94-141.83-8.11-163-82.2"/>
      <path d="M703,855.42c40.16,95.92,72.35,205.42,87.85,279.44,8.94,42.67,37,87.94,45.5,130.66"/>
      <path d="M517.74,1355c36-51.87,33.87-108,94.21-127,45.73-14.44,104.66,23.84,173.59,28.58,140.59,9.65,183.12,129.13,260.39,88.91"/>
      <path d="M562.09,895.72c13.82,16-7.75,160.12-21.12,274.58"/>
      <path d="M488.72,986.88C450.93,1090.26,378,1180,395.35,1221.43c20.38,48.76,2.22,85.6-41.13,34.47"/>
      <path d="M463.16,1128.06c-22.24,55.58-44.47,80,24.45,129"/>
      <path d="M442.12,1032.77c-14.6,26.67-30.29,49.3-49,60.83"/>
      <path d="M329.06,1219.71c24-12.73,48.45-7.57,66.29,1.72"/>
      <path d="M350.88,1285.91c-19.8,2-28.9,14.45-46.88,18.59"/>
      <path d="M454.18,1401.26c23.76-25.65,45.07-70.62,83.47-82"/>
      <path d="M649.91,1257c-45.29,28.11-7.94,57.72,55.58,87.82"/>
      <path d="M496.51,1370.39c8.55,22.94,44.46,21.68,74.47,21.68"/>
      <path d="M923.51,1409.4C858.9,1386,785.65,1405,756.63,1382.18"/>
      <path d="M897.82,1292.56c40-12.21,73.93-41,111.15-28.88,40.44,13.1,119,74.48,175.64,94.49"/>
      <path d="M1154.12,1344.83c48.28-2.23,69.4-18.9,138.17-7.16"/>
      <path d="M1122.36,1218.1c-28.08-22.22-57.81,1.11-86.71,15.56"/>
      <path d="M757.81,1123.21c-5.27,59.43,43,102.06-14.38,126.74"/>
      <path d="M914.29,879.46C897.74,838.08,885,908,881.94,975"/>
      <path d="M809.72,827.55c19.57-9.1,18,12,2.25,53.41"/>
      <path d="M997.8,1055.5c39.26-43.54,90.27,12,130.15,76"/>
      <path d="M1018.11,1066.78c5.8,31.72-12.63,52.54-58.68,60.94"/>
      <path d="M1064,1081.83c16.67,38.54,33.21,74.19,48.88,90.43"/>
    </g>
  </g>
  <path class="lipMaleMedium__noStroke" d="M374.83,518.4c-13.15,5-14.81,5.75-31-1.32-12.95-1.86-27.72,9.32-47.58,17,16.34-.15,26.72,21.71,48.44,23.62,24.69,2.18,27.09-17.5,32.83-21.54C371.65,528.53,383.92,522.51,374.83,518.4Z"/>
  <path class="lipBorderLine" d="M295.24,534c20.4-3.67,37.71-12.35,46.07-5.85,10.42,8.08,18.11,5,21.7,3.53,3.22-1.36,9,3.27,16.5,5.19"/>
  <path class="lipOverlapLine" d="M367.86,528.51a25.13,25.13,0,0,1-4.85,3.12"/>
  <g class="lipEdgeLine">
    <path d="M343.82,517.08c16.2,7.07,17.86,6.29,31,1.32"/>
    <path d="M321.4,547c9.54,9.37,26.76,16.33,44.46,4.87"/>
  </g>
  <g class="noseLine">
    <path d="M326.05,482.31c-7.86-7.24-1.87-20.92,4.43-24.46"/>
    <path d="M391.5,435.48c-2.23,17,21.56,39.92,3.67,51.15-27,24.27-47.08-9.57-59.8-2"/>
  </g>
  <g class="eyeFoldLine">
    <path d="M436.09,414.12c-8.31,5.42-20.79,3.18-28.62-1.72"/>
    <path d="M321.75,403.34c-17.38,8.17-35.92,1.45-42.74-3.09"/>
  </g>
  <g class="eyeCornerLine">
    <path d="M250.83,378.43A87.13,87.13,0,0,0,262.9,375"/>
    <path d="M441.82,383c3,2.2,4.54,5.09,6.73,5.64"/>
    <path d="M438.82,403.84a23.3,23.3,0,0,0,5.59-3.19"/>
  </g>
  <path class="eyeCreaseLine" d="M249.9,366.06c29-4.72,66.28-23.15,86.89,5"/>
  <g class="eyebrowBlack">
    <path d="M248,340.68C282.15,306.2,309.56,332,357,327.55,335.78,357.05,286.13,317.48,248,340.68Z"/>
    <path d="M413,334.71C424.76,356.38,443.53,349,462.94,361c.84-3.78,1.7-7,2.2-10.56C449.85,338.3,431.06,342.79,413,334.71Z"/>
  </g>
  <path class="hairBlack" d="M319.56,213.63c6.26,93.8,72.66,89,92.65,111.39-2.8-10.73-6.24-22.63-13.32-33.41,23.74,25,58.36,5.4,87.55,41.76,15.72-27.43,26.46-75.51,9.31-109.25,7.66,0,18.52,3.29,33.57,2.66C471,198.48,484.49,76.86,312.28,40.7c-54-11.35-107-4.23-138,7.87C177.52,26.36,202.68,11.25,223.34,1,192.77.67,158,28.48,150.07,54.91,138.13,35.3,85.46,41.53,73.56,63.26c15.44-14.46,56.57-12.51,58,6.41C22,121.85,23.35,336.29,47.43,365.05c-7.62-58.26,57.43-70.51,69.19-25.2,8.34,4.49,26,9.77,35,10.18,3.44-27.71,11.3-26,42.11-50.26,23.74-1.35,49.76-8.81,77.57-29.73-2,13.75-7.44,22-12.42,30.43C273.73,298.07,308.53,280.9,319.56,213.63Z"/>
  <path class="hairOverlapLine" d="M193.71,299.77c-14,1.33-31.1,2.08-38.29.44,8.32-5,17.68-11.19,24.43-18.08"/>
</svg>
