<svg viewBox="0 0 115.92 263.94">
  <path class="soleWhite" d="M30.33,218.13l-1.95-2.88c-7.7,2.88-8.34,10.56-3.53,17Z"/>
  <path class="bennettShoe" d="M30.33,218.13c-8.49,3.74-9.59,12.5-.79,19.35C36.33,231.52,35.86,225,30.33,218.13Z"/>
  <path class="bennettJeans" d="M92.34,176.37c6.12,26.13,11.2,50.69,10.45,66.51.48,2.21,3.16,5.37,0,9.88-.58,9.4-16.59,11.22-21.39,8.05-3.48-2.3-8.05-3.26-7.47-8.15-2.79-1.51-1.93-3.71-5.59-8.58-.24,6.09,2.81,7.72-.55,10.69-1.15,8.34-17.07,10.74-22,7.58-2.58-1.68-6.32-.1-7.67-4.32-5-4.31-5-11.48-8.72-15.34-5.56-5.77.09-12.17,2.11-12.94-6.91-17.88-10.65-38.93-9-52.64Z"/>
  <path class="bennettSleeves" d="M74.63,83.66c9.45.4,18.39-3.67,24,6.31,4.59,4.47,6.17,14.06,12.48,31.4,3.7,10.17,6.3,19.18,3,30.74-2.89,2.1-21.4-1.32-21.06-3.42-.65-1.58,1.22-3.94,1.75-8.41a3.36,3.36,0,0,1-.27-3.54c-1.53-1.07-1.72-2.71-1-4.73a23.87,23.87,0,0,1-2.12-5.27l-62.83-.52a11.86,11.86,0,0,0-3.49,4.61c1,7.61-4.86,6.17-4.47,12.87,1.71,3.82,3.45,7.75,2.21,8.41C15.38,156.05,4,157,1.72,155.26c-1.45-6.44-2.77-13.85.91-18.65C4,134.78,6.44,121,11.57,114a22.28,22.28,0,0,1,4.33-9.2C18,94,22.46,86.05,33.51,86.16,41.52,86.24,57.28,81.3,74.63,83.66Z"/>
  <path class="shirtWhite" d="M79,99.68c-5,9.14-26.88,8.28-32.05-2a82.73,82.73,0,0,0-13.38,12.91c-2.62,0-2.75,4.33-3.06.6a10.77,10.77,0,0,0-.13,7.64,29.64,29.64,0,0,0-2,9.64c-3.29.79,0,7.26,0,10.58,0,3.87-.39,6.13.91,10.84-.41,6.57-2.54,10-.88,14.65-1.55,3.65-2.09,8.73-2.13,14.53,17.23,10.42,51.84,10.32,66.88-.36A90.69,90.69,0,0,0,92,156.8c1.18-4.44-.56-5.07-.5-12.78,2.61-5.34-.25-4.25-.12-17.28-1.81-5.66-1.14-10.7-2.87-14,.87-3.75-1.8-4-4.77-9.75C82.51,99.46,81.43,103.47,79,99.68Z"/>
  <g class="clothesOverlapLine">
    <path d="M62.61,202.87c3,12.53,4.51,26.58,5.73,41.21"/>
    <path d="M79.07,256.76c-3.78-9.15-9.15-15.36-11.81-24.5"/>
    <path d="M38.25,249c-3.33-4-3-10.54-6.7-19.24"/>
    <path d="M50.05,190.18c6.34,1.79,11,5.5,12.56,12.69,3.16-3.6,4.3-10.23,8.16-11.67"/>
  </g>
  <g class="clothesFoldLine">
    <path d="M19.85,149.29a25.7,25.7,0,0,1-11.54,1.9"/>
    <path d="M20.63,143.7c-8.18,4.71-15.14,0-16.66-.64-3.26-1.36-2.17,2.57.27,4"/>
    <path d="M11.57,114c-4.27,14.37,0,21.64-5.29,24.83"/>
    <path d="M11.91,122.68c.16,9.39-.2,19.75,6,17.72"/>
    <path d="M15.9,104.81a49.67,49.67,0,0,0,2.39,16.31"/>
    <path d="M18.22,106.59c1.43,12.15,6.46,18.75,6.88,24.24"/>
    <path d="M24.33,99.46c.21,2.86,2,7.34,4,10.46"/>
    <path d="M34.92,96.41a33.69,33.69,0,0,1-1.83,9.23"/>
    <path d="M32.21,109.1c1.75,2.58,5.07,3.56,9,3.87"/>
    <path d="M38.45,116c-2.64-.07-7.12-1.67-7.6-3.33"/>
    <path d="M30.55,111.21c.78-14.94-5.54-21.79-2.41-8"/>
    <path d="M30.42,118.85a16.49,16.49,0,0,0,8.51,5.73"/>
    <path d="M28.42,128.49c0,4.37,4.62,9.44,9.22,11.91"/>
    <path d="M29.3,149.91c3.34,9.55,7.4,16.5,12.28,20.49"/>
    <path d="M28.42,164.56a30.91,30.91,0,0,0,7,10.66"/>
    <path d="M35.47,157.37c4.23,6.95,10.34,12.26,17.38,16.77"/>
    <path d="M29.3,172.88c2.18,3,4.48,5.26,7,6.15"/>
    <path d="M43.21,180.52c9.59,3.7,20.18,3.78,31.5,1.22"/>
    <path d="M83.67,178.69c-5.23.47,3.56-2,8-6.86"/>
    <path d="M92.18,166.05c-4.39,5.75-9.26,7.91-15,9.11"/>
    <path d="M92,156.8c-1.18,2.68-6.2,7.56-8.17,8.11"/>
    <path d="M85.77,157.37Q72.81,171,55.7,168"/>
    <path d="M91.54,144a38.78,38.78,0,0,1-12.69,8.53"/>
    <path d="M84.68,145.83c-4.53,4.71-10.33,6.84-17.24,6.72"/>
    <path d="M91.45,130a32.71,32.71,0,0,1-12.6,7.06"/>
    <path d="M82.17,132.66a18.83,18.83,0,0,0,9.25-5.92"/>
    <path d="M85.19,120.51a26.31,26.31,0,0,1-9.81,9.3"/>
    <path d="M64.25,112.09c8.8-3.31,15.51-8.08,20-14.46"/>
    <path d="M85.36,101.09A52,52,0,0,1,60,118.27"/>
    <path d="M69.27,121.12c-6.51,4.28-13.13,7.14-19.95,7.33"/>
    <path d="M63.23,128.25C89.91,116,91.33,93.42,92.36,93.49s.45,5.43-1.23,9.91"/>
    <path d="M89.57,110.6c-2.33,5.44-6.6,9.84-12.08,13.57"/>
    <path d="M93.78,107.75C93,112.5,91.34,117,90,118.85"/>
    <path d="M97.24,104.76c-.45,4.79-1.22,9.27-3,12.69"/>
    <path d="M102.27,108c-1.15,10.28-2.23,20.63-8.73,24.06"/>
    <path d="M103.42,118.07c-.61,12.42-8.89,17.85-.75,13.71"/>
    <path d="M94.59,136.74c3.4,1,9.12-2.41,13.65-1.91,3.09.35-.95,2.65-3.46,2.31"/>
    <path d="M94.86,140.28c5.17,2.7,15.24,1.93,14.35,3.65-.56,1.09-8,1-12.92-1.09"/>
    <path d="M109.19,147.93a51,51,0,0,1-12.49-1.56"/>
    <path d="M79.79,186.08a25.63,25.63,0,0,0-12.63,4.23"/>
    <path d="M45.19,186.55c5.11.78,10.75,2.27,14.44,5.25"/>
    <path d="M94.78,204a20.24,20.24,0,0,0-13.26-.87"/>
    <path d="M90.94,205.14a29,29,0,0,0-15.46,1.49"/>
    <path d="M46.84,200c-5.66-.36-10.36.92-13.5,4.86"/>
    <path d="M57.9,200.51a27.93,27.93,0,0,0-19-2.35"/>
    <path d="M62.61,202.87a6.9,6.9,0,0,0,.57-5.28c.14-2.18,2.8-3.9.45-10.73"/>
    <path d="M70,198.12c-3.25,1.9-4.6,5.47-7.34,4.75"/>
    <path d="M70,201.84a3.55,3.55,0,0,0-3.17,2.78"/>
    <path d="M102,247c0,2.59-.53,5-2.54,6.74"/>
    <path d="M102.79,252.76a6.78,6.78,0,0,0-2.5,2.89"/>
    <path d="M80,253.82a8.85,8.85,0,0,1,2.54,4.28"/>
    <path d="M73.93,252.66c.41-1.39,0-3.35.73-4.76"/>
    <path d="M33.73,236.05a6.35,6.35,0,0,0-2.61,3.75"/>
    <path d="M29.44,242.69c-2.6-3.52-1.18-6.82.89-9.07"/>
    <path d="M43.88,253.51,38.25,249c-1,3.88,8.16,8.88,6.34,10.54-1.46,1.33-3.57-2.93-5.31-6.34"/>
    <path d="M38.16,258a8.55,8.55,0,0,1-.54-4.92"/>
  </g>
  <g class="eye">
    <path class="sclera" d="M32.39,57.35l38.35.11L34,46.39A13.55,13.55,0,0,0,32.39,57.35Z"/>
    <g class="irisDarkBrown">
      <ellipse cx="49.39" cy="54.69" rx="3.14" ry="2.13" transform="translate(-12.6 94.52) rotate(-80.64)"/>
      <ellipse cx="33.66" cy="52.09" rx="3.14" ry="1.75" transform="translate(-23.21 76.84) rotate(-80.64)"/>
    </g>
    <g class="pupil">
      <ellipse cx="48.84" cy="54.6" rx="1.22" ry="0.83" transform="translate(-12.97 93.91) rotate(-80.64)"/>
      <ellipse cx="33.05" cy="51.99" rx="1.22" ry="0.68" transform="translate(-23.63 76.15) rotate(-80.64)"/>
    </g>
  </g>
  <g class="skinEastAsian">
    <path d="M88.43,68.57C75.76,78.14,77.57,82.8,77.63,91.72c-.39,12.79-25.37,12-29.5-.39.42-5,.36-10-4.63-15.58"/>
    <path d="M23.27,186.18c-7.74-10.38-14.65-17.9-19.93-30.32,4,.74,12.88-.38,19.19-3.59,4.21,11.61,2.74,13.87,11,29.15,2.45,2.8,4.38,2,8,5.42,3.25,3.07,4.43,6.5,11.14,7.75.84,1.21-.21,5.71-7.55,2.38-4.08-.62-7.2-1.1-8.78.57-5,5.35-6.73,4.2-8.53,13.23a7.89,7.89,0,0,1-1.55,4.62c-.42,3.19-5.45,3.93-5.09,1.41.28-3.51-.46-4-.64-9.64C18,196.77,25.5,190.91,23.27,186.18Z"/>
    <path d="M100.11,213.29c1.46-1.95,2.53-5.64,1.53-8.25.23-6.16-4-13.2-3.55-14.57,5.25-14.44,11.75-24.41,14.9-37.92-4.35.91-16.51-1.27-19.31-3.1-1.81,13.28-.89,26.77-4.94,34.6-1.94,3.53-4.53,2.15-8.24,7.49-3.57,5.14-6.82,6.23-8.15,6.23-2.53.67,1,5.93,6.15,2.82,2.63-1.82,3.92-3,6.67-2.38,4.38,1,5.81,2.5,9.57,4.45C97.49,205.93,98,209.49,100.11,213.29Z"/>
    <path d="M68.57,81.91A31.83,31.83,0,0,1,52.7,89.1c-7.46,1.09-9,2-14.69.21-4.71-1.48-4.53-6.12-7.29-11-3-5.34-3.51-16.84-.36-22.34.86-2.24-1.07-3.62,1.69-4.27,0,.27-.06.53-.09.78,1,1.26,3.09,1.52,5,1,.24-.07,1,.25.64-.4-1.05-2.26-2.65-4.1-4.94-3.85a12.45,12.45,0,0,0-.59,2.37c-2.34-2.3,0-4.24-.33-5.87-.12-7.83,3.6-8.08,3.72-19.75,36.17-23.55,82.85,27,46.08,45.83-.9,1-3.61,4.33-6.84.39M46.66,55c4.45,3.24,8.09,1.58,10.93.9C56,54.55,53.79,52.46,51.2,52c-2.32-.44-3.63,0-5.08,2.08C45.62,54.79,46.35,54.75,46.66,55Z"/>
  </g>
  <g class="skinOverlapLine">
    <path d="M98.16,198.06a27.12,27.12,0,0,1,3.48,7"/>
    <path d="M23,198.35c-1,2.45-2.4,4.84-2.34,8.81"/>
    <path d="M26.17,198.86c-4.13,5.25-3.11,11.47-4.23,16.87-.48,1.23,2.72,2.32,4.41-.34"/>
  </g>
  <g class="skinFoldLine">
    <path d="M79.51,59.82c5-8.13,12.86,1.18,4.52,7.88"/>
    <path d="M79.36,62.63c2.46,1.68-3,3.93-1.4,5.32,1,.84,1.61-1.77,4.55-2.5,4.12-1,2.69-5.79-.12-5"/>
  </g>
  <path class="lipMaleMedium__noStroke" d="M35.84,72.74c1-.84.6,1.68,5.29.34,2.08,1.14,2.54,3.77,5.53,6.32-1.82-.18-4.53,2.08-8,.79C32.63,77.91,35,76,37.27,76,35.91,75,34.5,73.32,35.84,72.74Z"/>
  <path class="teeth" d="M42.86,77.08c-1.38-1-1.84-1.87-2.57-2-.52-.13-1.27.71-2.57.16a1.53,1.53,0,0,0-.33.74A30.94,30.94,0,0,1,42.86,77.08Z"/>
  <g class="lipOverlapLine">
    <path d="M46.8,79.59a10.84,10.84,0,0,0-3.94-2.51"/>
    <path d="M37.39,75.93a7.76,7.76,0,0,0-2.34.32"/>
    <path d="M37.72,75.19a5.84,5.84,0,0,1-1.62-1.31"/>
  </g>
  <g class="lipEdgeLine">
    <path d="M41.13,73.08c-4.69,1.34-4.28-1.18-5.29-.34"/>
    <path d="M42.67,80.22c-1.24.41-5,.41-6.88-1.56"/>
  </g>
  <g class="noseLine">
    <path d="M44.16,69.19a2.35,2.35,0,0,0,.43-3.57"/>
    <path d="M38,57.63c-1.69,4.84-6.14,7.47-3.41,9.62,2.53,3.49,6.14,1,7.44,1.81"/>
  </g>
  <g class="eyeFoldLine">
    <path d="M31.63,54.89a3.83,3.83,0,0,0,3.47.73"/>
    <path d="M47.71,57.54c1.86,1.83,5.71,1.84,7.21,1"/>
  </g>
  <g class="eyeCornerLine">
    <path d="M60.09,56.76a6.57,6.57,0,0,1-2.5-.88"/>
    <path d="M32.66,49.16a2.06,2.06,0,0,0-.94.28"/>
  </g>
  <path class="eyeCreaseLine" d="M37.29,50.05c-.93-.82-4.3-4-6.24-1.33"/>
  <g class="eyebrowBlack">
    <path d="M60.8,50.68c-4.15-7.1-8.93-3.84-14.89-7C47.39,48.58,56.13,45.59,60.8,50.68Z"/>
    <path d="M38.07,42.68c-2.07,2.25-2.92.92-6.31,1.78,0-.55.07-1.06.13-1.55C34,42.19,35.2,42.91,38.07,42.68Z"/>
  </g>
  <path class="hairBlack" d="M84.45,73.76c12.48-6.4,26.62-33.59,7.1-56C83.77,8.81,69.11,6.34,61.66,7.2c0-2.34,3-5.81,5.79-6.94A8.62,8.62,0,0,0,58.88,7c-.26-3.71-3.52-6.27-6.94-4.84,3.22,0,4.46,2.65,4.54,5.36C36,9.82,39.15,20.25,28.24,23.8a7.52,7.52,0,0,0,5.91.4c-8.65,7-2.27,11.05-5.06,16.83C37,39.18,38.59,35.2,40,26.57c-1.05,9,2.08,14.13,6.32,15.72A13,13,0,0,1,44.16,38c4.6,6.57,11.13,2.88,16.79,9.13-.32-1.33-1.38-3.76-1.89-5.42,5,4.8,5.2,4.84,10.93,6.52,3,4.89,2.32,5,2.15,8.9a37.31,37.31,0,0,0,7,.29c4.54-7.5,13.29-1.39,9.75,7.09-1.39,3.59-5.85,5.06-7.31,7.23A6.29,6.29,0,0,0,84.45,73.76Z"/>
  <path class="hairOverlapLine" d="M74.44,46.72A11.67,11.67,0,0,1,78,50.18c-1.85-1.14-6.49-1.65-8-1.94"/>
</svg>
