<svg viewBox="0 0 283.84 108.01">
  <path class="skinEastAsian" d="M58.08,11.05C64.72,14,66,15.75,68,18.18c2.78,3.48,21.47,9.74,20.8,27.79-.21,5.54.65,6.33-.92,10-6.72,15.5-35.68,19.59-50.7,11.69Z"/>
  <path class="skinOverlapLine" d="M65.27,30.71a15.52,15.52,0,0,0,5.65,2c2.54.28,4.86.07,4.08-2.15"/>
  <g class="skinFoldLine">
    <path d="M61,21.31c-1.94.23,4.25,8,9.76,8.1"/>
    <path d="M62.51,23.84c1.6-.57,2,1.44,3.64,2.55.59.39,1.85.85,1.72,2.33"/>
  </g>
  <path class="hairBlack" d="M52.6,4.64a36.56,36.56,0,0,1,4-3.77C49.86,2.9,33-6,16.12,10.36c-.34-2.29-.13-5.52,2.26-6.87-3.75.57-6,4.73-5.12,9.15-4.33-.62-9.33,1-12,4.57,3-2.29,7.16-2.17,10.24-1.4C.15,30-.23,49.28,19.06,63.75c23.05,16.5,29.74-5.33,37.75-4.59-2.64-8.73,10.4-17.95,8.46-28.45-11.45-5.54-10.21-14.79-2.84-9.79a9.6,9.6,0,0,0,2.75-1.09c-4-3.59-3.89-2.34-4.64-6.85C60.82,7.86,56.44,4.22,52.6,4.64Z"/>
  <path class="hairOverlapLine" d="M57.77,12.74c-.15,1.19-.42,3.81.11,5.24.54-1.72,2.33-3.39,2.66-5"/>
  <g class="blanket">
    <path class="bennettBlanket" d="M156.08,34.8c19.24-4.72,27.47,9.63,37.53,13.44,6,2.28,18.87-2,22.18,7C231,53,236,65.37,242,72.12c13.43-.79,17.43,12.58,21,16.38,2.74,2.89,8.23,3,7.33,9.82,2.82,4.35,7.15,6.57,12.31,7.64a30.25,30.25,0,0,1-15.74-.47c-9.63-1.25-17.94,1.58-27.59,1.4-22.94-.41-51.2,1.9-62.18-1.24-17.33-1.13-36.73,2.73-50.33,1.59-12.86-1.08-25.56,2.69-32.59-1.57-9.44,3-14.3-3.88-39.58-.3-11.57,2.22-20.83-5.12-17.67-9.88-.49-11.39,5.06-12,10.15-13.25,4.24-3.21,8.49-9.35,14.76-16.87-1.61-8.29.41-14.49,6.12-18.51C82.71,36.56,93.91,22,113.37,28.51,128.74,33.69,145.36,25.22,156.08,34.8Z"/>
    <g class="bennettBlanketInner">
      <path d="M177.19,105.65c-24.75-9.63-25.59-1-39.11,1.69C150.76,108.29,163.87,105.65,177.19,105.65Z"/>
      <path d="M267,105.49c-8.7-3.61-11.39,0-21.07,1.13C252.28,107.16,259.35,105.86,267,105.49Z"/>
    </g>
    <g class="blanketFoldLine">
      <path d="M61.93,65.37c5.42-6.09,11.13-16.71,18.3-25.17"/>
      <path d="M89.56,35.18c-11.63,8-25,63.58-43.05,60.13"/>
      <path d="M37,95.49c3.91-6.24,17.49-8.07,12.73-10"/>
      <path d="M125.71,35.47c8.46-2,7.16,1.43-5.74,8.6-9.25,5.15-10,18.8-13.34,24"/>
      <path d="M61.44,98.33c7-3.88,12.15-10.41,18.36-12.77,5.76-2.19,10.19,2,14.49,6"/>
      <path d="M47.17,82.24c3.06-.7,5.41-3.17,7.23-.76,1.69,2.24,3.47,3.43,4.89,6.34"/>
      <path d="M87.72,86.33C93.52,77,93.41,67,103.09,62.72"/>
      <path d="M94.27,105.67c-6-4.45-11.13-18.23-18-12.51"/>
      <path d="M104.72,66.8c-6,2.57,1.63,7.23,11.55,4.08"/>
      <path d="M156.08,34.8c-19.28,4.35-24.77,16.66-35.38,22-5.36,2.68-4.78-2.57-.58-7.35"/>
      <path d="M110.2,85.3c7.87,3.34,17.47,3.9,27.88,3.15"/>
      <path d="M139.6,69.48c1.4-6.06,5.16-7.52,6-3.26,2.68,14.58-4.67,26.89-18,32.26"/>
      <path d="M154.41,61.43C153,69.48,176.92,85.18,184.62,99"/>
      <path d="M215.79,55.28a18.17,18.17,0,0,1-5.39.67"/>
      <path d="M209.59,54.2c-5.25-1.28-4.53,7.5-2.22,16.8"/>
      <path d="M242,72.12c1.11,1.27,2.09,2.32,2.91,3.08"/>
      <path d="M248.31,75c1.29,3.15-8.63,3.85-15.75.35"/>
      <path d="M183.23,96.69c4.19-3.58,9.07-2,13.87-2.88,6.86-1.22,9.22-3.38,16.68,1.5"/>
      <path d="M187.54,97.31c8.39.07,2.8,5.25-9.1,5"/>
      <path d="M207.6,92.47c6-1.34,10.36-3.72,15.52-2.15,23.79,7.23,36.87,7.46,31,4.16"/>
      <path d="M270.39,98.32c-.38,1.68-1.72,2.23-1.66,3.54"/>
    </g>
  </g>
</svg>
