<svg viewBox="0 0 443.52 356.96">
  <g class="buoyRear">
    <path class="flatRedDarker" d="m264.46,28.39v-.03c-90.75-.04-164.35,73.29-164.39,164.04-.04,90.75,73.5,163.93,164.25,163.98l.14-327.99Z"/>
    <path class="flatYellowDark" d="m270.88,28.27c-90.75-.04-164.35,73.29-164.39,164.04-.04,90.75,73.49,164.15,164.24,164.2l.15-328.24Z"/>
    <circle class="flatYellowMediumDark" cx="278.96" cy="192.4" r="164.32"/>
  </g>
  <g class="whiteMedium">
    <path d="m267.1,22.44c3.58-8.53-9.85-15.32-14.99-9.77-9.07-18.83-40.24-15.42-41.78,4.68-2.19-5.52-11.24-5.84-12.76,1.31-4.53-3.9-10.54,1.39-7.05,6.67-3.51-.37-4.06,2.38-4.06,2.38-9.34-11.15-31.76-2.63-27.19,16.08-3.75-1.89-7.85.27-7.87,6.05-3.92-4.98-12.05-2.79-12.11,3.93-12.19-8.16-29.05,3.65-22.64,18.82-3.87-.75-6.23,2.37-4.28,5.56-6.15-2.41-10.98,2.4-9.73,8.5-15.78-13.01-39.2,6.88-27.39,24.73-3.81-2.13-7.47,1.49-5.65,5-4.46-2.99-10.3,4.04-6.75,8.39-11.36.54-18.23,28.12,3.9,30.76-15.54,1.77-22.12,30.57-1.9,34.09-6.66-1.16-8.44,7.88-2.36,9.19-9.88.94-11.63,16.78,1.45,17.38-8.25,4.96-5.4,18.77,6.26,18.84-4.71,6.09.66,13.79,8.52,12.65-7.17,7.33.87,19,11.59,15.23.19,4.37,5.58,5.32,8.03,1.65-2.07,5.12,3.17,8.76,8.05,7.08-4.24,1.49-4.25,6.95.37,7.6-7.01,2.54-3.75,13.26,3.78,10.86-3.04,3,2.42,6.85,4.69,4.01-.71,8.31,13.35,9.38,14.36.83,1.84,3.31,6.61.21,4.27-2.77,6.98-2.13,1.48-14.78-5.49-10.94,3.38-3.54-.77-7.34-4.14-6.09,10.11-4.74,2.48-20.13-7.89-16.24,2.91-2.38,1.29-6.56-2.4-6.3,11.88-.84,12.44-19.62-2.03-18.88,5.13-4.22-.11-12.09-6.02-8.49,2.78-2.59-.68-6.6-3.4-4.55-3.43-19.74-3.1-39.66.59-58.82,3.26,1.57,8.62-2.6,4.75-7.57,7.11,4.42,15.24-6.96,7.08-11.79,9.6-1.13,9.97-13,5.39-15.87,6.72,3.69,17.63-6.43,10.97-15.85,7.77,2.47,14.37-11.34,6.43-15.98,4.96-1.68,2.84-6.64-.27-6.46,3.54-4.34,7.3-8.52,11.29-12.49-.07,3.55,8,4.59,7.95-.64,6.02,5.02,15.62-2.96,10.6-9.14,7.43,7.69,19.68.1,15.74-8.52,6.37,4.78,13.67-4.11,8.35-8.66,3.44,1.13,6.33-2.93,4.14-5.43,22.08-10.07,47.4-15.66,75.36-15.17,3.8-2.2.32-7.95-3.78-5.84Z"/>
    <circle cx="173.48" cy="75.76" r="3.78"/>
    <circle cx="166.48" cy="78.84" r="1.83"/>
    <circle cx="173.59" cy="83.96" r="1.48"/>
    <circle cx="129.3" cy="239.24" r="4.08"/>
    <circle cx="127.97" cy="252.56" r="5.36"/>
    <circle cx="118.24" cy="230.1" r="2.64"/>
    <circle cx="137.09" cy="244.49" r="1.79"/>
    <circle cx="133.27" cy="303.34" r="4.08"/>
    <circle cx="138.64" cy="296.92" r="2.64"/>
    <circle cx="142.09" cy="307.93" r="1.79"/>
    <circle cx="126.32" cy="226.26" r="1.92"/>
    <circle cx="53.13" cy="191.38" r="3.78"/>
    <circle cx="174.08" cy="17.92" r="2.19"/>
    <circle cx="207.67" cy="8.94" r="2.19"/>
    <circle cx="142.65" cy="27.25" r="2.19"/>
    <circle cx="44.18" cy="189.08" r="1.48"/>
    <circle cx="183.44" cy="16.86" r="4.87"/>
    <circle cx="47.95" cy="183.93" r="2.64"/>
    <circle cx="194.66" cy="12.04" r="3.01"/>
    <circle cx="278.93" cy="8.84" r="2.19"/>
    <circle cx="278.9" cy="21.17" r="4.87"/>
    <circle cx="271.96" cy="13.95" r="3.01"/>
    <circle cx="137.89" cy="33.41" r="2.81"/>
    <circle cx="147.43" cy="39" r="6.25"/>
    <circle cx="135.78" cy="45.81" r="3.86"/>
    <circle cx="96.65" cy="75.88" r="5.15"/>
    <circle cx="107.07" cy="72.47" r="3.18"/>
    <circle cx="197.9" cy="4.6" r="1.92"/>
    <circle cx="128.43" cy="41.67" r="1.92"/>
    <circle cx="139.47" cy="21.16" r="1.69"/>
    <circle cx="182.42" cy="7.3" r="1.69"/>
  </g>
  <g class="bennettShoe">
    <path d="m295.77,239.83c-8.57-.55-9.66,3.49-16.37,2.5l-2.81,15.27c25.13,13.91,18.81,18.17,25.6,24.84l-6.43-42.61Z"/>
    <path d="m254.21,317.24c-3.48-6.06-8.72-11.45-14.69-15.29l-11.38,8.79c6.41,5.06,10.04,24.95,18.91,34.83l7.16-28.33Z"/>
  </g>
  <g class="soleWhite">
    <path d="m299.21,239.87c-1.93-.25-3.94-.14-6.02.49-4.1,1.25-6.28,11.22.59,18.31,6.47,6.67,5.22,19.87,8.41,23.76,2.02,1.94,5.17,3.57,7.59,4.39l-10.57-46.96Z"/>
    <path d="m255.99,320.04c-.97-2.09-2.19-3.57-3.97-4.5-5.11-2.69-16.18,4.13-11.87,13.07,3.76,7.82,3.79,16.01,10.29,20.14l5.54-28.71Z"/>
  </g>
  <g class="soleWhiteDark">
    <path d="m296.77,258.34c-10.61-11.84-2.35-21.79,6.27-17.42,5.4,2.73,9.64,17.29,15.44,25.93,8.42,12.54-5.49,27.37-12.46,16.71-5.47-8.37-3.67-18.99-9.25-25.21Z"/>
    <path d="m257.97,323.91c1.84,7.08,11.2,12,7.24,19.76-3.67,7.18-14.63,10.88-18.94-1.08-2.86-7.95-6.01-13.53-4.42-18.93,2.45-8.36,13.8-8.67,16.12.26Z"/>
  </g>
  <path class="converseLogo" d="m284.59,258.03c-.58-3.74,7.19.13,8.14,3.69,1.13,4.24-7.41.95-8.14-3.69Z"/>
  <path class="bennettJeans" d="m148.25,231.06c11.15,14.47,32.03,32.96,44.44,44.92,1.5,1.17.09,4.69,4.9,4.74-.15,2.26.89,3.26,3.08,3.05-.44,3.18,2.63,3.34,3.91,5.22,3.16,4.65,7.3,10.44,12.77,14.76,1.07,4.89,2.14,9.32,6.19,9.05,2.42.61,2.56,4.24,7.74,1.82-.16-5.87,6.42-9.74,11.56-10.31-.37-2.02,2.45-4.43-1.79-6.5.14-3.87-2.36-6.06-5.54-6.3-3.44-3.8-7.6-14.47-13.84-20.59-1.31-2.02.85-4.97-3.28-5.53.78-3.52-2.66-4.42-3.46-5.91-4.27-7.87-11.8-19.16-18.5-27.33,8.43,8.65,18.72,15.51,25.56,19.84,2.68,1.69,3.68,5.93,6.62,4.67,7.12,4.89,17.41,5.77,28.86,4.88,10.38-.81,12.03,4.96,16.92,1.31,2.67.06,4.22-1.34,5.12-3.58-1.15-6.35.14-11.94,3.54-16.89,1.4-3.58-2.84-5.96-6.22-4.38-2.36-2.61-6.07-1.33-9.57-.94-6.96-.89-16.02-3.82-19.26-3.39-1.51-.2-2.43-4.93-6.39-1.33-.4-1.92-3.42-3.26-4.71-2.23-5.73-7-15.44-19.58-21.79-24.45.61-1.16-.18-3-2.44-3.04.11-1.97-3.39-2.73-5.49-4.6-5.51-5.8-10.93-11.06-15.77-13.04l-43.16,46.08Z"/>
  <g class="buoyFront">
    <path class="flatYellowDark" d="m307.99,231.27c-22.93-.01-41.5-18.6-41.49-41.53.01-22.93,18.6-41.5,41.53-41.49h8.15s-.04,83.02-.04,83.02h-8.15Z"/>
    <circle class="flatYellowMedium" cx="316.16" cy="189.77" r="41.51"/>
    <g class="flatRedDark">
      <path d="m147.48,263.41l129.29-49.57c4.86-1.8-2.3-15.62-7.16-13.82l-126.01,52.91c-5.8,2.15-1.92,12.64,3.88,10.49Z"/>
      <path d="m208.08,65.36l79.75,88.54c1.81,1.82,16.18-4.33,15.04-5.38l-86.23-90.36c-5.22-6.22-13.79.98-8.56,7.2Z"/>
      <path d="m346.38,324.32l-10.4-98.08c-4.41,2.4-9.32,4.02-14.52,4.68l13.89,95.28c1.28,7.52,12.31,5.64,11.03-1.88Z"/>
      <path d="m408.06,122.65l-61.71,38.64c3.37,3.57,6.12,7.73,8.06,12.32l60.23-41.91c5.87-4.26-.71-13.31-6.58-9.05Z"/>
      <path d="m309.3,170.28l-21.64,1.87c-7.29,1.25-6.49,11.41.7,11.65l21.28-.61-.34-12.91Z"/>
    </g>
    <path class="flatYellowDark" d="m332.46,235.57c-25.37-.01-45.93-20.59-45.91-45.96.01-25.37,20.59-45.93,45.96-45.91h9.02s-.04,91.88-.04,91.88h-9.02Z"/>
    <circle class="flatYellowMedium" cx="341.5" cy="189.64" r="45.94"/>
  </g>
  <g class="skinEastAsian">
    <path d="m25.09,171.2c10.53,6.68,17.6,13.41,27.98,14.05-7.79-6.48-1.96-18.64,1.35-20.42-7.74-2.14-15.24.5-25.21-4.98.38-6.33-1.61-7.33-3.14-10.19s-2-4.79-3.21-8.1c-1.24-2.76-6.02,1.82-2.91,7.15.4.68.36,1.37.83,2.05-2.32.42-9.04-1.86-14.09-5.75-4-4.58-7.76-1.83-5.99.54,1.75,1.97,1.96,3.25,4.48,5.07-1.09.6-1.73,3.44-.73,4.75-1.19,1.37-.87,4.21.84,5.6-.99,3.2,3.18,5.93,5.76,7.44,6.68,3.88,11.01,1.09,14.03,2.78Z"/>
    <path d="m37.91,108.45c6.42,10.31,10,15.54,13.02,18.2,3.48,3.06,11.59,18.53,28.31,19.69,30.02-2.32,9.04-83.83-41.33-37.89Z"/>
    <path d="m82.34,140.74c3.66,2.55,6.29,4.22,7.93,7.98,3.19,1.34,21.86-12.36,20.99-16.68-14.97-19.38-8.68-18.56-8.57-30.22"/>
    <path d="m146.18,127.46c-1.42-4.6-2.07-8.97-7.79-11.93-2.89-1.49-7.19-5.52-9.89-1.96-1.17-.62-3.94,1.23-3.8,2.91-1.29.22-2.99,2.45-2.26,3.76-2.35,2.22-.87,5.1,3.16,6.6-4.31-.91-6.84.78-5.74,2.42l26.33-1.81Z"/>
  </g>
  <g class="skinOverlapLine">
    <path d="m128.53,122.86c-1.96-1.02-4.1-2.33-6.09-2.62"/>
    <path d="m124.69,116.48c1.52.16,4.23,1.48,6.65,3.05"/>
    <path d="m128.5,113.58c1.06.22,3.91,1.44,5.63,2.74"/>
    <path d="m5.19,150.62c2.1,1.95,4,2.79,4.96,3.76"/>
    <path d="m4.46,155.38c.93,1.44,3.53,2.71,4.52,3.56"/>
    <path d="m5.3,160.98c1.09,1.07,2.57,1.83,3.12,2.28"/>
    <path d="m67.41,126.55c1.56,2.62,1.96,4.76,2.65,7.06.56,1.87-.02,3.99-2.7,4.02"/>
  </g>
  <g class="skinFoldLine">
    <path d="m29.21,159.85c-.7-.31-1.29-.7-1.74-1.19"/>
    <path d="m61.32,127.38c-.47,1.63,1.38,2.06,2.58,3.63.43.56.34,1.79,1.82,1.57"/>
    <path d="m59,125.59c-.2-2.34,6.06,3.39,7.55,9.38"/>
  </g>
  <path class="skinEdgeLine" d="m13.18,153.42c-.4,2.5-2.65,2.79-1.87,5.35.57,1.87-1.09,2.4-.66,4.21.21.9-.6,2.12.22,3.1"/>
  <path class="hairBlack" d="m68.22,70.13c.21-3.11,2.42-5.44,5.11-6.74-4.2-.04-8.38,3.47-8.71,7.51-2.51-2.73-9.47-3.46-13.67-1.6,3.63,0,7.1,1.39,9.1,3.5-9.68,2.96-17.05,10.07-20.56,19.1-3.68,9.48-2.02,13.35-4.47,22.3.9-.96,1.86-.88,3.01-2.8-.03,4.46,2.91,11.41,11.82,13.05,1.82.91,1.99-.63,6.05,2.79.55-.35,1.08-1.67,1.42-2.74-4.76-6.24,4.23-8.45,10.09,2.05,12.19,5.8,18.63-.45,29.52.83.26-6.63,4.58-10.89,5.94-20.6.94-6.74,1.01-12.62-4.11-21.7-7.74-13.72-22.51-17.43-30.54-14.95Z"/>
  <path class="hairOverlapLine" d="m50.43,122.42c1.37.42,2.89-.29,4.39.28-2.05.52-1.53,1.21-4.98,1.74"/>
  <path class="bennettSleeves" d="m55.36,164.62c-2.97-.64-11.32,14.21-1.59,21.17,16.91,4.47,35.4-4.87,46.65.4l75.69-16.07c7.37-1.6,2.81-11.98.03-16.42-.92-3.2-2.8-3.18-3.53-4.08-.44-1.75-3.27-3.93-5.63-4.73-10.5-9.2-20.63-22.51-30.51-21.64-6.66.59-8.68,2.88-14.91,5.46-3.17,1.31-7.3.81-10.31,3.34,1.02,4.09-17.61,17.97-20.99,16.68-2.28.31-1.92,2.03-2.63,3.57-3.37-.58-1.26,1.74-2.65,3.9-1.92.66-3.83-.08-6.19,4.38-3.36,2.07-6.87,1.14-8.69,4.56-4.62,1.15-8.18-2.04-9.57,1.35-1.06-1.83-3.54-1.13-5.18-1.88Z"/>
  <path class="shirtWhite" d="m192.89,184.97c3.63,16.72-11.63,35.89-29.56,42.78-4.34,1.67-8.69,2.57-15,4.32-.77-.98-1.97-1.76-3.62-2.33-3.61-.06-2.1-3.32-3.05-5.45-3.77.24-5.52-5.52-11.42-10.74-8.25-4.16-12.85-11.77-18.47-17.99-3.45-3.81-8.09-5.96-11.34-9.38-4.69-6.98-1.67-13.98-1.89-22.86.71-.78.82-2.73.75-4.5.92-1.03.97-1.95-.18-3.32.54-1.86.73-4.27.68-6.38,3.78-1.88,11.75-8.62,13.9-13.26,1.79.31,3.48.76,5.61.58.16-1.04,2.58-1.13,3.68.06,2.62-.21,6.25.34,9.78.95.22-.85,2.38-.7,3.6.19,3.54.97,8.44,1.14,12.34,2.88,7.07,5.24,16.94,20.44,19.93,21.49,2.65.93,3.95,4.56,6.02,6.82,2.69,2.95,5.67,3.15,6.12,7.23,2.42.09,3.91,1.46,4.71,3.81,3.01.74,4.58,3.38,7.4,5.07Z"/>
  <g class="clothesDisplayLine">
    <path d="m182.77,214.27c3.73,3.25,6.39,7.02,8.38,11.36"/>
  </g>
  <g class="clothesOverlapLine">
    <path d="m145.64,138.03c1.36.79,2.31,1.64,3.07,2.52"/>
    <path d="m205.12,220.55c-.45,2-1.25,3.91-2.49,5.72"/>
  </g>
  <g class="clothesFoldLine">
    <path d="m60.54,166.5c-3.26,4.52-3.11,10.43-4.71,9.57-1.39-.74-.59-5.06,1.6-8.31"/>
    <path d="m70.11,165.15c-1.9,4.51-2.41,8.76-1.4,12.73"/>
    <path d="m71.52,171.1c-.68,3.53-.61,6.5.2,8.9"/>
    <path d="m78.8,160.58c-.91,1.93-1.1,3.53-.79,4.9"/>
    <path d="m84.99,156.2c-1.63,9.32,3.47,15.55,2.04,16.26-2.2,1.08-4.7-4.66-5.13-10.15"/>
    <path d="m87.64,152.3c2.89,1.5,3.83,1.76,2.71-1.2"/>
    <path d="m94.07,158.97c3.53,2.87,6.51,5.99,8.47,9.59"/>
    <path d="m109.98,171.17c-4.3-6.06-10.21-11.96-13.88-15.42"/>
    <path d="m108.62,163.15c-4.35-4.71-8.76-6.71-12.38-9.81"/>
    <path d="m117.77,134.01c3.31,5.76,8.69,11.69,15.01,17.7"/>
    <path d="m120.76,132.79c4.49,8.76,12.79,15.03,18.18,19.3"/>
    <path d="m129.97,133.12c1.77,3.26,3.66,5.73,5.67,7.4"/>
    <path d="m132.69,133.09c1.6,2.59,5.43,6.51,9.37,10.51"/>
    <path d="m142.26,129.32c2.12,3.49,3.9,6.78,4.1,9.16"/>
    <path d="m147.58,134.72c1.6,2.5,2.72,4.89,2.52,6.95"/>
    <path d="m166.99,144.89c2.06,2.45,3.74,6.91,3.54,11.17"/>
    <path d="m172.62,149.62c.88,1.66,1.12,3.77,1.11,6.06"/>
    <path d="m176.14,153.7c.48,2.15.62,4.03.28,5.52"/>
    <path d="m168.38,164.48c3.31,8.42,3.84,16.71.42,24.79"/>
    <path d="m150.32,183.13c-3.35,3.92-6.81,7.12-10.44,9.16"/>
    <path d="m158.34,175.59c-1.61,5.4-9.31,14.2-13.51,16.37"/>
    <path d="m124.46,205.25c7.25,5.85,15.47,7.52,24.61,5.17"/>
    <path d="m130.24,213.56c2.22.89,4.68,1.29,7.3,1.33"/>
    <path d="m139.94,220.9c2.38.36,4.85.23,7.39-.25"/>
    <path d="m141.66,224.3c2.25-.01,4.86-.57,7.58-1.32"/>
    <path d="m144.71,229.75c2.16-.09,4.16-.43,5.93-1.15"/>
    <path d="m171.69,198.02c-4.68,4.67-9.32,8.8-13.9,12.06"/>
    <path d="m179.25,191.71c-4.96,7.63-10.49,14.15-17.14,18.43"/>
    <path d="m184.36,194.85c-4.08,7.25-8.84,13.64-14.97,18.25"/>
    <path d="m185.68,201.31c-4.89,7.86-10.65,14.11-17.47,18.43"/>
    <path d="m180.78,176.09c.67,2.61.69,6.12.11,7.61"/>
    <path d="m185.49,179.9c.48,1.72.45,3.5,0,4.94"/>
    <path d="m212.67,202.62c.35,1.16-.21,3.54-1.17,5.43"/>
    <path d="m211.52,215.77c-1.35,3.19-3.01,6.18-5.14,8.91"/>
    <path d="m215.11,205.66c-.15.9-.37,1.6-.66,2.11"/>
    <path d="m236.9,230.11c-3.01,1.25-5.16,3.94-6.79,7.49"/>
    <path d="m236.26,235.47c-7.54,6.44-5.72,11.99-5.67,18.79"/>
    <path d="m238.26,243.86c-3.61,2.01-5.52,5.2-4.76,10.24"/>
    <path d="m243.29,235.79c-1.47,1.23-2.09,2.93-1.63,5.23"/>
    <path d="m226.52,247.09c-.33,1.58-.32,3.09-.05,4.56"/>
    <path d="m267.26,237.05c-2.54.84-5.15,1.95-7.12.45"/>
    <path d="m260.15,243.15c2.2.67.95,6.68,3.23,11.74"/>
    <path d="m274.39,262.84c-1.8-1.76-1.7-3.91-.74-6.24"/>
    <path d="m276.84,237.99c-11.39,5.75-4.69,20.94-7.43,20.59s-6.82-14.61,1.29-19.56"/>
    <path d="m282.28,238.66c-2.72-1.15-7.23,4.84-8.53,11.97"/>
    <path d="m239.82,300.25c-8.99.8-11.25,9.15-12.69,8.76-1.89-.51,1.89-8.72,5.96-10.19"/>
    <path d="m223.54,312.8c-1.23-1.36-1.39-2.73-.94-4.11"/>
    <path d="m222.22,292.56c2.37,3.53,1.71,7.66-.54,12.1"/>
    <path d="m235.51,291.51c-2.39-.13-4.98-.86-7.94-2.7"/>
    <path d="m241.05,297.81c-1.49-.78-2.6-.45-3.37-.92"/>
    <path d="m218.39,265.38c-9.35-1.3-19,6.28-20.8,15.34"/>
    <path d="m212.15,270.28c-7.59,2.99-9.76,8.76-11.47,13.5"/>
    <path d="m197.04,271.22c-2.1,2.77-3.99,5.54-2.78,8.2"/>
    <path d="m218.19,275.83c-.94,3.18-3.59,6.24-2.85,8.6"/>
    <path d="m208.16,279.07c2.49-2.89,4.65-3.93,5.81-2.17s-4.32,6.67-.29,8.83"/>
    <path d="m216.66,261.13c-2.16-1.12-6.35-.47-8.14.9"/>
  </g>
</svg>