<svg viewBox="0 0 440.52 345.26">
  <g class="buoyRear">
    <path class="flatRedDarker" d="m209.43,25.61v-.03c-85.95,29.15-132.05,122.26-102.9,208.21,29.15,85.94,122.33,131.58,208.27,102.43L209.43,25.61Z"/>
    <path class="flatYellowDark" d="m215.47,23.43c-85.94,29.15-132.04,122.26-102.89,208.21,29.15,85.94,122.39,131.79,208.33,102.64L215.47,23.43Z"/>
    <circle class="flatYellowMediumDark" cx="275.91" cy="176.23" r="164.32"/>
  </g>
  <g class="whiteMedium">
    <path d="m210.01,19.12c.65-9.23-14.25-11.34-17.34-4.43-14.65-14.91-43.06-1.65-38.05,17.87-3.85-4.52-12.52-1.92-11.66,5.34-5.54-2.23-9.53,4.7-4.53,8.58-3.45.78-3.08,3.56-3.08,3.56-12.43-7.55-30.92,7.72-20.57,23.97-4.15-.58-7.34,2.78-5.51,8.26-5.31-3.46-12.31,1.23-10.2,7.61-14.17-3.8-26.33,12.8-15.39,25.1-3.91.53-5.14,4.25-2.27,6.64-6.6-.3-9.62,5.8-6.48,11.17-19.12-7.24-34.9,19.13-17.98,32.23-4.29-.79-6.59,3.81-3.74,6.55-5.18-1.4-8.45,7.14-3.69,10.12-10.58,4.16-8.21,32.49,13.58,27.87-14.14,6.68-11.11,36.06,9.16,32.89-6.68,1.05-5.45,10.17.72,9.47-9.05,4.07-5.61,19.62,6.96,15.99-6.21,7.35.92,19.51,11.99,15.83-2.5,7.28,5.06,12.85,12.14,9.24-4.43,9.25,6.93,17.71,15.87,10.69,1.59,4.08,6.99,3.24,8.14-1.02-.31,5.51,5.82,7.28,9.9,4.11-3.54,2.78-1.79,7.95,2.8,7.07-5.82,4.66.72,13.76,7.08,9.07-1.91,3.82,4.5,5.71,5.73,2.29,2,8.1,15.66,4.59,13.86-3.83,2.8,2.54,6.33-1.93,3.15-4,5.93-4.26-3.36-14.47-8.72-8.59,2.06-4.44-3.09-6.71-5.88-4.44,8.05-7.74-4.13-19.85-12.69-12.84,1.99-3.19-.79-6.33-4.3-5.19,10.49-3.71,5.59-22.3-8-17.22,3.5-5.65-3.99-11.41-8.43-6.1,1.8-3.34-2.76-6.03-4.68-3.22-9.6-17.58-15.69-36.55-18.36-55.89,3.59.44,7.33-5.24,2.06-8.7,8.16,1.9,12.19-11.5,2.91-13.44,8.73-4.16,5.26-15.51,0-16.76,7.55,1.34,14.63-11.76,5.29-18.54,8.15-.16,9.96-15.36.95-17.2,4.16-3.19.55-7.2-2.33-6.03,1.96-5.25,4.17-10.41,6.67-15.46,1.08,3.38,9.05,1.77,7.32-3.16,7.32,2.81,13.84-7.82,7.09-12.07,9.51,4.89,18.67-6.24,12.17-13.13,7.57,2.48,11.62-8.29,5.12-10.89,3.63-.03,5.05-4.81,2.18-6.47,17.67-16.64,39.85-30.07,66.48-38.61,2.89-3.3-2.26-7.63-5.46-4.31Z"/>
    <circle cx="118.16" cy="126.56" r="3.78"/>
    <circle cx="118.47" cy="118.57" r="1.83"/>
    <circle cx="126.84" cy="117.86" r="1.48"/>
    <circle cx="137.38" cy="261.74" r="4.08"/>
    <circle cx="122.01" cy="250.67" r="5.36"/>
    <circle cx="130.14" cy="256.57" r="2.64"/>
    <circle cx="137.97" cy="253.82" r="1.79"/>
    <circle cx="173.65" cy="328.14" r="4.08"/>
    <circle cx="176.68" cy="320.33" r="2.64"/>
    <circle cx="183.48" cy="329.65" r="1.79"/>
    <circle cx="131.21" cy="246.46" r="1.92"/>
    <circle cx="61.76" cy="247.91" r="3.78"/>
    <circle cx="119.62" cy="45.49" r="2.19"/>
    <circle cx="94.84" cy="63.7" r="2.19"/>
    <circle cx="52.55" cy="248.61" r="1.48"/>
    <circle cx="129.27" cy="41.52" r="4.87"/>
    <circle cx="54.46" cy="242.52" r="2.64"/>
    <circle cx="126.68" cy="31.62" r="3.01"/>
    <circle cx="216.85" cy="2.44" r="2.19"/>
    <circle cx="220.78" cy="14.13" r="4.87"/>
    <circle cx="211.89" cy="9.52" r="3.01"/>
    <circle cx="90.94" cy="71.56" r="2.81"/>
    <circle cx="102.03" cy="73.3" r="6.25"/>
    <circle cx="93.19" cy="83.49" r="3.86"/>
    <circle cx="66.75" cy="124.05" r="5.15"/>
    <circle cx="74.91" cy="117.85" r="3.18"/>
    <circle cx="133.16" cy="28.9" r="1.92"/>
    <circle cx="84.9" cy="81.94" r="1.92"/>
    <circle cx="88.76" cy="58.96" r="1.69"/>
  </g>
  <g class="bennettShoe">
    <path d="m310.87,214.45c-8.29,2.24-8.02,6.41-14.69,7.63l2.25,15.36c28.27,5.09,23.66,11.16,32.23,15.29l-19.79-38.28Z"/>
    <path d="m296.43,301.12c-5.25-4.61-11.94-8.03-18.82-9.75l-7.95,11.99c7.7,2.73,17.53,20.39,29.11,26.89l-2.33-29.13Z"/>
  </g>
  <g class="soleWhite">
    <path d="m314.15,213.38c-1.9.38-3.78,1.13-5.54,2.4-3.48,2.5-2.34,12.65,6.45,17.15,8.27,4.24,11.33,17.13,15.61,19.8,2.53,1.19,6.04,1.71,8.6,1.71l-25.11-41.06Z"/>
    <path d="m299.01,303.19c-1.59-1.67-3.22-2.67-5.2-2.99-5.7-.9-13.99,9.11-7.04,16.2,6.08,6.2,8.74,13.94,16.23,15.76l-3.99-28.97Z"/>
  </g>
  <g class="soleWhiteDark">
    <path d="m317.77,231.65c-13.85-7.8-9.24-19.87.33-18.51,5.99.85,14.69,13.28,22.96,19.58,12.01,9.16,3.6,27.68-6.42,19.83-7.88-6.17-9.58-16.8-16.87-20.9Z"/>
    <path d="m302.13,306.22c4.02,6.11,14.47,7.76,13.21,16.38-1.16,7.98-10.36,15.01-18.28,5.07-5.26-6.6-10.04-10.87-10.28-16.51-.36-8.7,10.28-12.65,15.35-4.94Z"/>
  </g>
  <path class="converseLogo" d="m306.15,235.28c-1.75-3.35,6.84-2.19,8.9.88,2.44,3.65-6.72,3.28-8.9-.88Z"/>
  <path class="bennettJeans" d="m168.38,253.6c15.21,10.11,40.93,20.9,56.53,28.24,1.79.63,1.59,4.42,6.17,2.91.59,2.18,1.89,2.8,3.9,1.9.61,3.15,3.57,2.32,5.38,3.69,4.48,3.39,10.27,7.54,16.84,9.86,2.59,4.28,5.02,8.13,8.77,6.58,2.49-.2,3.79,3.19,7.92-.77-2.04-5.51,2.94-11.29,7.63-13.48-1-1.79.9-4.98-3.79-5.58-1.11-3.71-4.18-4.98-7.27-4.18-4.48-2.49-11.86-11.26-19.73-15.04-1.89-1.49-.8-4.98-4.88-4.18-.4-3.59-3.94-3.33-5.18-4.48-6.58-6.08-17.34-14.35-26.3-19.93,10.76,5.48,22.72,8.67,30.59,10.56,3.08.74,5.39,4.43,7.77,2.29,8.31,2.34,18.34-.14,28.89-4.67,9.56-4.1,12.99.82,16.44-4.2,2.55-.81,3.57-2.63,3.7-5.04-3.13-5.64-3.71-11.35-2.08-17.13.17-3.84-4.61-4.73-7.3-2.14-3.08-1.71-6.18.7-9.37,2.19-6.87,1.39-16.4,1.54-19.33,2.99-1.49.3-3.89-3.89-6.48.8-1-1.69-4.28-1.99-5.18-.6-7.67-4.78-20.91-13.57-28.49-16.14.2-1.3-1.14-2.78-3.29-2.09-.53-1.9-4.08-1.49-6.68-2.59-7.08-3.71-13.9-6.95-19.13-7.27l-26.04,57.51Z"/>
  <g class="buoyFront">
    <path class="flatYellowDark" d="m315.91,203.7c-21.71,7.36-45.28-4.27-52.64-25.98-7.36-21.71,4.27-45.28,25.98-52.64l7.72-2.62,26.67,78.62-7.72,2.62Z"/>
    <circle class="flatYellowMedium" cx="310.29" cy="161.77" r="41.51"/>
    <g class="flatRedDark">
      <path d="m174.26,285.76l106.47-88.53c4.02-3.26-7.21-14.05-11.23-10.79l-102.3,90.63c-4.8,3.9,2.24,12.58,7.05,8.68Z"/>
      <path d="m167.94,78.75l103.99,58.18c2.3,1.14,13.93-9.3,12.51-9.93l-110.71-57.82c-6.95-4.21-12.74,5.36-5.79,9.57Z"/>
      <path d="m382.19,279.46l-41.4-89.52c-3.41,3.7-7.53,6.8-12.24,9.1l43.8,85.75c3.63,6.71,13.47,1.38,9.83-5.33Z"/>
      <path d="m375.72,68.66l-46,56.44c4.34,2.3,8.28,5.35,11.59,9.07l43.55-59.06c4.18-5.92-4.95-12.38-9.14-6.45Z"/>
      <path d="m297.53,145.53l-19.89,8.74c-6.5,3.53-2.47,12.89,4.41,10.81l19.96-7.42-4.48-12.12Z"/>
    </g>
    <path class="flatYellowDark" d="m340.46,199.9c-24.03,8.15-50.11-4.72-58.26-28.75-8.15-24.03,4.72-50.11,28.75-58.26l8.54-2.9,29.51,87-8.54,2.9Z"/>
    <circle class="flatYellowMedium" cx="334.24" cy="153.5" r="45.94"/>
  </g>
  <g class="skinEastAsian">
    <path d="m32.5,236.53c12.12,2.94,20.98,7.04,31.01,4.3-9.46-3.63-7.86-17.02-5.29-19.77-8.02.46-14.27,5.38-25.47,3.4-1.67-6.12-3.89-6.42-6.25-8.64s-3.43-3.89-5.65-6.64c-2.06-2.21-5.11,3.66-.46,7.71.59.52.78,1.18,1.45,1.68-2.06,1.14-9.16,1.14-15.19-.92-5.27-3.05-7.94.76-5.5,2.44,2.29,1.3,2.9,2.44,5.88,3.36-.84.92-.53,3.82.84,4.73-.69,1.68.53,4.27,2.59,5.03.09,3.34,4.92,4.6,7.85,5.19,7.57,1.53,10.78-2.51,14.18-1.88Z"/>
    <path d="m24.46,172.99c9.4,7.7,14.47,11.5,18.18,13.05,4.28,1.78,16.93,13.82,33.14,9.53,27.68-11.85-18.4-82.28-51.32-22.58Z"/>
    <path d="m76.92,189.28c4.29,1.24,7.31,1.97,10.08,5.01,3.46.24,16.72-18.74,14.51-22.54-20.4-13.53-14.19-14.78-17.84-25.85"/>
    <path d="m133.09,156.16c-2.83-3.89-4.84-7.83-11.22-8.79-3.22-.48-8.59-2.91-10,1.33-1.3-.21-3.34,2.43-2.67,3.98-1.15.63-2.04,3.28-.93,4.29-1.51,2.86.82,5.11,5.12,5.23-4.38.52-6.23,2.94-4.66,4.14l24.35-10.18Z"/>
  </g>
  <g class="skinOverlapLine">
    <path d="m114.9,157.49c-2.18-.33-4.63-.89-6.61-.52"/>
    <path d="m109.22,152.69c1.49-.34,4.48.04,7.28.74"/>
    <path d="m111.88,148.71c1.08-.14,4.17.1,6.22.79"/>
    <path d="m7.04,223.46c2.62,1.17,4.69,1.36,5.9,1.96"/>
    <path d="m7.88,228.19c1.35,1.07,4.21,1.43,5.43,1.92"/>
    <path d="m10.47,233.22c1.37.66,3.02.91,3.69,1.15"/>
    <path d="m58.22,180.65c2.32,1.98,3.39,3.88,4.78,5.83,1.13,1.59,1.27,3.79-1.27,4.67"/>
  </g>
  <g class="skinFoldLine">
    <path d="m32.75,224.46c-.76-.07-1.45-.25-2.03-.56"/>
    <path d="m52.71,183.39c.08,1.69,1.97,1.5,3.61,2.61.59.4.9,1.58,2.22.9"/>
    <path d="m49.95,182.44c-.94-2.15,6.83,1.26,10.17,6.45"/>
  </g>
  <path class="skinEdgeLine" d="m15.51,223.53c.43,2.5-1.61,3.5-.05,5.66,1.14,1.59-.26,2.62.73,4.2.49.78.11,2.2,1.21,2.87"/>
  <path class="hairBlack" d="m40.83,126.96c-.8-3.01.55-5.93,2.67-8.02-3.99,1.31-6.82,5.99-5.83,9.92-3.25-1.78-10.08-.23-13.46,2.88,3.44-1.17,7.17-.96,9.74.38-8.21,5.92-12.91,15.02-13.33,24.7-.44,10.16,2.38,13.29,2.94,22.55.54-1.2,1.48-1.43,1.95-3.62,1.41,4.23,6.42,9.86,15.39,8.56,2.01.27,1.68-1.23,6.63.7.4-.51.49-1.93.47-3.05-6.51-4.37,1.29-9.36,10.21-1.31,13.41,1.57,17.49-6.42,28.21-8.71-1.88-6.37.84-11.78-1-21.42-1.27-6.68-3.11-12.27-10.88-19.22-11.74-10.51-26.92-9.26-33.73-4.34Z"/>
  <path class="hairOverlapLine" d="m40.81,182.2c1.43-.04,2.64-1.21,4.25-1.14-1.77,1.15-1.06,1.63-4.15,3.25"/>
  <path class="bennettSleeves" d="m59.05,220.57c-3.01.35-6.15,17.1,5.31,20.56,17.45-1.21,31.96-16,44.3-14.62l66.5-39.56c6.46-3.88-1.19-12.25-5.25-15.56-1.9-2.73-3.68-2.11-4.65-2.73-.98-1.51-4.36-2.67-6.85-2.67-12.9-5.34-26.77-14.68-35.85-10.67-6.11,2.7-7.29,5.51-12.36,9.96-2.58,2.26-6.65,3.12-8.68,6.48,2.28,3.55-10.89,22.68-14.51,22.54-2.05,1.03-1.16,2.54-1.34,4.23-3.38.53-.64,2.06-1.26,4.55-1.6,1.25-3.65,1.16-4.45,6.14-2.52,3.04-6.14,3.29-6.76,7.12-4,2.58-8.4.7-8.63,4.36-1.59-1.39-3.72.07-5.51-.11Z"/>
  <path class="shirtWhite" d="m195.81,195.6c8.82,14.67.53,37.72-14.22,50.02-3.57,2.98-7.4,5.22-12.81,8.92-1.04-.68-2.43-1.03-4.18-1.04-3.44,1.11-3.06-2.46-4.64-4.18-3.5,1.44-7-3.45-14.27-6.5-9.15-1.29-15.96-7.01-23.28-11.09-4.49-2.5-9.57-3.04-13.76-5.23-6.68-5.1-6.08-12.7-9.14-21.04.42-.97-.1-2.85-.74-4.5.54-1.27.29-2.16-1.24-3.08-.09-1.93-.68-4.28-1.41-6.26,2.98-2.99,8.36-11.95,8.9-17.03,1.79-.28,3.54-.4,5.5-1.25-.18-1.04,2.08-1.9,3.51-1.13,2.41-1.04,6.03-1.69,9.57-2.25-.06-.88,2.03-1.43,3.47-.97,3.67-.23,8.36-1.64,12.61-1.24,8.38,2.68,22.62,13.9,25.78,13.94,2.81.03,5.2,3.04,7.89,4.53,3.49,1.93,6.38,1.16,8.12,4.87,2.32-.69,4.17.12,5.69,2.09,3.09-.27,5.43,1.73,8.64,2.42Z"/>
  <g class="clothesDisplayLine">
    <path d="m195.66,226.59c4.58,1.88,8.3,4.59,11.59,8.06"/>
  </g>
  <g class="clothesOverlapLine">
    <path d="m135.98,166.35c1.54.31,2.71.81,3.72,1.4"/>
    <path d="m218.84,225.35c.22,2.04.07,4.11-.51,6.22"/>
  </g>
  <g class="clothesFoldLine">
    <path d="m64.56,220.68c-1.64,5.33.41,10.87-1.38,10.58-1.55-.26-2.19-4.6-1.16-8.38"/>
    <path d="m73.19,216.32c-.35,4.88.54,9.07,2.76,12.5"/>
    <path d="m76.43,221.5c.49,3.57,1.51,6.35,3.06,8.36"/>
    <path d="m79.95,209.21c-.24,2.12.1,3.7.83,4.9"/>
    <path d="m84.39,203.07c1.45,9.35,8.29,13.61,7.16,14.74-1.73,1.73-5.95-2.9-8.12-7.96"/>
    <path d="m85.65,198.52c3.22.49,4.19.44,2.18-2"/>
    <path d="m93.89,202.76c4.26,1.58,8.09,3.58,11.1,6.35"/>
    <path d="m112.87,209.2c-6.02-4.35-13.51-8.04-18.1-10.13"/>
    <path d="m109.01,202.04c-5.63-3.06-10.46-3.54-14.88-5.31"/>
    <path d="m108.3,171.51c4.99,4.39,11.99,8.28,19.91,11.94"/>
    <path d="m110.73,169.4c7.07,6.85,16.94,10.12,23.42,12.43"/>
    <path d="m119.56,166.74c2.72,2.52,5.31,4.24,7.75,5.18"/>
    <path d="m122.13,165.84c2.35,1.94,7.24,4.42,12.25,6.94"/>
    <path d="m129.98,159.19c3.13,2.62,5.88,5.16,6.83,7.36"/>
    <path d="m136.75,162.59c2.32,1.85,4.15,3.75,4.62,5.78"/>
    <path d="m158.4,165.98c2.74,1.66,5.76,5.34,6.95,9.44"/>
    <path d="m165.25,168.64c1.37,1.29,2.27,3.21,3,5.38"/>
    <path d="m169.9,171.38c1.14,1.88,1.89,3.62,2.04,5.13"/>
    <path d="m166.02,184.08c5.84,6.91,9.01,14.58,8.37,23.34"/>
    <path d="m154.92,207.55c-1.91,4.79-4.16,8.93-6.94,12.03"/>
    <path d="m160.09,197.83c.21,5.64-4.25,16.44-7.53,19.85"/>
    <path d="m137.55,236.81c8.75,3.21,17.06,2.14,24.96-3.02"/>
    <path d="m145.69,242.82c2.39.13,4.84-.28,7.34-1.09"/>
    <path d="m157.24,246.65c2.37-.43,4.67-1.34,6.92-2.61"/>
    <path d="m159.96,249.32c2.13-.74,4.41-2.1,6.75-3.69"/>
    <path d="m164.6,253.49c2.02-.78,3.8-1.75,5.24-3"/>
    <path d="m179.94,214.77c-2.93,5.93-6,11.33-9.28,15.89"/>
    <path d="m185.07,206.36c-2.24,8.82-5.38,16.77-10.3,22.96"/>
    <path d="m190.91,207.7c-1.53,8.18-3.98,15.76-8.3,22.09"/>
    <path d="m194.25,213.39c-2.1,9.02-5.55,16.79-10.61,23.07"/>
    <path d="m181.49,191.09c1.48,2.25,2.63,5.57,2.55,7.17"/>
    <path d="m187.18,193.18c1.01,1.47,1.55,3.17,1.58,4.68"/>
    <path d="m220.22,205.95c.7.99.94,3.42.64,5.52"/>
    <path d="m223.36,218.77c-.25,3.45-.86,6.82-2,10.09"/>
    <path d="m223.51,208.04c.15.9.16,1.63.05,2.21"/>
    <path d="m252.01,224.18c-2.45,2.15-3.61,5.39-4.02,9.27"/>
    <path d="m253.12,229.46c-5.07,8.52-1.56,13.19.68,19.62"/>
    <path d="m257.72,236.77c-2.77,3.07-3.56,6.7-1.22,11.23"/>
    <path d="m259.89,227.5c-1,1.64-1.04,3.45.14,5.48"/>
    <path d="m247.65,243.6c.19,1.6.7,3.03,1.42,4.33"/>
    <path d="m282.99,220.99c-2.14,1.61-4.25,3.5-6.6,2.72"/>
    <path d="m278.22,229.05c2.3-.07,3.04,6.02,6.83,10.08"/>
    <path d="m298.04,243.11c-2.27-1.09-2.87-3.15-2.71-5.67"/>
    <path d="m292.36,218.8c-8.93,9.11,2.3,21.34-.41,21.89s-11.16-11.63-5.07-18.94"/>
    <path d="m297.73,217.68c-2.95-.21-5.28,6.91-4.23,14.08"/>
    <path d="m277.34,289.66c-8.25,3.65-7.71,12.28-9.2,12.38-1.96.12-1.01-8.86,2.37-11.57"/>
    <path d="m265.95,306.77c-1.6-.89-2.2-2.14-2.21-3.59"/>
    <path d="m258.2,288.04c3.38,2.58,4.08,6.71,3.38,11.63"/>
    <path d="m270.44,282.76c-2.3.65-4.99.79-8.39,0"/>
    <path d="m277.71,286.95c-1.66-.26-2.61.41-3.48.21"/>
    <path d="m245.83,263.53c-9.28,1.78-15.97,12.06-14.76,21.21"/>
    <path d="m241.49,270.18c-6.22,5.28-6.43,11.43-6.52,16.47"/>
    <path d="m227.49,275.93c-1.1,3.3-1.99,6.53,0,8.66"/>
    <path d="m249,273.49c.14,3.31-1.39,7.06.07,9.06"/>
    <path d="m240.54,279.78c1.43-3.54,3.14-5.21,4.8-3.92,1.62,1.26-1.94,7.71,2.57,8.45"/>
    <path d="m242.82,260.06c-2.41-.37-6.17,1.59-7.41,3.47"/>
  </g>
</svg>