<svg viewBox="0 0 201.71 297.87">
  <path class="paperMedium" d="M61.46,70.31l22.58,59.19c5.12-.56,10.55-2.01,16.29-4.37l-22.57-59.9-16.29,5.08Z"/>
  <polygon class="paperDarkest" points="60.67 69.75 61.46 70.31 84.04 129.49 83.15 128.79 60.67 69.75"/>
  <g class="bennettShoe">
    <path d="M189.3,270.09c-2.31-2.38-3.66-4.58-3-8.36-3.33,2.23-9.05,2.12-14.22,1.82-6.2-.35-12.5-3.8-14.84-6.93-22.01,4.67,23.36,36.81,32.06,13.46Z"/>
    <path d="M139.15,266.94c6.23,9.71,2.67,16.4,6.97,25.41,7.06,10.97,51.24-16.55,32.11-18.3-3.96,.58-9.08-1.98-13.62-4.47-5.44-2.99-9.65-8.81-10.42-12.64l-15.05,10Z"/>
  </g>
  <g class="soleWhite">
    <path d="M201.4,261.65c-5.66-6.61-9.01-3.92-15.1,.08h0c-.66,3.77,.69,5.98,3,8.36-.6,.69-1.72,2.05-2.8,3.33,1.42,.25,2.57,.9,3.47,2.26,5.47-5.72,12.2-11.39,11.44-14.01Z"/>
    <path d="M178.24,274.05c-2.41,2.18-2.63,5.55-.89,8.83-2.47,1.24-5.95,2.43-13.31,5.75-7.45,3.36-15.65,6.91-17.86,3.81,.45,1.67,1.18,3.14,2.31,4.67,1.56,1.87,11.26-1.87,18.21-5.17,8.69-4.12,22.64-7.93,24.84-11.81-1.61-8.54-6.1-7.08-13.31-6.09Z"/>
  </g>
  <g class="shoelace">
    <path d="M166.68,262.52c-.57,1.65-1.31,4.11-1.35,5.19,4.81,.7,9.81,1.15,15.03,.37-.12-.8,.44-3.14,.85-4.63-2.83,.4-6.08,.29-9.14,.11-1.83-.1-3.66-.48-5.4-1.03Z"/>
    <path d="M160.19,266.33c-1.23,1.24-2.95,3.15-3.45,4.1,4.04,2.7,8.36,5.26,13.41,6.79,.24-.77,1.75-2.65,2.76-3.82-2.73-.86-5.62-2.36-8.3-3.83-1.6-.88-3.1-2.01-4.43-3.25Z"/>
  </g>
  <path class="bennettJeans" d="M68.36,190.07c1.71,3.6,6.05,1.52,5.18,4.38,18.21,3.28,43.58,9.15,47.74,14.84,6.55,8.98,16.26,23.52,28.81,37.48,1.45,1.61,5.71,.86,4.97,4.24,2.92,.24,0,4.41,5.04,8.26-2.81-2.17-5.49-.31-3.23,3.24-1.72-2.2-6.33,1.14-4.08,4.57-.93,4.07-7.3,5.23-9.93,9.17-1.62-1.04-3.63-1.2-3.7-3.18-7.85,1.68-4.87-5.18-5.77-5.45-6.47,1.95-8.04-11.65-23.3-26.91-2.6,.03-1.9-3.16-3.43-4.97-1.99,.81-4.06-1.35-3.34-3.16-1.17,1.35-4.61,.81-4.88-1.35-2.17,2.47-5.58,.63-8.31,.9-40.1,4.06-70.26,5.06-70.26-24.56,13.12-11.91,29.35-17.63,48.5-17.51Z"/>
  <path class="shirtWhite" d="M16.08,95.09c-7.86,16.9-6.06,40.12-2,60.03,2.23,10.95-.47,10.38,2.93,14.63,2.74,2.74-3.02,7.55,2.08,11.33,.57,4.34-2.64,4.72,.57,8.49,1.13,8.4-3.4,5.19-.76,11.23,.81,2.34-.66,5.47,.28,8.31,5.66-1.04,15.86-8.95,23.88-12.46,13.78-6.04,22.37-3.96,26.9-5.38,2-2.82-.76-5-1.04-7.08,2.08-3.78-.33-4.06-.38-6.7-.19-10.1-2.64-8.59-2.36-13.12,2.45-4.72-.57-6.04-1.13-8.31-1.99-7.98-3.08-19.96-7.08-30.3,.57-.66,.38-2.45-1.11-3.16-3.1-7.86-8.63-16.43-10.17-24.46l-30.6-3.06Z"/>
  <path class="bennettSleeves" d="M46.68,98.15c-10.11-1.42-19.16-4.03-27.88-8.21-.91,1.33-1.82,3.09-2.72,5.15,5.99,2.72-3.65,21.5,8.86,34.78,1.7,17.16,7.48,35.26,12.56,38.03,4.2,2.28,13.73-1.17,21.9-8.07,0-9.67-7.16-15.13-8.21-18.2-1.18,.82-2.28,1.89-3.22,3.38,.2-1.11,.05-2.02-.48-2.74,2.55-3.57,.11-2.98,0-4.35s1.21-3.22-.32-4.03c-.48-5.64,1.97-11.29,.16-15.46,1.08-1.54,.75-3.53-.48-5.8,.92-.75,.81-2.33-.05-4.51,1.28-1.99,.58-5.99-.11-9.98Z"/>
  <g class="clothesDisplayLine">
    <path d="M189.3,270.09c2.21-2.56,8.7-8.6,9.17-11.19"/>
    <path d="M177.35,282.88c3.1-1.36,11.27-4.56,12.81-6.7"/>
  </g>
  <g class="clothesOverlapLine">
    <path d="M156.86,262.52c-2.53-2.44-1.34-6.75-5.94-5.39,3.91-4.72-1.89-5.87-4.5-9.31-10.95-14.42-20.78-29.14-26.85-37.09-4.5-5.9-30.88-11.33-47.95-13.66,.11-1.61-1.1-2.92-4.19-3.83"/>
    <path d="M168.34,268.1c.19-1.44,.91-3.72,1.41-4.82"/>
    <path d="M171.32,268.37c.12-1.46,.66-3.61,1.22-4.79"/>
    <path d="M174.51,268.49c-.12-1.5,.25-3.58,.8-4.79"/>
    <path d="M177.46,268.39c-.15-1.42,.25-3.49,.71-4.7"/>
    <path d="M160.33,266.4c1.72,.13,2.5,.64,5,1.31"/>
    <path d="M159.29,272.08c.79-1.22,2.42-2.97,3.35-3.74"/>
    <path d="M161.86,273.61c.74-1.26,2.15-2.98,3.17-3.8"/>
    <path d="M164.68,275.08c.54-1.4,1.77-3.12,2.78-3.99"/>
    <path d="M167.39,276.26c.47-1.35,1.72-3.04,2.66-3.94"/>
    <path d="M152.78,267.09c1.68,.51,2.31,2.17,3.95,3.34"/>
  </g>
  <g class="clothesFoldLine">
    <path d="M27.01,115.65c-2.52,3.5-3.09,8.32-2.07,14.22"/>
    <path d="M22.35,124.97c-.78-6.2,1.75-11.94,6.11-15.43"/>
    <path d="M44.78,105.86c.98,.57,1.39,1.31,2.01,2.27"/>
    <path d="M41.47,106.47c1.51,1.75,4.01,3.54,5.37,6.16"/>
    <path d="M43.01,111.4c1.69,3,3.99,4.96,4.31,7.03"/>
    <path d="M31.69,121.34c3.37,5.92,7.3,10.69,11.78,14.33"/>
    <path d="M37.7,124.88c3.45,4.17,6.65,7.36,9.47,9.01"/>
    <path d="M56.85,122.61c-.69,.67-1.51,1.15-2.52,1.35"/>
    <path d="M57.97,125.76c-.69,.58-1.43,.95-2.25,.97"/>
    <path d="M51.02,117.95c-1.17,.96-2.3,1.51-3.37,1.4"/>
    <path d="M51.02,120.65c-.99,.73-1.99,1.12-3.03,1.12"/>
    <path d="M45.24,139.83c-2.29,.81-4.3,2.03-5.7,4.16"/>
    <path d="M47.48,142.27c-2.55,2.79-7.8,5.37-8.94,9.03"/>
    <path d="M43.24,164.17c-3.62-1.46,.77-13.63,4.73-19.16,1.72,3.45,3.2,11.52,.05,15.46"/>
    <path d="M62.19,161.78c-1.66,.94-3.68,1.59-6.24,1.77"/>
    <path d="M66.18,164.37c-1.21,.95-2.78,1.64-4.83,1.96"/>
    <path d="M24.52,175.87c8.47,4.39,15.02,2.85,20.8,2.54"/>
    <path d="M19.08,181.07c6.06,1.43,11.99,.61,12.45,2.2,.44,1.5-3.62,3.08-9.55,2.54"/>
    <path d="M19.65,189.57c3.72,1.49,9.42-.6,14.04-1.22"/>
    <path d="M25.06,193.36c-2.54,1.46-5.68,1.58-6.49,2.91"/>
    <path d="M36.93,192.67c-6.78,2.23-10.24,6.62-17.18,7.55"/>
    <path d="M62.34,182.5c-6.09,1.92-12,3.13-17.72,3.47"/>
    <path d="M68.91,184.19c-3.34,2.01-7.96,3.27-13.35,4.09"/>
    <path d="M46.83,198.06c7.03-3.85,16.74-6.7,19.83-3.37-3.85-.29-10.4,2.5-13.86,6.45"/>
    <path d="M61.46,198.35c-5.38,3.19-10.18,7.22-14.25,12.32"/>
    <path d="M41.15,203.26c11.26-7.12,13.48-6.16,1.93,1.83"/>
    <path d="M103.43,220.78c-2.73,3.53-6.13,6.43-10.88,8.09"/>
    <path d="M98.43,231.24c2.55-2.18,3.9-3.84,4.72-5.26"/>
    <path d="M103.3,232.59c4.08-4.6,7.59-11.05,8.5-10.18,1.12,1.06-2.12,5.58-6.74,9.72"/>
    <path d="M106.64,235.75c3.33-2.17,5.55-4.77,4.01,.04"/>
    <path d="M116.14,227.71c-1.85,2.88-2.9,6.25-2.7,10.4"/>
    <path d="M147.71,251.39c-1.21,2.6-4.95,3.98-10.4,4.52"/>
    <path d="M133.38,267.63c3.69-1.17,6.99-2.01,5.58,1.27"/>
    <path d="M139.15,273.09c3.27-1,5.55-3.63,5.87-5.43"/>
    <path d="M150.92,257.13c-2.1,2.38-8.42,3.81-8.02,5.42,.53,2.16,5.04,.52,7.8-1.93"/>
    <path d="M155.05,251.02c-.21,1.34-1.19,2.68-2.92,4.02"/>
    <path d="M73.54,194.45c-1.12,.43-1.7,1.35-1.91,2.62-2.7,1.28-5.18,3.67-7.37,7.43"/>
  </g>
  <g class="eye">
    <circle class="sclera" cx="62.32" cy="61.33" r="5.14"/>
    <path class="irisDarkBrown" d="M63.88,64.58c.34,.05,1.39-1.21,1.66-2.92s-.34-3.23-.69-3.29c-.69,2.01-1.02,4.08-.97,6.21Z"/>
    <path class="pupil" d="M64.93,62.8c.28,.04,.5-.48,.6-1.14s.05-1.23-.22-1.27c-.23,.79-.36,1.59-.38,2.41Z"/>
  </g>
  <g class="skinEastAsian">
    <path d="M61.9,139.98c-.85-4.2-1.89-8.53-3.35-12.65,3.2-1.31,7.52-3.91,10.68-7.41l-7.32,20.05Z"/>
    <path d="M19.68,90.35c8.28,3.87,16.88,6.33,26.43,7.71-.74-4.53,2.48-21.94,5.64-26.73L6.37,58.54c5.92,10.99,17.57,19.2,13.3,31.81Z"/>
    <path d="M28.67,70.58c-3.77,2.18-5.42-.19-7.71-2.89C-9.9,49.59,47.4,5.01,70.49,35.38c-.35,9.08,2.63,15.92-1.87,25.43-1.64,3.46,2.41,8.22,4.14,13.99,.98,3.27-1.89,4.41-5.88,2.95-.48,.15-1,.34-1.55,.33-.43,1.42-.06,1.84,.74,3.28,.24,.58-1,1.9-1.66,2.33,0,0,2.46,1.02,1.09,3.46-4.65,1.08-.9,8.55-8.03,9.12-2.24,.18-5.52-.93-10.99-3.77-4.96-2.58-10.22-5.5-13.74-10.21m32.76-22.52c-1.93,.83-3.72,1.05-5.53,1.66,1.52,.9,3.16,1.7,4.59,2.56,.8-.86,1.31-3.01,.94-4.21Z"/>
  </g>
  <polygon class="paperDarker" points="90.11 134.58 88.71 133.66 65.44 73.04 66.79 73.55 90.11 134.58"/>
  <path class="paperDark" d="M69.75,67.67c2.62-.8,5.01-1.73,6.95-2.76l1.05,.32-10.97,8.32-1.34-.51c2.16-2.7,4.5-3.97,9.22-6.62-1.48,.68-3.05,1.28-4.65,1.8l-.26-.55Z"/>
  <path class="bookCover" d="M77.76,65.23l22.57,59.9c-4.63,2.15-7.92,4.78-10.21,9.46l-23.33-61.03c1.3-2.91,6.58-5.95,10.97-8.32Z"/>
  <path class="skinEastAsian" d="M89.65,109.66c.67-1.43-.78-3.81-2.67-4.74,.5-1.66-2.07-3.29-3.3-3.7,1.43-3.15-7.4-5.75-9.22-4.65l-.84-2.19c-1.44-1.94-4.12-1.95-4.07-.14,.86,2.96,.6,6.7,.28,10.68-4.82,6.99-.62,15.16-1.95,17.43-4.64,9.74-10.5,14.45-16.52,19.73,1.47,3.05,7.67,8.23,8.02,16.98,5.7-5.12,10.6-17.85,17.77-28.65,1.94-2.1,5.84-.73,9.67-11.13,1.38-.84,3.25-1.13,4.53-4.14,1.56-3.69-.54-5.11-1.7-5.46Z"/>
  <g class="skinOverlapLine">
    <path d="M74.47,96.56c-1.61,1.19-2.8,5.45-4.63,8.34"/>
    <path d="M83.69,101.21c-4.61-1.37-5.04,.69-7.99,4.41"/>
    <path d="M80.41,108.02c2.19-2.11,3.69-4.43,6.57-3.1"/>
    <path d="M89.65,109.66c-3.41-.49-4.01,1.01-5.36,1.18"/>
    <path d="M86.82,119.26c.29-1.02,.61-2.11,.26-2.82"/>
  </g>
  <g class="skinFoldLine">
    <path d="M86.37,114.27c.84,.5,.99,1.23,.72,2.16,1.12,.21,2.45-.13,2.88-1.56"/>
    <path d="M26.94,58.71c-1.83-10.11-14.82-2.74-5.36,6.7"/>
    <path d="M26.89,60.1c-1.36,1.27,1.51,4.36-.15,5.15-1.15,.55-.2-2-3.14-2.75-3.64-.94-1.16-6.08,.76-4.95"/>
  </g>
  <path class="skinEdgeLine" d="M82.26,114.08c-1.53-.64-1.38-2.79-3.5-3.01-2.47-.26-1.75-2.64-4.47-2.72-1.91-.05-1.86-1.25-2.99-1.38"/>
  <path class="lipMaleMedium__noStroke" d="M64.41,83.69c.66-.44,1.9-1.75,1.66-2.33h0c-1.58,.54-4.39,.35-6.97,1.73,2.3,.79,3.77,3.17,6.4,4.06,1.38-2.43-1.09-3.46-1.09-3.46Z"/>
  <path class="lipBorderLine" d="M64.41,83.69c-1.08-.42-2.24-1.49-5.31-.6"/>
  <path class="lipEdgeLine" d="M65.5,87.15c-.96-.3-1.69-.71-2.34-1.32"/>
  <path class="cheekLine" d="M62.15,77.3c-.82,2.96-2.24,1.76-3.45,7.4"/>
  <path class="noseLine" d="M64.03,74.03c-.9,.78-1.37,2.5-.33,3.43,1.13,1,2.39,.59,3.51,.18"/>
  <g class="eyeLidLine">
    <path d="M65.5,59.76c1.77-.45,.81-2.34,.81-2.34"/>
    <path d="M64.56,63.98c.6,.39,.87,1.2-.15,1.74"/>
  </g>
  <path class="eyeCornerLine" d="M59.97,61.42c-.49,.13-1.14,.19-1.73,.16"/>
  <path class="eyeCreaseLine" d="M60.94,59.71c1.7-.72,3.97-.57,5.63-1.36"/>
  <path class="eyebrowBlack" d="M56.53,55.61c4.71-4.45,6-.91,12.36-2.12-3.65,3.95-6.93,.01-12.36,2.12Z"/>
  <path class="hairBlack" d="M65.6,34.47c-.87,8.83,1.76,14.77,9.59,17.04-2.48-6.51,4.12-13.8-3.42-22.41,1.63,1.27,4.58,1.45,6.29,1.28-7.48-5.21-6.29-12.4-23.62-19.76-7.19-3.05-18.24-4.93-28.26-2.66,.58-3.08,3.64-4.89,7.29-7.46-5.13,1.08-9.58,4.21-11.44,8.34-2.82-4.27-7.61-4.91-10.39-1.12,3.45-1.63,5.89-1.34,7.46,2.19C-.14,20.09-8.44,52.08,12.61,69.81c3.15-.25,5.38-.42,8.35-2.12-3.59-4.25-7.03-8.17-3.47-14.1,2.49-4.15,10.53-3.45,10.93,3.24,2.63,.77,5.62,.89,8.85,1.17,.97-5.6-.5-3.69,5.14-8.16,3.78,.08,9.68-.38,14.59-6.6-.44,1.81-1.64,4.61-1.41,6.19,1.52-4.57,8.07-6.82,10-14.98Z"/>
  <path class="hairOverlapLine" d="M42.42,49.85c-1.62,.08-5.7,.2-7.27,1.27,1.11-1.98,3.43-3.58,4.67-4.22"/>
</svg>