<svg viewBox="0 0 205.96 385.14">
  <g class="rickshawRear">
    <ellipse class="spokes" cx="55.32" cy="316.18" rx="7.08" ry="32.81"/>
    <path class="rubberDarker" d="M54.28,269.4c10.86,0,19.67,14.4,19.67,46.78s-8.81,46.78-19.67,46.78-19.67-10.32-19.67-46.78,8.81-46.78,19.67-46.78Zm-6.04,46.78c0,18.12,3.17,32.81,7.08,32.81s7.08-14.69,7.08-32.81-3.17-32.81-7.08-32.81-7.08,14.69-7.08,32.81Z"/>
    <path class="chromeDark" d="M58.41,278.07c6.92,0,12.52,14.41,12.52,38.11s-5.61,38.11-12.52,38.11-12.52-7.85-12.52-38.11,5.61-38.11,12.52-38.11Zm-10.17,38.11c0,18.12,3.17,32.81,7.08,32.81s7.08-14.69,7.08-32.81-3.17-32.81-7.08-32.81-7.08,14.69-7.08,32.81Z"/>
    <path class="rickshawDark" d="M184.57,298.04c-3.15,0-5.11,3.71-5.11,8.5v12.87c0,4.08-3.05,7.38-6.81,7.38H62.17v-32.84h121.76c.26,1.32,.44,2.7,.64,4.09Z"/>
    <path class="seatDark" d="M199.62,218.09H76.33c-4.15,.69,4.36,41.55-12,44.21l-.23,31.65h95.33c9.8-36.99,52.92-13.93,40.19-75.86Z"/>
    <path class="seatLight" d="M161.89,271.63H74.97c-6.68,0-12.21,4.51-10.87,10.95h92.85c.92-4.3,2.56-7.96,4.94-10.95Z"/>
    <path class="rickshawMedium" d="M187.01,273.74c-9.98,0-15.43,11.39-16.63,21.18h27.26c-.56-10.35-3.87-18.54-10.63-21.18Z"/>
    <path class="steelMedium" d="M91.42,307.58l10.27-63.77c-2.11,.08-4.16,.14-6.11,.25l-9.35,58.08c2.03,.11,3.86,2.17,5.2,5.44Z"/>
    <path class="bikeSeat" d="M76.88,241.01c-.88-4.04,.98-6.6,6.04-8.96,2.46-1.14,3.79-1.92,5.53-4.25,3.42-4.56,24.85-5.28,34.64-2.77,8.77,2.25,9.78,13.69-.49,16.38-10.69,2.8-21.91,2.06-30.59,2.9-3.73,.36-5.5,.57-7.47,.93-4.07,.73-7.02-1.26-7.66-4.24Z"/>
    <path class="frameLight" d="M31.18,300.42l-3.33,22.97-1.56,7.91c.15,.74,.18,1.84-.04,3.4-.51,3.61-1.75,4.39-2.28,4.31-.54-.08-1.54-1.05-.94-4.82,.23-1.49,.57-2.48,.93-3.13l.53-8.08s.87-7.18,1.95-15.84c1.51-2.91,3.11-5.07,4.76-6.72Z"/>
    <g class="steelDark">
      <ellipse cx="175.19" cy="316.18" rx="2.55" ry="6.23"/>
      <path d="M87.46,304.99h60.64c1.84,0,3.34,1.5,3.34,3.34v4.77c0,1.84-1.5,3.34-3.34,3.34h-60.64v-11.45h0Z"/>
    </g>
    <g class="brassDark">
      <path d="M180.26,316.18c0-.62,.06-1.21,.18-1.72h-5.32c-.77,0-.77,3.44,0,3.44h5.32c-.11-.51-.18-1.1-.18-1.72Z"/>
      <ellipse cx="86.05" cy="320.65" rx="7.58" ry="18.52"/>
      <path d="M37,336.69c.11-.69,.24-1.28,.38-1.78l-12.45-2.21c-.59-.09-1.18,3.66-.6,3.76l12.47,2.21c0-.56,.06-1.21,.19-1.98Z"/>
    </g>
    <ellipse class="brassDarker" cx="86.37" cy="320.65" rx="6.63" ry="16.2"/>
    <path class="rubberDarker" d="M177.63,269.4c10.86,0,19.67,14.4,19.67,46.78s-8.81,46.78-19.67,46.78-19.67-10.32-19.67-46.78,8.81-46.78,19.67-46.78Zm-6.04,46.78c0,18.12,3.17,32.81,7.08,32.81s7.08-14.69,7.08-32.81-3.17-32.81-7.08-32.81-7.08,14.69-7.08,32.81Z"/>
    <path class="rickshawLight" d="M63.5,260.46c5.64-.4,8.22-3.35,8.22-7.81v-37.16h123.11c6.01,0,10.88,4.87,10.88,10.88v55.85c0,5.79-4.07,11.41-8.07,12.71-.67-12.21-5.14-21.41-14.61-22.04-7.65-.49-11.65,6.15-13.5,14.61-1.74-1.92-11.71-1.86-13.31,0,1.31-15.18,9.8-23.97,26.22-25.23,9.92-.76,15.07-4.9,15.07-13.37v-24.91c0-3.25-2.63-5.88-5.88-5.88H76.33v35.13c0,4.1-1.24,6.45-4.57,7.43-2.94,.86-5.35,1.22-7.43,1.65l-.83-1.85Z"/>
    <path class="frameDark" d="M84.68,327.81l39.98-11.31c2.03-.46,1.94-11.98,0-11.51l-39.98,10.52c-5.3,1.48-4.95,13.56,0,12.29Z"/>
    <path class="frameLight" d="M78.12,314.16l34.82-9.16h11.72l-39.98,10.52c-2.96,.57-5.36,.41-6.56-1.36Z"/>
  </g>
  <g class="bennett">
    <g class="soleWhite">
      <path d="M93.25,360.79c-4.5,2.77-4.81,8.37-3.54,10.59,1.46,3.28,19.31,5.56,27.93-2.22,2.66-2.4,6.02-4.48,6.94-6.73,.27-1.78,.06-3.98-.7-5.11"/>
      <path d="M78,301.25c1.44,1.99,2.77,4.89,2.77,5.64,0,4.14-6.22,8.94-11.93,19.5-8.77,16.25-30.53,3.32-20.92-7.29l30.08-17.85Z"/>
    </g>
    <g class="bennettShoe">
      <path d="M116.43,333.89c2.29,16.47,5.52,14,7.44,23.44-1.44,4.27-8.19,7.46-11.57,9.81-1.74-7.7-15.32-8.22-19.04-6.34,4.88-5.88,8.12-17.88,7.68-26.86l15.5-.05Z"/>
      <path d="M69.09,283.94c2.68,6.4,7.43,11.08,8.9,17.31,.92,6.21-5.88,13.17-12.68,23.88-4.3-5.21-13.51-7.3-17.41-6.03,8.66-9.91,9.21-18.67,6.46-31.39l14.73-3.78Z"/>
    </g>
    <g class="shoelace">
      <path d="M96.95,356.9c1.79-3.55,3.19-7.89,3.96-12.18,2.54-.52,9.16-.43,11.35,.44-.25,3.51-1.64,8.06-3.49,12.37-2.69-.67-8.3-1.04-11.82-.63Z"/>
      <path d="M60.75,315.9c1.94-4.49,3.36-9.37,3.9-13.99-2.96-.79-5.92-.99-8.85-.85-.24,4.64-1.52,8.89-4.24,13.2,2.82,.25,6.21,.78,9.19,1.64Z"/>
    </g>
    <path class="converseLogo" d="M73.47,306.9c2.87-3.34-.87-12.48-3.56-8.89-3.06,4.07,.9,12,3.56,8.89Z"/>
    <path class="bennettJeans" d="M122.57,187.85c2.75,6.46,3.17,15.84,2.39,26.74,0,2.47,2.36,4-.14,6.19-.25,11.42-2.28,30.7-3.94,47.14-.4,3.93,2.41,6.3-.84,9.43,3.94,3.2,.16,4.35,.14,6.61,1.61,11.62,1.07,24.1,.28,37.15-.51,8.45,5.79,20.29-1.14,25.05-7.49-1.95-14.29-2.45-19.64,0-1.7-2.78-1.47-12.24-1.37-21.37,.16-15.48-1.42-20.39-2.62-35.63-.37-4.67-4.62-6.48-1.13-11.4-4.22-2.08-1.67-7.07-2.39-13.09-2.07-17.25-3.12-37.25-5.49-39.96-2.88-.55-11.34,11.49-19,19.84-.99,1.08,1.02,4.08-3.52,4.5,2.39,.71,3.04,3.29,.67,4.9,2.32,6.03,2.43,13.25,4.54,19.87,1.25,3.92,6.96,6.34,3.94,10.55,2.07,2.14,1.78,4.43-.23,6.81-5.26-.01-10.82,2.78-17.71,2.02-10.93-.28-12.99-14.02-19.57-35.92-.48-2.21-3.98-5.92-1.31-8.99-2.67-4.78,1.74-7.02,2.47-11.35,2.39-14.3,11.14-30.91,20.89-49.11H122.57Z"/>
    <path class="shirtWhite" d="M60.17,137.83c.6,8.77-3.39,10.01-.01,12.83,1.11,25.44-4.67,22.49-1.72,26.05-4.3,3.69,2.58,3.56-2.21,12.23,5.16,1.97,12.66,10.6,31.83,11.24,22,.74,25.07-9.34,36.01-10.82-.69-.9-.99-2.59-.98-4.92,3.03-3.1,.37-3.93,.12-5.65,1.97-2.7,.62-3.03,.37-5.28-.27-2.39-.05-5.92-1.11-8.48,3.07-6.02-.78-4.89,.74-12.04,7.74-74.97-77.3-70.91-63.04-15.16Z"/>
    <path class="bennettSleeves" d="M48.95,163.19c-2.34,3.89-21.21-5.58-18.64-9.04,4.28-5.77,3.98-8.26,5.31-9.71-1.23-2.63,1.71-3.97,3.54-5.72,2.19-2.09,2.79-7.76,5.24-12.2,.35-5.08,1.78-9.1,4.27-12.08-.15-3.39,2.13-5.28,3.33-8.17,2.03-4.9,3.77-9.58,8.96-12.74,6.78-4.14,14.39-6.38,21.04-7.83l21.8,2.36c5.63-.5,14.39,5.77,24.14,10.65,6.07,3.04,7.27,13.34,5.02,22.12,1.3,1.98,.86,4.25-1.25,6.8-1.97,17.55-5.76,19.25-7.15,24.32-1.82,6.63-4.47,12.93-9.24,17.06-3.88,3.36-18.6-8.76-16.25-11.39,1.55-1.73,3.75-7.31,4.58-6.8,1.69-.96-.3-3.64,2.49-3.74,2.99-4.18-1.79-4.28,2.19-6.77,2.1-4.44,2.69-9.06,3.58-13.04-1.69-3.58,.9-.6,2.79-8.96-2.49-2.19-2.06-4.04-3.68-6.37-2.03-2.93-5.08-5.97-6.77-9.95-6.57,4.18-21.7,3.38-27.17-3.48-3.78,1.39-4.52,3.66-6.97,5.67-2.29,1.89-5.18,3.38-9.36,10.55-1.79,6.67-.42,8.38-.6,12.24s-1.59,5.08,0,10.85c-3.06,4.47-2.39,10.15-5.77,10.95,2.01,3.73,.12,4.93-2.09,7.46-1.38,1.57-1.8,4.36-3.35,6.95Z"/>
    <g class="clothesDisplayLine">
      <path d="M104.04,198.27c4.38,3.07,9.14,4.43,14.25,3.74"/>
      <path d="M82.18,206.12c-1.04,2.14,1.73,5.44,.97,7.49-1.01,2.74,1.57,5.56,2.17,8.33"/>
      <path d="M88.35,204.39c1.18,1.82-.11,3.15,.75,5.1,.95,2.16-.53,3.63,.77,6.13,.76,1.46-.32,4.69-5.01,4.87"/>
      <path d="M112.29,367.13c-8.54,3.78-20.33,2.09-23.1-.24"/>
      <path d="M65.32,325.13c-3.92,6.95-12.8,8.12-17.87,4.61"/>
    </g>
    <g class="clothesOverlapLine">
      <path d="M111.9,347.83c-3.28-.62-9.34-1-11.55-.39"/>
      <path d="M111.3,350.39c-1.96-.52-8.63-1.13-11.61-.5"/>
      <path d="M110.57,352.79c-2.73-.65-8.93-1.27-11.6-.68"/>
      <path d="M109.73,355.15c-2.15-.77-8.85-1.26-11.67-.68"/>
      <path d="M64.2,304.85c-3.21-.55-6.04-.87-8.7-.82"/>
      <path d="M63.55,307.76c-3.11-.63-5.91-1.08-8.64-.99"/>
      <path d="M62.71,310.66c-3.05-1.01-6.1-1.38-8.64-1.35"/>
      <path d="M61.86,313.14c-2.94-1.02-6.36-1.38-8.88-1.38"/>
    </g>
    <g class="clothesFoldLine">
      <path d="M60.04,99.36c2.04,2.76,1.15,9.35,.73,15.38-.22-4.5-1.72-8.33-2.34-13.85"/>
      <path d="M56.55,107.35c1.16,4.1,2.36,7.81,3.76,9.25"/>
      <path d="M56.71,118.7c1.01,1.65,2.06,2.81,3.16,3.25"/>
      <path d="M50.59,117.1c.17,4.14,.86,7.75,2.45,10.44"/>
      <path d="M48.67,114.45c-.4,3.32-.4,6.4,.69,8.83"/>
      <path d="M46.33,126.15c-.8,5.33,1.38,15.76,5.33,17.09"/>
      <path d="M44.41,126.53c-1.43,8.14,2.78,15.6-1.96,13.41"/>
      <path d="M54.39,148.78c-3.16-.42-10.19-7.08-18.77-4.34,5.13-.97,10.92,2.05,15.77,6.05"/>
      <path d="M39.46,147.67c4.69,.81,8.45,2.86,11.13,6.34"/>
      <path d="M60.16,150.66c3.26,1.61,6.95,2.63,10.88,3.29"/>
      <path d="M65.13,150.22c3.52,1.11,7.94,1.83,12.83,2.34"/>
      <path d="M59.51,131.63c.64,2.56,3.91,3.31,6.04,3.36"/>
      <path d="M62.94,132.65c.64,.75,4.37,1.12,6.12,1.12"/>
      <path d="M92.45,130.63c-2.61,.48-17.15-.37-20.9-1.28"/>
      <path d="M102.24,133.07c-6.64,.75-13.55,.68-20.66-.05"/>
      <path d="M69.07,164.92c3.94,1.07,11.65,3.29,18.74,2.77"/>
      <path d="M74.45,168.49c5.06,1.84,11.18,2.02,17.85,1.35"/>
      <path d="M64.49,177.81c3.23,2.53,6.71,4.3,10.49,5.11"/>
      <path d="M58.44,176.71c4.03,4.08,12.15,5.17,6.43,6.69"/>
      <path d="M57.63,181.26c2.12,2.66,7.31,4.99,10.96,5.97"/>
      <path d="M62.25,188.67c10.06,7.51,36,8.52,45.1,4.58"/>
      <path d="M118.06,177.7c-5.44,3.1-10.74,5.45-15.82,6.66"/>
      <path d="M122.47,165.04c-2.5,3.37-4.91,6.09-7.12,7.6"/>
      <path d="M123.2,178.8c-4.88,3.26-14.98,6.04-6.74,4.97"/>
      <path d="M123.08,184.45c-4.16,2.51-8.94,3.83-14.13,4.37"/>
      <path d="M92.98,151.02c4.21-.12,8.14-.47,11.43-1.33"/>
      <path d="M88.13,153.52c5.03-.07,9.78-.43,14.11-1.2"/>
      <path d="M103.66,150.83c4.07-.09,8.81,2.06,11.15,4.61"/>
      <path d="M108.31,149.53c5.01,.8,10.71,6,7.77,6.02"/>
      <path d="M106.15,147.09c4.83-1.12,13.93,7.72,19.31-4.59"/>
      <path d="M115.66,144.95c-2.24-.68-6.55-.32-7.19-1.01"/>
      <path d="M114.54,140.74c-1.92,.85-6.79,1.12-6.21-.43"/>
      <path d="M131.71,127.64c-3.8,3.85-9.98,6.18-15.78,9.27"/>
      <path d="M132.96,120.84c-1.32,5.74-7.5,7.77-9.47,9.04"/>
      <path d="M111.92,127.28c1.46-1.63,3.33-2.63,5.45-3.26"/>
      <path d="M120.77,119.66c-3.22,1.4-6.26,2.92-8.71,4.83"/>
      <path d="M117.21,103.89c-1.2,3.41-2.06,6.73-2.56,9.96,4.53-12.3,13.69-11.87,6.55-6.34"/>
      <path d="M122.11,110.28c-3.48,2.54-8.76,4.82-7.4,8.04,2.07-3.94,10.65-4.26,14.48-11.77"/>
      <path d="M124.82,220.78c-.93,1.04-3.9,.43-6.11,1.53"/>
      <path d="M106.75,220.95c-4.42,.38-8.8,1.21-13.16,2.55"/>
      <path d="M95.03,226.73c1.21,1.27,2.81,2.26,4.67,3.06"/>
      <path d="M82.55,222.91c-4.88-3.17-10.22-4.92-15.96-5.43"/>
      <path d="M79.75,217.39c-1.87-4.16-8.24-7.93-10.44-5.43-1.98,2.24,4.58,2.21,5.94,4.33"/>
      <path d="M64.05,243.7c-1.27,1.56-4.3,1.79-8.66,1.02"/>
      <path d="M64.17,249.07c-2.93-.18-8.61-1.88-8.53,.33,.06,1.47,2.92,1.06,6.79,.34"/>
      <path d="M64.84,253.97c-1.56,.77-7.42,.26-2.75,1.54"/>
      <path d="M55.39,256.35c2.8,.93,6.03,2.12,8.06,3.82"/>
      <path d="M34.49,248.31c1.2,1.34,3.63,2.09,2.05,3.03"/>
      <path d="M117.44,271.63c-2.38,5.52-15.28,3.65-21.05,1.02"/>
      <path d="M94.57,277.77c4.45,1.92,8.81,1.2,9.21,2.69,.31,1.18-1.05,1.36-3.74,1.1"/>
      <path d="M120.04,277.35c-4.04,2.43-12.27,.82-13.04,1.92-.88,1.26,2.69,1.47,6.88,1.53"/>
      <path d="M116.51,285.89c-5.41-2.75-11.06-2.36-16.98,1.61"/>
      <path d="M70.08,279.36c-1.62,2.19-4.18,3.2-8.49,2.04"/>
      <path d="M73.32,284.39c-2.15,2.97-9.98,2.77-4.01,4.14"/>
      <path d="M100.72,299.56c4.75,7.72,1.87,14.94,2.63,21.22,.38,3.15,6.03,3.73,.76,7.81"/>
      <path d="M106.58,308.9c-2.89,19.61,9.25,12.73,2.63,20.46"/>
    </g>
    <g class="rubberLight">
      <path d="M1.92,195.06l23.79,3.47c2.41,.38,3.68-7.63,1.27-8.01l-23.7-4.04c-2.98-.47-4.34,8.11-1.36,8.58Z"/>
      <path d="M100.83,330.79l-6.75,9.2c-.48,.71,.02,1.5,.88,1.5,12.93,5,22.67,4.23,25.69-8.7,1.44-2.29,.19-3.26-1.9-3.26h-15.53c-.95,0-1.85,.47-2.38,1.26Z"/>
      <path d="M91.26,195.45l-25.24-.84c-2.68-.12-3.06,8.39-.39,8.51l25.21,1.45c-2.8-.13-2.39-9.25,.41-9.12Z"/>
    </g>
    <g class="eye">
      <circle class="sclera" cx="114.63" cy="59.18" r="15.42"/>
      <g class="irisDarkBrown">
        <ellipse cx="109.06" cy="59.27" rx="3.14" ry="2.43" transform="translate(24.59 150.21) rotate(-75.64)"/>
        <ellipse cx="126.96" cy="60.95" rx="3.14" ry="2.05" transform="translate(36.42 168.82) rotate(-75.64)"/>
      </g>
      <g class="pupil">
        <ellipse cx="109.5" cy="59.38" rx="1.22" ry=".95" transform="translate(24.81 150.73) rotate(-75.64)"/>
        <ellipse cx="127.48" cy="61.08" rx="1.22" ry=".8" transform="translate(36.68 169.42) rotate(-75.64)"/>
      </g>
    </g>
    <g class="skinEastAsian">
      <path d="M78.09,59.87c3.99,9.85,2.13,25.28,.06,29.27-2.01,12.31,29.12,14.8,28.06,1.66"/>
      <path d="M33.52,180.65c5.63-6.1,11.83-11.13,14.6-17.4,.81-8.32-14.49-13.77-17.48-8.17-3.46,7.96-5.72,17.09-9.31,22.61-4.54,2.71-10.37,.71-13,7.91-1.43,3.91-3.36,6.73-1.15,9.04,1.46,3.08,2.65,4.27,5,4.04,1.17,1.59,2.49,1.66,3.85,1.44-.11,1.42,1.08,1.8,2.02,1.42,1.46-.58,8.53,.31,7.67-3l-4.1-.6c.34-2.86,1.38-5.74,3.81-7.68,4.1,.47,1.35,3.53,3.49,4.56,4.84-5.02,2.59-11.33,4.61-14.16Z"/>
      <path d="M84.19,178.99c7.77-6.17,10.96-14.62,15.09-20.92,4.85-4.41,18.08,3.11,15.24,10.99-3.8,7.08-13.71,11.4-19.48,16.67,.42,4.55-.6,9.09-3.77,9.72-4.3-.33-5.12,1.98-6.02,5.19,.67,3.21-.97,6.42-4.03,4.93,.05,1.27-3.29,2.91-4.63,.07-.52,.67-2.69,.6-3.21-.75-1.9,.62-3.62-.96-5.15-2.99-1.74-2.3-2.69-3.88-1.57-9.93,2.99-10.38,13-9.79,17.54-12.99Z"/>
      <path d="M119.93,88.11c-3.57,3.24-4.65,6.67-10.11,6.5-7.97-.24-6.93-1.41-15.96-5.75-8.53-4.09-13.63-13.09-14.62-21.31-2.7,2.48-5.28,.22-6.16-1.92-1.02-2.5-3.51-3.18-4.56-10.36-7.2-32.5,50.06-42.7,66.12-22.74-3.54,11.83,.74,13.36-3.79,25.63-1.93,4.79,2.13,18.1-10.93,29.95Zm-7.81-29.3c-.79-2.41-2.67-3.2-4.6-3.33-2.47-.17-5.47,1.33-7.2,2.24,1.72,.87,3.14,2.27,6.39,2.64,1.88,.22,2.94-.49,4.69-.78,.37-.06,.99,.08,.72-.76Zm10.28,1.76c.86-.03,3.82,2.58,5.97,1.07,.47-.86,.75-2.28,.47-3.37-2.34-2.15-5.45,.55-6.99,1.57-.4,.27-.05,.76,.56,.73Z"/>
    </g>
  </g>
  <g class="skinOverlapLine">
    <path d="M72.4,190.49c-3.06,7.1-4.63,8.59,.97,14.42"/>
    <path d="M77.18,191.83c-1.09,2.43-2.61,5.08-2.99,7.32-.4,2.37,.9,3.59,2.39,6.5"/>
    <path d="M81.74,193.4c-1.79,4.93-3.66,7.99-.52,12.18"/>
    <path d="M19.69,186.46c-2.85,5.87-4.6,8.14-2.91,12.15,.71,1.55,4.4,1.1,4.84-.68"/>
    <path d="M14.05,186.11c-3.17,5.44-4.6,7.71-1.88,12.56"/>
    <path d="M9.71,185.85c-1.92,3.26-3.11,6.8-2.54,8.78"/>
    <path d="M16.02,200.12c.8-.08,1.03-.25,1.66-.74"/>
  </g>
  <g class="skinFoldLine">
    <path d="M78.38,55.01c-1.77-10.31-11.99-4.35-6.21,5.32"/>
    <path d="M77.66,56.88c-2.56,.4,2.2,4.56-.25,5.36-1.06,.35,.22-1.6-2.59-3.16-2.81-1.55,.02-5.96,1.15-4.29"/>
  </g>
  <g class="skinEdgeLine">
    <path d="M86.14,191.22c-3.13-.14-2.73-3.24-6.12-3.19-2.78,.04-2.26-2.37-4.71-1.73-3.05,.8-2.46-1.42-4.56-.15"/>
    <path d="M25.16,183.87c-1.67-1.45-3.19,.2-5.62-1.56-2.33-1.69-3.37,.7-4.89-.34-1.18-.81-1.99,.33-2.96,.58"/>
  </g>
  <g class="rickshawFront">
    <g class="spokes">
      <ellipse cx="178.67" cy="316.18" rx="7.08" ry="32.81"/>
      <path d="M19.2,331.98c-4.82,30.5,3.31,38.31,7.65,39,4.34,.69,14.41-5.63,18.5-34.87s-2.52-38.19-6.86-38.87-14.48,4.25-19.29,34.74Z"/>
    </g>
    <g class="rubberDark">
      <path d="M39.87,283.24c11.78,1.86,23.59,19.74,18.04,54.86-5.54,35.12-22.28,48.49-34.07,46.63-11.78-1.86-25.08-15.44-18.83-54.98,6.24-39.54,23.07-48.36,34.86-46.5Zm-20.67,48.74c-4.82,30.5,3.31,38.31,7.65,39,4.34,.69,14.41-5.63,18.5-34.87s-2.52-38.19-6.86-38.87-14.48,4.25-19.29,34.74Z"/>
      <path d="M100.01,336.17l-1.49,1.83c-.33,.49,.02,1.03,.6,1.03h10.93c3.35,0,3.89-1.4,5.09-2.86h-15.13Z"/>
      <path d="M116.58,333.7c2.04-2.22,.47-2.61-1.07-2.61h-10.91c-.66,0-1.27,.32-1.64,.87l-1.28,1.75h14.9Z"/>
      <path d="M90.85,204.57c2.67,.12,3.09-9,.41-9.12-2.8-.13-3.21,8.99-.41,9.12Z"/>
      <path d="M122.42,335.2l-1.2-4.44c.12,.5-.04,1.18-.58,2.03l-2.72,4.68c-1.63,2.51-4.1,4.02-7.1,4.02h-15.87c-.49,0-.86-.26-1-.61h0l1.45,4.69c.17,.29,.51,.48,.94,.48h15.87c2.99,0,5.47-1.51,7.1-4.02l2.56-4.52c.58-.93,.72-1.79,.55-2.31Z"/>
    </g>
    <g class="chromeDark">
      <path d="M181.76,278.07c6.92,0,12.52,14.41,12.52,38.11s-5.61,38.11-12.52,38.11-12.52-7.85-12.52-38.11,5.61-38.11,12.52-38.11Zm-10.17,38.11c0,18.12,3.17,32.81,7.08,32.81s7.08-14.69,7.08-32.81-3.17-32.81-7.08-32.81-7.08,14.69-7.08,32.81Z"/>
      <path d="M42.7,292.33c7.62,1.2,16.95,13.36,11.91,45.24s-17.65,40.57-25.27,39.37c-7.62-1.2-18.76-7.01-12.7-45.37,6.06-38.36,18.44-40.45,26.06-39.25Zm-23.5,39.65c-4.82,30.5,3.31,38.31,7.65,39,4.34,.69,14.41-5.63,18.5-34.87s-2.52-38.19-6.86-38.87-14.48,4.25-19.29,34.74Z"/>
    </g>
    <path class="rickshawMedium" d="M156.23,287.48l1.41,1.19c1.59-1.07,7.91-1.23,11.35,0l.54-1.19c-1.74-1.92-11.71-1.86-13.31,0Z"/>
    <polyline class="frameDarkest" points="45.31 269.56 73.95 328.71 77.93 328.75 46.26 263.62"/>
    <path class="frameMedium" d="M77.93,328.75c1.29-1.09,3.91-.43,6.21-.85l.54-.09c-4.95,1.27-5.3-10.81,0-12.29-2.78,.5-5.47,.59-6.75-1.66l-29.86-61.48-1.81,11.24,31.67,65.13Z"/>
    <g class="frameLight">
      <path d="M33.67,283.28c.36-1.49,.9-2.86,2.4-3.25,1.36-.35,5.94,.34,7.26,1.17,1.21,.76,1.83,2.27,1.59,4.18-1.25,10.09-5.98,40.21-5.98,40.21l-.78,7.52c-.44,.65-.87,1.75-1.16,3.57-.61,3.88,.42,4.87,.97,4.96,.55,.09,1.83-.72,2.35-4.43,.21-1.51,.2-2.59,.07-3.35l1.84-7.33s5.56-31.31,7.16-41.78c.67-4.41-1.4-7.98-5.04-9.33l4.45-27.63-7.1-1.16-4.45,27.64c-3.27,.25-6.97,2.79-7.54,6.91-.13,.97-.29,2.11-.45,3.37,1.47-.6,2.93-1.04,4.39-1.28Z"/>
      <path d="M68.3,317.02c-2.43,3.51-1.12,10.54,2.68,10.63,1.11,.08,2.26,.52,2.98,1.05l-5.66-11.68Z"/>
      <ellipse cx="181.76" cy="316.18" rx="1.49" ry="3.65"/>
    </g>
    <g class="steelDark">
      <path d="M48.55,249.41l-7.1-1.16c-1.06-.17-.8-1.78,.26-1.6l7.1,1.16c1.07,.17,.81,1.78-.26,1.6Z"/>
      <path d="M44.64,273.74l-7.1-1.16c-1.06-.17-.8-1.78,.26-1.6l7.1,1.16c1.07,.17,.81,1.78-.26,1.6Z"/>
      <ellipse cx="85.58" cy="321.59" rx="1.45" ry="3.53"/>
    </g>
    <g class="steelMedium">
      <path d="M64.4,196h-.07l-2.99-.23-3.85,5.55-24.08-2.3-2.51-6.26-3.88-.61c-1.15-.13-1.96,5.02-.88,5.15l1.59,.21,2.41,5.99s7.06,.71,10.96,1.1l5.91,15.74-4.26,26.46,5.05,.82,4.5-27.97-5.39-14.48c5.42,.54,10,.99,13.03,1.29,1.28-1.95,3.18-4.82,3.18-4.82l1.09,.08c-.59-1.58-.49-4.16,.2-5.75Z"/>
      <path d="M94.81,339h-8.91c-2.3,0-3.66-2.58-2.36-4.48,2.3-3.35,5.17-7.53,7.48-10.88h-5.45c-.68,0-.68-3.96,0-3.96h7.72c2.28,0,3.65,2.54,2.38,4.44-2.05,3.07-4.66,6.99-6.97,10.45h9.34l-3.25,4.43Z"/>
    </g>
  </g>
  <path class="lipMaleMedium__noStroke" d="M117.54,79.92c-1.88,.61-2.65,.44-5.03-.55-2.22-.09-3.39,1.62-6.23,2.38,2.01,.8,.85,4.51,6.18,4.54,4.58,.02,4.15-3.27,6.13-3.91-1.05-.97,.14-1.98-1.04-2.46Z"/>
  <path class="teeth" d="M109.27,81.3c2.03,1.56,5.16,2.12,6.78,.43-2.6,.66-2.81-.77-4.24-.98-.57-.08-1.47,.36-2.54,.55Z"/>
  <g class="lipOverlapLine">
    <path d="M116.45,81.56c.44,.38,1.75,.78,2.66,.87"/>
    <path d="M105.82,81.74c1.17,.03,2.33-.21,3.45-.44"/>
    <path d="M116.88,81.32c-.47,.26-.46,.27-.84,.41"/>
  </g>
  <g class="lipEdgeLine">
    <path d="M112.51,79.37c2.38,.99,3.15,1.16,5.03,.55"/>
    <path d="M108.43,84.77c1.1,1.15,4.59,2.37,7.12,.71"/>
  </g>
  <g class="noseLine">
    <path d="M110.71,74.65c-1.68-1.15-.76-3.92,.27-4.29"/>
    <path d="M120.35,67.58c-.21,2.25,3.01,6.07,.1,8.06-3.47,2.37-5.28-1.11-7.87-.34"/>
  </g>
  <g class="eyeFoldLine">
    <path d="M127.96,63.52c-1.05,.57-3.02,.31-4-.51"/>
    <path d="M109.33,61.84c-2.82,1.06-5.28,.24-6.33-.46"/>
  </g>
  <g class="eyeCornerLine">
    <path d="M98.38,58.17c.77,.11,1.29-.24,1.93-.45"/>
    <path d="M128.83,58.28c.31,.23,.64,.41,.98,.5"/>
    <path d="M128.36,61.64c.25-.18,.49-.32,.7-.38"/>
  </g>
  <path class="eyeCreaseLine" d="M100.26,55.81c4.05-1.41,7.56-2.74,10.85-.24"/>
  <g class="eyebrowBlack">
    <path d="M99.12,51.22c5.48-5.16,8.89-.29,16.98-1.17-6.24,4.26-11.63-1.76-16.98,1.17Z"/>
    <path d="M132.24,53.42c-3-2.27-5.15-1.24-7.72-2.57,1.51,3.55,4.06,1.89,7.38,4,.13-.5,.24-.97,.33-1.43Z"/>
  </g>
  <path class="hairBlack" d="M110.45,32.14c.96,14.91,13.3,13.92,16.52,16.75-.44-1.65-1.52-3.1-2.61-4.76,3.67,3.83,8,.59,12.45,5.25,2.41-4.23,3.38-11.14,.05-16.59,1.18,0,2.63,.62,4.94,.52-8.99-4.33-3.78-21.59-32.87-27.31-8.31-1.63-17.73-.82-23.4,2.3,.36-3.66,3.57-6.07,6.61-7.88-4.53,.64-8.76,3.99-9.97,8.06-1.49-2.09-7.4-1.14-9.22,2.21,2.43-1.45,6.91-1.59,7.09,.67-15.61,10.41-14.56,39.94-11.51,43.91-1.2-8.97,10.06-11.23,11.21-2.5,1.36,.54,3.69,1.05,5.07,1.11,.72-4.74,.36-5.96,5.19-9.37,3.44,.48,9.81-.8,14.14-4.05-.31,2.12-.91,3.92-1.67,5.21,2.29-.38,6.31-3.17,7.98-13.53Z"/>
  <path class="hairOverlapLine" d="M89.99,44.51c-1.58-.29-3.68-.34-5.15,0,1.44-.99,2.59-1.9,4.02-2.74"/>
</svg>