<svg viewBox="0 0 99.53 317.71">
  <g class="soleWhite">
    <path d="M53.29,303.63a8,8,0,0,0-3.5,9.47c2.25,3.33,16.65,5.55,23.86,1.68,3.26-1.75,8.4-3.58,9.06-5.16a9.49,9.49,0,0,0-.14-4.9"/>
    <path d="M42,303.42c3.91,2.07,5.34,6,4,9.47-2,4-15.9,7.21-25.48,1.35-3.84-2.35-9-3.57-10.73-6.52a8.9,8.9,0,0,1-.14-5.06"/>
  </g>
  <g class="bennettShoe">
    <path d="M78.08,278.72c-1,11.85,4.41,18,4.49,26-.25,1.48-6.61,4.12-10.18,6-1.56-8.52-14.85-10-19.1-7.1,6.81-6.57,8.89-16.26,8.22-26.86Z"/>
    <path d="M14.49,278.47c.63,13.21-4.7,16.19-4.79,24.19,2.41,4.38,9.3,6,14,8.58,1.19-6.35,12.28-10.46,18.39-7.82-7.81-6.57-11.12-16.26-10.36-26.86Z"/>
  </g>
  <g class="shoelace">
    <path d="M68.48,299.33a44.68,44.68,0,0,0,3-11.9,29.27,29.27,0,0,0-10.2-.75,31.36,31.36,0,0,1-3.71,11.51A30.21,30.21,0,0,1,68.48,299.33Z"/>
    <path d="M32.42,287.36A30.38,30.38,0,0,0,22.25,289a40.21,40.21,0,0,0,4.33,11.59,32.12,32.12,0,0,1,11-1.92A29.54,29.54,0,0,1,32.42,287.36Z"/>
  </g>
  <path class="bennettJeans" d="M85.34,193.7c2.09,6.24,1.14,15-1.73,25.34,2.27,4,.92,6.54-1.52,9,1.56,9.09-.93,20.52-1,32.29,0,4.52,3.7,12.5.42,15.17,2.33,3.14.71,5.25-1.15,7.47-1.72,2.06-4.8,1.61-8.77-.73-.09-4.37-9.54-5.24-10,0-3.05-1.72-2.71-4.95-3.35-7.84-4.61-4.19-1.24-9.55-1.83-14.68-1.71-14.87-3.79-30.07-3.09-35.7-1.62-4.39-2.46-10.34-3.43-16.55-1,5.53-.84,13.5-2.6,15.83.62,2.76-.36,6.17-2.54,5.71-.29,8.75-4.33,21.16-7.14,33.88-.63,2.85.11,10.07-2.62,11.59,2.5,3.76.48,6.22-3.3,8.17-.47-5.26-8.86-3.82-9.53.53-2.12,2.29-5.79,2-8.12,3.39.11-5.33-6.15-6.49-1-12.25-4.53-4-1.32-7-.16-12.38,2.36-10.87,1.69-23.21,3.62-31.5-1.42-3.11-1.91-6.25-.58-9.45a43,43,0,0,1-1.26-26.32C14.25,175.29,79.48,173.64,85.34,193.7Z"/>
  <g class="bennettHoodie">
    <path d="M84.36,191.39a18.66,18.66,0,0,0-.14-8c-22.86-6.56-45.92-6-69.11-.13-.69,2.67-1,5.23.57,7.21C23.67,175.83,75.17,175.23,84.36,191.39Z"/>
    <path d="M71.22,94.55C81,98.83,92.67,99,92.67,107.26c0,2.59,4,5.49,3.18,19.17,1.71,6.72,1.71,14.49,2,17.59.37,4.64,3.35,4.85-.36,10.62.61,6.11,3,8.43.82,12.09-2.08,7.82-7.77,13.43-12.67,16.86-2.1,1.46-2,3.66-4.52,3.17-1.38,1.9-2.85,2.84-4.52,1.59-1.16,2.78-3.78,1.71-5.74,1.34-4,1.83-5.13,4.28-7.94,3.91l-28.45-1.95c-2.93.24-3.3-1.71-5.87-2-2.82,1.64-8.06,0-9.28-2.2-2.81-2.68-7-3.06-7.94-6.47-4.76-3.05-6.22-5.81-7.69-9.89-1-2.83-2.93-3-2.08-9.16-3-6.23.13-7.08.49-10.75-1.71-2.44.76-5.2,1.22-9.4.4-3.57-1.34-6.84.37-10.63,2.66-5.88.24-18.19,6.84-28.33,1.22-5,12.17-4.89,19.87-8.55Z"/>
    <path d="M50,107.23c3.15-1.51,5.54-1.31,9.45-2.3C67,103,75,96.77,72.53,94.45c-1.85-1.73-3.32-6.78-6.6-3.46l-29.81-.45c-4-2-4.51,2.85-7.83,4.09-.91.34,1.36,4.67,10.92,9.23C44.27,106.28,46.64,105.52,50,107.23Z"/>
  </g>
  <path class="bennettHoodieInner" d="M50,107.23c.17-6.81-15.26-4.1-16.12-15.5-.56-7.51,36.44-7.59,33.71,1.19C64.45,102.94,50.88,101,50,107.23Z"/>
  <path class="zipperDisplayLine" d="M50,107.23c.77,16.43-2.14,42.36-.17,65.29"/>
  <g class="hoodieLace">
    <path d="M41.08,127l.4,5.32c0,.29,1.24.18,1.21-.11l-.4-5.35Z"/>
    <path d="M41.72,103.89c-.9,10.19-2.06,12.64-.94,23,.06.59,1.75.33,1.75-.2-1.1-9.28.19-13.7,1-22.66C43.53,103.44,41.75,103.34,41.72,103.89Z"/>
    <path d="M56.44,127.11l-1.09,5.22c-.05.29,1.14.51,1.2.23l1.09-5.25Z"/>
    <path d="M56.31,104.13c-1.24,9.21,2.33,12.18,0,22.71-.18.57,1.47,1,1.66.38,2.49-10.6-1.5-14.11-.09-22.91C57.93,103.72,56.38,103.55,56.31,104.13Z"/>
  </g>
  <g class="clothesDisplayLine">
    <path d="M72.39,310.73c-7,2.65-19.41.86-22.85-1.9"/>
    <path d="M23.65,311.24c7.1,2.76,18.86,1.31,22.73-2.41"/>
  </g>
  <g class="clothesOverlapLine">
    <path d="M81.52,120.2c-.53,2.57,1.07,7.18-.21,9.21-.22,4.07,1.28,11.25-.54,15.42a4.58,4.58,0,0,1-.53,4.07c.85,3-.62,6.12-.32,7.61.51,2.53,1.61,2.53,0,4.82-2.79,1.39-3,2.91-4.07,4.93-.81,1.47-3,.43-2.68,3.85-2,.17-3.67.82-4.18,2.89-2.44.07-2.92,1.48-4.5,3.43-2.25,2.79-5.89,3.32-5.78,4.18"/>
    <path d="M20.58,118.27c.21,3.32-1.5,4.82-.43,6.43-.32,14.67-3.43,15.74-1.18,17.89-2.36,4.28.64,1.92,0,7.49.59,2.36-1,4.18-.21,7.5a7.76,7.76,0,0,1,1.71,4,29.68,29.68,0,0,1,2.25,4.07,6.66,6.66,0,0,1,4.61,4.72c2.89-.75,5.78,2,5.14,4.5,2,2.57,5.25,2.67,5.35,3.85"/>
    <path d="M29,170.27c0-1.82,1.16-3.13,1.72-5.51,9,1.39,28.92,1.5,39.51,0,.23,2.14,2,3.88,1.77,5.51"/>
    <path d="M64.49,176.43c7.13-1.91,10.71,10.62,6.32,13.26"/>
    <path d="M32.47,174.83c-5.34-2.86-11.82,11.88-3.92,14.86"/>
    <path d="M71.12,290a47.39,47.39,0,0,0-10.33-.71"/>
    <path d="M70.61,292.49a38.92,38.92,0,0,0-10.42-.72"/>
    <path d="M70,294.8a32.81,32.81,0,0,0-10.53-.8"/>
    <path d="M69.29,297.06a30.76,30.76,0,0,0-10.66-1"/>
    <path d="M71.61,282.2c-.44.88.06,3.2-.18,5.23"/>
    <path d="M22.82,291.56a48.55,48.55,0,0,1,10.28-1.67"/>
    <path d="M23.6,294A39.53,39.53,0,0,1,34,292.33"/>
    <path d="M24.48,296.22c4.07-1.16,6.55-1.8,10.45-1.78"/>
    <path d="M25.47,298.4a30.91,30.91,0,0,1,10.56-2"/>
    <path d="M22.17,283.14c.57.83-.36,3.86.08,5.86"/>
  </g>
  <g class="clothesFoldLine">
    <path d="M85.06,114c-1.38,2.24-1.85,5.29-3.54,6.22-1.28-9.69,5.25-19.21,2.58-10"/>
    <path d="M19,105.57c1.25,3,1.61,7.53,1.56,12.7a12.32,12.32,0,0,0,2.28-6.84"/>
    <path d="M16.57,109.93c.95,3.62,2.88,6.18,4,8.34"/>
    <path d="M76.43,110.25c.89,4.18,3.31,7.46,5.09,10"/>
    <path d="M81.31,129.41a10.79,10.79,0,0,1-6,2"/>
    <path d="M93.16,117.5c-.62,6.84-2.83,12.81-8.2,17"/>
    <path d="M90.07,138.16A18.75,18.75,0,0,1,84.53,146"/>
    <path d="M95.85,126.43c-1.09,9.28-5.71,17.54-.46,20.15"/>
    <path d="M80.77,144.83a18.17,18.17,0,0,1-9.66,5.37"/>
    <path d="M80.24,148.9a18.56,18.56,0,0,1-7.85,4.49"/>
    <path d="M79.92,156.51c-.42,1.86-2,3.54-5.19,5"/>
    <path d="M81.55,154c1.17-.32,8.73,3.84,13-2.13"/>
    <path d="M97.44,154.64c-1,2-2.58,2.76-1.73,4.61"/>
    <path d="M79.92,161.33c14.73-4.53,21,7.29,12.39.48"/>
    <path d="M83.78,163.19c3.8-1,8.1,2.13,9.8,5.11"/>
    <path d="M73.17,170.11c8.7-2.23,15.09,6.5,15.41,6.4.73-1.32-.31-3-2.67-5"/>
    <path d="M69,173c2.17-.21,4,1,5.63,3"/>
    <path d="M76.55,188.35c1-4.71-.83-6.7,0-7.38s2.09.38,2.2,3.1"/>
    <path d="M81.07,186.76c1-2.1.82-4.5-.06-7.06"/>
    <path d="M27.33,170.33c-6.6,2-9.63,12.67-5-.43"/>
    <path d="M19.27,187.49a14.85,14.85,0,0,1-1.95-7.15"/>
    <path d="M11.33,181a4.41,4.41,0,0,1,.24-3.24"/>
    <path d="M15.19,180.13c1.6-8.2,9.26-15.13-3.2-8.74"/>
    <path d="M22.72,165.61a16.52,16.52,0,0,0-8.17,1.74"/>
    <path d="M20.47,161.54c-3-2.34-8.16-1.22-11,2.61"/>
    <path d="M14.76,157.33c-6.07-.32-11.93,4.9-10,12.36"/>
    <path d="M17.53,156.16c-2.66-3.3-10.44-2.23-13,2.45"/>
    <path d="M2.05,151.22c1.79,1,2.4,2.42,1,4.62"/>
    <path d="M16.79,146.9c-3.86,3.89-8.13,4.22-12.89.31"/>
    <path d="M19,150.08c-.47,1.39-1.76,2.49-4.1,3.21"/>
    <path d="M16.79,129.32c-4.67,3.69-9,6-12.36,4.15"/>
    <path d="M20.1,130.43c-1.75,5.42-3.69,9.67-6,11.67"/>
    <path d="M9.12,137.84c4.26-1,6.07-3.19,2.87,2.34"/>
    <path d="M19,142.59a8.38,8.38,0,0,0,5.27,3.35"/>
    <path d="M18.57,146.28a17.13,17.13,0,0,0,4.29,3.92"/>
    <path d="M20.15,124.7c1.33,2.15,4,3.32,7.18,4.09"/>
    <path d="M21.37,129a29.67,29.67,0,0,0,7.88,2.66"/>
    <path d="M58.75,153.18a102.39,102.39,0,0,1-20.87,0"/>
    <path d="M81,215.1c.49,1.29,1.82,2.24,2.62,3.94"/>
    <path d="M82.09,228a11.39,11.39,0,0,0-3.26-9"/>
    <path d="M78.58,190.75A9.15,9.15,0,0,1,83.24,198"/>
    <path d="M14.64,194.63c1.33-2,3.77-3,6.52-3.71"/>
    <path d="M15.9,221c1.56-2.2,6.38-4.56,8.54-7.23"/>
    <path d="M47.3,223.26a5.33,5.33,0,0,0-2.66-3.84"/>
    <path d="M41.62,228.05c1.23-5.7-3.11-3.71-4.66,2.59"/>
    <path d="M18.91,223.21c6.3-5.44-1,3.2-2.43,7.19"/>
    <path d="M26.34,224.34q-2.46,1.16-4.06,5.26"/>
    <path d="M53.33,224c.9-2.89,2-5.25,3.4-6.64"/>
    <path d="M60.36,222.87c-1.45-2.38-3.63,1.73-4.23,6.13"/>
    <path d="M78.92,234.27c1.3-8.81-7.51-14.34-3.71-15.11"/>
    <path d="M81.53,275.46c-2.26,2.93-8.62,1.27-8.74,3.53-.09,1.64,3.84,1.65,6.91.61"/>
    <path d="M58.25,274.36c1.85,1.18,4.23,3.65,6.51,3.51"/>
    <path d="M35,274.44c-1.5,1.88-6.38,1-4.78,3.08"/>
    <path d="M11.9,281c1.4,2.32,3.9,1.11,6.06,2.15"/>
    <path d="M13,274.28c4.16,3.33,9.32,1.37,10.55,2.73,2.23,2.44-3,3.11-7.08,2.24"/>
    <path d="M30.74,254.9c-.95,7.43-2.22,17.63,3.71,16"/>
    <path d="M27.37,259.39c-1.81,5.61.11,14.88-11,11.23"/>
    <path d="M67.35,244.11c-.41,5.23,2.87,15.46,2,17.35s-2.81,4.29-.43,6.05c3.62,2.68,5.43,7.51,10.62,3.54"/>
    <path d="M65,250.41c1.82,5.87,1.88,10.6-.52,14.08-1.73,2.5,2.88,5.15,2.33,6.47-1.39,3.35-7.08,1.64-8.72-2.07"/>
  </g>
  <g class="eye">
    <circle class="sclera" cx="68.07" cy="55.53" r="16.92"/>
    <g class="irisDarkBrown">
      <ellipse cx="60.15" cy="55.08" rx="2.92" ry="3.14"/>
      <ellipse cx="81.37" cy="55.08" rx="2.68" ry="3.14"/>
    </g>
    <g class="pupil">
      <ellipse cx="60.43" cy="55.08" rx="1.14" ry="1.22"/>
      <ellipse cx="81.7" cy="55.08" rx="1.04" ry="1.22"/>
    </g>
  </g>
  <g class="skinEastAsian">
    <path d="M67.24,72.35c-3.15,2.8-3.5,17.52-2.5,20.8-1.82,8.68-14.48,7.61-14.76,14.08.32-7.82-13.85-5.74-14.1-14,1.22-4.09.09-23.5-4-27.34"/>
    <path d="M56.74,201.43l7.37-8.33c4.58-3.1-.2-13.76-4.53-12.41-2.9-.58-3.61-5.29-7.81-4.32,1.93-1,1.88-2.87.77-3.17-4.13-.58-5.17-2.71-8.4-1.49-2.9,2-1.74,3.49-6.91,7.24-4.72-.19-7.11,9.37-4.26,12.15,4.09,4.81,3.76,10.4,9.23,11.24,1.12,4.89,4.79,5,6.34,5.1C52.81,207.68,56.1,205.05,56.74,201.43Z"/>
    <path d="M33.9,68.13c-2.46,2.73-5.93.85-7-1.2-1.26-2.39-4-2.3-5.71-9.36C13,32.13,62.52,3.8,85.9,27.85c-2.43,12.11,2.27,10.69-.13,24-1.47,5,4.93,20-7,33-3.25,3.56-4.71,7.44-10.17,7.66C62,92.75,63.26,91.85,54,89.1A30.4,30.4,0,0,1,40,80M65.44,55.63a5.81,5.81,0,0,0-5.39-2.88c-2.63.18-5,1.76-6.87,2.81a11.66,11.66,0,0,0,6.57,2c1.51,0,3.16-.62,5-1.06C65.14,56.37,65.9,56.4,65.44,55.63Zm11.35.63c.91-.12,3.53,2.17,7,.52a5.9,5.9,0,0,0,.08-3.17,4.92,4.92,0,0,0-2.59-.83c-2.47-.09-3.82,1.26-5.16,2.8C75.81,56,76.16,56.34,76.79,56.26Z"/>
  </g>
  <path class="skinOverlapLine" d="M51.77,176.37a9.09,9.09,0,0,1-5,.62c-3,1.34,1.22,6.2,7.25,4.13,1.78.76,3.38.95,5,2.46,2.31,2.12,1,5-1.08,4.28-5.48-1.13-9.14-4.28-16-3.33-3.18.67-3.23,4.29-.61,4.8,5.69.61,10.86-.71,16.19.39,2.58.53,2.11,4.34-.33,4.46-8.49.44-12-2.17-16-2.68-3.35-.05-2.51,4.25,0,4.81A19.51,19.51,0,0,0,55,196c2.85-1,3.18,3.46.39,4.19a14.36,14.36,0,0,1-12.73-1.73c-3-.39-3.33,2.83-.44,3.91,8.1,3.13,8.8.17,11.72-1.12,2.1-1,3.15,1.84.95,3.12-4.32,2.18-10,1-12.67-2"/>
  <g class="skinFoldLine">
    <path d="M54,181.12a2.56,2.56,0,0,0,1.4-1"/>
    <path d="M46.78,177a3.32,3.32,0,0,1-1.56-.77"/>
    <path d="M31.05,55.32c-3.25-8.91-13.46-.75-4.45,7.91"/>
    <path d="M30.45,57.72c-2.51.64,2.71,4.17.35,5.21-1,.44-.37-1.13-3.26-2.54-3.1-1.52-.74-6,.66-4.32"/>
  </g>
  <g class="skinEdgeLine">
    <path d="M44.59,185.38a3.81,3.81,0,0,0-.2,3.22"/>
    <path d="M44.66,193.62a3.5,3.5,0,0,0-.14,2.62"/>
    <path d="M47.07,201.13a2.41,2.41,0,0,0,.13,1.94"/>
    <path d="M50.49,198a3.48,3.48,0,0,1-.2,2.28"/>
    <path d="M51.43,190.21a4,4,0,0,1,.06,3"/>
    <path d="M52.77,182.37a3.11,3.11,0,0,1-.94,2.41"/>
  </g>
  <path class="lipMaleMedium__noStroke" d="M70,76.08c2.59.84,2.76.7,4.7-.26,1.45,1.22-.2,2.1,1.4,3.41-1.06.42-1.81,3.49-5,3.46-4.77,0-6.09-3.21-8.17-3.39C66.08,78.16,67.13,76.07,70,76.08Z"/>
  <path class="lipBorderLine" d="M62.86,79.3c3.19-.7,5.92-1.77,7-1.19A2.55,2.55,0,0,0,73,77.85c.63-.4,1.56.7,3.16,1.35"/>
  <path class="lipOverlapLine" d="M73.9,77a3.77,3.77,0,0,1-.87.88"/>
  <g class="lipEdgeLine">
    <path d="M70,76.08c2.59.84,2.76.7,4.7-.26"/>
    <path d="M66.7,81.54c2,1.29,5.61,2,7.89-.56"/>
  </g>
  <g class="noseLine">
    <path d="M65.82,66.77c-1.08.5-1.82,4,.43,5"/>
    <path d="M68.18,71.44c1.94-.24,4.71,3.27,8.46-.2,2.73-1.86-.92-5.06-1.13-8.54"/>
  </g>
  <g class="eyeFoldLine">
    <path d="M84.19,58.47c-1.34,1.05-5.11,1.17-6.7.18"/>
    <path d="M63.45,59c-1.37,1-5.31,1-7.41-.06"/>
  </g>
  <g class="eyeCornerLine">
    <path d="M51.1,55.93a4.17,4.17,0,0,0,2.08-.37"/>
    <path d="M83.88,53.61a4,4,0,0,1,.94.61"/>
    <path d="M83.8,56.78a4.44,4.44,0,0,0,.69-.35"/>
  </g>
  <path class="eyeCreaseLine" d="M53.92,53.66c2.22-2.39,8-3.62,11.29-.36"/>
  <g class="eyebrowBlack">
    <path d="M50.54,49.35c4.73-5.8,9.84-1.59,17.06-2.49C64.5,50.81,55.89,45.64,50.54,49.35Z"/>
    <path d="M77.07,46.44c2.4,2.72,5.63,1.29,9.16,2.4.06-.55.12-1.07.15-1.57C83.48,45.75,80.43,47.28,77.07,46.44Z"/>
  </g>
  <path class="hairBlack" d="M59.5,29.54C61.05,45.16,72.06,41.35,75.82,44.6a11.9,11.9,0,0,0-2-4.15c3.45,2.75,10.9-1.17,15.76,3,2-4.43,3.22-12.06-.6-17.16a20.64,20.64,0,0,0,5.3.7C83.52,20.83,84.85,5.68,57.83,3.28c-8.44-.75-17.53,1.34-22.89,5,0-3.67,3-5.63,5.83-7.72C36.32,1.59,31.85,5,31.14,9.84,29.36,8,22.86,6.5,19.3,12.12c3.74-3.23,8.74-1.84,9.25.69C14,24.64,17.78,53.91,21.19,57.57c-2-8.82,8.8-12.48,10.76-3.9,1.55.75,4.55,1,6.41,1.18-.2-4.76,0-4.61,4-9.3,3.43-.51,6.81-2.87,10.82-6.5-.11,2.14-1.1,3.6-2.16,5.2C53.35,43.25,58.3,39.55,59.5,29.54Z"/>
  <path class="hairOverlapLine" d="M42.38,45.55a36.9,36.9,0,0,1-7.53.09,24,24,0,0,0,4.51-2.41"/>
</svg>
