<svg viewBox="0 0 123.61 373.14">
  <g class="soleWhite">
    <path d="m20.66,358.92c-5.56,4.92-9.16,7.05-3.62,13.97,7.82-.19,14.83-7.22,24.27-10.47,7.43-2.55,16.4-8.38,16-10.82-.44-1.99-1.15-3.58-2.22-5.11l-34.42,12.43Z"/>
    <path d="m78.21,358.34c-7.04,2.38-11.17,2.94-8.75,11.47,3.76,2.54,16.62-.05,26.43-.24,7.85-.15,17.43-1.36,18-3.77.36-2,.33-3.75-.07-5.57l-35.61-1.89Z"/>
  </g>
  <g class="bennettShoe">
    <path d="m44.24,326.5c3.44,10,7.31,11.07,10.84,20,1.12,3.79-6.81,8.37-14.56,11.67-7.68,3.26-9.85,4.86-12.45,5.95-1.38-3.53-4.14-5.6-7.42-5.19,6.9-5.98,9.56-25.59,8.53-33.07l15.05.65Z"/>
    <path d="m109.68,334.22c-.71,10.55,5.3,16.11,4.14,26.02-.44,3.93-8.58,4.78-17,5.11-8.23.32-10.96.67-13.78.66.1-3.79-1.64-6.77-4.83-7.66,3.88-1.27,6.41-5.8,9.42-10.14,3.61-5.2,4.8-12.43,3.77-16.28l18.28,2.29Z"/>
  </g>
  <g class="shoelace">
    <path d="m27.67,354.97c2.68-4.67,4.11-9.59,5.23-14.42-1.47-.5-2.97-.75-4.42-.76-.82,4.98-2.21,10.15-4.19,14.1,1.1.13,2.3.46,3.38,1.08Z"/>
    <path d="m87.63,348.21c-1.88,2.7-3.56,5.48-5.51,7.5,1.31.52,3.27,1.3,3.93,2,3.91-3.7,6.69-8,9.16-12.3-1.04-.74-3.47-1.54-5.07-2.04-.64,1.7-1.48,3.36-2.51,4.85Z"/>
  </g>
  <path class="converseLogo" d="m43.49,352.24c5.95-2.96,1.82-11.64-4.23-8.6-5.64,2.83-1.33,11.36,4.23,8.6Z"/>
  <path class="bennettJeans" d="m116.64,189.62c11.57,21.75-2.61,36.59-3.96,41.53-1.62,7.43-8.42,19.69-13.4,34.22-.92,2.68.17,7.59-4.21,7.11,6.54,2.03.18,4.79,1.94,9.1,3.15,7.69,4.72,22.38,5.82,27.15,2.57,11.23,10.77,14.96,4.77,19.25,3.06,1.99,7.34,2.73,3.28,7.46,1.65,2.3-.48,4.02-.61,6.28-3.69,1.71-9.14-1.95-12.97-1.16,1.4-3.04-5.47-5.04-5.95-1.47-.96-2.88-4.85-2.36-4.71-6.39-5.37-2.55-1.19-7.85-2.59-10.81-6.12-12.89-12.65-34.87-14.43-39.23-1.64-4.03-.73-10.08-.77-16.25-1.85,1.78-.4,5.59-3.91,5.36,2.31,3.58-1.68,3.27-1.79,5.96-.54,14.2-8.39,24.77-9.28,34.29-.54,5.8,2.21,9.73-3.15,12.17,4.47,6.16-1.93,5.53-3.62,8.79-3.59,3.03-10.49-1.51-13.4.27.15-3.28-4.25-4.16-4.41-.49.41-4.17-4.32-7.08.08-9.93-3.44-3.41,2.07-6.57,2.54-9.7,2.16-14.29,6.12-41.02,7.08-45.68,1.5-7.32,14.06-34.17,24.07-54.91-1.6-2.24,2.65-1.63,1.67-3.24-1.38-2.26,3.03-4.42,4.52-11.36l47.37-8.31Z"/>
  <path class="shirtWhite" d="m57.06,100.67c-3.16,9.41-2.47,18.43-2.47,25.68,0,1.79-2,3.24.46,4.78,1.39,21.27,3.39,38.23,6.47,51.33,2.35,9.97-1.39,12.02,5.24,14.18-1.23,1.45.62,2.77.01,5.55,7.08-.46,16.34-5.58,24.8-7.55,8.46-1.97,15.88-.15,26.05-3.7,1.26-3-3.21-5.91-4.01-8.79,1.33-1.92-.91-3.43-1.39-4.78,2.41-2.61-2.41-5.05-2.16-8.48,1.6-2.42-1.21-3.94-2-6.47,2.93-4.08-.17-6.86-1.7-10.48-1.77-27.04-31.33-67.04-49.32-51.26Z"/>
  <path class="bennettSleeves" d="m57.06,100.67c.21-1.71.76-3.43,1.04-5.19,6.63-1.97,18.39-6.74,24.77-11.58,1.45.97,4.11,2.01,5.07,3.62,2.92.4,4.62,1.76,5.38,3.86,5.84,4.1,14.58,20.27,20.5,29.07,4.8,7.15,8.81,11.82,9.53,19.06.42,5.27-7.84,11.82-14.6,13.87-2.41.48-13.15-11.82-13.63-15.44,2.53-1.21,3.35-3.23,5.55-4.22-4.83,1.33-3.02-2.65-5.43-3.86-.48.72-5.19-2.9-5.31-4.58-1.09-2.17-3.31-1.9-3.33-4.38-1.5-2.01-5.46-3.5-5.6-6.12-.98-.1-1.95-.32-2.9-1.33-6.38-2.49-10.31-7.75-12.46-15-2.47,1.08-6.18,1.96-8.58,2.21Z"/>
  <g class="clothesDisplayLine">
    <path d="m92.15,202.15c-5.78,1.67-13.52,1.61-16.32-2.16"/>
    <path d="m28.08,364.11c-3.11,1.49-10.49,5.31-13.17,5.07"/>
    <path d="m83.04,366.01c-3.44.17-11.73.82-14.11-.43"/>
  </g>
  <g class="clothesOverlapLine">
    <path d="m67.27,203.2c2.06,4.98.09,7.82,3.3,10.39,1.46,1.17-1.28,3.6,2.06,3.85-1.41.39-.9,2.95.77,3.47-3.11,6.61-3.7,26.69-4.54,45.49"/>
    <path d="m32.16,343.57c-1.44-.36-2.86-.53-4.28-.56"/>
    <path d="m31.31,346.49c-1.43-.42-2.81-.6-4.14-.51"/>
    <path d="m30.24,349.56c-1.38-.67-2.71-.95-3.94-.64"/>
    <path d="m29.05,352.33c-1.29-.67-2.53-1.02-3.67-.86"/>
    <path d="m33.71,333.24c-1.2,2.03.12,4.19-.8,7.31"/>
    <path d="m93.63,348.07c-1.27-.75-3.56-1.61-4.76-1.9"/>
    <path d="m91.98,350.63c-1.25-.82-3.32-1.74-4.62-2.03"/>
    <path d="m90.07,353.26c-1.13-1.04-3.02-1.92-4.34-2.25"/>
    <path d="m88.13,355.57c-1.05-1.02-2.81-1.79-4.08-2.18"/>
    <path d="m97.3,340.56c-1.3,1.23-1.47,3.83-2.09,4.84"/>
  </g>
  <g class="clothesFoldLine">
    <path d="m82.88,88.18c1.21-.66,2.95-.83,5.06-.66"/>
    <path d="m93.32,91.38c-1.73-.91-3.41-1.29-5.03-1.04"/>
    <path d="m74.01,103.91c-2.22-.37.6,5.43,4.1,9.55"/>
    <path d="m78.24,108.01c.48,2.64,1.39,4.9,2.76,6.77"/>
    <path d="m86.05,109.8c.56,3.66-.07,7.55.55,11.1"/>
    <path d="m89.23,117.54c.95,2.71.26,5.49.7,7.74"/>
    <path d="m90.09,104.17c2.37,5.45,1.72,12.25,2.18,18.86"/>
    <path d="m98.56,122.84c.33,1.46-1.59,6.42-3.33,7.03"/>
    <path d="m107.83,122.44c-2.98,3.96-6.16,7.42-9.93,9.4"/>
    <path d="m112,132.9c-4.62-.79-8.91-1.16-11.33.82,3.05,3.3,6.72,5.48,10.74,7.05"/>
    <path d="m57.85,128.99c3.94.18,7.96-.23,12.05-1.32"/>
    <path d="m55.05,131.12c2.34.63,5.8.4,9.42.06"/>
    <path d="m105.25,160.7c-6.37,3.94-14.16,3.91-21.38,1.85"/>
    <path d="m108.08,162.41c-.65.97-1.13,1.93-.45,2.85"/>
    <path d="m110.08,168.89c-3.64,4.19-10.02,4.79-7.75,6.38"/>
    <path d="m112.24,177.36c-2.62,2.33-7.73,2.75-4.61,4.12"/>
    <path d="m113.63,182.14c-2.95,2.2-7.71,3.4-13.61,3.98"/>
    <path d="m114.18,186.58c-1.24.85-2.63,1.41-4.17,1.65"/>
    <path d="m65.2,190.55c4.16,4.04,10.79,3,18.27.2"/>
    <path d="m66.77,196.63c1.25.27,2.49.27,3.73.08"/>
    <path d="m72.62,217.44c5.4-2.31,8.61-5.4,16.19-4.5"/>
    <path d="m75.96,217.57c5.65-1.8,12.85-2.57,19.66-2.44"/>
    <path d="m73.39,220.91c3.89.84,7.84,2.87,11.82,5.52"/>
    <path d="m63.08,212.53c.33.4,1.09,1.1,2.1,1.44"/>
    <path d="m62.62,264.02c-5.64.98-10.96.83-15.85-.88"/>
    <path d="m46.16,270.07c5.03,1.9,11.83,3.54,13.4,6.67"/>
    <path d="m64.94,271.76c-8.44-3.73-18.31-5.23-6.06-.06"/>
    <path d="m64.73,266.67c-1.84.61-.66,1.86,2.11,2.52"/>
    <path d="m91.19,266.74c-7.76,1.7-1.5,3.54,4.69,2.93"/>
    <path d="m95.07,272.48c-5.7-.52-11.48-1.36-12.59.11-1.69,2.25,4.97,2.31,9.32.95"/>
    <path d="m81.13,279.26c4.24.4,8.34,1.95,12.31,4.42"/>
    <path d="m96.57,277.08c-.68.75-7.21-1.22-4.35,2.45"/>
    <path d="m100.4,320.7c-4.59,5.34-9.27,9.73-14.7,6.13"/>
    <path d="m107.61,327.98c-6.53,4.5-12.17,3.3-11.98,5.08s4.89.91,8.08-.19"/>
    <path d="m86.64,332.69c2.26.96,4.12,1.4,6.74,1.05"/>
    <path d="m110.89,335.44c-1.68,1.08-4.19,1.64-7.47,1.71"/>
    <path d="m42.56,318.07c-2.14,2.34-10.32,3.02-11,0"/>
    <path d="m53.92,316.13c0,2.96-5.13,1.56-2.5,3.8"/>
    <path d="m50.73,324.18c-5.15,1.09-14.19,1.12-6.9,3.82"/>
    <path d="m29.38,322.82c4.13,1.87,10.61,1.84,4.32,3.82"/>
  </g>
  <path class="teeth" d="m35.71,79.24c5.28-1.69,7.7,2.47,1.55,2.85l-1.55-2.85Z"/>
  <g class="eye">
    <circle class="sclera" cx="35.31" cy="57.84" r="5.55"/>
    <path class="irisDarkBrown" d="m34.42,62.19c-.32.13-1.63-.85-2.29-2.46s-.42-3.22-.09-3.36c1.14,1.8,1.93,3.74,2.38,5.82Z"/>
    <path class="pupil" d="m32.98,60.71c-.26.11-.59-.35-.85-.97s-.33-1.18-.08-1.29c.41.71.71,1.47.93,2.26Z"/>
  </g>
  <g class="skinEastAsian">
    <path d="m58.77,95.28c6.59-2.03,17.48-6.51,23.72-11.09-2.46-4.12-6.41-11.91-.2-25.73l-35.19,16.86c4.54,3.51,11.64,13.85,11.68,19.96Z"/>
    <path d="m43.32,180.21c2.69-1.23,9.81-3.97,16.57-5.63-.7-3.82-1.34-7.9-1.92-12.27-6.23,3.41-12.04,6.38-16.53,7.99-7.9,1.01-9.62-6.61-22.11-2.71-4.58.1-7.24.86-8.63,2.41-5.59.64-7.2,2.55-9.96,3.5-1.81,1.81,1.53,5.15,6.39,2.29-1.23.99-.97,1.67-1.78,2.35-.99,2.23,4.42,3.61,7.79-2.64,6.96,2.16,9.02.04,11.91,4.8.57,2.58-5.21,3.32-6.29,4.22-4.31-.23-7.53,5.89-3.8,6.06,1.02-.57,2.95-.51,5.13-1.49,3.09-1.39,6.53-.42,11.17-2.04,6.13-2.14,7.26-4.29,12.05-6.86Z"/>
    <path d="m66.12,151.54c10.28-3.96,20.49-7.32,29.08-13.17h0c1.06,3.71,9.5,13.51,12.75,14.87h0c-8.7,4.29-28.87,4.56-35.84,8.18-1.05,8.46-4.67,6.77-4.98,14.07,1.47,4.16-2.23,6.16-3.69,4.08-.15-1.08-1.08-1.39-1.39-3.69-.27-2,.3-4.62.07-6.62-1.54,2.62-3.44,2.76-2.46,8.16,3.77,3.08.77,6.86-1.77,5.46-.92-1.23-1.69-1.15-2.15-2,.23,2.54-2.23,4.46-3.69,3-1.92-2.92-3.61-2.08-4.54-8.31-.15-5.23-.7-5.85,2.07-9.62-1.85,2.69-3.46,1.92-3.61,7.85,2.54,5.46-2.39,8.54-4.01,5.62-.38-4.46-3.06-5.21-.15-12.7,2.15-5.54,4-4.85,9.39-8.85,3.77-2.8,9.26-4.75,14.91-6.33Z"/>
    <path d="m64.56,76.03c-1.43,4.99-5.09,9.75-9.98,12.77-4.82,2.98-8.66,6-11.81,4.78-6.56-2.54-7.48-9.31-6.58-10.89.62-1.1,2.37-1.53,3.92-1.71-.33-.52-.62-1.06-.86-1.63.02-.11-3.65.19-4.74.77-.78.41-2.21-.74-2.16-1.37.35-.79-.2-2.7-.67-3.93-4.35,2.13-7.43.18-6.56-2.86,1.64-5.74,5.2-12.15,3.35-15.5-5.1-9.21-1.77-16.06-3.86-24.86C45.7-.18,102.56,44.08,72.92,64.13c-2.11,2.84-3.33,5.89-7.23,3.95m-32.85-7.16c1.2-.68,3.17-1.24,4.86-3.08-1.86-.89-3.61-1.19-5.8-1.41-.4,1.31.04,3.65.95,4.49Z"/>
  </g>
  <g class="skinOverlapLine">
    <path d="m19.73,171.11c-3.46-.62-4.76-1.36-9.02-1.1"/>
    <path d="m19.34,167.6c1.29-.04,2.52.07,3.68.34"/>
    <path d="m7.14,175.8c1.27-.72,3.99-.33,6.01-.29"/>
    <path d="m56.45,165.34c-3.5,5.19-2.8,6.24-2.92,8.93-.15,3.31.54,5.77,2.23,6.62"/>
    <path d="m49.6,165.96c.51-.66,1.28-1.52,1.51-2.43"/>
  </g>
  <g class="skinFoldLine">
    <path d="m66.37,54.68c1.18-10.2,15.43-3.6,6.43,7.07"/>
    <path d="m66.68,57.19c2.27.94-1.18,4.71.54,5.4,1.18.47.15-2.31,3.04-3.26,3.58-1.17.8-6.12-1.04-4.87"/>
  </g>
  <g class="skinEdgeLine">
    <path d="m48.41,170.21c.81.57,2.28,1.23,3.7,1.17"/>
    <path d="m58.27,172.82c-1.17.06-3.02-.43-3.45-.86"/>
    <path d="m65.3,167.55c-2.11-.66-2.65-3.7-6.1-3.83-2.93-.11-3.03-2.38-5.55-2.12-2.25.24-2.36-.36-3.08-.69"/>
  </g>
  <path class="lipMaleMedium__noStroke" d="m34.51,80.12c-.78.41-2.21-.74-2.16-1.37,1.75.37,4.84-.12,6.84.58-.45-.05-3.68.26-4.68.79Z"/>
  <path class="cheekLine" d="m38.6,77.51c.48,1.7,1.32,3.63,2.5,4.64"/>
  <path class="noseLine" d="m33.98,70.82c.94.72,1.49,2.22.58,3.28-1.62,1.89-3.6.12-4.9.36"/>
  <g class="eyeLidLine">
    <path d="m31.89,56.44c-2.42-.12-1.46-2.41-1.46-2.41"/>
    <path d="m32.84,60.93c-.58.43-.69,1.38.75,2"/>
  </g>
  <path class="eyeCornerLine" d="m37.69,57.85c.45.21.91.37,1.5.3"/>
  <path class="eyebrowBlack" d="m39.83,50.85c-5.06-4.31-7.19.03-12.12-1.48,3.28,4.22,6.4-.57,12.12,1.48Z"/>
  <path class="hairBlack" d="m22.07,26.5c-1.79.33-3.62.65-5.33.59,7.52-4.34,8.42-10.13,20.23-16.14,6.96-3.54,17.13-4.84,27.28-3.22-.78-3.03-3.15-4.99-6.96-7.31,5.19.75,9.04,3.93,11.15,7.92,1.59-4.92,7.12-6.38,10.14-2.77-3.55-1.4-6.31.38-6.58,4.23,18.63,8.63,29.98,36.86,9.07,56.45-3.16-.05-5.08-.63-8.15-2.13,4.26-3.68,7.48-10.01,2.53-15.12-3.05-3.14-10.49-2.44-10.47,4.27-2.57.94-4.71,1.28-7.91,1.77-1.33-5.52.44-3.77-5.48-7.87-3.76.32-11.14-.84-15.13-5.07.55,1.77,2.83,4.37,2.7,5.97-2.56-3.98-25.57-5.08-17.08-21.57Z"/>
  <path class="hairOverlapLine" d="m51.58,47.18c1.62-.02,5.34-.16,6.97.81-1.19-1.62-3.64-2.95-4.92-3.51"/>
</svg>