<svg viewBox="0 0 192.8 482.04">
  <g class="soleTan">
    <path d="M189.91,445.65l-55,29.12a13.94,13.94,0,0,0,.47,2.33c9.92,5.2,26.85-1.49,39.57-14.79l1.32,1.76c2.2-.36,17.26-11.83,16.21-14.29C191.72,448.31,190.76,447,189.91,445.65Z"/>
    <path d="M66.85,477.67a17.84,17.84,0,0,0,.24,2.19c1,2.29,26.31,3.16,40.48-.94v1.59c1.34.94,20.33.22,21.12-1.75a38.54,38.54,0,0,0,.76-5.21Z"/>
  </g>
  <g class="nestorBoot">
    <path d="M171.71,461.89c3.83-3.91,10.94-5.72,18.2-16.24-6.5-10.61-14.52-18.84-17.66-28.09l-19.79,9.5c6,10.67,5.43,23.16-5.65,34.2-3.28,3.27-12.86,4.74-11.88,13.51C146,479.8,161,472.86,171.71,461.89Z"/>
    <path d="M103.57,477.26c10.09-2.16,19.62-.57,25.89-3.71.83-11.36-3.59-20.52-.37-33.63l-23.4-.55c-1.83,14.41-17.83,25.72-22.76,26.4-5.31.73-16.59,1-16.08,11.9C76.06,479.62,91.06,480,103.57,477.26Z"/>
  </g>
  <path class="nestorPants" d="M129.37,443.19c2.13-.7,2-2.84-.13-4.34,4.77-4.62-.59-8.71.38-11.43,3.08-1.29,3.66-4.79,3.23-9.2-1.09-6,1.72-12.1,2.2-19.63,3.29,6.41,7.43,13.23,7.35,15.71-.11,3.28.7,7.17,6,7.94.62,2.18-1.25,6.63,2.94,7.62,4.36,1,22.11-7.42,22.71-10.42,1.34-6.77-3.12-6.22-5.45-8.71,1.81-3.59,1.83-6.54-.78-8.55-4.82-2.49-13.18-42-25.16-49.31a4,4,0,0,0-3.82-5.23c1-6-3-8-.24-12.73,5.35-9.22,4.59-40.24,8-49.37,3.42-2.8.68-4.89,2.18-6.84,4.17-5.43-1.27-6.29.65-9.87,8.52-15.95,9.15-34.29-2.21-47.73l-59.86,9.55c-1.71,6.84,2.4,11.88,1.56,17.57-1.71,11.66,2.18,13.84,3.43,21.15,0,11.11,2.9,36.09,3.42,46.49-.15,8.24,4.06,12.32,3.42,16.33a13,13,0,0,0,1.25,7.46c.77,6.38-1.25,15.4,2.8,20.06,0,2.8-2.8,4.82.15,10.11.31,13.22,2,25.33.62,29.08a7.14,7.14,0,0,0,1.87,8.24c-4.13,8.17,1.88,9-1.59,15.38-1.57,2.88-2.54,5.36,1.27,8.89.14,4.09-4,7.95-2.4,10.3,1.14,1.67,4.91,1.28,7.76.28C116.37,443.12,123.29,445.18,129.37,443.19Z"/>
  <g class="drumstick">
    <path d="M67.4,268.39c-3.21.13-11.16.83-15.06,1.36l.11,2.94c3.93.25,11.86.31,15.12.18l92.11-3.57a2.25,2.25,0,1,0-.18-4.48Z"/>
    <path d="M75,272.62c-3.16.59-10.93,2.42-14.71,3.5l.53,2.9c3.93-.32,11.78-1.4,15-2l90.64-16.74a2.25,2.25,0,1,0-.81-4.41Z"/>
  </g>
  <g class="drumstickTip">
    <path d="M46.24,271.46c0,1.24,1.71,2.18,3.93,2.09s2.53-1.1,2.48-2.34S52.22,269,50,269.07,46.19,270.22,46.24,271.46Z"/>
    <path d="M54.49,278.69c.23,1.22,2,1.91,4.19,1.51s2.35-1.46,2.12-2.68-.74-2.14-2.93-1.73S54.27,277.47,54.49,278.69Z"/>
  </g>
  <path class="nestorShirt" d="M117.63,97.32c24.18,25.59,28.34,59.08,20.31,94.9,3.09,10.15,12.93,12.81,8.38,22.06a15.89,15.89,0,0,1,2.65,8.17c-8.61,6.18-45.9,12.58-65.32,10.37-2.21-14.13-1.92-37.3-3.54-49-1.52-11-4.34-26.56-3.31-36.63,1.29-12.52,5-24.09,9.27-35.09C93.32,110.35,104.79,98.89,117.63,97.32Z"/>
  <g class="clothesDisplayLine">
    <path d="M82.93,465.77c3.94,3.12,5.77,7.74,6.27,13.3"/>
    <path d="M93.2,459.78c.57,6.39,7.81,9.81,8.89,17.79"/>
    <path d="M128.84,461.26c-4.37,6.49-12.77,6.33-12.57,14.61"/>
    <path d="M146.81,461.26c6,0,9.32,5.16,10.85,11.17"/>
    <path d="M155.3,447.56c.67,9.55,7.74,7.72,13.82,16.83"/>
    <path d="M183.32,436c-.9,7-5.89,13.83-2.28,19.17"/>
  </g>
  <g class="clothesOverlapLine">
    <path d="M121.18,124.47c5.1,5.56,12.07,18.56,9,19.41"/>
    <path d="M106.54,154.36c-2.24,2.72-2.76-8.34-14.57-23"/>
    <path d="M138.83,347.64c-2.76,6.84,0,21.4-3.78,50.95"/>
  </g>
  <g class="clothesFoldLine">
    <path d="M113.93,117c6.91,3.48,12.57,7.58,13,14.26"/>
    <path d="M114,114c4.9,2.31,9.21,4.9,10.88,8.72"/>
    <path d="M86.52,126.5c.59,3,2.75,5.91,6.06,8.73"/>
    <path d="M106.13,159.55A20.63,20.63,0,0,1,93.5,159"/>
    <path d="M99.66,164a28.7,28.7,0,0,1-14.37-5.33"/>
    <path d="M96,142.82c-5.13-1.23-8.82-3.28-7.69-5.54,1.52-3,4.21,2.67,10.61,4.18"/>
    <path d="M91.45,190.3c4.86,8.69,30,23.39,15.08,30.17"/>
    <path d="M101,193.37a48.59,48.59,0,0,0,18.4,11.37"/>
    <path d="M146.32,214.28c-.94,2.1-3.23,3.13-4.25,5.43"/>
    <path d="M145,208.32a3.09,3.09,0,0,1-2.78,0"/>
    <path d="M168.59,410.73c-1.23,1.92-3.48,3.52-6.29,4.95"/>
    <path d="M148.39,422.24c3,.24,8.37-.63,9.75.37"/>
    <path d="M152.47,428.53c-3.15-3.4,7.69-1.38,15.5-7.94"/>
    <path d="M105.83,407.14c1.39,1.57,4.35,2.92,6.22,4.18"/>
    <path d="M129.62,427.42a21,21,0,0,1-6.37.66"/>
    <path d="M105.51,431.41c4.64,6.63,15.09,5.75,14.47,7.64-.4,1.21-3.91.63-5.55.12"/>
    <path d="M129.24,438.85a11.89,11.89,0,0,1-5.36,2"/>
    <path d="M127.54,432.87a14.44,14.44,0,0,1-10.46-2.27"/>
    <path d="M103.19,359.71c2.84,4.23,16.58,12.42,5.36,9.24"/>
    <path d="M100.39,339.65c2.49,2.61,5.39,2.36,6.77,3.75"/>
    <path d="M94,262.14a48.28,48.28,0,0,0,11.81-3.1"/>
  </g>
  <g class="eye">
    <circle class="sclera" cx="59.61" cy="60.73" r="5.92"/>
    <path class="irisDarkBrown" d="M58.64,64.88c-.38.08-1.61-1.24-2-3.11s.16-3.58.54-3.66A19.68,19.68,0,0,1,58.64,64.88Z"/>
    <path class="pupil" d="M57.36,63c-.3.07-.58-.49-.74-1.22s-.14-1.35.16-1.41A10.32,10.32,0,0,1,57.36,63Z"/>
  </g>
  <g class="skinIndian">
    <path d="M120.35,238.49c3.19-24.46-1.45-42.7-.52-52.91.15-1.66-8.28-19.06-13.29-31.22,5.17-6.29,10.14-5.64,12.95-6.63s5-4.18,10.69-3.85c6,14.15,12.84,33.71,13.1,37.51,1.07,16-3.61,38.67-7.54,57.74-2,10,1.08,13.1.54,20.94-.28,4.14-2.44,8.76-4.66,12.51-1.61,2.71-4.14,5.46-7.47,4.6-1.61,2-5.89,1.52-6.08.58-2,1.23-5.21.81-6.13-.68-3.43,1.35-7.11-2-6.7-5.49l4.17-.77A13.35,13.35,0,0,0,110.8,266l-4.28.79c.34-4.62,2.85-9.81,5.52-14.07C115.3,247.55,118.77,246.91,120.35,238.49Z"/>
    <path d="M51.64,223.4c9-5.69,21.5-11,30.05-16.17-.42-8.84-.75-17.42-1.58-23.4-10.6,10-24.51,20.14-34.65,25.61-3.32,1.33-6-3.39-14.72-3.69-7-.24-10.92,3.37-16.84,5.28-2.28.74-1.06,4.11,3.31,4.51-6.76,4-14.26,7.33-15.68,9-2.18,2.51-.25,5,2.69,4.81C.94,230.8-.15,232.73.37,234.1,1.1,236,2.63,236.76,5,236c-1.15,1.1-1.31,2.34-.13,3.45,2.12,2,5.44.13,9.42-1.59-2.12,1.59-2,3.55-.93,4.37,2.78,2.26,8.36-1.71,15.3-5,4.41-2.09,11.08-2.31,17.71-9.18C48,226.31,47.9,225.14,51.64,223.4Z"/>
    <path d="M68.93,95.51c11.19-5.82,18.28,10.41,18.66,16.12,7.08-2.69,17.48-12.31,29.08-14.17-11-20.49,2.14-21.48,4.94-54.58"/>
    <path d="M93.82,87.27C88.31,97.84,71.74,107.77,67,106.66c-6-1.89-1.9-8-5.46-9.81-3.2-1.32-1.77-5,1.77-5.42l-3.85-3c-1,0-2,2.28-3.51-.49A12.91,12.91,0,0,0,56,83.05c-2.49.74-4.67.82-6-1.22-1.51-2.29,1.81-9,2.86-16.42.58-6.42-5-7.55-3.94-13.33,1-5.62-.06-11.22,1.37-16.68,12.54-23.93,81.74,7,55.88,29.31-2.77,2.89-3.31,7.12-8.88,5.39m-39.9-6.52a28.3,28.3,0,0,0,4.79-2.72,16.93,16.93,0,0,0-5.55-1.39A5.57,5.57,0,0,0,57.38,63.58Z"/>
  </g>
  <g class="skinOverlapLine">
    <path d="M17.21,215.54a9.46,9.46,0,0,0,5.5-1.75c2.35-.3,4.34.17,6.33-.4"/>
    <path d="M4.22,229.33c3.15-1,9.72-5,16.05-7.89"/>
    <path d="M5,236c3.47-1.33,10.84-5.55,17.63-8.72"/>
    <path d="M14.3,237.82c2.73-1.07,7.48-3.87,12.37-6.06"/>
    <path d="M113.32,257a37.69,37.69,0,0,0-2.52,9"/>
    <path d="M124.15,277.18a10.52,10.52,0,0,0,2.15-3.13"/>
    <path d="M118.07,277.76a13.85,13.85,0,0,0,3.1-4.39"/>
    <path d="M111.94,277.08a9.26,9.26,0,0,0,3.11-4.25"/>
  </g>
  <g class="skinFoldLine">
    <path d="M22.71,213.79a2.59,2.59,0,0,0-.11-2.18"/>
    <path d="M20,220.51a2.56,2.56,0,0,0,.85,1.69"/>
    <path d="M22.24,226.2a5.1,5.1,0,0,0,1,2"/>
    <path d="M26.29,231a2.24,2.24,0,0,0,1.05,1.3"/>
    <path d="M97.63,55.07c.58-10,15.71-5.1,7.41,7.55"/>
    <path d="M98.23,57.82c2.91,1.2-1,6.13,1.08,6.31,1.89.16.47-2.13,3-3.45,3.39-1.77.71-7.84-2.47-5.28"/>
  </g>
  <g class="skinCreaseLine">
    <path d="M45.39,214.18a19.36,19.36,0,0,1,2.72,6.57"/>
    <path d="M27.27,217.65c3.38,2.94,7.66,3.83,12.5,3.44"/>
    <path d="M28.63,222.41a9.85,9.85,0,0,1,4.91,5.36"/>
  </g>
  <path class="lipMaleBrown__noStroke" d="M67.51,89.26l-1-2.61c-3.81.85-7.7.61-10.56,1.28,1.54,2.77,2.52.51,3.51.49l3.85,3c-3.54.46-5,4.1-1.77,5.42C64.6,96.12,66.62,92.47,67.51,89.26Z"/>
  <path class="tongue" d="M67.26,88.51a29.9,29.9,0,0,1-4.71,2.55,4.09,4.09,0,0,0,0,1.35,28.69,28.69,0,0,0,4.93-3.15Z"/>
  <path class="teeth" d="M59.46,88.42c0,1.06.75,3.11,1.47,3.15.91,0,4.73-1.93,6.33-3.06a16.43,16.43,0,0,0-.75-1.86A36.2,36.2,0,0,1,59.46,88.42Z"/>
  <g class="lipEdgeLine">
    <path d="M62.58,92.41a8,8,0,0,1-1,.28"/>
    <path d="M61.54,96.85a7.43,7.43,0,0,0,3.94-3"/>
  </g>
  <path class="cheekLine" d="M59.51,76.67c3.5,6.77,6.35,6.2,8.32,13.74"/>
  <path class="noseLine" d="M53.38,82.35c2.3-2.26,8.06,1.28,7-4.13"/>
  <g class="eyeLidLine">
    <path d="M56.62,59.47c-2.17,0-1.08-1.43-1.26-3.3"/>
    <path d="M57.38,63.58c-1.53,1.27.44,2.88,2.41,2.2"/>
  </g>
  <path class="eyeCornerLine" d="M62.17,60.86a10.27,10.27,0,0,0,2.73.23"/>
  <path class="eyeCreaseLine" d="M61.42,59.62a12.2,12.2,0,0,0-6.17-1.16"/>
  <path class="eyebrowBlack" d="M50.76,52c2.06-.76,4.06-3,7.92-3.26,1.86-.12,5.84,3,5.92,4.55s-3,.45-5,.29c-3.59-.29-5.33,1.6-6.88,1.16S49.19,52.57,50.76,52Z"/>
  <path class="hairBlack" d="M95.89,53.37c-5.56.9.14,14.7-.73,17.63S91,74,87,74.56c.57-4.27-.2-8.11-.58-12.73-.5-6-1-11.19-3-12.21C72.68,41.53,70.61,46,68.77,30.6,63.4,29.1,52.69,32,50.28,35.4c-3.57-2-4.8,7.29-1.5,13.9-3.55-3.65-4.33-13.85-2-15.35-7.24-5.8-6.12-21.88,1.27-27.65C53.7,1.9,59.13,4.16,68.79,1.13c6.58-2.06,11.86.16,17,.1,10-.13,11.29,2.58,15.48,3.89C108.47,7.38,113,12.28,114.1,18.4c8.68,4.08,12.17,18.8,11.94,26.85-.6,20.94-12.52,24-6.69,28.84-4,1.09-10.36-4-13.19-9.38,4.74-4.62,4-14.18-.18-16.61C101.61,45.54,96.69,47.29,95.89,53.37Z"/>
  <g class="hairOverlapLine">
    <path d="M46.78,34a1.94,1.94,0,0,1,2-.35"/>
    <path d="M114.1,18.4c-5.33-1.81-33,1.81-43.68,11.46"/>
  </g>
</svg>
