<svg viewBox="0 0 420.69 309.06">
  <g class="leg">
    <path d="M176.86,267.38c3-.68,3.8-.15,3.61,3.79-.14,3.66.24,11.49,1.79,16.09,1,2.72.88,4.84-.49,5.22a3.46,3.46,0,0,1,1.8,2.75c.39,2.38,4.08,3.42,6.85,4,3.68.65,4.63,2.82,4.39,5.66-1-.91-1.84-1.4-3-.76a2.79,2.79,0,0,1-2.55.24,4,4,0,0,1-1.64,3.5c-.93-1.72-1.3-2-2.61-1.12-1.08.71-2.35,0-3.52-1.54-1.74-2.16-3.47-2.67-5.05-1.74a3.17,3.17,0,0,1-3.35.45c-1-.3-1.41.34-2.23,1.12-.86-2.46,0-5,2.53-5.44,2.85-.39,3.78-1.71,3.65-3.95a3,3,0,0,1,1.47-2.87c-1.37-.59-2.09-2-2-4.35a58.73,58.73,0,0,0-1.69-16.28C173.72,268.4,174.89,267.86,176.86,267.38Z"/>
    <path d="M155.28,268c2.75.36,2.94,1.7,2.06,4.48a67.2,67.2,0,0,0-2.69,15.47c0,2.73-.39,4.82-2.2,4.75,1.56.67,1.42,2,1.58,3.22a3.74,3.74,0,0,0,3.07,3.63c2.51.76,3.88,3.12,3.91,6a2.64,2.64,0,0,0-2.63-.52c-1.92.62-3,0-4.27-1.17-1.77-1.36-3.75-1.44-5.18-.27-2.86,2.47-6.05,3.46-7.87,2.82-3.19-1.28-5.14.09-6.24,1.5a5.82,5.82,0,0,1,.89-4,2,2,0,0,0-1.1.83,5.77,5.77,0,0,1,5-6c3.88-.41,6.23-.79,7.31-3.43a5.17,5.17,0,0,1,2.59-3.1c-1.9-.51-1.15-3.09-.36-5.15a58.58,58.58,0,0,0,2.58-15.79C151.71,268.43,152.6,267.64,155.28,268Z"/>
  </g>
  <g class="bodyOverlapLine">
    <path d="M183.68,298.43c1,2.95,5,2.09,5.55,5.9"/>
    <path d="M135.71,303.9c3.55-4.68,5.24-.68,11.11-5.13"/>
    <path d="M181.77,292.48a6.85,6.85,0,0,1-3.29.26"/>
    <path d="M152.45,292.69a8.47,8.47,0,0,1-3.2-.5"/>
  </g>
  <path class="body" d="M155.07,188.52c19.58-2.65,33.28,5.41,39,23.13,5.81,16.72,4,31.18-5.59,43.59a21,21,0,0,0-3.12,5.54c-.94,2.7-3.29,4.22-4.84,2.54-1.08,2.1-5.19,2.38-6.69.11a3.83,3.83,0,0,1-6.81-.57,11.08,11.08,0,0,1-5.65.11c-.3,2.17-3.49,3.46-5.08,1.62a3.8,3.8,0,0,1-5.77-.35c-1.92,1.23-5-.3-5.88-2.31a31.12,31.12,0,0,0-4.61-8.07c-9.65-12.12-12.11-26.82-9.13-43.47C133.42,197.94,142.19,190.46,155.07,188.52Z"/>
  <path class="train" d="M138.84,252.3a13.94,13.94,0,0,1-8,5.64c-8,2.82-6.4,6-13.36,7.68-7.62,2.11-7.12,6.55-15.64,7.68-8.09,1.28-6.57,3.05-13.65,3.55-9.91,1.28-6.86,3-15.78,2.85-6.16.06-7.06,3.25-14.5,1.85-5.81-1.28-7.78,1-14.65-2.28-5.44-3.21-8.09-.89-13.5-7.53-3.54-4.35-6-1.22-10-9.53-2-4.89-5-4.12-6-11.37-.48-6.27-3.13-5.05-4.12-13.08-.7-6.32-4.08-6.8-4.41-16.92-.24-6-3.6-8.27-2.27-17.49C4,198.56.6,195.07,1.79,188.28c1-5-3-10.7-.43-16.78,2.09-4.56-1.65-6.48.86-16.35,2.24-7-.86-9.53,4-19.9,3.24-5.4,0-6.36,7.25-15.92,4-5,2.62-7.94,10-15.93,4.65-5.68,2.56-9.26,11-17.06,6.32-6.08,6.31-16,22.32-25.59C67.17,55,62.22,52.05,73.73,47c9-3.79,8-8.23,18.41-12.16,6.52-2.35,5.71-8.75,18.27-12.15,9.25-2.18,10.26-10.67,25.3-11.37,11.85-.7,9.82-6.78,24.46-5.41,12,1.92,14.27-5.43,26.3-3.55,11.81,2.3,9.9-4.8,26.87-.28,10.55,2.84,11.31-3.5,26,.56C250.26,6.14,255,.06,266.23,6.87c11.55,5.49,17-2.5,27.72,5.26,7.92,6.31,15.53,2.52,23.44,11.17,5.65,6.44,16.7,2.7,24.22,16,3.25,7.88,13.52,4.26,18.59,18.9,3.29,11.23,14.45,7.93,18.77,24.46,5.19,13.78,13.56,6.29,17.77,24.74,3,11.23,13.29,11.61,13.93,27.29.19,7.15,8,13.1,6.26,25.74-1.7,10.44,6.41,15.64,1.85,31.13-4.19,12.27,4.08,13.55-1.57,26.44-6.27,13.11-1.6,24.13-14.92,33.41-7,4.92-5.7,12.27-17.35,17.78-8.51,3.88-7.62,11.74-18.06,15.49-9.47,3.35-8.2,8.29-19.9,9.39-7.51.61-11.38,5.5-21.75,2.7-8.45-2.47-11.44,1.78-24-2.42-8.21-2.64-10.87,2.3-21.89-3.41-8.38-4.05-13.07-.25-22.32-5.69-7.26-4.34-11.42-1.28-19.48-7.39-6.39-4.79-11.34-2.76-18.06-8-6.09-5.08-9-2-14.07-7.54-5.08-5.9-8.63-4.26-11.94-10.38-4.17-7.95-8.61-7.06-10.53-13.79-2.13-7.47-7.46-6.71-7.39-15.64.06-7.94-2.73-8.19-1.35-11.63,10.08-7.65,7.89-20-4-22.11-21.78-2.44-35.27,4.29-39.22,21.59C127.83,225.9,130.21,240,138.84,252.3Z"/>
  <path class="trainTop" d="M189.46,144.33c2.55.32,5.76-.75,7.39,3.28.91,3.76,6,1,6.16,7,.26,4.92,4.39,5.32,1.8,10.34-2.11,4.15,2.59,5.65-1.49,9.89-2.43,2.66,2.51,6-2.74,9.8-2,1.41,1.1,6-3.92,8.23-2.67,1.25.55,6.43-6.59,8.86-3,.94.4,5.8-6.74,7.21-2.82.47-2.43,3.92-7.44,2.43a8.06,8.06,0,0,0-1.72-.51c2.34-5.27-2-4.78.52-10.34,1.28-3.22-1.43-3.92-.67-7.37.5-2.67-2.38-4.06-3.9-4.4l-11.25-30.69c1-3.58,1.07-7.07,5.49-7.92,2.45-.38,1.28-6.72,9.06-5.6,4.27.43,6.54-6.47,13.84-1.24A3.61,3.61,0,0,0,189.46,144.33Z"/>
  <g class="trainLightLine">
    <path d="M375.13,248.59a247.42,247.42,0,0,0-41.24-18.06"/>
    <path d="M391.7,202.86c-25.08-4.93-48.83-7.6-70.51-6.72"/>
    <path d="M401.39,146.89a165.07,165.07,0,0,0-41.59,12"/>
    <path d="M364.81,114.53a262.46,262.46,0,0,0-55.5,29.24"/>
    <path d="M342.45,77.32c-9.14,5.87-17.6,11.75-25.17,17.67"/>
    <path d="M317.75,35.42a232.21,232.21,0,0,0-32.52,31"/>
    <path d="M262.25,18.07a169.38,169.38,0,0,0-20.79,38.3"/>
    <path d="M205.19,35a291.28,291.28,0,0,0-3.91,32.68"/>
    <path d="M160.79,20Q165.61,40,171.42,59"/>
    <path d="M121.86,43.71c7.87,13.32,15.16,27,22,41"/>
    <path d="M92,74.18a189.87,189.87,0,0,1,15.18,15.45"/>
    <path d="M30.8,126.82A134.67,134.67,0,0,1,53.43,133"/>
    <path d="M67.85,168.27a242.88,242.88,0,0,0-38.36-5.12"/>
    <path d="M43.67,191.62a81,81,0,0,0-21.44,4.76"/>
    <path d="M55,94.39a264,264,0,0,1,26.9,19.86"/>
  </g>
  <g class="eyespotOuter">
    <path d="M180,80.86c-.36,5.18,2.5,7.91,5.67,8.13s6.37-2.08,6.74-7.26-2.29-10.83-5.46-11S180.4,75.68,180,80.86Z"/>
    <path d="M146.82,62.69c1,4.38,4.1,5.88,6.78,5.25s4.72-3.37,3.68-7.74-4.69-8.35-7.37-7.71S145.78,58.32,146.82,62.69Z"/>
    <path d="M129,25.22c1.63,3.88,4.68,4.81,7.05,3.82s3.85-3.82,2.23-7.7-5.59-7-8-6S127.38,21.34,129,25.22Z"/>
    <path d="M100.42,59.57c2.33,3.59,5.56,4,7.75,2.56s3.18-4.53.86-8.12-6.86-6-9.06-4.58S98.1,56,100.42,59.57Z"/>
    <path d="M51.4,80.63c3.06,2.6,6.07,2.07,7.65.19s1.63-4.92-1.44-7.52-7.79-3.53-9.38-1.65S48.33,78,51.4,80.63Z"/>
    <path d="M205.59,104.18c-.87,4.83,1.53,7.68,4.48,8.22s6.21-1.3,7.08-6.13-1-10.4-4-10.94S206.47,99.35,205.59,104.18Z"/>
    <path d="M130.61,104.36c2,4.41,5.51,5.39,8.21,4.18s4.31-4.51,2.33-8.92-6.64-7.86-9.33-6.65S128.62,100,130.61,104.36Z"/>
    <path d="M90.19,104.93c2.77,3.34,6.06,3.34,8.1,1.65s2.66-4.93-.11-8.27-7.62-5.22-9.66-3.52S87.43,101.59,90.19,104.93Z"/>
    <path d="M47.8,116.06c3.59,2.43,6.75,1.51,8.24-.69s1.16-5.48-2.43-7.9-8.78-2.87-10.26-.68S44.21,113.63,47.8,116.06Z"/>
    <path d="M97.74,149.84c3.7,2.5,7,1.55,8.49-.72s1.2-5.63-2.5-8.14-9-2.95-10.57-.69S94,147.34,97.74,149.84Z"/>
    <path d="M62.16,155.52c3.94,1.8,6.9.38,8-2s.26-5.58-3.67-7.39-9.11-1.4-10.22,1S58.23,153.71,62.16,155.52Z"/>
    <path d="M16.78,147.61c4.24.84,6.8-1.22,7.32-3.82s-1.05-5.49-5.29-6.33-9.18.74-9.7,3.33S12.54,146.76,16.78,147.61Z"/>
    <path d="M246.43,125.4c-3.06,3.62-2.43,7.16-.21,9s5.8,1.9,8.86-1.71,4.15-9.2,1.94-11.07S249.49,121.79,246.43,125.4Z"/>
    <path d="M281.83,91.07c-3.44,3.26-3.2,6.85-1.21,9s5.57,2.54,9-.72,5.14-8.68,3.15-10.78S285.27,87.82,281.83,91.07Z"/>
    <path d="M336,99.66c-4.37,2.07-5.27,5.63-4,8.3s4.61,4.22,9,2.14,7.73-6.81,6.46-9.48S340.39,97.58,336,99.66Z"/>
    <path d="M283.59,127.94c-4.14,2.51-4.67,6.14-3.14,8.67s5,3.73,9.14,1.22,7-7.56,5.46-10.09S287.72,125.43,283.59,127.94Z"/>
    <path d="M333.45,140.58c-4.67,1.25-6.19,4.59-5.42,7.45s3.76,5,8.43,3.72,8.83-5.31,8.06-8.17S338.12,139.32,333.45,140.58Z"/>
    <path d="M389.28,123.54c-4.36,1.18-5.79,4.3-5.07,7s3.52,4.65,7.89,3.48,8.25-5,7.53-7.64S393.65,122.36,389.28,123.54Z"/>
    <path d="M243.75,156.79c-3.9,2.37-4.4,5.79-2.95,8.17s4.71,3.51,8.61,1.14,6.59-7.12,5.14-9.5S247.64,154.42,243.75,156.79Z"/>
    <path d="M278.16,161.39c-4.65,1.41-6.08,4.82-5.21,7.66s3.95,4.88,8.6,3.46,8.69-5.62,7.83-8.46S282.81,160,278.16,161.39Z"/>
    <path d="M210.84,164.17c-3,2.78-2.88,5.9-1.18,7.75s4.79,2.28,7.82-.49,4.59-7.45,2.89-9.31S213.87,161.4,210.84,164.17Z"/>
    <path d="M231.05,181c-4,1.62-5,4.75-4,7.2s3.88,4,7.89,2.4,7.28-5.65,6.29-8.1S235.06,179.42,231.05,181Z"/>
    <path d="M256.74,191.53c-4.31.4-6.16,3.1-5.92,5.74s2.55,5,6.86,4.57,8.59-3.33,8.35-6S261.05,191.14,256.74,191.53Z"/>
    <path d="M291.32,207c-4.59-.05-6.84,2.61-6.87,5.42s2.16,5.52,6.75,5.57,9.44-2.58,9.47-5.39S295.92,207,291.32,207Z"/>
    <path d="M315.28,177.86c-5.16-.06-7.69,2.92-7.72,6.08s2.43,6.19,7.58,6.24,10.58-2.89,10.62-6S320.43,177.91,315.28,177.86Z"/>
    <path d="M378.53,175.38c-4.77-.36-7.29,2.26-7.51,5.18s1.89,5.88,6.66,6.23,10-2.06,10.2-5S383.3,175.73,378.53,175.38Z"/>
    <path d="M349.43,208.75c-4.62-1.27-7.6.83-8.37,3.65s.73,6.14,5.35,7.41,10.21-.12,11-2.95S354.05,210,349.43,208.75Z"/>
    <path d="M401.29,226.42c-4.15-1.63-7.12,0-8.12,2.55s.06,5.76,4.21,7.39,9.46.92,10.46-1.62S405.44,228.06,401.29,226.42Z"/>
    <path d="M262.63,224.28c-4.55-1.27-7.5.77-8.27,3.55s.68,6.06,5.23,7.33,10.06-.06,10.83-2.84S267.18,225.55,262.63,224.28Z"/>
    <path d="M314.32,237.9c-4.55-1.7-7.75.13-8.79,2.91s.17,6.26,4.71,8,10.31.83,11.35-1.95S318.86,239.61,314.32,237.9Z"/>
    <path d="M357.48,259.7c-4.27-2.74-7.93-1.58-9.61,1s-1.22,6.42,3,9.17,10.33,3.13,12,.52S361.74,262.45,357.48,259.7Z"/>
    <path d="M233.92,206.87c-4.07.33-5.85,2.87-5.64,5.35s2.36,4.71,6.43,4.38,8.13-3,7.93-5.54S238,206.54,233.92,206.87Z"/>
    <path d="M208,200.33c-4.08,0-6.06,2.38-6.07,4.87s2,4.88,6.05,4.89,8.36-2.36,8.36-4.86S212.09,200.34,208,200.33Z"/>
    <path d="M207.4,233.91c-3.1-1.84-5.68-.93-6.81,1s-.71,4.6,2.39,6.45,7.42,2,8.55.08S210.49,235.76,207.4,233.91Z"/>
    <path d="M231.67,229.71c-3.79-1.22-6.34.41-7.09,2.73s.38,5.12,4.17,6.34,8.48.28,9.23-2S235.46,230.93,231.67,229.71Z"/>
    <path d="M242,257.43c-4.26-1.37-7.13.46-8,3.07s.43,5.76,4.69,7.13,9.54.32,10.38-2.29S246.23,258.8,242,257.43Z"/>
    <path d="M282,255.86c-4-1.66-6.85-.16-7.87,2.26s-.07,5.55,3.89,7.22,9.08,1.1,10.1-1.33S285.92,257.53,282,255.86Z"/>
    <path d="M316,278.83c-3.45-2-6.27-.88-7.46,1.23s-.67,5.08,2.79,7,8.22,2,9.41-.13S319.46,280.78,316,278.83Z"/>
    <path d="M335.42,49.68c-3.59,2.52-3.86,5.84-2.32,8s4.75,3.07,8.34.55,5.87-7.25,4.33-9.44S339,47.16,335.42,49.68Z"/>
    <path d="M216.4,59c-1,4.81,1.35,7.72,4.29,8.32s6.23-1.15,7.21-6-.79-10.43-3.73-11S217.38,54.16,216.4,59Z"/>
    <path d="M227.72,12.25c-1,4,.87,6.44,3.29,7s5.2-.76,6.16-4.72-.33-8.66-2.75-9.25S228.68,8.3,227.72,12.25Z"/>
    <path d="M181.14,33c-.49,4.87,2.12,7.52,5.09,7.81s6.06-1.77,6.55-6.64S190.94,23.91,188,23.61,181.62,28.13,181.14,33Z"/>
    <path d="M179.7,127.69c-.19,4.38,2.28,6.6,5,6.72s5.32-1.89,5.51-6.27-2.17-9.06-4.84-9.17S179.89,123.32,179.7,127.69Z"/>
    <path d="M132.2,145.92c2.58,3.54,5.9,3.74,8.06,2.16s3-4.8.39-8.33-7.35-5.73-9.51-4.15S129.62,142.39,132.2,145.92Z"/>
    <path d="M118.65,178.25c3.65,2.11,6.65,1,7.95-1.23s.76-5.39-2.9-7.51-8.71-2.19-10,0S115,176.13,118.65,178.25Z"/>
    <path d="M87.16,184.65c4.09,1,6.68-.86,7.31-3.36s-.75-5.39-4.84-6.43-9,.28-9.61,2.78S83.07,183.61,87.16,184.65Z"/>
    <path d="M66.25,208.57c4.33-.29,6.26-3,6.09-5.6s-2.44-5.05-6.77-4.77S56.87,201.31,57,204,61.92,208.85,66.25,208.57Z"/>
    <path d="M37.44,183.9c4.38.42,6.76-1.94,7-4.61s-1.62-5.45-6-5.88-9.22,1.7-9.48,4.37S33.06,183.47,37.44,183.9Z"/>
    <path d="M116.17,205.85c3.76.49,5.87-1.47,6.17-3.77s-1.24-4.74-5-5.23-8,1.2-8.29,3.5S112.4,205.36,116.17,205.85Z"/>
    <path d="M92.24,226.9c4-.32,5.75-2.81,5.56-5.26s-2.32-4.63-6.32-4.31-8,3-7.82,5.43S88.24,227.22,92.24,226.9Z"/>
    <path d="M81.53,253.63c4-1.89,4.76-5.12,3.61-7.53S81,242.29,77,244.18s-7,6.18-5.83,8.6S77.58,255.52,81.53,253.63Z"/>
    <path d="M45.84,241.44c4-1.66,5-4.81,4-7.28s-3.93-4-8-2.36-7.28,5.74-6.27,8.2S41.81,243.09,45.84,241.44Z"/>
    <path d="M17.33,219.57c3.77-1.23,4.87-4,4.12-6.34s-3.3-3.91-7.07-2.68-7,4.72-6.24,7S13.56,220.8,17.33,219.57Z"/>
    <path d="M50.29,275c3.44-1.35,4.31-4,3.49-6.11s-3.27-3.45-6.71-2.11-6.24,4.76-5.42,6.86S46.86,276.31,50.29,275Z"/>
    <path d="M116.22,235.42c3.31-.93,4.37-3.32,3.8-5.35s-2.73-3.51-6-2.58-6.24,3.86-5.67,5.89S112.9,236.36,116.22,235.42Z"/>
    <path d="M108.18,258.08c3.45-1.27,4.38-3.9,3.61-6s-3.19-3.51-6.63-2.24-6.33,4.6-5.56,6.71S104.73,259.34,108.18,258.08Z"/>
    <path d="M216.36,133.49c-2,3.91-.62,6.95,1.78,8.15s5.62.45,7.58-3.46,1.72-9.16-.67-10.36S218.32,129.58,216.36,133.49Z"/>
    <path d="M240.92,88.78c-2.3,4.29-.91,7.72,1.71,9.13s6.25.68,8.56-3.61,2.21-10.14-.42-11.55S243.22,84.49,240.92,88.78Z"/>
    <path d="M264,51.62c-3.06,3.79-2.33,7.41,0,9.29s6,1.82,9.08-2,4.05-9.54,1.74-11.42S267,47.83,264,51.62Z"/>
  </g>
  <g class="eyespotInner">
    <circle cx="186.19" cy="81.96" r="3.53"/>
    <circle cx="152.18" cy="62.01" r="3.06"/>
    <circle cx="133.85" cy="23.78" r="2.86"/>
    <circle cx="105.02" cy="57.25" r="2.91"/>
    <circle cx="54.9" cy="77.3" r="2.73"/>
    <circle cx="211.26" cy="105.85" r="3.34"/>
    <circle cx="136.13" cy="102.56" r="3.28"/>
    <circle cx="94.54" cy="102.05" r="2.95"/>
    <circle cx="51.17" cy="112.08" r="2.95"/>
    <circle cx="101.21" cy="145.73" r="3.04"/>
    <circle cx="64.83" cy="151.05" r="2.94"/>
    <circle cx="18.34" cy="142.64" r="2.94"/>
    <circle cx="250.36" cy="129.53" r="3.22"/>
    <circle cx="285.29" cy="95.61" r="3.22"/>
    <circle cx="337.94" cy="105.15" r="3.29"/>
    <circle cx="286.06" cy="133.21" r="3.29"/>
    <circle cx="334.36" cy="146.32" r="3.29"/>
    <circle cx="390.13" cy="128.91" r="3.07"/>
    <circle cx="246.07" cy="161.75" r="3.1"/>
    <circle cx="279.25" cy="167.13" r="3.3"/>
    <circle cx="213.77" cy="168.16" r="2.79"/>
    <circle cx="232.46" cy="186.04" r="2.94"/>
    <circle cx="256.65" cy="196.74" r="2.94"/>
    <circle cx="290.67" cy="212.45" r="3.12"/>
    <circle cx="314.54" cy="184.01" r="3.5"/>
    <circle cx="377.49" cy="181.04" r="3.25"/>
    <circle cx="347.33" cy="214.11" r="3.26"/>
    <circle cx="398.8" cy="231.18" r="3.03"/>
    <circle cx="260.52" cy="229.55" r="3.21"/>
    <circle cx="311.69" cy="243.12" r="3.3"/>
    <circle cx="353.64" cy="264.45" r="3.45"/>
    <circle cx="233.79" cy="211.78" r="2.77"/>
    <circle cx="207.47" cy="205.21" r="2.77"/>
    <circle cx="204.79" cy="237.38" r="2.45"/>
    <circle cx="229.72" cy="234.09" r="2.71"/>
    <circle cx="239.77" cy="262.36" r="3.05"/>
    <circle cx="279.46" cy="260.38" r="2.92"/>
    <circle cx="313.22" cy="282.71" r="2.7"/>
    <circle cx="337.96" cy="54.3" r="2.98"/>
    <circle cx="222.02" cy="60.77" r="3.34"/>
    <circle cx="232.32" cy="13.92" r="2.77"/>
    <circle cx="186.89" cy="34.21" r="3.33"/>
    <circle cx="184.91" cy="128.48" r="2.97"/>
    <circle cx="136.76" cy="143.29" r="2.97"/>
    <circle cx="121.65" cy="174.15" r="2.87"/>
    <circle cx="88.92" cy="179.89" r="2.87"/>
    <circle cx="66.47" cy="203.35" r="2.95"/>
    <circle cx="38.52" cy="178.71" r="2.99"/>
    <circle cx="117.24" cy="201.41" r="2.58"/>
    <circle cx="92.37" cy="222.07" r="2.73"/>
    <circle cx="79.78" cy="248.66" r="2.98"/>
    <circle cx="44.38" cy="236.4" r="2.96"/>
    <circle cx="16.34" cy="214.9" r="2.7"/>
    <circle cx="49.13" cy="270.69" r="2.51"/>
    <circle cx="115.53" cy="231.34" r="2.34"/>
    <circle cx="107.11" cy="253.79" r="2.5"/>
    <circle cx="220.79" cy="136.34" r="2.97"/>
    <circle cx="245.76" cy="92.09" r="3.31"/>
    <circle cx="268.09" cy="55.77" r="3.31"/>
  </g>
  <path class="neckBottom" d="M156.91,158.87c4.1,0,6.33,2.25,7.24,6.15a200.33,200.33,0,0,0,5.55,19.29c1.22,3.65.54,6.09-2.3,8.05-8.12,5.35-15.43,6.09-22.4,4.06-3.65-1.08-6.23-4.06-6.16-7.58.14-7.17,1-14.48.61-21.11-.2-4.6,2-7.47,5-8A74.36,74.36,0,0,1,156.91,158.87Z"/>
  <path class="neckTop" d="M161.58,132.1c2.21.93,2.92,2.52,2.25,4.81-1.61,5.86-2.44,13.17-3.22,20-.28,3.47-1.34,5.27-3.8,5.22-5.43-.23-11.62-2.42-14.71-4.76-2-1.76-1.64-4.24-.25-6.73a105.73,105.73,0,0,0,7.69-17.13c.92-2.8,2.05-3,4.26-3A21.43,21.43,0,0,1,161.58,132.1Z"/>
  <g class="bodyLightLine">
    <path d="M159.72,163.93a19.57,19.57,0,0,1-16.36,1.12"/>
    <path d="M161,134.44a21.65,21.65,0,0,1-8.31-1.86"/>
    <path d="M139.64,200.62c8.8,4,22.28,3.59,30.34-2,2.67-1.84,4.22-4.67,3-7.19"/>
  </g>
  <g class="bodyDisplayLine">
    <path d="M165.85,109.73a50.15,50.15,0,0,0,6-8.07"/>
    <path d="M174.42,104.88a48.05,48.05,0,0,1-7,6.71"/>
    <path d="M168.39,113.3a64,64,0,0,1,8.92-3.86"/>
    <path d="M169.14,115.28a70.27,70.27,0,0,1,9.54-.82"/>
  </g>
  <path class="mouth" d="M151.6,117.69a18.24,18.24,0,0,0-3.55-4.39,10.45,10.45,0,0,1-4.69,6.72c-3.77,2.27-6.64,4.32-8.36,7.31a24.63,24.63,0,0,1,6.94-3.1c2.62-1.09,6.45-.94,8.69-2.28C152.33,120.85,152.51,119.82,151.6,117.69Z"/>
  <path class="beak" d="M156.85,121.38c.66-1.53,1-3.06-.81-6.67a28.3,28.3,0,0,0-7.34-8,12.88,12.88,0,0,0-8.06-.71,16.63,16.63,0,0,0-7.1,3.51c8.06-.91,14.18,1.64,18.06,8.22.91,2.13.73,3.16-1,4.26-2.24,1.34-6.07,1.19-8.69,2.28a14.92,14.92,0,0,1,3.59.74C150.31,124.89,155.92,123.37,156.85,121.38Z"/>
  <path class="head" d="M167.7,112c-3.1-4.9-9.37-7-14.36-6a35.26,35.26,0,0,1-4.64.66,28.3,28.3,0,0,1,7.34,8c1.81,3.61,1.47,5.14.81,6.67-.93,2-6.54,3.51-11.32,3.59a32.58,32.58,0,0,1,5.7,2.46,13.38,13.38,0,0,0,14.46-1.18C169.87,123.08,170.94,117.45,167.7,112Z"/>
  <path class="crest" d="M173.49,97.68a2.17,2.17,0,0,1,2.84,1.75,1.58,1.58,0,0,1,1.75,2.13,2.5,2.5,0,0,1,1.91,3.06,2.11,2.11,0,0,1,1.64,2.84,1.93,1.93,0,0,1,1.2,2.78c1.07.72,1,3-.06,3.44,1.66,1.81-.18,3.62-2.45,2.74-2-.81-2.06-3.12-1.15-5a4.58,4.58,0,0,1-2.24-4.76c-1.87-.36-3.44-2.55-3.11-4.2a3.83,3.83,0,0,1-3.45-3.88C170.79,96.58,172.72,95.66,173.49,97.68Z"/>
</svg>
