<svg viewBox="0 0 14.23 44.42">
  <path class="skinEastAsian" d="M9.23,30.33C9.18,34,9,37.68,8.6,41.31l-6-.1c-.06-3.57-.39-7.16-.82-11.08Z"/>
  <path class="christopherShoe" d="M11.31,43.21c.33-1.56-.9-2.58-2.67-2.9a3.42,3.42,0,0,1-3.19-.06,2.88,2.88,0,0,1-2.75-.06,2.3,2.3,0,0,0-1.19,3c.27.8,3.07.75,4,.32C6.29,44,11.08,44.19,11.31,43.21Z"/>
  <path class="christopherShorts" d="M.66,25.3a18.91,18.91,0,0,0,.47,5.32,2,2,0,0,0,2.33.32c1.26,1.34,6.06.58,6.91-.31.22-.87-.31-3.45-.15-5.12Z"/>
  <path class="christopherShirt" d="M5.7,11.89c-2.95,1.18-3.59,3.16-4.53,6.5A27.65,27.65,0,0,0,.51,25.3c1,1.24,8.39,1.75,9.36.67a23.25,23.25,0,0,1-.35-4.49,5.35,5.35,0,0,0,2.8-.75,11.38,11.38,0,0,0-.76-5C10.62,13.73,9.08,12.34,5.7,11.89Z"/>
  <g class="clothesOverlapLine">
    <path d="M5.45,40.25c-.88.83-.88,3,0,3.28"/>
    <path d="M8.83,21.47c-.6.07-.49-1.85-.52-3.08"/>
    <path d="M3.46,30.94a1.86,1.86,0,0,1-.34-1.33"/>
  </g>
  <g class="skinEastAsian">
    <path d="M12.5,6a11,11,0,0,0-.21,2.54,4.17,4.17,0,0,1-3.07,4,4.88,4.88,0,0,1-5.28-1.92C3.85,2.67,6.52-.14,12.5,6Z"/>
    <path d="M11.84,21c0,1.61,0,4.47.49,5.1.63.91,1.06,1.14,1.34,2.14s-.21,2.39-1.3,2.58A2.14,2.14,0,0,1,10,29.14c-.18-.72.26-1.33.08-2.11a28.67,28.67,0,0,1-1.28-5.56A7.09,7.09,0,0,0,11.84,21Z"/>
  </g>
  <path class="skinOverlapLine" d="M5,31.59c.31,2.81.4,5.63.47,8.66"/>
  <path class="hairBlack" d="M10,8.15A5.09,5.09,0,0,1,5,12C3,11.88,1.47,9.74,1.27,6.77,1.11,3.4,2.7.71,7,.51,10.39.35,14,2.09,13,5.74,12.52,7.44,11.71,8.15,10,8.15Z"/>
</svg>
