<svg viewBox="0 0 16.24 49.64">
  <path class="skinEastAsian" d="M11.23,45.28c.5-3.33.83-6.73,1-10.18L3.68,35a91,91,0,0,0,.71,10.12C6.87,47.44,9.15,47.54,11.23,45.28Z"/>
  <path class="anitaShoe" d="M13,48.39a2.49,2.49,0,0,0-1.78-3.11,3.42,3.42,0,0,1-3.29-.06,3.37,3.37,0,0,1-3.55-.07,2.93,2.93,0,0,0-1.61,3.24c.25.85,4.24.8,5.06.34C8.58,49.24,12.8,49.43,13,48.39Z"/>
  <path class="anitaDress" d="M13.19,14.47c1,.88.5,7.48-.46,9.3,1,2,1.79,7.3,1.44,11.74-1.26,1.22-11,1.11-12.41.05,0-4.39.51-10.06,1.78-11.84-.86-1.95-1.39-8.55-.35-9.4C5.18,13,11,13,13.19,14.47Z"/>
  <path class="clothesOverlapLine" d="M7.94,45.22c-.52.79-.76,3.27-.1,3.51"/>
  <path class="clothesDisplayLine" d="M12.73,23.77c-1.62,1-7.73.92-9.19-.05"/>
  <g class="skinEastAsian">
    <path d="M10.54,10.21a10.09,10.09,0,0,0-.17,3.32,9.85,9.85,0,0,1-4.25-.07A10.57,10.57,0,0,0,6,10.18Z"/>
    <path d="M15.18,28.76c.42-4.91.1-11-.85-12.85a2.24,2.24,0,0,0-1-1.21c.77,1.46.26,7.36-.64,9.07.91,1.86,1.69,6.63,1.49,10.88a1.79,1.79,0,0,0,1.18-.95C16.28,31.22,15.2,30.67,15.18,28.76Z"/>
    <path d="M3.54,23.72c-.79-1.78-1.29-7.44-.59-9a2.11,2.11,0,0,0-1,1.24C1,17.76.65,23.85,1.06,28.76,1,30.67,0,31.22.85,33.7a1.75,1.75,0,0,0,.92.87C1.84,30.35,2.36,25.37,3.54,23.72Z"/>
  </g>
  <line class="skinOverlapLine" x1="7.94" y1="45.22" x2="7.89" y2="36.35"/>
  <path class="hairBlack" d="M3.24,5.79c0,3.36,2.24,5.7,4.92,5.7S13,9.22,13,5.86,11.22.5,8.1.5,3.24,2.43,3.24,5.79Z"/>
  <g class="hairBlackDark">
    <path d="M5.77,3.44c-.11-1.28-.43-2.21-1.43-2.21-1.25,0-2.18.53-2.57,2.43A16,16,0,0,0,2,9.77,4.88,4.88,0,0,0,4,12.71a6.22,6.22,0,0,1,.91-2.28C5.72,8.91,5.91,4.69,5.77,3.44Z"/>
    <path d="M10.73,3.44c.11-1.28.43-2.21,1.43-2.21,1.25,0,2.18.53,2.56,2.43a15.81,15.81,0,0,1-.17,6.11,4.88,4.88,0,0,1-2.07,2.94,6.22,6.22,0,0,0-.91-2.28C10.78,8.91,10.59,4.69,10.73,3.44Z"/>
  </g>
</svg>
