<svg viewBox="0 0 104.97 104.97">
  <path class="background" d="M13.07,12.84a3.25,3.25,0,0,1,.09.88c-.06,2.42.08,4.83.13,7.25,0,1.32,0,2.65.06,4,.2,3.38,0,6.78.1,10.16.15,3.81,0,7.61.09,11.42.17,5.88.09,11.76.06,17.65,0,3.2,0,6.41-.09,9.61-.08,2.37,0,4.75-.09,7.12-.09,1.8,0,3.61-.09,5.4-.11,1.58,0,3.15-.07,4.72,0,.1-.06.22,0,.32l-.18.14s.09-.09.13-.09a16.7,16.7,0,0,0,2.55,0c1.19-.1,2.4,0,3.6-.1s2.34,0,3.51-.09,2.34,0,3.52-.09c1.9-.12,3.81,0,5.73-.09,2.12-.13,4.25-.08,6.37-.08,8.49,0,17-.14,25.46,0,2.71.06,5.43,0,8.14.1,1.27.06,2.55,0,3.83.08,1.55.12,3.11-.06,4.67.1.9.09,1.81,0,2.73.08s2.06,0,3.09.1,1.85,0,2.78.08c1.14.11,2.31,0,3.46.15,0-.17,0-.31,0-.45,0-1.17,0-2.34.07-3.51.11-2.09,0-4.19.09-6.29C93,78.29,93,75.16,93,72c0-7.87.13-15.74-.06-23.61-.08-2.86,0-5.73-.08-8.6-.13-4.88.05-9.76-.09-14.64-.06-2-.12-4-.11-6s-.16-3.85-.1-5.78a2.11,2.11,0,0,0,0-.28c-.57,0-1.14,0-1.7-.08-1.14-.08-2.28,0-3.42-.08-2.36-.08-4.72-.13-7.07-.2-3.31-.09-6.63,0-9.94-.07-4.73-.07-9.46-.12-14.19-.11-6.5,0-13-.1-19.5.07-3.89.11-7.79-.09-11.69.1-1.74.08-3.48,0-5.22.07-2,.06-4.07.12-6.1.12-.18,0-.37,0-.51.14Z"/>
  <g class="hairDarkBrown">
    <path d="M67.88,27.63a6.27,6.27,0,0,1,6.19-3,2.85,2.85,0,0,1,.5.08c.24.09.52.16.69,0a6.33,6.33,0,0,1,1.86-.87,4.27,4.27,0,0,1,1.8-.19,4.51,4.51,0,0,1,2.77,1.12c.08.08.19.19.27.13.3-.19.56,0,.84,0A3.42,3.42,0,0,1,85.15,26a5,5,0,0,1,1.43,3.6c0,.29.07.5.34.59a3.06,3.06,0,0,1,1.67,1.57,4.66,4.66,0,0,1,.3,3.38,5,5,0,0,1-1,1.48,3.37,3.37,0,0,1,.41,2.59,4.71,4.71,0,0,1-.86,2.13,3.9,3.9,0,0,1-4.05,1.52,3.75,3.75,0,0,1-3.68,1.42c-.54-.16-1.08-.32-1.61-.5l-5-.27a5.44,5.44,0,0,1-2.59.27,4.7,4.7,0,0,1-3.1-1.43,1.42,1.42,0,0,1-.43-.74c0-.38-.28-.47-.54-.55a2.65,2.65,0,0,1-1.8-2.5Z"/>
    <path d="M24.16,45.19a5.18,5.18,0,0,1-1.74-1,11.17,11.17,0,0,1-2.37-2.53c-.08-.11-.29-.92-.41-1.2a5.15,5.15,0,0,1-.44-3.28,26.16,26.16,0,0,0,.56-3.51,5.45,5.45,0,0,0,0-1.61A4.74,4.74,0,0,1,20.23,29a9.59,9.59,0,0,1,2-2.95,10.38,10.38,0,0,1,2.93-1.92,20.66,20.66,0,0,1,3.61-.77,6.71,6.71,0,0,1,5.61,2.54,10.88,10.88,0,0,1,2.29,4.6h.14c-.17,0-.15.09-.14.19,0,.6.06,1.2,0,1.8A20.2,20.2,0,0,1,36.47,36a5.75,5.75,0,0,0,.1,2.44,3.81,3.81,0,0,1,0,1.43,5.28,5.28,0,0,1-1.74,3.07,10.15,10.15,0,0,1-3.2,1.88Z"/>
  </g>
  <g class="hairMediumBrown">
    <path d="M57.11,38a2.44,2.44,0,0,1-2.34-1.44.91.91,0,0,0-.34-.41A3.49,3.49,0,0,1,53,34.7a1,1,0,0,1-.09-.89,4.38,4.38,0,0,0,.28-1.24,8.32,8.32,0,0,0,0-2.54l.92-3.79c.44-.49.64-1.15,1.16-1.57s.76-.82,1.16-1.2a6,6,0,0,1,3.69-1.78c.51-.05,1,0,1.53-.11a4.59,4.59,0,0,1,2.08.45,7.38,7.38,0,0,1,4.06,3.47,6.57,6.57,0,0,1,.64,2.13c.09.56.26,1.1.38,1.66.19.88.3,1.78.57,2.63a3.74,3.74,0,0,1-.43,3,4.87,4.87,0,0,1-2.77,2.45Z"/>
    <path d="M50.68,33.07A7.13,7.13,0,0,0,52.49,32a6.71,6.71,0,0,0,2-4.25,6.92,6.92,0,0,0-.94-3.79c-.55-1-1.13-2.07-1.63-3.14a8.12,8.12,0,0,0-2.72-3.36A3.4,3.4,0,0,0,45.88,17a4.87,4.87,0,0,0-1,.66,2.65,2.65,0,0,0-1.76-.38,5.27,5.27,0,0,0-1.81.71A4.78,4.78,0,0,0,40,19.51a12.59,12.59,0,0,0-1.32,2.1c-.58,1.3-1.25,2.55-1.83,3.85A9.52,9.52,0,0,0,36.22,27,4.1,4.1,0,0,0,37,30.64a10,10,0,0,0,3.15,2.57C40.33,33.34,50.39,33.23,50.68,33.07Z"/>
  </g>
  <path class="skinAshkenazi" d="M71.57,46.11a6.43,6.43,0,0,0,.92-2.36c.18-.48-.22-.82-.41-1.2a11.62,11.62,0,0,1-1.36-4A16.15,16.15,0,0,1,70.79,36c.17-.83.37-1.64.51-2.47,0-.17.08-.32.32-.34A3.53,3.53,0,0,0,74.07,32a2.27,2.27,0,0,0,.73.12,4.24,4.24,0,0,0,1.9-1.23c.26.16.23.51.5.7a2.49,2.49,0,0,0,1.58.49c.41,0,.72,0,.88.47a2.5,2.5,0,0,0,1.48,1.28.79.79,0,0,1,.52.89c0,.89,0,1.79,0,2.68a12.41,12.41,0,0,1-.35,3.25,8.26,8.26,0,0,1-1.94,3.13c0,.05.56,3,.6,3.05.28.6-4.77,4.91-5.36,5.41C74.62,52.26,71.52,46.17,71.57,46.11Z"/>
  <g class="skinGallic">
    <path d="M26.47,49.85c.35-.27,4.81-4.61,4.72-4.94a5.31,5.31,0,0,1-.2-2.17.58.58,0,0,1,.2-.41,4.89,4.89,0,0,0,1.1-1.17,7.52,7.52,0,0,0,1.61-4.57c0-1.18-.26-2.34-.28-3.51,0-.84-.4-1.1-1-1.3a4,4,0,0,1-2.26-1.62c-.18-.27-.56-1-.56-1a2.36,2.36,0,0,0-.28,1.8c0,.29.32.6,0,.9a1.91,1.91,0,0,1-1-.81,7.65,7.65,0,0,1-.92-2.45,1,1,0,0,0-.24-.55,2.66,2.66,0,0,0-.42.5,11.44,11.44,0,0,1-3.08,3.16,5,5,0,0,1-1.67.6c0,.34,0,.7,0,1A10.36,10.36,0,0,1,22,35.25a10.06,10.06,0,0,0,0,3A5.88,5.88,0,0,0,23.1,41a4.9,4.9,0,0,0,.73,1,.79.79,0,0,1,.14.77,14.81,14.81,0,0,1-.78,2.92C23.13,45.79,26.47,49.85,26.47,49.85Z"/>
    <path d="M61.59,52.16a81.56,81.56,0,0,0,4.85-6.65c-.32-.54-.68-1.06-1-1.62a10,10,0,0,1-.8-2.63,1,1,0,0,1,.42-1.11,3.49,3.49,0,0,0,.8-.69A8.46,8.46,0,0,0,67.19,37a7.65,7.65,0,0,0,.24-3.33c-.08-.73-.28-1.44-.3-2.17,0-.54,0-1.71,0-1.71-.28,0-.56.06-.83-.09l-1.85-1a1.07,1.07,0,0,1-1.71-.28A5.67,5.67,0,0,1,62,26.89c-.08-.25-.31-.86-.31-.86-.19-.38-.35.51-.41.72a3.66,3.66,0,0,1-.79,1.76c-.21.2-.34.48-.7.38a1.88,1.88,0,0,1-.69-.43,1.41,1.41,0,0,0-.23.18,5.63,5.63,0,0,1-2.27,1.48c-.07,0-.76.23-.69.74,0,.3-.11.57-.1.88a20.85,20.85,0,0,1-.17,2.73,6,6,0,0,0,.29,2.76,6.21,6.21,0,0,0,1.75,2.54,2,2,0,0,1,.69,2.32,17.1,17.1,0,0,1-1.17,3.33C57,45.7,61.59,52.16,61.59,52.16Z"/>
  </g>
  <path class="skinNordic" d="M45.6,51.61c1.48-2.1,4-7.82,3.77-8.4A16.71,16.71,0,0,1,48.46,38a1.12,1.12,0,0,1,.38-.92,4.84,4.84,0,0,0,1-1.11,5.3,5.3,0,0,0,.88-1.53,31.37,31.37,0,0,0,.82-3.55c.08-.74.16-1.48.18-2.22a2,2,0,0,0-.4-1.2,18.87,18.87,0,0,0-3-3.47,2.27,2.27,0,0,0-.27,1c0,.2-.23.28-.23.28s-.18-.19-.25-.32a13.74,13.74,0,0,0-2.34-2.87s-.07,0-.18.14a13.44,13.44,0,0,1-4.21,4.44,6.16,6.16,0,0,1-.92.62c-.26.11-.38.37-.31.77a7.16,7.16,0,0,1,0,1.79c0,.24,0,.47,0,.7a8.1,8.1,0,0,0,.19,2.86,6.9,6.9,0,0,0,.61,1.52,18,18,0,0,0,1.74,2.45A2,2,0,0,1,42.7,39a4,4,0,0,1-1.58,2.68l-1.94,1.85Z"/>
  <g class="skinOverlapLine">
    <path d="M24,42.14a4.76,4.76,0,0,0,1.53.93,6,6,0,0,0,2.36.44c1.25-.09,2.18-.09,3.14-1"/>
    <path d="M65.06,40.2a5.52,5.52,0,0,1-2.87,1.33,4.92,4.92,0,0,1-4-1.19"/>
    <path d="M48.61,37.38A6,6,0,0,1,46,38.93a2.69,2.69,0,0,1-1.2.07,4.32,4.32,0,0,1-2.36-1.25"/>
    <path d="M79.29,43.85a3.39,3.39,0,0,1-2,.84,6.06,6.06,0,0,1-3-.2,7.63,7.63,0,0,1-1.76-1.25"/>
  </g>
  <path class="billyPants" d="M84.28,92.6c.18-1.14.34-2.27.42-3.42.11-1.53.36-5.69.36-6.24,0-4.25-.35-13.31-.5-13.31h-17c-.51,0-.51,0-.51.51V94Z"/>
  <path class="billyShirt" d="M72.45,47.26c.81.51.64.64,1.53,1,.1,0,1.34.46,1.34.46a10.36,10.36,0,0,0,3.22-1.48,9.82,9.82,0,0,0,1.53-1.7c1.25.57,2.51,1.12,3.75,1.71,1.07.5,2.15,1,3.18,1.58a5.36,5.36,0,0,1,1.86,1.56c.64,1,1,2.08,1.65,3.05,0,.08,0,.21-.07.33a4.89,4.89,0,0,1-.84.92,3.39,3.39,0,0,0-1.11,2l-3,15.39a6.62,6.62,0,0,1-2,1.12c-.83.4-1.76.45-2.6.8a3.44,3.44,0,0,1-.92.07,13.35,13.35,0,0,1-2,.16,8,8,0,0,1-4.71-1.42C73.13,72.81,72.05,47,72.45,47.26Z"/>
  <path class="fredPants" d="M17.78,93.89c0-.29-.09-.58-.14-.88a35.9,35.9,0,0,1-.39-3.74c0-.72,0-1.45-.07-2.17,0-.39-.12-.77-.13-1.16,0-1.22-.11-2.43-.23-3.65-.09-1-.13-2-.14-3,0-1.48,0-3,0-4.44l-.32-.09H38.16l-.78.09V95.09Z"/>
  <path class="fredShirt" d="M32.94,48.24l-1.82-3.65a6.34,6.34,0,0,1-3.08,2,2.73,2.73,0,0,1-1.76.2c-.44-.17-.83-.44-1.25-.64a2.37,2.37,0,0,1-1.41-2.23.45.45,0,0,0-.15-.33c-.4.16-.59.54-.82.85a8.09,8.09,0,0,0-1.36,2.06c-.21.54,4.92,24.27,5,25.1Z"/>
  <path class="fredSuit" d="M12.19,78a8.13,8.13,0,0,0,1.94,3.56A2.26,2.26,0,0,0,15.7,82a11.63,11.63,0,0,0,3.38-.21c.33-.09,6.23-2.17,6.56-2.4a3.31,3.31,0,0,0,.88-.79,9.26,9.26,0,0,0,1.8,1.61,11.1,11.1,0,0,0,3.14,1.16,5.78,5.78,0,0,0,2,.17c.49-.09,1.77-.21,1.89-.26s-.75-35.69-.83-35.76a15.62,15.62,0,0,0-3.42-1.9s0,1.53.08,2.36a7.71,7.71,0,0,1-.17,2A19.13,19.13,0,0,1,30.35,51c-.28.94-.6,1.88-.87,2.82s-.55,2.1-.84,3.14-.55,1.79-.83,2.68a21.17,21.17,0,0,0-.73,3.15c-.13.89-.49,2.4-.7,3.28l-.19-1.2c-.09-.74-.18-1.39-.25-2.32-.12-.55-.39-2-.39-2a17.66,17.66,0,0,1-.47-2.45c-.18-.65-.12-1.59-.29-2.26-.4-1.68-.81-3.35-1.14-5-.25-1.26-.51-2.52-.64-3.79a10.1,10.1,0,0,1-.13-2.26,2.8,2.8,0,0,0-.11-.93L19.4,46.2c-1.31.93-2.63,1.83-3.92,2.78a25.21,25.21,0,0,0-3.1,2.44Z"/>
  <g class="fredShirtOverlapLine">
    <path d="M26.38,66c0,1.26,0,4,0,5.22s.25,2.52.23,3.79,0,2.46,0,3.69"/>
    <path d="M12.38,70.93a24.85,24.85,0,0,0,1.5,2.59c.62,1,1.09,2,1.64,3a14.59,14.59,0,0,0,1.66,2.54c.1.12.17.26.32.33.41,0,.53-.26.79-.47"/>
    <path d="M17.69,55.54c-.18,2.72-.32,4.78-.55,6.65a1.31,1.31,0,0,0,0,.28A23,23,0,0,1,17,65a3,3,0,0,0,.16.79,13.13,13.13,0,0,0,1.49,3.52c.93,1.73,2,3.37,3,5.07.29.51.63,1,1,1.51a.81.81,0,0,1-.83.62"/>
    <path d="M30.58,74.34c.09.41.06.84.51,1.12a2.16,2.16,0,0,0,1.52.26,12.67,12.67,0,0,0,2.18-.54"/>
    <path d="M31.88,69.82c-.56.12-.19.06-.74.18a.6.6,0,0,0-.46.37"/>
  </g>
  <path class="richardPants" d="M52.63,93.61V71.2l-.33-.09H68.94c.51,0,.51,0,.51.51,0,4.2,0,8.41,0,12.61,0,1.18-.08,2.35-.17,3.52s-.14,2.5-.3,3.74C68.9,92.08,52.63,93.61,52.63,93.61Z"/>
  <path class="richardShirt" d="M66.11,43.34a.68.68,0,0,0-.41.52A4.93,4.93,0,0,1,64,46.76a33.65,33.65,0,0,0-2.8,3.69,7.48,7.48,0,0,0-.47-1.24,10.64,10.64,0,0,0-1.64-2,5.48,5.48,0,0,1-1.26-3.65c0-.1-.22-.19-.35-.24a5.86,5.86,0,0,0-2,1.49l-1.1,28.84a2.54,2.54,0,0,1,1.19.21,17.39,17.39,0,0,0,3.52.44c.66,0,1.33.15,2,.12A18.19,18.19,0,0,0,64.23,74a24.91,24.91,0,0,0,4.07-.91c-.06.57-.14.6-.15.89-.06,1.07-.3,2.11-.29,3.19s.29,1.26,1.08,1.48a9,9,0,0,0,2.54.12,1.71,1.71,0,0,0,.93-.16,2.29,2.29,0,0,0,1-1.63c.13-.77.21-1.55.4-2.31,0,0,.26-1.4.33-1.89.13-.8.3-1.6.36-2.41,0-.56.2-1.1.24-1.66a8.76,8.76,0,0,0,.14-1.43,10.85,10.85,0,0,1,0-1.71,29.07,29.07,0,0,0,.14-5.36c-.15-1.18-.22-2.37-.28-3.56a44.37,44.37,0,0,0-.74-4.85,24.65,24.65,0,0,0-.74-3.47,4.19,4.19,0,0,0-1.11-2,7.1,7.1,0,0,0-1.94-1.21c-1-.45-3.2-1.32-3.2-1.32l-.79-.52A.21.21,0,0,0,66.11,43.34Z"/>
  <g class="richardShirtOverlapLine">
    <path d="M59.37,49.21c.74.46.19.08.88.51a4.92,4.92,0,0,1,.92.73,16.67,16.67,0,0,1,2.31-1.35,11,11,0,0,1,2.45-.69c.28,0,.6-.19.58-.5l.07-.83c.45.12.9.23,1.34.38a12.83,12.83,0,0,0,1.25.36c.26.06.33,0,.28-.28a3.36,3.36,0,0,0-.37-1,10.61,10.61,0,0,0-2.18-2.72"/>
    <path d="M68.71,54.29a27,27,0,0,1,.31,3.6,34.5,34.5,0,0,1,.24,4.76c-.08,1.34-.21,2.68-.32,4-.1,1.1-.21,2.19-.33,3.28a26,26,0,0,1-.37,3.15"/>
  </g>
  <path class="tomPants" d="M37,93.89A11.61,11.61,0,0,0,36.74,92c-.22-1-.4-2.06-.56-3.09-.19-1.31-.33-2.62-.52-3.93s-.37-2.71-.5-4.07c-.07-.67-.07-1.36-.17-2a4,4,0,0,1,0-.55,15.1,15.1,0,0,1-.22-2.59c0-.93,0-1.85.08-2.78l9.76-4.48c1.27.43,2.55.88,3.83,1.29,1.46.48,2.93.93,4.39,1.39.57.18,1.14.38,1.71.55a.42.42,0,0,1,.33.33A7.32,7.32,0,0,1,55,73.7c0,.22,0,.46,0,.69-.05,1.43-.05,2.87-.11,4.3,0,1-.11,2.1-.23,3.14-.19,1.77-.41,3.55-.64,5.31-.15,1.15-.28,2.3-.53,3.42a14.39,14.39,0,0,1-.58,2.5Z"/>
  <g class="tomVest">
    <path d="M50.82,43.2a1.45,1.45,0,0,1,1.4,0c.83.36,1.74.51,2.57.87a12.81,12.81,0,0,1,2.41,1.18,1.58,1.58,0,0,1,.74,1.43L55,69.59c.06.5.14,1,.18,1.52a1.62,1.62,0,0,1-.74,1.75,30.09,30.09,0,0,1-3.33,1.48,12.39,12.39,0,0,1-2.9.62.84.84,0,0,1-.91-.44,5.68,5.68,0,0,1-.43-1.24A7.46,7.46,0,0,1,46.71,71l-4.62.09a15.84,15.84,0,0,1-.28,3.7c-.07.33-.1.71-.55.73a4.36,4.36,0,0,1-1.2,0,22.31,22.31,0,0,1-3-.82,10.5,10.5,0,0,1-2-.74c-.32-.18-.65-.72-.55-1a9.32,9.32,0,0,0,.41-3.1L32.52,47.45a2.25,2.25,0,0,1,.73-1.82,11.88,11.88,0,0,1,1.6-1,36.82,36.82,0,0,1,3.64-1.74c.31-.13.59-.39,1-.33l5.4,7.3Z"/>
  </g>
  <g class="tomShirt">
    <path d="M40.61,50.64c-.32-.91-.67-1.81-1-2.73a11.42,11.42,0,0,1-.89-4.43,2.5,2.5,0,0,1,.28-1,5.31,5.31,0,0,1,2-1.84,1.62,1.62,0,0,1,1.15-.24,14,14,0,0,0-.69,1.52,4.23,4.23,0,0,0,.19,3.37,15.58,15.58,0,0,0,2.62,2.64c.56.43.53.41,1.07,0a16.3,16.3,0,0,0,2-2,8.14,8.14,0,0,0,1.23-1.9,3.47,3.47,0,0,0,.2-2.21,4.2,4.2,0,0,1-.18-1.38c.12-.12,1,.31,1.3.59a6.52,6.52,0,0,1,1.49,1.52,1.45,1.45,0,0,1,.16,1.12,17.3,17.3,0,0,1-1.06,3.19c-.63,1.47-1.31,2.94-1.87,4.44a15.33,15.33,0,0,0-.88,3.22c-.17,1.14-.38,2.28-.48,3.43s-.17,2-.19,3a9.06,9.06,0,0,1-.1,1.38c-.1.6,0,1.21-.09,1.81-.1,1.24-.08,2.49-.08,3.74l-4.42,0a11.64,11.64,0,0,1,0-1.67,5.16,5.16,0,0,0,.09-1,49.51,49.51,0,0,0-.31-5.57c-.11-.65-.16-1.32-.24-2Z"/>
    <path d="M36.45,59.33a14.74,14.74,0,0,0-.38-2.64c-.13-.75-.23-1.5-.39-2.24-.24-1.13-.55-2.25-.89-3.35-.11-.35-.19-.71-.28-1.06a3.85,3.85,0,0,0-.12-.73c-.45-1-.77-2.05-1.18-3.06-.05-.11-.09-.29-.27-.32a.45.45,0,0,0-.41.23A5.23,5.23,0,0,0,31.11,49c-.14,1.14-.14,2.28-.25,3.42-.09.82-.25,1.63-.31,2.45,0,.6,0,1.2-.11,1.8a14.63,14.63,0,0,0-.23,1.94c0,.77-.27,1.48-.34,2.22a8,8,0,0,1-.33,1.43A7.58,7.58,0,0,0,29.38,65a7.42,7.42,0,0,0,1.06,3.29,5.76,5.76,0,0,0,1.77,1.84,2,2,0,0,0,2.67-.18,8.34,8.34,0,0,0,1.79-2.73,7,7,0,0,0,.38-3.6Z"/>
    <path d="M51.89,65.7a3.21,3.21,0,0,1,1-1.31,2.89,2.89,0,0,0,1.35-1.83,12.54,12.54,0,0,0,.09-2c0-1,0-2,0-3a5.65,5.65,0,0,0,0-1,7.32,7.32,0,0,1,0-2.64,21.63,21.63,0,0,1,.46-2.12A12.89,12.89,0,0,1,55.33,50c.45-.92.74-1.89,1.22-2.79a5.58,5.58,0,0,1,1-1.48c.2-.19.35-.18.56,0a3.82,3.82,0,0,1,1.06,2.64c.1.74.18,1.48.27,2.22s.17,1.32.23,2,.1,1.36.2,2c.06.38,0,.74.11,1.12a13.78,13.78,0,0,1,.29,2c.06.66,0,1.34.13,2a20.09,20.09,0,0,1,.14,3.19,11.75,11.75,0,0,1,.1,1.44,11,11,0,0,1-.54,2.45,3.9,3.9,0,0,1-1.45,1.93,14.15,14.15,0,0,1-4.61,1.86,1.3,1.3,0,0,1-1.67-1Z"/>
  </g>
  <path class="skinAshkenazi" d="M89.06,55.31a17.23,17.23,0,0,1,.27,2.53,23.28,23.28,0,0,1,.17,2.73c0,1.1,0,2.19,0,3.28s-.12,2.44-.22,3.66-.21,2.34-.37,3.51c-.12.79-.34,1.57-.5,2.35a10.59,10.59,0,0,1-.37,1.76s0,.57-.1.83a8.39,8.39,0,0,0-.29,2.59c.07.7.32,1.35.42,2a4.7,4.7,0,0,1-1,3.79,6.62,6.62,0,0,1-.51.56c-.71.76-1.41,1.56-2.58,1.51a1.85,1.85,0,0,1-1.43-.59,4.77,4.77,0,0,1-.65-1.39,1.74,1.74,0,0,1,0-1.57,1.19,1.19,0,0,0,0-.5,6.51,6.51,0,0,1,.19-1.76,6.72,6.72,0,0,1,1.56-2.87,1.62,1.62,0,0,0,.43-.83c.14-.67.11-1.36.24-2a35.29,35.29,0,0,0,.26-4.11c0-.34.19-2.43.21-3.15,0-.4.09-3.23.14-4.25.09-1.87,0-3.76-.06-5.64,0-.6,0-.59.64-.69a4.73,4.73,0,0,0,.74-.19A14.48,14.48,0,0,0,89.06,55.31Z"/>
  <g class="skinGallic">
    <path d="M18.66,79.91a7.7,7.7,0,0,1,.13.77A5.42,5.42,0,0,0,19.54,83a7.77,7.77,0,0,0,1.17,1.66,2,2,0,0,0,1.28.57A5.34,5.34,0,0,0,24.3,85a2.92,2.92,0,0,0,2.24-3.28A3.53,3.53,0,0,0,25.87,80a5.43,5.43,0,0,0-2.58-2.24,2.46,2.46,0,0,1-1.51-1.24,20,20,0,0,0-3.44,2.3A11.19,11.19,0,0,1,18.66,79.91Z"/>
    <path d="M27.07,68.38a10.53,10.53,0,0,0-2.63.11,2.84,2.84,0,0,0-1.49.39.76.76,0,0,0-.31.47,5,5,0,0,0,.18,2.45c.42,1.75,2.78,3.25,4.48,3.31a3.46,3.46,0,0,0,2.22-.53,1.56,1.56,0,0,1,.6-.23c.55-.11.73-.27.78-.79A9.92,9.92,0,0,0,31,71.85c-.05-.62-.06-1.32-.86-1.58a1.39,1.39,0,0,1-.7-.59C29,68.94,27.07,68.38,27.07,68.38Z"/>
    <path d="M72,78.83a6.71,6.71,0,0,0,.51,2.61A4.92,4.92,0,0,1,72.37,85a4.57,4.57,0,0,1-1.49,2.26,3.51,3.51,0,0,1-2.73.69,1.54,1.54,0,0,1-.47-.22,2.34,2.34,0,0,1-1.19-2c0-.57-.12-1.13-.1-1.71a6.54,6.54,0,0,1,.51-2.08c.3-.8.91-1.42,1.21-2.21a2.48,2.48,0,0,0,.23-1.07Z"/>
  </g>
  <g class="skinNordic">
    <path d="M52.35,65c-.52.05-.88.43-1.34.61-.82.32-1.62.71-2.45,1a18.77,18.77,0,0,1-2.08.56,1.59,1.59,0,0,1-.79-.17,7,7,0,0,0-2.08-.39,6,6,0,0,0-2.39.67A13.17,13.17,0,0,0,39,68.43a1.36,1.36,0,0,0-.54,1.66,7.81,7.81,0,0,0,1.46,3,2.49,2.49,0,0,0,2.6,1,18.53,18.53,0,0,0,2.4-.56A6.33,6.33,0,0,0,47.21,72a7.85,7.85,0,0,1,3.48-1.74c.79-.25,1.6-.45,2.4-.7a.69.69,0,0,0,.46-.73,7.17,7.17,0,0,0-.42-2.64A2.28,2.28,0,0,0,52.39,65Z"/>
    <path d="M38.58,55.49A2.6,2.6,0,0,1,37.79,57c-1,1-2,2-2.95,3.06-.6.66-1.2,1.32-1.86,1.92a2.12,2.12,0,0,0-.52,2.65A5,5,0,0,0,34.33,67a.87.87,0,0,0,1.29-.17,18.91,18.91,0,0,0,1.29-2,45,45,0,0,1,2.63-4.08l1.16-1.51a3.41,3.41,0,0,1,1.53-.92,6,6,0,0,0,1.88-1.13,4.74,4.74,0,0,0,1.58-2.85,10.7,10.7,0,0,0-.09-2.77A3.73,3.73,0,0,0,44.26,49,.87.87,0,0,0,43.15,49c-.59.32-1.2.6-1.8.88A4.47,4.47,0,0,0,39,52.91a13.84,13.84,0,0,0-.37,1.94C38.57,55,38.58,55.49,38.58,55.49Z"/>
  </g>
  <path class="frame" d="M.5.5h104v104H.5ZM13.07,12.84a3.25,3.25,0,0,1,.09.88c-.06,2.42.08,4.83.13,7.25,0,1.32,0,2.65.06,4,.2,3.38,0,6.78.1,10.16.15,3.81,0,7.61.09,11.42.17,5.88.09,11.76.06,17.65,0,3.2,0,6.41-.09,9.61-.08,2.37,0,4.75-.09,7.12-.09,1.8,0,3.61-.09,5.4-.11,1.58,0,3.15-.07,4.72,0,.1-.06.22,0,.32l-.18.14s.09-.09.13-.09a16.7,16.7,0,0,0,2.55,0c1.19-.1,2.4,0,3.6-.1s2.34,0,3.51-.09,2.34,0,3.52-.09c1.9-.12,3.81,0,5.73-.09,2.12-.13,4.25-.08,6.37-.08,8.49,0,17-.14,25.46,0,2.71.06,5.43,0,8.14.1,1.27.06,2.55,0,3.83.08,1.55.12,3.11-.06,4.67.1.9.09,1.81,0,2.73.08s2.06,0,3.09.1,1.85,0,2.78.08c1.14.11,2.31,0,3.46.15,0-.17,0-.31,0-.45,0-1.17,0-2.34.07-3.51.11-2.09,0-4.19.09-6.29C93,78.29,93,75.16,93,72c0-7.87.13-15.74-.06-23.61-.08-2.86,0-5.73-.08-8.6-.13-4.88.05-9.76-.09-14.64-.06-2-.12-4-.11-6s-.16-3.85-.1-5.78a2.11,2.11,0,0,0,0-.28c-.57,0-1.14,0-1.7-.08-1.14-.08-2.28,0-3.42-.08-2.36-.08-4.72-.13-7.07-.2-3.31-.09-6.63,0-9.94-.07-4.73-.07-9.46-.12-14.19-.11-6.5,0-13-.1-19.5.07-3.89.11-7.79-.09-11.69.1-1.74.08-3.48,0-5.22.07-2,.06-4.07.12-6.1.12-.18,0-.37,0-.51.14Z"/>
</svg>
