<svg viewBox="0 0 104.97 104.97">
  <rect class="blackDarkest" x="0.5" y="0.5" width="103.97" height="103.97"/>
  <g class="flatRedDark">
    <path d="M56.83,72.22c.56,0,.73,0,1-1.06.53-1.85,3.62-13.12,3.93-14.28.09-.31.13-.63.19-1a1.16,1.16,0,0,0-.69-1.32,4.13,4.13,0,0,0-3.47-.13,1.09,1.09,0,0,0-.68.78c-.25,1.06-2.65,9.82-3.17,11.46a4.37,4.37,0,0,0,.63,3.64A4.62,4.62,0,0,0,56.14,72a.92.92,0,0,0,.64.19"/>
    <path d="M25.68,72.22c.56,0,.73,0,1-1.06.52-1.85,3.62-13.12,3.93-14.28.08-.31.13-.63.18-1a1.21,1.21,0,0,0-.87-1.41,4.13,4.13,0,0,0-3.2-.05,1.16,1.16,0,0,0-.78.88c-.36,1.4-2.87,10.7-3.11,11.27A3.79,3.79,0,0,0,23,69.54a6.08,6.08,0,0,0,1.56,2.17,2.63,2.63,0,0,0,1.07.56"/>
    <path d="M90.7,54.2a6.05,6.05,0,0,0-1.2.08,1.76,1.76,0,0,0-1.39,1.56c-.3,1.44-2.07,7.63-2.54,9.31a14,14,0,0,0-.64,2.63,4.09,4.09,0,0,0,.43,1.85A5.47,5.47,0,0,0,87,71.85a1.29,1.29,0,0,0,1.57.19c.34-.23.31-.59.4-.89.54-1.84,3.63-13.11,3.94-14.27.08-.31.12-.62.19-.93.12-.55,0-.87-.6-1.25a3.08,3.08,0,0,0-1.71-.5"/>
    <path d="M96.66,43.57a5.61,5.61,0,0,0-.92-2,1.11,1.11,0,0,0-1.62-.46,9.88,9.88,0,0,0-1.94,1.25c-.5.39-.53,1-.68,1.53-.37,1.25-1.77,6.31-2.13,7.58a.36.36,0,0,0,0,.27c.25.51.5,1,1.15,1.16a5.55,5.55,0,0,0,2.17.31,2.21,2.21,0,0,0,1.86-1.88c.29-1.26,1.75-6.26,2-7.54a1.1,1.1,0,0,1,.09-.14"/>
    <path d="M79.15,40.38a2.7,2.7,0,0,0-1.34.41.94.94,0,0,0-.37.79,8.1,8.1,0,0,0,.42,2.54,1.48,1.48,0,0,0,.55.78c2,1.57,7.19,5.58,7.73,6.1a1.2,1.2,0,0,0,1.78-.32,4.73,4.73,0,0,0,.89-3.28,1.4,1.4,0,0,0-.56-1C86.66,45.12,82,41.56,81.38,41a2.2,2.2,0,0,0-1.77-.59H79.2"/>
    <path d="M82.06,39.18a1.25,1.25,0,0,0,.52,1,5.85,5.85,0,0,0,1.29,1,1.77,1.77,0,0,0,1,.28c1.75,0,3.49,0,5.23,0a2.85,2.85,0,0,0,2.12-.79,8,8,0,0,0,1.4-1.66,1.49,1.49,0,0,0-1.07-2.27,4.4,4.4,0,0,0-1-.09c-2.13,0-4.25,0-6.38,0a2.58,2.58,0,0,0-2,.77A4,4,0,0,0,82,39.13"/>
    <path d="M18.66,41.49c-.08.47.25.77.52,1.06a6.31,6.31,0,0,0,1.28,1,1.83,1.83,0,0,0,1,.28c1.74,0,3.48,0,5.23,0a2.88,2.88,0,0,0,2.12-.79,8.27,8.27,0,0,0,1.4-1.66,1.49,1.49,0,0,0-1.08-2.27,4.27,4.27,0,0,0-1-.09c-2.13,0-4.25,0-6.38,0a2.62,2.62,0,0,0-2,.77,4.25,4.25,0,0,0-1.07,1.65"/>
    <path d="M33.82,45.42a5.88,5.88,0,0,0-.92-2,1.11,1.11,0,0,0-1.63-.46,9.12,9.12,0,0,0-1.93,1.25,1.87,1.87,0,0,0-.6,1.16c-.44,2-1.1,4-1.6,6a1.12,1.12,0,0,0,.22.92,1.86,1.86,0,0,0,1.37.75,4.06,4.06,0,0,0,2,.09,2.16,2.16,0,0,0,1.53-1.8c.36-1.44,1.43-5.32,1.57-5.83"/>
    <path d="M65,45.42a5.54,5.54,0,0,0-.92-2,1.11,1.11,0,0,0-1.62-.46,9.45,9.45,0,0,0-1.94,1.25,1.86,1.86,0,0,0-.59,1.16c-.45,2-1.1,4-1.6,6a1.05,1.05,0,0,0,.22.92,1.85,1.85,0,0,0,1.37.75,4.06,4.06,0,0,0,2,.09,2.18,2.18,0,0,0,1.53-1.8c.36-1.44,1.43-5.32,1.56-5.83"/>
    <path d="M42.14,37.61a11.8,11.8,0,0,0,.4,1.66,1.42,1.42,0,0,0,.39.64c1,.74,2,1.53,3,2.29A23.66,23.66,0,0,0,48.29,44c1,.56,1.86.61,2.48-.36a3.74,3.74,0,0,0,.5-3,2.08,2.08,0,0,0-.82-1.06c-1.3-1.1-2.66-2.12-4-3.15a6.13,6.13,0,0,1-.68-.56,1.4,1.4,0,0,0-1-.36,6.65,6.65,0,0,0-1.94.23,1,1,0,0,0-.69,1v.78"/>
    <path d="M57.76,31a5.42,5.42,0,0,0-.93-2.08,1.11,1.11,0,0,0-1.62-.46,10.19,10.19,0,0,0-1.94,1.25c-.5.37-.52,1-.68,1.48-.45,1.5-.86,3-1.25,4.53-.12.49-.43,1-.24,1.52a5.64,5.64,0,0,0,1,1.94,1,1,0,0,0,1.2.28,7.6,7.6,0,0,0,2.31-1.48,2.69,2.69,0,0,0,.55-1.39c.5-1.72.93-3.46,1.48-5.17,0-.12-.06-.28.1-.37"/>
    <path d="M57.11,38.81c-.91.57-1.83,1.12-2.73,1.71a3.68,3.68,0,0,0-1.67,2.86.84.84,0,0,0,.7,1,4.92,4.92,0,0,0,.83.13,10.91,10.91,0,0,0,2.55-.12,5.7,5.7,0,0,0,1.43-.57c1.13-.64,2.23-1.35,3.33-2.07.48-.32,1-.63,1.48-.92a.78.78,0,0,0,.32-.33,5.6,5.6,0,0,0,.6-2.08c0-.89-.17-1-1-1.33a7.24,7.24,0,0,0-2.13-.33A1.27,1.27,0,0,0,60,37c-.93.61-1.88,1.18-2.82,1.76"/>
    <path d="M11.13,42.74a8.41,8.41,0,0,0-2.45,1.44c-.4.3-.42.83-.55,1.28-.54,2-1,3.92-1.6,5.87a.94.94,0,0,0,.17.83A1.78,1.78,0,0,0,8,53a4.57,4.57,0,0,0,2,.13,2,2,0,0,0,1.57-1.49c.51-1.93,1-3.86,1.58-5.77a1.31,1.31,0,0,0,0-.92,7.37,7.37,0,0,0-.87-1.67,1.09,1.09,0,0,0-1.06-.51"/>
    <path d="M42.27,42.74a8.36,8.36,0,0,0-2.44,1.44c-.41.3-.43.83-.55,1.28-.54,2-1,3.92-1.6,5.87a.91.91,0,0,0,.16.83,1.8,1.8,0,0,0,1.34.81,4.52,4.52,0,0,0,1.94.13,2,2,0,0,0,1.58-1.49c.5-1.93,1-3.86,1.58-5.77a1.36,1.36,0,0,0,0-.92,7.33,7.33,0,0,0-.86-1.67,1.09,1.09,0,0,0-1.06-.51"/>
    <path d="M73.42,42.74A8.36,8.36,0,0,0,71,44.18c-.41.3-.43.83-.56,1.28-.54,2-1,3.92-1.59,5.87a.91.91,0,0,0,.16.83,1.78,1.78,0,0,0,1.33.81,4.57,4.57,0,0,0,2,.13,2,2,0,0,0,1.57-1.49c.51-1.93,1-3.86,1.58-5.77a1.31,1.31,0,0,0,0-.92,7.33,7.33,0,0,0-.86-1.67,1.11,1.11,0,0,0-1.06-.51"/>
    <path d="M96.53,67.23a4.19,4.19,0,0,0-1.11.27A2.42,2.42,0,0,0,94,69.68c-.08,1-.18,1.91-.28,2.86s-.09,1.67,1.34,2.11a2.65,2.65,0,0,0,3.31-1.28,2.88,2.88,0,0,0,.24-1c.12-1.2.22-2.4.33-3.6a1.52,1.52,0,0,0-1.06-1.3,5.28,5.28,0,0,0-1.3-.27"/>
    <path d="M11.41,69.82A1.5,1.5,0,0,0,10,71.29a3.13,3.13,0,0,0,.28,2,2.18,2.18,0,0,0,2,1.28c3.28,0,6.56,0,9.84,0a1.12,1.12,0,0,0,1.15-1.24,4.16,4.16,0,0,0-2.08-3.3,2.19,2.19,0,0,0-1.19-.29h-8.6"/>
    <path d="M42.55,69.82a1.5,1.5,0,0,0-1.39,1.47,3.06,3.06,0,0,0,.28,2,2.17,2.17,0,0,0,2,1.28c3.28,0,6.56,0,9.84,0a1.12,1.12,0,0,0,1.14-1.24,4.15,4.15,0,0,0-2.07-3.3,2.23,2.23,0,0,0-1.2-.29H42.6"/>
    <path d="M73.7,69.82a1.5,1.5,0,0,0-1.4,1.47,3.13,3.13,0,0,0,.28,2,2.19,2.19,0,0,0,2,1.28c3.28,0,6.56,0,9.84,0a1.12,1.12,0,0,0,1.15-1.24,4.14,4.14,0,0,0-2.08-3.3,2.19,2.19,0,0,0-1.19-.29h-8.6"/>
  </g>
</svg>
