<svg viewBox="0 0 250.43 181.27">
  <g class="pillow">
    <path class="cushion" d="M3.13,171.87c.31,1.32,1.38,2,2.25,2.92a14.57,14.57,0,0,0,6.22,3.8,4,4,0,0,0,1,.17,25.12,25.12,0,0,1,2.61.31,34.32,34.32,0,0,0,7.24-.37,37.21,37.21,0,0,0,5.63-1c.25-.07.53.09.77-.08l.08-.15c-.12.32.17.35.3.3a12.45,12.45,0,0,1,2.31-.53c.85-.16,1.7-.3,2.54-.47s1.7-.34,2.55-.54c1.41-.32,2.79-.76,4.23-1,.74-.15,1.48-.51,2.24-.73,1.6-.45,3.19-.95,4.78-1.45,2.36-.76,4.73-1.51,7.08-2.33,1.82-.63,3.63-1.28,5.39-2.08a68.79,68.79,0,0,0,7.19-3.95c1.63-1,3.16-2.12,4.81-3.08A25.94,25.94,0,0,0,76,158.9c1.62-1.34,3.36-2.52,4.89-4A70.42,70.42,0,0,0,87,149c2.32-2.77,5.23-4.89,7.81-7.37,1.73-1.66,3.58-3.19,5.38-4.79,2.87-2.56,5.74-5.14,8.62-7.7,1.66-1.47,3.33-2.94,5-4.38a1.9,1.9,0,0,0,.67-1.17,10.18,10.18,0,0,0,.09-4.69,16.46,16.46,0,0,0-1.83-4.43c-1.87.75-3.55,1.8-5.32,2.69-1.48.74-2.93,1.57-4.41,2.35q-5.88,3.14-11.78,6.24l-7.93,4.16-11.32,6c-2.64,1.39-5.29,2.76-7.93,4.16-3.68,1.94-7.34,3.9-11,5.85l-7.93,4.16-11.32,6c-2.64,1.4-5.3,2.77-7.93,4.17-3.68,1.94-7.34,3.9-11,5.85L6.6,170.41c-1.06.56-2.11,1.13-3.16,1.7Z"/>
    <path class="welt" d="M2.75,174.72a5.94,5.94,0,0,0,3.69.5c1.69-.31,3.4-.33,5.09-.55,1.4-.19,2.78-.43,4.16-.71.43-.09.88-.07,1.31-.17,1.65-.39,3.35-.6,5-.92,2.43-.47,4.81-1.16,7.22-1.69s4.74-1,7.09-1.63c1.2-.3,2.35-.78,3.54-1.13,1.56-.47,3.13-.9,4.7-1.31a10.26,10.26,0,0,0,1.67-.59A46.61,46.61,0,0,1,51,164.77c2.69-1,5.29-2.13,7.9-3.26a61.54,61.54,0,0,0,7.43-3.85c1.75-1.06,3.31-2.39,5.08-3.4a50.51,50.51,0,0,0,6.67-5c2.3-1.86,4.58-3.74,6.89-5.58,2.64-2.09,5-4.46,7.42-6.76,2.62-2.48,5.43-4.74,8.11-7.14,2.29-2.05,4.7-4,7-6a36.18,36.18,0,0,0,5.1-5.67,6.21,6.21,0,0,0,1.1-3,2.56,2.56,0,0,0-2.09-2.4,5.68,5.68,0,0,0-3.54.64c-4,2-8,3.94-11.94,6-4.33,2.27-8.76,4.35-13.09,6.63s-8.77,4.34-13.1,6.62-8.76,4.35-13.09,6.62-8.76,4.35-13.09,6.63S35,150.13,30.64,152.4s-8.76,4.36-13.1,6.62S9,163.37,4.67,165.48C3,167.07,1.05,168.49.61,171c-.36,2.09.13,2.71,2,3.77Z"/>
    <path class="cushion" d="M85.55,113.12c-2,.44-4,.83-5.92,1.33s-3.66,1-5.47,1.63c-2.52.82-5.08,1.49-7.61,2.26-1.77.54-3.49,1.23-5.24,1.84a39.07,39.07,0,0,0-4.17,1.75c-1,.47-2,.91-3.06,1.36A63.68,63.68,0,0,0,48,126.45c-2.59,1.48-5,3.19-7.54,4.78-2.22,1.41-4.35,2.94-6.43,4.53q-2.28,1.74-4.49,3.6c-1.49,1.25-3.07,2.41-4.51,3.73-1.06,1-2.15,1.9-3.16,2.92-1.67,1.68-3.51,3.16-5.23,4.78-1.06,1-2.06,2.06-3.16,3-2.16,1.85-3.75,4.21-5.68,6.27a27.25,27.25,0,0,0-4.16,6.62,2.89,2.89,0,0,0,1.8,3.8,13.67,13.67,0,0,0,3.93.27c1.15-.08,2.31,0,3.46-.23s2.37-.27,3.55-.44c1.34-.18,2.64-.55,4-.68,1.11-.11,2.2-.46,3.31-.68,2.23-.42,4.49-.72,6.69-1.28,2.88-.74,5.81-1.32,8.63-2.3,2.14-.75,4.32-1.42,6.48-2.12q2.17-.69,4.29-1.53c1.84-.73,3.65-1.54,5.48-2.27s3.64-1.94,5.59-2.63a28.13,28.13,0,0,0,2.39-1.52,40.62,40.62,0,0,0,7.51-5c2.36-1.9,4.73-3.79,7-5.74,1.43-1.21,2.74-2.56,4.22-3.72,1.66-1.31,3.25-2.72,4.89-4s3.47-2.88,5.14-4.4,3.45-3.14,5.25-4.62c.95-.79,1.81-1.68,2.69-2.54a27.3,27.3,0,0,1,3.38-2.71,15.57,15.57,0,0,0,1.46-1.23,26.05,26.05,0,0,0,3.47-3.17,7.94,7.94,0,0,0,1.53-2.7,3.31,3.31,0,0,0-1.62-3.56,13.67,13.67,0,0,0-5.63-.84c-1.22,0-2.42.2-3.62.3s-2.62.32-3.92.54c-2,.34-4,.65-5.94.92a8.79,8.79,0,0,0-2.06.35c-.46.17-.91,0-1.32.2Z"/>
    <g class="pillowCreaseLine">
      <path d="M71.6,131.29a33.85,33.85,0,0,0-6.4,2.2c-2.18.93-4.36,1.87-6.46,3-.71.37-1.39.82-2.08,1.23"/>
      <path d="M82.23,122.81c-.73-.16-1.42-.46-2.15-.63A16.55,16.55,0,0,0,76,121.9a17.91,17.91,0,0,0-1.92.22"/>
    </g>
  </g>
  <path class="bennettJeans" d="M150.78,171.87c.67.15.33-.4.28-.53a10.32,10.32,0,0,1-.46-1.46,13.39,13.39,0,0,1-.32-3.4,29,29,0,0,1,.18-4.16,8.19,8.19,0,0,1,1.17-3.07,16.57,16.57,0,0,1,5.06-4.73,70.11,70.11,0,0,1,6.64-3.75c2-1.1,4.22-1.94,6.31-2.94,2.41-1.15,4.9-2.1,7.32-3.22a35,35,0,0,1,4.39-1.71,1.87,1.87,0,0,0,.69-.6c2.09-2.39,4.16-4.78,6.25-7.16,1.32-1.5,2.68-3,4-4.47,2.09-2.38,4.12-4.81,6.25-7.15,1.35-1.48,2.67-3,4-4.48,1.81-2.05,3.59-4.11,5.4-6.16,1.27-1.45,2.57-2.87,3.84-4.32,1.81-2,3.56-4.14,5.41-6.14a42.14,42.14,0,0,1,4.21-4.35,10.18,10.18,0,0,1,5-2,10.07,10.07,0,0,1,4.47.07,3.89,3.89,0,0,1,2.4,1.45,39.38,39.38,0,0,1,3.91,7.33c.43,1,.83,2.1,1.23,3.16a23.28,23.28,0,0,1,1.21,4.47c.22,1.32.71,2.56,1,3.84.45,1.83,1,3.64,1.36,5.48a25,25,0,0,1,.33,3c.2,2,.34,4.05.39,6.08a53.72,53.72,0,0,1-.18,6.47,18,18,0,0,1-1.08,4.87c-.45,1.17-.74,2.42-1.21,3.6a13.62,13.62,0,0,1-.9,1.79,19.16,19.16,0,0,1-2.18,3.29c-.36.42-.73.82-1,1.16v26.19h-31a1.8,1.8,0,0,0-1.39.54,7.32,7.32,0,0,1-4.3,1.82,8.9,8.9,0,0,1-2.62.08c-1.13-.15-2.28-.15-3.39-.38a10.89,10.89,0,0,0-2.47-.17c-2.67,0-5.33-.34-8-.05a21.33,21.33,0,0,1-3.39.06c-2.47-.15-4.93.18-7.39,0a50.41,50.41,0,0,1-5.33-.3,21.25,21.25,0,0,0-3.68-.3,17,17,0,0,1-8.45-2.35,7.71,7.71,0,0,1-3.11-3.8,4.7,4.7,0,0,1-.53-1.39Z"/>
  <path class="bennettShoe" d="M212.78,180.35c.21-.29.51-.15.77-.15,2.31,0,4.62,0,6.93-.14a1.63,1.63,0,0,0,1.29-.8c.77-1,1.74-1.86,2.58-2.82,1.6-1.84,3.34-3.55,5-5.34,1.94-2.12,3.89-4.22,5.84-6.33.91-1,1.89-1.92,2.74-3a1.5,1.5,0,0,0,.35-1.18,28.12,28.12,0,0,0-.52-3.16,44.8,44.8,0,0,0-1.25-4.85,4.77,4.77,0,0,0-.27-.56,2,2,0,0,0-1.09.81c-1.38,1.56-3,2.92-4.28,4.58a38.66,38.66,0,0,1-4.43,4.89,21.19,21.19,0,0,1-5.42,3.4c-2,.92-3.94,1.84-6,2.6a60.85,60.85,0,0,1-6.47,2.07c-2,.5-4,1-6.08,1.46a1,1,0,0,0-.74.7c-.29,1.68-.62,3.39.82,4.77a6.9,6.9,0,0,0,3.07,1.78,23.16,23.16,0,0,0,3.39.79,27.9,27.9,0,0,0,3.16.29c.19,0,.41-.08.54.15Z"/>
  <path class="soleWhite" d="M227.26,180.35c.75.34.55-.5.57-.63.27-1.42.43-2.87.66-4.3.29-1.75.7-3.48.9-5.24.16-1.5.51-3,.66-4.47.11-1.16.39-2.31.62-3.6a7,7,0,0,0-2,.18,10.77,10.77,0,0,0-4.71,2,4.42,4.42,0,0,1-.61.32,10.79,10.79,0,0,0-4.57,3.87,5.92,5.92,0,0,0-.82,3.76,35.47,35.47,0,0,0,.73,4,5.17,5.17,0,0,0,2.36,3.61,5.08,5.08,0,0,0,1.91.31,15.46,15.46,0,0,0,4.24.17Z"/>
  <path class="soleWhiteDark" d="M249.21,161.4a20.23,20.23,0,0,1,.37,9,16.18,16.18,0,0,1-.88,3.35,8.54,8.54,0,0,1-1.91,2.76,12.5,12.5,0,0,1-3.35,2.52,15,15,0,0,1-5.09,1.22c-2.08.16-4.18-.13-6.24.24a12.45,12.45,0,0,1-4.31-.22,3.16,3.16,0,0,1-1.53-1.2,16.2,16.2,0,0,1-2.7-4.77,8.85,8.85,0,0,1,.57-7.52,8.76,8.76,0,0,1,3.89-3.55,7.56,7.56,0,0,1,2.31-1c.69-.08,1.38-.06,2.08-.2a13.77,13.77,0,0,0,6.08-2.89,9.13,9.13,0,0,1,4.48-1.94,4.88,4.88,0,0,1,4.75,1.58,6.08,6.08,0,0,1,1.4,2.52Z"/>
  <path class="shirtWhite" d="M145.46,92.78c1.39,3.51,2.91,7,4.34,10.46,1.15,2.79,2.35,5.55,3.52,8.33,1.4,3.33,2.82,6.65,4.19,10a9.48,9.48,0,0,0,2.38,3.15,33.57,33.57,0,0,0,3.21,3.1c2.08,1.51,4,3.25,6.22,4.58a37.87,37.87,0,0,1,7.9,5.87c1.36,1.38,2.55,2.89,3.85,4.32a29.93,29.93,0,0,1,3,3.89,29.2,29.2,0,0,1,2.21,3.44,5.54,5.54,0,0,0,1.81,1.86c1.48,1.15,3.29,1.5,4.94,2.22a37.57,37.57,0,0,0,6.47,2,42.13,42.13,0,0,0,5.7,1,31.23,31.23,0,0,0,6.7-.37,24.47,24.47,0,0,0,6.54-1.61,31.1,31.1,0,0,0,6-3.28,38.66,38.66,0,0,0,6.83-6.19,32.54,32.54,0,0,0,3.75-5c.59-1,1.26-1.93,1.84-2.94a4,4,0,0,0,.25-1.1c.43-1.56,1.16-3,1.48-4.61a12.4,12.4,0,0,0,.09-4.63c-.28-1.55-.82-3-1-4.61a12.82,12.82,0,0,0-.88-2.08,32.66,32.66,0,0,0-4-7.48c-.71-1.08-1.47-2.14-2.13-3.24a37.33,37.33,0,0,0-5.88-7.07,44.2,44.2,0,0,1-3.37-3.48,62.87,62.87,0,0,0-6.65-6.61c-1.24-1.14-2.65-2.08-3.91-3.18C208,87.1,204.87,85.24,202,83q-2-1.6-4.11-3a65.56,65.56,0,0,0-5.64-3.6c-2.21-1.18-4.31-2.55-6.61-3.57a49.62,49.62,0,0,0-7.15-2.4c-1-.28-2-.19-3-.45a1.51,1.51,0,0,0-1.59.78,7.11,7.11,0,0,1-1.33,1.3c-4.89,3.74-9.76,7.5-14.64,11.23-3.17,2.43-6.37,4.83-9.55,7.25l-2.93,2.23Z"/>
  <g class="skinEastAsian">
    <path d="M146.23,89.7c.7-.08,1.11-.65,1.61-1,6.15-4.52,12.27-9.09,18.43-13.6a28.31,28.31,0,0,0,2.3-1.83c-1.32-1-2.51-2.21-3.83-3.22a12.59,12.59,0,0,1-1.51-1.42c-1.47-1.54-2.56-3.37-4-5a2.56,2.56,0,0,1-.39-1.84c0-5.09,0-10.17,0-15.33h-53a6.41,6.41,0,0,0,.65,3.51A23.5,23.5,0,0,0,108,53.07a14.74,14.74,0,0,1,1.47,3,42.24,42.24,0,0,1,1.37,6.17c.12.69.27,1.38.38,2.08.23,1.54.6,3,1,4.55a13.24,13.24,0,0,0,.59,1.91c.58,1.45,1.14,2.93,1.86,4.31a32.31,32.31,0,0,0,3.52,5.25,29.44,29.44,0,0,0,3.08,3.24,8.41,8.41,0,0,0,7.55,2,39.9,39.9,0,0,0,5.79-1.56c.88-.3,1.63-.78,2.45-1.13a15.34,15.34,0,0,0,4.6-2.94,19.43,19.43,0,0,1,4.64,10.26Z"/>
    <path d="M135.14,156.32a16.21,16.21,0,0,0-2.85-2.23c-3-2.2-6-4.37-8.93-6.56a2.92,2.92,0,0,1-.45-.62c-1.6,2-2.72,4.06-4,6-.8,1.2-1.63,2.39-2.38,3.62-1.54,2.54-3.12,5.06-4.86,7.46-.84,1.16-1.74,2.27-2.62,3.4a2.66,2.66,0,0,1-2.61.75,24.15,24.15,0,0,1-2.78-.6,26,26,0,0,0-7.93-1.06A24.82,24.82,0,0,0,93,167a39.85,39.85,0,0,0-4.17.81A15.19,15.19,0,0,0,79.39,175a13.39,13.39,0,0,0-1.32,4.55.65.65,0,0,0,.54.83,5.8,5.8,0,0,0,1.31.16c8.88,0,17.77,0,26.65,0a9.55,9.55,0,0,0,3.7-.74,17.07,17.07,0,0,0,4.15-3c1.42-1.2,2.84-2.4,4.24-3.62a13.58,13.58,0,0,0,1.88-2,11.47,11.47,0,0,1,2.06-1.93,49.59,49.59,0,0,0,3.52-3.73c1.68-1.68,3.19-3.53,4.88-5.2a44.84,44.84,0,0,1,3.83-3.72c.22-.16.37-.43.7-.23Z"/>
    <path d="M88.24,147.07a1.08,1.08,0,0,1,.24-.83,23.13,23.13,0,0,0,2.13-4.1c.57-1.22,1-2.5,1.47-3.77a22.33,22.33,0,0,0,.92-3.53c.12-.69-.25-.85-.53-1.16a8.33,8.33,0,0,0-4.15-2.24,24.22,24.22,0,0,0-5.24-1.05,47,47,0,0,0-5.31.14,29.77,29.77,0,0,0-6.09.91c-.23.06-.42-.07-.66-.18a19.55,19.55,0,0,1,4.13-5.06c.79-.66,1.6-1.32,2.38-2a9.65,9.65,0,0,1,2.23-1.49c.62-.29,1.1-.88,1.71-1.19a30.91,30.91,0,0,1,5.3-2,37.79,37.79,0,0,1,3.78-.91,11.71,11.71,0,0,1,5.55.15,21.55,21.55,0,0,1,4.37,1.82,21,21,0,0,1,3.63,2.83c.73.65,1.43,1.35,2.17,2a1.24,1.24,0,0,0,1.3.08,28.13,28.13,0,0,0,3.62-1.76c1.31-.7,2.62-1.4,3.94-2.07,2-1,4-2.2,5.91-3.42,1.48-.94,2.88-2,4.4-3.07,2.6,5,5.18,10,7.77,15a6.56,6.56,0,0,1-2.07.6c-3.14.47-6.17,1.36-9.24,2.11a52.91,52.91,0,0,0-7.78,2.38c-1.68.68-3.39,1.29-5,2.11s-3.09,1.48-4.68,2.14a10.91,10.91,0,0,0-3.09,2.28,17.73,17.73,0,0,1-3.85,3,20.31,20.31,0,0,1-5.31,2c-1,.2-2,.4-3.08.53-.34,0-.68-.11-1,0Z"/>
  </g>
  <g class="skinOverlapLine">
    <path d="M141.3,61.05a9.12,9.12,0,0,1-3,4.28,4.83,4.83,0,0,1-2.6,1"/>
    <path d="M137.38,76.45a10.39,10.39,0,0,1,3.62,3,1.17,1.17,0,0,0,.69.54"/>
    <path d="M108.49,167.87A10.21,10.21,0,0,1,106,171"/>
    <path d="M129.29,53.42a7.08,7.08,0,0,0-.15,2"/>
  </g>
  <path class="bennettSleeves" d="M172.11,69.67c-.5-.25-1,0-1.46.09-.85.08-1.69.28-2.54.37a1.87,1.87,0,0,0-1.54,1.31,21.63,21.63,0,0,1-2.77,4.24,28.85,28.85,0,0,1-2.92,2.93c-.28.27-.65.31-.95.52a11.39,11.39,0,0,1-4.14,1.67,26.23,26.23,0,0,0-7.72,2.72,20.94,20.94,0,0,0-4.83,4.56,20.24,20.24,0,0,0-2.68,4.4A23.6,23.6,0,0,0,139.14,97c-.34,1.42-.81,2.81-1,4.24a28.31,28.31,0,0,0-.86,3.7,1,1,0,0,1-.46.74c-1.54,1.16-3.05,2.35-4.7,3.37a24,24,0,0,0-2.77,2.07c-.95.8-2,1.41-3,2.2a9.93,9.93,0,0,0-1.62,1.62,3.88,3.88,0,0,0-.65,2.78,13.32,13.32,0,0,0,1.65,5.4,22.54,22.54,0,0,0,4,5.35,1.61,1.61,0,0,1,.43,1.88,39.38,39.38,0,0,1-3.3,7.94,9.83,9.83,0,0,1-1,1.3,31.36,31.36,0,0,1-3,3.58,21.31,21.31,0,0,0-1.48,1.75,1.14,1.14,0,0,0-.06,1.06c.33.93.38,1.93.73,2.86a13.59,13.59,0,0,0,2.31,3.71,12,12,0,0,0,3.19,2.81,11.67,11.67,0,0,0,4.06,1.65,27.71,27.71,0,0,0,3.39.3,2.33,2.33,0,0,0,1.93-.77,8.22,8.22,0,0,0,1.62-2,1.87,1.87,0,0,1,.38-.47,9,9,0,0,0,1.9-2.28c.34-.72,1.15-1.19,1.64-1.88a52.82,52.82,0,0,0,3.12-4.44c.56-1,1.21-1.92,1.78-2.89.92-1.54,1.88-3.05,2.67-4.67,1.21-2.48,2.54-4.89,3.83-7.33,1-1.85,2.06-3.66,3-5.56a17.89,17.89,0,0,0,1.13-2.06.72.72,0,0,1,.45-.38,13.11,13.11,0,0,0,5.56-3.46A21.18,21.18,0,0,0,167,115.5a15.83,15.83,0,0,0,2.3-5,23.14,23.14,0,0,0,.81-3.62,43.35,43.35,0,0,0,.2-4.7,30.24,30.24,0,0,0-.63-4.84,27.26,27.26,0,0,0-1.29-4c-.66-1.91-1.65-3.69-2.49-5.53A6.85,6.85,0,0,0,165,86.3c-.68-.83-1-1.93-1.78-2.69a1.7,1.7,0,0,1,.85-.84A21.44,21.44,0,0,0,168.77,79a31.12,31.12,0,0,0,5-6.05,8,8,0,0,0,1.08-2.47,1.32,1.32,0,0,0,0-.71,14.78,14.78,0,0,0-2.64-.22Z"/>
  <g class="clothesOverlapLine">
    <path d="M202.07,172a13.56,13.56,0,0,0-2.07.5c-2,.41-4,.82-6,1.13-1.51.23-3,.4-4.55.55q-3.83.39-7.62,1c-2.74.44-5.49.6-8.24.85-1.48.13-2.93-.18-4.4,0a3.63,3.63,0,0,1-.84-.15"/>
    <path d="M161.79,111.18a16.7,16.7,0,0,1-.94,4.7,44.64,44.64,0,0,1-2.91,6.7"/>
    <path d="M137.15,105.49c-.21,1.05-.42,2.1-.62,3.15s-.52,2.3-.73,3.46a68.06,68.06,0,0,1-2.06,7.94c-.6,2-1.31,3.91-2,5.85-.39,1.11-.82,2.21-1.23,3.32"/>
  </g>
  <path class="hairBlack" d="M141.15.6a9.45,9.45,0,0,1,4.47.52,12.6,12.6,0,0,1,3.16,1.62,19.09,19.09,0,0,1,4.61,4.17,15.85,15.85,0,0,1,1.31,1.92c.66,1.16,1.26,2.36,1.89,3.54l.12-.23a1.59,1.59,0,0,0,1-.78,8.61,8.61,0,0,1,2.64-2.6,13,13,0,0,1,8.09-2.33,9.65,9.65,0,0,1,2.77.54.71.71,0,0,1,.49.48c-.79.31-1.59.55-2.33.93a13.79,13.79,0,0,0-2,1.3,15.1,15.1,0,0,0-3.89,4.52c-.47.81-1.08,1.55-1.51,2.41a.7.7,0,0,0,.13.94c1,1.17,2.28,2.1,3.27,3.29a22.12,22.12,0,0,1,3.71,6,30,30,0,0,1,1.35,3.71,28.77,28.77,0,0,1,1.08,8.85,29.21,29.21,0,0,1-1.41,7.54,55.32,55.32,0,0,1-2.42,5.87,37.59,37.59,0,0,1-3.44,5.79,21.36,21.36,0,0,1-3.58,4.06c-1.95,1.63-4,3.11-6.62,3.48-.94.13-1.85-.13-2.77-.08a14.52,14.52,0,0,1-6.44-1.23c-1.5-.66-3.16-1.47-3.67-3.36a6,6,0,0,0,.71-2.35,12.59,12.59,0,0,0-.15-4.93,6.68,6.68,0,0,0-2.87-3.51,5.51,5.51,0,0,0-1.67-.81,5.91,5.91,0,0,0-3.78.33,8.32,8.32,0,0,0-3.91,2.93c-.32.46-.7.34-1.09.37-1.39.08-2.72.5-4.09.69S123,54.4,122.45,53A12.61,12.61,0,0,0,121,50.66a.91.91,0,0,0-.6-.12,42,42,0,0,1-8-.06,15.1,15.1,0,0,1-6.47-2.6,10.92,10.92,0,0,1-3.82-4.79,14.82,14.82,0,0,1-1-3.92,9.88,9.88,0,0,1-.3-2.31A24.71,24.71,0,0,1,101.9,30a25.84,25.84,0,0,1,1.26-2.8c.5-1,.93-2,1.53-2.93s1.28-1.91,2-2.82a21.76,21.76,0,0,1,4.61-4.63c.87-.62,1.81-1.16,2.69-1.78a33.26,33.26,0,0,1,7-3.49,23.5,23.5,0,0,1,4.91-1.36c.63-.11,1.21-.37,1.85-.47,1-.17,2-.39,3.08-.47,1.6-.11,3.18-.4,4.78-.5a26.37,26.37,0,0,1,3.77.07,56.77,56.77,0,0,1,8.09,1.29c.07,0,.16,0,.32-.06a7,7,0,0,0-.55-1.63A27.81,27.81,0,0,0,142.61,2c-.47-.51-1.25-.66-1.61-1.32C141,.66,140.84.65,141.15.6Z"/>
  <g class="hairOverlapLine">
    <path d="M147.77,9.52A31,31,0,0,1,149.39,14a6.4,6.4,0,0,1,.08,1.38"/>
    <path d="M123.82,50.19a19.09,19.09,0,0,1-2.93.38"/>
  </g>
</svg>
