<svg class="bennettOdinDepths" 
    xmlns="http://www.w3.org/2000/svg" viewBox="0 0 1226.68 2403.26">
    <title>Bennett Odin depths</title>
    <path class="fur" d="M501.1,1156.71c-10.75,6.85-22.53,11.24-34.4,15.76-14.68,5.58-30.13,6.64-45.13,10.13-2.65.62-5.64-.4-8.47-.35-8,.12-15.94,1-24,.67-14.2-.49-28.34-2.16-42.5-2.39-6.86-.11-14-.78-21,1.54-13.25,4.37-22.95,18.63-18.12,33.2,4.07,12.28,13.61,17.72,24.18,22.42,11.05,4.92,22.71,7.84,34.44,10.71,7,1.72,14,2.1,21.05,2.82,2.83.29,5.68.57,8.5,1,16.67,2.59,32.5-2.23,48.5-5.53,13-2.69,25.76-6.63,38.51-10.45,3.84-1.15,7.28-3.4,11.48-3.64,2.26-.12,2.89-1.93,3.12-4.39,1.22-13,2-26,3-39,.62-8.33,2-16.62,1.86-25,0-2.58,1.57-4.93.2-7.83-.85-1.8,1.2-3,3.32-2.67Z"/>
    <path class="jeans" d="M640.1,1458.71c1.87,2.23,1.21,4.94,1.55,7.5.84,6.18,2.2,12.31,2.89,18.51,1.2,10.81,2.08,21.66,3.05,32.49.87,9.67,1.16,19.42,2.63,29,2.15,14,3.79,28.08,6,42.08,2.6,16.23,5.32,32.51,7.07,48.92,1,9.16,3,18.47,2.87,27.52-.19,12,2.18,23.82.43,36.08-1.34,9.42-3.79,18.35-6.1,27.41a29.66,29.66,0,0,0,4.08,24.5,12.14,12.14,0,0,0,2,2.49c5.51,4.91,5.08,10.75,3.06,17-.64,2-.2,4.34-.61,6.47-2.49,13.14-4.11,26.42-6.77,39.54-1.14,5.64-1,11.64-1.61,17.47-1.17,11.72-3,23.34-4.47,35-.71,5.6-.44,11.31-1,17-1,11.49-2.93,22.91-3.21,34.48a119.2,119.2,0,0,1-1.53,17c-1.22,7.14-1.33,14.39-2.6,21.57-1.08,6.18-1.53,12.62-2.31,18.94-1.7,13.82-3.78,27.53-7.3,41.06a71.63,71.63,0,0,0-2.07,13.45c-.44,7.22-3.12,13.76-5.18,20.48a314.59,314.59,0,0,0-9.47,38c-1.61,9.18-2.48,18.24-.12,27.54,1.51,6,5,10.53,8.71,14.9,5.87,6.82,12.58,12.6,21.39,15.66,4.65,1.61,9.4.91,14.08,1.63,7,1.09,14.31.81,21.47,1.07,9.33.34,18.64,1.1,28,1.42,12,.41,24,1.85,36,1.78,2.38,0,4.64.81,7,1.14,13.21,1.86,24.56-2.53,36.15-8.37,9.1-4.57,14.74-11.7,19.16-19.88,3.55-6.57,4.29-14.34,4.69-21.89.57-10.66.47-21.4,1.72-32,.76-6.34,1.82-12.63,1.79-19,0-5.17-.17-10.29.23-15.52.66-8.7,2.13-17.36,2.44-26a148.67,148.67,0,0,1,2.37-19c1.9-11.69,4-23.34,6-35,1.66-9.66,3.35-19.33,5-29,1.19-7,2.47-14,3.48-21,1.8-12.61,5.25-24.87,7.3-37.45,1.88-11.5,3.26-23.07,5.16-34.56,1.34-8.11,2.08-16.32,3.07-24.49,1.13-9.43,3-18.72,4.87-28,1.48-7.37,1.95-15,2.6-22.48,1.52-17.87,2.88-35.73,5.39-53.52,1.42-10.06,1.5-20.31,2.13-30.48,1-17.11,3.94-34,6.16-51,1.6-12.17,2.71-24.45,5-36.49,2.16-11.29,3.27-22.73,4.46-34.07,1.18-11.09,2.12-22.3,3.13-33.43,1.24-13.67,1.21-27.42,3.15-41a143.17,143.17,0,0,0,1.49-21,233.81,233.81,0,0,1,2.38-32.46c2.23-16.49,2.57-33,3.7-49.54,1.25-18.33,2.38-36.66,3.5-55,.43-7,.11-14.09,1.18-21a145.35,145.35,0,0,0,1.62-20.53c.13-9.91-1.42-19.8-3.72-30-13.51-2-27.07-3.85-40.55-6.08-15-2.49-30-4.69-45-7.07s-30-4.7-45-6.95c-13.71-2.05-27.32-4.75-41-6.9-14-2.18-28-4-42-6.06-15-2.24-30-4.5-45-7s-30-4.77-45-7.05-30-4.8-45-7c-13.72-2-27.31-4.83-41-6.8a148.15,148.15,0,0,1-15.24-2.61c-5.78,4.72-9.85,10.89-13.93,17.37-7,11.11-11.88,23.25-18.13,34.71-4,7.3-5.87,15.71-9.25,23.37-5.84,13.21-10.17,27-14.88,40.55-3.42,9.86-5.07,20.25-9,30-3.3,8.31-5.2,17.2-8.73,25.4-5,11.67-8.77,23.77-13.18,35.63-4,10.83-8.94,21.24-13.07,32-3.7,9.62-5.78,19.9-9.77,29.39-5.8,13.79-9.92,28.16-15.36,42.06-2.47,6.32-5.8,12.34-8.21,18.61-2.83,7.33-5.52,14.79-8.93,21.82-5.53,11.39-10.17,23.17-16.49,34.28-4.62,8.13-11.72,13.94-16.37,21.78-6.09,10.28-9.4,20.85-3.79,32.82-4.5,3.54-10.14,5.18-14.78,8.57a69.31,69.31,0,0,0-9.26,8.27c-3.25,3.39-7,6.75-9.39,10.52-4.94,7.7-11,14.58-15.69,22.37A269.9,269.9,0,0,1,252,1707.12c-3.14,4-5.16,8.71-8.41,12.57-9.31,11-18.24,22.44-27.2,33.74A275.13,275.13,0,0,0,194,1785.62a76.13,76.13,0,0,1-10.32,14.12c-7.74,8.18-14.13,17.49-21.36,26.12-8.13,9.7-16.21,19.44-24.69,28.84-13.86,15.36-28.31,30.26-40.29,47.15-5,7.07-7.17,15.58-6.39,24.88.85,10.11,2.95,20,4.1,30a5.64,5.64,0,0,0,2.1,4c12.5,10.84,25.05,21.61,37.48,32.52,9.58,8.41,19,17,28.52,25.47,5.3,4.71,10.62,9.4,16,14,2.1,1.78,5,2.29,7.48,2.39,8.44.33,16.72-.08,25.07-2.63A85.78,85.78,0,0,0,236,2020.05c7.13-5,12.4-11.94,16.78-19.74s9.75-15.18,13.44-23.55c3.21-7.25,8.43-13.33,13.28-19.63,8.26-10.7,17.28-20.76,26.28-30.77s17.67-20,26.17-30.28c10-12,20.52-23.52,30.87-35.18,8-9,16.52-17.68,23.54-27.37,6.79-9.37,15-17.57,21-27.69,3.82-6.52,9.77-11.8,14.78-17.63,1.15-1.34,2.83-2.48,3.41-4,1.83-4.92,5.05-8.88,8.65-12.4,6.13-6,8.93-14.21,14.44-20.57,8.08-9.34,14-20.25,21.52-30,3-3.93,6.45-7.58,9.45-11.54,6.12-8.08,11.34-16.77,16.6-25.43a181.7,181.7,0,0,1,11-15.52c6.39-8.42,13.92-16.13,19.24-25.16,7.53-12.8,18-23.37,25.57-36,7.44-12.38,16.26-23.89,22.7-36.89,3.06-6.18,7-11.84,10.85-17.59,4.47-6.69,7.89-14.06,12.15-20.9,11.16-18,21.28-36.52,31.39-55.06,3.35-6.16,6.34-12.52,10.11-18.44a8,8,0,0,0,1-4.53Z"/>
    <g class="jeansOverlapLine">
        <path d="M637.1,1424.21c.83,7,1.38,14,2.59,21a89.29,89.29,0,0,1,1.41,15"/>
        <path d="M768.6,1438.71a53.76,53.76,0,0,1-7,2,165.1,165.1,0,0,1-28,2c-11.19-.27-22-2.5-33-3.32-6.27-.48-11.76-3.8-18-4.11a8.34,8.34,0,0,1-4,0,200.61,200.61,0,0,0-29-8c-7.86-1.67-15.64-3.77-23.51-5.44-14.1-3-28.44-4.68-42.52-7.91a166.51,166.51,0,0,1-29.33-9.45c-11.37-5-21.3-13-31.08-20.75-1.67-1.34-4.24-2.48-4.06-5.42"/>
    </g>
    <g class="jeansFoldLine">
        <path d="M812.6,1767.21c-12.68-12-27-21.51-44-25.88-12.08-3.1-24.56-2.85-37-2.12-19,1.13-35.74,9.1-52.45,17.1-2.45,1.18-5.21,2.75-6,5.9"/>
        <path d="M448.1,1708.21c-1.64-9.74-7.48-17.49-12.61-25.43-8.25-12.74-19.72-22.39-32.41-30.54a174.3,174.3,0,0,0-39.36-18.39c-15-5-29.6-4.71-44.61-2.08-.41.07-.68.94-1,1.44"/>
    </g>
    <path class="skin" d="M1077.1,324.21c-9.67,3.84-19.32,7.72-29,11.49q-27.72,10.8-55.5,21.51-33.23,12.8-66.49,25.5-32.51,12.5-65,25-28.51,11-57,22-16.25,6.27-32.5,12.5c-3.28,1.27-4.35,3.12-3.7,7,.83,5-.1,10.32.26,15.46.9,13.26-1.79,26.09-4,39-.43,2.51-2.27,3.83-3.63,5.44q-20.19,23.9-39.47,48.52c-2,2.6-4.87,4.54-6.45,8.07,6.68,4.19,14.19,7.36,21.47,11C758.47,588,780.91,599.11,803,610.89c6.2,3.3,12.16,2.43,18.07,1.61,6.83-1,13.72-1.61,20.53-2.79s13.69-1.83,20.53-2.79c6.11-.85,12.33-1.3,18.47-2.22,9.65-1.45,19.36-2.51,29-3.77,6.61-.87,13.25-2,20-2.26,3.33-.15,6.62-.91,10-1.13,3-.19,5.37-1.91,7.17-5.24,9.49-17.68,19.85-34.91,29.23-52.65,7.18-13.59,14.79-26.93,22.16-40.41,9.45-17.28,19.75-34.12,28.78-51.61,6.13-11.86,13.78-22.91,18.73-35.39.54-1.35,1.89-2.4,2.94-3.52,7.56-8.06,13.37-17.31,18.46-27,4-7.65,7.82-15.4,9.56-24,1.94-9.58,4-19.15,3.4-29-.1-1.81.21-4.24-2.42-5Z"/>
    <path class="skinOverlapLine" d="M955.1,441.21c-1.45,3.91.45,7,2.5,10l3,4.5"/>
    <path class="shirt" d="M908.1,1293.21c5.3-4.9,5.25-11.64,5.93-18,1-9.48.33-19,.15-28.5-.18-9.34-.65-18.73,1.39-28,1.51-6.91.45-14,2.25-21.07,3.31-13.08,4.93-26.6,7.28-39.93,1-5.5,2.38-11,2.88-16.51.4-4.48.51-9,.91-13.51.54-6.08,2.67-12,2.57-18-.17-9.08,1.18-18,1.55-27,.55-13.36,3-26.58,2.62-40-.07-2.83.3-5.66.47-8.5v2.5c5-.65,8.09-4.66,11.87-7.19,12.67-8.49,24.72-17.91,37.24-26.65,1.27-.88,1.91-1.26,1.89-2.66,0-1,0-2,0-3q0-136.25.08-272.5c0-3.79-.94-5.76-4.52-7.62-24.95-12.94-49.68-26.3-74.58-39.35-16-8.37-31.87-16.91-47.93-25.14-21.89-11.22-43.35-23.29-65.07-34.86-15.26-8.13-30.84-15.69-45.89-24.2-5.7-3.23-11.94-5.57-17.14-9.77-1.75-1.41-4.23-1.06-6.45-1.06-28.34,0-56.67.06-85-.08a7.54,7.54,0,0,0-6.5,3.09c-12,15-24,30-36,45-10.42,12.9-21,25.68-31.48,38.51-3.57,4.37-4,10-5.89,15-2.47,6.48-3.72,13.43-6.19,19.92-5.15,13.5-8.08,27.63-11.14,41.59a469,469,0,0,0-7.45,47.92c-.92,8.17-2.49,16.31-2.73,24.53a311.79,311.79,0,0,1-2.65,35.49c-1,7.15.77,14.56-2.32,21.56-.72,1.61.28,3.94.35,5.94.45,11.87-1.65,23.62-1.66,35.5,0,10.5-1.66,21-2.26,31.51-.34,6-2,11.85-1.64,18,1.07,16.63-1.64,33-3.53,49.48-.91,7.84-1.46,15.8-3.09,23.47-1.93,9.16-3.78,18.49-4.76,27.6s-4.09,17.57-5.65,26.42c-1.53,8.68-4.84,17.06-6.5,25.6s-3.89,17-5.94,25.41a141.35,141.35,0,0,0-4.16,28c-.35,9.62,1.35,19.1,7.52,27.63,6.71,9.28,14.45,17.63,21.39,26.59,11.8,15.26,26.29,27.36,41.52,38.47,9.12,6.66,18.46,13.29,29.09,18.2,13.29,6.14,27,11.35,40.13,17.72a181.92,181.92,0,0,0,42.62,14.6c11,2.26,21.77,5.45,32.93,6.81a254,254,0,0,0,49,1.2c10.86-.77,21.47-1.92,32-4.65,14.23-3.68,27.21-10.09,40-17.09,10.53-5.78,21.22-11.31,31.44-17.6a119.56,119.56,0,0,1,25.6-11.79,26.51,26.51,0,0,1,17.9.06c5.13,2,6.75,7.66,6.75,12.34,0,4.42,1.24,9.12-.68,13.5Z"/>
    <path class="hair" d="M692.6,317.71c-1.67-13.35-.87-26.68.49-40,.7-6.83,1.16-13.69,2.06-20.49.94-7.2,2.38-14.33,3.43-21.51,1.9-13.14,8-24.71,13.52-36.5,3.56-7.6,9-14,13.68-20.87a235.94,235.94,0,0,1,20.42-25.53c6-6.64,12.87-12.46,19.4-18.59,7-6.57,15.68-10.81,23.21-16.74,5.76-4.53,13.47-6.56,20.28-9.78a169.18,169.18,0,0,1,44-14c7.93-1.36,16-1.55,24-2.33,13.83-1.35,27.38.37,41,1.34,4.82.34,9.07,2.74,13.53,4.38,1.86.68,3.82,1.69,6.69.59-2.66-37.09-18.67-68-45.69-93.55,1.71-3.45,3.27-3.68,6.53-2.63,10.11,3.22,18.54,9.38,27.4,14.74,10.21,6.17,20.21,12.67,28.57,21.4a139,139,0,0,1,22.66,31.93C982.86,79.27,986,89.48,989,99.75c1.19,4.09.87,8.63,1.12,13,.29,5,3.06,6.83,6.95,3.91,5.94-4.43,13.19-5.68,19.53-9,10.75-5.62,22.48-5.95,34-6.81a76.81,76.81,0,0,1,41.93,8.5c4.37,2.3,8,5.91,12.06,8.88a2,2,0,0,1,.94,2.49,2.76,2.76,0,0,1-2.94,1.55c-3-.25-6-.14-9-.57-12.43-1.78-23.78,1.8-35,6.48-4.83,2-9.79,3.59-13.47,7.56,15.63,10.79,27.93,25,40.63,38.88a145.38,145.38,0,0,1,18.74,26.2c6.52,11.4,12.65,23.29,15.88,36,4.54,17.85,5.4,36.21,1.21,54.42-2.91,12.67-7.06,25.13-17.13,33.82a53.07,53.07,0,0,1-26.32,12.24c-6.5,1.05-12.7,3.63-19.52,3.07-2.46-.2-4.59,1.48-6,3.86a220.69,220.69,0,0,1-26.49,35.51,52.76,52.76,0,0,1-3.94,3.53,9.69,9.69,0,0,1-7.46-4.08c-11.7-14.67-29.3-12.47-39.61,0-12,14.57-18,31.39-19.5,50a62.08,62.08,0,0,1-1.57,11c-1.06,4-4.13,6.62-7.38,9.05-5.69,4.26-11.47,8.16-18.5,10.05-5.7,1.53-10.7,5-16.52,6.45-14.77,3.58-29.34,8.18-44.51,9.91-9.78,1.11-19.59,2.45-29.49,1.55-6.39-.58-12.66.87-19,1a102.91,102.91,0,0,1-31.54-4.37c-7.8-2.27-13.29-7.52-19.55-12-10-7.22-17.08-17.28-25.89-25.64-7.18-6.82-13-15-18.22-23.17-7.75-12.13-14.85-24.88-19.33-38.8-2.86-8.88-6.52-17.53-8.81-26.55-2-7.8-2.6-15.94-3.58-24-.22-1.76.57-3.66.93-5.48a.7.7,0,0,1,.49-.47c.16,0,.33.3.5.46Z"/>
    <g class="hairOverlapLine">
        <path d="M1015.1,331.21c.26,1.72,1.81,2.08,3,2.45,7.72,2.42,15.44,4.91,23.49,6,4,.56,7.94,1.42,12,1"/>
        <path d="M1044.1,134.21c-3.84,4-7.46,8.24-11.56,11.94-5.32,4.82-8.28,11.16-11.94,17.06"/>
        <path d="M938.1,98.21c-.57,6.16.65,12.35-.44,18.51-.28,1.55-.33,2.93-2.06,3.49"/>
    </g>
    <path class="sleeves" d="M564.6,673.71c1-.23,1.71,1.3,3.16-.35a53,53,0,0,1,5.9-6.08,373.88,373.88,0,0,1,33.44-24.56c12.43-8,24.23-17,37.57-23.36,17-8.05,33-18.86,52.42-20.71.38,0,.67-.94,1-1.44l2.5,1.5c8.53,4.14,16.38,9.47,24.87,13.76,10.67,5.39,21.9,8.67,33.12,12.26a199.9,199.9,0,0,0,44,8.51c4.69.41,7.51,3.58,6.84,10-1.21,11.45,3.6,22,4,33,.47,13,6,24.61,8.86,36.95,1.43,6.24,4.64,12.12,7.36,18,3.75,8.14,9.28,15.46,11,24.51a5.76,5.76,0,0,0,1.48,2.5c8.09,9.11,14.13,19.83,23.38,28.13,14.29,12.81,28.89,24.88,47,32,3.44,1.35,6.45,4,10.08,5.29.34.12,1-.6,1.48-.94l-1,1.5c.33,10.84-.22,21.79,1.23,32.47,1.62,11.84,1,23.81,2.93,35.51,1.78,10.69.21,21.37,1.23,32,1,10.46.57,21,1.73,31.48,1.84,16.47,2.6,33,3.35,49.51.42,9.34.11,18.75,1.64,28,.92,5.57,4.38,10.32,8,14.43,8.74,10,18.48,18.37,31.83,22.31,11,3.25,21.17,1.45,31.57-1.69,13.49-4.07,25-11.86,36.45-19.6a29.55,29.55,0,0,0,10.67-13.07c4.76-12.58,11.39-24.5,13-38.34,2.57-21.45,5.68-42.84,4.27-64.51-.74-11.35-1.18-22.7-2.65-34-1.23-9.45-3.14-18.86-3.39-28.46-.14-5.21-1.85-10.28-2.51-15.49-1.11-8.89-3-17.68-4.33-26.53a6.16,6.16,0,0,1,.39-4c7.41-14,14.56-28.06,22.18-41.9a7,7,0,0,0,.27-6.54c-7.9-19.8-14.66-40-21.89-60-3.73-10.31-7.08-20.77-11.13-31-1.78-4.46-6.73-6.28-10.42-9q-33.63-24.67-67.47-49c-14.8-10.71-29.66-21.34-44.49-32-1.35-1-2.61-2.06-3.67-2.9-12.74,3.62-25.48,5.32-38.33,6.41-15.89,1.33-31.72.09-47.49-1.58-8.34-.88-17.11-.41-24.89-2.8-9.8-3-19.94-4.32-29.77-7.07-9.32-2.61-18.32-6-27.22-9.39a37.8,37.8,0,0,1-17-12.79c-2.78-3.86-6.07-3-9.15-2.61a35.71,35.71,0,0,1-4.53.71c-12.7.12-25.31,1.73-38,2.22-9.32.36-18.62,1.94-28,1.8-10.87-.17-19.93,5-27.86,11.19-16.81,13.14-33,27.22-44,45.91-5.51,9.42-11,18.91-14.94,29.3-3.15,8.27-6.19,16.41-7.71,25.11Z"/>
    <path class="sleevesOverlapLine" d="M921.1,768.21c0,18.69.85,37.35,2,56"/>
    <g class="fur">
        <path d="M1063.6,681.21c4.84,1.81,8.61-1.91,13-2.52,12.05-1.7,22.44-7.33,31.39-15.12,6.73-5.86,14-11.15,19.78-18.22,6.92-8.39,14.9-15.93,20.81-25.15,3.81-6,7.13-12.16,12.47-17.06,3.64-3.33,7.87-5.5,12-8,12.81-7.9,26-15.08,36.86-26.1a118.68,118.68,0,0,0,13.66-17.32c3.21-4.73,2.85-6.33-1.46-9.95-5.11-4.29-11.26-6.38-17.45-8.64-10.34-3.79-21-6.45-31.57-9.28a64,64,0,0,0-12.48-1.56c-7.85-.49-14.5-2.3-20.74-8.28-8.23-7.87-14.47-17.49-23.24-24.77-10.4-8.63-20.7-17.35-31.3-25.75-5.92-4.69-12.31-8.61-18.29-13.13-4.42-3.35-5.83-7.4-6-12.61-.25-8.31-2.34-16.37-3.89-24.5-2.08-10.85-4.08-21.56-9.32-31.61A26.6,26.6,0,0,0,1034,368.93c-4.9-2.05-10.3.47-13.78,3.92-8.43,8.37-16.53,17.27-22,27.92-4.92,9.54-10.91,18.64-14.87,28.54-5.87,14.68-16.94,24.27-28,34.69-9.45,8.92-18.86,18.2-26.06,29.53-4.23,6.65-8,13.6-11.91,20.36-3.74,6.43-5.36,14.18-6.34,21.82-.64,5-1.67,10-2.45,15-1.14,7.31-.74,14.7-.39,22,.52,11,2.27,21.94.46,33-.71,4.29.94,8.6,2.55,12.43a80.23,80.23,0,0,0,20.87,29.55c5.67,5,11.07,10.35,17.08,14.9a89.25,89.25,0,0,0,17.35,10.75,142.18,142.18,0,0,0,19.09,6.78c10.12,2.9,20.61,2.28,31,1.91,1.88-.07,3.06-.11,4.54,1.12a95.31,95.31,0,0,1,19.61,23,110.5,110.5,0,0,1,13,27.07c.76,2.51.47,4.51-1.63,5.45-12.59,5.68-15.85,17.49-17.66,29.12a83.65,83.65,0,0,0,1.74,33.44c1.31,5.12,4.28,9.51,6.95,14s4.1,9.69,8.38,13.63c10,9.21,21.55,12.34,34.62,10.82a72.23,72.23,0,0,0,34.45-13c6.33-4.56,9.58-11.65,10.9-19,3.35-18.57-.76-36-8.66-53-5.19-11.18-12.62-20.62-19.72-30.39-6.5-9-13-18-20.08-26.42-4.69-5.55-10.55-10.11-15.88-15.11Z"/>
        <path d="M644.1,512.71c-4.86,3.78-10.34,6.84-13.52,12.49-6.45,11.46-8.82,23.23-6.26,36.57,2.11,11,8.76,15.94,18.31,18.3,4.64,1.15,9.63.93,14.47,1.12,14.09.56,27.72-2.72,41.55-4.61,11.1-1.53,20.38-6.71,30.46-10.34,14.5-5.23,20.71-17.07,25.62-30.48,3.44-9.4,5.77-19.08,9.28-28.7-2.07-.13-3.74-.3-5.41-.34-16-.35-32-.52-48-1.08a165.63,165.63,0,0,1-22.48-2.05c-10.57-1.82-20.18,1.32-30,4-4.72,1.28-8.92,3.6-13.47,5.12Z"/>
    </g>
    <path class="furOverlapLine" d="M1063.6,681.71c-9.63,2.22-19.33.57-29,.48-4.34,0-8.67-.31-13-.48"/>
    <g class="shoe">
        <path d="M613.6,2299.71c-.87,2.91,1.34,5,2.11,7.48,11.66-2,23.53-3.16,35.37-4.6,10.51-1.28,21-2.7,31.51-3.94,11.87-1.4,23.66-3.39,35.51-4.9,9.31-1.19,18.68-1.9,28-3.08,8.5-1.07,16.94-2.41,25.5-3,6.48-.47,7.53-6.29,8.35-10.94a165,165,0,0,0,2.09-37.47c-1-18.13-4.27-36-6.32-54-1.38-12.13-4.93-23.91-5.87-36-.58-7.37-2.62-14.31-3.88-21.45-.81-4.57-4.86-7-8.86-9-7.71-3.9-15.45-8.19-24-9.31-11.06-1.44-22-3.69-33.54-1.52-12.14,2.28-23.29,6.45-34.48,11.24-7.65,3.27-11.5,9.55-13.11,16.68-.92,4.1-2.09,8.29-3.07,12.37-3.76,15.55-6.85,31.26-11.52,46.63-2.86,9.4-6,18.68-9.26,27.92-4.39,12.39-7.34,25.15-10,38-2.24,10.77-4.38,21.54-5.57,32.49-.24,2.17-.75,4.11.6,6Z"/>
        <path d="M147.6,2147.21c4-7.6,5.88-15.93,8.43-24,3.92-12.42,6.24-25.48,11.41-37.33,4.64-10.61,9.3-21.3,14.44-31.75,8.06-16.38,18.05-31.92,23.6-49.44,3.1-9.81,5.25-19.89,4.73-30.46-.79-15.8-7.85-28-19.61-38-12-10.19-26.26-15.9-41.55-18.19-5.53-.83-12.13.93-17.35,3.4-12.84,6-24.35,14-33.78,25.13-6.59,7.77-14.81,14.17-22.33,21.15-10.42,9.67-20.7,19.41-28.65,31.4-1.91,2.87-1.39,4.42.15,6.6q25.26,35.74,50.5,71.51,25,35.47,50,71Z"/>
    </g>
    <g class="soleSide">
        <path d="M621.1,2277.21c-.51,5.34-3.81,9.63-5.71,14.42-2.5,6.33-6.84,11.91-9.71,18.12-5.55,12-9.3,24.35-8.34,38,.35,4.89-.37,10.09.4,15,1.51,9.52,1.88,12.72,11.65,20.85,14.16-4.47,28.19-8.87,42.21-13.33q25.75-8.21,51.49-16.51,28.27-9.16,56.5-18.5c2.51-.82,5.17-2,7.53-2.25,7.53-.87,8-6.3,9-11.74,1.84-9.92,2-20,2.45-30a66,66,0,0,0-1.58-17.47c-2.07-9.34-9.84-13.69-17.38-18-20.75-11.92-43.21-17.66-67-19.06-15.08-.89-29.71,1.13-42.86,8.33-7.74,4.23-15.58,9.31-20.2,17.7-2.62,4.78-6.4,8.89-8.44,14Z"/>
        <path d="M118.6,2198.71a14,14,0,0,0,9-5.47c3.28-4.48,7.67-8.18,10.79-12.64,7.89-11.27,11.69-23.73,9.88-37.91-.9-7.08-3.93-13.45-4.84-20.46a52.79,52.79,0,0,1,.29-16c1.7-9.64,2.78-19.47,2-29-.9-10.75-4.65-20.93-10.33-30.72-6.62-11.4-15.14-20.83-24.45-29.68-4.88-4.64-11.4-7.35-17.35-10.68-10-5.61-21-8.55-32.05-10.82-7.22-1.48-14.27.08-18.91,6.42-10.56,14.4-20.85,29-26.23,46.4-1.41,4.58-.84,7.32,2,11.15q44.34,59.27,88,119c4.88,6.68,9.83,13.08,16.13,18.41Z"/>
    </g>
    <g class="soleBottom">
        <path d="M609.1,2381.71c5.24,8.24,14.2,10,22.49,13,11.48,4.13,23.51,5.09,35.49,6.61,13.26,1.68,26.45.88,39.49-.81,14.11-1.82,28.49-3.42,41.5-9.87,12.41-6.15,22.16-15.2,25.87-29a37.54,37.54,0,0,0-.17-20.51,19.7,19.7,0,0,1-.35-6.46c.94-14-2.58-26.85-11.38-37.94a23.1,23.1,0,0,0-8.92-7.11c-6.43-2.76-12-7.34-19-9-18.17-4.21-36.32-6-55.05-3.32-6.32.9-12.29,2.68-18.47,3.77-8.14,1.45-15.09,4.57-20.52,11-5.76,6.87-9.27,14.47-9.49,23.53-.12,4.89-.38,9.72-1.87,14.53-2,6.61-7,11-11.11,16-5.26,6.41-9.38,13.34-11.6,21.47-1.33,4.89,1.38,8.71,2.11,13Z"/>
        <path d="M120.1,2139.21c-.55-12.83.39-25.75-.35-38.48-.94-16.13-7.43-30.64-19.07-42.59-7.46-7.65-15.47-15.14-24.77-19.52-13.07-6.15-27.26-11-42.32-5.43-8,3-13.49,8.43-18.1,15.45s-4.05,14.33-4.08,22.07c0,10.81-.32,21.64-4.58,32.1-2,4.94-5.08,9.51-5.51,15.38-.39,5.27-.61,10.59.48,15.48,3.35,15.07,10.64,28.6,19,41.44,2.88,4.46,7.33,8,11.39,11.56,7.57,6.69,14.77,13.85,23.93,18.59a85.86,85.86,0,0,0,34.54,9.66,29.59,29.59,0,0,0,22.65-8c6.35-6,10.13-13.19,13.81-20.68a18.87,18.87,0,0,0,1.55-8c.25-11.79-3.48-22.69-7.61-33.46a14.4,14.4,0,0,1-.91-5Z"/>
    </g>
</svg>
