<svg viewBox="0 0 755.58 1480.52">
  <path class="fur" d="M308.63,712.58c-6.62,4.22-13.88,6.93-21.19,9.71-9.05,3.44-18.56,4.09-27.81,6.25-1.63.38-3.47-.25-5.22-.22-4.93.07-9.82.58-14.79.41-8.75-.3-17.46-1.33-26.19-1.47-4.23-.07-8.63-.48-13,1-8.16,2.69-14.14,11.48-11.16,20.45,2.5,7.57,8.38,10.92,14.89,13.82,6.81,3,14,4.83,21.22,6.6a94.09,94.09,0,0,0,13,1.73c1.75.18,3.5.35,5.24.63,10.27,1.6,20-1.37,29.88-3.41,8-1.66,15.88-4.08,23.73-6.44,2.37-.71,4.49-2.09,7.08-2.24,1.38-.08,1.77-1.19,1.92-2.71.75-8,1.25-16,1.85-24,.38-5.13,1.21-10.23,1.15-15.4,0-1.6,1-3.05.12-4.83-.53-1.11.74-1.83,2-1.64Z"/>
  <path class="bennettJeans" d="M394.28,898.66c1.15,1.37.74,3,1,4.62.52,3.81,1.36,7.58,1.78,11.4.74,6.66,1.28,13.35,1.88,20,.54,6,.72,12,1.62,17.86,1.33,8.63,2.34,17.3,3.72,25.92,1.61,10,3.28,20,4.36,30.15.6,5.64,1.86,11.38,1.77,16.95-.12,7.4,1.34,14.68.26,22.23a157.1,157.1,0,0,1-3.75,16.89,18.27,18.27,0,0,0,2.51,15.1,7.31,7.31,0,0,0,1.23,1.53c3.39,3,3.13,6.62,1.89,10.5-.4,1.25-.13,2.68-.38,4-1.53,8.1-2.53,16.28-4.17,24.37-.7,3.47-.63,7.17-1,10.76-.73,7.22-1.85,14.38-2.76,21.57-.43,3.45-.27,7-.59,10.47-.64,7.09-1.8,14.12-2,21.25a73.4,73.4,0,0,1-.94,10.47c-.75,4.4-.82,8.86-1.6,13.29-.67,3.81-.95,7.77-1.42,11.67a195.83,195.83,0,0,1-4.5,25.29,44.17,44.17,0,0,0-1.28,8.29c-.27,4.45-1.92,8.48-3.19,12.62a194.5,194.5,0,0,0-5.83,23.42c-1,5.66-1.53,11.24-.08,17,.94,3.68,3.06,6.49,5.37,9.18,3.61,4.2,7.75,7.77,13.18,9.65,2.86,1,5.79.56,8.67,1,4.33.67,8.82.5,13.23.66,5.75.21,11.49.68,17.24.88,7.39.25,14.77,1.14,22.19,1.1a30.1,30.1,0,0,1,4.3.7c8.14,1.14,15.13-1.56,22.28-5.16,5.6-2.82,9.07-7.21,11.8-12.25,2.19-4,2.64-8.84,2.89-13.48.35-6.57.29-13.19,1.06-19.71a95.81,95.81,0,0,0,1.1-11.72c0-3.19-.1-6.34.14-9.56.41-5.36,1.31-10.69,1.5-16a94,94,0,0,1,1.46-11.7c1.18-7.2,2.45-14.38,3.68-21.57,1-6,2.07-11.91,3.08-17.87.73-4.31,1.52-8.61,2.14-12.94,1.11-7.76,3.24-15.32,4.5-23.07,1.16-7.09,2-14.21,3.18-21.29.83-5,1.28-10.06,1.89-15.09.7-5.81,1.84-11.54,3-17.27a120.8,120.8,0,0,0,1.6-13.85c.94-11,1.78-22,3.33-33,.87-6.2.92-12.52,1.31-18.79.65-10.54,2.43-21,3.8-31.41,1-7.5,1.66-15.06,3.08-22.48,1.34-7,2-14,2.76-21s1.3-13.74,1.92-20.6c.77-8.42.75-16.9,1.95-25.29a88.84,88.84,0,0,0,.91-12.93,144.66,144.66,0,0,1,1.47-20c1.37-10.16,1.58-20.35,2.28-30.52Q556.24,834,557.24,817c.26-4.31.06-8.68.72-12.92a90.2,90.2,0,0,0,1-12.65A79.25,79.25,0,0,0,556.67,773c-8.33-1.24-246.24-38.34-249.43-39.14-3.56,2.91-6.07,6.71-8.58,10.7-4.32,6.85-7.32,14.33-11.17,21.39-2.45,4.5-3.62,9.68-5.7,14.4-3.6,8.14-6.27,16.6-9.17,25-2.11,6.08-3.12,12.48-5.52,18.5-2,5.12-3.2,10.6-5.38,15.65-3.09,7.19-5.41,14.65-8.12,22-2.47,6.67-5.51,13.08-8,19.7-2.29,5.93-3.57,12.26-6,18.1-3.58,8.51-6.11,17.36-9.47,25.92-1.52,3.9-3.57,7.61-5.06,11.47-1.74,4.52-3.4,9.11-5.5,13.44-3.4,7-6.26,14.28-10.16,21.12-2.85,5-7.22,8.59-10.09,13.42-3.75,6.34-5.79,12.85-2.33,20.22-2.77,2.19-6.24,3.2-9.11,5.29a42.15,42.15,0,0,0-5.7,5.09c-2,2.09-4.29,4.16-5.79,6.48-3,4.75-6.78,9-9.67,13.79a167,167,0,0,1-11.51,16.24c-1.93,2.49-3.18,5.37-5.18,7.75-5.74,6.81-11.24,13.82-16.76,20.79a169.55,169.55,0,0,0-13.82,19.83,46.79,46.79,0,0,1-6.35,8.7c-4.78,5-8.71,10.78-13.17,16.09-5,6-10,12-15.21,17.77-8.54,9.47-17.44,18.65-24.82,29A22.63,22.63,0,0,0,55.89,1187c.52,6.23,1.82,12.31,2.53,18.49a3.47,3.47,0,0,0,1.29,2.45c7.7,6.68,15.43,13.32,23.1,20,5.9,5.18,11.7,10.47,17.57,15.69,3.26,2.91,6.54,5.8,9.87,8.62a7.6,7.6,0,0,0,4.61,1.47,45.83,45.83,0,0,0,15.44-1.62,53.15,53.15,0,0,0,15-7.63,35.8,35.8,0,0,0,10.33-12.17c2.73-4.85,6-9.35,8.29-14.51,2-4.47,5.19-8.21,8.18-12.09,5.09-6.6,10.65-12.79,16.19-19s10.89-12.34,16.12-18.66c6.15-7.41,12.65-14.49,19-21.68,4.92-5.54,10.17-10.89,14.5-16.86,4.18-5.77,9.26-10.83,12.92-17.06,2.36-4,6-7.27,9.11-10.86.71-.83,1.74-1.53,2.1-2.49a21.13,21.13,0,0,1,5.33-7.64c3.78-3.69,5.5-8.75,8.89-12.67,5-5.75,8.62-12.48,13.26-18.47,1.88-2.42,4-4.67,5.83-7.11a182.35,182.35,0,0,0,10.23-15.67,113.05,113.05,0,0,1,6.75-9.57c3.93-5.18,8.58-9.93,11.85-15.5,4.64-7.88,11.1-14.39,15.76-22.15s10-14.72,14-22.73a98.39,98.39,0,0,1,6.69-10.84c2.75-4.12,4.86-8.66,7.48-12.88,6.88-11.06,13.11-22.5,19.35-33.92,2.06-3.8,3.9-7.72,6.22-11.36a5,5,0,0,0,.6-2.79Z"/>
  <g class="clothesFoldLine">
    <path d="M500.56,1088.74c-7.81-7.42-16.62-13.25-27.13-16-7.44-1.91-15.13-1.76-22.78-1.3-11.69.69-22,5.6-32.31,10.53-1.51.73-3.21,1.69-3.73,3.64"/>
    <path d="M276,1052.39c-1-6-4.61-10.78-7.77-15.67-5.09-7.85-12.15-13.8-20-18.82A107.51,107.51,0,0,0,224,1006.57c-9.27-3.11-18.24-2.9-27.49-1.28-.25,0-.42.58-.62.89"/>
  </g>
  <path class="skinEastAsian" d="M663.53,199.65c-6,2.36-11.9,4.75-17.87,7.07q-17.08,6.66-34.2,13.25-20.48,7.89-41,15.72l-40,15.4-35.12,13.56-20,7.7c-2,.78-2.68,1.92-2.28,4.33.51,3.1-.06,6.36.16,9.53.56,8.17-1.1,16.08-2.46,24-.27,1.55-1.4,2.36-2.24,3.35Q456,328.32,444.16,343.49c-1.25,1.6-3,2.8-4,5,4.12,2.58,8.75,4.53,13.23,6.78,13.8,6.91,27.63,13.77,41.24,21,3.81,2,7.49,1.5,11.13,1,4.21-.59,8.45-1,12.65-1.72s8.44-1.12,12.65-1.71c3.76-.53,7.6-.81,11.38-1.38,5.94-.89,11.93-1.54,17.88-2.32,4.08-.53,8.17-1.21,12.31-1.39,2.05-.09,4.08-.56,6.15-.69,1.88-.12,3.32-1.18,4.42-3.24,5.85-10.89,12.23-21.5,18-32.43,4.43-8.38,9.11-16.6,13.66-24.9,5.82-10.65,12.17-21,17.73-31.8,3.77-7.31,8.49-14.12,11.54-21.81a8.18,8.18,0,0,1,1.81-2.17,74.18,74.18,0,0,0,11.38-16.65c2.47-4.71,4.81-9.48,5.88-14.77,1.2-5.9,2.46-11.8,2.1-17.87-.06-1.11.13-2.61-1.49-3.08Z"/>
  <path class="skinOverlapLine" d="M588.36,271.73c-.89,2.41.28,4.3,1.54,6.17l1.85,2.77"/>
  <path class="shirtWhite" d="M559.4,796.69c3.27-3,3.24-7.18,3.66-11.1.63-5.83.2-11.7.09-17.55s-.4-11.55.85-17.26c.94-4.25.28-8.61,1.39-13,2-8.06,3-16.39,4.49-24.6.6-3.39,1.47-6.76,1.77-10.17.25-2.77.32-5.55.57-8.33.33-3.74,1.64-7.37,1.57-11.07-.1-5.6.73-11.1,1-16.64.34-8.23,1.84-16.38,1.62-24.65,0-1.74.18-3.49.28-5.23v1.54c3.07-.41,5-2.88,7.32-4.44,7.81-5.23,15.23-11,22.94-16.41.78-.55,1.18-.78,1.17-1.64,0-.62,0-1.23,0-1.85q0-84,0-167.9c0-2.33-.58-3.55-2.79-4.7-15.37-8-30.61-16.2-46-24.24-9.84-5.16-19.63-10.42-29.53-15.49-13.49-6.91-26.71-14.35-40.09-21.48-9.41-5-19-9.67-28.28-14.91-3.51-2-7.36-3.43-10.56-6-1.08-.87-2.6-.66-4-.65-17.46,0-34.92,0-52.38-.06a4.68,4.68,0,0,0-4,1.91c-7.4,9.24-14.76,18.51-22.19,27.71-6.42,7.95-12.93,15.83-19.4,23.74-2.2,2.69-2.45,6.17-3.63,9.26-1.52,4-2.29,8.28-3.81,12.28-3.17,8.32-5,17-6.87,25.63a291.75,291.75,0,0,0-4.59,29.52c-.57,5-1.53,10-1.68,15.11a192.64,192.64,0,0,1-1.63,21.87c-.64,4.4.47,9-1.43,13.29-.44,1,.17,2.42.22,3.66.27,7.31-1,14.55-1,21.87,0,6.47-1,12.93-1.39,19.41-.21,3.71-1.25,7.31-1,11.09.66,10.25-1,20.37-2.18,30.49-.55,4.83-.9,9.73-1.9,14.46-1.19,5.64-2.33,11.39-2.94,17s-2.51,10.82-3.47,16.28-3,10.51-4,15.77-2.39,10.45-3.66,15.66a87,87,0,0,0-2.56,17.26c-.22,5.92.83,11.76,4.63,17,4.13,5.72,8.91,10.87,13.18,16.39,7.27,9.4,16.2,16.86,25.58,23.7,5.62,4.1,11.38,8.19,17.93,11.21,8.19,3.79,16.62,7,24.72,10.92a112.36,112.36,0,0,0,26.26,9c6.76,1.39,13.41,3.35,20.29,4.19a156.36,156.36,0,0,0,30.21.74,108.42,108.42,0,0,0,19.72-2.86c8.76-2.27,16.76-6.22,24.63-10.53,6.48-3.56,13.07-7,19.37-10.85a74.25,74.25,0,0,1,15.77-7.26,16.32,16.32,0,0,1,11,0c3.16,1.24,4.16,4.71,4.16,7.6,0,2.72.76,5.62-.42,8.32Z"/>
  <path class="hairBlack" d="M426.62,195.64c-1-8.23-.53-16.44.31-24.65.43-4.2.71-8.43,1.26-12.62.59-4.44,1.47-8.83,2.12-13.26,1.17-8.09,4.92-15.22,8.33-22.48,2.19-4.69,5.57-8.62,8.43-12.86A142.83,142.83,0,0,1,459.65,94c3.68-4.09,7.93-7.68,12-11.46,4.31-4,9.66-6.66,14.29-10.31,3.55-2.79,8.31-4,12.5-6a103.87,103.87,0,0,1,27.12-8.59c4.88-.84,9.85-1,14.76-1.44,8.53-.83,16.87.23,25.28.82,3,.21,5.59,1.7,8.34,2.71,1.14.41,2.35,1,4.12.36-1.64-22.85-11.5-41.92-28.16-57.64,1.06-2.12,2-2.27,4-1.62,6.23,2,11.42,5.78,16.88,9.08,6.29,3.8,12.46,7.81,17.61,13.18a86.08,86.08,0,0,1,14,19.68c3.13,5.94,5,12.23,6.88,18.57.74,2.51.54,5.31.69,8,.18,3.08,1.89,4.2,4.29,2.41,3.65-2.73,8.13-3.5,12-5.54,6.62-3.46,13.85-3.66,21-4.19A47.29,47.29,0,0,1,673,67.24c2.7,1.42,5,3.64,7.44,5.47a1.25,1.25,0,0,1,.58,1.53,1.71,1.71,0,0,1-1.82,1c-1.84-.15-3.71-.08-5.54-.35-7.66-1.1-14.66,1.11-21.59,4-3,1.24-6,2.22-8.3,4.66,9.63,6.65,17.21,15.4,25,24a89.37,89.37,0,0,1,11.54,16.14c4,7,7.8,14.35,9.79,22.17a70.7,70.7,0,0,1,.75,33.54c-1.8,7.8-4.35,15.48-10.56,20.83a32.72,32.72,0,0,1-16.22,7.54c-4,.65-7.82,2.24-12,1.9-1.52-.12-2.83.91-3.72,2.38a135.92,135.92,0,0,1-16.31,21.87c-.74.8-1.62,1.46-2.43,2.18a6,6,0,0,1-4.6-2.52c-7.21-9-18.05-7.68-24.4,0-7.41,9-11.09,19.34-12,30.82a38.1,38.1,0,0,1-1,6.76c-.66,2.44-2.55,4.08-4.55,5.58-3.51,2.62-7.07,5-11.4,6.19-3.52.95-6.59,3.11-10.18,4-9.1,2.2-18.08,5-27.42,6.1-6,.69-12.08,1.51-18.18,1-3.93-.36-7.79.53-11.7.63a63.81,63.81,0,0,1-19.44-2.69c-4.8-1.4-8.18-4.64-12-7.41-6.18-4.45-10.53-10.65-15.95-15.8a75.41,75.41,0,0,1-11.23-14.28c-4.78-7.47-9.15-15.33-11.91-23.9-1.76-5.47-4-10.81-5.42-16.36-1.22-4.81-1.61-9.83-2.21-14.77a11.3,11.3,0,0,1,.57-3.38c0-.12.2-.29.3-.29s.21.19.31.29Z"/>
  <g class="hairOverlapLine">
    <path d="M625.33,204c.16,1,1.12,1.28,1.86,1.51a91.18,91.18,0,0,0,14.47,3.72,30.56,30.56,0,0,0,7.39.62"/>
    <path d="M643.2,82.58c-2.36,2.46-4.6,5.07-7.12,7.36-3.28,3-5.1,6.87-7.36,10.51"/>
    <path d="M577.89,60.4c-.35,3.79.4,7.6-.28,11.4-.16,1-.2,1.81-1.26,2.15"/>
  </g>
  <path class="bennettSleeves" d="M347.76,415c.61-.14,1.05.79,1.95-.22a31.3,31.3,0,0,1,3.63-3.74A231.1,231.1,0,0,1,374,395.89c7.65-4.9,14.93-10.5,23.14-14.39,10.46-5,20.31-11.62,32.3-12.76.23,0,.42-.58.62-.89l1.54.93c5.26,2.55,10.1,5.83,15.33,8.47,6.57,3.32,13.49,5.35,20.4,7.56a123.42,123.42,0,0,0,27.12,5.24c2.88.25,4.62,2.2,4.21,6.13-.75,7.06,2.21,13.55,2.46,20.35.29,8,3.72,15.17,5.46,22.77.88,3.85,2.86,7.47,4.53,11.1,2.31,5,5.72,9.53,6.78,15.11a3.51,3.51,0,0,0,.91,1.53c5,5.62,8.7,12.22,14.4,17.33,8.81,7.9,17.81,15.33,29,19.74,2.12.83,4,2.49,6.21,3.26.21.07.6-.37.91-.58l-.62.93c.21,6.67-.13,13.42.77,20,1,7.29.59,14.67,1.8,21.88,1.1,6.59.13,13.17.76,19.74s.35,13,1.06,19.39c1.14,10.15,1.6,20.33,2.06,30.51.26,5.75.07,11.55,1,17.24.57,3.43,2.7,6.36,4.93,8.89,5.38,6.14,11.38,11.32,19.61,13.74,6.81,2,13.05.9,19.46-1,8.31-2.51,15.38-7.31,22.45-12.07a18.12,18.12,0,0,0,6.57-8.06c2.94-7.75,7-15.09,8-23.62,1.58-13.22,3.5-26.39,2.63-39.75-.46-7-.73-14-1.64-21-.76-5.82-1.93-11.62-2.08-17.54-.09-3.21-1.15-6.33-1.55-9.54-.69-5.48-1.82-10.89-2.67-16.34a3.8,3.8,0,0,1,.24-2.48c4.57-8.6,9-17.29,13.67-25.81a4.35,4.35,0,0,0,.17-4c-4.87-12.2-9-24.65-13.49-37-2.3-6.35-4.37-12.79-6.86-19.07-1.1-2.74-4.14-3.87-6.42-5.54Q618.44,401.06,597.6,386c-9.12-6.6-18.28-13.14-27.41-19.72-.83-.6-1.61-1.27-2.26-1.79a122.93,122.93,0,0,1-23.62,3.94c-9.79.83-19.54.07-29.27-1-5.13-.55-10.54-.26-15.33-1.73-6-1.86-12.29-2.67-18.34-4.36-5.74-1.6-11.29-3.71-16.77-5.79a23.22,23.22,0,0,1-10.45-7.87c-1.71-2.38-3.73-1.88-5.63-1.61a20.72,20.72,0,0,1-2.8.43c-7.82.08-15.59,1.07-23.41,1.37-5.74.22-11.47,1.2-17.25,1.11-6.7-.1-12.28,3.07-17.17,6.9-10.35,8.09-20.36,16.77-27.1,28.29-3.39,5.8-6.77,11.64-9.2,18.05a84.55,84.55,0,0,0-4.76,15.47Z"/>
  <g class="clothesOverlapLine">
    <path d="M392.43,877.4c.51,4.32.85,8.66,1.6,12.93a55.36,55.36,0,0,1,.86,9.25"/>
    <path d="M473.45,886.34a33.42,33.42,0,0,1-4.32,1.2,103.06,103.06,0,0,1-17.25,1.22c-6.9-.17-13.55-1.54-20.33-2-3.87-.29-7.25-2.34-11.09-2.53a5.14,5.14,0,0,1-2.46,0,122.81,122.81,0,0,0-17.87-4.93c-4.84-1-9.64-2.32-14.48-3.35C377,874,368.12,873,359.45,871a101.91,101.91,0,0,1-18.07-5.82c-7-3.06-13.13-8-19.15-12.78-1-.83-2.62-1.53-2.51-3.34"/>
    <path d="M567.41,473.21c0,11.52.52,23,1.23,34.51"/>
  </g>
  <g class="fur">
    <path d="M655.21,419.61c3,1.11,5.31-1.18,8-1.56,7.42-1,13.82-4.51,19.34-9.31,4.14-3.61,8.6-6.87,12.19-11.23,4.26-5.17,9.17-9.81,12.82-15.5,2.35-3.66,4.39-7.49,7.68-10.5,2.24-2.06,4.85-3.39,7.39-5,7.89-4.87,16-9.29,22.71-16.08a74.06,74.06,0,0,0,8.42-10.67c2-2.92,1.75-3.9-.91-6.14-3.14-2.64-6.93-3.92-10.74-5.32-6.38-2.33-12.93-4-19.46-5.72a39.35,39.35,0,0,0-7.68-.95c-4.84-.31-8.94-1.43-12.79-5.1-5.07-4.86-8.91-10.78-14.32-15.27-6.4-5.32-12.75-10.69-19.28-15.87-3.65-2.89-7.58-5.3-11.27-8.09-2.72-2.06-3.59-4.56-3.69-7.76-.15-5.12-1.44-10.09-2.4-15.1-1.28-6.68-2.51-13.28-5.74-19.48a16.42,16.42,0,0,0-8.51-7.8c-3-1.27-6.34.29-8.49,2.41-5.2,5.16-10.18,10.64-13.57,17.2-3,5.88-6.73,11.49-9.16,17.59-3.62,9-10.44,15-17.23,21.37-5.82,5.5-11.62,11.22-16.06,18.2-2.6,4.09-4.92,8.38-7.34,12.54-2.3,4-3.3,8.74-3.9,13.45-.4,3.09-1,6.16-1.51,9.24a66,66,0,0,0-.24,13.55c.32,6.79,1.39,13.53.28,20.35-.43,2.65.58,5.3,1.57,7.66A49.55,49.55,0,0,0,574.19,399c3.5,3.07,6.82,6.37,10.52,9.18a55.15,55.15,0,0,0,10.7,6.62,86.59,86.59,0,0,0,11.76,4.17c6.23,1.79,12.69,1.42,19.08,1.18a3.52,3.52,0,0,1,2.8.69A59,59,0,0,1,641.13,435a68,68,0,0,1,8,16.67c.48,1.55.29,2.78-1,3.36-7.76,3.5-9.77,10.78-10.89,17.94a51.67,51.67,0,0,0,1.07,20.61c.81,3.15,2.64,5.86,4.28,8.64s2.53,6,5.17,8.39c6.16,5.68,13.27,7.61,21.33,6.67a44.52,44.52,0,0,0,21.23-8c3.9-2.81,5.9-7.18,6.71-11.68,2.06-11.44-.46-22.19-5.33-32.69-3.2-6.88-7.78-12.7-12.15-18.72-4-5.52-8-11.08-12.38-16.28-2.89-3.42-6.5-6.23-9.78-9.31Z"/>
    <path d="M396.74,315.79c-3,2.32-6.37,4.21-8.33,7.69A31.86,31.86,0,0,0,384.55,346c1.3,6.79,5.4,9.83,11.29,11.28,2.85.71,5.93.57,8.91.69,8.68.34,17.08-1.67,25.6-2.84,6.84-.94,12.56-4.13,18.77-6.37,8.93-3.22,12.76-10.52,15.78-18.78,2.12-5.79,3.56-11.76,5.73-17.68-1.28-.09-2.31-.19-3.34-.21-9.86-.22-19.72-.32-29.57-.67a102,102,0,0,1-13.86-1.26c-6.51-1.13-12.43.81-18.51,2.46-2.91.79-5.5,2.22-8.3,3.16Z"/>
  </g>
  <path class="furOverlapLine" d="M655.21,419.92c-5.93,1.36-11.91.35-17.87.29-2.67,0-5.34-.19-8-.29"/>
  <g class="bennettShoe">
    <path d="M378,1416.84c-.54,1.79.82,3.08,1.3,4.6,7.18-1.21,14.5-1.94,21.79-2.83,6.48-.79,12.94-1.66,19.42-2.43,7.31-.86,14.57-2.09,21.88-3,5.73-.73,11.51-1.17,17.24-1.89,5.24-.66,10.44-1.49,15.71-1.88,4-.29,4.65-3.87,5.15-6.74a101.45,101.45,0,0,0,1.28-23.09c-.6-11.17-2.63-22.18-3.89-33.28-.85-7.48-3-14.73-3.62-22.19-.35-4.54-1.61-8.81-2.39-13.22-.49-2.81-3-4.31-5.45-5.56-4.75-2.41-9.52-5-14.81-5.74-6.81-.88-13.53-2.28-20.66-.94a101.42,101.42,0,0,0-21.25,6.93c-4.71,2-7.08,5.89-8.08,10.28-.57,2.52-1.28,5.11-1.89,7.62-2.32,9.58-4.22,19.26-7.1,28.73-1.76,5.79-3.68,11.51-5.7,17.2a177.25,177.25,0,0,0-6.17,23.41c-1.39,6.64-2.71,13.27-3.44,20-.15,1.34-.46,2.54.37,3.71Z"/>
    <path d="M90.83,1322.87c2.44-4.68,3.62-9.81,5.19-14.8,2.42-7.65,3.85-15.7,7-23,2.86-6.53,5.73-13.12,8.9-19.56,5-10.09,11.12-19.67,14.54-30.46a53.31,53.31,0,0,0,2.91-18.77c-.48-9.73-4.83-17.27-12.08-23.41a50.44,50.44,0,0,0-25.6-11.2c-3.41-.51-7.47.57-10.69,2.09a60.42,60.42,0,0,0-20.81,15.49c-4.07,4.78-9.13,8.72-13.76,13-6.42,6-12.75,12-17.66,19.35-1.17,1.77-.85,2.72.1,4.07q15.57,22,31.12,44.06l30.81,43.74Z"/>
  </g>
  <g class="soleWhite">
    <path d="M382.57,1403c-.31,3.29-2.35,5.93-3.52,8.89-1.54,3.9-4.21,7.33-6,11.16-3.42,7.39-5.73,15-5.14,23.4.22,3-.23,6.22.25,9.22.93,5.86,1.15,7.84,7.18,12.85,8.72-2.76,17.37-5.47,26-8.22q15.87-5.05,31.73-10.17,17.42-5.65,34.81-11.4a27,27,0,0,1,4.64-1.39c4.64-.53,4.92-3.88,5.54-7.23,1.13-6.11,1.21-12.31,1.51-18.48a40.91,40.91,0,0,0-1-10.77c-1.28-5.75-6.07-8.43-10.72-11.1-12.78-7.35-26.62-10.89-41.27-11.75-9.3-.55-18.31.7-26.41,5.13-4.78,2.61-9.61,5.74-12.45,10.91-1.62,2.94-3.94,5.47-5.2,8.64Z"/>
    <path d="M73,1354.61a8.73,8.73,0,0,0,5.57-3.38c2-2.76,4.72-5,6.65-7.79,4.85-6.94,7.2-14.62,6.08-23.36-.55-4.36-2.42-8.28-3-12.6a32.77,32.77,0,0,1,.18-9.85,70.11,70.11,0,0,0,1.23-17.87,45,45,0,0,0-6.37-18.92c-4.08-7-9.33-12.84-15.06-18.29-3-2.87-7-4.53-10.69-6.58-6.18-3.46-12.92-5.27-19.75-6.67-4.45-.92-8.79,0-11.65,4-6.51,8.88-12.85,17.85-16.16,28.59-.87,2.83-.52,4.51,1.25,6.88q27.32,36.49,54.23,73.31a62.54,62.54,0,0,0,9.93,11.34Z"/>
  </g>
  <g class="soleWhiteDark">
    <path d="M375.18,1467.36c3.23,5.07,8.75,6.18,13.86,8,7.07,2.54,14.48,3.13,21.86,4.07a95.64,95.64,0,0,0,24.33-.5c8.69-1.13,17.55-2.11,25.57-6.08,7.65-3.79,13.65-9.37,15.94-17.86a23.12,23.12,0,0,0-.1-12.64,12,12,0,0,1-.22-4,32.88,32.88,0,0,0-7-23.37,14.11,14.11,0,0,0-5.49-4.38c-4-1.71-7.39-4.53-11.72-5.53-11.2-2.59-22.39-3.7-33.93-2-3.89.56-7.57,1.65-11.37,2.33-5,.89-9.3,2.81-12.65,6.8a22.91,22.91,0,0,0-5.85,14.5,32.18,32.18,0,0,1-1.15,9c-1.25,4.07-4.31,6.74-6.84,9.83a35.3,35.3,0,0,0-7.15,13.24c-.82,3,.85,5.36,1.3,8Z"/>
    <path d="M73.88,1317.94c-.34-7.9.24-15.86-.22-23.7A40.23,40.23,0,0,0,61.91,1268c-4.59-4.71-9.52-9.32-15.26-12-8-3.8-16.79-6.81-26.07-3.35-4.9,1.83-8.31,5.19-11.15,9.52s-2.5,8.83-2.51,13.6c0,6.66-.2,13.33-2.83,19.77-1.24,3-3.13,5.87-3.39,9.48a33.28,33.28,0,0,0,.29,9.54c2.07,9.28,6.56,17.62,11.68,25.54,1.77,2.74,4.52,4.91,7,7.11,4.67,4.13,9.11,8.54,14.75,11.46a52.9,52.9,0,0,0,21.29,5.95,18.27,18.27,0,0,0,14-4.95c3.91-3.68,6.24-8.13,8.51-12.75a11.71,11.71,0,0,0,.95-4.92c.16-7.26-2.14-14-4.69-20.62a8.83,8.83,0,0,1-.56-3.1Z"/>
  </g>
</svg>
