<svg viewBox="0 0 998.74 722.06">
  <g class="pillow">
    <path class="cushion" d="M11,686c1.21,5.25,5.51,8.18,9,11.67a58.67,58.67,0,0,0,24.91,15.19,14.36,14.36,0,0,0,4,.67c3.58-.07,7,1,10.46,1.25,9.75.74,19.38-.2,29-1.48a154.53,154.53,0,0,0,22.51-4.18c1-.28,2.1.33,3.07-.32l.31-.62c-.46,1.28.7,1.38,1.21,1.18,3-1.17,6.16-1.5,9.27-2.1,3.38-.65,6.78-1.2,10.16-1.86s6.79-1.38,10.17-2.16c5.65-1.31,11.19-3,16.91-4.15,3-.58,5.94-2,9-2.9,6.41-1.83,12.76-3.8,19.11-5.83,9.47-3,19-6,28.33-9.28,7.28-2.55,14.54-5.13,21.56-8.33,10-4.55,19.38-10.13,28.77-15.82,6.52-4,12.66-8.46,19.25-12.29a110.31,110.31,0,0,0,14.4-10.54c6.46-5.36,13.43-10.08,19.56-15.85,8.3-7.81,17.24-15,24.57-23.79,9.25-11.08,20.91-19.54,31.22-29.48,6.9-6.66,14.33-12.77,21.5-19.16,11.52-10.25,23-20.55,34.52-30.79,6.63-5.9,13.29-11.77,20-17.53a7.44,7.44,0,0,0,2.69-4.67c1-6.23,2.3-12.47.37-18.79-1.87-6.11-3.74-12.21-7.34-17.69-7.47,3-14.2,7.2-21.26,10.74-5.93,3-11.75,6.28-17.63,9.41Q387,489,363.47,501.46c-10.56,5.57-21.17,11.07-31.73,16.65-15.11,8-30.18,16-45.29,24-10.56,5.58-21.17,11.07-31.73,16.65-14.7,7.78-29.36,15.63-44.06,23.4-10.55,5.58-21.16,11.07-31.72,16.65-15.11,8-30.19,16-45.29,24-10.56,5.58-21.17,11.06-31.73,16.65-14.7,7.77-29.36,15.62-44.06,23.39-11,5.8-22,11.5-33,17.27-4.23,2.22-8.42,4.51-12.63,6.77Z"/>
    <path class="welt" d="M9.5,697.4a24,24,0,0,0,14.75,2c6.77-1.26,13.6-1.33,20.38-2.22,5.59-.74,11.11-1.71,16.63-2.83,1.71-.35,3.52-.27,5.22-.67,6.63-1.56,13.41-2.42,20.09-3.7,9.74-1.88,19.24-4.65,28.9-6.76,9.46-2.08,18.93-4.16,28.33-6.51,4.81-1.21,9.43-3.13,14.19-4.54,6.24-1.85,12.51-3.57,18.8-5.23a39.71,39.71,0,0,0,6.69-2.36c6.13-2.89,12.63-4.78,18.94-7,10.78-3.81,21.15-8.51,31.58-13a246.29,246.29,0,0,0,29.73-15.41c7-4.24,13.26-9.55,20.32-13.58,9.81-5.6,18.05-13.14,26.7-20.17,9.17-7.46,18.31-15,27.56-22.31,10.54-8.36,20-17.86,29.67-27.05,10.48-9.93,21.7-19,32.44-28.56,9.17-8.21,18.82-15.89,28-24.11a145.86,145.86,0,0,0,20.41-22.7,24.81,24.81,0,0,0,4.4-12c.52-4.37-4.23-8.85-8.38-9.6-5.09-.92-9.8.45-14.15,2.58-16,7.83-32,15.75-47.75,24-17.34,9.07-35.06,17.38-52.38,26.48s-35,17.4-52.37,26.5S243.1,546,225.79,555.11s-35.06,17.4-52.38,26.5S138.36,599,121,608.1s-35,17.42-52.38,26.49c-17,8.89-34.22,17.39-51.46,25.84-6.69,6.36-14.52,12-16.25,21.88-1.47,8.34.52,10.82,8.08,15.09Z"/>
    <path class="cushion" d="M340.71,451c-7.9,1.76-15.86,3.32-23.69,5.35-7.36,1.9-14.63,4.15-21.86,6.5-10.08,3.28-20.33,6-30.47,9-7.08,2.14-14,4.91-20.95,7.37a165.32,165.32,0,0,0-16.7,7c-4,1.92-8.13,3.67-12.21,5.47a262,262,0,0,0-24.34,12.62c-10.35,5.93-20.11,12.78-30.17,19.14-8.88,5.62-17.39,11.76-25.7,18.12-6.07,4.64-12.08,9.44-17.94,14.38s-12.3,9.67-18.06,14.93c-4.23,3.87-8.6,7.62-12.64,11.68-6.68,6.72-14.06,12.65-20.93,19.13-4.23,4-8.24,8.23-12.64,12-8.64,7.4-15,16.83-22.7,25.06-7.25,7.75-11.95,17.1-16.66,26.49-2.82,5.63,1.42,13.86,7.19,15.18A53.45,53.45,0,0,0,36,681.49c4.62-.32,9.27-.16,13.87-.9s9.46-1.11,14.18-1.75c5.37-.73,10.57-2.22,16-2.76,4.47-.43,8.83-1.83,13.26-2.69,8.92-1.71,18-2.87,26.76-5.12,11.52-2.95,23.23-5.28,34.51-9.2,8.59-3,17.29-5.68,25.93-8.47,5.8-1.88,11.51-3.9,17.15-6.15,7.36-2.93,14.61-6.16,21.94-9.06,7.71-3.06,14.53-7.77,22.35-10.54,3.51-1.25,6.12-4.41,9.57-6.09,10.89-5.3,20.68-12.39,30-19.91s18.9-15.14,28.16-23c5.74-4.84,11-10.24,16.87-14.87,6.66-5.24,13-10.86,19.56-16.21,7-5.69,13.87-11.53,20.58-17.59,6.89-6.23,13.77-12.56,21-18.5,3.8-3.13,7.27-6.69,10.78-10.16A111.85,111.85,0,0,1,412,487.73a65.08,65.08,0,0,0,5.85-4.92c4.6-4.23,10-7.6,13.84-12.65,2.54-3.33,5-6.67,6.14-10.8,1.33-5-1.63-12.25-6.47-14.25-7.31-3-14.78-3.53-22.54-3.36-4.86.12-9.65.8-14.46,1.19-5.25.42-10.51,1.28-15.7,2.18q-11.85,2-23.73,3.66c-2.78.38-5.7.42-8.26,1.39-1.82.68-3.65-.07-5.29.79Z"/>
    <g class="pillowCreaseLine">
      <path d="M284.91,523.64c-8.91,1.87-17.26,5.24-25.62,8.81-8.73,3.72-17.41,7.47-25.81,11.86-2.86,1.49-5.56,3.26-8.33,4.9"/>
      <path d="M327.43,489.76c-2.92-.67-5.67-1.87-8.61-2.56-5.43-1.27-10.88-1.18-16.35-1.09-2.57,0-5.13.57-7.7.87"/>
    </g>
  </g>
  <path class="bennettJeans" d="M601.61,686c2.7.59,1.35-1.61,1.14-2.12A42.13,42.13,0,0,1,600.9,678a54.66,54.66,0,0,1-1.29-13.58c.11-5.56-.14-11.1.73-16.64a32.82,32.82,0,0,1,4.69-12.3c5-8.09,12.46-13.58,20.22-18.92,8.45-5.82,17.64-10.13,26.58-15,8.17-4.43,16.85-7.78,25.23-11.77,9.64-4.59,19.61-8.41,29.28-12.9a145.48,145.48,0,0,1,17.55-6.83c1.08-.33,2-1.48,2.78-2.4,8.34-9.53,16.62-19.12,25-28.63,5.28-6,10.72-11.88,16-17.89,8.36-9.51,16.5-19.22,25-28.59,5.38-5.93,10.65-11.94,16-17.93,7.23-8.18,14.37-16.44,21.59-24.63,5.09-5.78,10.29-11.48,15.38-17.26,7.22-8.19,14.22-16.59,21.63-24.59,5.48-5.91,10.5-12.23,16.83-17.38,6-4.84,12.78-7,20.09-8.22,6-.95,11.93-1.43,17.87.28,3.73,1.07,7.15,2.25,9.62,5.81A157.14,157.14,0,0,1,947.25,418c1.74,4.17,3.34,8.4,4.94,12.63A93.81,93.81,0,0,1,957,448.49c.87,5.31,2.85,10.23,4.12,15.39,1.8,7.3,3.87,14.54,5.46,21.89.84,3.91.91,8,1.3,12,.81,8.09,1.37,16.2,1.56,24.33a219,219,0,0,1-.7,25.88,72.46,72.46,0,0,1-4.34,19.49c-1.81,4.67-3,9.68-4.83,14.4A59,59,0,0,1,956,589a77.45,77.45,0,0,1-8.72,13.19c-1.42,1.65-2.92,3.25-4.15,4.62V711.57h-3.24q-60.37,0-120.76,0a7.26,7.26,0,0,0-5.57,2.17c-4.75,4.7-10.75,6.27-17.2,7.27a36.37,36.37,0,0,1-10.49.35c-4.52-.63-9.12-.62-13.54-1.55a45.5,45.5,0,0,0-9.89-.68c-10.68.12-21.34-1.36-32-.21a81.56,81.56,0,0,1-13.53.24c-9.89-.57-19.75.74-29.58.06-7.09-.49-14.18.06-21.31-1.2a83.55,83.55,0,0,0-14.74-1.19c-12.14,0-23.44-3.57-33.78-9.42-5.74-3.24-9.76-8.92-12.44-15.21-.78-1.82-2-3.48-2.15-5.55Z"/>
  <path class="bennettShoe" d="M849.61,719.89c.84-1.13,2-.59,3.08-.6q13.88,0,27.73-.55c2.58-.11,4-1.59,5.17-3.21,3-4.13,7-7.44,10.31-11.28,6.39-7.34,13.34-14.18,19.92-21.35,7.76-8.46,15.58-16.88,23.34-25.33,3.64-4,7.56-7.66,11-11.84a6,6,0,0,0,1.41-4.71c-.28-4.28-1.33-8.43-2.1-12.64a176.66,176.66,0,0,0-5-19.39,13.89,13.89,0,0,0-1.11-2.26c-2,.43-3.24,2-4.34,3.23-5.54,6.27-11.92,11.71-17.11,18.35a157.5,157.5,0,0,1-17.72,19.54c-6.45,5.88-14,10-21.71,13.62-7.85,3.68-15.76,7.36-23.93,10.39a242.71,242.71,0,0,1-25.89,8.27c-8.1,2-16.22,3.93-24.34,5.86a4.08,4.08,0,0,0-3,2.8c-1.15,6.69-2.48,13.56,3.28,19.07A27.74,27.74,0,0,0,821,715c4.49,1.16,8.86,2.68,13.55,3.15,4.21.43,8.38,1.22,12.64,1.15.76,0,1.64-.31,2.16.61Z"/>
  <path class="soleWhite" d="M907.52,719.89c3,1.36,2.2-2,2.3-2.5,1.09-5.7,1.72-11.48,2.66-17.22,1.13-7,2.78-13.93,3.56-21,.67-6,2-11.85,2.65-17.85.46-4.66,1.58-9.25,2.51-14.44a29.76,29.76,0,0,0-8.1.72,43.22,43.22,0,0,0-18.84,8.15,15.24,15.24,0,0,1-2.45,1.25c-7.27,3.8-14.11,8.44-18.28,15.52a23.79,23.79,0,0,0-3.26,15,129.19,129.19,0,0,0,2.91,15.95c1.38,5.72,3.78,11.37,9.42,14.46,2.3,1.26,5.1.95,7.68,1.25,5.62.64,11.25,1.57,16.94.66Z"/>
  <path class="soleWhiteDark" d="M995.32,644.1c2.91,11.93,4,23.79,1.51,36.1-.94,4.58-1.71,9.25-3.53,13.42a33.87,33.87,0,0,1-7.66,11c-4,3.78-8.06,7.72-13.38,10.1a60.73,60.73,0,0,1-20.37,4.87c-8.31.65-16.71-.54-24.94,1-5.88,1.07-11.6.1-17.23-.89-2.28-.4-4.48-2.8-6.14-4.78a64.5,64.5,0,0,1-10.78-19.07,35.4,35.4,0,0,1,2.25-30.08c3.42-6.27,9.05-11,15.58-14.22,3-1.48,5.78-3.61,9.22-4,2.77-.33,5.52-.26,8.34-.82a54.8,54.8,0,0,0,24.3-11.55,36.07,36.07,0,0,1,17.91-7.75c6.92-1,14.14.19,19,6.28,2.39,3,4.81,6.15,5.62,10.11Z"/>
  <path class="shirtWhite" d="M580.35,369.61c5.53,14.06,11.63,27.88,17.37,41.85,4.58,11.14,9.4,22.2,14.06,33.31,5.6,13.33,11.29,26.62,16.76,40,2,4.84,5.68,9,9.51,12.6,4.34,4.08,8,8.9,12.84,12.43,8.34,6,15.92,13,24.88,18.29,11.3,6.69,22.25,14,31.61,23.49,5.44,5.53,10.21,11.57,15.4,17.26a126.94,126.94,0,0,1,11.81,15.56c3,4.53,6.44,8.78,8.81,13.76,1.52,3.2,4.48,5.29,7.28,7.48,5.89,4.6,13.15,6,19.76,8.88,8.32,3.64,17.07,5.9,25.87,8a166.17,166.17,0,0,0,22.78,3.85c9.1.89,17.94-.49,26.81-1.51a96.78,96.78,0,0,0,26.16-6.45,124.58,124.58,0,0,0,24.1-13.11,155.19,155.19,0,0,0,27.31-24.75,134.75,134.75,0,0,0,15-19.88c2.33-4,5-7.73,7.33-11.75.84-1.46.61-3,1-4.4,1.72-6.24,4.67-12.12,5.91-18.46a48.77,48.77,0,0,0,.39-18.52c-1.13-6.21-3.29-12.14-4.14-18.41-.39-2.89-2.55-5.49-3.51-8.35-3.64-10.9-9.78-20.4-16-29.89-2.85-4.33-5.88-8.58-8.55-13-6.44-10.64-14.76-19.61-23.51-28.28-4.59-4.55-9.43-8.92-13.49-13.92-7.93-9.78-17.36-18-26.57-26.43-5-4.56-10.6-8.3-15.64-12.72-11-9.67-23.7-17.11-35.08-26.24-5.34-4.29-10.83-8.32-16.47-12.14-7.38-5-14.69-10.2-22.53-14.39-8.83-4.72-17.26-10.21-26.43-14.29s-18.91-6.91-28.64-9.59c-3.95-1.09-8.07-.73-12-1.78-2.86-.76-4.94,1.21-6.36,3.12a25.79,25.79,0,0,1-5.32,5.17q-29.31,22.46-58.56,45c-12.69,9.71-25.46,19.31-38.19,29q-5.87,4.45-11.71,8.93Z"/>
  <g class="skinEastAsian">
    <path d="M583.43,357.29c2.8-.3,4.41-2.61,6.42-4.08,24.62-18.07,49.1-36.33,73.73-54.39a111.3,111.3,0,0,0,9.2-7.33c-5.28-4.21-10-8.83-15.34-12.86a53.37,53.37,0,0,1-6-5.68c-5.89-6.15-10.23-13.51-15.91-19.81-1.88-2.09-1.6-4.76-1.59-7.38.05-20.33,0-40.66,0-61.3H422.13c-.75,5,.75,9.88,2.63,14s3.13,8.39,5.63,12.3a58,58,0,0,1,5.87,12.14c2.81,8,3.93,16.39,5.46,24.67.51,2.78,1.1,5.54,1.53,8.32.93,6.15,2.42,12.17,3.84,18.22a51.34,51.34,0,0,0,2.38,7.64A185.15,185.15,0,0,0,456.9,299,130.78,130.78,0,0,0,471,320,116.79,116.79,0,0,0,483.3,333c8.68,8,18.95,9.93,30.2,8a159,159,0,0,0,23.18-6.23c3.52-1.19,6.49-3.12,9.79-4.52a61.64,61.64,0,0,0,18.41-11.77c10.06,12.18,16.69,25.52,18.55,41Z"/>
    <path d="M539.07,623.77c-3.22-3.72-7.54-6-11.42-8.91-11.85-8.8-23.81-17.47-35.69-26.24a11,11,0,0,1-1.82-2.49c-6.42,7.92-10.87,16.26-16.07,24.08-3.2,4.82-6.53,9.56-9.52,14.5-6.16,10.17-12.48,20.23-19.46,29.85-3.36,4.62-6.93,9.08-10.47,13.56-2.73,3.47-6.69,3.43-10.45,3a95.44,95.44,0,0,1-11.1-2.38c-10.44-2.49-20.88-5-31.73-4.26-3.62.26-7.18,1.27-10.77,1.89-5.57,1-11.18,1.67-16.67,3.24-8.5,2.42-16.31,5.82-23.17,11.67-5.91,5-11.1,10.48-14.68,17.36a53.29,53.29,0,0,0-5.29,18.16c-.23,1.87.51,3,2.19,3.36a25,25,0,0,0,5.23.62c35.53,0,71.07.12,106.6-.07a38.3,38.3,0,0,0,14.79-3c6.47-2.75,11.38-7.61,16.62-12,5.68-4.8,11.35-9.6,16.94-14.49a53.23,53.23,0,0,0,7.52-7.91,47.05,47.05,0,0,1,8.24-7.75c5.38-4.32,9.24-10,14.07-14.89,6.72-6.73,12.77-14.14,19.55-20.8,5.08-5,9.62-10.54,15.32-14.88.85-.66,1.48-1.74,2.78-.91Z"/>
    <path d="M351.46,586.8a4.32,4.32,0,0,1,1-3.35c3.7-5,5.91-10.83,8.51-16.4,2.27-4.88,4.07-10,5.89-15.07a86.88,86.88,0,0,0,3.66-14.12c.49-2.75-1-3.39-2.11-4.64-4.47-4.94-10.4-7.21-16.61-9-6.89-1.94-13.85-3.8-21-4.18a186.22,186.22,0,0,0-21.25.54,122.24,122.24,0,0,0-24.34,3.65c-.91.24-1.68-.28-2.65-.72,4.52-7.56,9.73-14.53,16.51-20.23,3.19-2.67,6.41-5.29,9.54-8a39,39,0,0,1,8.9-5.93c2.48-1.18,4.4-3.52,6.86-4.78a121,121,0,0,1,21.18-8.2,146,146,0,0,1,15.13-3.63c7.48-1.35,14.76-1.65,22.22.58a85.52,85.52,0,0,1,17.46,7.3c5.34,3,10,7.19,14.54,11.29,2.92,2.62,5.7,5.4,8.66,8,1.54,1.34,3.44,1,5.21.33,5.08-1.84,9.74-4.52,14.49-7.05,5.23-2.79,10.47-5.59,15.75-8.26,8.15-4.12,16-8.81,23.64-13.69,5.91-3.76,11.5-8,17.6-12.28,10.38,20,20.7,39.81,31.1,59.8a27,27,0,0,1-8.32,2.39c-12.53,1.88-24.67,5.47-36.94,8.44-10.54,2.55-21.05,5.4-31.12,9.52-6.72,2.75-13.56,5.18-20.1,8.47-6.1,3.06-12.35,5.91-18.69,8.52-4.79,2-8.56,5.67-12.36,9.16-4.81,4.42-9.54,9-15.42,12a80.94,80.94,0,0,1-21.22,7.86c-4.1.82-8.17,1.62-12.33,2.14-1.37.18-2.73-.44-4,.19Z"/>
  </g>
  <g class="skinOverlapLine">
    <path d="M563.72,242.68c-1.84,7.27-7,12.29-12.11,17.16-2.71,2.58-6.63,3.46-10.38,4.1"/>
    <path d="M548,304.3c5.58,3.09,10.72,6.69,14.51,12a4.67,4.67,0,0,0,2.74,2.18"/>
    <path d="M432.48,670a41.22,41.22,0,0,1-10.17,12.63"/>
    <path d="M515.66,212.18a29.54,29.54,0,0,0-.62,8"/>
  </g>
  <path class="bennettSleeves" d="M687,277.19c-2-1-3.92.18-5.85.36-3.41.32-6.77,1.09-10.18,1.45s-4.9,2.6-6.15,5.27c-2.89,6.19-6.88,11.62-11.07,17-3.44,4.39-7.71,7.9-11.7,11.72-1.11,1.07-2.57,1.21-3.76,2.07-5,3.6-10.63,5.21-16.56,6.69-10.59,2.63-21.35,4.95-30.89,10.86-7.74,4.8-13.62,11.43-19.34,18.26a80.34,80.34,0,0,0-10.72,17.58c-2.69,5.73-4.15,12-5.65,18.13-1.38,5.66-3.25,11.24-4.19,17-.82,5-3.26,9.65-3.45,14.77a4,4,0,0,1-1.82,3c-6.14,4.65-12.2,9.4-18.78,13.5A94.06,94.06,0,0,0,515.72,443c-3.76,3.2-8,5.64-11.82,8.79a42.69,42.69,0,0,0-6.47,6.49c-2.62,3.38-2.89,7.33-2.61,11.13A53.43,53.43,0,0,0,501.41,491a90,90,0,0,0,15.91,21.4c2.56,2.54,2.54,4.72,1.72,7.52a158.24,158.24,0,0,1-13.22,31.74,37.43,37.43,0,0,1-4.05,5.21c-3.91,4.89-7.5,10-12.19,14.3-2.19,2-3.9,4.7-5.91,7-1,1.13-.7,3-.26,4.23,1.32,3.74,1.55,7.72,2.91,11.46,2.06,5.64,5.61,10.18,9.25,14.81A48,48,0,0,0,508.33,620a45.78,45.78,0,0,0,16.26,6.59,104.45,104.45,0,0,0,13.56,1.21,9.43,9.43,0,0,0,7.72-3.06c2.35-2.53,5-4.81,6.47-8a8.06,8.06,0,0,1,1.52-1.85c2.74-2.87,5.76-5.31,7.59-9.15,1.36-2.86,4.62-4.75,6.58-7.49,4.21-5.88,8.81-11.46,12.48-17.78,2.24-3.88,4.82-7.69,7.13-11.56,3.67-6.14,7.51-12.2,10.66-18.68,4.82-9.91,10.16-19.57,15.34-29.3,4-7.43,8.24-14.68,11.87-22.25,1.37-2.84,3.52-5.2,4.5-8.24a2.85,2.85,0,0,1,1.8-1.51C640.73,486.65,647.42,481,654,475a85,85,0,0,0,12.26-14.55,63.36,63.36,0,0,0,9.2-20c1.29-4.75,2.74-9.45,3.23-14.45a171.41,171.41,0,0,0,.8-18.81c-.07-6.55-1.37-13-2.53-19.39-1-5.53-3.29-10.73-5.13-16-2.67-7.68-6.62-14.77-10-22.13a26.78,26.78,0,0,0-3.55-5.93c-2.73-3.33-3.93-7.71-7.14-10.75a6.82,6.82,0,0,1,3.4-3.38c7.39-3.62,13.08-9.51,19-14.92a123.55,123.55,0,0,0,19.86-24.2,31.49,31.49,0,0,0,4.33-9.86,5,5,0,0,0,0-2.83c-3.56-.37-7-1.18-10.56-.88Z"/>
  <g class="clothesOverlapLine">
    <path d="M806.79,686.31c-2.89.13-5.49,1.43-8.29,2-8,1.62-16,3.25-24.06,4.49-6,.93-12.09,1.6-18.17,2.22q-15.3,1.53-30.5,4c-10.94,1.77-22,2.41-33,3.4-5.9.53-11.71-.71-17.58-.12a12.73,12.73,0,0,1-3.38-.57"/>
    <path d="M645.66,443.24c0,6.51-2,12.64-3.76,18.77-2.69,9.42-7.47,18-11.64,26.82"/>
    <path d="M547.08,420.44c-.82,4.21-1.68,8.42-2.45,12.63-.86,4.64-2.1,9.18-2.94,13.84a272.84,272.84,0,0,1-8.21,31.74c-2.44,7.88-5.25,15.64-8,23.42-1.56,4.45-3.27,8.84-4.91,13.26"/>
  </g>
  <path class="hairBlack" d="M563.11.89c6.15-1.11,12,.34,17.86,2.1,4.62,1.39,8.63,3.89,12.64,6.47a75.71,75.71,0,0,1,18.44,16.67,61.36,61.36,0,0,1,5.23,7.7c2.66,4.65,5.07,9.43,7.59,14.15l.46-.92a6.2,6.2,0,0,0,3.93-3.13,34.49,34.49,0,0,1,10.56-10.41c9.8-6.46,20.44-10,32.34-9.31a39.58,39.58,0,0,1,11.11,2.16,2.83,2.83,0,0,1,1.94,1.93c-3.14,1.23-6.36,2.22-9.32,3.73a54.44,54.44,0,0,0-8,5.2A60.11,60.11,0,0,0,652.31,55.3c-1.9,3.23-4.32,6.22-6,9.62-.71,1.41-.8,2.28.52,3.79,4.07,4.69,9.1,8.38,13.07,13.14,6.09,7.31,11.31,15.08,14.86,24,1.95,4.91,4.1,9.75,5.38,14.84,2.92,11.6,5.07,23.38,4.33,35.41a115.77,115.77,0,0,1-5.65,30.14,221.35,221.35,0,0,1-9.67,23.49,149.76,149.76,0,0,1-13.78,23.17A84.87,84.87,0,0,1,641,249.13c-7.79,6.55-15.93,12.46-26.46,13.94-3.77.53-7.41-.51-11.1-.34a57.66,57.66,0,0,1-25.76-4.91c-6-2.63-12.63-5.87-14.69-13.44a24,24,0,0,0,2.86-9.4c.6-6.6,1.38-13.21-.62-19.71-1.91-6.22-6.32-10.59-11.47-14.05a22.6,22.6,0,0,0-6.69-3.25A23.66,23.66,0,0,0,532,199.28c-6.25,2.48-11.76,6.15-15.65,11.72-1.31,1.87-2.81,1.39-4.39,1.49-5.54.34-10.86,2-16.33,2.76-5.91.79-5.32.85-7.35-4.62-1.31-3.55-3.64-6.41-5.67-9.48a3.5,3.5,0,0,0-2.39-.47,167.09,167.09,0,0,1-32-.28c-9.51-1.05-17.94-5.23-25.89-10.39-7.22-4.69-11.81-11.61-15.29-19.16-2.25-4.88-3.31-10.28-4.16-15.65-.49-3.08-1.43-6.07-1.2-9.25.65-9.27,1.26-18.59,4.45-27.37a102.17,102.17,0,0,1,5-11.19c2-3.94,3.74-8,6.12-11.74s5.13-7.63,7.88-11.28a86.54,86.54,0,0,1,18.46-18.49c3.48-2.51,7.24-4.65,10.75-7.14,8.56-6.08,18.21-10.07,27.81-14a94.22,94.22,0,0,1,19.64-5.42c2.51-.42,4.84-1.49,7.39-1.9,4.1-.66,8.14-1.54,12.33-1.85,6.38-.46,12.72-1.62,19.11-2a101.27,101.27,0,0,1,15.08.29A222.9,222.9,0,0,1,588.06,39c.28.07.62-.12,1.28-.27a28.09,28.09,0,0,0-2.18-6.5A112.33,112.33,0,0,0,568.94,6.41c-1.89-2-5-2.65-6.46-5.25C562.48,1.16,561.87,1.11,563.11.89Z"/>
  <g class="hairOverlapLine">
    <path d="M589.59,36.58c2.42,5.87,4.93,11.69,6.48,17.87a25.82,25.82,0,0,1,.3,5.55"/>
    <path d="M493.78,199.25c-3.81,1.14-7.8,1-11.7,1.54"/>
  </g>
</svg>
