<svg viewBox="0 0 1588.16 511.65">
  <path class="bennettJeans" d="M740,199.77c-2.56,1.17-4.91-.54-7-1.13a135.91,135.91,0,0,0-28.39-4.33,149.69,149.69,0,0,0-26.8.94,197.07,197.07,0,0,0-20.64,3.95c-7.55,1.74-15.09,3.57-22.48,5.89-6.59,2.07-13,4.68-19.41,7.35-9.21,3.85-18.49,7.59-27.37,12.11-5.7,2.91-11.92,5-17.15,8.44-6.66,4.34-14.27,6.4-21,10.57-4,2.46-9,3.79-13.32,6a143.31,143.31,0,0,1-15.16,6.36c-5.66,2.07-11.3,2.24-17.28,1.64-6.54-.65-13.08.3-18.77,4.18-4.48,3.05-8.45,6.76-12.73,10a26.93,26.93,0,0,1-11.59,4.85c-6.31,1.17-12.64,2.27-18.86,4-5,1.42-10.42,1.6-15.67,2-10.77.75-21.56,1.68-32.35,1.76-9,.07-18.06,1.21-27.11.17a17.33,17.33,0,0,1-6.1-2,26.18,26.18,0,0,0-13.6-3c-3.72.18-7.74.46-11.45,2.11-3.36,1.48-6.88,2.49-10.21,4.25-3.81,2-6.46,5.07-9.47,7.85-.77.71-.71,1.43-.7,2.48.13,13.86.09,27.72.07,41.58,0,.11-.19.21-.6.62H173.86a9.67,9.67,0,0,1,.47,4q0,45,0,90a9.68,9.68,0,0,0,1.79,5.6,54.42,54.42,0,0,0,8.41,9.8c5.61,5.32,12.69,7,20,7.67,9.44.88,18.92.15,28.33-.43,6.47-.4,13-.83,19.42-.91,5.53-.07,11.09,0,16.64.1,3.38.05,6.78-.62,10.16-.52,9.25.27,18.51.53,27.73,1.25,9.95.77,19.95.67,29.88,1.56s19.94,1.09,29.89,2a234.61,234.61,0,0,0,30.81.4c5.85-.21,11.7-.23,17.56-.64,9.23-.64,18.48-1.4,27.72-1.42,4.52,0,9-.15,13.55-.17,3.7,0,7.4-.21,11.1-.28a42.19,42.19,0,0,1,6.46,0,53.1,53.1,0,0,0,11.41.3c5.46-.41,10.89.51,16.31,1,3.39.29,6.83.47,10.19.63,5,.24,10,1.56,15.09.54,2-.39,3.86.52,5.84.66,12.52.86,25.07.68,37.59,1.07,6,.19,12.11.2,18.18-.15,5.84-.34,11.74.31,17.55-.17,7.34-.6,14.6.55,21.88.33,10.68-.32,21.37.14,32-.32a143.11,143.11,0,0,0,17.59-1.57c4.19-.71,8.65-.54,12.89-1.21,7-1.1,14.09-1.07,21-2.86,2.81-.72,5.93-.46,8.92-1,5.49-.93,11.07-1.4,16.62-1.92a126.08,126.08,0,0,0,23.72-4.93,6.21,6.21,0,0,1,1.54,0v-3.08q0-114.3,0-228.59c0-1.72-.16-2.76-2.11-3.82-5.13-2.81-9.92-6.25-14.86-9.42a14.16,14.16,0,0,0-4.62-2.16"/>
  <g class="clothesFoldLine">
    <path d="M449.44,400.32c.2-2.77.47-5.54.6-8.32a76.1,76.1,0,0,0-3.73-28.94c-2.74-7.88-9.94-15.87-16.9-20.35"/>
    <path d="M490.1,283.56c5.83,4.26,8.38,10.64,11.11,16.94,2.82,6.51,4,14,4.91,21"/>
  </g>
  <path class="skinEastAsian" d="M1349.93,384.92c-3.49-.84-6.8.54-10.16,1a98.1,98.1,0,0,1-20.94,1,23.93,23.93,0,0,1-12.93-5.44A248.35,248.35,0,0,1,1280,357.78a79.08,79.08,0,0,1-16.11-25.25,9.84,9.84,0,0,1-3.64.32c-23.93,0-47.85,0-71.78,0-3.26,0-3.74.47-3.73,3.73q.07,63.15,0,126.5c3.63,1.42,7.59,1.54,11.41,2.26,5.83,1.1,11.73,1.89,17.58,3,4.36.8,8.83,1.21,13.21,2,5.85,1.06,11.77,1.64,17.59,3,4.33,1,8.84,1.16,13.22,2,5.85,1.07,11.76,1.67,17.58,3,4.24.95,8.62,1.25,12.92,1.93,4.54.71,9.06,1.67,13.58,2.3s8.82,1.35,13.22,2c5.87.91,11.75,1.81,17.59,2.93,4.26.81,8.63,1.21,12.92,2,2.16.38,4.33.59,6.48,1.18,4.71,1.3,9.44-.21,14.16-.34a141.2,141.2,0,0,0,14.17-1.48c7.3-1,14.58-2,21.87-3.06,5.65-.81,11.31-1.57,16.94-2.49,5-.81,10-1.43,14.75-2.88,3.59-1.08,7.26-1.35,10.83-2.31,5.73-1.53,11.46-3.05,17.26-4.29,5.31-1.14,10.68-1.64,16,.24,6.64,2.34,13.23,4.94,20,6.69a169.6,169.6,0,0,0,23.37,3.91c8.73,1,17.21-.44,25.55-2.12,9-1.81,17.74-4.82,26.5-7.62a16.21,16.21,0,0,0,7-5.21c3.78-4.48,7.11-9,7.05-15.66a43.58,43.58,0,0,0-5.26-20.26c-2.12-4-6.13-6.81-10.09-8.9-8.9-4.69-17.54-10-27.37-12.72a125.37,125.37,0,0,0-14.77-3.51,52.93,52.93,0,0,1-10.11-2.56c-4.72-1.72-9.48-1.82-14.25-2.2a38.16,38.16,0,0,0-27.8,8.48c-5.16,4.24-10.75,8-16.28,11.75-2.63,1.8-4.89,4.07-7.93,5.39-2.49,1.08-3.68.19-4.65-1.66-4.78-9.17-12.18-15.85-20.34-21.88-9.34-6.92-19.59-12.33-29.61-18.12-3.2-1.84-6.86-2.63-10.46-3.41a80.94,80.94,0,0,0-9.86-1.8c-4-.36-8,.3-12,.77-2.35.28-4.77.3-7.13.57-3.17.36-6.37.48-9.53,1.06Z"/>
  <path class="shirtWhite" d="M1137.67,224.11c-.65,1-.29,2.06-.29,3.08q0,104.12,0,208.25v3.39h-51.75c-2.3,0-4.29.14-6,2.39-1.55,2.07-4.3,2.27-7,2.69-4.11.64-8.29.94-12.4,1.72-3.12.58-6.62.49-9.79,1.29-6.9,1.73-14,2.09-21,3.14-5.81.88-11.69,1.61-17.52,2.44-7.11,1-14.25,1.87-21.29,3.48-4.19,1-8.64.73-12.91,1.37-16.57,2.5-33.23,2.6-49.92,2.47-5.34,0-10.65-.51-16-.14-4.39.3-8.83-.44-13.24-.48-5-.05-10.07.25-15.1.25s-10.27-.17-15.4-.29c-11.71-.26-23.43-.91-35.13.29a24.28,24.28,0,0,1-4,0,76.27,76.27,0,0,0-17.26,1.19,15.66,15.66,0,0,1-4.61-.27c-10.48-1.36-21,.35-31.42,0a218.48,218.48,0,0,1-23.12-2.12c-4-.55-7.82-1.26-11.11-4-6.87-5.72-7.38-10.47-4.91-18.22,1.41-4.41,4.41-8.08,5.59-12.61,2-7.66,4.43-15.13,5.42-23.09.72-5.85,2.62-11.7,2.71-17.59.15-9.44,1.05-18.89.15-28.34a168.78,168.78,0,0,0-6.28-30.86c-1-3.48-2.08-7.07-2.86-10.69-.81-3.79-3-7.38-5.08-10.79a106.76,106.76,0,0,1-9-19.83c-2.34-6.73-4.63-13.58-5.69-20.84-1.13-7.73-2.07-15.44-1.2-23.12,1.1-9.8,4-19.18,9.74-27.42,2.65-3.79,6.37-6.33,9.95-9.21,4.79-3.85,9.68-3.3,14.68-3,5.78.34,11.49,1.64,17.26,2.32,7.49.89,14.94,2.16,22.49,2.48a129.17,129.17,0,0,1,17.87,1.84c4,.75,7.29-1.29,10.47-3.37,10.08-6.6,20.17-13.19,30.45-19.49a6.23,6.23,0,0,1,3.44-1.16q90.88,0,181.76-.05a10.84,10.84,0,0,1,5.8,2c13.17,8.13,26.92,15.25,40.08,23.37,3.19,2,6.55,2.42,10.18,2.85,8.17,1,16.1,3.26,24,5.38a52.47,52.47,0,0,1,19.09,9Z"/>
  <path class="bennettSleeves" d="M1062.5,407.1c.71-2.4-.46-4.62-1-6.74a48,48,0,0,1-1.57-12.05c-.07-4.82,1.14-9.65,1.66-14.48.48-4.36,2-8.52,2.24-12.94.07-1.55.87-3.06,1.16-4.63,1.11-6.09,2.49-12.06,5.54-17.56,3.5-6.33,6.55-12.88,11.69-18.2,5.85-6.07,11.23-12.57,17.58-18.16A193.77,193.77,0,0,1,1126,282.65c1.48-.91,3.09-1.63,4.61-2.48s1.69-2.46,1.21-4a90.44,90.44,0,0,0-3.18-8.58c-4.85-11.36-5.39-23.12-4.59-35.18.21-3,1-5.94,1.47-8.91.59-4.06,6.09-7.3,10-5.75,5.39,2.15,11.24,3.36,15.82,7.5a22.69,22.69,0,0,1,6.06,7.79c.88,2,2.18,2.52,4.35,2.51,21.15-.1,42.31-.06,63.46-.06q19.72,0,39.43,0c1.55,0,3.64-.86,4.51-.15,1.63,1.34.69,3.76.7,5.71q.08,44.52,0,89a6.38,6.38,0,0,0,1.2,4.35,15.63,15.63,0,0,1,2.76,7.37c.34,2.13.21,4.33-2.09,6.06a29.78,29.78,0,0,0-8.6-6.45,25.57,25.57,0,0,0-10.2-2.19c-9.7-.53-17.07,4.56-24.64,9.35-2.92,1.85-4.49,5-7.09,7.41a91.61,91.61,0,0,0,11.37,12.64c10.55,9.88,20.88,20,31.49,29.81,4.69,4.33,10.22,7.66,15.29,11.53A49.85,49.85,0,0,0,1297,419a74.89,74.89,0,0,0,11.69,1.6c7.69.72,15.4.34,23.1.29,6.37-.05,12.73-.9,19.11,0a6.64,6.64,0,0,1,3.65,1.35,57.22,57.22,0,0,1,6.77,7.07c4.58,6,6.86,13,8.37,20.29,2.74,13.24,1.44,26.25-2.19,39.12a45.31,45.31,0,0,1-2.79,7.38,7.43,7.43,0,0,1-5.16,4.14c-6.23,1.66-12.56,2.74-18.82,4.2-2.57.6-5.13,1.24-7.7,1.84a17.94,17.94,0,0,1-4.32.88c-6.55-.13-12.89,1.68-19.4,2-4.93.24-9.9.47-14.77,1-3.28.37-6.62.39-9.91.83-3.57.49-7.37-.58-11.06-1-8.79-1.07-16.35-5.76-24.64-8.35-9.52-3-18.41-7.64-28-10.6-5.26-1.62-10.36-4.13-15.53-6.1-4.57-1.73-8.95-4-13.76-5.25-4-1.07-7.87-3.09-11.73-4.83-7.11-3.22-14.1-6.74-21.28-9.79-8-3.4-16.21-6.42-24.32-9.6-6.06-2.37-12.07-4.86-18.19-7.06-9.16-3.28-18.34-6.8-28.32-6.1-3,.21-6.14-.56-9.14,1.33-2.52-4.52-5-9-7.5-13.44-3.83-6.88-6.21-14.33-8.29-21.88-.17-.62-.24-1.12-1-1.22Z"/>
  <g class="clothesOverlapLine">
    <path d="M636.13,242.9a24.64,24.64,0,0,0-6.77,9.55c-1.58,3.58-3.25,7.13-4.59,10.79a41.87,41.87,0,0,0-2.41,16c.22,5.75,1.29,11.53.69,17.24a61.05,61.05,0,0,0-.25,13.58c.72,6.12,2,12.12,3.16,18.16"/>
    <path d="M622.57,292.81c-5,1-11.34,1.87-16.31,3.12-7,1.76-13.87,4.05-21,5.56-2.07.45-4.09,1.25-6.15,1.86-8.67,2.53-17.48,4.45-26.21,6.72-8,2.09-16,4.35-24,6.44-9.23,2.42-18.53,4.58-27.7,7.18-4,1.13-8.11,1.86-12.09,3.16-2.83.92-6.14.38-9.19.32a81.23,81.23,0,0,1-12.63-1.73c-6.92-1.23-14-1.83-20.59.49a39.56,39.56,0,0,0-17,16.84c-4.24-2.29-9-2.92-13.83-2.83-5.28.1-10.48-.76-15.71-1.24-10.09-.92-20.12-.3-30.21.4-5.73.39-11.44,1.3-17.24,1.25a55.88,55.88,0,0,0-11.69,1.5c-3.89.81-7.81,1-11.72,1.48"/>
    <path d="M1200.21,336.86c.13,2.42,2.23,3.39,3.74,4.56,5.7,4.45,10.9,9.44,16.27,14.25.21.19.22.6.32.91"/>
  </g>
  <path class="skinEastAsian" d="M1185.11,191.76h203v3.39q0,19.56,0,39.12c0,1.4-.33,2.89,1.19,4.07-1.93,1.39-3.56,3-5.54,3.88-9.1,3.9-14.92,11.32-20.59,18.87-6.83,9.1-12.51,19.1-20.41,27.35-5.83,6.08-11,12.71-17.39,18.36a117.22,117.22,0,0,1-28.73,19.05,62.72,62.72,0,0,1-23.76,5.69c-9.91.43-19.19-1.56-27.81-7.18-7.69-5-14.94-10.34-20.88-17.37a35.77,35.77,0,0,0-3.2-2.91c-3.88.85-6.41,4.06-9.72,6-3.84,2.22-6.74,5.6-10.09,8.41-1.76,1.48-2.68,1.7-4.42.24-6.42-5.38-13.17-10.26-18-17.45-2.55-3.77-5.67-7.4-8.65-11-3.33-4-5.6-8.78-7.73-13.52a89.73,89.73,0,0,0-3.89-8.21c-3.16-5.45-4.09-11.46-5.78-17.32a27.24,27.24,0,0,1-.72-10.78c.3-2.52.78-4.94,3.73-7a84.65,84.65,0,0,0,24.74-26.32,31.41,31.41,0,0,0,4-15.07Z"/>
  <g class="skinOverlapLine">
    <path d="M1261.21,231.5c-1.66,9.24,1,16.78,8.58,22.55.93.71,1.91.71,2.81,1.17"/>
    <path d="M1360.71,427.74c5.34.1,10.69.13,16,.33,6.17.22,12.33.84,18.49.85,10.19,0,20.32,1.12,30.5,1.23,7.09.08,14.17.21,21.25.64,1.45.09,2.8-.91,4.32-.58"/>
    <path d="M1217.15,297.43l3.39,5.23"/>
  </g>
  <path class="hairBlack" d="M1301.87.75c2.59-1,4.07,1.23,5.81,2.24,7.18,4.16,12.81,10.12,17.86,16.6a31.82,31.82,0,0,1,4.57,8,5.69,5.69,0,0,0,5,3.93c3.64.45,6.86,2.17,10.12,3.52a162.9,162.9,0,0,1,37.41,22.26A164.49,164.49,0,0,1,1402,74.42c10.85,11.55,21.3,23.47,29.24,37.27a253.56,253.56,0,0,1,12.5,24.39c1.35,3.08,2.06,6.7,3.07,10,1.32,4.37,3.31,8.51,4.6,13,3.22,11.11,4.84,22.37,1.6,33.56-2.32,8-5.78,15.8-11.53,22.23-2.52,2.83-4.57,6.06-7.42,8.61a29.76,29.76,0,0,1-2.45,1.86,76,76,0,0,1-19.66,10,50.73,50.73,0,0,1-18.23,3,92.65,92.65,0,0,1-20-2.83c-3.88-1-8-1.18-11.65-2.89-4-1.89-8-1.59-12.06-1.15-6.52.7-12.42,3.34-18.11,6.28-2.24,1.15-3.44,1.15-5.35-.37-3.8-3-8.21-5.24-12-8.34-.8-.66-1.47-.89-.94-2.21,1.54-3.87,1-8,1-12,0-2.83-2.44-4.25-4-6.15-4.76-5.82-11.47-7.68-18.48-8.17-2.68-.18-5.62.82-8.32,2-6.7,2.83-12.2,6.77-16.15,13.2-2.67,4.36-5,8.69-6,13.65-.35,1.76-1,2.38-2.82,2.5-8.13.51-16.16,1.06-24.07-2.1-5.22-2.09-10.58-3.86-15.65-6.3-3.89-1.87-7.62-4.07-11.42-6.12a99.41,99.41,0,0,0-19.09-7.73c-2.8-.83-5.5-2-8.27-3-1-6-1.78-12.21-3.7-18.27-2.44-7.67-5.86-15.11-7-23.1-1.3-8.75-2.66-17.47-1.78-26.49,1-9.92,3.39-19.44,6.07-28.93,1.36-4.79,4.6-8.77,6.75-13.25,4.6-9.62,11.16-18,18.21-25.83,8.65-9.66,18.31-18.34,29.55-24.94,5.85-3.42,11.62-7.21,18.15-9.27,9.2-2.89,18.08-7.15,27.72-8.2,5.4-.59,10.9-1,16.29-1.6,6.62-.74,13.17-.2,19.79-.43.87-3.65-.89-6.85-1.92-10.15A148.53,148.53,0,0,0,1301.87.75Z"/>
  <g class="hairOverlapLine">
    <path d="M1310.19,26.63c.88.3,1.14.9,1.27,1.85,1.9,13.65,2.3,27.24-1.58,40.66-.39,1.35-.82,2.68-1.23,4"/>
    <path d="M1330.83,28.17a8.69,8.69,0,0,0,1.56,4.3c2.86,4.76,3.69,10.14,5,15.41,1.54,6.4,1.13,13,2.08,19.42a16.83,16.83,0,0,1-.78,7.16c10.28,2,19.82,5.58,28.19,11.67,5.9,4.3,11.21,9.25,14.52,16,2.24,4.55,4.93,8.84,6.23,13.85.75,2.88,1.93,5.59,1.17,8.65l-.32.31c-2.38-1-3.89-3.13-5.51-5-6.13-7-13.06-13-22.25-15.25a43.67,43.67,0,0,0-17.55-.55c-2.76.44-5.52.93-8.3,1.36"/>
    <path d="M1347.77,220.41c1.81,3.13,4.83,5,7.39,7.4,1.33,1.23,3.47,1.6,4,3.69"/>
  </g>
  <path class="fur" d="M1008.59,118.44c1.48,1.92,1.21,5.22,2.91,6.23s4,1.63,6,2.66c10.1,5.14,18.8,12.1,26.79,20.06,5.5,5.46,10.22,11.57,15.09,17.56,3.12,3.84,5.11,8.31,7.51,12.57a7.18,7.18,0,0,0,4.77,3.63c3.14.73,6.08,2.55,9,4.18,3.72,2.1,7.59,3.92,11.16,6.36s5.22,5.89,6.12,9.92a43,43,0,0,1-.63,20.65,58.92,58.92,0,0,1-4.43,12.56c-1,1.9-3.33,3.05-5.42,4.09-5.36,2.69-11.12,3-17,3.07s-11.08-1.75-16.61-2.62a19.59,19.59,0,0,1-6.44-2.71,99.27,99.27,0,0,1-13.93-9.76c-5.51-4.74-6.52-10.86-5.48-17.56.24-1.55-.17-3.34,1.42-4.53-1.78-3.26-5.06-3-7.65-3.37-4.14-.66-8.41-.53-12.88-.75a46.92,46.92,0,0,1-6.78,11.75c-3.41,4.61-7.87,8.17-11.79,12.25-2.64,2.75-5,5.66-7.45,8.59-3.79,4.6-6.25,10.38-11.61,13.62a76.73,76.73,0,0,1-15,7.24c-8.08,2.76-16.32,3.52-24.69,3.84-3.9.15-7.62-1-11.42-1.74-10.35-2.06-18-8.6-25.88-14.84a46.57,46.57,0,0,0-5.84-3.72,65.62,65.62,0,0,1-22.15-20c-.64-.94-1-2.09-1.6-3-.3-.46-1-.69-1.6-1.11-6.64,5.14-9.75,11.84-10.48,20.18-.8,9-1.2,18.1-2.18,27.1-1.12,10.28-5.25,19.33-14,25.58a28.17,28.17,0,0,1-14.17,4.88c-5.11.45-10.27.66-15.4.61-4.8,0-9.65-.67-12.27-5.51a22.63,22.63,0,0,1-2.76-9.22c-.74-11.25-.39-22.42,3.27-33.28,1-3.08,1.39-6.38,2.23-9.53a144.55,144.55,0,0,1,6.93-19.47c4.42-10.37,12.42-17.42,20.46-24.6a136,136,0,0,1,18.53-13.49c2.11-1.33,4-3,6.72-3.54,1.77-.33,2.76-1.59,2.25-3.93-1.54-6.9-3.19-13.83-3.38-20.93a15.78,15.78,0,0,0-1.63-7.39c-3.13-5.79-4.5-12.19-5.68-18.52-.7-3.73.42-7.77.41-11.67a37.32,37.32,0,0,1,5.25-20c2-3.2,6.91-4.68,10.82-3.42a125.51,125.51,0,0,1,20.9,9.35,60.87,60.87,0,0,1,8,5.8c3.17,2.46,6.25,5,9.33,7.51,6.61-1,13.14-3,19.94-3.55,7.29-.65,14.55-1.5,21.88-1.51,3.7,0,7.4-.11,11.09.05a4.17,4.17,0,0,0,3.76-1.53c4.55-4.82,8.53-10.18,13.27-14.76,6.16-6,13.42-10.56,20.81-15,3.82-2.29,8-2.86,12.09-3.84,3.79-.92,7.07,1.11,8.35,4.83a55.37,55.37,0,0,1,3,15.73,99.85,99.85,0,0,1-2.24,24.63c-.2,1-.05,1.88-.24,2.79Z"/>
  <g class="furOverlapLine">
    <path d="M1010.44,122.44a19.1,19.1,0,0,0,1.54,5.85c2.08,6,1.81,12.33,2.74,18.49,1.15,7.56.52,15.2.61,22.8.1,9-1.19,17.69-5.17,25.89-.75,1.56-.64,3.5-1.88,4.91"/>
    <path d="M852.09,169.88c1,5.35,1.63,10.76,3.07,16,1.3,4.76,2.85,9.48,4.11,14.22,1.31,4.92,3.75,9.31,5.14,14.12"/>
    <path d="M1067.12,180.36c-7-2.16-13.27-.54-19.43,3a40.19,40.19,0,0,0-17.54,20.38"/>
  </g>
  <g class="bennettShoe">
    <path d="M307.42,347.33a5.58,5.58,0,0,0,4.84-.16c2.93-1.58,6.09-.73,9-1.62a37.33,37.33,0,0,1,6.45-1c4.26-.5,5.52-4.19,6-8a62.48,62.48,0,0,0,.53-10.5c-.53-13-5.76-23.22-17.27-29.92-2.87-1.67-6-1.2-9-2-7.42-2-15.2-1.84-22.78-3.11-3.93-.66-8,.48-12,.29-5-.23-10.09-.78-15.09.26s-10.39,1.75-15.3,4.31c3.06,7.84,6.14,15.6,9.12,23.4q4.7,12.3,9.24,24.65c.82,2.23,1.58,3.61,4.63,3.84a250.18,250.18,0,0,0,32.05-.13c3.07-.17,6.18.38,9.24-.33Z"/>
    <path d="M76.67,459.16C84.44,458.78,92,457,99.42,455a105.32,105.32,0,0,0,13-4.44c6.71-2.77,13.8-3.64,21-4,7.93-.35,15.82-1.05,23.73-1.74,6.14-.53,12.13-1.63,18.17-2.6,4.14-.67,7.47-2.95,10.77-5.27,8.49-6,13-14.87,15.49-24.38a65.86,65.86,0,0,0,1.38-26.43c-1.41-9.07-6.9-15.76-13.72-21.65-4.24-3.65-9.36-5.13-14.21-7.36a92.4,92.4,0,0,0-14.52-5.43q-6.19-1.65-12.59-2.7c-4.32-.7-8.68-1.55-13-2.63-2.16-.55-4.32-.11-6.47-.29l-12.22-.94c-5.86,17.58-11.6,34.83-17.36,52.08q-10,29.89-20,59.77a11.06,11.06,0,0,0-.32,1.54Z"/>
  </g>
  <g class="soleWhite">
    <path d="M134.28,369.52c-1.54-10.29-6.77-18.17-15.76-23.34a15.34,15.34,0,0,0-7.35-1.62c-9-.14-17.79.52-26.25,4.16a5,5,0,0,0-3,2.94c-4.37,10.45-8.61,21-13,31.4-3.41,8.15-7.1,16.18-10.42,24.36-3.6,8.88-7.41,17.66-11,26.52-3.7,9-7.49,18-11.24,27.17a17.69,17.69,0,0,0,7.46,2c9.74,1,19.54,1.13,28.91-1.94,5.19-1.69,10.44-3.55,15.17-6.59a106.24,106.24,0,0,0,22.61-19.28c5.75-6.58,12.77-12.09,17.35-19.62,3.46-5.68,6.27-11.58,7.3-18.43,1.14-7.55.64-15,.52-22.51,0-1.76-.69-3.28-1-4.93Z"/>
    <path d="M235.33,349.8c1.12,1.78,2.91.95,4.31.85,4.32-.31,8.63-1,12.94-1.47l13.25-1.54-.62-1.85c1.52-1.24,1.14-3,1.24-4.62a63.59,63.59,0,0,0-3.75-26.48,31.94,31.94,0,0,0-7.92-12.39,29.35,29.35,0,0,0-6.21-4.86c-4.23-2.23-8.84-2.85-13.2-1.14-4.77,1.88-9.84,2.76-14.51,4.85a13.63,13.63,0,0,0-2.17,1.51Z"/>
  </g>
  <g class="soleWhiteDark">
    <path d="M45.86,368.28c-9.38-2.75-18.17-.75-26.47,3.74-9.61,5.2-13.75,14.37-16.28,24.31a84,84,0,0,0-2.57,23.4c.28,8.51,1.33,16.93,4.16,24.91A22.42,22.42,0,0,0,19,459.08a48.29,48.29,0,0,0,21,2.75,33.08,33.08,0,0,0,17.54-7c5.75-4.51,11.57-8.95,17.36-13.42,7.58-5.86,14.35-12.6,21.34-19.05a45.26,45.26,0,0,0,15-31.57c.52-9.29-.66-18.22-5-26.45a26.54,26.54,0,0,0-9.75-10.27c-3.41-2.08-6.51-4.27-10.82-4.38a14.27,14.27,0,0,0-7.7,1.69c-3.9,2.22-7.1,5.38-10.49,8.29-1.6,1.38-3.23,2.74-4.93,4-4.2,3.11-9,4.23-14.16,4.34a17.77,17.77,0,0,0-2.16.29Z"/>
    <path d="M153.38,349.18c5,1.75,10.09,3.42,15.08,5.27,2.54.95,4.91,2.31,7.43,3.31.7.27,1.77,1,2.44-.26l.62-.31c2.74-3.9,6.32-7,9.61-10.42,6.94-7.12,18-9.21,27.1-3.2,2.79,1.84,5,4.61,8.57,5.35a82.11,82.11,0,0,0,9.24,1.56c2.15.18,3.33-.91,3.63-2.54.71-3.88,2.44-7.72,1.85-11.69-1.13-7.64-.77-15.6-5.39-22.55-3.07-4.62-6.36-8.39-11.72-10.59-3.23-1.33-5.7-.15-8,.9a68.07,68.07,0,0,0-18.91,12.14c-6.08,5.71-13.41,9.69-20.9,13.3a52.32,52.32,0,0,0-19.12,15.71c-1.1,1.45-1,3.83-3.36,4.33a1.6,1.6,0,0,1-.31,0Z"/>
  </g>
</svg>
