<svg viewBox="0 0 189.64 370.88">
  <path class="fur" d="M77.53,178.52a28.25,28.25,0,0,1-5.3,2.43c-2.26.86-4.64,1-7,1.56a6.36,6.36,0,0,1-1.3-.06c-1.23,0-2.46.15-3.7.11-2.19-.08-4.37-.33-6.55-.37a9.43,9.43,0,0,0-3.24.24,4.14,4.14,0,0,0-2.79,5.11c.63,1.89,2.1,2.73,3.73,3.45a30.43,30.43,0,0,0,5.3,1.65,22.51,22.51,0,0,0,3.24.44c.44,0,.88.09,1.31.15,2.57.4,5-.34,7.47-.85,2-.41,4-1,5.94-1.61a8.2,8.2,0,0,1,1.76-.56c.35,0,.45-.29.48-.67.19-2,.32-4,.47-6,.09-1.29.3-2.56.28-3.85,0-.4.25-.76,0-1.21-.13-.28.19-.46.52-.41Z"/>
  <path class="bennettJeans" d="M98.94,225c.29.34.19.76.24,1.15.13,1,.34,1.9.45,2.86.18,1.66.32,3.33.47,5,.13,1.49.18,3,.4,4.47.33,2.15.59,4.32.93,6.48.4,2.5.82,5,1.09,7.53a36.33,36.33,0,0,1,.45,4.24c0,1.85.33,3.67.06,5.56a39.1,39.1,0,0,1-.94,4.22,4.59,4.59,0,0,0,.63,3.78,2.24,2.24,0,0,0,.31.38,2.22,2.22,0,0,1,.47,2.62,8.08,8.08,0,0,0-.09,1c-.39,2-.64,4.07-1,6.09-.17.87-.16,1.79-.25,2.69-.18,1.81-.46,3.6-.68,5.39-.11.87-.07,1.75-.15,2.62-.16,1.77-.45,3.53-.5,5.32a19,19,0,0,1-.23,2.61c-.19,1.1-.21,2.22-.4,3.32s-.24,1.95-.36,2.92a48.78,48.78,0,0,1-1.12,6.33,11,11,0,0,0-.32,2.07,13.49,13.49,0,0,1-.8,3.15,49.19,49.19,0,0,0-1.46,5.86,9.94,9.94,0,0,0,0,4.24,5.69,5.69,0,0,0,1.35,2.29,7.58,7.58,0,0,0,3.29,2.42,11.46,11.46,0,0,0,2.17.25,27.84,27.84,0,0,0,3.3.16c1.44.06,2.88.17,4.32.22,1.84.07,3.69.29,5.54.28a7.83,7.83,0,0,1,1.08.17,9.21,9.21,0,0,0,5.57-1.29,6.81,6.81,0,0,0,3-3.06,8,8,0,0,0,.72-3.37c.09-1.64.07-3.3.27-4.93a25.93,25.93,0,0,0,.27-2.93c0-.79,0-1.58,0-2.39.1-1.34.32-2.67.37-4a23.69,23.69,0,0,1,.37-2.93c.29-1.79.61-3.59.92-5.39.25-1.49.51-3,.77-4.46.18-1.08.38-2.16.53-3.24.28-1.94.81-3.83,1.13-5.77.28-1.77.5-3.55.79-5.32.21-1.25.32-2.52.47-3.77.18-1.46.46-2.89.75-4.32a30.79,30.79,0,0,0,.4-3.46c.24-2.75.45-5.51.83-8.25.22-1.55.24-3.12.33-4.69.16-2.64.61-5.24,1-7.85.25-1.88.42-3.77.77-5.62s.51-3.51.69-5.25.33-3.44.48-5.15c.19-2.11.19-4.23.49-6.32a23.42,23.42,0,0,0,.23-3.24,34.73,34.73,0,0,1,.37-5c.34-2.54.39-5.08.56-7.63.2-2.82.37-5.65.54-8.47.07-1.08,0-2.17.19-3.23a24.16,24.16,0,0,0,.25-3.16,20,20,0,0,0-.58-4.62c-2.08-.31-61.56-9.58-62.36-9.78A10.57,10.57,0,0,0,75,186.51c-1.08,1.71-1.83,3.58-2.79,5.35-.62,1.13-.91,2.42-1.43,3.6-.9,2-1.57,4.15-2.29,6.25-.53,1.52-.78,3.11-1.38,4.62-.51,1.28-.8,2.65-1.34,3.91-.78,1.8-1.36,3.66-2,5.49-.62,1.67-1.38,3.27-2,4.93-.57,1.48-.89,3.06-1.5,4.52-.9,2.13-1.53,4.34-2.37,6.48-.38,1-.89,1.9-1.26,2.87-.44,1.13-.85,2.28-1.38,3.36-.85,1.76-1.57,3.57-2.54,5.28-.71,1.25-1.81,2.15-2.52,3.36-.94,1.58-1.45,3.21-.59,5.05-.69.55-1.56.8-2.27,1.32a10.29,10.29,0,0,0-1.43,1.27,12.1,12.1,0,0,0-1.44,1.63C43.7,257,42.76,258,42,259.24a40.19,40.19,0,0,1-2.88,4.06c-.48.62-.8,1.35-1.3,1.94-1.43,1.7-2.81,3.46-4.19,5.2a42.14,42.14,0,0,0-3.45,5,11.85,11.85,0,0,1-1.59,2.17c-1.19,1.26-2.18,2.69-3.29,4-1.25,1.5-2.5,3-3.8,4.45a80.9,80.9,0,0,0-6.21,7.26,5.68,5.68,0,0,0-1,3.83c.13,1.56.45,3.08.63,4.62a.92.92,0,0,0,.32.62c1.93,1.66,3.86,3.32,5.78,5,1.47,1.3,2.92,2.62,4.39,3.93.82.72,1.63,1.45,2.47,2.15a1.88,1.88,0,0,0,1.15.37,11.28,11.28,0,0,0,3.86-.41,13.38,13.38,0,0,0,3.75-1.9,9,9,0,0,0,2.58-3.05c.68-1.21,1.5-2.33,2.07-3.62a15.38,15.38,0,0,1,2-3c1.27-1.64,2.66-3.19,4-4.73s2.73-3.09,4-4.67c1.53-1.85,3.16-3.62,4.75-5.42,1.23-1.39,2.55-2.72,3.63-4.21s2.31-2.71,3.23-4.27a20.72,20.72,0,0,1,2.27-2.72c.18-.2.44-.38.53-.62a5.35,5.35,0,0,1,1.33-1.91c1-.92,1.38-2.19,2.23-3.17,1.24-1.43,2.15-3.11,3.31-4.61.47-.61,1-1.17,1.46-1.78a46.15,46.15,0,0,0,2.55-3.92c.51-.83,1.1-1.61,1.69-2.39a41.86,41.86,0,0,0,3-3.87c1.16-2,2.77-3.6,3.93-5.54s2.51-3.68,3.5-5.68a24.48,24.48,0,0,1,1.67-2.72c.69-1,1.22-2.16,1.87-3.21,1.72-2.77,3.28-5.63,4.84-8.49.52-.94,1-1.92,1.56-2.84a1.2,1.2,0,0,0,.14-.69Z"/>
  <g class="clothesFoldLine">
    <path d="M125.52,272.56a15.59,15.59,0,0,0-6.79-4,18.4,18.4,0,0,0-5.69-.32c-2.92.17-5.51,1.4-8.08,2.63a1.5,1.5,0,0,0-.93.91"/>
    <path d="M69.37,263.47a10.68,10.68,0,0,0-1.94-3.92,16.16,16.16,0,0,0-5-4.7A26.59,26.59,0,0,0,56.37,252a13.49,13.49,0,0,0-6.87-.32c-.06,0-.1.14-.16.22"/>
  </g>
  <path class="skinEastAsian" d="M166.26,50.29l-4.47,1.77-8.55,3.31L143,59.3l-10,3.85-8.78,3.39-5,1.92c-.51.2-.67.48-.57,1.09a23.53,23.53,0,0,1,0,2.38,25.3,25.3,0,0,1-.62,6,1.74,1.74,0,0,1-.55.83q-3.12,3.69-6.09,7.48a6.27,6.27,0,0,0-1,1.24c1,.65,2.19,1.14,3.31,1.7,3.45,1.72,6.9,3.44,10.31,5.25a4.21,4.21,0,0,0,2.78.25c1.05-.14,2.11-.25,3.16-.43s2.11-.28,3.16-.43,1.9-.2,2.85-.34c1.49-.22,3-.38,4.47-.58,1-.13,2-.3,3.08-.35.51,0,1-.14,1.54-.17a1.33,1.33,0,0,0,1.1-.81c1.46-2.72,3.06-5.38,4.5-8.11,1.11-2.09,2.28-4.15,3.42-6.22,1.45-2.67,3-5.26,4.43-8,.94-1.83,2.12-3.53,2.89-5.45a2.09,2.09,0,0,1,.45-.55,18.45,18.45,0,0,0,2.84-4.16,13.69,13.69,0,0,0,1.47-3.69,17.3,17.3,0,0,0,.53-4.47c0-.28,0-.65-.38-.77Z"/>
  <path class="skinOverlapLine" d="M147.47,68.31a1.59,1.59,0,0,0,.38,1.54l.46.69"/>
  <path class="shirtWhite" d="M140.23,199.55a4,4,0,0,0,.91-2.78,33.84,33.84,0,0,0,0-4.39,17.8,17.8,0,0,1,.22-4.31c.23-1.06.07-2.15.34-3.24.51-2,.76-4.1,1.12-6.15.15-.85.37-1.69.45-2.55.06-.69.08-1.38.14-2.08a26.73,26.73,0,0,0,.39-2.77c0-1.4.19-2.77.24-4.16.09-2.06.46-4.09.41-6.16,0-.43,0-.87.07-1.31V160c.77-.1,1.24-.72,1.83-1.11,1.95-1.31,3.81-2.76,5.73-4.11.2-.13.3-.19.29-.41V154q0-21,0-42a1.12,1.12,0,0,0-.7-1.18c-3.84-2-7.65-4-11.49-6.06-2.46-1.29-4.91-2.6-7.38-3.87-3.37-1.73-6.68-3.59-10-5.37-2.35-1.25-4.75-2.42-7.07-3.73a18.12,18.12,0,0,1-2.64-1.5,1.53,1.53,0,0,0-1-.17c-4.36,0-8.72,0-13.09,0a1.18,1.18,0,0,0-1,.48c-1.85,2.31-3.69,4.62-5.55,6.93-1.6,2-3.23,4-4.85,5.93a7.37,7.37,0,0,0-.9,2.32c-.39,1-.58,2.07-1,3.07a44.42,44.42,0,0,0-1.71,6.4,70.33,70.33,0,0,0-1.15,7.38c-.14,1.26-.38,2.52-.42,3.78a50,50,0,0,1-.41,5.47c-.16,1.1.12,2.24-.36,3.32-.11.25.05.61.06.91.07,1.83-.26,3.64-.26,5.47,0,1.62-.25,3.24-.35,4.86a23,23,0,0,0-.25,2.77,43.22,43.22,0,0,1-.54,7.62c-.14,1.21-.23,2.43-.48,3.62a42,42,0,0,0-.73,4.25c-.16,1.41-.63,2.7-.87,4.07s-.75,2.62-1,3.94-.6,2.61-.92,3.91a21.37,21.37,0,0,0-.64,4.32,6.64,6.64,0,0,0,1.16,4.26c1,1.42,2.22,2.71,3.29,4.09a30.74,30.74,0,0,0,6.4,5.93,26.82,26.82,0,0,0,4.48,2.8c2,.95,4.16,1.75,6.18,2.73a28.2,28.2,0,0,0,6.57,2.25c1.68.35,3.35.84,5.07,1.05a39.67,39.67,0,0,0,7.55.18,27.25,27.25,0,0,0,4.93-.71,27.06,27.06,0,0,0,6.16-2.64c1.62-.89,3.26-1.74,4.84-2.71a18.23,18.23,0,0,1,3.94-1.81,4,4,0,0,1,2.76,0,1.92,1.92,0,0,1,1,1.9,4.88,4.88,0,0,1-.11,2.08Z"/>
  <path class="hairBlack" d="M107,49.29a27.09,27.09,0,0,1,.08-6.17c.1-1,.18-2.11.31-3.15s.37-2.21.53-3.32A20.56,20.56,0,0,1,110,31a25.37,25.37,0,0,1,2.11-3.21,37.24,37.24,0,0,1,3.15-3.94c.92-1,2-1.91,3-2.86s2.41-1.66,3.57-2.58a15.58,15.58,0,0,1,3.13-1.5,25.68,25.68,0,0,1,6.77-2.15c1.23-.21,2.47-.24,3.7-.36a37,37,0,0,1,6.32.2,8.18,8.18,0,0,1,2.08.68,1.3,1.3,0,0,0,1,.09,21.43,21.43,0,0,0-7-14.41c.26-.53.5-.57,1-.41a20.92,20.92,0,0,1,4.22,2.27,21.45,21.45,0,0,1,4.4,3.3A21.31,21.31,0,0,1,151,11.07a24.7,24.7,0,0,1,1.72,4.64,8.81,8.81,0,0,1,.17,2c.05.77.47,1.05,1.07.6a19.85,19.85,0,0,1,3-1.38,12.89,12.89,0,0,1,5.25-1,11.79,11.79,0,0,1,6.46,1.31,14.18,14.18,0,0,1,1.85,1.36.33.33,0,0,1,.15.39.42.42,0,0,1-.45.23c-.47,0-.93,0-1.39-.08a10,10,0,0,0-5.4,1,5.37,5.37,0,0,0-2.07,1.16,38.16,38.16,0,0,1,6.26,6,22.62,22.62,0,0,1,2.88,4,22.52,22.52,0,0,1,2.45,5.55,17.72,17.72,0,0,1,.19,8.38,9.28,9.28,0,0,1-2.64,5.21,8.2,8.2,0,0,1-4.06,1.89,12.6,12.6,0,0,1-3,.47,1,1,0,0,0-.93.59,33.54,33.54,0,0,1-4.08,5.47,8,8,0,0,1-.61.55,1.51,1.51,0,0,1-1.15-.63,3.75,3.75,0,0,0-6.1,0,13.48,13.48,0,0,0-3,7.71,10.58,10.58,0,0,1-.24,1.69,2.72,2.72,0,0,1-1.14,1.39,8.42,8.42,0,0,1-2.85,1.55c-.88.24-1.65.78-2.54,1a55.63,55.63,0,0,1-6.86,1.52,22.28,22.28,0,0,1-4.54.24,26,26,0,0,0-2.93.16,16,16,0,0,1-4.86-.67,9.92,9.92,0,0,1-3-1.86,40.22,40.22,0,0,1-4-4A19.57,19.57,0,0,1,111.77,64a26.27,26.27,0,0,1-3-6c-.44-1.37-1-2.7-1.36-4.09a30.4,30.4,0,0,1-.55-3.69,3.21,3.21,0,0,1,.14-.85.11.11,0,0,1,.08-.07s0,.05.07.07Z"/>
  <g class="hairOverlapLine">
    <path d="M156.71,51.36c0,.27.28.32.46.38a22.63,22.63,0,0,0,3.62.93,7.63,7.63,0,0,0,1.85.16"/>
    <path d="M161.17,21c-.59.62-1.14,1.27-1.78,1.84a11.42,11.42,0,0,0-1.84,2.63"/>
    <path d="M144.85,15.47c-.09,1,.1,1.91-.07,2.86,0,.23-.05.45-.32.53"/>
  </g>
  <path class="bennettSleeves" d="M87.31,104.12c.16,0,.27.2.49-.05a9,9,0,0,1,.91-.94,57.68,57.68,0,0,1,5.15-3.78,52.63,52.63,0,0,1,5.79-3.6c2.61-1.24,5.07-2.91,8.07-3.19.06,0,.11-.14.16-.22l.38.23c1.32.64,2.53,1.46,3.83,2.12a35.27,35.27,0,0,0,5.11,1.89A31.18,31.18,0,0,0,124,97.89c.73.06,1.16.55,1.06,1.53-.19,1.76.55,3.39.61,5.09.07,2,.93,3.79,1.37,5.69a14.74,14.74,0,0,0,1.13,2.78,16.36,16.36,0,0,1,1.69,3.77.92.92,0,0,0,.23.39,51,51,0,0,0,3.6,4.33,24.57,24.57,0,0,0,7.25,4.93c.53.21,1,.62,1.55.82.06,0,.15-.1.23-.15l-.15.23a46.42,46.42,0,0,0,.19,5c.24,1.82.15,3.66.45,5.46.27,1.65,0,3.3.19,4.94s.08,3.24.26,4.85c.29,2.53.4,5.08.52,7.62a36.39,36.39,0,0,0,.25,4.31,4.73,4.73,0,0,0,1.23,2.23,10.45,10.45,0,0,0,4.91,3.43,8.13,8.13,0,0,0,4.86-.26,20.55,20.55,0,0,0,5.61-3,4.48,4.48,0,0,0,1.65-2c.73-1.94,1.75-3.77,2-5.9a54.28,54.28,0,0,0,.65-9.94c-.11-1.75-.18-3.5-.4-5.25a42.57,42.57,0,0,1-.53-4.38c0-.8-.28-1.58-.38-2.39-.17-1.36-.46-2.72-.67-4.08a1,1,0,0,1,.06-.62c1.14-2.15,2.24-4.32,3.42-6.45a1.1,1.1,0,0,0,0-1c-1.22-3-2.26-6.16-3.37-9.25-.58-1.59-1.09-3.2-1.72-4.77-.27-.68-1-1-1.6-1.38q-5.19-3.8-10.4-7.56L142.92,92c-.21-.15-.4-.32-.56-.45a31.06,31.06,0,0,1-5.91,1,38,38,0,0,1-7.31-.24,21.81,21.81,0,0,1-3.84-.43c-1.51-.47-3.07-.67-4.58-1.09s-2.82-.93-4.2-1.45a5.79,5.79,0,0,1-2.61-2c-.42-.59-.93-.47-1.41-.4a5,5,0,0,1-.69.11c-2,0-3.9.27-5.86.34-1.43.06-2.86.3-4.31.28a6.81,6.81,0,0,0-4.29,1.72,26.07,26.07,0,0,0-6.78,7.07,30.46,30.46,0,0,0-2.3,4.52,22.06,22.06,0,0,0-1.19,3.86Z"/>
  <g class="clothesOverlapLine">
    <path d="M98.48,219.73c.13,1.07.21,2.16.4,3.23a13.79,13.79,0,0,1,.22,2.31"/>
    <path d="M118.74,222a8.7,8.7,0,0,1-1.08.3,24.83,24.83,0,0,1-4.32.3c-1.72,0-3.38-.38-5.08-.51-1-.07-1.81-.58-2.77-.63a1.28,1.28,0,0,1-.61,0,30.57,30.57,0,0,0-4.47-1.24c-1.21-.25-2.41-.58-3.62-.83-2.18-.46-4.38-.73-6.55-1.22a25.39,25.39,0,0,1-4.52-1.46,22.25,22.25,0,0,1-4.79-3.2c-.26-.2-.65-.38-.62-.83"/>
    <path d="M142.23,118.68c0,2.88.13,5.75.31,8.62"/>
  </g>
  <g class="fur">
    <path d="M164.18,105.28c.74.28,1.32-.3,2-.39a9.25,9.25,0,0,0,4.83-2.33,24.48,24.48,0,0,0,3.05-2.81,40.92,40.92,0,0,0,3.21-3.87,12,12,0,0,1,1.92-2.63A11.86,11.86,0,0,1,181,92a28,28,0,0,0,5.68-4,18.47,18.47,0,0,0,2.11-2.67c.49-.72.44-1-.23-1.53a8.56,8.56,0,0,0-2.69-1.33c-1.59-.58-3.23-1-4.86-1.43a10.29,10.29,0,0,0-1.92-.24,4.66,4.66,0,0,1-3.2-1.27c-1.26-1.22-2.23-2.7-3.58-3.82-1.6-1.33-3.19-2.67-4.82-4-.91-.72-1.89-1.32-2.81-2a2.28,2.28,0,0,1-.93-1.94,24.37,24.37,0,0,0-.6-3.78,17.3,17.3,0,0,0-1.43-4.86,4.09,4.09,0,0,0-2.13-2,2,2,0,0,0-2.12.61,17.4,17.4,0,0,0-3.39,4.3c-.76,1.47-1.69,2.87-2.3,4.39-.9,2.27-2.61,3.74-4.3,5.35a24,24,0,0,0-4,4.55c-.65,1-1.23,2.09-1.83,3.13a8.9,8.9,0,0,0-1,3.36c-.1.78-.26,1.54-.38,2.32a17.36,17.36,0,0,0-.06,3.38,24.05,24.05,0,0,1,.07,5.09,3.6,3.6,0,0,0,.4,1.91,12.29,12.29,0,0,0,3.21,4.56c.88.77,1.71,1.59,2.63,2.29a13.82,13.82,0,0,0,2.68,1.66,20.54,20.54,0,0,0,2.94,1,15.28,15.28,0,0,0,4.77.3.87.87,0,0,1,.7.17,14.83,14.83,0,0,1,3,3.53,16.82,16.82,0,0,1,2,4.17c.12.39.07.7-.25.84-1.94.88-2.44,2.7-2.72,4.49a12.82,12.82,0,0,0,.27,5.15,8.53,8.53,0,0,0,1.07,2.16,8.09,8.09,0,0,0,1.29,2.1,6.38,6.38,0,0,0,5.33,1.67,11.2,11.2,0,0,0,5.31-2,4.48,4.48,0,0,0,1.68-2.92,13.41,13.41,0,0,0-1.34-8.17,28.05,28.05,0,0,0-3-4.69c-1-1.37-2-2.77-3.1-4.07a29.8,29.8,0,0,0-2.44-2.32Z"/>
    <path d="M99.56,79.32a7,7,0,0,0-2.08,1.93,7.92,7.92,0,0,0-1,5.63,3.36,3.36,0,0,0,2.82,2.82,11.84,11.84,0,0,0,2.23.17,36.24,36.24,0,0,0,6.4-.71,23.13,23.13,0,0,0,4.69-1.59c2.24-.81,3.2-2.63,3.95-4.7.53-1.45.89-2.94,1.43-4.42-.32,0-.58,0-.83,0-2.47-.05-4.93-.08-7.4-.17a26.79,26.79,0,0,1-3.46-.31,10.54,10.54,0,0,0-4.63.61c-.72.2-1.37.56-2.07.79Z"/>
  </g>
  <path class="furOverlapLine" d="M164.18,105.35a18.58,18.58,0,0,1-4.47.08c-.67,0-1.33-.05-2-.08"/>
  <g class="bennettShoe">
    <path d="M94.86,354.58c-.13.45.21.77.33,1.16,1.79-.31,3.62-.49,5.45-.71,1.61-.2,3.23-.42,4.85-.61,1.83-.22,3.64-.52,5.47-.75,1.43-.19,2.88-.3,4.31-.48s2.61-.37,3.93-.47c1-.07,1.16-1,1.29-1.68a25.94,25.94,0,0,0,.32-5.77c-.16-2.8-.66-5.55-1-8.33-.21-1.86-.76-3.68-.9-5.54-.09-1.14-.41-2.21-.6-3.31-.12-.7-.75-1.08-1.36-1.39a11.79,11.79,0,0,0-3.7-1.43,16.26,16.26,0,0,0-5.17-.24,25.57,25.57,0,0,0-5.31,1.73,3.47,3.47,0,0,0-2,2.57c-.14.64-.32,1.28-.48,1.91-.57,2.39-1.05,4.81-1.77,7.18-.44,1.45-.92,2.88-1.43,4.3a45.5,45.5,0,0,0-1.54,5.86c-.34,1.65-.67,3.31-.86,5a1.29,1.29,0,0,0,.09.93Z"/>
    <path d="M23.08,331.09a22,22,0,0,0,1.3-3.7,56.19,56.19,0,0,1,1.76-5.75c.71-1.63,1.43-3.28,2.22-4.89,1.24-2.52,2.78-4.91,3.64-7.61a13.53,13.53,0,0,0,.73-4.7,7.93,7.93,0,0,0-3-5.85,12.55,12.55,0,0,0-6.4-2.8,5,5,0,0,0-2.67.52,15.2,15.2,0,0,0-5.2,3.88A40.75,40.75,0,0,1,12,303.44a27.41,27.41,0,0,0-4.41,4.84.74.74,0,0,0,0,1l7.78,11,7.7,10.94Z"/>
  </g>
  <g class="soleWhite">
    <path d="M96,351.12a8.5,8.5,0,0,1-.88,2.22c-.39,1-1.06,1.83-1.5,2.79A11.79,11.79,0,0,0,92.36,362c0,.75-.06,1.55.06,2.3a3.93,3.93,0,0,0,1.79,3.22l6.5-2.06c2.65-.84,5.3-1.68,7.94-2.54l8.7-2.85a6.32,6.32,0,0,1,1.16-.35c1.16-.13,1.23-1,1.38-1.8a32.61,32.61,0,0,0,.38-4.63,10.14,10.14,0,0,0-.24-2.69c-.32-1.44-1.52-2.11-2.68-2.77A23,23,0,0,0,107,344.87a12,12,0,0,0-6.6,1.28,7.37,7.37,0,0,0-3.11,2.73A19,19,0,0,0,96,351Z"/>
    <path d="M18.61,339a2.18,2.18,0,0,0,1.4-.85c.5-.69,1.18-1.26,1.66-1.94a8.11,8.11,0,0,0,1.52-5.84c-.14-1.09-.6-2.08-.74-3.15a8.16,8.16,0,0,1,0-2.47,17.71,17.71,0,0,0,.31-4.46,11.4,11.4,0,0,0-1.59-4.74A20.83,20.83,0,0,0,17.44,311a12.92,12.92,0,0,0-2.67-1.64,16.77,16.77,0,0,0-4.94-1.67,2.71,2.71,0,0,0-2.91,1,24.41,24.41,0,0,0-4,7.15,1.63,1.63,0,0,0,.31,1.71q6.83,9.13,13.56,18.33a15.65,15.65,0,0,0,2.48,2.84Z"/>
  </g>
  <g class="soleWhiteDark">
    <path d="M94.17,367.21c.81,1.27,2.19,1.55,3.46,2a25.38,25.38,0,0,0,5.47,1,23.78,23.78,0,0,0,6.08-.13,19.64,19.64,0,0,0,6.4-1.52,7,7,0,0,0,4-4.46,5.76,5.76,0,0,0,0-3.16,3.24,3.24,0,0,1,0-1,8.22,8.22,0,0,0-1.75-5.84,3.65,3.65,0,0,0-1.38-1.1,17.84,17.84,0,0,0-2.93-1.38,22.82,22.82,0,0,0-8.48-.51c-1,.14-1.89.41-2.84.58a5,5,0,0,0-3.16,1.7,5.69,5.69,0,0,0-1.46,3.63,8.15,8.15,0,0,1-.29,2.24,7.83,7.83,0,0,1-1.71,2.46,8.77,8.77,0,0,0-1.79,3.3c-.21.76.21,1.34.32,2Z"/>
    <path d="M18.85,329.86c-.09-2,.06-4-.06-5.93a10,10,0,0,0-2.94-6.56,13.62,13.62,0,0,0-3.81-3c-2-.95-4.2-1.7-6.52-.84a5.74,5.74,0,0,0-2.79,2.38,5.76,5.76,0,0,0-.63,3.4,12.88,12.88,0,0,1-.7,4.94,7.78,7.78,0,0,0-.85,2.37A8.65,8.65,0,0,0,.62,329a19.87,19.87,0,0,0,2.92,6.38,9.27,9.27,0,0,0,1.76,1.78A18.26,18.26,0,0,0,9,340a13.07,13.07,0,0,0,5.32,1.49,4.52,4.52,0,0,0,3.49-1.24,10.39,10.39,0,0,0,2.13-3.18,2.85,2.85,0,0,0,.24-1.23A13.68,13.68,0,0,0,19,330.71a2.09,2.09,0,0,1-.14-.77Z"/>
  </g>
</svg>
