<svg viewBox="0 0 719.47 1303.4">
    <g class="skinEastAsian">
        <path d="M577.57,457.09c1.18,1.43,32.72-186.95,36.66-232.68,3.49-36.4-37.39-43-30.83-112.46,2.24-23.77,19.25-60.08,34.4-95.12,8.19-19,26.35-18,46-11.94,17.89,5.51,24.66,19.19,34,33.66,57.63,88.7-24.17,146.68-22.16,192.91,3.45,79,18.76,174.78,14.14,247.66Z"/>
        <path d="M460.41,297.4c1,29,13.17,38,14,75,1.8,80-29.56,133.71-97,152-2.9,18.9,1.2,37.22,6,55-61.23,24.38-119.75,28.3-174,0a154.85,154.85,0,0,0,0-86Z"/>
    </g>
    <g class="skinOverlapLine">
        <path d="M400.41,432.4c6,8.56,16.19,13.47,24.53,13.47"/>
        <path d="M377.41,524.4c.41-7.48,2-11.3,4-18.55"/>
    </g>
    <path class="hairBlack" d="M445.78,367.9a42.84,42.84,0,0,0,16.63-18.5c-2.6-15.84-2.94-33.28-1.85-51.74,28-81.14,12.5-142.81-47.57-180.55C306.59,50.25,137.8,84.63,97.75,224.8,64,343.06,95,444.54,209,492.94c66.68,28.32,172.43-11.54,191.43-60.54C377.41,389.4,410.41,338.4,445.78,367.9Z"/>
    <g class="hairOverlapLine">
        <path d="M460.41,297.4c-5,10-13,19.87-22,26"/>
        <path d="M268.41,314.4c-19-40-52-71-87-90,46,3,88,21,121,58,28.55-19.37,64-31,102-33-28,16-50,36-60,59"/>
    </g>
    <path class="bennettSleeves" d="M572.41,453.4c-5,8-5,23-8,33-29.43,16.45-52,40.78-63,42-27,3-80,19-114,38-41,29-147,35-184,0-52,38-120,44-146,86-36,45-63,195-55,315,2,56,42,105,70,87l427-258,.22-3.57.78,1.57c14-119,134.59-148.06,182-245,13.36-27.31,12-50,15-74C684.41,448.4,599.41,430.4,572.41,453.4Z"/>
    <path class="shirtWhite" d="M500.41,794.4c-9,154-3,336,13,467,3.16,25.89-7.09,40.25-36,41h-373c-20.19-2.34-33.72-18.72-32-39,5-59,4.54-149.08,1-211l4-252a1402.06,1402.06,0,0,1,127-186c45.3,16.93,95,18.22,148,8C367.41,694.4,445.41,769.4,500.41,794.4Z"/>
    <path class="clothesOverlapLine" d="M77.41,800.4a444.3,444.3,0,0,1,1-69.6"/>
</svg>
