<svg class="bloomCountyPoster" 
    xmlns="http://www.w3.org/2000/svg" viewBox="0 0 1412 1882">
    <title>Bloom County poster</title>
    <rect class="frame" x="1" y="1" width="1410" height="1880"/>
    <path class="mountain" d="M1,1851.46l1410-6.82V1510.18l-1.81-.48c-21-5.33-41.2-3.9-61.28,2.23-25.47,7.79-50.41,17.15-75.09,27.26-13.45,5.5-27.55,9.42-41.17,14.57-19.75,7.45-40.18,12.78-60,19.93-11.8,4.25-128.93-5.5-133.76-6.09-5.94-.73-93.23-33.5-100.61-33.34-9.37.21-517.92,7.12-534.38,7.44-3.17.06-43.51,18.1-61.27,25.69-4.65,2-9.45,4-14.38,4.89-6.48,1.14-137.34,1-146.83-.58-7.43-1.24-13.81-5.66-20.58-8.77a489.63,489.63,0,0,0-48.16-19.33c-9.11-3.07-17.78-7.51-26.94-10.42-14.21-4.5-28.68-7.9-43.7-9a155.86,155.86,0,0,0-40,2.68Z"/>
    <g class="billFur">
        <path d="M717.24,550.56c-1.83,21.32,1.59,42.28,5.16,63.1,3.67,21.37,2.07,42.54-.18,63.77-1.11,10.42-2,20.86-3.3,31.23-1.4,11.57-5,22.86-6.51,34.42-1.95,15.37-6.39,30.08-10.13,45-3,11.92-6.57,23.72-9.08,35.69-1.82,8.68-127.82,400.55-127.82,400.55h272c-.47-8-63-448.9-65.75-459.36a334.3,334.3,0,0,1-7.29-37.54c-1.17-8.47-2.92-16.83-3.18-25.58-.25-8.23-1.91-16.6-2-25-.14-11.25-.83-22.51-.5-33.74.4-13.66.27-27.42,4.82-40.65a55.12,55.12,0,0,0,2.64-19.36c-.25-11-.07-22.08-.07-33.12C766,549.94,717.3,549.94,717.24,550.56Z"/>
        <path d="M644.12,559.31c-16.24,13.34-32.63,26.51-48.66,40.1-5.11,4.33-10.86,7.74-16,12.12-2.49,2.14-2.66,4.21-3.51,6.53,0,0,3.12.75,13.62-4,21.81-9.9,42.34-22.4,63.26-34.09C654.6,579,644.12,559.31,644.12,559.31Z"/>
        <path d="M837.25,543.69c2,5,4.29,9.77,8.1,13.78,12.78,13.46,38.65,42.24,38.77,43.09,0,0-33.88-13.93-55.55-23.28-5.15-2.22-17.91-9.08-19.45-9.22Z"/>
        <path d="M654.75,492.44c-11.39-18.47-24.6-33.8-48-37.94-12.05-2.12-23.86-1.72-35.7-1.76-10,0-31.25,5.32-31.25,5.32-12,1.69-35.63,8.75-35.63,8.75-.1-1.48.75-2.24,1.84-3.17,9.88-8.34,20.65-15.54,30.89-23.41,11.48-8.83,25.2-14.5,38.61-20.1,5.68-2.37,11.48-4.74,18-5.54s12.58,0,18.78-.46a302.47,302.47,0,0,1,46.19-.4c-1.28-12.29-4.49-24.05-8.15-35.64-3.08-9.73-6.78-19.28-10.59-28.75C635.56,339,631,328.9,626.62,318.69c0,0,5.28,4.1,6.29,5,8.9,7.57,17.82,15.12,26.86,22.52,9.61,7.86,19.35,15.52,28.24,24.25,3.64,3.58,11.64,11.85,12.41,10.16,2.76-6.07,1.67-12.67,1.52-18.76-.38-16-2.45-32-2.21-48.13.08-5.28-.8-10.43-1.63-15.66-1.08-6.73,1.64-19.46,3.21-16.37,9.16,18,19.44,35.48,29,53.3,9.79,18.22,19.21,36.64,28.79,55,2.1,4,4,3.7,6.3,0,4.65-7.37,9.6-14.56,14.32-21.91,8.8-13.71,27.86-45,28.76-46.86,0,0-1.16,10.23-1.3,11.87q-1.76,21.26-3.72,42.5c-.46,5-2.54,9.91-.92,15.51,6.85-3.7,12.27-8.44,17.81-13,13.5-11.14,26.16-22.92,42.27-31.09,17.21-8.72,34.06-10.94,52.07-6.27,11.42,3,34.41,11.74,34.41,11.74-1.73,2.27-3.87,3.09-6.87,3.22-15.36.69-29.37,6-42.46,13.72-6.46,3.8-13.53,7.33-18.58,12.63-9.64,10.15-20.82,18.92-28.86,30.5-3.72,5.36-8.82,9.13-13.29,13.61-2.3,2.3-4,4.64-4.31,7.91,5.75,3.82,12.08,2.13,18.11,1.43,12.07-1.39,24.19-2,36.26-3.11a308.11,308.11,0,0,1,31.25-1.77c2.15,0,21.25-1.27,21.25-1.27-17.08,4.59-34.26,8.85-51.21,13.86-12,3.55-24.08,7.15-35.1,13.53-3.75,2.17-8.22,3.2-12.46,4.4a5.48,5.48,0,0,0-3.73,2.59s8,2.63,13.69,4c10.8,2.6,34.23,6.21,35.07,6l-4.38,1.87c-5.29,4.29-12.12,3.74-18.19,5.39s-12.44,3.14-18.7,4.57c-10.44,2.38-21.17,3.59-31.23,7.54Z"/>
    </g>
    <path class="billNose" d="M757.88,509.94c5.54-4.28,8.82-10.61,14.23-15.17,6-5.11,8.06-23.71,3.82-30.41-6-9.46-21.1-10.5-29.43-.78-7.29,8.5-7.69,22.32-2,31.54a59.15,59.15,0,0,0,12.79,14.82Z"/>
    <path class="billTongue" d="M754.75,539.31c-2.92,5.42-12.74,36.54-10,38.68,13.47,10.32,18.87,25.85,26.1,40.13,5,10,8.25,20.88,17,28.72,8.89,8,18.85,11.34,30.65,8.11,9.33-2.56,14.52-13.06,12-22.54-4.86-18.09-14.24-33.67-25.84-48C801.44,580.46,754.75,539.31,754.75,539.31Z"/>
    <path class="skin" d="M754.91,566.93c-10,13-21.87,23.36-37.66,28.63-14.56,4.85-29.61,6.9-44.32,2.32-28.15-8.77-43.49-25.28-45.88-54.23-2.13-25.79,4.31-49.49,28.27-65,17.4-11.3,36-15.85,56.27-11.63,10.55,2.2,21.16,4.67,29.53,12.84a147.94,147.94,0,0,1,17.69,21.07s9.4-10.41,15.44-14.5,12.93-6.87,20.5-6.4c15.79,1,30.36,5.33,41.84,16.86,14.19,14.24,19.76,33,10,52.47-7.75,15.48-20.42,25.17-36.91,29.23-17.16,4.23-32.65,0-45.53-12.41-2.48-2.38-6.09-4.31-5.68-8.69C758.5,557.44,756.24,565.21,754.91,566.93Z"/>
    <path class="oliverPants" d="M1204.75,1329.94c3.54,7.71,7.41,15.28,10.54,23.16a83.74,83.74,0,0,1,5.76,26.84c1,20.4,0,40.7-4.56,60.59a376.09,376.09,0,0,1-19.77,62c-7.61,18.2-14.32,36.93-17.9,56.27-3.89,21-.51,41.81,7.15,61.82,1,2.64-180,16.87-180,16.87,1.25-5.63,2.72-11.21,3.71-16.88,3.19-18.22,3.14-36.65,2.32-55-.53-11.88-1.95-23.79-3.19-35.67-1.27-12.08-3-24.15-4.5-36.16-1.93-15.24-6.3-30.21-7-45.68-.64-13.76-.9-27.58,1.27-41.23,1.86-11.74,3.87-23.52,7-34.95,2-7.3,2.74-15.41,8.52-21.32Z"/>
    <g class="oliverPantsOverlapLine">
        <path d="M1125.38,1398.06c-5.28,2.44-9.38,6.25-14.38,11.88"/>
        <path d="M1064.12,1448.06c-4.37,3.75-8.12,7.5-11.24,10"/>
    </g>
    <path class="oliverShoe" d="M1261.62,1713.69c4.75-7.29,3.17-15.62,2.2-23.09-2.49-19.19-7.72-37.92-22.35-51.75a82.13,82.13,0,0,0-34.14-19.18c-10.79-3.11-21.43-7.26-32.59-7.62-14.78-.48-29.54-2.52-44.36-1.47-10.84.77-21.61-1.16-32.52-.16-17,1.55-33.89,2.39-50.72,6.56-14,3.45-26.09,9.54-38,16.81-4.06,2.48-6.17,6.26-5.87,11.78.6,11,.18,22.08.18,33.12Z"/>
    <path class="oliverHair" d="M1125.38,874.94c-2.12-13.2-10.9-18.1-21.91-19.84-21.4-3.37-42.86-1-63.63,3.95C1025,862.61,1010,867.7,997.37,877c-7.72,5.68-63.43,25.3-82.64,32.28-3.18,1.15,22.76,118.78,27.08,142,1.66,8.87,3.06,17.73,6.16,26.13a110.37,110.37,0,0,0,19.78,33.9c10,11.67,22.52,20.14,34.63,29.08,5.68,4.19,12.57,7.08,19.32,9.32,4.19,1.39,8,3.78,11.58,5.66,11.26,5.89,22.68,8.16,35.22,7.83C1087,1162.7,1125.38,874.94,1125.38,874.94Z"/>
    <g class="oliverSkin">
        <path d="M1112.25,1346.19c-.57,7.49-1.54,14.89-.81,22.52.67,7-.32,14.14-.41,21.23a94.41,94.41,0,0,0,.46,11.26c.48,4.4.41,8.33-4.06,12.07-11.63,9.73-22.53,18.74-34.64,27.8-2.37,1.77-8.67,7.62-8.67,7.62-2.08-6-5.71-13.25-7.44-19.39-4.75-16.83-9.44-33.68-13.72-50.63-2.41-9.55-7.42-18.49-7-28.73Z"/>
        <path d="M1173.5,1201.19c0-6.25-.06-12.5,0-18.75.06-4.83,1.35-5.35,6.24-4.44,27.85,5.21,50.23.24,65.82-27.67,6.44-11.52,5.08-25.47-1.45-37.89-.74-1.41-1.42-2.84-2.68-5.35,14.09.93,26.36-1.27,34-14,3.49-5.86,4.28-12.24,3.67-18.76-1.56-16.54-12.69-26.88-31.9-29.48.78-7.63,1.62-15.35,2.26-23,.61-7.27-.74-14.2-1-21.27-.71-17-4.7-33.47-10.64-49.33-4-10.73-10.11-20.56-15.37-30.75-7.6-14.73-19.48-25.06-33.39-32.8-9.31-5.18-19.9-8.05-30.48-10.28a222.64,222.64,0,0,0-35-4.14,105.13,105.13,0,0,0-26.8,2c-6.3,1.34-10.43,7.35-13.74,12.86-9.73,16.17-16.34,33.67-21.34,51.82-3.72,13.54-6.91,27.14-7.53,41.26-.35,7.92-.19,15.83-.17,23.75a195.09,195.09,0,0,0,2.15,28.11c2.45,16.4,6,32.56,11.79,48.15a5.77,5.77,0,0,1,0,1.86c-18.49,3-33.29,22.65-26.59,44.48,2.73,8.87,7.3,15.21,14.84,19,5,2.54,3.76,5.13,2.3,8.34-.85,1.86-2.09,4-3.75,4.92-3.83,2.22-3.44,5.68-2.94,8.85.72,4.61.31,9.18.51,13.77Z"/>
    </g>
    <g class="oliverSkinOverlapLine">
        <path d="M1153.5,1166.19c3.75,4.37,6.1,5.74,8.75,6.87,5.16,2.21,7.92,2.92,13.13,5"/>
        <path d="M1077.25,1145.56c-4.35,4-9.42,3.77-14.38,3.13-1.66-.22-4.58-1.67-6.25-1.88"/>
        <path d="M1069.12,1083.06c5.08,2.15,8.4,3.25,10.63,9.38"/>
    </g>
    <path class="oliverShirt" d="M1214.12,1339.94c1.11,3.49-.49,5.37-3.75,6.25-17.29,4.68-34.63,9.06-52.47,11.42-8.33,1.11-16.79,3.13-25,2.61-9.79-.62-19.21,1-28.77,1.71-14.2,1-28.31,3.28-42.52,4.06-7.63.43-15.31,2-23.18-.19-4.21-1.14-9.18-.3-13.66.5-6.24,1.13-12.67.66-18.82,2.87-3.16,1.14-6.05-1.13-6.68-4.26-.7-3.46-1.62-7.54-1.07-10.54,2.07-11.27-.51-22.61,1.51-33.81,3.15-17.59,4.56-35.31,10.13-52.67,4.46-13.91,8.65-28,13.76-41.67a199.22,199.22,0,0,1,10-21.86,28.62,28.62,0,0,0,3-15c-.42-8.67,4.05-20.4,10-25.63,7.49,5.63,16.35,8.23,25,11.24,20,6.94,40.67,11.16,61.29,15.42,14.56,3,29.54,3.94,44.33,5.85,9,1.16,12.06,6.77,8.1,15a22,22,0,0,1-2.49,3.75c-4.5,5.85-2,12.08.19,17.44,8.85,21.44,15,43.75,22.1,65.76,4,12.36,7.78,24.94,9.16,38a20.78,20.78,0,0,1-.19,3.14Z"/>
    <g class="oliverShirtOverlapLine">
        <path d="M1036.62,1193.06c11.06,11.64,25.17,19,38.88,26.66,10.21,5.69,21.81,8.85,32.3,14.12s21.84,9.21,32.63,14.11c6,2.71,12.39,4.46,18.72,6.27,2.32.66,4-.16,5.79-2.91,6.24-9.9,12.29-19.77,14.81-31.37"/>
        <path d="M1037.25,1277.44c-3.13,18.12-5.61,36.39-9.65,54.31a189.18,189.18,0,0,0-4,26.32c-.18,2.1-.07,7.91,4.31,7.49"/>
        <path d="M1118.5,1279.94c1.25,8.12,5.15,14.8,6.45,21.84,3.07,16.58,5.44,33.14,4.76,50a51.11,51.11,0,0,1-1.21,6.88"/>
    </g>
    <path class="binkleyPants" d="M154.75,1286.19c-1,10.39-2.16,20.8-1.81,31.25.34,10.21,1.06,20.42,1.84,30.62,1.14,15,1.93,30.07,3.85,45,2.56,19.83,4.81,39.69,8.22,59.46,3,17.43,5.62,35.18,5.38,53-.21,15.42,1.32,30.84-1.11,46.27-2.11,13.41-5.31,26.24-13.25,37.48-5.33,7.54-6.67,16.67-10,25-2.8,7-3.32,14.67-5.32,22-1.49,5.44-.16,11.66-1.56,17.42l205-9.38c-1.46-.2-13.14-45.21-14-48.69a202.72,202.72,0,0,1-6-46.93,486.28,486.28,0,0,1,2.58-49.42c1.09-11.66,2.36-23.36,3.92-34.92,1.93-14.33,5.47-28.5,9.23-42.5,3.44-12.83,7.14-25.74,14.89-36.89,2.93-4.21,19.76-70.44,26.84-98.77Z"/>
    <g class="binkleyPantsOverlapLine">
        <path d="M307.25,1344.31c4.38,4.28,8.36,9.07,14.37,11.25"/>
        <path d="M279.75,1308.69c.6,4.91,3.75,9.37,7.5,12.5"/>
    </g>
    <path class="binkleyShoe" d="M302.25,1688.69c0-13.75-.11-27.5.06-41.25.06-4.64-1.17-7.75-5.63-10.11-13.51-7.13-27-14.35-42-17.84-4.57-1.06-9.59-1.08-14.34-1.24-17.41-.59-34.71,1.21-51.87,4.2-18.2,3.18-34.88,10.61-51.22,18.8-10.91,5.47-20.69,12.18-28.35,22.29-8.78,11.56-12.73,24.63-16.16,38.25-1.83,7.28-1.72,14.56-1.77,21.9Z"/>
    <path class="binkleyHair" d="M237.88,823.06c-12.65-2.4-25.39-4.51-35-14.34-2.49-2.54-4.36-5-5.16-8.74-1-4.59-1.84-10.54-7.35-11.69-5.87-1.24-10.53,1.76-13.83,7.2a63.15,63.15,0,0,0-5.1,10.61c-3.9,10.23-18.52,18.21-18.52,18.21-2.35-5.48.31-11.27-1.1-16.91-.68-2.68-.61-5.85-2.14-8-6.23-8.84-10.55-18.89-17.93-27-5.31-5.86-5.11-14-6.1-21.2-1.61-11.65,1.89-22.43,9.13-31.85,1.73-2.25,3.3-4.61,5-6.87,6.42-8.44,15.14-13,24.85-17.2,14.32-6.18,26.75-15.81,38.36-26.44,8.77-8,14.68-18.24,22.48-26.92,6.93-7.72,14.77-14.25,25.54-16.39,11.89-2.36,23.62-3.2,35.65-.64,22.06,4.68,40.46,16.1,58.19,29.36,14.48,10.83,31.42,16.08,49.3,17.49,15.92,1.25,31.36,4.3,45.55,11.51,14.6,7.42,26.23,18.19,32,34.21,1.16,3.23,3,6.22,4.31,9.4,4.28,10.44,4.51,21.61,4.11,32.48-.36,9.53-4.34,18.7-10.45,26.17-8.48,10.35-9,21.55-6.26,33.87a70,70,0,0,1,1.24,22.46c-1.5,13.89-5,27.48-13.77,38.64-7.1,9.07-15.22,17.44-25.48,23.24-5.19,3-10.42,5.83-15.62,8.76-14.24,8-22.88,20.39-28.28,35.57-1.41,4-2.75,8-4.22,11.93Z"/>
    <path class="skin" d="M329.75,1064.94c-2.77-8.8-5.64-17.68-6.12-26.88-.83-15.74,0-31.4,8.11-45.56a12.78,12.78,0,0,1,1.76-2.56c18.6,7,39.92-4.46,46.74-21.05,4.93-12-3.51-34.08-13.63-37.66a15.66,15.66,0,0,0-6.23-1.2c-5.75.49-9.73-2.1-13.15-6.33-5.25-6.48-10.94-12.69-14.89-20.06-3.41-6.38-2.74-13.61-2.54-20.58.29-10.42,2.7-20.61.21-31.31-2.62-11.25-9.12-18.79-18.45-24.19-7.16-4.14-14.87-7.35-22.46-10.7-5.93-2.61-12.48-2.93-18.72-4.43-10.62-2.55-20.84.42-31.28,1.65-8.74,1-16.58,2.87-21.77,10.29a93.83,93.83,0,0,0-10.69,20c-4.83,12.48-9.29,25.12-14.47,37.46-5.5,13.07-16.94,18.4-29.92,21.29-6.46,1.44-13,2.6-19.36,4.44-12.13,3.51-12.18,16.06-4.37,22.41,7.27,5.9,15.68,9.85,24.39,13a102.71,102.71,0,0,1,11.83,5.12c6.33,3.25,8.16,7.66,6.93,15-1.29,7.66-4.25,14.85-5.87,22.45-2.42,11.33,2,19.21,9.42,27.07,6.29,6.67,14.7,9.1,22.08,13.51,11.09,6.63,17.77,15.56,18.87,28.82a48.34,48.34,0,0,1-2,18.77Z"/>
    <path class="binkleyShirt" d="M385.33,1152.45c2.73,8.26,5.14,16.63,7.51,25,1.2,4.25,1.44,7.87-3,11.4-7.79,6.27-10.13,6.71-26.51,15.54,1.14,19.73-2.23,39.06,3.23,59.31,1.84,6.82,3.53,13.7,5,20.62,1.18,5.69-2.37,10.19-9.26,14.47s-14.21,2.79-21.32,3.5c-12.23,1.22-24.39-.84-36.2-3.76-11.58-2.87-23.31-3.17-35-4.3-24.59-2.36-48.11,3.85-71.89,8.17-13,2.36-26.19,3.17-39.37,3.72-7.45.32-8.11-1.65-9.62-8.63-1.7-7.81-1.42-15.53-.84-23.16,1.22-15.89,2.11-31.84,5.37-47.54,1.75-8.43,2.8-17,3.8-25.61,2.39-20.51,8.1-40.26,13.86-60a294.2,294.2,0,0,1,23.67-57.53c1.55-2.87,4.34-5.75,5.6-8.75,5.66-8.12,15.84-15.88,24.19-22.75,8.3,8.53,16.47,10.39,27.1,10.72,24.92.77,48.11-5.39,68.71-19.89,3.46-2.43,5.36-1.93,8.27,1.2,12.41,13.36,20,29.75,29.23,45.12,4.17,7,7.91,14.18,12,21.21C370.39,1111.57,381,1139.29,385.33,1152.45Z"/>
    <path class="binkleyShirtOverlapLine" d="M294.75,1137.44c-.93,15.82-2.15,31.64-1.79,47.5.18,7.52.44,15.12,2.41,22.5,1,3.89,3.18,6.08,7.5,6.32,5.85.33,14.38.55,20,.56"/>
    <path class="skin" d="M372.88,1199.31a148.6,148.6,0,0,1-48.58,15.61c-10,35.41-18.31,72.21-37.15,106.3,5.32,6.75,11.14,14.81,18.22,21.85,2.52,2.49,5,2.5,7.51,0,7.35-7.37,12.38-16.44,18.15-25,11.39-16.84,22.1-34.06,29.28-53.18,4.42-11.77,9.65-23.2,12.89-35.51,2.35-8.89,4.51-17.29,2.15-26.33-.35-1.34-.47-2.88-1.85-3.76Z"/>
    <path class="miloPants" d="M682.25,1663.69c-.83-9-2-17.9-2.4-26.88-.42-10.82.37-21.69-.21-32.49-.92-17.36,5.74-236.26,5.74-236.26h252c2.5,12.46,6.65,23.75,8.87,35.58a195.59,195.59,0,0,1,3.56,41.92c-.4,14.22-.62,28.54,2.55,42.48,3.71,16.35,8.41,32.48,12.34,48.78a705,705,0,0,1,13.18,70.62Z"/>
    <path class="miloPantsOverlapLine" d="M853.5,1452.44c1.25,9.37,2.5,16.87,3.32,25,0,1.5,2.31,53.33,3.24,77.49.46,11.63.53,23.4,2.19,35"/>
    <path class="miloShoe" d="M1035.38,1669.94c-.25-2.92.45-5.75.26-8.77-.5-7.88-3.38-15-5.26-22.48l-.63-1.25c-5.7-10.08-12.09-19.28-21.73-26.44-13-9.7-28-12.12-43.25-14.9-9.59-1.75-19.25-1.68-28.76-1-17.67,1.31-35,4.65-51.64,12.05-11.19-12.74-27-18.14-42.75-23.46-14.78-5-30.23-6.54-45.63-7.27-8.06-.38-16.23,2-24.37,2.85-20.12,2.21-36.91,12.1-53.08,23.2-12.37,8.5-23.46,18.3-32.74,30.42-8.64,11.27-16.45,23.08-24.8,34.53Z"/>
    <path class="miloShoeOverlapLine" d="M884.75,1607.44c5,9.33,8.26,14.54,8.81,25.62.2,4,1.38,7.92-.06,11.88"/>
    <path class="miloHair" d="M932.88,925.56c10-2.44,19-7.32,28.15-11.82a133.91,133.91,0,0,0,25-16.3,87,87,0,0,0,31.19-50c2.48-11-5-24.95-15.57-30-6-2.86-12.49-4.21-18.75-6.24-16.67-5.42-32.31-13.19-48.19-20.5-18.9-8.71-36.3-20.26-55.52-28.36-9.52-4-19.4-6.25-29.45-7.86-3.28-.52-6.5-1.43-10-1.54-22.76-.75-43.61,5.63-64.5,14.21-25.58,10.51-45.19,28.22-64.28,47.14a147.12,147.12,0,0,0-27.28,37.63c-7.26,14.21-14.05,28.89-18,44.35-2.68,10.48-5.29,21.19-4.84,32.44.66,16.22,1.23,56.76,3.16,60.68,6.19,12.57,12,25.39,20.19,36.77,12.49,17.22,28.06,30.53,48,39,8.85,3.79,17.83,7.39,27.05,8.68,7.69,1.09,15.63,3.91,23.69,1.68Z"/>
    <path class="miloHairOverlapLine" d="M962.88,860.56c-9.22,1.53-17.76,5.06-26.26,8.75"/>
    <path class="skin" d="M847.25,1189.31c14.11-13,25.86-28.3,40.73-41.56-2.08-6.49-4.48-13.76-5.24-21.55-1-10.43-.77-11.89,8.27-16.24,12.59-6,23.42-14.53,33.74-23.77a117.67,117.67,0,0,0,21.73-27c4.76-7.84,7.62-16.63,10.34-25.48a75.51,75.51,0,0,0,3.55-20.06c.35-11.59-2.6-22.61-7-33.06a67.2,67.2,0,0,1-5.07-31.33,198.55,198.55,0,0,0-.23-31.88c-1.6-16.3-4.3-32.27-9.8-48.29-7.93,3.56-16,6.71-23.54,11.37C898,890.91,881.41,901.75,864,911c-18.72,9.93-37.79,19.66-58.67,24.41a162.85,162.85,0,0,1-25,4.19c-5.8.4-11.7.79-18,1a117.4,117.4,0,0,1-5.54,31.89c-1.47,4.57-2,7-7.72,7.69-12.44,1.62-18,11.37-20.48,22.27-3.3,14.63.61,27.31,13.57,36.2,3.4,2.33,5.14,5.85,6.88,9.38,7.3,14.79,16.42,28.31,28.8,39.32,6.33,5.63,4.82,12.9,4,19.4-.88,7.31-.12,15.12-4,22,0,0,.36,1.57.49,2.43Z"/>
    <path class="miloShirt" d="M723.5,1377.44c1.1,2.54,3.26,3.87,5.62,5,14.93,7.17,30.18,12.81,46.82,15.36,11.47,1.76,23.09,3.07,34.47,5.74,5.42,1.27,11.22.33,16.85.57,13.32.57,26.67.81,40-.94,11.94-1.57,24.17-2.11,35.55-5.93,17.52-5.88,35.8-10.33,50.18-23.43a18.75,18.75,0,0,0,5.71-18.76c-3.2-12.68-3.83-25.43-4.45-38.24-.21-4.34-1.74-8.75-.36-13.09,22.06-2.89,28.19-16.65,31.66-35.62,2.36-12.86-3-22.9-8.92-33.17-8.18-14.25-13.21-29.87-19.42-45-3.54-8.62-7.44-17.11-11.22-25.63a39.66,39.66,0,0,0-23.22-21.6c-10.77-3.9-20.55-10.14-31.82-12.63-17.26,11.76-30.39,28.16-45.61,43a249.78,249.78,0,0,0-22.45-20.63c-17.11-13.64-33.32-28.29-49.45-43-3.59-3.28-9.06-2.14-13.07-2.15-14.74,0-28.28,4.09-38.21,16.39-4,5-6.13,10.92-9.27,16.33-9.85,17-15.91,35.64-23,53.81-3.9,10-6,20.76-8.93,31.18Z"/>
    <g class="miloShirtOverlapLine">
        <path d="M767.88,1188.06c4.52,2.68,5.22,7.78,7.48,11.88a70.9,70.9,0,0,1,8.14,22.5"/>
        <path d="M727.25,1282.44c-1.46,4.58-3,9.13-4.34,13.76s-2.73,5.48-7.54,3.76c-2-.74-4.16-1.27-6.25-1.9"/>
        <path d="M916.62,1204.31c3.41,5,2.93,10.67,3.14,16.25.1,2.71,1.24,6.25,0,10.63"/>
        <path d="M954.12,1303.06c-11.39,0-22.68-.8-33.74-3.75"/>
    </g>
    <path class="skin" d="M862.9,1291c-14.64-2.38-29.21-5.2-43.76-8.06-2-.39-3.84-1.86-5.91-2.91-15.68,8.48-33,13.64-50.43,17.65-12.18,2.8-24.37-.49-34.22-9.13-1.5-1.32-2.48-3-1-6.28a119.7,119.7,0,0,1,25.86-37.42,239.45,239.45,0,0,1,22.34-19c5.7-4.31,11.76-3.4,17.06-3.05,10.13.66,19.91-1.39,29.31-3.35,17-3.55,34.06-7.62,51.36-8.63,15.44-.9,31.41,1.85,41.48,15,5.86,7.63,12.33,15.16,17,23.58s4.93,18.14,2.49,27.33c-1.42,5.31-2.54,11-6,15.72s-7.31,7.24-13.19,6.21c-14.17-2.47-28.63-2-42.49-6.25C872.88,1292.44,865.86,1291.52,862.9,1291Z"/>
    <g class="opusFeather">
        <path d="M474.75,942.44c-.24-7,2.65-13.48,4.59-19.94,4.66-15.58,9.64-31.43,18.84-44.85,7.79-11.37,17.38-22.16,29.79-28.79,24.85-13.26,51-15.52,78.73-9.23,28.28,6.4,45.79,23.79,56.61,49.14,3.51,8.23,5.1,17.35,7,26.19,2.42,11.38,5.35,22.83,6,34.37a216.32,216.32,0,0,1-.56,34.4,152.57,152.57,0,0,1-6.14,31.16c-3.4,10.68-5.73,21.82-12.26,31.37-1.69,2.47-2.3,5.73-3.2,8.69a59.45,59.45,0,0,1-11,20.34c-6,7.3-10.3,15.73-16.49,22.77H520.38Z"/>
        <path d="M556.61,1141.76c15.62-3.41,96.47-29.66,96.79-28,2.88,14.24,9.46,27.27,13.39,41.18,2.66,9.42,6.83,18.42,10.48,27.54,5.67,14.15,9.78,28.85,15.16,43.06,5.66,14.93,11.12,30,15.52,45.23,3.28,11.38,7.64,22.74,8.81,34.83.61,6.19,3.32,12.09,5.12,18.06,2.26,7.46,2.16,15.15,4,22.62,1.77,7.32,1.48,15.17,3.52,22.39,1.67,5.88,1.42,11.85,1.9,17.6a343.67,343.67,0,0,1,0,51.24c-1.43,21.87-6.28,42.88-12.34,63.68-2.52,8.63-6.47,16.95-10.58,25-4.92,9.63-11.41,18.49-15.93,28.28-4.4,9.52-10.5,17.76-16.51,26.11-6.93,9.61-16.26,17.06-24.31,25.67-2.57,2.75-39.8,3.12-55,3.12C596.62,1609.31,555.66,1142,556.61,1141.76Z"/>
    </g>
    <path class="opusCollar" d="M416.62,1624.31c-.83-.62-18.35-25.45-23.83-38.71-2.66-6.45-6.22-12.51-9.28-18.79-12-24.58-23.13-49.47-29.38-76.25-4.38-18.72-6.12-37.83-8-56.89-1.17-12-.52-24.18.56-36.22,1.05-11.74,2-23.51,4.87-35,3-11.86,5.6-23.81,8.54-35.68,4.09-16.48,8.15-33,12.62-49.35,3.74-13.67,9.84-26.32,14.94-39.41,7.12-18.3,15.14-36.21,22.86-54.23,5.16-12,12-23.34,17.92-35.09,3.66-7.34,6.94-14.88,11.29-21.86l150.63-37.5c11.07-1.6,21.22-6.08,31.2-10.73,11.07-5.16,23.27-8.92,30.1-20.48.75-1.28,2.64-.95,4.3.6,4.7,4.37,6.18,9.79,7.19,16.19,1.83,11.54,3.16,22.83,1.07,34.44-.7,3.9-2.08,7.05-5.14,9.33-9.64,7.19-19.38,14.27-30,20-8.78,4.75-17.63,9.36-26.56,14.1,4.37,10.75,8.83,21.06,12.77,31.56,10.4,27.71,21.27,55.25,31.5,83,8.3,22.56,15.86,45.16,20.61,68.79,3.71,18.49,8.32,36.71,10.08,55.64,1.51,16.26,2.83,32.55,2.58,48.77-.41,26.88-5.55,53.2-14.13,78.74-6.05,18-15.18,34.72-23.41,51.74-6.47,13.38-26.49,43.56-29.68,44.52Z"/>
    <path class="opusBowtie" d="M580.38,1076.81c9.15-.44,16.39,3.68,23.91,8.49,6.55,4.18,9.55,9.59,11.07,16.52,1.64,7.46-.16,14.73-1.94,21.85-3.52,14-6.66,28.14-13.7,40.94-4.54,8.25-13.41,11.42-21.22,7.82-7.1-3.29-14.39-6.25-21.2-10.08-11.24-6.33-23.41-11.43-31.92-21.79v-1.87c-14.82,9.43-29,4.74-43.05-1.72-4.17,2.59-7.37,6.33-11.88,8.74a109.53,109.53,0,0,1-35.72,11.59c-5.22.78-11,.27-14.27-4.92-2.72-4.31-6-8.92-6.7-13.73-1.87-13.83-3.22-27.75-1.67-41.85a82.38,82.38,0,0,1,6.41-23.11Z"/>
    <g class="opusBowtieBorderLine">
        <path d="M527.25,1099.94c.63,4.79,1.24,8.33,1.88,13.12,1.12,8.41-.57,16.45-3.13,24.38"/>
        <path d="M484.75,1101.19c-3,11.93-5.3,22.66-2.5,35"/>
    </g>
    <g class="skin">
        <path d="M672.25,1659.94c.81-12,1.4-23.83-2.36-35.67-5.14-16.18-15.59-27.57-30.85-33.49-23.77-9.23-48.67-14.7-74.29-14.37-14,.19-27.73,3.19-41.3,7.11s-26.31,8.78-38.08,16.42a143.92,143.92,0,0,0-16.22,12.87c-6.44-5.48-14.5-6.57-21.94-9a311.49,311.49,0,0,0-31.87-8.72,187.09,187.09,0,0,0-28.1-3.75c-9.36-.55-18.56-2.73-28.13-1.53-18.51,2.31-36.71,5.27-51.19,18.3-15.32,13.79-22.65,31-20.73,51.83.87,9.56.5,19.22,1.93,28.75Z"/>
        <path d="M467.88,1098.69c15.36,1.77,30.79,3.5,46.24,2.4,27-1.91,52.82-9.12,77.43-20.08,15.21-6.77,28.05-16.55,32.78-34.14a37.85,37.85,0,0,0,.83-15.65c-3.32-21.23-13.67-37.78-32.8-49C580,975,566.74,970,553.47,965c-9.55-3.63-18.48-8.46-27.47-13.21-14.51-7.66-28-17.22-43.13-23.72-22.56-9.68-47.81-2.79-63.46,15.31-14,16.2-24.05,34.89-36.94,51.72-6.91,9-13.79,17.73-22.66,24.9-3.78,3.06-7.33,6.57-9.44,11.18-4.56,9.93-1.24,21.64,8.76,30.62,9.77,8.77,21.44,14.46,33.15,19.93,17.21,8,35.79,11.17,54.3,14.67a110.3,110.3,0,0,0,20.67,2.28Z"/>
    </g>
    <g class="skinOverlapLine">
        <path d="M759,500.34a75.77,75.77,0,0,1,.09,57.59"/>
        <path d="M886.62,1113.06a91,91,0,0,1-19.37,6.89c-12.45,3.13-23.94-1.54-35.62-4.42-12.46-3.08-23.7-9.15-35-15.06-4-2.13-7.63-5.21-11.25-8.08a7.41,7.41,0,0,0-5-1.83"/>
        <path d="M922.88,1237.44c-11.31-2.34-25.25,1.38-35,6.33-13.13,6.68-25.91,14-38.91,21-10.91,5.81-22.8,9.79-34.26,14.58"/>
        <path d="M468.5,1613.69c-7.32,11.08-11.58,23.37-14.42,36.24"/>
    </g>
    <path class="meadow" d="M1411,1730.41q-40.34-11.9-81.23-21.81c-32.14-7.8-64.46-14.75-96.9-21.11-48.89-9.6-98.06-17.65-147.51-23.71-37.86-4.64-75.79-8.67-113.75-12.48-17-1.71-34.16-2.11-51.23-3.26-16.89-1.14-33.75-2.58-50.63-3.69-12.07-.8-24.16-1.53-36.25-1.85-16.45-.45-32.93-.19-49.37-.75-30.62-1-61.24-2-91.88-1.76-22.5.17-45,.52-67.5,1.28-17.71.6-35.44.51-53.11,1.39-15.43.77-30.91,1.39-46.28,3.42-6.59.87-13.36.78-20,1-10.21.38-20.45,1.13-30.59,1.88-14,1-28,1.17-41.92,3.31-10.09,1.55-20.44,1.42-30.59,2.73-13.12,1.7-26.3,2.77-39.42,4.66-13.48,2-27,3.73-40.6,5.11-18.24,1.86-36.28,5-54.33,7.86-27.63,4.4-55.1,9.85-82.59,15.14q-52.93,10.2-104.87,24.3c-26.72,7.23-53.26,15.12-79.45,24.1V1881H1411Z"/>
</svg>
