<svg viewBox="0 0 129.04 166.46">
  <path class="folder" d="M115.59,35.58c0-1.66,0-3.33,0-5,0-6.24-.08-12.48.1-18.72a4.54,4.54,0,0,0-.93-3.19A3.36,3.36,0,0,0,112,7.42c-13.77,0-27.54.22-41.31-.06C62.81,7.2,55,7.3,47.1,7.16a3.51,3.51,0,0,1-.49-.11c0-1-.35-2-.37-3.08A3.64,3.64,0,0,0,42.67.52Q29.5.48,16.33.52c-1.26,0-2.66.24-3.13,1.53a6.8,6.8,0,0,0-.13,3.3,8.13,8.13,0,0,1,.19,1.4c0,4.43.16,8.87,0,13.3-.2,4.76-.56,9.51-.53,14.28C12.71,34.93,115.59,35.58,115.59,35.58Z"/>
  <path class="rack" d="M120.85,79.67q.5-4.17,1-8.32c.33-2.82.56-5.65,1-8.45.47-3,.59-6,1.3-9,.47-2,.54-4.07.89-6.09.75-4.3,1.23-8.64,2.21-12.9a7.62,7.62,0,0,0,0-1.59H.8c-.62.8-.1,1.47,0,2.15.63,3.7,1.22,7.41,1.84,11.11.44,2.56.76,5.18,1.26,7.73.58,2.91.8,5.85,1.25,8.76.28,1.77.42,3.6.64,5.39.3,2.55.78,5.08,1.06,7.63a28.13,28.13,0,0,0,.31,3Z"/>
  <path class="folder" d="M117.25,77.45c.5-2.44,0-4.92.31-7.35.46-4.3,0-8.6.29-12.89a38.68,38.68,0,0,0,.22-4c-.14-2.68-.32-5.37-.56-8a3.12,3.12,0,0,0-3.31-2.74,107.83,107.83,0,0,0-11.51.2,51.33,51.33,0,0,1-5.82,0c-3.23,0-6.47,0-9.7,0-2.53,0-3.39.74-3.73,3.62a3.72,3.72,0,0,0,.29,2.42c-.26.49-.66.34-1,.35-20.65.48-41.31.21-62,.26-1.34,0-2.68-.23-4-.25a3.16,3.16,0,0,0-3,3.18c.06,1.94.09,3.88.14,5.82.07,2.4.53,4.8.25,7.21s-.07,5-.31,7.48c-.15,1.49-.14,3-.22,4.44Z"/>
  <path class="rack" d="M121.41,121.53c.32-2.77.65-5.54,1-8.32s.56-5.65,1-8.45c.47-3,.6-6,1.3-9,.47-2,.54-4.06.9-6.08.75-4.3,1.23-8.64,2.2-12.9a7.59,7.59,0,0,0,0-1.59H1.35c-.62.8-.09,1.47,0,2.15C2,81,2.59,84.71,3.22,88.41,3.65,91,4,93.6,4.48,96.15c.57,2.9.79,5.84,1.25,8.76.27,1.77.41,3.59.63,5.39.31,2.55.79,5.08,1.06,7.63a28.65,28.65,0,0,0,.31,3Z"/>
  <path class="folder" d="M116.14,119.59c0-3,0-5.91,0-8.87,0-1.85,0-7.4,0-8.32,0-2.54,0-5.08,0-7.62a3.8,3.8,0,0,0-3.74-3.67c-9.89.14-19.78.06-29.67.06H81.21c0-1.1.05-2.08,0-3a3.61,3.61,0,0,0-3.73-3.63q-13,.11-26.06,0c-2.37,0-4.29,1.65-3.5,4.34a9.86,9.86,0,0,1,0,2.62H46.41c-9.71,0-19.41,0-29.11,0-2.15,0-3.34.65-3.25,3.5.08,2.26.34,4.52.34,6.79,0,4.2-.07,8.41,0,12.61.05,2.05-.47,4.06-.3,6.1Z"/>
  <path class="rack" d="M117.94,117a3.4,3.4,0,0,1-1.52.13H1.51c2.87,16.22,5.42,32.45,7,48.86H121.72c1.7-16.38,3.83-32.66,6.82-49h-10.6Z"/>
  <path class="labelBottom" d="M51.53,84.49c0,2,0,3.9,0,5.85,0,.86.26,1.13,1.13,1.13,6.33,0,12.66,0,19-.06,1.84,0,3.7-.26,5.65-.22a56.87,56.87,0,0,0-.23-6.7Q64.29,84.6,51.53,84.49Z"/>
  <path class="labelMiddle" d="M86.75,46.39c0,.84,0,1.67,0,2.57h26.81a17.38,17.38,0,0,0,.12-6.55,98.32,98.32,0,0,0-11,.2,51.33,51.33,0,0,1-5.82,0c-3.23,0-6.47,0-9.7,0h-.49C86.7,43.9,86.73,45.14,86.75,46.39Z"/>
  <path class="labelTop" d="M16.58,3.56a9.87,9.87,0,0,1,0,2.49c-.06.87.26,1.23,1.12,1.11a5.23,5.23,0,0,1,.56,0H42.43c-.23-1.89.23-3.64-.29-5.41A3.62,3.62,0,0,1,42.07.52Q29.2.48,16.33.52h-.15A28.42,28.42,0,0,0,16.58,3.56Z"/>
</svg>
