<svg viewBox="0 0 470.05 470.05">
  <circle class="water" cx="235.03" cy="235.03" r="234.53"/>
  <path class="land" d="M289.66,6.9c-7.87,5.72-22.48,10.86-37.6,13.33-19,2.8-33.51,6.2-46.14,18.79-5.49,5.35-9.65,9.94-15.49,12.69C172.94,58,160.12,79,161.22,86.34c4.17-4.83,23.68-22.78,38.93-26.23-9.08,8.11-16.17,16.61-20.26,25.7-3.77,8.73-6.92,15.45-13.51,20.93-6.16,4.46-8.57,11.32-12.2,15.49-5,6.27-6,12.41-6.81,18.86-1.38,14.27.92,34.85,5.53,46.82,2.3,5.68,1.21,10-.92,14.44-2.46,5.22-1.54,15.5,2.3,20.88,6,7.67,6.56,15,.05,22.92-9,10.5-9.65,25-1.05,33.16,7.78,7.91,11.75,5.45,10.29,16.78-.63,5.46-12.64,6.23-22.67,6.51-12,.21-21,5.45-23.92,13.43a51.66,51.66,0,0,1-8.6,15.73c-6.5,8.4-4.82,21,0,30.64,7.35,13.22,12.38,22,7.14,29.79-9.24,10.91-24.2,13.11-41.16,13.68a233.73,233.73,0,0,0,136,62.4,176.26,176.26,0,0,0,41.73-8.72c12.66-3.9,17.84-13.43,11.75-23.92-6.29-10.71-10.28-24.55-8.39-37.56,1.68-12.17,1.47-21.61-6.3-28.75-4.13-4.05-5.45-7.13-6.71-12.8-1.89-9.86-8.6-19.51-16.16-23.5-5.66-2.73-7.55-6.92-12-12.38-6.08-9.23-23.3-19.7-36.72-25.18-6.92-3.56-6.76-12.58-13.64-15.73-9.19-4-9.5-10.11-3.54-19.42,2.34-4.13,7.51-5.53,14.17-5.93,5.16-.29,8.06-4.44,7.91-10.88.47-8-3.17-19.48-8.07-32a36.82,36.82,0,0,0,19.61,10.54c5,.91,8.39-2,6.09-6.59-5.18-11-17.75-14.9-25.87-19.28-6.66-3.44-5.13-10.06,0-16.48,3.82-5.15,4.21-15,12.53-18.4,14.83-4.44,30-4.83,46.3,4.73,13.84,8.24,25.87,26.2,30.15,35.26,3.46,7.91,5,15.55-1.9,17.49-8.1,2.05-17,8.3-20.84,13.85-3.93,5-1.9,9.89,9.59,8.85,6.83-.63,15.36-4.81,23.35-13.46,3.72-4,8.4-5.83,15-2.58,11.06,4.93,26.16,7.05,35.79-3.93,2.71-3.66,5.63-5.26,11.11-2.44,7,4.22,12.34,4.75,21,4.34,11.79-.41,20.77,1.37,25.53,9-3.51-.28-6.55-.36-6.63,2.56.08,3.59,11.06,12.81,19.49,15.93,6.8,2.49,11.9,1.35,10.45-5-1.13-4.61-5.54-9.66-10.21-14.37,7.31,2.55,15.59,5.42,16.89.9,1.95-7.4-6.39-21.38-20.95-29.14,12.09,1.57,30.08,10.62,35.78,24,2.84,6.51,10,12.12,17.68,18a39,39,0,0,1-15.07,1.81c-4.38-.39-6.27,4-1.26,8.69,12.92,9.35,25.21,14.91,38.94,13.54a237.16,237.16,0,0,0,2.5-34.34C469.55,124.31,392.83,31.52,289.66,6.9Z"/>
  <g class="cloud">
    <path d="M354.49,33.16c13.58,40.15,35.89,72.91,58.2,98.43,5,5.65,2.83,15.91-5,11-6.41-4-11.22-10.12-18.08-17.68-5-5.5-11.26.4-5.43,11,23.71,40.19,51.05,74.15,85.23,108.11q.17-4.53.17-9.09A234.44,234.44,0,0,0,354.49,33.16Z"/>
    <path d="M52.52,321.92c-5.22-12.76-.87-18.27,8.38-10.64,11.05,9.48,15.69,2.52,10.76-10.53-8.41-23.48-31.32-44.07-44.59-74.18-6.15-13.09,3.12-19.18,17.37,3.73,12.72,18,22,7.83,15.37-1.62C44.18,207,27.73,182,14.47,155.11A234.82,234.82,0,0,0,67.94,399.59h0c-6.13-9.72-11.54-19.27-15.13-28.38-5.8-13,.87-16.24,13-2.61,13.88,14.73,19.06,3.46,14.18-2.32C65.66,349.2,58.32,335.84,52.52,321.92Z"/>
    <path d="M410.19,391c-6.95-12.27-24.91-22.47-23-10.09,1,12.84-5.1,8.74-19.91-4.61-15.27-13.33-27-26-38.84-39.47-8.52-9.34-15.8-.11-9.47,12.76,5.47,11.68,13.58,20.64,22.81,33,8.74,10.93,4,19.16-10,8.67-12.38-9.4-21.12-9.15-10.2,12,8.29,13.76,17,21.13,30,35.35A235.38,235.38,0,0,0,410.19,391Z"/>
  </g>
</svg>
