<svg viewBox="0 0 1412 1880.5">
    <rect class="frame" x="1.5" y="0.5" width="1409" height="1878"/>
    <path class="mountain" d="M1278,1263c-4.82,2.13-8.38-.89-12-3.13a31.92,31.92,0,0,0-4.57-2.88c-15-6.21-29.2-14.28-44.39-20.26-13.8-5.44-27.58-11.07-41.19-17-10.37-4.56-21.57-7.23-32.41-10.7a44.47,44.47,0,0,1-5.5-2.51c-9,2.78-18.41,4.52-26.57,9.89a44.3,44.3,0,0,1-12,5c-7.21,2.08-12.85,7.09-19.54,9.93-7.66,3.25-14,8.47-21,12.59-6.17,3.62-12.65,6.7-19,10.07-2.17,1.16-4.37.13-5.94-.64-8-3.92-16.73-6-25.15-8-13.92-3.26-27.66-7.49-41.9-9.5-4.83-.69-9.88-.83-14.55-2.79-1-.42-20.47,6.67-29.05,9.71-9.27,3.29-18.28,7.18-27.38,10.84-11.68,4.71-48.54,20-55.51,16.33-17.06-8.92-513.87,23.7-516.33,17.48a211.29,211.29,0,0,0-11.79-24.37c-4.08-7.34-7.7-8.25-14.85-3.46-10.14,6.8-19.75,14.35-27.56,23.91-2.85,3.49-6.2,6.71-8.33,10.59-1.76,3.22-6.92,2.91-6.92,2.91-1.75-6.67-3.19-13.44-5.33-20a165.56,165.56,0,0,0-9.26-23.11c-4.44-8.84-12.93-8.26-19.66-3.93-8.38,5.4-22.5,18.51-22.5,18.51-1.67-6.33-3.32-12.67-5-19A165,165,0,0,0,171.57,1202c-1.84-2.83-3.41-5.89-6.13-7.87-2-1.49-4.15-2.51-7-.18a375.65,375.65,0,0,0-28,25.49c-6.4,6.32-17.9,18.61-17.9,18.61-2.71-2.15-2.24-5.23-1.94-8,1.22-11.45-1.15-22.46-3.52-33.52-3.2-14.87-8.55-28.8-17-41.53-1.48-2.23-3-5.55-5.08-5.66A17.07,17.07,0,0,0,74.49,1152c-9.17,6.23-15.49,9-25.66,21.83C34,1193,36,1204,40.58,1171.5A283.93,283.93,0,0,0,37.44,1143c-1-6.51-3.38-12.36-5.24-18.57-5.62-18.79-13.55-36.2-26.72-50.92-.33-.37-.66-.75-1-1.13L1,1074.88v800.7l3.5,2.92h1403l.33,1h.67V1263q-64.24,0-128.5,0A5.5,5.5,0,0,0,1278,1263Z"/>
    <path class="steppe" d="M1388.49,1130.48c-8.82,2.56-18,3.54-27,4.94a178.8,178.8,0,0,0-25.94,6.23,23.23,23.23,0,0,1-3.55.86c-3.94.57-7,2.29-8,6.49-.91,3.79-2.07,7.52-2,11.5.08,7.5.15,15,0,22.5-.1,3.83-1.21,7.58-1,11.5.11,2.61-2.3,3.31-4.41,3.46-14.55,1.06-28.68,4.64-43,7.11-7.24,1.25-14.34,3.28-21.51,4.93-9.69,2.23-11.89,4.81-12,14.5-.07,7.25,0,14.5,0,21.83-5.83.87-11.9,2.35-18,2.52-7.51.22-14.58,2.58-22,3.3-10,1-19.73,3.95-29.53,6.25-3.62.85-5.61,3.43-5.77,6.11-.39,6.31-2.37,12.57-.79,19,.59,2.37.21,4.37-3.41,4.57-19.74,1.1-39.15,4.59-58.53,8.33-7.35,1.41-14.66,3.13-22,4.36-4.84.8-6.35,3.55-6.86,7.23a157,157,0,0,0-1.54,19c-.32,22.5-.39,45-.56,67.5l337.5-2.88q1.27-4.44,2.5-8.91V1132.34q-1.21-2.89-2.5-5.75A134.19,134.19,0,0,0,1388.49,1130.48Z"/>
    <path class="land" d="M1401,1295a137.66,137.66,0,0,0-32.53-10.91c-9.17-1.83-17.2,2.07-24.35,7.11-3.15,2.22-6.56,4-9.67,6.26-9.06,6.64-18.37,13-27.43,19.59-4.2,3.08-8.21,3.74-13.07,1.54-5.17-2.35-10.48-4.89-16-5.89-8-1.43-15.67-3.71-23.49-5.59a16.48,16.48,0,0,0-3-.1c-3.17-.83-6.29-1.93-9.51-2.44-5.7-.9-11.15-.91-16.55,2.33-9.78,5.88-20.29,10.58-29.84,16.77-8.51,5.52-16.47,11.94-25.12,17.31a19.39,19.39,0,0,1-17,2.07c-8.62-2.82-17.28-5.54-26-8-10.12-2.85-20.28-5.57-30.5-8-8.76-2.06-17,.45-25,4-5.54,2.43-10.92,5.23-16.54,7.41-4.43,1.73-7,5.89-11.44,7.66-7.16,2.87-13.27,7.86-20.13,11.22s-13.72,7.75-21.89,6.62a127.41,127.41,0,0,1-15.5-3.46c-10-2.69-20.18-4.35-30.5-3.83-6.77.34-13.18,3-19.49,5.42-11.3,4.33-22.54,8.81-33.56,13.87-3.07,1.4-587.45,11.53-596.46,10.6-7.16-.75-14.34-1.28-21.5-2-15.34-1.61-30.69-3.15-46-5-11.2-1.38-22.4-3-33.48-5.12-3.65-.71-7.19-2.25-11-3-6.83-1.33-13.79-1.67-20.6-3.59-6.37-1.79-12.67-4.11-19.41-4.89a153.37,153.37,0,0,1-22-4.44c-7.93-2.12-15.83-4.45-23.6-7.18a37.32,37.32,0,0,0-5.42-.73c-7.5-2.5-15.16-4.61-22.47-7.58-14.94-6.06-30-12.05-44.45-19.08-11-5.32-34.41-16-35.58-15.19V1879.5H1411V1301.8l-2.5-3.59Q1404.71,1296.74,1401,1295Z"/>
    <g class="skinWhite">
        <path d="M804.06,747c5.47,9.61,11.35,19,16.92,28.54,10.39,17.8,22.57,34.4,34,51.48,8.61,12.83,21,21.41,33.41,30.12,13.79,9.66,29,16.1,44.6,21.85,7.56,2.79,14.89,6.2,23,7.64,5.59,1,11,2.84,16.52,4.41,9.84,2.82,20,4.08,30,6.2,6.83,1.46,13.7,2.55,20.56,3.75a309.53,309.53,0,0,0,37,4.11c13.51.7,27,1.93,40.5,2.93l13.5-70.5c-2-.67-4-1.21-6-2-12.19-5.13-24.31-10.39-36.52-15.46-12-5-24.31-9.25-35.48-16-17.19-10.44-34.54-20.54-53.51-27.49C974.68,773.63,967.14,770,959,768s-16.2-3.34-20.58-12c-3.88-7.66-9.5-14.31-13.51-22-5.36-10.28-114.13-213.64-117.36-216.64L728,599S801.32,742.15,804.06,747Z"/>
        <path d="M262.08,1119.53c5.22-12,4.95-24.72,3.57-37-1.42-12.66-.38-24.34,4.28-36.07,7-17.63,18.4-32.27,31.15-45.89A304.68,304.68,0,0,0,321.52,976a205.08,205.08,0,0,0,18.53-28.49c.9-1.71,3.15-8.79,4-11.5,4.6-14.09,9.34-28.1,13.18-42.46,3.91-14.63,10.69-28.45,18.41-41.47,10.48-17.7,19.14-36.3,28.06-54.73,7.61-15.71,13.52-32.31,19.33-48.85,2.87-8.17,5.77-16.33,9.85-24.07,5.37-10.19,14.91-16.48,22.19-24.86,7.43-8.56,15.81-16.27,22.45-25.56,2.58-3.61,20.45-54,20.45-54-16.67-25.33-55.16-80.72-62.5-78-9.88,3.68-19.61,7.59-28.56,13.4a92.32,92.32,0,0,0-20.38,18.64c-7.89,9.45-15.8,18.94-21.56,30-6.28,12-11,24.61-15,37.49-2.5,7.89-5.15,15.73-8,23.5-3.36,9.15-6.93,18.22-10.11,27.46-3.34,9.72-8.41,18.86-11.72,28.59-5.55,16.26-13.51,31.49-19.48,47.52-4.13,11.09-8.46,22.08-13.14,32.94-5.19,12-12.39,22.75-20.43,33.06-11.48,14.72-20,31.13-27.2,48.39-4.42,10.69-9.88,21-13.34,32.06-4.5,14.4-9.12,28.76-12.67,43.46-2.33,9.66-6.31,18.92-8.76,28.56a283.08,283.08,0,0,1-12.57,38,41.07,41.07,0,0,1-8.56,12.46c-12.4,13.19-26.57,24.43-40,36.54-6,5.4-12.82,10.12-16,18-3.78,9.42-3.46,19.08-2.22,29,.74,6,.57,12.11,2.23,18,2.94,10.41,5,21.17,11.94,30a39.23,39.23,0,0,0,13,10.47S260.29,1123.64,262.08,1119.53Z"/>
        <path d="M747,1554.5c-.52,8.73,2.48,17,3.44,25.51,1.23,11,3.72,21.88,4.71,33,.81,9,3.53,31.36,3.85,33.51l148,14c-.38-17.18,1.11-34.41-2-51.51-1.28-7.12-2-14.33-3.07-21.49-1.23-8.25-3.27-16.35-4.86-24.52-2-10.24-3-20.66-4.64-31-1.27-8.15-3.68-16.14-3.48-24.5Z"/>
        <path d="M654,575c7.33-7,60.23-58.57,65.5-61.5,0,0-12.8-15.81-17.46-24.52-2.15-4-1.38-6.89,2.48-8.94,14.12-7.46,25.78-17.65,36.7-29.33,10.51-11.24,17.2-24,22.38-38.17,4.18-11.44,7.92-23,9.2-35.06,1.36-12.8.18-25.78-2-38.45a67.07,67.07,0,0,1,.79-25c2.08-10.27,4.16-20.5,4.4-31a240,240,0,0,0-3-43c-2.17-13.76-5.48-27.2-11.07-40-3.07-7-7.84-12.48-15.44-15.06-3.74-1.27-122.23-23.84-123.45-21.92C610.13,183.48,547.5,282.17,529,311l3,30.5c.51,13.87,3.6,26.62,15.52,35.48a16.69,16.69,0,0,0,5,2.95c7.57,2.14,10.8,7.72,11.94,14.83,1.33,8.35,1.85,16.83,2.85,25.2s-.48,16.71-.4,25a38.05,38.05,0,0,1-1.44,9C562,469,554.63,482.1,545,494Z"/>
        <path d="M1276,961c5.32,5.84,11.49,9.9,19.52,11,11.62,1.6,22.79.94,33-5.56a6.4,6.4,0,0,1,3-1,61.78,61.78,0,0,1,16,1c10,1.62,19.68,1.64,28.52-4.45,4.66-3.22,8.41-10.81,6.93-15.52a81.72,81.72,0,0,0-3.45-8s10.78-3.67,15.54-9c6.74-7.47,5.24-14.12.41-20-4.09-5-13-8.54-13-8.54.67-.67,1.31-1.36,2-2,8.76-7.9,8.11-18-1.49-25-7.49-5.43-16.3-7.28-25-8.84-9.37-1.68-18.72-3.3-28-5.54-5.56-1.35-11-3.31-16.54-4.24-5-.84-10.58,1.07-14.94,4.64C1298.5,860,1274,958.86,1276,961Z"/>
        <path d="M341,1534.5c-2.17,11.09-2.32,22.41-4.66,33.57-2.37,11.34-4.52,22.85-5.87,34.43-.28,2.36-1.36,9.18-1.57,10-2.93,11.17-2.68,22.78-4.9,34l79.5,35.5c12.5-3.67,57.53-16.9,67.49-20,4.83-1.53,8.47-31.27,9.44-42,1.54-16.79,1.07-33.65,1.07-50.49Z"/>
        <path d="M1274.5,849c-6.22-4.2-11.18-9.82-16.44-15.06-3.42-3.4-7.68-6.16-9.56-10.94,0,0-.72-.29-.54-.53,4.85-6.54,12.09-10,18.58-14.41,10.57-7.1,16.85-17.07,19.82-29.09a13.74,13.74,0,0,0-5.85-15c-3.31-2.09-8.51-1.22-13,2.54-4.89,4.09-9.62,8.38-14.52,12.46-7.45,6.2-16.42,9.1-25.45,12.13-13,4.35-26.19,8.72-37,17.5-11.39,9.29-21.3,20.09-28.11,33.38-.72,1.39,24,36.78,37.52,53Z"/>
    </g>
    <g class="skinOverlapLine">
        <path d="M607.5,449.5c9.72,9.92,20.53,19,32.69,25.13,15.95,8.08,33.31,13.28,51.8,10.28,3.43-.55,4.68-1.24,8-2.41"/>
        <path d="M1294,920a337.19,337.19,0,0,0,40.49,10c9.6,1.87,19.35,1.58,29,2.46,6.5.6,12.52,2.31,17,7.5"/>
        <path d="M1382.5,901c-16.21-.64-32.09-3.86-48-6.72a135.36,135.36,0,0,1-30.29-9"/>
        <path d="M1331.5,965a40.68,40.68,0,0,0,4-4c4.21-5.64.73-15-6.43-18.55a22,22,0,0,0-13-1.82c-7.81,1-18.39-.07-26-1.36"/>
    </g>
    <path class="hairBrown" d="M766.5,210.5a44.92,44.92,0,0,1-3.34-6.07c-1.59-3.75-4.44-5.65-7.73-7.52-1.56,2.24-1.5,4.45-1.06,7.11.75,4.51,2.26,9.33-1.37,13.48,0,0-9.73-10.8-15.12-15.88C731.82,195.9,719.5,190,719.5,190c-1.27,4.22.12,8.53.81,12.44,1.07,6.05.18,11.75-.39,17.55-.39,4-2.49,4.65-5.41,2-3.39-3.09-6.83-6.17-10-9.51-7.52-8-17.24-12.2-27-16.54-6.35-2.83-13.1-4.65-19.65-6.5-3.92-1.1-9.64-3.39-13.88,1.07,0,0,10,15.12,8,21.5,0,0-3.39-2.29-5.63-3.82C640,203.83,633,200.66,625,200.43c-1.85-.05-3.33.73-5,1.06-2.74.54-3,1.71-1.54,4,6.07,9.69,7.1,20.37,6.06,31.48-1.73,18.47-10.65,33.88-21.12,48.43-7.12,9.89-13.87,19.74-15.95,32.06a9.46,9.46,0,0,1-1.47,2.84,3,3,0,0,1-3.42-.88,160.68,160.68,0,0,1-10.49-13c-4.39-6.35-14.23-9.21-21.06-5.42-9.47,5.24-15.29,13.25-17,24-1.09,7-2,20.49-2,20.49-2-.93-4.1-2.21-5.16-4.42-6.93-14.48-7.39-30.15-8.72-45.59-1-11.41.58-22.95,3.15-33.93,4.45-19,9.65-38,19.75-55.05,4.33-7.33,7.77-15.42,14.54-20.93,6.2-5,13-9.31,19.42-14.1a100.5,100.5,0,0,1,30.59-15.75c12.62-3.88,25.59-7.3,38.93-7.61,10.15-.24,20.26-1.18,30.53.13a245.16,245.16,0,0,1,31,6.23c8.83,2.31,17.61,5,25.4,9.67,8.65,5.15,17,10.74,23.81,18.66,3.55,4.15,7.38,8.07,10.21,12.73,2,3.37,4.59,7.91,3.34,11.89C767.24,212.28,766.5,210.5,766.5,210.5Z"/>
    <g class="boot">
        <path d="M481.75,1627.41c-4.36,1.59-2.83,5.46-3.05,8.11-.33,4.11-1.62,7.77-4.3,10.38a53,53,0,0,1-23.83,13.35c-14,3.8-28.39,4.3-42.6,6-6.47.78-13.32-1.28-19.42-3.87-13.6-5.76-27.44-11-40.59-17.81a95.43,95.43,0,0,1-19.4-13.64c-2.61-2.33-3.4-5.3-1.69-9,1.29-2.78,2.74-6.11-.16-9.46-5.12,1.92-8.06,6.22-11.29,10.46-5.26,6.91-5.76,14.88-7.21,23-2.08,11.65-2.84,23.43-4.36,35.1-1.22,9.35-2.59,18.92-2.27,28.45.36,10.87-.73,21.68-1.29,32.49-.65,12.67-.43,25.44-2.72,38a49.79,49.79,0,0,0-.52,11c.52,12.34-.52,24.66-.39,37,.08,8.46.16,17-.38,25.49-.57,9,.53,18,.84,27H435.71a305.23,305.23,0,0,0,9.52-36c1.27-6.35,3.45-12.62,4.77-19,2-9.83,3.84-19.7,6.05-29.49,1.56-6.89,3.75-13.64,5.42-20.52,4.58-18.81,8.57-37.78,13.68-56.45,4-14.76,6.59-29.84,10.73-44.57,2.51-8.93,4.91-18.07,4.53-27.47C490.12,1638.71,487.92,1632,481.75,1627.41Z"/>
        <path d="M933.61,1804c-.59-19.38-2.16-38.68-3.6-58-.1-1.33.39-13,.18-17.51-.47-9.82-1.64-19.59-1.39-29.5a183.79,183.79,0,0,0-2-28.47c-.67-5.07.43-10-.25-15-1.9-14.16-2.29-28.52-5.61-42.49-2.3-9.68-8.53-16.5-16.18-22.08-4.08,2.88-1.48,6.14-.74,9.07,3.13,12.34-3.55,21.51-9.53,31-11.11,17.66-28.45,20.33-47,19.33-7.16-.39-14.34-.31-21.53-1.14-13.23-1.55-26.36-3.49-39.49-5.66A82.7,82.7,0,0,1,770,1639c-10.58-4.11-15.2-11.57-14.55-23a8.16,8.16,0,0,0-.81-2.56c-6.73,2.69-12.16,10.72-13.65,20.06-1.58,9.9-.48,19.62.78,29.53,1.55,12.19,3.8,24.27,5.37,36.45,1.28,9.93,3.83,19.69,5.86,29.52,2.3,11.17,4.66,22.33,7,33.5,0,0-.27,5.79.28,7.4,3.24,9.38,5.11,19.15,7.34,28.69,2.84,12.1,5.91,24.22,8.14,36.45,1.2,6.56,2.61,13,4.13,19.49.18.74,4.29,17.77,5.79,25h148.2c2.34-16.92.7-34,.14-51C933.75,1820.34,933.85,1812.17,933.61,1804Z"/>
    </g>
    <path class="glove" d="M1201,873.5c3.6-2.33,6.3-5.68,9.91-8.13,15.84-10.71,33.07-18.91,49.6-28.36,1.88-1.08,3.78-.29,5.48.52,7.75,3.68,15.87,6.31,24,9,8.54,2.88,17.47,4.64,25.52,8.93l-1,.5c-.93.68-.08,1.85-.54,2.47-5.63,7.64-8.13,16.64-10.34,25.56-3.9,15.74-9.72,30.93-12.77,46.94-2,10.64-3.84,21.18-3.35,32,.35,7.68-1.48,9.58-9.5,9.48-12.33-.14-24.45-2.3-36.47-4.63-10.26-2-20.67-3.44-30.56-7.27a121.58,121.58,0,0,1-32.64-18.37c-5.63-4.51-11.46-8.93-17.36-13.17-7.58-5.44-16.65-5.67-25.47-6.52-11-1.07-22-1.77-33-3.14-4.85-.6-11.17-.83-12.73-6.46-1.37-5,.12-18.8.3-19.91,1.53-9.19,3.1-18.37,5-27.5,2.72-13.36,6.55-26.31,13.85-38.08a7.11,7.11,0,0,1,9-3.18c3,1,6.07,2.16,9.11,3.2,10.2,3.51,20.37,7.5,31.47,6.49A10,10,0,0,1,1167,837c10.09,10.09,20.14,20.23,29.39,31.09Z"/>
    <path class="skirt" d="M792.5,970.5c6.78,13.32,11.42,27.51,16.42,41.53,3.42,9.6,7.11,19.08,10.94,28.53,4.28,10.58,7.65,21.55,11.1,32.45,5.16,16.29,10.48,32.54,14.91,49,3.76,14,9.3,27.47,13.22,41.43.48,1.7,1.16,4.53,1.16,4.53,1.92,5.83,4.35,11.55,5.65,17.52,3.28,15.1,8.87,29.51,12.89,44.4,3.3,12.23,7.31,24.34,10.65,36.6,1.91,7,4.59,13.92,5.87,21,2.66,14.75,7.45,28.91,10.64,43.48q4.09,18.67,7.5,37.5c1.76,9.62,2.86,19.36,4.69,29,.42,2.25.11,2.53.11,2.53,2.06,14.06,5.79,27.75,9.27,41.5,2.11,8.34,3.81,16.77,6.19,25.08a43.89,43.89,0,0,1-1.33,28.37c-1.92,4.87-5.72,8.85-9.45,12.48-9.86,9.59-22,15.17-34.85,19.8-7.29,2.62-14.55,5-22,6.92-1.66.42-3.22,1.86-4.3,4.23-2.18,4.75-6.45,8.29-11.26,10.57-14.24,6.76-28.39,13.57-43.94,17.23-9.86,2.32-19.49,5.67-29.54,7.32-12.26,2-24.28,5.31-37,4.2-7.57-.66-15.27,1.22-23,1.42a128.82,128.82,0,0,1-27-1.69c-7.32-1.36-9.83-4.45-11-11.93a21,21,0,0,0-1-3s-15.13,2.8-24.53,4.34c-12.1,2-24.3,3.62-36.43,5.44-13.68,2-27.32,2.41-41,2.72-3.91.09-7.82.14-11.31-1.66a4.79,4.79,0,0,0-1.72,4.16c.14,7.53-6.8,11.73-12.47,12-10.83.44-21.67,1.1-32.5.89-7.49-.14-24.5-1.36-24.5-1.36-1.93-1-4.06,0-6-.54-10.5-2.72-21.44-1.66-32-3.83-6.69-1.37-13.68-1.15-20.46-2.2-12.68-2-25.43-4-37.46-8.56-10.82-4.06-22.44-5.79-32.6-11.79-5.62-3.33-11.32-6.72-13.19-13.15-.87-3-2.8-3.37-4.25-3.28-6.41.44-12.36-1.74-18.5-2.72a125.36,125.36,0,0,1-29.43-8.62,71.46,71.46,0,0,1-21.88-14.5c-12.44-12-13.39-25.6-10.18-40.81,1.6-7.55,4.08-14.88,5.55-22.49,3.52-18.11,8.56-35.86,13.94-53.51,3.45-11.34,7.1-22.63,10.46-34,3.63-12.29,7.2-24.61,10.48-37,3.65-13.78,7-27.64,12.09-41,3-7.82,4.41-16.07,6.88-24,3.64-11.74,6.5-23.72,10.17-35.45,2.54-8.12,4.19-16.54,7.08-24.47,5.41-14.8,9.78-29.89,13.71-45.09,4.3-16.57,9.69-32.76,15.08-49,3.75-11.27,7.94-22.36,11.9-33.54q9.39-26.49,21.34-51.85c7.1-15,16.13-29.15,25.12-43.22,2-3.06,6.83-4.11,6.18-8.88Z"/>
    <g class="skirtFoldLine">
        <path d="M852,1436.5c.22,9.82,2.65,19.34,3.84,29,1,8.49,2.47,17,3.09,25.48.83,11.34,2.59,22.59,2.73,34,.05,3.47,1,6,1.34,9.5"/>
        <path d="M375,1399.5c-2.8,15.17-5.28,30.4-8.39,45.52-2.07,10-3.06,20.32-4.63,30.48-.88,5.68-2,11.33-3,17-1.33,7.5-2.72,15-4,22.5-1.39,8.32-2.76,16.66-3.94,25-.22,1.59-.07,0-.57,5"/>
        <path d="M674,1407.5c-.43,15.24,1.89,30.33,2.43,45.5,1.07,30.49,1.81,61,2.48,91.5.09,4.23-.91,17.5-.91,17.5"/>
        <path d="M564,1517.5c0,11.52.89,23,1.27,34.51.22,6.75.73,14-1.27,20.49"/>
    </g>
    <g class="strap">
        <path d="M593.93,1006a283.46,283.46,0,0,0-7.06,54.52c-.62,16.67-1.64,33.35-2.66,50-.83,13.53-2.18,27-3.31,40.48-1.79,21.15-1.81,42.4-3.68,63.48-2.11,23.67-2.23,47.36-3.15,71-.55,14.32-.37,28.67-.58,43-.12,7.59-2.39,8.5-9.94,9.79-7.18,1.23-14.52.54-21.58,2.6-2.3.68-5,0-7.47.12-6.84.25-13.65,0-20.53.75-6.23.64-12.7-.49-19-1.75-7.38-1.48-15.36-1.64-21.86-5.26-6.93-3.88-14-5.46-21.61-6.91-16.24-3.09-32.13-7.8-48-12.39-7.34-2.12-14.05-6-21.48-8.06-3.8-1.05-5-5.38-4-11.39,1.67-10.67,3.07-21.38,5.08-32,1.79-9.41,4.35-18.67,6.4-28,2.92-13.32,5.32-26.76,8.63-40,2.93-11.68,5.36-23.48,8.79-35.06,3.94-13.37,6.65-27.11,10.74-40.43,3.54-11.53,6-23.34,9.73-34.83,6-18.43,10.95-37.18,16.7-55.69,3.36-10.82,6.17-22,11.64-31.9,3.08-5.6,4.59-11.89,8.29-17.12C464,981,594.89,1001.9,593.93,1006Z"/>
        <path d="M768.42,979.54c8.86,16.35,14.41,34,20.76,51.39,5.52,15.1,8.27,30.9,13.34,46.06.18.55.6,3.92,1,5.52,4.94,22,11.11,43.74,15,66,1.27,7.2,3.2,14.28,4.62,21.47,2.47,12.6,6,25,8.7,37.56a48.24,48.24,0,0,1,.4,5.47c1.08,5.67,1.93,11.39,3.3,17,2.66,10.87,5.73,21.65,8.4,32.52,1.29,5.26,1.82,10.71,3.11,16,1.67,6.85,1.61,6.58-4.52,10.57-15.81,10.3-33.93,14.43-51.55,19.92a108,108,0,0,1-22.5,4c-3.11.27-5.2,1.85-5.36,4.57-.28,4.67-2.76,7.1-6.61,9-12,6-24.78,9.23-38,11.65-16,2.94-31.93,4-48,1.35-1.77-.29-3.49-1.17-5-1.33-3.68-.39-4-2.45-4-5.21,0-5.33-.37-10.64-.18-16,.32-9.31-.44-18.66-.85-28-.1-2.16-.15-4.34-.32-6.51a181.34,181.34,0,0,1-.55-22,267.2,267.2,0,0,0,0-27c-.32-5.67-2.09-11.33-1-17,1.13-5.91.41-11.82-.3-17.49-1.6-12.83-1.67-25.72-2-38.54-.22-9.35-1.31-18.66-1.75-28-.45-9.61-2.21-19.37-2.8-29-.71-11.63-2.42-23.19-2.13-35,.23-9-1.49-18.38-2.84-27.46-2.27-15.32-4.25-30.68-6.29-46C640.5,995,767.51,977.86,768.42,979.54Z"/>
    </g>
    <g class="strapBorderLine">
        <path d="M466,1332c.5-5.5.46-8.62,1.62-14,2.17-10.09,5.88-43.65,7.5-50,2.4-9.41,2.66-19.12,4.86-28.53,1.39-5.93,3-20.49,3.13-21.49.63-7.21,2.13-14.32,3.19-21.47,1.39-9.34,3.55-18.64,4.59-28,1.11-10.18,2.67-20.31,3.92-30.45,1.27-10.35,2.85-20.73,4.52-31.07,1.21-7.45,2.81-14.83,3.43-22.45.73-8.92,3.75-17.63,5.15-26.53,1.81-11.51,4.92-22.69,7.58-34,1.53-6.5,3.51-10,4.51-18.5"/>
        <path d="M714,1003c3,7,3.07,14.68,4.76,21.56,1.44,5.83,3,11.79,3.43,17.93.17,2.15,1.91,10.41,2.41,14.5,1,8,2.57,16,3.9,24s2.67,16,4,24c2.16,13,3.32,26.09,5.9,39,1.54,7.73,1.79,15.7,3.18,23.47,1.49,8.33,3.22,16.62,4.45,25,1.53,10.36,3.31,20.68,5,31,1.51,9.42,3.15,18.81,4.46,28.26,1.35,9.72,2.24,19.51,3.59,29.23.92,6.7,2.36,13.33,3.42,20,.66,4.15,1,8.33,1.53,12.5"/>
    </g>
    <path class="pauldronStrap" d="M803.5,671.5c11.91-1.38,23.21-5.34,33.9-10.23,14.36-6.56,28.41-14.1,39.6-25.77L905,680c-7.83,8-17.46,13.38-27,19.07A216.94,216.94,0,0,1,818,723.37c-6.64,1.64-13.64,1.8-20.47,2.63Z"/>
    <g class="brass">
        <path d="M521,1315.55c16,1.46,31.11-18.38,28.73-35.08-1.66-11.6-5.43-20.67-17.24-24.43s-25.25-.72-33.13,8.84c-9.79,11.86-12.14,29.1-2.81,41.08,5.22,6.68,12.38,10,20.95,10A19.65,19.65,0,0,1,521,1315.55Z"/>
        <path d="M718.49,1254.94c8.71-.77,18,7.21,20.49,13.57,3.6,9.35,4.54,19.24.78,28.39-4,9.69-11.09,16.83-22.24,19.2-12.2,2.6-22.95,0-30.29-9.77-6.46-8.62-7.35-18.88-2.82-29.37,4.69-10.85,12.67-17.68,23.6-21.44C709.45,1255,716.7,1255.1,718.49,1254.94Z"/>
        <path d="M455.88,1272.49c.42-8.28-1.51-16.66-6.67-22.74a22.1,22.1,0,0,0-20.69-7.14c-10.32,1.78-19.29,6-24.14,16.34a15.88,15.88,0,0,0-1.77,5.06c-.48,6.31-3.68,12.38-.95,19,3,7.33,8.73,11.65,15.4,14.83,3,1.42,6.59,1.58,9.94,2.11,8.21,1.28,23.5-7.8,25.95-16C453.16,1283.27,455.71,1275.84,455.88,1272.49Z"/>
        <path d="M798,1234c13.26-.12,24.67,7.18,27.34,18,3,12.19,1,23.93-7.89,33.41-15.86,17-35.58,4.25-41.52-10.92-5.37-13.72-1.77-25.2,8.2-34.89,3.41-3.31,8.6-4.46,13.37-5.64Z"/>
    </g>
    <path class="shirt" d="M792.5,834c.78-6.31,1.35-12.62,1.77-19,.67-10,1.26-20.13,2.94-30,2-12,2.56-24.32,6.29-36l2-.5c-3,.23-2-1.35-1.54-3,1.28-5.14,2.69-10.28,3.47-15.5,1.51-10,3.57-19.83,4.3-30,.63-8.67,2.58-17.32,2.63-26,.06-11.66-.51-23.36-1.47-35-.82-10-2.33-20-4-30-1.06-6.4-2.94-12.67-4.42-19-3.1-13.36-7.3-26.25-15.5-37.5l-43.5-51c-3.83-2-7.72-3.91-11.49-6-6.55-3.67-13.23-7-20.52-9-2.83-.75-5.81-2.23-8.51.43a30.29,30.29,0,0,1,1.81,6.1A17.8,17.8,0,0,1,704.45,508,100.87,100.87,0,0,1,693,521.54a169.2,169.2,0,0,1-34.5,27.53c-8.72,5.16-9.63,5.36-17-2.08-3.24-3.27-6.52-6.76-10.14-9.31-14.75-10.39-28.35-22.31-43.78-31.82A305.64,305.64,0,0,0,549,485.44c-3.27-1.42-6.92-2.46-10-2.2a107.4,107.4,0,0,0-28.45,6.44c-11.46,4.29-23,8.57-34.1,13.76-18.08,8.45-36.57,16.22-52.38,28.67C417.9,537,410.93,542,411.5,551.5l.5-2.5c1.43.61,2.52.31,4.06-.37,6.51-2.89,13.59-2.67,19.27,1.13,4.25,2.84,8.5,6,11.91,10.56a141.88,141.88,0,0,1,18.63,32.23,109.41,109.41,0,0,1,7.45,28c.63,5.35,2.19,10.69,2,16-.36,10.22,0,20.51-3.18,30.56-2.23,7-3,14.91-7,20.73-5.65,8.29-11.74,16.61-20.12,22.8-5.6,4.14-10.52,9.33-11.95,16.44a182.44,182.44,0,0,0-2.56,20.48c-.86,10.15-1.44,20.33-2,30.5-.82,13.82-.48,27.66-.51,41.5a9.53,9.53,0,0,0,0,2,237.61,237.61,0,0,1,4,31Z"/>
    <path class="belt" d="M430,908.5c1.19,11.24-.2,22.39-1.6,33.49a143.84,143.84,0,0,1-3.94,18c-2.48,9.55.1,15.92,8.53,21,11.16,6.79,23.65,9.92,36,13.51,15.93,4.64,32.33,7.1,48.55,10.28,11.15,2.2,22.47,4,34,4.28,5.16.12,10.37.86,15.51,1.2,10.63.69,21.33.41,32,.15,10.5-.24,21-.94,31.5-1.44s21-.78,31.5-1.56q18.76-1.38,37.49-3.49c14-1.6,28.23-2.64,42-5.71,15.34-3.44,31.21-6.13,45-14.35,11-6.58,17.27-16.81,16.41-29.88-.78-11.83-1.71-23.67-1.73-35.51,0-11,1.91-22,2.72-33,1.07-14.46,3.85-28.82,2.31-43.5-1-10-5.73-17.92-11.63-25.5-3.94-5.07-9.68-4.06-14.48-3.29-14.34,2.3-28.52,5.39-43,7-8.34.92-16.73,1-25,2-10,1.2-20,1.43-30,1.83-19.51.76-39,1.59-58.49,3-13.26,1-26.34-1-39.51-1.21C581.54,825.86,430,908.5,430,908.5Z"/>
    <path class="sash" d="M752,485.5c-5.33.05-9.68,1.68-12,7-5.93,13.54-12.77,26.6-19.73,39.65-5.69,10.67-12.71,20.32-19.24,30.37-7.22,11.13-13.82,22.7-21.65,33.38-8.08,11-15.64,22.41-23.09,33.78-10.38,15.84-22.6,30.08-34.29,44.81-7.72,9.73-16.53,18.42-25.26,27.23-7.52,7.59-13.9,16.34-21.65,23.86-13.8,13.37-26.87,27.48-41.52,40-7.27,6.2-14,13-21.06,19.43-11.75,10.64-23.95,20.7-37.49,29-7,4.32-13.86,8.91-21,12.94-8.51,4.77-17,9.77-26,13.33-7.09,2.8-9,8.2-9.79,14.25-1.86,14-4.79,27.88-4.9,42-.05,6.62-.56,13.62,2.65,20.06.89,1.8.2,4.27,1,6.47,1.51,3.94,4.81,6.08,8.59,5a287.32,287.32,0,0,0,56.32-23.33,529.3,529.3,0,0,0,55.79-34.52,517,517,0,0,0,49.82-40.22c11.18-10.29,22-21,32.5-32q19.92-20.85,39-42.49c16.51-18.76,33-37.59,47.43-58,10.25-14.57,20.25-29.28,30.79-43.66a145.31,145.31,0,0,0,14.93-25.21c3.17-6.94,7.91-13.07,12.08-19.43C770.84,599,776.6,588.29,783,578a351,351,0,0,0,18.12-32.44c1.59-3.31,2.91-6.71,4.4-10Z"/>
    <path class="pauldron" d="M935.5,693c.59-5.63-1.74-10.74-3.07-16-5.48-21.46-14.36-41.69-22.94-62a269.12,269.12,0,0,0-24.35-45.94C874.3,553,862.17,538,847.59,524.9c-14.31-12.8-30.4-22.94-46.68-32.75-12.3-7.4-25.55-13.07-39.9-15.7-8.56-1.56-15.78.81-22,6.58-3.33,3.09-2.87,5.08,1.48,6.94,6.59,2.82,13.14,5.64,19.57,8.87,10.39,5.24,17.84,13.52,24.82,22.24a77.15,77.15,0,0,1,14,25.46c5.68,18.76,15.81,35.26,26.43,51.26,6.31,9.5,14.2,18.16,22.4,26.49,9.11,9.25,20,16.72,27.77,27.24,4.68,6.32,7.6,13.7,11.59,20.43,6.16,10.39,10.06,21.83,15.58,32.47A140.23,140.23,0,0,0,919,729.48c4.12,4.95,9.57,4.92,13.94,0,3.38-3.8,4.83-8.38,5.07-13.48.35-7.61-.73-15.06-2-22.5Z"/>
    <path class="guard" d="M193.5,1214c5.64-.89,11.36-.82,17-1.88a36,36,0,0,0,19.9-10.7,147.79,147.79,0,0,0,24.74-35.34,109.63,109.63,0,0,0,10.58-32.62,27.78,27.78,0,0,0-5.19-21c-10.8-14.76-26-22.45-43.08-26.83-13.41-3.44-25.69.76-35.85,9.51s-17.06,19.84-23.16,31.59c-5.42,10.46-9.1,21.56-12.41,32.78-4.17,14.12.08,26,10.47,36,2.55,2.45,5.31,4.69,8,7Z"/>
    <path class="blade" d="M36.5,1659c7.36-4.23,12.7-10.82,17.8-17.16,8.35-10.37,17-20.53,24.2-31.84,11-17.36,19.91-35.63,25.55-55.49,4.42-15.57,9.34-31,13.94-46.51,5.72-19.32,11.34-38.67,17-58q10-34,20-68l20-68,20-68c6.67-22.67,13.28-45.35,20-68,3.54-11.88,7.09-23.75,11-35.49,3.45-10.26-3-19.06-11.09-22-9.82-3.51-18.47.6-22,10.43-9.67,27.16-19.13,54.41-29.06,81.48-10.49,28.61-20.7,57.32-31,86l-35,97q-17.49,48.51-35,97c-5.62,15.68-11,31.46-17,47a194.47,194.47,0,0,0-10.76,39.08c-1.67,10.25-1.94,20.73-3.75,31-1.65,9.34-.18,18.49,1,27.49,1,7.31.33,15.07,3.67,22Z"/>
</svg>
