<svg viewBox="0 0 1412 1882">
    <rect class="frame" x="1" y="1" width="1410" height="1880"/>
    <path class="pants" d="M959.16,1640c-.38-1.9-.37-3.64-2.14-5-17.53-13.45-35.21-26.74-52.48-40.52q-44.25-35.33-89-70c-27.35-21.26-54.37-43-81.54-64.45L347,1791.5c-1.07,5.59.43,11.14,1.26,16.46a234.22,234.22,0,0,1,3.23,37.54c-.05,8.59,1.78,17,2.6,25.49a94.85,94.85,0,0,0,1.63,10H928.48c5-15.61,9.38-31.35,12.82-47.44,2.51-11.81,4.33-23.67,6.21-35.56.63-4,1.66-8,1.92-12,.56-8.57,2.9-16.86,3.22-25.49.25-6.87,2-13.66,2.81-20.52,1.16-10.48,2.18-21,3-31.49.84-10.66,1.77-21.33,1.93-32,.16-11-.54-22-.92-33A22.56,22.56,0,0,0,959.16,1640Z"/>
    <path class="pantsOverlapLine" d="M719,1573.5c-.88,17.21,1.59,34.3,1.72,51.5.15,20.54,2.17,41,4.07,61.52,1.25,13.44,2.81,26.92,2.71,40.48-.18,26.33,0,52.68-.63,79-.46,17.68-2.12,35.34-3.41,53-.67,9.18.17,11.41-1.46,20.5"/>
    <path class="skinAshkenazi" d="M787,375.5c2.85,11.05,8.57,20.44,15.32,29.63,9.87,13.43,22.26,24.49,32.79,37.28,10.68,13,21.53,25.76,30.4,40.08,6.43,10.37,4.36,17-.49,25-5.42,9-13.87,14.18-23,18.48-2.8,1.31-3.77,3.13-4.19,6.49-1.73,14-2.56,28-3.63,42-.67,8.71-1.72,17.34-2.74,26-1.52,12.89-3.82,25.73-8.08,38-5.67,16.31-16.46,27.89-33.3,33.73-6.33,2.2-15.06,5.82-21.64,7.2C765,683,697.33,759.67,687,771l-188,.5c0-36.83-.49-114.29,1-116,4-4.8,6.18-10.42,8.24-16.4,6.06-17.61-4.34-36.26-16.43-44.78-2.63-1.86-2.76-3.17-2.76-5.3q-.06-104.75,0-209.5Z"/>
    <path class="hairDarkBrown" d="M600,404.5a100.59,100.59,0,0,1,2.06,15c.44,8-2.43,15.33-3.55,23-1.57,10.79-3.34,21.57-1.08,32.51.42,2,.31,3.56-2.84,4.72-9,3.33-17.76,7.34-27.1,9.72-2.58.66-4.85,2.06-7.4,2.85-3.63,1.13-4.55.19-5.63-2.78-3.3-9.06-9.45-15.91-18.51-18.86-12.39-4-22,.77-29.47,11.32-7,9.83-8.5,20.54-8.44,32.52a60.22,60.22,0,0,0,5.66,25.91c3.22,6.83,9.08,12,14.78,17.11q7.65,6.84,15,14c2.49,2.43,3.81,5.6,2,8.94-6.93,12.79-13.74,25.68-26,34.53-5.16,3.75-4.95,3.6-10,0-10.51-7.35-18.5-17.18-26.92-26.6-2.6-2.91-5.81-5.14-8.11-8.41-5.54-7.88-12.34-14.82-17.42-23a81.64,81.64,0,0,1-5.84-12.06c-3.6-8.83-9.16-16.59-12.75-25.4-3.78-9.28-8-18.32-9.08-28.51-.54-4.89-1.19-9.65-.35-14.52Z"/>
    <path class="hat" d="M729.5,263.5c-1.28-8.25-6.67-14.4-11.07-20.95-7.74-11.51-16.06-22.63-23.9-34.07-8.87-13-20.13-23.13-34.57-29.39a36.79,36.79,0,0,0-19-2.51,86.8,86.8,0,0,0-19.55,4.82c-14.36,5.22-25.81,14.8-37.4,24.17A9.87,9.87,0,0,1,576.5,208c-10.07-.9-20.06.26-30,1.57s-18.89,5.18-28,8.85c-27,10.85-51.64,25.79-75,43-11.75,8.67-23.49,17.32-34,27.54-9.35,9.1-16.06,20.05-22,31.52-4.9,9.52-9.75,19-11.21,30-1.08,8.08-.66,16-.24,24,.89,17.29,5.2,33.89,11.44,50,2.48,6.4,5.3,12.68,8,19Z"/>
    <path class="band" d="M774,330.5c3.06-4.13,1.51-8.59-.66-11.9-6.74-10.28-14.27-20-21.31-30.12q-9-12.86-17.46-26A43.72,43.72,0,0,0,730,257c-22,5.34-41.8,15.21-62,23.9-13.81,5.92-27,13-40.42,19.68-12.52,6.29-24.73,13.21-37,19.93-16.7,9.12-33.41,18.2-50,27.54-8.34,4.7-16.29,10.07-24.55,14.92-9.59,5.63-19.51,10.71-28.93,16.6-15,9.39-30.57,17.92-44.6,28.86-5.68,4.42-12.25,7.69-17.88,12.16-7.7,6.13-16.6,10.49-24.07,16.91-.18.15-.31.37-.5.5-7.29,4.86-7.38,4.91-3.48,12.49,4.06,7.89,8.39,15.64,12.45,23.53,2.45,4.77,3.66,10.15,7,14.48Z"/>
    <path class="hat" d="M906.5,343.5c-2.35,9-10.4,11.27-17.56,13.82-7.52,2.68-15.31,4.71-23,7.06-9.18,2.83-18.65,4.7-28,7.14-14.36,3.76-28.64,7.77-43,11.43-8.27,2.1-16.58,4.27-25,5.41-10.43,1.4-20.48,4.53-31,5.79-12.91,1.54-25.63,4.72-38.54,6.2-12.32,1.4-24.67,2.58-37,4.18-8.27,1.08-16.4,3-24.57,4.62-10.37,2.06-20.71,4.29-30.9,7-10.79,2.85-21.58,5.73-32.06,9.78-18.9,7.3-37.3,15.77-56.05,23.4a337.44,337.44,0,0,0-31.33,14.35c-13.84,7.36-28.48,13-42.13,20.76-4.4,2.49-9.34,4-13.95,6.11-4.2,2-8.43,3.92-12,7.22.61,2.75.56,6.2,2.1,8.65,2.91,4.62.28,6.18-3.16,7.58-10.8,4.38-21.68,8.58-33,11.51-4.82,1.24-9.64,2.48-14.51,3.45a10.64,10.64,0,0,1-7.49-1.45c-3.32-1.92-4.05-4.68-2-8,4.95-7.92,12.17-13.67,19.6-18.86,8.09-5.65,16.22-11.29,24.82-16.28,11.89-6.91,24.32-12.69,36.59-18.84,14.92-7.47,29.7-15.37,45.07-21.82,12.46-5.23,24.6-11.2,37.26-16.09,11.29-4.37,22.08-10.44,33.16-15.6,8.79-4.09,17.68-8,26.48-12,6.37-2.93,12.53-6.37,19-8.9,10.74-4.18,21-9.34,31.6-13.79,14.59-6.15,28.53-13.7,43.32-19.43C692.52,352.81,705.2,346.74,718,341c14.32-6.45,28.67-12.82,43.54-17.88,3.22-1.09,6.33-2.34,9.49-3.55,8.41-3.24,16.82-1,25,1.08,10.3,2.64,20.26,6.62,30.56,9.25,9.47,2.41,19.2,3.64,29,4.74,13.16,1.47,26.38,0,39.51,1.42,4.81.51,9.09,2.29,11.5,7Z"/>
    <g class="hatFoldLine">
        <path d="M599.45,233.89c12.53,7.64,15.83,21.57,3.28,33.66-13.57,13.07-29.7,21.55-46.79,28.77-9,3.8-18.55,5.69-27.62,9.18-1.62.62-3.69.1-5.55.11"/>
        <path d="M627.5,207c-9.76-7-20.21-6.64-31-3-6.81,2.3-13.71,4.21-21,4"/>
    </g>
    <path class="shirt" d="M526.5,752c38.33.31,76.67-.61,115,.48,8.13.24,11,3.52,11,3.52,3.45-4.79,8.77-5.13,13.9-6.8a83.89,83.89,0,0,1,27.6-4.31c24.5.33,76.84.11,78.75.11v294H625.5Z"/>
    <path class="shirtBorderLine" d="M653,756c3.8,3.5,9.82,18.51,10.87,23,2.41,10.4,4.28,20.94,6.08,31.48,1.12,6.62,1.85,13.31,2.52,20,1.11,11,1.81,22,3.09,33,1.44,12.42,3.67,24.73,5.58,37.07,2.27,14.56,4.48,29.21,6,43.93.79,7.83,1,15.93,2.72,23.43,3.43,15.19,2,30.39,2.74,45.58"/>
    <g class="collar">
        <path d="M505.5,678c5.91,3.64,10,9.33,15.41,13.61,12.33,9.78,26.36,16.56,40.1,23.87,11.59,6.18,23.42,11.88,35.51,17,12.41,5.22,25,10,37.45,15.13,2,.84,4.24,1.84,5.73,4-12.06,5-17.2,16.25-22.34,26.55-4.5,9-8.6,18.39-12.62,27.71-4.68,10.83-8,22-11.63,33.14-2.43,7.36-5.81,14.52-6.11,22.47Z"/>
        <path d="M756,765.5c-2.5,8.33-4.42,16.9-7.63,25a257.2,257.2,0,0,1-19.77,39.61,9.07,9.07,0,0,1-3.1,3.44c-1.35.79-.5,0-.5,0-1.67-5.17-3.15-10.4-5-15.49a195.77,195.77,0,0,0-17.23-35.84c-5.82-9.31-11.24-19.24-19.75-26.65-6.14-5.34-16-8-16-8,.33-3.4,3.65-2.89,5.56-3.89,11.1-5.82,21.51-12.72,31.94-19.61,9.41-6.22,17.22-13.86,20.4-25,1.12-4,3.52-7.72,5.1-11.47Z"/>
    </g>
    <path class="suitInner" d="M1138,1292q26,28,52,56c6.73,7.27,13.34,14.66,20,22,3.66,4,7.14,8.2,11,12,6.9,6.66,17,6.82,25.53,2.16,14.89-8.19,24.42-21.23,34-34.53,7.38-10.2,12.44-21.2,16.67-33,2.44-6.81,4.72-13.48,5.67-20.61.11-.79.47-1.81-.46-2.49Z"/>
    <path class="cuff" d="M1195.5,1191c7.37.31,14.66,1.48,22,2.19,8.67.85,17.34,2,26,2.81l12.5,113.5c-.29,3.8-2.33,6.36-6,6.93a64.1,64.1,0,0,1-15,.75c-6.54-.52-13-1.39-19.5-2.11-8.61-1-17.26-1.91-25.42-4.77-3-1-7.45.63-9.07-3.8Z"/>
    <g class="suit">
        <path d="M1039,1118.5c-1.94-7.51-6.61-13.7-10-20.5s-8.73-13-10.06-21a127.67,127.67,0,0,0-3.52-16c-2.91-9.58-6-19.12-9.52-28.48-2.43-6.44-3.89-13.21-6.54-19.49-5.56-13.14-9.61-26.88-16.25-39.61a153,153,0,0,1-9.46-23c-1.54-4.72-1.59-9.94-2.14-15-1.59-14.38-3.72-28.72-8.17-42.45-5.09-15.73-9.38-31.66-14-47.5-4.9-16.75-8.75-33.74-13.48-50.51-1.73-6.14-2.21-12.51-4.32-18.55-4.76-13.7-14.3-23.5-25.54-32a113.33,113.33,0,0,0-29.52-15.92c-18.71-6.83-34.9-18-51.45-28.62-9.26-5.94-19.43-9.82-29.5-14a110.93,110.93,0,0,0-17-5.49c-5.52-1.33-7.67-.84-11,3.58-.61.81,41.45,517,41.45,517Z"/>
        <path d="M1137,1178.5c3,2.93,7,1.9,10.52,2.36,13.43,1.78,27,2.78,40.49,3.22,10.48.33,20.62,2.48,31,3.05,4,.22,8,1.87,12,2.87,0,0-21.14,18.25-26.08,34-2.15,6.84-5,13.4-6.56,20.5a125.93,125.93,0,0,0-2.65,17,206.37,206.37,0,0,0,.7,38.49c1.3,11.55,4.9,22.47,8.22,33.45,2.84,9.43,4.07,18.79,9.76,27.11,2.61,5.43,4.47,6.78,6.49,10A143,143,0,0,0,1235.5,1387c-7.77,2.42-14.26,1.79-21.44-.22-8.28-2.32-16.8-3.09-25.07-5.26-6.8-1.78-13.76-3-20.47-5.09-16.36-5.07-33.11-8-50-10.46-10.52-1.5-21.06-3-31.49-5-13.44-2.63-26.87-5.49-40-9.45-17.82-5.36-36.3-7.17-54.5-10.52-17.23-3.17-34.33-7-50.94-12.65-2.08-.7-4.32.2-6.07-1.31,0,0,4.9,28,7.75,41,2.16,9.84,2,19.73,3.19,29.56,2.21,18,3.7,36,6.16,54,2.38,17.34,3.71,34.85,7.39,52,2.21,10.33,4.62,20.62,6.4,31,.9,5.27,1.09,10.67,2,16a270.45,270.45,0,0,1,4.4,40.48c.34,14.59,1.87,29.33-4.12,43.58-3.37,8-9.45,13.05-15.78,17.8-13.82,10.39-29.86,16.48-45.84,22.8-12.58,5-25.77,7.45-38.66,11-8.51,2.32-17.55,3.47-26.39,5q-17.46,3-35,4.78c-8.12.86-16.28,2-24.51.17-5.06-1.16-7.5-2.62-8.43-7.59-2.61-14-6.49-27.69-7.07-42-.38-9.5-1.24-19-1.77-28.48-.5-9-1.09-18-2.14-27-1.58-13.44-1.08-27-1.07-40.49V1235.58Z"/>
        <path d="M717,1561.5c.08,7.77-2,15.28-2.7,23-.86,9.34-2,18.7-3.37,28-2.23,15.63-3.75,31.33-5.42,47-1,9.82-1.9,19.6-5.4,29-2.86,7.75-7.77,12.58-15.6,15-13.87,4.3-28.09,5.9-42.51,5.91-13.17,0-26.35,0-39.5-.56-11-.49-22-.23-33-2.16-10.42-1.82-21.13-2-31.48-4.67-1.19-.31-2.06-1.62-3.48-1.07l-.5-140Z"/>
    </g>
    <path class="lapel" d="M760,1033.5a51.17,51.17,0,0,0,2.38-18.49c-.76-13,.15-26,.13-39,0-22.34,0-44.68-1.43-67-.91-14.31-.91-28.68-1.62-43-.81-16.17-1.26-32.42-3.19-48.47-1.44-12-2.61-24.1-4.77-36-1.76-9.72-3-19.59-6.09-29-5.73-17.38-9.78-35.35-18.79-51.6-3.17-5.72,4.16-17.58,10.89-18.37,9-1.06,19.16-.94,27.94-2.82,6.61-1.41,10.23.32,13.45,5.32,7.47,11.6,15.49,22.79,23.52,34,7.76,10.83,14.4,22.41,21.17,33.9a184.36,184.36,0,0,1,13.23,26.88c-12.46,1.34-24.64,2.88-35.32,9.67,0,0,10.5,4.34,16,7.07,10.92,5.45,22.52,9.89,30.64,19.84a10.39,10.39,0,0,1,2.33,5.6,497.88,497.88,0,0,1,3,51.49c.3,19.18.16,38.39-1.59,57.49-1.23,13.38-2.46,26.8-5.23,40-2,9.36-2.67,19-4.16,28.46-.93,5.87-2.54,11.64-3.4,17.52-1.35,9.23-3.1,18.38-5.07,27.49-3.67,17-7.55,33.94-14.49,50Z"/>
    <path class="endPin" d="M96.5,1556.5c-11.72-1.7-23.39,9.12-22.13,21.51,1.4,13.61,11.61,23.44,25.13,23,6.38-.21,13-5.88,14.5-12.5Z"/>
    <path class="guitarTrim" d="M648.4,1033.35a170.44,170.44,0,0,1,17.07-9.92A130.94,130.94,0,0,1,704,1011.57a114,114,0,0,1,30.49-1.06c5.5.62,11.33.39,16.44,2.17,12.89,4.51,25.88,8.86,37.13,17.23,9.78,7.27,19.28,14.65,25.94,25.09,4.83,7.58,8.27,15.85,12,24,3.52,7.53,4.85,15.65,6.81,23.56,2.8,11.26,2.47,22.94,3.32,34.46.3,4.17.66,9,3.4,12.44,3.63,4.62,7.26,9.74,12,12.86,9.61,6.25,19.08,12.91,29.86,17.21l-68,148.5a7.88,7.88,0,0,0-4.44,3.54c-7.48,12.72-14.95,25.2-17.39,40.41-2,12.47-1.17,24.58,1.18,36.48,1.4,7,5.5,14,9.81,20,10,13.8,25,20.86,40.39,26.49,12,4.37,23.21,9.44,32,19.09,9.08,10,11.39,28.39,4.43,40-4.42,7.37-10.34,13.6-16.53,19.45a84,84,0,0,1-21.87,14.71c-11,5.26-22.47,9-34.09,12.28-7.38,2.1-15,3.53-22.49,5-9.64,2-19.26,4.16-29,5.41-11.76,1.51-23.65,2.08-35.48,3.13-12.85,1.13-25.45,3.94-36.92,9.66-16.66,8.31-31.6,19-44.26,33.17-12.44,13.88-24.19,28.36-37.11,41.86-9.68,10.12-18.46,21.25-27.93,31.6-11,12-21.88,24.36-34.66,34.84-13.52,11.09-26,23.43-40.13,33.85-18.79,13.87-37.53,27.86-59,37.45-7.86,3.51-15.88,6.69-24.48,8.07-10,1.6-19.92,3.45-30,4.57a74.07,74.07,0,0,1-31.4-2.9c-11.46-3.79-22.25-9.75-33.07-15.25-11.83-6-23.25-12.83-35.07-18.87-16.93-8.66-33.28-18.38-50.44-26.63-16-7.7-31.34-16.75-46.44-26.07-8.76-5.41-18-10.51-24.56-18.88-9.19-11.81-16-25.18-23.27-38.13-6.87-12.23-12.16-25.39-18.67-37.9-5.61-10.77-10.5-21.92-15.57-33-8.73-19-17.48-37.93-26-57-5.54-12.44-10.34-25.19-15.26-37.9C60.5,1482.91,56.17,1469,52,1455a233.16,233.16,0,0,1-7.56-37.49c-.87-6.83-1.73-13.62-2-20.51-.34-8.84-.07-17.67-.12-26.5a132.24,132.24,0,0,1,2.5-24.94c1.46-7.85,4.8-15.47,7.45-23.14,6.18-17.84,13.28-35.13,23.73-50.92L285,1070S647.7,1033.81,648.4,1033.35Z"/>
    <path class="guitarBody" d="M336,1186c9.29-2.83,18.94-3.49,28.51-3.86a267.31,267.31,0,0,1,34,.54c12.74,1.13,25.35.46,38-.14,7.65-.36,15.07-2,22.49-3.57,10.86-2.36,21.05-6.62,31-11.46,7.31-3.55,15.13-6.29,21.9-10.67,12-7.77,23.73-16.13,35-24.92,24.11-18.74,47.95-37.83,72.55-55.93,14.1-10.38,27.9-21.28,44-28.43,13.91-6.15,27.31-13.22,43.46-13.46,10.54-.15,21-.85,31.5.45,9.43,1.18,18.63,2.81,27.59,6.77,22.64,10,33.77,28.48,39.32,51.21,2.6,10.68,4.18,21.62,6.07,32.48.86,5,1.42,10,2,15a47.65,47.65,0,0,0,8.33,22.63c4.51,6.4,10.31,11.24,16.32,15.67,5.42,4,10.54,8.84,17.36,10.7l-73,150c-1.88,6.35-7,11.22-8,18-1.46,9.49-4.22,18.69-4.18,28.51,0,7.23-.26,14.49,1.37,21.47a83.37,83.37,0,0,0,9.23,24.1c6.44,10.79,13.63,21,24.22,27.77,9.4,6.05,20.19,9.43,30.9,12.65a47.34,47.34,0,0,1,20.43,12.08c8.09,8.23,6.72,21.23.08,30.44-7.06,9.79-17.61,14.64-28,19.4-13.19,6-27.27,9.61-41.49,11.89-11.43,1.84-22.89,3.7-34.45,4.9-11.84,1.23-23.78,1.89-35.5,3.92-14.9,2.58-29.92,5.73-43.41,12.6-15.16,7.73-29.69,16.85-42.09,28.8-18.14,17.45-34.84,36.26-50.92,55.56-13.77,16.54-28.08,32.57-42.69,48.33-5.6,6-12.53,10.8-18.34,16.66-7.92,8-16,15.75-25.1,22.39-13.21,9.68-26.37,19.59-41,26.89-15,7.46-29.73,15.65-46.4,19.27-6.16,1.34-12.42,1.93-18.53,3.39-4.79,1.15-9.55,2-14.5,1-11.79-2.5-23.16-5.9-34.08-11.34-14-7-28.47-13.06-41.93-21.16-22.26-13.39-45.26-25.46-68-38-9.69-5.31-18.57-11.85-28-17.45-6.65-3.95-12.52-8.74-18.52-13.51-8.39-6.65-13.3-15.73-18.31-24.66-6.78-12.08-12.93-24.53-19.07-37-7.23-14.65-13.47-29.78-20.74-44.38-7.81-15.71-14.59-31.87-22-47.72a302,302,0,0,1-14.52-36.45c-4.18-13.14-9.7-25.75-13.9-38.88A227.43,227.43,0,0,1,64.32,1403a313.82,313.82,0,0,1-.63-32c.26-6.33.75-12.76,2.66-19,2.06-6.76,2.79-13.79,5.47-20.53,5.42-13.6,11.34-26.85,19.73-38.89a15.61,15.61,0,0,0,1.45-3Z"/>
    <path class="fretboard" d="M1411,985.5l-1-35.5c-9.63,5.19-20,8.71-30,13-13.13,5.58-26.32,11-39.49,16.52q-22.24,9.27-44.5,18.49c-13,5.37-26,10.59-39,16-14.87,6.24-29.66,12.69-44.52,19-12.8,5.4-25.57,10.91-38.51,16-21.46,8.36-42.58,17.56-63.9,26.25C1091,1083,1072,1091.08,1053,1099q-37.44,15.65-74.93,31.15Q949.52,1142,921,1154c-18.62,7.8-37.34,15.36-55.91,23.22s-37.48,15.65-56.13,23.7c-23.33,10.06-47,19.42-70.46,29.09-5.57,2.3-5.83,4-3.57,10,7.22,19.18,15.63,37.88,23.28,56.89,5.88,14.6,12.07,29.1,18.32,43.57,3.09,7.15,4.77,7.39,12,4.06,22.61-10.46,45.33-20.67,68-31.07,14.71-6.75,29.31-13.73,44-20.46,21.63-9.91,43.35-19.63,65-29.54,14.71-6.73,29.31-13.73,44-20.46,21.63-9.91,43.35-19.63,65-29.54,14.71-6.73,29.31-13.73,44-20.46,21.63-9.91,43.35-19.63,65-29.54,14.71-6.73,29.31-13.73,44-20.46,21.63-9.91,43.35-19.63,65-29.54,14.71-6.73,29.31-13.73,44-20.46,21.63-9.91,43.37-19.59,65-29.61,3.18-1.47,6.79-2.4,9.54-4.72Z"/>
    <path class="bridge" d="M336,1313.5c3.67,8.17,7.54,16.25,11,24.52,8.9,21.52,19.16,42.44,28.2,63.91,4.68,11.12,10,22,14.89,33,8,18,16.19,35.91,24.15,53.93,5.17,11.73,10.51,23.4,15.8,35.09,7.81,17.27,15.83,34.44,23.17,51.93a134.47,134.47,0,0,0,7.38,15.54c1.91,3.3.72,6-2.1,6.89-8.85,3-17.37,7.41-26.95,7.58a31.59,31.59,0,0,1-21.43-8c-8.62-7.44-15-16.83-21.14-26.36-6.91-10.67-13.69-21.24-24.22-29.33-9.34-7.18-17.42-16.26-25-25.35-7.29-8.68-14.17-17.9-19.55-27.93-6.39-11.93-11.95-24.47-15.34-37.51-3.58-13.76-5.58-28.11-4.09-42.41.89-8.5,3-16.89,2.3-25.52s-.69-17.19-5-25Z"/>
    <g class="skinAshkenazi">
        <path d="M1267.5,1057.5c.83-2.77-.64-5.07-1.5-7.5-2.85-8.09-5.4-16.13-4.08-25,1.49-10,14.78-18.3,24.57-10a45.54,45.54,0,0,1,5,4.51,238.51,238.51,0,0,1,33,48c5.86,11.45,9.29,23.77,13,36,1.19,3.87,1.25,8.16,4,11.51a9.16,9.16,0,0,0,2.3-5.49c.65-13.47.42-26.82-2.38-40-2.1-9.92-4.62-19.78-7.5-29.5-3-10-6.38-19.94-11.84-29.07a31.46,31.46,0,0,1-2.62-28.47c3.66-9.75,12.67-12.74,21.07-7,8.8,6,13.39,15,18,24,5.93,11.79,12.3,23.4,17.33,35.57a210.44,210.44,0,0,1,10,32,336.11,336.11,0,0,1,7.38,40.49c.84,7.68,1.66,15.55,1.08,23.49-.29,4,.41,8.32.15,12.48a181.22,181.22,0,0,1-6.32,39c-4.28,14.85-10.68,28.78-16.44,43a154.06,154.06,0,0,1-30.59,47.52c-6.49,7-12.8,14-21.09,18.91a127.63,127.63,0,0,1-42,15.92c-8.59,1.6-17.12,3.68-26,3.76a6.73,6.73,0,0,1-5-1.67c-17.67-14.82-27.08-34.06-31.12-56.5-1.52-8.48-.88-16.9.53-25a29.22,29.22,0,0,1,10.56-17.13c1.16-.93,1.74-2.59,3.13-4.77-2.31-7.2-5.29-16.16-8.06-25.18a154.36,154.36,0,0,1-6.65-38c-.3-6.32.34-13,.62-19.48.22-5.16-.46-10.52.68-15.46,2.31-10.07,4.5-20.48,16.28-24.68,3-1.06,1.42-4.38,1.08-6.86-.94-6.88-1.67-13.59.82-20.56,3.17-8.9,16.11-11,22.6-6.87A68.85,68.85,0,0,1,1267.5,1057.5Z"/>
        <path d="M395.5,1318c9.44,3,19.15,5.09,28.53,8.42,12.46,4.42,21.12,12.75,27.51,24.06a151.73,151.73,0,0,0,35.55,42.41c3.54,2.93,8.52,4,12.34,6.71a44.64,44.64,0,0,1,13,15c6.58,11.68,16.94,16.65,29.6,17.91,9.81,1,21.27-8.62,22.9-17.49a11.75,11.75,0,0,1,2.1-4c11.31,8.77,16.65,8,28,3,7.76-3.43,12.83-9.22,15.69-17.41A22.61,22.61,0,0,0,612,1390c2.23,0,4,.93,6.07,1.84,6.87,3.07,14.46,5,21.32,1a32.81,32.81,0,0,0,13.22-15.26c2.77-6.23,1.66-12.32.89-18.55,0,0,7.93-.22,13.45-5.06a26,26,0,0,0,5.65-32.49c-4.18-7.65-10.66-13-17.08-18.89,5.35-3.65,11.5-4.58,16.52-8,9.63-6.56,17.74-14.07,20.56-26,.79-3.34.14-5.92-2.14-8-5.59-5-11.5-7.67-19.51-4.68-13.73,5.11-27.49,3-41-1.86-11.41-4.12-20.84-11.47-30.53-18.46-14.4-10.39-30.13-18.14-48-19.86-9.92-1-20.12-1.22-30,1.36-13.79,3.62-27.65,2.45-41.51.93-15.05-1.64-40-6-49.5-10Z"/>
    </g>
    <g class="skinOverlapLine">
        <path d="M1235,1082.5c2,9.5,3.63,11.7,5.19,18.45s2.64,13.58,5,20c3.79,10.46,6.27,21.34,10.69,31.62,2,4.66,3.46,9.13,5.16,13.93"/>
        <path d="M1268,1058c6,9,9.36,19.41,11.24,23.13a190.24,190.24,0,0,1,17.26,53.37c.52,3,1,6,1.5,9"/>
        <path d="M603.5,1317c8,6.83,17,12.61,25,19.52,5.26,4.57,11.37,9.29,16.51,14,1.86,1.71,6.72,5.46,7.51,8"/>
        <path d="M535.5,574c3.5,6,5.5,8,6.89,10.56.61.44,5,5.76,10.74,8.69A26.94,26.94,0,0,0,571.5,596"/>
        <path d="M578.5,1354c5.67,5.83,12.13,12.88,18.06,18.44,5.47,5.12,11,12,15.94,17.56"/>
        <path d="M1230.5,1208c2.5,7,2.38,8,3.9,12,3,8.07,7.15,15.61,10.6,23.46"/>
        <path d="M623,1279.5c5,3.5,5.11,3.63,7.54,5.45,8.23,6.13,16.63,12,24.94,18.08"/>
        <path d="M543.5,1382c4.5,5,5.69,8,10.41,12.11,3.16,2.77,5.33,6.64,8.12,9.86,1.7,2,3,4,5,6.53"/>
        <path d="M1342,1115a77.46,77.46,0,0,0,1,13.5"/>
    </g>
    <path class="cuff" d="M333.5,1321a161.61,161.61,0,0,0,45.5,15c4.65.77,9.21,1.83,14,2.09,6.28.34,7.26.18,8.46-6.13,1.38-7.29,2.21-14.69,3.59-22,2.26-12,5.13-23.78,8.38-35.53,5.65-20.36,11.44-40.64,20.08-60,.36-.82.69-1.66,1-2.5,1.72-4.85.94-6.61-4-8a472.84,472.84,0,0,0-52-11c-2.93-.45-6-.06-9-.06Z"/>
    <path class="suit" d="M458,676.5c-6.33,4.42-13.87,5.77-21,7.92-16.91,5.07-34,9.64-50.55,15.88-9.54,3.58-19.24,6.92-28.88,10.31s-18.35,8.32-27.43,12.63c-10.88,5.17-22.38,8.82-33.11,14.26-17.67,9-34.91,18.7-50.4,31.13-4,3.24-6.53,8.21-8.11,13.37a49.22,49.22,0,0,0-2.1,21c1.16,9.1-2.69,16.94-7.34,24.52-7.22,11.73-17.4,21-26.09,31.43-16,19.3-32.9,37.91-48.25,57.71-10.17,13.12-16.69,28.42-20.92,44.78-3.09,11.94-5.69,24.31-12.34,35-10.36,16.69-19.69,34-31.89,49.58-9.11,11.6-17.87,23.53-25,36.49-5.85,10.64-11,21.66-16.58,32.45-7.76,15-15.33,30.17-22.58,45.47-2.48,5.21-3.54,10.87-6,16-3.76,8-5.41,16.53-6.8,25-1.23,7.57,1.35,15,4,21.94a90.72,90.72,0,0,0,20.83,32.1,224.52,224.52,0,0,0,44,35c10.13,6.12,20.8,11.08,31.53,16a53.93,53.93,0,0,1,6,3c11.27,7,24.2,10.24,36,16,10.74,5.24,22.33,8.08,33.39,12.29s22.72,5.94,33.58,10.29c13.38,5.36,27.24,9.06,41.08,12.75,14.44,3.86,28.77,8.19,43.43,11.31,6.43,1.37,12.54,4.36,19,5.82,8.1,1.81,12.11-.63,12.18-10.48.06-8.4,1.65-16.6,1.59-25A110.18,110.18,0,0,1,341.4,1319c2.09-9.94,3.31-20,5.47-30,1.81-8.29,3.81-16.56,5.4-24.92.62-3.27,2.37-6.73,3.7-10.06,2.11-5.29,3.69-10.82,6.1-16,5.69-12.15,10.16-25,20.34-34.63,4.56-4.32,10.45-5.35,15.65-8,.69-.36-.56-.37-.56-.37-1.78-3.08-4.91-4.08-8-5-10-2.89-20.17-5.18-29.95-8.64-14.23-5-28.39-10.32-42.13-16.68a20,20,0,0,1-5.91-4.2,29.58,29.58,0,0,1,5.5-1.45c18.36-1.32,36.68-.22,55,.9,12.82.78,25.67,1.58,38.5,1.39a208.34,208.34,0,0,0,35-3.68c11.31-2.09,22.07-5.78,33-9.12,20.76-6.36,37.73-19.6,55.28-31.36a526.67,526.67,0,0,0,44.49-33.35c6.05-5.07,8.33-10.52,9.72-17.33Z"/>
    <g class="suitFoldLine">
        <path d="M217,1077c11.63,2.45,22.75,5.81,32.08,13.89,9.66,8.37,11.44,29.53,6.51,40.61"/>
        <path d="M914,896.5a116.54,116.54,0,0,1-15,35"/>
        <path d="M392,990c-6,11-18.63,25.3-31,29.47a20,20,0,0,1-3.49.53"/>
    </g>
    <g class="suitOverlapLine">
        <path d="M898,812.5c-.83,7.33-1.6,14.68-2.52,22-1.5,12-2.59,24-3.63,36-.45,5.32-1.65,22.68-1.65,26,0,10.53-1.18,21-.88,31.49a156.12,156.12,0,0,0,1.12,18.52c1.39,9.3,2.59,18.64,3.5,28,.78,7.94,2.91,15.64,4.33,23.44,1.89,10.36,4.48,20.64,6.15,31.06,1.89,11.8,4.25,23.52,5.17,35.48.79,10.17,1.87,20.31,2.58,30.5.36,5.17.74,10.32.84,15.51.3,15.67,1.27,30.33,0,46"/>
        <path d="M360,958.5a28.88,28.88,0,0,1,2.16,12c.08,10.29-2.73,19.82-6.77,29-4.52,10.21-9,20.62-15.14,29.89s-12.3,18.24-18.73,27.17c-9.08,12.61-18.31,25.13-26.86,38.09-3,4.52-4.76,10.09-6,15.43-2.82,11.76-9.65,20.9-17.62,29.47"/>
        <path d="M927,1280.5c4.53,17,8.67,45.17,9,46"/>
        <path d="M311.5,1161c-4.77-.74-8.48-3.76-12.46-6.06-15.2-8.8-30.3-17.88-47.08-23.3a128.2,128.2,0,0,0-32-5.65c-13.56-.8-26.88,1.23-40,4.17a148.93,148.93,0,0,0-39.44,15.52c-2.53,1.41-3.6,1.32-7.6,4.82"/>
    </g>
    <path class="lapel" d="M492.47,805.15c-7.7-1.59-15.38-.19-23,1.37-7,1.43-13.93,3-21.39,4.63-.06-6.34-1.42-11.88-1.79-17.64-.86-13.34-.81-26.66-.93-40-.07-8.16-.43-16.35-.69-24.49a198.87,198.87,0,0,1,3.42-46,14.77,14.77,0,0,1,4.74-8.17c4.56-4.16,9.34-8,14.19-11.79,8.67-6.71,17.55-13.16,26.48-19.51,3.5-2.49,9.82-2.74,12.47-1l-2,5c-.74,6.37,1.4,12.12,3.41,18A223.14,223.14,0,0,0,523,701c5.61,10.28,11.22,20.55,16.47,31,6.55,13.05,12.81,26.26,19,39.49,4.5,9.58,9.2,19.13,12.89,29,3.5,9.41,7,18.78,11,28,3.67,8.44,6.38,17.31,9.63,25.94,3.08,8.2,6.36,16.33,9.47,24.51,3.69,9.73,8.56,19,11.53,29,3.73,12.61,7,25.34,10.63,38C627,957.81,631,969.53,634,981.49c2.47,9.55,5.53,19,7.89,28.53,1.92,7.81,5.44,15.25,5.57,23.2-23.25,11.3-42.15,28.46-62.38,44.62-3.31-7.42-7.5-14.22-11.33-21.23-10.91-20-22.88-39.39-34.26-59.13-7.09-12.31-14.66-24.4-22.39-36.24-7.55-11.56-15-23.26-22.4-34.89C481.85,906.1,468.81,886,455.44,866a104.39,104.39,0,0,1-7.9-15.06c-1-2.12-1.25-4.56.49-6.45,3.67-4,6.72-8.47,10.89-12.13A276.76,276.76,0,0,1,492,807S494.51,805.58,492.47,805.15Z"/>
</svg>
