<svg viewBox="0 0 1413 1881">
    <rect class="frame" x="3.5" y="0.5" width="1409" height="1879"/>
    <path class="mountain" d="M1278,1263c-4.82,2.13-8.38-.89-12-3.13a31.92,31.92,0,0,0-4.57-2.88c-15-6.21-29.2-14.28-44.39-20.26-13.8-5.44-27.58-11.07-41.19-17-10.37-4.56-21.57-7.23-32.41-10.7a44.47,44.47,0,0,1-5.5-2.51c-9,2.78-18.41,4.52-26.57,9.89a44.3,44.3,0,0,1-12,5c-7.21,2.08-12.85,7.09-19.54,9.93-7.66,3.25-14,8.47-21,12.59-6.17,3.62-12.65,6.7-19,10.07-2.17,1.16-4.37.13-5.94-.64-8-3.92-16.73-6-25.15-8-13.92-3.26-27.66-7.49-41.9-9.5-4.83-.69-9.88-.83-14.55-2.79-1-.42-20.47,6.67-29.05,9.71-9.27,3.29-18.28,7.18-27.38,10.84-11.68,4.71-48.54,20-55.51,16.33-17.06-8.92-447.68,49.19-448.5,46.55-4.45-14.3-11.7-27.18-20.1-39.44-1.36-2-3.6-3.38-5.53-5.14-5.17,1-8.71,4.78-12.36,8.13-8.69,8-15.52,17.56-22.48,27-.62.84.44-1,.44-1-5.42-5-5.34-12.36-7.8-18.58a211.29,211.29,0,0,0-11.79-24.37c-4.08-7.34-7.7-8.25-14.85-3.46-10.14,6.8-19.75,14.35-27.56,23.91-2.85,3.49-6.2,6.71-8.33,10.59-1.76,3.22-6.92,2.91-6.92,2.91-1.75-6.67-3.19-13.44-5.33-20a165.56,165.56,0,0,0-9.26-23.11c-4.44-8.84-12.93-8.26-19.66-3.93-8.38,5.4-22.5,18.51-22.5,18.51-1.67-6.33-3.32-12.67-5-19A165,165,0,0,0,171.57,1202c-1.84-2.83-3.41-5.89-6.13-7.87-2-1.49-4.15-2.51-7-.18a375.65,375.65,0,0,0-28,25.49c-6.4,6.32-17.9,18.61-17.9,18.61-2.71-2.15-2.24-5.23-1.94-8,1.22-11.45-1.15-22.46-3.52-33.52-3.2-14.87-8.55-28.8-17-41.53-1.48-2.23-3-5.55-5.08-5.66A17.07,17.07,0,0,0,74.49,1152c-9.17,6.23-15.49,9-25.66,21.83C34,1193,36,1204,40.58,1171.5A283.93,283.93,0,0,0,37.44,1143c-1-6.51-3.38-12.36-5.24-18.57-5.62-18.79-13.55-36.2-26.72-50.92-.33-.37-.66-.75-1-1.13L1,1074.88v800.7l3.5,2.92h1403l.33,1h.67V1263q-64.24,0-128.5,0A5.5,5.5,0,0,0,1278,1263Z"/>
    <path class="steppe" d="M1388.49,1130.48c-8.82,2.56-18,3.54-27,4.94a178.8,178.8,0,0,0-25.94,6.23,23.23,23.23,0,0,1-3.55.86c-3.94.57-7,2.29-8,6.49-.91,3.79-2.07,7.52-2,11.5.08,7.5.15,15,0,22.5-.1,3.83-1.21,7.58-1,11.5.11,2.61-2.3,3.31-4.41,3.46-14.55,1.06-28.68,4.64-43,7.11-7.24,1.25-14.34,3.28-21.51,4.93-9.69,2.23-11.89,4.81-12,14.5-.07,7.25,0,14.5,0,21.83-5.83.87-11.9,2.35-18,2.52-7.51.22-14.58,2.58-22,3.3-10,1-19.73,3.95-29.53,6.25-3.62.85-5.61,3.43-5.77,6.11-.39,6.31-2.37,12.57-.79,19,.59,2.37.21,4.37-3.41,4.57-19.74,1.1-39.15,4.59-58.53,8.33-7.35,1.41-14.66,3.13-22,4.36-4.84.8-6.35,3.55-6.86,7.23a157,157,0,0,0-1.54,19c-.32,22.5-.39,45-.56,67.5l337.5-2.88q1.27-4.44,2.5-8.91V1132.34q-1.21-2.89-2.5-5.75A134.19,134.19,0,0,0,1388.49,1130.48Z"/>
    <path class="land" d="M1401,1295a137.66,137.66,0,0,0-32.53-10.91c-9.17-1.83-17.2,2.07-24.35,7.11-3.15,2.22-6.56,4-9.67,6.26-9.06,6.64-18.37,13-27.43,19.59-4.2,3.08-8.21,3.74-13.07,1.54-5.17-2.35-10.48-4.89-16-5.89-8-1.43-15.67-3.71-23.49-5.59a16.48,16.48,0,0,0-3-.1c-3.17-.83-6.29-1.93-9.51-2.44-5.7-.9-11.15-.91-16.55,2.33-9.78,5.88-20.29,10.58-29.84,16.77-8.51,5.52-16.47,11.94-25.12,17.31a19.39,19.39,0,0,1-17,2.07c-8.62-2.82-17.28-5.54-26-8-10.12-2.85-20.28-5.57-30.5-8-8.76-2.06-17,.45-25,4-5.54,2.43-10.92,5.23-16.54,7.41-4.43,1.73-7,5.89-11.44,7.66-7.16,2.87-13.27,7.86-20.13,11.22s-13.72,7.75-21.89,6.62a127.41,127.41,0,0,1-15.5-3.46c-10-2.69-20.18-4.35-30.5-3.83-6.77.34-13.18,3-19.49,5.42-11.3,4.33-22.54,8.81-33.56,13.87-3.07,1.4-530.19,15.4-540.44,14.39-9.7-1-19.37-.22-29-.89-9-.63-18-2-27-2.9-7.16-.75-14.34-1.28-21.5-2-15.34-1.61-30.69-3.15-46-5-11.2-1.38-22.4-3-33.48-5.12-3.65-.71-7.19-2.25-11-3-6.83-1.33-13.79-1.67-20.6-3.59-6.37-1.79-12.67-4.11-19.41-4.89a153.37,153.37,0,0,1-22-4.44c-7.93-2.12-15.83-4.45-23.6-7.18a37.32,37.32,0,0,0-5.42-.73c-7.5-2.5-15.16-4.61-22.47-7.58-14.94-6.06-30-12.05-44.45-19.08-11-5.32-34.41-16-35.58-15.19V1879.5H1411V1301.8l-2.5-3.59Q1404.71,1296.74,1401,1295Z"/>
    <g class="skinAshkenazi">
        <path d="M1244.5,976c-12.47-5.15-22.77-14.34-36.3-18.64,6.4-9.09,12.15-17.63,19.7-25,7.17-7,12.79-15.12,12.62-25.9-.07-4.79-1.81-8.68-6-10.94s-7.79-.8-11.55,1.83-6.45,6.23-9.44,9.59a62.31,62.31,0,0,1-31,18.87c-21.82,5.74-33.37,22.06-43.38,40.2-1.71,3.1,20.42,41.12,29.92,57Z"/>
        <path d="M736,639c-4.25-8.85-7.06-18.12-6.92-28,.08-5.72.39-11.83,6.95-14.42,2.79-1.1,80-87,80-89.58q0-61.24,0-122.5L744.5,290h-169c-5.49,0-4.76,279.19-3.43,280.43,9.47,8.81,8.08,21.79,3.07,33.13C570.54,614,563.29,622.11,555.5,630L667,714Z"/>
        <path d="M915,804c3.67,8.83,24.73,52.21,28.54,61,2.28,5.26,5,10.33,7.45,15.53,2.89,6.13,6.17,11,13.39,13.8,13.24,5.18,25.42,12.8,37.62,20.19,22,13.3,45.31,23.56,69.51,32,9.11,3.17,18.31,6.07,27.5,9,1.41.45-12.51,67-12.51,67-8.67-1.17-17.32-2.47-26-3.47-13.48-1.55-26.85-3.46-40-6.91-13.76-3.6-28-5.25-41.51-10-11.82-4.16-24-7.42-36-11.11-4.18-1.28-8.28-2.86-12.51-4a106.39,106.39,0,0,1-31-14c-9.4-6-15.89-14.71-21.39-24.07-6.08-10.35-12.42-20.55-17.75-31.37-4.93-10-11.43-19.28-16.77-29.12S832,868.93,828.5,858Z"/>
        <path d="M546,1525.5c-.68,7.19-2.53,14.21-2.58,21.5a115.57,115.57,0,0,1-1.68,18c-1.08,6.53.5,13.2-1.7,19.55-.26.75.63,24.15.46,35L454,1655a3.94,3.94,0,0,0-.5-.5c-18-12-55.65-48.59-55.6-53.5.23-21.17-.32-42.35.35-63.49.21-6.45.65-13,1.13-19.52.94-12.82,2.78-25.59,2.62-38.49Z"/>
        <path d="M1231,1085.5c7.21,2.94,14.37,5.6,22.52,4.65,3.92-.45,7.5-2.12,11.48-2.21a51,51,0,0,0,20.37-5.21c9-4.19,17.1-10,27.63-9.25a54.22,54.22,0,0,0,6.5,0c8.93-.43,16.88-2.8,22-11,2.71-4.3-.18-13.9-5-16l3,1c3.9-1.51,7.74-3.08,12-3.56,5.14-.57,10.75-6.92,11.51-11.94,1-7-3.07-12.67-11.5-16-7.13-2.83-6.13-2.75-3.77-7.88,3.37-7.32-.75-16.82-9.72-19.17-6.09-1.59-12.37-1.77-18.51-3-6.84-1.31-13.75.71-20.48-.13-12.48-1.54-25.08-1.16-37.52-2.86Z"/>
        <path d="M755,1505.5c-1,12.26,2.15,24.27,2.08,36.5-.06,11.16,1.51,22.4.66,33.48-.87,11.37-.28,22.69-.74,34l83,28.5c16.5-11.83,51-36.61,51.07-38a350.08,350.08,0,0,0-.6-51q-1.53-17-3.52-34c-.78-6.66-1.32-13.39-3.7-19.76Z"/>
        <path d="M289.5,1221c2.8.45,4.08-.93,5.06-3.48,4.44-11.54,3.74-23.1,1.67-35.06-1.22-7-1.64-14.16,1.52-21.56,6.17-14.44,15-27,24.24-39.41s20.89-23.33,27.75-37.88c3.85-8.16,8.09-16.15,11.23-24.62,5.51-14.86,10.5-29.85,13.64-45.47,2.27-11.27,9.29-20.67,14.1-30.92,6.35-13.55,13.85-26.57,20.68-39.9,6-11.63,11.67-23.5,18.25-34.91,9.05-15.68,18.18-31.37,27-47.19,4.83-8.63,9.24-17.77,16.83-24.6v-1.5c0,.33,0,.67,0,1a1.1,1.1,0,0,0,.48,0c7.34-3,14.29-7.11,22.5-7.49L526,742l-39.5-53.5c-5.29-7.16-10.57-14.33-15.59-21.14-6.55,2.87-12.43,4.94-18,7.92-9.2,4.91-16.58,11.36-23.58,19-8.4,9.22-16.89,18.33-23.7,28.74-8,12.18-15.63,24.6-20.62,38.43-4.66,12.9-9.29,25.8-14.35,38.56-3.52,8.85-6,18.12-9.64,26.94-2.1,5-4.36,10-6.48,15-7.85,18.5-15.26,37.19-23.69,55.41-3.95,8.52-7.76,17.12-11.68,25.66-5.91,12.88-10.57,26.3-17,39-4.86,9.58-10,19-15.23,28.37A189.81,189.81,0,0,0,272.5,1022c-3.57,10.48-7.94,20.65-10.6,31.48-3.95,16.09-8.43,32.06-12.94,48-3.53,12.44-8.19,24.49-12.92,36.53-6.06,15.41-16.55,26.93-29.38,37.17A307.25,307.25,0,0,0,175.48,1204c-5.95,6.28-6.12,14.19-6.43,22-.24,5.83-.17,11.67,0,17.5.29,11.79,1.95,23.45,6.18,34.42a52.51,52.51,0,0,0,9.8,15.58Z"/>
        <rect x="769.67" y="661.03" width="97.83" height="166" transform="translate(-269.75 546.07) rotate(-31.96)"/>
    </g>
    <g class="skinOverlapLine">
        <path d="M625.5,552c7.1,11.75,17.26,20.28,29,26.94,5.9,3.33,11.31,7.48,17.94,9.66C685,592.73,697.59,596.44,711,596c6.3-.2,12.3-2.24,18.5-3"/>
        <path d="M1297.5,1075c5-9.07,3.87-15.61-4.06-19.89-4.67-2.52-10.18-1.77-14.88,0-6.5,2.49-12.75,5.68-19.57,7.32-3.46.83-7,1.36-10.49,2a2.08,2.08,0,0,0-.5.24l.25.25"/>
        <path d="M1255,1038.5c7.55,3,15.49,3.67,23.48,4.66a282.86,282.86,0,0,0,35,1.84H1330c2.53,0,5.16-.41,7,2"/>
        <path d="M1261.5,1009.5c5.48-1.07,10.78.77,16,1.73a137.39,137.39,0,0,0,29.54,1.89c6.15-.19,12.28,1.31,18.5.91,4.51-.29,9,.2,13.53-.89,2-.46,4.54-1,6.47.86"/>
        <path d="M584.5,501c2.5,2,7.33,2.29,11,0"/>
    </g>
    <path class="hairRed" d="M662.5,311.5c.54,5.72,4.7,9.76,7.74,13.82,9,12.07,20.33,22,32.66,30.82,5.33,3.81,9.67,9,15.06,12.91,11.91,8.69,24.84,15.57,38.07,21.89,10.21,4.88,21.12,7.94,32,11,3.83,1.09,7.48,2.35,10.5,5-1.17,4.5-2.76,14.58-3,16-2.57,13.22.86,26,2.29,39,1,8.87,1.16,18-.75,27a230,230,0,0,1-16.2,48.92c-4.18,9-9.14,17.82-16.27,25.13-3.3,3.38-5.75,7.6-9.13,10.87-3.82,3.69-8.33,6.66-12.4,10.1-4.34,3.68-9.61,5.93-14.56,9.54A28,28,0,0,0,743,599.87a115.35,115.35,0,0,0,38.56-1.51c8.35-1.83,16.58-3.69,24.38-7,11.55-4.81,23-9.95,32.53-18.42,2.56-2.27,5.61-3.92,7.57-7,1.74-2.68,2-4.59-.49-7.11-5.25-5.22-9.31-11.13-10.17-18.92a30.65,30.65,0,0,1,1.79-14.44c4-10.32,8.39-20.52,11.78-31.08s2.49-21.69,1.83-32.48c-1.1-18-8.41-34.54-13.82-51.5-3.24-10.14-5.05-20.58-7-31-2.22-11.94-2.58-24.15-5.42-36a88.24,88.24,0,0,0-5.12-15.71,161.66,161.66,0,0,0-20-32.73c-5.26-6.78-9.76-14.07-15.36-20.62a111.4,111.4,0,0,0-38.54-29Q732,239.13,718,234.13c-4.89-1.75-10.26-2.29-15.45-3.1-17.6-2.75-35.3-2.41-53-1.49-4,.21-8,1-12,1.46,0,0-22.16,3.22-32,6-5.88,1.68-11.66,3.7-17.51,5.46-8.3,2.48-15.75,6.82-23.51,10.48-9.91,4.68-18.26,11.19-26.19,18.82a201.36,201.36,0,0,0-19.17,21.81c-6.08,7.81-9.95,17.07-13,26.43-5.12,15.55-9.32,31.38-17,46-3.48,6.63-7.1,13.12-10.89,19.57a81.28,81.28,0,0,0-7.05,15.92c-3.25,10-8.42,19.31-10.4,29.91-1.62,8.66-3.42,17.21-3.8,26A110.13,110.13,0,0,0,462.38,498c2.61,7.7,6.73,14.76,9,22.49,2.88,9.75,2.5,19.35-3.89,28-2.7,3.64-8.52,5.55-12.51,4-7.29-2.84-9.07-1.4-8,6.5a5.8,5.8,0,0,0,.49,3.51c3.07,5.14,7.56,8.66,12.43,12.1,10.62,7.52,21.35,14.23,34.54,16.59,6.17,1.1,12.34,2,18.52,2.95a164.28,164.28,0,0,0,29,1.61c8.86-.2,17.78-2,26.47-3.92,5.73-1.27,11-3.37,12.8-10.78A139.85,139.85,0,0,0,584.92,558a70.64,70.64,0,0,0-.8-16c-.77-4.85-.75-9.85-3.91-14-1-1.28-.63-2.19-.28-3.55a142.41,142.41,0,0,0,3.87-29,288.4,288.4,0,0,0-2.24-48.5c-1.07-8.78-3.31-17.56-1.06-26.49,3.34-1.7,5.38.81,7.47,2.54,5.74,4.75,9.65,11,12.93,17.51,1.54,3.08,3,5.73,6.6,6.45a14.92,14.92,0,0,0,4-7.5c2.17-8.49,5-16.61,9.89-24.08A60.94,60.94,0,0,0,630.23,394c2.93-15.05,1.34-30.33-.75-45.45-.7-5-1.65-10-2.48-15Z"/>
    <g class="hairOverlapLine">
        <path d="M783,309.5c12.37,6,21.22,18.49,25.48,31a104.71,104.71,0,0,1,5.4,40.48c-.44,7.18-1.8,16.35-4.89,23-2.37,5.11-4.6,5.64-9.49,4"/>
        <path d="M579,527.5a48.5,48.5,0,0,1-19.15,24.77,41,41,0,0,1-17.32,7.91c-2.31.42-5.59,1.32-8,1.32"/>
    </g>
    <path class="maraHeadband" d="M766.39,290.15c-6.75-5.34-13.42-10.82-21.28-14.86A76.15,76.15,0,0,0,716,267a124.39,124.39,0,0,0-46.42,5.25c-17.32,5.29-33.93,12.54-46.73,26.58-5.84,6.39-11.34,13-16.74,19.73C603.46,321.9,596,339,596,339a91.41,91.41,0,0,0-10,30.5c-1.54,10.16-3.24,20.31-4.42,30.51-.67,5.78-.38,13.16-.59,19,0,1.34,3.18,1.37,4-1,1.1-3.18,3.62-8.19,4.57-11.48,3.56-12.4,10.7-23.24,16.85-34.29A106.29,106.29,0,0,1,625.51,348c10.12-9.78,20.84-18.82,33-26,8-4.71,16.19-9.09,25-11.94,16.71-5.39,33.73-8.41,51.49-7.76a171,171,0,0,1,35,4.6c3.75.93,7.35,3.12,11.48,2.09C781.5,309,773.84,296,766.39,290.15Z"/>
    <g class="boot">
        <path d="M900.39,1559.58c-2.7-3.72-4.22-8.33-9.89-8.58l.5,5.5c-.1,6.1.48,12.16-2.33,18.08-1.41,3-3.14,6.13-5.32,7.71-7.92,5.72-13.7,14.12-22.86,18.2-7.18,3.2-13.56,8.46-22,8.59a4.07,4.07,0,0,0-2,.92c-4.6-1.12-9.36-.84-14-1.88-7.44-1.67-14.66-4.06-22-6-13.62-3.55-26.8-8-38.94-15.18-5.66-3.34-6.66-6.39-5.58-13,.38-2.32,1.91-5-.94-7,0,0-5.34,1.86-7.59,3.9-5.32,4.81-8.17,10.28-8,17.6.09,4.66-1.17,9.32-1.34,14-.5,13.6,1.81,27,2.78,40.51.72,10,2,19.94,2.38,30,.42,10.87,2.23,21.72,3.43,32.55.8,7.28,1.42,14.66,2.42,22,1.78,12.87,4.35,25.63,5.82,38.52,1.44,12.54,2.92,25.07,5.2,37.48,2,11,2.2,22.15,4.82,33,.88,3.68.05,7.63.51,11.49,1.27,10.64,2,21.35,3.31,32h135c.07-.5.14-1,.2-1.51.82-7,1.76-14,1.95-21,.27-10,1.67-20,1.13-30-.14-2.55-.46-36.17,0-50.5.31-10,.65-20,1.55-30,.86-9.5.44-19,1.15-28.53.8-10.75-.54-21.64-.7-32.48-.12-8.33.67-16.74.2-25-.6-10.38.57-20.67.06-31a125.43,125.43,0,0,1,1.07-22.51c1.08-8.06-1.23-16-2.38-24C906.78,1575.1,905.47,1566.61,900.39,1559.58Z"/>
        <path d="M542.5,1577s-1.9,2.51-2,4.5c-.3,7.68-3.06,14.18-9.58,18.43-4.92,3.2-10.24,5.81-15.46,8.56-13.1,6.9-27.28,10.63-41.41,14.78-10.95,3.2-20.71,1.47-30-3.41-13.38-7-26.89-14-38.57-23.86-5.91-5-9.88-10.64-7.58-19,.76-2.78,1.26-4.13-1.68-6-7.06,7.56-15.24,14.74-16,25-.94,12.46-3.21,24.89-2.26,37.48a62.87,62.87,0,0,1,0,9c-1.63,23.47-3.27,47-2.92,70.5.29,20.34-.71,40.66-.14,61,.44,15.66-.17,31.34.17,47,.28,13.17,1.46,26.33,1.86,39.5.19,6.5.17,13,.12,19.5H502.3c5.05-14,8-28.61,11.46-43.06.39-1.64,4.87-23.82,7.1-32.48,2.9-11.18,4.77-22.63,7.15-34,3.13-14.92,5.89-29.94,9.65-44.71,2.22-8.72,6.34-34.29,6.34-34.29,2.14-11.45,4.26-22.91,5.47-34.5,1.14-11,1.36-22.12,3.22-33a86.93,86.93,0,0,0-.71-33.53C550.9,1585.53,543.33,1577.17,542.5,1577Z"/>
    </g>
    <path class="glove" d="M1280.5,982.5c-.38,3.78-3.74,5.78-5.73,8.32-5.08,6.44-7.61,13.95-10.7,21.21a201.07,201.07,0,0,0-13,44c-1.49,8.48-4.06,16.82-3.9,25.5.05,2.58.88,4.5-.62,7.5,0,0-3.35,2.91-6,2.5-13-2-26.15-2.75-39.08-6.19A176.87,176.87,0,0,1,1161.5,1069c-12.43-6.82-24.17-14.51-33.55-25.45-5.87-6.86-13.8-10.63-22.47-12.44-5.72-1.2-11.64-1.46-17.48-2.09-4.12-.45-8.76-1.13-9.8-5.56-1.33-5.63-2.13-11.58-.7-17.45,2.49-10.17,4.82-20.38,7.56-30.48,2.09-7.73,3.94-15.55,6.92-23,2.28-5.75,4.23-6.89,10.52-6.55,4.43.24,8.66,1.48,13,2a76,76,0,0,1,26.56,8.4,6.61,6.61,0,0,1,3.36,3.17c2.23,5.64,5.8,10.46,9.07,15.47,6.13,9.39,13.54,17.66,21.65,25.64,5.69-4.12,11.16-7.4,16.46-11a194.5,194.5,0,0,1,25-14c5.32-2.53,10-6.26,15.88-7.84,1.35-.36,3.16-1.28,4-.71,9.34,6.65,20.19,9.14,31.09,11.29C1273.22,979.31,1280.5,982.5,1280.5,982.5Z"/>
    <path class="skirt" d="M487,1052a196,196,0,0,0-20.44,25c-8.75,12.62-15,26.61-21.8,40.34-7.16,14.43-12.92,29.39-19.11,44.18-5.24,12.53-8.92,25.69-13.72,38.41-4.36,11.56-7.42,23.52-11.67,35.13A175.16,175.16,0,0,0,393.7,1257c-1.76,7.92-4.83,15.37-7.53,22.84-2.88,8-4.75,16.2-7.55,24.16-3.63,10.34-7.8,20.53-9.69,31.45-1.31,7.56-2.68,15.2-5.08,22.46-3.05,9.25-3.94,19-7.49,28.19-2.62,6.83-3.19,14.65-5.38,21.85-3.58,11.81-4.76,24.11-7.67,36.09-2.53,10.42-4.85,21-7.26,31.43-1.87,8.11.55,11,7.86,15.64,12.66,8.07,27.31,9.53,41.1,13.82,3.78,1.18,7.64,2.09,11.5,3a10,10,0,0,0,2.49,0c1.13.76,2.36,1.32,2.53,3a6.47,6.47,0,0,0,4.51,5.36c5.43,1.8,10.2,5,15.93,6.29a313.27,313.27,0,0,1,31,8.47c9.66,3.23,19.52,4.7,29.53,6a115.38,115.38,0,0,1,15.49,3.47c3.15.85,6.51-.29,9.56,1.37a5.42,5.42,0,0,0,2.46.07c3.83.53,7.58,1.4,11.49,1.64,4.18.25,8.44-.3,12.49.47,10.46,2,21,1.08,31.53,1.76,6.46.41,12.27-1.71,14.46-8.88a15.83,15.83,0,0,0,.29-3.41,11.05,11.05,0,0,1,7.2-.45c6.07,2,12.35,2.45,18.55,2.73,11.31.53,22.64.4,34,0,13.23-.5,26.29-2.43,39.48-3.1,4.43-.23,9.09,0,14-1.37,2.54,6.18,8.09,8.66,14,10.64,6.66,2.22,13.7,2.47,20.52,3.88,10.71,2.21,21.64.86,32.48,1.09a165.2,165.2,0,0,0,29.48-2.12c4-.64,8.16-.57,12-1.53,9.6-2.41,19.32-4.11,29-5.77,11.06-1.89,22.13-3.58,33-6.45,9.13-2.41,13.08-7.5,13-15.11,0-2.77.61-4.63,4.4-5.29,3.31-.57,6.8-1.1,10.08-1.5a159.19,159.19,0,0,0,39-10.27c10.75-4.21,15-7.8,14.66-21.94-.27-11.09-3.14-21.67-4.76-32.48-1.21-8.09-3.46-16-5.4-24-3.94-16.18-8-32.33-12-48.5-3.19-12.87-5.78-25.88-9.9-38.53-2.22-6.82-3.06-14.09-5.19-20.94-3.25-10.48-6.4-21-9.57-31.48-2.2-7.29-3.37-14.75-5.32-22-2.64-9.85-6.16-19.39-8.26-29.45-2.45-11.67-6.89-22.9-10-34.49s-7.89-22.81-12.33-34c-4.35-11-7.63-22.38-12.88-33-7.49-15.25-13.44-31.24-22-46-7.7-13.19-14.9-26.68-24-39Z"/>
    <g class="skirtFoldLine">
        <path d="M419,1409.5c.9,8.72-2.3,17-3.25,25.47-.74,6.66-1,13.45-2.68,20-2.75,10.6-5,21.32-7.58,32-1.48,6.17-2.17,15.53-4.49,21.5"/>
        <path d="M694,1417.5c-.4,7.23,1.63,14.36,1.35,21.49-.35,8.55,1.09,17,.82,25.52-.56,17.31,0,34.66-.24,52a70.59,70.59,0,0,1-1.93,15"/>
        <path d="M868,1450.5c-.94,10.14,2.3,19.75,4.19,29.46,1.39,7.17,2.42,14.38,3.78,21.55.62,3.28,2,6.49,2,11"/>
        <path d="M586,1482.5c-2.07,10.24-2.19,20.72-3.56,31.06-.9,6.77-2.44,12.44-2.44,19.94"/>
    </g>
    <g class="strap">
        <path d="M501,1059.5c-3.1,12.46-7.88,24.37-12,36.49-3.94,11.47-8.74,22.68-12.63,34.12s-7.38,23.44-10.56,35.33c-2.93,11-5,22.09-7.82,33-4.07,15.66-6.7,31.59-9.61,47.48-1.36,7.39-2.52,14.85-5,22.16a61.4,61.4,0,0,0-2.75,16.87c-.15,4.89-2.1,9.27-2.68,14-.79,6.36-1.94,12.68-3,19a4.72,4.72,0,0,0,0,1.5,13.12,13.12,0,0,0,6.5,4c9,2.86,18.26,4,27.49,5.53,13.59,2.23,27.31,2.43,41,2.9,1.74.06,3.33,1.11,3.36,2.06.14,4.83,4.31,5.63,7.2,6.85A84.48,84.48,0,0,0,546,1346.9c6,.52,12.13,2.46,18,1.83,8.33-.91,16.76-.62,25.07-2.55,8.49-2,13.82-5.52,13.91-12.18.2-16.06,1.86-32,3-48,1.1-15.16,2.15-30.33,3-45.5.72-13.15,1.5-26.29,1.2-39.5-.19-8.65,1.32-17.33,1.8-26q.93-16.53,2.39-33c1-10.78,3.39-21.28,4.78-32,1.22-9.42,3.52-18.69,5.38-28,1.09-5.51,3.75-10.7,3.49-16.5Z"/>
        <path d="M787,1054.5c6.35,11.2,10.83,23.26,16.1,35,8.52,18.9,15,38.61,21.45,58.19,4.24,12.82,8.11,26,11.22,39.29,4.19,18,8.87,36,12.61,54.08,2.5,12.09,5.29,24.12,6.88,36.45,1.47,11.34,4.38,22.49,4.84,34,.14,3.55-1,5.84-4.11,7a145,145,0,0,1-25,6.67c-15.28,2.56-47,1.37-47,1.37.35,6.19-3.26,10.45-9.47,12.58-9.62,3.3-19.63,4.8-29.56,6.18-6.66.93-13.64-.38-20.47-.78-3.67-.22-7.33-.73-11-.93-1.19-.07-1.5.2-1.5.2-9-1.53-18-2.63-27.08-6a29.74,29.74,0,0,1-1-8.76c.13-11.5-.22-23-.38-34.5-.17-12.5-.19-25-.56-37.5-.18-5.84-.22-11.65-.11-17.5.16-8.32-.93-16.66-1.28-25-.14-3.16.76-6.4.35-9.49-.81-6.16-.83-12.37-1.59-18.49-.62-5,1.64-9.75.57-14.49-.92-4-.74-8-.89-12-.31-8.5-.49-17-1-25.5-.36-5.52-1.87-11-1.79-16.5.1-6.65-1-13.08-2.24-19.48-2-10.73-4.58-21.35-6.91-32Z"/>
    </g>
    <g class="strapBorderLine">
        <path d="M735,1077c-.23,4,7.2,26.11,10,37.5,4.54,18.49,8.74,37.07,13.17,55.58,2.81,11.78,5.22,23.8,7,35.89,1.58,10.54,3.56,21.09,5.46,31.59,1.5,8.33,2.54,16.91,3.44,25.43.95,9,2.5,18,3.93,27,1.67,10.47,5.31,25.38,6,36"/>
        <path d="M558,1077c-4.36,9.55-5.86,20.87-8,31-2.4,11.65-4.43,23.38-6.78,35-2,9.9-3.37,20-5.29,29.94-1.68,8.7-4.24,17.27-5.33,26-1.7,13.59-5.32,26.82-6.78,40.47a166.42,166.42,0,0,1-5,25.47c-2.11,7.79-1.68,15.73-2.84,23.54-1.27,8.64-1.64,17.37-2.68,26-.69,5.76-.92,11.66-1.85,17.46"/>
    </g>
    <path class="pauldronStrap" d="M902,781.5c-11.6,10.57-25,18.14-39.47,24.08-9.8,4-19.65,7.74-30,9.91-1.31.27-2.67.34-4,.51l-3,50c6.2-.06,12.34-.16,18.53-1.37a146.34,146.34,0,0,0,23.54-7c21.36-8.06,42.1-17,59.93-31.68Z"/>
    <g class="brass">
        <path d="M838.83,1272.63c-5-7-12.63-10.13-20.84-10.45s-13.73,4.91-17.44,11.85c-1.9,3.54-3.85,7-3.67,11.48.39,9.75,8.72,21.53,18.14,22.13,5.42.34,11.81.35,16.92-2.74,4.46-2.71,8.24-6.65,9.45-11.93,1.08-4.73,1.47-9.7-.39-14.47C841,1278.5,839.68,1273.81,838.83,1272.63Z"/>
        <path d="M487.93,1313.89c5-3.23,10.2-6.06,13.17-11.84,4.57-8.92,1.39-23.88-7.15-29-5.66-3.37-12.14-3.69-18.43-2a27.73,27.73,0,0,0-16.94,12.48c-4.17,6.84.45,21.81,7.41,26a30.73,30.73,0,0,0,18,4.48S487.26,1314.32,487.93,1313.89Z"/>
        <path d="M735.5,1327c13.71-.2,19-5,21-19,2.12-14.78-5.11-24.78-19.51-26.45-10.78-1.26-19.45,3.81-24.06,13.92a31.56,31.56,0,0,0-3,13c-.12,7.46,6.48,17.72,16.09,18.46C727.45,1327.07,733.14,1327,735.5,1327Z"/>
        <path d="M559,1280.5c-5.43,1.74-10.9,3.12-15.56,6.92-8.94,7.32-12.55,29.24,1.47,35.76,4.18,2,7.66,5.32,12.59,5.85,10.7,1.15,17.51-3.21,23.55-12,5-7.27,4.77-15.08,2.88-23-1.5-6.29-10.94-13-17.43-13-2.33,0-4.67-.31-7-.48Z"/>
    </g>
    <path class="shirt" d="M494.48,926c-2.77-8.69-6.26-17.2-8.32-26-2.43-10.47-6.4-20.47-8.66-31-1.83-8.5-3.91-17-5.38-25.52-.62-3.57-1.64-8.05,1-10.85,4.38-4.59,7.26-10.09,11-15,6.35-8.44,7.92-18.62,10.54-28.18,2.94-10.72,2.8-22.12,2.48-33.41a124.83,124.83,0,0,0-10.58-48c-3.27-7.32-7.39-14-13.62-18.9-8.11-6.45-17-11.05-28-8.62-.82.19-2,.57-2.54-.93s-1.49-2.61-.43-4a36.77,36.77,0,0,1,6.93-7.57c13.06-10,27.38-17.69,42-25.05,8.55-4.31,17.14-8.57,26.11-11.73,9.68-3.41,19.79-5.57,29.48-9.09a14.17,14.17,0,0,1,11,.47c6.07,2.86,12.19,5.67,18,9a456,456,0,0,1,49.89,33.63c12.24,9.39,25.43,17.59,36.11,28.14A170.66,170.66,0,0,0,693,673a255.93,255.93,0,0,0,40.5-42,18.16,18.16,0,0,1,13-7c8.31-.9,16.66-2,25-.06L809,693.5c-.92,15.41,5,29.16,10.53,43,5.78,14.57,13.87,28.12,19.76,42.6a98.9,98.9,0,0,1,6.82,30.9c1.14,17.51-3.09,33.85-9.05,50-6.21,16.87-16.71,31-28.17,44.39C801.61,912.93,789.83,934,789.5,935,789.5,935,496.08,931,494.48,926Z"/>
    <path class="belt" d="M483.5,1011c-.58,9.57-1.12,19.1-3.39,28.53-2.75,11.38,7.46,26.38,19.39,29.47,7.55,2,15.5,1.69,23,3.66,8.6,2.27,27.71,3.87,28.54,3.84,10.67-.4,21,1.8,31.51,3.43a107.15,107.15,0,0,0,15,1c9.84.12,19.69.43,29.49.79,20.25.76,40.32-2.37,60.51-1.74,11.85.37,23.79.45,35.47-1.21,12.16-1.73,24.43-2.41,36.58-4.53,11.1-1.93,22.15-3.79,32.39-8.39,10.56-4.73,21.3-9.58,27.62-20.34A21.51,21.51,0,0,0,822,1039c2.51-11.58,2.63-23.26,1.52-35-.77-8.17.08-16.35-.15-24.5-.39-13.66,2.16-27.41-1.29-41-2-8.1-4.95-15.68-10.58-22-3.4-3.79-7-5.09-12.54-3.21a255.37,255.37,0,0,1-54.46,12.51c-10.43,1.12-20.92,2.37-31.48,2.2-17.2-.28-34.33,1.34-51.5,1.89-16.56.53-33.13.18-49.49-2.94C611.46,926.87,483.5,1011,483.5,1011Z"/>
    <path class="sash" d="M832,671.5c.88,4.34-2.44,7.17-4.13,10.43-3.29,6.38-8,11.92-12.11,17.75-4.38,6.13-8.24,12.75-12.81,18.78Q784.44,742.9,765.46,767c-8,10.15-15.61,20.64-23.63,30.79-12.44,15.74-25.78,30.78-37.47,47.14-3.93,5.48-9.6,9.69-14.34,14.61-9.82,10.19-18.54,21.47-29.08,30.92-14.86,13.31-28.4,28-44.34,40.2-10.51,8-20,17.4-30.59,25.38-13.21,10-26.07,20.38-39.58,29.88A250.71,250.71,0,0,1,500.5,1011a104.23,104.23,0,0,1-12,4.1c-3.71,1.09-6.47-.24-7.33-3.17-1.11-3.78-3.27-7.29-3.23-11.44.1-8.35.64-16.68.83-25,.2-9,.49-18-.1-27-.77-11.69.05-23.51,11.34-30.93,5.1-3.35,10.58-6.16,16-9,9.5-5.07,18.08-11.56,27.11-17.33A200.43,200.43,0,0,0,563,868c7.3-6.86,14.44-13.89,21.51-21,12.07-12.1,24.15-24.19,36-36.53,7.59-7.92,14.88-16.15,22-24.49,8.52-10,17.9-19.14,26.12-29.4,8.88-11.09,18.55-21.53,27-33,4.87-6.58,9.71-13.28,15-19.44a350.55,350.55,0,0,0,23.63-30.78c8.46-12.27,16.84-24.73,23.29-38.32,2.56-5.37,5.88-10.39,9-15.5a4.41,4.41,0,0,0,.45-2Z"/>
    <path class="pauldron" d="M965.5,845c1-8-2.44-14.91-6.11-21.44-6.78-12-14.54-23.55-21.28-35.62a181.47,181.47,0,0,1-12-25.5c-3.54-9.57-8.13-18.62-12.12-28s-9.56-17.39-14.4-26.06c-11.35-20.34-26.42-37.64-43.34-53.2-8.76-8.06-19.28-14.27-29.7-20.39-8.66-5.08-17.21-10.38-26.65-13.68-8.29-2.9-16.66-6.4-25.46-6.91-5.69-.34-11.69-.06-17.07,3.64-6.82,4.69-7.5,10.31-.35,14,5.82,3,12.32,4.67,18.42,7.17,11.39,4.66,19.74,12.91,26.52,23,5.45,8.08,9.27,17,13.86,25.58,5.19,9.65,10.13,19.44,15.59,29,2.34,4.09,5.3,7.71,7.88,11.58,4.19,6.29,9.11,12,13.39,18.23,4,5.82,10.14,10,16,14.2,17.1,12.27,32,26.07,40.56,46.34A198.48,198.48,0,0,0,938,855a23.65,23.65,0,0,0,9.93,7.12c7.56,3,9.37,1.53,13.92-4.66A19.89,19.89,0,0,0,966,845.5Z"/>
    <path class="guard" d="M233,1327c11.14,2.56,20.54-.33,28.53-8.5,12.49-12.77,18.72-29.07,25.41-45,4.85-11.6,9.68-23.23,11.16-36,.81-7,1-13.84-2.68-20-3.06-5-7.83-8.53-12.9-11.58A96.41,96.41,0,0,0,252,1194.23c-12.73-2.6-23.64,2.55-31.87,12.33A161.13,161.13,0,0,0,197,1242c-5.13,11-10.46,22-12.82,34-1,4.88-1.68,9.94-2.23,15-.78,7.12,2.06,12.92,7.1,17.41,4.79,4.26,18.2,13.89,19.92,12.09C209,1320.5,230.86,1326.53,233,1327Z"/>
    <path class="blade" d="M63,1752.5a8,8,0,0,0,5.48-3c4.88-6,10.22-11.63,14.42-18,13.42-20.51,29-39.56,41.14-60.92A225.34,225.34,0,0,0,137.43,1642c4.46-11.22,8.57-22.58,12.53-34,7.94-22.81,14.47-46.06,21.82-69.06,4.65-14.55,8.76-29.31,13.36-43.88,7.28-23,14.32-46.12,21.66-69.11,5.93-18.58,11.42-37.31,17.2-55.94q11.25-36.26,22.49-72.5c4.72-15.32,9.33-30.67,14-46a18.75,18.75,0,0,0,0-11c-2.07-7.12-9-9.76-15-5.48-9.45,6.77-16.06,15.49-20.81,26.35-4,9.17-7.84,18.42-11.59,27.68-8.71,21.51-16.73,43.31-25.14,64.94-7.92,20.37-16,40.65-24,61-8.41,21.63-16.63,43.35-25,65-7.92,20.37-16.13,40.62-23.94,61-8.19,21.39-17,42.55-24.74,64.09-5.2,14.5-10.55,29-14.71,43.91-3,10.54-5.22,21.29-7.54,32-1.28,5.94-2.19,12-3,18-2.06,14.76-3.47,29.55-3.15,44.5A52.58,52.58,0,0,0,63,1752.5Z"/>
</svg>
