<svg viewBox="0 0 1412 1882">
    <rect class="frame" x="1" y="1" width="1410" height="1880"/>
    <path class="shadow" d="M1105,939c.91-3.94-.85-7.64-1.07-11.5-.58-10,4.07-25,4.07-25-3-1-6-2.08-9-3-6-1.77-8.94-7.67-5.92-13,4.69-8.25,3.91-16.8,2.45-25.54-2-12.12-1.37-23.59,6.39-34.06,7-9.49,16.61-11.47,28-6.33,10.18,4.57,14.51,14.13,18.65,23.85,3.79,8.9,6.1,18.59,12.89,26,5.36,5.9,5,11-1,16.49-1.48,1.35-3,2.67-4.5,4l1,2.5c9.25,7.5,14.52,17.58,18.5,28.5Z"/>
    <g class="skinWhite">
        <path d="M898.5,1091.5c10-1.44,19.7-4.51,29.5-7,16.64-4.25,33.26-8.6,50.53-13.08a62.57,62.57,0,0,0,1.25-19.88c-.86-8-.88-16.06-2.53-24.07A134.18,134.18,0,0,0,969,1001c-6.46-14.94-18.18-25.52-30.5-35.46-2.64-2.13-4.61-5.8-9-5.06Z"/>
        <path d="M87.87,678c.74,5.22,185.26,403.9,190.16,414.54.93,2,128.29-7,136-7,0,0,4.45,12.84,6,18,3,10,12.38,120.87,14.49,124.24,12.75-11,321.6-275.83,330.49-283.46-.42-.65-178.84-699.44-181.54-713.27-.79-4-492.76,118.2-499.94,121.49C83.5,352.5,87.23,673.4,87.87,678Z"/>
        <path d="M917.5,900.5c-7.18,4.73-9,12.47-11,20-2,7.9.71,15.4,2.4,23,1.44,6.52-90.59,45.09-112.9,50.77-29.45-116-9.55-205.61-39-321.78,99.41-25.25,148.79-76.5,247.86-101.67.14,1.74,42.92,167.35,51.25,199.64.57,2.2-83.36,141.54-87.17,140.86C961.29,910,917.5,900.5,917.5,900.5Z"/>
    </g>
    <g class="skinOverlapLine">
        <path d="M686.5,849c-2.88,17.77-10.16,27.68-19.55,42.47-7.66,12.07-16,23.82-26.15,33.82-9.71,9.6-19.16,19.48-29.51,28.54-12.4,10.86-25.77,20.26-38.86,30.08-17.15,12.88-36.26,22.72-55,32.88a456.15,456.15,0,0,1-49,22.49c-12.6,5-25,9.85-38.4,12.74-7.44,1.61-18.94,1.55-26.51,1.89"/>
        <path d="M834.5,825a101.32,101.32,0,0,0,20.62,46.66c9.85,12.6,22.28,21.59,38.86,24,8.52,1.22,16.91,2.71,25.52,1.37"/>
    </g>
    <g class="hairRed">
        <path d="M1005,577c9.2,4.09,18.94,7.33,26.93,13.59C1044,600,1056.33,609.4,1063,624c3.68,8,5.9,16.21,4.93,25-1.4,12.61,2.22,24.44,4.86,36.54,2.46,11.32,8.78,20.85,12.64,31.47,3.51,9.64,3.49,19.6,1.45,29.47-1.64,7.9-5.05,15.15-9.31,22.09a27.47,27.47,0,0,1-9.62,9.91c-8.73,5-12.35,13.08-14,22.51a105.34,105.34,0,0,0-1.66,22.52,82.52,82.52,0,0,1-2,21c-1.68,7.48-2,15.13-4.09,22.6a136.31,136.31,0,0,1-13.34,31.37,36.07,36.07,0,0,0-4.18,27c1.32,5.79,6.79,9.14,11.86,11.92a38.62,38.62,0,0,0,4.45,2.08c1.85.7,4.23.6,4,3.55-.23,2.78-1.85,4.25-4.48,5a60.59,60.59,0,0,1-33,.24c-11.79-3.16-26.8-12.86-37.53-18.82-.74-.4,2.49,6.76,3.48,8,2.27,3,3.09,6.88,6,9.54,1.54,1.42,2.92,3.12,1.3,6-1.62-.52-3.21,0-5.34-.9A131.84,131.84,0,0,1,959,942c-12.56-8-24.43-17-33.4-29.07-3.36-4.53-7.14-9.19-7.38-15.92,4.71-.86,9.34-1.34,13.76-2.57,15.66-4.38,30-10.82,42.72-21.7A88.76,88.76,0,0,0,1001,834a136.74,136.74,0,0,1,14.29-29.14c5.27-8.06,10.58-16.05,16.15-23.9,4.53-6.38,14.56-17,14.56-17-1.33-1.17-2.49-2.7-4-3.44-11.17-5.39-19.78-14.18-28.83-22.22-8.4-7.45-14.76-16.92-21.81-25.7a151.93,151.93,0,0,1-18.17-29.22c-7-14.4-14.38-28.34-25.64-39.94-5.36-5.51-10.75-10.94-18.15-14.59a73.46,73.46,0,0,1-10.69,22.23A107.29,107.29,0,0,1,892,678c-14.15,10.13-26,21.95-30.54,39.51-.44,1.72-.44,4-3.28,4.58C851.31,716.17,845.5,702,845.5,702c-4.27,1.93-2.69,6.46-3.73,9.59a136.57,136.57,0,0,1-15.68,32c-5.86,9-13.45,17-16.18,27.92-2.31,9.28-4.51,18.53-6.09,28-1.28,7.68-1.39,15.33-1.92,23-.86,12.73-.85,25.4,1.14,38,1,6,2.4,12,3.42,18,.68,4-.64,7-5,8,0,0-5.5,0-8-1-5.09-2.08-9.84-2.82-14.49-5-1.69-.79-57.51-201-57.51-201,2.76,1.49,5.17-.61,6.89-1.67,9.71-6,19-12.77,26.49-21.43,5.77-6.67,12-13.34,14.12-22.4Z"/>
        <path d="M692.5,629c-2.28,2,78.63,283.58,78,291,.41,1-14.16,1.52-16.48,0-8.82-5.87-17.69-11.57-25.11-19.39-8.12-8.56-16.18-17.18-23.84-26.14-5.86-6.86-11.76-13.86-16.39-21.55-5.36-8.9-9.45-18.59-14.06-27.95-6.54-13.26-10.62-27.56-15.93-41.32-5.77-14.94-9.36-30.37-13.56-45.66-5.53-20.18-9.88-40.69-15.21-60.94-4-15.31-5.2-31.09-8.36-46.53-1.43-7-1.91-14.1-3.91-21-1.43-5-1.61-10.28-2.12-15.46-.68-6.84-1.21-13.75-2.25-20.47-2.8-18.15-9.28-55-7.55-55-.58-3.52-1.27-7-1.7-10.5-.67-5.37-.81-10.78-2.48-16-.92-2.91-4.56-6.16-7-4.86-7.27,3.91-15.37,4.24-23.1,5.7-14.88,2.82-29.74,5.9-45,6.81-11.54.68-23,2.54-34.51,3.87h-.5c-9.4-.23-18.68,1.12-28,1.89-19.95,1.66-40,1.84-60,1.58a362.5,362.5,0,0,1-51.5-4c-19.9-3.11-40.16-4.67-59.42-10.74-9.79-3.08-19.8-5.57-29.3-10.3s-20.49-6-30.27-10.47c-6.3-2.88-40-20.26-45.46-24-8.69-6.06-16.82-12.93-25.6-18.86-18.12-12.25-35.19-26.18-55.43-35.12-3.42-1.5-6.73-2.82-10.52-1.95v.5c-2.29,6.3-3,13-3.35,19.51-.58,9.63-.15,14.82-.15,24.49,0,2,.81,43,.9,62a438.94,438.94,0,0,0,2.93,44.46,203.37,203.37,0,0,0,5.25,28.65c2.6,10.2,6.74,19.79,9.42,29.89,1.51,5.69,5,10.5,7.12,16,6.84,17.46,14.62,34.56,21.21,52.11,3.26,8.7,5.57,17.81,7.91,26.88,2.84,10.95,4.24,22.16,6.94,33.14,2.21,9,3.48,18.28,5.25,27.43,1.9,9.79,4.93,19.33,6.79,29s4.5,18.92,6.15,28.47c1,5.71,3.41,10.9,4.88,16.41,3.55,13.21,7.59,26.43,13,39,4.84,11.25,10.24,22.34,15.94,33.27,7.87,15.07,17.23,29.11,26.41,43.27,9.44,14.55,20.46,27.85,33.82,39.16,6.91,5.86,13.74,11.86,20.14,18.35,8.52,8.63,19.33,14.33,29,21.45,11.59,8.53,24.6,14.81,38,20A106.29,106.29,0,0,0,386.5,1052c4.34.22,8.62,1,13,1.17,4.16.14,6.69,2.32,7.8,7.28,1.23,5.56,3.36,11.07,5.24,16.55,1.45,4.24,2,14.51,2,14.51A184.07,184.07,0,0,1,385,1104c-15.33,5.25-31.22,8.08-46.94,11.78-9,2.11-26.7,5.25-27.64,4.09l-27.3,3c-.64.81-27.3,1.08-35.57,0-.93,1.15-14.88-1.23-22.06-1.89-10.49-1-21-1.36-31.48-2.67-5.47-.69-18.75-4.28-16.52-6.36,3-2,4-3,9-6,.21-.13,7-6,10-10,7.64-10.18,6.78-21.73,9.5-22.48.47-.13-20.83,12.93-25,14.51-4.39,1.68-8.58,3.93-13,5.41a79.26,79.26,0,0,1-40.45,2.38c-19.36-3.75-37.48-10.9-52.52-24.33A10.78,10.78,0,0,1,71,1064a15.65,15.65,0,0,1,7-2.1c7.6-.31,14.78-2.26,22.07-4.7,14.62-4.9,24.41-15.35,33.28-26.84,4.65-6,7.6-13.3,10.69-20.36,6.49-14.85,10.93-30.16,10.41-46.52-.26-8.1-2.16-16-3.23-24-.85-6.38-1.54-13.15-3.6-18.83-5.42-14.91-10.18-30.09-16.53-44.68-6.74-15.49-12.44-31.43-19.18-46.92-7-16-11.69-32.86-19.27-48.61A17.66,17.66,0,0,1,91,775.5c-1-6.81-3.69-13.17-6.16-19.43A219,219,0,0,1,70.55,700,411.81,411.81,0,0,1,68,648.5c.3-20.83.76-41.67,1-62.5.16-17-.42-34,.16-51,.56-16.4-.65-32.68-1.63-49q-.78-13-1.49-26c-.2-4,.09-16.5.09-16.5-1.12-10.85-.29-22-6.08-32-6.29-10.81-9.44-22.52-10.64-35-.89-9.22-1-18.39,2.31-26.94a133.62,133.62,0,0,1,11.75-24.11c6.26-9.82,14.49-17.51,24-24,3.25-2.21,7-3.59,9.6-6.91,5.75-7.29,10.25-15.39,15.43-23.05l1.5-30c1.2-12.61,4.44-24.56,8.62-36.63,6-17.44,16.6-31.58,28-45.28,13.37-16.09,29.91-28.75,47.42-40,19.22-12.38,377-102.1,387-101.38,13.51,1,27.06,1.41,40.55,3.59,14.74,2.38,29.6,4.09,43.93,8.35,11.83,3.52,23.58,7.23,34.67,13.13,6.46,3.43,13.47,6,19.84,9.8,11.91,7,23.8,14.11,35.5,21.5,25.61,16.18,47.59,36.86,69.34,57.64,10,9.59,18.29,21.06,27.16,31.84,15.34,18.65,27.78,39.27,39.95,60a474,474,0,0,1,27.25,54.88c5.54,13.05,11.42,26,16.47,39.21,4.74,12.4,8.87,25.15,13.1,37.79,4.67,14,10.18,27.66,13.15,42.1,2.41,11.72,6.36,22.9,10.69,34,3.91,10,8.65,19.66,12.88,29.54,3,7,6.11,14,8.75,21.09,4.47,12,10.2,23.27,15.34,34.87,2.5,5.65,13.55,22.41,16.44,25Z"/>
    </g>
    <g class="hairOverlapLine">
        <path d="M557,316.5c3.06,5.72,6,15,7.91,21,10.09,27,3.84,11,6.37,17.88,1.26,3.41,10.67,28,12.88,37.18,3.45,14.31,6.9,28,9.77,42.43,2,10.1,2.21,20.36,4.15,30.48,1.08,5.64,1.22,15.19,1.16,21"/>
        <path d="M864.56,648c-6,10.6-13.78,30.38-17,42-.45,1.62-2.51,5.5-2.51,11"/>
        <path d="M99,390.5c-8.31-4.65-19-8.5-28.5-8.5"/>
    </g>
    <g class="maraHeadband">
        <path d="M553,300c-6.65-14.85-15.39-28.47-25.1-41.44-11.08-14.81-24.38-27.6-38.48-39.49-8.79-7.42-17.42-15.23-27.07-21.38A272.71,272.71,0,0,0,393,166.45c-20.27-6-41-9-61.94-10-5.08.1-21.18-.14-31.6.89-21.46,2.12-41.89,7.86-62,15.24-8.48,3.12-16.37,7.6-24.57,11.34-9.53,4.35-18,10.37-26.88,15.73-14.9,9-27.69,20.8-40.52,32.44-6.89,6.26-13.62,12.73-20,19.52-8.24,8.82-14.9,18.89-21.58,28.93-2,3-5.47,11-4,11,5,0,10.5-4.91,14-7.06,9.61-6,18.85-12.59,28.58-18.38,23.08-13.73,47.67-24.45,72.53-34.38,14.59-5.83,30-9.29,45.42-12.74a260.59,260.59,0,0,1,52-6.4,264.56,264.56,0,0,1,40,2c9.21,1.21,18.41,2.62,27.49,4.51a301.88,301.88,0,0,1,44.5,13,480,480,0,0,1,62.43,28.6c12,6.57,23.74,13.68,34.14,22.79,6,5.29,13.22,9.35,18.37,15.61A173.49,173.49,0,0,0,558,317.5S557,306.5,553,300Z"/>
        <path d="M914,594.5c5-1,30.5,3,30.5,3,9-.48,18,.83,27,1.45a114.72,114.72,0,0,1,36,8.55c22.57,9.29,42.71,22.22,58.38,41.1,8.42,10.15,15.62,21.32,17.61,34.9,1,6.71-1.12,12.17-5.65,14.58-4.54-3-5.63-8.4-8.17-12.68-8.48-14.26-19.82-25.82-32.76-35.78-8-6.15-16.46-12-25.5-16.44-21.67-10.56-44.36-16.3-68.94-12.88-10.34,1.44-20.59,3.1-30.42,6.36a252.31,252.31,0,0,0-27.51,11.42C875,642.5,873,642.5,864,648.5c5-11,15-21,20-26Z"/>
    </g>
    <path class="shirt" d="M362.6,1179.06c-2,3.44-3.66,7-2.69,11.46,2.57,11.87,9.22,21.7,15,32s11.52,20.37,9.36,33C384,1257.05,353.5,1535,353.5,1535c1.2-2.06,357.53-92,356.55-95.51-2.32-8.29-43.94-174.45-49.95-177.68-13.44-7.21-168.43-103-179.6-102.85-10,.12-19.68,1.56-26.9,9.14-4.54,4.76-8.87,9.88-11.16,16.38-2,5.77-4.54,11.38-7,17C433.64,1205.77,363.9,1176.83,362.6,1179.06Z"/>
    <g class="maraDress">
        <path d="M831.5,1227c-.67-2.67-54.5-210-54.5-210-4.73,2.76-155.11,223.49-159,227.53-2.62,2.75-11.43,28.21-13.24,37.93-.81,4.38-2.85,8.69-4.39,13-7.24,20.29-12.37,41.13-17.56,62-3,11.82-5.45,23.73-8.49,35.5a273.3,273.3,0,0,0-7.4,39c-.16,1.53-4.5,17.82-6,24.48-1.86,8.12,782.85-180.56,780-184.42-4.14-5.61-6.51-12.15-9.68-18.19q-9-17.23-18.2-34.39c-3.33-6.23-7.5-12-10.87-18.08a207.17,207.17,0,0,0-31.11-42.46c-10.09-10.71-22.17-19.13-32.57-29.44Z"/>
        <path d="M788.5,925c1,.17,2.43,4,3.48,5a66.48,66.48,0,0,0,17,13.1c9.19,4.8,19.1,6.47,29.08,7.76a107.64,107.64,0,0,0,22.46.92,52.22,52.22,0,0,0,24-7.79c6.85-4.36,14.23-8.23,18.36-15.58,1.55-2.78,5.27-4.47,4.63-8.43l.5,3.5c8.84,8.75,17.7,17.5,24.46,28,5.15,8,8.7,16.57,8.12,26.48-.29,5,.31,10,.39,15,0,1.36-2.54,16.92-3.17,22q-1.65,13.45-3.39,27c-.46,3.57-1.84,7-2.92,10.51-4.14,13.34-7.17,27-12.43,40-1.13,2.77-59.73,23.3-81.56,29.48Z"/>
        <path d="M395,1509.5c-.87-11-.86-22-1.67-33-.83-11.33-1.22-22.71-2.59-34-.71-5.84.81-12-.29-18-1.65-8.82-.17-17.68-.83-26.52a320.36,320.36,0,0,1-1-32.49c.61-22.18.49-44.41,3.28-66.51a144.9,144.9,0,0,0,.45-31.52c-.72-8-4.92-21.67-9.34-28,0,0-7,22.57-11.81,34.08-2.2,5.28-4.53,10.65-5.83,16.39-1,4.32-3.3,8.32-4.84,12.54-5.07,13.86-8.11,28.3-12.22,42.43-3.2,11-5.77,22.1-8.47,33.14A253.92,253.92,0,0,0,335,1406c-1.3,10.11-3.68,20-5.37,30-1.56,9.25-3.53,18.43-4,28a96.17,96.17,0,0,1-2.85,20.6A197.88,197.88,0,0,0,318,1512.5S395.24,1512.66,395,1509.5Z"/>
    </g>
    <g class="collar">
        <path d="M781.5,1032c1,3.5-1.17,6.09-2.44,9-6.95,16-14.12,32-23.14,46.93-5.89,9.77-12.85,18.88-18.84,28.6-4.91,8-11.56,14.85-15.9,23-7.55,14.26-18.41,26-27.68,38.91-8.58,12-19.49,21.83-29.36,32.63-10,11-20.8,21.23-31.7,31.3C617,1256.64,600.19,1269.06,583,1281c-2.23,1.54-8.15,6.35-8.39,5.53-3.23-10.73-10.28-22.41-15.74-31.88a306.69,306.69,0,0,0-20.44-30.51,205.54,205.54,0,0,0-21.38-24.6c-8.54-8.29-16.09-17.59-25.49-25-4.44-3.52-5.68-5-10.52-8-7-3-5-2-18-4.5,0,0,16.15-14.76,25.53-21,8.87-5.86,38.29-24.39,43.94-28.08,7.79-5.09,32.94-21.17,37.55-24.43,9.1-6.44,18.81-12.1,27.37-19.16,14.5-12,30.41-22,44.7-34.27,12.58-10.78,46.34-38.69,50.42-42.08,13.27-11,26-22.72,37.25-35.73C738.08,947.62,747.6,939,755,928.5Z"/>
        <path d="M363.5,1177.5a10.32,10.32,0,0,1,.43-2.53c3.66-8.28,9.28-15.31,14.66-22.4,11.89-15.68,23.69-31.41,34.8-47.64,1.76-2.57,5.61-4.93,5.61-4.93.5.5,7,24.78,11.33,36.07q6.38,16.68,13.84,32.85c1.77,3.83,1.41,6.48,0,10.13-3.07,7.8-4.81,16-3.12,24.45,2.58,12.85,4.87,25.78,8.1,38.47,3.29,12.92,5.88,26,10.67,38.61,1.37,3.59,4.25,7.47,2.13,12.09-1.41.12-2.44.9-4.05-1.07-6.85-8.38-11.86-18-18.37-26.6-12.45-16.46-22.93-34.28-34.94-51-4.86-6.78-9.92-13.53-15.34-19.71a53.17,53.17,0,0,0-22.11-15C363.25,1177.83,363.5,1177.5,363.5,1177.5Z"/>
    </g>
    <g class="photoFrame">
        <path d="M1411,1234.22q-18,4.14-36,8.3c-14.68,3.4-29.32,7-44,10.47-27.83,6.53-55.7,12.85-83.49,19.56-23.89,5.77-47.63,12.13-71.52,17.9-29.79,7.2-59.72,13.78-89.48,21.11C1035.29,1324.18,984.18,1337.2,933,1350c-33,8.23-66,16.17-99,24.56-27.73,7.07-55.26,15-83,21.84-23.54,5.84-47,12.16-70.47,18.11-29,7.34-58,14.52-87,22-32.71,8.5-65.31,17.41-98,25.93-28.79,7.49-57.68,14.6-86.48,22q-59.29,15.36-118.5,31c-27.89,7.43-55.64,15.41-83.55,22.8-3.75,1-7.66,1.76-11.43,2.78-3.33.9-4.35-.07-5.08-3.12-2.7-11.2-6-22.26-8.35-33.53-3.15-15.42-7.07-30.65-10.55-46-11.34-50-24.08-99.65-36.12-149.47-10.14-41.92-21.33-83.59-31.33-125.54C92,1132.51,78.69,1081.83,65.94,1031c-9.38-37.4-19.12-74.72-29-112-9.91-37.44-19.49-75-29-112.49Q4.55,793.29,1,780.09v381q24.65,98.4,49,196.89c6.08,24.6,11.77,49.31,17.52,74,7.23,31,14.12,62.06,21.59,93,5.71,23.62,11.06,47.32,16.46,71,6.36,27.87,13.06,55.66,19.44,83.52,5.3,23.13,10.41,46.31,15.52,69.49,5.55,25.16,11,50.34,16.52,75.5,4.14,18.84,8.36,37.66,12.5,56.5h221.6l5.38-1.52c26.14-7.43,52.37-14.56,78.56-21.79,34.14-9.42,68.25-19,102.48-28.09q42.78-11.36,85.49-23c30.42-8.28,61-16.06,91.48-24.06,34.33-9,68.64-18.12,103-27q74.46-19.17,149-38,78.95-19.93,158-39.47c33.26-8.16,66.67-15.65,100-23.58q53-12.62,106-25.49,20.2-4.87,40.5-9.38Z"/>
        <path d="M1411,367.33q-10.86-45.13-21.48-90.34c-4-16.8-7.62-33.67-11.54-50.49-7.61-32.68-15.35-65.32-23-98q-6.63-28.47-13-57-7.89-35.23-15.64-70.5H1234q2.52,11.25,5.06,22.5c4.3,19,8.67,38,13,57,4.68,20.66,9.26,41.35,14,62s9.72,41,14.46,61.5c5.58,24.15,10.9,48.36,16.55,72.49s11.66,48.34,17.46,72.51c6.53,27.16,12.91,54.36,19.54,81.49,6,24.7,12.32,49.34,18.47,74,16.17,65,32.2,130,48.56,195,3.21,12.77,6.56,25.51,9.94,38.24Z"/>
        <path d="M297.14,1c-1.22.31-2.44.61-3.66.93C261.6,10,229.5,17.34,197.5,25q-33.5,8-67,16C107,46.65,83.51,52.37,60,58c-19.67,4.7-39.3,9.59-59,14.14v96.73c18.52-4.22,37-8.38,55.5-12.84,29.32-7.08,58.67-14,88-21,16.67-4,33.32-8,50-12,28.33-6.7,56.73-13.1,85-20.07,33.4-8.24,66.57-17.42,100-25.3C410.07,70.46,440.42,62.5,471,55.31c33.36-7.84,66.36-17.19,99.54-25.8,26-6.73,52-13.32,78-20L681.56,1Z"/>
        <path d="M827.5,1239.5c-1.17-3.17-2.7-6.25-3.44-9.51-5.77-25.48-11.22-51-17.11-76.48-5.6-24.22-11.57-48.36-17.46-72.51-6.28-25.68-12.82-51.29-19-77Q758.35,952.86,745,902c-8-30.18-16.53-60.2-23.86-90.53-10.22-42.32-22.52-84-34.12-126q-8.09-29.24-16-58.51c-1.4-5.17-1.3-5.27,4-6.48,27.66-6.36,55.37-12.54,83-19.06,18.72-4.42,37.31-9.42,56-13.92,47.08-11.35,94.14-22.75,141-35q53.25-14,106.5-28c21-5.51,42-10.82,63-16.55,24.88-6.8,49.68-13.92,74.5-21,3-.86,4.35-.49,5.11,3,4.81,22.21,9.91,44.35,14.9,66.52,6.18,27.5,12.06,55.06,18.57,82.48,7.18,30.25,14.92,60.36,22.43,90.52,7.32,29.34,14.53,58.7,22,88,7.15,27.88,14.61,55.68,22,83.51,7.32,27.67,14.44,55.4,22.07,83,7.53,27.25,15.61,54.35,23.43,81.52q6.23,21.69,12.39,43.37c-1.39.46-2.37.88-3.39,1.12-15.17,3.52-30.27,7.32-45.51,10.45-30.47,6.25-60.76,13.28-91,20.58-30,7.25-60,14.65-90,22-23.17,5.66-46.3,11.47-69.51,17-35.13,8.32-70,17.5-105,26.54-34.51,8.94-69,18-103.51,27-8.61,2.22-17.32,4-26,6ZM1169,542c-21.62,6.63-43.63,11.79-65.5,17.48q-53.76,14-107.45,28.22c-53.71,14.18-107.75,27-161.54,40.83C807.76,635.39,781,642,754,648c-7.82,1.73-15.67,3.34-23.5,5-2.79.59-4,1.8-3.06,5,6.28,22,12.38,44,18.56,66,12.16,43.29,23.14,86.88,34.06,130.48,7.17,28.59,15.21,56.95,22.37,85.54,9.93,39.6,19.39,79.32,29.08,119,2.44,10,5.09,20,7.38,30,.35,1.51,1.45,2.52,1.85,4.38,16.67-4.28,33.45-8.62,50.26-12.89q53.25-13.54,106.5-27,33-8.33,66-16.5,59.24-14.57,118.51-29c30.29-7.32,60.66-14.35,91-21.56,2.56-.61,5-1.64,7.51-2.47h-1c-.33-1.67-.58-3.36-1-5-8.44-31.85-16.69-63.75-25.38-95.53-9.17-33.53-17.55-67.28-26.08-101q-10.74-42.43-21-85-8.93-36.71-17.5-73.5c-6.44-27.64-12.69-55.32-19-83Z"/>
        <path d="M1083.5,935l-7.5-32.5c-6.34-27.43-13.58-54.63-22-81.46a8.91,8.91,0,0,1,5-2.64c13.61-3.58,27.31-6.79,41-10,19.44-4.57,38.7-9.9,58-14.89,5.91-1.52,6-1.53,7.48,4.51,4.06,17,7.81,34,12.08,51,5,19.71,10.35,39.32,15.61,59.21-3.66,2.13-7.83,1.89-11.69,2.73-29.25,6.36-58.23,13.76-87,22-3.37,1-6.55,3.64-10.47,2.09Zm137,11c-2.71-3-2.4-7-3.4-10.53-7.35-25.78-14.72-51.56-21.51-77.49-5-19.05-9.11-38.31-13.58-57.48-1.9-8.15-3.92-16.29-5.41-24.52-.73-4-2.27-5.27-6.11-4-16.94,5.62-34.3,9.78-51.49,14.52-16.85,4.64-33.93,8.3-51,12-11.41,2.5-22.74,5.37-34.19,8.1.52,4.37,2,8.09,3.18,11.86,11.22,34.5,20.23,69.58,28,105,3.92,17.79,7.9,35.55,11,53.51.75,4.39,1.92,4.8,6.49,3.53,24.15-6.73,48.15-14.11,72.55-19.79,19.52-4.55,39-9.75,58.93-12.3,1.73-.22,3.34-1.27,5-1.94Z"/>
    </g>
</svg>
