<svg class="nirvanaPoster" 
    xmlns="http://www.w3.org/2000/svg" viewBox="0 0 1412 1882">
    <rect class="frame" x="1" y="1" width="1410" height="1880"/>
    <path class="pants" d="M596,1565.5c0,17.33-.06,34.67,0,52,.05,10.5-.4,21.07.68,31.48,1,10,0,20.07.9,30,1.82,19.35,2.37,38.81,5.81,58,2.76,15.42,4.41,31,7.2,46.46,2.07,11.41,4.29,22.8,7.26,34,1.63,6.19,2.17,12.68,3.49,19,1.6,7.64,4.41,14.92,6,22.49s4,14.7,6.19,22H1152.7c5.69-20.35,9.17-41.14,12.28-62,1.61-10.82,3.06-21.66,4.51-32.5,1.71-12.83,3.21-25.69,5.07-38.49.8-5.49,1.19-11.07,2.13-16.48,2-11.46,2.91-23,4.27-34.53.73-6.14.88-12.35,1.58-18.5,1-9,1.41-18,1.6-27,.17-7.87,1.67-15.59,1.66-23.49,0-6.76,1.76-13.59,1.71-20.5s.38-14,.82-21c.47-7.62.77-15.34-.33-23Z"/>
    <path class="pantsOverlapLine" d="M855,1828.5c1.47,14.47,2.75,29,3,43.5a52.38,52.38,0,0,1,1,9"/>
    <path class="skin" d="M902,330.5c0-.5-379-32.5-379-32.5,0,46.83,26,332,19.48,330.11C524,622.77,674,656.29,674.43,656.6c6,4.27,12.78,6.53,19.57,8.9a11.56,11.56,0,0,1,7.79,9.53c.51,3.43,1.33,6.87,1.3,10.47-.18,20.33-.09,64.37-.09,66.5H900.5Z"/>
    <path class="shirt" d="M868,1243.5c0-192.33,2.64-582.22,1-584,0,0-5.38,4-8.55,7-15.26,14.36-30.46,28.9-48,40.41-12.53,8.19-25.2,16.31-39.36,21.77-6.44,2.48-13,5.48-19.58,6-10.06.87-20.65.9-29.91-4.28-8.38-4.68-13.09-12.54-16.67-21.35-3-7.34-2.55-15-3.89-22.55-.27-1.51-.55-3-.9-4.92-6.42,4.44-10,11.27-15.71,15.78S680,961.5,680,1085.5Z"/>
    <g class="suitInner">
        <path d="M384,1105.5v184.27c-1.33.06-56.88,1.1-61,2.16a16.48,16.48,0,0,1-15.54-3.36c-11.73-9.71-14.84-22.92-15.93-37.07a110.46,110.46,0,0,1,1-27Z"/>
        <rect x="930" y="1354" width="163" height="198"/>
    </g>
    <path class="strap" d="M1125,1394c17.67-19,66.64-70.41,72.37-79.31,5.78,14.73,10.42,28.39,13.36,42.76,2.56,12.54,6.26,24.93,8,37.58,1.84,13,4.47,25.86,6.08,38.93,2,16.56,1.94,33.06,1.35,49.53-.35,9.77-.2,20.2-6.21,29Z"/>
    <path class="suit" d="M666.5,1580.5c-.44,5.92-3.64,10.85-6.09,16-6.92,14.43-17.53,26.26-29.57,36.35C618,1643.54,604.11,1653,587,1656.08c-2.33.43-4.71.62-7.06,1.28-3.85,1.06-6.52-1.58-6.43-5.86.18-8.35,1.54-16.61,1.55-25,0-9.67.71-19.33.89-29,.42-22.33.7-44.67,1-67l-2-80c-1.41-8.4.44-16.81,1.39-25,1.6-13.69.76-27.41,2.43-41.07s1.51-27.35,2.85-41c.53-5.35.83-12.52.83-12.52-4.91-.15-9.24,2.57-14,3-16.81,1.37-33.59,3.13-50.51,1.67-3-.27-5.94-1.18-9-1.14-11.67.17-23.14-1.62-34.49-4-11.61-2.5-23.27-4.63-35-6.59-5.68-1-11.35-2.24-17-3.34-7.16-1.38-14.3-3.49-21.51-3.83-12.59-.59-24.53-4-36.45-7.32-14.11-3.91-27.78-9.35-42-13-2.06-.52-4.55-.87-6.45-3.06,8.89-8.07,13.13-17.68,18.77-28.15C341,1255,345,1243,349,1229c-1.52-2.78-15-71.5-15-108.5l160,21c3.71-10,8.07-19.83,11.62-30,5-14.42,9.9-28.8,12-44,1.13-8.38,2.88-16.69,4.45-25,1.25-6.68,3.11-13.28,3.87-20,1.07-9.49,2.88-18.85,3.37-28.48.57-11.39,3.12-22.67,4.72-34,.94-6.65.79-13.61,2.72-19.94,3.25-10.69,3.4-21.75,5.09-32.59,1.85-11.87,3.2-23.86,6.33-35.44,4.09-15.1,7.61-30.36,13.16-45.11,4.66-12.4,7.33-25.49,12-38,4.34-11.64,10.87-21.06,20.7-28.44,7.89-5.92,15.84-11.78,23.47-18,14.35-11.76,43-30.46,43-30.46,1.64,5.55,30.54,256.91,32.43,265.52,2.14,9.76,3.62,19.67,5.6,29.47,2.2,10.86,4.12,21.82,7.12,32.47,2.79,9.88,3.27,20.47,8.75,29.6.61,1,111.19,100.35,117.1,102.44,0,0,0-23.53-1-30-2.58-16.74-2.82-33.68-4.34-50.52-1.19-13.25-.41-26.67-1.27-40-1.21-18.7-.15-37.37.45-56,.24-7.39,2.64-15,4.13-22.51,2.24-11.32,61.83-330.73,66.52-330.66,22.66.35,79.22,5.09,80,5.67,12.94,9.67,28,14.75,43,19.9,11,3.78,22.35,6.6,33.45,10.14,8.59,2.74,17,5.88,25.51,9,6.69,2.44,13.73,4,20,7.51,7.76,4.33,15.37,8.5,21.82,15.18,5,5.23,11.34,9.66,17.2,14.29a40.77,40.77,0,0,1,11.64,14.93c3.14,6.58,6.23,13.13,10.56,19.28,7.49,10.62,14.55,21.64,21.22,32.84,5.65,9.49,9.57,19.88,14.12,29.93,1.41,3.12,3.84,5.85,4.86,9a113.74,113.74,0,0,0,13.71,28.89c12.73,19,24.57,38.45,32.38,60.08,2.9,8,7,15.59,9.82,23.57,6.74,19.17,14.48,37.95,21.75,56.91,6.46,16.88,13.37,33.59,20.89,50,5,10.93,9.74,22,15.53,32.49,7.87,14.31,10.75,29.85,11,46,.16,9.42-1.08,18.75-2.62,28s-3.3,18.7-6.92,27.5a173.79,173.79,0,0,1-18.46,34c-9.59,13.64-19.5,27-29.88,40.1-12.67,16-26.13,31.23-39.08,46.94-8,9.69-15.65,19.68-23.54,29.46-10,12.44-18.82,25.87-30.39,37.11-4.93,4.79-6.92,10.87-6.82,18.4.48,38.16-129.57,113.16-129.78,110-1.16-17.6-7.78-33.47-17.26-47.83a151.38,151.38,0,0,0-20.24-24.67Z"/>
    <g class="suitOverlapLine">
        <path d="M585.84,1325.47a12.66,12.66,0,0,1-3.82,5.44"/>
        <path d="M574.5,922c2.5,1.48,7.79,19.16,9.81,25.56a74.3,74.3,0,0,1,3.07,19c.69,16.48.9,33,1.06,49.49,0,5.83-1.42,11.76-.77,17.48,1.43,12.56-.69,25-.17,37.52.51,12.33.57,24.7,1.61,37,1.22,14.33,1.75,28.7,2.54,43,.55,10.09,1.66,20.23,1.23,30.5a239.33,239.33,0,0,0,.62,25"/>
        <path d="M1129.5,1143c-5.85,2.12-7.65,5.52-11,10.49-7.33,10.84-13.68,22.3-21.92,32.56a299,299,0,0,1-33.5,36c-6.33,5.67-12.81,11.23-19.27,16.68-11,9.31-22.34,18.31-33.38,27.64-9.61,8.13-23.91,16.44-33.94,24.07"/>
        <path d="M1014,906.5c9.67,12.5,19.57,24.83,28.94,37.55,10.18,13.82,19.22,28.38,25.56,44.45a301.14,301.14,0,0,0,19.43,39.54c6.36,11,12.53,22.25,18.87,33.29,6.09,10.62,10.1,22.11,16,32.79,3.68,6.69,8.81,23.38,8.72,24.38"/>
    </g>
    <g class="suitFoldLine">
        <path d="M1195.5,1111a105.12,105.12,0,0,0-20.5-.43,190,190,0,0,0-33,4.88,42.29,42.29,0,0,0-17.4,9.16c-4.3,3.57-4.26,11.56-.56,15.87,2,2.27,4,3,7.52,2.24,9.5-2.09,19.29-1.66,28.94-.64,5.38.57,10.68,1.92,16,2.92"/>
        <path d="M977,904c2.63,4.3,5,8.72,8.45,12.54,7.39,8.27,16.48,14.2,26.08,19.4,5.5,3,11.09,6.13,17,7.85,5.55,1.6,11.33,2.64,16.94,4.21"/>
    </g>
    <g class="button">
        <path d="M852.5,1001.5c0,5.42.91,10.28,4.92,14.58,7.31,7.84,16.87,7.48,25,1.83,7.51-5.2,8.49-17.11,2.87-24.77-6.87-9.37-23.57-9.64-29.27.38-1.32,2.33-3.75,4.3-3,7.48Z"/>
        <path d="M888.5,1139c-10.72,2.14-17.57,8.39-17.08,19.5.54,12.22,13.76,20.69,24.5,14.86,4.63-2.51,9.56-4.89,11.27-11.31,2.76-10.38-4.81-22.29-16.69-23-.5,0-1,0-1.5,0Z"/>
    </g>
    <g class="lapel">
        <path d="M822.15,987.5c-.44-17-1-34-.44-51,.28-9,.22-18.15,1.58-27,1.54-10,1.57-20.07,2.41-30.07,1.31-15.64,2.54-31.32,4-47,1.36-14.38,2.6-28.8,5.49-43.08,2.06-10.15,3.48-20.42,6.26-30.45,3.32-12,6.21-24,9.58-36,4.34-15.38,10-30.46,13.21-46.06,4.82-23.76,30.12-71.19,31.84-74.62,5.16,5.77,34.75,40.4,34.8,41.67.37,9.33.92,18.69.5,28-.63,14-.33,28-1.22,42-.54,8.61-.15,17.38-.48,26-.55,14.58-4,28.68-15.17,39.53-3.45,3.35-7.64,5.22-12,7.06-4.53,1.93-9.36,3.73-12,8.43-1.29,2.29-1.92,4.46-.07,7,4,5.62,7.25,11.7,6,19a45.9,45.9,0,0,1-8,19,224.19,224.19,0,0,0-20,34.5c-5.32,11.26-11.52,22.12-16.31,33.58a293.11,293.11,0,0,0-13.4,38c-3,11.34-6.41,22.56-9.19,33.94-1,4.17-2.83,16-4.56,20C824.15,1002,822.21,989.72,822.15,987.5Z"/>
        <path d="M655.5,858.5c1.44,11.75,5.86,22.7,8.89,34C669,910,675.16,927,679.66,944.46c3.79,14.75,15.34,43,15.34,43-2-9.5,0-22.71-1.07-30.49-1.88-14-1.5-28-2.72-42-.46-5.25-.64-10.64-.73-16-.28-17-1.08-34-.82-51a268.75,268.75,0,0,1,2.27-31.51c.87-6.45,1.16-13,1.55-19.49.89-15,1.08-30.07,2.74-45,1-9.33,2.09-18.66,2.73-28,.42-6.15.46-12.33.53-18.5.07-6.54.16-13,1.46-19.51.39-2,.06-4.07.06-6.11l-1.34-.28L667,708Z"/>
    </g>
    <path class="strap" d="M686,663c-5.54,5.79-10.87,7.87-15.47,14.52-4.46,6.46-8.76,13-11.6,20.45-3,7.95-7.13,15.52-9.8,23.57-3.6,10.84-5.32,22.17-7.18,33.45-3.2,19.41-3.2,39-2.89,58.51.21,12.73,1.73,25.39,3.49,38s4.58,25,5.77,37.53c1.17,12.39,3,24.67,4.53,37,1.67,13.25,1.84,26.68,3.24,40,1.3,12.32,1.42,24.67,2.09,37,.87,16.12-1.62,31.72-3.89,47.55-2.48,17.22-7.76,33.52-12.93,49.92a21.6,21.6,0,0,0-.72,9c.48,4.52,6.7,6.42,11.37,4,7.08-3.62,11-9.94,12.78-17.07,1.9-7.76,4.72-15.27,5.44-23.43.63-7.16,1.9-14.33,2.19-21.52.88-22.52-.1-45-1.41-67.5-.22-3.66-.41-7.33-.5-11-.27-12.06-1.84-24-3-36-1-10.66-1.44-21.43-3.22-32-1.13-6.7-1.48-24.3-1.65-26.55a729,729,0,0,1-2.1-74.49c.28-10.17.7-20.4,1.7-30.48,1.4-14.09,3.07-28.29,6.86-42,4.4-15.92,10.9-35.53,17.72-40.66C696,683,699,684,701,680c0,0-.32-10.48-5-13Z"/>
    <path class="hair" d="M710,380c2.2-.87,4,.26,6,1,7,2.44,14,4.8,21,7,4.78,1.5,10.17,1.8,14.39,4.21,9.28,5.31,17.81,11.72,24.68,20.26a102.78,102.78,0,0,1,17.6,31c1.4,4.07,2.24,8.63,5.16,12.2,11.29-9.81,14.31-16.44,16.86-31.61,1.67-9.91,1.59-20.15,6.57-29.65,4.49-8.58,16.8-16.09,26.21-13.33,15.45,4.53,24.94,15.28,28.88,30.49,3.23,12.44,1.9,24.84-2.76,37-3.54,9.24-5.69,18.87-5.17,29a22.77,22.77,0,0,1-3.55,13.92c-3,4.44-7.3,7.89-12.89,8.43-2,.18-3.48.92-3.89,2.18-3.42,10.71-7.21,21.35-9.05,32.48a162.31,162.31,0,0,0-1.63,19c-.59,12.86-1.59,25.66.4,38.53.51,3.25,1.34,6.59,1.17,10a25.73,25.73,0,0,0,3,14,113.64,113.64,0,0,0,3.73,10.89c9,18.78,23.53,30.89,44.78,33,8.9.87,18,.47,25.9-4.62.48-3.23-1-5-3.34-6.82a35.57,35.57,0,0,1-9.58-11.4,3.42,3.42,0,0,1,0-3.51s1.34-.7,3.5,1c8.83,7,18.15,12.44,29.42,15.3a121.77,121.77,0,0,0,36.08,3.64c8.86-.43,17.65-1.28,26-4.86,7.42-3.17,8.76-8,2.37-12.43a113.27,113.27,0,0,1-10.85-9.2,36.73,36.73,0,0,1-12.52-29,8.83,8.83,0,0,1,.47-3.5c5.09.92,8.41,5.09,13,7.08,6.91,3,13.93,5,21.53,5,3.13,0,5.86-.65,8.18-3.18a13.84,13.84,0,0,0-5.23-5.78c-9-5.58-11.94-14.76-14.37-24.1-1.61-6.22-2.25-12.68-3.62-19-1.89-8.64-1.45-17.42-.76-26,1.4-17.57,1-34.83-3.11-52a227.25,227.25,0,0,0-11.49-34,319.72,319.72,0,0,0-18.71-38.9c-5.33-9.18-12.44-17.23-18.53-26-11-15.84-21.7-31.88-30.25-49.16-10.23-20.68-22.64-40-35.85-58.77-5-7.05-11-13.54-16.78-20.16a260.69,260.69,0,0,0-25.48-26,216.91,216.91,0,0,0-28-21c-3.06-1.9-5.85-4.3-9-5.93A153.23,153.23,0,0,0,749,181c-19.55-2.41-39-.38-58.5.94A273.64,273.64,0,0,0,658,186.11a155.19,155.19,0,0,0-36.65,11.61c-5.37,2.49-10.82,5.05-16.32,7.39-12,5.1-21.63,13.62-31,22.39-5.31,4.94-8.21,11.51-12.15,17.4-4.57,6.81-7.24,14.41-10.72,22-14-5.86-22.56,2.2-30.63,11.55a79.18,79.18,0,0,0-12.89,20.55c-7.78,18.14-15.31,36.36-19.3,55.91A231.42,231.42,0,0,0,484.23,389c-.57,10.45.59,21,1.33,31.49.59,8.51,1.63,17,2.59,25.48,1.63,14.56,4.24,29,6.33,43.52,1.63,11.3,4.07,22.51,4,34,0,3.87.94,7.62,1.11,11.5.77,17.17,2.28,34.32,2.78,51.5.41,14.15.07,28.34-.46,42.5s-.67,28.24-3.65,42c-2.58,11.85-4.15,24.24-11.62,34.65-1.72,2.39-5.71,4.44-3.65,8.65,0,0,6.32-3.8,9.83-7.89A79.08,79.08,0,0,0,505.09,688c7.3-15.84,14.33-31.69,17.5-49,1.27-6.94,4.58-16.19,6.41-23,0,0,3,7,2,19-.37,11,0,13.06-1.12,24-2.07,19.54-8.64,37.38-22.38,52a5.59,5.59,0,0,0,5,2.53c9.35-.8,17.12-6.3,26-8.59,5.19-1.34,8.63-5.78,13.09-8.32,15.88-9,28.11-21.38,36.43-37.62,0,0,1.67-5.3,1.82-4a46.41,46.41,0,0,1-2.69,23c-2.83,7.25-7.74,12.77-12.64,18.44-1.15,1.33-2,3.15-1.35,4.43.85,1.56,3,1.92,4.86,1.58a98,98,0,0,0,16-4c8.8-3.16,17.33-7.11,24.38-13.15S632.54,672.71,635,663a2.31,2.31,0,0,1,2-1.94c1.76-.23,1.76,1.47,1.94,2.46.95,5.22,1.16,10.58-1.12,15.41-.92,2-.85,3.57.27,4.45s3.61,1.59,4.84,1c13-6.15,31.7-27.35,30.62-28-7.56-4.47-13.94-10.19-21.17-15.23-15.82-11-28.21-25.53-41.17-39.36-6.89-7.36-12-16.57-17.05-25.4-2.57-4.44-5.67-8.55-7.79-13.35-6.91-15.62-10.13-32.32-14.7-48.6-2.52-9-6.22-17-12.2-23.93-6.27-7.34-12.52-15-14.2-24.57C544.07,459,542,455,540,445c-3-18-1.93-33.68-3.89-50.51-.54-4.59,1.36-9.67.08-13.9-1.39-4.56.77-7.32,2.38-10.55a25.46,25.46,0,0,1,3.94-5,114.56,114.56,0,0,0,21.12-35.46c.57-1.52,3.57-1.42,4.37-.55,7.31,8,16.11,14.28,24.56,20.92,4.16,3.27,8.63,6.6,13.51,8.38,7.84,2.86,14.51,7.71,21.82,11.41,6.52,3.29,13,7,19.71,9.53A480.2,480.2,0,0,1,713.51,410c11.85,6.74,23.39,13.82,34.15,22.32a91.81,91.81,0,0,0,10.84,7.2c0-1.57-11.23-21.55-18-29C728.78,397.33,710,380,710,380Z"/>
    <g class="hairOverlapLine">
        <path d="M785,322.5c-8.61-10-18.88-18.22-29.08-26.39-16.38-13.11-34.48-23.7-53-33.53-16.87-9-35-14.81-53.46-19.57-3-.76-6-1.34-9-2"/>
        <path d="M947,453.5c8.31,12.61,13.65,26.58,17.36,41a197,197,0,0,1,6.54,46c.24,16,5.32,37.78,8,53.52"/>
        <path d="M890,514.5c1.9,19.59-1,39-1.89,58.5-.48,10.76-.07,21.42,3,32.1A108,108,0,0,0,897.55,622,103.35,103.35,0,0,0,904,632.5"/>
        <path d="M536,374.25a150.73,150.73,0,0,0-9,32.25,425.65,425.65,0,0,0-3.9,43.5c-.35,7.48.21,7.54-.1,15a78,78,0,0,0,2.5,20"/>
        <path d="M581.5,581c4,6.09,5.34,13.12,7,20,3.83,16.33,3.44,36.84,1.67,53.5"/>
        <path d="M807,395.5c-9,1.53-18,.12-27-.19-8.53-.29-20-2.14-28.51-3.31"/>
        <path d="M525,599.5q2.5,9.5,5,19"/>
        <path d="M639,645.5c.39,5.53-1.58,10.68-2.5,16"/>
    </g>
    <path class="endPin" d="M1108,1704.5c-.55,5.25,1.68,9.93,3.65,14.44,2.35,5.4,14.66,7.78,19.29,4a49.45,49.45,0,0,0,7.81-7.23c4.48-5.59,5.23-11.36,2.57-17.12-3.11-6.72-9.19-9.92-16.82-9.58Z"/>
    <path class="guitar" d="M623.5,1234c3.14,1.71,6,3.87,9.49,5a115.48,115.48,0,0,0,22,4.73c18.6,2.45,34.34-1.19,45.47-17.3,5.19-7.5,8.18-15.81,10.49-24.85,2.54-9.91,2.18-19.11,0-28.6-3.13-13.77-10-25.89-16.94-38-8.85-15.57-19.75-30-26.12-47-4.12-11-2.82-21.27,8.07-29.08,7.39-5.29,15.28-5.8,24-4.61,14.74,2,29,5.72,41.89,12.81a194.82,194.82,0,0,1,49,38.41,521,521,0,0,1,46.14,56.88c11.79,17,22.56,34.52,33.44,52a112.2,112.2,0,0,0,26.59,29.87,208.18,208.18,0,0,0,28.53,18.89c7.36,4,14.32,8.6,21.79,12.4,9.7,4.93,19.94,8.82,29.08,14.84,0,0-16.88,14-26.49,20-8.88,5.61-17.91,11-26.37,17.19-2.53,1.85-5.06,3.89-7.62,5.82-7.34,5.55-8.92,13.46-8.38,22a29.13,29.13,0,0,0,.36,4s86.51,96.58,93.82,104.71,16.81,13.91,25.76,20.17c4.72,3.31,10.13,6.42,16.4,4.07a103.79,103.79,0,0,0,12-5.48,208.87,208.87,0,0,0,42.48-30.51c10-9.13,20.26-18.12,29.41-28.08,13.5-14.7,26.13-30.21,39.13-45.38l1.25-1c7.72,4,13.44,10.22,18.8,17,11.47,14.4,19.86,30.48,26.39,47.56a279.53,279.53,0,0,1,8.69,27.45c2.25,8.42,4.49,16.87,4.21,25.52a289.16,289.16,0,0,1-2.56,33.55c-2,13.32-6.51,25.74-10.3,38.45-3.52,11.82-9.41,22.57-14.84,33.58a272,272,0,0,1-26.25,42.35C1160.79,1659,1148,1673.59,1135,1688c-7,7.8-14.12,15.56-21,23.52-5.94,6.89-12.74,12.92-18.63,19.89a312.85,312.85,0,0,1-22,23.5c-9.35,9-19.6,17-29,26-10.36,9.94-21.84,18.6-33.46,27-3,2.14-22,15.08-28.67,18.1-13.26,6-26.49,12.67-41.78,13.74-10.88.77-21.51,2.17-32.55,1-10.48-1.14-20.83-2.31-31-5.23-13.37-3.85-26.68-7.58-39.09-14.34-9.84-5.36-18.15-12.48-26.29-19.8-7.34-6.6-14.8-13.51-20.36-21.55-7.62-11-16.35-21.18-23.78-32.31-3.51-5.27-7.22-10.41-11-15.51-6.93-9.36-12.14-19.78-18.44-29.54-3.56-5.52-6.7-11.31-10-17-7.26-12.31-10.94-26.3-18.43-38.54-8.51-13.91-15.46-28.62-28.42-39.64-17.37-14.78-34.77-29.14-55-40-15.7-8.42-31.09-17.47-47.15-25.21-9.41-4.53-18.06-10.24-27-15.61-5.73-3.45-10.25-8.44-15.53-12.45a163.85,163.85,0,0,1-42.79-47.65c-3.53-6-7.67-12.07-8.7-19.39-.83-5.88-2.5-11.77.53-17.49a29.76,29.76,0,0,1,9.95-10.56c12.84-8.86,28.31-7.77,39.93-.28,10.45,6.73,21.08,12.58,33.1,15.86s23.5,6,36.11,1.24c11.29-4.28,21.07-9.63,27.92-19.76,8.33-12.32,9.61-25.87,6.91-40-1.34-7-4.77-13.4-7.43-20Z"/>
    <path class="bridgeBottom" d="M929,1637l-38-42,84-92,43,36Z"/>
    <g class="bridgeTop">
        <path d="M1000.59,1549.59c-7.24,7.44-13.74,15.59-20.59,23.41-12.09,13.77-24.07,27.65-36.37,41.23-5.74,6.35-11.48,12.69-17.12,19.13-2.55,2.9-3.55,4.59,1,9.65,7.52,8.66,8.94,8.58,16.53,0,9.24-10.42,18.73-20.61,28-31,15.28-17.27,30.37-34.69,45.63-52,4-4.58,8.37-8.88,12.7-13.19,3.21-3.18,1.78-4.61-.82-7.3a71.77,71.77,0,0,0-6.69-6.53,3.89,3.89,0,0,0-5.1.14C1013.8,1536.73,1005.83,1544.19,1000.59,1549.59Z"/>
        <path d="M978.84,1502.07a3.5,3.5,0,0,1-.25,4.38c-28.18,31.15-56.3,62.45-85.2,93.71a1.91,1.91,0,0,1-2.78,0c-3.63-3.84-7.35-6.75-9.73-11.1a3.19,3.19,0,0,1,.41-3.7L909,1555q25.5-28,51-56c1.91-2.12,3.27-4.75,5.75-6.19a2.89,2.89,0,0,1,3.16.22C971.34,1494.82,976.56,1498.87,978.84,1502.07Z"/>
    </g>
    <path class="pickguard" d="M919.5,1367.5c-9.34-13.28-20.35-25.11-33.63-34.31-10-6.9-21.27-11.68-32.33-16.78-13.31-6.14-26.76-11.87-40.5-17a175.75,175.75,0,0,0-74-10.71A99.26,99.26,0,0,0,702.5,1298L666,1378.5c3,13.36,1.78,26.11-4.43,38.54-8.31,16.62-19.66,30.54-36.67,38.24-14.69,6.64-30.51,8.91-46.91,7.93-11.29-.67-22.12-2.24-32.49-6.72-4.86-2.1-9.81-4.07-14.44-6.59-2.45-1.34-5.16-1.61-7.66-2.67s-5.25.63-6.93,3.25a5.62,5.62,0,0,0,0,6.54,118.72,118.72,0,0,0,26.09,30.41c8.75,7.35,18,14.15,27.18,20.92C583.56,1518.47,599,1525,614,1532.46c10.9,5.38,21.84,10.65,32.5,16.5a205,205,0,0,1,49.74,37.77,222.21,222.21,0,0,1,26.39,33.17,319.3,319.3,0,0,1,21.74,39.15c4.59,9.91,10.23,19.24,15.36,28.81,4.5,8.39,9.37,16.7,14.71,24.66,5.86,8.72,12.6,16.74,19.14,24.9,3.43,4.29,7.9,7.75,11.9,11.58,2,1.88,14.88,11.26,20,13,10.68,3.6,25-1.77,30-11.51,5.14-10,5-20.3.5-30.46-3.63-8.26-8.34-16.11-11.26-24.59s-6.48-16.67-8.94-25.36c-4.93-17.4-4.16-34.9-3.91-52.57.15-10.37,2.86-20.3,6.59-29.32,4.84-11.7,12.08-22.73,24-29.19C863.55,1558.42,919.5,1367.5,919.5,1367.5Z"/>
    <g class="knob">
        <path d="M806,1660.5c1.47-10.9-4.44-18.16-15-17.93-5.56.12-9,3.86-11.47,8.45-4.95,9.34.22,21.55,12,22.5,6.7.54,14.77-6.58,14-12.52Z"/>
        <path d="M816.53,1713.05a14.31,14.31,0,0,1,13.24-2.65c4.45,1.45,7,4.72,8.73,10.6,2,6.66-.55,12.74-6.5,15.5-9.24,4.29-18,.78-22-8.75-1.61-3.88.34-7.16,2.1-10.2A19.27,19.27,0,0,1,816.53,1713.05Z"/>
        <path d="M756.94,1573c-4,4.62-5.2,11.4-2.44,16.55s10.13,8.69,16,7.5c11.61-2.35,16.07-12.75,10-23a9.94,9.94,0,0,0-5.06-4.14,17.79,17.79,0,0,0-14.18.15A12.51,12.51,0,0,0,756.94,1573Z"/>
    </g>
    <path class="pickup" d="M743.5,1462.5c11.12-.6,15-9.28,18.31-17.58,3.2-8.07,6.89-15.92,10.33-23.86,9.76-22.51,20.12-44.76,30.4-67,3.7-8-.65-14.6-6.55-17.49-9.73-4.76-16.33-1.74-20.52,7.46-4.36,9.56-9,19-13.46,28.51q-14.55,31.23-29,62.51c-.44,1-.43,2.18-1,3-6.93,8.72-1.75,20.16,8.08,23.41a16.82,16.82,0,0,0,3,1.12Z"/>
    <path class="fretboard" d="M59,874.5c1.16,4.26,2.27,8,6.35,11.19,11.75,9.13,22.75,19.22,34.16,28.79,15.78,13.24,31.7,26.3,47.47,39.54,9.42,7.9,18.62,16.05,28,24,11.6,9.75,23.57,19.06,34.9,29.11,9.21,8.17,18.72,15.95,28.1,23.88,16.09,13.6,32.36,27,48.47,40.55,11.57,9.74,22.94,19.73,34.53,29.46,15.76,13.25,31.7,26.29,47.46,39.54,11.59,9.73,23,19.72,34.54,29.46,13.76,11.58,27.7,23,41.46,34.54,11.58,9.74,23,19.72,34.54,29.46,13.76,11.58,27.7,23,41.46,34.54,11.58,9.74,23,19.72,34.54,29.46,13.76,11.58,27.7,23,41.46,34.54,11.58,9.74,22.92,19.76,34.55,29.45,10.92,9.09,21.5,18.6,32.93,27.08,3.25,2.41,5.46,2.59,8.62-.47,12.25-11.87,22.71-25.3,34-38,7.2-8.14,14.59-16.11,21.44-24.55a18.38,18.38,0,0,0,1.61-2.44c4.2-7.23,4.3-7.93-2.13-13-11.36-9-22.87-17.83-34.42-26.62-17.74-13.5-35-27.67-52.58-41.38-17.24-13.45-34.67-26.67-52-40Q561.72,1181.79,535,1161c-29.49-22.84-59.12-45.51-88.47-68.54-28.21-22.15-56.68-44-85-66s-56.72-43.94-85-66-56.71-43.95-85-66c-28.11-21.91-56.09-44-84.53-65.47-2.68-2-4.34-5.6-8.53-5Z"/>
    <path class="head" d="M86.45,780c1.37-5.19-.2-9.69-5-12.39-1.49-.84-3-1.84-4.36-2.73-18.66-11.75-38.16-22-57.53-32.46C13.43,729.1,7.23,726,1,723V871.89A68.87,68.87,0,0,1,21,867a63.08,63.08,0,0,1,35.5,7L96,827.5c0-3.43-2.17-6.14-3.61-9C86.15,806.29,82.81,793.76,86.45,780Z"/>
    <path class="nut" d="M94.5,818.5c-6.66,3.58-11.08,9.62-15.93,15.07q-12,13.53-23.16,27.86c-2,2.56-2.67,5.67-4.77,8.19-1.64,2,2.13,7.58,5.84,9.91,3,1.86,5.06,1.23,7-1.51,8.12-11.28,17.07-21.89,26-32.47,5.11-6,9.55-12.7,15.93-17.64-1.35-6.76-4.53-9.78-10-9.41Z"/>
    <g class="skin">
        <path d="M226.32,1037.26c9.65-7,20.24-12.69,29.35-20.56,2.81-2.42,7.87-4.17,11.76-2.07,9.67,5.24,15,13.36,12.52,25.86s-9.21,22-19.9,29.08c-6.36,4.19-11.84,9.53-14.49,17a71.43,71.43,0,0,0-2.56,12c1.36,1,5.91-4.55,8-6.06,8-5.86,15.85-11.85,24-17.57,11.19-7.89,21.4-17.16,34.06-22.93,5.53-2.52,14-1.4,18,3.06,5.82,6.46,6.43,15.84,2.67,24.08-1.73,3.81-4.25,6.74-6.45,10.07-2,3-5.88,4.11-6.9,7.94,2.09,1.83,4.11,3.66,6.19,5.4,8.15,6.85,16.54,13.44,24.41,20.6,5.05,4.59,11.49,8.31,13.49,15.44a66,66,0,0,1,2.59,17,184.09,184.09,0,0,1-2.45,30,249.13,249.13,0,0,1-8,34c-3,9.87-5.65,21.22-10.53,30.49-5.16-.57-10-2.24-15-3-13.47-2.19-26.77-5.1-40-8.33-16.57-4.05-30.8-11.56-42.53-24.07-7.6-8.11-15-16.36-24.84-22.23-6.72-4-11.36-10.65-14.51-17.87a26,26,0,0,0-9.07-11c-6.62-4.77-11.82-10.75-13.45-19a70.67,70.67,0,0,0-5.54-16,75.23,75.23,0,0,1-5.2-17.55c-2-10.45-2.13-21.27-2.79-31.94-.57-9.1,1.23-18,2.33-27,1.3-10.6,3.37-20.79,8-30.52a111.64,111.64,0,0,1,20.33-29.71A103.19,103.19,0,0,1,233,968c6.29-2.77,17.52,2.37,18.86,9,1.68,8.32.69,16.56-3.91,24-4.9,7.91-11.29,14.7-16.87,22.09-3.54,4.68-11.25,12.13-11.1,18.93C220,1042,222.66,1039.93,226.32,1037.26Z"/>
        <path d="M782.5,1500c-10.74,4.16-14,16.9-3.64,27.14,7.69,7.65,15.92,10.26,26.14,7.36l.5-.5c1.57,11.77,8.9,19.2,19.57,22.25,9.78,2.78,18.61-1.29,26.43-8.23,2.17,1.56,2.21,4.82,4,7,8.15,10,24.49,11.79,35.62,5.15a192.37,192.37,0,0,0,31.36-23.7,241.13,241.13,0,0,0,29.67-32.86c11-14.51,19-30.71,28.26-46.16,2.82-4.68,6-8.53,10.55-11.53,4.95-3.23,10.44-8.18,15.53-12.13-23.21-30.29-47.09-59.65-80.8-79.89a46.26,46.26,0,0,1-19.22,7.27c-9.78,1.42-19.07,4.07-28.48,6.74-7.05,2-13.73,4.93-20.42,7.71-20.31,8.42-35.8,23-50.17,39.28-8.53,9.65-16.86,19.47-25.28,29.19a163.68,163.68,0,0,0-15.49,21c-7.26,11.76-7,18.82,4.43,29.39a78.74,78.74,0,0,0,7.46,5.54Z"/>
    </g>
    <g class="skinOverlapLine">
        <path d="M293.5,1167c9.74-3.06,16.12-9.78,21.09-18.45a29.54,29.54,0,0,0,3.94-20.06c-1.39-8.82-10-14.2-18-10.4-13,6.18-26.07,12.31-38.38,19.67-5.88,3.52-10.48,9.42-14.72,15.2a54.52,54.52,0,0,0-7.72,13.94c-3.2,8.86-.87,16.12,4.47,22.44,3.13,3.7,5.87,8.1,10.31,10.66"/>
        <path d="M828,578.5a98.76,98.76,0,0,1-17.39,33.59c-5.89,7.59-11.74,15.17-18.6,21.92a206.48,206.48,0,0,1-20.83,17.73c-6.57,5-25.06,12.61-27.17,13.28-14,4-33.68,5.66-48,2"/>
        <path d="M329,1125c12,12,12,12,16.33,20.58,4.8,9.55,7.63,19.71,4.81,31-3.69,14.72-10.95,26.34-24.64,33.46"/>
        <path d="M219.5,1042.5c-6.17,11.3-14.7,22.77-21.23,33.86-4.51,7.64-4.59,15.54-5.24,23.64-.18,2.15,0,4.33,0,6.5"/>
        <path d="M843,1505c-10.93,11.14-24.4,19.4-37,28.5"/>
        <path d="M813,1473.5c-6.13,9.14-12.58,13.47-21,20.07-2.27,1.79-5,3.43-9,5.93"/>
        <path d="M243.5,1099c-6.67,7.26-9.64,9.87-14.5,17-2.14,3.87-4,7-6,11.5"/>
        <path d="M871,1531.5c-5.26,6.74-12.71,11-19.07,16.42"/>
        <path d="M316,1096.5c-6.23,6.54-14.45,11-21.56,16.42s-15.95,11.17-21.47,18.56"/>
    </g>
</svg>
