<svg id="odinTaiwanGate"
    xmlns="http://www.w3.org/2000/svg" viewBox="0 0 1358.7 983">
    <title>Odin Taiwan gate</title>
    <path class="fur" d="M361.72,729c5.12,5.4,7.47,12.24,10,19,3.11,8.32,7.21,16.15,7.77,25.49.45,7.57-1.09,14.72-1.9,22-2.11,19.06-4.32,38.15-10.37,56.51,1.13,8.5-2.42,16.15-4.62,24-2.11,7.55-3.9,15.22-6.8,22.57-1.15,2.91-3.85,5.37-3.08,9l-.5-3a42,42,0,0,1-7,.17c-9.72-.33-19.57-1.29-29,2.34-5.72,2.2-11.68,4.15-16.44,8.07-6.84,5.65-10,14.05-12.23,22-2.66,9.36-5.75,18.71-7.37,28.4-1.2,7.15,6.3,16.5,13.54,16.5h103.5a24.48,24.48,0,0,0,19.91-9.56c6.73-8.51,10.83-18.6,15-28.48,6.27-14.93,11.25-30.39,17.3-45.38a501.6,501.6,0,0,0,20.82-63.07c1.59-6.19,2.67-12.62,5.13-18.45,4.3-10.14,7.34-20.68,10.74-31.1,3-9.26,7.09-18.27,8.51-28,.64-4.43,2.19-8.74,1.21-13.51-2.08-10.15-3.08-20.45-5.92-30.53-3.27-11.61-5.18-23.61-7.68-35.45l-1.5-3c.33.84.67,1.67,1,2.5,2.61-1.52,5,.37,7.49.58,7.87.67,15.57,2.47,23.5,3.08,11,.87,22,3.12,33,4.27a321,321,0,0,0,39,1.62c6-.11,12.06.88,18,.32,10.49-1,21-1.82,31.51-1.77,11.79.06,23.4-1.77,35-3.35,9-1.23,18.12-2.13,27.07-2.8,8-.6,16-1.56,23.93-2.37.17,3.46,2.73,5.91,4.06,8.91,4.59,10.41,9,20.8,17.3,29.19,2.84,2.86,6.16,5.66,8.14,9.34,3.6,6.7,9.93,10.89,15.25,15.75,7.6,6.93,17.12,11.59,25.7,17.36,6.62,4.46,13.79,7.89,20.73,11.62s12.38,9,19.74,12,7.25,6.66,4.21,14.75c-3.41,9.07-8.3,17.44-12.87,25.81A191.45,191.45,0,0,1,794.26,861c-9.94,10.69-21.48,16.83-36.55,16.08-12.22-.61-24.42-.2-36.52,2.77-13.53,3.32-25.34,8.52-31.46,22.12-.89,2-1.63,4-2.52,6-4.94,11-5.68,22.34-3,34,.78,3.36,2.83,5.13,6,6.58,11.55,5.33,23.53,4,35.57,3a10.51,10.51,0,0,1,.19,5.44c-1.33,5.91-1.67,12,2.22,17.49,4.26,6.06,10.21,7.51,17.06,7.49q33.49-.11,67,0c7.88,0,15.68-1,23.51-1.33,7-.27,12.08-3.76,16.93-7.77,8.09-6.69,15.69-14,23.4-21.06,9.35-8.58,17.2-18.49,26.34-27.21,5.16-4.92,9.4-11.11,14.69-16.29,7.83-7.68,14.84-16.21,23.65-22.85,6.6-5,11.35-11.66,16.94-17.57,5.35-5.65,10.38-11.61,15.54-17.46,6-6.84,9-15.28,12.55-23.47a54.46,54.46,0,0,0,3.8-14.55c1.13-8.78-1.69-17.34-2.63-26-2.14-19.7-11.15-36.85-18.94-54.38-5.34-12-12.83-23.07-19.27-34.61-5.74-10.29-11.14-20.77-17.11-30.93-2.29-3.88-3.38-7.4-1.4-11.56l1-.5c-1.79.3-1.92-1.21-1.43-2a40.16,40.16,0,0,1,5.47-7c16.12-15.31,27.56-34.22,39.12-52.76,8-12.8,13.9-27,21.41-40.24,8.4-14.78,13.45-30.93,17-47.14,3.34-15.34,6.68-30.95,7.06-46.9.19-8,.77-16-.21-24-.83-6.84-.84-13.86-3-20.49-1-3.23,0-4.4,3.06-5.06,9.17-2,17.78-5.63,26.53-8.9,5.27-2,10.73-3.44,16-5.49,9.27-3.6,18.56-7.09,27.49-11.53,7.07-3.52,14.42-6.5,21.45-10.09,8.38-4.27,16.87-8.26,24.67-13.75,6.11-4.31,13-7.55,19.47-11.51,12.8-7.86,25.31-15.8,36.61-25.94,8.69-7.79,17.67-15.51,25.89-23.64,7.73-7.65,16.07-14.91,23-23.51,7.83-9.73,17.47-17.86,25.42-27.56,11.4-13.92,23.51-27.24,32.56-43,3.56-6.18,9.11-11.15,12.35-17.58,7.49-14.92,14.92-29.88,22-45,7.44-15.91,12.9-32.54,17.64-49.45a202.57,202.57,0,0,0,6.68-39.05,63.26,63.26,0,0,0-3.34-26.45c-2-5.55-7.49-6.83-12.44-7.93-7.44-1.64-14.29.43-19.94,5.45-7.55,6.71-12.65,15-16.76,24.36-5.8,13.21-12.9,25.88-19.85,38.55-5.14,9.37-10.56,18.63-16.53,27.48-7.11,10.55-14.38,21-22.54,30.86-5.93,7.2-12.5,14-17.85,21.71-.08.11.06.41,0,.48-11.24,9.74-19.8,22.18-31.92,31.11-8.37,6.16-16.09,13.22-24.07,19.91-8.28,6.95-17.74,12-26.93,17.61-7.87,4.78-16.26,8.59-24,13.46s-16.35,8.34-24.61,12.31c-11.6,5.57-23.77,9.88-35.94,14.1s-24.88,6.78-37.48,9.6a277.71,277.71,0,0,1-54,6.68,65.26,65.26,0,0,1-21.55-3.07c-5.18-1.67-11-1.22-16.43-2.26-15.7-3-31.46-5.8-47-9.6-10-2.46-20.23-4-30.09-7.2-5.58-1.84-11.75-1.84-17.42-3.49-10.18-3-20.66-3.9-31-5.67-10.6-1.81-21.34-2.24-32-3.51-21.61-2.57-43.34-1.64-65-2.36-5-.16-10,1.23-15,.88-13.61-.92-27,1.52-40.52,2.19-11.48.57-23,1.28-34.47,2-10.21.62-20.33,2.66-30.52,3.8-6.8.77-13.72.66-20.48,1.66-7.34,1.08-14.85,1.14-22,3.37a5.53,5.53,0,0,1-2,0c-9.31-.75-18.38,2.18-27.5,2.19-7.58,0-15,.61-22.5,1.36-16.3,1.62-32.64,2-49,2.59-17.79.68-35.43-.63-53-2.84-9.76-1.23-19.42-3.76-29.07-6.11-12.19-3-23.87-7.51-36-10.61-16.91-4.33-30.67-14.43-45-23.59a23.37,23.37,0,0,1-2.23-1.86c6.94-7,9.39-16.09,12.63-24.66,5.46-14.44,5.92-29.76,7.24-44.95.77-8.82-1.17-17.35-1.09-26s-.92-17.38.93-26c2.88-13.38,5.7-26.76,6.56-40.49s1.08-27.37-.6-41c-.56-4.59-1.94-9.28-4.61-12.89-3.63-4.92-9.48-5.83-15.34-5.09-12.67,1.62-23.74,7.12-34,14.47-11.88,8.52-23.72,17-34.67,26.82-4.5,4-11.29,3.46-17.33,3.17-5.34-.26-10.67-.7-16-1-16.17-.85-32.33-2.16-48.5-2.29-7.61-.06-15.35.45-23,1-9.73.7-19.53-1.44-27.42-7.79C70.73,32.48,57.61,21.05,44.18,10a71.5,71.5,0,0,0-12-8.37c-2.32-1.22-5.4-.57-7.94,1.3-6.55,4.81-9.56,11.75-12.58,19C6.57,34,6.22,47.15,2.37,59.5c-1.2,3.86-.51,8.32-.49,12.45.06,12.5-2.47,25.07.8,37.51.76,2.93-.36,5.94-.06,9,1.17,11.66-.12,23.33-.42,35-.18,6.5-.76,13-.71,19.5.05,6.36-.2,12.7.75,19,1.94,12.82,1.86,25.88,5.39,38.53,3.29,11.8,8.85,22.53,14,33.53A202.08,202.08,0,0,0,34.7,287c9.47,14.93,21.13,28.17,32,42,6.5,8.24,10.59,17.86,15.46,27s8,19.31,12,29c3.38,8.15,7.55,16.09,9.8,24.55,3.16,11.86,7.78,23.21,11.12,35,2.15,7.57,4.71,15,7.09,22.47,1.53,4.81,4.38,9,6.71,13.39,4.51,8.43,9.06,16.77,13.17,25.43,2.75,5.82,7.11,11.3,11,16.76,10.33,14.43,20.64,28.84,32,42.47,9.63,11.52,20.26,22.1,30.08,33.43a10.7,10.7,0,0,0,3,2.49c7.62,4.12,9.9,10.83,10.06,19,.21,11.22,1.93,22.34,2.79,33.51.71,9.33.53,18.72,2.11,28a275.42,275.42,0,0,1,4,36c.49,12.78-1.7,25.2-5.27,37.54-2.88,10-7.52,19.16-10.66,29-3.55,11.07-10.31,20.79-13.5,32a224.82,224.82,0,0,1-11.16,30.93c-3.73,8.27-8,16.33-11.85,24.57-.09.2-.39.31-.48.51-1.28,2.86-1,7.27-4.08,8.27-4.73,1.52-9.8,2.72-14.93,2.2-10.88-1.08-21.27,1.15-31.5,4.54a48.1,48.1,0,0,0-6.49,2.51c-8.62,4.34-12.48,12.77-16.93,20.52-5.22,9.07-6.54,19.35-5.3,29.42.82,6.59,2.38,13.72,8.2,18.56a9.67,9.67,0,0,0,6.52,2.51c10.18-.06,20.45,1.21,30.48.6,13.51-.83,27.05.34,40.54-1.5,9.9-1.35,20-1.46,30-2.14,8-.54,13.92-3.63,18.8-10.79a220.36,220.36,0,0,0,12.65-20.23c7.09-13.35,15.59-25.86,23-39,5.09-9.1,9.22-18.73,14.13-27.93,6.32-11.86,14.11-22.9,19.89-35.05,4.22-8.88,10.46-16.56,14.56-25.48q4.25-9.24,8.5-18.5c4.11-9,9.91-17,14.14-25.93s8.77-18,14.78-26.12c.42-.57-.25-1.95-.42-2.95Z"/>
    <g class="furOverlapLine">
        <path d="M225.72,607.45c3.36,5.24,9.07,7.33,14,10.53,9.78,6.37,20.23,11.55,30.56,16.89,9.13,4.73,18.59,8.83,28,13.06,6.6,3,13.32,5.69,20,8.52"/>
        <path d="M834.72,784c4.72,6.3,12.75,7.71,18.51,12.49,3.24,2.7,7.47,3.87,10.55,6.95,2.19,2.21,2.29,4.49,1.42,7.06-3.62,10.68-10,20-14.88,30a235.88,235.88,0,0,1-38.7,56.86c-4.88,5.29-12.22,5.64-18.9,5.43-8.23-.25-16.37-.33-24.5,1.14-10.52,1.91-20.5,4.86-28.53,12.49-4.53,4.31-6.69,9.67-8.62,15.48-2.13,6.42-4.25,12.73-4.35,19.55"/>
        <path d="M693.72,542.45c.75,6.84-.9,13.61-.13,20.52,1.23,11,2.41,22,4.2,33,.92,5.66,2.1,11.25,2.56,17,.25,3.06,2.09,6,2.83,9,2.91,12.08,7.41,23.66,10.86,35.55,2.34,8.07,5.84,15.74,7.68,23.94"/>
        <path d="M302.72,622.45c5.59,9.54,9.49,19.9,14.84,29.59,6.61,11.94,14.42,23.24,19.57,36a26.73,26.73,0,0,0,4.23,6.35c5.58,7.17,8.33,15.95,13.79,23.16,2.84,3.74,6.38,7.13,7.57,12"/>
        <path d="M455.72,598.45c2.72,8.27,6,16.36,8.88,24.55,4,11.16,7.11,22.62,10.62,34,2,6.34,4,12.67,6,19"/>
    </g>
</svg>
