<svg viewBox="0 0 638.59 387.24">
  <path class="fur" d="M516.83,199c-.45,3,2,4.5,3.42,6.44A223.2,223.2,0,0,1,536.49,232c2.74,5.09,5.52,10.28,6.78,16,1.64,7.46,4.06,15,4.05,22.48a60.35,60.35,0,0,1-4.55,23.45,67.82,67.82,0,0,0-5.06,17.83,120.76,120.76,0,0,0-1.19,12c-.19,7.85,2,15.39,2.89,23.09.51,4.32,1.3,8.61,1.09,12.95s-3.15,7.08-6.08,9.89c-7.43,7.11-16.08,7.23-25.3,4.93a40.5,40.5,0,0,1-8.32-2.79,11.1,11.1,0,0,1-6.31-8c-.68-2.9-2.07-5.71-3.07-8.61a68.05,68.05,0,0,1-3.4-16.39,150,150,0,0,1,.63-31.12c.42-3.52.71-7.21,1.05-10.73.65-6.75-1.43-12.77-3.25-18.77a23.67,23.67,0,0,0-13-15.19c-10-4.55-19.77-9.31-29.32-14.69-11.4-6.41-22.3-13.29-30.21-24.05a20,20,0,0,1-2.72-5.58l-.31.92c-2.55,2.61-6.1,3.67-9,5.78a3,3,0,0,0-1.44,3.45c1.49,5.56,2.8,11.22,5.54,16.32S411.88,255,414.5,260c4.52,8.73,10.13,16.87,13.66,26.14,2.7,7.09,2.15,13.8-.58,20.7-.92,2.34-2.85,4-3.47,6.44-1.39,5.35-3.77,10.33-5.93,15.37-4.28,10-10.47,19-15.92,28.39-1.54,2.67-2.45,5.84-4.73,7.91s-1.87,5.68-4.2,7.83A32,32,0,0,0,389,378c-4.38,6.22-10.46,8.67-17.89,8.63-14.17-.08-28.34,0-42.51-.05-8.39-.06-14.42-5.82-14.75-14.15a41.21,41.21,0,0,1,4.32-19.38c2.17-4.56,6-7.82,10.18-10.39A20.33,20.33,0,0,1,340,339.47c5.3.24,7.45-1.6,9.65-6.7.88-2,1.5-4.17,2.36-6.21,3.29-7.79,6.59-15.6,8.83-23.75,1.29-4.68,1.08-9.62-2.07-13.82-4-5.34-9.06-9.65-14.17-13.85-8.24-6.76-17-12.87-24.64-20.35-2.13-2.09-4.39-4-6.65-6.11-3.07,1.8-5.81,3.88-9.36,3.94l.62.31c.48,5.6,2.08,11.12,2.28,16.65.37,10.16,1.54,20.28,1.19,30.49a54.38,54.38,0,0,1-3.33,17c-2,5.51-5.67,10-7.9,15.32-2.42,5.81-6.11,10.93-8.48,16.89-3.42,8.6-9,15.94-17.64,20.44a64.38,64.38,0,0,0-12.35,8.89c-4.66,4.06-10.45,5.43-16.29,6.87-7.58,1.88-15.22.93-22.82,1.09a7.54,7.54,0,0,1-6.94-4.92c-1.63-4-4.18-7.67-4.18-12.27,0-7.87.44-15.29,8.57-19.86,2.59-1.45,5-3.61,7.48-5.4.61-.42,1.19-1.1,1.85-1.19,5.89-.8,8.05-5.28,10.57-9.85,3.31-6,5.2-12.51,7.61-18.84,2.32-6.07,4.86-12.07,7-18.2a25.76,25.76,0,0,0,1.06-10.77,198.22,198.22,0,0,0-4.07-26.79,7.92,7.92,0,0,1,0-1.54l1.54-.93a19.79,19.79,0,0,1-8,.22c-7.32-1.25-14.6.06-21.89-.19-6.06-.21-12.14,0-18.18-.39a226.17,226.17,0,0,1-25-3.31c-4-.7-7.09,1.61-9.29,5.8a55.73,55.73,0,0,0-5,12.7c-1.37,5.63-3.62,11-4.25,16.9-.49,4.68-2.91,9-3,13.87-.08,2.87-1.5,5.53-2,8.33a86.77,86.77,0,0,1-5.64,17.22c-3.3,7.77-5.49,15.91-8.47,23.79a105.4,105.4,0,0,1-11.57,21.49,46.45,46.45,0,0,1-10.23,11,14.38,14.38,0,0,1-9.14,3.32c-13.65-.24-27.31-.13-41-.07-3.56,0-7.41-.32-10.35-1.55a13.72,13.72,0,0,1-8-10.51c-.62-3.87-.88-8.19,1.22-11.62,3.78-6.17,8.25-11.61,15.55-14.39,4.78-1.83,9.83-3.09,14.29-5.92a14.1,14.1,0,0,0,6.09-7.49c3-8.71,6.62-17.19,9.16-26.12a204.6,204.6,0,0,0,6.07-26.89c.9-6.36,1.85-12.84,1.48-19.38a37.59,37.59,0,0,1,.58-7.39c.58-4.06-.66-8-.69-12,0-7.82,1.14-15.61.88-23.41-.3-9.43-.86-18.87-3.51-28.06-.72-2.5-.37-5.31-.38-8a43.6,43.6,0,0,0-.64-8.31l.93-3.08c.09,1,.1,2.31-.65,2.7-4.28,2.25-8,5.4-12.57,7.22C77.23,186.13,67.56,188,57.79,189a34.31,34.31,0,0,1-20.31-3.59c-3-1.6-5.8-3.44-8.69-5.12-7.28-4.23-12.47-9.72-14.2-18.26a47.91,47.91,0,0,0-3-10.51,78,78,0,0,1-7.29-34.48A115.65,115.65,0,0,1,7.16,94.56c1.75-7.77.57-15.64-1.09-23.39S1.75,55.87,1.29,47.76C.81,39.12-.13,30.52,1.12,21.88c.75-5.18,2.14-10.1,5.2-14.5,2.92-4.2,5.12-5.16,9.87-3,5.73,2.58,10.7,6.43,15.72,10.15A96,96,0,0,1,47.73,29.08a8.33,8.33,0,0,1,1.45-.72,109,109,0,0,1,24.33-3.08,96.41,96.41,0,0,1,23.71,2.53c2.33.56,3.67-.19,5.29-1.58,2.53-2.17,3.64-5.32,5.76-7.79a96.71,96.71,0,0,1,15.52-15C128.2.22,133.13-1.09,138,3.34a36.85,36.85,0,0,1,7.27,10,117.49,117.49,0,0,1,5.28,12c1.06,2.65,2.51,4.81,5.27,5.83,2,.76,4.11,1.44,6.16,2.17,6.69,2.36,13.68,2.32,20.64,2.46,9,.18,17.9-.91,26.82-2,4-.5,8.15-.54,12-1.76,6.59-2.11,13.38-3.49,19.79-6.27,4.19-1.83,8.82-2.67,13.22-4.07,9.5-3,19.07-5.85,28.64-8.65,3.34-1,6.73-2.15,10.16-2.39,6.52-.45,12.9-1.83,19.4-2.31,2.36-.17,4.67-.75,7.09-.62a18.48,18.48,0,0,0,5.54-.6c4.66-1.23,9.46-1.17,14.18-1.77,3.26-.41,6.77.33,9.82-.25,6.64-1.27,13.11,1.09,19.8-.16,4.49-.85,9.43.38,14.12,1,11,1.5,21.54,4.8,32.33,7.13a131.83,131.83,0,0,1,28.36,10.09c2.7,1.28,5.26,2.88,8,4,9.3,3.62,17.6,9,25.47,14.93A119.45,119.45,0,0,1,501.5,65.88c4.46,6,8.19,12.35,12.17,18.59a91.39,91.39,0,0,1,8.94,19.07c1.51,4.3,4,8.13,5.5,12.34,3,8.87,7.59,17,11.9,25.18,4.11,7.85,10.25,14.37,16.42,20.52a119.05,119.05,0,0,0,19.82,16.23,62.49,62.49,0,0,0,21.91,8.59c6.51,1.27,13.18,1.18,19.71,2.19,6.85,1.06,13,3.64,17.23,9.53,2.62,3.69,4,8,2,12.24a19.19,19.19,0,0,1-7.89,8.35c-6.76,3.85-14.21,5.41-21.86,5.85-15.14.87-29.81-2.07-44.37-5.79-3.8-1-7.37-2.71-11.11-3.62-9.39-2.27-17.37-7.64-26.13-11.27-2.65-1.09-4.84-3.26-7.46-4.48C516.14,198.38,516.83,199,516.83,199Z"/>
  <g class="furOverlapLine">
    <path d="M306.41,96.43c-5.3,6.43-10.87,12.67-13.25,20.95-1.85,6.44-4,12.77-5.4,19.37-.82,3.91-1.56,7.87-2.59,11.75A60.29,60.29,0,0,0,283.74,159a228.21,228.21,0,0,0-.43,36c.39,5.13,1.8,10.07,2.84,15.08.39,1.89,1.88,3.45,2.81,5.19A105.29,105.29,0,0,0,301.34,234c2.33,2.75,4.82,5.6,6.44,9.06.89,1.9,3.15,3.15,4.8,4.69"/>
    <path d="M447.2,155.89c.37,3.37-1.17,6.39-1.91,9.54a87.43,87.43,0,0,1-5.18,15.72c-.75,1.67-1.6,3.31-2.46,4.93-6.37,11.93-14.19,22.7-24.93,31.14-.38.3-.43,1-.64,1.52"/>
    <path d="M465.07,145.42c.61,3.63,3.06,6.31,5,9.2a70.6,70.6,0,0,0,7.7,9.84c4.89,5.06,9.53,10.4,15,14.84,6.55,5.26,13.15,10.47,19.7,15.74.5.4,7.1,7.37,4.33,4.29"/>
    <path d="M304,252.93c-4.31.52-8.62,1.08-12.94,1.53-3.59.38-7.18.82-10.78.9-9.86.21-19.72.24-29.58.36-.92,0-1.84.19-2.77.29"/>
    <path d="M110.17,138.64c-1.13,2.36-2.31,4.7-3.38,7.09-3.27,7.37-4.64,15.26-6.12,23.11-.31,1.64-1.3,3.16-1,4.92"/>
  </g>
</svg>
