<svg viewBox="0 0 90.28 169.03">
  <path class="fur" d="M1,77.65a3.3,3.3,0,0,0-.32,2.84A31.85,31.85,0,0,0,2,84.81c.1.34.36.63.49,1,.85,2.08,2.44,3.63,3.79,5.36a20.14,20.14,0,0,1,2.52,4.22A29.73,29.73,0,0,0,10,98.23a13.42,13.42,0,0,0,2.83,3.47,18.07,18.07,0,0,0,1.66,1.48c.08,1.32-.11,2.55,0,3.81a25,25,0,0,0,.73,4.74c.33,1.19.55,2.41.87,3.6s.68,2.61,1.13,3.87a21,21,0,0,0,.88,2.2,34.24,34.24,0,0,1,1.36,4c.84,2.32,1.38,4.73,2.33,7,.5,1.22,1,2.46,1.41,3.72.83,2.47,1.57,5,2.36,7.46.4,1.28,1,2.49,1.32,3.8.54,2.09,1.07,4.19,1.56,6.29.23,1,.5,2,.69,3a.73.73,0,0,1-.56,1c-1.71.6-2.48,2.07-2.92,3.7a12.27,12.27,0,0,0-.37,2.49,3.83,3.83,0,0,0,1.08,3,5.11,5.11,0,0,0,2.63,1.42,14.1,14.1,0,0,0,3.3.26c2.39,0,4.78,0,7.17,0a6.26,6.26,0,0,0,2.64-.88,2.85,2.85,0,0,0,1.55-1.71,20.48,20.48,0,0,0,1.11-3.05,34.14,34.14,0,0,0,.07-7.76,24,24,0,0,0-.17-2.93c-.09-.46.26-.92-.05-1.39.87-.42,1.85-.32,2.69-.79s1.41-.82,2.1-1.26c.52-.33.65-.93.9-1.45a6.77,6.77,0,0,0,.86-2.72c0-.46.37-.62.67-.71a17.78,17.78,0,0,0,4.95-2.75,9.91,9.91,0,0,0,2.13-2.25,15.55,15.55,0,0,0,2.1-3.34,13.38,13.38,0,0,0,.81-3.24c.31-1.91.46-3.85.69-5.78.12-1,.32-2,.42-3.07a3.41,3.41,0,0,1,.32-.91c.75.33,1.49.71,2.26,1a12.64,12.64,0,0,0,4.6.65,5.87,5.87,0,0,1,1.32,0,11.16,11.16,0,0,0,2.71-.13,12.11,12.11,0,0,0,4.08-1A6.82,6.82,0,0,0,82,119.57a34.14,34.14,0,0,0,2-5.34c.45-1.84,1.25-3.54,1.76-5.34q.92-3.21,1.74-6.43c.25-1,.66-2,.91-3a37.44,37.44,0,0,0,1.42-7.32,27.27,27.27,0,0,0-.41-4.39,15.45,15.45,0,0,0-.71-2.56,39.59,39.59,0,0,0-1.78-5.11,26.39,26.39,0,0,1-1.69-5.65c-.15-.72-.17-1.51-.25-2.26a26.71,26.71,0,0,1-.21-4.46c.15-2.17.22-4.35.23-6.52S85,57.09,85,55a15.4,15.4,0,0,0-.12-2.63,34.58,34.58,0,0,1-.11-3.52,36.79,36.79,0,0,0-1.12-7.68,30.15,30.15,0,0,0-4.24-8.49,25.88,25.88,0,0,0-4.73-5.08,30.15,30.15,0,0,1-3.3-2.76,3.77,3.77,0,0,1-.94-3.35,14.11,14.11,0,0,1,2-5,18.47,18.47,0,0,1,3-3.28c.31-.3.59-.23,1-.09a28.05,28.05,0,0,0,2.85,1,5.41,5.41,0,0,0,6.07-2.7,6.57,6.57,0,0,0,.14-4.76,8.1,8.1,0,0,0-5.13-5.3A12.29,12.29,0,0,0,73.5.72a15.69,15.69,0,0,0-5,1.92,20.37,20.37,0,0,0-5.59,4.94c-1.57,2-3.26,3.95-4.67,6.1a81,81,0,0,0-4.35,7.49,15.13,15.13,0,0,1-3.81,4.31,56.44,56.44,0,0,1-6.37,4.62c-.68.44-1.27,1-1.91,1.52A21.42,21.42,0,0,0,37.58,36c-1.46,2-2.85,4.11-4.11,6.28-.88,1.5-1.89,2.94-2.68,4.48A38.24,38.24,0,0,0,29,51.09c-.31.86-.8,1.62-1.15,2.47-.52,1.3-1,2.61-1.57,3.89-1.08,2.49-1.95,5.06-2.84,7.62a23.05,23.05,0,0,0-1.4,4.6.55.55,0,0,1-.3.43c-1.93,1.12-3.43,2.78-5.19,4.12a11.92,11.92,0,0,0-1.62,1.23,1.29,1.29,0,0,1-1.38.27,10.86,10.86,0,0,0-3.66-.36,17.39,17.39,0,0,0-6,.88,7.59,7.59,0,0,0-2.7,1.26Z"/>
  <g class="furOverlapLine">
    <path d="M76.64,85a18.27,18.27,0,0,1-1.36,5.86C74.47,93,73.42,95,72.59,97c-.22.55-.62,1.06-.85,1.63-.48,1.18-1,2.36-1.53,3.51s-1.16,2.54-1.77,3.8A50.1,50.1,0,0,0,64,117.88c-.2,1.06-.61,2.08-.81,3.15a7.24,7.24,0,0,1-.19,1.32"/>
    <path d="M22.35,69.89a6.8,6.8,0,0,1,2.42-1.66,1.12,1.12,0,0,0,.66-.75A29,29,0,0,1,27.12,64c.49-1,1.05-2,1.6-3a18.45,18.45,0,0,1,2.92-3.88,8.15,8.15,0,0,1,1.68-1.25,1.5,1.5,0,0,1,1.91.15,7.61,7.61,0,0,1,1.83,2.78c.31.69.74,1.34,1,2a21.3,21.3,0,0,1,.68,2.49,7.78,7.78,0,0,0,2.89,4.88,48.64,48.64,0,0,1,5.25,4.39,22.54,22.54,0,0,1,4,5.88,23.14,23.14,0,0,1,.73,2.27,45,45,0,0,0,3,6.22A13.18,13.18,0,0,1,56.14,90a7.9,7.9,0,0,1,.16,3.22A8.16,8.16,0,0,1,55.63,96a19.42,19.42,0,0,1-2.22,3.77,33,33,0,0,1-3.56,3.91,9.33,9.33,0,0,1-3.29,1.75c-1.16.4-2.4.61-3.57,1a41.74,41.74,0,0,0-6.74,3,10.71,10.71,0,0,1-2.56.66,8.59,8.59,0,0,1-2.63.18,22.1,22.1,0,0,1-2.93-.48,32.33,32.33,0,0,1-3.65-.88c-.87-.27-1.7-.7-2.57-1a15.26,15.26,0,0,1-3.7-1.79c-1.22-.86-2.64-1.54-3.47-2.89"/>
    <path d="M44.52,150.67a4.46,4.46,0,0,1-1.32.3,28.49,28.49,0,0,1-3.58-.09c-1.71-.28-3.42-.63-4.39-2.34a6,6,0,0,1-.6-1.82,10.72,10.72,0,0,1-.19-2.93,18.26,18.26,0,0,1,.93-4.06l.15-.18a6.17,6.17,0,0,0,.43-1.84c.47-1.9,1.58-3.5,2.36-5.26a1,1,0,0,1,.36-.43,9.31,9.31,0,0,0,1.53-1.41,2.79,2.79,0,0,1,.73-.5,10.33,10.33,0,0,1,4.69-1.1,4.38,4.38,0,0,0,.8.06,8.64,8.64,0,0,1,3.58.24,3.84,3.84,0,0,0,1.11.14"/>
    <path d="M38.52,158.28a10.44,10.44,0,0,1-2.33-.7,12.7,12.7,0,0,0-3.23-.4,12.51,12.51,0,0,0-3.95.36"/>
    <path d="M51.76,139.91a24.9,24.9,0,0,1-.58,4.39"/>
    <path d="M76.06,113.5a12.08,12.08,0,0,0-8.43-.69,12.91,12.91,0,0,1-2.48.83"/>
    <path d="M41,122.42c-.46.18-.25.62-.26.88a16.45,16.45,0,0,0,.09,4.32c.14.71-.14,1.46,0,2.19"/>
  </g>
</svg>
