<svg viewBox="0 0 589.94 266.44">
  <path class="fur" d="M477.25,51.21c16.63,1.85,42.51,25.27,49.29,38.82a160,160,0,0,1,54.22-1.85c8,1.23,10.47,6.16,7.39,13.56-5.54,13.55-16.63,25.26-27.72,32.65-9.75,24-25.46,43.74-46.21,59.77,22.79,5.54,35.12,21.56,21.56,40.05-6.78,8.62-19.1,12.32-30.19,11.7-10.48-1.23-17.87,0-26.49,1.24-10.48,1.85-17.87-4.93-20.34-8.63-24.64,6.16-56.17,5.13-84.41-.62-9.24,17.87-79.53,26.14-140.48,27.73-89.09,2.81-197.78-13.55-223-43.74C-3.34,206.48-1.5,184.3,7.75,162.74a183.23,183.23,0,0,0,8-22.19C31.16,81.4,76.14,46.9,118,34,220.93,1.31,344.78,16.09,408.85,58c3.09-6.16,6.17-9.86,12.33-15.4,6.22-14.7,12.94-26.5,24-37.59,5.54-6.16,14.78-6.77,17.87,3.08C467.39,19.17,474.78,35.81,477.25,51.21Z"/>
  <g class="furOverlapLine">
    <path d="M514.22,194.16a80.75,80.75,0,0,1-37,10.47c-11.08.73-21.57,3.7-31.43,3.7-24,0-48.67-14.79-54.22-37.58-2.46-10.48-3.87-18.11-6.16-25.88-7.39-25.88-.61-52.37,12.94-69.63A95.08,95.08,0,0,0,408.85,58"/>
    <path d="M458.76,238.52c-7.39-17.25,1.23-29,22.18-33.89"/>
    <path d="M323.83,92.5c39.43,9.85,53.6,78.25,12.94,106.59"/>
    <path d="M374.35,237.9c4.11-7.71-.62-24.64-15.4-24.64-117.72.44-211.69-9-267.41-34.5"/>
    <path d="M360,162.52a86.5,86.5,0,0,1,33,12.67"/>
  </g>
</svg>
