<svg viewBox="0 0 581.61 1092.85">
  <path class="fur" d="M4.15,501.84c-4.66,5.67-3.05,12.59-2,18.46,1.63,9.55,5.29,18.77,8.28,28.07.7,2.18,2.36,4,3.23,6.2,5.49,13.53,15.82,23.56,24.55,34.81a125.93,125.93,0,0,1,16.37,27.39c2.67,6.18,4.43,12.65,7.81,18.67A87.3,87.3,0,0,0,80.74,658c3.77,3.36,7.15,7.17,10.75,9.6.5,8.58-.73,16.59-.06,24.74.86,10.4,1.94,20.86,4.71,30.78,2.17,7.75,3.63,15.65,5.7,23.41,2.24,8.44,4.4,16.89,7.32,25.11a134.19,134.19,0,0,0,5.73,14.23c4,8.22,5.75,17.2,8.82,25.74,5.41,15.07,9,30.73,15.11,45.64,3.26,7.93,6.45,16,9.17,24.16,5.36,16.05,10.2,32.28,15.3,48.42,2.62,8.31,6.43,16.18,8.61,24.68,3.48,13.58,6.92,27.16,10.1,40.82,1.51,6.5,3.23,13,4.46,19.54.51,2.71.42,5-3.63,6.38-11.1,3.87-16.07,13.45-19,24a83.1,83.1,0,0,0-2.4,16.12,24.9,24.9,0,0,0,7,19.48c4.69,5,10.35,7.62,17.06,9.2,7.15,1.7,14.24,1.7,21.42,1.71,15.52,0,31-.13,46.55.07,6.49.08,11.6-3.22,17.12-5.72a18.61,18.61,0,0,0,10.11-11.07c2.07-6.73,6.08-12.54,7.21-19.81,2.63-16.85,1.61-33.63.46-50.37-.43-6.33.05-12.74-1.15-19-.58-3,1.69-6-.33-9.06,5.69-2.74,12-2.08,17.46-5.09,4.67-2.59,9.2-5.37,13.68-8.23,3.32-2.13,4.22-6,5.85-9.39,2.71-5.66,5.34-11.26,5.55-17.63.09-3,2.4-4,4.34-4.65C345.76,928,356,921.15,366,914c5.39-3.88,9.83-9.2,13.85-14.6,5.1-6.85,10.2-13.57,13.63-21.7,2.91-6.9,4.13-14,5.26-21,2-12.43,2.94-25,4.45-37.5.81-6.67,2-13.29,2.73-20,.22-2.19,1.29-3.82,2.09-5.88,4.86,2.12,9.63,4.58,14.65,6.29a82.7,82.7,0,0,0,29.9,4.19c2.83-.1,5.85-.7,8.53-.18,6,1.17,11.75-.59,17.59-.85a78.23,78.23,0,0,0,26.48-6.25c10.51-4.43,20-11.18,24.85-22.48s9.76-22.72,12.7-34.71,8.14-23,11.44-34.67q5.86-20.77,11.24-41.71c1.67-6.53,4.34-12.89,6-19.54,3.81-15.7,8.57-31.32,9.22-47.51.38-9.45-1.48-19-2.67-28.49-.72-5.73-2.94-11.13-4.59-16.66-3.36-11.25-6.76-22.5-11.6-33.17-5.36-11.78-8.38-24.22-11-36.69-1-4.64-1.11-9.76-1.6-14.67-1-9.61-2-19.37-1.35-28.95q1.44-21.15,1.48-42.29c0-13.31.44-26.61.41-39.9,0-5.63.15-11.5-.83-17.07-1.34-7.64-.07-15.22-.66-22.84-1.29-16.81-2.48-33.62-7.32-49.85-6-19.93-15.71-38-27.49-55.12a165.86,165.86,0,0,0-30.7-33c-7.14-6-15.2-11-21.47-17.9a24.59,24.59,0,0,1-6.08-21.74,92,92,0,0,1,13-32.43c5.41-8.28,12.58-14.65,19.59-21.31,2.06-2,3.83-1.48,6.24-.54a182.53,182.53,0,0,0,18.5,6.2c15,4,33.3-3.9,39.42-17.51,4.57-10.17,4.06-20.48.93-30.87-5.18-17.21-17.32-28.22-33.33-34.46a79.91,79.91,0,0,0-44.5-4.18,101.12,101.12,0,0,0-32.42,12.41A131.74,131.74,0,0,0,406.26,47c-10.2,13.1-21.19,25.61-30.35,39.59a535.68,535.68,0,0,0-28.26,48.6c-5.92,11.52-15.24,19.76-24.74,28-12.89,11.22-27,20.67-41.31,30-4.41,2.87-8.24,6.63-12.4,9.89a137.7,137.7,0,0,0-27.46,28.1c-9.46,13.2-18.53,26.7-26.72,40.77C209.34,281.68,202.8,291,197.64,301c-4.71,9.12-8.37,18.81-11.93,28.46-2.05,5.57-5.24,10.52-7.46,16-3.4,8.41-6.59,16.93-10.2,25.27-7,16.16-12.69,32.82-18.44,49.43-3.39,9.83-7.78,19.42-9.07,29.9a3.65,3.65,0,0,1-2,2.78c-12.54,7.25-22.28,18-33.65,26.72-3.5,2.67-7.49,4.66-10.53,8-2.44,2.66-6.1,2.66-9,1.79-7.82-2.41-16-2.7-23.78-2.37-13.08.56-26.42.57-39,5.73-6,2.46-12.63,3.41-17.53,8.19Z"/>
  <g class="furOverlapLine">
    <path d="M495.3,549.81c-.51,13.26-4.06,25.71-8.86,38.06-5.24,13.53-12.05,26.32-17.46,39.76-1.43,3.55-4,6.86-5.47,10.54-3.1,7.7-6.38,15.32-10,22.8-3.92,8.18-7.53,16.5-11.44,24.68-11.94,24.92-23.29,50-28.63,77.41-1.33,6.85-4,13.45-5.31,20.41-.56,2.87-.1,5.84-1.2,8.59"/>
    <path d="M142.85,451.49c4.21-5.11,10-8,15.74-10.81a7.31,7.31,0,0,0,4.29-4.85c2.6-8.06,7.24-15.2,10.91-22.79,3.2-6.63,6.81-13.06,10.41-19.49a119.82,119.82,0,0,1,19-25.18,52.89,52.89,0,0,1,10.92-8.1c5.08-3,9.15-1.83,12.36,1,5.65,4.91,8.92,11.35,11.91,18,2,4.52,4.81,8.73,6.5,13.36a144.37,144.37,0,0,1,4.36,16.11c3,12.5,7.49,23.39,18.78,31.67A313,313,0,0,1,302.07,469c11.28,11,18.81,24.43,25.94,38.14,2.36,4.54,2.76,9.87,4.71,14.73a289.78,289.78,0,0,0,19.51,40.38c3.79,6.37,7.93,12.71,10,19.91,2,6.83,1.94,13.64,1.06,20.94-.77,6.34-1.62,12.4-4.4,17.94-4.24,8.44-8.18,16.94-14.39,24.47-7.32,8.86-14.49,17.78-23.09,25.4-6.14,5.43-13.72,8.7-21.36,11.33s-15.58,3.93-23.22,6.37c-15.26,4.87-29.61,11.87-43.75,19.35-5.11,2.71-11.06,2.88-16.6,4.28s-11.29,1.46-17.1,1.15c-6.48-.36-12.7-1.89-19-3.09a215.79,215.79,0,0,1-23.73-5.74C151,702.77,145.66,700,140,698c-8.42-3-16.87-6.49-24.07-11.59-7.92-5.6-17.12-10-22.5-18.76"/>
    <path d="M286.78,975.89c-2.81.82-5.46,2-8.55,2-7.76-.23-15.58.65-23.26-.61-11.13-1.81-22.24-4.07-28.49-15.13a38.57,38.57,0,0,1-3.89-11.85,66.89,66.89,0,0,1-1.25-19,118.78,118.78,0,0,1,6.06-26.38l.95-1.18c2.22-3.66,1.82-7.94,2.79-11.89,3-12.34,10.24-22.77,15.3-34.17a6.66,6.66,0,0,1,2.37-2.82c3.89-2.42,6.72-6,9.91-9.11a17.54,17.54,0,0,1,4.78-3.3,67,67,0,0,1,30.4-7.1c1.75,0,3.52.61,5.22.41,7.87-.92,15.67-.84,23.26,1.56a25,25,0,0,0,7.15.87"/>
    <path d="M247.83,1025.29c-5.37-.37-10.14-2.95-15.13-4.52-7-2.18-13.94-2.22-21-2.57-8.64-.43-17.24,0-25.65,2.34"/>
    <path d="M333.8,906.06c-.71,9.57-1.4,19.15-3.8,28.5"/>
    <path d="M491.5,734.59c-17.73-7.46-35.73-10.16-54.68-4.47-5.44,1.64-10.33,4.84-16.09,5.42"/>
    <path d="M264,792.54c-3,1.12-1.58,4-1.7,5.71-.65,9.33-1.24,18.67.61,28,.9,4.59-.9,9.47.14,14.22"/>
  </g>
</svg>
