<svg class="policeAlbum" 
    xmlns="http://www.w3.org/2000/svg" viewBox="0 0 1127 1127">
    <title>Police album</title>
    <rect class="frame" x="1" y="1" width="1125" height="1125"/>
    <g class="display">
        <path d="M610.5,777c6-.39,7.85-.5,11-11.51,5.64-20,39.15-142,42.51-154.5.89-3.35,1.41-6.82,2-10.24,1.13-6.29-1.25-11-7.5-14.23-12.23-6.4-24.83-6.08-37.47-1.46a11.9,11.9,0,0,0-7.4,8.47C610.93,605,584.91,699.8,579.37,717.46c-4.57,14.57-.22,27.31,6.79,39.45A50.44,50.44,0,0,0,603,775c2.09,1.29,4.34,2.42,7,2"/>
        <path d="M273.5,777c6-.39,7.85-.5,11-11.51,5.64-20,39.15-142,42.51-154.5.89-3.35,1.41-6.82,2-10.24,1.25-7-2-12-9.48-15.26-11.46-4.92-22.88-4.9-34.54-.57-4.77,1.77-7.27,4.88-8.49,9.57-3.94,15.19-31.1,115.73-33.6,122-4.38,10.93-2.39,21.31,1.7,31.52,3.66,9.17,9.6,16.86,16.89,23.57,3.35,3.08,7.29,4.73,11.53,6"/>
        <path d="M977,582c-4.35.15-8.66-.13-13,.91-9.09,2.16-13.27,8.07-15.06,16.82-3.2,15.66-22.43,82.6-27.42,100.77-2.59,9.44-6.28,18.6-7,28.5-.53,7.14,2.08,13.66,4.65,19.94A59.35,59.35,0,0,0,937,773c6.94,5.57,13.56,4.53,17.05,2.12s3.3-6.46,4.24-9.65c5.87-19.9,39.3-141.92,42.66-154.46.88-3.28,1.31-6.67,2-10,1.33-6-.4-9.45-6.5-13.52A33.08,33.08,0,0,0,978,582"/>
        <path d="M1041.5,467a62.66,62.66,0,0,0-10-22c-5.42-7.4-9.52-8.6-17.56-5-7.71,3.45-14.39,8.41-21,13.54-5.39,4.19-5.71,10.76-7.4,16.53-4,13.57-19.12,68.3-23.07,82a4.61,4.61,0,0,0,0,3c2.72,5.57,5.43,11,12.43,12.61,7.77,1.82,15.49,4.66,23.5,3.3,11.31-1.91,17.58-9,20.16-20.35,3.09-13.63,18.94-67.66,21.89-81.52.11-.55.64-1,1-1.51"/>
        <path d="M852,432.5c-5,.85-10.22.95-14.54,4.45-2.85,2.3-3.9,5-4,8.55-.32,9.5,2,18.51,4.54,27.5a16.51,16.51,0,0,0,6.06,8.45c21.6,16.92,77.75,60.29,83.54,66,5.12,5,14.56,3.42,19.32-3.49,7.3-10.57,11-22.34,9.66-35.44a15.56,15.56,0,0,0-6.1-10.94c-17.25-13.77-67.34-52.3-74.34-58.68-5.67-5.18-11.84-6.95-19.12-6.39-1.49.12-3,0-4.5,0"/>
        <path d="M883.5,419.5c-.83,5.11,2.65,8.3,5.58,11.43A67.25,67.25,0,0,0,903,442a19.11,19.11,0,0,0,10.49,3.07c18.83-.12,37.67-.18,56.5,0,8.87.08,16.55-2.36,23-8.55,5.69-5.44,11-11.12,15.08-18,7.41-12.28-1.82-22.43-11.59-24.55a50.71,50.71,0,0,0-11-1c-23,.08-46,.52-69-.2-9-.28-16,2.49-21.93,8.32A44.26,44.26,0,0,0,883,419"/>
        <path d="M197.5,444.5c-.83,5.11,2.65,8.3,5.58,11.43A67.25,67.25,0,0,0,217,467a19.11,19.11,0,0,0,10.49,3.07c18.83-.12,37.67-.18,56.5,0,8.87.08,16.55-2.36,23-8.55,5.69-5.44,10.95-11.12,15.08-18,7.41-12.28-1.82-22.43-11.59-24.55a50.71,50.71,0,0,0-11-1c-23,.08-46,.52-69-.2-9-.28-15.95,2.49-21.93,8.32A44.26,44.26,0,0,0,197,444"/>
        <path d="M361.5,487a62.66,62.66,0,0,0-10-22c-5.42-7.4-9.52-8.6-17.56-5-7.71,3.45-14.39,8.4-21,13.54-4.07,3.18-5.4,7.94-6.41,12.52-4.81,21.9-11.92,43.18-17.34,64.92-1.12,4.48.74,7.16,2.4,10,3.19,5.42,9,6.92,14.84,8.16,7.15,1.51,14.19,3,21.52,1,10-2.81,14.23-10.07,16.57-19.51,3.86-15.58,15.42-57.52,16.92-63"/>
        <path d="M698.5,487a62.66,62.66,0,0,0-10-22c-5.42-7.4-9.52-8.6-17.56-5-7.71,3.45-14.39,8.4-21,13.54-4.07,3.18-5.4,7.94-6.41,12.52-4.81,21.9-11.92,43.18-17.34,64.92-1.12,4.48.74,7.16,2.4,10,3.19,5.42,9,6.92,14.84,8.16,7.15,1.51,14.19,3,21.52,1,10-2.81,14.23-10.07,16.57-19.51,3.86-15.58,15.42-57.52,16.92-63"/>
        <path d="M451.5,402.5c1.27,6.06,2.36,12.14,4.41,18,.93,2.68,2.2,5.38,4.18,6.85,10.92,8.06,21.46,16.62,32.22,24.86,8.5,6.51,16.64,13.66,25.81,19.06,10.34,6.08,20.07,6.68,26.77-3.87a40.77,40.77,0,0,0,5.49-31.9c-1.14-4.89-5.12-8.33-8.9-11.51-14.07-11.88-28.79-22.93-43.47-34a67.16,67.16,0,0,1-7.46-6c-3-3-6.74-3.73-10.55-3.88a68.58,68.58,0,0,0-21,2.48c-4.64,1.29-7.5,5.78-7.51,10.95V402"/>
        <path d="M620.5,330.5a59.36,59.36,0,0,0-10-22.53c-5.41-7.41-9.52-8.6-17.56-5-7.71,3.45-14.33,8.48-21,13.52-5.37,4.06-5.65,10.5-7.33,16.06-4.92,16.21-9.34,32.58-13.54,49-1.37,5.34-4.73,10.54-2.6,16.47,2.68,7.51,5.64,14.9,11,21,3.56,4,7.85,5.06,13,3,9.43-3.67,17.56-9.34,25-16.07,4.32-3.93,4.46-9.84,6-15,5.42-18.64,10.08-37.5,16.05-56,.42-1.3-.61-3,1-4"/>
        <path d="M613.5,415.5c-9.83,6.17-19.8,12.13-29.46,18.55-11,7.3-16.95,17.67-18.13,30.94-.52,5.86,1.84,10,7.59,11,3,.54,6,1.46,9,1.43,9.18-.11,18.4.91,27.51-1.37A61,61,0,0,0,625.49,470c12.31-7,24.2-14.67,36-22.46,5.25-3.46,10.62-6.74,16-10A8.2,8.2,0,0,0,681,434c3.41-7.15,6.12-14.48,6.5-22.51.45-9.65-1.82-11.26-11-14.38-7.36-2.49-15.17-3.31-23-3.61a14.39,14.39,0,0,0-9.07,2.38c-10,6.62-20.26,12.78-30.43,19.11"/>
        <path d="M116,458c-10,3.19-18.23,9.42-26.44,15.58-4.43,3.32-4.64,9.07-6,13.94-5.85,21.12-11.17,42.39-17.3,63.42-1.16,4,.15,6.36,1.78,9,3.25,5.32,8.15,7.72,14.41,8.71,7,1.12,13.63,3.41,21.07,1.5,9-2.31,14.62-7.09,17-16.16,5.5-20.87,11.12-41.72,17.11-62.46a14.6,14.6,0,0,0-.34-10c-2.72-6.18-5.14-12.64-9.36-18.05-2.84-3.63-6.42-6.21-11.46-5.53"/>
        <path d="M453,458c-10,3.19-18.23,9.42-26.44,15.58-4.43,3.32-4.64,9.07-6,13.94-5.85,21.12-11.17,42.39-17.3,63.42-1.16,4,.15,6.36,1.78,9,3.25,5.32,8.15,7.72,14.41,8.71,7,1.12,13.63,3.41,21.07,1.5,9-2.31,14.62-7.09,17-16.16,5.5-20.87,11.12-41.72,17.11-62.46a14.6,14.6,0,0,0-.34-10c-2.72-6.18-5.14-12.64-9.36-18.05-2.84-3.63-6.42-6.21-11.46-5.53"/>
        <path d="M790,458c-10,3.19-18.23,9.42-26.44,15.58-4.43,3.32-4.64,9.07-6,13.94-5.85,21.12-11.17,42.39-17.3,63.42-1.16,4,.15,6.36,1.78,9,3.25,5.32,8.15,7.72,14.41,8.71,7,1.12,13.63,3.41,21.07,1.5,9-2.31,14.62-7.09,17-16.16,5.5-20.87,11.12-41.72,17.11-62.46a14.6,14.6,0,0,0-.34-10c-2.72-6.18-5.14-12.64-9.36-18.05-2.84-3.63-6.42-6.21-11.46-5.53"/>
        <path d="M1040,723c-4.07.7-8.16,1.23-12,3-10.17,4.6-14.58,13-15.42,23.54s-1.9,20.67-3,31c-1.24,11.83-1,18.08,14.47,22.83,12.7,3.91,28.07,1.24,35.84-13.9,1.6-3.11,2.17-6.9,2.54-10.45,1.34-13,2.39-26,3.58-39,.49-5.35-5-11.62-11.47-14.09-4.59-1.75-9.29-2.32-14-2.91"/>
        <path d="M119,751c-11,1.49-13.82,8.37-15.11,16-1.32,7.8-.63,15,3,22.06,4.71,9.09,12.16,13.82,22.07,13.88,35.5.21,71-.14,106.5.28,6.55.07,12.93-5,12.37-13.44-1.05-15.72-9.44-27.36-22.43-35.66-3.75-2.39-8.35-3.12-12.94-3.12q-46.5,0-93,0"/>
        <path d="M456,751c-11,1.49-13.82,8.37-15.11,16-1.32,7.8-.63,15,3,22.06,4.71,9.09,12.16,13.82,22.07,13.88,35.5.21,71-.14,106.5.28,6.55.07,12.93-5,12.37-13.44-1-15.72-9.44-27.36-22.43-35.66-3.75-2.39-8.35-3.12-12.94-3.12q-46.5,0-93,0"/>
        <path d="M793,751c-11,1.49-13.82,8.37-15.11,16-1.32,7.8-.63,15,3,22.06,4.71,9.09,12.16,13.82,22.07,13.88,35.5.21,71-.14,106.5.28,6.55.07,12.93-5,12.37-13.44-1-15.72-9.44-27.36-22.43-35.66-3.75-2.39-8.35-3.12-12.94-3.12q-46.5,0-93,0"/>
    </g>
</svg>
