<svg viewBox="0 0 1412 1882">
  <rect class="frame" x="1" y="1" width="1410" height="1880"/>
  <path class="stripeRed" d="M1411,987.34c-4.89,4.66-10.08,9-15.42,13.27-9.83,7.83-19,16.46-29.51,23.5-14.21,9.49-28.94,18-44,26.11-10.22,5.54-21.16,9-31.7,13.61-4.06,1.76-8.65,2.65-12.92,4.18-9.68,3.47-19.66,6.31-28.88,10.73-6.07,2.91-12.51,4-18.7,6-10,3.21-19.89,6.71-30,9.59-5.86,1.68-12.09,2.68-17.87,4.42-15.93,4.8-32.46,5.81-48.58,9.24L366,1016c-10.23-2.16-19.38-7.41-29.47-10.12-10.26-2.76-19.36-8.59-29.46-12.08-15.95-5.51-30.28-14.78-45.66-21.59-10.29-4.55-19.68-10.63-29.79-15.47-7.33-3.5-15.11-5.94-22.18-10.13-13.15-7.79-27.16-14-40.52-21.46-17.64-9.85-36-18.36-53.38-28.72C99.85,887.08,83.88,878,69.15,867.29A694.5,694.5,0,0,1,13.9,822.11c-4.15-3.73-8.55-7.2-12.9-10.72v268.18a425.14,425.14,0,0,1,34,26.93c6.74,6.06,14.15,11.23,21.43,16.59,6.69,4.91,14,9,20.48,14,11.89,9.2,25,16.48,37.36,25,14.19,9.83,29.51,18.2,44.26,27.34a224,224,0,0,0,22,12.43c8.47,4,16.09,9.44,24.39,13.72,10.28,5.3,19.44,12.55,30,17.47,16.49,7.66,32.21,16.85,49,24.12q30.12,13.08,60.58,25.31l703,156c18.87.24,37.71,0,56.5-2,8.81-.91,17.66-1.75,26.5-1.94,9-.19,17.7-2.3,26.47-3.75,6.18-1,12.42-1.65,18.57-3.18,10.47-2.6,21.12-4.27,31.54-7.4,8.7-2.61,17.31-5.4,26-8.14,7.7-2.43,15.28-5.32,23-7.41,12.57-3.39,24.64-8.16,36.88-12.4,12.46-4.33,24.61-9.57,36.72-15,15.44-6.88,30.36-14.64,45.34-22.36,7.53-3.88,14-9.35,21-14a167.13,167.13,0,0,0,15-11.27Z"/>
  <g class="stripeBlue">
    <path d="M1365.67,15c1.46,7.36,3.87,14.58,5,22,1.14,7.3,1.7,14.69,2.84,22,1.7,10.81,1.74,21.84,4.42,32.52a16.11,16.11,0,0,1,0,4c-.19,14.23,2,28.32,2.46,42.5.1,3-.46,6-.43,9,.08,8,.33,16,.46,24,.25,15.21-.13,30.51-2.32,45.45s-2.83,30.22-6.38,45.12c-2.17,9.1-3.06,18.71-5.08,27.87-3.09,14.07-6.6,28.13-12.09,41.61-2.61,6.41-3.61,13.43-6.1,20-3,8-5.93,16.14-9.21,24.12-4.78,11.62-11.07,22.52-15.49,34.3-1.49,4-4.34,7.62-6.33,11.56-8.17,16.16-18.52,31-28.53,46-17.28,25.94-36,50.81-58,72.95-11.69,11.76-24.86,21.88-37.93,32.07-10.41,8.12-21.16,15.79-31.63,23.83A244.19,244.19,0,0,1,1131.51,616c-10.4,5.78-19.85,13.15-30.52,18.48s-21.63,10.73-32.5,16c-9.06,4.39-18.48,8-27.62,12.24a89.52,89.52,0,0,1-16.89,6.2c-8.35,2-15.75,6.4-24,8.58-6.84,1.82-13.66,3.71-20.51,5.48-2.46.63-5.06.81-7.48,1.56-7.76,2.41-501.51,8-501.51,8-2.67-.5-35.37-9.39-49-13.53-17.36-5.26-34.57-11-51.53-17.41-13.06-5-26.46-9-39.44-14.16-12.62-5-24.13-12.44-37-17-9.86-3.47-19.13-8.41-29-12.07a207.83,207.83,0,0,1-27.47-12.51c-9-4.92-18.18-9.37-26.67-15.22-5-3.44-10.7-6-16.06-8.85-9.95-5.35-20.36-9.89-30.42-15.14-13.31-6.94-26.17-14.65-39.51-21.48-4.55-2.33-7.38-6.45-11.87-8.77-9.67-5-19.26-10.22-28.5-16-11.11-6.92-23-12.44-33.79-20.06-8.82-6.21-18.06-12.11-27.09-18.11A274.35,274.35,0,0,1,1,465.37V638.13c9.52,9,19.41,17.51,28.76,26.62,11.88,11.56,24.86,21.55,37.8,31.67,11.55,9,23.68,17.35,35.27,26.3,10.64,8.21,21.35,16.35,32.27,24.14,18,12.84,36.1,25.58,55,36.9,15.59,9.31,31.38,18.41,47.73,26.49,8.56,4.24,16.8,9.42,25.09,14.31,10.3,6.06,20.65,12.14,31.2,17.63a161.49,161.49,0,0,0,26.3,10.93c4.06,1.27,7.73,3.84,11.54,5.89,10.94,5.87,22.68,10,34.09,14.77,4.56,1.91,9.72,2.76,14.41,4.72l729,108c9.07-2,18.32-2.77,27.5-4,12.68-1.75,25-5.42,37.43-8.28a314,314,0,0,0,30.54-8.78,226,226,0,0,0,25.48-10q26.49-12.75,52.51-26.48c13.14-6.93,26.54-13.46,38.57-22.38A357.92,357.92,0,0,0,1357,877c7.22-6.94,14-14.39,21.2-21.29,10.48-10,18.64-21.67,26.23-33.73,2.36-3.74,4.55-7.58,6.62-11.47V1h-49A130.67,130.67,0,0,1,1365.67,15Z"/>
    <path d="M1019.54,30.51c-6.12,22.1-16.87,41.93-28.36,61.59-7.56,12.94-17.24,24.09-26,36A173.17,173.17,0,0,1,946.45,150a407.61,407.61,0,0,1-41.69,34.9c-11.89,8.82-24.88,15.12-37.92,21.32-7.24,3.44-15.54,5.28-23.28,8S507.74,294.38,500,295.36c-8.92,1.12-18,1.25-27,1.6-5.49.22-11.07.59-16.49-.07-12.48-1.52-25.08-1.81-37.52-3.84-9.26-1.51-18.7-1.49-28-2.95-14.06-2.21-28-4.9-42-7.4-12.44-2.22-24.88-4.64-37.42-6.45-10.7-1.54-21.26-4.38-32-5.73-18.61-2.34-36.65-7.48-54.95-11.28-9.65-2-19.14-5.46-28.63-8.48-15.16-4.82-30.5-9.23-45.82-13.6-12-3.41-23.95-7.35-35.7-11.91C98.28,219,82.08,212.94,66.56,205.37,51.43,198,36.62,189.9,21.89,181.7c-6.2-3.45-11.57-8-17.89-11.21-.67-.33-1.34-.68-2-1V328.27c10.11,7.26,21,13.36,31,20.73,11.07,8.14,23.13,14.67,35,21.46,10.88,6.2,22,12,33,18.06,10.75,6,22.3,10.5,32.5,17.49,4.84,3.32,10.73,4.77,15.42,8.11,7.49,5.34,16.06,8.64,23.85,13.46,11.14,6.89,23,13,34.78,18.84,13.83,6.84,27.72,13.69,42,19.43,18.6,7.46,36.4,16.57,54.36,25.3,17.09,8.32,34.53,15.7,52.12,22.74,14,5.63,28.31,10.81,42.33,16.44,10.9,4.38,22,7.62,33.15,11.12,8.75,2.75,17.6,5.24,26.49,7.5,11.83,3,23.41,7.13,35.5,9,10.68,1.63,21.21,4,31.93,5.5a404,404,0,0,0,47.06,4.07l246.5,17c13.33-.24,26.69.76,40-.52,10.18-1,20.34-2.23,30.5-3.48,7.18-.89,14.36-1.8,21.49-3,6.21-1.08,12.31-2.78,18.52-3.91A198.31,198.31,0,0,0,961,565c14.1-5.06,28.19-10.15,42-16,7-3,14.31-5.43,20.93-9.12,10.5-5.84,21.24-11.25,31.77-17,14.84-8.12,27.83-18.65,41.75-27.94,19-12.66,35.14-28.79,51.9-44.08,13.39-12.21,26.53-24.78,38.68-38.31a405.93,405.93,0,0,0,42.42-56.06c6.62-10.59,14.06-20.68,19.56-32,9.63-19.72,15-40.79,20.1-62,2.93-12.1,5.83-24.19,7.32-36.54,1.35-11.26,4.54-22.23,5.45-33.5,1.15-14.13,1.95-28.32,2-42.49.05-16.67-.72-33.34-1.42-50-.6-14.47-1.82-28.8-5.12-43.08-2-8.84-3.56-17.94-5.36-26.91-1.34-6.7-2.37-13.55-4.6-20-1-3-2-6-2.84-9H1026.46A301.14,301.14,0,0,1,1019.54,30.51Z"/>
    <path d="M1411,1462.2a239.7,239.7,0,0,1-20.64,14.06c-15.77,9.68-31.2,20-47.86,28.24-6.15,3-12.08,6.82-18.55,8.84-15.35,4.78-30.18,11.17-45.93,14.75-7.28,1.65-14.31,4.41-21.53,6.37-13.86,3.77-27.88,6.82-41.94,9.78-10,2.1-20,4.16-30.07,5-12.28,1-24.17,4.27-36.48,4.86a127.64,127.64,0,0,0-22.45,2.61c-6,1.39-12.07,1.11-18,1.93-15.64,2.13-31.38,1.1-47,2.14-10,.67-20,.24-30,.73,0,0-678.32-139.8-680-140.08-18.19-3.08-35.37-9.84-53-14.93-6.42-1.86-12.26-5.4-18.56-7.3-13.57-4.09-26-10.72-38.86-16.38-10.74-4.73-20.7-11.24-31.09-16.79-12.76-6.81-24.82-14.75-37-22.51-15.8-10-31.72-19.92-47.47-30-8.47-5.45-16.48-11.64-25.07-16.88q-19.92-12.15-38.91-25.64c-6.12-4.32-12.14-8.85-18.22-13.19-6.42-4.58-12.91-9.12-19.34-13.72-7.39-5.3-15-10.33-22-16.15v139.73c5.48,4.45,10.94,8.92,16.16,13.71,8.63,7.93,18.36,14.71,27.88,21.62,9.31,6.77,19.2,12.68,28.51,19.49,10.26,7.49,20.89,14.49,31.47,21.54,9.42,6.29,18.81,12.65,28.52,18.46,11.41,6.82,22.69,13.84,34.39,20.19,8.79,4.77,17.21,10.2,26,14.92,14.37,7.69,27.34,17.68,41.94,25.12,16.68,8.49,33,17.84,49,27.44,13.65,8.16,27.94,14.8,42.53,21,5.68,2.4,11,5.6,16.53,8.43,6.93,3.56,14.52,5.51,21.54,8.91,10.67,5.17,21.53,10,32.49,14.52,10.7,4.42,20.76,10.27,31.52,14.44,12.42,4.82,544,177.13,544,177.13,16.7,5.75,33.88,9.81,51,13.9a241.26,241.26,0,0,0,28.5,5c8.61,1,17.29,1.7,26,2.33,16,1.15,32,2,48,2.71,12.15.53,24.3-.89,36.5-.58a294.57,294.57,0,0,0,43.5-2.3c4.48-.55,9.06-.34,13.49-1.1,10.15-1.76,20.42-2.62,30.54-4.77,8.78-1.87,17.75-2.51,26.52-5,10.73-3,21.68-5.22,32.51-8,15.23-3.87,30.11-8.78,44.86-14A295,295,0,0,0,1393.5,1766c4.16-2.17,8.25-4.52,12.52-6.46q2.51-1.15,5-2.37Z"/>
    <path d="M445,1781.59c-10.52-4.51-21.73-7.57-31.86-12.79-14.58-7.52-30.05-13.17-44.16-21.71-11.29-6.83-23.5-12-34.59-19.37-7.88-5.24-16.55-9.5-24.93-14.08-8.12-4.44-15.47-10-23.35-14.75-18.71-11.32-37.26-22.93-55.49-35-9.71-6.43-20-11.89-29.21-19.22-6.31-5-12.54-10.23-19.31-14.74-15-10-29.77-20.55-44.4-31.14-11.37-8.22-22.56-16.85-32.77-26.66-6.73-6.46-14.7-11.62-21.86-17.66-9.47-8-18.36-16.72-28.11-24.35a413.53,413.53,0,0,1-35.07-31.47c-6.16-6.08-12.69-11.86-18.85-18v154.12q6.74,6.63,13.51,13.24c10,9.71,19.86,19.48,30,29,9.33,8.71,19.16,16.87,28.82,25.2,10.3,8.88,20.75,17.57,31.07,26.42,10.69,9.18,22.69,16.54,33.55,25.44,7.57,6.2,15.86,11.47,23.76,17.15,10.8,7.77,22.41,14.49,33.4,22.13,6.82,4.75,14.71,8,21.34,13.23,7.49,5.85,15.6,10.76,23.46,16.06A450.71,450.71,0,0,0,280.51,1847c15,8,29.69,16.55,44.92,24.16,6.13,3.06,12.11,6.42,18,9.86H556.68C511.11,1839,450.08,1783.79,445,1781.59Z"/>
  </g>
  <path class="pants" d="M1006.5,1389.5l-591,4c0,60.67.08,121.33-.1,182,0,8.12,2.18,15.94,2.11,24a157.3,157.3,0,0,0,.89,16.51c1.3,13.47,2.52,27,3,40.49.35,10.66-.09,21.35.69,32,.73,9.85,1.43,19.71,2.52,29.55.72,6.51.56,13.41,1.61,19.92,1.85,11.47,1.21,23.1,3.48,34.6,1.47,7.44,1.21,15.39,2.91,22.91,2.23,9.91,2.55,20,3.73,30A526.77,526.77,0,0,0,446.38,1881H975.53a161.25,161.25,0,0,0,4.28-17.54c2-9.42,3.53-19,5.57-28.38,2.91-13.31,5.07-26.73,7.48-40.11,2.26-12.55,3.91-25.23,5.36-37.94s3.54-25.59,4.36-38.52c1.17-18.36,3.19-36.66,4.34-55,.91-14.64,1.1-29.32,1.58-44,.64-19.88-2-39.65-2-59.5Q1006.47,1474.76,1006.5,1389.5Z"/>
  <path class="pantsDisplayLine" d="M667.6,1501.52c-2.94,12.59-1.71,29.37,0,42,1.77,13.06,2.32,26-.12,39-2.62,13.91-5.23,27.8-6.07,42-.78,13.14-.69,26.24,2.71,39a270.5,270.5,0,0,1,5.74,29.56,44.89,44.89,0,0,1-.45,13c-1.24,8.44.61,16.48,2.62,24.5,1.3,5.17,4.38,9.69,6.25,14.59,2.13,5.6,4.72,10.51,9.21,14.42"/>
  <g class="pantsOverlapLine">
    <path d="M734.5,1743.5c-5.5,6.5-24.48,11.19-34,13.46-15.88,3.78-31.68,4.63-47.56-.75-3.75-1.28-7.65-2.37-11.43-3.71"/>
    <path d="M687,1759.25c-1,9.75,2.48,30.59,2.91,43.75.42,13.32.12,26.67.08,40a236.33,236.33,0,0,0,1.43,29c.35,2.94-.25,6-.42,9"/>
  </g>
  <g class="skinGallic">
    <path d="M580.5,737.5c0-21,.29-69.62,2.13-71.89,4-5,5.14-10.69,6.43-16.6a127.78,127.78,0,0,0,2.83-35.5c-.4-6.4-.78-12.86-3.31-19-4.8-11.74-51.58-54.14-66.08-67l-8-151C536.5,361.17,757.73,209.2,761,213c11.45,13.2,121.75,142,121,145-3.81,14.84-24.91,86.68-25,87.5-1.31,11.05,2.48,23.93,2.32,35-.13,9.46.82,19.05,0,28.48a205.12,205.12,0,0,1-5,31.48,183,183,0,0,1-13.1,36.15,187.8,187.8,0,0,1-30.15,44.46c-5.91,6.54-14,12.38-21.12,17.19-.9,33.9.74,66.57.55,100.24Z"/>
    <path d="M1012.5,1569.5c-1.56,7.26-4.33,14.11-7,21a10.46,10.46,0,0,1-2,3c-4.83-1.33-10-2-14.45-4.11-15.74-7.19-31.41-14.51-46.09-23.83s-29.65-18.07-42-30.57c-5-5.13-11.19-9.29-14.51-16,0,0,19.38-16.61,27.48-23Z"/>
    <path d="M508.11,1516.36c2.73,2.19,3.93,10.69,3.93,10.69-8.68,6.09-17.76,11.74-25.47,19-11.05,10.44-23.22,19.62-33.24,31.28-7.49,8.72-16.5,16.14-24.83,24.14,0,0-9.56-7.74-14.06-12.44-7.1-7.42-14.69-14.38-20.85-22.63C445,1516,504.54,1513.48,508.11,1516.36Z"/>
  </g>
  <path class="skinOverlapLine" d="M637.5,615.5c12,14.25,27.19,24.13,44.54,30.39,15.27,5.51,31.14,9.07,47.46,9,12.72-.06,33.38-3.82,45.47-8"/>
  <path class="shirt" d="M924.08,686.86c-8-4.38-15.25-10.14-23.12-14.79-11.63-6.87-24.27-11.54-37-16.09-14.7-5.28-29.9-8.76-45-12.29-6.75-1.57-13.7-2.56-20.44-4.28-4.63-1.18-8.5-2.3-12.12,1.49-.4.1-4.84,3-6.91,3.55C775,647,775,647,776,650.5c-.18,10.13,1.07,20,2.73,30,.89,5.32-2.12,11.41-5.87,15.27a108.11,108.11,0,0,1-28.28,20.75c-10.91,5.62-22.83,7.62-34.57,9.74-15,2.7-30.22,2.4-45.5.41a114,114,0,0,1-31.93-8.8c-10.18-4.54-20-9.84-27.57-18.4-8.8-9.89-13.5-21.4-15.09-34.5-.69-5.64.77-11,.62-16.52l-1,1c-3.28-.78-6.28,0-9.54.86a344.37,344.37,0,0,0-37.47,12.11c-12,4.63-24.07,8.82-36,13.61C499.21,679,491.79,681.87,485,686c-6.24,3.82-25.95,18.68-32,23-7.81,5.53,18.76,730.6,20.44,733,5.9,8.53,14.39,14,22.44,20.11,10.47,8,22.07,13.43,34.09,18.42A184.41,184.41,0,0,0,571,1492.34c13,2.11,25.83,4.84,38.93,6.48a464.13,464.13,0,0,0,51,3.15c2.83,0,5.81-.93,8.47-.33,4.83,1.09,9.68,1,14.52,1.45,7.4.73,14.69-.4,22-.41,7.17,0,14.32.18,21.5-.1,25-1,50.08-.33,75-3.5,11-1.4,22.06-2.08,33-4,12.82-2.25,25.08-6.43,37.47-10.13a112.44,112.44,0,0,0,33.11-16.31c8.49-6,13.44-14.93,20.25-22.28C927.43,1445.17,931.7,691,924.08,686.86Z"/>
  <path class="shirtCreaseLine" d="M493.1,1419.84c13.35,8.75,32,16.28,47,21.45,10.28,3.54,20.75,6.76,31.39,9.39,8.81,2.18,17.79,3.43,26.59,5.61,3.58.88,23.91,2.47,30,4.23,3.48,1,26.57,2,34.46,3.24,10.18,1.6,37.88,1.68,41.54,1.78,18,.47,36-2.21,54-1.54,10.37.38,20.71-1,31-1.16,9.59-.14,19-1.52,28.48-2.09,10.5-.64,20.8-3.46,31-6.17,9.86-2.62,19.17-6.66,28.42-10.71,10-4.36,13.88-5.64,22-12.89"/>
  <path class="hairDarkBrown" d="M657.49,380.49c-1.44,1.21,3.51,5,3.51,5,1.44,1.46,3.29.94,5,1,5,.16,8.25-3.15,11.44-6.06,8.39-7.67,13.23-17.95,19-27.48,6.43-10.68,10.05-22.53,12.59-34.77,2.81-.67,4.12.3,4,3.32-.17,5.68.32,11.24-.75,17.05a96.28,96.28,0,0,1-9.3,27.94c-1.84,3.49-1,5.16,3,5.55a8.68,8.68,0,0,0,5.49-1.56,48.17,48.17,0,0,0,12.6-10.41c2.38-2.9,4.92-2.26,6.32,1.46,1.08,2.88,3.25,3.1,5.59,3.47,3.66-1.44,4.53-5.86,8-7.82l3.72,6.1c3.28-1.25,5.87-2.9,7.24-5.8,3.92-8.29,8.24-16.45,11.39-25,3.5-9.55,7.1-19.06,8.38-29.42,1.2-9.74,2.29-19.25.94-29-.38-2.73-2.37-5.54-.68-8.48,0,0,6.13,3.64,10.68,6.73,11.76,8,21.36,18.06,30.22,28.85,7.23,8.79,12.06,19,15.67,29.9a71.94,71.94,0,0,1,3.48,26.52c-.15,3.32-2.48,6.67,0,10l.15,3.45A3.18,3.18,0,0,0,839,373c4-.93,7.26-3.2,10.47-5.55l0,.55c3.33,4.77,6.52,5.71,12,3.5L861,373c2.14,5.84,1.61,12,1.93,18,.77,15-1.8,29.78-4.37,44.51-.28,1.59-2.17,7.47-.56,9,0,0,12.9-12.2,17.72-18.84,3.25-4.47,6.34-9,9.45-13.55a119.93,119.93,0,0,0,16.63-34.67c3.55-12.44,4.55-25.39,4.28-38.44-.3-14.66-4.79-28.16-11.24-40.92C888.76,286,878.67,276.24,874.46,263c-1.27-4-5.06-6.51-6.83-10.07a84.91,84.91,0,0,0-18.69-24.37c-9.71-9-21.28-15.45-33-21.49-5.43-2.8-11.11-5.61-17-6.88-9.25-2-18.89-2.07-28-5.2a13.09,13.09,0,0,1-3-.53c-10.15-4.33-21-6.57-31.56-9.27-9.87-2.52-20-4.22-30.48-2.35-7.19,1.29-14.73.59-22,1.79-9.76,1.61-19.43,3.89-29,6.45-9,2.42-18.11,4.12-27.52,4a45.11,45.11,0,0,0-8,1.06c-13,2.12-25.11,6.93-37,12.36-21.93,10-39.07,25.3-53.26,44.82-7.9,10.85-12.86,22.82-18.09,34.76-4.24,9.67-7.43,19.84-10.53,30a61.66,61.66,0,0,0-2.51,15.46,278.92,278.92,0,0,0,.07,29.49c.39,5.66,2.21,11.26,3,17,.4,2.85.42,5.74.64,8.54.77,9.64.79,19.33,1.18,29,.45,10.84,1.68,21.69,1.31,32.49-.43,12.84.58,25.75-1.78,38.52-1.79,9.69-.34,19.31.82,29s4.68,18.45,9.12,27c3.24,6.23,8,11.44,12.71,16.31,8,8.25,16.7,16.18,26.92,21.46,10,5.17,20.85,8.65,31.42,12.63,1.76.66,4,.09,6,.09,0,0,.33-8.54-.93-14a264.16,264.16,0,0,0-11.08-37c-.68-1.72-.69-3.63-3.47-4.1-18.4-3.13-26.49-11.8-30.34-28.45-1.31-5.68-2.48-11.38-4.17-17-3.11-10.26-8.94-33.51-8.94-33.51-1.21-13.16,2.52-24.81,10.89-35.48,6.27,7.92,13.54,14.44,17.18,23.94,3,7.7,4.22,15.81,6,23.81,2.77-.05,3.26-1.89,4.32-2.81,2.68-2.31,4.37-2.58,5.11,1.54.17.92,1.26,1.68,1.93,2.51,0,0,7.5-4.8,9.87-9.07.85-1.53,1.33-2.6,3.13-2.42,2.1.22,2.41,5.5,2.52,6.49.47,4.28,3.73,6.1,6.9,3.41,3.9-3.3,8.36-6.33,9.6-11.9,1.13-5,3.53-9.51,5.91-14,5.78-11,12-21.78,15.07-34,2.12-8.51,5.22-16.76,6.57-25.49.61-3.91,3.62-5.87,7.43-6.5,1.33-.22,16.28-4.17,20.5-9.51Z"/>
  <g class="hairOverlapLine">
    <path d="M774.5,265.5c-8-7.05-17.13-12.17-26.51-17-1.45-.75-3-1.34-4.49-2"/>
    <path d="M529.5,405.5c.68,5.22,4.16,9.1,6.59,13.45,1.35,2.43,3.58,4.38,5.41,6.55"/>
  </g>
  <g class="hoodie">
    <path d="M490,1459.5c4.89-9.57,3.84-19.9,3.38-30-.49-10.51-2.22-21-2.35-31.51-.08-6-2-11.71-2.26-17.51-.23-4.82-.37-9.65-.72-14.49-1-13.49-1.76-27-2.53-40.5-.29-5.16-.12-10.35-.56-15.5-1.21-14-2.42-28-4.11-42-.42-3.52-.49-7.08-.62-10.53-.24-6.35-.82-12.71-1.44-19-1.78-18.15-.31-36.41-2.63-54.54-1.14-8.88-.09-18-.53-27-.48-9.82-1.62-19.62-1.15-29.49,1-21.76-1.43-43.36-2.93-65-.8-11.65-1-23.34-1.56-35-.69-14.67-1.37-29.35-2.3-44-.43-6.6.61-13.32-.18-20-2.41-20.26-3.08-40.63-4.16-61-1.15-21.67-3.11-43.3-3.31-65-.09-9.83.21-19.67.49-29.5.17-6,.35-12,1-18,1.28-11.2,1.89-22.43,4.2-33.56,1.73-8.31,3.24-16.68,5.24-25a197.6,197.6,0,0,1,5.29-19.07,74,74,0,0,1,13.1-23c3.06-3.72,7.24-5.75,10.68-8.83,2.1-1.88,4.21-3.55,3.88-6.57s-3.22-2.71-5.39-3.65c-11.5-5-22-2.14-32,3.7-4.2,2.44-9,3.8-12.59,7.39A24.56,24.56,0,0,0,447.51,694c-1.83,8.26-6.76,13.75-14.5,17-9.19,3.89-16,11-21.88,18.57A186.29,186.29,0,0,0,391.53,760a164.21,164.21,0,0,0-13.89,37.51c-3,13.36-4.94,27-7.1,40.48-2,12.31-2.76,24.78-5.48,37-2.59,11.61-5.25,23.25-6.9,35-1.49,10.54-3.92,20.9-5.48,31.43-1.52,10.17-2.26,20.48-4.53,30.58-1.31,5.82-.95,12-1.7,18-1.16,9.36-2.54,18.69-4,28-2.65,17.39-4.58,34.9-9,52-3.2,12.53-9,24.27-11.47,37a147.61,147.61,0,0,0-2.3,32.5c.35,12.64.36,25.44-2.25,38-2.26,10.9-2.16,22-1.93,33,.14,6.66-.71,13.36.44,20,1.31,7.61.63,15.34,1.58,23a184.21,184.21,0,0,1,1.82,22c0,9.4,2.78,18.56,2.1,28a177.7,177.7,0,0,0,3,46.49c1.67,8.7,3.41,17.4,5.53,26,2.32,9.44,3.53,19.09,5.63,28.58,1.12,5,1.43,10.58,1.88,15.92.93,11,1.14,22,1.53,33,.43,11.91,4.48,23,8.79,34,6.16,15.84,15,30.35,21.68,45.93,4.8,11.22,17.22,41.39,20.47,44,3,2.42,9.41.5,13.91-4.49,7.33-8.13,16.09-14.48,25.11-20.36,19.48-12.71,40.66-22.14,62.52-29.88,4.19-1.48,9-2,13.4-3.28,5-1.44,6.81-6,3.94-10.39-2-3.09-3.3-6.64-5.52-9.47-4.22-5.41-5.18-11.95-7.57-18C493.05,1474.52,490,1459.5,490,1459.5Z"/>
    <path d="M887.5,665.5c2-4.16,6.51-4.44,10-5.89,8.45-3.45,17.52-5.07,26.39-2.87,5.9,1.46,11.31,1.22,17.07.33a29.7,29.7,0,0,1,21,4.33c4.91,3.08,6.73,7.93,8.81,12.66A4.46,4.46,0,0,0,974,677a31.7,31.7,0,0,1,17.61,12.42c3.26,4.48,4.93,9.92,8.48,14,7.86,9,15.85,17.9,22.95,27.55,6.13,8.32,13.84,15.71,18.67,24.68a345.72,345.72,0,0,1,18.4,41.31c3.68,9.62,5.07,19.75,7.85,29.55,3,10.51,6.1,21,8.81,31.55A155.68,155.68,0,0,0,1087.5,888s.1,4.35.68,5.4c4.86,8.77,7.61,18.52,12.81,27.11,15.14,25,23.6,52.71,31.3,80.55,5.29,19.14,10.54,38.33,14.47,57.89,3.32,16.52,6.88,33,10.26,49.55,2.53,12.38,2.15,25,3.58,37.49,1.18,10.25-.16,20.42-.94,30.48-.81,10.33-2.65,20.66-3.65,31-1.39,14.42-3.21,28.77-6,43-3.32,17.1-9.51,33.23-15.31,49.57-3.82,10.79-8.37,21.48-9,33.41-.44,8.73-3,17.36-4.79,26-1,5-1.48,10-2.32,15-1.79,10.76-4.13,21.36-6.52,32-2.81,12.54-7.12,24.53-11.7,36.44a133.82,133.82,0,0,1-8.52,18.48,116.38,116.38,0,0,0-14.44,42c-1.88,13.26-7.8,25-15.09,35.92-3.54,5.32-7.34,10.51-10.27,16.14-5.52,10.54-14.93,17-23.44,24.63-7.8,7-14.91,4.06-21.57.14-13-7.67-26-15.55-37.64-25.28-10-8.32-19.88-16.7-29-26-8-8.09-23.15-26.2-23.41-26.59-5.11-7.54-5.09-7.53,1-14.5,1.58-1.82,4.09-4,4-7,0,0-8.18-2.09-12.47-4.55-5.34-3.06-9.18-7.49-9.48-14-.37-8-.39-16-.55-24-.17-8.67-.07-17.35-.56-26a325.06,325.06,0,0,1,.06-36c.35-6.5,1.46-13.08.84-19.48-1.38-14.22.24-28.37.43-42.52.27-19.49.11-39,.46-58.5.17-9.34.95-18.66,1.14-28a221.76,221.76,0,0,1,2.46-25.53c1.83-13.26,2.4-26.68,4-40,1.52-12.41,2-25,2.52-37.49.15-3.56,1.45-7,1.1-10.49a128.25,128.25,0,0,1-.2-19.49c1-18.33,1.49-36.67,2.22-55,.38-9.33.17-18.72,1.11-28,2-19.8,2.42-39.67,3.29-59.51.58-13.15.11-26.33.11-39.5,0-12.67.12-25.33,0-38-.11-8.67-1-17.34-.83-26,.16-7,.5-14.11.08-21-.83-13.35-.9-26.68-1.17-40-.33-16.5-.56-33-.48-49.5.06-14-.65-27.82-3.58-41.5-1.61-7.52-4.2-14.58-9.43-20.54C898.22,671,887.5,665.5,887.5,665.5Z"/>
  </g>
  <g class="hoodieOverlapLine">
    <path d="M1002.5,1457.5c13.51-4.92,28.24-11.17,39-21,7.29-6.61,13.46-14.08,17.39-23.06,5-11.35,3-23.24,1.55-35-1.17-9.18-2.75-18.32-3.92-27.51-.6-4.63.23-9.65-1.25-13.92-2.87-8.22-2-16.8-3.75-25.08-1.23-5.91-.9-12.12-1.88-17.93-1.4-8.18-1-16.44-2.5-24.59-1.58-8.52-1.2-17.31-2-26-1.77-18.29-2.85-36.65-4.11-55-.93-13.49-1.57-27-2.56-40.5-.6-8.18-2-16.32-2.31-24.51-.16-3.89-1.5-7.62-1.12-11.49,1-10.29-1.92-20.28-2.39-30.48a132.64,132.64,0,0,0-2.65-21,97.82,97.82,0,0,1-1.56-17c-.08-2.34-1.3-4.66-1.37-7-.35-12.62-2.91-25-4.35-37.47a306.59,306.59,0,0,1-2-36c0-9.88-1.38-19.62-1.37-29.5,0-10.16-2.2-20.24-2.64-30.49-.21-4.79-.3-9.7-.47-14.52-.18-5-1.31-9.94-1.23-15a377.11,377.11,0,0,0-1.91-42.5q-2.79-28-5-56c-1.1-13.78-3.64-27.34-5.58-41-1-6.7-2.46-13.32-3.42-20-1.14-8-4-15.83-6.54-23.49"/>
    <path d="M400.5,745.5c-5.92,16.5-6.75,33.71-7.62,51-.53,10.68-1.66,21.34-2.58,32-.84,9.84-1,19.7-1.84,29.52-1.56,17.48.3,35-.92,52.5-1.49,21.33-2.6,42.67-4.07,64-1.53,22.17-3.36,44.33-4.94,66.5-.49,7-.37,14-1.46,21-.23,1.5-1.09,8.41-1.09,10.49,0,22.56,1.71,45,3.35,67.51.88,12,0,24-1.08,36-.56,6.21.1,12.64-.23,19-.74,14.16-.64,28.41-2.22,42.48a288,288,0,0,0-1.66,43c.49,13.34,1.46,26.66,1.34,40-.08,10.33.81,20.84-.77,31-1.85,11.83-1.7,23.83-4.3,35.64-1.18,5.34-3.41,11.37-1.08,17.47.87,2.27-.1,5.28-.34,7.94-1.17,13,3.74,24,11.51,34,5.26,6.78,11.7,11.94,20,14.49a38.34,38.34,0,0,0,21,.51"/>
    <path d="M489.5,1460.5c-19.13,17.63-42.25,21.17-67,19"/>
    <path d="M922.5,1481.5c9.21.54,15,3.37,24,5.1,10.47,2,20.4,6.09,30.51,9.44,1.81.6,5.71,1.39,6.51,3.46"/>
  </g>
  <g class="hoodieDisplayLine">
    <path d="M1020.5,1450.5c3.84,4.49,9.41,6.59,14.12,9.82,7.61,5.2,14.42,11.26,21.36,17.2,7.91,6.76,15.12,14.14,20,23.48"/>
    <path d="M374.5,1437.5C364.56,1443.3,353,1449,344,1458c-1,1-2.3,2.35-3.47,3.52"/>
  </g>
  <path class="hoodieFoldLine" d="M1093.5,1124.5a159.77,159.77,0,0,0-22,6c-10.76,3.6-23.39,7.44-32.49,14.52"/>
  <g class="zipperDisplayLine">
    <path d="M450.5,685.5c-2.15,9.53-7,18.37-11.41,27-3.06,6-8.39,10.12-11.64,15.92-7.2,12.84-10.65,25.79-5.74,40.63,2.08,6.29,4.89,12.77,4.36,19.91a61.18,61.18,0,0,1-7,24.3c-5.25,10-9.23,20.6-9,32.19.06,3.84.24,7.92,1.55,11.45,5.12,13.76,5.24,27.92,3.15,42a88,88,0,0,1-5,19.92c-3.67,9.07-2.57,18.08-2.07,27.1a129.69,129.69,0,0,0,5,30c2.52,8.43,3.39,17,4.64,25.59,1.07,7.29-.94,14.66-1.83,22s-3.36,14.44-5.6,21.47c-3.58,11.16-2.67,21.89,1.61,32.52,4.09,10.15,7.31,20.68,7.76,31.52a91.3,91.3,0,0,1-4.75,33.5c-3.87,11.3-7.73,22.6-9.54,34.49-.89,5.81-2.37,11.51-2,17.5.48,8.34,4.11,15.44,8,22.51,5.34,9.63,7.61,20,8.65,31,1.45,15.17-3.33,28.94-8.78,42.45-4.78,11.88-5,23.4-.3,35,4.54,11.15,8.06,22.55,9.41,34.52,1.57,13.87-.55,27.44-3.34,41-1.61,7.86-4.1,15.75-2.61,24,.76,4.18,1.53,8.36,2.52,12.49,1.38,5.7,3.81,11.28,4.27,17,.67,8.27,3.49,16.59.7,25"/>
    <path d="M984.5,1499.5c.67-1,1.32-2,2-3,10-14.47,15.93-30.25,16.56-48,.5-14.35-3.11-27.71-9.13-40.47-4.44-9.43-8.81-18.73-8.54-29.53a40.6,40.6,0,0,1,1-6c1.89-9.59,4.6-19,4.71-29a94.61,94.61,0,0,0-5.71-33c-3.65-10.26-7.41-20.42-9.92-31-2.56-10.82-2.67-21.41,1-32,3.13-9,7.47-17.57,9.64-27,1-4.19.35-8.48,1.45-12.51,2.84-10.44.77-21-1-30.94-2-11.14-6.17-22-9.25-33-3.62-13-2.16-25.7,1-38,2.8-10.75,6.85-21.25,9.73-32.07,1.67-6.29,2.86-12.74,1.73-19-1.59-8.8-4.24-17.44-6.88-26-2.69-8.76-5.84-17.39-9-26a83.76,83.76,0,0,1-3.88-18c-1.3-10.27-1.67-20.55,2.37-30.51A73,73,0,0,0,977.9,933c1.39-17,.8-34-4.36-50.5-4.56-14.65-6.45-29.72-4.43-45,1.44-10.9,3.66-21.72,5.95-32.5,2.67-12.58.94-24.87-2.17-37-2.43-9.48-6.84-18.34-9.18-28-1.15-4.72-.67-9.31-.32-13.54.55-6.78,3.07-13.59,5.72-20,5.89-14.25,9.46-16.7,3.39-30"/>
  </g>
</svg>
