<svg viewBox="0 0 218.19 290.01">
  <g class="frame">
    <rect x="1" y="0.5" width="216.19" height="288.43"/>
    <path d="M216.69,1V288.43H1.5V1H216.69m1-1H.5V289.43H217.69V0Z"/>
  </g>
  <path class="mountain" d="M197.21,194.55c-.75.33-1.3-.13-1.85-.48a3.92,3.92,0,0,0-.7-.44c-2.32-1-4.5-2.2-6.84-3.13-2.12-.83-4.25-1.7-6.34-2.62-1.6-.7-3.32-1.11-5-1.65a6.37,6.37,0,0,1-.85-.39,15.08,15.08,0,0,0-4.09,1.53,6.7,6.7,0,0,1-1.85.77,27.43,27.43,0,0,0-3,1.53,31,31,0,0,0-3.23,1.94c-1,.56-1.94,1-2.92,1.55a1,1,0,0,1-.91-.1,18.13,18.13,0,0,0-3.87-1.23c-2.15-.5-4.26-1.15-6.46-1.47a8.68,8.68,0,0,1-2.24-.42c-.15-.07-3.15,1-4.47,1.49s-2.82,1.11-4.22,1.67c-1.8.73-7.48,3.08-8.55,2.52-2.63-1.38-79.16,3.65-79.54,2.69a32.49,32.49,0,0,0-1.81-3.76c-.63-1.13-1.19-1.27-2.29-.53a18.89,18.89,0,0,0-4.24,3.69,11.13,11.13,0,0,0-1.29,1.63c-.27.49-1.06.44-1.06.44-.27-1-.49-2.07-.82-3.07a25.44,25.44,0,0,0-1.43-3.56c-.68-1.36-2-1.27-3-.61a34.93,34.93,0,0,0-3.46,2.85l-.78-2.92a25.09,25.09,0,0,0-3.3-7.33,4.28,4.28,0,0,0-.94-1.21.77.77,0,0,0-1.08,0c-1.52,1.23-2.93,2.56-4.32,3.93-1,1-2.76,2.87-2.76,2.87a1.24,1.24,0,0,1-.29-1.24,16.36,16.36,0,0,0-.55-5.16,18.32,18.32,0,0,0-2.61-6.39c-.23-.35-.47-.86-.78-.88a2.65,2.65,0,0,0-1.62.42,13.3,13.3,0,0,0-3.95,3.36c-2.29,2.95-2,4.65-1.27-.36a43,43,0,0,0-.49-4.39,23.29,23.29,0,0,0-.8-2.86,20.13,20.13,0,0,0-4.12-7.84L1,165.19l-.54.38V288.91l.54.45H217.15l0,.15h.11v-95h-19.8C197.41,194.55,197.29,194.51,197.21,194.55Z"/>
  <path class="steppe" d="M214.22,174.13a30.75,30.75,0,0,1-4.16.76,27.3,27.3,0,0,0-4,1,4.9,4.9,0,0,1-.55.13,1.3,1.3,0,0,0-1.23,1,7.07,7.07,0,0,0-.31,1.77c0,1.15,0,2.31,0,3.46,0,.59-.18,1.17-.16,1.78,0,.4-.35.51-.68.53-2.24.16-4.41.71-6.62,1.09-1.11.2-2.21.51-3.31.76-1.49.35-1.83.74-1.85,2.24,0,1.11,0,2.23,0,3.36a25,25,0,0,1-2.77.39c-1.16,0-2.25.39-3.39.51a34.09,34.09,0,0,0-4.55,1,1.07,1.07,0,0,0-.89.94,9.59,9.59,0,0,0-.12,2.93c.09.36,0,.67-.52.7a68.72,68.72,0,0,0-9,1.28c-1.13.22-2.26.49-3.39.68a1.13,1.13,0,0,0-1.06,1.11,26.1,26.1,0,0,0-.24,2.93c-.05,3.46-.06,6.93-.08,10.39l52-.44.38-1.37V174.42c-.12-.3-.25-.59-.38-.89A21.89,21.89,0,0,0,214.22,174.13Z"/>
  <path class="land" d="M216.15,199.47a21.56,21.56,0,0,0-5-1.68,4.82,4.82,0,0,0-3.75,1.1c-.49.34-1,.61-1.49,1-1.4,1-2.83,2-4.22,3a1.82,1.82,0,0,1-2,.24,10.57,10.57,0,0,0-2.46-.91c-1.23-.22-2.41-.57-3.62-.86a2.78,2.78,0,0,0-.46,0c-.49-.12-1-.29-1.46-.37a3.57,3.57,0,0,0-2.55.36c-1.51.9-3.13,1.63-4.6,2.58-1.31.85-2.54,1.84-3.87,2.67a3,3,0,0,1-2.62.32c-1.32-.44-2.66-.86-4-1.24-1.56-.43-3.12-.85-4.7-1.23a6.06,6.06,0,0,0-3.85.61c-.85.38-1.68.81-2.54,1.15-.69.26-1.08.9-1.77,1.17-1.1.45-2,1.21-3.1,1.73a5.79,5.79,0,0,1-3.37,1,20,20,0,0,1-2.39-.53,15.26,15.26,0,0,0-4.69-.59,9.92,9.92,0,0,0-3,.83c-1.74.67-3.47,1.36-5.17,2.14-.47.22-90.48,1.78-91.87,1.63-1.11-.11-2.21-.19-3.31-.31-2.37-.25-4.73-.49-7.09-.78-1.72-.21-3.45-.45-5.15-.79-.57-.11-1.11-.34-1.7-.46-1-.2-2.12-.25-3.17-.55a18.69,18.69,0,0,0-3-.75,23.15,23.15,0,0,1-3.39-.69c-1.22-.32-2.44-.68-3.64-1.1a5,5,0,0,0-.83-.11c-1.16-.39-2.34-.72-3.46-1.17-2.3-.94-4.62-1.86-6.85-2.94A40.15,40.15,0,0,0,.5,201.58v87.93H217.69v-89c-.13-.18-.26-.36-.38-.55C216.92,199.82,216.53,199.66,216.15,199.47Z"/>
  <g class="skinGallic">
    <path d="M124.2,115.06c.84,1.48,1.75,2.92,2.61,4.4,1.6,2.74,3.47,5.3,5.24,7.93a19,19,0,0,0,5.14,4.64,29.77,29.77,0,0,0,6.87,3.36,21,21,0,0,0,3.54,1.18,26,26,0,0,1,2.55.68c1.51.43,3.08.63,4.61.95,1.05.23,2.11.39,3.17.58a47.15,47.15,0,0,0,5.69.63c2.09.11,4.16.3,6.24.45L171.94,129c-.31-.1-.62-.18-.92-.31-1.88-.79-3.75-1.6-5.63-2.38a38.22,38.22,0,0,1-5.46-2.47,47.48,47.48,0,0,0-8.24-4.23,34,34,0,0,0-3.62-1.31c-1.25-.29-2.5-.51-3.18-1.84-.59-1.18-1.46-2.21-2.08-3.39-.82-1.58-17.58-32.91-18.07-33.37L112.48,92.27S123.78,114.32,124.2,115.06Z"/>
    <path d="M40.72,172.45a11,11,0,0,0,.55-5.7,11.18,11.18,0,0,1,.66-5.56,22.91,22.91,0,0,1,4.79-7.07,45.38,45.38,0,0,0,3.15-3.78A31.78,31.78,0,0,0,52.73,146c.13-.26.48-1.35.62-1.77.71-2.17,1.43-4.33,2-6.54a25.69,25.69,0,0,1,2.83-6.39c1.62-2.72,2.95-5.59,4.33-8.43a70.76,70.76,0,0,0,3-7.52A26.52,26.52,0,0,1,67,111.59c.83-1.57,2.3-2.54,3.42-3.83s2.43-2.5,3.46-3.93c.39-.56,3.15-8.33,3.15-8.33-2.57-3.9-8.5-12.43-9.63-12A22.6,22.6,0,0,0,63,85.55a14.31,14.31,0,0,0-3.14,2.87A26.52,26.52,0,0,0,56.57,93a35.13,35.13,0,0,0-2.32,5.77c-.38,1.22-.79,2.43-1.23,3.62-.52,1.41-1.07,2.81-1.56,4.23s-1.29,2.91-1.8,4.41c-.86,2.5-2.08,4.85-3,7.31-.64,1.71-1.31,3.41-2,5.08a23.82,23.82,0,0,1-3.14,5.09A31.63,31.63,0,0,0,37.3,136c-.69,1.64-1.53,3.23-2.06,4.93-.69,2.22-1.4,4.43-2,6.7-.36,1.49-1,2.91-1.35,4.4A43.11,43.11,0,0,1,30,157.89a6.35,6.35,0,0,1-1.31,1.92c-1.91,2-4.1,3.76-6.16,5.63a8,8,0,0,0-2.46,2.77,8.7,8.7,0,0,0-.35,4.47,18.57,18.57,0,0,0,.35,2.77,12.36,12.36,0,0,0,1.84,4.62,6,6,0,0,0,2,1.62S40.44,173.08,40.72,172.45Z"/>
    <path d="M115.41,239.45a22.77,22.77,0,0,0,.53,3.93c.19,1.7.57,3.37.73,5.08.12,1.39.54,4.83.59,5.16l22.8,2.16a51.39,51.39,0,0,0-.3-7.94c-.2-1.09-.31-2.21-.48-3.31-.19-1.27-.5-2.52-.75-3.78-.3-1.57-.46-3.18-.71-4.77a20.76,20.76,0,0,1-.54-3.77Z"/>
    <path d="M101.09,88.57c1.12-1.08,9.27-9,10.08-9.47a34.42,34.42,0,0,1-2.68-3.78.88.88,0,0,1,.38-1.38,21.77,21.77,0,0,0,5.65-4.51A16.92,16.92,0,0,0,118,63.55a22.87,22.87,0,0,0,1.41-5.4,21.83,21.83,0,0,0-.3-5.93,10.16,10.16,0,0,1,.12-3.85,27.53,27.53,0,0,0,.68-4.78,37.6,37.6,0,0,0-.46-6.62,24.84,24.84,0,0,0-1.71-6.16,3.94,3.94,0,0,0-2.37-2.32c-.58-.2-18.83-3.67-19-3.38-2,3.15-11.64,18.35-14.49,22.8l.46,4.69c.08,2.14.56,4.1,2.39,5.47a2.63,2.63,0,0,0,.77.45,2.52,2.52,0,0,1,1.84,2.29c.21,1.28.29,2.59.44,3.88a33.08,33.08,0,0,1-.06,3.86,5.93,5.93,0,0,1-.22,1.38,15.25,15.25,0,0,1-3.15,6.16Z"/>
    <path d="M196.89,148a4.89,4.89,0,0,0,3,1.7,7.26,7.26,0,0,0,5.08-.86,1,1,0,0,1,.46-.15,9.72,9.72,0,0,1,2.47.15,5.69,5.69,0,0,0,4.39-.68,2.56,2.56,0,0,0,1.07-2.39,11.27,11.27,0,0,0-.53-1.24,6.84,6.84,0,0,0,2.39-1.38,2.11,2.11,0,0,0,.07-3.08,5.88,5.88,0,0,0-2-1.31l.31-.31a2.29,2.29,0,0,0-.23-3.86,9.08,9.08,0,0,0-3.86-1.36c-1.44-.26-2.88-.51-4.31-.85-.86-.21-1.7-.51-2.55-.65a3,3,0,0,0-2.3.71S196.59,147.7,196.89,148Z"/>
    <path d="M52.87,236.37c-.33,1.71-.36,3.45-.72,5.17s-.69,3.52-.9,5.3c0,.37-.21,1.42-.24,1.54-.45,1.72-.41,3.51-.76,5.24l12.25,5.47c1.92-.57,8.86-2.6,10.39-3.09.75-.24,1.31-4.81,1.46-6.46.24-2.59.16-5.19.16-7.78Z"/>
    <path d="M196.66,130.78a19.18,19.18,0,0,1-2.53-2.32,5.3,5.3,0,0,1-1.47-1.69s-.11,0-.08-.08a10.29,10.29,0,0,1,2.86-2.22,7.28,7.28,0,0,0,3.05-4.48,2.11,2.11,0,0,0-.9-2.31,1.77,1.77,0,0,0-2,.39c-.76.63-1.48,1.29-2.24,1.92a11.63,11.63,0,0,1-3.92,1.87,17.51,17.51,0,0,0-5.69,2.69,16.43,16.43,0,0,0-4.33,5.15c-.11.21,3.7,5.66,5.78,8.16Z"/>
  </g>
  <g class="skinOverlapLine">
    <path d="M93.92,69.24a19.59,19.59,0,0,0,5,3.87,12.9,12.9,0,0,0,8,1.58,5.44,5.44,0,0,0,1.23-.37"/>
    <path d="M199.67,141.71a51.24,51.24,0,0,0,6.24,1.55,44.46,44.46,0,0,0,4.46.38,3.67,3.67,0,0,1,2.62,1.15"/>
    <path d="M213.3,138.79a54.09,54.09,0,0,1-7.39-1,20.8,20.8,0,0,1-4.66-1.39"/>
    <path d="M205.44,148.64a6,6,0,0,0,.62-.62,2.06,2.06,0,0,0-1-2.85,3.37,3.37,0,0,0-2-.28,15,15,0,0,1-4-.21"/>
  </g>
  <path class="hairMediumBrown" d="M118.41,32.42a6.2,6.2,0,0,1-.51-.93,2.44,2.44,0,0,0-1.19-1.16,1.36,1.36,0,0,0-.16,1.1c.11.69.34,1.43-.22,2.07,0,0-1.49-1.66-2.32-2.44a14.26,14.26,0,0,0-2.84-1.79,4.09,4.09,0,0,0,.13,1.91,9.82,9.82,0,0,1-.06,2.71c-.06.61-.38.71-.83.3s-1.06-.95-1.54-1.46a12.24,12.24,0,0,0-4.16-2.55,21.06,21.06,0,0,0-3-1c-.6-.17-1.48-.52-2.14.16,0,0,1.55,2.33,1.24,3.32l-.87-.59a6.16,6.16,0,0,0-3.29-1.2,3.62,3.62,0,0,0-.77.17c-.42.08-.46.26-.24.62a7.46,7.46,0,0,1,.93,4.85A15.26,15.26,0,0,1,93.29,44a12.11,12.11,0,0,0-2.46,4.94,1.24,1.24,0,0,1-.22.43.47.47,0,0,1-.53-.13c-.56-.66-1.13-1.3-1.62-2a2.64,2.64,0,0,0-3.24-.83,4.92,4.92,0,0,0-2.61,3.69c-.17,1.07-.32,3.16-.32,3.16a1.54,1.54,0,0,1-.79-.68c-1.07-2.23-1.14-4.65-1.35-7a16.7,16.7,0,0,1,.49-5.23,29.87,29.87,0,0,1,3-8.48,11,11,0,0,1,2.24-3.22c1-.78,2-1.44,3-2.18A15.65,15.65,0,0,1,93.63,24a21.86,21.86,0,0,1,6-1.17,29.51,29.51,0,0,1,4.7,0,35.17,35.17,0,0,1,4.78,1A14.57,14.57,0,0,1,113,25.29a14.25,14.25,0,0,1,3.67,2.87,16.44,16.44,0,0,1,1.57,2,2.43,2.43,0,0,1,.51,1.83C118.53,32.7,118.41,32.42,118.41,32.42Z"/>
  <g class="boot">
    <path d="M74.55,250.68c-.67.24-.43.84-.47,1.25a2.45,2.45,0,0,1-.66,1.6,8.18,8.18,0,0,1-3.67,2.05,44.28,44.28,0,0,1-6.56.93,6,6,0,0,1-3-.6c-2.1-.88-4.23-1.69-6.26-2.74a14.83,14.83,0,0,1-3-2.1,1.07,1.07,0,0,1-.26-1.39,1.22,1.22,0,0,0,0-1.45,4.09,4.09,0,0,0-1.74,1.61,7.63,7.63,0,0,0-1.11,3.54c-.32,1.8-.44,3.61-.67,5.41a26.68,26.68,0,0,0-.35,4.38c.06,1.68-.11,3.34-.2,5a44.17,44.17,0,0,1-.42,5.86,8,8,0,0,0-.08,1.69c.08,1.9-.08,3.8-.06,5.7,0,1.31,0,2.63-.06,3.93s.09,2.78.13,4.16H67.46A47.53,47.53,0,0,0,68.93,284c.19-1,.53-1.94.73-2.93.31-1.52.59-3,.93-4.54.24-1.07.58-2.11.84-3.16.7-2.9,1.32-5.82,2.11-8.7.62-2.27,1-4.6,1.65-6.87a13.79,13.79,0,0,0,.7-4.23A3.55,3.55,0,0,0,74.55,250.68Z"/>
    <path d="M144.15,277.88c-.09-3-.33-6-.55-8.93,0-.21.06-2,0-2.7-.07-1.51-.25-3-.21-4.54a29.37,29.37,0,0,0-.31-4.39c-.1-.78.07-1.54,0-2.32a65.36,65.36,0,0,0-.86-6.54,5.88,5.88,0,0,0-2.49-3.4c-.63.44-.23.94-.12,1.39.49,1.91-.54,3.32-1.47,4.78-1.71,2.73-4.38,3.14-7.24,3-1.1-.06-2.21,0-3.31-.17-2-.24-4.06-.54-6.09-.87a13,13,0,0,1-2.53-.71,3.22,3.22,0,0,1-2.25-3.54,1.17,1.17,0,0,0-.12-.39,3.94,3.94,0,0,0-2.1,3.09,15.44,15.44,0,0,0,.12,4.55c.23,1.87.58,3.73.82,5.61.2,1.53.59,3,.91,4.55q.52,2.58,1.07,5.16a5.36,5.36,0,0,0,0,1.14,45.45,45.45,0,0,1,1.13,4.42c.43,1.86.91,3.73,1.25,5.61.19,1,.4,2,.64,3,0,.12.66,2.74.89,3.85H144.2a45.84,45.84,0,0,0,0-7.86C144.18,280.4,144.19,279.14,144.15,277.88Z"/>
  </g>
  <path class="glove" d="M185.34,134.55c.56-.36,1-.87,1.53-1.25,2.44-1.65,5.09-2.91,7.64-4.37a.87.87,0,0,1,.84.08,33,33,0,0,0,3.7,1.39,26.17,26.17,0,0,1,3.93,1.38l-.15.07c-.15.11,0,.29-.09.39a10.86,10.86,0,0,0-1.59,3.93c-.6,2.43-1.5,4.77-2,7.23a21.1,21.1,0,0,0-.51,4.94c.05,1.18-.23,1.47-1.47,1.46a32.14,32.14,0,0,1-5.61-.72,26.45,26.45,0,0,1-4.71-1.12,18.64,18.64,0,0,1-5-2.83c-.87-.69-1.76-1.37-2.67-2a7.61,7.61,0,0,0-3.93-1c-1.69-.16-3.39-.27-5.08-.48-.75-.1-1.72-.13-2-1a12.3,12.3,0,0,1,0-3.06c.23-1.42.47-2.83.76-4.24a17.71,17.71,0,0,1,2.13-5.87,1.11,1.11,0,0,1,1.39-.49l1.41.5a11.71,11.71,0,0,0,4.85,1,1.52,1.52,0,0,1,1.31.47c1.55,1.55,3.1,3.11,4.52,4.79Z"/>
  <path class="skirt" d="M122.42,149.49a54.21,54.21,0,0,1,2.53,6.4q.8,2.22,1.68,4.39c.66,1.63,1.18,3.32,1.71,5,.8,2.51,1.62,5,2.3,7.55.58,2.17,1.43,4.24,2,6.39l.18.69c.29.9.67,1.78.87,2.7.5,2.33,1.36,4.55,2,6.84.51,1.89,1.13,3.75,1.64,5.64.3,1.08.71,2.14.91,3.24.4,2.27,1.14,4.45,1.64,6.69q.63,2.88,1.15,5.78c.27,1.48.44,3,.72,4.46.07.35,0,.39,0,.39a63.39,63.39,0,0,0,1.43,6.39c.32,1.29.58,2.59.95,3.87a6.76,6.76,0,0,1-.2,4.37,5.94,5.94,0,0,1-1.46,1.92,14.48,14.48,0,0,1-5.37,3.05c-1.12.4-2.24.77-3.39,1.06a1.1,1.1,0,0,0-.67.66,3.46,3.46,0,0,1-1.73,1.62,33.78,33.78,0,0,1-6.77,2.66c-1.52.36-3,.87-4.55,1.12a22.27,22.27,0,0,1-5.7.65,32.65,32.65,0,0,0-3.54.22,19.93,19.93,0,0,1-4.16-.26c-1.13-.21-1.51-.69-1.7-1.84a2.74,2.74,0,0,0-.15-.46s-2.33.43-3.78.67c-1.86.31-3.74.56-5.61.84a51.6,51.6,0,0,1-6.32.42,3.54,3.54,0,0,1-1.74-.26.75.75,0,0,0-.27.64,1.91,1.91,0,0,1-1.92,1.84c-1.67.07-3.34.17-5,.14-1.16,0-3.78-.21-3.78-.21-.29-.16-.62,0-.92-.08-1.62-.42-3.3-.26-4.93-.59-1-.21-2.11-.18-3.16-.34a28.56,28.56,0,0,1-5.77-1.32c-1.66-.62-3.45-.89-5-1.81-.86-.52-1.74-1-2-2a.59.59,0,0,0-.66-.5,12.9,12.9,0,0,1-2.84-.42,19.26,19.26,0,0,1-4.54-1.33,11.3,11.3,0,0,1-3.37-2.23c-1.91-1.85-2.06-4-1.57-6.29.25-1.16.63-2.29.86-3.46a80.6,80.6,0,0,1,2.15-8.25c.53-1.75,1.09-3.48,1.61-5.24s1.11-3.79,1.61-5.7a63.31,63.31,0,0,1,1.86-6.31c.46-1.2.68-2.47,1.06-3.7.56-1.81,1-3.65,1.57-5.46.39-1.25.64-2.55,1.09-3.77.83-2.28,1.51-4.6,2.11-7,.66-2.55,1.5-5,2.33-7.54.57-1.74,1.22-3.44,1.83-5.17a84.14,84.14,0,0,1,3.29-8,60.63,60.63,0,0,1,3.86-6.66c.31-.47,1.06-.63,1-1.37Z"/>
  <g class="skirtFoldLine">
    <path d="M131.58,221.27a44.83,44.83,0,0,0,.6,4.47c.16,1.31.38,2.61.47,3.93.13,1.74.4,3.48.42,5.23,0,.54.16.93.21,1.47"/>
    <path d="M58.11,215.57c-.43,2.34-.81,4.69-1.29,7-.32,1.54-.47,3.12-.72,4.69-.13.87-.3,1.75-.46,2.62-.2,1.15-.41,2.31-.61,3.46s-.42,2.57-.61,3.86c0,.24,0,0-.08.77"/>
    <path d="M104.17,216.81c-.07,2.34.29,4.67.37,7,.17,4.7.28,9.4.38,14.1,0,.65-.14,2.69-.14,2.69"/>
    <path d="M87.22,233.75c0,1.77.14,3.54.2,5.31a9.84,9.84,0,0,1-.2,3.16"/>
  </g>
  <g class="strap">
    <path d="M91.83,155a43.13,43.13,0,0,0-1.08,8.39c-.1,2.57-.26,5.14-.41,7.71-.13,2.08-.34,4.16-.52,6.23-.27,3.26-.27,6.54-.56,9.78-.33,3.65-.35,7.3-.49,10.94-.08,2.21,0,4.42-.09,6.63,0,1.17-.36,1.31-1.53,1.51a26.61,26.61,0,0,0-3.32.4,4.91,4.91,0,0,1-1.15,0c-1.05,0-2.1,0-3.16.12a10.08,10.08,0,0,1-2.93-.27,11.4,11.4,0,0,1-3.36-.81,10.45,10.45,0,0,0-3.33-1.06c-2.5-.48-5-1.21-7.4-1.91-1.13-.33-2.16-.93-3.31-1.25-.58-.16-.76-.82-.62-1.75.26-1.64.47-3.29.78-4.93.28-1.45.67-2.87,1-4.31.45-2,.82-4.12,1.33-6.16.45-1.8.83-3.62,1.35-5.4.61-2.06,1-4.18,1.66-6.23.54-1.77.92-3.59,1.5-5.36.92-2.84,1.68-5.73,2.57-8.58a26.18,26.18,0,0,1,1.79-4.91,26.8,26.8,0,0,1,1.28-2.64S92,154.33,91.83,155Z"/>
    <path d="M118.71,150.88a59.07,59.07,0,0,1,3.2,7.92c.85,2.33,1.27,4.76,2,7.1,0,.08.1.6.15.84.76,3.4,1.71,6.74,2.32,10.17.2,1.11.49,2.2.71,3.31.38,1.94.92,3.85,1.34,5.78a6.66,6.66,0,0,1,.06.85c.17.87.3,1.75.51,2.61.41,1.68.88,3.34,1.29,5,.2.81.28,1.65.48,2.46.26,1.06.25,1-.69,1.63-2.44,1.59-5.23,2.22-7.94,3.07a16.39,16.39,0,0,1-3.47.61c-.48,0-.8.28-.82.7a1.57,1.57,0,0,1-1,1.39,25.11,25.11,0,0,1-13.25,2c-.28-.05-.54-.18-.78-.21-.56-.06-.61-.37-.61-.8,0-.82-.06-1.64,0-2.47.05-1.43-.07-2.87-.13-4.31,0-.33,0-.67,0-1a29.52,29.52,0,0,1-.08-3.39c.06-1.39.07-2.77,0-4.16a10.42,10.42,0,0,1-.16-2.61,8.72,8.72,0,0,0-.05-2.7c-.24-2-.25-4-.3-5.93,0-1.44-.2-2.88-.27-4.31s-.34-3-.43-4.47c-.11-1.8-.37-3.58-.33-5.39a25.28,25.28,0,0,0-.43-4.23c-.36-2.36-.66-4.73-1-7.09C99,153.27,118.57,150.63,118.71,150.88Z"/>
  </g>
  <g class="strapBorderLine">
    <path d="M72.13,205.18a14.15,14.15,0,0,1,.25-2.16c.33-1.55.9-6.72,1.15-7.7.37-1.45.41-2.94.75-4.39.21-.92.47-3.16.48-3.31.1-1.11.33-2.21.49-3.31.22-1.44.55-2.87.71-4.32s.41-3.13.6-4.69.44-3.19.7-4.79c.19-1.14.43-2.28.53-3.46.11-1.37.58-2.71.79-4.08.28-1.77.76-3.5,1.17-5.24a17.81,17.81,0,0,0,.69-2.85"/>
    <path d="M110.33,154.5a20.19,20.19,0,0,1,.73,3.32,16.83,16.83,0,0,1,.53,2.76c0,.33.29,1.6.37,2.23.15,1.24.4,2.47.6,3.7s.41,2.47.62,3.7c.33,2,.51,4,.91,6,.23,1.19.27,2.42.49,3.61s.49,2.56.68,3.86c.24,1.59.51,3.18.77,4.77s.48,2.9.68,4.36.35,3,.56,4.5c.14,1,.36,2.05.52,3.08.1.64.16,1.28.24,1.93"/>
  </g>
  <path class="pauldronStrap" d="M124.11,103.43a17.34,17.34,0,0,0,5.22-1.57,19.22,19.22,0,0,0,6.11-4l4.31,6.85a19.4,19.4,0,0,1-4.15,2.94,33.55,33.55,0,0,1-9.26,3.75,27.39,27.39,0,0,1-3.15.4Z"/>
  <g class="brass">
    <path d="M80.6,202.64c2.47.23,4.79-2.83,4.42-5.4-.25-1.79-.83-3.19-2.65-3.77a4.75,4.75,0,0,0-5.11,1.37,5.11,5.11,0,0,0-.43,6.32,3.94,3.94,0,0,0,3.23,1.55A3.25,3.25,0,0,1,80.6,202.64Z"/>
    <path d="M111,193.31a3.55,3.55,0,0,1,3.15,2.09,5.81,5.81,0,0,1,.13,4.37,4.66,4.66,0,0,1-3.43,3,4.3,4.3,0,0,1-5.1-6,5.77,5.77,0,0,1,3.63-3.3A14,14,0,0,1,111,193.31Z"/>
    <path d="M70.57,196a5,5,0,0,0-1-3.5,3.4,3.4,0,0,0-3.19-1.1,4.56,4.56,0,0,0-3.71,2.51,2.3,2.3,0,0,0-.28.78c-.07,1-.57,1.91-.14,2.93a4.39,4.39,0,0,0,2.37,2.29,5.48,5.48,0,0,0,1.53.32,4.63,4.63,0,0,0,4-2.46A10.73,10.73,0,0,0,70.57,196Z"/>
    <path d="M123.27,190.08a4.1,4.1,0,0,1,4.21,2.78,5.33,5.33,0,0,1-1.22,5.15c-2.44,2.61-5.48.65-6.39-1.69a4.6,4.6,0,0,1,1.26-5.37,4.44,4.44,0,0,1,2.06-.87Z"/>
  </g>
  <path class="shirt" d="M122.42,128.47c.12-1,.21-2,.27-2.93a44.61,44.61,0,0,1,.46-4.62,40.26,40.26,0,0,1,1-5.55l.31-.07c-.45,0-.3-.21-.24-.47a24.29,24.29,0,0,0,.54-2.39c.23-1.53.55-3,.66-4.61.1-1.34.4-2.67.41-4,0-1.8-.08-3.6-.23-5.39-.13-1.55-.36-3.09-.61-4.62-.17-1-.45-2-.68-2.93a15.63,15.63,0,0,0-2.39-5.78l-6.7-7.85c-.59-.31-1.19-.6-1.77-.93a14.09,14.09,0,0,0-3.16-1.38c-.44-.11-.9-.34-1.31.07a4.79,4.79,0,0,1,.28.94,2.78,2.78,0,0,1-.36,2.29,16.05,16.05,0,0,1-1.76,2.1,26,26,0,0,1-5.32,4.24c-1.34.79-1.48.82-2.62-.32a12.38,12.38,0,0,0-1.56-1.44c-2.27-1.6-4.37-3.43-6.74-4.9a46.82,46.82,0,0,0-5.94-3.14,3.43,3.43,0,0,0-1.55-.34,16.47,16.47,0,0,0-4.38,1c-1.76.66-3.54,1.32-5.25,2.12A40.23,40.23,0,0,0,65.67,82c-1,.75-2,1.52-1.94,3l.08-.38a.72.72,0,0,0,.62-.06,3,3,0,0,1,3,.17,7.22,7.22,0,0,1,1.84,1.63,22.38,22.38,0,0,1,2.87,5,16.93,16.93,0,0,1,1.14,4.31A16.22,16.22,0,0,1,73.56,98a16.67,16.67,0,0,1-.49,4.71A12.1,12.1,0,0,1,72,105.94a13.81,13.81,0,0,1-3.1,3.51A4.31,4.31,0,0,0,67.06,112a25.57,25.57,0,0,0-.39,3.15c-.14,1.57-.23,3.13-.32,4.7-.12,2.13-.07,4.26-.08,6.39a1.61,1.61,0,0,0,0,.31,38.32,38.32,0,0,1,.61,4.78Z"/>
  <path class="belt" d="M66.58,139.94a22.29,22.29,0,0,1-.25,5.16,20.42,20.42,0,0,1-.6,2.77A2.59,2.59,0,0,0,67,151.11a22,22,0,0,0,5.55,2.08c2.45.72,5,1.1,7.48,1.59a30.41,30.41,0,0,0,5.23.66c.79,0,1.59.13,2.39.18,1.63.11,3.28.06,4.92,0s3.24-.14,4.86-.22,3.23-.12,4.85-.24q2.9-.21,5.77-.54a58,58,0,0,0,6.46-.88,22.46,22.46,0,0,0,6.93-2.21A4.8,4.8,0,0,0,124,147c-.12-1.82-.26-3.64-.26-5.47s.29-3.39.41-5.08a36.59,36.59,0,0,0,.36-6.7,7.56,7.56,0,0,0-1.79-3.93,2.09,2.09,0,0,0-2.23-.51c-2.21.36-4.39.83-6.63,1.08-1.28.14-2.57.16-3.85.31-1.54.19-3.08.23-4.62.29-3,.11-6,.24-9,.47-2,.15-4.06-.15-6.09-.19C89.92,127.21,66.58,139.94,66.58,139.94Z"/>
  <path class="sash" d="M116.18,74.78a1.82,1.82,0,0,0-1.85,1.08c-.91,2.09-2,4.1-3,6.11-.88,1.64-2,3.13-3,4.68-1.12,1.71-2.13,3.49-3.34,5.14s-2.41,3.45-3.56,5.2c-1.59,2.44-3.48,4.64-5.28,6.9a51.44,51.44,0,0,1-3.89,4.2c-1.16,1.17-2.14,2.52-3.33,3.67-2.13,2.06-4.14,4.24-6.4,6.16-1.12,1-2.15,2-3.24,3a40.51,40.51,0,0,1-5.78,4.47c-1.08.66-2.13,1.37-3.24,2a34.41,34.41,0,0,1-4,2.05,2.4,2.4,0,0,0-1.51,2.2,52.17,52.17,0,0,0-.75,6.46,6.45,6.45,0,0,0,.41,3.09c.13.28,0,.66.16,1a1.07,1.07,0,0,0,1.32.77,44.53,44.53,0,0,0,8.67-3.6,80.26,80.26,0,0,0,8.6-5.32,78.61,78.61,0,0,0,7.67-6.19c1.72-1.59,3.39-3.24,5-4.93q3.06-3.21,6-6.54a105.79,105.79,0,0,0,7.3-8.94c1.58-2.25,3.12-4.51,4.75-6.73a22.37,22.37,0,0,0,2.29-3.88,22,22,0,0,1,1.87-3c1-1.57,1.91-3.21,2.89-4.8a51.88,51.88,0,0,0,2.79-5c.25-.51.45-1,.68-1.54Z"/>
  <path class="pauldron" d="M144.45,106.75a7,7,0,0,0-.48-2.47,68,68,0,0,0-3.53-9.55,41.25,41.25,0,0,0-3.75-7.07,35.83,35.83,0,0,0-5.79-6.81,46.44,46.44,0,0,0-7.19-5,18.38,18.38,0,0,0-6.14-2.42,3.74,3.74,0,0,0-3.39,1c-.51.48-.44.79.23,1.07,1,.44,2,.87,3,1.37a14.2,14.2,0,0,1,6,7.35,30.58,30.58,0,0,0,4.07,7.89,27.72,27.72,0,0,0,3.45,4.08c1.4,1.43,3.08,2.58,4.28,4.2a36,36,0,0,1,1.79,3.15c.94,1.6,1.54,3.36,2.39,5a21.75,21.75,0,0,0,2.53,3.86,1.3,1.3,0,0,0,2.15,0,3.26,3.26,0,0,0,.78-2.08,15.57,15.57,0,0,0-.32-3.47Z"/>
  <path class="guard" d="M30.15,187c.87-.14,1.75-.13,2.62-.29a5.52,5.52,0,0,0,3.07-1.65,23,23,0,0,0,3.81-5.44,17.22,17.22,0,0,0,1.63-5,4.25,4.25,0,0,0-.8-3.23,11.24,11.24,0,0,0-6.64-4.13,6,6,0,0,0-5.52,1.46,16,16,0,0,0-3.57,4.87,28.5,28.5,0,0,0-1.91,5.05,5.19,5.19,0,0,0,1.62,5.54c.39.37.81.72,1.22,1.08Z"/>
  <path class="blade" d="M6,255.55a10.47,10.47,0,0,0,2.74-2.65,52.27,52.27,0,0,0,3.73-4.9,32.5,32.5,0,0,0,3.93-8.55c.68-2.4,1.44-4.77,2.15-7.16q1.32-4.47,2.62-8.94,1.55-5.23,3.08-10.47L27.3,202.4l3.08-10.47c1-3.49,2.05-7,3.09-10.47.54-1.83,1.09-3.66,1.7-5.47a2.67,2.67,0,0,0-1.71-3.38,2.48,2.48,0,0,0-3.38,1.6c-1.5,4.19-2.95,8.39-4.48,12.56-1.62,4.4-3.19,8.82-4.78,13.24q-2.7,7.47-5.39,14.94T10,229.89c-.86,2.42-1.69,4.85-2.62,7.24a30.21,30.21,0,0,0-1.66,6c-.25,1.58-.3,3.19-.57,4.77a13.62,13.62,0,0,0,.15,4.23,10.67,10.67,0,0,0,.56,3.4Z"/>
</svg>
