<svg viewBox="0 0 218.19 290.59">
  <rect class="frame" x="0.5" y="0.5" width="217.19" height="289.59"/>
  <path class="shadow" d="M170.56,145a6.29,6.29,0,0,0-.17-1.78,13.93,13.93,0,0,1,.63-3.85c-.46-.15-.92-.32-1.39-.46a1.36,1.36,0,0,1-.91-2,5.63,5.63,0,0,0,.37-3.93,6.5,6.5,0,0,1,1-5.25,3.23,3.23,0,0,1,4.32-1c1.57.7,2.23,2.18,2.87,3.67s.94,2.87,2,4a1.56,1.56,0,0,1-.16,2.54l-.69.61.16.39a9.54,9.54,0,0,1,2.84,4.39Z"/>
  <g class="skinAshkenazi">
    <path d="M138.75,168.48c1.54-.23,3-.7,4.54-1.08l7.78-2a9.68,9.68,0,0,0,.2-3.06c-.14-1.23-.14-2.48-.39-3.71a20.48,20.48,0,0,0-1.28-4.07,14.83,14.83,0,0,0-4.7-5.46c-.41-.33-.71-.9-1.38-.78Z"/>
    <path d="M13.88,104.77c.11.81,28.54,62.22,29.29,63.86.15.31,19.76-1.07,21-1.08,0,0,.68,2,.92,2.77.46,1.54,1.91,18.62,2.23,19.14l50.91-43.66c-.06-.1-27.55-107.74-28-109.87-.12-.62-75.91,18.21-77,18.71C13.21,54.64,13.78,104.07,13.88,104.77Z"/>
    <path d="M141.67,139.06a4.67,4.67,0,0,0-1.68,3.08,7.38,7.38,0,0,0,.37,3.54c.22,1-14,6.95-17.39,7.82-4.54-17.86-1.47-31.67-6-49.56,15.31-3.89,22.92-11.79,38.18-15.67,0,.27,6.61,25.78,7.9,30.76.08.34-12.85,21.8-13.43,21.69C148.42,140.51,141.67,139.06,141.67,139.06Z"/>
  </g>
  <g class="skinOverlapLine">
    <path d="M106.09,131.12c-.44,2.74-1.56,4.27-3,6.54a29.23,29.23,0,0,1-4,5.21c-1.49,1.48-3,3-4.54,4.4-1.91,1.67-4,3.12-6,4.63A66,66,0,0,1,80,157a71.31,71.31,0,0,1-7.54,3.46,37.71,37.71,0,0,1-5.92,2,30.73,30.73,0,0,1-4.08.29"/>
    <path d="M128.89,127.43a15.57,15.57,0,0,0,3.18,7.18,9.06,9.06,0,0,0,6,3.69,13.32,13.32,0,0,0,3.93.22"/>
  </g>
  <g class="hairRed">
    <path d="M155.15,89.22a19,19,0,0,1,4.15,2.1c1.86,1.45,3.76,2.89,4.79,5.14a7.17,7.17,0,0,1,.76,3.85,17.28,17.28,0,0,0,.75,5.63c.38,1.75,1.35,3.22,2,4.85a8.26,8.26,0,0,1,.22,4.54,10.7,10.7,0,0,1-1.43,3.4,4.21,4.21,0,0,1-1.49,1.53,4.59,4.59,0,0,0-2.16,3.47,16.09,16.09,0,0,0-.25,3.47,12.48,12.48,0,0,1-.31,3.22c-.26,1.16-.3,2.33-.63,3.48a21.34,21.34,0,0,1-2.05,4.84,5.57,5.57,0,0,0-.65,4.16,3.17,3.17,0,0,0,1.83,1.83,4.85,4.85,0,0,0,.69.32c.28.11.65.1.61.55a.85.85,0,0,1-.69.78,9.43,9.43,0,0,1-5.08,0,30.65,30.65,0,0,1-5.78-2.9,4.4,4.4,0,0,0,.54,1.24c.35.47.47,1.06.92,1.47a.68.68,0,0,1,.2.93c-.25-.08-.5,0-.83-.14a20.4,20.4,0,0,1-3.14-1.56,18.75,18.75,0,0,1-5.15-4.48,4.34,4.34,0,0,1-1.14-2.45c.73-.13,1.44-.21,2.12-.4a16.64,16.64,0,0,0,6.58-3.34,13.78,13.78,0,0,0,4.06-6,20.77,20.77,0,0,1,2.2-4.49c.81-1.24,1.63-2.47,2.49-3.68a32.09,32.09,0,0,1,2.24-2.61,3.36,3.36,0,0,0-.62-.53,20.3,20.3,0,0,1-4.44-3.42,30.31,30.31,0,0,1-3.36-4,23,23,0,0,1-2.8-4.5,22.84,22.84,0,0,0-3.95-6.15,10.31,10.31,0,0,0-2.8-2.25,11.51,11.51,0,0,1-1.64,3.42,16.71,16.71,0,0,1-4.12,4.14c-2.17,1.56-4,3.38-4.7,6.08-.07.27-.07.62-.51.71a10.32,10.32,0,0,1-1.95-3.09c-.65.3-.41,1-.57,1.48a21,21,0,0,1-2.42,4.92c-.9,1.39-2.07,2.62-2.49,4.3-.36,1.43-.69,2.86-.94,4.31-.19,1.19-.21,2.36-.29,3.55a26,26,0,0,0,.17,5.85c.15.93.37,1.85.53,2.78a1,1,0,0,1-.76,1.23,4.53,4.53,0,0,1-1.24-.16c-.78-.32-1.51-.43-2.23-.77-.26-.12-8.86-31-8.86-31,.43.23.8-.09,1.06-.25a17.64,17.64,0,0,0,4.09-3.3A8.52,8.52,0,0,0,118.8,98Z"/>
    <path d="M107,97.23c-.36.31,12.11,43.69,12,44.83a5.53,5.53,0,0,1-2.54,0,21.81,21.81,0,0,1-3.87-3c-1.25-1.32-2.49-2.65-3.67-4a25.23,25.23,0,0,1-2.52-3.32c-.83-1.37-1.46-2.86-2.17-4.3-1-2-1.63-4.25-2.45-6.37-.89-2.3-1.44-4.68-2.09-7-.85-3.11-1.52-6.27-2.34-9.39-.63-2.36-.8-4.79-1.29-7.17-.22-1.07-.3-2.17-.6-3.24a13.38,13.38,0,0,1-.33-2.38c-.1-1-.19-2.11-.35-3.15-.43-2.8-1.43-8.48-1.16-8.48-.09-.54-.2-1.07-.26-1.61A14.75,14.75,0,0,0,93,76.13c-.15-.45-.71-.95-1.08-.75a12,12,0,0,1-3.56.88,55.56,55.56,0,0,1-6.92,1c-1.78.1-3.55.39-5.32.59h-.08c-1.44,0-2.87.18-4.31.29-3.07.26-6.16.29-9.24.25a56.76,56.76,0,0,1-7.93-.62,62.78,62.78,0,0,1-9.16-1.65,30.65,30.65,0,0,1-4.51-1.59c-1.45-.72-3.16-.92-4.66-1.61-1-.44-6.17-3.12-7-3.7-1.34-.94-2.6-2-3.95-2.91-2.79-1.89-5.42-4-8.54-5.41a2.54,2.54,0,0,0-1.62-.3v.08a10.66,10.66,0,0,0-.51,3c-.09,1.49,0,2.29,0,3.78,0,.3.13,6.62.14,9.55a67.71,67.71,0,0,0,.45,6.84A32.62,32.62,0,0,0,16,88.32c.4,1.57,1,3.05,1.45,4.6a24.6,24.6,0,0,0,1.1,2.46c1.05,2.69,2.25,5.32,3.27,8A40.33,40.33,0,0,1,23,107.55c.43,1.68.65,3.41,1.07,5.1.34,1.38.53,2.82.8,4.23s.76,3,1.05,4.47.69,2.91.95,4.38c.15.88.52,1.68.75,2.53a44.44,44.44,0,0,0,2,6c.75,1.74,1.58,3.44,2.46,5.13,1.21,2.32,2.65,4.48,4.07,6.66a27.49,27.49,0,0,0,5.2,6c1.07.9,2.12,1.82,3.11,2.82A34.67,34.67,0,0,0,49,158.22a24.75,24.75,0,0,0,5.85,3.07,16.49,16.49,0,0,0,5.07,1.1c.67,0,1.33.16,2,.18s1,.36,1.2,1.12a23.56,23.56,0,0,0,.81,2.55,12.3,12.3,0,0,1,.3,2.24,28.4,28.4,0,0,1-4.54,1.93c-2.36.81-4.81,1.24-7.23,1.81a18.22,18.22,0,0,1-4.26.63l-4.2.47a34.89,34.89,0,0,1-5.48,0,19.86,19.86,0,0,1-3.4-.29c-1.61-.15-3.24-.21-4.85-.42-.84-.1-2.89-.66-2.54-1s.61-.46,1.38-.92a11.68,11.68,0,0,0,1.54-1.54c1.18-1.57,1.05-3.35,1.47-3.46.07,0-3.21,2-3.85,2.23s-1.32.61-2,.84a12.33,12.33,0,0,1-6.23.36,16.57,16.57,0,0,1-8.09-3.75,1.66,1.66,0,0,1-.62-1.15,2.51,2.51,0,0,1,1.08-.32,12.51,12.51,0,0,0,3.4-.72,11.07,11.07,0,0,0,5.13-4.14,14.64,14.64,0,0,0,1.64-3.14,16.43,16.43,0,0,0,1.61-7.16c0-1.25-.34-2.47-.5-3.7a13.93,13.93,0,0,0-.56-2.9c-.83-2.3-1.56-4.64-2.54-6.88-1-2.39-1.92-4.85-3-7.23s-1.8-5.06-3-7.49a2.62,2.62,0,0,1-.26-.76,13.36,13.36,0,0,0-.95-3,34.08,34.08,0,0,1-2.2-8.64,63.62,63.62,0,0,1-.39-7.93c0-3.21.12-6.42.15-9.63,0-2.62-.07-5.24,0-7.85s-.1-5-.25-7.55c-.08-1.34-.16-2.67-.23-4,0-.61,0-2.54,0-2.54-.18-1.67,0-3.39-.94-4.93A13.07,13.07,0,0,1,8,58.34a9.07,9.07,0,0,1,.36-4.15,20.2,20.2,0,0,1,1.81-3.71,12.79,12.79,0,0,1,3.7-3.7,5.66,5.66,0,0,0,1.48-1.06c.88-1.13,1.58-2.37,2.37-3.55l.24-4.62a24,24,0,0,1,1.32-5.65,22.47,22.47,0,0,1,4.32-7,31.31,31.31,0,0,1,7.3-6.17c3-1.91,58.07-15.73,59.6-15.61,2.09.15,4.17.21,6.25.55A55.33,55.33,0,0,1,103.47,5a29,29,0,0,1,5.34,2c1,.52,2.07.93,3,1.51,1.84,1.08,3.67,2.17,5.47,3.31A69.35,69.35,0,0,1,128,20.71a53.28,53.28,0,0,1,4.19,4.9,69.73,69.73,0,0,1,6.15,9.25,72.22,72.22,0,0,1,4.2,8.45c.85,2,1.76,4,2.54,6s1.36,3.87,2,5.82a56.71,56.71,0,0,1,2,6.49,31.66,31.66,0,0,0,1.65,5.22c.6,1.54,1.33,3,2,4.56.46,1.07.94,2.16,1.35,3.24.69,1.85,1.57,3.59,2.36,5.38A23.56,23.56,0,0,0,159,83.91Z"/>
  </g>
  <g class="hairOverlapLine">
    <path d="M86.14,49.1a21.51,21.51,0,0,1,1.22,3.24c1.56,4.15.59,1.69,1,2.75.2.53,1.65,4.31,2,5.73.53,2.2,1.06,4.31,1.5,6.53.31,1.56.34,3.14.64,4.7a19.32,19.32,0,0,1,.18,3.23"/>
    <path d="M133.52,100.17a37.25,37.25,0,0,0-2.63,6.46,4.81,4.81,0,0,0-.38,1.7"/>
    <path d="M15.6,60.5a9.54,9.54,0,0,0-4.39-1.31"/>
  </g>
  <g class="maraHeadband">
    <path d="M85.53,46.55a34,34,0,0,0-3.86-6.38,37.48,37.48,0,0,0-5.93-6.08,38.72,38.72,0,0,0-4.17-3.3A42.36,42.36,0,0,0,60.88,26a40.68,40.68,0,0,0-9.54-1.54c-.78,0-3.26,0-4.86.13a39,39,0,0,0-9.55,2.35c-1.31.48-2.52,1.17-3.78,1.75a43.95,43.95,0,0,0-10.39,7.42c-1.06,1-2.09,2-3.07,3a34.48,34.48,0,0,0-3.33,4.46c-.3.46-.84,1.7-.61,1.7.77,0,1.62-.76,2.15-1.09,1.48-.92,2.9-1.94,4.4-2.83A78.66,78.66,0,0,1,33.47,36a45.39,45.39,0,0,1,7-2,40.77,40.77,0,0,1,14.17-.67c1.42.18,2.84.4,4.24.69a46.7,46.7,0,0,1,6.85,2,73.92,73.92,0,0,1,9.62,4.41A29,29,0,0,1,80.61,44a23.16,23.16,0,0,1,2.83,2.4,25.51,25.51,0,0,0,2.86,2.84A7.77,7.77,0,0,0,85.53,46.55Z"/>
    <path d="M141.13,91.92a32.71,32.71,0,0,1,4.7.46,33.9,33.9,0,0,1,4.16.23,17.64,17.64,0,0,1,5.55,1.31,22.48,22.48,0,0,1,9,6.33,10.94,10.94,0,0,1,2.71,5.38,2.07,2.07,0,0,1-.87,2.25c-.7-.46-.87-1.3-1.26-2a19.65,19.65,0,0,0-5-5.51,23.68,23.68,0,0,0-3.93-2.53,18.13,18.13,0,0,0-10.62-2,27.52,27.52,0,0,0-4.69,1,38.9,38.9,0,0,0-4.23,1.76,16.31,16.31,0,0,0-3.17,1.61,15,15,0,0,1,3.08-4Z"/>
  </g>
  <path class="shirt" d="M56.2,182a2.36,2.36,0,0,0-.41,1.77,17.92,17.92,0,0,0,2.31,4.93c.88,1.57,1.77,3.14,1.44,5.09,0,.23-4.74,43-4.74,43,.18-.32,55.07-14.18,54.92-14.71-.36-1.28-6.77-26.87-7.7-27.37-2.06-1.11-25.94-15.86-27.66-15.84a5.46,5.46,0,0,0-4.14,1.4,7.24,7.24,0,0,0-1.72,2.53c-.32.89-.7,1.75-1.07,2.62C67.14,186.08,56.4,181.62,56.2,182Z"/>
  <g class="maraDress">
    <path d="M128.43,189.35c-.11-.41-8.4-32.35-8.4-32.35-.73.43-23.89,34.43-24.49,35.05a26.41,26.41,0,0,0-2,5.84,13.87,13.87,0,0,1-.68,2c-1.12,3.13-1.91,6.34-2.71,9.55-.45,1.82-.84,3.66-1.3,5.47a41.33,41.33,0,0,0-1.14,6c0,.24-.7,2.75-.93,3.78-.29,1.25,120.59-27.82,120.15-28.41a20.91,20.91,0,0,1-1.49-2.8q-1.4-2.66-2.81-5.3c-.51-1-1.15-1.84-1.67-2.79a32.34,32.34,0,0,0-4.79-6.54c-1.56-1.65-3.42-2.94-5-4.53Z"/>
    <path d="M121.8,142.83c.16,0,.38.61.54.77a10.09,10.09,0,0,0,2.61,2,12.84,12.84,0,0,0,4.48,1.19,16.72,16.72,0,0,0,3.46.15,8.09,8.09,0,0,0,3.7-1.2,7.49,7.49,0,0,0,2.83-2.4c.24-.43.81-.69.71-1.3l.08.54a26.19,26.19,0,0,1,3.77,4.31,6.75,6.75,0,0,1,1.25,4.08c0,.77.05,1.54.06,2.31,0,.21-.39,2.61-.49,3.4-.17,1.38-.34,2.77-.52,4.15a10.56,10.56,0,0,1-.45,1.62c-.64,2.05-1.11,4.16-1.92,6.16-.17.43-9.2,3.59-12.56,4.54Z"/>
    <path d="M61.19,232.86c-.14-1.69-.13-3.39-.26-5.08s-.19-3.5-.4-5.24c-.11-.9.13-1.85,0-2.77a34.76,34.76,0,0,1-.13-4.08,49.31,49.31,0,0,1-.15-5c.09-3.42.07-6.84.5-10.24a22.54,22.54,0,0,0,.07-4.86,11.22,11.22,0,0,0-1.44-4.31s-1.08,3.48-1.82,5.25a15.5,15.5,0,0,0-.9,2.53,16.27,16.27,0,0,1-.74,1.93c-.78,2.13-1.25,4.36-1.88,6.53-.5,1.69-.89,3.41-1.31,5.11a41.07,41.07,0,0,0-.74,4.3c-.2,1.56-.56,3.08-.82,4.63a36.2,36.2,0,0,0-.62,4.3,14.66,14.66,0,0,1-.44,3.18,30.4,30.4,0,0,0-.74,4.3S61.23,233.35,61.19,232.86Z"/>
  </g>
  <g class="collar">
    <path d="M120.72,159.31c.16.54-.18.94-.37,1.39a60.64,60.64,0,0,1-3.57,7.23c-.9,1.5-2,2.91-2.9,4.4-.75,1.24-1.78,2.29-2.45,3.55a52.88,52.88,0,0,1-4.26,6,56.58,56.58,0,0,1-4.52,5c-1.55,1.7-3.21,3.27-4.89,4.82a67.41,67.41,0,0,1-7.62,5.94c-.34.24-1.25,1-1.29.85a25.75,25.75,0,0,0-2.42-4.91,47.54,47.54,0,0,0-3.15-4.7,31.23,31.23,0,0,0-3.3-3.79,50.86,50.86,0,0,0-3.92-3.85A13.55,13.55,0,0,0,74.44,180a8.64,8.64,0,0,0-2.78-.69,43.89,43.89,0,0,1,3.94-3.23c1.36-.91,5.9-3.76,6.77-4.33,1.19-.78,5.07-3.26,5.78-3.76,1.4-1,2.9-1.86,4.22-3,2.23-1.85,4.68-3.4,6.88-5.28,1.94-1.66,7.14-6,7.77-6.48a47.39,47.39,0,0,0,5.73-5.51c1.29-1.49,2.75-2.82,3.89-4.43Z"/>
    <path d="M56.34,181.72a1.37,1.37,0,0,1,.06-.39,18,18,0,0,1,2.26-3.45c1.83-2.41,3.65-4.84,5.36-7.34a3.39,3.39,0,0,1,.87-.75c.07.07,1.08,3.81,1.74,5.55s1.37,3.4,2.13,5.06a1.72,1.72,0,0,1,0,1.56,6.66,6.66,0,0,0-.48,3.77c.4,2,.75,4,1.25,5.92a51.39,51.39,0,0,0,1.64,5.95c.21.55.65,1.15.33,1.86-.22,0-.38.14-.63-.16-1.05-1.29-1.82-2.77-2.82-4.1-1.92-2.53-3.54-5.28-5.39-7.86-.75-1.05-1.53-2.09-2.36-3A8.09,8.09,0,0,0,56.89,182C56.3,181.77,56.34,181.72,56.34,181.72Z"/>
  </g>
  <g class="photoFrame">
    <path d="M217.69,190.46l-5.54,1.28c-2.27.52-4.52,1.08-6.78,1.61-4.29,1-8.58,2-12.86,3-3.68.89-7.34,1.87-11,2.76-4.59,1.11-9.2,2.12-13.78,3.25-7.89,1.95-15.77,3.95-23.65,5.92-5.08,1.27-10.17,2.49-15.25,3.79-4.27,1.09-8.51,2.3-12.79,3.36-3.62.9-7.23,1.87-10.85,2.79-4.47,1.13-8.94,2.24-13.4,3.39-5,1.31-10.06,2.69-15.1,4-4.44,1.15-8.89,2.25-13.32,3.4q-9.14,2.35-18.25,4.77c-4.3,1.15-8.58,2.38-12.87,3.52-.58.15-1.19.27-1.76.42s-.68,0-.79-.48c-.41-1.72-.93-3.42-1.28-5.16-.49-2.38-1.09-4.72-1.63-7.08-1.75-7.71-3.71-15.35-5.56-23-1.57-6.46-3.29-12.87-4.83-19.34-1.87-7.85-3.91-15.65-5.88-23.48C9.06,153.4,7.56,147.65,6,141.91s-3-11.55-4.47-17.33c-.35-1.36-.71-2.72-1.07-4.07V179.2Q4.3,194.37,8,209.53c.94,3.79,1.81,7.59,2.7,11.4,1.11,4.77,2.18,9.55,3.33,14.32.88,3.64,1.7,7.29,2.53,10.94,1,4.29,2,8.57,3,12.86q1.21,5.34,2.39,10.7,1.28,5.82,2.54,11.63c.64,2.91,1.29,5.81,1.93,8.71H60.59l.83-.24c4-1.14,8.07-2.24,12.1-3.35,5.26-1.45,10.51-2.93,15.79-4.33q6.59-1.76,13.16-3.55c4.69-1.27,9.4-2.47,14.1-3.71,5.28-1.38,10.57-2.79,15.86-4.15q11.48-3,22.95-5.85,12.17-3.07,24.34-6.08c5.13-1.26,10.27-2.41,15.4-3.63q8.17-1.95,16.33-3.93,3.12-.75,6.24-1.45Z"/>
    <path d="M217.69,56.93Q216,50,214.38,43c-.61-2.59-1.17-5.18-1.78-7.77-1.17-5-2.36-10.07-3.53-15.1q-1-4.38-2-8.78c-.8-3.62-1.61-7.24-2.4-10.86H190.42L191.2,4q1,4.38,2,8.78c.72,3.18,1.42,6.37,2.16,9.55s1.5,6.31,2.23,9.47c.86,3.72,1.67,7.45,2.55,11.17s1.79,7.44,2.69,11.16c1,4.19,2,8.38,3,12.56.93,3.8,1.9,7.6,2.85,11.4,2.49,10,5,20,7.48,30,.49,2,1,3.93,1.53,5.89Z"/>
    <path d="M46.12.5l-.57.14C40.64,1.89,35.7,3,30.77,4.2L20.45,6.66,9.59,9.28C6.56,10,3.53,10.76.5,11.46v14.9c2.85-.65,5.71-1.29,8.55-2L22.6,21.14l7.71-1.85c4.36-1,8.73-2,13.09-3.09,5.14-1.27,10.25-2.68,15.41-3.89,4.7-1.11,9.38-2.34,14.08-3.44,5.14-1.21,10.22-2.65,15.33-4,4-1,8-2,12-3.08L105.33.5Z"/>
    <path d="M127.81,191.27a11.09,11.09,0,0,1-.53-1.46c-.89-3.93-1.73-7.86-2.63-11.78-.87-3.73-1.79-7.45-2.69-11.17-1-4-2-7.9-2.92-11.86-1.26-5.26-2.56-10.49-3.94-15.71-1.22-4.65-2.55-9.28-3.67-13.95-1.58-6.52-3.47-12.94-5.26-19.4-.83-3-1.65-6-2.46-9-.22-.8-.2-.82.61-1,4.26-1,8.53-1.93,12.78-2.94,2.89-.68,5.75-1.45,8.63-2.14,7.25-1.75,14.5-3.51,21.72-5.4l16.41-4.31c3.23-.85,6.47-1.67,9.7-2.55,3.83-1,7.65-2.15,11.47-3.23.47-.14.67-.08.79.46.74,3.42,1.53,6.83,2.3,10.25.95,4.23,1.85,8.48,2.86,12.7,1.1,4.66,2.29,9.3,3.45,13.94s2.24,9.05,3.4,13.56c1.1,4.29,2.25,8.58,3.38,12.86s2.22,8.54,3.4,12.78,2.4,8.38,3.61,12.56c.64,2.23,1.27,4.46,1.91,6.68a5.18,5.18,0,0,1-.53.17c-2.33.55-4.66,1.13-7,1.61-4.69,1-9.36,2-14,3.17s-9.24,2.26-13.87,3.39c-3.56.87-7.13,1.77-10.7,2.61-5.41,1.29-10.79,2.7-16.17,4.09s-10.63,2.78-16,4.15c-1.32.35-2.67.63-4,.93Zm52.6-107.44c-3.33,1-6.72,1.82-10.09,2.7-5.52,1.43-11,2.89-16.55,4.34-8.27,2.19-16.59,4.16-24.88,6.29-4.12,1.06-8.25,2.08-12.4,3-1.21.27-2.41.51-3.62.77-.43.09-.61.28-.47.77,1,3.39,1.91,6.78,2.86,10.17,1.87,6.67,3.56,13.38,5.24,20.1,1.11,4.4,2.35,8.77,3.45,13.17,1.53,6.1,3,12.22,4.48,18.33.37,1.54.78,3.08,1.14,4.62.05.24.22.39.28.68l7.74-2L154,162.62l10.16-2.54c6.09-1.49,12.17-3,18.26-4.46,4.66-1.13,9.34-2.21,14-3.32.4-.1.77-.25,1.16-.38h-.16c-.05-.26-.08-.52-.15-.77-1.3-4.91-2.57-9.82-3.91-14.72-1.41-5.16-2.7-10.36-4-15.55q-1.65-6.54-3.23-13.1-1.38-5.64-2.7-11.32c-1-4.25-1.95-8.52-2.93-12.78Z"/>
    <path d="M167.24,144.37c-.38-1.67-.77-3.34-1.15-5-1-4.22-2.09-8.41-3.39-12.55a1.4,1.4,0,0,1,.77-.4c2.09-.55,4.2-1,6.31-1.54,3-.71,6-1.53,8.94-2.3.91-.23.93-.23,1.15.7.63,2.61,1.2,5.24,1.86,7.85.77,3,1.6,6.06,2.41,9.12a5.75,5.75,0,0,1-1.8.42c-4.51,1-9,2.12-13.41,3.39-.52.15-1,.56-1.61.32Zm21.11,1.69c-.42-.46-.37-1.08-.53-1.62-1.13-4-2.26-7.94-3.31-11.94-.77-2.93-1.4-5.9-2.09-8.85-.29-1.25-.61-2.51-.84-3.78-.11-.61-.34-.81-.94-.61-2.61.86-5.28,1.51-7.93,2.23s-5.22,1.28-7.85,1.86c-1.76.38-3.51.83-5.27,1.25a9.16,9.16,0,0,0,.49,1.82c1.73,5.32,3.12,10.72,4.32,16.18.6,2.74,1.22,5.47,1.69,8.24.12.68.3.74,1,.54,3.72-1,7.42-2.17,11.18-3a90.1,90.1,0,0,1,9.07-1.89,3.39,3.39,0,0,0,.78-.3Z"/>
  </g>
</svg>
