<svg viewBox="0 0 196.47 261.63">
  <rect class="frame" x="0.5" y="0.5" width="195.47" height="260.63"/>
  <path class="fur" d="M101.57,228.62a1.6,1.6,0,0,0-.06,1.5,3.51,3.51,0,0,0-1.05,1.41c-.06.21-.19.45-.13.62a2.85,2.85,0,0,1-.41,2.16,4.4,4.4,0,0,0,.06,3.59,1.79,1.79,0,0,1,0,1.55,2.81,2.81,0,0,0,.09,2.07c.2.49.28.88-.39,1.28a2.63,2.63,0,0,0-1.25,2.52c.08.94-.13,1.85-.1,2.78a3.81,3.81,0,0,0,5,3.39c.48-.91,1.31-.43,2-.48a3.35,3.35,0,0,0,2.07-.91c.17-.15.39-.36.4-.55,0-.66.58-.79,1-1.13a3.4,3.4,0,0,0,1.41-3,1.81,1.81,0,0,1,.28-1.24,4.55,4.55,0,0,0,.39-4.16,3.38,3.38,0,0,1-.1-2,6.64,6.64,0,0,0-.36-2.78l.2-.2a12.81,12.81,0,0,0,1.32-.57,4.26,4.26,0,0,0,1.8-1.93,2,2,0,0,1,1-1,3.68,3.68,0,0,0,1.55-1.64,6.79,6.79,0,0,1,1.75-2.26,3.89,3.89,0,0,0,1.34-3.78,2.5,2.5,0,0,1,.39-1.9,2.32,2.32,0,0,0,.39-2.27c-.05-.11,0-.27.06-.41,2.5.41,3.26,0,4.26-.93a3.64,3.64,0,0,0,2.46.88c.93.07,12.64-1.45,13.52-1.38a4.35,4.35,0,0,0,3.74-1.28.93.93,0,0,0,.13-.27c2.63,1.24,7.09-.16,7.93-2.48a2,2,0,0,0,2.55-.49c.44-.42,1.09-.36,1.61-.67a5.78,5.78,0,0,0,1.86-1.92,7.81,7.81,0,0,0,1.45.22,2.57,2.57,0,0,0,2.15,2.5c.4.11.74.35.68.83a1.4,1.4,0,0,0,1.06,1.5c.59.25.64.53.42,1.07a2.75,2.75,0,0,0-.14,2.28.51.51,0,0,1,0,.48,4.1,4.1,0,0,0,.88,4.68c1.09.88,3.67,3,3.66,3.37s.49.54.81.53c.73,0,1.52.23,2.16-.38.23-.21.55-.09.83,0a1.9,1.9,0,0,0,2.62-.56c.06-.08.19-.17.15-.34-.15-.64.31-1.14.42-1.73.35-1.81.41-2.47-1.19-3.6-.28-.2-.17-.52-.32-.78a2.44,2.44,0,0,1-.09-1.93,4.29,4.29,0,0,0-.12-3.29c.76.21,1.41.22,1.74,1a1.66,1.66,0,0,0,1.29.82,5.43,5.43,0,0,0,4.64-1,1.53,1.53,0,0,0,.69-1.24c0-.37.26-.48.43-.69.42-.54,1-1,.89-1.8a2.14,2.14,0,0,0-.54-1.4,3.37,3.37,0,0,1-.76-1.59,3.25,3.25,0,0,0-1.88-2.29,1.33,1.33,0,0,1-.65-.67,2.67,2.67,0,0,0-1.78-1.62,1.35,1.35,0,0,1-1-.89,4.2,4.2,0,0,0-2.78-2.63,2.31,2.31,0,0,1-1.32-1c-1.12-1.82-1.72-2.25-3.74-2.63a2.91,2.91,0,0,0,.07-1.25c-.28-1,.42-1.57.84-2.28a5,5,0,0,0,.82-2.78,1.07,1.07,0,0,0-.2-.69c-.42-.5-.24-1,0-1.53a2.1,2.1,0,0,0-.15-2.4,1.92,1.92,0,0,1-.32-2,3,3,0,0,0-.69-3.2,1.86,1.86,0,0,1-.26-.51,1.57,1.57,0,0,0,.62-1.35.74.74,0,0,1,.6-.78,4.27,4.27,0,0,0,1.39-.75,2.53,2.53,0,0,0,1.06-1.59,1.62,1.62,0,0,1,1.14-1.3,4.75,4.75,0,0,0,3.21-3.62s0,0,0-.07c-.39-.87.27-1,.81-1.42a4.71,4.71,0,0,0,1.85-1.83,4,4,0,0,0,.11-3l-.21-.69a2.76,2.76,0,0,0,2.16-.28.87.87,0,0,1,.55-.21c.39.56.69,1.24,1.59,1.05.29-.06.45.26.61.42a2.59,2.59,0,0,0,1.47.76c1,.18,1.3-.09,1.25-1.12,0-.16,0-.32.14-.42a20.25,20.25,0,0,0,1.81,1.45c.37.24.78-.05.89-.54a4.07,4.07,0,0,0-.15-2.08,14.35,14.35,0,0,0-3.66-6.11,8.46,8.46,0,0,0-2.49-2.08.76.76,0,0,1-.3-.47,11.13,11.13,0,0,0-4.92-6.22,7.62,7.62,0,0,0-3.24-1.1,4,4,0,0,0-2.64.72,1.8,1.8,0,0,1-2,.37c-.31-.15-.68.11-.95.34s-.47.27-.69.42a.94.94,0,0,1-1.39-.3,5.36,5.36,0,0,0-2.65-1.92,2.4,2.4,0,0,0-1.17-.16,1.28,1.28,0,0,1-1.54-.75,3,3,0,0,0-1.14-1.08,1.61,1.61,0,0,0-1.48-.18,1.2,1.2,0,0,1-1.66-.83,3.84,3.84,0,0,0-3.75-2.46c-1,0-5.52-.85-5.61-.86-1.46-.3-2.09.07-2.65,1.45a4.76,4.76,0,0,0-.19,2,1,1,0,0,1-.76,1.13,2.32,2.32,0,0,0-1.3,1.65,3.39,3.39,0,0,0,.4,3,10.08,10.08,0,0,1,1,2.51c.11.31.47.46.45.84-.41.21-.86.31-1.27.53a2.73,2.73,0,0,0-.81,3.61,1.14,1.14,0,0,1,.08,1.33,3.13,3.13,0,0,0,1.58,4.14,3.41,3.41,0,0,1,1,.56.89.89,0,0,1,.36.63,4.51,4.51,0,0,0,2.29,3.51,2.58,2.58,0,0,0,1.23.47c.75,0,1.07.57,1,1.42a1.69,1.69,0,0,0,.28,1.19,1.09,1.09,0,0,1-.15,1.5,2.94,2.94,0,0,0-1.17,2.51,1.89,1.89,0,0,1-.69,1.46,2.55,2.55,0,0,0-.9,1.39c-.07.36-.33.43-.62.48a1.5,1.5,0,0,0-1.52,1.39,1.36,1.36,0,0,1-1.32,1.18,3,3,0,0,0-1.71.79,3.33,3.33,0,0,1-1.83.72c-2.42.53-4.84,1.09-7.28,1.51-1.93.34-3.83.78-5.75,1.14s-3.92.86-5.9,1.23c-1.59.31-3.19.63-4.78,1a3.28,3.28,0,0,1-1.31-.14c-1.54-.31-2.66.44-3.79,1.32-2-.88-3.88-.42-5.78,1.47a4.6,4.6,0,0,0-3.84.73,9.16,9.16,0,0,1-1.5,1s-1.23-2.6-2.9-3.19c.17-1.46,0-2.72-1.25-3.61l-.28-.2a3.35,3.35,0,0,0-1.13-3.62,4.85,4.85,0,0,0,.35-1.1,1.61,1.61,0,0,0-1.51-1.89c-.86-.09-1.06.53-1.46,1a3,3,0,0,0-.46,1.6,14.31,14.31,0,0,0-.59,3.05,5.3,5.3,0,0,0,.28,2,3.75,3.75,0,0,1,.29,1.59,6.25,6.25,0,0,0,1.43,4.33,1.3,1.3,0,0,1,.38,1.43,3.78,3.78,0,0,0,.83,3.31,1.85,1.85,0,0,1,.27.71,6.36,6.36,0,0,0-3.07,5.54,2.24,2.24,0,0,1-.85,2,5.37,5.37,0,0,0-1.92,3.84,5,5,0,0,0,.09,2.36,1.92,1.92,0,0,1-.22,1.59,4.45,4.45,0,0,0,0,4.58,4.1,4.1,0,0,1,.35.9,1.38,1.38,0,0,1-1.38,1.87,2,2,0,0,0-1.94,1.46l-.32.84c-1.4-.39-2.5.63-3.13,1.73a2,2,0,0,1-.78.89,4.54,4.54,0,0,0-2.54,4,4,4,0,0,1-1.21,2.34,6.7,6.7,0,0,0-1.6,3.2,3.85,3.85,0,0,1-1.51,1.95A4.94,4.94,0,0,0,73.78,240c-.09.75-.15,1.54.68,2a.3.3,0,0,1,.13.21c.08,1.55,1.19,1.9,2.43,2.16a3.38,3.38,0,0,1,1.4.53,2.89,2.89,0,0,0,3.94-.62s.17-.33.21-.33a2.59,2.59,0,0,0,1.79-.92,2.31,2.31,0,0,0,1.09-1.79,3.23,3.23,0,0,1,1-2.43,4.07,4.07,0,0,0,1.06-2.91,3.88,3.88,0,0,1,1-2.91,2.92,2.92,0,0,0,.83-2.85l.35.07a6.66,6.66,0,0,1,3.11.11,3.09,3.09,0,0,0,1.66-.29,2.65,2.65,0,0,0,1.27-1.43,4.81,4.81,0,0,1,.54.16,2.9,2.9,0,0,0,2.49-.15,1.77,1.77,0,0,1,.57-.2,9.85,9.85,0,0,0,2.28-.48A1,1,0,0,1,101.57,228.62Z"/>
  <g class="furOverlapLine">
    <path d="M111.75,215.8a3.54,3.54,0,0,1-3.19,2.49c-.46,0-.47.26-.35.63a3.54,3.54,0,0,1-1.31,3.67,3,3,0,0,1-1.33.3c.36,2.57-1.78,4.14-3.8,5"/>
    <path d="M183.49,155.84c-.45-.67-1.37-.48-2-.59a4.19,4.19,0,0,0-2.57.09c-.38.18-.59-.13-.76-.47a3.13,3.13,0,0,0-2.56-2c-.34,0-.3-.25-.35-.49a2,2,0,0,0-2.21-1.73.84.84,0,0,1-.85-.41,1.39,1.39,0,0,0-1.09-.7"/>
    <path d="M111.41,214.62a3.42,3.42,0,0,0,2.7,3,9.31,9.31,0,0,0,3.6.26c.34,0,.5-.05.71.28a2,2,0,0,0,1.65,1.12"/>
    <path d="M159.86,210.94a3.68,3.68,0,0,0,2.89-1.67.54.54,0,0,1,.71-.28c1,.23,2,.37,2.79-.58.49.38,1,.77,1.71.3a7.58,7.58,0,0,0,.49,1.61,3.36,3.36,0,0,0,2.5,1.84c.57.1.64.36.62.79a2.88,2.88,0,0,0,1.1,2.37c.26.22.85,0,1,.41"/>
    <path d="M146.06,207.82a2.17,2.17,0,0,0,2,2,5,5,0,0,0,2.43,0,3.87,3.87,0,0,0,3.66,1.45,3,3,0,0,0,2.45-1.19c.48.31.94.83,1.57.78"/>
    <path d="M168.87,198.19a1.32,1.32,0,0,1-1-.26,2.6,2.6,0,0,0-3.11-.29c-.54.28-1.06.61-1.6.89-.18.08-.38.23-.62,0a2.42,2.42,0,0,0-2.83-.11,15,15,0,0,1-2.59.83c-.29.08-.92.25-1.07-.58a1.81,1.81,0,0,0-1.48-1.46"/>
    <path d="M145.72,154c.75.55,1.05,1,1.94,1.24"/>
  </g>
  <path class="nose" d="M154.53,143.64a4.16,4.16,0,0,0-.06-1.95,4.83,4.83,0,0,0-2.52-2.62c-.31-.16-.64-.28-1-.42a2.6,2.6,0,0,0-3.51,2.14,3.8,3.8,0,0,0,2.54,4.49,3.44,3.44,0,0,0,2.91,0S154.48,144.52,154.53,143.64Z"/>
  <path class="mouth" d="M147.52,155.91A3.66,3.66,0,0,0,148.9,158a1.58,1.58,0,0,0,.69.36,1.45,1.45,0,0,1,1.17.82,2.79,2.79,0,0,0,1.4,1.45l.14.14c-1.29.81-3.6-.11-4.16-1.66a1.16,1.16,0,0,0-.54-.72c-.87-.53-1-1.17-.5-2.13a9.64,9.64,0,0,1,.63-.9Z"/>
  <path class="sock" d="M57.34,200.13c-2.22,1.6-4.41,3.23-6.64,4.81-1,.71-2,1.5-3.07,2.11-1.92,1.07-3.64,2.43-5.45,3.65-1.6,1.08-3.14,2.27-4.74,3.35-1.38.93-2.67,2-4.06,2.89a34,34,0,0,0-3.22,2.8c-.83.72-1.65,1.44-2.42,2.23-.2.2-9.13.16-9.22.06,0-1,0-7.63.35-7.83a52.5,52.5,0,0,1,4.85-3.11c.36-.18.56-.51.89-.72a24.76,24.76,0,0,0,3.31-2.5c1-1,1.94-2,2.89-3,1.6-1.7,2.89-3.62,4.4-5.38.92-1.06,1.68-2.25,2.51-3.38,1.29-1.74,2.46-3.57,3.9-5.18a26.85,26.85,0,0,1,2.41-2.1c.27-.24,13.31,11.12,13.38,11.23Z"/>
  <path class="shoe" d="M23.86,210.87a3.35,3.35,0,0,0-1.94-.74,11.11,11.11,0,0,0-5.06,1.16c-.91.45-1.83.88-2.7,1.4a3.19,3.19,0,0,0-1.75,3c0,2.91.19,9.53.7,9.71,1.81.66,1.34.37,1.61,2.07s.41,3.38.66,5.06.71,3.34,1.11,5a2.45,2.45,0,0,0,.17.54c.84,1.19,1.26,2.63,2.21,3.75a21.65,21.65,0,0,0,2,2c1.73,1.54,3.83,1.5,5.86,1.66a61.71,61.71,0,0,0,6.38,0c1.55,0,3.09-.22,4.64-.33a1.09,1.09,0,0,0,1-1.05,10.19,10.19,0,0,0-.05-4.08,5.14,5.14,0,0,0-3.38-3.57,14.34,14.34,0,0,0-3-.69,3.49,3.49,0,0,0-.58-1.63c-.11-.13-.23-.33-.34-.34-1,0-.81-.83-.87-1.33a24.7,24.7,0,0,1-.27-2.56,4.14,4.14,0,0,1,.08-1.88c.12-.3,0-.68,0-1a18.05,18.05,0,0,0-.05-4.22,2.84,2.84,0,0,0-1.08-1.9,10.51,10.51,0,0,0-4-1.63c-.39-.1-.79-.15-1.18-.22a2.34,2.34,0,0,0-2.31.8c-.56-.41-.51-1.06-.68-1.63a11.23,11.23,0,0,1-.4-3.46,3.87,3.87,0,0,1,1.66-2.91Z"/>
  <g class="coatInner">
    <path d="M42.71,23.65c-.94,1.29-10.52,11.79-10.88,11.79-1.22,0-2.45,0-3.67,0-.28,0-.6.36-.82,0a2,2,0,0,1-.23-1,7.36,7.36,0,0,1,1.14-3.73,15.22,15.22,0,0,1,2.55-3.61C31.93,26,33.14,25,34.33,23.94c.36-.31,8.13-.38,8.38-.36Z"/>
    <path d="M39.46,147a3.53,3.53,0,0,0-2,.52,40.35,40.35,0,0,0-4.93,2.33c-1.33.78-2.66,1.54-4,2.33-2,1.17-3.77,2.57-5.67,3.83-.57.38-2.13,1.82-2.42,2.09a29.91,29.91,0,0,0-3.56,3.38c-.27.34-.77.5-1.1,1a32.89,32.89,0,0,1-5.39-6.77,1.72,1.72,0,0,1-.28-1.23c1-.3,3.56-1.14,3.68-1.53.24-.81.55-1.59.83-2.41a23.13,23.13,0,0,0-2.59-3.33,21.45,21.45,0,0,1-3.3-4.67,17,17,0,0,1-1.22-2.27,15.59,15.59,0,0,1-1-2.3,25.75,25.75,0,0,1-.5-6.44,10.36,10.36,0,0,1,1.6-5.13,1.26,1.26,0,0,1,.69-.58c3.49-1.14,80.6-23.13,80.89-23.13,0,.3,0,41.71,0,62.18a1.78,1.78,0,0,1-.5,1.32A18,18,0,0,0,85,171.93a45.13,45.13,0,0,0-2.13,6c-.51,2.18-6.85,24.64-7.35,24.92l-1-1.55a5.85,5.85,0,0,0-1.74-1.86,26.93,26.93,0,0,0-4-2,10.81,10.81,0,0,1-3.22-1.61c-.39-.34-21.92-13.53-23.4-14.67a36.62,36.62,0,0,1-4.23-3.94c-.55-.59-1.25-1-1.83-1.5a3.38,3.38,0,0,0-1.44-.83c-2.21-.46-4.4-1-6.65-1.29a7.81,7.81,0,0,1-4.51-1.91,1.31,1.31,0,0,1-.19-1.8,50.52,50.52,0,0,0,3-4.45c.82-1.41,1.59-2.86,2.36-4.3.68-1.26,1.29-2.56,2-3.8A29,29,0,0,1,33,153.64a28,28,0,0,1,3.3-3.5C37.54,149.1,39.46,147,39.46,147Z"/>
  </g>
  <path class="pants" d="M84,162.49a14.83,14.83,0,0,0,3,2c1.08.51,2.06,1.22,3.2,1.65.83.32,1.62.73,2.49,1a11,11,0,0,1,2.79,1.28c1.27.8,2.57,1.57,3.88,2.29,2.16,1.2,4.17,2.65,6.31,3.89,2,1.14,4,2.26,6,3.32,1.12.58,2.3,1,3.46,1.53a6.5,6.5,0,0,1,1.67,1,1.44,1.44,0,0,0-.12,1.17c.26.65-.1,1.06-.37,1.54a3.5,3.5,0,0,0,.23,3.59,6.82,6.82,0,0,1,.72,3.55,23,23,0,0,1-.88,4.92,2.25,2.25,0,0,0,1.1,2.51c1.88,1.26,3.77.83,5.53-.05,1.91-.95,3.9-1.68,5.85-2.51,2.31-1,4.68-1.82,7-2.82a24.38,24.38,0,0,0,3.06-1.22,8.62,8.62,0,0,0,4.21-4.51c.54-1.6,1-3.27.14-4.91a31.24,31.24,0,0,0-1.94-3.12,6.61,6.61,0,0,1-1.18-3.82,7.11,7.11,0,0,0-.25-2.15c-.12-.35,0-.71-.05-1.12a14.18,14.18,0,0,0-3.78-6.64,58.74,58.74,0,0,0-6.31-5.6c-1.75-1.36-3.58-2.6-5.26-4a69.89,69.89,0,0,0-6.44-4.93,22.7,22.7,0,0,1-1.88-1.52,1.06,1.06,0,0,1-.4-1.3,6,6,0,0,0,.25-3.68,4.83,4.83,0,0,0-1.27-2.4,1.36,1.36,0,0,1-.36-1.55,24.41,24.41,0,0,0,1.08-5.2c0-.25-42.29-7.89-42.74-7.6a22.46,22.46,0,0,0-4.58,3.66,7.42,7.42,0,0,0-1.2,2.06,49,49,0,0,1-2.85,4.78,51.42,51.42,0,0,0-3,5.76c-1.09,2.65-2.28,5.26-3.29,8-.7,1.86-1.39,3.72-2,5.63-.46,1.52-1,3-1.37,4.58-.47,1.76-.84,3.55-1.26,5.33a14.34,14.34,0,0,0-.5,3.33c0,.43-.45.68-.74,1a5.68,5.68,0,0,1-1.26.82,3.12,3.12,0,0,0-1.47,2.71,6.09,6.09,0,0,0,.28,2.16,1.78,1.78,0,0,1-.68,1.72c-1.53,1.61-3.14,3.15-4.63,4.8-1,1.17-2,2.46-1.55,4.22a2,2,0,0,0,.37.89c1.58,1.8,2.8,3.87,4.34,5.71a15.41,15.41,0,0,0,2.32,2.18c1.14.91,2.39,1.68,3.59,2.51a23.88,23.88,0,0,0,4.65,2.48,4.8,4.8,0,0,0,5.4-1.57,33.16,33.16,0,0,0,2-3.13,26.67,26.67,0,0,1,2.86-3.66c1-1.13,2.13-2.18,3.09-3.35a10.64,10.64,0,0,0,1.6-2.7c.25-.61.6-1.15.9-1.73a34.54,34.54,0,0,0,2.42-5.32c.34-1.05.9-2.06,1.29-3.12s.75-1.94,1.13-2.9L80.15,170A39.08,39.08,0,0,1,82,166c.65-1.15.89-2.49,1.71-3.55C83.68,162.42,83.79,162.31,84,162.49Z"/>
  <path class="pantsDisplayLine" d="M98.24,136.57c-.53,1.34-.88,2.75-1.4,4.11-1,2.57-3.18,7.74-3.94,8.43"/>
  <g class="pantsFoldLine">
    <path d="M125.13,180a10.83,10.83,0,0,0-2.21.11,28.71,28.71,0,0,0-6.18,2"/>
    <path d="M52.63,170.39a9.38,9.38,0,0,0,1.71,4.73c.32.54.64,1.17.92,1.65"/>
    <path d="M121.46,174.21a13.18,13.18,0,0,0-4.65,6.17"/>
    <path d="M49.58,177.05a3.72,3.72,0,0,0,1.17,1.8c.28.31.35.62.91,1"/>
    <path d="M122.15,193.75c-1,.56-1.25.87-2.08,1.25"/>
    <path d="M139.48,186.54a8.56,8.56,0,0,0-2,.7"/>
  </g>
  <g class="pantsCreaseLine">
    <path d="M82.71,145c.39.91.84,1.79,1.16,2.71a16.26,16.26,0,0,1,.73,3.39,20.2,20.2,0,0,1,.1,4.85c-.24,1.95-.57,4.53-1,6.45"/>
    <path d="M111.34,148.14a15.53,15.53,0,0,0-7.2,1.55,16.36,16.36,0,0,0-2.36,1.44,2.39,2.39,0,0,1-.43.2"/>
    <path d="M96.85,156.11A14.15,14.15,0,0,1,94,158.37c-.79.39-1.58.77-2.37,1.17a14.58,14.58,0,0,1-4.24,1.15"/>
  </g>
  <path class="sock" d="M142.39,225.92a10.87,10.87,0,0,1-2.15-4.44,22.31,22.31,0,0,1-.67-4.58q-.07-3.61-.43-7.21c-.1-1.1,0-2.21-.12-3.32-.18-2.14-.28-4.3-.28-6.45a53.53,53.53,0,0,0-.2-5.95c-.21-1.78-.19-3.58-.53-5.34-.07-.35.05-.72-.18-1s-.32-.35-.57-.27c-2.78.9-5.57,1.75-8.32,2.75a28.88,28.88,0,0,0-6.31,3.34.91.91,0,0,0-.4,1,55.41,55.41,0,0,0,1.06,5.46c.6,2.07,1.18,4.13,1.84,6.18.52,1.66.9,3.38,1.56,5a34.56,34.56,0,0,1,1.41,5.35c.3,1.29.57,2.58.76,3.88.32,2.12.58,4.25.84,6.38.07.59,0,1.2.06,1.8a61.8,61.8,0,0,0,5.36,3.93l7.27-6.42Z"/>
  <path class="shoe" d="M129.71,227.65c.2.66.83.87,1.32,1.16a6.19,6.19,0,0,0,4.15.49,12.13,12.13,0,0,0,2.72-.71,8.91,8.91,0,0,0,3.79-3.37.82.82,0,0,1,.7-.41,8.67,8.67,0,0,1,4,.57,3.64,3.64,0,0,1,1.68,1.43c.47.73.57.74,1.38.49l.9-.27a3,3,0,0,1,2.63.1c.35-.24.5-.63.83-.88a1.94,1.94,0,0,1,2.07,0,1,1,0,0,0,1.34-.31,6.67,6.67,0,0,1,3.88-2.15,7.36,7.36,0,0,1,5.81,1.39c.28.22.26.67.6.92L162,233c-.26.34-7.8,3.44-11.26,4.83-1.51.61-3,1.26-4.51,1.86-.53.22-15.93.76-17.12,1.05-.36.08-.54,0-.79-.4a7.52,7.52,0,0,1-.92-4.94,15.66,15.66,0,0,1,1.51-5.68c.25-.54.55-1.06.82-1.6Z"/>
  <g class="shoeFoldLine">
    <path d="M32.18,235.76A19,19,0,0,0,26.85,237a1.57,1.57,0,0,0-1,.74"/>
    <path d="M30.72,233.61a7,7,0,0,0-1.59-.24c-1.52-.1-3,0-4.09,1.35"/>
    <path d="M148.49,227.44a2.62,2.62,0,0,0-1.59.76"/>
    <path d="M156.53,226.47a1.72,1.72,0,0,0-.42,1.32"/>
    <path d="M153,227.09c-.42.63-.24.84-.35,1.25"/>
    <path d="M21.64,219.82a1.38,1.38,0,0,0-.76,1.17"/>
  </g>
  <g class="soleFront">
    <path d="M139.89,237.28a22.43,22.43,0,0,1,.41,2.71c.07.36-.27.63-.48.89-.52.65-1.87,2.24-2.14,2.23-2.41-.05-4.81.07-7.21-.05-.21,0-.38,0-.48-.16a9.94,9.94,0,0,1-1.29-2.1A7.79,7.79,0,0,1,132,239a32.81,32.81,0,0,1,6.65-1.56,6.41,6.41,0,0,0,1.11-.27Z"/>
    <path d="M13.18,213.51a4.77,4.77,0,0,0-2.29,1.31,1.77,1.77,0,0,0-.54.84,13.1,13.1,0,0,0-.42,3.74,18.94,18.94,0,0,0,1,5.27c.21.61.47,1.2.69,1.8s.58.57,1,.35l1.89-.91a13,13,0,0,0-.41-1.72c-.21-1-.31-1.95-.52-2.91-.39-1.75-.34-3.53-.6-5.28a4.28,4.28,0,0,1,.07-1.38,1.93,1.93,0,0,0,0-.83Z"/>
  </g>
  <path class="soleSide" d="M139.83,237.42l-1.38,4.49c.63.16,4.61.08,6,.09.37,0,.58-.06.72-.48a17.16,17.16,0,0,0,.56-1.67,20.93,20.93,0,0,1-5.79-2.43Z"/>
  <g class="soleBottom">
    <path d="M139.07,240.46a31.21,31.21,0,0,0-3.74,1.17c-1.15.35-2.45.64-3.61.92a5,5,0,0,0-1.47.58c0,.69.57,1,1.06,1.21a7.16,7.16,0,0,0,4.43.51,22.11,22.11,0,0,0,3.25-.58c1.15-.36,2.08-.61,3.4-1a6.06,6.06,0,0,0,2.43-1.3S140.66,241.38,139.07,240.46Z"/>
    <path d="M167.27,225.85c1.47.69,1.45,2.84.77,4a10.38,10.38,0,0,1-2.44,2.75c-1.48,1.22-3,2.39-4.57,3.47a32.87,32.87,0,0,1-6,3.06c-.89.38-1.8.75-2.7,1.11a6.38,6.38,0,0,1-3.81.44c-.67-.14-1.35-.27-2-.43a1.18,1.18,0,0,1-.63-.36c.71-.33,1.39-.66,2.09-1a38.42,38.42,0,0,0,6-2.92c2.26-1.47,4.52-2.95,6.72-4.51a20.19,20.19,0,0,0,4.59-4.21,3,3,0,0,1,1.87-1.46Z"/>
  </g>
  <g class="skinGallic">
    <path d="M32.18,15.2a5.31,5.31,0,0,0-.9-.36,4,4,0,0,0-1.81-.1c-.53,0-1.08.78-1.1,1.29a1.82,1.82,0,0,0,.74,1.9c1,.66,2.23.92,3.15,1.76.35.32.8.39,1.1.9-.65.08-1.22-.12-1.81,0a5.69,5.69,0,0,0-2.69.92A1.34,1.34,0,0,0,28.3,23a1.68,1.68,0,0,0,1.31,1.12A4.16,4.16,0,0,0,31.34,24,2.12,2.12,0,0,1,33,24.4a4.92,4.92,0,0,1,1.26,1,1.93,1.93,0,0,0-1.08,2,1.24,1.24,0,0,0,.58,1c1.11.79,2,1.85,3.44,2.29l8.06-11a23.93,23.93,0,0,0-2.37-1.68,21.87,21.87,0,0,1-3.17-2.38,18.84,18.84,0,0,0-5-2.79,1.8,1.8,0,0,0-2,.25,1.58,1.58,0,0,0-.24,2,5.23,5.23,0,0,1,.35.76Z"/>
    <path d="M153.83,52.21c.18-1.39.41-2.77.54-4.16a9.53,9.53,0,0,0-.4-3.47,22.15,22.15,0,0,0-.79-2.55,7.82,7.82,0,0,0-2.89-3.47c-.23-.15-27.49-1-27.66-.42-1,3.35-5.83,18.42-6.07,19.07a2.9,2.9,0,0,0,.21,1.85,11.14,11.14,0,0,0,.86,2.17,2.26,2.26,0,0,1-.39,2.29c-1.2,1.46-2.57,2.74-3.9,4.07-.13.14-.13,10-.13,14.84,0,0,0,0,.1.11h18.06V74a22.11,22.11,0,0,0,5.41,1.82c.31.06,3.1.62,4.15.2a13.26,13.26,0,0,0,5.38-3.83,17,17,0,0,0,3.45-6.62,3.26,3.26,0,0,0,3.37-2.22,2.77,2.77,0,0,0,.07-1.66c-.2-.91-.47-1.81-.66-2.71a6.65,6.65,0,0,1,0-2.63c.24-1.18.81-2.24,1.13-3.39a3.42,3.42,0,0,0,.12-.7Z"/>
  </g>
  <path class="hairSandy" d="M152.89,27.15a1.85,1.85,0,0,1-.71-1.14,4.33,4.33,0,0,0-1.57-2.75c-.33.18-1.14,3.9-2.8,4.77a1.92,1.92,0,0,1-.64.13s0,0,0-.08a12.34,12.34,0,0,0,.83-2.49,4.35,4.35,0,0,0-1.43-3.88,6.62,6.62,0,0,1-.91,2.29,12,12,0,0,1-4.5,3.9,14.74,14.74,0,0,1-4.86,1.49c-1.19.17-2.41.08-3.6.19a19.4,19.4,0,0,0-4.44.93,17.26,17.26,0,0,0-3.41,1.64,23.65,23.65,0,0,0-4.9,4.05,10,10,0,0,0-1.31,1.6c-.48.77-1,1.52-1.46,2.29A11.78,11.78,0,0,0,116,42.24c-.42,1.12-.71,2.3-1.06,3.45a16.45,16.45,0,0,0-.75,5.83,15,15,0,0,0,.31,2.29,24.08,24.08,0,0,0,1.39,3.81,2.33,2.33,0,0,0,.8,1.15,2.48,2.48,0,0,0,2.06.64,5.5,5.5,0,0,0,2.57-1.52c.68-.72.7-1,.14-1.87-.19-.28-.32-.6-.49-.9a5.09,5.09,0,0,1-.49-3.67,7.85,7.85,0,0,1,1.25-2.78A4.26,4.26,0,0,1,124,46.74a2.71,2.71,0,0,1,3.26,2.14,6.94,6.94,0,0,0,.47,1.53A5.89,5.89,0,0,0,130.64,53c-.11-.21.07-.27.11-.39a7.13,7.13,0,0,1,3.75-4.21,10.21,10.21,0,0,0,3.73-2.66,7.27,7.27,0,0,0,1.22-2.9,6.27,6.27,0,0,0-.32-3.54c-.09-.25-.15-.49.08-.71A13.18,13.18,0,0,0,145.85,40a11.1,11.1,0,0,0,2.64-.32c1-.65,2.2-.82,3.22-1.55a9.64,9.64,0,0,0,3.65-4.27,9.4,9.4,0,0,0,.14-7.7,8.31,8.31,0,0,0-1.4-2.2c-.09.08-.13.1-.13.13A9.42,9.42,0,0,1,152.89,27.15Z"/>
  <path class="shirt" d="M141.42,95c-.5,1.39-1,2.79-1.54,4.15a46.17,46.17,0,0,1-2.83,5.62,52.68,52.68,0,0,1-3.75,5.61c-.66.85-1.42,1.63-2.14,2.43-.19.21-12.54,5.59-12.55,7.7,0,1.29-.38,2.57-.27,3.88a8.49,8.49,0,0,1,.12,1.73c-.26,1.65-.45,2.29-2.43,3.69a11.24,11.24,0,0,1,.67,2.27,3.18,3.18,0,0,1-1.83,3.26,16.68,16.68,0,0,1-5.82,1.29c-.56,0-1.11.13-1.66.18a27.11,27.11,0,0,1-3.12.05,43.74,43.74,0,0,1-6.58-.44c-2.08-.32-4.13-.78-6.18-1.19a67.48,67.48,0,0,1-6.59-1.8c-1.25-.38-2.52-.67-3.73-1.14a22.55,22.55,0,0,1-4-2.07c-1.08-.69-2.2-1.34-3.33-1.94a8.4,8.4,0,0,1-2.94-2.53,3.57,3.57,0,0,1,.4-4.74,1.18,1.18,0,0,0,.28-1.48,5.8,5.8,0,0,1,1-5.82A5,5,0,0,1,74,112.57a12,12,0,0,0,2.26-1.47,9.66,9.66,0,0,0,1.54-2,26.49,26.49,0,0,0,1.53-2.63,9.37,9.37,0,0,0,.69-2.91,2.8,2.8,0,0,1,.43-1.17C83.59,98,107.57,64.22,107.8,64c.62.53,7.79,11.77,8.76,13.67a6,6,0,0,0,3.51,2.76,12.18,12.18,0,0,0,2.15.76,4,4,0,0,0,3.25-.5c1.92-1.27,3.82-2.56,5.77-3.87,1.54,1.24,3,2.48,4.57,3.66a21.26,21.26,0,0,1,3.05,2.71,12.78,12.78,0,0,1,2.69,5.41A8.27,8.27,0,0,1,142,91,21.74,21.74,0,0,1,141.42,95Z"/>
  <path class="shirtOverlapLine" d="M127.14,96c-.66.08-1,.76-1.51,1.13a31.93,31.93,0,0,0-3.83,3.3c-.69.7-1.36,1.76-1.45,1.81"/>
  <g class="shirtFoldLine">
    <path d="M116.19,129.71a13,13,0,0,1-5.41,1.62,20,20,0,0,1-4.16.32"/>
    <path d="M71.83,120.28a5.5,5.5,0,0,0,.82,1.6,12.38,12.38,0,0,0,2.51,2.55c.22.2.2.15.76.63"/>
    <path d="M126.79,91.86a13.6,13.6,0,0,0-1.38,3.26"/>
    <path d="M135.74,92.41a12.53,12.53,0,0,0-4.44.91,3.18,3.18,0,0,0-1,.62"/>
  </g>
  <g class="collar">
    <path d="M121.87,87.21c.64.38,1.26,0,1.79-.16a14.91,14.91,0,0,0,6.46-4.76,12,12,0,0,0,1.6-2.7,4.67,4.67,0,0,0,.35-2.63c-.14-.79-.22-1.58-.37-2.36,0-.14,0-.43-.33-.42s-.27.21-.34.35a12.66,12.66,0,0,1-1.7,2.54,21.53,21.53,0,0,1-2.18,1.83,9.1,9.1,0,0,1-5,2.08,14.71,14.71,0,0,1,.14,3.18c-.06,1-.26,2-.4,3Z"/>
    <path d="M117.57,78.76c-.56-1.54-1.45-2.93-2.07-4.44A21.12,21.12,0,0,1,114,69.89a8,8,0,0,1,.28-3.19c.06-.25.15-.48.24-.77a18,18,0,0,0-3.15.49c-.88.16-1.75.36-2.64.47s-1,.13-1,1a25.13,25.13,0,0,0-.35,4.5c.11,1.16.14,2.33.36,3.46.31,1.57.83,3.09,1.14,4.66A22.24,22.24,0,0,0,110,83.26c.21.6,1,.66,1.51.14,1.16-1.09,2.38-2.11,3.6-3.13a14,14,0,0,1,2.44-1.44Z"/>
  </g>
  <g class="coat">
    <path d="M83.26,176.22c-.67.44-.75,1.24-1.1,1.87a34,34,0,0,0-2.59,7.08c-.49,1.67-.77,3.41-1.17,5.12-.23,1-.56,2-.82,3a29.86,29.86,0,0,1-.82,3.19q-.7,1.88-1.44,3.75a27.68,27.68,0,0,1-2.65,5.2,45.25,45.25,0,0,1-3.08,4.2,1.25,1.25,0,0,0-.26.64.32.32,0,0,0,.35.14,6.09,6.09,0,0,0,2.35-1,14.34,14.34,0,0,0,3.33-3.94,32,32,0,0,0,2-3.68A26.29,26.29,0,0,0,79,197.91a53.75,53.75,0,0,0,1.43-6c.32-1.64.42-3.3.74-4.94.21-1,.36-2.13.57-3.17.39-1.93.94-3.83,1.38-5.76A5.67,5.67,0,0,0,83.26,176.22Z"/>
    <path d="M7.71,126.31c.16-.43.67-.5.89-.84a22.6,22.6,0,0,1,2.81-2.81,26.71,26.71,0,0,1,3.92-3.5c.93-.65,1.8-1.39,2.71-2.07s1.74-1.16,2.56-1.81c1.55-1.22,3.29-2.16,4.92-3.25,1.07-.72,2.26-1.22,3.34-1.93a34.43,34.43,0,0,1,3-1.67c2.28-1.14,4.65-2.08,7-3,2.6-1.06,5.24-2,7.75-3.28a30.52,30.52,0,0,0,2.7-1.46c1.36-.84,2.68-1.73,4-2.65a30.76,30.76,0,0,0,3.34-2.64c1.29-1.22,2.34-2.68,3.55-4,1.52-1.65,2.94-3.39,4.41-5.08a51.36,51.36,0,0,1,4.2-4.4c.93-.83,1.82-1.69,2.82-2.45s1.83-1.35,2.72-2.06a1.19,1.19,0,0,0,.45-1.25,21,21,0,0,0-.65-2.63,35.72,35.72,0,0,0-1.55-4.43c-1-2.31-1.83-4.7-3.58-6.6a13.93,13.93,0,0,0-1.39-1.38c-.86-.69-1.76-1.34-2.56-2.09a33.79,33.79,0,0,1-3.42-3.65,9.35,9.35,0,0,1-2-3.76,16,16,0,0,0-2.58-6.44,4.14,4.14,0,0,0-2.71-1.76,14.31,14.31,0,0,0-3.52,0,18.57,18.57,0,0,1-4-.14c-.76-.07-1.53-.18-2.29-.3A6.47,6.47,0,0,1,41,41.55a12.08,12.08,0,0,0-2.9-2.1,28.28,28.28,0,0,0-4-1.41c-1.12-.38-2.36-.41-3.52-.68a4.75,4.75,0,0,1-2.18-1,3.74,3.74,0,0,0-1.22-.93l.41.13c.46-.22.94-.41,1.38-.64a6.78,6.78,0,0,0,2.86-2.26,6.12,6.12,0,0,1,3-2.59,9.31,9.31,0,0,0,3.88-3,28.08,28.08,0,0,0,2.1-3.45A12.45,12.45,0,0,0,42.34,20c.24-1.05.46-2.19-.48-3.06a1.56,1.56,0,0,1,1.76-.33,22.57,22.57,0,0,0,2.35.82c1.38.33,2.77.58,4.16.84A13.09,13.09,0,0,1,54,19.42a16,16,0,0,1,4.78,4,20.58,20.58,0,0,1,1.5,1.61,9.54,9.54,0,0,0,2.25,2.19,6.33,6.33,0,0,0,3.8,1,12,12,0,0,1,6,1.75,40.16,40.16,0,0,1,6.67,5.46c1.36,1.35,2.37,3,3.61,4.44a24.51,24.51,0,0,1,3,4.38,17.75,17.75,0,0,0,3.22,4.22c.46.46,1,.9,1.38,1.39.69.79,1.33,1.62,2,2.4a14.67,14.67,0,0,1,6.69.8,12.75,12.75,0,0,1,5.14,4,9.73,9.73,0,0,0,2.92,2.69,5,5,0,0,1,1.32.78c-.22.6-36.4,48.7-45.9,58.15-.56.56-2.31,2.22-2.56,2.57a12.76,12.76,0,0,1-2.91,2.91,20.31,20.31,0,0,1-4.09,2.71c-1.17.47-2.27,1.07-3.47,1.45-1,.32-2,.59-3,1-1.17.43-2.34.92-3.5,1.37a21.75,21.75,0,0,0-3.94,1.84c-1,.66-2,1.38-3,2.12-1.35,1-2.54,2.2-3.91,3.17a14.53,14.53,0,0,0-2.32,1.77c-1.37,1.48-2.5,3.14-3.72,4.73-1.07,1.41-2.3,2.69-3.48,4-.48.52-.59.46-1.11-.06s-.65-1.05-1.11-1.46a12.31,12.31,0,0,1-2.52-3.83A35.33,35.33,0,0,1,15.07,137c-.55-1.78-1.2-3.54-1.67-5.36A29.31,29.31,0,0,0,12.28,128a3.75,3.75,0,0,0-2.49-2.41c-.35-.1-.75,0-1.11-.08Z"/>
    <path d="M10.2,154.45l.19-.37a14,14,0,0,1,2.24,1.63,4,4,0,0,0,2.08.59c.87,0,1.47-1.1,1.42-2A7.45,7.45,0,0,0,15,151.12a2.06,2.06,0,0,0-.56-.59,19,19,0,0,1-4,3.51Z"/>
  </g>
  <g class="coatFoldLine">
    <path d="M68.15,39.39c0,1.5,0,3,0,4.5,0,.39.46,4.22.75,5.76s.66,2.94.88,4.43a30.26,30.26,0,0,0,.88,3.33"/>
    <path d="M61.36,44.24a3.13,3.13,0,0,0-2.63-1.18,22.82,22.82,0,0,0-4.37.28"/>
    <path d="M92.21,52.21a21.37,21.37,0,0,0-5,1"/>
  </g>
  <g class="lapel">
    <path d="M59.57,121.55a29.25,29.25,0,0,0,2.31-2.28c.88-.88,1.8-1.75,2.73-2.61a47.05,47.05,0,0,1,5.56-4.49c1.46-1,2.9-2,4.44-2.89a30.89,30.89,0,0,0,5.16-3,13.73,13.73,0,0,0,2.62-2.38,4.91,4.91,0,0,1,1-.85c1.29-1.11,2.37-2.43,3.54-3.66.43-.45-3.67-5.6-5.53-7.88A9.54,9.54,0,0,0,80,93.73a39.75,39.75,0,0,1-2.41,3.61c-1.3,1.81-2.46,3.72-3.85,5.45-1,1.22-2.11,2.36-3.2,3.52-1.89,2-4,3.84-5.76,6a36.64,36.64,0,0,0-4.51,7.26,3.4,3.4,0,0,0-.64,1.79S59.38,121.7,59.57,121.55Z"/>
    <path d="M100.8,65.17a13.58,13.58,0,0,0-1.67-.82,13.79,13.79,0,0,1-2.69-1.61c-.18-.1-.35-.62-.35-.62a9.7,9.7,0,0,0,4.42-.38c1.3-.42,2.62-.71,3.9-1.19a10,10,0,0,1,3.67-.69,7.66,7.66,0,0,1,4.58,1.91c1.54,1.17,1.39,2.1,2.43,3.67.61.22-.68.85-.77,1.12a6,6,0,0,0-1.46-.19A6.85,6.85,0,0,0,108.3,68a9.41,9.41,0,0,0-2.83,3.25,47.2,47.2,0,0,0-2.6,5.53c-.26.7-.64,1.34-1,2-1,2.11-1.9,4.27-3,6.3a17.81,17.81,0,0,1-2.77,4.1L96,89l-5.15-6.13a19.86,19.86,0,0,0,3.81-6,29.57,29.57,0,0,0,1.55-4.22c.13-.43.38-.83.55-1.25a13,13,0,0,1,1.32-2.63c.85-1.2,1.93-2.21,2.71-3.47C100.89,65.12,100.8,65.17,100.8,65.17Z"/>
  </g>
  <path class="skinGallic" d="M81.32,86.45c-1,.83-.36,2-.25,2.7a2.41,2.41,0,0,0-2,1.87c-.12.65-.18,1.28.5,1.74a2.19,2.19,0,0,0,.9.42c.75.07.9.45,1.06,1.17a8.19,8.19,0,0,0,1.23,2.43,9.44,9.44,0,0,0,4.1,3.24,9.6,9.6,0,0,1,3.17,3.07c.25.31.45.66.7,1a27.68,27.68,0,0,1,3.91,6.64,29.47,29.47,0,0,0,2.79,5c.87,1.28,1.72,2.58,2.69,3.77s1.78,2.26,2.79,3.3c.83.86,1.63,1.75,2.52,2.54a8.91,8.91,0,0,0,2.84,1.88c1.22.45,2.3-.13,3.39-.49a17.74,17.74,0,0,0,4-2,12.22,12.22,0,0,0,2.88-2.1,9.63,9.63,0,0,1,1.37-.92,34,34,0,0,0,4-4c.27-.3-7-7-8.72-8.25-.63-.48-3,1.71-4.13,2.24-1.8-1.39-3.86-2.45-5.64-3.9-.77-.63-1.46-1.37-2.23-2a28.38,28.38,0,0,1-3.47-3.88c-.49-.57-1-1.09-1.54-1.66A36.74,36.74,0,0,1,96,97a3.36,3.36,0,0,1-.06-2.88,18.08,18.08,0,0,0,.93-4.78,3.85,3.85,0,0,0-.3-1.52A10.54,10.54,0,0,0,91,82.08a2.85,2.85,0,0,0-3.54,1.32c-2.08-.78-3.15.46-3.39,2.29C84,85.69,82.15,85.48,81.32,86.45Z"/>
  <g class="skinOverlapLine">
    <path d="M32.52,15.13a2.82,2.82,0,0,0,1.26,1.51c.71.46,1.53.77,2.19,1.28a25.42,25.42,0,0,1,2.39,1.77c.93.91,1.71,1.94,2.55,2.92a1.86,1.86,0,0,0,.28.21"/>
    <path d="M33.36,20.6a31.15,31.15,0,0,1,4.44,4.23A8.34,8.34,0,0,1,39,26.35"/>
    <path d="M38.9,26.22c-.83-.19-2.22-.64-3-.84a3.76,3.76,0,0,0-1.73.07"/>
    <path d="M85.69,87.21c-.53-.51-.87-1.24-1.66-1.45"/>
    <path d="M87.35,83.4a2.12,2.12,0,0,1,1.32,1.18"/>
    <path d="M81.11,89.09a1.74,1.74,0,0,1,1.6.76"/>
  </g>
  <path class="sleeve" d="M118,101.56a3.23,3.23,0,0,0-2.29,2.77c-.15,1-1,1.43-1.66,2a5,5,0,0,0-1.74,1.93c-.33.73.36,1.3.54,2.07,1.34-.61,1.86.08,3,.68a25.39,25.39,0,0,1,4.36,3.28,31.5,31.5,0,0,1,3.32,3.61,4.13,4.13,0,0,1,.69,1.11,2.15,2.15,0,0,0,2.22,1.45,2.49,2.49,0,0,0,2.34-1.87,3.4,3.4,0,0,1,.91-1.67,3.2,3.2,0,0,1,.63-.4,3.22,3.22,0,0,0,1.4-1.38,2.43,2.43,0,0,0-.18-2.49,19,19,0,0,0-3.64-4.59,38,38,0,0,0-4.92-3.83c-.57-.38-1.11-.85-1.69-1.2a7.23,7.23,0,0,0-3.24-1.42Z"/>
</svg>
