<svg viewBox="0 0 218.19 290.59">
  <rect class="frame" x="0.5" y="0.5" width="217.19" height="289.59"/>
  <path class="pants" d="M92.15,241.49c0,2.67,0,5.34,0,8,0,1.62-.06,3.24.11,4.85s0,3.09.14,4.62c.28,3,.36,6,.89,8.94.43,2.37.68,4.78,1.11,7.16.32,1.75.66,3.51,1.12,5.24.25.95.33,1.95.54,2.93.24,1.17.68,2.3.93,3.46s.61,2.27,1,3.39h80a76.06,76.06,0,0,0,1.89-9.55c.25-1.67.48-3.34.7-5,.26-2,.49-4,.78-5.93.12-.84.18-1.7.33-2.54.3-1.76.45-3.54.66-5.32.11-.94.13-1.9.24-2.84.16-1.39.22-2.79.25-4.17,0-1.21.25-2.4.25-3.61,0-1,.27-2.1.27-3.16s0-2.16.12-3.24a17.47,17.47,0,0,0,0-3.54Z"/>
  <path class="pantsOverlapLine" d="M132.05,282c.22,2.23.42,4.46.46,6.7a7.34,7.34,0,0,1,.15,1.39"/>
  <path class="skinNordic" d="M139.29,51.25c0-.07-58.39-5-58.38-5,0,7.21,4,51.14,3,50.85-2.85-.83,20.26,4.34,20.32,4.39a11.93,11.93,0,0,0,3,1.37,1.78,1.78,0,0,1,1.2,1.47,10.42,10.42,0,0,1,.2,1.61c0,3.13,0,9.91,0,10.24h30.43Z"/>
  <path class="shirt" d="M134.05,191.89c0-29.63.41-89.68.15-90a16.57,16.57,0,0,0-1.31,1.07,54.86,54.86,0,0,1-7.4,6.23,32.89,32.89,0,0,1-6.07,3.35,11.25,11.25,0,0,1-3,.93,7.81,7.81,0,0,1-4.61-.66,6.13,6.13,0,0,1-2.57-3.29,16.49,16.49,0,0,1-.6-3.47c0-.23-.08-.46-.14-.76-1,.69-1.54,1.74-2.42,2.43s-1,40.69-1,59.79Z"/>
  <g class="suitInner">
    <path d="M59.5,170.63V199c-.21,0-8.77.17-9.4.33a2.55,2.55,0,0,1-2.4-.52c-1.8-1.49-2.28-3.53-2.45-5.71A17,17,0,0,1,45.4,189Z"/>
    <rect x="143.6" y="208.91" width="25.11" height="30.5"/>
  </g>
  <path class="strap" d="M173.64,215.07c2.72-2.92,10.26-10.84,11.14-12.21a39.19,39.19,0,0,1,2.06,6.58c.4,1.93,1,3.84,1.24,5.79s.69,4,.94,6a48.68,48.68,0,0,1,.21,7.63,8.17,8.17,0,0,1-1,4.47Z"/>
  <path class="suit" d="M103,243.8a7,7,0,0,1-.94,2.46,17.05,17.05,0,0,1-4.55,5.6,14.74,14.74,0,0,1-6.75,3.58c-.36.07-.73.1-1.09.2-.59.16-1-.24-1-.9,0-1.29.24-2.56.24-3.85,0-1.49.11-3,.14-4.47.06-3.44.1-6.88.15-10.32l-.3-12.33a13.35,13.35,0,0,1,.21-3.84c.25-2.11.12-4.22.37-6.32s.24-4.22.44-6.31c.08-.83.13-1.93.13-1.93a17.62,17.62,0,0,0-2.16.45,45.91,45.91,0,0,1-7.78.26,12.68,12.68,0,0,0-1.38-.17,23.72,23.72,0,0,1-5.31-.63c-1.79-.38-3.59-.71-5.39-1-.88-.15-1.75-.35-2.62-.52a24.09,24.09,0,0,0-3.32-.59A25.27,25.27,0,0,1,56.5,202c-2.18-.6-4.28-1.44-6.47-2a1.77,1.77,0,0,1-1-.47,14.64,14.64,0,0,0,2.89-4.34,22.62,22.62,0,0,0,2.18-5.57,94.94,94.94,0,0,1-2.31-16.72l24.65,3.24c.57-1.55,1.24-3.06,1.79-4.62a34.51,34.51,0,0,0,1.84-6.78c.17-1.29.44-2.57.69-3.85.19-1,.47-2.05.59-3.08.17-1.47.45-2.91.52-4.39.09-1.75.48-3.49.73-5.24a19.39,19.39,0,0,1,.42-3.07,35.86,35.86,0,0,0,.78-5,49.91,49.91,0,0,1,1-5.46c.63-2.33,1.17-4.68,2-6.95.72-1.91,1.13-3.93,1.85-5.85a9.37,9.37,0,0,1,3.19-4.38c1.22-.91,2.44-1.82,3.62-2.78,2.21-1.81,6.63-4.69,6.63-4.69.25.85,4.7,39.57,5,40.9.33,1.5.56,3,.86,4.54.34,1.67.64,3.36,1.1,5s.51,3.15,1.35,4.56c.09.16,17.13,15.46,18,15.78,0,0,0-3.63-.16-4.62-.39-2.58-.43-5.19-.66-7.78-.19-2.05-.07-4.11-.2-6.16-.19-2.88,0-5.76.07-8.63a22.34,22.34,0,0,1,.64-3.46c.34-1.75,9.52-50.95,10.24-50.94,3.49.06,12.2.79,12.32.88a23.36,23.36,0,0,0,6.63,3.06c1.7.58,3.45,1,5.16,1.56,1.32.43,2.62.91,3.93,1.38a20.62,20.62,0,0,1,3.07,1.16,13.53,13.53,0,0,1,3.36,2.34,24.87,24.87,0,0,0,2.66,2.2,6.34,6.34,0,0,1,1.79,2.3,20.46,20.46,0,0,0,1.62,3q1.74,2.46,3.27,5.06a45.15,45.15,0,0,1,2.18,4.61,14.46,14.46,0,0,1,.75,1.39,17.33,17.33,0,0,0,2.11,4.45,43.55,43.55,0,0,1,5,9.26c.44,1.23,1.08,2.4,1.51,3.63,1,2.95,2.23,5.84,3.35,8.76,1,2.6,2.06,5.18,3.22,7.71.76,1.69,1.5,3.38,2.39,5a15,15,0,0,1,1.7,7.08,23.93,23.93,0,0,1-.41,4.31,20,20,0,0,1-1.06,4.24,27.15,27.15,0,0,1-2.85,5.24c-1.48,2.1-3,4.16-4.6,6.17-1.95,2.46-4,4.81-6,7.23-1.23,1.5-2.41,3-3.63,4.54a59.54,59.54,0,0,1-4.68,5.72,3.66,3.66,0,0,0-1.05,2.83c.08,5.88-20,17.43-20,16.95a15.12,15.12,0,0,0-2.66-7.37,22.61,22.61,0,0,0-3.12-3.8Z"/>
  <g class="suitOverlapLine">
    <path d="M90.59,204.52a2,2,0,0,1-.59.83"/>
    <path d="M88.84,142.37c.38.22,1.2,2.95,1.51,3.93a11.56,11.56,0,0,1,.47,2.92c.11,2.54.14,5.08.17,7.63a24.32,24.32,0,0,0-.12,2.69c.22,1.93-.11,3.85,0,5.78s.09,3.8.25,5.7c.19,2.2.27,4.42.39,6.62a45.93,45.93,0,0,1,.19,4.7,35.35,35.35,0,0,0,.1,3.85"/>
    <path d="M174.33,176.41c-.9.33-1.18.85-1.7,1.61-1.13,1.67-2.1,3.44-3.37,5a46,46,0,0,1-5.16,5.55c-1,.87-2,1.73-3,2.57-1.7,1.43-3.44,2.82-5.14,4.26-1.48,1.25-3.69,2.53-5.23,3.7"/>
    <path d="M156.54,140c1.49,1.92,3,3.82,4.46,5.78a30.66,30.66,0,0,1,3.93,6.85,46.48,46.48,0,0,0,3,6.09c1,1.7,1.93,3.43,2.9,5.13s1.56,3.4,2.46,5a20.64,20.64,0,0,1,1.35,3.75"/>
  </g>
  <g class="suitFoldLine">
    <path d="M184.5,171.48a16.89,16.89,0,0,0-3.16-.07,29.23,29.23,0,0,0-5.09.76,6.41,6.41,0,0,0-2.68,1.41,1.84,1.84,0,0,0-.08,2.44,1,1,0,0,0,1.15.35,13.63,13.63,0,0,1,4.46-.1c.83.08,1.65.29,2.47.45"/>
    <path d="M150.84,139.59a12,12,0,0,0,1.3,1.94,14.5,14.5,0,0,0,4,3,13.2,13.2,0,0,0,2.62,1.21c.86.25,1.75.41,2.61.65"/>
  </g>
  <g class="button">
    <path d="M131.66,154.61a3,3,0,0,0,.76,2.25,2.79,2.79,0,0,0,4.3-3.54c-1.06-1.44-3.64-1.48-4.51.06-.21.36-.58.67-.47,1.16Z"/>
    <path d="M137.21,175.79c-1.65.33-2.71,1.29-2.63,3a2.63,2.63,0,0,0,3.77,2.29c.71-.39,1.47-.76,1.74-1.75a2.88,2.88,0,0,0-2.58-3.55h-.3Z"/>
  </g>
  <g class="lapel">
    <path d="M127,152.46c-.07-2.62-.16-5.24-.07-7.86a33.74,33.74,0,0,1,.24-4.15c.24-1.54.24-3.09.37-4.63.21-2.41.39-4.83.62-7.24A62.27,62.27,0,0,1,129,122c.31-1.56.53-3.15,1-4.69.51-1.84,1-3.7,1.48-5.54.66-2.37,1.54-4.7,2-7.1.74-3.66,4.64-11,4.91-11.49.79.89,5.35,6.22,5.36,6.42,0,1.43.14,2.87.07,4.31-.09,2.15-.05,4.31-.18,6.47-.09,1.33,0,2.68-.08,4a8.48,8.48,0,0,1-2.34,6.09,5.71,5.71,0,0,1-1.84,1.09,3.33,3.33,0,0,0-1.85,1.3.88.88,0,0,0,0,1.08,3.83,3.83,0,0,1,.92,2.92,7,7,0,0,1-1.23,2.92,35.21,35.21,0,0,0-3.08,5.32c-.82,1.73-1.77,3.4-2.51,5.17a45.7,45.7,0,0,0-2.07,5.85c-.46,1.75-1,3.48-1.41,5.23-.16.64-.44,2.46-.7,3.08C127.29,154.69,127,152.8,127,152.46Z"/>
    <path d="M101.32,132.59a38.47,38.47,0,0,0,1.37,5.24c.71,2.68,1.65,5.3,2.35,8,.58,2.27,2.36,6.63,2.36,6.63-.31-1.47,0-3.5-.16-4.7-.29-2.15-.23-4.32-.42-6.47-.07-.81-.1-1.64-.12-2.47,0-2.61-.16-5.23-.12-7.85a39.71,39.71,0,0,1,.35-4.86c.13-1,.18-2,.24-3,.13-2.31.16-4.63.42-6.93.16-1.43.32-2.87.42-4.31.06-1,.07-1.9.08-2.85a16,16,0,0,1,.23-3,4.9,4.9,0,0,0,0-.94l-.21,0-5,4.37Z"/>
  </g>
  <path class="strap" d="M106,102.47c-.85.89-1.67,1.21-2.38,2.24a14.82,14.82,0,0,0-1.79,3.15c-.46,1.22-1.09,2.39-1.5,3.63a33.25,33.25,0,0,0-1.11,5.15,51.25,51.25,0,0,0-.45,9,50,50,0,0,0,.54,5.86c.27,1.93.71,3.84.89,5.78s.46,3.8.7,5.7.28,4.11.5,6.15.22,3.8.32,5.7a37.46,37.46,0,0,1-.6,7.33,49.34,49.34,0,0,1-2,7.69,3.32,3.32,0,0,0-.11,1.39c.07.69,1,1,1.75.62a3.86,3.86,0,0,0,2-2.63,25.59,25.59,0,0,0,.84-3.61c.09-1.1.29-2.21.33-3.32a103,103,0,0,0-.22-10.39c0-.57-.06-1.13-.07-1.7,0-1.86-.29-3.7-.46-5.54-.16-1.65-.22-3.3-.5-4.93-.17-1-.23-3.74-.25-4.09a112.49,112.49,0,0,1-.33-11.47c0-1.57.11-3.14.26-4.69a39.33,39.33,0,0,1,1.06-6.47c.68-2.45,1.68-5.48,2.73-6.27,1.41-1.21,1.88-1.05,2.19-1.67,0,0,0-1.61-.78-2Z"/>
  <path class="hairBlonde" d="M109.71,58.88c.34-.13.62,0,.93.15,1.07.37,2.15.74,3.23,1.08a10.57,10.57,0,0,1,2.22.65,12.93,12.93,0,0,1,3.8,3.12,15.68,15.68,0,0,1,2.71,4.77,5.77,5.77,0,0,0,.8,1.88A6.74,6.74,0,0,0,126,65.66a14.66,14.66,0,0,1,1-4.57c.7-1.32,2.59-2.47,4-2.05a6.22,6.22,0,0,1,4.45,4.7,9.23,9.23,0,0,1-.42,5.7,10.73,10.73,0,0,0-.8,4.46,3.49,3.49,0,0,1-.55,2.14,2.7,2.7,0,0,1-2,1.3c-.31,0-.54.14-.6.34a36,36,0,0,0-1.4,5,25.74,25.74,0,0,0-.25,2.92,30.23,30.23,0,0,0,.06,5.94,7.2,7.2,0,0,1,.18,1.54,4,4,0,0,0,.47,2.15,17.49,17.49,0,0,0,.57,1.68,8.28,8.28,0,0,0,6.9,5.08,6.1,6.1,0,0,0,4-.71,1.07,1.07,0,0,0-.51-1.06,5.44,5.44,0,0,1-1.48-1.75.55.55,0,0,1,0-.54s.21-.11.54.15a11.91,11.91,0,0,0,4.53,2.36,18.69,18.69,0,0,0,5.56.56,11.54,11.54,0,0,0,4-.75c1.14-.49,1.35-1.22.36-1.91A19,19,0,0,1,153,96.92a5.7,5.7,0,0,1-1.93-4.46,1.31,1.31,0,0,1,.08-.54c.78.14,1.29.78,2,1.09a8.31,8.31,0,0,0,3.32.77,1.58,1.58,0,0,0,1.26-.5,2.07,2.07,0,0,0-.8-.88c-1.4-.87-1.84-2.28-2.22-3.72-.25-1-.34-2-.56-2.92a13.43,13.43,0,0,1-.11-4,25.71,25.71,0,0,0-.48-8,34.36,34.36,0,0,0-1.77-5.24,50.72,50.72,0,0,0-2.88-6c-.83-1.42-1.92-2.66-2.86-4a60.09,60.09,0,0,1-4.66-7.57,68,68,0,0,0-5.52-9.06c-.76-1.08-1.7-2.08-2.58-3.1a41.33,41.33,0,0,0-3.93-4A33.86,33.86,0,0,0,125,31.54c-.47-.3-.9-.67-1.39-.92a23.72,23.72,0,0,0-7.93-2.39,46.77,46.77,0,0,0-9,.14,41.83,41.83,0,0,0-5,.64,24.19,24.19,0,0,0-5.64,1.79c-.83.39-1.67.78-2.51,1.14a17,17,0,0,0-4.79,3.45,13.84,13.84,0,0,0-1.87,2.68,23.76,23.76,0,0,0-1.65,3.4c-2.16-.91-3.48.34-4.72,1.77a12.48,12.48,0,0,0-2,3.17,44.74,44.74,0,0,0-3,8.61,37.41,37.41,0,0,0-.63,5.25,41.51,41.51,0,0,0,.21,4.85c.09,1.31.25,2.62.4,3.92.25,2.25.65,4.47,1,6.71A34.09,34.09,0,0,1,77.13,81c0,.6.15,1.18.17,1.77.12,2.65.35,5.29.43,7.94.06,2.18,0,4.36-.07,6.54a36.79,36.79,0,0,1-.56,6.47c-.4,1.82-.64,3.73-1.79,5.33-.27.37-.88.69-.56,1.34a7.54,7.54,0,0,0,1.51-1.22,12.42,12.42,0,0,0,1.89-2.82,31.61,31.61,0,0,0,2.69-7.55c.2-1.07.71-2.5,1-3.55a6.7,6.7,0,0,1,.31,2.93c-.06,1.69,0,2-.17,3.69a13.4,13.4,0,0,1-3.45,8,.84.84,0,0,0,.77.38c1.44-.12,2.64-1,4-1.32.8-.2,1.33-.89,2-1.28a13.8,13.8,0,0,0,5.61-5.79s.26-.82.28-.62a7.2,7.2,0,0,1-.41,3.55,10,10,0,0,1-2,2.84c-.18.2-.32.48-.21.68a.69.69,0,0,0,.75.25,15,15,0,0,0,2.46-.62,11.88,11.88,0,0,0,3.76-2,6.9,6.9,0,0,0,2.55-3.45.37.37,0,0,1,.32-.3c.27,0,.27.23.3.38a3.91,3.91,0,0,1-.17,2.37c-.15.31-.14.55,0,.69a.88.88,0,0,0,.74.15,15.29,15.29,0,0,0,4.72-4.31c-1.17-.68-2.15-1.57-3.26-2.34A40.94,40.94,0,0,1,94.5,93a20.13,20.13,0,0,1-2.63-3.91,20.75,20.75,0,0,1-1.2-2,54.69,54.69,0,0,1-2.26-7.49,9.51,9.51,0,0,0-1.88-3.69,8.25,8.25,0,0,1-2.19-3.78c-.19-1.07-.51-1.69-.81-3.23-.47-2.77-.3-5.19-.6-7.78-.09-.71.21-1.49,0-2.14a1.94,1.94,0,0,1,.37-1.63,4.33,4.33,0,0,1,.6-.77,17.81,17.81,0,0,0,3.26-5.46c.08-.24.54-.22.67-.09a29.85,29.85,0,0,0,3.78,3.23,8.2,8.2,0,0,0,2.08,1.29,30.53,30.53,0,0,1,3.36,1.75,32.58,32.58,0,0,0,3,1.47,74.32,74.32,0,0,1,10.15,4.74,40.64,40.64,0,0,1,5.26,3.44,13.78,13.78,0,0,0,1.67,1.1,22.36,22.36,0,0,0-2.76-4.47C112.6,61.55,109.71,58.88,109.71,58.88Z"/>
  <g class="hairOverlapLine">
    <path d="M121.26,50A32,32,0,0,0,116.78,46a52.42,52.42,0,0,0-8.15-5.17,37,37,0,0,0-8.24-3c-.46-.12-.92-.21-1.38-.31"/>
    <path d="M146.22,70.2a20.6,20.6,0,0,1,2.67,6.32,30.32,30.32,0,0,1,1,7.08,62.44,62.44,0,0,0,1.23,8.25"/>
    <path d="M137.44,79.6c.29,3-.16,6-.29,9a15,15,0,0,0,.46,4.94,17.23,17.23,0,0,0,1,2.6,15.16,15.16,0,0,0,1,1.62"/>
    <path d="M82.91,58a23.56,23.56,0,0,0-1.39,5,65.38,65.38,0,0,0-.6,6.7c0,1.15,0,1.16,0,2.31a12.05,12.05,0,0,0,.38,3.08"/>
    <path d="M89.92,89.84A9.41,9.41,0,0,1,91,92.92a26.48,26.48,0,0,1,.26,8.24"/>
    <path d="M124.65,61.27a20.66,20.66,0,0,1-4.16,0c-1.31-.05-3.08-.33-4.39-.51"/>
    <path d="M81.21,92.69,82,95.62"/>
    <path d="M98.77,99.78a9.78,9.78,0,0,1-.38,2.46"/>
  </g>
  <path class="endPin" d="M171,262.9a4.36,4.36,0,0,0,.56,2.22,2.37,2.37,0,0,0,3,.62,7.35,7.35,0,0,0,1.2-1.11,2.38,2.38,0,0,0,.4-2.64,2.54,2.54,0,0,0-2.59-1.48Z"/>
  <path class="guitar" d="M96.39,190.43a9.21,9.21,0,0,0,1.46.77,17.55,17.55,0,0,0,3.38.73c2.87.38,5.29-.18,7-2.67a11.37,11.37,0,0,0,1.61-3.82,9,9,0,0,0,0-4.41,21.84,21.84,0,0,0-2.61-5.86c-1.36-2.39-3-4.61-4-7.23a3.49,3.49,0,0,1,1.24-4.48,4.87,4.87,0,0,1,3.7-.71,18.33,18.33,0,0,1,6.46,2,30.23,30.23,0,0,1,7.55,5.91,79.79,79.79,0,0,1,7.1,8.77c1.82,2.61,3.48,5.31,5.16,8a17,17,0,0,0,4.09,4.6,31.31,31.31,0,0,0,4.4,2.91c1.13.61,2.2,1.33,3.35,1.91a43.91,43.91,0,0,1,4.48,2.29s-2.6,2.15-4.08,3.08-2.76,1.7-4.06,2.65c-.39.28-.78.6-1.17.9a3.62,3.62,0,0,0-1.3,3.38c0,.2,0,.41.06.62l14.45,16.13a22.39,22.39,0,0,0,4,3.1,2.68,2.68,0,0,0,2.53.63,17,17,0,0,0,1.84-.84,32.37,32.37,0,0,0,6.55-4.7c1.54-1.41,3.12-2.79,4.53-4.33,2.08-2.26,4-4.65,6-7l.19-.15a9.14,9.14,0,0,1,2.89,2.61,27.15,27.15,0,0,1,4.07,7.33,44,44,0,0,1,1.34,4.22,14,14,0,0,1,.65,3.94,44.81,44.81,0,0,1-.4,5.16,42.79,42.79,0,0,1-1.58,5.93A34,34,0,0,1,185,247a42,42,0,0,1-4,6.52c-1.79,2.4-3.76,4.65-5.76,6.87-1.09,1.2-2.18,2.4-3.23,3.62-.92,1.06-2,2-2.87,3.07q-1.61,1.89-3.39,3.62c-1.44,1.38-3,2.62-4.46,4a49.24,49.24,0,0,1-5.16,4.17,47.48,47.48,0,0,1-4.42,2.78,18.81,18.81,0,0,1-6.43,2.12,27.93,27.93,0,0,1-5,.15,28.59,28.59,0,0,1-4.78-.81,29,29,0,0,1-6-2.21,21.6,21.6,0,0,1-4-3.05,19.26,19.26,0,0,1-3.13-3.32c-1.18-1.69-2.52-3.26-3.67-5-.54-.82-1.11-1.61-1.69-2.39-1.07-1.44-1.87-3.05-2.84-4.55-.55-.85-1-1.74-1.55-2.62-1.11-1.89-1.68-4.05-2.84-5.93-1.31-2.15-2.38-4.41-4.37-6.11a48.83,48.83,0,0,0-8.48-6.16c-2.42-1.3-4.79-2.69-7.26-3.89a47.71,47.71,0,0,1-4.16-2.4A29.1,29.1,0,0,1,83,233.56a25.12,25.12,0,0,1-6.59-7.34,8.38,8.38,0,0,1-1.34-3,4.23,4.23,0,0,1,.08-2.7,4.68,4.68,0,0,1,1.53-1.63,5.51,5.51,0,0,1,6.16,0,18,18,0,0,0,5.09,2.44c1.84.51,3.62.93,5.57.2a8.47,8.47,0,0,0,4.3-3,7.88,7.88,0,0,0,1.06-6.16,17.29,17.29,0,0,0-1.14-3.08Z"/>
  <path class="bridgeBottom" d="M143.45,252.5q-2.94-3.23-5.86-6.47l12.94-14.17,6.62,5.55Z"/>
  <g class="bridgeTop">
    <path d="M154.47,239c-1.11,1.14-2.11,2.4-3.17,3.6-1.86,2.13-3.71,4.26-5.6,6.36q-1.33,1.45-2.64,2.94c-.39.45-.55.71.15,1.49,1.16,1.33,1.38,1.32,2.55,0,1.42-1.61,2.88-3.17,4.31-4.78,2.35-2.66,4.67-5.35,7-8,.63-.7,1.29-1.37,2-2,.49-.49.27-.71-.13-1.12a9.78,9.78,0,0,0-1-1,.59.59,0,0,0-.78,0C156.51,237.06,155.28,238.21,154.47,239Z"/>
    <path d="M151.12,231.72a.53.53,0,0,1,0,.67c-4.34,4.8-8.67,9.62-13.12,14.44a.3.3,0,0,1-.43,0,8.85,8.85,0,0,1-1.5-1.71.49.49,0,0,1,.07-.57l4.26-4.68c2.62-2.87,5.25-5.74,7.85-8.63a4.53,4.53,0,0,1,.89-1,.44.44,0,0,1,.48,0A7.94,7.94,0,0,1,151.12,231.72Z"/>
  </g>
  <path class="pickguard" d="M142,211a21,21,0,0,0-5.18-5.29,32.57,32.57,0,0,0-5-2.58c-2-1-4.12-1.83-6.24-2.62a27.06,27.06,0,0,0-11.4-1.65,15.34,15.34,0,0,0-5.62,1.43l-5.63,12.4a8.56,8.56,0,0,1-.68,5.94,11.91,11.91,0,0,1-5.65,5.89,15.16,15.16,0,0,1-7.22,1.22,14.5,14.5,0,0,1-5-1c-.75-.33-1.51-.63-2.22-1-.38-.2-.8-.25-1.18-.41a.93.93,0,0,0-1.07.5.87.87,0,0,0,0,1,18.24,18.24,0,0,0,4,4.68c1.35,1.14,2.76,2.18,4.19,3.23a44.17,44.17,0,0,0,6.82,3.71c1.68.83,3.36,1.64,5,2.54a31.46,31.46,0,0,1,7.67,5.82,34.27,34.27,0,0,1,4.06,5.11,50,50,0,0,1,3.35,6c.71,1.53,1.57,3,2.37,4.44.69,1.29,1.44,2.57,2.26,3.8s1.94,2.57,3,3.83a19.26,19.26,0,0,0,1.83,1.78,16.11,16.11,0,0,0,3.08,2,4.08,4.08,0,0,0,4.62-1.78,5.23,5.23,0,0,0,.07-4.69c-.55-1.27-1.28-2.48-1.73-3.79s-1-2.56-1.38-3.9a27.61,27.61,0,0,1-.6-8.1,12.19,12.19,0,0,1,1-4.52,8.53,8.53,0,0,1,3.7-4.49C133.36,240.4,142,211,142,211Z"/>
  <g class="knob">
    <path d="M124.5,256.12a2.18,2.18,0,0,0-2.31-2.76,2.09,2.09,0,0,0-1.77,1.3,2.33,2.33,0,0,0,1.85,3.47c1,.08,2.27-1,2.15-1.93Z"/>
    <path d="M126.12,264.22a2.19,2.19,0,0,1,2-.41,2.09,2.09,0,0,1,1.34,1.63,1.89,1.89,0,0,1-1,2.39,2.37,2.37,0,0,1-3.39-1.35,1.73,1.73,0,0,1,.33-1.57A2.75,2.75,0,0,1,126.12,264.22Z"/>
    <path d="M116.94,242.64a2.32,2.32,0,0,0-.37,2.55,2.45,2.45,0,0,0,2.46,1.15,2.24,2.24,0,0,0,1.55-3.55,1.57,1.57,0,0,0-.78-.63,2.74,2.74,0,0,0-2.19,0A1.94,1.94,0,0,0,116.94,242.64Z"/>
  </g>
  <path class="pickup" d="M114.87,225.62c1.71-.09,2.31-1.43,2.82-2.7s1.06-2.46,1.59-3.68c1.51-3.47,3.1-6.89,4.69-10.33a2,2,0,0,0-1-2.69,2.06,2.06,0,0,0-3.16,1.15c-.68,1.47-1.39,2.92-2.08,4.39q-2.23,4.81-4.46,9.63c-.07.14-.07.34-.17.45a2.3,2.3,0,0,0,1.25,3.61,2.45,2.45,0,0,0,.45.17Z"/>
  <path class="fretboard" d="M9.43,135.05a2.84,2.84,0,0,0,1,1.72c1.81,1.41,3.51,3,5.26,4.44,2.43,2,4.89,4,7.32,6.09,1.45,1.22,2.86,2.47,4.31,3.69,1.79,1.5,3.64,2.94,5.38,4.48,1.42,1.26,2.88,2.46,4.33,3.68,2.48,2.1,5,4.16,7.47,6.25,1.78,1.5,3.53,3,5.31,4.54,2.43,2,4.89,4.05,7.32,6.09,1.78,1.5,3.53,3,5.31,4.53,2.13,1.79,4.27,3.54,6.39,5.32,1.79,1.51,3.54,3,5.32,4.54,2.12,1.79,4.27,3.54,6.39,5.32,1.78,1.5,3.53,3,5.32,4.54,2.12,1.79,4.27,3.54,6.39,5.32,1.78,1.5,3.53,3.05,5.32,4.54s3.31,2.86,5.07,4.17a.86.86,0,0,0,1.33-.07c1.88-1.83,3.5-3.9,5.23-5.86,1.11-1.25,2.25-2.48,3.3-3.78a2.26,2.26,0,0,0,.25-.38c.65-1.11.66-1.22-.33-2-1.75-1.38-3.52-2.74-5.3-4.1-2.73-2.08-5.39-4.26-8.1-6.37s-5.34-4.11-8-6.17l-8.25-6.39c-4.54-3.52-9.1-7-13.62-10.56-4.35-3.41-8.73-6.77-13.09-10.17S47.3,151.68,43,148.29s-8.74-6.77-13.1-10.17-8.64-6.78-13-10.08c-.41-.32-.67-.87-1.31-.77Z"/>
  <path class="head" d="M13.66,120.49a1.57,1.57,0,0,0-.77-1.91c-.23-.13-.46-.28-.67-.42-2.88-1.81-5.88-3.38-8.86-5-.94-.51-1.9-1-2.86-1.45v22.94a10.85,10.85,0,0,1,3.08-.75A9.72,9.72,0,0,1,9.05,135l6.08-7.16a3.14,3.14,0,0,0-.55-1.38A8.12,8.12,0,0,1,13.66,120.49Z"/>
  <path class="nut" d="M14.9,126.42a10,10,0,0,0-2.45,2.32q-1.86,2.08-3.57,4.3c-.31.39-.41.87-.73,1.26s.32,1.17.9,1.52a.7.7,0,0,0,1.08-.23c1.25-1.73,2.63-3.37,4-5a18,18,0,0,1,2.45-2.72c-.2-1-.69-1.5-1.53-1.45Z"/>
  <g class="skinNordic">
    <path d="M35.21,160.12c1.48-1.08,3.11-2,4.52-3.17a1.7,1.7,0,0,1,1.81-.31,3.4,3.4,0,0,1,1.93,4,6.77,6.77,0,0,1-3.07,4.48,5.32,5.32,0,0,0-2.23,2.61,10.86,10.86,0,0,0-.39,1.84c.21.16.91-.7,1.22-.93,1.23-.9,2.44-1.83,3.69-2.71a34.43,34.43,0,0,1,5.25-3.53,2.63,2.63,0,0,1,2.78.47,3.39,3.39,0,0,1,.41,3.71,11.12,11.12,0,0,1-1,1.55c-.3.46-.9.64-1.06,1.23l1,.83c1.26,1.05,2.55,2.07,3.76,3.17.78.71,1.77,1.28,2.08,2.38a10,10,0,0,1,.4,2.61,27.64,27.64,0,0,1-.38,4.63,37.47,37.47,0,0,1-1.23,5.23,27.2,27.2,0,0,1-1.62,4.7c-.8-.09-1.55-.34-2.31-.47-2.08-.33-4.13-.78-6.17-1.28A12.84,12.84,0,0,1,38,187.43,18.12,18.12,0,0,0,34.17,184a5.79,5.79,0,0,1-2.23-2.76,4,4,0,0,0-1.4-1.69,4.72,4.72,0,0,1-2.07-2.92,10.8,10.8,0,0,0-.86-2.47,12.47,12.47,0,0,1-.8-2.7,42.41,42.41,0,0,1-.43-4.92,23.22,23.22,0,0,1,.36-4.16,14.8,14.8,0,0,1,1.24-4.7,17.16,17.16,0,0,1,3.13-4.58,15.9,15.9,0,0,1,5.13-3.65,2.4,2.4,0,0,1,2.9,1.38,4.94,4.94,0,0,1-.6,3.69c-.75,1.22-1.74,2.27-2.6,3.41-.54.72-1.73,1.86-1.71,2.91C34.23,160.85,34.64,160.53,35.21,160.12Z"/>
    <path d="M120.88,231.4c-1.66.64-2.15,2.6-.56,4.18a3.78,3.78,0,0,0,4,1.13l.08-.07a3.93,3.93,0,0,0,3,3.42,4.27,4.27,0,0,0,4.07-1.26c.33.24.34.74.61,1.07a4.43,4.43,0,0,0,5.49.8,30.23,30.23,0,0,0,4.83-3.66A36.65,36.65,0,0,0,147,232a79.49,79.49,0,0,0,4.35-7.11,5.12,5.12,0,0,1,1.63-1.77c.76-.5,1.6-1.26,2.39-1.87-3.58-4.67-7.26-9.19-12.45-12.31a7.08,7.08,0,0,1-3,1.12,34,34,0,0,0-4.38,1,28.34,28.34,0,0,0-3.15,1.19,21.53,21.53,0,0,0-7.73,6c-1.31,1.49-2.6,3-3.89,4.5a24.28,24.28,0,0,0-2.39,3.23c-1.12,1.81-1.07,2.9.68,4.53a13.64,13.64,0,0,0,1.15.85Z"/>
  </g>
  <g class="skinOverlapLine">
    <path d="M45.56,180.11a5.68,5.68,0,0,0,3.24-2.85,4.48,4.48,0,0,0,.61-3.09,2,2,0,0,0-2.77-1.6c-2,1-4,1.9-5.91,3a10.83,10.83,0,0,0-3.46,4.49,3.31,3.31,0,0,0,.69,3.46,6.51,6.51,0,0,0,1.59,1.64"/>
    <path d="M127.89,89.46a15.28,15.28,0,0,1-2.68,5.17A33.06,33.06,0,0,1,122.34,98a30.93,30.93,0,0,1-3.2,2.73,24.37,24.37,0,0,1-4.19,2,15.7,15.7,0,0,1-7.4.31"/>
    <path d="M51,173.64c1.85,1.84,1.85,1.84,2.52,3.17a6.69,6.69,0,0,1,.74,4.76,7.44,7.44,0,0,1-3.8,5.16"/>
    <path d="M34.16,160.93c-.95,1.74-2.27,3.51-3.27,5.21a7.87,7.87,0,0,0-.81,3.65c0,.33,0,.66,0,1"/>
    <path d="M130.2,232.17a42.57,42.57,0,0,1-5.7,4.39"/>
    <path d="M125.58,227.32a13,13,0,0,1-3.23,3.09,15.44,15.44,0,0,1-1.39.91"/>
    <path d="M37.85,169.63a20.48,20.48,0,0,0-2.23,2.62A19.47,19.47,0,0,0,34.7,174"/>
    <path d="M134.51,236.25a19.15,19.15,0,0,1-2.94,2.53"/>
    <path d="M49,169.25a28.48,28.48,0,0,1-3.32,2.53,16.68,16.68,0,0,0-3.31,2.85"/>
  </g>
</svg>
