<svg viewBox="0 0 218.19 290.09">
  <g class="frame">
    <rect x="1.31" y="0.5" width="216.19" height="288.59"/>
    <path d="M217,1V288.59H1.81V1H217m1-1H.81V289.59H218V0Z"/>
  </g>
  <path class="mountain" d="M197.21,194.55c-.75.33-1.3-.13-1.85-.48a3.92,3.92,0,0,0-.7-.44c-2.32-1-4.5-2.2-6.84-3.13-2.12-.83-4.25-1.7-6.34-2.62-1.6-.7-3.32-1.11-5-1.65a6.37,6.37,0,0,1-.85-.39,15.08,15.08,0,0,0-4.09,1.53,6.7,6.7,0,0,1-1.85.77,27.43,27.43,0,0,0-3,1.53,31,31,0,0,0-3.23,1.94c-1,.56-1.94,1-2.92,1.55a1,1,0,0,1-.91-.1,18.13,18.13,0,0,0-3.87-1.23c-2.15-.5-4.26-1.15-6.46-1.47a8.68,8.68,0,0,1-2.24-.42c-.15-.07-3.15,1-4.47,1.49s-2.82,1.11-4.22,1.67c-1.8.73-7.48,3.08-8.55,2.52-2.63-1.38-69,7.57-69.09,7.17a22.64,22.64,0,0,0-3.09-6.08,5,5,0,0,0-.86-.79,4.2,4.2,0,0,0-1.9,1.25,28.09,28.09,0,0,0-3.46,4.16c-.1.13.07-.16.07-.16-.84-.77-.83-1.9-1.21-2.86a32.49,32.49,0,0,0-1.81-3.76c-.63-1.13-1.19-1.27-2.29-.53a18.89,18.89,0,0,0-4.24,3.69,11.13,11.13,0,0,0-1.29,1.63c-.27.49-1.06.44-1.06.44-.27-1-.49-2.07-.82-3.07a25.44,25.44,0,0,0-1.43-3.56c-.68-1.36-2-1.27-3-.61a34.93,34.93,0,0,0-3.46,2.85l-.78-2.92a25.09,25.09,0,0,0-3.3-7.33,4.28,4.28,0,0,0-.94-1.21.77.77,0,0,0-1.08,0c-1.52,1.23-2.93,2.56-4.32,3.93-1,1-2.76,2.87-2.76,2.87a1.24,1.24,0,0,1-.29-1.24,16.36,16.36,0,0,0-.55-5.16,18.32,18.32,0,0,0-2.61-6.39c-.23-.35-.47-.86-.78-.88a2.65,2.65,0,0,0-1.62.42,13.3,13.3,0,0,0-3.95,3.36c-2.29,2.95-2,4.65-1.27-.36a43,43,0,0,0-.49-4.39,23.29,23.29,0,0,0-.8-2.86,20.13,20.13,0,0,0-4.12-7.84L1,165.19l-.54.38V288.91l.54.45H217.15l0,.15h.11v-95h-19.8C197.41,194.55,197.29,194.51,197.21,194.55Z"/>
  <path class="steppe" d="M214.22,174.13a30.75,30.75,0,0,1-4.16.76,27.3,27.3,0,0,0-4,1,4.9,4.9,0,0,1-.55.13,1.3,1.3,0,0,0-1.23,1,7.07,7.07,0,0,0-.31,1.77c0,1.15,0,2.31,0,3.46,0,.59-.18,1.17-.16,1.78,0,.4-.35.51-.68.53-2.24.16-4.41.71-6.62,1.09-1.11.2-2.21.51-3.31.76-1.49.35-1.83.74-1.85,2.24,0,1.11,0,2.23,0,3.36a25,25,0,0,1-2.77.39c-1.16,0-2.25.39-3.39.51a34.09,34.09,0,0,0-4.55,1,1.07,1.07,0,0,0-.89.94,9.59,9.59,0,0,0-.12,2.93c.09.36,0,.67-.52.7a68.72,68.72,0,0,0-9,1.28c-1.13.22-2.26.49-3.39.68a1.13,1.13,0,0,0-1.06,1.11,26.1,26.1,0,0,0-.24,2.93c-.05,3.46-.06,6.93-.08,10.39l52-.44.38-1.37V174.42c-.12-.3-.25-.59-.38-.89A21.89,21.89,0,0,0,214.22,174.13Z"/>
  <path class="land" d="M216.15,199.47a21.56,21.56,0,0,0-5-1.68,4.82,4.82,0,0,0-3.75,1.1c-.49.34-1,.61-1.49,1-1.4,1-2.83,2-4.22,3a1.82,1.82,0,0,1-2,.24,10.57,10.57,0,0,0-2.46-.91c-1.23-.22-2.41-.57-3.62-.86a2.78,2.78,0,0,0-.46,0c-.49-.12-1-.29-1.46-.37a3.57,3.57,0,0,0-2.55.36c-1.51.9-3.13,1.63-4.6,2.58-1.31.85-2.54,1.84-3.87,2.67a3,3,0,0,1-2.62.32c-1.32-.44-2.66-.86-4-1.24-1.56-.43-3.12-.85-4.7-1.23a6.06,6.06,0,0,0-3.85.61c-.85.38-1.68.81-2.54,1.15-.69.26-1.08.9-1.77,1.17-1.1.45-2,1.21-3.1,1.73a5.79,5.79,0,0,1-3.37,1,20,20,0,0,1-2.39-.53,15.26,15.26,0,0,0-4.69-.59,9.92,9.92,0,0,0-3,.83c-1.74.67-3.47,1.36-5.17,2.14-.47.22-81.66,2.37-83.24,2.22s-3,0-4.47-.14-2.77-.3-4.16-.45c-1.11-.11-2.21-.19-3.31-.31-2.37-.25-4.73-.49-7.09-.78-1.72-.21-3.45-.45-5.15-.79-.57-.11-1.11-.34-1.7-.46-1-.2-2.12-.25-3.17-.55a18.69,18.69,0,0,0-3-.75,23.15,23.15,0,0,1-3.39-.69c-1.22-.32-2.44-.68-3.64-1.1a5,5,0,0,0-.83-.11c-1.16-.39-2.34-.72-3.46-1.17-2.3-.94-4.62-1.86-6.85-2.94A40.15,40.15,0,0,0,.5,201.58v87.93H217.69v-89c-.13-.18-.26-.36-.38-.55C216.92,199.82,216.53,199.66,216.15,199.47Z"/>
  <g class="skinAshkenazi">
    <path d="M192,150.34c-1.92-.79-3.5-2.21-5.59-2.87a26,26,0,0,1,3-3.85,5.39,5.39,0,0,0,1.94-4,1.79,1.79,0,0,0-.93-1.68,1.58,1.58,0,0,0-1.78.28,8.89,8.89,0,0,0-1.46,1.48,9.49,9.49,0,0,1-4.77,2.9c-3.36.89-5.14,3.4-6.68,6.2-.27.47,3.14,6.33,4.6,8.77Z"/>
    <path d="M113.72,98.43a9.54,9.54,0,0,1-1.07-4.31c0-.89.06-1.83,1.07-2.23.43-.16,12.32-13.4,12.32-13.79V59.23L115,44.67H89c-.84,0-.73,43-.53,43.2,1.46,1.35,1.25,3.35.48,5.1a13.7,13.7,0,0,1-3,4.07L103.09,110Z"/>
    <path d="M141.29,123.84c.56,1.37,3.81,8,4.39,9.4.36.81.78,1.59,1.15,2.39a3.71,3.71,0,0,0,2.06,2.13,37.66,37.66,0,0,1,5.8,3.11,56.1,56.1,0,0,0,10.71,4.92c1.4.49,2.82.93,4.23,1.39.22.06-1.92,10.32-1.92,10.32-1.34-.18-2.67-.38-4-.53a44.73,44.73,0,0,1-6.17-1.07c-2.11-.55-4.3-.81-6.39-1.54-1.82-.64-3.69-1.14-5.54-1.71-.64-.2-1.27-.44-1.93-.61a16.3,16.3,0,0,1-4.77-2.16,10.59,10.59,0,0,1-3.3-3.71c-.93-1.59-1.91-3.16-2.73-4.83s-1.76-3-2.58-4.49a27,27,0,0,1-2.33-4.69Z"/>
    <path d="M84.45,235c-.1,1.11-.39,2.19-.4,3.31a17,17,0,0,1-.26,2.77,16.84,16.84,0,0,1-.26,3c0,.12.1,3.72.07,5.39l-13.32,5.47-.08-.08c-2.78-1.85-8.57-7.48-8.56-8.24,0-3.26,0-6.52,0-9.78,0-1,.1-2,.17-3,.15-2,.43-3.94.41-5.92Z"/>
    <path d="M190,167.21a6.91,6.91,0,0,0,3.47.71c.61-.07,1.16-.32,1.77-.34a7.84,7.84,0,0,0,3.14-.8c1.38-.65,2.63-1.54,4.26-1.43a6.68,6.68,0,0,0,1,0,3.85,3.85,0,0,0,3.39-1.68,2.06,2.06,0,0,0-.78-2.47l.47.15a7.81,7.81,0,0,1,1.84-.55A2.44,2.44,0,0,0,210.3,159c.16-1.07-.48-2-1.77-2.46-1.1-.44-.95-.43-.59-1.22a2.17,2.17,0,0,0-1.49-2.95c-.94-.24-1.91-.27-2.85-.45s-2.12.11-3.16,0c-1.92-.24-3.86-.18-5.78-.44Z"/>
    <path d="M116.64,231.9c-.15,1.89.33,3.74.32,5.62,0,1.72.24,3.45.11,5.16s0,3.5-.12,5.24l12.79,4.39c2.54-1.82,7.85-5.64,7.86-5.85a52.89,52.89,0,0,0-.09-7.86c-.16-1.75-.34-3.49-.54-5.23a13.14,13.14,0,0,0-.57-3.05Z"/>
    <path d="M44.94,188.08c.43.07.63-.15.78-.54a10,10,0,0,0,.26-5.4,5.6,5.6,0,0,1,.23-3.32,30.92,30.92,0,0,1,3.73-6.07c1.44-1.94,3.22-3.59,4.28-5.83.59-1.26,1.24-2.49,1.73-3.8a46.19,46.19,0,0,0,2.1-7c.35-1.74,1.43-3.19,2.17-4.77,1-2.08,2.13-4.09,3.19-6.14.91-1.79,1.79-3.62,2.81-5.38,1.39-2.41,2.8-4.83,4.16-7.27A13.94,13.94,0,0,1,73,128.77v-.23a.86.86,0,0,0,0,.16h.07a10.61,10.61,0,0,1,3.47-1.16l4.85-13.25-6.09-8.24-2.4-3.25c-1,.44-1.91.76-2.77,1.22A13.38,13.38,0,0,0,66.47,107a35.94,35.94,0,0,0-3.65,4.43,28.55,28.55,0,0,0-3.17,5.92c-.72,2-1.43,4-2.21,5.94-.55,1.36-.92,2.79-1.49,4.15-.32.77-.67,1.54-1,2.31-1.21,2.85-2.35,5.73-3.65,8.53-.6,1.32-1.19,2.64-1.79,4-.92,2-1.63,4.06-2.63,6-.74,1.48-1.53,2.93-2.34,4.37a29.55,29.55,0,0,0-2.22,4.86c-.55,1.62-1.22,3.19-1.63,4.85-.61,2.48-1.3,4.94-2,7.4-.54,1.91-1.26,3.77-2,5.63A13.92,13.92,0,0,1,32.18,181a46.84,46.84,0,0,0-4.8,4.44,4.72,4.72,0,0,0-1,3.39c0,.9,0,1.8,0,2.69a15.92,15.92,0,0,0,.95,5.31,8.43,8.43,0,0,0,1.51,2.4Z"/>
    <rect x="118.9" y="101.82" width="15.07" height="25.57" transform="matrix(0.85, -0.53, 0.53, 0.85, -41.5, 84.3)"/>
  </g>
  <g class="skinOverlapLine">
    <path d="M96.7,85a11.81,11.81,0,0,0,4.47,4.15,16.28,16.28,0,0,0,2.76,1.49,17.45,17.45,0,0,0,5.94,1.14c1,0,1.89-.35,2.85-.47"/>
    <path d="M200.21,165.59c.76-1.4.59-2.41-.63-3.07a2.77,2.77,0,0,0-2.29,0,24.77,24.77,0,0,1-3,1.13c-.54.13-1.08.21-1.62.31l-.08,0,0,0"/>
    <path d="M193.66,160a14.34,14.34,0,0,0,3.62.71,42.23,42.23,0,0,0,5.39.29h2.54c.39,0,.8-.07,1.08.31"/>
    <path d="M194.66,155.5a6.37,6.37,0,0,1,2.46.27,21.71,21.71,0,0,0,4.55.29c1,0,1.89.2,2.85.14a12.31,12.31,0,0,0,2.09-.14,1,1,0,0,1,1,.13"/>
    <path d="M90.38,77.17a1.56,1.56,0,0,0,1.69,0"/>
  </g>
  <path class="hairRed" d="M102.39,48a4.43,4.43,0,0,0,1.2,2.13,22.49,22.49,0,0,0,5,4.75c.82.59,1.49,1.38,2.32,2a35.88,35.88,0,0,0,5.86,3.37,31.19,31.19,0,0,0,4.93,1.7,3.82,3.82,0,0,1,1.61.77c-.18.7-.42,2.25-.46,2.47-.4,2,.13,4,.35,6a13.16,13.16,0,0,1-.11,4.15,35.49,35.49,0,0,1-2.5,7.54,13.55,13.55,0,0,1-2.51,3.87c-.5.52-.88,1.17-1.4,1.67s-1.29,1-1.91,1.56-1.48.91-2.25,1.47a4.37,4.37,0,0,0,2.25,1,18,18,0,0,0,5.94-.23,21.75,21.75,0,0,0,3.75-1.07,17,17,0,0,0,5-2.84,5.4,5.4,0,0,0,1.17-1.07.73.73,0,0,0-.08-1.09A4.86,4.86,0,0,1,129,83.18,4.69,4.69,0,0,1,129.3,81c.62-1.59,1.29-3.16,1.82-4.79a13.6,13.6,0,0,0,.28-5c-.17-2.77-1.3-5.32-2.13-7.94a39.14,39.14,0,0,1-1.08-4.77c-.34-1.84-.4-3.72-.83-5.55a13.43,13.43,0,0,0-.79-2.42,24.74,24.74,0,0,0-3.08-5c-.81-1.05-1.51-2.17-2.37-3.18a17.25,17.25,0,0,0-5.93-4.47c-1.4-.64-2.81-1.22-4.25-1.74a12.69,12.69,0,0,0-2.38-.47,39.15,39.15,0,0,0-8.17-.23c-.62,0-1.23.15-1.85.22,0,0-3.41.5-4.92.93-.91.26-1.8.57-2.7.84A25,25,0,0,0,87.3,39a15,15,0,0,0-4,2.9,30.32,30.32,0,0,0-3,3.36,13.23,13.23,0,0,0-2,4.07,45.35,45.35,0,0,1-2.61,7.09c-.54,1-1.1,2-1.68,3a12.8,12.8,0,0,0-1.09,2.45,38.62,38.62,0,0,0-1.6,4.61,27.1,27.1,0,0,0-.58,4,17,17,0,0,0,.83,6.25c.4,1.18,1,2.27,1.39,3.46a4.68,4.68,0,0,1-.6,4.31,1.81,1.81,0,0,1-1.93.61c-1.12-.43-1.39-.21-1.23,1a.86.86,0,0,0,.08.54,6.28,6.28,0,0,0,1.91,1.86,13.35,13.35,0,0,0,5.32,2.56c.95.17,1.9.3,2.85.45a25.84,25.84,0,0,0,4.47.25,21,21,0,0,0,4.08-.61,2.18,2.18,0,0,0,2-1.66A20.34,20.34,0,0,0,90.44,86a10.8,10.8,0,0,0-.12-2.47,4.34,4.34,0,0,0-.6-2.14c-.15-.2-.1-.34,0-.55a22.45,22.45,0,0,0,.59-4.47,44.5,44.5,0,0,0-.34-7.47,11,11,0,0,1-.17-4.08c.52-.26.83.13,1.15.39a8.06,8.06,0,0,1,2,2.7c.23.48.46.88,1,1a2.24,2.24,0,0,0,.62-1.15A12,12,0,0,1,96.06,64a9.29,9.29,0,0,0,1.36-3.31,21.1,21.1,0,0,0-.11-7c-.11-.77-.26-1.54-.38-2.31Z"/>
  <g class="hairOverlapLine">
    <path d="M121,47.67a8.3,8.3,0,0,1,3.92,4.78,16.12,16.12,0,0,1,.83,6.24,10.53,10.53,0,0,1-.75,3.54c-.37.79-.71.87-1.46.62"/>
    <path d="M89.53,81.25a7.41,7.41,0,0,1-3,3.82,6.37,6.37,0,0,1-2.66,1.22,8.66,8.66,0,0,1-1.24.2"/>
  </g>
  <path class="maraHeadband" d="M118.4,44.69a21.12,21.12,0,0,0-3.28-2.29,11.86,11.86,0,0,0-4.48-1.27,19.11,19.11,0,0,0-7.15.81A15.41,15.41,0,0,0,96.29,46c-.9,1-1.75,2-2.58,3a28.68,28.68,0,0,0-1.56,3.15,14.12,14.12,0,0,0-1.54,4.7c-.23,1.56-.5,3.12-.68,4.7-.1.89-.06,2-.09,2.92,0,.21.49.21.62-.15s.56-1.27.7-1.77a25.65,25.65,0,0,1,2.6-5.28,16.33,16.33,0,0,1,2.94-3.73,27.69,27.69,0,0,1,5.08-4,19.72,19.72,0,0,1,3.85-1.84,22.93,22.93,0,0,1,7.93-1.19,25.78,25.78,0,0,1,5.4.71,3.54,3.54,0,0,0,1.76.32A13.15,13.15,0,0,0,118.4,44.69Z"/>
  <g class="boot">
    <path d="M139,240.23c-.42-.57-.65-1.28-1.53-1.32l.08.85a6.17,6.17,0,0,1-.36,2.78,3,3,0,0,1-.82,1.19c-1.22.88-2.11,2.17-3.52,2.8-1.1.5-2.09,1.31-3.38,1.33a.58.58,0,0,0-.31.14c-.71-.17-1.45-.13-2.16-.29-1.15-.26-2.26-.63-3.39-.92a23.31,23.31,0,0,1-6-2.34,1.59,1.59,0,0,1-.86-2c.06-.36.29-.77-.15-1.08a4.66,4.66,0,0,0-1.17.6,3.39,3.39,0,0,0-1.23,2.72c0,.71-.18,1.43-.21,2.15a59.09,59.09,0,0,0,.43,6.24c.11,1.54.31,3.07.37,4.62s.34,3.35.53,5c.12,1.13.21,2.26.37,3.39.27,2,.67,3.94.9,5.93s.44,3.86.79,5.77c.32,1.69.34,3.41.75,5.09a17.08,17.08,0,0,1,.08,1.77c.19,1.64.31,3.29.51,4.93h20.8l0-.23c.12-1.08.27-2.16.3-3.24,0-1.54.26-3.07.17-4.62,0-.39-.07-5.57,0-7.78.05-1.54.1-3.08.24-4.62s.07-2.93.18-4.39c.12-1.66-.08-3.34-.11-5,0-1.28.1-2.57,0-3.84-.09-1.6.09-3.19,0-4.78a18.43,18.43,0,0,1,.17-3.47,13.54,13.54,0,0,0-.37-3.69A8.06,8.06,0,0,0,139,240.23Z"/>
    <path d="M83.91,242.91a1.6,1.6,0,0,0-.3.7,3.34,3.34,0,0,1-1.48,2.84c-.76.49-1.58.89-2.38,1.31A33.44,33.44,0,0,1,73.37,250a5.9,5.9,0,0,1-4.62-.52,32.49,32.49,0,0,1-5.94-3.68,2.69,2.69,0,0,1-1.17-2.93c.12-.43.19-.63-.26-.92-1.09,1.17-2.35,2.27-2.47,3.85a38.5,38.5,0,0,0-.34,5.78,10.59,10.59,0,0,1,0,1.38c-.25,3.62-.51,7.24-.45,10.86,0,3.14-.11,6.27,0,9.4.06,2.41,0,4.83,0,7.24.05,2,.23,4.05.29,6.08,0,1,0,2,0,3H77.72A60.64,60.64,0,0,0,79.48,283c.06-.25.75-3.66,1.1-5,.44-1.72.73-3.49,1.1-5.23.48-2.3.91-4.61,1.49-6.89.34-1.34,1-5.28,1-5.28.33-1.76.66-3.53.84-5.31s.21-3.41.5-5.08a13.42,13.42,0,0,0-.11-5.17A5.46,5.46,0,0,0,83.91,242.91Z"/>
  </g>
  <path class="glove" d="M197.59,151.34c-.06.58-.58.89-.88,1.28a13.05,13.05,0,0,0-1.65,3.27,30.82,30.82,0,0,0-2,6.77,20.19,20.19,0,0,0-.6,3.93,2,2,0,0,1-.1,1.15s-.51.45-.92.39a56.21,56.21,0,0,1-6-.95,26.88,26.88,0,0,1-6.15-2.52,17.69,17.69,0,0,1-5.17-3.92,6,6,0,0,0-3.46-1.91,26.7,26.7,0,0,0-2.69-.33c-.64-.06-1.35-.17-1.51-.85a5.69,5.69,0,0,1-.11-2.69c.38-1.57.74-3.14,1.16-4.7a33.54,33.54,0,0,1,1.07-3.54c.35-.89.65-1.06,1.62-1,.68,0,1.33.23,2,.31a11.83,11.83,0,0,1,4.1,1.29,1.06,1.06,0,0,1,.51.49,14.15,14.15,0,0,0,1.4,2.38,23.23,23.23,0,0,0,3.34,3.95c.87-.63,1.71-1.14,2.53-1.69a30.79,30.79,0,0,1,3.85-2.15,14.21,14.21,0,0,1,2.44-1.21c.21-.06.49-.2.61-.11a12,12,0,0,0,4.79,1.74A11.42,11.42,0,0,1,197.59,151.34Z"/>
  <path class="skirt" d="M75.36,162.05a30.58,30.58,0,0,0-3.15,3.85,49.65,49.65,0,0,0-3.36,6.22c-1.1,2.22-2,4.52-2.94,6.8-.81,1.93-1.37,4-2.11,5.92-.67,1.78-1.15,3.62-1.8,5.41a26.28,26.28,0,0,0-1,3.38,27.89,27.89,0,0,1-1.16,3.52c-.44,1.23-.73,2.49-1.16,3.72a31.17,31.17,0,0,0-1.5,4.84,23.46,23.46,0,0,1-.78,3.46c-.47,1.43-.61,2.92-1.15,4.35-.4,1-.49,2.25-.83,3.36-.55,1.82-.73,3.71-1.18,5.56-.39,1.6-.75,3.23-1.12,4.84-.29,1.25.08,1.69,1.21,2.41,2,1.24,4.21,1.47,6.33,2.13.58.18,1.18.32,1.77.46a1.79,1.79,0,0,0,.39,0c.17.11.36.2.39.46a1,1,0,0,0,.69.82,23.54,23.54,0,0,0,2.45,1c1.61.36,3.21.79,4.78,1.31a24.47,24.47,0,0,0,4.55.92,17.76,17.76,0,0,1,2.38.53c.49.13,1,0,1.48.21a.78.78,0,0,0,.37,0c.59.08,1.17.22,1.77.26a13.73,13.73,0,0,1,1.93.07,41.49,41.49,0,0,0,4.85.27,2,2,0,0,0,2.23-1.37,3.15,3.15,0,0,0,0-.52,1.66,1.66,0,0,1,1.11-.07,11.1,11.1,0,0,0,2.85.42c1.75.08,3.49.06,5.24,0,2-.07,4-.37,6.08-.47a10.22,10.22,0,0,0,2.15-.21,3.09,3.09,0,0,0,2.17,1.63,24.12,24.12,0,0,0,3.16.6,26.93,26.93,0,0,0,5,.17A25.56,25.56,0,0,0,122,238c.62-.1,1.26-.08,1.85-.23,1.48-.37,3-.63,4.47-.89,1.7-.29,3.41-.55,5.09-1a2.27,2.27,0,0,0,2-2.33.7.7,0,0,1,.68-.82c.51-.08,1-.17,1.55-.23a24.25,24.25,0,0,0,6-1.58c1.66-.65,2.31-1.2,2.26-3.38a39.62,39.62,0,0,0-.73-5c-.19-1.25-.53-2.47-.83-3.7q-.92-3.74-1.85-7.47c-.49-2-.89-4-1.52-5.94-.35-1.05-.47-2.17-.8-3.22q-.75-2.43-1.48-4.85c-.34-1.12-.52-2.27-.82-3.4-.4-1.52-1-3-1.27-4.54-.38-1.79-1.06-3.52-1.54-5.31a47.57,47.57,0,0,0-1.9-5.24c-.67-1.69-1.17-3.45-2-5.09-1.16-2.35-2.07-4.82-3.4-7.09a62.79,62.79,0,0,0-3.7-6Z"/>
  <g class="skirtFoldLine">
    <path d="M64.89,217.11a18.55,18.55,0,0,1-.5,3.93,21.5,21.5,0,0,1-.42,3.08c-.42,1.64-.77,3.29-1.16,4.93a28.63,28.63,0,0,1-.7,3.31"/>
    <path d="M107.25,218.35c-.07,1.11.25,2.21.2,3.31,0,1.31.17,2.61.13,3.93-.09,2.66,0,5.34,0,8a10.63,10.63,0,0,1-.29,2.31"/>
    <path d="M134.05,223.43a15.86,15.86,0,0,0,.64,4.54c.22,1.1.38,2.21.59,3.32a8,8,0,0,1,.31,1.69"/>
    <path d="M90.61,228.36c-.32,1.58-.34,3.19-.55,4.78a21.13,21.13,0,0,0-.37,3.07"/>
  </g>
  <g class="strap">
    <path d="M77.52,163.2c-.48,1.92-1.22,3.76-1.86,5.62s-1.34,3.5-1.94,5.26-1.14,3.61-1.63,5.44-.76,3.4-1.2,5.09c-.63,2.41-1,4.87-1.48,7.31a24.41,24.41,0,0,1-.77,3.42,9.62,9.62,0,0,0-.42,2.6c0,.75-.32,1.42-.41,2.15-.13,1-.3,1.95-.46,2.93a.75.75,0,0,0,0,.23,2,2,0,0,0,1,.62,28.93,28.93,0,0,0,4.24.85,51.2,51.2,0,0,0,6.31.45c.27,0,.52.17.52.31,0,.75.67.87,1.11,1.06a13.27,13.27,0,0,0,3.92.93,14.71,14.71,0,0,0,2.77.28,31.55,31.55,0,0,0,3.86-.39c1.31-.3,2.13-.85,2.14-1.88,0-2.47.29-4.93.47-7.39s.33-4.67.46-7c.11-2,.23-4.05.18-6.08,0-1.34.21-2.67.28-4,.1-1.7.22-3.39.37-5.08s.52-3.28.73-4.93c.19-1.45.55-2.88.83-4.31a10.56,10.56,0,0,0,.54-2.54Z"/>
    <path d="M121.57,162.43c1,1.73,1.67,3.58,2.48,5.39a92.53,92.53,0,0,1,3.31,9c.65,2,1.25,4,1.72,6.05.65,2.78,1.37,5.54,1.95,8.33.38,1.86.81,3.72,1.06,5.62.22,1.74.67,3.46.74,5.24a1,1,0,0,1-.63,1.07,21.85,21.85,0,0,1-3.85,1,51.18,51.18,0,0,1-7.24.21,1.89,1.89,0,0,1-1.46,1.94,24.54,24.54,0,0,1-4.55.95,16.67,16.67,0,0,1-3.15-.12c-.57,0-1.13-.11-1.7-.15-.18,0-.23,0-.23,0a22.49,22.49,0,0,1-4.17-.93,4.5,4.5,0,0,1-.16-1.35c0-1.77,0-3.54-.06-5.31,0-1.93,0-3.85-.09-5.78,0-.9,0-1.79,0-2.69,0-1.28-.15-2.57-.2-3.85a14.44,14.44,0,0,0,0-1.46c-.12-1-.12-1.91-.24-2.85-.1-.77.25-1.51.09-2.24a8.88,8.88,0,0,1-.14-1.85c0-1.31-.08-2.62-.16-3.93-.06-.85-.29-1.69-.28-2.54a15.07,15.07,0,0,0-.34-3c-.31-1.65-.71-3.29-1.07-4.93Z"/>
  </g>
  <g class="strapBorderLine">
    <path d="M113.56,165.9c0,.61,1.11,4,1.54,5.77.7,2.85,1.35,5.71,2,8.56.43,1.82.8,3.67,1.08,5.53.25,1.63.55,3.25.84,4.87.23,1.28.39,2.6.53,3.92s.39,2.77.61,4.16c.26,1.61.82,3.9.92,5.54"/>
    <path d="M86.3,165.9a22.45,22.45,0,0,0-1.23,4.77c-.37,1.8-.68,3.6-1,5.4-.31,1.53-.52,3.08-.82,4.61-.26,1.34-.65,2.66-.82,4-.26,2.1-.82,4.13-1,6.23a25,25,0,0,1-.77,3.93,29.72,29.72,0,0,0-.44,3.63c-.19,1.33-.25,2.67-.41,4-.11.88-.14,1.79-.29,2.69"/>
  </g>
  <path class="pauldronStrap" d="M139.29,120.38a20.4,20.4,0,0,1-6.08,3.71,26.13,26.13,0,0,1-4.63,1.52,4.2,4.2,0,0,1-.62.08l-.46,7.7a14.5,14.5,0,0,0,2.86-.21,22.07,22.07,0,0,0,3.62-1.07,31.57,31.57,0,0,0,9.23-4.88Z"/>
  <g class="brass">
    <path d="M129.56,196a4,4,0,0,0-3.21-1.61,2.92,2.92,0,0,0-2.69,1.83,3.41,3.41,0,0,0-.57,1.76c.06,1.51,1.35,3.32,2.8,3.41a4.37,4.37,0,0,0,2.6-.42,3,3,0,0,0,1.46-1.84,3.7,3.7,0,0,0-.06-2.23A5,5,0,0,0,129.56,196Z"/>
    <path d="M75.5,202.39a5,5,0,0,0,2-1.83,3.73,3.73,0,0,0-1.1-4.46,3.61,3.61,0,0,0-2.84-.31A4.3,4.3,0,0,0,71,197.71c-.64,1.06.07,3.36,1.14,4a4.7,4.7,0,0,0,2.78.69A2,2,0,0,0,75.5,202.39Z"/>
    <path d="M113.64,204.4c2.11,0,2.93-.77,3.23-2.92s-.78-3.82-3-4.08a3.45,3.45,0,0,0-3.71,2.15,5,5,0,0,0-.46,2,3,3,0,0,0,2.48,2.84C112.4,204.42,113.28,204.41,113.64,204.4Z"/>
    <path d="M86.45,197.24a6.89,6.89,0,0,0-2.4,1.07c-1.37,1.13-1.93,4.5.23,5.51a6.25,6.25,0,0,0,1.94.9,3.61,3.61,0,0,0,3.63-1.85,4.2,4.2,0,0,0,.44-3.55,3.28,3.28,0,0,0-2.68-2c-.36,0-.72,0-1.08-.08Z"/>
  </g>
  <path class="shirt" d="M76.51,142.64c-.42-1.34-1-2.65-1.28-4-.37-1.62-1-3.16-1.33-4.77-.28-1.31-.6-2.62-.83-3.93-.1-.55-.25-1.24.16-1.67a24.92,24.92,0,0,0,1.69-2.32,12,12,0,0,0,1.62-4.34,17.35,17.35,0,0,0,.38-5.15,19.23,19.23,0,0,0-1.62-7.4,7.49,7.49,0,0,0-2.1-2.91,5,5,0,0,0-4.31-1.33c-.13,0-.3.09-.39-.14s-.23-.4-.07-.62a5.59,5.59,0,0,1,1.07-1.16A39.92,39.92,0,0,1,76,99a34.36,34.36,0,0,1,4-1.81c1.49-.52,3.05-.86,4.54-1.4a2.2,2.2,0,0,1,1.69.07c.93.44,1.87.88,2.77,1.39a71.2,71.2,0,0,1,7.68,5.18,57.46,57.46,0,0,1,5.57,4.34,26.48,26.48,0,0,0,4.85-3.13,39.38,39.38,0,0,0,6.24-6.47,2.77,2.77,0,0,1,2-1.07,11.06,11.06,0,0,1,3.85,0l5.78,10.7c-.14,2.38.78,4.5,1.62,6.63s2.14,4.33,3,6.56a15.31,15.31,0,0,1,1.05,4.76,18.63,18.63,0,0,1-1.4,7.7,22.47,22.47,0,0,1-4.34,6.84,34.93,34.93,0,0,0-3,4.71S76.76,143.41,76.51,142.64Z"/>
  <path class="belt" d="M74.82,155.73a25.05,25.05,0,0,1-.52,4.39c-.42,1.76,1.15,4.07,3,4.54,1.16.31,2.38.26,3.53.57a33.56,33.56,0,0,0,4.4.59,25.54,25.54,0,0,1,4.85.53,16.21,16.21,0,0,0,2.31.16c1.52,0,3,.06,4.54.12,3.12.11,6.21-.37,9.33-.27a31.1,31.1,0,0,0,5.46-.19c1.87-.27,3.76-.37,5.63-.69a20.6,20.6,0,0,0,5-1.3c1.63-.73,3.28-1.47,4.26-3.13a3.42,3.42,0,0,0,.37-1,17.1,17.1,0,0,0,.23-5.39c-.11-1.26,0-2.52,0-3.77-.06-2.11.33-4.22-.2-6.32a7.56,7.56,0,0,0-1.63-3.38,1.59,1.59,0,0,0-1.93-.5,38.85,38.85,0,0,1-8.39,1.93,41.15,41.15,0,0,1-4.85.34c-2.65,0-5.29.2-7.93.29a34.74,34.74,0,0,1-7.62-.45C94.53,142.77,74.82,155.73,74.82,155.73Z"/>
  <path class="sash" d="M128.5,103.43c.14.67-.37,1.11-.63,1.61a24.09,24.09,0,0,1-1.87,2.74c-.67.94-1.27,2-2,2.89q-2.85,3.77-5.78,7.47c-1.23,1.56-2.4,3.18-3.64,4.74-1.91,2.43-4,4.74-5.77,7.26a21.4,21.4,0,0,1-2.21,2.26c-1.51,1.57-2.85,3.3-4.48,4.76-2.28,2.05-4.37,4.32-6.83,6.19-1.62,1.24-3.07,2.68-4.71,3.91-2,1.53-4,3.14-6.09,4.6a38.89,38.89,0,0,1-7.08,3.87,15.36,15.36,0,0,1-1.84.63c-.57.17-1,0-1.13-.48a6.07,6.07,0,0,1-.5-1.77c0-1.28.1-2.57.13-3.85s.07-2.77,0-4.16c-.12-1.8,0-3.62,1.75-4.76.79-.52,1.63-1,2.46-1.4,1.46-.78,2.78-1.78,4.18-2.66a31.4,31.4,0,0,0,4.59-3.58c1.13-1.06,2.23-2.14,3.32-3.23,1.86-1.87,3.72-3.73,5.54-5.63,1.17-1.22,2.29-2.49,3.39-3.77,1.31-1.54,2.76-2.95,4-4.53s2.86-3.32,4.16-5.08c.75-1,1.5-2,2.32-3a55.2,55.2,0,0,0,3.64-4.74,42.21,42.21,0,0,0,3.59-5.9c.39-.83.91-1.6,1.38-2.39a.61.61,0,0,0,.07-.31Z"/>
  <path class="pauldron" d="M149.07,130.16a5.4,5.4,0,0,0-.94-3.3c-1-1.86-2.24-3.63-3.28-5.49a27,27,0,0,1-1.84-3.93c-.55-1.47-1.26-2.86-1.87-4.3a41.39,41.39,0,0,0-2.22-4,33,33,0,0,0-6.67-8.19,26.13,26.13,0,0,0-4.58-3.14,23.38,23.38,0,0,0-4.1-2.11,14.7,14.7,0,0,0-3.93-1.07,3.94,3.94,0,0,0-2.62.57c-1,.72-1.16,1.58-.06,2.15.9.46,1.9.72,2.84,1.1a9.11,9.11,0,0,1,4.08,3.54c.84,1.24,1.43,2.63,2.14,3.94.8,1.49,1.56,3,2.4,4.46.36.63.82,1.19,1.21,1.78.65,1,1.41,1.86,2.07,2.81a9.6,9.6,0,0,0,2.46,2.19,17,17,0,0,1,6.25,7.14,30.52,30.52,0,0,0,4.43,7.41,3.61,3.61,0,0,0,1.53,1.09c1.16.46,1.44.24,2.14-.72a3,3,0,0,0,.63-1.83Z"/>
  <path class="guard" d="M36.24,204.41a4.39,4.39,0,0,0,4.39-1.31c1.92-2,2.88-4.48,3.91-6.94a20.61,20.61,0,0,0,1.72-5.54,4.62,4.62,0,0,0-.41-3.07,5.54,5.54,0,0,0-2-1.79,15,15,0,0,0-4.7-1.81,4.94,4.94,0,0,0-4.91,1.9,24.49,24.49,0,0,0-3.55,5.46,23.14,23.14,0,0,0-2,5.25c-.15.75-.26,1.53-.34,2.3a3,3,0,0,0,1.09,2.68c.74.66,2.8,2.14,3.07,1.86C32.54,203.4,35.91,204.33,36.24,204.41Z"/>
  <path class="blade" d="M10.05,270a1.23,1.23,0,0,0,.84-.47,31.19,31.19,0,0,0,2.23-2.78c2.06-3.16,4.46-6.09,6.33-9.38a33.93,33.93,0,0,0,2.07-4.4c.68-1.73,1.32-3.48,1.93-5.23,1.22-3.52,2.22-7.1,3.36-10.64.71-2.24,1.35-4.52,2.05-6.76,1.13-3.55,2.21-7.1,3.34-10.64.91-2.87,1.76-5.75,2.65-8.62q1.74-5.58,3.46-11.17c.73-2.36,1.44-4.72,2.16-7.08a2.82,2.82,0,0,0,0-1.7,1.43,1.43,0,0,0-2.31-.84A9.44,9.44,0,0,0,35,194.3c-.62,1.41-1.21,2.83-1.79,4.26-1.34,3.31-2.57,6.67-3.87,10-1.22,3.14-2.47,6.26-3.69,9.4-1.3,3.33-2.56,6.68-3.86,10-1.22,3.14-2.48,6.26-3.68,9.4-1.26,3.3-2.62,6.56-3.81,9.87-.8,2.24-1.63,4.48-2.27,6.77-.46,1.62-.8,3.28-1.16,4.93-.2.91-.34,1.84-.47,2.77a43.58,43.58,0,0,0-.48,6.85A7.84,7.84,0,0,0,10.05,270Z"/>
</svg>
