<svg viewBox="0 0 218.19 290.59">
  <rect class="frame" x="0.5" y="0.5" width="217.19" height="289.59"/>
  <path class="stripeRed" d="M217.69,152.43c-.75.72-1.55,1.39-2.37,2-1.52,1.2-2.93,2.53-4.55,3.62-2.19,1.46-4.46,2.76-6.77,4-1.58.85-3.26,1.39-4.88,2.09-.63.28-1.34.41-2,.65a45.54,45.54,0,0,0-4.45,1.65,22.42,22.42,0,0,1-2.88.93c-1.54.49-3.07,1-4.62,1.47-.9.26-1.86.42-2.75.68-2.45.74-5,.9-7.48,1.43L56.72,156.85c-1.57-.34-3-1.14-4.54-1.56s-3-1.33-4.53-1.86c-2.46-.85-4.67-2.28-7-3.33-1.58-.7-3-1.64-4.59-2.38-1.13-.54-2.32-.92-3.41-1.56-2-1.2-4.19-2.16-6.24-3.31-2.72-1.51-5.55-2.83-8.23-4.42-2.41-1.44-4.87-2.84-7.14-4.49a108.93,108.93,0,0,1-8.51-7c-.64-.57-1.32-1.11-2-1.65v41.31a63.19,63.19,0,0,1,5.24,4.15A40.83,40.83,0,0,0,9,173.34c1,.76,2.15,1.39,3.15,2.16C14,176.92,16.05,178,18,179.35c2.18,1.52,4.54,2.81,6.82,4.21a34.3,34.3,0,0,0,3.39,1.92c1.3.62,2.48,1.45,3.76,2.11,1.58.82,3,1.94,4.62,2.69,2.54,1.18,5,2.6,7.54,3.72q4.64,2,9.33,3.9l108.29,24a74.33,74.33,0,0,0,8.7-.31c1.36-.14,2.72-.26,4.08-.29a29.26,29.26,0,0,0,4.08-.58c.95-.16,1.91-.26,2.86-.49,1.61-.4,3.25-.66,4.86-1.14,1.34-.4,2.67-.83,4-1.26,1.18-.37,2.35-.82,3.54-1.14,1.94-.52,3.8-1.25,5.68-1.91s3.8-1.47,5.66-2.3c2.38-1.06,4.68-2.26,7-3.45a36.21,36.21,0,0,0,3.23-2.15,26.32,26.32,0,0,0,2.31-1.74Z"/>
  <g class="stripeBlue">
    <path d="M210.71,2.65c.22,1.14.59,2.25.77,3.4s.26,2.26.44,3.38c.26,1.67.27,3.37.68,5a2.56,2.56,0,0,1,0,.62c0,2.19.3,4.36.38,6.54,0,.46-.07.93-.07,1.39,0,1.23.05,2.46.07,3.7a43,43,0,0,1-.36,7c-.34,2.31-.43,4.65-1,7-.33,1.4-.47,2.88-.78,4.29A40.11,40.11,0,0,1,209,51.34c-.41,1-.56,2.07-.94,3.07-.47,1.24-.92,2.49-1.42,3.72-.74,1.79-1.71,3.47-2.39,5.28a19.3,19.3,0,0,1-1,1.78,70.92,70.92,0,0,1-4.4,7.09A73.22,73.22,0,0,1,190,83.51a58.43,58.43,0,0,1-5.84,4.94c-1.6,1.25-3.26,2.44-4.87,3.68a37.78,37.78,0,0,1-4.6,3.1c-1.6.89-3.06,2-4.7,2.85s-3.33,1.65-5,2.46c-1.39.68-2.84,1.24-4.25,1.89a13.94,13.94,0,0,1-2.6.95c-1.29.3-2.43,1-3.7,1.33-1,.28-2.1.57-3.16.84-.38.1-.78.12-1.15.24-1.19.37-77.25,1.23-77.25,1.23-.41-.08-5.45-1.45-7.55-2.09-2.67-.81-5.32-1.69-7.93-2.68-2-.76-4.08-1.39-6.08-2.18s-3.72-1.92-5.7-2.62c-1.52-.53-3-1.29-4.46-1.85a33,33,0,0,1-4.24-1.93c-1.37-.76-2.8-1.45-4.1-2.35A27,27,0,0,0,30.28,90c-1.53-.82-3.13-1.52-4.68-2.33-2.05-1.07-4-2.26-6.09-3.31-.7-.36-1.14-1-1.83-1.35-1.49-.77-3-1.58-4.39-2.46-1.71-1.07-3.54-1.92-5.2-3.09-1.36-1-2.78-1.87-4.18-2.79C2.73,73.84,1.61,72.94.5,72V98.64c1.47,1.38,3,2.7,4.43,4.1a70.91,70.91,0,0,0,5.82,4.88c1.78,1.39,3.65,2.67,5.44,4,1.63,1.26,3.28,2.52,5,3.72,2.76,2,5.56,3.94,8.47,5.68,2.41,1.44,4.84,2.84,7.36,4.08,1.32.66,2.58,1.45,3.86,2.21,1.59.93,3.18,1.87,4.81,2.71a24.52,24.52,0,0,0,4.05,1.69,11,11,0,0,1,1.78.9c1.68.91,3.49,1.54,5.25,2.28.7.29,1.49.42,2.22.73L171.25,152.3c1.4-.3,2.82-.42,4.23-.62,2-.27,3.85-.83,5.77-1.27a48.45,48.45,0,0,0,4.7-1.36,33.37,33.37,0,0,0,3.93-1.54q4.08-2,8.09-4.08a44.5,44.5,0,0,0,5.94-3.44,56.84,56.84,0,0,0,5.46-4.56c1.11-1.07,2.15-2.22,3.26-3.28a27,27,0,0,0,4-5.2c.36-.57.7-1.16,1-1.76V.5h-7.54A21.86,21.86,0,0,1,210.71,2.65Z"/>
    <path d="M157.39,5.05A40.14,40.14,0,0,1,153,14.53a63,63,0,0,1-4,5.55,25.84,25.84,0,0,1-2.89,3.36,61.36,61.36,0,0,1-6.42,5.38,33.64,33.64,0,0,1-5.84,3.28,37,37,0,0,1-3.59,1.24c-1.17.41-51.72,12.35-52.92,12.5-1.37.17-2.77.19-4.16.25a16.43,16.43,0,0,1-2.53,0c-1.93-.24-3.87-.28-5.78-.59-1.43-.24-2.88-.23-4.32-.46-2.16-.34-4.31-.75-6.47-1.14-1.92-.34-3.83-.71-5.77-1-1.64-.24-3.27-.68-4.93-.88-2.87-.36-5.65-1.16-8.46-1.74A44.56,44.56,0,0,1,30.52,39c-2.33-.74-4.69-1.42-7-2.09-1.85-.53-3.69-1.14-5.5-1.84-2.49-1-5-1.89-7.37-3.06S6,29.6,3.72,28.33c-1-.53-1.78-1.24-2.76-1.72l-.31-.16V50.91C2.21,52,3.89,53,5.43,54.1a54,54,0,0,0,5.39,3.31c1.68,1,3.4,1.84,5.08,2.78s3.44,1.62,5,2.7c.74.51,1.65.73,2.37,1.25,1.16.82,2.48,1.33,3.68,2.07,1.71,1.06,3.53,2,5.35,2.9,2.13,1,4.27,2.11,6.48,3,2.86,1.15,5.6,2.56,8.37,3.9s5.32,2.42,8,3.5c2.16.87,4.36,1.67,6.52,2.54,1.68.67,3.39,1.17,5.1,1.71,1.35.42,2.72.81,4.09,1.15,1.82.47,3.6,1.1,5.46,1.39,1.65.25,3.27.61,4.92.84a59,59,0,0,0,7.25.63l38,2.62c2.05,0,4.11.11,6.16-.08,1.57-.15,3.14-.35,4.7-.54,1.11-.14,2.21-.28,3.31-.47s1.9-.42,2.85-.6a31,31,0,0,0,4.85-1.31c2.18-.79,4.35-1.57,6.47-2.47,1.08-.46,2.21-.84,3.23-1.4,1.61-.9,3.27-1.74,4.89-2.63,2.29-1.25,4.29-2.87,6.43-4.3a69,69,0,0,0,8-6.79c2.06-1.88,4.08-3.82,6-5.9a63,63,0,0,0,6.53-8.64,54.82,54.82,0,0,0,3-4.92,45.75,45.75,0,0,0,3.1-9.55,49,49,0,0,0,1.13-5.62c.2-1.74.69-3.43.84-5.16.17-2.18.3-4.37.3-6.55,0-2.57-.11-5.13-.22-7.7a35.51,35.51,0,0,0-.79-6.64c-.31-1.36-.54-2.76-.82-4.14a24.57,24.57,0,0,0-.71-3.08c-.16-.46-.3-.92-.44-1.39H158.46A45.45,45.45,0,0,1,157.39,5.05Z"/>
    <path d="M217.69,225.58a37.82,37.82,0,0,1-3.18,2.16c-2.43,1.49-4.81,3.09-7.37,4.35a20.17,20.17,0,0,1-2.86,1.36c-2.36.74-4.65,1.72-7.07,2.28-1.13.25-2.21.68-3.32,1-2.13.58-4.29,1-6.46,1.5a35.21,35.21,0,0,1-4.63.77c-1.89.16-3.73.66-5.62.75a20,20,0,0,0-3.46.4c-.93.22-1.86.17-2.78.3-2.41.33-4.83.17-7.24.33-1.54.1-3.08,0-4.62.11,0,0-104.49-21.53-104.74-21.57a76.74,76.74,0,0,1-8.17-2.3c-1-.29-1.89-.84-2.86-1.13a53.24,53.24,0,0,1-6-2.52c-1.66-.73-3.19-1.73-4.79-2.59-2-1-3.83-2.27-5.7-3.46-2.43-1.55-4.89-3.07-7.31-4.63-1.31-.84-2.54-1.8-3.87-2.6-2-1.25-4-2.57-6-3.95-.94-.67-1.87-1.37-2.81-2l-3-2.11c-1.14-.82-2.32-1.59-3.39-2.49V211c.84.68,1.68,1.37,2.49,2.11a49.64,49.64,0,0,0,4.29,3.33c1.44,1,3,2,4.4,3s3.21,2.23,4.84,3.32c1.45,1,2.9,1.95,4.4,2.84,1.75,1,3.49,2.13,5.29,3.11,1.36.74,2.65,1.57,4,2.3,2.21,1.19,4.21,2.72,6.46,3.87,2.56,1.31,5.07,2.75,7.55,4.23a53.07,53.07,0,0,0,6.55,3.23c.87.37,1.7.86,2.54,1.3,1.07.54,2.24.84,3.32,1.37,1.65.79,3.32,1.54,5,2.23s3.19,1.59,4.85,2.23c1.91.74,83.79,27.28,83.79,27.28,2.57.89,5.22,1.51,7.86,2.14a36,36,0,0,0,4.39.77c1.33.15,2.66.26,4,.36,2.46.18,4.93.31,7.39.42,1.88.08,3.75-.14,5.63-.09a45.6,45.6,0,0,0,6.7-.36c.69-.08,1.39-.05,2.07-.17,1.57-.27,3.15-.4,4.71-.73,1.35-.29,2.73-.39,4.08-.77,1.66-.46,3.34-.8,5-1.22,2.35-.6,4.64-1.36,6.91-2.16a45.18,45.18,0,0,0,5.94-2.58c.65-.33,1.28-.69,1.93-1l.77-.37Z"/>
    <path d="M68.89,274.77c-1.62-.69-3.35-1.16-4.91-2-2.25-1.15-4.63-2-6.8-3.34-1.74-1-3.62-1.85-5.33-3-1.22-.81-2.55-1.47-3.84-2.17s-2.39-1.54-3.6-2.27c-2.88-1.75-5.74-3.54-8.55-5.4-1.49-1-3.08-1.83-4.5-3-1-.77-1.93-1.57-3-2.27-2.32-1.54-4.59-3.16-6.84-4.79a48.21,48.21,0,0,1-5.05-4.11c-1-1-2.26-1.79-3.36-2.72-1.46-1.23-2.83-2.58-4.34-3.75a65.5,65.5,0,0,1-5.4-4.85c-.95-.94-1.95-1.83-2.9-2.77v23.74l2.08,2c1.54,1.49,3.06,3,4.63,4.46s3,2.6,4.44,3.88,3.19,2.71,4.78,4.07,3.5,2.55,5.17,3.92c1.17,1,2.44,1.76,3.66,2.64,1.66,1.2,3.45,2.23,5.14,3.41,1.05.73,2.27,1.24,3.29,2s2.4,1.65,3.61,2.47c2,1.36,4.11,2.61,6.25,3.76,2.32,1.23,4.58,2.55,6.92,3.72,1,.47,1.87,1,2.78,1.52H86.09C79.07,283.62,69.67,275.11,68.89,274.77Z"/>
  </g>
  <path class="pants" d="M155.38,214.38l-91,.61c0,9.35,0,18.69,0,28,0,1.25.34,2.45.33,3.7a24,24,0,0,0,.13,2.54c.21,2.07.39,4.15.46,6.24.06,1.64,0,3.29.11,4.92s.22,3,.39,4.56c.11,1,.08,2.06.24,3.07.29,1.76.19,3.55.54,5.32.23,1.15.19,2.38.45,3.53a45.36,45.36,0,0,1,.57,4.63,82.34,82.34,0,0,0,1.55,8.55h81.51a25.9,25.9,0,0,0,.66-2.7c.3-1.46.55-2.94.86-4.38.45-2.05.78-4.11,1.15-6.17s.6-3.89.83-5.85.54-3.94.67-5.93c.18-2.83.49-5.65.67-8.48.14-2.25.17-4.51.24-6.77.1-3.06-.3-6.11-.31-9.17Z"/>
  <path class="pantsDisplayLine" d="M103.18,231.63a19.79,19.79,0,0,0,0,6.47,18.64,18.64,0,0,1,0,6,52,52,0,0,0-.93,6.47,18.6,18.6,0,0,0,.42,6,41.51,41.51,0,0,1,.88,4.55,6.73,6.73,0,0,1-.07,2,9.59,9.59,0,0,0,.4,3.77,19.55,19.55,0,0,0,1,2.25,5.12,5.12,0,0,0,1.42,2.22"/>
  <g class="pantsOverlapLine">
    <path d="M113.49,268.91c-.85,1-3.78,1.72-5.24,2.07a13,13,0,0,1-7.33-.12c-.58-.19-1.18-.36-1.76-.57"/>
    <path d="M106.17,271.33c-.16,1.51.38,4.71.45,6.74s0,4.11,0,6.16a37,37,0,0,0,.22,4.47,8.15,8.15,0,0,1-.07,1.39"/>
  </g>
  <g class="skinGallic">
    <path d="M89.76,114c0-3.24,0-10.73.33-11.08a5.68,5.68,0,0,0,1-2.55,19.78,19.78,0,0,0,.44-5.47A8.94,8.94,0,0,0,91,91.92c-.74-1.81-8-8.34-10.18-10.32L79.6,58.34c3.39-2.36,37.46-25.77,38-25.19,1.76,2,18.75,21.87,18.63,22.34-.58,2.29-3.83,13.35-3.85,13.48-.2,1.7.38,3.69.36,5.39,0,1.46.13,2.94,0,4.39a31.8,31.8,0,0,1-.77,4.85,27.66,27.66,0,0,1-2,5.56A28.81,28.81,0,0,1,125.28,96,18.21,18.21,0,0,1,122,98.66c-.14,5.22.11,10.26.08,15.44Z"/>
    <path d="M156.31,242.11a21.87,21.87,0,0,1-1.08,3.23,1.59,1.59,0,0,1-.31.46,13.77,13.77,0,0,1-2.22-.63,58.83,58.83,0,0,1-7.1-3.67,35.7,35.7,0,0,1-6.47-4.71,10.45,10.45,0,0,1-2.23-2.46s3-2.56,4.23-3.55Z"/>
    <path d="M78.61,233.92c.42.34.61,1.65.61,1.65a31.24,31.24,0,0,0-3.92,2.93,64.72,64.72,0,0,0-5.12,4.82c-1.16,1.34-2.55,2.48-3.83,3.71,0,0-1.47-1.19-2.17-1.91A39.27,39.27,0,0,1,61,241.63C68.89,233.86,78.06,233.48,78.61,233.92Z"/>
  </g>
  <path class="skinOverlapLine" d="M98.54,95.15a15.91,15.91,0,0,0,6.86,4.69,21.54,21.54,0,0,0,7.31,1.38,26.59,26.59,0,0,0,7-1.23"/>
  <path class="shirt" d="M142.69,106.15c-1.24-.68-2.35-1.57-3.56-2.28a32.44,32.44,0,0,0-5.7-2.48,61.31,61.31,0,0,0-6.94-1.89c-1-.24-2.11-.4-3.14-.66-.72-.18-1.31-.36-1.87.23a8.53,8.53,0,0,1-1.07.54c-.69.4-.69.4-.54.94a25.8,25.8,0,0,0,.42,4.63,3,3,0,0,1-.9,2.35,16.39,16.39,0,0,1-4.36,3.19,18.14,18.14,0,0,1-5.32,1.5,22.88,22.88,0,0,1-7,.07,17.62,17.62,0,0,1-4.92-1.36,12,12,0,0,1-4.25-2.83,9.48,9.48,0,0,1-2.32-5.32c-.11-.87.12-1.69.09-2.54l-.15.15a3,3,0,0,0-1.47.13,55.44,55.44,0,0,0-5.77,1.87c-1.84.71-3.71,1.36-5.54,2.1A21.66,21.66,0,0,0,75.05,106c-1,.59-4,2.88-4.93,3.54-1.2.85,2.89,112.54,3.15,112.91a14.6,14.6,0,0,0,3.46,3.1A23,23,0,0,0,82,228.41a28.67,28.67,0,0,0,6.32,1.81c2,.32,4,.75,6,1a71.46,71.46,0,0,0,7.86.48,7.28,7.28,0,0,1,1.31,0,18.68,18.68,0,0,0,2.24.23c1.13.11,2.26-.07,3.39-.07s2.2,0,3.31,0c3.85-.15,7.71-.05,11.55-.54,1.69-.22,3.4-.32,5.08-.62a51.84,51.84,0,0,0,5.78-1.56,17.44,17.44,0,0,0,5.1-2.51c1.3-.93,2.07-2.3,3.12-3.43C143.2,223,143.86,106.79,142.69,106.15Z"/>
  <path class="shirtCreaseLine" d="M76.3,219.05a34.84,34.84,0,0,0,7.24,3.31c1.58.54,3.19,1,4.83,1.44,1.36.34,2.74.53,4.1.87.55.13,3.68.38,4.61.65.54.15,4.09.31,5.31.5,1.57.24,5.83.26,6.4.27,2.77.07,5.54-.34,8.32-.24,1.59.06,3.18-.15,4.77-.17s2.93-.24,4.39-.33a24.09,24.09,0,0,0,4.78-.95,29.61,29.61,0,0,0,4.38-1.65,10.05,10.05,0,0,0,3.39-2"/>
  <path class="hairDarkBrown" d="M101.62,59c-.22.18.54.77.54.77.23.22.51.14.77.15A2.6,2.6,0,0,0,104.7,59a18.19,18.19,0,0,0,2.92-4.24,16.84,16.84,0,0,0,1.94-5.35c.43-.11.63,0,.62.51a16.71,16.71,0,0,1-.12,2.63,14.81,14.81,0,0,1-1.43,4.3c-.28.54-.15.79.46.85a1.25,1.25,0,0,0,.85-.24,7.09,7.09,0,0,0,1.94-1.6c.37-.45.76-.35,1,.22s.5.48.86.54c.56-.22.69-.9,1.23-1.21l.57.94a1.82,1.82,0,0,0,1.12-.89c.6-1.28,1.27-2.53,1.75-3.86A19.94,19.94,0,0,0,119.68,47a16.74,16.74,0,0,0,.15-4.47c-.06-.42-.37-.85-.11-1.31,0,0,1,.56,1.65,1A22.28,22.28,0,0,1,126,46.72a14.24,14.24,0,0,1,2.42,4.61,11.08,11.08,0,0,1,.53,4.08c0,.52-.38,1,0,1.54l0,.54a.49.49,0,0,0,.59.31,4.46,4.46,0,0,0,1.61-.85V57a1.31,1.31,0,0,0,1.85.54l-.08.23a9.28,9.28,0,0,1,.3,2.77,30.42,30.42,0,0,1-.68,6.86c0,.24-.33,1.15-.08,1.38a29.89,29.89,0,0,0,2.73-2.9c.5-.69,1-1.38,1.45-2.08a18.8,18.8,0,0,0,2.57-5.34,20,20,0,0,0,.65-5.93,14.42,14.42,0,0,0-1.73-6.3c-.93-1.85-2.49-3.36-3.14-5.4-.19-.61-.78-1-1-1.55a13.09,13.09,0,0,0-2.88-3.76A22.2,22.2,0,0,0,126,32.24a11,11,0,0,0-2.62-1.06,35,35,0,0,1-4.3-.8,2,2,0,0,1-.46-.08,33.37,33.37,0,0,0-4.86-1.43,11.1,11.1,0,0,0-4.7-.36c-1.11.2-2.27.09-3.38.28-1.5.25-3,.6-4.47,1a15.2,15.2,0,0,1-4.24.61,7.42,7.42,0,0,0-1.23.17,22.35,22.35,0,0,0-5.7,1.9,20.61,20.61,0,0,0-8.2,6.9,27.9,27.9,0,0,0-2.79,5.36,44.18,44.18,0,0,0-1.62,4.61,9.7,9.7,0,0,0-.39,2.39,43,43,0,0,0,0,4.54c.06.87.34,1.73.47,2.62.06.43.06.88.1,1.31.11,1.48.12,3,.18,4.47.07,1.66.26,3.34.2,5a40.47,40.47,0,0,1-.27,5.93,14.57,14.57,0,0,0,.12,4.47,11.92,11.92,0,0,0,1.41,4.16,10.9,10.9,0,0,0,1.95,2.51A16.77,16.77,0,0,0,85.39,90,45.23,45.23,0,0,0,90.23,92a2.82,2.82,0,0,0,.92,0A10.57,10.57,0,0,0,91,89.84a41.55,41.55,0,0,0-1.71-5.7c-.1-.26-.11-.56-.54-.63a5.05,5.05,0,0,1-4.67-4.38c-.2-.88-.38-1.75-.64-2.61-.48-1.58-1.38-5.16-1.38-5.16a7.47,7.47,0,0,1,1.68-5.47,14.46,14.46,0,0,1,2.65,3.69,25.45,25.45,0,0,1,.92,3.66c.43,0,.5-.29.67-.43.41-.35.67-.4.78.24,0,.14.2.26.3.39A5.55,5.55,0,0,0,90.59,72c.13-.24.21-.4.48-.37s.37.84.39,1c.07.65.58.93,1.06.52A3.53,3.53,0,0,0,94,71.36a9.41,9.41,0,0,1,.91-2.17A23.3,23.3,0,0,0,97.23,64c.33-1.31.81-2.58,1-3.92a1.22,1.22,0,0,1,1.14-1c.21,0,2.51-.64,3.16-1.46Z"/>
  <g class="hairOverlapLine">
    <path d="M119.65,41.24a19.45,19.45,0,0,0-4.09-2.61c-.22-.12-.46-.21-.69-.31"/>
    <path d="M81.91,62.81a6,6,0,0,0,1,2.07,7.14,7.14,0,0,0,.84,1"/>
  </g>
  <g class="hoodie">
    <path d="M75.82,225.16c.76-1.47.59-3.06.52-4.62s-.34-3.23-.36-4.85c0-.92-.3-1.81-.35-2.7s0-1.49-.11-2.23c-.15-2.08-.27-4.16-.39-6.24,0-.79,0-1.59-.08-2.39-.19-2.15-.38-4.31-.64-6.46-.06-.55-.07-1.09-.09-1.63,0-1-.13-1.95-.22-2.92-.28-2.79,0-5.61-.41-8.4-.17-1.37,0-2.77-.08-4.16s-.25-3-.18-4.54A85.78,85.78,0,0,0,73,164c-.12-1.8-.15-3.6-.24-5.39-.11-2.26-.21-4.52-.35-6.78-.07-1,.09-2.05,0-3.08-.37-3.12-.48-6.26-.64-9.4-.18-3.33-.48-6.66-.51-10,0-1.51,0-3,.07-4.54,0-.93.06-1.86.16-2.77.2-1.73.29-3.46.65-5.17.27-1.28.5-2.57.81-3.85a29.53,29.53,0,0,1,.81-2.93,11.36,11.36,0,0,1,2-3.55,13.15,13.15,0,0,1,1.64-1.36c.33-.29.65-.55.6-1s-.49-.42-.83-.56a5.19,5.19,0,0,0-4.93.57,8.4,8.4,0,0,0-1.94,1.13,3.76,3.76,0,0,0-1,1.94,3.55,3.55,0,0,1-2.23,2.62,8.69,8.69,0,0,0-3.38,2.86,28.78,28.78,0,0,0-3,4.69,24.89,24.89,0,0,0-2.14,5.77c-.46,2.06-.77,4.16-1.1,6.24-.3,1.9-.42,3.82-.84,5.7s-.81,3.58-1.07,5.39c-.22,1.63-.6,3.22-.84,4.84s-.35,3.16-.7,4.71c-.2.9-.14,1.85-.26,2.77-.18,1.44-.39,2.88-.61,4.31-.41,2.68-.71,5.38-1.38,8-.49,1.93-1.38,3.73-1.77,5.7a22.59,22.59,0,0,0-.35,5,25.5,25.5,0,0,1-.35,5.85,22.85,22.85,0,0,0-.3,5.09,22.67,22.67,0,0,0,.07,3.08c.2,1.17.1,2.36.25,3.55a31.65,31.65,0,0,1,.28,3.38c0,1.45.42,2.86.32,4.31a27.71,27.71,0,0,0,.46,7.16c.26,1.34.53,2.68.86,4s.54,2.94.86,4.4a17.83,17.83,0,0,1,.29,2.45c.15,1.7.18,3.39.24,5.09a16.28,16.28,0,0,0,1.35,5.24c1,2.44,2.32,4.67,3.34,7.08.74,1.72,2.66,6.37,3.16,6.77s1.45.08,2.14-.69a19.43,19.43,0,0,1,3.87-3.14,44.6,44.6,0,0,1,9.63-4.6c.64-.23,1.38-.31,2.06-.51a1,1,0,0,0,.61-1.6c-.31-.47-.51-1-.85-1.46a10.21,10.21,0,0,1-1.17-2.77A28.32,28.32,0,0,1,75.82,225.16Z"/>
    <path d="M137.05,102.86c.32-.64,1-.69,1.55-.91a6.57,6.57,0,0,1,4.07-.44,6.48,6.48,0,0,0,2.63,0,4.61,4.61,0,0,1,3.24.66,3.92,3.92,0,0,1,1.35,2,.7.7,0,0,0,.49.46,4.85,4.85,0,0,1,2.71,1.91c.5.69.76,1.53,1.31,2.16,1.21,1.39,2.44,2.75,3.53,4.24a35.81,35.81,0,0,1,2.88,3.8,53.4,53.4,0,0,1,2.83,6.37c.57,1.48.78,3,1.21,4.55s.94,3.23,1.36,4.86a24.11,24.11,0,0,0,1.65,4.61,3.25,3.25,0,0,0,.1.83c.75,1.35,1.18,2.85,2,4.18a48.65,48.65,0,0,1,4.82,12.4c.81,3,1.62,5.91,2.23,8.92.51,2.55,1.06,5.09,1.58,7.63.39,1.91.33,3.86.55,5.78a23.65,23.65,0,0,1-.15,4.69c-.12,1.59-.4,3.19-.56,4.78a66.89,66.89,0,0,1-.92,6.63,53.92,53.92,0,0,1-2.35,7.64,18.27,18.27,0,0,0-1.39,5.14,25.24,25.24,0,0,1-.74,4c-.15.76-.22,1.54-.35,2.31-.28,1.66-.64,3.29-1,4.93a39.52,39.52,0,0,1-1.8,5.62,19.73,19.73,0,0,1-1.31,2.84,18,18,0,0,0-2.23,6.48,13.29,13.29,0,0,1-2.32,5.53,28.22,28.22,0,0,0-1.58,2.49c-.85,1.62-2.3,2.62-3.61,3.79s-2.3.63-3.32,0a42.55,42.55,0,0,1-5.8-3.89c-1.54-1.28-3.06-2.57-4.48-4-1.23-1.25-3.56-4-3.6-4.1-.79-1.16-.79-1.16.15-2.23.24-.28.63-.62.62-1.08a9.85,9.85,0,0,1-1.92-.7,2.54,2.54,0,0,1-1.46-2.15c-.06-1.23-.06-2.46-.09-3.69s0-2.68-.09-4a51.19,51.19,0,0,1,0-5.54,19,19,0,0,0,.13-3,59.43,59.43,0,0,1,.07-6.54c0-3,0-6,.07-9,0-1.43.15-2.87.18-4.31a32.86,32.86,0,0,1,.38-3.93c.28-2,.36-4.11.61-6.16s.31-3.85.39-5.77a10,10,0,0,0,.17-1.62,20.06,20.06,0,0,1,0-3c.15-2.83.23-5.65.34-8.48.06-1.43,0-2.88.17-4.31.31-3,.38-6.11.51-9.17.09-2,0-4.05,0-6.08s0-3.9,0-5.85c0-1.34-.16-2.67-.13-4,0-1.08.08-2.17,0-3.23-.13-2.06-.14-4.11-.18-6.16q-.09-3.83-.08-7.63a29.78,29.78,0,0,0-.55-6.39,6.86,6.86,0,0,0-1.45-3.17A10.27,10.27,0,0,0,137.05,102.86Z"/>
  </g>
  <g class="hoodieOverlapLine">
    <path d="M154.77,224.85a18.22,18.22,0,0,0,6-3.23,10.69,10.69,0,0,0,2.68-3.55c.76-1.75.47-3.58.24-5.39-.18-1.41-.43-2.82-.61-4.23a10.75,10.75,0,0,0-.19-2.15,30,30,0,0,1-.58-3.86c-.19-.91-.14-1.87-.29-2.76-.21-1.26-.15-2.53-.38-3.79s-.19-2.67-.32-4c-.27-2.82-.44-5.65-.63-8.47-.14-2.08-.24-4.16-.39-6.24-.1-1.26-.31-2.51-.36-3.78a13.09,13.09,0,0,1-.17-1.77,33.56,33.56,0,0,0-.37-4.69,19.94,19.94,0,0,0-.41-3.24,15.29,15.29,0,0,1-.24-2.62c0-.36-.2-.71-.21-1.08-.05-1.94-.45-3.85-.67-5.77a46.93,46.93,0,0,1-.31-5.55c0-1.52-.22-3-.22-4.54s-.33-3.12-.4-4.7c0-.74,0-1.49-.07-2.23s-.21-1.54-.19-2.31a57.33,57.33,0,0,0-.3-6.55q-.42-4.3-.77-8.63c-.17-2.12-.56-4.21-.86-6.31-.15-1-.38-2-.53-3.08a20.66,20.66,0,0,0-1-3.62"/>
    <path d="M62,115.18A27.1,27.1,0,0,0,60.86,123c-.08,1.65-.25,3.29-.39,4.93s-.15,3-.29,4.55c-.24,2.69,0,5.39-.14,8.09-.23,3.28-.4,6.57-.63,9.85s-.51,6.83-.76,10.25c-.07,1.08,0,2.16-.22,3.23,0,.23-.17,1.3-.17,1.62,0,3.47.26,6.93.52,10.4a34.4,34.4,0,0,1-.17,5.55c-.09.95,0,1.94,0,2.92-.11,2.18-.09,4.38-.34,6.54a43.25,43.25,0,0,0-.25,6.63c.07,2,.22,4.1.2,6.16a31.58,31.58,0,0,1-.12,4.77c-.28,1.82-.26,3.67-.66,5.49a4.53,4.53,0,0,0-.16,2.69,3,3,0,0,1-.06,1.22A7.28,7.28,0,0,0,59,223.16,6.16,6.16,0,0,0,62,225.39a5.91,5.91,0,0,0,3.23.08"/>
    <path d="M75.75,225.32c-3,2.71-6.51,3.26-10.32,2.92"/>
    <path d="M142.44,228.55a24.88,24.88,0,0,1,3.7.79,37.48,37.48,0,0,1,4.7,1.45c.28.09.88.21,1,.53"/>
  </g>
  <g class="hoodieDisplayLine">
    <path d="M157.54,223.77a9.86,9.86,0,0,0,2.17,1.52,36.79,36.79,0,0,1,3.3,2.65,12.72,12.72,0,0,1,3.08,3.61"/>
    <path d="M58,221.77a22.14,22.14,0,0,0-4.7,3.16l-.53.54"/>
  </g>
  <path class="hoodieFoldLine" d="M168.78,173.56a25.38,25.38,0,0,0-3.39.92,16.93,16.93,0,0,0-5,2.24"/>
  <g class="zipperDisplayLine">
    <path d="M69.74,105.94A17.87,17.87,0,0,1,68,110.1c-.47.93-1.29,1.56-1.79,2.46a7.4,7.4,0,0,0-.89,6.25,8,8,0,0,1,.68,3.07,9.27,9.27,0,0,1-1.08,3.74,10.32,10.32,0,0,0-1.39,5,5.53,5.53,0,0,0,.24,1.77,12.84,12.84,0,0,1,.49,6.47,14,14,0,0,1-.78,3.07,9.13,9.13,0,0,0-.32,4.17,20.1,20.1,0,0,0,.77,4.62,26.49,26.49,0,0,1,.72,3.94,13.32,13.32,0,0,1-.28,3.38,17.92,17.92,0,0,1-.87,3.31,7.14,7.14,0,0,0,.25,5,14.7,14.7,0,0,1,1.2,4.85,14.19,14.19,0,0,1-.73,5.16,30.61,30.61,0,0,0-1.47,5.32,12.13,12.13,0,0,0-.31,2.69,8.08,8.08,0,0,0,1.23,3.47A12,12,0,0,1,65,192.58a13.71,13.71,0,0,1-1.35,6.54,6.89,6.89,0,0,0,0,5.4A20.47,20.47,0,0,1,65,209.84a20,20,0,0,1-.52,6.31,9.64,9.64,0,0,0-.4,3.7c.12.64.23,1.29.39,1.92a17.9,17.9,0,0,1,.65,2.62c.11,1.28.54,2.56.11,3.85"/>
    <path d="M152,231.32c.11-.15.21-.31.31-.46a13,13,0,0,0,1.15-13.63,10,10,0,0,1-1.32-4.55,7.69,7.69,0,0,1,.15-.92,25,25,0,0,0,.73-4.47,14.5,14.5,0,0,0-.88-5.07,47.43,47.43,0,0,1-1.53-4.78,8.66,8.66,0,0,1,.16-4.94,39.3,39.3,0,0,0,1.48-4.15c.15-.64.06-1.3.23-1.93a10.9,10.9,0,0,0-.16-4.76c-.3-1.72-.95-3.39-1.42-5.09a10.94,10.94,0,0,1,.16-5.85c.43-1.65,1-3.27,1.49-4.94a6.64,6.64,0,0,0,.27-2.92,32.88,32.88,0,0,0-1.06-4c-.41-1.35-.9-2.68-1.38-4a12.76,12.76,0,0,1-.59-2.78,9.06,9.06,0,0,1,.36-4.7,11.2,11.2,0,0,0,.84-3.31,20.47,20.47,0,0,0-.67-7.78,16,16,0,0,1-.69-6.93c.23-1.68.57-3.34.92-5a12.48,12.48,0,0,0-.33-5.7c-.38-1.46-1.06-2.82-1.42-4.31a6.65,6.65,0,0,1,0-2.08,10.84,10.84,0,0,1,.88-3.08c.91-2.19,1.46-2.57.53-4.63"/>
  </g>
</svg>
