<svg class="progressChartEarly" 
    xmlns="http://www.w3.org/2000/svg" viewBox="0 0 1412 1882">
    <title>progress chart early</title>
    <rect class="frame" x="1" y="1" width="1410" height="1880"/>
    <path class="sheetTopRight" d="M992.5,1261.5c1.29,9.13.37,18.37,1.14,27.49,1.08,12.66,1.49,25.34,1.75,38,.55,25.66,1.49,51.32,1.15,77-.22,17.33.21,34.67-.1,52-.4,21.84-1,43.68-2.09,65.49-.42,8.18-.78,16.33-.87,24.51,0,3.25-2.08,6.41-.25,10.07a26.36,26.36,0,0,1,8.27-.55c12.52.41,25-1,37.49-1.33,7.48-.21,15-.22,22.51-.71,37.14-2.43,74.32-2,111.5-2,24.67,0,49.36-.68,74,.25,15.52.59,31-.17,46.49,1,8.2.6,16.43-.13,24.5.94s16.44-.12,24.49,1,16,.6,24,.72c2.87,0,5.55,2.41,8.61.61,1.29-4.73-.41-9.34-.59-14q-1.56-41-3-82c-.22-6.49,0-13,0-19.5,0-20.5-1.5-41-1-61.5.42-17.83.29-35.69,1.15-53.49.61-12.5,1-25.07,2.19-37.48.9-9-1.08-18.13,2.5-27.94-6,1-10.69-.65-15.35,1.35-1,.42-2.31.1-3.47,0-16.69-.7-33.39.33-50,1.3-26.68,1.56-53.36,1.06-80,1.87-27.5.83-55,.86-82.5.79-23-.07-46-.25-69-1.07-18.5-.66-37-1-55.48-2.18-8.48-.54-17.17.77-25.51-1.73-1.23-.36-2.34,1.43-3.51,0Z"/>
    <path class="sheetTopLeft" d="M965.5,1541.5c-4.19-4-1.91-9.43-2.66-14.06-1.38-8.47-.41-17.27-.73-25.94q-1-28.49-1.05-57c0-36.33.27-72.67.44-109,0-.5,0-1,0-1.5,1.3-20.81,1.45-41.66,2-62.5l-1,1c-16,1.18-32,1.67-48,2.85-10.94.8-22,.09-33,.17-10.67.08-21.35.76-32,.37-14.5-.53-29,.22-43.49-.56-8-.43-16.14.12-24-1.09-7.54-1.18-15.09.32-22.59-1.54-3.63-.9-3.38,3.17-2.84,5.27,1.64,6.33.27,12.72.94,19,1.14,10.66.18,21.4,1.18,32,.78,8.21.42,16.35.76,24.52,1.29,30.16,1,60.33,1,90.5,0,16.51-.84,33-1.22,49.49-.35,15-2.07,30-2,45,0,1.69,1.76,2,2.71,1.88,18.11-2.07,36.32-2.41,54.51-2.89,15.5-.41,31-1.16,46.5-.9,18.16.3,36.34.58,54.5,1,12.83.31,25.62,2,38.5,1.93,3.15,0,6.25,1.87,9.5.43Z"/>
    <g class="blank">
        <rect x="766" y="768" width="564" height="425"/>
        <rect x="84" y="1378" width="564" height="425"/>
        <rect x="87" y="769" width="564" height="423"/>
        <rect x="766" y="157" width="564" height="423"/>
        <rect x="85" y="158" width="564" height="423"/>
    </g>
    <path class="progress" d="M174.5,225.5c3.46.7,225.33,3.29,245,3,.83,0,1.82-.44,2.82.89C422.9,248.49,424,268,423.38,288H454.5c4,0,8,.14,12,0,3.7-.17,5.15,1.07,5.09,5-.23,13.33-.09,26.67-.09,40.5H379.75v44.76c1,1.06,2.68.73,4.25.74l124.5.5c2.84,0,5.7-.21,9,.79v44c15.81.84,31.25-.89,46.75,1.39v43.78c-4.92,2-10.08,0-15.25,0-10.83.06-21.67.15-32.5,0-13.17-.2-26.33-.63-39.5-1-3.12-.09-5.5.24-5.06,4.51,1.26,12.13.49,24.33.45,36.49,0,4.08,1.12,5.32,5.11,5.06,13.54-.87,27,1.65,40.49.85,2.15,21.56,1.37,42.58,1.53,64.25-12.19-.92-338.28-3.29-349-1.16Z"/>
    <g class="columnHeader">
        <path d="M1330.5,163.5v72c-9.83,0-19.19-.47-28.49.1-18.5,1.14-37,.09-55.5,1.13-15.19.85-30.38-.15-45.5.9-20.68,1.43-41.38-.11-62,1-22.68,1.25-45.35.22-68,.88-73.49,2.13-147,.91-220.5.67q-39.48-.14-79-.72a13,13,0,0,1-2-.44V167.5Z"/>
        <path d="M85.5,160.5v73.16c6-.75,11.49.71,17,.8,26.17.43,52.37,0,78.49,1.24,26.35,1.28,52.68.4,79,.75,29.17.4,58.35.53,87.49,1.3,51.18,1.34,102.34.23,153.51.73,46.67.45,93.33,1.55,140,1,1.68,0,5.5-46.83,5.5-70Z"/>
        <path d="M88.5,1385.5c.61,24.16,1.55,48.32.86,72.78,5.61.55,10.72.83,15.65,1,9.18.23,18.3,1.65,27.49,1.26,17.19-.74,34.37.44,51.49,1.25,26.35,1.25,52.68.65,79,.64,38.34,0,76.66,1.77,115,1.12,26.67-.45,53.34-.69,80-1.29,17.51-.4,35.05.22,52.5-.88,16.85-1.08,33.71,0,50.5-1,13.52-.84,27.09.23,40.49-1.07,12.51-1.22,25.17.77,37.67-2.3,2.18-14.06,3-61.09,2.35-70.46Z"/>
        <path d="M773,771.5c.17,1.33,1.84,49,1.51,71.5,0,.68-.34,1.5.49,2,1.41.94,3,.39,4.5.43,32.33.69,64.7.74,97,2.24,20.69,1,41.34.49,62,.72,23.66.26,47.35-.49,71,.16,67.83,1.89,135.67,1,203.5.61,35.49-.22,71-.3,106.3-.79,1.27-2.32,3.16-66.4,3.2-71.92Z"/>
        <path d="M90.5,773.5c1.18,2.21,1,4.62,1,7v65c2.16,0,3.83,0,5.5,0,32.17.67,64.33,1.53,96.5,1.94,25.33.31,50.69-.57,76,.19,51.17,1.54,102.33.77,153.5.77,43.83,0,87.67-.52,131.5-1.2,26.33-.41,52.67-.24,79-.72.84,0,1.82.44,3-1.11-.47-14,1.84-28.67,1-43.37-.54-9.21,1.58-18.3,1-27.5Z"/>
    </g>
    <g class="rowHeaderEven">
        <path d="M78.5,1193.5c1.17-.33,2.35-1,3.5-1,11.87.67,23.67-.74,35.49-1.21,16.68-.66,33.37-.19,50-1.08,9.16-.49,18.37-.35,27.86-.87,2.28-139.06,1.23-277.73-.86-416.14-.82-.42-1.16-.74-1.49-.73-17,.42-34-1.19-51-1.17-18,0-36-1.19-54-1.84-2.21-.08-4.21-1.5-6.5-1Z"/>
        <path d="M748.5,1195c4.5-.17,108.68-3.33,115.77-3.55.44-15.11,1-29.77,1.37-44.45,1.6-63.16.54-126.33.84-189.5.13-28.67.84-57.36-.22-86-1-27-.19-54-.82-81-.12-5.16-1.47-10.3-.87-15.49.19-1.59-105.9-5.25-112.07-5.51Z"/>
        <path d="M84,157.49c21.68.22,109.5,3,109.5,10.51,0,26-.77,52,.2,78,1.17,31.52.6,63,.75,94.51.24,51.67-1,103.33-1.28,155-.08,18.48.32,37-.89,55.49-.54,8.33-.32,16.7-1,25.3-5.79.41-11.31,1.27-16.81,1.12-16.36-.41-32.68.82-49,1.41-12.18.44-24.35.13-36.51.72-4.5.22-8.94,1.46-13.5,1C75.5,580.5,82.16,157.47,84,157.49Z"/>
        <path d="M74.5,1805c7.33-.33,112-5.41,115.48-5.52,1.55-12.27,1.35-24.12,1.58-36,1.26-64.66.9-129.33.93-194q0-91.5.09-183c0-4.77-2.65-5-6.08-5-20,0-40,.54-60-.16-15.68-.55-31.34-.78-47-.83Z"/>
        <path d="M749.5,581.5c17.86,0,114.09-4.93,114.11-9,.13-20.83.32-41.7,1.16-62.49,1.07-26.35-.07-52.69.78-79,2-60.66,1.07-121.34.67-182-.18-27.49-.32-55-.8-82.29-2.32-1.28-99.23-2.73-111.92-2.21Z"/>
    </g>
    <g class="rowHeaderOdd">
        <path d="M755.5,893.5H866.25c0-14.82-.25-29.5-1-46.61-.73-.16-51.4-1.58-76.25-1.57-9.81,0-32.9-1.12-34.5-.32Z"/>
        <path d="M84.5,894.5c36.84-.56,74.66.74,111.67,1.17C196,859,196,873,195.54,847.14c-11.54-1.14-19.85.36-29,.36-18,0-36-1-54-1.29-9.3-.16-18.67-.41-28-.71Z"/>
        <path d="M83.5,1506.5c31.31,1.68,62.65,2.12,94,2.12,4.81,0,9.63,1.28,14.75.66v-47.16c-.58-.29-.92-.61-1.25-.6-16.35.61-32.68-.73-49-1.31-14.85-.52-29.69-.17-44.51-.82-4.65-.21-9.3-1.07-14-.89Z"/>
        <path d="M759,1084.46c21.68.76,43.33-.85,65-1.24,12.66-.23,25.34-.51,38-.67,2.65,0,4.54-.9,4.55-3.55.06-12.67.32-25.33.43-38,0-5.44-1.5-6-7-5.46a238.49,238.49,0,0,1-30,.92c-23.35-.62-46.65,1.58-70,1.06C759.17,1037.51,757.33,1084.4,759,1084.46Z"/>
        <path d="M87,472.52c6,0,12,0,18,0q43.76-.47,87.5-1c.51,0,0-.22,1-.44V425.5c-33.83,0-66.67,0-100.5,0C91.16,425.51,85.5,472.54,87,472.52Z"/>
        <path d="M85.5,1084.51c.67,0,51-1.08,75.5-1.23,11.3-.06,23.67-.71,35.5-.79v-45.15c-35.67-2.48-72.33.53-108,.16C88.5,1037.5,84.21,1084.56,85.5,1084.51Z"/>
        <path d="M82.5,1696.52c31-.06,62-1.61,93-1.08,5.51.09,11-.66,16.75-1v-44.9H85.5S81.5,1696.52,82.5,1696.52Z"/>
        <path d="M767,476c36.85.63,61.15-2.49,98.25-1.31V429.32c-.93-1.24-1.92-.8-2.75-.8-33.67,0-61.83.45-95.5.48C765.67,429,767,476,767,476Z"/>
        <path d="M94.5,990.5c33.65,1.75,67.33.67,101,1.06A28.66,28.66,0,0,0,196,988q.3-19,.51-38c0-5.58-.91-6.49-6.49-6.5H88.5Z"/>
        <path d="M777.5,382.46c16.17.1,32.33,0,48.5,0h40.5v-32c0-3.5,0-7,0-10.5,0-5.47-1-5.49-6.5-5.5-33.83,0-54.17.5-88,.5C772,335,772.82,382.43,777.5,382.46Z"/>
        <path d="M765.5,990.5q41.5,0,83,0c4.67,0,9.33-.39,14-.45,3.14,0,4.12-1.35,4.08-4.53-.19-12.5-.07-25-.08-37.5,0-5.47,0-5.49-5.5-5.5H759.5Z"/>
        <path d="M90.5,1603.5c33.83.9,67.67-1.35,101.5,1,.92-1.23.47-2.21.48-3,.2-13,.28-26,.57-39,.09-4.06-1.5-5.56-5.55-5.56-13,0-26-.63-39-.36-20.69.43-41.32-1.65-62-1.08Z"/>
        <path d="M95.5,379.5h99V347c0-3.5-.22-7,.06-10.5.3-3.9-.17-5.11-4.06-5.08-19.33.17-38.67.35-58,0-14.33-.27-28.65-1.25-43-.91Z"/>
        <path d="M755.5,239.5c36.18-.5,74.35.06,110.75,1.3v47c-36.42-1.13-74.58-1.58-110.75-1.29Z"/>
        <path d="M80.5,565.5c11.67,0,23.36.48,35-.11,19.51-1,39-.55,58.5-1.08,5.31-.14,10.66-.84,16-.77,1.6,0,2.59-.22,2.5-2,0-.33,0-.67,0-1-.2-13,.05-26,1-39,.06-.82.45-1.82-.74-2.72-37.24-1.36-74.73.9-112.23.72Z"/>
        <path d="M85,231.5c.5,2.33,39.66,3,57.5,3.14,17.17.13,33.34,1.39,51.12,2.18-.8,15.52.73,30.83.95,46-2.46,1.72-60.23-.53-87.57-.5-7.12,0-14.32-.78-21.5-.8Z"/>
        <path d="M95,1176.62c18.86-.22,37.67.59,56.51.1,14-.37,28-.55,42-.22l2-2c-.44-15.17-.53-30.33.19-46-8.18,0-15.72-.41-23.18.17-3.82.3-7.65.93-11.51.81-20.68-.66-41.32,1.26-62,1.25C93.23,1130.72,90.53,1176.67,95,1176.62Z"/>
        <path d="M751.5,1177.5c11.8-1.24,23.69.36,35.51-.87,10.1-1.05,20.32-.39,30.5-.84,15.3-.68,30.66.29,46-.29l1-1c.1-15.21,1.5-27.5,1.24-46.11-9.41.37-18.1-.56-26.73.67-5.68.8-11.35.35-17,.4-17.17.15-34.32,1.24-51.5,1.29C764.23,1130.76,751.5,1177.5,751.5,1177.5Z"/>
        <path d="M79.5,1787.5c7.35.06,14.67-.34,22-.89,12-.88,24-.38,36-.79,16.48-.57,33-1.63,49.49-1.29,1.52,0,3.31-.75,4.5,1l-.5-1c1-14.49,2.08-29,1.29-44.06-13.29.29-26.3-.47-39.28.69a29.47,29.47,0,0,1-3,.34c-23.85-.48-47.65,1.77-71.5,1Z"/>
        <path d="M772,566c24.52.65,40-.7,64.5-.56,8.33.06,26.47-.54,27,.06l-.5-1c2.16-14.79,1.37-29.65,1.5-45-5.34.38-28.67,1.2-35.5,1-25.85-.68-35.16,1.79-61,1.53C768,522,768.51,565.91,772,566Z"/>
    </g>
    <g class="chart">
        <path d="M1364.5,1223c-15.47-1.54-31,.24-46.52-1.33-12.74-1.28-25.63.19-38.5-1-13.25-1.22-26.63-.22-40-1-23.62-1.3-47.31-.07-71-1-34.8-1.39-69.65.28-104.5-1-22.45-.81-45-.22-67.5.53-42.14,1.4-84.33-.92-126.49,1.19-15.49.78-31,.27-46.51.71-21.64.61-43.31,2-65,1.33a13.22,13.22,0,0,0-4,0c-6.82,2.1-13.69.33-20.38,1-1.7-3.32.4-5.85.45-8.55.21-11.67-.51-23.32.75-35,1.21-11.25-.1-22.62,1-34,1.22-13.08.54-26.31,1-39.49,1.22-37.47,0-75,.94-112.5.82-32.29.26-64.65-.43-97-1.08-51-.4-102-2-153-.75-23.3-2-46.64-1.23-70,.11-3.35-2.14-6.58-.49-10.06,1-1,2.33-.4,3.49-.41,18.19-.08,36.35.76,54.5,1.9,10.15.65,20.33-.22,30.52.93,9.25,1,18.63.26,28,.9,14.11,1,28.31.64,42.48,1.09,31.49,1,63,.4,94.5.83,47.15.63,94.33,1,141.51-.49,33.63-1.05,67.33.19,101-1.2,10.16-.42,20.31.35,30.52-.78,10.4-1.16,21-.71,31.49-.94,17-.36,34-2,51-1.27a4.63,4.63,0,0,0,1.49,0c6.51-2,13-.75,20.14-.26-.5,8.12-.06,15.9-1,23.8-1.18,10.58.25,21.3-1,32-1.2,10.24-.11,20.62-1,31-1.26,15.43-.21,31-1,46.49-1.33,26.29-.61,52.66-.89,79-.53,50.16-1.36,100.34.58,150.5,1.07,27.65-1,55.35,1,83,.66,8.81.58,17.7.75,26.51.32,16.33,1.88,32.64,1.31,49a17.16,17.16,0,0,0,0,4c2.28,11.27,0,22.72,1.46,34M783,1177c7-1.12,14-.28,21-.49,44.49-1.29,89-.12,133.49-1.25,47.85-1.21,95.69-1.15,143.51-.47,44.84.64,89.68-.14,134.49,1,13.34.32,26.74-.3,40,.92,13,1.19,26,0,39,1,6.85.51,13.67.63,20.51.92,3.66.16,4.54-1.68,3.87-4.54a14.58,14.58,0,0,1-.34-3c-.37-16.83-.38-33.68-1.08-50.5-3.82-91.65-1.5-183.33-1.65-275,0-19.3.28-38.67.67-58,0-1.49.52-3.09-.73-5.09-6.24.37-12.76-.55-19.23.66a26.62,26.62,0,0,1-5,.42c-13.83,0-27.7-.61-41.49.13-33,1.79-66-.07-99,1-59.83,1.87-119.68,1.19-179.5.59-35.83-.35-71.69.37-107.49-.93-17.35-.63-34.72.31-52-1-9.4-.71-18.69-.18-28.52-.94V788c0,28.33-.73,56.69.16,85,1.63,51.68,1.11,103.35.53,155-.35,30.66.39,61.36-.94,92-.69,16.19-.37,32.34-.64,48.51-.05,2.82-2.78,5.67-.11,8.5"/>
        <path d="M782,566c.17-.17.48-.33.48-.5.39-26.67-.3-53.33.83-80,.92-21.46.38-43,.15-64.49-.47-44.83.59-89.66-.74-134.51-1.08-36-.23-72-.21-108,0-4.35,1.29-5.49,5.49-5,2.34.28,4.66.89,7,1,16.83.43,33.67.35,50.51.75,22.64.53,45.31.9,68,.46,56.16-1.09,112.34,1,168.5-1.12,15.16-.56,30.33-.05,45.51-.87,17.46-.94,35,0,52.5-1.07,15.13-1,30.31-.06,45.5-.9,26-1.43,52-1.58,78-2.17,4.17-.1,8.27-1.86,12.31-.8,1.21,1.3.68,2.61.65,3.76-.28,10.67,0,21.32-.75,32-1.2,16.44.07,33-1,49.49-1.26,18.95-.69,38-.86,57-.39,43.49-1,87,.48,130.51,1,29.14.13,58.35,2.09,87.5.68,10.12-.1,20.33.21,30.49.13,4.09-1.12,5.13-5.1,5.08-32.5-.45-65,.28-97.5-.5-28-.67-56-.15-84-.39-28.16-.24-56.33-.12-84.51.54-62.47,1.45-125-.7-187.49,1.15-24.82.73-49.67.12-74.5.12M1349,50.5c-1.67.33-3.35,1-5,.94-11-.59-22,.67-33,1.27-16.33.89-32.74.79-49,2.78a4.78,4.78,0,0,1-1,0c-11-.74-22,.85-33,1.14-32.16.84-64.33,1.31-96.49,2.13-15.34.39-30.68.28-46,.74-74.83,2.22-149.67.76-224.5.78-24.65,0-49.32-1.44-74-2-13.15-.28-26.31-1.66-39.5-1.86-3-.05-6-.64-9-1s-4.24,1-4,4c.38,5.16,1,10.33,1,15.5.08,33.67-.42,67.34.12,101,1.84,115,.67,230,.66,345,0,15.13.34,30.39-1,45.48-1.18,13.88-.24,27.69-.77,41.52,0,.68-.35,1.5,1.33,2.5.81,0,2.48,0,4.15,0,29.51.64,59-.51,88.49-1.27,49.85-1.29,99.68-.31,149.51-.66,32.17-.22,64.35-2.37,96.49-.9,30.52,1.4,61,0,91.51.94,12.84.38,25.67.08,38.5.4,31.33.8,62.69-.32,94,.74,20.19.68,40.35.31,60.51.75,1.68,0,3.37,0,6,0-2.59-7.94-.7-15.54-2-23a10.68,10.68,0,0,1-.47-2.5c.69-9.21-1.06-18.31-1.15-27.5-.11-12.33-.35-24.7-1.07-37-1.62-27.5-1-55-2-82.5-1.41-39.68-.86-79.35-.54-119,.14-17.48-.25-35.05,1-52.48,1-15-.25-30.07.92-45,1.28-16.35-.15-32.73,1.09-49,.81-10.71-.23-21.42.93-32,1.09-9.87-.13-19.76,1-29.5s-.18-19.43,1-29c1.07-8.71.48-17.35.8-26,.06-1.59.32-3.23-.63-4.78-4.64-1.08-9.51-.64-14.35-.72"/>
        <path d="M53.5,50.5c15.83,1.33,31.65,2.9,47.5,4,23.49,1.55,47,2.17,70.51,4,16.29,1.24,32.67,1.53,49,1.9,29,.67,58,2,87,2.06,44,0,88,.42,132-.64,43.48-1.06,87-.15,130.5-2.09,16.82-.75,33.67-1.32,50.5-1.92,14.65-.53,29.3-1.92,44-1.27A12.84,12.84,0,0,0,669,56.1c4.24-1.28,8.64-.35,12.87-.68,1.7,4.16-.33,7.57-.42,11.08-.51,18,.4,36-.77,54-1.39,21.28-.38,42.65-1,64-1.29,47.81.79,95.67-1.27,143.49-.34,8,.87,16,1,24,.69,50.5-1.17,101,1,151.5.78,18.15-.85,36.34.92,54.51.73,7.6.12,15.32.12,23,0,7.33.12,14.67-.06,22-.07,2.68,2.73,5.33-.08,8.14-1.81-.86-3.85-.59-5.86-.64-22.83-.59-45.66.64-68.51-.83-21.11-1.35-42.31-.13-63.5-.93-39-1.46-78-.64-117-.89-79.66-.52-159.33-1.14-239,.42-36,.7-72,1.26-108,1.15-7.87,0-15.65,1.17-23.5,1.07-4.13,0-5.39-1.52-4.44-5.47.32-1.34,1-2.54,1-4-.13-11.87,1-23.68,1.87-35.51.72-9.63-.14-19.32,1-29,1-8.92,0-18,.94-27,1.08-10.58.61-21.32,1-32,1.12-31.14.11-62.32.91-93.5.79-30.63,1.21-61.33-.58-92-1.06-18.12-.26-36.32-.86-54.5-1-29.81.15-59.69-2.21-89.49-.67-8.48-.54-17-.75-25.51-.36-14.66-1.89-29.3-1.33-44A29.14,29.14,0,0,0,52,73c-1.08-7.15-.19-14.34-.41-21.5,0-.32.93-.67,1.43-1m51,119c-2.17.45-1.48,2.19-1.48,3.5,0,18.67-.83,37.38.2,56,1.07,19.19-.09,38.37.86,57.51,2,39,1.19,78,.63,117-.39,27.16.16,54.35-.95,81.49-.47,11.68.18,23.4-.94,35-.92,9.54-.12,19-1,28.51a147.27,147.27,0,0,0-.77,16.06c12.93-.32,25.44.58,37.92-.64,1.84-.18,188.18-1.06,279.51-.11,40.5.41,81-.53,121.49.94,26.86,1,53.68.2,80.51.72,3.88.07,7.57,1.47,11.5,1.08,3.21-.31,5.1-1.34,5-5-.14-10.5.45-21-.14-31.49-2-35.67.07-71.36-1-107-1.61-54-1.26-108-.62-162,.32-27.33.24-54.67.7-82,0-1.68,0-3.37,0-5-7.83,0-15.19-.39-22.49.09-9.85.65-19.69-.08-29.51.46-23.16,1.27-46.35.33-69.5,1.08-34.33,1.11-68.67.65-103,.88-16.5.11-33,.78-49.5.36s-33,.52-49.49-.56c-16.84-1.1-33.7,0-50.51-1.31-13.32-1-26.69.11-40-.58-21.66-1.14-43.36-1.11-65-2.76-9-.68-18-.89-27-1-8.37-.09-16.65-1.27-25-1.16"/>
        <path d="M102.5,783a30,30,0,0,0,3.5.48c19.5.59,39,.48,58.5.68,40,.4,80,1.58,120,1.4,51.83-.24,103.67-.35,155.5,0,52.18.38,104.33-1,156.5-1.32,11.13-.07,22.33-.47,33.5-.8,2-.06,3.15.37,3,2.54-1.61,21.81-.21,43.66-1.22,65.51-1.36,29.45-.26,59-.95,88.5-.36,15.26.52,30.65.7,46,.18,15.17.39,30.34.74,45.51.79,34.16,0,68.34,2.09,102.5.67,11,1.88,22,1.17,33a8.12,8.12,0,0,0,.39,2c1.8,9.23,1.36,9.72-7.91,9.48-17.16-.45-34.32.2-51.51-.79-21.28-1.22-42.67-.78-64-.93-51.33-.35-102.67-1.18-154-1.2-50.33,0-100.67-.68-151,.79-25.15.74-50.33.13-75.5.13-1.33,0-22.67.3-32.62,1.13.39-8.14.46-15.6.92-23.14,1.09-17.79.12-35.64,1-53.5,1.32-27.62.6-55.33.9-83,.53-49.16,1.14-98.33-.51-147.51-.93-27.8-.18-55.66-.15-83.49a24.73,24.73,0,0,1,.48-3.5m-50-121A1.7,1.7,0,0,0,50.55,665c1.61,3.93,1,8,.9,12-.23,15.68.93,31.33,1.37,47,.28,10-.3,20.08.84,30s.13,20,.91,30c2,25.33.23,50.68,1,76,1.27,43.66,1.71,87.35.7,131-.71,30.35.3,60.7-.95,91-.59,14.18.2,28.4-1,42.49-.9,10.71.22,21.43-1,32-1.09,9.38.1,18.74-.93,28-1.2,10.68-.74,21.34-.78,32,0,1.87-1.8,3.13-1.05,5.07,1,1.59,2.58.89,4,.9,8.33.06,16.73.7,25-.12,13.68-1.36,27.41.2,41-1.07,10.21-1,20.36-.24,30.52-.79,35.49-1.94,71,0,106.5-1.14,46.17-1.5,92.35-1.24,138.5-.54,32,.49,64-.44,96,.9,23.85,1,47.71-.28,71.5,1,17.69.94,35.39-.29,53,1,16.36,1.2,32.68.35,49,.76,5.5.14,11,2,16.52.72,1.62-5.4-.71-10.51-.5-15.68.52-12.36-1-24.66-1.31-37-.21-7.65-.18-15.36-.76-23-1.14-15-1.13-30-2.18-45-1.19-17,0-34-.82-51-1.4-28.49-.3-57-1.16-85.49-.44-14.34-1.36-28.71-.61-43,1.18-22.68-.19-45.38,1-68,1.11-20.69-.1-41.37,1-62,.6-11.52,0-23.06,1.06-34.49.69-7.71-.05-15.41.89-23,1.08-8.69,0-17.44,1.08-26,1-8.39-.26-16.8,1-25,1.11-7.26.3-14.36,1-22.21-6.83.82-13-1-19.18,1.13a9.88,9.88,0,0,1-3.48,0c-18-.63-36,.9-54,1.32-10,.24-20.06-.18-30,.79-18.67,1.82-37.38-.18-56,1-26.34,1.7-52.7-.1-79,1-39,1.58-78,1.44-117,.63-33-.69-66,.25-99-.93-16.52-.59-33,.07-49.5-1-10.36-.67-20.75.15-31-1-9.87-1.08-19.76.17-29.5-1-10.2-1.18-20.43.15-30.5-1-10.37-1.2-20.69-.42-31-.83"/>
        <path d="M52.5,1274.5c6.5.28,13,.39,19.51.76,13.33.75,26.67,1.16,40,2.16,10.3.77,20.64-.19,31,.91,10.91,1.15,22,.26,33,.93,16.12,1,32.35,1.07,48.49,1,71.5-.16,143,1.33,214.5-.69,23.66-.67,47.34.11,71-1.06,13.82-.69,27.69-.53,41.5-.72,32.85-.45,65.65-2.48,98.5-2.32a17.14,17.14,0,0,0,4,0c9-2.17,18-.31,26.56-1,1.47,1.57.94,2.88.91,4-.27,10,.2,20-.78,30-1.24,12.59.31,25.3-1,38-1.26,12.24-.85,24.69-.87,37-.09,41.17-1.35,82.33-1.31,123.5,0,50.34-.33,100.67,1,151,.5,18.66-.86,37.33.86,56,1.1,11.94.6,24,.81,36,.38,21.33,1.68,42.65,1.34,64,0,3.33-.51,6.71,1,9.58-1.55,1.44-2.86.91-4,.89-17.33-.31-34.66.12-52-.78-23.13-1.19-46.34-.85-69.49-.89-76.66-.16-153.34-1.59-230,.7-14.83.45-29.66.17-44.51.7-19.8.7-39.66.85-59.49,1.34-8.33.2-16.66.23-25,.69-15.32.85-30.66,1.37-46,2.13-12.67.63-25.33,1.24-38,2-11,.66-22,1.46-33,2-7.5.34-14.94,1.88-22.49,1.22a6.54,6.54,0,0,0-2.53.37c-3.62,1.17-5.28-.07-4.36-3.87,2.16-9,.27-18,1.66-27.07s.18-18.27,1-27.48c1.19-12.92.65-26,.94-39,.86-38.65.34-77.32,1-116,.51-27.81,1-55.66-.65-83.51-1.19-20.12.29-40.31-1-60.5s.44-40.65-1-61c-1.23-17.11-.37-34.32-.8-51.5-.6-23.81-1.52-47.65-1.4-71.49,0-5.5.93-11.08-.89-16.52-.26-.78.54-1.39,1.45-1.48m576,119a32.47,32.47,0,0,1-8.5,1c-6,0-12,0-18,0-27.17,0-54.34.66-81.49,1.3-25.85.6-51.68.07-77.51.74-76.33,2-152.67.72-229,.84-32.33,0-64.65-1.81-97-2-5.15,0-10.3-1.26-16-.6V1400c0,18.33-.14,36.67,0,55,.26,27,.41,54,1.21,81,1.38,46.51.79,93,.5,139.51-.15,25-.07,50-1,75-.4,11-.56,22-.74,33,0,1.15-.56,2.46,1.09,4.23,6.81-2.35,14.41-.45,21.87-1.73a14.28,14.28,0,0,1,3-.47c13,.64,26.05-.46,39-1.29,23-1.49,46-1.09,69-2.6,11.78-.78,23.68.28,35.49-.23,20.5-.9,41-.22,61.49-1.06,42.34-1.73,84.68-.39,127-.8,25.5-.25,51-.59,76.5.1,26.33.72,52.66.76,79,.89,5.67,0,11.34.59,17,1,3.29.22,4.66-.81,4.59-4.51-.23-13.5.7-27.06-.3-40.48-1.09-14.54,0-29-.85-43.52-2.07-35.49.12-71-1.09-106.49-.84-24.35-1.56-48.71-.64-73,1.43-38.18.21-76.35.79-114.51,0-1.68,0-3.37,0-4.8-1.91-1.19-3.51-.48-5-.7"/>
    </g>
    <g class="numeralDisplayLine">
        <g>
            <path d="M365.5,146c-8-.71-16,1.12-24,1"/>
            <path d="M365.5,89a140.61,140.61,0,0,1-22,1"/>
            <path d="M355,90.5c-2.16,19.3-.45,35.67-1,55"/>
        </g>
        <g>
            <path d="M365.5,1312c-10.86-.69-21.74.21-32.48,1.23-11.88,1.13-18.69.24-30.52.77"/>
            <path d="M349.5,1370c-9.67.22-20.38-1.75-30,0"/>
            <path d="M352,1312.5c-1.83,7.5-3.46,15.06-5.55,22.49-2.77,9.78-10.82,31.81-12.44,33.62-4.15-.84-12-32.56-17.49-44.62-1.17-2.54-.52-3-2.52-10"/>
        </g>
        <g>
            <path d="M384.5,703c-20.67-.09-41.33,1.87-62,0"/>
            <path d="M385,757c-14.36-.68-42.15,1.37-56.5,1-1.68,0-3.4.31-5-.49"/>
            <path d="M373,703.5c-.67,13.15.07,26.24-1.2,39.48-.47,4.86-.56,8.68-.8,13.52"/>
            <path d="M335,704.5c0,17,.39,36.52-1,53.5"/>
            <path d="M355,703.5c0,3.67-.92,7.34-1,11-.29,11-.54,22-1.05,33a66,66,0,0,0,.07,9"/>
        </g>
        <g>
            <path d="M1071.5,701c-13.3,1.25-26.67.42-40,1.27a127.49,127.49,0,0,1-25-.27"/>
            <path d="M1063.5,757c-7.5,0-19,0-26.5,0-10.88,0-18.69-.1-29.5,1"/>
            <path d="M1017,703.5c-2,18.5.94,34,1,53"/>
            <path d="M1031,702.5c1.83,8.17,3.58,15.35,5.52,23.49,1.72,7.2,3.89,14.29,5.36,21.53.55,2.74,2.12,8.48,2.12,8.48,4.21-2.25,5-11.81,6.49-15.5,5.25-13.38,7.23-25.47,12-39"/>
        </g>
        <g>
            <path d="M1062.5,93h-38"/>
            <path d="M1063.5,147c-8.33-1.38-21.49-.37-30-.11a54.73,54.73,0,0,1-10-.39"/>
            <path d="M1053.5,93.5c-2.44,15.91-1.73,35-3.5,51"/>
            <path d="M1035.5,94c-.17.5-.49,5-.48,5.5.27,13.18-1.75,26.3-1,39.5.08,1.49-.3,6-.47,7.5"/>
        </g>
    </g>
    <g class="pushpin">
        <circle cx="86" cy="86" r="14"/>
        <circle cx="1330" cy="86" r="14"/>
        <circle cx="646" cy="96" r="14"/>
        <circle cx="768" cy="96" r="14"/>
        <circle cx="86" cy="697" r="14"/>
        <circle cx="1330" cy="697" r="14"/>
        <circle cx="646" cy="697" r="14"/>
        <circle cx="86" cy="1311" r="14"/>
        <circle cx="861" cy="1301" r="14"/>
        <circle cx="1345" cy="1290" r="14"/>
        <circle cx="1023" cy="1292" r="14"/>
        <circle cx="768" cy="697" r="14"/>
    </g>
</svg>
