<svg viewBox="0 0 1412 1882">
  <rect class="frame" x="1" y="1" width="1410" height="1880"/>
  <g class="chart">
    <rect x="53" y="53" width="623" height="551.65"/>
    <rect x="737" y="665.17" width="623" height="551.65"/>
    <rect x="53" y="665.17" width="623" height="551.65"/>
    <rect x="53" y="1277.35" width="623" height="551.65"/>
    <rect x="736.5" y="53" width="623" height="551.65"/>
  </g>
  <g class="blank">
    <rect x="777.5" y="786.17" width="539" height="389"/>
    <rect x="94" y="1398.35" width="539" height="389"/>
  </g>
  <g class="progress">
    <polygon points="1037.91 988.79 1037.91 942.19 949.91 942.19 949.91 895.59 993.91 895.59 993.91 849 777.5 849 777.5 1175.17 901.91 1175.17 901.91 1128.58 990.91 1128.58 990.91 1081.98 947.91 1081.98 947.91 1035.38 905.91 1035.38 905.91 988.79 1037.91 988.79"/>
    <rect x="193.75" y="236.46" width="439.25" height="326.54"/>
    <rect x="876.75" y="236.46" width="439.75" height="326.54"/>
    <rect x="193.5" y="849" width="439.5" height="326.18"/>
  </g>
  <g class="columnHeaderRight">
    <rect x="193.62" y="174" width="439.38" height="62.82"/>
    <rect x="877.12" y="174" width="439.38" height="62.82"/>
    <rect x="193.62" y="786.17" width="439.38" height="62.82"/>
    <rect x="877.12" y="786.17" width="439.38" height="62.82"/>
    <rect x="193.62" y="1398.35" width="439.38" height="62.82"/>
  </g>
  <g class="columnHeaderLeft">
    <rect x="94" y="174" width="99.62" height="62.82"/>
    <rect x="777.5" y="174" width="99.62" height="62.82"/>
    <rect x="94" y="786.17" width="99.62" height="62.82"/>
    <rect x="777.5" y="786.17" width="99.62" height="62.82"/>
    <rect x="94" y="1398.35" width="99.62" height="62.82"/>
  </g>
  <g class="rowHeaderOdd">
    <rect x="94" y="236.82" width="99.5" height="326.18"/>
    <rect x="777.5" y="236.82" width="99.5" height="326.18"/>
    <rect x="94" y="849" width="99.5" height="326.18"/>
    <rect x="777.5" y="849" width="99.5" height="326.18"/>
    <rect x="94" y="1461.17" width="99.5" height="326.18"/>
  </g>
  <g class="rowHeaderEven">
    <rect x="94" y="283.42" width="99.5" height="46.6"/>
    <rect x="94" y="376.61" width="99.5" height="46.6"/>
    <rect x="94" y="469.81" width="99.5" height="46.6"/>
    <rect x="777.5" y="283.42" width="99.5" height="46.6"/>
    <rect x="777.5" y="376.61" width="99.5" height="46.6"/>
    <rect x="777.5" y="469.81" width="99.5" height="46.6"/>
    <rect x="94" y="895.59" width="99.5" height="46.6"/>
    <rect x="94" y="988.79" width="99.5" height="46.6"/>
    <rect x="94" y="1081.98" width="99.5" height="46.6"/>
    <rect x="777.5" y="895.59" width="99.5" height="46.6"/>
    <rect x="777.5" y="988.79" width="99.5" height="46.6"/>
    <rect x="777.5" y="1081.98" width="99.5" height="46.6"/>
    <rect x="94" y="1507.77" width="99.5" height="46.6"/>
    <rect x="94" y="1600.96" width="99.5" height="46.6"/>
    <rect x="94" y="1694.15" width="99.5" height="46.6"/>
  </g>
  <g class="numeralDisplayLine">
    <path d="M365.17,89.07a142.17,142.17,0,0,1-21.56,0"/>
    <path d="M365.17,146.37c-7.69-.51-15.71.39-22.56,0"/>
    <path d="M1061.6,92.61a372.43,372.43,0,0,1-37.51,0"/>
    <path d="M1061.6,146.66c-10.32-.9-25.52.85-37.51,0"/>
    <path d="M384.12,702.39c-22.92-.14-46,1.07-61.41,0"/>
    <path d="M384.12,757.43c-19.1-.31-45.15.91-61.41,0"/>
    <path d="M1070.12,701.36c-23.89-.15-47.16,1.24-63.95,0"/>
    <path d="M1061.49,756.68c-18,.44-39.57-.6-53.36,0"/>
    <path d="M363.22,1312.35c-17.84-.65-39.89,1.55-61,0"/>
    <path d="M347.16,1370.21c-10.2.22-19.62-.58-27.93,0"/>
    <path d="M354,89.48c-1,15.34.48,39.25-.13,56.83"/>
    <path d="M1034.92,93.09c.16,19.57-1.52,38.87,0,53.8"/>
    <path d="M1053,93c.54,19.89-1.56,37.72,0,53.31"/>
    <path d="M1016.3,701.88c-.34,22.4,1.22,35.52,0,54.62"/>
    <path d="M1031,701.83c3.23,18.71,9,35.88,13.78,55q9-27.3,16.71-55.42"/>
    <path d="M334.52,702.61c.89,13.91-.25,36.11,0,55.16"/>
    <path d="M354.25,702.68c-.52,22-1.13,44.65,0,54.84"/>
    <path d="M373,702.38c.17,20.59-.54,42.78,0,55"/>
    <path d="M314,1312.91c4.27,17.32,12.09,36,19.69,57.08a503.21,503.21,0,0,0,17.79-57.74"/>
  </g>
  <rect class="sheetBottomRight" x="1145.75" y="1519.46" width="201" height="332"/>
  <rect class="sheetBottomLeft" x="719.75" y="1519.46" width="386" height="321"/>
  <rect class="sheetTopRight" x="983.23" y="1260.09" width="383.09" height="295.97"/>
  <rect class="sheetTopLeft" x="747.28" y="1271.5" width="206.22" height="267.03"/>
  <g class="pushpin">
    <circle cx="643.56" cy="86.4" r="14"/>
    <circle cx="85.5" cy="86.4" r="14"/>
    <circle cx="1327.06" cy="86.4" r="14"/>
    <circle cx="769" cy="86.4" r="14"/>
    <circle cx="643.56" cy="698.58" r="14"/>
    <circle cx="85.5" cy="698.58" r="14"/>
    <circle cx="1327.06" cy="698.58" r="14"/>
    <circle cx="769" cy="698.58" r="14"/>
    <circle cx="643.56" cy="1310.75" r="14"/>
    <circle cx="851.39" cy="1305" r="14"/>
    <circle cx="1017" cy="1294" r="14"/>
    <circle cx="1333" cy="1294" r="14"/>
    <circle cx="85.5" cy="1310.75" r="14"/>
  </g>
</svg>
