<svg viewBox="0 0 218.19 290.59">
  <rect class="frame" x="0.5" y="0.5" width="217.19" height="289.59"/>
  <g class="chart">
    <rect x="8.51" y="8.51" width="95.96" height="84.97"/>
    <rect x="113.87" y="102.81" width="95.96" height="84.97"/>
    <rect x="8.51" y="102.81" width="95.96" height="84.97"/>
    <rect x="8.51" y="197.1" width="95.96" height="84.97"/>
    <rect x="113.79" y="8.51" width="95.96" height="84.97"/>
  </g>
  <g class="blank">
    <rect x="120.11" y="121.44" width="83.03" height="59.92"/>
    <rect x="14.83" y="215.74" width="83.03" height="59.92"/>
  </g>
  <g class="progress">
    <polygon points="160.22 152.66 160.22 145.48 146.67 145.48 146.67 138.3 153.44 138.3 153.44 131.12 120.11 131.12 120.11 181.37 139.27 181.37 139.27 174.19 152.98 174.19 152.98 167.01 146.36 167.01 146.36 159.83 139.89 159.83 139.89 152.66 160.22 152.66"/>
    <rect x="30.19" y="36.77" width="67.66" height="50.3"/>
    <rect x="135.4" y="36.77" width="67.74" height="50.3"/>
    <rect x="30.15" y="131.12" width="67.7" height="50.24"/>
  </g>
  <g class="columnHeaderRight">
    <rect x="30.17" y="27.15" width="67.68" height="9.68"/>
    <rect x="135.45" y="27.15" width="67.68" height="9.68"/>
    <rect x="30.17" y="121.44" width="67.68" height="9.68"/>
    <rect x="135.45" y="121.44" width="67.68" height="9.68"/>
    <rect x="30.17" y="215.74" width="67.68" height="9.68"/>
  </g>
  <g class="columnHeaderLeft">
    <rect x="14.83" y="27.15" width="15.34" height="9.68"/>
    <rect x="120.11" y="27.15" width="15.34" height="9.68"/>
    <rect x="14.83" y="121.44" width="15.34" height="9.68"/>
    <rect x="120.11" y="121.44" width="15.34" height="9.68"/>
    <rect x="14.83" y="215.74" width="15.34" height="9.68"/>
  </g>
  <g class="rowHeaderOdd">
    <rect x="14.83" y="36.83" width="15.33" height="50.24"/>
    <rect x="120.11" y="36.83" width="15.33" height="50.24"/>
    <rect x="14.83" y="131.12" width="15.33" height="50.24"/>
    <rect x="120.11" y="131.12" width="15.33" height="50.24"/>
    <rect x="14.83" y="225.42" width="15.33" height="50.24"/>
  </g>
  <g class="rowHeaderEven">
    <rect x="14.83" y="44" width="15.33" height="7.18"/>
    <rect x="14.83" y="58.36" width="15.33" height="7.18"/>
    <rect x="14.83" y="72.71" width="15.33" height="7.18"/>
    <rect x="120.11" y="44" width="15.33" height="7.18"/>
    <rect x="120.11" y="58.36" width="15.33" height="7.18"/>
    <rect x="120.11" y="72.71" width="15.33" height="7.18"/>
    <rect x="14.83" y="138.3" width="15.33" height="7.18"/>
    <rect x="14.83" y="152.65" width="15.33" height="7.18"/>
    <rect x="14.83" y="167.01" width="15.33" height="7.18"/>
    <rect x="120.11" y="138.3" width="15.33" height="7.18"/>
    <rect x="120.11" y="152.65" width="15.33" height="7.18"/>
    <rect x="120.11" y="167.01" width="15.33" height="7.18"/>
    <rect x="14.83" y="232.6" width="15.33" height="7.18"/>
    <rect x="14.83" y="246.95" width="15.33" height="7.18"/>
    <rect x="14.83" y="261.31" width="15.33" height="7.18"/>
  </g>
  <g class="numeralDisplayLine">
    <path d="M56.6,14.07a23.1,23.1,0,0,1-3.33,0"/>
    <path d="M56.6,22.89c-1.19-.08-2.42.06-3.48,0"/>
    <path d="M163.87,14.61c-1.91.08-3.8.11-5.78,0"/>
    <path d="M163.87,22.94c-1.59-.14-3.93.13-5.78,0"/>
    <path d="M59.51,108.54c-3.53,0-7.08.16-9.46,0"/>
    <path d="M59.51,117c-2.94,0-6.95.14-9.46,0"/>
    <path d="M165.18,108.38c-3.68,0-7.26.19-9.85,0"/>
    <path d="M163.85,116.9c-2.78.07-6.09-.09-8.22,0"/>
    <path d="M56.29,202.49c-2.74-.1-6.14.24-9.4,0"/>
    <path d="M53.82,211.41c-1.57,0-3-.09-4.3,0"/>
    <path d="M54.88,14.13c-.16,2.36.07,6,0,8.75"/>
    <path d="M159.76,14.68c0,3-.23,6,0,8.29"/>
    <path d="M162.55,14.67c.08,3.06-.24,5.81,0,8.21"/>
    <path d="M156.89,108.46c0,3.45.19,5.47,0,8.41"/>
    <path d="M159.16,108.45c.49,2.88,1.38,5.53,2.12,8.47.93-2.81,1.78-5.65,2.57-8.54"/>
    <path d="M51.87,108.57c.14,2.15,0,5.57,0,8.5"/>
    <path d="M54.91,108.58c-.08,3.39-.17,6.88,0,8.45"/>
    <path d="M57.8,108.54c0,3.17-.08,6.59,0,8.47"/>
    <path d="M48.71,202.58c.66,2.67,1.87,5.55,3,8.79a78.39,78.39,0,0,0,2.74-8.89"/>
  </g>
  <rect class="sheetBottomRight" x="176.83" y="234.4" width="30.96" height="51.14"/>
  <rect class="sheetBottomLeft" x="111.21" y="234.4" width="59.46" height="49.45"/>
  <rect class="sheetTopRight" x="151.8" y="194.45" width="59.01" height="45.59"/>
  <rect class="sheetTopLeft" x="115.45" y="196.2" width="31.77" height="41.13"/>
  <g class="pushpin">
    <circle cx="99.48" cy="13.66" r="2.16"/>
    <circle cx="13.52" cy="13.66" r="2.16"/>
    <circle cx="204.76" cy="13.66" r="2.16"/>
    <circle cx="118.8" cy="13.66" r="2.16"/>
    <circle cx="99.48" cy="107.95" r="2.16"/>
    <circle cx="13.52" cy="107.95" r="2.16"/>
    <circle cx="204.76" cy="107.95" r="2.16"/>
    <circle cx="118.8" cy="107.95" r="2.16"/>
    <circle cx="99.48" cy="202.25" r="2.16"/>
    <circle cx="131.49" cy="201.36" r="2.16"/>
    <circle cx="157" cy="199.67" r="2.16"/>
    <circle cx="205.68" cy="199.67" r="2.16"/>
    <circle cx="13.52" cy="202.25" r="2.16"/>
  </g>
</svg>
