<svg viewBox="0 0 1104 4653.68">
    <g class="gill">
        <path d="M719,656.68c8.69-1.67,15.36-8.2,24-10l-3,2c-2.14,16.42-8.54,31.65-14.25,46.91-8.16,21.85-15.26,44.11-22.2,66.27-7.8,24.91-16.27,49.32-27.52,72.84-14.55,30.45-28.88,61-48,89-9.22,13.51-18,27.31-27,41l-6,8q-10,13-20,26l-6,6c-.89,3.5-5.11,4.5-6,8l-6,6a113.35,113.35,0,0,1-20,20l-6,6c-16.77,14.94-35.37,27.21-54.9,38.72-2-15-1.52-14.38,8.78-22.87,14.55-12,30.5-22.55,42.12-37.85l4-4,12-14,12-16c8.47-13.73,18.42-26.62,24-42l6-8c-.25-3.7,2.39-6.11,4-9,20.62-37.52,43.22-74.15,56.77-115.07,5.19-15.68,11.76-31.14,13.24-47.92l4-8c5.33-28.54,20.39-53.85,27.61-81.84.71-2.74,1.83-12.21,10.39-10.16Z"/>
        <path d="M427,406.68c1,3.08-3,4.93-2,8l-4,8c-4.54,14.77-4.52,15.26-18,15.84-9.58.41-17.25,5.73-26,8.16l-6,4c-35.57,12.48-66.49,32.1-92,60l-18,18-14,16-6,6c-13.45,14.55-26.74,29.26-42,42l-6,6-22,18-4,4-16,12-4,4C127.86,651.43,109.26,667,88,678.6A206.59,206.59,0,0,1,51,694.68l-8,4c-8.07,3.11-15.92,6.56-25,6.16-6.13-.27-11.58,3.12-17,5.84l17-7c9.15-9.54,22.25-12.24,33-19l8-6,27-19,2-2c16-13.32,29-29.72,45-43l9-9,47-51,6-6c10-6.54,15.85-17.6,26-24l4-4,22-24,4-4a377.55,377.55,0,0,0,36-36l4-4,21-17,7-7c5-2.11,7-7.89,12-10l4-4c31.85-23.2,66-40.89,105.9-46.42.43,6.27-4.24,9.58-3.9,14.42Z"/>
    </g>
    <path class="scales" d="M881,396.68c-5.23,16-14.4,30.36-18.2,47a56.25,56.25,0,0,0-1.75,16c2.64,43.24-10.31,81.57-36,116-7.54,10.11-14.67,20.51-23,30l-2,1c-5.69,14.43-15.2,26.46-26.19,36.8-15.86,14.92-34.48,25.68-54.62,34.63C700.3,686.5,681,694.39,663,704.68l-10,8c-13.36,10.92-19.38,26.86-27.77,41.14-.77,1.3-2.4,2.86-2.23,4.86l-4,6c-23.45,39.88-42.07,82-59.64,124.74-8.84,21.55-18.88,42.85-28.23,64.32a409,409,0,0,0-22.12,64c-5.51,22-12.22,43.55-16.31,65.94s-7.91,44.68-11.82,67c-5.38,30.81-5.88,62-7.44,93-.59,11.78,1.06,24,1.27,36,.74,42.65,0,85.33.38,128,.27,30.72,2.4,61.41,5.13,92,2.47,27.66,4.06,55.41,7.06,83,3,28,4.85,56.16,9.27,84.1,4.13,26.12,8,52.58,9,79,1.5,41.08,5.16,82,8,123,3.39,49.33,5.12,98.65,6.6,148,1.39,46.33,3,92.63,3.14,139,.06,27.19-4.56,53.93-5.45,81-.57,17.37-2.84,34.7-4.87,52-2,16.71-4.95,33.31-6.81,50-1.59,14.34-2.9,28.71-5.05,43-1.95,13-3.44,26-5.05,39-1.72,14-3.18,28-5.05,42-2.15,16-5.35,31.94-6.73,48-1.1,12.79-4.11,25.22-5.52,38-1.79,16.13-6.24,32-8.59,48-4,27.13-10.47,53.79-14.53,80.92-1.95,13.05-5.63,26.07-8.81,39-3.76,15.27-6.65,30.67-9.84,46-3.4,16.39-7.31,32.67-10.93,49-6.36,28.67-12.83,57.3-18.93,86-2.34,11-5.34,21.83-7.45,32.91-2.15,11.33-3.8,22.71-5.79,34-4.67,26.58-7.73,53.38-11.91,80-3.39,21.57-4.84,43.32-7.13,65-3.78,35.94-3.92,72.05-5.24,108-1.24,33.94,1.14,68.14,5.51,102a1041.76,1041.76,0,0,0,21.9,116c8.8,35.68,18.49,71.06,29.68,106.11,6.78,21.25,15.71,41.64,22.35,62.88l4,6c8.64,22,19.18,43.05,30,64q16,31,32,62l4,4c7.9,16.53,18.27,31.57,28,47,12.29,19.49,23.06,39.89,35.94,59,9.7,14.42,18.26,29.62,28.24,43.83,6.34,9,11.07,19,16.4,28.37,20.09,35.47,45.33,67.18,69.43,99.75l8,10c7.17,12.56,17.71,22.86,24,36l6,8c10.72,19.31,22.56,38,32,58,10.37,22,22,43.4,30.88,66,6.14,15.67,11.86,31.55,11.3,49-.19,6.12-2,9.13-8.17,9l-6,4c-2.84-1.1-5.27,1.12-6.85,2.22-11.5,7.94-23.12,7.48-35.15,1.78-2-1-4-2.06-6-3-29.7-13.52-53.71-35.12-77.8-56.24-20.76-18.19-38.6-39.45-56.2-60.77l-4-4c-8.33-8-16.77-15.89-25-24-17.27-17.09-34.19-34.55-53-50l-14-14a19.88,19.88,0,0,1-8-8l-16-16c-23.83-23.31-45-49.06-67.18-73.84-15.37-17.14-29.16-35.52-43.52-53.4A636.68,636.68,0,0,1,330,3823.66c-12.68-21.52-29.93-39.78-43-61l-4-4c-13.29-23.76-29.12-46-42-70l-10-14-12-20-6-8-14-24-4-6c-13.28-28.72-31-55-44.44-83.79-18.54-39.84-42-77.34-58.5-118.23-7.35-18.19-15-36.36-20.83-55-7.07-22.53-12.87-45.44-20-68-8.41-26.7-13-54.47-18-82-6.37-35.05-8.22-70.77-14-106-4.13-25.1-5.57-50.63-8.29-76-1.93-17.95-2.09-36.15-4.42-53.94-4.41-33.63-3-67.42-5.19-101.08-1-15.5,1-31.32.48-47a183.86,183.86,0,0,1,1.82-29.91c4.15-30.66,6.31-61.54,11-92.15,3.85-25.37,7.42-50.83,12.72-75.87,5.14-24.28,8.72-48.8,13.25-73.15,3-16.32,5.61-32.73,9.34-48.94,4.59-19.94,9.14-39.91,13-60,4.61-24.22,9-48.47,12.66-72.9,4.29-28.63,7.62-57.35,9-86.1,2-41.26.17-82.64,2.12-124,1.5-32-.1-64-2.41-96-1.47-20.31-3.7-40.57-4.69-61-1.42-29.07-6-58-8.48-87-2.31-26.88-7.82-53.27-11.51-79.93-2.49-18-5.42-36.06-7.22-54.1-2.3-23-5.41-45.92-7.38-69-2.37-27.66-6.06-55.3-6.6-83-.48-24.78-3.62-49.28-4.71-74-.89-20.35-2.85-40.73-4.12-61-.83-13.48-.07-27.32-.65-41-1.59-37.33-1.94-74.66-1.95-112,0-29.4,3.17-58.64,4-88,.3-11,.26-22.08,2.09-33,2.53-15,5.45-30,7.93-45,2.52-15.31,4-30.81,7.22-46,3.79-17.77,9.19-35.41,12.2-53.14,5.48-32.28,16.9-62.39,27.57-92.91,5-14.29,13.06-27.31,17-42l4-6c10.92-26.17,24.78-51,35.81-77.08a527.36,527.36,0,0,1,27.9-56.08c13.64-23.9,30-46.14,42.29-70.84l6-8c6.49-9.7,12.92-19.45,18-30l7-9c9.48-15.59,21.75-29.25,31-45l4-4c7.23-8.47,13-18,20.6-26.36,4.43-4.88,10-10.23,11.4-17.64l6-6c8.38-11.23,16.8-22.38,25.84-33.13,14-16.65,29.36-32.22,42.07-49.93,8.69-12.1,14.57-24.89,13.76-41-.36-7.13-1.3-14.56-1-22,.95-24.1,9.17-45.3,22.34-65l2-2c10.79-23.13,30.2-38.88,48-56l2-2,18-16,4-4a359.63,359.63,0,0,1,95.94-53.16c21.45-7.92,43.22-12.42,66.06-11.92a41.35,41.35,0,0,0,7-.65c9.36-1.38,17-7.11,26-9.27l6-4c5.23-5.16,12.87-6.7,18-12l8-6a561.58,561.58,0,0,0,51-36.06c22.71-17.79,45.21-35.82,65.11-56.88C850.53,95.6,861,83,866,66.68c5.3-17.25,14.33-32.46,28.14-43.84C921.15.58,958.2-7.79,991,12.68l12,12c3.56,5.2,9.37,9,10,16l6,8c8.25,14.41,22.17,22.61,35,32,15.93,11.67,29.41,25.65,34.81,45.05,6.8,24.48.15,45.86-17.75,64-10,10.09-20.46,19.56-31.07,28.92-6.84,6-16,6.74-24,9.86-14.37,5.56-26.68,12.64-37.43,24.71C966.22,267,954.56,281,945,296.68l-6,8-8,12-6,8c-9,14-18,28-27,42-2.05,3.17-4,6.33-5,10Z"/>
    <g class="scalesOverlapLine">
        <path d="M945,22.68c3.14,16,15.92,21.61,29.11,25.64,4.87,1.48,9.16,5.76,14.89,4.36"/>
        <path d="M792,515.68c-1.93,13-7.88,24.25-15,35"/>
        <path d="M547,312.68c-8.31,4.87-17.24,8.81-24,16"/>
        <path d="M1057,148.68c-1.36-4.38-6.64-5.62-8-10l-8-12c-1.29-8-5.61-15.51-4-24"/>
    </g>
    <g class="eye">
        <path d="M557,302.68c9.94-7.27,20.06-14.38,31.06-19.88,20.71-10.37,42.16-19,65.89-11.94,11.5,3.42,24.78,5,30,18.82l-2,2a110.86,110.86,0,0,1-55,15c-26.09.33-52,2.74-78,5.1-1.49.14-1.9,2.94-4,2.9Z"/>
        <path d="M809,400.68c16.72,14.43,19.47,33.84,17.8,54-2,24.23-14.73,43.43-31.91,61.17-3.19-4-2.33-8-1.71-11.12,4.39-22.11-.87-43.37-3.56-65.11-2-16.3-3.35-33.69,2.25-49.85,5.45-.38,7.78,3.29,11.13,4.92Z"/>
    </g>
    <path class="dorsalFin" d="M481,3900.68c-5.42-6.14-9.42-13.27-14-20l-6-8c-11.52-22.47-28.35-41.61-40-64l-4-6c-6.8-14.68-16.56-27.66-24.1-41.94-7.88-14.91-16.74-29.3-24.86-44.08q-21.66-39.39-41-80l-4-6c-2-3.66-4.37-7.18-5.94-11-6.48-15.94-12.13-32.25-19.28-47.88-4.45-9.74-9-19.61-13.26-29.32-11.59-26.32-19.42-54.15-27.52-81.78l-4-6c1.2-5.25-.85-10.16-2.16-14.95-2.05-7.5-5.65-14.58-7.76-22.07-9-32.15-18.13-64.32-24.91-97-6.46-31.17-12.95-62.46-16.73-94-3.31-27.56-7.22-55.18-8.24-83-.8-22.06-3.8-43.91-4.55-66-.56-16.36-1.09-32.63-.94-49,.19-21-2.53-42-2.54-63,0-41.35,1.52-82.7,3.87-124,.93-16.34,1.39-32.8,3.37-49,2-16.33,2.84-32.76,4.16-49.08,1.73-21.38,4.19-42.66,6.09-64a551,551,0,0,1,12.38-79,459.13,459.13,0,0,0,8.27-48c2.76-21.49,7.33-42.78,11.79-64,4.38-20.82,4.79-42.13,8.28-62.95,3.51-21,6.51-42.06,9.35-63.1,3-22.52,4-45.44,6.89-67.89,4-30.65,4.88-61.4,7.62-92.06,1.31-14.67,2.76-29.46,2.33-44-.67-23.33-1.83-46.68-2.42-70-.66-25.81-4.47-51.31-6.53-77-1.33-16.66-3.86-33.34-5.5-50-2.55-26-3.14-52.17-7.26-78-4.29-27-7-54.12-11.36-81.1-3.11-19.34-3.68-39.26-5.4-58.93-1.89-21.64-3.93-43.3-5.79-64.93-1-11.88-2.65-24.14-3.85-36.1-2.84-28.24-7-56.44-6.49-85,.26-13.33.22-26.79-.46-40-1.75-34-2.27-68-3.48-102-1.11-31.36,3.13-62.63,2-94a14.92,14.92,0,0,1,0-3c3.66-20.18,3.76-40.72,5.5-61,2-24.05,5-48,7.66-71.94,2.11-19.1,5.62-38,8.87-57,4.39-25.61,9-51.32,17.26-75.9,10-29.68,18.08-59.92,29.25-89.27,11.4-30,23.86-59.4,36.39-88.86,6-14.15,14.56-27.14,19.05-42l5-6c-.25-9.21,7.91-15.28,9-24l4-4c1.8-8.64,8.33-15.3,10-24l8-12c12.47-25.34,28.79-48.33,44-72l6-8c17.78-28.29,41.76-51.66,62-78l6-6c30.65-32,58.94-66.48,95-93l2-2c21-14.5,38.71-34,64.33-42.14C650.08,479.86,636.71,491,626,503.68l-2,2c-4.75,10.14-13.44,17.29-20.23,25.82-14.57,18.28-27.26,37.9-41.77,56.18l-7,9-11,15-2,2c-8.67,13-17.18,26.11-26,39-6.74,9.76-13.48,19.48-19,30l-8,12c-7.68,14.39-17.5,27.47-25.29,41.85-3.93,7.27-6.84,14.92-10.71,22.15l-4,6c-7.81,17.31-18.33,33.15-27.15,49.92C410.19,836.78,398.66,859,388,881.67c-10.19,21.65-20.36,43.23-28.12,66-16.71,49-30.52,98.77-43.22,148.95-6.64,26.24-12.63,52.64-17.16,79.17a860.13,860.13,0,0,0-11.41,96.93c-2,35.63-2.15,71.34-3.56,107-1.23,31.33-1.57,62.73-2.77,94-.88,23.1.51,46.66,2.79,70,1.64,16.78.5,34,1.62,50.94,1.84,28,4.58,55.94,4.76,84,.13,19.91,4,39.34,6.1,59,3.3,31.67,7.35,63.28,9.76,95,1.82,24,4.32,48,6.72,71.93,1.95,19.34,3.76,38.78,5,58.09,1.64,25.62,4.34,51.19,5.27,76.94,1,27,3.39,54,3.26,81-.11,24.67,1.12,49.4-.35,74q-2,34-3.39,68c-1.2,31-5.51,61.45-9.94,92-2.59,17.87-4.34,36-6.53,53.93-2,16.4-4.67,32.79-7.15,49.12-2.41,15.87-4.55,31.92-6.61,47.91-3,23.51-7.67,46.72-11.91,70-4.53,24.9-9.53,49.7-12.49,74.93-3.17,27-5.73,54.11-9.53,81.06-3.41,24.23-6.56,48.47-8.57,73-3.29,40-5.06,80-6.77,120-1.56,36.44.7,72.69,2.1,109,.44,11.63-1.21,23.35-.73,35,.83,20,.43,40,1,60,.38,14,1.51,28,3,42,3.19,30.76,5.33,61.57,11.34,92.12,3.4,17.31,5,35.24,7.41,52.91,1.75,13.05,6.05,25.33,9.15,38,4.74,19.31,8.84,38.8,14.15,58,7.15,25.81,15.1,51.4,23.06,77,.67,2.15.32,4.09.81,6.06l4,6c5.06,27.21,16.54,52.42,26.71,77.72,8.2,20.42,18.3,40.44,28,60.41,14.31,29.35,26.76,59.64,43.35,87.82,27.46,46.65,52.36,94.85,83.68,139.21,2.87,4.06,7.39,7.39,8.23,12.84l8,10c1.4,2,1.37,4.87,4,6l7,9,5,9,6,8c48.65,81.94,111.49,153,173,225l2,2,33,37,4,4c4.52,4.82,8,10.65,14,14l6,6c.8,3.21,6,2,6,6l4,4c6,3.13,10.58,8.11,16,12l4,4,17,15,7,7c29.56,23.72,57.27,49.71,88,72l4,4c7.8,4.74,12.39,13,20,18l4,4c6.88,4.35,11.07,11.72,18,16l6,6c.08,5.26,7.12,3.55,8,8l4,4c23.58,27.44,44.81,56.5,61,89,.73,1.47.72,3.31,1,5l6,10c11.18,24.11,21.65,48.53,32.16,72.93,8.82,20.47,16.71,41.09,20.93,63.06,1.54,8,1.89,16.29,4.91,24l-3-3a195.23,195.23,0,0,1-47-23l-6-4c-13.13-5.49-23.72-15.12-36-22l-14-10c-7.4-3.61-12.81-10.08-20-14l-4-4c-4.38-1.36-5.62-6.64-10-8l-4-4c-7.34-6.65-16.37-11.45-22-20l-6-6c-2.93-3.74-8.28-5.05-10-10l-6-6c-10.58-12.74-22.69-24.19-32-38l-4-4c-7.8-7.59-12.38-17.53-18.87-26.1-12.4-16.38-25.16-32.85-32.92-52-12.9-31.76-30.15-61.28-45.22-91.91-4-8-7.08-16.64-12.16-23.89-17.21-24.6-31.16-51.19-47.42-76.38-16.83-26.07-33.84-51.91-52.41-76.74l-2-2-5-7-10-10c-1.36-4.38-6.64-5.62-8-10l-8-8a289.94,289.94,0,0,0-20-24l-4-4c-6.53-9.37-16.45-15.63-23-25l-2-2c-16.75-15.94-29.73-35-44.12-52.9-17.78-22.11-34.33-45.09-50.88-68.1Z"/>
</svg>
