<svg viewBox="0 0 136.8 574.22">
  <g class="gill">
    <path d="M89,81.3c1.07-.21,1.89-1,3-1.23l-.37.24a26.83,26.83,0,0,1-1.76,5.78c-1,2.7-1.88,5.44-2.74,8.17a66.51,66.51,0,0,1-3.39,9,81.47,81.47,0,0,1-5.91,11c-1.14,1.67-2.22,3.37-3.33,5l-.74,1-2.47,3.2-.74.74c-.11.43-.63.56-.74,1l-.73.74a14.37,14.37,0,0,1-2.47,2.46l-.74.74a42.87,42.87,0,0,1-6.76,4.77c-.25-1.85-.19-1.77,1.08-2.82a29.43,29.43,0,0,0,5.19-4.66l.49-.49,1.48-1.73,1.48-2a29.42,29.42,0,0,0,3-5.17l.74-1c0-.46.29-.75.49-1.11,2.54-4.63,5.32-9.14,7-14.18a26.15,26.15,0,0,0,1.63-5.91l.5-1c.65-3.52,2.51-6.64,3.4-10.09.09-.34.23-1.5,1.28-1.25Z"/>
    <path d="M53,50.49c.11.38-.37.61-.25,1l-.49,1c-.56,1.82-.56,1.88-2.22,1.95a14.63,14.63,0,0,0-3.21,1l-.74.49a27.33,27.33,0,0,0-11.33,7.4l-2.22,2.22-1.73,2-.74.74a56.06,56.06,0,0,1-5.17,5.17l-.74.74-2.71,2.22-.49.49-2,1.48-.49.49A56.71,56.71,0,0,1,11.22,84a26,26,0,0,1-4.56,2l-1,.49a7.49,7.49,0,0,1-3.09.76A4.51,4.51,0,0,0,.5,88l2.09-.86c1.13-1.17,2.75-1.51,4.07-2.34l1-.74L11,81.67l.25-.25c2-1.64,3.57-3.66,5.55-5.3L17.88,75l5.79-6.28.74-.74c1.23-.81,1.95-2.17,3.2-3l.49-.49,2.71-3,.5-.49a46.41,46.41,0,0,0,4.43-4.44l.5-.49,2.58-2.09.87-.87c.62-.26.86-1,1.48-1.23l.49-.49a28.72,28.72,0,0,1,13.05-5.72c0,.77-.52,1.18-.48,1.77Z"/>
  </g>
  <path class="scales" d="M108.94,49.26c-.64,2-1.77,3.74-2.24,5.79a7,7,0,0,0-.22,2,21.13,21.13,0,0,1-4.43,14.3c-.93,1.25-1.81,2.53-2.84,3.69l-.25.13a12.54,12.54,0,0,1-3.23,4.53A23.47,23.47,0,0,1,89,83.94c-2.33,1-4.7,2-6.92,3.27l-1.23,1c-1.65,1.34-2.39,3.31-3.43,5.07-.09.16-.29.35-.27.6l-.49.74A119,119,0,0,0,69.31,110c-1.09,2.65-2.33,5.28-3.48,7.92a51.36,51.36,0,0,0-2.73,7.88c-.68,2.71-1.5,5.37-2,8.13s-1,5.51-1.45,8.26a91.87,91.87,0,0,0-.92,11.47c-.07,1.45.13,3,.15,4.43.1,5.26,0,10.52.05,15.77,0,3.79.3,7.57.63,11.34.31,3.41.5,6.83.87,10.22s.6,6.92,1.15,10.37a84,84,0,0,1,1.1,9.73c.19,5.06.64,10.1,1,15.15.41,6.08.63,12.15.81,18.24.17,5.71.37,11.41.39,17.13,0,3.35-.57,6.64-.68,10-.07,2.14-.35,4.28-.6,6.41s-.61,4.1-.84,6.16c-.19,1.77-.35,3.54-.62,5.3-.24,1.6-.42,3.2-.62,4.8s-.39,3.46-.62,5.18c-.27,2-.66,3.94-.83,5.92-.14,1.57-.51,3.1-.68,4.67-.22,2-.77,3.94-1.06,5.92-.49,3.35-1.29,6.63-1.79,10-.24,1.6-.7,3.21-1.09,4.8-.46,1.88-.82,3.78-1.21,5.68s-.9,4-1.35,6c-.78,3.53-1.58,7.06-2.33,10.6-.29,1.35-.66,2.69-.92,4.05s-.47,2.8-.71,4.2c-.58,3.27-.95,6.57-1.47,9.86-.42,2.66-.6,5.34-.88,8-.46,4.42-.48,8.87-.64,13.31a75.64,75.64,0,0,0,.68,12.57,128.44,128.44,0,0,0,2.69,14.29c1.09,4.4,2.28,8.76,3.66,13.08.84,2.62,1.94,5.13,2.76,7.75l.49.74a83,83,0,0,0,3.7,7.88l3.94,7.64.49.5a59.3,59.3,0,0,0,3.45,5.79c1.52,2.4,2.84,4.91,4.43,7.27,1.2,1.78,2.25,3.65,3.48,5.41.78,1.11,1.36,2.33,2,3.49a123.13,123.13,0,0,0,8.56,12.29l1,1.24c.89,1.54,2.19,2.81,3,4.43l.74,1c1.32,2.38,2.78,4.68,3.94,7.15,1.28,2.7,2.71,5.34,3.81,8.13a15.25,15.25,0,0,1,1.39,6c0,.75-.24,1.12-1,1.11l-.74.49c-.35-.14-.65.14-.84.27a4,4,0,0,1-4.33.22l-.74-.37c-3.66-1.66-6.62-4.33-9.59-6.93a62.17,62.17,0,0,1-6.92-7.49l-.5-.49c-1-1-2.06-2-3.08-3-2.12-2.11-4.21-4.26-6.53-6.16l-1.72-1.72a2.42,2.42,0,0,1-1-1l-2-2c-2.94-2.87-5.54-6.05-8.28-9.1-1.89-2.11-3.59-4.38-5.36-6.58a77.81,77.81,0,0,1-6.44-9.34c-1.56-2.65-3.69-4.9-5.31-7.51l-.49-.5c-1.64-2.92-3.59-5.66-5.18-8.62l-1.23-1.73c-.49-.82-1-1.64-1.48-2.46l-.74-1-1.72-3-.49-.73c-1.64-3.54-3.83-6.78-5.48-10.33-2.29-4.91-5.17-9.53-7.21-14.57-.9-2.24-1.84-4.48-2.57-6.78-.87-2.78-1.58-5.6-2.46-8.38a84.69,84.69,0,0,1-2.21-10.11c-.78-4.31-1-8.72-1.73-13.06-.51-3.09-.68-6.23-1-9.36-.24-2.21-.26-4.45-.54-6.64-.55-4.15-.37-8.31-.64-12.46-.13-1.91.12-3.86.06-5.79a22.26,22.26,0,0,1,.22-3.68c.51-3.78.78-7.59,1.35-11.36.47-3.13.91-6.26,1.57-9.35s1.07-6,1.63-9c.37-2,.69-4,1.15-6,.57-2.46,1.13-4.92,1.6-7.4.56-3,1.1-6,1.56-9a105.71,105.71,0,0,0,1.11-10.61c.25-5.09,0-10.18.26-15.28a97.37,97.37,0,0,0-.3-11.83c-.18-2.5-.45-5-.57-7.51-.18-3.59-.74-7.15-1-10.73-.28-3.31-1-6.56-1.42-9.85-.3-2.22-.67-4.44-.89-6.66-.28-2.84-.66-5.66-.91-8.5-.29-3.41-.74-6.82-.81-10.23-.06-3-.45-6.07-.58-9.12-.11-2.5-.35-5-.51-7.52-.1-1.66,0-3.37-.08-5.05-.19-4.6-.24-9.2-.24-13.8,0-3.62.39-7.23.49-10.84a29.08,29.08,0,0,1,.26-4.07c.31-1.85.67-3.69,1-5.55s.5-3.79.89-5.66c.47-2.19,1.14-4.36,1.51-6.55A69.48,69.48,0,0,1,11.22,122c.61-1.76,1.6-3.36,2.1-5.17l.49-.74c1.34-3.23,3-6.28,4.41-9.5a66.34,66.34,0,0,1,3.44-6.91c1.68-3,3.7-5.69,5.21-8.73l.74-1a30.58,30.58,0,0,0,2.22-3.69l.86-1.11c1.17-1.92,2.68-3.61,3.82-5.55l.49-.49c.9-1,1.61-2.22,2.54-3.25A4.67,4.67,0,0,0,39,73.66l.74-.74c1-1.38,2.07-2.76,3.18-4.08,1.73-2.06,3.62-4,5.19-6.16a7.69,7.69,0,0,0,1.69-5c0-.87-.16-1.79-.12-2.7a15.18,15.18,0,0,1,2.75-8l.25-.25c1.33-2.85,3.72-4.79,5.91-6.9l.25-.25,2.22-2,.49-.49a44.12,44.12,0,0,1,11.82-6.55A21.84,21.84,0,0,1,81.46,29a5.21,5.21,0,0,0,.87-.08c1.15-.17,2.09-.88,3.2-1.14l.74-.5c.64-.63,1.58-.82,2.22-1.47l1-.74a69.11,69.11,0,0,0,6.28-4.45,70.26,70.26,0,0,0,8-7,13,13,0,0,0,3.32-5.06,11,11,0,0,1,3.47-5.4c3.33-2.74,7.89-3.77,11.94-1.25L124,3.42c.43.64,1.15,1.1,1.23,2l.74,1c1,1.77,2.73,2.78,4.31,3.94a10.54,10.54,0,0,1,4.29,5.55,7.69,7.69,0,0,1-2.19,7.89c-1.22,1.24-2.52,2.41-3.83,3.56-.84.75-2,.83-3,1.22a11.27,11.27,0,0,0-4.61,3,36.78,36.78,0,0,0-4.13,5.36l-.74,1-1,1.48-.74,1c-1.11,1.72-2.21,3.45-3.33,5.17a4.42,4.42,0,0,0-.61,1.23Z"/>
  <g class="scalesOverlapLine">
    <path d="M116.83,3.17c.38,2,2,2.66,3.59,3.16.6.18,1.12.71,1.83.54"/>
    <path d="M98,63.92a10.71,10.71,0,0,1-1.84,4.32"/>
    <path d="M67.78,38.91a12.16,12.16,0,0,0-3,2"/>
    <path d="M130.63,18.7c-.17-.54-.82-.69-1-1.23l-1-1.48c-.16-1-.69-1.91-.5-3"/>
  </g>
  <g class="eye">
    <path d="M69,37.68a26.07,26.07,0,0,1,3.82-2.45C75.4,34,78,32.88,81,33.75c1.42.43,3.06.62,3.71,2.32l-.25.25a13.7,13.7,0,0,1-6.78,1.85c-3.21,0-6.41.34-9.61.63-.18,0-.23.36-.49.35Z"/>
    <path d="M100.07,49.75c2.06,1.78,2.4,4.17,2.19,6.65-.25,3-1.81,5.36-3.93,7.54a1.5,1.5,0,0,1-.21-1.37c.54-2.72-.11-5.34-.44-8A13.57,13.57,0,0,1,98,48.41c.67,0,1,.4,1.37.6Z"/>
  </g>
  <path class="dorsalFin" d="M59.65,481.05a23.61,23.61,0,0,1-1.73-2.46l-.73-1c-1.42-2.77-3.5-5.13-4.93-7.88l-.5-.74c-.84-1.81-2-3.41-3-5.17s-2.06-3.61-3.06-5.43q-2.67-4.86-5.06-9.86l-.49-.74a11.86,11.86,0,0,1-.73-1.36c-.8-2-1.5-4-2.38-5.9-.55-1.2-1.11-2.41-1.63-3.61a80.09,80.09,0,0,1-3.39-10.08l-.5-.74a3.73,3.73,0,0,0-.26-1.84c-.26-.92-.7-1.8-1-2.72-1.11-4-2.23-7.93-3.07-11.95-.79-3.85-1.59-7.7-2.06-11.59-.41-3.4-.89-6.8-1-10.22-.1-2.72-.47-5.41-.57-8.13-.07-2-.13-4-.11-6,0-2.59-.31-5.18-.31-7.77,0-5.09.18-10.19.47-15.28.12-2,.17-4,.42-6s.35-4,.51-6c.21-2.63.52-5.25.75-7.88a66.34,66.34,0,0,1,1.53-9.73,56.1,56.1,0,0,0,1-5.91c.34-2.65.91-5.28,1.46-7.89s.59-5.2,1-7.76.8-5.18,1.15-7.78c.37-2.77.49-5.6.85-8.36.49-3.78.6-7.57.94-11.35a47.11,47.11,0,0,0,.29-5.42c-.09-2.87-.23-5.75-.3-8.63-.08-3.18-.55-6.32-.81-9.48-.16-2.06-.47-4.11-.67-6.17-.32-3.2-.39-6.43-.9-9.61s-.86-6.67-1.4-10c-.38-2.39-.45-4.84-.66-7.26-.24-2.67-.49-5.34-.72-8-.12-1.47-.33-3-.47-4.45a87.37,87.37,0,0,1-.8-10.47c0-1.64,0-3.3-.06-4.93-.21-4.19-.28-8.38-.43-12.57-.14-3.87.39-7.72.25-11.58a1.53,1.53,0,0,1,0-.37c.45-2.49.46-5,.67-7.53.26-3,.62-5.91.95-8.86.26-2.35.69-4.69,1.09-7a62.06,62.06,0,0,1,2.13-9.35c1.23-3.66,2.23-7.38,3.6-11s2.94-7.32,4.49-11A51.11,51.11,0,0,0,41.9,103l.62-.74c0-1.14,1-1.89,1.11-3l.49-.49c.22-1.07,1-1.89,1.24-3l1-1.48a93.41,93.41,0,0,1,5.42-8.87l.74-1c2.19-3.48,5.15-6.36,7.64-9.61l.74-.74c3.78-4,7.27-8.19,11.71-11.46l.25-.25c2.58-1.78,4.77-4.19,7.92-5.19-.27,2.26-1.92,3.63-3.24,5.19l-.25.25a16.64,16.64,0,0,1-2.49,3.18c-1.8,2.26-3.36,4.67-5.15,6.93l-.86,1.11-1.36,1.84-.24.25c-1.07,1.6-2.12,3.22-3.21,4.8a33.9,33.9,0,0,0-2.34,3.7l-1,1.48c-1,1.77-2.16,3.39-3.12,5.16C57,92,56.68,93,56.2,93.87l-.49.74c-1,2.13-2.26,4.08-3.35,6.15-1.44,2.73-2.86,5.47-4.17,8.26a79.72,79.72,0,0,0-3.47,8.13c-2.06,6-3.76,12.17-5.32,18.36-.82,3.23-1.56,6.48-2.12,9.75a106.39,106.39,0,0,0-1.4,12c-.25,4.39-.27,8.79-.44,13.18-.16,3.86-.2,7.73-.34,11.59a64.07,64.07,0,0,0,.34,8.63c.2,2.07.06,4.19.2,6.28.23,3.45.56,6.89.59,10.35a70.77,70.77,0,0,0,.75,7.27c.4,3.9.9,7.8,1.2,11.71.22,3,.53,5.91.83,8.86.24,2.38.46,4.78.61,7.16.21,3.16.54,6.31.65,9.48.12,3.32.42,6.65.41,10,0,3,.13,6.08,0,9.11-.17,2.8-.31,5.59-.42,8.39A105.34,105.34,0,0,1,39,290.55c-.32,2.2-.54,4.43-.81,6.64-.24,2-.57,4-.88,6.06s-.56,3.93-.81,5.9c-.37,2.9-1,5.76-1.47,8.63-.56,3.07-1.17,6.12-1.54,9.23-.39,3.33-.7,6.67-1.17,10-.42,3-.81,6-1.06,9-.4,4.93-.62,9.85-.83,14.79-.2,4.49.08,9,.26,13.43.05,1.44-.15,2.88-.09,4.32.1,2.46.05,4.93.12,7.39,0,1.73.18,3.46.36,5.17.39,3.8.66,7.59,1.4,11.36.42,2.13.62,4.34.91,6.52a46.22,46.22,0,0,0,1.13,4.68c.58,2.38,1.09,4.78,1.74,7.14.88,3.18,1.86,6.33,2.84,9.49a6.87,6.87,0,0,1,.1.74l.5.74A50.42,50.42,0,0,0,43,441.34c1,2.51,2.25,5,3.45,7.44,1.77,3.62,3.3,7.35,5.34,10.82,3.39,5.75,6.46,11.69,10.32,17.16.35.5.91.91,1,1.58l1,1.23c.17.24.16.6.49.74l.86,1.11.62,1.11.74,1c6,10.09,13.74,18.85,21.32,27.72l.24.25,4.07,4.56.49.49a7.89,7.89,0,0,0,1.73,1.73l.74.74c.09.39.74.24.74.74l.49.49a17.77,17.77,0,0,1,2,1.48l.49.49,2.1,1.85.86.86c3.64,2.92,7.06,6.13,10.84,8.87l.5.5c1,.58,1.52,1.6,2.46,2.22l.49.49c.85.53,1.37,1.44,2.22,2l.74.74c0,.65.88.44,1,1l.49.49a53,53,0,0,1,7.51,11,2.45,2.45,0,0,1,.13.61l.74,1.23c1.38,3,2.67,6,4,9a37.3,37.3,0,0,1,2.58,7.77,16.55,16.55,0,0,0,.61,3l-.37-.37a23.92,23.92,0,0,1-5.79-2.83l-.74-.5a42.79,42.79,0,0,1-4.44-2.71l-1.72-1.23c-.92-.44-1.58-1.24-2.47-1.72l-.49-.5c-.54-.17-.69-.82-1.23-1l-.5-.5a14.71,14.71,0,0,1-2.71-2.46l-.74-.74c-.36-.46-1-.62-1.23-1.23l-.74-.74a60.56,60.56,0,0,1-3.94-4.68l-.5-.5a26.19,26.19,0,0,1-2.32-3.21,29,29,0,0,1-4.06-6.41c-1.59-3.91-3.71-7.55-5.57-11.33a21.37,21.37,0,0,0-1.5-2.94c-2.12-3-3.84-6.31-5.84-9.41s-4.17-6.4-6.46-9.46l-.25-.24-.61-.87-1.23-1.23c-.17-.54-.82-.69-1-1.23l-1-1a36.76,36.76,0,0,0-2.46-3l-.49-.49c-.81-1.15-2-1.92-2.84-3.08l-.24-.25a62.53,62.53,0,0,1-5.44-6.51c-2.19-2.73-4.23-5.56-6.27-8.4Z"/>
</svg>
