<svg viewBox="0 0 195.12 210.69">
  <path class="snowglobeClearest" d="M7.67,97.2c0,49.65,40.25,81,89.89,81s89.89-31.35,89.89-81a89.89,89.89,0,0,0-179.78,0Z"/>
  <path class="snowTop" d="M20.34,140.86c46.54,24.2,101.4,24.42,154.44,0-21.65,3.75-38.68,6.32-53.09,5.27-22.14-1.63-41.65-7.32-56.24-8.59C50.49,136.24,39.87,136.61,20.34,140.86Z"/>
  <g class="bennettShoe">
    <path d="M107.5,136.86q7.26.58,7.19,5.56c-5.81,1.42-11.64,2.38-15.37,1.64a9.74,9.74,0,0,1,.22-6.7Z"/>
    <path d="M88,139c3.8,1.37,6,2.65,6.89,6.38-6.95,2.12-10.39,1.4-16.26-2.16a10,10,0,0,1,1.62-5.56Z"/>
  </g>
  <path class="skinEastAsian" d="M101.29,99.13c-1.41,2.84-.44,5.47,2.26,7.37a5.34,5.34,0,0,0,8-2.25C113,101.4,112.93,99,109,96.54,106.31,94.86,102.71,96.29,101.29,99.13Z"/>
  <path class="bennettJeans" d="M83.6,98c-1,3.33-.68,13.09.73,21.81l-5.11,16.54a16.1,16.1,0,0,0,12.19,2.07c1.9-9.37,2.21-21.13,3.22-30l2.73,11.89.47,16.67c4.21,1.25,8,1,11.19-1.19-1.1-12.88-2.46-30.29-4.93-38.78Z"/>
  <path class="bennettJacket" d="M92.82,65.28c-10.67,4-12.1,18.14-10.62,33.43a34.18,34.18,0,0,0,22.34-.09c1.61-6.61,2.65-28.63-3.34-33Z"/>
  <g class="skinEastAsian">
    <path d="M87,49c0,5.94.83,11.39,6,13.85a28,28,0,0,1-.68,3.27,18.06,18.06,0,0,0,8.38.3c-.15-1.24-.27-2.39-.36-3.42,2.64-.38,5.3-2.83,6.49-6C111,41.46,87.11,31.87,87,49Z"/>
    <path d="M99.1,77.72c-.18,3.28,1.72,5.38,5,5.56s6.38-1.88,6.58-5.16c.23-3.84-1.49-5.91-5.61-6.27C101.8,71.57,99.28,74.44,99.1,77.72Z"/>
  </g>
  <path class="hairBlack" d="M91.37,44.1c2,4.07,6.42,5.1,12.44,6.65,2.72.79,3.08,3.57,3.09,6.19,6-6.93,3.59-14.74-.84-18.42C101.62,35,94.83,34.66,89.89,37.2s-6.32,8.91-4,12.44C85.94,49.64,90.53,47,91.37,44.1Z"/>
  <path class="snowSide" d="M20.34,140.86C36,164.49,64.74,178.2,97.56,178.2s61.53-13.71,77.22-37.34c-11.16-2.67-25-4.17-46.09-2.72-21.51,1.76-36.77,6.91-56,8.63C52.28,148.59,41.77,147.34,20.34,140.86Z"/>
  <path class="snowglobeClear" d="M97.56.5a97.07,97.07,0,0,1,97.06,97.06c0,53.6-43.46,87.46-97.06,87.46S.5,151.16.5,97.56A97.07,97.07,0,0,1,97.56.5ZM7.67,97.2c0,49.65,40.25,81,89.89,81s89.89-31.35,89.89-81a89.89,89.89,0,0,0-179.78,0Z"/>
  <path class="snowglobeBase" d="M16.7,200.41c-.1-17.44.74-34.23,10.63-39.25,23.08,6,117.38,6,140.47,0,9.89,5,10.72,21.81,10.63,39.25C178.43,213.45,16.7,213.45,16.7,200.41Z"/>
</svg>
