<svg viewBox="0 0 237.73 256.72">
  <path class="globeInner" d="M9.25,118.43c0,60.54,49.07,98.78,109.62,98.78S228.49,179,228.49,118.43a109.62,109.62,0,0,0-219.24,0Z"/>
  <path class="snowTop" d="M24.69,171.67c64.06,28,126.81,27.46,188.35,0-15,3.37-25.65,6.42-41.3,4.82s-30.11-7.1-54.38-7.1-44.74,6.9-61.59,7.3S36.15,174.51,24.69,171.67Z"/>
  <g class="bennettShoe">
    <path d="M182.64,164.91q8,.17,8.24,5.62c-6.27,1.93-12.61,3.35-16.73,2.79A10.74,10.74,0,0,1,174,166Z"/>
    <path d="M148,165.92c4,1.88,7.41,4.16,6.88,7.67-3.84,2-11.51.47-17.56-4a11.19,11.19,0,0,1,2.34-5.91Z"/>
  </g>
  <path class="bennettJeans" d="M149,122.75c-1.14,3.65-.63,17.88-2.85,24-2.67,4.8-4.69,11.15-6.92,16.62,4.22,2.66,6.39,3.59,11.46,3.22,2.1-10.28,9.31-22.64,10.42-32.42l3.76,13.15,5.77,19.78c4.59.82,9-.49,11.46-2.89-4.67-15.18-7.89-33.25-10.61-42.57Z"/>
  <path class="bennettJacket" d="M159.12,86.84c-11.87-.49-15.07,14.44-15.55,18.23-.47,4.27,1.43,13.86,3.9,18.46a37.5,37.5,0,0,0,24.52-.1,48.21,48.21,0,0,0,4.9-14c.44-6.88-1.45-19.55-8.57-22.29Z"/>
  <path class="bennettSleeves" d="M159,87.1l5.06,21.25,4.11-20.51A20.23,20.23,0,0,1,159,87.1Z"/>
  <g class="skinEastAsian">
    <path d="M155.74,115.11c.08,3.48,2.37,5.54,6,6a5.84,5.84,0,0,0,6.66-6.28c-.11-3.48-1.37-5.77-6.45-6.17C158.44,108.39,155.67,111.63,155.74,115.11Z"/>
    <path d="M176.22,69.86c-.81,6.47-2.35,12.31-8.35,14.32a30.85,30.85,0,0,0,.32,3.66A19.87,19.87,0,0,1,159,87.1c.33-1.34.6-2.57.83-3.68-2.83-.75-5.42-3.76-6.31-7.37C151.07,58.65,178.29,51.23,176.22,69.86Z"/>
    <path d="M161.81,130.37c1.19,3.4,4,4.73,7.41,3.54s5.67-4.6,4.49-8c-1.38-4-4-5.36-8.32-4C162,123,160.61,127,161.81,130.37Z"/>
  </g>
  <path class="skinIndian" d="M142.17,130.46c-2.1-2-7.65-2-10.08.5a7.44,7.44,0,0,0-2.21,6.48,95.91,95.91,0,0,1-13.63,2.39c-7.61-1.23-13.47-.3-13.41,8-1-6.58-9.47-7.88-17.21-7.45-6.61-.14-8.23-2.64-11-4.31l-18.55,4c-2.19,7.93.09,15.4,4.49,22.85-5.09-.81-7.72,2.29-11.07,2.53-.81-2.38-3.34-3.5-6-2.91-4.22,2.33-6,6.36-12.79,10.07,16.66,1.15,36,1.42,39.95-.66,3.33-1.42,11-8.06,7.84-12.73,5.5,1.48,8.08,4.36,10.71,1.29-2.9,4.28-2.4,7.39-1.31,9.15,2,3.52,9.81,4.76,16.87,4.93,6.9,0,16.45.62,16.88-3.53.19-7.09-10.12-7-15.62-2.72-4.19-1.09-9.43-2.62-9.43-2.62a21.59,21.59,0,0,0,7.14-11.29c13.32,3.44,17.89,3.39,17.54-6.73A119.73,119.73,0,0,0,133.87,141C135.75,140,145.14,133.25,142.17,130.46Z"/>
  <path class="lizPanties" d="M69.16,156c-4.27-1.32-15.84-5.3-13-16,4.33-8.36,11.62-8.46,18.56-3.88C70.13,140.53,66.38,147.14,69.16,156Z"/>
  <g class="hairBlack">
    <path d="M123.63,140.78c-1,7.29,2.76,11.32-.7,15-4.93,4.07-11.52,3.18-16-.57,8.35,1.61,11.92-2.95,13.6-13-3.45,2.28-9.45,4.26-12.6-.15-1.31,3-1.67,6.32-1.53,10.89.39,8.17-10.87,4.38-13.13-.81-1.91-4.88,1.41-7.62,2.06-11.1,1.5-6.29,6.16-15.28,16.84-13.73C123,129.05,124.41,137.38,123.63,140.78Z"/>
    <path d="M172.09,64c-2.73,4.17-7.64,4.75-14.4,5.67-3.06.51-3.81,3.5-4.15,6.36-5.68-8.32-2-16.53,3.25-20,5.28-3.26,12.73-2.78,17.79.62,5.12,3.56,5.76,10.51,2.73,14.06C177.31,70.75,172.65,67.28,172.09,64Z"/>
  </g>
  <path class="snowSide" d="M24.69,171.67c19.14,28.82,54.15,45.54,94.18,45.54s75-16.72,94.17-45.54c-13.92-2-23.47-5.07-39.83-3-15.55,1.61-28.78,8.53-53.4,8.26-22.66-.24-28.54-2.81-50.35-7.3C46.85,165.47,37,169,24.69,171.67Z"/>
  <path class="globeOuter" d="M118.87.5A118.36,118.36,0,0,1,237.23,118.87c0,65.37-53,106.65-118.36,106.65S.5,184.24.5,118.87A118.36,118.36,0,0,1,118.87.5ZM9.25,118.43c0,60.54,49.07,98.78,109.62,98.78S228.49,179,228.49,118.43a109.62,109.62,0,0,0-219.24,0Z"/>
  <path class="base" d="M20.25,244.3c-.11-21.27.9-41.75,13-47.87,28.15,7.27,143.15,7.27,171.3,0,12.07,6.12,13.08,26.6,13,47.87C217.48,260.19,20.25,260.19,20.25,244.3Z"/>
</svg>
