<svg viewBox="0 0 195.12 210.69">
  <path class="globeInner" d="M7.67,97.2c0,49.65,40.25,81,89.89,81s89.89-31.35,89.89-81a89.89,89.89,0,0,0-179.78,0Z"/>
  <path class="snowTop" d="M20.34,140.86c52.52,23,104,22.51,154.44,0-12.29,2.77-21,5.27-33.86,3.95S116.23,139,96.32,139s-36.68,5.66-50.5,6S29.74,143.19,20.34,140.86Z"/>
  <g class="bennettShoe">
    <path d="M149.86,135.31q6.54.13,6.75,4.61c-5.14,1.59-10.34,2.75-13.72,2.29a8.76,8.76,0,0,1-.16-6Z"/>
    <path d="M121.47,136.14c3.29,1.55,6.08,3.41,5.64,6.29-3.14,1.66-9.43.39-14.39-3.29a9.11,9.11,0,0,1,1.92-4.85Z"/>
  </g>
  <path class="bennettJeans" d="M122.27,100.74c-.94,3-.52,14.67-2.33,19.66-2.2,3.93-3.85,9.14-5.68,13.63,3.46,2.18,5.23,2.94,9.4,2.64,1.71-8.43,7.63-18.57,8.54-26.59l3.08,10.79L140,137.09c3.76.67,7.38-.4,9.39-2.37-3.83-12.45-6.47-27.27-8.7-34.91Z"/>
  <path class="bennettJacket" d="M130.57,71.3c-9.73-.4-12.36,11.84-12.75,15-.39,3.5,1.17,11.36,3.19,15.14a30.84,30.84,0,0,0,20.11-.08,39.38,39.38,0,0,0,4-11.46c.36-5.64-1.19-16-7-18.28Z"/>
  <path class="bennettSleeves" d="M130.49,71.51l4.15,17.43L138,72.12A16.56,16.56,0,0,1,130.49,71.51Z"/>
  <g class="skinEastAsian">
    <path d="M127.8,94.48c.06,2.86,1.94,4.54,4.89,4.92a4.79,4.79,0,0,0,5.46-5.15c-.09-2.85-1.13-4.73-5.29-5.06C130,89,127.74,91.62,127.8,94.48Z"/>
    <path d="M144.59,57.37c-.66,5.31-1.93,10.1-6.85,11.75a26.1,26.1,0,0,0,.27,3,16.28,16.28,0,0,1-7.52-.61c.26-1.09.49-2.11.68-3-2.33-.61-4.45-3.08-5.18-6C124,48.18,146.29,42.1,144.59,57.37Z"/>
    <path d="M132.77,107a4.4,4.4,0,0,0,6.08,2.9c2.79-1,4.65-3.77,3.68-6.56-1.13-3.27-3.28-4.4-6.82-3.27C132.89,101,131.79,104.2,132.77,107Z"/>
  </g>
  <path class="skinIndian" d="M116.67,107.07c-1.72-1.61-6.28-1.63-8.26.41a6,6,0,0,0-1.81,5.31,79.62,79.62,0,0,1-11.19,2c-6.24-1-11-.25-11,6.53-.82-5.4-7.77-6.46-14.11-6.11-5.42-.11-6.75-2.17-9-3.53l-15.21,3.29c-1.8,6.5.07,12.63,3.68,18.74-4.17-.67-6.33,1.88-9.08,2.08-.66-2-2.73-2.87-5-2.39-3.46,1.9-4.9,5.21-10.49,8.26,13.66.94,29.5,1.15,32.76-.54,2.73-1.17,9-6.62,6.43-10.45,4.51,1.22,6.63,3.58,8.79,1.06-2.38,3.51-2,6.06-1.08,7.5,1.64,2.89,8,3.91,13.84,4.05,5.65,0,13.48.51,13.83-2.9.16-5.81-8.3-5.77-12.81-2.23C83.6,137.22,79.3,136,79.3,136a17.6,17.6,0,0,0,5.85-9.25c10.93,2.82,14.68,2.77,14.39-5.52a96.74,96.74,0,0,0,10.33-5.45C111.41,114.87,119.11,109.35,116.67,107.07Z"/>
  <path class="lizPanties" d="M56.8,128c-3.5-1.09-13-4.35-10.7-13.16,3.55-6.85,9.53-6.93,15.22-3.17C57.6,115.33,54.52,120.74,56.8,128Z"/>
  <g class="hairBlack">
    <path d="M101.46,115.53c-.85,6,2.27,9.28-.57,12.28-4,3.34-9.44,2.61-13.14-.46,6.84,1.32,9.77-2.42,11.15-10.63-2.83,1.87-7.75,3.49-10.33-.12-1.08,2.45-1.37,5.18-1.25,8.92.31,6.71-8.92,3.59-10.78-.66-1.56-4,1.16-6.25,1.69-9.1,1.24-5.16,5.06-12.53,13.82-11.26C101,105.91,102.11,112.74,101.46,115.53Z"/>
    <path d="M141.21,52.59C139,56,134.94,56.48,129.4,57.24c-2.52.41-3.12,2.87-3.41,5.21-4.65-6.82-1.67-13.55,2.67-16.38a14.05,14.05,0,0,1,14.59.5c4.19,2.92,4.72,8.62,2.23,11.53C145.48,58.1,141.66,55.26,141.21,52.59Z"/>
  </g>
  <path class="snowSide" d="M20.34,140.86C36,164.49,64.74,178.2,97.56,178.2s61.53-13.71,77.22-37.34c-11.41-1.68-19.24-4.16-32.66-2.45-12.75,1.31-23.6,7-43.79,6.77-18.58-.2-23.4-2.3-41.29-6C38.5,135.78,30.43,138.7,20.34,140.86Z"/>
  <path class="globeOuter" d="M97.56.5a97.07,97.07,0,0,1,97.06,97.06c0,53.6-43.46,87.46-97.06,87.46S.5,151.16.5,97.56A97.07,97.07,0,0,1,97.56.5ZM7.67,97.2c0,49.65,40.25,81,89.89,81s89.89-31.35,89.89-81a89.89,89.89,0,0,0-179.78,0Z"/>
  <path class="base" d="M16.7,200.41c-.1-17.44.74-34.23,10.63-39.25,23.08,6,117.38,6,140.47,0,9.89,5,10.72,21.81,10.63,39.25C178.43,213.45,16.7,213.45,16.7,200.41Z"/>
</svg>
