<svg viewBox="0 0 386.21 417.03">
    <path class="globeInner" d="M15.19,192.4c0,98.26,79.66,160.32,177.92,160.32S371,290.66,371,192.4a177.92,177.92,0,0,0-355.83,0Z"/>
    <path class="snowTop" d="M40.26,278.8c104,45.47,205.82,44.57,305.69,0-24.33,5.48-41.62,10.44-67,7.83s-48.87-11.52-88.27-11.52-72.6,11.2-100,11.85S58.87,283.42,40.26,278.8Z"/>
    <g class="bennettShoe">
        <path d="M296.62,267.83c8.64.18,13.08,3.23,13.36,9.12-10.17,3.14-20.45,5.45-27.15,4.54-1.4-3.87-1.68-6.69-.32-11.95Z"/>
        <path d="M240.44,269.47c6.51,3.06,12,6.75,11.16,12.46-6.23,3.27-18.67.75-28.49-6.53a18,18,0,0,1,3.8-9.6Z"/>
    </g>
    <path class="bennettJeans" d="M242,199.41c-1.86,5.93-1,29-4.62,38.9-4.35,7.79-7.63,18.1-11.25,27,6.86,4.32,10.37,5.82,18.62,5.23,3.39-16.68,15.09-36.76,16.89-52.63l6.11,21.35,9.37,32.11c7.44,1.33,14.62-.8,18.6-4.7-7.58-24.64-12.82-54-17.23-69.09Z"/>
    <path class="bennettJacket" d="M258.44,141.14c-19.26-.81-24.46,23.43-25.23,29.58-.77,6.93,2.31,22.49,6.32,30a60.85,60.85,0,0,0,39.79-.16c2.77-5.12,6.73-14.48,8-22.68.72-11.16-2.36-31.73-13.91-36.17Z"/>
    <path class="bennettSleeves" d="M258.28,141.56,266.49,176l6.68-33.29A33,33,0,0,1,258.28,141.56Z"/>
    <g class="skinEastAsian">
        <path d="M253,187c.13,5.65,3.84,9,9.67,9.74,5.61.73,11-3.29,10.81-10.19-.18-5.65-2.23-9.37-10.47-10C257.34,176.11,252.84,181.36,253,187Z"/>
        <path d="M286.2,113.57c-1.32,10.5-3.82,20-13.56,23.25a50.79,50.79,0,0,0,.53,5.93,32.21,32.21,0,0,1-14.89-1.19c.53-2.18,1-4.18,1.34-6-4.59-1.22-8.79-6.1-10.24-12C245.38,95.38,289.56,83.33,286.2,113.57Z"/>
        <path d="M262.8,211.78c1.94,5.51,6.51,7.68,12,5.74s9.21-7.46,7.29-13c-2.24-6.47-6.49-8.71-13.51-6.48C263,199.82,260.86,206.26,262.8,211.78Z"/>
    </g>
    <path class="skinIndian" d="M230.93,211.93c-3.4-3.19-12.42-3.23-16.35.81-2.92,3-4.39,7.21-3.59,10.52-4.54,1.36-18.85,3.82-22.13,3.87-12.35-2-21.87-.49-21.75,12.92-1.63-10.68-15.39-12.78-27.94-12.09-10.73-.22-13.36-4.29-17.79-7l-30.11,6.52c-3.55,12.87.14,25,7.3,37.08-8.27-1.31-12.54,3.72-18,4.12-1.32-3.87-5.41-5.68-9.8-4.72-6.85,3.76-9.7,10.3-20.76,16.33,27,1.88,58.39,2.3,64.83-1.06,5.41-2.31,17.86-13.1,12.74-20.67,8.92,2.41,13.12,7.08,17.38,2.09-4.71,7-3.9,12-2.13,14.85,3.26,5.72,15.92,7.73,27.39,8,11.18,0,26.68,1,27.39-5.73.3-11.51-16.43-11.44-25.35-4.42-6.8-1.77-15.32-4.25-15.32-4.25,5.87-5.13,9.88-11.16,11.59-18.32,21.63,5.58,29,5.5,28.48-10.93,6.44-2.66,14.48-7.32,20.44-10.78C220.51,227.36,235.76,216.45,230.93,211.93Z"/>
    <path class="lizPanties" d="M112.43,253.3c-6.93-2.15-25.71-8.61-21.18-26,7-13.57,18.87-13.73,30.13-6.29C114,228.27,107.92,239,112.43,253.3Z"/>
    <g class="hairBlack">
        <path d="M200.84,228.68c-1.7,11.82,4.47,18.36-1.14,24.3-8,6.6-18.69,5.17-26-.91,13.54,2.61,19.34-4.79,22.07-21-5.59,3.7-15.33,6.92-20.45-.23-2.13,4.86-2.71,10.26-2.48,17.67.62,13.26-17.65,7.1-21.32-1.32-3.1-7.91,2.29-12.36,3.35-18,2.43-10.22,10-24.81,27.34-22.3C199.85,209.64,202.11,223.15,200.84,228.68Z"/>
        <path d="M279.49,104.09c-4.43,6.78-12.4,7.71-23.37,9.21-5,.82-6.18,5.68-6.74,10.31-9.21-13.5-3.31-26.82,5.28-32.42,8.58-5.29,20.66-4.52,28.87,1C291.84,98,292.89,109.25,288,115,288,115,280.39,109.38,279.49,104.09Z"/>
    </g>
    <path class="snowSide" d="M40.26,278.8c31.06,46.79,87.88,73.92,152.85,73.92S314.9,325.59,346,278.8c-22.59-3.31-38.09-8.22-64.64-4.84-25.25,2.6-46.71,13.84-86.67,13.41-36.78-.4-46.33-4.56-81.72-11.85C76.22,268.75,60.24,274.54,40.26,278.8Z"/>
    <path class="globeOuter" d="M193.11,1c106.09,0,192.1,86,192.1,192.11s-86,173.1-192.1,173.1S1,299.2,1,193.11,87,1,193.11,1ZM15.19,192.4c0,98.26,79.66,160.32,177.92,160.32S371,290.66,371,192.4a177.92,177.92,0,0,0-355.83,0Z"/>
    <path class="base" d="M33.06,396.68c-.19-34.52,1.46-67.76,21-77.69,45.69,11.8,232.34,11.8,278,0,19.58,9.93,21.22,43.17,21,77.69C353.16,422.48,33.06,422.48,33.06,396.68Z"/>
</svg>
