<svg viewBox="0 0 237.73 256.72">
  <path class="globeInner" d="M9.25,118.43c0,60.54,49.07,98.78,109.62,98.78S228.49,179,228.49,118.43a109.62,109.62,0,0,0-219.24,0Z"/>
  <path class="snowTop" d="M24.69,171.67c56.76,29.51,123.67,29.79,188.35,0-26.41,4.58-47.17,7.71-64.75,6.42-27-2-50.79-8.92-68.58-10.47C61.46,166,48.52,166.49,24.69,171.67Z"/>
  <g class="bennettShoe">
    <path d="M131,166.8c5.9.47,8.81,2.73,8.77,6.77-7.08,1.74-14.2,2.9-18.74,2-.81-2.7-.88-4.64.26-8.18Z"/>
    <path d="M107.2,169.38c4.63,1.67,7.35,3.23,8.4,7.78-8.47,2.58-12.68,1.71-19.84-2.63a12.35,12.35,0,0,1,2-6.78Z"/>
  </g>
  <path class="skinEastAsian" d="M123.42,120.78c-1.73,3.47-.54,6.67,2.76,9A6.49,6.49,0,0,0,136,127c1.7-3.48,1.64-6.39-3.15-9.4C129.54,115.57,125.14,117.31,123.42,120.78Z"/>
  <path class="bennettJeans" d="M101.84,119.4c-1.28,4.06-.83,16,.9,26.6L96.5,166.16a19.62,19.62,0,0,0,14.86,2.54c2.33-11.43,2.7-25.78,3.93-36.65l3.33,14.5.58,20.33c5.13,1.52,9.73,1.2,13.64-1.46-1.34-15.7-3-36.93-6-47.29Z"/>
  <path class="bennettJacket" d="M113.08,79.5c-13,4.9-14.76,22.12-13,40.77a41.68,41.68,0,0,0,27.25-.11c2-8.06,3.23-34.92-4.08-40.3Z"/>
  <g class="skinEastAsian">
    <path d="M106,59.59c.06,7.24,1,13.89,7.38,16.88a34.72,34.72,0,0,1-.83,4,22,22,0,0,0,10.22.36c-.18-1.52-.33-2.92-.44-4.17,3.22-.46,6.47-3.45,7.92-7.33C135.21,50.45,106.12,38.75,106,59.59Z"/>
    <path d="M120.75,94.67c-.23,4,2.1,6.56,6.1,6.78s7.78-2.3,8-6.29c.27-4.68-1.82-7.21-6.85-7.65C124,87.17,121,90.67,120.75,94.67Z"/>
  </g>
  <path class="hairBlack" d="M111.32,53.67c2.48,5,7.83,6.22,15.17,8.11,3.32,1,3.75,4.35,3.77,7.55,7.33-8.45,4.37-18-1-22.47-5.41-4.27-13.69-4.71-19.72-1.6-6.11,3.27-7.71,10.86-4.81,15.17C104.7,60.43,110.29,57.2,111.32,53.67Z"/>
  <path class="snowSide" d="M24.69,171.67c19.14,28.82,54.15,45.54,94.18,45.54s75-16.72,94.17-45.54c-13.61-3.26-30.53-5.08-56.22-3.32-26.23,2.16-44.83,8.43-68.32,10.53C63.65,181.09,50.83,179.58,24.69,171.67Z"/>
  <path class="globeOuter" d="M118.87.5A118.36,118.36,0,0,1,237.23,118.87c0,65.37-53,106.65-118.36,106.65S.5,184.24.5,118.87A118.36,118.36,0,0,1,118.87.5ZM9.25,118.43c0,60.54,49.07,98.78,109.62,98.78S228.49,179,228.49,118.43a109.62,109.62,0,0,0-219.24,0Z"/>
  <path class="base" d="M20.25,244.3c-.11-21.27.9-41.75,13-47.87,28.15,7.27,143.15,7.27,171.3,0,12.07,6.12,13.08,26.6,13,47.87C217.48,260.19,20.25,260.19,20.25,244.3Z"/>
</svg>
