<svg class="televisionAlbum" 
    xmlns="http://www.w3.org/2000/svg" viewBox="0 0 1127 1127">
    <title>Television album</title>
    <path class="background" d="M137,134.5a37.52,37.52,0,0,1,1,9.5c-.64,26.18.85,52.34,1.34,78.49.26,14.33-.12,28.7.71,43,2.11,36.65-.26,73.36,1.11,110,1.54,41.18-.24,82.36,1,123.51,1.85,63.67,1,127.34.6,191-.22,34.66.3,69.36-.93,104-.92,25.69.3,51.38-1,77-1,19.52.3,39.06-1,58.5-1.14,17-.28,34-.75,51,0,1.15-.61,2.46.46,3.5l-2,1.5c.5-.33,1-1,1.5-1a173.16,173.16,0,0,0,27.51-.39c13-1.08,26,.29,39-1,12.58-1.25,25.3.31,38-1s25.29-.11,38-1c20.61-1.37,41.31.24,62-1,22.95-1.41,46-.83,69-.87,91.83-.15,183.67-1.45,275.5.59,29.33.65,58.68-.22,88,1.07,13.83.61,27.65-.28,41.52.82,16.76,1.31,33.66-.59,50.49,1.11,9.78,1,19.63-.18,29.51.88,11.07,1.19,22.31-.14,33.49,1.08,9.93,1.09,20,0,30,.89,12.42,1.11,25-.37,37.44,1.59.2-1.85.48-3.35.52-4.85.35-12.67.16-25.32.81-38,1.16-22.63.15-45.31,1-68,1.26-33.8.78-67.67.9-101.49.31-85.16,1.5-170.34-.64-255.5-.78-31,0-62-.83-93-1.42-52.81.6-105.66-1-158.5-.65-21.47-1.26-43-1.19-64.49.06-20.84-1.75-41.65-1-62.5a17.18,17.18,0,0,0-.55-3c-6.1.12-12.27-.44-18.44-.85-12.3-.83-24.66-.43-37-.84-25.49-.86-51-1.41-76.49-2.15-35.82-1-71.66-.29-107.5-.81-51.16-.75-102.34-1.33-153.5-1.21-70.33.17-140.67-1.11-211,.79-42.15,1.14-84.34-1-126.5,1-18.81.9-37.66.2-56.51.76-22,.65-44,1.3-66,1.3-2,0-4-.25-5.5,1.51Z"/>
    <path class="billyHair" d="M730,294.5c16.24-23.37,37.71-36.07,67-32.75a36.33,36.33,0,0,1,5.45.88c2.59.93,5.58,1.72,7.44.24,6-4.81,13.13-6.84,20.1-9.4,6.34-2.34,13.23-2.59,19.48-2.1,10.93.85,21.55,4.32,30,12.14.88.81,2,2,3,1.41,3.15-2.1,6.07,0,9.06.11a36.9,36.9,0,0,1,25.39,11.57,53.55,53.55,0,0,1,15.5,38.9c0,3.21.79,5.42,3.63,6.45,8.49,3.11,14,9,18.06,17,5.95,11.83,6.63,24,3.35,36.52-1.64,6.24-10.93,16-10.93,16,6.55,8.52,5.37,18.4,4.37,28-.87,8.42-4.51,16-9.32,23C933.89,453.78,918,463,897.76,459c-5.08,10.74-26.83,19-39.85,15.33-5.85-1.65-11.65-3.39-17.41-5.33l-54-3a58.4,58.4,0,0,1-28,3c-12.74-1.67-24.56-5.44-33.53-15.44-2.17-2.42-4.39-5.27-4.7-8.06-.45-4.11-2.94-5.06-5.78-5.93-11.94-3.67-19.13-15.08-19.49-27Z"/>
    <path class="fredHair" d="M257,484.5c-7.25-1.84-13.09-6.5-18.87-10.68-10.19-7.38-18.09-17.27-25.57-27.37-.88-1.19-3.16-10-4.47-13-4.94-11.33-7.55-22.88-4.74-35.49a289.48,289.48,0,0,0,6.09-38c.5-5.81,1.51-11.9.33-17.45-2.52-11.88-.17-23.4,4.69-33.32,5.56-11.33,11.62-22.78,21.35-31.94a114.2,114.2,0,0,1,31.7-20.76c1.43-.65,27.11-7.7,39-8.29,24.62-1.22,45.11,9,60.75,27.47a112.81,112.81,0,0,1,18,29.17A115.76,115.76,0,0,1,392,325.5h1.5c-1.79-.3-1.53.94-1.5,2,.18,6.5.66,13.08.27,19.49-.75,12.5.84,25.09-2.12,37.55-2.08,8.71-.52,17.76,1.08,26.42A41.79,41.79,0,0,1,391,426.5c-2.44,13.22-8.77,24-18.87,33.12-10.25,9.21-22,15.48-34.61,20.38Z"/>
    <path class="richardHair" d="M613.5,407c-11.76.19-20.07-5.57-25.28-15.61a9.91,9.91,0,0,0-3.69-4.43c-6.44-4.06-12.33-8.57-15.66-15.9-1.5-3.31-2.37-5.95-1-9.61a48.38,48.38,0,0,0,3-13.46c.61-9.14,2.29-18.32.12-27.49l10-41c4.7-5.28,6.89-12.44,12.53-17,4.75-3.81,8.16-8.86,12.51-13,11.22-10.66,24-17.94,39.94-19.31,5.49-.47,11-.37,16.54-1.12,8-1.08,15.17,2.33,22.49,4.87,19.55,6.8,33.93,19.72,43.91,37.57,3.94,7,5.72,15,7,23,1,6.11,2.78,12,4.09,18,2.07,9.49,3.28,19.24,6.21,28.44,3.74,11.76.45,21.86-4.66,32.08-6.46,12.91-16.66,21.46-30,26.48Z"/>
    <path class="tomHair" d="M544,353.4c6.68-3.66,14-6.26,19.55-11.9,12.53-12.83,20.17-27.77,21.63-46,1.2-15-3.53-28.19-10.18-41-5.88-11.31-12.17-22.38-17.58-34-6.75-14.47-16.22-27.3-29.48-36.4-10.82-7.43-23.21-9.63-35.83-4.52-4,1.62-7.37,4.89-10.58,7.1-6.21-3.09-11.74-5.35-19-4.05a56.35,56.35,0,0,0-19.54,7.64c-6.74,4-10.49,10.44-14.71,16.3-5.22,7.25-10.52,14.53-14.28,22.83-6.34,14-13.52,27.58-19.77,41.6-2.46,5.5-5.27,10.93-6.69,16.93-3.38,14.31-1,27.16,8,39.07,9.16,12.14,21.18,20.51,34.1,27.91C432,356.38,540.83,355.11,544,353.4Z"/>
    <g class="skin">
        <path d="M282,535c3.83-3,52-49.88,51-53.51A57.25,57.25,0,0,1,331,458c.24-1.8.81-3.6,2.1-4.4,5.13-3.18,8.27-8.17,11.88-12.65,11.59-14.38,16.79-31.28,17.44-49.44.45-12.73-2.79-25.37-3-38-.13-9.06-4.34-11.84-11.39-14-10-3.12-18.6-8.52-24.48-17.48-1.92-2.93-6-10.47-6-10.47-4.61,5.94-3.74,12.7-3.06,19.51.32,3.14,3.43,6.52-.23,9.75A20.36,20.36,0,0,1,303.54,332c-5.06-8.14-7.93-17.19-10-26.49-.49-2.25-1-4.3-2.58-6a28.47,28.47,0,0,0-4.61,5.42c-9.24,13.15-19.48,25.38-33.33,34.17-5.49,3.48-11.39,5.16-18.06,6.51,0,3.72-.07,7.56,0,11.4.15,6.75-.88,13.37-2,20-1.78,11-1.3,21.95.3,33a64.2,64.2,0,0,0,12.14,29c2.58,3.57,4.47,7.57,7.93,10.58,2.42,2.1,2,5.61,1.48,8.39-2.11,10.68-4.07,21.42-8.35,31.54C245.9,491,282,535,282,535Z"/>
        <path d="M770,494.47c5.2-6.35,8.66-19.07,9.95-25.51,2-5.16-2.41-8.83-4.45-12.94-5.84-11.79-14-29.35-14.63-43-.15-3.46-.82-20.38.75-28.24,1.79-8.93,4-17.76,5.47-26.76.28-1.77.82-3.4,3.44-3.59,10.38-.74,19.35-4.71,26.51-12.42,0,0,5.44,1.74,8,1.36C814.63,341.92,825.5,330,825.5,330c2.84,1.76,2.44,5.56,5.39,7.66A26.84,26.84,0,0,0,848,342.92c4.38-.18,7.79.25,9.56,5.06,2.74,7.45,9.5,10.84,16,13.86,4.63,2.15,5.71,4.78,5.6,9.66-.21,9.65.24,19.36.1,29-.17,11.72-.48,23.35-3.78,35.14-3.65,13-12.38,24.23-21,33.86-.53.6,6.08,32,6.51,33,3,6.51-51.68,53.18-58,58.51C803,561,769.44,495.19,770,494.47Z"/>
        <path d="M489,554c16-22.67,42.82-84.6,40.72-90.91A181,181,0,0,1,519.94,407c0-4,1-7.48,4.1-9.95a56.33,56.33,0,0,0,11-12c3.61-5.25,7.63-10.26,9.48-16.51.45-1.52,7.59-26.71,8.86-38.52.86-7.94,1.7-15.92,2-24,.21-5.46-2-9.11-4.43-13C542.15,279,530.89,267,519,255.52c-.34-.33-3.05,6.62-2.94,10.48.06,2.12-2.54,3-2.54,3-.74-1.23-1.88-2-2.63-3.43-6.47-11.94-16-21.42-25.37-31.07,0,0-.76-.35-1.89,1.56a146.36,146.36,0,0,1-45.58,48c-3.31,2.21-6.06,5-9.93,6.68-2.81,1.2-4.14,4-3.42,8.32,1.06,6.3.25,13-.31,19.44-.22,2.51-.06,5-.36,7.51a87.91,87.91,0,0,0,2.11,31c1.35,5.72,4,11.21,6.59,16.43,4.41,8.88,18.15,26,18.81,26.56,4.48,4,6.46,10.3,6.09,17.05-.71,12.77-8.76,20.91-17.12,29-6.95,6.72-14,13.34-21,20Z"/>
        <path d="M662,560c18.23-22.62,53.25-70.71,52.49-72-3.47-5.85-7.4-11.48-10.39-17.56-4.41-8.95-6.87-18.61-8.64-28.44-1-5.65-.06-8.8,4.55-12a38.37,38.37,0,0,0,8.57-7.45c6.38-8,10.64-17,14-26.55,4.08-11.81,4-23.76,2.64-36-.87-7.87-3-15.52-3.25-23.48-.15-5.84-.43-18.5-.43-18.5-3-.27-6.08.64-9-1l-20-11c-5.94,5.46-13,4.34-18.49-3-3.72-5-6.1-10.59-8.11-16.46-.92-2.68-3.4-9.28-3.4-9.28-2-4.18-3.77,5.52-4.43,7.77-2,6.74-3.06,13.78-8.52,19-2.22,2.14-3.71,5.26-7.54,4.17s-7.51-4.73-7.51-4.73a17.48,17.48,0,0,0-2.48,2c-6.6,7.75-15.38,12.14-24.52,16-.83.35-8.29,2.47-7.52,8,.44,3.22-1.16,6.21-1.07,9.5.28,9.88-.88,19.68-1.79,29.51-.94,10.09-.72,20.48,3.08,29.91,4.19,10.39,10.08,20.26,18.9,27.45,8.54,7,10.15,14.92,7.54,25.17-3.16,12.4-7,24.47-12.64,36C612.49,490.06,662,560,662,560Z"/>
    </g>
    <g class="skinOverlapLine">
        <path d="M255,451.55c5.12,4.26,9.89,7.76,16.49,10.08,8.34,2.93,16.83,5.33,25.54,4.7,13.53-1,23.66-.92,34-10.83"/>
        <path d="M699.5,430.5c-8.67,8.39-19.56,12.22-31,14.43-15.15,2.92-31.77-2.67-43.52-12.9"/>
        <path d="M521.5,400c-8.11,8.82-17.5,13-28.56,16.82a28.27,28.27,0,0,1-12.95.71C469.29,415,462.38,412,454.5,404"/>
        <path d="M853.5,470c-6.4,6.23-13.49,7.83-22,9.13-10.93,1.68-21.54,1.57-32-2.13-6.21-2.19-13.85-9.4-19-13.5"/>
    </g>
    <path class="billyPants" d="M907.5,997.5c2-12.28,3.64-24.58,4.56-37,1.22-16.49,3.87-61.5,3.88-67.5.11-46-3.77-144-5.44-144h-184c-5.49,0-5.5,0-5.5,5.5v258Z"/>
    <path class="billyShirt" d="M779.52,507c8.7,5.53,6.93,6.92,16.48,11,1.16.5,14.5,5,14.5,5a115,115,0,0,0,34.94-16.09c6.94-4.69,16.28-18.52,16.55-18.39,13.51,6.14,27.07,12.18,40.49,18.52,11.59,5.47,23.36,10.72,34.4,17.16,7.49,4.37,15.06,9.18,20.15,16.78,7,10.47,11,22.54,17.89,33.07.53.82,0,2.25-.81,3.52-2.45,3.91-5.72,6.89-9,10-6.32,5.94-10.83,13.08-12.07,21.92L920,776c-6.13,6.21-14.33,8.53-21.92,12.16-9,4.32-19,4.91-28.15,8.68-2.9,1.2-6.6.4-9.93.68-7.17.6-14.41,2.33-21.48,1.78-18-1.38-36.13-3.22-51-15.33C786.82,783.39,775.22,504.25,779.52,507Z"/>
    <path class="fredPants" d="M188,1011.5c-.5-3.17-1-6.34-1.5-9.5a358.66,358.66,0,0,1-4.22-40.49c-.42-7.84-.41-15.68-.83-23.51-.22-4.18-1.29-8.33-1.39-12.5-.32-13.21-1.21-26.36-2.46-39.51-1-10.62-1.37-21.32-1.54-32-.24-16-.06-32-.06-48l-3.5-1h236l-8.5,1v218.5Z"/>
    <path class="fredShirt" d="M352,517.5l-19.71-39.41C320,491,310.68,496.71,299,499.88c-6.12,1.65-12.2,4.74-19,2.18-4.82-1.81-9-4.7-13.54-6.95q-15.19-7.55-15.23-24.11a4.62,4.62,0,0,0-1.71-3.5c-4.32,1.68-6.34,5.81-8.87,9.1-5.43,7.06-11.46,13.76-14.72,22.37C223.7,504.79,279.2,761.5,280,770.5Z"/>
    <path class="fredSuit" d="M127.5,839c4.42,14.24,10,27.85,21,38.49,4.72,4.58,11.12,5.63,17,5.78,12.17.3,24.5.94,36.48-2.32,3.59-1,67.44-23.45,71-26s7.06-4.85,9.5-8.5c0,0,12.18,13.67,19.54,17.43,10.8,5.51,21.91,10.47,34,12.49,7.08,1.18,14,3.16,21.53,1.82,5.32-.94,19.11-2.27,20.46-2.74,0,0-8.11-386.2-9-387-10.28-9.2-36.33-20.5-37-20.5,0,0-.12,16.52.9,25.51.83,7.37-.83,14.68-1.84,22A212.64,212.64,0,0,1,324,547c-3,10.21-6.49,20.29-9.42,30.52-3.22,11.27-5.89,22.7-9.1,34-2.77,9.73-5.92,19.35-9,29a219.91,219.91,0,0,0-7.88,34c-1.41,9.65-5.28,26-7.61,35.48,0,0-1.75-10.88-2-13-1-8-2-15-2.74-25C275,666,272,650.5,272,650.5c-2.61-7.62-5-26.5-5-26.5-2-7-1.36-17.17-3.14-24.47-4.42-18.11-8.77-36.23-12.37-54.53-2.67-13.61-5.51-27.2-6.91-41-.83-8.13-2.51-16.29-1.46-24.47.53-4.15-1.12-10-1.12-10q-18.25,13-36.5,26c-14.15,10-28.5,19.78-42.45,30.08C151.6,534,139.56,541.77,129.5,552Z"/>
    <g class="fredShirtOverlapLine">
        <path d="M281,710c0,13.67-.12,42.83,0,56.5s2.65,27.26,2.5,41c-.14,13.33,0,26.67,0,40"/>
        <path d="M129.5,763a283.79,283.79,0,0,0,16.3,28.13c6.7,10.27,11.78,21.59,17.73,32.36,5.3,9.6,10.73,19.15,17.95,27.53,1.09,1.27,1.87,2.79,3.46,3.55,4.44-.53,5.71-2.76,8.56-5.07"/>
        <path d="M187,596.5c-2,29.5-3.5,51.74-6,72a16.7,16.7,0,0,0,0,3c.42,9-.5,18-1,27-.18,3,1.19,5.67,1.75,8.45,2.74,13.75,9.5,25.85,16.09,38.15,10,18.73,21.67,36.48,32.22,54.88,3.17,5.53,6.81,10.78,10.35,16.34-1.35,4-4,6.83-8.89,6.68"/>
        <path d="M326.5,800c.94,4.41.66,9.09,5.43,12.11,5.29,3.35,11,3.56,16.55,2.73,9.89-1.47,23-5.24,23.52-5.84"/>
        <path d="M340.5,751c-6,1.33-2,.65-8,2a6.53,6.53,0,0,0-5,4"/>
    </g>
    <path class="richardPants" d="M565,1008.5V766l-3.5-1h180c5.49,0,5.5,0,5.5,5.5q0,68.25,0,136.5c0,12.71-.87,25.34-1.85,38-1,13.5-1.44,27-3.2,40.49C741.12,991.92,565,1008.5,565,1008.5Z"/>
    <path class="richardShirt" d="M710.86,464.57a7.28,7.28,0,0,0-4.36,5.63c-2.42,13.9-8.79,21.45-18.76,31.29-10.71,10.57-30.24,40-30.24,40-2.5-7.5-3.5-10.5-5.12-13.43-5.3-9.59-10.54-13.88-17.78-22.15C624.83,494.74,622,483,621,466.5c.11-1.15-2.37-2-3.84-2.66-8.38,3.57-15.39,9.35-21.65,16.16l-12,312c4.57-.88,8.82,1.29,12.93,2.3a180.55,180.55,0,0,0,38.07,4.75c7.17.21,14.37,1.63,21.49,1.3,11.55-.55,23.09-1,34.56-3.63,13.69-3.1,30.8-4.34,44.07-9.84-.62,6.12-1.53,6.45-1.7,9.62-.62,11.52-3.18,22.83-3.12,34.5s3.17,13.68,11.69,16c9.1,2.53,18.34,1.29,27.51,1.27,3.24,0,6.84.21,10-1.77,6.59-4.11,10.12-10.23,11.39-17.56,1.45-8.33,2.23-16.77,4.33-25,0,0,2.8-15.25,3.62-20.52,1.35-8.66,3.17-17.32,3.86-26,.48-6.13,2.12-12,2.6-18,.41-5.19,2-10.39,1.48-15.47-.62-6.25,0-12.4.34-18.51,1-19.33,4.12-38.51,1.54-58-1.68-12.73-2.35-25.65-3-38.49-.91-17.79-5.27-35-8-52.44-2-12.58-4.26-25.27-8.08-37.58-2.52-8.12-5.37-15.61-12-21.59-6.31-5.71-13.29-9.62-21-13.1C745.43,479.46,721.5,470,721.5,470l-8.5-5.54A2.44,2.44,0,0,0,710.86,464.57Z"/>
    <g class="richardShirtOverlapLine">
        <path d="M638,528c8,5,2,1,9.5,5.51a53.33,53.33,0,0,1,10,8s17.34-12,25-14.6c8.72-3,17.2-6.58,26.53-7.49,3-.3,6.44-2.13,6.28-5.4l.73-9c4.83,1.33,9.74,2.46,14.48,4.06A124.48,124.48,0,0,0,744,513c2.86.61,3.6-.18,3.07-3A35.5,35.5,0,0,0,743,499.5,112.79,112.79,0,0,0,719.5,470"/>
        <path d="M739,583c2.34,7.15,2.84,31.61,3.43,39,1.38,17.13,3.48,34.26,2.5,51.49-.82,14.52-2.18,29-3.46,43.5-1,11.84-2.24,23.67-3.5,35.5-.69,6.51-2.19,29.3-4,34"/>
    </g>
    <path class="tomPants" d="M396,1011.5c.52-2.4-1.9-15.5-2.87-20q-3.58-16.62-6.06-33.48c-2.11-14.13-3.59-28.34-5.61-42.48-2.09-14.64-4-29.29-5.47-44-.71-7.33-.68-14.71-1.84-22a48.22,48.22,0,0,1-.15-6,160.52,160.52,0,0,1-2.42-28c0-10,.59-20,.92-30L478,737c13.83,4.67,27.63,9.45,41.51,14,15.79,5.13,31.66,10,47.49,15,6.18,2,12.3,4.12,18.52,5.92a4.41,4.41,0,0,1,3.55,3.55c1.63,5.78.84,11.71,1.17,17.53.13,2.42.42,5,.34,7.49-.49,15.5-.53,31-1.15,46.5q-.69,17-2.5,34c-2.08,19.2-4.48,38.36-7,57.5-1.61,12.37-3,24.82-5.67,37-2,9-2.72,18.39-6.29,27Z"/>
    <g class="tomVest">
        <path d="M545.5,463c5-2.65,9.55-2.65,15.1-.24,8.95,3.89,18.86,5.57,27.82,9.43s18.09,7.15,26.06,12.84c5.24,3.74,8.47,8.7,8,15.47L591,748.5c.67,5.5,1.52,11,1.92,16.51.2,2.81,2.08,14-8,18.88a326.46,326.46,0,0,1-36,16c-10.06,3.88-20.72,5.44-31.44,6.78-4.9.62-8-1.54-9.83-4.79-2.29-4-3.31-8.85-4.66-13.4-2.43-8.17-2.13-16.6-2-25l-50,1c.16,13.42,0,26.82-3,40-.82,3.55-1.14,7.72-6,7.93-4.32.18-8.81.37-13-.55-11-2.43-21.93-5-32.53-8.88-7.34-2.65-15.16-3.93-22-8-3.46-2-7-7.87-5.94-11,3.65-10.91,4.52-22.14,4.45-33.52L347.5,509c.24-7.5,1.33-14.3,7.87-19.66,5.38-4.42,11.56-7.6,17.34-11C385.2,471,398.77,465.53,412,459.6c3.32-1.48,6.36-4.24,10.46-3.6L481,535Z"/>
    </g>
    <g class="tomShirt">
        <path d="M435,543.5c-3.5-9.83-7.24-19.59-10.45-29.52-5-15.6-10.83-31.09-9.58-48a25.67,25.67,0,0,1,3.08-11c5.12-9,13.34-14.86,22-19.89,2.69-1.56,8.63-4.19,12.42-2.64,0,0-5.22,9.81-7.5,16.5-3,13-5,23,2.12,36.41A170.21,170.21,0,0,0,475.49,514c6,4.62,5.71,4.37,11.57-.44,8.08-6.63,15.11-14.23,21.93-22.08a89.6,89.6,0,0,0,13.3-20.59c3.47-7.39,3.88-15.73,2.17-23.89-.7-3.36-3.07-13.73-1.91-15s10.91,3.4,14,6.36c5.58,5.28,12.1,9.39,16.13,16.47A15.93,15.93,0,0,1,554.46,467,190.39,190.39,0,0,1,543,501.51c-6.89,16-14.24,31.78-20.32,48.06-4.19,11.24-7.73,22.74-9.51,34.88-1.8,12.34-4.07,24.61-5.18,37-1,11-1.78,22-2,33a99.78,99.78,0,0,1-1.06,15c-1.15,6.51-.41,13-1,19.51-1.16,13.5-.88,27-.94,40.51l-47.75.5c-.18-6-.52-12,.23-18,.46-3.74,1.17-7.53.94-11.25-1.22-20.08.11-40.29-3.36-60.26-1.23-7.1-1.73-14.32-2.56-21.49Z"/>
        <path d="M390,637.5c0-9.74-2.55-19.06-4.18-28.55-1.39-8.07-2.46-16.17-4.18-24.23-2.61-12.26-5.94-24.27-9.61-36.23-1.17-3.78-2-7.66-3-11.49,0,0-.59-6.37-1.28-7.87-4.91-10.81-8.37-22.14-12.84-33.08-.49-1.21-1-3.17-2.88-3.55-2-.11-3.33,1.15-4.49,2.51-7.69,9-13.81,18.4-15.33,31-1.49,12.35-1.51,24.72-2.74,37-.88,8.87-2.68,17.65-3.31,26.52-.46,6.48-.3,13-1.16,19.49-.94,7-2.46,14.14-2.55,21-.12,8.3-2.85,15.92-3.59,24-.47,5.21-2.19,10.43-3.62,15.44-2.77,9.73-2.36,19.33-1.69,29.08A79.33,79.33,0,0,0,325,734a62.11,62.11,0,0,0,19.11,19.89c8.34,5.61,20,7.5,28.92-1.94,8.23-8.66,15.11-18.46,19.34-29.55a75.36,75.36,0,0,0,4.18-38.93Z"/>
        <path d="M557,706.5a36.14,36.14,0,0,1,11.3-14.26c6.44-5,13.5-10.64,14.59-19.75a137,137,0,0,0,1-22c-.46-10.85,0-21.68-.49-32.51-.15-3.66.33-7.46-.5-11-2.25-9.58-1-19.07.2-28.52.9-7,4.7-22.14,5-23,2-6.51,3.35-13.43,6.24-19.37,4.81-9.9,8-20.44,13.14-30.18,3.06-5.81,6.31-11.36,11-16,2.15-2.09,3.8-1.94,6.07,0,8.91,7.53,10,18.12,11.44,28.55,1.12,8,2,16,3,24,.87,7.16,1.75,14.33,2.49,21.5.76,7.33,1,14.72,2.15,22,.63,4,.15,8,1.16,12.07,1.76,7.15,2.45,14.59,3.14,22,.68,7.13.42,14.45,1.36,21.45A222,222,0,0,1,650.9,676c-.12,5.24,1.84,10.35,1,15.49-1.44,8.93-2.3,18-5.77,26.57s-8.22,15.86-15.71,20.83c-15.2,10.09-32.25,16-49.93,20.13-8.73,2.06-15.53-1.83-18-10.52Z"/>
    </g>
    <g class="skin">
        <path d="M562,698.5c-5.57.51-9.52,4.63-14.48,6.56-8.91,3.46-17.56,7.64-26.56,10.82a210.33,210.33,0,0,1-22.48,6c-2.91.68-5.68-1-8.52-1.8-7.31-2.14-14.61-4.31-22.46-4.23-9.39.09-17.71,3.6-25.95,7.21A152.2,152.2,0,0,0,418,736c-6.75,4.53-7.91,11.23-5.8,18,3.61,11.57,7.34,23.17,15.74,32.63,7.66,8.63,15.89,13.42,28.13,10.67,8.69-2,17.5-3,26-6.09,9.54-3.52,17.42-9.39,24.32-16.28C517,764.27,530.46,760.24,544,756c8.61-2.67,17.36-4.93,26-7.58,3.72-1.14,5-4.27,5-8A79.1,79.1,0,0,0,570.48,712c-1.79-5-3.26-10.22-8-13.51Z"/>
        <path d="M413,596c-.86,6.38-4.07,11.49-8.49,16-10.7,11-21.6,21.76-31.92,33.07-6.52,7.16-13,14.33-20.15,20.85-9.09,8.33-10.23,17.38-5.64,28.65,4.39,10.75,10.78,19.45,20.25,25.85,5.41,3.66,10.26,2.75,14-1.89,5.51-6.83,9.34-14.67,13.91-22.06,9.2-14.87,17.6-30.21,28.4-44.09,4.23-5.43,8.35-11,12.64-16.39s10.54-7.6,16.54-9.88a64.51,64.51,0,0,0,20.31-12.28c9.06-8.17,15.29-18.46,17.12-30.84,1.48-10,.08-20-1-30a39.93,39.93,0,0,0-14.5-27c-3.84-3.27-7.52-3-12-.59-6.34,3.45-12.93,6.46-19.47,9.56-14.14,6.71-21.83,18.58-25.89,33a150.19,150.19,0,0,0-3.94,21C412.9,591,413,596,413,596Z"/>
        <path d="M197.48,860.24a71.85,71.85,0,0,1,1.46,8.26c.15,9.33,4,17.42,8,25.52,3.31,6.64,7.91,12.37,12.67,17.87,3.41,3.94,8.58,5.38,13.86,6.17,8.67,1.3,16.83-.73,25-3.06,19.48-5.54,24.57-19.23,24.26-35.5-.13-6.55-3.69-12.77-7.26-18.5-6.82-10.93-15.72-19.17-27.91-24.22-6.38-2.64-13.13-5.85-16.38-13.46-13.34,7.51-25.89,15.2-37.22,24.92A103.42,103.42,0,0,1,197.48,860.24Z"/>
        <path d="M288.5,735.5c-9.56-1.51-19.05.23-28.48,1.18-5.42.55-11.22.62-16.09,4.22a8.52,8.52,0,0,0-3.4,5.11c-2.26,9-.16,17.75,1.95,26.49,4.57,18.92,30.12,35.08,48.53,35.77,8.18.3,16.76-.51,24-5.7a17,17,0,0,1,6.46-2.51c5.91-1.15,7.92-2.93,8.47-8.56.6-6.16,1.78-12.39,1.32-18.48-.52-6.72-.64-14.29-9.27-17.11a14.31,14.31,0,0,1-7.53-6.41C309.65,741.55,288.5,735.5,288.5,735.5Z"/>
        <path d="M775,848.5c-.74,9.92,2.33,19.07,5.46,28.26,4.41,13,3.29,25.54-1.78,38.31-3.74,9.44-7.62,18.4-16.19,24.41C753.63,945.7,744,949.09,733,947a14.18,14.18,0,0,1-5.1-2.32c-7.94-5.18-12.67-12-12.94-21.64-.16-6.17-1.24-12.28-1-18.5.26-8,2.78-15.21,5.52-22.52,3.22-8.64,9.9-15.33,13.07-24,1.37-3.74,2.91-7.4,2.48-11.51Z"/>
        <path d="M959.25,594c1.75,11,2.75,19,2.91,27.47,1.56,9,1.82,28.7,1.84,29.53.29,11.83.25,23.68.3,35.5.05,13.16-1.26,26.35-2.36,39.5-1.06,12.68-2.27,25.38-4.06,38-1.22,8.59-3.66,17-5.34,25.53-1.26,6.35-1.72,12.86-4,19,0,0-.52,6.15-1.13,9-2,9.27-4,18.36-3,28,.75,7.57,3.39,14.63,4.55,22,2.4,15.24-1.88,28.91-11.4,41-1.68,2.13-3.62,4-5.48,6-7.74,8.21-15.34,16.86-28,16.41-5.78-.21-11.44-1.67-15.49-6.42-3.69-4.34-4.87-9.92-6.93-15-2.22-5.52-3.43-11.22-.18-17,.82-1.46.56-3.61.58-5.44,0-6.4.23-12.76,2-19,3.29-11.66,8.59-22.14,17-31.06a18,18,0,0,0,4.65-8.91c1.44-7.29,1.18-14.79,2.57-22,2.84-14.77,1.75-29.7,2.81-44.53.26-3.65,2.09-26.23,2.32-34,.13-4.38.88-35,1.43-46,1-20.29.36-40.67-.66-61C913.72,614,914,614,921,613a51.4,51.4,0,0,0,8-2C940.5,607.25,959.25,594,959.25,594Z"/>
    </g>
    <path class="frame" d="M1,1H1126V1126H1ZM137,134.5a37.52,37.52,0,0,1,1,9.5c-.64,26.18.85,52.34,1.34,78.49.26,14.33-.12,28.7.71,43,2.11,36.65-.26,73.36,1.11,110,1.54,41.18-.24,82.36,1,123.51,1.85,63.67,1,127.34.6,191-.22,34.66.3,69.36-.93,104-.92,25.69.3,51.38-1,77-1,19.52.3,39.06-1,58.5-1.14,17-.28,34-.75,51,0,1.15-.61,2.46.46,3.5l-2,1.5c.5-.33,1-1,1.5-1a173.16,173.16,0,0,0,27.51-.39c13-1.08,26,.29,39-1,12.58-1.25,25.3.31,38-1s25.29-.11,38-1c20.61-1.37,41.31.24,62-1,22.95-1.41,46-.83,69-.87,91.83-.15,183.67-1.45,275.5.59,29.33.65,58.68-.22,88,1.07,13.83.61,27.65-.28,41.52.82,16.76,1.31,33.66-.59,50.49,1.11,9.78,1,19.63-.18,29.51.88,11.07,1.19,22.31-.14,33.49,1.08,9.93,1.09,20,0,30,.89,12.42,1.11,25-.37,37.44,1.59.2-1.85.48-3.35.52-4.85.35-12.67.16-25.32.81-38,1.16-22.63.15-45.31,1-68,1.26-33.8.78-67.67.9-101.49.31-85.16,1.5-170.34-.64-255.5-.78-31,0-62-.83-93-1.42-52.81.6-105.66-1-158.5-.65-21.47-1.26-43-1.19-64.49.06-20.84-1.75-41.65-1-62.5a17.18,17.18,0,0,0-.55-3c-6.1.12-12.27-.44-18.44-.85-12.3-.83-24.66-.43-37-.84-25.49-.86-51-1.41-76.49-2.15-35.82-1-71.66-.29-107.5-.81-51.16-.75-102.34-1.33-153.5-1.21-70.33.17-140.67-1.11-211,.79-42.15,1.14-84.34-1-126.5,1-18.81.9-37.66.2-56.51.76-22,.65-44,1.3-66,1.3-2,0-4-.25-5.5,1.51Z"/>
</svg>
