<svg viewBox="0 0 1412 1882">
    <rect class="frame" x="1" y="1" width="1410" height="1880"/>
    <path class="fur" d="M730.07,1646.53c-2.07,5-2,7.43-.42,10.79-2.84,3-6.47,5.74-7.64,10.18-.39,1.49-1.32,3.22-.9,4.46,2,5.88-.79,10.46-2.94,15.61a31.61,31.61,0,0,0,.44,25.88c1.81,4,1.79,7,.16,11.15-1.81,4.61-1.37,10,.66,14.93,1.43,3.54,2,6.39-2.76,9.25a18.9,18.9,0,0,0-9,18.21c.56,6.75-.93,13.3-.73,20,.47,16.43,17.79,30.71,36.1,24.5,3.53-6.58,9.49-3.11,14.5-3.49a24.42,24.42,0,0,0,15-6.54c1.2-1.11,2.81-2.59,2.89-4,.26-4.78,4.2-5.67,7-8.16,6.17-5.52,11.18-12.13,10.16-21.33a13.4,13.4,0,0,1,2-9c6.17-9.51,6.4-19.69,2.86-30a23.8,23.8,0,0,1-.75-14.5c1.92-6.76-2.63-19.54-2.63-20l1.5-1.5c3.17-1.33,6.5-2.38,9.47-4.06a30.74,30.74,0,0,0,13-14,14.55,14.55,0,0,1,7-7.09c5-2.59,8.51-6.64,11.19-11.83,3.16-6.11,7-11.67,12.67-16.3,8.31-6.74,11.25-16.5,9.66-27.27-.73-4.94-.21-9.15,2.82-13.64,3.15-4.66,5.29-10.31,2.78-16.39-.33-.79.26-2,.43-3,18.07,2.92,23.51.12,30.73-6.72,4.88,4.9,11.15,5.79,17.76,6.33s91.2-10.42,97.5-9.93c10.55.83,19.59-1.46,27-9.21a5.75,5.75,0,0,0,.92-2c19,9,51.2-1.13,57.25-17.85,7.06,3.84,12.95,1.59,18.4-3.58,3.14-3,7.82-2.56,11.59-4.82,5.85-3.49,9.83-8.26,13.43-13.86,3.31,1.52,7,.72,10.44,1.64.56,9.49,5.86,15.57,15.49,18,2.94.75,5.37,2.5,5,6-.71,6,3.18,9,7.61,10.86,4.24,1.78,4.61,3.82,3,7.68-2.18,5.28-3.59,10.88-1,16.42a3.81,3.81,0,0,1-.23,3.49c-6.19,12.3-1.1,27.82,6.34,33.78,7.87,6.3,26.47,21.53,26.43,24.28-.05,3.46,3.5,3.92,5.85,3.86,5.25-.15,10.89,1.61,15.58-2.78,1.62-1.52,4-.63,5.93.4,7.3,3.84,14.38,2.37,18.92-4,.44-.63,1.38-1.26,1.1-2.46-1.11-4.64,2.21-8.25,3-12.48,2.5-13.11,3-17.86-8.58-26-2.06-1.45-1.22-3.8-2.35-5.61-2.73-4.36-1.74-9.2-.63-13.93,1.79-7.66,3.67-15.33-.86-23.77,5.52,1.5,10.14,1.59,12.56,7.19,1.5,3.49,5.64,5.39,9.33,5.95,11.91,1.81,23.65,1.52,33.42-6.94,2.58-2.24,5.39-4.94,5-8.92-.26-2.66,1.85-3.47,3.06-5,3.06-3.89,7.47-7.15,6.47-13-.61-3.58-.79-7.2-3.88-10.09s-4.29-7.36-5.53-11.43c-2.28-7.42-6-13.48-13.55-16.5-2.26-.9-3.43-2.69-4.66-4.9-2.89-5.2-6.15-10.32-12.84-11.64a9.83,9.83,0,0,1-7.47-6.45c-3.61-9.62-10.42-15.86-20.06-18.92a16.36,16.36,0,0,1-9.46-7.08c-8.13-13.16-12.44-16.24-27-19,.36-3,1.46-5.87.54-9-2-6.87,3-11.37,6-16.47,3.64-6.22,6.3-12.64,6-20a7.79,7.79,0,0,0-1.5-5c-3-3.61-1.72-7.15-.11-11,2.43-5.82,3.67-12.31-1.06-17.32-4.31-4.58-3.44-9.18-2.32-14.13,1.92-8.5,2.07-16.5-5-23.06-.87-.8-1.16-2.23-1.88-3.69,3.32-2.43,4.39-5.74,4.46-9.76a5.39,5.39,0,0,1,4.35-5.61c3.69-.94,6.91-3.16,10-5.39a18.51,18.51,0,0,0,7.63-11.47c1-4.29,2.91-7.42,8.25-9.37,11.94-4.38,20.39-13,23.12-26.16a.94.94,0,0,0,0-.5c-2.81-6.23,1.94-7.41,5.85-10.22,5-3.59,10.52-6.81,13.33-13.2,3.23-7.33,3.22-14.28.85-21.59-.31-1-1.52-5-1.52-5,3.86,1.78,11.71.63,15.53-2,2.58-1.75,4-1.54,4-1.54,2.81,4.07,5,9,11.52,7.57,2-.44,3.24,1.86,4.37,3a18.55,18.55,0,0,0,10.6,5.44c7,1.32,9.37-.63,9-8-.06-1.13-.19-2.28,1-3a150.68,150.68,0,0,0,13.06,10.41c2.66,1.79,5.64-.33,6.45-3.91,1.16-5.11.32-10.13-1.06-15-4.83-17-14.26-31.33-26.41-44-5.45-5.72-10.63-11.62-18-15-1.12-.52-1.62-2-2.16-3.38-7-18.73-17.59-35-35.49-44.84-7.08-3.89-14.65-7.44-23.37-7.92a28.91,28.91,0,0,0-19,5.16c-4.18,2.88-8.46,5.34-14,2.7-2.27-1.07-5,.75-6.89,2.4-1.54,1.31-3.36,2-5,3-4.23,2.7-7.43,1.22-10-2.12-5-6.52-11.26-11.39-19.08-13.84-2.62-.82-5.45-1.73-8.47-1.18-4.91.9-8.61-.48-11.12-5.38-1.71-3.35-4.71-5.7-8.2-7.85A11.65,11.65,0,0,0,1149,1048c-5.84,1.81-9.45,0-12-6-5-12-14-17.18-27-17.77-7.29-.33-39.87-6.11-40.51-6.24-10.54-2.13-15,.55-19.08,10.49-2,4.83-1.51,9.66-1.37,14.53.11,4.17-1.24,6.62-5.5,8.14-5.31,1.89-8,7-9.37,11.91-2.12,7.47-2,15.21,2.86,21.92,4,5.46,5,12,7.29,18.1.83,2.21,3.43,3.3,3.28,6.06-3,1.5-6.22,2.2-9.16,3.78-7.2,3.86-11.8,17.23-5.91,26.06,2.16,3.23,2.66,5.82.59,9.6-5.58,10.23.39,25.52,11.41,29.84a24.29,24.29,0,0,1,7,4.08,6.28,6.28,0,0,1,2.57,4.5c1.13,11.24,7.07,19.63,16.51,25.37,2.55,1.55,5.34,3.12,8.9,3.35,5.39.36,7.69,4.12,7.47,10.29-.1,3.07,0,5.9,2,8.53,2.63,3.5,2.14,8.46-1,10.86-6.2,4.66-8.35,10.79-8.42,18.11a13.65,13.65,0,0,1-5,10.48c-3.13,2.74-5.61,5.89-6.46,10-.53,2.59-2.43,3.15-4.53,3.48-6.83,1-9.44,3.23-11,10-1.17,5.26-4.14,8-9.53,8.55a21.5,21.5,0,0,0-12.3,5.65c-4,3.82-8.62,4.23-13.22,5.23-17.47,3.81-34.91,7.87-52.52,10.91-13.9,2.4-27.61,5.62-41.46,8.22-14.22,2.68-28.3,6.15-42.52,8.86-11.53,2.2-23,4.56-34.52,6.92-3,.61-6.41-.4-9.44-1-11.13-2.26-19.19,3.2-27.31,9.54-14.8-6.39-28-3.08-41.71,10.61-9.9-1.77-19.07-1.35-27.7,5.26a72.05,72.05,0,0,1-10.81,7.25s-8.87-18.76-20.94-23c1.22-10.53.1-19.64-9-26.09l-2-1.43c3-9.25-.11-19.48-8.15-26.13.87-2.57,2.33-5.18,2.54-7.88.48-6.3-2.32-12.82-10.87-13.68-6.21-.62-7.67,3.84-10.54,7.17s-2.68,7.67-3.33,11.55c-1.23,7.35-4.61,14.26-4.23,22,.24,4.93-.2,9.82,2,14.53A27.17,27.17,0,0,1,667,1352c.07,11.52,2.48,22.72,10.29,31.22,3.42,3.73,3.8,6.22,2.72,10.29-2.4,9,.92,16.81,6.05,23.93a13.52,13.52,0,0,1,1.92,5.06c-14.57,9.36-21.7,22.68-22.13,40-.13,5.23-.72,10.15-6.15,14.28-8.72,6.64-12.53,16.69-13.83,27.71-.69,5.78-1.45,11.41.62,17,1.54,4.14.21,8.06-1.61,11.46-6,11.14-6.19,22,.06,33.07a29.49,29.49,0,0,1,2.51,6.49c2.11,7.48-2.24,13.3-10,13.49-7,.17-11.33,3.41-14,10.5-.76,2-1.54,4-2.3,6.06-10.13-2.79-18,4.55-22.57,12.51-1.52,2.65-3,5.09-5.65,6.39-12,5.81-17.06,16.15-18.34,28.55-.72,7-4.23,12.24-8.71,16.92-6.28,6.57-9.4,14.42-11.55,23-1.5,6-6.06,10.22-10.85,14.06-7.84,6.29-12.85,14.4-14,24.48-.59,5.42-1.08,11.14,4.91,14.52a2.12,2.12,0,0,1,1,1.47c.53,11.22,8.55,13.71,17.51,15.62,3.43.74,7,1.5,10.07,3.82,8.56,6.47,21.89,4.27,28.46-4.44,0,0,1.19-2.45,1.5-2.43,5.62.31,9.21-3.51,12.94-6.64,4-3.36,8.23-7.53,7.82-12.91-.56-7.44,3-12.45,7.23-17.53,5.08-6,8.3-13.51,7.65-21-.75-8.68,2.47-14.9,7.37-21s8.65-12.31,6-20.51l2.5.5c7.56-2.44,15.11-.36,22.46.77,4.56.71,8.39-.74,11.93-2.06,4.24-1.6,7-6,9.15-10.38,1.33.39,2.67.72,4,1.18,6.15,2.23,12.21,2.09,18-1.1a12.35,12.35,0,0,1,4-1.39c5.56-.9,11.22-1.32,16.5-3.52A7.62,7.62,0,0,1,730.07,1646.53Z"/>
    <g class="furOverlapLine">
        <path d="M803.5,1554c-3.76,10.29-11.76,17.4-23,18-3.35.17-3.4,1.89-2.53,4.52,2.86,8.62-2,22.49-9.45,26.52-2.86,1.55-5.94,1.93-9.62,2.12,2.58,18.55-12.82,29.87-27.4,35.85"/>
        <path d="M1321,1121.5c-3.3-4.78-9.94-3.44-14.55-4.23-6-1-12.34-2.27-18.5.63-2.74,1.3-4.25-1-5.5-3.37-3.92-7.6-9.1-13.8-18.45-14.5-2.46-.19-2.21-1.79-2.56-3.52-1.72-8.27-7.17-12.53-15.94-12.46-2.66,0-4.48-.48-6.12-3s-4.26-4.93-7.88-5.08"/>
        <path d="M801,1545.5c.18,9,7.51,18.06,19.5,21.5a66.89,66.89,0,0,0,26,1.88c2.43-.26,3.61-.35,5.14,2,3.12,4.89,5.94,7.63,11.87,8.08"/>
        <path d="M1150.5,1519c8.53-.29,16.22-5.15,20.88-12.08,1.56-2.34,2.68-2.57,5.14-2,7.17,1.67,14.36,2.63,20-4.23,3.59,2.76,7.18,5.59,12.36,2.22,1.14,4.16,1.68,8.09,3.54,11.6,3.92,7.35,10.06,12,18.06,13.29,4.08.67,4.61,2.59,4.45,5.69-.38,7.13,2.81,12.48,8,17,1.82,1.61,6.1-.15,7,3"/>
        <path d="M1051,1496.5c2,8.78,4.59,12,14.52,14.42a36.36,36.36,0,0,0,17.55-.4c6.55,8.31,15.6,11.61,26.43,10.5,6.91-.71,13.3-2.33,17.62-8.6,3.46,2.24,6.8,6,11.38,5.58"/>
        <path d="M1215.5,1427c-2.5-.08-4.77.13-7.09-1.9-6.81-6-14.54-6-22.39-2.07-3.93,2-7.62,4.43-11.56,6.4-1.27.64-2.72,1.67-4.5.12-6.48-5.61-13.85-4.1-20.36-.85-6,3-12.43,4.25-18.68,6-2.11.59-6.64,1.8-7.76-4.14A13,13,0,0,0,1112.5,1420"/>
        <path d="M1048.5,1108c5.41,4,7.56,7.32,14,9"/>
    </g>
    <path class="nose" d="M1112,1033.5c.22-4.7,1.59-9.15-.39-14.06-3.6-8.9-9.79-14.86-18.16-18.92-2.28-1.11-4.68-2-7-3-10.68-4.84-23.6,3.29-25.28,15.47-2.51,18.18,6.08,27.34,18.33,32.41,6.71,2.78,14,3.5,21,.13C1100.5,1045.5,1111.74,1039.84,1112,1033.5Z"/>
    <path class="mouth" d="M1061.5,1122c1.76,6,4.67,11.29,10,15,1.58,1.12,2.86,2.21,5,2.62,3.48.65,7.14,2.35,8.41,5.88,1.85,5.2,5.79,7.91,10.12,10.46l1,1c-9.33,5.85-26-.8-30-12a8.73,8.73,0,0,0-3.91-5.15c-6.27-3.84-7-8.46-3.64-15.38,1.18-2.45,3.17-4.22,4.55-6.47Z"/>
    <path class="sock" d="M411,1441c-16,11.5-31.77,23.31-47.89,34.66-7.33,5.17-14.39,10.82-22.18,15.22-13.78,7.79-26.2,17.56-39.27,26.35-11.57,7.78-22.65,16.37-34.22,24.18-9.94,6.7-19.24,14.24-29.27,20.85-8.49,5.59-15.42,13.5-23.2,20.21-6,5.17-11.94,10.36-17.46,16-1.43,1.47-65.84,1.16-66.51.49,0-7.49.24-55,2.49-56.51,11.64-7.55,22.6-16.16,35-22.44,2.55-1.29,4-3.64,6.36-5.22,8.28-5.57,16.75-11.16,23.93-18s14-14.35,20.85-21.65c11.49-12.22,20.84-26.09,31.72-38.75,6.59-7.67,12.08-16.26,18.12-24.41,9.28-12.53,17.7-25.76,28.12-37.38,5.08-5.68,11.57-10.09,17.35-15.14,2-1.72,96,80.19,96.52,81Z"/>
    <path class="shoe" d="M169.5,1518.5c-4.15-3.23-9.2-5.36-14-5.4a80.59,80.59,0,0,0-36.49,8.42c-6.56,3.21-13.19,6.34-19.46,10.06-8,4.73-12.8,11.4-12.65,21.42.33,21,1.4,68.76,5.07,70.09,13,4.73,9.68,2.64,11.57,14.9s3,24.38,4.79,36.54,5.1,24.06,8,36a13.25,13.25,0,0,0,1.24,3.9c6,8.61,9,19,15.9,27.07a145.49,145.49,0,0,0,14.24,14.29c12.47,11.1,27.63,10.85,42.28,12,15.25,1.15,30.66.57,46,.16,11.18-.31,22.33-1.61,33.5-2.38,4.8-.33,6.89-4,7.32-7.54,1.18-9.79,2.48-19.74-.36-29.47-3.7-12.67-11.68-21.1-24.39-25.71a102.74,102.74,0,0,0-21.91-5c-.89-4-1.21-8.31-4.17-11.75-.77-.89-1.64-2.38-2.49-2.4-6.91-.12-5.79-6-6.27-9.64-.8-6.13-1.72-12.35-1.95-18.48-.16-4.38-1.29-9,.58-13.55.89-2.16-.15-4.9,0-7.45.44-10.15,1.61-20.37-.37-30.48-1-5.36-2.8-10-7.81-13.7-8.7-6.41-18.49-9.37-28.65-11.78-2.79-.67-5.66-1-8.49-1.53-6.49-1.14-12.07.46-16.67,5.75-4-3-3.67-7.67-4.86-11.74a80.14,80.14,0,0,1-2.92-25c.25-9,5.38-15.47,11.95-21Z"/>
    <g class="coatInner">
        <path d="M305.5,168c-6.8,9.27-75.94,85.05-78.5,85-8.83-.07-17.67.14-26.5-.16-2-.06-4.33,2.59-5.9.07-1.33-2.13-1.55-4.83-1.62-7.44-.28-9.89,3.68-18.66,8.19-26.9,5.1-9.31,10.75-18.54,18.42-26,8.11-7.9,16.83-15.19,25.46-22.53,2.58-2.19,58.62-2.73,60.45-2.56Z"/>
        <path d="M282,1058c-5.37-1-10,1.92-14.4,3.74-12.12,5-24.21,10.21-35.56,16.82-9.56,5.57-19.16,11.07-28.66,16.74-14.19,8.47-27.2,18.55-40.89,27.69-4.1,2.73-15.35,13.13-17.46,15-8.73,7.91-18.25,15-25.65,24.37-2,2.49-5.55,3.65-7.94,6.83C95.38,1155,84,1137.7,72.55,1120.47a12.34,12.34,0,0,1-2-8.91c7.12-2.18,25.68-8.22,26.52-11,1.74-5.81,3.94-11.48,6-17.38-5.59-8.09-11.44-16.71-18.7-24.05-9.86-9.95-17.05-21.62-23.85-33.63-3-5.38-6.44-10.55-8.76-16.39-.81-2-6.28-11.86-7.19-16.6-3-15.33-4.68-30.8-3.63-46.48.89-13.29,4.16-25.77,11.55-37a8.75,8.75,0,0,1,4.93-4.16C82.63,896.57,638.84,738,641,738c0,2.13,0,300.83.08,448.5a12.82,12.82,0,0,1-3.55,9.53c-11.46,12.29-21.28,25.84-27.38,41.53-5.56,14.27-11.84,28.27-15.37,43.39-3.67,15.73-49.4,177.74-53,179.74-2.53-3.9-4.87-7.57-7.28-11.18-3.44-5.17-7.21-10.18-12.53-13.44a195.82,195.82,0,0,0-28.88-14.77c-8-3.21-16.38-5.72-23.23-11.63-2.81-2.43-158.13-97.59-168.75-105.81a262.93,262.93,0,0,1-30.53-28.43c-3.95-4.22-9-6.92-13.19-10.8-2.88-2.67-6.66-5.15-10.42-6-15.92-3.38-31.74-7.23-47.94-9.35-11.92-1.55-23.38-5.12-32.56-13.79-3.78-3.57-4.48-8.8-1.38-13a351.14,351.14,0,0,0,21.36-32.09c5.93-10.18,11.45-20.61,17-31,4.92-9.12,9.34-18.53,14.62-27.43,5.39-9.1,10.94-18.24,17.57-26.42a197.9,197.9,0,0,1,23.77-25.21C268.17,1072.87,282,1058,282,1058Z"/>
    </g>
    <path class="pants" d="M603.49,1169.51c6.79,5.4,13.31,10.94,21.4,14.72,7.79,3.65,14.87,8.78,23.07,11.89,6,2.28,11.72,5.22,18,7a79.34,79.34,0,0,1,20.09,9.27q13.76,8.64,28,16.52c15.59,8.66,30.09,19.08,45.5,28,14.2,8.23,28.5,16.31,43,24,8,4.23,16.58,7.53,25,11.06a48.27,48.27,0,0,1,12.05,7,10.28,10.28,0,0,0-.88,8.47c1.85,4.67-.71,7.6-2.65,11.09-4.94,8.91-3,17.87,1.64,25.88,4.69,8.17,5.17,16.86,5.19,25.6,0,12.14-3.72,23.76-6.38,35.5-1.77,7.76,1.44,13.75,7.94,18.11,13.57,9.12,27.19,6,40-.36,13.77-6.82,28.13-12.08,42.17-18.13,16.62-7.17,33.77-13.11,50.38-20.28,7.3-3.15,15.17-4.71,22.09-8.81,13.35-7.9,25.22-17.31,30.36-32.57,3.89-11.55,7.39-23.59,1-35.41a231.09,231.09,0,0,0-14-22.5c-5.83-8.36-8.38-17.46-8.51-27.55-.07-5.18-.11-10.44-1.84-15.52-.85-2.51.38-5.09-.32-8-4.49-18.69-14.1-34.29-27.26-47.93a422,422,0,0,0-45.55-40.43c-12.6-9.75-25.83-18.71-37.9-29.12a505.07,505.07,0,0,0-46.5-35.53c-4.78-3.24-9.08-7.21-13.52-11-2.95-2.48-4.55-5.9-2.92-9.43,4-8.7,3.39-17.64,1.79-26.53a34.34,34.34,0,0,0-9.13-17.29c-3.59-3.77-4-7.49-2.61-11.17,4.69-12.14,5.88-24.91,7.81-37.57.28-1.79-305.07-56.85-308.32-54.78-11.91,7.59-23.42,15.94-33,26.4-3.83,4.18-6.34,9.57-8.64,14.88-5.35,12.37-13.93,22.84-20.56,34.47-7.73,13.56-15.52,27-21.47,41.52-7.87,19.15-16.47,38-23.75,57.41-5,13.45-10,26.88-14.2,40.61-3.34,11-7,21.92-9.92,33-3.36,12.74-6,25.66-9.1,38.48-1.89,7.9-3.51,15.79-3.61,24,0,3.11-3.2,4.9-5.33,7-2.63,2.63-6,4.08-9.06,5.93-7.43,4.45-10,11.22-10.6,19.52a43.62,43.62,0,0,0,2,15.54c1.48,5.07-1.73,9-4.94,12.42-11,11.62-22.6,22.76-33.34,34.65-7.62,8.43-14.09,17.76-11.23,30.43a14.64,14.64,0,0,0,2.71,6.39c11.37,13,20.21,27.93,31.27,41.2a111,111,0,0,0,16.75,15.74c8.24,6.54,17.25,12.1,25.88,18.15a172.11,172.11,0,0,0,33.56,17.86c13.31,5.48,29.82.22,39-11.36,5.55-7,9.71-15,14.43-22.55A189.05,189.05,0,0,1,489,1389c7.36-8.13,15.37-15.7,22.33-24.14a77.08,77.08,0,0,0,11.54-19.43c1.82-4.41,4.33-8.35,6.5-12.51,6.5-12.45,13-24.83,17.4-38.35,2.49-7.63,6.53-14.86,9.36-22.54,2.59-7,5.35-14,8.15-20.94,3.72-9.19,7.45-18.41,11.25-27.59,4.06-9.79,8-19.73,13.13-28.92,4.69-8.31,6.37-18,12.31-25.61C601,1169,601.8,1168.16,603.49,1169.51Z"/>
    <path class="pantsDisplayLine" d="M706,982.5c-3.82,9.72-6.33,19.85-10.07,29.66C688.86,1030.67,673,1068,667.5,1073"/>
    <g class="pantsFoldLine">
        <path d="M900,1295.5c-5-.5-13.72.38-16,.77-17.63,3.07-28,8.35-44.55,14.73"/>
        <path d="M377,1226.5c.53,13.36,5.53,22.57,12.36,34.09,2.29,3.88,4.64,8.41,6.64,11.91"/>
        <path d="M873.5,1254c-16.59,11.18-25.84,26.75-33.5,44.5"/>
        <path d="M355,1274.5c1.16,5.68,4.72,8.89,8.48,13,2,2.19,2.52,4.48,6.52,7"/>
        <path d="M878.5,1395c-7.5,4-9,6.24-15,9"/>
        <path d="M1003.5,1343c-4.8,1.45-10,2.28-14.5,5"/>
    </g>
    <g class="pantsCreaseLine">
        <path d="M594,1043.5c2.83,6.5,6.09,12.85,8.39,19.54a118,118,0,0,1,5.25,24.44c1.38,11.69,2.2,23.37.76,35-1.74,14-4.14,32.68-7.4,46.51"/>
        <path d="M800.5,1066c-18.34-1.11-35.45,3.93-51.94,11.14-6,2.64-11.44,6.79-17,10.42a18.27,18.27,0,0,1-3,1.44"/>
        <path d="M696,1123.5c-6.64,5.8-12.69,12.13-20.87,16.25-5.67,2.85-11.4,5.56-17,8.44-9.73,5-20.16,6.47-30.6,8.31"/>
    </g>
    <path class="sock" d="M1024.5,1627a78.17,78.17,0,0,1-15.49-32c-2.55-10.87-4.61-21.91-4.83-33-.36-17.4-1.39-34.7-3.09-52-.79-8-.22-16-.9-24-1.32-15.44-2-31-2-46.48,0-14.36.27-28.77-1.4-43-1.52-12.83-1.37-25.82-3.87-38.51-.5-2.49.4-5.16-1.3-7.58-1.14-1.62-2.3-2.48-4.07-1.91-20.07,6.46-40.22,12.64-60.06,19.83-16.38,5.93-31.16,14.46-45.5,24.07-3,2-3.44,4.62-2.91,7.56,2.4,13.19,4,26.62,7.71,39.44,4.3,14.88,8.51,29.81,13.22,44.58,3.81,12,6.54,24.32,11.25,35.9,5.1,12.53,7.23,25.64,10.22,38.6,2.14,9.27,4.07,18.6,5.48,28,2.29,15.29,4.15,30.65,6,46,.53,4.29-.28,8.66.46,13,.24,1.43,25.92,19.82,38.62,28.35l52.47-46.37Z"/>
    <path class="shoe" d="M933,1639.5c1.46,4.75,6,6.26,9.58,8.37,9.31,5.49,19.7,5,29.91,3.53a84.34,84.34,0,0,0,19.61-5.14c12.3-4.9,20-14.26,27.33-24.31a6.19,6.19,0,0,1,5.07-3c9.93-.57,19.75.21,29,4.12a26.7,26.7,0,0,1,12.11,10.35c3.36,5.24,4.1,5.3,9.94,3.54,2.17-.66,4.32-1.39,6.5-2,6.38-1.74,12.76-3.25,18.93.76,2.56-1.78,3.64-4.59,6-6.36,5.1-3.85,10.46-2.12,15-.14s6.75.72,9.67-2.22c7.78-7.85,16.58-14,28-15.56,15.3-2.08,29.54.35,42,10.07,2,1.55,1.88,4.79,4.31,6.64-8.76,11.1-35.13,44.42-39.52,50-1.89,2.4-56.26,24.77-81.23,34.83-10.88,4.38-21.65,9-32.53,13.44-3.8,1.54-114.92,5.45-123.49,7.51-2.58.63-3.92-.28-5.67-2.85-7.49-11-7.48-23.34-6.68-35.61a113.68,113.68,0,0,1,10.88-41c1.85-3.91,4-7.68,6-11.51Z"/>
    <g class="shoeFoldLine">
        <path d="M229.5,1698a140.75,140.75,0,0,0-38.45,9.14c-2.6,1-5.68,2.3-7.05,5.36"/>
        <path d="M219,1682.5c-7-1.5-7.38-1.49-11.52-1.76-10.92-.73-21.8.08-29.48,9.76"/>
        <path d="M1068.5,1638c-4.14.72-8.44,2-11.5,5.5"/>
        <path d="M1126.5,1631c-2.6,2.66-3.07,6-3,9.5"/>
        <path d="M1101,1635.5c-3,4.5-1.68,6-2.5,9"/>
        <path d="M153.5,1583c-3.11,2-5.43,4.52-5.5,8.5"/>
    </g>
    <g class="soleFront">
        <path d="M1006.5,1709c2,6.34,1.61,13,2.89,19.52.52,2.59-1.93,4.54-3.44,6.44-3.71,4.63-13.47,16.13-15.45,16.09-17.33-.39-34.67.48-52-.39-1.52-.08-2.69-.06-3.46-1.18-3.29-4.82-7.14-9.31-9.28-15.14,6.67-6.72,15.34-9.93,23.81-12.64,15.64-5,31.45-9.63,47.93-11.26,2.71-.26,5.34-1.27,8-1.94Z"/>
        <path d="M92.5,1537.5a35.06,35.06,0,0,0-16.58,9.43c-1.77,1.84-3.31,3.63-3.9,6.07a96,96,0,0,0-3,27,136.87,136.87,0,0,0,7,38c1.49,4.39,3.37,8.65,5,13,1.49,4.09,4.2,4.09,7.52,2.49l13.61-6.54c-.25-4.27-2.1-8.25-3-12.38-1.48-7-2.21-14.11-3.75-21.06-2.79-12.55-2.41-25.41-4.29-38a30.19,30.19,0,0,1,.52-10,14.67,14.67,0,0,0-.12-6Z"/>
    </g>
    <path class="soleSide" d="M1006,1710l-9.94,32.4c4.57,1.1,33.27.55,43.44.63,2.65,0,4.18-.44,5.16-3.48,1.25-3.84,3-7.53,4.06-12-14.51-4.48-29-8.87-41.72-17.53Z"/>
    <g class="soleBottom">
        <path d="M1000.53,1731.94c-1.41-.81-17.52,5.51-26.93,8.38-8.32,2.54-17.69,4.62-26.1,6.69a35.32,35.32,0,0,0-10.55,4.13c0,5,4.1,7,7.6,8.76,10.11,5.17,20.93,5.28,32,3.65,8-1.17,15.82-1.78,23.46-4.15,8.3-2.57,15-4.4,24.5-7C1032,1750,1038,1747,1042,1743,1042,1743,1012.05,1738.54,1000.53,1731.94Z"/>
        <path d="M1204,1626.5c10.59,5,10.45,20.51,5.53,29-4.54,7.84-10.81,14.23-17.63,19.86-10.63,8.78-21.61,17.21-33,25-13.32,9.15-28.05,15.83-42.92,22.1-6.48,2.73-13,5.38-19.5,8-8.88,3.57-17.89,5.15-27.53,3.15-4.83-1-9.67-2-14.48-3.09A8.69,8.69,0,0,1,1050,1728c5.17-2.39,10.06-4.81,15.06-7,14.82-6.34,29.89-12.22,43.46-21.07,16.3-10.63,32.6-21.29,48.45-32.56,12.24-8.7,24-18.12,33.15-30.34,3.46-4.61,7-9.57,13.43-10.55Z"/>
    </g>
    <path class="skin" d="M229.5,107c-3.5-2-4.15-1.51-6.48-2.55-4.27-1.9-8.73-.85-13-.76-3.87.08-7.79,5.68-7.94,9.31-.22,5.23-.32,10,5.31,13.7,7.31,4.77,16.12,6.64,22.73,12.69,2.52,2.32,5.73,2.88,8,6.5-4.68.6-8.85-.82-13.07,0-6.82,1.34-13.84,2-19.45,6.63-3,2.5-5.81,6.39-4,11a12.36,12.36,0,0,0,9.47,8.13c4.38,1,8.49-.16,12.49-.86,4.58-.8,7.92.4,11.59,2.64a34.29,34.29,0,0,1,9.09,7.46c-5.68,3.44-8.28,7.79-7.77,14.14a9,9,0,0,0,4.18,6.92c8,5.68,14.78,13.31,24.84,16.45l58.1-79.61c-5.8-4.19-11.06-8.84-17.07-12.12-8.53-4.66-15.48-11.18-22.9-17.18-10.85-8.78-23-15-36-20.09-5.47-2.14-10.56-1.76-14.38,1.8-4,3.74-4.41,9.14-1.71,14.34.17.33,2.71,5,2.54,5.48Z"/>
    <path class="skin" d="M1107,374c1.33-10,3-20,3.9-30a66.71,66.71,0,0,0-2.9-25c-1.84-6.17-3-12.61-5.64-18.44-4.55-10.19-11.34-18.86-20.88-25-1.63-1-198.29-7.08-199.55-3-7.53,24.21-42,132.93-43.74,137.59-1.57,4.31.15,9.18,1.52,13.36,1.72,5.28,3.31,10.68,6.18,15.63,2.74,4.72.63,12.28-2.82,16.49-8.63,10.53-18.56,19.79-28.1,29.42-1,.95-1,72.36-1,107,0,.17.31.33.73.75H945v-61.4c12.83,6,25.56,10.65,39,13.09,2.29.42,22.38,4.46,30,1.47a95.52,95.52,0,0,0,38.79-27.62,122.58,122.58,0,0,0,24.93-47.79c12.2,0,20.23-5.23,24.31-16a20.63,20.63,0,0,0,.51-12c-1.45-6.55-3.41-13-4.8-19.54a47.08,47.08,0,0,1-.18-19c1.69-8.47,5.83-16.16,8.1-24.47a20.35,20.35,0,0,0,.88-5Z"/>
    <path class="hair" d="M1100.25,193.25a13.42,13.42,0,0,1-5.12-8.27c-1.7-9-5.06-14.27-11.36-19.82-2.33,1.32-8.21,28.14-20.21,34.46-1.64.86-3,.62-4.56.88,0,0-.31.17-.08-.53,2-6,5.25-11.66,6-18,1.28-10.84-2-20.19-10.32-28-1.43,6.16-3.3,11.6-6.59,16.5-8.26,12.33-19.38,21.18-32.45,28.11-11.09,5.87-22.87,9-35.08,10.77-8.57,1.21-17.38.58-26,1.38a140.62,140.62,0,0,0-32,6.7,127.78,127.78,0,0,0-24.62,11.82c-13.36,8-24.68,18.17-35.33,29.25a74.21,74.21,0,0,0-9.43,11.53c-3.49,5.51-7,11-10.54,16.47-3.16,5-6.36,10.06-8.42,15.52-3.07,8.11-5.16,16.6-7.65,24.94-4.1,13.7-6.33,27.67-5.44,42a113.92,113.92,0,0,0,2.26,16.54c2.06,9.73,6.5,18.41,10,27.51,1.31,3.38,3,6.53,5.73,8.3,4.4,2.85,9.08,6.28,14.89,4.6A40.21,40.21,0,0,0,872.5,415c5-5.25,5.07-7.33,1-13.52-1.34-2.05-2.32-4.34-3.54-6.48-4.78-8.36-5.4-17.2-3.55-26.51,1.48-7.42,5-13.79,9-20s9.1-11.71,16.52-14c10-3,21.81,4.91,23.5,15.46a46.82,46.82,0,0,0,3.4,11c4,9.45,12.3,13.91,20.82,18.81-.78-1.54.55-1.94.82-2.83,4.31-14.28,14.45-23.66,27-30.39,9.86-5.27,20.09-9.74,26.92-19.14a52.19,52.19,0,0,0,8.78-20.93A45,45,0,0,0,1001,281c-.66-1.77-1.09-3.48.56-5.12,15,7.82,31.26,10.48,47.94,9.88,3.73-.13,16.71-.8,19-2.28,7.25-4.68,15.92-5.94,23.22-11.18,11.52-8.26,21-17.45,26.32-30.79,7.27-18.42,9.66-36.8,1-55.54a58.67,58.67,0,0,0-10.12-15.91c-.61.61-.91.77-.92.94C1107.66,179.74,1100.25,193.25,1100.25,193.25Z"/>
    <path class="shirt" d="M1017.47,682.49c-3.54,10-7,20.15-11.05,30A348.49,348.49,0,0,1,986,753a382.51,382.51,0,0,1-27.08,40.44c-4.72,6.18-10.24,11.74-15.43,17.55-1.37,1.53-90.42,40.34-90.51,55.51-.06,9.37-2.75,18.56-2,28,.34,4.17,1.47,8.46.85,12.48-1.83,11.93-3.19,16.52-17.47,26.6,1.53,5.44,4.33,10.45,4.78,16.41.76,10.24-3.78,19.14-13.16,23.51-13.31,6.2-27.63,8.12-42,9.34-4,.34-8,.89-12,1.28-7.52.75-15,.39-22.51.35-15.88-.1-31.8-.74-47.47-3.16-14.93-2.3-29.74-5.64-44.58-8.57-16.22-3.2-31.77-8.28-47.51-13-9-2.71-18.16-4.84-26.93-8.24A163.66,163.66,0,0,1,554,936.57c-7.78-5-15.81-9.67-24-14a60,60,0,0,1-21.18-18.26c-6.7-9.58-8-23.77,2.84-34.18,3.74-3.58,3.48-6.35,2-10.67-5.23-15.22-2.73-29.32,7.38-42,2.83-3.53,6.59-5.8,10.45-8.08,5.57-3.29,11.32-6,16.35-10.59,4.72-4.32,7.77-9.39,11.11-14.39a211.91,211.91,0,0,0,11-19c3.43-6.51,3.76-13.9,5-21A20,20,0,0,1,578,736c22.33-31.67,195.33-275.33,197-277,4.47,3.85,56.23,84.94,63.21,98.63,5.68,11.16,15,15.66,25.3,19.89,5.09,2.08,10,4.34,15.5,5.52,8.38,1.82,16.29,1.17,23.5-3.6,13.84-9.16,27.56-18.49,41.58-27.93,11.1,8.92,21.86,17.9,33,26.39,7.84,6,15.42,12.15,21.94,19.57,9.93,11.29,15.86,24.62,19.41,39,1.37,5.6,3.86,11,3.57,17C1021.94,654.34,1020.43,674.1,1017.47,682.49Z"/>
    <path class="shirtOverlapLine" d="M914.5,690c-4.79.57-7.55,5.51-10.89,8.14C890.61,708.36,887.05,711,876,722c-5,5-9.83,12.67-10.5,13"/>
    <g class="shirtFoldLine">
        <path d="M835.5,933c-11.94,7.45-25.53,10-39,11.72-9.88,1.23-19.87,3.16-30,2.28"/>
        <path d="M515.5,865a41.41,41.41,0,0,0,5.91,11.56c5.45,8.36,10.89,11.77,18.12,18.41,1.57,1.44,1.47,1,5.47,4.53"/>
        <path d="M912,660a97.08,97.08,0,0,0-10,23.5"/>
        <path d="M976.5,664c-11.17-.34-21.63,2.93-32,6.54A22.87,22.87,0,0,0,937,675"/>
    </g>
    <g class="collar">
        <path d="M876.5,626.5c4.57,2.71,9.1.25,12.92-1.2A107.81,107.81,0,0,0,936,591,85.81,85.81,0,0,0,947.5,571.5a32.89,32.89,0,0,0,2.53-19c-1-5.65-1.57-11.36-2.64-17-.2-1,0-3.12-2.39-3.07-1.85,0-2,1.51-2.47,2.56a92.61,92.61,0,0,1-12.25,18.31c-4.31,5.18-10.68,8.59-15.73,13.23-10.25,9.43-22.84,12.86-36.19,15a107.13,107.13,0,0,1,1,23c-.48,7.2-1.89,14.34-2.89,21.51Z"/>
        <path d="M845.5,565.5c-4.07-11.1-10.47-21.12-15-32-4.31-10.44-9.07-20.72-11.06-32-1.39-7.9.39-15.43,2.06-23,.39-1.78,1.07-3.48,1.71-5.53-7.93,0-15.26,2.21-22.73,3.53-6.34,1.12-12.63,2.58-19,3.41-6.07.8-6.87.94-7.43,7.09-1,10.82-3.57,21.52-2.55,32.49.78,8.34,1,16.79,2.64,25,2.23,11.29,6,22.27,8.18,33.56,1.43,7.35,5.92,13.12,8.28,19.93,1.5,4.36,6.82,4.78,10.86,1,8.4-7.82,17.15-15.21,25.93-22.59,5.38-4.52,11.65-7.07,17.6-10.38Z"/>
    </g>
    <g class="coat">
        <path d="M598,1268.5c-4.89,3.18-5.41,9-8,13.52-9,16-13.58,33.73-18.68,51.08-3.53,12-5.53,24.6-8.41,36.89-1.69,7.23-4,14.32-5.91,21.52-2,7.67-3.14,15.52-6,23-3.4,9-6.84,18-10.39,27a199.22,199.22,0,0,1-19.09,37.49,341.3,341.3,0,0,1-22.19,30.35,8.61,8.61,0,0,0-1.9,4.59,2.24,2.24,0,0,0,2.5,1c6.28-1.11,11.87-4,16.94-7.59,10.44-7.32,17-18.1,24-28.43,5.66-8.36,10-17.47,14.49-26.5s9-17.88,12-27.48c4.44-14.24,7.43-28.79,10.28-43.45,2.29-11.81,3-23.81,5.37-35.62,1.5-7.53,2.55-15.34,4.08-22.88,2.84-13.92,6.8-27.62,10-41.51A41.3,41.3,0,0,0,598,1268.5Z"/>
        <path d="M53,908.5c1.17-3.08,4.84-3.59,6.44-6,5.34-8.18,13.69-13.31,20.28-20.25C88.39,873.1,97.54,864.27,108,857c6.71-4.71,13-10.05,19.56-14.92,6.06-4.47,12.53-8.43,18.43-13.09,11.2-8.83,23.74-15.58,35.53-23.46,7.73-5.17,16.29-8.8,24.09-13.87a227.84,227.84,0,0,1,22-12.07c16.43-8.23,33.53-15,50.53-21.93C296.8,750,315.83,743,334,734c6.61-3.29,13.21-6.66,19.48-10.54,9.78-6.07,19.33-12.47,28.73-19.16,8.38-6,16.74-12,24.1-19,9.3-8.8,16.92-19.35,25.64-28.84,10.94-11.91,21.18-24.46,31.84-36.64,9.67-11,19.34-22,30.26-31.76,6.69-6,13.16-12.2,20.37-17.66,6.53-5,13.18-9.77,19.6-14.87,2.93-2.34,3.78-5,3.21-9-.92-6.54-3-12.69-4.65-19a259,259,0,0,0-11.21-31.92c-7-16.69-13.2-33.89-25.82-47.59a90.79,90.79,0,0,0-10-10c-6.21-4.95-12.66-9.65-18.44-15.07a248.06,248.06,0,0,1-24.7-26.31c-6.56-8.24-11.94-16.95-14.27-27.13C424.32,353,420,336.77,409.5,323c-5-6.56-11.53-11.68-19.54-12.72-8.33-1.08-17-.6-25.44.39-9.79,1.15-19.43-.07-29-1-5.44-.53-11-1.33-16.52-2.2-9.44-1.5-18.63-3.41-26.09-10.37A90.39,90.39,0,0,0,272,282c-9.12-4.58-19-7-28.61-10.2-8.08-2.73-17-2.93-25.38-4.86-5.61-1.29-11-3-15.72-7.18-2.67-2.35-5.13-5.48-8.81-6.71l3,1c3.29-1.59,6.73-3,9.91-4.67,7.82-4.09,15.67-8.27,20.67-16.28,5.18-8.28,11.87-14.92,21.38-18.66,11.39-4.48,20.52-12.34,28-21.93,6-7.7,10.34-16.44,15.21-24.87,4.73-8.19,9.12-16.49,11.16-25.63,1.71-7.62,3.27-15.8-3.48-22.05,3.91-3.69,8.07-4.12,12.67-2.43,5.63,2.08,11.21,4.51,17,5.91,9.9,2.4,20,4.17,30,6.09,9.43,1.81,18.88,3.35,27.52,8,13.56,7.27,24.79,17.19,34.53,29,3.36,4.08,7.93,7.28,10.8,11.64,4.32,6.54,10.29,11.19,16.23,15.79,8,6.17,17.8,6.65,27.42,7.09,15.36.71,29.94,4.38,42.94,12.61,17.61,11.14,33.3,24.72,48.08,39.39,9.83,9.75,17.12,21.52,26,32a179.17,179.17,0,0,1,21.73,31.67c6.16,11.51,14.1,21.31,23.22,30.38,3.34,3.33,6.87,6.49,10,10,5,5.72,9.64,11.69,14.24,17.32,16.69-1.34,32.87-.27,48.27,5.74,15.11,5.9,26.8,16.57,37,28.91,6.15,7.43,12.34,14.88,21.07,19.38,3.29,1.69,6.73,3,9.56,5.6C776,438.34,515,785.33,446.5,853.5c-4,4-16.7,16-18.51,18.5a90.41,90.41,0,0,1-21,21c-9.57,6.9-18.32,15-29.5,19.51-8.38,3.38-16.35,7.75-25,10.48-7.29,2.3-14.78,4.26-21.87,6.85-8.43,3.07-16.83,6.64-25.23,9.89-9.81,3.8-19.53,7.54-28.4,13.26-7.43,4.79-14.56,10-21.66,15.27-9.74,7.26-18.29,15.87-28.19,22.93-5.65,4-11.85,7.43-16.73,12.71-9.87,10.69-18,22.65-26.83,34.15-7.77,10.19-16.6,19.4-25.14,28.88-3.42,3.8-4.24,3.35-8-.4-3.18-3.17-4.68-7.57-8-10.52-8.52-7.62-13.2-17.92-18.23-27.65-7.09-13.72-13.51-27.77-18.12-42.76-4-12.87-8.71-25.55-12.08-38.63-2.3-9-4.59-17.89-8-26.49s-9-14.88-18-17.42c-2.52-.71-5.36.39-8-.58Z"/>
        <path d="M71,1111.5c.43-.87.87-1.73,1.36-2.71,6.5,2.62,10.55,8.22,16.1,11.77a29.06,29.06,0,0,0,15,4.28c6.26.19,10.64-7.94,10.23-14.35-.56-8.67-4.1-15.81-8.17-23a14.67,14.67,0,0,0-4-4.28C94.06,1093.84,83,1100.5,73,1108.5Z"/>
    </g>
    <g class="coatFoldLine">
        <path d="M489,281.5c0,10.83.14,21.67-.09,32.5-.06,2.81,3.3,30.4,5.38,41.54,2,10.67,4.77,21.17,6.4,31.93,1.23,8.14,4.14,16,6.31,24"/>
        <path d="M440,316.5c-4.61-6.68-11.66-8-19-8.48-10.58-.71-21,.73-31.5,2"/>
        <path d="M662.5,374c-12.33.62-24.24,3.45-36,7"/>
    </g>
    <g class="lapel">
        <path d="M427.11,874.14c6.14-4.92,11.14-10.89,16.63-16.4,6.38-6.39,13-12.65,19.68-18.83a339.41,339.41,0,0,1,40.1-32.38c10.56-7.16,21-14.61,32.07-20.88,12.54-7.1,26.24-12.4,37.25-21.84,6.4-5.49,13.84-9.94,18.83-17.19,1.6-2.33,4.52-4.09,6.85-6.09,9.36-8,17.1-17.58,25.58-26.44,3.12-3.25-26.48-40.38-39.9-56.8-4.58,4.57-6.64,10.7-9.72,16.2-5.12,9.14-11.32,17.56-17.43,26-9.37,13-17.74,26.82-27.77,39.28-7.12,8.85-15.23,17.06-23,25.41-13.69,14.65-28.87,27.75-41.61,43.48-13.16,16.25-23.5,33.81-32.48,52.37-2,4-5.07,7.93-4.66,12.92C427.5,873,425.75,875.24,427.11,874.14Z"/>
        <path d="M724.5,467.5c-4-2-7.84-4.47-12-5.9-7.37-2.5-13-7.74-19.45-11.62-1.24-.75-2.51-4.48-2.51-4.48a69.32,69.32,0,0,0,31.91-2.79c9.34-3,18.92-5.11,28.14-8.58a73.76,73.76,0,0,1,26.45-5c12.68.12,23.15,6.32,33,13.8,11.14,8.44,10,15.15,17.55,26.49,4.41,1.56-5,6.1-5.59,8-7.5-1.49-2.94-.67-10.51-1.33-12.47-1.08-23.17,4.55-32.9,11.47a67.74,67.74,0,0,0-20.44,23.46c-6.88,13-13.54,26.08-18.72,39.89-1.88,5-4.64,9.68-6.92,14.53-7.17,15.25-13.69,30.82-22,45.49-5.88,10.36-11.33,21-20,29.51L690,639l-37.17-44.19c12.87-12.64,20.28-28,27.51-43.39A209.1,209.1,0,0,0,691.57,521c.91-3.12,2.68-6,3.91-9,2.69-6.58,5.41-13.15,9.54-19,6.13-8.62,13.93-15.94,19.52-25C725.11,467.1,724.5,467.5,724.5,467.5Z"/>
    </g>
    <path class="skin" d="M584,621c-7,6-2.64,14.17-1.84,19.48A17.17,17.17,0,0,0,567.93,654c-.9,4.65-1.36,9.2,3.59,12.49,1.92,1.27,4.11,2.86,6.48,3.07,5.42.48,6.47,3.2,7.62,8.42,1.42,6.51,5.49,11.9,8.89,17.52,6.93,11.46,18.31,17.56,29.57,23.35C634.16,724,640.43,732.53,647,741c1.75,2.27,3.23,4.75,5,7a202,202,0,0,1,28.19,47.92c5.35,12.53,12.41,24.31,20.13,35.7,6.25,9.24,12.39,18.61,19.37,27.22,6.52,8,12.86,16.31,20.14,23.82,6,6.18,11.8,12.56,18.21,18.28,6.12,5.47,12.52,10.71,20.44,13.58,8.81,3.2,16.59-.93,24.48-3.58,10.31-3.45,19.87-8.81,28.85-14.69,7.1-4.64,15-8.39,20.81-15.12,2.49-2.89,6.72-4.21,9.82-6.66,10.67-8.46,19.83-18.5,29-28.51,1.94-2.12-50.64-50.09-62.94-59.46-4.58-3.49-21.6,12.28-29.81,16.13-13-10-27.8-17.68-40.66-28.17-5.57-4.54-10.5-9.87-16.08-14.39-9.88-8-16.9-18.47-25.06-28-3.52-4.1-7.45-7.85-11-12-6.2-7.06-10.61-15.32-16-22.87-4.16-5.81-2.58-13.61-.45-20.8,3.33-11.23,6.5-22.55,6.71-34.46a27.5,27.5,0,0,0-2.17-11c-7.88-19.22-21.5-33-40.42-41.54-8-3.61-20.41-.49-25.5,9.51-15-5.67-22.77,3.3-24.5,16.5C603.5,615.5,590,614,584,621Z"/>
    <g class="skinOverlapLine">
        <path d="M232,106.5c2,5.5,5,8.3,9.05,10.92,5.13,3.32,11,5.53,15.84,9.22,5.66,4.35,12,7.77,17.18,12.79,6.75,6.52,12.37,14,18.45,21a11.54,11.54,0,0,0,2,1.52"/>
        <path d="M238,146c12.13,8.63,21.92,19.71,32,30.47a59.06,59.06,0,0,1,8.47,11"/>
        <path d="M278,186.5c-6-1.33-16-4.58-22-6-4.17-1-8.3-.47-12.51.53"/>
        <path d="M615.5,626.5c-3.82-3.7-6.3-9-12-10.5"/>
        <path d="M627.5,599c4.15,1.73,7.83,4,9.5,8.5"/>
        <path d="M582.5,640c4.94-.48,8.54,1.85,11.5,5.5"/>
    </g>
    <path class="sleeve" d="M848.5,730c-9.61,3.27-15,10-16.54,20-1.06,7.06-6.9,10.26-12,14s-9.84,7.93-12.54,14c-2.36,5.26,2.59,9.35,3.85,14.87,9.67-4.4,13.45.62,21.79,5C845,804,854.45,813,864.55,821.44c9.17,7.65,16.19,17.17,24,26a30.83,30.83,0,0,1,4.94,8c3.11,7,8.34,10.92,16,10.41,8.53-.57,14.32-5.33,16.94-13.44,1.45-4.48,2.7-8.84,6.52-12a21.63,21.63,0,0,1,4.55-2.93c4.52-2.16,7.59-5.62,10.07-10,3.65-6.4,1.72-12.63-1.25-17.94A136.43,136.43,0,0,0,920,776.48a272.72,272.72,0,0,0-35.42-27.63c-4.12-2.73-8.07-6.12-12.24-8.61-7.27-4.32-14.31-9.77-23.36-10.24Z"/>
</svg>
