<svg viewBox="0 0 112.37 335.13">
  <path class="catherineShorts" d="M93.52,197.24c4.29,9.95,5.1,31.06-6.68,35.03-12.64,.51-27.02,2.03-30.1,.47s-4.2,1.63-8.98,0l-30.68-16.45c-2.8-1.05,.58-16.45,3.27-19.37l73.18,.32Z"/>
  <g class="soleWhite">
    <path d="M99.01,299.17c8.93,5.83-4.17,26.21-14.79,20.14l14.79-20.14Z"/>
    <path d="M67.6,325.37c0,3.99-2.2,8.34-5.88,9.07-6.71,1.33-14.82-.41-18.65-4.32-2.45-2.5-2.13-7.87-.4-10.35l24.92,5.61Z"/>
  </g>
  <g class="catherineShoe">
    <path d="M70.38,279.98c4.62-1.62,7.97,.8,12.58,2.92,3.63,1.67,6.26,4.59,8.29,8.75,1.58,3.22,5.23,4.67,7.76,7.52,2.55,2.87,.47,9.68-1.46,10.75-1.14,.63-7.22,3.77-7.9,9.42-5.1,1.92-8.46-1.2-12.13-7.82-7.37-13.29-12.86-7.2-15.04-18.18-1.39-6.95,2.28-11.39,7.9-13.36Z"/>
    <path d="M61.89,295.76c8.7,1.7,8.4,9.29,7.73,14.42s-2.26,9.84-2.02,15.19c.18,3.85-6.14,6.35-8.22,4.73-3.37-2.62-9.14-3.86-12.52-2.3-2.41,1.11-5.53-5.06-3.97-8.63,1.06-2.42,1.87-3.7,4.74-14.03,1.41-5.06,3.99-11.39,14.25-9.38Z"/>
  </g>
  <g class="catherineShoeStripe">
    <path d="M77.93,312.23h0c1.52-6.25,9.7-15.05,15.58-17.74-.91-.82-1.71-1.73-2.25-2.84-.96-1.96-2.06-3.65-3.32-5.06-4.89,7.67-10.7,15.82-14.16,19.46h0c.22,.25,.45,.52,.67,.8h0c.07,.08,.13,.17,.2,.25l.07,.09c.19,.24,.38,.5,.57,.77,.04,.06,.09,.12,.13,.18,.05,.07,.1,.14,.15,.21,.06,.08,.12,.17,.18,.25,.05,.08,.11,.16,.16,.24,.07,.11,.14,.22,.22,.33,.04,.06,.08,.12,.11,.17,.07,.11,.14,.21,.21,.32,.03,.05,.06,.1,.09,.15,.1,.16,.19,.31,.29,.48,.02,.04,.05,.08,.08,.13,.08,.13,.16,.27,.24,.4,.03,.05,.06,.1,.09,.15,.1,.18,.2,.36,.31,.54,.09,.16,.17,.31,.26,.47,.05,.09,.1,.17,.14,.26Z"/>
    <path d="M67.78,320.88c.37-3.17,1.14-6.21,1.64-9.36-3.65-2.21-17.4-5.35-22.28-4.63-1.25,4.4-2.07,6.9-2.7,8.6,6.93-4.91,20.03-.73,23.33,5.39Z"/>
  </g>
  <g class="shoelace">
    <path d="M80.52,293.33c-3.99,2.76-6.52,7.14-6.52,9.29,1.97,1.33,4.56,4.85,7.2,8.52,1.01-2.69,3.16-5.83,7.08-8.9-2.48-3.38-5.31-6.81-7.75-8.9Z"/>
    <path d="M61.84,321c-2.47-1.62-9.85-3.48-13.25-2.64,1.17-4.05,2.3-8.38,3.06-11.58,2.9-.57,10.55,1.38,12.58,3.03-.69,3.29-1.89,7.04-2.39,11.19Z"/>
  </g>
  <g class="sockWhite">
    <path d="M72,280.13c3.91,1.38,5.22,4.34,6.22,8.52-5.6-1.23-10.29,6.6-9.06,9.67l-8.83-6.37,11.67-11.82Z"/>
    <path d="M69.95,292.06c-3.06,1.7-12.85-.88-14.84-3.81-.69,.82-.96,6.05-2.14,10.1-.64,2.18-.48,3.62-.29,4.7,3.73-2.71,10.43-.21,12.74,2.97,.82-1.72,1.28-2.76,1.85-4.76,1.24-4.32,2.95-8.27,2.68-9.2Z"/>
  </g>
  <path class="catherineShirt" d="M39.31,96.26h31.96c9.85,5.12,26.92,6.81,29.41,14.65,3.83,12.1,7.92,17.54,8.12,21.95-3.85,3.03-15.85,7.3-19.51,7.62,.05,8.39-.32,12.55-1.26,17.39,1.01,2.06,1.34,4.64,.6,8.05,2.64,7.72,4.49,20.91,4.89,31.32l-73.18-.32c-.18-11.66,.3-22.3,3.93-28-2.16-2.41-1.78-5.14,0-8.05-1.26-4.11-1.49-13.31-1.32-20.87-4.6-.99-16.75-2.96-18.39-4.93,2.96-9.69,4.46-21.48,9.34-26.31,5.62-5.57,19.76-7.16,25.42-12.5Z"/>
  <g class="clothesOverlapLine">
    <path d="M22.72,127.99c-1.54,.98,1.33,.82,.22,12.01"/>
    <path d="M87.98,127.07c.94,3.91,1.37,8.38,1.31,13.41"/>
    <path d="M81.81,294.52c-2.78,2.59-5.14,5.51-6.62,9.1"/>
    <path d="M83.15,295.9c-2.9,2.9-5.29,5.89-6.66,9.1"/>
    <path d="M84.55,297.48c-2.88,2.84-5.32,5.82-6.77,9.08"/>
    <path d="M85.93,299.17c-3.01,2.76-5.51,5.69-6.93,8.97"/>
    <path d="M87.11,300.69c-3.12,2.6-5.62,5.5-7.01,8.94"/>
    <path d="M78.21,288.65c-.12,1.66,.94,3.19,2.3,4.68"/>
    <path d="M69.16,298.32c.88,2.14,3.16,2.98,4.84,4.3"/>
    <path d="M62.17,318.82c-4.04-1.65-8.41-2.63-12.94-2.7"/>
    <path d="M62.54,316.91c-4.17-1.53-8.38-2.46-12.78-2.75"/>
    <path d="M62.96,315.08c-4.29-1.72-8.37-2.57-12.69-2.8"/>
    <path d="M63.41,313.27c-4.49-1.86-8.53-2.8-12.67-2.8"/>
    <path d="M63.84,311.51c-4.32-2.11-8.46-3.02-12.65-2.86"/>
    <path d="M65.42,306.02c.42,1.57-.88,2.66-1.19,3.8"/>
    <path d="M52.68,303.05c-.55,.65-.89,2.83-1.03,3.74"/>
    <path d="M57.21,230.4c-2.1-6.65-.7-13.07,2.53-19.17"/>
    <path d="M53.04,230.19c2.3-12.5-2.25-15.88-1.08-16.89"/>
  </g>
  <g class="clothesFoldLine">
    <path d="M10.58,122.15c-.33,4.58,1.12,8.32,4.89,10.97"/>
    <path d="M19.98,114.5c.2,4.63,.89,8.74,2.21,12.17"/>
    <path d="M24.22,120.49c-.2,3.09-.67,5.66-1.5,7.5,.94-.22,2.06-.66,3.53-2.06"/>
    <path d="M83.4,119.84c2.61,1.22,4.03,3.74,4.58,7.22,1.69-5.19,3.69-9.42,5.93-12.94"/>
    <path d="M90.31,116.25c-2.12,4.42-1.55,6.39-4.61,3.04"/>
    <path d="M29.84,127.22c-2.97,1.02-5.99,2.58-5.44,3.59"/>
    <path d="M81.09,125.01c2.27,1.25,3.95,2.85,5.07,4.79"/>
    <path d="M90.59,126.11c-.56,1.69-1.28,2.76-2.12,3.3"/>
    <path d="M93.72,125.84c-1.74,2.36-3.41,4.03-5.02,4.98"/>
    <path d="M64.69,136.71c-6.98,1.67-13.58,2.24-19.63,1.29"/>
    <path d="M57.13,141.78c-4.99,.42-9.64,.62-13-.09"/>
    <path d="M31.78,150.36c.95,5.59,1.55,11.14,1.38,16.59"/>
    <path d="M35.93,145.38c.3,14.65,3.71,24.97,11.89,28.67"/>
    <path d="M24.27,160.87c.54,1.32,1.29,2.34,2.26,3.04"/>
    <path d="M24.27,168.92c2.77,4.18,7,6.64,12.03,8.17"/>
    <path d="M75.1,141.32c-1.76,10.16-3.87,19.41-8.02,23.51"/>
    <path d="M76.03,157.91c-2.67,11.43-8.95,21.14-18.07,23.23"/>
    <path d="M88.02,157.87c-.5,2.49-1.15,4.94-3.06,6.96"/>
    <path d="M88.63,165.92c-2.75,6.58-7.02,11.99-13.52,15.69"/>
    <path d="M86.16,177.83c-2.04,2.83-4.71,5.5-8.57,7.84"/>
    <path d="M56.86,215.47c-2.92,4.78-3.38-4.32-4.9-2.17"/>
    <path d="M54.99,229.35c-.21,1.43-.57,2.72-1.71,3.28"/>
  </g>
  <g class="book">
    <path class="paperDarker" d="M91.22,212.58c-10.83-6.9-24.56-8.29-32.43-.48-3.51-2.94-6.97-2.72-10.39,0-8.43-9.54-22.65-7.32-33.68-1.01,10.62-27.71,71.15-23.73,76.5,1.49Z"/>
    <path class="paperDark" d="M82.96,189.58c2.43,1.46,4.16,2.92,6.05,5.08,.52,5.1,1.61,11.26,2.21,17.92-2.15-3.3-4.41-6.39-6.76-9.28-20.28-12.08-41.73-12.49-62.84-.11-2.62,2.67-4.95,5.3-6.9,7.9,.62-6.69,2.01-12.2,3.29-17.37,1.56-1.51,3.29-3.14,5.62-4.85,20.11,4.69,39.68,4.8,59.33,.71Z"/>
    <path class="paperLight" d="M53.43,191.93c5.42-8.59,17.66-7.15,29.52-2.36,.36,4.46,1.04,9.04,1.5,13.72-12.94-5.04-25.89-6.21-31.18,3.86-5.59-9.49-20.35-9.32-31.66-3.97,.57-5.13,1.63-9.89,2.01-14.32,9.95-3.79,23.13-5.24,29.8,3.07Z"/>
    <line class="paperCreaseLine" x1="53.43" y1="191.93" x2="53.28" y2="207.16"/>
  </g>
  <g class="eye">
    <rect class="sclera" x="34.5" y="45.51" width="43.61" height="11.08"/>
    <g class="irisBrown">
      <ellipse cx="66.94" cy="49.91" rx="3.16" ry="3.34"/>
      <ellipse cx="41.81" cy="49.75" rx="2.74" ry="3.34"/>
    </g>
    <g class="pupil">
      <ellipse cx="66.64" cy="49.83" rx="1.23" ry="1.3"/>
      <ellipse cx="41.32" cy="49.68" rx="1.06" ry="1.3"/>
    </g>
  </g>
  <g class="skinLatino">
    <path d="M71.95,76.56c-3.23,7.42-3.8,17.57-.68,19.7-2.31,8.25-27.94,9.23-31.96,0,2.4-2.51,3.16-10.3-1.4-20.95"/>
    <path d="M24.64,179.01c-2.3-3.58-3.15-7.71-4.9-9.97,0-4.5,1.95-12.17,3.28-18.5-.14-3.44-.15-7.15-.07-10.54-3.67-.79-12.14-2.2-16.25-3.74-2.5,9.69-4.11,20.68-5.56,26.03-4.63,21.32,10.34,24.35,13.86,25.83,.11,3.28,.87,5.69,2.16,8.25,.72,2.2,4.1,2.06,5.13,.24,.47,1.39,4.55,1.79,5.28-.49,.49,1.71,3.61,1.43,5.22,.09,2.28,.9,4.55,.24,5.37-1.48,4.48,3.42,8.39,.49,6.6-2.2-2.04-1.63-3.56-3.69-5.38-3.5,.08-1.71-.46-4.37-1.47-5.79-1.79-2.53-3.36-4.4-5.7-4.4-3.26,0-4.24-2.93-7.58,.16Z"/>
    <path d="M82.96,189.58c2.34,1.35,4.32,3.09,6.05,5.08l1.57,12.14c1.47-.56,2.93-1.83,4.21-2.9,1.51-1.26,4.22-2.34,4.02-4.36,.28-3.38-.95-8.81,.28-9.39,8.11-4.25,14.87-13.99,12.59-22.97-1.75-6.89-3-19.5-5.17-32.86-5.05,2.78-14.12,5.89-17.22,6.15,.02,3.05-.02,5.54-.12,7.71,1.1,8.49,2.93,16.1,3.44,22.77-2.14,3.56-1.41,6.49-2.05,8.7-3.64,3.33-7.3,3.24-11.07,5.4-4.55,2.61-6.22,5.08-8.09,6.76,.07,2.35,4.68,3.28,7.83-.87,.94-.4,2.38-.52,3.73-1.36"/>
    <path d="M91.22,212.58c-9.32-5.94-20.78-7.79-28.82-3.22-3.59,7.16-1.65,13.64-3.35,20.6-3.41,13.94-1.11,40.21-3.75,58.53,2.3,2.76,11.27,5.12,14.45,3.67,5.8-20.66,13.86-37.12,15.89-57.38,6.04-6.55,7.49-14.1,5.59-22.2Z"/>
    <path d="M49.02,211.63c-.21,.15-.41,.3-.62,.46-7.2-8.15-18.64-7.72-28.69-3.48-.05,.07-.1,.13-.15,.2-7.46,9.99-.94,19.22,3.58,28.45,3.8,7.74,19.73,30.36,32.66,47.15,1.02-9.94,.94-21.59,1.2-32.21-2.18-5.67-3.02-14.19-7.28-21.47,2.93-5.13,2.95-12.87-.7-19.1Z"/>
    <path d="M85.86,47.88c3.26,.31,4.99,7.74,1.48,15.85-1.16,2.67-1.47,6.29-5.67,5.79-6.14,16.12-15.26,18.12-18.91,20.83-4.22,3.14-13.5,3.19-17.53-.19-5.95-4.98-13.24-9.02-16.14-20.26-3.64-.8-3.61-2.69-5.27-7.11-2.88-7.67-.77-13.02,.73-13.71-.74-51.55,60.58-52.76,61.32-1.21Zm-21.73,4.8c1.72,.8,3.44,1.12,5.04,1.15,2.91,.05,4.44-1.12,5.92-2.33-1.7-1.23-2.71-2.51-5.27-2.65-3.19-.16-5.41,.93-6.76,3.11-.52,.83,.67,.52,1.07,.71Zm-14.93-.93c-4-4.56-9.65-1.65-11.3,.18,2.39,.18,2.99,.45,5.48,.52,1.4,.04,2.91-.16,4.65-.34,.45-.05,1.88,.46,1.17-.35Z"/>
  </g>
  <g class="skinOverlapLine">
    <path d="M24.64,179.01c-2.36,2.2-3.91-.81-6.28,4.1-.79,1.63-3.41,1.36-3.36,5"/>
    <path d="M39.39,189.03c.1,2.36-.1,3.16-1.22,5.7"/>
    <path d="M31.19,182.3c2.16,3.58,2.34,4.57,2.52,7.34s-.22,5.12-.92,6.58"/>
    <path d="M25.16,183.91c1.71,3.42,3.21,8.99,2.41,12.21"/>
    <path d="M19.73,186.87c.05,3.22,2.11,8.29,2.56,9.74"/>
    <path d="M96.04,199.05c-1.59,1.4-4.14,3.9-5.85,4.84"/>
    <path d="M49.72,230.74c-1.73-2.95-4.62-6.83-7.2-9.15"/>
    <path d="M85.63,234.78c.43-2.86,.44-5.65,.26-9.19"/>
    <path d="M84.18,55.31c-.73,3.73-.94,9.08-2.51,14.21"/>
    <path d="M27.73,55.23c.51,4.32,.29,7.46,1.36,14.69"/>
  </g>
  <g class="skinFoldLine">
    <path d="M92.61,170.96c1.79-2.92,9.09-6.24,12.4-4.91"/>
    <path d="M19.73,169.04c-3.1-3.52-8.41-5.25-12.26-4.32"/>
    <path d="M90.56,179.66c.95-.76,1.78-1.74,2.44-3.03"/>
    <path d="M86.38,52.43c1.08,1.21,1.79,3.91-.13,9.06"/>
    <path d="M83.12,62.69c1.37,.83,1.24-2.32,1.92-3.03,1.47-1.52,.68-4.88-.17-4.84"/>
    <path d="M24.44,52.79c-.73,1.09-.88,5.27,.54,8.5"/>
    <path d="M28.33,63.37c-1.35-.4-1.1-3.8-1.58-4.37-1.35-1.6-.84-4.01-.11-4.75"/>
  </g>
  <g class="skinEdgeLine">
    <path d="M37.8,192.47c-1.05,.38-2.09,.52-3.11,.39"/>
    <path d="M37.11,183.74c-1.22-.07-2.37,.06-3.46,.4"/>
    <path d="M32.55,193.47c-1.35,.47-2.61,.74-3.61,.5"/>
    <path d="M31.15,183.9c-1.28-.17-3.16,.1-4.06,.8"/>
    <path d="M25.24,187.16c-1.2-.15-3.36,.65-4.16,1.25"/>
    <path d="M19.02,189.51c-1,.05-2.41,.5-2.91,.95"/>
  </g>
  <path class="lipFemaleMedium__noStroke" d="M46.18,77.03c1.11,7.01,10.98,8.14,14.55,2.78,1.3-1.95,.99-3.83,2.02-4.85-.25-.03-.53-.01-.82-.1-6.34,2.68-10.97,1.61-15.68-3.17,.26,2.26-.31,3.79-.06,5.33"/>
  <path class="lipEdgeLine" d="M46.18,77.03c1.11,7.01,10.98,8.14,14.55,2.78"/>
  <path class="lipFemaleMedium" d="M46.24,71.7c9.49,7.41,9.55,2.96,17.22,3.2-3.47-.39-3.66-1.88-7.67-1.3-1.06,.15-1.91-.08-3.27-.59-2.06-.78-4.76-.66-6.28-1.31Z"/>
  <g class="lipOverlapLine">
    <path d="M61.92,74.87c1.14,.25,2.16,.02,3.08-.62"/>
    <path d="M46.24,71.7c-.52-.33-1.09-.45-1.7-.42"/>
  </g>
  <path class="mouthInner" d="M46.24,71.7c2.07,3.04,2.35,6.36,6.78,7.19,3.5,.65,5.17-1.69,8.9-4.02-2.67-.59-4.03-.86-6.63,.22-1.17,.49-2.2-.66-3.72-1.29-1.82-.75-3.16-.82-5.33-2.1Z"/>
  <path class="teeth" d="M55.3,75.09c-1.17,.49-2.2-.66-3.72-1.29-1.82-.75-3.16-.82-5.33-2.1,.88,1.29,1.47,2.63,2.11,3.81,2.99,1.91,6.69,2.84,9.96,1.85,1.02-.72,2.2-1.6,3.61-2.49-2.67-.59-4.03-.86-6.63,.22Z"/>
  <g class="cheekLine">
    <path d="M61.11,64.34c1.84,.65,5.51,5.44,6.23,8.33"/>
    <path d="M49.92,64.03c-1.4,.66-1.89,2.63-4.2,3.84-2.74,1.43-3.65,2.78-3.88,4.92"/>
  </g>
  <g class="noseLine">
    <path d="M61.11,64.34c1.55,.65,2.08,3.21,.3,4.7"/>
    <path d="M49.92,64.03c-1.35,.98-1.8,3.41-.25,4.68"/>
    <path d="M50.66,67.97c2.06,.13,4.02,3.76,9.26,.66"/>
  </g>
  <g class="eyeFoldLine">
    <path d="M72.45,55.82c-1.96,1.61-5.35,.95-7.02-.12"/>
    <path d="M46.87,54.94c-2.55,1.72-6.72,1.25-8.39-.06"/>
  </g>
  <g class="eyeCornerLine">
    <path d="M37.9,51.93c-.77,.36-1.73,.46-2.43,.35"/>
    <path d="M77.35,51.93c-.91,.03-1.79-.22-2.26-.43"/>
  </g>
  <g class="eyeCreaseLine">
    <path d="M63.53,49.81c3.93-4.22,8.63-2.86,11.01-.3"/>
    <path d="M37.35,50.3c3.03-4.16,8.86-3.33,11.42-.3"/>
  </g>
  <g class="eyebrowDarkBrown">
    <path d="M51.78,41.68c-4.18,5.08-7.29-4.05-18.54,3.96,4.59-5.13,14.53-6.61,18.54-3.96Z"/>
    <path d="M61.34,40.59c2.36,5.59,9.9-2.65,17.96,5.01-3.99-5.59-14.74-6.85-17.96-5.01Z"/>
  </g>
  <path class="hairBlack" d="M83.51,54.3c.99-12.8-2.06-10.54-2.42-19.59-4.12-1.98-5.83-5.8-6.18-10.68-5.76,6.74-12.83,8.13-21.03,3.18-4.12,2.3-8.55,2.25-13.29-.07-1.85,2.56-5.01,3.67-9.69,3.11,.78,10.89-3.06,13.93-2.36,23.83,.04,2.47-2.19,.78-3.04-2.33-2.62,6.65-6.13-19.52-4.08-21.78-1.83-.21-2.77-3.55-1.63-4.24,4.24-2.55,3.61-4.74,7.57-9.33-1.49-.65-3.22-4.36-1.48-4.88C33.51,9.25,37.68,1.19,50.41,.42c10.64-.65,24.25,.14,28.71,11.17,6.08-2.55,6.82,5.3,12.76,6.51,.95,.19,.91,3.85-1.44,4.97,5.05,16.31-3.4,35.11-3.68,27.9-.42,3.11-3.46,6.02-3.25,3.33Z"/>
  <g class="hairFoldLine">
    <path d="M30.9,30.26c-1.25-.07-2.37-.34-3.4-.76"/>
    <path d="M40.58,27.14c-.83-.34-1.51-.74-2.03-1.21"/>
    <path d="M53.88,27.21c-.75-.37-1.4-.76-1.95-1.17"/>
    <path d="M81.09,34.71c1.16,.59,2.17,.93,3.08,1.09"/>
  </g>
  <path class="catherineGlasses" d="M58.17,46.79c8.45-3.26,18.93-3.12,27.64-.81,1.13,.3,1.33,4.43-.5,4.66-.58,4.3-1.92,9.61-4.18,10.95-4.81,2.84-15.77,1.92-18.04-.22-2.14-2.02-4.08-5.47-5.31-10.27-.22-.87-3.54-.84-3.81-.05-1.61,4.69-3.37,8.17-5.55,10.14-2.31,2.08-13.3,2.74-18.04-.22-2.23-1.39-3.44-6.73-3.92-11.05-1.82-.27-1.53-4.4-.38-4.67,8.76-2.1,19.27-2.03,27.61,1.48,.78,.33,3.76,.33,4.47,.05Zm-28.98,.65c-1.47,1.6-.59,9.64,2.06,12.11,2.4,2.24,12.96,2.58,16.11,.41,2.22-1.53,6.15-9.12,4.16-11.32-3.78-4.2-20.3-3.39-22.33-1.2Zm31.12,1.3c-2.04,2.16,1.71,9.84,3.89,11.42,3.1,2.25,13.66,2.16,16.11-.02,2.71-2.41,3.78-10.42,2.35-12.06-1.97-2.25-18.47-3.45-22.35,.66Z"/>
</svg>