<svg viewBox="0 0 273.04 516.35">
  <g class="soleWhite">
    <path d="M200.2,505.07l-51.66-7.89c.14,5.29,1.75,9.43,5.49,9.83,13.12,1.4,13.62,5.15,21.67,6.36,12.02,1.8,26.05-.15,24.49-8.3Z"/>
    <path d="M62.34,509.38c.57,7.68,20.37,8.7,32.79,3.45,7.74-3.27,18.87-3.88,20.74-8.16,.88-2.02,1.26-4.57,1.24-7.35-23.42,2.53-50.65,3.97-54.77,12.07Z"/>
  </g>
  <g class="jacobShoe">
    <path d="M167.15,506.81c5.2,2.03,12.65,3.66,13.93,2.25,3.53-5.14,13.09-6,16.97-2.25,.9-.32,1.59-.93,2.14-1.74-2.41-12.58-8.03-.27-24.49-28.37l-22.62,1.2c-2.83,5.15-4.71,13.02-4.55,19.28,7.53,8.98,14.5,8.03,18.61,9.64Z"/>
    <path d="M80.74,512.36c1.53,1.09,8.75-.77,13.45-3.17,7.47-3.82,14.05-1.73,22.93-11.88-.07-6.84-2.6-15.02-6.19-19.82l-22.08-.54c-6.56,6.56-8.7,13.79-14.19,18.47-7.71,6.59-12.92,5.89-12.31,13.95,.43,.23,.95,.42,1.56,.57,3.39-6.34,16.51-3.94,16.83,2.4Z"/>
  </g>
  <g class="shoelace">
    <path d="M178.45,484.6c-4.61-.22-9.03,.57-13.29,2.25,3.4,3.6,6.04,8.09,9.57,11.04,3.77-1.22,7.92-1.96,12.33-2.38-3.47-2.55-6.18-6.49-8.6-10.92Z"/>
    <path d="M97.53,487.54c-2.82,4.1-6.47,7.94-10.88,11.55-3.31-1.5-6.9-2.07-10.77-1.67,3.42-4.1,6.43-8.15,7.99-11.99,4.35-.69,8.94,.27,13.66,2.11Z"/>
  </g>
  <g class="adidasLogo">
    <g class="clothWhiteMedium">
      <path d="M165.07,506.21c1.17-3.61,2.56-6.81,4.71-9.61-2.72-1.95-5.05-4.09-7.51-6.29-2.77,4.44-4.8,8.89-5.81,13.34,3.28,1.63,6.23,2.02,8.61,2.56Z"/>
      <path d="M109,503.99c-2.1-4.96-4.64-9.48-7.7-13.46-2.55,2.33-5.03,4.62-7.66,6.55,2.61,2.64,4.59,6.07,6.12,10.04,3.02-.83,6.02-1.44,9.24-3.13Z"/>
    </g>
    <g class="adidasDisplayLine">
      <path d="M96.19,495.08c2.97,4.09,5.04,7.07,6.86,11.17"/>
      <path d="M98.74,492.86c3.19,4.42,5.42,7.76,7.46,12.38"/>
      <path d="M167.18,494.6c-2.37,3.41-4.2,7.03-5.39,10.91"/>
      <path d="M158.74,504.62c1.62-4.76,3.61-8.81,5.95-12.15"/>
    </g>
  </g>
  <path class="jacobPants" d="M176.17,243.41c4.63,5.31,1.01,10.35,4.23,18.47,4.06,10.24,.85,12.48,1.35,16.16,3.06,26.25,.63,74.59,.55,83.39-.02,2.09,2.77,3.49-.35,8.58-2.14,3.5,2.74,2.15,0,13.66-1.73,7.27,.64,19.63-.58,29.82-4.92,41.04,2.27,41.56-4.81,44.64-.97,9.14,5,6.61,1.35,14.24,2.61,3.1,2.46,5.64,.26,8.35-2.73-4.06-14.8-3.16-17.31,2.12-6.2,.91-9.9-.61-10.08-5.29-.16-4.02,5.1-6.87,1.04-13.18-3.22-5,2.5-17.74-2.15-38.66-3.9-17.54-.81-32.51-2.99-40.14-2.03-7.12-1.45-15,.89-23.41-6.94-5.68-.6-13.86-13.12-63.06-5.25,18.22-8.71,51.94-11.3,60.74-2.21,7.52,3.6,7.68-1.24,16.32-3.33,5.95,1.45,7.23-2.27,15.29-1.45,9.3,.08,33.84-3.31,49.17-1.27,5.74,.59,10.53-2.27,18.8-1.46,4.23,3.72,8.68-.83,13.01,6.14,12.77-9.69,8.34-11.72,12.14,1.27-4.56-12.54-7.22-15.2-2.91,0-2.28-1.3-4.81,1.14-5.7-4.43-3.8,1.77-5.45,2.54-9.89-4.86-4.17-2.85-10.18-1.61-16.31,1.64-8.13-3.86-26.75-2.21-52.14,.25-3.84-1.09-9.46-.4-14.09,.77-5.12-1.28-7.06,.4-12.88,.97-3.34-.54-7.6-.2-13.49,.81-14.09-2.42-52.95-.4-74.08,.62-6.49-1.16-11.53,1.21-18.12,1.89-5.28,1.17-14.94,3.62-21.34l85.78-.21Z"/>
  <path class="jacobShirt" d="M192.3,124.44c-7.01-9.54-21.86-8.33-35.42-13.01l-48.79,.72c-10.45,4.16-19.85,2.59-29.69,10.96-3.74,3.18-5.73,6.14-9.19,12.71-3.11,5.91-6.98,8.31-4.37,12.13,4,3.47,14.06,10.1,18.87,12.21,3.56-.98,3.44-4.59,5.36-7.46-.83,8.16,.73,18.64-.47,24.3-.88,4.13,2.88,13.6,.48,19.51-1.57,3.85,1.62,5.05-.17,9.96-1.64,4.49,1.79,9.23,.41,16.3-.86,4.39-.25,6.78,.14,9.45,.52,3.55-.5,8.81,.05,12.77,2.81,4.06,14.21,1.45,19.74,2.84,7.5,1.9,20.6,1.31,30.71,.87,4.01-.17,28.09,1.92,37.69-4.01-1.07-4.28,.3-9.36-1.05-13.78,2.23-3.71-1.67-7.58-.17-11.17,3.01-7.21-1.35-6.77,.15-24.91,.74-8.98,.59-21.54,1.94-39.3,1.82,2.62,3.88,4.67,6.77,4.75,5.73-2.46,15.49-9.26,19.64-14.05-.93-6.32-6.75-13.77-12.63-21.78Z"/>
  <g class="readingRainbowLogo">
    <g class="rainbow">
      <path class="rainbowBlue" d="M133.07,165.49c-8.51,0-15.4,6.9-15.4,15.4h3.85c0-6.38,5.17-11.55,11.55-11.55s11.55,5.17,11.55,11.55h3.85c0-8.51-6.9-15.4-15.4-15.4Z"/>
      <path class="rainbowGreen" d="M133.07,161.64c-10.63,0-19.25,8.62-19.25,19.25h3.85c0-8.51,6.9-15.4,15.4-15.4s15.4,6.9,15.4,15.4h3.85c0-10.63-8.62-19.25-19.25-19.25Z"/>
      <path class="rainbowYellow" d="M133.07,157.78c-12.76,0-23.11,10.34-23.11,23.11h3.85c0-10.63,8.62-19.25,19.25-19.25s19.25,8.62,19.25,19.25h3.85c0-12.76-10.34-23.11-23.11-23.11Z"/>
      <path class="rainbowOrange" d="M133.07,153.93c-14.89,0-26.96,12.07-26.96,26.96h3.85c0-12.76,10.34-23.11,23.11-23.11s23.11,10.34,23.11,23.11h3.85c0-14.89-12.07-26.96-26.96-26.96Z"/>
      <path class="rainbowRed" d="M133.07,150.08c-17.01,0-30.81,13.79-30.81,30.81h3.85c0-14.89,12.07-26.96,26.96-26.96s26.96,12.07,26.96,26.96h3.85c0-17.01-13.79-30.81-30.81-30.81Z"/>
    </g>
    <g class="book">
      <path class="dullGreenDarker" d="M144.33,151.84c-.25,.2-.94,.86-.94,.86-.21,.24-.3,.43-.3,.64,0-.55-1.57-.57-1.58-.01v28.84c0,.57,1.58,.57,1.58,0,.25,.34,.55,.5,1.28,.5h21.87v-25.58h-19.81v-4.31c0-1.13-1.28-1.59-2.1-.96Z"/>
      <polygon class="paperLight" points="164.47 178.03 164.47 154.51 146.43 154.51 146.43 176.1 144.12 178 164.47 178.03"/>
      <path class="paperDark" d="M164.47,177.52v3.37h-19.6c-1.36,0-1.36-3.37,0-3.37h19.6Z"/>
      <polygon class="flatMaroonDark" points="150.53 179.63 145.15 179.63 145.15 184.68 147.84 182.66 150.53 184.68 150.53 179.63"/>
    </g>
  </g>
  <g class="jacobShirtTrim">
    <path d="M151.14,108.56c1.59-.59,2.78,1.98,5.74,2.86-3.38,12.74-38.79,19.03-48.79,.72,3.84-1.76,4.31-4.55,5.89-3.35"/>
    <path d="M208.2,151.04c.65-.44-2.62-5.27-3.27-4.83-4.14,4.8-13.91,11.59-19.64,14.05-.43,.57,3.02,4.98,4.43,3.85,5.25-2.23,14.24-8.58,18.48-13.07Z"/>
    <path d="M83.72,160.15c-4.81-2.1-14.87-8.74-18.87-12.21-.84-.48-3.84,4.23-3,4.72,4.23,4.44,12.57,9.85,18.58,12.19,.56,.37,3.85-4.33,3.29-4.7Z"/>
  </g>
  <g class="clothesDisplayLine">
    <path d="M130.44,249.05c-1.19,11.86,.8,28.59,1.39,44.3"/>
    <path d="M142.44,248.72c-1.13,8.3,.82,21.22,.82,29.81-.34,6.22-3.54,10.44-11.63,10.67"/>
    <path d="M111.99,251.26c-2.22,8.5-9.88,13.24-22.97,14.23"/>
    <path d="M154.97,251.26c1.87,9.97,12.23,14.23,24.46,14.23"/>
  </g>
  <g class="clothesOverlapLine">
    <path d="M184.57,493.33c-4.46,.21-8.56,1.01-12.15,2.31"/>
    <path d="M182.73,491.23c-4.42,.13-8.5,.92-12.25,2.11"/>
    <path d="M181.21,489.16c-5.05-.19-9.14,.59-12.39,2.07"/>
    <path d="M179.7,486.77c-4.52-.14-8.76,.54-12.67,2.2"/>
    <path d="M89.24,496.86c-3.71-1.38-7.46-2.11-11.26-2.03"/>
    <path d="M91.7,494.52c-4.06-1.42-8.06-2.14-12-1.96"/>
    <path d="M93.92,492.14c-4.4-1.38-8.66-2.07-12.66-1.85"/>
    <path d="M95.82,489.86c-4.76-1.65-9.72-2.38-13.22-1.79"/>
  </g>
  <g class="clothesFoldLine">
    <path d="M158.57,146.52c-14.01,2.08-27.11,3.2-38.75,2.8"/>
    <path d="M134.59,151.74c-9.91,.87-20.69,.07-31.45,1.04"/>
    <path d="M92.18,180.41c4.38,2.41,12.34,2.26,20.85,2.95"/>
    <path d="M170.91,190.49c-14.77,4.69-30.06,4.34-47.27,8.17"/>
    <path d="M92.51,200.8c15.67,3.89,26.83,.82,26.42,5.15-.38,4.07-14.76,4.12-27.22,2.02"/>
    <path d="M140.55,200c-26.19,5.26-14.53,9.04,8.58,8.12"/>
    <path d="M140.55,211.67c-10.88-1.12-22.3-.63-34.09,.92"/>
    <path d="M174.52,215.56c-3.77,1.94-19.33,4.69-24.59,4.23"/>
    <path d="M157.94,229.17c-14.19,2.59-28.85,1.78-41.98,.23-8.69-1.03-16.82-1.03-24.48-2.97"/>
    <path d="M101.66,230.66c10.87,1.6,37.3,2.73,38.89,5.38,1.1,1.82-3.15,2.84-10.07,3.09"/>
    <path d="M172.12,229.63c-10.98,4.23-27.64,4.29-27.57,7.89,.11,5.43,12.47,5.61,22.53,4.92"/>
    <path d="M163.77,245.99c-6.75,2.17-9.13-.35-18.53-.23-9.95,.13-12.43,1.5-20.36,.69-4.64-.48-8.77-.4-10.87,.11"/>
    <path d="M197.86,139.83c.16,3.19-.38,6.51-2.17,10.07"/>
    <path d="M182.42,148.3c-.26,3.36,.44,6.38,2.52,8.92"/>
    <path d="M180.47,153.9c-2.17-12.47-6.29-13.84-3.43-.57"/>
    <path d="M99.03,139.03c-2.21,2.93-3.32,8.24-6.06,12.47"/>
    <path d="M95.66,138.83c-3.82,4.08-3.43,13.44-5.56,12.1-2.34-1.47,2-9.2-1.14-9.04-2.52,.13-.23,4.92-1.14,10.41"/>
    <path d="M123.25,291.22c-.94-1.37-6.89-1.71-13.02-2.02"/>
    <path d="M128.08,299.25c1.19-3.29-8.11,.55-13.41,3.59"/>
    <path d="M142.04,295.9c-4.6,2.34,5.88,4.37,12.63,4.6"/>
    <path d="M179.16,375.68c-3.14,4.48-8.26,3.43-8.4,5.49-.11,1.57,4.37,3.03,8.4,3.36"/>
    <path d="M152.38,382.63c11.01,1.97,27.28,3.33,18.15,7.62"/>
    <path d="M159.1,367.95c7.84,3.47,16.02,3.62,15.91,5.27-.08,1.36-3.17,2.96-9.64,4.82"/>
    <path d="M158.32,377.47c-1.82,1.22-7.06-5.15-9.08-2.13-1.39,2.09,1.91,3.59,5.27,4.37"/>
    <path d="M89.4,365.93c2.58,3.25,15.58,2.8,.34,5.83"/>
    <path d="M89.06,374.9c4.59,3.25,10.87,5.16,.9,9.19"/>
    <path d="M113.38,390.47c-7.96-9.3-14.9-5.49-23.42-2.69"/>
    <path d="M115.84,383.64c-6.61-1.01-23.11-7.85-18.94-9.3,11.49-4,23.09-9.18,20.4-2.69"/>
    <path d="M89.99,466.08c2.6,2.13,7.35,2.85,10.67,5"/>
    <path d="M113.22,472.44c-1.28,1.02-4.42,.66-8.35-.28"/>
    <path d="M110.87,451.72c-6.81,5.74-18.4,6.32-17.12,9.5,1.16,2.88,7.59,5.28,14.43,7.53"/>
    <path d="M87.45,475.96c6.4-2.64,14.11,3.09,20.47,2.46"/>
    <path d="M176.55,458.14c-11.73,4.25-27.95,4.43-2.59,7.83"/>
    <path d="M153.8,465.16c2.6,2.69,12.83,1.41,12.19,3.41-.9,2.78-12.37,5.29-11.56,6.9,.95,1.91,11.2-1.61,18.28-.99"/>
  </g>
  <path class="hairMediumBrown" d="M176.84,47.61c3.24-.72,4.24-3.25,3.87-6.89-8.74,3.39-5.75-6.18-7.67-15.43-1.55-7.47-9.86-18.39-22.24-17.87-24.28-16.53-29.01,1.51-36.05-3.81l-1.05,3.43c-15.82,2-9.96,14.52-23.75,17.64-.59,2.91,.5,5.04,2.86,6.58-7.12,4.96-2.94,12.06-10.3,13.45,.26,2.46,1.11,4.46,2.77,5.82-10.18,15.24,6.28,24.26-.8,27.39,.86,1.82,2.18,3.07,4.34,3.26-.15,5.61,2.76,8.64,8.69,9.1,2.7,4.65,7,7.09,13.65,6.29l42.95-.47c6.74,2.46,16.8-3.05,15.85-9.35,6.22-2.33,9.57-7.32,10.67-13.19,1.94-.74,3.05-2.38,3.76-4.46-10.43-.62,3.05-9.04-7.55-21.47Z"/>
  <g class="hairOverlapLine">
    <path d="M95.16,69.82c-.76,.98-1.53,1.71-2.29,2.2"/>
    <path d="M169.96,69c.51,.51,1.36,1.1,1.36,1.91"/>
    <path d="M104.39,39.54c-1.53-1.19-2.69-2.66-3.54-4.38"/>
    <path d="M136.73,25.32c4.77-2.55,9.68-3.56,14.75-2.79"/>
  </g>
  <path class="hairEdgeLine" d="M106.83,31.95c16.18,9.75,11.97-25.82,39.11-17.95"/>
  <g class="eye">
    <rect class="sclera" x="109.54" y="52.8" width="47.13" height="12.21"/>
    <g class="irisHazel">
      <circle cx="147.13" cy="57.5" r="3.74"/>
      <circle cx="117.79" cy="57.5" r="3.74"/>
    </g>
    <g class="pupil">
      <circle cx="147.13" cy="57.5" r="1.46"/>
      <circle cx="117.79" cy="57.5" r="1.46"/>
    </g>
  </g>
  <g class="skinGallic">
    <path d="M148.55,92.18c-.9,5.93-1.31,14.5,2.59,16.39,.28,9.99-34.82,14-37.16,.23,2.96-4.44,2.56-10.26,2.52-15.6"/>
    <path d="M272.88,226.44c-17.33-14.15-28.9-32.6-46.43-50.13-6.61-6.61-10.32-14.68-18.25-25.26-4.23,4.5-13.23,10.85-18.48,13.07,6.48,11.24,14.47,20.33,17.28,26.48,8.47,18.52,33.2,32.28,55.03,48.15"/>
    <path d="M10.41,246.62c16.65-15.46,37.88-24.45,50.25-48.47,4.6-8.93,12.21-21.41,19.77-33.3-6.01-2.35-14.36-7.75-18.58-12.19-5.61,11.3-11.76,23.61-19.92,31.97-7.92,8.11-18.58,31.37-41.78,48.91"/>
    <path d="M95.16,69.82c2.53-3.27,3.57-7.29,3.64-11.81,.57,1.72,2.6,2.9,2.34,.21-1.1-11.68,3.23-11.26,3.25-18.67,12.33,10.07,20.64-8.68,32.34-14.22,8.82-1.3,16.73-.53,23.21,3.47-1.57,18.43,6.97,20.69,3.46,29.53-.86,2.16-.17,3.26,2.85,.51,0,4.23,1.37,7.49,3.71,10.17-1.99,3.98-.82,9.27-6.58,7.99-.95,8.63-4.42,17.51-17.05,24.65-5.1,2.88-6.92,5.55-14.24,5.55-9.25,0-8.28-2.28-13.13-5.17-13.61-8.09-17.3-16.09-18.15-24.63-5.1,.67-4-3.11-5.65-7.58Zm29.58-11.37c-3.85-1.53-5.35-1.88-6.83-1.95-3.41-.16-4.53,1-6.76,1.82,2.58-.43,3.75,.19,6.03,.26,2.34,.08,4.09-.31,6.47-.05,.49,.05,2.19,.35,1.08-.09Zm16.74,.09c2.38-.26,3.88,.13,6.22,.05,2.28-.08,3.69-.61,6.28-.18-2.22-.82-3.52-2.06-6.92-1.9-1.48,.07-2.73,.41-6.58,1.95-1.1,.44,.51,.14,1,.09Z"/>
  </g>
  <g class="skinOverlapLine">
    <path d="M163.98,60.4c-.4,4.97,.05,10.78-.59,16.59"/>
    <path d="M100.75,59.75c.33,5.86-.45,12.07,.06,17.64"/>
  </g>
  <g class="skinFoldLine">
    <path d="M222.95,182.97c-2.98,1.16-5.05,4.65-8.23,6.94"/>
    <path d="M48.08,187.49c2.26,1.06,4.53,4.28,7.53,5.87"/>
    <path d="M100.67,70.56c-3.07-.69-1.93-3.79-3.13-5.05"/>
    <path d="M163.75,70.1c2.14,0,1.21-1.66,1.94-3.38s1.71-4.29-.3-4.48"/>
    <path d="M167.31,69.14c.43-.6,.78-1.37,1.05-2.33"/>
  </g>
  <path class="lipMaleMedium__noStroke" d="M128.01,82.3c2.49,1.16,5.86,1.28,8.85,.13,2.73,.86,5.56,1.24,7.4,2.39-3.35,5.19-4.4,9.56-12.13,9.89-7.12,.31-9.4-5.14-11.77-9.5,3.33-1.67,6.13-2.28,7.65-2.91Z"/>
  <path class="mouthInner" d="M131.79,90.88c6.35,.04,9.52-1.21,11.63-6.33-4.53-1.22-7.64,.19-11.33,.2-4,0-5.41-1.72-11.17,.25,2.12,5.59,6.17,5.85,10.87,5.88Z"/>
  <path class="tongue" d="M123.64,86.24c.33,1.51,.9,2.74,1.62,3.73,1.89,.82,4.12,.89,6.53,.91,3.12,.02,5.48-.27,7.31-1.18,.96-1.06,1.69-2.35,2.08-3.81-4.12,2.59-13.33,2.74-17.54,.36Z"/>
  <path class="teeth" d="M142.76,84.39c-4.17-.92-7.16,.35-10.67,.36-3.77,0-5.24-1.52-10.2-.06,2.77,4.47,17.98,4.29,20.87-.3Z"/>
  <g class="lipOverlapLine">
    <path d="M120.92,85c-.28,.09-.56,.2-.86,.31"/>
    <path d="M144.85,85c-.49-.18-.97-.33-1.43-.46"/>
  </g>
  <g class="lipEdgeLine">
    <path d="M136.86,82.43c-2.99,1.15-6.36,1.03-8.85-.13"/>
    <path d="M138.49,92.78c-3.26,2.41-9.88,2.75-12.37,.13"/>
  </g>
  <g class="cheekLine">
    <path d="M139.37,71.76c2.11,1.13,6.57,6.42,7.06,10.24"/>
    <path d="M125.16,72.05c-2.5,1.42-6.23,6.23-6.59,9.71"/>
  </g>
  <g class="noseLine">
    <path d="M139.37,71.76c1.55,1.3,1.81,3.68-.2,5.1"/>
    <path d="M125.16,72.05c-1.32,1.18-1.23,3.43,.15,4.8"/>
    <path d="M126.72,76.36c1.67,0,1.62,1.81,5.29,1.96s3.43-2.01,5.74-2.01"/>
  </g>
  <g class="eyeFoldLine">
    <path d="M151.33,60.81c-2.21,1.57-6.27,1.36-8.19-.26"/>
    <path d="M121.6,61.08c-2.23,1.36-6,1.31-8.31-.62"/>
  </g>
  <g class="eyeCornerLine">
    <path d="M111.16,58.33c-.62,.3-1.54,.39-1.92,.4"/>
    <path d="M153.98,58.41c.62,.3,1.54,.39,1.92,.4"/>
  </g>
  <g class="eyeCreaseLine">
    <path d="M142.21,56.22c3.97-2.3,9.22-.64,10.44,.2"/>
    <path d="M111.05,56.84c3.42-2.54,8.56-2.55,12-.61"/>
  </g>
  <g class="eyebrowMediumBrown">
    <path d="M127.7,50.9c-3.54,3.69-10.61-1.7-20.56,2.06,9.8-7.18,14.84-2.43,20.56-2.06Z"/>
    <path d="M137.65,50.9c3.54,3.69,10.32-2.06,20.42,1.33-10.38-6.3-14.42-2.07-20.42-1.33Z"/>
  </g>
</svg>