<svg viewBox="0 0 135.29 468.78">
  <g class="soleTan">
    <path d="M108.57,462.48a2,2,0,0,1-.32,2.36c-6.28,4.43-23.37,5.29-27.8-1.18-1.6-1.87-4.51-1.55-5.32-3.42a2.84,2.84,0,0,1-.09-2.46Z"/>
    <path d="M59.25,456.42a2.67,2.67,0,0,1,.15,2.74c-1.5,2.36-2.84.77-4.37,3.45-4.75,8.28-25.46,7-30.7,1.58a1.51,1.51,0,0,1,0-2.33Z"/>
  </g>
  <g class="oldBennettShoe">
    <path d="M77,435.07c-1.77,6.27-4.57,15.17-1.91,22.71.92,2.62,4.82,2.35,6.54,4.55,5.16,6.58,25.23,3.29,27,.15,7.4-13.22-8.78-10.06-12.4-26Z"/>
    <path d="M57,435.84c2.66,6.36,4,13.07,2.22,20.58-.78,3.2-3.61,1.77-4.61,4.33-3.19,8.11-26.92,6.89-30.3,1.11-6.54-11.21,7.41-9.16,14.69-26Z"/>
  </g>
  <g class="clothingBrass">
    <path d="M103.66,448.24a26.8,26.8,0,0,1-3-2.87c-5.84-1.33-12.59-1-17.33,1.32l2.08,2.92C90.39,447.27,97.33,447,103.66,448.24Z"/>
    <path d="M34.14,443.91c-.7.85-1.41,1.63-2.11,2.35,4.67-.83,11.16-.17,15.17,2.46l2.44-2.08C45.4,443.65,39,443.05,34.14,443.91Z"/>
  </g>
  <path class="oldBennettPants" d="M34.42,436.29a32.85,32.85,0,0,0,8.39,4.33A54.45,54.45,0,0,0,60.93,436c2.35-13.85,1.56-60.52,2.16-96,.37-21.94,2.18-44,4.35-66.22,4,44.58,7,101.92,7.39,164.57,4.91,1.48,11,1.48,17.76,2.71,3.54-.81,6.71-1.89,8.92-3.68,1-37.23,4.82-69.54,4.07-94.61,1.6-3.62.39-9.65,1.87-17.2,4-20.4,2.63-49.12,3.68-77,.43-11.47-2.49-17.84-4.2-28l-79.54-.15c-2.53,5.83-4.57,21.18-4.6,27.86-.19,41.38,6.7,94.65,6.76,99C30,374.83,34,401.88,34.42,436.29Z"/>
  <g class="eye">
    <rect class="sclera" x="43.88" y="49.19" width="43.64" height="11.31"/>
    <g class="irisDarkBrown">
      <circle cx="79.55" cy="54.35" r="3.47"/>
      <circle cx="52.39" cy="54.35" r="3.47"/>
    </g>
    <g class="pupil">
      <circle cx="79.55" cy="54.35" r="1.35"/>
      <circle cx="52.39" cy="54.35" r="1.35"/>
    </g>
  </g>
  <g class="skinEastAsian">
    <path d="M84.2,85c-3.76,6.92-.78,19.61-1.6,31.69H50.86C50.92,104,51.68,92,49.06,82"/>
    <path d="M99.77,50.68c2.48,1.36,2.64,8-.24,16.37-1,2.8-.68,6.78-4.62,6.23C93,87,84.66,90.61,76.5,97c-5.67,4.43-15.57,4.09-20.44.22S40.78,90.61,37.51,72.77c-4.59,0-3.74-2.15-5.43-6.65-2.93-7.83-1.43-15.06.84-15.63C32.13-4.42,99-4.23,99.77,50.68Zm-25.5,4.89c4,1.9,9.31,1.64,11.27-1.28-2-1.12-3-2.42-5.8-2.5a7.27,7.27,0,0,0-6.56,3C72.55,55.53,73.86,55.37,74.27,55.57Zm-15.41-.69a7.55,7.55,0,0,0-6.9-3c-2.82.12-3.93,1.52-6.08,2.39,2,3,7.74,3.25,11.73,1.35C58,55.42,59.5,55.78,58.86,54.88Z"/>
  </g>
  <g class="oldBennettVest">
    <path d="M44.47,108.12c2,21.54,11.26,44.53,24.28,53.74v60.85c.5.52-11.89,13.11-12.6,13.22-1,.17-30-13.41-30-14.63-.2-3.66,4.06-31.9.71-62.89,5.69-15.85,3.15-39,3.46-46.28C30,111.08,44.16,107.07,44.47,108.12Z"/>
    <path d="M89.48,107.45c.09-.5,14.72,2.71,14.63,3.21-.63,18.6-.54,35.58,3.86,47.24-4.27,45,.51,62.59-.3,62.89.54,1.12-30,15.39-31.7,14.88-1.31-.38-12.6-11.28-12.6-12.49L63,164.1C77.45,156.47,85.38,133.5,89.48,107.45Z"/>
  </g>
  <g class="oldBennettShirt">
    <path d="M67.57,161c11.5-9.6,18.15-30,21.81-52.93-11-1-14.77,3-23.13,4.44-9.74-4-14.86-5.16-21.75-4.06C46.53,129.23,55.24,151.3,67.57,161Z"/>
    <path d="M57.25,204.5c-2.23-1.26-5.89-1.53-8.71-3.07-2.17-2.17-2.59-5.9-6.53-4.35-6.65-1.15-5.82-4-8.7-3.59-.1-4.16-5.89-5.12-7.68-9,1.17-1.21,1.2-3.75,1-6.53-.14-1.54.55-3.29,1.31-5.16-.2-4.68-.54-9.52-1.07-14.43,5.64-15.72,3.19-38.56,3.45-46.08-12.29,3.94-19,5.07-21,27C8,150,5.53,155.21,5.91,162.38,3,168.91,3.65,176.69,2.45,179.16-1.88,188.08.92,197,4.5,199.9c2.69,2.21,3.83,5.88,6.66,4.73,2,2.74,4.5,4.21,7.68,4,1.46,1.88,3,3.06,4.87,2.18,2.52,2.79,4.9,3.77,7.17,3.2,1.13,1.83,2.29,2.24,3.45,1.92,3.14,2.92,5.89.26,8.58.13,4,.13,7.12,2.41,9.6,2.56C55.29,218.75,59.67,205.88,57.25,204.5Z"/>
    <path d="M135,185.41c.48-8.58-5.36-25.07-5.09-30.29.51-9.91-5.44-13.4-7.13-29.19-1.05-9.79-10.76-12.37-17.27-14.38l-1.43-.43c-.61,18.42-.48,35.22,3.88,46.78-.24,2.57-.46,5.06-.64,7.45,1.82,5.61.56,11.58,3.69,11.62a3.52,3.52,0,0,1,.4,2c-3,.87-1,3.44-3.35,6-4.45,1.05-2,4.4-4.16,5.13-5.58,1.88-4.13,3.69-6.53,5.47-3.44,2.55-7.59,4.39-7.94,7-2.86,1.82-6.47,2.36-8,3.71S84,218.1,86.22,218.16s5.69-2.53,9.65-3.93c2.94,3.29,7.16,2.31,7.78-1.47,2.67,2,5.41-.95,8.17-4.69,6.68.09,12-6.18,15.55-8.45C136.53,193.78,134.83,188.66,135,185.41Z"/>
  </g>
  <g class="oldBennettCollar">
    <path d="M82.3,97.92c2.58-.08,3.8,5.94,6.61,9.12.1,4.49-10.09,12.89-13.33,15.56C73,118,72.17,110.85,69.29,111.81,71,109.74,82,107.16,82.3,97.92Z"/>
    <path d="M51,98.14c-.37,9.26,9.58,10.71,12.68,13.37-3.54-1.11-3.54,6.79-6.5,10.93-5.23-4.29-11.37-9.46-11.87-14.89C48.06,103.64,48.49,97.25,51,98.14Z"/>
  </g>
  <g class="oldBennettBowtie">
    <path d="M81.37,110.27c-2-1.4-7.17,2-11,4.61a17.31,17.31,0,0,1-.17,5.56c2.26,1.13,5.41,4.42,10.93,3.64C82.9,123.83,83.4,111.66,81.37,110.27Z"/>
    <path d="M63.09,114.81c-2-1.42-6.44-5.21-9.63-4.44-2.92.71-2.81,12.95.21,14.16s7.39-2.17,9.73-3.54A18,18,0,0,1,63.09,114.81Z"/>
    <path d="M63.64,121.36c-.71-.38-.92-6.35-.4-7s2.52.21,3.42.21,2.81-.79,3.53-.21.38,6.67-.41,7.06-1.8-.31-2.92-.31S64.68,121.91,63.64,121.36Z"/>
  </g>
  <path class="clothesDisplayLine" d="M65.68,227.9c-1.26,5.38.19,11.62.07,15.78-.28,9.74-1.59,24.8,1.69,30.11"/>
  <g class="clothesOverlapLine">
    <path d="M63.93,121.48c.57,9.44-.37,22.36,0,36.18"/>
    <path d="M66.25,112.49c-1.5.38-2.32.68-2.27,1.65"/>
  </g>
  <g class="clothesBorderLine">
    <path d="M70,121.13c.68,10.09-.48,22.84-.25,37.82"/>
    <path d="M89.44,202.57c.92-.43,1.42-1,2.06-.81,3.6,0,8,9.85,4.37,12.47"/>
    <path d="M42.91,216c-5.45-.8-2.19-15.36,3.07-15.63.9,0,1.36.53,2.56,1"/>
  </g>
  <g class="clothesFoldLine">
    <path d="M106.11,261c-3.86,6.12-16,6.57-10.79,10.63"/>
    <path d="M60.87,260.84a45.26,45.26,0,0,0-18.68,3.54"/>
    <path d="M68.92,267.44c7.89,2.58,15,5.3,11.11,9.18"/>
    <path d="M61,269.37c-7.89,4.83-21.9,8.54-11.11,11.6"/>
    <path d="M61.84,280.32c-1.78,6.76-5.22,13-5.16,17.07"/>
    <path d="M73.27,293.69A38,38,0,0,1,78.42,308"/>
    <path d="M104.66,318.64c-3.06,6.76-7,11.61-8.53,16.1"/>
    <path d="M101.28,336.51c-2.71,5-4.4,9.8-4.67,14.33"/>
    <path d="M58,330.07c-1.67,5.76-3.29,11.77-6,12.24"/>
    <path d="M99.83,410.09c-.56,10.15-1.59,19.24-4.34,24.48"/>
    <path d="M87.76,436.5c-1.13-4.23-3.57-6.56-7.73-6.44"/>
    <path d="M58.13,430.06c-.25,4-3.78,6.24-8.85,7.56"/>
    <path d="M108.49,452.25c-3.12-2.64-13.36-2.64-16.69,0"/>
    <path d="M44.15,452.66c-3.27-3.54-13.17-4.29-18-1.4"/>
    <path d="M63.1,119.48a13.26,13.26,0,0,1-4.69,1.65"/>
    <path d="M63,117.46c-7.35-4.23-11.21-.25-5.59.79"/>
    <path d="M70.57,117.46c6.33-3.6,11.71-3,7.89.06"/>
    <path d="M70.46,118.93a18.07,18.07,0,0,0,6,2"/>
    <path d="M83.91,132.31a38.21,38.21,0,0,1-5.45.2"/>
    <path d="M80.44,134.34a76.28,76.28,0,0,1-10.69,0"/>
    <line x1="54.56" y1="144" x2="67.04" y2="144"/>
    <line x1="55.68" y1="146.12" x2="61.1" y2="146.12"/>
    <path d="M104.06,135.16c2.19-2.42,3.8-6,5.14-10.11"/>
    <path d="M107.37,135.92c3-3.79,1.7,2.28-1.46,8.6"/>
    <path d="M113.43,129.09A59.66,59.66,0,0,1,107,150.58"/>
    <path d="M111.41,154.12c-1,2.64-2.1,4.88-3.54,4.83"/>
    <path d="M119.31,141.8c-2.47,13.14-7.56,15.58-5.88,16s4.78-2.48,8.15-5.75"/>
    <path d="M121.14,157c-2,3.09-9.16,7.77-12.26,8.27"/>
    <path d="M125.82,152.41c-1.26,8.92-4.28,20.75-14.54,22.25"/>
    <path d="M127,164.68c-3.1,5.81-7,9.54,3.1,12.7"/>
    <path d="M131.63,180.35c-2.41.4-2.62,2.16-.06,5.62"/>
    <path d="M111,177c6.65-.41,11.59-1,11.32,1.1-.15,1.26-6.44-1.07-10.92.91"/>
    <path d="M110.15,182.56c16.68-6.45,24.77,14.54,15.48,5.37"/>
    <path d="M108.07,185c4.22-.86,8-.54,11.18,1.15"/>
    <path d="M128,195.26c-4.87-4.1.25,4-4.85,7.68"/>
    <path d="M121.21,190.84c-9.7-3.57-10-2-.7,5.12"/>
    <path d="M100,196c2,6.53,1.45,7-3.41,3.23"/>
    <path d="M103.65,212.76c.81-3.78-.2-7.81.16-8.62.29-.63,2.16,1.42,1.85,4.71"/>
    <path d="M111.82,208.07c.22-10-6.4-13-6.35-15.21.06-2.65,7.9.13,11.5,7"/>
    <path d="M59.23,166.66c-.13,2.94-7.1,3.31-13,4.85"/>
    <path d="M78.3,165.35c-7.6,3,2.67,5.33,12.55,7.7"/>
    <path d="M21.22,124.38C23,137.17,31.28,152,26.55,131.6"/>
    <path d="M25.84,146.29a29,29,0,0,1,2,9.12"/>
    <path d="M16.72,127.46a147.8,147.8,0,0,1,8.88,32.21"/>
    <path d="M12.81,139.3c1.72,14.44,5.34,26,14,30.08"/>
    <path d="M9.37,139.34c-.47,18.32,11.38,31.25,9.12,33.83-1.65,1.9-7.1-3.2-9.11-11.72"/>
    <path d="M23.71,172.93c-3.21.56,3.31,3.54,3,8.3"/>
    <path d="M20.43,179.31c-2.52-4.54-11.57-4.51-6.2-1"/>
    <path d="M5.91,162.38c-.18,5.14,3.64,10.59.43,13.8"/>
    <path d="M25.63,184.53c-4.43-2.82-20.57-6-22.55,5.1"/>
    <path d="M14.42,185.83c-3.48,1.63-11.5,6.74-7.82,13.42"/>
    <path d="M27.81,189.06c-6.55-1.76-11.24,4-12.75,3s1.35-2.3,2.3-2.69"/>
    <path d="M25.55,191.55c-3.25,2.57-6,5.35-6.81,8.88"/>
    <path d="M11.16,204.63a6,6,0,0,1-.44-3.69"/>
    <path d="M18.84,208.6a4.13,4.13,0,0,1-.9-3"/>
    <path d="M23.71,210.78a1.84,1.84,0,0,1-.43-1.75"/>
    <path d="M33.31,193.49a26.48,26.48,0,0,0-7.51,2"/>
    <path d="M42,197.08c-4.16.81-8.95,7.51-9.88,6.84-1.61-1.17,2.08-5,3.45-8.18"/>
    <path d="M30.88,214c-5.56-8.85.34-14.66-.83-15.59-1-.79-2.87-.45-5,.16"/>
    <path d="M34.33,215.9c-2.33-7.38,4.61-12.56,1.73-12.37"/>
  </g>
  <g class="clothesEdgeLine">
    <path d="M90.77,316.3c.43,38.4,2.59,75.29,1.08,99.23-.67,10.69-.65,17.48.74,25.54"/>
    <path d="M44.39,317c.43,26.1-.65,52.2-1.94,78.31-.45,9.11,5.82,12.29,1.73,17.69"/>
    <path d="M42.45,408.2c-3.88,5.82.65,6.9.86,11.65.32,6.9-.43,14.24-.5,20.77"/>
  </g>
  <path class="skinEastAsian" d="M78,199.88c7.61-.06,5.09,3.74,8.06,5.05a2.28,2.28,0,0,1-2.75,2.69c1.18,2.27.5,4.9,1.89,7.11a5.59,5.59,0,0,1,.54,2.25c-5.38,8.82-10.86,7.12-15.83,9.8-2.91,1.46-5.89,1.68-8.28-1-3.07-3.4-8.18-2.72-9.83-8-3.36-9.64,1.17-9.44,2-12.85.73-.39,1.62.36,1.92.8,3.28-5.82,5.21-3.72,7.18-5.95,2.9-3.27,4.11-1,5.5-2.05C73.52,193.79,74.64,197.05,78,199.88Z"/>
  <g class="skinOverlapLine">
    <path d="M78,199.88c3.67,3.07,3.8,5.32,5.31,7.74"/>
    <path d="M61.17,215.78c-1-1.73-.48-3.6-1-5.24,2.81-3.08,1.51-7.51-1.46-6.27-1.12,2.35-3.27,3.39-3.35,5.83-.11,3-.83,7.07.48,8.42,3.11,3.22,5.78,5.54,7.08,5.9"/>
    <path d="M72.69,219.3c-5.08,3.13-9,.91-12.77,1.51-2.16-4.27,2.54-6.65,6.54-6.05A8.57,8.57,0,0,0,69,213.35a5.31,5.31,0,0,0,2.38,2.22c.16,5.19,4.54,5.56,6,3.19.69-.53-1.07-2.55-2-5.71-1.71-3.06-2.57-5.26-7.89-3.92"/>
    <path d="M58.68,204.27c-.26-.37-1-.72-1.35-.34-4.32,5.14-5.87,3.27-5.09,15"/>
    <path d="M68.32,205c3.75-.19,8.24,3.14,9.29,4.92,2.17,3.7,1.23,8.06,3.2,11.69-1.48,1.6-4.86,1.72-5.42-1.55"/>
    <path d="M72.87,201.47c3,2.71,6.37,4.91,7.13,6.43,1.56,3.13,2.46,6.13,2.4,7.32-.16,2.93.9,4.37.34,5.17a2.37,2.37,0,0,1-2.32.46"/>
    <path d="M85.17,214.73a2.32,2.32,0,0,1-2.75,2"/>
    <path d="M95.59,55.25c-.52,4,.68,9.61-.68,18"/>
    <path d="M37.07,56.17c.13,4.87-.41,9.47.44,16.6"/>
  </g>
  <g class="skinFoldLine">
    <path d="M96.25,56.26c3-6.16,4.6.3,2.69,6.09"/>
    <path d="M95.8,66.17c1.53.66,1.19-3.25,1.53-4.19,1.33-3.68,0-4.4-.74-3.15"/>
    <path d="M35,55.6c-.81-5-3.38,1.54-1.47,8.07"/>
    <path d="M37.2,67.39c-2.54-.45-1.73-2.7-2.14-3.62-1.79-4-.4-6.36.42-5.23"/>
  </g>
  <path class="lipMaleMedium__noStroke" d="M63.43,77.9a7.26,7.26,0,0,0,5.38,0c1.74.49,3.36,2.79,6.13,3.49-3,3.12-1.42,9-9.17,8.86-8.08-.17-5.72-6.23-8.47-8.56C60.31,80.67,61.47,78.12,63.43,77.9Z"/>
  <path class="mouthInner" d="M74.11,81.38a21.2,21.2,0,0,1-3.7-1.49c-2.9-1.14-4,.47-4.82,0-3.21-1.67-5.54.87-7.48,1.67C64,87.63,68.7,87.52,74.11,81.38Z"/>
  <path class="teeth" d="M72.67,80.92c-.94-.37-1.67-.79-2.26-1-2.9-1.14-4,.47-4.82,0C63,78.57,61,80,59.25,81,62.61,82.89,69.18,82.86,72.67,80.92Z"/>
  <g class="lipOverlapLine">
    <path d="M56.57,81.66a2.57,2.57,0,0,0,1.54-.07"/>
    <path d="M75.41,81.29a2.44,2.44,0,0,1-1.3.09"/>
  </g>
  <g class="lipEdgeLine">
    <path d="M70.76,88.8a8.9,8.9,0,0,1-10.17-.2"/>
    <path d="M63.43,77.9a7.15,7.15,0,0,0,5.38,0"/>
  </g>
  <g class="cheekLine">
    <path d="M72.46,68.45c1.46,2,3.69,2.77,5,7.34"/>
    <path d="M59.79,68.62c-1.39,1.76-3.61,3.21-4.45,6.49"/>
  </g>
  <g class="noseLine">
    <path d="M72,66.83c.05,2.18,2.77,3.26.36,5.58"/>
    <path d="M60,67.62c-.07,2-2.06,2.8-.08,4.94"/>
    <path d="M61.32,72.09c1.84,0,1.36,1.35,4.58,1.45,3.53.1,3.33-1.45,4.72-1.45"/>
  </g>
  <g class="eyeFoldLine">
    <path d="M84.1,58.22c-2.47,1.68-7.44,1.07-9.16-.14"/>
    <path d="M56.66,58.08C55,59.81,50.11,60,47.35,57.89"/>
  </g>
  <g class="eyeCornerLine">
    <path d="M45.88,54.26a3.33,3.33,0,0,1-1.09.23"/>
    <path d="M87.1,54.68a5.26,5.26,0,0,1-1.56-.39"/>
  </g>
  <path class="eyeCreaseLine" d="M47,52.33a7.3,7.3,0,0,1,10.06-.42"/>
  <g class="eyebrowBlack">
    <path d="M71.16,44.86c3.33,4.75,11.65-1.44,18.43,3.56C84.67,41.25,76.67,45.63,71.16,44.86Z"/>
    <path d="M61.56,44.72c-3.37,4.8-12.88-.57-18.14,2.92C48,41.31,54.29,46.23,61.56,44.72Z"/>
  </g>
  <path class="hairBlack" d="M32.92,50.49C28.66,27.41,34.87,17.18,45.46,9.31,43.7,8,42.4,7.48,39.81,9.12c2.81-3.66,6.12-3,8.66-1.37.76-4.27,4.77-6.69,9.86-7.31-3.09,1.41-5.7,2.68-6.12,6.08,12.13-4.37,26.66-1.86,36.48,4.87,8.47,5.81,14.71,20,11.08,39.29-4.45-1.71-1.85,4.55-4.18,4.57-.65-2.24.28-9.66-2-12.91C88.83,40,82,41.29,76.49,38.29c.6,1.32,3.35,1.39,3.89,3.19-6-2.65-15.25-1.93-21.47-7.55.54,1.2,2.82,2.69,2.76,4.07-4.84-3.59-12.94-5.72-12.77-17,.19,6.66-.3,9-2.09,11.83a38.65,38.65,0,0,0-.45-4c-1.36,5.7-5.2,9.43-6.77,11-.83,5.55-2.62,6.34-2.52,16.36C33.79,56.11,36.77,48.88,32.92,50.49Z"/>
  <g class="hairOverlapLine">
    <path d="M93.54,42.34c1.5.6,2.18,1.5,3.44,2.22-.13-1-1.44-2.76-2.7-3.9"/>
    <path d="M39.59,39.81a12.81,12.81,0,0,1-3.6,3,22.44,22.44,0,0,0,2.19-4"/>
  </g>
  <g class="stubbleBlack">
    <path d="M76.5,97c-5.38,1.07-5.71-.64-10.11-.67-4.22,0-6,1.8-10.33.89C60.93,101.07,70.83,101.41,76.5,97Z"/>
    <path d="M77.84,80.49c-1.7-5.21-4.16-6.93-11.94-6.8-6.74.12-9.23,1.51-11.66,7.21,9-2.24,8.21-3.66,9.1-3.76a6,6,0,0,0,5.53.08C70,77.44,72,79.21,77.84,80.49Z"/>
  </g>
</svg>
