<svg viewBox="0 0 199.96 507.25">
  <path class="skinGallic" d="M40.12,159.59c1.53,23.72,5.38,52.52,1.45,70.64a372.37,372.37,0,0,0-4.13,132c.76,5-.83,9.75,1.09,16.84-3.38,25,7.81,58.85,5.34,87.39-.92,10.66-9,14.79-13.95,21.78-4.85,6.83-10.32,7-11.63,12.21A2.94,2.94,0,0,0,21,504.35c.86,2.46,11.9,3.35,16.39,2,11.55,1.15,12-5.91,23.85-8,8.16-1.44,8.3-8,6.74-14.94C57.05,435.2,75.75,410.29,71.11,379,68.77,363.23,82,339.91,85.8,266.89c4.51,77.29,16,99.84,14,112.1-5.17,32,16.44,62.83,7,105.5-1.7,7.62-.46,11.61,4.65,12.54,11.6,2.12,16.22,13.08,29.6,9.12,1.32,1.3,11.17,1.16,11-1.38,1.94.17,3.48-.53,3.46-2.69,1-2-.9-4.43-3.41-5.82-7-3.89-10.71-10.71-18.51-18.51-4.49-4.48-5.6-12.4-4.65-24,2.38-29.06,5-57.56,3.18-75.52,2.07-7.38.9-13.91,2-19.94,5.21-29.76,3.91-80.87-.71-121.88s2.61-68.19,4.79-95.18c13.93,8.15,50.86,10.65,55.3,5.75,14.16-15.64.21-47.77-2.38-77.29-.57-6.5-4.28-15.23-4.34-18-.1-4.59-2.41-3.87-3.06-6.68-1.53-6.57-5.75-4-7.54-6.31-3.14-4-7.37-.45-14.55.76-3.93.67-7,8.81-6.74,9.61-6.93-.13-6.47,8.61-2.53,11,1.41.86,2.89,3,5.54,1.06,4.87,6.41,6.48,13.46,17.29,12.06,5.51,8.11-1.13,29.23-2.7,49.18-6.66-5-20.47-4.84-24-7.2-7.3-5-13.72-7.52-27.5-7.37-3.14,0-7.31-3-14.79-4.64-2.75-1.3-2.33-9.55-1.69-17.06l-32.35-.33c.88,5.56.76,16.54-1.75,17.59-10.11,1.73-22,8.9-35.23,13.81C25,121,19.84,131.39,15.94,149"/>
  <g class="sign">
    <path class="bookPageLight" d="M122.59,301.15c-12.47-.9-24.79.21-41.68-.19-13.65-.33-25.85.4-37-.07,1.11-22.53-.55-43.46,0-63.58,13.51.67,22.75-.2,41.58.19s26.17,0,37.42-.19c-.5,6.12-.3,15.65.06,29.51C123.37,281,122.31,292.52,122.59,301.15Z"/>
    <g class="signDisplayLine">
      <polyline points="49.84 265.01 50.4 244.2 54.91 253.41 59.32 244.2 59.69 264.64"/>
      <polyline points="70.74 244.85 64.39 245.03 63.93 264.06 70.65 264.27"/>
      <line x1="64.15" y1="254.61" x2="67.81" y2="254.61"/>
      <polyline points="73.95 264.47 77.59 244.63 83.05 264.28"/>
      <line x1="83.55" y1="245.01" x2="94.53" y2="244.82"/>
      <line x1="104.02" y1="244.44" x2="104.02" y2="264.36"/>
      <path d="M116.43,245.76c-2.88-3.26-9.09-.58-8,4.83.68,3.44,6.86,1.63,8.1,6.21,1.59,5.9-4.4,9.34-8.22,6.39"/>
      <polyline points="50.74 294.48 51.3 273.69 55.78 282.25 60.82 273.83 60.62 294.48"/>
      <path d="M64.68,274s.28,12.84.28,17c0,5.8,6,5.23,6-.46,0-4.08,0-16.79,0-16.79"/>
      <path d="M75.31,294.27l.21-20.13a9.14,9.14,0,0,1,5.48,0c3.59,1.45,2.71,8.81-.57,9.66,2.49,1.5,2.8,5.75,2.33,10.5"/>
      <path d="M87.32,273.55c0,.21-.21,21.26-.21,21.26,4.78-.3,7.28-4.37,7.18-12.84C94.2,274.54,91.47,272.62,87.32,273.55Z"/>
      <polyline points="104.31 273.9 97.68 274.45 97.96 294.21 103.75 294.21"/>
      <path d="M107.19,294.12l-.06-20.22a9.55,9.55,0,0,1,5.3-.35c4.08,1.08,2.94,9.11.17,10,2.78.59,3.16,5.46,2.88,10.63"/>
      <line x1="89.04" y1="244.91" x2="88.91" y2="264.41"/>
      <path d="M112.6,283.56a16.23,16.23,0,0,1-5.44.49"/>
      <path d="M80.43,283.77a13.87,13.87,0,0,1-5,.31"/>
      <line x1="97.81" y1="283.99" x2="102.08" y2="283.82"/>
      <line x1="75.56" y1="255.21" x2="80.67" y2="255.21"/>
      <line x1="105.72" y1="244.44" x2="102.3" y2="244.44"/>
      <line x1="105.91" y1="264.36" x2="102.23" y2="264.36"/>
    </g>
  </g>
  <g class="eye">
    <rect class="sclera" x="65.11" y="42.59" width="46.26" height="11.99"/>
    <g class="irisGreen">
      <ellipse cx="101.69" cy="47.33" rx="3.67" ry="3.51"/>
      <ellipse cx="73.95" cy="47.33" rx="3.67" ry="3.51"/>
    </g>
    <g class="pupil">
      <ellipse cx="101.61" cy="47.17" rx="1.43" ry="1.37"/>
      <ellipse cx="73.87" cy="47.17" rx="1.43" ry="1.37"/>
    </g>
  </g>
  <g class="skinGallic">
    <path d="M40.12,159.59c-4.34,8.8-8.48,21.79-14.51,35.6,6.23,16.49,1.3,28.63,10.44,43.13,1.21,1.91,3.58,1.53,7.79,7.11l0,7.48c5.39,2,6.22,3.81,7.7,4.06,4.22,1.13,7.13,3.93,6.27,5.87s-2.78,2-5.87,1.31c3.24,1.82,3.89,3,3.28,4.41-1,2.41-5.4,2.11-11.1-.14l.05,2.66a4.12,4.12,0,0,1-2.46,1.34,4.07,4.07,0,0,1-4.45,3.75C31,275.79,26.93,274,24.73,269c-5.08-15.59-.72-19.39-3.18-23.17C9.18,226.9-.24,208.34.27,196.93c.68-15.36,13.82-39.67,15.67-48"/>
    <path d="M57.28,55.58c-2.61-8.45-10-1.31-4,14.07C54.39,73.43,56,77.2,59.09,77,57.72,70.62,57.51,63.18,57.28,55.58Z"/>
    <path d="M119.49,55.91a115.47,115.47,0,0,1-1.94,21c3.21.69,4.35-2.55,5.55-5.9C128.89,54.75,122,47.35,119.49,55.91Z"/>
    <path d="M119.49,55.91c0,11.49-1.74,23.82-4.55,29.7-1.48,3.11-4.76,5.49-7.82,7.83-4,3.07-5.55,4.53-8.57,6.26C94.61,102,88.34,103,81.61,101.58c-5.42-1.1-10.06-6.67-13.67-9.21-9.81-6.87-10.2-21.54-10.66-36.79C46.79-11.25,134-7.21,119.49,55.91ZM96.67,49.59c3.13.25,6.77,2.78,12.17-.72-2.11-1.19-3.5-3.13-6.79-3.17-3.1,0-4.59,1.45-6.38,3.12C94.9,49.54,96.14,49.55,96.67,49.59Zm-16.34-.72a6.75,6.75,0,0,0-6.47-3.28c-4.15.13-5,2.41-6.64,3.37,2.91,2.26,8,2.23,11.79.68C79.46,49.46,81,49.86,80.33,48.87Z"/>
  </g>
  <g class="skinDisplayLine">
    <path d="M25.34,502.18a5.1,5.1,0,0,1,2.34.18"/>
    <path d="M30.33,502.4a6.06,6.06,0,0,1,2.57.18"/>
    <path d="M149.1,503.35a3.93,3.93,0,0,1,2.25-.24"/>
    <path d="M143.69,503.08a6.59,6.59,0,0,1,2.51.06"/>
    <path d="M140.52,499.15c-2.16-.57-4.37.35-6.17.13"/>
    <path d="M36.62,498.43c2.07-.38,4.46.34,6.11.42"/>
    <path d="M87.09,225.67c-2.15,6.68,4,7.25,2.14.19"/>
  </g>
  <g class="skinOverlapLine">
    <path d="M40.12,159.59A75.62,75.62,0,0,1,39,144.17"/>
    <path d="M138.16,141.26c-3.5-5.11-4.43-9.79-3.81-14.21A23.16,23.16,0,0,0,132,138.67"/>
    <path d="M21,504.35c-2.71-3.21-.14-4.53,1.26-7"/>
    <path d="M155.51,502.08a4,4,0,0,0-2.33-2.93"/>
    <path d="M152.05,504.77c.74-1.94-.59-3-1.2-4.5-.24-.59-1.19-1.29-1.69-1.78"/>
    <path d="M144.75,498.3a2.66,2.66,0,0,1,1.79,2c.73,2.49,1.86,5.34-.18,6.66"/>
    <path d="M132.61,496c2.54,2,6.28,2.26,7.91,3.18,2,1.13,3,5.36.49,7"/>
    <path d="M41.86,495.88c-.61.94-3.07,1.8-5.24,2.55-2.69.92-3.95,6.31.72,7.88"/>
    <path d="M31.94,496.94a7.18,7.18,0,0,0-2.45,3.56c-.44,2.53-1.67,4.68,1.23,6.47"/>
    <path d="M26.09,497.21a3.16,3.16,0,0,0-1.61,2.46c-.45,2.6-3.24,4.06.31,6.64"/>
    <path d="M174.75,61.81c-1,.71-1.1,1.13-2.75,1.39.48,1.39.75,2.78.21,3.76-2,.71-2.67.15-4.94-.94-1.79-.85-3-5.18-2.22-7,1-2.36,6.26-4.34,11.34-5.7"/>
    <path d="M175,47.64c-5.15,1.21-13.45,5-14.95,7.65-.86,1.79,1,9.3,5.46,8.47"/>
    <path d="M172.42,42.9c-6.65,1.5-13.6,3.94-15.24,7-.86,2.36,1.5,7.51,2.72,7.52"/>
    <path d="M154.85,49.12A3.07,3.07,0,0,1,157,50.4"/>
    <path d="M157.86,61.19a4.46,4.46,0,0,0,1.55-4"/>
    <path d="M172.21,67a10.43,10.43,0,0,0,2.94,6.29"/>
    <path d="M41.75,272.42c-1.86.2-6.49-1.18-9.68-2.93"/>
    <path d="M44.16,268.42a43.87,43.87,0,0,1-9.88-4.67"/>
    <path d="M37.8,257.63A71.63,71.63,0,0,0,52,264.15"/>
    <path d="M41.49,251.94c.87.33,1.73.68,2.39,1"/>
  </g>
  <g class="skinFoldLine">
    <path d="M172.45,122.43c.23,5.06,1.23,9.39,3.59,12.4"/>
    <path d="M25.61,195.19a18.31,18.31,0,0,0-13.72-5.35"/>
    <path d="M176.24,58.18c-.47.84-.32,2.3-1.49,3.63A6.85,6.85,0,0,0,179,60.27"/>
    <path d="M119.42,59.59c2.59-6.81,6.47-2.23,3.32,7.63"/>
    <path d="M120.77,61.56c1.36-1.82,2.21,1.63.47,4.31-.72,1.31-.62,4.31-2.55,3.61"/>
    <path d="M57.47,58.84c-2.9-6.43-7-1.67-3.56,8.22"/>
    <path d="M55.54,60.73c-1.14-.71-2.3,1.85-.37,4.82.81,1.26.53,4.26,2.87,4.54"/>
  </g>
  <g class="skinCreaseLine">
    <path d="M47.59,172.41c8.44,4,17,5,25.78,2"/>
    <path d="M101.18,174.23c10.13.8,19.26-.25,26.59-4.66"/>
    <path d="M87,144c-.65,6.86,0,18.67-.4,27"/>
    <path d="M46.11,379.81c2.62,1.88,10.11,1.5,13.11.38"/>
    <path d="M114.2,380.43c3,.75,9.55.56,12-1.31"/>
  </g>
  <g class="nippleWhite">
    <ellipse cx="115.38" cy="164.22" rx="3.27" ry="1.96"/>
    <ellipse cx="57.85" cy="166.7" rx="1.96" ry="3.27" transform="translate(-110.97 218.03) rotate(-87.77)"/>
  </g>
  <path class="lipMaleLight__noStroke" d="M84.38,71c1.75,1.1,5.15,1,7.18.16,2.31,1.13,5.59,5,5.92,8C95.64,82.43,95,87.91,88.08,88c-6.39.08-7.57-4.9-9.31-8.69C79.35,76.26,82.21,71.62,84.38,71Z"/>
  <path class="mouthInner" d="M92.33,73.92a20.83,20.83,0,0,0-8.64.14c-1.76.63-5,4.26-4.51,5.24,3.53,7,16.6,4.5,17.9-.23C97.42,77.83,94.41,74.64,92.33,73.92Z"/>
  <g class="teeth">
    <path d="M81.56,82c3.49,2.37,9,2,12.43.23A119.85,119.85,0,0,0,81.56,82Z"/>
    <path d="M92.33,73.92a20.83,20.83,0,0,0-8.64.14,9.51,9.51,0,0,0-3.15,2.54h0c3,1.51,11.79,1.84,15-.33h0A9.35,9.35,0,0,0,92.33,73.92Z"/>
  </g>
  <g class="lipEdgeLine">
    <path d="M91.56,71.11c-2,.83-5.43.94-7.18-.16"/>
    <path d="M94.25,85.1c-2.42,3.67-9.16,3.83-12,.54"/>
  </g>
  <g class="cheekLine">
    <path d="M98.07,63.23c2,2,3.25,5.55,3.63,8.59"/>
    <path d="M78.22,63.92a19.14,19.14,0,0,0-3.36,8"/>
  </g>
  <g class="noseLine">
    <path d="M95.13,60a3.15,3.15,0,0,1-.69,5.23"/>
    <path d="M81.39,59.92a3.44,3.44,0,0,0,.35,5"/>
    <path d="M83.34,64.4c2-.05,2.51,1.44,4.7,1.39,2.73-.07,2.79-1.77,5.23-1.28"/>
  </g>
  <g class="eyeFoldLine">
    <path d="M106.29,51.81c-2.68,1.77-6.67,1.39-9.13,0"/>
    <path d="M78.38,51.6c-2.19,1.34-6.72,1.92-8.81.42"/>
  </g>
  <g class="eyeCornerLine">
    <path d="M67.22,49a3,3,0,0,1-1.45.45"/>
    <path d="M110.34,49.62a5,5,0,0,1-1.5-.75"/>
  </g>
  <g class="eyeCreaseLine">
    <path d="M96.31,46.37c5.64-5.28,10,0,11.26.32"/>
    <path d="M68.29,46.15c3.5-2.71,7.83-2.65,10.73,0"/>
  </g>
  <g class="eyebrowSandy">
    <path d="M92.78,41.19c.24,3.44,8.91.46,11.93.49,2.56,0,3.85,1.13,6.34,2.14.54.23,1.88-1.16,1.34-1.39C104.63,36.44,101.11,39.4,92.78,41.19Z"/>
    <path d="M83.12,41.09c-.24,3.45-8.32.73-11.34.77-2.56,0-3.85,1.13-6.34,2.13-.54.23-1.95-.9-1.41-1.13C71.79,36.87,74.56,39.37,83.12,41.09Z"/>
  </g>
  <path class="hairSandy" d="M57.28,55.58c-1.89-1.69-2.44-4.85-3.39-7.75a32.84,32.84,0,0,1,.48-22.27C56.59,19.28,59.63,12,66.63,8.15A8,8,0,0,0,62.47,9C67.78,1.52,76.74.24,88.14,3.05A22.41,22.41,0,0,0,82.66.34a40,40,0,0,1,21.59,4.93,12.46,12.46,0,0,0-4.12-4.16c10.19,2.09,16.63,10.3,16.24,19.32,5.28,3.94,10.16,15.07,6.18,27.49-.93,2.89-.7,5.42-3.06,8-.06-18.5-4.93-18.19-3.54-32.12-6.81-9-21.13-14.86-28.16-11.44-3.88-2.12-8.45-.23-12.48,2.76A10.07,10.07,0,0,1,78,10.55a25.75,25.75,0,0,0-9,9.32,9.2,9.2,0,0,1-.32-4.24,40.14,40.14,0,0,0-8.89,12.92C60,39.41,56.93,33.75,57.28,55.58Z"/>
</svg>
