<svg id="presence" xmlns="http://www.w3.org/2000/svg" viewBox="0 0 2613.51 2472.13">
  <defs>
    <style>
      .cls-1 {
        fill: none;
        stroke: #000;
        stroke-miterlimit: 10;
        stroke-width: 2px;
      }
    </style>
  </defs>
  <title>epilogue</title>
  <g id="liz">
    <path id="lizJeans" class="cls-1" d="M2484.35,1007.07c30.67,162.14,14.24,467.79-26.3,678.13-8.76,39.44,17.53,39.44-1.09,58.07-8.77,25.19,18.62,23,1.09,41.63,7.67,122.69-19.72,246.49-38.34,359.33l-116.13-4.38c-6.57-124.89-41.41-261.11-32.86-349.48,2.75-28.48-5.93-38.15-6.57-93.12-.42-35.5-33-120.66-31.77-407.53-12.1,276.63-33.71,379.58-31.77,410.82,2.22,36-8.87,64.78-5.48,94.22,12.07,104.92-27.27,225-34,345.09L2041.75,2142c-10.19-120.24-37.32-259.35-30.67-356.86-15.59-13.83,4.92-19.6-2.19-45.2-22.62-8.21,6-21.67-8.77-83.26-41.9-174.36-65.73-483.13-25.19-648.55Z"/>
    <g id="lizJeansCuff">
      <path class="cls-1" d="M2422.22,2129.25c11.07,4.86,6.11,46.38-2.8,45.83-16.69,37.42-101.11,49.89-126.81,1.25-11.69-6.84-4.45-52.68,9.74-55.87C2315.09,2134.91,2408.36,2140.54,2422.22,2129.25Z"/>
      <path class="cls-1" d="M2162.2,2124.45c11.15.19,10.31,51.59-.84,51.4-1.45,41.26-108.8,33.44-120.35-.77-9,.09-9.46-46.52-.47-46.61C2059.4,2140.54,2149.05,2137.32,2162.2,2124.45Z"/>
    </g>
    <g id="clothesDisplayLine">
      <path class="cls-1" d="M2228.46,1007.62c-1,57.66,4,150.87,1,189-3.46,44.42.09,64.89,2.93,93.07"/>
      <path class="cls-1" d="M2287.71,1088.36c3.44,28.35-1.39,56-.09,80.61,1.66,31.3-20,49-59.5,53.09"/>
      <path class="cls-1" d="M2110.45,1070.33c-32.35,25.38-76.9,36.12-130.2,33.15"/>
      <path class="cls-1" d="M2370.57,1068.68c30.53,20.74,63.73,31.27,100.46,30.24"/>
      <path class="cls-1" d="M2308.28,2124.45c-9.2,6.11-14.6,47.58-8.14,55.42"/>
      <path class="cls-1" d="M2153.31,2129c6,8.48,7.15,47.17,1.45,55.44"/>
    </g>
    <g id="clothesFoldLine">
      <path class="cls-1" d="M2202.3,1240.4c-60-18.8-124.3-18.8-191.06-7.94"/>
      <path class="cls-1" d="M2209.1,1268.18c-31.75-1.7-75.4,7.37-98.65,20.41"/>
      <path class="cls-1" d="M2269.77,1241c47.14-19.62,105.88-23.53,170.65-19.28"/>
      <path class="cls-1" d="M2263.53,1269.88c26.65-4.53,70.87,0,98.08,12.48"/>
      <path class="cls-1" d="M2457,1743.27c-28.79,12-63.79,18-106.12,17"/>
      <path class="cls-1" d="M2458.05,1784.9c-33.29,15.32-74.26,21.59-123.65,17.92"/>
      <path class="cls-1" d="M2008.89,1740c24.17,6.07,58.47,6.71,82.29,3.88"/>
      <path class="cls-1" d="M2011.08,1785.18c26.24,7.27,96,9.4,144.73-.8"/>
      <path class="cls-1" d="M2024.84,1726.28c25.21,5,54.11,5.11,85.61,1.7"/>
      <path class="cls-1" d="M2065.66,1774.47c27,1.7,55.24-.27,84.48-5.1"/>
      <path class="cls-1" d="M2412.07,1742.72c-32.14,5.37-64.43,7.6-97,5.1"/>
      <path class="cls-1" d="M2448.36,1773.9c-21.45,9.57-43.87,14.26-67.47,13"/>
      <path class="cls-1" d="M2146.17,2082.33c-24.64,16.85-51,24.8-79.94,19.84"/>
    </g>
    <g id="lizSoleSide">
      <path class="cls-1" d="M2455.11,2404.33c-1.22,9.91-3.81,21-9,24.89-32.31,24.36-125,23-146.7,3.65-4.46-4-17.66-24.52-19.32-40.43-4.16-.05-8.38-1.26-9.22-5-2.36-10.52-3.94-38.59-3.28-63.5Z"/>
      <path class="cls-1" d="M1994.31,2404.33c1.23,9.91,3.81,21,9,24.89,32.3,24.36,125,21.05,146.69,1.65,13.88-12.41,11.83-28.81,17.32-38.43,4.16-.05,10.38-1.26,11.23-5,2.35-10.52,3.94-38.59,3.27-63.5Z"/>
    </g>
    <g id="lizShoe">
      <path class="cls-1" d="M2419.42,2175.08c-4.18,30.12-4,63.45.91,86.32,6.06,28.49,7.61,55.43,18.48,75,10.17,18.31,23.19,41.75,16.3,67.93-24.58,26-159.52,44.7-171.84-19.09-5.36-27.77-16-40.55-15.65-61.34.81-43.54,31.25-77.86,25-147.57,4.67,4.89,7.53,3.54,7.53,3.54C2306.34,2159.06,2361.7,2212.65,2419.42,2175.08Z"/>
      <path class="cls-1" d="M2041,2175.08c4.18,30.12-3,63.09-12.73,87.31-10.81,27.05-10.17,59.47-21,79-10.17,18.32-20.52,40.2-12.93,62.91,24.58,26,161.37,36.56,166.84-19.09,3.37-34.35,21-40.55,20.65-61.34-.81-43.54-26.7-78.33-20.44-148.05-3.68,8.1-6.41,9.2-11.69,10.11C2143,2164.9,2081.2,2207.36,2041,2175.08Z"/>
    </g>
    <path id="lizShirt" class="cls-1" d="M2357.23,280.14c89.84,46.21,200.59,39.14,226.81,183.56-28.81,16.85-96.17,44.05-126.09,53-6.82,13.65,32.59,45.67,11,113.79-5,15.68,17.48,33.39-10.16,50.78-2.1,14.09,6.52,37.49-6.77,54.64-5.8,10.56,17.6,30.26-5.32,68.67,11.22,15.77,15.15,44.08,14.3,73.65-.62,21.55,24,84.35,29.56,144.08-75.51,37-157,60.68-243.83,72.65-8.06-27.67-13.77-62.26-18.47-102.21-1.53,34.44-5,67.22-12.93,96.06-85.59,1.84-177.33-53-250.6-59.11,31.4-114.53,14.7-156.24,36.33-180.41-10.57-18.29-10.42-37.21-1.23-56.64-13.55-31.41,10.46-61.58-7.39-128.07-25.25-43.72-22.78-96.67,0-143.87-40.24-13-112.76-46.64-122.47-57.65,43.39-132.12,109.45-125.65,222.8-176.17"/>
    <path id="lizShirtCollar" class="cls-1" d="M2358.7,276.43c13.56,18.6-11.06,66.38-31.57,106.13-12.06-24.91-27.67-63.79-40.76-70.65l-125.89-.9c-17.74-9.24-34.27,39-53.44,63.4-12.91-35.33-24-81.07-19-87.86,15.22-20.93,26.64-54.21,44.38-56.15H2319C2337.19,227,2338.49,248.7,2358.7,276.43Z"/>
    <g id="clothesOverlapLine">
      <path class="cls-1" d="M2300.14,2179.87c-3,11.68,2.56,48.45-10.26,84.68"/>
      <path class="cls-1" d="M2149.67,2186c5.83,10.75,6.27,59,15.68,86.29"/>
      <path class="cls-1" d="M2223,406.11c18.22,53.63,5.23,57.39-.19,94.44-4.8,32.81,14.83,38.92,3.78,84.83-11,45.61,2.56,60.63-.58,97.62-4,47.21-14,52-.9,109.63,8.54,37.6.9,124,3.16,200.12"/>
    </g>
    <g id="clothesFoldLine-2" data-name="clothesFoldLine">
      <path class="cls-1" d="M2458,516.7c-11.31-22.76-30.51-33.81-55.78-35.82"/>
      <path class="cls-1" d="M2040.49,505.87c-15.3-12.05-39.86-4.68-48,14.84.39-24.43,20-39,38.47-37.63"/>
      <path class="cls-1" d="M2213.25,447.8a321,321,0,0,0-47.79,3.67"/>
      <path class="cls-1" d="M2198.54,438.24c-13.41-3.76-28-5.76-43.37-6.62"/>
      <path class="cls-1" d="M2205.89,546.3a206.38,206.38,0,0,0-45.57-8.82"/>
      <path class="cls-1" d="M2192.66,553.65c-18.8,1.82-39.21,2.9-60.28,3.68"/>
      <path class="cls-1" d="M2203.69,563.21c-16.12,3-30.77,6.86-43.37,11.76"/>
      <path class="cls-1" d="M2206.63,675.69c-16.66-.12-35.53.44-55.87,1.47"/>
      <path class="cls-1" d="M2199.28,685.24a192,192,0,0,0-41.9,11.76"/>
      <path class="cls-1" d="M2197.07,794.78a285.16,285.16,0,0,0-45.58-10.29"/>
      <path class="cls-1" d="M2283.08,446.33c-18.25-.48-35.42-.57-50.73,0"/>
      <path class="cls-1" d="M2267.64,536.55c-14.49.24-28.35,2.51-40.63,1.48"/>
      <path class="cls-1" d="M2297.05,553.23c-19.67-1.47-42.73-1.73-67.45-1.4"/>
      <path class="cls-1" d="M2276.57,566.72q-22.93-2.38-46.66-3.51"/>
      <path class="cls-1" d="M2284,677.16c-20.85-.73-40.4-1.08-57.62-.74"/>
      <path class="cls-1" d="M2284,695.17c-22.06-3.73-42.19-6.26-58.55-6.47"/>
      <path class="cls-1" d="M2298.58,787c-20.91,1.54-40.28,2.45-57.77,2.59"/>
      <path class="cls-1" d="M2277.4,804.09q-25-3.48-51-4.59"/>
      <path class="cls-1" d="M2461.46,387.82c-13.58,38.52-20.08,77.26-11.34,116.47,3.89-33.67,18.66-59.21,39.17-80.45"/>
      <path class="cls-1" d="M2409.49,502c12.68-.12,36.65,7.36,48.46,23.32"/>
      <path class="cls-1" d="M1970.75,446.33c15.77,13.81,25.28,31.09,29,51.57,11.07-16.77,14.35-33.55,21.3-46.43"/>
      <path class="cls-1" d="M1992.45,387c9.12,35.88,14.14,72.43,7.34,110.9"/>
      <path class="cls-1" d="M2007.59,652.62c7.29,15.27,20.94,26.43,37.65,35.6"/>
      <path class="cls-1" d="M1992.42,664.58c10.23,13.66,21,24.62,32.77,31"/>
      <path class="cls-1" d="M1999.81,792.65c2.91,6.59,7.12,11.54,13.1,14.26"/>
      <path class="cls-1" d="M2001,849.29c5.32,8.78,12.45,12.19,1.23,22.69"/>
      <path class="cls-1" d="M2446.68,804.58c-4.86,10.92-19.74,16.65-4,24.84"/>
      <path class="cls-1" d="M2452,735.91c-8.14,6.74-13.17,10-4,21.07"/>
      <path class="cls-1" d="M2448,666.94q-21.52,22.9-55.66,34.79"/>
      <path class="cls-1" d="M2458.77,681.27c-12.05,11.43-26.17,20.52-41.51,28.23"/>
    </g>
    <g id="skinIndian">
      <path class="cls-1" d="M2312.64,182.39l18.11,66.12c2.33,28.67-17.82,45.27-44.38,63.4-15.39,10.52-37.13,65.22-63.4,94.2-20.83-45.29-43.52-85.44-62.49-95.1-23.66-12-37.95-30.09-38.05-59.22L2136,186.92"/>
      <path class="cls-1" d="M1903.14,1097c22.13-122.09,88.51-204.5,80.12-315.9,1.93-27.48,6.68-61,13.21-98.35-1-5.74-2.34-11.78-4-18.16-25.25-43.72-22.78-96.67,0-143.87-30.72-9.89-80.27-31.87-106.31-46.61-14.1,84.15-9.52,214.77-22.69,258.92-34.55,115.86-14.5,232-26.7,338.79"/>
      <path class="cls-1" d="M2578.43,1122.17c14.34-130.51,50.83-247.28,25.18-375.42-15.28-76.35-14.57-192.65-29.68-277.52-32.24,16.75-89.15,39.45-116,47.47-6.82,13.65,32.59,45.67,11,113.79-4.42,13.93,12.8,29.46-2.67,45,2.9,36.13,11.69,71.44,13.74,98.78-16,125.9,27.47,212.89,15.26,351.76"/>
    </g>
    <g id="skinCreaseLine">
      <path class="cls-1" d="M2480,774.22c17.84-1.94,34.36-12.49,62.33-11"/>
      <path class="cls-1" d="M1939.15,768.61c13.76-.46,30.27,8.72,44.11,12.48"/>
    </g>
  </g>
  <g id="oldBennett">
    <g id="oldBennettShoe">
      <path class="cls-1" d="M1456.44,2228c-11.47,40.71-29.67,98.48-12.4,147.42,6,17,31.31,15.29,42.46,29.52,33.48,42.73,163.78,21.41,175.21,1,48.07-85.82-57-65.34-80.49-168.84Z"/>
      <path class="cls-1" d="M1320.78,2230.39c17,44,30.65,87.5,18.76,136.23-5.06,20.76-23.41,11.47-29.94,28.1-20.69,52.65-168,45.31-190.67,8.21-16.78-27.49.08-49.59,21.76-68,23-19.52,15.92-56.82,53.35-96.94Z"/>
    </g>
    <g id="oldBennettSole">
      <path class="cls-1" d="M1661.71,2406c2.88,4.49,1.57,12.77-2,15.32-40.81,28.77-151.71,34.36-180.5-7.68-10.37-12.09-29.31-10.07-34.55-22.15-1.85-4.25-3.57-12.16-.58-16Z"/>
      <path class="cls-1" d="M1339.54,2366.62c4.09,6.6,3.49,14.88,1,18.77-9.8,15.37-18.45,5-28.41,22.4-30.8,53.78-161.73,47.57-189.31,12.26-4.89-6.26-7.77-13.05-3.89-17.12"/>
    </g>
    <g id="oldBennettBuckle">
      <path class="cls-1" d="M1617,2302a134,134,0,0,1-15.68-18.43c-34.88-5.69-72.87-2.51-100.46,10.9l13.54,19C1542.71,2300.22,1580.55,2297.29,1617,2302Z"/>
      <path class="cls-1" d="M1163.39,2290.14c-2.44,6.82-4.48,13.27-6.69,19.21,25.87-5.08,62.48-5.12,91.6,7.09l18.1-17.58C1234.47,2283.81,1185.7,2283.4,1163.39,2290.14Z"/>
    </g>
    <g id="clothesFoldLine-3" data-name="clothesFoldLine">
      <path class="cls-1" d="M1649.17,2328.87c-20.24-17.17-82.24-12.06-104.32,1.7"/>
      <path class="cls-1" d="M1241.13,2343.76c-34.62-17.19-70.32-21.36-100.44-8.8"/>
    </g>
    <path id="oldBennettPants" class="cls-1" d="M1638.67,835.76c12.75,90.86,33.34,196,28.7,285.33-10.69,205.82-12.76,390.54-36.67,527.63-5.78,33.13-8,389-25.5,599.36-23.67,11.14-45.91,17.24-67,19.13-33.48-1.29-65.21-3.7-94-8l-59-663.12c-22.32,227.94-27.1,546.75-35.07,647.18-34,13.61-66.56,22.72-97.23,25.5-35.22-3-67.14-9.65-87.68-15.75-11.16-201-32.31-416.85-27.1-539-16-38.39-12.16-106.41-20.72-172.15-24.5-188.14-12.75-455.9,6.38-701.38Z"/>
    <g id="clothesFoldLine-4" data-name="clothesFoldLine">
      <path class="cls-1" d="M1631.68,1427.28c-9.53,26.24-24.29,46.8-44.52,61.41"/>
      <path class="cls-1" d="M1137.35,1649.88c7.94,27.46,18.08,49.84,32.24,62.94"/>
      <path class="cls-1" d="M1596.37,2176.44c-7.55,26.34-18.77,47.12-35.31,59.88"/>
      <path class="cls-1" d="M1171.13,2029.07c4.89,64.49,15.35,118.21,41.45,152"/>
      <path class="cls-1" d="M1138.14,1714.07a65.42,65.42,0,0,0,17.64,21.78"/>
    </g>
    <g id="skinEastAsian">
      <polyline class="cls-1" points="1496.78 3.02 1496.78 163.85 1294.73 163.85 1294.73 0"/>
    </g>
    <path id="oldBennettShirt" class="cls-1" d="M1639.65,591.87c9.12,22.7,26,35.71,30.64,52.26-7.92,17.23-10.26,27.46,3.11,37.06-9.84,22.33-7.7,40.83,8.24,54.93-9.34,17.41-3.53,34,7.59,50.32-26.27,123.9,186.26,87.84,144.31-9.5,8.73-16.39,5.15-39.08-5.69-65.51,4.33-17.88,2.28-35.61-6.65-53.16,8-28.66,1.59-53.08-13.29-75,3.51-18.57,9-38.45-5.7-45.58.87-32.09-6.28-68.27-19-107.28-11.16-45.73-6.09-85.59-16.14-128.17-3.93-16.65-1.7-34.35-9.11-51.29-16.47-64.68-68.47-80.78-122.86-104.14-129.45-54-176.61-20.2-239,.3-113.49-53.39-137.57-39.28-236.9-5.76C1269.61,407.44,1431.68,553.18,1639.65,591.87Z"/>
    <g id="oldBennettVest">
      <path class="cls-1" d="M1241.53,111.09c9,152.12,123,352.47,168.34,368.37v390c2.07,7.1-86.25,79-90.89,79.72-6.72,1.09-188.82-68.26-185.49-88.85-1.32-23.75,11.2-229.24-.42-431.13,30.17-105.49,18-239.24,20-286.73C1151.2,137.9,1211.23,123.92,1241.53,111.09Z"/>
      <path class="cls-1" d="M1544.11,115.47c.61-3.25,95.87,24.69,97.32,32-4.1,120.73-12.6,225,16,300.65-27.71,292.21-3.44,390.19-8.72,392.17,3.51,7.25-183.41,99.16-194.63,95.86-8.44-2.48-79.15-55.69-79.15-63.61L1372.27,489C1458.42,435,1517.49,284.54,1544.11,115.47Z"/>
      <path class="cls-1" d="M1615.57,702.87c4.66,0,4.66,31.19,0,31.19-38.18,5.65-84.42,20.48-124.36,19.78-4.5.06-4.91-32.44-.42-32.49C1535,720.64,1576.68,707.22,1615.57,702.87Z"/>
    </g>
    <path id="oldBennettShirt-2" data-name="oldBennettShirt" class="cls-1" d="M962.49,626.65c-11.19-15.62,2.31-43.75,8.33-74.82,5.35-27.58,2-57.83,12.56-78.35,9.26-76.37,15.15-161.21,36-212.38,28.7-70.38,78.35-96.41,133.63-117.44-1.74,48.5,10,180.91-20,285.54q1.15,20.16,2,40.29c-18.83,101.49-6.39,129.52-37.41,156,1.3,4.65,1.38,8.49-1.39,10.43,30.13,17.5,10.42,47.78,23.65,78.63,12,12.1,15.54,26.71,15.31,42.45,14.51,11.08,17.16,29.22,14.48,50.53,20.3,9.25,22.77,14.91,17.37,40.57,8.61,17.12,7.47,26,4.38,35,9.17,38.45,26.07,50.91,26.28,65.07.28,18.62-86.86,53.55-98.23,38.8-9.66-12.54-4.92-33.78-19.4-60.07-19.69-8.91-31.5-21.47-26.28-41.92-17.34-4.94-27.94-15.65-26.9-36.29-17.81-12.61-26.92-30.73-21.28-58.19-15.91-9.68-26.08-23.32-20-48.18C933.41,648.69,970,642.76,962.49,626.65Z"/>
    <g id="oldBennettCollar">
      <path class="cls-1" d="M1498.19,52.38c16.73-.54,23.34,39.55,41.56,60.17,10.08,33.8-65.49,77.69-86.55,95-16.78-29.73-22.11-72.45-40.81-66.22C1423.42,127.92,1501.39,115.41,1498.19,52.38Z"/>
      <path class="cls-1" d="M1294.05,54.29c-7.26,42.28,63.53,67.17,83.66,84.43-23-7.19-24.33,46.48-43.51,73.33-34-27.83-80.41-68.1-77.72-106.44C1274.7,80.19,1278.1,48.54,1294.05,54.29Z"/>
    </g>
    <g id="oldBennettBowtie">
      <path class="cls-1" d="M1490.77,125.51c-13.25-9.05-46.55,13.09-71.15,29.93,1.8,7.57,1.14,26.09-1.12,36.12,10.52,5.23,39.3,28.09,71,23.6C1500.74,213.57,1504,134.55,1490.77,125.51Z"/>
      <path class="cls-1" d="M1372.1,155c-13-9.19-41.78-33.8-62.51-28.79-19,4.58-18.25,84.07,1.38,91.92,18.89,7.56,48-14.06,63.18-23C1371.25,187.32,1370.34,163.35,1372.1,155Z"/>
      <path class="cls-1" d="M1375.68,197.5c-4.6-2.43-6-41.18-2.62-45.16,3.82-4.52,16.36,1.35,22.25,1.35s18.22-5.15,22.9-1.35c4.41,3.59,2.45,43.3-2.65,45.81-5.88,2.88-11.71-2-18.94-2C1390.07,196.15,1382.43,201.06,1375.68,197.5Z"/>
    </g>
    <g id="clothesOverlapLine-2" data-name="clothesOverlapLine">
      <path class="cls-1" d="M1371.2,196.89c5.32,70.06-2,149.41,0,246.41"/>
      <path class="cls-1" d="M1396.07,147.11c-6.41,2.71-15.35-.74-18.36,3.53"/>
    </g>
    <g id="clothesFoldLine-5" data-name="clothesFoldLine">
      <path class="cls-1" d="M1420.66,169.58c48.42-10.55,83.07-16.54,55.87,7.84"/>
      <path class="cls-1" d="M1427.16,183a211.91,211.91,0,0,0,55.61,18"/>
      <path class="cls-1" d="M1371.85,182.2c-17.88,9-34.91,15.2-49.93,14.69"/>
      <path class="cls-1" d="M1371.23,170.85c-42.47-18.24-76.92-12.45-44.61,4"/>
      <path class="cls-1" d="M1407.48,294.64c-28.58,2.49-56.31,2.4-83-.85"/>
      <path class="cls-1" d="M1458.81,306.62c-36.47,3.54-69.77,5.24-96.25,3"/>
      <path class="cls-1" d="M1554.16,532c-25,1.5-46,5.24-64.43,4.5"/>
      <path class="cls-1" d="M1673,238.27c-12.31,27.74-22.66,55.17-22.47,80.92"/>
      <path class="cls-1" d="M1672,290.22q-10,36.28-33.92,51.44"/>
      <path class="cls-1" d="M1703.5,229.78c-3.12,59.35-21.06,108.46-63.13,140.87"/>
      <path class="cls-1" d="M1718.48,290.72c-11.56,26.7-25.57,49.65-44,65.93"/>
      <path class="cls-1" d="M1695.51,374.13c-8.74,28.53-20.67,53.94-38.1,73.95"/>
      <path class="cls-1" d="M1688.52,431.07c-10.7,16.77-17.49,38-28,52.94"/>
      <path class="cls-1" d="M1749,354.65c-8.49,79.42,4.56,161-70.92,176.31"/>
      <path class="cls-1" d="M1781,420.07c9,54.45-10.52,106.4,21.26,117.62"/>
      <path class="cls-1" d="M1776.92,560.93c-106.38-19.48-151.84-.5,8,40"/>
      <path class="cls-1" d="M1647.58,577.06c20.55,2.66,28,9,9.83,22.33"/>
      <path class="cls-1" d="M1680.52,605.38c22.48-11.48,46-2.38,50.55.53,7.65,4.85-35.56,7.46-60.78,38.22"/>
      <path class="cls-1" d="M1821.2,658.27c-20.76-23.65-44.19-37.23-72.75-31.41"/>
      <path class="cls-1" d="M1703,641.84c24,.5,45.33-6.33,51,2.5,7,11-36.46,1-68.43,44.95"/>
      <path class="cls-1" d="M1797.9,676.81c-42.46-23-98.57,1.38-92.4,14.48,4,8.49,60.43-30,110.88,22.48"/>
      <path class="cls-1" d="M1681.64,736.12c.6-11.39,5.31-18.59,13.87-21.85"/>
      <path class="cls-1" d="M1802.39,724.76c-24.47,20.47,19.48,21.47,31.15,52.18"/>
      <path class="cls-1" d="M1743,749.23c19.48-11,59.93,15,10,14"/>
      <path class="cls-1" d="M1689.23,786.44c23.76-60.69,90.24-65.08,84.2-77.17-4.5-9-43-5.49-66.93,13.49"/>
      <path class="cls-1" d="M1132,254.27c1.44,27.9,7.22,52.47,18.59,72.76"/>
      <path class="cls-1" d="M1147.25,358.14c-31.7-46.21-39.25-132.92-57-125.74-20.31,8.18-3.55,32.91,8,54.18"/>
      <path class="cls-1" d="M1109.59,341.75c-85.19-122.4-72.08-27.34,19.88,113.33"/>
      <path class="cls-1" d="M1054.91,376.05c10.94,45.23,42.75,82,34.8,89.47-10.6,9.93-38.14-12.84-57.17-51.2"/>
      <path class="cls-1" d="M1009.18,389c8,50.2,39.27,120.79,69.09,124.76"/>
      <path class="cls-1" d="M1005.16,449.61c-3.88,83.4,56.24,172,97,136.42"/>
      <path class="cls-1" d="M983.38,473.48c-.85,20.74,13.63,69.52,8.85,105.44"/>
      <path class="cls-1" d="M1097.67,625.54C1016.79,588.61,952,637.69,988.82,637"/>
      <path class="cls-1" d="M1096.28,636c-26.78-8.83-53.71-8.79-80.78-.16"/>
      <path class="cls-1" d="M962.49,626.65c8.2,15.81-3.24,27.91,5.81,39.54"/>
      <path class="cls-1" d="M1031.66,668.78c22.63-6.46,60.17-8.08,75,11"/>
      <path class="cls-1" d="M1119.93,714.6c-8.83-5.89-17.57-8.5-26.2-7.68"/>
      <path class="cls-1" d="M985.64,742.41c28.57-48.42,72.26-51.17,62.19-57.47-15.52-9.69-56.9,1.94-64,12.93"/>
      <path class="cls-1" d="M1005.66,790.59c3.37-13.2,18.35-20.79,6-30.65"/>
      <path class="cls-1" d="M1071.75,703.05c-43.27,25.17-36.21,29.74-22,30.38,20,.91,58.84-2.58,85.48,23.62"/>
      <path class="cls-1" d="M1026.94,848.78c-3-43.59,57-75.88,69.37-87.49,10.65-10-18.1-18.16-44.61-14.51"/>
      <path class="cls-1" d="M1149.72,807.58c-36-12.73-61.81,8.61-59.22-3"/>
      <path class="cls-1" d="M1129.93,824.59c14,3.07,26.77,9.73,37.16,23.56"/>
      <path class="cls-1" d="M1053.84,885.07c.3-6.94,5.27-11.67,12.73-15.22"/>
      <path class="cls-1" d="M1119.59,837.64c25.21,6.35,31,29.62.64,27.68"/>
    </g>
    <g id="clothesBorderLine">
      <path class="cls-1" d="M1412.39,199c5,66.89-1.26,155.67,0,256"/>
      <path class="cls-1" d="M1714.48,852.45c0-18.35-5.61-33.26,0-45.47,15.49-33.69,91.27-40.18,102.1,0,2.55,9.46-3.19,17.55-1.59,31.11"/>
      <path class="cls-1" d="M1080.12,927c1-30.67,56.07-53,91.35-43.8"/>
    </g>
  </g>
  <g id="christopher">
    <g id="christopherSock">
      <path class="cls-1" d="M1419.27,2326.53c3.34-13.15,3.11-20,8.77-33.54,18.82,6.8,69.57,8.5,85.69,4,5.69,7.64,0,16.42,3.79,27.8C1529.06,2367.17,1444.13,2360.94,1419.27,2326.53Z"/>
      <path class="cls-1" d="M1333.38,2325.94c-4.2-13.13,3.33-24.87-3.8-31.81-20.42,6.71-77.37,7.55-91.42,2-6.75,7.57,1,18.38-4.79,32.75C1217.07,2366,1319.63,2352,1333.38,2325.94Z"/>
    </g>
    <g id="christopherSoleSide">
      <path class="cls-1" d="M1589.88,2430.07c6.78,33-62.52,45.44-107.66,37.86-28.5-4.79-73.42-15.95-80.88-26.44-8.11-11.4-6.46-24.34-3.83-36.72C1495,2390.46,1568.82,2392.25,1589.88,2430.07Z"/>
      <path class="cls-1" d="M1349.85,2407.72c2.15,11.64,5,23.73.16,33.25-10.18,19.84-48,27.31-84.52,29.55-63.61,3.89-90.67-10.76-80.6-44Z"/>
    </g>
    <g id="christopherShoe">
      <path class="cls-1" d="M1446.92,2344.77c10.93-20.46,58.11-26.16,67.44-5.42,2.08-4.15,2.11-8.6,3.16-14.59,25.36,85.62,74.38,51.35,72.36,105.31-28.33-20.73-80.7-10.88-107.66,17.06-36.19-2.28-65.29-15.12-84.71-42.36,1.75-17.21,1.75-65.42,21.76-78.24C1430.78,2327.07,1443,2335.54,1446.92,2344.77Z"/>
      <path class="cls-1" d="M1308.53,2340.38c6.58-7.58,15.42-14.78,24.85-14.44,12.15,14.59,11.44,59,16.47,81.78-11.63,19-30.15,31.7-59,40.82-12.45-28.93-79-30.27-97.48-8.47-17.27-10.06-5.74-26.91,12.36-45.3,18.22-15.56,12.32-48.76,27.65-65.89l1.76,11.77C1252.65,2318.63,1296.6,2320.16,1308.53,2340.38Z"/>
    </g>
    <g id="christopherStrap">
      <path class="cls-1" d="M1447.35,2366.43c6.82,13.64,18.27,21.88,33.42,33a146.57,146.57,0,0,1,77.72-13.45c5.46.57-7.18-14.12-18.52-16,4.52-3.5-3.12-11.54-9.38-13.49C1504,2348.15,1471.78,2352.51,1447.35,2366.43Z"/>
      <path class="cls-1" d="M1317.78,2365.44a67.64,67.64,0,0,1-24.19,34c-19.79-9.68-69.51-7.68-89.87-2.63-4.65,1.15,3.61-13.86,12.75-18.85-5.45.73-2.6-9.22,3.47-12.48C1240.44,2354.44,1292,2353.37,1317.78,2365.44Z"/>
    </g>
    <g id="clothesOverlapLine-3" data-name="clothesOverlapLine">
      <path class="cls-1" d="M1446.92,2344.77c2,4.35,2.27,11.76,8.37,17.6"/>
      <path class="cls-1" d="M1514.36,2339.35a48.57,48.57,0,0,1,4,14.22"/>
      <path class="cls-1" d="M1308.53,2340.38c-4.31,3.7-6.6,11-8.26,19.5"/>
      <path class="cls-1" d="M1235.13,2340.65c-4.2,5.83-6.49,13.41-8,21.72"/>
    </g>
    <g id="clothesBorderLine-2" data-name="clothesBorderLine">
      <path class="cls-1" d="M1459.41,2382.42c23.74-12,54.95-17.25,80.56-12.49"/>
      <path class="cls-1" d="M1310.35,2381.37c-24.13-7.87-71.35-9.1-93.88-3.45"/>
    </g>
    <g id="skinEastAsian-2" data-name="skinEastAsian">
      <path class="cls-1" d="M1568.93,1795.69l-172.53,6.42c-4,121.17,18,143.44,15.64,211-4.39,126.8,16.2,188.79,18.14,280.55,19.51,6,64.51,7.51,81.69,3.71,17.37-102.58,35-206.92,29.78-278.64C1537.82,1966.71,1556.39,1961.16,1568.93,1795.69Z"/>
      <path class="cls-1" d="M1378.17,1802.86H1201c10.48,142.57,29.14,153.17,25.16,206.52-8.2,109.58,13.61,196.15,16.58,288,17.78,3.78,61.58,3,82.58-2.11,9-104.05,34-138.37,36.07-279.65C1362.45,1950.68,1379.22,1928.66,1378.17,1802.86Z"/>
    </g>
    <g id="skinCreaseLine-2" data-name="skinCreaseLine">
      <path class="cls-1" d="M1509.36,2000.74c-19.06,5.89-44.94,5.23-61.49-.78"/>
      <path class="cls-1" d="M1324.89,2000.74c-19.78,5.89-48.32,5.89-65.38-1.56"/>
    </g>
    <path id="christopherShorts" class="cls-1" d="M1572.64,1507.92c14.7,74.33,8.77,187.24,13.55,287.63-16.73,24.7-160.15,34.26-191.23,15.94-5.19-33.86-1.56-61.07-8-96.41-3.87,37.84,0,66.63-4,97-19.92,16.73-171.9,18.92-203.77-9,5.58-91.63.6-178.07,11-246.59,2.52-16.71,0-30.28,5.57-49.4Z"/>
    <path id="christopherWaistband" class="cls-1" d="M1193,1519.61c82,9.4,288.29,16.07,381.55-.9-1.51-8.57,1.6-15.31-1.69-26.75l-378.05,1.1C1191.85,1498.69,1194.25,1508.59,1193,1519.61Z"/>
    <g id="clothesDisplayLine-2" data-name="clothesDisplayLine">
      <path class="cls-1" d="M1379.73,1529.16c2.94,64.69-4.3,123.28,7.27,185.92"/>
      <path class="cls-1" d="M1448.2,1528.68c36.07,41.49,80.69,62.47,133.19,59.77"/>
      <path class="cls-1" d="M1324.89,1527.92c-30.33,36-86.93,67.92-138.4,60.53"/>
    </g>
    <g id="clothesFoldLine-6" data-name="clothesFoldLine">
      <path class="cls-1" d="M1570.51,1684.45c-6.44,41.58-16,70.48-18.16,101.32"/>
      <path class="cls-1" d="M1473.88,1664.54c-9.33-7.8-39.24,12.3-66.76,43.34"/>
      <path class="cls-1" d="M1400.67,1726.62c16.17,2.05,31.71,5.26,42.75,17"/>
      <path class="cls-1" d="M1294.09,1688a208.41,208.41,0,0,1,67.93,31"/>
      <path class="cls-1" d="M1357.34,1732.48c-8.43-1.31-25.43,12.87-43.34,28.69"/>
      <path class="cls-1" d="M1409.94,1529.16c2.56,9.28,2.5,23.9,1.27,36.41"/>
      <path class="cls-1" d="M1397.75,1529.16a97.18,97.18,0,0,1,0,17.08"/>
      <path class="cls-1" d="M1359.52,1528.77c-1.77,7.82-1.62,17.86-.43,27.43"/>
      <path class="cls-1" d="M1564.07,1522.82a77.84,77.84,0,0,1,4.1,32.21"/>
      <path class="cls-1" d="M1554.7,1524a25.59,25.59,0,0,1,1.17,15.22"/>
      <path class="cls-1" d="M1219.18,1522.16c-.38,5.25-.15,13.14,0,18.81"/>
      <path class="cls-1" d="M1205.58,1520.93c-1.82,9.92-2,23.88-1.1,35.27"/>
    </g>
    <path id="clothesEdgeLine" class="cls-1" d="M1538.25,2267.21c-3.3-39.4-3-109.71-2.37-183.92"/>
    <path id="christopherShirt" class="cls-1" d="M1189.18,1493.59c7.44-19.85-18.08-24.3.68-52.85-26.1-39.14-7.16-48.56-4.9-76.66,4.08-50.56,0-97,6.53-153.32-29.36,0-88.9-14.68-110.1-26.92,30.17-55.45,42.45-130.13,75.85-166.37,22.68-24.62,91.34-32.62,132.11-49.75l172.9-.81c54.64,17.94,112.09,12.7,146.8,46.48,15.3,14.89,15.6,35.5,21.2,51.38s13.09,10.62,10.61,44.86c10.6,26.91,16.31,57.09,29.71,79.17-23.19,14.62-72.12,28.48-97.49,28.48-10.52,137,24.55,170.45-5.62,200.63,4.89,17.94,24.22,30.27,4.64,49,11.09,2.19,8,19,5.35,25C1470.33,1523.12,1279.36,1516.37,1189.18,1493.59Z"/>
    <g id="clothesOverlapLine-4" data-name="clothesOverlapLine">
      <path class="cls-1" d="M1568.66,1098.83c7.19,37.23,4.74,79.45,4.42,118.45"/>
      <path class="cls-1" d="M1203.42,1108.32c-9.48,36.76-9.48,70.55-11.93,102.44"/>
    </g>
    <g id="clothesFoldLine-7" data-name="clothesFoldLine">
      <path class="cls-1" d="M1133.92,1155.94c1.74,11.72,4.69,22.57,10.11,31.63"/>
      <path class="cls-1" d="M1146.32,1155.94c.79,9.07,3.5,16.35,8.8,21.19"/>
      <path class="cls-1" d="M1197.52,1063.32c-8.52,29.87-10.29,57.11-.75,79.93"/>
      <path class="cls-1" d="M1226.22,1101.47c-3.34,9.25-18.59,32.21-28,31.87"/>
      <path class="cls-1" d="M1275.14,1170c5.84,28.33,14.35,53.68,26.74,74.68"/>
      <path class="cls-1" d="M1269.59,1223.44c8.89,37.73,21.27,72.82,37.51,105"/>
      <path class="cls-1" d="M1189.86,1440.74c18.42,22.08,47.74,18.36,27.23,32.19"/>
      <path class="cls-1" d="M1205.67,1400.2c68.52,69.16,150.11,100.14,250.14,77.3"/>
      <path class="cls-1" d="M1556.91,1375.74c-13.39,25.53-29.88,45.49-50.88,57.4"/>
      <path class="cls-1" d="M1572.1,1466.94c-9.62,8.26-20.51,14-33.45,15.45"/>
      <path class="cls-1" d="M1567.46,1417.91c-30.77,34.8-117.37,73.25-28.49,44.58"/>
      <path class="cls-1" d="M1504.4,1236.16c-11.91,36.59-26.55,68.9-44.35,96.21"/>
      <path class="cls-1" d="M1530.49,1215.29c-5.1,28.38-11.3,54.94-20.22,77"/>
      <path class="cls-1" d="M1540.28,1091.36c11.33,13.07,20.17,27.35,24.78,43.7"/>
      <path class="cls-1" d="M1586.91,1069.84c2.43,26.84-4.88,56.09-13.69,70.67"/>
      <path class="cls-1" d="M1629.31,1108.32c-1.63,18.92-9.46,46.31-18.59,59"/>
      <path class="cls-1" d="M1640.86,1109.63c-1,29.2-8.48,52.85-19,74"/>
    </g>
    <g id="skinEastAsian-3" data-name="skinEastAsian">
      <path class="cls-1" d="M1795,1267.26c-55.13,16-87.93,0-127.7-8.38-4.36-19.91-5.64-42.32-11.09-62.52-25.32,11.49-62.24,20.92-83.16,20.92a628.17,628.17,0,0,0-1.19,82.77c6.15,25.53,14.86,41.58,25.65,46.76,69.79,33.5,134.36-8.38,212.14-18"/>
      <path class="cls-1" d="M887.6,1272.89c77.43,40.64,156.78,104,217.06,91.82,35.89-7.43,67.06-56.3,83.4-107.83h0c.57-14.79,1.57-30.06,3.43-46.12-25.13,0-72.33-10.75-98.72-21.52a515.86,515.86,0,0,0-18.32,71.89c-43.51-21.75-96.62-14.15-154.85-46.15"/>
      <path class="cls-1" d="M1457.44,915.45l4.81,51.46c-12.78,52.71-161.07,56.39-172.9.81l5.71-50.43"/>
    </g>
    <g id="skinFoldLine">
      <path class="cls-1" d="M1074.45,1261.13c8.51,5.56,11.61,11.64,15.25,20.49"/>
      <path class="cls-1" d="M1667.33,1258.88c-15.37-3.06-38.57-.16-49,8.69"/>
    </g>
  </g>
  <g id="bennett">
    <g id="bennettSoleSide">
      <path class="cls-1" d="M483.08,2367.82c-3.54,12.1-4.69,33.49-.23,38.84,7.84,10.92,34.44,15.39,42.26,20.64,41.62,28,192.41,8.89,206.33-8.72,8.63-27.32-14.81-66.66-33.61-72.36C635.17,2295.77,539.46,2323.17,483.08,2367.82Z"/>
      <path class="cls-1" d="M400.71,2364.6c3.54,12.1,4.7,31.49.23,36.84-7.84,10.92-53.53,18.19-62.14,22-65,28.55-207.13,21.84-221,4.24-8.63-27.32,3.33-74.4,52.18-90C252.31,2310,344.34,2320,400.71,2364.6Z"/>
    </g>
    <g id="bennettShoe">
      <path class="cls-1" d="M502.56,2188.64c11.17,78.14-13.34,109.41-19.48,179.18,8.19,12.17,20.91,12.26,40.57,18.62,12.84,4.16,16.26,9,32.9,12.34,10.18-63.81,102.54-69.08,141.28-52.56-47.82-28.85-73.5-92.9-71.92-173.2C602.07,2126.48,546.19,2158.23,502.56,2188.64Z"/>
      <path class="cls-1" d="M381.23,2185.43c-5.09,78.42,15.62,90.45,19.48,179.17-8.19,12.17-41.15,14.48-60.81,20.84-12.84,4.16-35,11.3-51.61,14.68,6.51-68.08-101.18-68.7-118.36-62.47,39.47-15.42,100.88-82.07,96.41-158.54C290.19,2132.58,337.6,2155,381.23,2185.43Z"/>
    </g>
    <g id="bennettShoelace">
      <path class="cls-1" d="M630.22,2232.49c-20.26-3.52-55.49-1.94-72.73,3.2,2.83,30.67,10,62,20.28,93.75,18.76-8.26,65.54-11.09,91.67-7.29C649.91,2299.68,636.61,2268.91,630.22,2232.49Z"/>
      <path class="cls-1" d="M205.16,2314.59c26.71-2,67.94,3.12,86.46,13.21,10.26-31.76,24.52-60.37,27.35-91-10.73-4.43-37.09-8.23-58.46-8.56C250.14,2263.66,227.9,2294.25,205.16,2314.59Z"/>
    </g>
    <g id="converseLogo">
      <path class="cls-1" d="M520.21,2349.43c24.12,3.92,25.36-69.7,1.73-74.64S495.51,2345.41,520.21,2349.43Z"/>
      <path class="cls-1" d="M357.58,2350.21c-24.11,3.92-25.36-69.7-1.73-74.64S382.28,2346.19,357.58,2350.21Z"/>
    </g>
    <g id="clothesOverlapLine-5" data-name="clothesOverlapLine">
      <path class="cls-1" d="M554.11,2214.28c5.24,8.56,1.69,13.36,3.38,21.41"/>
      <path class="cls-1" d="M633.31,2247.57c-20.91-2.56-53.79-1.5-74,4.09"/>
      <path class="cls-1" d="M637.33,2262.19c-23.13-2.54-56.79-.06-75.34,5.82"/>
      <path class="cls-1" d="M642.56,2277c-22.42-2.88-54.35.61-77.38,6.65"/>
      <path class="cls-1" d="M649.41,2292.13c-24-2.68-57.42,1.35-80.37,7.46"/>
      <path class="cls-1" d="M657.72,2306.55c-27.19-2.64-62.7.91-84.63,7.67"/>
      <path class="cls-1" d="M324.06,2228.17c-2.55,1.78-5.19,5.73-5.09,8.59"/>
      <path class="cls-1" d="M255.11,2243.76c20.64-1.8,41.95,2.83,61.55,8.25"/>
      <path class="cls-1" d="M248,2259.29c22-1.73,44.41,1.79,64.74,8.31"/>
      <path class="cls-1" d="M239.64,2273.73c18.74-3.18,47.34,1.61,68.32,8.48"/>
      <path class="cls-1" d="M229.66,2288c23.83-2.46,50.67,2.76,72.45,10.29"/>
      <path class="cls-1" d="M218,2301.89c22.91-3.57,60.61,1.16,79,10.12"/>
    </g>
    <g id="clothesDisplayLine-3" data-name="clothesDisplayLine">
      <path class="cls-1" d="M288.29,2400.12c-40.71,7.7-147,0-168.45-10.77"/>
      <path class="cls-1" d="M556.55,2398.78c47.9,9.49,148.44,0,171.2-18.34"/>
    </g>
    <path id="bennettJeans" class="cls-1" d="M684.85,925.27c9.57,20.25,26.22,74,23.58,140,2.59,157.61,2.21,312.25-13.26,417.19-5.75,39,10.1,75.06-12.15,118.92-17.37,34.23,9.68,73.7-5.54,99.25-13,171.67,16.86,263.21-19.17,322.84-17.7,29.3,31.84,49.88-1.47,94.35-20.88,21.12,14.77,53.91-29.21,96.41-1.79-33.32-59.42-33.87-73.52,0-27.08,11.18-35.87,30.95-50,37.73-10.72-36-39-43-14.69-78.33,15.44-22.39-18.84-27.56-3.4-55.07,15.68-27.93-21.14-39.51-10.88-89.07,11.22-54.17-3.59-131.57,4.08-208,4.57-45.54-15.77-93.16-15.77-153,0-41.58-8.55-92.69-8.55-161.13,0-47.82-14.26-161.12-17.11-258.08-5.19,139.4-19.51,263.69-15.07,323.9,4.65,63.11-18,147.33-12.08,216.34,6.11,71.66-3.93,132.91-6.59,222.93-1.37,46.22,15.88,94.78-11,135.08-13.18,19.76,26.27,53.53,6.59,79.07-13.31,17.26,6.59,23.06-11.69,46.17-21.26-16.52-39.72-40.56-63.89-44.56,4.93-35.25-50.26-55.73-66.31,8.59-45.8-44.46-5.08-75.22-18.11-90.23-48.17-55.5-8.62-233-23.15-371-4.44-42.2-12.78-78.42-3.63-108-36.32-100.79-17.44-96.92-23.61-128-33.44-168.62-29.37-329.35-28.15-476.69.54-65.47,20-99.88,21.79-142.55Z"/>
    <g id="clothesDisplayLine-4" data-name="clothesDisplayLine">
      <path class="cls-1" d="M403.9,1022.36c-8.11,22.38,1.69,49.76-.75,77.53-2.87,32.72,12.36,57.63,13.93,88.25,1.86,36.23,14.14,39.64,20.69,61.1"/>
      <path class="cls-1" d="M466.29,1023.26c-10.21,21.37-2.81,40.48-4.62,57.12-4.64,42.73,31.58,98.47-44.59,107.76"/>
      <path class="cls-1" d="M572.8,999.33c24.48,18.53,57.36,27,91.37,23.46"/>
      <path class="cls-1" d="M306,998.05c-20.59,20.66-56.26,32.3-110,25.67"/>
    </g>
    <g id="clothesFoldLine-8" data-name="clothesFoldLine">
      <path class="cls-1" d="M484.89,1175.13c35.25-10.36,78.4-14.2,125.41-14.86"/>
      <path class="cls-1" d="M501.61,1228.08c42.53,5.9,83.54,15.19,122.62,28.8"/>
      <path class="cls-1" d="M390.14,1177C339.86,1167,288,1164.62,235,1167.7"/>
      <path class="cls-1" d="M394.79,1221.58c-43.63,12.27-84.29,28-121.69,47.37"/>
      <path class="cls-1" d="M469.1,1295.89c32.53,54,57.71,111.32,73.39,172.78"/>
      <path class="cls-1" d="M331.62,1624.73c-39,12.07-84.53-4.65-109.61-27.87"/>
      <path class="cls-1" d="M212.86,1667.48c7.58-13.41,6.74-31.71.79-53"/>
      <path class="cls-1" d="M268.46,1679.53c42.73,14.86,77.1,21.37-18.58,44.59"/>
      <path class="cls-1" d="M372.5,1633.09c-93.82,27.86-104,17.64-32.52,55.73"/>
      <path class="cls-1" d="M667,1578.28c-18.58,21.36-31.58,52-8.36,73.38"/>
      <path class="cls-1" d="M643.74,1582c-62.24,60.37-79,63.16-143.06,17.64"/>
      <path class="cls-1" d="M510,1634c61.31,16.72,94.75,28.8.93,50.17"/>
      <path class="cls-1" d="M628,1704.61c-36.65-22.22-81.75-18.17-134.7,10.22"/>
      <path class="cls-1" d="M636.31,2014.87c-39.95,26.94-121.69,35.3-6.51,61.31"/>
      <path class="cls-1" d="M510.9,2096.61c32.43-29.05,57.13-14.83,91-7.43,30,6.55-15.8,28.8-84.54,43.66"/>
      <path class="cls-1" d="M627,2119.83c-44.59,15.8-80.82,16.72-37.16,40.88"/>
      <path class="cls-1" d="M515.55,2146.77c45.51,15.79,69.67,17.65,3.71,58.52"/>
      <path class="cls-1" d="M345.56,2032.52c23.23,16.53,46.84,33,25.08,56.66"/>
      <path class="cls-1" d="M283.32,2023.23c-15,49.32-82.67,51.09-31.58,82.67"/>
      <path class="cls-1" d="M384.57,2105c-53.88,24.15-103.88,27.75-11.15,67.81"/>
      <path class="cls-1" d="M247.09,2118.91c36.23,12.07,74.89,7.88,8.36,43.65"/>
      <path class="cls-1" d="M392.93,2206.22c-27.87-18.58-100.56-33.84-134.69-16.72"/>
    </g>
    <path id="bennettSleeves" class="cls-1" d="M545.29,101.8c32.53,1.42,64.23,23.33,97.29,33.79,44.31,14,86.47,23,114.21,43.14,57.07,41.45,71.06,236,64.07,373.83,21.38,23.79,23.07,85.54,9.73,92.48,30.43,9.6,15,50.59,24.45,78.75,5.81,14.14-141.85,36.75-143.95,24.32-11-11,.86-42.33-24.87-57.47L183.93,588.84c2.3,17.67-10.87,37.42-18.49,45.88-9.94,11,9.31,17.77-7.8,39.07,14.55,18.26-8.27,42.84-5.3,69.52.3,5-140.39,11.18-144.19,5.67-8.23-19.39,4.22-33.6,4.41-49C-3.31,693.28-2,662.9,11.47,641.49,6.4,579.7,27.25,539.4,29.8,473.19c3.49-90.8,10.31-171.52,32.43-231.85,37.6-102.54,166.18-108.09,260.43-146Z"/>
    <path id="bennettShirt" class="cls-1" d="M566.82,161.47c-54.19,73-222.07,73-268.75.94-46.19,19.41-117.63,71.2-140.85,112.28-.89,24.11,11.12,31.55,17.86,42.86,4.53,7.6-8,10.71,8,20.54-10.72,86.62-4.47,229.49-4.47,304.5,0,18.48-18.86,19.68,0,41.08,11.61,158.06-29.46,139.31-1.78,168.77,0,19.65-18.51,28.43,2.68,50.9-9.61,12.17-1.79,31.26-5.36,47.33,88.4,24.11,160.75,71.43,254.5,73.23,140.2,2.67,171.45-47.33,268.79-84.84-5.36-9.82-2.84-19.65-6.26-31.25,18-30.72-6.25-42.86-1.78-80.37,14.46-23.83-5.36-36.61-.89-68.76,13.39-27.68,3.12-37.32,3.57-56.26.51-21.87,6.19-44.53-3.57-66.08-3.58-54.47,6.3-97.55,4.46-140.2-2.66-61.53,5.36-115.19-4.46-175,13.31-4.58,10.71-29.47,15.18-47.33C672.13,222.14,620.68,193.42,566.82,161.47Z"/>
    <g id="clothesFoldLine-9" data-name="clothesFoldLine">
      <path class="cls-1" d="M820.86,552.56c-3,37.4-27.49,54.67-5.16,71.35"/>
      <path class="cls-1" d="M830.59,645c-9,6.77-17.09,10.94-23.65,10.64"/>
      <path class="cls-1" d="M766.41,654.58c43.82-77.77,1.1-29.57-52.57,21.91"/>
      <path class="cls-1" d="M707.27,699.49c37.24-16.43,122.67-19.72,58.05,0"/>
      <path class="cls-1" d="M713.84,622.82c23-8.77,31.76,5.47-11,29.57"/>
      <path class="cls-1" d="M694.12,613c80.19-7.77,104-96.07,112.82-205.92"/>
      <path class="cls-1" d="M692.48,530.14c25.17-26.16,50.14-86.19,75-159.89"/>
      <path class="cls-1" d="M703.73,273.79c4-16.61,2.09-49.2-5.1-73.17"/>
      <path class="cls-1" d="M743.69,237.53c-4.45,46.11-22.69,83.92-51.21,115.53"/>
      <path class="cls-1" d="M767.51,222.67c-6.07,59.05-29.6,109.66-74.2,150.05"/>
      <path class="cls-1" d="M688.55,321.12c-34.5-40.93-24.91-74-7.66-25.11"/>
      <path class="cls-1" d="M250.88,414.42c59.26,12.56,126.21,15.35,198,12"/>
      <path class="cls-1" d="M392.78,445.58a983,983,0,0,0,225.31-8.14"/>
      <path class="cls-1" d="M688.55,636.34c-30,36.13-76.4,54.17-131.34,62.84"/>
      <path class="cls-1" d="M661.24,633c-10.26,9.59-21.61,16.66-34.52,20.13"/>
      <path class="cls-1" d="M674.66,739a123.52,123.52,0,0,1-58,42.19"/>
      <path class="cls-1" d="M688.55,758.68c-13,15.08-27.92,26.91-45,34.94"/>
      <path class="cls-1" d="M666.51,815.2q-76.77,86.16-220,103.54"/>
      <path class="cls-1" d="M691.22,907.81c-29.77,19.52-66.93,29.08-112.92,26.75"/>
      <path class="cls-1" d="M645.42,874.64c-25.41,19.66-112.66,35-60.88,36.91"/>
      <path class="cls-1" d="M589.81,953.26c-89.1,29.36-177.69,33.92-265.58,4.79"/>
      <path class="cls-1" d="M179.55,903.34c17.73,14.52,41.63,22.89,68.45,28.35"/>
      <path class="cls-1" d="M236,908.2c39.65-10.8-25.41-24-59.15-55.76"/>
      <path class="cls-1" d="M218.76,848.27c30.22,28.77,68,44.39,111.7,49.86"/>
      <path class="cls-1" d="M178.65,683.67c16.69,20.73,34.92,37.43,55.45,48.11"/>
      <path class="cls-1" d="M216.36,691a271.51,271.51,0,0,0,96.36,54.65"/>
      <path class="cls-1" d="M12.56,700c25,11,87.79-3.22,52.79,19.79"/>
      <path class="cls-1" d="M108,719.8c-39.24-11.71,17.26-16.3,44.58-25.41"/>
      <path class="cls-1" d="M157.64,673.79c-32.4,11.39-65.07,15.94-98,12.93"/>
      <path class="cls-1" d="M11.47,641.49c5,14.55,19.15,24.8,11.7,37.08"/>
      <path class="cls-1" d="M122.4,606.66C102,591.17,80.26,583.54,57.2,583.17"/>
      <path class="cls-1" d="M66.31,482.5C89.4,540.29,117.46,587.27,161.23,600"/>
      <path class="cls-1" d="M147.33,630.15c-31.16,7.67-85.65-.12-84.37,9.11,2.3,16.66,47.15,10.46,88.69,5.27"/>
      <path class="cls-1" d="M114.25,250c9.25,44.7,24.71,81.59,53.22,102.11"/>
      <path class="cls-1" d="M133.43,214c34.51,50.33,3.83,66.63,26.84,105"/>
      <path class="cls-1" d="M183.12,338.09c31.33-12.83,65.84-64.61,52.9-25.78"/>
    </g>
    <g id="skinEastAsian-4" data-name="skinEastAsian">
      <path class="cls-1" d="M535.17,18.08c.92,2.76,10.12,83.72,10.12,83.72,34,100.27-259.43,115.91-222.63-6.44l15.64-92"/>
      <path class="cls-1" d="M868.18,1022.36c-23-113.78-3.11-225.48-17.47-298.68-17.48-10.12-132.48,10.12-134.32,23-.17,67.15,56.12,163.75,67.16,284.27"/>
      <path class="cls-1" d="M149.41,744.62c-17.7,4.08-110.9,8.25-135.42,5.76-2,61.24,32.09,178.34,39.13,276.88l80.95,17.48C124.21,929.1,156.27,832.07,149.41,744.62Z"/>
    </g>
  </g>
</svg>
