<svg viewBox="0 0 404.02 468.02">
  <g class="liz">
    <path class="lizJeans" d="M384,245.64c4.72,25,2.19,70.52-4.05,102.92-1.35,6.07,2.7,6.07-.17,8.94-1.35,3.88,2.87,3.54.17,6.41,1.18,18.9-3,38.74-5.91,56.12l-17.89-.67c-1-19.24-6.38-41-5.06-54.6.43-4.39-.91-5.88-1-14.35-.07-5.47-5.08-17-4.9-61.23-1.86,42.61-5.19,56.93-4.89,61.74.34,5.54-1.36,10-.84,14.51,1.86,16.16-4.2,35.43-5.23,53.93l-18.4.34c-1.57-18.53-5.75-40.72-4.72-55.74-2.4-2.13.76-3-.34-7-3.48-1.26.93-3.33-1.35-12.82-6.46-26.86-10.13-72.88-3.88-98.36Z"/>
    <g class="lizJeansCuff">
      <path d="M374.44,417.73c1.7.74.94,7.14-.43,7.06-2.57,5.76-15.58,7.68-19.54.19-1.8-1.06-.68-8.12,1.5-8.61C357.94,418.6,372.3,419.46,374.44,417.73Z"/>
      <path d="M334.38,417c1.72,0,1.59,7.94-.12,7.91-.23,6.36-16.76,5.15-18.54-.11-1.39,0-1.46-7.17-.07-7.18C318.55,419.46,332.36,419,334.38,417Z"/>
    </g>
    <g class="soleLightTan">
      <path d="M379.5,459.79c-.18,1.53-.58,3.23-1.38,3.83-5,3.76-19.25,3.55-22.6.57-.68-.62-2.72-1.93-3-4.38-.64,0-1.29-.2-1.42-.78a73.69,73.69,0,0,1-.51-11.32Z"/>
      <path d="M308.52,459.79c.19,1.53.59,3.23,1.39,3.83,5,3.76,19.25,3.25,22.59.26,2.14-1.91,1.83-2.59,2.67-4.07.64,0,1.6-.2,1.73-.78a73.93,73.93,0,0,0,.5-11.32Z"/>
    </g>
    <g class="lizShoe">
      <path d="M374,424.79a41.82,41.82,0,0,0,.14,13.29c.93,4.39,1.17,8.54,2.84,11.55,1.57,2.83,3.57,6.13,2.51,10.16-3.78,4-24.69,6.59-26.47-2.63-.82-4.28-2.47-6.25-2.41-9.45.13-6.71,4.82-12,3.85-22.73.72.75,1.16.54,1.16.54C356.59,422.32,365.12,430.57,374,424.79Z"/>
      <path d="M315.72,424.79a27.87,27.87,0,0,1-2,13.44c-1.67,4.17-1.57,9.16-3.24,12.18-1.57,2.82-3.17,5.88-2,9.38,3.79,4,24.86,5.94,25.7-2.63.52-5.29,3.24-6.25,3.18-9.45-.12-6.71-4.11-12.07-3.14-22.81-.57,1.25-1,1.42-1.81,1.56C331.42,423.22,321.91,429.76,315.72,424.79Z"/>
    </g>
    <path class="lizShirt" d="M364.43,133.67c13.84,7.11,30.9,6,34.93,28.27-4.43,2.6-14.81,6.79-19.42,8.16-1.05,2.11,5,7,1.69,17.53-.76,2.42,2.69,5.15-1.56,7.82-.33,2.18,1,5.78-1.05,8.42-.89,1.63,2.72,4.66-.81,10.58,1.72,2.43,2.33,6.79,2.2,11.34-.1,3.32,3.7,13,4.55,22.2a123.26,123.26,0,0,1-37.56,11.19,100,100,0,0,1-2.84-15.75,68.48,68.48,0,0,1-2,14.8c-13.19.28-27.32-8.16-38.61-9.1,4.84-17.65,2.27-24.07,5.6-27.79a8.92,8.92,0,0,1-.19-8.73c-2.09-4.84,1.61-9.48-1.14-19.73-3.89-6.73-3.51-14.89,0-22.16-6.2-2-17.37-7.18-18.87-8.88,7.16-21.79,16.39-19.91,34.32-27.9"/>
    <path class="lizShirtCollar" d="M364.65,133.1c2.09,2.86-1.7,10.22-4.86,16.34-1.86-3.83-4.26-9.82-6.28-10.88l-19.39-.14c-2.73-1.42-5.28,6-8.23,9.77-2-5.44-3.69-13.72-2.93-14.77,2.34-3.22,4.1-7.12,6.83-7.42h28.74C361.34,125.48,361.54,128.82,364.65,133.1Z"/>
    <circle class="hairBlackDark" cx="357.2" cy="117.33" r="11.42"/>
  </g>
  <g class="oldBennett">
    <g class="soleTan">
      <path d="M249.59,459.58a2,2,0,0,1-.32,2.36c-6.28,4.43-23.36,5.29-27.8-1.18-1.59-1.87-4.51-1.56-5.32-3.42-.28-.65-.55-1.87-.09-2.46Z"/>
      <path d="M200,453.52a3,3,0,0,1,.16,2.89c-1.51,2.37-2.84.77-4.38,3.45-4.74,8.28-24.91,7.33-29.16,1.89-.75-1-1.2-2-.6-2.64Z"/>
    </g>
    <g class="oldBennettShoe">
      <path d="M218,432.17c-1.77,6.27-4.57,15.17-1.91,22.71.93,2.62,4.82,2.35,6.54,4.55,5.16,6.58,25.23,3.29,27,.15,7.4-13.22-8.78-10.07-12.4-26Z"/>
      <path d="M197.07,432.53c2.63,6.78,4.72,13.48,2.89,21-.78,3.2-3.6,1.77-4.61,4.33-3.18,8.11-25.88,7-29.37,1.26-2.58-4.23,0-7.64,3.35-10.47,3.55-3,2.46-8.75,8.22-14.93Z"/>
    </g>
    <g class="clothingBrass">
      <path d="M242.71,443.56a20,20,0,0,1-2.42-2.83c-5.37-.88-11.22-.39-15.47,1.68l2.08,2.92C231.26,443.29,237.09,442.84,242.71,443.56Z"/>
      <path d="M172.83,441.74c-.38,1.05-.69,2-1,3a25.9,25.9,0,0,1,14.11,1.09l2.79-2.71C183.78,440.76,176.27,440.7,172.83,441.74Z"/>
    </g>
    <path class="oldBennettPants" d="M246,217.71c2,14,5.14,30.19,4.42,44-1.65,31.71-2,60.16-5.65,81.28-.89,5.1-1.22,59.91-3.93,92.32a30.46,30.46,0,0,1-10.31,2.95A135.49,135.49,0,0,1,216.09,437L207,334.83c-3.44,35.12-4.17,84.22-5.4,99.69a53.89,53.89,0,0,1-15,3.93,72,72,0,0,1-13.5-2.42c-1.72-31-5-64.22-4.18-83-2.46-5.91-1.87-16.39-3.19-26.51-3.77-29-2-70.23,1-108Z"/>
    <g class="oldBennettVest">
      <path d="M184.87,106.09c1.38,23.43,18.95,54.29,25.93,56.74V222.9c.32,1.1-13.29,12.17-14,12.28-1,.17-29.09-10.51-28.58-13.68-.2-3.66,1.73-35.31-.06-66.41,4.65-16.25,2.78-36.86,3.08-44.17C171,110.22,180.2,108.06,184.87,106.09Z"/>
      <path d="M231.48,106.76c.09-.5,14.76,3.8,15,4.92-.64,18.6-1.94,34.66,2.46,46.32-4.27,45-.53,60.1-1.35,60.4.54,1.12-28.25,15.28-30,14.77-1.3-.38-12.19-8.58-12.19-9.8l-.4-59.08C218.28,156,227.37,132.8,231.48,106.76Z"/>
      <path d="M242.48,197.24c.72,0,.72,4.81,0,4.81-5.88.87-13,3.15-19.15,3-.7,0-.76-5-.07-5C230.07,200,236.49,197.91,242.48,197.24Z"/>
    </g>
  </g>
  <g class="eye">
    <g class="sclera">
      <circle cx="66.55" cy="55.93" r="23.77"/>
      <circle cx="208.74" cy="56.38" r="24.68"/>
      <circle cx="212.37" cy="197.63" r="17.8"/>
      <circle cx="343.86" cy="72.65" r="23.56"/>
    </g>
    <g class="irisDarkBrown">
      <circle cx="222.53" cy="55.04" r="3.47"/>
      <circle cx="195.36" cy="55.04" r="3.47"/>
      <circle cx="80.06" cy="54.87" r="3.47"/>
      <circle cx="53.28" cy="54.87" r="3.47"/>
      <ellipse cx="203.74" cy="199.23" rx="2.94" ry="3.01" transform="translate(-10.63 11.49) rotate(-3.15)"/>
      <ellipse cx="224.34" cy="197.79" rx="2.74" ry="3.01" transform="translate(-10.52 12.62) rotate(-3.15)"/>
      <circle cx="357.13" cy="83.83" r="3.33"/>
      <circle cx="330.83" cy="83.9" r="3.33"/>
    </g>
    <g class="pupil">
      <circle cx="222.53" cy="55.04" r="1.35"/>
      <circle cx="195.36" cy="55.04" r="1.35"/>
      <circle cx="80.06" cy="54.87" r="1.35"/>
      <circle cx="53.28" cy="54.87" r="1.35"/>
      <ellipse cx="203.73" cy="199.09" rx="1.14" ry="1.17" transform="translate(-10.62 11.49) rotate(-3.15)"/>
      <ellipse cx="224.33" cy="197.64" rx="1.07" ry="1.17" transform="translate(-10.51 12.61) rotate(-3.15)"/>
      <circle cx="357.13" cy="83.83" r="1.29"/>
      <circle cx="330.83" cy="83.9" r="1.29"/>
    </g>
  </g>
  <g class="skinIndian">
    <path d="M363.09,108.21c-3.3,4.53-5.77,15.65-2.74,20.58.36,4.42-2.75,7-6.84,9.77-2.37,1.62-5.72,10.05-9.76,14.51-3.21-7-6.71-13.16-9.63-14.65-3.64-1.85-5.85-4.63-5.86-9.12,1.89-3.18,2.09-15.32-.59-19.44"/>
    <path d="M276.55,252.53c3.57-13.42,7.18-32,11.82-49.1,1.86-6.85,1.32-26.92,3.49-39.89a109.4,109.4,0,0,0,16.38,7.18c-3.52,7.27-3.9,15.43,0,22.16.27,1,.47,1.92.63,2.8-1,5.75-1.74,10.92-2,15.15,1.29,17.16-13.23,29.1-19.8,44.25-1.3,5.09,2.71,5.44.47,14.07-1.13,4.34,1.77,7.8-3.25,20,.42,1.75.32,3.29-1.67,4.1a2.34,2.34,0,0,1-3.82,1.39c-1.25,1.35-4-2.88-6.24-4.75-2-1.59-3.32-11.33-2.75-17.72C270.36,268.36,275.64,256,276.55,252.53Z"/>
    <path d="M385.69,264c1.88-21.39-4.82-34.79-2.35-54.19-.32-4.21-1.67-9.65-2.12-15.21,2.38-2.39-.27-4.78.41-6.93,3.33-10.49-2.74-15.42-1.69-17.53a133.24,133.24,0,0,0,17.87-7.31c2.32,13.08,2.21,31,4.57,42.75,3.95,19.74-1.52,36.44-3.73,56.55-.51,5,4.7,9.74,4.1,20.23-.49,9.4-1.08,10-3.77,11.08-2.68,2.7-7.81,6.22-9.65,4.79-2,1.31-3.19.17-5,.92-2.85.76-1.17-4.87,2.19-4.53,2.94-2.6,2.68-3.78,2.7-7.65,0-3.69-2-4.86-2.87-8.64-.25,3.61-1.43,4.6-1.34,6.2,1,6.21-4.62,7.86-4.79,4.42.5-3.11-.25-4.57.32-7.83C381,268.06,385.63,266.79,385.69,264Z"/>
    <path d="M372.17,105.28c-6.64,12.38-9.58,14.29-18.84,19.18-2.91,1.53-4.33,3.15-9.57,3.09-5.68-.07-7.18-2.52-10.92-4.16C262.83,83.89,373.59-25.31,372.17,105.28Zm-20.12-20a37.37,37.37,0,0,0,5.26.56,17.81,17.81,0,0,0,6.26-1.66,10.46,10.46,0,0,0-6.63-2.51,9,9,0,0,0-6.43,3.19C349.94,85.67,351.61,85.27,352.05,85.32ZM337,84.65c-2.31-2.27-4-3.22-6.82-3-2.63.24-4.75,1.86-6.22,2.51,2.11.81,3.59,1.65,6,1.76s3.89-.79,5.44-.74C335.84,85.22,337.75,85.39,337,84.65Z"/>
  </g>
  <g class="oldBennettShirt">
    <path d="M276.06,208.65c1.34-2.52.79-6-.88-10.09a11.57,11.57,0,0,0-1-8.19,13.26,13.26,0,0,0-2.05-11.55c.54-2.86,1.39-5.92-.88-7,.14-4.94-1-10.52-2.92-16.53-1.72-7-.94-13.18-2.49-19.74-.6-2.56-.26-5.29-1.4-7.9-2.44-9.58-9.94-12.24-18-15.63-.63,18.46-1.9,34.4,2.48,46-.88,9.28-1.42,17.28-1.73,24.15,1.4,2.35,3.15,4,3.71,6-1.22,2.66-1.58,4.23.48,5.71-1.51,3.44-1.19,6.29,1.27,8.46-1.44,2.69-.54,5.24,1.17,7.75C249.78,229.2,282.52,223.64,276.06,208.65Z"/>
    <path d="M208.69,161.52c11.17-9.9,18.93-30.8,22.68-54.08-10.08-1.41-15.78,1.92-22.7,4.19-11.45-5.38-17-6.31-23.76-4.85C186.44,128,200.89,155,208.69,161.52Z"/>
    <path d="M141.88,185.5c-1.72-2.4.36-6.74,1.29-11.52.82-4.25.3-8.91,1.93-12.07,1.43-11.77,2.34-24.83,5.55-32.72,4.42-10.84,12.07-14.85,20.58-18.09-.26,7.47,1.54,27.87-3.07,44q.18,3.1.31,6.2c-2.9,15.64-1,20-5.76,24,.2.72.21,1.31-.22,1.61,4.64,2.69,1.61,7.36,3.65,12.11,1.84,1.86,2.39,2.26,2.35,4.69,2.24,1.71,2.65,4.5,2.23,7.78,3.13,1.43,3.51,2.3,2.68,6.25,1.33,2.64,1.15,4,.68,5.4,1.41,5.92,4,7.84,4,10,0,2.87-13.38,8.25-15.13,6-1.49-1.93-.76-5.2-3-9.25-3-1.38-4.85-1.46-4-4.61-2.68-.76-4.31-2.41-4.15-5.59-2.74-1.95-4.15-4.74-3.28-9-2.45-1.49-4-3.59-3.08-7.42C137.4,188.9,143,188,141.88,185.5Z"/>
  </g>
  <g class="oldBennettCollar">
    <path d="M224.31,97c2.57-.08,3.69,6.09,6.49,9.27,1.56,5.21-10.08,12-13.33,14.64-2.58-4.58-3.4-11.16-6.29-10.2C212.88,108.68,224.54,106.9,224.31,97Z"/>
    <path d="M193,97.34c-.21,7.64,9.78,10.34,12.88,13-3.54-1.11-3.74,7.16-6.7,11.3-5.24-4.29-12.39-10.49-12-16.4C190,101.33,190.5,96.45,193,97.34Z"/>
  </g>
  <g class="oldBennettBowtie">
    <path d="M223.26,108.31c-2-1.4-7.17,2-11,4.61a17,17,0,0,1-.17,5.56c1.62.81,6.05,4.33,10.93,3.64C224.79,121.87,225.29,109.7,223.26,108.31Z"/>
    <path d="M205,112.84c-2-1.41-6.44-5.2-9.63-4.43-2.92.7-2.81,13,.21,14.16s7.39-2.17,9.73-3.54A18.06,18.06,0,0,1,205,112.84Z"/>
    <path d="M205.53,119.4c-.71-.38-.92-6.35-.4-7s2.52.21,3.42.21,2.81-.8,3.53-.21.38,6.67-.41,7.06-1.8-.31-2.91-.31S206.57,120,205.53,119.4Z"/>
  </g>
  <g class="sockWhite">
    <path d="M212.25,445.5a27.81,27.81,0,0,1,1.35-5.17c2.9,1.05,10.71,1.31,13.2.61.87,1.18,0,2.53.58,4.28C229.16,451.75,216.07,450.8,212.25,445.5Z"/>
    <path d="M199,445.4c-.64-2,.52-3.83-.58-4.9-3.15,1-11.92,1.17-14.08.31-1,1.17.15,2.83-.74,5.05C181.1,451.58,196.9,449.42,199,445.4Z"/>
  </g>
  <g class="soleWhite">
    <path d="M74.51,453.7c-.55,1.87-.73,5.16,0,6,1.21,1.68,5.31,2.37,6.51,3.18,6.41,4.3,29.64,1.36,31.78-1.35,1.33-4.21-2.28-10.27-5.17-11.14C97.94,442.61,83.19,446.83,74.51,453.7Z"/>
    <path d="M61.82,453.21c.55,1.86.72,4.85,0,5.67-1.21,1.68-8.25,2.8-9.58,3.39-10,4.4-31.9,3.36-34,.65a11.47,11.47,0,0,1,8-13.86C39,444.79,53.14,446.33,61.82,453.21Z"/>
    <path d="M238.53,461.44c1,5.09-9.64,7-16.59,5.84-4.39-.74-11.31-2.46-12.46-4.08s-1-3.75-.59-5.65C223.91,455.34,235.28,455.62,238.53,461.44Z"/>
    <path d="M201.55,458c.33,1.8.78,3.66,0,5.12-1.57,3.06-7.39,4.21-13,4.56-9.8.59-14-1.66-12.42-6.79Z"/>
  </g>
  <g class="bennett">
    <g class="bennettShoe">
      <path d="M77.51,426.1c1.72,12-2.06,16.86-3,27.6,1.26,1.88,3.22,1.89,6.25,2.87,2,.64,2.5,1.38,5.06,1.9,1.57-9.83,15.8-10.64,21.77-8.09-7.37-4.45-11.33-14.31-11.08-26.68C92.84,416.53,84.23,421.42,77.51,426.1Z"/>
      <path d="M58.82,425.61c-.78,12.08,2.4,13.93,3,27.6-1.26,1.87-6.34,2.23-9.37,3.21a82.13,82.13,0,0,1-8,2.26c1-10.49-15.58-10.58-18.23-9.62,6.08-2.38,15.54-12.65,14.85-24.42C44.79,417.47,52.1,420.92,58.82,425.61Z"/>
    </g>
    <g class="shoelace">
      <path d="M97.17,432.86a31.29,31.29,0,0,0-11.2.49,67.5,67.5,0,0,0,3.12,14.44c2.89-1.27,10.1-1.71,14.12-1.12A28.43,28.43,0,0,1,97.17,432.86Z"/>
      <path d="M31.7,445.51c4.11-.32,10.46.48,13.32,2,1.58-4.89,3.77-9.3,4.21-14a31.34,31.34,0,0,0-9-1.32A29.6,29.6,0,0,1,31.7,445.51Z"/>
    </g>
    <g class="converseLogo">
      <path d="M80.23,450.87c3.71.6,3.9-10.74.26-11.5S76.42,450.25,80.23,450.87Z"/>
      <path d="M55.18,451c-3.72.61-3.91-10.74-.27-11.5S59,450.37,55.18,451Z"/>
    </g>
    <path class="bennettJeans" d="M105.59,231.5c1.47,3.12,4,11.39,3.63,21.57.4,24.28.34,48.1-2,64.26-.89,6,1.55,11.57-1.87,18.32-2.68,5.28,1.49,11.36-.86,15.29-2,26.44,2.6,40.54-3,49.73-2.73,4.51,4.9,7.68-.23,14.53-3.21,3.26,2.28,8.31-4.5,14.85-.27-5.13-9.15-5.21-11.32,0-4.17,1.73-5.53,4.77-7.71,5.81-1.65-5.54-6-6.62-2.26-12.06,2.38-3.45-2.9-4.25-.52-8.48s-3.26-6.09-1.68-13.72c1.73-8.35-.55-20.27.63-32.05.7-7-2.43-14.35-2.43-23.57,0-6.41-1.32-14.28-1.32-24.82,0-7.37-2.19-24.82-2.63-39.76-.8,21.48-3,40.62-2.32,49.89.71,9.73-2.77,22.7-1.86,33.33.94,11-.61,20.47-1,34.34-.21,7.12,2.45,14.6-1.69,20.8-2,3.05,4,8.25,1,12.18-2,2.66,1,3.56-1.8,7.12-3.27-2.55-6.11-6.25-9.84-6.87.76-5.43-7.74-8.58-10.21,1.33-7.06-6.85-.78-11.59-2.79-13.9-7.42-8.55-1.33-35.89-3.57-57.15-.68-6.5-2-12.08-.56-16.64-5.59-15.53-2.68-14.93-3.63-19.72-5.15-26-4.53-50.74-4.34-73.43.08-10.09,3.08-15.39,3.36-22Z"/>
    <path class="bennettSleeves" d="M84.09,104.65c5,.22,9.89,3.6,15,5.21,6.82,2.16,13.32,3.54,17.59,6.65,8.79,6.38,11,36.35,9.87,57.58.35,5,3.42,9.23,1,12.71,3.23.13.18,4.78,4.29,13.66.9,2.18-21.85,5.66-22.17,3.75-1.69-1.7.13-6.52-3.83-8.85L28.43,179.68c.35,2.72-1.68,5.76-2.85,7.06-1.53,1.71,1.43,2.74-1.2,6,2.24,2.81-1.28,6.6-.82,10.71.05.76-21.62,1.72-22.21.87-1.27-3,.65-5.17.68-7.54-2.44-1-2.25-5.71-.17-9-.78-9.52,2.43-15.73,2.83-25.93.53-14,1.58-26.42,5-35.71,5.79-15.8,25.6-16.65,40.12-22.49Z"/>
    <path class="shirtWhite" d="M87.41,113.85C79.06,125.1,53.2,125.1,46,114c-7.12,3-18.12,11-21.7,17.3-.13,3.71,1.72,4.86,2.75,6.6.7,1.17-1.23,1.65,1.24,3.16-1.65,13.34-.68,35.35-.68,46.91,0,2.84-2.91,3,0,6.32,1.78,24.35-4.54,21.46-.28,26,0,3-2.85,4.38.41,7.84-1.48,1.88-.27,4.82-.82,7.29,13.61,3.72,24.76,11,39.2,11.28,21.59.41,26.41-7.29,41.4-13.07-.82-1.51-.43-3-1-4.81,2.77-4.73-1-6.6-.28-12.38,2.23-3.67-.82-5.64-.13-10.59,2.06-4.27.48-5.75.55-8.67.08-3.37,1-6.86-.55-10.18-.55-8.39,1-15,.68-21.59-.41-9.48.83-17.75-.68-27,2-.71,1.65-4.54,2.34-7.29C103.63,123.19,95.7,118.77,87.41,113.85Z"/>
  </g>
  <g class="christopher">
    <g class="christopherShoe">
      <path d="M216.5,448.3c1.69-3.15,9-4,10.39-.83a8.18,8.18,0,0,0,.49-2.25c3.91,13.19,11.46,7.91,11.15,16.22-4.37-3.19-12.44-1.67-16.59,2.63-5.57-.35-10.06-2.33-13.05-6.52.27-2.65.27-10.08,3.36-12.05A5.22,5.22,0,0,1,216.5,448.3Z"/>
      <path d="M195.19,447.63c1-1.17,2.37-2.28,3.82-2.23,1.88,2.25,1.77,9.1,2.54,12.6-1.79,2.92-4.64,4.89-9.09,6.29-1.92-4.46-12.16-4.66-15-1.3-2.66-1.56-.89-4.15,1.9-7,2.81-2.4,1.9-7.51,4.26-10.15l.27,1.81C186.58,444.28,193.35,444.51,195.19,447.63Z"/>
    </g>
    <g class="christopherStrap">
      <path d="M216.57,451.64c1.05,2.1,2.82,3.37,5.15,5.08a22.54,22.54,0,0,1,12-2.07c.84.09-1.11-2.18-2.85-2.47.69-.54-.48-1.78-1.45-2.08A16.87,16.87,0,0,0,216.57,451.64Z"/>
      <path d="M196.61,451.49a10.41,10.41,0,0,1-3.72,5.23c-3-1.49-10.71-1.18-13.85-.4-.71.17.56-2.14,2-2.91-.84.11-.4-1.42.53-1.92C184.7,449.79,192.64,449.63,196.61,451.49Z"/>
    </g>
    <path class="christopherShorts" d="M235.87,319.4c2.26,11.45,1.35,28.84,2.09,44.31-2.58,3.8-24.67,5.27-29.46,2.45-.8-5.22-.24-9.41-1.23-14.85-.59,5.83,0,10.26-.61,14.94-3.07,2.58-26.48,2.92-31.39-1.38.86-14.11.09-27.43,1.69-38,.39-2.58,0-4.67.86-7.61Z"/>
    <path class="christopherWaistband" d="M177.4,321.2c12.62,1.45,44.4,2.48,58.77-.14-.23-1.32.25-2.36-.26-4.12l-58.23.17C177.21,318,177.58,319.5,177.4,321.2Z"/>
    <path class="christopherShirt" d="M176.8,317.19c1.15-3.05-2.78-3.74.11-8.14-4-6-1.11-7.48-.76-11.81.63-7.79,0-14.95,1-23.61-4.52,0-13.69-2.27-17-4.15,4.65-8.54,6.54-20,11.68-25.63,3.5-3.79,14.07-5,20.35-7.66l26.64-.13c8.41,2.77,17.26,2,22.61,7.17,2.35,2.29,2.4,5.46,3.26,7.91s2,1.63,1.64,6.91c1.63,4.14,2.51,8.79,4.57,12.19a36.46,36.46,0,0,1-15,4.39c-1.62,21.11,3.78,26.26-.87,30.9.75,2.77,3.73,4.67.72,7.56,1.7.34,1.23,2.93.82,3.84C220.11,321.74,190.69,320.7,176.8,317.19Z"/>
    <g class="triceratopsLogo">
      <path d="M203.82,284.1a11.31,11.31,0,0,1-1.36-.2c-.21.41-.44.83-.71,1.25-1.24,1.78-.24,2.32.24,3.31a5.15,5.15,0,0,0,2.21-.36C204.16,286.72,202.74,286.37,203.82,284.1Z"/>
      <path d="M232,276.37c.81-1.83.87-3.18-.2-4.23a5.25,5.25,0,0,0,.26-3.91,6,6,0,0,1-1.88,2.89,13.75,13.75,0,0,0-1.79-.61,9.36,9.36,0,0,1-3.7-2,11.86,11.86,0,0,0-.84,1.59c.11-1.47,2.26-5.3,4.73-7.46-2.87,1.08-5.32,3.95-6.51,6.15a6.2,6.2,0,0,1,1-2.1,12.76,12.76,0,0,1-2-4.9c-1.16-1.34-3.68-.19-3.21,1.53a1.84,1.84,0,0,0-2.15,2.88,1.84,1.84,0,0,0-1.4,3.13c-1.67.71-1,3.57.71,3.24-1.91.78-2.6-2.36-1.26-3.25-6.4-3-12.42-4.8-17.85-.91-2.38,1.7-4.21,5.91-6.64,8.64-2,2.31-6.11,3.33-10.35,3.26a13.31,13.31,0,0,0,13.63-.33,12.28,12.28,0,0,0,4.53,2.67c.63-1.71-1.3-2.13-1.27-4.79.38,2.61,2.11,2.81,1.62,4.86-1,3.93,0,5.36,0,6.91a8.87,8.87,0,0,0,4.6-.05,3.83,3.83,0,0,0-.34-1.12c-.54-1.14-1.32-1.57-.2-3.35,2.21-3.54,2.52-6.32,1.09-9.23,1.34,1.63,1.7,4.43.09,7.76a20.45,20.45,0,0,0,7.51-.34,8.62,8.62,0,0,1,1.09-4.08c-2,5.82.6,7.89.62,10.43.74.34,3.94.38,4.58,0a1.79,1.79,0,0,0-.45-1.14c-.25-.36-1.34-1.14-1.18-4.51.06-1.26.83-2.51,2.51-3.62,4.85-3.34,9.08,1.24,13.15-2.21a6.37,6.37,0,0,1-4.52-1.28C228.51,276.84,229.7,274.69,232,276.37Z"/>
      <path d="M217.08,280.86a4.2,4.2,0,0,0-2,3.11c-.1,2.18.25,3.55,1.35,4.51a3.48,3.48,0,0,0,1.78-.3C217.91,285.87,215.22,286.21,217.08,280.86Z"/>
    </g>
  </g>
  <g class="clothesDisplayLine">
    <path d="M206.15,322.67c.46,10-.66,19,1.12,28.64"/>
    <path d="M216.7,322.6c5.56,6.39,12.43,9.62,20.52,9.2"/>
    <path d="M197.71,322.48c-4.67,5.55-13.39,10.46-21.32,9.32"/>
    <path d="M62.31,246.45c-1.25,3.45.26,7.67-.11,11.95-.45,5,1.9,8.87,2.14,13.59.29,5.58,2.18,6.11,3.19,9.41"/>
    <path d="M71.92,246.59c-1.57,3.29-.43,6.24-.71,8.8-.72,6.58,4.86,15.17-6.87,16.6"/>
    <path d="M88.33,242.91a19.94,19.94,0,0,0,14.07,3.61"/>
    <path d="M47.23,242.71c-3.17,3.18-8.66,5-16.94,3.95"/>
    <path d="M44.5,458.68c-6.27,1.19-22.64,0-25.94-1.66"/>
    <path d="M85.82,458.47c7.38,1.46,22.87,0,26.38-2.82"/>
    <path d="M344.59,245.73c-.15,8.88.61,23.23.15,29.11a65.18,65.18,0,0,0,.45,14.34"/>
    <path d="M353.72,258.16c.53,4.37-.22,8.63,0,12.42.26,4.82-3.08,7.55-9.16,8.18"/>
    <path d="M326.41,255.38c-5,3.91-11.84,5.57-20.05,5.11"/>
    <path d="M366.48,255.13A25.59,25.59,0,0,0,382,259.79"/>
    <path d="M356.89,417c-1.42.94-2.25,7.33-1.26,8.53"/>
    <path d="M333,417.69c.92,1.31,1.1,7.27.22,8.54"/>
  </g>
  <g class="clothesOverlapLine">
    <path d="M216.5,448.3a6.37,6.37,0,0,0,1.29,2.72"/>
    <path d="M226.89,447.47a7.57,7.57,0,0,1,.62,2.19"/>
    <path d="M195.19,447.63a5.4,5.4,0,0,0-1.28,3"/>
    <path d="M183.88,447.67a8,8,0,0,0-1.22,3.35"/>
    <path d="M235.26,256.39c1.1,5.73.73,12.23.68,18.24"/>
    <path d="M179,257.85c-1.46,5.66-1.46,10.86-1.84,15.78"/>
    <path d="M85.45,430.05c.81,1.32.26,2.06.52,3.3"/>
    <path d="M97.65,435.18a34.81,34.81,0,0,0-11.39.63"/>
    <path d="M98.27,437.43a33.68,33.68,0,0,0-11.61.9"/>
    <path d="M99.07,439.71a35.43,35.43,0,0,0-11.92,1"/>
    <path d="M100.13,442.05a37.87,37.87,0,0,0-12.38,1.14"/>
    <path d="M101.41,444.27a37.9,37.9,0,0,0-13,1.18"/>
    <path d="M50,432.19a1.9,1.9,0,0,0-.78,1.33"/>
    <path d="M39.39,434.59a27.64,27.64,0,0,1,9.48,1.27"/>
    <path d="M38.29,437a26.1,26.1,0,0,1,10,1.28"/>
    <path d="M37,439.21c2.89-.49,7.29.25,10.52,1.31"/>
    <path d="M35.47,441.41A27.28,27.28,0,0,1,46.63,443"/>
    <path d="M33.68,443.55c3.53-.55,9.33.18,12.17,1.56"/>
    <path d="M204.84,119.3c.82,10.79-.31,23,0,38"/>
    <path d="M208.67,111.63c-1,.42-2.36-.11-2.83.55"/>
    <path d="M355.63,425.52c-.46,1.8.4,7.47-1.58,13.05"/>
    <path d="M332.45,426.46c.9,1.66,1,9.08,2.42,13.29"/>
    <path d="M343.75,153.07c2.8,8.26.8,8.84,0,14.55-.74,5,2.28,6,.58,13.06s.39,9.34-.09,15c-.62,7.27-2.16,8-.14,16.89,1.32,5.79.14,19.1.49,30.82"/>
  </g>
  <g class="clothesBorderLine">
    <path d="M218.43,454.11a20.74,20.74,0,0,1,12.41-1.93"/>
    <path d="M195.47,453.94a34.1,34.1,0,0,0-14.46-.53"/>
    <path d="M211.18,119.63c.78,10.3-.19,24,0,39.44"/>
    <path d="M257.72,220.28c0-2.82-.87-5.12,0-7,2.38-5.19,14.06-6.19,15.73,0,.39,1.46-.47,2.51-.29,4.25"/>
    <path d="M160,229.92c.16-4.73,8.64-8.17,14.08-6.75"/>
  </g>
  <g class="clothesFoldLine">
    <path d="M212.46,115.1c7.46-1.63,12.8-2.55,8.6,1.2"/>
    <path d="M213.46,117.16a32.81,32.81,0,0,0,8.57,2.77"/>
    <path d="M204.94,117c-2.75,1.39-5.38,2.34-7.69,2.26"/>
    <path d="M204.85,115.29c-6.55-2.81-11.85-1.92-6.88.62"/>
    <path d="M210.43,134.36a61.92,61.92,0,0,1-12.79-.13"/>
    <path d="M218.34,136.2a86.89,86.89,0,0,1-14.83.47"/>
    <path d="M251.33,125.68c-1.89,4.27-3.49,8.49-3.46,12.46"/>
    <path d="M251.18,133.68q-1.55,5.58-5.23,7.92"/>
    <path d="M256,124.37c-.48,9.14-3.25,16.71-9.73,21.7"/>
    <path d="M258.33,133.76a28.31,28.31,0,0,1-6.77,10.15"/>
    <path d="M254.8,146.6a31.05,31.05,0,0,1-5.87,11.4"/>
    <path d="M253.72,155.37c-1.65,2.59-2.69,5.85-4.31,8.16"/>
    <path d="M263,143.6c-1.31,12.24.7,24.8-10.93,27.16"/>
    <path d="M268,153.68c1.38,8.39-1.62,16.39,3.27,18.12"/>
    <path d="M267.34,175.38c-16.39-3-23.39-.08,1.23,6.15"/>
    <path d="M247.41,177.86c3.17.41,4.31,1.38,1.52,3.44"/>
    <path d="M252.49,182.23a8.83,8.83,0,0,1,7.78.08c1.18.74-5.47,1.15-9.36,5.88"/>
    <path d="M274.16,190.37c-3.2-3.64-6.81-5.73-11.21-4.84"/>
    <path d="M256,187.84c3.69.08,7-1,7.85.39,1.07,1.69-5.62.15-10.54,6.92"/>
    <path d="M270.57,193.23c-6.54-3.54-15.19.21-14.24,2.23.62,1.31,9.31-4.62,17.08,3.46"/>
    <path d="M252.66,202.36A3.4,3.4,0,0,1,254.8,199"/>
    <path d="M271.26,200.61c-3.77,3.16,3,3.31,4.8,8"/>
    <path d="M262.1,204.38c3-1.69,9.24,2.31,1.54,2.16"/>
    <path d="M253.83,210.11c3.66-9.34,13.9-10,13-11.88-.69-1.39-6.62-.85-10.31,2.08"/>
    <path d="M168,128.14a25.45,25.45,0,0,0,2.86,11.21"/>
    <path d="M170.34,144.14c-4.88-7.12-6-20.47-8.78-19.37-3.13,1.26-.55,5.07,1.22,8.35"/>
    <path d="M164.54,141.62c-13.12-18.86-11.1-4.21,3.07,17.45"/>
    <path d="M156.12,146.9c1.69,7,6.59,12.63,5.36,13.78-1.63,1.53-5.87-2-8.8-7.89"/>
    <path d="M149.08,148.89c1.22,7.73,6,18.61,10.64,19.22"/>
    <path d="M148.46,158.23c-.6,12.85,8.66,26.49,14.93,21"/>
    <path d="M145.1,161.91c-.13,3.19,2.1,10.71,1.36,16.24"/>
    <path d="M162.71,185.33c-12.46-5.69-22.45,1.87-16.77,1.77"/>
    <path d="M162.49,186.94a19.68,19.68,0,0,0-12.44,0"/>
    <path d="M152.54,192c3.49-1,9.27-1.24,11.55,1.69"/>
    <path d="M166.14,199.05a6.13,6.13,0,0,0-4-1.18"/>
    <path d="M145.45,203.33c4.4-7.46,11.13-7.88,9.58-8.85-2.39-1.49-8.76.3-9.86,2"/>
    <path d="M148.53,210.75c.52-2,2.83-3.2.92-4.72"/>
    <path d="M158.71,197.27c-6.66,3.88-5.57,4.58-3.38,4.68,3.08.14,9.06-2.25,13.16,1.79"/>
    <path d="M151.81,219.72c-.47-6.72,8.78-11.69,10.69-13.48,1.64-1.54-2.79-2.8-6.87-2.24"/>
    <path d="M170.72,211.52c-5.53-2-9.52,1.33-9.12-.46"/>
    <path d="M167.68,214.14a9.36,9.36,0,0,1,5.72,3.63"/>
    <path d="M156,225.31c0-1.07.81-1.8,2-2.35"/>
    <path d="M166.08,216.15c3.89,1,4.78,4.57.1,4.27"/>
    <path d="M245,308.83a19.49,19.49,0,0,1-6.85,9.46"/>
    <path d="M168.82,343.12c1.22,4.23,2.78,7.67,5,9.69"/>
    <path d="M239.52,424.23c-1.16,4-2.89,7.25-5.43,9.22"/>
    <path d="M174,401.52c.76,9.94,2.37,18.21,6.39,23.41"/>
    <path d="M168.94,353a10.09,10.09,0,0,0,2.72,3.36"/>
    <path d="M247.66,447.7c-3.12-2.64-12.67-1.85-16.07.27"/>
    <path d="M182.8,449.1c-4.69-1.87-9.41-2.15-13.47-.46"/>
    <path d="M169.85,270.05a13.1,13.1,0,0,1-1.56-4.87"/>
    <path d="M170.2,265.18a4.81,4.81,0,0,0,1.36,3.27"/>
    <path d="M178.09,250.91c-1.31,4.61-1.59,8.8-.12,12.32"/>
    <path d="M182.51,256.79c-.52,1.43-2.87,5-4.31,4.91"/>
    <path d="M190,267.34a37.59,37.59,0,0,0,4.12,11.51"/>
    <path d="M189.19,275.58A73.11,73.11,0,0,0,195,291.76"/>
    <path d="M176.91,309.05c2.84,3.4,7.35,2.83,4.19,5"/>
    <path d="M179.34,302.81c10.56,10.65,23.13,15.42,38.53,11.9"/>
    <path d="M233.45,299c-2.07,3.93-4.61,7-7.84,8.84"/>
    <path d="M235.79,313.09a9.51,9.51,0,0,1-5.16,2.38"/>
    <path d="M235.07,305.53c-4.74,5.37-18.08,11.29-4.39,6.87"/>
    <path d="M225.36,277.54a62.84,62.84,0,0,1-6.83,14.82"/>
    <path d="M229.38,274.32a61,61,0,0,1-3.12,11.86"/>
    <path d="M230.88,255.24A17.48,17.48,0,0,1,234.7,262"/>
    <path d="M238.07,251.92A20.13,20.13,0,0,1,236,262.81"/>
    <path d="M244.6,257.85c-.25,2.91-1.46,7.13-2.86,9.09"/>
    <path d="M246.38,258.05a26.76,26.76,0,0,1-2.94,11.4"/>
    <path d="M126.54,174.09c-.46,5.76-4.18,5.43-1.46,9.23"/>
    <path d="M118.15,189.8c6.75-12,.17-4.55-8.1,3.38"/>
    <path d="M109,196.72c5.74-2.53,18.9-3,8.94,0"/>
    <path d="M110.05,184.91c3.55-1.35,4.9.84-1.68,4.56"/>
    <path d="M107,183.39c12.35-1.2,16-14.8,17.37-31.72"/>
    <path d="M106.76,170.64c3.88-4,7.73-13.28,11.56-24.63"/>
    <path d="M108.5,131.15c.61-2.56.32-7.58-.79-11.27"/>
    <path d="M114.65,125.56a30.15,30.15,0,0,1-7.89,17.8"/>
    <path d="M118.32,123.27a34.89,34.89,0,0,1-11.43,23.12"/>
    <path d="M106.16,138.44c-5.32-6.31-3.84-11.4-1.18-3.87"/>
    <path d="M38.74,152.81c9.13,1.94,19.44,2.36,30.5,1.85"/>
    <path d="M60.6,157.61a151.24,151.24,0,0,0,34.7-1.25"/>
    <path d="M106.16,187c-4.62,5.57-11.77,8.35-20.23,9.68"/>
    <path d="M102,186.48a12.49,12.49,0,0,1-5.32,3.1"/>
    <path d="M104,202.8a19,19,0,0,1-8.94,6.5"/>
    <path d="M106.16,205.84a21,21,0,0,1-6.94,5.38"/>
    <path d="M102.76,214.54q-11.82,13.28-33.89,16"/>
    <path d="M106.57,228.81c-4.59,3-10.31,4.48-17.39,4.12"/>
    <path d="M99.51,223.7c-3.91,3-17.35,5.39-9.37,5.69"/>
    <path d="M91,235.81c-13.73,4.52-27.37,5.23-40.91.74"/>
    <path d="M27.75,228.12c2.73,2.24,6.42,3.53,10.55,4.37"/>
    <path d="M36.45,228.87c6.11-1.66-3.91-3.69-9.11-8.59"/>
    <path d="M33.79,219.64c4.66,4.43,10.48,6.84,17.21,7.68"/>
    <path d="M27.62,194.28a27.54,27.54,0,0,0,8.54,7.42"/>
    <path d="M33.42,195.42a41.81,41.81,0,0,0,14.85,8.42"/>
    <path d="M2,196.8c3.85,1.69,13.52-.5,8.13,3"/>
    <path d="M16.73,199.85c-6-1.8,2.66-2.51,6.87-3.91"/>
    <path d="M24.38,192.76a35.22,35.22,0,0,1-15.1,2"/>
    <path d="M1.86,187.79c.77,2.24,2.95,3.82,1.8,5.71"/>
    <path d="M19,182.42a16.78,16.78,0,0,0-10-3.62"/>
    <path d="M10.31,163.3c3.56,8.9,7.88,16.13,14.62,18.09"/>
    <path d="M22.79,186c-4.8,1.18-13.19,0-13,1.4.36,2.57,7.27,1.61,13.66.82"/>
    <path d="M17.69,127.48c1.43,6.89,3.81,12.57,8.2,15.73"/>
    <path d="M20.65,121.94c5.32,7.76.59,10.27,4.13,16.18"/>
    <path d="M28.3,141.05c4.83-2,10.15-10,8.15-4"/>
    <path d="M74.79,270c5.43-1.6,12.07-2.19,19.31-2.29"/>
    <path d="M77.36,278.14a98.31,98.31,0,0,1,18.89,4.44"/>
    <path d="M60.19,270.27a94.82,94.82,0,0,0-23.89-1.43"/>
    <path d="M60.91,277.14a98.49,98.49,0,0,0-18.75,7.3"/>
    <path d="M72.35,288.59A99,99,0,0,1,83.66,315.2"/>
    <path d="M51.18,339.24c-6,1.86-13-.71-16.89-4.29"/>
    <path d="M32.88,345.83c1.17-2.07,1-4.89.13-8.16"/>
    <path d="M41.45,347.68C48,350,53.32,351,38.59,354.55"/>
    <path d="M57.47,340.53c-14.45,4.29-16,2.72-5,8.58"/>
    <path d="M102.83,332.09c-2.86,3.29-4.86,8-1.29,11.3"/>
    <path d="M99.25,332.66c-9.58,9.3-12.16,9.73-22,2.72"/>
    <path d="M78.65,340.67c9.44,2.58,14.59,4.44.14,7.73"/>
    <path d="M96.82,351.55c-5.64-3.43-12.59-2.8-20.75,1.57"/>
    <path d="M98.11,399.34c-6.15,4.15-18.74,5.43-1,9.44"/>
    <path d="M78.79,411.93c5-4.48,8.8-2.29,14-1.15,4.62,1-2.44,4.44-13,6.73"/>
    <path d="M96.68,415.51c-6.87,2.43-12.45,2.57-5.72,6.29"/>
    <path d="M79.51,419.65c7,2.44,10.73,2.72.57,9"/>
    <path d="M53.32,402.06c3.58,2.54,7.22,5.08,3.87,8.72"/>
    <path d="M43.74,400.62c-2.31,7.6-12.74,7.87-4.87,12.74"/>
    <path d="M59.33,413.22c-8.3,3.72-16,4.27-1.71,10.44"/>
    <path d="M38.16,415.36c5.58,1.86,11.53,1.22,1.28,6.73"/>
    <path d="M60.62,428.81c-4.29-2.86-15.49-5.21-20.75-2.57"/>
    <path d="M235.54,346.59c-1,6.41-2.46,10.86-2.8,15.61"/>
    <path d="M220.66,343.53c-1.44-1.21-6,1.89-10.29,6.67"/>
    <path d="M209.38,353.09c2.49.31,4.88.81,6.59,2.61"/>
    <path d="M193,347.13a32.31,32.31,0,0,1,10.47,4.78"/>
    <path d="M202.71,354c-1.3-.2-3.92,2-6.68,4.42"/>
    <path d="M210.81,322.67a17.64,17.64,0,0,1,.19,5.61"/>
    <path d="M208.93,322.67a15.36,15.36,0,0,1,0,2.63"/>
    <path d="M203,322.61a12.92,12.92,0,0,0-.06,4.23"/>
    <path d="M234.55,321.69a12,12,0,0,1,.63,5"/>
    <path d="M233.11,321.88a4,4,0,0,1,.18,2.34"/>
    <path d="M181.42,321.59c-.06.81,0,2,0,2.9"/>
    <path d="M179.33,321.4a23.74,23.74,0,0,0-.17,5.44"/>
    <path d="M379.94,170.1c-1.74-3.5-4.7-5.2-8.59-5.51"/>
    <path d="M315.64,168.44c-2.36-1.86-6.14-.72-7.4,2.28a5.65,5.65,0,0,1,5.92-5.79"/>
    <path d="M342.25,159.49a48.1,48.1,0,0,0-7.36.57"/>
    <path d="M340,158a31,31,0,0,0-6.68-1"/>
    <path d="M341.12,174.67a31,31,0,0,0-7-1.36"/>
    <path d="M339.08,175.8c-2.9.28-6,.44-9.29.56"/>
    <path d="M340.78,177.27a38.91,38.91,0,0,0-6.69,1.81"/>
    <path d="M341.23,194.59c-2.57,0-5.47.07-8.61.23"/>
    <path d="M340.1,196.07a29.76,29.76,0,0,0-6.46,1.81"/>
    <path d="M339.76,212.94a44.55,44.55,0,0,0-7-1.59"/>
    <path d="M353,159.26c-2.82-.07-5.46-.08-7.82,0"/>
    <path d="M350.63,173.16c-2.24,0-4.37.39-6.26.23"/>
    <path d="M355.16,175.73c-3-.22-6.59-.26-10.39-.21"/>
    <path d="M352,177.81c-2.35-.24-4.75-.43-7.19-.54"/>
    <path d="M353.15,194.82c-3.22-.11-6.23-.16-8.88-.11"/>
    <path d="M353.15,197.6a60.77,60.77,0,0,0-9-1"/>
    <path d="M355.39,211.75c-3.22.23-6.2.37-8.9.4"/>
    <path d="M352.13,214.37c-2.57-.35-5.19-.59-7.86-.7"/>
    <path d="M380.48,150.25c-2.09,5.94-3.09,11.9-1.75,17.94a20.75,20.75,0,0,1,6-12.39"/>
    <path d="M372.48,167.84a10.37,10.37,0,0,1,7.46,3.59"/>
    <path d="M304.9,159.26a13.54,13.54,0,0,1,4.47,8c1.7-2.58,2.21-5.17,3.28-7.15"/>
    <path d="M308.24,150.13c1.4,5.52,2.17,11.15,1.13,17.08"/>
    <path d="M310.57,191a13,13,0,0,0,5.8,5.49"/>
    <path d="M308.23,192.88a16.58,16.58,0,0,0,5,4.78"/>
    <path d="M309.37,212.61a4.09,4.09,0,0,0,2,2.2"/>
    <path d="M309.56,221.34c.82,1.35,1.92,1.87.19,3.49"/>
    <path d="M378.21,214.45c-.75,1.68-3,2.56-.63,3.83"/>
    <path d="M379,203.87c-1.25,1-2,1.54-.62,3.25"/>
    <path d="M378.4,193.25a21.13,21.13,0,0,1-8.57,5.36"/>
    <path d="M380.07,195.45a26.19,26.19,0,0,1-6.4,4.35"/>
    <path d="M340.56,281.58c-9.24-2.9-19.14-2.9-29.43-1.22"/>
    <path d="M341.61,285.86c-4.89-.26-11.62,1.14-15.2,3.14"/>
    <path d="M351,281.67c7.27-3,16.31-3.63,26.29-3"/>
    <path d="M350,286.12A30.34,30.34,0,0,1,365.1,288"/>
    <path d="M379.79,357.5a39.7,39.7,0,0,1-16.35,2.62"/>
    <path d="M380,363.91c-5.13,2.36-11.44,3.33-19,2.76"/>
    <path d="M310.77,357a39.24,39.24,0,0,0,12.67.6"/>
    <path d="M311.11,364c4,1.12,14.78,1.44,22.29-.13"/>
    <path d="M313.23,354.88a44,44,0,0,0,13.18.27"/>
    <path d="M319.51,362.31a57.62,57.62,0,0,0,13-.79"/>
    <path d="M372.87,357.42a61.73,61.73,0,0,1-14.93.78"/>
    <path d="M378.46,362.22a22.35,22.35,0,0,1-10.39,2"/>
    <path d="M331.92,410.5c-3.8,2.59-7.86,3.82-12.32,3.05"/>
    <path d="M127.51,186.8c-1.23,2-2.47,3.92-1.86,5.17"/>
  </g>
  <path class="clothesEdgeLine" d="M230.57,438.21c-.36-4.35-.45-11.15-.42-18.86"/>
  <path class="lipFemaleBrown__noStroke" d="M333.87,108.17c.45,11,18.6,11,19.78-.06Z"/>
  <path class="lipFemaleBrown" d="M354.83,107.81c-1.89.58-4.34-1.48-6.05-1.76-2.65-.44-3.66,1-8.34-.19-2.58-.68-4.31,2.32-7.82,2.18C339.72,108.85,351.67,108.9,354.83,107.81Z"/>
  <g class="skinEastAsian">
    <path d="M193,97.34c-.21,7.64,9.78,10.34,12.88,13h0c.9.4,1.84.83,2.83,1.29.9-.29,1.78-.6,2.65-.92l-.14,0c1.7-2.07,13.36-3.85,13.13-13.71h0c.06-2.13.16-4.14.32-6.06l-32.2-.47c.18,2.16.34,4.43.46,6.81Z"/>
    <path d="M220.59,226c-2.14,2.33-2.4,5.9-1.72,10.09-2,8.12-24.81,8.69-26.64.13,1-6.43-.48-19.71-4.93-19.75"/>
    <path d="M272.51,289.88c-1-.78-1.8-3.53-2.31-6.88-7.12,1.66-14.07-.77-19.75-2-.67-3.07-.86-6.52-1.7-9.63-3.9,1.77-9.59,3.22-12.81,3.22a98.56,98.56,0,0,0-.19,12.75c.95,3.93,2.29,6.41,4,7.2,10,4.82,25.63-1.82,35.09-2.38A26.59,26.59,0,0,0,272.51,289.88Z"/>
    <path d="M162,270.31a80.5,80.5,0,0,0-2.82,11.08c-6.56-3.81-14.74-1.41-20.91-5.5l-5.57,8.5c7.46,5.07,18.23,14.45,31.13,12.95,5.61-.65,10.33-8.67,12.85-16.61h0c.09-2.28.24-4.63.53-7.1C173.29,273.63,166,272,162,270.31Z"/>
    <path d="M235.17,365.42c-6.65,2.43-22.24,3.07-26.49.84-.39,17.32,2.8,20.84,2.45,31-.67,19.54,2.5,29.08,2.8,43.22a35.67,35.67,0,0,0,12.58.57c2.67-15.8,5.4-31.87,4.59-42.92C230.52,390.25,233.24,389.26,235.17,365.42Z"/>
    <path d="M178.76,366.55c1.63,20.33,4.34,22.09,3.74,30.09-1.26,16.88,2.1,30.22,2.55,44.37a40.27,40.27,0,0,0,12.72-.32c1.39-16,5.25-21.32,5.56-43.08.16-9.68,2.58-13.17,2.59-30.93C201.75,368.49,186.4,368.84,178.76,366.55Z"/>
    <path d="M84.19,89.24c-1.14,1.46-1.75,12.84-.1,15.41,5.24,15.45-40,17.86-34.29-1,1.14-1.69,1.85-9.71.13-16.42"/>
    <path d="M8.05,246.65c.5,3.82-5.87,11.49-6.93,19.67-.3,2.28-1.4,9.74,2.07,11.11.52,2.67,2.6,7.43,5.21,7,1.28,2.34,2.41,4.32,5.38,4,2.06,1.45,2,3,4.6,2.26,1.93-1.14,1.36-4.68-.63-6.51-.27-1.4.42-4.17.14-6.79A40.23,40.23,0,0,1,19,271.7c-.28,8.06,6.43,10.69,6.08,6.37-.29-3.66.29-6.09.43-9.7.54-13.69-3.47-13-4.48-18.64-1.52-17.81,3.19-32.59,2.13-46.06-2.73.63-17.08,1.27-20.86.89C2,214,7,231.47,8.05,246.65Z"/>
    <path d="M136.5,246.71c-4.54-16.75-3.59-33-5.79-46.09-2-1.6-20,1.58-20.26,3.37,0,10.34,11.66,24.55,13.36,43.11.2,6-2.83,7.66-1.74,18.12,1,3.9-.32,5.91,1.22,8.5,1.57,2.18,1.21,4.54,2.61,4.53,6.32-1.74,1-8.17,3-13.4,4,4.9,4.68,8.8,4.53,10.78-.84,2.93-.55,7-1.33,7.61-3.32,4.39-.07,8.46,2.14,6.39.45-1.13,1.24-1.93,2.54-3.94,2-.7,3.32-2.33,4.33-5.59,4.75-1.26,4.12-12.14,3.92-13.62C144.35,261.9,139.79,255.18,136.5,246.71Z"/>
    <path d="M275.41,229.31c-.29,3.95-.44,12.27-2.41,15.15-2.95,3.4-4.92,6.28-10.44,2.95a6.86,6.86,0,0,1-7.64-2.2,5.25,5.25,0,0,1-3.32-3.93c-2.95-1.28-2.27-4.69-2.95-8.47,1.59-2.27,4.84-1.74,5.14,1.14a1.75,1.75,0,0,0,1.51-.91c-.6-5.56.21-15.46,7.93-16,3.66-.26,8-3.75,14.9,5.38,4.22,4.06,10.69,6.48,7.34,10.77C282.89,235.83,279,231.77,275.41,229.31Z"/>
    <path d="M167.37,264.79c-1.92,1.77-4.67.19-6.55-1.87-1.72-1.87-3.44-4.37-1.15-6.61-1.92-4.11,0-6.8,1.2-9.62.92-2.25-1.45-6.79,3.69-8.74,1.62-.62,2-4.63,7-5,1.82,0,9.36-3.23,12.64,1.67,2.61,3.88,1.87,8.42,3.07,12.48-.94,2.14-7.08.69-7.19-4.84-.43-2.6-2.76-4.61-5.76-2-1.4,1.4-1.45,7.43-.16,9.54,5.1,5.46,1.4,10-2.48,6.85,3.65,2.84,3.41,7.3,0,7.12C171.49,265.28,169.6,265.72,167.37,264.79Z"/>
    <path d="M281.45,270.89c.4,4.35-2.2,10.95,1.45,11.35,4.68.11,2.4-7.52,4.59-13.09,1.77-.27,2.41,1.48,1.47,2.72s-.49,2.61-1.64,3.52c2.57,2,.57,3.5,1.42,5.17,1.75,3.43-1.5,4-2.15,5.63.22,1.87-2.09,2.4-3.19,3.65-1.67,2.25-3.94,2.14-7.3.15-4.6-2.72-5.55-7.3-2.05-7.1-3.51-2.68-3.25-5.65-.8-5.7-3.35-2.6-1.05-6.15,2-4.75C273.9,268.89,277.5,267.79,281.45,270.89Z"/>
    <path d="M128.19,268a4,4,0,0,1-.87-3.33c.84-2.41,2.75-1.36,4.88-1.72a1.44,1.44,0,0,1,1.36,2.23c4.14-1.69,5.55,2.53,2.7,4.4,2.64.41,1.67,4.58-2,5.85,2.27.34,1.8,4.24-1.6,5.19-.12,1.18-.24,2.38-.62,2.64a3.07,3.07,0,0,1-2.73-5.42c-1.8-.05-2.8-3-.92-4.78C126.64,272.68,126.8,269.63,128.19,268Z"/>
    <path d="M242.49,51.33c2.48,1.36,2.94,7.79.06,16.13-1,2.81-.92,6.14-4.86,5.6-1.87,13.67-9.77,18.21-17.93,24.58-5.67,4.42-16.11,4.09-21,.22S183.27,91.27,180,73.42c-4.59,0-3.74-2.14-5.43-6.65-2.93-7.82-1.43-15.06.84-15.62C174.62-3.76,241.7-3.58,242.49,51.33Zm-40.76,4c-2.72-2-4.16-2.36-6.52-2.28-2.75.09-4.59,1.89-5.84,2.58a16.42,16.42,0,0,0,5.37,1.11c1.68.06,4.13-.72,5.85-1C201.05,55.73,202.61,56,201.73,55.37Zm15.62.65c1.64.15,3.4.91,5.08.84,2.86-.12,4-1,6-1.57a11.44,11.44,0,0,0-6.16-2,7.25,7.25,0,0,0-5.89,2.32C215.57,56.37,216.89,56,217.35,56Z"/>
    <path d="M100,52.3c2.49,1.36,3.75,8.31.16,16.59-1.18,2.73-1.1,6-5.43,6.26C91.5,88.31,84.66,92,75.55,98.32c-4.62,3.2-13.5,3.29-18.44-.1-6.52-4.49-15.65-10.53-18.65-23-4.58,0-4.69-2.38-6.39-6.89-2.93-7.82-.57-15.1,1-15.8C32.25-1.58,99.26-1.84,100,52.3ZM59.63,55.61c-1.54-2.46-4.28-3.07-6.64-3-2.74.09-4.63,2-5.88,2.67,2,.57,3.48,1.41,6.34,1.53a14,14,0,0,0,4.93-.62C58.82,56,60.21,56.54,59.63,55.61Zm15.73.61a19.85,19.85,0,0,0,4.89.82,22.86,22.86,0,0,0,6.44-1.41c-1.24-.69-3.21-2.92-6.36-3-2.36,0-4.69.52-6.22,3C73.52,56.58,74.91,56.13,75.36,56.22Z"/>
    <path d="M224.61,172.31c7.45,16.58,6.57,18.39,6.43,23.5-.1,3.49,5,21.12-4.1,29.86-4.16,4-4.61,6.57-10.1,7.48-5.09.84-7-.43-11.29-1.64A31.1,31.1,0,0,1,192,223.78C148.63,206.94,186.41,148.13,224.61,172.31Zm-15.72,26.86c-1.54-1.69-2.79-2.43-4.86-2.22a9.18,9.18,0,0,0-5.21,2.78,13.25,13.25,0,0,0,5,.94c1.49,0,2.85-.9,4.36-.84C208.53,199.84,209.48,199.83,208.89,199.17Zm11.57-.24c1.24,0,2.53.34,3.95.23,1.75-.13,3.09-.31,4.28-1.74-1.08-.46-2.06-2-4.81-1.78-2.38.16-3.18,1.29-4.37,2.58C218.71,199.09,220.07,198.94,220.46,198.93Z"/>
  </g>
  <g class="skinOverlapLine">
    <path d="M3,271.9a23.66,23.66,0,0,0,.2,5.53"/>
    <path d="M7.15,273.52A22.57,22.57,0,0,0,8.4,284.43"/>
    <path d="M12.14,274.16c-.28,5.36-.35,10.08,1.64,14.31"/>
    <path d="M19.6,266.21A15.69,15.69,0,0,1,19,271.7"/>
    <path d="M141.07,280.1c.88-3.47,1.54-7.33.84-10.55"/>
    <path d="M139.19,270.46c.56,6.78-.35,11.73-2.45,15.23"/>
    <path d="M159.67,256.31c1.43,3.22,4.57,7.32,7.7,8.48"/>
    <path d="M161.24,247.46a19.94,19.94,0,0,0,10.48,16.29"/>
    <path d="M166.56,241.93c-.15,6.61,1.72,12.36,5.15,14.7"/>
    <path d="M254.92,245.21c-1.53-4.43.73-5.92.09-8.79,3.72-2.26,6.24.76,6.06,5"/>
    <path d="M262.56,247.41c-1.64-1.45-4.08-1.4-4.16-2.45,1.06-4.91,6.14-4.71,8.59-2"/>
    <path d="M255.91,236a2.11,2.11,0,0,0-2.12-2c-5.21.84-2.39,3.66-2.19,7.33"/>
    <path d="M265.18,241.61a4.4,4.4,0,0,1,3.38-1.83"/>
    <path d="M267.49,236.2a8.4,8.4,0,0,0-.62,4"/>
    <path d="M273.15,228c.9.71,1.67.81,2.26,1.29"/>
    <path d="M395.62,286.35c-.42,7-1.67,8.31-6.29,11.84"/>
    <path d="M399.91,285.68a18.63,18.63,0,0,1-.93,7.72"/>
    <path d="M278.75,294.63a3,3,0,0,0,.95-3.1"/>
    <path d="M282.57,293.24a2.58,2.58,0,0,0-.67-2.11"/>
    <path d="M128.19,268c1.13-1.08,3.84-2.13,5.37-2.82"/>
    <path d="M128.41,273a20.13,20.13,0,0,1,7.85-3.48"/>
    <path d="M129.33,277.82a9.8,9.8,0,0,1,4.95-2.41"/>
    <path d="M274.05,282.89a29.06,29.06,0,0,0,7.49,4.81"/>
    <path d="M273.25,277.19c3.43,2.15,8.62,5.46,11.41,6.34"/>
    <path d="M275.25,272.44a68.39,68.39,0,0,0,5.88,3.76"/>
    <path d="M287.32,275.39a6.42,6.42,0,0,0-.92-.72"/>
    <path d="M238.16,55.91c-.53,4,.9,8.73-.47,17.15"/>
    <path d="M180.09,56.82c.14,4.88-.94,9.47-.09,16.6"/>
    <path d="M96.3,57.39c-.52,4-.17,9.34-1.53,17.76"/>
    <path d="M37.05,57.4c.52,4.41.32,10.47,1.41,17.85"/>
  </g>
  <g class="skinFoldLine">
    <path d="M159.13,281.39c1.6.78,5.18,3.74,5.18,5.69"/>
    <path d="M250.45,281c-2.36-.47-5.94,0-7.54,1.34"/>
    <path d="M281.76,283.42a3.68,3.68,0,0,1-1.55,2.26"/>
    <path d="M279,288a2.94,2.94,0,0,1-1.3,1.8"/>
    <path d="M278.49,226.84a3,3,0,0,0-1.77,3.42"/>
    <path d="M239.2,56.91c3.28-5.79,4.1,1.69,2.77,6.12"/>
    <path d="M238.29,66.82c2.19,1.33,1.68-3.17,2-4.11,1.33-3.68-.11-3.58-.8-3"/>
    <path d="M178.4,56c-2.28-4.26-4.92,2.46-2.34,8.35"/>
    <path d="M179.69,68.05c-2.54-.46-1.73-2.71-2.14-3.62-1.79-4-.21-5.49.6-4.37"/>
    <path d="M96.88,58.4c3.68-6.19,5.07,1.1,2.86,6.62"/>
    <path d="M96.37,67.47c2.2,1.32,1.28-2.56,1.79-3.42,2-3.28.81-4.17,0-4.13"/>
    <path d="M37,58.4c-3.7-5.41-6.1,1.74-3.52,7.64"/>
    <path d="M37.4,68.69c-2.54-.45-1.72-2.36-2.13-3.27-1.8-4-.22-5.5.6-4.37"/>
    <path d="M185,207.1c-3.56-6.87-10.41.17-3.58,6.29"/>
    <path d="M184.36,208.77c-1.55,1.45,2.93,3.81,1.64,4.81-.9.69-1.61-1.46-2.85-2.05-2.32-1.12-2.56-4.37,0-3.78"/>
    <path d="M314.76,86.19c-1-7.15-4.65,1.19-1.48,7.47"/>
    <path d="M315.64,95.84c-.78.18-.57-2-1.08-3.17-.95-2.12-.74-7,.6-5.23.75,1.47-.15,3.47,1,5.11"/>
  </g>
  <g class="skinEdgeLine">
    <path d="M398.15,293.08a4.29,4.29,0,0,1-2.73,0"/>
    <path d="M393.21,292.89a4.34,4.34,0,0,1-2.87-.23"/>
    <path d="M401.87,283.05c-1.08,1-2.07-.09-3,.62s-2.6-.07-3.92.51c-1.09.48-2.72-.25-3.71-.21"/>
  </g>
  <g class="skinCreaseLine">
    <path d="M226.12,395.31a16.54,16.54,0,0,1-9.47-.12"/>
    <path d="M197.71,395.31c-3.05.91-7.45.91-10.07-.24"/>
    <path d="M263.42,222.86a8.22,8.22,0,0,0,4.12,8"/>
    <path d="M383.34,209.77c2.75-.3,5.29-1.92,9.6-1.7"/>
    <path d="M300,208.91c2.12-.07,4.66,1.34,6.79,1.92"/>
  </g>
  <g class="lipMaleMedium__noStroke">
    <path d="M214.06,214.09a6.66,6.66,0,0,0,5.18-.09c1.51.59.73,2.54,3.18,4.54-1.42,1.34.42,5-6,5.81s-5.72-3.71-8.36-4.89C211.47,217.53,211.8,215.2,214.06,214.09Z"/>
    <path d="M206.58,78.05A7.32,7.32,0,0,0,212,78c1.73.5,3.74,2.62,6.64,2.85-3,3.12-2.21,9.76-9.68,9.89s-6.2-7.35-9.35-9.66C203.34,80.53,204.63,78.27,206.58,78.05Z"/>
    <path d="M64.2,79.43a7.29,7.29,0,0,0,5.38,0c2.12.38,4.86,2.25,6.65,2.54-3,3.12-3.44,7.28-9.43,7.44-7.06.2-6-4.85-9.6-7.2C60.32,81.4,62.11,79.33,64.2,79.43Z"/>
  </g>
  <g class="mouthInner">
    <path d="M221.56,218.47a4.77,4.77,0,0,1-1.16-.79h0a7.14,7.14,0,0,1-1.57.76,2.84,2.84,0,0,1,.83,1.19l-.12.08A7.1,7.1,0,0,1,221.56,218.47Z"/>
    <path d="M217.26,81.08a17.84,17.84,0,0,1-3.52-1.3c-2.93-1.26-4.08.92-4.91.42-3.59-2.14-4.78.81-8.17,1C206.51,88.57,211.81,88.35,217.26,81.08Z"/>
    <path d="M74.29,81.64c-3.37,2.68-11.73,2.75-15,.17a7.49,7.49,0,0,1-.9.24c6.23,4.55,11.71,4.38,16.53-.13Z"/>
    <path d="M352.89,108.09l-18.06,0h0l-.51.16c3.8,6.78,16.07,5.91,19,0Z"/>
  </g>
  <path class="tongue" d="M218.22,218a18.72,18.72,0,0,0-6.39-.22,7,7,0,0,1-2.7,1.58c2.15.81,3.14,1.79,7.4,1.47a5.43,5.43,0,0,0,3.13-1.18A3.34,3.34,0,0,0,218.22,218Z"/>
  <g class="teeth">
    <path d="M220.4,217.69c-.81-.69-1.58-1.45-2.59-1.1s-1.58.19-3-.23-2.36,1-3.84,2.06C214,219.35,217.92,219.32,220.4,217.69Z"/>
    <path d="M216.11,80.75a21.3,21.3,0,0,1-2.37-1c-2.93-1.26-4.08.92-4.91.42-3.15-1.87-4.45.15-7,.82C205.29,83.2,212.73,83.1,216.11,80.75Z"/>
    <path d="M74.29,81.64c-4.71-1.5-6.74.43-7.84.06a11.14,11.14,0,0,0-7.19.11C62.56,84.39,70.92,84.32,74.29,81.64Z"/>
    <path d="M352.89,108.09c-1-.26-2.13-.94-3.06-1.14-2.23-.48-3.92,1.36-9.61-.07-2.14-.54-3.36.49-5.39,1.17C338.68,112.46,349.15,112,352.89,108.09Z"/>
  </g>
  <g class="lipOverlapLine">
    <path d="M209.13,219.35a3.45,3.45,0,0,1-1.49,0"/>
    <path d="M222.74,218.4a1.42,1.42,0,0,1-1.18.07"/>
    <path d="M217.81,216.59a2.5,2.5,0,0,0,1.17-.81"/>
    <path d="M199.54,80.92a1.86,1.86,0,0,0,1.12.29"/>
    <path d="M219,80.79a2.37,2.37,0,0,1-1.69.29"/>
    <path d="M56.45,82.05a4.4,4.4,0,0,0,1.91,0"/>
    <path d="M76.91,81.61a2.32,2.32,0,0,1-2,.31"/>
  </g>
  <g class="lipEdgeLine">
    <path d="M219.24,214a6.66,6.66,0,0,1-5.18.09"/>
    <path d="M221.22,221.51c-1.13,3-7.37,3.7-9.23,2"/>
    <path d="M214.63,88.16c-3.35,3.66-8.87,3.06-11,.24"/>
    <path d="M212,78a7.32,7.32,0,0,1-5.39,0"/>
    <path d="M69.58,79.39a7.29,7.29,0,0,1-5.38,0"/>
    <path d="M72.49,87.08A8.4,8.4,0,0,1,60.7,87"/>
    <path d="M336.19,113.6c3.8,3.9,11.5,3.77,15.19-.59"/>
  </g>
  <g class="cheekLine">
    <path d="M215.35,69c1.46,2,4.23,3.91,5,6.85"/>
    <path d="M202.29,69c-1.47,1.69-3.8,4.11-4.12,6.18"/>
    <path d="M73.55,69.72a14.1,14.1,0,0,1,4.33,6.9"/>
    <path d="M60.48,69.9c-1.76,1-3.8,3.64-4.94,6.6"/>
    <path d="M350.34,97.21c2.52,1.7,1.66,3.59,3.49,6.38,1.4,2.13,2.68,2.55,2.42,6"/>
    <path d="M337.35,97.15c-2.46,1.32-2.23,4-3.8,6.17S331,106.54,331,109.1"/>
  </g>
  <g class="noseLine">
    <path d="M219.92,205.17c.27,1.93,3.12,2.74,1.21,5.27"/>
    <path d="M210.11,207.27c-.85.46-1.58,3.13.38,3.82"/>
    <path d="M218.23,210.66c1-.43,1.28-1.22,2.3-1.21"/>
    <path d="M211.79,210.31c1.57-.89,2.31-.18,3.42.35"/>
    <path d="M214.8,67c0,2.71,2.7,3.68.46,5.77"/>
    <path d="M202.78,67.13c.06,2.47-2.47,3-.57,5.4"/>
    <path d="M204.07,72.57c1.84,0,1.48,1.07,4.71,1.16,3,.08,3.05-1.25,4.65-1.25"/>
    <path d="M73.55,69.72c2.18,2.28.33,4.21-.25,4.43"/>
    <path d="M60.48,69.9a2.47,2.47,0,0,0-.13,4"/>
    <path d="M62,73.54c1.43,0,1.54,1.54,4.44,1.61,3.52.09,3.28-1.75,5.11-1.75"/>
    <path d="M337.35,97.15c-1.6,2.24-.29,4.27,1.74,4.54,1.7.23,1.85,1.73,4.88,1.71,2.67,0,3-1.45,4.85-1.66s3.7-1.94,1.52-4.53"/>
  </g>
  <g class="eyeFoldLine">
    <path d="M227.14,201.21a4.69,4.69,0,0,1-4.67.36"/>
    <path d="M207.4,202.21c-1.07.84-4.18,1.52-6,.54"/>
    <path d="M226.64,58.2c-2.53,1.32-5.92,1.2-7.65,0"/>
    <path d="M198.76,58.22c-2.07,1.38-5.81,1.32-7.59-.18"/>
    <path d="M84.46,59.09a7.77,7.77,0,0,1-7.91.18"/>
    <path d="M57.45,58.91c-1.69,1.73-6.16,1.94-8.67-.29"/>
    <path d="M362.78,86.62c-2.09,2.57-7.19,1.4-9.15.68"/>
    <path d="M334.89,87.28c-1.44.11-7.18,2.68-10.16-.07"/>
  </g>
  <g class="eyeCornerLine">
    <path d="M228.69,197.42a3.75,3.75,0,0,0,1,.4"/>
    <path d="M196.15,200.87a5.13,5.13,0,0,0,2.67-1.14"/>
    <path d="M189.37,55.67a10.24,10.24,0,0,1-2,1.11"/>
    <path d="M228.4,55.29a12,12,0,0,1,2.26,1.37"/>
    <path d="M47.11,55.28a5.68,5.68,0,0,1-1.92,1.12"/>
    <path d="M86.69,55.63a6.32,6.32,0,0,0,2,.85"/>
    <path d="M324,84.19a3.83,3.83,0,0,1-2.24.24"/>
    <path d="M365.66,84.29a2,2,0,0,1-2.09-.07"/>
  </g>
  <g class="eyeCreaseLine">
    <path d="M189.9,53.91c3.22-3.45,8.11-2.82,10.92-.59"/>
    <path d="M47.34,53.61c3.37-3.41,8.09-3.24,10.72-.86"/>
    <path d="M350.79,83a8,8,0,0,1,12.08-.34"/>
    <path d="M324.28,82.68c4.52-4.43,9.54-2.7,11.79-.33"/>
  </g>
  <g class="eyebrowBlack">
    <path d="M194.91,195.56c6-7,10.22-3.92,15.39-4.77C207.65,194.58,201.24,191.14,194.91,195.56Z"/>
    <path d="M231.05,191.28c-4.37-3.86-11.07-.84-12.79-1.38,2,3.24,7.51-.62,12.88,2.93C231.13,192.34,231.11,191.83,231.05,191.28Z"/>
    <path d="M213.65,45.34c3.91,4.76,12.95-.79,18.57,3.2C227.74,42.13,220.41,46.76,213.65,45.34Z"/>
    <path d="M204.62,45.05c-3.28,4.8-12.45-1-18.22,3.17C190.34,41.37,197.24,46.3,204.62,45.05Z"/>
    <path d="M72.34,46c3.87,4.59,12.18.23,17.42,3.88C85.78,43.92,79.61,47.51,72.34,46Z"/>
    <path d="M62.45,46.1c-3.46,4.47-13.25.06-18.31,3.48C48.7,43.26,55.18,47.6,62.45,46.1Z"/>
    <path d="M320.7,77.19c5.05-3.15,13.61-3.59,17.17-1.14,1,.66-1.85,1.78-3.05,1.29C329.58,75.22,325.65,75.15,320.7,77.19Z"/>
    <path d="M367.28,77.63C361.93,73.32,353.45,74,350.19,76c-1,.6,2.2,1.92,3.37,1.36C359,74.75,361.86,75.13,367.28,77.63Z"/>
  </g>
  <g class="hairBlack">
    <path d="M183.62,226.21c1.39-2-.59-4.62-4.25-7.7-6.07-5.12-15.13-23-7.56-39.34l-6.66,6.57c5.33-25.47,38.59-27.3,42.35-26.58-1-5.11-7.22-12-14.2-12.33,8.49-1.69,17.92,6.21,19.76,12.26,2.88-4.57,13.78-5,16.85-.64-3-1.64-11-1-11.47,2.43,13,4.07,16.07,14,23.42,18.39-3.14.36-6.86-1.36-9.13-3.28,4.71,7.1,3.28,13.66,2.39,15.6-2.79-7.53-10.87-4.17-10.61-16.7-1.06,12.68-10.14,16-13.52,17.18,4.31-2.86,6.21-9.49,6-12.55-2.44,7.2-13.93,14.55-24.5,15.62a11.31,11.31,0,0,0-.86-10.13,23.37,23.37,0,0,1-4.55,15.67,28,28,0,0,0,2.35,11.64c-3.64-3.49-3.66-9.45-4.33-9.14a25.6,25.6,0,0,1-8.16,6.38c.5,2.33,2.31,4.17,4.66,6s3.22,4.3,7.51,2.49a11.91,11.91,0,0,0,2.87,5.76A7.57,7.57,0,0,1,183.62,226.21Z"/>
    <path d="M175.41,51.15c-4.26-23.09,2.43-33.38,13-41.25-1.76-1.3-3.54-1.77-6.13-.13,2.81-3.65,6.2-3,8.74-1.37.76-4.26,4.69-6.68,9.78-7.3-3.09,1.41-5.64,2.87-6.06,6.26A41.84,41.84,0,0,1,231.17,12c8.48,5.81,15,20.05,11.32,39.29-4.56-.87-1.56,4.77-4.33,4.58-.66-2.25.2-9.2-2.13-12.45-4.71-2.37-10.81-1.74-16.34-4.75.6,1.33,2.64,1.63,3.18,3.43-6.18-3-14.89-2.76-20.9-8,.54,1.2,2.83,2.46,2.77,3.84-5.11-3.72-13.82-4.44-13.35-16.38.18,6.66-.53,9-2.32,11.84.05-1.54.13-2.81.09-4a23.21,23.21,0,0,1-6.62,11c-.83,5.55-2.54,6.35-2.45,16.36C177.65,56.93,179.25,49.53,175.41,51.15Z"/>
    <path d="M33,52.56c-4.59-22.69,2.78-34.25,13.58-42.37-2.15-1.15-4-.69-6.6,1,2.81-3.65,5.69-4.26,9.17-2.74,1.23-4.45,4-7.34,9.09-8-3.1,1.41-5.53,3.73-6,7.12,12.19-4.41,26.1-2.76,35.91,4C96.71,17.35,105.42,32.89,100,52.3c-2.32.1-1.46,5.35-3.74,5.09-.65-2.24.34-8.06-2-11.3-5.88-4.8-14.56-1.06-20.47-5.38.79.92,2.82,2.2,4.06,4-5.63-3.24-10,2.29-18.85-4.54,1.65,1.37,1.78,3.34,2.4,5C56.32,41,50.88,41.23,49.71,29c1.3,15-5.15,14.33-7.53,18.88-.23-1.81.91-4,1.15-5.79A12.66,12.66,0,0,1,38.85,47a30,30,0,0,0-1.8,10.44C34.34,56.82,35.63,51.59,33,52.56Z"/>
    <path d="M386.3,75c0-14.2-8.39-19.08-13.68-26.33-7-9.53-28-16.33-40.07-7.62-8-4.15-20.85,9-24.14,16.12-2.78,6-8.64,10.26-9,24.46-.24,11-4.7,21.14,2.24,38.55,1.49,3.73,3.94,4.25,4.05.21C312.66,132,324,132.39,317,124c4.27,2.4,7.44,3.58,9.72,4a5.48,5.48,0,0,1,2.49-1.85,33.21,33.21,0,0,0,.43-4.66c-8.31-5.35-12.87-11.08-13-19.64-3.83.92-3.16-3.31-4.29-5.77-5-10.89-.28-19.51,2.49-15.12.5,1,.1,4.63,1.69,4.17-.15-5.22-.21-9.62,2.2-13.58a8.15,8.15,0,0,0,2.79-1.36C315.15,75.29,331.73,74,333,64c0,7.67,9.82,13,7.42,6.17,10.58,4.92,21.05,3.37,15.74.13a45.18,45.18,0,0,0,12.58,2.26c2.52,11.21,1.49,23.8-1,31-1.4,4.09.62,5,3.24.72-4.39,13.7-13.93,23.39-15,25.39-1.53,2.78,4.25,3.79,12.18-2.75-2,6.59,7.8.12,12.25-7.81-.62,4.79,2.21,3.32,5.73-1.66C397.42,101.32,386.3,84.05,386.3,75Z"/>
  </g>
  <g class="stubbleBlack">
    <path d="M219.76,97.64c-5.38,1.06-6.18-.65-10.57-.67-4.22,0-6.11,1.79-10.41.89C203.65,101.73,214.09,102.06,219.76,97.64Z"/>
    <path d="M220.71,80.69c-1.7-5.21-4.16-6.94-11.93-6.81-6.75.12-9.24,1.51-11.66,7.21,9-2.23,8.2-3.66,9.09-3.76a6,6,0,0,0,5.54.08C212.92,77.63,214.89,79.4,220.71,80.69Z"/>
  </g>
  <g class="hairOverlapLine">
    <path d="M187.12,200.68a12.67,12.67,0,0,1-2,2.5"/>
    <path d="M177,209.56a7.81,7.81,0,0,1-2.45.52,41.71,41.71,0,0,0,7.73-8.46"/>
    <path d="M236,43.46a30.12,30.12,0,0,1,3.9,2.22c-.13-1-1.44-2.76-2.7-3.9"/>
    <path d="M182.54,40.46a12.49,12.49,0,0,1-3.6,3,21.49,21.49,0,0,0,2.19-4"/>
    <path d="M94.31,46.09c.79.35,2.65,2,3.31,2.1a13.06,13.06,0,0,0-1-3.77"/>
    <path d="M38.85,47a16.22,16.22,0,0,1-3.7,1.56"/>
    <path d="M368.74,72.57c5.55.58,5.15-2.22,1.24-4"/>
    <path d="M318.77,71.52a9.54,9.54,0,0,1-3.87.23"/>
  </g>
</svg>
