<svg viewBox="0 0 2621.66 3036.65">
  <g class="liz">
    <path class="lizJeans" d="M2492.35,1593.59c30.67,162.14,14.24,457.79-26.3,668.13-8.76,39.44,17.53,39.44-1.09,58.06-8.77,25.2,18.62,23,1.09,41.63,7.67,122.7-19.72,251.49-38.34,364.33l-116.13-4.38c-6.57-124.89-41.41-266.1-32.86-354.47,2.75-28.49-5.93-38.16-6.57-93.12-.42-35.51-33-110.67-31.77-397.54-12.1,276.64-33.71,369.59-31.77,400.83,2.22,36-8.87,64.78-5.48,94.21,12.07,104.93-27.27,230-34,350.09l-119.42,2.19c-10.19-120.24-37.32-264.34-30.67-361.85-15.59-13.84,4.92-19.6-2.19-45.21-22.62-8.2,6-21.66-8.77-83.25-41.9-174.36-65.73-473.13-25.19-638.55Z"/>
    <g class="lizJeansCuff">
      <path d="M2430.22,2710.76c11.07,4.86,6.11,46.38-2.8,45.84-16.69,37.42-101.11,49.88-126.81,1.25-11.69-6.85-4.45-52.68,9.74-55.88C2323.09,2716.43,2416.36,2722.06,2430.22,2710.76Z"/>
      <path d="M2170.2,2706c11.15.2,10.31,51.6-.84,51.41-1.45,41.26-108.8,33.43-120.35-.77-9,.09-9.46-46.52-.47-46.61C2067.4,2722.06,2157.05,2718.84,2170.2,2706Z"/>
    </g>
    <g class="soleLightTan">
      <path d="M2463.11,2983.84c-1.22,9.91-3.81,21-9,24.89-32.31,24.36-125,23-146.7,3.66-4.46-4-17.66-12.52-19.32-28.43-4.16-.06-8.38-1.27-9.22-5.05-2.36-10.52-3.94-48.59-3.28-73.5Z"/>
      <path d="M2002.31,2983.84c1.23,9.91,3.81,21,9,24.89,32.3,24.36,125,21.06,146.69,1.66,13.88-12.42,11.83-16.81,17.32-26.43,4.16-.06,10.38-1.27,11.23-5.05,2.35-10.52,3.94-48.59,3.27-73.5Z"/>
    </g>
    <g class="lizShoe">
      <path d="M2427.42,2756.6c-4.18,30.11-4,63.44.91,86.32,6.06,28.49,7.61,55.43,18.48,75,10.17,18.32,23.19,39.75,16.3,65.93-24.58,26-160.29,42.8-171.84-17.08-5.35-27.77-16-40.56-15.65-61.35.81-43.53,31.25-77.85,25-147.56,4.67,4.89,7.53,3.54,7.53,3.54C2314.34,2740.57,2369.7,2794.16,2427.42,2756.6Z"/>
      <path d="M2049,2756.6c4.18,30.11-3.05,63.09-12.73,87.31-10.81,27.05-10.17,59.47-21,79-10.17,18.32-20.52,38.2-12.93,60.9,24.58,26,161.37,38.57,166.84-17.08,3.37-34.36,21-40.56,20.65-61.35-.81-43.53-26.7-78.33-20.44-148-3.68,8.1-6.41,9.19-11.69,10.11C2151,2746.42,2089.2,2788.88,2049,2756.6Z"/>
    </g>
    <path class="lizShirt" d="M2365.23,866.66c89.84,46.2,200.59,39.13,226.81,183.55-28.81,16.86-96.17,44.06-126.09,53-6.82,13.65,32.59,45.67,11,113.8-5,15.67,17.48,33.39-10.16,50.77-2.1,14.1,6.52,37.49-6.77,54.65-5.8,10.55,17.6,30.26-5.32,68.67,11.22,15.77,15.15,44.08,14.3,73.65-.62,21.55,24,84.35,29.56,144.08-75.51,37-157,60.67-243.83,72.65-8.06-27.68-13.77-62.26-18.47-102.21-1.53,34.44-5,67.22-12.93,96-85.59,1.85-177.33-53-250.6-59.11,31.4-114.52,14.7-156.24,36.33-180.4-10.57-18.3-10.42-37.21-1.23-56.65-13.55-31.4,10.46-61.57-7.39-128.07-25.25-43.71-22.78-96.67,0-143.87-40.24-12.94-112.76-46.63-122.47-57.64,46.47-141.5,106.38-129.28,222.8-181.17"/>
    <path class="lizShirtCollar" d="M2366.7,863c13.56,18.59-11.06,66.38-31.57,106.13-12.06-24.92-27.67-63.79-40.76-70.65l-125.89-.91c-17.74-9.23-34.27,39-53.44,63.41-12.91-35.33-24-89.08-19-95.86,15.22-20.93,26.64-46.21,44.38-48.16H2327C2345.19,813.5,2346.49,835.22,2366.7,863Z"/>
    <circle class="hairBlackDark" cx="2318.29" cy="760.62" r="74.13"/>
  </g>
  <g class="oldBennett">
    <g class="soleTan">
      <path d="M1619.71,2982.48c2.88,4.49,1.57,12.77-2,15.32-40.81,28.76-151.71,34.35-180.5-7.68-10.37-12.1-29.31-10.07-34.55-22.16-1.85-4.25-3.57-12.15-.58-16Z"/>
      <path d="M1297.54,2943.14c4.09,6.59,3.49,14.87,1,18.77-9.8,15.36-18.45,5-28.41,22.4-30.8,53.78-161.73,47.56-189.31,12.25-4.89-6.26-7.77-13-3.89-17.11Z"/>
    </g>
    <g class="oldBennettShoe">
      <path d="M1414.44,2804.54C1403,2845.25,1384.77,2903,1402,2952c6,17,31.31,15.29,42.46,29.52,33.48,42.72,163.78,21.41,175.21,1,48.07-85.82-57-65.34-80.49-168.85Z"/>
      <path d="M1278.78,2806.91c17,44,30.65,87.5,18.76,136.23-5.06,20.76-23.41,11.47-29.94,28.09-20.69,52.65-168,45.32-190.67,8.22-16.78-27.49.08-49.59,21.76-68,23-19.51,15.92-56.81,53.35-96.93Z"/>
    </g>
    <g class="clothingBrass">
      <path d="M1575,2878.51a133.85,133.85,0,0,1-15.68-18.42c-34.88-5.69-72.87-2.51-100.46,10.9l13.54,19C1500.71,2876.73,1538.55,2873.8,1575,2878.51Z"/>
      <path d="M1121.39,2866.65c-2.44,6.83-4.48,13.28-6.69,19.22,25.87-5.09,62.48-5.12,91.6,7.09l18.1-17.59C1192.47,2860.32,1143.7,2859.92,1121.39,2866.65Z"/>
    </g>
    <path class="oldBennettPants" d="M1596.67,1412.27c12.75,90.87,33.34,196,28.7,285.34-10.69,205.82-12.76,390.54-36.67,527.63-5.78,33.12-8,388.94-25.5,599.35-23.67,11.14-45.91,17.25-67,19.13-33.48-1.28-65.21-3.69-94-8l-59-663.12c-22.32,227.95-27.1,546.76-35.07,647.18-34,13.61-66.56,22.73-97.23,25.51-35.22-3-67.14-9.65-87.68-15.76-11.16-201-32.31-416.85-27.1-539-16-38.4-12.16-106.41-20.72-172.16-24.5-188.13-12.75-455.89,6.38-701.37Z"/>
    <g class="oldBennettVest">
      <path d="M1199.53,687.61c9,152.12,123,352.47,168.34,368.36v390c2.07,7.1-86.25,79-90.89,79.73-6.72,1.09-188.82-68.27-185.49-88.85-1.32-23.75,11.2-229.24-.42-431.13,30.17-105.49,18-239.25,20-286.74C1109.2,714.41,1169.23,700.44,1199.53,687.61Z"/>
      <path d="M1502.11,692c.61-3.25,95.87,24.69,97.32,32-4.1,120.73-12.6,225,16,300.66-27.71,292.21-3.44,390.18-8.72,392.16,3.51,7.26-183.41,99.16-194.63,95.86-8.44-2.48-79.15-55.69-79.15-63.6l-2.64-383.54C1416.42,1011.53,1475.49,861.06,1502.11,692Z"/>
      <path d="M1573.57,1279.38c4.66,0,4.66,31.2,0,31.2-38.18,5.65-84.42,20.47-124.36,19.78-4.5.05-4.91-32.44-.42-32.5C1493,1297.16,1534.68,1283.74,1573.57,1279.38Z"/>
    </g>
  </g>
  <g class="eye">
    <g class="sclera">
      <circle cx="431.42" cy="361.97" r="154.3"/>
      <circle cx="1354.53" cy="364.94" r="160.24"/>
      <circle cx="1378.08" cy="1281.88" r="115.56"/>
      <circle cx="2231.69" cy="470.52" r="152.96"/>
    </g>
    <g class="irisDarkBrown">
      <circle cx="1444.03" cy="356.2" r="22.5"/>
      <circle cx="1267.67" cy="356.2" r="22.5"/>
      <circle cx="519.13" cy="355.14" r="22.5"/>
      <circle cx="345.27" cy="355.14" r="22.5"/>
      <ellipse cx="1322.06" cy="1292.29" rx="19.06" ry="19.56" transform="translate(-68.96 74.53) rotate(-3.15)"/>
      <ellipse cx="1455.79" cy="1282.94" rx="17.8" ry="19.56" transform="translate(-68.24 81.86) rotate(-3.15)"/>
      <circle cx="2317.89" cy="543.12" r="21.6"/>
      <circle cx="2147.15" cy="543.6" r="21.6"/>
    </g>
    <g class="pupil">
      <circle cx="1444.03" cy="356.2" r="8.75"/>
      <circle cx="1267.67" cy="356.2" r="8.75"/>
      <circle cx="519.13" cy="355.14" r="8.75"/>
      <circle cx="345.27" cy="355.14" r="8.75"/>
      <ellipse cx="1322.01" cy="1291.36" rx="7.41" ry="7.61" transform="translate(-68.9 74.53) rotate(-3.15)"/>
      <ellipse cx="1455.74" cy="1282" rx="6.92" ry="7.61" transform="translate(-68.19 81.86) rotate(-3.15)"/>
      <circle cx="2317.89" cy="543.12" r="8.4"/>
      <circle cx="2147.15" cy="543.6" r="8.4"/>
    </g>
  </g>
  <g class="skinIndian">
    <path d="M2356.53,701.4C2335.15,730.81,2319.11,803,2338.75,835c2.33,28.66-17.82,45.26-44.38,63.4-15.39,10.51-37.13,65.21-63.4,94.2-20.83-45.29-43.52-85.45-62.49-95.11-23.66-12-37.95-30.09-38.05-59.21,12.25-20.62,13.58-99.48-3.79-126.21"/>
    <path d="M1794.76,1638.32c23.13-87.1,46.59-207.83,76.7-318.79,12.07-44.46,8.59-174.76,22.69-258.91,26,14.74,75.59,36.72,106.31,46.6-22.82,47.2-25.29,100.16,0,143.87,1.71,6.38,3,12.42,4,18.17-6.53,37.34-11.28,70.86-13.21,98.34,8.39,111.41-85.93,188.92-128.58,287.3-8.44,33,17.65,35.29,3.07,91.3-7.34,28.19,11.51,50.64-21.07,129.77,2.73,11.37,2.08,21.41-10.88,26.61-2.13,9-12.7,18.14-24.8,9.07-8.1,8.75-26-18.75-40.52-30.84-13-10.34-21.52-73.57-17.81-115C1754.57,1741.1,1788.81,1660.69,1794.76,1638.32Z"/>
    <path d="M2503.26,1712.5c12.21-138.88-31.29-225.86-15.26-351.76-2.05-27.35-10.84-62.65-13.74-98.79,15.47-15.48-1.75-31,2.67-44.94,21.61-68.13-17.8-100.15-11-113.8,26.83-8,83.74-30.71,116-47.47,15.11,84.87,14.4,201.18,29.68,277.53,25.65,128.14-9.88,236.58-24.22,367.08-3.27,32.71,30.53,63.23,26.62,131.36-3.18,61.06-7,64.87-24.44,72-17.4,17.52-50.69,40.34-62.68,31.07-13,8.5-20.72,1.09-32.16,6-18.54,4.9-7.63-31.62,14.17-29.44,19.08-16.9,17.44-24.53,17.58-49.63.13-24-13.22-31.59-18.67-56.12-1.64,23.44-9.27,29.89-8.72,40.25,6.54,40.33-30,51-31.07,28.71,3.27-20.17-1.64-29.71,2.09-50.88C2472.83,1739.14,2502.9,1730.88,2503.26,1712.5Z"/>
    <path d="M2415.47,682.38c-43.07,80.38-62.15,92.77-122.25,124.48-18.95,10-28.15,20.48-62.16,20.08-36.89-.44-46.62-16.36-70.86-27C1705.69,543.52,2424.74-165.41,2415.47,682.38Zm-130.61-129.6c6.91.74,20.79,3.87,34.19,3.65,13.15-.22,27.89-5.39,40.63-10.79-12-8.63-23.72-16.28-43-16.28-11.64,0-31.33,6.93-41.73,20.73C2271.18,555,2282,552.48,2284.86,552.78Zm-97.68-4.34c-15-14.71-26-20.93-44.29-19.26-17.07,1.55-30.81,12-40.35,16.25,13.7,5.28,23.26,10.71,38.9,11.44,16.45.76,25.3-5.1,35.33-4.81C2179.63,552.14,2192.07,553.24,2187.18,548.44Z"/>
  </g>
  <g class="oldBennettShirt">
    <path d="M1791.54,1353.46c8.73-16.39,5.15-39.09-5.69-65.51,4.33-17.88,2.28-35.61-6.65-53.17,8-28.66,1.59-53.08-13.29-75,3.51-18.57,9-38.44-5.7-45.57.87-32.09-6.28-68.27-19-107.28-11.16-45.74-6.09-85.6-16.14-128.17-3.93-16.66-1.7-34.35-9.11-51.3C1700.13,765.27,1651.44,748,1599.36,726c-4.13,119.86-12.37,223.36,16.05,298.62-5.72,60.25-9.22,112.23-11.23,156.83,9.1,15.23,20.43,26.11,24.11,39.21-7.92,17.23-10.26,27.47,3.11,37.07-9.84,22.32-7.7,40.83,8.24,54.92-9.34,17.42-3.53,34,7.59,50.32C1621,1486.85,1833.49,1450.79,1791.54,1353.46Z"/>
    <path d="M1354.2,1047.45c72.5-64.21,122.86-199.91,147.21-351.08-65.42-9.13-102.43,12.51-147.34,27.26-74.35-35-110.33-41-154.23-31.54C1209.77,830,1303.58,1005.1,1354.2,1047.45Z"/>
    <path d="M920.49,1203.17c-11.19-15.62,2.31-43.76,8.33-74.82,5.35-27.58,2-57.83,12.56-78.35,9.26-76.38,15.15-161.22,36-212.38,28.7-70.38,78.35-96.42,133.63-117.44-1.74,48.49,10,180.91-20,285.54q1.15,20.14,2,40.29c-18.83,101.48-6.39,129.52-37.41,156,1.3,4.66,1.38,8.5-1.39,10.44,30.13,17.49,10.42,47.77,23.65,78.63,12,12.09,15.54,14.7,15.31,30.44,14.51,11.09,17.16,29.23,14.48,50.53,20.3,9.26,22.77,14.92,17.37,40.58,8.61,17.11,7.47,26,4.38,35,9.17,38.44,26.07,50.91,26.28,65.07.28,18.62-86.86,53.54-98.23,38.79-9.66-12.53-4.92-33.77-19.4-60.07-19.69-8.9-31.5-9.46-26.28-29.92-17.34-4.94-27.94-15.64-26.9-36.29-17.81-12.61-26.92-30.72-21.28-58.19-15.91-9.67-26.08-23.31-20-48.18C891.41,1225.21,928,1219.27,920.49,1203.17Z"/>
  </g>
  <g class="oldBennettCollar">
    <path d="M1455.57,628.89c16.73-.54,24,39.56,42.18,60.17,10.08,33.81-65.49,77.7-86.55,95-16.78-29.73-22.11-72.46-40.81-66.22C1381.42,704.44,1457.11,692.91,1455.57,628.89Z"/>
    <path d="M1252.05,630.81c-1.37,49.62,63.53,67.16,83.66,84.43-23-7.2-24.33,46.47-43.51,73.33-34-27.83-80.41-68.1-77.72-106.45C1232.7,656.71,1236.1,625.06,1252.05,630.81Z"/>
  </g>
  <g class="oldBennettBowtie">
    <path d="M1448.77,702c-13.25-9.06-46.55,13.08-71.15,29.93,1.8,7.56,1.14,26.08-1.12,36.11,10.52,5.23,39.3,28.1,71,23.61C1458.74,790.08,1462,711.06,1448.77,702Z"/>
    <path d="M1330.1,731.48c-13-9.19-41.78-33.8-62.51-28.79-19,4.58-18.25,84.06,1.38,91.92,18.89,7.55,48-14.06,63.18-23C1329.25,763.83,1328.34,739.87,1330.1,731.48Z"/>
    <path d="M1333.68,774c-4.6-2.43-6-41.18-2.62-45.15,3.82-4.53,16.36,1.35,22.25,1.35s18.22-5.16,22.9-1.35c4.41,3.59,2.45,43.3-2.65,45.81-5.88,2.88-11.71-2-18.94-2C1348.07,772.67,1340.43,777.58,1333.68,774Z"/>
  </g>
  <g class="sockWhite">
    <path d="M1377.27,2891c3.34-13.15,3.11-19.94,8.77-33.53,18.82,6.79,69.57,8.49,85.69,4,5.69,7.65,0,16.42,3.79,27.81C1487.06,2931.68,1402.13,2925.45,1377.27,2891Z"/>
    <path d="M1291.38,2890.46c-4.2-13.13,3.33-24.87-3.8-31.82-20.42,6.72-77.37,7.55-91.42,2-6.75,7.57,1,18.38-4.79,32.76C1175.07,2930.55,1277.63,2916.5,1291.38,2890.46Z"/>
  </g>
  <g class="soleWhite">
    <path d="M483.08,2944.34c-3.54,12.09-4.69,33.48-.23,38.83,7.84,10.92,34.44,15.39,42.26,20.64,41.62,28,192.41,8.89,206.33-8.72,8.63-27.32-14.81-66.66-33.61-72.35C635.17,2872.28,539.46,2899.68,483.08,2944.34Z"/>
    <path d="M400.71,2941.12c3.54,12.1,4.7,31.48.23,36.83-7.84,10.92-53.53,18.2-62.14,22-65,28.56-207.13,21.85-221,4.24-8.63-27.32,3.33-74.39,52.18-90C252.31,2886.47,344.34,2896.47,400.71,2941.12Z"/>
    <path d="M1547.88,2994.59c6.78,33-62.52,45.44-107.66,37.85-28.5-4.78-73.42-15.94-80.88-26.44-8.11-11.4-6.46-24.33-3.83-36.71C1453,2955,1526.82,2956.77,1547.88,2994.59Z"/>
    <path d="M1307.85,2972.23c2.15,11.65,5,23.74.16,33.25-10.18,19.85-48,27.32-84.52,29.56-63.61,3.89-90.67-10.76-80.6-44Z"/>
  </g>
  <g class="bennett">
    <g class="bennettShoe">
      <path d="M502.56,2765.16c11.17,78.14-13.34,109.41-19.48,179.18,8.19,12.17,20.91,12.26,40.57,18.62,12.84,4.15,16.26,8.95,32.9,12.33,10.18-63.8,102.54-69.07,141.28-52.55-47.82-28.85-73.5-92.9-71.92-173.21C602.07,2703,546.19,2734.75,502.56,2765.16Z"/>
      <path d="M381.23,2761.94c-5.09,78.43,15.62,90.46,19.48,179.18-8.19,12.17-41.15,14.48-60.81,20.84-12.84,4.16-35,11.3-51.61,14.68,6.51-68.08-101.18-68.7-118.36-62.48,39.47-15.41,100.88-82.07,96.41-158.53C290.19,2709.09,337.6,2731.53,381.23,2761.94Z"/>
    </g>
    <g class="shoelace">
      <path d="M630.22,2809c-20.26-3.51-55.49-1.94-72.73,3.21,2.83,30.66,10,62,20.28,93.74,18.76-8.25,65.54-11.08,91.67-7.29C649.91,2876.19,636.61,2845.43,630.22,2809Z"/>
      <path d="M205.16,2891.11c26.71-2,67.94,3.12,86.46,13.21,10.26-31.77,24.52-60.37,27.35-91-10.73-4.44-37.09-8.24-58.46-8.57C250.14,2840.18,227.9,2870.77,205.16,2891.11Z"/>
    </g>
    <g class="converseLogo">
      <path d="M520.21,2925.94c24.12,3.92,25.36-69.7,1.73-74.64S495.51,2921.93,520.21,2925.94Z"/>
      <path d="M357.58,2926.72c-24.11,3.92-25.36-69.7-1.73-74.64S382.28,2922.71,357.58,2926.72Z"/>
    </g>
    <path class="bennettJeans" d="M684.85,1501.79c9.57,20.25,26.22,74,23.58,140,2.59,157.61,2.21,312.25-13.26,417.18-5.75,39,10.1,75.07-12.15,118.93-17.37,34.23,9.68,73.7-5.54,99.25-13,171.66,16.86,263.2-19.17,322.84-17.7,29.3,31.84,49.87-1.47,94.34-20.88,21.12,14.77,53.92-29.21,96.41-1.79-33.32-59.42-33.86-73.52,0-27.08,11.18-35.87,30.95-50,37.73-10.72-36-39-43-14.69-78.32,15.44-22.39-18.84-27.57-3.4-55.08,15.68-27.92-21.14-39.5-10.88-89.06,11.22-54.17-3.59-131.58,4.08-208,4.57-45.54-15.77-93.16-15.77-153.05,0-41.57-8.55-92.68-8.55-161.12,0-47.82-14.26-161.13-17.11-258.09-5.19,139.41-19.51,263.69-15.07,323.9,4.65,63.12-18,147.33-12.08,216.35,6.11,71.66-3.93,132.91-6.59,222.93-1.37,46.22,15.88,94.78-11,135.07-13.18,19.77,26.27,53.54,6.59,79.07-13.31,17.27,6.59,23.06-11.69,46.17-21.26-16.52-39.72-40.55-63.89-44.55,4.93-35.26-50.26-55.73-66.31,8.59-45.8-44.47-5.08-75.22-18.11-90.23-48.17-55.5-8.62-233-23.15-371-4.44-42.2-12.78-78.43-3.63-108.06-36.32-100.78-17.44-96.91-23.61-128-33.44-168.62-29.37-329.35-28.15-476.69.54-65.48,20-99.88,21.79-142.56Z"/>
    <path class="bennettSleeves" d="M545.29,678.31c32.53,1.43,64.23,23.33,97.29,33.79,44.31,14,86.47,23,114.21,43.15,57.07,41.45,71.06,236,64.07,373.83,2.27,32.63,22.19,60,6.3,82.55,21,.81,1.19,31,27.88,88.67,5.81,14.15-141.85,36.76-143.95,24.32-11-11,.86-42.32-24.87-57.46L183.93,1165.35c2.3,17.68-10.87,37.43-18.49,45.89-9.94,11,9.31,17.76-7.8,39.07,14.55,18.25-8.27,42.83-5.3,69.51.3,5-140.39,11.19-144.19,5.67-8.23-19.39,4.22-33.59,4.41-49C-3.31,1269.79-2,1239.42,11.47,1218c-5.07-61.79,15.78-102.08,18.33-168.29,3.49-90.81,10.31-171.53,32.43-231.86,37.6-102.54,166.18-108.08,260.43-146Z"/>
    <path class="shirtWhite" d="M566.82,738c-54.19,73-222.07,73-268.75.94-46.19,19.41-117.63,71.2-140.85,112.28-.89,24.11,11.12,31.55,17.86,42.86,4.53,7.61-8,10.72,8,20.54-10.72,86.62-4.47,229.5-4.47,304.51,0,18.47-18.86,19.68,0,41.08,11.61,158-29.46,139.3-1.78,168.77,0,19.64-18.51,28.43,2.68,50.9-9.61,12.17-1.79,31.25-5.36,47.33,88.4,24.11,160.75,71.43,254.5,73.22,140.2,2.68,171.45-47.33,268.79-84.83-5.36-9.82-2.84-19.65-6.26-31.26,18-30.72-6.25-42.86-1.78-80.36,14.46-23.83-5.36-36.62-.89-68.76,13.39-27.69,3.12-37.33,3.57-56.26.51-21.88,6.19-44.53-3.57-66.08-3.58-54.47,6.3-97.56,4.46-140.2-2.66-61.54,5.36-115.19-4.46-175,13.31-4.59,10.71-29.47,15.18-47.33C672.13,798.66,620.68,769.94,566.82,738Z"/>
  </g>
  <g class="christopher">
    <g class="christopherShoe">
      <path d="M1404.92,2909.28c10.93-20.45,58.11-26.16,67.44-5.42,2.08-4.15,2.11-8.6,3.16-14.58,25.36,85.61,74.38,51.35,72.36,105.31-28.33-20.73-80.7-10.88-107.66,17.06-36.19-2.28-65.29-15.12-84.71-42.36,1.75-17.21,1.75-65.43,21.76-78.25C1388.78,2891.59,1401,2900.06,1404.92,2909.28Z"/>
      <path d="M1266.53,2904.9c6.58-7.58,15.42-14.78,24.85-14.44,12.15,14.58,11.44,59,16.47,81.77-11.63,19-30.15,31.71-59,40.83-12.45-28.93-79-30.27-97.48-8.47-17.27-10.07-5.74-26.91,12.36-45.3,18.22-15.56,12.32-48.77,27.65-65.89l1.76,11.76C1210.65,2883.15,1254.6,2884.68,1266.53,2904.9Z"/>
    </g>
    <g class="christopherStrap">
      <path d="M1405.35,2931c6.82,13.63,18.27,21.88,33.42,33,23.39-11.38,51.51-16.2,77.72-13.45,5.46.58-7.18-14.12-18.52-16,4.52-3.5-3.12-11.55-9.38-13.5C1462,2912.67,1429.78,2917,1405.35,2931Z"/>
      <path d="M1275.78,2930a67.62,67.62,0,0,1-24.19,33.95c-19.79-9.67-69.51-7.67-89.87-2.62-4.65,1.15,3.61-13.87,12.75-18.86-5.45.73-2.6-9.21,3.47-12.47C1198.44,2919,1250,2917.88,1275.78,2930Z"/>
    </g>
    <path class="christopherShorts" d="M1530.64,2072.43c14.7,74.34,8.77,187.24,13.55,287.64-16.73,24.7-160.15,34.26-191.23,15.93-5.19-33.86-1.56-61.06-8-96.41-3.87,37.84,0,66.63-4,97-19.92,16.74-171.9,18.92-203.77-9,5.58-91.63.6-178.07,11-246.59,2.52-16.72,0-30.28,5.57-49.4Z"/>
    <path class="christopherWaistband" d="M1151,2084.12c82,9.41,288.29,16.08,381.55-.89-1.51-8.57,1.6-15.32-1.69-26.75l-378.05,1.09C1149.85,2063.2,1152.25,2073.1,1151,2084.12Z"/>
    <path class="christopherShirt" d="M1147.18,2058.11c7.44-19.85-18.08-24.31.68-52.85-26.1-39.15-7.16-48.56-4.9-76.66,4.08-50.57,0-97,6.53-153.33-29.36,0-88.9-14.68-110.1-26.91,30.17-55.46,42.45-130.13,75.85-166.37,22.68-24.62,91.34-32.62,132.11-49.75l172.9-.82c54.64,17.95,112.09,12.7,146.8,46.49,15.3,14.89,15.6,35.49,21.2,51.38s13.09,10.61,10.61,44.85c10.6,26.92,16.31,57.09,29.71,79.18-23.19,14.61-72.12,28.48-97.49,28.48-10.52,137,24.55,170.45-5.62,200.62,4.89,17.94,24.22,30.28,4.64,49,11.09,2.19,8,19.05,5.35,24.95C1428.33,2087.63,1237.36,2080.89,1147.18,2058.11Z"/>
    <g class="triceratopsLogo">
      <path d="M1322.56,1843.24a65.72,65.72,0,0,1-8.79-1.26q-2,4-4.67,8.09c-8,11.58-1.54,15.06,1.61,21.51,4.08.05,11.15-.4,14.34-2.37C1324.77,1860.27,1315.59,1858,1322.56,1843.24Z"/>
      <path d="M1505.32,1793.11c5.27-11.88,5.63-20.69-1.31-27.47,3.72-8,4.6-18.31,1.72-25.43-2.45,7.7-6.9,14.72-12.23,18.82a86.65,86.65,0,0,0-11.64-4,60.33,60.33,0,0,1-24-13.08c-1.73,2.18-4.13,7.52-5.48,10.36.72-9.58,14.72-34.44,30.7-48.48-18.6,7-34.55,25.7-42.22,40,.35-3.32,3.24-9.2,6.12-13.64a82.89,82.89,0,0,1-13.11-31.8c-7.49-8.71-23.89-1.22-20.85,9.92-12.14-4.66-21.66,8.7-13.91,18.69-11.19-.68-16.69,13.23-9.12,20.31-10.82,4.66-6.63,23.18,4.65,21-12.45,5.06-16.87-15.28-8.23-21.08-41.5-19.48-80.61-31.15-115.83-5.91-15.45,11.06-27.37,38.4-43.13,56.12-13.33,15-39.64,21.61-67.17,21.15,29.31,15.64,58.79,14.73,88.44-2.13a80.06,80.06,0,0,0,29.44,17.31c4.09-11.13-8.47-13.82-8.27-31.12,2.47,17,13.73,18.26,10.52,31.6-6.14,25.47-.07,34.75.21,44.86,4.37,2.46,25.14,2.46,29.86-.35-.15-2.65-1.37-4.91-2.2-7.27-3.49-7.37-8.55-10.16-1.33-21.73,14.37-23,16.38-41,7.11-59.93,8.7,10.6,11,28.75.57,50.36,9.75,2.54,33.78,1.52,48.74-2.17.52-9.61,2.95-20.79,7.1-26.54-12.8,37.82,3.88,51.27,4,67.72,4.77,2.22,25.54,2.49,29.74-.22a11.94,11.94,0,0,0-2.91-7.44c-1.67-2.32-8.71-7.41-7.68-29.24.39-8.2,5.41-16.32,16.26-23.53,31.52-21.71,59,8,85.39-14.34-11.84.69-21.58-2.16-29.35-8.34C1482.83,1796.11,1490.59,1782.21,1505.32,1793.11Z"/>
      <path d="M1408.67,1822.27c-7.38,5.51-12.19,11.08-13.07,20.17-.63,14.11,1.65,23,8.74,29.29,4.06.16,9.14-.32,11.56-2C1414.05,1854.75,1396.56,1857,1408.67,1822.27Z"/>
    </g>
  </g>
  <g class="clothesDisplayLine">
    <path d="M1337.73,2093.68c2.94,64.69-4.3,123.28,7.27,185.91"/>
    <path d="M1406.2,2093.19c36.07,41.5,80.69,62.48,133.19,59.77"/>
    <path d="M1282.89,2092.44c-30.33,36-86.93,67.92-138.4,60.52"/>
    <path d="M403.9,1598.87c-8.11,22.38,1.69,49.76-.75,77.54-2.87,32.71,12.36,57.63,13.93,88.24,1.86,36.23,14.14,39.65,20.69,61.1"/>
    <path d="M466.29,1599.78c-10.21,21.36-2.81,40.47-4.62,57.12-4.64,42.73,31.58,98.46-44.59,107.75"/>
    <path d="M572.8,1575.85c24.48,18.52,57.36,27,91.37,23.46"/>
    <path d="M306,1574.57c-20.59,20.66-56.26,32.29-110,25.67"/>
    <path d="M288.29,2976.64c-40.71,7.7-147,0-168.45-10.78"/>
    <path d="M556.55,2975.29c47.9,9.49,148.44,0,171.2-18.33"/>
    <path d="M2236.46,1594.14c-1,57.66,4,150.86,1,189-3.46,44.42.09,64.89,2.93,93.06"/>
    <path d="M2295.71,1674.87c3.44,28.35-1.39,56-.09,80.62,1.66,31.3-20,49-59.5,53.09"/>
    <path d="M2118.45,1656.85c-32.35,25.38-76.9,36.11-130.2,33.15"/>
    <path d="M2378.57,1655.2c30.53,20.74,63.73,31.26,100.46,30.24"/>
    <path d="M2316.28,2706c-9.2,6.12-14.6,47.59-8.14,55.43"/>
    <path d="M2161.31,2710.55c6,8.48,7.15,47.17,1.45,55.44"/>
  </g>
  <g class="clothesOverlapLine">
    <path d="M1404.92,2909.28c2,4.36,2.27,11.76,8.37,17.61"/>
    <path d="M1472.36,2903.86a48.65,48.65,0,0,1,4,14.22"/>
    <path d="M1266.53,2904.9c-4.31,3.7-6.6,11-8.26,19.49"/>
    <path d="M1193.13,2905.16c-4.2,5.84-6.49,13.41-8,21.73"/>
    <path d="M1526.66,1663.34c7.19,37.23,4.74,79.46,4.42,118.46"/>
    <path d="M1161.42,1672.83c-9.48,36.76-9.48,70.56-11.93,102.44"/>
    <path d="M554.11,2790.79c5.24,8.57,1.69,13.36,3.38,21.42"/>
    <path d="M633.31,2824.08c-20.91-2.55-53.79-1.5-74,4.09"/>
    <path d="M637.33,2838.71c-23.13-2.54-56.79-.07-75.34,5.82"/>
    <path d="M642.56,2853.51c-22.42-2.88-54.35.6-77.38,6.64"/>
    <path d="M649.41,2868.65c-24-2.69-57.42,1.35-80.37,7.46"/>
    <path d="M657.72,2883.07c-27.19-2.65-62.7.9-84.63,7.67"/>
    <path d="M324.06,2804.69c-2.55,1.77-5.19,5.73-5.09,8.59"/>
    <path d="M255.11,2820.27c20.64-1.79,41.95,2.84,61.55,8.25"/>
    <path d="M248,2835.8c22-1.72,44.41,1.79,64.74,8.32"/>
    <path d="M239.64,2850.25c18.74-3.19,47.34,1.6,68.32,8.48"/>
    <path d="M229.66,2864.55c23.83-2.46,50.67,2.76,72.45,10.28"/>
    <path d="M218,2878.41c22.91-3.58,60.61,1.15,79,10.11"/>
    <path d="M1329.2,773.41c5.32,70.06-2,149.4,0,246.41"/>
    <path d="M1354.07,723.63c-6.41,2.7-15.35-.75-18.36,3.52"/>
    <path d="M2308.14,2761.39c-3,11.67,2.56,48.44-10.26,84.68"/>
    <path d="M2157.67,2767.48c5.83,10.75,6.27,58.95,15.68,86.28"/>
    <path d="M2231,992.63c18.22,53.63,5.23,57.39-.19,94.44-4.8,32.81,14.83,38.91,3.78,84.82-11,45.61,2.56,60.64-.58,97.63-4,47.21-14,52-.9,109.63,8.54,37.6.9,124,3.16,200.12"/>
  </g>
  <g class="clothesBorderLine">
    <path d="M1417.41,2946.94c23.74-12,54.95-17.25,80.56-12.49"/>
    <path d="M1268.35,2945.88c-24.13-7.86-71.35-9.09-93.88-3.45"/>
    <path d="M1370.39,775.54c5,66.88-1.26,155.66,0,256"/>
    <path d="M1672.48,1429c0-18.35-5.61-33.27,0-45.47,15.49-33.69,91.27-40.18,102.1,0,2.55,9.46-3,16.33-1.85,27.63"/>
    <path d="M1038.12,1491.5c1-30.66,56.07-53,91.35-43.79"/>
  </g>
  <g class="clothesFoldLine">
    <path d="M1378.66,746.09c48.42-10.54,83.07-16.53,55.87,7.85"/>
    <path d="M1385.16,759.5a211.93,211.93,0,0,0,55.61,18"/>
    <path d="M1329.85,758.71c-17.88,9-34.91,15.21-49.93,14.7"/>
    <path d="M1329.23,747.37c-42.47-18.24-76.92-12.45-44.61,4"/>
    <path d="M1365.48,871.16c-28.58,2.49-56.31,2.4-83-.86"/>
    <path d="M1416.81,883.14c-36.47,3.53-69.77,5.24-96.25,3"/>
    <path d="M1631,814.79c-12.31,27.74-22.66,55.16-22.47,80.91"/>
    <path d="M1630,866.73q-10,36.28-33.92,51.45"/>
    <path d="M1661.5,806.3c-3.12,59.35-21.06,108.46-63.13,140.87"/>
    <path d="M1676.48,867.23c-11.56,26.7-25.57,49.65-44,65.93"/>
    <path d="M1653.51,950.65c-8.74,28.52-20.67,53.93-38.1,73.95"/>
    <path d="M1646.52,1007.58c-10.7,16.78-17.49,38-28,52.95"/>
    <path d="M1707,931.17c-8.49,79.41,4.56,161-70.92,176.31"/>
    <path d="M1739,996.59c9,54.45-10.52,106.39,21.26,117.62"/>
    <path d="M1734.92,1137.45c-106.38-19.48-151.84-.5,8,40"/>
    <path d="M1605.58,1153.57c20.55,2.66,28,9,9.83,22.34"/>
    <path d="M1638.52,1181.9c22.48-11.49,46-2.39,50.55.52,7.65,4.85-35.56,7.47-60.78,38.22"/>
    <path d="M1779.2,1234.78c-20.76-23.65-44.19-37.23-72.75-31.4"/>
    <path d="M1661,1218.36c24,.5,45.33-6.33,51,2.5,7,11-36.46,1-68.43,45"/>
    <path d="M1755.9,1253.32c-42.46-23-98.57,1.38-92.4,14.49,4,8.49,60.43-30,110.88,22.47"/>
    <path d="M1639.64,1312.63c.6-11.38,5.31-18.58,13.87-21.85"/>
    <path d="M1760.39,1301.27c-24.47,20.48,19.48,21.48,31.15,52.19"/>
    <path d="M1701,1325.75c19.48-11,59.93,15,10,14"/>
    <path d="M1647.23,1363c23.76-60.68,90.24-65.08,84.2-77.16-4.5-9-43-5.5-66.93,13.48"/>
    <path d="M1090,830.78c1.44,27.91,7.22,52.48,18.59,72.77"/>
    <path d="M1105.25,934.65c-31.7-46.21-39.25-132.91-57-125.74-20.31,8.19-3.55,32.92,8,54.18"/>
    <path d="M1067.59,918.27c-85.19-122.4-72.08-27.34,19.88,113.33"/>
    <path d="M1012.91,952.56c10.94,45.24,42.75,82,34.8,89.47-10.6,9.93-38.14-12.84-57.17-51.19"/>
    <path d="M967.18,965.49c8,50.2,39.27,120.78,69.09,124.76"/>
    <path d="M963.16,1026.13c-3.88,83.4,56.24,172,97,136.41"/>
    <path d="M941.38,1050c-.85,20.74,13.63,69.51,8.85,105.43"/>
    <path d="M1055.67,1202.05c-80.88-36.92-145.7,12.15-108.85,11.51"/>
    <path d="M1054.28,1212.49c-26.78-8.84-53.71-8.79-80.78-.17"/>
    <path d="M989.66,1245.3c22.63-6.47,60.17-8.09,75,11"/>
    <path d="M1077.93,1291.12c-8.83-5.89-17.57-8.5-26.2-7.68"/>
    <path d="M943.64,1318.92c28.57-48.41,72.26-51.16,62.19-57.46-15.52-9.7-56.9,1.94-64,12.93"/>
    <path d="M963.66,1367.1c3.37-13.19,18.35-20.78,6-30.65"/>
    <path d="M1029.75,1279.56c-43.27,25.18-36.21,29.74-22,30.39,20,.91,58.84-14.59,85.48,11.61"/>
    <path d="M984.94,1425.29c-3-43.58,57-75.87,69.37-87.48,10.65-10-18.1-18.16-44.61-14.52"/>
    <path d="M1107.72,1372.09c-36-12.72-61.81,8.61-59.22-3"/>
    <path d="M1087.93,1389.11c14,3.07,26.77,9.73,37.16,23.56"/>
    <path d="M1011.84,1461.58c.3-6.94,5.27-11.67,12.73-15.22"/>
    <path d="M1077.59,1402.16c25.21,6.34,31,29.62.64,27.68"/>
    <path d="M1589.68,2003.8c-9.53,26.23-24.29,46.8-44.52,61.4"/>
    <path d="M1095.35,2226.4c7.94,27.46,18.08,49.84,32.24,62.94"/>
    <path d="M1554.37,2753c-7.55,26.34-18.77,47.12-35.31,59.87"/>
    <path d="M1129.13,2605.58c4.89,64.5,15.35,118.21,41.45,152"/>
    <path d="M1096.14,2290.59a65.29,65.29,0,0,0,17.64,21.77"/>
    <path d="M1607.17,2905.39c-20.24-17.17-82.24-12.06-104.32,1.69"/>
    <path d="M1186.11,2914.45c-30.44-12.14-61.07-14-87.42-3"/>
    <path d="M1102,1752.09c-5.42-9.07-8.37-19.91-10.11-31.64"/>
    <path d="M1104.32,1720.45c.79,9.07,3.5,16.35,8.8,21.2"/>
    <path d="M1155.52,1627.83c-8.52,29.87-10.29,57.11-.75,79.93"/>
    <path d="M1184.22,1666c-3.34,9.24-18.59,32.2-28,31.86"/>
    <path d="M1233.14,1734.47c5.84,28.34,14.35,53.68,26.74,74.69"/>
    <path d="M1227.59,1788c8.89,37.72,21.27,72.82,37.51,105"/>
    <path d="M1147.86,2005.26c18.42,22.08,47.74,18.35,27.23,32.19"/>
    <path d="M1163.67,1964.72c68.52,69.15,150.11,100.13,250.14,77.29"/>
    <path d="M1514.91,1940.26c-13.39,25.52-29.88,45.48-50.88,57.4"/>
    <path d="M1530.1,2031.46c-9.62,8.26-20.51,14-33.45,15.44"/>
    <path d="M1525.46,1982.42c-30.77,34.81-117.37,73.25-28.49,44.59"/>
    <path d="M1462.4,1800.68c-11.91,36.59-26.55,68.9-44.35,96.21"/>
    <path d="M1488.49,1779.81c-5.1,28.38-11.3,54.93-20.22,77"/>
    <path d="M1498.28,1655.88c11.33,13.07,20.17,27.35,24.78,43.7"/>
    <path d="M1544.91,1634.35c2.43,26.85-4.88,56.09-13.69,70.67"/>
    <path d="M1587.31,1672.84c-1.63,18.91-9.46,46.31-18.59,59"/>
    <path d="M1598.86,1674.14c-1,29.21-8.48,52.86-19,74"/>
    <path d="M820.86,1129.08c-3,37.39-27.16,35.28-9.44,60"/>
    <path d="M766.41,1231.1c43.82-77.77,1.1-29.58-52.57,21.9"/>
    <path d="M707.27,1276c37.24-16.43,122.67-19.71,58.05,0"/>
    <path d="M713.84,1199.33c23-8.76,31.76,5.48-11,29.58"/>
    <path d="M694.12,1189.47c80.19-7.77,104-96.06,112.82-205.92"/>
    <path d="M692.48,1106.66c25.17-26.16,50.14-86.19,75-159.9"/>
    <path d="M703.73,850.31c4-16.61,2.09-49.21-5.1-73.18"/>
    <path d="M743.69,814C739.24,860.15,721,898,692.48,929.58"/>
    <path d="M767.51,799.18c-6.07,59.06-29.6,109.66-74.2,150.05"/>
    <path d="M688.55,897.64c-34.5-40.93-24.91-74-7.66-25.11"/>
    <path d="M250.88,990.94c59.26,12.56,126.21,15.34,198,12"/>
    <path d="M392.78,1022.1A983,983,0,0,0,618.09,1014"/>
    <path d="M688.55,1212.86c-30,36.13-76.4,54.17-131.34,62.84"/>
    <path d="M661.24,1209.54c-10.26,9.6-21.61,16.66-34.52,20.14"/>
    <path d="M674.66,1315.49a123.43,123.43,0,0,1-58,42.18"/>
    <path d="M688.55,1335.2c-13,15.08-27.92,26.91-45,34.94"/>
    <path d="M666.51,1391.71q-76.77,86.16-220,103.55"/>
    <path d="M691.22,1484.32c-29.77,19.52-66.93,29.08-112.92,26.76"/>
    <path d="M645.42,1451.16c-25.41,19.65-112.66,35-60.88,36.91"/>
    <path d="M589.81,1529.78c-89.1,29.35-177.69,33.92-265.58,4.79"/>
    <path d="M179.55,1479.86c17.73,14.51,41.63,22.88,68.45,28.34"/>
    <path d="M236,1484.71c39.65-10.8-25.41-24-59.15-55.75"/>
    <path d="M218.76,1424.79c30.22,28.76,68,44.39,111.7,49.86"/>
    <path d="M178.65,1260.19c16.69,20.72,34.92,37.42,55.45,48.11"/>
    <path d="M216.36,1267.55a271.66,271.66,0,0,0,96.36,54.65"/>
    <path d="M12.56,1276.53c25,11,87.79-3.23,52.79,19.78"/>
    <path d="M108,1296.31c-39.24-11.7,17.26-16.3,44.58-25.41"/>
    <path d="M157.64,1250.31c-32.4,11.38-65.07,15.93-98,12.92"/>
    <path d="M11.47,1218c5,14.55,19.15,24.81,11.7,37.08"/>
    <path d="M122.4,1183.18c-20.38-15.5-42.14-23.12-65.2-23.49"/>
    <path d="M66.31,1059c23.09,57.8,51.15,104.77,94.92,117.45"/>
    <path d="M147.33,1206.67c-31.16,7.67-85.65-.12-84.37,9.1,2.3,16.66,47.15,10.46,88.69,5.28"/>
    <path d="M114.25,826.51C123.5,871.2,139,908.1,167.47,928.62"/>
    <path d="M133.43,790.55c34.51,50.34,3.83,66.64,26.84,105"/>
    <path d="M183.12,914.6C214.45,901.77,249,850,236,888.83"/>
    <path d="M484.89,1751.65c35.25-10.37,78.4-14.21,125.41-14.86"/>
    <path d="M501.61,1804.6c42.53,5.89,83.54,15.19,122.62,28.79"/>
    <path d="M390.14,1753.51c-50.28-10-102.13-12.37-155.12-9.29"/>
    <path d="M394.79,1798.09c-43.63,12.28-84.29,28-121.69,47.38"/>
    <path d="M469.1,1872.41c32.53,54,57.71,111.31,73.39,172.77"/>
    <path d="M331.62,2201.24c-39,12.08-84.53-4.64-109.61-27.87"/>
    <path d="M212.86,2244c7.58-13.41,6.74-31.7.79-53"/>
    <path d="M268.46,2256.05c42.73,14.86,77.1,21.36-18.58,44.58"/>
    <path d="M372.5,2209.6c-93.82,27.87-104,17.65-32.52,55.74"/>
    <path d="M667,2154.8c-18.58,21.36-31.58,52-8.36,73.38"/>
    <path d="M643.74,2158.51c-62.24,60.38-79,63.17-143.06,17.65"/>
    <path d="M510,2210.53c61.31,16.72,94.75,28.8.93,50.16"/>
    <path d="M628,2281.13c-36.65-22.22-81.75-18.17-134.7,10.22"/>
    <path d="M636.31,2591.38c-39.95,26.94-121.69,35.3-6.51,61.31"/>
    <path d="M510.9,2673.13c32.43-29.05,57.13-14.84,91-7.43,30,6.55-15.8,28.79-84.54,43.65"/>
    <path d="M627,2696.35c-44.59,15.79-80.82,16.72-37.16,40.87"/>
    <path d="M515.55,2723.29c45.51,15.79,69.67,17.65,3.71,58.52"/>
    <path d="M345.56,2609c23.23,16.54,46.84,33,25.08,56.67"/>
    <path d="M283.32,2599.74c-15,49.32-82.67,51.09-31.58,82.68"/>
    <path d="M384.57,2681.49c-53.88,24.15-103.88,27.74-11.15,67.81"/>
    <path d="M247.09,2695.42c36.23,12.08,74.89,7.88,8.36,43.66"/>
    <path d="M392.93,2782.74c-27.87-18.58-100.56-33.85-134.69-16.72"/>
    <path d="M1528.51,2249c-6.44,41.58-16,70.47-18.16,101.31"/>
    <path d="M1431.88,2229.06c-9.33-7.81-39.24,12.3-66.76,43.33"/>
    <path d="M1358.67,2291.13c16.17,2,31.71,5.27,42.75,17"/>
    <path d="M1252.09,2252.48a208.82,208.82,0,0,1,67.93,31"/>
    <path d="M1315.34,2297c-8.43-1.3-25.43,12.87-43.34,28.7"/>
    <path d="M1367.94,2093.68c2.56,9.28,2.5,23.9,1.27,36.4"/>
    <path d="M1355.75,2093.68a97.18,97.18,0,0,1,0,17.08"/>
    <path d="M1317.52,2093.29c-1.77,7.82-1.62,17.85-.43,27.42"/>
    <path d="M1522.07,2087.33a77.88,77.88,0,0,1,4.1,32.21"/>
    <path d="M1512.7,2088.5a25.62,25.62,0,0,1,1.17,15.23"/>
    <path d="M1177.18,2086.68c-.38,5.24-.15,13.13,0,18.81"/>
    <path d="M1163.58,2085.45c-1.82,9.92-2,23.87-1.1,35.26"/>
    <path d="M2466,1103.21c-11.31-22.76-30.51-33.81-55.78-35.82"/>
    <path d="M2048.49,1092.39c-15.3-12.05-39.86-4.69-48,14.83.39-24.43,20-39,38.47-37.62"/>
    <path d="M2221.25,1034.31a321,321,0,0,0-47.79,3.68"/>
    <path d="M2206.54,1024.75c-13.41-3.75-28-5.76-43.37-6.61"/>
    <path d="M2213.89,1132.82a206.38,206.38,0,0,0-45.57-8.82"/>
    <path d="M2200.66,1140.17c-18.8,1.81-39.21,2.89-60.28,3.68"/>
    <path d="M2211.69,1149.73c-16.12,3-30.77,6.85-43.37,11.76"/>
    <path d="M2214.63,1262.2c-16.66-.12-35.53.45-55.87,1.47"/>
    <path d="M2207.28,1271.76a192,192,0,0,0-41.9,11.76"/>
    <path d="M2205.07,1381.29a286.25,286.25,0,0,0-45.58-10.29"/>
    <path d="M2291.08,1032.84c-18.25-.47-35.42-.56-50.73,0"/>
    <path d="M2275.64,1123.07c-14.49.24-28.35,2.51-40.63,1.48"/>
    <path d="M2305.05,1139.74c-19.67-1.46-42.73-1.72-67.45-1.39"/>
    <path d="M2284.57,1153.24q-22.93-2.38-46.66-3.51"/>
    <path d="M2292,1263.67c-20.85-.73-40.4-1.07-57.62-.73"/>
    <path d="M2292,1281.69c-22.06-3.73-42.19-6.27-58.55-6.47"/>
    <path d="M2306.58,1373.56c-20.91,1.54-40.28,2.44-57.77,2.59"/>
    <path d="M2285.4,1390.61q-25-3.48-51-4.6"/>
    <path d="M2469.46,974.34c-13.58,38.52-20.08,77.26-11.34,116.47,3.89-33.67,18.66-59.21,39.17-80.46"/>
    <path d="M2417.49,1088.52c12.68-.11,36.65,7.37,48.46,23.33"/>
    <path d="M1978.75,1032.84c15.77,13.81,25.28,31.09,29,51.58,11.07-16.77,14.35-33.55,21.3-46.43"/>
    <path d="M2000.45,973.52c9.12,35.88,14.14,72.43,7.34,110.9"/>
    <path d="M2015.59,1239.13c7.29,15.28,20.94,26.43,37.65,35.61"/>
    <path d="M2000.42,1251.09c10.23,13.67,21,24.62,32.77,31"/>
    <path d="M2007.81,1379.16c2.91,6.59,7.12,11.54,13.1,14.27"/>
    <path d="M2009,1435.81c5.32,8.77,12.45,12.18,1.23,22.69"/>
    <path d="M2454.68,1391.1c-4.86,10.92-19.74,16.64-4,24.83"/>
    <path d="M2460,1322.43c-8.14,6.74-13.17,10-4,21.06"/>
    <path d="M2456,1253.46q-21.52,22.9-55.66,34.78"/>
    <path d="M2466.77,1267.78c-12.05,11.43-26.17,20.53-41.51,28.24"/>
    <path d="M2210.3,1826.92c-60-18.81-124.3-18.81-191.06-7.94"/>
    <path d="M2217.1,1854.7c-31.75-1.7-75.4,7.37-98.65,20.41"/>
    <path d="M2277.77,1827.48c47.14-19.62,105.88-23.53,170.65-19.27"/>
    <path d="M2271.53,1856.4c26.65-4.54,70.87,0,98.08,12.47"/>
    <path d="M2465,2319.78c-28.79,12-63.79,18-106.12,17"/>
    <path d="M2466.05,2361.41c-33.29,15.32-74.26,21.59-123.65,17.93"/>
    <path d="M2016.89,2316.49c24.17,6.07,58.47,6.72,82.29,3.88"/>
    <path d="M2019.08,2361.7c26.24,7.26,96,9.4,144.73-.81"/>
    <path d="M2032.84,2302.8c25.21,5,54.11,5.11,85.61,1.7"/>
    <path d="M2073.66,2351c27,1.69,55.24-.27,84.48-5.11"/>
    <path d="M2420.07,2319.24c-32.14,5.36-64.43,7.59-97,5.1"/>
    <path d="M2456.36,2350.42c-21.45,9.56-43.87,14.26-67.47,13"/>
    <path d="M2154.17,2663.84c-24.64,16.86-51,24.81-79.94,19.85"/>
    <path d="M827.16,1211.63c-8,13-16,25.44-12.07,33.51"/>
  </g>
  <path class="clothesEdgeLine" d="M1496.25,2843.72c-2.36-28.23-2.91-72.35-2.77-122.4"/>
  <path class="lipFemaleBrown__noStroke" d="M2166.88,701.12c2.93,71.19,120.74,71.67,128.39-.4Z"/>
  <path class="lipFemaleBrown" d="M2302.91,698.83c-12.27,3.72-28.15-9.66-39.23-11.49-17.26-2.84-23.76,6.73-54.15-1.23-16.77-4.4-28,15.1-50.78,14.16C2204.84,705.58,2282.42,705.85,2302.91,698.83Z"/>
  <g class="skinEastAsian">
    <path d="M1252.05,630.81c-1.37,49.62,63.53,67.16,83.66,84.43h0c5.87,2.59,12,5.38,18.39,8.4,5.84-1.92,11.54-4,17.19-6-.28.07-.58.16-.87.26,11-13.43,86.72-25,85.18-89h.18c.37-13.82,1-26.92,2-39.36l-209-3c1.19,14,2.21,28.69,3,44.19Z"/>
    <path d="M1431.44,1465.88c-13.89,15.13-15.61,38.31-11.19,65.54-12.78,52.72-161.07,56.4-172.9.82,6.26-41.73-3.16-128-32-128.22"/>
    <path d="M1768.48,1880.81c-6.38-5.08-11.69-22.93-15-44.68-46.21,10.75-91.33-5-128.16-12.73-4.36-19.91-5.64-42.33-11.09-62.53-25.32,11.5-62.24,20.93-83.16,20.93a628,628,0,0,0-1.19,82.76c6.15,25.54,14.86,41.59,25.65,46.77,65.17,31.28,166.41-11.86,227.85-15.47C1778.37,1890.4,1773.24,1884.77,1768.48,1880.81Z"/>
    <path d="M1050.77,1753.76a515.5,515.5,0,0,0-18.32,71.89c-42.59-24.72-95.7-9.14-135.76-35.65l-36.13,55.16c48.38,32.9,118.36,93.8,202.1,84.07,36.41-4.23,67.06-56.31,83.4-107.84h0c.57-14.79,1.57-30.05,3.43-46.12C1124.36,1775.27,1077.16,1764.52,1050.77,1753.76Z"/>
    <path d="M1526.07,2371.2c-43.15,15.77-144.33,19.92-171.94,5.43-2.52,112.45,18.19,135.35,15.91,201-4.39,126.79,16.2,188.78,18.14,280.54,19.51,6,64.51,7.52,81.69,3.72,17.37-102.58,35-206.93,29.78-278.65C1495.91,2532.4,1513.56,2526,1526.07,2371.2Z"/>
    <path d="M1159.86,2378.51c10.61,132,28.19,143.46,24.31,195.39-8.2,109.57,13.61,196.14,16.58,288,17.78,3.78,61.58,3,82.58-2.1,9-104.06,34-138.37,36.07-279.65,1-62.88,16.74-85.54,16.82-200.82C1309.13,2391.15,1209.49,2393.38,1159.86,2378.51Z"/>
    <path d="M545.92,578.22c-7.4,9.48-11.36,83.35-.63,100.09,34,100.28-259.43,115.91-222.63-6.44,7.43-11,12-63.07.83-106.6"/>
    <path d="M51.64,1600.12c3.22,24.81-38.13,74.61-45,127.72-1.92,14.79-9,63.24,13.49,72.12,3.36,17.33,16.83,48.24,33.83,45.48,8.27,15.16,15.62,28,34.92,26.19,13.38,9.42,12.86,19.29,29.86,14.7,12.51-7.4,8.8-30.42-4.14-42.27-1.73-9.1,2.76-27.1.92-44.1.51-7.73,3.26-22.47,6.89-37.21-1.84,52.37,41.78,69.44,39.51,41.35-1.92-23.71,1.84-39.51,2.76-62.94,3.48-88.91-22.51-84.53-29.07-121-9.87-115.64,20.68-211.57,13.82-299-17.7,4.08-110.9,8.26-135.42,5.77C12,1388.14,44.61,1501.58,51.64,1600.12Z"/>
    <path d="M885.5,1600.51c-29.43-108.74-23.27-214.3-37.59-299.16-13-10.45-129.86,10.25-131.52,21.84-.17,67.15,75.7,159.36,86.73,279.87,1.34,38.66-18.32,49.76-11.26,117.61,6.65,25.33-2.11,38.4,7.89,55.23,10.19,14.11,7.89,29.45,17,29.38,41-11.31,6.44-53,19.16-87,26.15,31.8,30.43,57.11,29.46,70-5.45,19-3.6,45.39-8.62,49.42-21.55,28.52-.5,55,13.83,41.51,2.94-7.39,8.06-12.54,16.55-25.64,13.15-4.53,21.52-15.12,28.11-36.27,30.83-8.16,26.72-78.83,25.39-88.41C936.51,1699.17,906.87,1655.5,885.5,1600.51Z"/>
    <path d="M1787.31,1487.59c-1.87,25.66-2.85,79.67-15.62,98.33-19.15,22.09-31.91,40.75-67.75,19.14a44.44,44.44,0,0,1-49.59-14.23c-11.63-3.88-18-13.22-21.61-25.54-19.15-8.34-14.73-30.44-19.15-55,10.31-14.73,31.43-11.29,33.39,7.37,4.06,0,7.31-2,9.82-5.9-3.92-36.06,1.34-100.38,51.48-103.93,23.77-1.68,51.66-24.31,96.74,35,27.35,26.34,69.39,42,47.61,69.9C1835.92,1529.91,1810.59,1503.57,1787.31,1487.59Z"/>
    <path d="M1086,1717.94c-12.5,11.49-30.33,1.18-42.56-12.16-11.15-12.16-22.29-28.37-7.43-42.9-12.5-26.68.22-44.15,7.77-62.49,6-14.57-9.39-44.05,24-56.74,10.5-4,12.84-30.07,45.6-32.77,11.82.34,60.8-20.94,82.08,10.81,16.92,25.24,12.16,54.72,19.93,81.07-6.08,13.85-46,4.45-46.68-31.44-2.81-16.9-17.94-29.92-37.43-12.81-9,9.12-9.41,48.25-1,62,33.13,35.41,9.14,64.82-16.08,44.46,23.7,18.46,22.17,47.4.09,46.26C1112.68,1721.09,1100.45,1724,1086,1717.94Z"/>
    <path d="M1826.52,1757.49c2.59,28.24-14.28,71.08,9.41,73.68,30.4.75,15.63-48.8,29.82-85,11.51-1.71,15.68,9.62,9.53,17.69-6.33,8.32-3.19,16.9-10.6,22.81,16.69,13,3.71,22.72,9.22,33.59,11.36,22.24-9.73,25.81-14,36.52,1.39,12.18-13.63,15.58-20.77,23.69-10.8,14.67-25.54,13.9-47.39,1-29.87-17.62-36-47.41-13.31-46.11-22.74-17.37-21.09-36.68-5.19-37-21.75-16.88-6.82-39.92,13-30.83C1777.51,1744.51,1800.88,1737.37,1826.52,1757.49Z"/>
    <path d="M831.59,1738.6c-6.14-8.11-7.16-17.33-5.67-21.59,5.49-15.68,17.87-8.84,31.67-11.19,8.62-1.1,12.38,7.58,8.84,14.47,26.9-11,36.06,16.46,17.53,28.6,17.12,2.63,10.85,29.7-12.87,38,14.75,2.16,11.7,27.49-10.37,33.64-.77,7.68-1.55,15.48-4,17.17-20.48,6.86-36.28-19.36-17.76-35.16-11.7-.36-18.16-19.39-6-31.08C821.53,1769.13,822.54,1749.34,831.59,1738.6Z"/>
    <path d="M1573.6,332.13c16.13,8.85,19.14,50.57.43,104.72-6.3,18.22-6,39.85-31.54,36.33C1530.29,562,1479,591.39,1426,632.76c-36.78,28.7-104.53,26.55-136.18,1.42-32.37-25.7-100.7-42.79-121.92-158.63-29.77-.27-24.25-13.91-35.23-43.18-19.06-50.78-9.33-97.76,5.41-101.44C1133-25.53,1568.47-24.33,1573.6,332.13ZM1309,358.33c-17.66-13.3-27-15.29-42.35-14.79-17.82.58-29.77,12.28-37.86,16.77,12.91,3.56,16,6.43,34.86,7.18,10.91.43,26.76-4.68,38-6.37C1304.58,360.68,1314.71,362.62,1309,358.33Zm101.39,4.26c10.65.93,22.08,5.92,33,5.44,18.56-.8,26.09-6.53,38.78-10.22-8.09-4.49-19.52-12.7-40-13.08-15.33-.29-26.11,3-38.24,15.09C1398.88,364.85,1407.43,362.34,1410.39,362.59Z"/>
    <path d="M648.85,338.44c16.13,8.84,24.34,53.95,1,107.71-7.67,17.69-7.14,39.17-35.26,40.59C593.4,572.23,549,596.17,489.86,637.17c-30,20.78-87.68,21.37-119.72-.66-42.33-29.11-101.6-68.35-121.06-149.09-29.77-.27-30.5-15.45-41.48-44.72-19.06-50.78-3.73-98,6.22-102.61C208.76-11.37,643.79-13,648.85,338.44ZM386.51,359.92c-10-16-27.77-20-43.09-19.46-17.82.58-30.1,12.83-38.19,17.33,12.7,3.69,22.6,9.12,41.16,9.93a89.45,89.45,0,0,0,32-4.07C381.22,362.71,390.29,366,386.51,359.92Zm102.08,3.95c10.13,2.1,20.83,5.83,31.74,5.35,18.56-.8,29.17-5.48,41.87-9.17-8.09-4.5-20.84-18.93-41.3-19.31-15.33-.29-30.44,3.39-40.42,19.4C476.69,366.2,485.67,363.26,488.59,363.87Z"/>
    <path d="M1457.52,1117.54c48.41,107.61,42.69,119.35,41.75,152.57-.64,22.63,32.69,137.06-26.63,193.86-27,25.85-29.93,42.62-65.52,48.52-33,5.48-45.37-2.77-73.28-10.66-32.73-9.26-64.75-26.58-87.89-50.17C964.29,1342.36,1209.57,960.53,1457.52,1117.54Zm-102,174.38c-10-11-18.1-15.8-31.56-14.41s-26.47,10.32-33.81,18c7.49,3.14,20.44,6.45,32.28,6.13,9.67-.27,18.49-5.84,28.26-5.49C1353.18,1296.27,1359.35,1296.18,1355.48,1291.92Zm75.1-1.56c8.09-.22,16.42,2.2,25.69,1.49,11.33-.86,20.06-2,27.75-11.3-7-3-13.36-12.76-31.22-11.58-15.46,1-20.62,8.39-28.36,16.8C1419.24,1291.41,1428.08,1290.43,1430.58,1290.36Z"/>
  </g>
  <g class="skinOverlapLine">
    <path d="M18.81,1764.05c-.63,10.08-1.09,22.44,1.3,35.91"/>
    <path d="M45.82,1774.59c-3.37,31.63,1.68,54.5,8.12,70.85"/>
    <path d="M78.19,1778.71c-1.84,34.81-2.29,65.5,10.67,92.92"/>
    <path d="M126.62,1727.15c1.67,15.32-2.6,27.73-4.23,35.6"/>
    <path d="M915.23,1817.29c5.67-22.52,10-47.61,5.44-68.46"/>
    <path d="M903,1754.72c3.63,44-2.27,76.17-15.87,98.84"/>
    <path d="M1036,1662.88c9.25,20.91,29.65,47.51,50,55.06"/>
    <path d="M1046.15,1605.43c1.87,46.18,31.72,86.29,68,105.76"/>
    <path d="M1080.67,1569.52c-.93,42.91,11.19,80.22,33.44,95.41"/>
    <path d="M1654.35,1590.83c-10-28.78,4.73-38.48.55-57.09,24.12-14.7,40.51,4.94,39.37,32.29"/>
    <path d="M1703.94,1605.06c-10.67-9.4-26.53-9.09-27-15.86,6.84-31.91,39.81-30.59,55.76-13.12"/>
    <path d="M1660.75,1530.77c-1.16-6.26-4.51-13.1-13.77-13.1-33.8,5.46-15.5,23.81-14.24,47.62"/>
    <path d="M1720.91,1567.43a28.68,28.68,0,0,1,21.94-11.9"/>
    <path d="M1735.91,1532.3a55.16,55.16,0,0,0-4,26"/>
    <path d="M1772.65,1479.23c5.83,4.61,10.83,5.26,14.66,8.36"/>
    <path d="M2567.77,1857.88c-2.73,45.24-10.9,54-40.88,76.86"/>
    <path d="M2595.57,1853.52c1.29,15.76-.55,37.61-6,50.15"/>
    <path d="M1809,1911.65c6.73-5.4,7.42-12.5,6.19-20.14"/>
    <path d="M1833.8,1902.58a16.44,16.44,0,0,0-4.35-13.66"/>
    <path d="M831.59,1738.6c7.35-7,24.94-13.81,34.84-18.31"/>
    <path d="M833,1771.45c10.13-8.2,34.29-20.16,50.93-22.56"/>
    <path d="M839,1802.53a63.47,63.47,0,0,1,32.11-15.65"/>
    <path d="M1778.48,1835.39c17.73,14.66,36.84,27.31,48.64,31.24"/>
    <path d="M1773.29,1798.39c22.28,14,56,35.44,74.07,41.17"/>
    <path d="M1786.27,1767.56c12.71,9.65,25.25,16.46,38.18,24.42"/>
    <path d="M1864.68,1786.7a47.07,47.07,0,0,0-6-4.66"/>
    <path d="M1545.5,361.83c-3.41,26,5.83,56.69-3,111.35"/>
    <path d="M1168.55,367.77c.89,31.65-6.15,61.49-.62,107.78"/>
    <path d="M624.57,371.46c-3.41,26-1.1,60.62-9.94,115.28"/>
    <path d="M239.88,371.52c3.37,28.63,2.1,68,9.2,115.9"/>
  </g>
  <g class="skinFoldLine">
    <path d="M1032.45,1825.65c10.35,5.1,33.61,24.32,33.61,37"/>
    <path d="M1625.33,1823.4c-15.37-3.06-38.57-.16-49,8.69"/>
    <path d="M1828.54,1838.84c-1.09,5.43-5.41,12.3-10,14.66"/>
    <path d="M1810.35,1868.7c-1.43,4.87-3.88,9-8.41,11.67"/>
    <path d="M1807.34,1471.51c-5.89.91-14,11.12-11.52,22.23"/>
    <path d="M1552.28,368.37c21.28-37.58,26.6,10.94,17.93,39.71"/>
    <path d="M1546.33,432.7c14.23,8.6,10.93-20.6,13.14-26.7,8.66-23.91-.69-23.22-5.2-19.41"/>
    <path d="M1157.57,362.24c-14.85-27.63-32,15.95-15.2,54.24"/>
    <path d="M1165.9,440.66c-16.45-3-11.18-17.58-13.86-23.49-11.64-25.72-1.38-35.65,3.92-28.37"/>
    <path d="M628.34,378c23.87-40.16,32.87,7.16,18.54,43"/>
    <path d="M625,436.9c14.23,8.6,8.27-16.6,11.59-22.17,12.7-21.34,5.27-27.11-.33-26.81"/>
    <path d="M239.85,378c-24-35.12-39.61,11.35-22.84,49.64"/>
    <path d="M242.16,444.84c-16.45-2.94-11.16-15.36-13.84-21.27-11.64-25.72-1.38-35.65,3.91-28.36"/>
    <path d="M1200.26,1343.37c-23.09-44.6-67.6,1.14-23.27,40.85"/>
    <path d="M1196.27,1354.2c-10.09,9.44,19,24.79,10.61,31.24-5.81,4.46-10.47-9.44-18.51-13.31-15.07-7.26-16.58-28.38.09-24.51"/>
    <path d="M2042.81,558.44c-6.34-46.39-30.2,7.74-9.64,48.48"/>
    <path d="M2048.5,621.08c-5,1.17-3.67-13.2-7-20.56-6.2-13.78-4.85-45.79,3.88-33.95,4.85,9.5-1,22.5,6.21,33.17"/>
  </g>
  <g class="skinEdgeLine">
    <path d="M2584.17,1901.58c-3.67,2.14-12.1,1.71-17.73,0"/>
    <path d="M2552.08,1900.36c-3.36,1.83-14.06.92-18.65-1.53"/>
    <path d="M2608.32,1836.47c-7,6.42-13.45-.61-19.35,4-6.08,4.78-16.85-.51-25.42,3.25-7.12,3.11-17.72-1.62-24.14-1.31"/>
  </g>
  <g class="skinCreaseLine">
    <path d="M1467.36,2565.25c-19.06,5.9-44.94,5.23-61.49-.78"/>
    <path d="M1282.89,2565.25c-19.78,5.9-48.32,5.9-65.38-1.55"/>
    <path d="M1709.5,1445.7c-2.72,19.47,8.15,42.12,26.73,52.09"/>
    <path d="M2488,1360.74c17.84-1.94,34.36-12.49,62.33-11"/>
    <path d="M1947.15,1355.13c13.76-.46,30.27,8.71,44.11,12.47"/>
  </g>
  <g class="lipMaleMedium__noStroke">
    <path d="M1389.06,1388.77c9.85,2.7,20.7,5.75,33.6-.57,9.79,3.84,4.77,16.47,20.69,29.45-9.22,8.69,2.67,32.2-38.77,37.74-42.28,5.66-37.16-24.11-54.29-31.76C1372.25,1411.09,1374.37,1396,1389.06,1388.77Z"/>
    <path d="M1340.52,505.62c9.15,3.61,23,5,34.93-.27,11.28,3.21,24.3,17,43.16,18.5-19.42,20.24-14.39,63.36-62.87,64.2s-40.23-47.71-60.7-62.69C1319.48,521.72,1327.84,507,1340.52,505.62Z"/>
    <path d="M416.17,514.58c9.14,3.61,23,5,34.93-.28,13.76,2.45,31.53,14.61,43.16,16.51C474.84,551,472,578.05,433.05,579.11c-45.83,1.24-39.28-31.49-62.36-46.79C391,527.35,402.57,513.89,416.17,514.58Z"/>
  </g>
  <g class="mouthInner">
    <path d="M1437.76,1417.19a30.53,30.53,0,0,1-7.54-5.09h0a47.33,47.33,0,0,1-10.2,5,18.56,18.56,0,0,1,5.37,7.68l-.77.57C1428.78,1422.3,1432.26,1419,1437.76,1417.19Z"/>
    <path d="M1409.84,525.23c-11-2.63-17.36-6-22.85-8.38-19.07-8.18-26.52,5.92-31.89,2.72-23.34-13.9-31,5.22-53,6.52C1340.05,573.89,1374.44,572.44,1409.84,525.23Z"/>
    <path d="M481.64,528.92c-21.83,17.37-76.12,17.85-97.54,1.08a53,53,0,0,1-5.86,1.57c40.45,29.55,76,28.4,107.29-.86C484.21,530.05,482.91,529.46,481.64,528.92Z"/>
    <path d="M2290.34,700.61l-117.27-.23h0c-1.05.35-2.13.68-3.26,1,24.64,44,104.27,38.39,123.15-.26A20.91,20.91,0,0,1,2290.34,700.61Z"/>
  </g>
  <path class="tongue" d="M1416.06,1414.09c-17.78-3.21-31.57-3.19-41.49-1.41-4.86,4.1-10.37,8.35-17.53,10.22,13.94,5.28,20.41,11.63,48,9.55,10.23-.77,15.62-4.15,20.33-7.68C1424,1420.69,1420.77,1417.16,1416.06,1414.09Z"/>
  <g class="teeth">
    <path d="M1430.22,1412.11c-5.27-4.46-10.26-9.36-16.82-7.09-7,2.42-10.26,1.19-19.2-1.49s-15.35,6.44-24.92,13.33C1388.53,1422.92,1414.1,1422.74,1430.22,1412.11Z"/>
    <path d="M1402.35,523.13a151.47,151.47,0,0,1-15.36-6.28c-19.07-8.18-26.52,5.92-31.89,2.72-20.42-12.16-28.86,1-45.42,5.3C1332.11,539.05,1380.43,538.38,1402.35,523.13Z"/>
    <path d="M481.64,528.92c-30.58-9.76-43.76,2.78-50.9.36-18.41-6.25-34.49-3.16-46.64.72C405.52,546.77,459.81,546.29,481.64,528.92Z"/>
    <path d="M2290.34,700.61c-6.58-1.68-13.85-6.08-19.85-7.39-14.51-3.15-25.47,8.82-62.43-.48-13.89-3.49-21.78,3.23-35,7.64C2198.11,729,2266.05,726.1,2290.34,700.61Z"/>
  </g>
  <g class="lipOverlapLine">
    <path d="M1357,1422.9a22.24,22.24,0,0,1-9.67.28"/>
    <path d="M1445.39,1416.77c-2.53,1.17-6.12,1.54-7.63.42"/>
    <path d="M1413.4,1405a16.59,16.59,0,0,0,7.61-5.26"/>
    <path d="M1294.81,524.22c2.57,1.29,4.09,2.11,7.24,1.87"/>
    <path d="M1420.8,523.41a15.35,15.35,0,0,1-11,1.82"/>
    <path d="M365.82,531.59a28.9,28.9,0,0,0,12.42,0"/>
    <path d="M498.66,528.73c-4.66,2.62-9,3.52-13.13,2"/>
  </g>
  <g class="lipEdgeLine">
    <path d="M1422.66,1388.2c-12.9,6.32-23.75,3.27-33.6.57"/>
    <path d="M1435.54,1436.93c-7.33,19.77-47.86,24-59.94,13"/>
    <path d="M1392.77,571.23c-21.78,23.73-57.58,19.84-71.58,1.56"/>
    <path d="M1375.45,505.35c-11.92,5.27-25.78,3.88-34.93.27"/>
    <path d="M451.1,514.3c-11.92,5.27-25.79,3.89-34.93.28"/>
    <path d="M470,564.21c-22.73,20.8-55.73,20.8-76.52-.28"/>
    <path d="M2181.92,736.41c24.65,25.32,74.64,24.42,98.64-3.84"/>
  </g>
  <g class="cheekLine">
    <path d="M1397.42,446.88c9.47,12.8,27.48,25.4,32.23,44.53"/>
    <path d="M1312.63,446.88c-9.56,11-24.66,26.72-26.74,40.12"/>
    <path d="M476.89,451.49c11.83,9.75,21.45,24.07,28.12,44.79"/>
    <path d="M392,452.69c-11.41,6.23-24.67,23.61-32.07,42.85"/>
    <path d="M2273.77,630c16.38,11,10.81,23.28,22.67,41.38,9.08,13.87,17.43,16.6,15.7,39"/>
    <path d="M2189.42,629.57c-16,8.62-14.43,25.85-24.61,40.09-10.77,15.09-16.56,20.9-16.35,37.5"/>
  </g>
  <g class="noseLine">
    <path d="M1427.09,1330.87c1.74,12.5,20.24,17.79,7.84,34.23"/>
    <path d="M1363.42,1344.52c-5.56,3-10.28,20.3,2.45,24.76"/>
    <path d="M1416.1,1366.48c6.75-2.79,8.36-7.93,15-7.82"/>
    <path d="M1374.31,1364.23c10.18-5.81,15-1.18,22.18,2.28"/>
    <path d="M1393.83,433.56c.37,17.54,17.54,23.89,3,37.45"/>
    <path d="M1315.83,434.68c.37,16.05-16,19.78-3.73,35.08"/>
    <path d="M1324.19,470c12,0,9.62,7,30.56,7.52,19.48.52,19.85-8.12,30.24-8.08"/>
    <path d="M476.89,451.49c14.15,14.85,2.09,27.38-1.62,28.8"/>
    <path d="M392,452.69c-6.73,4.64-11.87,17.36-.86,26.13"/>
    <path d="M401.72,476.32c9.28,0,10,10,28.77,10.44,22.9.56,21.34-11.37,33.17-11.37"/>
    <path d="M2189.42,629.57c-10.37,14.6-1.87,27.74,11.33,29.52,11,1.48,12,11.22,31.65,11.06,17.33-.15,19.81-9.4,31.48-10.73s24-12.65,9.89-29.42"/>
  </g>
  <g class="eyeFoldLine">
    <path d="M1474,1305.15c-6.78,5.93-21.6,7.15-30.33,2.37"/>
    <path d="M1345.8,1311.61c-6.93,5.49-27.11,9.9-39,3.55"/>
    <path d="M1470.7,376.71c-16.42,8.58-38.44,7.84-49.63,0"/>
    <path d="M1289.7,376.84c-13.43,9-37.69,8.58-49.26-1.12"/>
    <path d="M547.72,382.51c-16.09,10.93-40.21,9-51.41,1.16"/>
    <path d="M372.33,381.35c-10.93,11.23-40,12.56-56.29-1.86"/>
    <path d="M2354.56,561.21c-13.57,16.69-46.72,9.12-59.4,4.45"/>
    <path d="M2173.46,565.53c-9.33.69-46.62,17.38-66-.49"/>
  </g>
  <g class="eyeCornerLine">
    <path d="M1484,1280.55a27.05,27.05,0,0,0,6.77,2.62"/>
    <path d="M1272.79,1302.92c6,.56,15.25-5.7,17.32-7.38"/>
    <path d="M1228.79,360.31c-4.8,2.69-6.86,5.12-12.85,7.18"/>
    <path d="M1482.16,357.81a81.74,81.74,0,0,1,14.66,8.95"/>
    <path d="M305.23,357.79c-4.1,3.19-7.31,5.66-12.5,7.26"/>
    <path d="M562.2,360.05c3.82,2.67,7.42,3.94,12.62,5.54"/>
    <path d="M2102.54,545.43c-7.07,2.77-10.32,2-14.53,1.56"/>
    <path d="M2373.25,546.08c-5.4,2.88-9.35,1.78-13.57-.44"/>
  </g>
  <g class="eyeCreaseLine">
    <path d="M1232.23,348.85c20.9-22.4,52.62-18.29,70.84-3.78"/>
    <path d="M306.73,346.92c21.87-22.1,52.52-21,69.55-5.58"/>
    <path d="M2276.69,537.63c18.42-22.06,54.29-27.37,78.43-2.25"/>
    <path d="M2104.62,535.68c29.3-28.78,61.9-17.57,76.54-2.17"/>
  </g>
  <g class="eyebrowBlack">
    <path d="M1264.75,1268.49c38.8-45.28,66.33-25.46,99.89-31C1347.44,1262.08,1305.85,1239.78,1264.75,1268.49Z"/>
    <path d="M1499.35,1240.68c-28.4-25.06-71.86-5.44-83.06-9,12.86,21.07,48.76-4,83.65,19.06C1499.89,1247.55,1499.71,1244.24,1499.35,1240.68Z"/>
    <path d="M1386.39,293.22c25.4,30.94,84-5.08,120.54,20.78C1477.83,272.43,1430.26,302.45,1386.39,293.22Z"/>
    <path d="M1327.74,291.37c-21.27,31.17-80.8-6.64-118.28,20.54C1235.07,267.5,1279.87,299.49,1327.74,291.37Z"/>
    <path d="M469,297.57c25.13,29.85,79.1,1.54,113.11,25.23C556.28,284,516.18,307.34,469,297.57Z"/>
    <path d="M404.79,298.15c-22.48,29-86,.44-118.86,22.63C315.51,279.71,357.6,307.91,404.79,298.15Z"/>
    <path d="M2081.37,500c32.78-20.47,88.32-23.28,111.47-7.42,6.31,4.33-12,11.58-19.81,8.42C2139,487.21,2113.47,486.77,2081.37,500Z"/>
    <path d="M2383.78,502.89c-34.76-28-89.78-23.31-111-10.78-6.59,3.9,14.29,12.43,21.88,8.82C2330,484.15,2348.57,486.64,2383.78,502.89Z"/>
  </g>
  <g class="hairBlack">
    <path d="M1191.44,1467.47c9-12.68-3.81-30-27.59-50-39.39-33.19-98.26-149.34-49.1-255.38l-43.23,42.68c34.6-165.39,250.55-177.26,274.91-172.57-6.72-33.16-46.83-77.66-92.17-80.07,55.15-10.94,116.36,40.31,128.31,79.59,18.71-29.66,89.44-32.44,109.39-4.14-19.42-10.61-71.16-6.25-74.47,15.78,84.4,26.46,104.32,91.14,152,119.41-20.41,2.34-44.56-8.82-59.25-21.33,30.55,46.14,21.27,88.67,15.48,101.29-18.06-48.88-70.54-27.08-68.89-108.4-6.87,82.33-65.78,103.71-87.74,111.54,28-18.62,40.34-61.65,39.2-81.47-15.83,46.71-90.43,94.46-159,101.39,7.76-19.19,8-41-5.61-65.75,2.77,42.48-9.76,72.89-29.49,101.73,0,28.2,5.12,52.81,15.26,75.56-23.68-22.68-23.8-61.35-28.14-59.35-15.45,17.73-33.1,31.86-53,41.39,3.27,15.14,15,27.13,30.29,38.78,15.09,11.52,20.89,27.9,48.72,16.16,3.3,14.6,9.13,27.35,18.64,37.39C1230.8,1468.58,1212.65,1473.91,1191.44,1467.47Z"/>
    <path d="M1138.11,330.93c-27.66-149.84,15.82-216.65,84.56-267.75-11.43-8.46-23-11.5-39.8-.84,18.24-23.73,40.22-19.8,56.74-8.9,4.93-27.69,30.45-43.4,63.51-47.42-20.09,9.14-36.64,18.62-39.38,40.65,78.76-28.38,172.69-13.3,236.42,30.39,55,37.74,97,130.14,73.44,255.07-29.55-5.66-10.11,31-28.1,29.7-4.25-14.56,1.31-59.72-13.85-80.8-30.55-15.36-70.18-11.3-106.06-30.82,3.91,8.6,17.17,10.55,20.68,22.24-40.16-19.49-96.7-17.93-135.68-51.85,3.5,7.8,18.32,16,17.93,25-33.14-24.17-89.67-28.85-86.66-106.36,1.21,43.24-3.44,58.7-15,76.84.29-10,.86-18.23.57-25.92-8.82,37-32.74,61.23-43,71.48-5.36,36-16.5,41.17-15.85,106.18C1152.66,368.46,1163.1,320.45,1138.11,330.93Z"/>
    <path d="M213.82,340.09C184,192.83,231.89,117.79,302,65.06c-13.94-7.45-26.05-4.48-42.84,6.17,18.24-23.73,36.93-27.67,59.54-17.79,8-28.93,25.91-47.65,59-51.67C357.57,10.91,341.75,26,339,48c79.15-28.68,169.45-17.92,233.17,25.78,55.05,37.74,111.59,138.63,76.67,264.66-15.05.64-9.5,34.74-24.28,33-4.25-14.56,2.22-52.3-12.93-73.38-38.17-31.1-94.5-6.84-132.91-34.89,5.16,6,18.35,14.29,26.4,26.06-36.58-21-64.74,14.92-122.41-29.43,10.73,8.85,11.55,21.69,15.58,32.42-33.27-27-68.64-25.69-76.22-104.85,8.43,97.69-33.44,93-48.84,122.54-1.54-11.76,5.87-25.76,7.42-37.62-6.8,14.23-17.91,23.67-29.05,31.43-7.28,16.7-11.86,46.08-11.73,67.78C222.28,367.78,230.72,333.79,213.82,340.09Z"/>
    <path d="M2507.23,485.79c0-92.18-54.48-123.88-88.81-170.9-45.17-61.87-182.05-106-260.1-49.5-51.81-26.92-135.37,58.54-156.77,104.68-18,38.86-56,66.6-58.06,158.78-1.56,71.36-30.53,137.22,14.55,250.26,9.65,24.19,25.57,27.59,26.24,1.35,44.87,75.43,118.23,77.9,73.25,23.51,27.71,15.58,48.33,23.22,63.08,25.74,5-5.86,10.25-10.28,16.19-12.05a211,211,0,0,0,2.77-30.24c-53.94-34.77-83.51-71.93-84.28-127.5-24.87,6-20.54-21.48-27.87-37.45-32.43-70.71-1.85-126.66,16.13-98.21,3.28,6.61.67,30.11,11,27.13-1-33.94-1.38-62.45,14.29-88.18,5.13-.8,10.76-4.16,18.13-8.85-41.63,33.29,66,24.7,74.22-39.9-.18,49.8,63.74,84.11,48.22,40.05,68.67,31.95,136.63,21.86,102.16.81C2341,464,2364.48,469.5,2393.25,470c16.35,72.74,9.62,154.5-6.43,201.42-9.09,26.6,4,32.32,21,4.67C2379.36,765.06,2317.39,828,2310.24,841c-9.94,18,27.58,24.61,79.07-17.88-12.91,42.81,50.67.81,79.56-50.67-4,31.07,14.34,21.53,37.22-10.76C2579.43,656.69,2507.23,544.52,2507.23,485.79Z"/>
  </g>
  <g class="stubbleBlack">
    <path d="M1426,632.76c-34.91,6.92-40.07-4.19-68.62-4.37-27.36-.21-39.66,11.68-67.56,5.79C1321.5,659.31,1389.25,661.47,1426,632.76Z"/>
    <path d="M1432.22,522.71c-11-33.83-27-45.05-77.47-44.18-43.77.76-59.94,9.8-75.7,46.8,58.27-14.5,53.29-23.75,59-24.39,10.88,6.41,23.69,5.77,35.94.5C1381.63,502.89,1394.45,514.39,1432.22,522.71Z"/>
  </g>
  <g class="hairOverlapLine">
    <path d="M1214.18,1301.73c-4.28,6.69-8.57,12.32-12.88,16.21"/>
    <path d="M1148.3,1359.33a50.91,50.91,0,0,1-15.88,3.41c19.14-15.34,35.39-34.24,50.17-54.93"/>
    <path d="M1531.65,281c9.75,3.9,17.16,9.75,25.34,14.43-.83-6.36-9.35-17.94-17.54-25.34"/>
    <path d="M1184.4,261.59a81.25,81.25,0,0,1-23.35,19.65,143.72,143.72,0,0,0,14.24-25.63"/>
    <path d="M611.64,298.08c5.12,2.33,17.21,13.17,21.46,13.66-.83-6.36-2.23-15.58-6.31-24.48"/>
    <path d="M251.61,303.74c-9.54,5.1-17.83,8.8-24.05,10.16"/>
    <path d="M2393.25,470c36,3.77,33.39-14.41,8.06-26.1"/>
    <path d="M2068.84,463.21a63.33,63.33,0,0,1-25.16,1.5"/>
  </g>
</svg>
