<svg viewBox="0 0 404.02 467.37">
  <g class="liz">
    <path class="lizJeans" d="M384,245c4.72,25,2.19,70.51-4.05,102.91-1.35,6.08,2.7,6.08-.17,9-1.35,3.88,2.87,3.54.17,6.41,1.18,18.9-3,38.74-5.91,56.12l-17.89-.68c-1-19.23-6.38-41-5.06-54.6.43-4.39-.91-5.88-1-14.34-.07-5.47-5.08-17.05-4.9-61.24-1.86,42.62-5.19,56.93-4.89,61.74.34,5.54-1.36,10-.84,14.52,1.86,16.16-4.2,35.43-5.23,53.92l-18.4.34c-1.57-18.52-5.75-40.72-4.72-55.74-2.4-2.13.76-3-.34-7-3.48-1.27.93-3.34-1.35-12.83-6.46-26.85-10.13-72.87-3.88-98.36Z"/>
    <g class="lizJeansCuff">
      <path d="M374.44,417.07c1.7.75.94,7.15-.43,7.06-2.57,5.77-15.58,7.69-19.54.19-1.8-1.05-.68-8.11,1.5-8.6C357.94,417.94,372.3,418.81,374.44,417.07Z"/>
      <path d="M334.38,416.33c1.72,0,1.59,7.95-.12,7.92-.23,6.36-16.76,5.15-18.54-.12-1.39,0-1.46-7.16-.07-7.18C318.55,418.81,332.36,418.31,334.38,416.33Z"/>
    </g>
    <g class="soleLightTan">
      <path d="M379.5,459.13c-.18,1.53-.58,3.24-1.38,3.84-5,3.75-19.25,3.54-22.6.56-.68-.61-2.72-1.93-3-4.38-.64,0-1.29-.19-1.42-.77a73.9,73.9,0,0,1-.51-11.33Z"/>
      <path d="M308.52,459.13c.19,1.53.59,3.24,1.39,3.84,5,3.75,19.25,3.24,22.59.25,2.14-1.91,1.83-2.59,2.67-4.07.64,0,1.6-.19,1.73-.77a74.15,74.15,0,0,0,.5-11.33Z"/>
    </g>
    <g class="lizShoe">
      <path d="M374,424.13a41.88,41.88,0,0,0,.14,13.3c.93,4.39,1.17,8.54,2.84,11.55,1.57,2.82,3.57,6.12,2.51,10.15-3.78,4-24.69,6.6-26.47-2.63-.82-4.27-2.47-6.24-2.41-9.45.13-6.7,4.82-12,3.85-22.73.72.76,1.16.55,1.16.55C356.59,421.66,365.12,429.92,374,424.13Z"/>
      <path d="M315.72,424.13a27.9,27.9,0,0,1-2,13.45c-1.67,4.17-1.57,9.16-3.24,12.17-1.57,2.83-3.17,5.89-2,9.38,3.79,4,24.86,5.95,25.7-2.63.52-5.29,3.24-6.24,3.18-9.45-.12-6.7-4.11-12.06-3.14-22.8-.57,1.25-1,1.42-1.81,1.56C331.42,422.56,321.91,429.1,315.72,424.13Z"/>
    </g>
    <path class="lizShirt" d="M364.43,133c13.84,7.12,30.9,6,34.93,28.28-4.43,2.59-14.81,6.78-19.42,8.16-1.05,2.1,5,7,1.69,17.53-.76,2.41,2.69,5.14-1.56,7.82-.33,2.17,1,5.78-1.05,8.42-.89,1.62,2.72,4.66-.81,10.58,1.72,2.42,2.33,6.78,2.2,11.34-.1,3.32,3.7,13,4.55,22.19a122.7,122.7,0,0,1-37.56,11.19,100.1,100.1,0,0,1-2.84-15.74,68.57,68.57,0,0,1-2,14.8c-13.19.28-27.32-8.16-38.61-9.11,4.84-17.64,2.27-24.07,5.6-27.79a8.9,8.9,0,0,1-.19-8.72c-2.09-4.84,1.61-9.49-1.14-19.73-3.89-6.73-3.51-14.89,0-22.16-6.2-2-17.37-7.19-18.87-8.88,7.16-21.8,16.39-19.91,34.32-27.91"/>
    <path class="lizShirtCollar" d="M364.65,132.44c2.09,2.87-1.7,10.23-4.86,16.35-1.86-3.84-4.26-9.83-6.28-10.88l-19.39-.14c-2.73-1.43-5.28,6-8.23,9.76-2-5.44-3.69-13.72-2.93-14.76,2.34-3.23,4.1-7.12,6.83-7.42h28.74C361.34,124.82,361.54,128.17,364.65,132.44Z"/>
    <circle class="hairBlackDark" cx="357.2" cy="116.68" r="11.42"/>
  </g>
  <g class="oldBennett">
    <g class="soleTan">
      <path d="M249.59,458.92a2,2,0,0,1-.32,2.36c-6.28,4.44-23.36,5.3-27.8-1.18-1.59-1.86-4.51-1.55-5.32-3.41a2.9,2.9,0,0,1-.09-2.47Z"/>
      <path d="M200,452.87a3,3,0,0,1,.16,2.89c-1.51,2.36-2.84.77-4.38,3.45-4.74,8.28-24.91,7.32-29.16,1.88-.75-1-1.2-2-.6-2.63Z"/>
    </g>
    <g class="oldBennettShoe">
      <path d="M218,431.52c-1.77,6.27-4.57,15.16-1.91,22.7.93,2.62,4.82,2.36,6.54,4.55,5.16,6.58,25.23,3.3,27,.15,7.4-13.21-8.78-10.06-12.4-26Z"/>
      <path d="M197.07,431.88c2.63,6.77,4.72,13.48,2.89,21-.78,3.19-3.6,1.76-4.61,4.32-3.18,8.11-25.88,7-29.37,1.27-2.58-4.24,0-7.64,3.35-10.47,3.55-3,2.46-8.75,8.22-14.93Z"/>
    </g>
    <g class="clothingBrass">
      <path d="M242.71,442.91a19.51,19.51,0,0,1-2.42-2.84c-5.37-.87-11.22-.38-15.47,1.68l2.08,2.92C231.26,442.64,237.09,442.18,242.71,442.91Z"/>
      <path d="M172.83,441.08c-.38,1.06-.69,2.05-1,3,4-.78,9.62-.79,14.11,1.1l2.79-2.71C183.78,440.11,176.27,440.05,172.83,441.08Z"/>
    </g>
    <path class="oldBennettPants" d="M246,217.06c2,14,5.14,30.18,4.42,43.95-1.65,31.7-2,60.16-5.65,81.27-.89,5.1-1.22,59.91-3.93,92.33a30.65,30.65,0,0,1-10.31,2.94,135.49,135.49,0,0,1-14.48-1.23L207,334.18c-3.44,35.11-4.17,84.22-5.4,99.69a54.24,54.24,0,0,1-15,3.93,71,71,0,0,1-13.5-2.43c-1.72-31-5-64.21-4.18-83-2.46-5.92-1.87-16.39-3.19-26.52-3.77-29-2-70.22,1-108Z"/>
    <g class="oldBennettVest">
      <path d="M184.87,105.43c1.38,23.43,18.95,54.3,25.93,56.74v60.08c.32,1.09-13.29,12.16-14,12.28-1,.17-29.09-10.52-28.58-13.69-.2-3.66,1.73-35.31-.06-66.41,4.65-16.25,2.78-36.85,3.08-44.17C171,109.56,180.2,107.41,184.87,105.43Z"/>
      <path d="M231.48,106.11c.09-.5,14.76,3.8,15,4.92-.64,18.6-1.94,34.65,2.46,46.31-4.27,45-.53,60.1-1.35,60.41.54,1.12-28.25,15.27-30,14.76-1.3-.38-12.19-8.57-12.19-9.79l-.4-59.08C218.28,155.33,227.37,132.15,231.48,106.11Z"/>
      <path d="M242.48,196.59c.72,0,.72,4.8,0,4.8-5.88.87-13,3.16-19.15,3.05-.7,0-.76-5-.07-5C230.07,199.32,236.49,197.26,242.48,196.59Z"/>
    </g>
  </g>
  <g class="eye">
    <g class="sclera">
      <circle cx="66.54" cy="57.09" r="23.77"/>
      <circle cx="208.74" cy="55.73" r="24.68"/>
      <circle cx="212.37" cy="196.97" r="17.8"/>
      <circle cx="343.86" cy="71.99" r="23.56"/>
    </g>
    <g class="irisDarkBrown">
      <circle cx="222.53" cy="54.38" r="3.47"/>
      <circle cx="195.36" cy="54.38" r="3.47"/>
      <circle cx="80.05" cy="56.04" r="3.47"/>
      <circle cx="53.27" cy="56.04" r="3.47"/>
      <ellipse cx="203.74" cy="198.58" rx="2.94" ry="3.01" transform="translate(-10.6 11.49) rotate(-3.15)"/>
      <ellipse cx="224.34" cy="197.13" rx="2.74" ry="3.01" transform="translate(-10.48 12.61) rotate(-3.15)"/>
      <circle cx="357.13" cy="83.18" r="3.33"/>
      <circle cx="330.83" cy="83.25" r="3.33"/>
    </g>
    <g class="pupil">
      <circle cx="222.53" cy="54.38" r="1.35"/>
      <circle cx="195.36" cy="54.38" r="1.35"/>
      <circle cx="80.05" cy="56.04" r="1.35"/>
      <circle cx="53.27" cy="56.04" r="1.35"/>
      <ellipse cx="203.73" cy="198.43" rx="1.14" ry="1.17" transform="translate(-10.59 11.48) rotate(-3.15)"/>
      <ellipse cx="224.33" cy="196.99" rx="1.07" ry="1.17" transform="translate(-10.48 12.61) rotate(-3.15)"/>
      <circle cx="357.13" cy="83.18" r="1.29"/>
      <circle cx="330.83" cy="83.25" r="1.29"/>
    </g>
  </g>
  <g class="skinIndian">
    <path d="M363.09,107.56c-3.3,4.53-5.77,15.64-2.74,20.58.36,4.42-2.75,7-6.84,9.77-2.37,1.62-5.72,10-9.76,14.51-3.21-7-6.71-13.17-9.63-14.65-3.64-1.86-5.85-4.64-5.86-9.12,1.89-3.18,2.09-15.33-.59-19.45"/>
    <path d="M276.55,251.88c3.57-13.42,7.18-32,11.82-49.11,1.86-6.85,1.32-26.92,3.49-39.88a109.4,109.4,0,0,0,16.38,7.18c-3.52,7.27-3.9,15.43,0,22.16.27,1,.47,1.91.63,2.8-1,5.75-1.74,10.91-2,15.15,1.29,17.16-13.23,29.1-19.8,44.25-1.3,5.08,2.71,5.44.47,14.06-1.13,4.35,1.77,7.8-3.25,20,.42,1.75.32,3.3-1.67,4.1a2.34,2.34,0,0,1-3.82,1.4c-1.25,1.35-4-2.89-6.24-4.75-2-1.59-3.32-11.33-2.75-17.72C270.36,267.71,275.64,255.32,276.55,251.88Z"/>
    <path d="M385.69,263.3c1.88-21.39-4.82-34.79-2.35-54.18-.32-4.21-1.67-9.65-2.12-15.22,2.38-2.38-.27-4.78.41-6.92,3.33-10.5-2.74-15.43-1.69-17.53a133.24,133.24,0,0,0,17.87-7.31c2.32,13.07,2.21,31,4.57,42.75,3.95,19.74-1.52,36.44-3.73,56.54-.51,5,4.7,9.74,4.1,20.24-.49,9.4-1.08,10-3.77,11.08-2.68,2.7-7.81,6.21-9.65,4.79-2,1.31-3.19.16-5,.92-2.85.75-1.17-4.87,2.19-4.54,2.94-2.6,2.68-3.77,2.7-7.64,0-3.69-2-4.87-2.87-8.64-.25,3.61-1.43,4.6-1.34,6.19,1,6.22-4.62,7.87-4.79,4.43.5-3.11-.25-4.58.32-7.84C381,267.41,385.63,266.13,385.69,263.3Z"/>
    <path d="M372.17,104.63c-6.64,12.38-9.58,14.29-18.84,19.17-2.91,1.54-4.33,3.16-9.57,3.09-5.68-.06-7.18-2.52-10.92-4.15C262.83,83.24,373.59-26,372.17,104.63Zm-20.12-20a35.68,35.68,0,0,0,5.26.57,17.83,17.83,0,0,0,6.26-1.67,10.46,10.46,0,0,0-6.63-2.5,9,9,0,0,0-6.43,3.19C349.94,85,351.61,84.62,352.05,84.66ZM337,84c-2.31-2.26-4-3.22-6.82-3-2.63.24-4.75,1.85-6.22,2.5,2.11.82,3.59,1.65,6,1.76s3.89-.78,5.44-.74C335.84,84.57,337.75,84.73,337,84Z"/>
  </g>
  <g class="oldBennettShirt">
    <path d="M276.06,208c1.34-2.53.79-6-.88-10.09a11.55,11.55,0,0,0-1-8.19,13.27,13.27,0,0,0-2.05-11.56c.54-2.86,1.39-5.92-.88-7,.14-4.94-1-10.51-2.92-16.52-1.72-7.05-.94-13.19-2.49-19.74-.6-2.57-.26-5.3-1.4-7.91-2.44-9.58-9.94-12.24-18-15.63-.63,18.47-1.9,34.41,2.48,46-.88,9.28-1.42,17.29-1.73,24.16,1.4,2.34,3.15,4,3.71,6-1.22,2.65-1.58,4.23.48,5.71-1.51,3.44-1.19,6.29,1.27,8.46-1.44,2.68-.54,5.24,1.17,7.75C249.78,228.54,282.52,223,276.06,208Z"/>
    <path d="M208.69,160.86c11.17-9.89,18.93-30.79,22.68-54.08-10.08-1.4-15.78,1.93-22.7,4.2-11.45-5.39-17-6.31-23.76-4.86C186.44,127.36,200.89,154.34,208.69,160.86Z"/>
    <path d="M141.88,184.85c-1.72-2.41.36-6.74,1.29-11.53.82-4.25.3-8.91,1.93-12.07,1.43-11.76,2.34-24.83,5.55-32.71,4.42-10.84,12.07-14.85,20.58-18.09-.26,7.47,1.54,27.87-3.07,44q.18,3.1.31,6.21c-2.9,15.63-1,20-5.76,24,.2.71.21,1.3-.22,1.6,4.64,2.7,1.61,7.36,3.65,12.11,1.84,1.87,2.39,2.27,2.35,4.69,2.24,1.71,2.65,4.51,2.23,7.79,3.13,1.42,3.51,2.29,2.68,6.25,1.33,2.63,1.15,4,.68,5.39,1.41,5.93,4,7.85,4,10,0,2.87-13.38,8.25-15.13,6-1.49-1.93-.76-5.2-3-9.25-3-1.37-4.85-1.46-4-4.61-2.68-.76-4.31-2.41-4.15-5.59-2.74-1.94-4.15-4.73-3.28-9-2.45-1.49-4-3.59-3.08-7.42C137.4,188.24,143,187.33,141.88,184.85Z"/>
  </g>
  <g class="oldBennettCollar">
    <path d="M224.31,96.39c2.57-.09,3.69,6.09,6.49,9.27,1.56,5.2-10.08,12-13.33,14.63-2.58-4.58-3.4-11.16-6.29-10.2C212.88,108,224.54,106.25,224.31,96.39Z"/>
    <path d="M193,96.68c-.21,7.65,9.78,10.35,12.88,13-3.54-1.11-3.74,7.16-6.7,11.29-5.24-4.28-12.39-10.49-12-16.39C190,100.67,190.5,95.8,193,96.68Z"/>
  </g>
  <g class="oldBennettBowtie">
    <path d="M223.26,107.65c-2-1.39-7.17,2-11,4.61a17.09,17.09,0,0,1-.17,5.57c1.62.8,6.05,4.32,10.93,3.63C224.79,121.22,225.29,109.05,223.26,107.65Z"/>
    <path d="M205,112.19c-2-1.42-6.44-5.21-9.63-4.44-2.92.71-2.81,13,.21,14.16s7.39-2.16,9.73-3.53A18.09,18.09,0,0,1,205,112.19Z"/>
    <path d="M205.53,118.74c-.71-.37-.92-6.34-.4-6.95s2.52.2,3.42.2,2.81-.79,3.53-.2.38,6.67-.41,7-1.8-.31-2.91-.31S206.57,119.29,205.53,118.74Z"/>
  </g>
  <g class="sockWhite">
    <path d="M212.25,444.84a27.72,27.72,0,0,1,1.35-5.16c2.9,1,10.71,1.3,13.2.61.87,1.17,0,2.52.58,4.28C229.16,451.1,216.07,450.14,212.25,444.84Z"/>
    <path d="M199,444.75c-.64-2,.52-3.83-.58-4.9-3.15,1-11.92,1.16-14.08.31-1,1.16.15,2.83-.74,5C181.1,450.93,196.9,448.76,199,444.75Z"/>
  </g>
  <g class="soleWhite">
    <path d="M74.51,453.05c-.55,1.86-.73,5.16,0,6,1.21,1.68,5.31,2.37,6.51,3.18,6.41,4.31,29.64,1.37,31.78-1.34,1.33-4.21-2.28-10.27-5.17-11.15C97.94,442,83.19,446.17,74.51,453.05Z"/>
    <path d="M61.82,452.55c.55,1.87.72,4.85,0,5.68-1.21,1.68-8.25,2.8-9.58,3.38-10,4.4-31.9,3.37-34,.66a11.48,11.48,0,0,1,8-13.87C39,444.14,53.14,445.68,61.82,452.55Z"/>
    <path d="M238.53,460.79c1,5.08-9.64,7-16.59,5.83-4.39-.74-11.31-2.45-12.46-4.07s-1-3.75-.59-5.66C223.91,454.69,235.28,455,238.53,460.79Z"/>
    <path d="M201.55,457.35c.33,1.79.78,3.65,0,5.12-1.57,3.06-7.39,4.21-13,4.55-9.8.6-14-1.66-12.42-6.78Z"/>
  </g>
  <g class="bennett">
    <g class="bennettShoe">
      <path d="M77.51,425.45c1.72,12-2.06,16.85-3,27.6,1.26,1.87,3.22,1.89,6.25,2.87,2,.64,2.5,1.38,5.06,1.9,1.57-9.83,15.8-10.64,21.77-8.1-7.37-4.44-11.33-14.31-11.08-26.68C92.84,415.88,84.23,420.77,77.51,425.45Z"/>
      <path d="M58.82,425c-.78,12.08,2.4,13.94,3,27.6-1.26,1.88-6.34,2.23-9.37,3.21-2,.64-5.38,1.74-8,2.27,1-10.49-15.58-10.59-18.23-9.63C32.35,446,41.81,435.76,41.12,424,44.79,416.81,52.1,420.27,58.82,425Z"/>
    </g>
    <g class="shoelace">
      <path d="M97.17,432.2a31.06,31.06,0,0,0-11.2.5,67.77,67.77,0,0,0,3.12,14.44c2.89-1.27,10.1-1.71,14.12-1.13A28.43,28.43,0,0,1,97.17,432.2Z"/>
      <path d="M31.7,444.85c4.11-.31,10.46.48,13.32,2,1.58-4.9,3.77-9.3,4.21-14a31.7,31.7,0,0,0-9-1.32A29.49,29.49,0,0,1,31.7,444.85Z"/>
    </g>
    <g class="converseLogo">
      <path d="M80.23,450.22c3.71.6,3.9-10.74.26-11.5S76.42,449.6,80.23,450.22Z"/>
      <path d="M55.18,450.34c-3.72.6-3.91-10.74-.27-11.5S59,449.72,55.18,450.34Z"/>
    </g>
    <path class="bennettJeans" d="M105.59,230.85c1.47,3.11,4,11.39,3.63,21.57.4,24.28.34,48.1-2,64.26-.89,6,1.55,11.56-1.87,18.32-2.68,5.27,1.49,11.35-.86,15.29-2,26.44,2.6,40.54-3,49.73-2.73,4.51,4.9,7.68-.23,14.53-3.21,3.25,2.28,8.3-4.5,14.85-.27-5.13-9.15-5.22-11.32,0-4.17,1.72-5.53,4.77-7.71,5.81-1.65-5.55-6-6.63-2.26-12.07,2.38-3.44-2.9-4.24-.52-8.48s-3.26-6.08-1.68-13.72c1.73-8.34-.55-20.26.63-32,.7-7-2.43-14.35-2.43-23.58,0-6.4-1.32-14.28-1.32-24.82,0-7.36-2.19-24.82-2.63-39.75-.8,21.47-3,40.62-2.32,49.89.71,9.72-2.77,22.69-1.86,33.32.94,11-.61,20.48-1,34.34-.21,7.12,2.45,14.6-1.69,20.81-2,3.05,4,8.25,1,12.18-2,2.66,1,3.55-1.8,7.11-3.27-2.54-6.11-6.24-9.84-6.86.76-5.43-7.74-8.59-10.21,1.32C32.74,426,39,421.28,37,419c-7.42-8.55-1.33-35.89-3.57-57.14-.68-6.5-2-12.08-.56-16.65-5.59-15.52-2.68-14.93-3.63-19.72-5.15-26-4.53-50.73-4.34-73.43.08-10.08,3.08-15.38,3.36-22Z"/>
    <path class="bennettSleeves" d="M84.09,104c5,.22,9.89,3.59,15,5.21,6.82,2.15,13.32,3.54,17.59,6.64,8.79,6.39,11,36.36,9.87,57.58.35,5,3.42,9.24,1,12.72,3.23.12.18,4.77,4.29,13.66.9,2.18-21.85,5.66-22.17,3.75-1.69-1.7.13-6.52-3.83-8.86L28.43,179c.35,2.72-1.68,5.77-2.85,7.07-1.53,1.7,1.43,2.74-1.2,6,2.24,2.81-1.28,6.6-.82,10.71.05.76-21.62,1.72-22.21.87-1.27-3,.65-5.18.68-7.54-2.44-1-2.25-5.72-.17-9-.78-9.52,2.43-15.72,2.83-25.92.53-14,1.58-26.42,5-35.72C15.47,109.7,35.28,108.85,49.8,103Z"/>
    <path class="shirtWhite" d="M87.41,113.19c-8.35,11.25-34.21,11.25-41.4.15-7.12,3-18.12,11-21.7,17.29-.13,3.72,1.72,4.86,2.75,6.6.7,1.18-1.23,1.65,1.24,3.17-1.65,13.34-.68,35.35-.68,46.9,0,2.85-2.91,3,0,6.33,1.78,24.35-4.54,21.46-.28,26,0,3-2.85,4.38.41,7.84-1.48,1.87-.27,4.81-.82,7.29,13.61,3.71,24.76,11,39.2,11.28,21.59.41,26.41-7.29,41.4-13.07-.82-1.51-.43-3-1-4.81,2.77-4.74-1-6.61-.28-12.38,2.23-3.67-.82-5.64-.13-10.6,2.06-4.26.48-5.74.55-8.66.08-3.37,1-6.86-.55-10.18-.55-8.39,1-15,.68-21.6-.41-9.48.83-17.74-.68-27,2-.7,1.65-4.54,2.34-7.29C103.63,122.54,95.7,118.11,87.41,113.19Z"/>
  </g>
  <g class="christopher">
    <g class="christopherShoe">
      <path d="M216.5,447.65c1.69-3.15,9-4,10.39-.83a8.18,8.18,0,0,0,.49-2.25c3.91,13.19,11.46,7.91,11.15,16.22-4.37-3.19-12.44-1.68-16.59,2.63-5.57-.35-10.06-2.33-13.05-6.53.27-2.65.27-10.07,3.36-12.05A5.23,5.23,0,0,1,216.5,447.65Z"/>
      <path d="M195.19,447c1-1.16,2.37-2.27,3.82-2.22,1.88,2.25,1.77,9.09,2.54,12.6-1.79,2.92-4.64,4.88-9.09,6.29-1.92-4.46-12.16-4.67-15-1.31-2.66-1.55-.89-4.14,1.9-7,2.81-2.39,1.9-7.51,4.26-10.15l.27,1.82C186.58,443.62,193.35,443.86,195.19,447Z"/>
    </g>
    <g class="christopherStrap">
      <path d="M216.57,451c1.05,2.1,2.82,3.37,5.15,5.08a22.55,22.55,0,0,1,12-2.08c.84.09-1.11-2.17-2.85-2.46.69-.54-.48-1.78-1.45-2.08A16.78,16.78,0,0,0,216.57,451Z"/>
      <path d="M196.61,450.83a10.48,10.48,0,0,1-3.72,5.24c-3-1.5-10.71-1.19-13.85-.41-.71.18.56-2.14,2-2.9-.84.11-.4-1.42.53-1.93C184.7,449.14,192.64,449,196.61,450.83Z"/>
    </g>
    <path class="christopherShorts" d="M235.87,318.75c2.26,11.45,1.35,28.84,2.09,44.3-2.58,3.81-24.67,5.28-29.46,2.46-.8-5.22-.24-9.41-1.23-14.85-.59,5.82,0,10.26-.61,14.94-3.07,2.57-26.48,2.91-31.39-1.38.86-14.12.09-27.43,1.69-38,.39-2.57,0-4.66.86-7.61Z"/>
    <path class="christopherWaistband" d="M177.4,320.55c12.62,1.44,44.4,2.47,58.77-.14-.23-1.32.25-2.36-.26-4.12l-58.23.17C177.21,317.32,177.58,318.85,177.4,320.55Z"/>
    <path class="christopherShirt" d="M176.8,316.54c1.15-3.06-2.78-3.75.11-8.14-4-6-1.11-7.48-.76-11.81.63-7.79,0-14.95,1-23.62-4.52,0-13.69-2.26-17-4.14,4.65-8.55,6.54-20,11.68-25.63,3.5-3.79,14.07-5,20.35-7.66l26.64-.13c8.41,2.76,17.26,2,22.61,7.16,2.35,2.29,2.4,5.47,3.26,7.92s2,1.63,1.64,6.9c1.63,4.15,2.51,8.8,4.57,12.2a36.61,36.61,0,0,1-15,4.39c-1.62,21.1,3.78,26.25-.87,30.9.75,2.76,3.73,4.66.72,7.55,1.7.34,1.23,2.94.82,3.85C220.11,321.09,190.69,320.05,176.8,316.54Z"/>
    <g class="triceratopsLogo">
      <path d="M203.82,283.44a9.69,9.69,0,0,1-1.36-.19c-.21.4-.44.82-.71,1.24-1.24,1.79-.24,2.32.24,3.32a5.3,5.3,0,0,0,2.21-.37C204.16,286.06,202.74,285.71,203.82,283.44Z"/>
      <path d="M232,275.72c.81-1.83.87-3.19-.2-4.23a5.28,5.28,0,0,0,.26-3.92,6,6,0,0,1-1.88,2.9,13.75,13.75,0,0,0-1.79-.61,9.26,9.26,0,0,1-3.7-2,12,12,0,0,0-.84,1.6c.11-1.48,2.26-5.31,4.73-7.47-2.87,1.08-5.32,4-6.51,6.16a6.23,6.23,0,0,1,1-2.11,12.65,12.65,0,0,1-2-4.89c-1.16-1.34-3.68-.19-3.21,1.52a1.84,1.84,0,0,0-2.15,2.88,1.84,1.84,0,0,0-1.4,3.13c-1.67.72-1,3.57.71,3.24-1.91.78-2.6-2.35-1.26-3.25-6.4-3-12.42-4.79-17.85-.91-2.38,1.71-4.21,5.92-6.64,8.65-2,2.31-6.11,3.33-10.35,3.26a13.31,13.31,0,0,0,13.63-.33A12.42,12.42,0,0,0,197,282c.63-1.72-1.3-2.13-1.27-4.8.38,2.62,2.11,2.81,1.62,4.87-1,3.92,0,5.35,0,6.91a8.87,8.87,0,0,0,4.6-.05,3.83,3.83,0,0,0-.34-1.12c-.54-1.14-1.32-1.57-.2-3.35,2.21-3.55,2.52-6.32,1.09-9.23,1.34,1.63,1.7,4.43.09,7.75a20.21,20.21,0,0,0,7.51-.33,8.7,8.7,0,0,1,1.09-4.09c-2,5.83.6,7.9.62,10.43.74.34,3.94.39,4.58,0a1.84,1.84,0,0,0-.45-1.15c-.25-.35-1.34-1.14-1.18-4.5.06-1.26.83-2.51,2.51-3.62,4.85-3.35,9.08,1.23,13.15-2.21a6.42,6.42,0,0,1-4.52-1.29C228.51,276.18,229.7,274,232,275.72Z"/>
      <path d="M217.08,280.21a4.2,4.2,0,0,0-2,3.11c-.1,2.17.25,3.54,1.35,4.51a3.47,3.47,0,0,0,1.78-.31C217.91,285.21,215.22,285.56,217.08,280.21Z"/>
    </g>
  </g>
  <g class="clothesDisplayLine">
    <path d="M206.15,322c.46,10-.66,19,1.12,28.64"/>
    <path d="M216.7,321.94c5.56,6.39,12.43,9.63,20.52,9.21"/>
    <path d="M197.71,321.83c-4.67,5.54-13.39,10.46-21.32,9.32"/>
    <path d="M62.31,245.8c-1.25,3.45.26,7.66-.11,11.94-.45,5,1.9,8.88,2.14,13.6.29,5.58,2.18,6.1,3.19,9.41"/>
    <path d="M71.92,245.94c-1.57,3.29-.43,6.23-.71,8.8-.72,6.58,4.86,15.17-6.87,16.6"/>
    <path d="M88.33,242.25a19.9,19.9,0,0,0,14.07,3.62"/>
    <path d="M47.23,242.06c-3.17,3.18-8.66,5-16.94,3.95"/>
    <path d="M44.5,458c-6.27,1.18-22.64,0-25.94-1.66"/>
    <path d="M85.82,457.82c7.38,1.46,22.87,0,26.38-2.83"/>
    <path d="M344.59,245.07c-.15,8.88.61,23.24.15,29.12a65.11,65.11,0,0,0,.45,14.33"/>
    <path d="M353.72,257.51c.53,4.36-.22,8.62,0,12.41.26,4.83-3.08,7.56-9.16,8.18"/>
    <path d="M326.41,254.73c-5,3.91-11.84,5.56-20.05,5.11"/>
    <path d="M366.48,254.48A25.64,25.64,0,0,0,382,259.13"/>
    <path d="M356.89,416.33c-1.42.94-2.25,7.33-1.26,8.54"/>
    <path d="M333,417c.92,1.3,1.1,7.26.22,8.54"/>
  </g>
  <g class="clothesOverlapLine">
    <path d="M216.5,447.65a6.39,6.39,0,0,0,1.29,2.71"/>
    <path d="M226.89,446.82a7.39,7.39,0,0,1,.62,2.19"/>
    <path d="M195.19,447a5.4,5.4,0,0,0-1.28,3"/>
    <path d="M183.88,447a7.92,7.92,0,0,0-1.22,3.34"/>
    <path d="M235.26,255.73c1.1,5.74.73,12.24.68,18.25"/>
    <path d="M179,257.19c-1.46,5.66-1.46,10.87-1.84,15.78"/>
    <path d="M85.45,429.4c.81,1.32.26,2.06.52,3.3"/>
    <path d="M97.65,434.53a34.53,34.53,0,0,0-11.39.63"/>
    <path d="M98.27,436.78a33.68,33.68,0,0,0-11.61.9"/>
    <path d="M99.07,439.06a35.42,35.42,0,0,0-11.92,1"/>
    <path d="M100.13,441.39a38.15,38.15,0,0,0-12.38,1.15"/>
    <path d="M101.41,443.61a37.9,37.9,0,0,0-13,1.18"/>
    <path d="M50,431.54a1.86,1.86,0,0,0-.78,1.32"/>
    <path d="M39.39,433.94a27.4,27.4,0,0,1,9.48,1.27"/>
    <path d="M38.29,436.33a26.49,26.49,0,0,1,10,1.28"/>
    <path d="M37,438.56c2.89-.49,7.29.24,10.52,1.3"/>
    <path d="M35.47,440.76a27.27,27.27,0,0,1,11.16,1.58"/>
    <path d="M33.68,442.89c3.53-.55,9.33.18,12.17,1.56"/>
    <path d="M204.84,118.65c.82,10.79-.31,23,0,37.95"/>
    <path d="M208.67,111c-1,.42-2.36-.11-2.83.54"/>
    <path d="M355.63,424.87c-.46,1.8.4,7.46-1.58,13"/>
    <path d="M332.45,425.81c.9,1.65,1,9.08,2.42,13.29"/>
    <path d="M343.75,152.42c2.8,8.26.8,8.84,0,14.54C343,172,346,173,344.3,180s.39,9.34-.09,15c-.62,7.27-2.16,8-.14,16.88,1.32,5.8.14,19.11.49,30.83"/>
  </g>
  <g class="clothesBorderLine">
    <path d="M218.43,453.45a20.66,20.66,0,0,1,12.41-1.92"/>
    <path d="M195.47,453.29a34.1,34.1,0,0,0-14.46-.53"/>
    <path d="M211.18,119c.78,10.3-.19,24,0,39.43"/>
    <path d="M257.72,219.63c0-2.83-.87-5.13,0-7,2.38-5.19,14.06-6.19,15.73,0,.39,1.46-.47,2.52-.29,4.26"/>
    <path d="M160,229.26c.16-4.72,8.64-8.16,14.08-6.75"/>
  </g>
  <g class="clothesFoldLine">
    <path d="M212.46,114.44c7.46-1.62,12.8-2.55,8.6,1.21"/>
    <path d="M213.46,116.51a32.79,32.79,0,0,0,8.57,2.76"/>
    <path d="M204.94,116.38c-2.75,1.39-5.38,2.35-7.69,2.27"/>
    <path d="M204.85,114.64c-6.55-2.81-11.85-1.92-6.88.61"/>
    <path d="M210.43,133.71a61.22,61.22,0,0,1-12.79-.14"/>
    <path d="M218.34,135.55a85.77,85.77,0,0,1-14.83.46"/>
    <path d="M251.33,125c-1.89,4.28-3.49,8.5-3.46,12.47"/>
    <path d="M251.18,133q-1.55,5.59-5.23,7.93"/>
    <path d="M256,123.71c-.48,9.15-3.25,16.71-9.73,21.7"/>
    <path d="M258.33,133.1a28.36,28.36,0,0,1-6.77,10.16"/>
    <path d="M254.8,146a31,31,0,0,1-5.87,11.39"/>
    <path d="M253.72,154.72c-1.65,2.58-2.69,5.85-4.31,8.16"/>
    <path d="M263,143c-1.31,12.23.7,24.8-10.93,27.16"/>
    <path d="M268,153c1.38,8.38-1.62,16.38,3.27,18.11"/>
    <path d="M267.34,174.72c-16.39-3-23.39-.07,1.23,6.16"/>
    <path d="M247.41,177.21c3.17.41,4.31,1.38,1.52,3.44"/>
    <path d="M252.49,181.57a8.83,8.83,0,0,1,7.78.08c1.18.75-5.47,1.15-9.36,5.89"/>
    <path d="M274.16,189.72c-3.2-3.65-6.81-5.74-11.21-4.84"/>
    <path d="M256,187.19c3.69.07,7-1,7.85.38,1.07,1.69-5.62.16-10.54,6.93"/>
    <path d="M270.57,192.57c-6.54-3.54-15.19.21-14.24,2.23.62,1.31,9.31-4.61,17.08,3.47"/>
    <path d="M252.66,201.71a3.42,3.42,0,0,1,2.14-3.37"/>
    <path d="M271.26,200c-3.77,3.15,3,3.31,4.8,8"/>
    <path d="M262.1,203.73c3-1.69,9.24,2.31,1.54,2.15"/>
    <path d="M253.83,209.46c3.66-9.35,13.9-10,13-11.89-.69-1.38-6.62-.84-10.31,2.08"/>
    <path d="M168,127.49a25.41,25.41,0,0,0,2.86,11.2"/>
    <path d="M170.34,143.49c-4.88-7.12-6-20.48-8.78-19.37-3.13,1.26-.55,5.07,1.22,8.34"/>
    <path d="M164.54,141c-13.12-18.85-11.1-4.21,3.07,17.46"/>
    <path d="M156.12,146.24c1.69,7,6.59,12.64,5.36,13.79-1.63,1.53-5.87-2-8.8-7.89"/>
    <path d="M149.08,148.24c1.22,7.73,6,18.6,10.64,19.21"/>
    <path d="M148.46,157.58c-.6,12.84,8.66,26.49,14.93,21"/>
    <path d="M145.1,161.25c-.13,3.2,2.1,10.71,1.36,16.24"/>
    <path d="M162.71,184.68c-12.46-5.69-22.45,1.87-16.77,1.77"/>
    <path d="M162.49,186.28a19.68,19.68,0,0,0-12.44,0"/>
    <path d="M152.54,191.34c3.49-1,9.27-1.25,11.55,1.69"/>
    <path d="M166.14,198.39a6.25,6.25,0,0,0-4-1.18"/>
    <path d="M145.45,202.68c4.4-7.46,11.13-7.88,9.58-8.85-2.39-1.5-8.76.29-9.86,2"/>
    <path d="M148.53,210.1c.52-2,2.83-3.2.92-4.72"/>
    <path d="M158.71,196.61c-6.66,3.88-5.57,4.59-3.38,4.68,3.08.15,9.06-2.24,13.16,1.79"/>
    <path d="M151.81,219.06c-.47-6.71,8.78-11.69,10.69-13.47,1.64-1.54-2.79-2.8-6.87-2.24"/>
    <path d="M170.72,210.87c-5.53-2-9.52,1.32-9.12-.47"/>
    <path d="M167.68,213.49a9.32,9.32,0,0,1,5.72,3.63"/>
    <path d="M156,224.65c0-1.07.81-1.8,2-2.34"/>
    <path d="M166.08,215.5c3.89,1,4.78,4.56.1,4.26"/>
    <path d="M245,308.17a19.49,19.49,0,0,1-6.85,9.46"/>
    <path d="M168.82,342.46c1.22,4.23,2.78,7.68,5,9.7"/>
    <path d="M239.52,423.57c-1.16,4.06-2.89,7.26-5.43,9.22"/>
    <path d="M174,400.87c.76,9.93,2.37,18.21,6.39,23.41"/>
    <path d="M168.94,352.35a10,10,0,0,0,2.72,3.35"/>
    <path d="M247.66,447.05c-3.12-2.64-12.67-1.86-16.07.26"/>
    <path d="M182.8,448.45c-4.69-1.87-9.41-2.16-13.47-.46"/>
    <path d="M169.85,269.4a13.22,13.22,0,0,1-1.56-4.87"/>
    <path d="M170.2,264.53a4.79,4.79,0,0,0,1.36,3.26"/>
    <path d="M178.09,250.26c-1.31,4.6-1.59,8.8-.12,12.31"/>
    <path d="M182.51,256.14c-.52,1.42-2.87,5-4.31,4.91"/>
    <path d="M190,266.69a37.52,37.52,0,0,0,4.12,11.5"/>
    <path d="M189.19,274.93A73,73,0,0,0,195,291.1"/>
    <path d="M176.91,308.4c2.84,3.4,7.35,2.82,4.19,5"/>
    <path d="M179.34,302.15c10.56,10.66,23.13,15.43,38.53,11.91"/>
    <path d="M233.45,298.39c-2.07,3.93-4.61,7-7.84,8.84"/>
    <path d="M235.79,312.43a9.44,9.44,0,0,1-5.16,2.38"/>
    <path d="M235.07,304.88c-4.74,5.36-18.08,11.28-4.39,6.87"/>
    <path d="M225.36,276.89a62.76,62.76,0,0,1-6.83,14.81"/>
    <path d="M229.38,273.67a61.34,61.34,0,0,1-3.12,11.86"/>
    <path d="M230.88,254.58a17.48,17.48,0,0,1,3.82,6.73"/>
    <path d="M238.07,251.27A20.07,20.07,0,0,1,236,262.15"/>
    <path d="M244.6,257.19c-.25,2.92-1.46,7.14-2.86,9.1"/>
    <path d="M246.38,257.39a26.81,26.81,0,0,1-2.94,11.41"/>
    <path d="M126.54,173.43c-.46,5.76-4.18,5.44-1.46,9.24"/>
    <path d="M118.15,189.15c6.75-12,.17-4.56-8.1,3.37"/>
    <path d="M109,196.07c5.74-2.53,18.9-3,8.94,0"/>
    <path d="M110.05,184.26c3.55-1.35,4.9.84-1.68,4.55"/>
    <path d="M107,182.74c12.35-1.2,16-14.8,17.37-31.72"/>
    <path d="M106.76,170c3.88-4,7.73-13.27,11.56-24.63"/>
    <path d="M108.5,130.49c.61-2.55.32-7.58-.79-11.27"/>
    <path d="M114.65,124.91a30.12,30.12,0,0,1-7.89,17.79"/>
    <path d="M118.32,122.62a34.85,34.85,0,0,1-11.43,23.11"/>
    <path d="M106.16,137.78c-5.32-6.3-3.84-11.4-1.18-3.86"/>
    <path d="M38.74,152.16c9.13,1.93,19.44,2.36,30.5,1.84"/>
    <path d="M60.6,157a151.81,151.81,0,0,0,34.7-1.26"/>
    <path d="M106.16,186.34c-4.62,5.56-11.77,8.34-20.23,9.68"/>
    <path d="M102,185.83a12.49,12.49,0,0,1-5.32,3.1"/>
    <path d="M104,202.15a19.11,19.11,0,0,1-8.94,6.5"/>
    <path d="M106.16,205.18a20.87,20.87,0,0,1-6.94,5.39"/>
    <path d="M102.76,213.89q-11.82,13.28-33.89,16"/>
    <path d="M106.57,228.16c-4.59,3-10.31,4.47-17.39,4.12"/>
    <path d="M99.51,223.05c-3.91,3-17.35,5.39-9.37,5.68"/>
    <path d="M91,235.16c-13.73,4.52-27.37,5.22-40.91.73"/>
    <path d="M27.75,227.47c2.73,2.23,6.42,3.52,10.55,4.36"/>
    <path d="M36.45,228.22c6.11-1.67-3.91-3.7-9.11-8.59"/>
    <path d="M33.79,219c4.66,4.44,10.48,6.84,17.21,7.68"/>
    <path d="M27.62,193.63A27.5,27.5,0,0,0,36.16,201"/>
    <path d="M33.42,194.76a41.81,41.81,0,0,0,14.85,8.42"/>
    <path d="M2,196.15c3.85,1.69,13.52-.5,8.13,3"/>
    <path d="M16.73,199.19c-6-1.8,2.66-2.51,6.87-3.91"/>
    <path d="M24.38,192.11a35.53,35.53,0,0,1-15.1,2"/>
    <path d="M1.86,187.13c.77,2.24,2.95,3.82,1.8,5.71"/>
    <path d="M19,181.77a16.71,16.71,0,0,0-10-3.62"/>
    <path d="M10.31,162.64c3.56,8.9,7.88,16.14,14.62,18.09"/>
    <path d="M22.79,185.39c-4.8,1.18-13.19,0-13,1.4.36,2.56,7.27,1.61,13.66.81"/>
    <path d="M17.69,126.83c1.43,6.88,3.81,12.57,8.2,15.73"/>
    <path d="M20.65,121.29c5.32,7.75.59,10.26,4.13,16.17"/>
    <path d="M28.3,140.4c4.83-2,10.15-10,8.15-4"/>
    <path d="M74.79,269.33c5.43-1.59,12.07-2.19,19.31-2.29"/>
    <path d="M77.36,277.49a99,99,0,0,1,18.89,4.43"/>
    <path d="M60.19,269.62a93.9,93.9,0,0,0-23.89-1.43"/>
    <path d="M60.91,276.49a98.47,98.47,0,0,0-18.75,7.29"/>
    <path d="M72.35,287.93a99.08,99.08,0,0,1,11.31,26.62"/>
    <path d="M51.18,338.59c-6,1.86-13-.72-16.89-4.3"/>
    <path d="M32.88,345.17c1.17-2.06,1-4.88.13-8.16"/>
    <path d="M41.45,347c6.58,2.29,11.87,3.29-2.86,6.87"/>
    <path d="M57.47,339.87c-14.45,4.3-16,2.72-5,8.59"/>
    <path d="M102.83,331.43c-2.86,3.29-4.86,8-1.29,11.31"/>
    <path d="M99.25,332c-9.58,9.3-12.16,9.73-22,2.72"/>
    <path d="M78.65,340c9.44,2.57,14.59,4.43.14,7.72"/>
    <path d="M96.82,350.89c-5.64-3.42-12.59-2.8-20.75,1.58"/>
    <path d="M98.11,398.68c-6.15,4.15-18.74,5.44-1,9.45"/>
    <path d="M78.79,411.27c5-4.47,8.8-2.28,14-1.14,4.62,1-2.44,4.43-13,6.72"/>
    <path d="M96.68,414.85c-6.87,2.43-12.45,2.58-5.72,6.3"/>
    <path d="M79.51,419c7,2.43,10.73,2.72.57,9"/>
    <path d="M53.32,401.4c3.58,2.55,7.22,5.09,3.87,8.73"/>
    <path d="M43.74,400c-2.31,7.6-12.74,7.87-4.87,12.73"/>
    <path d="M59.33,412.56c-8.3,3.72-16,4.28-1.71,10.45"/>
    <path d="M38.16,414.71c5.58,1.86,11.53,1.21,1.28,6.72"/>
    <path d="M60.62,428.16c-4.29-2.86-15.49-5.22-20.75-2.58"/>
    <path d="M235.54,345.94c-1,6.4-2.46,10.85-2.8,15.6"/>
    <path d="M220.66,342.87c-1.44-1.2-6,1.9-10.29,6.68"/>
    <path d="M209.38,352.43c2.49.32,4.88.81,6.59,2.62"/>
    <path d="M193,346.48a32.1,32.1,0,0,1,10.47,4.78"/>
    <path d="M202.71,353.34c-1.3-.21-3.92,2-6.68,4.42"/>
    <path d="M210.81,322a17.64,17.64,0,0,1,.19,5.61"/>
    <path d="M208.93,322a15.36,15.36,0,0,1,0,2.63"/>
    <path d="M203,322a12.86,12.86,0,0,0-.06,4.22"/>
    <path d="M234.55,321a11.94,11.94,0,0,1,.63,5"/>
    <path d="M233.11,321.22a4,4,0,0,1,.18,2.35"/>
    <path d="M181.42,320.94c-.06.81,0,2,0,2.9"/>
    <path d="M179.33,320.75a23.67,23.67,0,0,0-.17,5.43"/>
    <path d="M379.94,169.45c-1.74-3.51-4.7-5.21-8.59-5.52"/>
    <path d="M315.64,167.78c-2.36-1.85-6.14-.72-7.4,2.29a5.66,5.66,0,0,1,5.92-5.8"/>
    <path d="M342.25,158.84a49.41,49.41,0,0,0-7.36.56"/>
    <path d="M340,157.36a31.67,31.67,0,0,0-6.68-1"/>
    <path d="M341.12,174a32.08,32.08,0,0,0-7-1.36"/>
    <path d="M339.08,175.14c-2.9.28-6,.45-9.29.57"/>
    <path d="M340.78,176.62a37.18,37.18,0,0,0-6.69,1.81"/>
    <path d="M341.23,193.94c-2.57,0-5.47.07-8.61.23"/>
    <path d="M340.1,195.41a29.76,29.76,0,0,0-6.46,1.81"/>
    <path d="M339.76,212.28a44.52,44.52,0,0,0-7-1.58"/>
    <path d="M353,158.61c-2.82-.07-5.46-.09-7.82,0"/>
    <path d="M350.63,172.51c-2.24,0-4.37.39-6.26.23"/>
    <path d="M355.16,175.08c-3-.23-6.59-.27-10.39-.22"/>
    <path d="M352,177.16q-3.53-.37-7.19-.54"/>
    <path d="M353.15,194.17c-3.22-.12-6.23-.17-8.88-.12"/>
    <path d="M353.15,196.94a62,62,0,0,0-9-1"/>
    <path d="M355.39,211.09c-3.22.24-6.2.38-8.9.4"/>
    <path d="M352.13,213.72q-3.86-.54-7.86-.71"/>
    <path d="M380.48,149.6c-2.09,5.93-3.09,11.9-1.75,17.94a20.72,20.72,0,0,1,6-12.39"/>
    <path d="M372.48,167.19a10.33,10.33,0,0,1,7.46,3.59"/>
    <path d="M304.9,158.61a13.54,13.54,0,0,1,4.47,7.95c1.7-2.59,2.21-5.17,3.28-7.16"/>
    <path d="M308.24,149.47c1.4,5.53,2.17,11.16,1.13,17.09"/>
    <path d="M310.57,190.39a12.94,12.94,0,0,0,5.8,5.48"/>
    <path d="M308.23,192.23a16.83,16.83,0,0,0,5,4.78"/>
    <path d="M309.37,212a4.11,4.11,0,0,0,2,2.19"/>
    <path d="M309.56,220.68c.82,1.35,1.92,1.88.19,3.5"/>
    <path d="M378.21,213.8c-.75,1.68-3,2.56-.63,3.82"/>
    <path d="M379,203.22c-1.25,1-2,1.53-.62,3.24"/>
    <path d="M378.4,192.59a20.92,20.92,0,0,1-8.57,5.36"/>
    <path d="M380.07,194.8a26.47,26.47,0,0,1-6.4,4.35"/>
    <path d="M340.56,280.93c-9.24-2.9-19.14-2.9-29.43-1.23"/>
    <path d="M341.61,285.21c-4.89-.27-11.62,1.13-15.2,3.14"/>
    <path d="M351,281c7.27-3,16.31-3.62,26.29-3"/>
    <path d="M350,285.47a30.34,30.34,0,0,1,15.11,1.92"/>
    <path d="M379.79,356.85a39.86,39.86,0,0,1-16.35,2.62"/>
    <path d="M380,363.26c-5.13,2.36-11.44,3.32-19,2.76"/>
    <path d="M310.77,356.34a39.81,39.81,0,0,0,12.67.6"/>
    <path d="M311.11,363.3c4,1.12,14.78,1.45,22.29-.12"/>
    <path d="M313.23,354.23a44,44,0,0,0,13.18.26"/>
    <path d="M319.51,361.65a58.18,58.18,0,0,0,13-.78"/>
    <path d="M372.87,356.76a61.73,61.73,0,0,1-14.93.79"/>
    <path d="M378.46,361.57a22.34,22.34,0,0,1-10.39,2"/>
    <path d="M331.92,409.84a16.35,16.35,0,0,1-12.32,3.06"/>
    <path d="M127.51,186.15c-1.23,2-2.47,3.92-1.86,5.16"/>
  </g>
  <path class="clothesEdgeLine" d="M230.57,437.55c-.36-4.35-.45-11.14-.42-18.85"/>
  <path class="lipFemaleBrown__noStroke" d="M333.87,107.51c.45,11,18.6,11,19.78-.06Z"/>
  <path class="lipFemaleBrown" d="M354.83,107.16c-1.89.57-4.34-1.49-6.05-1.77-2.65-.44-3.66,1-8.34-.19-2.58-.68-4.31,2.33-7.82,2.18C339.72,108.2,351.67,108.24,354.83,107.16Z"/>
  <g class="skinEastAsian">
    <path d="M193,96.68c-.21,7.65,9.78,10.35,12.88,13h0c.9.4,1.84.83,2.83,1.29.9-.3,1.78-.61,2.65-.93l-.14,0c1.7-2.07,13.36-3.84,13.13-13.7h0c.06-2.13.16-4.15.32-6.07l-32.2-.46c.18,2.15.34,4.42.46,6.81Z"/>
    <path d="M220.59,225.31c-2.14,2.34-2.4,5.91-1.72,10.1-2,8.12-24.81,8.69-26.64.13,1-6.43-.48-19.72-4.93-19.75"/>
    <path d="M272.51,289.23c-1-.78-1.8-3.53-2.31-6.88-7.12,1.65-14.07-.77-19.75-2-.67-3.07-.86-6.52-1.7-9.64-3.9,1.77-9.59,3.23-12.81,3.23a98.54,98.54,0,0,0-.19,12.75c.95,3.93,2.29,6.4,4,7.2,10,4.82,25.63-1.83,35.09-2.38A26.59,26.59,0,0,0,272.51,289.23Z"/>
    <path d="M162,269.66a80.37,80.37,0,0,0-2.82,11.07c-6.56-3.81-14.74-1.41-20.91-5.49l-5.57,8.5c7.46,5.06,18.23,14.45,31.13,12.95,5.61-.66,10.33-8.68,12.85-16.61h0c.09-2.28.24-4.63.53-7.11C173.29,273,166,271.32,162,269.66Z"/>
    <path d="M235.17,364.77c-6.65,2.42-22.24,3.06-26.49.83-.39,17.32,2.8,20.85,2.45,31-.67,19.53,2.5,29.08,2.8,43.21a35.92,35.92,0,0,0,12.58.58c2.67-15.81,5.4-31.88,4.59-42.93C230.52,389.6,233.24,388.6,235.17,364.77Z"/>
    <path d="M178.76,365.89c1.63,20.34,4.34,22.1,3.74,30.1-1.26,16.88,2.1,30.21,2.55,44.37a40,40,0,0,0,12.72-.33c1.39-16,5.25-21.31,5.56-43.07.16-9.69,2.58-13.18,2.59-30.94C201.75,367.84,186.4,368.18,178.76,365.89Z"/>
    <path d="M84.19,88.58c-1.14,1.46-1.75,12.84-.1,15.42,5.24,15.45-40,17.85-34.29-1,1.14-1.69,1.85-9.72.13-16.42"/>
    <path d="M8.05,246c.5,3.82-5.87,11.49-6.93,19.67-.3,2.28-1.4,9.75,2.07,11.11.52,2.67,2.6,7.43,5.21,7,1.28,2.34,2.41,4.32,5.38,4,2.06,1.46,2,3,4.6,2.27,1.93-1.14,1.36-4.69-.63-6.51-.27-1.4.42-4.18.14-6.8A40.23,40.23,0,0,1,19,271c-.28,8.07,6.43,10.7,6.08,6.37-.29-3.65.29-6.08.43-9.69C26,254,22,254.7,21,249.08c-1.52-17.82,3.19-32.59,2.13-46.06-2.73.63-17.08,1.27-20.86.89C2,213.34,7,230.81,8.05,246Z"/>
    <path d="M136.5,246.05c-4.54-16.75-3.59-33-5.79-46.08-2-1.61-20,1.58-20.26,3.36,0,10.35,11.66,24.55,13.36,43.11.2,6-2.83,7.67-1.74,18.12,1,3.9-.32,5.92,1.22,8.51,1.57,2.17,1.21,4.53,2.61,4.52,6.32-1.74,1-8.17,3-13.39,4,4.9,4.68,8.8,4.53,10.77-.84,2.94-.55,7-1.33,7.62-3.32,4.39-.07,8.46,2.14,6.39.45-1.14,1.24-1.93,2.54-4,2-.7,3.32-2.33,4.33-5.59,4.75-1.25,4.12-12.14,3.92-13.61C144.35,261.25,139.79,254.52,136.5,246.05Z"/>
    <path d="M275.41,228.66c-.29,4-.44,12.27-2.41,15.14-2.95,3.41-4.92,6.28-10.44,2.95a6.85,6.85,0,0,1-7.64-2.19,5.29,5.29,0,0,1-3.32-3.93c-2.95-1.29-2.27-4.69-2.95-8.47,1.59-2.27,4.84-1.74,5.14,1.13a1.73,1.73,0,0,0,1.51-.91c-.6-5.55.21-15.46,7.93-16,3.66-.25,8-3.74,14.9,5.39,4.22,4.06,10.69,6.47,7.34,10.76C282.89,235.18,279,231.12,275.41,228.66Z"/>
    <path d="M167.37,264.14c-1.92,1.77-4.67.18-6.55-1.87-1.72-1.88-3.44-4.37-1.15-6.61-1.92-4.11,0-6.8,1.2-9.63.92-2.24-1.45-6.78,3.69-8.74,1.62-.61,2-4.63,7-5,1.82.05,9.36-3.23,12.64,1.66,2.61,3.89,1.87,8.43,3.07,12.49-.94,2.13-7.08.68-7.19-4.84-.43-2.61-2.76-4.61-5.76-2-1.4,1.41-1.45,7.43-.16,9.55,5.1,5.45,1.4,10-2.48,6.84,3.65,2.85,3.41,7.31,0,7.13C171.49,264.63,169.6,265.07,167.37,264.14Z"/>
    <path d="M281.45,270.23c.4,4.35-2.2,10.95,1.45,11.35,4.68.12,2.4-7.52,4.59-13.09,1.77-.26,2.41,1.49,1.47,2.73s-.49,2.6-1.64,3.51c2.57,2,.57,3.5,1.42,5.18,1.75,3.42-1.5,4-2.15,5.62.22,1.88-2.09,2.4-3.19,3.65-1.67,2.26-3.94,2.14-7.3.15-4.6-2.71-5.55-7.3-2.05-7.1-3.51-2.67-3.25-5.65-.8-5.7-3.35-2.6-1.05-6.15,2-4.75C273.9,268.23,277.5,267.13,281.45,270.23Z"/>
    <path d="M128.19,267.32a4,4,0,0,1-.87-3.32c.84-2.42,2.75-1.36,4.88-1.73a1.44,1.44,0,0,1,1.36,2.23c4.14-1.69,5.55,2.54,2.7,4.41,2.64.4,1.67,4.57-2,5.85,2.27.33,1.8,4.23-1.6,5.18-.12,1.18-.24,2.39-.62,2.65a3.07,3.07,0,0,1-2.73-5.42c-1.8-.05-2.8-3-.92-4.79C126.64,272,126.8,269,128.19,267.32Z"/>
    <path d="M242.49,50.68c2.48,1.36,2.94,7.78.06,16.13-1,2.8-.92,6.14-4.86,5.59-1.87,13.68-9.77,18.21-17.93,24.58-5.67,4.43-16.11,4.09-21,.22S183.27,90.61,180,72.77c-4.59,0-3.74-2.15-5.43-6.65-2.93-7.83-1.43-15.06.84-15.63C174.62-4.42,241.7-4.23,242.49,50.68Zm-40.76,4c-2.72-2.05-4.16-2.35-6.52-2.28-2.75.09-4.59,1.9-5.84,2.59,2,.54,2.46,1,5.37,1.1,1.68.07,4.13-.72,5.85-1C201.05,55.07,202.61,55.37,201.73,54.71Zm15.62.66c1.64.14,3.4.91,5.08.84,2.86-.13,4-1,6-1.58a11.54,11.54,0,0,0-6.16-2,7.19,7.19,0,0,0-5.89,2.32C215.57,55.72,216.89,55.33,217.35,55.37Z"/>
    <path d="M100,51.65c2.49,1.36,3.75,8.31.16,16.59-1.18,2.72-1.56,6-5.89,6.25C91,87.93,84.66,91.35,75.55,97.66c-4.62,3.2-13.5,3.29-18.44-.1C50.59,93.08,42.42,87.83,39,74.68c-4.59,0-4.7-2.38-6.39-6.89C29.7,60,32.06,52.69,33.6,52,32.85.4,99.3.06,100,51.65ZM59.62,56.78c-1.54-2.47-4.28-3.08-6.64-3-2.74.09-4.63,2-5.88,2.67,2,.57,3.48,1.4,6.34,1.53a13.8,13.8,0,0,0,4.93-.63C58.8,57.21,60.2,57.71,59.62,56.78Zm15.72.61a20.42,20.42,0,0,0,4.89.82,22.85,22.85,0,0,0,6.45-1.41c-1.24-.69-3.21-2.92-6.36-3-2.36,0-4.69.53-6.23,3C73.51,57.75,74.89,57.29,75.34,57.39Z"/>
    <path d="M224.61,171.66c7.45,16.57,6.57,18.38,6.43,23.5-.1,3.48,5,21.11-4.1,29.86-4.16,4-4.61,6.56-10.1,7.47-5.09.85-7-.42-11.29-1.64A30.9,30.9,0,0,1,192,223.12C148.63,206.29,186.41,147.47,224.61,171.66Zm-15.72,26.86c-1.54-1.69-2.79-2.44-4.86-2.22a9.18,9.18,0,0,0-5.21,2.78,13.25,13.25,0,0,0,5,.94c1.49,0,2.85-.9,4.36-.85C208.53,199.19,209.48,199.17,208.89,198.52Zm11.57-.24c1.24,0,2.53.34,3.95.23,1.75-.14,3.09-.31,4.28-1.74-1.08-.46-2.06-2-4.81-1.79-2.38.16-3.18,1.3-4.37,2.59C218.71,198.44,220.07,198.29,220.46,198.28Z"/>
  </g>
  <g class="skinOverlapLine">
    <path d="M3,271.24a23.63,23.63,0,0,0,.2,5.53"/>
    <path d="M7.15,272.87A22.59,22.59,0,0,0,8.4,283.78"/>
    <path d="M12.14,273.5c-.28,5.36-.35,10.09,1.64,14.31"/>
    <path d="M19.6,265.56A15.6,15.6,0,0,1,19,271"/>
    <path d="M141.07,279.44c.88-3.47,1.54-7.33.84-10.54"/>
    <path d="M139.19,269.81c.56,6.77-.35,11.73-2.45,15.22"/>
    <path d="M159.67,255.66c1.43,3.22,4.57,7.32,7.7,8.48"/>
    <path d="M161.24,246.81a20,20,0,0,0,10.48,16.29"/>
    <path d="M166.56,241.28c-.15,6.61,1.72,12.36,5.15,14.69"/>
    <path d="M254.92,244.56c-1.53-4.43.73-5.93.09-8.79,3.72-2.27,6.24.76,6.06,5"/>
    <path d="M262.56,246.75c-1.64-1.45-4.08-1.4-4.16-2.44,1.06-4.92,6.14-4.71,8.59-2"/>
    <path d="M255.91,235.31a2.12,2.12,0,0,0-2.12-2c-5.21.84-2.39,3.67-2.19,7.34"/>
    <path d="M265.18,241a4.41,4.41,0,0,1,3.38-1.84"/>
    <path d="M267.49,235.55a8.4,8.4,0,0,0-.62,4"/>
    <path d="M273.15,227.37c.9.71,1.67.81,2.26,1.29"/>
    <path d="M395.62,285.7c-.42,7-1.67,8.31-6.29,11.84"/>
    <path d="M399.91,285a18.68,18.68,0,0,1-.93,7.73"/>
    <path d="M278.75,294a3,3,0,0,0,.95-3.1"/>
    <path d="M282.57,292.58a2.54,2.54,0,0,0-.67-2.1"/>
    <path d="M128.19,267.32c1.13-1.08,3.84-2.12,5.37-2.82"/>
    <path d="M128.41,272.38a20.27,20.27,0,0,1,7.85-3.47"/>
    <path d="M129.33,277.17a9.72,9.72,0,0,1,4.95-2.41"/>
    <path d="M274.05,282.23c2.73,2.26,5.67,4.21,7.49,4.81"/>
    <path d="M273.25,276.53c3.43,2.15,8.62,5.46,11.41,6.34"/>
    <path d="M275.25,271.78a66.18,66.18,0,0,0,5.88,3.77"/>
    <path d="M287.32,274.73a8.25,8.25,0,0,0-.92-.72"/>
    <path d="M238.16,55.25c-.53,4,.9,8.73-.47,17.15"/>
    <path d="M180.09,56.17c.14,4.87-.94,9.47-.09,16.6"/>
    <path d="M96.3,56.73c-.52,4-.63,9.35-2,17.76"/>
    <path d="M37.61,56.82c.52,4.41.32,10.48,1.42,17.86"/>
  </g>
  <g class="skinFoldLine">
    <path d="M159.13,280.73c1.6.79,5.18,3.75,5.18,5.69"/>
    <path d="M250.45,280.39c-2.36-.48-5.94,0-7.54,1.33"/>
    <path d="M281.76,282.76a3.62,3.62,0,0,1-1.55,2.26"/>
    <path d="M279,287.36a2.94,2.94,0,0,1-1.3,1.8"/>
    <path d="M278.49,226.18a3,3,0,0,0-1.77,3.43"/>
    <path d="M239.2,56.26c3.28-5.79,4.1,1.68,2.77,6.11"/>
    <path d="M238.29,66.17c2.19,1.32,1.68-3.18,2-4.12,1.33-3.68-.11-3.57-.8-3"/>
    <path d="M178.4,55.31c-2.28-4.25-4.92,2.46-2.34,8.36"/>
    <path d="M179.69,67.39c-2.54-.45-1.73-2.7-2.14-3.62-1.79-4-.21-5.49.6-4.36"/>
    <path d="M96.88,57.74c3.68-6.18,5.07,1.1,2.86,6.63"/>
    <path d="M96.37,66.81c2.2,1.33,1.28-2.55,1.79-3.41,2-3.29.81-4.18,0-4.13"/>
    <path d="M37.6,57.82c-3.7-5.41-6.1,1.75-3.51,7.65"/>
    <path d="M38,68.12c-2.53-.46-1.72-2.37-2.13-3.28-1.79-4-.21-5.49.6-4.37"/>
    <path d="M185,206.44c-3.56-6.87-10.41.18-3.58,6.3"/>
    <path d="M184.36,208.11c-1.55,1.46,2.93,3.82,1.64,4.81-.9.69-1.61-1.45-2.85-2-2.32-1.12-2.56-4.37,0-3.77"/>
    <path d="M314.76,85.54c-1-7.15-4.65,1.19-1.48,7.46"/>
    <path d="M315.64,95.19c-.78.17-.57-2-1.08-3.17-.95-2.12-.74-7.06.6-5.23.75,1.46-.15,3.46,1,5.11"/>
  </g>
  <g class="skinEdgeLine">
    <path d="M398.15,292.43a4.29,4.29,0,0,1-2.73,0"/>
    <path d="M393.21,292.24a4.41,4.41,0,0,1-2.87-.24"/>
    <path d="M401.87,282.4c-1.08,1-2.07-.1-3,.62s-2.6-.08-3.92.5c-1.09.48-2.72-.25-3.71-.2"/>
  </g>
  <g class="skinCreaseLine">
    <path d="M226.12,394.66a16.72,16.72,0,0,1-9.47-.12"/>
    <path d="M197.71,394.66c-3.05.9-7.45.9-10.07-.24"/>
    <path d="M263.42,222.21a8.23,8.23,0,0,0,4.12,8"/>
    <path d="M383.34,209.12c2.75-.3,5.29-1.93,9.6-1.7"/>
    <path d="M300,208.25c2.12-.07,4.66,1.35,6.79,1.93"/>
  </g>
  <g class="lipMaleMedium__noStroke">
    <path d="M214.06,213.44a6.75,6.75,0,0,0,5.18-.09c1.51.59.73,2.53,3.18,4.54-1.42,1.33.42,5-6,5.81s-5.72-3.72-8.36-4.89C211.47,216.87,211.8,214.54,214.06,213.44Z"/>
    <path d="M206.58,77.4a7.32,7.32,0,0,0,5.39,0c1.73.49,3.74,2.62,6.64,2.85-3,3.12-2.21,9.76-9.68,9.89s-6.2-7.35-9.35-9.66C203.34,79.88,204.63,77.61,206.58,77.4Z"/>
    <path d="M64.2,78.78a7.34,7.34,0,0,0,5.38,0c2.12.37,4.86,2.25,6.65,2.54-3,3.12-3.44,7.28-9.43,7.44-7.06.19-6-4.85-9.6-7.21C60.32,80.75,62.11,78.67,64.2,78.78Z"/>
  </g>
  <g class="mouthInner">
    <path d="M221.56,217.81a4.73,4.73,0,0,1-1.16-.78h0a7.16,7.16,0,0,1-1.57.77,2.87,2.87,0,0,1,.83,1.18l-.12.09A7.35,7.35,0,0,1,221.56,217.81Z"/>
    <path d="M217.26,80.42a18.62,18.62,0,0,1-3.52-1.29c-2.93-1.26-4.08.91-4.91.42-3.59-2.14-4.78.8-8.17,1C206.51,87.92,211.81,87.69,217.26,80.42Z"/>
    <path d="M74.29,81c-3.37,2.67-11.73,2.75-15,.17-.3.09-.6.18-.9.24,6.23,4.55,11.71,4.37,16.53-.14Z"/>
    <path d="M352.89,107.43l-18.06,0h0c-.16,0-.33.11-.51.15,3.8,6.78,16.07,5.92,19,0A1.89,1.89,0,0,1,352.89,107.43Z"/>
  </g>
  <path class="tongue" d="M218.22,217.34a18.22,18.22,0,0,0-6.39-.22,6.88,6.88,0,0,1-2.7,1.57c2.15.82,3.14,1.79,7.4,1.48a5.37,5.37,0,0,0,3.13-1.19A3.32,3.32,0,0,0,218.22,217.34Z"/>
  <g class="teeth">
    <path d="M220.4,217c-.81-.69-1.58-1.44-2.59-1.09s-1.58.18-3-.23-2.36,1-3.84,2C214,218.7,217.92,218.67,220.4,217Z"/>
    <path d="M216.11,80.1c-1-.34-1.73-.7-2.37-1-2.93-1.26-4.08.91-4.91.42-3.15-1.88-4.45.15-7,.81C205.29,82.55,212.73,82.45,216.11,80.1Z"/>
    <path d="M74.29,81c-4.71-1.51-6.74.43-7.84.05a11.13,11.13,0,0,0-7.19.12C62.56,83.74,70.92,83.66,74.29,81Z"/>
    <path d="M352.89,107.43c-1-.25-2.13-.93-3.06-1.13-2.23-.49-3.92,1.36-9.61-.08-2.14-.53-3.36.5-5.39,1.18C338.68,111.81,349.15,111.36,352.89,107.43Z"/>
  </g>
  <g class="lipOverlapLine">
    <path d="M209.13,218.69a3.47,3.47,0,0,1-1.49.05"/>
    <path d="M222.74,217.75a1.37,1.37,0,0,1-1.18.06"/>
    <path d="M217.81,215.94a2.57,2.57,0,0,0,1.17-.81"/>
    <path d="M199.54,80.27a1.86,1.86,0,0,0,1.12.28"/>
    <path d="M219,80.14a2.36,2.36,0,0,1-1.69.28"/>
    <path d="M56.45,81.4a4.4,4.4,0,0,0,1.91,0"/>
    <path d="M76.91,81a2.35,2.35,0,0,1-2,.3"/>
  </g>
  <g class="lipEdgeLine">
    <path d="M219.24,213.35a6.75,6.75,0,0,1-5.18.09"/>
    <path d="M221.22,220.86c-1.13,3-7.37,3.7-9.23,2"/>
    <path d="M214.63,87.51c-3.35,3.65-8.87,3-11,.24"/>
    <path d="M212,77.36a7.32,7.32,0,0,1-5.39,0"/>
    <path d="M69.58,78.74a7.34,7.34,0,0,1-5.38,0"/>
    <path d="M72.49,86.42a8.38,8.38,0,0,1-11.79,0"/>
    <path d="M336.19,113c3.8,3.9,11.5,3.76,15.19-.59"/>
  </g>
  <g class="cheekLine">
    <path d="M215.35,68.35c1.46,2,4.23,3.91,5,6.86"/>
    <path d="M202.29,68.35c-1.47,1.69-3.8,4.12-4.12,6.18"/>
    <path d="M73.55,69.06A14.14,14.14,0,0,1,77.88,76"/>
    <path d="M60.48,69.25c-1.76,1-3.8,3.63-4.94,6.6"/>
    <path d="M350.34,96.56c2.52,1.69,1.66,3.58,3.49,6.37,1.4,2.14,2.68,2.56,2.42,6"/>
    <path d="M337.35,96.49c-2.46,1.33-2.23,4-3.8,6.18s-2.55,3.22-2.51,5.77"/>
  </g>
  <g class="noseLine">
    <path d="M219.92,204.52c.27,1.92,3.12,2.74,1.21,5.27"/>
    <path d="M210.11,206.62c-.85.45-1.58,3.13.38,3.81"/>
    <path d="M218.23,210c1-.43,1.28-1.22,2.3-1.2"/>
    <path d="M211.79,209.66c1.57-.9,2.31-.18,3.42.35"/>
    <path d="M214.8,66.3c0,2.7,2.7,3.68.46,5.77"/>
    <path d="M202.78,66.47c.06,2.47-2.47,3-.57,5.41"/>
    <path d="M204.07,71.91c1.84,0,1.48,1.08,4.71,1.16,3,.08,3.05-1.25,4.65-1.24"/>
    <path d="M73.55,69.06c2.18,2.29.33,4.22-.25,4.44"/>
    <path d="M60.48,69.25a2.46,2.46,0,0,0-.13,4"/>
    <path d="M62,72.89c1.43,0,1.54,1.53,4.44,1.6,3.52.09,3.28-1.75,5.11-1.75"/>
    <path d="M337.35,96.49c-1.6,2.25-.29,4.28,1.74,4.55,1.7.23,1.85,1.73,4.88,1.7,2.67,0,3-1.44,4.85-1.65s3.7-2,1.52-4.53"/>
  </g>
  <g class="eyeFoldLine">
    <path d="M227.14,200.56a4.69,4.69,0,0,1-4.67.36"/>
    <path d="M207.4,201.55c-1.07.85-4.18,1.53-6,.55"/>
    <path d="M226.64,57.54c-2.53,1.32-5.92,1.21-7.65,0"/>
    <path d="M198.76,57.56c-2.07,1.38-5.81,1.32-7.59-.17"/>
    <path d="M84.45,60.26a7.81,7.81,0,0,1-7.92.18"/>
    <path d="M57.44,60.08c-1.69,1.73-6.17,1.93-8.68-.29"/>
    <path d="M362.78,86c-2.09,2.57-7.19,1.41-9.15.69"/>
    <path d="M334.89,86.63c-1.44.1-7.18,2.68-10.16-.08"/>
  </g>
  <g class="eyeCornerLine">
    <path d="M228.69,196.77a4.51,4.51,0,0,0,1,.4"/>
    <path d="M196.15,200.21a5.13,5.13,0,0,0,2.67-1.13"/>
    <path d="M189.37,55a10.22,10.22,0,0,1-2,1.1"/>
    <path d="M228.4,54.63A12.6,12.6,0,0,1,230.66,56"/>
    <path d="M47.1,56.45a5.72,5.72,0,0,1-1.93,1.12"/>
    <path d="M86.68,56.8a6.57,6.57,0,0,0,1.95.85"/>
    <path d="M324,83.53a3.75,3.75,0,0,1-2.24.24"/>
    <path d="M365.66,83.63a2,2,0,0,1-2.09-.07"/>
  </g>
  <g class="eyeCreaseLine">
    <path d="M189.9,53.25c3.22-3.45,8.11-2.82,10.92-.58"/>
    <path d="M47.33,54.78c3.37-3.41,8.09-3.24,10.71-.86"/>
    <path d="M350.79,82.33A8,8,0,0,1,362.87,82"/>
    <path d="M324.28,82c4.52-4.43,9.54-2.71,11.79-.33"/>
  </g>
  <g class="eyebrowBlack">
    <path d="M194.91,194.91c6-7,10.22-3.92,15.39-4.78C207.65,193.92,201.24,190.49,194.91,194.91Z"/>
    <path d="M231.05,190.62c-4.37-3.85-11.07-.83-12.79-1.38,2,3.25,7.51-.61,12.88,2.94C231.13,191.68,231.11,191.17,231.05,190.62Z"/>
    <path d="M213.65,44.68c3.91,4.77,12.95-.78,18.57,3.2C227.74,41.48,220.41,46.1,213.65,44.68Z"/>
    <path d="M204.62,44.4c-3.28,4.8-12.45-1-18.22,3.16C190.34,40.72,197.24,45.65,204.62,44.4Z"/>
    <path d="M72.32,47.17c3.87,4.6,12.19.24,17.43,3.89C85.77,45.09,79.59,48.68,72.32,47.17Z"/>
    <path d="M62.44,47.26c-3.47,4.47-13.25.07-18.31,3.49C48.68,44.42,55.17,48.77,62.44,47.26Z"/>
    <path d="M320.7,76.53c5.05-3.15,13.61-3.58,17.17-1.14,1,.67-1.85,1.79-3.05,1.3C329.58,74.56,325.65,74.5,320.7,76.53Z"/>
    <path d="M367.28,77c-5.35-4.31-13.83-3.59-17.09-1.66-1,.6,2.2,1.91,3.37,1.36C359,74.09,361.86,74.48,367.28,77Z"/>
  </g>
  <g class="hairBlack">
    <path d="M183.62,225.56c1.39-1.95-.59-4.62-4.25-7.71-6.07-5.11-15.13-23-7.56-39.34l-6.66,6.58c5.33-25.48,38.59-27.31,42.35-26.59-1-5.1-7.22-12-14.2-12.33,8.49-1.68,17.92,6.21,19.76,12.26,2.88-4.57,13.78-5,16.85-.64-3-1.63-11-1-11.47,2.43,13,4.08,16.07,14,23.42,18.4-3.14.36-6.86-1.36-9.13-3.29,4.71,7.11,3.28,13.66,2.39,15.6-2.79-7.53-10.87-4.17-10.61-16.69-1.06,12.68-10.14,16-13.52,17.18,4.31-2.87,6.21-9.5,6-12.55-2.44,7.19-13.93,14.55-24.5,15.62a11.31,11.31,0,0,0-.86-10.13A23.39,23.39,0,0,1,187.12,200a28,28,0,0,0,2.35,11.64c-3.64-3.49-3.66-9.45-4.33-9.14A25.56,25.56,0,0,1,177,208.9c.5,2.33,2.31,4.18,4.66,6s3.22,4.29,7.51,2.48a11.87,11.87,0,0,0,2.87,5.76A7.56,7.56,0,0,1,183.62,225.56Z"/>
    <path d="M175.41,50.49c-4.26-23.08,2.43-33.37,13-41.24-1.76-1.31-3.54-1.77-6.13-.13,2.81-3.66,6.2-3,8.74-1.37.76-4.27,4.69-6.69,9.78-7.31-3.09,1.41-5.64,2.87-6.06,6.26a41.84,41.84,0,0,1,36.41,4.69c8.48,5.81,15,20,11.32,39.29-4.56-.88-1.56,4.77-4.33,4.57-.66-2.24.2-9.2-2.13-12.45-4.71-2.36-10.81-1.74-16.34-4.74.6,1.32,2.64,1.62,3.18,3.42-6.18-3-14.89-2.76-20.9-8,.54,1.2,2.83,2.46,2.77,3.84-5.11-3.72-13.82-4.44-13.35-16.38.18,6.66-.53,9-2.32,11.83.05-1.53.13-2.81.09-4a23.32,23.32,0,0,1-6.62,11c-.83,5.55-2.54,6.34-2.45,16.36C177.65,56.27,179.25,48.88,175.41,50.49Z"/>
    <path d="M33.6,52C29,29.3,35,18.59,46.61,10.54c-2.15-1.15-4-.69-6.6,1,2.81-3.66,5.69-4.26,9.17-2.74,1.23-4.46,4-7.34,9.09-8-3.1,1.41-5.53,3.73-6,7.12,12.19-4.42,26.91-2.51,36.88,4,8.73,5.69,15.22,19.9,10.84,39.76-2.32.1-1.46,5.35-3.74,5.08-.65-2.24.34-6.5-2-9.74-5.88-4.8-14.56-1.06-20.47-5.38.79.92,2.82,2.2,4.06,4-5.63-3.23-10,2.3-18.85-4.53,1.65,1.36,1.78,3.34,2.4,5-5.13-4.17-10.57-4-11.74-16.16,1.3,15-5.15,14.33-7.53,18.88-.23-1.81.91-4,1.15-5.79a11.81,11.81,0,0,1-3.91,4.92,21.58,21.58,0,0,0-1.81,8.88C34.9,56.25,36.2,51,33.6,52Z"/>
    <path d="M386.3,74.34c0-14.19-8.39-19.08-13.68-26.32-7-9.53-28-16.33-40.07-7.63-8-4.14-20.85,9-24.14,16.13-2.78,6-8.64,10.26-9,24.46-.24,11-4.7,21.14,2.24,38.55,1.49,3.72,3.94,4.25,4.05.2,6.91,11.62,18.21,12,11.28,3.63,4.27,2.4,7.44,3.57,9.72,4a5.58,5.58,0,0,1,2.49-1.86,33.21,33.21,0,0,0,.43-4.65c-8.31-5.36-12.87-11.08-13-19.64-3.83.92-3.16-3.31-4.29-5.77-5-10.89-.28-19.51,2.49-15.13.5,1,.1,4.64,1.69,4.18-.15-5.23-.21-9.62,2.2-13.58a8.2,8.2,0,0,0,2.79-1.37c-6.41,5.13,10.17,3.81,11.44-6.14,0,7.67,9.82,13,7.42,6.17,10.58,4.92,21.05,3.36,15.74.12a44.84,44.84,0,0,0,12.58,2.27c2.52,11.2,1.49,23.8-1,31-1.4,4.1.62,5,3.24.72-4.39,13.7-13.93,23.4-15,25.39-1.53,2.78,4.25,3.8,12.18-2.75-2,6.6,7.8.13,12.25-7.8-.62,4.78,2.21,3.31,5.73-1.66C397.42,100.67,386.3,83.39,386.3,74.34Z"/>
  </g>
  <g class="stubbleBlack">
    <path d="M219.76,97c-5.38,1.07-6.18-.64-10.57-.67-4.22,0-6.11,1.8-10.41.89C203.65,101.07,214.09,101.41,219.76,97Z"/>
    <path d="M220.71,80c-1.7-5.21-4.16-6.94-11.93-6.8-6.75.11-9.24,1.51-11.66,7.21,9-2.24,8.2-3.66,9.09-3.76a6,6,0,0,0,5.54.08C212.92,77,214.89,78.75,220.71,80Z"/>
  </g>
  <g class="hairOverlapLine">
    <path d="M187.12,200a12.67,12.67,0,0,1-2,2.5"/>
    <path d="M177,208.9a8.13,8.13,0,0,1-2.45.53,42.24,42.24,0,0,0,7.73-8.46"/>
    <path d="M236,42.8a31.37,31.37,0,0,1,3.9,2.23c-.13-1-1.44-2.77-2.7-3.91"/>
    <path d="M182.54,39.81a12.81,12.81,0,0,1-3.6,3,21.82,21.82,0,0,0,2.19-4"/>
    <path d="M94.31,47c.79.35,2.65,2,3.31,2.1a13.06,13.06,0,0,0-1-3.77"/>
    <path d="M39.42,47.94a16.26,16.26,0,0,1-3.71,1.56"/>
    <path d="M368.74,71.92c5.55.58,5.15-2.22,1.24-4"/>
    <path d="M318.77,70.87a9.91,9.91,0,0,1-3.87.23"/>
  </g>
</svg>
