<svg viewBox="0 0 125.19 442.94">
  <g class="motherSole">
    <path d="M97.94,430.64c.59,2.67.87,7,0,8.17-3.57,5-25.11,5.41-28.24-.33-.87-1.6-1-5.26-.43-7.84Z"/>
    <path d="M54.36,431c.48,2.37.47,6.58-.25,7.68-2.53,3.88-24.56,3.66-27.81-.62-.66-.87-.84-4.75-.59-7.41Z"/>
  </g>
  <g class="motherSandal">
    <path d="M91.64,416c3.42,7.82,7.87,13.91,5.69,17.46-2.69,4.37-23.08,5.92-27.64-.44-1.75-2.44,2.84-10.11,3.9-17.13Z"/>
    <path d="M32.09,415.89c-2.81,6.19-8.74,14-5.32,16.91,4.91,4.2,24.18,5,27.06.41,1.94-3.08-2-9.2-2.86-17.47Z"/>
  </g>
  <path class="motherShorts" d="M101.81,220.45c0,5.39,4,3,5.11,49.53q-42.4,9.82-89.22.24c1.31-48.47,4.73-45.5,4.55-49.84Z"/>
  <path class="motherShortsCuff" d="M17.18,268.64c.5,3.18,44.77,4.75,45.55-1.16,1.19,5.78,38.49,4.73,44.64.53-.14,2.42,3.07,4.34.58,6.67-1.73,1.61.91,3.45-.16,9-2,3-43.74,3.79-45.19.24-3.94,2.1-44,3.42-45.84,0-1.63-4.51,2.16-5.54.21-7.95C15.37,274,17.38,272.16,17.18,268.64Z"/>
  <g class="motherShirt">
    <path d="M63.54,125.28c.32-11,8.77-20,18-28.82,13.43,7,29.35,6.84,34,17,3.1,6.78,3.48,16,6.49,26.34-4,2.28-16,5.86-20.81,6.87,0,17.59-3.36,25-.35,55,.71,7,0,12.24,2.06,19.6-2.5,4.08-34.25,9.08-37.35,8.59-.94-1.11-1.87-4.16-2.81-7.92C61.08,187.53,61.11,155,63.54,125.28Z"/>
    <path d="M63.54,125.28c-1.67-11.36-9.71-20.48-22.79-27.83-11.73,5.29-26.92,8.28-30.32,15.87-3.72,8.3-3.58,14.74-7.19,26,5.47,2.79,15.34,5.65,21.09,7A159.56,159.56,0,0,0,25,169c.57,7.44,0,8.87.54,31.76-3,4.57-1.69,14.86-4.21,21C27,227.35,44.61,228,60,230c1-1.11,1.88-4.42,2.77-8.14,1.62-14.75-.67-19.05.45-28.63,1.69-14.43.48-23.31.19-38.47C63.12,141.74,65.49,135.06,63.54,125.28Z"/>
  </g>
  <g class="motherShirtCollar">
    <path d="M122,139.79c-4,2.28-16,5.86-20.81,6.87,0,2.63-.07,5-.19,7.32,5.72.11,22.27-5.24,23.8-6.69C125.55,147.12,123.3,139,122,139.79Z"/>
    <path d="M24.33,146.25c-5.75-1.32-15.62-4.18-21.09-7-1.18-.43-3.7,7.29-2.8,7.74,3,2,19,7.32,23.79,7.73C24.21,152.48,24.25,149.75,24.33,146.25Z"/>
    <path d="M63.54,125.28c1.3-7.79,8.75-11.45,15.85-15.29a74.54,74.54,0,0,1,13.88,4.08c-3.43-5-4.34-13.07-8.16-15.91C81.84,95,79.72,88.49,73,88l-22.9-.2c-4.44.72-6.33,4.79-9.68,7.73C35,100.36,32,110.32,28.29,115.79c4.82-1.88,10.6-3.24,15.59-5.63C52.37,115.3,59.07,115.87,63.54,125.28Z"/>
  </g>
  <g class="clothesDisplayLine">
    <path d="M62.73,221.9c.43,5.5-.29,11.16-.26,15.5.08,11.18,1.18,21.81-.79,26.27-.26,2,1.18,1.18,1,3.81"/>
    <path d="M80.47,228.07c3.15,4.6,18.78,3.81,23.57,2.07"/>
    <path d="M41.72,228.07c-3.81,3.16-16.95,3.68-21.49,2.62"/>
  </g>
  <g class="clothesOverlapLine">
    <path d="M100.13,137.18c0,3.39,1.05,6.52,1.05,9.48"/>
    <path d="M26.59,129.26c-.34,6.22-2.79,11.94-2.26,17"/>
    <path d="M62.73,267.48c0,2.5,1.52,4.45-1.38,5.67,2.3.47.67,3.22,1.95,3.65-2.62,1,0,3.65-.7,7.1"/>
  </g>
  <g class="clothesFoldLine">
    <path d="M100,126.36c-.48,4.22-1.43,7.48.17,10.82,2.1-2.78,1.51-7.51,2-12.36"/>
    <path d="M23.79,115.33c-1.06,3.84-.77,14,1.24,17.36"/>
    <path d="M39.5,163.62c1,4.76,3.24,9.16,5.39,13.56"/>
    <path d="M34.12,164.16a246.94,246.94,0,0,0,4.94,30.07"/>
    <path d="M45.79,157.07a32.38,32.38,0,0,0,11.85,2.07"/>
    <path d="M77.48,153.84a49.52,49.52,0,0,1-14.08,2.42"/>
    <path d="M70.2,158.69a14.72,14.72,0,0,1-6.72.45"/>
    <path d="M84.84,162.64c-1.31,4.72-5.66,8.61-10.51,12.38"/>
    <path d="M94.35,163.53c-1.26,7.88-2.12,16.18-2.69,24.78"/>
    <path d="M93.45,207.7a29.63,29.63,0,0,1-11.84,10.68"/>
    <path d="M25.56,200.72a7.38,7.38,0,0,0,5.6,9"/>
    <path d="M49.36,254.47c16.43,4-.57-4.94-9.65-7.13"/>
    <path d="M66.82,254.93c9.54-7.24,25.73-9.54,12.75-2.88"/>
    <path d="M54.19,259.29c-13.9-7.81-30.79-7-22.86-1.72"/>
    <path d="M95.42,255c-14.93-2.87-38.59,8.85-18.72,4.25"/>
    <path d="M108,274.68a7.1,7.1,0,0,1-2.88,1.84"/>
    <path d="M17,276A6,6,0,0,0,19.61,278"/>
    <path d="M61.35,273.15a16.68,16.68,0,0,1-2.13.61"/>
    <path d="M63.3,276.8a3,3,0,0,0,1.82.36"/>
    <path d="M62.26,279.59c.07,1-.46,1.78-2,2"/>
  </g>
  <g class="clothesEdgeLine">
    <path d="M79.39,110a54.37,54.37,0,0,0-.8-16.17"/>
    <path d="M43.88,110.16c1-3.06-3.32-8.09,1.16-17.6"/>
  </g>
  <path class="hairDarkGray" d="M73.15,86.92c14.08,4.06,34.51-6.15,29.26-23.51,7.19-8.38,2.08-18.47-1.19-21.72,2-1.45,2.66-2.95,1.88-4-9.52-9.23-1.19-19-15-25-2-10.71-7.86-7.49-13.7-9.6-8.49-3-27.27-6.64-39.66,7.67-10.35,12-8.19,26.55-19.58,37.24-.79,1.09.16,2.81,2.19,4.26-1.18,7,.19,12,5.53,17.1C18.21,82.92,37.54,89.49,51,87Z"/>
  <g class="hairOverlapLine">
    <path d="M96.61,54.6a6.84,6.84,0,0,0,1.56,1.23"/>
    <path d="M90.32,43.6A33,33,0,0,1,92,47.27"/>
    <path d="M33.44,42.45a22.82,22.82,0,0,1-1.52,3"/>
    <path d="M35.15,37.16a26.42,26.42,0,0,1-4.77,0"/>
    <path d="M26.74,52.41a12.26,12.26,0,0,1-3.06,2.38"/>
    <path d="M80.94,16.12c-3.28-1.17-7.42.95-10.84,3.48"/>
  </g>
  <path class="hairEdgeLine" d="M72.41,6.2c-6.69.52-10.6,13.08-19.4,17.22"/>
  <g class="eye">
    <rect class="sclera" x="41.19" y="42.71" width="42.77" height="11.08"/>
    <g class="irisDarkBrown">
      <circle cx="74.91" cy="47.69" r="3.4"/>
      <circle cx="48.51" cy="47.69" r="3.4"/>
    </g>
    <g class="pupil">
      <circle cx="74.91" cy="47.69" r="1.32"/>
      <circle cx="48.51" cy="47.69" r="1.32"/>
    </g>
  </g>
  <g class="skinEastAsian">
    <path d="M98.28,334.32c-.35-14.63,3.52-31.58,4-49.11-9.4,1.26-28.07,1.47-36,.1.64,12.24,2.66,24.72,2.86,35,.18,8.84,2.26,15.72,1.61,20.17-2.44,16.79,3.08,39.34,4.07,61.87.22,2.75-.77,3.5,0,8.88.33,2.28-2,10.94-3.57,15.7-1.3,4.08-1.66,7.4,1.63,8.61,2.19.8,4.53.29,5.64-1.27,0,2.43,4.39,2.95,5.35,1.05.57,1.52,4.3,1.81,5.36.34a3.12,3.12,0,0,0,4.25-2.35c1.14,1.16,3.77-.81,3.15-3.24-3.13-12.2-6.42-12.6-6.13-17.5.34-5.64-.58-5-.31-8.65C91.83,382,99,365.41,98.28,334.32Z"/>
    <path d="M57.82,319.8c-.55-12.2,1.16-21.62,1.3-35.09a206.28,206.28,0,0,1-35.53.88c.88,15.44,5.86,37.33,5.4,46.69-1,20.8,1,44.55,5.54,69.44.54,2.95-1.18,6-.51,10.07.39,2.43-5.06,9.59-7.31,16.79-.57,1.82,1.19,3.76,2.8,3.19.27,1.83,3.16,2.38,4.24,1.57.72,1.3,3.61,1.68,4.69.32.83,2,4.71,1.74,5.74.07,1,1.24,2.87,1.75,5.22,1.63,2.75-.15,4.68-3.55,3.73-6.34a16.84,16.84,0,0,1-1.8-6.11c-.16-3.82-1.85-11.08-1.47-12.06,1.56-3.94.48-6.41.72-8.54,1.58-14,6.69-41.58,5.68-62.09C55.92,333.21,58.14,327,57.82,319.8Z"/>
    <path d="M109.13,250.65a28.22,28.22,0,0,0,.22,8.78,15.19,15.19,0,0,0-2.17,3.57c-2.81.63-5.73,6.28-1.65,7.81C119.2,259.64,112.61,232.82,109.13,250.65Z"/>
    <path d="M105.9,233c.31,4-3.56,7-2.05,15.15.54,5.72-3.26,11.41,1.17,12.47,4.49.88,3.73-8.57,5.83-12.86-.14,4.18,1.4,6.93.45,11.92-.2,1.51-2.47,3.59-3.36,5.91-4.8,1.48-5.31,7.69-2.08,7.24,1.35-1.44,5.7-3.14,7.88-5.51,3.56-3.91,3.7-7.47,5.93-14.24,1.75-4.81-2.93-13-3.18-21.29,0-21.35,5.6-41.33,2.57-56.17-.14-7.82-1.27-17.15-.63-25.61h0c-5.75,1.94-13.79,4.09-17.44,4-.67,13-2.72,22.18-.16,47.65C101.87,207.23,104.92,219.21,105.9,233Z"/>
    <path d="M79.65,75c-3.2,5.63-3.2,14.2-2.39,20.57-.24,15.21-11.64,16.83-13.72,29.7C59,112,46.53,109.25,45.89,95a32.64,32.64,0,0,0-2.08-21"/>
    <path d="M19.84,266.26A16.69,16.69,0,0,0,18.33,262c.73,1.63,3.82,2,4,.11.32-2.94,1.55-5,1.95-7.75,1.61-10.9-2.78-12.83-3.74-20.61-2.38-21.11,3.56-40.89,1-56.59-.25-2.49,1.86-7.35,2.93-14.67-.16-2.27-.26-4.56-.28-7.74h0c-3.51-.3-13.11-3.27-19.14-5.61A171.74,171.74,0,0,1,2.19,174c-4.88,24.93,6.6,46.29,7.39,62.91.31,3.42-5.14,12.39-4.65,16.31.81,7.42.31,10.27,5.21,13.37C13,270.67,14,272.46,18,272.14c1.05.41,2.67,2.21,3.46,1.7C23.79,271.75,22.77,268.74,19.84,266.26Z"/>
    <path d="M96.61,54.6a25.19,25.19,0,0,1-1.67,5.72c-1,2.41-.3,6.54-5.16,6.23-4.67,17.41-13,19-19.28,23.24-4.27,2.86-13.24,2.77-18.08-.55C46,84.85,36.61,82.14,33.7,67c-4.5,0-3.85-2.64-5.51-7a22.63,22.63,0,0,1-1.45-7.5,31.59,31.59,0,0,0,5.18-7c.77,1.86.51,5,1.32,5.46.47-2.67,0-5.8.2-8.45a34.35,34.35,0,0,0,1.71-5.29C56,35.7,59.64,26.22,70.1,19.6a34,34,0,0,1,17,3.44c-1.32,10.53.44,12.73,3.19,20.56.4,2.85,0,5,.48,7.3.54-.77.46-2.7,1.23-3.63A20.64,20.64,0,0,0,96.61,54.6ZM54.68,48.3a7.09,7.09,0,0,0-6.32-2.92c-3,0-4.5,2.24-5.62,3.23,1.58.06,2.38.61,4.81.63,3.29,0,3.93-.88,5.89-.71C53.89,48.57,55.36,49.14,54.68,48.3Zm15.59.31c2-.17,2.49.61,5.78.58,2.43,0,3.36-.68,5.15-.35-1.12-1-2.81-3.28-5.85-3.31A8.46,8.46,0,0,0,69,48.3C68.25,49.05,69.82,48.65,70.27,48.61Z"/>
  </g>
  <g class="skinDisplayLine">
    <path d="M51.81,430.82c-2.19-.54-4.16-.38-5.76,1.07"/>
    <path d="M37.47,431.81a4.55,4.55,0,0,0-2.78-.2"/>
    <path d="M32.7,431.38a4.15,4.15,0,0,0-2.22-.36"/>
    <path d="M42.91,432.29a5.68,5.68,0,0,0-3.26-.08"/>
    <path d="M77.59,432.09c-.88-.75-4-1.27-4.89-.75"/>
    <path d="M83,433.32a3.89,3.89,0,0,0-2.74-.2"/>
    <path d="M88.08,433.76a6.36,6.36,0,0,0-2.47.08"/>
    <path d="M92.26,432.56a4.5,4.5,0,0,0-2.21.34"/>
  </g>
  <g class="skinOverlapLine">
    <path d="M44.5,429.23c0,1.6-.94,3.78-.32,4.5"/>
    <path d="M39.58,428.07a19.25,19.25,0,0,0-1.14,5.59"/>
    <path d="M35.08,428c-.26,1.73-2.13,3.26-1.33,5.37"/>
    <path d="M30.87,427.67c-.72,1.7-1.54,2.77-1.36,4.1"/>
    <path d="M78.83,429.64c0,1.3.47,3-.32,4.61"/>
    <path d="M84.22,429c-.09,2.12.64,4.6-.36,6.34"/>
    <path d="M88.2,428.39c1.16,1.77,1.5,6.33,1,7.25"/>
    <path d="M92.6,428.54c.7.95.62,3.34.87,4.75"/>
    <path d="M12.14,255.64c-.18,4.64.09,6.73,1.39,10.12.94,2.45,1.37,3.5,4.44,6.38"/>
    <path d="M7.61,256.62c.12,5.07.46,6.69,2.53,10"/>
    <path d="M18.53,252.28c-.11,4.81-1,6.55-.2,9.72"/>
    <path d="M90.8,50.9c-.41,4.47.87,6-1,15.65"/>
    <path d="M33.24,50.9c.21,4.19-1.23,8.25.46,16.06"/>
  </g>
  <g class="skinFoldLine">
    <path d="M114.13,176.79a30.73,30.73,0,0,0-10.63,1.43"/>
    <path d="M10.33,175.29c2.57.89,5.19,1.2,8.33,2.06"/>
    <path d="M95.05,52.81a11.94,11.94,0,0,1-.46,2.45"/>
    <path d="M91.17,49.92a3.22,3.22,0,0,1,1.3-1.57"/>
    <path d="M90.76,59.66c1.5.53,1.44-3.11,1.89-4,1.4-2.67.34-3.61-.05-4"/>
    <path d="M28.75,50.17a11.46,11.46,0,0,0,1.09,7.46"/>
    <path d="M32.56,48.59a2.89,2.89,0,0,0-1.87-1.12"/>
    <path d="M32.87,60.26c-2.27-.61-1.18-3.24-1.58-4.14-1.76-3.88-.48-4.48.32-3.38"/>
  </g>
  <g class="skinCreaseLine">
    <path d="M90.14,327.81a14.13,14.13,0,0,1-11.88-.16"/>
    <path d="M47.35,328.14a16.43,16.43,0,0,1-11.6.17"/>
  </g>
  <g class="motherSandalStrap">
    <path d="M92.35,418A30.49,30.49,0,0,1,91,413.8c-2.18-2.4-13.55-2.89-16.77.11a13.13,13.13,0,0,0-.93,4.2c.65-.76,4-3.53,3.6.5-.23,2.15-.29,6.45-.39,8.61-.14,3.16,5.23,3.22,5.35.06.08-2.22.21-6.63.23-8.84,0-1.32.2-2.5,2.46-2.56A17.23,17.23,0,0,1,92.35,418Z"/>
    <path d="M31.3,417.52c.78-1.65,1.51-3,2-4.36,2.19-2.88,14-3.27,17.24.42a17.34,17.34,0,0,1,.62,4.2c-.71-.82-4.33-3.23-4.38.35,0,2.59.3,6.45.4,8.61.14,3.16-5.24,3.22-5.35.06-.08-2.22-.22-6.63-.24-8.84,0-1.32-.2-2.5-2.45-2.56A17.24,17.24,0,0,0,31.3,417.52Z"/>
  </g>
  <path class="lipFemaleMedium__noStroke" d="M70.71,73.5c.09,10.2-17,12.54-18.07-.32Z"/>
  <path class="lipFemaleMedium" d="M52.64,73.18c1.35-1.88,4.86-3.73,9-1.67a7.09,7.09,0,0,1,9.07,2Z"/>
  <path class="lipEdgeLine" d="M68.64,79c-3.45,3.77-10.33,4.25-13.86,0"/>
  <g class="lipOverlapLine">
    <path d="M51.12,73.18a4.84,4.84,0,0,0,1.52,0"/>
    <path d="M72.39,73.38a3.61,3.61,0,0,1-1.68.12"/>
  </g>
  <path class="mouthInner" d="M52.64,73.18c1.84,2.78,4.48,4.34,9,4.43s6.94-1.21,9.09-4.11c-5.11-1.22-6.91-.65-9-.65S58.2,71.79,52.64,73.18Z"/>
  <path class="teeth" d="M69.92,73.32a25.71,25.71,0,0,0-8.21-.47c-2,0-3.29-.9-7.84,0C55.75,76.85,66.92,77.3,69.92,73.32Z"/>
  <g class="cheekLine">
    <path d="M68.18,62c2.06.88,4.54,3.9,5.92,6.61"/>
    <path d="M55.85,61.8c-1.33.83-5.48,5.71-6.46,7.7"/>
  </g>
  <g class="noseLine">
    <path d="M68.18,62a2.79,2.79,0,0,1,.06,4.12"/>
    <path d="M55.85,61.8a2.82,2.82,0,0,0-.13,4.12"/>
    <path d="M57.86,65.6c2.13-.18,1.73.56,3.91.67,1.91.08,2.48-.89,4.12-.67"/>
  </g>
  <g class="eyeFoldLine">
    <path d="M78.58,51.6a6.34,6.34,0,0,1-7.41,0"/>
    <path d="M52.33,51.74c-1.61,1.16-6.22,1.32-7.73-.1"/>
  </g>
  <g class="eyeCornerLine">
    <path d="M42.74,48.61a5,5,0,0,1-1.28.38"/>
    <path d="M81.2,48.84a2.85,2.85,0,0,0,2.07.34"/>
  </g>
  <g class="eyebrowDarkGray">
    <path d="M67.94,41.68c1.07.66,4-.66,8.62-1,4.78-.3,7.79,2.66,8.44,2.07C80.16,34.73,68.79,40,67.94,41.68Z"/>
    <path d="M56.25,41.71c-1.15.92-4.81-1.23-9.39-1.13s-7.32,2.56-8,2C43.65,34.88,55.9,39.57,56.25,41.71Z"/>
  </g>
</svg>
