<svg viewBox="0 0 327.16 425.72">
  <path class="ghostTail" d="M250.87,217.77c9.17,13.54,4.84,30.33,8.62,51.27.2,2.46,4.66,4.78.56,10.38,2.5.83,3.39,4.94,1.89,7.17,2.42.82,3.73,4.28,2.83,6.61,18.31,8.11,16.42,36.37,31.14,52.6,7.78,8.58,20.14,3.72,27.4,25.9,5.27,16.11-11.37,37.2,3.16,53.62-38.12-8.31-33.78-31.14-40.2-42.84-3.16-.61-4.77-3.46-4-5.29-5-.94-4.47-4.33-7.17-5.66C252.3,356.81,227,340.58,211.35,320.2c-18.15-23.12-30-43.37-41-69.07C172.47,198.42,208.83,219.71,250.87,217.77Z"/>
  <path class="chineseRed" d="M173.06,92.24c5.87.94,16.69-5.06,28.47,6,4.26,4,9.41,10.7,17.19,17.22l15.92-.19c2.83,4.08,4.37,9,6,14.11,3.43,5.72,7,7.12,8.12,16.56s-2.49,20.77-9.69,26.18C229,179.71,222.44,156.72,211.3,144c2.53,5.73.58,13.11,14.91,32.38,3.07,4.14,8.16,3.22,17.2,16.08,3.41,4.84,7.61,14.82,15.06,25.07-31,9.65-69.63-27.56-92.48,25-3.26-11.73-9-25.2-5.69-32.56-12.37-42-29-27.37-31.69-51-18.38,8.21-22,53.62-58.23,74.86l-15-57.31C60,174.73,68.19,163,73,163c2.1-3.33,5.17-3.57,7.81-6,4.08-3.83,4.92-7.81,12.61-10.76,11.92-12.25,20.38-27.06,39.26-40.54Z"/>
  <g class="chineseRedDark">
    <path d="M174.65,265.5c.43.81,1.45,1.32,3,1.58-1.65-3.36-3.25-6.81-4.83-10.34A30.07,30.07,0,0,0,174.65,265.5Z"/>
    <path d="M255.25,227.9h0a60.55,60.55,0,0,1,1.48,11.32c4.61-3.61,7.19-9.92,6.95-10.16C262.67,227.32,259.68,227.55,255.25,227.9Z"/>
    <path d="M45.21,183c13.26-8.34,26.08,52.79,13.21,58.2-1.9-.11-3.49-1-4.29-17.7-.21-4.5-2.3-7.67-3-14.08C48.84,189.22,42.16,185.15,45.21,183Z"/>
    <path d="M222,160c-1.78-3.91,1.26-5.7,1-18.81-.15-7.16-.57-8.88-2.26-21.84C250.47,163,229.89,171.87,222,160Z"/>
  </g>
  <g class="chineseTrim">
    <path d="M189,218.24a51.63,51.63,0,0,1-12-5.33c-1.07,13.78-10.33,21-11,29.57,1.82,4.25,2.07,14.52,8.66,23C166.54,242.8,187.34,238.61,189,218.24Z"/>
    <path d="M161.62,85.63,132.89,97.8c-.61,21.58,8.54,31.44,17.78,38.8C150.67,136.6,165.31,89.34,161.62,85.63Z"/>
    <path d="M169,207.23c12.68,10.43,22.63,11.47,24.74,12.29,19.84,7.71,27,2.29,36.71,5.87,17.36,6.42,30.88-.44,33.26,3.67,1.67-2.1-2.25-6.63-5.21-11.58-8.31-3-10.35-.7-15.89-1.31-11.94-1.33-8.72-5.12-28.42-4.17-7.14.34-12.32-4.55-19.51-5.31-4.23-.44-7.93-2.83-11.45-5.34l-17.45-25.67c-3.32-11.43-3.08-27-1.42-43.07,2.08-20.27,8.52-28.23,8.73-40.37-3.53-1.17-7.39-3.56-11.44-6.61-7.29,7.93-16.94,71.25-8,95"/>
    <path d="M229.38,106.29c10.09,7.26,4.76,31.23,6.66,40.75,1.81,9.08,3.61,15.67-3.33,18.45-6,2.41-8.23-1.54-10.7-5.54,2.11,4,9.58,4,12.07-.56Z"/>
    <path d="M66.37,205.32c-3.33-21.76-6.36-29.75-11-28.86L45.21,183c5.66-2.75,7.4,14.37,10.45,27.58,3.09,13.41,7.6,26.53,3.74,30l11-6.79C72.93,227.09,68.12,216.72,66.37,205.32Z"/>
  </g>
  <path class="chineseSilver" d="M213.17,149.76c-14.4,10.45-48,27.7-66.48,33.24a215,215,0,0,1,13.61,26.92c15.51-3.65,50.66-21.06,66.33-33.56A79.11,79.11,0,0,1,213.17,149.76Z"/>
  <path class="chineseBlack" d="M149.9,188.55c3,5.34,5.72,10.86,8,15.9,19.36-5.22,54.1-23.57,65.57-32.45a78.31,78.31,0,0,1-8.18-15.91C204.91,163.88,169.34,181.66,149.9,188.55Z"/>
  <g class="clothesOverlapLine">
    <path d="M192.47,123.13c6.17,6.54,12.13,15.32,18.83,20.82"/>
    <path d="M128.61,158.91c-1.37-9.43.38-18.58-2.27-26.69"/>
  </g>
  <g class="clothesFoldLine">
    <path d="M240.62,129.39c.22,3.29.16,6.15-.57,7.92"/>
    <path d="M239.76,146.71c1.34,3.43.59,7.46,4.62,10.89"/>
    <path d="M204.69,117c3.88,13.58,11.34,22.23,16,30.59"/>
    <path d="M192.76,105.68c4.18,5.23,6.78,16.92,11.19,23"/>
    <path d="M180.67,112c2.39,7.46,8.51,8.21,11.8,11.18-3.44-11.18-10.9-15.21-6.28-6.7"/>
    <path d="M202.22,134.57c-7.78-.75-17.82-.24-12.3-4"/>
    <path d="M194.42,144.92c3.59,2.17,8.77,1.28,14.28,1.68"/>
    <path d="M194.3,150.9c-8.76-5.23-9.52,4.88,2.42,9.17"/>
    <path d="M186.17,161.12a10.39,10.39,0,0,0,3.72,2.72"/>
    <path d="M223.93,178.42a8.58,8.58,0,0,1,3.24,2.62"/>
    <path d="M220.73,180.68c4.52,10.11,11.14,7.85,5.9,3.49"/>
    <path d="M200.93,192.55a22,22,0,0,0,5,7.53"/>
    <path d="M163.27,209.12a11.82,11.82,0,0,0,0,7.51"/>
    <path d="M145.82,177.32c.87,1.68,3.13,4,4.5,4.51"/>
    <path d="M120.56,130c.69,4.29,4.12,6,7.11,9"/>
    <path d="M124.51,130.75c-2.56-4.64-.7-12.25,1.27-13.53,1.4-.9-.81,9,.56,15"/>
    <path d="M112.35,153.75c2.3,3,5.17,4.18,8.76,3.2"/>
    <path d="M104.45,148.12c3,1.15,4.35,7,9.17,9.76"/>
    <path d="M87.92,155.5c5,.56,9.5,3.9,11.36,9.81"/>
    <path d="M73,163c1.75-.16,4.08.19,6.16-.91"/>
    <path d="M105.73,176.92c-3.74,2.91-7.63,4.4-11.79,3.26"/>
    <path d="M83,179c4.27,4.52,9.83,5.38,16.26,3.77"/>
    <path d="M73.15,194.46c5,8.36,15.74,9,23,2.73"/>
    <path d="M66.41,188.36c2.25,7.65,6.59,13.37,13.3,16.9"/>
    <path d="M282.31,377.19a16,16,0,0,0,11.15-3.35"/>
    <path d="M286.27,382.48a16.33,16.33,0,0,0,9.15-1.2"/>
    <path d="M264.77,293.2s-1.42,3.36-2.58,4.45"/>
    <path d="M261.94,286.59c-1.71,3.39-6.89,7.4-10,8.39"/>
    <path d="M260.05,279.42a16.85,16.85,0,0,1-9.28,5.38"/>
  </g>
  <g class="clothesCreaseLine">
    <path d="M230.63,263.79a197,197,0,0,1-20.17,7.86"/>
    <path d="M217.78,263.88q-8.9,3.83-18.3,6.79"/>
    <path d="M209.52,223.63a187.19,187.19,0,0,1-21.2,8.75"/>
    <path d="M220.46,224c-.29.25-24.66,11-24.64,10.74"/>
  </g>
  <g class="hairDarkGray">
    <path d="M167.72,54.21a17.8,17.8,0,0,1-2.49,15.2c12.17,6.92-.61,17.72-11.66,10.5C138.51,61.76,137.64,50.56,167.72,54.21Z"/>
    <path d="M115.49,15.75C102,19,83.15,41.72,96.84,60.11l48.45-1.49c4.11,2,12.71,1.17,18.32-1.29,15-6.72,1-34.22-11.87-40.83C159.18,8.43,148.1,1.08,133.92.33,114-.73,108,8.94,115.49,15.75Z"/>
  </g>
  <g class="hairOverlapLine">
    <path d="M104.05,46.5c-4-13.3,6.57-24.56,14.21-30.73"/>
    <path d="M146.83,51.88c-2.54.5-9.22,2.48-12.22,1.51"/>
    <path d="M115.49,15.75c2.49.69,5.7-1.31,17.91-.69,9.78.49,11.94,3.26,18.34,1.44"/>
    <path d="M165.23,69.41a10.5,10.5,0,0,1-5.49,3.51"/>
  </g>
  <g class="eye">
    <circle class="sclera" cx="116.98" cy="67.58" r="16.04"/>
    <g class="irisDarkBrown">
      <ellipse cx="124.76" cy="69.22" rx="2.93" ry="3.4" transform="translate(-4.44 8.69) rotate(-3.92)"/>
      <ellipse cx="105.56" cy="70.64" rx="2.57" ry="3.4" transform="translate(-4.58 7.38) rotate(-3.92)"/>
    </g>
    <g class="pupil">
      <ellipse cx="124.39" cy="69.24" rx="1.14" ry="1.32" transform="translate(-4.44 8.67) rotate(-3.92)"/>
      <ellipse cx="105.08" cy="70.67" rx="1" ry="1.32" transform="translate(-4.59 7.35) rotate(-3.92)"/>
    </g>
  </g>
  <g class="skinEastAsian">
    <path d="M132.89,97.8c1.68,16,19.19,24.87,19.19,24.87,2.51-20.7,7.48-22.06,9.54-37-2.73-2-8.62-10.91-6.15-15.71"/>
    <path d="M154.43,75.15c3.91.84,5.14-1.54,6.2-4.12,1-2.39,5.9-7.58,3-13.7a33,33,0,0,1-10.52,2.36C152.5,64.22,154.12,69.46,154.43,75.15Z"/>
  </g>
  <g class="skinGhostLight">
    <path d="M236.49,91.69c-1.68,11.47-8.13,13.14-7.11,14.6,3.48,3.24,4,18.67,3.62,32.89-.18,6.61,3.45,11.15,1.08,20.21-6.28-2.23-5.44-8.92-8.14-20.17-2.13-8.9-5.6-18.8-9.17-29.38-11.36-5.57-7.71-13.09-11.25-18.15-.8-1.6,2.6-4.38,6-2,3.63-3.73,5-7.58,7.88-10.15,3.61-3.16,5.51-3.41,9.15-5.46a2.48,2.48,0,0,1,3.07.91c2.66-1.33,3.82-.86,5.5-1.75,1.73-.63,2.9,1.3,2.41,2.86,1.48.4,2.83-1.13,3.68,0a3.06,3.06,0,0,1-.1,4.15c.42.81,1.52.42,2.05,1,1.84,2.61-1.68,5-3.79,4.88C236.66,88.05,237,89.89,236.49,91.69Z"/>
    <path d="M34.19,210.07c11.24-2.18,11.33-10.63,18.53-13.78-1.81-8.49-3.83-15.11-7.51-13.32-3.26,1.46-9.13-3.81-14.2-3.81-3.18,0-5.17-1.69-8.55-1.39s-4-.62-6.16-.3c-3,1.79.54,8.24,6.8,6.75,1.54,1.38,3.54,1.7,4.63,2.69-4,3.15-11.19,6.53-18.24,8.15-8.72.18-10,4.34-7.31,6.74-3.73,2-1.76,6.55,3.36,5.57-2.69,2-.73,6.47,5.58,5.1C13.42,219.74,32.15,210.09,34.19,210.07Z"/>
    <path d="M153.09,59.69c-.59,4.53,1,9.77,1.34,15.46a31.52,31.52,0,0,1-18.17,25.23c-2.79,1.35-5.54,4.13-9.12,4.66-8.19,1.23-9.26-3.87-12.31-5.92a33.13,33.13,0,0,1-14.48-26.85c-.07-5.83-1.93-4.71-2.51-8.57-.62-4.14-2.13-4.52-2.13-8.76.62-2.37,3.59-5.83,8.34-8.44,12.79-.35,19.83,5.52,30.56,6.89a76.16,76.16,0,0,0,10.68,5.23A32.87,32.87,0,0,1,149,69.48c2.49-.9,2.49-5.15,1.62-9.78A22.31,22.31,0,0,0,153.09,59.69Zm-33.17,9.25c5.65,1.31,7.55.9,9.68-1.26-1.8-.68-7-3.88-10.28.7C118.79,69.11,119.54,68.85,119.92,68.94Zm-11.16.4c-1.44-1.08-2.26-2.43-4.31-2.11a5.64,5.64,0,0,0-2.6,1.07,3.71,3.71,0,0,0,.53,2.42c2.5.76,4.8-.83,6.22-.79C109.24,69.94,109.15,69.64,108.76,69.34Z"/>
  </g>
  <g class="skinOverlapLine">
    <path d="M21.36,196.89C14.12,200.4,7.2,199.8,2.18,201.8"/>
    <path d="M23,201.94c-8.38,3.46-14.53,3.73-17.42,5.43"/>
    <path d="M11.12,212.47c-.22-1.67,3.46-3.28,6.07-2.75,1.09.23,6.18-2.37,8.92-3.65"/>
    <path d="M211.48,89.68c3.8,3,1.33,5.34,3.92,7.21"/>
    <path d="M231.58,75c1.66,2.07-1.15,5.51-4.4,6-2.62,1.55-4.72,3.73-5.39,6.23"/>
    <path d="M239.49,76.09a6.22,6.22,0,0,1-4.84,3.7c-2.84,1.29-6.24,5.25-7.47,7.62"/>
    <path d="M243.07,80.27a6.08,6.08,0,0,1-4.56,1.89c-2.78,1.63-5.82,4.62-6.7,6.46"/>
  </g>
  <g class="skinFoldLine">
    <path d="M161.62,58.08c1.11,1.87,1.44,4.82-.15,8.31"/>
    <path d="M154.84,60.76a10.46,10.46,0,0,1,.19-1.24"/>
    <path d="M155.2,63.32c2.17.75-1.26,5.15.6,5.77,1.24.41.81-2.39,2.23-3.49,3.49-2.73,2.1-6.6-.65-5.19"/>
  </g>
  <g class="skinCreaseLine">
    <path d="M28.23,192.21c3.75,2.85,8.08,2.9,12.77,1.27"/>
    <path d="M27,195.6c2.39.2,5.52,2.73,6.45,5.72"/>
    <path d="M216.7,91.58c3.69,1,9.2,5.31,9,9.87"/>
    <path d="M223.62,91.24c.84,2.87,4,4.64,7.52,5.38"/>
  </g>
  <path class="lipFemaleMedium__noStroke" d="M124.78,91.37c4.5,6.95-12,8.63-8.28.38Z"/>
  <path class="lipFemaleMedium" d="M124.78,91.37c-3.28-3.31-5.85-4.33-7.33-1.84-1.71-1.19-2.53-.4-2.66,0-.36,1.2,1.84,3-.26,3.6a3.17,3.17,0,0,0,2-1.39Z"/>
  <g class="lipOverlapLine">
    <path d="M117,90.58a11.13,11.13,0,0,1-1.09-.31"/>
    <path d="M124.78,91.37A11.66,11.66,0,0,0,128,92.43"/>
  </g>
  <path class="lipEdgeLine" d="M125.55,93.87c-.3,4-9,4.84-9.58.56"/>
  <path class="mouthInner" d="M116.5,91.75a4.33,4.33,0,0,0,.45-1.17c2.49.53,4-1.63,7.83.79C122.44,93.55,118.79,94.74,116.5,91.75Z"/>
  <path class="teeth" d="M117.38,91.45a2.72,2.72,0,0,0-.21,1c2.28,2,5.48.86,7.61-1.11C122.47,92.62,119,93,117.38,91.45Z"/>
  <g class="cheekLine">
    <path d="M130.4,89.19c-1.1-3.14-7.92-9.65-9.22-9.88"/>
    <path d="M113,90.43c-.61-.87-2-3.53-1.59-4.64"/>
  </g>
  <g class="noseLine">
    <path d="M121.18,79.31c1.14.59,1.79,3.26.11,4.41"/>
    <path d="M110.62,78.53c-1.55,4.13-1.46,7.75,2.85,7.55,3.14-.15,4-2.94,6-2.29"/>
  </g>
  <g class="eyeFoldLine">
    <path d="M102.62,72.6c.76,1.21,3.11,1.45,5.29-.18"/>
    <path d="M121.4,71.54a4.76,4.76,0,0,0,6.32-.54"/>
  </g>
  <g class="eyeCornerLine">
    <path d="M131.74,67.82a4.27,4.27,0,0,1-2.14-.14"/>
    <path d="M101.85,68.3a3.09,3.09,0,0,1-.95.63"/>
    <path d="M102.38,70.72a4.33,4.33,0,0,1-.83-.34"/>
  </g>
  <g class="eyebrowDarkGray">
    <path d="M115.63,60.05c-.65,1.3,1.59,3.22,8,2.32,4.75-.67,7.47,1,8.13,0C124.6,57.27,120.36,61.82,115.63,60.05Z"/>
    <path d="M98,64.33a6.77,6.77,0,0,0,.82,2.1c2.31-2.44,9-2.45,7.61-5.25C103.74,62.88,100.84,62.1,98,64.33Z"/>
  </g>
</svg>
