<svg id="bedroomFence" 
    xmlns="http://www.w3.org/2000/svg" viewBox="0 0 1544.52 511.73">
    <title>bedroom fence</title>
    <path class="fenceTop" d="M10,509.73V41.23a14.83,14.83,0,0,0,0-2c-.31-2.08.33-3.21,2.48-4.07,7.41-3,14.68-6.3,22-9.42,15-6.36,30-12.57,45-19C87.94,3,96,4.8,104,7.73l54,26c1.49-.27,2.95.27,4.52-.45C183.18,23.87,204.1,15.07,224.4,5c8.88-4.41,17-2.78,25.62-1.27l56,30c2,1.2,3.77.16,5.49-.54,3.38-1.36,6.63-3.06,10-4.44C337.18,22.38,353,16.42,368.46,9.6c10-4.39,19.7-5.89,30.06-2.37L457,34.73c1.33.08,2.15,1.18,4.1.21,4.68-2.31,10-3.24,14.88-5.27,13.83-5.78,28.17-10.19,42.12-15.69,5.31-2.09,10.82-5.81,16.86-4.57,4.71,1,9.45.14,14,1.32l56,25.5c.83,0,1.39.61,2.54.09C628.34,27,649.23,18,670,8.67c6.12-2.74,12-6.14,19-4.4a38,38,0,0,0,10.51,1L758,33.73c1.33,1.21,2.9.42,4-.07,18.21-8.4,36.27-17.13,54.58-25.33,7.29-3.27,14.15-8.53,22.95-7.08,4.51.74,9,1.65,13.5,2.48l51,31c1.33.08,2.19.87,4.07.21,21.54-7.48,42.62-16.16,63.86-24.4,10.26-4,19.94-4.26,30.07-.81l57,24c20.67-8,41.39-15.85,62-24.08,6.67-2.67,13-6.09,20.54-4.44,3.45.76,6.9,1.66,10.49,1.52l52,29c6.83-3,13.58-6.21,20.52-8.95,13.62-5.39,27-11.42,40.54-16.89,7.57-3.05,14.87-8.17,24-5.73,3.55,1,7.31,1.07,11,1.57l53,29q32.74-14.25,65.51-28.48c3-1.28,5.92-3.07,9-3.38,7.76-.76,15.22,1.22,22.49,3.86h1c-2.11,1.11-.94,3-.94,4.5q-.11,55.5-.06,111v384.5Z"/>
    <path class="fenceFront" d="M1528,507.73q0-233.49.14-467c0-4.38-1.53-6.71-5.15-8-25.43-8.81-50.35-19-75.45-28.64-1.83-.7-2.77.07-4,.61-22.51,9.65-45,19.28-67.46,29.09a4.22,4.22,0,0,1-4.09,0c-23.61-9.49-47.33-18.68-70.89-28.27a5,5,0,0,0-4.57.15c-17.86,7.27-35.45,15.19-53.42,22.21-5.22,2-10.84,3.7-15.51,6.91-3.59,2.47-6.28-.35-8.47-1.34-21.1-9.56-43-17.13-64.08-26.81a6.85,6.85,0,0,0-6,0c-23.8,9.59-47.65,19-71.46,28.6-1.47.59-2.27,0-3.55-.45-14.46-5-28.71-10.57-43-16.08-9-3.45-18.12-6.38-26.94-10.14-4.86-2.07-8.5,1-12,2.38-21.74,8.74-43.76,16.77-65.55,25.37-3,1.2-5.23.48-7.53-.67-20.87-10.43-41.73-20.87-62.48-31.54-3.63-1.87-6.41-1.75-10.09,0-22.74,10.7-45.66,21-68.38,31.75-2,1-3.05.49-4.57-.14C755,28.09,736.7,20,718.1,12.55a142.23,142.23,0,0,1-15.59-6.8A4.27,4.27,0,0,0,698,5.58c-15.7,7.28-31.58,14.18-47.43,21.14-8.48,3.73-17.06,7.22-25.45,11.12a4.09,4.09,0,0,1-4.09,0c-22.1-9.16-44.35-18-66.38-27.29-2.72-1.14-4.79-.37-6.52.32-21.47,8.57-43.54,15.51-65,24.1-6.26,2.52-11,1.74-16.62-.68C445.06,25,423.5,16,402.07,6.63a4.19,4.19,0,0,0-4.09,0c-23.77,9.82-47.66,19.34-71.4,29.25a5.87,5.87,0,0,1-5.53-.21c-17.17-9-35.22-16.2-52.54-24.92-4.93-2.47-10-4.69-15-7C252,3,251,2.6,249,3.58c-12,5.81-24.26,11.16-36.43,16.65C201,25.41,189.44,30.4,178.1,35.89c-2,1-3.06.48-4.58-.15-19.21-7.91-38-16.86-57.49-24a25.36,25.36,0,0,1-4.5-2.48c-6-3.75-11.27-2.45-17.61.29C73.36,18.4,53,27.9,32,35.67c-3.3,1.22-3,3.5-3,6.06q0,82,0,164v305Z"/>
    <g class="fenceOverlapLine">
        <path d="M776,36.73q0,234.26,0,468.5"/>
        <path d="M623,38.73v293"/>
        <path d="M924,37.73v291"/>
        <path d="M1076,36.73v239"/>
        <path d="M475,39.73q0,108.26,0,216.5c0,1.84.35,3.73-.49,5.5"/>
        <path d="M175,37.73v201"/>
        <path d="M323,37.73v199"/>
        <path d="M1225,35.73c-1.93,1.55-1,3.68-1,5.5q-.09,72.75,0,145.5"/>
        <path d="M1374,34.73v104"/>
    </g>
    <path class="bushLeft" d="M769,507.73c-.71-6.46-4.33-11.78-7.65-16.9-7.16-11-16.91-19.55-28.32-26.15-1.41-.81-3.18-1.3-4.13-3.24,4.09-5.61,8.59-11.19,11.58-17.72,2-4.26,3.9-8.53,3.08-13.5a3.84,3.84,0,0,0-2-3.08c-8.64-5.63-17.4-10.93-27.24-13.07,3.21-11.57,5.82-23,5.68-34.84,0-4.68,0-9.33-.87-14-.68-3.57-2.26-5.06-5.53-6.68a127.05,127.05,0,0,0-21.08-8.36c-11.31-3.28-22.62-2.75-34-1a7.52,7.52,0,0,1-2.49-.46l-2,2c3.73-9.38,2.94-19,.88-28.47-.91-4.23-5.65-4.81-8.93-5.88a104.39,104.39,0,0,0-37.45-5.17,5.57,5.57,0,0,1-1.63-.53,166.27,166.27,0,0,0-10.8-39,51.18,51.18,0,0,0-7.61-13.44c-3.16-3.87-7.82-5-12.46-4.94-8.92.05-17.47,2.5-26,4.89-7.06,2-14.53,2.6-21.29,7.08.1-7.2-2.27-13.32-4.15-19.57-1.13-3.76-2.16-7.55-4.08-11-3.81-6.79-8.8-8.49-16.47-6a132.38,132.38,0,0,0-22,9c-3.62,1.92-7.68,2.92-11,5.47-1.53,1.17-3.69,1-4.39-1-4.51-12.69-15.16-20.92-22.68-31.4-1.93-2.69-5.09-4.49-7.45-7-6.6-7.06-10.37-7.58-18.94-3.57-14.69,6.88-27.88,16.14-41,25.56-2.86,2.06-5.23,4.77-8,7.36-3.86-2.67-5.78-6.65-8.62-9.82-5.1-5.71-9.7-11.91-16.81-15.75a10.21,10.21,0,0,0-11.48.81c-9.45,6.77-19.27,13.13-27.61,21.35l-1,2a1.26,1.26,0,0,0,0-2c-11.74-13.8-24.64-26.07-40.91-34.69a11.45,11.45,0,0,0-13,.89c-14.11,10.25-26.23,22.7-37.4,36.22-7.41-4-15.1-8.17-22.72-12.41-6.82-3.8-13.72-2.63-18.49,3.53-7.6,9.8-13.62,20.45-17.06,32.47-.6,2.09-1.88,3.35-4.48,2a158.68,158.68,0,0,0-26.92-10.25c-6.1-1.77-10.59-1.08-15.1,3.17-5,4.65-7.09,11-10.45,16.55-2.82,4.67-5.58,9.38-8.49,14.29a58.44,58.44,0,0,0-24.52-7.25c-5.65-.48-11-.14-15.56,4.39C37.32,289.3,29.38,301.9,21,314.2,14,324.36,8.86,335.54,2,345.73c-1.27,1.88-1,3.95-1,6q0,79,0,158Z"/>
    <path class="bushRight" d="M806.27,508.23c-1-10.56,3.6-20.05,5.84-30,2-8.86,8.36-15.24,13.9-22s13.21-9.69,21-12.41a12,12,0,0,1,3-.09,99.32,99.32,0,0,1-3.51-25.51c0-.12-.52-8.4-.53-9.22,0-6.93,4.06-16.06,6.61-22.24,5-12,13.55-20.42,25.35-26.19,8.77-4.29,17.9-4.12,27.08-4.84,0,0,0,.3.21-.45.86-3.46-.82-6.42-1-9.56-.74-10.51,2.94-20.1,9-28.39,6.48-8.93,15.55-15,25.29-20.24,9.25-5,18.53-7.35,29.09-6.53,9.29.72,17.26,4.82,25.74,7.67l-.5-1c.92-2.33,2.46-4.62,2.64-7,.65-8.71,6.32-14.16,12.71-18.33,11.37-7.41,23.39-10,36-1.79,3.46,2.26,5.33,5.72,8.41,8.13,0,0,8.09-11.64,13.81-17.18,6.33-6.13,14.7-10,24.16-11.51,16.77-2.66,31.15,1.12,43.55,12.67,1.6,1.5,3.26,3.09,6.1,3-.55-4.07.29-8,.89-12,1-6.37,4.15-11,9.34-15.18,6.3-5.05,12.72-7.27,20.66-6.41,4.89.54,5.15,0,4-4.9-.57-2.32-1.61-4.56-1.46-7,.83-12.95,3.56-25,11.31-36.12,12.33-17.67,33.15-20.17,51.21-16,4.56,1.05,7.56,5.32,12.47,5.13,0,0,.12-8.57.57-10,1.89-5.9,4-11.58,9.35-15.64,4.16-3.14,9-4.56,13.63-5.67,7.59-1.8,15.4-1.39,21.4,4.83a10.28,10.28,0,0,0,4.55,2.45,45.1,45.1,0,0,1,16.57-23.9,63.31,63.31,0,0,1,37.43-13c11.07-.32,21.39,2.09,30.57,8.86,3.86,2.86,6.81,6.56,10.43,9.59a9.6,9.6,0,0,0,2.91-2.57c8.07-10,18.82-14.92,31.08-17.5a66.1,66.1,0,0,1,15.51-1.09,48.11,48.11,0,0,1,22.44,5.78c9.64,5.35,16.09,13.85,20.58,23.87a42.68,42.68,0,0,0,3.48,6c1.5-.5,3-.9,4.49-1.51a29,29,0,0,1,21.53-1c9.23,3.13,16.67,9,23.31,15.71a16.26,16.26,0,0,1,4.84,11.83q-.33,166.26-.16,332.5c0,1.84-.35,3.73.49,5.5Z"/>
</svg>
