<svg viewBox="0 0 85.85 176.04">
  <rect class="shadow" x="6.12" y="152.8" width="73.7" height="22.74"/>
  <polygon class="oakDarkest" points="15.55 175.54 16.47 163.96 69.39 163.96 70.31 175.54 79.75 175.54 79.82 152.8 6.04 152.8 6.12 175.54 15.55 175.54"/>
  <path class="oakDarker" d="M.51,1.11C30.75.3,55.11.3,85.34,1.11c-.74,35.74-1.23,116-1.56,151.8-29.18.12-52.51.12-81.7,0C1.77,117.15,1.26,36.85.51,1.11Z"/>
  <g class="oakMediumDark">
    <rect x="5.92" y="7.18" width="74.03" height="55.55"/>
    <rect x="6.6" y="68.52" width="72.66" height="78.64"/>
  </g>
  <g class="oakMedium">
    <polygon points="7.21 66.42 78.64 66.42 79.26 68.52 6.6 68.52 7.21 66.42"/>
    <polygon points="6.54 5.08 79.33 5.08 79.95 7.18 5.92 7.18 6.54 5.08"/>
  </g>
</svg>
