<svg viewBox="0 0 205.59 131.75">
  <rect class="shadow" x="22.66" y="104.55" width="160.31" height="26.7"/>
  <path class="oakDarker" d="M19.58,18.43q2.75,56.39,3.07,112.82H34.28c.24-4.15.44-8.79.73-11.81q67.8-1,135.6,0c.29,3,.49,7.66.73,11.81H183q.38-56.44,3.07-112.82Q102.81,15.3,19.58,18.43Z"/>
  <g class="oakMedium">
    <path d="M104.4,23.22q36.85.15,73.7,1.36l1.18,2.15q-37.44-1.25-74.88-1.4Z"/>
    <path d="M27.52,24.58q36.84-1.21,73.7-1.36v2.11q-37.45.17-74.88,1.4Z"/>
  </g>
  <g class="oakMediumDark">
    <path d="M193.42,6.13Q102.82,3,12.2,6.13C11.48-2.31,1.11-.54.53,6.69c-.77,9.73,13.22,1.61,12.28,12q90-2.93,180,0c-1-10.35,12.47-2.24,12.28-12C204.93-1.45,194.9-1.29,193.42,6.13Z"/>
    <path d="M104.4,25.33q37.46.17,74.88,1.4-1.64,39.28-2.22,78.6-36.34-.67-72.71-.78Q104.37,65,104.4,25.33Z"/>
    <path d="M26.34,26.73q37.44-1.25,74.88-1.4,0,39.62,0,79.22-36.36.11-72.71.78Q28,66,26.34,26.73Z"/>
  </g>
</svg>
