<svg viewBox="0 0 105.54 87.51">
  <path class="flatBlueMedium" d="M.51,3.8Q1.77,45.4,1.75,87q51-.06,102,0,0-41.61,1.24-83.2Q52.76,2.57.51,3.8ZM92.36,21.22c-2.51,2.38-3.76,3.58-6.24,6l-6-6.17C85,21.09,87.45,21.13,92.36,21.22ZM73.23,41c2.46-2.43,3.69-3.65,6.16-6.07l6,6.16c-2.46,2.41-3.69,3.63-6.15,6.06Zm5.49,6.68c-2.45,2.43-3.67,3.65-6.11,6.09-2.41-2.46-3.62-3.68-6-6.14,2.44-2.44,3.67-3.66,6.12-6.09Zm-6-7.26-6.06-6.14c2.46-2.44,3.7-3.66,6.17-6.09l6,6.16C76.35,36.73,75.12,38,72.67,40.38Zm-.55.54C69.67,43.35,68.44,44.57,66,47c-2.42-2.46-3.63-3.68-6.06-6.13,2.45-2.45,3.67-3.67,6.13-6.11C68.5,37.23,69.71,38.46,72.12,40.92ZM52.79,48.07l6.06,6.12-6.07,6.12c-2.42-2.44-3.63-3.67-6.06-6.11Zm-6.6,5.59-6.1-6.12,6.07-6.13c2.44,2.44,3.66,3.67,6.09,6.12Zm7.14-6.13c2.42-2.44,3.64-3.66,6.08-6.1l6,6.13C63,50,61.81,51.21,59.39,53.65Zm6.08-7.19-6.1-6.14,6.13-6.12,6.1,6.15C63.08,36.67,61.85,37.9,59.41,40.34Zm-.54.54c-2.44,2.44-3.65,3.67-6.08,6.11-2.43-2.45-3.65-3.68-6.1-6.13l6.08-6.12Zm-12.72-.56L40,34.21c2.42-2.45,3.63-3.68,6.07-6.13,2.46,2.45,3.69,3.67,6.13,6.12Zm-.53.55L39.55,47c-2.44-2.44-3.67-3.66-6.12-6.09l6.06-6.15C42,37.2,43.17,38.42,45.62,40.87ZM39,47.61l-6,6.12c-2.44-2.44-3.66-3.66-6.11-6.09l6-6.13C35.29,43.94,36.52,45.16,39,47.61Zm-6.07-7.24c-2.45-2.43-3.68-3.64-6.14-6l6-6.17c2.47,2.42,3.7,3.64,6.15,6.07Zm-.59.6c-2.41,2.46-3.62,3.68-6,6.14-2.45-2.43-3.67-3.63-6.13-6l6-6.15Zm-12.73-.48c-2.46-2.41-3.7-3.61-6.17-6,2.39-2.47,3.59-3.7,6-6.16,2.49,2.4,3.72,3.6,6.18,6Zm.05,1.12c2.45,2.41,3.68,3.62,6.12,6l-6,6.16c-2.44-2.42-3.66-3.63-6.11-6Zm.09,13.27c2.45,2.43,3.67,3.65,6.1,6.08l-6,6.14c-2.43-2.43-3.65-3.65-6.09-6.07Zm.53-.54,6-6.15c2.45,2.42,3.68,3.64,6.12,6.08-2.43,2.46-3.63,3.69-6,6.15C23.91,58,22.69,56.77,20.24,54.34Zm12.69.47c2.44,2.44,3.66,3.66,6.09,6.11L33,67.06c-2.43-2.45-3.64-3.67-6.08-6.1Zm.54-.54c2.41-2.45,3.61-3.68,6-6.12,2.44,2.44,3.66,3.66,6.09,6.11l-6,6.11Zm12.66.53c2.43,2.44,3.64,3.67,6.06,6.11l-4.87,4.93c-.75,0-1.49.08-2.2.14l-5-5.07Zm6.63,6.69L57,65.79c-2.78-.11-5.73-.11-8.51,0Zm.59-.6c2.43-2.45,3.64-3.68,6.07-6.12l6,6.12L60.4,66c-.69-.06-1.4-.11-2.14-.15C56.3,63.87,55.32,62.87,53.35,60.89ZM60,54.23,66,48.13c2.42,2.46,3.63,3.68,6,6.14L66,60.35Zm12.66.58,6,6.15C76.23,63.38,75,64.6,72.6,67L66.54,60.9C69,58.46,70.17,57.24,72.61,54.81Zm.53-.54c2.44-2.44,3.67-3.66,6.12-6.08l6,6.15c-2.45,2.43-3.67,3.64-6.1,6.08Zm12.69.61,6,6.15c-2.44,2.42-3.66,3.64-6.09,6.07l-6-6.14Zm-6-7.23c2.45-2.43,3.68-3.64,6.14-6.06l6,6.17c-2.46,2.41-3.69,3.62-6.13,6.05Zm.13-13.3,6.2-6,6,6.18c-2.48,2.4-3.72,3.61-6.19,6Zm5.64-6.61c-2.49,2.41-3.73,3.61-6.2,6-2.41-2.47-3.62-3.7-6-6.16C75.8,25.19,77,24,79.54,21.56,82,24,83.16,25.27,85.57,27.74ZM79,21l-6.21,6.06L66.7,20.9C71.62,20.93,74.08,21,79,21Zm-6.76,6.6-6.16,6.08C63.65,31.23,62.43,30,60,27.54c2.46-2.45,3.7-3.67,6.17-6.1C68.6,23.9,69.81,25.14,72.24,27.61Zm-6.62-6.72c-2.48,2.44-3.72,3.66-6.18,6.11-2.44-2.46-3.67-3.69-6.13-6.14C58.23,20.86,60.69,20.86,65.62,20.89ZM58.9,27.54c-2.46,2.44-3.68,3.67-6.13,6.12-2.44-2.45-3.67-3.68-6.13-6.12,2.45-2.46,3.67-3.69,6.13-6.14C55.23,23.85,56.46,25.08,58.9,27.54Zm-6.67-6.68c-2.46,2.45-3.69,3.68-6.13,6.14-2.46-2.44-3.68-3.66-6.15-6.09C44.86,20.88,47.31,20.86,52.23,20.86Zm-6.67,6.68c-2.44,2.45-3.65,3.68-6.08,6.14C37,31.24,35.8,30,33.34,27.61c2.42-2.46,3.63-3.69,6.07-6.15C41.88,23.89,43.11,25.1,45.56,27.54ZM38.8,20.9c-2.43,2.45-3.64,3.68-6,6.13-2.46-2.41-3.69-3.62-6.17-6C31.47,21,33.91,20.93,38.8,20.9Zm-6.59,6.68-6,6.16c-2.47-2.41-3.7-3.62-6.19-6l6-6.18C28.51,24,29.75,25.16,32.21,27.58ZM25.45,21l-6,6.16c-2.48-2.4-3.72-3.59-6.22-6C18.11,21.13,20.55,21.09,25.45,21Zm-12.83.79c2.5,2.38,3.75,3.58,6.22,6-2.4,2.46-3.6,3.69-6,6.16C12.77,29.1,12.73,26.68,12.62,21.82ZM12.87,35c2.47,2.4,3.71,3.6,6.16,6l-6,6.15C13,42.32,12.94,39.89,12.87,35ZM13,48.34c2.46,2.4,3.68,3.6,6.13,6-2.41,2.46-3.62,3.69-6,6.14C13.11,55.63,13.09,53.2,13,48.34Zm.1,13.23c2.44,2.42,3.65,3.64,6.08,6.07-2.42,2.45-3.63,3.68-6.06,6.12C13.16,68.89,13.16,66.45,13.14,61.57ZM13.7,74.3l6.06-6.12,6.07,6.09Zm6.6-6.66,6.05-6.14c2.43,2.43,3.65,3.65,6.08,6.1l-6.06,6.13Zm6.6,6.63L33,68.14l3.56,3.6a24.11,24.11,0,0,0,.11,2.52Zm9.64-3.61c-1.21-1.23-1.82-1.84-3-3.06l6.06-6.14,4.57,4.6c-3.5.33-6.22.88-7.1,1.66A6.89,6.89,0,0,0,36.54,70.66ZM67.9,75c-7.67,5.72-22.35,6.14-30.26,0-.51-.41-.48-6.47,0-6.76,8.29-4.92,22.18-4.61,30.26,0C68.38,68.53,68.41,74.63,67.9,75Zm-6.51-8.94c1.84-1.86,2.76-2.79,4.61-4.64l6.06,6.14L69,70.66a6.71,6.71,0,0,0-.53-3C67.62,67,64.9,66.41,61.39,66.08Zm7.52,8.18A23.73,23.73,0,0,0,69,71.75l3.57-3.63,6,6.15Zm4.22-6.68c2.42-2.44,3.63-3.65,6.06-6.08l6.06,6.14c-2.43,2.42-3.64,3.64-6.06,6.07Zm6.62,6.69,6-6.09,6.06,6.12Zm12.63-.51c-2.43-2.44-3.64-3.67-6.06-6.12C88.75,65.21,90,64,92.4,61.57,92.38,66.45,92.38,68.89,92.38,73.76Zm0-13.27c-2.42-2.45-3.62-3.68-6-6.14,2.45-2.43,3.67-3.64,6.13-6.05C92.45,53.18,92.43,55.62,92.41,60.49Zm.1-13.27-6-6.16c2.46-2.42,3.7-3.62,6.18-6C92.6,39.91,92.56,42.35,92.51,47.22ZM92.69,34l-6-6.18c2.49-2.4,3.74-3.6,6.24-6C92.82,26.66,92.77,29.09,92.69,34Z"/>
  <g class="flatBlueDark">
    <path d="M93.36,4.49q-40.59-.69-81.18,0c.19,6.29.27,9.44.41,15.73q40.19-.57,80.37,0C93.1,13.93,93.18,10.78,93.36,4.49Z"/>
    <path d="M103,3.73q-50.2-1.12-100.4,0l-.1-2.65q50.31-1.15,100.6,0Z"/>
    <path d="M93.38,74.3l9.35,0q.15-26.44.69-52.88c-3.79-.09-5.68-.13-9.47-.2Q93.5,47.77,93.38,74.3Z"/>
    <path d="M2.81,74.33l9.35,0q-.12-26.52-.57-53c-3.79.07-5.68.11-9.47.2Q2.66,47.9,2.81,74.33Z"/>
    <path d="M1.58,4.77c3.83-.11,5.75-.17,9.57-.26.19,6.29.27,9.44.42,15.73-3.79.07-5.69.11-9.48.2C1.91,14.17,1.81,11,1.58,4.77Z"/>
    <path d="M94.39,4.51c3.83.09,5.74.15,9.57.26-.23,6.27-.33,9.4-.51,15.67-3.79-.09-5.69-.13-9.48-.2C94.12,14,94.2,10.8,94.39,4.51Z"/>
    <path d="M12.16,75.31l-9.35,0c0,4.26,0,6.4,0,10.66h9.35C12.14,81.73,12.15,79.59,12.16,75.31Z"/>
    <path d="M21.69,75.29l-8.53,0c0,4.28,0,6.42,0,10.7h8.54C21.68,81.72,21.69,79.58,21.69,75.29Z"/>
    <path d="M29.72,75.28h-7c0,4.29,0,6.43,0,10.72h7C29.71,81.72,29.71,79.57,29.72,75.28Z"/>
    <path d="M36,75.27H30.72c0,4.29,0,6.44,0,10.74H36C36,81.72,36,79.57,36,75.27Z"/>
    <path d="M41.76,78.08A10.34,10.34,0,0,1,37,75.62c0,4.16,0,6.24,0,10.4h4.77C41.75,82.85,41.75,81.26,41.76,78.08Z"/>
    <path d="M47,79.08a34.29,34.29,0,0,1-4.26-.73c0,3.07,0,4.6,0,7.67H47Z"/>
    <path d="M52.29,79.39c-1.44,0-2.88-.08-4.26-.21,0,2.74,0,4.11,0,6.84h4.27Z"/>
    <path d="M57.56,79.16c-1.39.13-2.82.21-4.27.22V86h4.27Z"/>
    <path d="M62.83,78.29a34,34,0,0,1-4.27.76c0,2.79,0,4.18,0,7h4.26Z"/>
    <path d="M93.38,75.31c0,4.28,0,6.42,0,10.7h9.36c0-4.26,0-6.4,0-10.66Z"/>
    <path d="M83.85,75.29c0,4.29,0,6.43,0,10.72h8.54c0-4.28,0-6.42,0-10.7Z"/>
    <path d="M75.82,75.28c0,4.29,0,6.44,0,10.74h7c0-4.29,0-6.43,0-10.72Z"/>
    <path d="M68.55,75.6A10.85,10.85,0,0,1,63.83,78c0,3.2,0,4.8,0,8h4.72C68.55,81.85,68.55,79.77,68.55,75.6Z"/>
    <path d="M69.55,75.27c0,4.3,0,6.45,0,10.75h5.27c0-4.3,0-6.45,0-10.74Z"/>
  </g>
</svg>
