<svg id="oceanCaveExterior" 
    xmlns="http://www.w3.org/2000/svg" viewBox="0 0 3166.93 970.49">
    <title>ocean cave exterior</title>
    <path class="caveRight" d="M2646,326.62c5.74,8.4,7.19,18.53,11.11,27.67,1.76,4.11,4.54,7.86,4.94,12.52l1,1c2.73,4.5,3.45,9.74,5.31,14.57,3.65,9.5,6.68,19.28,10.81,28.56,6.18,13.89,11.79,28.06,20.32,40.87,6.35,9.55,11.68,19.8,20.83,27.13,9.63,7.71,19,15.58,30.64,20.63,7.72,3.36,14.49,9,21.38,14.08,2.89,2.11,1.85,6,1.37,8.9-3.15,19.06-9,37.34-15.85,55.4-3.58,9.43-6.92,19-9.67,28.79-1.84,6.55-6.27,12.42-7.81,19-2.29,9.75-6.34,19-8,28.86-.85,4.92-3.14,9.43-3.74,14.45-1,8.42-6.81,15.93-4.72,24.95-7,22.4-3,42.56.32,65,1.4,9.57,4.16,19,4.89,28.59.62,8.16,1.67,16.3,2.18,24.49.62,9.84,1.47,19.65,1.5,29.53,0,14.89-3.14,29.25-7.17,43.39-2.51,8.82-1.44,17.45,0,26a300,300,0,0,0,6.63,29.58c2.16,8,5.2,15.7,8,24.12l422.56,4.76,2.53-2.48c-1.41-4.57,1.06-9,.53-13.47a105.37,105.37,0,0,1-.47-21.51c.37-4.36-.56-8.39-1.07-12.52-2.45-20.09-11.75-37.64-20.82-55.25-4-7.76-9.21-14.82-12.41-23.08-1.88-4.83-2.76-10.06-5.26-14.57-3.21-5.77-5.06-12-7.37-18,2.88-1.14,3.13-3.84,4.27-6,4-7.6,8.42-14.93,11.8-22.86,1.46-3.43,1.36-7.45,3.18-10.41,5.59-9.16,7.74-19.52,10.41-29.54,2.08-7.79,3.36-16,1.82-24.47-.91-5-1.9-10.35-1.39-15.44a109.67,109.67,0,0,0,.13-12c-.05-2.9,1.84-6.23-.6-9l-.49-1c-.69-10.51-1.42-21-1.89-31.54-.57-12.59-2.49-25-3.59-37.5a167.34,167.34,0,0,0-5.24-30.14,491.33,491.33,0,0,0-17.16-50.83c-5-12.61-9.9-25.36-14.87-38-4.08-10.45-8.13-20.9-12.84-31.07-5.64-12.17-11.47-24.26-17.59-36.2-7.58-14.78-18.46-27.17-30.09-38.79-10.85-10.83-22.4-20.95-33.55-31.48a31.58,31.58,0,0,1-8.66-14.48c-4.76-15.67-9.33-31.44-16.44-46.4-4.12-8.68-8.45-17.28-12.61-25.94-3.93-8.19-10-15.21-15-22.84-8.07-12.42-18.84-22.59-27.51-34.4-5.62-7.66-9.21-16.85-13.4-25.5-5.82-12-10.64-24.51-16.28-36.59-7.36-15.75-16.78-30.23-31.9-39.93-7.75-5-16-9.27-23.22-14.92-9.58-7.5-20.05-13.52-30.49-19.53C2806,66.3,2796.15,61.3,2786,57.94c-12.06-4-23.39-10.1-36.27-11.84-6.94-.94-13.57-4-20.48-5.48-10.41-2.25-20.92-4.06-31.42-5.91-9.57-1.69-19.44-1.33-28.92-3.09-10.33-1.92-21-2.49-31-6.12-3.73-1.36-7.76-.51-11.48-1.64-7.67-2.33-15.23-5-22.94-7.18-10.25-2.84-20.81-4.67-30.84-8.07-10.47-3.55-21.33-4.55-32-6.53-6.16-1.14-12.63-.59-19-.89a192.22,192.22,0,0,0-57,6.12,83.26,83.26,0,0,0-25.76,11.37,39,39,0,0,1-11.44,5.13c-4.24,1.18-8,3.9-12.13,5.66-8.16,3.52-16.27,7.21-24.65,10.11-4.33,1.5-8.73,3.11-12.88,4.8-7.05,2.86-14.24,5.51-21.32,8.22a119.13,119.13,0,0,0-32.06,17.94c-11.65,9.26-24.49,16.86-35.93,26.44-6.39,5.35-13.84,9.42-20.53,14.43-5.5,4.13-11.33,7.69-17.18,11.24a278.45,278.45,0,0,1-25.61,13.3c-7.76,3.68-15.46,2.84-23.58,1.81-9.6-1.22-19.29.64-28.44,3.28-7.48,2.15-15.2,4.07-22.21,7.92a88.68,88.68,0,0,1-14.56,6.33c-9.62,3.2-18.33,8.37-27.52,12.47-6.51,2.9-12.45,7.31-18.16,11.68-8.16,6.25-15.62,13.42-23.85,19.56-10.28,7.67-20.08,15.94-30.36,23.54-5.76,4.26-13,6.86-18.33,11.66-8.68,7.84-19.54,11.41-29.3,17.08-10.24,5.94-20.45,12-30.15,18.74-6.25,4.35-11.68,9.93-17.25,15.2-8.23,7.78-17.44,14.65-25,22.93-7.17,7.84-16,12-24.92,16.55-13.93,7.12-28.9,9.12-44.15,10.56-4.93.46-9.69-1-14.51-.27-6.86,1-13.74,1.94-20.53,3.31-5.71,1.15-10.71-1.07-14.85-3.91-9.28-6.34-18.21-13.06-26.11-21.39-8.73-9.2-18.29-17.74-27.73-26.31-9.23-8.39-18.28-16.88-28.49-24-10.46-7.33-21.81-12.83-33.71-17.6-12.36-5-24.88-6.8-38-6.8-11.17,0-22.33-.83-33.49-1.68s-22.65-1-34-.93c-10.53,0-20.55-3.17-30.94-4.09-9-.8-18-.64-27-1.48-5.61-.53-11.17-1.74-17-1-16.9,2.23-33,7.21-47.58,15.72-18.13,10.56-35.61,22.22-53.48,33.23-11.54,7.11-23.22,14-34.53,21.44-7.15,4.68-14.38,9.43-21.37,14.45-11.23,8.08-22.07,16.69-33.74,24.17-5.09,3.27-8.84,8.13-13.56,11.94-8.15,6.58-14.6,15.06-22.82,21.64-1.77,1.42-1,3.61-1.06,5.47q-.61,50.74-1.17,101.49l-.25,22.5,3.5,0c27,.3,54,.47,81,1a16.9,16.9,0,0,0,12.55-5c14-13,26.21-27.69,37.41-43.14a288.26,288.26,0,0,0,15.81-24.8c9-15.61,23.54-25.81,36.61-37.41,1.9-1.69,5.69-.56,8.36-.33,9,.75,17.44-1.61,26-3a152,152,0,0,0,33.64-9.51c7.17-3,14.58-5.47,21.51-8.93,3.64-1.82,7.49-1.93,11.17-3.06,19.38-6,38.89-11.58,59.12-13.91,4.1-.48,8.42-.89,12,2.52,6.75,6.45,15,10.84,22.77,15.83,4.44,2.83,8.23,6.56,12.9,9.15,12.81,7.09,24.63,15.9,37.81,22.31,11.79,5.72,20,15.1,28.26,24.83,9.12,10.81,17.78,22,28.48,31.49,8.11,7.19,15.11,15.58,23.81,22.21,7.74,5.89,15.94,11.1,23.78,16.82,9,6.57,18.6,12.24,27.52,19,10.29,7.77,20.34,16.18,32.56,21.18,3.55,1.46,6.47,4.45,10,5.93,6.69,2.79,13.83,4.21,20.88,5.88,14.32,3.39,28.92,3.48,43.46,4.51a274.3,274.3,0,0,0,42-.42,205.14,205.14,0,0,1,23-.79A88.27,88.27,0,0,0,2054,542.39c3.81-2.12,7.13-5.14,10.63-7.81,10.77-8.19,21.66-16.24,32.22-24.7,5.23-4.19,9.78-9.21,14.76-13.73,1.28-1.16,1.44-2.62,2-4,.73-1.74,1.66-3.07,3.5-1l-.49-1a31.44,31.44,0,0,1,3.06-3.44c14.75-12.54,27.34-27.49,43.81-38.18,8.69-5.65,15.54-13.85,24.28-19.64,5.75-3.8,11-8.32,16.7-12.22,13-8.88,26-17.52,37.94-27.95,17.76-15.52,31.77-34.3,47.49-51.58A184.87,184.87,0,0,1,2325.22,307c2-1.32,4.54-1.84,5.6-4.1,9.74,4.41,18.32,10,27.31,14.86,13.39,7.21,27.24,13.41,42.26,16.59a108.3,108.3,0,0,0,18.48,2.75c6.84.25,13.61.63,20.51.36,13.3-.53,26.65.1,40,.25,4,0,8.22-.73,12,.31,7.09,2,14.44,2.08,21.53,3.94,4.31,1.12,9.38.29,13.36,1.22,8.35,1.95,16.51,1.09,24.57.58,11.42-.72,22.77-2.89,34.06-5,7.49-1.37,15.07-2,22.53-3.33,10.65-1.84,21.14-4.73,31.58-7.58,3.08-.84,7.31-.41,8.59-4.79Z"/>
    <path class="caveLeft" d="M1,933.37c3.5.2,7,.55,10.49.59q155.25,1.8,310.48,3.52l4.75.06c1.65-2.48.84-4.83.2-6.45-5.88-15-12.11-29.79-21.87-42.82-13.42-17.91-27.9-34.88-44.48-50-6.28-5.71-8.43-13.24-9.15-21.14-1.35-14.63-3.46-28.92-11.56-41.67-1.43-2.24-3.76-4-4-6,16.77-40.38,14.33-79.9.86-119.74,7-5.57,14.93-10.18,21.79-16.34,4.26-3.82,7.89-8.17,11.81-12.2,13-13.29,25.06-27.38,36.78-41.82a486.6,486.6,0,0,1,34-38c6.95-7,11.91-15.6,19.9-21.65,2.76-2.1,5.78-4.11,8.23-6.72,10.28-10.91,18.31-23.23,25.05-36.66,8-16,15.14-32.46,24.47-47.75,5.25-8.62,9.56-17.75,15.49-26,4-5.55,8.1-11.06,12.1-16.58,6.45-8.91,14-17.11,27-14.37a36.16,36.16,0,0,0,7,.6c10.63.14,21,2.64,31.45,3.93,4.7.57,9.31,1.79,14,2.59,10.9,1.87,21.79,3.71,32.44,6.83,8.57,2.51,17.16,5.35,25.94,6.64,10.18,1.5,20.08,4.2,30.38,5.35,16.65,1.87,33.29,3.69,50,4.07,11.32.26,22.68-1.24,34-1.91,1.82-.11,3.74.37,5.48,0,11.78-2.57,23.53-5.13,35.15-8.43,15.15-4.29,30.14-9,44.63-15.14,14.65-6.24,28.52-14,42.34-21.86,4.55-2.6,8.31-6.35,13.05-8.41,7-3,13.61-6.87,20.61-9.76,20-8.25,39.32-18.12,60.09-24.89A290.64,290.64,0,0,1,959.17,301c11.16-2,19,2.14,24.94,11.33a14.42,14.42,0,0,0,3.3,4.2,40.41,40.41,0,0,1,11.2,13.62c6,11.88,15.11,21.15,24,30.57,12.85,13.63,26.12,26.88,39.52,40,9.45,9.23,19.24,18.14,29.19,26.84,11.6,10.14,23.65,19.69,37.63,26.53,6,2.91,11.38,7,17.48,9.5,10.09,4.12,20.67,7,30.78,11.1,7.4,3,15.47,5.39,18.93,14.08,4,10.08,9.41,19.5,15.2,28.65,2.39,3.79,6.06,6.81,8.21,10.7,5.25,9.5,12.87,16.33,21.78,22.29,10.08,6.74,19.93,13.85,28.88,22.16A229.25,229.25,0,0,1,1294.72,600c1,1.27,2.26,3.12,1.61,5.44-1.76,6.35-2,12.9-2.36,19.46-.41,7.23.39,14.38,1,21.5.47,5.17.61,10.46,2.32,15.65.83,2.51,3,7.54-2.3,9.34-11.33,3.85-19.78,12-28.06,19.86-7.94,7.58-14.8,16.3-21.44,25.11l-.51,1c-3.79,5.58-7,11.49-11.12,16.92-6.76,9-11.89,19.19-19.29,27.82a40.48,40.48,0,0,0-4.3,5.28c-5.85,9.71-13.67,17.93-21.2,26.31-7.09,7.89-14.07,15.79-19.8,24.78-3.13,4.92-5.35,10.31-8.91,15.08s-6.63,10.25-7.54,15.83c-1.14,7-3.66,13.63-5.49,20.27-4.25,15.34-5.83,30.89-7.83,46.5-.45,3.53.27,7-.79,10.55-1.9,6.35.76,13-1.82,19.95L1441,950.09c.35-1.5.08-3.51.13-5.5.13-5.08-2.88-8.54-5-12.58-6.19-11.91-15.08-22-24.52-30.91-8.87-8.4-18.83-15.85-27.88-24.2-4.91-4.53-9.5-9.53-10.29-16.58-.73-6.48-1.4-12.93-1.62-19.5-.41-11.94,1.57-23.67,1.53-35.5,0-3.45,2.51-7.25-.6-10.43,4-6.48,8-13,12.09-19.44,6.35-10.15,10.6-21.37,16-32,5-9.68,7.48-20.68,10.58-31.24,2-6.94,4.5-14,5.41-21,1.2-9.12,2.78-18.23,3.7-27.41a10.47,10.47,0,0,1,1.06-4c4.31-8.2,8.06-16.41,9.55-25.85a72.19,72.19,0,0,0-2.1-31c-1.84-6.67-5.77-12.8-8.29-19.27-2-5.23-4.13-10.42-7.24-14.88-10.27-14.73-17.65-31.08-26.88-46.38-3.21-5.32-4.52-11.57-8.3-16.6l-.49-1c-3.53-9.61-9.15-18-15.16-26.2-5.2-7.11-12.08-12.6-17.87-19.13-4.38-4.93-8.72-10.09-13.91-14-7.28-5.57-13.4-12.4-20.56-17.21,1.55-6.54.84-12.27-.33-18.2A109.89,109.89,0,0,0,1288,361.88c-7.35-9.21-15.84-17.45-24.12-25.84-8.86-9-18.23-17.44-26.27-27.24-9.43-11.5-20.84-21.32-29.09-33.86a11.3,11.3,0,0,0-2.46-2.52c-8.76-6.87-16-15.35-25-22.13-8.53-6.42-16-14.52-23.13-22.81-2.55-3-4.27-6.61-7.26-9.2-10.28-8.91-21.14-16.82-34.77-19.91a258.83,258.83,0,0,1-25.32-7.09c-12.66-4.26-25.18-9.13-37.5-14.48-12.94-5.63-26.27-10.38-38.75-17.07l-.49-1c-4.9-2-9.2-5.06-13.38-8.19-15.2-11.37-31.62-17.15-50.9-13.12-17.09,3.57-34.25,6.76-51.58,9.08-6.91.93-13.68,2.9-20.57,4.13a54.89,54.89,0,0,1-9,.44,40.18,40.18,0,0,0-9.54,1.32c-9.45,2.37-19.07,4.15-28.49,6.51-13.36,3.36-27.51,4.48-39.67,11.85-3.91,2.37-7.8,4.85-11.7,7.19-10.61,6.35-20.21,14-29.62,21.86-2.93,2.46-6.93,3.6-9,6.9-1.44,2.25-3.53.78-4.56.66-10.48-1.16-21,.19-31.53-1.46a297.42,297.42,0,0,1-42.42-9.49,117.89,117.89,0,0,0-24.38-4.71c-11-1-22-.41-33-1.11-10.78-.68-20.87,2.57-31.06,5.21-15,3.9-30.07,7.19-45.6,7.95-6.17.3-12.35.35-18.5.84-7,.57-14.26.6-20.52,4.28C478.26,215,467,219.4,456,224.43c-4.48,2-9,3.92-13.56,5.87l.49,1A66,66,0,0,0,417,230a68.74,68.74,0,0,0-24.59,8.71c-5.12,3.07-10.22,6.33-14.07,10.89-8.86,10.49-19.35,19.33-29,29.05-3.24,3.27-6.95,6.07-9.51,10-.56.84-1.51,2,.45,2.49l-1.51.48c-11.29,10.36-20.56,22.5-30.41,34.14-4.6,5.43-7.83,11.84-12.28,17.3-8.19,10.07-15.23,21-23.61,30.93-5.5,6.52-7.7,15.11-11.38,22.77-4.81,10-9.06,20.22-14.57,30-8,14.24-19.62,24.63-31.61,35.06-8.43,7.35-16.45,15.2-24.27,23.21-7.57,7.76-16.4,13.18-26.17,17.83-17.1,8.13-33.23,18.07-47.44,30.79-11.21,10-19.83,22.18-27.71,34.8-2.55,4.09-3.11,9.49-4.32,14.35-3.06,12.28-6.49,24.5-8.78,36.92-1.77,9.65-3.39,19.33-5.47,28.92a233.68,233.68,0,0,1-7.66,27c-3,8.6-5.48,17.4-7.61,26.32-2.46,10.29-6,20.33-9.23,30.42-2.26,7-3.1,14.49-5.45,21.37-2.91,8.57-3.86,17.4-4.18,26-.3,8.12-2.16,16.15-1,24.53.71,5.22-2.29,10.89-3.29,16.42C30.49,830.8,26.48,840.16,21.68,849c-2.63,4.82-6.3,9.18-7.84,14.57-3.15,11-7,21.77-8.16,33.38-1,9.49-2.18,19-2.55,28.49-.11,2.66.23,5.34.37,8Z"/>
    <g class="caveRightFoldLine">
        <path d="M3003.35,342.15c1.62,13.53,5.26,26.81,5,40.56-.26,14.83,0,29.72-1.23,44.47-.76,9.15-.26,18.43-2.41,27.53-1.1,4.62-.6,9.62-.82,14.45"/>
        <path d="M3120.13,806.5c-.17,5.47-3.74,9.54-6.28,13.85-7,11.82-15.83,22.15-25.55,32-10.6,10.72-21.22,21.46-31.59,32.43a9,9,0,0,0-1.5,3"/>
        <path d="M2745.38,427.25c2.13,5.92,6.93,10.12,9.92,15.56,7.69,14,13.81,28.68,16.6,44.3,1.47,8.23,2.67,16.88,1.52,25.46"/>
        <path d="M2333.72,305.6c-1.79-3-5.21-2.92-7.84-4.3-9.25-4.85-19.32-7.19-29.05-10.46-11.38-3.83-23.4-4.55-35.4-4.55"/>
        <path d="M1697.91,329.94c-6.84,3-13.58,6.17-20.56,8.88a273.87,273.87,0,0,1-48.21,13.32,18.51,18.51,0,0,1-3.49,0"/>
        <path d="M2289.36,159.6q-13-3.65-25.92-7.31c-2.84-.8-5.69-1.6-8.46-2.6-12.12-4.36-24.1-9.18-36.88-11.4"/>
        <path d="M1906.55,318.29c-9.18,9.77-17.53,20.22-25.85,30.72-4.57,5.77-8.85,11.81-13.78,17.27-4.62,5.12-7.54,11.21-11.11,17"/>
        <path d="M1806.32,337.67c-2.69,3-6.79,3.91-10.15,5.12-12.68,4.56-23,12.61-33.63,20.4-4.59,3.37-8.94,7.11-13.71,10.19-1.47,1-3.14,2.74-5.43,2.08"/>
        <path d="M2698.36,295.21c-.68.09-1.32-.11-2,.45-14.07,11-28.77,21-45.32,28a12.23,12.23,0,0,0-4.51,3"/>
    </g>
    <g class="caveLeftFoldLine">
        <path d="M36,804.75c-1.76,5.93.69,11.44,1.87,17,3.68,17.32,10.12,33.84,15.62,50.61,1.68,5.14,2.82,11,7.08,15.16"/>
        <path d="M466.35,372.07c-11.15-2.74-22.74-1.9-34-4.2-4.11-.84-8.67.14-13,.73-6.38.87-12.68,2.27-19.06,3.16-2.19.3-3.92.64-4.52,3"/>
        <path d="M1373.17,792.82c-3.73,7-8.48,13.51-11.8,20.84-5,11.17-11.43,21.73-14.46,33.83-1,4-2.91,7.82-3.49,12"/>
        <path d="M208.44,584.68c-.35,8.86,2.67,16.57,7.11,24.16,5.72,9.76,10.4,20.13,15.87,30.06,1.94,3.52,2.69,7.73,5.79,10.61"/>
        <path d="M1019.3,291.3c-2.36-.44-4,1.24-6,1.92-12.51,4.24-25.46,5.94-38.58,6.46-2.28.09-4.21,1.59-6.5,1"/>
        <path d="M1184.2,433.66c-1.86,10.87,1.55,21.18,3.84,31.5,1.13,5.07,1.4,10.61,4.64,15.1"/>
        <path d="M1336.76,651.4c-3.54,4.86-9.18,6.64-14.16,9.24-6.66,3.48-13.65,6.36-20.58,9.3-1.47.62-3.31.36-5,.51"/>
        <path d="M477.27,246.19a64.19,64.19,0,0,0-28.82-14c-2.83-.55-5.53-1.71-8.51-1.46"/>
        <path d="M1311.32,424.1c-1.54,5.38-1.25,11-2.25,16.46-1.75,9.44-3.59,18.86-4.26,28.46"/>
        <path d="M740.23,207.15c-8,8.38-16.13,16.54-24.78,24.22"/>
        <path d="M210.08,749.71c2.08,2.19,4.8,3.28,7.42,4.65,6.54,3.4,11.21,9.06,16.37,14.12"/>
    </g>
</svg>
