<svg viewBox="0 0 400.75 129.11">
  <path class="mapleMedium" d="M1.58,17.78q198.78-3.9,397.59,0c.37-6.07.58-9.1,1-15.18Q200.4-1.6.54,2.6C1,8.68,1.21,11.71,1.58,17.78Z"/>
  <path class="ironDark" d="M13.68,17.54q186.69-3.43,373.39,0c-.26,4.54-.38,6.81-.59,11.35q-186.09-3.24-372.21,0C14.06,24.35,13.94,22.08,13.68,17.54Z"/>
  <g class="ironMedium">
    <path d="M26.14,110.06l-11.06.11q1.08-46.35-1.4-92.63l11.13-.2Q27.15,63.69,26.14,110.06Z"/>
    <path d="M385.67,110.17l-11.06-.11q-1-46.41,1.33-92.72l11.13.2Q384.6,63.86,385.67,110.17Z"/>
  </g>
  <g class="rubberMedium">
    <path d="M387.56,128.61c-.25-7.07-.48-14.94-.69-18.42l-13.46-.14c0,3.51-.06,11.45-.06,18.56Z"/>
    <path d="M27.4,128.61c0-7.11,0-15.05,0-18.56l-13.47.14c-.21,3.48-.44,11.35-.68,18.42Z"/>
  </g>
</svg>
