<svg viewBox="0 0 940.38 338.92">
  <path class="interior" d="M26.38,199.57c2.35-.06,2.81-.56,2.78-2.94-.08-6.37,0-12.74-.19-19.1-.16-5.31.22-10.59.54-15.87a134.68,134.68,0,0,1,1.54-14.16,58.39,58.39,0,0,1,6.58-19.42c2.93-5.17,5.68-10.45,8.51-15.68,2.5-4.61,4.93-9.25,7.43-13.85q3.38-6.19,7.07-12.27c2-3.23,3.86-6.54,5.86-9.75q3.24-5.18,6.66-10.25c3.26-4.86,6.91-9.43,10.39-14.12,2.39-3.22,4.94-6.34,7.54-9.4,3.27-3.86,6.56-7.71,10-11.39A121.84,121.84,0,0,1,113.69,19.6,33,33,0,0,1,120,15.33,29.36,29.36,0,0,1,128,13q6.54-1,13.1-2c3.17-.46,6.34-.94,9.54-1.26,4-.41,8-1.11,12-1.49,5.7-.55,11.38-1.24,17.1-1.6,4.11-.26,8.21-.93,12.32-1.16,3-.16,5.95-.51,8.93-.68,5.25-.28,10.48-.73,15.72-1,3.64-.22,7.29-.31,10.93-.48,6.63-.3,13.25-.63,19.87-.92,3.14-.13,6.27-.22,9.4-.31,6.16-.16,12.33-.25,18.48-.48,6.37-.23,12.73-.41,19.11-.46,6.05,0,12.12-.1,18.17-.33,3.91-.14,7.81,0,11.71-.11,14.17-.26,62.23-.23,76.4-.12,7.91.06,18.9,0,26.8.13,40.21.75,153,3.84,169,8.46a97.22,97.22,0,0,1,9.28,3c29.23,9,68.05,75.28,101.75,116a3.15,3.15,0,0,0,2.34,1,140.63,140.63,0,0,1,14.33,1.52c2.75.37,5.54.4,8.31.66,3.29.31,6.58.68,9.86,1.07,4.57.54,9.15,1,13.71,1.71,6.07.9,12.18,1.52,18.18,2.87,3.3.75,6.68,1.13,10,1.74,2.22.41,4.41.93,6.62,1.37s4.44.73,6.62,1.26c2.93.71,5.88,1.41,8.81,2,3.45.71,6.83,1.67,10.29,2.32,2.5.47,4.94,1.28,7.4,2,3.29.91,6.57,1.85,9.86,2.77,3.79,1.06,7.51,2.3,11.25,3.52,4.87,1.59,9.71,3.19,14.5,5,3.73,1.43,7.51,2.73,11.22,4.23,5.86,2.38,11.74,4.68,17.44,7.48,3.18,1.57,6.49,2.93,9.67,4.54,4.36,2.2,8.74,4.38,13.08,6.64,1.9,1,3.72,2.12,5.55,3.22,3.66,2.18,7.5,4,11.13,6.26a27,27,0,0,1,8.26,7.46,19.44,19.44,0,0,1,2.88,8c1.35,7.9.79,15.83.81,23.74q.11,53.05,0,106.13a3.93,3.93,0,0,1-.18,1.77H.5V336.8Q.5,282.89.52,229c0-2.74.46-5.45.69-8.17a44.44,44.44,0,0,1,2.25-10.93,12.86,12.86,0,0,1,9.5-8.7C14.81,200.7,24.43,199.62,26.38,199.57Zm406-76.26c-1.23-30.66-3.7-73.48-7.86-111.68,0,0-51.65-.07-66.7,0-4.56,0-24.54-.05-29.11.15-4.16.18-8.32,0-12.48.12-7.39.15-14.78.25-22.18.5-2.26.07-4.52.06-6.77.11-1.47,0-1.75.4-1.87,1.85-.19,2.43-.58,4.84-.85,7.25-.24,2.05-.54,4.1-.63,6.16a57.86,57.86,0,0,1-1.15,7.07c-.2,1.14-.19,2.28-.37,3.41-.5,3.26-.58,6.57-1,9.84-.48,3.64-.86,7.29-1.25,10.94-.29,2.67-.61,5.34-.9,8-.33,3-1,6-1.17,9.09s-.67,6-.74,9.09a37.15,37.15,0,0,1-.82,7.09c-.22,1-.07,2-.28,3.09a20.26,20.26,0,0,0-.34,4.61c.08,2.8-.59,5.53-.72,8.31a28.52,28.52,0,0,1-.13,3.56c-.5,3-.51,6.15-.71,9.23,0,.1,0,.21,0,.31-.26,2.62-.26,2.62,2.46,2.62,6.88,0,13.76,0,20.64,0,6.16,0,12.33,0,18.49-.16,17.4-.32,65.62-.07,83-.13C409.57,123.73,432.42,123.31,432.42,123.31ZM258.36,14.1c-.24-.62-.77-.48-1.24-.46-4.77.14-9.55.26-14.32.46-6.47.28-12.94.61-19.41.92-4.06.2-8.11.38-12.17.62-4.62.28-9.24.63-13.86.91-3.7.23-7.4.35-11.09.64-5.76.46-11.5,1.14-17.26,1.49q-9.67.6-19.25,2c-4.61.68-9.26,1-13.85,1.76A23.3,23.3,0,0,0,128,24.68a38.41,38.41,0,0,0-7.67,6.22C114,37,108.74,44.07,103.3,51c-4.44,5.62-8.45,11.6-12.51,17.53-2.65,3.88-5,7.94-7.48,12-1.61,2.63-3.32,5.26-4.76,8-2.46,4.61-5.11,9.14-7.22,13.94-1.39,3.15-3.06,6.18-4.59,9.26-1.65,3.33-3.42,6.62-4.88,10a29.32,29.32,0,0,0-2.34,6.1,2.22,2.22,0,0,0,1.67.35c2.31,0,4.62-.07,6.94-.25,3.88-.3,7.79,0,11.7-.32,3.68-.34,7.39,0,11.1-.28,4.19-.31,8.41-.09,12.62-.35,4.46-.26,8.93,0,13.41-.27,5.63-.31,11.29,0,16.94-.34,4.71-.27,9.44,0,14.17-.28,5.43-.33,10.89-.22,16.33-.29,9.19-.11,18.37-.6,27.57-.4,1.13,0,2.26-.34,3.35,0,1.17-1.47,1.67-3.24,2.56-4.78a35.94,35.94,0,0,0,2.15-4.24c1.2-2.9,2.89-5.54,4.19-8.39,1.05-2.3,2.32-4.54,3.42-6.83,2-4.06,4.23-8,6.27-12,2.58-5.08,5.45-10,8.3-15,3.61-6.23,7.1-12.54,10.81-18.72S240.65,43,244.39,36.77s7.85-12.7,12.09-18.84a10,10,0,0,0,1.88-3.68Zm405,112.9C653,94.5,618.49,36.28,602.91,24.61a31.86,31.86,0,0,0-16-6.22C561.83,15.1,466,11.32,441.64,12.25c5.87,34.81,12.34,83.48,15.89,111.52,0,0,9.75-.12,14.63,0,6,.17,12,0,18,.15,7.6.24,15.21-.15,22.8.18,8.73.37,17.46-.06,26.18.31,8,.35,15.93,0,23.88.3,7.45.3,14.89.09,22.33.32,2.62.08,5.25.11,7.86.27,6.21.38,12.42.51,18.64.62,9,.16,18.07.48,27.11.75,4.67.14,9.34.42,14,.42,3.39,0,6.78.5,10.16,0,.49-.07.73.29,1.08.47ZM279.46,18a1.48,1.48,0,0,0-1.55.84c-1.88,3.46-4,6.81-5.64,10.36-1.38,2.91-2.94,5.72-4.42,8.57-3.43,6.57-7,13.11-10.28,19.73-2.18,4.33-4.45,8.61-6.64,12.93-2.28,4.49-4.56,9-6.61,13.57-2.95,6.61-5.85,13.25-9.12,19.7-3.08,6.07-5.42,12.48-8.55,18.52a2.64,2.64,0,0,0-.34,2.05c.64.62,1.19.39,1.7.39q9.33,0,18.64-.26c6.83-.22,13.66.08,20.49-.15,1.22,0,1.61-.56,1.69-1.58.22-2.93.4-5.85.62-8.78.19-2.52.48-5,.59-7.55.09-2.07.6-4.11.58-6.16a92.48,92.48,0,0,1,.76-9.85,23.69,23.69,0,0,1-.06-2.77c.54-2.29.52-4.64.86-7,.38-2.65.64-5.33.92-8,.39-3.65.87-7.28,1.25-10.93s.82-7.39,1.23-11.09.78-7.4,1.24-11.09c.5-4,.8-8,1.28-12a27.72,27.72,0,0,1,.5-3.22,14.52,14.52,0,0,0,.55-6Z"/>
</svg>
