<svg viewBox="0 0 967.92 423.98">
  <rect class="blackDarkest" x="163.45" y="268.21" width="764.02" height="71.78"/>
  <path class="body" d="M567.33,259c-1-1.71.3-3.27.34-4.93.17-6.06.09-12.11.43-18.18.66-12,.36-24,.63-36,.46-20.94.35-41.9-.47-62.84-.34-8.52-.21-17-.44-25.58q-.71-25.56-1.31-51.14c-.24-9.54-1-19.08-.79-28.65C565.81,27,565.5,27,570.1,27Q649,27,727.83,27a7.49,7.49,0,0,0,3.39-.3l20.33,16.94c3.56,3.23,3.81,6.07.93,10.47L762.34,165c1.36,1.91,3.64,2.3,5.54,2.34,3.32.06,6.57.61,9.85.83,6.07.41,12.14,1,18.2,1.65,5.85.65,11.69,1.35,17.54,2s11.94,1.47,17.87,2.47c7.62,1.29,15.22,2.74,22.8,4.29a501.14,501.14,0,0,1,53.29,13.58c10.91,3.52,21.82,7.1,32.35,11.69a78.89,78.89,0,0,1,8.92,4.33c6.35,3.78,8.58,10.09,9.53,16.91,2.49,17.81.87,35.73,1.21,53.6.06,3.27-.93,6.55-.25,9.86l-64.07-1.24a32.36,32.36,0,0,1-8.67-3.32A77.84,77.84,0,0,0,852,273a83,83,0,0,0-17,.37A87.41,87.41,0,0,0,816,278.09a80.84,80.84,0,0,0-49.42,55.71c-1.07,4.31-1.08,8.8-2.69,13.06-9.92-.49-19.87.1-29.86-.57-11.66-.79-23.39,0-35.11-.64-14.46-.74-29,0-43.44-.6-16.41-.7-32.85,0-49.29-.64-13-.5-26.08-.1-39.12-.11a7.5,7.5,0,0,1-3.39-.3h-6.16a6.59,6.59,0,0,1-3.08.3q-101.82,0-203.64.07c-2.29,0-3.46-.65-3.68-2.84a68.58,68.58,0,0,0-9.34-27.67c-11.15-19-27.13-31.89-48.56-38.05A78.18,78.18,0,0,0,259.58,273a79.88,79.88,0,0,0-51.83,25.67c-10.36,11.07-16.59,24.13-20.16,38.59-.73,2.95-.85,6.14-1.41,9.52-4.14,0-8.39.5-12.57.51-45.08.17-90.16.11-135.24.09-.71,0-1.51.34-2.47-.55v-82.3l183.92-5.24q8.79-.12,17.57-.5c12.61-.52,25.25-.08,37.89-.62,12.1-.52,24.23-.11,36.35-.11Z"/>
  <g class="bodyOverlapLine">
    <path d="M764.8,167.17c.17,4.1,0,7.08,0,11.09"/>
    <path d="M764.8,204.14v10.47"/>
    <path d="M946.26,244.8c-7.67-11.06-18.36-18-30.81-22.48-7.67-2.77-15.68-3.74-23.72-4.66s-16-1.58-24-2.19c-9-.69-18.09-.74-27.11-1.28-15.72-.95-31.43-.53-47.14-.36-9,.1-18.08.22-27.11.75a5.29,5.29,0,0,0-3.66,1.91,125.06,125.06,0,0,0-13.91,18.45c-5.47,8.83-9,18.51-11.9,28.38-1.59,5.39-2.57,11-3.62,16.58-1,5.23-1.18,10.54-2.18,15.76a45,45,0,0,0-.79,6.75c-.48,11.5-1,23-1.5,34.5a51.38,51.38,0,0,0,.28,8.94"/>
  </g>
  <g class="bodyCreaseLine">
    <path d="M765.11,178.57a35.7,35.7,0,0,0-9.24,0"/>
    <path d="M765.11,203.83a24.53,24.53,0,0,0-8.63,0"/>
  </g>
  <g class="rubberDark">
    <circle cx="844.9" cy="353.24" r="70.24"/>
    <circle cx="267.27" cy="353.24" r="70.24"/>
  </g>
  <g class="steelMedium">
    <circle cx="844.9" cy="353.24" r="34.81"/>
    <circle cx="267.27" cy="353.24" r="34.81"/>
  </g>
  <g class="hubcapReflection">
    <path d="M852,318.74c-1.44,3.55-3,7-4.14,10.74-1.41,4.65-1,9.26-1.06,13.9,0,2.07,1.71,3.28,3,4.63,2.28,2.3,3.56,5,3.1,8.32a4.58,4.58,0,0,1-.64,2.14c-2.36,3.34-2.69,7.19-3.13,11.09a23.62,23.62,0,0,1-8.53,15.77,12.91,12.91,0,0,1-3.74,1.49,29.55,29.55,0,0,0,6.68-15.11c.51-3.16.68-6.83-2.1-9.17-6.08-5.12-5.68-8.12-3-14.83.57-1.43,1.45-2.67,1.52-4.33.3-7.45,3.23-14,7.4-20C847.92,322.62,852,318.74,852,318.74Z"/>
    <path d="M262.24,382.16c2.21-5.72,2.62-11.75,2.21-17.82a5.77,5.77,0,0,0-2.39-4.36,9.43,9.43,0,0,1-2.81-11.67c1-2.09,2.53-4,2.44-6.47a23.8,23.8,0,0,1,4.07-14.14c2-3,3.85-6.27,8-6.81v.62a28.61,28.61,0,0,0-5.69,13.54c-.6,4.08-.79,7.62,2.61,10.49,3.78,3.19,5.32,7.16,3,11.66-2.1,4.05-2.38,8.41-3.3,12.68-1.57,7.28-5,13.42-11.09,17.87C259.26,387.75,261.86,383.16,262.24,382.16Z"/>
  </g>
  <path class="roof" d="M565.48.5c-.38.35-1.29-.09-1.24.92.37,8.85,1.71,17.63,1.64,26.6a8.91,8.91,0,0,1,3.6-.41h23.11c20,0,40-.32,60.07.09s40.05,1,60.08,1.26c4.82.06,9.64.51,14.72.44-.23-9.2-.74-18.13-1.43-27.21-2.5-.15-5-.43-7.44-.44-14.27,0-28.56.35-42.82-.1-24.65-.77-49.3-.19-73.94-.62-12-.2-24-.53-36-.53Z"/>
  <path class="brakeLight" d="M756.79,14.67c5.59,5.55,7,12,4.36,19.43-1.89,5.44-6.08,7.62-11.31,9.15-2.45-7.89-3.55-15.95-6-23.65Z"/>
  <g class="trim">
    <path d="M767,10.05c-1.28-.42-2.46.06-3.71.21-4.8.55-9.65.66-14.47,1.06A2,2,0,0,1,746.65,10c-2.87-5.28-7.85-7-13.28-7.59-2.63-.26-5.29-1.49-8-.42-.41,14.62,1.1,29.17,1.25,43.76h27.48c-1.45-7-2.07-13.76-3.8-20.34a2.19,2.19,0,0,1,1.17-2.51c4.15-2.89,8.22-5.88,12.11-9.12,1.73-1.45,2.84-3.67,5.18-4.39Z"/>
    <path d="M717.22,274.07c-.8-27.94.25-55.88-.63-83.79-.43-13.77.22-27.55-.57-41.28-.74-12.65.1-25.29-.62-37.9-.52-9-.12-18.09-.56-27.11-.58-11.71-.31-23.45-1.37-34.95-.32-.48-.52-.5-.73-.49-11,.48-22-.34-33-.71-26.71-.92-53.41-.25-80.11-.51h-.3c-4,1.34-8,.19-12.38.75.76,6.23,0,12.61.74,19a9.68,9.68,0,0,1,.22,1.54c-.38,10.29.49,20.54.73,30.81.51,21.36,1,42.71,1.25,64.08.1,9.34.5,18.69.5,28V344.16c5.24,0,10.48,0,15.71.25,16.44.64,32.88-.06,49.29.64,14.49.63,29-.14,43.44.6,6.17.32,12.35.26,18.52.25,0-.57,0-1.09,0-1.59C717.36,320.89,717.89,297.47,717.22,274.07Z"/>
    <path d="M8.79,354.17c1.44,1.25,2.87-.08,4.32,0,11.82.47,23.61-.54,35.42-.77,7-.15,14,.15,20.94-.58,5.78-.6,11.52-.11,17.26-.5,15.09-1.05,30.2-.84,45.29-1.39,8.73-.32,17.46-.13,26.19-.44.72,0,1.45.08,2.15,0,3.78-.53,4.07-1.12,4.37-4.92A82.18,82.18,0,0,1,166.82,332c1-4,.25-4.92-3.68-4.92h-4.62c-12,0-24,.54-36,.81-6.77.15-13.61-.23-20.33.53-5.47.61-10.94-.08-16.33.6-5.56.71-11.15-.07-16.63.62s-10.9.34-16.34.49c-1.86.06-3.63,1.44-5.59.31-.58-.5-.25-1.21-.25-1.82,0-13.66,0-27.32-.07-41,0-2.45.66-3,3.13-3.18,6.78-.5,13.59-.05,20.33-.66,4.95-.44,9.87-.17,14.79-.48,13.55-.86,27.11-1,40.67-1.39,6-.18,11.92-.18,17.87-.46,9.54-.45,19.12-.31,28.64-.77,7-.34,14-.28,21-.41a6.64,6.64,0,0,0,4.61-1.9c6.85-6.42,14.69-11.42,22.83-16,2.72-1.51,5.88-2.15,8.61-3.8.1-1.28-.48-1.85-1.86-1.81-6.77.23-13.58-.49-20.33.62a6.31,6.31,0,0,1-1.23,0c-14.39-.42-28.75.52-43.13.75-16.74.27-33.47.82-50.21,1.25-6.67.18-13.36.13-20,.5-12,.67-24,.88-36,1.35-5.65.22-11.34-.07-16.94.56-5.87.67-11.75,0-17.56.63-3.81.38-7.6.44-11.41.51C8.05,263,7,264,7,266.67c0,4.62,0,9.25,0,13.87a4.88,4.88,0,0,1-1.46,3.77c-5,5.35-6,11.78-4.05,18.71a7.54,7.54,0,0,0,4,4.49c1.65.77,1.46,1.74,1.47,2.91,0,5.75,0,11.5,0,17.25a4.28,4.28,0,0,1-1.2,3.12C1.3,336,.68,342.22,1.8,348.6c.59,3.38,3.34,5.18,6.69,5.87Z"/>
    <path d="M887.72,284.23c.36,1.87,2.25,1.9,3.42,2.74,15.3,11,26.11,25.21,31.43,43.46,1.57,5.37,2.92,10.73,3,16.34,0,1.62,1.1,3,.47,4.87,3.42.23,6-1.12,8.8-1.75,8.23-1.85,16.43-3.77,24.32-6.82,6.83-2.64,9.54-8.25,7.41-15.09a6.79,6.79,0,0,0-3.42-4.28c-2.62-1.34-3.42-3.41-3.09-6.2a19.1,19.1,0,0,0,0-4c-.3-3.41.18-6.22,3.68-8.07,4.38-2.31,4.55-13.19,1.84-17.16a5.34,5.34,0,0,0-4.89-2.53c-10.48.49-20.94-.49-31.42-.72-11.8-.25-23.6-1.14-35.43-1.09-2,0-4.1-1.58-6.16,0Z"/>
    <path d="M416.68,254.35a5.93,5.93,0,0,1-2.77.31c-27.93.47-55.87.09-83.8.42-8.62.1-17.25.49-25.88.49-.62,0-1.18,0-1.54.68-.17,2.17,1.9,2.56,3.11,2.94,9.45,3,17.25,8.7,24.86,14.65,3.17,2.48,6.06,4.5,10.24,3.33a7.06,7.06,0,0,1,1.84,0c27.63,0,55.26.42,82.87-.12,26.4-.52,52.79-.78,79.18-.35,19.2.32,38.4.31,57.61.46,4.23,0,5.24-1,5.24-5.23,0-4.52,0-9,0-13.55,0-3.07-.35-3.38-3.38-3.39h-2.16c-48.36-.81-96.73-.61-145.1-.62Z"/>
    <path d="M426.85,322.74c-3.47.69-7,.48-10.48.53-15.5.21-31,.09-46.52.09-3.69,0-4.17.67-3.4,4.31,1.15,5.41,2.56,10.77,2.8,16.33a2.68,2.68,0,0,0,2.76,2.76c.61.05,1.23,0,1.85,0H563.32c3.82,0,4.3-.47,4.31-4.31,0-5.14,0-10.27,0-15.4,0-3.43-.32-3.68-3.69-3.7-45.6-.27-91.19-.93-136.79-.62Z"/>
  </g>
  <path class="doorBorderLine" d="M645.58,48.25c.95,5.1.6,10.27.88,15.41.74,13.24,1.39,26.48,1.84,39.74.2,5.95.54,11.91.63,17.86.28,18.08,1.12,36.14,1.4,54.22.14,9.34.16,18.7.55,28,.53,12.73.08,25.48.67,38.19.73,15.93,0,31.85.56,47.76.66,18.59.48,37.17.55,55.76"/>
  <g class="glassLight">
    <path d="M598.44,72c.13,18.8,1.15,37.58,1.38,56.38.12,9.34.14,18.7.52,28,.53,13,.59,26.08.55,39.13,0,.2,0,.41.78.92,13.93.22,28.29-1.31,43.07-.41-.51-5.34.64-10.17-.65-15a14,14,0,0,1-.05-4c.43-13.67-.58-27.32-.81-41-.11-6.76.17-13.59-.53-20.32-.63-6.08.06-12.17-.62-18.17-.62-5.47-.05-10.93-.6-16.34-.34-3.39-.46-6.79-.55-10.58-9,.58-17.73-.52-26.48.62-4.14.54-8.41.08-12.62.11a7.5,7.5,0,0,0-3.39.29Z"/>
    <path d="M705.65,323.36c.48-39.95-1-79.89-.58-120H657.51c.5,4-.67,8,.68,11.86a4.66,4.66,0,0,1,0,1.54c-.44,21.36.62,42.71.75,64.07.08,13.76.46,27.52.48,41.29,0,.34-.08.71.92,1.23,5,0,10.68-.08,16.33,0,8.63.15,17.24.93,25.88.59a7.15,7.15,0,0,0,3.08-.3Z"/>
    <path d="M602.14,323.05a3.65,3.65,0,0,0,2.16.3H645c.42,0,.93.21,1.54-.81a13.71,13.71,0,0,0,0-2.88c0-9.24.48-18.51-.1-27.72-.84-13.56.21-27.14-.63-40.66-.73-11.73,0-23.44-.59-35.12-.22-4.21-.46-8.43-.53-13-14.68.16-29.06-.41-43.64.92-.4,6.5.41,13,.31,19.45,0,1,.19,2,.19,3.07,0,18.28-.33,36.57.14,54.84.35,13.76.43,27.52.5,41.28Z"/>
    <path d="M654.82,70.74c-.56.06-1,.37-.91.92.33,4.21-.74,8.48.59,12.64a3.89,3.89,0,0,1,0,1.23c-.41,9.87.5,19.72.8,29.57.21,7-.2,14,.56,20.94.68,6.19,0,12.36.54,18.49.85,9.14.08,18.31.71,27.41.32,4.52.15,9.07.61,13.72h46.69c0-9.7.21-19.26,0-28.8-.49-18.69-.89-37.38-1.3-56.07-.27-12.52-.84-25.05-1.11-37.59a.93.93,0,0,0-.56-1c-8.44-1.39-17.21-.83-25.94-.73-6.8.08-13.54-1.08-20.33-.69Z"/>
    <path d="M727.52,51c-2.07.74-1.64,2.77-1.43,4,1,6.06.17,12.14.52,18.19,1,17.45.25,34.93.75,52.37.15,5.23.86,10.53.34,15.71-.73,7.41-.22,14.8-.47,22.19a4.56,4.56,0,0,0,.53,3.16,9.33,9.33,0,0,0,3.15.23h29.58c.41,0,2.46,0,5.12.23,1-1.5.66-3.67.36-5.46-.78-4.7-.74-9.46-1.16-14.18-.56-6.36-1-12.74-1.56-19.1-.46-5.14-1.24-10.26-1.47-15.41s-.8-10.09-1.41-15.08c-1.22-10.06-2.16-20.16-3.59-30.2-.67-4.73-1.51-9.44-2.1-14.18-.19-1.56-.88-1.76-2.2-1.87-8.21-.73-16.43-.57-24.65-.59Z"/>
  </g>
  <path class="visorOverlapLine" d="M746.93,11.59a32,32,0,0,1,2.78,12"/>
  <g class="turnLight">
    <path d="M959.19,277.15c.14-11.31-4.27-20.95-10.73-29.92-1.48-2-3.14-2.59-5.58-2.85-6.27-.65-12.55-.29-18.81-.81-3.6-.3-7.17.41-10.78.41-2.43,0-3.21,2.1-1.83,4.2a156.44,156.44,0,0,1,12.38,21.54c.6,1.34,1.21,2.7,1.73,4.06,1,2.5,2.55,3.53,5.28,3.42,4.51-.19,9,.11,13.55-.1,4-.19,7.78,1,11.71.67a6.9,6.9,0,0,0,2.78-.31Z"/>
    <path d="M764.23,202c.2,2,1.37,2.35,3.35,1.56,6.22-2.46,8.71-10.11,6.72-16.63-1.41-4.62-3.78-6.56-9.37-8.5a81.65,81.65,0,0,0-1,15.88S764,199.62,764.23,202Z"/>
    <path d="M62.71,300c-4,1.67-4,1.67-4,5.85,0,1.33-.05,2.67,0,4,.14,2.75,1.6,4.3,4.3,4.29,4.84,0,9.67.26,14.5-.51,1.76-.28,2.83-1.2,3-2.55.26-2.54.74-5.11.11-7.7-.57-2.35-1.85-3.47-4.34-3.41-4.41.1-8.83,0-13.25,0Z"/>
  </g>
</svg>
