<svg id="schoolbusInterior" 
    xmlns="http://www.w3.org/2000/svg" viewBox="0 0 3127.08 1373.9">
    <title>schoolbus interior</title>
    <path class="interior" d="M3126.08,769.4c-.34,13-1,26-1.63,39-2.11,46.62-1,93.32-1.71,140q-1.95,121.46-2.6,243c-.32,57,2.69,177.81,1.05,181.5H14.44C12,1370.31,18.72,887.38,14,648.4c-.61-31-.2-62-1.39-93-1.93-50-2.07-100-4.43-150-1.23-26-1-52-1.64-78-1.45-56-3.38-112-4.5-168-.35-17,.54-34-.82-51-1.08-13.6,1.94-27.27,0-41-.6-4.28,1-8.66,2.62-13.05,10.61-29.26,34.44-39,62.21-42.87,34.18-4.74,68.66-1.34,103-3.56,43.86-2.84,87.95-.14,132-2.09,53.93-2.39,108-.73,162-1.92,86.63-1.91,173.34-2.07,260-2.06,306.33,0,612.67-2.64,919,1.49,99,1.33,198-.63,297,1.76,89,2.15,178-.77,267,2.1,40.63,1.32,81.33.09,122,.28,21.66.1,43.36-1,65,1,20,1.84,37.92,7,46.2,35.94,6.32,22.06,9.95,44.58,13.69,67.08,7.4,44.5,14.51,89,19.47,133.94,3.09,28,6.14,56.06,9.59,84,2.9,23.58,4.06,47.34,6.3,71,3,32,5.32,64,8.22,96,1.26,14-.34,28.29,3.21,42.21,33.26,3.51,66.38,5.12,99.34,8.68,18.34,2,36.66,4.24,54.94,6.49,28.15,3.47,56.08,9,84.11,13.22,46.23,7,91.47,18.42,136.79,29,39.63,9.29,78.69,21.67,117.12,35.47,30.13,10.82,60.4,21.09,89.19,35.59,23.6,11.88,34.56,30.52,39,55.3,2.77,15.29,3.19,30.78,5.8,46Zm-2930-232c14.65,0,28.4.84,42-.38,6.31-.57,12.65-1.72,19-1.58,63.36,1.38,126.67-1.85,190-2.59,31.64-.36,63.4.13,95-1.72,41.68-2.44,83.35-1.2,125-1.69.66,0,1.33,0,2.5-1.79V347.4c-6.8,0-13.16.17-19.5,0-45-1.47-90,1.42-135,2.65-23.66.65-47.47-.69-71,1.67-25.71,2.58-51.49-.4-77,2.07-26.4,2.56-52.81-.44-79,2-19.07,1.77-38.15,0-57,2-11.69,1.27-23.45.78-35.21,2.11-2.3,6.17.37,11.83.31,17.51C195.9,405.39,196.08,514.74,196.08,537.4Zm762-393c-68.67,1-137.34,1.16-206,1-3.75,0-7.73-.85-10.56,1.21,2.06,58.4-2,116.19,3.47,175.56,158.08-4,316.09-2.49,474-2.87,2.94-21.71,4.5-157.41,2-175.93C1136.41,143.4,960.77,144.35,958.08,144.39Zm341-1c-1.82.19-2.95,1.18-3,3-.16,9.7-1.5,19.43-1.66,29-.8,46.32-.37,92.66-.34,139,0,1.36-.69,3,2.22,4.72,14,1.19,29.5-1.05,44.75,1.31,7.65,1.19,15.33.95,23,1,55.66,0,111.36-1.06,167,.31,54.67,1.35,109.36.55,164,2.19,22.33.67,44.68.91,67,1.43,2.3.06,4.91,1.12,8-1.76,0-22.82-1.1-46.56.28-70.15,1.62-27.68,1.62-55.33,1.71-83,0-4.76,2.3-9.05,2.24-14-.09-6.83-2.38-9.2-9.24-9.11-23.66.3-47.34.57-71,0-109-2.47-218-1.72-327-2-22.34-.06-44.67-1.25-67-1.91Zm-727,4c-2.48,1.43-109.33,3.93-160,4.43-32.32.32-64.75,0-97,2-24.07,1.51-48.15-.42-72,1.88-17.7,1.71-35.42.64-54.42,2.24,1.74,59.1,5.43,117.71,5.39,177.93,10.33-1.79,31.66-2.55,33-2.53,37.68.59,75.33-1.71,113-2.62,26-.62,52.15.71,78-1.82,20.43-2,40.76-.07,61-1.69,27.66-2.21,55.44-.24,83-2.25,35.05-2.55,70-.69,105-1.58.65,0,1.33,0,2.58-1.92,2.61-57.17-3.45-115.11-1.31-174.12H572.08Zm172.5,198v182h475v-184H880.08S748.34,345.4,744.58,345.4Zm552.5-1c-3.88,1.1-3,4.31-3,7q0,86.49-.07,173c0,.66,0,1.33,2.56,3,1.68.74,5.15-.12,8.49,0,100.32,2.06,200.67,1.15,301,2.55,50.33.7,100.67.85,151,1.48,3.36,0,6.73,0,10.82,0,.85-61-1.58-121,3-182-23.17,0-44.54.77-65.84-.16-53-2.31-106.06-.17-159-2.22-79.69-3.07-159.35-.41-239-1.63-3-.05-6.13.5-9-1Z"/>
</svg>
