<svg viewBox="0 0 488.99 533.45">
  <circle class="snowglobeClearest" cx="244.49" cy="244.49" r="243.99"/>
  <path class="snowSide" d="M444.65,384.05c-37.58,21.74-94.6,27.49-137.19,16.33-49.07-12.2-84.32-11.12-117.12-2.71-39.85,9.48-74.17,6.25-105.73-3.53-12.91-4.29-25.5-6.48-37.43-6.09a244,244,0,0,0,397.47-4Z"/>
  <g class="snowglobeClearer">
    <path d="M244.49.5C109.74.5.5,109.74.5,244.49s109.24,244,244,244,244-109.24,244-244S379.25.5,244.49.5Zm0,465.68c-122.43,0-221.68-99.25-221.68-221.69S122.06,22.81,244.49,22.81s221.69,99.25,221.69,221.68S366.93,466.18,244.49,466.18Z"/>
    <path d="M370.43,78.45c-12.07,8.89-7.94,33.47,8.34,55.54s38.52,33.29,50.58,24.39,9.38-34.52-6.9-56.6S382.49,69.56,370.43,78.45Z"/>
  </g>
  <g class="snowglobeClear">
    <path d="M244.49.5C109.74.5.5,109.74.5,244.49s109.24,244,244,244,244-109.24,244-244S379.25.5,244.49.5Zm0,472.33c-126.1,0-228.33-102.23-228.33-228.34S118.39,16.16,244.49,16.16,472.83,118.39,472.83,244.49,370.6,472.83,244.49,472.83Z"/>
    <path d="M381.33,90.22c-8,5.92-4.94,22.72,6.29,38S414,151.34,422,145.42s5.9-23.42-5.33-38.66S389.35,84.3,381.33,90.22Z"/>
  </g>
  <g class="snowglobe">
    <path d="M244.49.5C109.74.5.5,109.74.5,244.49s109.24,244,244,244,244-109.24,244-244S379.25.5,244.49.5Zm0,480.09C114.1,480.59,8.4,374.88,8.4,244.49S114.1,8.4,244.49,8.4s236.1,105.7,236.1,236.09S374.88,480.59,244.49,480.59Z"/>
    <path d="M390.44,101.08c-3.66,2.7-1.14,11.88,5.36,20.69S410.32,135.71,414,133s1.59-12.2-4.91-21S394.11,98.38,390.44,101.08Z"/>
  </g>
  <path class="snowglobeBase" d="M460.09,533h-430c3.15-48.05,14.22-86.72,41.21-106.55H418.88C444.58,444.74,456.79,482.44,460.09,533Z"/>
  <path class="snowglobeRim" d="M72.14,413.66c121.24,6.58,225.26,5.18,347.28-1.35,11.12-1.09,14.1,17.07,1.63,18.43-121.21,7.89-228.48,9-350.54,1.08C58,430.2,60.75,412.31,72.14,413.66Z"/>
</svg>
