<svg id="volkswagen" 
    xmlns="http://www.w3.org/2000/svg" viewBox="0 0 2777.43 1229.69">
    <defs>
        <style>
      .cls-1 {
        fill: #0071bc;
      }

      .cls-1, .cls-10, .cls-11, .cls-12, .cls-2, .cls-3, .cls-4, .cls-5, .cls-6, .cls-7, .cls-8, .cls-9 {
        stroke: #000;
        stroke-linecap: round;
        stroke-linejoin: round;
        stroke-width: 2px;
      }

      .cls-2 {
        fill: #1a1a1a;
      }

      .cls-3 {
        fill: #8cc63f;
      }

      .cls-4 {
        fill: #662d91;
      }

      .cls-5 {
        fill: #fcee21;
      }

      .cls-6 {
        fill: #9e005d;
      }

      .cls-7 {
        fill: #333;
      }

      .cls-8 {
        fill: #42210b;
      }

      .cls-9 {
        fill: #fbb03b;
      }

      .cls-10 {
        fill: red;
      }

      .cls-11 {
        fill: #f7931e;
      }

      .cls-12 {
        fill: none;
      }
        </style>
    </defs>
    <title>volkswagen</title>
    <path class="cls-1" d="M2023,492.86c-4.09-7.5-9.92-13.73-15-20.48q-31.18-41.31-62.5-82.5C1924.37,362.3,1903,335,1882,307.33c-20.85-27.49-42.12-54.65-62.68-82.37-7.91-10.67-16.73-20.75-24.12-31.76-3.79-5.64-8.7-8.5-14.22-11.37-22.88-11.92-45.69-24-68.52-36q-20-10.5-40-21-32.49-17-65-34c-20.16-10.52-40.35-21-60.48-31.55a13.32,13.32,0,0,0-6.52-1.48q-247.5,0-495,0a16.64,16.64,0,0,0-7.55,1.94c-22.92,11-46,21.73-68.94,32.61-10,4.75-20,9.73-30,14.47-24.14,11.38-48.34,22.64-72.49,34C849.27,149,832.15,157.25,815,165.35c-23.81,11.22-47.67,22.31-71.49,33.52-16.52,7.78-33,15.7-49.51,23.48-23.81,11.21-47.67,22.32-71.49,33.52-11.53,5.43-23,11-34.51,16.48-.94.46-2,.79-3.24,1.31v220.2H590q712.5,0,1425,0c3,0,6-.31,9-.48Z"/>
    <path class="cls-2" d="M809.46,655.36v8q0,184.76-.06,369.5c0,2,1.25,4.31-1.36,5.81-4.61-2.3-9.89,0-15.1-.66-14.49-1.93-29,.66-43.48.83-.83,0-1.79-.32-2.51-.35-3.79-.13-7.06-.48-10.19,3.72-12.34,16.54-25.52,32.44-38.29,48.66-13.07,16.62-26,33.36-39,50-7.91,10.07-16.31,19.78-23.77,30.17-2,2.8-3.76,2.83-6.21,2.83q-137.25,0-274.5,0c-1.84,0-3.73-.35-5.73.56q-27.84-37.49-55.77-75.08-22-29.73-44-59.49a18.76,18.76,0,0,0-2-2l-1-1c-1.83-.33-3.69-1-5.5-.93-8.66.59-17.34-.62-26,.39-9.62,1.12-19.39.5-29.24,2V657.86H808.46Z"/>
    <path class="cls-3" d="M1308.46,662.86V509.11H1120.71V663.86H1303c1.84,0,3.73.36,5.5-.49Z"/>
    <path class="cls-2" d="M1870,641.86c-1.17.17-1.57.88-1.51,2s0,2,0,3q0,192.51,0,385c0,1.5-.52,3.09.69,5,4.3-.33,8.78-.88,13.28-1,13-.33,26-2.89,39-.61,1.91.34,4.14-.82,6-.31,4,1.11,8.86-1.46,11.84,1.1,3.67,3.15,6.53,7.46,9.61,11.34,16.94,21.36,34.3,42.37,51.54,63.48,17.69,21.67,35,43.67,52.6,65.42,2.83,3.5,6.09,6.65,8.44,10.54,1.16,1.92,3,2,5,2,11.17-.06,22.33,0,33.5,0q95,0,190,0c3,0,4.91-.54,7.18-3.38,14.48-18.11,29.6-35.71,44.29-53.66,18.62-22.74,37-45.66,55.54-68.47,7.77-9.55,15.69-19,23.46-28.54a5.41,5.41,0,0,1,5-2c4,.23,8,.48,12,.5q16.76.09,33.5,0c8.2,0,16.4-.15,25,1.89V641.86H1870Z"/>
    <path class="cls-4" d="M1162,463.86h-78.5c0-8.83-.18-17.67,0-26.5.36-14.83,1.21-29.66,1.37-44.5.1-10-1.55-20-.44-30,.67-6.15,1.72-12.37,1.4-18.49-1-19.37-.27-38.73.86-58,1.3-22,1.92-44,2.6-66,.48-15.49,1.48-31,1.46-46.5,0-10-.68-20,0-30,.64-9.44-.86-19-.69-28.49.21-11.37-.9-22.66-1.14-34-.09-4.17-.63-8.33-1-12.5l-2-1c2,1.34,4-.06,6-.06,25.83.09,51.67.06,77.5.08a12.82,12.82,0,0,1,2.13.46c-.21,3.19-.45,6.36-.63,9.52-1,17.67-2,35.34-3,53-1,17.34-2.7,34.69-3.11,52-.33,14.06-1.82,28-2.59,42-.6,11.17-.66,22.37-1,33.52-.37,12.3-1.23,24.61-.48,37a417.08,417.08,0,0,1,.06,42c-.41,10.05,1.38,20,.67,30-.55,7.83-1.46,15.75-1.27,23.5.34,14.49-1.57,29,1,43.54,1.63,9.13,1.21,18.63,1.71,28A1.29,1.29,0,0,1,1162,463.86Z"/>
    <path class="cls-5" d="M2691.55,758.83c-8.54-20.35-19.84-39-32.53-57-10.39-14.72-20.65-29.52-32.09-43.43-7.66-9.31-15.27-18.71-23.57-27.43-8.61-9.05-16-19.35-26-27-13.63-10.49-24.62-23.9-38.47-34-9.42-6.9-18.5-14.24-27.8-21.27A226.85,226.85,0,0,0,2483.36,531c-16.31-9-32.86-17.74-50-24.89-13.44-5.61-26.51-12.14-40.34-16.91-14.42-5-29.15-9-43.43-14.19a302.59,302.59,0,0,0-46.63-12.58c-14.9-2.84-30.05-4.41-45-7.24-9.31-1.77-18.74-1.79-28-3.13-14.15-2-28.41-1.92-42.58-3.42-12.71-1.34-25.56-2.4-38.46-2.48-21.17-.13-42.31-1.78-63.5-1.33a35.5,35.5,0,0,0-5,.4c-3.19.5-6.32.71-8.56-2.86-2.65-4.22-6-8-8.87-12.08-1.22-1.77-2.12-3-4.05-1l.5-1c-4.67-6.33-8.82-13.14-14.11-18.9-11.4-12.43-21.65-25.77-31.77-39.19-6.51-8.64-13.86-16.57-20.2-25.35-5.27-7.29-11.62-13.8-16.81-21.14a136.38,136.38,0,0,0-15.29-17.73c-7.61-7.58-15.16-15.26-22.18-23.31-14-16-28.14-31.82-43.13-46.89-12.72-12.8-25.68-25.34-39-37.44-11.64-10.55-23.39-21-35.58-30.9-4.62-3.74-8.44-8.28-13.33-11.72-9-6.28-17.07-13.65-26-20-8.08-5.8-16.21-11.5-24.54-16.94-6.36-4.14-13.43-6.9-19.94-10.62-15.11-8.63-31.39-14.6-47.15-21.7q-27.51-12.37-55.93-22.67c-18.14-6.6-36.46-12.69-55.06-17.81-10-2.76-20.05-5.52-29.92-8.75-9.52-3.12-19.45-4.21-29.07-6.77-4-1.06-7.68-3.26-12-3.14h-1c-7.74-.87-14.84-4.28-22.49-5.54-10-1.65-20-3.82-30-5.39-7.18-1.13-14.27-2.69-21.46-3.76-5.5-.83-11-1.47-16.55-2.18-12.48-1.61-25-2.82-37.5-4.52-6.75-.93-13.68-.45-20.47-1.18-13.65-1.45-27.37-1.22-41-2.2-10.43-.76-20.79,1-31,0-9.69-1-19.38-.41-29.07-1.34-8-.77-16.28.61-24.46.68-3.34,0-6.66.77-10,.92-11.55.53-23,2.39-34.51,2.84-10.7.42-21.33,1.5-32,2.08-17.58,1-35,3.55-52.48,5.26-12.41,1.22-24.62,4.54-37,5.64-10.59.94-21,2.58-31.47,4.29-7.73,1.27-15.31,3.43-23,4.88-11.69,2.2-23.18,5.36-35,7.14a110.71,110.71,0,0,0-18,4.48c-9.89,3.29-20,5.67-30,8.47-5.57,1.56-11,3.66-16.51,5.44-6.82,2.21-13.74,4.13-20.48,6.56-12.61,4.54-25.52,8.24-37.59,14.32-5.64,2.85-12.14,3.7-18,6.5-10.43,5-21.17,9.36-31.95,13.57A305.1,305.1,0,0,0,768,112c-10.51,5.84-21.45,10.83-32,16.56-12.38,6.74-24.43,14.19-36.73,21.08-12.5,7-24.68,14.57-37.35,21.27-5.61,3-11,6.3-16.52,9.46-10.43,6-21.09,11.58-31.06,18.41-11.74,8-24.33,14.89-35.83,23.25-10.9,7.93-21.28,16.63-31.75,25.17-10.28,8.39-19.55,17.87-29.89,26.13-8,6.37-16.28,12.29-24,19-7,6-12.93,13.15-20,19-12.05,9.94-22.78,21.41-35.82,30.24-5.29,3.59-9.36,8.93-14.11,13.34-21.55,19.95-42.14,40.86-62.49,62-9.15,9.52-18.79,18.54-27.56,28.45-11.58,13.06-23.79,25.55-35.39,38.6-12.72,14.3-25.33,28.72-37.46,43.53-8.81,10.77-16.46,22.49-25.17,33.36C225.93,572,218.25,584,210.75,596c-5.12,8.22-11.32,15.73-15.77,24.33-6.76,13.07-14.08,25.81-21.46,38.53-3.25,5.59-5.86,11.56-8.74,17.33,2.13.84,4.17.63,6.18.63q46.5,0,93,0c3.9,0,6.49-.84,9.19-4.39,7.28-9.59,15.52-18.44,23.3-27.66q9.84-11.67,19.48-23.51c2.14-2.65,4.6-3.55,8-3.55q179.25.13,358.5,0c4.38,0,7.31,1.14,10.12,5,18.06,24.54,36.52,48.79,55,73,23.85,31.15,47.45,62.49,71.32,93.63,16.8,21.9,33.31,44,50.13,65.91,1.48,1.92,1.38,3.65,1.38,5.57q0,81.26,0,162.5v5.25h937v-3.25c0-83.16.09-166.33-.17-249.5,0-6.83,1.57-12.09,6.11-17.05,10.84-11.84,21.47-23.88,32-36,15.4-17.61,30.63-35.37,46-53,10.57-12.09,21.88-23.58,31.74-36.21,4.81-6.16,9.93-6.91,16.74-6.9q210,.18,420,0c3.52,0,5.56.89,7.6,4,20,30.61,40.4,61,60.34,91.6C2440,741,2452.06,759.52,2464.33,778c1,1.5,2.63,2.58,3.06,4.16h231.2A142.83,142.83,0,0,0,2691.55,758.83ZM1274.1,621.45c-2.8,4.64-6.57,8.11-10.13,11.92-10.83,11.62-25,16.12-40,17.78-12.41,1.38-24.46-2.06-35.39-7.95-5.26-2.84-10.91-5.3-14.73-10.74a77.88,77.88,0,0,1-11.64-23.52,87.82,87.82,0,0,1-2.62-35.07c2.49-21.55,14.69-35.65,34.9-43,7.45-2.71,15.37-3.52,23-5.52h.5c5.61,1.32,11.38,1.6,17,2.89,6.78,1.56,12.84,4.59,19,7.59,9,4.38,16.86,10.43,20.78,19.61,4,9.45,8.07,18.95,8,29.91C1282.56,598.23,1280.87,610.22,1274.1,621.45Zm577.37-327.09c-1.06,5.45-1.27,11.05-2.19,16.47-1.51,8.82-2.42,17.71-3.76,26.54-1.3,8.62-1.73,17.38-3.15,26-1.56,9.47-2.68,19-3.93,28.51-.73,5.49-1.54,11-2.1,16.49-.9,8.88-2.95,17.64-3.74,26.52-.57,6.36-1.95,12.6-2.47,19-.16,2,1,5.86-2.67,7l-.5-.5c-10.83,0-21.67.06-32.5,0-5.84,0-11.75-1-17.48-.3-6.22.74-12.37-.05-18.53.06-10,.17-19.94-1.47-30-1.28-13.53.25-27.06-1.83-40.49-1.55-10.15.21-20.44-2.93-30.53.54-.69.24-1.77-.3-2.49-.33-6.82-.25-13.73-.7-20.48-.33-7.23.39-14.29-.93-21.52-.54-11.29.62-22.66-.46-34-.74-22.51-.55-45-1.44-67.51-2.34-16.8-.68-33.67-.13-50.49.41-20,.63-40-1.32-60-.2-9.46.53-19-.18-28.49-.39-4.5-.1-9-.33-13.5-.49-17.66-.62-35.32.66-53-.36-17.29-1-34.66.43-52-.59-11.68-.69-23.34.9-35,.86-8.5,0-17,0-25.52-.55-8.21-.53-16.67.49-25,0-6.21-.37-12.43.85-18.5,0-20.62-2.8-41.35-.73-62-1.64-10.26-.46-20.66.38-31,.2-19.85-.34-39.69.35-59.49,1.24-12,.53-24,.3-36,.52-24.18.45-48.32,1.95-72.49,2.3-6.67.1-13.35.14-20,.53-18.34,1.06-36.66,2.47-55,3.41-17.49.9-35,1.41-52.5,2-17.86.65-35.71,1-53.51,2.89-13.8,1.46-27.7,1.9-41.5,3.58-6,.73-12.39-.09-17.89,1.84-6.44,2.26-12.5-.89-18.07,1.34-1.8-2.14-1-3.83-.44-5.1,1.59-3.77,3.51-7.41,5.42-11,3.11-5.86,6.74-11.49,9.4-17.55,5-11.45,11.42-22.2,17.91-32.76,3.69-6,8.31-11.79,11.94-17.84,9.68-16.14,20.35-31.59,31.37-46.76,8.34-11.48,17.61-22.32,26.95-33,7.45-8.54,14.2-17.68,22.35-25.64,5.05-4.94,9.18-10.81,14.11-15.88,10.86-11.15,22.21-21.82,32.88-33.13,7.52-8,16.32-14.36,24.58-21.41,10-8.53,19.61-17.52,30.09-25.39,17.5-13.16,35.49-25.65,55.35-35.23,9-4.34,17-10.69,26.15-14.68,11.15-4.88,22.28-9.86,33.78-14.07,10.72-3.92,21.36-8.24,32.13-12.15,10.6-3.85,21.53-6.64,32.15-10.59,8.3-3.09,17.35-5,26.29-6.71,12.5-2.47,24.91-5.36,37.54-7.31,12-1.84,24-3,36-4.28,13.78-1.48,27.69-1.57,41.5-3,8-.83,16-.37,24-1.18,11-1.12,22-1.89,33-2s22.31-.85,33.51,0c7.29.53,14.71-.45,22,.21,19.8,1.81,39.68,1.81,59.51,2.9,11.17.62,22.43.61,33.48,2.15,18.77,2.63,37.74,2.48,56.52,4.8,7.47.92,15,1.18,22.49,2.1s14.69,2.18,22,3.46c10.85,1.92,21.83,3.38,32.46,6.16,9.64,2.53,19.37,4.56,29.06,6.76,9.94,2.26,20.15,3.49,30,6.19,16.44,4.53,32.33,10.79,48,17.46,20,8.5,39.72,17.51,58.55,28.39,6.2,3.57,12.93,6.47,18.79,10.32,7.78,5.11,15.85,9.87,23.26,15.62,17.32,13.46,36.39,24.61,52.85,39.19,7.23,6.41,14.75,12.48,21.76,19.21q20.79,20,40.81,40.7c3.44,3.57,6.78,7.24,10,11C1850.75,291.43,1851.79,292.7,1851.47,294.36Z"/>
    <path class="cls-6" d="M2163,1173.36c.67-4.5,1.1-9,2.05-13.49,1.86-8.75,2.06-17.71,2.65-26.53a191.83,191.83,0,0,0,.56-21.49c-.33-7-1.64-13.95-1.81-21a51.32,51.32,0,0,0-9.23-27.81c-8-11.55-21.16-15.15-36.72-8.18-18.68,8.36-34.29,21.24-48.82,35.18-10.09,9.68-20.27,19.55-28.1,31.87l-43.45-59.24c2.37-.8,3.84-1.45,5.37-1.8,7.9-1.79,15.17-5.22,22.51-8.5,12.21-5.45,23.52-12.45,34.47-20,11.37-7.88,22.34-16,29.65-28.4s6.32-25.15-3.57-35.64c-5-5.27-11.12-8.72-17.12-12.34-9-5.42-17.82-11.21-27.92-14.65a178.41,178.41,0,0,0-36.49-8.68c-8.74-1-17.36-.43-26-.77l2-1c3.83-14.66,7.63-29.34,11.51-44,1.84-7,5-13.6,5-21l1,.5c4.83,3.84,9.57,7.79,14.52,11.47,7.34,5.47,15.64,9.39,23.44,14.1A109.31,109.31,0,0,0,2076,906.35c3.16.57,6.4,1.7,9.48,1.38,8.39-.88,16.69-1.16,25.13-3.47,17.21-4.71,27.36-21.1,26.24-37.89-.54-8-.19-16-1.54-24.06-1.32-7.9-2.21-16-3.52-23.91a190.52,190.52,0,0,0-10.28-37.54c-1.55-4-3-8-4.51-12l-3-2c2.83,2.38,5.66.34,8.5,0,6.16-.7,12.35-1.18,18.49-2,8.36-1.17,16.64-3,25-3.77,3.22-.29,6.65-1.77,9.95-.54-1.83,7.93-1.62,15.81-1.17,23.33.79,13.19,0,26.64,4.13,39.55,1.45,4.52,1.62,9.46,3.17,13.94a239.51,239.51,0,0,0,9,22.5c5.2,11.15,12.95,19.41,25.91,21.62,6.27,1.07,12.2-.39,18-1.76,12.34-2.91,23.24-9.37,34-15.84,15.08-9,28.11-20.75,41.55-31.94,5.23-4.35,9.14-9.87,14-14.55l2.5-1h-2.23q20.43,33.85,40.73,67.5l.5,3c-16.41,4.15-30.5,12.94-44.53,22a188.4,188.4,0,0,0-36.29,30.71c-4.24,4.57-6.08,11.3-9.4,16.7-4.5,7.3-3.72,13.72-.93,21.19,3.89,10.4,11.78,16.76,20.74,21.78,7.38,4.13,15.63,6.7,23.4,10.19a179.4,179.4,0,0,0,38,12.13c5.66,1.16,11.38,1.72,17,2.76a25.24,25.24,0,0,1,3.1,1.14q-18.3,36.22-36.55,72.47c-1,2-1.72,4.11-4.06,5l1,2a127.4,127.4,0,0,0-21.67-27.32c-6.72-6.43-12.44-14-20.37-19.12-6.2-4-12.4-8.11-19.47-10.54-5.31-1.84-10.1-4.79-15.46-6.62-13.64-4.65-26.46-2.75-37.89,5.3a26.56,26.56,0,0,0-10.88,19.32c-.93,12-1.23,24.07,1.68,36,3.11,12.76,5.46,25.72,8.67,38.45,1.72,6.83,4.45,13.41,7,20a7.17,7.17,0,0,1,.89,3l1,1c-5.72-1.77-11.39.48-17,.89-4.93.37-10,.53-15.07,1.37-9.19,1.52-18.63,1.53-28,2.27-2.17.18-4.21,1.46-6.5,1Z"/>
    <path class="cls-6" d="M687,896.36c-2.72.25-3.72,3-6,4-18,7.78-36.38,13.4-56,15.66-19.22,2.23-37.74.88-55.48-6.79-11.88-5.13-21.74-14.37-20.6-31.4.3-4.43,1.41-8.7,1.9-13,1.54-13.57,7.75-25.37,13.22-37.45,3.53-7.81,7.6-15.36,11.44-23,3.72-7.43,7.13-15,12.5-21.5l-2,1.5c-9.83-3.16-19.65-6.38-29.51-9.49-8.64-2.72-17.32-5.34-26-8-2.42.86-2.25,3.11-2.42,5-1.25,14-4.58,27.52-8.3,41.06-2.94,10.68-7.86,20.33-13,29.83-5.31,9.92-10.68,20.13-21.71,25.76a35.74,35.74,0,0,1-23.57,3.35c-16.7-3-29.79-12-41.66-23.83q-14-14-27.29-28.71c-2.63-2.9-4.69-6.32-7.39-10l-40.5,35.33c2.26,5.15,7.35,6.84,11,9.5,15.43,11.21,26.51,26.26,38.37,40.71,5.68,6.92,10.62,14.32,13.82,22.58,3.7,9.54,4.45,19.32-1.84,28.47a34.56,34.56,0,0,1-10.65,10.27c-9.92,5.76-20,12-31.4,14-17.49,3.1-35,6.59-53,5.71-5-.24-10,0-15.68,0,.55,4.51.82,8.59,1.36,12.48,1.15,8.32,1.94,16.67,2.84,25,.89,8.18,1.84,16.36,3.12,24.48a2.36,2.36,0,0,1-.64,2.52l1.5-1a69.78,69.78,0,0,0,10.51-4,198.2,198.2,0,0,1,51.52-15.32c11.86-1.91,24-3.1,36,.67,7.81,2.45,14.64,6.55,19.25,12.78,6.51,8.78,7.56,19.69,7.1,30.34-.81,19.18-9.41,36.19-16.64,53.4a125.57,125.57,0,0,1-13.75,24.35l-2.5-.25,66.5,18.5-.5,3.5c.78-.22,1.51-.28,1.53-1.5.08-4.5-.1-9.06.55-13.49,1.56-10.65,4.32-21.06,6.89-31.51,2.93-11.92,8.32-22.87,14.24-33.38,5.21-9.24,12.42-16.72,23.18-20.91a32.72,32.72,0,0,1,28,1.5c10.39,5.31,19.59,12.49,28.31,20.57,11.65,10.79,21.7,22.72,31.41,35.13,3.43,4.38,5.41,9.66,9.33,14.09L652.57,1096c-8.93-6.92-17-13.49-24.82-20.39-10.75-9.42-20.84-19.23-29.29-30.74-8.63-11.75-16.55-23.88-19.44-38.51-.24-1.23-1.5-2-1.08-3.49,2.24-7.76,4.59-15.18,10.9-21.12C597.46,973.63,608,970.65,619,969s22.3-1.12,33.49-.64c13.73.59,27.08,3.52,40.6,6-.13-7.84-1.7-15.63-2.83-23.38-1.86-12.68-3.73-25.38-5.82-38-.66-4-.11-8.32-2.45-12Z"/>
    <path class="cls-7" d="M2444.45,943.36c-.91-12.27-3.09-24.36-4.89-36.51-1.56-10.61-4.42-20.81-7.57-31-3.43-11.12-7-22.17-12.5-32.51-7.25-13.58-14.67-27-24.33-39.14a144.51,144.51,0,0,1-10.3-14.78c-5.59-9.2-14.63-15.33-21.91-23-.57-.59-1.42-.92-2-1.52-12.15-13.19-28.53-20-43.38-29.2-7.82-4.83-16.37-8-24.35-12.4-5.11-2.82-11.43-4.46-17.29-6.35-10.7-3.46-21.5-6.55-32.46-9.18-7-1.67-14.25-1.3-21-3.48-6.42-2.09-13.26-.71-19.6-3.24-1.81-.73-4.28.36-6.44.33-10-.12-20-.07-30-.32-12.57-.31-25,2-37.49,3.43-15.74,1.82-31,6.07-46,10.95-9.22,3-18.6,5.72-27.44,9.62-10.77,4.76-20.85,11-31.13,16.75-8.43,4.75-15.88,10.7-23.47,16.57-13.9,10.72-24.58,24.32-34.38,38.59-7.93,11.54-15.28,23.49-22.51,35.49-3.33,5.54-5.75,11.62-8.58,17.45v.5c-4,13.16-8.81,26.09-12,39.5-1.68,7.07-1.33,14.34-1.94,21.51-.9,10.48-1.61,21-2,31.49-.18,5.32.79,10.67.86,16,.15,11-.46,22,.21,33a207.74,207.74,0,0,0,3.94,27.49c1.89,9.59,4.83,19,6.83,28.54,2.52,12,8.76,22.45,13.65,33.45s11.53,20.79,18.35,30.58c4.39,6.29,8.7,12.67,12.88,19.07,6,9.27,13.59,17.09,21.27,24.8,6.74,6.75,12.71,14.38,20.92,19.59,11,7,21.84,14.27,33.05,20.9,7.88,4.65,16.21,8.57,24.47,12.56,10.93,5.28,22.69,8.06,34.49,10.46,8.43,1.71,17.09,2.28,25.46,4.18,11.75,2.66,23.73,2.09,35.5,3.61a164.93,164.93,0,0,0,25.52,1.57,308.63,308.63,0,0,0,76-11.47c7.27-2,13.84-6.52,21.1-8.65,10.42-3,19.07-9.4,28.29-14.46,12.75-7,25.48-14.69,36-24.9,6.48-6.31,13.34-12.36,19.15-19.34s11.42-13.71,16.43-21c5.14-7.51,9.46-15.58,14.1-23.43,2.93-4.95,6.58-9.48,8.52-15,3.43-9.82,8.59-18.95,11.54-29,1.39-4.75,3.61-9.26,4.88-14a268.14,268.14,0,0,0,7.36-36.44c1.35-10.84,3.36-21.71,4.44-32.56C2445.83,966.79,2445.31,955,2444.45,943.36Zm-71.15,56c-1.47,12.68-5,25-9.36,37a171.42,171.42,0,0,1-39.63,63.35,181.59,181.59,0,0,1-26.24,21.81,293.94,293.94,0,0,1-33.13,19.8,143.11,143.11,0,0,1-38.46,13.16c-13.1,2.47-26.26,3.59-39.52,4.44-14.87.95-29.82.23-43.89-3.93-13.17-3.89-26.57-7.55-39.16-13.52a313.06,313.06,0,0,1-45.91-27.16c-7.33-5.16-12-13-18-19.52-3.76-4.12-6.77-8.91-10.08-13.43a233.32,233.32,0,0,1-23-38.48c-12.66-26.83-16.58-55.23-15.35-84.51a134.93,134.93,0,0,1,3.07-25.47c4-16.74,6.24-34,13-50,4.19-9.92,8.41-19.89,14.23-29.14a240.21,240.21,0,0,1,18.06-25.47,106.69,106.69,0,0,1,24.76-22.14c11.72-7.42,22.82-16.34,36.78-19.92,5-1.29,9.55-4.47,14.56-5.75a185.78,185.78,0,0,1,22.48-4.07q17.19-2.16,34.5-3.49a131,131,0,0,1,18.48,0c6.86.46,13.66,2,20.51,2.31,7.09.36,13.72,2.42,20.55,3.84,9.54,2,18.54,5.38,27.37,8.95,16.27,6.58,30.55,16.65,44.11,27.77,9,7.38,16.53,16.13,24.57,24.44,7.67,7.92,12.64,17.52,18.29,26.67a226.54,226.54,0,0,1,20.48,43.48c3.4,9.59,4.92,19.71,5.73,29.94.75,9.5,1.51,19,1.4,28.51v.5A193.39,193.39,0,0,1,2373.3,999.34Z"/>
    <path class="cls-8" d="M489,1019.86c7.13.56,13.92-1.3,20.46-3.6,8.91-3.14,16.79-8.09,22.54-15.9,6.79-9.22,9.94-19.41,10.22-31,.21-8.87-.81-17.13-4.74-25a49.57,49.57,0,0,0-33.54-26.78c-17.51-4.32-35.47-.44-49,15.68a75.79,75.79,0,0,0-12.39,19.59c-2.63,6.27-2.77,12.91-2.44,19.5.49,9.62,3.8,18.29,8.85,26.56,6.9,11.31,17,17.5,29.61,19.83,3.24.6,6.47,2.55,10,1.11Z"/>
    <path class="cls-4" d="M1924,396.36c-3.87,2.9-8.68,2.4-13,3.38-12.08,2.69-24.39,4.43-36.45,7.22-12.78,3-25.67,5.31-38.52,7.89a45.23,45.23,0,0,1-6,1.12c-3.69.24-5.2,2.3-5.13,6.39.18,11.67-.22,23.34-.38,35,0,1,0,2,0,3.57,9.83-.34,19.14.64,28.5,0,3.48-.24,7,.31,10.5.42,10.83.36,21.67.57,32.5,1,12.17.54,24.33,1.72,36.5,1.83,8.32.07,16.68.52,25-1.22,8-1.68,10.87-6.31,7-13.14-10.12-17.74-20.53-35.24-35.42-49.6-1.31-1.26-2.79-2.2-4.09-3.4Z"/>
    <path class="cls-7" d="M758.46,947.86c.93-.68.62-1.73.45-2.49a194.57,194.57,0,0,1-3.22-22.53c-1.76-18.4-7.69-35.48-14.22-52.48-2.33-6.08-5.29-11.86-7.65-18-3.28-8.48-7.92-16.38-12.88-24-4.06-6.24-8.32-12.34-12.48-18.52-9-13.43-20.31-25-31.68-36.32-6-6-13-11.35-19.67-16.86C645,746.62,631.52,739,617.43,732.43c-19.46-9.1-40-15.09-61-19.52a251.38,251.38,0,0,0-25.51-4.41c-7.15-.74-14.33-1.3-21.49-2a189.36,189.36,0,0,0-42,.59A147.93,147.93,0,0,0,433,715.34c-9.46,3.6-19.13,6.69-28.46,10.59-16.85,7.05-32.3,16.79-48,26-11.19,6.58-21.16,14.91-30.58,23.88-3.18,3-5.72,6.95-9.12,9.32-7.44,5.2-12.67,12.29-17.63,19.36-4.68,6.67-9.95,13-14.08,19.94-3.88,6.56-9.16,12.12-12.66,18.9a102.38,102.38,0,0,1-6.43,11,118.67,118.67,0,0,0-12.08,23.66c-2.58,6.58-3.75,14.26-6.81,20.65-3.3,6.9-4.5,14.17-6.42,21.23-2.4,8.86-3,18.19-3.86,27.42-.89,10.17-2.13,20.32-2.28,30.51-.19,13-.77,26,.93,39,.94,7.15.3,14.4,1.1,21.49,1.85,16.27,8.64,31.14,15,45.94,6,14,14.4,26.78,23.44,39,7.44,10.06,14.66,20.37,24.32,28.66,6.7,5.76,12.18,12.69,19.4,18.14,16.93,12.78,35.14,23.16,54.17,32.27,12.75,6.1,26.37,9.53,40,13.13,9.75,2.58,19.69,4,29.45,6.23,12.14,2.72,24.35,5.18,36.59,5.87,18.28,1,36.67,2,55-.65,17.72-2.53,35.45-4.81,53-8.41a196.79,196.79,0,0,0,40.48-12.62c12.44-5.51,23.24-13.67,34.41-21.15,9.92-6.65,18.39-15.16,27.19-23.27,19.25-17.74,33.14-39,44-62.57,2.86-6.2,3.89-12.94,6.86-19.07,5.86-12.06,9.1-25,11.93-38,2.07-9.54,3.16-19.3,4.6-29,2.07-13.92,1.73-28,2.44-42,.38-7.48.07-15,.07-22.5Zm-86,80c-4.44,16.53-12.31,31.45-21.08,46-2.53,4.19-5.54,8.09-8.46,12-14.06,18.9-31.12,34.48-52,45.44-14.3,7.5-29.74,12-45.44,15.68-7.64,1.81-15.56,2.28-23,4.86a6.29,6.29,0,0,1-2,0c-15.69-.06-31.34.27-47-1.8a328.94,328.94,0,0,1-44.92-9.39c-16.24-4.48-31.42-11.81-46.12-20.19-9.8-5.6-17.42-13.44-25.62-20.91-10-9.12-17-20.43-25-31-4.82-6.38-6.8-15-10-22.69-3.93-9.43-6.2-19.26-8.1-29.11-1.33-6.86-3-13.76-2.87-21s-1-14.66-1.32-22a118.53,118.53,0,0,1,2.33-27.52c1.54-7.77,2.84-15.46,5.44-23a251.28,251.28,0,0,1,14.61-34c5.89-11.35,11.23-23.16,20.2-32.34,13-13.24,26.12-26.37,41.36-37.14,11.65-8.24,22.83-17.09,36-23.06a287.84,287.84,0,0,1,28.51-11,207.46,207.46,0,0,1,32.52-8c15.58-2.51,31.15-3.22,46.47.72,11.67,3,23.48,5.65,34.57,10.79a173.86,173.86,0,0,1,62.39,48.14c11.23,13.73,21.7,28.17,28,45,4.71,12.59,7.07,25.88,10.16,39,1.42,6,2.87,11.95,4.18,18,1,4.41.1,8.76,1.19,13.07A104.2,104.2,0,0,1,679,962.86v.5c-.86,6.36.69,12.63.68,19C679.61,998,676.5,1012.94,672.49,1027.87Z"/>
    <path class="cls-8" d="M2131,986.36a31.58,31.58,0,0,0,13.08,20.89c11.93,8.75,25.1,15.23,40.4,13.48a53.49,53.49,0,0,0,38.06-21.84,102.92,102.92,0,0,0,8.13-12.71c2.22-4.12,3.29-9.5,3.63-14.33.78-11.13.66-22.33-5.29-32.5-8-13.65-19-23.45-35-25.89-14.89-2.26-28.67.36-41.63,9.18-10.49,7.14-17.18,16.41-21.91,27.7-.6,1.41-.07,2.73-.46,4-3.06,10.28-3.8,20.48,1,30.52.09.2-.3.65-.47,1Z"/>
    <path class="cls-9" d="M959.45,997.22c11.65-1.1,23.38-1,35-2.07,10.33-1,20.68-1.78,31-2.17,12.65-.48,25.34.13,38-.18,16.34-.41,32.66-1.5,49-1.87,15-.34,30-.46,45-.89,18.33-.51,36.57-2.8,55-1.41,11.9.9,24-.49,36-.76,21.18-.47,42.3,2.14,63.5,1.07,4.64-.23,9.39,1.21,14,.79a255.54,255.54,0,0,1,29-.82c16.33.36,32.67.12,49,.55,14.11.38,28.31.79,42.49.56,13.82-.23,27.68,1.52,41.49,1.15,14.18-.38,28.34,0,42.51-.18,17.16-.2,34.33.52,51.5.88,16.17.34,32.32-.15,48.52,1.18,11,.9,22,1.35,33,2.42,4.67.46,9.35.55,14,1,14.65,1.34,29.33,1.49,44,1.92,0,0,.65-9.37-.26-15-.93-5.82.36-12,.2-18-.28-10.2,2.75-20.26,1.07-30.5a4.94,4.94,0,0,1,0-2c3.47-12.27,3.4-25,5.32-37.53,2-13.25,2.44-26.71,4.56-40,2.94-18.38,7.25-36.43,11.62-54.48,3.07-12.67,7.13-25.06,10.78-37.57,2.06-7,4.33-14,6.84-20.89a253.79,253.79,0,0,1,18.33-39.57c3-5.29,5.37-11,8.21-16.38,4.82-9.14,11.35-17.29,16.94-26,8.51-13.31,18.85-25.14,30.19-36.27a343.17,343.17,0,0,1,26-23.46c8.7-7,17.35-14.22,27.07-20.09,8.41-5.08,15.8-11.84,24-17.4,18.77-12.65,38.81-22.68,59.6-31.34,8.29-3.46,16.69-6.68,25.08-9.81,13.51-5.05,27.76-7.76,41.87-10.92a256.85,256.85,0,0,1,27.09-4.89c10.58-1.19,21.25-2.43,31.94-3.15,13.67-.91,27.33-2.36,41-3.2,7.15-.44,14.3-.56,21.51-.33,9,.29,18-.22,27-.21,15.36,0,30.67.3,46,1.77,11.51,1.1,22.87,3.31,34.47,3.95,10.22.57,20.4,2.83,30.5,4.83,16.54,3.28,33.06,6.72,49.49,10.52,10.43,2.41,20.79,5.26,31,8.52,8.68,2.78,17.58,4.86,26.05,8.35a82.41,82.41,0,0,0,14.51,4.92c5.41,1.11,10.4,3.21,15.45,5.18,12.39,4.85,24.71,9.9,37,15,6.55,2.71,13.22,5.25,19.46,8.57,10.67,5.68,21,12.08,31.57,17.87,12.43,6.77,23.85,15.07,35.48,23,8.43,5.79,15.71,12.95,23.58,19.41s15.34,13.4,20.92,22.09h1c-3.18,3.43,1,5.2,2.17,6.89,11.55,16.69,23.5,33.11,35.33,49.61s23.75,32.94,35.47,49.52q11.78,16.67,23.87,33.1c8,10.8,11.85,23.83,16,36.43,5.1,15.48,11.66,21.48,28.16,22.93,5,.44,9.57,1.56,13,5.52a55,55,0,0,1,11.54,22.49,176.19,176.19,0,0,1,5.07,25.5c1.11,10.17,2.66,20.27,1.37,30.51-1.06,8.35-2.31,16.67-3.48,25-1.58,11.28-4,22.39-6.49,33.5-2.33,10.5-7.43,20-11,30a164.77,164.77,0,0,1-15.32,31.81c-5.53,8.88-13.64,16.14-25.2,17.17-10,.89-20,2-30,2.44-12.49.58-25,.76-37.51.18s-25,.73-37.49.66c-14.48-.08-29,.72-43.5.75-1.67,0-3.42.73-5,.41a77.53,77.53,0,0,0-22-1.29c-6.52.52-12.7-.33-19-1.57-12.34-2.4-23.58-6.52-32.05-16.51-3.06-3.61-5.19-7.36-4.89-12.06.74-11.5,2.61-22.95,2.36-34.5-.18-8.17,1.28-16.3.19-24.51a107,107,0,0,1-.55-15c.05-8.21-1.21-16.33-1.78-24.48-.61-8.74-3.07-17.36-4.77-26-2-10.17-3.09-20.5-5.95-30.51-1.89-6.6-3-13.45-5.13-20-3.33-10-6.31-20.21-10.26-30.09-4.56-11.39-9.94-22.37-15.15-33.44-2.19-4.66-3.94-9.57-6.58-14a246.89,246.89,0,0,0-25.68-35.26c-10.08-11.52-21.7-21-33.19-30.85-7.46-6.39-16.43-10.26-24.72-15.15a147.58,147.58,0,0,0-19.85-10.23c-10.2-4.09-20.28-8.5-30.39-12.77a313.38,313.38,0,0,0-31.7-11.42c-7.48-2.25-15.58-3.42-23.34-5.11-15.91-3.46-31.86-6.63-48.06-7.58a367.34,367.34,0,0,0-45.49.37q-13,.87-26,2.19c-12.26,1.24-24.22,4.08-36.45,5.45-9.6,1.07-18.7,4.66-27.56,8.73-5.35,2.46-11.18,3.69-16.52,6.47-11.73,6.12-23.1,12.83-34.44,19.61-11,6.61-22.12,13.22-32,21.56-8,6.79-16.3,13.2-23.73,20.76-7.81,7.94-14.78,16.56-22.19,24.8-12.09,13.44-20.75,29.17-27.67,45.87a76.35,76.35,0,0,1-5,10c-4.15,6.89-6.34,14.57-8.82,22.07-2.31,7-3.46,14.29-5.15,21.45-1.3,5.51-3.33,10.94-3.82,16.52-.56,6.48-1.05,13.09-2,19.44-2,13.72-1.49,27.37-1.1,41,.33,11.51,2,23,2.3,34.5.46,16.24,2.2,32.35,3.4,48.52.71,9.59,1.2,19.4-1.27,29-2.1,8.13-5.91,14.07-15.07,12.81-3.31-.46-7-.71-10.46-.92-9-.53-18.13-.89-27-2.6a156.53,156.53,0,0,0-23.56-2.33c-7.25-.3-14.61-1-22-.81-9.93.25-20-1.12-30-1.18-8.17,0-16.4.28-24.49-.61-12.82-1.41-25.72-1.57-38.52-2-11.76-.37-23.65-.53-35.5-.07-14,.55-28-.21-42-.3-4.17,0-8.35.59-12.5.42-11.67-.5-23.3-1.56-35-1.55-2.5,0-5,.34-7.5.32-7.54-.08-15-1.28-22.5-1.21-12.5.12-25,.9-37.49.31-9.69-.47-19.34.45-29-.13-4.2-.25-8.27-1.34-12.49-1.21-9.5.3-19,.54-28.51.35-10.64-.22-21.32-.18-32-.32-9.17-.12-18.34-.36-27.5-.38-22.18,0-44.33-.8-66.5-1.09-12.17-.15-24.32-.22-36.51.33-18.14.83-36.32.8-54.49,1.13-4.85.09-9.71-.25-14.51,1-6.07,1.54-12.33.47-18.5.86-14,.88-28,1.12-42,1.07-8.49,0-17,.08-25.52-.62-10.24-.84-20.65.48-31,.69-6.83.14-13.68-.24-20.5-.33-11.5-.16-23,1-34.5.73-14-.39-28,.91-42,.86-14.33,0-28.67,1.79-43,2.76-3.66.25-7.35.22-11,.54-11.66,1-23.18,3.43-35,3-15.7-.53-31.29,2.11-47,2.26-3.16,0-5.81-1.26-9-1.09-11.29.61-22.66,1.55-34,.18-2.55-.31-5.41-1.17-6.92-3.48-1.2-1.83-5.87-2-3.09-5.94-4-5.92-3.67-12.37-2.55-19,.61-3.62,1.75-7.6.85-10.94-2.53-9.48.65-18.72.68-28.05s2.26-19,2.39-28.5c.25-17.69.4-35.35-2.15-53-2.18-15.08-4.42-30.12-7.83-44.94a301,301,0,0,0-10.45-36.51c-2.58-7-4.89-14.08-8.86-20.57-8.1-13.21-15.89-26.6-24.52-39.49A270.17,270.17,0,0,0,724.81,758c-13.88-16.07-28.92-31-47.33-42.16-6-3.61-11.48-8-17.56-11.4-19.52-10.87-40.64-17.87-62-23.94-19.15-5.45-38.46-10.27-58.44-12.32-17.33-1.79-34.64-2.92-52-3.29a258.35,258.35,0,0,0-32.52,1.81c-8.51.88-16.68,2.92-25,4.55-12.58,2.47-24.18,7.88-36.46,11.18-13.12,3.52-24.68,10.73-36.38,17.2-8.32,4.61-16.52,9.66-24.66,14.71-14.76,9.14-29.07,18.91-41.93,30.58-11.17,10.13-20.43,21.93-29.72,33.82a285.39,285.39,0,0,0-52.43,110.11,234.41,234.41,0,0,0-5.63,35.54c-.73,9.94-2,19.87-1.59,30,.4,11,0,22,.22,33,.15,6.39,1.15,12.67,1.57,19,.83,12.34,3.38,24.57,2.49,37a41.12,41.12,0,0,1-6.45,19c-5.9,9.46-15.76,11.87-25.53,13.89-15.65,3.25-31.6,4.47-47.49,6-2.53.25-4.83,1.66-7.5,1.09-5.62-1.2-11.35-.69-17-.41-8.57.42-16.73-1.53-25-3.09a84.08,84.08,0,0,1-28-10.55c-4.81-2.89-10.12-5.46-13.42-10-6.61-9.16-13-18.43-16.75-29.38-3.22-9.36-7.89-18.28-9.77-28.06-2.8-14.54-5.7-29.09-6.13-44-.22-7.67-1.21-15.33-1.38-23-.22-9.43.94-18.67,2.52-28.07,1.93-11.38,3.75-22.69,8-33.39,4.5-11.31,11.09-20.43,24.89-21.72,5.62-.52,12-.64,16.43-4.91,5.84-5.66,9.59-13,12.41-20.47,1.4-3.73,2.79-7.29,5.18-10.44q28.74-37.75,57.5-75.5,33.74-44.25,67.54-88.47c2.4-3.13,3.3-7.11,6.89-9.62,7.89-5.53,15.68-11.25,23-17.49,9.87-8.4,20.36-16,30.59-23.89a264.83,264.83,0,0,1,37.61-23.77c10.42-5.56,20.53-11.86,31.76-16,4.52-1.68,9.14-3.66,13.58-5.79,3.82-1.83,7.14-4.84,11.07-6.31,9-3.37,18.33-6,27.45-9.15a203.29,203.29,0,0,1,26.48-7.6c5-1,10.09-1.8,15-3.05A218.57,218.57,0,0,1,443,524.43c9.13-1.28,18.47-1.37,27.45-3.26a182.75,182.75,0,0,1,29-3.2c7.48-.36,15,.19,22.5.4,7.34.2,14.67-.37,22,.9,10.57,1.84,21.4.92,32,3,12,2.37,24.17,3.7,36,7s23.51,5.87,35.06,9.84c17.11,5.88,33.84,12.7,50.33,19.93a399.69,399.69,0,0,1,51.69,27.64c10,6.28,20,12.43,29.51,19.5,15.17,11.28,28.26,24.73,41.94,37.6,10.7,10.08,19.94,21.44,29.38,32.61a306,306,0,0,1,19.47,25.5c6.32,9.31,13.19,18.22,19.51,27.5,4.5,6.59,9.62,13,12.46,20.48,3.55,9.34,9.37,17.54,12.63,27,2.21,6.37,5.79,12.11,8.12,18.46,3.71,10.11,7.41,20.17,10.55,30.49,2.82,9.26,7.15,18.07,9.3,27.56,3.27,14.44,7,28.79,9.11,43.48,1.32,9,1.65,18.06,3,27,1.81,11.79,2.24,23.69,3.22,35.53,1,12.43.52,25,.69,37.48C958,996.86,957.93,997.36,959.45,997.22Z"/>
    <path class="cls-3" d="M1835,415.36c-3.87,8.68-1.81,17.06,5.49,23,12.5,10.2,27,12.13,42.51,11,10.55-.74,20.44-3.14,27.42-11.61,8.81-10.69,11.71-24.9,2.6-36.45-3-3.81-6-5.94-11.56-4.63-15.57,3.7-31.43,6.15-47,9.93A71,71,0,0,1,1841,409c-3.33.15-5.75,2-5.5,5.9Z"/>
    <path class="cls-10" d="M2568.46,631.36c-5.76-2.24-12.8,1.66-15.57,8-3.07,7-2,14.1-.8,21,2.27,13.34,6.2,26.29,10.76,39.06,2.25,6.3,5,12.34,7.71,18.42,4.11,9.34,8.8,18.42,13.43,27.52A205.38,205.38,0,0,0,2594.3,764c3.55,5.49,6.42,11.44,10.07,16.95,4.55,6.9,9,13.86,14.62,19.91,8,8.63,15.79,17.62,24.61,25.38,9.73,8.56,20.53,15.83,33.85,18.19,13.74,2.43,23-4.09,25.7-18,3.42-17.43-.82-33.46-7.37-49a269.13,269.13,0,0,0-22.12-40.7c-5.51-8.53-10.48-17.48-16.3-25.81a198.93,198.93,0,0,0-20.85-25.12c-8.24-8.43-15.91-17.41-24.09-25.91a159,159,0,0,0-25.5-22c-5.37-3.61-11.2-6.49-18-6.56Z"/>
    <path class="cls-11" d="M1925,411.36c8.76-7.17,14.25-15.86,16.23-27.46,2.69-15.77-4.24-28-12.3-40-12.37-18.38-30.24-30.44-48.89-41.62-13.58-8.13-27.94-13.89-43.55-16.39-10.61-1.7-20.58-.48-27.42,9-4.36,6-5.92,13.41-8.1,20.44-5.77,18.58-6.45,37.87-8.75,57-1.53,12.71,1.16,24.74,2.39,37,.63,6.21,11.18,14.35,18.39,15,5.89.52,11.46,2.78,17.5,2.79,1.37,0,3.32.68,5,.69,10.67.08,21.33.16,32,0,17-.23,33.09-4.47,48.49-11.49,2.91-1.33,5.68-3,8.51-4.48Z"/>
    <path class="cls-11" d="M1319,577.86c-.24-6.47-6-12.14-12.48-13.6-10-2.24-20-1.08-30-1.78-11.63-.83-23.33-1.14-35-1-15.5.14-31,.91-46.5,1.41q-1.5,0-3,0a339.15,339.15,0,0,0-43.48,1.72c-7.61.71-15,4.23-18.39,11.84-4.87,11,2,23.81,15.34,26.11,15.15,2.63,30.32,2.23,45.53,2.32,9.17.06,18.34.18,27.5,0,16-.36,32-.4,48-1.64,11.84-.92,23.67-1.73,35.52-2.29,7.73-.36,13.37-4.33,18-10.06,2.37-3,1.9-9.67-.47-12.46C1319.22,578.11,1319,577.86,1319,577.86Z"/>
    <path class="cls-10" d="M210.46,639.36c-10.31,3.37-18.59,10.18-27.66,15.75-11,6.75-18.55,16.5-26.85,25.75-3.85,4.3-7.95,8.4-11.84,12.64-6.24,6.81-11.36,14.63-17.18,21.84A236.22,236.22,0,0,0,103.74,750c-8.13,14.82-17.58,28.88-24.22,44.67-3.84,9.14-7.93,18.13-10.47,27.71-1.2,4.53,3.16,10.51,7.37,12.55,8.26,4,15.9,1.11,23.52-1.62,13.5-4.84,23.94-14.28,34.51-23.47,8.22-7.13,15.07-15.61,22.39-23.6,6.08-6.63,11-14.28,16.64-21.37,8.41-10.67,16.34-21.78,22.76-33.64C206,713.16,216.14,695,220,674.37c1.42-7.62,2.61-15.25,2.45-23-.16-7.46-4.59-12-11.48-12Z"/>
    <path class="cls-12" d="M1083.57,453.33c.71,2.66-.08,5-.13,7.53-.3,15.67-1.27,31.35-.79,47,.42,13.68-.39,27.32,0,41,.35,12-.1,24-.16,36-.13,22.67.07,45.34-.09,68-.08,12.5-1,25-.87,37.5.22,23.67,1,47.33,1.4,71,.22,12.17,1.43,24.29.67,36.51-.49,8,.73,16,.8,24,.15,16.67,0,33.34.06,50,0,7,1.77,13.89,1.71,21,0,5.47-.22,11,.1,16.51.73,12.3.63,24.66.65,37,0,13,2.14,26,1.58,39-.07,1.65.62,3.34,1,5"/>
    <path class="cls-12" d="M1843.46,464.36a12.26,12.26,0,0,0-.25,6.05c1.11,5.51,1.1,11.28,1.21,16.95.19,10,.95,20.06.77,30-.31,16.17,1.41,32.33-.12,48.51-.67,7.11.07,14.33-.16,21.49-.32,10.34-1,20.67-1.45,31"/>
</svg>
