<svg viewBox="0 0 298.8 275.88">
  <g class="whiteMedium">
    <path d="M290.75,38.91a2.71,2.71,0,0,1,2.7,2.25c4.36,26-.57,77.86-5.61,87.26C263,114.94,233.57,81.06,230.12,43.73c-6.22,42.86-29.57,72.45-68.1,97.13-43.17-20.52-71.51-48.43-81.23-95.05C72.28,89.3,49.78,116.23,8.55,134,2.76,98.37-1.57,65.58,1.55,47a2.76,2.76,0,0,1,2.68-2.3C3.66,16.24,290.17,10.43,290.75,38.91Z"/>
    <path d="M285.81,129.32c12.64,10.33,17.41,80.47,5.08,127.42-.35,1.41-1.4,2.27-3.39,2.37l-.34-3.05c-1.41,2.28-5.42,3.39-8.47,2C269.67,210.94,276.77,134.53,285.81,129.32Z"/>
    <path d="M162.45,140.84c15.59,3.39,19,81.33,9.83,131.15a11.76,11.76,0,0,1-8.81,3.39l.68-1.7c-3.39,1.7-8.47,1.7-9.83-1C143.82,230.31,149.58,153,162.45,140.84Z"/>
    <path d="M12,134.4c12.2,3.39,16.9,76.52,12.88,131.15-.68,1.36-5.42,2.37-7.79,1.69l-.34-2.37c-2.95,1.26-7.46,1.36-10.17-.34C.56,208.19.13,139.15,12,134.4Z"/>
  </g>
  <g class="curtainCreaseLine">
    <path d="M285.81,131.69A184.45,184.45,0,0,1,289.19,191"/>
    <path d="M165.84,149q-10.67,51.69-7.11,108.44"/>
    <path d="M34.82,84.87a71.54,71.54,0,0,1-16.59,24.88"/>
    <path d="M60.75,61.71a135.08,135.08,0,0,1-41.48,58.07"/>
    <path d="M105.34,66.55c8.23,20.62,23.37,38.93,41.13,55.3"/>
    <path d="M117.43,48.57q1.92,19.37,13.48,38.72"/>
    <path d="M135.41,61.71c3.45,18.89,10.78,37.07,18.32,54.61"/>
    <path d="M181,57.21c-1.09,16.92-2.31,32.85-8.65,47"/>
    <path d="M195.9,64.47a153,153,0,0,1-22.12,55.31"/>
    <path d="M218,46.84c-6.82,27.94-18.81,52.86-40.44,74.32"/>
    <path d="M248.44,63.78a121.42,121.42,0,0,0,31.8,50.81"/>
    <path d="M261.57,65.51c2.52,10.32,8,21.06,15.9,32.15"/>
    <path d="M13.69,163.21c2.79,8.18,4.09,17.6,4.06,28.13"/>
  </g>
  <g class="curtainFoldLine">
    <path d="M287.16,256.06c-5.47-24.14-6.64-52.29-4.06-77.6"/>
    <path d="M164.15,273.68c3.73-22,7.12-47.78,3.39-69.13"/>
    <path d="M16.74,264.87c-5.8-32.68-9.42-58.74-6.44-88.45"/>
  </g>
  <g class="bonsaiCloser">
    <path d="M292.92,130.68c4.41,4.06.34,10.16-5.08,7.79-.68,2.71-4.41,3.05-5.76,0-5.42,2.71-8.13-3.05-3.73-6.1-3.73-4.07.34-9.15,5.42-7.12C288.86,117.46,297.67,123.9,292.92,130.68Z"/>
    <path d="M162.12,139.15c6.1-8.14,15.92-3.39,11.52,3.73,5.42,1.69,2,10.16-4.75,6.43-.34,4.75-8.81,5.77-9.82,0-3.73,3.05-7.12-2-4.41-4.74C147.88,139.49,157.37,131.69,162.12,139.15Z"/>
    <path d="M12.33,141.86c-4.07,5.08-10.17,0-6.1-5.08-4.07-2.72-2-7.8,2.37-6.1,1-6.1,7.46-6.44,8.81-1,6.44-5.76,11.53,4.07,4.07,5.76C25.89,142.2,17.75,148.64,12.33,141.86Z"/>
    <path d="M291.65,22.3c1-6.56-8.3-9.68-12.79-3.11-2.08-2.76-6.23-2.42-6.57,1.38-2.42-4.14-7.26-3.8-9.33,2.08,1.72-6.91-5.88-10.37-11.41-5.53-1-3.8-5.88-5.53-9.68-2.08-3.46-5.18-10.71-4.14-11.75,2.77-1-3.46-4.84-2.77-5.88,0-1-5.19-8.29-5.53-10.71-1,2.07-5.18-3.81-9.33-8.64-5.87-.7-5.53-11.41-4.5-10.37,2.07-3.46-4.15-10-1-10.37,3.8,0-5.53-5.88-8.64-10.72-4.49,2.07-4.49-4.49-9.68-8.3-5.53-1-7.61-9.67-8.64-12.09-1C150.62.53,142.67,1.22,142,8.13c-4.84-3.46-10,.35-9,5.53-2.42-2.76-5.88-1.73-5.88,2.08-1.73-6.23-7.6-8.3-12.44-2.42-2.42-3.81-7.61-4.15-9,1.38-3.11-4.5-9-3.46-9.68,3.11-2.76-3.11-8.29-2.07-8.29,3.8-.69-6.22-6.92-7.6-10-2.07a3.51,3.51,0,0,0-6.91-1c-.34-6.91-9.33-6.91-9.68,0-2.76-4.15-7.26-2.76-8,2.07-4.15-3.8-9.33.35-9,5.19C41.39,23,37.24,24,37.24,28.87c0-6.22-6.57-7.6-9.33-2.07-2.07-7.26-9.68-5.53-10.72,1.38-3.11-5.53-10-2.08-9,2.42-7.26-3.8-10,2.76-5.53,7.95-3.11,1.73-2,5.84,1.55,6.18,48.15-1,98-7.61,149.08-18.39a26.9,26.9,0,0,1,11.71.12c38.24,8.93,80.41,12.74,125.73,12.45,5.53-.2,7.55-5.55,4.7-9.69C301.67,26.8,296.48,18.85,291.65,22.3Z"/>
  </g>
  <g class="rose">
    <circle cx="18.37" cy="27.1" r="4.41"/>
    <circle cx="48.93" cy="34.84" r="4.41"/>
    <circle cx="64.52" cy="29.01" r="4.07"/>
    <circle cx="97.73" cy="28.33" r="4.07"/>
    <circle cx="125.65" cy="13.38" r="4.41"/>
    <circle cx="153.67" cy="5.72" r="4.41"/>
    <circle cx="171.37" cy="20.07" r="4.41"/>
    <circle cx="201.76" cy="19.52" r="4.07"/>
    <circle cx="222.44" cy="28" r="4.41"/>
    <circle cx="252.78" cy="15.83" r="4.07"/>
    <circle cx="265.81" cy="32.4" r="4.07"/>
    <circle cx="290.81" cy="21.49" r="4.41"/>
    <circle cx="13.35" cy="141.86" r="4.41"/>
    <circle cx="292.92" cy="130.68" r="4.41"/>
    <circle cx="163.13" cy="139.49" r="4.41"/>
  </g>
</svg>
