<svg viewBox="0 0 143.52 518.07">
  <g class="soleWhite">
    <path d="M14.58,508.08a8,8,0,0,0,.3,5.23c1.9,2.89,20,6.28,28.8,3.44,5.47-1.78,16.64-1.24,19.53-5.93a45.92,45.92,0,0,0,.73-5.21Z"/>
    <path d="M82.56,506.21a13.65,13.65,0,0,0,.67,5.41c6.38,10,36.47,5,39.06,1.39a6.66,6.66,0,0,0,.4-5.08Z"/>
  </g>
  <g class="howieShoe">
    <path d="M58.62,482.53l-19.13.1c-5.38,6.87-9.16,15.54-17.13,18.73-4,1.6-6.87,3.8-7.78,6.72,4.79,3,18.31,5.42,27.9,3.34,6.89-1.49,16.12-1,21.46-5.81A39,39,0,0,0,58.62,482.53Z"/>
    <path d="M120.3,504.25c-8-6.82-5.68-11.36-9.57-19.13l-23.71.1c-2.92,6.26-4.39,15.15-4.46,21a29.24,29.24,0,0,0,9.14,4.64c7.58,2.18,26.4.26,31-2.92A7.5,7.5,0,0,0,120.3,504.25Z"/>
  </g>
  <path class="howiePants" d="M27.79,249.65c-6,32.47,1.26,82.77.25,111.36-.4,11.18,2.72,16.77.5,24.56-2.47,8.65,4.94,10.28.74,62.75-.74,9.3.88,17.49,6.7,22.57-4.4,4.06-8,11.32.86,15.39,3.55-3.34,10.1-1.95,12.33,1.05,5.38,1.24,8.68-3,11.89.11,4.34-1.68,5.68-6.19,3.94-11.34,7.19-6.45,1.6-12.67.74-18.11-1.42-9,.69-25.82-.25-44.15-1.42-27.93,2.12-28.56,2.23-41.17.25-28.28,5-58.29,6-70.69,2.69,31,7.22,67.72,5.55,75.85-3.26,15.93,3.13,16.42,1.84,46-1.69,18.26,4.26,29.82,1.32,38.39-4.11,12,7.16,15.09,1.84,26.57,7.24,1.7,9.19.1,15.78-.24,5-.26,7.76,2.07,14.2-.55-1.21-2-1.38-4.48-.79-7.37,7.1-6.05,4.9-10.11,2.11-19.19-4.21-13.68,7.06-19.46,1.31-40.24-4.37-15.82,5.26-32.35.79-47.87-2.87-10,6.05-51,2.85-95.46-.77-10.65,0-18.67-3.64-26.83Z"/>
  <g class="hairBlack">
    <path d="M101.59,79.83l1.61-21.58C117,18,93.38.33,61.92,5.25c-24.3,3.81-34.75,23-30.48,48.06l.76,19.13c-11.64,18.65,6.6,25.32-6,36.44C36.38,116,60.48,112,73,104.54c11.53,6.45,23.43,10.92,37.06,5.14C98,105.32,115.57,91.18,101.59,79.83Z"/>
    <path d="M61.92,5.25a60.39,60.39,0,0,1,15.54-.51c-4.14-6.61-15.66-5.63-18.34,1C60,5.58,61,5.4,61.92,5.25Z"/>
  </g>
  <path class="howieShirt" d="M91.28,109.75l-38.54-.17-.45,146.5c12.62,3,24.77,3.18,36.29-.2Z"/>
  <g class="howieLongSleeve">
    <path d="M88.75,122l5.4-12.45c14.51,7.08,29.77,9.26,36.78,15.17,9,7.58,6.44,16.09,7.83,24.62s3.62,16.65.57,27c1,6.9,3.49,13.79,2.48,19.43-.65,3.62,2.56,6.87-.31,10.81-2.1,2.87.49,3.48-.4,8.47-2.49,14.15,2.77,16,.52,20.8-4.24,9.14,7.61,7.35-2.67,23.86-.66,5.85.2,12.26-1.34,16.22-.93,2.38-15.77,1.59-15.62-.94.07-5,1.11-10.88,1.14-15-4.35-1.2-2.68-6.62-4.76-14.1,1,6.32.51,12.5,1.59,16.49.2,1.82-2.78,3.06-6.89,5.76-5.57,3.66-3.5,8-23.92,10.14-2.78-21.52-6.83-56.86-5.91-70.87.55-8.23-2.68-21.1-1.34-31.9.64-5.23-.73-13.64.29-20.68C82.73,151.1,82.31,135.64,88.75,122Z"/>
    <path d="M54.66,120.92c4.17,8.87,5.75,21.55,6,37.85.32,24.58-.65,42-.52,48.88.32,17.89-5.13,43.57-5.46,68.38-10.6.61-15.43-1.81-21.25-7.49-2.1-2-4-.71-7.83-5.13.73-3.67.16-7.93,1-13.35-2.16,4.42-1.77,9.93-3.69,11.05a105.28,105.28,0,0,1-.34,16c-.11,1.45-15.9.68-15.8-.77.31-4.51-.93-9.36-.54-15.69-6.07-11.7-1.53-15-2.42-18.41-1.25-3-.74-6.51-1-9.63S1.42,226.7,2,223.38c1.13-6.31,0-13.73.85-18.17-4-6.25,3-6.39.86-8.38-2-3.41.42-7,1-12.21.49-4.57-1.28-8.38,1.14-14.06-1.28-7,1-8,.85-11.79-.29-8.81,1-6.75,1.42-12.21.71-9.52,3.52-19.88,8.66-24,8.55-6.86,21.73-8,32.95-13.78Z"/>
  </g>
  <g class="howieCollar">
    <path d="M87.78,164.64c-.21-.43-.48-4.71,0-4.71,0-.1,27.86-.78,27.86-.68.39,0,.44,4.58.22,4.91-.89,1.38-11.37,6.1-13.42,6.18C99.85,170.44,88.28,165.63,87.78,164.64Z"/>
    <path d="M30.31,164c-.23-.52-.11-4.93.45-4.9,6.63.36,19.9.4,26.54.54.55,0,.16,4.56-.18,5-.94,1.18-12.2,5.67-13.93,5.81C41.21,170.61,30.83,165.15,30.31,164Z"/>
    <path d="M54.19,102.54c-7.89,4.35-8.53,14.71-6,29.91,1-6.94,3.46-16.32,6.49-11.53-1.1-2-2-6.71-1.92-11.34l38.54.17A23.92,23.92,0,0,1,88.75,122c3.18-5.63,7,2.44,7.71,10.89,1.71-7,.33-9.18.49-13.46.24-6.85-4.28-15.49-9.44-17.89C80.63,98.35,62.74,97.82,54.19,102.54Z"/>
  </g>
  <g class="clothesDisplayLine">
    <path d="M70.51,258.35c-1.14,5.84-.17,12.56-.57,18.42-.67,9.66-.19,19,3.35,22.38"/>
    <path d="M81.89,257.43c-.94,5.65-.24,14-.5,21.35-.19,5.41-4.29,8.19-11.63,8.28"/>
    <path d="M26,499.34c6.4,3.75,21.3-1.31,21.66,11.26"/>
    <path d="M63.21,494.24c-5.2,2.22-8.77,8.64-8.27,15.32"/>
    <path d="M118.25,502.32c-2.77-2.37-9.06-3.27-15.47-3-8.84.4-14.57,1.55-17.5,8.71"/>
  </g>
  <g class="clothesOverlapLine">
    <path d="M120.52,153.05c-1,5.95-.64,32.87-3.12,48.73a80.3,80.3,0,0,1-1.49,29.4c1.55,3.64,1.49,10.57,2.46,14.71"/>
    <path d="M26.61,250.06a10.83,10.83,0,0,1,.93-7.65c-.87-6.61-.22-14.67,1.16-23.45a88.11,88.11,0,0,1,.49-25.44c-2.31-5.78-2.93-27.93-1.48-41.13"/>
    <path d="M32.2,500.93c5.63-2.48,7.12-10.6,9.69-12.74,1.7-1.56,4.23-1.66,7.28-.86"/>
    <path d="M36.84,486.28c2.26-.44,5,.56,5,1.91"/>
    <path d="M102.78,499.34a58,58,0,0,1-1.65-10.77"/>
  </g>
  <g class="clothesBorderLine">
    <path d="M90.12,118.7c-7.84,8-28.48,9.09-36.17.46"/>
    <path d="M123.13,260c2.94,1.2,12.41,1.5,15.82-.32"/>
    <path d="M22.92,261.11c-3.55,1.39-14.14.85-16.68-.46"/>
  </g>
  <g class="clothesFoldLine">
    <path d="M115.91,231.18c-1.49,5.55-5.66,9.23-7.6,15.34"/>
    <path d="M111.5,229.44c-4,5.43-8.41,9.31-13.88,9.86"/>
    <path d="M88.59,195.29c3.26,8.1,7.86,13.44,14.58,14.44"/>
    <path d="M104.42,216.81a57.44,57.44,0,0,0,13-15c2.16,1.35,3.81,2.74,1.32,4.48"/>
    <path d="M118.73,189.18c-.74,4.46-3.48,7.22-4.73,11"/>
    <path d="M116.91,136.71c-1.52,5.52-.11,18.38,2.64,9.16"/>
    <path d="M130.24,136.71c-1.43,3.88-3,7.17-5.14,8.47"/>
    <path d="M131.9,140.32c-4.44,6.94-7.91,14.76-11.81,17.9"/>
    <path d="M122.74,141.57a37.69,37.69,0,0,1-2.22,11.48"/>
    <path d="M137,172.25a18.87,18.87,0,0,1-10.13,10.83"/>
    <path d="M139.33,176.3a24.6,24.6,0,0,1-4.23,7.61"/>
    <path d="M135,200.43c4,4.77-1.11,4.83-12.77,1.53"/>
    <path d="M135.79,207c-14-1.11-22.49,3.47-1.39,3.61"/>
    <path d="M119.27,239c2.5,3.75,6.85,4.48,3.47,10"/>
    <path d="M122.33,223.61c5,5.54,10.6,8.86,17.21,8.75"/>
    <path d="M120,214c1.62,1.15,2.26,2.24,1.25,3.2"/>
    <path d="M120.52,235.13c3.58,4.39,7.74,6.9,12.77,6.67"/>
    <path d="M140.37,245.27c-.49,4-2.69,6.74-7.77,7.49"/>
    <path d="M72.21,174.89a90.55,90.55,0,0,0-11.52-2.64"/>
    <path d="M78.32,178.5c-5.93-1.94-10.73-2.79-13.74-1.95"/>
    <path d="M72.35,239.57a34.11,34.11,0,0,1-14.86.84"/>
    <path d="M83.32,238.46c-3.75,5.42-12.11,7.45-24.29,6.67"/>
    <path d="M85.71,249a86.15,86.15,0,0,1-16,.64"/>
    <path d="M29.19,193.52c3.88,7,11.79,12.32,18.73,23.43"/>
    <path d="M55.14,185.85c-3.73,7.73-8.61,13.29-18.18,10"/>
    <path d="M53.06,197.79c-3.16,3.5-5.4,7.33-1.67,13.33"/>
    <path d="M28.7,219A22.79,22.79,0,0,0,32,226.25"/>
    <path d="M27.54,242.41c.65,4,3,8.13,4.28,11.32"/>
    <path d="M29.18,128.38c1.25,3.34,1.16,14.34,2.92,12.78"/>
    <path d="M24.05,127.41c3.62,6.39,4.81,14.74,3.66,25"/>
    <path d="M18.77,138c.82-2.26,5.14,1.53,6.94,7.36"/>
    <path d="M10.58,153.09c2.68,4.55,8.33,6.25,13.74,9.16"/>
    <path d="M8.08,168.64c6.67,9.58,11,7.91,16.8,12.91"/>
    <path d="M5.85,170.56c2.37,6,8.06,8.21,8.76,13.35"/>
    <path d="M23.35,187.94c-10.69,3.88-22.49,7.77-2.22,8.74"/>
    <path d="M26,201.12c-17.11,2.5-26.88,4.65-4.44,5.28"/>
    <path d="M25.85,223.47c-4.33,3.86-8.56,7.14-11.66,3.89"/>
    <path d="M22.38,230.69c-3.3,2.3-4,4.64.56,7.08"/>
    <path d="M10.3,234.16c5.25,2.53,9.82,5.62,13.19,9.72"/>
    <path d="M3.82,242.24c.25,3.19,1.63,5,4.12,5.39"/>
    <path d="M7.11,252.35c4.58,0,10,1,13.88-.84"/>
    <path d="M21.55,255.12a16.91,16.91,0,0,0-10.69,4.17"/>
    <path d="M79.22,299.11c2.81,2.72,5,6.9,6.91,12.09"/>
    <path d="M67.56,298.67a44.32,44.32,0,0,0-5.48,11.23"/>
    <path d="M93,294.07c-4.05-.89-7.71-1.27-10.37-.29"/>
    <path d="M65.4,292.34A23.86,23.86,0,0,0,55,293.2"/>
    <path d="M106.57,355.4c1.28,7.19,3.34,13.58,6.77,18.57"/>
    <path d="M46.25,367.92a19.07,19.07,0,0,1-9.36,11.23"/>
    <path d="M114.06,435.44c-3,8.42-14.4,3.89-21.74-4.32"/>
    <path d="M116.4,445.31c-3.21,8.7-11.56,12.45-9.25,23.25"/>
    <path d="M46.25,455c-9.41,1.15-14.69,6.34-7.15,11.38"/>
    <path d="M47,461.93c11.37,1.59,24.33,10.51,5,11.38"/>
    <path d="M36,470.89c3.39,3.09,3.39,7-1.68,6.16"/>
    <path d="M65,476.1c-5.22,3.4-15.54,1.81-23.5,5.41"/>
    <path d="M62.52,482.52c-5-1.87-10.8,1.44-16.42.86"/>
    <path d="M109.59,482.52c-8.78,5-14.68-3-20.44.29"/>
    <path d="M106.86,479.07c5.9-1.88,7.5-3.5,6.91-4.9-1.25-3-6.84,1.92-14.11.86-5-.72-11.67-8-12.38-5.32s2,8.06,9.5,8.78"/>
    <path d="M54.62,391c3.71,2.91,6.46,6.48,6.34,12.07"/>
  </g>
  <g class="eye">
    <rect class="sclera" x="51.94" y="52.23" width="47.13" height="12.21"/>
    <g class="irisBrown">
      <ellipse cx="61.68" cy="57.73" rx="3.65" ry="3.74"/>
      <ellipse cx="89.56" cy="57.73" rx="3.65" ry="3.74"/>
    </g>
    <g class="pupil">
      <ellipse cx="61.68" cy="57.73" rx="1.42" ry="1.46"/>
      <ellipse cx="89.56" cy="57.73" rx="1.42" ry="1.46"/>
    </g>
  </g>
  <g class="skinFilipino">
    <path d="M89.32,94c-.94,7.12-.94,14.21,2,15.77-3.55,12.17-35,13.69-38.54-.17,2.73-1.39,2.73-10.32,2.31-16.85"/>
    <path d="M137.06,276.44c-2.4,1.4-11.36,1-14.2-.46a27.59,27.59,0,0,1-2.08,6.75c.5,9.47.49,18.73.2,27.52,4.39-.5,2-10.58,3.68-14.29,3.18,6.55,4.44,8.41,4.44,10.89-.52,1.87-.67,7.78-1.6,8.6-4.7,4.49-4.4,9.49-.4,8.59.7-1.2,3.25-1.76,5.85-5.06,4.4-1.6,6.54-6.13,6.74-9.63,1.9-2.2,3.3-10.13,2.7-13.19C141.82,293.26,139.49,287.25,137.06,276.44Z"/>
    <path d="M7.64,276.92c-2.58,10-6.28,15.59-6.83,18.36-.6,3.07-1.57,13.58,2.41,15.14.6,3,1.83,3.13,5.58,5.7,1.82,4.37,3.12,5.13,4.89,7.8,2.43,2.12,6.2-2.58,1.74-8.15-.93-.82-1.22-5.46-1.74-7.33A28.46,28.46,0,0,1,17,295a12.44,12.44,0,0,1,.78,6.75c-.74,4.18.5,7.29,4.44,7.41,2,.06,1-3.36,2.35-10.4.91-10.47-1.28-15.29-2.38-21.24C20,278.25,10.56,277.85,7.64,276.92Z"/>
    <path d="M39.58,78.6c-4.25,2.18-5.13-2.66-7.38-6.16-4.47-7-4.64-15.81-2.15-18.2s5.84-1.47,6.86,2.73c.78.12,1.61.5,1.68,1,1.23,1.35-.07,15,4.18,24.9A167.21,167.21,0,0,1,41,55.29C41,53.05,44.2,45,46.87,40.14c1.53-2.48.7-7.49,1-11.44,8.19-2.76,21.89-2.93,28.53.48,7-3.46,19.07-2.9,25.17-.27-1,9.39,2.9,15.42,1.32,26.23.57,5.34.86,10.53,0,15.38-.9,5-1.21,16.8-6.56,22-5,4.88-8.18,6.44-12.64,9.41-5.83,3.89-14,2.55-16.45,1.45-5.59-2.51-10.73-4.07-15.15-6.65C43.66,91.85,41.65,88.16,39.58,78.6Zm45.1-19.32c3.74,1.51,9.27.75,11.67-2.13a9,9,0,0,0-6.09-2.43c-3.18-.1-5.05,1.2-6.76,3.69C82.89,59.29,84.22,59.09,84.68,59.28Zm-16.2-1.09a7.4,7.4,0,0,0-7.2-3.7C57.94,54.72,56.73,56,55.2,57c3.36,4.31,8.41,2.86,11.93,2C67.61,58.86,69.11,59.2,68.48,58.19Z"/>
  </g>
  <g class="skinOverlapLine">
    <path d="M3.22,310.42c-1.09-3.32,0-8.62-.78-10.28"/>
    <path d="M7.24,300.27c.91,2.37-1.89,8.7,1.56,15.85"/>
    <path d="M139.69,309.35c1.21-4.85.17-8.55,1-10.35"/>
    <path d="M136.45,299.7c-1.16,3.14,2.68,8-3.5,19.28"/>
  </g>
  <g class="skinFoldLine">
    <path d="M125.62,293.34a7.17,7.17,0,0,0-1,2.62"/>
    <path d="M16.12,292.79A10.61,10.61,0,0,0,17,295"/>
    <path d="M36.05,61.62c-2.76-11.07-7.24-2.59-4.88,2.74"/>
    <path d="M36.12,65.12c-.84,1.45,1.68,4.5.38,5.57-1,.83-1.67-2.91-2.82-3.89-1.69-1.44-1.48-6.89,0-6"/>
  </g>
  <path class="lipMaleBrown__noStroke" d="M74.12,85.16a4.14,4.14,0,0,0,4.13,0c1.66,1.09,5,.82,8.39-.09-3.77,3-3.86,7-11.08,6.91-6.4-.08-7.56-4-11.8-6.38C68,86.23,71.4,86.48,74.12,85.16Z"/>
  <path class="lipBorderLine" d="M63,85.16c5.9,3.18,18.9,3.18,24.39-.61"/>
  <g class="lipEdgeLine">
    <path d="M74.12,85.16a4.14,4.14,0,0,0,4.13,0"/>
    <path d="M70,90.16a10.18,10.18,0,0,0,11.84-.25"/>
  </g>
  <g class="smileLine">
    <path d="M88.44,80.63C90,80.84,92,83,90.86,85.21"/>
    <path d="M62.68,80.06c-1.87,1.1-4.28,2.55-2.9,5.84"/>
  </g>
  <g class="noseLine">
    <path d="M69.38,73.54c-1.27.82-1.52,3.84.21,4.88"/>
    <path d="M81.65,77.77c-5.81,3.76-8.65-.9-10.42-.21"/>
    <path d="M82.86,73.71a3.25,3.25,0,0,1-1.16,5.23"/>
  </g>
  <g class="eyeFoldLine">
    <path d="M94.92,61.26c-2,2-6.57,1.86-8.56.61"/>
    <path d="M66.13,61.56c-2.63,2.08-7,1.56-9.76-.17"/>
  </g>
  <g class="eyeCornerLine">
    <path d="M55.2,57a7,7,0,0,1-2,.94"/>
    <path d="M98.23,58.14a3.78,3.78,0,0,1-1.88-1"/>
  </g>
  <g class="eyeCreaseLine">
    <path d="M68.48,58.19C67,50,56.67,52.44,54.2,55.3"/>
    <path d="M97.17,55.3c-4.84-3.07-12.28-3.59-13.67,3.11"/>
  </g>
  <g class="eyebrowBlack">
    <path d="M82,47.18c-.75,4.53,11.86,1,15.48,3,1.29.7,3-.6,2.42-.83C93.62,41.52,91.78,46.49,82,47.18Z"/>
    <path d="M69.56,46.84c.89,4.87-13.51,1.34-17.14,3.31-1.29.7-2.56-.84-2-1.08C57.28,42.31,60,45.85,69.56,46.84Z"/>
  </g>
</svg>
