<svg viewBox="0 0 262.34 378.22">
  <g class="wheel">
    <path class="wheelHandle" d="M166.43,138.48c6.39,4.59,2.4,21.87-8.54,40.82S134,210.71,126.8,207.12c-8.44-4.24-2.4-21.88,8.54-40.83S159.36,133.4,166.43,138.48Zm-32.76,54.85c3.68-3.08,9.24-10.46,14.53-19.62s8.91-17.69,9.73-22.41c-3.69,3.07-9.15,10.51-14.54,19.61S134.47,188.76,133.67,193.33Z"/>
    <g class="wheelOverlapLine">
      <path d="M157.93,151.3c.34-2,.19-3.3-.53-3.71"/>
      <path d="M130.18,194.74c.72.42,1.94-.11,3.49-1.41"/>
    </g>
    <g class="wheelHub">
      <path d="M154.52,161.34l-7.7,1.37c-2.21.3-9.49,13-8.73,15l2.28,8.07A134.81,134.81,0,0,0,154.52,161.34Z"/>
      <path d="M170.23,170.93a17.61,17.61,0,0,0-5.42-5.53h0a121,121,0,0,1-6.92,13.89,116.51,116.51,0,0,1-10.62,15.58c3.21-.95,6.66-1.72,9.8-1.16,2,.27,5.33-3.72,9-10S171.27,172.59,170.23,170.93Z"/>
    </g>
  </g>
  <g class="soleWhite">
    <path d="M162.1,359.31a29.84,29.84,0,0,0,.15,6.47c10.7,6.23,26.18,4.4,43.8,7.37,9.9,1.66,23.76,3,25.21,1.29a13.44,13.44,0,0,0,1-5.53Z"/>
    <path d="M259.53,335.84l-57.83,38a36.13,36.13,0,0,0,3.89,3.94c6.32,1.5,16.32-9,30.34-16.68,11.18-6.12,25-16.75,26.15-20.1C262.22,339.74,261.24,337.63,259.53,335.84Z"/>
  </g>
  <g class="howieShoe">
    <path d="M170.06,338c-4.38,7-7.38,14.09-8,21.28,9.48,4.8,22.33,5.11,36.49,6.93C201.79,353,196.81,342.05,170.06,338Z"/>
    <path d="M223.57,369a50,50,0,0,0,8.71-.06,15.17,15.17,0,0,0-1.07-5C228.49,365.59,226,367.32,223.57,369Z"/>
    <path d="M259.53,335.84c-2.2-2.3-5.61-4.07-9.44-2.91-15.4,4.66-29.33,8.27-42.19,5.17l-14.75,15a37.28,37.28,0,0,0,8.55,20.76c8.33-2.93,19.45-10.95,30.38-17.52C243.23,349.64,252.88,342.77,259.53,335.84Z"/>
  </g>
  <g class="howiePants">
    <path d="M70.38,233.05c29.45,1.53,65.91,5.79,72.26,11.27,14,12.08,16,24.65,27.83,43.27C121,268.24,65.7,243.24,70.38,233.05Z"/>
    <path d="M7.55,223.06l59.69,11.66c10.42,2.19,29.35,8.69,44.18,12.83,16.4,4.57,31.87,7.62,43.49,20.13,18.88,21,30.06,42.71,38.9,51.7,4.15,4.22,9.3,1.6,7.56,8.93,7.93-1.18,3.87,7.09,11.58,9.93-2.15,7.62-11.29,15.4-20.37,22.2a4.85,4.85,0,0,0-4.71-2.68c-4.8,2.67-11-.55-7.75-5.58-4.9,2.33-10.11.14-10.1-4,0-5.35-18.16-20.7-30.51-38.51-3.65-5.25-9.19-4-10.75-14.32-.55-3.66-10.84,5.32-18.51.07-6.12-4.17-68.12-6.78-80-10.79C-2.44,273.65-5.72,252.42,7.55,223.06Z"/>
  </g>
  <g class="hairBlack">
    <path d="M86.37,14.47C65,29.77,64.17,50.69,49.37,47c7.64-4.24,4.2-12.82,3-22.09C48.91-2.38,81.79-8.71,86.37,14.47Z"/>
    <path d="M38.1,103.5C48.74,96.8,43.79,81.76,46,73.66c3.5-12.89,10.47-14.72,15.69-23.3-.36-11.33,6-30.54,24.69-35.89,25.51-7.3,68.48,15.76,54,32.09-66.16,109.52-38.55,19.76-61.92,27C74,77,79.36,90.29,73.21,98.72,64.24,111,45.82,108,38.1,103.5Z"/>
  </g>
  <path class="hairOverlapLine" d="M61.68,50.36c.1,7.5,4.89,15.64,9.46,20.48"/>
  <g class="eye">
    <circle class="sclera" cx="129" cy="77.22" r="6.26"/>
    <path class="irisBrown" d="M128.18,80.68c.44.2,2.19-.85,3-2.73s.47-3.89,0-4.09A18.15,18.15,0,0,0,128.18,80.68Z"/>
    <path class="pupil" d="M130.09,79c.35.16.8-.36,1.13-1.09s.42-1.41.06-1.57A9.64,9.64,0,0,0,130.09,79Z"/>
  </g>
  <g class="skinFilipino">
    <path d="M134.63,142c3.63-2.71,11.26-12.36,23.48-17-5.81-4.11-15.33,4.7-26,13.87A9.84,9.84,0,0,0,134.63,142Z"/>
    <path d="M177.09,140.34c1.22-3.9.48-6.46-1.23-8.36-.33-5.47-8.92-6.25-15.34-7.77-6.24-.89-17.77,8.43-25.21,16A92.2,92.2,0,0,0,145.54,151c9.7,2,13.92-2.91,19.19-4.77a13.48,13.48,0,0,0,4.67,2.47,38.3,38.3,0,0,1-1,5.91c4.3-.93,6.05-3.24,6.56-6.23A6.43,6.43,0,0,0,177.09,140.34Z"/>
    <path d="M82.88,73.44a7.06,7.06,0,0,0-4.41.13C74,77,79.36,90.29,73.21,98.72c-.17.24-.34.46-.52.68a2.6,2.6,0,0,1-.82,1l-.26.28,23.9,15.8c.24-3,2.24-8.15,5.35-10.43Z"/>
    <path d="M87.69,83C81.79,85,81,78.73,79,74.8c-4-8-.33-14.74,4.13-16.48,3-1.18,9.11.66,8.92,5.61,1.19.28,2.28,1.45,2.16,2.15C89.92,77.53,90,87.19,94,93c-.3-8.53,4.84-19.64,6.73-25,1.31-3.73,10.93-7.67,16.92-11.19,2.82-1.66,4.42-12.8,5.79-13.53,4.66-.6,13.07.9,16.91,3.3,2.49,9.72-1.19,15.18-.65,19.48.9,7.15-5.72,9-3.37,16,.92,2.78.66,7.47,1.81,13.11.8,3.92-1.62,6.18-7.3,4.37-2.55,2.3-.82,4.31-1.7,5a3.55,3.55,0,0,1-4.65.26l-2.5,3c1.91,1.83,2.32,3.51-.16,4.87-3,1.46.07,3.8-3.15,6.33-4.27,3.35-9.37.21-13.28-3.42-5.62-5.22-11.33-6.91-17.46-17.48m43.67-23.37c-2-.1-4.8,1.28-6.43,1.52,1.07,1.94,2.45,4.37,4.77,3.47A5.79,5.79,0,0,0,131.65,74.75Z"/>
  </g>
  <g class="skinOverlapLine">
    <path d="M166.5,128.54c3.62,1.5,7.14,1.41,9.36,3.44"/>
    <path d="M166.33,133.3c5.16,2.3,7.91,1.59,10.76,7"/>
    <path d="M175,148.36c.52-6.64-2.95-6.5-9.08-9.77"/>
  </g>
  <g class="skinFoldLine">
    <path d="M89.81,67.51c-.1-12.35-15.07-5.43-7.85,7.55"/>
    <path d="M88.35,70.53c-3,1.15,1.1,6.3-1.63,6.13-1.9-.11-.44-3.81-2.29-5.39-2.72-2.33-.48-6.06,2-4.39"/>
  </g>
  <g class="howieLongSleeve">
    <path d="M135,142.25a9.58,9.58,0,0,1-2.84-3.42c-3.86,3.42-6,7-11.72,11.95-4.24,2.57-10.94,5.61-11.5,8.64-6.08,2.88-7.6,6.56-11.4,8.35-.32-3.81-8.42-3.16-4.51,2C101.77,184.34,120.38,162,135,142.25Z"/>
    <path d="M99.49,117c2,6-2,7-1.78,10.61.12,1.88,3.76,4.62-.25,11.66-1.11,1.93.62,9.77-2.39,14-1.27,1.8-.47,4.41-1.62,6.64a7.2,7.2,0,0,1,1.25,5.51c-1.43,6.87,5.26,3.33,6.39,5.64,2.88-4.88,4.54-4.35,6.9-6.14s4.15-3.72,7.27-4.51c-.43-4,5.26-5,8.14-6.39a101.9,101.9,0,0,1,11.91-13.79,103.13,103.13,0,0,0,12,12.41c.89,1-12,12.53-13.91,12.53-.63,5.77-5.77,9-8.65,13.54-2,3.12-5.76,10.65-14.41,15.92-2.26,1.63-6.15,7-13.67,8.15-4.19.63-9.27,3.76-12.4,3-1.77-.42-2.91-2.1-4-3.63-2.88,8.9-2.75,19.18-10,26.2.5,6.89,2.67,16.65-1.63,25.06-20.49,2.91-36.49-8.92-49.39-17.92-5.39-3.76-11-.88-17.42-7a10.31,10.31,0,0,1,2.38-7.27c-2.88-4.89,1.13-11.78,4.26-12.66a193.13,193.13,0,0,0,7.4-21.06c-1.76-3.76,2.25-5.51,5.26-13.16,2.64-6.69,4.64-13.53,7.52-16.79-1.4-2.67,2.2-4.73,3.26-7.65,5.77-15.79,17.52-24.55,20.81-30.83,2.88-5.52,8.52-9.28,11.47-13Z"/>
  </g>
  <path class="howieCollar" d="M70.25,113.41a29,29,0,0,1-6.07-7.33c.8-3,4.95-8.63,7.48-9,6.26,7.36,20,13.44,27.83,19.83-4.95,1-6.87,5.75-9.91,9.1-.8-6.87-4.43-8-8.15-10.07C78.32,114.23,74.88,111.5,70.25,113.41Z"/>
  <g class="clothesDisplayLine">
    <path d="M170.26,349.28a21.2,21.2,0,0,0-4.74-2.76"/>
    <path d="M176.31,363.54a16,16,0,0,0-2.73-10.8"/>
    <path d="M214,367.66c-5.34-6.34-12.49-8.64-18.82-5.24"/>
    <path d="M237.5,336.47c3.05,6-8.6,8.55-5.42,19.89"/>
  </g>
  <g class="clothesOverlapLine">
    <path d="M89.58,126.05a90.41,90.41,0,0,1,1.34,23.32c3.11,3,1.74,7.08,2.53,10.53"/>
    <path d="M80.28,202.14c-4.57-4.73-14.4-27.61-13.37-31.72-5-2-2.22-5.83-2.82-9.6-2.3-4.71-4-11.2-5.46-18.37"/>
  </g>
  <g class="clothesBoldLine">
    <path d="M120.41,150.78a8.81,8.81,0,0,0,3,3.23,53.91,53.91,0,0,0,10,11.15"/>
  </g>
  <g class="clothesFoldLine">
    <path d="M38.4,227.91c6.22.58,9.52,8.7,8.84,17.68"/>
    <path d="M70.26,228.34c-2.22,2.7-6.57,4.19-8.34,7.86"/>
    <path d="M8.46,208.53C2.22,224,24.67,223.42,39.49,221"/>
    <path d="M4.2,221.19c1.44,1.83,2.9,3.26,3.07,4.95"/>
    <path d="M15.86,187.47a35.92,35.92,0,0,0,8.67,7.94"/>
    <path d="M20.86,189.84c3.3,3.52,9.38,5,13.87,7.75"/>
    <path d="M33.37,173.39c7.34,2.85,14.66,4.22,20.4,8.16"/>
    <path d="M28.64,157.52c4.19,8.39,16.23,13.42,10.85,15.46"/>
    <path d="M32,158a61.21,61.21,0,0,0,16.05,14"/>
    <path d="M59.88,157.21A38.3,38.3,0,0,0,46.15,154"/>
    <path d="M55.94,143.34c-1.36-6.29,2.06-6.51,2.69-.89"/>
    <path d="M60.91,152.09c-3.71-1.94-7.68-9.2-9.75-8.49-3,1,1.53,8.58,7.47,9.6"/>
    <path d="M80.12,121.41c-4.88-1.75-13-1.89-13.17.36-.18,1.84,9.82-.72,18.62,6.91"/>
    <path d="M78.08,140.83c5.2,2.69,10,5.44,12.84,8.54"/>
    <path d="M93.45,159.9c-1.77,7.85-23.16,13.38-25.92,6"/>
    <path d="M66.91,170.42c5.52,2.28,14,1.42,8.32,9.15"/>
    <path d="M89.34,169.19c-4.24,1.27-7.56,5.46-10,12.26"/>
    <path d="M101.09,171.05c-.58,3.22,2.44,5.38,2.59,8.82"/>
    <path d="M115.26,160.4c3.14,1.07,4.61,5,4.83,11.16"/>
    <path d="M91.29,179.23c-3.05,10,1.18,19.33-4.22,16.23-8.54-4.89,10-21.37,7.66-27"/>
    <path d="M97,180.3c2.2,5.75.13,9.7-1.09,7.44-4.63-8.51.86-11.68-.49-16.18"/>
    <path d="M132.22,261.5c9.54-1.2-.81,6.16-13.94,10.69"/>
    <path d="M124,275.74c4-3,7.46-5.3,8.42-4.31,2.35,2.4-9.13,16.76-17.06,17.95"/>
    <path d="M125.62,289.24c9.78-15.41,11.25-14,6.57,4.71"/>
    <path d="M139.67,268.68c10.52-11.68,7,4.46,2.7,19.55"/>
    <path d="M156.13,278.51c-5.84.62-9.9,4.9-12.14,12.92"/>
    <path d="M201.37,328.31a19.26,19.26,0,0,1-3.29,7.48"/>
    <path d="M195.65,328.23c-3.81,6.18-10.31,7.34-16.13,17.6"/>
    <path d="M187.87,357.76a12.59,12.59,0,0,0,4-3.05"/>
    <path d="M180.12,352.18c6.39-5.8,15.12-10.91,11.36-12.65C188,337.9,187.19,345.43,180.12,352.18Z"/>
    <path d="M198.29,340.58c-1.82,4.21-5.39,8.4-10.49,12.55"/>
    <path d="M144.22,255.27c-1.5-6.9-4-5.4-5.54-.68"/>
  </g>
  <g class="lipMaleBrown__noStroke">
    <path d="M129.18,104.54c-2.19-.23-9.78-.71-13.94-.75,4.8.49,6.05.44,9.29,1A3.55,3.55,0,0,0,129.18,104.54Z"/>
    <path d="M122,107.82s-3.86-3.51-6.79-4c.56,3.43,4,8.95,6.63,8.9C124.35,111.33,123.94,109.65,122,107.82Z"/>
  </g>
  <path class="teeth" d="M124.53,104.8c-3.1-.59-6.43-.65-9.29-1,1.05,2,5.12,5,5.86,5a5.06,5.06,0,0,0,1.61-1.4C124.21,107.28,124.1,106,124.53,104.8Z"/>
  <path class="teethOverlapLine" d="M122.71,107.37c-1-.05-4.54-2.21-5.83-3.41"/>
  <path class="lipEdgeLine" d="M116.8,108.11c1,1.88,3.72,4.94,5.07,4.58"/>
  <path class="smileLine" d="M116.35,99.67a4.91,4.91,0,0,0-3.5,4.22"/>
  <g class="noseLine">
    <path d="M127.56,92.75c-1.47,1-2.44,3.07-1.2,4.73"/>
    <path d="M132.71,98.93a4.89,4.89,0,0,0-4.39-.91"/>
  </g>
  <g class="eyeLidLine">
    <path d="M131.65,74.75c.58,0,.63.35,1.21.7"/>
    <path d="M130,79.74c1.53.67.82,3.92-3.83,2"/>
  </g>
  <path class="eyeCornerLine" d="M123.66,76.41a8.69,8.69,0,0,0,1.56-.14"/>
  <path class="eyeCreaseLine" d="M127.65,74.86c2.95-.72,5.3-3.22,6-.63"/>
  <path class="eyebrowBlack" d="M138.19,67.44c-3,5.65-9.2,0-13.69,2.33-.8.42-2.17-.41-1.54-1.13C128,62.4,131.9,68.36,138.19,67.44Z"/>
</svg>
