<svg viewBox="0 0 170.44 522.1">
  <g class="soleWhite">
    <path d="M29.77,504.71a6.42,6.42,0,0,0-.08,5.45c4,5.21,17.91,6.69,28.66,3,11.43-3.89,22.35-1.79,31-10.12.56-.48.67-3,.33-6.34Z"/>
    <path d="M88.31,501.69c-.58,3.51-.58,6.95.57,8.17,4.28,4.5,3.8,7.75,8.48,9.84,10.6,4.75,33.6.75,34.62-3.39.71-2.91.37-6-1.12-7.5Z"/>
  </g>
  <g class="howieShoe">
    <path d="M60.69,483.21c-4.91,7.4-10.63,10.06-20.1,13-5.1,1.58-9.26,4.94-10.82,8.49,6,4.24,17.51,5.9,28.53,2.79s23-2.9,31.38-10.77c-.54-5.33-2.25-12.68-5.08-16.71Z"/>
    <path d="M97.89,511.53c6,3.5,30,2.44,33-2.72-5.51-5.44-11.1-12.49-12.77-21l-23.94-2.37c-.57,2.24-2.61,6.12-4.2,10.11a31.92,31.92,0,0,0-1.64,6.15C90.3,506.11,93.81,509.16,97.89,511.53Z"/>
  </g>
  <g class="howiePants">
    <path d="M134.06,256.11c4.36,23.42,1.63,56.26-2.47,87.55-1.44,11,.32,22.81-2.16,34.22-6.62,30.48,1.41,47.2-2.16,57.34-4.28,12.16,2.22,29.49-8,32.06,1.07,4.64,7.18,10.47.31,16.34-.47,1.89-.78,3.72.31,5a6.88,6.88,0,0,1-5,1c-1.91-3-12.49-2.78-14.44.63-16.22-.63-6.21-10.37-9.39-17.73-5.07-6.52.08-13.68.65-35.92.66-25.24,2.07-53.07-.85-63.43-1.83-6.51-.87-18.85-1.21-36.68-.26-13.35-3.28-24.31-3-35.11-3.48,7-1.17,20.85-2.27,32.67-.84,9,2.13,34.87-.71,50.06-1.31,7,1.53,26.32.47,45.07-1.61,28.46,9.25,36.54,1.19,43.42,3.79,2.88,4.4,6.46,2.13,10.68-5.93,1.18-18,5.69-31.55,3.32,1.77-1.86,2.81-3.57,1.42-5.22-8.78-3.56,0-7.35-.71-11.63-11.63-5-3.72-18.75-5.69-29.89-1.6-9,0-18.25-2.14-25.39-2.52-8.43.92-17.63-2.13-26.57-1.86-5.42.52-13.45-1.67-21.59-1.78-6.66-.65-15.7-2.61-28.94-3.6-24.47-2.35-52.49,1.43-81.86Z"/>
  </g>
  <g class="hairBlack">
    <path d="M116.08,88.6c6.44,10.76-3.31,14.47,2.62,20.92C104.79,114.41,92.14,112,80.62,103c-13,5.66-36.18,4.77-45.56-3.84,16.67-11.28-8-21.37,14.16-46.42Z"/>
    <path d="M85.35,3.83c-6.5-7.74-21.32-1.68-21,6.31A37.55,37.55,0,0,1,85.35,3.83Z"/>
    <path d="M51.13,60.2C42.48,32.35,55.62,4.32,85.35,3.83c31.84-.53,52.56,17.35,40.76,32.42C104.91,82.29,81.92,117.81,51.13,60.2Z"/>
  </g>
  <path class="howieShirt" d="M66.93,113.52l35.33,3.27L96.91,259.92c-12.23,1.71-25.48,1.4-39.51-.45C56.71,197.64,55.61,134.44,66.93,113.52Z"/>
  <g class="howieLongSleeve">
    <path d="M97.1,117,112,112.83c14,8.13,31.2,9.4,34.95,16.76,3.57,5.84,5.58,18.57,4.85,26.43-.41,4.41,4.16,5.95,2.21,11.09-1.58,4.17,4,8.81.16,16.66L135,232.52c-3.47,10.22,4.44,16.81.18,22.64,1.41,2.73,2,5.3,1.28,7.66-11.87.74-20.81,14.43-39.62,14.43-4.2-5.3-2.69-14.59-3.65-22.64-.91-7.56-2.82-15.16-2.56-23.92-2.37-24.83-4.32-47.7-1.28-66.28C92.85,143.24,89.38,132.1,97.1,117Z"/>
    <path d="M66.54,131.81c3.45,12.4,2.21,30.87,1.11,49.12-.68,11.42-.2,22.17-1.83,34,.82,15-3,28.48-3.6,36-.7,9.52-.47,17.68-2.3,22.57C53,271.86,48.16,265.15,42,262.91c1.18-8.48.23-16.92,1.83-24-3.37-3.29-.92-8.88-.17-14.52-14.25.67-10.09-2.78-17.54-5-8.24-2.49-18.9-10.15-24.6-16.44-1.9-2.1-1.26-2.45-.82-5.29.53-3.34-2.23-8,4.2-12.65,2.61-8.36,7.82-15.72,10.92-20.65,4.31-6.83,3.09-18.5,9.26-19,4.15-7.38,8.29-23.43,14.21-26.15,6.66-3.06,15.25-5.34,24.67-8.18ZM42,171.61c-.43,5-2.72,5.4-4.26,7.52s-1.7,6.39-5.68,4c-4,6.53,3.41,3.69-2.27,9.1,3.54,1.36,8.8,7.93,13.77,10.91-3.55-17.32.57-17.76-.71-22.71A25.14,25.14,0,0,1,42,171.61Z"/>
  </g>
  <g class="howieCollar">
    <path d="M66.54,131.81c-4-12.7-4.43-26.31-12.56-8.23,2.64-10.69,7.32-17.37,14.09-21.25C68,111,65,120,66.54,131.81Z"/>
    <path d="M103.49,101.53c-.25,4.61-1.36,11.58-6.39,15.49,3.45-.29,6.56,7.12,9.49,10.89,2-5.17,6.28-11.59,5.44-15.08C109.1,107.67,106.28,100.34,103.49,101.53Z"/>
    <path d="M123.15,157.69c-.23-.21-27.15.92-27.36,1.15-.46.47-.38,4.9,0,5.43s12,5.08,13.76,4.92,13.49-4.89,13.93-5.57C124.07,162.7,124,158.42,123.15,157.69Z"/>
    <path d="M64.16,157.72c.47.48.4,5.06,0,5.6s-10.87,3.85-12.31,3.75-9.66-4.09-10-4.59-.18-5.09.16-5.42S63.79,157.33,64.16,157.72Z"/>
  </g>
  <g class="clothesDisplayLine">
    <path d="M74.17,260.93c-3.64,8,2.25,9.65,1.15,15.45-.83,4.43,4.13,10.16,4.34,16.11.17,5.31,3.29,7.8,6.93,8.91"/>
    <path d="M84.48,261c-1.6,5.6.7,7.61.37,12.12s1.63,7,2.6,11.26c.68,3-2,6.41-7.85,6.43"/>
    <path d="M53,270.12c-1.61,1.82-4.2,3-8,3.32"/>
    <path d="M116.64,271.79c2,1.43,5.88,2.26,9.62,2.51"/>
    <path d="M44.83,494.82c6.41,6.87,21.41-2.74,23.52,10.48"/>
    <path d="M87.37,485.86c-5.12,3.74-7.61,8.77-5.72,15.94"/>
    <path d="M91,506c5.11-9.25,16.42,5,32.85-5.3"/>
  </g>
  <g class="clothesOverlapLine">
    <path d="M136.57,137.39c-7.72,4.83-6.51,18.1-6.51,31.13,0,4.94,1.82,10.28-.61,13.63.37,6.27,2.51,13.84.46,20.36"/>
    <path d="M41.75,145.84c.13,4.22-.68,8.47.29,11.22"/>
    <path d="M42,171.61c.09-2.59-.31-5.38.19-8.87"/>
    <path d="M64.42,214.1c-1.46-1.76-11.89-5.83-14.52-5.83-.14-2.58-2.43-4.22-6.32-5.15-2.41,0-3.1,1.39-5.2,2.63"/>
    <path d="M43.68,224.38c6.37,1.77,16.65,6.51,16,3.74"/>
    <path d="M112.94,504.54s-2.58-7.69-3.51-10.23c-1.09-3-4.53-4-9-4"/>
    <path d="M109.43,494.31c-.54-3.17,2-4.11,5.42-4.67"/>
    <path d="M47,496.42c6.29-1.6,10-3.71,14-9.21"/>
  </g>
  <g class="clothesBorderLine">
    <path d="M49.9,208.27c-3.07,2-6.62,10.9-6.22,16.11"/>
    <path d="M66.14,121.53c4.91,7.93,17.93,9.84,26.88,6.75"/>
  </g>
  <g class="clothesFoldLine">
    <path d="M118.93,238.41c-11.63,16.09-1,19.18,12.25,9.9"/>
    <path d="M110.77,240.64c-2.93,5.09-6,9.38-9.9,10.64"/>
    <path d="M43.85,238.9a8.21,8.21,0,0,1,2.82,3.1"/>
    <path d="M58.43,229c-2.73,5-6.5,8.9-9.44,6.15"/>
    <path d="M63.62,241.36a44.75,44.75,0,0,0,15.1,0"/>
    <path d="M91.31,241.68c-7.59,5.08-15.72,6.91-24.59,4.28"/>
    <path d="M92.77,251.28a56,56,0,0,1-21,0"/>
    <path d="M39.87,210.08c-3.28,5.38-7,11-1.37,11.88"/>
    <path d="M32.19,211.31c-3.14,2.6-6.26,5.13-8,4.21"/>
    <path d="M17.1,196.84c4.33-4.18,8.57-5.62,12.71-4.63-7.64-6.76-17.66,4.13-22.86,5"/>
    <path d="M9.55,183.1c-1.24.78-3.09.87-4.63,1.86"/>
    <path d="M19.2,184.71c5.26.29,9.81,1.14,12.48,3.48"/>
    <path d="M22.42,190.16c-4.27-1.38-8.85-.37-13.74,3.13"/>
    <path d="M24.52,161.2c3,4.62,8.12,10.23.25,9.65"/>
    <path d="M32.08,183.11c-4.87-6.16-10.84-8.48-17.7-7.68"/>
    <path d="M25.1,145.27c-3,5.58-1.08,10.1,4.37,13.83"/>
    <path d="M35.29,138.93c1.48,4.7,4.08,5.32,4.82,10.39"/>
    <path d="M37.64,134.23a12.11,12.11,0,0,0,2,8.16"/>
    <path d="M40.61,131.75c-.62,4.95-.19,9,1.36,12.13"/>
    <path d="M44.44,128.41c-.92,2.1-1.52,15.23.87,10.77"/>
    <path d="M42.87,180.41c1.2,3.06,2.79,4.58,2.19,7.77"/>
    <path d="M50.63,183.72c3.14,5.35,6.53,9.06,10.64,8"/>
    <path d="M68.29,170c3.33,3.3,7.84,5.51,13,7.09"/>
    <path d="M87.83,184.58a52.9,52.9,0,0,0-13.57-5"/>
    <path d="M122,183.47c-5.33,7.92-14.1,6.49-21.29-3.34"/>
    <path d="M129.45,182.15c-2.5,5.52-8.41,10.11-11.51,18.77"/>
    <path d="M134.27,161.08c4.34,3.71,13.62,5.81,17.58,3"/>
    <path d="M148.5,170.23c-4.84-1-9.42-1-13.11,2.48"/>
    <path d="M133.66,179.64c2.81,2.69,8.16,3.83,12.63,6.81"/>
    <path d="M133.28,192.69c2.08-1,5-.74,8-1.35"/>
    <path d="M138.37,194.22a6,6,0,0,0-5.36,3.12"/>
    <path d="M130,161.08c2.31,3.52,6.29,4.76,3,8.11"/>
    <path d="M129.89,136.6c0,6.94,5.25-3.41,9.83-5.11"/>
    <path d="M124.52,128.6c2.88,4.85,3.28,17.17,1,18.35-1.51.8-.33-5.22-2-6.16"/>
    <path d="M108.59,292.15c-7.27.6-13.91,1.92-18.19,5.89"/>
    <path d="M71.34,292.84c-2.85-1.59-6.75-2.13-11.26-2.08"/>
    <path d="M75.5,300.11A25.37,25.37,0,0,0,62.33,311.2"/>
    <path d="M91.61,303.93a50.46,50.46,0,0,0,6.58,9.35"/>
    <path d="M103,339.44c-1.85,7.74-3.64,15.59-8.14,18.36"/>
    <path d="M61.29,355.55C60,362,57.7,367.6,50.21,368.54"/>
    <path d="M123.14,427.44c0,8.32-10,4.16-18.71-3.81"/>
    <path d="M71.69,450.83c-2.26,6.75-15.2,6.24-14.9,10.57.36,5.2,18.36,6.58,22.35,4.33"/>
    <path d="M85.27,472.62c-3.55,2.16-8,3.42-12.89,4.37"/>
    <path d="M56.56,469.77c7,1.5,20.17.91,4.21,5.66"/>
    <path d="M57.27,481.4c4.89.78,5.75-2.33,18.75.61"/>
    <path d="M121.23,455c-.39,5.29-4,8.6-10.74,10"/>
    <path d="M119.26,467.28c-4.68,2-14.85.69-15.18,2.26-.44,2.09,12.47,5.71,12.47,5.71"/>
    <path d="M91,472.54c9.42,7.56,16.65,4.8,17,7.22.31,1.91-5.89,2.42-12.13.86"/>
    <path d="M119.57,483.62c-5.09,2.89-13.9,2.66-22.59,1.16"/>
  </g>
  <g class="robitussin">
    <polygon class="labelWhiteMedium" points="132.19 235.12 126.09 229.95 165.47 191.34 170.12 197.94 132.19 235.12"/>
    <polygon class="labelWhiteLight" points="126.09 229.95 114.57 217.55 153.3 179.58 165.47 191.34 126.09 229.95"/>
    <g class="labelText">
      <polygon points="140.12 226.02 135.77 221.88 164.34 193.87 167.89 198.8 140.12 226.02"/>
      <polygon points="138.59 227.52 134.2 223.42 128.55 228.96 133.1 232.91 138.59 227.52"/>
    </g>
    <polygon class="labelLightGreen" points="139.94 192.68 151.88 204.66 126.09 229.95 114.57 217.55 139.94 192.68"/>
    <path class="labelDarkPurple" d="M123.25,211.69c-2.84,2.78-3.16,7.16-.7,9.79s6.83,2.52,9.71-.3,3.16-7.24.65-9.86S126.1,208.9,123.25,211.69Z"/>
    <polygon class="labelDarkGreen" points="131.12 203.97 140.23 213.36 147.43 206.31 138.23 197 131.12 203.97"/>
    <polygon class="labelBlack" points="139.94 192.68 151.88 204.66 163 193.76 150.87 181.96 139.94 192.68"/>
    <polygon class="labelLightPurple" points="142.61 190.06 154.6 202 160.28 196.43 148.2 184.58 142.61 190.06"/>
  </g>
  <g class="eye">
    <circle class="sclera" cx="102.23" cy="62.95" r="19.95"/>
    <g class="irisBrown">
      <ellipse cx="111.85" cy="64.04" rx="3.74" ry="3.23" transform="translate(33.21 166.16) rotate(-82.2)"/>
      <ellipse cx="89.03" cy="60.92" rx="3.74" ry="3.23" transform="translate(16.59 140.86) rotate(-82.2)"/>
    </g>
    <g class="pupil">
      <ellipse cx="111.44" cy="63.99" rx="1.46" ry="1.26" transform="translate(32.91 165.71) rotate(-82.2)"/>
      <ellipse cx="88.62" cy="60.86" rx="1.46" ry="1.26" transform="translate(16.29 140.4) rotate(-82.2)"/>
    </g>
  </g>
  <g class="skinFilipino">
    <path d="M83.31,216.79c3-.74,5.35-2.58,6.83-2.77,7.32-1.17,8.37-6.83,5.36-7.63-5.73.55-7.39,2.71-17,3-6.79-.24-9.84,3.56-14.1,4.76-3,4.11-5,9.14-4.74,14,4-.21,12.29,9.12,17.79,9.23,4.62.67,5.7-.24,11.2-3.12s6-2.09,11.65-4.89c2.88.27,9.39,1.39,14.23-.17,3.75-2.62-.63-7.25-6.83-5.59l-2.52-.31c2.12-.78,3.33-4.4,5-6.32-1.75-4.39-7.78-1.64-9.26,2.9a18.08,18.08,0,0,1-1.26-4.23c-.78-3.11-6.62-1.66-5.28,5.15-.92-2.47-.68-4.17-1.64-4.93-1.79-1.44-4.4-.15-4.38,2.86Z"/>
    <path d="M135.77,235.15c8.5,4.79,20.47,1.49,23-5.86s2.29-12.67,4.29-16.4c1.74-3.24,1.46-6.9,3.52-8.89-1.6-3.68-7.72-2.34-9,5a18.92,18.92,0,0,0-3.52,6.06c-3.71-7.62-7.81-9.57-12.79-14.85-2.05-3-7-.19-5.43,3.57-2.87-4-8.73-.64-5.12,4.44-2.15-1.86-8,.2-2.83,7-2.74,0-5.23,3.05-1,7.86C130.09,226.63,130.76,231.9,135.77,235.15Z"/>
    <path d="M97.1,117c3.61-2.81,5.2-7.2,5.91-11.16L65.5,83.09c3,12.75,3.18,20,1.43,30.43,5,10.3,18.09,12.35,28.12,8.07Q95.92,119.35,97.1,117Z"/>
    <path d="M62.39,78.63c-6,3.11-6.8-3.79-9-7.6-4.13-7.32-2.8-13.66,1.29-16.39A4.8,4.8,0,0,1,62,56.48c1.22.09,2.75.21,2.74.91-1.78,10.7,1,22.58,3.95,25.5-1-9.16.71-22.8,2.38-28.24,1.15-3.78,5.38-7.55,9.46-12.52,1.84-1.83,1.58-6.32,2.28-12,6.77-2.89,23,0,26.64,3.23,3.45-1.87,13.51-.91,16.06,1.29,2.29,4.83-.36,10.55,0,16.33.17,3.27,1.34,7.41-1.22,10.13-3.14,4.33.9,13.49-4.15,21.72-3.68,6-5.17,11.45-9.81,15.76-2.46,2.28-4.35,6.55-7.49,7.68-4.92,1.77-10.76.32-14.73-2.12C81.42,100,73,97.43,67.55,92.08,64.56,89.12,62.93,86.24,62.39,78.63Zm35-16.91c-3.36-2.16-7.88-1.72-10.38-1,3.11,1.14,3.93,1.5,9.11,1.2C96.64,61.84,98.32,62.3,97.42,61.72Zm14.27,2.78c3.45.9,5.77,1.68,7.88-.06-1.39-1.21-4.3-3.39-8.9-.72C109.59,64.21,111.2,64.39,111.69,64.5Z"/>
  </g>
  <g class="skinOverlapLine">
    <path d="M88.37,218.7c6,2.07,11.43,4,16.83,4.57"/>
    <path d="M100.32,229.34a44.9,44.9,0,0,1-11.26-2.67"/>
    <path d="M100.93,219.85a4.5,4.5,0,0,0-3,2"/>
    <path d="M154.13,215a8.06,8.06,0,0,0,2.78,2.63"/>
    <path d="M135.91,203.76c3.17,3.83,5.51,3.27,10.64,13,.67,1.11,1.22,2.06,2.79,2.06"/>
    <path d="M130.79,208.2c3.32,4.46,6.28,5.52,11.74,15.44"/>
    <path d="M128,215.23c3.76,3.68,5.15,6.74,8.33,11.15.61,1,1.42,2.16.83,2.67"/>
  </g>
  <g class="skinFoldLine">
    <path d="M61,60.81c-2.39-9-11.37.24-6,8.5"/>
    <path d="M60.84,65.19c-2.75,1.6,1.44,6-.5,6.55S60,69.67,57.89,68.4c-3-1.87-1.6-6.62,1.14-5.36"/>
  </g>
  <path class="skinEdgeLine" d="M154,221.61c-.78,2.33-2.34,1.47-3.12,4.31-.86,3.14-4.11,1.54-5.25,4.12-1.06,2.37-3.7,1-4.82,2.34"/>
  <path class="lipMaleBrown__noStroke" d="M100.24,88.73a5.12,5.12,0,0,0,4.33.6c1.24,1.19,2.89,1.35,4.66,2.06-3.84,1.74-2.63,4.57-9.14,4.41-6.22-.85-6-5-10.16-7.59C94.08,88.58,97.75,89.25,100.24,88.73Z"/>
  <path class="lipBorderLine" d="M89.71,88.15c4.09.62,7.79,2.54,11.52,3.21,3.27.58,6.08-.45,8.22.07"/>
  <g class="lipEdgeLine">
    <path d="M100.24,88.73a5.12,5.12,0,0,0,4.33.6"/>
    <path d="M93.8,92.21c2.74,3,7.49,5.21,12.1,2.12"/>
  </g>
  <path class="smileLine" d="M91.39,83.05c-2,1-4.4,1.32-5,3.66"/>
  <g class="noseLine">
    <path d="M108.69,66.69c.69,2.53,1.71,5.44,1.5,7.69-.38,4,4,7.24-2,10.53"/>
    <path d="M97.55,78.67c-1,.59-2,3.44-.35,4.71"/>
    <path d="M99.12,82.75c.8-.91,2.63-.73,4.07.43"/>
    <path d="M108.37,83.67a5.4,5.4,0,0,1-6.06.09"/>
  </g>
  <g class="eyeFoldLine">
    <path d="M119.39,67.76c-2.17,1.31-6.28.49-8-.9"/>
    <path d="M96,64.35c-1.63.85-5.7,1.45-8.22-.89"/>
  </g>
  <g class="eyeCornerLine">
    <path d="M119.57,64.44a2.4,2.4,0,0,0,1.23.54"/>
    <path d="M83.6,60.58a7,7,0,0,0,3.44.09"/>
  </g>
  <g class="eyeCreaseLine">
    <path d="M110.31,63.94c5-5.5,10.32-1.78,10.81-.28"/>
    <path d="M86.29,59.12C89,57.61,96,57,98,62.15"/>
  </g>
  <g class="eyebrowBlack">
    <path d="M102.18,53c-1.06,5-11-.81-17.77,2.87-1.29.7-2.47-.9-1.64-1.42C88.94,48.52,92.62,52.06,102.18,53Z"/>
    <path d="M125.86,57.14a19.8,19.8,0,0,0-.16-3.76C120.08,50.7,116,54.45,113,54.49,113.05,58.49,120.05,54.37,125.86,57.14Z"/>
  </g>
</svg>
