<svg viewBox="0 0 362.76 231.86">
  <path class="wall" d="M341.48,159.26c42.49-29.46,14.73-116.71-37.39-114.45-5.67-29.46-51.27-46.18-72.8-24.08-19.26-26.06-71.67-27.2-91.22-1.98-45.61-26.91-99.15-2.55-106.51,43.06-30.31,3.4-43.91,49.57-22.95,69.12-9.61,12.71-9.98,29.22-4.59,44.12H342.81c1.14-5.34,.82-10.71-1.33-15.79Z"/>
  <path class="floor" d="M68.39,209.69c17.56,26.91,71.39,29.18,94.9-.28,18.13,29.18,80.17,29.46,97.73-.28,32.67,19.17,76.01-6.95,81.78-34.07H6.01c9.39,25.97,36.29,47.05,62.38,34.63Z"/>
  <g class="bennettJeans">
    <path d="M48.18,155.52c-4.19,5.8-4.99,11.97-.33,18.74l6.21,16.07c10.35,2.07,19.97,2.07,31.04-.49,3.53-.85,5.84-2.22,8.16-4.87,4.38,1.22,7.43-.37,10.59-3.29,3.04-3.17,2.65-7.43,.85-11.32-3.53-6.09-10.59-13.39-18.26-17.41l-38.26,2.56Z"/>
    <path d="M313.39,181.06c-3.76,5.93-8.72,9.7-15.63,9.99-8.52,.47-17.91-3.62-27.15-10.08l-20.91-2.18c.82-8.61,1.55-16.16,3.7-21.87,2.99-6.38,8.27-7.27,14.43-6.05,4.38,1.06,8.38,3.09,12.1,5.89,23.02-5.01,32.12,5.36,33.47,24.29Z"/>
    <path d="M207.12,154.94c10.26,12.3,6.16,16.76,0,16.84l-42.62-.13c-7.95-1.08-7.46-9.04,.11-16.27"/>
  </g>
  <path class="bennettShoe" d="M57.03,175.2c-2.8-2.56-6.16-3.52-10.03-2.29-5.94,1.6-10.86,4.02-13.31,7.88-3.3,4.52-2.17,10.46,1.7,13.01,6.64,4.19,12.11-1.4,19.37-3.34-3.06-5.19-1.81-10.63,2.27-15.26Z"/>
  <path class="bennettSoleBottom" d="M254.27,175.08c5.09,1.85,8.95,3.13,13.38,3.3,4.33-.01,6.9,2.82,7.3,6.09,.46,4.61-2.33,8.33-6.26,9.23-6.67,1.54-20.15,.41-23.89-1.64-6.97-3.33-7.07-13.61-1.74-16.87,2.97-2.02,6.86-1.53,11.21-.11Z"/>
  <g class="shirtWhite">
    <path d="M311.53,118.18c5.7,10.19,8.88,20.59,8.07,33.95-.44,10.48-2.66,19.48-6.2,28.93-1.48-7.23-6.05-12.84-14.61-15.65-7.16-2.27-15.08-3.74-23.47-4.72,.89-5.17,4.28-8.56,4.13-13.73-1.72-4.13-3.16-8.39-4.15-12.85-4.9-28.3,14.7-23.43,36.23-15.94Z"/>
    <path d="M207.12,154.94c-13.8,7.6-27.96,8.22-42.51,.44l-3.39-38.67c6.2-23.91,43.84-20.96,47.97,1.18l-2.07,37.05Z"/>
    <path d="M61.7,157.96c-4.94,.21-9.55-.37-13.52-2.44,2.12-6.29,2.42-14.9,2.12-24.28,7.17-43.51,44.32-36.5,43.83-5.87l-32.43,32.59Z"/>
  </g>
  <g class="bennettSleeves">
    <path d="M84.15,99.7c4.39,.85,7.69,5.14,10.62,10.54,2.35,4.7,3.42,12.81,4.04,20.36l-7.5-3.97c.56-3.03,.69-6.65,.59-10.59-2.57-4.78-5.37-8.31-8.82-12.28-3.21,1.01-6.28,1.04-9.19-.22-2.7,6.48-7.15,11.09-14.11,13.01-1.54,1.93-3.92,7.52-5.79,12.67,1.03,1.68,2.11,2.91,3.62,3.88,.76,2.44-6.15,10.94-9.52,11.23-2.68-1.4-4.51-3.58-5.91-6.06-1.48-2.56-2.04-4.82-1.37-7.54,2.02-6.85,5.09-15.01,8.97-22.94,3.37-7.04,9.6-9.9,17.38-11.55l16.99,3.44Z"/>
    <path d="M194.74,96.47c3.67,.21,7.28,1.22,10.82,2.85,4.97,2.14,7.4,5.8,8.56,10.22,2.43,8.22,4.17,17.08,5.47,26.39-.82,2.55-10.82,3.57-13.31,1.19-.07-5.99-.71-12.15-1.78-18.42-4.99-4.65-8.8-10.03-11.41-16.16-6.3,1.44-12.42,1.32-18.3,.12-1.99,4.9-4.23,9.42-6.89,13.31-1.96,3.83-3.34,7.84-3.92,10.89l-9.52-1.98c1.59-6.36,3.75-12.38,6.89-17.83,1.75-4.1,5.63-7.58,11.51-10.47"/>
    <path d="M296.69,105.42c7.17,2.36,12.85,6.37,14.84,12.76-.56,5.82-2.33,10.21-6.18,13.36-3.32,7.94-8.02,14.67-15.03,19.87-3.23,1.95-6.41,3.21-9.53,3.72-2.37-1.29-5.03-11.19-3.12-14.06,3.19-.85,6.71-2.87,9.74-5.81,1.88-2.04,3.3-4.38,4.36-6.95-3.57-2.88-4.65-8.13-5.01-14.06l-5.66,.32c-4.08,5.74-5.72,12.36-5.82,19.55-4.5,5.31-10.84,11.76-17.29,4.85l10.99-19.23c4.85-4.27,9.84-7.6,14.98-9.96l12.72-4.36Z"/>
  </g>
  <g class="clothesOverlapLine">
    <path d="M204.49,118.69c-.79-2.79-1.19-4.9-1.6-7.46"/>
    <path d="M291.78,128.31c.8-1.48,1.3-2.78,1.48-3.9"/>
    <path d="M275.31,160.7c-5.43-.49-9.21-2.18-12.59-.69-4.28,1.69-6.66,8.95-4.47,13.32,.8,1.78,3.3,3.25,6.36,4.75"/>
    <path d="M269.89,155.93c1.96,1.48,2.92,2.96,2.87,4.44"/>
    <path d="M81.04,161.89c9.52,4.76,17.78,14,12.22,23.09"/>
    <path d="M76.92,178.37c-5.17-3.56-11-5.38-17.67-4.93-.88,.33-1.6,.95-2.22,1.77"/>
    <line x1="59.78" y1="116.57" x2="61.63" y2="113.37"/>
  </g>
  <path class="paperLight" d="M147.51,119.03c10.01,4.44,21.82,6.31,34.81,6.52-2.01,14.19-3.44,28.98-4.41,44.24-12.85-.78-24.58-2.59-33.61-6.92,2.17-13,3.05-27.89,3.21-43.84Z"/>
  <g class="pageDisplayLine">
    <path d="M173.92,131.47c-10.05-.69-14.75-1.48-23.08-4.53"/>
    <path d="M177.35,135.02c-11.72-.38-17.2-1.08-26.65-4.48"/>
    <path d="M169.48,137.96c-8.21-.73-12.06-1.42-18.93-3.85"/>
    <path d="M171.56,144.95c-9.38-.55-13.76-1.19-21.39-3.84"/>
    <path d="M175.88,148.54c-11.51-.27-16.9-.85-25.94-3.98"/>
    <path d="M171.82,151.81c-9.76-.51-14.33-1.13-22.13-3.85"/>
    <path d="M174.92,158.8c-11.52-.42-16.94-1.01-25.85-4.18"/>
  </g>
  <g class="guitar">
    <path class="guitarDark" d="M95.85,124.53c-2.97-1.06-5.76-1.78-8.21-1.9-4.09-.33-8.23,1.58-10.85,3.13-3.52,1.61-7.61,.19-11.57,1.65-5.01,1.72-10.5,3.98-11.7,10.47-.88,4.52-.71,8.48-.2,12.04,.33,2.3,.9,4.44,1.65,6.46,1.49,3,2.26,4.81,4.83,6.5,3.71,1.23,7.55,2.54,10.99,2.83l25.07-41.18Z"/>
    <path class="guitarNeck" d="M134.86,116.86l-3.16-.74c-1.58,2.52-5.1,5-9.1,7.47l-21.94,7.41,.57,2.26c16.84-2.18,29.75-6.66,33.63-16.4Z"/>
    <path class="guitarLight" d="M99.86,128.92c-2.84-5.9-7.7-6.27-12.77-2.29-2.57,2.22-5.61,2.15-9.49,2.14-6.97,.08-12.91,2.08-14.78,7.4-1.89,4.1-1.67,9.5-.82,14.62,.7,4.21,1.83,8.39,4.39,11.94,3.69,5.47,11.11,3.27,16.98-3.04,3.4-3.55,5.39-4.97,8.95-5.88,5.82-1.22,7.35-3.14,9.03-7.5,1.07-4.16,.33-13.47-1.48-17.38Z"/>
    <path class="guitarHeadstock" d="M134.86,116.86c2.03,3.41,2.51,6.17,1.34,10.78-2.79,0-6.76,1.45-10.33,3.03l-.76-6.51c3.8-1.54,7.02-3.87,9.75-7.31Z"/>
    <polygon class="guitarFretboard" points="125.17 124.68 91.44 136.77 92.12 143.59 125.8 130.05 125.17 124.68"/>
    <ellipse class="soundHole" cx="87.31" cy="141.38" rx="7.39" ry="5.11" transform="translate(-58.79 220.54) rotate(-86.75)"/>
  </g>
  <g class="melodica">
    <path class="flatOrangeMedium" d="M271.85,109.06c-.5,1.45,.21,2.67,.59,4.42,.25,1.19-.06,3.72-1.07,5.75l-20.07,37.19c-1.04,1.78-2.2,2.28-3.57,2.14-2.51,0-4.99-1.07-7.16-1.87-2.89-1.16-3.34-3.76-2.48-5.13l22.07-37.94c.91-1.3,2.17-2.41,3.67-3.15,1.71-.72,2.7-1.65,3.69-2.93,1.22-.95,3.76-.07,4.34,1.52Z"/>
    <path class="whiteLight" d="M260.16,113.62c2.81-.4,5.6,.21,8.35,2.39l-21.11,38.37c-3.11-1.64-6.21-2.64-9.32-2.82l22.07-37.94Z"/>
    <g class="blackDark">
      <path d="M265.03,122.33s-3.55-1.12-2.79-2.62,4.04,.34,4.04,.34l-1.25,2.28Z"/>
      <path d="M262.93,126.15s-3.55-1.12-2.79-2.62,4.04,.34,4.04,.34l-1.25,2.28Z"/>
      <path d="M259.47,132.44s-3.55-1.12-2.79-2.62,4.04,.34,4.04,.34l-1.25,2.28Z"/>
      <path d="M257.37,136.26s-3.55-1.12-2.79-2.62,4.04,.34,4.04,.34l-1.25,2.28Z"/>
      <path d="M249.7,150.19s-3.55-1.12-2.79-2.62,4.04,.34,4.04,.34l-1.25,2.28Z"/>
    </g>
  </g>
  <g class="skinEastAsian">
    <path d="M203,79.89c-1.02,6.64-3.44,11.95-8.72,14.55,.1,.63,.25,1.31,.46,2.03-2.64,3.61-17.74,4.24-21.88,.11,.17-.72,.25-1.5,.28-2.31-4.73-2.69-7.05-8.19-7.32-14.28-16.02-29.66,53.47-32.57,37.18-.09Z"/>
    <path d="M108.5,73.27c-1.76,2.77-3.11,5.44-3.51,7.89-2.3,12.43-9.64,19.15-20.84,17.13-.08,.4-.1,.87,0,1.42-4.08,3.86-14.76,1.32-16.99-3.44,2.02-3.76,2.08-7.99,.4-12.63-7.28-32.82,39.04-41.32,40.93-10.36Z"/>
    <path d="M54.36,133.4c2.63,2.44,5.22,4.47,7.66,5.28,1.95,.71,4.45,.89,5.48-.19,1.38-1.63,4.31-2.12,7.84-2.27,2.44-.04,4.45,.37,4.96,1.69,2.31,.73,3.63,2.28,3.16,5.53-.94,5.41-5.33,8.15-9.14,8.24-3.9,.21-8.32-.14-10.51-2.23-1.49-1.65-2.44-2.55-4.15-3.07-3.66-1.13-7.71-2.63-11.73-4.63-.65-2.77,4.19-8.28,6.43-8.35Z"/>
    <path d="M218.26,136.11c-.53,3.52-1.02,7.57-1.42,10.55-.19,1.38,.22,2.27,1.01,3.04,1.29,1.26,1.64,2.91,1.42,4.8-.12,1.82,1.05,2.68,2.23,3.52,2.31,1.67,1.25,5.83-1.96,5.35-1.97-.25-3.62-.85-4.62-2.57-.56,1.65-1.38,2.69-3.84,2.64-2.6-.03-3.49-1.41-3.71-2.77-.83,1.3-1.93,2.62-4.28,2.79-4.73-.03-4.96-3.9-3.11-4.69,1.48-.83,2.12-1.73,2.3-2.91-2.99,.7-4.96,.41-7.28-1.53-1.34-1.27-.99-3.11,.89-4.22,1.56-.91,3.26,1.63,7.53-1.29,1.69-1.15,3.04-1.77,5.14-1.83,.32-3.42,.16-7.38-.41-10.41,1.22-2.64,8.46-2.84,10.08-.47Z"/>
    <path d="M147.22,131.79l-.19,4.59c3.12-.19,6.69,.41,8.3,3.82,.8,2.71-1.61,9.23-4.61,10.23-3.21,1.2-7.32,.8-9.63-2.11-3.21-4.21-1.89-9.65,1.74-14.31,1.17-1.34,2.71-1.86,4.4-2.22Z"/>
    <path d="M124.78,130.46c-3.2-2.86-12.41-1.45-11.98,4.81l-10.99,4.42c.07,2,0,3.91-.23,5.43,3.11-.17,6.75-.69,9.7-1.23,2.07,.15,3.98,1.03,6.83-.1,2.81-1.03,5.86-4.45,7.19-7.4,1.07-2.37,.63-4.46-.52-5.92Z"/>
    <path d="M279.19,142.25c2.36,2.18,3.75,8.11,2.4,10.45-6.07,.1-13.41-2.3-15.91-3-3.79,1.13-8.92,.92-10.72-.58-1.54-1.2-3.68-2.91-5.87-3.68-4.7-.73-.1-10.77,6.2-10.83,4.07-.04,7.38,2.75,10.48,5.91,1.31,1.46,2.48,1.65,3.87,1.72,1.69,.09,5.48,.46,9.55,0Z"/>
    <path d="M261.17,121.04c-.32,3.55-2.16,6.6-5.46,9.33-1.71,1.33-4,1.52-5.87,.97-1.19-1.48-1.75-3.13-1.11-5.29,1.27-3.81,3.24-6.35,6.16-8.12,2.73-1.71,6.66,.38,6.28,3.11Z"/>
    <path d="M294.8,96.17c-6.2-31.65-18.24-40.87-39.4-15.05,.5,2.61,1.48,5.13,2.68,7.77,1.28,2.62,1.89,7.28,2.49,12,.42,3.57,1.88,6.53,4.41,8.71,.07,.06,.13,.11,.2,.17,.94-.6,1.64-1.32,2.33-2.22,1.22-.95,3.76-.07,4.34,1.52-.46,1.31,.08,2.43,.47,3.92,3.74,.43,7.65-.84,11.65-3.19,4.19,1.08,10.54-.37,12.72-4.36-1.27-2.36-1.59-5.42-1.88-9.25Z"/>
  </g>
  <g class="skinOverlapLine">
    <path d="M283.97,109.79c1.87-1.23,3.24-2.83,3.92-4.92"/>
    <path d="M194.28,94.44c-6.52,3.23-15.22,2.61-21.14-.18"/>
    <path d="M84.15,98.29c-3.18-1.06-5.14-2.21-6.74-4.61"/>
    <path d="M214.92,160.8c.09-1.37-.35-2.41-.9-3.47"/>
    <path d="M207.38,160.67c-.17-1.41,.4-2.71,1.38-3.79"/>
    <path d="M112.8,135.28c0,.94,.08,2.09,.41,3.58"/>
  </g>
  <g class="skinDisplayLine">
    <path d="M95.08,73.35c-2.34-1.36-5-1.24-7.88-.13"/>
    <path d="M104.95,74.95c-1.66-1.08-3.58-.97-5.64-.26"/>
    <path d="M98.83,82.33c2.75,3.17,.37,7.38-3.84,6.28"/>
    <path d="M91.82,92.7c-.73-.16-2.02-.24-2.87-.24"/>
    <path d="M188.7,83.69c-.85,3.3-6.8,3.56-7.6,0"/>
    <path d="M195.14,73.62c-2.18-1.14-4.35-1.34-6.51-.3"/>
    <path d="M181.57,73.2c-1.72-1.02-4.74-.98-6.69,.36"/>
    <path d="M265.69,87.38c-1.76-.88-3.77-.96-5.94-.49"/>
    <path d="M275.43,87.62c-1.94-.87-3.95-1.06-6-.67"/>
    <path d="M264.34,95.71c-3.25,2.7-.86,7.41,3.19,6.43"/>
  </g>
  <path class="mouthBlob" d="M189.27,90.03c.02-1.25-2.43-1.26-4.57-1.36-2.53-.07-4.52,.08-4.62,1.46,.06,1.34,2.24,2.24,4.77,2.31,1.97,.06,4.01-1,4.42-2.41Z"/>
  <g class="eyeBlob">
    <ellipse cx="101.66" cy="78.04" rx="3.19" ry="1.59" transform="translate(-4.58 149.72) rotate(-71.52)"/>
    <ellipse cx="91.7" cy="76.33" rx="3.19" ry="1.59" transform="translate(-9.76 139.1) rotate(-71.52)"/>
    <ellipse cx="272.22" cy="90.75" rx="1.59" ry="3.19" transform="translate(-8.95 33.48) rotate(-6.92)"/>
    <ellipse cx="262.75" cy="90.61" rx="1.59" ry="3.19" transform="translate(-9.01 32.33) rotate(-6.92)"/>
    <ellipse cx="191.64" cy="76.38" rx="1.59" ry="3.19" transform="translate(-2.55 6.73) rotate(-2)"/>
    <ellipse cx="178.27" cy="76.38" rx="1.59" ry="3.19" transform="translate(-2.56 6.27) rotate(-2)"/>
  </g>
  <g class="hairBlack">
    <path d="M279.81,53.81c-1.75,.97-2.93,2.16-3.33,3.66-7.41-.89-14.25,1.17-18.44,7.21-4.73,7-6.13,14.25-2.17,22.3,2.69-2.24,3.97-5.17,5.05-8.98,7.57,8.98,17.5,10.52,28.79,9.78l12.69,5.29c5.18-7.77,5.82-15.99,2.47-24.63-3.23-8.67-8.98-13.77-17.64-14.73,1.04-3.33,3.73-6.02,8.07-8.07-6.12,.53-10.68,2.58-12.04,7.74-1.1-3.98-4.1-5.52-8.5-5.27,2.81,1.46,5.06,3.14,5.05,5.7Z"/>
    <path d="M208.52,59.34c.22-8.39-4.02-14.52-11.34-19.08-7.01-3.67-13.75-4.49-20.45-1.71,.26-3.23,2.97-5.81,6.29-8.61-5.39,1.79-9.59,5.35-9.89,9.95-2.79-3.96-7.53-3.36-11-1.11,4.3-.53,7.3,.36,8.27,2.85-5.16,4.27-7.72,10.1-8.66,16.94l46.77,.78Z"/>
    <path d="M98.79,58.63c1.56,7.14,6.57,13.11,12.27,16.3,3.39-7.04,4.3-15.2,.09-22.16-5.62-8.41-13.35-11.63-22.99-10.17-2.51-2.9-5.39-4.4-8.98-3.11,.4-3.45,2.83-6.66,5.95-9.8-4.99,2.75-9.09,5.73-9.34,9.71-2.79-3.62-6.44-3.78-10.62-1.74,3.28-.18,5.84,.84,7.33,3.66-5.68,2.75-9.21,7.75-11.54,13.19-3.66,7.6-2.92,15.94,.09,22.53l13.01-8.7c9.62,4.23,17.53-.84,24.73-9.71Z"/>
  </g>
  <g class="headphoneBand">
    <path d="M295.58,80.82c-2.66-12.38-10.86-24.28-18.74-24.26l-3.5,.77c7.87,.52,14.43,10.6,18.79,24.56l3.45-1.07Z"/>
    <path d="M91.15,42.29l-4.18-.82c-9.96,3.17-17,13.59-18.33,23.28l4.38,.89c.67-10.46,8.25-20.81,18.12-23.35Z"/>
    <path d="M205.52,59.29c-1.45-12.2-9.42-19.46-20.63-19.46s-19.71,7.68-20.31,18.77c2.48-10.4,37.72-10.73,40.94,.69Z"/>
  </g>
  <g class="headphoneSpeaker">
    <path d="M288.48,90.41c.79,5.62,3.83,9.84,9.1,9.18,4.63-.57,7.22-6,6.45-11.2-.83-5.62-3.74-9.88-9.1-9.18-5.4,.7-7.32,5.04-6.45,11.2Z"/>
    <path d="M61.22,70.94c-1.72,4.83-.2,10.91,4.04,12.28,5.06,1.64,8.92-1.78,10.78-7.14,1.86-5.36,1.07-10.51-4.04-12.28-5.15-1.78-8.87,1.79-10.78,7.14Z"/>
    <path d="M198.06,67.69c.93-6.08,4.95-10.47,9.29-9.81,5.89,.9,6.26,6.72,5.45,12.06-.75,4.93-3.22,10.91-9.8,9.95,.66-4.37,.24-8.53,1.15-11.84l-6.1-.37Z"/>
    <path d="M172.03,68c-.66-6.11-4.5-10.67-8.86-10.2-5.93,.64-6.64,6.96-5.96,11.81,.8,5.73,2.6,10.87,8.62,10.37-.47-5.17,.58-7.7-.12-11.86l6.33-.12Z"/>
  </g>
  <g class="headphoneEdgeLine">
    <path d="M291.39,84.54c-.78,3.66-.52,11.51,4.71,13.6"/>
    <path d="M72.6,66.86c2.16,3.81,0,10.97-4.01,13.59"/>
  </g>
  <path class="hairBlack" d="M165.42,55.07c2.46-8.23,11.02-12.57,19.22-12.6,10.45-.04,15.32,5.47,18.48,10.74,2.68,4.78,3.16,13.14,1.78,16.71-8.92,3.73-19.37-.08-23.02-9.08-3.08,5.75-8.19,9.89-16.14,10.53-2.19-6.08-1.97-11.06-.33-16.29Z"/>
  <g class="mic">
    <circle class="popScreen" cx="176.5" cy="108.05" r="11.07"/>
    <path class="popScreenHolder" d="M176.5,96.98c6.11,0,11.07,4.96,11.07,11.07s-4.96,11.07-11.07,11.07-11.07-4.96-11.07-11.07,4.96-11.07,11.07-11.07Zm-13.91,11.07c0,7.68,6.23,13.91,13.91,13.91s13.91-6.23,13.91-13.91-6.23-13.91-13.91-13.91-13.91,6.23-13.91,13.91Z"/>
    <g class="micStand">
      <polygon points="112.61 161 112.61 185.93 119.43 192.22 103.36 192.22 110.17 185.93 110.17 161 112.61 161"/>
      <rect x="225.74" y="118.07" width="2.44" height="67.85"/>
      <rect x="153.33" y="105.64" width="2.44" height="80.29"/>
    </g>
    <ellipse class="micBack" cx="115.81" cy="163.67" rx="2.84" ry="1.72" transform="translate(-84.65 159.47) rotate(-53.52)"/>
    <g class="micBody">
      <path d="M117.5,161.39c-.76-.56-2.14,0-3.07,1.26s-1.07,2.74-.31,3.3l-16.13-11.82c-1.54-4.08,.27-5.82,4.62-5.76l14.87,13.01Z"/>
      <path d="M223.18,117.26l6.43,11.49c4.15,1.31,6.38,.17,6.08-4.18l-8.16-10c-.69-.92-1.99-1.08-3.28-.27-1.24,.75-1.56,1.96-1.08,2.96Z"/>
      <path d="M170.6,103.17l-.5,6.78-24-2.92c-.92-.89-.77-3.9,.33-4.75l24.17,.89Z"/>
    </g>
    <g class="micHead">
      <path d="M93.5,152.57c1.49,1.08,3.04,1.64,4.5,1.57-.18-1.99,3.15-5.63,4.9-5.52-.1-1.54-.92-3.08-2.27-4.42-2.35-2.33-5.98-2.22-8.13,.3-2.15,2.52-1.68,6.12,1,8.07Z"/>
      <path d="M239.29,126.62c-2.21-2.55-4.69-3.46-7.44-1.8-2.83,1.72-3.12,5-1.56,7.77,1.26,2.22,4.85,3.6,7.63,1.8s3.03-5.85,1.37-7.77Z"/>
      <path d="M169.35,106.61c-.2,3.15,1.27,5.29,5.98,6.1,3.59,.62,6.74-2.15,6.93-5.3s-2.58-6.15-6.22-6.12c-4.84,.05-6.49,2.16-6.69,5.32Z"/>
    </g>
  </g>
  <g class="console">
    <g class="fader">
      <rect x="223.73" y="163.49" width="6.46" height="4.2"/>
      <rect x="214.28" y="163.49" width="6.46" height="4.2"/>
      <rect x="204.84" y="163.49" width="6.46" height="4.2"/>
      <rect x="204.84" y="163.49" width="6.46" height="4.2"/>
      <rect x="195.39" y="163.49" width="6.46" height="4.2"/>
      <rect x="185.95" y="163.49" width="6.46" height="4.2"/>
      <rect x="176.5" y="163.49" width="6.46" height="4.2"/>
    </g>
    <path class="consoleScreen" d="M133.34,157.12h35.7c1.65,0,2.98,1.34,2.98,2.98v7.59h-41.66v-7.59c0-1.65,1.34-2.98,2.98-2.98Z"/>
    <path class="consoleBody" d="M131.07,167.69h99.11c3.81,0,6.9,3.09,6.9,6.9v19.65H124.17v-19.65c0-3.81,3.09-6.9,6.9-6.9Z"/>
    <path class="consolePanel" d="M135.95,175.14h89.36c2.47,0,4.47,2,4.47,4.47v14.63h-98.3v-14.64c0-2.46,2-4.47,4.47-4.47Z"/>
  </g>
</svg>