<svg viewBox="0 0 368.26 319.96">
  <path class="ground" d="m341.76,235.42H22.59c29.38,32.03,80.46,42.39,148.7,44.56,15.7,16.05,56.06,37.48,91.42,39.36-16.54-9.27-34.64-27.6-40.73-41.16,48.62-3.05,102.28-24.84,119.79-42.76Z"/>
  <path class="wall" d="m367.76,147.24C367.76,44.4,288.84.5,184.13.5,84.95.5.5,49.36.5,147.24c0,39.39,8,67.06,22.09,88.18h319.17c16.23-21.26,26-48.99,26-88.18Z"/>
  <path class="fiberDark" d="m360.71,171.63c-4.61-19.89-6.41-43.07-3.4-57.57,2.74.2,5.36,1.15,7.9,2.69-5.31-30.05-18.68-53.8-38.18-71.78-4.43,2.99-8.19,6.49-10.98,10.75,7.74-.31,15.1,1.12,21.13,6.82-9.56,2.5-23.62,13.92-24.74,29.61,7.47-5.37,15.57-6.54,24.25-3.76-12.81,3.86-18.73,15.88-19.32,34.23,6.95-9.44,15.76-14.27,27.36-12.19-.16,19.5-1.58,38.04-4.82,55.17-32.87-10.29-63.69-23.68-92.17-40.78-6.17,4.78-15.46,4.78-21.78-.13-17.43,13.95-34.54,25.35-51.09,32.29-16.94-6.2-32.48-13.01-46.03-20.71-4.65,3.79-12.78,3.5-17.37.27-27.86,12.35-55.88,22.86-84.02,31.52-3.74-19.67-5.29-38.48-3.76-56.08,8.12-1.34,16.58,2.56,25.15,8.17-1.34-14.74-7.42-25.87-19.71-32.29,11.15,1.06,21.23,5.95,30.34,14.26-1-16.56-9.13-29.12-25.15-37.21,6.36-1.61,13.11-.52,20.1,2.2-3.38-7.54-8.32-13.18-15.01-16.67-17.2,16.86-29.57,37.99-35.31,63.39,2.13-.66,4.49-.97,7.14-.82.39,17.28-.03,38.72-3.25,60.74-1.98.55-3.97,1.09-5.95,1.62,2.95,25.48,10.06,44.3,20.56,60.04h319.17c12.44-16.29,21.08-35.88,24.44-62.35-1.84-.47-3.67-.95-5.49-1.44Z"/>
  <g class="fiberDarker">
    <polygon points="318.06 184.46 329.05 240.2 336.32 240.2 324.58 184.46 318.06 184.46"/>
    <polygon points="45.77 184.46 34.78 240.2 27.51 240.2 39.25 184.46 45.77 184.46"/>
  </g>
  <g class="fiberDarkest">
    <polygon points="318.06 184.46 318.06 235.42 329.05 240.2 318.06 184.46"/>
    <polygon points="45.77 184.46 45.77 235.42 34.78 240.2 45.77 184.46"/>
  </g>
  <path class="blackLight" d="m74.14,25.28h225.14c-3.05-1.66-6.17-3.23-9.38-4.71H83.65c-3.24,1.49-6.41,3.06-9.51,4.71Z"/>
  <g class="blackMedium">
    <polygon points="238.37 42.87 243.96 50.29 236.54 47.96 239.72 54.89 222.34 52.38 225.69 46.72 219.09 48.23 211.67 36.83 219.64 36.69 216.89 33.12 226.65 35.46 238.37 42.87"/>
    <polygon points="121.82 34.91 129.79 32.84 127.18 46.17 120.17 45.35 121.68 51.94 103.55 55.24 104.51 48.78 99.15 51.26 103.69 40.13 115.5 32.16 123.88 30.65 121.82 34.91"/>
  </g>
  <g class="steelDarker">
    <path d="m114.34,25.18c2.04,4.51,3.82,7.78,6.4,11.08,1.66,2.87-.53,7.63-5.18,10.32s-9.53,2.54-11.19-.33c-1.8-3.71-4.12-7.35-6.89-11.33l16.87-9.74Z"/>
    <path d="m222.11,33.98c-2.01,2.18-.93,6.66,3.03,10.31,3.96,3.65,8.55,4.6,10.56,2.42,2.82-3.58,6.3-6.78,9.83-10.15l-14.34-13.22c-3.41,4.33-6.42,8.38-9.09,10.64Z"/>
  </g>
  <g class="steelDark">
    <ellipse cx="105.9" cy="30.05" rx="9.74" ry="6.01" transform="translate(-.84 56.98) rotate(-30)"/>
    <ellipse cx="238.37" cy="29.95" rx="5.37" ry="9.75" transform="translate(54.74 184.87) rotate(-47.31)"/>
  </g>
  <path class="skinIndian" d="m214.24,151.59c1.03,1.14,1.97,5.92,2.24,7.4,3.35,3.55,6.7,6.6,9.01,7.72,2.99-1.94,5.45-4.67,8.15-4.72,3.79-.22,5.03,4.19-.87,6.03,2.21,1.23,4.76,1.62,8.07,1.53,3.4-.17,4.24,2.11,2.88,5.64-1.17,3.32-3.1,5.03-6.48,5.63-3.98.43-8.74-1-11.72-3.71-2.16-1.95-1.62-2.07-4.24-3.7-2.69-1.67-5.82-4-8.53-6.54l1.47-15.26Z"/>
  <path class="lizJeans" d="m213.4,173.18c2.05,3.83,2.21,11.23,2.4,19.59.14,16.21-2.4,31.85-5.78,44.81l-26.78,2.25c-1.22-6.52-2.3-17.58-2-24.94.15-3.84-.77-5.68-1.15-9.2-1.84-13.04-2.62-18.42-.17-28.37l33.48-4.15Z"/>
  <path class="lizShoe" d="m210.43,235.89c4.04,1.54,7.28,3.42,9.57,6.27,1.82,2.26.61,5.81-1.98,6.85-2.75,1.05-9.21,1.05-12.07-.22-3.54,3.05-7.62,3.14-12.36,2.92-4.68-.33-9.29-1.52-14.12-2.99l2.38-8.33c5.83-3.83,11.69-4.9,17.68-1.64,3.69-1.95,7.92-3.58,10.89-2.86Z"/>
  <path class="lizShirt" d="m205.11,128.24c5.18,1.59,8.02,5.11,8.57,10.5,5.56,5.58,5.72,10.82,1.87,16.05-1.92,2.55-1.74,4.28-1.3,7.81.66,4.08,1.65,7.56,1.55,10.93-2.36,4.98-22.92,6.96-35.88,3.8l-.93-45.12c3.1-9.24,12.82-8.71,26.13-3.96Z"/>
  <path class="hairBlackDark" d="m213.68,85.47c2.45,2.9,3.17,6.93,2.62,11.71-.49,3.97.3,7.99,2.18,11.58,4.62,8.81-.87,15.44-6.72,17.18-5.59,1.62-6.81,2.84-12.31,1.83-1.76-30.23.73-42.33,14.22-42.31Z"/>
  <g class="skinEastAsian">
    <path d="m182.83,158.76c-.13,2.72-.26,5.24.39,8.25.57,2.46,1.94,4.25,3.75,6.29,2.98,3.37,5.19,6.92,4.32,11.22-.68,2.49-2.11,4.36-4.21,5.44l-11.54-2,.19-29.62c1.87,1.2,4.33,1.16,7.11.42Z"/>
    <path d="m66.4,73.93c-1.8,3.98-2.75,7.58-2.14,10.59.73,2.94.87,5.9.43,8.87-1.32,5.83.38,12.36,3.15,16.31,2.63,4.2,6.89,4.11,12.67,2.5-.11,3.73-2.49,6.79-5.78,9.38-3.69,2.65-5.3,5.02-5.68,8.14-.85,5.3-1.3,13.32-1.5,21.9-1.63,2.73-3.24,5.85-5.29,9.73-1.45,2.38-2.64,2.61-4.15,3.58-5.73,3.06-7.15,7.99-5.07,14.52,1.14,2.18,4.5,4.04,6.91,3.22,2.32-1.07,3.22-3.98,2.68-5.5.96-.83,1.82-1.71,2.54-2.68l42.31,5.36c5.13-.12,7.38-2.67,7.9-6.69.25-3.29-.24-7.17-2.21-9.52-1.33-1.89-3.03-4.64-3.03-7.29.09-5.59-1.8-19.13-4.55-28.6-.95-2.46-1.49-5.03-4.71-6.74-2.64-1.37-4.32-2.93-4.67-5.58-.7-3.88-.05-7.52.69-11.63-2.14-26.04-12.51-34.5-30.52-29.85Z"/>
  </g>
  <g class="skinIndian">
    <path d="m209.34,86.29c2.19,4.07,2.56,8.36,2.45,10.98-.26,5.9,3.94,3.93,4.79,7.76s-3.64,3.13-3.63,6.33c-.15,4.57-1.97,7.58-3.16,8.86-1.74,1.87-3.07,2.47-5.66,2.95-.24,1.66.12,3.95.99,5.07-1.23,2.2-3.3,3.85-5.56,4.74-2.8-.92-5.79-2.75-8.86-4.94-8.02-4.61-20.07-20.36-11.71-24.12,19.88-8.96,6.94-32.85,30.35-17.62Z"/>
    <path d="m174.57,177.9c2.62.43,5.25.12,7.9-.9,4.03-.7,5.57,4.23,1,6.02-3.34,1.13-6.37-.21-9.09-1.85l.18-3.27Z"/>
    <path d="m174.9,184.41c5.43,3.49,9.52,4.88,12.47,1.89,1.7,1.91.65,5.16-1.69,6.22-4.26,1.59-8.01-1.69-11.35-4.83l.56-3.29Z"/>
  </g>
  <g class="stephanieShoe">
    <path d="m111.55,235.61c3.15,3.06,4.93,6.76,5.15,11.21.16,2.45-1.15,4.11-3.64,5-8,2.76-17.26,3.63-21.14,2.6-2.53-.47-4.91-1.19-5.38-3.4-.55-3.4,1.03-4.67,2.93-6.17,2.29-1.87,3.72-3.65,4.65-5.3l17.43-3.94Z"/>
    <path d="m70.18,237.43c2.35,3.1,3.3,6.39,2.27,11.06-.79,2.13-1.74,2.53-3.94,3.03-8.09,1.87-15.89,1.74-23.03-1.36-2.23-1.2-3.06-2.68-3.03-4.09.16-3.2,2.14-5.41,5.07-6.13,3.88-.95,7.52-1.9,10.54-4.33l12.12,1.82Z"/>
  </g>
  <g class="flatMagentaMediumLight">
    <path d="m107.54,135.65c-.58.67-1.67,1.13-3.11,1.46-6.16,1.42-14.08,2.13-22.96,2.46-4.06.47-9.07.76-14.55-.38-1.41,1.87-1.31,3.19-2.23,5.57s-2.05,3.31-2.21,5.01c2.55,3.31,14.93,5.01,21.35.85,9.54.94,21.32.41,23.7-4.05,2.96-.68,4.53-1.88,4.64-3.63-.76-1.78-1.2-1.72-2.26-3.36s-.81-2.21-2.38-3.94Z"/>
    <path d="m102.04,158.51c-10.28,3.33-20.04,3.78-28.38,1.51-1.25,1.95-3.15,4.27-5.37,6.75-1.17,1.11-1.84,2.27-1.81,3.51-.3,1.53-.21,2.76-1.29,4.18-.77,8.4-1.54,20.07-3.62,28.78-3.01,10.79-7.14,19.97-12.32,27.41,2.15,4.19,10.85,8.5,17.34,8.16,5.46-.28,12.25.27,18.13,1.36,9.47,1.44,18.19,1.73,24.08-2.41,4.36-3.18,7.4-6.16,10.94-8.09,2.31-1.16,4.01-2.85,4.65-4.8-1.13-1.79-3.19-4.91-5.73-7.83-4.7-5.55-7.07-10.18-9.48-18.57-1.7-4.93-1.93-14.72-1.54-21.34.23-8.01-1.2-13.63-5.6-18.62Z"/>
  </g>
  <path class="bennettJeans" d="m175.96,173.69c-.17,12.35-.2,20.48-.95,31.83-.58,10.03-.91,19.79-1.33,32.64,0,0-14.75,4.89-15,4.97s-19.65-1.66-19.65-1.66c-1.04-19.57-.9-41.5-1.89-45.07-1.49-4.97-1.99-8.7-1.82-13.42,2.73-17.34,21.67-13.11,40.63-9.3Z"/>
  <path class="bennettShoe" d="m164.49,249.93c5.37,1.94,10.61,2.32,16.32.66,3.81-.99,5.55-3.73,4.81-6.79-.91-3.56-3.4-5.88-6.96-6.63-5.81-1.13-11.16-.33-16.07,2.4-3.12-2.3-6.62-3.43-10.69-3.48-5.72.08-12.35,1.57-14.25,3.31-2.07,2.07-2.52,7.03-1.08,9.45,2.07,2.73,9.18,4.08,14.25,4.14,6.05,0,10.36-1.1,13.67-3.07Z"/>
  <path class="bennettSleeves" d="m168.62,116.91c3.52.53,6.99,2.62,9.87,6.89,2.76,4.01,3.95,10.02,4.34,17.3.25,5.37,1.16,10.37,2.54,16.05-1.03,1.94-7.31,3.03-9.65,1.19l-34.32-1.9c-4.21,3.3-12.07,2.65-14.81-.68,1.26-6.88,4.15-13.27,5.48-19.24.67-2.96,1.45-5.91,3.54-9.2,2.37-4.27,7.5-7.84,15.16-10.71,5.46-1.87,11.39-1.72,17.84.31Z"/>
  <path class="shirtWhite" d="m166.13,123.82c2.66,4.78,5.97,8.48,10.12,10.82.88,8.46,1.02,34.65.14,38.6-6.29,4.1-25.66,4.9-37.02.69-.17-5.46-.49-10.78-1.01-15.91.64-.17.86-.31,1.48-.6.23-7.07,1.39-14.12,3.35-21.17,5.96-1.86,9.87-6.3,12.04-12.26,3.29,1.12,7.55.85,10.91-.17Z"/>
  <path class="skinBlack" d="m255.27,163.37c-4.6,6.54-7.07,12.59-1.54,17.76l1.54-17.76Z"/>
  <path class="flatGreenMediumLight" d="m297.13,184.81c.79,18.79-.76,37.93-4.6,57.39l-34.4-1.66c-3.23-18.56-4.71-29.62-5.52-49.57-.67-11.33,1.48-28.45,4.05-38.9,25.42-13.67,38.22-1.35,40.47,32.74Z"/>
  <path class="khariShoe" d="m290.97,240.06c1.71.57,3.13,1.28,4.06,3.77.5,1.57.5,4.41-1.07,5.48-4.34,3.13-14.34,5.16-22.13,4.41-4.09-.53-5.85-1.36-7-3.13-5.17,1.07-12.31,1.3-17.41-.07-2.35-.78-3.49-1.71-3.27-3.63,1.09-6.16,4.91-8.9,11.39-9.68,7.9-1,10.83,1.04,16.67,3.01,5.41-2.53,14-1.66,18.77-.16Z"/>
  <g class="clothesOverlapLine">
    <path d="m264.83,250.59c-.84-3.75,2.98-8.58,7.37-10.37-4.4-17.59-5.19-45.87-5.76-71.27"/>
    <path d="m203.43,185.87c-.48,16.72-2.25,34.14-5.45,52.32"/>
    <path d="m159.09,192.87c.38,10.88.58,28.59-.19,44.73"/>
    <path d="m81.48,139.58c.82,1.32.93,3.05,1.21,5.17s.98,2.95,1.15,5.88"/>
    <path d="m104.44,137.12c.82,1.31.5,2.21,1.25,4.49.75,2.28,1.3,2.04,1.86,4.97"/>
    <line x1="143.18" y1="136.25" x2="143.96" y2="132.33"/>
    <line x1="176.25" y1="134.65" x2="176.09" y2="131.73"/>
    <path d="m162.58,239.58c2.33,2.57,4.11,8.3,1.91,10.36"/>
    <path d="m199.53,238.76c4.99,2.24,8.83,6.32,6.41,10.04"/>
  </g>
  <path class="skinBlack" d="m295.55,74.58c.27,4.99-.94,8.61-5.04,9.6-1.47,2.05-2.13,5.58-2.62,9.44-.21,3.84.02,7.48.75,10.9,6.7,2.31,11.09,6.54,12.59,13.16,2.05,6.12,3.26,12.38,3.57,18.79.46,4.93.26,9.58-.75,13.91-1.46,5.1-2.7,10.11-3.76,15.03-.46,2.56-.4,4.61.88,6.01,2.54,2.5,2.75,6.6,1.99,10.58-.92,2.07-3.66,3.49-5.14,4.97-1.78,1.98-3.18,1.77-5.82,1.36-1.79-.45-3.18-1.36-3.76-3.01-1.13-4.66-.73-9.5.75-14.47.84-2.21,1.49-4.63,2.07-7.14l-16.91-7.52c-4.07.86-8.44.51-12.97-.56-5.82-18.75-2.45-46.36,6.39-51.1,1.95-1.32,2.46-2.12,2.46-3.66-4.52-.4-7.43-1.78-10.58-4.63-3.32-3.23-5.7-7.95-5.55-12.96.16-3.83.72-6.54-.1-10.1-1.09-5.01-1.34-9.74-.69-14.16,18.56-12.33,32.6-7.03,42.22,15.55Z"/>
  <g class="flatYellowMediumLight">
    <path d="m268.54,102.84c-4.82,2.37-8.45,5.86-10.24,11.07-4.34,14.07-4.79,29.86-3.1,45.72,1.92,1.86,4.4,2.7,7.24,2.9-.8-16.39-.68-31.67,1.34-44.68.66-4.85,2.38-9.87,4.76-15Z"/>
    <path d="m288.71,103.15c-6.09,3.91-10.24,8.48-12.31,16.65-3.72,14.69-3.62,28.44-1.65,44.27,5.61,1.65,11.12,1.5,16.53-.35,1.26-6.06,1.15-11.44,1.77-18.47-2.69-8.17-5.27-15.1-4.24-23.27,1.24-8.27,4.31-13.74,9-12.93-2.17-2.38-5.49-4.21-9.1-5.9Z"/>
  </g>
  <g class="skinEastAsian">
    <path d="m168.62,116.95c.02.33.04.69.07,1.07.7,3.03-16.3,4.75-17.02-1.47.64-1.2,1.16-2.41,1.32-3.87-2.82-1.73-5.17-4.03-6.86-7.61-1.49-3.34-1.65-7.28-1.03-11.04.67-3.53.41-6.56.42-10.29,11.06-38.39,59.47,6.33,36.13,17.88,0,0-8.36,11.8-13.03,15.34Z"/>
    <path d="m137.31,158.29c1.5,4.85,1.63,12.14,2.82,15.31,3.76.66,8.53,3.13,9.81,5.79.66,2.46-.27,3.79-1.91,3.63-1.34-.18-2.52-.87-3.71-1.33-2.79,2.23-5.2,5.34-6.78,8.68-1.92-3.36-2.95-6.94-2.83-10.83-1.9-5.7-5.73-13.16-6.54-16.93-.48-1.94-.25-3.68.4-5.3,2.28,1.23,5.64,1.66,8.74.98Z"/>
  </g>
  <g class="blackDark__noStroke">
    <path d="m210.05,112.75c-2.84.26-4.66-.07-8.86-.63,1.46,1.8,3.5,3.56,4.95,3.68,2.33.19,1.13-2.75,3.91-3.05Z"/>
    <ellipse cx="164.93" cy="90.93" rx="3.19" ry="1.59" transform="translate(52.56 242.07) rotate(-82.24)"/>
    <ellipse cx="152.6" cy="89.54" rx="3.19" ry="1.59" transform="translate(43.28 228.66) rotate(-82.24)"/>
    <path d="m257.52,72.93c0,.3,0,.61.05.94.23,1.75,1.12,3.07,1.99,2.96.87-.11,1.4-1.62,1.17-3.37-.04-.3-.1-.58-.17-.85l-3.04.32Z"/>
    <path d="m268.34,72.65c0,.3.02.61.06.94.25,1.74,1.16,3.06,2.03,2.93.87-.13,1.37-1.64,1.12-3.38-.04-.3-.11-.58-.18-.85l-3.04.37Z"/>
  </g>
  <g class="skinOverlapLine">
    <path d="m290.52,84.18c-1.19.08-1.94-.08-2.35-.58"/>
    <path d="m270.25,100.87c4.75.24,10.92-3.58,13.91-9.03"/>
    <path d="m187.37,186.3c.77-.89,1.35-1.95,1.79-3.14"/>
    <path d="m168.57,113.15c-5.63,2.37-10.52,2.5-15.58-.46"/>
    <path d="m103.51,131.43c.49,1.75.6,3.64.45,5.63"/>
    <path d="m80.16,132.1c0,2.48-.23,5.4-.9,7.58"/>
    <path d="m103.21,149.67c.09,2.93-.23,6.9-1.16,8.85"/>
    <path d="m73.66,160.02c2.19-2.66,3.79-5.14,4.47-7.35"/>
    <path d="m62.64,177.15c-.77.61-1.54,1.04-2.29,1.19"/>
    <path d="m185.87,112.02c.78.22,1.57.18,2.35-.11"/>
    <path d="m81.02,97.64c-1.04.68-2.08,1.07-3.15.92"/>
    <path d="m204.12,123.17c-1.88.2-3.71,0-5.48-.64"/>
    <line x1="80.51" y1="112.19" x2="80.5" y2="108.79"/>
  </g>
  <g class="skinDisplayLine">
    <path d="m209.28,99.13c-2.67-1.12-5.21-.34-6.87,1.22"/>
    <path d="m271.73,91.23c-1.74-.07-3.42-.04-5.03.1"/>
    <line x1="257.36" y1="73" x2="263.77" y2="72.28"/>
    <line x1="268.15" y1="72.51" x2="275.42" y2="71.58"/>
    <path d="m263.13,79.72c-4,1.71-1.26,6.34,2.4,4.74"/>
    <path d="m170.64,89.26c-1.62-1.37-4.34-2.06-6.97-1.83"/>
    <path d="m158.59,87.49c-1.73-1.2-4.22-1.54-6.91-1.43"/>
    <path d="m156.82,94.65c-4.08.11-4.85,5.24-.06,5.57"/>
    <path d="m162.38,106.66c-1.44-.1-2.82-.21-4.13-.33"/>
  </g>
  <g class="hairBlack">
    <path d="m194.86,127.71c2.14-1.66,2.21-4.46-.73-5.38-4.11-1.24-7.1-4.92-8.26-10.31-2.39-1.16-4.32-2.7-4.91-6.09-.33-2.67,1.56-4.43,4.1-3.9,1.7.39,2.33,2.33,4.05,2.4-.69-3.27-.27-4.67.63-8.01,6.19-2.93,11.04-7.02,13.09-12.34,3.1,3.17,5.78,3.88,10.02,3.69,3-.33,4.63-3.13,2.35-4.76-3.72-2.62-3.53-4.14-5.28-6.2-2.83-4.01-11.95-7.9-20.36-6.55-2.23-6.8-7.07-10.55-13.95-12.45.77-4.17,3.13-6.97,6.72-9.57-4.58,1.75-8.83,4.3-11.05,8.28-1.99-3.66-3.93-6.12-7.2-7.12,2.18,1.81,3.37,4.08,3.25,6.97-6.57.47-12.92,1.89-18.01,5.69-8.43,6-10.63,15.42-7.36,23.39,6.99-3.04,10.94-6.23,13.75-13.14,3.51,7.38,11.03,11.35,20.23,13.88,1.16,1.33,1.59,3.22,1.79,5.28.86.27,1.73.53,2.59.8,2.45-3.08,5.94-1.81,5.58,1.92-.42,2.59-1.54,5.42-3.67,7.04-1.26,1.08-2.38,1.53-3.64.83-2.48,5.11-5.72,8.84-10.02,11.09-.13,1.04-.03,2.53.11,3.81,6.34,1.5,10.68,5.7,12.54,13.24,4.89.69,9.42-.23,13.64-2.48Z"/>
    <path d="m276.33,58.13c-8.41,1.86-17.44,2.52-23,.89.18-5.57,2.58-9.22,6.22-11.33,6.54-3.85,15.24-6.33,25.92-2.27,10.94,4.56,15.32,17.56,10.08,29.16-1.13-3.32-4.86-3.49-6.85-.75l-2.49-.58c.7-2.58-.91-5.3-3.78-7.22-2.66-1.92-4.63-4.62-6.11-7.89Z"/>
    <path d="m69.42,74.83c-2.78,1.21-6.69,1.32-8.58-.21-1.79-1.58-1.13-4.78,1.11-5.98,2.28-1.18,3.43-2.39,5.1-4.24,4.25-4.57,8.11-5.98,18.66-7.21,12.52-1.53,24.41,4.9,25.92,18.85.66,5.37,1.79,9.99,4.86,12.15,5.69,3.87,1.36,9.34-2.5,10.16-1.7,6.82-10.56,9.17-19.76,8.63-6.07-.49-9.74-3.51-13.22-9.32,3.2-2.29,4.33-7.1,2.37-9.74-1.97-2.49-5.01-2.44-6.33-.37-.66,1.6-1.31,1.85-2.16,2.46-.46-2.53-1.68-4.39-3.2-5.98-2.53-2.94-2.93-5.75-2.28-9.18Z"/>
  </g>
  <g class="hairOverlapLine">
    <path d="m175.95,86.19c1.55.33,2.81.45,3.73.34"/>
    <path d="m189.75,96.42c-1.72.32-3.24.36-4.41-.07"/>
    <path d="m185.91,94.18c5.18-7.56,6.51-15.53,3.65-23.93"/>
  </g>
</svg>