<svg viewBox="0 0 346.16 312.93">
  <path class="ground" d="M323.58,214.28H20.26c21.55,35.13,74.01,60.43,124.73,63.9-8.06,12.68-22.58,25.74-38.66,34.07,29.29-2.17,61.68-15.64,84.91-35.07,65.09-5.61,108.06-27.73,132.34-62.9Z"/>
  <path class="stripePrimary" d="M177.63,.5C73.72,.5,.5,37.31,.5,139.25c0,30.78,7.16,55.5,19.76,75.03H323.58c14.15-20.49,22.08-45.64,22.08-75.03C345.66,60.17,291.8,.5,177.63,.5Z"/>
  <g class="stripeSecondary">
    <path d="M49.85,31.83V214.28h49.29V9.61c-18.72,5.06-35.31,12.36-49.29,22.22Z"/>
    <path d="M177.63,.5c-10.03,0-19.78,.34-29.2,1.06V214.28h49.29V1.15c-6.48-.43-13.17-.65-20.09-.65Z"/>
    <path d="M247.02,9.51V214.28h49.29V33.53c-13.56-10.21-29.96-18.37-49.29-24.02Z"/>
  </g>
  <g class="guitar">
    <path class="guitarDark" d="M27.62,172.9c-3.82,6.58-4.79,10.5-2.42,16.58,2.13,5.18,2.13,8.85,.71,13.36-2.8,10.78,2.89,17.28,7.84,19.25,5.47,1.95,17.46,2.96,23.13-.42,7.51-4.47,6.31-6.37,9.27-14.71l-38.53-34.05Z"/>
    <path class="guitarNeck" d="M30.32,122.14l-.42,3.13c1.97,3.49,2.85,6.67,3.85,10.52l2.74,33.59,2.03-1.5-3.55-32.96c-.17-5.03-1.61-9.17-4.64-12.78Z"/>
    <path class="guitarLight" d="M51.71,169.05c-7.29-1.99-13.94-1.92-19.97,.67-5.44,2.27-6.7,7.16-4.33,13.24,2.13,5.18,2.1,9.35,.68,13.85-2.65,8.44-.15,17.57,7.54,20.22,6.2,2.21,17.22,2.7,22.9-.68,8.06-4.64,10.42-12.08,4.06-20.69-2.42-3.25-3.2-7.1-2.89-11.34,.56-7.43-.38-13.06-7.99-15.27Z"/>
    <polygon class="guitarFretboard" points="47.68 182.67 40.81 135.24 34.96 134.92 40.14 182.62 47.68 182.67"/>
    <path class="guitarHeadstock" d="M40.98,135.25l-6.23-.35c-.6-3.99-2.34-8.29-4.43-12.77,2.77-.87,6.26-.91,9.67,.54-.09,4.47,0,8.7,.99,12.58Z"/>
    <path class="soundHole" d="M37.49,186.37c-.18,3.31,3.03,6.17,6.85,6.38,3.82,.21,6.8-2.31,6.98-5.61,.18-3.31-3.03-6.17-6.85-6.38-3.82-.21-6.8,2.31-6.98,5.61Z"/>
  </g>
  <g class="monitor">
    <path class="blackDark" d="M317.83,210.62c.79,4.2-4.25,9.51-5.75,10.74-1.7,1.54-17.1,4.5-27.76,4.46-2.9-4.81,11.01-32.64,15.29-31.98,8.38,3.95,16.48,9.37,18.22,16.78Z"/>
    <path class="blackMedium" d="M299.61,193.84c-7.81-1.02-16.08-1.38-23.22-.82-4.09-.63-17.38,24.47-14.61,29.07,6.44,1.75,14.54,2.93,22.54,3.73l15.29-31.98Z"/>
    <path class="whiteLight" d="M272.05,217.16c2.8,.02,7.37-3.02,10.38-8.95,2.64-5.22,2.31-9.93-.68-9.88-3.09,.04-7.39,3.05-10.38,8.95-2.64,5.22-1.6,9.86,.68,9.88Z"/>
    <path class="blackMediumDark" d="M275.96,211.79c1.01,0,2.78-1.36,3.75-3.24,.97-1.88,.84-3.59-.25-3.57s-2.78,1.36-3.75,3.24-.58,3.57,.25,3.57Z"/>
  </g>
  <g class="mic">
    <path class="micBody" d="M298,101.28l13.38-9.64c1.38-4.65,.07-6.79-4.74-5.66l-11.69,11.18c-1.01,.9-.96,2.15-.05,3.37,.86,1.17,2.01,1.44,3.1,.74Z"/>
    <path class="micHead" d="M308.84,81.79c-2.78,2.82-3.74,5.62-1.85,8.22,1.95,2.68,5.58,2.37,8.62,.19,2.44-1.75,3.3-5.32,1.26-7.92-2.04-2.61-5.94-2.61-8.03-.48Z"/>
    <path class="micStand" d="M316.43,223.61c-3-1.02-6.67-1.47-10.53-1.47V95.05c-.79-.47-1.43-.53-2.44,0v127.1c-10.18,.01-17.9,2.45-17.9,10.19,1.71,1.63,11.35,2.25,20.56,2.09,3.66-3.41,7.11-7.01,10.31-10.8Z"/>
  </g>
  <g class="amy">
    <g class="skinGallic">
      <path d="M255.74,101.92l-8.58,8.69c2.67,2.03,5.91,4.47,8.28,7.22-3.13,2.96-7.58,10.16-12.14,15.58l4.49,14.86c3.82,1,8.34-.78,9.31-3.85,2.01-5.9,1.05-9.35-3.39-11.3,3.88-2.43,7.9-7.89,11.56-11.63,1.84-1.97,1.68-3.62,.84-5.86-1.94-5.23-5.59-9.72-10.36-13.71Z"/>
      <path d="M247.81,171.19c-.16,0-2.86,9.34-3.58,11.25-.83,2.62-.95,5.27-.51,7.93,.89,5.23,.41,14.17-.26,23.02l-18.33-.25c-4.38-6.94-8.67-14.03-11.98-21.24-1.09-2.57-1.66-5.44-1.79-8.57,.21-4.62,1.04-8.87,2.56-12.66,0,0,34.27,.51,33.89,.51Z"/>
    </g>
    <path class="amyBoot" d="M219.64,209.81c1.49-2.13,14.43-8.27,16.91-8.04,.96,.67,2.94,5.17,4.02,8.63,2.48-.24,5.78,.04,7.33,.83,.74,1.92,1.28,13.9,1.3,20.57,.04,1.69-.74,3.5-4.49,3.9-7.54,.8-15.03,.78-22.46,0-2.31,1.22-4.66,2.12-5.56,.83-2.8-4.51-4.89-8.36-.96-13.45,2.03-2.5,4.79-4.26,7.94-5.96-1.44-1.62-3.91-6.2-4.02-7.31Z"/>
    <path class="amySkirt" d="M247.02,137.56c3.43,4.23,4.67,13.12,4.54,21.97-.08,5.15,.72,6.13,1.22,11.14-5.56,6.34-39.2,4.86-42.17,.99-.32-8.73,2.59-21.31,5.76-34.98l30.66,.89Z"/>
    <path class="amyShirt" d="M242.22,92.44c6.94,1.23,11.12,5.48,14.54,8.82,.22,1.91-4.98,6.68-8.86,9.35,1.02,8.03,1.95,21.28,1.17,26.08-3.7,3.37-20.73,4.67-27.37,1.19l-5.66-26.98c-1.07-.07-1.64-.53-2.02-1.3-.15-3.7,1.47-10.54,5.55-12.97,2.23-1.26,5.5-2.16,8.23-2.82l14.42-1.38Z"/>
    <g class="skinGallic">
      <path d="M242.22,83.62c-.84,3.68-.83,6.61,0,8.82-4.28,1.37-9.08,1.84-14.42,1.38,.23-1.53,.15-2.91-.23-4.14-2.73,.86-6.28,1.17-7.84,.73-3.41-.87-4.92-7.79-5.18-11.85-.23-1.26-.67-1.7-1.72-2.07-3.94-1.25-3.59-5.25-.14-7.49,3.68-2.12-1.01-9.07,4.54-20.24,21.87,.79,28.98,13.38,24.99,34.85Z"/>
      <path d="M225.06,111.82c-3.38-1.88-6.64-2.08-9.8-1.1-.77,6.76-.46,15.32-.51,20-2.48,4.98-3.91,11.23-7.84,19.21-1.34,3.17-2.9,6.29-2.33,9.36,1.07,4.23,2.73,7.49,5.87,9.62,1.54,.88,6.67-2.37,7.24-4.34,1.21-3.84,.81-6.37-1.32-7.49,.49-2.47-1.55-3.97-2.58-6.09,2.52-4.07,6.21-6.69,7.65-10,1.44-3.07,2.48-6.51,3.08-10.35,.83-5.26,.94-12.89,.55-18.82Z"/>
    </g>
    <g class="hairDyedRed">
      <path d="M253.17,40.87c9.12-5.62,18.1,10.05,7.8,16.01l-7.8-16.01Z"/>
      <path d="M233.96,36.36c-3.87,.66-6.36,1.51-9.51,1.64-5.57,.39-9.64,5.76-8.77,11.27,.77,4.41,3.39,7.56,6.66,8.59,3.88,3.69,5.78,8.67,4.63,15.34,2.62-1.49,4.03-4.57,5.54-7.59,.92-1.97,3.48-3.08,5.65-2.25,5.23,2.19,1.96,11.17-2.77,13.07,1.18,3.48,3.74,5.9,6.82,7.19,7.58-2.63,13.58-7.45,17.25-15.91,3.45-9.92,1.11-20.21-6.3-26.84-4.79-4.39-11.43-5.93-19.21-4.51Z"/>
      <path d="M240.71,42.59c12.98-7.61,21.12,10.43,11.74,16.2-4.66,2.75-9.38,.66-12.33-3.93-2.43-3.93-3.74-9.44,.59-12.26Z"/>
    </g>
  </g>
  <path class="lizShoe" d="M160.37,215.37c4.87,2.07,9.18,4.42,9.63,9.18,.11,2.83-1.13,4.98-3.96,5.55-3,.75-5.82,.86-8.27-.23-3.17,3.74-15.29,4.08-18.8,0-16.13-18.07,.07-17.68,21.41-14.5Z"/>
  <path class="skinIndian" d="M167.62,134.19c.73,3.7,1.29,9.85,1.84,16.35,.19,2.66,1.05,4.29,2.17,5.85,4.01,6.6-1.41,13.43-7.26,15.7-6.69-16.16-6.47-29.19,3.25-37.9Z"/>
  <path class="lizJeans" d="M166.39,156.6c1.1,17.45-1.51,37.46-6.02,58.77-4.31,1.49-8.67,2.45-13.37,0-5.65,3.16-10.89,3.6-15.45-.27l-.77-56.63,35.61-1.88Z"/>
  <path class="bennettShoe" d="M131.55,215.1c7.55,2.05,10.67,6.57,9.79,14.27-.33,1.79-1.41,3.13-3.96,3.62-6.57,.95-12.39,.71-16.54-1.21-4.87,2.83-17.11,3.51-22.33,.33-7.46-25.16,6.91-27.3,33.04-17.03Z"/>
  <path class="bennettSleeves" d="M121.21,99.82c8.87,3.66,17.28,6.9,23.52,8.12,3.23,12.72-37.13,24.04-65.63,35.75-.34-4.4,.03-6.98,1.23-10.87,1.87-6.48,4.3-12.26,7.72-19.47,3.04-5.89,9.8-10.99,16.13-13.54h17.03Z"/>
  <path class="lizShirt" d="M156.79,111.16c3.08-.22,5.74,.85,8.23,2.67l3.38,11.43c2.15,4.95,1.34,9.62-2.01,13.98-1.15,2.01-.79,4.68-.14,6.98,.86,3.19,1.22,5.76,1.47,8.93-2.55,5.38-29.34,7.91-38.04,2.75l1.38-42.59c1.95-3.57,6.04-5.23,11.46-5.29l14.27,1.13Z"/>
  <path class="bennettJeans" d="M96.59,158.24c-.88,18.5,.55,38.92,.85,58.93,4.79,2.29,13.57,1.47,18.42-1.6,3.38,2.47,7.91,2.43,13.19,.79,3.3-.67,3.83-3,3.18-6.04-.68-6.56-1.05-12.88-.72-19.54,.53-9.2,0-21.35-.84-34.3l-36.01,.93"/>
  <path class="shirtWhite" d="M121.65,105.18c2.85,4.05,5.96,7.5,9.41,10.14,.75,.11,2.51,38.37,1.3,39.99-1.39,3.23-30.82,6.25-37.72,2.11l2.43-41.78c3.55-3.14,7.03-5.3,9.49-9.49,5.76,1.52,10.77,1.17,15.09-.97Z"/>
  <g class="clothesOverlapLine">
    <path d="M226.96,106.68c-.25,2.48-.44,5.07-1.9,5.14"/>
    <path d="M240.56,210.41c1.63,4.23,2.52,7.27,3.57,11.16,.26,1.77-.74,3.29-2.3,4.34-6.15,3.57-12.7,6.82-19.6,9.79"/>
    <path d="M117.16,172.51c-.33,15.44-1.2,29.9-1.31,43.07"/>
    <path d="M152.28,168.31c-.59,16.67-2.13,32.53-5.27,47.06"/>
    <path d="M113.05,217.04c6,1.9,9.91,9.91,7.78,14.76"/>
    <path d="M145.04,216.36c7.74,1.51,14.74,5.42,12.73,13.51"/>
    <line x1="247.9" y1="110.61" x2="247.51" y2="107.8"/>
  </g>
  <g class="banjo">
    <path class="banjoSide" d="M86.77,236l7.17,.35c3.31,.28,7.21-7.67,8.09-18.07s-1.58-18.56-4.9-18.84l-7.17-1.09-3.2,37.64Z"/>
    <polygon class="banjoFretboard" points="92.65 200.91 97.14 147.8 94.21 147.8 88.28 199.05 92.65 200.91"/>
    <ellipse class="banjoHead" cx="88.37" cy="217.17" rx="18.89" ry="6.02" transform="translate(-135.5 286.85) rotate(-85.15)"/>
    <polygon class="banjoNeck" points="99.82 138.02 101.51 138.68 98.59 148.72 94.58 201.05 92.65 200.91 97.14 147.8 99.82 138.02"/>
    <polygon class="banjoHeadstock" points="97.14 147.8 93.76 147.8 94.86 138.25 99.82 138.02 97.14 147.8"/>
  </g>
  <path class="hairBlackDark" d="M145.26,105.66c-3.62-.02-6.95,.42-9.65,1.45-3.61-4.91-3.33-11.69-2.05-18.33,5.62,5.06,10,10.92,11.7,16.89Z"/>
  <path class="hairBlack" d="M134.32,90.9c.89,5.52,2.41,10.03,5.14,13.14,2.16,2.41-.38,6.6-4.57,4.32-5.08-2.6-8.44-5.65-11.43-11.36l10.85-6.09Z"/>
  <g class="skinIndian">
    <path d="M160.43,105.11c-1.43,.9-2.52,1.33-3.97,1.64,.42,2.3,.52,3.29,1.08,5.11-.28,.71-3.02,3.56-4.96,4.38-4.17-1.34-9.73-4.04-10.16-5.59,.87-1.14,1.04-4.34,1.39-6.58-3.33-2.83-5.01-4.96-6.02-9.11-2.39-.3-5.05-1.52-6.87-3.23,8.64-63.02,65.18-13.73,29.52,13.38Z"/>
    <path d="M103.54,114.87c.84,3.79-.26,10.33-3.96,12.9l-4.64,.17c-2.35-3.08-2.36-7.5,.34-12.22,2.28-3.62,7.67-3.96,8.26-.84Z"/>
  </g>
  <g class="skinEastAsian">
    <path d="M138.86,76.23c.82,7.58-1.69,13.01-4.92,16.95-2.42,2.51-5.47,5.56-12.73,6.63-2.78,4.12-11.35,3.89-17.03,0,1.61-7.08-1.7-11.3-5.02-15.54-15.43-32.34,57.02-46.23,39.7-8.05Z"/>
    <path d="M87.17,135.76c-5.2,.31-8.19,3.58-8.07,7.94,.22,3.66,3.45,5.42,5.11,5.73,2.98,.55,6.17-.49,7.7-2.69,.87-1.25,1.57-3.83,1.98-5.56,3.35,.7,6.25,.19,8.72-1.5,3.22-2.66,3.36-6.07,1.56-9.95-1.03-2.55-3.01-3.02-5.38-2.95-6.25,.27-11.05,2.27-11.62,8.98Z"/>
    <path d="M172.01,115.09c-2.47-4.01-5.21-5.62-8.31-3.92-2.78,1.65-4.33,4.12-4.15,6.52,.24,2.97,1.74,5.33,3.56,7.48,1.36,1.55,2.65,2.2,4.86,1.91,3.86-.6,6.44-3.83,5.69-7.14-.36-1.89-.72-3.37-1.65-4.86Z"/>
  </g>
  <g class="skinOverlapLine">
    <path d="M216.36,157.1c-.17,1.74-.23,3.78-1.52,5.25"/>
    <path d="M233.21,175c-2.18,4.68-3.31,8.09-3.16,9.9,2.41,5.71,2.41,10.92,4.82,17.14"/>
    <path d="M121.21,99.82c-4.54,.13-8.29-1.26-11.23-4.17"/>
    <path d="M100.47,81.44c.83,1.59,2.44,2.21,4.14,1.94"/>
    <path d="M156.21,106.75c-4.67,1.04-8.79,.1-12.66-2.68"/>
    <path d="M93.89,141.17c-2.45-.38-3.43-1.01-3.97-2.8"/>
    <line x1="227.57" y1="89.68" x2="226.97" y2="87.14"/>
    <line x1="235.4" y1="76.43" x2="233.91" y2="76.87"/>
  </g>
  <g class="skinDisplayLine">
    <path d="M129.68,78.01c3.97,2.17,2.47,7.72-2.14,6.84"/>
    <path d="M126.06,69.99c-3.11-1.54-5.86-1.33-8.17,1.09"/>
    <path d="M136.61,71.73c-2.14-1.2-4.31-1.53-6.58,.89"/>
    <path d="M165.83,83.81c-1.61-3.04-3.91-3.5-6.55-2.64"/>
    <path d="M154.76,81.81c-1.1-2.69-3.48-3.29-6.73-2.47"/>
    <path d="M157.87,88.74c5.24,1.43,3.36,7.03-1.48,6.33"/>
    <path d="M146.67,95.28c2.31,2.69,5.53,4.35,8.8,4.44"/>
    <path d="M221.81,65.76c-2.2-1.31-4.05-.93-5.52,.47"/>
  </g>
  <g class="eyeBlob">
    <ellipse cx="123.95" cy="73.42" rx="3.19" ry="1.59" transform="translate(12.53 164.74) rotate(-69.98)"/>
    <ellipse cx="134.15" cy="74.96" rx="3.19" ry="1.59" transform="translate(17.79 175.34) rotate(-69.98)"/>
    <ellipse cx="149.12" cy="82.37" rx="3.19" ry="1.59" transform="translate(41.42 214.37) rotate(-79.7)"/>
    <ellipse cx="160.94" cy="84.18" rx="3.19" ry="1.59" transform="translate(49.35 227.48) rotate(-79.7)"/>
  </g>
  <g class="mouthBlob">
    <path d="M222.95,78.42c-2.17,.75-3.9,1.53-6.03,2.21,1.2,.15,.99,3.06,2.51,2.29,1.56-.78,2.57-2.11,3.52-4.5Z"/>
    <path d="M119.43,87.53c2.59,1.38,7.12,2.43,10.12,1.96-4.19,.16-3.46,3.68-6.47,3.11-2.1-.39-2.77-2.84-3.66-5.07Z"/>
  </g>
  <path class="hairBlack" d="M144.85,53.78c9-1.27,17.01,.44,23.45,6.41,3.27,3.09,5.3,8.08,5.24,12.92,1.98,1.74,1.46,4.26-.41,4.91,.48,3.3,.87,6.39,1.89,8.44,2.07,4.66,1.28,11.46-1.37,15.6-2.14,3.17-4.59,5.76-7.96,6.41-1.95,.38-6.1-.15-6.97-2.43,7.13-3.33,9.93-11.34,9.41-17.57-.52-3.82,.12-6.42,.93-10.32-6.7-1.14-12.63-4.87-16.35-10.9-2.31,5.64-7.75,8.53-13.84,8.98-.32-2.01,.4-4.39,1.17-6.54-5.24-1.88-11.9-5.9-15.76-13.01-2.73,6.37-6.58,11.45-13.27,12.55-1.19,1.28-2.06,2.61-2.37,4.03l-3.2-.59c-1.56-2.15-3.24-2.65-5.09-.95-2.53,2.37-2.06,5.76,.12,9.71-.39,1.14-.78,2.05-1.3,2.84-4.37-4.04-6.49-10.37-7.34-18-.73-7.65,2.26-13.95,7.46-20.23-.68-2.72-3.8-4.09-7.46-3.91,3.78-1.74,7.26-1.71,10.19,1.54-1.88-5.06-.41-9.96,2.13-14.81-.49,5.03-.59,9.77,.95,13.27,8.47-3.99,17.46-3.77,26.77-.57,6.56,2.38,10.36,6.37,13,12.21Z"/>
  <g class="hairOverlapLine">
    <path d="M144.85,53.78c2.16,5.28,2.46,11.58-1.07,16.37-1.15,.2-2.47,.05-3.75-.46"/>
    <path d="M173.53,73.11c-1.07-1.01-3.44-2.37-4.65-3.07"/>
    <path d="M173.12,78.03c-1.26,.19-3.07,.39-4.07,.13"/>
    <path d="M111.01,69.24c-1.83,.17-3.58,.08-5.22-.39"/>
  </g>
</svg>