<svg viewBox="0 0 415.62 272.57">
  <path class="floor" d="M12.41,207.39c7.9,13.22,20.14,22.51,33.61,19.76,2.58,30.95,76.98,45.64,92.88,19.97,13.27,30.47,112.79,36.03,125.24-.29,15.81,23.51,71.61,11.27,74.29-11.4,23.5,12.97,49.84-5.07,61.75-28.04H12.41Z"/>
  <path class="wall" d="M392.82,97.16c14.39-36.8-55.12-94.56-92.07-68.96-10.67-30-78.73-31.41-87.09-4.62-12.03-32.72-80.38-29.29-88.4,1.78-18.42-21.28-80.58,2.21-77.26,29.14C13.85,51.06-16.99,123.01,12.06,152.25c-13.04,12.18-10.33,37.26,.35,55.15H400.19c7.56-14.59,9.31-31.16,.81-43.05,20.9-10.49,18.94-64.83-8.18-67.19Z"/>
  <g class="table">
    <g class="steelDark">
      <rect x="31.17" y="163.04" width="4.06" height="48.31"/>
      <rect x="83.14" y="163.04" width="4.06" height="48.31"/>
      <rect x="242.02" y="163.04" width="4.06" height="48.31"/>
      <rect x="321.81" y="163.04" width="4.06" height="48.31"/>
    </g>
    <g class="tableTop">
      <rect x="21.82" y="155.87" width="74.74" height="7.18"/>
      <rect x="232.66" y="155.87" width="102.56" height="7.18"/>
    </g>
  </g>
  <g class="chair">
    <g class="oakDark">
      <rect x="149.78" y="192.59" width="7.09" height="19.5"/>
      <rect x="182.98" y="192.59" width="7.09" height="19.5"/>
      <rect x="376.78" y="192.59" width="7.09" height="19.5"/>
    </g>
    <g class="cushion">
      <polygon points="104.76 192.59 159.57 192.59 163.31 122.16 149.98 121.61 147.28 179.46 104.76 179.46 104.76 192.59"/>
      <polygon points="331.76 192.59 386.58 192.59 390.31 122.16 376.99 121.61 374.28 179.46 331.76 179.46 331.76 192.59"/>
      <polygon points="235.09 192.59 180.27 192.59 176.54 122.16 189.86 121.61 192.57 179.46 235.09 179.46 235.09 192.59"/>
    </g>
  </g>
  <g class="glassLight">
    <polygon points="261.76 155.87 270.5 155.87 272.47 133.1 259.79 133.1 261.76 155.87"/>
    <polygon points="294.54 155.87 303.28 155.87 305.25 133.1 292.57 133.1 294.54 155.87"/>
    <polygon points="50.19 155.87 41.46 155.87 39.48 133.1 52.17 133.1 50.19 155.87"/>
  </g>
  <g class="dullPurpleMedium">
    <polygon points="77 155.87 33.63 155.87 31.17 150.18 79.47 150.18 77 155.87"/>
    <polygon points="235.13 155.87 278.49 155.87 280.96 150.18 232.66 150.18 235.13 155.87"/>
    <polygon points="285.44 155.87 328.8 155.87 331.27 150.18 282.97 150.18 285.44 155.87"/>
  </g>
  <g class="alex">
    <path class="andrewShoe" d="M224.46,201.6c-2.37,2.21-2.84,7.86-2.68,12.54,2.58,2.42,32.16,2.49,35.87-.09,1.61-3.55,.32-10.88-8.07-11.37-2.1-.12-4.58,.97-6.89,.65l-18.23-1.74Z"/>
    <path class="andrewPants" d="M192.22,162.86c-.92,6.86,.12,15.69,6.7,18.51,7.32,3.14,17.44,2.19,27.79,1.2-1.8,6.27-2.82,12.22-3.69,17.48,3.29,5.38,18.33,5.23,19.67,3.29,2.54-16.58,4.2-31.63,1.79-33.91-2.99-2.84-10.42-5.29-17.55-5.68l-34.71-.89Z"/>
    <path class="andrewShirt" d="M225.15,117.07c1.7,2.19,2.49,29.95,1.3,29.99,1.72,.17,3.39,.48,4.89,.85-1.54,3.77-2.17,8.49-2.08,13.54l-2.45-.03c.07,.93,.24,2.23-.22,3.1-1.59,3.03-34.23,1.7-34.37-1.66-.52-12.34,8.13-51.21,15.31-51.4,4.69-.12,15.03,2.26,17.62,5.61Z"/>
    <g class="skinLatino">
      <path d="M244.64,84.75c1.43-4.79,1.93-8.56,1.2-12.9,0-16.81-36.66,3.73-36.66,27.31,1.85,3.17,1.27,7.43-.74,12.31,4.1,.14,11.08,1.71,14.8,4,.52-2.5,1.19-4.89,2.07-7.15,2.56,1.65,5.83,3.06,8.31,2.61,3.53-.64,8.25-6.91,8.9-13.22,.99-2.8,5.74,.48,5.84-5.38,.05-3.07-5-4.02-3.71-7.58Z"/>
      <path d="M229.48,155.87h24.72c-2.48-4.37-5.18-7.76-9.19-8.64-5.46-1.19-8.64,1.32-14.44,2.91-.52,1.77-.87,3.7-1.09,5.73Z"/>
    </g>
    <path class="hairDarkBrown" d="M216.73,92.33c-1.78,3.28-4.1,5.83-7.55,6.83-2.16-5.93-11.68-3.23-7.19-16.17-6.47-7.01-1.08-19.41,6.11-19.94,1.08-9.34,15.27-10.78,19.77-5.93,2.34-3.41,10.78-3.05,12.76,1.26,9.52-3.59,17.25,7.19,5.21,13.48,.09-1.12-1.15-2.77-2.34-2.52-2.12,2.55-4.76,3.38-8.09,1.98,.36,3.23-1.48,5.9-4.67,6.29,1.08,6.47-6.47,5.39-6.11,10.24-3.19-1.51-2.18-5.08-4.02-6.18-5.94-3.57-7.42,7.42-3.89,10.67Z"/>
  </g>
  <g class="liz">
    <path class="lizShoe" d="M338.14,200.34c2.68,3.5,3.58,7.74,2.45,12.83-1.24,3.84-29.22,2.59-31.14,0-.72-10.5,8.91-11.62,15.88-13.53l12.81,.7Z"/>
    <path class="lizJeans" d="M343.9,163.04c-9.48,2.26-19.15,5.86-19.85,10.87-1.13,8.1-.56,16.76,1.28,25.73,2.56,2.33,10.24,2.21,12.81,.7,1.74-6.78,2.63-13.3,2.56-19.56,6.17,3.26,22.33,3.93,27.71,.58,7.1-4.42,8.73-13.04,5.76-22.1l-30.27,3.78Z"/>
    <path class="lizShirt" d="M338.38,118.78c-5.08,5.57-11.01,9.68-9.79,12.12-4.3,20.4,12.59,13.59,13.39,29.44,.43,8.58,31.9,3.26,32.18-1.08,.84-13.16-10.83-32.69-25.27-42.42l-10.51,1.94Z"/>
    <g class="skinIndian">
      <path d="M311.93,83.21c-.79,3.27-1.25,8.01-.6,11.52,.81,5.8-3.96,6-3.68,8.99-.03,3.66,3.78,2.42,3.96,4.34,.68,5.21,2.05,9.45,4.78,11.62,2.17,1.73,9.18,1.15,10.73-.94,12.92-19.62,10.86-34.56-15.19-35.54Z"/>
      <path d="M328.6,130.9c-8.77,6.79-21.91,18.64-24.23,17.76-6.67-2.54-19.71,1.3-22.99,7.21h22.92c10.29-4.72,21.28-9.02,30.93-14.36-3.16-2.97-5.43-6.47-6.62-10.6Z"/>
    </g>
  </g>
  <g class="hairBlack">
    <path d="M324.56,91.42c-13.37-.46-20.58-14.46-13.71-15.73,9.58-1.77,13.93-8.26,29.34-4.94,17.81,3.83,15.09,19.07,18.3,23.7,6.16,8.86,1.64,22.39-15.3,27.9-10.38,3.37-26.82,2.97-20.58-3.67,2.61-2.78,4.98-18.21,1.94-27.26Z"/>
    <path d="M117.57,101.31c.67-.45,1.48-1.77,1.85-2.77,3.47-8.35-44.3-28.19-47.76-19.84-4.37,2.77-1.97,15.5,6.1,16.23l39.82,6.38Z"/>
  </g>
  <path class="tear" d="M323.45,99.69c4.31,3.06,5.59,6.09,5.6,8.39,.02,3.36-4.03,4.14-4.81,.6-.43-1.94,1.56-3.89-.79-8.98Z"/>
  <g class="bennett">
    <g class="book">
      <path class="paperStackLight" d="M49.2,113.13l-1.26,5.52c7.26,7.65,14.38,16.05,21.33,25.33,6.35-4.57,12.89-8.59,18.66-8.74,4.89-4,9.86-6.22,14.66-6.37l-1.81-3.39"/>
      <path class="bookPageLight" d="M49.2,113.13l22.04,25.39c4.04-3.92,10.96-6.58,15.93-7.04,3.92-3.92,9.23-5.42,13.62-6l-17.89-22.98c-7.51,.15-10.32,.34-15.8,5.43-5.77-1.27-13.39,1.15-17.89,5.19Z"/>
      <line class="paperCreaseLine" x1="82.13" y1="125.57" x2="67.09" y2="107.93"/>
    </g>
    <path class="cafeteriaHatDark" d="M58.79,76.26c.75-1.19,9.19,.69,12.86,2.43-.43,.27-.79,.64-1.09,1.09-6.35-2.93-12.24-2.75-11.76-3.52Z"/>
    <path class="cafeteriaHatMesh" d="M84,61.94c4.76-4.13,14.87-2.72,22.5,.68,7.63,3.39,16.89,9.06,16.23,16.08-7.79-5.42-29.14-14.9-38.73-16.76Z"/>
    <path class="cafeteriaHat" d="M119.41,98.54c1.04-1.73,6.81-13.73,6.23-16.96-.77-4.32-40.38-22.15-45.8-19.73-1.72,.77-9.89,16.02-8.19,16.84,15.69,5.54,33.23,12.11,47.76,19.84Z"/>
    <g class="skinEastAsian">
      <path d="M76.38,88.62c5.71,1.81,11.62,2.56,17.77,2.08,.91,2.26,3.49,3.58,4.39,5.51l2.96-1.35c-.38-6.04,8.46-6.79,8.23,2.65,2.74,1.78,5.72,3.23,7.84,3.8-2.74,2.58-2.66,6.73-.03,11.91-2.85,.29-9.37,3.73-11,5.35-.45-1-1.24-2.07-2.24-3.18-6.42,8.06-16.64,4.04-20.24-3.91-1.3-2.88-4.26,.37-5.62-2.4-1.74-2.28,.99-5.2,1.26-8.25,.29-3.3-3.2-5.73-3.32-12.21Z"/>
      <path d="M95.4,134.71c-3.16-7.63-6.79-5.25-9.16-8.13-3.13-3.25-7.8-.21-3.19,4.57,1.19,1.68,5.05,.95,4.88,4.07-2.26,.08-4.38,.66-6.42,1.48,1.3,2.49,3.49,4.55,7.05,5.91,6.92-.17,16.05,12.27,23.1,13.24,7.61-5.85-8.64-27-16.26-21.15Z"/>
      <path d="M72.46,122.4c4.1-1.39,7.2,5.78,5.97,11.23-.47,2.06,2.46,4.66,10.13,8.99-1.48,1.31,3.98,8,6.99,8.93-2.07,1.54-6.15,4.31-8.38,4.31-4.55,.12-9.4-8.63-14.47-16.29-1.46-1.92-5.38,2.44-9.09-6.01-1.92-4.06,2.39-8.96,8.86-11.16Z"/>
    </g>
    <g class="steelMediumLight">
      <path d="M75.85,125.88l3.3-2.85c1.23,1.43,3.28,0,4.74-1.21-.32-.1-.64-.25-.97-.45-1.07,.9-2.38,1.73-3.45,.49-1.05-1.21-.06-2.39,1.02-3.36-.17-.34-.29-.67-.37-.98-1.43,1.24-3.18,2.96-1.82,4.53l-3.21,2.77c-.52,.37,.03,1.67,.76,1.05Z"/>
      <path d="M63.99,134.4c.21,.41,.41,.81,.63,1.17l-3.44,2.98-.85-.98,3.66-3.16Z"/>
    </g>
    <path class="nuggetDark" d="M83.14,114.39c2.14,.4,1.51,2.2,4.01,4.01s-2.04,5.91-5.48,1.87c-3.08-3.61-1.49-6.44,1.47-5.88Z"/>
    <path class="bennettShoe" d="M96.26,200.33c-8.59,.51-12.42,4.75-11.95,12.16,.2,3.05,33.93,3.37,34,0,.12-5.65-1.05-10.26-2.87-14.12l-19.18,1.95Z"/>
    <path class="bennettJeans" d="M142.3,163.33c3.55,15.61-6.47,20.91-31.34,18.82,2.56,6.28,4.62,12.56,4.81,15.37,.23,3.47-18.56,5.76-19.51,2.81-3.07-9.49-5.74-24.98-2.67-30.47,3.92-2.99,9.6-4.89,16.78-5.86l31.93-.66Z"/>
    <path class="bennettSleeves" d="M94.74,136.92c1.16,3.1,5.75,7.65,9.08,8.72-2.49,2.38-4.99,4.45-6.96,5.81-2.15,1.74-10.05-7.28-8.31-8.82,1.19-1.13,3.88-3.62,6.18-5.71Z"/>
    <path class="dishroomShirt" d="M94.47,135.77c.21,3.28,6.72,9.83,10.45,10.09,.72,.05,1.14-.54,2.16-1.71,.52,7.52,1.34,13.52,3.51,20.54,3.15,4.14,29.1,2.06,31.71-1.36-.9-17.92-14.5-44.31-23.69-49.99-1.65-1.02-10.18,3.33-12.07,5.22-1.5,1.5-1.62,3.42-2.88,6.39-3.09,3.39-5.7,6.89-9.19,10.81Z"/>
  </g>
  <g class="clothesOverlapLine">
    <path d="M210.54,146.7c6.42-.65,11.64,.11,15.91,.36"/>
    <path d="M219.02,124.39c-.67,8.13-1.8,15.52-3.48,22.04"/>
    <path d="M204.55,122.54c-3.46,10.9-7.83,26.03-6.53,32.42,.54,2.66,18.82,5.77,28.78,6.45"/>
    <path d="M226.71,182.57c.45-1.43,.96-3,1.52-4.64"/>
    <path d="M341.82,140.86c-2.72,1.38-5.21,2.41-6.59,.65"/>
    <path d="M340.7,180.78c-.02-.61-.04-1.27-.07-2"/>
    <line x1="110.96" y1="182.15" x2="109.12" y2="177.68"/>
    <path d="M107.08,144.15c3.25-3.71,4.33-4.98,6.57-6.32"/>
    <path d="M103.66,124.96c2.31-2.57,3-3.26,5.59-4.25"/>
  </g>
  <g class="mouthBlob">
    <path d="M87.62,111.73c4.09-.26,4.17,5.56,8.49,2.94,1.19-.72-2.2-5.25-8.49-2.94Z"/>
    <path d="M239.02,100.37c-1.07,.65-1.75,1.11-2.17,2.4-.65,2.01-3.06,2.01-3.04,.54-.21-.71,1.58-2.68,5.21-2.94Z"/>
    <path d="M312.45,109.85c1.19,.56,3.38,.63,4.58,.3,1.42-.38,3.12,.48,3.36,2.06,.3,1.96-1.33,1.36-2.92,.48-.67-.37-1.31-.04-1.88,.18,.34-1.56-.62-1.9-3.14-3.01Z"/>
  </g>
  <g class="eyeBlob">
    <ellipse cx="84.51" cy="98.4" rx="1.59" ry="3.19" transform="translate(-43.98 80.68) rotate(-41.49)"/>
    <ellipse cx="240.05" cy="85.86" rx="3.19" ry="1.59" transform="translate(88.45 290.83) rotate(-73.19)"/>
    <path d="M314.58,94.77c-.17,.53-.25,1.19-.22,1.89,.08,1.76,.85,3.16,1.73,3.12s1.53-1.5,1.45-3.26c0-.05,0-.09,0-.14-1.12-.5-2.15-1.07-2.95-1.6Z"/>
  </g>
  <g class="skinDisplayLine">
    <path d="M81.51,96.1c.95-1.02,3.6-1.63,5.78-.75"/>
    <path d="M242.54,82.23c-2.33-.25-5.56,1.81-6.83,3.83"/>
    <path d="M313.46,93.93c1.27,1.13,4.51,2.94,7.39,3.57"/>
  </g>
  <g class="skinOverlapLine">
    <path d="M216.73,92.33c.77,.87,1.64,1.31,2.61,1.33"/>
    <path d="M225.31,108.32c-1.61-1.03-3-2.12-4.08-3.27"/>
    <path d="M109.72,97.51c-.39,2.15-1.4,3.64-3.07,4.44"/>
    <path d="M104.3,115.38c1-1.01,1.84-2.09,3.22-3.29"/>
  </g>
  <g class="hairOverlapLine">
    <path d="M324.56,91.42c5.79,.45,8.77-3.37,1.91-6.91"/>
    <path d="M76.38,88.62c-1.16-.33-2.27-.76-3.34-1.29"/>
    <path d="M94.15,90.69c2.22-.24,4.25-.61,6.01-1.17"/>
  </g>
</svg>