<svg viewBox="0 0 350.08 278.99">
  <path class="earthMediumDark" d="M15.45,218.31c7.99,9.25,18.85,14.87,31.77,13.28,4.54,35.67,65.83,55.13,91.45,26.92,16.86,27.89,69.4,26.59,84.31-3.89,33.55,31.41,97.49-1.42,97.44-36.19-101.63-3-203.33-3.03-304.97-.11Z"/>
  <path class="skyMedium" d="M328.38,128.46c34.7-38.59-9.08-104.1-53.83-91.45C255.74-2.87,186.02-12.92,153.26,21.13,133.48-3.84,82.24,7.51,74.79,38.31,29.39,25.34-13.74,101.55,20.95,137.54c-27.45,13.15-25.2,57.97-5.5,80.77,101.63-2.93,203.34-2.89,304.97,.11,0-2.2-.26-4.41-.8-6.61,33.73-6.49,42.16-70.05,8.76-83.34Z"/>
  <path class="foliageNear" d="M349.42,161.46c-12.22-4.06-26.87,2.43-29.83,15.87-5.41-5.4-15.42-4.84-19.48,2.03-8.46-8.82-23.75-7.42-29.62,3.25-11.37-7.89-27.78-2.88-31.65,11.36-8.92-5.75-19.77-.9-23.13,6.9-4.71-10.58-24.45-14.47-34.9-3.25-16.73-25.1-58.04,2.61-54.95,18.56,56.82-.18,137.76,.57,194.56,2.25,0-2.2-.26-4.41-.8-6.61,20.3-3.9,31.44-28.49,29.8-50.35Z"/>
  <path class="blackLight" d="M132.55,108.03c16.51-11.63,8.73-38.21-12.38-36.64,2.12-5.55-1.11-13.15-6.16-14.59,18.54-10.14,16.25-40.14-5.03-47.9-16.05,3.66-30.5,14.14-34.2,29.42C29.39,25.34-13.74,101.55,20.95,137.54c-27.45,13.15-25.2,57.98-5.5,80.77,31.57-.91,63.15-1.53,94.74-1.87,38.6,0,59.24-52.58,39.55-64.63,13.38-7.96,6.05-33.12-14.35-25.6,8.35-3.04,7.21-18.23-2.84-18.18Z"/>
  <g class="reatta">
    <path class="glassClear" d="M25.59,188.19c.9-5.41,2.6-9.42,5.71-14.63,10.72-1.8,33.26-1.5,40.27,0-2.3,4.91-3.61,9.62-4.01,14.13l-41.98,.5Z"/>
    <path class="hairBlonde" d="M41.82,182.38c-3.73-3.19-5.18-7.52-2.81-12.02,1.42-2.62,3.82-4.37,7.97-3.84,6.2,.98,9.76,1.02,13.17-1.27-.63,1.8-1.79,3.4-3.41,4.81,3.22,.76,6.83-.36,9.72-2.91-1.26,4.07-4.4,7.81-9.09,8.69,.54,1.46,1.9,2.27,3.38,2.33-1.62,2.21-3.96,3.13-6.21,3.33l-12.73,.88Z"/>
    <g class="cushion">
      <path d="M56.12,185.61c.53-2.78-.43-5.9-3.4-6.28-2.84-.32-7.1-.39-9.75,.26-2.97,.84-3.63,3.37-3.81,6.35l16.95-.32Z"/>
      <path d="M82.65,185.61c.53-2.78-.43-5.9-3.4-6.28-2.84-.32-7.1-.39-9.75,.26-2.97,.84-3.63,3.37-3.81,6.35l16.95-.32Z"/>
    </g>
    <g class="rubberMediumDark">
      <path d="M48.29,217.34c2.14-.05,3.41-4.41,2.57-9.71-.84-5.3-3.2-9.5-5.35-9.48l-6.71,.25,3.03,19.19,6.47-.25Z"/>
      <path d="M30.81,217.9c2.1-.05,3.33-4.31,2.51-9.49s-3.13-9.29-5.23-9.27l-6.56,.24,2.96,18.76,6.32-.24Z"/>
      <path d="M87.16,216.61c2.12-.05,3.37-4.37,2.55-9.61-.83-5.25-3.17-9.41-5.3-9.39l-6.65,.24,3,19.01,6.4-.24Z"/>
      <path d="M70.09,216.93c2.08-.05,3.3-4.27,2.49-9.4s-3.1-9.2-5.18-9.18l-6.5,.24,2.93,18.58,6.26-.24Z"/>
    </g>
    <path class="body" d="M44.62,212.21c2.45-.14,4.44-.5,5.34-1.28,1.19-.9,1.86-2.34,2.17-4.15,1.05-5.98-.1-14.23-2.41-17.12-1.91-2.98-7-4.4-10.03-4.73,14.2-.85,31.18-.83,46,0,3.04,.33,5.66,1.51,7.57,4.49,2.31,2.89,3.47,11.15,2.41,17.12-.32,1.81-.99,3.25-2.17,4.15-.89,.78-2.89,1.14-5.34,1.28-14.75,.71-28.95,.91-43.54,.25Z"/>
    <path class="blackLighter" d="M95.44,207.51c-12.92,.37-30.54,.36-43.47,0-.1,.33-.14,.49-.24,.82,13,.37,30.43,.38,43.44,.01,.1-.25,.19-.53,.27-.83Z"/>
    <path class="brakeLight" d="M51.57,193.94c12.51-.18,31.08-.2,43.59-.02,.41,1.73,.58,2.92,.76,4.74-12.25-.17-31.31-.16-43.56,0-.12-1.45-.4-3.03-.8-4.72Z"/>
    <path class="bodyDark" d="M13.72,196.22c-1.39,2.65-1.03,6.41,0,9.01,.49,1.12,3.08,4.06,5.54,4.94,2.92,1.04,5.85,1.76,7.99,1.92,5.22,.38,12.45,.4,17.36,.12,2.45-.14,4.44-.5,5.34-1.28,1.19-.9,1.86-2.34,2.17-4.15,1.05-5.98-.1-14.23-2.41-17.12-1.91-2.98-4.53-4.16-7.57-4.49-5.13-.6-9.29,.03-13.24,1.54-5.65,1.93-13.53,6.38-15.18,9.52Z"/>
    <path class="blackMediumLight" d="M15.45,207.51c12.18,.34,24.35,.33,36.52,0-.1,.33-.14,.5-.24,.83-11.81,.33-23.61,.34-35.41,.03-.35-.34-.52-.51-.87-.85Z"/>
    <path class="turnLight" d="M52.37,198.67h-4.63c-.6-1.43-.92-3.02-1.03-4.73h4.86c.39,1.55,.66,3.12,.8,4.73Z"/>
    <g class="rubberDark">
      <path d="M76.61,212.41c1.16,2.7,2.75,4.48,4.14,4.45,1.4-.03,2.42-1.91,2.71-4.69-2.3,.09-4.58,.17-6.86,.24Z"/>
      <path d="M59.69,212.6c1.14,2.76,2.74,4.6,4.14,4.56,1.36-.03,2.36-1.86,2.65-4.57-2.27,.02-4.53,.02-6.79,0Z"/>
      <path d="M36.22,208.1c.84,5.3,3.44,9.53,5.6,9.48,2.14-.05,3.41-4.41,2.57-9.71-.84-5.3-3.45-9.5-5.6-9.48-2.24,.02-3.41,4.41-2.57,9.71Z"/>
      <path d="M19.02,208.87c.82,5.18,3.37,9.32,5.47,9.27,2.1-.05,3.33-4.31,2.51-9.49s-3.37-9.29-5.47-9.27c-2.19,.02-3.33,4.31-2.51,9.49Z"/>
    </g>
    <g class="steelMedium">
      <path d="M38.73,208.03c.32,2.05,1.33,3.7,2.17,3.68s1.32-1.71,1-3.76-1.34-3.68-2.17-3.68-1.32,1.71-1,3.76Z"/>
      <path d="M21.46,208.8c.32,2.01,1.3,3.61,2.12,3.59s1.29-1.67,.97-3.68-1.31-3.6-2.12-3.59-1.29,1.67-.97,3.68Z"/>
    </g>
  </g>
  <path class="smokeMedium" d="M192.08,216.16c13.38-2.94,9.24-23-3.82-21.09,4.95-.07,2.94-12.71-4.14-9.87,15.29-4.46,11.15-27.07-4.14-25.48,10.51-28.66-26.43-41.4-41.4-22.61-6.59-15.48-32.44-7.98-28.98,8.28-12.74-7.64-28.34,5.73-19.57,19-8.33-1.76-12.17,7.77-6.87,12.21-13.38-.96-15.92,27.07,.99,28.6-3.44,2.99-4.02,8.07-1.16,11.53,30.02-.45,79.06-.64,109.08-.57Z"/>
  <g class="bennettShoe">
    <path d="M198.7,215.62c7.52-3.58,14.37-4.09,18.92,2.61,.99,1.36,1.35,3.79-.49,5.5-3.71,3.74-21.89,12.54-25.6,12.86-2.25,.18-3.67-.37-4.86-1.76-2.75-3.91-3.7-8.08-3.34-12.42l15.37-6.8Z"/>
    <path d="M120.69,209.51c-4.76,2.48-8.74,5.42-11.44,9.13-1.17,1.66-1.17,2.76,.09,4.52,3.88,5.58,10.18,12.74,14.53,15.01,4.47,2.45,10.28,2.88,14.31,1.18,1.29-.63,1.78-1.61,1.99-3.25,.92-8.34-3.9-10.27-8.95-11.93-.28-1.24-.34-2.65-.27-4.16l-10.26-10.49Z"/>
  </g>
  <path class="bennettJeans" d="M171.6,168.36c5.83,7.78,13.22,19.4,17.76,28.49,3.96,7.98,7.61,12.88,10.4,17.16,.43,2.31-14.58,9.85-17.52,8.18-3.96-8.57-7.06-13.21-11.79-19.28-2.85-3.52-8.39-8.09-12.71-10.11-1.4,4.55-3.06,8.54-6.16,12.8-3.12,4.01-10.49,9.2-15.64,16.68-4.44,.99-15.3-7.22-15.24-14.17,8.01-6.82,13.24-11.53,16.54-14.25-1.33-7.89-2.03-15.58-1.64-22.91,.26-3.73,1.42-7.19,3.08-10.49l32.92,7.9Z"/>
  <path class="shirtWhite" d="M178.42,138.53c-1.04,5.91-2.18,11.38-3.53,15.94-1.23,4.6-2.01,8.86-2.22,13.49-5.37,2.68-32.27,.15-35.87-7.9,2.99-7.44,5.44-14.49,7.97-22.84,2.68-9.5,7.2-16.81,13.89-23.99,12.94-1.39,19.71,6.76,19.76,25.3Z"/>
  <g class="skinEastAsian">
    <path d="M208.9,91.44c-.94,2.14-2.07,3.83-3.26,5.26-.78,.96-.38,2.99,.44,3.99,3.58,4.73-.7,9.34-4.31,7.59-3.15,5.16-6.84,8.33-12.22,8.83-3.34,.24-5.91-.16-8.79-2.13-1.67,1.84-3.38,3.89-4.55,6.56l-16.52-8.32c4.55-5.71,8.69-10.01,6.82-15,9.67-24.93,38.58-30.13,42.38-6.77Z"/>
    <path d="M194.92,137.66c3.35,2.31,6.62,4.86,9.21,6.02,3.85-2.02,7.57-3.83,9.07-1.95,.86,1.24,.13,2.45-1.19,3.63,1.39,.66,2.79,1.27,4.2,1.84,2.43-1.28,4.18,.12,4.2,1.56,3.54,.94,3.58,2.21,3.2,4.3-.32,1.46-.95,2.12-1.66,3.07,3.11-.47,5.19,.64,5.1,4.24-.19,4.58-3.27,8.64-6.67,8.64-5.53-.09-11.96-4.47-14.5-8.01-1.32-1.91-2.77-3.99-4.53-5.07-4.35-2.63-8.79-5.75-12.98-9.27l6.55-9Z"/>
  </g>
  <g class="bennettSleeves">
    <path d="M158.15,113.8l2.45-2.65c3.05-.97,12.17,2.15,16.48,6.06,4.53,4.66,7.64,10,11.68,14.31,2.92,3.21,5.46,4.99,9,7.53,0,2.21-5.99,10.12-8.83,9.47-4.91-3.36-11.03-7.8-16.55-12.9-2.92,1.34-5.95,.92-8.13-2.69-3.14-5.32-3.6-12.45-2.4-18.43-1.36-.87-2.53-.73-3.69-.7Z"/>
  </g>
  <g class="lizShoe">
    <path d="M259.94,226.44c2.21,1.66,2.3,6.36,.21,10.86-.93,1.77-2.54,2.18-4.24,2.13-7.89-.18-16.01-2.9-24.13-7.07-1.93-.96-2.53-2.35-1.77-4.38,2.72-6.24,9.51-6.4,16.54-6.21l13.39,4.67Z"/>
    <path d="M292.95,217.37c5,1.7,7.37,5.19,8.05,9.85,.27,1.96-.06,3.09-1.4,4.09-9.17,6.53-18.96,8.48-26.34,7.48-1.84-.21-2.28-1.54-2.2-3.19,.33-4.36,4.12-8.06,8.45-11.66,3.53-4.15,8.07-6.22,13.44-6.57Z"/>
  </g>
  <path class="lizJeans" d="M291.58,163.41c1.72,8.42,.48,17.03-4.41,25.9-1.57,2.69-2.92,5.18-4.02,8.24,4.32,5.3,7.42,12.12,9.81,19.82-4.85,1.82-9.33,4.01-13.44,6.57-4.33-5.49-8.24-10.74-10.99-15.3-2.42,5.98-5.38,12.22-8.59,17.81-4.08,1.06-11.3-1.77-13.39-4.67,2.95-19.09,6.75-38.81,12.16-58.17l32.86-.2Z"/>
  <path class="lizShirt" d="M281.54,117.19c3.48,2.12,5.69,4.61,6.1,8.4,.6,4.87,1.22,6.98,1.08,13.21-.07,5.62,.88,10.23,1.96,12.94,1.79,4.36,3.25,10.23,2.98,12.8-3.66,4.34-24.66,8.74-37.46,1.63-.41-2.57-.07-4.81,.88-7.52,1.22-3.93,.2-7.52-1.02-9.55-4.81-7.99-5.42-13.89-1.15-20.32-.55-1.11-.05-2.27,1.08-3.45,2.25-2.51,5.62-5.49,10.77-8.13h14.77Z"/>
  <g class="clothesOverlapLine">
    <path d="M268.53,208.64c1.37-3.01,1.69-4.9,2.23-8.28,1.07-1.78,10.09-12.16,13.11-18.59"/>
    <path d="M131.23,224.15c-1.41-.41-2.41-.57-3.42-.46"/>
    <path d="M157.73,192.8c1.49-4.99,2.66-8.42,3.4-12.76"/>
    <path d="M172.37,135.62c-.87-.85-1.58-1.64-2.09-2.35"/>
    <path d="M261.34,138.47c1.3,1.12,3.22-.3,5.14-1.71"/>
  </g>
  <g class="skinIndian">
    <path d="M251.8,74.78c-.52,.16-2.02,9.68-1.95,11.54-.05,1.77-.84,2.98-1.98,3.5-4.15,2.17-3.12,6.93,.84,7.4-.55,4.65-.69,9.85,2.33,13.54,2.04,2.49,4.85,3.17,8.8,3.21,18.07-21.17,11.1-32.27-8.04-39.2Z"/>
    <path d="M254.92,128.77c.94,3.65,3.13,6.86,6.42,9.69-4.21,2.43-8.24,4.49-11.94,5.85-2.16,.73-4.37,.81-6.61,.38-3.38-.67-9.04-3.28-14.85-5.43-2.09-.76-3.67-1.19-5.14-1.38-5.33-.52-8.14-4.76-9.8-9.42-.16-1.43,.33-2.74,1.28-3.95,1.9-2.14,3.74-2.18,5.33-.81,1.8,1.73,3.56,3.22,5.14,3.9-.05-3.66,1.14-5.95,4.09-4.38,1.47-1.93,3.32-2.67,5.47-2.47,3.01,.27,5.46,2.5,7.33,5.04-.19-2.66-1.36-3.51-.62-5.31,.95-1.75,3.6-.79,4.71,.95,1.48,2.06,1.82,4.74,1.76,7.16,1.39,.82,2.67,1.71,3.9,2.1,.95-.58,2.27-1.21,3.53-1.94Z"/>
  </g>
  <g class="eyeBlob">
    <ellipse cx="201.55" cy="94.67" rx="3.15" ry="1.58" transform="translate(8.6 205.82) rotate(-55.1)"/>
    <ellipse cx="254.36" cy="88.81" rx="3.19" ry="1.59" transform="translate(121.52 323.2) rotate(-79.7)"/>
  </g>
  <g class="mouthBlob">
    <path d="M196.41,108.3c-2.55,.54-3.08,1.11-4.64,2.35-.7,.56-1.66,1.29-2.54,.36-.91-.97,2.49-3.72,7.18-2.71Z"/>
    <path d="M250.73,102.55c1.52,.69,3.64,.66,6.14,.37-.95,1.47-1.97,2.68-3.23,3.03-1.19,.27-2.29-.65-2.03-1.43,.28-.83,.08-.99-.88-1.97Z"/>
  </g>
  <g class="skinDisplayLine">
    <path d="M204.56,91.69c-1.93-.5-5.41-.23-8.08,1.64"/>
    <path d="M258.94,89.72c-.54-2.82-2.18-4.76-4.94-5.8"/>
  </g>
  <g class="skinOverlapLine">
    <path d="M173.92,95.82c.24,.91,.63,1.92,1.27,2.58"/>
    <path d="M180.77,114.97c-1.6-1.55-2.46-2.56-3.08-4.27"/>
    <path d="M220.41,148.76c.26,2.29-2.13,3.46-4.9,4.7,1.62,1.53,4.21,2.78,6.43,2.67"/>
    <path d="M216.21,147.19c-2.14,.78-4.16,1.61-6.02,2.52-1.13,.35-2.27,.23-3.42-.28-2.84-2.22-6.14-5.28-9.62-8.7"/>
    <path d="M228.84,123.24c1.66,1.07,2.42,4.45,3,8.27,4.56,2.03,8.57,1.98,12.74,2.87,2.07-1.12,4.35-2.35,6.81-3.67"/>
  </g>
  <g class="hairBlack">
    <path d="M203.79,83.02c.9,4.84,3.02,8.85,6.77,11.73,7.41-4.36,9.13-14.92,6.32-20.8-4.37-8.44-9.02-13.72-18.8-17.17-5.14-1.8-9.76-1.82-13.74-1.29-1.13-3.87,1.08-7.37,4.62-11.24-5.39,2.4-8.75,6.42-8.89,11.45-2.35-3.82-6.25-5.66-11.08-5.24,3.96,1.83,7.46,3.78,7.11,6.77-9.61,3.76-14.78,13.11-14.96,23.76-.17,6.22,1.01,11.47,4.22,17.11,3.02,.51,5.84-.29,8.57-2.27-.58-3.46-.25-5.61,2.15-7.5,2.15-1.52,4.66-.73,4.7,2.03,.7,.47,1.47,.94,2.29,1.43,1.22-1.85,3.15-3.24,5.72-4.81,5.36,1,10.33-.5,15-3.95Z"/>
    <path d="M262.45,84.54c-4.93-1.42-9.27-4.09-11.79-8.44-1.96-4.09-2.73-11.7,4.95-11.17,3.97,.54,8.71-5.43,25.45-1.58,9.15,2.1,17.4,10.75,16.52,21.21-.53,7.04,.98,8.53,2.21,13.55,1.85,6.42-4.65,15.25-10.25,17.73-11.4,5.84-36.09,4.04-31.42-3.42,1.49-2.38,8.75-10.42,4.34-27.88Z"/>
  </g>
  <g class="hairOverlapLine">
    <path d="M262.45,84.54c3.57,.8,5.08-2.01,3.36-4.46-.77-1.15-1.75-2.06-3.16-2.73"/>
    <path d="M188.78,86.96c-2.56-.54-4.83-1.29-6.87-2.21"/>
  </g>
  <g class="tear">
    <path d="M262.22,92.37c4.4,2.46,7.03,5.36,7.71,7.22,1.09,2.99-2.91,4.96-4.36,1.9-.85-1.79-.73-6.05-3.35-9.12Z"/>
    <path d="M193.77,94.81c-4.32,2.48-6.89,5.37-7.54,7.22-1.05,2.96,2.34,3.61,3.75,.57,.82-1.78,.35-3.97,3.8-7.78Z"/>
  </g>
</svg>