<svg viewBox="0 0 335.45 288.09">
  <path class="dishroomFloor" d="m27.2,231.44c10.86,15.92,28.09,27.16,45.33,22.24,8.97,37.25,93.76,46.33,114.46,14.57,16.48,27.95,72.36,8.76,72.16-16.35,16.31,7.91,38.62-2.7,50.26-20.46H27.2Z"/>
  <path class="dishroomWall" d="m27.2,231.44h282.22c8.14-12.42,11.06-28.34,3.06-43.88,35.29-13.97,27.78-102.38-13.86-105.93,12.45-35.64-41.29-77.51-74.2-56.19-2.3-31.79-118.72-35.47-118.18,2.32-26.79-16.96-78.69,14.38-71.11,41.04-37.94-1.2-47.7,93.07-14.14,110.94-9.41,13.83-5,35.26,6.21,51.7Z"/>
  <g class="door">
    <path class="doorLightFront" d="m261.85,182.82h58.32c26.16-22.92,16.73-97.92-21.56-101.19,8.48-24.26-13.71-51.38-39.12-59.53,1.21,53.57,1.99,107.14,2.36,160.72Z"/>
    <g class="steelLight">
      <path d="m334.22,152.03c-22.47.03-44.93,0-67.4-.09.08,10.19.11,15.29.17,25.48,19.28.23,38.57.32,57.85.28,4.97-6.73,8.07-15.79,9.38-25.67Z"/>
      <path d="m285.18,129c-7.43,0-11.14,0-18.56,0-.16-14.7-.33-29.41-.54-44.11,7.52-.12,11.28-.17,18.8-.24.11,14.78.21,29.57.3,44.35Z"/>
      <path d="m300.16,66.39c-1.15-9.25-5.84-18.26-12.63-25.87-5.19,12.93,4.09,23.68,12.63,25.87Z"/>
    </g>
  </g>
  <path class="stepFront" d="m306.47,235.61c10.28-12.7,15.02-30.28,6.01-48.06,3-1.19,5.68-2.92,8.06-5.08-20.79-.15-41.57-.08-62.36.19.19,6.74.27,11.18.39,17.7-1.24.01-2.47.02-3.71.03.13,6.73.18,11.17.24,17.69-1.23.01-2.46.02-3.69.03.07,7.06.08,10.59.07,17.65,18.33-.13,36.67-.17,55-.15Z"/>
  <g class="stepOverlapLine">
    <path d="m258.58,200.34c19.37-.2,38.74-.26,58.1-.17"/>
    <path d="m255.11,218.07c20.22-.19,40.43-.24,60.65-.17"/>
  </g>
  <g class="dishroomSink">
    <g class="steelDark">
      <path d="m77.63,235.29h-11.51c1.32-1.6,1.97-2.34,3.28-3.94.2-10.36.23-20.74.08-31.1,2.03-.03,3.05-.04,5.09-.06.14,10.37.11,20.76-.07,31.14,1.25,1.59,1.88,2.38,3.13,3.97Z"/>
      <path d="m196.54,235.29h-11.51c1.25-1.59,1.88-2.38,3.13-3.97-.18-10.37-.21-20.76-.07-31.13,2.03.02,3.05.04,5.08.06-.15,10.36-.12,20.74.08,31.1,1.31,1.6,1.96,2.34,3.28,3.94Z"/>
    </g>
    <path class="porcelainDark" d="m70.45,200.26c40.68-.42,81.36-.41,122.05,0,5.46.07,9.94-4.3,10.08-9.78.18-6.93.3-10.4.62-17.33-47.82-.88-95.62-.89-143.43-.01.31,6.93.44,10.4.61,17.34.14,5.48,4.62,9.85,10.08,9.78Z"/>
    <path class="porcelainMedium" d="m59.56,173.15c47.78-.88,95.55-.88,143.33,0,5.44.12,5.85-7.53.38-7.66-48.04-.96-96.06-.96-144.09,0-5.5.13-5.09,7.78.38,7.66Z"/>
  </g>
  <path class="busingWall" d="m48.93,38.16c.66,23.48,1.15,52.18,1.48,73.44,53.26-1.04,106.5-1.05,159.76-.03.5-33.07,1.41-65.12,2.77-98.17-26.55-.75-66.86-1.18-98.09-1.28-5.45,4.08-8.7,9.27-8.61,15.64-16.15-10.23-41.44-2.88-57.31,10.4Z"/>
  <path class="ironMedium" d="m40.14,47.49c.57,16.6,1.04,33.19,1.4,49.79.18,9.38,7.9,16.79,17.29,16.6,48.04-.82,96.07-.82,144.11,0,9.39.2,17.1-7.21,17.29-16.6.45-20.93,1.08-41.85,1.88-62.76.38-9.38-7.11-17.28-16.8-17.56-31.12-.78-63.44-1.14-94.58-1.04-1.17,1.35-2.12,2.79-2.85,4.33,31.67-.13,64.5.2,96.14.97,7.77.22,13.81,6.56,13.52,14.1-.74,20.29-1.32,40.59-1.74,60.89-.14,7.55-6.35,13.51-13.91,13.35-47.34-.81-94.67-.81-142.01,0-7.55.16-13.76-5.8-13.9-13.35-.38-17.98-.88-35.94-1.49-53.91-1.61,1.67-3.07,3.41-4.34,5.19Z"/>
  <g class="conveyorCars">
    <path class="patinaMediumDark" d="m16.12,160.17c6.98,2.28,10.46,3.42,17.44,5.66-.41-27.13-.54-54.25-.4-81.38-7.25,2.31-10.85,3.52-18.01,6,.22,23.24.54,46.48.98,69.72Z"/>
    <g class="patinaDarker">
      <path d="m16.12,160.17c6.98,2.28,10.46,3.42,17.44,5.66,11.92-1.19,23.84-2.41,35.76-3.64-6.81-1.64-10.21-2.48-17.02-4.2-12.06.74-24.12,1.47-36.18,2.18Z"/>
      <path d="m70.35,88.43c-7.51,1.43-11.25,2.2-18.7,3.85-12.17-.73-24.32-1.35-36.51-1.84,7.16-2.48,10.76-3.69,18.01-6,12.42,1.21,24.8,2.54,37.2,3.99Z"/>
    </g>
    <g class="patinaMedium">
      <path d="m69.32,162.19c-11.92,1.23-23.84,2.45-35.76,3.64-.41-27.13-.54-54.25-.4-81.38,12.42,1.21,24.8,2.54,37.2,3.99-.81,24.59-1.15,49.16-1.03,73.75Z"/>
      <path d="m198.46,99.22c-15.64.21-31.27.19-46.91,0-.19-26.49-.59-52.97-1.22-79.45,16.49-.56,32.86-.59,49.35,0-.63,26.48-1.03,52.96-1.22,79.45Z"/>
    </g>
    <path class="carDisplayLine" d="m33.13,125.14c-7.01.04-10.52.07-17.54.17"/>
  </g>
  <g class="liz">
    <path class="lizShoe" d="m232.42,228.48c3.64,2.28,4.2,7.15,3.97,13.52-.1,2.7-33.08,3.1-33.27.41-.57-8.01,5.7-11.96,13.82-13.76l15.48-.18Z"/>
    <path class="lizJeans" d="m212.4,171.78c-.4,18.15,1.89,38.01,4.3,56.87.26,2.07,15.93,1.91,15.97-.18.25-12.42,1.82-22.6,4.71-31.57,1.88-7.4,7.41-10.92,4.96-25.59l-29.94.47Z"/>
    <path class="lizShirt" d="m240.12,123.34c9.77,14.29,1.64,26.06,3.1,31.52,2.66,9.96,2.91,14.75.3,17.35-4.84,4.83-32.1,4.68-32.91.17-.64-2.99,3.84-9.02-.78-22.85-3.83-11.44,10.92-21.67,12.97-26.65l17.33.46Z"/>
    <g class="skinIndian">
      <path d="m211.92,84.31c-1.38,2.9-3.25,8.42-2.57,11.92.82,4.21-5.1,4.48-4.69,8.61-.11,2.71,3.78,2.39,3.91,4.31.02,4.64,1.1,8.76,3.72,10.95,2.12,1.78,9.57,2.31,11.17.26,13.47-19.4,15.72-34.34-11.54-36.04Z"/>
      <path d="m205.05,149.92c-8.86,1.92-11.13-8.25-25-6.26-2.69.39-4.63,4.57,4.1,5.29,4.96.41,8.07,4.34,5.92,6.07-3.41,2.75-2.76,7.09,1.78,5.33,3.11-1.21,3.14-5.2,12.36-1.92l.84-8.51Z"/>
      <path d="m204.97,160.37c2.55,1.92,3.53,6.62,5.56,6.92,6.58.15,12.97-9.03,18.49-17.79-3.95-1.42-7.47-3.38-10.52-5.94-3.08,4.52-5.07,6.66-6.77,10.3-1.15-.38-.41-7.53-6.22-5.16-3.56,1.45-7.84,7.84-.53,11.67Z"/>
    </g>
  </g>
  <g class="bennett">
    <g class="bennettShoe">
      <path d="m134.23,223.72c13.27-.08,20.73,1.44,18.83,11.22-.5,2.54-29.35,7.89-30.86,5.71-2.65-3.84-2.54-8.03-1.94-12.96l13.97-3.96Z"/>
      <path d="m100.38,229.19c10.11,1.12,16.39,4.65,14.2,13.93-.51,2.14-31.11,1.89-31.84-.73-1.02-3.64-.06-9.92,2.33-13.05l15.31-.15Z"/>
    </g>
    <path class="bennettJeans" d="m84.71,173.11c-2.6,10.19,1.23,20.42.69,30.2-.61,10.98-1.65,20.86-.7,25.48.38,1.89,16.37,2.43,16.42.44,1.73-6.17,2.64-18.23,4.05-29.9,5.48,7.06,10.33,16.76,13.97,27.65.58,2.5,16.59-1.39,16.01-3.89-2.64-14.3-8.53-30.81-13.84-48.14l-36.61-1.83Z"/>
    <path class="dishroomShirt" d="m113.58,115.71c9.39,1.06,9.39,13.5,19.17,21.18-3.59,1.63-7.49,6.98-8.08,12.28-1.34-.21-2.25-.95-3.33-1.76l-1.96,28.69s-37.16.69-36.37-4.81c.61-6.14,2.11-13.18,2.22-21.96-1.45-.28-3.91-.83-4.07-2.4-.84-8.41.29-13.97,2.16-22.2,2.56-8.09,9.14-8.74,15.95-10.78l14.31,1.75Z"/>
    <path class="dishroomApron" d="m99.27,113.96c3.43,5.99,2.86,12.12,4.98,13.32,2.45,2.01,11.71,2.74,11.59-1.52-.16-5.45-1.23-7.47-2.25-10.05,2.9.36,4.78,1.79,6.81,4.72,3.03,10.44,1.68,17.35.95,27-5.31,12.44,1.52,15.55,3.82,34.55.57,6.04-39.21,6.52-38.93.4.6-11.87,1.65-22.71,3.16-32.51,11.36,4.91,18.75-12.18,7.38-17.08,1.63-9.42-.11-12.77-2.71-17.05,1.85-.71,3.56-1.3,5.2-1.76Z"/>
    <g class="book">
      <polygon class="paperDark" points="102.85 131.23 107.12 132.28 106.43 154.95 102.41 154.48 102.85 131.23"/>
      <g class="bookCover">
        <path d="m102.41,154.48l.44-23.25-6.08.31c-.19,8.55,1.4,15.22-1.73,15.85-1.95,7.62,1.59,8.69,7.37,7.08Z"/>
        <path d="m82.72,147.39c-.82-.37-1.47-.9-1.55-1.68-.49-4.86-.31-9.09.28-13.39l-5.13.26.03,22.15,6.84-.07c-.39-1.75-.52-6.4-.47-7.28Z"/>
      </g>
    </g>
    <g class="bennettSleeves">
      <path d="m82.72,147.39c3.77,1.32,10.1.98,12.33,0,.71,1.89,2.23,4.39,1.82,5.09-.65,1.71-11.38,6.68-12.5,5.24-1.12-.89-1.66-4.94-1.65-10.33Z"/>
      <path d="m131.98,137.3c-3.35,1.99-6.76,6.95-7.31,11.88.44.84,5.65,2.77,9.14,2.94.33-3.63,2.72-8.98,4.77-10.7-2.72-1.31-5.06-2.66-6.6-4.12Z"/>
    </g>
    <path class="cafeteriaHatMesh" d="m125.08,57.6c-3.02-5.88-16.66-5.7-26.49-.59-8.62,4.48-14.63,12.56-12.93,19.04,8.93-8.88,30.66-16.29,39.41-18.44Z"/>
    <path class="cafeteriaHat" d="m89.87,92.66c-1.34.56-7.39-14.43-6.51-15.59,8.69-11.42,30.65-21.17,43.17-20.41,2.12.13,9.92,13.11,8.07,14.15-10.2,2.06-33.79,12.05-44.72,21.85Z"/>
    <g class="cafeteriaHatLogo">
      <path class="dullYellowMedium" d="m131.78,62.95c-4.68-3.58-9.46-.52-11.04-1.57-2.26-1.51-5.48.18-4.71,1.24.96,1.32-.74.96.47,2.52,1.66,2.15,5.36.91,5.77,1.14,2.46,1.42,2.32,8.3,12.22,2.13-.53-1.51-1.55-3.52-2.71-5.46Z"/>
    </g>
    <path class="cafeteriaHatDark" d="m134.65,66.42c-11.05,1.47-21.37,9.89-22.94,11.79l25.82.99c16.77-7.12,11.52-14.7-2.88-12.78Z"/>
  </g>
  <g class="hairBlack">
    <path d="m221.56,92.85c-10.9-.89-21.14-15.94-11.3-16.6,4.22-.28,12.8-9.02,28.06-3.42,20.28,7.45,15.02,20.26,17.74,27.86,3.52,9.86-1.9,22.32-18.41,24.84-10.25,1.57-23.84.65-20.25-5.35s7.11-12.42,4.17-27.34Z"/>
    <path d="m92.99,98.21c-1.49-1.42-2.62-3.31-3.12-5.55,12.23-12.15,34.6-22.89,47.7-15.78.06,3.59-.23,7.78-4.51,6.87l-40.07,14.46Z"/>
  </g>
  <path class="hairOverlapLine" d="m221.56,92.85c8.47.77,9.49-3.98,1.04-6.66"/>
  <g class="skinEastAsian">
    <path d="m99.27,113.96c.56-7.85-.89-11.22-5.79-15.75,1.51-.7,2.58-2.24,3.33-3.24-4.98-8.86,2.38-13.69,4.28-6.61l2.48.7c.03-1.67,1.39-2.85,2.04-4.48,6.72.87,11.54-2.3,15.81-8.22,1.41,3.95,6.56,6.21,12.12,7.38-2.11,6.45.65,10.63-2.36,17.73-3.14,7.43-9.55,12.6-17.53,11.92-.18.8-.22,1.58-.07,2.32-3.46,2.41-12.1,1.33-14.31-1.75Z"/>
    <path d="m129.38,142.85c-3.11-2.91-6.69-.6-5.43,4.05-7.08-1.05-8.67,5.08-11.34,6.54-2.23,1.22-10.23-.04-16.41-.18-1.86,1.55-6.96,3.97-9.85,4.58,1.84,3.71,3.78,6.37,5.81,6.85,3.92.92,18.36-3.93,26.23-2.11,10.42,2.41,14.29-4.02,12.17-11.48,1.88-3.58.47-6.72-1.17-8.26Z"/>
    <path d="m163.56,146.45c2.73-2.18,2.8-5.72-1.1-5.84-4.54-.15-7.32,4.5-10.97,5.06-1.37.21-9.04-2.71-13.54-3.61-1.69,1.95-3.44,5.89-3.99,9.03,2.03,1.07,13.57.1,14.93.92,5.48,3.29,8.9,6.96,14.91,8.06,5.23.96,10.77-4.79,11.03-7.95.35-4.17-7.27-1.95-11.27-5.67Z"/>
  </g>
  <g class="lancetPen">
    <path class="penCapLight" d="m154.76,153.8c-1.68,1.25-3.29,2.58-4.79,4.02-2.33,2.23,1.66,5.14,4.26,3.91,2.5-1.18,4.82-2.39,7-3.68.07-3.03-3.66-4.57-6.46-4.26Z"/>
    <path class="lancetPenLight" d="m169.23,145.42c-4.89,2.28-9.93,5.01-14.46,8.38,2.8-.31,6.53,1.23,6.46,4.26,4.43-2.61,8.3-5.56,12.04-9.35,2.31-2.34-1.06-4.68-4.04-3.29Z"/>
  </g>
  <g class="clothesOverlapLine">
    <path d="m218.5,143.55c-1.75-1.38.68-5.79,1.92-7.88"/>
    <path d="m229.02,149.5c2.64,1.49,4.78-4.49,6.29-7.74"/>
    <path d="m105.17,199.32c.47-4.01.82-8.21,1.04-12.6"/>
  </g>
  <g class="blackDark__noStroke">
    <path d="m124.21,103.36c-5.06.57-4.78,8.12-11.05-1.12,2.71,1.05,6.8,2.41,11.05,1.12Z"/>
    <ellipse cx="214.55" cy="98.7" rx="1.59" ry="3.19" transform="translate(-2.31 5.18) rotate(-1.38)"/>
    <ellipse cx="118" cy="88.53" rx="3.1" ry="1.55" transform="translate(17.16 196.2) rotate(-83.75)"/>
    <ellipse cx="128.24" cy="89.22" rx="3.1" ry="1.55" transform="translate(25.6 206.99) rotate(-83.75)"/>
  </g>
  <g class="skinDisplayLine">
    <path d="m213.03,94.52c2.53-.37,5.76,1.92,6.17,4.63"/>
    <path d="m124.27,93.14c4.45,1.17,2.81,7.39-1.64,6.21"/>
    <path d="m120.07,85.42c0-2.84-4.15-2.97-6.97.04"/>
    <path d="m130.02,86.61c.17-1.61-2.04-3.25-5.31-.64"/>
  </g>
  <g class="skinOverlapLine">
    <line x1="211.73" y1="153.86" x2="209.61" y2="157.49"/>
    <path d="m96.81,94.96c1.01,1.07,2.11,1.85,3.31,2.29"/>
    <path d="m104.22,110c2.55,1.78,5.71,2.89,9.43,3.39"/>
    <path d="m130.54,151.1c-.68,1.18-1.45,2.04-2.3,2.5"/>
    <path d="m123.94,146.9c.23.88-.25,1.68-1.74,2.39"/>
  </g>
</svg>