<svg viewBox="0 0 311.63 261.14">
  <path class="busingFloor" d="M40.18,224.67c5.23,24.25,54.46,37.67,69.73,19.21,10.57,25.39,87.42,20.49,90.65-4.98,16.03,14.69,46.7,2.37,54.73-14.23H40.18Z"/>
  <path class="busingWall" d="M299.03,134.03c26.55-17.98,6.48-86.98-31.64-82.14,3.36-45.95-88.66-68.45-108.78-36.28C146.43-9.21,82.8,.58,79.7,25.57,39.72,15.75-6.29,74.45,17.84,107.73c-35.87,20.53-9.95,110.72,22.12,109.84-.38,2.41-.29,4.78,.21,7.1H255.29c1.88-3.89,2.52-8.01,1.44-12.07,35.57,10.17,66.4-58.36,42.3-78.56Z"/>
  <rect class="dishroomWall" x="86.51" y="55.8" width="159.68" height="99.1"/>
  <g class="bennett">
    <path class="skinEastAsian" d="M207.98,134.31c.5,5.75-.09,15.53-2.04,20.72h-28.11c-1.91-3.63-2.24-14.58-1.76-21.19l31.91,.47Z"/>
    <path class="paperDark" d="M165.85,148.81c8.85-1.32,17.95,.28,25.66,4.33,8.55-4.34,16.47-5.33,26.21-4.33l3.22,4.35c-11.39-2.17-20.6-1-29.33,5.19-6.1-5.49-16.2-7.3-29.34-5.22l3.58-4.33Z"/>
    <path class="bookCover" d="M191.61,158.36c-6.1-5.49-16.2-7.3-29.34-5.22l2.54,7.23h53.88l2.26-7.2c-11.39-2.17-20.6-1-29.33,5.19Z"/>
    <g class="cafeteriaHat">
      <path d="M173.44,132.85c-1.61,5.23-1.42,11.91,2.78,12.3,7.37,.69,5.63-1.14,15.6-1.14,10.86,0,9.99,2.35,15.54,1.55,5.27-.77,4.71-9.01,3.68-12.7-6.71,7.3-31.03,6.4-37.6,0Z"/>
      <path d="M211.05,132.85c-6.71,7.3-31.03,6.4-37.6,0-.98-.95-1.2-12.71,.21-14.17,5.86-6.06,31.77-6.36,37.54,.2,1.2,1.37,1.09,12.63-.15,13.97Z"/>
    </g>
    <path class="cafeteriaHatMesh" d="M209.8,119.18c-.03,6.7-34.51,6.8-34.46,.1,.1-12.92,34.51-13.32,34.46-.1Z"/>
  </g>
  <rect class="steelMedium" x="86.51" y="154.89" width="164.19" height="10.07"/>
  <g class="conveyorBelt">
    <path class="ironMedium" d="M246.18,68.56c-2.38-2.03-5.47-3.25-8.84-3.25H86.51v-2.37c2.35-1.22,5.01-1.91,7.84-1.91H238.44c2.79,0,5.42,.67,7.74,1.86v5.67Z"/>
    <polygon class="patinaMediumDark" points="139.39 142.35 92.5 141.61 92.5 63.66 139.39 62.92 139.39 142.35"/>
    <polygon class="patinaDarker" points="92.5 141.61 101.35 141.75 101.35 65.89 92.5 63.66 92.5 141.61"/>
    <polygon class="patinaDarkest" points="101.35 65.89 92.5 63.66 139.39 62.92 148.21 65.39 101.35 65.89"/>
    <polygon class="patinaDark" points="148.21 139.88 139.39 142.35 139.39 62.92 148.21 65.39 148.21 139.88"/>
    <line class="carDisplayLine" x1="139.39" y1="102.63" x2="92.5" y2="102.63"/>
  </g>
  <polygon class="glassLight" points="106.22 142.09 114.96 142.09 116.93 119.33 104.25 119.33 106.22 142.09"/>
  <g class="tray">
    <polygon class="dullPurpleMediumDark" points="133.96 142.09 139.39 141.57 139.39 136.41 136.42 136.4 133.96 142.09"/>
    <polygon class="dullPurpleMedium" points="90.59 142.09 133.96 142.09 136.42 136.4 88.12 136.4 90.59 142.09"/>
  </g>
  <g class="liz">
    <g class="lizShoe">
      <path d="M74.34,216.7c-2.79,3.04-3.33,7.27-2.57,12.87-.02,2.79,31.63,2.79,31.65,0,1.72-9.5-4.87-11.77-13.43-13.02l-15.65,.14Z"/>
      <path d="M74.34,216.7l-12.4-2.85c-2.68,2.03-4.6,6.94-4.72,11.14,.14,1.41,11.67,4.08,14.43,3.58l2.69-11.87Z"/>
    </g>
    <path class="lizJeans" d="M94.41,166.29c.7,16.57-.72,33.03-4.42,50.27-.43,1.71-15.68,1.83-15.65,.14-3.56,1.71-14.08-2.7-13.37-4.12,2.84-11.66,4.84-16.21,4.69-18.92-.88-16.65-7.11-18.21-5.4-29.3l34.15,1.93Z"/>
    <path class="lizShirt" d="M67.23,114.53c-10.62,10.86-3.81,21.01-5.49,32.09-1,6.57-3.99,11.34-2.74,16.82,.72,3.17,36.65,4.81,37.58,1.91,2.74-8.59-3.16-20.98,1.91-31.61,1.91-.95,.56-3.41-.6-5.25-2.8-4.45-8.11-10.14-17.3-12.17l-13.36-1.79Z"/>
    <g class="clothesOverlapLine">
      <path d="M87.26,139.35c-2.05,.24-3.14-1.88-4.04-4.52"/>
      <path d="M67.57,173.8c.44,4.62,5.7,10.92,5.86,15.43,.41,11.75-.4,21.31,.91,27.47"/>
    </g>
    <g class="skinIndian">
      <path d="M101.07,79.94c.91,4.69-.59,8.81-.21,12.66,.39,3.92,4.32,3.78,3.43,7.51-.84,3.77-3.72,1.95-4.47,3.98-1.33,7.77-5.56,12.61-15.17,10.61-30.8-15.06-14.38-49.83,16.42-34.76Z"/>
      <path d="M98.48,133.73c-3.11,2.75-6.82,4.67-11.22,5.61,4.48,7.3,12.37,17.29,15.69,18.67,4.12,1.72,13.63-8.57,16.84-8.25,11.68,1.19,18.08-1.14,17.64-7.79,.11-2.75-6.86,2.3-10.65-3.44-1.26-1.91-1.87-6.9-4.81-6.64-3.89,.34-2.75,6.53-5.38,10.77-3.89,1.6-5.96,1.37-10.42,2.63-2.29-3.55-4.65-7.91-7.68-11.57Z"/>
    </g>
    <path class="hairBlack" d="M97,80.26c-2.55,2.72-5.4,4.71-8.51,6.07-.88,3.66-3.37,3.53-3.28,8.7-2.93-.58-2.79-3.58-5.55-2.52-3.55,1.36-2.84,9.29,.76,10.59,.38,8.7,12.58,8.29,8.31,13.79-9,6.52-31.25,1.96-36.3-6.98-3.91-11.47,1.17-12.15,1.03-22.44-.22-16.45,10.55-22.55,21.03-23.58,18.97-1.53,23.62,6.85,30.75,11.85,5.75,4.02-2.49,12.77-8.25,4.52Z"/>
    <path class="hairOverlapLine" d="M88.48,86.33c-11.36,4.39-14.37-1.79-4.38-4.01"/>
    <path class="skinOverlapLine" d="M80.42,103.1c1.35,.3,2.5,.23,3.37-.33"/>
  </g>
  <g class="skinDisplayLine">
    <path d="M98.52,92.68c-.79,1.11-2.5,1.83-4.91,1.58"/>
    <path d="M97.45,106.12c-2.01,0-3.01,.32-4.6,1.58"/>
    <path d="M195.77,146.27c0,4.09-8.15,4.09-8.15,0"/>
  </g>
</svg>