<svg viewBox="0 0 254.67 308.56">
  <g class="sketchLightest">
    <path d="m68.92,281.39c-1.78-3.74-2.04-8.6-1.47-13.86.91-6.2,1.01-12.04.24-17.47-.09,5.58-.78,11.1-3.1,16.46-.82,4.1-2,7.98-3.63,11.57-2.04,4.74-4.01,10.08-3.8,15.48,3.3.65,6.33.51,8.97-.84,3.52-2.63,4.6-7.39,2.79-11.33Z"/>
    <path d="m43,296.57c.55-4.74,1.37-9.67,1.41-15.2.32-6.8-1.46-11.29-1.53-15.1-1.88.78-4.01,1.35-6.12,1.62-1.15,3.61-1.56,7.12-.78,10.46,1.42,5.06,2.83,8.35,3.24,13.01-3.45.21-5.62,1.93-6.37,4.8-.3,2.7.98,4.93,4.92,5.05.41-2.42,2.27-3.93,5.24-4.65Z"/>
    <path d="m102.9,219.75c-10.49,8.05-15.03,1.52-18.59-8.96-2.37.65-4.31.84-5.89.64-5.8,13.79-5.89,31.69-2.84,51.99,1.34,7.38,4.72,10.8,7.52,16.63-3.38,3.04-4.51,7.72-.58,9.75,3.42,1.76,10.84,2.43,13.27-1.92,1.91-3.43,2.02-7.3.73-10.12-1.34-3.37-4.01-4.36-4.74-6.81s-.14-6.94-.14-6.94c6.57,3.53,12.87,4.14,18.8.72.33,4.69.8,9.24,1.45,13.59.43,6.26.64,12.44-.29,16.58-6.57,1.71-7.48,6.88-5.32,10.47.7,1.16,3.2,1.86,4.56,1.86h8.57c1.16,0,3.24-.58,3.85-1.56,1.63-2.59,2.14-6.8.65-9.18-1.56-2.92-1.26-3.88-.74-6.47,4.08-14.13,6.49-29.14,7.37-44.97.86-8.46-.7-16.26-3.97-23.6-5.6,1.98-14.46,2.25-23.65-1.7Z"/>
    <path d="m95.54,288.26c-2.13,3.16-7.14,3.33-10.74,2.38.08.89.09,1.8.01,2.73-2.89,1.01-4.6,2.44-4.69,5-.19,2.46.48,4.36,2.15,4.52h11.49c1.64,0,2.93-1.62,3.13-3.09.33-2.99-.23-5.02-1.54-7.69-.21-1.22-.1-2.51.2-3.85Z"/>
    <path d="m61.64,221.55c-1.39,1.19-3.67,1.75-7.06,1.52-3.73,4.2-7.47,8.28-11.21,11.1,3.57.49,6.01.68,6.13.37,6.38-4.32,11.58,2.85,6.67,6.58.79,7.07-7.75,9.91-11.39,2.36-10.17-3.32-20.88-5.67-32.13-7.07-2.42,10.77-2.98,22.08-1.88,33.91.13,4.21,2.27,8.03,5.87,11.57.08.98.09,2.01-.79,3.28-1.33,2.08-.81,5.36.54,6.66,2.19,2.44,8.88,3.17,11.92,1.48,3.07-1.36,4.06-4.74,4.07-7.28.08-2.31-1.3-5.63-2.32-8.29-1.1-3.4-.97-6.8.17-10.19,3.57,1.09,8.66.36,12.63-1.28.07,3.8,1.85,8.29,1.53,15.1-.03,5.53-.86,10.46-1.41,15.2-4.35,1.06-6.32,3.8-4.84,8.63,1.24,3.53,12.97,4.06,16.85,0,2.2-2.9,2.45-6.24,2.15-11.57-.23-5.42,1.75-10.78,3.8-15.54,1.63-3.59,2.81-7.47,3.63-11.57,2.45-5.67,3.09-11.52,3.11-17.44-.6-11.74-2.6-20.95-6.06-27.53Z"/>
    <path d="m134.31,193.69c-2.61-1.7-4.08-5.02-5.25-8.92-.78-5.25-5.5-9.91-10.99-14.46-1-8.88-3.32-13.79-6.36-16.48-5.84,2.38-9.96,8.26-13.3,15.76-4.4.71-8.27,2.55-11.71,5.35-4.72-3.08-12.48-4.84-17.78-2.6-2.2,5.02,1.12,10.17,5.06,15.33-2.71,13.99-4.08,27.1,10.32,23.13,3.56,10.49,8.1,17.01,18.59,8.96,9.19,3.95,18.05,3.68,23.65,1.7,5.91-2.09,13.25-6.27,14.23-17.03.38-4.17-2.54-8.18-6.46-10.74Zm-.63,15.45c-.37.83-1.11,1.43-2,1.6-1.4.27-2.75.18-4.08-.21-.82-.24-1.24-1.16-.9-1.95,1.13-2.65,3.14-4.22,6.24-4.49.83-.07,1.54.59,1.53,1.42,0,1.25-.28,2.46-.8,3.63Z"/>
    <path d="m61.58,194.46c2.99-6.11,3.29-12.19.85-15.92-5.86.48-11.8,4-15.46,7.83-6.39-2.86-13.9-4.19-19.88-3.56-1.69-5-4.02-9.67-7.22-11.37-6.06,3.59-8.12,9.04-7.37,17.34-4.02,5.26-7.06,10.3-1.23,13.36-4.21,5.24-5.66,9.93.47,13.08.48,8.28,1.44,16.08,6.73,19.71,4.62,1.97,9.62,2.92,14.97,2.94,7.08.62,14.11-6.89,21.13-14.78,9.15.61,10.25-4.49,7.49-12.32,7.95-2.78,3.77-9.53-.47-16.3Zm-30.65,33.75c-1.21,1.14-2.83,1.71-4.92,1.62-1.85-.56-3.03-1.63-3.62-3.15-.34-.88.22-1.86,1.15-2.05,2.56-.54,4.94-.17,7.13,1.14.88.53,1.01,1.74.27,2.44Z"/>
  </g>
  <g class="sketchLighter">
    <path d="m126.54,221.46c1.11,1.06,2.34,2.4,3.31,3.97,1.59,2.65,3.14,3.44,5.36,3.12,2.44-.6,3.88-1.89,3.85-4.45-.35-3.23-1.57-5.67-3.65-7.82-2.68,2.6-5.95,4.14-8.87,5.17Z"/>
    <path d="m187.65,198.55c-.68-8.99-1.25-17.93-1.68-26.8,8.27-.23,16.89-.13,25.3.23-.53,8.74-1.24,17.6-2.13,26.57h-21.49Z"/>
    <path d="m212.32,144.95c-8.75-.91-18.35-1.14-27.2-.52-.11-9.3-.03-18.51.3-27.6,8.7-.97,18.07-.58,26.74.99h0c.26,8.94.31,17.98.16,27.14h0Z"/>
    <path d="m187.2,89.5c-.87,8.98-1.45,18.1-1.78,27.33-5.46.61-10.65,1.75-15.24,3.46.45-8.54,1.23-16.91,2.39-25.07,3.86-2.84,9-4.74,14.64-5.72h0Z"/>
    <path d="m185.12,144.43c.11,9.02.4,18.13.85,27.31-4.97.14-10.08.42-14.71.82-.75-8.73-1.24-17.4-1.44-25.96,4.54-1.08,9.77-1.79,15.29-2.17Z"/>
    <path d="m189.83,224.39c-3.88-.09-7.71-.26-11.45-.52-1.59-8.44-2.98-16.89-4.16-25.32h13.43c.64,8.54,1.38,17.12,2.18,25.74v.1Z"/>
    <path d="m214.97,223.85c1.43-8.5,2.75-16.94,3.91-25.3h-9.73c-.84,8.47-1.85,17.05-3.02,25.74,2.95-.1,5.9-.24,8.85-.42v-.02Z"/>
    <path d="m212.32,144.96c-.15,8.89-.5,17.89-1.05,27.02,3.61.15,7.19.36,10.68.6.84-8.76,1.46-17.41,1.79-25.93-3.52-.7-7.38-1.27-11.42-1.69h0Z"/>
    <path d="m221.76,95.24c1.1,8.33,1.78,16.86,2.09,25.57-3.64-1.25-7.58-2.25-11.68-2.99h0c-.27-9.22-.76-18.33-1.47-27.35,4.13,1.09,7.93,2.68,11.05,4.77h.01Z"/>
    <path d="m239.63,263.5h0c-5.58-17.59-13.72-30.95-24.67-39.65l-6.01,32.95c14.2,7.28,24.5,19.56,31.47,36.13-2.76-9.84-3.16-19.8-.79-29.43Z"/>
    <path d="m185.74,224.26c-7.84,9.57-13.58,20.99-17.46,33.36,3.26,9.26,3.91,19.38,2.69,28.85,3.97-11.48,9.33-21.74,17.72-29.43-1.59-11.62-2.52-22.23-2.95-32.78Z"/>
  </g>
  <g class="sketchMiddle">
    <path d="m111.57,294.9c.93-4.14.72-10.32.29-16.58-.65-4.35-1.11-8.9-1.45-13.59-1.82,1.05-3.67,1.72-5.55,2.04.1,9.79.18,19.58.26,29.36,1.03.08,2.06.16,3.08.24.9-.61,2.01-1.11,3.37-1.46Z"/>
    <path d="m101.92,90.84c.57,23.3,1.05,46.59,1.47,69.89,2.35-3.17,5.07-5.58,8.32-6.91,3.05,2.69,5.36,7.6,6.36,16.48,5.49,4.55,10.21,9.21,10.99,14.46,1.17,3.9,2.64,7.22,5.25,8.92,3.93,2.57,6.84,6.57,6.46,10.74-.5,5.44-2.62,9.2-5.36,11.85,2.09,2.16,3.31,4.6,3.65,7.82.03,2.56-1.41,3.85-3.85,4.45-2.22.32-3.77-.47-5.36-3.12-.97-1.58-2.2-2.91-3.31-3.97-.13.05-.26.09-.39.13.13-.04.27-.08.39-.13,3.27,7.34,4.83,15.14,3.97,23.6-.88,15.83-3.3,30.84-7.37,44.97-.52,2.59-.81,3.55.74,6.47.13.22.25.45.35.69h0c6.11.18,12.22.21,18.35.08.18-69.33.53-138.65,1.1-207.98-13.97-.39-27.87.13-41.76,1.55Z"/>
    <path d="m221.76,95.25c-3.26-24.56-10.24-47.33-22.48-67.56-1.48-4.38-1.96-16.54-2.6-27.66-.45,11.07-.72,23.35-2.23,27.54-11.34,19.68-18.34,42.68-21.88,67.66,11.97-8.81,36.33-8.58,49.19.02Z"/>
    <path d="m178.38,223.87c.52,2.77,1.06,5.53,1.62,8.3,1.77-2.75,3.68-5.39,5.74-7.9.43,10.55,1.36,21.16,2.95,32.78,6.62.41,13.38.31,20.26-.24,2.14-11.04,4.17-22.03,6.01-32.94-12.38.76-24.91.81-36.58,0Z"/>
    <path d="m195.35,257.28c-2.24-.03-4.46-.1-6.66-.24-1.16,1.06-2.25,2.17-3.3,3.32,0,0,0,0,0,0-3.3,10.59-3.14,21.66-.09,32.57.48,1.73,1.85,3.07,3.64,3.28,1.73.21,3.5.17,5.3-.08,1.59-.22,2.82-1.44,3.15-3.02,2.65-12.58,2.25-24.77-2.05-35.84h0Z"/>
    <path d="m249.36,296.13c-1.8.25-3.57.28-5.3.08s-3.15-1.55-3.64-3.28c-4.24-15.14-2.91-30.59,5.53-44.64,8.35,13.29,9.95,28.74,6.56,44.82-.33,1.57-1.56,2.8-3.15,3.02Z"/>
    <path d="m160.98,296.13c1.78.25,3.54.28,5.26.08,1.77-.21,3.21-1.53,3.61-3.28,3.22-14.38,2.22-31.25-5.97-44.64-8.28,13.29-9.69,30.26-6.02,44.82.39,1.56,1.55,2.8,3.13,3.02Z"/>
    <path d="m109.06,169.37c-.47-4.14,1.09-6.64,3-10.87,2.33,3.23,2.91,7.32,3.03,11.15-2.02-.64-4.14-.52-6.04-.28Z"/>
    <path d="m73.23,175.52c3.32-.48,9.37.2,12.42,4.49-2.84,1.18-6.93,4.09-8.75,5.91-2.68-2.29-5.08-6.62-3.67-10.4Z"/>
    <path d="m19.23,174.66c1.83,2.6,2.43,5.52,3.21,8.79-2.88.74-5.39,2.05-7.54,3.6-.61-4.95.96-9.8,4.33-12.4Z"/>
    <path d="m52.08,188.07c1.87-2.92,4.82-4.91,8.45-6.31.84,4.02.07,7.49-1.48,10.69-2.34-1.96-4.66-3.36-6.97-4.38Z"/>
  </g>
  <g class="sketchDarker">
    <path d="m157.85,293.12c-3.27-12.96-2.51-27.83,3.54-40.31.54-50.63,1.37-101.25,2.55-151.86-6.68-4.02-13.42-7.91-20.25-11.65-.57,69.33-.92,138.65-1.1,207.98,6.13-.25,12.24-.64,18.36-1.14-1.56-.24-2.7-1.46-3.09-3.01Z"/>
    <ellipse cx="110.27" cy="201.13" rx="3.96" ry="2.28" transform="translate(-79.84 72.8) rotate(-27.25)"/>
    <ellipse cx="40.88" cy="216.39" rx="2.28" ry="3.96" transform="translate(-178.85 231.05) rotate(-83.12)"/>
    <ellipse cx="21.04" cy="212.65" rx="2.28" ry="3.96" transform="translate(-192.39 202.13) rotate(-81.53)"/>
    <ellipse cx="125.48" cy="191.68" rx="3.96" ry="2.28" transform="translate(-73.83 78.71) rotate(-27.25)"/>
  </g>
  <g class="sketchDarkest">
    <path d="m134.48,205.51c0,1.25-.28,2.46-.8,3.63-.37.83-1.11,1.43-2,1.6-1.4.27-2.75.18-4.08-.21-.82-.24-1.24-1.16-.9-1.95,1.13-2.65,3.14-4.22,6.24-4.49.83-.07,1.54.59,1.53,1.42Z"/>
    <path d="m30.67,225.77c-2.19-1.31-4.57-1.68-7.13-1.14-.93.2-1.49,1.17-1.15,2.05.59,1.52,1.77,2.58,3.62,3.15,2.09.09,3.71-.47,4.92-1.62.74-.7.61-1.92-.27-2.44Z"/>
  </g>
  <g class="sketchLine">
    <path d="m63.38,285.13c-1.55-.42-3.22-.58-4.89-.49"/>
    <path d="m84.81,293.37c2.61-.76,5.64-.16,7.19,1.04"/>
    <path d="m39.22,291.37c1.27-.08,1.89.03,3.03.48"/>
    <path d="m134.27,222.85c-.59-1.39-1.46-2.66-2.57-3.84"/>
    <path d="m56.17,241.12c-.59-1.78-2.21-3.14-4.31-2.96"/>
    <path d="m3.22,228.21c1.14-.71,2.52-.79,4.12-.26"/>
    <path d="m83.09,280.05c1.29-.53,3.16-.53,4.6,0"/>
    <path d="m43,296.57c2.36-.39,5.31-.2,7.56.6"/>
    <path d="m16.65,281.89c2.17,1.74,5.39,1.63,9,.81"/>
    <line x1="30.25" y1="267.56" x2="26.64" y2="265.86"/>
    <path d="m110.41,264.72c-.13-1-.02-1.82.31-2.7"/>
    <path d="m91.62,264c-1.23-.88-2.13-2.23-2.85-3.85"/>
    <path d="m111.57,294.9c1.3-.13,2.24-.06,3.49.16"/>
    <path d="m86.7,174.93c1.32.89,2.44,1.87,3.25,3"/>
    <path d="m218.88,198.55c1.21-8.75,2.25-17.41,3.08-25.97"/>
    <path d="m170.18,120.3c-.45,8.62-.56,17.4-.35,26.31"/>
    <path d="m223.74,146.64c.35-8.76.4-17.38.1-25.83"/>
    <path d="m171.27,172.56c.74,8.61,1.73,17.28,2.95,25.98"/>
    <path d="m13.73,228.18c-.94-.34-1.49-.63-1.48-.85-3.1-4.66-9.24-2.52-9.03.88-6.53,4.47-.25,14.58,7.8,8,.55.06,1.1.13,1.64.2"/>
  </g>
</svg>