<svg viewBox="0 0 315.22 417.94">
  <g class="paperStackLight">
    <path d="M291.82,391.61a4.62,4.62,0,0,1,3.95,2.24,4.63,4.63,0,1,0-7.91,0A4.62,4.62,0,0,1,291.82,391.61Z"/>
    <path d="M291.2,372.36a4.62,4.62,0,0,1,4,2.23,4.62,4.62,0,1,0-7.92,0A4.62,4.62,0,0,1,291.2,372.36Z"/>
    <path d="M290.74,353.1a4.61,4.61,0,0,1,3.95,2.24,4.55,4.55,0,0,0,.67-2.39,4.62,4.62,0,1,0-8.58,2.39A4.62,4.62,0,0,1,290.74,353.1Z"/>
    <path d="M290.27,333.85a4.62,4.62,0,0,1,4,2.23,4.63,4.63,0,1,0-7.91,0A4.61,4.61,0,0,1,290.27,333.85Z"/>
    <path d="M290,314.6a4.6,4.6,0,0,1,3.95,2.23,4.52,4.52,0,0,0,.67-2.39,4.62,4.62,0,1,0-8.58,2.39A4.62,4.62,0,0,1,290,314.6Z"/>
    <path d="M289.66,295.34a4.64,4.64,0,0,1,4,2.23,4.62,4.62,0,1,0-7.92,0A4.64,4.64,0,0,1,289.66,295.34Z"/>
    <path d="M289.35,276.09a4.62,4.62,0,0,1,4,2.23,4.62,4.62,0,1,0-7.92,0A4.62,4.62,0,0,1,289.35,276.09Z"/>
    <path d="M289.35,256.83a4.62,4.62,0,0,1,4,2.24,4.62,4.62,0,1,0-7.92,0A4.62,4.62,0,0,1,289.35,256.83Z"/>
    <path d="M289,237.58a4.62,4.62,0,0,1,4,2.23,4.62,4.62,0,1,0-8.58-2.39,4.52,4.52,0,0,0,.67,2.39A4.59,4.59,0,0,1,289,237.58Z"/>
    <path d="M289,218.32a4.62,4.62,0,0,1,4,2.24,4.62,4.62,0,1,0-8.58-2.39,4.55,4.55,0,0,0,.67,2.39A4.6,4.6,0,0,1,289,218.32Z"/>
    <path d="M289,199.07a4.62,4.62,0,0,1,4,2.23,4.62,4.62,0,1,0-8.58-2.39,4.5,4.5,0,0,0,.67,2.39A4.59,4.59,0,0,1,289,199.07Z"/>
    <path d="M289,179.81a4.62,4.62,0,0,1,4,2.24,4.62,4.62,0,1,0-8.58-2.39,4.55,4.55,0,0,0,.67,2.39A4.6,4.6,0,0,1,289,179.81Z"/>
    <path d="M289.2,160.56a4.61,4.61,0,0,1,3.95,2.23,4.62,4.62,0,1,0-7.91,0A4.62,4.62,0,0,1,289.2,160.56Z"/>
    <path d="M289.5,141.31a4.62,4.62,0,0,1,4,2.23,4.63,4.63,0,1,0-7.91,0A4.61,4.61,0,0,1,289.5,141.31Z"/>
    <path d="M289.66,122.05a4.64,4.64,0,0,1,4,2.23,4.62,4.62,0,1,0-7.92,0A4.64,4.64,0,0,1,289.66,122.05Z"/>
    <path d="M290,102.8a4.6,4.6,0,0,1,3.95,2.23,4.52,4.52,0,0,0,.67-2.39A4.62,4.62,0,1,0,286,105,4.62,4.62,0,0,1,290,102.8Z"/>
    <path d="M290.43,83.54a4.62,4.62,0,0,1,4,2.24,4.62,4.62,0,1,0-7.92,0A4.62,4.62,0,0,1,290.43,83.54Z"/>
    <path d="M290.89,64.29a4.62,4.62,0,0,1,4,2.23,4.62,4.62,0,1,0-7.92,0A4.62,4.62,0,0,1,290.89,64.29Z"/>
    <path d="M291.51,45a4.61,4.61,0,0,1,3.95,2.24,4.55,4.55,0,0,0,.67-2.39,4.62,4.62,0,1,0-8.58,2.39A4.62,4.62,0,0,1,291.51,45Z"/>
    <path d="M292,25.78a4.62,4.62,0,0,1,4,2.23A4.62,4.62,0,1,0,288,28,4.62,4.62,0,0,1,292,25.78Z"/>
    <path d="M307.19,412.32l-5.06,5.11c-64.07-4.1-221.19-3.79-296-.52L1,411.8C104.17,394.19,206.23,394.14,307.19,412.32Z"/>
  </g>
  <path class="sketchPaperLight" d="M304.75,102.55q-2.94,154.92,2.52,309.84C254.69,407,65.54,407,1.1,411.88,4.93,308.92,2.16,37.94.93,5.51,81.1-1.14,220.5-1,307.44,5Q305.68,53.76,304.75,102.55ZM284.42,237.42A4.62,4.62,0,1,0,289,232.8,4.62,4.62,0,0,0,284.42,237.42Zm.31,19.26a4.62,4.62,0,1,0,4.62-4.62A4.62,4.62,0,0,0,284.73,256.68Zm0,19.25a4.62,4.62,0,1,0,4.62-4.62A4.62,4.62,0,0,0,284.73,275.93Zm.31,19.26a4.62,4.62,0,1,0,4.62-4.62A4.62,4.62,0,0,0,285,295.19Zm.31,19.25a4.62,4.62,0,1,0,4.62-4.62A4.62,4.62,0,0,0,285.35,314.44Zm.3,19.26a4.63,4.63,0,1,0,4.62-4.63A4.62,4.62,0,0,0,285.65,333.7Zm.47,19.25a4.62,4.62,0,1,0,4.62-4.62A4.62,4.62,0,0,0,286.12,353Zm.46,19.25a4.62,4.62,0,1,0,4.62-4.62A4.62,4.62,0,0,0,286.58,372.2Zm.61,19.26a4.63,4.63,0,1,0,4.63-4.62A4.62,4.62,0,0,0,287.19,391.46Zm-1.84-288.82A4.62,4.62,0,1,0,290,98,4.62,4.62,0,0,0,285.35,102.64ZM285,121.9a4.62,4.62,0,1,0,4.62-4.62A4.62,4.62,0,0,0,285,121.9Zm-.16,19.25a4.63,4.63,0,1,0,4.62-4.62A4.62,4.62,0,0,0,284.88,141.15Zm-.3,19.26a4.62,4.62,0,1,0,4.62-4.63A4.62,4.62,0,0,0,284.58,160.41Zm-.16,19.25A4.62,4.62,0,1,0,289,175,4.62,4.62,0,0,0,284.42,179.66Zm0,19.25a4.62,4.62,0,1,0,4.62-4.62A4.62,4.62,0,0,0,284.42,198.91Zm0,19.26a4.62,4.62,0,1,0,4.62-4.62A4.62,4.62,0,0,0,284.42,218.17Zm2.93-192.55A4.62,4.62,0,1,0,292,21,4.62,4.62,0,0,0,287.35,25.62Zm-.46,19.26a4.62,4.62,0,1,0,4.62-4.62A4.62,4.62,0,0,0,286.89,44.88Zm-.62,19.25a4.62,4.62,0,1,0,4.62-4.62A4.62,4.62,0,0,0,286.27,64.13Zm-.46,19.26a4.62,4.62,0,1,0,4.62-4.62A4.62,4.62,0,0,0,285.81,83.39Z"/>
  <g class="steelDark">
    <path d="M293.7,218.14c2.74,1.11,5.28,1.94,8,2.91,3.47,1.25,10.43,3.28,10.1,8.06-.26,3.76-4.86,5.67-8,6.43,0-1,0-1.48,0-2.46,1.93-.45,5.5-1.6,5.77-3.81.36-2.87-3.84-4.37-6-5.21-2.87-1.11-5.93-2-8.87-3.07-4.06-1.28-4.52-4.05-1.75-5.29A4.53,4.53,0,0,1,293.7,218.14Z"/>
    <path d="M293.7,237.4c2.74,1.1,5.28,1.94,8,2.91,3.47,1.24,10.43,3.28,10.1,8.06-.26,3.75-4.71,5.66-7.86,6.42,0-1,0-1.47,0-2.46,1.94-.45,5.35-1.6,5.62-3.8.36-2.88-3.84-4.38-6-5.22-2.87-1.11-5.93-2-8.87-3.06-4.06-1.29-4.52-4.06-1.75-5.29A4.53,4.53,0,0,1,293.7,237.4Z"/>
    <path d="M294,256.8c2.73,1.11,5.28,1.95,8,2.91,3.48,1.25,10.44,3.28,10.11,8.07-.26,3.75-4.8,5.55-7.95,6.3l-.07-2.34c1.93-.45,5.5-1.6,5.77-3.8.36-2.88-3.84-4.38-6-5.22-2.88-1.11-5.93-2-8.87-3.06-4.06-1.29-4.37-4.06-1.59-5.29A4.91,4.91,0,0,1,294,256.8Z"/>
    <path d="M294,276.21c2.73,1.11,5.28,1.94,8,2.91,3.48,1.25,10.44,3.28,10.11,8.06-.26,3.76-4.71,5.67-7.86,6.43,0-1,0-1.48,0-2.46,1.94-.45,5.35-1.6,5.62-3.8.36-2.88-3.84-4.38-6-5.22-2.88-1.11-5.93-2-8.87-3.06-4.06-1.29-4.37-4.22-1.59-5.45A5.1,5.1,0,0,1,294,276.21Z"/>
    <path d="M294.32,295.47c2.73,1.1,5.27,1.94,8,2.91,3.48,1.24,10.44,3.28,10.11,8.06-.26,3.75-4.71,5.67-7.86,6.42,0-1,0-1.47,0-2.46,1.93-.45,5.35-1.6,5.62-3.8.36-2.88-3.85-4.38-6-5.22-2.88-1.1-5.93-2-8.87-3.06-4.06-1.28-4.37-4.06-1.6-5.29A4.44,4.44,0,0,1,294.32,295.47Z"/>
    <path d="M294.63,314.72c2.73,1.11,5.27,1.94,8,2.91,3.48,1.25,10.44,3.28,10.11,8.06-.27,3.76-4.56,5.67-7.71,6.43,0-1,0-1.48,0-2.46,1.94-.45,5.2-1.6,5.47-3.81.35-2.87-3.85-4.37-6-5.21-2.87-1.11-5.92-2-8.86-3.07-4.06-1.28-4.37-4.21-1.6-5.44A5.11,5.11,0,0,1,294.63,314.72Z"/>
    <path d="M294.94,334.28c2.73,1.11,5.27,2,8,2.91,3.47,1.25,10.44,3.28,10.1,8.07-.26,3.75-4.4,5.66-7.55,6.42,0-1,0-1.47,0-2.46,1.94-.45,5-1.6,5.32-3.8.35-2.88-3.85-4.38-6-5.22-2.87-1.11-5.92-2-8.86-3.06-4.06-1.29-4.22-4.21-1.45-5.45A8.11,8.11,0,0,1,294.94,334.28Z"/>
    <path d="M295.4,353.38c2.73,1.11,5.27,1.95,8,2.91,3.48,1.25,10.44,3.28,10.11,8.07-.27,3.75-4.34,5.55-7.49,6.3,0-1,0-1.48,0-2.46,1.93-.45,5-1.48,5.24-3.68.35-2.88-3.85-4.38-6-5.22-2.88-1.11-5.93-2-8.87-3.06-4.06-1.29-4.22-4.06-1.44-5.29A5.13,5.13,0,0,1,295.4,353.38Z"/>
    <path d="M295.86,372.79c2.73,1.11,5.27,1.95,8,2.91,3.48,1.25,10.44,3.28,10.11,8.07-.26,3.75-4.34,5.55-7.49,6.3,0-1,0-1.48,0-2.46,1.93-.45,5-1.48,5.24-3.68.36-2.88-3.85-4.38-6-5.22-2.88-1.11-5.93-2-8.87-3.06-4.06-1.29-4.21-4.22-1.44-5.45A5.8,5.8,0,0,1,295.86,372.79Z"/>
    <path d="M296.48,392.05c2.73,1.1,5.27,1.94,8,2.91,3.47,1.24,10.44,3.28,10.1,8.06-.26,3.75-4.34,5.55-7.49,6.31,0-1,0-1.33,0-2.31,1.94-.45,5-1.64,5.25-3.84.35-2.88-3.85-4.38-6-5.22-2.87-1.1-5.92-2-8.86-3.06-4.06-1.28-4.22-4.21-1.45-5.44A5.63,5.63,0,0,1,296.48,392.05Z"/>
    <path d="M293.7,199c2.74,1.11,5.28,1.94,8,2.91,3.47,1.25,10.43,3.28,10.1,8.06-.26,3.76-5,5.67-8.16,6.43,0-1,0-1.48,0-2.46,1.93-.45,5.65-1.6,5.92-3.81.36-2.87-3.84-4.38-6-5.21-2.87-1.11-5.93-2-8.87-3.07-4.06-1.28-4.37-4-1.59-5.29A5.4,5.4,0,0,1,293.7,199Z"/>
    <path d="M293.7,179.63c2.74,1.11,5.28,1.94,8,2.91,3.47,1.25,10.43,3.28,10.1,8.06-.26,3.76-5,5.67-8.16,6.43,0-1,0-1.48,0-2.46,1.93-.45,5.65-1.6,5.92-3.8.36-2.88-3.84-4.38-6-5.22-2.87-1.11-5.93-2-8.87-3.06-4.06-1.29-4.52-4.06-1.75-5.29A4.49,4.49,0,0,1,293.7,179.63Z"/>
    <path d="M293.86,160.38c2.73,1.1,5.27,1.94,8,2.91,3.48,1.24,10.44,3.28,10.11,8.06-.27,3.75-5,5.67-8.17,6.42,0-1,0-1.47,0-2.45,1.93-.46,5.66-1.61,5.93-3.81.35-2.88-3.85-4.38-6-5.22-2.87-1.1-5.92-2-8.86-3.06-4.06-1.28-4.53-4.06-1.75-5.29A4.61,4.61,0,0,1,293.86,160.38Z"/>
    <path d="M294.17,141c2.73,1.11,5.27,1.94,8,2.91,3.47,1.24,10.44,3.28,10.1,8.06-.26,3.76-5.17,5.67-8.32,6.43,0-1,0-1.48,0-2.46,1.94-.45,5.81-1.6,6.09-3.81.35-2.87-3.85-4.38-6-5.21-2.87-1.11-5.92-2-8.86-3.07-4.07-1.28-4.68-4.06-1.91-5.29A3.7,3.7,0,0,1,294.17,141Z"/>
    <path d="M294.32,121.71c2.73,1.11,5.27,2,8,2.91,3.48,1.25,10.44,3.28,10.11,8.07-.26,3.75-5.17,5.66-8.32,6.42,0-1,0-1.47,0-2.46,1.93-.45,5.81-1.6,6.08-3.8.36-2.88-3.85-4.38-6-5.22-2.88-1.11-5.93-2-8.87-3.06-4.06-1.29-4.68-4.06-1.9-5.29A4.23,4.23,0,0,1,294.32,121.71Z"/>
    <path d="M294.63,102.31c2.73,1.1,5.12,1.94,7.82,2.91,3.47,1.24,10.43,3.28,10.1,8.06-.26,3.75-5,5.66-8.16,6.42,0-1,0-1.47,0-2.46,1.93-.45,5.65-1.6,5.92-3.8.36-2.88-3.84-4.38-6-5.22-2.87-1.1-5.93-2-8.87-3.06-4.06-1.29-4.52-4.06-1.75-5.29A6.54,6.54,0,0,1,294.63,102.31Z"/>
    <path d="M295.09,83.21c2.73,1.1,5.27,1.94,8,2.91,3.48,1.24,10.44,3.28,10.11,8.06-.26,3.75-5.33,5.66-8.48,6.42,0-1,0-1.47,0-2.46,1.94-.45,6-1.6,6.24-3.8.36-2.88-3.85-4.38-6-5.22C302,88,299,87.12,296,86.06c-4.06-1.29-4.68-4.06-1.9-5.29A3.45,3.45,0,0,1,295.09,83.21Z"/>
    <path d="M295.55,64c2.73,1.11,5.28,1.94,8,2.91,3.47,1.25,10.43,3.28,10.1,8.06-.26,3.76-5.32,5.67-8.47,6.43,0-1,0-1.48,0-2.46,1.93-.45,6-1.6,6.23-3.81.36-2.87-3.84-4.37-6-5.21-2.88-1.11-5.93-2-8.87-3.07-4.06-1.28-4.67-4-1.9-5.29A3.76,3.76,0,0,1,295.55,64Z"/>
    <path d="M296.17,44.7c2.73,1.1,5.27,1.94,8,2.91,3.48,1.24,10.44,3.28,10.11,8.06-.26,3.75-5.48,5.67-8.63,6.42,0-1,0-1.47,0-2.46,1.93-.45,6.12-1.6,6.39-3.8.35-2.88-3.85-4.38-6-5.22-2.88-1.1-5.93-2-8.87-3.06-4.06-1.28-4.52-4.06-1.75-5.29A4.61,4.61,0,0,1,296.17,44.7Z"/>
    <path d="M296.63,25.44c2.73,1.11,5.27,1.94,8,2.91,3.48,1.25,10.44,3.28,10.11,8.06-.26,3.76-5.48,5.67-8.63,6.43,0-1,0-1.48,0-2.46,1.93-.45,6.12-1.6,6.39-3.8.36-2.88-3.85-4.38-6-5.22-2.88-1.11-5.93-2-8.87-3.06-4.06-1.29-4.52-4.06-1.75-5.29A4.58,4.58,0,0,1,296.63,25.44Z"/>
  </g>
  <g class="blueDisplayLine">
    <path d="M305.21,75.78C234.36,72,74.93,72.45,2.39,76"/>
    <path d="M304.75,94.74C235.44,91.55,79.07,92.61,2.55,95"/>
    <path d="M304.44,113.71c-66.85-2.44-225.22-2.13-301.73.27"/>
    <path d="M304.13,132.68C237.9,131,79.3,130.56,2.86,133"/>
    <path d="M303.82,151.64c-69.15-2.17-224.6-2.11-301,.28"/>
    <path d="M303.67,170.6c-65-1.57-224.29-2.09-300.65.3"/>
    <path d="M303.67,189.57c-71.16-2-224.18-2.09-300.5.29"/>
    <path d="M303.51,208.54c-64.22-2.23-224.06-2.09-300.34.29"/>
    <path d="M303.51,227.51c-58.21-2.56-224-2.09-300.34.28"/>
    <path d="M303.67,246.48c-61.61-2.12-224.18-2.08-300.5.28"/>
    <path d="M303.82,265.45c-61.45-2.3-224.29-2.08-300.65.28"/>
    <path d="M304,284.43c-66.54-2-224.3-2.09-300.82.26"/>
    <path d="M304.29,303.4c-58.84-1.59-224.77-2.09-301.28.26"/>
    <path d="M304.6,322.37C247,320.29,79.52,320.28,3,322.62"/>
    <path d="M305.06,341.34c-58.53-1.64-225.58-2.09-302.21.25"/>
    <path d="M305.53,360.3c-52.07-1.8-245.54-2.53-303,.25"/>
    <path d="M306,379.27c-77-3.06-225.51-2.29-303.76.25"/>
  </g>
  <path class="redDisplayLine" d="M54.91,2.53c.54,80.16.84,326.71.08,406.87"/>
</svg>
