<svg viewBox="0 0 277.46 250.67">
  <g class="sketchLightest">
    <path d="m196.26,145.54c6.88,3.88,14.07,7.41,21.35,10.51.04.14.07.28.1.42-.15-.71-.41-1.39-.86-2.1-1.06-1.72-12.68-14.05-18.61-23.45-.79.54-1.65.98-2.6,1.29.07,3.8.34,8.87.68,14.43-.02-.37-.05-.74-.07-1.1Z"/>
    <path d="m195.01,105.25c-2.14,2.61-4.63,4.62-7.44,6.05-.1,1.35-.07,2.94.04,4.68.03-.04.07-.07.1-.11,6.85.28,12.1,2.88,15.09,8.78-.17.44-.35.87-.54,1.29,1.11,1.63,2.22,3.24,3.33,4.83-.1-.8-.1-1.63.04-2.51-3.63-7.73-8.58-15.89-10.63-23.01Z"/>
    <path d="m167.84,97.5c0-.94.07-1.75.12-2.55-1.96,1.39-3.89,3.15-5.73,5.31-1.83,2.09-3.91,4.03-6.04,5.6.15-5.42-1.91-10.87-6.2-14.69-8.75-7.81-21.19-6.15-29.66,4.34-1.07,1.22-2.1,2.34-3.13,3.34-1.64,4.61-5.33,8.28-10.4,9.48,0,1.27.1,2.57.31,3.89,1.31.07,2.38-.19,3.83-.38,3.92-.59,7.16,2.34,9.48,6.27,2.98-3.15,5.65-6.38,7.98-9.67v1.04-7.81c0-2.44,4.64-2.38,4.64,0v16.95h14.31v-16.95c0-2.44,4.64-2.38,4.64,0v6.77c3.41,4.82,7.57,9.52,12.32,14.03,2.76-3.61,6.5-5.92,11.48-6.6.26-1.54.45-3.15.49-4.46-5.35-3.44-8.59-9.18-8.46-13.9Z"/>
    <path d="m44.86,162.73c2.42-4.74,7.16-9.16,12.43-8.62,2.59.42,4.82-.19,7.13-1.78,2.39-1.79,4.78-4.11,7.16-6.74-.36-.35-.66-.7-.86-1.03,2.6-4.58,4.89-8.91,6.3-12.54,1.97-4.81,3.85-9.9,7-14.56,2.1-2.94,5.42-4.73,9.7-5.61.48-1.64.74-3.32.74-5.06-1.18-.62-2.28-1.36-3.28-2.21-.13.14-.27.28-.4.43-4.41,5.04-7.76,7.46-12.87,6.78,0,0,4.53-9.24-3.94-16.52-6.78-5.83-16.14-4.95-22.59,3.04-3.73,4.47-8.54,6.69-10.19,7-8.44-5.14-19.17-2.63-26.73,6.73-3.94,4.51-7.49,7.86-11.64,8.76v49.26c12.42.12,27.05-2.56,42.02-7.34Z"/>
    <path d="m75.23,150.3c3.27-1.64,6.49-3.36,9.64-5.16.59-5.15,1.35-10.85,2.12-15.64-1.83,6.93-4.77,12.83-8.57,19.16-.35.02-.73-.01-1.12-.09-.69.59-1.38,1.16-2.06,1.73,0,0,0,0,0,0Z"/>
    <path d="m270.1,96.82c-9.37-8.36-23.07-4.65-32.12,6.58-2.16,2.47-4.06,4.16-5.95,5.24,5.25-6.81,4.64-17.26-1.88-23.08-6.1-5.44-14.26-5.48-21.05-.61.7,2.98.92,6.09.54,9.14-.76,4.35-3.09,7.1-6.31,9.45,1.84,8.28,4.8,15.51,8.2,22.39,5.61,2.25,6.09,6.57,4.11,13.82-1.83-.41-3.58-1.1-5.11-2.04,3.6,4.94,7.25,9.6,11.03,13.79,1.79,1.79,3.94,2.64,6.06,3.13,4.04,1.07,6.51,4.03,7.82,8.06,14.77,4.73,29.21,7.41,41.52,7.38v-57.6c.05-5.77-2.23-11.52-6.85-15.65Z"/>
    <path d="m77.73,72.96c1.04-5.3,3.91-9.77,8.49-12.39,6.33-3.6,14.87-3.36,23.2-1.23,4.97,1.45,8.8,4.1,10.99,8.13,4.31,1.03,8.69,2.36,13.01,3.86-2.16-5.67-4.97-11.68-8.53-18.16-6.63-12.26-15.23-22.63-27.37-27.63-15.62-6.96-33.04-7.68-47.85-4.09-7.98,1.76-13.03,5.98-17.48,12.1-7.08,9.59-13.37,21-18.28,33.28,10.99-2.94,22.48-1.15,34.36,4.36,10.77,4.22,20.09,4.54,29.47,1.78Z"/>
    <path d="m169.93,54.57c17.29-8.07,35.28-7.35,54.48-.35,14.46,6.34,29.9,4.9,45.79-.05-2.02-7.3-4.68-14.52-8.11-21.67-6.3-14.88-14.81-25.51-27.72-29.08-16.18-4.2-32.44-4-49.15,1.39-12.99,4.36-22.95,12.52-29.44,24.34-4.85,8.43-9.43,18.86-13.62,30.39,8.1,1.71,17.62-.23,27.77-4.98Z"/>
    <path d="m166.85,157.55c-1.82,6.06-1.88,13.66-1.13,21.96-2.73,5.47-6.1,16-5.51,17.09.86,4.34,10.37,6.15,13.27,4.2,2.87-4.48,4.65-9.19,6.17-13.64.95-2.53,1.28-5.6,1.86-9.26,1.37,11.14,1.82,25.93,3.44,35.05,1.04,1.23,4.43,1.42,7.72,1.7,2.2-1.79,4.78-2.53,7.74-2.19-1.83-20.93-2.45-40.61-4.29-53.99-5.55,2.67-23.49,3.51-29.28-.93Z"/>
  </g>
  <g class="sketchLighter">
    <path d="m179.79,77.98c-3.53,4.85-7.49,8.37-11.72,9.96.27,1.77.23,3.45-.09,5.02-2.81-2.46-4.64-5.44-4.15-10.29.8-6.91,3.55-11.84,12.68-15.13,7.1-2.37,18.68-2.1,24.6,3.36,5.93,5.62,9.6,14.6,8.52,23.19-.76,4.35-3.09,7.1-6.31,9.45,1.84,8.28,4.8,15.51,8.2,22.39,5.61,2.25,6.09,6.57,4.11,13.82-5.82-1.3-10.95-5.47-9.99-11.5-3.63-7.73-8.58-15.89-10.63-23.01.84-.91,1.73-2.08,2.2-3.7,2.69.94,5.23-.97,5.49-4.7.28-3.29-1.73-4.88-5.03-3.11-8.11-2.47-14.18-7.91-17.88-15.75Z"/>
    <path d="m159.37,145.75c2.1,3.65,4.45,7.37,7.02,11.12,1.7-9.36,3.11-18.17,3.24-24.6-.46-.31-.9-.64-1.33-.98-2.71,5.19-5.68,10.02-8.92,14.46Z"/>
    <path d="m224.64,164.43c.24,1.06.32,2.13.26,3.37-.18,1.87-2.87,2.83-4.11,1.03-1.36-2.11-2.67-4.97-2.98-7.34-7.34-3.32-14.48-7.05-21.25-11.12.16,2.48.33,5.03.5,7.57-.25.19-.56.37-.92.54,1.33,9.69,2.02,22.67,3,37.04,24.33,24.1,53.35,45.14,77.82,54.21v-71.97c-17.06-1.53-35.11-6.27-52.31-13.33Z"/>
    <path d="m84.09,159.58c-.08-.1-.15-.2-.21-.3-.17-1.22.04-4.73.47-9.22-6.98,4.22-14.34,8.08-21.92,11.5-.69,2.6-2.42,4.6-5.07,5.83-1.89.79-3.33-.48-2.49-2.6-17.14,6.94-35.08,11.56-52.02,13.01v72.14c23.31-8.47,50.82-27.92,74.51-50.61,1.57-10.63,3.94-25.59,6.74-39.76Z"/>
    <path d="m115.8,130.82c-.15,7.6.44,17.28.5,22.65,2.09-3.2,4.01-6.36,5.74-9.47-2.3-3.92-4.36-8.35-6.24-13.17h0Z"/>
    <path d="m128.41,110.69c-2.11,3.09-4.48,6.14-7.07,9.13,2.14,4.34,2.97,7.87,4.61,11.63.31.77.7,1.61,1.13,2.48,2.36-5.38,4.05-10.52,4.95-15.31h-3.61v-7.93Z"/>
    <path d="m162.47,125.35c.2-.38.42-.75.64-1.1-4.21-4.38-7.94-8.92-11.11-13.56v7.93h-3.61c1.22,6.54,3.92,13.73,7.79,21.28,2.54-4.01,5.05-8.38,7.52-12.97-.43-.51-.84-1.03-1.23-1.58Z"/>
    <path d="m107.12,112.22c-4.78,2.14-9.29,2.4-13.39-.38-4.28.88-7.6,2.68-9.7,5.61-3.15,4.66-5.02,9.75-7,14.56-1.42,3.63-3.71,7.97-6.3,12.54,1.13,1.89,5.23,4.22,7.69,4.1,3.81-6.33,6.75-12.23,8.57-19.16,2.43-4.34,4.73-8.18,7.56-12.1,2.4,1.45,8.45,1.32,11.91-.25,2.08,4.66,5.8,10.78,9.33,13.68,2.68,6.88,5.73,12.97,9.33,17.9,2.65.69,7.19-3.4,6.89-5.3-1.41-3.03-4.56-8.26-6.07-11.98-1.77-4.03-2.58-7.82-5.11-12.61-2.34-4.29-5.74-7.63-9.9-7-1.45.19-2.52.44-3.83.38Z"/>
  </g>
  <g class="sketchMiddle">
    <path d="m196.56,150.37c6.78,4.07,13.91,7.8,21.25,11.12-.07-.58-.09-1.12-.03-1.62.12-1.47.15-2.67-.17-3.82-7.28-3.09-14.47-6.62-21.35-10.51.1,1.57.2,3.18.3,4.82Z"/>
    <path d="m235.43,162.69s0,0,0,0c-.03,0-.06-.02-.08-.03-.15-.05-.3-.1-.45-.15-3.07-.97-6.05-2.01-8.95-3.13-1.18-.09-2.83.87-2.1,2.62.35.85.62,1.63.79,2.42,17.2,7.06,35.26,11.79,52.31,13.33v-7.69c-12.32.02-26.76-2.66-41.52-7.38Z"/>
    <path d="m75.23,150.3c-3.4,2.8-6.78,5.3-10.14,7.37-1.68.95-2.45,2.17-2.58,3.58-.02.11-.05.21-.08.31,7.58-3.42,14.94-7.28,21.92-11.5.15-1.55.33-3.21.52-4.93-3.15,1.8-6.37,3.52-9.64,5.16Z"/>
    <path d="m55.47,163.69c2.11-3.23.81-4.92-1.76-4.02-.03,0-.06.02-.08.03-2.64.98-5.29,1.9-7.93,2.76-.28.09-.57.18-.84.27,0,0,0,0,0,0-14.97,4.78-29.6,7.46-42.02,7.34v7.75c16.94-1.45,34.89-6.08,52.02-13.01.14-.35.34-.72.61-1.11Z"/>
    <path d="m128.41,108.44c-2.32,3.29-5,6.52-7.98,9.67.14.24.28.48.41.73.17.33.34.66.5.98,2.59-2.99,4.95-6.04,7.07-9.13v-2.25Z"/>
    <path d="m152,108.44v2.25c3.17,4.64,6.9,9.18,11.11,13.56.38-.62.79-1.21,1.22-1.78-4.75-4.51-8.92-9.21-12.32-14.03Z"/>
    <path d="m147.36,118.62h4.64v-16.95c0-2.38-4.64-2.44-4.64,0v16.95Z"/>
    <path d="m128.41,118.62h4.64v-16.95c0-2.38-4.64-2.44-4.64,0v16.95Z"/>
    <path d="m121.55,193.99c-.1-2.87-2.76-6.82-5.93-10.19.69-6.02.92-12.16.99-18.48.1-3.54-.32-5.65-.96-7.9-2.3,1.13-3.68,3.42-6.79,5.08-7.86,4.23-22,.62-24.77-2.91-4.01,20.38-7.16,42.38-8.32,50.81,2.98-.48,6.1.32,8.15,2.18,3.51.2,6.98-.25,8.71-1.68,1.17-7.09,3.45-16.15,4.95-23.95,2.04,5.29,5.07,10.57,9.53,14.81,5.36,3.23,15.04-.52,14.44-7.78Z"/>
    <path d="m202.8,124.64c-1.37,3.69-3.73,6.45-7.16,7.57.11,6.28.77,15.99,1.41,25.73-4.21,3.17-25.23,4.42-30.72-.82,1.72-9.45,3.16-18.36,3.28-24.86-2.83-1.95-5.23-4.24-7.15-6.92,2.85-5.26,7.13-8.63,13.34-9.48,2.61,3.06,9.27,3.06,11.9,0,6.85.28,12.1,2.88,15.09,8.78Z"/>
    <path d="m132.02,143.42c.09.59-.28,1.39-.92,2.19,1.51,3.44,3.19,6.68,4.9,9.95,2.44-.94,5.62-1.19,8.15-.18,3.37-4.31,6.7-8.45,9.98-12.34.69-1.02,1.37-2.07,2.05-3.14-3.87-7.55-6.57-14.74-7.79-21.28h-16.37c-.9,4.79-2.58,9.93-4.95,15.31,1.62,3.32,3.83,7.1,4.95,9.49Z"/>
    <path d="m199.13,195.52c.37,5.48.79,11.17,1.29,16.95,5.33.77,8.02,3.79,8.66,8.55.27,2.45-.96,4.47-2.93,5.17-7.84,2.32-18.48.04-21.15-3.55-2.01-2.77-1.69-7.17.27-10.18-.05-.05-.09-.09-.13-.14-1.62-9.12-2.24-23.28-3.62-34.42-.58,3.66-.91,6.72-1.86,9.26-1.52,4.44-3.29,9.14-6.16,13.61.67,2.66.8,5.48.3,8.49-.79,3.55-2.99,5.82-6.24,6.32-4.22.5-7.43-.71-8.99-4.67-1.58-4.11-.37-9.43,1.7-14.47-.08-.24-.14-.48-.18-.73.83-5.32,2.89-10.74,5.62-16.2-.74-8.3-.68-15.9,1.13-21.96-.18-.14-.35-.28-.51-.44.02-.08.03-.17.05-.25-2.57-3.75-4.91-7.47-7.02-11.12-.38.52-.76,1.04-1.15,1.55-3.65,4.5-7.77,8.88-11.37,11.74.03.26-.08.75-.54,1.09h0c2.84,3.9,2.33,10.48,0,13.26-1.66,1.94-3.4,2.51-5.71,2.62-3.1.06-7.09-1.74-7.6-3.66-3.42-5.19-4.05-9.85-.85-13.89-2.12-3.14-4.14-6.37-6.03-9.68-.34.04-.67.02-.97-.06-1.08-1.48-2.1-3.06-3.09-4.73-1.74,3.11-3.66,6.28-5.74,9.47.02,1.85-.02,3.19-.18,3.75-.16.06-.32.13-.47.21.64,2.25,1.06,4.36.96,7.9-.08,6.32-.31,12.46-.99,18.48,3.02,3.22,5.56,7.28,5.87,10.13,1.47,1.63,2.28,3.68,2.39,6.45.21,4.86-.21,10.33-2.53,14.71-2.33,4.17-5.82,6.23-10.26,5.61-3.08-.55-5.68-2.26-6.36-4.99-1.07-4.32.52-9.13,2.35-13.97-4.45-4.24-7.47-9.51-9.51-14.79-1.5,7.8-3.78,16.86-4.95,23.95,1.77,1.59,2.02,3.58,1.98,7.06-.14,2.81-1.51,4.17-3.63,5.34-8.55,4.1-18.27,4.52-22.03,1.44-4.52-3.69.48-13.41,6.83-14.34.35-2.57.89-6.39,1.58-11.05-23.69,22.69-51.21,42.14-74.51,50.61h274.12v-.23c-24.48-9.07-53.49-30.1-77.82-54.21Z"/>
  </g>
  <g class="sketchDarker">
    <path d="m123.88,200.38c-.11-2.73-.9-4.77-2.34-6.39.59,7.25-9.08,11-14.44,7.77-.87,1.8-3.87,10.04-2.38,13.94.94,2.66,3.28,4.45,6.36,4.99,4.45.62,7.94-1.44,10.26-5.61,2.33-4.38,2.74-9.85,2.53-14.71Z"/>
    <path d="m92.62,210.9c-1.72,1.43-5.2,1.87-8.71,1.68-2.04-1.85-5.17-2.66-8.15-2.18-6.35.93-11.34,10.64-6.83,14.34,3.76,3.08,13.48,2.67,22.03-1.44,2.12-1.16,3.49-2.53,3.63-5.34.04-3.49-.21-5.47-1.98-7.06Z"/>
    <path d="m209.09,221.02c-.65-4.77-3.34-7.79-8.66-8.55-2.96-.34-5.54.4-7.74,2.19-3.28-.28-6.68-.47-7.72-1.7-1.69,2.98-1.87,7.06.03,9.69,2.67,3.59,13.31,5.87,21.15,3.55,1.97-.7,3.21-2.72,2.93-5.17Z"/>
    <path d="m173.49,200.81c-2.91,1.95-12.41.14-13.27-4.2-2.03,5-3.19,10.25-1.63,14.32,1.56,3.96,4.77,5.17,8.99,4.67,3.25-.51,5.45-2.77,6.24-6.32.5-3.01.37-5.83-.3-8.49,0,0-.01.02-.02.03Z"/>
    <path d="m14.47,112.04c7.56-9.37,18.29-11.87,26.73-6.73,1.66-.32,6.46-2.53,10.19-7,6.45-7.99,15.81-8.87,22.59-3.04,8.47,7.28,3.94,16.52,3.94,16.52,5.11.68,8.45-1.74,12.87-6.78.13-.15.27-.29.4-.43h0c-2.4-2.03-4.21-4.65-5.05-7.59-.85-.46-1.57-1.14-2.1-2.13-4.81-3.33-6.75-10.21-6.75-17.06-.01-1.66.14-3.28.44-4.83-9.37,2.76-18.7,2.44-29.47-1.78-11.88-5.51-23.37-7.3-34.36-4.36-6.86,17.13-11.06,35.97-11.06,53.97,4.14-.9,7.69-4.25,11.64-8.76Z"/>
    <path d="m276,86.8c-.95-11.02-1.83-20.59-5.81-32.62-15.89,4.95-31.33,6.39-45.79.05-19.2-7-37.18-7.71-54.48.35-10.15,4.75-19.67,6.69-27.77,4.98-2.23,6.13-4.34,12.65-6.26,19.06-.7-2.37-1.52-4.79-2.46-7.28-4.32-1.51-8.71-2.83-13.01-3.86,1.51,2.78,2.23,6.22,2.02,10.37-.16,2.47-1.79,3.97-4.02,4.46-.67,2.71-.84,5.48-.42,8.6.41,2.94.04,5.84-.97,8.41.06-.15.12-.31.18-.47,1.03-1,2.07-2.12,3.13-3.34,8.46-10.49,20.9-12.15,29.66-4.34,4.28,3.82,6.35,9.27,6.2,14.69,2.12-1.57,4.21-3.5,6.04-5.6,1.84-2.16,3.76-3.92,5.73-5.31.04-.65.06-1.29.02-1.98-2.81-2.46-4.64-5.44-4.15-10.29.8-6.91,3.55-11.84,12.68-15.13,7.1-2.37,18.68-2.1,24.6,3.36,3.82,3.62,6.7,8.64,7.98,14.05,0,0,0,0,0,0,6.79-4.88,14.95-4.84,21.05.61,6.52,5.82,7.14,16.27,1.88,23.08,1.89-1.08,3.79-2.77,5.95-5.24,9.06-11.23,22.76-14.94,32.12-6.58,4.43,3.95,6.7,9.39,6.85,14.9-.09-6.87-.32-16.52-.95-24.92Z"/>
    <ellipse cx="111.85" cy="87.66" rx="2.66" ry="1.75" transform="translate(13.48 190.22) rotate(-84.28)"/>
    <ellipse cx="101.2" cy="87.66" rx="2.66" ry="1.75" transform="translate(3.89 179.62) rotate(-84.28)"/>
  </g>
  <path class="sketchDarkest" d="m100.91,71.78c1.32,8.65,10.07,10.64,17.5,10.51,2.17-.04,3.81-1.31,4.02-4.46.54-10.17-4.6-16.05-13-18.49-8.33-2.13-16.87-2.37-23.2,1.23-5.93,3.39-8.98,9.86-8.94,17.22,0,6.85,1.94,13.72,6.75,17.06-1.34-2.5-1.9-5.65-.22-7.29,1.3-1.16,3.1-1.16,4.09.47.69.05,1.36.04,2.02,0,.7-2.96,1.54-5.57,2.69-7.4,4.76-.16,7.07-3.07,8.29-8.85Z"/>
  <g class="sketchLine">
    <path d="m84.58,116.74c-7.46-5.48-15.31-4.21-23.41,3.62-3.18,3.22-7.11,4.4-11.04,4.51"/>
    <path d="m79.23,127.15c-3.73-3.79-9.52-3.33-13.64.01-5.71,4.65-6.78,13.22-2.11,17.96,1.51,1.53,3.31,2.68,5.27,3.44"/>
    <path d="m68.8,134.95c.88,2.7,3.17,3.46,5.42,3.17"/>
    <path d="m211.32,125.53c.68-1.52,1.64-2.91,2.83-4.05,3.88-3.69,11.44-4.5,15.32-.81,3.1,2.95,2.89,8.35-.22,11.31-2.48,2.36-6.28,3.38-8.76,1.01-1.98-1.89-1.56-4.75.42-6.64"/>
    <path d="m206.7,114.88c8.36-8.14,19.71-9.21,27.86-2.37s8.26,19.49.69,26.7c-6.06,5.77-15.88,5.97-21.94.2-.19-.18-.38-.37-.55-.57"/>
    <path d="m199.85,120.52c.51-.2,1.01-.44,1.53-.75"/>
    <path d="m122,116.42c.99-5.63-.61-11.72-5.61-15.66"/>
    <path d="m114,112.09c-.26-1.31-.85-2.53-1.79-3.48-.62-.63-1.35-1.12-2.15-1.48"/>
    <path d="m254.64,112.16c-2.12,2.15-2.79,5.2-.67,7.36,2.66,2.69,6.58,2.1,9.24-.59,3.32-3.37,3.4-10.32.08-13.68-4.15-4.21-12.34-3.12-16.49,1.08-5.19,5.26-5.49,15.9-.3,21.16,6.48,6.57,17.86,6.34,24.34-.23,4.03-4.08,6.07-9.44,6.12-14.78"/>
    <path d="m77.02,113.5c.35-.56.65-1.13.91-1.71"/>
    <path d="m67.95,109.61c2.11-2.18,2.38-4.7.64-6.82-1.53-1.87-6.54-2.91-9.57,0-3.28,3.14-2.81,10.21-.07,12.81,1.34,1.27,2.84,2.22,4.4,2.82"/>
    <path d="m41.21,105.31c12.03,8.33,11.18,22.93,3.61,30.6-6.06,6.14-15.88,6.36-21.94.22-4.85-4.91-4-14.18.85-19.09,3.88-3.93,11.44-4.79,15.32-.86,3.1,3.14,2.89,8.89-.22,12.04-2.48,2.52-6.28,3.59-8.76,1.08-1.98-2.01-1.56-5.06.42-7.07"/>
    <path d="m129.63,100.04c3.91-3.7,10.41-4.03,14.21-.19,3.1,3.14,3.53,8.46.43,11.6-2.48,2.52-5.85,2.95-8.33.43-1.98-2.01-1.56-4.63.42-6.64"/>
    <path d="m125.38,112.18c-.41-3.76.7-7.8,3.03-10.79"/>
    <path d="m156.19,105.85c-.06,2.19-.48,4.38-1.27,6.46"/>
    <path d="m189.02,110.48c-.05,1.68-.55,3.35-1.46,4.74"/>
    <path d="m167.66,119.12c-2.12-6.2.39-10.19,3.08-13.04"/>
    <path d="m197.93,112.79c-.22,1.81-.68,3.59-1.38,5.27"/>
    <path d="m212.98,110.21c-.47-.37-.93-.77-1.35-1.2-4.22-4.28-3.48-10.84.74-15.12,3.38-3.43,9.41-2.93,12.49.77,1.55,1.86,1.45,5.16-.52,7.02-2.76,2.61-6.3,1.45-7.95-.93"/>
    <path d="m232.03,108.64c-.34.43-.88,1-1.25,1.36"/>
    <path d="m135.89,78.62c-.79,2.71-1.46,5.39-2.05,8.07"/>
    <path d="m107.43,91.34c3.54,1.41,1.92,5.56-1.92,4.55"/>
    <path d="m109.65,100.23c-2.42.92-4.88,1.21-7.38.91"/>
    <path d="m187.35,93.36c-1.62-1.31-4.34-1.92-6.47-.81"/>
    <path d="m176.14,92.35c-1.41-1.52-3.74-1.41-5.56-.71"/>
    <path d="m180.08,99.52c-2.93,1.01-5.46-.4-4.95-2.53"/>
    <path d="m181.9,105.08c-2.41.71-4.6.62-6.47-.61"/>
    <path d="m187.57,111.29c-4.01,1.68-7.78,1.79-11.27.11"/>
    <path d="m106.81,108.33c-4.4,1.13-8.51.6-12.34-1.54"/>
    <path d="m86.14,96.98c1.13.16,2.09-.15,2.83-1"/>
    <path d="m197.21,101.54c-.64-.31-1.16-.68-1.59-1.09"/>
    <path d="m144.15,155.38c1.79.77,2.6,2.03,2.69,3.66"/>
    <path d="m181.52,177.91c.35-2.87.58-5.61.63-8.15"/>
    <path d="m192.68,214.66c-.86.76-1.39,1.43-1.63,2.31"/>
    <path d="m97.57,186.95c-.66-4.62-.36-10.41.2-16.53"/>
    <path d="m83.92,212.57c.96,1,1.52,2.06,1.85,3.06"/>
    <path d="m195.64,132.21c-.13-1.93-.1-3.19-.59-4.32"/>
    <path d="m169.62,132.26c0-.93.32-2.95.71-3.89"/>
    <path d="m115.8,130.82c.03-1.77.02-3.42-.08-4.7"/>
    <line x1="86.99" y1="129.49" x2="87.57" y2="125.72"/>
    <path d="m165.72,179.52c.15,1.28.37,2.52.74,3.65"/>
    <path d="m115.62,183.8c-.14,1.17-.37,2.21-.67,3.11"/>
    <path d="m92.62,80.64c-1.42-.06-2.67-.12-3.59-.21"/>
    <path d="m195.27,106.12c3.09,1.56,6.35,2.83,9.75,3.84-1,3.03-2.51,5.76-4.44,8.25,2.6,1.05,5.48,1.89,8.53,2.59-.6,2.4-1.87,4.9-3.48,7.45,1.95.45,4.63-.8,5.89-2.32-3.01-.68-5.82-1.55-8.35-2.67,1.72-2.22,3.08-4.61,3.94-7.28-3.47-1.03-6.66-2.38-9.53-4.04,2.1-2.22,4.04-5.01,5.74-8.41"/>
    <path d="m146.3,160.13c-1.74.95-2.9.15-6.6-.76-3.64-.9-6.35.43-6.15,3.22.45,2.93,3.87,2.62,6.33,1.95,3.57-.91,5.26.63,5.11,3.37-.3,2.64-4.34,2.77-6.42,1.89-6.25-2.65-5.59,2.54-5.59,2.54"/>
    <path d="m136,155.56c-1.52.62-3,1.73-3.86,2.9"/>
  </g>
</svg>