<svg viewBox="0 0 315.9 264.38">
  <path class="skyMedium" d="M289.59,99.82c35.93,13.18,34.34,91.03-4.79,105,3.19,31.14-45.91,57.09-71.47,37.93-19.16,27.15-85.04,27.95-110.2,2.42-38.33,23.93-107.8-33.96-83.44-76.28C-9.45,148.53-3.86,87.44,29.28,74.67c-5.19-28.75,26.75-56.69,58.29-45.12,21.96-39.53,94.22-37.93,114.59,0,41.52-30.34,105,23.16,87.44,70.27Z"/>
  <path class="meadowNear" d="M314.8,156.47c-62.43-2.78-124.92-3.91-187.41-3.39v106.25c30.09,9.53,71.19,4.06,85.66-16.44,25.55,19.16,74.66-6.79,71.47-37.93,18.33-6.55,28.43-27.12,30.28-48.49Z"/>
  <path class="sandMediumLight" d="M127.39,153.08c-39.85,.37-79.69,1.41-119.5,3.12,2.94,5.1,6.77,9.51,11.52,12.83-24.35,42.32,45.12,100.21,83.44,76.28,6.16,6.25,14.77,10.93,24.54,14.02v-106.25Z"/>
  <path class="earthMediumDark" d="M213.05,242.9c23.45,17.58,66.72-2.82,71.23-30.36-39.56-29.37-85.41-49.09-133.56-59.58-13.84,.04-27.67,.15-41.51,.34-4.16,16.51-18.26,28.28-32.41,36.43-17.46,10.06-37.02,16.12-56.65,20.4,15.11,29.34,56.29,51.68,82.69,35.19,25.15,25.53,91.03,24.73,110.2-2.42Z"/>
  <path class="waterDark" d="M85.86,158.69c-1.49-4.17-6.73-4.7-10.51-4.76-22.49,.55-44.98,1.3-67.46,2.26,2.94,5.1,6.77,9.51,11.52,12.83-5.38,9.35-6.18,19.46-3.75,29.28,11.04-.55,21.43-4.55,29.36-12.77,7.31-7.39,16.99-11.95,27.16-13.77,5.27-.92,16.44-5.84,13.67-13.08Z"/>
  <path class="foliageNear" d="M314.8,156.47c.02-.18,.03-.36,.04-.54-5.78-27-24.26-46.28-51.33-52.43-5.78-7.13-20.58-6.49-24.17,2.65-4.95-6.05-17.23-5.81-21.75,.66-9-1.61-18.01-3.2-27.03-4.75-8.63-10.6-26.25-7.97-33.4,2.75-7.05-8.2-22.15-8.87-29.67-1-10.69-.05-21.39-.05-32.08,0-4.56-6.19-17.26-4.16-20.6,2.35-1.13-5.02-8.78-6.52-12.36-3.36-6.35-13.66-29.44-9.6-33.61,3.72-6.69-5.52-19.45-.69-18.01,8.84-2.85-1-6.5-.62-9.64,.79-1.94,13.97,.18,28.73,6.7,40.06,102.26-4.37,204.66-4.28,306.91,.27Z"/>
  <path class="bushFurther" d="M313.55,133.46c-7.98-6.5-21.48-4.87-28.08,4.22-7.33-7.99-22.87-7.45-28.31,2.51-10.05-4.92-22.32,2.22-22.31,13.59,26.66,.6,53.31,1.49,79.95,2.68,.67-7.78,.26-15.66-1.25-23.01Z"/>
  <path class="treeCloser" d="M314.7,144.04c-1.26-19.92-9.56-38.27-25.39-44.08,8.88-23.82-2.96-49.28-22.2-64.7-6.54,3.77-11.4,14.76-7.18,20.85-17.37,5.15-19.09,29.39-3.22,36.46-4.5,13.3,12.65,31.96,27.88,24.02-1.42,14.03,16.18,29.02,30.1,27.44Z"/>
  <g class="mapleDarkest">
    <path d="M293.94,191.27c.7,.57,1.79,.45,2.35-.06-.26-6.01-.43-12.02-.5-18.04-.92,0-1.38,0-2.3,.01,.06,6.04,.21,12.06,.45,18.1Z"/>
    <path d="M270.59,192.86c.68,.6,1.77,.51,2.35,0-.01-6.11-.02-12.22-.02-18.33-.92,0-1.38,0-2.3,0,0,6.11-.02,12.22-.03,18.33Z"/>
    <path d="M261.13,182.36c.58,.53,1.51,.45,2.02,.02,.05-5.31,.08-10.62,.07-15.93-.8,0-1.2,0-2,0,0,5.3-.02,10.61-.09,15.91Z"/>
    <path d="M242.45,183.21c.56,.52,1.5,.47,2.02,.05,.16-5.21,.24-10.42,.24-15.64-.8,0-1.2,0-2,0,0,5.2-.09,10.39-.26,15.59Z"/>
  </g>
  <path class="mapleDarker" d="M302.02,145.5c-3.76,8.35-5.95,16.8-6.24,25.97-11.25-1.93-22.49-3.95-33.73-5.92,.08-7.22,1.1-13.81,3.58-20.61,12.12,.63,24.25,.65,36.39,.55Z"/>
  <path class="mapleDark" d="M295.78,171.47c0,.87,0,1.31,.02,2.18-8.2,.08-16.35,.6-24.5,1.44-9.49-2.74-19.04-5.22-28.69-7.3,0-.67,0-1,0-1.66,6.51-.66,12.92-.97,19.46-.57,11.24,1.97,22.48,3.99,33.73,5.92Z"/>
  <path class="bennettShoe" d="M217.81,201.24c3.06,5.84,5.06,12,5.3,18.71,.31,4.14-3.97,7.55-8.66,8.45-4.62,.73-8.47-.03-10.76-2.72,.68,5.72-1.64,9.77-7.15,12.06-6.51,2.34-12.33,1.32-16.58-1.46-2.86-2.42-3.5-4.68-2.17-8.39,1.29-3.48,3.71-6.95,6.64-10.41l15.05-2.81c1.15-4.47,2.62-9,4.41-13.59l13.93,.16Z"/>
  <path class="bennettJeans" d="M222.85,156.27c-.34,18.19-.98,34.72-4.38,47.51-1.49,4.17-11.48,6.52-15.86,2.21-.72-1.52-1.41-4.8-2.1-8.32l.07,20.86c-3.22,4.57-14.98,5.09-17.71,.86-2.01-11.37-2.59-16.15-3.96-34.64-1.37-18.49-1.4-19.99-.13-29.96l44.07,1.49Z"/>
  <path class="bennettHoodie" d="M181.49,102.95c-6.29,4.93-11.66,18.2-13.01,31.09-.51,2.53,.04,5.14,1.4,7.81,1.5,2.61,5.18,6.12,8.45,8.21-.44,2.12-.58,2.61-.31,4.97,4.7,3.06,11.47,6.56,19.35,7.43,11.64,.55,20.3-1.12,26.73-6.14,.24-2.36-.17-4.94-.51-7.61,3.74-2.73,7.57-5.83,10.97-9.76,1.06-1.13,1.61-2.58,1.61-4.39-.74-13.06-5.26-23.59-14.08-31.27l-40.6-.34Z"/>
  <path class="bennettHood" d="M213.87,93.89c4.47,1.42,8.21,4.71,8.22,9.4-4.98-.02-11.1,1.71-16.19,4.39-3.18,1.55-4.58,2.89-6.97,4.91-1.89-2.68-4.74-4.69-8.07-6.26-2.58-1.26-5.75-2.2-9.37-3.38,.8-2.43,2.21-4.6,4.12-6.57,4.72-3.97,23.43-4.11,28.26-2.48Z"/>
  <path class="skinEastAsian" d="M212.02,90.82c11.85-9.52,15.39-21.66,10.06-36.27-23.6-4.69-39.65-4.8-41.85,7.36-1.29,6.44-1.69,11.23-.73,14,.92,2.51,.65,6.15,1.14,9.59,.9,6.3,4.1,11.07,10.78,13.78,5.43,1.63,7.11,9.28,7.6,11.77,.58-2.22,1.72-4.93,4.6-7.04,5.42-4.22,7.69-4.07,9.13-7.43-.16-.96-.88-4.57-.73-5.75Z"/>
  <g class="lizShoe">
    <path d="M139.09,201.3c2.23,3.07,3.82,6.82,3.42,11.74-.31,7.26-2.94,11.6-8.1,12.46-3.44,.57-5.75,.28-9-.86-3.72-1.43-4.6-5.29-4.57-8.52,.14-3.97,2.36-9.38,4.84-15.18l13.41,.36Z"/>
    <path d="M113.46,215.07c2.03,1.55,2.86,3.16,3.61,6.44,.9,4.24,1.52,8.17-.76,12.68-1.85,3.98-6.14,4.76-11.68,4.59-4.93-.21-8.86-.93-10.72-4.55-1.73-3.42-1.42-6.35,.97-10.17,1.61-2.89,4.55-6.11,7.77-9.48l10.81,.49Z"/>
  </g>
  <path class="skinIndian" d="M91.8,159.08c-1.95,3.58-3.29,7.22-3.78,10.95-.14,3.05,.43,5.38,2.31,7.59,2.09,2.52,4.42,4.09,6.96,4.77l.79-22.52s-6.04-.78-6.28-.79Z"/>
  <path class="lizJeans" d="M139,162.66c1.34,7.25,1.57,14.51,.31,21.8-.42,2.94-.5,5.85-.31,8.74,.34,3.46,.91,5.87,.77,8.77-.66,4.06-4.39,7.14-9.46,7.34-4.1,0-6.84-1.57-8.6-4.29-.26-1.97-1.69-5.95-3.03-9.77-.82-2.31-1.14-5.62-1.37-9.1-.15,5.83-.34,11.48-1,15.31-.57,3.75-1.08,7.61-1.3,12.06,0,1.82,.1,2.98,.12,4.32-1.37,2.82-4.4,4.23-9.2,4.13-4.02-.13-6.71-1.37-8.32-3.51-.02-5.57-.43-14.02-.89-22.9-.58-7.57-.75-20.61,.87-32.04l41.4-.86Z"/>
  <path class="lizJacket" d="M132.28,114.93c2.54,.66,4.81,2.13,6.34,4.21,2.34,2.86,3.93,6.8,5.66,11.32,1.74,4.53,2.69,7.08,4.69,10.72,1.99,.07,4.05,.24,6.04,.59l-4.51,13.3c-5.73,.21-9.81-3.22-13.09-8.14-.16,.61-.3,1.5-.18,2.07,1.18,3.6,3.1,8.85,3.82,12.15,.26,1.2-.14,2.6-2.15,3.68-12.55,6.72-26.44,7.37-39.45,1.55-2.16-.97-2.23-1.91-2.29-2.96-.04-.66,0-1.29,.14-2.1-3.17,.34-5.55-.07-7.21-1.49,1.6-6.75,2.55-12.41,2.74-16.73,.04-5.93,.6-12.43,2.43-18.83,1.1-3.38,2.9-6.05,5.79-7.62l31.22-1.73Z"/>
  <path class="lizJacketLapel" d="M132.28,114.93c-1.4,.99-2.64,2.07-3.68,3.27,1.17,.72,2.11,1.74,2.88,3-6.96,4-13.32,8.21-16.14,13.61-2.04-4.93-7.78-9.1-13.96-13.17,.47-1.06,1.19-1.99,2.09-2.83-.67-.91-1.48-1.63-2.41-2.16,1.07-2.58,3.99-5,7.08-5.97l15.93,.22c2.97,.02,6.84,1.99,8.22,4.02Z"/>
  <path class="lizShirt" d="M124.04,112.89l-16.57-.58c.36,3.63,7.97,9.13,7.97,20.26,.17-11.59,6.85-15.12,8.59-19.67Z"/>
  <g class="clothesOverlapLine">
    <path d="M218.65,123.91c1.42,2.7,2.47,5.41,2.93,8.13-1.82,2.33-3.67,4.4-5.57,5.97"/>
    <line x1="223.58" y1="148.71" x2="221.54" y2="150.12"/>
    <path d="M183.33,124.35c-1.69,3.75-2.98,7.46-3.48,11.12,.95,1.36,2.17,2.2,3.37,3.08"/>
    <path d="M184.13,136.55c-2.39,4.74-4.47,9.32-5.8,13.5"/>
    <path d="M215.45,136.01c1.64,7.34,3.99,12.75,7.41,15.23"/>
    <line x1="200.51" y1="197.67" x2="199.84" y2="169.61"/>
    <line x1="117.31" y1="186.15" x2="117.45" y2="176.21"/>
    <path d="M137.41,146.93c2.02-6.57,1.55-12.51-1.66-17.77"/>
    <path d="M99.67,129.37c-2.83,5.69-4.02,11.51-.76,17.7,.62,1.42,.73,3.06,.48,4.45-.69,2.72-1.53,6.52-2.09,9.8"/>
    <path d="M203.68,225.67c-.67-4.28-1.69-8.03-3.11-11.15"/>
  </g>
  <g class="clothesBorderLine">
    <path d="M115.34,134.81c-.26,7.5,.38,14.38-.16,22.12-.08,5.07,.23,9.68,1.25,13.41"/>
    <path d="M198.92,112.59c-1.58,11.67-.04,20.93-1.98,32.16-1.06,7.02-.4,12.39,.42,17.7"/>
  </g>
  <g class="clothesFoldLine">
    <path d="M148.97,141.18c-2.14,.05-3.83,.93-5.07,2.6"/>
    <path d="M217.01,193.78c-4.73,1.89-9.24,2.21-13.4-.01"/>
  </g>
  <path class="hairBlackDark" d="M108.91,107c-2.33-.47-4.11-.43-6.74-.09-2.73-4.66-2.43-10.14-.42-16.08l7.16,16.17Z"/>
  <g class="skinIndian">
    <path d="M101.59,96.25l2.18,.46c1.04,3.92,2.62,7.15,3.79,10.15,.77,2.34,.5,3.71-.25,5.41,.72,2.37,5.72,6.41,8.21,7.08,2.71-.74,7.7-4.19,8.71-6.53-.16-.88,.28-2.12,.49-2.87,2.09-.5,3.85-.98,5.85-2.29l6.61,.23c2.42-13.06,3.02-25.61,1.31-37.5-15.76-4.51-31-4.95-47.15-1.67-2.07,15.89-1.36,28.38,10.25,27.53Z"/>
    <path d="M157.56,137.56c1.88-2.44,5.62-1.24,5.38,2.17,1.84,1.25,3.07,2.79,2.86,5.56-.43,4.06-4.87,9.27-10,9.82-2.74,.23-5.29-.15-7.49-1.42-3.06-2.02-1.89-6.38-.09-9.26,1.12-1.7,2.29-2.79,5.17-3.7,1.86-.62,2.93-1.65,4.16-3.16Z"/>
  </g>
  <g class="skinOverlapLine">
    <path d="M124.72,109.95c-4.11,.74-7.98-.49-11.22-2.3"/>
    <path d="M162.94,139.73c-3.22-1.55-10.46,4.45-10.05,10.45"/>
    <path d="M191.42,99.27c5.06,1.98,9.5,1.59,15.17-2.6"/>
    <path d="M103.77,96.71c.52,.11,1.11,.18,1.75,.21"/>
    <path d="M213.64,86.85c-.62,.13-1.19,.04-1.69-.36"/>
  </g>
  <g class="skinDisplayLine">
    <path d="M199.39,74.19c-1.54-1.6-3.28-2.23-5.89-1.49"/>
    <path d="M187.13,74.39c-1.39-1.31-2.93-1.77-4.68-.9"/>
    <path d="M188.54,82.11c-4.68,1.28-3.46,6.74,1.23,5.63"/>
    <path d="M197.45,91.41c-1.57,1.01-3.41,1.5-5.53,1.48"/>
    <path d="M122.15,81.31c-2.47-.02-4.53,1.02-6.18,2.52"/>
    <path d="M133.51,80.88c-2.35-.08-4.38,.61-6.06,2.17"/>
    <path d="M127.21,89.48c6.12-.62,6.46,6.93,0,6.55"/>
  </g>
  <g class="blackDark__noStroke">
    <path d="M130.79,99.04c-3.1,.72-6.29,1-9.55,.81,1.5,1.55,2.66,2.76,4.76,2.99,3.46,.37,2.21-2.92,4.79-3.8Z"/>
    <ellipse cx="194.55" cy="76.1" rx="1.59" ry="3.19" transform="translate(-2.54 6.84) rotate(-2)"/>
    <ellipse cx="183.78" cy="76.74" rx="1.59" ry="3.19" transform="translate(-2.57 6.46) rotate(-2)"/>
    <ellipse cx="132.01" cy="84.67" rx="3.19" ry="1.59" transform="translate(42.79 213.64) rotate(-88)"/>
    <ellipse cx="121.11" cy="85.1" rx="3.19" ry="1.59" transform="translate(31.83 203.16) rotate(-88)"/>
  </g>
  <g class="hairBlack">
    <path d="M212.02,90.82c16.57-6.4,19.37-27.56,10.97-39.91-4.33-5.47-8.27-7.32-12.99-8.46,1.8-3.51,4.23-5.9,7.57-7.46-4.92,.05-8.87,2.84-11.5,6.97-2.69-3.56-4.98-5.26-9.77-4.96,2.72,.37,4.58,2.2,5.48,5.11-7.76,.59-15.06,1.94-20.9,8.2-5.5,5.36-7.75,13.4-4.99,19.87,5.45-3.27,9.54-6.87,10.47-11.22,3.39,8.19,9.82,12.4,21.11,13.98,1.28,1.81,2.21,3.78,2.36,6.1,1.42-1.03,2.51-2.1,3.04-3.26,1.14-2.26,5.83-1.01,6.38,1.8,.72,4.18-1.26,8.03-5.6,9.29-.59,.19-1.5,2.4-1.62,3.97Z"/>
    <path d="M140.1,70.82c4.92,1.97,6.84,6.03,2.12,7.35-.92,3.23-1.16,6.7-.16,9.21,2.53,8.02,1.95,11.68-.51,17.43-1.91,4.06-8.14,7.53-10.97,2.85,6.67-4.79,8.12-13.02,6.89-18.29-.75-4.32-.2-7.08,.24-10.86-5.58-.41-9.65-2.98-12.39-8.34-3.8,7.06-9.14,11.68-17.88,12.65-1.27,1.19-1.6,2.8-1.66,4.7-1.12-.45-1.46-2.43-3.47-2.5-2.39,.21-3.89,1.5-4.27,4.13,0,3.35,.81,5.89,3.56,7.1-.4,3.98,.54,7.34,2.81,10.24,1.16,1.62,.11,4.34-3.62,3.84-7.34-1.29-12.97-5.44-13.81-15.98-.68-4.87,1.88-8.82,1.83-15.36-.68-6.53,.71-14.34,5.11-18.49,3.13-3.21,6.55-4.61,10.84-4.31,1.79-2.71,3.31-4.15,8.93-4.58,15.08-1.27,23.51,5.55,26.41,19.21Z"/>
  </g>
  <g class="hairOverlapLine">
    <path d="M207.47,72.92c1.92,.21,4.25,.03,5.92-.4"/>
    <path d="M107.43,82.82c-4.33,.35-6.45-2.52-3.29-5.17"/>
    <path d="M137.7,78.51c1.59,.18,3.11,.11,4.52-.34"/>
    <path d="M140.1,70.82c-.53-.18-1.07-.33-1.61-.43"/>
  </g>
</svg>