<svg viewBox="0 0 314.17 240.69">
  <path class="bennettFloor" d="m56.71,212.64c21.47,33.59,85.87,36.74,115.31,7.96,21.47,23.89,76.52,19.59,90.72-7.62,19.19,3.64,34.13-5.92,42.74-20.25H14.51c8.31,14.9,24.04,25.23,42.2,19.91Z"/>
  <path class="bennettWall" d="m295.63,125.38c26.32-34.97-1.04-96.26-48.82-95.57-13.85-29.31-60.94-36.01-84.16-11.43C130.81-12.78,72.63-1.7,56.71,39.85c-45.01-.69-74.45,74.45-43.28,110.11-7.82,12.7-6.29,29.54,1.09,42.77h290.96c12.66-21.09,11.6-52.51-9.84-67.35Z"/>
  <path class="steelMediumLight" d="m18.41,111.52c1.92,0,2.88,0,4.81,0-.04,9.21.04,18.42.23,27.64-1.86,0-2.8,0-4.66,0-.24-9.21-.37-18.42-.38-27.64Z"/>
  <path class="steelMedium" d="m12.13,139.2c6-.35,11.96-.35,17.96,0,.04,2.51.06,3.77.11,6.28-5.94-.06-11.88-.07-17.83,0-.1-2.51-.15-3.76-.24-6.28Z"/>
  <path class="fiberMedium" d="m11.76,84.29c6.4-.58,12.68-.58,19.08.01,1.11,9.11,2.29,18.2,3.55,27.29-9.06-.14-18.11-.14-27.17,0,1.35-9.12,2.86-18.22,4.54-27.3Z"/>
  <path class="oakMediumDark" d="m13.42,149.96c-8.74,14.2-5.8,33.57,3.94,47.28h18.59v-53.43H8.87c1.34,2.15,2.86,4.21,4.55,6.15Z"/>
  <g class="cushion">
    <path d="m261.92,200.93H57.71c.34-8.22.48-12.33.69-20.54,67.61-1.31,135.21-1.31,202.82,0,.21,8.22.35,12.32.7,20.54Z"/>
    <path d="m261.22,180.39c.21-21.27.77-42.5,1.76-63.74.87-9.76-3.22-15.74-10.15-15.67-26.85-.09-53.68-.49-80.52-1.15-8.52-.13-12.97,4.42-12.9,12.71.39-7.9-2.8-13.03-12.9-12.7-26.46.67-52.93,1.17-79.4,1.5-8.54.19-12.5,4.77-10.93,17,1.08,20.68,1.82,41.35,2.23,62.05,67.61-1.31,135.2-1.31,202.81,0Z"/>
    <path d="m278.55,140.59c-9.25,0-15.96,4.27-16.52,13.81-.91,15.49-.95,30.94-.11,46.53h24.83c-.49-11.39-.54-21.96-.11-33.35,4.05-1.07,6.48-3.59,7.04-8.36,1.27-10.79-4.23-18.63-15.12-18.63Z"/>
    <path d="m57.58,154.39c-.79-9.41-7.28-13.81-16.53-13.81-10.9,0-16.4,7.84-15.12,18.63.56,4.77,2.99,7.29,7.05,8.36.43,11.39.39,21.96-.09,33.35h24.83c.7-15.61,1.15-31.21-.14-46.53Z"/>
    <path d="m261.22,180.36c.04-6.98.09-10.47.22-17.45.04-2.3-.81-3.04-2.92-2.97-6.6.2-10.5.02-17.05.46-6.96.39-11.37,2.99-13.85,5.41-.05.05-.12.08-.2.08-19.1-.65-38.19-1.2-57.29-1.65-.07,0-.13-.03-.18-.07-1.32-1.24-3.83-3.21-5.84-3.87-2.4-.7-4.52.18-4.69,2.8-.09-2.61-2.56-3.89-5.13-3.82-4.43.05-8.56,1.04-12.45,2.51-3.35,1.29-4.62,3.28-6.11,5.19-.05.07-.14.11-.23.11-16.11-.58-32.22-1.1-48.33-1.55-.06,0-.11-.02-.16-.06-3.91-3.09-7.34-4.71-11.37-5.07-4.94-.37-9.37-.46-14.23-.3-1.64.07-3.17,1.17-3.15,2.66.1,6.94.13,10.41.13,17.36,0,.15.12.27.27.27,67.42-1.32,135.02-.75,202.54-.02Z"/>
  </g>
  <g class="cushionLight">
    <path d="m164.12,160.29c2.01.66,4.52,2.63,5.84,3.87.05.05.11.07.18.07,19.1.45,38.2,1.01,57.29,1.65.07,0,.14-.02.2-.08,2.47-2.42,6.93-4.98,13.85-5.41,6.51-.4,10.45-.26,17.05-.46,2.04-.06,2.9.62,2.92,2.75.02-1.07.03-1.6.06-2.67.03-1.55-1.19-2.85-2.74-2.88-10.76-.81-22.13-.09-32.67.57-18.06,1.13-36.64.41-54.87-1.22-2.17-.19-4.19-.67-6.94-.46-4.08.54-4.9,2.93-4.85,7.06.17-2.63,2.29-3.5,4.69-2.8Z"/>
    <path d="m61.42,160.09c4.83-.18,9.33-.1,14.23.3,4,.33,7.45,1.98,11.37,5.07.05.04.1.06.16.06,16.11.45,32.22.97,48.33,1.55.09,0,.17-.04.23-.11,1.49-1.91,2.77-3.92,6.11-5.19,3.86-1.47,8.05-2.43,12.45-2.51,2.55-.05,5.13,3.82,5.13,3.82,0,0-.83-6.98-4.92-7.06-5.75-.11-11.31.03-16.09,1.37-17.07,4.79-35.99,3.3-53.33.69-8.33-1.25-16.19-1.56-24.1-.96-1.55.03-2.79,1.33-2.76,2.88.02,1.09.03,1.64.04,2.74-.02-1.49,1.52-2.6,3.15-2.66Z"/>
  </g>
  <path class="cushionBorderLine" d="m159.42,112.53c0,22.27,0,44.54,0,66.81"/>
  <g class="bennett">
    <path class="bennettShoe" d="m209.9,194.11c2.58,3.93,3.03,9.79,2.06,11.73-1.76,3.23-11.87,6.33-20.27,4.93-3.33-.63-4.12-2.79-4.66-5.22-2.75,1.18-5.6,1.65-7.56-.17-4.01-3.84-3.97-8.4-.43-13.2,1.61-2.22,2.76-3.87,5.16-5.78,11.71-10.89,19.85-6.47,25.7,7.72Z"/>
    <path class="bennettJeans" d="m231.17,153.01c1.93,12.89-4.43,22.16-18.54,20.22.14,6.64-.52,13.82-1.66,21.3-2.63,1.52-7.89,1.94-11.21.69-.34-4.54-2.56-8.38-6.09-11.76-3.8,3.62-8.7,5.28-14.39,5.53-5.91-8.62-10.62-16.87-12.73-24.35-1.38-8.3,3.32-13.56,11.07-13.97,21.06-9.33,38.15-6.17,53.54,2.33Zm-37.64,13.43c-1.69,1.26-2.91,1.49-4.53,1.8,1.4,2.78,2.56,5.87,3.52,9.2-.1-4.96-.06-8.22,1.01-11Z"/>
    <path class="bennettSleeves" d="m213.93,95.53c7.22,1.42,12.46,5.05,15.66,10.97,3.75,6.73,10.4,26.32,10.4,26.32,2.78,6.56.92,9.32-2.7,11.22-4.23,1.81-6.94-1.26-8.03-4.14-3.25-10.16-8.23-17.04-9.42-25.44l-32.01,6.28c-3.38,2.21-4.83,3.84-6.82,6.99-.57,1.16-.85,2.46-.96,3.83-.62,3.87-5.72,5.64-9.51,3.32-2.4-3.71-1.97-6.61.15-10.45,4.98-8.8,8.98-16.95,14.05-21.99,2.17-2.18,5.09-3.7,8.65-4.66l20.54-2.24Z"/>
    <path class="shirtWhite" d="m219.84,114.46c-4.09-3.12-7.25-7.18-9.5-12.15-5.28,1.57-10.47,2.05-15.48.54-2.59,3.51-4.88,7.42-6.97,11.59-.82,7.38.73,26.33,1.99,43.91,5.54-.65,12.26-2.48,19.46-4.8,7.7-2.63,15.66-2.81,21.82-.54-1.33-13.11-7.33-24.81-11.32-38.55Z"/>
    <g class="banjo">
      <polygon class="banjoNeck" points="266.19 117.55 268.1 127.33 269.61 126.74 268 118.2 266.19 117.55"/>
      <path class="banjoSide" d="m194.47,160.2l5.13-1.32c8.44-1.91,13.47-11.47,11.24-21.37s-10.89-16.37-19.33-14.47l-5.13,1.32,8.09,35.83Z"/>
      <polygon class="banjoHeadstock" points="252.14 123.09 266.19 117.55 268.1 127.33 253.59 128.66 252.14 123.09"/>
      <polygon class="banjoFretboard" points="204.81 135.87 252.14 123.09 253.59 128.66 206.2 142.29 204.81 135.87"/>
      <ellipse class="banjoHead" cx="190.42" cy="142.29" rx="15.67" ry="18.37" transform="translate(-26.66 45.43) rotate(-12.72)"/>
    </g>
    <g class="skinEastAsian">
      <path d="m214.49,86.2c-1.07,2.59-1.33,5.83-.85,9.46-4.42,4.06-15.08,6.24-19.94,2.18.06-.51.03-1.04-.07-1.6-7.88-2.85-12.91-10.59-12.33-18.42.29-3.48.36-6.02.15-9.28-.63-6.13-.58-12.15.15-18.06h43.22c3.2,18.72-.66,30.3-10.32,35.72Z"/>
      <path d="m178.82,130.62c-2.4-1.39-7.58.7-8.27,3.17,2.32,3.09,3.87,3.94,5.95,6.26,1.24,1,1.97,3.13,2.32,5.03.46,2.09,1.78,3.79,3.94,5.26,2.04,1.64,4.86,1.75,7.58.85,3.69-1.38,6.49-4.87,6.11-7.89-.62-3.07-2.91-3.87-6.11-3.48,2.85-2.29,4.25-4.79,3.56-6.96-.31-1.31-2.47-1.93-4.18-.62-1.7,1.31-3.94,3.32-6.57,2.32-1.62-.63-3.01-2.17-4.33-3.94Z"/>
      <path d="m233.39,134.46c-.99.94-1.65,2.2-1.84,3.7-.29,2.67,2.3,5.89,4.51,4.93,2.84-1.25,5.27-1.42,8.69-1.42,4.47-.13,7.98-2.88,8.5-7.04.16-3.05-.69-5.83-3.07-7.41-2.47-1.38-4.61-.77-7.1.54-2.34,1.19-4.68,3.1-4.79,5.29l-4.9,1.41Z"/>
    </g>
  </g>
  <g class="liz">
    <path class="lizShoe" d="m131.11,185.03c3.06,3.72,5.47,7.71,7.01,12.07,1.36,3.71,1.45,6.78-.57,9.56-2.59,2.97-6.6,3.77-9.93,1.41-3.16,2.18-7.74,3.48-11.55,1.55-4.44-2.2-10.41-7.48-12.66-13.54-1.55-4.51.33-7.94,3.47-10.96l24.24-.09Z"/>
    <path class="lizJeans" d="m123.77,148.25c4.59,2.52,8.4,5.67,11.32,9.55,2.13,3.21,3.09,6.63,2.86,10.27-.63,5.54-2.59,11.52-5.8,18.13-1.61,2.86-7.5,3.84-11.43,1.43-2.23,3.48-8.39,4.11-11.88,1.34-2.23-1.7-2.86-4.38-3.57-8.22-.54-3.39-.9-5.84-.87-8.66-6.26,1.73-13.27-.65-16.88-3.18-6.44-4.42-6.91-10.64-3.95-17.72,12.34-4.71,25.81-5.47,40.21-2.94Z"/>
    <path class="lizShirt" d="m112.27,103.62c3.17.29,5.91,1.3,8.22,3.01,2.52,2.04,3.96,5.08,4.78,7.75-.23,1.4-.61,2.88-1.51,4.07,2.03,4.08,3.06,8.27,1.02,13.04-2.04,4.29-2.36,7.26-1.84,12.19.04.84.48,3.67.82,4.56-5.85,1.49-14.16,2.65-23.61,1.83-6.3-.48-12.32.22-17.55,1.92,1.76-10.87,1.65-23.32-.25-36.65l-1.08-1.24c2.21-3.28,4.65-6.06,7.62-8.23,1.95-1.34,4.41-2.17,7.21-2.66l16.18.4Z"/>
  </g>
  <g class="clothesOverlapLine">
    <path d="m193.53,166.44c1.09-3.02,3.21-5.49,6.07-7.56"/>
    <path d="m199.76,195.22c-.57,2.94-6.02,7.69-12.74,10.32"/>
    <path d="m119.09,189.28c3.75,3.54,6.91,7.21,9.02,11.11,1.35,2.68,1.57,5.27-.49,7.68"/>
    <path d="m100.15,150.08c6.82.68,12.85,2.26,17.73,5.17,3.51,1.97,5.45,4.88,6.23,9.72.81,6.02-.76,14.91-3.4,22.65"/>
    <path d="m192.52,177.44c.83,2.57,1.93,5.46,1.15,6.02"/>
  </g>
  <g class="clothesFoldLine">
    <path d="m189,168.24c-.81-1.7-1.42-3.38-2.62-5.07"/>
    <path d="m212.63,173.23c.1-1.27.03-2.41,0-3.72"/>
    <path d="m180.27,127.48c-1.43-.96-2.19-1.26-3.8-1.27"/>
    <path d="m187.89,114.44c-.09-1.45-.12-2.65-.09-3.59"/>
    <path d="m219.84,114.46c-.28-1.3-.54-2.5-.77-3.61"/>
    <path d="m123.77,118.45c-.75-1.57-1.63-2.76-2.63-3.57"/>
    <path d="m104.39,172.09c-.02-1.48.14-3.07.4-4.72"/>
  </g>
  <path class="hairBlackDark" d="m97.66,101.13c-4.29-.37-6.89.54-10.39,1.58-3.43-5.54-3.21-11.62-.27-16.68,5.34,3.99,9.29,9.01,10.66,15.11Z"/>
  <g class="skinIndian">
    <path d="m116.84,99.54c-1.54.93-3.07,1.51-4.57,1.57-.12.74-.1,1.59,0,2.51-1.36,2.06-3.05,3.74-5.18,4.93-3.69-1.07-7.35-2.97-11-5.34-.62-3.95-2.46-7.61-5.1-11.08-1.38.35-2.81.24-4.31-.42-9.79-2.48-10.25-14.38-8.72-29.59l43.81-.25c2.76,17.22,8.48,35.32-4.94,37.66Z"/>
    <path d="m93.88,120.26c-2.19,4.88-3.92,9.92-5.19,15.12,3.33,1.21,6.58,3.46,9.21,4.07,1.49-2.89,3.41-4.63,7.13-5.45,2.64-.52,5.1.2,7.43,1.38,2.3-.04,4.61,1.23,5.1,3.28.35,1.69.66,2.68-.51,4.93-1.08,2.07-12.76,6.31-18.07,2.98-7.12,1.03-13.7.29-19.79-3.5-2.2-1.51-3-2.56-2.9-5.75.99-7.63,2.91-14.85,6.05-21.99,3.2,2.59,6.98,4.17,11.54,4.92Z"/>
    <path d="m140.98,153.71c-2.4-1.92-5.97-3.6-10.77-5.17-2.45-3.18-4.41-8.89-6.28-15.06-1.26,3.31-1.42,6.07-.98,10.21.04.84.48,3.67.82,4.56,4.59,2.52,8.4,5.67,11.32,9.55.82,1.23,1.46,2.5,1.93,3.79,1.42-.23,2.66-.54,4.4-1.51,2.83-1.4,3.23-3.47-.44-6.38Z"/>
  </g>
  <g class="skinOverlapLine">
    <path d="m193.63,96.24c5.34,1.18,9.1-.73,12.44-3.79"/>
    <path d="m215.55,83.38c-.62.07-1.15-.09-1.59-.5"/>
    <path d="m112.27,101.11c-4.36.3-7.93-.24-11.61-1.96"/>
    <path d="m91,92.13c.37-.07.76-.26,1.17-.57"/>
    <path d="m88.7,135.39c-2.1-.93-4.06-.38-5.91,1.3"/>
    <path d="m187.93,138.72c1.9.93,2.91,1.98,4.25,3.8"/>
    <path d="m238.29,133.05c-.07,1.1.29,2.16,1,3.19"/>
  </g>
  <g class="skinDisplayLine">
    <path d="m203.17,69.94c-1.94-1.82-3.97-2.72-6.16-1.9"/>
    <path d="m190.52,68.93c-1.84-1.62-3.61-2.27-5.26-1.34"/>
    <path d="m192.3,82.19c-4.51.63-5.61-4.03-1.34-5.46"/>
    <path d="m197.67,87.48c-2.21.95-3.95,1.19-5.77,1.11"/>
    <path d="m118.33,75.29c-1.69,1.17-3.66,1.78-5.98,1.68"/>
    <path d="m106.3,78.44c-1.96,1.33-4.18,2.02-6.65,2.1"/>
    <path d="m112.23,81.55c3.7-1.29,6.89,4.08,1.63,5.51"/>
  </g>
  <g class="blackDark__noStroke">
    <path d="m116.27,90.32c-2.69-.25-4.79.08-7.41,2.12,1.11,1.2,2.87,2.47,5.13,1.85,1.49-.58,2.66-2.3,2.28-3.96Z"/>
    <ellipse cx="198.25" cy="71.88" rx="1.55" ry="3.1" transform="translate(-2.39 6.96) rotate(-2)"/>
    <ellipse cx="187.21" cy="71.42" rx="1.55" ry="3.1" transform="translate(-2.38 6.58) rotate(-2)"/>
  </g>
  <g class="hairBlack">
    <path d="m214.47,86.22c7.66-2.97,12.15-9.17,14.3-17.45,1.86-7.17,1.17-13.51-2.92-19.43-4.02-5.77-9.51-9.18-16.43-10.3.53-3.75,4.2-6.84,8.47-8.47-6.51.45-11.83,2.65-12.71,7.23-1.35-4.12-5.46-4.73-10.45-4.89,3.18,1.07,5.73,2.55,6.57,5.19-7.08.65-12.93,3.03-17.2,7.6-5.88,6.21-7.19,12.93-5.15,20.82,5.64-2.34,8.64-6.72,10.45-11.98,1.51,7.97,9.42,12.2,19.43,15.19,2.2,1.06,3,3.52,3.43,6.35,2.7-1.31,2.92-4.02,6.28-4.02,2.56.14,3.23,2,2.7,4.97-1.16,3.06-2.97,5.28-5.7,6.35-.52,1.03-.82,2.01-1.07,2.84Z"/>
    <path d="m89.72,52.36c1.31-3.57,4.99-5.03,9.99-5.31,7.72-.34,13.23,1.33,18.99,6.62,3.41,3.26,4.65,6.38,5.1,10.88,2.48.38,2.8,3.15.8,4.3-.22,4.12.19,7.89,1.82,11.4,2.75,6.12,3.99,12.65-1.84,18.94-2.9,3.02-5.44,3.57-7.74.34,6.05-4.24,7.97-9.96,6.34-17.32-.87-3.88-2.8-8.2-2.74-12.27-7.25,1.92-11.16,1.16-16.86-3.7-.09,6.96-4.52,10.7-11.55,11.75-1.04,1.99-.54,4.21-.45,5.96-2.07.14-2.14-2.43-3.74-2.7-1.89-.22-3.45.99-3.94,4.15-.38,2.85.77,4.58,2.79,6.31-.09,2.78.79,5.8,2.72,8.19,1.63,1.99-.54,4.38-2.36,4.82-3.33.69-7.83.33-10.82-4.58-3.03-4.85-3.64-10.9-2.3-16.08,1.12-4.1,1.41-8.25,1.38-14.42-.11-10.06,5.45-19.16,14.4-17.28Z"/>
  </g>
  <g class="hairOverlapLine">
    <path d="m208.83,69.72c2.39.46,4.61.55,6.59.13"/>
    <path d="m123.8,64.55c-1.08-.23-2.42-.29-3.59-.11"/>
    <path d="m92.03,77.99c-4.28.51-5.64-2.4-2.18-4.57"/>
    <path d="m124.61,68.85c-1.04.61-2.85.86-4.16,1.09"/>
  </g>
</svg>