<svg viewBox="0 0 151.62 348.97">
  <g class="redwoodDarker">
    <path d="M100.89,57.06c4.97,4.97,20.47,4.77,28.1,2.59,6.05-1.73,1.13,20.27,1.73,30.26,.94,15.73,6.92,30.05-.86,47.31-28.34,10.24-28.96-80.17-28.96-80.17Z"/>
    <path d="M53.22,61.91c-28.51,4.77-32.42-.92-34.62,2.18-5.53,7.78,.8,20.58-.41,33.97-1.8,19.95-6.75,41.75-4.71,64.88,2.49,28.16-27.2,76.86,18.05,118.64,0,0,54.63-237.83,21.69-219.67Z"/>
  </g>
  <g class="redwoodDark">
    <polygon points="32.54 253.13 22.97 203.81 21.41 210.82 29.39 252.38 32.54 253.13"/>
    <polygon points="23.41 194.28 11.89 246.28 14.89 246.28 26.41 194.28 23.41 194.28"/>
    <path d="M29.85,243.62h0c-4.55-1.02-9.71-.88-15.24,0v52.95c5.17,.44,10.25,.13,15.24-1,19.71-4.61,19.8-46.32,0-51.95Z"/>
  </g>
  <g class="redwoodMediumDark">
    <path d="M111.96,302.27c1.12,3.46,1.59,7.34,4.69,9.97,6.4,5.44,8.75,9.6,13.33,11.01,3.68,1.13,8.35,1.94,7.75,5.74,1.21,2,.6,4.26-1.24,4.49,.44,2.03-2.69,3.89-3.88,2.95-4.19,8.06-17.94,2.01-22.32-.31-5.4-2.86-21.24-.47-23.87-8.84-1.72-5.47,3.25-12.87,2.78-20.88l22.76-4.13Z"/>
    <path d="M69.21,299.53c-.61,7.13-2.54,14.03-.88,19.54,.97,6.2,7.3,15.73,7.72,21.65,.55,7.78-7.58,9.1-12,4.83-1.24,4-7.58,3.72-8.55,.28-.97,3.45-7.86,2.48-7.72-.41-.97,2.9-6.76,.97-6.07-1.38-3.17,1.38-5.79-1.24-4.41-4.41,2.62-5.79,2.9-12.65,5.38-21.78,2.62-9.65-4.41-27.44-2.76-41.78l29.28,23.47Z"/>
    <ellipse cx="14.6" cy="270.1" rx="14.1" ry="26.48"/>
  </g>
  <ellipse class="redwoodDark" cx="14.09" cy="270.1" rx="9.38" ry="20.49"/>
  <g class="redwoodDarker">
    <path d="M15.59,249.84c-4.86,1.53-7.88,10.47-7.88,20.26s3.02,18.73,7.88,20.26c4.86-1.53,7.88-10.47,7.88-20.26s-3.02-18.73-7.88-20.26Z"/>
    <path d="M34.45,227.44c-8.59,26.87-21.68,43.08-2.91,54.14,17.22,10.14,22.33-14.87,26-39.3l-23.09-14.83Z"/>
    <path d="M51.65,239.8c-6.1,27.97-22.09,55.45,3.81,60.63,28.28,5.66,27.39-27.43,30.18-52.6l-33.98-8.03Z"/>
    <path d="M132.73,235.49c6.45,17.88,11.9,41.74-1.16,50.75-20.05,13.83-27.77-8.66-28.63-39.23l29.8-11.52Z"/>
    <path d="M114.9,244.56c8.11,27.26,13.81,57.08-13.96,61.94-30.85,5.4-27.25-28.6-19.85-59.09l33.81-2.86Z"/>
  </g>
  <path class="redwoodMediumDark" d="M110.99,113.35c7.95,15.23,28.45,24.05,21.36,44.55,22.99,19.73,26.85,53.53,.38,77.59-18.81,17.1-74.34,18.2-98.28-8.05-28.8-31.56,4.47-64.09,17.91-106.98-1.93-15.92,58.63-7.11,58.63-7.11Z"/>
  <g class="redwoodDark">
    <path d="M126.2,8.67c-2.37-6.82-16.26-8.64-19.13,1.06,1.59,28.71,20.72,27.66,19.13-1.06Z"/>
    <path d="M110.98,117c8.82,23.42,11.54,45.6-10.06,49.07-23.95,3.85-33.57-21.15-38.99-45.45l3.85-.52c4.9,22.38,15.38,43.36,34.44,40.21,20.26-3.35,12.06-29.89,6.27-43.39l4.48,.08Z"/>
    <path d="M106.49,116.92c7.43,30.99-31.25,28.26-38.8,3.79l-3.91,2.32c10.57,30.3,54.08,30.17,46.94-4.41-1.82-6.31-5.38-7.06-4.23-1.69Z"/>
  </g>
  <g class="redwoodMediumDark">
    <path d="M100.89,57.06c4.97,4.97,20.47,4.77,28.1,2.59l-.21-20.32c10.02-7.4,5.55-17.26,4.47-22.81-1.43-7.35,.62-12.14-3.24-11.4-3.24,.62-6.32,7.09-7.55,16.18-9.71-1.54-22.81-25.12-27.59-14.49-3.54-4.32-10.56-3.95-7.08,1.86-2.93-.62-3.79,2.72-.78,5.38,5.2,4.61,6.94,11.82,21.77,21.45-2.01,7.49-4.49,14.14-7.9,21.55Z"/>
    <path d="M116.52,105.33c4.32,10.37-2.96,19.52-8.26,10.36l8.26-10.36Z"/>
    <path d="M53.22,61.91c7.09-19.54,44.26-18.97,54.41,0,4.6,7.66,2.87,13.79,7.47,22.22,14.34,26.29-21.65,51.34-44.26,27.59,.96,14.94-19.73,15.33-20.31,4.02-.58-11.49,6.32-12.45,7.47-26.82,1.29-17.94,.13-28.07-4.79-27.01Z"/>
    <path d="M69.34,7.29c4.27-6.02-1.28-8.33-7.24-4.9,.42-6.98-17.61,7.82-25.36,5.33-1.79-3.57-5.61-4.36-6.82,.85-2.85,12.27-15.03,21.83-4.9,32.17,.29,8.04-1.26,16.38-1.97,22.56,4.06,.48,11.88,1.5,28.41-1.11-2.79-9.81-4.62-18.25-4.71-24.22,5.12-1.05,12.9-16.39,21.15-21.14,5.09-2.93,7.09-10.33,1.43-9.54Z"/>
  </g>
  <path class="redwoodDarker" d="M106.92,96.16c-5.7,.01-13.16,2.7-21.34,1.11,2.96,3.17,4.5,6.84,9.32,7.65,5.33,.89,7.87-3.51,8.64-7.07-.43-.47,1.5-1.34,3.38-1.69Z"/>
  <g class="redwoodDark">
    <path d="M37.11,22.77c6.76,1.52,12.92-2.58,20.32-9.07C56.97,4.47,43.99,.03,36.74,7.71c1.17,3.53,1.07,8.86,.37,15.05Z"/>
    <circle cx="60.16" cy="112.3" r="5.78"/>
  </g>
  <g class="statueDisplayLine">
    <path d="M80.59,79.68c2.86-3.98,9.14-3.88,11.85-1.03"/>
    <path d="M110.42,77.77c-1.59-1.67-5.01-1.83-6.6,.24"/>
  </g>
  <g class="statueOverlapLine">
    <path d="M43.2,338.83c-.57,1.56-1.12,3.15-1.48,5.2"/>
    <path d="M48.93,339.38c-.65,2.31-1.18,4.49-1.15,6.02"/>
    <path d="M55.54,339.3c-.18,2.3-.44,4.66-.03,6.51"/>
    <path d="M63.9,338.91c-.16,2.15-1.11,4.78,.16,6.64"/>
    <path d="M134.17,326.41c1.03,.32,2.75,1.32,3.56,2.57"/>
    <path d="M131.07,328.4c2.23,.96,4.91,2.41,5.42,5.08"/>
    <path d="M125.42,329.91c1.75,1.43,7.96,1.51,7.2,6.51"/>
    <path d="M37.11,22.77c-.39,2.33-.92,4.38-1.73,5.9"/>
    <path d="M61.94,2.47c-2.78,1.44-5.47,2.91-8.09,4.4"/>
    <path d="M69.34,7.29c-2.99,.58-8.51,3.2-11.92,6.41"/>
    <path d="M122.46,21.3c1.72,.39,3.28,.77,4.28,1.32"/>
    <path d="M94.88,6.81c1.06,4.18,6.87,7.9,13.15,14.65"/>
    <path d="M87.8,8.67c1.14,1.55,9.89,12.8,14.07,14.53"/>
    <path d="M70.85,111.72c-.91-6.17-3.41-9.26-4.44-12.78"/>
    <path d="M65.67,78.66c-1.47-4.12-5.88-4.41-7.18-2.35"/>
    <path d="M105.64,230.18c7.29,3.35,13.7-5.06,2.8-3.34"/>
    <path d="M96.22,89.12c7.81,1.45,9.26-4.46,8.03-6.7-.81-1.47-3.35-3.12-4.13-4.8"/>
  </g>
  <g class="statueFoldLine">
    <path d="M23.64,142.74c6.76-16.32,19.84-25.13,28.48-36.22"/>
    <path d="M132.35,157.9c-2.3,2.63-11.56,2.78-17.77,0"/>
    <path d="M80.41,160.61c-7.09,5.95-21.79,4.77-28.29,0"/>
    <path d="M63.16,92.97c-2.03,1.01-4.73-1.48-5.14-4.05"/>
    <path d="M58.5,79.58c1.42-2.27,4.98-1.51,5.29,1.94"/>
    <path d="M73.19,339.97c-1.37-1.14-5.79-.97-6.86,.3"/>
    <path d="M131.8,333.17c-1.39-.33-3.99,.45-5.51,1.43"/>
    <path d="M92.1,67.25c-3.65-3.57-10.94-3.01-15.18,2.45"/>
    <path d="M102.14,66.8c2.57-1.67,5.8-1.12,8.28,1.23"/>
  </g>
  <g class="statueEdgeLine">
    <path d="M74.83,158.42c-1.91,1.77-5.72,1.77-7.36,.27"/>
    <path d="M130.44,154.34c-1.23,1.5-4.23,2.04-6.27,.55"/>
    <path d="M92.32,89.12c-2.12,4.69-6.81,4.91-10.04,8.82"/>
    <path d="M109.17,94.81c-2.01-3.24-4.35-3.79-6.2-6.73"/>
    <path d="M102.03,106.64c-2.68,3.35-8.26,3.24-11.16,1.34"/>
    <path d="M99.57,247.39c.8,16.13,1.18,30.5,1.06,42.97"/>
    <path d="M124.16,241.1c2.89,10.81,5.26,21.54,6.91,32.15"/>
    <path d="M66.66,245.06c-3.12,13.3-5.91,26.68-8.28,40.16"/>
    <path d="M43.96,235.49c-4.15,11.08-7.76,22.1-10.57,32.48"/>
  </g>
</svg>