<svg viewBox="0 0 111.7 185.53">
  <g class="copperDarkest">
    <path d="M107.97,185.03H3.49c-1.53,0-3.12-1.71-2.98-3.78,.29-4.27-.5-13.29,1.53-17.07,1.46-2.72,4.63-5.04,6.71-5.81,22.11-8.18,72.17-7.69,94.28,.46,2.09,.77,5.61,1.8,6.81,5.75,1.19,3.92,1.14,12.25,1.23,16.35,.03,1.35-1.67,4.09-3.09,4.09Z"/>
    <path d="M39.21,32.28c1.3-4.45-6.15-14.33,3.89-19.43-1.05-3.97,2.27-7.53,6.07-7.61,.81-6.8,13.68-5.91,14.01,.32,3.64-.16,6.72,3.32,5.75,6.88,10.3,4.86,4.28,12.51,4.13,20.41l-33.85-.57Z"/>
  </g>
  <path class="copperDarker" d="M75.88,63.22c6.7,1.41,13.27,3.7,14.91,11.13,2.18,9.88,4.19,24.95,3.68,40.02-.17,2.51-7.03,6.53-11.74,9.79,10.8,6.48,20.53,13.06,26.14,19.68,4.69,5.53,1.67,13.38-3.68,15.41-9.71,3.68-41.7,0-41.7,0l-44.55,.84c-18.09,3.18-19.93-6.2-16.41-12.89,4.35-7.03,16.91-14.74,27.46-21.94,2.39-5.88,4.52-11.72,5.36-17.92l40.52-44.12Z"/>
  <g class="copperDark">
    <path d="M49.13,140.88l3.34,5.57c2.58,8.05,10.61,6.33,21.13-.63,5.91-2.49,12.31-3.89,18.17-1.81,3.75,1.33,3.85-2.3,1.86-3.84-10.11-7.8-13.06,.99-30.84-9.35-3.11,5.27-6.8,9.77-13.67,10.06Z"/>
    <path d="M65.22,148.97l-2.58,10.2c-7.44,3.84-33.19,3.94-37.56,1.19-.78-.49,.03-2.5,.88-2.88,5.34-2.4,12.75-.62,19.67-6.9,4.72-4.28,8.56-5.86,12.81-2.05,1.68,1.51,4.23,1.07,6.78,.44Z"/>
    <path d="M66.02,51.39c.12,4.82-1.34,7.83,4.4,10.07,7.34,6.56-28.08,46.14-35.41,39.58-.44-3.85-1.2-7.1-1.32-11.12-1.16,8.24-3.13,15.07-3.19,17.51-.31,13.36-2.78,13.92-1.78,27.28,4.23,6.24,1.67,8.91,2.62,14.99,.22,2.53-3.18,3.04-3.96,.37-.55,2.93-.97,10.35-2.93,12.17-1.33,1.24-5.85,.45-6.23-1.09-5.42-21.87,.59-22.21,.02-27.42,.23-10.16-1.98-21.15-.17-27.29,2.14-7.26-.82-32.31,10.36-39.9,2.29-1.98,8.19-3.86,14.09-6.21,3.64-1.45,4.08-5.03,3.64-9.04l19.85,.09Z"/>
    <path d="M71.48,31.73c.74-5.23,7.26-4.09,4.27,2.02-1.01,2.06-2.56,8.89-1.79,12.21,1.69,7.25-3.87,5.96-5.42,2.79l-24.77-.28c-2.5,5.17-6.7,3.62-5.24-2.75,.58-2.53-1.01-9.86-1.9-12.07-1.89-4.67,2.09-7.94,4.61-2.47l30.24,.54Z"/>
    <path d="M44.41,22.22c3.67-1.98,7.58-1.81,11.68,.09,4.26-1.84,8.36-1.66,12.35-.14,1.25,2.44,.95,4.7,1.01,6.6,.03,.91,1.25,1.31,2.03,2.95-.19,7.13,.26,14.81-4.89,19.19-6.41,5.45-14.67,5.11-19.92,.81-5.94-4.85-6.01-12.79-5.43-20.55,.68-1.34,1.44-1.53,1.92-2.76,.66-1.68-.12-3.21,1.24-6.2Z"/>
    <path d="M68.38,122.3c2.21-3.68,11.4,1.85,9.19,5.52-6.25,3.59-8.46,8.08-19.8,8.15-5.75,.04-13.18-4.49-20.4-4.57-2.29-.02-1.65-2.39,.07-3.09,7.81-3.18,12.19,1.46,17.01,.59,2.27-.41,3.2-2.16,1.84-3.17-2.28-1.69-7.88-1.4-5.82-4.42,.51-.74,6.19-2.5,12.74,3.31,1.1,1.1,3.25-.9,5.16-2.33Z"/>
  </g>
  <g class="copperDarkest">
    <path d="M75.88,63.22c.38-1.09-5.1-2.71-5.47-1.75-7.11,15.06-22.54,30.87-35.41,39.58-1.03,.65-.59,6.52,.36,6.3,14.91-7.72,34.56-28.99,40.52-44.12Z"/>
    <path d="M72.97,117.28c-.8-.19-5.56,4.92-4.59,5.02,4.11,1.26,7.3,3.03,9.19,5.52,.87,.75,6.49-3.43,5.81-4.33-2.65-2.96-6.06-5.1-10.41-6.22Z"/>
    <path d="M49.13,140.88c-.7-1.22-9.34-.83-8.49,.23,2.9,2.78,4.52,5.23,5.54,8.96,1.82-1.59,4.03-3.25,6.3-3.62-.72-2.17-1.73-3.88-3.34-5.57Z"/>
    <path d="M65.22,148.97c.84-1.68,9.31-4.63,8.39-3.14-2.94,4.86-4.53,9.58-4.3,14.13,.23,1.24-6.73,.53-6.67-.78-.22-3.7,.34-6.95,2.58-10.2Z"/>
  </g>
  <g class="buddhaOverlapLine">
    <path d="M72.97,117.28c1.84-2.84,4.05-5.5,6.68-7.96-1.65-10.59,.97-17.29-.49-29.54"/>
    <path d="M40.64,140.84c-1.88-.19-6.8-.5-9.48-.25"/>
    <path d="M33.82,78.69c-.19,3.08-.08,8.15-.14,11.23"/>
    <path d="M26.98,144.59c-.02,1.52,.08,4.63,.4,5.49"/>
  </g>
  <g class="buddhaDisplayLine">
    <path d="M65.95,35.54c-1.56,1.61-5.63,1.26-6.55,.14"/>
    <path d="M53.4,35.65c-1.63,1.33-5.74,.85-6.5-.08"/>
  </g>
  <path class="buddhaFoldLine" d="M61.31,47.44c-1.9,1.46-8.08,1.57-10.14-.04"/>
  <g class="buddhaEdgeLine">
    <path d="M67.63,31.22c-2.11-1.08-6.47-1.86-8.12-.46"/>
    <path d="M60,43.93c-1.31,1.49-6.36,1.41-7.34,.08"/>
    <path d="M53.78,30.86c-1.64-1.51-6.3-.97-8.39,.15"/>
  </g>
  <g class="buddhaCreaseLine">
    <path d="M54.37,49.96c.58,.35,2.86,.37,3.46,.02"/>
    <path d="M27.88,108.54c-2.3-.95-4.8-1.27-6.34-.86"/>
  </g>
</svg>