<svg viewBox="0 0 98.75 154.12">
  <path class="steelMediumDark" d="M6.6,4.57c0-5.43,85.74-5.43,85.74,0,.02,27.14,.31,94.28,.88,120.92H5.72c.57-26.64,.86-93.78,.87-120.92Z"/>
  <path class="steelDark" d="M.5,148.63c0-4.29,97.75-4.29,97.75,0-.28-9.05-.52-18.1-.74-27.16,0-4.65-96.27-4.65-96.27,0-.21,9.05-.46,18.11-.74,27.16Z"/>
  <path class="steelDarker" d="M.5,148.63c0,6.66,97.75,6.66,97.75,0,0-4.29-97.75-4.29-97.75,0Z"/>
  <path class="steelDarkest" d="M5.15,148.92c.11,4.83,88.58,4.68,88.45,0,0-2.82-88.45-2.82-88.45,0Z"/>
  <g class="whiteMedium">
    <polygon points="52.21 122.04 52.21 120.08 46.73 120.08 46.73 122.04 41.09 122.04 41.09 124.49 57.85 124.49 57.85 122.04 52.21 122.04"/>
    <path d="M42.23,125.87l1.56,16.9h11.36l1.56-16.9h-14.48Zm3.45,14.77l-.52-12.63h1.36l.52,12.63h-1.36Zm4.47,0h-1.36v-12.63h1.36v12.63Zm3.11,0h-1.36l.52-12.63h1.36l-.52,12.63Z"/>
  </g>
</svg>