<svg viewBox="0 0 508.7 501.74">
  <g class="chromeDarkest">
    <path d="m38.56,17.4c6.13,1.59,6.63,12.54.43,14.74,3.71.89,6.85-2.95,6.73-7.56-.13-4.73-3.63-8.24-7.16-7.17Z"/>
    <path d="m71.75,16.51c-6.03,1.92-5.95,12.9.36,14.77-3.66,1.08-6.99-2.59-7.12-7.21-.12-4.74,3.18-8.44,6.76-7.55Z"/>
    <path d="m171.35,14.73c6.1,1.71,6.41,12.73.16,14.83,3.69.95,6.9-2.85,6.86-7.49-.05-4.76-3.48-8.35-7.03-7.34Z"/>
    <path d="m204.55,14.43c-6.07,1.82-6.18,12.85.1,14.84-3.68,1.02-6.95-2.73-6.99-7.37-.04-4.76,3.33-8.42,6.89-7.47Z"/>
    <path d="m237.75,14.29c6.08,1.77,6.3,12.8.03,14.85,3.68.99,6.92-2.79,6.93-7.43,0-4.77-3.41-8.39-6.96-7.41Z"/>
    <path d="m270.95,14.29c-6.08,1.77-6.3,12.8-.03,14.85-3.68.99-6.92-2.79-6.93-7.43,0-4.77,3.41-8.39,6.96-7.41Z"/>
    <path d="m304.16,14.43c6.07,1.82,6.18,12.85-.1,14.84,3.68,1.02,6.95-2.73,6.99-7.37.04-4.76-3.33-8.42-6.89-7.47Z"/>
    <path d="m337.36,14.73c-6.1,1.71-6.41,12.73-.16,14.83-3.69.95-6.9-2.85-6.86-7.49.05-4.76,3.48-8.35,7.03-7.34Z"/>
    <path d="m370.56,15.18c6.05,1.88,6.07,12.88-.23,14.81,3.67,1.05,6.97-2.66,7.06-7.3.08-4.75-3.26-8.43-6.83-7.52Z"/>
    <path d="m403.76,15.77c-6.11,1.66-6.52,12.65-.3,14.79-3.7.92-6.88-2.9-6.79-7.53.09-4.75,3.56-8.3,7.09-7.26Z"/>
    <path d="m436.95,16.51c6.03,1.92,5.95,12.9-.36,14.77,3.66,1.08,6.99-2.59,7.12-7.21.12-4.74-3.18-8.44-6.76-7.55Z"/>
    <path d="m470.14,17.4c-6.13,1.59-6.63,12.54-.43,14.74-3.71.89-6.85-2.95-6.73-7.56.13-4.73,3.63-8.24,7.16-7.17Z"/>
    <path d="m104.95,15.77c6.11,1.66,6.52,12.65.3,14.79,3.7.92,6.88-2.9,6.79-7.53-.09-4.75-3.56-8.3-7.09-7.26Z"/>
    <path d="m138.15,15.18c-6.05,1.88-6.07,12.88.23,14.81-3.67,1.05-6.97-2.66-7.06-7.3-.08-4.75,3.26-8.43,6.83-7.52Z"/>
  </g>
  <g class="chromeDark">
    <path d="m39.71,17.22c3.2-.09,5.89,3.2,6,7.36.12,4.15-2.38,7.59-5.57,7.68-3.19.09-5.87-3.2-6-7.35-.12-4.15,2.37-7.59,5.56-7.69Zm-7.49,7.74c.17,5.53,3.74,9.92,8,9.8s7.58-4.7,7.43-10.24c-.15-5.54-3.74-9.93-8-9.81-4.26.12-7.58,4.71-7.42,10.25Z"/>
    <path d="m76.56,23.79c.1,4.16-2.41,7.6-5.6,7.67-3.19.08-5.86-3.23-5.97-7.39-.11-4.16,2.4-7.6,5.6-7.68,3.2-.08,5.87,3.23,5.97,7.4Zm-6.03-9.91c-4.26.11-7.6,4.69-7.46,10.24.14,5.55,3.7,9.96,7.96,9.85,4.25-.1,7.6-4.68,7.47-10.23s-3.7-9.97-7.96-9.86Z"/>
    <path d="m172.5,14.57c3.2-.04,5.83,3.33,5.87,7.51.04,4.18-2.51,7.59-5.7,7.63-3.19.03-5.82-3.32-5.87-7.5-.05-4.18,2.5-7.6,5.7-7.63Zm-7.63,7.65c.07,5.57,3.57,10.05,7.82,10,4.25-.05,7.66-4.6,7.6-10.17-.06-5.57-3.56-10.06-7.83-10.01-4.27.05-7.67,4.61-7.6,10.18Z"/>
    <path d="m209.23,21.83c.03,4.18-2.54,7.59-5.73,7.61-3.19.02-5.8-3.35-5.84-7.53-.03-4.18,2.53-7.59,5.73-7.61,3.2-.02,5.81,3.35,5.84,7.53Zm-5.85-10.06c-4.27.03-7.69,4.58-7.64,10.15s3.53,10.07,7.78,10.04c4.25-.03,7.68-4.57,7.65-10.14s-3.52-10.08-7.78-10.05Z"/>
    <path d="m238.91,14.13c3.2,0,5.8,3.38,5.8,7.57,0,4.18-2.58,7.58-5.77,7.58-3.19,0-5.79-3.38-5.8-7.56-.01-4.18,2.57-7.58,5.77-7.59Zm-7.7,7.59c.02,5.58,3.48,10.09,7.73,10.08,4.25,0,7.7-4.53,7.69-10.11,0-5.58-3.47-10.1-7.73-10.09-4.27,0-7.71,4.54-7.69,10.12Z"/>
    <path d="m275.57,21.72c-.01,4.18-2.61,7.57-5.8,7.56s-5.78-3.4-5.77-7.58c0-4.18,2.6-7.57,5.8-7.57,3.2,0,5.78,3.41,5.77,7.59Zm-5.76-10.11c-4.27,0-7.73,4.51-7.74,10.09,0,5.58,3.44,10.1,7.69,10.11,4.25,0,7.72-4.5,7.73-10.08.02-5.58-3.43-10.11-7.69-10.12Z"/>
    <path d="m305.32,14.29c3.2.02,5.77,3.43,5.73,7.61s-2.64,7.55-5.84,7.53c-3.19-.02-5.76-3.43-5.73-7.61.03-4.18,2.64-7.56,5.84-7.53Zm-7.77,7.52c-.03,5.58,3.39,10.12,7.65,10.14s7.74-4.46,7.78-10.04c.04-5.58-3.38-10.12-7.64-10.15-4.27-.03-7.75,4.47-7.78,10.05Z"/>
    <path d="m341.9,22.2c-.05,4.18-2.68,7.54-5.87,7.5-3.19-.03-5.75-3.45-5.7-7.63.04-4.18,2.67-7.54,5.87-7.51,3.2.04,5.75,3.45,5.7,7.63Zm-5.67-10.15c-4.27-.05-7.77,4.44-7.83,10.01s3.35,10.12,7.6,10.17c4.25.05,7.76-4.43,7.82-10,.07-5.57-3.34-10.13-7.6-10.18Z"/>
    <path d="m371.72,15.04c3.2.05,5.73,3.48,5.67,7.65-.07,4.17-2.71,7.52-5.9,7.47-3.19-.05-5.73-3.47-5.67-7.65.06-4.18,2.71-7.52,5.9-7.47Zm-7.83,7.44c-.08,5.57,3.3,10.13,7.56,10.19,4.25.06,7.78-4.39,7.87-9.95.09-5.56-3.29-10.13-7.55-10.2-4.27-.07-7.79,4.39-7.87,9.96Z"/>
    <path d="m408.24,23.26c-.09,4.17-2.74,7.49-5.93,7.43-3.19-.06-5.72-3.49-5.64-7.66.08-4.17,2.74-7.5,5.94-7.44,3.2.06,5.72,3.5,5.63,7.66Zm-5.58-10.18c-4.27-.09-7.81,4.36-7.91,9.92-.1,5.56,3.26,10.13,7.52,10.21,4.25.08,7.79-4.35,7.91-9.91.12-5.56-3.24-10.13-7.51-10.22Z"/>
    <path d="m438.11,16.39c3.2.08,5.7,3.52,5.6,7.68-.11,4.16-2.78,7.47-5.97,7.39-3.19-.08-5.7-3.51-5.6-7.67.1-4.16,2.77-7.47,5.97-7.4Zm-7.9,7.35c-.13,5.55,3.21,10.13,7.47,10.23,4.25.1,7.81-4.31,7.96-9.85.14-5.55-3.2-10.13-7.46-10.24-4.26-.11-7.83,4.31-7.96,9.86Z"/>
    <path d="m474.56,24.9c-.12,4.15-2.81,7.44-6,7.35s-5.69-3.53-5.57-7.68c.12-4.15,2.8-7.45,6-7.36s5.69,3.53,5.56,7.69Zm-5.49-10.19c-4.26-.12-7.85,4.27-8,9.81-.15,5.54,3.17,10.12,7.43,10.24,4.25.12,7.83-4.27,8-9.8.17-5.53-3.15-10.12-7.42-10.25Z"/>
    <path d="m106.1,15.6c3.2-.06,5.86,3.27,5.94,7.44.08,4.17-2.44,7.6-5.64,7.66-3.19.06-5.85-3.27-5.93-7.43-.09-4.17,2.44-7.6,5.63-7.66Zm-7.56,7.7c.12,5.56,3.66,9.99,7.91,9.91,4.25-.08,7.62-4.65,7.52-10.21-.1-5.56-3.65-10-7.91-9.92-4.27.09-7.63,4.66-7.51,10.22Z"/>
    <path d="m142.89,22.52c.06,4.18-2.48,7.6-5.67,7.65-3.19.05-5.83-3.29-5.9-7.47s2.47-7.6,5.66-7.65c3.2-.05,5.84,3.3,5.9,7.47Zm-5.95-9.99c-4.27.07-7.65,4.64-7.55,10.2.09,5.56,3.62,10.02,7.87,9.95,4.25-.06,7.64-4.63,7.56-10.19-.08-5.57-3.61-10.03-7.87-9.96Z"/>
  </g>
  <g class="dullIndigoDark">
    <path d="m23.86,4.53c5.28,165.27,7.52,330.61,7,495.97,10.01-1.22,20.01-2.45,30.02-3.69.41-163.17-1.51-326.33-5.98-489.43-10.34-.98-20.69-1.93-31.04-2.85Zm16.36,30.23c-4.25.12-7.83-4.27-8-9.8-.17-5.53,3.15-10.12,7.42-10.25,4.26-.12,7.85,4.27,8,9.81.15,5.54-3.17,10.12-7.43,10.24Z"/>
    <path d="m93.12,499.14c-.9.6-1.35.9-2.25,1.5.38-165.96-1.27-331.91-5.14-497.82.94.58,1.41.87,2.36,1.45,3.78,164.93,5.4,329.89,5.04,494.86Z"/>
    <path d="m156.88,1.52c2.24,166.4,3.2,332.82,2.98,499.24,10-1.25,20-2.5,30-3.76.13-164.02-.51-328.04-2-492.05-10.32-1.17-20.65-2.32-30.98-3.43Zm15.81,30.71c-4.25.05-7.76-4.43-7.82-10-.07-5.57,3.34-10.13,7.6-10.18,4.27-.05,7.77,4.44,7.83,10.01.06,5.57-3.35,10.12-7.6,10.17Z"/>
    <path d="m222.11,499.29c-.9.61-1.35.91-2.25,1.51.08-166.62-.27-333.24-1.09-499.85.93.6,1.4.9,2.33,1.5.76,165.61,1.08,331.22,1.01,496.84Z"/>
    <path d="m223.41.93c.71,166.63,1.01,333.25.95,499.88,10-1.26,20-2.52,30-3.78,0-164.12,0-328.25,0-492.37-10.31-1.27-20.63-2.51-30.94-3.72Zm15.54,30.88c-4.25,0-7.72-4.5-7.73-10.08-.02-5.58,3.43-10.11,7.69-10.12,4.27,0,7.73,4.51,7.73,10.09,0,5.58-3.44,10.1-7.69,10.11Z"/>
    <path d="m286.6,499.29c-.9.61-1.35.91-2.25,1.52-.07-166.63.24-333.25.95-499.88.93.61,1.39.91,2.31,1.53-.76,165.61-1.08,331.22-1.01,496.84Z"/>
    <path d="m289.94.95c-.82,166.62-1.17,333.24-1.09,499.85,10-1.27,20-2.54,29.99-3.8-.13-164.02.51-328.04,2-492.05-10.3-1.36-20.6-2.69-30.91-4Zm15.26,31.01c-4.25-.03-7.68-4.57-7.65-10.14.03-5.58,3.52-10.08,7.78-10.05,4.27.03,7.69,4.58,7.64,10.15-.04,5.58-3.53,10.07-7.78,10.04Z"/>
    <path d="m351.09,499.24c-.9.61-1.35.91-2.25,1.52-.22-166.42.74-332.83,2.98-499.24.92.62,1.38.93,2.3,1.54-2.27,165.38-3.24,330.78-3.03,496.18Z"/>
    <path d="m356.46,1.58c-2.35,166.38-3.35,332.77-3.12,499.17,10-1.27,19.99-2.55,29.99-3.82-.27-163.7,1.02-327.39,4-491.07-10.29-1.45-20.58-2.88-30.87-4.28Zm14.98,31.1c-4.25-.06-7.64-4.63-7.56-10.19.08-5.57,3.61-10.03,7.87-9.96,4.27.07,7.65,4.64,7.55,10.2-.09,5.56-3.62,10.02-7.87,9.95Z"/>
    <path d="m415.59,499.14c-.9.61-1.35.91-2.25,1.51-.37-165.99,1.24-331.98,5-497.93.91.62,1.37.94,2.29,1.56-3.78,164.93-5.4,329.89-5.04,494.86Z"/>
    <path d="m422.98,2.83c-3.87,165.91-5.52,331.86-5.14,497.82,10-1.28,19.99-2.56,29.99-3.83-.41-163.17,1.51-326.33,5.98-489.43-10.27-1.54-20.55-3.06-30.83-4.55Zm14.7,31.14c-4.25-.1-7.6-4.68-7.47-10.23.13-5.55,3.7-9.97,7.96-9.86,4.26.11,7.6,4.69,7.46,10.24s-3.7,9.96-7.96,9.85Z"/>
    <path d="m480.09,498.99c-.9.6-1.35.91-2.24,1.51-.53-165.36,1.72-330.69,7-495.97.91.63,1.36.95,2.27,1.58-5.28,164.24-7.54,328.55-7.02,492.88Z"/>
    <path d="m90.36,2.72c3.76,165.95,5.37,331.94,5,497.93,10-1.24,20.01-2.48,30.01-3.73.27-163.7-1.02-327.39-4-491.07-10.33-1.07-20.67-2.12-31.01-3.14Zm16.09,30.49c-4.25.08-7.79-4.35-7.91-9.91-.12-5.56,3.24-10.13,7.51-10.22,4.27-.09,7.81,4.36,7.91,9.92.1,5.56-3.26,10.13-7.52,10.21Z"/>
    <path d="m157.61,499.24c-.9.6-1.35.91-2.25,1.51.23-166.4-.78-332.79-3.12-499.17.94.59,1.41.89,2.34,1.48,2.27,165.38,3.24,330.78,3.03,496.18Z"/>
  </g>
  <g class="dullIndigoMediumDark">
    <path d="m28.61,498.99c.9.6,1.35.91,2.24,1.51.53-165.36-1.72-330.69-7-495.97-.91.63-1.36.95-2.27,1.58,5.28,164.24,7.54,328.55,7.02,492.88Z"/>
    <path d="m54.89,7.38c4.46,163.11,6.39,326.27,5.98,489.43,10,1.28,19.99,2.55,29.99,3.83.38-165.96-1.27-331.91-5.14-497.82-10.28,1.49-20.56,3.01-30.83,4.55Zm8.17,16.74c-.14-5.55,3.2-10.13,7.46-10.24s7.83,4.31,7.96,9.86c.13,5.55-3.21,10.13-7.47,10.23-4.25.1-7.81-4.31-7.96-9.85Z"/>
    <path d="m157.61,499.24c.9.61,1.35.91,2.25,1.52.22-166.42-.74-332.83-2.98-499.24-.92.62-1.38.93-2.3,1.54,2.27,165.38,3.24,330.78,3.03,496.18Z"/>
    <path d="m187.86,4.95c1.49,164.01,2.14,328.03,2,492.05,10,1.27,20,2.54,29.99,3.8.08-166.62-.27-333.24-1.09-499.85-10.31,1.31-20.61,2.64-30.91,4Zm7.87,16.97c-.04-5.58,3.38-10.12,7.64-10.15,4.27-.03,7.75,4.47,7.78,10.05.03,5.58-3.39,10.12-7.65,10.14-4.25.03-7.74-4.46-7.78-10.04Z"/>
    <path d="m222.11,499.29c.9.61,1.35.91,2.25,1.52.07-166.63-.24-333.25-.95-499.88-.93.61-1.39.91-2.31,1.53.76,165.61,1.08,331.22,1.01,496.84Z"/>
    <path d="m254.35,4.65c0,164.12,0,328.25,0,492.37,10,1.26,20,2.52,30,3.78-.07-166.63.24-333.25.95-499.88-10.32,1.21-20.63,2.45-30.94,3.72Zm7.71,17.05c0-5.58,3.47-10.1,7.74-10.09,4.27,0,7.71,4.54,7.69,10.12-.02,5.58-3.48,10.09-7.73,10.08-4.25,0-7.7-4.53-7.69-10.11Z"/>
    <path d="m286.6,499.29c.9.61,1.35.91,2.25,1.51-.08-166.62.27-333.24,1.09-499.85-.93.6-1.4.9-2.33,1.5-.76,165.61-1.08,331.22-1.01,496.84Z"/>
    <path d="m320.85,4.95c-1.49,164.01-2.14,328.03-2,492.05,10,1.25,20,2.51,30,3.76-.22-166.42.74-332.83,2.98-499.24-10.33,1.12-20.65,2.26-30.98,3.43Zm7.56,17.1c.06-5.57,3.56-10.06,7.83-10.01,4.27.05,7.67,4.61,7.6,10.18-.07,5.57-3.57,10.05-7.82,10-4.25-.05-7.66-4.6-7.6-10.17Z"/>
    <path d="m351.09,499.24c.9.6,1.35.91,2.25,1.51-.23-166.4.78-332.79,3.12-499.17-.94.59-1.41.89-2.34,1.48-2.27,165.38-3.24,330.78-3.03,496.18Z"/>
    <path d="m387.33,5.86c-2.98,163.67-4.27,327.37-4,491.07,10,1.24,20,2.49,30.01,3.72-.37-165.99,1.24-331.98,5-497.93-10.34,1.02-20.68,2.07-31.01,3.14Zm7.4,17.14c.1-5.56,3.65-10,7.91-9.92,4.27.09,7.63,4.66,7.51,10.22-.12,5.56-3.66,9.99-7.91,9.91-4.25-.08-7.62-4.65-7.52-10.21Z"/>
    <path d="m415.59,499.14c.9.6,1.35.9,2.25,1.5-.38-165.96,1.27-331.91,5.14-497.82-.94.58-1.41.87-2.36,1.45-3.78,164.93-5.4,329.89-5.04,494.86Z"/>
    <path d="m453.81,7.38c-4.46,163.11-6.39,326.27-5.98,489.43,10,1.23,20.01,2.46,30.02,3.69-.53-165.36,1.72-330.69,7-495.97-10.35.92-20.69,1.87-31.04,2.85Zm7.25,17.14c.15-5.54,3.74-9.93,8-9.81s7.58,4.71,7.42,10.25-3.74,9.92-8,9.8-7.58-4.7-7.43-10.24Z"/>
    <path d="m93.12,499.14c.9.61,1.35.91,2.25,1.51.37-165.99-1.24-331.98-5-497.93-.91.62-1.37.94-2.29,1.56,3.78,164.93,5.4,329.89,5.04,494.86Z"/>
    <path d="m121.37,5.86c2.98,163.67,4.27,327.37,4,491.07,10,1.27,19.99,2.55,29.99,3.82.23-166.4-.78-332.79-3.12-499.17-10.29,1.4-20.58,2.83-30.87,4.28Zm8.02,16.86c-.09-5.56,3.29-10.13,7.55-10.2,4.27-.07,7.79,4.39,7.87,9.96.08,5.57-3.3,10.13-7.56,10.19-4.25.06-7.78-4.39-7.87-9.95Z"/>
  </g>
  <g class="steelDark">
    <path d="m.51,22.95c.18,5.18,4.63,9.23,9.95,9.06,5.32-.17,9.5-4.5,9.34-9.69-.16-5.18-4.62-9.25-9.96-9.07-5.33.18-9.51,4.52-9.33,9.7Z"/>
    <path d="m508.2,22.95c-.18,5.18-4.63,9.23-9.95,9.06-5.32-.17-9.5-4.5-9.34-9.69s4.62-9.25,9.96-9.07c5.33.18,9.51,4.52,9.33,9.7Z"/>
  </g>
  <g class="steelMedium">
    <path d="m76.48,25.3c.53-3.32-1.26-8.87-5.89-8.91-10.29.25-20.59.53-30.88.83-4.62.29-6.11,5.91-5.4,9.19,14.05-.4,28.11-.77,42.17-1.11Z"/>
    <path d="m209.11,23.34c.59-3.32-1.1-8.93-5.73-9.05-10.3.07-20.59.16-30.89.28-4.62.2-6.21,5.83-5.56,9.14,14.06-.16,28.12-.28,42.18-.37Z"/>
    <path d="m142.79,24.03c.56-3.32-1.18-8.9-5.81-8.98-10.29.16-20.59.34-30.88.55-4.62.25-6.16,5.88-5.48,9.17,14.06-.28,28.11-.53,42.17-.74Z"/>
    <path d="m275.44,23.23c.62-3.32-1.02-8.94-5.65-9.1-10.3-.02-20.59-.03-30.89,0-4.62.16-6.26,5.78-5.65,9.1,14.06-.03,28.12-.03,42.18,0Z"/>
    <path d="m341.77,23.71c.65-3.31-.94-8.94-5.56-9.14-10.3-.12-20.59-.21-30.89-.28-4.62.12-6.31,5.73-5.73,9.05,14.06.09,28.12.21,42.18.37Z"/>
    <path d="m408.08,24.77c.68-3.3-.86-8.93-5.48-9.17-10.29-.21-20.59-.39-30.88-.55-4.63.08-6.37,5.66-5.81,8.98,14.06.21,28.12.46,42.17.74Z"/>
    <path d="m474.39,26.4c.7-3.28-.78-8.9-5.4-9.19-10.29-.3-20.58-.58-30.88-.83-4.63.04-6.42,5.59-5.89,8.91,14.06.33,28.11.7,42.17,1.11Z"/>
    <path d="m18.87,17.85c-1.48.05-1.2,9.06.29,9.01,1.23-.04,1.85-.06,3.08-.09-.11-3.6-.17-5.41-.28-9.01-1.23.04-1.85.06-3.09.1Z"/>
    <path d="m489.83,17.85c1.48.05,1.2,9.06-.29,9.01-1.23-.04-1.85-.06-3.08-.09.11-3.6.17-5.41.28-9.01,1.23.04,1.85.06,3.09.1Z"/>
  </g>
</svg>