<svg viewBox="0 0 545.58 47.58">
  <rect class="steelDark" x="17.99" y=".5" width="512" height="40"/>
  <g class="steelMediumDark">
    <path d="m27.98,12.83l.02,8,9.6-.02-.02-8c-.01-6.44-9.61-6.42-9.6.02Z"/>
    <path d="m123.98,12.92l.02,8,9.6-.02-.02-8c-.01-6.44-9.61-6.42-9.6.02Z"/>
    <path d="m219.98,12.92l.02,8,9.6-.02-.02-8c-.01-6.44-9.61-6.42-9.6.02Z"/>
    <path d="m315.98,12.92l.02,8,9.6-.02-.02-8c-.01-6.44-9.61-6.42-9.6.02Z"/>
    <path d="m411.98,12.92l.02,8,9.6-.02-.02-8c-.01-6.44-9.61-6.42-9.6.02Z"/>
    <path d="m507.98,12.92l.02,8,9.6-.02-.02-8c-.01-6.44-9.61-6.42-9.6.02Z"/>
  </g>
  <g class="steelMedium">
    <path d="m.54,30.71l1.04,7.93,63.45-8.35-1.04-7.93c-.87-6.57-15.77-10.03-33.29-7.72S-.33,24.14.54,30.71Z"/>
    <path d="m96.56,29.3l.7,7.97,63.76-5.58-.7-7.97c-.58-6.6-15.32-10.71-32.92-9.17-17.61,1.54-31.41,8.14-30.83,14.74Z"/>
    <path d="m192.64,27.9l.35,7.99,63.94-2.79-.35-7.99c-.29-6.62-14.84-11.36-32.49-10.59s-31.74,6.76-31.45,13.38Z"/>
    <path d="m288.99,25.11l-.35,7.99,63.94,2.79.35-7.99c.29-6.62-13.79-12.61-31.45-13.38s-32.2,3.97-32.49,10.59Z"/>
    <path d="m385.26,23.73l-.7,7.97,63.76,5.58.7-7.97c.58-6.6-13.23-13.2-30.83-14.74-17.61-1.54-32.35,2.56-32.92,9.17Z"/>
    <path d="m481.58,22.36l-1.04,7.93,63.45,8.35,1.04-7.93c.87-6.57-12.64-13.77-30.16-16.07-17.52-2.31-32.43,1.15-33.29,7.72Z"/>
  </g>
  <g class="bulbGreen">
    <ellipse cx="129.14" cy="34.48" rx="32" ry="12" transform="translate(-2.51 11.39) rotate(-5)"/>
    <ellipse cx="320.61" cy="34.5" rx="12" ry="32" transform="translate(272.16 353.3) rotate(-87.5)"/>
    <ellipse cx="512.27" cy="34.47" rx="12" ry="32" transform="translate(411.23 537.85) rotate(-82.5)"/>
  </g>
  <g class="bulbBlue">
    <ellipse cx="33.31" cy="34.47" rx="32" ry="12" transform="translate(-4.21 4.64) rotate(-7.5)"/>
    <ellipse cx="224.96" cy="34.5" rx="32" ry="12" transform="translate(-1.29 9.85) rotate(-2.5)"/>
    <ellipse cx="416.44" cy="34.48" rx="12" ry="32" transform="translate(345.79 446.33) rotate(-85)"/>
  </g>
</svg>