<svg viewBox="0 0 176.5 226.5">
  <g class="rubberDark">
    <circle cx="29.34" cy="213.92" r="12.08"/>
    <circle cx="141.47" cy="213.92" r="12.08"/>
  </g>
  <g class="steelMedium">
    <circle cx="29.34" cy="213.92" r="5.67"/>
    <circle cx="141.47" cy="213.92" r="5.67"/>
    <path d="M176,197.14l-8.81-.38c-2.55-62.44-2.54-126.77.16-191.58.38-6.56,9-6.06,8.63.49C173.58,70.68,173.5,135.05,176,197.14Z"/>
  </g>
  <g class="brassMedium">
    <path d="M32.29,194.58v18.6c0,3.7-4.19,4.44-5.68,1.62L18,195.19Z"/>
    <path d="M144.18,194.58v18.6c0,3.7-4.19,4.44-5.68,1.62l-8.61-19.61Z"/>
  </g>
  <path class="brassDarkest" d="M.5,197.41V180.65c54.42-2.21,109.24-2.06,166.61,0l.24,17.25C125.21,195.44,40.43,195,.5,197.41Z"/>
</svg>
