<svg viewBox="0 0 122.04 280.45">
  <g class="dullTurquoiseMedium">
    <path d="M.5,2.97C40.8-.32,81.24-.32,121.54,2.97c-1.33,46.7-2.34,93.4-3.06,140.11-5.22,3.69-10.43,7.42-15.62,11.16-27.89-.18-55.79-.18-83.68,0-5.19-3.74-10.4-7.46-15.62-11.16C2.84,96.37,1.83,49.66,.5,2.97Z"/>
    <path d="M102.86,154.24c-27.89-.18-55.79-.18-83.68,0,.35,36.93,.56,73.86,.67,110.79-4.98,5-9.99,9.98-15.02,14.93H117.21c-5.06-4.95-10.1-9.92-15.11-14.92,.13-36.93,.38-73.87,.76-110.8Z"/>
  </g>
  <path class="dullTurquoiseDark" d="M27.76,166.32c22.18-.04,44.35-.04,66.53,0-.25,32.94-.42,65.88-.51,98.82H28.26c-.09-32.94-.26-65.88-.51-98.82Z"/>
  <path class="dullTurquoiseLight" d="M11.25,138.88c33.18-.47,66.35-.47,99.53,0,.56-41.2,1.31-82.39,2.28-123.57-34.67-2.26-69.42-2.26-104.09,0,.97,41.19,1.72,82.38,2.28,123.57Z"/>
  <path class="steelMedium" d="M101.53,29.75c-2.2-.64-5.21,.72-5.21,3.1,0,1.91,1.72,3.6,3.71,3.74h0c-.44,26.88-.82,53.77-1.14,80.65-3.6-.11-5.05,5.06-1.78,6.72h0s2.67,1.09,3.55,1.15c2.02,.15,4.88-1.33,4.69-3.8,.16-28.65,.46-57.29,1.41-85.93,.24-3.01-2.77-4.91-5.24-5.63Z"/>
  <path class="paperLight" d="M18.12,127.43c23.47-.37,46.95-.45,70.42-.21,.26-33.41,.6-66.82,1.01-100.23-24.34-.78-48.68-.55-73,.69,.64,33.25,1.16,66.49,1.57,99.74Z"/>
  <g class="paperDark">
    <path d="M21.78,46.26c20.95-.83,41.9-1,62.86-.51,.05-4.87,.09-9.73,.14-14.6-21.09-.54-42.17-.35-63.24,.58,.08,4.85,.16,9.69,.24,14.54Z"/>
    <path d="M22.79,120.64c20.41-.33,40.83-.4,61.24-.21,.02-2.43,.03-4.87,.05-7.3-20.46-.22-40.92-.14-61.38,.24,.03,2.42,.06,4.85,.08,7.27Z"/>
  </g>
  <path class="dullBlueMedium" d="M55.81,74.55c4.15,2.92,8.59,5.34,12.94,7.94,3.23,1.93,7.45,4.07,8.79,7.72,2.14,5.84,2.59,12.23,2.95,18.58-19.02-.18-38.05-.09-57.07,.28-.39-6.28-.44-12.55,1.12-18.5,.94-3.59,4.9-5.89,7.89-7.82,4.19-2.71,8.5-5.21,12.56-8.11,3.6-.04,7.21-.08,10.81-.09Z"/>
  <path class="dullAmberMedium" d="M59.86,72.66c2.31,1.58,2.6,5.58,.36,7.37-7.5,7.85-11.2,18.56-14.4,28.71-2.43-9.81-5.65-19.5-5.23-29.73-.92-2.01-1.09-5.41,1.11-6.76,6.06,.1,12.11,.23,18.17,.41Z"/>
  <path class="skinBlack" d="M38.54,64.44c1.26-5.5-1.33-12.77,2.77-17.47,6.89-7.91,24.8-5.29,25.16,6.75,.28,9.58-4.41,23.71-16.06,23.67-5.98-.02-13.34-6.56-11.87-12.95Z"/>
</svg>