<svg viewBox="0 0 146.85 324.26">
  <g class="dullBlueDark">
    <path d="M3.42,323.76H143.43c.11-38.94,.38-77.89,.83-116.83-47.22,.11-94.45,.11-141.67,0,.45,38.94,.73,77.89,.83,116.83Z"/>
    <path d="M104.66,.98c-20.82-.64-41.64-.64-62.46,0,.33,27.2,.62,54.39,.88,81.59,20.23-.38,40.47-.38,60.7,0,.25-27.2,.55-54.39,.88-81.59Z"/>
  </g>
  <g class="dullBlueMedium">
    <path d="M144.26,206.93c-47.22,.11-94.45,.11-141.67,0-.49-40.97-1.18-81.95-2.09-122.91,48.59-2.27,97.26-2.27,145.85,0-.91,40.97-1.6,81.94-2.09,122.91Z"/>
    <path d="M95.86,8.97c-14.96-.31-29.91-.31-44.87,0,.07,7.74,.13,15.49,.19,23.23,14.83-.27,29.66-.27,44.48,0,.06-7.74,.13-15.49,.19-23.23Z"/>
    <path d="M133.83,314.4H13.02c-.1-32.54-.3-65.07-.6-97.61,40.67,.22,81.34,.22,122.01,0-.3,32.54-.5,65.07-.6,97.61Z"/>
  </g>
  <path class="paperLight" d="M128.88,191.16c-36.97-.12-73.94-.12-110.91,0-.32-30.68-.72-61.35-1.22-92.03,37.78-1.19,75.57-1.19,113.35,0-.5,30.68-.9,61.35-1.22,92.03Z"/>
  <g class="paperDark">
    <path d="M39.22,185.69c-5.35,.02-10.7,.03-16.04,.06-.26-27.07-.59-54.13-.97-81.19,5.45-.15,10.9-.27,16.35-.38,.26,27.17,.49,54.35,.67,81.52Z"/>
    <path d="M123.49,185.75c-5.35-.02-10.7-.04-16.04-.06,.18-27.17,.4-54.35,.66-81.52,5.45,.11,10.9,.24,16.35,.38-.39,27.07-.71,54.13-.97,81.2Z"/>
    <path d="M60.24,185.65c-5.35,0-10.69,.02-16.04,.03-.07-12.41-.15-24.83-.23-37.24,5.39-.05,10.78-.08,16.17-.1,.04,12.44,.07,24.88,.1,37.32Z"/>
    <path d="M81.44,185.64c-5.35,0-10.69,0-16.04,0-.02-12.44-.04-24.89-.06-37.33,5.39-.01,10.78-.01,16.17,0-.02,12.44-.04,24.89-.06,37.33Z"/>
    <path d="M102.46,185.68c-5.35-.01-10.69-.02-16.04-.03,.03-12.44,.07-24.88,.1-37.32,5.39,.02,10.78,.06,16.17,.1-.08,12.41-.16,24.83-.23,37.24Z"/>
    <path d="M103.01,104.08c-19.79-.3-39.58-.3-59.37,0,.11,13.22,.21,26.45,.31,39.67,19.59-.18,39.17-.18,58.76,0,.09-13.23,.19-26.45,.3-39.68Z"/>
  </g>
  <g class="steelMedium">
    <path d="M89.68,16.54c.01-1.94-2.95-1.98-2.96-.04-.01,2.63-.03,5.25-.04,7.88,0,2,2.94,2.04,2.95,.04,.02-2.62,.03-5.25,.05-7.87Z"/>
    <path d="M70.59,37.99c0,1.45,1.23,2.62,2.74,2.62,1.51,0,2.74-1.17,2.74-2.62,0-1.45-1.22-2.63-2.74-2.63s-2.74,1.18-2.74,2.63Z"/>
    <path d="M90.29,47.11c-1.82-.03-3.64-.05-5.46-.06,0,1.05,0,1.58-.01,2.63,1.82,.02,3.64,.04,5.45,.06,5.1-.11,4.93,7.28-.04,7.31-1.81-.02-3.63-.05-5.44-.06,0,1.05,0,1.58,0,2.63,1.81,.01,3.62,.03,5.44,.06,8.42-.24,8.49-12.28,.07-12.56Z"/>
    <path d="M62.06,56.99c-1.81,.02-3.63,.04-5.44,.06-5.06,.11-5.05-7.28-.04-7.31,1.82-.03,3.64-.05,5.45-.06,0-1.05,0-1.58-.01-2.63-1.82,.02-3.64,.04-5.46,.06-8.38,.38-8.39,12.42,.07,12.56,1.81-.02,3.62-.04,5.44-.06,0-1.05,0-1.58,0-2.63Z"/>
    <path d="M84.84,45.36c-7.61-.06-15.21-.06-22.82,0,.02,5.31,.04,10.63,.06,15.94,1.24-.01,1.86-.02,3.1-.02,.03,10.13,.05,20.26,.08,30.39,5.45-.02,10.89-.02,16.34,0,.02-10.13,.05-20.26,.08-30.39,1.24,0,1.86,.01,3.1,.02,.02-5.31,.04-10.63,.06-15.94Z"/>
  </g>
</svg>