<svg viewBox="0 0 383.62 347.24">
  <g class="patinaDarkest">
    <rect x="349.62" y="150.44" width="30.1" height="41.49"/>
    <rect x="3.39" y="150.44" width="28.06" height="41.49"/>
    <path d="M353.71,315.06l-2.04,19.05h-4.42c-.03-2.68-1.73-16.48-1.7-19.05h8.16Z"/>
    <polygon points="27.37 315.91 30.43 333.42 34.51 333.08 35.7 315.4 27.37 315.91"/>
    <path d="M66.14,24.94c0-3.63-.04-7.26,.02-10.88,.02-1.22-.43-2.35-.41-3.57,.01-1.04-1.18-1.39-1.99-.68-1.3,1.14-1.18,2.79-1.32,4.25-.34,3.39-.22,6.8-.21,10.2l3.91,.68Z"/>
    <polygon points="54.41 27.66 54.24 76.81 21.42 76.81 54.41 27.66"/>
  </g>
  <g class="rubberDark">
    <path d="M40.8,324.24c-2.33-.16-4.64-.29-6.98,.14-2.16,.4-3.38,1.22-3.9,3.26-1.19,4.74-1.29,9.5-.19,14.28,.35,1.5,1.14,2.7,2.23,3.73,.9,.85,1.99,1.24,3.22,1.02,1.24-.23,2.49-.16,3.74-.15,1.46,0,2.64-.41,3.23-1.88l-1.36-20.41Z"/>
    <path d="M339.93,345.16c1.66,.5,3.39,.83,5.1,.64,1.85-.21,3.99,.13,5.41-1.36,1.71-1.79,2.35-4.13,2.42-6.6v-1.36c.33-2.91,.17-5.8-.34-8.67-.52-2.91-1.51-3.59-4.41-4.15-2-.39-3.87-.02-5.79,.1-.93,.06-1.78,.59-2.55,1.16l.17,20.24Z"/>
  </g>
  <g class="steelDark">
    <path d="M42.16,324.96c-1.66-1.1-2.45-.8-2.88,1.19-.75,3.42-.66,6.9-.49,10.37,.11,2.29,.32,4.58,.99,6.81,.32,1.07,.78,2.04,1.59,2.76,1.15-.15,1.54-.78,1.86-1.73,.89-2.67,.97-5.42,1.15-8.17l-2.21-11.22Z"/>
    <path d="M341.97,326.07c1.2,1.74,1.49,3.84,1.62,5.79,.22,3.52,.36,7.09-.88,10.56-.34,.94-.88,1.68-1.46,2.32-.69,.76-1.76,.76-2.49-.14-.87-1.09-1.38-2.35-1.75-3.72-1.2-4.44-.96-8.79,.54-13.1l4.42-1.7Z"/>
  </g>
  <g class="patinaDarker">
    <polygon points="32.3 191.26 32.64 179.72 5.09 191.09 32.3 191.26"/>
    <path d="M352,191.15c.6,.21,25.85-.41,25.85-.41l-25.51-9.86s-.34,6.63-.34,10.27Z"/>
    <path d="M335.51,315.74c-.4,3.18-.03,6.36,.21,9.52,.26,3.36,.65,6.72,1.31,10.04,.03,.16-.06,.38,.01,.5,.55,.9,.61,2.31,2.03,2.36,1.3,.05,1.66-1.16,2-2.03,1.09-2.77,1.39-5.74,1.7-8.66,.41-3.8,1.19-7.55,1.23-11.39,0-.26,.28-.3,.5-.34h-9.01Z"/>
    <path d="M38.76,316.76c-.11,5.42,.44,10.81,1.25,16.15,.27,1.79,.35,3.87,2.15,5.11l1.36,.17c.95-1.15,1.49-2.46,1.94-3.89,.27-.87,.25-1.73,.4-2.58,.93-5.05,1.21-10.17,1.4-15.3l-8.5,.34Z"/>
    <path d="M194.87,6.41c-1.08,0-2.15,0-3.23,0-2.14-.02-3.41,1.26-3.4,3.4,.01,3.29,0,6.58,0,9.94,2.2,.42,4.41,.35,6.63,.09V6.41Z"/>
    <path d="M64.78,9.47c-1.71-.21-3.89-.35-5.62-.08-1.47,.23-2.19,1.15-2.46,2.14-.36,1.36-.82,2.75-.79,4.23,.07,3.4,.02,6.8,.02,10.28,2.99,.29,3.9,.26,6.72,.69-.85-7.48-.17-17.52,2.13-17.26Z"/>
    <rect x="52.37" y="25.96" width="142" height="51.02"/>
  </g>
  <g class="patinaMediumDark">
    <path d="M188.24,14.06c-5.73-.01-26.58-.17-37.75,.09-10.37,.25-20.75,.47-31.12,.72-4.37,.11-8.74,.25-13.09,.47-5.9,.31-11.8,.45-17.69,.87-4.13,.29-8.28,.53-12.41,.66-3.68,.12-7.19,.59-10.88,.43-.88-.04-1.28-.29-1.53-1.21-.33-1.19-.33-2.38,.14-3.75,.17-.88,.89-1.15,1.73-1.2,3.4-.21,6.64-.41,10.04-.6,4.25-.24,8.5-.51,12.75-.69,4.82-.21,9.64-.33,14.45-.72,2.66-.21,5.32,.03,8-.28,3.2-.38,6.45,0,9.69-.36,3.32-.37,6.68-.02,10.03-.31,4.91-.41,9.86-.25,14.79-.34,13.49-.24,36.22-.25,43.36-.08-.51,1.19-.5,3.8-.51,6.29Z"/>
    <path d="M360.34,76.98c-4.93,80.44-4.93,160.87,0,241.31-114.1-2.45-226.4-2.54-336.71,0,4.9-78.93,5.48-158.81,1.87-239.61l334.84-1.7Z"/>
  </g>
  <path class="flatYellowMediumDark" d="M341.63,91.27c-7.77,.05-15.53,.38-23.29,.61-5.16,.15-10.33-.08-15.47,.3-3.98,.29-7.96-.04-11.9,.36-3.47,.35-6.93,.06-10.38,.27-6.74,.41-13.51,.04-20.23,.43-4.48,.26-8.97-.03-13.52,.33-.48,20.72,.49,41.35,.23,61.78,.48,.55,.87,.36,1.21,.36,11.96,.17,23.92-.32,35.88-.44,5.83-.06,11.69,.12,17.51-.29,4.09-.29,8.19,.06,12.24-.34,3.87-.38,7.72-.02,11.57-.3,5.21-.38,10.43-.45,15.65-.64,.83-.03,1.23-.36,1.19-1.2-.01-.34,0-.68,0-1.02,0-19.33,0-38.66,0-57.99,0-.69,.16-1.42-.34-2.04l-.34-.17Z"/>
  <path class="flatRedMediumDark" d="M325.99,101.3c-.46,.08-.85,.38-1.36,.35-3.41-.2-6.79,.45-10.2,.36-4.59-.12-9.19,.24-13.77,.42-3,.11-6.03-.06-9.01,.27-5.33,.58-10.68-.08-15.98,.37-5.23,.45-10.44,.12-15.65,.24-1.02,.02-1.88,.66-3.05,.28-.14,7.52,.71,14.77,.22,22.25,3.17-.28,6.07,.37,8.96-.38,.37-.1,.79-.01,1.19-.01,3.34,0,6.69-.05,10.03,.01,6.64,.12,13.26-.4,19.9-.45,2.76-.02,5.59,.08,8.32-.3,2.68-.38,5.35-.05,8-.3,3.96-.37,7.97-.25,11.89-.76,2.15-.28,4.43,.32,6.65-.84v-21.51h-6.12Z"/>
  <path class="garbageBagRear" d="M194.36,78v-20.82c-4.48-3.32-9.54-6.03-15.31-7.23-3.64-.76-7.31-.41-10.87,.39-2.92,.66-5.33-.16-7.66-1.61-2.59-1.61-5.26-2.84-8.34-3.24-3.97-.51-7.67,.37-11.02,2.29-3.07,1.76-6.28,2.72-9.72,3.18-.9,.12-1.67-.35-2.55-.37-5.26-.16-9.5,1.97-13.1,5.63-1.21,1.23-2.38,2.5-3.61,3.7-.71,.7-.82,1.38-.82,2.25,.01,5.5,0,11,0,16.5l82.99-.68Z"/>
  <path class="garbageBagFront" d="M133.82,75.11c-1.13-2.6-2.37-5.15-4.25-7.31-2.97-3.4-6.41-6.08-10.87-7.35-3.32-.94-6.43-2.43-9.19-4.56-3.03-2.33-6.55-2.58-10.2-2.59-4.89,0-9.61,1.38-14.46,1.51-2.4,.07-4.78-.55-7.15-1.1-3.97-.93-8-1.5-12.07-.39-1.22,.34-2.4,.85-3.37,1.58-2.37,1.79-5,3.06-7.69,4.19-4.56,1.92-7.35,5.52-9.49,9.72-1.09,2.13-1.67,4.47-2.23,6.79l90.98-.51Z"/>
  <g class="patinaDark">
    <path d="M383.12,154.55c0-2.62-1.1-4.61-3.02-6.38l-22.2-20.9c-.3,8.29-.54,16.58-.73,24.87h17.15c2.33,0,4.22,1.89,4.22,4.22v29.66c0,2.33-1.89,4.22-4.22,4.22h-17.66c-.03,8.95,0,17.9,.09,26.84l23.66-24.1c1.75-1.76,2.72-3.79,2.72-6.26-.23-11.25-.26-22.03,0-32.16Z"/>
    <path d="M27.8,190.24H9.31c-2.33,0-4.22-1.89-4.22-4.22v-29.66c0-2.33,1.89-4.22,4.22-4.22H27.62c-.11-8.72-.28-17.45-.49-26.19L3.52,148.17c-1.93,1.77-3.02,3.76-3.02,6.38,.26,10.13,.23,20.91,0,32.16,0,2.48,.98,4.51,2.72,6.26l24.31,24.76c.15-9.15,.24-18.32,.27-27.5Z"/>
    <path d="M323.61,161.84c-15.02-.24-30.05,.18-45.06,.45-14.69,.26-29.37,.03-44.05,.24-54.36,.78-108.72,.23-163.08,.23-9.91,0-19.84-.06-29.76-.23-2.31-.04-3.39,1.13-3.4,3.56-.01,2.19,1.05,3.12,3.4,3.24,13.94,.71,27.89,.12,41.83,.33,50.28,.77,100.56,.3,150.84,.22,14.79-.02,29.6,.19,44.38-.31,7.6-.26,15.21,.15,22.79-.31,7.83-.48,15.66,.12,23.47-.35,5.51-.33,11-.12,16.5-.27,3.03-.08,4.85-2.38,3.91-4.93-.58-1.57-1.52-2.2-3.4-2.21-5.56,0-17.83,.34-18.37,.33Z"/>
    <path d="M236.37,236.49c-.6,.29-1.25,.17-1.87,.17-19.67,0-39.34-.16-59.01,.06-12.47,.14-24.95,0-37.41,.36-10.6,.3-21.21-.1-31.8,.33-7.15,.29-14.3-.1-21.43,.33-6.24,.38-12.49-.09-18.71,.33-6.07,.41-12.14,.04-18.2,.33-2.04,.1-4.08,.28-6.12,.29-2.08,0-3.39,1.35-3.6,3.4-.19,1.96,.95,3.56,3.26,3.68,3.1,.16,6.23,.21,9.35-.1,4.3-.42,8.62,.01,12.92-.2,7.42-.36,14.86-.04,22.27-.41,5.73-.28,11.46,.06,17.18-.28,10.83-.64,21.66,.04,32.48-.35,11.74-.43,23.47-.08,35.2-.32,35.77-.71,71.54-.22,107.31-.24,7.93,0,15.88-.05,23.8,.33,6.81,.33,13.62-.06,20.41,.33,5.39,.31,10.77,.32,16.16,.47,1.42,.04,2.79,.35,4.26,0,2.2-.52,3.35-1.64,3.22-3.43-.15-2.19-1.36-3.54-3.57-3.54-3.18,0-6.34-.4-9.52-.42-8.56-.03-17.12-.15-25.68-.4-7.03-.2-14.07,.03-21.09-.27-15.76-.66-31.52-.12-47.28-.32-.79,0-1.59-.11-2.38-.16h-.17Z"/>
    <path d="M194.53,19.67c-11.85,0-23.69-.03-35.54,.02-3.57,.01-7.15,.39-10.71,.29-8.23-.25-16.44,.36-24.66,.45-8.62,.09-17.23,.67-25.85,1.03-7.65,.32-15.31,.8-22.96,1.34-5.39,.38-10.79,.59-16.16,1.28-1.52,.2-3.06-.03-4.6,.33-2.58,.61-4.23,2.46-5.74,4.31-6.46,7.92-12.86,15.9-18.23,24.63-3.3,5.37-6.59,10.76-9.86,16.16-2.1,3.47-1.74,7.17-.84,10.88,.31,1.26,.29,2.65,1.5,3.6,.79,.62,1.56,1.01,2.57,1,5.62-.02,11.22,.51,16.83,.73,5.73,.23,11.45,.47,17.18,.65,10.49,.34,20.97,.71,31.46,1.05,4.08,.13,8.16,.24,12.25,.28,8.84,.07,17.69,.2,26.53,.4,25.11,.57,50.22,.24,75.34,.21,9.97-.01,19.95-.13,29.93-.31,6.07-.11,12.14-.12,18.19-.35,5.1-.2,10.21-.13,15.31-.31,9.35-.33,18.71-.4,28.06-.69,7.43-.23,14.85-.48,22.28-.69,7.71-.22,15.42-.47,23.13-.72,3.06-.1,6.15,.07,9.18-.31,3.07-.38,6.13-.17,9.19-.28,3.98-.14,5.8-1.72,6.24-5.96,.25-2.4,.17-4.85-.95-7.15-.63-1.28-1.67-1.78-2.92-1.84-4.88-.23-9.74,.39-14.62,.42-1.79,0-3.63,.17-5.44,.24-8.56,.31-17.12,.54-25.68,.74-6.92,.16-13.83,.44-20.75,.67-9.35,.31-18.71,.49-28.06,.71-5.16,.12-10.33,0-15.47,.3-6.35,.37-12.7,.09-19.05,.33-8.79,.33-17.57,.25-26.36,.32-6.97,.05-13.95,.4-20.92,.29-12.76-.21-25.51,.06-38.26-.17-6.58-.12-13.16,.12-19.73-.17-7.09-.31-14.18-.04-21.26-.37-5.84-.28-11.68-.17-17.52-.41-6.51-.27-13.04-.4-19.55-.59-6.75-.2-13.49-.48-20.24-.68-5.33-.16-10.65-.64-15.99-.62-.82,0-1.52-.32-2.31-.72,.71-2.26,2.12-4.17,3.19-6.24,5.06-9.79,11.39-18.78,18.02-27.55,.54-.72,1.01-1.48,1.52-2.22,1.91-2.77,4.93-2.93,7.82-3.03,5.79-.2,11.55-.92,17.34-1.13,3.74-.14,7.5-.24,11.22-.63,5.71-.6,11.46-.46,17.18-.96,2.54-.22,5.1-.22,7.65-.31,5.21-.18,10.42-.38,15.64-.47,6.63-.12,13.26-.33,19.9-.49,2.49-.06,4.99-.06,7.48-.13,8.73-.22,17.46-.02,26.19-.24,4.15-.1,8.28,.21,12.42,.07,.4-.01,.82-.08,1.19,.17l-1.7-7.14Z"/>
  </g>
  <path class="rubberMedium" d="M361.53,61.85c1.75-2.45,1.64-5.06,.49-7.64-2.33-5.25-5.08-10.28-8.12-15.16-2.98-4.78-6.16-9.42-9.76-13.72-4.95-5.9-10.2-11.54-16.25-16.4-2.56-2.06-5.07-4.17-8.2-5.19-2.95-.96-6.08-1.04-9.17-1.23-5.27-.34-10.54-.38-15.81-.58-7.2-.26-14.4-.34-21.6-.25-9.41,.12-18.82,.33-28.23,.69-5.44,.21-10.88,.49-16.32,.69-5.1,.19-10.2,.46-15.3,.69-4.87,.22-9.75,.46-14.62,.71-2.26,.11-4.55,.11-6.98,.35v63.68l169.89-6.63Z"/>
  <g class="rubberMediumLight">
    <path d="M283.81,63.72c.02-5.14-.87-10.19-2.1-15.12-2.8-11.29-7.6-21.86-12.2-32.49-1.98-4.56-4.25-8.99-6.8-13.27-.97-1.62-2.91-2.03-4.41-1.02-.97,.65-1.35,1.44-.69,2.55,2.08,3.5,3.74,7.19,5.5,10.86,3.5,7.3,6.6,14.74,9.51,22.29,2.49,6.46,4.23,13.12,5.34,19.92,.37,2.26,.62,4.62,.41,6.96l5.44-.68Z"/>
    <path d="M238.58,64.4c.17-4.54,.09-9.09-.39-13.6-.47-4.37-.76-8.76-1.56-13.12-.48-2.62-.78-5.31-1.12-7.98-.48-3.89-1.31-7.72-1.96-11.58-.75-4.52-1.92-8.94-2.79-13.42-.41-2.12-3.13-3.39-4.92-2.19-.65,.44-.84,.96-.63,2.04,.98,4.91,2.04,9.82,2.91,14.76,.64,3.63,1.38,7.26,1.86,10.91,.29,2.19,.55,4.42,.85,6.61,.4,2.89,.61,5.82,1.22,8.7,.24,1.13,.28,2.37,.39,3.56,.47,5.21,.33,10.43,.35,15.64l5.78-.34Z"/>
    <path d="M323.95,62.36c0-3.29-.8-6.49-1.4-9.69-.92-4.86-2.34-9.59-4.38-14.12-1.72-3.81-3.91-7.37-6.16-10.86-5.89-9.13-12.17-17.99-19.52-26.04-1.29-1.41-2.87-1.52-4.24-.34-.69,.59-.98,1.14-.2,2.05,6.2,7.27,12.12,14.77,17.35,22.78,3.65,5.57,7.49,11.05,9.55,17.5,1.2,3.77,2.55,7.51,3.15,11.41,.37,2.4,1.12,4.81,.75,7.3h5.1Z"/>
  </g>
  <path class="rubberMediumDark" d="M361.7,59.8c-5.04,.34-10.09,.7-15.14,1.01-4.31,.26-8.61,.49-12.92,.68-7.99,.35-15.98,.72-23.98,.91-6.86,.17-13.71,.5-20.58,.68-5.67,.15-11.35,.01-17,.37-5.28,.33-10.55,.07-15.82,.26-12.47,.47-24.95,.1-37.41,.41-9.02,.23-18.03,.14-27.13,.29v10.7c.19,.09,.46,.17,.77,.17,11.05,.05,22.11,.23,33.16,.11,5.67-.06,11.34,.06,17.01-.14,6.52-.23,13.04-.27,19.56-.34,6.41-.07,12.81-.3,19.22-.49,6.75-.2,13.49-.41,20.24-.69,7.14-.29,14.29-.58,21.43-1.03,6.8-.43,13.61-.86,20.41-1.27,5.56-.34,11.1-.92,16.66-1.09,2.78-.08,4.08-1.39,4.61-4.24,.44-2.41,.07-4.48-1.88-6.14-.29-.25-.58-.1-.86-.16h-.34Z"/>
</svg>