<svg viewBox="0 0 108.58 550.84">
  <path class="steelMediumDark" d="M60,536.09q-4.53-154-3.75-308,.27-49,1.08-98.05H45.08q-.8,49-1.08,98.05-.82,154,3.75,308a143.22,143.22,0,0,0-29,4.16C12.19,542,4.62,544.56.5,550.34H108.08c-4.34-5.81-11.71-8.4-18.43-10.14A146,146,0,0,0,60,536.09Z"/>
  <path class="bulbWhite" d="M32.41,23.34a188.92,188.92,0,0,1,42.12,0C79.65,38.13,76.15,59,65.89,71.05H38.76C28.61,58.9,26.86,37.7,32.41,23.34Z"/>
  <g class="brassDark">
    <path d="M32.5,107.66H70.39c-.77,6-2.31,12.46-7,16.64H39C34.34,120.36,33,113.43,32.5,107.66Z"/>
    <path d="M36.09,78.64Q38.74,88.81,41.41,99H45L40.83,82.22h9.29C50,87.81,49.88,93.39,49.76,99h3.63c.12-5.59.23-11.17.36-16.76h9.36Q60.73,90.61,58.36,99H62q3-10.17,6-20.34Z"/>
  </g>
  <g class="patinaDark">
    <path d="M37.19,124.3H65.28c1.45,1,1.36,4.76-.09,5.73H37.09C35.74,129,35.84,125.31,37.19,124.3Z"/>
    <path d="M35.24,71.05H69.37c1.86,1.14,1.66,6.43-.17,7.5H35.07C33.36,77.38,33.51,72.2,35.24,71.05Z"/>
    <path d="M31.93,99H71.49c2.31.88,2.16,7.87-.17,8.68H31.76C29.62,106.63,29.7,99.92,31.93,99Z"/>
    <path d="M32.41,23.34c-6.3-1.65-7.57-7.56-4.42-12.69,0,4.47,8.12,4.38,8.24,0C36.44,5.78,38.66,1,44,.73c6.68-.31,13.52-.3,20.2,0,5.26.23,7.45,5.1,7.2,9.92,0,4.47,8.12,4.38,8.24,0,3.09,5.37.93,11.08-5.17,12.69A188.74,188.74,0,0,0,32.41,23.34Z"/>
  </g>
</svg>
