<svg viewBox="0 0 229 399.82">
  <rect class="mapleDark" x="68.06" y="172.61" width="92.88" height="31.93"/>
  <g class="mapleMedium">
    <path d="M38.07,.5c50.98,2.2,101.87,2.2,152.85,0-1.87,60.71-1.87,121.38,0,182.08-50.98-2.2-101.87-2.2-152.85,0,1.87-60.71,1.87-121.38,0-182.08Z"/>
    <path d="M9.01,220.69c70.33,1.64,140.65,1.64,210.97,0-1.68,59.56-1.37,119.08,.93,178.62H8.08c2.3-59.54,2.61-119.06,.93-178.62Z"/>
  </g>
  <path class="marbleMedium" d="M.5,204.49c76,2.3,151.99,2.3,228,0-.26,6.45-.37,9.68-.59,16.13-75.61,1.9-151.21,1.9-226.82,0-.21-6.45-.33-9.68-.59-16.13Z"/>
  <g class="mapleLightest">
    <path d="M26.82,284.58c26.43,.09,52.86,.14,79.29,.15,0,33.04-.03,66.08-.12,99.12-26.83,.11-53.64,.46-80.46,1.06,.93-33.44,1.36-66.88,1.29-100.33Z"/>
    <path d="M122.89,284.73c26.43-.02,52.86-.07,79.29-.15-.07,33.45,.36,66.89,1.29,100.33-26.82-.6-53.63-.95-80.46-1.06-.09-33.04-.13-66.08-.12-99.12Z"/>
    <path d="M26.25,237.95c58.84,.89,117.66,.89,176.5,0-.21,10.29-.37,20.59-.46,30.89-58.53,.43-117.05,.43-175.58,0-.09-10.3-.25-20.59-.46-30.89Z"/>
  </g>
  <g class="mapleLight">
    <path d="M26.25,237.95c58.84,.89,117.66,.89,176.5,0,.03-1.59,.05-2.38,.08-3.97-58.89,.95-117.77,.95-176.67,0,.03,1.59,.05,2.38,.08,3.97Z"/>
    <path d="M106.11,280.81c-26.44-.02-52.87-.09-79.31-.2,0,1.59,.01,2.38,.02,3.97,26.43,.09,52.86,.14,79.29,.15,0-1.57,0-2.35,0-3.92Z"/>
    <path d="M202.2,280.61c-26.44,.11-52.87,.18-79.31,.2,0,1.57,0,2.35,0,3.92,26.43-.02,52.86-.07,79.29-.15,0-1.59,.01-2.38,.02-3.97Z"/>
  </g>
  <g class="mapleMediumLight">
    <circle cx="133.44" cy="335.04" r="5.38"/>
    <circle cx="95.56" cy="335.04" r="5.38"/>
  </g>
  <path class="marbleDark" d="M10.08,194.83c69.62,2.11,139.22,2.11,208.84,0,3.84,3.91,5.75,5.87,9.57,9.79-76,2.3-151.99,2.3-227.99,0,3.82-3.92,5.74-5.88,9.57-9.79Z"/>
  <path class="glassLight" d="M56.48,19.09c38.69,1,77.34,1,116.03,0-.9,48.3-.9,96.59,0,144.89-38.69-1-77.34-1-116.03,0,.9-48.3,.9-96.59,0-144.89Z"/>
  <g class="glassLightest">
    <path d="M172.28,31.39c-32.99,44.07-65.85,88.24-99.02,132.18-6.71,.14-10.07,.22-16.78,.42,.2-9.82,.29-14.73,.42-24.54,29.81-39.98,59.6-79.98,89.67-119.77,10.38-.17,15.57-.28,25.95-.59-.1,4.92-.15,7.38-.23,12.3Z"/>
    <path d="M92.12,163.27c26.79-35.43,53.33-71.04,79.83-106.69-.05,5.2-.07,7.8-.1,13-23.21,31.3-46.49,62.54-69.99,93.61-3.89,.02-5.84,.04-9.73,.09Z"/>
  </g>
  <g class="steelMedium">
    <path d="M107.5,182.27l2,2-2,17h14l-2-17,2-2c0-7.89-14-7.89-14,0Z"/>
    <polygon points="132.5 191.27 131.5 201.27 139.5 201.27 138.5 191.27 132.5 191.27"/>
    <polygon points="90.5 191.27 89.5 201.27 97.5 201.27 96.5 191.27 90.5 191.27"/>
  </g>
  <path class="steelLight" d="M110.5,183.27c3.32,.49,4.65,.48,8,0v2c.08,1.25-7.92,1.24-8,0v-2Z"/>
  <g class="oakLightest">
    <path d="M96.5,188.27c1-3.32-7-3.32-6,0-9.8-3.14-10.62,4.94-1,3-1.62,4.4,9.64,4.03,8,0,9.45,2.55,8.54-6.5-1-3Z"/>
    <path d="M138.58,188.27c1-3.32-7-3.32-6,0-9.8-3.14-10.62,4.94-1,3-1.62,4.4,9.64,4.03,8,0,9.45,2.55,8.54-6.5-1-3Z"/>
  </g>
  <g class="faucetOverlapLine">
    <path d="M89.5,191.27c.6-2.89,7.47-2.89,8,0"/>
    <path d="M131.58,191.27c.6-2.89,7.47-2.89,8,0"/>
  </g>
  <ellipse class="marbleDarkest" cx="114.5" cy="201.27" rx="58.44" ry="2.5"/>
  <g class="blackLight">
    <path d="M162.72,155.87c9.92,.3,19.93,1,29.8,2.08,.6-12.71,1.49-25.4,2.66-38.07-9.92-.3-19.93-1-29.8-2.08-.6,12.71-1.49,25.4-2.66,38.07Z"/>
    <path d="M28.99,61.62c13.95-1.22,27.88-2.19,41.85-2.93-1.06-11.51-1.86-22.9-2.41-34.45-13.95,1.22-27.88,2.19-41.85,2.93,1.06,11.51,1.86,22.9,2.41,34.45Z"/>
  </g>
  <path class="flatPurpleMedium" d="M185.78,127.39c8.38,3.28,7.15,11.32-7.53,8.38-13.74-2.74-13.73-11.04-3.38-10.84,1.59-4.4,11.2-2.36,10.9,2.45Z"/>
  <path class="clothesOverlapLine" d="M185.78,127.39c-3.52-1.43-7.31-2.23-10.9-2.45"/>
  <path class="hairBlonde" d="M162.72,155.87c5.44-7.56,6.7-28.85,16.7-27.25,11.7,1.87,2.28,20.26,8.81,28.9-10.18-.97-15.28-1.3-25.51-1.64Z"/>
  <g class="flatBlueMedium">
    <path d="M162.72,155.87c.42-7.5,8.17-8.51,11.48-6.53,5,2.99,5.54-4.79,11.8-1.92,2.55,1.17,3.56,5.17,2.23,10.09-10.18-.97-15.28-1.3-25.51-1.64Z"/>
  </g>
  <path class="skinNordic" d="M174.2,149.35c.15-1.92,.49-3.56,.25-5.25-2.33-2.11-.96-7.08-.37-9.43,2.7,1.06,6.36,1.56,8.99,1.57-.42,4.03-1.6,7.73-3.69,8.52,.14,1.22,.36,2.29,.69,3.36,.36,3.36-5.12,3.8-5.87,1.23Z"/>
  <path class="skinOverlapLine" d="M179.37,144.76c-1.71,.73-3.69,.42-4.92-.66"/>
  <path class="flatGreenMedium" d="M28.5,50.92c7.6-3.07,4.95-13.32,13.83-12.36,5.79,.67,8.47,11.3,6.99,21.38-8.14,.57-12.2,.91-20.32,1.67-.15-4.28-.25-6.42-.49-10.69Z"/>
  <g class="flatTealMedium">
    <path d="M28.99,61.62c.34-7.52,.14-10.47,6.74-13.71,4.57,1.65,5.21,4.49,6.53,12.57-5.31,.42-7.96,.65-13.27,1.14Z"/>
    <path d="M52.79,38.64c9.42,.74,17.02,13.53,9.06,20.51-6.4,.36-9.6,.57-15.99,1.05,.76-9.37,2.14-21.45,6.93-21.56Z"/>
  </g>
  <path d="M40.37,60.62c.5-7.94,3.57-10.51,6.53-11.07,4.99,2.34,5.47,4.2,6.62,10.1-5.26,.35-7.89,.54-13.15,.97Z"/>
  <path class="flatTurquoiseMedium" d="M50.77,59.84c.94-5.7,3.29-7.69,5.89-7.84,3.16-.2,5.67,.68,7.12,7.05-5.21,.28-7.81,.44-13.01,.79Z"/>
  <g class="skinAshkenazi">
    <path d="M50.58,34.99c.55-5.1,7.01-4.46,6.45,.66,0,0-.24,5.35-3.58,5.11-3.63-.26-2.87-5.77-2.87-5.77Z"/>
    <path d="M44.32,46.91c.26-4.01,6.66-3.6,6.4,.41,0,0-.06,5.28-3.74,5.03-3.29-.23-2.66-5.44-2.66-5.44Z"/>
  </g>
  <g class="skinGallic">
    <path d="M46.05,34.65s.45,6.02-3.81,5.91c-3.8-.1-3.41-5.78-3.41-5.78-.13-4.44,7.12-4.56,7.22-.12Z"/>
    <path d="M39.05,46.87s-.24,4.73-3.97,4.23c-3.68-.5-2.46-5.21-2.46-5.21,.84-5.42,7.27-4.41,6.43,.98Z"/>
    <path d="M60.85,49.68s-1.3,4.35-4.16,3.78c-4.23-.85-2.28-5.86-2.28-5.86,1.38-4.34,7.8-2.27,6.44,2.08Z"/>
  </g>
  <g class="hairMediumBrown">
    <path d="M43.66,46.92c.38,.98,5.23,.32,5.82-1.33,0,1.57,1.19,2.31,1.78,2.07,4-6.99-9.88-8.67-7.6-.73Z"/>
    <path d="M55.78,46.27c-.54,.96-1.25,1.2-1.96,1.26-1.59-7.88,12.74-5.31,7.5,2.46-2.1-.7-4.33-2.06-5.54-3.72Z"/>
    <path d="M45.01,33.14c0,1.54,.72,2.17,1.69,2.57,4.71-7.7-11.68-10.21-8.63-.67,2.34-.17,5.42-.54,6.94-1.9Z"/>
  </g>
  <g class="hairDarkBrown">
    <path d="M52.1,33.4c.97,.65,2.31,.91,3.95,.29,.07,.7,.78,1.56,1.37,2.11,.71,.31,2.15-4.37,1.76-5.03-1.11-1.86-8.62-2.38-10.01-.69-.61,.75,.31,4.4,1.08,4.98,.63-.1,1.67-1.03,1.85-1.65Z"/>
    <path d="M34.65,44.05c.9,1.48,3.02,2.47,4.94,3.06,6.07-6.57-11.26-10.18-7.52-.87,.85-.24,2.08-1.12,2.58-2.19Z"/>
  </g>
</svg>