<svg viewBox="0 0 123.62 95.34">
  <path class="blackDark" d="M102.37,52.31c-.07,6.89-21.78,42.51-26.8,42.51l21.67,.02c5.02,0,25.81-34.7,25.88-41.59l-20.74-.94Z"/>
  <path class="blackMedium" d="M90.22,2.4c5.19,1.67,32.97,44.1,32.9,50.83l-20.74-.92L68.55,.55l21.67,1.85Z"/>
  <path class="blackMediumLight" d="M94.18,9.21c3.36,1.63,23.41,32.27,23.75,36.69l-15.9-.67c-1.72-5.23-19.27-32.07-24.23-37.36l16.38,1.33Z"/>
  <g class="blackMediumDark">
    <path d="M100.99,88.75c2.11-.57,17.46-24.43,18.47-29.68l-16.65-.67c-1.61,4.75-15.39,28.02-18.57,30.34h16.76Z"/>
    <path d="M68.55,.55c5.19,1.67,33.9,45.02,33.83,51.76s-21.78,42.51-26.8,42.51H10.32c-3.74,0-11.17-17.6-9.61-24.77C2.82,60.36,61.98-1.56,68.55,.55Z"/>
  </g>
  <g class="blackDark">
    <path d="M46.29,56.41h18.94c4.31,0,4.31-7.08,0-7.08h-18.94c-4.47,0-4.47,7.08,0,7.08Z"/>
    <path d="M46.29,68.94h18.94c4.31,0,4.31-7.08,0-7.08h-18.94c-4.47,0-4.47,7.08,0,7.08Z"/>
  </g>
</svg>