<svg viewBox="0 0 204.93 173.49">
  <path d="m192.28,170.9c11.74,0,12.69-21.83-3.65-21.55,10.16-6.87,4.6-19.84-7.61-18.35,9.75-9.93-.96-25.36-14.86-19.17,3.82-8.05-5.64-14.43-12.08-9.58,3.35-12.87-17.24-22.34-25.91-11.68-.58-8.6-11.29-10.45-15.25-3.01-4.47-14.23-26.29-12.79-30.48.99-8.36-12.75-30.59-3.9-27.82,9.88-6.89-6.57-16.76,1.45-12.23,8.28-14-7.45-28.62,8.4-18.67,22.51-10.57-1.56-15.09,9.15-6.71,16.67-15.59-2.34-17.85,25.01-3.32,25.01h178.59Z"/>
  <path d="m112.74,171.1c0,2.53-30.37,2.53-30.37,0-8.68-33.9-41.49-3.53-43.39-13.56-2.44-7.05,16.81-15.19,30.92-15.46-8.95-9.22-29.13.43-31.46-5.97-2.17-5.97,18.98-13.56,36.61-6.51-1.53-9.15-21.38-8.93-20.16-14.82,1.01-4.86,21.78-4.16,29.1,6.14,2.98-4.61-5.04-14.15-.27-16.27,7.32-3.25,13.02,8.14,13.29,15.19,1.36-7.86,9.08-18.59,15.19-15.46,5.29,2.71-4.01,11.45-2.65,16.88,6.24-8.14,25.7-11.18,28.41-5.49,2.92,6.13-17.89,6.3-19.1,13.79,14.64-4.61,37.92,4.79,35.65,10.62-2.88,7.36-23.59-5.42-33.08,2.98,15.46-.81,35.53,9.22,32.27,16-4.27,8.89-38.24-21.42-40.95,11.93Z"/>
  <path d="m137.34,171.1c0,2.53,23.81,2.53,23.81,0-1.31-30.92,27.71-10.31,43.17-76.2l-25.49-4.34c-2.98,18.98-8.37,41.22-13.83,40.27-7.05-1.22-2.71-29.69-3.25-54.91l-24.95.81c0,22.78,2.29,41.42-1.63,41.76-6.24.54-6.78-9.76-9.22-22.78.42,3.19-22.36,6.17-22.78,2.98,4.61,48.54,27.93,29.56,34.17,72.41Z"/>
  <g>
    <path d="m103.17,98.69c-.38-2.9,22.4-5.88,22.78-2.98l-22.78,2.98Z"/>
    <path d="m136.79,76.72c.1,3.06,25.05,2.24,24.95-.81-.09-2.76-25.04-1.94-24.95.81Z"/>
    <path d="m178.83,90.55c-.66,3.87,24.83,8.21,25.49,4.34.55-3.22-24.94-7.56-25.49-4.34Z"/>
  </g>
  <path d="m61.17,171.1c0,2.53-13.09,2.53-13.09,0-.16-31.56,1.25-73.91-2.94-76.8-9.52-6.55-33.86,1.78-39.43-8.06C.69,77.39,1.81,56.77.52,39.05c-.43-5.84,6.36-6.7,7.08-.89,2.95,23.9,2.45,41.78,11.02,41.78,5.61,0,2.26-24.96,2.55-48.57.07-5.68,6.94-6.81,7.67-1.18,3.84,29.51-2.02,49.04,9.8,50.69,13.82,1.92,4.55-34.95,6.44-76.24.24-5.13,5.57-5.69,6.2-.59,2.9,23.52-1.09,43.68,4.72,45.15s4.67-14.75,4.72-31.87c.02-5.89,6.89-5.92,7.08,0,.69,21.36,4.13,44.26-12.69,42.79,0,0-4.13,21.48,12.39,20.89,17.81-.64,9.39-29.39,12.64-59.79.54-5.09,7.27-5.11,7.38,0,.77,35.63-.17,58.7,5.2,58.7,8.59,0,6.79-17.02,7.79-32.14.39-5.89,7.27-6.2,7.38-.3.32,16.87,1.15,38.8-6.25,41.19-12.81,4.13-34.1-1.05-40.69,5.47-3.22,3.18-1.32,44.52.2,76.96Z"/>
</svg>