<svg viewBox="0 0 166.13 245.77">
  <path class="treeTrunk" d="M26.74,188.66C7.79,194-1.91,230.86,1,245.19c.36.18,111.53,0,164.36,0,2.16-19.57-9.43-54.14-25.88-55.61Z"/>
  <path class="bushFurthest" d="M130.71,172.64c17.1.61,26.48,11.29,28.19,21.25-4.48-5.33-10.78-8.31-16.33-9.7,2.47,4.77,1.54,15.25-1.23,19.56-4.62-.92-12.63-7.39-14.48-11.86.64,5.08-1.92,13.66-4.6,16.09-6.8-3.3-12-10.7-13.73-14.55.16,4.47-2.93,12.79-7.67,16.26-5.42-3.17-9.74-9.94-9.74-16.57,0,7.55-2.77,14-7.21,16.72-6-4.24-8.8-10.09-8.65-16.41-.77,8.16-4.16,12.79-10,16.43-5.56-4.26-7.41-12-7.1-18-.61,6-5.54,11.55-10.87,14.22a20.66,20.66,0,0,1-6.07-16.68c-2.57,9.32-11.08,13.24-15.87,14.78-1.08-3.85-3.85-11.86.31-19.41-5.7-.15-13.4,4.16-17.06,8.52,0-6.51,8.28-23.76,25.07-23.76"/>
  <path class="bushFurther" d="M74.49,163.39c-2.77,8.63,14.17,15.41,21.25,8.45.31,8.5,16.64,9.42,21.12,1.46,9.69,8.27,22.94-3.13,19.09-10.83,12.17,2.77,19-14.17,12.32-20.33,4.78-.31,8.47-8.32,3.24-12.63,8-2.47,10.16-17.26,2.15-21.26a6.22,6.22,0,0,0,.31-12c4.31-4,2.47-9.85-2.68-9.56,8.84-3.37,7.92-20.93-2.56-21.86,8.63-4,10.17-16.63,1.54-21.41,5.24-3.85,2.16-12.78-4.46-12,5.08-9.71-11.25-18-17.52-7.56-4.69-5-13.89.57-10.14,6.77-9.77-1.83-15.93,8.64-11.39,17.07C97.9,46,91.9,61.58,97,66.66Z"/>
  <path class="bushCloser" d="M86.81,46.17c8.63-5.39,4.93-19.56-5.39-19.56C86.5,21.06,84,14,76.65,14.29c4.93-9.9-10.32-19.71-17.1-9.4-5.39-7.42-22.34-.77-16,11.4-5.7-.77-10,6.32-4,11.24-10.63,0-12.17,15.41-4.77,19.41-7.09-.61-12.94,14.17-3.24,19.26-5.74.42-6.21,11.29.95,11.21-8.49,1-13.42,16-4.71,22.29-6.25,1.77-5.44,9.91-.24,11.94C20,114.41,19.34,128,26.9,132c-7.51,2.26-4.15,19.4,1.89,18.93-4.94,4,0,13.75,5.2,10.49-5,4.22-.19,12.86,5.78,10.53-1,7.49,12.88,11.29,17.57,5.66,3.59,10.15,22.39,7.38,22.08-.32,6.78,5.85,18.48-7.7,10.23-12.65,7.38,2.84,14.45-15.52,6.26-19.26,5.3.8,12.16-11.22,4.57-17,7-3.12,5.43-17.29-1.65-18.52,4.68-1,4.68-10.59-.93-10.48,7.09-6.46,3.7-16.63-3.23-19.56,8.47-5.7,5.7-18.33-2.43-20.83C98.52,53.41,93,46,86.81,46.17Z"/>
</svg>
