<svg viewBox="0 0 233.5 160.24">
  <g class="mapleMedium">
    <path d="M219.48,9.54c-.22,3.39,3.08,6.54,6.33,6.82,3.47,.3,6.93-2.83,7.17-6.19,.24-3.36-2.83-6.82-6.3-6.84-3.29-.02-6.98,2.78-7.2,6.21Z"/>
    <path d="M.51,10.17c.25,3.4,3.89,6.19,7.17,6.19,3.47,0,6.54-3.47,6.33-6.82-.21-3.38-3.71-6.51-7.2-6.21C3.57,3.62,.27,6.77,.51,10.17Z"/>
  </g>
  <path class="steelMedium" d="M13.16,12.35c69.03-2.96,138.14-2.96,207.17,0,.77-1.68,.91-3.77,.35-5.53-69.26-3.05-138.61-3.05-207.87,0-.73,1.71-.58,3.92,.35,5.53Z"/>
  <g class="dullYellowMediumDark">
    <path d="M121.57,133.35c27.58,.04,55.16,.26,82.75,.64,0-4.37,.03-8.73,.06-13.1-27.6-.45-55.2-.71-82.8-.75,0,4.4,0,8.81,0,13.21Z"/>
    <path d="M28.19,134c27.58-.39,55.16-.61,82.75-.65,0-4.4,0-8.81,0-13.21-27.6,.05-55.2,.31-82.8,.77,.03,4.36,.05,8.73,.06,13.09Z"/>
  </g>
  <g class="dullYellowMediumLight">
    <path d="M209.2,6.33c-.04-4.12-6.86-3.68-9.66-3.95-10.03-.96-20.29-1.1-30.43-1.11-12.93,0-25.99-1-38.89-.57-3.02,.1-9.6-.34-9.87,3.76-1.13,17.06-.04,35.36-.31,53.03-.26,16.61,.45,33.52,.15,49.83-.06,3.44-2.83,16.1,2.95,16.41,13.51,.73,27.33,.54,40.99,.82,12.55,.25,25.1,.23,37.65-.14,5.33-.76,4.49-7.53,4.63-11.43,.64-18.02-.67-36.3,.6-54.34,1.23-17.37,2.36-35.2,2.18-52.33Z"/>
    <path d="M23.21,6.37c.09-4.06,6.74-3.67,9.65-3.95,10.46-1,21.15-.95,31.71-1.35,12.51-.48,25.15-.81,37.61-.36,2.91,.11,9.65-.4,9.87,3.76,.91,17.09-.45,34.96,0,52.43,.43,16.74-.8,33.74,.4,50.23,.26,3.59,2.83,16.11-3.15,16.61-14.62,1.24-29.71,.67-44.5,.44-11.34-.18-22.76,.47-34.14,.26-5.47-.29-4.73-7.67-4.63-11.43,.49-17.98-1-36.21-1.36-54.3-.35-17.44-1.84-35.45-1.46-52.34Z"/>
    <path d="M199.4,129.95c-11.42,1.08-23.53,.61-35.27,.4-13.43-.25-27.39,.85-40.39-.79-3.12-.4-3.26,3.51-3.15,5.6,.41,7.86,.68,15.73,0,23.61,8.96-1.14,17.9-.1,26.81,.45,10.46,.65,21.04,.67,31.55,.16,7.35-.36,14.83-.4,22.09-1.01,3.23-.27,4.41-4.47,4.49-7.1,.17-5.74,.38-11.62,.36-17.25-.01-3.79-3.53-4.35-6.49-4.06Z"/>
    <path d="M33.41,130.36c10.24,.05,20.85-.56,31.23-.37,14.77,.27,29.8,.97,44.43-.44,3.14-.3,3.37,3.37,3.35,5.6-.08,8.13-.98,16.27-.2,24.41-8.93-1.24-17.87-.82-26.81-.35-10.5,.55-21.18-.02-31.55-.63-7.74-.46-15.92,1.4-23.47-.2-3.02-.64-3.67-4.46-3.7-7.1-.06-5.74,.34-11.84,.23-17.26-.07-3.56,3.99-3.68,6.5-3.67Z"/>
  </g>
</svg>