<svg viewBox="0 0 233.5 160.24">
  <g class="mapleMedium">
    <path d="M219.48,9.54c-.21,3.39,3.08,6.54,6.33,6.82A7,7,0,0,0,233,10.17a6.69,6.69,0,0,0-6.3-6.83C223.39,3.32,219.7,6.11,219.48,9.54Z"/>
    <path d="M.51,10.17c.25,3.4,3.9,6.2,7.17,6.19A6.73,6.73,0,0,0,14,9.54a7,7,0,0,0-7.19-6.2C3.57,3.62.27,6.77.51,10.17Z"/>
  </g>
  <path class="steelMedium" d="M13.16,12.35q103.55-4.42,207.17,0a7.93,7.93,0,0,0,.35-5.53q-103.89-4.57-207.87,0A6.47,6.47,0,0,0,13.16,12.35Z"/>
  <g class="bennettBlanketInner">
    <path d="M121.57,133.35q41.38.06,82.75.64,0-6.56.05-13.1-41.38-.67-82.79-.75Q121.58,126.74,121.57,133.35Z"/>
    <path d="M28.19,134q41.37-.57,82.75-.65,0-6.6,0-13.21-41.4.08-82.79.77Q28.17,127.47,28.19,134Z"/>
  </g>
  <g class="bennettBlanket">
    <path d="M209.2,6.33c0-4.11-6.86-3.68-9.65-3.95-10-1-20.29-1.1-30.43-1.11-12.93,0-26-1-38.89-.56-3,.1-9.6-.34-9.87,3.76-1.13,17.06,0,35.36-.31,53-.26,16.61.44,33.52.15,49.83-.06,3.45-2.83,16.1,3,16.42,13.51.73,27.33.54,41,.81,12.55.26,25.1.24,37.65-.14,5.33-.75,4.49-7.53,4.63-11.42.63-18-.68-36.31.6-54.34C208.25,41.29,209.38,23.46,209.2,6.33Z"/>
    <path d="M23.21,6.37C23.3,2.32,30,2.7,32.87,2.42c10.46-1,21.15-.95,31.71-1.35C77.08.6,89.73.26,102.18.71c2.91.11,9.66-.39,9.88,3.76.91,17.09-.46,35,0,52.43.42,16.74-.8,33.75.4,50.23.26,3.6,2.83,16.11-3.15,16.62-14.62,1.24-29.7.66-44.49.43-11.35-.17-22.76.47-34.14.26-5.47-.29-4.73-7.67-4.63-11.42.49-18-1-36.21-1.36-54.31C24.32,41.27,22.84,23.26,23.21,6.37Z"/>
    <path d="M199.4,130c-11.42,1.08-23.53.61-35.27.39-13.44-.24-27.4.86-40.39-.79-3.11-.4-3.26,3.51-3.15,5.6a170.67,170.67,0,0,1,0,23.61c9-1.14,17.9-.1,26.82.46a286.2,286.2,0,0,0,31.55.16c7.35-.36,14.83-.4,22.09-1,3.23-.28,4.41-4.47,4.49-7.1.16-5.74.37-11.63.36-17.26C205.88,130.22,202.37,129.67,199.4,130Z"/>
    <path d="M33.41,130.36c10.24,0,20.85-.56,31.23-.37,14.77.26,29.8,1,44.43-.44,3.14-.3,3.37,3.37,3.35,5.6-.08,8.13-1,16.27-.2,24.42-8.93-1.25-17.87-.82-26.81-.35-10.5.55-21.18,0-31.55-.63-7.75-.46-15.93,1.39-23.48-.2-3-.64-3.67-4.46-3.69-7.11-.06-5.73.33-11.84.23-17.26C26.85,130.46,30.91,130.34,33.41,130.36Z"/>
  </g>
</svg>
