<svg viewBox="0 0 155.76 561.57">
  <g class="steelDark">
    <path d="M82,140.73h27.72c.06-3.45.11-6.9.17-10.35H82.13C82.08,133.83,82,137.28,82,140.73Z"/>
    <path d="M74.11,173.82h42.52q-.24,20.61-.4,41.22H73.72Q73.87,194.43,74.11,173.82Z"/>
  </g>
  <path class="steelMediumDark" d="M104.8,546.82c-3.44-102.38-5.29-293.32-2.87-406.09H89.73c-2.61,112-.57,303.71,2.87,406.13-16.75.54-40.23,4.6-47.26,14.21H152.92C146.83,552.57,126.12,547.4,104.8,546.82Z"/>
  <g class="brassDark">
    <path d="M13.37,229.83H60.68c7,.15,13-6,13-13q.17-22.35.43-44.72c.09-6.92-5.74-13.1-12.77-12.95H14.05c-6.94,0-13.18,5.9-13.11,12.95Q.67,194.52.51,216.88C.3,223.92,6.44,229.83,13.37,229.83Z"/>
    <path d="M120,229.83h25.32q4.83-35.33,9.92-70.62H120.7a4,4,0,0,0-3.94,3.89q-.41,31.43-.6,62.84A3.9,3.9,0,0,0,120,229.83Z"/>
    <path d="M77,.68q22.11-.36,44.23,0A3.13,3.13,0,0,1,124.5,3.8q-3.25,62-5.65,124a3.13,3.13,0,0,1-3.16,3q-19.69-.33-39.39,0a3,3,0,0,1-3.06-3q-.27-62,.32-124A3.38,3.38,0,0,1,77,.68Z"/>
  </g>
  <g class="brassDarkest">
    <path d="M80.75,103.35c.09-19.44,32.17-19.89,31.49,0C111.63,121,80.67,121.21,80.75,103.35Z"/>
    <path d="M81.05,64.54c.17-19.56,33.38-20.09,32.6,0C113,82.34,80.89,82.58,81.05,64.54Z"/>
    <path d="M81.51,25.73c.17-19.77,34.61-20.27,33.73,0C114.47,43.64,81.35,44,81.51,25.73Z"/>
  </g>
  <g class="lightGreen">
    <path d="M73.15,93.14q0,14,.06,28.09C64.08,120.93,64,93.82,73.15,93.14Z"/>
    <path d="M120.25,93.14q-.59,14-1.15,28.09C128.18,120.89,129.39,93.77,120.25,93.14Z"/>
  </g>
  <g class="lightOff">
    <path d="M14.65,224.1H59.46a8.4,8.4,0,0,0,8.31-8.25q.17-21.33.41-42.65A8.21,8.21,0,0,0,60,164.94H15.22a8.46,8.46,0,0,0-8.36,8.26q-.24,21.32-.41,42.65A8.27,8.27,0,0,0,14.65,224.1Z"/>
    <path d="M96.71,92.89C115,92.88,114,121,96.16,121,78,121,78.73,92.89,96.71,92.89Z"/>
    <path d="M97.61,54.07c18.86,0,17.6,28.09-.67,28.1C78.25,82.17,79.17,54.08,97.61,54.07Z"/>
    <path d="M73.22,54.33q-.06,14.06-.07,28.09C63.76,82.23,63.82,55,73.22,54.33Z"/>
    <path d="M73.45,15.53q-.11,14-.18,28.09C63.59,43.43,63.81,16.17,73.45,15.53Z"/>
    <path d="M122,54.33q-.66,14.06-1.27,28.09C130,82.18,131.39,54.91,122,54.33Z"/>
    <path d="M123.89,15.53q-.72,14-1.39,28.09C132.07,43.37,133.57,16.12,123.89,15.53Z"/>
  </g>
  <g class="lightRed">
    <path d="M98.68,15.26c8,0,15.32,5.73,15,14.15-.34,8.24-7.89,13.94-15.78,13.94s-15.13-5.73-15-13.94C83,21,90.65,15.26,98.68,15.26Z"/>
    <path d="M33.7,202.06q.11-12.12.25-24.22c.11-3.37-5-3.34-5,0q-.07,6.39-.14,12.79a.73.73,0,0,1-1.45,0q.07-7.42.16-14.84c-.06-3.26-5-2.8-5,.34q-.09,7.25-.16,14.5a.73.73,0,0,1-1.45,0q.06-6,.13-11.94c.11-3.37-5-3.34-5,0q-.09,7.68-.16,15.35a.73.73,0,0,1-1.46,0c0-3.13.06-6.25.1-9.38.11-3.37-5-3.34-5,0L9.3,202.91c-.08,6.5,3.32,12.13,10,13.24,4.73.79,10.79-.6,13.83-4.54q4.14-5.21,8.27-10.4c2.3-2.76-2-6.24-4.23-3.42Z"/>
  </g>
  <g class="brassDarkest">
    <path d="M73.15,88.15c-3.59.08-7.18.18-10.77.28,2.36,7.84,5.6,15,10.8,21.38Q73.15,99,73.15,88.15Z"/>
    <path d="M73.24,49.35q-5.58.12-11.16.29c2.43,7.87,5.76,15,11.09,21.36Q73.2,60.17,73.24,49.35Z"/>
    <path d="M73.5,10.54c-3.85.09-7.69.19-11.54.31,2.29,7.76,5.87,15.33,11.37,21.35Q73.41,21.37,73.5,10.54Z"/>
    <path d="M120.47,88.15c3.58.08,7.17.18,10.76.28-2.55,7.7-6.11,15.37-11.67,21.38Q120,99,120.47,88.15Z"/>
    <path d="M122.22,49.35q5.58.12,11.14.29A60.91,60.91,0,0,1,121.22,71Q121.72,60.17,122.22,49.35Z"/>
    <path d="M124.15,10.54c3.84.09,7.67.19,11.51.31-2.95,7.92-6.79,15.15-12.61,21.35Q123.59,21.37,124.15,10.54Z"/>
  </g>
</svg>
