<svg viewBox="0 0 155.01 561.57">
  <g class="steelDark">
    <path d="M74.34,140.67H46.61c.06-3.45.11-6.9.17-10.36H74.51Q74.42,135.5,74.34,140.67Z"/>
    <path d="M81.27,173.76H38.76q-.24,20.63-.4,41.24H80.87Q81,194.38,81.27,173.76Z"/>
  </g>
  <path class="steelMediumDark" d="M69.68,546.82c-3.45-102.38-5.29-293.32-2.87-406.09H54.61C52,252.76,54,444.44,57.48,546.86c-16.75.54-40.23,4.6-47.26,14.21H117.8C111.71,552.57,91,547.4,69.68,546.82Z"/>
  <g class="brassDark">
    <path d="M141,229.8H93.72c-7,.31-12.9-6.18-12.86-13q.17-22.36.43-44.74c.1-6.77,6.14-13.26,13.12-12.94h47.31c6.77,0,13.17,6,12.77,12.94q-.27,22.38-.43,44.74C154.32,223.82,147.81,229.79,141,229.8Z"/>
    <path d="M34.38,229.8H9.06Q4.64,194.49.5,159.16H35.06A3.91,3.91,0,0,1,38.9,163q-.42,31.44-.61,62.87A4,4,0,0,1,34.38,229.8Z"/>
    <path d="M85.89.67Q63.77.32,41.66.67a3.36,3.36,0,0,0-3.45,3.11q-.6,62-.33,124a3,3,0,0,0,3.06,3q19.7-.3,39.39,0a3.1,3.1,0,0,0,3.16-3q2.4-62,5.65-123.95A3.12,3.12,0,0,0,85.89.67Z"/>
  </g>
  <g class="brassDarkest">
    <path d="M76.88,103.29C77.58,84,45.5,84,45.4,103.29,45.3,121.08,76.26,120.7,76.88,103.29Z"/>
    <path d="M78.3,64.49c.79-19.55-32.42-19.45-32.61,0C45.51,82.49,77.59,82.07,78.3,64.49Z"/>
    <path d="M79.89,25.7C81,5.8,46.43,6,46.15,25.7,45.9,44,78.94,43.53,79.89,25.7Z"/>
  </g>
  <g class="lightOff">
    <path d="M37.8,93.08q0,14,.06,28.09C28.14,120.57,28.14,93.94,37.8,93.08Z"/>
    <path d="M84.9,93.08q-.6,14-1.15,28.09C93.36,120.65,94.6,94,84.9,93.08Z"/>
    <path d="M62.26,54c-18,0-18.81,28.08-.67,28.09C79.41,82.11,80.5,54,62.26,54Z"/>
    <path d="M86.63,54.29q-.64,14-1.27,28.07C95.22,81.94,96.57,55.13,86.63,54.29Z"/>
    <path d="M37.87,54.29q-.06,14-.07,28.07C27.82,81.89,28,55.08,37.87,54.29Z"/>
    <path d="M63.33,15.24c-7.89,0-15.67,5.83-15.81,14.13-.13,8.13,7.29,13.94,15,13.94S78,37.48,78.29,29.37C78.62,21.09,71.18,15.24,63.33,15.24Z"/>
  </g>
  <g class="lightRed">
    <path d="M88.54,15.51q-.72,14-1.4,28.06C97.23,43.17,98.72,16.35,88.54,15.51Z"/>
    <path d="M38.1,15.51q-.12,14-.19,28.06C27.69,43.11,28,16.15,38.1,15.51Z"/>
  </g>
  <path class="lightGreen" d="M61.35,92.83c-17.52,0-18.22,28.09-.54,28.09C78.22,120.92,79.05,92.83,61.35,92.83Z"/>
  <g class="brassDarkest">
    <path d="M85.11,88.09l10.77.28a67.64,67.64,0,0,1-11.67,21.37Q84.65,98.91,85.11,88.09Z"/>
    <path d="M86.87,49.3c3.71.08,7.43.18,11.14.29A69.38,69.38,0,0,1,85.87,70.94Q86.35,60.13,86.87,49.3Z"/>
    <path d="M88.79,10.52l11.52.31A60.37,60.37,0,0,1,87.7,32.16Q88.23,21.35,88.79,10.52Z"/>
    <path d="M37.8,88.09,27,88.37c2.36,7.83,5.52,15.06,10.8,21.37Q37.81,98.93,37.8,88.09Z"/>
    <path d="M37.89,49.3q-5.58.12-11.16.29A61.51,61.51,0,0,0,37.82,70.94Q37.83,60.13,37.89,49.3Z"/>
    <path d="M38.14,10.52l-11.53.31C29,18.54,32.55,26.09,38,32.16Q38.06,21.35,38.14,10.52Z"/>
  </g>
</svg>
