<svg viewBox="0 0 145.54 212.42">
  <polygon class="ironMediumDark" points="5.03 28.93 23.97 211.92 121.48 211.92 140.43 28.93 5.03 28.93"/>
  <g class="ironDark">
    <path d="M108.88,74.76l-7.45,121c6.04-.48,11.62-1.13,16.4-1.93l11.62-121.43c-6,.99-12.99,1.77-20.57,2.36Z"/>
    <path d="M98.76,75.41c-6.81,.36-13.91,.57-21.08,.64l-.88,120.78c5.51-.07,10.98-.24,16.25-.52l5.71-120.9Z"/>
    <path d="M15.76,72.61l11.6,121.26c4.65,.84,10.24,1.5,16.41,1.98l-7.45-121c-7.58-.56-14.56-1.31-20.56-2.25Z"/>
    <path d="M46.44,75.48l5.71,120.92c5.22,.26,10.7,.42,16.24,.46l-.88-120.79c-7.16-.06-14.27-.26-21.07-.59Z"/>
  </g>
  <g class="ironMedium">
    <path d="M11.18,50.81l1.19,13.65c2.98,.47,6.25,.9,9.76,1.27l-.81-13.69c-3.67-.36-7.07-.78-10.14-1.23Z"/>
    <path d="M32.47,52.92l.59,13.75c3.37,.25,6.87,.47,10.47,.65l-.42-13.8c-3.66-.17-7.22-.37-10.63-.6Z"/>
  </g>
  <path class="ironMediumLight" d="M37.22,56.5c3.63-.14,4.16,4.38,.31,6.47-2.89,1.56-6.52,1.7-10.47,1.54-6.75-.27-14.19-1.21-17.56-2-2.62-.62-3.08-4.78-.15-6.32,1.04-.55,3.41-1.44,5.85-1.54,2.75-.11,3.56,1.65,3.08,3.7,2.46,.31,5.7,.53,8.93,.62,1.85,.05,6.05-.13,7.24-1.08,.77-.62,1.38-1.33,2.77-1.39Z"/>
  <path class="handleOverlapLine" d="M18.28,58.35c-1.23-.15-4-.31-4.47-1.08"/>
  <path class="bagLiningOuter" d="M142.74,13.83c-3.14-4.27-30.2-7.55-69.93-7.55S5.34,9.57,2.41,13.83c-3.39,4.93-1.99,19.11,2,20.02,25.42,5.85,28.96,10.63,58.53,11.09,35.31,.55,32.35-6.01,77.94-9.55,4.46-.35,5.7-16.33,1.85-21.57Z"/>
  <path class="bagLiningInner" d="M72.8,8.88C36.71,8.88,7.45,12.05,7.45,15.02s29.26,5.52,65.35,5.52,65.35-2.56,65.35-5.52-29.26-6.14-65.35-6.14Z"/>
  <path class="flatRedMedium" d="M22.74,9.52c-3.26,.68-6.01,3.84-8.58,7.9,4.27,.73,10.4,1.37,17.87,1.89-3.01-3.43-6.1-6.69-9.29-9.78Z"/>
  <path class="bananaInnerRear" d="M65.72,5.05c-6.89,6.79-10.64,12.02-10.42,15.28,5.29,.13,10.86,.2,16.6,.21,.53-3.21-1.59-8.41-6.18-15.48Z"/>
  <path class="bananaOuterRear" d="M68.64,2.13l-3.54-.15c-.18,2.4-3.08,2.77-7.24,8.63l3.08,3.39c1.71-1.6,3.25-3.81,4.47-7.24,.92,4.73,4.3,12.24,4.3,12.24l7.71-7.01c-5.85-6.62-8.29-7.22-8.78-9.86Z"/>
  <path class="bananaEnd" d="M68.64,2.13c-.05,.98-3.59,.83-3.54-.15,.05-.95,3.59-.8,3.54,.15Z"/>
  <path class="oakMediumDark" d="M38.61,8.75l-.04,10.95c6.19,.33,13.06,.57,20.39,.71-.38-1.12-.59-2.28-.63-3.49l-19.72-8.16Z"/>
  <path class="oakMedium" d="M61.71,9.52c-5.55-1.9-11.4-3.85-16.33-6.47v.15l-3.33,9.73c5.84,1.67,11.18,3.53,15.81,5.68,4.32,1.83,8.17-7.26,3.85-9.09Z"/>
  <path class="oakDark" d="M45.39,3.05c-2.31-1.23-4.93-1.54-8.16,.62-3.89,2.74-2.66,9.51-6.63,15.54,3.91,.28,8.21,.53,12.82,.73-1.58-3.1-2.92-6-3.26-8.1,6.32,5.08,11.63-5.37,5.24-8.78Z"/>
  <path class="bagOverlapLine" d="M40.15,11.83c-1.83-1.99-1.49-5.46,1.04-6.21,2.97-.88,4.88,3.9,.92,4.06"/>
  <path class="flatGreenMedium" d="M93.44,8.14l-13.96,10.72c.78,.64,1.63,1.18,2.55,1.63,6.61-.08,12.91-.25,18.73-.49,2.67-1.15,5.08-2.69,6.94-4.54l-14.25-7.32Z"/>
  <path class="flatPurpleMedium" d="M77.89,10.29c-2.31-1.47-4.04-1.27-6.47-.46-4.62,1.54-9.4,2.48-12.72,4.95-1.47,1.1-1.71,3.7-1.85,5.59,5.11,.11,10.45,.17,15.96,.17,5.86,0,11.54-.07,16.94-.19-1.84-3.35-6.72-6.77-11.86-10.05Z"/>
  <path class="flatBlueMediumDark" d="M116.19,1.45l-26.24,18.89c6.17-.15,11.98-.37,17.28-.65l11.93-8.55-2.97-9.69Z"/>
  <path class="flatBlueDark" d="M119.17,11.22l8.18,6.81c2.67-.34,4.91-.71,6.64-1.1L116.24,1.51l2.93,9.7Z"/>
  <path class="flatBlueMedium" d="M107.23,19.69c8.03-.43,14.91-1,20.12-1.67l-8.18-6.81-11.94,8.47Z"/>
</svg>