<svg viewBox="0 0 150.78 58.83">
  <path class="dullPurpleLight" d="M4.31,33.59c-3.65,.41-3.74,6.07,.08,6.17-3.68,.13-3.92,6.1-.08,6.17-3.63,.13-4.14,6.1-.24,6.18-3.6,.12-4.37,6.09-.4,6.18,0,.06,143.4,.06,143.4,0,4.04-.04,3.27-6.08-.4-6.18,3.98-.04,3.46-6.07-.24-6.18,3.92-.03,3.67-6.07-.08-6.17,3.86-.02,3.88-6.06,.08-6.17,3.84,.24,4.07-6.06,.25-6.17,3.81,.25,4.29-6.05,.42-6.17,3.79,.25,4.5-5.79,.59-6.17-48.19-2.56-96.42-2.56-144.61,0-3.82,.41-3.13,6.39,.59,6.17-3.78,.44-3.3,6.09,.42,6.16-3.73,.39-3.53,6.13,.25,6.18Z"/>
  <path class="dullPurpleMedium" d="M138.93,2.14C96.56-.05,54.16-.05,11.79,2.15c-3.08,.18-5.7,2.32-6.36,5.36-.51,2.52-1.05,5.03-1.63,7.53,47.7-2.51,95.43-2.51,143.13,0-.58-2.5-1.12-5.02-1.63-7.53-.66-3.04-3.28-5.18-6.36-5.36Z"/>
  <g class="trayOverlapLine">
    <path d="M147.08,21.24c-47.8-2.37-95.64-2.37-143.44,0"/>
    <path d="M4.06,27.41c47.53-2.17,95.08-2.18,142.61,0"/>
    <path d="M146.42,33.58c-47.37-1.98-94.74-1.98-142.11,0"/>
    <path d="M146.33,39.75c-47.31-1.79-94.63-1.79-141.94,0"/>
    <path d="M146.42,45.93c-47.37-1.61-94.74-1.61-142.11,0"/>
    <path d="M146.66,52.1c-47.53-1.43-95.06-1.43-142.59,0"/>
  </g>
</svg>