<svg viewBox="0 0 494.88 552.34">
  <path class="treeTrunk" d="M238.89,307.69l1.39-211.95h41L279.1,407.36c8.07-4.06,64.48-53.6,73-60.39l4,12.33C329.47,381,289,422.45,281.41,438.62c-3.11,13.35-.85,73.93,3.54,83,9.31,9.1,24.83,19.54,41.28,30.19H189.14C205,542.15,219,532,230.42,521c4.37-9,7.4-50.52,4.78-64.23-6.61-19.77-37-48.11-67.16-81.64l17.1-1.69c18.73,19.82,41.28,41.9,52.37,47.13l1.08-90.72c-20-18.81-39.74-37.9-59.46-56.07l6.78-8C205.93,280.89,223.23,294.9,238.89,307.69Z"/>
  <g class="treeFurthest">
    <path d="M426.15,317.36a19.06,19.06,0,0,1,13.4,3.56c-.44,4-3.45,9-7.57,11.7a24.4,24.4,0,0,1,9.13,8.8,16,16,0,0,1-10.61,8.66c4.17,4.6,9.1,12.3,9.1,16.3-4,1.85-11.4,4.93-17.78,4.35a14.48,14.48,0,0,1,.73,11.67c-5.82,2.45-11.08,2.27-15.84-.39a20.16,20.16,0,0,1-6.77,13.5c-5.6-1.15-10.3-3-13-6.32-4.31,3.65-9,5.88-14.06,6.15-3.67-3-5.68-7.3-6.16-12.8-.39,4.23-1.54,7.75-4,10.11-4.09.86-7.66.51-10.36-1.8-2.54,5-5.54,9-9.36,11.22a16.65,16.65,0,0,1-11.34-6.52c-3.12,4.49-7,7.37-12,8-4.07-3.28-6.63-7.9-8.24-13.35-4.5,1.81-10.81,3.2-15.12.86-1.74-3.53.46-9.25,2-13.9-4.79,2-10.17,4.49-13.72,2.81-1.75-3.18-.45-8.77.79-12.94-3.29,3.62-6.59,6.37-9.9,7.25-4.9-2.42-6.24-9.37-7.83-13.41-34.68,14-7.39-35.43-18.18-45,1.83-2.07,12.89-5.51,12.89-5.51C232,247.47,462.1,271,426.15,317.36Z"/>
    <path d="M33.39,221.56a16.59,16.59,0,0,1-10.71,3.31c-2.72-4.85-3.5-9.32-2.51-13.44a25.65,25.65,0,0,1-14.54-4.35C5,200.82,7.38,197,10,191.7,5.34,190,2.48,185.76.6,181.23c2.16-1.85,10.48-4,14.17-3.08-.92-3.7,1.54-10.47,3.12-12.43,2.62-.31,6.48,1.73,8.94,4-2.41-3.22-4-6.54-3.82-10.09a16.7,16.7,0,0,1,9.72-5.84c-.7-4.52-.46-8.66,1.57-12.06,4.19-.72,8.28,2.89,12.2,5.57,2.23-3.18,4.93-9.55,8-10.78,4.27,1.31,7.09,7.7,8.63,11.4C131.53,73.1,351.48,271,33.39,221.56Z"/>
    <path d="M300.55.62c4,3.47,6.8,7.54,7.87,12.47,4.61-2.51,10.09-3.29,16.18-2.85,2.45,5.66,2.92,11.09,1.32,16.28,4.75-1.72,9.82-1.38,15.16.6,1.22,3.86.4,8.07-1.39,12.44A19.27,19.27,0,0,1,352,33.24a21.28,21.28,0,0,1,5,10.5,26.12,26.12,0,0,1,18.43-1.45c0,6.86-1.31,12.37-4.89,15.73a23.54,23.54,0,0,1,12.68,5.39,24.37,24.37,0,0,1-4.58,10.78c4.69,2,13.91,2.3,16.37,6.3,3.41,10-91.6,71.33-101.35,64.7-2.66-1.7-3-7.1-3.29-10.44-.84,3.73-2.15,7-4.37,9.22a14.55,14.55,0,0,1-10.65-2.43c-3.12,4-6.92,6.55-11.59,7.2a22.68,22.68,0,0,1-5.12-13C217.2,160.64,160,74.43,196,56.16a23.28,23.28,0,0,1-2-13.14,18.07,18.07,0,0,1,12.51-2.32,19.89,19.89,0,0,1,4.73-13.26,20.49,20.49,0,0,1,11.55,7,22.36,22.36,0,0,1,10.88-8.7,13.17,13.17,0,0,1,6,8,19.66,19.66,0,0,1,3-12.22,17,17,0,0,1,10.32,2.14,18.71,18.71,0,0,1,1.71-12.15,23.18,23.18,0,0,1,11.88,2.36A26.91,26.91,0,0,1,275,1.27a40.51,40.51,0,0,1,13.34,10.61A37.62,37.62,0,0,1,300.55.62Z"/>
  </g>
  <g class="treeFurther">
    <path d="M237.82,327.87c3.69-3.39,6.16-9.55,6.16-14.48a21.74,21.74,0,0,0-14.17-1.23c.22-4,4.11-10.8,1.72-15.46a35.08,35.08,0,0,0-14.85,5.81c-.72-3.75-3.07-7.07-6.89-10a19.8,19.8,0,0,0-9.64,8.65c-1.73-2.87-5.76-6.91-9.78-8.41-3.28,2.24-4.9,7.39-7,11.25-7.13-23.53-92.17-14-82.78,15.5-4.74-1.52-10-1-15.61.62a22.44,22.44,0,0,0,3.65,15.38c-5.17,2.16-9.62,5.08-12.59,9.56a28.84,28.84,0,0,0,9.17,12.78c-3.33,2.81-6.21,12.05-4.85,14,2.33,2,10,1,14.42-1.86,1.24,4.17,1.85,10.33,6.53,13.16,3.37-.6,6.89-3.06,10.47-6.39-1.58,4.05-2.21,7.87-.74,11.18,3.39,2,7.84,1.55,12.77,0-1.94,4.5-2.59,8.69-1.15,12.35A14.84,14.84,0,0,0,135.82,402c1.15,5.57,3.31,10.38,7.1,14,5-.18,9.13-2.72,12.62-6.93a16.66,16.66,0,0,0,10.75,7.45c4-1.88,7.32-5.59,10.27-10.39,2.5,2.53,6,3.18,10.17,2.66,2.62-2.14,4.06-5.56,4.8-9.73,0,5.52,1.66,10,5.06,13.27,5.11.15,12-1.58,15.66-6.81,2.39,3.56,7.46,8.85,12.94,10.47,4.31-3.19,4.49-9.45,5.54-14.79a18.74,18.74,0,0,0,16.44,2.41,14.5,14.5,0,0,0,.26-11.68A16.19,16.19,0,0,0,259.35,386c-.28-3-.28-10.11-4.28-14.11,9.55-1.24,16-6.16,16.63-8.94-2.15-3.08-7.08-8.62-12.32-10.47,4.77-2.44,9.07-8,9.55-12-2.16-1.54-8.93-4.31-16-3.69,3.7-4.93,2.77-13.25,2.16-16.64C251.59,318.7,242.93,322.13,237.82,327.87Z"/>
    <path d="M484.23,266.25a32.23,32.23,0,0,1,7.6,15.94,32.62,32.62,0,0,1-13.95,5.56,19.91,19.91,0,0,1,1.69,11.85,19.94,19.94,0,0,1-12.34-.2c-.31,4.71-2.61,9.06-6.11,13.18-5-2.58-8.54-6.18-10.08-11.16-2,3.68-5.34,6.55-10.13,8.6a18.88,18.88,0,0,1-5.67-12.41c-2.86,2.24-7.58,10.12-11.66,10.55-6.77-3.08-10.47-12.33-10.47-12.33-2,6.83-9.55,15.1-12,16.33-3.08-2.46-5.72-8.16-8-16.63-4.93,6.77-10.78,6.46-13.24,6.16-1.73-1.72-3.7-5.24-2.78-12.33-2.15,6.47-6.28,10.94-9.24,11.09-1.85-.61-6.16-3.08-10.16-9.85-6.37,6.41-15.1,9.55-17.88,9.15-1.53-2.68-3.63-11.95-.61-17.16-37.89,23.1-74.24-129.09,75.23-66.38a24.32,24.32,0,0,1,9.73,11.8,22.08,22.08,0,0,1,13.26-2.57c1.71,3.4,1.48,8.13.33,13.25,1-3.64,2.6-6.54,5.53-8a15.32,15.32,0,0,1,8.41,3.08,14.13,14.13,0,0,1,9.12-6,20.38,20.38,0,0,1,4.32,10.56,23.17,23.17,0,0,1,14.27-1.64,23.57,23.57,0,0,1-.23,14c3.24-.61,9.35,1.25,12.46,2.84C491.11,258.36,488.28,262.49,484.23,266.25Z"/>
    <path d="M74.61,156.75a17,17,0,0,0,11.87.85c-1.83,3.76-2.42,8.36-2.37,13.4,5.21,1.67,10.1,2,14.57.45.09,4,2.07,8.34,4.81,12.8a35,35,0,0,0,14.35-6.95c1,3.68,3.62,6.8,7.65,9.43a19.82,19.82,0,0,0,8.94-9.38c1.95,2.73,5.17,4.55,9.3,5.72a25.13,25.13,0,0,0,7.15-9.87c.55,3.9,4.07,9.7,6.51,12.28a29,29,0,0,0,10.91-7.25c16.22,33.5,52,22.72,49.3-13.81A24.71,24.71,0,0,0,230,166.33a20.93,20.93,0,0,0,2.18-15.05c4.84,1.13,10.07.18,15.51-1.85a22.47,22.47,0,0,0-4.85-15.05c6-2.13,9.74-7.68,11.38-10.92-.71-2-5.14-10.32-14.27-11.55,3.08-10.47.62-16.32-1.6-17.86-3.33-.62-10.1.3-15.34,3.08,4.31-6.78,4.62-11.71,5.45-15.16-1.89-1.82-8.69-4.91-16.23-4.25-.8-9.92-4.59-15.59-7.07-17.86-2.1,1.46-7.8,2.41-12.65,8.92-1.58-5.45-5.24-9.24-8.63-12.93-3.39,1.23-10.3,6-13.45,10.44a16.66,16.66,0,0,0-11.3-6.59c-3.83,2.19-6.86,6.15-9.43,11.17-2.69-2.33-6.25-2.7-10.34-1.86-2.45,2.34-3.62,5.86-4,10.08-.44-5.51-2.43-9.83-6.08-12.83-5.1.24-9.76,2.43-14.1,6.06-2.67-3.36-7.36-5.21-13-6.4a20.16,20.16,0,0,0-6.85,13.46c-4.74-2.68-10-2.9-15.84-.48a14.52,14.52,0,0,0,.66,11.67,16.2,16.2,0,0,0-11.43,6.79c-.75,4.48.39,9.1,2.63,13.81a16.06,16.06,0,0,0-10.67,8.59,24.38,24.38,0,0,0,9.09,8.86c-4.15,2.7-7.19,7.62-7.64,11.65a19,19,0,0,0,13.37,3.64A23.17,23.17,0,0,0,74.61,156.75Z"/>
  </g>
  <g class="treeMiddle">
    <path d="M164.93,215.14c.1-4-1.68-8.44-4.22-13a35.11,35.11,0,0,0-14.65,6.29c-.84-3.72-3.3-7-7.21-9.77a19.86,19.86,0,0,0-9.36,9c-1.82-2.82-5-4.78-9-6.14a25.07,25.07,0,0,0-7.6,9.52,17.41,17.41,0,0,0-3.9-10,28.77,28.77,0,0,0-11.24,6.74C96,203.24,92.3,199.46,87.58,196a22.28,22.28,0,0,0-8.15,13.24,20.23,20.23,0,0,0-11.91-2.22,17.75,17.75,0,0,0-2.42,10.55,23.74,23.74,0,0,0-10.22-8.47,22.86,22.86,0,0,0-8,10.7c-3.41-3.05-7.94-4.85-13.4-5.62a20.85,20.85,0,0,0-2.87,14.94c-4.79-1.36-10.06-.65-15.58,1.13a22.44,22.44,0,0,0,4.15,15.25c-5.1,2.32-9.45,5.39-12.27,10A28.77,28.77,0,0,0,16.5,268c-3.24,2.91-5.42,10.29-4.81,13.07,3.39,1.54,9.86,1.54,14.79-.93-.93,4,1.23,9.55,3.7,12,3.34-.71,10-2.72,13.49-6.17-1.45,4.11-2,7.95-.37,11.21,3.45,1.86,7.88,1.29,12.76-.42-1.79,4.57-2.3,8.77-.75,12.38a14.83,14.83,0,0,0,13.16,1.33c1.33,5.52.32,9,4.22,12.47,5-.34,10.51-4.3,13.86-8.62,2.65,3.75,8.09,8.8,12.85,9.67,2.56-2.59,9-8.13,8.41-13.37,3.39,4,11.09,4.93,15.1,4.62,2.15-2.77,3.38-9.24,1.54-15.71a15.73,15.73,0,0,0,9.85,8.93c2.75-2.21,5.24-6.47,6.47-12,3.08,8.93,5.24,11.09,7.4,15.1,3-1.75,12.32-3.39,14.17-9.86,3.08,5.54,8,7.7,11.46,9.09,3-2.32,6.71-6.32,5.89-14,4.86-.49,12.1.37,15-3.4.95-4.44-2.6-13.68-4.63-18.49C195,273.92,212.25,192.94,164.93,215.14Z"/>
    <path d="M479.91,120.74c-2.48-5.35-2.2-9.86-6.47-12.59-3.56.26-6.73,2.72-9.75,5.92-2.12-3.8-5.89-6.49-11.07-8.23-3.16,1.31-6.06,4.48-8.84,8.51.67-4.31.45-8.17-1.71-11.09-3.73-1.19-8,.2-12.46,2.78.92-4.82.64-9.05-1.55-12.31a14.84,14.84,0,0,0-13.18,1.13c-2.33-5.18-5.49-9.41-10-12.12-4.86,1.26-8.33,4.63-10.83,9.5-3.29-3.2-10.65-7.46-15.49-7.44-2.15,2.47-5.54,9.25-5.54,14.79-5.76-4-11.09-6.16-13.25-5.85-1.85,1.85-2.91,9.36-2.46,17.25-2.77-4.62-6.78-9.86-9.55-9.55-3.7,1.23-7.09,4.31-11.63,9.89-4-3-9.94-6.19-12.09-6.19-1.85,1.54-3.7,7.08-3.71,15-3.07-1.16-12.31-2.08-15.7-.24-.62,3.7,1.23,11.4,5.54,14.79-4-.92-11.47-.55-14.17,1.54-.12,4.54,2.47,9.86,6.24,14.27-3.8,2.81-5.09,4.51-6.85,9.45,4,2.88,6.72,3.55,12,4-29.75,47,35,80,55.94,62.12-.25,4.23,1.29,8.5,4.8,12.81a16.62,16.62,0,0,0,10-5.11c1.19,4.42,5,7.06,10.25,8.8a31.63,31.63,0,0,0,5.72-13,26.17,26.17,0,0,0,13.12,3.84,31.6,31.6,0,0,0,1.23-14.38A22.36,22.36,0,0,0,418.71,222a19,19,0,0,0,2.82-11.16,20.84,20.84,0,0,0,5,9.07,19.91,19.91,0,0,0,9.61-5.69,18.9,18.9,0,0,0,7.73,11.25c4.36-2.85,7.13-6.25,8.5-10.22,2.37,4.63,6.5,7.57,11.85,9.25,2.74-4.67,4.24-9.35,3.74-14a19.92,19.92,0,0,0,12.19-1.94,19.85,19.85,0,0,0-3.71-11.37,32.75,32.75,0,0,0,12.78-7.9A32.35,32.35,0,0,0,479,174.84a18.3,18.3,0,0,0,8.36-8.65,13.6,13.6,0,0,0-5-8.76,28.41,28.41,0,0,0,11.91-10.31c-2.3-3.68-5.9-5.65-9.54-8.68,4-3.75,7.36-7.81,8-12.25C488.57,123.43,484.63,120.92,479.91,120.74Z"/>
  </g>
  <path class="treeCloser" d="M173.43,265.64c1.16,6.29,1.23,13.25,3.62,14.86,2.85-.07,9.32-2.23,12.4-6.85,0,7.4,3.39,12,6.78,13.62,2.46-.06,6.16-.37,11.09-5.3-.83,4.28,4,8.93,6.77,9.86,3.7.31,8-6.47,11.3-11-1.09,4.78-.2,11.92,1,13.77,2.77,1.23,10.78-.31,13.55-4.62-.31,6.47,4,13.86,6.16,14.79,2.78,0,9.35-8.17,12-12.94a20.27,20.27,0,0,0,10.17,11.09c3.38-2.77,7.42-10.12,6.16-12.32,5.85,3.69,10.78,2.77,13.86,2.15,1.54-2.46,2.77-8.32.62-13.86,2.86,4.39,8.93,6.47,11.39,7.09,1.54-2.16,4.63-4.63,5.24-12.33a25.21,25.21,0,0,0,8.32,13.25c2.46-.19,11.75-9.26,12-14.79,2.78,2.16,8.63,6.47,12.64,5.24,1.54-2.16,1.54-11.4,0-14.17,5.23-1.54,9.24-6.78,10.78-9.24-.93-3.08-7.4-7.09-12-8.63,3.9-2.67,8.64-8,10.58-12.84A27.82,27.82,0,0,0,334,227.11c6.07-.28,10.07-5.52,13.15-10.14-1.85-2.16-6.47-7.4-12.32-8.94,4.31-4,6.78-12,7.7-15.71a20.37,20.37,0,0,0-18.79,2.77c1.23-4.62-2.51-12.48-5.23-15.24a31.64,31.64,0,0,0-12.79,6.78c1.88-5.64,3.77-10.06,2.31-16.18-5.22-2.37-12.48.14-17.26.92.42-4.21,3.67-11,.31-15.4-4.16.54-11.59,1.64-14.17,4.31a16.48,16.48,0,0,0-10-11,31.61,31.61,0,0,0-6.19,12.8,26.22,26.22,0,0,0-13-4.33A31.72,31.72,0,0,0,246,172.06a22.19,22.19,0,0,0-10.12-3.29,19,19,0,0,0-3.22,11c-1-3.82-5.32-8.66-7.49-10.9-3.7,1.23-8.88,6.31-11.4,8.93a23.79,23.79,0,0,0-12.33-10.16,20,20,0,0,0-7.39,15.09,38.27,38.27,0,0,0-13.25-8c-1.85,1.23-3.69,8.63-3.39,13.86-5,1.49-9.46,6.81-13.19,10.28a32.2,32.2,0,0,0,9.7,14.75,18.37,18.37,0,0,0-8.67,8.34,13.63,13.63,0,0,0,4.65,8.94,28.39,28.39,0,0,0-12.28,9.86c2.17,3.77,5.7,5.86,9.22,9-4.15,3.6-7.64,7.53-8.45,11.94C162.48,264.68,168.72,265.3,173.43,265.64Z"/>
</svg>
