<svg viewBox="0 0 476.09 540.9">
  <path class="treeTrunkFurther" d="M375.38,262.52c13.54-11.67,16.73-21.53,23.78-32.97,27.95,4.96,51-22.7,71.56-25.77-22.67-1.18-37.23,22.94-67.98,20.36,6.01-8.42,14.99-17.87,31.82-29.53-34.35,7.81-44.58,43.47-69.92,62.15-9.35,6.89-22.8,11.31-32.95,15.39,6.01-12.26,1.92-21.4,23.32-33.89-24.52,6.48-21.87,23.55-33.64,37.48-9.86,3.62-53.35,27.25-72.84,36.88,4.93-18.5,10.58-32.99,16.66-44.73,14.19,4,40.11-.17,58.81-17.59-24.17,13.07-44.15,15.31-55.82,12.11,4.59-8.04,9.37-14.7,14.22-20.49,31.08,8.51,62.88-29.25,98.42-26.96-24.09-12.37-70.52,24.16-90.12,17.87,19-19.28,38.34-33.2,49.72-65.23,19.16,9.58,38.64-25.14,68.63-19.96-24.18-14.71-57.37,26.59-66.76,12.28,13.81-8.65,24.63-19.92,31.26-36.71-10.16,15.68-20.99,27.61-31.26,29.83,.54-4.45,2.22-13.42,3.32-25.09,29.41-12.97,22.2-25.2,49.04-47.97-27.32,14.38-25.17,31.64-49.31,41.17,2.47-15.17,7.21-18.97,21.99-33.74-45.3,25.41-12.66,39.7-45.67,94.42-4.78,7.92-12.14,14.59-20.72,21.54,6.35-30.2-7.73-24.27-7.93-63.17-9.85,43.38,11.99,28.61-4.28,72.75-13.08,10.14-27.26,21.82-40.58,38.46,6.54-26.4,17.82-62.48,20.21-69.32,8.42-24.08,18.38-42.59,28.3-57.45,26.73-40.02,55.36-48.04,50.75-72.57-5.36,24.66-21.57,29.28-37.16,43.25-8.09-10.97-6.55-22.68-3.31-32.4,13.94-4.04,10.23-24.85,24.71-29.9-14.88,3.96-14.56,23.64-24.15,26.42,1.04-7.06,2.44-11.54,1.15-20.53-1.27,28.18-14.47,32.03-3.15,60.98-7.61,9.13-20.15,21.67-32.14,42.69-4.34-16.19-4.28-26.63,4.48-63.25-25.43,51.01-4.46,49.59-21.26,97.45-4.31,12.27-7.17,23.52-9.51,34.94-.9-23.92,0-72.68-6-94.06,11.62-11.81,14.38-31.08,16.48-48.79,17.82-4.95,22.48-7.5,32.9-28.35-12.09,17.57-18.21,21.54-32.44,24.43,1.3-11.14,2.59-21.37,5.98-28.34-13.81,18.02-5.82,51.15-25.35,75.03-3.53-9.72-4.9-24.53-4.98-45.01-3.34,11.66-5.41,22.89-4.86,31.06-12.97,.97-15.31-14.48-24.3-34.67,5.7-11.5,1.83-13.54,3.43-21.85-4.05,5.32,.39,10.7-5.1,18.65-5.13-10.58-12.82-23.6-24.33-34.64,34.39,40.78,22.75,75.1,51.23,80.38,3.86,23.48,12.43,48.57-5.86,104.97-8.37-18.75-16.3-37.08-23.84-45.53,18.51-25.16,8.35-41.4,12.19-65.37-9.83,16.48,1.98,37.04-16.81,59.88-11.56-13.63-23.8-18.41-35.19-25.56,10.38-35.45-13.18-43.84-16.09-64.42-.38,24.75,19.95,23.6,10.71,60.79-8.37-6.08-20.06-9.98-29.27-32.06,5.86,28.77,25.47,36.54,44.22,49.81-19.17,9.37-70.33-30.08-93.92-21.4,37.2,.4,67.5,37.55,100.81,26.63,9.61,7.89,18.49,18.19,24.53,34.75-14.13-3.45-16.14-23.21-36.68-30.68,27.01,20.65,14.06,27.46,39.61,38.53,3.38,9.45,11.3,38.91,19.92,55.93l.05,18.88c-18.79-5.26-30.13-50.85-64.26-64.66,42.93,33.22,48.28,79.28,62.26,102.88-6.25-3.63-19.16-15.57-24.72-23.55,.6-18.56-10.02-16.68-14.23-37.98-1.94,19.63,8.08,21.22,4.73,30.72-11.09-10.12-19.05-18.08-25.7-26.26-37.87-46.61-35.74-100.05-74.53-117.85,15.57,13.42,24.27,32.67,31.36,53.55-19.85,.25-25.89-25.29-54.46-41.11,27.86,22.98,29.29,44.71,56.7,47.92,4.41,13.74,8.38,27.98,13.35,41.57-15.68-5.92-33.78-4.49-58.45-46.84,15.48,44.84,33.13,47.31,52.51,58.97-8.44,1.19-24.78-.07-39.36-5.12,16.41,8.95,31.69,10.87,45.1,8.86,5.94,4.21,12.04,9.71,18.27,17.92-12.65,16.78-73.6-5.2-93.13,15.55,32.01-13.74,73.46,9.81,100-6.38,54.71,72.01,92.5,77.87,93.27,75.73,14.93-18.43,35.19-35.63,54.38-49.52,20.59,7.31,47.06,5.99,84.25-1.32-35.61,4.15-61.84,4.37-78.76-2.58,13.99-9.79,27.07-17.66,36.62-22.76,34.34-16.81,47.72-2.89,66.81-29.66-25.42,18.58-25.52,9.04-40.74,13.76Z"/>
  <path class="treeTrunk" d="M408.44,285.6c55.78-27.81,34.3-30.34,67.15-68.25-23.05,15.69-18.07,27.84-44.53,44.16,4.46-17.3-7.12-23.44,13.74-62.87-26.07,34.22-15.32,51.82-22.39,67.19-22.47,12.58-47.38,19.1-73.26,27.66,3.9-8.17,13.93-15.18,19.55-25.43,8.1-14.76,3.97-26.02,25.13-49.39-26.46,14.55-20.92,25.94-33.95,44.98-8.97,13.1-23.88,17.2-34.83,38.88-21.33,9.13-46.91,23.67-70.07,41.04-.23-7.67-.53-10.92-.7-18.69,19.79-16.63,31.1-28.94,41.02-44.06,26.95-8.58,36.03-20.24,53.84-20.03-15.77-3.53-36.68,8.28-47.92,9.31,12.98-21.09,21.37-40.11,36.87-55.87,10.25-10.42,23.8-13.93,38.26-16.75,19.2,7.97,38.01,2.55,53.37,11.46-10.35-9.33-29.62-10.6-41.34-13.74,22.73-4.45,46.07-11.25,61.29-42.96-11.78,13.35-23.15,20.54-34.16,24.68,.75-29.61,24.99-42.2,25.57-64.47-4.51,19.56-32.03,39.64-31.45,66.42-14.62,4.22-28.59,3.92-42.05,6.62,19.84-21.43,12.52-31.68,23.87-46.33,16.51-21.3,38.82-11.72,45.82-71.44-9.09,23.91-16.09,34.95-23.02,41.93-5.89-21.45-4.04-37.49,2.04-69.3-11.43,36.94-11.53,48.61-7.84,74.37-6.64,5.09-13.73,8.75-22.94,18.34,1.36-14.02-.25-25.99-5.71-38.29,9.42,58.37-21.62,90.52-30.54,91.74-9.4-18.98-11.13-35.61,5.89-60.06-24.73,22.64-14.95,52.03-13.78,66.22-7.88,5.42-15.2,10.22-19.96,17.36-.63-9.63-4.44-35.57,2.67-52.27-17.2,21.74-4.65,37.72-15.83,67.73-14.83,19.83-30.57,47.27-54.47,63.7-.08-12.43-.05-24.61,.11-36.22,3.71-9.74,8.36-18.23,13.45-25.95,13.57-4.96,24.71-12.92,38.15-12.76-10.16-2.28-22.46,1.82-32.94,5.3,19.87-26.7,36.43-45.05,41.53-71.46,9.61-49.8,33.37-34.88,37.18-82.15-7.65,30.24-16.85,32.93-29.38,44.07-.22-14.47,2.95-26.72,2.16-41.13,24.45-12.8,12.89-23.18,30.69-54.61-18.95,23.69-12.41,40.58-31.03,47.45-1.32-10.36,1.57-29,8.06-47.36-22.91,30.88-8.48,71.51-27.49,132.25-3.85,12.3-10.89,21.99-20.58,31.5-2.2-11.04,3.4-34.52-4.41-48.74,5.1,16.86-4.29,33.79-1.17,54.08-8.01,7.54-16.71,15.47-24.54,25.31-.31-17.85-1.1-27.78,5.11-50.82,5.57-20.7,39.47-50.78,33.83-104.87-4.12,42-18.6,56.9-25.73,66.37-1.06-10.94-3.58-21.32-7.87-31.54,29.3-33.39,16.3-53.15,41.87-87.4-27.02,25.11-21.6,60.72-45.2,79.72-2.61-6.81-7.7-17.77-6.26-21.33,8.95-22.05-1.04-30.76,13.12-51.33-12.77,7.35-12.95,28.69-13.99,34.87-8.15-7.7-5.02-17.43-11.81-26.83,3.06,11.78,2.47,24.8,10.61,31.81-1.06,4.38-2.34,8.94-4.53,11.17-12.33-3.8-24.67-19.55-25.5-44.21-3.96,20.74,1.72,36.81,23.93,52.52,5.62,18.97,16.83,39.77,14.7,65.33-3.07,5.94-11,23.5-13.85,30.05-24.24-31.44-10.6-73.84-32.01-97.07,14.82,24.49,4.51,77.63,28.38,106.42-2.76,8.19-4.46,16.78-3.96,25.7-8.94-32.03-20.36-38.47-42.76-77.53,4.26-19.91-6.25-46,3.34-63.37-15.52,15.58-3.66,44.93-10.26,55.43-6.47-9.47-13.43-16.65-24.89-54.38,2.61,18.9,1.99,14.57,3.74,21.3-12.14-5.76-8.84-18.18-24.66-24.41,16.32,12.58,9.84,23.42,25.92,29.51,5.71,18.74,13.29,28.88,18.58,41.12-17.43-3.67-35.43-12.82-47.34-34.55,12.51,32.58,37.19,38.19,52.22,43.24,15.86,24.99,29.22,37.67,31.86,76.03,.68,9.93,.13,21.13,.36,33.17-17.32-30.1-38-47.46-56.46-61.78-2.79-24.75-13.22-17.63-19.05-51.32-1.91,20.98,5.1,33.85,6.83,41.74-8.58-6.95-14.8-14.42-20.72-21.54-24.59-29.58,10.34-70.02-43.63-112.15,14.77,14.77,20.76,29.82,23.23,44.99-20.41-4.24-20.08-23.36-47.11-39.51,28.88,24.74,18.68,34.18,48.09,47.16,1.1,11.68,.64,23.41,1,35.12-4.83-3.63-9.35-6.17-13.7-8.27-5.08-20.75-21.36-32.47-23.7-50.39-1.31,16.55,14.19,36.2,16.17,47.02-10.86-4.64-21.09-8.8-33.08-23.69,13.04,29.27,34.88,22.95,54.99,48.41,22.96,42.65,51.52,50.66,73.68,88.91-12.43-3.81-18.42-6.75-30.2-9.84-10.04-18.15-26.26-37.13-53.89-44.69,26.22,13.87,37.27,24.32,45.81,42.45-10.49-3.09-29.62-7.38-40.01-12.57-22.27-11.13-37.37-50.68-72.31-55.19,17.87,10.01,27.7,18.56,34.48,26.37-30.36,5.49-47.15-17.14-69.61-13.81,20.76,1.11,46.33,26.45,73.69,18.86,8.11,10.72,12.22,20.24,26.8,30.57-15.6-3.26-22.54,6.24-48.83-5.81,25.31,22.01,36.9,2,76.5,20.75,11.82,4.93,23.96,8.73,35.98,13.05-9.96,1.79-20.81,4.21-27.8,10.26,11.22-6.2,24.09-4.9,37.67-6.55,9.84,3.91,19.52,8.48,28.81,14.65,1.86,3.92,3.59,8.1,5.25,12.56-11.68-3.34-21.8-10.19-34.72-7.3,19.29,3.17,21.34,12.44,37.35,16.98,2.88,8.55,4.04,12.46,6.9,23.2-.4,16.55,.92,18.59,.17,34.94-14.75-14.64-27.14-25.05-40.01-34.05-.25-30.79-10.67-15.85-26.44-52.61,2.65,28.78,19.43,28.84,14.14,45.56-55.71-42.61-102.06-29.58-133.72-98.05,6.64,29.56,19.65,46.79,36.78,60.45-21.68,7.48-45.92-28.34-69.35-24.23,34.19,8.13,41.61,36.32,78.94,31.28,17.31,11.84,39.1,17.41,61.05,32.94-27.1-.71-46.34,10.45-68.97,4.39-19.33-5.17-27-27.24-60.67-32.75,39.49,18.37,29.45,23.13,51.73,37.35,27.41,17.49,42.65-1.33,98.29,10.66,10.77,9.57,23.54,22.12,34.45,36.02-24.27,3.48-28.68-19.19-51.48-20.39,20.95,6.53,24.2,31.02,56.98,28.61,5.97,8,10.88,14.38,16.79,24.09-2.91,49.56-6.67,117.75-8.73,120.33-11.47,14.33-25.4,23.71-45.08,34.33h146.84c-29.51-14.04-38.82-22.35-46.93-32.08-2.73-3.28-5.02-68.81-7.27-118.17,14.68-21.16,25.42-33.25,39.95-45.43,29.86,7.73,59.83-17,82.77-15.34-17.28-7.33-55.69,15.97-72.99,6.98,30.01-23.3,59.36-32.43,86.94-43.93,18.27,4.12,32.2,18.73,70.82,5.6-38.23,.74-47.09-7.26-55.51-12.44Z"/>
</svg>