<svg viewBox="0 0 494.88 552.34">
  <path class="treeTrunk" d="M238.89,307.69l1.39-211.95h40.97l-2.16,311.61c8.08-4.05,64.48-53.6,73.01-60.38l4,12.32c-26.65,21.72-67.16,63.15-74.71,79.33-3.11,13.34-.84,73.93,3.54,83.03,9.31,9.1,24.83,19.54,41.28,30.19H189.14c15.82-9.69,29.86-19.88,41.28-30.81,4.37-8.98,7.39-50.52,4.78-64.23-6.61-19.77-36.97-48.11-67.16-81.64l17.1-1.69c18.74,19.82,41.28,41.9,52.37,47.13l1.08-90.73c-20.02-18.81-39.74-37.89-59.46-56.07l6.78-8.01c20.02,15.1,37.33,29.1,52.99,41.9Z"/>
  <g class="treeFurthest">
    <path d="M426.15,317.36c5.31-.59,10.22,1.12,13.4,3.56-.43,4.03-3.44,8.97-7.57,11.7,3.79,2.16,6.9,5.03,9.14,8.8-2.31,4.4-5.72,7.44-10.61,8.66,4.18,4.59,9.1,12.3,9.1,16.3-4,1.85-11.4,4.93-17.78,4.35,1.83,3.71,2.16,7.59,.72,11.67-5.82,2.46-11.08,2.27-15.84-.38-.59,5.4-2.75,9.96-6.77,13.5-5.6-1.15-10.3-2.97-12.98-6.32-4.32,3.65-8.96,5.87-14.06,6.14-3.67-2.98-5.68-7.29-6.16-12.79-.38,4.22-1.53,7.75-3.96,10.1-4.09,.86-7.65,.51-10.36-1.8-2.53,5.03-5.54,9.01-9.36,11.22-4.79-.62-8.5-2.91-11.34-6.52-3.12,4.49-7.02,7.36-12,7.97-4.07-3.28-6.63-7.9-8.25-13.35-4.5,1.81-10.81,3.19-15.12,.85-1.74-3.53,.46-9.25,2.01-13.9-4.78,1.96-10.17,4.49-13.71,2.81-1.75-3.18-.45-8.76,.79-12.94-3.29,3.62-6.59,6.37-9.9,7.25-4.91-2.42-6.24-9.37-7.83-13.41-34.68,14-7.39-35.43-18.18-44.98,1.82-2.07,12.89-5.5,12.89-5.5-30.45-62.89,199.68-39.39,163.73,7.01Z"/>
    <path d="M33.39,221.56c-2.91,2.29-6.52,3.34-10.71,3.31-2.72-4.85-3.5-9.32-2.51-13.44-4.84,.13-9.69-1.29-14.53-4.35-.61-6.26,1.75-10.04,4.38-15.38-4.67-1.75-7.53-5.94-9.41-10.47,2.16-1.85,10.47-4,14.17-3.08-.92-3.7,1.54-10.47,3.12-12.43,2.62-.32,6.48,1.73,8.93,4.03-2.41-3.22-4.04-6.54-3.81-10.09,2.48-3.05,5.74-4.98,9.71-5.84-.7-4.52-.46-8.65,1.57-12.05,4.19-.72,8.28,2.89,12.21,5.57,2.23-3.18,4.93-9.55,8.01-10.78,4.27,1.31,7.09,7.7,8.63,11.4,68.39-74.86,288.34,123.03-29.75,73.6Z"/>
    <path d="M300.55,.62c3.99,3.47,6.8,7.54,7.87,12.48,4.61-2.51,10.09-3.3,16.18-2.85,2.44,5.66,2.91,11.09,1.32,16.28,4.75-1.72,9.83-1.38,15.16,.61,1.22,3.86,.4,8.06-1.39,12.43,3.28-3.6,7.36-5.71,12.26-6.31,2.61,3.02,4.29,6.51,4.97,10.5,5.94-2.75,12.09-3.19,18.43-1.45,.04,6.86-1.32,12.37-4.89,15.74,4.5,.38,8.71,2.25,12.68,5.39-.75,4.16-2.26,7.77-4.58,10.78,4.69,1.94,13.91,2.3,16.37,6.3,3.81,5.98-77.24,110.87-100.24,64.87,0,0-3,6-9,8-2.65-1.7-4.67-6.66-5-10-.84,3.73-1.55,7.35-3.78,9.6-3.97,.59-6.5-.3-9.64-2.43-3.12,4.01-6.92,6.55-11.59,7.2-3.03-3.67-4.72-7.99-5.12-12.96-41.36,24.85-90.56-70.35-54.6-88.62-2.06-4.43-2.61-8.81-2.05-13.15,3.93-2.37,8.12-3,12.51-2.32-.08-5.03,1.59-9.42,4.74-13.26,4.82,1.12,8.66,3.48,11.54,7,2.7-4.06,6.33-6.96,10.88-8.7,3.11,1.8,5.01,4.54,6.05,7.96-.42-4.35,.67-8.4,2.95-12.22,3.86-.46,7.22,.48,10.32,2.14-.79-4.31-.19-8.36,1.72-12.14,4.39-.27,8.32,.6,11.87,2.35,1.61-5.02,4.47-9.18,8.48-12.56,5.25,2.55,9.61,6.18,13.34,10.6,2.84-4.32,6.96-8.06,12.24-11.26Z"/>
  </g>
  <g class="treeFurther">
    <path d="M237.82,327.87c3.7-3.39,6.16-9.55,6.16-14.48-5.06-2.07-9.6-2.4-14.17-1.23,.23-4.01,4.11-10.8,1.72-15.46-5.38,.76-10.31,2.75-14.84,5.81-.73-3.75-3.08-7.06-6.89-10-4.24,1.84-7.45,4.74-9.65,8.65-1.73-2.88-5.76-6.92-9.78-8.41-3.29,2.24-4.91,7.39-6.95,11.25-7.13-23.54-92.18-13.98-82.78,15.49-4.74-1.51-10.03-.98-15.61,.63-.64,5.7,.62,10.81,3.65,15.38-5.17,2.15-9.62,5.07-12.59,9.56,1.94,5.26,5.04,9.48,9.17,12.78-3.34,2.81-6.21,12.05-4.85,13.96,2.33,2.02,9.99,.99,14.41-1.86,1.24,4.16,1.85,10.33,6.53,13.15,3.37-.6,6.89-3.06,10.47-6.39-1.59,4.06-2.21,7.88-.74,11.19,3.39,1.98,7.83,1.54,12.77,0-1.94,4.51-2.59,8.69-1.15,12.35,4.1,2.69,8.48,3.18,13.12,1.75,1.15,5.56,3.31,10.38,7.09,14,5.01-.18,9.14-2.72,12.63-6.93,2.52,3.84,6.02,6.43,10.75,7.45,3.99-1.88,7.32-5.59,10.27-10.39,2.5,2.53,6.02,3.18,10.17,2.66,2.62-2.15,4.06-5.56,4.8-9.73,.02,5.52,1.66,9.99,5.06,13.27,5.1,.16,11.96-1.57,15.65-6.81,2.39,3.56,7.46,8.86,12.94,10.47,4.31-3.19,4.5-9.45,5.55-14.79,4.51,3.04,10.43,4.37,16.44,2.41,1.77-3.94,1.77-7.84,.26-11.69,4.88-.34,8.9-2.2,11.92-5.87-.28-3.03-.28-10.11-4.28-14.12,9.55-1.23,16.02-6.16,16.64-8.93-2.16-3.08-7.09-8.63-12.32-10.47,4.77-2.44,9.07-8.03,9.55-12.01-2.16-1.54-8.93-4.31-16.02-3.7,3.7-4.93,2.77-13.25,2.16-16.64-3.48-1.47-12.14,1.96-17.25,7.7Z"/>
    <path d="M484.23,266.25c4.14,4.96,6.75,10.26,7.6,15.94-4.17,2.93-8.83,4.77-13.95,5.57,1.83,3.69,2.27,7.66,1.69,11.84-4.13,1.23-8.24,1.2-12.34-.19-.32,4.71-2.61,9.05-6.12,13.18-4.98-2.58-8.53-6.19-10.07-11.16-2.04,3.67-5.35,6.54-10.14,8.59-3.46-3.41-5.3-7.58-5.67-12.41-2.86,2.25-7.58,10.12-11.66,10.55-6.78-3.08-10.47-12.32-10.47-12.32-1.99,6.83-9.55,15.1-12.01,16.33-3.08-2.46-5.72-8.16-8.01-16.64-4.93,6.78-10.78,6.47-13.25,6.16-1.72-1.72-3.7-5.24-2.77-12.32-2.16,6.47-6.28,10.94-9.24,11.09-1.85-.62-6.16-3.08-10.17-9.86-6.36,6.42-15.1,9.55-17.87,9.16-1.53-2.69-3.63-11.95-.61-17.17-37.89,23.11-74.25-129.08,75.23-66.37,4.72,2.91,7.69,6.97,9.73,11.8,4.12-2.15,8.5-3.17,13.26-2.57,1.71,3.4,1.48,8.13,.33,13.25,.96-3.64,2.6-6.54,5.53-8.02,3.16,.3,6.04,1.17,8.41,3.08,2.12-3.17,5.18-5.15,9.12-6.02,2.45,3.02,3.82,6.57,4.32,10.55,4.62-1.96,9.36-2.69,14.27-1.64,1.39,4.63,1.25,9.31-.22,14.05,3.23-.61,9.35,1.25,12.46,2.84-.5,4.82-3.32,8.95-7.37,12.71Z"/>
    <path d="M74.61,156.75c2.82,1.39,7.9,2.26,11.88,.85-1.83,3.76-2.43,8.36-2.37,13.4,5.21,1.67,10.1,1.97,14.56,.45,.09,4.01,2.07,8.34,4.82,12.8,5.3-1.18,10.06-3.55,14.34-6.95,1.02,3.68,3.62,6.8,7.65,9.43,4.09-2.17,7.05-5.31,8.94-9.38,1.95,2.73,5.18,4.55,9.3,5.72,3.1-2.49,5.42-5.85,7.15-9.87,.55,3.9,4.07,9.69,6.51,12.27,4.26-1.62,7.9-4.04,10.91-7.25,16.22,33.5,51.95,22.72,49.3-13.81,3.58,1.72,8.51,2.34,12.42,1.91,2.68-5.09,3.37-10.1,2.18-15.05,4.84,1.14,10.08,.19,15.51-1.85,.19-5.73-1.46-10.73-4.84-15.05,6.05-2.13,9.74-7.68,11.37-10.92-.71-2-5.14-10.32-14.26-11.55,3.08-10.47,.62-16.33-1.6-17.86-3.32-.62-10.1,.3-15.34,3.07,4.31-6.78,4.62-11.71,5.45-15.16-1.89-1.81-8.69-4.9-16.23-4.25-.79-9.92-4.59-15.59-7.07-17.86-2.09,1.47-7.8,2.42-12.65,8.93-1.58-5.46-5.24-9.24-8.63-12.94-3.39,1.23-10.31,5.97-13.46,10.44-2.82-3.63-6.51-5.94-11.3-6.59-3.83,2.18-6.86,6.15-9.42,11.16-2.69-2.32-6.25-2.7-10.35-1.86-2.44,2.34-3.61,5.86-4.02,10.08-.45-5.5-2.43-9.83-6.09-12.83-5.1,.24-9.76,2.44-14.1,6.06-2.66-3.36-7.36-5.21-12.95-6.4-4.05,3.51-6.23,8.06-6.86,13.46-4.74-2.68-10-2.9-15.83-.48-1.45,4.07-1.15,7.95,.65,11.67-4.83,.72-8.7,2.89-11.43,6.79-.75,4.48,.39,9.1,2.63,13.81-4.9,1.19-8.33,4.21-10.67,8.6,2.21,3.78,5.31,6.67,9.08,8.86-4.14,2.7-7.18,7.62-7.64,11.65,3.16,2.46,8.06,4.2,13.38,3.64-1.51,3.89-1.8,8.17-.94,12.83Z"/>
  </g>
  <g class="treeMiddle">
    <path d="M164.93,215.14c.1-4.01-1.68-8.43-4.22-13.01-5.35,.94-10.21,3.08-14.65,6.29-.85-3.72-3.3-6.96-7.21-9.77-4.18,1.98-7.29,4.98-9.36,8.96-1.83-2.82-4.96-4.78-9.03-6.14-3.21,2.35-5.68,5.6-7.6,9.53-.37-3.92-1.58-7.31-3.9-10-4.33,1.43-8.07,3.68-11.23,6.74-1.72-4.49-5.43-8.27-10.15-11.69-4.19,3.17-6.85,7.63-8.15,13.23-3.55-1.92-7.52-2.65-11.91-2.22-1.94,3.52-2.81,7.03-2.43,10.55-2.41-3.62-5.8-6.46-10.22-8.47-3.8,2.75-6.33,6.4-7.98,10.7-3.41-3.05-7.95-4.85-13.4-5.61-2.91,4.96-3.83,9.94-2.87,14.94-4.79-1.36-10.06-.65-15.58,1.13-.46,5.72,.97,10.79,4.15,15.25-5.1,2.32-9.45,5.38-12.27,9.96,2.11,5.19,5.35,9.31,9.58,12.47-3.24,2.91-5.43,10.29-4.81,13.07,3.39,1.54,9.86,1.54,14.79-.92-.92,4,1.23,9.55,3.7,12.01,3.35-.71,10.02-2.72,13.5-6.17-1.45,4.11-1.96,7.95-.37,11.21,3.45,1.86,7.88,1.29,12.76-.42-1.79,4.57-2.3,8.77-.75,12.38,4.18,2.56,8.58,2.9,13.17,1.33,1.33,5.52,.32,8.99,4.22,12.48,5.01-.34,10.51-4.3,13.86-8.63,2.65,3.75,8.09,8.8,12.84,9.67,2.56-2.59,9.03-8.13,8.41-13.37,3.39,4,11.09,4.93,15.1,4.62,2.16-2.77,3.39-9.24,1.54-15.71,2.46,5.55,6.78,8.01,9.86,8.93,2.75-2.22,5.24-6.47,6.47-12.01,3.08,8.93,5.24,11.09,7.39,15.1,3.01-1.74,12.32-3.39,14.17-9.86,3.08,5.55,8.01,7.7,11.46,9.09,3.02-2.32,6.71-6.32,5.89-14.01,4.86-.49,12.09,.36,14.99-3.41,.96-4.44-2.6-13.68-4.62-18.48,4.95-.97,22.18-81.95-25.13-59.75Z"/>
    <path d="M479.91,120.74c-2.48-5.36-2.2-9.87-6.47-12.59-3.56,.25-6.72,2.71-9.75,5.91-2.12-3.79-5.89-6.48-11.07-8.23-3.16,1.31-6.06,4.48-8.84,8.51,.67-4.3,.45-8.17-1.71-11.08-3.74-1.19-7.98,.19-12.46,2.77,.91-4.82,.64-9.04-1.55-12.31-4.58-1.74-8.97-1.26-13.18,1.13-2.33-5.18-5.48-9.42-9.96-12.13-4.85,1.26-8.33,4.63-10.83,9.5-3.3-3.2-10.65-7.46-15.49-7.44-2.16,2.46-5.55,9.24-5.55,14.79-5.76-3.96-11.09-6.16-13.25-5.85-1.85,1.85-2.91,9.37-2.46,17.25-2.77-4.62-6.78-9.86-9.55-9.55-3.7,1.23-7.09,4.31-11.63,9.89-4-3.04-9.94-6.19-12.09-6.19-1.85,1.54-3.7,7.09-3.7,15.02-3.07-1.16-12.31-2.08-15.7-.23-.62,3.7,1.23,11.4,5.55,14.79-4-.92-11.47-.55-14.17,1.54-.12,4.54,2.46,9.86,6.24,14.26-3.79,2.81-5.09,4.52-6.85,9.46,4.03,2.87,6.73,3.54,12.01,4-29.75,46.98,35.01,79.95,55.94,62.12-.26,4.23,1.28,8.49,4.8,12.8,4.14-.69,7.51-2.35,9.98-5.11,1.19,4.42,5.05,7.06,10.25,8.81,2.83-3.63,4.65-8.03,5.72-13.01,3.72,2.36,8.1,3.62,13.12,3.85,1.51-4.6,1.92-9.39,1.23-14.39,3.13,1.78,6.54,2.76,10.23,2.92,2.14-3.31,2.94-7.08,2.82-11.15,1.16,3.78,2.76,6.91,5.01,9.06,3.94-1.13,7.18-2.98,9.61-5.69,1.2,4.69,3.73,8.49,7.73,11.25,4.36-2.85,7.13-6.25,8.5-10.22,2.38,4.63,6.5,7.57,11.85,9.25,2.74-4.67,4.25-9.35,3.75-14.04,4.27,.66,8.33-.02,12.18-1.94-.15-4.22-1.27-8.06-3.71-11.37,4.91-1.66,9.17-4.29,12.78-7.89-1.81-5.45-5.3-10.21-10.24-14.38,3.72-1.78,6.4-4.79,8.36-8.65-.62-3.7-2.28-6.62-4.98-8.76,4.8-2.27,8.84-5.61,11.91-10.31-2.31-3.68-5.91-5.65-9.54-8.68,4.02-3.75,7.36-7.81,8.01-12.25-4.18-2.76-8.13-5.27-12.84-5.45Z"/>
  </g>
  <path class="treeCloser" d="M173.43,265.64c1.16,6.28,1.23,13.25,3.62,14.85,2.85-.07,9.32-2.22,12.4-6.84,0,7.39,3.39,12.01,6.78,13.62,2.46-.06,6.16-.37,11.09-5.3-.83,4.28,4,8.93,6.78,9.86,3.7,.31,8.01-6.47,11.29-11-1.09,4.78-.2,11.93,1.03,13.77,2.77,1.23,10.78-.31,13.56-4.62-.31,6.47,4,13.86,6.16,14.79,2.77,0,9.34-8.17,12.01-12.94,2.66,6.62,7.09,9.55,10.17,11.09,3.39-2.77,7.43-10.12,6.16-12.32,5.85,3.7,10.78,2.77,13.86,2.16,1.54-2.46,2.77-8.32,.62-13.86,2.86,4.39,8.93,6.47,11.4,7.09,1.54-2.16,4.62-4.62,5.24-12.32,1.23,5.55,4.93,10.47,8.32,13.25,2.46-.19,11.75-9.26,12.01-14.79,2.77,2.16,8.63,6.47,12.63,5.24,1.54-2.16,1.54-11.4,0-14.17,5.24-1.54,9.24-6.78,10.78-9.24-.92-3.08-7.39-7.09-12.01-8.63,3.9-2.67,8.63-7.97,10.58-12.84-3.92-3.02-8.6-4.71-13.87-5.36,6.06-.28,10.07-5.52,13.15-10.14-1.85-2.16-6.47-7.39-12.32-8.93,4.31-4,6.78-12.01,7.7-15.71-5.55-1.85-12.01-1.85-18.79,2.77,1.23-4.62-2.51-12.49-5.23-15.24-4.52,1.06-8.76,3.45-12.8,6.78,1.88-5.64,3.77-10.07,2.31-16.18-5.22-2.37-12.47,.14-17.25,.92,.41-4.21,3.66-10.97,.31-15.4-4.16,.54-11.6,1.65-14.17,4.31-1.03-4.46-4.87-9.1-10-11.03-2.96,3.52-4.94,7.86-6.19,12.8-3.63-2.5-7.97-3.92-12.97-4.32-1.67,4.54-2.27,9.31-1.76,14.33-3.06-1.89-6.43-3-10.12-3.29-2.26,3.23-3.19,6.97-3.23,11.04-1.02-3.82-5.32-8.66-7.49-10.9-3.7,1.23-8.87,6.32-11.4,8.93-3.22-5.39-8.01-8.63-12.32-10.17-2.77,2.46-7.15,6.95-7.39,15.1-5.49-5.46-13.25-8.01-13.25-8.01-1.85,1.23-3.7,8.63-3.39,13.86-4.97,1.48-9.46,6.81-13.19,10.28,1.61,5.51,4.92,10.4,9.7,14.75-3.78,1.64-6.57,4.55-8.67,8.34,.48,3.72,2.04,6.7,4.65,8.93-4.88,2.09-9.04,5.29-12.28,9.87,2.17,3.76,5.7,5.86,9.22,9.02-4.15,3.6-7.64,7.54-8.45,11.95,4.07,2.91,10.32,3.53,15.02,3.88Z"/>
</svg>