<svg viewBox="0 0 410.6 306.77">
  <g class="treeTrunk">
    <path d="M339.56,186.86c-7.92,8.93-14.51,17.62-14.42,25.14l1.11,68.39c.37,9.15,5.6,17.61,12.2,25.88H278.19c6.39-8.24,11.55-16.56,12.57-25.14l2.59-68.39c-.63-8.12-6.45-17.36-14.05-27Z"/>
    <path d="M93,192c8.37,10.67,16.23,21.26,15.89,30.69l-2.22,54.34c0,8.88-6.07,18.9-13.67,29.21h74.3c-9.09-8.53-15.87-17.81-17.37-28.84l-2.22-54.34c-.6-7.85,9.43-20.53,19.59-33.27Z"/>
  </g>
  <path class="treeFurther" d="M212.38,161c0,11.09,18.49,21.07,33.28,15.53,4.06,14.79,28.46,24.4,44.36,11.83,11.83,17,43.25,13.68,53.23-3.33,15.16,7.39,36.6-3,38.45-20,24-1.48,37.71-38.08,21.07-55.09,9.24-15.89,1.11-34-15.89-37.7.37-20-20-32.91-38.45-25.14-7.77-14-31.43-15.53-42.15-3.7C291.13,29,265.62,30.85,253.05,48.6c-10.72-8.14-29.46-3.07-32.53,13.3Z"/>
  <path class="treeCloser" d="M241.22,66c18.85,1.48,21.07,34,8.5,43.25,11.09,17-3,49.54-27,49.54-.74,16.27-20.34,31.8-39.56,25.51-9.24,18.85-44.73,23.66-57.67,9.61C107,209.41,73.38,199.43,66,185.38c-23.29,11.09-44.73-15.53-42.15-29.21-17.37,0-29.2-26.61-19.22-40.66C-5,100,3.14,73.73,19.41,71.15c-3.7-20,14.42-43.26,34.75-39.19C59.7,16.06,79.67,6.82,97.41,12.37,111.83-5.38,147.32-2,157.67,14.59c16.27-13.31,40.67-6.66,45.84,11.83C223.1,22.35,246.76,41.94,241.22,66Z"/>
</svg>
