<svg viewBox="0 0 85.53 175.12">
  <path class="blackMedium" d="M1.51,163.16c27.73,0,55.45,0,83.18,0-1.45-54.21-1.34-108.46,.34-162.66-27.73,0-55.45,0-83.18,0C.17,54.71,.06,108.95,1.51,163.16Z"/>
  <g class="blackMediumDark">
    <path d="M83.18,174.62c-24.65,0-49.29,0-73.94,0-2.58-3.82-5.16-7.64-7.73-11.46,27.73,0,55.45,0,83.18,0-.51,3.82-1.01,7.64-1.51,11.46Z"/>
    <path d="M32.97,43.39h18.94c4.2-.14,4.4-7,.12-7.08h-18.94c-4.35,.09-4.54,6.96-.12,7.08Z"/>
    <path d="M32.79,55.92h18.94c4.21-.14,4.36-7,.09-7.08h-18.94c-4.36,.09-4.5,6.96-.09,7.08Z"/>
  </g>
</svg>