<svg viewBox="0 0 96.96 169.35">
  <rect class="blackDark" x="70.46" y="39.76" width="22.58" height="22.58"/>
  <g class="blackMedium">
    <rect x="71.54" y="9.09" width="22.58" height="22.58"/>
    <ellipse cx="81.8" cy="108.93" rx="11.69" ry="42.57"/>
    <path d="M2.32,168.85H70.08c-2.34-54.25-2.43-108.41-.26-162.66-22.58,0-45.17,0-67.75,0C-.1,60.45-.02,114.61,2.32,168.85Z"/>
  </g>
  <path class="blackMediumDark" d="M93.48,9.77c-5.56,9.79-11.13,19.66-19.54,27.37,6.74,4.59,13.07,9.47,18.24,16.57,.3-14.65,.73-29.29,1.29-43.94Z"/>
  <g class="whiteLight">
    <ellipse cx="75.64" cy="37.15" rx="6.3" ry="11.99"/>
    <ellipse cx="77.04" cy="108.93" rx="8.19" ry="29.82"/>
  </g>
  <g class="blackMediumDark">
    <ellipse cx="73.4" cy="37.15" rx="4.19" ry="7.98"/>
    <ellipse cx="73.45" cy="108.93" rx="4.22" ry="14.14"/>
    <path d="M96.46,.5c-10.66,2.28-15.99,3.42-26.64,5.69-22.58,0-45.17,0-67.75,0C12.72,3.92,18.04,2.78,28.7,.5c22.58,0,45.17,0,67.75,0Z"/>
  </g>
  <path class="blackMediumLight" d="M96.46,.5c-10.66,2.28-15.99,3.42-26.64,5.69-2.17,54.25-2.08,108.41,.26,162.66,8.55-5.55,17.11-11.08,25.68-16.61-1.73-50.62-1.49-101.15,.7-151.75Zm-14.66,151c-6.46,0-11.69-19.06-11.69-42.57s5.23-42.57,11.69-42.57,11.69,19.06,11.69,42.57-5.23,42.57-11.69,42.57Zm10.39-97.8c-8.19,3.12-12.29,4.67-20.47,7.79,.25-15.47,.65-30.92,1.2-46.38,8.22-2.14,12.34-3.21,20.57-5.34-.56,14.65-.99,29.29-1.29,43.94Z"/>
  <g class="blackDark">
    <path d="M23.87,47.51h21c4.78,0,4.78-7.86,0-7.86H23.87c-4.96,0-4.96,7.86,0,7.86Z"/>
    <path d="M23.87,61.4h21c4.78,0,4.78-7.86,0-7.86H23.87c-4.96,0-4.96,7.86,0,7.86Z"/>
  </g>
</svg>