<svg viewBox="0 0 115.05 176.97">
  <path class="blackMediumLight" d="M18.05,13.81H114.17c-1.42,54.22-1.29,108.46,.39,162.66H18.43c-1.68-54.21-1.8-108.45-.39-162.66Z"/>
  <path class="blackDark" d="M24.63,73.34c12.86-8.13,25.5-16.77,37.1-26.66,13.83,10.07,29.01,18.39,43.95,26.66-27.02,0-54.03,0-81.05,0Z"/>
  <g class="blackMediumDark">
    <path d="M94.22,.5H1.8C7.21,4.94,12.63,9.38,18.05,13.81H114.17c-6.65-4.43-13.3-8.87-19.95-13.31Z"/>
    <path d="M25.42,20.03c10.07,10.89,22.25,21.34,36.3,26.65-11.59,9.88-24.24,18.52-37.1,26.66,.1-17.77,.37-35.54,.79-53.31Z"/>
    <path d="M106.47,20.03c-13.73,10.43-28.77,20.04-44.74,26.65,13.83,10.07,29.01,18.39,43.95,26.66,.1-17.77,.37-35.54,.79-53.31Z"/>
  </g>
  <g class="blackMedium">
    <path d="M1.8,.5C7.21,4.94,12.63,9.38,18.05,13.81c-1.42,54.22-1.29,108.46,.39,162.66-5.67-5.5-11.33-11-16.99-16.52C.08,106.81,.19,53.64,1.8,.5Z"/>
    <path d="M106.47,20.03c-13.73,10.43-28.77,20.04-44.74,26.65-14.06-5.31-26.24-15.77-36.3-26.65H106.47Z"/>
    <path d="M23.69,127.04c.17,22.67,19.99,41.83,42.57,41.69,22.57-.13,41.12-19.14,40.81-41.69-.31-22.6-19.34-41.56-41.96-41.7-22.73-.14-41.6,19.09-41.43,41.7Z"/>
  </g>
  <g class="whiteLight">
    <path d="M45.48,46.69c-.13,8.86,7.21,16.25,16.05,16.25,8.87,0,16.31-7.39,16.44-16.25,.13-8.83-7.11-16.25-15.96-16.25-8.87,0-16.4,7.37-16.54,16.25Z"/>
    <path d="M33.48,127.04c.24,17.44,15.12,31.89,32.51,31.89,17.37,0,31.51-14.58,31.28-31.89-.24-17.36-14.74-31.9-32.15-31.9-17.34,0-31.88,14.5-31.64,31.9Z"/>
  </g>
  <g class="blackMediumDark">
    <path d="M53.14,127.04c.09,6.52,5.95,12.16,12.43,12.24,6.58,.07,12.13-5.71,12.04-12.24-.09-6.55-5.78-12.31-12.38-12.24-6.46,.07-12.18,5.73-12.09,12.24Z"/>
    <path d="M51.81,46.69c-.09,5.16,4.38,10.05,9.79,9.92,5.27-.13,9.96-4.6,10.05-9.92,.09-5.28-4.53-9.81-9.75-9.92-5.45-.11-9.99,4.72-10.08,9.92Z"/>
  </g>
  <g class="blackDark">
    <path d="M6.26,45.51l5.1,4.13c1.16,.94,1.16-6.92,0-7.86l-5.1-4.13c-1.21-.98-1.21,6.88,0,7.86Z"/>
    <path d="M6.26,59.41l5.1,4.13c1.16,.94,1.16-6.92,0-7.86l-5.1-4.13c-1.21-.98-1.21,6.88,0,7.86Z"/>
  </g>
</svg>