<svg viewBox="0 0 172.58 467.6">
  <path class="stephanieJeans" d="M55.93,377.69c.44,8.74,3.23,34.38,3.23,34.38l21.65.19c2.88-2.81,1.81-6.46,2.09-11,.95-15.2,2.09-34.19,3-52.62,1.52,15.39,1.29,31.78,4.26,47.11,1.08,5.57.42,15.64,3.15,22.61l21.66.76c.19-5.51,2.7-12.61.95-17.48a346.73,346.73,0,0,0,1.9-52.24c-.18-4.43,2.41-8-.38-11.21,3.52-1.51.51-7.16,1.33-13.3,2.09-15.76,3.61-36.64,4.94-59.46,3.53-2.54,0-4.3,1.33-10.07,3.36-14.83-.57-29.25-1-35.33-14.62,1.8-66.21,2.08-77.13.38-2.51,25-2.11,54.2,1.52,76.75a297.62,297.62,0,0,1,3.42,34C52.71,349,55.31,365.42,55.93,377.69Z"/>
  <g class="stephanieJeansInner">
    <path d="M115.8,416.68c3.47.37,2.48,8.22-.79,8.68-6.51.9-15.34.64-23.09.19-3.48-.19-3.35-10.93,3.68-9.75C103.86,417.2,109.33,416,115.8,416.68Z"/>
    <path d="M82.37,410.53c3.25-.06,2.06,10-1.2,10.15-15.32.5-15-.4-22.68-.6-3.19-.08-3.92-10.71-.2-10.35A194,194,0,0,0,82.37,410.53Z"/>
  </g>
  <circle class="clothingSilver" cx="71.43" cy="226.62" r="2.56"/>
  <path class="stephanieShirt" d="M163,147.87c1.12,1.64-16,12.56-22,13.11-5-2.72-8.83-7.89-14.13-11.56a9.32,9.32,0,0,1-1.77,5.85c3.81,9.24-3,14.45-2.72,18.8,4.09,4.13,2.45,10.11-2,13.91,1,1.77,3.29,6.76-.55,10.78,3.6,7.55,5.2,16.38,5.44,26.1-16.17-.68-28.13,4.89-48.25,1.49C56,222.8,53.42,215.89,48.12,214c.14-15.49,3.13-28.92,1.19-42-2.76-18.69-2.5-25.66,6.66-42-.89-10.6,1-16.31,7.24-21.81,4.2-3.7,9.63-8.57,13.42-8.71-11.14,9-2.45,19.76,12.79,25.45,16.15,6,37.57,7.92,53.47-2.13C144,122,156.41,138.74,163,147.87Z"/>
  <g class="skinEastAsian">
    <path d="M78.88,78.85c1.62,14.43.25,18.25-2.25,20.62-11.14,9-2.45,19.76,12.79,25.45,16.15,6,37.57,7.92,53.47-2.13-2.08-1.36-10.76-16.71-26.91-24-7.24-4.38-10.07-20.93.6-34.7"/>
    <path d="M6.32,222.36l25-11.33C37.8,204.39,44,194,49.93,185.42c-.27,8.88-1.71,17.84-1.81,28.56-4.91,4.79-7.52,6.19-12.53,10.08-1.62.66-2.75,7.83-11.59,12.44-1.56,1.23-2,2.05-3.57,2.72,6.57-2.49,8.11,3.08,4.93,4.33-4.23,0-8.41,1.84-10.74.55a2.46,2.46,0,0,1-1.37-2.79C7.32,243.19,8.26,232.58,6.32,222.36Z"/>
    <path d="M48.88,214.3a46,46,0,0,0-.18,6.3c2.62.28,6.46.49,11.07.64C54.11,218.47,51.77,215.64,48.88,214.3Z"/>
    <path d="M121.56,196.21c4.37-.73,8.59,2,10.46.55,9.84-10.08,10.13-22.15,17.19-30.14-.08-.49-4-2.88-6.91-5.87,6-1.46,18.2-9.07,20.43-12,5.29,7,11.31,14.91,9.16,21.17-6.42,18.72-21.21,27.76-33.32,38.84-3.4,6.36-7.87,10.15-14.09,9.72a4.86,4.86,0,0,1-1.44,2.25c1.82,1.76.8,5.45-1.87,4.27-1.34-2.51-4.5-3.2-2.09-8.44-1,.91-2.32,2.39-3.1,2.67.11,5.56-6.41,6.36-6.25,2.57,1.92-2,.42-4.12,5-8.56-2.14.32-3,2.05-4.39,2.09-2.56,5.4-8.44,3.53-7.16,1,2.83-2.3,0-3.95,10-10.21a13.93,13.93,0,0,1-4.54.75c-3.79,4-8.76.68-6.65-1.43,2.23-1.07,3.5-2.73,7.31-4.24,5.32-2.11,6.62-1.37,10.52-2.49A8.19,8.19,0,0,0,121.56,196.21Z"/>
    <path d="M112.81,425.61a131.13,131.13,0,0,1-17.68.11c0,3.27-.14,7.32-.29,11.69,6.18,2.94,12.57,3.6,18.51,1.1C113,434,112.71,429.73,112.81,425.61Z"/>
    <path d="M78.85,420.75a120.61,120.61,0,0,1-17.12-.52c.14,4.09.12,8,0,11.8a16,16,0,0,0,17.34,1.23C79,429.09,78.77,424.92,78.85,420.75Z"/>
  </g>
  <g class="soleWhite">
    <path d="M119.18,450.3a9.83,9.83,0,0,1-1.37,7.66c-2.06,3.27-8.26,2.78-12.3,6.13-6.22,5.16-32.93,4-32.07-2.32C75,456.47,92.09,452.84,119.18,450.3Z"/>
    <path d="M84.4,448.62c-.1,2.43-.77,4.95-2,5.9-10.26,4.82-16.16,2.77-22.72,4.88-15.13,4.86-29.4,3.49-28.54-7.43C39.63,447.22,62.63,448.16,84.4,448.62Z"/>
  </g>
  <g class="stephanieShoe">
    <path d="M105.34,436.75a22.77,22.77,0,0,0,8.77-3.35c2.66,1,5.67,13.32,5.07,16.9-6.7,9-10.61,6.6-18.31,11.13-3.68,2.16-11.09,3.35-12.64,2.4-3.27-3.47-13.41-4.3-14.79-2.06,0-5.25,3.21-8.85,8.26-11.78,2.27-1.31,7.39-12.38,11.19-16.23S105.2,430.68,105.34,436.75Z"/>
    <path d="M70.61,432.2a30.94,30.94,0,0,0,9.21-2.88c2.76,1.21,6.3,13.71,4.58,19.3-7.43,5.83-18.17,5-24,6.67-7.74,2.67-15.7,4.83-20.56,2.44q-3.06-6.59-8.68-5.76c1-4.74,6.06-6.91,12-8.67,4.17-1.22,11.26-7.84,15-13.08C61.83,425.23,69.75,426.87,70.61,432.2Z"/>
  </g>
  <g class="shoelace">
    <path d="M52.81,445.35A47.19,47.19,0,0,0,64.54,436a19.54,19.54,0,0,0-9.07-2.38c-3.87,4.36-9,8.7-12.29,9.67A15.11,15.11,0,0,1,52.81,445.35Z"/>
    <path d="M94.68,452.31c2.88-2.57,5.17-6.28,7.22-10.59a30.62,30.62,0,0,0-12.8-2.8c-2.91,4.62-5.84,10.16-7.4,11.07C85,449,91.22,450.25,94.68,452.31Z"/>
  </g>
  <g class="bottle">
    <path class="labelReverse" d="M13.27,273.54c-.38-.82,2.69-2.33,6.46-3.34l-5.8-24.14c-3.91.81-6.73,2.05-6.61,2.7Z"/>
    <ellipse class="bottleBottom" cx="22.96" cy="275.89" rx="7.67" ry="1.56" transform="translate(-63.82 13) rotate(-13.51)"/>
    <path class="beerSide" d="M31.17,272l-2.54-10.54c0,.79-4.64,1.44-9.68,1.44s-8.59-.65-8.6-1.44h0l3.53,14.7a2.29,2.29,0,0,0,2.36,2.05A28.46,28.46,0,0,0,30,274.88C31.07,274.34,31.52,273.51,31.17,272Z"/>
    <path class="beerTop" d="M10.35,261.44c0,.79,3.56,1.44,8.6,1.44s9.68-.65,9.68-1.44S24,260,19,260,10.35,260.64,10.35,261.44Z"/>
    <path class="bottleSide" d="M11.86,216.18c1-.16,1.31.26,1.59,1.51.25,1.06.47,1.6-.25,2,1.52,5.31,3.19,10.51,5.05,15.59a11.08,11.08,0,0,0,3,4.78,11.6,11.6,0,0,1,3.54,5.41L31.17,272c.35,1.53-.1,2.36-1.17,2.9a28.46,28.46,0,0,1-13.77,3.31,2.29,2.29,0,0,1-2.36-2.05L7.51,249.66a11.48,11.48,0,0,1,.7-6.42,11.05,11.05,0,0,0,.51-5.63q-1-8.06-2.58-16.18c-.84-.07-.9-.65-1.15-1.7-.32-1.24-.21-1.77.73-2.08A22.75,22.75,0,0,1,11.86,216.18Z"/>
    <path class="bottleCreaseLine" d="M6.14,221.43a25.29,25.29,0,0,0,7.06-1.7"/>
    <path class="bottleOverlapLine" d="M6.14,218.12a28.76,28.76,0,0,0,5.55-1.33"/>
    <g class="labelSecondary">
      <path d="M10.85,225.32a9.38,9.38,0,0,1,3.58-1.44c.74,2.42,1.51,4.81,2.32,7.19a2.33,2.33,0,0,1-1,.65,4.93,4.93,0,0,1-3.52-.69C11.47,230.51,10.32,226.06,10.85,225.32Z"/>
      <path d="M7.32,248.76c0,.3.71.47,2.15.43l6,24.92c-1.37,0-2.05-.25-2.19-.57Z"/>
    </g>
    <path class="labelMain" d="M24.43,244.34a7,7,0,0,1,.38,1.17l6.06,25.24c-5.64,1.16-9.5-4.1-11.23-11.28S19,245.91,24.43,244.34Z"/>
  </g>
  <path class="stephanieUndershirt" d="M123.22,102.86c.9-.12-4.33-3.41-5.46-3.21-14.19.36-14.14,17.86-22.74,27.12a79.13,79.13,0,0,0,11.82,2.49C107.27,115.27,111.24,101.54,123.22,102.86Z"/>
  <g class="clothesDisplayLine">
    <path d="M56,222.36c0,9.47-1.69,19.15-10.36,19"/>
    <path d="M88.79,227.46c2,9.67,10.18,12.4,20.86,13"/>
    <path d="M74.89,266.58c-9.46-14.74-5.66-19.71-7.65-27.53-1.67-6.54.75-7.06-.36-15"/>
    <path d="M76.59,226.27c.69,4-1.17,7.25-.2,11s0,8.14,1.14,12.8c1.34,5.35-.46,8.69-7.37,7.58"/>
    <path d="M59,221.22a45.08,45.08,0,0,1,0,8.65"/>
    <path d="M84.9,230.15v-2.87"/>
    <path d="M108.71,416.47c1,1.13,1.13,8.15.24,9.4"/>
    <path d="M111.38,416.46c1.22,1.05,1,8.16,0,9.27"/>
    <path d="M79.11,406c-.5,2.06-3.54,3.23-5.41,4.54,1.32.89,1.55,9.55.33,10.25"/>
    <path d="M76.37,410.59c1.41.93,1.64,9.3.47,10.2"/>
  </g>
  <g class="clothesOverlapLine">
    <path d="M118.61,144.16c3.1,1,6,3.5,8.3,5.26"/>
    <path d="M59.31,121.37A33.64,33.64,0,0,1,56,130"/>
    <path d="M85.94,348.62c-2.62-17.52-3.46-35.53-5.4-45.91-2.58-13.81-2.82-27.9-5.65-36.13"/>
    <path d="M55.7,443.55c-1.89-1.33-6-2.13-8.84-2.14"/>
    <path d="M58.29,441.72a18.4,18.4,0,0,0-9-2.16"/>
    <path d="M60.51,440a17.88,17.88,0,0,0-9.15-2.14"/>
    <path d="M62.43,438.23c-2.87-1.52-6.26-2.59-9.26-2.16"/>
    <path d="M84.12,447.06c2.58-.5,10.5,1.43,12.75,2.95"/>
    <path d="M85.67,444.59a36.93,36.93,0,0,1,12.93,3.08"/>
    <path d="M86.79,442.72c3.4,0,8.79,1.49,13,3"/>
    <path d="M87.91,440.85c3.36-.16,8.9,1.25,13,2.94"/>
    <path d="M70.61,432.2c-2.88.29-4.1,2.17-6.07,3.81"/>
    <path d="M105.34,436.75c-1.91.39-2.62,2.83-3.44,5"/>
  </g>
  <g class="clothesFoldLine">
    <path d="M125.14,155.27c-2.15,2.93-7.62,4.47-1.49,5.58"/>
    <path d="M57.5,149.37a51.38,51.38,0,0,0,17.56,1"/>
    <path d="M86.26,153.07c-5.76.84-11.17,1.4-15.37,1"/>
    <path d="M99.64,171.31c6.83,13,22.75,14.09,22.78,2.76"/>
    <path d="M120.39,188a23.4,23.4,0,0,1-8.13,5.05"/>
    <path d="M103.06,193.89c-6.93-1.42-13.47-15.74-18.89-30.55"/>
    <path d="M80.76,172.07c-.15,8,2.27,19.09,4.36,28.86"/>
    <path d="M102,205.49C100,201,92.43,197,94,200.17"/>
    <path d="M101.73,207.39c-6.36-.29-17,4.42-5.13,3.7"/>
    <path d="M103.82,214.7c-7.15,1.74-13.88,2.05-19.93,0"/>
    <path d="M104.58,218.78c-12.73,3.43-24.81,2.21-36.07-4.84"/>
    <path d="M56.18,193.06c.85,5.79,3.47,8.1,1.8,13.66"/>
    <path d="M53,157.06c1.49,9.4,6.62,34.74,11.2,41.41"/>
    <path d="M94.27,259.21c-6.27,1.09-11.68,2.72-14.65,5.86"/>
    <path d="M70.52,266.3a59.8,59.8,0,0,0-14.2-3.7"/>
    <path d="M84.71,266.61a56.17,56.17,0,0,1,21.13-1.69"/>
    <path d="M125.15,260.77c0,1.83-3.84,1.21-5.73,1.37"/>
    <path d="M80.8,352.18c-1.66,10.68-3.72,20.41-7.34,26.38"/>
    <path d="M89.81,369.21c2.54,12.24,6.6,21.5,13.69,24.81"/>
    <path d="M116,401.62a3.13,3.13,0,0,1-2.22,2.53"/>
    <path d="M92.6,403.48c.55,4.9,4.49,13.13,5.23,12.65"/>
    <path d="M114.3,408.27c-1,3.3-3.13,6.2-7.68,8.24"/>
    <path d="M62.1,394.36c.33,6.12,3.44,8,5.68,10.79"/>
    <path d="M62.1,406c1.61,1.44,2.6,2.84,2.44,4.2"/>
  </g>
  <g class="eye">
    <circle class="sclera" cx="76.03" cy="47.44" r="16.38"/>
    <g class="irisDarkBrown">
      <ellipse cx="83.24" cy="47.7" rx="3.4" ry="2.63" transform="translate(30.9 128.11) rotate(-86.75)"/>
      <ellipse cx="62.33" cy="46.35" rx="3.4" ry="2.15" transform="translate(12.52 105.96) rotate(-86.75)"/>
    </g>
    <g class="pupil">
      <ellipse cx="82.75" cy="47.68" rx="1.32" ry="1.02" transform="translate(30.46 127.59) rotate(-86.75)"/>
      <ellipse cx="61.77" cy="46.32" rx="1.32" ry="0.84" transform="translate(12.03 105.37) rotate(-86.75)"/>
    </g>
  </g>
  <g class="skinEastAsian">
    <path d="M32.16,225.91c-7,6.55-9,1-14.15,4.62-1.24,6-7.93,7-8.2,3.79,0-.41,1.35-2.39,1.65-4.69.42-3.1,3.66-4.21,5.87-5.86"/>
    <path d="M6.39,222.74c-2.83,2.7-5.59,4.1-4.91,8.3-2.29,2.37-1.13,5.16,1.41,9.56,1,1.72,2.09,1.57,4.25,3.59,3.14,2,3.57-3,2.11-4.08,2.32-.85,1.5-4.4-1-6.36C7.72,230,7,226.31,6.39,222.74Z"/>
    <path d="M87.66,342.11c2.43-1.45,5.64-6.8,7.87-3.79,2-4.08,7,1.75,9.14-2.33,2.43,3.79,3.6.49,7.78,3.89-2.92.43-8,7.47-9.82,3.79-2.24,2.92-7.78-2.33-8.75,1.46C91.84,342.8,89,344.68,87.66,342.11Z"/>
    <path d="M77.45,340.17c-3.63,0-6.81-3.45-10.11-.6-1.75-2.63-6.64,1.25-8.49-.44-1.32,2.39-3.73.25-5.22,2.69,1.55-.36,6.49,1.92,8.07.1.74,3.32,5.35-2.27,8,.88C71,340.23,74.32,343.27,77.45,340.17Z"/>
    <path d="M100.34,80.91c-5.41,6.55-16,9.24-19.78,10.49-7.37,2.45-15-.24-17.76-5.48-4.42-8.27-9.21-16.2-4.61-36.17,1.43-6.22.47-6.24.94-8.83C47.05-12.93,162.78,43,118.49,70.28c-2,1.23-4.43,5.65-8.27,1.89M80.73,48.91c1.1-.37,2.74.56,4.7.68,2.57.15,4-.3,5.85-.16A10.19,10.19,0,0,0,84.56,46c-1.82-.09-3.13.5-4.52,2.46C79.77,49.06,80.38,49,80.73,48.91ZM68.41,47.13c-1.71-1.55-4.34-3.82-8-1.73a2.49,2.49,0,0,0,0,1.84c3.18,1.23,4.4-.09,7.54.52C68.68,47.9,68.79,47.47,68.41,47.13Z"/>
  </g>
  <g class="skinOverlapLine">
    <path d="M124.56,212.92c-2.14,1.17-4.1.77-5.48,3.68"/>
    <path d="M114.7,213.28c2.4-3.33,3.51-2.55,7.12-4.49"/>
    <path d="M120.74,203.89c-6,1.16-6.51,1.65-7.54,2.28"/>
    <path d="M1.48,231c1.22,4.87,2.56,6.59,4.31,7.15,1.26.41,2.42,2.29,3.46,1.92"/>
    <path d="M8.21,233.75a3.42,3.42,0,0,0-.85-.47c.1-1.71-.29-4.31-1.54-4.75"/>
    <path d="M24,236.5c3.38-2.77-2.05-7-5.94-1.72"/>
  </g>
  <g class="skinFoldLine">
    <path d="M6,233a3.28,3.28,0,0,1,1.35.32"/>
    <path d="M116.08,58.85c3.57-7.22,12.88-.32,3.51,8.27"/>
    <path d="M116.14,61.33c2.09,1.82-3.51,4.75-1.69,6,1.1.78,1.5-2.53,3.9-3,4.36-.84,2.47-5.84-.13-4.42"/>
  </g>
  <path class="lipFemaleMedium__noStroke" d="M80.69,73.45C78,84.3,60.89,84.08,67,71.75Z"/>
  <path class="lipFemaleMedium" d="M64.81,72.61a4.45,4.45,0,0,0,1.71-.94l14.17,1.78a2.8,2.8,0,0,0,1.37-.09c-5-1.51-7.45-5.35-11.23-4.3-2.51.69-3.57-.54-4.55-.13C65.54,69.25,66.07,71,64.81,72.61Z"/>
  <path class="lipEdgeLine" d="M77.41,78.83C72.64,82.94,65,82,65.73,75.61"/>
  <path class="mouthInner" d="M67.48,74.94c.45,4.29,7.54,3.32,10.71.09A34,34,0,0,1,67.48,74.94Z"/>
  <path class="teeth" d="M76.2,72.23a30.39,30.39,0,0,1-9.68-.56c-.2,1.47,0,3.09,1,3.27A34,34,0,0,0,78.19,75c.77-.55,1.7-1.11,2.5-1.58A40.76,40.76,0,0,1,76.2,72.23Z"/>
  <path class="gum" d="M76.2,72.23A9.94,9.94,0,0,0,72,71.48c-3.33.68-3.81-1.11-5.44.19A30.39,30.39,0,0,0,76.2,72.23Z"/>
  <g class="cheekLine">
    <path d="M65.47,63A15.41,15.41,0,0,0,64,66"/>
    <path d="M77.68,60.58c.68,0,2.21,3.1,3.51,4.8s2.55,2.76,3,3.78"/>
  </g>
  <g class="noseLine">
    <path d="M70.32,51.1C68.78,55,66.74,56.88,65.65,59s-.82,4.63,1.57,5.45"/>
    <path d="M77.68,60.58C78.75,61.07,79,64,77.3,65"/>
    <path d="M74.81,64.84c-.78-2.25-1.6-.52-3.68.13"/>
    <path d="M66.26,63a5.43,5.43,0,0,0,2.83,2"/>
  </g>
  <path class="eyeLidLine" d="M60.43,47.24A1.58,1.58,0,0,0,59.13,49"/>
  <g class="eyeFoldLine">
    <path d="M61.25,49.58c.89.89,3.85,1,5.49.07"/>
    <path d="M81.64,50.6a9.21,9.21,0,0,0,7.5,1.13"/>
  </g>
  <g class="eyeCornerLine">
    <path d="M93.48,50.9a6.8,6.8,0,0,1-2.2-1.47"/>
    <path d="M60.43,45.4a2.8,2.8,0,0,1-1,.45"/>
  </g>
  <g class="eyeCreaseLine">
    <path d="M68.41,47.13c-3.5-5.44-7.88-3.1-8.39-2.49"/>
    <path d="M90.81,47.06c-2.07-2.37-8.28-4.22-10.77,1.4"/>
  </g>
  <g class="eyebrowBlack">
    <path d="M79.9,38.13c1,4.65,9-.22,16.34,7.34C90,36.54,84.77,39.18,79.9,38.13Z"/>
    <path d="M59.43,38.37a7.85,7.85,0,0,0-.28,1.57c5.52-1.78,8.6,1.46,10.69-2.4C66.82,38.22,63.2,36.51,59.43,38.37Z"/>
  </g>
  <path class="hairBlack" d="M115.46,12.15C112.88-1.17,89.66-2.31,76.87,3.83,61.69,11.12,51.53,26.9,59.13,40.92a7.06,7.06,0,0,1,1.1-4.25c8.27.54,14.75-3.1,19.92-8.57-1,2.63-5.39,6.77-8.05,8.52,10.36-.81,13.92-9.21,15.72-14-1.08,12,4.24,18.43,14.5,23.76-1.92-1.91-4.83-5.89-5.27-9.29,1.93,4,8.88,9.25,12.49,11.05-.13,6.66-.73,12.7-3.26,18.16,8-5.46,7.57-12.66,9.89-10.9,2.31-3.25,7.43-2,8.46.61,2.45,5.48-.43,9.59-6.14,14.31,4.18,2.69,15.11-8.87,17.76-23.63C140,26,125.75,5.59,115.46,12.15Z"/>
  <path class="hairOverlapLine" d="M109.54,48.1a18.12,18.12,0,0,0,3.13,1.33"/>
</svg>
