<svg viewBox="0 0 154.76 478.2">
  <path class="heel" d="M85.65,437.8c-.67,6.29,0,15.08-.16,23.08.4.77,4,1.21,4,0Z"/>
  <g class="shoe">
    <path d="M38.63,420c-8.59-.54-13,6-12.22,15.84.82,10.49-6.49,28.15-1.34,36.13,4.84,7.49,16.88,7.14,22.71.13s.73-19.25,2.17-34.51C51.13,425,46.67,420.45,38.63,420Z"/>
    <path d="M113.93,459.45c2.32,7.5,1.12,16-4,17.46-13.65,4-20.6-3.67-21.59-18.44-.78-11.67-6.78-23.36,2.35-34.94Z"/>
  </g>
  <g class="eye">
    <circle class="sclera" cx="34.66" cy="66.09" r="16.74"/>
    <g class="irisDarkBrown">
      <ellipse cx="40.28" cy="65.29" rx="2.93" ry="3.4" transform="translate(-11.17 8.38) rotate(-10.44)"/>
      <ellipse cx="20.05" cy="68.48" rx="2.38" ry="3.4" transform="translate(-12.08 4.77) rotate(-10.44)"/>
    </g>
    <g class="pupil">
      <ellipse cx="39.93" cy="65.51" rx="1.14" ry="1.32" transform="translate(-11.21 8.32) rotate(-10.44)"/>
      <ellipse cx="19.47" cy="68.74" rx="0.93" ry="1.32" transform="translate(-12.13 4.67) rotate(-10.44)"/>
    </g>
  </g>
  <g class="skinEastAsian">
    <path d="M76.3,64.78c-6.08,13.16-2.76,28-.3,30.65,6.35,5.71,17.64,4.71,24.39,6.63,9.39,1.38,17,13.39,28.1,21.56,9.6,7.06,25.86,20.58,26,25.82.57,20.5-14.26,31.78-27,53.29-2,2.63-4.27,14-7.84,17.6-1.77,1.48-5.34,1.43-10.32,2.14,14.52,63.31.57,105.1,2.76,124.37,4.52,39.8-1.84,42.13-4,68.87-.17,2.1.84,4.3-.58,8.74-.91,2.84,4.2,22.37,6.47,35-3.09-2.33-20-2.25-23.56,2.15-6.18-31.54.84-32,.49-40.11-.24-5.67,1.3-4.68.75-9.26-2.46-20.41-6.4-23.27-6-55,.16-11.67-10.68-44-16.63-95.55-5.94,51.57-17.53,78.9-16.63,90.54,2.35,30.51-5.83,43.49-5.93,63.89,0,2.38,1.09,5,.61,6.93-.59,2.43,1.44,7.89,1.41,14.76-.39,6.41.21,13.3.73,21.06-4.14-3.06-19.72-3.19-23.82-.83.94-10.93,4.64-23.57,4.45-29.11a28.94,28.94,0,0,1,1.38-8.85c1.31-4.64-11.78-35.42-4.49-78.24C29.89,323.32,15,269.58,27.84,224c-4.57-1.65-6.7-2.11-8.14-3-4.67-3-4.71-13.66-6.93-22C8.52,185-1.37,169.44,2.23,155.46c1.41-5.5,5.41-12.36,8.21-18.82,3.22-7.4,5.63-17.49,10.46-22.44,8.4-8.6,21.92-7.28,27.4-14.65m-21,52a32.79,32.79,0,0,1-3.92,8.13c2.72,10.45-1.32,22.1,1.81,35.53.9,2.12,5.1.87,8.84,2.47C35,184.38,30.47,164,27.27,151.54ZM116,196.63c8.15-10.3,8.5-31.74,15.63-42.58-9.34-4.72-17.67-15.26-26-21a280,280,0,0,1-2.08,56.29,27.26,27.26,0,0,0,.37,9.13C108.21,197.06,115.17,198.13,116,196.63Z"/>
    <path d="M67.64,83.5c-3.06,8.2-9.74,11.58-16.13,16.25-7.14,5.17-13,2.73-17.63-1.72-3.66-3.12-18.11-8.75-18.54-27.69-.15-6.66-5-12.74-4.74-21C4.8,17.87,95.07,28.66,81.32,61.72c-2.68,5.69-3,12.39-9.13,9.49M37,65.61c4.51,2.34,8.25-1.1,10.8-3.22-2-.5-4.4-1.77-7.12-1.34a5.09,5.09,0,0,0-4.53,3.87C35.87,65.79,36.6,65.42,37,65.61ZM25,66.92c-1.69-1.16-3.25-2.55-5.76-2A4.66,4.66,0,0,0,17,66a6,6,0,0,0,.76,3.19c4,1.44,5.74-1.63,6.89-1.39C25,67.86,25.41,67.2,25,66.92Z"/>
  </g>
  <g class="skinDisplayLine">
    <path d="M66.22,203c-1.9,6.46,3.32,7,1.76.49"/>
  </g>
  <g class="skinOverlapLine">
    <path d="M24.81,132.56A33.81,33.81,0,0,1,27,146.88"/>
    <path d="M105.57,133c-4.6-3.52-9.07-8.31-6.23-.51"/>
    <path d="M64.33,148.14c-1.37,4.8-.89,11.25,2.06,14.74"/>
    <path d="M34,197.67c-.78,9-4.11,14.19-6.16,26.3"/>
    <path d="M103.86,198.44c1.09,7.37,4.15,12.76,5.47,24"/>
  </g>
  <g class="skinFoldLine">
    <path d="M131.61,154.05c2.13-1.9,4.92-2.57,8.1-2.53"/>
    <path d="M9.71,157.94c3.21,2.8,10.35,4,13.8,1.73"/>
    <path d="M58.38,163.88a6.72,6.72,0,0,0,2.4-4.47"/>
    <path d="M72.53,56.9c.16-12,12.78-4.24,6.32,6.11"/>
    <path d="M74.32,59.17c2.09,1.6-1.35,5.11.52,5.67,1.5.44.83-2.38,2.55-4.16C80.72,57.23,76.3,54.13,75,56"/>
  </g>
  <g class="skinCreaseLine">
    <path d="M35.68,344.88a17.36,17.36,0,0,0,9.67.81"/>
    <path d="M93.56,345.29a18.56,18.56,0,0,0,10.34-.14"/>
  </g>
  <g class="skinEdgeLine">
    <path d="M20.52,218.61c2,.55,2.93.74,4.4-1.19,1.12-1.47,3.38.1,4.75-1.83"/>
    <path d="M116.08,219.31c-.83-1.2-2.77.36-4.15-1.94-1-1.59-2.39.23-3.75-1.7"/>
  </g>
  <g class="shoeStrap">
    <path d="M88.31,433c2.38,4.12,18.88,2.66,20.57,2.27.78-.16,1.53,3.47.76,3.63-1.87-.7-19.44-2.43-21.63,6.14A53.53,53.53,0,0,1,88.31,433Z"/>
    <path d="M48.49,437.8c-3.24-.83-16.94-.66-19.71-.16-.67-.11,0-4.27.71-4.16,1.53,1.72,16.2,1.91,18.77,0C48.91,433.45,49.14,437.76,48.49,437.8Z"/>
  </g>
  <g class="bikini">
    <path d="M26.82,228.16c-1.64,1.71-.52,4.2-1.84,7.4,15,4.73,29.89,18.72,38.67,29.09,3.1,3.66,7.83,4.25,11.15.15,12.28-15.17,21.81-24.14,36.63-33-.86-3.15,0-4.35-1.75-7.8C88.09,239.34,52.47,240.51,26.82,228.16Z"/>
    <path d="M96.1,164.47a50.73,50.73,0,0,0,9.69.48c.84,0,.94-2,.09-2.08a36.41,36.41,0,0,1-7.79-1Z"/>
    <path d="M86.11,134.75c-1.65-1.53-3.76-24.12-6.78-37.08-.34-1.45-1.94-2-2.31-1.41,3.46,15.48,6,36.91,5.11,38.15-3.83,14.9-13.06,30.53-20.67,30.21-8.17-.34-19.15-15.43-23.28-26.57-1.27-3.43,3.71-27.87,7-35.52a9.18,9.18,0,0,1-1.79.12C38.56,114.89,36,133.14,34.77,135c-4.43,6.45-12.92,13.82-6.81,26.26,3.41,6.93,18.29,7.38,25.9,5.57,2.71-.49,4.68-.08,7.49-.12s6.53-.36,9.43.2a41.64,41.64,0,0,0,25.32-2.39C102.62,159.64,96.71,143.41,86.11,134.75Z"/>
  </g>
  <path class="lipFemaleMedium__noStroke" d="M30.71,86.75c2.55,11.64,15.89,8.86,15.73-2.53C40.66,88.49,36.83,90.05,30.71,86.75Z"/>
  <path class="lipFemaleMedium" d="M47.29,83.51C43.74,84.89,41,84.87,36,86.18c-1.92.5-5.06.08-7,.15.53.12,1.09.27,1.7.42,5.81,3.17,9.8,2,15.73-2.53A2.85,2.85,0,0,0,47.29,83.51Z"/>
  <path class="lipEdgeLine" d="M32.68,91.08c3.13,4.92,10,4,12.93-2"/>
  <path class="teeth" d="M30.71,86.75c3.44,7.73,13.56,2.88,15.73-2.53-3.75.78-7.33,3.09-10.16,3.39S32.13,87,30.71,86.75Z"/>
  <path class="gum" d="M30.71,86.75c1.41.29,2.89,1.15,5.57.86S42.69,85,46.44,84.22C41.59,87.38,34.42,90.6,30.71,86.75Z"/>
  <g class="cheekLine">
    <path d="M27.78,78.74c-1.16.88-1,2.57-1.54,3.91A3.88,3.88,0,0,0,27,86.14"/>
    <path d="M39.65,77a39.78,39.78,0,0,1,6.07,3.23c2.2,1.26,3.29,2.41,3.62,3.69"/>
  </g>
  <path class="noseLine" d="M27.78,78.74A2.52,2.52,0,0,0,28.88,83c1.8.26,1.25,1.22,3.91,1.16,2.9-.07,3.65-2.23,5.33-2.53,2.82-.5,3.19-3,1.53-4.59"/>
  <g class="eyeFoldLine">
    <path d="M18.25,70.86c2.29,1.36,4.95.33,6.13-.5"/>
    <path d="M38.25,68.13c2.35,1.12,6.36.47,8.11-1.37"/>
  </g>
  <g class="eyeCornerLine">
    <path d="M49.9,62.45a4,4,0,0,1-2.14-.06"/>
    <path d="M17,66a2.76,2.76,0,0,0-.91,1.35"/>
    <path d="M17.78,69.17a3,3,0,0,0-.8-.31"/>
  </g>
  <g class="eyeCreaseLine">
    <path d="M25,66.92c-5-4.47-8.43-2.45-8.76-1.14"/>
    <path d="M47.69,61C45.11,58.4,37,59.8,36.11,64.92"/>
  </g>
  <g class="eyebrowBlack">
    <path d="M31.87,56.27c3.08,4,9.12-4.1,18.1-.2C41.39,50.41,36.74,56,31.87,56.27Z"/>
    <path d="M23,57.86c-2.09,4-5.16.24-9.78,3.59l-.45-1.24C15.87,57.11,20.07,59,23,57.86Z"/>
  </g>
  <path class="hairBlack" d="M83.37,49.09c.39,4.85.34,7.93-2.05,12.63,4.55-12-7.43-18.66-10.58-9-3.61.42,2.56,9.34-3.24,17.78-1-27.31-13.15-13.64-18.2-35.85-5.07-2-20.17-.16-24,4.31-5.29-1.79-11.21-.44-13.91,3.52a12.63,12.63,0,0,0-.79,6.91c-4.3-6-2.55-13.82,1.18-18.52C18.62,10.41,45,3,64.56,10.49c15.81,6.72,15.13,16.6,23.62,25.15A10.87,10.87,0,0,1,83,33.57c7.25,8.55,1.07,14.59,5.29,25.89C85.84,57.42,84.35,55.09,83.37,49.09Z"/>
  <path class="hairband" d="M76.82,48.18c-3.94-42-52.13-41-65-17.34C24,13.72,67.09,6.48,73.76,48.62A4.53,4.53,0,0,1,76.82,48.18Z"/>
  <g class="hairbandEarOuter">
    <path d="M23,21.66C22.23,17.73-2.85,6,.57,16.5c5.22,6.14,10.62,9.77,16.35,9A35.75,35.75,0,0,1,23,21.66Z"/>
    <path d="M44.24,17.49C43.37,14.33,51.68-.37,58.07.27c9,.9,7.78,17.4,3.17,24.38A29.68,29.68,0,0,0,44.24,17.49Z"/>
  </g>
  <g class="hairbandEarInner">
    <path d="M48.33,18.14C52.54,14.3,53.82-3.34,61.25,2.55c4.29,3.41,4.22,17.84,0,22.1A29.16,29.16,0,0,0,48.33,18.14Z"/>
    <path d="M16.92,25.51C7.84,22.85,3.45,10.48.69,15c-1,1.72,3,12.61,11.09,15.82A26.7,26.7,0,0,1,16.92,25.51Z"/>
  </g>
</svg>
