<svg viewBox="0 0 1084.34 2158.47">
  <g class="anita">
    <g class="anitaDress">
      <path d="M539,1207.34c-5.81-87.6-12.23-162.45-33.93-208.71-55.38,21.27-314.18,20.33-366,5.14-18.76,25.54-42.28,332.8-46.27,540-.72,13.27,23.75,9.74,41.13,14.17,8,25.68,43.84,10.43,74,10.34,24.45-.08,74.26,16.29,81.25,2,23.32,1,45.64,2.78,60.66-2.06,7.63,10.7,71.63,4.11,79.16-1,30.66,1.58,68.7,8,78.14-3.08,22.43-6.13,53.61-3.37,55.52-16.31C564.5,1359.33,542.86,1265.52,539,1207.34Z"/>
      <path d="M520.71,696.19c-4.81-52.94,4.81-127.71-6.19-151.77C492.86,537,467.08,537.6,441,529.35c-80.05,40.4-155.61,44.41-225.54,2.69-31.63,8.25-82.1,19-82.1,27.81C88.73,604.37,98,793.09,132.21,809.21c6.55,38.4-23.38,52.26,9.75,142.93,49.87,17.88,308.67,16.94,361.37-.94,20.82-19.59,17.61-122.81,14.63-175C516.41,749.12,526.21,727.82,520.71,696.19Z"/>
    </g>
    <path class="anitaBelt" d="M505.07,998.63a181.13,181.13,0,0,1-1.74-47.43c-52.7,17.88-311.5,18.82-361.37.94,1.33,15.94.43,39.45-2.89,51.63C190.89,1019,449.69,1019.9,505.07,998.63Z"/>
  </g>
  <g class="bennett">
    <g class="soleWhite">
      <path d="M964.2,2099.14c2.07,12,4.28,25.28-.11,31.29-27.22,37.2-136.37,30.75-154.25,8.44-5.55-7.21-4.7-23.93-.33-33.61C844.24,2051.21,921.92,2056.2,964.2,2099.14Z"/>
      <path d="M628.59,2099.14c-2.08,12-3.29,26.28,1.11,32.29,27.22,37.2,126.36,29.75,144.24,7.44,3.93-4.64,4.71-23.93.34-33.61C756.17,2054.56,670.87,2056.2,628.59,2099.14Z"/>
    </g>
    <g class="bennettShoe">
      <path d="M942.45,1918.71c-4.51,105.37,19.15,121,21.75,180.43-10.37,6.61-15.88,13.58-22.3,15.21-15.79-45.65-112-48.34-132.39-9.09,5.31-30.11,22.51-40.32,29.5-103.23,3.52-31.65,6.2-48.48,6.9-84.43Z"/>
      <path d="M651.34,1918.71c4.5,105.37-20.16,121-22.75,180.43,2.81,3.56,5.19,7.63,9.3,9.21,15.78-45.65,121-40.91,136.39-3.09-3-31.18-13.25-41.4-17-101.62-2-31.78-2.72-50.09-3.41-86Z"/>
    </g>
    <g class="shoelace">
      <path d="M920.55,2051.15c-15.93-3.27-58.16-5.05-73.12-1,6-22.79,8.12-43.91,9.75-66.76,12.34-3.92,51.31-3.62,69.7,1C925.74,2007.13,926.86,2029.05,920.55,2051.15Z"/>
      <path d="M669,2051.15c7.58-3.27,63.78-5.06,70.91-1-2.88-22.79-3.87-43.91-4.65-66.76-5.88-3.92-60.52-3.62-69.28,1C666.57,2007.13,666,2029.05,669,2051.15Z"/>
    </g>
    <path class="bennettSleeves" d="M865.76,642.83c71.42,25.58,155.41,7.6,171.4,79.53,12.94,35.17,24.82,78.07,28.57,128.19,2.84,37.87,12.67,73.75,2.63,129.52-4.07,29.17,31.89,33.08,4.78,69.2,4,6.9,1.32,14.69,4,23.86-11.25,1.77-64.28,5.68-101.8,4.12-96.88-4-243,7.89-362.53,10.2-33.41,0-71.2-7.07-95.26-8.75,13.46-32.72-17.19-59.93,1.74-80.4,6.11-25.67,1.56-82.87,9.38-131.33-10.95-25.8-1.87-33.34,1.56-53.16,4.82-27.84,12.09-59.71,23.45-89.9,27.36-68,102.53-50,168.2-79.73Z"/>
    <path class="bennettJeans" d="M985.19,1196.22c12.67,94.22,12.81,245.16-2.67,373.41-3.67,30.44,5.84,47.32-7.29,61.52-9.68,10.48,11.9,26.36-2.42,43.72,6.83,76.18-.29,162.82-11.1,255.82-9.59,5.26-10.17,11.55-30.94,13-3.89-21.49-60.41-22.63-69.75-.77-22.11-1.85-22.68-7.57-31-13,1.48-70.64-6.36-130-6.09-210.27.14-39.9-14.36-66.42,6-81.84-18.43-12.94-12.72-49-15-63.26-6.1-38.09-14-106.54-16.85-160.87.72,63-2.68,126.86-8.31,159.16-4.08,23.42,6.61,51-12.58,60.6,21.21,14-2.23,36.54-.57,87.48,1.85,56.88,2.68,120-4.57,151.51-4.08,17.73-2.89,36.9,2.28,57.18-10.86,4-14.29,10.29-37.06,13.28-1.44-20.72-65.85-21.29-69.64,0-21.37-.13-25.94-7.57-35.66-12.71.57-73.76-8.61-156.18-4.72-207.55,2.86-37.73-6.29-54.31,1.15-74.89-10.39-21.28-2.56-46.74-8-67.47-14.13-53.79-25.24-242.88-12.72-382.36Z"/>
    <path class="shirtWhite" d="M884.69,702.66c47.78,21.66,65.11,49.17,106.37,66.54-2.87,11.81-7,20.6-12.14,26.76,20.82,57.2,2,138.27,6.28,213.42,8.75,24.73.74,35.77,1.51,53,.84,18.51,8.69,26.78-2.42,54.15.25,21.85,14.79,45.3,2.72,65.36,4.57,6.57,2.43,14.34,1.54,22.69-83,72-305.11,71.32-383.91-3.58a50.85,50.85,0,0,1,.82-32.55c-16.11-26.45,4.88-30.07-.19-36.58-20.27-36.19-2.51-35.18,5.07-57.91,2.89-8.68-4.35-20.26,3.61-48.49-14.46-20.52-4.34-33.3-4.34-52.12,1.45-55.73.31-119.38,8-180.22-8-6.52-7.23-17.38-13-22.44,29-26.78,68.72-57.18,93.33-65.87C733.34,738.8,846.33,738.8,884.69,702.66Z"/>
  </g>
  <g class="hairBlack">
    <path d="M149.28,487.72C49.57,442.16,52.56,82.15,153.63,81.31,294.37,335.85,103.47,415.21,149.28,487.72Z"/>
    <path d="M536,492.09c96.94-57.75,104.5-367.81,17.88-410.43-27.31-13.44-44.69-6.88-64.62,4.81-19.53,53.22,11.27,118.85,11.18,188.5C500.26,416.46,559.38,421.28,536,492.09Z"/>
    <path d="M129.54,213.08C80.9,44.21,269-22.78,390.17,8.42,506,38.26,547.61,137.82,511.82,257.13,457.55,445,303.88,202,129.54,213.08Z"/>
  </g>
  <g class="anitaBarrette">
    <path d="M524.54,106.16c-.44,1.7-7.58,6-12.59,8.18a175.23,175.23,0,0,1,7.5,25.77c9.06-2.79,21.23-9.2,21.9-12.58C541.89,124.87,526.91,104.85,524.54,106.16Z"/>
    <path d="M513.85,82.21c-1.91-.35-8.65,3.47-13.79,7.22A162.29,162.29,0,0,1,512,114.34c5-2.17,12.15-6.48,12.59-8.18C529.48,103.78,518.8,81.62,513.85,82.21Z"/>
    <path d="M500.06,89.43c5.14-3.75,11.88-7.57,13.79-7.22,4-1.79-5.2-27.67-9.5-28.69-6-1.41-15.33,5-21.64,11.86A157.79,157.79,0,0,1,500.06,89.43Z"/>
    <path d="M135.6,99.21c-5.86,2.62-18.41,20.51-17,24.05,1,2.41,3.34,4.34,6.48,5.86A132.93,132.93,0,0,1,135.6,99.21Z"/>
    <path d="M173.09,52.21A37.65,37.65,0,0,0,164,48.79c-3.87-.61-19,18.95-15.27,29A153.76,153.76,0,0,1,173.09,52.21Z"/>
  </g>
  <g class="eye">
    <g class="sclera">
      <rect x="166.53" y="252.96" width="261.75" height="71.94"/>
      <circle cx="868.85" cy="405.43" r="56.29"/>
    </g>
    <g class="irisDarkBrown">
      <circle cx="359.94" cy="286.66" r="20.4"/>
      <circle cx="217.2" cy="284.21" r="20.4"/>
      <circle cx="866.98" cy="404.48" r="19.56"/>
    </g>
    <g class="pupil">
      <circle cx="359.94" cy="286.66" r="7.93"/>
      <circle cx="217.2" cy="284.21" r="7.93"/>
      <circle cx="866.98" cy="404.48" r="7.61"/>
    </g>
  </g>
  <g class="skinEastAsian">
    <path d="M496.29,1653c-3.57-24,3.6-52.55,9.36-87.56-11.42,9.08-47.39,3.21-76.66,1.7-7.53,5.14-71.53,11.73-79.16,1a58.21,58.21,0,0,1-9.42,2.1c5.4,37.1,12,67.25,7.75,93.37-19.64,121.46,35.72,216.9,21.31,342-80.66,159.14,166.93,138.38,102.89,42.14C447.43,1945.67,515.05,1779.33,496.29,1653Z"/>
    <path d="M300.54,1661.26c-1.5-15.52,7.64-57.53,11.69-90-7.41-.23-15.17-.65-23.06-1-7,14.29-56.8-2.08-81.25-2-22.08.06-47.19,8.26-62.21,2.56,2.94,43.59,11.18,84.44,6.78,110-19.54,113.47,34.64,229.71,21.79,307.4a220.08,220.08,0,0,1-29.5,78.89q155.09,102.55,129.62-78.89C257.7,1925.79,311.81,1778.49,300.54,1661.26Z"/>
    <path d="M520.71,696.19c12.08,4.29,23.65,16,34.37,24.36,18.85-42.42,57.57-49.34,100.33-57.66-49.9-41-100.34-115.15-140-116.31C525,572.69,516,644.74,520.71,696.19Z"/>
    <path d="M36.11,1187.78c-8.27-102.72-52.9-217.43-27.25-289.55,11.36-32,17.52-76.26,32.22-133.82C62.64,680,40.06,580,133.31,559.85c-9.62,53.64-5.33,84.25-4.92,129,.38,40.65-9.12,80.3,3.82,120.33-5.37,45.68-17.65,91.07-19.81,121.9,7.13,56.93-23.53,168.45-14.86,273.48,5.11,14.85,32.07,20.33,26.6,93.63-2.46,32.87,9.26,52.19-7.64,67,13.11,13.8,3.85,38.12-7.11,33.07-12.22-3.79-19-2.79-27.29-10.41-14,.88-25.37-2.91-32.76-15.56-7.57.17-22.94-10.53-27.45-25.77C14.6,1339.51,7,1323.92,8.4,1310.94,9.55,1262.41,34.6,1214.76,36.11,1187.78Z"/>
    <path d="M603.25,1279.62c.61-26.23,1.89-52,3.94-76.34-.86-.77-1.72-1.53-2.55-2.32a50.85,50.85,0,0,1,.82-32.55c-16.11-26.45,4.88-30.07-.19-36.58-15.27-27.28-8.95-33.42-1.67-44.52l-.11,0c-26.91-1-57.91-5.81-78.71-7.92,7,92.25,40.36,153.75,29,196.32-7.68,27.08-37.27,79.81-11.79,136.69,6.81,15.2,29.63,58.07,46.81,52.14,23.11,16,26.66-31.4,2.74-43.84,12.07-11.85,6.15-33.78,13.26-59.85C611.51,1336.06,619,1318.14,603.25,1279.62Z"/>
    <path d="M1046.08,1268.92c3.31-79,28.82-138.55,26.78-195.23-14.36,1.67-52.77,4.21-84.1,3.89h0c1.84,10.3,3.17,20.09-4.47,38.91.25,21.85,14.79,45.3,2.72,65.36,4.57,6.57,2.43,14.34,1.54,22.69-.68.59-1.4,1.16-2.1,1.75,2.48,20.93,4.25,44.3,5.35,69.37-17.39,49.66-3.46,75.61-1.57,102.19,1.94,27.14-3.79,46.83,11.4,51.89-30.78,18.7-19.56,48-4.32,36.54,24.05-14.82,30.89-7.43,52.8-57.87C1079.24,1341.37,1044.49,1287.35,1046.08,1268.92Z"/>
    <path d="M682,551.42c33.93,21.6,27.76,67.87,25.36,112.05-4.56,52.42,158.47,55.84,173.28,0-8.09-30-12-78.12,20.37-115.13"/>
    <path d="M410.77,397.58c-10.89,74.5-10.89,127.18,28.77,134.52-28.84,92.73-209.72,78.85-224,2.19,24-9.53,21.7-75.32,7-116.69"/>
    <path d="M490,285.82c7.88-36.16,40.87-33.56,46.32-8.84,6,27.23-12.11,60.93-24.75,71.42-10.79,9-21.21,41.73-45.4,25.8-14.28,49.26-45.89,92-99.11,118.54-44.48,22.17-41.58,26.69-78.27,25.84-43.21-1-43.61-20.36-69-36-86.19-53.24-63-180.54-65.41-203.17-4.52-42-.43-50.49,1.69-66.09a113.74,113.74,0,0,0,14.7-.52c-1.87-14.69,1.5-27.95,7.62-40.48-.75,14.16-.1,27.8,4.7,39.89,25,2.22,48.53,2.85,69.22.59-.6-10.77,2-20.62,6.45-29.92-.35,10.61.24,20.71,3.52,29.33a214.66,214.66,0,0,0,46.94,0c-2-23.93,2-50.85,7.62-78.61-.07,28.67,1.51,55.78,8.22,78,22.54,2.37,44.22,3.08,64.53,1.18-1.67-10.63.28-21.4,4.69-32.27.38,12.1,2.49,23.12,7.63,32.27,17.11,1.05,29.52.41,47.21-1.76,14.9,39,31.18,69.51,19.95,107.36C487.46,305.51,479.54,287.73,490,285.82ZM333.2,296c8.25,3.21,16.36,3.38,24.19,3.41,14.83.05,25.29-6.41,38.33-12.72-12.65-7.14-21.53-13.86-38.94-13.75-14.28.08-21.72,5.39-30.56,17.93C322.57,296,330.47,294.92,333.2,296Zm-86.31-6.79c-9.59-13.3-20.81-18.13-35.71-17.48C194.6,272.43,186,282,180.9,288a53.11,53.11,0,0,0,29.39,8.46c9.18,0,18.5-1.22,28.65-2.64C241.83,293.42,251,294.87,246.89,289.19Z"/>
    <path d="M975.24,384.19c17.57,5.2,23.46,40.92,4,85.85-6.4,14.78-7.18,36.73-31.94,30.34-22.76,83.23-58.93,88.36-110,120.17-26.27,16.38-71.7,18.21-98.64-1.52-32.75-24-88.45-35-106.9-117.86-23,6.06-19.75-12.82-31.3-36.26-19-38.62-16.6-73.18,7.85-78.32C604.19,99.22,971.11,96.83,975.24,384.19ZM837.7,412.65c19.09-.91,45.82,8,65.44-6.31-7.14-6.31-17-16-36.85-14.57-13.18,1-26.11,7.12-36.44,19.48C825.58,416.35,834.75,412.79,837.7,412.65Z"/>
  </g>
  <g class="soleLightTan">
    <path d="M497.11,2111.08c.58,7-1.24,17.22-6,22.93-25.48,30.71-122.14,22.34-137.85,0-4.86-6.91-8.67-19.24-8.44-30.79Z"/>
    <path d="M285.57,2099.67c-1.06,13-3.3,21.34-12.89,30.8-26.87,26.53-119,22.69-132.61.7-3.64-5.87-9.41-15-6.48-23.39Z"/>
  </g>
  <g class="anitaShoe">
    <path d="M274.4,1988.2c7.75,20.37,7.06,49.06,11.87,70.71C299.19,2117,261,2134.3,210,2134.7c-81.1.62-91-31.39-65.23-67.61,32.92-14.43,79.52-8.21,108.11,2.7,17.29,6.59,24.56-18.86,8-27.15-28.84-14.45-72-17-107.14-1.16-.35-7.16,5.65-23,12.74-28.9,22.68-10.87,62.77-9.94,93.32,2.07C271.24,2019.14,274.77,2004.61,274.4,1988.2Z"/>
    <path d="M369.47,2005.71c-12.69,12.58-17.32,39.2-23.85,62.39-13.39,55.2,23.79,73.09,89.5,71.54,80.42-1.9,76.44-56.51,37.24-91.79,5.23,10.78,5.89,24.15,0,21.56-38.82-17.11-80.5-15.38-110.08.65-5.8,3.15-6.53-19.93,2.94-26.46,32.89-15,71.54-12.41,107.14,4.25,16.33,5.88,17.7-19.74-.33-28.09-33.41-15.5-74.28-15.86-103.54-3.6C365.86,2017.26,367.88,2010,369.47,2005.71Z"/>
  </g>
  <path class="lipFemaleMedium__noStroke" d="M244.55,424.52c3.71,5,3.73,9.88,4.67,14.53,7.55,37.3,56.71,33.09,71.44,2.17,2.65-5.57,4.19-10,10.11-15.7C288.08,433.92,262.81,417.76,244.55,424.52Z"/>
  <path class="lipFemaleMedium" d="M231.82,423.36c18.52,2,24.6-20.49,32.76-17,22.78,9.65,30.05-5.06,37.29,1,12.14,10.15,23,15,38.72,15.67-2.13,1.5-6.77,2.63-9.82,2.53l-81.55-2.4C242.84,425.49,236.94,426,231.82,423.36Z"/>
  <path class="lipMaleMedium__noStroke" d="M775.33,522.37c10.82,6,23.18,5.34,34.28.43,7.95-.25,17.44,13.72,31.42,15-14,10.7-13.6,42.49-50.12,42.27-36.06-.22-35.4-30.69-52-40.73C757.18,535.81,763.65,524.12,775.33,522.37Z"/>
  <g class="skinOverlapLine">
    <path d="M91.7,1306.23c3.79,28.22-3,66.14,24.8,59"/>
    <path d="M52.52,1332.35c9.27,19,9.27,35.8,29.58,55.57"/>
    <path d="M31.88,1329c7.58,18.54,10.11,31.18,17.46,43.39"/>
    <path d="M15,1323.92c3.74,10.55,6.1,18.25,6.86,22.67"/>
    <path d="M1001.63,1429.74c33.73,3.4,13.8-41,24.62-73.51"/>
    <path d="M591.51,1420.65c-11.07,9.32-27.55-1.17-20.85-26.16,3.78-14.09,1.29-31.92,5.78-42.9"/>
    <path d="M588.77,1464.49c13.24-8.66,6.55-28.72-4.14-40.62"/>
    <path d="M951.6,424.51c-1.87,22.94,4.26,34.41-4.31,75.87"/>
    <path d="M630.09,424.78c-1.21,24.85-4.25,36.36,1.68,76.39"/>
  </g>
  <g class="skinFoldLine">
    <path d="M72.76,915.35c13.78,2.88,28.64,8.77,39.64,15.76"/>
    <path d="M497.2,300.09c18.66-53.28,51.47-10.23,10.23,34.31"/>
    <path d="M494.79,310.93c9.33,9.93-16.77,30.2-6,35.21,4.55,2.13,9.33-20.46,16.85-26.18,16.61-12.63,8-22.86,1.51-20.47"/>
    <path d="M958.26,424.51c20-48,32.52-8.9,20.54,21.07"/>
    <path d="M952,463.45c10.26,5.6,9-10.95,12.4-15.2,11.2-14.14,4.68-21.33,0-21.07"/>
    <path d="M623.59,418.11c-19.1-30.62-31.83,3.63-18.5,37"/>
    <path d="M628.5,470.56c-11.34-1.53-6.5-12.91-10.07-17-12.73-14.55-5.64-32.15-1.21-26.07"/>
  </g>
  <g class="skinCreaseLine">
    <path d="M250.1,1644.38c-17.09,6.84-44.45,5.7-59.27-2.85"/>
    <path d="M447.29,1642.67c-12.54,7.41-39.89,6.27-50.15-1.14"/>
  </g>
  <path class="skinEdgeLine" d="M66.84,1320.55c-9.27,3.37-15.08-3.88-21.91-2.46-13.9,2.88-13.74-3-21.37-3-8.43,0-7.59-5.9-12.22-6.74"/>
  <g class="clothesDisplayLine">
    <path d="M941.9,2114.35c-30.3,14-122.24,8.66-132.39-9.09"/>
    <path d="M637.89,2108.35c28.77,15.37,126.76,16.73,136.39-3.09"/>
    <path d="M786.15,1258.72c4.85,12.94-5.58,29.53,0,55,5.07,23.18,4.37,70.15,11.9,100"/>
    <path d="M831.78,1258.72c5.32,9-5.07,26.07,0,47.08,4.3,27,4.91,53.3-40.53,56.45"/>
    <path d="M691.56,1247.13c-18.11,13-42,18.83-67.36,17.38"/>
    <path d="M906.7,1246.4c10.87,10.87,35.47,17.07,57.95,18.84"/>
  </g>
  <g class="clothesOverlapLine">
    <path d="M926.39,1998.14c-24.6-2.89-48.15-3.67-70.25-1.52"/>
    <path d="M925.94,2012.12c-24.94-3.43-48.8-4.44-71.17-1.89"/>
    <path d="M925.15,2024.94c-24.95-3.84-49-4.9-72-2.27"/>
    <path d="M923.57,2037.61a303.53,303.53,0,0,0-72.66-2.5"/>
    <path d="M930.77,1943.71c-4.52,9-2.87,25.51-3.89,40.66"/>
    <path d="M861,1942.94c-4.64,7.36-2.36,23.57-3.84,40.45"/>
    <path d="M666.24,1996.76c11.71-2.88,59-2.29,69.56-.14"/>
    <path d="M666.45,2011.14c11.88-3.44,59.35-3.46,70-.91"/>
    <path d="M666.85,2024.94c11.88-3.84,59.44-4.9,70.39-2.27"/>
    <path d="M667.6,2037.61c11.68-3.72,59.36-4,70.75-1.85"/>
    <path d="M667.6,1942.94c2.16,9-1.58,27.45-1.58,41.43"/>
    <path d="M737.24,1942.94c1.11,7.26-3.82,20.22-1.94,40.45"/>
  </g>
  <g class="clothesFoldLine">
    <path d="M547.48,1035.42c-45-2,12-36.51,50-11"/>
    <path d="M541,1057.92c-1.5-15.5,116,7,40.51,6"/>
    <path d="M573.49,917.9c8.16,18.32,17.5,32.7,28.5,41.51"/>
    <path d="M555,859.39c14.43,32.78,34.69,61.05,52.51,75.52"/>
    <path d="M528.64,867c5,9.91,10,16.78,14.84,20.93"/>
    <path d="M572,745.88c7.11,26.18,23.26,47.29,39.5,62"/>
    <path d="M589,720.88c-1,19.3,7.2,36.12,15.56,49.77"/>
    <path d="M643.5,760.88c-8.91,1.21-17.59,10.64-25.93,32.21"/>
    <path d="M625,1011.42c13.81,18.82,28.81,34.45,45.51,45.5"/>
    <path d="M614,1025.43a126.27,126.27,0,0,0,27.54,29"/>
    <path d="M620.49,1098.43c13.08,21.46,33,38.9,59.51,52.5"/>
    <path d="M641,1166.94c33.93,36.22,78.83,50.06,131.52,48"/>
    <path d="M605.46,1168.41c32.53,35,112.73,50.52,44,43"/>
    <path d="M954,1128.93c-23.29,42.27-58.94,72.86-112,87"/>
    <path d="M987,1181.85c-28.9,23.39-60.79,37.74-95,45.09"/>
    <path d="M984.29,1116.49c-13.25,34.44-43.25,60.45-12.25,49"/>
    <path d="M985.2,1009.38C981,1039.92,964,1074,934,1099.93"/>
    <path d="M951,1056.92a224.72,224.72,0,0,1-70,54"/>
    <path d="M890,878.4c-44.51.5-89.59,6.84-119,4"/>
    <path d="M828,864.9c-50-2.5-99.82,1-138-4.51"/>
    <path d="M962,744.88c-.17,21.23,4,39.33,16.88,51.08"/>
    <path d="M999.54,726.38c2.59,13.33-3.38,27.36-8.48,42.82"/>
    <path d="M1018.05,747.38c-2.1,26.81-12.11,52.66-25,74"/>
    <path d="M1041.3,842.74c-6.32,35.62-33.41,71-50.06,95.94"/>
    <path d="M1048.09,971.48c-10.75,21.24-28.81,38.81-54.89,47"/>
    <path d="M1068.36,980.07c-4.6,25.19-38.78,36.32-10,39.39"/>
    <path d="M996.14,1029.74c57.72,2.61,79.78,13.22-2.45,26.92"/>
    <path d="M1073.14,1049.27c-7,7.38-13.68,12.07-19.66,11.31"/>
    <path d="M840.78,1356.51c24,2.16,61.41-2.75,98.52-4.35"/>
    <path d="M866.81,1385c22.22,7,49,20.67,79,25.51"/>
    <path d="M816.6,1406.43c.83-14.41,30.88-5.23,34.57,6.58"/>
    <path d="M744.59,1360.75c-27-.65-54.73,2.88-83.53,3.7"/>
    <path d="M758.58,1389.56c-29.62,12.75-86.43,30.56-86,33.33"/>
    <path d="M688.51,1486.67c-6.24,24.81-16.8,47.95-34.57,68.31"/>
    <path d="M777.16,1633.49c-7.47,3.37-20.13,3.06-11.17,16.54"/>
    <path d="M762.7,1615.47c-31.33,10.6-65.21,14.14-95.18,3.29"/>
    <path d="M651.89,1633.57c18.51,6.17,39-.12,42.79,11.94,2.84,9-18.93,15.7-47.32,20.57"/>
    <path d="M756.53,1671c-19.76-4.94-51.15-4.53-71.72,4.11"/>
    <path d="M785.09,1659c-4.29,10.33-15.54,7-15.06,16.09"/>
    <path d="M954.16,1609.7c-31.78,18.73-67.94,25.44-103.81,8.65"/>
    <path d="M829.9,1637.86c19.62,7.65,48.19,4.33,14.69,17.93"/>
    <path d="M956.63,1632.75c-30.62,7.33-32.43,17.1-1.64,29.63"/>
    <path d="M934.82,1667.31c-26.23-8.83-55.1-9.83-80.36,2.47"/>
    <path d="M894.79,1747.56c9.05,73.24,88.06,111.92-7,149.78"/>
    <path d="M683.16,1752.08c18.52,60.49,97.34,119.15,31.8,136.21"/>
    <path d="M654.48,1861.13c2.08,17.67,7.89,33.42,19.75,46.09"/>
    <path d="M497.27,1001.13a180,180,0,0,1,7.8,36.33"/>
    <path d="M459.89,1007.75c4.43,17.14,6.5,32.26,5.8,45"/>
    <path d="M436.42,1010.15c2.38,37.38,2.81,89.75,9.9,150.75"/>
    <path d="M193.17,1011.22a475.62,475.62,0,0,0-7.25,101.47"/>
    <path d="M164.33,1008.41c-4.36,19-7.06,37.2-6.34,53.55"/>
    <path d="M208,1238.39c3,48-3.61,119.83-2.25,197.32"/>
    <path d="M133.93,1557.92c-4.57-15.68-1.41-72,0-119.05"/>
    <path d="M289.17,1570.26c7.09-40.2,3.63-145.19,0-251.23"/>
    <path d="M507.13,1564.09c1.36-17.1-.44-49.54-4.95-81.52"/>
    <path d="M349.83,1568.2c-1.18-24.91,1-50.94,0-83.38"/>
    <path d="M429,1567.17c1.6-23.9.21-124.7,2.91-204.61"/>
    <path d="M536.45,1559.35c2-10.39,1.58-26.92,0-46.6"/>
    <path d="M150.29,795.5c5,30.63,12.63,58,25.65,78.75"/>
    <path d="M148.5,729.88c6.26,30.21,14.47,57.75,27.44,78.75"/>
    <path d="M470.65,810.42a294.55,294.55,0,0,1-47.73,84.12"/>
    <path d="M501.08,771.64c-4.61,33.82-14.5,68.69-31.62,105"/>
    <path d="M156.25,929.14c-.4,10.38,1.67,19.76,6.86,27.86"/>
    <path d="M179.52,943.07c.41,6.64,2,12.44,6.1,16.34"/>
    <path d="M256.48,929.14c-.07,13.23,1.49,25.12,5.23,35.2"/>
    <path d="M360.25,938.16a81.75,81.75,0,0,1-2,26.47"/>
    <path d="M469.46,936.53c.46-27.35-22-10.46-11.72,22.62"/>
    <path d="M490.82,931.11a124.08,124.08,0,0,1-12.26,25.44"/>
    <path d="M531.26,123.37c-.79,14-11.28-1.78-11.46-13.3"/>
    <path d="M496.44,69.55c2.35-13.75,9.85-.91,11.88,14.65"/>
  </g>
  <g class="mouthInner">
    <path d="M249.22,423.12c7-.87,13.4-7.67,19.31-3.5,5.41,3.81,13.38,5.13,21.71.37,8.49-4.85,21.25,4.89,40.53,5.53-17.7,6.2-29.67,17.87-48.89,17.68C257.65,443,255.55,432.12,249.22,423.12Z"/>
    <path d="M830.5,539.15c-7.26-1.53-13.54-4.44-18.17-4.79-12.74-1-17.79,7.08-25.24,3.64-19.89-9.18-26-1-38.25,1.25C772,566.11,809.85,565.35,830.5,539.15Z"/>
  </g>
  <g class="teeth">
    <path d="M826,538c-5.37-1.52-10-3.38-13.68-3.66-12.74-1-17.79,7.08-25.24,3.64-16.42-7.58-23.46-3.36-32.3-.36C768.94,554.84,809.62,554.55,826,538Z"/>
    <path d="M303.21,428.31a47.38,47.38,0,0,0,12.24-5.1c-11.07-2.79-19.21-6.65-25.21-3.22-8.33,4.76-16.3,3.44-21.71-.37-4.33-3.05-8.93-.22-13.83,1.85a13.77,13.77,0,0,0,6.94,4.75c3.95,7.67,7.72,9.7,17.55,10.12C287.89,436.72,298.1,436.39,303.21,428.31Z"/>
  </g>
  <g class="lipOverlapLine">
    <path d="M735.45,538.38c4.78,2.1,9,1.91,13.39.87"/>
    <path d="M844.08,536.85c-4.34,1.74-10.13,2.87-13.58,2.3"/>
  </g>
  <g class="lipEdgeLine">
    <path d="M249.22,439.05c7.55,37.3,56.71,33.09,71.44,2.17"/>
    <path d="M809.61,522.8c-11.1,4.91-23.46,5.58-34.28-.43"/>
    <path d="M816.82,572c-11.42,9.93-40.44,11.92-51.72-.6"/>
  </g>
  <g class="noseLine">
    <path d="M319.33,352.76c7.64,6,10.75,17.75-.13,25.58"/>
    <path d="M246.49,350.85c-8,4.77-9.86,17.81-1.9,24.49"/>
    <path d="M289.44,380.75c12.08-2.86,13.55-12.28,21.62-6.05"/>
    <path d="M251.58,374.07c2.55-4.45,5.09,3.5,15.27,6.68"/>
    <path d="M827.21,465.48c6.31,4.52,11.83,19.65-.13,26.34"/>
    <path d="M756.12,466.83c-6.64,3.07-11.79,18.05-1.06,23.93"/>
    <path d="M763.86,488.65c5.63-4.22,7.74,9.85,27.44,10.2,19,.34,19.23-12.66,26.27-10.55"/>
  </g>
  <g class="eyeFoldLine">
    <path d="M383.58,309.72c-8.69,6.8-35.94,11.13-49.94,1.59"/>
    <path d="M237.55,307.59c-7,3.92-28.09,11.42-48.67,1.27"/>
    <path d="M896.15,423.21c-8.25,7.66-38.37,9.06-48.2,1.4"/>
  </g>
  <g class="eyeCornerLine">
    <path d="M180.9,288a12.27,12.27,0,0,1-7.21,2.65"/>
    <path d="M404.66,289.13a25.7,25.7,0,0,1-8.94-2.46"/>
    <path d="M903.14,406.34c3.23,1.92,7.67,4.38,10.55,3.83"/>
  </g>
  <g class="eyebrowBlack">
    <path d="M314.8,245.74c22.21-7.41,71.25-30.91,102.76,13.3C370.54,230.73,324,256.19,314.8,245.74Z"/>
    <path d="M254.76,245.3c-22.21-7.4-67.37-30.57-93.63,14C202.94,228.93,246.52,257.37,254.76,245.3Z"/>
    <path d="M660.86,379.63c32.57-36.19,57-16.08,101.9-24C743.58,381.29,693.86,356.78,660.86,379.63Z"/>
    <path d="M822.25,355c30.75,9.77,71.64-7.6,94.08,22.07C886.29,362.26,841.79,379.63,822.25,355Z"/>
  </g>
  <path class="eyepatch" d="M780.78,410.62c-.53,32.64-36.66,46.09-70.21,47.9-37.88,2-62.43-12-62.7-49.94-.26-36.08,24.82-53.89,61.24-48.94C743.49,364.31,781.36,374.5,780.78,410.62Z"/>
  <path class="eyepatchGauze" d="M753.88,410.13c0-18.62-23-27.2-45.45-28.47-20.85-1.18-41.75,6.35-41.32,28.47.4,20.63,20,28.17,40.22,27C730,435.74,753.88,427.9,753.88,410.13Z"/>
  <path class="hairBlack" d="M608.32,386.59c-28-119,4.76-184.69,63.34-228.76-8.52-18.92-30.43-22.14-44.46-13.24,16.39-21.44,42.56-16.08,59.59-1,3.15-23.33,27.23-49.61,54.86-53C721.89,95.8,705.48,121,706,141.75c66.14-24,151.44-22.67,212.13,23.25,44.48,33.65,85.44,111.79,57.09,219.19-19.38,1.38-14.58,41.65-23.64,40.32-2.4-14.67.36-62.57-15.5-85.42-44.75-14.58-58.59,8.9-101.36-13.35,9.39,6.43,20.47,12.17,27.19,22-30.56-17.53-80.59,20.52-131.52-25.95,6.68,9.89,10.63,19.53,10.88,25.95-26.94-24.72-53.4-18-54.88-82.07-4,73.17-15.08,51.91-27.69,81.09-1.29-9.83-.56-15.07.74-25-5.68,11.88-9.44,17-18.75,23.45-6.09,14-10.73,61.4-10.62,79.54C622.51,422.05,626.62,380.82,608.32,386.59Z"/>
  <g class="hairOverlapLine">
    <path d="M459.76,126c7.85,25.72,9,64.08-10.65,85"/>
    <path d="M936.1,339.09c12.11,3.71,32.18,11.07,35.6,14.59-4-6.68-13.35-17.31-21.76-23.49"/>
    <path d="M640.71,345.24A161,161,0,0,1,616,356.15"/>
  </g>
</svg>
