<svg viewBox="0 0 292.02 480.25">
  <g class="bag">
    <path class="garbageBagFront" d="M161.31,333.42c-.3,21.68-2.25,43.54-7.25,60.5-2.33,7.88,3.77,12.06,4.74,19.43-2.47,4.66-4.58,7.42-7.18,10.61-5.06,6.2-4.61,16.32,3.43,22.53-3.07,2.09-2.18,7.65-.16,14.37,1.76,5.87,4.96,6.51,9.96,6.69,5.97,.22,11.72,7.11,24.17,5.72,15.02-1.68,27.58,5.22,43.27,2.45,6.43-1.13,12.74,.31,20.9-1.96,6.97-1.94,20.9-1.76,34.35-6.26,3.21-1.07,3.43-4.15,2.44-7.17,3.49-2.69,.9-5.55,.76-9-.32-8.14-10.52-11.53-9-19.08,4.27-8.2,1.86-11.44,1.32-14.34,4.25-4.9,8.95-9.73,3.61-19.43-1.18-2.15,2.46-6.48-5.5-10.4l-119.85-54.67Z"/>
    <path class="bagLiningOuter" d="M171.81,284.7c20.86,27.81,54.79,54,63.8,68.58,2.24,3.62,4.23,5.41,6.83,2.99,3.42-3.18,15.64,4.14,25.39,6.03,7.01,1.36,12.33,3.54,11.1,10.87,8.47,6.73,4.74,10.21,4.64,14.28-.23,9.87-12.18,8.43-15.67,13.93-7.89,12.42-18.27,9.44-22.86,10.1-7.94,1.14-18.92-12.85-27.51-11.03-11.49,2.44-16.56-11.07-25.76-13.81-6.33-1.88-12.84-12.85-18.69-18.57-5.67-5.55-10.05-24.1-13.69-36.79s-4.38-30.35-1.37-45.32c1.25-6.21,10-6.28,13.78-1.25Z"/>
    <path class="bagLiningInner" d="M170.6,288.46c20.42,25.21,52,53.18,55.93,63.66,1.34,3.56-.34,5.43-3.86,5.52,6.55,.18,10.76,.18,6.62,6.81,1.97-2.09,4.84-3.38,8.28-2.76,7.02,1.26,3.05-4.77,9.38-3.04,27.23,7.47,13.17,12.52,27.11,11.32-8.86,1.94-13.6,9.1-21.42,14.79-8.9,6.47-10.43,17.78-15.16,15.01-20.5-11.98-24.15-.49-27.14-5.49-5.34-8.95-10.56-7.31-30.31-31.76-5.25-6.49,1.01-7.94-16.46-43.88,1.59-11.84-5.49-21.8-2.17-30.17,1.52-3.38,5.74-4.18,9.18-.02Z"/>
    <g class="bagFoldLine">
      <path d="M283.04,417.92c-10.06,9.28-9.83,14.83-42.2,27.55"/>
      <path d="M281.72,432.26c-4.58,7.2-4.34,12.98-13.82,21.76"/>
      <path d="M289.96,460.34c-2.45,1.99-4.91,3.49-7.5,3.86"/>
      <path d="M158.79,413.36c3.18,6.96,4.37,11.56-.49,8.98"/>
      <path d="M155.03,446.5c4.11,2.38,6.51,4.54,2.16,5.77"/>
      <path d="M278.94,373.17c-1.36,3.24-3.56,3.03-5.55,5.18"/>
      <path d="M242.59,397.14c-2.39,3.61-2.67,9.15-6.53,7.77"/>
      <path d="M163.59,318.65c-.48,3.61-.6,6.88,.16,9.35"/>
    </g>
    <g class="bagCreaseLine">
      <path d="M281.31,445.24c3.08,3.96,3.43,7.49-3.01,9.94"/>
      <path d="M168.73,385.26c-3.36,3.22-6.88,6.08-10.59,8.51"/>
      <path d="M158.62,400.03c3.59-2.7,6.93-.08,10.27,2.57"/>
      <path d="M184.99,391.66c3.76,6.06,14.84,12.33,5.64,12.54"/>
      <path d="M186.04,406.29c12.33,.21,24.45,14.21,47.03,15.68"/>
      <path d="M253.13,424.68c-2.51,7.11-10.03,9.2-11.91,16.72"/>
      <path d="M237.45,433.46c.42,14.42-12.96,5.64-27.59,2.51"/>
      <path d="M177.68,411.93c3.55,8.99,29.68,24.45,2.3,13.17"/>
      <path d="M232.65,455.82c-.63,3.76-.21,5.64,20.69,5.43"/>
      <path d="M224.08,456.03c4.39,7.32-5.23,3.97-13.17,5.23"/>
      <path d="M178.93,441.82c5.02,5.43,17.56,4.6,25.71,10.24"/>
      <path d="M211.12,441.82c-7.12-3.47-5.12,.6-.42,6.9"/>
      <path d="M171.52,452.16c5.54,5.33,16.28,10.24,7.72,10.52"/>
      <path d="M168.79,422.58c-2.09,7.97-12.32,1.03-13.1,7.08-.65,4.99,14.71,10.7,24.37,18.87"/>
      <path d="M229.23,470.25c.02-6.44-2.56-7.61-8.2-2.57"/>
      <path d="M232.28,462.69c-2.36,.9,3.7,3.7,7.55,7.23"/>
      <path d="M262.5,455.3c5.32-6.09,11.61-13.19,4.98-9.48-7.47,4.18-14.77,6.94-22.18,8.36"/>
      <path d="M264.14,383.67c-7.55,6.57-20.21,20.8-8.93,17.27"/>
      <path d="M244.55,373.09c-11.49-2.07,1.43,5.26,9,11"/>
    </g>
    <g class="bagOverlapLine">
      <path d="M170.6,288.46c24.28,36.51,51.76,74.64,65.48,91.65"/>
      <path d="M162.93,286.54c13.42,39.53,29.41,76.38,38.92,98.72"/>
    </g>
    <path class="bottleGreen" d="M231.2,396.56l.95-11.63c.34-4.03-14.34-5.27-14.68-1.24l-.97,10.9c3-.73,7.49-1.11,14.7,1.97Z"/>
    <path class="bottleLabel" d="M231.8,389.18c-1.4-1.25-3.6-2.22-6.24-2.18l-.64,7.53c1.83,.37,3.91,1.01,6.28,2.02l.6-7.38Z"/>
    <path class="bottlePurpleMedium" d="M243.6,391.74c.66-.21,1.17-.61,1.4-1.26l1.39-3.96-8.48-2.72-1.28,3.9c-.22,.61-.09,1.2,.26,1.74-1.45,1.93-4.75,1.38-6.45,6.04-.09,.23-.16,.46-.21,.68,2.16,.86,4.57,2.02,7.27,3.61,2.67,1.56,4.32-1.37,6.86-5.38-.4-.89-.79-1.69-.76-2.65Z"/>
    <ellipse class="bottlePurpleLight" cx="242.15" cy="385.16" rx="2.56" ry="4.45" transform="translate(-198.56 498.12) rotate(-72.22)"/>
    <ellipse class="bottlePurpleDark" cx="242.15" cy="385.16" rx="1.71" ry="2.97" transform="translate(-198.56 498.12) rotate(-72.22)"/>
    <path class="bottleMagenta" d="M217.74,389.36c-2.16-1.58-3.19-5.09-4.01-9.27-1.31-.8-5.32-.54-6.63,.7,.05,3.05,.09,6.33-.58,8.55,1.39,1.38,2.62,2.88,3.84,4.94,1.79,3.01,3.84,.04,9.65-.18,.16-.07,.32-.14,.48-.21-.31-1.87-.95-3.41-2.76-4.53Z"/>
    <g class="bottleCapGold">
      <path d="M207.1,380.79c-.69-.5-1.02-2.89-.28-3.61,1.24-1.3,4.85-1.64,6.41-.68,.7,.46,.95,3.01,.5,3.59-1.59-.81-5.41-.38-6.63,.7Z"/>
    </g>
    <path class="bottleCreaseLine" d="M243.6,391.74c-2.29,.58-5.32-.64-6.71-2.3"/>
  </g>
  <g class="sockWhite">
    <path d="M109.67,360.34c-9.2,35.13-6.47,49.52-14.99,72.27,4.18,10.28,11.32,10.11,19.56,2.34,5.09-16.51,15.38-40.32,26-65.34-5.45,.58-23.57-5.01-30.57-9.26Z"/>
    <path d="M13.46,367.32c-5.24,24.1,1.06,43.84-1.56,72.37-8.59,15.72,21.63,15.72,19.08,.79-.89-23.38,9.89-44.94,12.45-69.84-5.17,2.77-21.55,.41-29.97-3.32Z"/>
  </g>
  <g class="soleWhite">
    <path d="M144.73,460.72c2.26,7.09-19.33,10.86-30.65,5.9-11.33-4.96-25.97-3.38-29.13-10.4-.38-.84-.07-3.6,1.14-5.09l58.64,9.59Z"/>
    <path d="M32.85,465.66c1.38,1.78,1.76,4.65,1.49,5.53-3.01,10.04-26.07,12.28-33.78,2.63-.7-.88-.08-4.63,.79-6.67l31.5-1.49Z"/>
  </g>
  <g class="shoe">
    <path d="M95.67,428.18c1.52,5.15,4.89,8.49,10.43,9.7-.05-1.89,1-3.37,2.9-4.04,1.19-.42,3.66-.98,4.91-1.05,1.6-.09,2.09,1.21,2.9,2.46,4.43,6.9,13.16,14.06,19.48,14.94,4.91,.68,11.14,6.82,8.45,10.53-3.56,4.89-18.41,9.74-32.31,2.79-8.6-4.3-24.74-3.16-26.33-12.37-1.22-7.11,6.49-23.08,9.58-22.95Z"/>
    <path d="M28.79,444.78c-1.49-5.53-13.73-6.23-16.8-1.4-.39-1.33-.5-2.58-.09-3.69-3.69,2.37-4.85,15.09-9.08,21.5-2.02,3.05-3.17,7.28-.86,10.35,5.61,7.44,23.19,7.31,29.4,1.4,2.05-1.95,2.38-5.44,1.93-9.83-.63-6.13,4.45-13.78-2.3-22.64-.29,1.76-1,3.21-2.19,4.3Z"/>
  </g>
  <g class="nikeLogo">
    <path class="clothWhiteMedium" d="M112.87,449.98c12.81,10.77-1.68,17.87-18.58-4.52,12.06,9.05,22.04,14.99,18.58,4.52Z"/>
  </g>
  <g class="shoelace">
    <path d="M119.2,438.52c-3.28,.62-6.19,1.71-8.63,3.4,2.59,3.24,5.58,6.16,8.95,8.78,2.65-1.55,5.65-2.81,8.86-3.88-3.31-2.17-6.59-5.15-9.19-8.3Z"/>
    <path d="M27.75,449.46c-5.72-2.21-11.12-2.54-16.14-.58-.35,3.42-1.25,7.44-2.35,11.66,3.55-.8,11.31-.44,15.03,.62,.93-3.95,3.13-8.19,3.46-11.71Z"/>
  </g>
  <path class="shorts" d="M111.21,243.92c15.28,26.99,34.84,67.02,42.6,104.11-2.16-1.55-4.42-2.51-6.8-2.72-14.37,3.5-37.54,9.79-40.37,12.1-3.76-8.95-10.99-20.87-13.04-33.79-5.57-.95-15.74-35.32-21.52-37.41-8.91,3.13-12.02,43.21-15.16,74.44-7.3,3.65-20.5,2.77-34.23,1.49-3.95-.72-7.7-1.74-11.09-3.25-1.1-6.82,1.77-25.17,.21-35.33-2.48-16.1,3.46-29.57,3.13-44.83-.29-13.78,2.14-27.05,7.03-40.25l89.25,5.44Z"/>
  <path class="shirtWhite" d="M117.54,108.85c4.84,3.55,16.98,17.77,17.89,25.83-7.51,20.72-.99,43.05,6.33,60-6.92,6.67-15.68,10.19-26.93,9.51,.45,5.32-3.35,6.87-2.95,11.79,1.45,4.95,2.57,7.45-.8,13.66,2.35,2.29,2.92,5.56-.54,9.51l2.41,5.89c-2.95,5.36-8.15,4.34-12.46,5.89-32.69,11.79-46.49,1.06-69.26-5.22-3.88-1.07-8.44-4.29-11.39-4.42-.94-3.22,2.14-4.42,3.08-6.83-6.97-8.44,.13-13.8,4.02-18.22,1.74-11.52-.4-32.69,3.62-35.63,4.19-3.08,2.9-11.62,7.37-19.56,2.81-4.99,1.07-12.32,4.82-13.8,3.31-1.3,2.79-13.21,7.1-19.16,5.63-7.77,1.21-17.41,11.92-23.98,7.5-15.27,16.34-10.85,24.51-9.24,14.82-7.05,31.24,13.98,31.24,13.98Z"/>
  <path class="shirtWhiteDark" d="M120.43,153.24c-4.13,6.46-9.01,14.12-7.66,14.74,1.28,.59,7.53-6.17,12.16-11.58-1.33-.9-2.81-1.94-4.5-3.16Z"/>
  <path class="clothesDisplayLine" d="M72.07,286.21c-.51-5.23,.76-10.96,0-17.77-.58-5.22,1.67-9.02,.68-12.22"/>
  <g class="clothesOverlapLine">
    <path d="M126.66,445.61c-3.33,.67-6.31,1.87-8.88,3.68"/>
    <path d="M116.27,447.97c2.69-1.84,5.68-2.96,8.92-3.5"/>
    <path d="M114.85,446.63c2.84-1.77,5.82-2.91,8.98-3.33"/>
    <path d="M111.99,443.62c2.79-1.71,5.61-3,8.74-3.35"/>
    <path d="M113.5,445.27c2.79-1.77,5.69-2.92,8.72-3.32"/>
    <path d="M24.86,459.15c-5-1.4-10.01-1.58-15.03-.84"/>
    <path d="M25.51,457.21c-5.11-1.41-10.19-1.72-15.24-.78"/>
    <path d="M26.24,455.16c-5.23-1.45-10.4-1.77-15.52-.79"/>
    <path d="M26.91,453.18c-5.35-1.56-10.63-1.86-15.83-.68"/>
    <path d="M27.44,451.29c-5.41-1.73-10.76-1.99-16.06-.58"/>
    <path d="M28.79,444.78c-.27,1.56-.77,2.68-1.04,4.68"/>
    <path d="M11.98,443.37c.4,1.43-.16,3.39-.37,5.51"/>
    <path d="M106.1,437.89c1.87,.63,3.29,2.12,4.48,4.04"/>
    <path d="M64.12,129.16c9.59,9.59,18.19,17.98,27.4,23.68,6.56,4.06,14.19,10.57,21.25,15.14"/>
    <path d="M124.93,156.4c-.64,8.48-7.47,13.54-6.31,19.54,1.25,6.48-8.42,14.09-3.78,28.25"/>
    <path d="M135.43,134.67c-1.29-4.38-5.58-4.96-8.36-8.05-2.31-2.57-2.7-6.19-9.72-8.44-6.21-1.45-12.11,.1-19.56-.67"/>
    <path d="M106.47,110.17c6.22,1.38,8.82,5.76,10.89,8.01"/>
  </g>
  <g class="clothesFoldLine">
    <path d="M40.55,307.44c1.06,11.7,3.1,22.39,8.69,29.4"/>
    <path d="M100.56,301.24c3.07,5.88,5.35,29.67-3.61,27.26"/>
    <path d="M93.59,323.62c2.06,.21,4.33,2.21,1.98,2.07"/>
    <path d="M83.09,257.86c-.8,7.61-5.88,13.1-4.98,13.62,1.38,.8,3.78-2.8,6.18-6.28"/>
    <path d="M100.32,265.07c-10.81,1.6-24.89,12.07-23.37,13.49,1.68,1.56,8.03-4.57,12.02-4.41"/>
    <path d="M50.78,266.8c7.48,.27,18.96-1.34,11.62,3.34"/>
    <path d="M63.47,280.42c3.27-8.22-5.07,.53-10.15,7.74"/>
    <path d="M82.56,287.9c-2.26-1.94-4.6-3.12-7.08-3.07"/>
    <path d="M89.99,250.47c-15.38,4.04-22.56,.22-32.89-1.8"/>
    <path d="M41.94,219.38c-10.15,11.31-8.51,16.66,10.33,13.36"/>
    <path d="M22.94,234.46c2.62,2.21,5.54,3.22,7,4.67"/>
    <path d="M24.32,224.88c6.3,.19,13.67-8.85,21.33-20.32"/>
    <path d="M26.96,216.24c-.1,2.21-.3,3.93-.73,4.71"/>
    <path d="M110.55,239.15c-1.59,1.78-4.4,3.8-1.7,5.26"/>
    <path d="M111.08,229.63c-4.37,10.58-17.1,15.23-42.76,10.73"/>
    <path d="M111.89,215.97c-.58,14.63-24.93,8.01-30.77-10.96"/>
    <path d="M63.83,162.69c-9.2,10.66-23.01,25.03-30.19,18.41"/>
    <path d="M54.52,145.41c-3.65,2.96-7.53,5.1-11.9,5.5"/>
    <path d="M77.64,149.33c-5.67,11.74-14.42,23.09-26.49,34.01"/>
    <path d="M58.11,133.17c4.31,3.75,9.48,5.42,15.42,5.21"/>
    <path d="M60.24,138.9c3.63,2.63,8.25,3.32,13.47,2.81"/>
    <path d="M61.79,104.11c-.68,2.28-1.59,4.48-3.79,6.16"/>
    <path d="M86.3,94.87c-14.05,3.28-19.67,12.5-21.12,11.92-1.12-.45,2.69-6.06,6.4-8.87"/>
    <path d="M85.61,99.95c6.75-.2,12.44,1.12,16.24,5.17"/>
    <path d="M106.47,110.17c-6.6-.79-14.01-1.28-21.08-3.26"/>
    <path d="M110.64,115.44c-6.03-2.68-15.83-3.03-23.68-5.39"/>
    <path d="M127.08,126.62c-3.22-2.21-6.3-3.28-9.25-3.34"/>
    <path d="M122.32,169.91c2.48,10.23,5.06,20.09,10.92,18.62"/>
    <path d="M114.27,190.95c3.8-3.37,6.92-3.76,9.33-1.01"/>
    <path d="M90.09,154.11c5.39,13.1,11.17,27.36,23.89,22.22"/>
    <path d="M88.54,163.1c6.25,15.33,12.78,28.72,20.16,35.83"/>
    <path d="M102.93,147.69c-9.02-1.04-17.58-4.45-25.56-10.79"/>
    <path d="M88.42,147.94c9.12,5.39,18.49,4.24,25.69,7.45"/>
  </g>
  <g class="clothesEdgeLine">
    <path d="M147.01,345.31c-2.32-15.02-13.65-38.27-24.6-58.2"/>
    <path d="M22.68,362.14s6.51-66.21,14.33-100.8"/>
  </g>
  <g class="bottle">
    <g class="dullIndigoLightest">
      <path d="M182.99,71.91l12.46,24.32c4.06-3.02,6.28-6.21,5.29-8.21-2.8-6.06-8.11-16.3-12.53-24.25,.98,1.96-1.23,5.18-5.22,8.14Z"/>
      <path d="M182.98,98.3l-9.37-19.7c-5.12,1.66-9.42,1.56-10.45-.5,3,6.55,6.77,13.96,9.53,19.61h0c1.03,2.07,5.2,2.17,10.28,.6Z"/>
    </g>
    <g class="wineBottleGlass">
      <path d="M180.71,53.41c-1.75-.87-3.81-1.03-6.08-.55-4.53,.96-9.08,3.4-11.98,6.02-1.65,1.49-2.9,3.17-3.48,4.99-.24,3.66,7.11,2.64,13.17-.38,6.06-3.02,11.2-7.72,8.38-10.08Z"/>
      <path d="M203.33,138.38c1.63,2.38,10.87-2.4,9.86-4.91l-11.7-23.02c2.23-7.45,2.49-15.39-.68-22.28-3.72-8.08-12.04-23.83-16.65-31.43-2.16-3.57-5.52-4.72-9.54-3.87-4.53,.96-9.08,3.4-11.98,6.02-2.97,2.67-4.65,5.99-3.45,9.58,2.87,8.59,11.35,24.52,15.25,32.89,3.21,6.88,9.51,11.27,16.91,13.8l11.96,23.23Z"/>
      <path d="M207.33,134.06c2.72-1.36,5.35-1.62,5.86-.58s-1.28,2.97-4,4.33-5.35,1.62-5.86,.58,1.28-2.97,4-4.33Zm-2.33,3.72c.35,.7,2.14,.53,3.99-.4,1.85-.92,3.07-2.24,2.72-2.94s-2.14-.53-3.99,.4c-1.85,.92-3.07,2.24-2.72,2.94Z"/>
    </g>
    <g class="flatIndigoMedium">
      <path d="M175.23,64.24l12.38,24.16c6.32-2.6,11.91-2.83,13.13-.38-2.8-6.07-8.11-16.3-12.53-24.24-1.2-2.4-6.77-2.12-12.99,.46Z"/>
      <path d="M175.71,91.29l-9.32-19.61c-2.64,2.32-4,4.81-3.22,6.39,3,6.55,6.78,13.97,9.54,19.62h0c-.79-1.58,.44-3.99,3.01-6.41Z"/>
    </g>
  </g>
  <path class="hairDarkBrown" d="M94.07,17.66c-2.34-7.01,3.68-15.14,10.5-14.64,4.25-3.42,8.6-3.51,13.02-1.15,4.78-2.39,11.85-.99,15.78,4.07,4.59-.55,8.23,1.4,11,5.58,9.09,1.54,9.76,9.54,11.48,11.69,14.34,17.89,.8,56.21-18.01,60.16-1.8,.38-3.26-.27-4.33-1.85L94.07,17.66Z"/>
  <g class="eye">
    <path class="sclera" d="M82.98,47.58l47.66,8.09-44.23-19.1c-2.54,2.76-4.29,7.11-3.43,11.02Z"/>
    <g class="irisAmber">
      <ellipse cx="104.06" cy="48.67" rx="3.54" ry="2.74" transform="translate(29.02 135.66) rotate(-74.29)"/>
      <ellipse cx="85.46" cy="42.96" rx="3.54" ry="2.29" transform="translate(20.96 113.59) rotate(-74.29)"/>
    </g>
    <g class="pupil">
      <ellipse cx="103.56" cy="48.53" rx="1.37" ry="1.06" transform="translate(28.8 135.08) rotate(-74.29)"/>
      <ellipse cx="84.83" cy="42.78" rx="1.37" ry=".89" transform="translate(20.67 112.85) rotate(-74.29)"/>
    </g>
  </g>
  <g class="skinAshkenazi">
    <path d="M134.37,82.51c-.31-.27-.59-.6-.85-.98l-2.98-4.82-40.43,18.19c8.72,3.26,7.23,5.76,10.99,9.47,2.41,2.07,2.22,3.7,5.36,5.79,6.5,.67,5.48-.3,11.08-1.32-.66-10.31,9.78-22.15,16.83-26.33Z"/>
    <path d="M211.27,129.7c3.8-2.15,3.74-4.6,1.57-7.21,2.64-1.03,1.84-5.39-.11-6.19,1.84-2.06-.23-5.62-3.33-5.73-1.7-6.71-10.05-3.63-16.25-2.95-6.23,1.11-10.48,12.58-12.45,15.16-16.29,12.41-29.28,10.47-42.27,13.77-.81-.5-1.74-1.19-3-1.87-4.66,3.6-11.89,12.58-15,18.57,8.34,6.01,11.67,7.73,15.49,8.9,13.96,4.27,36.45-14.54,55.65-27.34,7.06,3.64,16.35-8.75,19.72-5.1Z"/>
    <path d="M139.13,267.12c-11.22-19.98-22.31-38.64-26.37-55.64,.98-2.12,2.36-3.97,2.08-7.3,7.81,.47,14.43-1.09,20.07-4.32,5.8,22.16,9.55,43.25,16.91,57.62,6.46,9.15,13.58,8.35,17.65,13.44,1.95,3.52,5.39,13.29,4.81,16.97-2.46-3.2-3.66-5.41-7.2-6.42,.85,1.57,1.26,2.58,.69,3.33-.72,.96-4.78,1.95-7.45-2.47-2.71,1.91-2.48,5.31-3.19,9.09-2.1,1.23-4.42,.55-6.92-1.75-1.3,1.48-4.48,.06-5.05-2.69-5.32-4.11-2.76-14.34-6.02-19.87Z"/>
    <path d="M147.01,345.31c-9.7,2.36-27.26,6.99-35.92,10.04-.5,1.59-.97,3.26-1.41,4.98,7,4.26,25.12,9.85,30.57,9.26,3.76-8.83,8.72-17.03,8.18-24.07-.47-.1-.94-.18-1.42-.22Z"/>
    <path d="M22.68,362.14c-2.42-.44-4.75-.99-6.98-1.7-1.32,3.71-1.47,3.31-2.24,6.88,8.42,3.73,24.8,6.09,29.97,3.32,.09-1.93-.09-4.82,.05-7.42-6.23,.18-13.44-.39-20.8-1.08Z"/>
    <path d="M119.12,89.25c-5.46,3.16-12.37,5.36-19.66,5.54-4.33,.1-8.42,.5-10.58,.25-5.45-.62-11.79-3.4-12.27-9.08-.3-3.54,.03-6.86-.97-9.79-3.39-19.42,5.46-28.78,5.81-32.14,.15-1.43,.9-2.35,2.08-2.97-.78-1.45-.81-3.09,0-4.72,.85-1.69,.52-4.08,1.72-5.23,2.18-2.08,4.14-9.43,8.81-13.45,4.47-1.99,8.36-.94,11.9,1.89,7.63-.95,16.13,2.04,23.21,7.52-5.19,7.93-4.95,12.49-2.48,17.48,2.89,5.83,5.93,10.5,3.89,14.54,2.23,1.02,4.41,2.1,6.93,3.02,4.28-4.34,9.94-.85,9.94,4.37,0,7.04-7.24,10.13-10.51,12.93-3.28,2.81-6.51,2.56-7.4-.18m-28.61-31.3c2.96,3.06,7.33,4.63,11.32,2.48-1.37-1.93-2.57-3.99-5.48-4.54-1.76-.34-4.58-.2-6.35,1.23-.71,.57,.25,.57,.52,.84Zm-9.92-3.7c-.89-1.99-2.47-3.9-4.08-4.38-1.31-.4-2.05-.26-2.56-.16-.53,.87-.95,2.04-1.09,3.01,1.46,1.62,5.05,2.33,6.89,2.09,.37-.05,1.26,.38,.85-.55Z"/>
  </g>
  <g class="skinOverlapLine">
    <path d="M209.4,110.57c-2.63-.07-5.24,.11-7.8,.64"/>
    <path d="M212.73,116.3c-1.92-.62-6.34-.28-9.09,.38"/>
    <path d="M212.84,122.49c-1.64-.56-4.45-.31-7.46,.28"/>
    <path d="M157.41,267.1c6.26,3.93,7.15,10.05,9.65,14.37"/>
    <path d="M158.84,283.9c-.31-.92-2.32-2.06-3.51-3.54-2.67-6.88-9.1-5.63-8.02-1.99,1.36,2.9,3.98,8.13,9.81,13.06"/>
    <path d="M144.46,271.89c.68,2.4,2.13,3.17,3.97,3.79"/>
    <path d="M153.01,276.83c4.8-.57,4.11,1.35,6.35,2.91,0,.87,.18,1.55,.94,2.6"/>
    <path d="M147.31,278.37c-1.32,1.68,1.48,9.95,2.89,11.31"/>
    <path d="M145.15,286.99c-.68-3.38,.47-6.09,1.83-6.76"/>
  </g>
  <g class="skinFoldLine">
    <path d="M129.69,204.07c-3.6,1.5-7.13,2.71-10.55,3.52"/>
    <path d="M137.73,65.77c5.61-7.44,13.5,3.53,.84,9.84"/>
    <path d="M136.6,69.12c1.77,2.42-4.06,5.19-2.61,6.42s2.32-2.92,4.59-3.24c3.35-.47,4-4.37,1.16-4.31"/>
  </g>
  <path class="lipMaleMedium__noStroke" d="M84.45,64.55c1.18,.95,3.42,2.34,7.14,2.15,4.2,.41,7.6,8.47,6.65,10.35-2.48,4.16-6.08,8.42-11.81,5.76-7-3.25-3.46-8.24-3.02-12.35,.57-5.32-4.46-4.06,1.03-5.9Z"/>
  <path class="mouthInner" d="M83.2,70.82c-.77,2.44-.95,4.48,.71,6.05,2.39,2.26,8.69,3.85,11.91,2.56,4.32-1.73,2.24-5.8,.17-8.67-2.69-3.72-6.86-1.32-11.6-4.57-.91,1.6-.73,3.23-1.18,4.64Z"/>
  <path class="tongue" d="M96.75,71.89c-1.23-.35-2.8-.58-4.78-.64-3.86,.12-5.83,3.75-5.49,7.23,2.92,1.29,6.97,1.91,9.34,.96,3.78-1.52,2.66-4.81,.94-7.54Z"/>
  <g class="teeth">
    <path d="M98.24,77.04c-4.62,.35-11.26-1.31-14.37-3.35-.17,.99-.18,2.2,.03,3.18,2.39,2.26,8.69,3.85,11.91,2.56,1.44-.58,2.17-1.42,2.43-2.39Z"/>
    <path d="M97.28,72.77c-.39-.7-.84-1.39-1.29-2.01-2.57-3.56-6.51-1.52-10.99-4.18-.42,1.24-.54,2.61-.35,2.82,.49,.83,9.03,3.67,12.63,3.38Z"/>
  </g>
  <path class="lipOverlapLine" d="M82.22,65.91c.78-.24,1.48-.1,2.16,.27"/>
  <g class="lipEdgeLine">
    <path d="M84.45,64.55c1.18,.95,3.42,2.34,7.14,2.15"/>
    <path d="M92.06,83.2c-4.96,1.16-8.9-2.02-9.06-3.65"/>
  </g>
  <g class="cheekLine">
    <path d="M83.23,60.63c-1.28,1.57-3.39,4.93-3.73,8.84"/>
    <path d="M95.62,58.92c4.41,2.12,7.14,17.35,5.58,22.23"/>
  </g>
  <g class="noseLine">
    <path d="M95.62,58.92c1.97,.88,1.53,4.56-1.45,4.72"/>
    <path d="M91.1,48.06c-6.22,6.08-14.53,14.94-.65,14.34"/>
    <path d="M88.17,61.14c2.5-.42,4.16,.36,5.05,1.42"/>
  </g>
  <g class="eyeFoldLine">
    <path d="M82.54,45.15c1.47,1.61,4.2,2.38,6.78,1.73"/>
    <path d="M100.79,50.49c1.7,2.48,5.6,3.76,8.44,2.99"/>
  </g>
  <path class="eyeCornerLine" d="M114.57,51.52c-1.1-.23-1.76-.57-2.29-1.09"/>
  <g class="eyeCreaseLine">
    <path d="M101.16,45.89c6.88-3.32,10.35,.16,11.8,2.57"/>
    <path d="M82.94,38.51c3.7-1.97,6.53,.98,7.94,3.86"/>
  </g>
  <g class="eyebrowDarkBrown">
    <path d="M100.54,38.94c.11,4.47,4.05,3.46,7.95,3.3,7.85-.31,7.8,3.99,9.4,2.39-7.47-9.23-14.1-4.18-17.34-5.69Z"/>
    <path d="M85.01,31.38c-.45,.6-.62,1.41-.78,2.28,3.43,1.28,5.47,6.63,8.86,2.93-2.54-1.68-2.92-4.24-8.08-5.21Z"/>
  </g>
</svg>