<svg viewBox="0 0 299.24 355.04">
  <g class="sockWhiteDark">
    <path d="M235.81,314.28c-24.74,12.32-15.61,11.48,4,6.58A17.75,17.75,0,0,1,235.81,314.28Z"/>
    <path d="M256.79,300.36c14.51,5.59-1,22.53-17.92,14.7Z"/>
  </g>
  <g class="soleWhite">
    <path d="M213.23,336.37c-.07,3.32.23,5.91.71,6.53,3.75,4.75,16.58,4.75,27.24,8.57,13.85,5,24.66,4.33,33.81-1.75.71-1.07.57-4.21.08-6.31Z"/>
    <path d="M298.84,316.43c-.31-2.63-2-4.23-4.54-5.32L245,330.06c7.55,3.79,21.65,1,32,2.38C292.44,334.48,300.17,327.89,298.84,316.43Z"/>
  </g>
  <g class="tomerShoe">
    <path d="M280.67,331.62c14.58,1.42,19.08-14.79,13.63-20.51-6-2.61-12,.79-25.33-3.66-3.74-1.24-7-5.9-12.18-7.09a5.47,5.47,0,0,1,2.74,3.49,12.27,12.27,0,0,0-3.9,9.59c-5.82,4.14-11.89,3.44-18.17-1.09.36,6.34,2.21,13.37,5.92,16.6C253.07,332.64,263.93,330,280.67,331.62Z"/>
    <path d="M239.54,319.11c-2.34-2.1-7.25-1.05-9.18,2.36A40.58,40.58,0,0,1,217,320.28c-2.63,3.9-3.65,10.89-3.77,16.09,8,6.51,19,6.34,31.94,10.5,12.56,4,26.64.65,29.9-3.46C272.88,334.07,262.28,343.05,239.54,319.11Z"/>
  </g>
  <path class="tomerShirt" d="M46.32,122.18c-1.8,8.86-1,20.52-.76,31.15.39,18,4.44,31.89,13.37,46.94,2.08,3.5,1,8.74,4.35,9.11,6,8.38,1.5,14,7.55,14.51-.74,2.47-.54,4.33,1.67,4.85,1.67.83.11,3.07,2.36,5.09,13.72-4.93,32.08-18.78,51.39-34.43-5.51-7.13-3.78-13.74-7.88-14-2.33-2.82-4.05-8.69-5.62-15.26,1.32-5.52-2.48-7.95-4.21-11.22a50.85,50.85,0,0,0-9.06-15.08c2.18-3.43-3.14-4.69-4.59-7-3.72-6-7.22-11.9-11.18-12.36C68.48,117.35,55.1,114.49,46.32,122.18Z"/>
  <g class="escherLogo">
    <path class="clothWhiteMedium" d="M108.54,158.91a50.85,50.85,0,0,0-9.06-15.08c1.37-2.15-.21-3.45-1.93-4.69q-5.34,6.93-11,14.22a393.21,393.21,0,0,1,22.68,36.47l6.42-9.63a87.1,87.1,0,0,1-2.9-10.07C114.07,164.61,110.27,162.18,108.54,158.91Z"/>
    <g class="sleeveDisplayLine">
      <path d="M107.57,163.83c-2.07,0-4.33,3.09-6.39,1.53"/>
      <path d="M107.52,181.89c1.21-1.69,5-2.23,5.37-4.31"/>
    </g>
    <path class="clothGrayLight" d="M108.7,168.36c.33-.1.7-.2,1-.33-.47-1.36-1.11-3.34-2.18-4.2C107.4,165.31,108.25,167.07,108.7,168.36Z"/>
    <g class="clothWhiteDark">
      <path d="M93.84,145.63c-1.29,3.69.84,16.34,4.68,16.29,1.61,0,.55-3.74.26-4.64-.71-2.23-2.79-7.9,1.39-7.55,3.15.26,1.66,5.53,1,7.46-.45,1.37.72,5.07,2.31,3.65a11.16,11.16,0,0,0,3.12-6.24,50.21,50.21,0,0,0-7.16-10.77c2-3.07-2.11-4.41-4-6.32a5.12,5.12,0,0,0-.72.53,13.39,13.39,0,0,0-1.46,13.46C93,149.62,92.75,147.33,93.84,145.63Z"/>
      <path d="M114.52,176.81c-.63-2.06-1.21-4.33-1.77-6.68a8.1,8.1,0,0,0-.87-6.29c-.19,2.4-.78,4-3.18,4.52,1,3.07,2.15,6.91,4.19,9.22A7.12,7.12,0,0,1,114.52,176.81Z"/>
    </g>
    <path class="clothGrayMedium" d="M95.43,137.47q2.23,11.06,4,22.43c0,.32.92,5.81,1.72,5.41,1.08-.53.27-4.29.18-5q-1.64-10.68-3.69-21.06A17,17,0,0,1,95.43,137.47Z"/>
  </g>
  <g class="tomerSweater">
    <path d="M76.86,118l-7.08,3.51c4.66,1.55,9.53,1.68,13.93,3C81.49,121.64,79.24,119.16,76.86,118Z"/>
    <path d="M76.64,241.9c8.42-7.47,23.81-18,37.35-26.76-1.08-2.47-3.52-2.8-7.19-1.95-4.3,2.24-10.89,5.83-15,9.58-6,5.5-10.66,5.58-17,11.06C74.43,236.65,75.87,239.43,76.64,241.9Z"/>
    <path d="M84.68,166c1.26,5.25,4,6.92,4.29,10.31a6.69,6.69,0,0,1,3.47,7c2.54-1,2.55,2.32,2.55,2.32,1.54.5,2.27-.39,2.67,2.33a4.18,4.18,0,0,1,4,1.14c1.63,1.58,3.16-2.84,5.36,2.38a45.88,45.88,0,0,0,8.41,3.81c2.6-1.31,4,1.68,5.34,2.51,3.25-.69,5.6.38,7.16,3a19.59,19.59,0,0,0,8.63,1.95c2.89,1.69.78,11.64-1.68,13.09L114,215.14c-8.72-4.79-13.12,1.33-16.08-3.18-5.3.58-19.39-1.76-20.47-7.39-5.31-3.54-10.47-16-15.61-29.22A92.46,92.46,0,0,1,84.68,166Z"/>
  </g>
  <g class="tomerPants">
    <path d="M215.84,231c9.15,6.16,14.95,24.6,19.57,31.21,5,7.17,8.69,17.09,13.55,25.44,1.45,2.49,10.17,2.74,7.56,11.63,5.08,7.39-10.47,17.88-19,15.52C225.74,294.13,219.92,263.94,215.84,231Z"/>
    <path d="M237.06,309.62c1.27-4.72-3.92-4.91-3.78-10.92,3.62-8.87-1.07-9.9-1.56-14-1.26-10.43-7.36-24.13-10.36-41-1.33-7.53-2.9-11.27-6.73-19.61-7.19-15.68-53-10.77-92.64-8.94.09-1.94-2.06-2-4.44-.21,0-1.78-2.56-.62-3.56.22-13.07,8.43-27.8,18.52-36.46,26,4.89,18,25.34,31.71,45.87,25.14,40.39-12.94,47.1-1.38,59.08-17.3,0,1.33,2.19,1.73,3.11.71-4.05,7.59,3.36,4.89,4.14,17.65.34,5.44,7.05,26.61,10.76,54.33.94,7,7.45,3.2,12.55,3.12,10.61-.18,17-7,25.83-9.71C240.29,314.27,235.8,313,237.06,309.62Z"/>
  </g>
  <g class="clothesDisplayLine">
    <path d="M128,200.74c.51,5.39-1.32,12-6,14.39"/>
    <path d="M214.62,325.94q8.38,4.24,7.21,15"/>
    <path d="M259.4,334.48c-3.78,6.63-19.36,1.53-23.14,10"/>
    <path d="M280,309.78c1,18.71-8.07,15.92-12.12,21.25"/>
  </g>
  <g class="clothesOverlapLine">
    <path d="M51.33,156c2.15,6.53,5.35,13,7.29,20.78.7.51,1.83-.76,3.21-1.4"/>
    <path d="M84.68,166c1.22-.28-1-8.23-2.51-13.5"/>
    <path d="M230.36,321.47c9.18-2.36,11.9,8.68,25.46,15.81"/>
    <path d="M280,315.07c-14.1,1-17.75-9.47-24.32-1.63"/>
    <path d="M259.53,303.85a10.41,10.41,0,0,1,1.33,6.64"/>
    <path d="M237.58,322.64c-.37-1.3.29-2.48,2-3.53"/>
  </g>
  <g class="clothesFoldLine">
    <path d="M122,215.13c-5.17,5-9.16,10-10.73,15.27"/>
    <path d="M117.55,214.92c-4,2.06-11.31,8.73-17.06,14.52"/>
    <path d="M100.73,233.51c3.4-3.68,7.26-8.28,8.07-7.76s-1.29,3.22-3.52,6.12"/>
    <path d="M182.48,249c-1.62-6.09,4.7-17.38,3-18.37-1.93-1.09-5.37,7.06-8.51,13.37"/>
    <path d="M190.15,225.15c-.69,3.62-1.56,7.71-.3,8.25,1.67.7,3.42-6.78,9.43-9"/>
    <path d="M189.74,250.12c6.49-7,11.28-17.12,9-18.29-2.34-1.4-11.18,8.82-10.66,10.82.37,1.43,3.43.32,4.48-1.41"/>
    <path d="M214.84,244.85c4.23,24-1.06,43.39.95,51.76.82,3.45,8.4.47,11.06-4.15"/>
    <path d="M233.28,298.7c-5.33,11.69-20.52,19.38-20.52,23"/>
    <path d="M217.24,309.87c-4.84,4.18-9.36,4.61-13.54,1"/>
    <path d="M201.36,313.54c2.45,3.59,10.34,5.37,2.9,7.91"/>
    <path d="M252.73,303.51c4.53-6.11-9.32,1.35-15.67,6.11"/>
    <path d="M239.77,287.81c-.49,5.28-1.52,10.06-4.22,13.24"/>
    <path d="M254.05,294.18c-3.84,0-11.05,5.69-10,6.49s3-1.35,5.44-1.81"/>
    <path d="M232.32,312.49c-.71-3.57-4.87-.61-9.52,3.27"/>
    <path d="M68.94,138.36c6,.76,10.56,5.09,13.23,14.1a21.48,21.48,0,0,0,4-8.48"/>
    <path d="M49.43,149.58c.07,2.46,1.69,4.79,1.9,6.39a6,6,0,0,1-2.73-2.33"/>
    <path d="M70.6,133.83c8.58,3.69,11,13.6,11.8,13.44,1.24-.21,1-4.32-.9-7.92"/>
    <path d="M95.13,141c.07,4.26-1.39,9.52-6.62,17.26"/>
    <path d="M97.86,147.69c-2.65,8.07-8.54,12.9-7.86,14,1.16,1.89,5.62-.46,8.63-3.28"/>
    <path d="M61.61,155c3.47,4.24,9.67,5.81,17.19,6.61,3.9.41,3.71-1.08,2-4"/>
    <path d="M64.28,160.5c4.61,2.28,6.23,5.33,0,10.36"/>
    <path d="M109.66,165.49c-.8,5.6-4.44,10.83-11.38,15.64"/>
    <path d="M109,178.94c-.17-3.23-4.28.13-7.8,3.8"/>
    <path d="M112.75,170.13c-1.58,4.89-1.89,10.84-4.11,15.58"/>
    <path d="M118.83,188.55c-.8,2-2.45,4-5.43,5.93"/>
    <path d="M63.28,209.38c7.18,2.06,16.65-2.73,7.76,10.3"/>
    <path d="M76.07,206.29c-3.7,1.37-7.3,2.17-10.63,1.56"/>
    <path d="M80,207.94c-7.33,14.92-8.35,17.35,5.78,10.75"/>
    <path d="M73.25,227.84c7.28-3.93,14.67-7.94,7.43-.67"/>
    <path d="M70.83,223.89a7,7,0,0,0,2.23-.62"/>
    <path d="M77.44,204.57A10.56,10.56,0,0,0,82,206.08"/>
    <path d="M79.44,168.46a11.27,11.27,0,0,1,7.84,3.5"/>
    <path d="M89,176.27c-2.69-1.71-6-1.4-10-3"/>
    <path d="M84.35,178.39a11.59,11.59,0,0,1,8.09,4.86"/>
    <path d="M91.42,184.68c-.46,1.63-2.7,3.08-7.59,4.28"/>
    <path d="M95,185.57c-1.31,3-3.59,5.83-4,7.44-.58,2.35,2.78,3.11,3.77-3.76"/>
    <path d="M97.66,187.9c-.1.86.44,2.24.07,3.33"/>
    <path d="M104,192.06c-.06,3.13-2.31,5.53-8.15,6.76"/>
    <path d="M107.05,191.42a6.28,6.28,0,0,1-1.13,6.5"/>
    <path d="M115.62,196.52c3,2.72-2.89,9.1-8.78,9"/>
    <path d="M120.8,197.74a4.55,4.55,0,0,1,0,5.11"/>
    <path d="M117.73,205.58c-1.09-.91-2.92-.1-5.33,2.09"/>
  </g>
  <g class="skinAshkenazi">
    <path d="M97.72,80.48a34.47,34.47,0,0,1,.39,7.85C101,86.23,99.42,83.14,97.72,80.48Z"/>
    <path d="M92.76,52.27c4.13,8.51.94,11,2.29,14.33.91,2.18,1.46,2.68.33,3.71,1.39,2.22.6,3.69.93,4.64C99.12,83.07,99,92.22,94.37,103c-2,3.44-2,9.14-6.27,10.49-18.15,5.71-43.44-4-64.32-19.79Z"/>
    <path d="M73.82,105.07c-.12,4.43,0,8.68,3,12.89q-1.65,2.1-7.08,3.51a40,40,0,0,0-23.46.71c1.59-6.24,0-15.45-4.07-18.36"/>
    <path d="M136.1,214.4c4.74-.26,9.49-.53,14.18-.76-3.8-3.71-8.67-6-12.37-8.25A17.06,17.06,0,0,1,136.1,214.4Z"/>
  </g>
  <g class="skinOverlapLine">
    <path d="M81,86.49c-2.33,5.38-6.8,1.39-8.67-2.37"/>
  </g>
  <g class="skinFoldLine">
    <path d="M73.54,80.11a15.55,15.55,0,0,0,2.09,3.58"/>
    <path d="M76.74,78c.7,2.21,2.64,3.34,1.31,4.18-.88.27-.73-1-1.3-1.73s-1.51-1-1.7-2.23"/>
  </g>
  <path class="eyeLashLine" d="M93.41,71.38a5.52,5.52,0,0,0,2-1.07"/>
  <path class="eyebrowDarkBrown" d="M92.6,62.4c.2,1.11.64.05,2.35-1.12A13.74,13.74,0,0,0,94.74,58,4.91,4.91,0,0,0,92.6,62.4Z"/>
  <path class="hairDarkBrown" d="M94,50.67c4.26,1,7.17-4.29,5.79-7.16,3.9-2.07,2.79-7.88-1.14-8.8a3.67,3.67,0,0,0-1.48-4.89c5.08-3,3.47-9.21-.24-10.51.92-4.84-3.84-8.29-8.3-7.68-.59-4-4.83-6.81-9.56-5.13-1-1.39-3.71-1.31-4.86-.16a6.92,6.92,0,0,0-9.31-3.21A6.28,6.28,0,0,0,54,3.75,4.4,4.4,0,0,0,48.13,5.3c-3.19-2.86-7.79-2.8-10,1.44-1.94-.81-4.75.54-5.18,2.48a6.51,6.51,0,0,0-9.33,3.89,4.42,4.42,0,0,0-5.08,3.77c-4.59-.67-10.33,3.51-8.82,8.37-2.45.34-3.15,4.11-1.64,6.36-3.8-.54-9.42,5.46-6.65,10.1-1.81,2-1.61,5,1.26,6.07C-.17,50.12.28,56.28,4.37,58c-1.88.16-2.27,2.91-1.4,3.84C-.58,64.49.92,74.1,7.22,74c-1.37,3,.19,7.4,3.63,6.39-1.94,2-1.24,7.12,1.27,6.77-.44,6.2,4.8,11,10.13,8.82A3,3,0,0,0,27,98c2,5,9.38,5.81,12.75,2.32.94,4.16,6.73,2.14,8.58,6.06,1.06-3.12,4.68-1.69,5.17-4.82a6.57,6.57,0,0,0,9.74-4.34,3.39,3.39,0,0,0,3.8-4.1c4.29-.38,6.9-5.32,4.55-8.18,1.34-.8,1.34-2.88.44-4.21a2.75,2.75,0,0,0,2.57-2.5,5.73,5.73,0,0,0,5.59-2.89c4.33,0,5.69-5.53,4-7.93,2.94-.29,5.44-4,4.1-6.67,2.7-.08,4.71-3.41,3.93-5.93C93.9,54,94.24,52.5,94,50.67Z"/>
</svg>
