<svg viewBox="0 0 356.49 464.65">
  <path class="sockWhiteDark" d="M319.18,431.24c4.24-15.31-22.53-11.9-23.55-.4C304,438.93,311.74,438.15,319.18,431.24Z"/>
  <g class="soleWhite">
    <path d="M293.2,448a13.1,13.1,0,0,0,1.44,5.24c1.33,2.21,7.51,5.45,11,7.28,11.82,6.28,27.75,4.51,33.79-2.12,1-1.1,1-4.5-.6-6.63Z"/>
    <path d="M147.47,441a10.73,10.73,0,0,0,.23,4.94c8.48,5.33,22.46,3.19,32-.52,7.79-3,22.93-3.17,27.13-8.18.41-.66.43-2.52.11-5Z"/>
  </g>
  <g class="tomerShoe">
    <path d="M310.64,458.09c9.95,2.73,26.17-1.47,28.15-6.33-3.31-4.52-12.23-5.61-19.61-20.52-.32-1.67-1.4-1.93-3.17-.91-2.72-2.26-7.7-1.05-10.11,2.27-3.63.52-6.87-.75-9.81-3.47A43.47,43.47,0,0,0,293.2,448C297.8,453.59,304.2,456.33,310.64,458.09Z"/>
    <path d="M173.79,442.16c10.64-4.85,24.55-3,33.14-9.92-.73-5.52-3.22-14.05-7-18.84l-20.43,2.06c-15.18,20.28-30.61,15.19-32,25.52C153.51,444.88,167.15,445.18,173.79,442.16Z"/>
  </g>
  <path class="tomerPants" d="M281.29,215.58c2.32,6.4,2.64,12.22,3.3,15.12.53,2.37,3.3,1.66,1.94,5.5,1.72,1,1.72,2.69.69,4.58-.78,1.45,11.25,11.46,20,65.7,1.65,10.22,5.41,12,5.64,17.52,7.42,3.59,3,12.54,5.43,20.93,6.66,22-.41,53.85,7.14,68,4.84,9.12-1.13,12.68-6.23,18.27-.22-5.59-2.82-4-11.24-4.42a16.21,16.21,0,0,0-15.54,9.25c1.79-16.51-8.58-10-.91-19.38-2.74-7.77-7.72-9.93-3.41-23.56,2.4-7.58-3.28-14.44-3.43-30.42-.08-8.27-5.39-12.53-4.2-17.74,1.57-6.94-8.6-9.73-8.47-23.49,0-5.56-6.56-9.89-9.66-19.11-7.08-21-14.16-30.13-25.29-30.06-18.73.13-39.61,52.84-52.19,53.87,7,7.6-3.77,7.64-1.17,9.08,6.18,3.42,1.26,6.69,2.34,8,7,8.78,2.58,33.63,5.91,36.85,15.39,14.88,1.07,17.4,5.76,21.13,4.39,3.49,3.89,7.72,6.23,11.15-11.14,10.15-22,2.14-30.88,7.41-2.11-6,.58-7.74.36-10.51-3.72-2-13.24-2.28-11.09-9.65,4.3-14.78-16.55-49-16.53-60.69,0-3.15-3.07-6.87-2.55-10.65,1-7.63,28.41-58,47.89-86.47,1.52-2.21-1.13-5.43,2.94-6.29-1.22-4.83,3.55.8,7.3-14.85Z"/>
  <path class="tomerShirt" d="M280.72,209.56a6,6,0,0,0,.23-6.95c1.56-4.68-2.55-4.82-3.68-9.92.71-9.63-3.82-10.06-6.23-21.11,1.16-5.5-3.76-6.31-3.54-13,.23-7.22-5.1-11.05-7.23-18.41,8.36-.57,16.43-19.13,13.6-25.22-7.4-3.87-14.17-8.79-21.53-12.75-7.65-4.1-21-.56-34.28-.42-45.94,10.24-56.48-3.12-57.61,4.67-3.31,1.11-8.43-3.75-9.25,0-1.89-.69-3.53-.82-4.18,1.38.18,7.28,3.22,19.59,8.29,25.59l25.49,24.46c2.84,16.43,12.74,25.6,13.74,33.79s4.81,12,4.82,22.14C216.23,223.59,267.72,220.76,280.72,209.56Z"/>
  <g class="escherLogo">
    <path class="clothWhiteMedium" d="M202,195a242.81,242.81,0,0,0,45.09-17.42q-12.21-20.19-24.19-40.05a238.23,238.23,0,0,1-44.38,16.68Q190.14,174.46,202,195Z"/>
    <g class="sleeveDisplayLine">
      <path d="M219.7,161.88c3.75,1.05,7.81-1.41,11.62,1"/>
      <path d="M223.67,145.55c-2.68.83-7.26,0-9.26,1.78"/>
      <path d="M206.53,173.25c-3.25-1.29-7.41.86-10.47-2"/>
      <path d="M201.23,187.85a19.84,19.84,0,0,1,6,0c1.31.12,3,.5,3.8-.41"/>
    </g>
    <g class="clothGrayLight">
      <path d="M219.7,161.88h0c.63-1.11-.13-3.11-.47-4.46a11.39,11.39,0,0,0-1.75-.08C217.87,158.6,218.25,161,219.7,161.88Z"/>
      <path d="M206.92,177.61l1.79.26c-.34-1.35-.92-3.57-2.18-4.62C205.86,174.21,206.6,176.35,206.92,177.61Z"/>
    </g>
    <path class="clothGrayMedium" d="M229.74,195.89q1.32-13.68,2.55-27.47c0-.53.56-5-.95-5.56s-1.77,3.85-1.86,4.58q-1.23,13.71-2.57,27.31C226.84,195.41,229.68,196.55,229.74,195.89Z"/>
    <g class="clothWhiteDark">
      <path d="M193.11,167.1c2.31.81,2.29-2,1.92-3.62-1-4.23.15-7,4.75-5.66s0,6-1,6.77c-1.57,1.17-.05,4.63,2.36,4.16a12,12,0,0,0,9.28-8.09c1-3,5.45-3.57,8.84-3.24-.79-2.86-2.11-7.9-4.82-10.09-5.81,1-12.82-3.21-18.38-1.91-4.23,1.69-8.87,4.82-7.21,10.68.35-1.93,1-4,3-4.57C189,153.44,187.13,165,193.11,167.1Z"/>
      <path d="M231.89,171.16c2.92,1.75,3.46,5.67,3.2,8-.56,5-4.58,8.26-9,9.44-4.54,1.22-10.06-1.17-15.09-1.18-2.41-2.67-3.42-6.85-4.12-9.83,3.62.6,5.51.07,6.86-2.85,1.85-4.08,8.37-2.35,8-8.25-.14-2.34,2.78-4.48,4.84-1.26,2.26,3.54.91,8.88-.91,11.17,2.82-1.61,3.5-7.64,1.48-11.2,6.47-1.1,3.26,12.69,2,14.45C231.55,178,231.92,174.24,231.89,171.16Z"/>
    </g>
    <path class="clothGrayMedium" d="M197.84,140q-1.31,13.05-2.69,26c0,.59-.55,4.85.89,5.25s1.77-3.22,1.89-4q1.38-13,2.68-26.14C200.67,140.41,197.9,139.3,197.84,140Z"/>
  </g>
  <g class="tomerSweater">
    <path d="M201.15,128.64c11.12-3.1,20-17.57,19.11-24.15L185.88,112C186.06,118.69,193.91,127.88,201.15,128.64Z"/>
    <path d="M280.72,209.56c2.45,2.57,1.16,4.63,2.7,7.34-19.05,12.1-60.5,14.29-85,4.5-.48-1.53.65-4.48.9-7.56C216.23,223.59,267.72,220.76,280.72,209.56Z"/>
    <path d="M143.64,107.73c-2.19-2.69-4.77.88-8.53-.37-4.27-3-4.54-.25-9.29-.25-2.88,0-7.78-2.89-15.68-.88-4.25-3-5.27,2-10,1-3.58-2-6.56-2.66-8-.12-4-1.21-7.33-1.16-8.61,2.47-4.85-.6-9.17-.67-11.54-.09-3.06.75-2.82,16.34-.42,17a48.44,48.44,0,0,0,12.17,1c4,3.89,5.8,1.42,10.16,2.26,13.67,2.63,40,3.09,61.48,3.76-5.07-6-8.11-18.31-8.29-25.59A7.7,7.7,0,0,1,143.64,107.73Z"/>
    <path d="M326.14,185.08c3.44-4,2.06-6.29-1.26-8,3-4.14-4.12-8-4.19-12.21-.07-3.86-2.83-5.75-3.63-11.74-.27-3.72-4.67-8.05-6.11-10.65-2.88-6.6-7.53-11.67-15.34-14.24-4.29-1.41-12.67-7.4-21.33-12,1.2,6.1-4.27,19.08-10.83,22.86,3.9,4.35,9.83,6.54,13.23,7.64,4.93,1.61,6.31,5.55,11.4,4.81a4,4,0,0,0,1,1.6c-2.26,1.42-1,2.72,1,4.53,5,4.33,5.63,15.29,9.71,17.62,3,1.71.57,5.46,4.05,7.38.45,3.62,2,5.93,5.32,6.1,1.28,3.32,1.47,10.24,2.51,11.91,5.74,2.31,16-.32,17.21-5.33A33.19,33.19,0,0,0,326.14,185.08Z"/>
  </g>
  <g class="clothesDisplayLine">
    <path d="M309.23,188.83c5.38.62,13.28-1.4,16.91-3.75"/>
    <path d="M83.46,109.58c4.78.21,7,13.66.21,17.85"/>
    <path d="M217.89,226.33c-4.4,4.27-10.56,5.52-18.38,4.86"/>
    <path d="M245.72,227.18c5.39,8.32,16.81,7.18,29.11,5.51"/>
    <path d="M236.88,227.55c-4,9.54,1,12.48.83,16.16-.14,4.77,4.63,9.55-5.93,11.43"/>
    <path d="M227.47,227.29c-4,11.82,1.72,13.55,1.58,19.94-.12,4.91,4.09,8.64,5.34,14.09"/>
    <path d="M194.94,437.24c-.33-6.62,3.06-11.57,9.45-15.19"/>
    <path d="M180.61,439.9c-4.17-7.66-13.55-4.53-19.84-9.06"/>
    <path d="M293.64,438.15c3.12,2.58,4.28,7.36,3.83,13.93"/>
    <path d="M330.92,445.7c-3.25-1.3-12.73.84-16.09,2.93-4.9,3-9.55,1.62-12.2,6.56"/>
  </g>
  <g class="clothesOverlapLine">
    <path d="M260.27,140.2c-1.37-2.95-2.48-5.1-1.12-6.24"/>
    <path d="M163.31,432.24c8.62-3.4,14.16-11.9,19.42-14.41"/>
    <path d="M178.88,418a6.45,6.45,0,0,1,.08,2.45"/>
    <path d="M305.9,432.6c8.93-1.72,9.52,9.35,15.93,13.52"/>
    <path d="M316,430.33a6.57,6.57,0,0,0-3.95,3.64"/>
  </g>
  <g class="clothesFoldLine">
    <path d="M92.07,107.11c6.69,1.37,7.79,15,9.16,7.4"/>
    <path d="M100.1,107.23a8.49,8.49,0,0,1,2.5,2.07"/>
    <path d="M108.91,110.12c3.74,3.86,5.59,8.47,4.21,14.36"/>
    <path d="M110.14,106.23c3.8,2.54,6.82,11.21,14.23,17.25"/>
    <path d="M129.68,111.77c1.13,4.4,1.5,8.81.09,13.26"/>
    <path d="M133.79,110.4c-2.56,19.12,2.84,25.06,1.92,9.51"/>
    <path d="M139.65,116.43a75.87,75.87,0,0,0,3.36,13.8"/>
    <path d="M142.12,108.38A28.07,28.07,0,0,0,144,122"/>
    <path d="M151.2,106.48a27.47,27.47,0,0,0,2.63,10.59"/>
    <path d="M158.31,118.26c-4.18-5.47-2.49.79.62,6.92"/>
    <path d="M160.45,106.48c-.06,4.19,4.72,13.43-.68,8.58"/>
    <path d="M164.71,112.32a37.1,37.1,0,0,0,6.5,10.15"/>
    <path d="M172.3,116.16a30,30,0,0,0,6.86,7.68"/>
    <path d="M176.05,107.74c.46,3.75,6.87,10.8-.82,4"/>
    <path d="M198.14,191.3c4.77,6,11.29,10.6,14.51,16.75"/>
    <path d="M187.43,172.61c5,11,15.14,17.42,28.24,21.22"/>
    <path d="M191.91,166.76c9,7.51,19.9,12.43,32.42,15.19"/>
    <path d="M199.41,175.81c7.86,3.15,17.29,8.63,27.26,14.9"/>
    <path d="M230.66,214.77c8-.49,18.92-4.62,18-.49"/>
    <path d="M227.16,205.13c15.77,5.06,45.66-8.08,47.41-18.31"/>
    <path d="M277.27,192.69c-2,5.52-18.56,14.64-16.82,16.14,2.09,1.78,19.12-5.83,17.82-8.38"/>
    <path d="M281,202.61c-.88,2.25-2.89,4.41-6.86,6.41"/>
    <path d="M203.6,153.22c15.28,7.7,30.45,12.71,36.31,19.67"/>
    <path d="M199.41,148c26.58,14.21,47.56,15.62,63.87,3.79"/>
    <path d="M246.14,162.76c-9.54,3.8-3.5,5.55,6,10"/>
    <path d="M264.64,173.78c-2.44,4.68-9.22,7.07-21.52,6.52"/>
    <path d="M249.55,182.64c6.91-1.08,14.8-3.22,5.65,4.08"/>
    <path d="M271,171.58c-1.93,5.37-5.75,11-14.38,17.09"/>
    <path d="M264.45,113c3.89,3.59,5.26,8.87,1.46,17.63"/>
    <path d="M248.28,123.43c.9,3.58,2.45,6.56,5.16,8.47"/>
    <path d="M247.51,126.84c2,3.89.77,4.38-5,3.31"/>
    <path d="M242.15,132.39c7,1,16.77,4.94,6.62,6.81"/>
    <path d="M256,140.18a12.58,12.58,0,0,0-8.38,2.92"/>
    <path d="M274.67,139.2a26.05,26.05,0,0,0,9.44-2"/>
    <path d="M295.12,132.19c-4.17,4.62-9,8.16-15.1,9.45"/>
    <path d="M288.08,151.6c6-3.63,9.37-10.45,11-9.09,3.18,2.63-2.27,7.17-10,10.69"/>
    <path d="M304.27,146.51a16.76,16.76,0,0,1-9.25,6.91"/>
    <path d="M314.3,150.3c.87,2.76-2.75,5.74-9.35,8.86"/>
    <path d="M314,166.46c-.87,4.78-9.93,8.48-15.09,5"/>
    <path d="M303.91,182.73c4.93.38,11.66-1.39,6.3,2.23"/>
    <path d="M324.88,177.1c-3.48,3.38-8.15,6.4-.56,4.46"/>
    <path d="M320.43,175.52c-6.57,3.61-11.42,5.37-8.28-1.46"/>
    <path d="M286.53,236.2c-2.37,1.17-6.5,1.38-9.75,1"/>
    <path d="M194.05,235.58a4.68,4.68,0,0,1,4.38,1.21"/>
    <path d="M226.23,260.07c-4.47-2.37-13.23-1.73-22.19-1"/>
    <path d="M227.42,266.63c-4.46.8-12.74,5.38-21.19,10.12"/>
    <path d="M244.65,257.47c4-2.42,15.72.14,28.3-.68"/>
    <path d="M259.69,276.07c-6.43-4.65-17.71-10.84-17-6.84"/>
    <path d="M312.84,324c-1.75,7.06,2,12.86,2.34,4.67"/>
    <path d="M272,313c9.21,7.17,22.52,19.79,21.67,22.87s-11-.67-17.23-5.29"/>
    <path d="M295.7,348.56c5.39-12.74-5.62-6.91-8-1.29"/>
    <path d="M310.75,356.14c-7.34-15.53-14.33-7.17-14.67,16.89"/>
    <path d="M291.49,416.69a28.62,28.62,0,0,0,4.07-8.69"/>
    <path d="M317.74,400.83c-.51,8.36-20.47,18.09-17.23,5.29"/>
    <path d="M320.3,426.6c2.67-5.41-4.15-3.25-14.16-2.39-6.12.52-16.55-5.46-11.26.85"/>
    <path d="M173.39,409.33c6,1,8.13,2.28.88,5.46"/>
    <path d="M168,398.07c-3.75,4.38,2.9,4.95,9,4.1"/>
    <path d="M197.48,411.55c-5.48,1.37-10.52,2.34-11.43.34-1.09-2.37,8.53-8.7,11-13.82"/>
    <path d="M190.82,381.61c4.62,15.64-9.72-3.24-19.45-17.74"/>
    <path d="M193.9,391.08c3.47.9.61,4.17-4.27,8.19"/>
    <path d="M171.72,307.57c-12.39,16.58-9,21.64,11.6,14.16"/>
    <path d="M181.1,329.92c-6.31.17-11.85-1.46-11.94,0-.12,1.69,2.38,2.44,5.11,3.07"/>
    <path d="M177.69,346.12c-7.34-9-25.77-13.3-15.36,2.9"/>
  </g>
  <g class="broom">
    <path class="broomHandle" d="M139.92,130,4.05,102.25c-4-.92-5.41,5.18-1.4,6.1L138.47,137C137,135.3,137.93,130.92,139.92,130Z"/>
    <path class="bundleDark" d="M195.11,123.38c1.68,1.38,1.59,3,3.21,4.43-1.38,2.95-.91,6.06-1.72,8.27,0,3.56-1.19,4-1.18,7.38-1.38,2.94-1.39,8.51-2.64,11-.07,2.91-1.31,4-1.26,6.47-1.55.49-2.26,1.69-4.29,1.57C182.52,147.41,184.57,134.22,195.11,123.38Z"/>
    <g class="bundleLight">
      <path d="M187.23,162.48c-9.74-5.3-26.75-9.31-37-15.2-8.66-4.95-5.41-21.06,5.41-21.9,12.26-.95,27.67.56,39.52-2-.34,3.59-2.28,5.36-2.35,8.74-1.17,3.45-1.38,9.35-2.62,12.18-.28,3.59-1.53,5.5-1.66,8.95C187.17,156.91,187.83,159.35,187.23,162.48Z"/>
      <path d="M147,131l-5.95-1.15c-3.18-.67-4.79,7-1.62,7.68l5.78,1.28A14.07,14.07,0,0,1,147,131Z"/>
    </g>
    <g class="string">
      <path d="M144.38,130.49c-1.66,1.25-2.79,5.72-1.82,7.73l-.75-.16c-1-1.95.06-6.38,1.69-7.73Z"/>
      <path d="M158.93,125.18c-2.9,5-5.88,16.56-6.41,23.35l-.66-.33c.54-6.69,3.4-17.82,6.24-23Z"/>
      <path d="M163.55,125.05c-3.21,5.23-6.58,18.5-6.86,25.41l-.67-.29c.3-6.8,3.55-19.72,6.7-25.11Z"/>
      <path d="M167.93,125c-3.43,5.42-7.08,19.86-7.29,27.06l-.66-.26c.2-7.1,3.75-21.2,7.13-26.8Z"/>
    </g>
  </g>
  <path class="hairDarkBrown" d="M162.7,59.39c-2.47-.63-3.84-4.08-2.9-6.62-3.44-1.36-4.3-6.32-1.93-9.27-1.35-.57-1.94-3.56-1.28-4.69-4.39-2.48-1.57-9.49,1.32-9.76C156.75,24.49,159.85,20,164,20c-.67-1.63,1.05-4,2.77-4.4-1-4.69,4.22-9.14,8.05-8.1.4-2.26,3.45-3.43,5.56-2.07,2-3.58,7.54-4.49,10.21-1.4,1-2.35,4.67-3.17,6.78-1.5,1.88-3.22,8.06-2.85,9.47.25a3.52,3.52,0,0,1,4.67,2.82,2.92,2.92,0,0,1,4.23-.23c3.05-3.25,8.24-1.95,10.08,1.09,3.25-1.42,6.51,1.48,5.4,4.06,3,.63,5.71,4.12,4.56,6.9A2.4,2.4,0,0,1,238.23,20,4.68,4.68,0,0,1,243.48,26c2.36.66,4,2.95,3.46,5,3-.42,5.48,2.79,5,4.92,2.79.45,4.6,3.8,2.39,5.9,2.28,1.1,2.68,6.13-.36,7.86,1.81,1.56.58,6.08-2.58,6.67A5.32,5.32,0,0,1,252.7,63c1.55.47,2.32,3.25,1,4.65,2.54,1.85,2.59,7.26-1.62,9.34.57,1.26-.31,3.87-2,4.24a5.33,5.33,0,0,1-7.07,5c.32,1.85-.93,4.35-2.94,4.84.09,4.3-5.2,6.92-9.12,5-.7.94-2.95,1.8-4,1.29a5.25,5.25,0,0,1-7.62,2.67c-2.31,2.12-10,.66-10.81-2.9Z"/>
  <g class="eye">
    <rect class="sclera" x="164.01" y="54.1" width="34.22" height="10.33"/>
    <g class="irisAmber">
      <ellipse cx="190" cy="61.91" rx="3.54" ry="3.05" transform="translate(98.11 239.36) rotate(-80.67)"/>
      <ellipse cx="167.83" cy="58.26" rx="3.54" ry="3.05" transform="translate(83.13 214.43) rotate(-80.67)"/>
    </g>
    <g class="pupil">
      <ellipse cx="189.61" cy="61.84" rx="1.37" ry="1.19" transform="translate(97.85 238.92) rotate(-80.67)"/>
      <ellipse cx="167.44" cy="58.2" rx="1.37" ry="1.19" transform="translate(82.87 213.99) rotate(-80.67)"/>
    </g>
  </g>
  <g class="skinAshkenazi">
    <path d="M220.19,83.39c-2.38,8.31-4.32,14.67.07,21.1.54,14.62-29,20.56-34.38,7.48,1.77-4.31,1.21-18.17-.67-18.4"/>
    <path d="M58.4,120.09l14.49,3h0c-.36,1.1-.8,1.82-1.29,1.83-1.24-.25-2.13-.5-3-.7-1.38,3.26-5.52,3.53-10.22,5.16-3.28,1.23-5.26-.62-7.24-2.94-1-1.23-3.26-1.84-3-3.8a2.19,2.19,0,0,1-2.14-1c-2.61.91-3.8-2.35-4.65-4.31-5.54-1.37-4.43-4.93-3.85-10.09.39-3.84,6.92-2.24,7.5-3.8,2.48-4.44,4.57-1.18,6.33-2.22,4.57-3.39,6.72,1.43,8.74,1,4.63-1,5.61,8.67,12.72,8.74.9.32,1.2,2.79,1.09,5.57h0l-13.6-2.78C58.82,116.58,57.93,116.77,58.4,120.09Z"/>
    <path d="M356.13,228.5c-3.41-3.3-5.05-7-8.07-10.2-2.29-2.39-9.27-4.18-10.27-6.07-4.6-8.4-9-9.85-10-14.72-2.86,3.33-10,4.94-15,3.6-.93,5.95-4.64,10.12-5.28,17.29,0,5-1.82,5.45-2.77,12.38-.17,1.91-2.25,4.42-2,5.46,2.51,3.2,7.36-.43,8.4-5.28,1.71-3.59,3.48-6.8,5.8-7.11,3.81-1,10.92.61,13.6,3.9,2.6,4.33,5.72,6.06,7.71,11.52,1,5.46,6.67,7.88,7.53,4.59-1.12-4.16-2.68-10.39-6.06-16.11,2.08.95,4.88,3.66,6.58,6.24,1.47,5.54,7.88,8,8.4,3.81-1.38-1.91-1.27-4.2-3.69-7.23C353.84,232,356.88,230,356.13,228.5Z"/>
    <path d="M206.19,98.91c-5,3.54-10.15,4.73-14.94,6.12-11.68,3.37-24.75,4.47-27.25-4.28-1.09-3.8-1.25-7.81-2.69-10.59a31.15,31.15,0,0,1,1.39-30.77c1-1.7-.44-3.37.16-4.8.73-1.73,2-3.21,1.79-5.22s1.38-3.47,3.09-5.95c.82-1.18,1.09-3.34,2-4.25,1.56.23,4.2-1.67,4.81-3.28a4.32,4.32,0,0,0,6.44-.25c1.21,3.85,6.45,5,9.16,2.6,1.43,1.69,4.17,1.38,5-.27,1,1.65,4.81,2.63,6.62,1.3A4.65,4.65,0,0,0,207,41.66a7.11,7.11,0,0,0,4.16,8.75,4.72,4.72,0,0,0,3.05,7,4.26,4.26,0,0,0,2.64,6c-1.81,1.61-2.52,4.88-.85,6.54-3.29,2.16,2.3,5.06-.49,7.4a4.13,4.13,0,0,0,4.88-2.76c.7,2.28,4.19,3.44,6.47,2.23A5.36,5.36,0,0,0,231.73,81c-2.38,6.08-7,7.5-10.33,9.78-2.68,1.83-5.93,1.21-6.39-1.34M190.63,61.82c2.17.46,4.17.27,6.2,1.07-1.88-2-4.07-3.39-6.67-3.41-1.66,0-3.15.84-5.51,1.78C187.14,60.49,188.81,61.43,190.63,61.82ZM167.94,58c1.81.29,3.16-.29,6,1.42-1.41-1.09-2.27-2.33-3.46-2.89a5,5,0,0,0-5.67.89C165.83,57.12,166.81,57.85,167.94,58Z"/>
  </g>
  <g class="skinOverlapLine">
    <path d="M334.82,221.85a23,23,0,0,1,5,5.9"/>
    <path d="M338.26,217.46c7.38,4.53,9.37,8.17,12.84,13.11"/>
    <path d="M43.06,107.91c-1.41,4.1-2.69,7.43-1.66,9.43"/>
    <path d="M47.91,107.86c-3.08,9.17-4.23,9.26-1.86,13.79"/>
    <path d="M60.33,113.74a6.94,6.94,0,0,1,.78-1.27"/>
    <path d="M48.19,122.69c.92-2.79,5.69-1.32,7.77,1,1.71-1.3,3-.66,5.7-2.22"/>
    <path d="M54.71,109c-2,5.17-5,8.63-2.37,12.43"/>
    <path d="M58.4,120.09a2,2,0,0,1,.71,2.44"/>
  </g>
  <g class="skinFoldLine">
    <path d="M68.64,124.27a4.16,4.16,0,0,0,.44-1.53"/>
    <path d="M225.75,78.42c3.93-.13.87,5.28-1.62,5.47a4,4,0,0,0-2.77,1.75c-1.05,1.46-3.53-.06.11-2.44,1.38-.9,2.11-2.66.74-3.38"/>
    <path d="M227.09,84.65a7.26,7.26,0,0,0,3-4"/>
  </g>
  <path class="lipMaleMedium__noStroke" d="M169.74,80.75A10.68,10.68,0,0,0,176.5,82c2.94.78,7.82.88,9.55,4.28-3.74,3.9-6.09,11.52-13.51,10.22-10.67-1.88-1-14.21-5.57-14.78A24.4,24.4,0,0,1,169.74,80.75Z"/>
  <path class="mouthInner" d="M185.79,86c-2.91-3.65-8.12-2.67-12.35-2.78A17.91,17.91,0,0,1,169,82C165.12,94.73,178.72,95.66,185.79,86Z"/>
  <path class="tongue" d="M184.82,85c-4,2-10.71,2.51-13.63,1.07a9.05,9.05,0,0,0-1.26,4.6c3.31,3.53,11.08,1.84,15.86-4.69A6.43,6.43,0,0,0,184.82,85Z"/>
  <path class="teeth" d="M173.44,83.22a10.36,10.36,0,0,1-3.05-.77,5.23,5.23,0,0,0,.1,3.19c2.37,2,9.95,1.52,14.33-.62C181.82,82.54,177.23,83.32,173.44,83.22Z"/>
  <g class="lipOverlapLine">
    <path d="M166.81,81.74A4.34,4.34,0,0,1,169,82"/>
    <path d="M185.79,86a4.89,4.89,0,0,1,.44.57"/>
  </g>
  <g class="lipEdgeLine">
    <path d="M176.5,82a10.68,10.68,0,0,1-6.76-1.23"/>
    <path d="M178.33,95.44c-3.82,2.72-9.36.37-10.08-1.72"/>
  </g>
  <g class="cheekLine">
    <path d="M168.07,76.37c-1,1.56-3.81,3.17-3.89,7"/>
    <path d="M181.24,74.05c2,1.34,1.68,3.19,5.51,6.76,2.67,2.5,3.88,5.78,3.08,7.08"/>
  </g>
  <g class="noseLine">
    <path d="M181.24,74.05a2.72,2.72,0,0,1-1.05,4.55"/>
    <path d="M174,64.49c-5.09,6.38-11.71,15.05,1.73,13.48"/>
    <path d="M173.51,77a7,7,0,0,1,5.3.23"/>
  </g>
  <g class="eyeFoldLine">
    <path d="M164,60.28c1.81,1.65,5.15,1.78,7.59,1.12"/>
    <path d="M186.12,63.55c2,2.28,5.45,2.82,8.35,1.93"/>
  </g>
  <g class="eyeCornerLine">
    <path d="M196.83,62.89a11.66,11.66,0,0,0,2,1.41"/>
    <path d="M163.68,58.13a3.73,3.73,0,0,0,1.15-.69"/>
  </g>
  <g class="eyeCreaseLine">
    <path d="M185.87,59.14c8.19-3.58,11.08,3.6,14.61,4.65"/>
    <path d="M163.84,56.21c4-3.19,7.79-1.39,9.51,1.31"/>
  </g>
  <g class="eyebrowDarkBrown">
    <path d="M184.07,52.67c.82,3.6,4.79,2.86,8.69,2.88,8.28.05,9.76,5.23,10.31,2.5C193.84,47.73,188.13,54,184.07,52.67Z"/>
    <path d="M175.13,51.4c-3.38-.52-6-4.24-10.2-3.91-.6,1.5-.07,1.87-.32,3.13C168.61,50.29,173.15,54.86,175.13,51.4Z"/>
  </g>
</svg>
