<svg viewBox="0 0 285.06 124.05">
  <g class="eye">
    <circle class="sclera" cx="36.7" cy="46.74" r="18.87"/>
    <g class="irisDarkBrown">
      <ellipse cx="41.47" cy="40.12" rx="2.99" ry="3.09" transform="translate(-16.23 39.39) rotate(-43.33)"/>
      <ellipse cx="25.69" cy="54.38" rx="2.99" ry="3.09" transform="translate(-30.32 32.46) rotate(-43.33)"/>
    </g>
    <g class="pupil">
      <ellipse cx="41.21" cy="40.16" rx="1.16" ry="1.2" transform="translate(-16.32 39.23) rotate(-43.33)"/>
      <ellipse cx="25.43" cy="54.42" rx="1.16" ry="1.2" transform="translate(-30.41 32.29) rotate(-43.33)"/>
    </g>
  </g>
  <g class="skinEastAsian">
    <path d="M70.84,42.84c2.09,7.69,14.31,15.94,22.51,18.71l-35.44,22Z"/>
    <path d="M22.17,60.66c-2.9-5-5.41-3-11.07-15.36C-.06,7.08,53.71,3,70.22,22.78c7.43,4,4.86,10,5.59,13.3.46,2-.72,5.69-4,5.41,4.17,8.92.66,18.24-4.35,26.11-3.4,5.34-3.93,7.33-8,10.17-4.39,3.1-6,1.57-11.6,2C35.28,80.71,22.85,61.83,22.17,60.66ZM41,43.35c.92-.87,2.14-1.48,3-2.32a47.56,47.56,0,0,0,3.71-4.16c-2.15.35-4.54.23-6.23,2S40,42,40,43.32C40.06,44.29,40.63,43.66,41,43.35Zm-9.85,7.59a5.71,5.71,0,0,0-4.9,1.45c-2.19,2.13-1.89,4.32-2,5.61a16.37,16.37,0,0,0,3.74-2.37c1.58-1.44,1.8-2.63,2.78-3.64C31,51.67,32.18,51,31.11,50.94Z"/>
  </g>
  <path class="lipMaleMedium__noStroke" d="M43.31,66.16c-.53-3.57,1.37-3.59,2.58-4.81s2.49-3.33,5.42-2.58c1.24.17,2,1.37,5,2.55-.19,1.94-2.39,6.25-4.81,7.36C48,72.29,47.52,70,45.81,70.29,45.16,68.3,43.77,67.49,43.31,66.16Z"/>
  <path class="mouthInner" d="M55.88,61.32c-.05-.49-1.94.08-4.69-.31-2.2-.32-1.79,1.79-4.65,3.29-1.64.85-.61,3.07-.47,5C49,62.71,56,62.88,55.88,61.32Z"/>
  <path class="teeth" d="M53.85,61.15A16.28,16.28,0,0,1,51.19,61c-2.2-.32-1.79,1.79-4.65,3.29-1.23.63-1,2-.69,3.48A30.31,30.31,0,0,1,53.85,61.15Z"/>
  <path class="lipOverlapLine" d="M45.68,70.55a2.74,2.74,0,0,0,.39-1.28"/>
  <g class="lipEdgeLine">
    <path d="M43.31,66.16c-.53-3.57,1.37-3.59,2.58-4.81s2.49-3.33,5.42-2.58"/>
    <path d="M54.38,65.53c-.49,1.34-1.84,2.28-2.91,3.15s-2,2.12-3.46,2.13"/>
  </g>
  <g class="noseLine">
    <path d="M35.9,53.41c1.25,2.74-.1,8.1,4,8.19"/>
    <path d="M45.85,50.8c1.12-.38,2.93,1.22,2.57,3"/>
    <path d="M46.06,54.5c-2.47-.35-1.29,1.57-2.05,3.17"/>
    <path d="M38.65,60.2c.56-1,1.48.32,3.14-.41"/>
  </g>
  <g class="eyeFoldLine">
    <path d="M27.36,58.72c1.49-.17,3.92-2.26,4.4-4.08"/>
    <path d="M43.7,44a7.73,7.73,0,0,0,4.65-4.36"/>
  </g>
  <g class="eyeCornerLine">
    <path d="M24.19,58c-.09.7-.06,1.1-.35,1.37"/>
    <path d="M49.92,36a4.9,4.9,0,0,1-2.26.87"/>
  </g>
  <path class="eyeCreaseLine" d="M29.47,49.52c-5.76-.06-7.06,6.1-6.93,7.29"/>
  <g class="eyebrowBlack">
    <path d="M47.37,30.43c-7.64-1.38-8.5,2.7-14.56,6.79C37.9,37.63,40.51,31.08,47.37,30.43Z"/>
    <path d="M17.64,55.68l.7.66c.91-5.2,6.94-6.94,6.79-12C22.89,48,17,50.63,17.64,55.68Z"/>
  </g>
  <path class="hairBlack" d="M38.53,25.21a7,7,0,0,1,4.8,1.84c-8.81.21-9.19,7.65-19.66,9.13a7,7,0,0,1,4.21,2.18c-4.35-.32-9.49,5.07-17.28-4.13,4.1,6.94,6.33,13.67,2,21.2-.8-5.34-8.91-7.67-7.69-19-.93,1-3.25,3.2-4.51,3,3.41-5.25,1.71-8.68,7-19.38A5.12,5.12,0,0,0,2.55,22.6c0-1.93,2.54-5,5.7-5.11-1.11-3-.91-7.32,2-10.11a9.15,9.15,0,0,0,.22,8C13.66,11.6,21.87,1.3,38.31.3S68,13.5,70.22,22.78c-2.94-1.36-7.61.17-6.47,4.92a11.76,11.76,0,0,1-4.14,1.35c-2.25-3.16-1.79-3.84-8.24-6.14C48.87,23.38,43.23,25.31,38.53,25.21Z"/>
  <path class="hairOverlapLine" d="M51.37,22.91a16.59,16.59,0,0,1,6-.88,9.65,9.65,0,0,0-5-1.84"/>
  <g class="blanket">
    <path class="bennettBlanket" d="M75.05,65.54c6.22-9.46,6.06-19.45,15.4-23.88,7.2-3.52,19.06-2.28,25.76,2.2a9.58,9.58,0,0,1,8,4.24c21.23-9.81,20-14.8,37.79-7,9.34-4.57,19,.73,25.58,10.34,12.47,1,20.74,21.91,29.66,26.94,9.85-1.05,16,3.46,22.7,4.4,7.89,1.11,10,7.27,13.73,11.86,7.86-.07,15,2.88,16.43,12.88,7.32,1.51,8.93,6.79,8.81,13.22a14.5,14.5,0,0,0,4.92.85c-7.51,2.64-17.64-3.8-26.94-1.36-4.07,1.07-10.46,2.52-28.3,2.54-33.25,0-20.78-9.5-46.79-.81-4.69,1.56-38.71,2.61-41.22.95-15.85-10.46-22.87,3.81-32.25-2-3.14-1.45-5.89-2.57-5.88-1.48C84.7,124,84.2,108.67,71.64,114.94c-7.7,9.07-14.37-2.23-24.71,4.43,5.6-16,7.47-31.69,10-40.79C58.65,72.31,68.48,70.59,75.05,65.54Z"/>
    <g class="bennettBlanketInner">
      <path d="M274.66,121.77c-5.76-1-9.94-4.66-17.81-1.49C260.82,119.44,267.25,122.16,274.66,121.77Z"/>
      <path d="M181.76,122c16.89-7.42,19.57-2.25,28.2-.71C200.89,120.37,190.07,122.33,181.76,122Z"/>
      <path d="M115.31,122.21h0c9.31-1.32,17-.34,25.23.75C128.8,115.21,121.91,121,115.31,122.21Z"/>
      <path d="M108.29,121c-2.6-1.1-4-.83-5.88-1.48-7.71-2.9-10.34-8.5-9.72-8.75C94.67,110,102.63,118.06,108.29,121Z"/>
      <path d="M67.17,118.26c11.07-4.28-2-24.35,1.73-25.36,4.51-1.24,12.28,23.49,22.61,26.81C85.79,122.18,75.56,117.75,67.17,118.26Z"/>
    </g>
    <g class="blanketFoldLine">
      <path d="M93.6,47.56c.14,6.91-6.93,12.35-18.55,18"/>
      <path d="M116.21,43.86a11.09,11.09,0,0,1,2.39,7.62"/>
      <path d="M124.17,48.1c.61,1.57.94,2.79,2.57,3.53"/>
      <path d="M162,41.15a12.9,12.9,0,0,1-9.62.39"/>
      <path d="M88.48,64.58c-17.63,10.7-23.8,21.69-28.32,32.54"/>
      <path d="M99.76,61.57c-19.88,23.79-26,19.24-25.44,28.58"/>
      <path d="M68.9,92.9c3.41-1.23,5.25-2.47,8.73-5.27,5.42-4.37,3.17,5,5.73,9.79"/>
      <path d="M142.7,50.27c-11.29,8-21.54,37.58-50,60.47"/>
      <path d="M187.54,51.49c-10-1.52-24.65.29-18.48-6"/>
      <path d="M160.63,54c.3,14.46-9.29,18.53-10.55,28.77-1,7.78,4.78,17.32-.45,22.59"/>
      <path d="M217.2,78.43c-15.3,1.06-21.08,6.13-30.67,5.13-5.7-.6-10.39-1-13.4,1.36"/>
      <path d="M174,55.54c11.9.76-1.8,8.89-5.57,15.82"/>
      <path d="M185.48,60.67c-8,8.28,1.51,7.83,9.79,10.09"/>
      <path d="M253.63,94.69a21.81,21.81,0,0,1-11.21-3.15"/>
      <path d="M243.92,99.53C237.48,104,231,108.46,223,107.66"/>
      <path d="M217.41,103.89c-7.23,6.93,17.69,16.24,37.51,11.15,12.24-3.15,16.27,3.47,24,5.75"/>
      <path d="M234.4,105.4c-8.55-.6-17-9.44-27.38-4.07-9.94,5.13-17.86,10-27.87,13.26"/>
      <path d="M261.33,101.76c-7.18.5-3.55,7.54-4.36,12.83"/>
      <path d="M270.06,107.57c.3,3.29-1.55,3.43-2,5.21"/>
      <path d="M271.15,110.29c1.58,2.21,1.15,4.17-2.07,5.8"/>
      <path d="M175.42,89.45c4.55-1.35,9.82,13.94,19,18.56"/>
      <path d="M146.19,105.38c1.07,8.61,22.48.57,37.24,7.68"/>
      <path d="M127.49,97.92c2,8.52,3.91,18.42,22.61,21.26"/>
      <path d="M151.77,97.42c-8.78,4.12-13.35,9.07-12.49,18.6"/>
    </g>
  </g>
  <path class="skinEastAsian" d="M64.7,108.16c4-2.26,10.37-4.13,12.54-4.9,0,0-4.54-8.22-6.53-9.74-.9.44-6.09,2.92-8.52,3.42-4.31,1-15.45-1.85-19.19-.48-11.5,4.29-12.74,7.28-12.6,11.23.09,2.55,1.55,8.39,5,6,1.19,1.92,1.46,3.1,3.65,2.56a2.58,2.58,0,0,0,2.93,0c1.18,2.83,2.92,4,4.93,3.1,1.45-.66,5-2.6,4-4.23C62.42,117,62.08,109.42,64.7,108.16Z"/>
  <g class="skinOverlapLine">
    <path d="M40.72,101.29c-3.38,2.38-6.85,4.57-7.4,6.21s.37,3.38,2.1,6.21"/>
    <path d="M43.46,104.76c-3.38,2.74-5.85,4.66-5.82,6.38,0,1.38.52,2.3,1.43,5.13"/>
    <path d="M46.65,108.23c-3,3.75-5.75,4.84-4.65,8"/>
    <path d="M49.58,113.71a1.69,1.69,0,0,0,1.31,1.43"/>
  </g>
  <g class="skinFoldLine">
    <path d="M47,115.8c.92.52,2.34-.18,3.08-1.15"/>
    <path d="M66.54,29.41C64.23,22,74.75,23,74.11,34.28"/>
    <path d="M67.75,31.2c2.63-.69,1.18,5.6,3,5.31,1.24-.19-.45-1.36.51-4,1.21-3.29-1.26-5.32-2.66-3.4"/>
  </g>
</svg>
