<svg viewBox="0 0 136.05 372.67">
  <g class="soleWhite">
    <path d="M98.1,342.93c3.47,1.7,4.32,6.64,3.55,9.34-2.39,3.94-20.22,4.16-23.92-.45-4.52-5.63-5.7-9.4-9.15-12.76-7.22-7-9.74-12.38-4.71-16.83Z"/>
    <path d="M75.58,357.79c4.36,1.82,6.92,6.7,5.34,10-.87,3.48-19.86,7.68-29.68,1.5-3-1.9-7.14-3.13-8.43-5.19a8.23,8.23,0,0,1-.19-5.16"/>
  </g>
  <g class="bennettShoe">
    <path d="M92,315a23,23,0,0,0-.39,13.92c1.6,6.2,3.22,11.29,6.45,14.06-4.58-2.07-16-.32-18,5.42-2.07-1.74-6.12-9.16-10.7-13.67-4.13-4.06-5.74-8.84-5.55-12.45,2.39-6.31,9.22-7.22,11.8-12C87.4,301.22,98.15,304.54,92,315Z"/>
    <path d="M46.64,334.1c.58,16.62-3.9,16.65-4,24.81,2.16,4,8.63,5.43,12.37,7.16,1.53-6.47,12.71-11,20.59-8.28-7.32-4.87-13.72-18.43-12.9-27.4C56.55,326.74,51.05,327,46.64,334.1Z"/>
  </g>
  <g class="shoelace">
    <path d="M92.12,335.52c-2-.34-7-.45-9.15.38-2.49-4.45-3.76-9-3.18-13.62a28.77,28.77,0,0,1,9.74.51A43.33,43.33,0,0,0,92.12,335.52Z"/>
    <path d="M70.46,352.84a40.3,40.3,0,0,1-6.14-11.57c-3.13-.17-8.3.33-10.85,1.49.69,3.45,2.88,7.79,5.6,11.82A39.35,39.35,0,0,1,70.46,352.84Z"/>
  </g>
  <path class="converseLogo" d="M69.28,328.18c2.64,3.5,7.43-4.7,4.79-8.3C71.72,316.69,66.64,324.68,69.28,328.18Z"/>
  <path class="bennettJeans" d="M94.15,187.37c2.73,9.5,6.13,9,4.75,12.35,1.79.84,1.79,2.38.84,3.45,16.51,40.52,12.93,47.19,15.44,51.69,2.13,3.81-.88,6.05,0,9,1.37,4.59-1.9,4.88-2,8.2-2.73,8.08-8.75,21.39-13.07,30-.74,1.47,3.92,5.82-4.28,7.84.79,3.28-2,3.81-3.77,5.07,1.51-3.85-7.33-4.84-10.39-1.06-2-1.46-5.11.69-9.23-.14,1.09-2.06-.56-5.1,3.16-5.3-4.34-5.17,1.27-7.32,3.45-13,3.43-9.05,4.62-19.58,8.82-27.61-1.86-.73-2.14-3.83-.59-5.22-4.65-1.72-.71-4.43-2.26-6.78-2.8-4.24-12.24-24-12.24-24-1,14.1-.84,27.34-1.78,32.32-.31,1.64,2.6,5.78-3.21,9.15,5.46,2.69,1.17,4.68,1,7.49A325.37,325.37,0,0,1,64.8,314c-.65,3.51,3,8.8.12,12.24,3.49,5.2,0,6.3-2,9.62-.4-7.25-9.57-5.87-10.49,0-1.67-.66-3.7,1.37-5.77.72-1.38-3.7-7.45-5.08-3.52-10.58-4.06-3.47.8-8.23,0-19.72-.7-10.07-1.46-19.2-.24-25.55.41-2.12-3.69-5.49.48-9.51-4.3-1.49-.75-4.27-1.55-7.08-2.31-8.17-5.72-24.47-7.72-33.08-.39-1.69-3.31-3-1.31-5.35-3.72-1.76-.16-3.48-1.19-6.66-2.39-7.44-.88-14.55-1.9-18.42-2.29-3,1.09-4.4,1.9-11.4Z"/>
  <path class="shirtWhite" d="M82.28,110.77c3.13,5.59,3.77,11,4.34,15.73.33,2.85,2.65,1.93,1.39,6.77a153.39,153.39,0,0,1,3.79,23.64c.37,5.67,3.62,6.51,1.69,11.39-.24,5.5,3.78,6.62.53,10.27,4.06,6.21-1.13,3.19,1.28,9.59-5.43,1.33-6.82,5.54-16.89,7.16-18.82,3-30.89-7.16-47.78-4.31a8,8,0,0,0,.84-4.9c-2.75-2.06-.36-4.35-.48-6.52-2.52-2.11-.61-4.22.24-6.39-2.52-2-.2-5.21-.48-7.48s-2.18-3.14-.37-6.52c-3.37-5.43-3.54-13.61-9.94-27.55C42.93,85,78.41,85.11,82.28,110.77Z"/>
  <path class="bennettSleeves" d="M38.85,119.5a47.64,47.64,0,0,0,5.7-17.81c6.87.23,15.72-2.33,18.4-7.45,3,2.44,5.7.7,7.33,4.19,3.38.58,3,3.26,9.12,7a23.15,23.15,0,0,1,2.88,5.35c-.24-12.34-.35-22.24-10.48-24a78.38,78.38,0,0,0-17.12,0L33.37,90.55c-7.22,7.33-22.47,8.11-19.68,23.72.94,4.69,3.64,8.34,4.89,12.34,2.45,7.8,4,8.26,5.71,12.22,1.87,4.25,4.77,7.11,6.64,10.83a36.79,36.79,0,0,0,8.15,11.18c4.54,3.93,10.36,5,16.77,5.24,4.77-8.62,2.91-13.62,6.4-19.56-4.77.35-4.77-1.05-7.22-1.05A3.8,3.8,0,0,0,52.59,144c.81-.82-.17-1.58-2-2.33-2.57-3.49-5.27-10.81-9.09-14.79C42.8,123.81,38.85,123.58,38.85,119.5Z"/>
  <g class="clothesDisplayLine">
    <path d="M80.12,348.35c5.35,2.79,19,2.2,21.51-.52"/>
    <path d="M55,366.07c9.17,2.81,20.89,1,25.89-2.76"/>
    <path d="M74.07,195.88c-.29,2.83,2.29,4.73,1.89,7.8-.66,5.08,4,2.45-3,15.63,14-5.37,9.1-11,10.36-14.59,1.47-4.18-2.57-7.34-1-10.25"/>
    <path d="M60.51,194.74c-3.66,3.15-8.13,5.51-15.34,5.64"/>
    <path d="M88.67,191.58a11.42,11.42,0,0,0,8.29,4"/>
  </g>
  <g class="clothesOverlapLine">
    <path d="M81.65,313.89c.48,1.8-1.53,5-1.86,8.39"/>
    <path d="M92,315c-2.23,1.72-2.77,4.82-2.51,7.84"/>
    <path d="M89.74,325.47a37.05,37.05,0,0,0-10.08-.31"/>
    <path d="M90.16,328.28A48.66,48.66,0,0,0,80,328"/>
    <path d="M90.68,330.73a43.43,43.43,0,0,0-10,0"/>
    <path d="M91.32,333.09a27.15,27.15,0,0,0-9.59.36"/>
    <path d="M54.21,345.37c3.9-1.06,8.36-1.78,11.1-1.48"/>
    <path d="M55.22,347.83a35.88,35.88,0,0,1,11.16-1.59"/>
    <path d="M56.36,350.12c3.23-1,7.83-2,11.13-1.76"/>
    <path d="M57.64,352.35a31.19,31.19,0,0,1,11.21-1.77"/>
    <path d="M52.46,335.9c.74.85.29,4.69,1,6.86"/>
    <path d="M73,219.31a103.32,103.32,0,0,1-.19,12.5"/>
  </g>
  <g class="clothesFoldLine">
    <path d="M72.16,95.69a40.27,40.27,0,0,1-10.85,12"/>
    <path d="M75.36,98.89a52.17,52.17,0,0,1-5.06,8.38"/>
    <path d="M36.19,102.41a20,20,0,0,1,3.2,7.23"/>
    <path d="M25.34,100.34a18.78,18.78,0,0,1,11.78,11.27"/>
    <path d="M27.3,104.06c5.17,3.1,10.75,9,11.55,15.44a20,20,0,0,0-11.65-9.34"/>
    <path d="M22.44,108.51a32.83,32.83,0,0,0,11.47,6.92"/>
    <path d="M18.82,115c6.83,5.37,16.13,2.17,22.1,8.84"/>
    <path d="M28.85,120.91c4.93,1,9.36,2.66,12.67,5.93"/>
    <path d="M49.63,126.6c6.26-.57,12-1.62,16.53-3.83"/>
    <path d="M52,129.8c6.26-.81,13.85-3.72,21.19-6.2"/>
    <path d="M22,129.8c4.86,4.86,12.4,3.31,18.09,4.75"/>
    <path d="M28.44,135.38c5.16,1.86,11.06-.31,15.4,1.66"/>
    <path d="M88,133.27A20.08,20.08,0,0,1,79.7,141"/>
    <path d="M84.35,134.76a31.39,31.39,0,0,1-9.3,5.79"/>
    <path d="M39.08,144.89c1.76-2.48,6.51-3.72,11.53-3.26"/>
    <path d="M38.77,154.19C36.6,150.68,45.08,143,52.59,144c-3.87,1.13-6.83,3.84-8.86,8.17"/>
    <path d="M55,145.47c-3.22,1.7-6.19,4.6-8.71,9.55"/>
    <path d="M57.27,147.37a12.25,12.25,0,0,0-3.1,5.69"/>
    <path d="M30.38,159.2c.54-1.08,2-1.81,2.5-4"/>
    <path d="M35.65,157.21A14.44,14.44,0,0,0,33,163"/>
    <path d="M55.41,167.53a55.62,55.62,0,0,0,13.54-1"/>
    <path d="M57.07,170.32a36.4,36.4,0,0,0,21.29-5"/>
    <path d="M38.26,171.76a59.4,59.4,0,0,0,21.49,8.48"/>
    <path d="M31.23,173.2c3.51,3.32,11.42,2.84,11.37,5,0,1.29-2.77,1.17-7.65-.51"/>
    <path d="M31,179.59A60.53,60.53,0,0,0,52.93,184"/>
    <path d="M31.47,186.11a15.61,15.61,0,0,0,7.41,1.37"/>
    <path d="M89.63,168.77c-3,3.72-7.76,8.37-12.82,10.54"/>
    <path d="M93.49,168.3c-2.42,4.7-8.93,9.15-1.28,8"/>
    <path d="M94,178.57c-6.31,3.74-14.86,6.24-25.17,7.77"/>
    <path d="M94.9,184c-4.24,5-21.09,9.82-32.3,7.62"/>
    <path d="M98.9,199.72c-4.11,0-7.94.34-9.85,1.14"/>
    <path d="M71.07,217.33c-4.15-5.46-11.21-7-13.66-5.08-1.5,1.15,1.34,2.21,5,2.63"/>
    <path d="M75.21,219.69c7.53-3,17-9.14,17.14-5.28"/>
    <path d="M85.75,221.66A14.69,14.69,0,0,0,76,222.89"/>
    <path d="M69.84,224.3c-2.13-.88-5.06-.62-8.75.75"/>
    <path d="M68.43,220.72c-5.23-3.11-10.41-4.62-15.54-4.23"/>
    <path d="M96.39,249A11.32,11.32,0,0,1,90,253.3"/>
    <path d="M86.7,258.29c8.38-.75,9.22-4.14,4-2.64"/>
    <path d="M68.05,268.27c-5.31,3.26-11.42,3.63-18.54.38"/>
    <path d="M65.13,279.85a28.84,28.84,0,0,0-15.62.47"/>
    <path d="M101.57,271.85c-2.85-.48-6.68,1.49-11.39,5.65"/>
    <path d="M87.26,262.59c6,.5,14.77-2.85,13.84-.35-.75,2-6.78.38-11.86,1.23"/>
    <path d="M87.85,267.81c3-.2,7.89,2.91,2.33,3.85"/>
    <path d="M43.41,271.26c5.72,2.94,12.26,1.24,13,3.13.38,1-2.5,1.76-7.72,2"/>
    <path d="M67.77,273.28c-2,.92-5.11.71-1.51,3"/>
    <path d="M62.31,322.31c-3.58,3.3-14.31,2.64-16.67-2.16"/>
    <path d="M64.92,326.28c-.72.86-2.67,1.74-5.43,2.63"/>
    <path d="M43.17,326c3.42,2.68,8.64,1.33,9.16,3.24.31,1.12-1.75,1.74-6.12,1.6"/>
    <path d="M75.58,308.45c1.74,1.68,4.65,1.82,7.82,1.62"/>
    <path d="M95.81,309.88a11.84,11.84,0,0,1-5.72-.37"/>
    <path d="M105.34,284.94c-3.11,5.55-3.59,13-8.48,13.08-8.67.2-5.06,3.34.76,7.06"/>
    <path d="M94.51,295.29c-4.07.91-7.9,2.33-5.37,6.12,3.24,4.85-2.54,6-8.66,2.64"/>
  </g>
  <g class="eye">
    <circle class="sclera" cx="52.83" cy="48.77" r="16.31"/>
    <g class="irisDarkBrown">
      <ellipse cx="49.43" cy="50.5" rx="2.43" ry="3.14" transform="translate(-7.66 8.86) rotate(-9.51)"/>
      <ellipse cx="66.72" cy="47.61" rx="2.05" ry="3.14" transform="translate(-6.95 11.67) rotate(-9.51)"/>
    </g>
    <g class="pupil">
      <ellipse cx="49.88" cy="50.42" rx="0.95" ry="1.22" transform="matrix(0.99, -0.17, 0.17, 0.99, -7.64, 8.93)"/>
      <ellipse cx="67.25" cy="47.52" rx="0.8" ry="1.22" transform="translate(-6.92 11.76) rotate(-9.51)"/>
    </g>
  </g>
  <g class="skinEastAsian">
    <path d="M55.94,85.72c10.48,7.2-8.24,16.7-24.09,6.19.36-5.1-1.09-12.49-6.64-19.81"/>
    <path d="M93.94,159.25c-14.22,1.52-29.22,6.89-37.69,6.09,4.12-7.89,2.72-12.71,5.67-18.23,9.39.33,19.45,2.54,32.15-.93a20.9,20.9,0,0,1,9.15-10.11c4.19-2.33,5.72-5.07,10.23-7.33,2.26-.32,2.75,4.92-1.93,7.41-2,1.45-2.5,2.83-3.55,3.71,5.4,1,12.17-1.38,20.8-1.13,5.16.08,4.79,3.64,2.5,4.19-6,1.53-10.64,1-15.24,2.58,3,.88,9.76.49,16.05.57,4.17-.13,5,4,1.69,4.43-4.9.85-11.37.73-17.33,1.61,3.34,1.2,9.43,1,14.51,1.54,4.21,0,4.29,4,1.44,4.28-4.83,1.2-13.62.15-16.6.48a28.87,28.87,0,0,0,6.13,1.45c6.21.73,6.12,4.59,2.82,4.75-3.55.4-8.25-1.54-15-2.1C97.25,161.46,99.19,159.53,93.94,159.25Z"/>
    <path d="M70,76.67c-2.11,3.44-1.62,6.35-6.5,8-7,2.36-7.53,1.29-14.52.6-9.38-.92-20.39-4.38-24.59-13.93-2.15,3.44-5.07,3.76-9.07-1.3C-19.41,46.47,29.87-1.92,65.13,24.2c.83,12.29,4.59,10.33,4.12,19.86C68.94,47.79,77.44,64.64,70,76.67ZM52.14,49.43c-1.54-2.36-2.89-2.48-4.47-2.21-2.46.41-5.44,2.88-6.55,4.4,1.6.3,3.34,1.13,6.07.46,2.51-.61,3.18-1.41,4.44-1.81C52,50.16,52.81,50.45,52.14,49.43ZM62,48.28c.83-.26,4.41,1.85,6.24-.77a4.17,4.17,0,0,0-.5-2.89A4.14,4.14,0,0,0,65,44.2a7.34,7.34,0,0,0-3.74,3.51C61,48.12,61.4,48.45,62,48.28Z"/>
  </g>
  <g class="skinFoldLine">
    <path d="M105.11,140.07a5.71,5.71,0,0,1,2.86-.21"/>
    <path d="M19.19,60C15.4,52,6.24,60.5,16.07,68.2"/>
    <path d="M18.9,61.58c-1.83,2.36,3.49,4.48,2.17,5.75-.91.87-1.36-1.12-3.87-1.75-3.54-.9-2.32-6.15-.61-5.08"/>
  </g>
  <path class="lipMaleMedium__noStroke" d="M65.42,67c-3.18,2-3.54-.11-5.06.93-2.23,1.54-1.42,4-5,6.1.53-.64,3.95,2.43,7.77,1.2,5.6-3.1,4.4-4.11,1.91-4.2C65.79,69.49,67.65,68.74,65.42,67Z"/>
  <path class="teeth" d="M58,72.66c2.49-1.41,2.39-2.47,3.13-2.67.94-.25,1.34.42,2.64-.13a4.26,4.26,0,0,1,.21,1.26A28.64,28.64,0,0,0,58,72.66Z"/>
  <g class="lipOverlapLine">
    <path d="M54.87,74.42A8.4,8.4,0,0,1,58,72.66"/>
    <path d="M63.93,71.12a5.76,5.76,0,0,1,3.07.32"/>
    <path d="M63.72,69.86a6.08,6.08,0,0,0,1.68-1"/>
  </g>
  <g class="lipEdgeLine">
    <path d="M60.36,67.91c1.52-1,1.88,1.1,5.06-.93"/>
    <path d="M59.27,75.22a6,6,0,0,0,6-1.43"/>
  </g>
  <g class="noseLine">
    <path d="M56,64.39a2.47,2.47,0,0,1-1-3.77"/>
    <path d="M65.18,61.36a3.83,3.83,0,0,1-3.48,2.49c-2,.08-3.3-1.3-4.46-.59"/>
    <path d="M62.22,54.09c.86,3.08,6.28,5,3.46,8.73"/>
  </g>
  <g class="eyeFoldLine">
    <path d="M68.08,49.92a3.34,3.34,0,0,1-4.12.84"/>
    <path d="M50.32,52.89A6.89,6.89,0,0,1,43.94,54"/>
  </g>
  <g class="eyeCornerLine">
    <path d="M39.84,52.4a2.12,2.12,0,0,0,1.28-.78"/>
    <path d="M67.72,44.62a2.31,2.31,0,0,0,1,.16"/>
    <path d="M68.22,47.51a2.52,2.52,0,0,1,.63-.51"/>
  </g>
  <path class="eyeCreaseLine" d="M41.11,49.1c2.71-1.63,6-4.65,10.27-2.21"/>
  <g class="eyebrowBlack">
    <path d="M37.43,46.24c3.27-6.06,7.64-3.82,14.44-6.19C49.46,44.46,41.92,42.22,37.43,46.24Z"/>
    <path d="M68.94,38.78c-3.07-.78-5.47.36-8.63.11,2.42,2.52,5.19.9,8.85,1.2C69.1,39.62,69,39.18,68.94,38.78Z"/>
  </g>
  <path class="hairBlack" d="M10.06,63.06C8.31,55.38,16.33,51,19.51,56.84c1.33.23,4.08-.7,5.87-1.61-.91-5-2.09-5.39,1.11-11.16A21.86,21.86,0,0,0,36,35.57a10.32,10.32,0,0,1,.24,5.1c1.56-1.52,5.14-3.6,2.83-16.1C44.63,40.27,55.54,35.43,59,37.36a14.22,14.22,0,0,0-3.25-4.12c5.09,3.48,11.72-.59,15.2,2.85,1-5.2.26-13-4.2-16.1A17.74,17.74,0,0,0,72,20c-10.29-3.89-9.59-13.42-29-15.58-14-1.55-27,4.68-30.7,8.19-1.18-3.07.84-9.76,4.06-11.84-7,2.16-7.43,10.29-7.13,14.31C7.1,13.34,1,13.88.59,19c1.92-3.83,5.85-2.11,6.16-1C-5.33,30.34.51,66.23,15.36,70,12.68,67.67,10.7,65.86,10.06,63.06Z"/>
  <path class="hairOverlapLine" d="M26.49,44.07A38.71,38.71,0,0,1,20,46.63a24.47,24.47,0,0,0,3.87-4.56"/>
</svg>
