<svg viewBox="0 0 333.87 169.27">
  <g class="pillow">
    <path class="cushion" d="M22.83,127C12.1,129.23,2.1,139.27,5,148.37c1.87,5.89,13.89,12.12,22.42,12.21H81.51c8.53-.09,20.55-6.32,22.42-12.21,2.88-9.1-7.12-19.14-17.86-21.4A152.8,152.8,0,0,0,22.83,127Z"/>
    <path class="welt" d="M54.45,143.56c33-.3,49.7,3,49.84,1.79a15.19,15.19,0,0,0-2.24-7.68c4.28,2.35,7.57,5.89,6.35,10.69a3.74,3.74,0,0,1-4.12,2.52c-14.68-1.16-31.51-2.33-49.83-2.25-18.32-.08-35.14,1.09-49.83,2.25a3.73,3.73,0,0,1-4.11-2.52c-1.22-4.8,2.07-8.34,6.34-10.69a15.19,15.19,0,0,0-2.24,7.68C4.75,146.58,21.47,143.26,54.45,143.56Z"/>
  </g>
  <path class="bennettUndershirt" d="M62.51,84.84,84.16,71.73c1.94-2,3.57-2.38,5.87-1.39,1.32.58,0-6.32,8.92-2.16,1.7.72.35-5,6.76-3.25,2.11-.52,5.94-3.74,9.26-5.32,1.85,4.59,6.65,15.1,5.93,21.32-.07,1.27-3.65.9-3.92,3.39,1.33,1.57,4.36,1.91,4.79,4.09a48.94,48.94,0,0,0,12.74,11.66c3.63.25,4.16,5,9.89,8.42l-32.28,48.43c-15.23-2.27-23.93-12.33-33.19-20.73-5.24-4.75-8.12-5.13-16.18-12.68-.33,1-.34,1.93-.72,2.1-.46,1.81-21.55-2.91-21.1-4.73,1.56-8.31,3.28-15.7,5.51-20.09-.65-3.46.37-3.67,3.94-6.79C54.18,90.69,55.34,86.9,62.51,84.84Z"/>
  <g class="clothesOverlapLine">
    <path d="M71,107.49c-5.23,5.73-7.16,6.52-8.26,16"/>
    <path d="M104.32,76A35.2,35.2,0,0,1,117,84.32"/>
  </g>
  <g class="clothesFoldLine">
    <path d="M46.44,100.79A16.55,16.55,0,0,1,50.51,97"/>
    <path d="M55.08,108.78c-3.18,4-6.62,7.17-10.63,8.66"/>
    <path d="M45.68,120.29a30.31,30.31,0,0,0,6.31-4.7"/>
    <path d="M74.64,100.76a40.56,40.56,0,0,0-9.1,8.57"/>
    <path d="M69.1,118a23.21,23.21,0,0,0,13.35-.91"/>
    <path d="M73.73,121A31,31,0,0,0,88,119"/>
    <path d="M98.46,82.1c-1.78,8.47-5.06,16-11.38,21.47"/>
    <path d="M103.32,79.67C102.2,86,100.76,92,97.63,95.91"/>
    <path d="M109.38,116.08a101.8,101.8,0,0,1-20.93,15.78"/>
    <path d="M134.51,100.07c-6,1.51-12.28,4.92-18.91,10.7"/>
    <path d="M132.07,105.69a81.22,81.22,0,0,0-30.65,22.61"/>
    <path d="M130.78,118.74A77.94,77.94,0,0,0,111.89,131"/>
    <path d="M127,123.82c-7.51,6.07-16.81,11.32-19.57,19.8"/>
    <path d="M120,91.66a68.67,68.67,0,0,0-10.46,10.69"/>
    <path d="M115,88.17c-1.67,8.34-10.24,14.64-18.66,21.31"/>
    <path d="M90,70.34c4.13,3.22,7.47,5.59,5.68,1.37"/>
    <path d="M99,68.18c2.39,1.48,4.35,4.32,5.28,4.59s1-1.39-1-4.78"/>
    <path d="M105.71,64.93a3.75,3.75,0,0,1,2.16,1.54"/>
    <path d="M107.39,75.27c.11-5.41,2.39-1.68,2.68,3.51"/>
    <path d="M110.36,69.13A37.87,37.87,0,0,1,113,80.79"/>
    <path d="M116.88,78.14a11.28,11.28,0,0,0-1.06,5"/>
  </g>
  <g class="blanket">
    <path class="taiwanBlanket" d="M322.51,161.91,315.39,157c3.36-5.82-5.1-9.33-15.56-12.45,4.61-12.24-.83-17.81-20-14.23-14.81-13.72-29.12-34-40.91-39.8-10.17-14-22.84-25.08-33.12-20.25-12.5,5.87-17.49,13.44-25,16.5-7,2.86-17.37,3.5-14.52,13a12.77,12.77,0,0,1-3.53,2.59c-9.05-8.06-14.73.46-22,7.4-8.27,5.52-9.26,14.15-13.17,23-5.7,6.3-15.76,9-18.57,32.55,4.7,1.55,11.47.75,18.69-.59,16.91,6.57,25.32-4.46,42.9-.94,9.3,4.56,11.59-.9,20.42,1.57,6.58,4.74,12.58,0,19.34,1,16.29,2.44,20.57-10.46,36.19-3,3.87,2,7.54,2.75,10.06,3.71,9.19-4.86,7.76-18.16,7.11-30.7C288.49,157,309.22,168.2,322.51,161.91Z"/>
    <g class="taiwanBlanketInner">
      <path d="M144.11,166.44c13-3.86-2.05-14.79,10.58-18.46,8.61-2.49,8.21,13.21,15.9,15.87A153.66,153.66,0,0,0,144.11,166.44Z"/>
      <path d="M191,165.42a27.39,27.39,0,0,0-9.61-.07c-3-1.09-4.39-5-1.23-6.71C184.78,156.09,186.84,162.08,191,165.42Z"/>
      <path d="M246.54,163.39c-14.7-7.17-16.49-.81-24.43,2.14C231.44,165.46,239,163.37,246.54,163.39Z"/>
      <path d="M260,154.64c1.09,2.42,1.94,5,1.35,7.93,11.8,3.28,18.16-5.36,28.21-2.12C282.82,155.85,271.64,155,260,154.64Z"/>
    </g>
    <g class="blanketFoldLine">
      <path d="M150.61,104.56c-1.53,5.15-4.83,10-12.79,14.17"/>
      <path d="M162.71,102.39a11.51,11.51,0,0,1,1.94,6.16"/>
      <path d="M166.24,99.8A14.38,14.38,0,0,0,169.19,97"/>
      <path d="M169.87,94.38c2.7.37,4.68,7,3,14.72"/>
      <path d="M168,107.86c-3.85,11.56-16.31,11.68-24.63,19.67-7,6.74-8.19,16.25-12.65,24.35"/>
      <path d="M127.57,132.83a47.3,47.3,0,0,1-6.12,11.07"/>
      <path d="M130,143.9c-5.2,5.7-7.06,11.41.27,17.2"/>
      <path d="M143.6,135.1c-2.94,5-4.4,9.22-1.1,10.59,2.84,1.18,4-2.47,13.2-.27"/>
      <path d="M171.25,127c6.6,3.3-3.26,14.47-4,21.74-.41,4.12,6.6,14.58,14.14,16.63"/>
      <path d="M183.91,149.82c5.09,8.67,13.82,9,9.21,1.65"/>
      <path d="M201.52,76.08c1.65,4.54-14.45,30.27-17.61,34"/>
      <path d="M203,86.26c8.95-12.14,2.61,15.55-4.27,35.22"/>
      <path d="M220.5,89.56c-6.5-30.42-8.81-2-9.22,27.52"/>
      <path d="M238.91,90.54c4.7,7.55,9.65,16.77,17.08,22.68"/>
      <path d="M279.82,130.34A33.82,33.82,0,0,0,286,135"/>
      <path d="M286.67,132.21c4.29.38,6.37,2.44,5.5,6.74"/>
      <path d="M277.48,139.6a38.92,38.92,0,0,1-8.56-8.71"/>
      <path d="M252.28,161.72c-5.74-11.9-17-12.49-15-25"/>
      <path d="M220.5,126.43c18-10.73,18.57-1.79,22.7.55,3.76,2.13,10.73-1.37,15.08,8,1.7-.45,3.53.15,5.43,1.44"/>
      <path d="M227.24,127c3.06,6.38-.59,15.74-8.12,26.83"/>
      <path d="M219.81,123.13c-3.93-.16-6.43,3.13-8.11,8.39"/>
      <path d="M227.68,122.77c-9.93-1.29-14.2-11.75-26.58-.6-7.43,6.69-18.29,11-10.87,28.34"/>
      <path d="M201.1,122.17c-9.33-2.71-10.86-3.86-19.7,2.66"/>
      <path d="M185.34,122.14c-10.55-6.62-15.92-1.15-29.17,12.19"/>
      <path d="M127.69,164.79c-1.57-.66-3.2-1.37-4.4-1.92"/>
      <path d="M315.39,157a9.08,9.08,0,0,1-4.14,2.74"/>
      <path d="M240.71,113.93c-3.84-18.26,4.82-1.47,11.57,14.83"/>
      <path d="M247.45,132.21c-5,3.18-7.94,8-5.78,17"/>
    </g>
  </g>
  <g class="eye">
    <circle class="sclera" cx="70.69" cy="44" r="8.64"/>
    <ellipse class="irisDarkBrown" cx="74.14" cy="42.66" rx="2.15" ry="3.14" transform="translate(-11.33 39.24) rotate(-27.62)"/>
    <ellipse class="pupil" cx="74.57" cy="42.43" rx="0.84" ry="1.22" transform="translate(-11.17 39.41) rotate(-27.62)"/>
  </g>
  <g class="skinEastAsian">
    <path d="M263.71,136.4c14.34,3.72,26.24,6,31,3.57,9.27-4.73,16.43-7,21.53-12.85,2.71-3.1,5.62-4.71,6.12-8.3,3-1.27,5.9,1.13,4.7,4.17,2-.42,3.59.33,3.89,2.43a2.2,2.2,0,0,1,1.27,3.8c2.32,1.51,1.65,4.66-.73,4.87,2.24.74,1.94,3.07.57,4.35s-3.69-.28-5.16,2.78c-2.37,4.9-7.19,5.87-10.92,9.24-8.24,7.43-13.72,22.61-23.87,12.08-6.24-6.47-18.87-7.44-32.06-7.9C254.58,146.81,256.16,140.82,263.71,136.4Z"/>
    <path d="M86,73.19c15,8.41-20.76,24-23.53,11.65-5.26-13.57-19-10.67-34.47-32.5"/>
    <path d="M86.85,164.83c-8.6-1.85-24.43-.4-33.14-1.19-6.52-.59-13.87-1.73-15.75-9.4-1.78-7.24,1.64-19.72,4.14-32.35,3.44,1.66,13.53,4,17.89,4.12-1.6,6.43-2.51,13-3.86,17.94,8.86,3.22,14.41,8,30.53,9,5.8-1.5,12.27-7.51,20.46-5.18a34.75,34.75,0,0,1,7.94,4.38c3.78,2.72,5.53,3.25,5.34,7.12,4.91,1.56,3.51,6.72-2.59,7.33-.51,1.32-2.8,1.48-3.72.76-.51,1.22-4.17,1.56-4.58,0-5.43,4.38-4.51-1.22-8.74.36C94.51,170,89.61,165.28,86.85,164.83Z"/>
    <path d="M56,67.45c-.65,3.56-4,4-6.15,2.78C15.82,69.6,38.45-4.51,74,8.15c5.15,11,11.49,13.71,14.26,22.7.26.83,2.77.69,1.57,3.32,1.79.52,1,1.61,1.53,2.16,4.48,5,8.71,15.31,7.1,23.87-.55,2.92,1.43,7.53-3.27,11s-5,2.25-11.74,3.91a29.34,29.34,0,0,1-18.37-1.62M75.46,41.23c-2.84-.4-6.42,2.51-7.3,4.21,1.34-.46,2-.18,4.07-1.3A36.2,36.2,0,0,0,75.3,42C75.63,41.75,76.86,41.43,75.46,41.23Z"/>
    <path d="M114.48,28.32c5.79,6.31,15.22,7.78,23.17,15.91,3.7,3.8,9.19,11.14,7,13.82-5.31,7.82-14,14.4-23.8,19.93-.54-5.65-3.9-13.51-5.6-17.6a68.57,68.57,0,0,1,7.84-5.74c-3.78-5-6-10.4-13.66-14.86-2.33,2.62-4.1,1.7-6,2.41-3.25,1.23-5.65,1.5-7.4.33s-4.3-1.59-3.7-4.61c-3.43-.29-4.89-1.37-5.47-6.64C86.07,23.36,88,25.12,88,22.88c-.1-5.47,3-2.61,4.4-5.44,1-2.37,3.4-.51,4.87-1.88,3.61-3.71,5.31.45,8.24,1.71C109,18.76,114.78,21.55,114.48,28.32Z"/>
  </g>
  <path class="skinDisplayLine" d="M322.33,118.82c2.75,1.1,3,2.71,1,4.78a6.65,6.65,0,0,1-1.78-1.2"/>
  <g class="skinOverlapLine">
    <path d="M123.13,54.64a17.64,17.64,0,0,0,6.28,5.79"/>
    <path d="M56.13,144a10.25,10.25,0,0,0-3.7-.77"/>
    <path d="M110.57,152.57c3.43,2.32,5.17,3.1,7.31,5.52,1.11,1.27,1,6.44-.07,8.46,2-1.63,2.37-2.14,2.59-7.33"/>
    <path d="M108.24,156c3.23,1.94,5.69,3.56,6.51,5,.52.9.26,4.39-.66,6.35"/>
    <path d="M104.43,160.58c3.61,2.34,7.4,3.49,5.08,6.73"/>
    <path d="M101.66,167.42a15.1,15.1,0,0,0,2.4-1.2"/>
    <path d="M92.41,37.91c.55-2.27,1.31-2.33,1.92-4.62.46-2.87,5.93-1.15,4.64,3.11a5.46,5.46,0,0,1,1.88,2.49"/>
    <path d="M88.72,25.58c.84,7.36,1.35,7.49,5.31,8.58"/>
    <path d="M95.51,19.34c.55,5.37.65,5.31,2.09,6.44a15.94,15.94,0,0,0,6,2.58c1.11,1.64.66,4.15-1.83,3.56-3.66-1.28-6.57-1.18-8.2-2.84s-.81-3.54-1.53-6.59"/>
    <path d="M103.64,28.36c3.82.17,3.93-3.93.61-5-3-1.39-2-2.66-2.72-4.82"/>
    <path d="M101.81,31.92c.89,1.36-.08,3.51-2.64,3.1"/>
    <path d="M327,123c-3.14.6-3.55,3.31-5.49,4.89"/>
    <path d="M330.92,125.42c-3.4-.55-4.89,2.67-8.1,4.61"/>
    <path d="M332.19,129.22c-4-1.54-4.63,2.37-8.46,3.7"/>
    <path d="M331.46,134.09c-2.75-1.17-4.09.81-7,2.47"/>
  </g>
  <g class="skinFoldLine">
    <path d="M103.19,163.83c1.39,1-.83,3.8,3.7,2"/>
    <path d="M114.48,28.32a7.63,7.63,0,0,1-2.15,3.92"/>
    <path d="M111.89,34.56a11.18,11.18,0,0,1-2.42,5.22"/>
    <path d="M97.54,39.53A7.62,7.62,0,0,0,99,36.4"/>
    <path d="M107.44,31.67a8.79,8.79,0,0,1-3.36-.71"/>
    <path d="M48.24,58.37c-9.35-6.91-12.15,6.48-1.43,8.61"/>
    <path d="M49.24,60.16C48.08,62.51,53,62.27,52.1,64.4c-.77,1.9-1.65-.77-3.7-.18-4.65,1.34-4.87-4.61-2.84-4.19"/>
  </g>
  <path class="lipMaleMedium__noStroke" d="M92.17,54.49c-1.25,1.54-2,2-4.53,2.45-2,1.86-1,4-3.73,6.69,2.07-.49,4.89,1.16,8-.91,4.32-2.91,1.46-5.13,2-6.19C92.52,56.17,93.31,54.33,92.17,54.49Z"/>
  <path class="teeth" d="M86.93,60.68c2.43-.34,4.16-1.26,4.59-3.31C90.33,58.75,89.28,56.87,86.93,60.68Z"/>
  <g class="lipOverlapLine">
    <path d="M91.84,56.89a4,4,0,0,0,2.24-.48"/>
    <path d="M83.82,63.7a15.39,15.39,0,0,0,3.11-3"/>
    <path d="M92.22,56.21a10.09,10.09,0,0,1-.7,1.16"/>
  </g>
  <g class="lipEdgeLine">
    <path d="M87.64,56.94c2.54-.47,3.28-.91,4.53-2.45"/>
    <path d="M88.47,63.76c1.76.17,5.35-1.48,5.86-4.39"/>
  </g>
  <g class="noseLine">
    <path d="M82.64,54.89a2.29,2.29,0,0,1-1.48-3.22"/>
    <path d="M87.13,43.66c1.05,2,5.83,3.24,4.55,6-1.92,4.19-5.45,2.35-7.2,4.41"/>
  </g>
  <g class="eyeFoldLine">
    <path d="M89.21,37a7.27,7.27,0,0,1-1.78.68"/>
    <path d="M76.27,44.15a7.78,7.78,0,0,1-5.92,3.4"/>
  </g>
  <path class="eyeLashLine" d="M84.74,37.11a10.79,10.79,0,0,1,2.89-2.41"/>
  <path class="eyeCornerLine" d="M68.16,45.44a5.54,5.54,0,0,1-3,2"/>
  <path class="eyeCreaseLine" d="M67.05,45.45c3.34-3.05,3.63-4.91,7.77-5"/>
  <g class="eyebrowBlack">
    <path d="M61.8,43.86c1.54-7,7.15-5.14,13.13-9.29C74.06,39.51,65,38.1,61.8,43.86Z"/>
    <path d="M86.73,27.17c-2.76,1.17-3,3.63-5,5.3,2.07.38,2.64-1.71,5-3.6C86.71,28.21,86.71,27.65,86.73,27.17Z"/>
  </g>
  <path class="hairBlack" d="M62.1,19.37c3.67,5.17,3.7,6.44,6.79,7.66a14.07,14.07,0,0,1-1.63-3.85c5.18,5.47,11.73.11,15,1.13a8.19,8.19,0,0,0-3.54-2.47c1.77-.92,4.53-1.08,7.76,1.16,1.33-2.63-.8-10-8-13a17.78,17.78,0,0,0,4.65-2.9C74.28,6.78,66-3.65,46.12,1.85,38.38,4,25.38,12.74,21.85,21c-1.26-3.23-2.18-8.63-.6-11.61C17.8,13.1,18,20,19.73,24.29c-6.48-.8-9.56,3.37-9.44,6.92,1.94-2.95,5.12-5,8.39-3.71-4.24,15.21,7.61,40.61,29.21,45.63a3.77,3.77,0,0,0,2-2.9c-5.59-2.11-9-1.71-11.66-8.23-2.38-5.74,5.8-11.09,10-5.75a8.94,8.94,0,0,0,4.33-2.07c-2-3.21-1.91-3.78-1.21-7.37,4.41-2.87,9.2-8.13,9.77-14.68.71,2,.42,3.27.41,5.34C63.49,35,68,29.25,62.1,19.37Z"/>
  <path class="hairOverlapLine" d="M51.34,46.81c-1.38.82-3.13,1.77-4.22,2.41.81-1.78,2-3.34,2.52-4.67"/>
</svg>
