<svg viewBox="0 0 129.25 215.12">
  <path class="skinEastAsian" d="M98.37,69C98.14,73,93,88.08,82.41,92.6,79,94.05,76.77,96.06,73.23,96,57.07,95.79,45.11,75.18,42.3,56.76l62.07-5.56c-.68,7.26-2.34,9.46-4,12.21-.73,1,.86,2.56-2.28,2.22C100.18,68.17,98.43,68,98.37,69Z"/>
  <path class="eyeLashLine" d="M99.56,65.59a5,5,0,0,0,1.29-.25"/>
  <path class="eyebrowBlack" d="M97.74,59.35a4.83,4.83,0,0,1,4,1.73c.26-.48.52-1,.76-1.54A3.93,3.93,0,0,0,97.74,59.35Z"/>
  <path class="hairBlack" d="M109.38,40.36A8,8,0,0,0,114,42.57c-6.73-7.07-6.45-23.65-28.29-31.47.39-2.24,4-4,6.7-2.68-1.83-3-7.93-2.21-9.81,1.7C81.68,5.69,79.13,1.76,74.35.6c3.3,2.12,4.39,5.75,4.73,9C66.63,8.09,46.85,8.37,38.91,33.44,32.73,60.9,49.6,60.58,52.39,68c9.73-3.57,17.49,2.41,26.06-2.8C78.23,50.79,91.08,50,89.2,59.62a12.57,12.57,0,0,0,3.58,1.81c1.45-4.31,1-4.55,5.16-6.75C107.36,54.6,110.57,48.13,109.38,40.36Z"/>
  <path class="hairOverlapLine" d="M98.24,51.83a13.74,13.74,0,0,0-5.34,3.06,16.72,16.72,0,0,1,5-.21"/>
  <g class="sketchbook">
    <polygon class="sketchPaperMedium" points="118.98 118.95 119.61 121.35 89.84 142.01 62.16 134.97 61.78 132.82 118.98 118.95"/>
    <polygon class="sketchPaperLight" points="118.98 118.95 89.08 139.37 61.78 132.82 92.13 113.97 118.98 118.95"/>
    <g class="wireDisplayLine">
      <path d="M115.92,120.24c.54-2,1.92-.07,2.21,1.35s.12,2.48-.46,2.62c-.35.09-.75-.22-1.09-.76"/>
      <path d="M113.31,122.08c.54-2,1.93-.07,2.21,1.34s.12,2.49-.46,2.63c-.35.08-.75-.22-1.09-.77"/>
      <path d="M110.7,123.91c.54-2,1.93-.07,2.21,1.34s.12,2.49-.46,2.63c-.35.09-.75-.22-1.09-.76"/>
      <path d="M108.09,125.74c.54-2,1.93-.07,2.21,1.35s.12,2.48-.46,2.63c-.35.08-.75-.23-1.08-.77"/>
      <path d="M105.48,127.58c.54-2,1.93-.07,2.21,1.34s.12,2.49-.46,2.63c-.35.08-.75-.22-1.08-.77"/>
    </g>
  </g>
  <g class="pencil">
    <path class="pencilBody" d="M92.08,120.78,66.62,97.7c-.32-.29,1.87-2.71,2.19-2.41l25.46,23.07C95,119,92.8,121.43,92.08,120.78Z"/>
    <g class="pencilMetal">
      <path d="M65.17,93l3.27,2.75c.34.31-1.1,1.9-1.44,1.59l-3.06-3C63.63,94,64.86,92.66,65.17,93Z"/>
      <path d="M92.08,120.78l6,3.25-3.83-5.67C94.61,118.67,92.42,121.08,92.08,120.78Z"/>
      <rect x="73.49" y="92.99" width="0.5" height="12.84" transform="translate(-49.44 87.28) rotate(-47.81)"/>
    </g>
  </g>
  <path class="soleWhiteDark" d="M127.9,180.52c4.89,8.1-7,18.16-25.27,24.73-9.36,3.36-18.09,11.57-22.61.4C75.44,195.78,119.9,170.73,127.9,180.52Z"/>
  <path class="soleWhite" d="M110.31,179.51c6.93-4.29,13.8-3.67,17.59,1-6-5.58-14.52,6.48-25.1,12.25-8.94,5.36-23.89,6.29-22.78,12.88-.55-.87-1.71-4-1.11-6.28C84,194,98.75,188.88,110.31,179.51Z"/>
  <path class="bennettShoe" d="M98.46,181.88c4,.89,7.91-.07,11.85-2.37a6.9,6.9,0,0,1,2.45,2.37c-13.82,13-27.53,11.47-33.85,17.49Z"/>
  <path class="bennettJeans" d="M2,187.64c-.29,13.68,4.71,20.54,14.76,22.07,6,.92,24.44,13.4,53.27-4.16,4.34.31,4.18-1.88,6.91-3.73,7.59-5.14,21.63-14.93,26.31-21.91,8.32-6.85,1.47-25.95-12.6-21.3Z"/>
  <path class="shirtWhite" d="M.84,181.27c-1.75,2.74,1.52,3.32.37,7.75,13.1,12.11,37.57,12.14,51.21,2.27C36.91,194.07,11.7,188.07.84,181.27Z"/>
  <g class="bennettHoodie">
    <path d="M68.24,99.06c5.48,4.83,13.31,8.45,10.55,17.25,1.31,5.67-.15,10.88-.88,15.5,2.41,3.11,0,5.83-.33,9.78,1.84.91.31,3.15.88,5.39,2.31-1.58,4.63-3.27,6.71-2.53,1.16-1,1-1.6,1.83-2,3.4-1.81,10.14,6.08,8,9.3-.54.81-1.92,1-2.6,2.2-.36,3-1.47,5.48-4.39,6.82-1.41,2.06-4.16,4.11-6.6,4.28-6.25,3.21-12.73,6.13-16.16,2.75-3.12,2.55,1,7.39-4.06,13.74a8.44,8.44,0,0,1-.66,4.07c.39,2.94-1.94,4.61-8,5.71-15.5,2.82-40.8-3.18-51.68-10-1.07-.88,1.3-4.85.9-8-2.41-2.75-1.22-5.52-1-8.47C1,161.32.54,158,3.39,154c3.61-5,3.54-42.09,20-59Z"/>
    <path d="M70.68,101.06c-9.86.37-23.08,14.43-36.25,12.28-5.59-.92-10.57-3.52-11.15-9-1-9.63-2.6-20.33,6.14-17.82C48,91.86,69.31,90.56,70.68,101.06Z"/>
  </g>
  <path class="bennettHoodieInner" d="M64.29,94.06c-3.75-6.77-13.13-11.16-23.68-11.7-2-.52-4.11,3-6.18,5.45C45.57,90.36,57.52,91.16,64.29,94.06Z"/>
  <path class="clothesDisplayLine" d="M13.16,196a23,23,0,0,0,3.21,8.89"/>
  <g class="clothesOverlapLine">
    <path d="M59.81,123.83c-1.36,6.64-.22,10.65-.14,16.26.08,5.94-1,12.27,1.09,18.44-2,4.88,2.16,6.77,4.51,9.22-3.82,2.49-2.93,6.24-16.09,8.45-4.46.75.27,3.22,6,1.85"/>
    <path d="M61.21,181.49c-9.67,5.37-45-.06-59.47-8.24"/>
    <path d="M85.17,144.45c4.64,2,7.11,5.11,7.25,9.45"/>
  </g>
  <g class="clothesFoldLine">
    <path d="M25.65,92.78c2.58,4.44,6.82,2.89,11.31.41"/>
    <path d="M25.46,102.3a14.73,14.73,0,0,1,6.1,8.23"/>
    <path d="M36.91,102.65c-3.91-1,11-9.12,26.18-5.62"/>
    <path d="M45.06,101.76c9.4-3,11.45,2.6-5,6.3"/>
    <path d="M78.79,116.31c-1-3.29-3.5-4.07-7.61-3.31-1.09.2.62-1.44,2.4-2.13"/>
    <path d="M56.92,115.67c.35,3.26,1.12,6.14,2.89,8.16a13.94,13.94,0,0,1,5.48-6.44"/>
    <path d="M71.46,124.58a23.65,23.65,0,0,1,6.45,7.23"/>
    <path d="M67.41,124.79a22,22,0,0,1,7.47,6.51"/>
    <path d="M59.32,114.78c3.84-4.11,0,2.19,1,7.88"/>
    <path d="M71,136c1.75,3.17,3.86,5.23,6.54,5.56"/>
    <path d="M60.76,158.53c.15,1.46.53,2.51,1.3,2.8"/>
    <path d="M78.17,151.93c.55,6-3.42,13.65-4.93,11.18"/>
    <path d="M78.42,149.18c2.18,2.49,3.14,5.62,1.6,10.09"/>
    <path d="M86.19,149.06c-1.37-1.72-6-2.68-7.73-2.08,1.08,4.68-4.81,5-6.52,12"/>
    <path d="M83.66,150.15c3.49,2.61,3.36,11.31-2.23,14.85"/>
    <path d="M88.94,152.89a11.89,11.89,0,0,1-.91,7.83"/>
    <path d="M52.12,128.63c1.73,4.38,5.42,7.33,7.53,10.69"/>
    <path d="M55.48,137.47a11.79,11.79,0,0,0,4.19,4.12"/>
    <path d="M50.48,145.22a23.57,23.57,0,0,0,9,3.22"/>
    <path d="M53.5,150.29a14.43,14.43,0,0,0,6,1"/>
    <path d="M3.38,159c-.82,4.93,5.08,12.54,10.7,12.81"/>
    <path d="M61.66,164.4a37.24,37.24,0,0,1-20.78,8.85"/>
    <path d="M60.55,185.56a25.89,25.89,0,0,1-11.37,1.82"/>
    <path d="M.45,183.64C2,186.28,7,189.5,10,189.85"/>
    <path d="M39.92,191.88c-6.83,2-13.35,2.44-19.47,1"/>
    <path d="M58.27,189.44a17.52,17.52,0,0,1-3.58,6.95"/>
    <path d="M61.27,187.07c.28,5.1-1.64,10.88-5.7,17.32"/>
    <path d="M63.13,182.58a19.46,19.46,0,0,1-.76,14.36"/>
    <path d="M65.65,177.75q8.37,8.46,7.79,21.6"/>
    <path d="M71.36,182.25a24.8,24.8,0,0,1,5,11.18"/>
    <path d="M86.59,164.38c7.68-2.09,11.1,1,3.07,2.74"/>
    <path d="M87,161.64c3.07-.33,5.92-1.32,8.77.22"/>
  </g>
  <g class="pudding">
    <path d="M40.45,146.13c.82,1.06,2.83,2.23,1.64,2.8S40.88,147.39,40.45,146.13Z"/>
    <path d="M46.9,140.09c1.55.4,3.89-.1,3.6,1.45S48,141.07,46.9,140.09Z"/>
    <path d="M37.52,129.33c.28-2-1.42-3.92.35-4.17S38.72,127.77,37.52,129.33Z"/>
    <ellipse cx="29.74" cy="145.08" rx="0.86" ry="0.92"/>
    <circle cx="26.92" cy="142.32" r="0.75"/>
    <path d="M35.85,150.93c-4.13-.09,1.67-8-1.71-8.84-1.38-.37-1.69,2.26-2.85,1-1.73-1.81,2.92-2.61.49-4.21-.94-.61-1.78.85-2.78,1.26a1.57,1.57,0,0,1-1.31-2.84c.83-.43,2.09.28,2.31-.62.86-3.59-5.06-3.46-3.23-5.39,1.3-1.36,3.08,4.23,5.32,2.09,1.6-1.54,1.4-2.49.89-3.39-1.12-2,1.67-3.38,2-1.11.16,1.21-.64,3.45,2,3.63,4.44.31,7-8.89,9-6.5,1.6,1.94-8,6.07-5.66,8.89s8.2-3.43,8.73-.5c.57,3.16-7.26.93-8.27,4.71-1.07,4,5.27,2.89,4.21,5-1.23,2.42-4.36-3.22-6.83-.84C34.67,146.64,39.8,151,35.85,150.93Z"/>
  </g>
  <g class="skinEastAsian">
    <path d="M109.73,129.24c-1.31-2.41-3.66-.93-6-1.3,1.39-1.85-.18-4-1.49-3-3.67,3.13-8.26,1.84-11.46,6.46-3.56,5.14-2.62,7-3.62,10.88,3.4-1.43,9.73,6,7.94,9.23,3.45,1.6,8.65-1.25,11.34-6.23.65-1.2,1.59-1.56,1.08-4.26.14-2.3,3-3.36-.17-6.79C110.25,133.16,110.61,130.86,109.73,129.24Z"/>
    <path d="M98.42,117c-3.43-2.47-4.1-6.46-9.1-8.65a16.94,16.94,0,0,0-7.22-1l10.19,9.24a4.08,4.08,0,0,0,1.13,1.9c-1.2-1-2.9-.88-4.48-.54l-11-10a9.5,9.5,0,0,1,.87,8.37,24.78,24.78,0,0,1,.19,9.22c4.16.65,5.6-1.49,7.24-1.76,2.55,5.1,5.9,2.35,5.44-.3,1.9-.31,3.17-1.49,3.17-3C98.19,121.53,100.47,118.37,98.42,117Z"/>
    <path d="M45.21,65c.76,2.86-1,10.41-4.19,17.36C50.3,83,58.63,86.49,62.93,92c.91-2.91,4.17-6.93,6.49-8"/>
  </g>
  <g class="skinOverlapLine">
    <path d="M97.56,129.55a10.32,10.32,0,0,1,6.18-1.61"/>
    <path d="M91.66,123.47c-2.25.37-3.92-.15-5.44.3"/>
    <path d="M88.94,117.93c-4.14.83-8,1.93-3.5-3.17"/>
    <path d="M93.42,118.47a3.07,3.07,0,0,1,1.41,2"/>
    <path d="M78.45,65.23c.62,3.88-.9,8,3.83,8.84"/>
  </g>
  <g class="skinFoldLine">
    <path d="M87.42,60.9c2.66-11.55-8.83-1.22-5.91,7.11"/>
    <path d="M85.67,63.3c-2.3.32.06,5.25-1.76,4.85-.71-.3.49-1.58-.35-3.57s1.09-4.94,1.89-3.06"/>
  </g>
</svg>
