<svg viewBox="0 0 102.1 216.61">
  <rect class="noStroke" x="46.45" y="174.26" width="46.44" height="42.09"/>
  <g class="bennettHoodie">
    <path d="M82.06,86.1c5,3,11,3.85,13.55,9.9,3.48,2,4.82,12,3.35,16.3,2.72,1.25-.71,5.44-.91,10.81a99.48,99.48,0,0,1,2.71,28.19c-.09,2.58,1.68,3.93,0,8.07,2.4,4.48,0,7.58-.16,12.94-3,5.18-10.93,5.06-17.94,6.27-11.64,2-35.74,5.19-40,.62-.85-.91-.23-2.94-1.09-5.06-1.42-3.34-5.42-4.72-1.88-12.58l-10.41-51c.41-7,2.84-8.42,2.08-10.52-1.33-3.69,4.35-5.6,7.94-8.45Z"/>
    <path d="M51.52,101.62c2.06-.61,6.95-1.06,10-1.54C78.64,97.37,84.77,88,82.84,86.35c-5.56-4.73-3.53-9.95-20.16-8.69C48.75,78.72,35,90.11,37.12,94.32,40,99.89,48.43,100.7,51.52,101.62Z"/>
  </g>
  <path class="bennettHoodieInner" d="M51.52,101.62c.37-2.64,9.24-3.57,13.25-5.23C79.55,90.3,76.71,79,63.25,79,54,79,39.08,85.8,40.22,92.12,41.47,99,51.35,97.84,51.52,101.62Z"/>
  <g class="zipperDisplayLine">
    <path d="M51.52,101.62c-1.51,7.81-.46,14.07,1.16,17.83,1.48,3.41-.26,8.46,1.14,11.35"/>
    <path d="M55.62,149.31c1.08,3.76-3.41,3.34-.7,11.69,1.23,3.78-7.72,5.22.7,20.53"/>
  </g>
  <g class="hoodieLace">
    <path d="M44.91,120.88l.36,5.32c0,.29,1.24.19,1.21-.1l-.36-5.35Z"/>
    <path d="M45.51,99.56c.34,9.53-1.4,11-.91,21.13.06.58,1.75.34,1.76-.19-.2-9.29,1.23-12.2.92-20.82C47.32,99.13,45.54,99,45.51,99.56Z"/>
    <path d="M57.09,121.87l-.87,5.27c0,.29,1.16.46,1.2.17l.87-5.29Z"/>
    <path d="M56.42,99.79c-.86,9.24,2.42,11.2.51,21.82-.16.58,1.51.89,1.67.32,2-10.7-1.36-13.19-.31-22C58.33,99.3,56.46,99.2,56.42,99.79Z"/>
  </g>
  <g class="clothesOverlapLine">
    <path d="M98.05,123.11c-.16,4.11.13,8.64-2.8,11.5-.1,8.64-2.38,13.55-3.37,16.87-2.11,7.07-3.23,4.88-4.64,6-10.13,8.12-21.73-3.79-30.17-8.43-3,.73-4.83.12-5.27-2.22-3,.83-4.51-.38-5.07-3-2.63-1.9-6.1-2.74-7.38-4.12-1.54-1.66,4.28-11.09,6.54-11s3.48,2.85,6.43,3.38c2.16-2.54,4.14-2.6,5.91.21a4.49,4.49,0,0,1,5,2.22c4.64,3.37,7.28,1.89,10.12,4.64a2.46,2.46,0,0,1,2.53-.95c-.42-4.12,1.46-7.83,1.8-11.71.38-4.42-.21-8.44.84-13.08"/>
    <path d="M52.32,132.18c4,1-.93,12.22-5.59,11.71"/>
    <path d="M82.69,178.58c-.14-2.69-1.85-3.87-1.81-5.94-2.75-2.49-6-2.94-7.83-5.49s-1.08-4.59-3.28-10"/>
    <path d="M60.76,151.34c-4.54.39-12,1.14-16.25.89a60.15,60.15,0,0,1-4.8,9.33"/>
  </g>
  <g class="clothesFoldLine">
    <path d="M90.85,94.34A6.42,6.42,0,0,1,95.61,96"/>
    <path d="M99,112.3c-1.55,3.57-4.91,6.17-11,7.28"/>
    <path d="M95,119.47a17.08,17.08,0,0,1-9.2,3.82"/>
    <path d="M92.75,130.8c-4.37,5.28-11,7.41-14.47,2.25"/>
    <path d="M73.9,110.27c.94,4,2.13,7.27,3.93,9"/>
    <path d="M73.12,117.56a17.91,17.91,0,0,0,4.66,5.73"/>
    <path d="M82.43,95.8c-3.48,2.8-7,15.37-4,17.71,0-5,2-9.46,5.19-13.67"/>
    <path d="M82.09,109.71c-1.83,1.23-3.2,3.93-4.19,7.85"/>
    <path d="M91.63,136.41c-6.62,4.83.67,5.84.45,11.56"/>
    <path d="M75.84,138.3c11.53,4.28,6.25,20.1,10.41,16.18"/>
    <path d="M73.31,139.25c4.39,2.86,6.57,7.45,6,14.22"/>
    <path d="M88.49,150.66c.11-6.84-5.72-11.44-10.59-11.38"/>
    <path d="M63.19,134.61c2.19,4,3.6,9,6.11,11.23"/>
    <path d="M58.23,132.39c1.54,4.13-1,13.56,2.21,5.93"/>
    <path d="M51.8,146.84a6.59,6.59,0,0,0,3.82-2.91"/>
    <path d="M57.07,149.06c4.38-1.32,5.5-9.17,6.63-2.55"/>
    <path d="M33.85,103.54A37.32,37.32,0,0,0,39,113"/>
    <path d="M32.62,106.23A12.1,12.1,0,0,0,36.77,112"/>
    <path d="M48.1,118.69A71.89,71.89,0,0,0,63,118.57"/>
    <path d="M60.33,161.21c-.47,1.06-11.5,1.33-11.33,0"/>
    <path d="M81.09,162.89a22.5,22.5,0,0,1-8.82,2.9"/>
    <path d="M96.9,156.61C94,162.1,84.68,169.73,78.62,169.17"/>
    <path d="M100.79,159.37c-1.11,2.4-2.32,4-3.66,4.31"/>
    <path d="M101.81,164.34c-.51,3-3.56,4.5-3.76,6.74"/>
    <path d="M89.28,169.29a39,39,0,0,1-18.92,5.21"/>
    <path d="M63.24,175.93c-4.68,1.93-18.11.61-21.65-1.79"/>
  </g>
  <g class="sketchbook">
    <polygon class="sketchPaperMedium" points="39.48 162.93 41.44 161.35 33.19 124.7 6.33 118.83 4.01 120.11 39.48 162.93"/>
    <polygon class="sketchPaperLight" points="4.01 120.11 30.9 126.28 39.48 162.93 14.38 155.34 4.01 120.11"/>
  </g>
  <g class="eye">
    <circle class="sclera" cx="29.01" cy="59.05" r="15.93"/>
    <g class="irisDarkBrown">
      <ellipse cx="19.61" cy="58.93" rx="2.99" ry="3.14" transform="translate(-6.85 2.74) rotate(-6.82)"/>
      <ellipse cx="39.15" cy="57.07" rx="2.99" ry="3.14" transform="translate(-6.5 5.05) rotate(-6.82)"/>
    </g>
    <g class="pupil">
      <ellipse cx="19.82" cy="58.9" rx="1.16" ry="1.22" transform="translate(-6.85 2.77) rotate(-6.82)"/>
      <ellipse cx="39.36" cy="57.05" rx="1.16" ry="1.22" transform="translate(-6.49 5.07) rotate(-6.82)"/>
    </g>
  </g>
  <g class="skinEastAsian">
    <path d="M67.83,58.89C64,65.84,64.3,77,66.91,82.75,73.68,92,52.5,95.93,51.52,101.62c0-4.85-10.33-3.79-9.93-12.39a15,15,0,0,0-3.5-8.81"/>
    <path d="M8.61,135.73c-5.54-1.55-5.93,2.43-5.1,3.65-3.15,3.58-1,4.81-1.46,6.47-1.06,1.93.54,3.32.2,4.43-1.32,3,2,6.19,5.68,6.75,2.82.44,6.64.48,6.83-3.59,3.92-.63,3.54-4.06,1.82-4.8,2.1-1.6,1-4.57-1.07-4.64,3-1.88.77-4.9-3.32-5.34C10.51,138.09,9.05,137.4,8.61,135.73Z"/>
    <path d="M45.85,129.74c1.78,1.53-1.74,9.93-5.59,9.46L36,137.28,33.19,124.7l-15.37-3.36c-1.32-3.52-3-5,1.86-9,1.76-1.47,4-3.49,7.35-2.48,5.21,1.35,10.06,3.57,13.32,6.9C44.5,121,44,126.78,45.85,129.74Z"/>
    <path d="M60.2,75.68A36.25,36.25,0,0,1,44.51,89.31c-4.79,2-4.73,3.65-11.35,3.62-4.6,0-6.41-3.4-11.49-7.43-9.28-7.34-8-21.53-9.25-24.35-6.83-15.77,2.06-17.47-2.16-29.94,20.83-24.68,75.29,2.2,61.17,25.42a32.58,32.58,0,0,0-2.11,5.69,3.76,3.76,0,0,1-5.5,1.79m-31.16-5.2a36.63,36.63,0,0,0,4.13.74,7.06,7.06,0,0,0,5.68-2.58c-2.14-.58-4.16-1.68-6.68-1.35a5,5,0,0,0-3.88,2.44C31.41,58.89,32.29,58.84,32.66,58.91Zm-11,.64c-1.66-1-2.23-1.75-4.6-1.47a6.47,6.47,0,0,0-2.62,1.34,3.46,3.46,0,0,0,.33,1.91c3.91,1.41,5.44-1.11,6.33-1.1C21.66,60.23,22,59.81,21.61,59.55Z"/>
  </g>
  <g class="skinOverlapLine">
    <path d="M15.51,144c-4,.74-10.51-2.07-12-4.62"/>
    <path d="M4.62,146.45c4.86,2.6,6.43,3.15,12,2.19"/>
    <path d="M14.76,153.44c-4,.64-6,.37-10.42-1.57"/>
    <path d="M32,115.57c-9.45-.57-13.19-3.56-13,6"/>
    <path d="M28.94,119.18c-3.57.26-6.91-.27-8,2.84"/>
  </g>
  <g class="skinFoldLine">
    <path d="M64,51.38c2.21-10,10.29-2.79,5.73,4.84"/>
    <path d="M64.75,53.32c3.13.1-.59,4.94.89,5.51,1.68.66.47-2.09,1.54-3,3.31-2.72,0-6-1.05-4.45"/>
  </g>
  <g class="pencil">
    <path class="pencilBody" d="M31,111.1,47.48,98.74c.38-.28,2.33,2.33,2,2.61l-15,11.23A34.62,34.62,0,0,0,31,111.1Z"/>
    <g class="pencilMetal">
      <rect x="37.68" y="104.71" width="13.05" height="1.06" transform="translate(-54.28 47.53) rotate(-36.85)"/>
      <path d="M51.63,96.53,48,99a7.58,7.58,0,0,1,1.28,1.7L52.73,98C52.94,97.83,51.84,96.37,51.63,96.53Z"/>
    </g>
  </g>
  <g class="wireDisplayLine">
    <path d="M4.63,122.18c-1.1.17-1.81.79-1.55,1.19.4.6,1.94.68,3,.36"/>
    <path d="M5.55,125.27c-1.1.16-1.81.79-1.55,1.19.39.6,1.94.68,3,.36"/>
    <path d="M6.47,128.36c-1.11.16-1.81.79-1.56,1.19.4.6,1.94.68,3,.36"/>
    <path d="M7.38,131.44c-1.1.17-1.81.8-1.55,1.19.4.61,1.94.68,3,.37"/>
    <path d="M8.3,134.53c-1.1.17-1.81.8-1.55,1.19.4.61,1.94.68,3,.37"/>
  </g>
  <path class="lipMaleMedium__noStroke" d="M26.42,78.66a5.38,5.38,0,0,0,4.88-.58c2.94,0,4.11,2.49,7.28,2.8-2.63.9-3,4.39-7.39,4.5-5.14.12-3.51-2.71-5.33-3.23C27,81,25.15,79.27,26.42,78.66Z"/>
  <path class="teeth" d="M35.29,80.38c-3.13-1.46-3.07-1.08-3.71-.67a4.38,4.38,0,0,1-3.12.75,1.88,1.88,0,0,1-.56.83A36.15,36.15,0,0,1,35.29,80.38Z"/>
  <g class="lipOverlapLine">
    <path d="M38.58,80.88a11.12,11.12,0,0,1-3.29-.5"/>
    <path d="M27.9,81.29a5.18,5.18,0,0,0-2,.86"/>
    <path d="M28.46,80.46a7.39,7.39,0,0,1-1.4-.38"/>
  </g>
  <g class="lipEdgeLine">
    <path d="M31.3,78.08a5.38,5.38,0,0,1-4.88.58"/>
    <path d="M35.24,83.68c-1.52,1.89-6.12,2.3-7.46.82"/>
  </g>
  <g class="noseLine">
    <path d="M33.89,73.75c1.76-1.09.81-4-.31-4.34"/>
    <path d="M23.47,67.35c.08,3.07-2.66,4.52-.9,6.11a3.91,3.91,0,0,0,3.52,2.34c3.83.12,3.61-2.64,6.22-1.94"/>
  </g>
  <g class="eyeFoldLine">
    <path d="M40.8,60.45c-3,2-4.55.88-6.4.63"/>
    <path d="M20.08,62.59a5.41,5.41,0,0,1-4.51.61"/>
  </g>
  <g class="eyeCornerLine">
    <path d="M43.75,57.23a2.65,2.65,0,0,1-1.28-.16"/>
    <path d="M14.39,59.42a3.09,3.09,0,0,1-1,.45"/>
    <path d="M14.72,61.33A3.45,3.45,0,0,1,14,61"/>
  </g>
  <path class="eyeCreaseLine" d="M13,59.05c1.36-2.18,4.89-3.14,6.61-1.73"/>
  <g class="eyebrowBlack">
    <path d="M27.38,50.41C32.15,51.6,38.84,47,44.74,52,38.35,49.68,30.68,54.45,27.38,50.41Z"/>
    <path d="M10.11,54c.1.53.22,1.08.37,1.65,3.3-1.73,6.23-.23,8.87-4.22C15.8,53.12,12.89,52,10.11,54Z"/>
  </g>
  <path class="hairBlack" d="M36.43,45.78c1.73.81,3.24,1.54,3.79,2.87C34.57,46.93,26.49,53.34,20,45.88a10.65,10.65,0,0,0,2.81,4.58c-7.16-2.13-9.34-9.68-9.67-14.78C13.47,47,11.26,49.57,7.39,52.24c2.38-6.79-3.19-10-1.18-18.78A6.21,6.21,0,0,1,.76,36.17c5.72-3.74,5.15-13.55,16.08-22.1-.57-1.4-3.95-2.5-6.76-1,2.41-3.14,7.51-2.82,9-.83C18.76,8.77,21,3.54,24.58,1.06c-2,2.64-3.15,7.41-2.46,9.45C39,3.05,53.83,4.73,64.33,14,79.41,27.18,77,54.51,71.43,56.63c6-11.72-7.5-17.72-9-7.39a14.16,14.16,0,0,1-5.1,1.89c-.18-4.14-.85-3.93-4.57-6.94C49.09,44.42,44.92,48,36.43,45.78Z"/>
  <path class="hairOverlapLine" d="M54.51,41.08c2.72,1,3.47,2.32,4.55,3.2-.93,0-4.41-.48-6.29-.09"/>
</svg>
