<svg viewBox="0 0 128.32 218.13">
  <path class="teeth" d="M86.93,59.3a6.93,6.93,0,0,1-.5,2.32,2.86,2.86,0,0,1-2,.31C84.71,59.91,85.43,59.07,86.93,59.3Z"/>
  <g class="eye">
    <path class="sclera" d="M86,48.06Q72.7,42.51,86,37A14.88,14.88,0,0,1,86,48.06Z"/>
    <path class="irisDarkBrown" d="M86.26,45.14c.22,0,.74-1.34.74-3s-.52-3-.74-3A25.91,25.91,0,0,0,86.26,45.14Z"/>
  </g>
  <g class="skinEastAsian">
    <path d="M90.44,51.27c-.29-1.47-1.87-2.72-3.38-5.57-.14,1.17,2.33,3.16.78,8.92C89.05,54.46,90.68,52.5,90.44,51.27Z"/>
    <path d="M44.86,53.05c4.47,14.44,16.82,18,25,20.07,4.47,1.13,9.06,1.6,11,.72,4.9-2.2,2.06-5,5.12-7.15,1.56-1.79.11-2.94-1.47-3.31a12.94,12.94,0,0,1,1-3.47c1.3.13,4.07-1.58,3.35-2.9-.7-.84-1.26-1.54-1-2.39,1.55-5.76-.92-7.75-.78-8.92,1.88-2-1-2.89-3.13-3.42,6.46-2.38,2.85-2.68,3.53-4.46a14.42,14.42,0,0,0,.28-6.93C73.53,5.37,30.65,27.53,44.86,53.05Z"/>
    <path d="M26.05,30.87C29.43,55.55,51,49.4,41.18,76.53L67,79.25c-.88-6.23,1.23-8.8,2.57-9.17"/>
    <path d="M80.62,178.26c3.39,6.61,6.29,13.27,3.79,19.3-3.89,9.42-10.52,9.11-16.48,9.11-8.24,0-14.32-5.31-20-8.35C35.4,202,25.85,195.5,22,197,9.1,165.37,43.72,170.92,80.62,178.26Z"/>
    <path d="M34.47,74.45C26,74.18,22.79,76.9,18.22,76.84c-9.5-.15-14.71,1.5-16.9,6.58-2.48,5.49,1.34,7,3.12,8.35,4.47,3.38,11.32,1.37,16.7,1.37Z"/>
    <path d="M125.17,83.56c-13.66-9.16-23-3.87-27.56-4.29-5.8-1.48-13.62-3.71-19.35-3.38-8.05,3-6.93,27.35,1.86,22.52C91.94,89.64,122,106.14,128,89.16,128.49,87.74,126.06,84.16,125.17,83.56Z"/>
  </g>
  <g class="lipFemaleMedium">
    <path d="M84.51,63.38c.14,1.24.84,1.35,1.47,3.31C87.54,64.9,86.09,63.75,84.51,63.38Z"/>
    <path d="M88.87,57h0a8.78,8.78,0,0,1-3.35,2.9C86.82,60,89.59,58.33,88.87,57Z"/>
  </g>
  <path class="cheekLine" d="M87.84,54.62c-1,3.3-3.32,5.8-3.43,10"/>
  <path class="eyebrowBlack" d="M82.49,39.05a15.62,15.62,0,0,1,5.17-1.85A9.73,9.73,0,0,0,88,34.9C86.16,35.36,83.35,37.17,82.49,39.05Z"/>
  <g class="hairBlack">
    <path d="M21.45,69.76c-10.37-12.59-8.71-43,.06-53.83C25.92,10.49,31.57,9.81,36,13.3,22.21,24.19,20.43,49.12,21.45,69.76Z"/>
    <path d="M89.33,31.26c4.17-3.56,4.34-19.87-9.57-24.19C68.2-1.38,42.2-4.38,30.93,12.38,22,25.6,27,53.1,41,57.19c4.17.16,10.2-2.55,13.18-6.39C44.76,40.12,56.75,33.19,60.06,40c2-1.06.13,6.19,6.44,7-2.82-8.74,3.62-10.74,7.8-15.43a20.5,20.5,0,0,0,4.79-.12,8.9,8.9,0,0,0,2.63-5.12,7.05,7.05,0,0,1-.44,5.05A27.46,27.46,0,0,0,89.33,31.26Z"/>
    <path d="M28.93,73C14.56,62.8,14.27,28.09,25.11,14.8c2.82-3.45,7-3.87,10.85-1.5l.14,3.37c-3.52-.93-6.38,3.44-4.59,10.34C39.26,57,24.77,57.43,28.93,73Z"/>
  </g>
  <path class="hairOverlapLine" d="M66.09,19.18c1.08,3.19.75,9.85-.79,11.7,1.3.62,5,.84,7.3.61a8.64,8.64,0,0,0,2.11-3.8,6.14,6.14,0,0,1-.41,3.87"/>
  <g class="anitaBarrette">
    <path d="M34.6,12.69c-.44.45.16,3.39.64,3.8a4.19,4.19,0,0,0,2.51-.29c.65-.39.27-3.73-.39-3.9C37,12,34.93,12.36,34.6,12.69Z"/>
    <path d="M35.24,16.49a4.19,4.19,0,0,0,2.51-.29c.42-.11,1.94,3.26,1.83,3.69-.23.91-4.29,1.53-4.85.81C34.49,20.39,34.84,16.53,35.24,16.49Z"/>
    <path d="M37.36,12.3c-.34-.32-2.43.06-2.76.39-.63.12-2.83-3.46-2.4-3.94,1-1.08,5-2,5.68-1.19C38.3,8.06,37.71,12.34,37.36,12.3Z"/>
  </g>
  <g class="skinOverlapLine">
    <path d="M54.19,50.8c3,2.23,4.1,5.61,8.19,2.49"/>
    <path d="M74.68,186.73a5.78,5.78,0,0,1,4.42,2.89"/>
    <path d="M97.61,79.27c5.92,1.74,12.49,1.06,18.89,2.17"/>
  </g>
  <g class="skinFoldLine">
    <path d="M60,43.19c-2.38-7.6-10-1.18-4,6.21"/>
    <path d="M60.22,45.88c-1.5,1.46,1.71,4.23.25,4.59-1.29.33-.13-1.29-2.3-2.72-2.65-1.73-.82-5.39.7-3.9"/>
  </g>
  <g class="anitaDress">
    <path d="M81.49,177.82c.42,6-7.18,8.1-11.73,12.87-4.25,4.46-14,6-16.19,3.32-.62-1.45-.31-5.81-.73-9.09-17.36-4.44-25,4.21-28.56-2.46l-19.9,2.21c-2.7-12.56-5.81-23-3.06-36.12,1.23-5.84,5.8-13.32,8.19-14.52,21-6.81,45.16-1.61,54.19,9.18.93,2,.86,4,3,5.86,2.55,2.33,4.84,12,6.95,14.32C75.56,165.51,78.17,167.34,81.49,177.82Z"/>
    <path d="M78.26,75.89c-6.19-1.64-12.33,1-14.07,1.07-6.53.47-15.56.64-22.2-2.81a15.53,15.53,0,0,0-10.42.5c-3.09,1.61-5.95,8-8.15,12.25-2,3.76-4.16,7.43-4.41,11.51a57.47,57.47,0,0,0-6.93,21.92c-.31,3.13-2.74,5.27-.91,7.84,13.4-7.53,46-4.06,54.41,9.57,3.44-1.69,4.56-5.9,4.56-9,0-1.41,2.1-.24,3.09-9.41,3.56-3.87,5.81-12.16,6.89-20.92C71.33,103.24,70.21,78.92,78.26,75.89Z"/>
  </g>
  <g class="anitaShoe">
    <path d="M16.94,177c1.92.4,7.39,4.59,7.34,5.46-3.87,9.15.57,14.13,0,14.87-3.35,5.66-4.17,15.14-8.8,17.54C9.52,202.51,11.74,187.69,16.94,177Z"/>
    <path d="M45.59,179.13c2.14.4,7.25,4.12,7.25,5.79-5.36,6.85-2.8,14.3-3.9,14.86-5.52,5.68-4.24,17-15,17.8Z"/>
    <path d="M50.32,199.8c-3-5.16-6.74.94-3,4.49C48.5,204,50.36,201.18,50.32,199.8Z"/>
  </g>
  <g class="soleLightTan">
    <path d="M42,177c1.68.5,3.82,1.87,4.25,3.2,2,6-2.12,13.15-3,23.31-.72,8.41-3.18,14.37-12.76,14.37Z"/>
    <path d="M13.42,175.27c1.95.41,4,1.69,4.45,3,2,5.18-3.68,10.17-.1,22.36,2.92,10-.16,15.16-7.5,16.2Z"/>
  </g>
  <g class="soleLightTanDark">
    <path d="M40,176.79c5.58-.39,6.36,6.67,3.41,16.25-2.71,8.78-.73,22.2-10,24.38-9.87,2.32-13-4.59-8.49-10.37C33.45,196.11,28.65,177.59,40,176.79Z"/>
    <path d="M15.81,184.52c-4.27,14.3,5.35,20.1.29,28.31-4.56,7.38-16.48,4.51-14.5-6.9,2.09-12.1.34-23,4.77-28.23C10.07,173.34,19.07,173.56,15.81,184.52Z"/>
  </g>
  <path class="anitaBelt" d="M63.7,143.21c.35-1.7.58-4.08,1.88-5.47-8.39-13.63-41-17.1-54.41-9.57A51.81,51.81,0,0,1,9.51,134C30.54,127.22,54.67,132.42,63.7,143.21Z"/>
  <g class="clothesFoldLine">
    <path d="M36.89,19.11c-.55,1.6-1.07.33-.77-2.53"/>
    <path d="M34.84,11.14c.11.29.35.94.51,1.24"/>
    <path d="M37.52,18.06a2.9,2.9,0,0,1-.62-1.6"/>
    <path d="M35.09,10c1.18-2.71,1.51,1.12.94,2.27"/>
    <path d="M38.42,131.59a46.68,46.68,0,0,0-4,7.44"/>
    <path d="M43.56,132.53c-2.41,4.84-1.8,11.92-4.48,11.8-3-.14-1.09-3.89.6-7.35"/>
    <path d="M56.62,137.44q.16,4.63-1.39,6.89"/>
    <path d="M59.45,139.3c.17,3.29-.6,5.87-2.5,7.61"/>
    <path d="M63.7,143.21c-.72,2.9,2.65,8.07-11.42,8.79"/>
    <line x1="68.67" y1="152.3" x2="65.65" y2="158.75"/>
    <path d="M75.29,167.76c2.7,5.06-9.71,3-13.64-.47"/>
    <path d="M45.81,170.41c3.09-9.77,2.94,4,6.47,13.3"/>
    <path d="M40.88,176.79a9,9,0,0,1-2.21-6"/>
    <path d="M37.2,177.45c-3.27-1.36-5.61-3.08-6.67-5.31"/>
    <path d="M31.92,177.92c-1.82-1.38-11.83-2.68-12.7-1.73"/>
    <path d="M14.57,175.61a9.33,9.33,0,0,1-.78-7.1"/>
    <path d="M9.87,175.38a12,12,0,0,1-4.28-6.87"/>
    <path d="M38.55,177a6.7,6.7,0,0,1-2.48-2.82"/>
    <path d="M11.91,175.05a7.56,7.56,0,0,1-2-4.25"/>
    <path d="M62.26,85.1C52.59,86.66,43,86.57,35.57,83.49"/>
    <path d="M61.15,88.43a55.17,55.17,0,0,1-20.35-.62"/>
    <path d="M20.81,101.63a21,21,0,0,0,2.1,9.12"/>
    <path d="M19,98.41a21.76,21.76,0,0,0,.32,11.85"/>
    <path d="M68.43,103.35a41,41,0,0,1-12,10.37"/>
    <path d="M73.12,103a31.82,31.82,0,0,1-9.5,8.89"/>
    <path d="M73.36,115.57a7.17,7.17,0,0,0-.13,3.76"/>
    <path d="M40.8,119.27a27.46,27.46,0,0,0-1.63,5.6"/>
    <path d="M42.7,121.62a11.51,11.51,0,0,0-1.52,3.55"/>
    <path d="M13.8,121.28c-.51,2.22-.67,4.22,0,5.65"/>
    <path d="M16.1,121.62c2.38-2.88,2.06.35,1,4.22"/>
    <path d="M63.81,129.21c.51-3.41-2.35-1.37-2.89,3.53"/>
    <path d="M65.86,128.63c-.44,1.94-2.25,3.47-3.41,5.39"/>
  </g>
</svg>
