<svg viewBox="0 0 790.15 2163.92">
  <path class="backpack" d="M510.2,525.83c46-5.53,78.79,2.35,114.5,31.68,54.15,37.06,64.45,147.93,59.21,267.57-3.37,76.95,2.46,152.77,5.24,200,4.54,76.93-15,128.76-71.6,136.23Z"/>
  <g class="soleWhite">
    <path d="M613,1915.07c-11,38.79,6,69.45,39.33,72.28,24.09,3.84,73.91-66.2,88.87-110.61,16.4-48.67,52.42-101.91,47.48-129.78a46,46,0,0,0-22.26-19.64Z"/>
    <path d="M491.93,2093.41c4.2,7.89,3.21,20.64.8,24.51-48,28.67-96.86,26.8-143.49,34.48-50.45,8.31-94.72,20-127.45-2.71-24.79-21.7,3.1-62,33-67.51Z"/>
  </g>
  <g class="estherShoe">
    <path d="M683.55,1698.49c29.26,1.39,56,9.66,82.88,28.83,10.21,12.52-27.57,83.71-43.45,134.09-8.06,25.54-25.1,49.19-39.24,64.52-25.35-9.64-48.56-14.55-70.73-10.86,13.22-38.3,12.2-74.06,3.73-119.37C614,1732.72,642,1702,683.55,1698.49Z"/>
    <path d="M467.92,1998.75c18.41,23.22,24.63,56.19,24,94.66-15.24,15.6-74.11,32.13-124.58,35.46-18.91,1.24-48.64,10.2-67.47,10.2,2.77-29-13.37-46.31-45.12-56.89,33.45-15.38,91.37-80.78,97.37-86.49C369,1979.67,448.48,1974.23,467.92,1998.75Z"/>
  </g>
  <g class="estherShoeStrap">
    <path d="M662.11,1798.87l.48,29.74c-16,.54-31.26,3.28-40.29,7.19-6.68,2.9-10.13-23.9-3.64-27.2C629.6,1803.05,645.62,1799.55,662.11,1798.87Z"/>
    <path d="M662.23,1849.45,659.29,1879c-12.35-1.64-28.39-.17-38.29,2.68-6.49,1.86-4.5-25.33,2-27A167,167,0,0,1,662.23,1849.45Z"/>
    <path d="M365.74,2046.42c-12.65-11.67-26.52-16.63-42.1-21-5.87-1.63,13.11-22.14,19.79-20.59,17.19,4,31,8.79,43.55,21.49S379.16,2058.8,365.74,2046.42Z"/>
    <path d="M310.14,2038.8c15,5.53,26.65,12.3,36.69,25.28,11.17,14.45-12.49,31.61-23.54,18.1-9.86-12.07-21.09-18.38-34.29-24C284.5,2056.21,305,2036.9,310.14,2038.8Z"/>
  </g>
  <g class="sockWhite">
    <path d="M469.66,1561c76.38,52.65,149.18,128,219,142.7,13,12.51,3.34,57.71-16.36,72.77-7.59,5.81-34.83-1.32-50.47,14-61.19-40.07-138.54-67.25-213-95.94Z"/>
    <path d="M476.41,1669.68c-38.8,14.73-118.89,16.88-150.55,1.55,5.43,105.21,45.73,213.77,37.35,324.3,22.83-.21,41.45,22,52.45,22.87,24.8,2,47.64-7.9,46.31-17.29C431.52,1886.08,487.91,1785,476.41,1669.68Z"/>
  </g>
  <g class="estherSockStripe">
    <path d="M334.84,1748.74c1.71,10.5,3.57,21,5.49,31.58,29.44,12.59,92.15,10.49,131-1.09,1.57-10.45,3-20.94,4.09-31.5C436.3,1761.47,364.53,1763.7,334.84,1748.74Z"/>
    <path d="M328.75,1705.6c1.21,10.69,2.69,21.41,4.34,32.16,30.74,15.09,105,13.13,143.37-1.16.91-10.83,1.46-21.74,1.51-32.75C439.46,1718.53,360.57,1720.73,328.75,1705.6Z"/>
    <path d="M495.46,1579.66c-3,17.65-11.94,39-23.43,59.08,2.42,10.65,5.53,38,5.73,51,21.32-26.55,43.59-68.07,42-91.36C511.71,1592,503.61,1585.78,495.46,1579.66Z"/>
  </g>
  <path class="estherShorts" d="M215.77,1118.13c1.23,26.86-19.15,47.23-1.55,60.2a950.6,950.6,0,0,0,0,167.78c2.78,9.26,62,21.23,73.16,14.75,15.75,25,169,30.68,207.25-27.8,2.31,27.21,15.21,44.43,43.74,46.25,41.26-23.21,54.65-169.49,38-254.29Z"/>
  <path class="estherShortsTrim" d="M533.88,1145.44c-6,.87-12.54,1.66-19.63,2.37-.85,54.77-9.95,118.66-32.78,162.51-29,55.59-168.42,56.91-197.22,30.59-23.31,5.48-65.12-5.51-71.73-16.42q.72,10.88,1.7,21.62c2.78,9.26,62,21.23,73.16,14.75,15.75,25,169,30.68,207.25-27.8,2.31,27.21,15.21,44.43,43.74,46.25,6-3.35,11.33-9.28,16.11-17.19C476.31,1359.55,532.81,1252.46,533.88,1145.44Z"/>
  <g class="estherJacket">
    <path d="M207.63,1057.93c-4.23,11.3-10.66,18.88-22.91,16.55,3.18-15.28-43.91-49.64-56-46.46-6.37-16.54,5.73-33.09,19.73-45.82.63-35.63,39.45-59.18,60.45-136.82Z"/>
    <path d="M575.87,561c20,33.76,49,33.72,44.19,66.2,25.88,25.1,30.6,83.42,41.24,123.94,20.15,76.77,40.29,84.63,25,118.54-7.37,16.3,3.82,14.84-3.5,48.3-17.6,80.35,11.64,147.91-25.9,154.68-3,17.11,13.21,41.74-9.8,54.6-15.06,25.16-422.3-37.1-437.74-58C190.61,1050,195.89,992,203.56,943c6.05-38.53-6.71-72,2.65-122,.71-90,39.65-254.12,118.75-295.87Z"/>
  </g>
  <g class="estherJacketTrim">
    <path d="M568,1067c-50.62,39.13-343.21,23.1-358.65,2.19,2.84,25.77-2.64,53.43,2.07,59.32,25.22,31.53,344.47,30,357.42,5.88C581.45,1106.1,539.26,1106.52,568,1067Z"/>
    <path d="M563.07,1105.93c-2.74,21.25-10.36,36.71-14.37,53.5-4.7,19.69,82,39.94,87.48,20.44,3.85-13.74,3-32.23,10.88-52.64C618.89,1135.32,575.11,1118.19,563.07,1105.93Z"/>
    <path d="M128.72,1028c-7.23,14.15-40.31,48.9-38.93,53,4.78,14.36,58.88,54.45,65.19,40.7a218.37,218.37,0,0,1,29.74-47.29C187.9,1059.2,140.81,1024.84,128.72,1028Z"/>
    <path d="M315.88,519.48c12.44-15.21,16.3-24.78,27.51-30.92,18.29-10,115.32-5.55,146.88,2.95,15.35,4.13,17.45,19.86,30.1,38.72,8.26,12.3-126.26,39.77-169.57,29.33C331,549.94,310.57,526,315.88,519.48Z"/>
    <path d="M414.63,893.6l-11.88,6.72c17.57,36.46,48.48,88.66,75.9,122.33l11.11-7.23C459.57,978,433.54,932,414.63,893.6Z"/>
  </g>
  <g class="estherJacketStripe">
    <path d="M663.54,842.84c-5.42-44.8-23.42-74.92-38.65-142.53-20.24-89.8-49.14-124.17-79.34-136.72a52.67,52.67,0,0,0-18.19,4.89c29.77,13.21,62.15,44.94,81.47,130.71,15.24,67.6,33.67,98,39.09,142.8,4.26,35.3,1.44,82-2.26,123.27-6.46,71.81,9.45,99.64-15.42,106.36-3.81,19.25,21.1,6.38-5.38,57.22H639c23.48-46.33-3.51-36.57,2.79-55.83,24.87-6.72,13.66-41.39,18.77-109.15C663.64,922.59,667.81,878.14,663.54,842.84Z"/>
    <path d="M632,877.79c5.69-49.38-22.7-92.51-37-160.32-18-84.91-50-125.75-79.53-141.33a65.81,65.81,0,0,0-9.9,10.27c27.47,18.68,57.06,57.11,73.37,129.94,15.66,69.87,43.17,125.19,37.37,161-6.65,6.16,3.93,12.95-2.31,84.74-6.6,75.84,12.31,112.26-15.56,161.91l12.44,3.17c24.81-46.37,5.87-41.65,8.46-56.83,20.71-8.42,3.8-35.38,10.52-109.65C636.61,885.23,624.25,884.11,632,877.79Z"/>
  </g>
  <path class="zipperDisplayLine" d="M350.8,559.56c-23.86,6.67-44.12,111.18-41.75,147.44,1.84,28.26-29.84,84.06-17.9,163.43,4.44,29.49-42.94,95.44-3.77,215.26,1.11,5.85-3.86,55.6,1.67,61.84"/>
  <path class="shirtLogo" d="M374.1,715.6c-24.44-23.75-13-34.61,6.52-17.23,2.7-42.15,18.65-41.29,16.29.94,24.44-14.66,27.7-.54,7.6,17.92C426.24,734.21,351.83,731.5,374.1,715.6Z"/>
  <g class="clothesOverlapLine">
    <path d="M287.38,1360.86c-8.32-28.81,3.51-36.14-10-51.36-24.46-27.52-27.29-59-20.29-80.63"/>
    <path d="M284.25,1332.05c14.54-24.81,52.88-42.85,79.94-49.62"/>
    <path d="M516.7,707c0,22.63,15.67,41.63,22.63,61.64,7.64,22,11.7,49.15,24.18,61.63,5.46,4.68-3.9,33.55,11.71,41.35C576,881.77,562,891.13,572.09,906,583,970.71,551,1055,568,1067"/>
  </g>
  <g class="clothesFoldLine">
    <path d="M214.22,1178.33c6.76,4.31,13.82,5.86,21.42,8.26"/>
    <path d="M211.77,1143.58c-1.39,12.56,18.23,21.58,38.53,25.53"/>
    <path d="M401.4,1166.85c-18,8.46-36.65,19.74-46.23,31"/>
    <path d="M402,1188.28c-14.93,13.14-66.63,61.18-95.28,81.75"/>
    <path d="M455.52,1294.27c-37,6.42-69,16.84-90.77,35.52"/>
    <path d="M242.41,1302.73c7.07,4.48,14,11.7,20.86,22"/>
    <path d="M341.07,1314c40-12.41,39.47-34.4,23.12-31.58"/>
    <path d="M333.27,716.81c-19.88-.27-37.69-.58-51.8-1"/>
    <path d="M319.71,740a554.72,554.72,0,0,1-61.47-2.42"/>
    <path d="M322.62,881.88c-21.92,0-42-.93-58.57-3.39"/>
    <path d="M321.17,905.11c-18.74-1.27-36-2.64-47.93-4.35"/>
    <path d="M148.45,982.2c20.72-11.74,67.67-1.57,19.27-16.09"/>
    <path d="M172.56,1006.77a50.68,50.68,0,0,1,24.27,21"/>
    <path d="M245.17,1045c23.91,4.79,50.68,6.56,79.39,6.29"/>
    <path d="M568,1004.91c-16.38,25.58-121.91,45.42-23.65,43"/>
    <path d="M490.11,661.62c3.74,24.58,12.35,40.17,26.59,45.38-5.78-28.92,5.84-61.84-13.52-33.76"/>
    <path d="M565.5,840.73c-9.89,6.79-19.26,11.66-27.63,12.81"/>
    <path d="M467.36,905.11c32.34-5.61,68.84-17.63,107.86-33.49,28.65,11.22,64.65.37,65.43,11.22.84,11.47-17.42,12.59-49.37,10.65"/>
    <path d="M665.34,1023.23c-11.51,22.87-25.49,34.72-42.11,34.85"/>
    <path d="M656.86,1072.63c-16.55,3.42-43.31-6.81-49.12,0-6.25,11,14.71,14.91,32,19.82"/>
    <path d="M568,1067c14,14.53,57.19,29.4,6.85,28.81"/>
    <path d="M572.09,906c7.22,5.33,18.17,7.75,30.81,8.84"/>
    <path d="M620.06,627.17c-4.09-4.27-6.84-7.69-11.35-9.6"/>
  </g>
  <g class="backpackAdjusterLight">
    <path d="M528.13,876.9l-25.76,9.92c19.13,45.53,33.88,73.07,65.6,118.09,2.45-15.46,4.14-30.22,5.39-44C555.45,933,542.79,909.31,528.13,876.9Z"/>
    <path d="M528,528.37c-3.63-7.71-3.75-18-2-26.6,4.27-21-22-24.53-46.68-17.58,12.82-10.91,34.65-18.25,52.2-11.52C545.37,478,553,490.22,550.6,503c-2.29,12.4-13,21.29-11.73,29.83Z"/>
  </g>
  <g class="backpackStrap">
    <path d="M574.58,568.64c-52.43-22.25-103,27.77-85.78,124.79,8.62,38.46,24.37,83.11,43.39,130.58,6.9,14.48-7.2,34-4.06,52.89.81,2.44-24.94,12.36-25.76,9.92-11.85-17.22-35.17-22-43.45-41.32-68.31-138.32-20.07-307.43,51.28-320.67C527.33,521.66,576.65,548.06,574.58,568.64Z"/>
    <path d="M314.58,523c-26.39,8-48.87,32.29-67.68,64.91-20,34.74-30.77,80-41.89,127-7.75,32.79-5.89,66.82,1.2,106.12C220.16,754,260.69,576.8,315,528.51A17,17,0,0,1,314.58,523Z"/>
  </g>
  <g class="hairBlack">
    <path d="M577.94,216.28c5.54-8.7,18.56-1.75,16,5.72,11.67-4.27,28.26,11.9,19.35,24.29,7.37-4,15.46,3,13,11.41,15.11-3.19,26.47,16.23,11.06,26,13.52-.84,17.65,20.86.49,24.61,5.68,4.3,6.37,18.95-4.59,22.46,13.21-4.43,24.67,12.46,15.06,21.47,17.48,5.89,20.21,31.63.12,36.61,4.5,15.19-8.1,26.28-22.44,18.15-1.25,10.55-17,13.36-21.87,5.39,3.53,13.53-18.38,20.36-25.77,13.37Z"/>
    <path d="M344.43,458.19c3.25,12.28-11.88,27.05-25.88,17.11-2.23,9.39-15.4,13.74-21,4.5,4.31,16.79-12.86,30.42-28.13,18,2,8.25-9.31,14.37-17,10.06-3.85,13.82-23.81,9.73-27.13-2.1-5.65,11.11-26.71,6-26.6-9.49-5.59,4.37-12.29-.43-10.23-7.76-4,11.36-21.47,15.61-28.12,5.38-9.39,13.9-31.2,6.51-30.53-9.71C120.5,492,101.14,472,114.16,458.52c-15.53-9.18-9.36-31.06,4.24-31.53-6.13-3.39-4.32-16.22,3.76-18.11-15.13,4.67-30-12.77-20.24-24.05-13.87,2.65-19.17-14.68-10.29-18.7-14.8-8.49,0-32.39,11.44-27.14-7.19-19.44,18.87-33.51,33.33-20.79-7.66-5.8-5.68-17.74,3.73-21.12-17.64-1.44-18.24-28.42-2.57-28.67-3.89-13,11.84-21.44,21.29-16.56C156.7,232.68,180.6,224,192,232.73Z"/>
    <path d="M207.48,277.38c-10.64,1.39-14.65-15.1-7.45-21-9.67,1.87-14.9-12.13-7.48-17.22-10.48-.55-9.89-12.27-3.3-17.25-8.6-1.95-10.53-15.75-2.14-19.76-10.8-4.11-10.46-18.77.17-23.63-13.1-5.83-7.11-29.51,2.15-31.23-8.11-7.95-3.24-21.76,7.08-22.67-5.92-6.37,3.55-20.84,13.36-16.87l4.45-8.3c-5.65-6.76-.8-18.42,6.47-19.25-3.13-10,7.4-17.86,16-15.62-3-8.89,6.1-15.14,13.37-12.53-1.53-11.87,18.94-21.58,27.7-13.35C279.5,27.6,295.35,25.21,301,33.44l8.42-3.55C305.6,18.39,322.51,8.29,331.35,18c.69-6.4,11.71-10,15.64-3,1.93-11,17.25-13.39,23.24-4.44,1.4-6.28,11.17-8.41,15.19-2.91C389.33-1.7,402-.81,404.3,8c5.52-9,22-5.53,21.07,3.29l10-.18c3.81-12.9,24.9-7.77,23.91,3.74,6.46-8.23,18.68-4.2,15.46,6.52,8.26-8.38,25.89,0,22.66,12.51,9-7.79,28.7,7,22.64,16.95,9.38-3.76,20.15,7.08,15.42,15.51,9.08,1.12,14.35,11,9.07,19.58l5.25,7c8.36-4.23,21,4.58,14.5,15.32,7,.93,12,13.46,2.19,17.36C280.27,180.34,447.56,440.35,207.48,277.38Z"/>
  </g>
  <g class="eye">
    <circle class="sclera" cx="456.14" cy="273.09" r="125.04"/>
    <g class="irisDarkBrown">
      <ellipse cx="418.91" cy="283.73" rx="15.8" ry="19.73" transform="translate(-45.85 83.77) rotate(-10.83)"/>
      <ellipse cx="554.05" cy="253.91" rx="14.25" ry="19.73" transform="translate(-37.84 108.64) rotate(-10.83)"/>
    </g>
    <g class="pupil">
      <ellipse cx="422.03" cy="284.13" rx="6.14" ry="7.67" transform="translate(-45.87 84.37) rotate(-10.83)"/>
      <ellipse cx="557.84" cy="254.19" rx="5.54" ry="7.67" transform="translate(-37.83 109.35) rotate(-10.83)"/>
    </g>
  </g>
  <g class="skinBlack">
    <path d="M287.38,1360.86c-8.52,5-45.34-.91-63.31-8.09,2.74,73.65,27.4,163.71,39.74,226.89,10.72,54.89,34.69,74.68,61.45,74.68,1.87-158.07,1.91-240.56-14.14-281.21C299.1,1370,290.52,1365.83,287.38,1360.86Z"/>
    <path d="M529.59,1378.16c-22.43-4.56-32.9-20.86-35-45.1-34.94,53.46-166,53.3-200.28,33.78,4.48,80.39,11,155.76,21.12,205.06,4.54,22.07-5.29,53.43,9.79,78.8,0,7.17.16,14,.6,20.53,31.66,15.33,111.75,13.18,150.55-1.55-1.87-18.75-4.66-38.16-11.65-57.48C458.43,1594.71,496.57,1535.63,529.59,1378.16Z"/>
    <path d="M510.37,394.16c-17.58,28-20.4,71.4-15.11,103.72,2.18,9.46-110.72,34.55-144.46,61.68-17.9-58.64-.57-86.43-19.06-128.69"/>
    <path d="M549,1163.52c-62.56,72.15-41.33,83-54.83,125-2.12,5.9,6.9,7.49,13.27,1.65-4.24,19.11-11,30.22,20.58,32.29,1.07,9,21.24,12.21,31.33,2.12,9.73,2.29,26,.94,32.91-15,11.77,1.39,20.35,2.67,28.93-16.82,7.64-17.37,14.77-33.12,15.83-51.17,2.23-37.79.4-41-2.21-59.18C623.38,1196.31,555.3,1180.79,549,1163.52Z"/>
    <path d="M95.2,1079.59c9.89-4.71,56.06,22.61,56.53,39.57-17,58.89-55.95,53.13-65.38,83.75,7.54,11.3,13.66,37.21-4.71,45.22.78,15.79-9.42,26.38-22.14,22.14-5.18,12.25-32,15.08-29.21-9-8.95,8-30.62,6.6-25.91-17.9,3.3-20.73-16-32.5,12.38-89.44C36.23,1115,89,1098.2,95.2,1079.59Z"/>
    <path d="M257,283.35c8.93-1.92,6.1-14.9.47-17.38,8.23-.45,13.21-10.84,8.67-17.64,6.93,1.61,12.62-9.28,8-15.44,11.42,1.14,18.13-14.73,12.82-20.37,9.76,1.2,10.5-13.5,3.45-15,8.16-1.2,6.9-13.12.86-15.34,7.46-4.47,2.18-16.55-3.82-17.23,7.43-5.82,3.59-15.42-3-18,27.65-7.07-31.14-40.07-74.54-39.27a46,46,0,0,1,11.58-16.55c26.88,2.2,67.83,21.78,84.69,39.44,6.1,6.14,22.68,4.33,24.81-4.75,2.1,4.56,11.07,4.24,13.33-.86,5,4.4,18.19-.67,17.6-7.16,5.5,5.55,23.16.29,20.27-6.41-6.89-23.94-47-63.92-81.11-78a51.37,51.37,0,0,1,18.31-5.69c27.89,9.5,68.19,52.3,77.19,81.77,2.94,7.27,12.36,6.85,14.12,1.09-.08,10.36,16.65,16.72,23.61,1.92,6.29,13.33,27.22,2.59,23.1-4.53,27.59,4.32-5.22-77.12-32-96.74a52.09,52.09,0,0,1,19.24,1.38C461,28,477.35,62.59,481.18,95.85c1.38,6,16.19,3.37,15.71-3.84,6.12,5.2,16.5,1.36,16-4.74,4.27,4.93,14.1,3,15.21-2.07,2.84,7.6,13.52,6.49,16.5.69,9.05,9.42,47.07,74.14,39.16,150.21C581.18,260.47,639.54,353,572.8,446.35c-19.94,27.9-23.18,44.77-61.09,55.39-27.81,7.79-40-.19-67.07-5.21C384.8,485.4,305,468.16,278.28,379.24c-17,22.7-39.39.78-47.07-8.25-6.09-7.16-45.43-24.25-41.8-74.2,5.93-37.85,51.24-35.54,57.82-6.05C249.63,302.45,267.08,294.72,257,283.35Zm180.65-3.29c-13.13-9.69-23.49-15.94-39.36-13.68-18,2.58-29.12,10.69-40.19,20.08,8.23,9,25.05,10.4,41.26,9.31,13.15-.89,22.41-4.65,33.19-10.51C435.07,283.86,442.71,283.82,437.61,280.06Zm81.75-12.14c8.37-1.43,16.28,1.95,28.55-2.39,10.23-3.63,19.34-11.64,22.89-22.39-10.58-3.61-19.46-6.36-31.27-3.33-14,3.61-19.33,9.25-27.89,24.86C508.28,270.81,516.48,268.41,519.36,267.92Z"/>
  </g>
  <g class="skinOverlapLine">
    <path d="M524,1246.76c-10.76,17.35-9.13,24.4-16.53,43.43"/>
    <path d="M544.1,1284.65c-2.57,11.56-11.2,34.11-16.08,37.83"/>
    <path d="M574.29,1285.29c-4.95,22.47-8.46,27.91-14.94,39.31"/>
    <path d="M603.2,1279.22c-3.75,15.33-6.73,21.45-10.94,30.39"/>
    <path d="M65.29,1134.87c-27.57,29.78-14.33,36.39-41.47,60-1.74,23.58,39,9.76,44.28-9.07,4.67-7.18,12.2-14.07,21.34-20.81,11,2.63,42.37-10.91,51.6-34.3"/>
    <path d="M30.29,1261.32c9.24-12.67,7.06-29.39,2-37.75a35.6,35.6,0,0,0,4-16.22"/>
    <path d="M59.5,1270.27c6.93-19.08-.71-36.16-9.43-40.89a92.93,92.93,0,0,0,1.12-26.13"/>
    <path d="M81.64,1248.13c-1-10.39-6.37-24-13.76-27.11a62.86,62.86,0,0,0-4-27.55"/>
  </g>
  <g class="skinFoldLine">
    <path d="M349.3,1666.92c-8.29-3.83-16.45-8.41-24-16.22"/>
    <path d="M244.13,308.45c-31.61-51.54-63.4,13.53-16.67,41.3"/>
    <path d="M251.87,321.54c-13,12.22,18.92,20.5,7.25,29.68-7.91,6.22-8-9.13-17.55-11.39-22.68-5.39-17.5-32.42-8.12-26"/>
  </g>
  <path class="skinEdge" d="M621,1265.39c-7.71-1.28-13.37,7.92-25.08,3.72-12.18-4.36-17.58,7.8-26,4-19.91-9-22.12,1.57-35-4.86"/>
  <g class="head49">
    <path class="lipFemaleDark__noStroke" d="M464.6,425.69a88.09,88.09,0,0,0,14.22-7.8L523,404.29c4.08.68,8.62.15,13.41-1.05-4.19,6.87-1.49,9.35-2.74,17-3.89,23.8-33.39,36.7-57.6,14C471.09,429.58,471.08,425.92,464.6,425.69Z"/>
    <path class="lipFemaleDark" d="M452.21,429.07c24.77-14,26.34-35.38,45.46-34.95,8.35.19,12.66-6.55,21.57-3.71,8.15,2.6,11.18,8.13,23.33,10.61-6.56,2.86-13.11,4.16-19.62,3.27l-44.13,13.6C469.46,424.09,460.52,428.19,452.21,429.07Z"/>
    <path class="lipEdgeLine" d="M533.62,420.21c-3.89,23.8-33.39,36.7-57.6,14"/>
    <path class="teeth" d="M478.82,417.89c20.1,4.45,34.68-.3,44.13-13.6-13.51-3.15-12.42,4-22.08,3C490.68,406.21,487.59,412.77,478.82,417.89Z"/>
    <g class="noseLine">
      <path d="M518.48,314.22c3,11.48,22.7,15.74,12.16,36.25"/>
      <path d="M451.61,340.67c-5.85,5.14-5,22.25,4.27,26.51"/>
      <path d="M469.35,366.21c4.65-9.33,32.71,13.43,55.8-17.11"/>
    </g>
    <g class="eyeFoldLine">
      <path d="M569.17,268.35c-7.25,8.3-22.36,17.54-38.87,11"/>
      <path d="M430.84,298.23c-7.51,7.78-36.62,18.66-54.27,10.38"/>
    </g>
    <g class="eyeCornerLine">
      <path d="M570.8,243.14c2.53.54,4,1.17,6.28.4"/>
      <path d="M350.32,290.23c3.1-.2,5.19-1.67,7.74-3.77"/>
    </g>
    <g class="eyeCreaseLine">
      <path d="M352.3,276.28c13.52-15.44,44.57-25.4,66.78-16.39"/>
      <path d="M508.86,251.36c8-18.82,33.63-32.16,56-18.34"/>
    </g>
    <g class="eyebrowBlack">
      <path d="M337.54,256.35c31.78-40.7,55.48-20.41,97.74-35.51C418.37,253.09,367.24,232.7,337.54,256.35Z"/>
      <path d="M498.39,208.42c26,1.3,46.61-28.7,80.26,2.45C542.92,199.9,522.52,224.25,498.39,208.42Z"/>
    </g>
  </g>
</svg>
