<svg id="presence" xmlns="http://www.w3.org/2000/svg" viewBox="0 0 1076.43 1627.18">
  <defs>
    <style>
      .cls-1 {
        fill: none;
        stroke: #000;
        stroke-miterlimit: 10;
        stroke-width: 2px;
      }
    </style>
  </defs>
  <title>snickering</title>
  <g id="estherSole">
    <path class="cls-1" d="M69.25,1472.37c-39.32-8.84-67.15-3.61-68.19,29.81-2.52,24.26,70.1,70.23,115.25,82.78,49.49,13.75,104.59,46.84,132.15,40.4a45.88,45.88,0,0,0,18.41-23.28Z"/>
    <path class="cls-1" d="M912.49,1502.72c-10.5,38.91-6.45,66.94,26.89,69.38,24.14,3.56,74.14-66.06,88.58-110.64,15.83-48.86,52.22-107.52,47-135.33a45.92,45.92,0,0,0-22.48-19.38Z"/>
  </g>
  <g id="estherShoe">
    <path class="cls-1" d="M296.76,1516.15c.19,29.29-12.2,58.1-29.89,85.93-12,10.87-85.07-23-136.23-36.16-25.94-6.66-50.47-22.4-66.55-35.7,8.26-25.83,10-35.91,5.16-57.85,35.14,6.17,74.82-4.51,119.61-15.41C251.59,1450.83,291,1474.85,296.76,1516.15Z"/>
    <path class="cls-1" d="M966.84,1277.27c29.27,1,58.53,10.63,85.59,29.48,9.76,11.7-27,87.07-42.88,139.59-7.76,25.64-25.52,48.48-39.48,64-25.46-9.35-35.46-11.55-57.58-7.6,7.64-34.85-.35-73.94-9.35-119.15C899.67,1320.63,925.34,1281.25,966.84,1277.27Z"/>
  </g>
  <g id="estherShoeStrap">
    <path class="cls-1" d="M194,1495.35l-29,6.37a96,96,0,0,0-15.05-34.06c-4.17-6,21.42-14.67,25.94-9A91.55,91.55,0,0,1,194,1495.35Z"/>
    <path class="cls-1" d="M144.46,1504.51l-29.52,3c-.85-12.42-5.48-24.86-10.23-34-3.12-6,23.92-9.43,26.89-3.36C136.34,1479.82,141.67,1490.9,144.46,1504.51Z"/>
    <path class="cls-1" d="M954.73,1409c-16.92,3.18-30.91,5.27-43.69,15.17-4.82,3.73-9.94-23.74-4.71-28.16,13.47-11.41,27.3-13.55,45-16S972.67,1405.59,954.73,1409Z"/>
    <path class="cls-1" d="M913.24,1443.13c14.12-7.29,24.71-8.94,41.12-9.25,18.26-.34,17.9,28.89.47,29.69-15.58.7-26.38,2.13-39.28,8.59C911.17,1474.35,908.37,1445.64,913.24,1443.13Z"/>
  </g>
  <g id="estherSock">
    <path class="cls-1" d="M200.78,1459.85c22.56,6.28,22.55,24.08,26.49,29,12.23,15.29,54.18,22,58.94,18,12.78-95.36,103.39-143.36,128.65-280.61-32-.52-111.51-22.12-142.89-43.12C248.07,1277.18,229.58,1389.9,200.78,1459.85Z"/>
    <path class="cls-1" d="M962.67,1281.56c-131.89-58.6-178.36-158.29-259.58-169.88-8.15,39.74-43.63,122.83-65.27,134.38,110.73,37.5,230.51,77.74,271.07,112.89,5.81-14.78,32.78-13,37.86-18.93C960.5,1324,968.75,1286,962.67,1281.56Z"/>
  </g>
  <g id="estherSockStripe">
    <path class="cls-1" d="M258.21,1241.05c29.58,20.47,106.24,41.69,140.57,43.54,3.44-9.21,6.6-18.87,9.39-29-32.46-.69-112.49-22.54-143.24-43.61Q261.53,1226.34,258.21,1241.05Z"/>
    <path class="cls-1" d="M249.51,1280.12c32.7,19.28,101.08,38.34,133.41,40.48,4.18-8.25,8.17-16.86,11.89-25.92-32.43-1.42-107.26-22.28-139-42.7C253.66,1261.34,251.59,1270.74,249.51,1280.12Z"/>
    <path class="cls-1" d="M668.23,1256.37c9.88,3.35,19.77,6.73,29.6,10.11,23.41-23.67,56.63-95.66,59.09-133.21A159.28,159.28,0,0,0,730,1119C728.39,1157.37,692,1235.33,668.23,1256.37Z"/>
    <path class="cls-1" d="M736.24,1279.88c23.64-24.44,51.32-80.55,55.59-120.05-8.71-7.36-17.22-14.21-25.75-20.32-1.77,38.93-34.45,106.16-57.87,130.55Q722.36,1275,736.24,1279.88Z"/>
  </g>
  <g id="skinBlack">
    <path class="cls-1" d="M494.88,1081.74C476.49,977.8,458.63,873.09,372.43,870.33c-45.92,97.39-62,186.42-76.75,220.36-21,48.1-13.78,55.72-15.8,62.86-2.71,9.6-5.34,19.49-7.91,29.6,31.38,21,110.92,42.6,142.89,43.12,2.09-11.34,3.73-23.28,4.85-35.91C420.79,1178,465.67,1120,494.88,1081.74Z"/>
    <path class="cls-1" d="M703.09,1111.68a109.43,109.43,0,0,0-16.06-1.12c-9.73-.28-22.59-134.12-20.14-217.36C579.54,833,500.06,838.91,430,924.09c69.34,166.84,109,294.6,207.79,322C659.46,1234.51,694.94,1151.42,703.09,1111.68Z"/>
  </g>
  <g id="estherShorts">
    <path class="cls-1" d="M389.67,814.63c-11.75,24.81-9.71,43-26,54.76,2.57,13.49,36.28,33.82,58,36.91Z"/>
    <path class="cls-1" d="M643.5,623.18c10.61,18.42,29.28,25.94,27.91,40.79,21.22,50.11,47.34,122.58,20.4,239.39-18.77,12.47-99.08-3.85-135.27-33.28-24.16,36.52-88.52,57.5-134.19,54.75-20.25-15-11.64-45-25.5-69.72-24.16-43.09-16.32-92.06-27.42-150.83Z"/>
  </g>
  <g id="estherShortsStripe">
    <path class="cls-1" d="M405.74,884.52c-11.29-5-23.89-15-32.31-26a33.87,33.87,0,0,1-9.8,10.87c2.12,11.09,25.27,26.79,45.52,33.75C407.66,897.3,406.79,891,405.74,884.52Z"/>
    <path class="cls-1" d="M563.14,851.56c9.45-59.81,2-118.71-15.21-177.07-6.16,2-12.43,4-18.74,6C548,730.19,557.7,831.85,539.44,861.14c-20.45,32.79-92.15,52.1-129.29,45.5,2.25,7.15,5.77,13.43,12.2,18.19,45.67,2.75,110-18.23,134.19-54.75,36.19,29.43,116.5,45.75,135.27,33.28q2-8.79,3.65-17.25C646.55,894.18,594.41,874.75,563.14,851.56Z"/>
  </g>
  <g id="clothesFoldLine">
    <path class="cls-1" d="M408.8,851.45c14.58-36.46,55.89-57.63,35.75-24.3"/>
    <path class="cls-1" d="M449.76,845.2c-12.9,5.75-23.84,13.65-31.94,24.65"/>
    <path class="cls-1" d="M671.41,664c-1.19,6.2-17.87,16-40.78,19.8"/>
  </g>
  <path id="estherShirt" class="cls-1" d="M498.54,86.83c93.84,92.8,113.6,261.55,118.92,349,2,32.73,28.12,41.8,5.32,87.41,6.08,58.53,50.93,33.45,29.65,78.29-9.13,22.81,9.88,18.25,2.28,29.65-37.53,25.09-232.6,88.17-288.09,84.37-11.32-9.26-.76-34.2-6.84-47.89-29.65-19-29-111-35-173.3C314.6,388.1,298.21,261,349.33,144.87Z"/>
  <g id="estherCollar">
    <path class="cls-1" d="M344.74,125.59c-7.65,11.17-1.82,40.6.61,58.78,52.11-69.69,140-64.23,161.79-93.93,4.14-3.37-18.28-39.72-22.42-36.35C450.49,62.3,377.46,100.75,344.74,125.59Z"/>
    <path class="cls-1" d="M540.56,290.57c-27,12.41-86.62,36.41-114,45.32-2.69,1.22,5.22,22.36,7.87,21.16,29-9,81.39-29.58,113.68-45.31C550.87,308.47,543.46,289.34,540.56,290.57Z"/>
  </g>
  <g id="clothesOverlapLine">
    <path class="cls-1" d="M527.65,234.1c3.19,26.14,22.46,39.87,12.91,56.47"/>
    <path class="cls-1" d="M365.11,241.12c10.2,17.21,24.86,23.58,30.6,35.69,17.84,26.77,15.3,56.73,30.89,59.08"/>
  </g>
  <g id="clothesFoldLine-2" data-name="clothesFoldLine">
    <path class="cls-1" d="M515.54,201.22c6.45,5.38,9.51,18.61,12.11,32.88,9.55-30.95-1.58-57.85-19.06-83.51"/>
    <path class="cls-1" d="M436.12,240.93c3.67,22.16,4,44.65-4.47,68"/>
    <path class="cls-1" d="M381,217.1c-1.29,19.31,4.43,39.29,14.69,59.71-11.34-3.23-21.25-3.55-29.58-.64"/>
    <path class="cls-1" d="M570.14,539.24a228.19,228.19,0,0,1-63,47.15"/>
    <path class="cls-1" d="M622.78,523.21C605.93,545.81,586.61,564,563.19,575"/>
    <path class="cls-1" d="M626.72,581.92c-36.56,28.59-78.47,50.57-126.07,65.52"/>
    <path class="cls-1" d="M652.43,601.5c-7,12.22-30.18,18.64-46.56,34"/>
    <path class="cls-1" d="M359.78,667.63c18.27,13.07,64.78,3.51,32.16,21.51"/>
  </g>
  <g id="skinBlack-2" data-name="skinBlack">
    <path class="cls-1" d="M339,66.81l8.22,56.94c32.72-24.07,99.68-59.33,134.22-68.82L464.05.3"/>
    <path class="cls-1" d="M258.64,375.2c97.23,56.88,156.18,147.9,237.89,141.69,11.87-.9,41.3.34,50.68-14,31.06-47.36,22.65-116.2-.51-190.49-31.74,15.33-81.56,35-110.47,44.06,3.13,9.58,7.78,17.76,13.24,25.94-49.13-17.07-70.33-6.21-160.31-72.4"/>
  </g>
  <path id="lacosteLogo" class="cls-1" d="M327.94,268.5c-21.31,25.49.19,24.79,14.59,23.05C347.33,269.19,315.84,291.9,327.94,268.5Z"/>
</svg>
