<svg viewBox="0 0 279.53 280.58">
    <path class="globeInner" d="M192.56,1a86,86,0,0,1,86,86c0,47.48-38.49,77.47-86,77.47s-86-30-86-77.47A86,86,0,0,1,192.56,1Z"/>
    <path class="snowSide" d="M208.82,131.43c-33,5.83-50.38-12.61-91.54-5,14.65,24,42.86,38,75.28,38,31.2,0,58.52-12.95,73.58-35.31C245.78,125.86,226,128.39,208.82,131.43Z"/>
    <path class="base" d="M120.94,178.07c-.09-15.45.65-30.32,9.41-34.77,20.45,5.28,104,5.28,124.42,0,8.76,4.45,9.5,19.32,9.41,34.77C264.18,189.61,120.94,189.61,120.94,178.07Z"/>
    <path class="reflectionOuter" d="M223.21,20.35c-7.17,5.29-4.71,19.9,5,33s22.91,19.79,30.08,14.5,5.57-20.53-4.1-33.65S230.39,15.07,223.21,20.35Z"/>
    <path class="reflectionInner" d="M231.31,29.71c-4.18,3.08-2.75,11.59,2.88,19.24s13.35,11.53,17.53,8.45,3.25-12-2.39-19.61S235.49,26.63,231.31,29.71Z"/>
    <path class="globeInner" d="M105.29,54.27A104.29,104.29,0,0,1,209.58,158.56c0,57.59-46.69,94-104.29,94S1,216.15,1,158.56A104.29,104.29,0,0,1,105.29,54.27Z"/>
    <path class="snowSide" d="M125,212.49c-40,7.07-61.12-15.3-111-6,17.77,29.08,52,46,91.32,46,37.85,0,71-15.71,89.27-42.83C169.86,205.73,145.88,208.8,125,212.49Z"/>
    <path class="base" d="M18.41,269.07c-.11-18.74.79-36.78,11.41-42.18,24.81,6.41,126.14,6.41,150.94,0,10.63,5.4,11.53,23.44,11.42,42.18C192.18,283.08,18.41,283.08,18.41,269.07Z"/>
    <path class="reflectionOuter" d="M142.48,77.74c-8.7,6.42-5.72,24.14,6,40.06s27.78,24,36.49,17.6,6.75-24.9-5-40.83S151.18,71.33,142.48,77.74Z"/>
    <path class="reflectionInner" d="M152.3,89.09c-5.07,3.74-3.34,14.07,3.5,23.34s16.19,14,21.27,10.26,3.93-14.52-2.91-23.79S157.37,85.35,152.3,89.09Z"/>
</svg>
