<svg viewBox="0 0 77.15 45.83">
  <g class="bennettShoeLining">
    <path d="M27,18.09,26.57,4.33c-.47-2.8-15.21-1.8-26-.67Z"/>
    <path d="M27,2.15a11.87,11.87,0,0,0,3.21-.62c-.56-.49-4-2.36-3.21.62Z"/>
  </g>
  <path class="soleWhite" d="M47.4,30.1c8.75,2.18,14.71,6,13.09,12.82-6,2.56-24.35,1.41-34,1.83C14.32,45.27,5.75,45.9,2,44.38c-.91-.37-1.46-3.71-.95-5.82"/>
  <path class="bennettShoe" d="M1.05,38.56c2.13.9,15.38.85,23.17.53,6.3-.27,14.8.63,22.7-.27a20.58,20.58,0,0,0,.48-8.72c-6.2-2.1-13.07-6.4-14.79-9C29,15.79,29.12,8.78,30.19,1.53c-1.35.76-5,.26-4.9,1.63A144.36,144.36,0,0,0,27,18.09c-2.4-5-3-11.83-4.62-13.79C20.32,1.74,1.84,2.5.55,3.66,3.75,18,.06,35.59,1.05,38.56Z"/>
  <g class="shoelace">
    <path d="M50.45,11.66c.37,1.47-6.86,2.65-10.64.27C44.24,8.7,50.07,10.12,50.45,11.66ZM26.56,20.37c5.07-2,8-4.57,11.85-7.42,3.08,2.12,9.51,2.46,12.56.9,1.93-1,1.84-3.74-.58-4.66C46.13,7.56,41.94,8.6,38.31,11a12.72,12.72,0,0,0-3.58-1.61L30.78,7.42l-.32.67L34.31,10A6.13,6.13,0,0,0,36.8,12c-3.5,2.51-6.94,5.52-11,6.61C24.66,19,25.44,20.81,26.56,20.37Z"/>
    <path d="M31.92,20c9.42,1.41,13,5.24,24.25,5,3.42-.07,3.74,1,9.4.28,2.62-.34,5,.18,6.15-.27l4.93-.12,0-.83-4.9.09c-1.14-.66-3.72-.71-6.25-.38-5.2.68-5.72-.28-9.28-.25-12.62.11-14.12-3.63-25.15-5.36A15.66,15.66,0,0,0,31.92,20Z"/>
    <path d="M29.73,21.85c3.52,3.92,6.33,5.81,10.59,6.41a6,6,0,0,0,.77-.9c-4-2.08-7.34-4.53-8.48-6.21-.25-.37-.48-.75-.69-1.13A15.49,15.49,0,0,1,29.73,21.85Z"/>
  </g>
  <circle class="converseLogo" cx="14.12" cy="28.02" r="5.73"/>
  <g class="clothesOverlapLine">
    <path d="M39.15,26.29a7.47,7.47,0,0,1-1.26,1.39"/>
    <path d="M37,24.93a20.06,20.06,0,0,1-1.58,1.66"/>
    <path d="M35,23.52a8.16,8.16,0,0,1-1.75,1.71"/>
    <path d="M33.28,22a9.51,9.51,0,0,1-1.84,1.78"/>
    <path d="M29.73,21.85a8.57,8.57,0,0,1-1.82-2.05"/>
    <line x1="38.41" y1="12.95" x2="39.81" y2="11.93"/>
    <line x1="36.8" y1="12.02" x2="38.31" y2="10.98"/>
  </g>
  <path class="clothesDisplayLine" d="M46.92,38.82c4.58-.24,9.62-.28,13.19-1.1"/>
</svg>
