<svg viewBox="0 0 81.17 17.92">
  <polygon class="postalLetterLight" points="51.53 6.58 77.69 10.75 26.82 17.41 3.08 12.47 51.53 6.58"/>
  <g class="paperBorderLine">
    <path d="M26.82,17.41C29.23,14.69,46,7.91,51.53,6.58"/>
    <path d="M77.69,10.75c-11.56-2.21-68,.79-74.61,1.72"/>
  </g>
  <path class="postalLetterMedium" d="M3.08,12.47l15-10.83a1.17,1.17,0,0,0,1.77.29,2.43,2.43,0,0,1,1.57,1.45A3.29,3.29,0,0,1,23,3.23a1.25,1.25,0,0,0,1.59.41C25.76,4.42,26,3,27.38,4a2.74,2.74,0,0,1,.84,1.69,8.58,8.58,0,0,1,1-2.55c.76,0,1-.71,1.47-.64s1.07.3,1.48-.52c1.22-.18,1-1.58,2.21-1.42L51.53,6.58Z"/>
  <path class="postalLetterLight" d="M33.78,11.84c-.05-.2.43-.3,1.26-.35.47-.18.56-.35.35-.5a10.34,10.34,0,0,0,1.39-.24c.07-.2.47-.29,1-.34.43-.32,1.48-.13,2-.51.12-.1,0-.26-.39-.42,1,.1,1.59.24,2.42.25.65-.12,1.23,0,1.61-.14A3.48,3.48,0,0,1,45,9.43c1.1-.18,1.83.09,2.69-.14l-3.88,2.55Z"/>
</svg>
