<svg viewBox="0 0 125.19 49.58">
  <polygon class="dullMagentaMedium" points="69.73 0.65 69.73 20.78 124.69 28.52 124.69 8.4 69.73 0.65"/>
  <g class="dullMagentaMediumLight">
    <polygon points="32.01 10.87 69.73 0.65 69.73 20.78 32.01 30.53 32.01 10.87"/>
    <polygon points="49.87 13.6 87.44 3.23 87.44 23.51 49.87 33.73 49.87 13.6"/>
    <polygon points="67.73 16.26 105.14 5.73 105.14 26.16 67.73 36.84 67.73 16.26"/>
  </g>
  <g class="dollarEdge">
    <path d="M114.44,9.14A26.68,26.68,0,0,0,109,8.3a11.55,11.55,0,0,1-3.58-.85c-1.37.25-2.85,1.44-4.41,1.84-4.39,1.14-5.17,1.9-9.38,2.83-3.07.68-8.11,2.83-15.06,5.34l10.87,1.61,31.89-9.14A20.59,20.59,0,0,1,114.44,9.14Z"/>
    <path d="M50.09,13.54,81.6,4.85c-1.09-.19-2-.41-2.75-.45-2.1-.15-3.2-.75-5.23-.77a6.75,6.75,0,0,1-3.44-.77,30.41,30.41,0,0,0-4.71,1.7c-4,1.58-6.67,1.9-10.63,3.05-3.08.9-6.66,2.43-13.29,4.67Z"/>
    <path d="M68,16.19,99.05,7.45a20.11,20.11,0,0,0-3.91-.59A20.39,20.39,0,0,1,90.28,6a25.38,25.38,0,0,0-3.81-.73A19.77,19.77,0,0,1,81,7.36C76.76,8.59,76.4,9,72.37,10c-2.94.72-7.16,2.55-13.56,4.87Z"/>
  </g>
  <g class="dollarCentre">
    <path d="M112.82,10a21.38,21.38,0,0,0-4.93-.74,8.94,8.94,0,0,1-5.18.37C97.8,10.82,95.63,12,92.33,12.75a42,42,0,0,0-8,2.89l-7.23,1.91,10.29,1.52,25.9-7.42.44-.14A1.62,1.62,0,0,1,112.82,10Z"/>
    <path d="M50.66,13.39,77.52,6a1.18,1.18,0,0,1-.23-.81c-1.46-.08-3.12-.72-4.74-.67a10.71,10.71,0,0,1-5.38.22,81.64,81.64,0,0,1-11,3.36A32.06,32.06,0,0,0,50,10.31l-8.08,2Z"/>
    <path d="M68,16.19,94.1,8.84a1.36,1.36,0,0,1-.51-1.18c-1.39.11-3-.68-4.46-.88a9.28,9.28,0,0,1-5.26.53c-5.47,1.39-8.29,2.75-11.33,3.37a23.24,23.24,0,0,0-6.29,2.42l-6.87,1.82Z"/>
  </g>
  <g class="dollarSeal">
    <path d="M85.59,11.23l3.72-1s0,0,0-.07c0-.53-1.27-.87-2.75-.76S83.92,10,84,10.48,84.65,11.15,85.59,11.23Z"/>
    <path d="M68.54,8.45l4.24-1.17a3.67,3.67,0,0,0-2.65-.52c-1.48.09-2.65.57-2.62,1.06C67.53,8.1,67.93,8.32,68.54,8.45Z"/>
    <path d="M105.56,13.88c1.08,0,3.21-.42,3.14-1.19,0-.54-1.32-.89-2.85-.79s-2.76.63-2.72,1.17S104.21,13.9,105.56,13.88Z"/>
  </g>
  <g class="dollarPortrait">
    <path d="M101.15,15.14c-3.56-1.32-8.27-1.62-10.23-.84-1.57.64-1.84,2.34,0,3.77C90.94,18.07,101.37,15.23,101.15,15.14Z"/>
    <path d="M81.56,12.37c-3.39-1.24-7.16-1.3-9-.55-1.36.55-1.7,1.94-.44,3.21Z"/>
    <path d="M64.84,9.47c-3.28-1-6.81-1.05-8.6-.37a1.63,1.63,0,0,0-.57,2.9Z"/>
  </g>
  <polygon class="dullMagentaLight" points="56.57 48.81 4.17 37.73 32.01 10.89 87.44 19.07 56.57 48.81"/>
  <polygon class="dullMagentaMediumLight" points="60.44 25.75 34.03 21.63 24.83 30.14 50.64 34.81 60.44 25.75"/>
  <g class="dullMagentaMedium">
    <polygon points="68.92 36.91 87.44 40.12 87.44 19.07 68.92 36.91"/>
    <polygon points="53.76 45.12 56.57 48.81 4.17 37.73 1.48 34.98 53.76 45.12"/>
    <polygon points="85.28 14.91 29.81 7.7 32.01 10.89 81.81 18.24 85.28 14.91"/>
  </g>
  <g class="dullMagentaMediumLight">
    <polygon points="87.44 40.12 124.69 28.52 124.69 8.4 87.44 19.07 87.44 40.12"/>
    <polygon points="32.01 10.89 29.81 7.7 1.48 34.98 6.09 35.87 32.01 10.89"/>
    <polygon points="87.44 19.07 85.28 14.91 53.76 45.12 56.57 48.81 87.44 19.07"/>
  </g>
</svg>
