<svg viewBox="0 0 495.37 363.08">
  <g class="hiHat">
    <path class="brassLight" d="M359.43,344.72c.43-.46,3.94-.75,8.52-.8,3.3,0,13.18,0,13.18,0C375.57,345.28,361.63,348.9,359.43,344.72Z"/>
    <g class="brassMedium">
      <polygon points="370.95 345.94 436.63 329.12 437.54 333.07 371.81 349.95 370.95 345.94"/>
      <path d="M359.43,344.72C360.64,346,368,346,371,345.94v4.16c-3,.09-10.31.08-11.52-1.23Z"/>
    </g>
    <ellipse class="cymbalInner" cx="435.9" cy="129.72" rx="45.41" ry="2.02"/>
    <g class="steelDark">
      <path d="M436.69,132.08V93.71c0-.31-1.83-.31-1.83,0v38.37Z"/>
      <polygon points="436.56 329.13 436.56 313.77 434.99 313.77 434.99 329.54 436.56 329.13"/>
    </g>
    <g class="brassDarkest">
      <path d="M442.71,347.49a2.73,2.73,0,0,1,2.54,3.84c-1.11,2-4.43,2.36-8.28,2.45-8.27.19-17.37-.49-18.78-1.65a1.94,1.94,0,0,1,1-3.53h2.44c2.42,0,4-5.25,4.2-9.58,0,0,.09-13.77,0-18.76-.06-4,1.27-7.07,4.29-7.53a3,3,0,0,1,3.1,2.16c-.87,3,2.49,24.64-2.56,33.63C436.83,349.09,441.44,349,442.71,347.49Z"/>
      <path d="M442.67,318.62a8.68,8.68,0,0,0-1.58-4.24,13.68,13.68,0,0,1-4.38.59,25.62,25.62,0,0,1,1.46,7.81,86.74,86.74,0,0,1-.4,15.37,28,28,0,0,1-2.48,8.8h0c1.7,0,3.38.07,5.31.22a28.25,28.25,0,0,0,2.11-8.1A86.81,86.81,0,0,0,442.67,318.62Z"/>
    </g>
    <path class="brassDark" d="M444.65,317.91a9.61,9.61,0,0,0-3.28-6.19V306c0-.86-11.19-.86-11.19,0v8.08c0,.42,1.35.69,3.1.82a8.72,8.72,0,0,0-.87,3c-.6,5.72-.12,15.47-.48,21.29-.35,5.53-1.95,8-3.85,10.94a76.63,76.63,0,0,0,12.4,0c3.41-.27,4.65-1.75,2.23-2.63a39.53,39.53,0,0,0,1.94-8.13A82.76,82.76,0,0,0,444.65,317.91Zm-1.94,21.16a28.25,28.25,0,0,1-2.11,8.1,51.31,51.31,0,0,0-8.2-.1,19.67,19.67,0,0,0,1.62-7.18c.48-5.7-.23-15.55.38-21.76a6.67,6.67,0,0,1,1.12-3.15c2.35,0,4.77-.19,5.57-.6a8.68,8.68,0,0,1,1.58,4.24A86.81,86.81,0,0,1,442.71,339.07Z"/>
    <g class="steelLight">
      <polygon points="430.72 261.59 383.77 345.76 386.72 348.48 430.72 267.78 430.72 261.59"/>
      <path d="M430.72,295l-18.62,3a2.15,2.15,0,1,0,.67,4.24l18-2.93Z"/>
      <polyline points="459.32 302.34 440.83 299.3 440.83 295 456.76 297.56"/>
      <polygon points="440.83 261.59 487.78 345.76 484.83 348.48 440.83 267.78 440.83 261.59"/>
    </g>
    <g class="pad">
      <path d="M387.54,343.67l-4.45-.08-6.36,6.89a7.13,7.13,0,0,0,4.41,4.48,37.13,37.13,0,0,0,5.37,0c2.24-.54,3.76-6.76,3.76-6.76Z"/>
      <path d="M484,343.67l4.45-.08,6.36,6.89a7.13,7.13,0,0,1-4.41,4.48,37.14,37.14,0,0,1-5.37,0c-2.24-.54-3.76-6.76-3.76-6.76Z"/>
    </g>
    <path class="chromeMedium" d="M431.41,118c0-1,8.78-1,8.78,0V121c0,.52-8.78.52-8.78,0Z"/>
    <g class="cymbalOuter">
      <path d="M480.59,133.75c-3.84-.95-22.44-1.67-44.82-1.67s-40.84.72-44.76,1.66c4,2.52,15.37,4.39,30,5.26a13.63,13.63,0,0,1,6.58,2.21,15.43,15.43,0,0,0,16.24.08,13.17,13.17,0,0,1,6.37-2C464.7,138.5,475.63,136.36,480.59,133.75Z"/>
      <path d="M450.45,123.92a13.62,13.62,0,0,1-6.55-2.15,15.44,15.44,0,0,0-16.2,0,13.64,13.64,0,0,1-6.53,2.14c-14.89.83-26.42,2.89-30.29,5.46,3.63-.95,22.35-1.68,44.89-1.68,22.72,0,41.16.72,45,1.71C476.94,126.83,465.39,124.75,450.45,123.92Z"/>
    </g>
    <path class="padding" d="M429.66,142.56c0-1,12.29-1,12.29,0v4.12c0,.52-12.29.52-12.29,0Z"/>
    <g class="chromeLight">
      <path d="M431.16,146.6c0-.73,9.29-.73,9.29,0v5.66c0,.52-9.29.52-9.29,0Z"/>
      <path d="M438.44,117.36v-5.53c0-1.26-5.28-1.26-5.28,0v5.53A27.4,27.4,0,0,1,438.44,117.36Z"/>
    </g>
    <g class="steelDark">
      <path d="M430.72,300c0,.93,10.11.93,10.11,0v-6.28c0-.66-10.11-.66-10.11,0Z"/>
      <path d="M431,221.34c0,1.39,9.49,1.39,9.49,0,1.16-5.36,2-8.21,0-11.44-.81-1.2-8.71-1.13-9.49,0C429.11,213.06,429.79,216.11,431,221.34Z"/>
      <path d="M430.64,267.67c0,.73,10.1.73,10.1,0v-6.43c0-.52-10.1-.52-10.1,0Z"/>
    </g>
    <g class="steelMedium">
      <path d="M432,221.76v39.66c0,.48,7.55.48,7.55,0V221.76A34,34,0,0,1,432,221.76Z"/>
      <path d="M432.56,152.23v57.48c0,.48,6.43.48,6.43,0V152.23C439,151.79,432.56,151.79,432.56,152.23Z"/>
      <path d="M432,268.05v25.67c0,.59,7.55.59,7.55,0V268.05A43.27,43.27,0,0,1,432,268.05Z"/>
      <path d="M432,300.52v5.38c0,1.06,7.55,1.06,7.55,0v-5.38A32.87,32.87,0,0,1,432,300.52Z"/>
    </g>
  </g>
  <g class="snare">
    <g class="pad">
      <path d="M324,344.89l4,5.64s-3,6.54-6.93,6.28-6.1-3.47-6.82-6.09Z"/>
      <path d="M396.6,348.41l4.4-.63,7.18,6a7.12,7.12,0,0,1-3.81,5,37,37,0,0,1-5.33.71c-2.29-.26-4.57-6.24-4.57-6.24Z"/>
      <path d="M377.54,344.57a58.89,58.89,0,0,1,1.86,10,37.16,37.16,0,0,1-7.89,0,18.14,18.14,0,0,1-.3-10Z"/>
    </g>
    <g class="steelMediumLight">
      <polygon points="367.67 320.13 374.63 344.57 374.56 348.76 367.67 324.68 367.67 320.13"/>
      <polygon points="372.91 237.2 386.18 229.09 389.22 225.51 410.54 211.88 407.7 212.59 388.75 224.48 385.46 225.44 372.32 233.47 372.91 237.2"/>
      <polygon points="365.98 238.31 348.54 234.11 344.12 231.32 321.38 225.94 325.09 225.82 344.41 230.26 348.54 230.46 365.38 234.58 365.98 238.31"/>
      <path d="M356.66,236.06l11.27,11.86c2.12,2,0,5.39-2.2,3.22l-15.8-16.7Z"/>
      <path d="M383,231l-6.09,18.48c-.91,2.47-4,.21-3.09-2.13l4.49-13.48Z"/>
    </g>
    <g class="steelLight">
      <polygon points="367.67 319.35 400.29 349.35 397.49 352.52 367.67 325.08 367.67 319.35"/>
      <path d="M324.57,345.69l37.23-26.34s0,5.87,0,5.9l-34.58,24.19Z"/>
      <polygon points="376.69 333.27 368.66 338.9 368.66 342.48 379.03 335.39 376.69 333.27"/>
      <polygon points="347.2 335.48 360.85 342.48 360.85 338.9 350.27 333.33 347.2 335.48"/>
      <polygon points="374.46 219.02 372.19 228.99 370.72 231.43 370.26 237.38 369.3 237.51 369.76 231.43 368.74 228.99 368.87 219.95 374.46 219.02"/>
    </g>
    <g class="steelDark">
      <path d="M360.85,342.48c0,.72,7.81.72,7.81,0V338.9c0-.51-7.81-.51-7.81,0Z"/>
      <path d="M361.09,288.19c0,1.08,7.33,1.08,7.33,0,.9-4.13,1.56-6.33,0-8.83-.63-.93-6.73-.87-7.33,0C359.61,281.8,360.13,284.15,361.09,288.19Z"/>
      <path d="M360.79,319.06c0,.56,7.8.56,7.8,0v-3.39c0-.4-7.8-.4-7.8,0Z"/>
      <path d="M370.8,266.27c.09.57,6.31-.42,6.22-1l-1.93-12.1c-.09-.55-6.31.44-6.22,1Z"/>
      <path d="M366,238.31c.1.63,7-.47,6.93-1.11l-.59-3.73c-.1-.61-7,.5-6.94,1.11Z"/>
    </g>
    <g class="steelMedium">
      <path d="M361.84,319.35v19.52c0,.46,5.83.46,5.83,0V319.35A33.39,33.39,0,0,1,361.84,319.35Z"/>
      <path d="M361.84,288.71v27.1c0,.37,5.83.37,5.83,0v-27.1A14.67,14.67,0,0,1,361.84,288.71Z"/>
      <path d="M362.27,268.22v11c0,.36,5,.36,5,0v-11S361.07,268.16,362.27,268.22Z"/>
      <path d="M369.51,254.09c.07.46,5-.33,4.95-.79l-2.53-15.87c-.07-.44-5,.35-4.95.79Z"/>
    </g>
    <path class="shell" d="M360.7,175.79c-22.37,3.64-41,7.41-45.8,9.17l5.36,32.93c5.11.15,24-2.19,46.35-5.83s41-7.42,45.8-9.18L407.05,170C402,169.8,383.09,172.14,360.7,175.79Z"/>
    <g class="chromeLight">
      <path d="M315.07,186c-.78.09-1.13,0-1.37-.29L311.85,182c-.2-1.25,21.38-5.81,48.21-10.18S408.81,165,409,166.22l-.6,4c-.18.43-.58.61-1.19.71l-.17-1c-5.09-.16-24,2.18-46.35,5.83s-41,7.41-45.8,9.17Z"/>
      <path d="M360.06,171.86c23.09-3.76,42.53-6.15,47.64-6l-.6-3.7c-.2-1.2-21.56,1.27-47.71,5.53s-47.19,8.69-47,9.89l.6,3.7C317.77,179.52,337,175.62,360.06,171.86Z"/>
      <path d="M320.1,216.87c-.77.17-1.07.36-1.2.72l-.6,4c.2,1.26,22.11-1.27,48.94-5.64s48.42-8.92,48.21-10.18l-1.85-3.63c-.3-.36-.74-.4-1.35-.3l.16,1c-4.78,1.76-23.42,5.53-45.8,9.18s-41.24,6-46.35,5.83Z"/>
      <path d="M367.24,216c23.09-3.75,42.29-7.65,47.07-9.47l.6,3.71c.2,1.2-20.84,5.63-47,9.89s-47.52,6.73-47.71,5.53l-.61-3.71C324.71,222.14,344.16,219.74,367.24,216Z"/>
      <path d="M405.56,177.71l3,18.39,3.13-.51c3.59-.58.59-19-3-18.39Z"/>
      <path d="M318.84,191.83l3,18.39-3.13.51c-3.59.58-6.58-17.8-3-18.39Z"/>
      <path d="M342.82,187.93l3,18.39-3.13.51c-2.77.45-5.76-17.94-3-18.39Z"/>
      <path d="M381.52,181.63l3,18.39,3.14-.51c2.76-.45-.23-18.84-3-18.39Z"/>
      <path d="M367.22,268.19c1.77,0,3.22-2.65,3.22-5.92s-1.45-5.93-3.22-5.93h-5.06l-.4,11.8A49.53,49.53,0,0,0,367.22,268.19Z"/>
    </g>
    <ellipse class="chromeMedium" cx="362.16" cy="262.27" rx="3.22" ry="5.92"/>
    <ellipse class="chromeDark" cx="362.16" cy="262.27" rx="1.37" ry="2.52"/>
  </g>
  <g class="floorTom">
    <g class="pad">
      <path d="M60.69,349.71c-.32-.56-4.72-.78-5-.31A17.24,17.24,0,0,0,52.76,359c-.11,1.76,9.5,2.36,9.61.6A18.56,18.56,0,0,0,60.69,349.71Z"/>
      <path d="M72.66,346.5c-.29-.53-4.4-.73-4.69-.3a16.22,16.22,0,0,0-2.71,9c-.1,1.65,8.88,2.21,9,.57A17.29,17.29,0,0,0,72.66,346.5Z"/>
      <path d="M168.12,347.15c.36-.5,4.58-.18,4.82.3a16.66,16.66,0,0,1,1.61,9.52c-.1,1.69-9.33,1.12-9.22-.57A17.73,17.73,0,0,1,168.12,347.15Z"/>
    </g>
    <path class="steelMediumLight" d="M73.25,310.63l-1,16.19-3.37,16.56-.18,2.87c0,.54,3.23.74,3.26.2l.12-1.87L75.44,328,76.5,311Z"/>
    <path class="shell" d="M103.34,304.62s48,2.78,53.57.16l6.15-97L56.35,201l-6.16,97C55.42,301.31,103.34,304.62,103.34,304.62Z"/>
    <g class="chromeLight">
      <rect x="107.9" y="143.41" width="4.41" height="109.51" transform="translate(-94.64 295.49) rotate(-86.37)"/>
      <polygon points="164.35 207.84 55.07 200.9 53.91 196.8 166.02 203.92 164.35 207.84"/>
      <path d="M158.24,304.12a2.35,2.35,0,0,0-1.2-1.5l-.14,2.22c-5.6,2.59-53.56-.18-53.56-.18s-47.93-3.31-53.15-6.59l.14-2.23A2.4,2.4,0,0,0,49,297.18l-1.67,3.92c-.24,3.76,41.75,6.8,55.8,7.7s56.08,3.18,56.32-.58Z"/>
      <path d="M103.08,308.76c-12.51-.8-47.18-3.39-54.45-6.51l-.21,3.3c-.23,3.62,40.7,6.61,54.39,7.48s54.67,3.08,54.9-.54l.21-3.3C150.31,311.36,115.59,309.55,103.08,308.76Z"/>
      <path d="M93.26,284.25c1.51.1,3.18,12-.74,11.74C87.18,295.66,91.75,284.16,93.26,284.25Z"/>
      <path d="M153.14,286.19c1.51.1,6.71,12.22-.75,11.74C149.81,297.77,152.28,286.14,153.14,286.19Z"/>
      <path d="M97.13,223.39c1.51.09,4.66-11.5.74-11.75C92.54,211.3,95.62,223.29,97.13,223.39Z"/>
      <path d="M156.89,227.2c1.51.09,8.19-11.27.74-11.75C155.05,215.29,156,227.14,156.89,227.2Z"/>
      <path d="M51.42,278.74c-1.9.86-8.13,11-.74,11.66Z"/>
      <path d="M55.83,209.3c-7.42-.25-2.52,10.57-.75,11.66Z"/>
    </g>
    <g class="steelLight">
      <path d="M56.62,346.37l4.82-14.19,6.4-102.31c0-.63,3.53-.41,3.49.22L64.87,333.47l-4.82,14.19-.13,2c0,.58-3.53.36-3.49-.22Z"/>
      <path d="M172.39,344.3l-11.16-15.74,6.14-98c0-.61-3.31-.82-3.35-.21l-6.2,99.17L169,345.27l-.12,1.92c0,.56,3.32.77,3.35.21Z"/>
    </g>
    <path class="steelDark" d="M66.32,270l3.2,0c3.31.21,5.81,3.33,5.58,7a6.35,6.35,0,0,1-6.41,6.24l-3.19-.05Z"/>
    <g class="steelMedium">
      <path d="M164.56,274.32l-5.74-.36L158,287.18l5.74.36c.77,0,1.58-2.87,1.8-6.52S165.33,274.37,164.56,274.32Z"/>
      <ellipse cx="66.1" cy="276.6" rx="6.62" ry="6.15" transform="translate(-214.09 325.31) rotate(-86.42)"/>
    </g>
  </g>
  <g class="main">
    <g class="shell">
      <path d="M176.46,155.12c20.62,7.16,35.62,15.75,38,21.19l21.23-61.24c-2.67-4.57-18.51-12.8-38.51-19.74S159.61,85,154.71,87l-21.29,61.35C138.65,145.7,155.72,147.92,176.46,155.12Z"/>
      <path d="M318.07,149.57c19.49-6.67,35.68-8.82,40.71-5.95l-20-58.42c-4.71-2-21.3.93-40.2,7.4s-33.87,14.34-36.31,18.82l20,58.53C284.57,164.74,298.48,156.28,318.07,149.57Z"/>
      <circle cx="248.52" cy="281.43" r="74.16"/>
    </g>
    <g class="steelDark">
      <path d="M270.16,112.33c3.54-1.35,7.95,2.08,9.86,7.66s.6,11.2-2.94,12.55l-1.94.72-6.92-20.21Z"/>
      <path d="M226.89,118.9c-3.53-1.37-8,2-9.9,7.62s-.64,11.19,2.89,12.56l1.94.73,7-20.18Z"/>
    </g>
    <g class="steelMedium">
      <path d="M325.94,295.1,321.47,294,319,304.3l4.47,1.09c.6.15,1.64-2,2.33-4.88S326.54,295.24,325.94,295.1Z"/>
      <path d="M171.24,295.1l4.47-1.09,2.51,10.29-4.47,1.09c-.6.15-1.64-2-2.34-4.88S170.64,295.24,171.24,295.1Z"/>
      <ellipse cx="271.68" cy="123.16" rx="6.85" ry="10.68" transform="translate(-24.46 87.41) rotate(-17.5)"/>
      <ellipse cx="225.32" cy="129.72" rx="10.68" ry="6.85" transform="translate(33.11 304.79) rotate(-72.26)"/>
    </g>
    <g class="pad">
      <path d="M337.3,349.35c.26-.58,4.62-1.25,5-.81a17.29,17.29,0,0,1,3.86,9.29c.29,1.75-9.22,3.31-9.5,1.57A18.6,18.6,0,0,1,337.3,349.35Z"/>
      <path d="M159.88,349.35c-.26-.58-4.62-1.25-5-.81a17.37,17.37,0,0,0-3.87,9.29c-.28,1.75,9.22,3.31,9.51,1.57A18.6,18.6,0,0,0,159.88,349.35Z"/>
    </g>
    <g class="steelLight">
      <path d="M337.14,323.1l-12.28-23.9c-1-1.9-4.13-.28-3.15,1.62l12.12,23.76,4.23,24.65c.09.57,3.55,0,3.45-.57Z"/>
      <path d="M160,323.1l12.28-23.9c1-1.9,4.13-.28,3.15,1.62l-12.13,23.76-4.22,24.65c-.1.57-3.55,0-3.45-.57Z"/>
    </g>
    <g class="chromeMedium">
      <path d="M212.34,183.88c-6.16,2.08-23.61-.87-43.2-7.67S134,160.92,130.47,155.47a2.14,2.14,0,0,0-.77,1c-1.63,4.68,15.55,14.89,38.37,22.81s42.62,10.54,44.24,5.86A2.22,2.22,0,0,0,212.34,183.88Z"/>
      <path d="M361.73,150.92c-3.29,5.33-17.92,13.43-36.43,19.77s-35,8.9-40.9,6.7a2.18,2.18,0,0,0,0,1.27c1.6,4.69,20.37,2.51,41.92-4.87s37.72-17.16,36.12-21.85A2.3,2.3,0,0,0,361.73,150.92Z"/>
      <ellipse cx="172.2" cy="167.39" rx="9.34" ry="44.86" transform="matrix(0.33, -0.94, 0.94, 0.33, -42.39, 275.19)"/>
      <ellipse cx="322.28" cy="161.86" rx="42.31" ry="9.34" transform="translate(-35.05 113.11) rotate(-18.9)"/>
      <polygon points="268.81 118.73 274.71 117.65 277.5 125.79 271.6 126.86 268.81 118.73"/>
      <polygon points="228.21 125.3 222.31 124.2 219.49 132.33 225.39 133.43 228.21 125.3"/>
      <path d="M262.11,120c2.49-1.72,7.9-3,12.61-2.3l-5.91,1.06Z"/>
      <path d="M234.9,126.57c-2.48-1.73-7.88-3-12.59-2.35l5.9,1.08Z"/>
      <path d="M248.52,207.27a74.17,74.17,0,0,1,19,2.47v-3.61H229.48v3.61A74.28,74.28,0,0,1,248.52,207.27Z"/>
      <polygon points="231.21 206.13 265.84 206.13 264.46 197.54 232.59 197.54 231.21 206.13"/>
      <ellipse cx="237.7" cy="145.1" rx="3.55" ry="6.54"/>
      <ellipse cx="259.35" cy="138.56" rx="3.55" ry="6.54"/>
    </g>
    <g class="chromeLight">
      <path d="M238.26,113.86c1.52-4.38-16.22-14.52-39.63-22.64S155,80.07,153.5,84.45l-.25,4.17a2.78,2.78,0,0,0,.26,1.81l1.05-3c5-2.19,22.6,1,42.65,7.93s35.81,15.38,38.38,20.18l-1.06,3a3.3,3.3,0,0,0,1.34-1.23Z"/>
      <path d="M198.63,91.22c20.14,7,36.08,15.47,39.17,20.49l.83-2.38c1.46-4.21-15.85-14-38.66-22s-42.5-10.92-44-6.71L155.19,83C160.72,81,178.49,84.23,198.63,91.22Z"/>
      <path d="M132.21,149.26c3.06-3.95,21.43-2.06,44.25,5.86s38.74,17.59,38.37,22.81l-.25,4.16c1.69-4.87-15.91-15.4-39.32-23.53s-43.75-10.75-45.44-5.88Z"/>
      <path d="M175.26,158.56c-20.14-7-38-9.91-43.68-7.49l-1.88,5.42c1.62-4.68,21.43-2.05,44.25,5.86s40,18.13,38.36,22.81l1.89-5.42C211.24,174.33,195.4,165.55,175.26,158.56Z"/>
      <path d="M339.91,82.73c-1.5-4.39-20.64-1.81-42.75,5.75s-38.81,17.27-37.31,21.66l2.31,3.45a2.88,2.88,0,0,0,1.27,1.29l-1-3c2.34-4.71,17.23-12.76,36.17-19.24s35.6-9.25,40.36-7l1,3a3.21,3.21,0,0,0,.25-1.77Z"/>
      <path d="M297.16,88.48c19-6.51,35.85-9.32,41.13-7.19l-.82-2.39c-1.44-4.21-20.08-1.65-41.63,5.73s-37.85,16.77-36.41,21l.82,2.39C263.11,103.08,278.14,95,297.16,88.48Z"/>
      <path d="M282,171.42c-.11-5,14.56-14.47,36.11-21.85s39.08-9.23,41.93-4.87l2.31,3.45c-1.67-4.88-20.95-2.7-43.06,4.87s-38.67,17.66-37,22.54Z"/>
      <path d="M319.25,153c-19,6.52-33.94,14.9-36.67,20.22l1.86,5.42C282.83,174,299,164.2,320.55,156.82s40.32-9.56,41.93-4.88l-1.86-5.42C355.2,144,338.28,146.51,319.25,153Z"/>
      <path d="M162.84,130.57c1.43.5-.15,12.4-3.85,11.12C154,140,161.41,130.08,162.84,130.57Z"/>
      <path d="M203.41,144.65c-1.43-.5-7.56,9.83-3.86,11.12C204.56,157.51,204.84,145.15,203.41,144.65Z"/>
      <path d="M170.24,109.25c1.43.5,7.56-9.83,3.86-11.11C169.09,96.4,168.81,108.76,170.24,109.25Z"/>
      <path d="M210.81,123.33c-1.43-.49.16-12.4,3.86-11.11C219.68,114,212.24,123.83,210.81,123.33Z"/>
      <path d="M293,138.53c1.43-.49,7.51,9.87,3.81,11.14C291.77,151.38,291.54,139,293,138.53Z"/>
      <path d="M332.15,125.12c-1.43.49.11,12.4,3.81,11.13C341,134.54,333.58,124.63,332.15,125.12Z"/>
      <path d="M286.36,119.21c1.44-.49-.1-12.4-3.81-11.13C277.54,109.8,284.93,119.7,286.36,119.21Z"/>
      <path d="M325.54,105.8c-1.43.49-7.52-9.86-3.81-11.13C326.74,93,327,105.31,325.54,105.8Z"/>
      <path d="M139.48,130.86c-2.83,2-7.42,7.27-3.39,9.77Z"/>
      <path d="M151.61,95.9c-4.71-.54-4.39,6.47-3.39,9.78Z"/>
      <path d="M220.46,159.09l-3.34,9.64C221.66,169.15,221.42,162.43,220.46,159.09Z"/>
      <path d="M353,126.74l3.44,10C360.85,134.26,355.83,128.6,353,126.74Z"/>
      <path d="M345.16,103.85c1.09-3.21,1.6-10.78-3.44-10Z"/>
      <path d="M276.47,153c-1.08,3.22-1.57,10.73,3.43,10Z"/>
      <path d="M255.79,138.56c0-3.62,1.6-6.54,3.56-6.54h-5.58c-2,0-3.56,2.92-3.56,6.54s1.59,6.54,3.56,6.54h5.58C257.39,145.1,255.79,142.17,255.79,138.56Z"/>
      <path d="M243.28,138.56H237.7c2,0,3.56,2.92,3.56,6.54s-1.6,6.54-3.56,6.54h5.58c2,0,3.56-2.93,3.56-6.54S245.25,138.56,243.28,138.56Z"/>
      <path d="M271.6,126.87c-3.1,4-6.1,5-10.66,4.69L258.36,124c3-4.41,5.76-6,10.46-5.27Z"/>
      <path d="M225.39,133.43c3.08,4,6.08,5,10.64,4.73l2.61-7.51c-2.94-4.43-5.73-6-10.44-5.32Z"/>
    </g>
    <g class="chromeDark">
      <path d="M225.39,133.43l-5.9-1.1c3.21,3.66,9.1,5.16,12.29,5.58C229.83,137.45,227.69,136.46,225.39,133.43Z"/>
      <path d="M271.6,126.87a10.82,10.82,0,0,1-6.41,4.45c3.19-.41,9.09-1.88,12.31-5.52Z"/>
      <ellipse cx="237.7" cy="145.1" rx="1.51" ry="2.79"/>
      <ellipse cx="259.35" cy="138.56" rx="1.51" ry="2.79"/>
    </g>
    <g class="head">
      <path d="M212.34,183.88c-6.16,2.08-23.61-.87-43.2-7.67S134,160.92,130.47,155.47c4.17-3.18,22.56-.37,43.48,6.88S211,178.8,212.34,183.88Z"/>
      <path d="M361.73,150.92c-3.29,5.33-17.92,13.43-36.43,19.77s-35,8.9-40.9,6.7c1.16-5,16.4-13.81,36.15-20.57S357.73,147.66,361.73,150.92Z"/>
      <circle cx="248.52" cy="281.43" r="72.09"/>
    </g>
    <g class="steelMedium">
      <path d="M263.7,122c1-.46,2.35.65,3,2.46s.3,3.66-.71,4.11L258.8,131l-2.25-6.57Z"/>
      <path d="M233.3,128.55c-1-.46-2.35.64-3,2.46s-.31,3.65.7,4.11l7.12,2.47,2.28-6.57Z"/>
      <rect x="237.24" y="151.64" width="6.5" height="41.11"/>
      <rect x="253.31" y="145.1" width="6.5" height="47.65"/>
    </g>
    <g class="steelDark">
      <path d="M259.45,122.81c1.18-.52,2.73.76,3.45,2.87s.35,4.26-.83,4.78l-7.62,2.61-2.62-7.65Z"/>
      <path d="M237.53,129.41c-1.19-.53-2.74.75-3.47,2.86s-.37,4.25.81,4.78l7.61,2.64,2.65-7.64Z"/>
      <rect x="252.16" y="192.75" width="8.8" height="4.79"/>
      <rect x="236.09" y="192.75" width="8.8" height="4.79"/>
    </g>
    <g class="steelMediumDark">
      <ellipse cx="253.14" cy="129.25" rx="2.33" ry="4.05" transform="translate(-26.16 76.55) rotate(-16.36)"/>
      <ellipse cx="243.81" cy="135.87" rx="4.05" ry="2.33" transform="translate(43.93 330.69) rotate(-73.4)"/>
    </g>
  </g>
  <g class="logo">
    <path d="M260.07,275a2.23,2.23,0,1,0,4.36,0,2.19,2.19,0,1,0-4.36,0Z"/>
    <path d="M264.23,278.86c-.08,5.22-.11,11-.36,17.15a15.68,15.68,0,0,0-3.21-.2l-.12-17.13A15,15,0,0,1,264.23,278.86Z"/>
    <path d="M258.94,272.75l.3,24.49a13.78,13.78,0,0,1,4.3.21,11.49,11.49,0,0,1-.12,4.29,33.54,33.54,0,0,0-7.7-.35l-.35-28.79A25.15,25.15,0,0,0,258.94,272.75Z"/>
    <path d="M265.88,273.82c-.07,1.14-.51,16.53-.76,28.25a9.59,9.59,0,0,1,3.28,1.9c.53-7.79.81-15.83.89-24.33.09-.78,1.16-.86,1.42.69.7,4.69-1.35,14.6-.86,25.17,1.28,2.37,1.52,4.89.78,8.51,4.26-1.54,5-4.72,3.92-9.78-.49-2.55-1.35-2.76-1.18-8.14.1-2.69.58-9.73,1-12.3.64-4,.77-6-.18-7.67-1.34-2.54-3-2.78-5-1.48C268.57,273.43,267.42,272.15,265.88,273.82Z"/>
    <path d="M290.21,285.24c-.41-3.74-2.21-5.65-4.52-4-1.82,1.4-.7,4.22,1.57,7.53,1.79,2.84,2.36,5.37.28,6.93-3.2.63-3.49,5.18-3,9.19a10.87,10.87,0,0,1,3.38-2.14,4.27,4.27,0,0,0,2.9-4.74,9,9,0,0,0-.65-10.19c-1-1.4-2.57-3.1-2.08-3.61C288.55,283.86,289.36,284.49,290.21,285.24Z"/>
    <path d="M252,290.14a6,6,0,0,1,2.24,4.34c.13,2,0,4.49.08,7.07a28.23,28.23,0,0,1-3.34.15c0-2.41.1-4.75-.08-7-.19-.92-1.52-1.07-1.55-.24-.11,2.2-.16,4.65-.15,7.19a10.74,10.74,0,0,1-3.15-.07c-.1-12.11-.4-24.92-.18-31.69a1,1,0,0,1,1.68-.79,20.89,20.89,0,0,0,2.74,1.76,6.38,6.38,0,0,1,3.26,4.88,43.67,43.67,0,0,1,.07,11A4.84,4.84,0,0,1,252,290.14Zm-3.35-13.75c0,4.27-.1,8.19,0,11.57,1.27-.15,1.85-2.64,1.7-6.06S249.75,276.46,248.65,276.39Z"/>
    <path d="M235.46,290.81a11.85,11.85,0,0,0,8.26,5.53,10.84,10.84,0,0,1,.18,5.17c-4-.33-7.84-2.83-10.62-7.26-3.19-5.35-4-15.05-2.9-21.59.53-3.58,3.58-4.79,6.38-3.84,2.52,1.1,2.55,4.61,2.3,8a30.61,30.61,0,0,0-6.19.53C232.64,282.28,233.26,286.77,235.46,290.81Zm-.52-18.55a1.94,1.94,0,0,0-1.93,2,22.6,22.6,0,0,1,3.42-.22C236.36,273.16,236.24,272.32,234.94,272.26Z"/>
    <path d="M240.14,255.88a26.85,26.85,0,0,1-3,11.79,6.07,6.07,0,0,0-4.17-.72c2.9-4.44,4.24-7.75,3.72-11.89a19.72,19.72,0,0,1,2.36-11c.82,1.1,2.55,1.85,3.82,2.46a2.8,2.8,0,0,1-1.09,1.62,12.4,12.4,0,0,0,4.11,1.59c.11.92-1.1,2.46-2,3a7.24,7.24,0,0,0,3.38,1.38,5.45,5.45,0,0,1-2,3.42,3.44,3.44,0,0,0,2.21,1.32,4.34,4.34,0,0,1-1.84,2.95,2.5,2.5,0,0,0,1.49,1.45,2.93,2.93,0,0,1-1.86,2.09c-1.21,1.94-.65,18.94-.54,29.12a7.73,7.73,0,0,1-3.87-1.34l-.09-3.22c-1.7,4.07-5.28.28-6-5-1-6.74,3.83-7.62,5.66-6.22a45.21,45.21,0,0,0,.07-9,8.79,8.79,0,0,1,.58-3.52C242.8,261.08,242.81,258.94,240.14,255.88Zm-2.7,27.73c.16,2.06.68,4.82,2.05,3.61a3.69,3.69,0,0,0,1.13-3.14c0-1.49-.33-2.6-1.43-2.69C237.63,281.26,237.35,282.51,237.44,283.61Z"/>
    <path d="M287.42,279.67c-2.73-.8-4.68.25-4,3.08a27.77,27.77,0,0,1-.83,18.26c-1.45,3.55-1.73,6.47.05,8.24a1.92,1.92,0,0,1,.09,2.6,13.54,13.54,0,0,0-2.31,8.92c.1,1.51-3.23,4-2.56,7.31.54,2.47-.29,4.72-.91,5.08-2.43,1.24-11.18,1.14-13.58-.36,0-1.89.7-6.38,2.08-7.35,5.16-3.71,2.66-8.75,5.42-9.68,6.51-2,6.62-8,4.45-14.09-1.37-4.56-.42-14.2,1-21.5.39-2,1.62-4.42,3.57-2.58C282.76,274.65,285.18,276.35,287.42,279.67Zm-8.16,5.79c-1.45-.2-2.37,13.66-.52,13.43,2.11-.35,2.48-3.73,2.69-8C281.46,288.5,281.32,285.8,279.26,285.46Zm-6.05,34.38c-.73,1.37-.93,4.11-1.83,4.94-1.86,2.05-2.72,1.89-2.78,4.3-.1.9,4.52.93,4.48-.07a12.17,12.17,0,0,1,2.63-7.76c.54-.52.06-2.45.29-3.59C275.32,318.48,273.47,319.25,273.21,319.84Z"/>
    <path d="M238.54,320.64a4.91,4.91,0,0,1-.4,3.33c-1.2,1.73-1.88,3.11-1.58,5.06a9.23,9.23,0,0,1-.06,4.1c-3.06,1.27-13.73,1.14-17.35-.26,0-1.42,2.1-6.45,3-7a7.18,7.18,0,0,0,3.36-3.54,19.21,19.21,0,0,1,2.31-4.67,6.81,6.81,0,0,0,.89-4.93,25.59,25.59,0,0,1-.88-7.49,10.12,10.12,0,0,1,4.91,8.19c.17,5.09-2.31,9.41-6.41,15.14-1.06,1.1,4.79,1.19,4.93.23a31,31,0,0,1,1.8-8.33,18.56,18.56,0,0,0-1.85-15.82,42,42,0,0,1-6.07-16.43c-.92-6.81-1-16.83-2.11-19.26a43,43,0,0,0-7.56,3.07c-2.86,1.24-6.72,1.19-7.86-1-.58-1.68-2.07-2.36-2.28-3.84-.33-2.13,1.35-5.42,3.23-8.58,1.16-2.06,1.14-7.17,1.8-8.38.65-1.69,5.43-8.12,5.19-10.06-.42-3.25,1.7-8.79,4.33-11a28,28,0,0,0,1.29,5.75c1,2.49,1.06,4.66-.06,6.4-2.54,3.72-5.76,8.09-6.15,11.13-.8,4.6-1.66,7.47-3.52,10.18-1,1.66-1.24,4.6.77,5a6.94,6.94,0,0,0,4.06-1c2.16-1.22,5-1.38,7.83-2.28,4.25-1.51,6.24-5.75,6.16-10.12a1.93,1.93,0,0,1,0-.24,4.59,4.59,0,0,1-.33.44,4.26,4.26,0,0,1-3.84,4c-1.34.13-3.25-.75-3.71-1.76a1.85,1.85,0,0,1,.44-2,22.36,22.36,0,0,0,3.11-5.38,3.82,3.82,0,0,1,.39,1.57,6.53,6.53,0,0,0,1.56-2.15,5.82,5.82,0,0,1,.13,2.12,3.82,3.82,0,0,0,1.92-1.35,6.61,6.61,0,0,1-.57,2.21,4.28,4.28,0,0,0,1-.34,49.22,49.22,0,0,1,.94-8.47c.94-4.59,4-8.64,7.17-9.67a12.12,12.12,0,0,0-.64,4.88c.37,3.26-.89,6.47-2.32,9.91a15.12,15.12,0,0,0-.62,6.47,13.84,13.84,0,0,1-3.39,10.75c-3.05,3.91-3.75,10.46-3.25,15.73.53,6.18,2.61,13.21,4.82,16.6,3,4.52,5.78,11.84,5.95,14.21S237.85,317.18,238.54,320.64Zm-11.12-65.08a2.87,2.87,0,0,1-3.58-.34,1.05,1.05,0,0,0-.73.77c.15.9,2.42,2,4.16,1.18a3.53,3.53,0,0,0,1.44-4.7A3.7,3.7,0,0,1,227.42,255.56Zm-2-1.82c1,.73,2-.63,1.18-1.31C226.24,252.13,225.1,253.57,225.41,253.74Z"/>
  </g>
  <g class="cymbals">
    <g class="cymbalInner">
      <ellipse cx="396.03" cy="34.47" rx="59.53" ry="25.13" transform="translate(-0.11 67.6) rotate(-9.75)"/>
      <ellipse cx="92.43" cy="36.19" rx="30.47" ry="84.54" transform="translate(35.5 117.5) rotate(-76.39)"/>
    </g>
    <g class="cymbalCentre">
      <ellipse cx="395.07" cy="30.25" rx="14.55" ry="6.14" transform="translate(0.59 67.37) rotate(-9.75)"/>
      <ellipse cx="94.05" cy="30.19" rx="5.5" ry="15.25" transform="translate(42.58 114.49) rotate(-76.39)"/>
    </g>
    <g class="pad">
      <path d="M315.81,349.85l-4.23-1.39-8.11,4.72a7.12,7.12,0,0,0,2.89,5.58,36.69,36.69,0,0,0,5.13,1.6c2.3.15,5.58-5.35,5.58-5.35Z"/>
      <path d="M477.85,351.5l4.39-.68,7.23,6a7.11,7.11,0,0,1-3.76,5,37.36,37.36,0,0,1-5.32.75c-2.3-.23-4.63-6.19-4.63-6.19Z"/>
      <path d="M439.89,344.55l3.19-.39,6.42,5.45a6.7,6.7,0,0,1-3.45,4.61c-1.05.44-4.41-.09-4.78-.22-2.12-.72-4.54-5.7-4.54-5.7Z"/>
      <path d="M174.2,349.85l4.23-1.39,8.1,4.72a7.12,7.12,0,0,1-2.89,5.58,36.57,36.57,0,0,1-5.12,1.6c-2.3.15-5.58-5.35-5.58-5.35Z"/>
      <path d="M12.16,351.5l-4.4-.68-7.23,6a7.12,7.12,0,0,0,3.77,5,37,37,0,0,0,5.32.75c2.29-.23,4.62-6.19,4.62-6.19Z"/>
      <path d="M50.11,344.55l-3.19-.39-6.41,5.45A6.66,6.66,0,0,0,44,354.22c1,.44,4.41-.09,4.79-.22,2.12-.72,4.53-5.7,4.53-5.7Z"/>
    </g>
    <g class="steelMediumLight">
      <polygon points="406.46 295.94 441.73 345.31 439.21 348.38 406.46 302.11 406.46 295.94"/>
      <path d="M406.46,339.5l17.13-15.72c1.4-1.39,3.22.94,1.82,2.34l-19,17.66Z"/>
      <polygon points="83.54 295.94 48.28 345.31 50.79 348.38 83.54 302.11 83.54 295.94"/>
      <path d="M83.54,340.88l-17.12-17.1c-1.41-1.39-3.23.94-1.82,2.34l18.94,19Z"/>
    </g>
    <g class="steelLight">
      <polygon points="409.36 295.6 480.31 352.35 477.61 356.38 409.36 301.79 409.36 295.6"/>
      <path d="M409.45,339.51l33.64-14.78a2.14,2.14,0,0,1,1.3,4.08l-34.94,15Z"/>
      <polygon points="352.59 330.42 399.34 343.81 399.34 339.51 357.54 327.4 352.59 330.42"/>
      <polygon points="312.9 348.9 315.81 349.85 316.44 352.43 399.26 301.79 399.26 295.6 312.9 348.9"/>
      <polygon points="80.64 295.6 9.7 352.35 12.4 356.38 80.64 301.79 80.64 295.6"/>
      <path d="M80.56,339.51,46.91,324.73a2.14,2.14,0,0,0-1.29,4.08l34.94,15Z"/>
      <polygon points="137.41 330.42 90.66 343.81 90.66 339.51 132.46 327.4 137.41 330.42"/>
      <polygon points="177.1 348.9 174.2 349.85 173.57 352.43 90.75 301.79 90.75 295.6 177.1 348.9"/>
    </g>
    <g class="steelDark">
      <path d="M399.34,344.54c0,.94,10.11.94,10.11,0v-6.27c0-.67-10.11-.67-10.11,0Z"/>
      <path d="M399.65,231.53c0,1.39,9.49,1.39,9.49,0,1.16-5.36,2-8.21,0-11.45-.81-1.19-8.71-1.12-9.49,0C397.73,223.25,398.41,226.3,399.65,231.53Z"/>
      <path d="M400,149.5c0,1.29,8.79,1.29,8.79,0,1.07-5,1.87-7.6,0-10.59-.75-1.11-8.06-1-8.79,0C398.23,141.84,398.86,144.66,400,149.5Z"/>
      <path d="M399.26,301.83c0,.73,10.1.73,10.1,0V295.4c0-.52-10.1-.52-10.1,0Z"/>
      <path d="M90.66,344.54c0,.94-10.1.94-10.1,0v-6.27c0-.67,10.1-.67,10.1,0Z"/>
      <path d="M90.35,231.53c0,1.39-9.49,1.39-9.49,0-1.16-5.36-2-8.21,0-11.45.81-1.19,8.71-1.12,9.49,0C92.27,223.25,91.59,226.3,90.35,231.53Z"/>
      <path d="M90,133.85c0,1.29-8.79,1.29-8.79,0-1.07-5-1.87-7.6,0-10.59.76-1.11,8.07-1,8.79,0C91.78,126.19,91.15,129,90,133.85Z"/>
      <path d="M90.75,301.83c0,.73-10.11.73-10.11,0V295.4c0-.52,10.11-.52,10.11,0Z"/>
    </g>
    <g class="steelMedium">
      <path d="M400.62,302.21v36c0,.59,7.55.59,7.55,0v-36A43.27,43.27,0,0,1,400.62,302.21Z"/>
      <path d="M400.62,232.19v63.39c0,.48,7.55.48,7.55,0V232.19A18.82,18.82,0,0,1,400.62,232.19Z"/>
      <path d="M401.42,48.16v90.58c0,.44,5.95.44,5.95,0V48.16C407.37,47.75,401.42,47.75,401.42,48.16Z"/>
      <path d="M401.18,150.18V219.9c0,.48,6.43.48,6.43,0V150.18A18.28,18.28,0,0,1,401.18,150.18Z"/>
      <path d="M89.38,302.21v36c0,.59-7.55.59-7.55,0v-36A43.27,43.27,0,0,0,89.38,302.21Z"/>
      <path d="M89.38,232.19v63.39c0,.48-7.55.48-7.55,0V232.19A18.82,18.82,0,0,0,89.38,232.19Z"/>
      <path d="M88.58,48.93v74.16c0,.44-6,.44-6,0V48.93C82.63,48.52,88.58,48.52,88.58,48.93Z"/>
      <path d="M88.82,134.54V219.9c0,.48-6.43.48-6.43,0V134.54A18.76,18.76,0,0,0,88.82,134.54Z"/>
    </g>
    <g class="padding">
      <path d="M391,28.45c-.69-1,4.24-4.44,4.93-3.46l1.75,2.5c.48.68-4.45,4.14-4.93,3.46Z"/>
      <path d="M405.64,39.56l-5.13-7.31c-.72-1-5.05,2-4.32,3l5.13,7.31Z"/>
      <path d="M98,28.44c.55-1.06-4.8-3.82-5.35-2.76l-1.4,2.71c-.38.74,5,3.5,5.35,2.76Z"/>
      <path d="M84.94,41.43,89,33.49c.58-1.12,5.27,1.3,4.69,2.43l-4.09,7.93Z"/>
    </g>
    <g class="steelDark">
      <path d="M398.57,32.52l-2.72-3.87c-.11-.15-1.61.9-1.5,1.05s1.41,2,2.71,3.88A8.37,8.37,0,0,1,398.57,32.52Z"/>
      <path d="M91,33.5l2.17-4.2c.08-.17,1.72.68,1.63.84,0,0-1.13,2.18-2.17,4.21A8.42,8.42,0,0,0,91,33.5Z"/>
    </g>
    <g class="chromeLight">
      <path d="M407,48c1.85,0,3.34-2.75,3.34-6.14s-1.49-6.14-3.34-6.14h-5.23L401.34,48Z"/>
      <path d="M83,48.71c-1.84,0-3.34-2.74-3.34-6.13s1.5-6.14,3.34-6.14h5.24l.43,12.27Z"/>
    </g>
    <g class="chromeMedium">
      <ellipse cx="401.78" cy="41.81" rx="3.34" ry="6.14"/>
      <ellipse cx="88.23" cy="42.58" rx="3.34" ry="6.14"/>
    </g>
    <g class="chromeDark">
      <ellipse cx="401.78" cy="41.81" rx="1.42" ry="2.61"/>
      <ellipse cx="88.23" cy="42.58" rx="1.42" ry="2.61"/>
    </g>
  </g>
</svg>
