<svg viewBox="0 0 60.45 61.01">
  <g class="labelReverse">
    <path d="M20.32,17.53c0,.87,19.81.87,19.81,0S20.32,16.65,20.32,17.53Z"/>
    <path d="M40.13,17.53c0,.87,19.82.87,19.82,0S40.13,16.65,40.13,17.53Z"/>
    <path d="M.5,17.53c0,.87,19.82.87,19.82,0S.5,16.65.5,17.53Z"/>
  </g>
  <g class="waterSide">
    <path d="M37,9.27c0,.52-13.49.52-13.49,0a9.18,9.18,0,0,0-3.16,7.12V57.58c0,3.89,19.82,3.92,19.82,0V16.39A9.18,9.18,0,0,0,37,9.27Z"/>
    <path d="M56.79,9.27c0,.52-13.49.52-13.49,0a9.18,9.18,0,0,0-3.17,7.12V57.58c0,3.89,19.82,3.92,19.82,0V16.39A9.18,9.18,0,0,0,56.79,9.27Z"/>
    <path d="M17.15,9.27c0,.52-13.49.52-13.49,0A9.18,9.18,0,0,0,.5,16.39V57.58c0,3.89,19.82,3.92,19.82,0V16.39A9.18,9.18,0,0,0,17.15,9.27Z"/>
  </g>
  <g class="waterTop">
    <path d="M23.48,9.27c0,.52,13.49.52,13.49,0S23.48,8.75,23.48,9.27Z"/>
    <path d="M43.3,9.27c0,.52,13.49.52,13.49,0S43.3,8.75,43.3,9.27Z"/>
    <path d="M3.66,9.27c0,.52,13.49.52,13.49,0S3.66,8.75,3.66,9.27Z"/>
  </g>
  <g class="bottleSide">
    <path d="M26.78,5.53a3.25,3.25,0,0,1-1.89,2.7,9.28,9.28,0,0,0-4.57,8.16V57.58c0,3.89,19.82,3.92,19.82,0V16.39a9.26,9.26,0,0,0-4.58-8.16,3.25,3.25,0,0,1-1.89-2.7C31.82,5.59,26.78,5.53,26.78,5.53Z"/>
    <path d="M46.6,5.37a3.48,3.48,0,0,1-1.89,2.86,9.26,9.26,0,0,0-4.58,8.16V57.58c0,3.89,19.82,3.92,19.82,0V16.39a9.28,9.28,0,0,0-4.57-8.16,3.44,3.44,0,0,1-1.89-2.86A60.91,60.91,0,0,1,46.6,5.37Z"/>
    <path d="M7,5.53a3.24,3.24,0,0,1-1.88,2.7A9.26,9.26,0,0,0,.5,16.39V57.58c0,3.89,19.82,3.92,19.82,0V16.39a9.26,9.26,0,0,0-4.58-8.16,3.27,3.27,0,0,1-1.89-2.7C12,5.59,7,5.53,7,5.53Z"/>
  </g>
  <g class="label">
    <path d="M20.32,17.53V35.65c0,1.36,19.81,1.36,19.81,0V17.53C40.13,18.4,20.32,18.4,20.32,17.53Z"/>
    <path d="M40.13,17.53V35.65C40.13,37,60,37,60,35.65V17.53C60,18.4,40.13,18.4,40.13,17.53Z"/>
    <path d="M.5,17.53V35.65c0,1.36,19.82,1.36,19.82,0V17.53C20.32,18.4.5,18.4.5,17.53Z"/>
  </g>
  <g class="bottleCap">
    <path d="M25.46,5.45a94.66,94.66,0,0,0,9.53,0V1.5a.93.93,0,0,0-.88-.94q-3.88-.12-7.77,0a.93.93,0,0,0-.88.94Z"/>
    <path d="M45.28,5.45a94.66,94.66,0,0,0,9.53,0V1.5a.93.93,0,0,0-.88-.94Q50,.44,46.16.56a.93.93,0,0,0-.88.94Z"/>
    <path d="M5.64,5.45a94.86,94.86,0,0,0,9.54,0V1.5a.94.94,0,0,0-.89-.94Q10.41.44,6.53.56a.93.93,0,0,0-.89.94Z"/>
  </g>
</svg>
