<svg viewBox="0 0 38.42 71.84">
  <g class="ironDark">
    <polygon points="37.65 1.88 37.92 59.46 36.33 59.82 36.2 2.16 37.65 1.88"/>
    <polygon points="0.67 12.13 0.5 71.11 2.72 70.26 2.59 11.41 0.67 12.13"/>
  </g>
  <path class="signBack" d="M16.33,9.53l0,8.8c0,2.68-.64,5-1.45,5.26L7,25.85c-.82.23-1.49-1.76-1.5-4.45l0-8.87c0-2.7.65-5.06,1.47-5.28l7.89-2.16C15.66,4.87,16.32,6.86,16.33,9.53Z"/>
  <g class="ironMedium">
    <polygon points="36.08 2.57 2.46 11.83 2.47 15.18 36.08 5.84 36.08 2.57"/>
    <polygon points="36.1 11.45 2.48 20.92 2.49 24.27 36.11 14.71 36.1 11.45"/>
  </g>
  <path class="signFront" d="M33.05,4.9l0,8.7c0,2.64-.63,5-1.42,5.19L24,21c-.81.23-1.46-1.74-1.47-4.4l0-8.77c0-2.66.64-5,1.44-5.21l7.7-2.1C32.4.3,33.05,2.27,33.05,4.9Z"/>
</svg>
