<svg viewBox="0 0 110.36 109.13">
  <g class="sketchPaperLight">
    <path d="M49.16,56.38c1.7,16-2,33.43-8.29,51.69C27.81,110.52,14.73,103.93.93,107c9.49-18.62,13.92-35.13,11.64-50.22A166.6,166.6,0,0,1,49.16,56.38Z"/>
    <path d="M81.88.7C71.56,4.62,56.44.35,46.53,5.29c5.12,10.54,9.6,34.33,62.12,36.49C91.1,29.66,83.13,15.47,81.88.7Z"/>
  </g>
  <path class="trollShoes" d="M102,41.37c-1.58-1.43-4.73-1.84-7-1.81-1.62-.53-8.09-2.15-8.92-.53A115.85,115.85,0,0,0,102,41.37Z"/>
  <path class="trollPants" d="M95,39.56q-6.39-6.23-12.71-12.51-4.11,3.52-8.08,7.2,2.75,1.56,5.5,3.11a93.17,93.17,0,0,0,12.06,2.77C92.26,39.63,94.09,39.48,95,39.56Z"/>
  <path class="trollShirt" d="M63.39,15.08c-2.53,1.62-5.23,4.7-4.43,7.38C59.91,25.7,65,27.74,68.52,29c.19-1,.3-1.49.56-2.49l-2.18-1c4.86,1,14,2.29,13.82-4.89-1.19-1.53-2.62-2.19-4.87-1A21.48,21.48,0,0,0,71.33,16Z"/>
  <path class="trollHat" d="M67.94,5.91c0-2.4-2.91-1.32-3.81-1.72-2.72-.72-8.64,3.46-4.48,4.88.49,0,.17.91,1.1.61A6.35,6.35,0,0,0,67.94,5.91Z"/>
  <path class="guitarLight" d="M66.9,25.47c1.5-.72,2.77-1.29,2.67-2.76-.27-4.14,5.17-2.14,7.15-1.07,2.38,1.27,6.59,3.91,5.31,7.06-.44,1.1.19,2.49,1.37,4.17,1.54,2.21.65,3.43-2.36,3.17A29.25,29.25,0,0,1,70.1,32.39c-2-1.1-4.24-2.58-4.85-4.83A35,35,0,0,0,68.52,29c.19-1,.3-1.49.56-2.49C68.3,26.18,67.57,25.83,66.9,25.47Z"/>
  <path class="soundHole" d="M74.4,28.26c1.69.82,3.35.82,3.66,0s-.77-2.14-2.39-3-3.21-.85-3.6,0S72.7,27.43,74.4,28.26Z"/>
  <path class="guitarFretboard" d="M78.78,13.78l1.78,1.13a57.62,57.62,0,0,0-3,10.37c-1.32-.67-2-1-3.24-1.7A67.39,67.39,0,0,1,78.78,13.78Z"/>
  <path class="guitarHeadstock" d="M77.94,13.24c1.33.87,2,1.3,3.43,2.17a34.12,34.12,0,0,1,1.29-4.35L80.92,10C79.68,11.27,79.08,11.92,77.94,13.24Z"/>
  <g class="skinTroll">
    <path d="M67.94,5.91A4.39,4.39,0,0,1,70,8c2.36-.48,5.59.22,5.51,2.61,0,1.14-2.16,1.77-4.12,1.17a2.81,2.81,0,0,0,.77,1.58,5.15,5.15,0,0,1-4.63-.88C68,14.2,69.89,15.14,71.91,15c.07,1.09-1.46,1.42-2.63,1.71-2.89.3-6.23-.75-7-3.63-1.79-.32-2.57.33-2.55,2.27-1.16-2.36-.34-3.7,1.49-4.34a2.42,2.42,0,0,1-.45-1.28A14.28,14.28,0,0,0,67.94,5.91Z"/>
    <path d="M78.6,19.59c1.19.89,2.61,1.36,3.34.73s.69-1.51-.48-2.46-2.75-1.76-3.58-1.16S77.37,18.67,78.6,19.59Z"/>
    <path d="M71.34,27.1c1.22.83,2.45,2.22,1.77,2.9s-2.38.36-3.73-.46S67.28,27.7,68,27A2.87,2.87,0,0,1,71.34,27.1Z"/>
  </g>
  <g class="clothesOverlapLine">
    <path d="M66.9,25.47c-1.28-.83-2.44-1.48-3.53-2.18a3.31,3.31,0,0,0,1-2.1"/>
    <path d="M90.87,40c-2.57-1.7-4.33-2.91-6.83-4.69"/>
  </g>
  <path class="sketchPaperMedium" d="M108.65,41.78c-19.41,0-39-4.76-50.35-16.53,6.6,5,15.14,7.46,25.16,7.12C89.46,39.72,99.27,41.12,108.65,41.78Z"/>
  <path class="sashaShirt" d="M19.45,85.86a15.41,15.41,0,0,0-6,5.46c-1.89,2.62-3.95,5.35-5.05,8.15-2.54,6.41,28,7.06,31.13,1.85,1.54-2.59,2-5.8,2.41-8.94a5.51,5.51,0,0,0-3.44-6C33,80.15,26.92,80.36,19.45,85.86Z"/>
  <path class="hairLightBrown" d="M20.85,67.62a36.87,36.87,0,0,0-6,5.54,29.37,29.37,0,0,1,5.77-9.41c.57-3.53,4.92-5.24,8-5.18C35,57.45,42,60.32,43.92,66c2.35,7,.8,13.52-4.92,19.8A84.19,84.19,0,0,0,32.47,94c2.25,4.06-4.08,6.29-6.23,9-.22-2.73.25-7.8,3.58-9.35a86.65,86.65,0,0,1,3-9.58L23.67,85.8a74.07,74.07,0,0,0-4.3,7c2.28,3.74-3.43,6-5.24,8.88-.39-2.58-.39-7.64,2.95-9.16a64.31,64.31,0,0,1,3.36-8.79A101,101,0,0,0,20.85,67.62Z"/>
  <path class="skinAshkenazi" d="M38.77,73.68c3.91-1.22,2,7.6-2.26,6.08A11.53,11.53,0,0,1,24.88,86c-4.68-.54-6.21-4.66-5.12-9a12.76,12.76,0,0,0,.58-5c-.17-1.12-.06-3.56.51-4.35a19.1,19.1,0,0,1,5.7-3.35c6.12,1.75,9.57,6.92,9.69,13.24a15.89,15.89,0,0,0,.63-6.46A6.4,6.4,0,0,1,38.77,73.68Z"/>
  <g class="eyeBlob">
    <path d="M24.47,74c-.13,1-.78,1.75-1.42,1.7s-1.05-.89-.92-1.87.74-1.75,1.39-1.71S24.6,73,24.47,74Z"/>
    <path d="M30.71,74.43c-.13,1-.77,1.75-1.42,1.71s-1-.89-.91-1.88.74-1.75,1.38-1.7S30.85,73.45,30.71,74.43Z"/>
  </g>
  <g class="skinDisplayLine">
    <path d="M25.68,76.73c-2.5.86-1.62,3.56.74,3.14"/>
    <path d="M22.83,81.59a10.15,10.15,0,0,0,4.94.44"/>
  </g>
</svg>
