<svg viewBox="0 0 51.41 69.11">
  <path class="antennaMedium" d="M.78,1.68Q.41,8,.53,14.31a1.52,1.52,0,0,0,1.61,1.4,1.51,1.51,0,0,0,1.6-1.4c.09-4.73,0-8.89-.25-12.63Z"/>
  <g class="antennaLight">
    <ellipse cx="2.14" cy="1.68" rx="1.35" ry="1.18"/>
    <path d="M3.77,11.59c0,.89,0,1.79,0,2.72H5a11,11,0,0,1,.5-2.72Z"/>
  </g>
  <path class="phoneLight" d="M10.69,7.05c-2.67.74-5.14,3-5.5,5.73a174.22,174.22,0,0,0-.5,44.16C5.32,62.56,9.36,67.37,15,68.17c4,.59,20.48.59,24.51,0,5.6-.8,9.65-5.61,10.28-11.23a174.69,174.69,0,0,0-.51-44.16c-.36-2.74-2.83-5-5.49-5.73C38.25,5.54,16.18,5.54,10.69,7.05Z"/>
  <path class="phoneMedium" d="M26.7,12.23c3.92-1.89,13.88-1.85,17.38,0V60.47H27.22Z"/>
  <g class="phoneDark">
    <path d="M44.08,12.23c-.77.55-1.8,6.23-1.8,7.18.63,8,.35,22.54.16,31.44.05,4.81-.53,6.43-1.56,7.86a12.78,12.78,0,0,0,3,3.44c1-1.13,2.22-5,2.32-8.15.63-11.29.56-30.57-.46-38.73A3.6,3.6,0,0,0,44.08,12.23Z"/>
    <path d="M26.7,12.23c.77.55,1.8,6.23,1.79,7.18-.63,8-.34,22.54-.15,31.44-.05,4.81.53,6.43,1.56,7.86a12.78,12.78,0,0,1-3,3.44c-1-1.13-2.24-5-2.32-8.15C23.9,42.71,24,23.43,25,15.27A3.6,3.6,0,0,1,26.7,12.23Z"/>
    <path d="M40.88,58.71c-1.77.66-9.2.66-11,0a12.78,12.78,0,0,1-3,3.44c2.14,1.91,15.19,2,17.08,0A12.78,12.78,0,0,1,40.88,58.71Z"/>
  </g>
  <path class="buttonLarge" d="M10.88,56.85a25.82,25.82,0,0,0,7.24,0A1.08,1.08,0,0,0,19,55.79v-4a1.08,1.08,0,0,0-.93-1.06,26.45,26.45,0,0,0-7.22,0A1.07,1.07,0,0,0,10,51.82v4A1.07,1.07,0,0,0,10.88,56.85Z"/>
  <g class="buttonSmall">
    <path d="M11.33,35.14a1.31,1.31,0,1,0,0-2.61H9.2a1.31,1.31,0,1,0,0,2.61Z"/>
    <path d="M19.75,35.14a1.31,1.31,0,1,0,0-2.61H17.62a1.31,1.31,0,1,0,0,2.61Z"/>
  </g>
</svg>
