<svg viewBox="0 0 99.93 305.16">
  <rect class="steelMedium" x="47.24" y="7" width="5.45" height="202.33"/>
  <g class="oakMediumDark">
    <path d="M54.68,263a86.43,86.43,0,0,0,19.91,6.74,3,3,0,0,1,2.32,2.54c1.27,9.7,5.34,18.67,12.43,22.88,1.46-6.12,10.12-4.77,10.09,1.08,0,6.66-7.61,8.42-13.46,6.23-4.8-1.74-12.65-8.93-16.09-16.73a5.45,5.45,0,0,0-3.58-3.09,45.8,45.8,0,0,0-11.62-1.36Z"/>
    <path d="M45.25,263a86.43,86.43,0,0,1-19.91,6.74A3,3,0,0,0,23,272.3C21.76,282,17.68,291,10.59,295.18,9.13,289.06.47,290.41.5,296.26c0,6.66,7.61,8.42,13.46,6.23,4.8-1.74,12.65-8.93,16.1-16.73a5.43,5.43,0,0,1,3.57-3.09,45.8,45.8,0,0,1,11.62-1.36Z"/>
    <path d="M41.39,20H58.54a2.6,2.6,0,0,1,2.6,2.6v.54a0,0,0,0,1,0,0H38.79a0,0,0,0,1,0,0v-.54A2.6,2.6,0,0,1,41.39,20Z"/>
    <path d="M54.86,259a162.68,162.68,0,0,0,0-45.59s1.61-.91,1.61-2a2,2,0,0,0-2-2H45.5a2,2,0,0,0-2,2c0,1.12,1.6,2,1.6,2a162.68,162.68,0,0,0,0,45.59s-1.6.91-1.6,2a2,2,0,0,0,2,2h8.93a2,2,0,0,0,2-2C56.47,259.89,54.86,259,54.86,259Z"/>
  </g>
  <path class="oakDark" d="M54.68,263H45.25v18.28a18,18,0,0,0,9.43,0Z"/>
  <g class="oakMedium">
    <path d="M52.69,292.28H47.24c.58-7.52.73-14,.72-22.56h4c0,8.55.14,15,.72,22.56h0Z"/>
    <circle cx="49.97" cy="7" r="6.5"/>
  </g>
  <g class="oakMediumLight">
    <path d="M51.62,263h-3.3a31.43,31.43,0,0,0-.36,6.7h4A32.09,32.09,0,0,0,51.62,263Z"/>
    <path d="M47.24,304.66a54.53,54.53,0,0,1,0-12.38h5.45a54.53,54.53,0,0,1,0,12.38Z"/>
  </g>
  <path class="fiberDark" d="M38.79,23.09c-2.08,4-2.37,11.2-5.59,11.49-7,.73-26.61,3.51-27.34,8.63C5,48,6.15,64.27,10.39,77.43a65,65,0,0,1-.88,43.73c-5,12-6.29,29.4-3.22,37.73,15.64,7.42,71.71,7.42,87.35,0,3.07-8.33,1.75-25.74-3.22-37.73a65.07,65.07,0,0,1-.88-43.73C93.78,64.27,95,48,94.08,43.21c-.73-5.12-20.33-7.9-27.35-8.63-3.22-.29-3.51-7.52-5.59-11.49Z"/>
  <path class="bodyEdgeLine" d="M19.75,78.16c6,4.19,12.67,6.22,20.33,4.68a47.46,47.46,0,0,1,19.77,0c7.66,1.54,14.31-.49,20.33-4.68"/>
  <g class="oakCreaseLine">
    <line x1="54.86" y1="258.98" x2="45.07" y2="258.98"/>
    <line x1="54.86" y1="213.39" x2="45.07" y2="213.39"/>
  </g>
</svg>
