<svg viewBox="0 0 196.16 337.77">
  <path class="base" d="M157.7,337.27c-21,0-38-3.31-38-7.4a17.23,17.23,0,0,1,3-10.48c2.78-3.89,16.21-6.53,35-6.53s32.2,2.64,35,6.53a17.31,17.31,0,0,1,3,10.48C195.66,334,178.66,337.27,157.7,337.27Z"/>
  <path class="baseEdgeLine" d="M130.83,318.17c0,2.09,12,3.78,26.87,3.78s26.87-1.69,26.87-3.78"/>
  <path class="micStand" d="M154.29,107.69v208c.49.57,6.29.57,6.81,0v-208C159.25,107.79,156.15,107.79,154.29,107.69Z"/>
  <g class="bar">
    <path d="M171.28,16.33,52.45,136.66l3.69,3.64L175,20A46.82,46.82,0,0,1,171.28,16.33Z"/>
    <path d="M160.28,90.36V63.05H155.1V90.36C156.67,90.29,158.72,90.29,160.28,90.36Z"/>
  </g>
  <g class="handle">
    <path d="M152.74,90.74c0-.58,9.91-.58,9.91,0v16.71c0,.41-9.91.42-9.91,0Z"/>
    <path d="M190.52,5.22l-15,15.16c-.19.19-4.86-4.46-4.69-4.64l15-15.15C186.59-.18,191.28,4.45,190.52,5.22Z"/>
    <path d="M7.4,159.37c0,.87,4.44,1.57,9.92,1.57s9.91-.7,9.91-1.57v-4.62H7.4Z"/>
  </g>
  <g class="handleCreaseLine">
    <line x1="155.66" y1="90.34" x2="155.66" y2="107.74"/>
    <line x1="153.97" y1="90.44" x2="153.97" y2="107.67"/>
    <line x1="157.7" y1="90.3" x2="157.7" y2="107.76"/>
    <line x1="159.73" y1="90.34" x2="159.73" y2="107.74"/>
    <line x1="161.42" y1="90.44" x2="161.42" y2="107.67"/>
  </g>
  <g class="partDark">
    <path d="M143.1,53.85l2.19-2.22L140,46.39l-2.19,2.22C137.62,48.8,142.92,54,143.1,53.85Z"/>
    <path d="M158.47,38.29l-2.2,2.22L151,35.27l2.19-2.22C153.35,32.87,158.65,38.11,158.47,38.29Z"/>
    <path d="M157.69,58.18a3.71,3.71,0,0,0,3-1.5,8,8,0,0,0-1.46-3.8h-3a7.9,7.9,0,0,0-1.46,3.8A3.68,3.68,0,0,0,157.69,58.18Z"/>
    <rect x="34.13" y="142.22" width="13.94" height="5.57"/>
    <path d="M34.13,142.45c0-.69-1.64-1.32-4.34-1.79v-4.28c0-1.09-5.58-2-12.47-2s-12.47.89-12.47,2v4.28c-2.7.47-4.35,1.1-4.35,1.79v5.15H4.85v6H29.79v-6h4.34Z"/>
  </g>
  <g class="micInner">
    <rect x="28.86" y="137.97" width="0.93" height="15.58"/>
    <rect x="4.85" y="137.97" width="0.93" height="15.58"/>
  </g>
  <path class="micBody" d="M9.5,153.55,8,132.93c0,.54,18.55.54,18.55,0l-1.45,20.62Z"/>
  <polygon class="micBack" points="13.17 136.92 21.47 136.92 21.77 133.85 12.86 133.85 13.17 136.92"/>
  <path class="micHead" d="M9.35,112.3,8,132.93c0,.54,18.55.54,18.55,0l-1.3-20.63C25.29,111.06,9.35,111.06,9.35,112.3Z"/>
  <g class="partLight">
    <path d="M157.69,58.18a3.68,3.68,0,0,1-3-1.5,42.33,42.33,0,0,0-.38,4.88h6.71a42.33,42.33,0,0,0-.38-4.88A3.71,3.71,0,0,1,157.69,58.18Z"/>
    <path d="M151.28,35.58l-3,3.05-5,5-3,3.05L145,51.33l3-3,7.2,7.11a3.53,3.53,0,0,0,5-5L153,43.26l3-3Z"/>
    <path d="M.5,142.45v5.15c0,1.48,7.53,2.67,16.82,2.67s16.81-1.19,16.81-2.67v-5.15c0,1.47-7.52,2.66-16.81,2.66S.5,143.92.5,142.45Z"/>
    <path d="M29.79,150.94c0,1.09-5.58,2-12.47,2s-12.47-.89-12.47-2v2.61c0,1.09,5.58,2,12.47,2s12.47-.89,12.47-2Z"/>
    <path d="M29.79,136.38c0,1.09-5.58,2-12.47,2s-12.47-.89-12.47-2V139c0,1.1,5.58,2,12.47,2s12.47-.88,12.47-2Z"/>
    <path d="M52.09,136.32l-.75-.54-6.52,6.41.69.65a3.65,3.65,0,0,0,0,5,3.79,3.79,0,0,0,5.09,0l6.6-6.55Z"/>
  </g>
  <g class="clip">
    <path d="M162,112.67c0-.26-8.66-.26-8.66,0v5.39a52.17,52.17,0,0,0,8.66,0v0a9.37,9.37,0,0,0,2.73-.16v-5A9.06,9.06,0,0,0,162,112.67Z"/>
    <path d="M160.4,26.34a7.5,7.5,0,0,0-1.8-1.56l-3.11,3.15a7.24,7.24,0,0,0,1.58,1.78l0,0a30.2,30.2,0,0,0,4.69,4.63l3.36-3.4C165.27,30.78,160.58,26.15,160.4,26.34Z"/>
  </g>
  <g class="standCreaseLine">
    <line x1="162.03" y1="112.67" x2="162.03" y2="118.06"/>
    <line x1="160.4" y1="26.34" x2="157.04" y2="29.74"/>
    <line x1="152.96" y1="43.26" x2="148" y2="48.28"/>
    <polyline points="34.13 142.84 45.51 142.84 52.09 136.31"/>
  </g>
  <g class="bolt">
    <path d="M57.4,140c.17.16,1.21-.9,1.05-1.06l-4.69-4.63c-.16-.16-1.21.9-1,1.06Z"/>
    <path d="M161,61.56c.23,0,.23,1.49,0,1.49H154.4c-.22,0-.22-1.49,0-1.49Z"/>
    <circle cx="157.68" cy="52.88" r="2.21"/>
    <path d="M161.1,314.67v1c-.52.57-6.32.57-6.81,0v-1c-1,.25-1.7.63-1.7,1.11v.64c0,.88,2.28,1.45,5.11,1.45s5.11-.57,5.11-1.45v-.64C162.81,315.3,162.15,314.92,161.1,314.67Z"/>
    <circle cx="48.06" cy="145.36" r="1.6"/>
  </g>
  <path class="lever" d="M159.58,54a2.18,2.18,0,0,1-.33.42,1.9,1.9,0,0,1-.6.43l7,7.41a2.1,2.1,0,0,1,.38-.52,2.27,2.27,0,0,1,.54-.35Z"/>
  <g class="ball">
    <circle cx="154.86" cy="49.92" r="1.88"/>
    <circle cx="167.28" cy="63.13" r="1.88"/>
  </g>
</svg>
