<svg viewBox="0 0 315.39 419.26">
  <g class="chineseRedDark">
    <path d="M63.07,165.21C80,138,77.29,139.3,58.73,163.49A14,14,0,0,1,63.07,165.21Z"/>
    <path d="M177.91,5.84c-4.84-7.81,13.2-7.19,7.53.32Z"/>
  </g>
  <path class="ghostTail" d="M117.92,197.26c-.13,4.8-.56,9.11,0,11.85,4.45,3.27,0,6.35.58,10.27,3.68,24.78,7.65,54.65,5.66,65.61-2.61,14.35-30.07,40.4-50.5,63.84-1.19,1.36.92,6.58-5.37,7.11,1.28,2.12,0,5.87-2.67,6.15C60,380.43,65.35,406,40,418.56c17.18-22.5-33.25-52.11,4.06-83.1,13.52-11.22,11.3-39.88,25.08-56.26-2.19-1-3.07-3.25-.35-5.17-1.74-.48-2.13-3.41.35-4.84C54,234.11,19.76,217.32,50.64,175.93c2.63-3.54,1.43-7.89,5.86-7.16,2.43-2,5.69-4.34,9.15-7.15C104.68,153.6,127.67,160.35,117.92,197.26Z"/>
  <path class="hairDarkGray" d="M145.34,51.86c-.39,4.93-.59,9.61,1.46,13.54C152.22,66.58,172,55.94,179.36,47,167.56,46.9,155.43,48.37,145.34,51.86Z"/>
  <g class="chineseRed">
    <path d="M145.52,40.21c13.89-9.13,59.55-7.41,72.53,1.66,4-19.06-7.31-34.63-36.7-36C161.14,4.92,144.31,17.33,145.52,40.21Z"/>
    <path d="M73.65,143.69c1.78,2.21-.54,6.9-12.37,23,9,8.77,29,21.87,39.41,26.53,19.93-33.41,24.31-27.6,2.72,1.64,4.45,3.21,16.07,9,20.64,10.5A260.07,260.07,0,0,1,138.26,182c4.93-7.51,10.2-13.65,15-19.77s8.52-12.47,13.59-16.31c3.53,2.71,6.82,11,12.35,16.81,3.27,3.42,5.76,10.15,9.27,13.71,3.82,3.88,7.19,5.06,11.86,8.77,3.31,2.64,7.6,3.23,11.49,4.58,4.17,1.44,8.06,3.46,12.85,3.46,5.17.7,6.18,3.45,14.83,4.57,6.23.8,12,4.69,18.16,6.17,2.1-9.14,5.67-19.82,9.76-23.59-5.25-2.55-9.21-4.63-12.85-4.21-8.28-4.69-10.07-2.5-14.82-4.07-4.41-1.46-5.81-6.92-11.87-5.19-4.57-1.48-8.28-5.25-10.62-3.09-1.48-4.57-4.82-.37-6.92-3.34,1-6.05-2.2-5.54-4.33-8.65s-2-8.15-7.9-9.76c0-3.7-.95-6.59-4-7.66a1.94,1.94,0,0,0-1.73-2.47c1.3-3.91.51-6.66-3.46-7.66.12-3.25-1.35-5-4.32-5.19A67.47,67.47,0,0,0,170.13,106a6.35,6.35,0,0,0,1.61-2.1c-2.94,2.09-6.62-3.51-12,2.33,4.92-8.73-10.14-11.69-11.8-29.12a39,39,0,0,0-5.79,5.06c-5-2.9-14.41-6.24-19.7-8.32-7.56-3-12.48-3.31-15.79,2C100,70.56,99,79.19,91.82,77.57c-4.38-2.54-5.94,1.22-9.64,1.93-3.28.62-8.08-.51-11.12,1.92s-8.06,1.18-11.3,2c-2.75.71-3.92,2-7.88,3.24-9.46,3-14,14-20.38,22.32-5.59,7.21-12.84,22.86-20,34.35,6.47,6.58,13.45,11.21,21.13,13.22,3.46-8.16,8.2-7.43,9.26-16.19.5-4.07,5.93-4.94,8.53-12.48,1.23-3.56,8-2.59,5.93-8,1.11-2,8-1.36,5.68-9.51,3.71-4,6.92,1.85,12.23-1.36,2.6-1.11,4.39.52,7.79,0,4.16-.63,10.69-4.62,15.32-3-2.22,1-9.14,13.71-8.53,16.18-2.47,2.72-8.38,4.27-6.3,9.89-3.64,3.45-6.09,7.54-8.88,11.58"/>
  </g>
  <path class="chineseBlack" d="M198.53,35.67c1.27-18.84-4.73-28.42-17.18-29.8-11.37.51-18.81,10.85-19.13,29.28A134,134,0,0,1,198.53,35.67Z"/>
  <g class="chineseTrim">
    <path d="M139.67,80.88c6.25,8.61,3.53,21.85,14.15,30.18a478.43,478.43,0,0,1-54,79.13,206.37,206.37,0,0,1-35.31-23.67c4.83-12.36,15.41-22.9,9.19-22.83-2.45,3.84-11.38,12.26-16.2,19.18a3.89,3.89,0,0,0,1.61,1.85c2.32-5,8.4-10.37,14.08-18l-11.86,20c9,8.77,29,21.87,39.41,26.53l15-19.49-12.24,21.13c4.45,3.21,16.07,9,20.64,10.5.33-.63.66-1.26,1-1.89a133.24,133.24,0,0,1-18.51-9.38c15.59-30.22,39-53.74,50.25-81.38,5.6,2.8,12,.33,14.61-5.79l-.07-.05-1.2-.84c-2.68,5-7.63,7.83-13.95,4-11.64-7-8.86-21.38-14-27.83l-2.49-1.32Z"/>
    <path d="M184.59,119.13c-.49-.61-1-1.21-1.51-1.8-6.25,22.06-18.57,25.58-21.91,34.27h0a33.52,33.52,0,0,1,5.63-5.66C174.66,139.78,181.26,129.93,184.59,119.13Z"/>
    <path d="M95.57,107.85c-.42.56-.88,1.22-1.34,2,15.34,2.45,31.46-25.42,30.56-35h0l-2.32-.9C124.45,80.57,110.87,108,95.57,107.85Z"/>
    <path d="M145.34,51.86c-.78-.63-1-10.47-.08-11.47,13.79-9.48,61.23-7.59,73.4,1.93.59,2-.12,10-1.78,11.13C200.38,46.3,167.81,44.09,145.34,51.86Z"/>
  </g>
  <path class="clothesOverlapLine" d="M159.76,106.27c-1.43,1.69-3.26,3.09-3.58,3.77-11.49,24.43-27.35,45.58-40.53,63.7"/>
  <g class="clothesFoldLine">
    <path d="M117.89,209.11a89.51,89.51,0,0,0-17.85-12"/>
    <path d="M56.5,168.77a9.14,9.14,0,0,1,4.54,2.3"/>
    <path d="M69.16,269.19a12.75,12.75,0,0,1,5.25-1.65"/>
    <path d="M68.81,274a7.92,7.92,0,0,1,4.83,0"/>
    <path d="M69.16,279.2a10.74,10.74,0,0,0,3.28,1"/>
    <path d="M68.26,355.94a17.46,17.46,0,0,1-6.62-1.73"/>
    <path d="M65.59,362.09a11.56,11.56,0,0,1-5.31-.47"/>
    <path d="M37.05,132c-.1,7.17,2.19,14.43,3.88,8.76"/>
    <path d="M43.52,114.44c1.92,5.82,3.9,10.71,6.17,11.75"/>
    <path d="M57.85,114.34c-3.35-1.21-4.24.22-1.51,5.53"/>
    <path d="M62,110.36c-.26-1.91-1.57-4.19-3.17-6.57"/>
    <path d="M54.77,98.81c-10.16-8.75,6-5.17,11.64,7.67"/>
    <path d="M70.89,95c3.69,4.68,9.66,10.35,3.36,14"/>
    <path d="M91.82,77.57c1.72,2.69,2.81,7,3.56,12.09"/>
    <path d="M110.51,77.91c-1.68,2.55-2.49.1-3.83-2,4.82-.31,9.4-5,7.71,6.76"/>
    <path d="M104.34,93.94c-.15,5-3.69,11.24-7,12.1,9-.66,13.15-10.51,13.25-17.48"/>
    <path d="M88.83,122.22c.48,2.34,1,4.68-2.21,6.26"/>
    <path d="M82.53,132.11c.71,2.34,1.47,4.72,0,5.62"/>
    <path d="M118.47,113c-2.14,7.12-3.06,14.57-.7,22.89"/>
    <path d="M82.74,153.66c-.46,8.42,1.05,16.16,5.17,23"/>
    <path d="M130.22,185.31c-2.29,3.29-11,8.46-14.54,7.27"/>
    <path d="M183.27,129.27c4.67-1.25-4.34,12.62-13.84,14.43"/>
    <path d="M177.7,144.4a16.52,16.52,0,0,1-10.9,1.54"/>
    <path d="M188.91,124.32c.43,3.56-2.55,6.65.53,5.05"/>
    <path d="M192.37,132c-.66,2-1.5,3.53-2.63,4.16"/>
    <path d="M194.1,134.45c.3,5.06-2.33,9.49-9.14,13"/>
    <path d="M198.06,142.11c4.22,6.17,4.42,17.82-6.53,20.81"/>
    <path d="M210.29,160.52c-4.33,8.77-16.91,12.3-15.17,14.44s3.88-2,6.17-4.68"/>
    <path d="M213,161.67c-5.78,2.24-6.38,18.65-9.46,18.57-2-.06-1-3,0-5.68"/>
    <path d="M217.21,163.86c-1.89.8-2.49,3.83-4.28,5.53"/>
    <path d="M227.83,167c-2.94,1.21-5.71,2.09-7.33.84"/>
    <path d="M224.62,193.27c2.67.61,5.83-2.08,9.71-2.58"/>
    <path d="M233.44,170.78c2,4.28,1.79,7.56,9,4.88"/>
    <path d="M254.52,176.21c-1.77.74-3.46,1.24-4.86.84"/>
  </g>
  <g class="clothesCreaseLine">
    <path d="M104,206.75a213.83,213.83,0,0,0-21.88-12.6"/>
    <path d="M89.05,203.34a121.41,121.41,0,0,0-20.52-10.9"/>
    <path d="M108.55,228a110.35,110.35,0,0,0-20.18-9.79"/>
    <path d="M109.32,245.57c-4.25-2.31-8.91-4.58-13.88-6.81"/>
    <path d="M116.64,252.89a107.7,107.7,0,0,0-14.13-6.72"/>
  </g>
  <g class="chineseTie">
    <path d="M147.77,109.41l-1.44,2.27a138.89,138.89,0,0,1,13.59,8.94l1.48-2.17A104.88,104.88,0,0,1,147.77,109.41Z"/>
    <circle cx="154.03" cy="115.16" r="1.62"/>
    <path d="M136.24,129.61l-1.48,2.24a137.8,137.8,0,0,1,13.37,9.24l1.53-2.14A104.15,104.15,0,0,1,136.24,129.61Z"/>
    <circle cx="142.38" cy="135.5" r="1.62"/>
    <path d="M123.92,148l-1.63,2.14A137.38,137.38,0,0,1,135,160.31l1.67-2A104.4,104.4,0,0,1,123.92,148Z"/>
    <circle cx="129.64" cy="154.34" r="1.62"/>
    <path d="M111.33,166.19l-1.49,2.23a136.83,136.83,0,0,1,13.38,9.25l1.53-2.14A104.45,104.45,0,0,1,111.33,166.19Z"/>
    <circle cx="117.46" cy="172.08" r="1.62"/>
  </g>
  <g class="eye">
    <circle class="sclera" cx="196.59" cy="67.97" r="14.46"/>
    <g class="irisDarkBrown">
      <ellipse cx="190.32" cy="67.69" rx="3.33" ry="2.99" transform="translate(66.83 227.54) rotate(-71.89)"/>
      <ellipse cx="207.23" cy="73.22" rx="3.33" ry="2.29" transform="translate(73.23 247.44) rotate(-71.89)"/>
    </g>
    <g class="pupil">
      <ellipse cx="190.61" cy="68.03" rx="1.29" ry="1.16" transform="matrix(0.31, -0.95, 0.95, 0.31, 66.71, 228.06)"/>
      <ellipse cx="207.52" cy="73.56" rx="1.29" ry="0.89" transform="translate(73.1 247.93) rotate(-71.89)"/>
    </g>
  </g>
  <g class="skinEastAsian">
    <path d="M156,63.17c-3.31,1.42-6.2,2.29-8.11,2.31,1.77,4.44,1.17,9.64.3,13.18,2.34,16.08,16.39,19.14,11.62,27.61,3.68-4,6.57-2.63,9-2,1.9-3.08,9.47-5.61,9.47-5.61Z"/>
    <path d="M161.49,54.2c2-7.37-7.46-12.16-11.58-3.75-3,6-.21,11,.64,14.53.66,3.6,1.73,5.18,6.07,3.65C158,63.2,160.64,58.7,161.49,54.2Z"/>
  </g>
  <g class="skinGhostLight">
    <path d="M13,144.82C9.88,149.24,3.3,151.27,2.36,164c-3.66,1.44-2.19,7.29,1.55,6.95-.76,2.89,2.38,5.7,4.93,4.59-1.27,2.13.51,5.53,2.81,4.85s5.27.68,6.8-1.62c4.76,0,6.21-4.71,9.78-9.35,2.16-2.81-.38-7.7-1.51-14.92A50.08,50.08,0,0,1,13,144.82Z"/>
    <path d="M315.08,210.06c-.47-1.71-3.58-1.48-9.41-7.93-2.7-2.45-7.62-5.6-10.11-8.09-14.48-13.32-22.22-10.69-28.82-13-2.64,2.92-5,8.61-6.92,14.71,6.58.14,2.95,8.63,12.58,12.89,1,2.7,4.74,9.56,10,4.35,2.11,3,6,2.88,7.39,1.25.93-.78-.92-3.23-.54-5.06,3.82,0,4.35-3.57,4.82-6.68,2.88.7,6.06,4.35,10.72,7.07C307.92,213.4,315.93,214.88,315.08,210.06Z"/>
    <path d="M161.49,54.2a17.74,17.74,0,0,0,5.61,2.49c1-5.55,6.22-6,12.26-9.71,14.46.09,28.43,2.53,37.52,6.47-1.72,5.82-1.42,9.82-3.53,13.22s.42,3.24-3.25,7.54c-1.89,2.42,1.4,6.08-5.31,19.05-5.48,10.62-10,10.87-14.28,14.17-4.64,3.57-12.59.07-17.12-4.18-6.42-6-22-13-16.77-34.62C158,63.2,160.64,58.7,161.49,54.2ZM193.9,68.38c0-3.12-1.7-4.07-3-4.42a13.5,13.5,0,0,0-7.82.6c2.22,2.57,5,5.77,10,4.57C193.44,69,193.9,69.28,193.9,68.38Zm9.74,4c.87.16,1.72,2.79,5.11,1.65.62-.62,1.39-3,1-3.7-2.75-1.65-4.87,0-6.52,1.2C202.86,71.8,203,72.25,203.64,72.36Z"/>
  </g>
  <g class="skinOverlapLine">
    <path d="M289.27,209.2c-.82-3.71,2.08-8.74-4.87-12.84a6.72,6.72,0,0,0,5.28,1.27"/>
    <path d="M270.48,200c4.31,5.19,7.51,2.08,11.19,6.29a9.56,9.56,0,0,0,.75,6.73c-6.25-2.12-9-6.51-5.52-9.38"/>
    <path d="M272.4,208.66c0-1.52,2.09-2.72,3-2.16"/>
    <path d="M9.06,167.4c-1.56,1.6-3.13,3.17-5.15,3.51"/>
    <path d="M20.71,171.36c-3.38,3.5-5.85,9.19-11.87,4.14,2-.54,5.21-4.3,6.18-6.34"/>
    <path d="M18.45,178.73a4.45,4.45,0,0,1-2.88-2"/>
  </g>
  <g class="skinFoldLine">
    <path d="M151.14,60.19c-3.18-12.11,10-16.83,8.3-4.34"/>
    <path d="M157.91,57.83c-2.52,1.62.33,5.1-1.92,5.28-1.4.11-.32-2.26-2.41-4.36s1.6-6.53,3-3.78"/>
  </g>
  <path class="lipMaleMedium__noStroke" d="M197.13,92.29c1.7-4.22-2.28-.14-4.51-3.64-2.63.23-4.84,2.6-7.71,4.22-1.18,3.89-2.41,7.53,4.08,8.3,3.85.46,6.54-4.77,5.08-8.45A2.14,2.14,0,0,0,197.13,92.29Z"/>
  <path class="mouthInner" d="M194.08,94.89a2.81,2.81,0,0,1-.07-3c-1.63.06-2.47-1.71-3.51-1.6-1.56.15-3.47,2-5.59,2.53C186.89,97.25,190.52,99.27,194.08,94.89Z"/>
  <path class="tongue" d="M190.94,92a19,19,0,0,0-2.8-.6,12.23,12.23,0,0,1-3.23,1.52c1.14,2.52,2.83,4.26,4.73,4.44C190.83,95.79,191.84,93.36,190.94,92Z"/>
  <path class="teeth" d="M193.62,91.92c-1.38-.2-2.17-1.68-3.12-1.58a7.92,7.92,0,0,0-2.82,1.28,8.49,8.49,0,0,0,5,1.95A3.6,3.6,0,0,0,193.62,91.92Z"/>
  <g class="lipOverlapLine">
    <path d="M194.08,94.89a4.63,4.63,0,0,0,.95.87"/>
    <path d="M195.36,91.8a8.38,8.38,0,0,1-1.35.14"/>
    <path d="M184.91,92.87a6.29,6.29,0,0,1-1.81.28"/>
  </g>
  <g class="lipEdgeLine">
    <path d="M192.62,88.65c2.23,3.5,6.21-.58,4.51,3.64"/>
    <path d="M184.11,98.35c1.6,3.09,7,4.23,9.08.48"/>
  </g>
  <g class="smileLine">
    <path d="M201.78,62.18c-1,1.71-2.1,3.22-4.06,3.32"/>
    <path d="M204.82,63.29a5.86,5.86,0,0,0-1.08,3.49"/>
  </g>
  <g class="cheekLine">
    <path d="M181.27,89.35a11.45,11.45,0,0,1,3.67-5c3.05-2.2,3.75-3.52,5.6-4"/>
    <path d="M198.41,93.66a16.58,16.58,0,0,0,1-6.46"/>
  </g>
  <g class="noseLine">
    <path d="M190.54,80.36a2.43,2.43,0,0,0-1.1,3.7"/>
    <path d="M201.43,80.1c-.09,2.25,2.13,7.05-3.3,7.26-3.26.12-5.54-3.79-7.7-3.27"/>
  </g>
  <g class="eyeFoldLine">
    <path d="M208.18,76.3a4,4,0,0,1-5-1.24"/>
    <path d="M191,71.5A6,6,0,0,1,184.27,69"/>
  </g>
  <g class="eyeCornerLine">
    <path d="M180.7,64.78a6.12,6.12,0,0,0,2.37-.22"/>
    <path d="M208.75,74a3.08,3.08,0,0,0,.9-.54"/>
    <path d="M209.77,70.31a1.4,1.4,0,0,1,.62,1.26"/>
    <path d="M194.23,66a5.69,5.69,0,0,0-3.34-2"/>
  </g>
  <g class="eyebrowDarkGray">
    <path d="M199.22,63.28c-4.43,1.63-5-1.36-10-4.44-3.3-2-7.83-1.79-5.87-2.94C196.53,56.25,195.53,61.76,199.22,63.28Z"/>
    <path d="M205.13,65.08c2.44,3.19,5.22.6,8.41,1.27a11.19,11.19,0,0,0,.76-1.65C209.51,62.59,207.36,65.48,205.13,65.08Z"/>
  </g>
  <g class="fatherGlassesDisplayLine">
    <path d="M202.46,69.53c1.85-5.27,11.87-1.57,13.75,1.24,1.51,2.25-2.11,9.9-4,11.51-2.67,2.3-8.81.18-10.16-1.16C200.55,79.62,200.54,75,202.46,69.53Z"/>
    <path d="M198.26,68.25c1.87-5.35-9.49-8.55-13.36-7.37-3.19,1-5.24,10.15-4.52,12.72,1,3.59,8.42,5,10.56,4.54C193.28,77.65,196.31,73.8,198.26,68.25Z"/>
    <path d="M198.26,68.25c.51-.87,4.26.32,4.2,1.28"/>
  </g>
</svg>
