<svg viewBox="0 0 2046.27 2719.49">
  <g class="chineseRedDark">
    <path d="M408.84,1071.93c109.79-176.87,92.29-168.22-28.19-11.17C387.56,1061.82,397.67,1065.55,408.84,1071.93Z"/>
    <path d="M1154.36,37.26c-31.4-50.67,85.69-46.63,48.88,2.09Z"/>
  </g>
  <path class="ghostTail" d="M764.9,1280c-.82,31.17-3.62,59.14-.18,77,28.91,21.23,0,41.19,3.75,66.64,23.88,160.91,49.68,354.78,36.75,425.92-17,93.18-195.19,262.33-327.85,414.48-7.7,8.83,6,42.7-34.82,46.13,8.28,13.8-.05,38.15-17.34,39.92-36.45,119.11-1.6,285.3-166,366.66,111.49-146.09-215.91-338.31,26.32-539.48,87.77-72.89,73.34-258.94,162.86-365.28-14.22-6.28-20-21.12-2.29-33.53-11.3-3.17-13.86-22.19,2.29-31.44-98.81-227.75-320.71-336.75-120.29-605.48,17.11-22.93,9.31-51.22,38.1-46.42,15.75-12.91,36.93-28.22,59.35-46.42C678.93,996.54,828.2,1040.35,764.9,1280Z"/>
  <path class="hairDarkGray" d="M942.93,336.05c-2.56,32-3.81,62.39,9.49,87.88,35.14,7.67,163.66-61.36,211.33-119.59C1087.19,303.82,1008.45,313.4,942.93,336.05Z"/>
  <g class="chineseRed">
    <path d="M944.09,260.44c90.15-59.27,386.57-48.15,470.84,10.78,26-123.76-47.45-224.87-238.2-233.76C1045.51,31.34,936.21,111.89,944.09,260.44Z"/>
    <path d="M477.54,932.19C489,946.58,474,977,397.22,1081.6c58.55,57,188.49,142,255.86,172.25,129.37-216.94,157.83-179.21,17.66,10.63,28.88,20.86,104.27,58.56,134,68.18,28.92-55.81,61.92-105.43,92.25-151.6,32-48.77,66.27-88.64,97-128.34s55.32-81,88.24-105.88c23,17.54,44.31,71.49,80.21,109.09,21.2,22.21,37.36,65.93,60.16,89,24.82,25.16,46.7,32.84,77,57,21.49,17.1,49.32,20.94,74.6,29.67,27.08,9.36,52.3,22.47,83.42,22.46,33.56,4.58,40.1,22.46,96.25,29.68,40.44,5.2,77.81,30.48,117.91,40.11,13.64-59.36,36.8-128.73,63.37-153.21-34.09-16.49-59.79-30-83.42-27.27-53.74-30.48-65.37-16.24-96.26-26.47-28.58-9.46-37.69-44.92-77-33.69-29.68-9.62-53.77-34.06-69-20-9.63-29.68-31.28-2.41-44.92-21.66,6.42-39.3-14.25-36-28.07-56.15-13.21-19.27-12.84-52.94-51.34-63.36-.11-24-6.15-42.81-25.67-49.73,1.53-9-2.53-14.13-11.23-16,8.41-25.36,3.31-43.26-22.46-49.73.74-21.11-8.78-32.18-28.07-33.69-25.08-31.37-57-59.42-93.85-85a40.25,40.25,0,0,0,10.43-13.64c-19.11,13.61-43-22.77-77.75,15.16,31.92-56.7-65.82-75.92-76.62-189.06-15.23,9.88-23.3,19.41-37.58,32.87-32.29-18.85-93.59-40.53-127.92-54-49.09-19.28-81-21.47-102.49,13.23-43.35-34.87-50.07,21.18-96.5,10.65-28.42-16.49-38.53,7.91-62.54,12.51-21.32,4.07-52.49-3.29-72.2,12.5s-52.31,7.66-73.34,13.08c-17.9,4.61-25.47,13-51.17,21C274.8,581.42,245.62,653.27,203.91,707,167.57,753.82,120.49,855.4,74,930c42,42.74,87.33,72.8,137.17,85.82,22.45-52.93,53.26-48.23,60.15-105.07,3.21-26.47,38.51-32.09,55.35-81,8-23.17,52.14-16.84,38.5-52.13,7.22-12.84,52.14-8.83,36.9-61.77,24.06-25.66,44.92,12,79.41-8.82,16.84-7.22,28.44,3.34,50.53,0,27-4.08,69.41-30,99.47-19.25-14.44,6.42-59.36,89-55.35,105.08-16,17.64-54.45,27.69-40.91,64.17-23.66,22.44-39.53,49-57.64,75.18"/>
  </g>
  <path class="chineseBlack" d="M1288.22,230.93c8.27-122.29-30.71-184.46-111.49-193.47-73.84,3.34-122.16,70.49-124.22,190.12C1124.73,217.72,1213.89,219.41,1288.22,230.93Z"/>
  <g class="chineseTrim">
    <path d="M906.09,524.47C946.69,580.36,929,666.33,998,720.35,899.13,903.45,779,1076.49,647.07,1234.07c-84-45.38-160.9-96-229.2-153.64,31.35-80.28,100-148.68,59.67-148.24-16,24.92-73.91,79.62-105.19,124.54,1.12,4,4.9,8,10.43,12,15.11-32.61,54.54-67.37,91.44-117.1l-77,129.94c58.55,57,188.49,142,255.86,172.25l97.07-126.53-79.41,137.16c28.88,20.86,104.27,58.56,134,68.18q3.21-6.2,6.5-12.29c-45.31-19.26-85.93-39.44-120.18-60.88,101.24-196.23,252.91-348.91,326.23-528.31,36.37,18.17,77.6,2.1,94.88-37.59l-.49-.36-7.75-5.47c-17.42,32.24-49.54,50.84-90.58,26-75.6-45.71-57.53-138.8-90.94-180.7l-16.2-8.58Z"/>
    <path d="M1197.73,772.78q-4.74-5.92-9.79-11.68c-40.57,143.22-120.56,166-142.23,222.48h0c11.45-14.1,23.3-26.74,36.51-36.74C1133.29,906.82,1176.08,842.9,1197.73,772.78Z"/>
    <path d="M619.82,699.52c-2.74,3.64-5.69,7.94-8.71,12.66,99.61,16,204.24-165,198.39-227.29h0c-5.41-2.06-10.48-4-15.06-5.81C807.29,522.46,719.12,700.65,619.82,699.52Z"/>
    <path d="M942.93,336.05c-5.09-4.1-6.52-67.95-.53-74.48,89.51-61.52,397.51-49.28,476.49,12.57,3.82,12.76-.75,64.83-11.56,72.23C1300.23,300,1088.82,285.62,942.93,336.05Z"/>
  </g>
  <path class="clothesOverlapLine" d="M1036.56,689.28c-9.31,11-21.16,20-23.26,24.51-74.59,158.55-177.54,295.84-263.15,413.53"/>
  <g class="clothesFoldLine">
    <path d="M764.72,1356.94c-32.34-29.11-72-54.51-115.9-77.83"/>
    <path d="M366.21,1095.06A58.8,58.8,0,0,1,395.66,1110"/>
    <path d="M448.4,1747a81.92,81.92,0,0,1,34-10.72"/>
    <path d="M446.11,1778.4c8.85-3.89,19.81-2.73,31.36-.15"/>
    <path d="M448.4,1811.93c7.36,3.34,14.53,5.63,21.22,6.32"/>
    <path d="M442.55,2310.11a113.11,113.11,0,0,1-43-11.18"/>
    <path d="M425.21,2350c-11.67,2-23.14.35-34.52-3"/>
    <path d="M239.9,856.06c-.64,46.53,14.22,93.7,25.21,56.87"/>
    <path d="M281.91,742.33c12.44,37.75,25.33,69.5,40.06,76.25"/>
    <path d="M375,741.69c-21.75-7.84-27.56,1.41-9.83,35.91"/>
    <path d="M402,715.83c-1.71-12.43-10.23-27.21-20.61-42.64"/>
    <path d="M354.93,640.88C289,584,393.7,607.28,430.53,690.64"/>
    <path d="M459.61,616.32c23.91,30.38,62.68,67.21,21.83,90.69"/>
    <path d="M595.45,503c11.21,17.45,18.28,45.2,23.13,78.47"/>
    <path d="M716.8,505.18c-10.91,16.55-16.16.64-24.85-12.87,31.31-2,61-32.37,50,43.89"/>
    <path d="M676.73,609.22c-.94,32.78-23.91,73-45.29,78.54,58.22-4.23,85.36-68.2,86-113.44"/>
    <path d="M576.09,792.84c3.09,15.15,6.34,30.34-14.38,40.61"/>
    <path d="M535.18,857c4.56,15.2,9.5,30.67,0,36.53"/>
    <path d="M768.49,732.64c-13.91,46.25-19.86,94.61-4.52,148.62"/>
    <path d="M536.51,996.93c-3,54.65,6.83,104.9,33.6,149.27"/>
    <path d="M844.74,1202.42c-14.86,21.33-71.72,54.93-94.34,47.18"/>
    <path d="M1189.17,838.62c30.31-8.17-28.2,81.92-89.86,93.66"/>
    <path d="M1153,936.84c-20.15,10.67-43.41,14.69-70.75,10"/>
    <path d="M1225.8,806.47c2.78,23.1-16.6,43.13,3.43,32.79"/>
    <path d="M1248.26,856.2c-4.28,13.24-9.75,22.93-17.09,27"/>
    <path d="M1259.49,872.25c1.94,32.8-15.16,61.58-59.34,84.62"/>
    <path d="M1285.16,922c27.43,40.06,28.72,115.66-42.36,135"/>
    <path d="M1364.57,1041.49c-28.07,56.9-109.75,79.84-98.51,93.73,11,13.57,25.21-12.92,40.07-30.37"/>
    <path d="M1382.41,1049c-37.51,14.52-41.38,121-61.42,120.5-13.08-.36-6.22-19.24,0-36.84"/>
    <path d="M1409.49,1063.15c-12.27,5.18-16.13,24.9-27.76,35.88"/>
    <path d="M1478.47,1083.2c-19.13,7.89-37.08,13.56-47.63,5.49"/>
    <path d="M1457.62,1254.05c17.34,4,37.84-13.5,63.05-16.73"/>
    <path d="M1514.85,1108.08c12.92,27.79,11.63,49.11,58.16,31.66"/>
    <path d="M1651.73,1143.36c-11.52,4.78-22.5,8-31.55,5.43"/>
  </g>
  <g class="clothesCreaseLine">
    <path d="M674.25,1341.57a1396.52,1396.52,0,0,0-142.06-81.8"/>
    <path d="M577.52,1319.47c-37.27-25.69-82.82-48.94-133.22-70.76"/>
    <path d="M704.1,1479.76a715.55,715.55,0,0,0-131-63.56"/>
    <path d="M709.07,1593.63c-27.61-15-57.86-29.74-90.1-44.22"/>
    <path d="M756.61,1641.16c-27.76-16.06-58.57-30.49-91.76-43.66"/>
  </g>
  <g class="chineseTie">
    <path d="M958.68,709.66l-9.3,14.75a895.77,895.77,0,0,1,88.17,58l9.61-14.1A677,677,0,0,1,958.68,709.66Z"/>
    <circle cx="999.35" cy="747.02" r="10.54"/>
    <path d="M883.85,840.8l-9.63,14.54a895.12,895.12,0,0,1,86.85,60L971,901.44A676.41,676.41,0,0,1,883.85,840.8Z"/>
    <circle cx="923.67" cy="879.06" r="10.54"/>
    <path d="M803.89,960.42l-10.61,13.84a892.94,892.94,0,0,1,82.51,65.83l10.86-13.17A677.59,677.59,0,0,1,803.89,960.42Z"/>
    <circle cx="840.98" cy="1001.33" r="10.54"/>
    <path d="M722.1,1078.25l-9.62,14.54a896.21,896.21,0,0,1,86.84,60l9.93-13.89A676.41,676.41,0,0,1,722.1,1078.25Z"/>
    <circle cx="761.93" cy="1116.51" r="10.54"/>
  </g>
  <g class="eye">
    <circle class="sclera" cx="1275.64" cy="440.65" r="93.87"/>
    <g class="irisDarkBrown">
      <ellipse cx="1234.91" cy="438.83" rx="21.62" ry="19.42" transform="translate(434 1476.19) rotate(-71.89)"/>
      <ellipse cx="1344.73" cy="474.74" rx="21.62" ry="14.88" transform="translate(475.56 1605.33) rotate(-71.89)"/>
    </g>
    <g class="pupil">
      <ellipse cx="1236.82" cy="441.03" rx="8.41" ry="7.55" transform="translate(433.23 1479.53) rotate(-71.89)"/>
      <ellipse cx="1346.56" cy="476.92" rx="8.41" ry="5.79" transform="translate(474.75 1608.56) rotate(-71.89)"/>
    </g>
  </g>
  <g class="skinEastAsian">
    <path d="M1011.79,409.46c-21.48,9.26-40.25,14.88-52.66,15,11.51,28.8,7.64,62.54,2,85.52,15.17,104.41,106.41,124.24,75.44,179.26,23.88-26.06,42.62-17,58.21-13.26,12.32-20,61.48-36.42,61.48-36.42Z"/>
    <path d="M1047.78,351.23c12.92-47.85-48.45-79-75.21-24.31-19.63,38.95-1.33,71.43,4.16,94.3,4.31,23.41,11.25,33.6,39.41,23.69C1025.23,409.64,1042.26,380.49,1047.78,351.23Z"/>
  </g>
  <g class="skinGhostLight">
    <path d="M83.62,939.54c-20.08,28.73-62.81,41.9-68.92,124.26C-9,1073.18.49,1111.14,24.77,1108.93c-5,18.77,15.46,37,32,29.81-8.28,13.8,3.31,35.88,18.21,31.47,15.43-4.58,34.23,4.41,44.16-10.49,30.91,0,40.3-30.58,63.48-60.72,14-18.25-2.47-50-9.8-96.86C141.38,987.81,111.75,966.52,83.62,939.54Z"/>
    <path d="M2044.86,1363.07c-3-11.11-23.22-9.59-61.08-51.48-17.51-15.9-49.46-36.34-65.61-52.49-94-86.46-144.25-69.44-187.13-84.29-17.14,19-32.68,55.91-44.92,95.49,42.74.91,19.19,56.06,81.65,83.71,6.68,17.53,30.78,62.06,65.09,28.22,13.65,19.28,38.87,18.69,48,8.09,6.06-5-6-21-3.51-32.8,24.82.18,28.24-23.22,31.27-43.41,18.7,4.54,39.37,28.27,69.65,45.93C1998.42,1384.77,2050.41,1394.36,2044.86,1363.07Z"/>
    <path d="M1047.78,351.23c9.62,7.33,26.18,13.65,36.39,16.17,6.21-36,40.39-39.08,79.58-63.06,93.92.63,184.58,16.46,243.58,42-11.15,37.77-9.22,63.74-22.87,85.84-14.14,22.88,2.71,21-21.11,49-12.25,15.68,9.05,39.45-34.45,123.68-35.59,68.91-64.85,70.57-92.71,92C1206,720,1154.46,697.3,1125,669.68c-41.68-39.13-143.11-84.7-108.9-224.77C1025.23,409.64,1042.26,380.49,1047.78,351.23Zm210.37,92.1c-.05-20.31-11-26.48-19.52-28.72-18.56-4.87-41.11-.55-50.74,3.88,14.36,16.71,32.57,37.47,64.9,29.67C1255.19,447.58,1258.17,449.15,1258.15,443.33Zm63.27,25.81c5.66,1,11.12,18.13,33.14,10.71,4.07-4,9-19.25,6.62-24-17.85-10.69-31.59-.26-42.29,7.77C1316.33,465.51,1317.49,468.41,1321.42,469.14Z"/>
  </g>
  <g class="skinOverlapLine">
    <path d="M1877.31,1357.52c-5.33-24.08,13.53-56.78-31.64-83.41,11.09,7.37,22.47,11,34.33,8.25"/>
    <path d="M1755.34,1297.71c28,33.71,48.71,13.51,72.65,40.81-2.91,13.44-3.23,27.7,4.87,43.71-40.61-13.73-58.68-42.26-35.85-60.87"/>
    <path d="M1767.77,1354c-.06-9.85,13.57-17.69,19.24-14"/>
    <path d="M58.19,1086.12c-10.12,10.39-20.31,20.61-33.42,22.81"/>
    <path d="M133.84,1111.87c-22,22.67-38,59.63-77.05,26.87,12.9-3.51,33.82-27.91,40.09-41.16"/>
    <path d="M119.16,1159.72c-9-1.47-15.65-8.1-18.69-12.81"/>
  </g>
  <g class="skinFoldLine">
    <path d="M980.59,390.11c-20.65-78.61,64.7-109.23,53.84-28.17"/>
    <path d="M1024.5,374.82c-16.33,10.51,2.14,33.12-12.44,34.27-9.08.72-2.08-14.64-15.67-28.3-14.45-14.53,10.39-42.39,19.81-24.52"/>
  </g>
  <path class="lipMaleMedium__noStroke" d="M1279.15,598.53c11-27.4-14.82-.93-29.28-23.65-17.08,1.53-31.46,16.91-50,27.43-7.66,25.23-15.67,48.84,26.44,53.86,25,3,42.49-30.94,33-54.83C1265,606.18,1275.42,604.89,1279.15,598.53Z"/>
  <path class="mouthInner" d="M1259.34,615.42c-3.89-5.95-3.76-12.37-.43-19.17-10.6.42-16-11.07-22.79-10.41-10.16,1-22.58,13.27-36.28,16.47C1212.64,630.69,1236.21,643.81,1259.34,615.42Z"/>
  <path class="tongue" d="M1239,596.3a125.2,125.2,0,0,0-18.21-3.9c-6.5,3.81-13.52,8.18-20.92,9.91,7.37,16.35,18.32,27.63,30.7,28.83C1238.26,621.23,1244.82,605.45,1239,596.3Z"/>
  <path class="teeth" d="M1256.34,596.11c-8.95-1.3-14-10.87-20.22-10.27-5.5.55-11.66,4.39-18.33,8.3,8.59,8,20.46,11.45,32.59,12.71C1251.7,606.38,1255.15,600.75,1256.34,596.11Z"/>
  <g class="lipOverlapLine">
    <path d="M1259.34,615.42a30.47,30.47,0,0,0,6.16,5.63"/>
    <path d="M1267.62,595.34a51.59,51.59,0,0,1-8.71.91"/>
    <path d="M1199.84,602.31c-2.89.88-8.5,2-11.76,1.77"/>
  </g>
  <g class="lipEdgeLine">
    <path d="M1249.87,574.88c14.46,22.72,40.32-3.75,29.28,23.65"/>
    <path d="M1194.6,637.88c10.37,20.08,45.71,27.46,58.93,3.11"/>
  </g>
  <g class="smileLine">
    <path d="M1309.36,403.07c-6.46,11.08-13.67,20.91-26.38,21.54"/>
    <path d="M1329.05,410.28c-4.6,7.51-7.62,15.05-7,22.65"/>
  </g>
  <g class="cheekLine">
    <path d="M1176.19,579.45c4.45-11.37,12.31-24.2,23.83-32.52,19.81-14.33,24.33-22.84,36.32-25.88"/>
    <path d="M1287.48,607.41c5.42-15.45,7.13-30.29,6.31-41.92"/>
  </g>
  <g class="noseLine">
    <path d="M1236.34,521.05c-8.43,2-14,15.94-7.14,24.06"/>
    <path d="M1307.06,519.41c-.56,14.58,13.81,45.77-21.43,47.08-21.15.78-36-24.59-50-21.18"/>
  </g>
  <g class="eyeFoldLine">
    <path d="M1350.88,494.72c-10.43,6.12-25.77,1.47-32.55-8.08"/>
    <path d="M1239.38,463.55c-16.39,4.17-34.16-.9-43.73-16.49"/>
  </g>
  <g class="eyeCornerLine">
    <path d="M1172.47,419.9c5.16.69,9,.06,15.42-1.41"/>
    <path d="M1354.56,479.85a19.19,19.19,0,0,0,5.84-3.51"/>
    <path d="M1361.18,455.82c2.62,1.44,4.3,5.17,4.07,8.18"/>
    <path d="M1260.35,427.65c-6.43-6.93-13.45-12-21.72-13"/>
  </g>
  <g class="eyebrowDarkGray">
    <path d="M1292.72,410.2c-28.74,10.56-32.58-8.84-65.1-28.83-21.47-13.2-50.87-11.6-38.12-19.12C1275.26,364.56,1268.74,400.31,1292.72,410.2Z"/>
    <path d="M1331.06,421.85c15.88,20.73,33.89,3.89,54.63,8.28a73.91,73.91,0,0,0,5-10.7C1359.54,405.72,1345.53,424.44,1331.06,421.85Z"/>
  </g>
  <g class="fatherGlassesDisplayLine">
    <path d="M1313.74,450.78c12-34.24,77.08-10.18,89.29,8.06,9.75,14.55-13.69,64.22-25.83,74.68-17.33,15-57.22,1.15-66-7.52C1301.34,516.26,1301.26,486.34,1313.74,450.78Z"/>
    <path d="M1286.46,442.44c12.15-34.72-61.59-55.52-86.71-47.81-20.73,6.35-34,65.89-29.35,82.54,6.52,23.32,54.65,32.45,68.52,29.52C1254.13,503.48,1273.85,478.5,1286.46,442.44Z"/>
    <path d="M1286.46,442.44c3.34-5.63,27.7,2.11,27.28,8.34"/>
  </g>
</svg>
