<svg id="presence" xmlns="http://www.w3.org/2000/svg" viewBox="0 0 1664.21 2255.25">
  <defs>
    <style>
      .cls-1 {
        fill: none;
        stroke: #000;
        stroke-miterlimit: 10;
        stroke-width: 2px;
      }
    </style>
  </defs>
  <title>accusatory</title>
  <path id="fatherChineseShirtInner" class="cls-1" d="M336.14,607.69C445.93,430.82,428.43,439.47,308,596.52,314.87,597.59,325,601.31,336.14,607.69Z"/>
  <path id="ghostTail" class="cls-1" d="M692.2,815.72c-.81,31.17-3.61,59.14-.18,77,28.91,21.23,0,41.19,3.76,66.65,23.87,160.9,49.68,354.77,36.74,425.92-16.94,93.17-195.19,262.32-327.85,414.47-7.7,8.83,6,42.7-34.82,46.13,8.28,13.81-.05,38.15-17.34,39.92-36.45,119.11-1.59,285.31-166,366.67C298,2106.36-29.38,1914.14,212.84,1713c87.78-72.89,73.34-258.94,162.86-365.28-14.22-6.27-20-21.12-2.29-33.53-11.3-3.17-13.86-22.19,2.29-31.44C276.89,1055,55,946,255.41,677.25c17.11-22.94,9.31-51.23,38.1-46.42,15.75-12.92,36.93-28.22,59.36-46.43C606.23,532.31,755.5,576.11,692.2,815.72Z"/>
  <g id="clothesCreaseLine">
    <path class="cls-1" d="M601.55,877.34a1395.5,1395.5,0,0,0-142.06-81.81"/>
    <path class="cls-1" d="M504.82,855.23C467.55,829.54,422,806.3,371.61,784.48"/>
    <path class="cls-1" d="M631.4,1015.53A715.23,715.23,0,0,0,500.4,952"/>
    <path class="cls-1" d="M636.37,1129.39c-27.61-15-57.86-29.73-90.1-44.22"/>
    <path class="cls-1" d="M683.91,1176.93c-27.75-16.07-58.57-30.5-91.76-43.67"/>
  </g>
  <g id="clothesFoldLine">
    <path class="cls-1" d="M692,892.7c-32.34-29.11-72-54.51-115.9-77.82"/>
    <path class="cls-1" d="M293.51,630.83A58.72,58.72,0,0,1,323,645.74"/>
    <path class="cls-1" d="M375.7,1282.72A82.25,82.25,0,0,1,409.75,1272"/>
    <path class="cls-1" d="M373.41,1314.16c8.85-3.89,19.81-2.73,31.36-.15"/>
    <path class="cls-1" d="M375.7,1347.69c7.36,3.34,14.53,5.64,21.23,6.33"/>
    <path class="cls-1" d="M369.85,1845.87a113,113,0,0,1-43-11.17"/>
    <path class="cls-1" d="M352.51,1885.79c-11.67,2-23.14.35-34.52-3"/>
  </g>
  <path id="fatherChineseShirt" class="cls-1" d="M404.84,468c11.5,14.4-3.52,44.8-80.32,149.41,58.55,56.95,188.5,142,255.86,172.25C709.76,572.67,738.21,610.4,598,800.24c28.88,20.86,104.28,58.56,134,68.18,28.92-55.81,61.92-105.43,92.25-151.6,32-48.77,66.27-88.64,97-128.33s55.33-81,88.24-105.88c23,17.53,44.31,71.48,80.21,109.08,21.21,22.22,37.36,65.93,60.16,89,24.83,25.17,46.7,32.84,77,56.95,21.49,17.1,49.32,20.94,74.6,29.68,27.08,9.36,52.3,22.47,83.42,22.46,33.57,4.57,40.1,22.46,96.25,29.68,40.44,5.19,77.81,30.48,117.91,40.1,13.64-59.36,36.8-128.73,63.37-153.2-34.08-16.5-59.78-30-83.42-27.27-53.74-30.49-65.37-16.25-96.25-26.47-28.59-9.47-37.7-44.92-77-33.69-29.67-9.63-53.77-34.07-69-20.06-9.62-29.67-31.28-2.4-44.92-21.65,6.42-39.31-14.25-36-28.07-56.15-13.21-19.28-12.84-52.94-51.34-63.37-.1-24-6.15-42.8-25.66-49.73,1.53-9-2.54-14.13-11.23-16,8.4-25.37,3.31-43.27-22.46-49.73.73-21.11-8.78-32.19-28.08-33.69-25.07-31.38-57-59.43-93.85-85a40.22,40.22,0,0,0,10.43-13.63c-19.11,13.61-43-22.78-77.74,15.15,31.91-56.69-63.6-74.32-74.41-187.46a252.51,252.51,0,0,0-39.79,31.27c-32.3-18.85-93.6-40.52-127.93-54-49.09-19.28-81-21.47-102.49,13.24C575.9-6.8,569.19,49.26,522.76,38.72c-28.43-16.49-38.54,7.92-62.54,12.51C438.9,55.31,407.72,48,388,63.74s-52.31,7.65-73.34,13.07c-17.9,4.62-25.47,13-51.17,21C202.1,117.18,172.92,189,131.21,242.77c-36.33,46.82-83.42,148.39-129.94,223,42,42.74,87.32,72.8,137.16,85.83,22.46-52.94,53.27-48.23,60.16-105.08,3.2-26.47,38.5-32.08,55.34-81,8-23.18,52.14-16.85,38.5-52.14,7.22-12.83,52.14-8.82,36.9-61.76,24.06-25.67,44.92,12,79.41-8.83,16.85-7.22,28.44,3.34,50.53,0,27-4.08,69.41-30,99.47-19.25-14.44,6.42-59.36,89-55.35,105.08-16,17.65-54.44,27.7-40.91,64.17-23.65,22.44-39.52,49-57.64,75.18"/>
  <g id="fatherChineseTrim">
    <path class="cls-1" d="M833.39,60.23c40.6,55.9,23,141.86,91.87,195.89-98.83,183.1-218.94,356.14-350.88,513.71-84-45.38-160.91-96-229.21-153.63,31.35-80.28,100-148.69,59.67-148.25-15.94,24.93-73.9,79.63-105.19,124.55,1.12,4,4.91,8,10.43,12,15.11-32.62,54.54-67.38,91.44-117.11l-77,129.94c58.55,56.95,188.5,142,255.86,172.25l97.07-126.53L598,800.24c28.88,20.86,104.28,58.56,134,68.18q3.22-6.2,6.5-12.29c-45.31-19.25-85.93-39.43-120.18-60.88C719.56,599,871.22,446.34,944.54,267c36.37,18.17,77.6,2.1,94.88-37.6l-.49-.35-7.75-5.48c-17.42,32.25-49.53,50.84-90.57,26-75.61-45.7-57.54-138.8-90.94-180.7l-16.21-8.58Z"/>
    <path class="cls-1" d="M1125,308.55q-4.72-5.93-9.79-11.69C1074.67,440.08,994.68,462.91,973,519.34h0c11.45-14.1,23.3-26.73,36.51-36.73C1060.59,442.59,1103.38,378.66,1125,308.55Z"/>
    <path class="cls-1" d="M547.12,235.28c-2.74,3.64-5.69,7.94-8.71,12.67C638,263.89,742.65,82.94,736.8,20.65h0c-5.4-2.06-10.48-4-15.06-5.81C734.6,58.23,646.42,236.41,547.12,235.28Z"/>
  </g>
  <g id="fatherChineseTie">
    <path class="cls-1" d="M886,245.43l-9.3,14.75a893.4,893.4,0,0,1,88.17,58l9.62-14.11A677.07,677.07,0,0,1,886,245.43Z"/>
    <circle class="cls-1" cx="926.65" cy="282.79" r="10.54"/>
    <path class="cls-1" d="M811.15,376.57l-9.63,14.53a893.46,893.46,0,0,1,86.85,60l9.93-13.89A678.4,678.4,0,0,1,811.15,376.57Z"/>
    <circle class="cls-1" cx="850.98" cy="414.83" r="10.54"/>
    <path class="cls-1" d="M731.19,496.18,720.58,510a893.05,893.05,0,0,1,82.51,65.84L814,562.69A677,677,0,0,1,731.19,496.18Z"/>
    <circle class="cls-1" cx="768.29" cy="537.1" r="10.54"/>
    <path class="cls-1" d="M649.4,614l-9.62,14.53a894.55,894.55,0,0,1,86.84,60l9.94-13.89A677.81,677.81,0,0,1,649.4,614Z"/>
    <circle class="cls-1" cx="689.23" cy="652.28" r="10.54"/>
  </g>
  <path id="clothesOverlapLine" class="cls-1" d="M963.87,225c-9.32,11-21.16,20-23.26,24.51C866,408.1,763.06,545.39,677.45,663.08"/>
  <g id="clothesFoldLine-2" data-name="clothesFoldLine">
    <path class="cls-1" d="M167.21,391.83c-.65,46.52,14.21,93.69,25.2,56.86"/>
    <path class="cls-1" d="M209.21,278.1c12.44,37.75,25.33,69.49,40.06,76.25"/>
    <path class="cls-1" d="M302.26,277.45c-21.75-7.84-27.55,1.41-9.83,35.91"/>
    <path class="cls-1" d="M329.33,251.6c-1.71-12.43-10.22-27.22-20.61-42.65"/>
    <path class="cls-1" d="M282.23,176.64C216.32,119.78,321,143,357.83,226.4"/>
    <path class="cls-1" d="M386.91,152.09c23.91,30.37,62.68,67.2,21.83,90.68"/>
    <path class="cls-1" d="M522.76,38.72C534,56.17,541,83.92,545.88,117.19"/>
    <path class="cls-1" d="M644.1,40.94c-10.9,16.56-16.16.65-24.85-12.86,31.31-2,61-32.37,50,43.88"/>
    <path class="cls-1" d="M604,145c-.94,32.78-23.91,73-45.3,78.54,58.22-4.23,85.36-68.2,86-113.43"/>
    <path class="cls-1" d="M503.39,328.6c3.09,15.16,6.34,30.35-14.38,40.61"/>
    <path class="cls-1" d="M462.48,392.77c4.57,15.21,9.51,30.67,0,36.54"/>
    <path class="cls-1" d="M695.8,268.4C681.89,314.66,675.93,363,691.27,417"/>
    <path class="cls-1" d="M463.81,532.7c-2.95,54.64,6.83,104.89,33.6,149.27"/>
    <path class="cls-1" d="M772.05,738.19c-14.87,21.32-71.73,54.92-94.35,47.17"/>
    <path class="cls-1" d="M1116.47,374.38c30.31-8.16-28.2,81.93-89.85,93.66"/>
    <path class="cls-1" d="M1080.28,472.6c-20.14,10.68-43.41,14.69-70.75,10"/>
    <path class="cls-1" d="M1153.11,342.24c2.78,23.09-16.61,43.12,3.42,32.79"/>
    <path class="cls-1" d="M1175.57,392c-4.29,13.23-9.76,22.92-17.1,27"/>
    <path class="cls-1" d="M1186.8,408c1.93,32.8-15.17,61.58-59.35,84.62"/>
    <path class="cls-1" d="M1212.46,457.74c27.43,40.06,28.72,115.67-42.36,135"/>
    <path class="cls-1" d="M1291.87,577.26c-28.07,56.89-109.75,79.83-98.5,93.72,11,13.57,25.2-12.92,40.06-30.37"/>
    <path class="cls-1" d="M1309.71,584.73c-37.51,14.53-41.38,121-61.42,120.5-13.08-.35-6.21-19.24,0-36.83"/>
    <path class="cls-1" d="M1336.79,598.91c-12.27,5.18-16.12,24.9-27.75,35.89"/>
    <path class="cls-1" d="M1405.77,619c-19.13,7.88-37.08,13.55-47.62,5.49"/>
    <path class="cls-1" d="M1384.92,789.82c17.35,4,37.85-13.51,63-16.74"/>
    <path class="cls-1" d="M1442.15,643.84c12.93,27.79,11.63,49.11,58.16,31.67"/>
    <path class="cls-1" d="M1579,679.13c-11.52,4.78-22.5,8-31.55,5.42"/>
  </g>
</svg>
