<svg viewBox="0 0 1276.04 3014.41">
  <g class="soleLightTan">
    <path d="M555.78,2968.46c-3,9.51.22,17.28,4,25.75,10,22.39,153.79,28.13,185.68-6,29.24-31.29,71.59-34.15,56.37-67.07Z"/>
    <path d="M1106.3,2967.64c2.07,8.24,2.12,17.71-2,22.45-22.27,25.69-141.18,35.15-188.5,2.29-31.31-21.74-72.67-36.1-55.14-72.88Z"/>
  </g>
  <g class="fatherShoe">
    <path d="M1014.66,2806.32c15.15,79.71,114,82.85,94.83,164.31-6.46,27.47-136.76,40.91-184.41,13.54-30.87-17.73-65.36-32.51-68.51-69.82-1.81-32.28,4.7-68.94,20.42-108Z"/>
    <path d="M796.63,2806.32a293.2,293.2,0,0,1,9.86,112.62c-5.25,25-46.83,41.69-69.8,60-29.64,23.58-169.79,26.77-182.09-5-24.12-62.18,66.16-75.41,98.44-163Z"/>
  </g>
  <path class="fatherPants" d="M578.07,1386.9C558,1514.1,521.16,1614.52,558,1775.19c24.56,107.15,23,202.36,38.5,334.73,16.41,140.44,9.48,180.21,16.73,339.76,3.35,73.64,6.7,261.09,17.78,372,14,17.21,147.94,14.56,181.64-6.08,1.27-119.41-11.43-220.84-2.54-314.84,10.42-110.14-1.88-259.42,5.09-335.35,10.7-116.71,4.15-271.36,16.51-420.46-4.08,98.06,13.37,213.4,13.7,313.76.27,81.3,16.58,132.26,9.16,228.65-8.89,115.59,5.25,212.3-1.54,303.59-3.73,50.12,4.08,139.54,1.54,225.92,44.86,26.16,171.49,9.08,190.54-6.17-3.81-199.43,22.87-424.26,24.14-590.67.4-53.35,6.42-140.52,24.13-288.35,40.65-339.16,8.89-433.16,1.27-547.48C1025.14,1400.59,660.75,1400.59,578.07,1386.9Z"/>
  <g class="beltTan">
    <path d="M969.45,1414.12c-82,4.42-179.32,5.15-259.25,2.86-2.46,14.47-3.55,38-1.54,53.94,83.23,1.88,181.8.18,262-4.53C972.63,1451.14,971.71,1428.74,969.45,1414.12Z"/>
    <path d="M689.06,1416.29c-52.2-1.93-94.94-5.23-117.83-9.7-4.65-.91-12.69,53.1-8,53.94,27.62,5,71.95,8.21,125.21,9.85C685.77,1455,685.83,1431.83,689.06,1416.29Z"/>
    <path d="M1098.72,1401.08c-27.2,5.16-65.35,9.07-109,11.85,2.21,14.83,3.06,37.17,1,52.18,49.2-3.34,89.7-7.89,112.63-13.51C1108.56,1450.35,1103.91,1400.1,1098.72,1401.08Z"/>
  </g>
  <path class="clothingSilver" d="M883.73,1473.7c-8.36,9.92-86,10.65-95.22,1.48-7.93-7.93-8.43-51.54-1.48-60.47,5.67-7.28,89.26-8.4,95.69-1S891.66,1464.27,883.73,1473.7Z"/>
  <g class="eye">
    <rect class="sclera" x="690.89" y="292.88" width="283.33" height="73.4"/>
    <g class="irisDarkBrown">
      <circle cx="913.36" cy="323.88" r="22.5"/>
      <circle cx="744" cy="323.88" r="22.5"/>
    </g>
    <g class="pupil">
      <circle cx="913.36" cy="323.88" r="8.75"/>
      <circle cx="744" cy="323.88" r="8.75"/>
    </g>
  </g>
  <g class="skinEastAsian">
    <path d="M930.49,552.71c-7.61,27.7.66,95.07,1.54,154.25l-201.65-1.63c-1.59-69.5,9-129.89,3.21-154.79"/>
    <path d="M1120.08,1626.91c-20,89.7-34.18,216.52,17,191.88,19.2-9.25,4.8-47.49,11.84-80.33,14.07,27.08,22.39,63.37,16.09,78.92-7.18,17.7-15.47,21-24.67,39.75-29.45,15.89-35.86,60.23,2.45,37.67,10.57,13.45,27.41-10.88,54.4-29.15,24.9-16.86,34.46-72.5,45.75-104.88,7.71-22.1-21.08-70.78-29.72-126.24C1192.68,1630.28,1140.64,1625.55,1120.08,1626.91Z"/>
    <path d="M1022.23,315.27c-9.54,62,31.27,151.12-55.94,240.58-23.38,24-52.52,31.85-74.72,48.5-30,22.53-93.23,22.15-120.37,2.29-18.43-13.48-46.34-22.28-71.47-42.25-101.56-80.68-45.42-205-64-258.25C538.21-34.16,1119.25-64.16,1022.23,315.27ZM780.55,327.63c-22.78-12.49-31.44-13.19-41.13-12.58-16.87,1.05-22.27,5.32-34.58,11.18,16.24.21,21.51,5.69,38,6.52,10.84.55,22.34-3.31,31.62-2.88C777.41,330,786.81,331.07,780.55,327.63Zm106.51-.22c8.71,2.16,17.43,4.41,27.2,4.69,12.67.37,19.26-2.79,35.39-4.72-20.55-12.5-46.85-16.74-70.71-2.2C872.84,328.9,884.16,326.7,887.06,327.41Z"/>
    <path d="M1022.23,315.27c-5.47,35.54,5.62,80-.38,128.38,18.91,3.56,21-15.42,27.67-36.13C1079.25,314.77,1040.78,277.79,1022.23,315.27Z"/>
    <path d="M635.72,306.14h0c-29.83-26.25-59.83,23.58-29.36,99.91,7.22,18.09,9,47.87,31.74,43C632,392.41,646.56,337.2,635.72,306.14Z"/>
  </g>
  <path class="skinOverlapLine" d="M1216.8,1771.85c-4.25,29.2-.66,46.15-22.74,77-10.79,18.49-35.45,33.9-50.32,46"/>
  <g class="skinFoldLine">
    <path d="M1020.9,350.25c7.43-43.83,36.32-38.1,24.74,22.4"/>
    <path d="M1023.4,396.71c11.52-5.84,3.22-8.78,8.05-20.69,6.35-15.69,7.47-23.16-.75-25.77"/>
    <path d="M639.58,351.23c-8.18-55.89-45.89-27.73-28.85,30.8"/>
    <path d="M636.6,410.9c-17.28-4.53-8.76-22.66-15.39-33.67-10.36-17.2.44-44.55,10.48-24.46"/>
  </g>
  <path class="fatherShirt" d="M1266.64,1275.7c3.47-32.84,21.16-63.48-8.46-82.94,12.24-18.17,6.74-40.45,2.54-66-18.62-113.4-46-330.51-70.24-375.76-37.24-69.4-163.34-77.86-269.13-104.94-26.24,32.49-80.85,36.05-95.63,49.93-24-16.47-70.86-18.41-93.1-48.24C635.3,677.35,508.24,664.35,472.8,765.37c-11.34,32.34-42.31,58.39-30.46,73.63-28.92,44.42-55,86.53-67.71,120.17-13.05,34.57-61.3,76.52-53.32,104.1,2.35,6.62-9.31,10.16-11,17.77-33,3.39-5.08,31.32-39.78,43.17-10.36-5.63-11.84,16.08-20.31,32.16-19.46,16.07-53.31,34.69-47.39,51.62-13.28,7.86-48,35.7-57.55,49.09-10.16-21.81-58.4,32.16-71.94,56.7-25.88,14.89-57.3,38.74-71.93,52.47,21.12,22.9,37.89,49.5,51.62,78.71,22.85-15.24,55.86-28.78,72.79-44,38.93-11.85,84-20.37,123.56-43.16,39.84-23,70.68-47.74,86.32-68.55,11.85-17.78,43.16-36.4,60.94-73.63,10.15-20.31,24.54-9.31,77-99,21.16-44.86,50.78-64.32,84.63-129.49-.55,30.57,8.42,56.18,10.16,95.64,1.44,32.75-14.91,54.06,3.38,113.4,11.2,36.33-25.39,71.09,1.69,99.87,14.39,42.31-39.77,40.62,4.56,90.89,82.68,13.69,447.07,13.69,516.56-2.74-3.46-18.82,14-21.09.21-39.07-16-20.82,19.08-36.72-8.46-79.55-25.23-39.24,30-59.48,17.77-125.25-4.31-23.16-1.94-38.32-3.38-68.56,36.92,42.86-2.5,35,13.54,70.25,12.43,27.34-15.25,41.21,14.39,109.17-12.3,43.22-5.75,107,.32,164.65,3.9,37.07-14.19,80.43-2,123.94-3.84,23.16-2.71,55.06-5.92,87.17,20.56-1.36,72.6,3.37,93.09,7.62a369.47,369.47,0,0,0,9.31-83.78C1292.88,1400.1,1259.87,1339.91,1266.64,1275.7Z"/>
  <g class="fatherTie">
    <path d="M871.44,698.44c-33,17-59.79,19.58-88.65,2.06l-13.4,18a185.11,185.11,0,0,0,38.78,61.61c15.84,3.47,31.29,3.84,46.29.55,14.53-11.18,25.11-28.7,33.47-49.79Z"/>
    <path d="M885.06,900.08c-3.5-39.2-12.17-79.19-30.6-119.38-15,3.29-30.45,2.92-46.29-.55-29.24,83.69-30.54,195-36.14,329.91-4.29,103.42-3.21,189.93-7.61,297.9-.28,6.8,60.55,61.58,70.35,62.53,10.17,1,67.16-58.2,67.12-65.45C900.94,1227.3,899.3,1059.28,885.06,900.08Z"/>
  </g>
  <g class="fatherCollar">
    <path d="M825.72,696c22.41-18.43,99-29.32,101.76-94.64,20.84,14.54,32.81,39.47,39.86,67.5,5.09,20.23-40.82,58.24-71.31,98.53C875.16,716.58,855.21,674.82,825.72,696Z"/>
    <path d="M825.72,696c-63.05-39.12-97.08-34.9-91.09-102.26-17.42,11.43-30.32,41.63-37.28,81.65-4.36,25,32.77,61.81,61,92C776.82,720,790.44,674.74,825.72,696Z"/>
  </g>
  <g class="clothesDisplayLine">
    <path d="M808.31,1480.46c-6.94,53.1,1.76,107.57,0,169.57-.94,33.1,5.55,65.13,23.38,94.88"/>
    <path d="M865.1,1479.63c-4.77,71.9,11.51,167.08-13.32,197.63"/>
    <path d="M1097.4,2910.33c-3,24.18-115.32,36.33-154,9.17-23.87-16.75-63.37-65.83-73.21-94.63"/>
    <path d="M575.12,2909.21c2.47,15.51,112.59,23.4,142,4.53,34.14-22,61.51-53.49,83.3-92.94"/>
  </g>
  <g class="clothesOverlapLine">
    <path d="M825.72,696c-4,3.71-7.07,8.69-8.46,16.29"/>
    <path d="M1089.31,953.53c9.76,11.94,2.63,28.58,6,42.28,6,24.15,11.32,35.48,5.42,75.92"/>
    <path d="M563.82,909c-5.46,27-9.26,53.6-5.54,78.12"/>
  </g>
  <g class="clothesBorderLine">
    <path d="M1223.48,1550.75c-18.39-7-77.28-13.4-96.48-11"/>
    <path d="M73.34,1313.78c13.65,13.75,49.54,69.89,52.48,87.17"/>
  </g>
  <g class="clothesFoldLine">
    <path d="M145.28,1257.08c8.3,20.15,28.89,35.9,57.25,48.86"/>
    <path d="M329.22,1280c-28.41,20.38-56.09,38-79,37.71"/>
    <path d="M257.33,1159.8c18,3.49,29.94,10.27,49.5,23.57"/>
    <path d="M270.53,1124.21c41,6.13,96.65,57.62,102.3,47.38,9.67-17.57-26.35-37.65-63.64-56"/>
    <path d="M310.31,1081c21.77-2.78,50.8,4.81,82.55,16.3"/>
    <path d="M321.31,1063.27c2.11,5,6.62,7.14,12.63,7.55"/>
    <path d="M443.54,1021.32c-30.64,15.33-39.48,50.68-94.28,7.08"/>
    <path d="M443,1051.38c-23.78,9.44-43.51,19.76-14.14,40.66"/>
    <path d="M442.34,839c7.09,15,32.63,48.74,29.48,50.92"/>
    <path d="M541.36,874c-6.49-76,25.92-60.11,21.21,13.55"/>
    <path d="M594.39,808C582.6,834.53,559,912.9,600.28,865.17"/>
    <path d="M609.12,875.78c-15.8,13.11-36.84,25.94-22.39,40.66"/>
    <path d="M617.37,953.56c22.45,39.52,64.23,67.18,103.12,98.41"/>
    <path d="M633.28,1009A832,832,0,0,1,724,1129.16"/>
    <path d="M585.55,1192.8c23.77,38.07,66.19,59.45,117.26,73.07"/>
    <path d="M597.93,1243.48c15.91,12.37,30.12,25.41,0,29.46"/>
    <path d="M573.51,1296c15,22.89,42,33.22,22.06,48.23"/>
    <path d="M649.19,1271.17c-65.93,17.11-58.9,42.55,38.89,78.37"/>
    <path d="M997.45,1351.31c29.46-3.53,60,12.31,83.08,10"/>
    <path d="M1068.75,1310.65c-28.55,17.9-58.46,25.83-90.16,20.63"/>
    <path d="M1074.64,1281.78c-17.31-25.47-54.35-22.13-105.48,1.77"/>
    <path d="M1077,1153.91c20.68,14.27-22.4,46.55-63.06,54.8"/>
    <path d="M935,1052.56q42.85,21.48,73.07,61.28"/>
    <path d="M936.16,1024.86c24.49,22.44,53,37.73,84.86,47.14"/>
    <path d="M1033.39,877.54c26.77,16.83,44.66,43,55.92,76,27.58-27.07,40.13-97.79,44.25-167.32"/>
    <path d="M1044,817.44c20.62,15.32,29.41,63.34,13.55,51.85"/>
    <path d="M1093.5,776.78c-16.5,54.8-13.56,133.17-3,139.66,12.23,7.47,12.89-63.77,22.39-84.86"/>
    <path d="M1161.26,1048.43c-9.3,23.84-19.94,49-34.77,56.57"/>
    <path d="M1205.45,960c-11,67.87-26.27,131.46-61.28,175"/>
    <path d="M1226.08,1152.14c-24.51,15.52-47.17,22.7-67.77,20.62"/>
    <path d="M1258.18,1192.76c-7.13,5.17-7,11.39,2.08,18.9"/>
    <path d="M1228.44,1178.07c-74.25,15.91-135.57,58.71-23,57.16"/>
    <path d="M1128.7,1251.15c4.28,14.13,14.9,19.81,5.45,28.86"/>
    <path d="M1240.81,1246.42c-43.32,7.89-101.26,14.61-50.09,30.06"/>
    <path d="M1252.36,1386.09c-11.38,37.6-28.43,70.64-66.21,87.08"/>
    <path d="M1173.92,1500.52c-15.12-13-31.67-1.44-40.3,13"/>
    <path d="M688.89,1542.33c29.25,40.55,68.44,59.22,87.74,85.75"/>
    <path d="M978.71,1581.55c-31.36,28.67-63.67,52.06-98.38,61.82"/>
    <path d="M782,1715.16c-13.49-14.16-33.91-6.24-56.5,8.64"/>
    <path d="M859.06,1737.1c11.3,14,27.6,25.65,31.24,39.22"/>
    <path d="M734.75,2447.7c7.72,52.86,22.82,101,47.87,142.92"/>
    <path d="M943.48,2437.73c-8.92,51.87-44.54,111.67-69.8,179.47"/>
    <path d="M1016.6,2522.15c-9.3,53.84-53.18,114.33-72.45,177.48"/>
    <path d="M890.3,2636.48c19.28-29.25,52.85-77.75,62.49-61.15,12,20.6-52.52,88.41-70.46,193.43"/>
  </g>
  <path class="lipMaleMedium__noStroke" d="M903,488.72c-38-6.8-41.25-13.43-53.64-14.87-16,5.21-25.79,4.95-39.9-.26C793,475.17,781.89,484,752.52,487.9c13.07,6.63,11,57.08,71,59.34C886,546.56,883.45,504.65,903,488.72Z"/>
  <path class="mouthInner" d="M826,520.51c26.71.45,51.65-4.51,72.06-31.88-15.45-1.08-30-5.4-47.43-1.22-27.7,6.66-20.64,5.42-43.28.79-26.87-5.5-38-.71-49.8-.09C776.13,515.1,800.81,520.09,826,520.51Z"/>
  <path class="teeth" d="M888.5,487.64c-12.08-1.52-24.08-3.54-37.89-.23-27.7,6.66-20.64,5.42-43.28.79-19.18-3.93-30.31-2.61-39.42-1.31C793.16,515.82,859.13,519.29,888.5,487.64Z"/>
  <g class="lipOverlapLine">
    <path d="M757.53,488.11a39.86,39.86,0,0,1-8.62-.44"/>
    <path d="M909,488.72a80.43,80.43,0,0,1-11-.09"/>
  </g>
  <g class="lipEdgeLine">
    <path d="M849.31,473.85c-16,5.21-25.79,4.95-39.9-.26"/>
    <path d="M870.78,532c-20.83,21.83-71.72,19.15-89.53-.34"/>
  </g>
  <g class="cheekLine">
    <path d="M872.31,414c10.12,3.22,47,37,51.72,56.17"/>
    <path d="M785.72,413.53C772.4,419,736.13,447.11,732.15,467"/>
  </g>
  <g class="noseLine">
    <path d="M872.31,414c9.13,5.61,8.93,21.93-1,27.7"/>
    <path d="M785.72,413.53c-10.18,7.7-9.38,20.84-.23,26.81"/>
    <path d="M798,439.94c10.55-.8,10.74,6.77,29.86,6.77,19.49,0,21.06-10.29,30.26-9.56"/>
  </g>
  <g class="eyeFoldLine">
    <path d="M938,345.56c-14.17,11.93-37.28,8.95-50.32,0"/>
    <path d="M766.58,345.94c-16.92,11.4-43.24,10.43-55.91-1.49"/>
  </g>
  <g class="eyeCornerLine">
    <path d="M704.84,326.23c-7.3,3.37-15.82,6.53-21.3,7.59"/>
    <path d="M967.11,333.19a63.84,63.84,0,0,1-17.46-5.81"/>
  </g>
  <g class="eyebrowDarkGray">
    <path d="M871.48,271.82c8.89,19.91,22.85,4.92,66.33,8.8,25.13,2.23,48.25,18.6,45.07,9.1C927,245.62,899.73,270.76,871.48,271.82Z"/>
    <path d="M787.37,273.73c-9.84,21.52-25.42,1.61-68.9,5.48-25.12,2.24-48.24,18.6-45.07,9.1C735,243.15,759.12,272.67,787.37,273.73Z"/>
  </g>
  <path class="hairDarkGray" d="M827.52,151.17c52.88-19,123.65-21.6,172.75-2.38-17.55,113,20.63,95,18,187.18,2.87.54,7.2,0,9.67-1.61,2.87-6.85,6-21.35,8.62-33.55a14.07,14.07,0,0,1,9.77,2.33c25.6-123.75-5.76-211.35-77.53-261.18C877.52-21.4,688.92-9.81,683,66.72c-53.43-8.35-102.65,100.49-75.05,236.83a18.1,18.1,0,0,1,11.94-4.48A218.63,218.63,0,0,0,630,336a23.45,23.45,0,0,0,13.09,2c-6.54-95.94,28.4-112.16,11.34-190.86,27.86,1.8,50.52-2,57.38-23C748.18,159.68,793.73,133.48,827.52,151.17Z"/>
  <g class="hairOverlapLine">
    <path d="M1000.27,148.79a85.21,85.21,0,0,1,23.19,15.75"/>
    <path d="M683,66.72c-1.23,13.74,13,43.86,28.81,57.4"/>
  </g>
  <path class="hairEdgeLine" d="M753.44,110c56.73-13.3,117.87-9,181.72,6"/>
  <g class="fatherGlassesDisplayLine">
    <path d="M849.67,319.78c0-38.68,109.1-35.63,137.93-20.49,23.38,12.27,13.83,73.1.53,88-18.82,21.06-86.51,17.56-103.94,10.91C864.86,390.81,849.63,360,849.67,319.78Z"/>
    <path d="M806.94,319.78c0-38.68-109.1-35.63-137.93-20.49-23.38,12.27-13.83,73.1-.53,88,18.81,21.06,86.51,17.56,103.93,10.91C791.74,390.81,807,360,806.94,319.78Z"/>
    <path d="M806.94,319.78c1.91-6.69,40.19-6.48,42.73,0"/>
  </g>
</svg>
