<svg id="presence" xmlns="http://www.w3.org/2000/svg" viewBox="0 0 1276.04 2436.86">
  <defs>
    <style>
      .cls-1 {
        fill: none;
        stroke: #000;
        stroke-miterlimit: 10;
        stroke-width: 2px;
      }
    </style>
  </defs>
  <title>epilogue</title>
  <g id="fatherSole">
    <path class="cls-1" d="M555.78,2390.92c-3,9.5.22,17.28,4,25.74,10,22.39,153.79,28.14,185.68-6,29.24-31.29,71.59-34.15,56.37-67.06Z"/>
    <path class="cls-1" d="M1106.3,2390.09c2.07,8.25,2.12,17.71-2,22.45-22.27,25.69-141.18,35.16-188.5,2.3-31.31-21.75-72.67-36.1-55.14-72.89Z"/>
  </g>
  <g id="fatherShoe">
    <path class="cls-1" d="M1014.66,2228.78c15.15,79.7,114,82.84,94.83,164.3-6.46,27.48-136.76,40.92-184.41,13.54-30.87-17.73-65.36-32.51-68.51-69.82-1.81-32.27,4.7-68.93,20.42-108Z"/>
    <path class="cls-1" d="M796.63,2228.78a293.17,293.17,0,0,1,9.86,112.61c-5.25,25.05-46.83,41.69-69.8,60-29.64,23.58-169.79,26.77-182.09-4.95-24.12-62.17,66.16-75.41,98.44-163Z"/>
  </g>
  <g id="clothesDisplayLine">
    <path class="cls-1" d="M1097.4,2332.78c-3,24.19-115.32,36.34-154,9.17-23.87-16.75-63.37-65.83-73.21-94.62"/>
    <path class="cls-1" d="M575.12,2331.67c2.47,15.5,112.59,23.4,142,4.52,34.14-22,61.51-53.48,83.3-92.94"/>
  </g>
  <path id="fatherPants" class="cls-1" d="M578.07,809.35C558,936.55,521.16,1037,558,1197.64c24.56,107.15,23,202.36,38.5,334.74,16.41,140.43,9.48,180.2,16.73,339.75,3.35,73.64,6.7,261.09,17.78,372,14,17.22,147.94,14.56,181.64-6.08,1.27-119.4-11.43-220.84-2.54-314.84,10.42-110.13-1.88-259.42,5.09-335.35,10.7-116.71,4.15-271.36,16.51-420.45-4.08,98.05,13.37,213.39,13.7,313.75.27,81.3,16.58,132.26,9.16,228.65-8.89,115.59,5.25,212.31-1.54,303.59-3.73,50.12,4.08,139.54,1.54,225.92,44.86,26.16,171.49,9.08,190.54-6.16-3.81-199.43,22.87-424.27,24.14-590.67.4-53.35,6.42-140.53,24.13-288.35,40.65-339.16,8.89-433.16,1.27-547.49C1025.14,823,660.75,823,578.07,809.35Z"/>
  <g id="clothesDisplayLine-2" data-name="clothesDisplayLine">
    <path class="cls-1" d="M808.31,902.92c-6.94,53.1,1.76,107.56,0,169.56-.94,33.1,5.55,65.14,23.38,94.89"/>
    <path class="cls-1" d="M865.1,902.08c-4.77,71.9,11.51,167.08-13.32,197.64"/>
  </g>
  <g id="clothesFoldLine">
    <path class="cls-1" d="M688.89,964.79c29.25,40.55,68.44,59.22,87.74,85.75"/>
    <path class="cls-1" d="M978.71,1004c-31.36,28.66-63.67,52-98.38,61.82"/>
    <path class="cls-1" d="M782,1137.62c-13.49-14.17-33.91-6.25-56.5,8.64"/>
    <path class="cls-1" d="M859.06,1159.55c11.3,14,27.6,25.65,31.24,39.22"/>
    <path class="cls-1" d="M734.75,1870.15c7.72,52.86,22.82,101,47.87,142.92"/>
    <path class="cls-1" d="M943.48,1860.18c-8.92,51.87-44.54,111.68-69.8,179.48"/>
    <path class="cls-1" d="M1016.6,1944.6c-9.3,53.85-53.18,114.34-72.45,177.49"/>
    <path class="cls-1" d="M890.3,2058.94c19.28-29.25,52.85-77.75,62.49-61.16,12,20.61-52.52,88.41-70.46,193.44"/>
  </g>
  <g id="fatherBelt">
    <path class="cls-1" d="M969.45,836.58c-82,4.42-179.32,5.15-259.25,2.86-2.46,14.46-3.55,38-1.54,53.93,83.23,1.88,181.8.18,262-4.53C972.63,873.6,971.71,851.19,969.45,836.58Z"/>
    <path class="cls-1" d="M689.06,838.74c-52.2-1.92-94.94-5.23-117.83-9.69-4.65-.91-12.69,53.09-8,53.93,27.62,5,71.95,8.22,125.21,9.85C685.77,877.49,685.83,854.29,689.06,838.74Z"/>
    <path class="cls-1" d="M1098.72,823.54c-27.2,5.16-65.35,9.07-109,11.84,2.21,14.83,3.06,37.17,1,52.19,49.2-3.34,89.7-7.9,112.63-13.51C1108.56,872.8,1103.91,822.55,1098.72,823.54Z"/>
  </g>
  <path id="fatherBeltBuckle" class="cls-1" d="M883.73,896.15c-8.36,9.93-86,10.66-95.22,1.48-7.93-7.93-8.43-51.54-1.48-60.47,5.67-7.27,89.26-8.39,95.69-1S891.66,886.73,883.73,896.15Z"/>
  <path id="fatherShirt" class="cls-1" d="M1266.64,698.15c3.47-32.84,21.16-63.47-8.46-82.94,12.24-18.17,6.74-40.44,2.54-66-18.62-113.41-46-330.52-70.24-375.76C1153.24,104,1027.14,95.57,921.35,68.49c-26.24,32.5-80.85,36.05-95.63,49.94-24-16.47-70.86-18.41-93.1-48.24C635.3,99.81,508.24,86.81,472.8,187.82c-11.34,32.34-42.31,58.4-30.46,73.63-28.92,44.43-55,86.53-67.71,120.18-13.05,34.56-61.3,76.52-53.32,104.09,2.35,6.63-9.31,10.16-11,17.78-33,3.38-5.08,31.31-39.78,43.16-10.36-5.62-11.84,16.08-20.31,32.16-19.46,16.08-53.31,34.7-47.39,51.62-13.28,7.87-48,35.71-57.55,49.09-10.16-21.8-58.4,32.16-71.94,56.7C47.46,751.12,16,775,1.41,788.7,22.53,811.6,39.3,838.21,53,867.41c22.85-15.23,55.86-28.77,72.79-44,38.93-11.84,84-20.36,123.56-43.16,39.84-23,70.68-47.74,86.32-68.55,11.85-17.77,43.16-36.39,60.94-73.63,10.15-20.31,24.54-9.31,77-99,21.16-44.85,50.78-64.32,84.63-129.48-.55,30.56,8.42,56.18,10.16,95.63,1.44,32.76-14.91,54.06,3.38,113.41,11.2,36.33-25.39,71.09,1.69,99.86,14.39,42.32-39.77,40.62,4.56,90.89,82.68,13.69,447.07,13.69,516.56-2.74-3.46-18.82,14-21.09.21-39.06-16-20.83,19.08-36.72-8.46-79.56-25.23-39.24,30-59.48,17.77-125.25-4.31-23.16-1.94-38.31-3.38-68.55,36.92,42.85-2.5,35,13.54,70.24,12.43,27.35-15.25,41.21,14.39,109.18-12.3,43.21-5.75,107,.32,164.65,3.9,37.06-14.19,80.43-2,123.94-3.84,23.15-2.71,55-5.92,87.17,20.56-1.37,72.6,3.36,93.09,7.62a369.56,369.56,0,0,0,9.31-83.79C1292.88,822.56,1259.87,762.36,1266.64,698.15Z"/>
  <g id="fatherTie">
    <path class="cls-1" d="M871.44,120.89c-33,17-59.79,19.59-88.65,2.06l-13.4,18a185.06,185.06,0,0,0,38.78,61.62c15.84,3.46,31.29,3.83,46.29.55,14.53-11.19,25.11-28.71,33.47-49.8Z"/>
    <path class="cls-1" d="M885.06,322.53c-3.5-39.2-12.17-79.19-30.6-119.37-15,3.28-30.45,2.91-46.29-.55-29.24,83.68-30.54,195-36.14,329.9-4.29,103.42-3.21,189.94-7.61,297.91-.28,6.8,60.55,61.57,70.35,62.52,10.17,1,67.16-58.2,67.12-65.44C900.94,649.76,899.3,481.73,885.06,322.53Z"/>
  </g>
  <g id="fatherCollar">
    <path class="cls-1" d="M825.72,118.43C848.13,100,926.52,89.11,929.24,23.78c19.06,16.65,31,39.47,38.1,67.5,5.09,20.24-40.82,58.25-71.31,98.53C875.16,139,855.21,97.27,825.72,118.43Z"/>
    <path class="cls-1" d="M825.72,118.43c-63.05-39.12-105-36.4-90.81-102.27-17.42,11.44-30.6,41.64-37.56,81.66-4.36,25,32.77,61.81,61,92C776.82,142.45,790.44,97.2,825.72,118.43Z"/>
  </g>
  <g id="skinEastAsian">
    <path class="cls-1" d="M926.83.89V134c-68.25,17-132.57,19.21-191.22,0V0"/>
  </g>
  <g id="clothesOverlapLine">
    <path class="cls-1" d="M825.72,118.43c-4,3.7-7.07,8.69-8.46,16.29"/>
    <path class="cls-1" d="M1089.31,376c9.76,11.95,2.63,28.58,6,42.28,6,24.16,11.32,35.49,5.42,75.93"/>
    <path class="cls-1" d="M563.82,331.44c-5.46,27-9.26,53.59-5.54,78.12"/>
  </g>
  <g id="clothesFoldLine-2" data-name="clothesFoldLine">
    <path class="cls-1" d="M145.28,679.53c8.3,20.15,28.89,35.9,57.25,48.86"/>
    <path class="cls-1" d="M329.22,702.46c-28.41,20.38-56.09,38-79,37.72"/>
    <path class="cls-1" d="M257.33,582.26c18,3.48,29.94,10.27,49.5,23.57"/>
    <path class="cls-1" d="M270.53,546.66c41,6.13,96.65,57.63,102.3,47.38,9.67-17.57-26.35-37.64-63.64-56"/>
    <path class="cls-1" d="M310.31,503.5c21.77-2.79,50.8,4.8,82.55,16.29"/>
    <path class="cls-1" d="M321.31,485.72c2.11,5,6.62,7.14,12.63,7.56"/>
    <path class="cls-1" d="M443.54,443.78c-30.64,15.32-39.48,50.68-94.28,7.07"/>
    <path class="cls-1" d="M443,473.83c-23.78,9.44-43.51,19.76-14.14,40.66"/>
    <path class="cls-1" d="M442.34,261.45c7.09,15,32.63,48.74,29.48,50.92"/>
    <path class="cls-1" d="M541.36,296.46c-6.49-76,25.92-60.1,21.21,13.56"/>
    <path class="cls-1" d="M594.39,230.47C582.6,257,559,335.35,600.28,287.62"/>
    <path class="cls-1" d="M609.12,298.23c-15.8,13.11-36.84,25.94-22.39,40.66"/>
    <path class="cls-1" d="M617.37,376c22.45,39.52,64.23,67.18,103.12,98.41"/>
    <path class="cls-1" d="M633.28,431.4A832,832,0,0,1,724,551.61"/>
    <path class="cls-1" d="M585.55,615.25c23.77,38.07,66.19,59.45,117.26,73.07"/>
    <path class="cls-1" d="M597.93,665.93c15.91,12.38,30.12,25.42,0,29.46"/>
    <path class="cls-1" d="M573.51,718.46c15,22.9,42,33.22,22.06,48.23"/>
    <path class="cls-1" d="M649.19,693.63c-65.93,17.1-58.9,42.55,38.89,78.37"/>
    <path class="cls-1" d="M997.45,773.77c29.46-3.54,60,12.31,83.08,10"/>
    <path class="cls-1" d="M1068.75,733.11c-28.55,17.89-58.46,25.82-90.16,20.62"/>
    <path class="cls-1" d="M1074.64,704.23c-17.31-25.46-54.35-22.13-105.48,1.77"/>
    <path class="cls-1" d="M1077,576.36c20.68,14.27-22.4,46.55-63.06,54.8"/>
    <path class="cls-1" d="M935,475q42.85,21.5,73.07,61.28"/>
    <path class="cls-1" d="M936.16,447.31c24.49,22.44,53,37.74,84.86,47.15"/>
    <path class="cls-1" d="M1033.39,300c26.77,16.82,44.66,42.94,55.92,76,27.58-27.07,40.13-97.78,44.25-167.32"/>
    <path class="cls-1" d="M1044,239.89c20.62,15.32,29.41,63.34,13.55,51.86"/>
    <path class="cls-1" d="M1093.5,199.23c-16.5,54.81-13.56,133.18-3,139.66,12.23,7.48,12.89-63.77,22.39-84.85"/>
    <path class="cls-1" d="M1161.26,470.88c-9.3,23.85-19.94,49-34.77,56.57"/>
    <path class="cls-1" d="M1205.45,382.5c-11,67.86-26.27,131.45-61.28,175"/>
    <path class="cls-1" d="M1226.08,574.59c-24.51,15.52-47.17,22.7-67.77,20.63"/>
    <path class="cls-1" d="M1258.18,615.21c-7.13,5.17-7,11.4,2.08,18.9"/>
    <path class="cls-1" d="M1228.44,600.52c-74.25,15.91-135.57,58.71-23,57.16"/>
    <path class="cls-1" d="M1128.7,673.61c4.28,14.12,14.9,19.81,5.45,28.85"/>
    <path class="cls-1" d="M1240.81,668.88c-43.32,7.89-101.26,14.61-50.09,30"/>
    <path class="cls-1" d="M1252.36,808.55c-11.38,37.59-28.43,70.63-66.21,87.08"/>
    <path class="cls-1" d="M1173.92,923c-15.12-13-31.67-1.44-40.3,13"/>
  </g>
  <g id="clothesBorderLine">
    <path class="cls-1" d="M1223.48,973.2c-18.39-7-77.28-13.4-96.48-11"/>
    <path class="cls-1" d="M73.34,736.23C87,750,122.88,806.12,125.82,823.4"/>
  </g>
</svg>
