<svg viewBox="0 0 895.87 3064.91">
    <path class="fatherChineseShirtInner" d="M746,1507.18c-14.18-218.46-49-230.32-44.47-2.85C721.34,1504.13,735,1505,746,1507.18Z"/>
    <path class="ghostTail" d="M185,1444.68c-12.55,25.8-46.78,46.94-20.86,78.57-61.43,190.87-85.81,400.62-74.18,601,8.64,165.6,130.51,320.72,307.6,475,38.54,27.39,16.59,63.58,52.8,75.73-15.45,12.18,1.08,34.44,19.92,39.84,17.15,83.37-54,234.13,178.68,348-63.4-153.7,222.48-299.49,8.78-470.09-90.67-78.3-58-224.79-114.35-336.18-14.72-27.29,13.73-63.55-23.63-76.23,14.6-15.77,8.91-42.08-6.1-41.93,28-25.51-7.42-44.54,48.23-131.73C672.19,1832.1,747.52,1678.41,728,1557.94c24.28-44-26.89-23.71-19.21-166.93C510.5,1281.33,328,1256.72,185,1444.68Z"/>
    <g class="fatherChineseShirt">
        <path d="M256.77,686.81c-27.22,12.13-37.35,23.07-50.1,38.74-9.39,11.54-30-1.5-27,35.28-12.76,18.76-18.19,37.78-26.27,55.54-6.81,15-18,24.77-20.27,42-17,13.31-22.14,29.87-18.76,48.78-21.77,14.27-8.26,35.28-13.51,49.54C72.31,1082.84-10.81,1157.9,31.78,1245c25.48,52.09,223,61.82,358,32.27Z"/>
        <path d="M733.3,1338c-36.87-11.44-15.44,15-23.64,177.61C664,1533.18,450.33,1541,393.81,1525c12.87-247.43-30.62-282.44-34.59-4.55-80.39-9.27-180.11-28.68-194.94-53-7.47-160,31.72-280.87,46.15-377.11,13.79-92,8.8-124.24,34-224.86-3.68-81.65-.68-115.32,12.38-178.7,39.29-14.77,77.48-24.12,122.47-29.53l10.94-45.94c-4.38,65.62,82,61.25,80.33,103,9.35-37.37,133-27.52,166.88-103.87,10.91,5.26,13.1,50.1,17.88,59.6,65.2,14.61,136.31,45.19,169.43,78.33l-88.06,444c8.72,25.68-3.18,40-3.87,58.55s9.33,36.31-1.44,52.84c-2,3.08-.8,15.76,2,34.21"/>
        <path d="M894.08,872.54c7.67,35.1-42.63,129.62-80.62,214.14-42.48,94.49-175.13,246-249.56,244.65-40-.71-278.41-66.93-358.33-110.2-29.31-63.36,12.3-159.59,56.19-170.77,18.95,8.94,37.71,17.51,56.2,25.54,31.92-10.15,45,18.56,58.38,24.09,29,14.69,44.66-16,71.41,26.44,52.85-19.57,36.05,8.28,61.39,15.52C650.39,1048.64,626.8,997.62,659.5,985.77c-7.4-34.58,11.59-29.61,19.42-46.71,9.94-21.72,20.43-47.26,38.23-68.6,25.45-49.32,60.25-90.62,107.55-122.07,4.69,5.31,45.22,44.63,58.58,66.78C894.13,833.15,889.27,850.54,894.08,872.54Z"/>
    </g>
    <g class="chineseTrim">
        <path d="M678.92,939.06c9.94-21.72,20.43-47.26,38.23-68.6,25.45-49.32,60.25-90.62,107.55-122.07l-10.4-9.34c-74.63,53.13-117.49,120.61-142,209l6.22-8.14C678.65,939.6,678.79,939.34,678.92,939.06Z"/>
        <path d="M236.42,899.61c2.27-10.5,4.89-21.79,8-34.1-3.68-81.65-.68-115.32,12.38-178.7l-15.13,7.58c-13.48,61-17.68,155.49-5.22,205.22Z"/>
        <path d="M444.53,771.57c-15.23,49.61-19.89,100.16-29.06,149.79-9.21,49.8-22.61,109-24.83,158.86q-.54,12.26-1.13,23.84c11.87,1.45,21.68-2.84,31.95-.67.4-7,.73-14,1-21.19,1-31.77,14.69-106.5,23.05-154.67,8.83-50.95,13.22-99.51,30.08-149.81,99.82,0,201.19-60.08,194.6-104.07l-.35-.09-14.53-3.5c14,43.51-128.55,103.12-192.41,89.51-33.4-7.12-87.07-60.78-83.62-102.29l-14.63,1.94-.85.12C356.9,696.1,402.36,753.9,444.53,771.57Z"/>
        <path d="M692.28,1501.43c-59.53,15.53-217.58,21.19-284.13,8.08-8.25-92.11-8.14-160.12-4.82-216.25-9.6-2.82-19.28-5.73-29-8.71-7.81,63.84-17.8,125.27-30.31,214.17-65.25-6-141.91-20.1-180.37-47.69q.23,8.16.6,16.45c14.83,24.31,114.55,43.72,194.94,53,10.18-63.67,15.13-130.82,25.49-180.23-1.14,56.17-3.28,134.06,9.1,184.78,56.52,16,270.23,8.16,315.85-9.45l8.2-162.59c11.23,39.36,22.61,106.35,23.66,160.2,7.54,0,13-.75,15.48-2.73-2.75-57.08-17.35-130.06-23.7-172.49C693.55,1305,704.91,1362.34,692.28,1501.43Z"/>
    </g>
    <path class="clothesOverlapLine" d="M470.51,714.33c-4.78,14.73-4.27,31-7.65,45.24-18,57.56-23.86,113.61-32.8,163.15-10.36,57.37-21.74,109-23.54,158.42-3.41,93.37-18.68,181.95-21.81,259.1"/>
    <g class="clothesFoldLine">
        <path d="M209.19,812.94c2.93,37.2,11.12,68.41,26.12,91.88"/>
        <path d="M198.37,871.68c10.13,18.39,21.9,31.72,35.91,38.13"/>
        <path d="M179.65,760.83c3.43,9.85,15.51,22,10.9,24.08"/>
        <path d="M133.11,858.41A21.49,21.49,0,0,1,150,853.55"/>
        <path d="M114.35,907.19c12.67-10.29,41-7.77,61.61,1.48"/>
        <path d="M184.14,965.22c13.94,8.2,26.21,20.87,36.63,38.44"/>
        <path d="M120.45,1141.54c-30.58,21.34-112,87.21-39.09,9.68"/>
        <path d="M179.21,1129.84c-28.79,17.91-59.31,71.38-64.23,95.26"/>
        <path d="M195.06,1133.75c-14.15,19.84-26.24,41.83-30.57,63.61"/>
        <path d="M318,1075.9c-8.71,3.51-17,4.62-24.94,3.47"/>
        <path d="M336.91,1095.87c-11.54,18.42-3.38,40.74,12.64,64.62"/>
        <path d="M357.28,1102.54c10.68,4,23.9,4.06,38.63,1.82"/>
        <path d="M424.7,1125.37c-7.38,33.24,3.46,71.92,21.42,112.72"/>
        <path d="M509.14,1142c22.48,27.36,3.72,123.39,46.19,146.71,10.72,5.89,11.65-15.1,3.86-29.85"/>
        <path d="M545.32,1142.9c17,33.41,31.14,83.73,64,86.47"/>
        <path d="M629.74,1155.26a109.87,109.87,0,0,1,52.42,31.94"/>
        <path d="M672.3,1081.53c27.07-1,61.58,5.47,88.18,20.24"/>
        <path d="M665.73,1011.4A142.72,142.72,0,0,1,730.9,978"/>
        <path d="M659.5,985.77c47-35,99.84-47,156.29-44.47"/>
        <path d="M672.3,948c13.69-5.62,20.81-22,48.2-22"/>
        <path d="M717.15,870.46c48.8-26.1,116.6-21.32,118.9-32.12,3.51-16.48-12.85-13.24-43.81-3.29"/>
        <path d="M465.2,1383c26.22,38.57,61.53,62.12,106.59,69.55"/>
        <path d="M728,1557.94c-5.67,8.11-12.52,14.26-21.22,17.36"/>
        <path d="M164.09,1523.25c4.16,4.71,9,7.38,14.36,9.57"/>
        <path d="M513.61,2138.43c-18.55,14.61-51.9,28.06-76.11,27"/>
        <path d="M519.71,2180.36c-16.58,16.8-46.17,36.71-65,38.86"/>
        <path d="M450.31,2675c28.79,6.28,57.07,5.09,88.47-11.6"/>
        <path d="M470.23,2714.85c31.22,10.69,60.27,5.77,90.66-8.53"/>
    </g>
    <g class="clothesCreaseLine">
        <path d="M461,1747.19c-84.81,1.07-165.07-1.58-238.15-10.11"/>
        <path d="M469.29,1777.53c-61.73,2.51-135.81,0-186.66-7.35"/>
        <path d="M360.76,1983.34c-57.18-.08-115.29-2.92-174.2-8.1"/>
        <path d="M386.59,2006.13a1171.07,1171.07,0,0,1-135.71-3"/>
    </g>
    <g class="chineseTie">
        <path d="M391.74,794.35l-.1,19.18a984.73,984.73,0,0,1,116.07,2.93l.78-18.76A745.27,745.27,0,0,1,391.74,794.35Z"/>
        <circle cx="451.45" cy="805.59" r="11.6"/>
        <path d="M362.77,954.68l-.59,19.17a984.52,984.52,0,0,1,116,5.83l1.25-18.74A744.49,744.49,0,0,1,362.77,954.68Z"/>
        <circle cx="422.17" cy="967.41" r="11.6"/>
        <path d="M324.09,1335.72l-.58,19.17a984.74,984.74,0,0,1,116,5.83l1.25-18.74A744.68,744.68,0,0,1,324.09,1335.72Z"/>
        <circle cx="383.5" cy="1348.45" r="11.6"/>
    </g>
    <circle class="hairDarkGray" cx="623.81" cy="338.57" r="77.68"/>
    <path class="chineseTassel" d="M716.3,424.63c3.55,71.41,7,111.08,20.87,166.8-1.07,3.73-7.3,6.91-10.63,5.45-4.48,5.57-8.48,3.86-13.43,2.3-5.24,4.8-7.64,4.13-13.53,1.2-6.82,2-9.69,1.22-12.13-3.71,4.4-54.21-1.92-98.93-7.8-137.54Z"/>
    <path class="chineseHatTrim" d="M727,384.44c5.82-3,21.56-61.24,17-68.85-95.58-123.53-379.17-142-456.41-108.06-6.33,11.72-8.8,71.63.28,81.08C408.61,246.27,612.32,285,727,384.44Z"/>
    <path class="chineseHatButton" d="M595.22,44.88c41-43.23-78.44-66.12-57.49-13.18Z"/>
    <path class="chineseHatLight" d="M741.21,312c38.72-143.67-46-244.72-174.82-274.82C392.72-3.37,295.75,74.22,289,207,367.29,174.16,643.54,192.39,741.21,312Z"/>
    <path class="chineseHatDark" d="M680,260.87c41.12-130-34.6-203.69-113.6-223.66-62.43,5-89.47,69.65-106,158.74C535.44,203.49,618.12,223.86,680,260.87Z"/>
    <g class="skinEastAsian">
        <path d="M655,472.52c25.56,15.42,40.08-2.29,49.06-24.33,7.92-16.83,22.3-35.69,23.25-63.9a1.5,1.5,0,0,1-.23.15c5-77.18-75.66-71.86-76.7-20.49C646.48,398,655.19,433.61,655,472.52Z"/>
        <path d="M424.34,668.75c22.3,13.94,47.09,23,46.17,45.58,8.75-35,117.46-28.6,159.24-90.13-3.86-24.16-5-54,.25-74.88Z"/>
    </g>
    <g class="eye">
        <circle class="sclera" cx="411.67" cy="411.19" r="106.05"/>
        <g class="irisDarkBrown">
            <ellipse cx="459.76" cy="404.79" rx="19.42" ry="22.5" transform="translate(-34.03 42.29) rotate(-5.08)"/>
            <ellipse cx="324.43" cy="416.82" rx="14.48" ry="22.5" transform="translate(-35.63 30.36) rotate(-5.08)"/>
        </g>
        <g class="pupil">
            <ellipse cx="457.27" cy="405.01" rx="7.55" ry="8.75" transform="translate(-34.06 42.07) rotate(-5.08)"/>
            <ellipse cx="321.57" cy="417.07" rx="5.63" ry="8.75" transform="translate(-35.66 30.11) rotate(-5.08)"/>
        </g>
    </g>
    <g class="skinGhostLight">
        <path d="M253.3,1053.57c-28.5-13.54-58.6-66.95-107.07-82.35-17.19-1.59-38.61-31.05-64-28-14.84,3.09-58.47,14.36-35.59,52.7-20.6,2.47-37.73,19.79-28.45,43.29-16.15,3.53-25.36,33-7.42,47.27-12.37,21,1.24,49.82,27.21,34.36,124.79,50.15,118.85-10,162.13,15.59C209,1098.74,230.19,1065.14,253.3,1053.57Z"/>
        <path d="M509.14,1142c-25.34-7.24-8.54-35.09-61.39-15.52-6.91-11-13.08-17-18.93-20.27,63-31.23,85.05-69.06,111.85-65.91,32.58-6.83,42.56-24.7,95.12-21.55,26.23,1.58,46.24,7.89,72.42,9,22.17,17.81-3.58,43.57-57.71,32,18.62,15,27.33,32.06,45.72,43.62,10.51,9.46-5.25,31-24.17,25.75,18.39,22.07-11,39.94-42,20.5,2.1,20.49-27.33,30.48-61.49,4.2C546.45,1134.32,536.46,1148,509.14,1142Z"/>
        <path d="M655,472.52c9.08,131-122.41,159.54-173.64,183.05-36.67,16.83-86.06,20.86-108.81-9.63-24.89-33.33-52.95-37.74-67.56-100.29-24.63-105.44,7.3-98.47-15.05-148.36-10.84-24.2.43-63.49-2-108.68,76.43-26.81,186.15-21.09,285.48,11.95,31.84,39.06,44.7,32.12,42.81,72.94,10.51-.39,23.21-4.33,34.12-9.55C646.48,398,655.19,433.61,655,472.52ZM442.26,411.58c22.32-2.88,38.22,5.48,62.85-9.07-15.67-4.18-24.79-7.51-37.55-6.47-12.26,1-21,5.11-29.13,12.39C434,412.37,439.7,411.91,442.26,411.58Zm-87.42,5.1c-30.11-11.54-41.12-1.65-41.12-1.65-.37,3.68-.06,7.07,1.64,9.85,12.64,3.62,31.36-5.58,37.45-5.35C357.05,419.68,357.88,417.85,354.84,416.68Z"/>
    </g>
    <g class="skinOverlapLine">
        <path d="M85.07,988.67C71,984.22,60.62,994,46.67,996"/>
        <path d="M18.22,1039.25c9.89-3.8,22.71-1.21,33.89-5"/>
        <path d="M44,1072.88c-11.79,2.85-26.44,8.14-33.17,13.64"/>
        <path d="M650.5,1059.69c-28.36-22.86-66.51-18-109.83-19.44"/>
        <path d="M557.49,1071c58.22-4,88.34,44.17,114.56,58.11"/>
        <path d="M537.42,1105.89c47-4.42,69.46,24.89,92.59,43.67"/>
    </g>
    <g class="skinFoldLine">
        <path d="M704,419.25c34-71.06-33.74-105.53-41.09-38.15"/>
        <path d="M664.85,399.18c13.85,13.6-7.5,30.09,6.55,34.18,8.74,2.55,2.8-15.79,17.5-28.24,15.56-13.17-.8-40.66-11.4-27.23"/>
    </g>
    <g class="head50">
        <path class="lipMaleMedium__noStroke" d="M383.06,550.94c9.64,2.84,16.08,1.7,28-5.05,12.15-.78,31.63,12.67,63.08,17.62-33.81,10.73-34.1,32.65-69.65,32-27.93-.56-24.85-18.64-37-28.22C375.66,561,377.89,551.9,383.06,550.94Z"/>
        <path class="lipBorderLine" d="M477.19,563.34c-14.77.43-24.12-2.62-33.28-3.74-32-3.9-37.43,5.19-46.51,5.43-11.07.29-18.13-5.5-30.21,2.69"/>
        <g class="lipEdgeLine">
            <path d="M411.06,545.89c-11.92,6.75-18.36,7.89-28,5.05"/>
            <path d="M442.75,582.34c-23.62,19.17-60.38,15.32-64.4-1.11"/>
        </g>
        <g class="cheekLine">
            <path d="M489.75,566.14c-3.91-17.52-15-38.57-27.28-52.86-8.65-10-15.86-22.87-24-26.15"/>
            <path d="M354.41,575.81c.43-17.9,5.34-38.88,12.64-52.9"/>
        </g>
        <g class="noseLine">
            <path d="M438.49,487.13c9,5.23,11.95,19.8,2.54,27.72"/>
            <path d="M369.61,470c-13.34,28.16-18.43,58.11,13.74,55.93,20.78-1.41,31.06-18.44,46.07-12.7"/>
        </g>
        <g class="eyeFoldLine">
            <path d="M312.79,437.58c5.31,6.61,24.49,6.25,37.28-1.63"/>
            <path d="M447.59,425.6c15.06,10.12,36.54,6.41,52.94-3.7"/>
        </g>
        <g class="eyebrowDarkGray">
            <path d="M414.78,370.45c20.18,11.9,32.82-7.19,58.49-17.26,28.3-11.1,64.33,10.27,58.45-1.7C451.49,306.45,437.32,367.22,414.78,370.45Z"/>
            <path d="M286,383.07a54.44,54.44,0,0,0,3.11,12.39c32.4-19.12,54.39,5.37,59.92-12.65C329.88,379.23,324.59,359.28,286,383.07Z"/>
        </g>
        <g class="fatherGlassesDisplayLine">
            <path d="M370.6,408.92c-3.9-37.27-81.88-26.81-100.61-10.61-15.06,13-2.42,69.54,8.33,82.83,15.28,18.89,63.09,12.25,75,5C366.62,478.1,374.65,447.61,370.6,408.92Z"/>
            <path d="M402.06,406.15c-3.87-37.55,78.81-42.48,102.65-29.57,19.49,10.55,18.22,71.76,9.36,87.32-12.46,21.88-64.55,22-78.35,16.44C420.51,474.2,406.08,445.12,402.06,406.15Z"/>
            <path d="M402.06,406.15c-2.08-6.36-30.26-3.64-31.46,2.77"/>
        </g>
        <g class="eyeCornerLine">
            <path d="M523.34,405.67c-8.12-.4-12.24-.9-18.23-3.16"/>
            <path d="M306.28,421a52.94,52.94,0,0,1,7.44-6"/>
        </g>
    </g>
</svg>
