<svg class="presence" xmlns="http://www.w3.org/2000/svg" viewBox="0 0 1625.35 2801.86">
  <path class="ghostTail" d="M757.79,1544.81c6.42,40.33,48.59,43.09,33.92,77,15.06,2.9,25.89,17.21,17.42,28.42,24.25-5.55,19,19.62,31.17,26.58,156.27,89,335.84,202.06,383.22,275,82.72,127.44,132.33,288.09,179.69,416.22,8.18,22.13,38.4,23.53,25.67,55.92,16.31,2.11,24.44,14.46,18.33,29.34,138.46,89.75,207.88,236.23,164.11,345.62-54.93-162.95-312.61,1.81-341.5-248.84-17.18-.39-32-19.91-28-33.52-30.59-12.94-11.18-36.38-24.75-53.18-94.94-117.58-230.84-174.42-278.7-272.28-17-4.35-25-14.74-22.92-32.09-37.34-4.18-25.62-32.16-47.67-36.67-482-98.69-646.5-165.57-557.41-495.06C443.22,1424.88,592,1394,757.79,1544.81Z"/>
  <g class="chineseRed">
    <path d="M548.84,875c25.41-11.47,40.78-3.25,52.62-4,17.69-1,19.77-13,47.88-7.19,9.55-12.79,20-16.08,31.3-9.61-2.2-13.36,13.92-18.56,21.3-12.07,21.23-12.73,2.5-25.22,19.72-38-18.78-28.17,8.54-48.67-5.12-86.24-22.2-21.34-9.29-41.23-12.81-62.33-2.92-17.51-13.66-29-13.66-52.93C764.36,661.57,869.81,617.21,866,568.5c7.56,51,15.55,69.83,12,93.92-5.35,96.78,6.8,207.34-23.06,248.47,5.49,30.05-8.77,37.1-23.05,49.52-9.75,8.49-14,17.73-32.45,26.47-16.22,7.69-30,18.12-55.5,35-19.45,12.88-31.67,2.88-86.32,46.43C610.13,1014.62,574,950,548.84,875Z"/>
    <path d="M170.57,1231.16c2.46,22.74,20.79,39,20.49,54.91-.82,43.43,30.32,44.25,34.42,82-1.64,23-13.11,31.15,24.59,54.09-11.48,35.25,18.83,52.7,23.76,68,2.51,7.77,3.21,18.3,2.94,31.21,29.64.07,26.88,76.35,24.93,150.73,81.95,0,254.88-23.49,337.66-52.17-60.72-210.57-24.21-219.16,27.68-6.56,34.6-6.84,95.25-29.78,122.11-45.72-13.93-62.28-43.6-135.41-52.27-212.72-9.83-87.69-32.94-139.74-55.73-218C652.57,1019.63,583.46,965.06,548.84,875c-20.84,19.88-139.48-6.32-124.54,40.8-9.85-36.66-61.18,6.92-177.34,1.94-29.86,23.24-76.33,21.58-114.42,60.4Z"/>
    <path d="M512.72,1031.81c4.91,23.86,111.38,110.42,130.06,101.87-40,90-70.28,158.81-116.42,214.64-37,44.74-83.77,89.77-129.15,92.69-55.09,3.53-162.65-127.45-216.56-195.37-57.07-71.89-121-185.39-48.11-267.49,37.91-33.39,105.27,34.88,128.24,94.59,12.49,4.94,20.86,14.57,25.74,28.17,17.37,10.84,9.56,18.83,16.19,25.49,15.06,15.14,25.23,31,35.38,46.39,32.7-.67,23.73,33.6,44.56,40.93,11.52-8.42,22.7-7,33.66.91,1.51-17.11,18.12-36,30-45.48-1.13-18.83,16.66-34.56,21.83-48.21C470.33,1088.9,502.15,1063.61,512.72,1031.81Z"/>
  </g>
  <g class="chineseRedDark">
    <path d="M512.72,1031.81c4.91,23.86,111.38,110.42,130.06,101.87C656.28,1118.48,554.4,1003.58,512.72,1031.81Z"/>
    <path d="M866.06,570.89c0-18.6-28.06-15.92-59.43-25.13-58.47-17.17-117.77,1.44-116.56,56.9C763.14,660.61,866.37,618.64,866.06,570.89Z"/>
    <path d="M308.29,1657.15c-17.92-188.44-27-150.79-31.08,7C283.66,1659.5,294.22,1657.74,308.29,1657.15Z"/>
  </g>
  <g class="chineseTrim">
    <path d="M260.78,1072.74c12.49,4.94,20.86,14.57,25.74,28.17-21.85-67.74-83.66-151.62-133.21-139.86a126.62,126.62,0,0,0-20.77,17.1C170.45,944.76,237.81,1013,260.78,1072.74Z"/>
    <path d="M345.54,983c29,9.53,66.93,9.26,95.17-1.51,13.18,36.47,26.34,71.77,39.23,106.37,5.62-9.52,12.42-18.83,18.61-28.4-11.78-31.55-22.37-60.79-31.48-87,8.67-3.75,17.42-7.4,26.23-13.08l-9-13c-47.15,24-91.85,34.54-135.77,23.56-46.63-11.66-68.34-39.8-118.77-41.87h0c-6.63,3.13-13.69,5.78-21,8.39C259.31,927.74,285.21,963.18,345.54,983Z"/>
    <path d="M789.15,1567.63c-1.07-4.79-2.24-9.66-3.49-14.57-38.32,19.36-74.88,34.28-108.62,42.08C626,1497,621.62,1392.74,579.33,1268c-7.24,13.36-14.68,26.09-22.48,38.26,29.58,95,52.37,191.87,62.3,300.69-91.29,27.59-202.48,42.33-303.6,47.57-14.54-78.09,2.41-154.13-38.79-133.2-.7,34.25-8.21,85.32-7,146.63-.88,3.87,17.15,8,18,4.1-3.06-37.15.82-82,1.64-131.95l12.29,131.95c81.95,0,254.88-23.49,337.66-52.17-5-46.66-18.34-98.94-23-147.8,11.68,48.32,33.12,93.24,50.63,141.24C701.64,1606.51,762.29,1583.57,789.15,1567.63Z"/>
  </g>
  <g class="clothesOverlapLine">
    <path d="M424.3,915.81c6,5.57,17.4,29.77,24,46.29,14.66,44.57,29.29,80,41.31,110.69"/>
    <path d="M567.78,1288.49c24.35,63.84,32.86,123.23,48.63,183.62"/>
  </g>
  <g class="clothesFoldLine">
    <path d="M546.82,1525.9Q483.9,1588.38,421,1603.06"/>
    <path d="M225.48,1368c7.34-22.77,4.25-38.42-7-48.49"/>
    <path d="M250.07,1422.11c11.47-19.69,13.13-33.6-6.25-35.09"/>
    <path d="M260.78,1072.74c-79-56.69-173.81-10.52-86.33-17.21"/>
    <path d="M286.52,1100.91c-42.82-17.43-88.38,11.73-139.41,16"/>
    <path d="M269.22,1122.36c-28-1.82-70.47,6.07-88.7,18.22"/>
    <path d="M338.09,1172.79c14.83,16.11-62.8,44.94-116.87,37"/>
    <path d="M382.65,1213.72c-26.09,16-48,40.17-63,77.52"/>
    <path d="M410.76,1316.75c-19.44-60.14,1.29-112.14-18.83-75.32-57.11,104.48,34,184.67,7.29,110.56"/>
    <path d="M416.31,1214.63c-2.93,26.7,2.86,55.1,13.89,84.51"/>
    <path d="M446.32,1169.15c.28,10.31,5.75,22.46,4.54,30.36"/>
    <path d="M468.15,1120.94c2.75,17.82,25.23,56.7,33.73,135.67"/>
    <path d="M302.71,1126.4c15.42-47.57,39.65-18.87,66.13,29.37"/>
    <path d="M294.73,1003.29c-41.48-29.6,0,47.38,47.38,63.79"/>
    <path d="M649.34,863.87a108.55,108.55,0,0,1-24.74,25.21"/>
    <path d="M630.67,923.71c-1.33,31.82-3.69,60.19-8.78,79.37"/>
    <path d="M679.27,873.29c6.08,31.59-6.07,110-26.73,130.61"/>
    <path d="M680.64,854.26C697.5,887.87,785,966.84,724.22,928.57"/>
    <path d="M701.94,842.19C766.14,947.4,864,931,774,893.33"/>
    <path d="M721.66,804.16a94.76,94.76,0,0,0,54.2,26.6"/>
    <path d="M713.82,822.26c4.9,14.2,12.26,20.39,20.12,24.91"/>
    <path d="M716.54,717.92c25.91,17.47,55.69,30.09,80,68.5"/>
    <path d="M703.73,655.59c7.12,17.26,15.51,28.18,24.75,34.84"/>
    <path d="M791.71,1621.82c-12.74,20.06-88.63,64.46-139.22,78.91"/>
    <path d="M809.13,1650.24c-22.42,5.06-63.13,35.65-96.24,58.23"/>
    <path d="M915.48,2159.05c19.49-4.84,33.14-19,43.65-38.11"/>
    <path d="M938.4,2191.14c13.92,3.28,29.8-.65,46.54-7.74"/>
    <path d="M1428.88,2424c-14,29.66-50.06,58.81-97.55,73.27"/>
    <path d="M1447.21,2453.34c-7,24.31-30.71,48.06-57.55,62.51"/>
    <path d="M1241.85,2516.6c14,4.62,28.39,2.57,43-3.85"/>
  </g>
  <g class="clothesCreaseLine">
    <path d="M805.81,1732.74c-42.85,16.52-103.76,47-133.19,66.59"/>
    <path d="M779,1768.87c-48.05,20.5-95.79,49-145.1,78.92"/>
    <path d="M970,1815.85c-44.15,16.8-84.44,34.05-117.18,52.14"/>
    <path d="M956,1851c-42.33,13.94-94.47,39.24-130.09,62.47"/>
  </g>
  <g class="chineseTie">
    <path d="M409.46,1011.49l5.84,16.42a897.33,897.33,0,0,1,100.14-33.38l-5.14-16.28A678.56,678.56,0,0,1,409.46,1011.49Z"/>
    <circle cx="463.98" cy="1002.63" r="10.54"/>
    <path d="M547.43,1320.43q-7.48,10.8-15.52,21A894.37,894.37,0,0,1,632,1312.75l-4.45-16.49A677.33,677.33,0,0,1,547.43,1320.43Z"/>
    <circle cx="580.24" cy="1318.68" r="10.54"/>
    <path d="M560.57,1465.57l4.74,16.78a893.4,893.4,0,0,1,102.12-26.68l-4-16.59A677.29,677.29,0,0,1,560.57,1465.57Z"/>
    <circle cx="615.55" cy="1460.35" r="10.54"/>
  </g>
  <path class="hairDarkGray" d="M487.41,677.08c62.06-109.5,3.72-275.08-95.32-327.35-125-66-282-8.29-359.13,51.83-13.62,10.62-52.23,47-18.48,87.13-6.94,22.39,1.95,64.52,22.88,82.1C326.48,624.57,451.63,689.79,487.41,677.08Z"/>
  <g class="hairOverlapLine">
    <path d="M255.83,447c8.84,1.43,19.82,4.11,27.11,7.87"/>
    <path d="M39.59,513.49c-11.08-6.25-17.51-11.2-25.11-24.8"/>
  </g>
  <path class="hairEdgeLine" d="M198.9,386c-77.48-19.68-179.26,38-179.52,80"/>
  <g class="skinEastAsian">
    <path d="M478.94,678.61c-14.75.8-38.38-5.15-73-15.28C203.14,707.94,242.67,814.86,255.09,918c110.43,2.69,159.59-38,169.21-2.21-6.47-20.4,12.11-27,36.94-29.66C442.34,810.21,458.77,716.48,478.94,678.61Z"/>
    <path d="M478.62,602c-15.88-42.41-67-25.54-69.38.15-7.05,27.94,3.25,65.89-.05,107.25,23.52,14.79,38.76,2.83,50.13-19.86C467.72,672.79,495.35,646.69,478.62,602Z"/>
  </g>
  <g class="skinGhostLight">
    <path d="M433.63,891.22c25.2,79.35,77.38,85.45,79.86,143.07,5.54,13.69,34.4,41.45,63.73,64.26,4.25-21.66,10.11-40.28,19.22-52.27,34.6-82.9-4.17-137.77-26.24-160.43-11.3-17.21-13.12-41.75,0-64.41,29.23-28,18.49-56.66-1.79-50.1-17.29,10.74-30,31.87-39.95,47.71-.6-7.15,3.41-24,7.77-29.81,21.71-29.12,20.82-69.35-13.74-53.87,4.09-25.56-30.09-29.71-48.4,18.71,7.09-26.57-12.4-34.84-27.16-20.67-5.91,11.23-19.08,49.77-17.48,68.35C431.84,835.16,425.28,863.78,433.63,891.22Z"/>
    <path d="M674.6,578.65c17.08-1.06,20.83,14.79,24.6,30.62,32.29,21.4,69.11,25.15,99.94,18.66-7.87-37.21-21.6-78.16-29.43-119.57-2.76-42.85-35.92-83.9-77.41-109.9-11.95-15.47-18.92-40.37-23.5-69.8,5.43-17.39-4.15-66.35-31.1-42.86-8.21,12.62-7.14,58.25,9.15,110.09-12.92-6.9-40.3-57.12-43-76.91,9.06-38.38-12.09-69.57-31.79-46.31-11.5,38.6-6.21,84.61,31.79,138.24-32.18-31.43-38-44.64-50.22-76.9,5.46-42.3-13.16-76.14-35.48-53-18.92,53,8.57,110.68,50.18,155.29-38-21.44-34-26.55-53.27-58.71,7.24-53-30.09-64.79-37.23-43.77-7.65,32,6.82,84.19,24.09,103.18,32.58,40.5,73.59,56.88,87.84,88.13-22.22-16.16-66.14-6.53-54.52,17.2,29.92,2.53,37.06,29.29,62.62,31.82C615.46,575.85,642.79,585.72,674.6,578.65Z"/>
    <path d="M409.19,709.43C426.5,817.21,330,845.72,282.72,881.81c-32.29,24.63-87.72,45.79-117.9,23.61C138.29,885.92,95.93,881.07,74.76,797c-6.26-24.91-16.21-54.82-14-83.18.85-10.64-5.42-15.82-2.94-25.51-19.45-11.9-5.41-23.28-13.41-38-11.8-22.3-10.05-86.07-4.87-136.83,5.87-6.35,19.18-15.11,34.9-16.44,53.64-46.25,133-57.69,181.34-50.1,18.9,112.89,91.74,49.05,102,150.57,17-3.67,36.46,11.09,51.43,4.66C402.19,630.12,412.49,668.07,409.19,709.43Z"/>
  </g>
  <g class="skinOverlapLine">
    <path d="M474.09,754.08c-19.68,40.88-16.2,78.71-12.71,114.55"/>
    <path d="M522.49,735.37c-25.27,24.75-33.24,72-32.24,134.75"/>
    <path d="M528.46,819.05c-3.87,7.77-8.35,32.66-4.37,55.06"/>
    <path d="M646.85,521.22c-28.64-10.45-43.19,9.55-57.11,3.87"/>
  </g>
  <g class="skinFoldLine">
    <path d="M575.09,432.85a22.25,22.25,0,0,0-11.17,7.56"/>
    <path d="M611.9,409.55a15.86,15.86,0,0,0-14.13,7.23"/>
    <path d="M656.26,394.1c-6.47.2-11.71,1.83-15.11,5.58"/>
    <path d="M457.81,665.07c40.83-61.65-28.24-105.35-35.33-46.65"/>
    <path d="M420.38,635.5c15.17,11.36-8.84,32.82,3.82,38.06C432.61,677,442,650,442,650s5.85-41.3-5.61-29.73"/>
  </g>
  <g class="skinCreaseLine">
    <path d="M726.25,497.86c-30.16-18.11-64.85-20.13-103.36-8.56"/>
    <path d="M703,440.37c-27.3,17.3-53.71,31.93-73.39,26.3"/>
    <path d="M693.22,571.87c30,1.84,37.31-39.14,61.78-47.71"/>
  </g>
  <path class="lipMaleMedium__noStroke" d="M134.63,773.73c27.88,1.59,27.83-17.59,46.14-17.71,22.43.39,47.54,13.67,70.06,30.83-24.93,3.38-42.09,38.24-92.45,43-27.4-3.48-12.11-12-7.56-38.67C129.3,791.78,129.35,786.35,134.63,773.73Z"/>
  <path class="mouthInner" d="M247.67,784.34c-5-2.41-29.58-17-39.36-18.44C190,761.54,172.47,786,154,786.26a135.92,135.92,0,0,1-3.79,27.17C178.41,772.83,250,797.47,247.67,784.34Z"/>
  <path class="teeth" d="M208.31,765.9C190,761.54,172.47,786,154,786.26a135.92,135.92,0,0,1-3.79,27.17C160.92,798,177.87,792,194.66,789.77c10.38-6.18,27.5-9.81,41.44-11.67C226.74,773.05,214.53,766.79,208.31,765.9Z"/>
  <g class="lipOverlapLine">
    <path d="M154,786.26c-5.36.19-12.16-.14-17-1.73"/>
    <path d="M150.21,813.43c-2.21,4.38-4.58,6.79-7.11,7.58"/>
  </g>
  <g class="lipEdgeLine">
    <path d="M180.77,756c-18.31.12-18.26,19.3-46.14,17.71"/>
    <path d="M209.22,809.89c-10.57,12-42.46,22.26-51.62,18.74"/>
  </g>
  <g class="smileLine">
    <path d="M120.73,590.44c4.07,14.92,10.76,26.62,22.48,32.16"/>
    <path d="M99.79,601.38c3,9.58,5.86,25.85,4.12,37"/>
  </g>
  <g class="cheekLine">
    <path d="M117.91,752.38c-3.85,9.1-4.35,19.29-.49,53.35,3.57,31.52,4.43,39.48,16.54,50.39"/>
    <path d="M183.92,700.86c8,.14,12.23,7,36.07,16.61,18.25,7.37,60.59,70.71,56.23,86.77"/>
  </g>
  <g class="noseLine">
    <path d="M117.25,684.28c1.19,31.78-22.76,58.15,5.23,70.53"/>
    <path d="M183.92,700.86c7.71,1.53,18,19.19,8.22,28"/>
    <path d="M177,730.78c1-9.08-8.55-7.17-11.84-2.74-5.34,7.17-7.32,12.36-12.9,16.05"/>
    <path d="M119.87,744A20.79,20.79,0,0,0,139,750.23"/>
  </g>
  <g class="eyeLashLine">
    <path d="M57.87,688.29c15.45-27.17,33.05-16.41,44.1-26.58"/>
    <path d="M161.19,635.06c11.16-1.94,4.27-10,29.46-22.48,29.49-14.61,40.38.16,58.1-9.51"/>
  </g>
  <g class="eyeFoldLine">
    <path d="M67.82,696.49c7.47,2.91,20.78-4.13,26.82-13.23"/>
    <path d="M183.21,644.25c10.52,3.35,36.89-5.66,46.91-17.78"/>
  </g>
  <g class="eyebrowDarkGray">
    <path d="M144.5,607.39c17.65,5,28.65-19.09,52.56-32.83,26.35-15.15,61-2.85,53.42-13.81C159.2,546.16,157.51,599.6,144.5,607.39Z"/>
    <path d="M38.57,630.61A87.24,87.24,0,0,0,42.5,645.9c24.69-17.45,48.53-5.68,48.26-22.15C70.48,629.46,63.15,615,38.57,630.61Z"/>
  </g>
  <path class="chineseTassel" d="M351.15,32.44c248.93,22,267.07,237.5,500.72,299.29,1.81,9.24.25,17.2-8,22.63,3.62,7.85.06,14.33-8.46,20.15,1.14,8.16-1.94,14-9.65,17.16-1.18,9-6.37,15.19-15.86,18.31C740.46,356.77,668,313.52,620.4,257.69c-80.14-94-136.59-187-273.07-200.83Z"/>
  <path class="chineseTrim" d="M21.76,183c1.64-15.89,22.82-59.4,38.84-72.38,77.87,69.65,300.79,168,431.71,193,1.17,17.56-18.12,65.73-29.41,79.39C377.55,384.35,72.13,252,21.76,183Z"/>
  <path class="chineseRed" d="M488.31,302.74C513,178.41,463.41,91,350.51,37.19,234.32-18.15,119.67,19.85,63.3,112.94,142.68,181.73,358.4,276.88,488.31,302.74Z"/>
  <path class="chineseBlack" d="M386.9,274.78C423,189.59,406.78,93.87,350.51,37.19,277.06,43,216.92,102.67,176,184.92,240.1,218.58,316.88,251.32,386.9,274.78Z"/>
  <path class="chineseRedDark" d="M375.31,47.52C423,26.26,310.47-29.83,321.64,23.06,323.77,33.14,362.25,53.35,375.31,47.52Z"/>
  <g class="fatherGlassesDisplayLine">
    <path d="M99.7,650.3c-12.48-33-72.44,2.27-83.1,22.71-8.46,16.24,14.89,62.7,26.48,71.42,16.62,12.49,53.5-7.52,61.49-17.7C113.57,715.27,112.67,684.66,99.7,650.3Z"/>
    <path d="M125.31,637.21c-12.68-33.65,57.44-68.09,82.12-64.54,20.48,3,35.25,62.89,31.16,81.07-5.72,25.36-52.27,42.63-65.74,41.83C158.14,694.7,138.49,672.2,125.31,637.21Z"/>
    <path d="M125.31,637.21C122,632,99.1,644,99.7,650.3"/>
  </g>
</svg>
