<svg viewBox="0 0 250.55 431.96">
  <path class="ghostTail" d="M116.82,238.05c1,6.22,7.49,6.64,5.23,11.86,2.32.45,4,2.65,2.68,4.38,3.74-.85,2.92,3,4.8,4.1,24.07,13.71,51.73,31.12,59,42.36,12.74,19.63,20.39,44.38,27.68,64.12,1.26,3.4,5.92,3.62,3.95,8.61,2.52.32,3.77,2.23,2.83,4.52,21.33,13.82,32,36.39,25.28,53.24-8.46-25.1-48.16.28-52.61-38.33-2.64-.06-4.93-3.07-4.3-5.17-4.72-2-1.73-5.6-3.82-8.19C173,361.44,152,352.68,144.64,337.61c-2.61-.67-3.86-2.27-3.53-4.94-5.75-.65-3.94-5-7.34-5.65-74.25-15.2-99.58-25.5-85.86-76.26C68.37,219.58,91.29,214.82,116.82,238.05Z"/>
  <g class="chineseRed">
    <path d="M84.64,134.88c3.91-1.77,6.28-.5,8.1-.61,2.73-.16,3.05-2,7.38-1.11,1.47-2,3.07-2.47,4.82-1.48a2,2,0,0,1,3.28-1.86c3.27-2,.39-3.88,3-5.85-2.9-4.34,1.31-7.5-.79-13.29-3.42-3.29-1.43-6.35-2-9.6-.45-2.7-2.11-4.47-2.11-8.15,11.44,9.07,27.69,2.24,27.1-5.26,1.16,7.85,2.39,10.75,1.84,14.46-.83,14.91,1,31.94-3.55,38.28.84,4.62-1.36,5.71-3.56,7.62-1.5,1.31-2.15,2.73-5,4.08-2.5,1.19-4.62,2.79-8.55,5.39-3,2-4.88.45-13.3,7.16A85.52,85.52,0,0,1,84.64,134.88Z"/>
    <path d="M26.37,189.74c.38,3.5,3.2,6,3.16,8.46-.13,6.69,4.67,6.81,5.3,12.62-.25,3.54-2,4.8,3.79,8.33-1.77,5.43,2.9,8.12,3.66,10.48a15.7,15.7,0,0,1,.45,4.81c4.56,0,4.14,11.76,3.84,23.22,12.62,0,39.26-3.62,52-8-9.35-32.44-3.73-33.76,4.26-1a77.92,77.92,0,0,0,18.81-7c-2.14-9.6-6.71-20.86-8.05-32.77-1.51-13.51-5.07-21.52-8.58-33.58-4.41-18.06-15-26.47-20.38-40.34-3.21,3.06-21.49-1-19.19,6.28-1.51-5.64-9.42,1.07-27.31.3-4.6,3.58-11.76,3.33-17.63,9.31Z"/>
    <path d="M79.07,159c.76,3.68,17.16,17,20,15.69-6.17,13.87-10.83,24.47-17.94,33.07-5.69,6.89-12.9,13.82-19.89,14.27-8.49.55-25.05-19.63-33.36-30.09-8.79-11.07-18.63-28.56-7.41-41.2,5.84-5.15,16.22,5.37,19.76,14.57a6.84,6.84,0,0,1,4,4.34c2.68,1.66,1.47,2.9,2.49,3.92a42.92,42.92,0,0,1,5.45,7.15c5-.11,3.66,5.17,6.87,6.3a4,4,0,0,1,5.18.14c.24-2.63,2.79-5.54,4.63-7-.18-2.9,2.56-5.33,3.36-7.43C72.54,167.83,77.44,163.93,79.07,159Z"/>
  </g>
  <g class="chineseRedDark">
    <path d="M79.07,159c.76,3.68,17.16,17,20,15.69C101.19,172.38,85.49,154.68,79.07,159Z"/>
    <path d="M133.5,88c0-2.86-4.32-2.45-9.15-3.87-9-2.64-18.15.22-18,8.77C117.65,101.85,133.55,95.39,133.5,88Z"/>
    <path d="M47.58,255.36c-2.76-29-4.16-23.23-4.78,1.08C43.79,255.72,45.42,255.45,47.58,255.36Z"/>
  </g>
  <g class="chineseTrim">
    <path d="M40.27,165.34a6.84,6.84,0,0,1,4,4.34c-3.37-10.44-12.89-23.36-20.52-21.55a19.13,19.13,0,0,0-3.2,2.64C26.35,145.62,36.73,156.14,40.27,165.34Z"/>
    <path d="M53.32,151.51A23.47,23.47,0,0,0,68,151.28c2,5.62,4.06,11.06,6,16.39.87-1.47,1.92-2.9,2.87-4.38-1.81-4.86-3.45-9.36-4.85-13.4a27.1,27.1,0,0,0,4-2l-1.38-2c-7.26,3.7-14.15,5.32-20.92,3.63-7.18-1.79-10.52-6.13-18.29-6.45h0c-1,.48-2.11.89-3.24,1.29C40,143,44,148.46,53.32,151.51Z"/>
    <path d="M121.65,241.57c-.16-.74-.34-1.49-.53-2.25a76.05,76.05,0,0,1-16.74,6.48c-7.86-15.11-8.53-31.17-15-50.38q-1.67,3.09-3.46,5.89a220,220,0,0,1,9.6,46.32C81.4,251.88,64.28,254.15,48.7,255c-2.24-12,.37-23.74-6-20.52-.11,5.27-1.27,13.14-1.08,22.59-.14.59,2.64,1.22,2.77.63-.47-5.73.13-12.63.25-20.33l1.9,20.33c12.62,0,39.26-3.62,52-8-.77-7.19-2.82-15.24-3.53-22.77,1.79,7.45,5.1,14.37,7.79,21.76A77.92,77.92,0,0,0,121.65,241.57Z"/>
  </g>
  <g class="clothesOverlapLine">
    <path d="M65.45,141.16c.93.86,2.68,4.59,3.7,7.13,2.26,6.87,4.52,12.32,6.37,17.05"/>
    <path d="M87.55,198.57c3.76,9.83,5.07,19,7.5,28.28"/>
  </g>
  <g class="clothesFoldLine">
    <path d="M84.33,235.14q-9.7,9.62-19.39,11.89"/>
    <path d="M34.83,210.82c1.13-3.51.65-5.92-1.08-7.47"/>
    <path d="M38.62,219.15c1.76-3,2-5.17-1-5.4"/>
    <path d="M40.27,165.34c-12.18-8.74-26.78-1.62-13.3-2.65"/>
    <path d="M44.23,169.68c-6.6-2.69-13.61,1.8-21.47,2.46"/>
    <path d="M41.56,173c-4.3-.28-10.85.94-13.66,2.81"/>
    <path d="M52.17,180.75c2.29,2.48-9.67,6.92-18,5.7"/>
    <path d="M59,187.05A23.82,23.82,0,0,0,49.33,199"/>
    <path d="M63.37,202.92c-3-9.26.2-17.27-2.9-11.6-8.8,16.1,5.24,28.45,1.12,17"/>
    <path d="M64.22,187.19c-.45,4.12.44,8.49,2.14,13"/>
    <path d="M68.85,180.19c0,1.59.88,3.46.69,4.67"/>
    <path d="M72.21,172.76c.42,2.75,3.88,8.73,5.19,20.9"/>
    <path d="M46.72,173.6c2.38-7.33,6.11-2.9,10.19,4.53"/>
    <path d="M45.5,154.64c-6.39-4.56,0,7.3,7.29,9.82"/>
    <path d="M100.12,133.16a16.87,16.87,0,0,1-3.81,3.89"/>
    <path d="M97.24,142.38a63.26,63.26,0,0,1-1.35,12.23"/>
    <path d="M104.73,134.61c.93,4.87-.94,16.94-4.12,20.12"/>
    <path d="M104.94,131.68c2.6,5.18,16.07,17.34,6.71,11.45"/>
    <path d="M108.22,129.82c9.89,16.21,24.95,13.68,11.11,7.88"/>
    <path d="M111.26,124a14.55,14.55,0,0,0,8.35,4.09"/>
    <path d="M110.05,126.75a6.45,6.45,0,0,0,3.1,3.84"/>
    <path d="M110.47,110.68c4,2.69,8.58,4.64,12.32,10.55"/>
    <path d="M108.5,101.08a11.88,11.88,0,0,0,3.81,5.37"/>
    <path d="M122.05,249.91c-2,3.09-13.65,9.93-21.45,12.16"/>
    <path d="M124.73,254.29c-3.45.78-9.72,5.49-14.82,9"/>
    <path d="M141.11,332.67c3-.75,5.11-2.93,6.73-5.87"/>
    <path d="M144.64,337.61c2.15.51,4.59-.1,7.17-1.19"/>
    <path d="M220.19,373.48c-2.15,4.57-7.71,9.06-15,11.28"/>
    <path d="M223,378c-1.07,3.74-4.73,7.4-8.87,9.63"/>
    <path d="M191.39,387.74a9.05,9.05,0,0,0,6.62-.59"/>
  </g>
  <g class="clothesCreaseLine">
    <path d="M124.22,267a129.79,129.79,0,0,0-20.52,10.26"/>
    <path d="M120.08,272.57c-7.4,3.15-14.75,7.54-22.34,12.15"/>
    <path d="M149.51,279.8a145.35,145.35,0,0,0-18,8"/>
    <path d="M147.36,285.21a95.26,95.26,0,0,0-20,9.62"/>
  </g>
  <g class="chineseTie">
    <path d="M63.17,155.9l.9,2.53a138,138,0,0,1,15.42-5.14l-.79-2.51A104.55,104.55,0,0,1,63.17,155.9Z"/>
    <circle cx="71.57" cy="154.54" r="1.62"/>
    <path d="M84.42,203.49c-.77,1.11-1.56,2.19-2.39,3.23a138.51,138.51,0,0,1,15.42-4.41l-.69-2.54A106.17,106.17,0,0,1,84.42,203.49Z"/>
    <circle cx="89.47" cy="203.22" r="1.62"/>
    <path d="M86.44,225.85l.73,2.58a140.2,140.2,0,0,1,15.73-4.11l-.62-2.55A105.21,105.21,0,0,1,86.44,225.85Z"/>
    <circle cx="94.91" cy="225.04" r="1.62"/>
  </g>
  <path class="hairDarkGray" d="M75.17,104.39C84.73,87.52,75.75,62,60.49,54,41.23,43.8,17.05,52.69,5.17,62c-2.09,1.64-8,7.23-2.84,13.42-1.07,3.45.3,9.94,3.52,12.65C50.38,96.3,69.66,106.35,75.17,104.39Z"/>
  <g class="hairOverlapLine">
    <path d="M39.5,68.94a15.62,15.62,0,0,1,4.18,1.21"/>
    <path d="M6.19,79.19a8.5,8.5,0,0,1-3.86-3.82"/>
  </g>
  <path class="hairEdgeLine" d="M30.73,59.56c-11.93-3-27.61,5.85-27.65,12.32"/>
  <g class="skinEastAsian">
    <path d="M73.87,104.63c-2.27.12-5.91-.8-11.25-2.36-31.23,6.87-25.14,23.34-23.23,39.23,17,.42,24.58-5.85,26.06-.34-1-3.14,1.87-4.16,5.69-4.56C68.23,124.9,70.76,110.46,73.87,104.63Z"/>
    <path d="M73.82,92.83c-2.45-6.53-10.32-3.93-10.69,0-1.08,4.31.5,10.15,0,16.52,3.62,2.28,6,.44,7.72-3.06C72.14,103.73,76.4,99.71,73.82,92.83Z"/>
  </g>
  <g class="skinGhostLight">
    <path d="M66.89,137.38c3.88,12.22,11.92,13.16,12.3,22,.86,2.11,5.3,6.39,9.82,9.9.65-3.33,1.56-6.2,3-8.05,5.33-12.77-.64-21.22-4-24.71a9.4,9.4,0,0,1,0-9.92c4.5-4.32,2.85-8.73-.28-7.72-2.66,1.65-4.62,4.91-6.15,7.35a9.68,9.68,0,0,1,1.19-4.59c3.35-4.49,3.21-10.68-2.11-8.3.63-3.94-4.64-4.58-7.46,2.88,1.09-4.09-1.91-5.37-4.18-3.18C68,114.8,66,120.73,66.25,123.6,66.61,128.74,65.6,133.15,66.89,137.38Z"/>
    <path d="M104,89.23c2.63-.16,3.21,2.28,3.79,4.71a20.26,20.26,0,0,0,15.39,2.88c-1.21-5.73-3.32-12-4.53-18.42-.43-6.6-5.53-12.92-11.92-16.93-1.85-2.38-2.92-6.22-3.62-10.75.83-2.68-.64-10.22-4.8-6.6-1.26,1.94-1.09,9,1.41,17-2-1.07-6.2-8.8-6.62-11.85,1.39-5.91-1.86-10.72-4.9-7.13-1.77,5.94-1,13,4.9,21.29-5-4.84-5.86-6.88-7.74-11.84.84-6.52-2-11.73-5.46-8.18C77,51.55,81.23,60.42,87.64,67.3c-5.86-3.31-5.24-4.09-8.21-9,1.12-8.17-4.63-10-5.73-6.74-1.18,4.93,1,13,3.71,15.89,5,6.24,11.33,8.77,13.53,13.58-3.43-2.49-10.19-1-8.4,2.65,4.61.39,5.71,4.51,9.65,4.9C94.9,88.8,99.11,90.32,104,89.23Z"/>
    <path d="M63.13,109.37c2.66,16.61-12.2,21-19.48,26.56-5,3.79-13.52,7-18.17,3.63-4.08-3-10.61-3.75-13.87-16.7-1-3.84-2.49-8.44-2.15-12.81.13-1.64-.83-2.44-.45-3.93-3-1.84-.83-3.59-2.07-5.85C5.13,96.83,5.4,87,6.19,79.19a8.85,8.85,0,0,1,5.38-2.53c8.26-7.12,20.49-8.89,27.93-7.72,2.91,17.39,14.13,7.56,15.71,23.2,2.62-.57,5.62,1.7,7.92.71C62.05,97.16,63.63,103,63.13,109.37Z"/>
  </g>
  <g class="skinOverlapLine">
    <path d="M73.12,116.25c-3,6.3-2.49,12.13-2,17.65"/>
    <path d="M80.58,113.37c-3.89,3.81-5.12,11.1-5,20.76"/>
    <path d="M81.5,126.26a17,17,0,0,0-.67,8.48"/>
    <path d="M99.73,80.38c-4.41-1.61-6.65,1.47-8.79.6"/>
  </g>
  <g class="skinFoldLine">
    <path d="M88.68,66.77A3.4,3.4,0,0,0,87,67.94"/>
    <path d="M94.35,63.18a2.44,2.44,0,0,0-2.18,1.12"/>
    <path d="M101.18,60.8a3.12,3.12,0,0,0-2.32.86"/>
    <path d="M70.62,102.54c6.28-9.5-4.36-16.23-5.45-7.19"/>
    <path d="M64.85,98c2.34,1.75-1.36,5.05.59,5.86,1.29.53,2.74-3.63,2.74-3.63s.9-6.37-.86-4.58"/>
  </g>
  <g class="skinCreaseLine">
    <path d="M112,76.78C107.32,74,102,73.68,96,75.47"/>
    <path d="M108.38,67.93c-4.2,2.66-8.27,4.92-11.3,4"/>
    <path d="M106.88,88.18c4.61.29,5.74-6,9.51-7.34"/>
  </g>
  <path class="lipMaleMedium__noStroke" d="M20.83,119.28c4.3.24,4.29-2.71,7.11-2.73,3.46.06,7.32,2.11,10.79,4.75-3.84.52-6.48,5.89-14.24,6.62-4.22-.53-1.86-1.85-1.16-6C20,122.06,20,121.22,20.83,119.28Z"/>
  <path class="mouthInner" d="M38.25,120.91c-.78-.37-4.56-2.62-6.07-2.84-2.81-.67-5.52,3.09-8.36,3.14a20.45,20.45,0,0,1-.59,4.18C27.58,119.14,38.6,122.94,38.25,120.91Z"/>
  <path class="teeth" d="M32.18,118.07c-2.81-.67-5.52,3.09-8.36,3.14a20.45,20.45,0,0,1-.59,4.18c1.65-2.37,4.26-3.3,6.85-3.64a18.85,18.85,0,0,1,6.38-1.8A18.38,18.38,0,0,0,32.18,118.07Z"/>
  <g class="lipOverlapLine">
    <path d="M23.82,121.21a8.09,8.09,0,0,1-2.62-.27"/>
    <path d="M23.23,125.39a2.06,2.06,0,0,1-1.09,1.17"/>
  </g>
  <g class="lipEdgeLine">
    <path d="M27.94,116.55c-2.82,0-2.81,3-7.11,2.73"/>
    <path d="M32.32,124.85c-1.62,1.85-6.54,3.43-7.95,2.89"/>
  </g>
  <g class="smileLine">
    <path d="M18.69,91.05c.63,2.29,1.66,4.1,3.47,5"/>
    <path d="M15.47,92.73a14.5,14.5,0,0,1,.63,5.69"/>
  </g>
  <g class="cheekLine">
    <path d="M18.26,116c-.59,1.4-.67,3-.08,8.22.55,4.85.68,6.08,2.55,7.76"/>
    <path d="M28.43,108.05c1.22,0,1.88,1.08,5.55,2.56,2.81,1.14,9.34,10.89,8.66,13.37"/>
  </g>
  <g class="noseLine">
    <path d="M18.16,105.5c.18,4.9-3.51,9,.8,10.86"/>
    <path d="M28.43,108.05c1.18.24,2.76,3,1.26,4.32"/>
    <path d="M27.36,112.66c.16-1.4-1.32-1.1-1.82-.42-.82,1.1-1.13,1.9-2,2.47"/>
    <path d="M18.56,114.69a3.21,3.21,0,0,0,3,1"/>
  </g>
  <g class="eyeLashLine">
    <path d="M9,106.12c2.38-4.19,5.09-2.53,6.79-4.1"/>
    <path d="M24.92,97.92c1.72-.3.66-1.54,4.54-3.47,4.54-2.25,6.22,0,8.95-1.46"/>
  </g>
  <g class="eyeFoldLine">
    <path d="M10.54,107.38c1.15.45,3.2-.64,4.13-2"/>
    <path d="M28.32,99.33c1.62.52,5.68-.87,7.22-2.74"/>
  </g>
  <g class="eyebrowDarkGray">
    <path d="M22.35,93.66c2.72.77,4.42-2.94,8.1-5.06,4.06-2.34,9.4-.44,8.23-2.13C24.62,84.22,24.36,92.46,22.35,93.66Z"/>
    <path d="M6,97.23a13.67,13.67,0,0,0,.6,2.36c3.81-2.69,7.48-.88,7.44-3.41C11,97.05,9.82,94.82,6,97.23Z"/>
  </g>
  <path class="chineseTassel" d="M54.19,5.09c38.34,3.4,41.13,36.59,77.12,46.1a3.06,3.06,0,0,1-1.23,3.49c.56,1.21,0,2.21-1.3,3.1a2.27,2.27,0,0,1-1.49,2.65,3.26,3.26,0,0,1-2.44,2.82c-10.7-8.2-21.86-14.86-29.19-23.46C83.32,25.3,74.62,11,53.6,8.85Z"/>
  <path class="chineseTrim" d="M3.45,28.28c.25-2.45,3.51-9.15,6-11.15,12,10.73,46.33,25.88,66.5,29.72.18,2.71-2.79,10.12-4.53,12.23C58.25,59.3,11.21,38.91,3.45,28.28Z"/>
  <path class="chineseRed" d="M75.31,46.73c3.81-19.15-3.83-32.62-21.22-40.91C36.19-2.7,18.53,3.15,9.85,17.49,22.07,28.09,55.3,42.74,75.31,46.73Z"/>
  <path class="chineseBlack" d="M59.69,42.42c5.56-13.12,3.07-27.86-5.6-36.6-11.32.9-20.58,10.09-26.89,22.76A230.48,230.48,0,0,0,59.69,42.42Z"/>
  <path class="chineseRedDark" d="M57.91,7.42c7.34-3.28-10-11.92-8.27-3.77C50,5.2,55.9,8.31,57.91,7.42Z"/>
  <g class="fatherGlassesDisplayLine">
    <path d="M15.45,100.27c-1.92-5.1-11.16.35-12.8,3.49-1.3,2.5,2.3,9.66,4.08,11,2.56,1.93,8.24-1.15,9.47-2.72C17.59,110.27,17.45,105.56,15.45,100.27Z"/>
    <path d="M19.4,98.25c-1.95-5.18,8.85-10.49,12.65-9.94,3.15.45,5.43,9.69,4.8,12.49-.88,3.9-8,6.56-10.13,6.44C24.46,107.1,21.43,103.64,19.4,98.25Z"/>
    <path d="M19.4,98.25c-.52-.81-4,1-3.95,2"/>
  </g>
</svg>
