<svg id="presence" xmlns="http://www.w3.org/2000/svg" viewBox="0 0 2003.96 2022.99">
  <defs>
    <style>
      .cls-1 {
        fill: none;
        stroke: #000;
        stroke-miterlimit: 10;
        stroke-width: 2px;
      }
    </style>
  </defs>
  <title>roaring</title>
  <g id="fatherSock">
    <path class="cls-1" d="M1924.13,1681.76c25.18,259.71-217.19,204.57-99.61-35.48C1853.91,1658.53,1896.37,1662.61,1924.13,1681.76Z"/>
    <path class="cls-1" d="M574.48,1730.38c-7.67,21.26-16.59,40.34-27.76,55.52-11.43,89.81,107,122.47,149.85,41.6-.48-19.12,1.38-36.9,6.1-53Z"/>
  </g>
  <g id="fatherSole">
    <path class="cls-1" d="M1979.7,1743.89c12-.56,23.4,8.51,23.26,29.11-.39,55.46-104.25,132.06-160.52,201.73-43.67,54.07-150.43,63.09-147,20.11Z"/>
    <path class="cls-1" d="M682.78,1940.16c-1.51,7.61-8.09,16.06-13.93,16.44-63,4.19-137.44-21.25-216.41-31.32-92.13-11.75-178.06-49.29-156.84-88.84"/>
  </g>
  <g id="fatherShoe">
    <path class="cls-1" d="M1924.13,1681.76c21.23.45,69.84,49.76,67.35,77.38-5.54,61.69-106.06,149-158.75,206.58-44.64,48.76-118.75,53.54-137.26,29.12-63.12-83.33,75.57-45.3,77.65-242.18,1.38-7.63,51.12-26.45,61.69-20.56,21.34,11.88,23.22,60.33,19.41,104.33C1896.73,1783.43,1923.24,1734.33,1924.13,1681.76Z"/>
    <path class="cls-1" d="M696.57,1827.5c18.2,23,6.39,74.46-13.79,112.66-5.1,11.61-148.9-16.84-244.11-31.84-61.38-9.67-133.2-40.69-143.07-71.88,37.07-106.19,132.26,19.43,254.89-83.93,8-6.36,73.66,22.79,77.39,37.89,1.29,22.21-11.68,42.66-40,58C627.49,1848,664.07,1841.64,696.57,1827.5Z"/>
  </g>
  <g id="clothesDisplayLine">
    <path class="cls-1" d="M342.1,1791.26c44.4,46.47,132.08,61.32,245.74,57.19"/>
    <path class="cls-1" d="M1854.22,1836.43c-51.75,73.41-116.15,115-165.37,100.23"/>
  </g>
  <path id="fatherPants" class="cls-1" d="M1133.73,1190.49c-86,36.62-179.64,79.68-207.67,67.45,11.13,21.18,7.81,37.06-15.09,56.8-12.4,10.68,1.78,35.5-24,74.55-14.64,22.2-47,272.46-102.06,424.22-91.94-20.87-184.1-41.68-220.11-77.21,4.09-5.11,6.43-12.65,8-21.3-14.2-33.73,19.53-32.84,36.39-55-18.2-29,1.65-70.22,16.86-118,49.7-156.2,65.68-282.23,110-386.07,26.58-62.2,134-108.27,248.5-213-17-22.82-34.61-60.35-44.37-81.65,79.78,6.47,308.64-149.79,345.24-215.66,38.16,31.06,72.54,86.86,96.73,108.27,77.22,68.34,93.19,221,5.33,306.19,37.27,95,69.12,209.31,90.52,235.19,17.75,8,49.7,12.43,55.92,52.36,42.6,3.55,47.71,60.75,97.62,96.74,26.8,19.32,38.16,44.38,62.13,71,26.26,1.73,44.37,22.19,49.7,47.93,28.4-6.22,28.1,11.42,37.27,32.83,2.66,6.22,38.15,37,65.68,55-27.73,77.22-73.67,150-154.43,185.49-87.86-123.37-219.42-280.93-352.34-371.87C1301.31,1438.5,1204.73,1290.77,1133.73,1190.49Z"/>
  <path id="fatherPantsPocket" class="cls-1" d="M1196.81,814.63c-13.87-60.09,30.26-79.17,89.73-57.55C1230.86,785.12,1250.59,799.25,1196.81,814.63Z"/>
  <g id="clothesOverlapLine">
    <path class="cls-1" d="M984.63,942.87c30.62-25.28,61-50.24,78.15-57.89.43-18.05,10.7-31.33,28.07-44.92,75.6-59.13,125.41-132,202.16-80.49-62.69-25.43-110.57-7.19-96.2,55.06,6.49,28.13,36.79,36.25,43.28,81.69"/>
    <path class="cls-1" d="M1387.56,1060c-57.12,57.06-150.71,83.27-253.83,130.47"/>
  </g>
  <g id="clothesFoldLine">
    <path class="cls-1" d="M1062.78,885c65.82-47.83,122.76-4.86,128.08-16.79,6.55-14.71-23.68-31.73-57-24.44-25.16,5.51-48.56,5.8-55.89,24.44"/>
    <path class="cls-1" d="M926.06,1257.94c-28.69-10.11-59.06-20.24-60.16-9.23-1.59,15.85,27.66,27.16,47.78,25.15"/>
    <path class="cls-1" d="M952.41,1233.62c-38.23,11.07-146-26.23-143.85-49.29,1.14-12.28,45.27-4.53,75.44-8"/>
    <path class="cls-1" d="M890.54,1325.67c-2-48-45.87-46.86-93-97.08-15.59-16.6-29.17,8.05,48.79,80.48"/>
    <path class="cls-1" d="M572.83,1715c7.07,14.13,18.66,25.15,34.25,33.42"/>
    <path class="cls-1" d="M609.22,1660c18.52,28.39,76.5,62.15-13.12,43.89"/>
    <path class="cls-1" d="M652.28,1643.81c-40.68-3.88-15.5,10.33.65,34.87"/>
    <path class="cls-1" d="M1358.66,1195.65c26.59,26,51.89,47.72,73.5,56.94"/>
    <path class="cls-1" d="M1478.08,1295.21c-24.06-6.34-51.32-20.55-80.08-38.48"/>
    <path class="cls-1" d="M1534,1347.57c-49.92-6.45-100.81-11.12-100.81-25.62,0-15.12,18.64-10.35,40.38-5.17"/>
    <path class="cls-1" d="M1693.75,1515.31c5.19,6.32,9.8,8.42,16,13.34,12.94,7.4-54.91,57.68-104.81,38.58"/>
    <path class="cls-1" d="M1743.45,1563.24c12.39,28-65.24,50.82-124.38,36.65"/>
    <path class="cls-1" d="M1726.88,1631.31c-31.61,14.11-56.53,32-66.53,58.52"/>
    <path class="cls-1" d="M1488.37,1367c30.61,9.52,57.84,23.92,79.53,46.3"/>
    <path class="cls-1" d="M1200.49,824.8c66.08,31.82,126.44,25.75,183.82,0"/>
    <path class="cls-1" d="M1224,856.18c26.36,7.31,69,2,47.1,19.27"/>
    <path class="cls-1" d="M1348.44,879.17c-48.86-17.94,5.57-21.65,43.3-32.17"/>
  </g>
  <g id="fatherBelt">
    <path class="cls-1" d="M944.58,877.75c-3.52.72,24.51,52,28,51.2a472.59,472.59,0,0,0,46.61-14.2c17.51-13.83,33-25.07,43.59-29.77.38-15.89,8.39-28.09,22.15-40.05-3.62-6.17-6.83-12-9.12-16.56C1031.74,851.87,987.4,869,944.58,877.75Z"/>
    <path class="cls-1" d="M1303.55,740.47c-8.94-16.35-26.56-39.39-40.09-51.38-53.57,51.64-112.61,97-172.55,131,2,4,4.65,8.77,7.62,13.88,69.78-56.57,118.18-121.12,189.58-77.49Q1296.22,748.54,1303.55,740.47Z"/>
    <path class="cls-1" d="M1299.28,652.75q-12,12.79-24.46,25.19c13.21,11.77,30.25,33.94,39.33,50.15a220.45,220.45,0,0,0,22.53-33.24C1338.66,691.21,1302.11,649.73,1299.28,652.75Z"/>
  </g>
  <path id="fatherBeltBuckle" class="cls-1" d="M1025.48,849.3c-6.46-5.09-42,8-40.49,15.25,1.79,8.91,25.29,45.69,32.83,51.28,13.38-10.6,25.66-19.77,35.52-25.77C1046.15,875.53,1030.47,853.23,1025.48,849.3Z"/>
  <path id="fatherShirt" class="cls-1" d="M650.27,387.72c11.3,52,51.06,129.75,76.12,153.09,11.19,10.42-19,50.12,69.14,108,25.56,16.79,0,60.5,71.73,70.87,29.39,17.28-32.84,57,50.13,104.57,1.42,15.94,8.8,28.4,22.87,36.94,79.78,6.47,308.64-149.79,345.24-215.66,14.32-41.13-16-42.77-19.32-63.28,3.28-51.69-19.7-6.57-36.1-55.8,11.48-63.17-25.84-15.16-43.49-71.38,10.67-28.71.61-52.8-16.41-59.89-9.85-4.1-11.49-51.69-34.46-81.23,18,1.64,50.87-14,82.87.82,44.3,45.13,73.84,32,100.92,30.36,43.48,36.1,38.56,82,89.43,91.89,4.1,51.69,44.43,44,61.53,62.36,14.77,15.86,2.47,41.84,35.29,38.56l55,63.18c39.38-29.54,89.43-54.15,87-74.67-18-32.81-33.64-33.63-48.41-64-12.19-25.06-12.31-52.51-48.41-64-23-25.43-34.31-54-50.87-81.23-25.43-41.84-48.41-45.94-55.79-73.84-7-26.48-72.09-25.7-126.35-61.54-44-29-55.8-9-90.26-22.15-22.82-8.69-29.53-36.1-65.63-25.43l-66.85-28.72c-29.23-38.65-165.3-14-226.64-21.93C796.42,125.09,711,174.36,694.75,194.8c-20.73-12.34-22.46-22.36-34.67-17.87-38,14-96,47.66-104.71,75-42.19,11.63-66.32,39.16-73.29,39.7-49.32,3.79-49.32,24.28-71.32,37.17-23.52-12.89-29.59,3.8-44,25.8-11.38,8.35-24.27-14.41-40.21,17.45-34.9-3-31.86,10.62-41.72,16.69-13.32,8.2-27.32-2.27-66.77,13.66C184.67,413,143.7,392.56,90.59,435c-24.84,6.66-50.81,1.41-78.9,11.38-21.88,23.78-7.6,83.49,19.72,95.6,31.74-7.56,57.05-3.67,78.91-14.42,119.11,27.32,84.06-5.13,126.7-6.83,56.63-2.25,112.9,15,173-26.55,17.45-4,31-11.5,41.83-21.37,35.19,10.55,75.33-25.73,115.76-48.39C614.74,426.3,625.16,385.27,650.27,387.72Z"/>
  <g id="fatherTie">
    <path class="cls-1" d="M721.81,356.77c3.75-25.42,12.92-59.89,10.18-95.39-9.88,3.43-32.6,6.07-41.35,2.17h0c-1.29,37.82-12.21,69.94-18.75,95.15-76.22,293.89,43.24,341-3.83,477.62-3.78,11,28.64,67.3,35.17,68.52s77.55-49,78.53-62.24C793.66,682.45,677,659.92,721.81,356.77Z"/>
    <path class="cls-1" d="M746.86,191.14c-27.83,15-55.68,19.92-83.52,10.44,2.77,23.33,11.75,46.32,27.3,62,8.75,3.9,31.47,1.26,41.35-2.17C745.88,241,750.1,213,746.86,191.14Z"/>
  </g>
  <g id="fatherCollar">
    <path class="cls-1" d="M694.75,194.8c-16.9-14.51-29.57-28.49-25.48-40.42-25.15,14.24-16.31,57-23.68,102.63,13.26-30.44,8.16-76.94,22.1-76.11C674.11,181.28,679,191.7,694.75,194.8Z"/>
    <path class="cls-1" d="M694.75,194.8C706.48,160.27,810.83,136.92,819,39.47c4.36-5.35,48.77,37.32,49.49,44.18,5.23,49.51-69.69,108.54-91.3,156.18-36.83-27-41.69-52.51-57-58C711.08,178.62,705.5,192.68,694.75,194.8Z"/>
  </g>
  <path id="skinEastAsian" class="cls-1" d="M775.49.68,834.1,63.27c-24.2,69.31-71,112.78-139.35,131.53l-67.27-79.88"/>
  <g id="clothesOverlapLine-2" data-name="clothesOverlapLine">
    <path class="cls-1" d="M1135.72,314c-15.38,1.83-33.75-3.41-46.62-8.94"/>
  </g>
  <g id="clothesFoldLine-2" data-name="clothesFoldLine">
    <path class="cls-1" d="M147.72,424.38c-57,24.38-34.71,91,47.86,97.59"/>
    <path class="cls-1" d="M234.05,482.56c11.26-51.61,51.61-.94,96.65,16.89"/>
    <path class="cls-1" d="M326.54,372.07c-2.88,9-3.33,16.57-.53,22.29"/>
    <path class="cls-1" d="M366.75,354.62a37.49,37.49,0,0,0,18.94,44.52"/>
    <path class="cls-1" d="M410.76,328.82c-37.33,27.69-12.81,71.39,39.95,85.25"/>
    <path class="cls-1" d="M359,429c58.08,18.62,102.52,18.26,139.09,6.92"/>
    <path class="cls-1" d="M451.83,472.85c-60.28-.16-77.33-47.59-83.19,20.09"/>
    <path class="cls-1" d="M482.08,291.65c-63.88,39.81,29.38,116,121.57,99.5"/>
    <path class="cls-1" d="M567.59,424.46c-15.65-.44-29.45-2-40.15-5.6"/>
    <path class="cls-1" d="M528.51,312.81c31.42,20.61,67.25,34.44,107.11,42.1"/>
    <path class="cls-1" d="M555.37,252c-2.35,7.57-1.41,14.57-6.08,19.3"/>
    <path class="cls-1" d="M615.37,320.27c-57.55-34.1-18.11-33.57,26.12,3.2"/>
    <path class="cls-1" d="M865,444.55C842.39,493,813.34,540.47,765.36,560.9"/>
    <path class="cls-1" d="M839.7,528.58c-20,19.12-36.44,40.61-45.25,67.33"/>
    <path class="cls-1" d="M983.52,516.73c-31.06,67.6-68.68,120.64-116.35,151.37"/>
    <path class="cls-1" d="M867.26,719.71c12.84.1,28.46-2.06,43.54,7.1"/>
    <path class="cls-1" d="M896.8,684.26c96.42-119,123.35,7.54,1.08,89.41"/>
    <path class="cls-1" d="M1005.07,715c-16.7,43.09-66.26,73.8-25.86,84"/>
    <path class="cls-1" d="M917.39,824.28c27.89,6,60.65-10,58.05,10.26"/>
    <path class="cls-1" d="M1031.46,812.46c.54,30.16,25.32,9.15,16.16-31.78"/>
    <path class="cls-1" d="M1084.93,807.52c13.33-31.15,2-113,42.34-65.44"/>
    <path class="cls-1" d="M1171.38,751.61c-14.25-11.63-15.23-30.49-6.87-54.43"/>
    <path class="cls-1" d="M1257.16,680.48c-8.66-22.3-11.85-44.17.54-39.86"/>
    <path class="cls-1" d="M1260.4,583.53c-14.25,22.17-39.79,40.08-70.57,56"/>
    <path class="cls-1" d="M1230.08,526.48c-16,47.35-56.95,90.44.15,50.58"/>
    <path class="cls-1" d="M1201.68,516.19c-1.52,37.13-32.86,75.42-52.79,112.58"/>
    <path class="cls-1" d="M1186.59,455.1c-4.87,25.78-18.62,54.44-39.31,85.33"/>
    <path class="cls-1" d="M1152.12,480.1c-9.69,36.63-47.4,108.81-63,123.89"/>
    <path class="cls-1" d="M1106.88,334.12c1.35,60.91-8.27,115.91-31.25,163.76"/>
    <path class="cls-1" d="M1082.1,388c-5.92,36-24.78,66.26-43.09,96.42"/>
    <path class="cls-1" d="M937.74,292.65c-21,34.29-37.52,67.94-47.94,100.73"/>
    <path class="cls-1" d="M981.37,266.79c-21,39.59-39.79,77.34-46.87,105.58"/>
    <path class="cls-1" d="M1024.28,235.8c19.51,24.07,45.32,39.65,78.56,45.24"/>
    <path class="cls-1" d="M1101,183c13.26-21,35.17-36.18,61-48.7"/>
    <path class="cls-1" d="M1095.13,105.58c-38.8-10.24-111.32,37.51-95.36,54.8,7.92,8.58,22.63-17.6,39.6-19.48"/>
    <path class="cls-1" d="M1172.6,277.27c18.85,17,38.58,29,46,37.53"/>
    <path class="cls-1" d="M1319.51,345.16c-6.58-9.35-19.64-8.19-24.36-16.35-13.83-23.88,62.84-77.3,108.72-78.56"/>
    <path class="cls-1" d="M1154.37,185.52c-21.36,18.85,16.23,46.08,32.68,62.22,17.72,17.37,33.94,44.62,77.93,30.16"/>
    <path class="cls-1" d="M1476.77,366.51c-13.67,22.49-32.72,41.13-70.39,46.51"/>
    <path class="cls-1" d="M1556,411.14c11.31,19.48-15.71,71-44.62,76"/>
  </g>
  <g id="clothesBorderLine">
    <path class="cls-1" d="M90.59,435c-17.2,28.61-4.14,75.63,19.73,92.56"/>
    <path class="cls-1" d="M1505.76,538c18.64-2.49,90.48-54.73,93.53-75.48"/>
  </g>
</svg>
