<svg viewBox="0 0 138.19 472.4">
  <g class="chineseRedDark">
    <path d="M23.19,232.26c2.18-33.65,7.54-35.48,6.84-.44A33.6,33.6,0,0,0,23.19,232.26Z"/>
    <path d="M46.41,7C40.09.35,58.49-3.18,55.26,5Z"/>
  </g>
  <path class="ghostTail" d="M109.6,222.63c1.94,4,7.21,7.23,3.22,12.1a257.78,257.78,0,0,1,11.42,92.58c-1.33,25.51-20.1,49.4-47.38,73.17-5.94,4.22-2.55,9.79-8.13,11.66,2.38,1.88-.17,5.31-3.07,6.14C63,431.12,74,454.35,38.14,471.89c9.76-23.68-34.27-46.13-1.36-72.41,14-12.06,8.93-34.63,17.62-51.79,2.26-4.2-2.12-9.79,3.64-11.74-2.25-2.43-1.38-6.48.94-6.46-4.32-3.93,1.14-6.86-7.43-20.29C34.55,282.31,23,258.63,26,240.08c-3.74-6.79,4.14-3.66,3-25.72C59.46,197.47,87.56,193.68,109.6,222.63Z"/>
  <circle class="hairDarkGray" cx="42" cy="52.25" r="11.97"/>
  <path class="chineseTassel" d="M27.76,65.5c-.55,11-1.08,17.11-3.22,25.7a1.48,1.48,0,0,0,1.64.84c.69.85,1.3.59,2.07.35.8.74,1.17.64,2.08.19,1.05.31,1.49.18,1.87-.58a87.3,87.3,0,0,1,1.2-21.18Z"/>
  <g class="chineseRed">
    <path d="M98.54,105.89a17.84,17.84,0,0,1,7.72,6c1.44,1.77,4.62-.23,4.16,5.43,2,2.89,2.8,5.82,4,8.56,1,2.3,2.77,3.81,3.12,6.47a7.29,7.29,0,0,1,2.89,7.52c3.35,2.19,1.27,5.43,2.08,7.63,4.39,19.42,17.2,31,10.64,44.4-3.93,8-34.35,9.52-55.15,5Z"/>
    <path d="M25.14,206.19c5.68-1.76,2.38,2.31,3.64,27.36,7,2.71,39.94,3.92,48.65,1.45-2-38.11,4.72-43.5,5.33-.7,12.38-1.42,27.74-4.41,30-8.16,1.15-24.65-4.89-43.26-7.11-58.09-2.13-14.16-1.36-19.13-5.23-34.63.56-12.58.1-17.77-1.91-27.53a78,78,0,0,0-18.87-4.55L78,94.26c.67,10.11-12.64,9.44-12.37,15.87-1.44-5.76-20.48-4.24-25.71-16-1.68.81-2,7.72-2.75,9.18-10,2.25-21,7-26.1,12.06l13.56,68.39c-1.34,4,.49,6.16.6,9s-1.44,5.59.22,8.14c.31.48.12,2.43-.3,5.27"/>
    <path d="M.37,134.5c-1.18,5.4,6.57,20,12.42,33,6.54,14.56,27,37.89,38.44,37.69,6.16-.11,42.89-10.31,55.2-17,4.51-9.76-1.9-24.58-8.66-26.3-2.92,1.38-5.81,2.7-8.66,3.93-4.91-1.56-6.92,2.86-9,3.71-4.47,2.27-6.88-2.46-11,4.08-8.14-3-5.55,1.27-9.45,2.39-21.76-14.38-18.13-22.23-23.16-24.06,1.14-5.33-1.79-4.56-3-7.19-1.53-3.35-3.14-7.28-5.89-10.57a49.06,49.06,0,0,0-16.56-18.81c-.72.82-7,6.88-9,10.29C.36,128.43,1.11,131.11.37,134.5Z"/>
    <path d="M23.92,48.16C18,26,31,10.46,50.85,5.83,77.6-.42,92.54,11.53,93.58,32,81.52,26.92,39,29.73,23.92,48.16Z"/>
  </g>
  <path class="chineseBlack" d="M33.35,40.28C27,20.25,38.68,8.9,50.85,5.83c9.61.76,13.78,10.73,16.33,24.45C55.61,31.44,42.88,34.58,33.35,40.28Z"/>
  <g class="chineseTrim">
    <path d="M33.51,144.75c-1.53-3.35-3.14-7.28-5.89-10.57a49.06,49.06,0,0,0-16.56-18.81l1.6-1.43c11.5,8.18,18.1,18.57,21.87,32.18l-1-1.25Z"/>
    <path d="M101.67,138.67c-.34-1.62-.75-3.36-1.22-5.25.56-12.58.1-17.77-1.91-27.53l2.33,1.17c2.08,9.4,2.72,23.95.8,31.61Z"/>
    <path d="M69.62,118.94c2.34,7.65,3.06,15.43,4.47,23.08s3.49,16.79,3.83,24.47c0,1.26.11,2.48.17,3.67-1.83.22-3.34-.44-4.92-.1q-.09-1.6-.15-3.27c-.15-4.89-2.26-16.4-3.55-23.82-1.36-7.85-2-15.33-4.63-23.08-15.38,0-31-9.25-30-16h.06l2.24-.54C35,110,57,119.19,66.79,117.1c5.15-1.1,13.42-9.37,12.88-15.76l2.26.3.13,0C83.12,107.32,76.11,116.22,69.62,118.94Z"/>
    <path d="M31.46,231.37c9.17,2.39,33.51,3.26,43.76,1.25A219,219,0,0,0,76,199.3c1.48-.43,3-.88,4.47-1.34,1.2,9.84,2.74,19.3,4.67,33,10.05-.92,21.86-3.09,27.78-7.34,0,.83,0,1.68-.09,2.53-2.29,3.75-17.65,6.74-30,8.16-1.57-9.8-2.33-20.15-3.93-27.76.18,8.65.51,20.65-1.4,28.46-8.71,2.47-41.62,1.26-48.65-1.45L27.52,208.5a110.45,110.45,0,0,0-3.65,24.68,4.29,4.29,0,0,1-2.38-.42c.42-8.79,2.67-20,3.65-26.57C31.26,201.12,29.51,209.94,31.46,231.37Z"/>
    <path d="M26.1,59.31c-.89-.46-3.32-9.43-2.62-10.6,14.72-19,58.41-21.87,70.3-16.65,1,1.81,1.36,11,0,12.49C75.15,38,43.77,44,26.1,59.31Z"/>
  </g>
  <path class="clothesOverlapLine" d="M65.62,110.13c.73,2.27.65,4.78,1.17,7,2.78,8.86,3.68,17.5,5.06,25.13,1.59,8.84,3.35,16.8,3.62,24.4.53,14.38,2.88,28,3.36,39.91"/>
  <g class="clothesFoldLine">
    <path d="M105.87,125.32c-.45,5.73-1.71,10.54-4,14.15"/>
    <path d="M107.54,134.37c-1.56,2.83-3.38,4.88-5.54,5.87"/>
    <path d="M110.42,117.29c-.53,1.52-2.39,3.39-1.68,3.71"/>
    <path d="M117.59,132.32a3.36,3.36,0,0,0-2.6-.75"/>
    <path d="M120.48,139.84c-2-1.59-6.32-1.2-9.49.22"/>
    <path d="M109.73,148.77a16.36,16.36,0,0,0-5.65,5.93"/>
    <path d="M119.54,175.93c4.71,3.29,17.25,13.44,6,1.49"/>
    <path d="M110.49,174.13c4.43,2.76,9.13,11,9.89,14.68"/>
    <path d="M108.05,174.73a26.58,26.58,0,0,1,4.7,9.8"/>
    <path d="M89.11,165.82a7.37,7.37,0,0,0,3.85.54"/>
    <path d="M86.2,168.9c1.77,2.84.52,6.27-2,9.95"/>
    <path d="M83.06,169.93a12.21,12.21,0,0,1-6,.28"/>
    <path d="M72.67,173.44c1.14,5.12-.53,11.08-3.3,17.37"/>
    <path d="M59.67,176c-3.47,4.21-.58,19-7.12,22.6-1.65.9-1.79-2.33-.59-4.6"/>
    <path d="M54.09,176.14c-2.61,5.15-4.79,12.9-9.86,13.32"/>
    <path d="M41.09,178.05A16.93,16.93,0,0,0,33,183"/>
    <path d="M34.53,166.69A27.58,27.58,0,0,0,21,169.81"/>
    <path d="M35.55,155.89a22.07,22.07,0,0,0-10-5.15"/>
    <path d="M36.51,151.94c-7.25-5.39-15.38-7.24-24.08-6.85"/>
    <path d="M34.53,146.12c-2.11-.86-3.2-3.39-7.42-3.39"/>
    <path d="M27.62,134.18c-7.51-4-18-3.29-18.31-5-.54-2.54,2-2,6.75-.51"/>
    <path d="M66.43,213.13A23.93,23.93,0,0,1,50,223.85"/>
    <path d="M26,240.08a6.87,6.87,0,0,0,3.27,2.67"/>
    <path d="M112.82,234.73a5.6,5.6,0,0,1-2.22,1.48"/>
    <path d="M59,329.49c2.85,2.25,8,4.32,11.72,4.16"/>
    <path d="M58,336c2.55,2.59,7.11,5.65,10,6"/>
    <path d="M68.73,412.14a18.82,18.82,0,0,1-13.63-1.78"/>
    <path d="M65.66,418.28c-4.81,1.65-9.28.89-14-1.31"/>
  </g>
  <g class="clothesCreaseLine">
    <path d="M67.08,269.23a290.61,290.61,0,0,0,36.68-1.56"/>
    <path d="M65.8,273.9a173.19,173.19,0,0,0,28.76-1.13"/>
    <path d="M82.52,305.6c8.81,0,17.76-.45,26.83-1.25"/>
    <path d="M78.54,309.11a178.31,178.31,0,0,0,20.91-.47"/>
  </g>
  <g class="chineseTie">
    <path d="M77.75,122.45l0,3a150.69,150.69,0,0,0-17.88.45L59.77,123A113.72,113.72,0,0,0,77.75,122.45Z"/>
    <circle cx="68.55" cy="124.19" r="1.79"/>
    <path d="M82.21,147.15l.09,2.95a153.15,153.15,0,0,0-17.86.9l-.19-2.88A116,116,0,0,0,82.21,147.15Z"/>
    <circle cx="73.06" cy="149.11" r="1.79"/>
    <path d="M88.17,205.85l.09,3a151,151,0,0,0-17.86.9l-.19-2.89A114.85,114.85,0,0,0,88.17,205.85Z"/>
    <circle cx="79.02" cy="207.81" r="1.79"/>
  </g>
  <g class="skinEastAsian">
    <path d="M37.21,72.88c-3.94,2.38-6.18-.35-7.56-3.75-1.22-2.59-3.44-5.49-3.58-9.84l0,0c-.77-11.88,11.66-11.07,11.82-3.15C38.51,61.4,37.17,66.89,37.21,72.88Z"/>
    <path d="M72.73,103.11c-3.44,2.14-7.26,3.55-7.11,7-1.35-5.39-18.1-4.41-24.53-13.89.59-3.72.76-8.32,0-11.53Z"/>
  </g>
  <g class="eye">
    <circle class="sclera" cx="74.68" cy="63.43" r="16.34"/>
    <g class="irisDarkBrown">
      <ellipse cx="68.2" cy="62.45" rx="3.47" ry="2.99" transform="translate(-0.04 124.85) rotate(-84.92)"/>
      <ellipse cx="88.12" cy="64.3" rx="3.47" ry="2.23" transform="translate(16.27 146.38) rotate(-84.92)"/>
    </g>
    <g class="pupil">
      <ellipse cx="68.58" cy="62.48" rx="1.35" ry="1.16" transform="translate(0.27 125.26) rotate(-84.92)"/>
      <ellipse cx="88.56" cy="64.34" rx="1.35" ry="0.87" transform="translate(16.63 146.85) rotate(-84.92)"/>
    </g>
  </g>
  <g class="skinGhostLight">
    <path d="M99.07,162.38c4.39-2.08,9-10.31,16.5-12.68,2.64-.25,5.94-4.78,9.85-4.31,2.29.48,9,2.21,5.48,8.12,3.18.38,5.81,3.05,4.39,6.67,2.48.54,3.9,5.09,1.14,7.28,1.9,3.24-.19,7.67-4.19,5.29-19.23,7.73-18.31-1.53-25,2.4C105.9,169.34,102.63,164.17,99.07,162.38Z"/>
    <path d="M59.67,176c3.9-1.12,1.31-5.41,9.45-2.39A8.76,8.76,0,0,1,72,170.48c-9.7-4.81-13.1-10.63-17.23-10.15-5-1.05-6.56-3.8-14.65-3.32-4,.25-7.13,1.22-11.16,1.39-3.41,2.74.55,6.71,8.89,4.93-2.87,2.31-4.21,4.93-7,6.72-1.62,1.45.81,4.77,3.72,4-2.83,3.4,1.7,6.15,6.48,3.16-.33,3.16,4.21,4.69,9.47.65C53.92,174.82,55.46,176.93,59.67,176Z"/>
    <path d="M37.92,56.16a14.34,14.34,0,0,0,5.25,1.47c-.29-6.29,1.69-5.22,6.6-11.24,15.3-5.09,32.2-6,44-1.84-.37,7,1.37,13-.3,16.74C90,69,94.91,67.9,91.12,84.15c-2.25,9.63-6.57,10.31-10.41,15.44-3.5,4.7-11.11,4.08-16.76,1.49-7.89-3.62-28.14-8-26.74-28.2C37.17,66.89,38.51,61.4,37.92,56.16ZM70.56,63a7.17,7.17,0,0,0-4.49-1.91c-2-.16-3.37.35-5.78,1,3.79,2.24,6.24.95,9.68,1.39C70.36,63.54,71.24,63.62,70.56,63Zm13.19,1.71c.93,0,3.82,1.38,5.76.82A2.38,2.38,0,0,0,89.77,64s-1.7-1.53-6.34.25C83,64.46,83.09,64.74,83.75,64.72Z"/>
  </g>
  <g class="skinOverlapLine">
    <path d="M125,152.39c2.17-.69,3.76.82,5.91,1.12"/>
    <path d="M135.29,160.18c-1.53-.59-3.5-.19-5.23-.77"/>
    <path d="M131.32,165.36a15.1,15.1,0,0,1,5.11,2.1"/>
    <path d="M37.89,163.33c4.37-3.53,10.25-2.78,16.92-3"/>
    <path d="M52.22,165.06c-9-.62-13.61,6.8-17.65,8.95"/>
    <path d="M55.31,170.44c-7.24-.68-10.7,3.84-14.26,6.73"/>
  </g>
  <g class="skinFoldLine">
    <path d="M29.65,64.68c-5.23-11,5.2-16.26,6.33-5.88"/>
    <path d="M35.68,61.58c-2.13,2.1,1.16,4.64-1,5.27-1.34.39-.43-2.43-2.69-4.35s.12-6.26,1.75-4.2"/>
  </g>
  <path class="lipMaleMedium__noStroke" d="M79.09,85c-1.49.44-2.48.26-4.32-.78-1.87-.12-4.87,1.95-9.71,2.72,5.2,1.65,5.25,5,10.73,4.92,4.3-.09,3.82-2.87,5.69-4.35C80.23,86.51,79.88,85.11,79.09,85Z"/>
  <path class="lipBorderLine" d="M64.59,86.87a25.33,25.33,0,0,0,5.12-.58c4.93-.6,5.77.8,7.17.84,1.7.05,2.79-.85,4.65.41"/>
  <g class="lipEdgeLine">
    <path d="M74.77,84.18c1.84,1,2.83,1.22,4.32.78"/>
    <path d="M69.89,89.8c3.64,3,9.3,2.36,9.92-.17"/>
  </g>
  <g class="cheekLine">
    <path d="M62.65,87.3a20.61,20.61,0,0,1,4.21-8.14c1.33-1.54,2.44-3.52,3.69-4"/>
    <path d="M83.5,88.79a20.2,20.2,0,0,0-2-8.15"/>
  </g>
  <g class="noseLine">
    <path d="M70.55,75.13a2.68,2.68,0,0,0-.39,4.27"/>
    <path d="M81.16,72.49c2,4.33,2.84,9-2.12,8.61-3.2-.22-4.78-2.84-7.09-2"/>
  </g>
  <g class="eyeFoldLine">
    <path d="M89.91,67.5c-.82,1-3.77,1-5.74-.25"/>
    <path d="M69.15,65.65c-2.32,1.56-5.63,1-8.16-.57"/>
  </g>
  <g class="eyebrowDarkGray">
    <path d="M74.2,57.16c-3.11,1.83-5-1.11-9-2.66-4.36-1.71-9.91,1.58-9-.26C68.55,47.3,70.73,56.66,74.2,57.16Z"/>
    <path d="M94,59.1A8.48,8.48,0,0,1,93.56,61c-5-2.94-8.38.83-9.23-1.95C87.28,58.51,88.09,55.44,94,59.1Z"/>
  </g>
  <g class="fatherGlassesDisplayLine">
    <path d="M81,63.09c.6-5.75,12.61-4.14,15.49-1.64,2.32,2,.38,10.71-1.28,12.76-2.35,2.91-9.72,1.89-11.55.77C81.62,73.74,80.38,69,81,63.09Z"/>
    <path d="M76.16,62.66c.6-5.79-12.14-6.55-15.81-4.56-3,1.63-2.81,11.06-1.44,13.45,1.91,3.37,9.94,3.39,12.06,2.54C73.32,73.14,75.54,68.66,76.16,62.66Z"/>
    <path d="M76.16,62.66c.32-1,4.66-.56,4.85.43"/>
  </g>
  <g class="eyeCornerLine">
    <path d="M57.48,62.58a8.23,8.23,0,0,0,2.81-.48"/>
    <path d="M90.91,64.94A8,8,0,0,0,89.77,64"/>
  </g>
</svg>
