<svg viewBox="0 0 265.48 383.92">
  <path class="frameDarkFront" d="M265,16.07c-87.75-3.83-138.62-3.83-226.37,0,3.74,129.64,5.69,233.43,6.08,363.12l18.59.21C63,255.86,61.44,158.2,58.56,34.69c74.46-2.58,112-2.58,186.45,0-2.88,123.51-4.39,221.17-4.71,344.71l18.59-.21C259.28,249.5,261.23,145.71,265,16.07Z"/>
  <path class="doorDarkSide" d="M63.51,33.6A270.62,270.62,0,0,0,22.48,1C25.82,139.49,27.61,244.8,28,383.38q19.29-1.63,38.58-3.32C66.33,255.94,65.33,157.71,63.51,33.6Z"/>
  <path class="doorDarkFront" d="M13.14,383.17l14.88.21C27.61,244.8,25.82,139.49,22.48,1Q14.72,1.61,7,2.31C10.69,140.08,12.69,245.35,13.14,383.17Z"/>
  <path class="brassDarker" d="M13.94,213.76l10.73-.1q-.27-22.54-.58-45.08l-10.78.16Q13.64,191.26,13.94,213.76Z"/>
  <g class="brassDarkest">
    <path d="M15.42,183l7-.1-.1-7.34-7,.1C15.35,178.59,15.38,180.06,15.42,183Z"/>
    <path d="M15.69,203l7-.08c0-3.61-.07-5.41-.11-9l-7,.09C15.62,197.62,15.65,199.42,15.69,203Z"/>
  </g>
  <path class="bronzeDarker" d="M29.18,213.61l5.38-1.76q-.24-21-.5-42.09l-5.44-1.25Q28.92,191.07,29.18,213.61Z"/>
  <g class="bronzeMediumDark">
    <path d="M11.22,189.15c-8.3-2.77-10.74,5.64-10.72,10s4.39,11.79,11,8.39Z"/>
    <path d="M33.8,198.78c.78,4.41,3.55,11.65,9.44,9.79a9.87,9.87,0,0,0,7.78-10c.48-5.05-3.25-9.41-7.94-10.7C36.83,186.18,34.24,194.09,33.8,198.78Z"/>
    <path d="M32,179.11c0,2.89,1.12,5.23,2.42,5.21s2.34-2.37,2.3-5.27-1.12-5.24-2.43-5.22S32,176.21,32,179.11Z"/>
  </g>
  <g class="bronzeDark">
    <path d="M34.29,173.83l-2,0c-3.05,0-2.92,10.53.14,10.49l2,0C31.31,184.36,31.17,173.87,34.29,173.83Z"/>
    <path d="M11.3,194.24h-1c-.89,1.37-.8,7.41.12,8.67h1.07Z"/>
    <path d="M34.9,193.8l-3.71,0c-.88,1.43-.81,7.72.1,9l3.63,0A17.25,17.25,0,0,1,34.9,193.8Z"/>
  </g>
</svg>
