<svg viewBox="0 0 1498.63 298.01">
  <rect class="meadowNear" x="0.5" y="91.13" width="1497.63" height="206.38"/>
  <polygon class="fenceDark" points="1498.13 33.48 1461.56 18.39 1426.5 29.97 1392.87 15.56 1360.56 26.73 1329.5 12.95 1299.63 23.75 1270.88 10.53 1243.18 20.98 1216.48 8.29 1190.73 18.41 1165.87 6.2 1141.86 16.01 1118.66 4.25 1096.22 13.77 1074.52 2.44 1053.51 11.68 1033.16 0.73 1013.44 9.71 1013.44 260.15 1498.13 297.51 1498.13 33.48"/>
  <polygon class="fence" points="1013.44 260.2 1013.44 9.76 992.85 0.5 971.94 10.99 950.71 1.6 929.14 12.26 907.23 2.73 884.97 13.57 862.36 3.9 839.37 14.93 816.02 5.11 792.28 16.32 768.14 6.35 743.6 17.77 718.65 7.64 693.27 19.26 667.46 8.97 641.2 20.81 614.48 10.35 587.29 22.41 559.62 11.78 531.45 24.07 502.77 13.26 473.56 25.79 443.82 14.8 413.52 27.57 382.66 16.39 351.21 29.42 319.16 18.05 286.49 31.34 253.18 19.76 219.22 33.34 184.58 21.55 149.24 35.41 113.19 23.41 76.4 37.58 38.84 25.35 0.5 39.83 0.5 297.51 1013.44 260.2"/>
  <path class="bushCloser" d="M997.39,166.5c-5.14-9.72-16.83-5.59-18,6.11-6.35-5.45-14.36-.78-15.16,9.58.32-11.28-9.15-17.49-16-12.29,2.86-9.5-6.72-18.25-12.7-12.72,3.57-12-12.07-22.26-18.26-9.68-2-16.13-20.27-14.35-22.93-1.59-3.94-13.84-19.19-12.78-21.13,3.54-6.94-6.8-19.11,1-15.16,14-7.69-9.32-21.21-7.59-20.81,6-1.15-13.26-11.5-18.4-20.35-9.56.75-15.75-17.6-19.41-24.23-5.9,1-13.67-17.81-14.75-19.94-2.14-7.73-13-27-4.21-26.75,14.7-8.14-10.11-22.39-5.69-21.56,12.11-1.09-12.84-16-20-21.3-6.92-5.92-12.74-20.43-8.58-20.14,5.07-7.6-13.73-24.16-2-23.74,13.1-.41-12.46-11.36-15.08-16.75-7.19,1.52-18.51-23.07-22.75-26.85-6.84-7.39-8.67-19.7-4.52-22.36,6.52-10.28-6.83-23.53-.3-25.2,12.42-5-8.91-14.29-8.23-20.58.63,4.93-12.95-9.71-29.38-18.49-20.92,3.14-19.4-23.3-25.61-27-8.37-3.32-13.49-17.72-12.4-23.59-4.21-11.61-14.71-28.89-6.55-32,10.18-9.46-6.89-19.7,1.87-14.55,15.3-12.1-6.15-26.37,4.94-25.19,22.79-1.16-8.28-8.8-11.2-14.56-6.16-.71-17.24-17.66-23.45-29.22-12.57-7.38-15.28-23.64-13.7-29.87,2.49-7.6-6-18.66-1-20.27,9.67-8.23-7.77-20-2.28-23.42,10.59,4-18.33-11.73-27.61-23.31-20.89.95-20.83-28-22.61-33.51-4.38-5.38-10.58-17.9-8.38-20.1,2.44-13.4-17.39-33.75-8.66-37,10.2-11.82-9.47-25.68-2.68-27.17,12.83C145.88,199,127,195.07,119.62,207.9c5.38-15.55-16.86-26.07-23.23-16.66-4.47-19.3-32.36-17.11-36.09,2.07-7.68-11.32-21.82-6.75-25.08,6.75C22.1,187,3.49,197.89,4.59,216.5a14.23,14.23,0,0,0-4.09-1v82h359l653.9-37.31V172.39C1012.75,163.54,1002,156,997.39,166.5Z"/>
  <path class="bushFurther" d="M1498.12,297.51v-124a14.2,14.2,0,0,0-1.57,2.12c-11-19.31-27.11-11.36-30,8.31-8.57-9.38-17.75-.25-13.18,16.29-10.72-8.87-23.14,2.18-22.16,23.07-1-9.79-7.52-14.25-12.41-9.26-.56-19.92-14.67-29.13-24.12-18.27-5.92-18.06-18.79-18.14-23.68-1-5.85-7.56-14.29-3.35-15.52,8-6.17-9.45-14.91-5-17.42,8.37,3-19.14-8.46-30.85-16.74-25-.24-25.93-14.55-32.21-23.21-17.75-3.62-11.4-12-10.29-13.46.52-8.75-18.85-21.82-11.87-23.93,6.57-7.39-10.51-15.93-5.15-16.86,9.86.3-15.44-10.8-25.3-17-15.1,3.2-14.48-4.08-23.81-11.11-18-3.75-18.94-16.91-21.42-22.59-6.61-4.17-11-11.81-7.82-13.57,4.29-6.92-12.85-16.61-4.36-16.06,12.43-4.79-4.1-9.92,1.21-9,11.88-5.29-6-11.43-.55-11.17,11.77-.62-11.34-6.7-16.79-11.49-11.15-3.35-14.29-12.44-17.6-17.87-7.91-3.71-7-8.66-5.2-9.65,4.6-5.28-6.85-12.48-4.38-14.63,8.23.48-9.19-5-15.37-9.31-11.49-.27-16.74-8.24-22.41-14-15.31-1.72-15-15.8-18.22-17.66-.94-4.83-13.16-15.58-2.6-12.71,12.56-3.48-10.21-12.24-5-10.78,7.73-2.45-7.6-10.69-7.91-11.71.08v87.73l186.73,37.35Z"/>
</svg>
