<svg viewBox="0 0 310.42 527.08">
  <path class="frameExterior" d="M.51,4.2Q7.62,265.33,8.68,526.58H21.14Q20.06,271.75,14,17q141.17-6,282.43,0-6.19,254.76-7.15,509.6h12.46Q303,265.36,309.91,4.2,155.27-3.19.51,4.2Z"/>
  <path class="gateDark" d="M33.23,389.06c49.46-.42,92.54-43.35,92.4-92.9-.14-50.2-44.71-92.29-94.55-91.73Q32.45,296.76,33.23,389.06Z"/>
  <path class="mesh" d="M276.41,514.24q-121.2,1.46-242.39,0Q33,272,27.9,29.84q127.29-4.66,254.62,0Q277.35,272,276.41,514.24Z"/>
  <g class="gateLight">
    <path d="M72.51,28.44q3.38,243.11,4,486.22l-10.61-.09q-.76-242.93-4.52-485.84Z"/>
    <path d="M116.65,27.64q1.57,243.63,1.86,487.26l-10.62,0q-.4-243.54-2.39-487.07C110,27.72,112.19,27.69,116.65,27.64Z"/>
    <path d="M160.79,27.42q-.22,243.78-.27,487.54H149.9q0-243.77-.27-487.54Z"/>
    <path d="M204.93,27.79q-2,243.53-2.4,487.07l-10.62,0q.33-243.63,1.86-487.26C198.23,27.69,200.47,27.72,204.93,27.79Z"/>
    <path d="M249.06,28.73q-3.83,242.91-4.51,485.84l-10.62.09q.67-243.12,4-486.22Z"/>
    <path d="M278.05,302.06q-122.84-1.06-245.68,0c0-4.26-.07-6.39-.12-10.65q123-1.2,245.93,0C278.13,295.67,278.1,297.8,278.05,302.06Z"/>
    <path d="M296.43,17Q155.25,11,14,17q6.2,254.76,7.14,509.6H289.28Q290.38,271.75,296.43,17ZM34,514.24Q33,272,27.9,29.84q127.29-4.66,254.62,0-5.17,242.16-6.11,484.4Q155.21,515.7,34,514.24Z"/>
  </g>
  <path class="escutcheon" d="M60.42,316.63q-20.49.14-41,.3-.24-20.06-.52-40.11,20.57-.26,41.13-.46Z"/>
  <path class="knobMountLight" d="M31.89,296.74a8,8,0,1,0,7.92-8A8,8,0,0,0,31.89,296.74Z"/>
  <path class="knobLight" d="M71.64,300.35q-15.73.09-31.47.22a3.91,3.91,0,1,1-.18-7.81q15.87-.15,31.73-.28C73.66,292.5,73.57,300.37,71.64,300.35Z"/>
</svg>
