<svg viewBox="0 0 366.26 375.06">
  <path class="blinds" d="M23.74,330.32c106.21,.44,212.41,.44,318.62,0-.63-101.62,.73-203.24,4.22-304.79-108.99-4.15-218.07-4.15-327.07,0,3.49,101.55,4.86,203.17,4.22,304.79Z"/>
  <g class="blindsOverlapLine">
    <path d="M346.04,41.56c-108.63-3.9-217.34-3.9-325.97,0"/>
    <path d="M346.58,25.52c-108.99-4.15-218.07-4.15-327.07,0"/>
    <path d="M345.53,57.6c-108.3-3.65-216.66-3.65-324.95,0"/>
    <path d="M345.05,73.64c-107.98-3.41-216.02-3.41-324.01,0"/>
    <path d="M344.62,89.67c-107.69-3.16-215.44-3.16-323.13,0"/>
    <path d="M344.22,105.71c-107.43-2.91-214.9-2.91-322.33,0"/>
    <path d="M344.62,89.67c-107.69-3.16-215.44-3.16-323.13,0"/>
    <path d="M343.85,121.75c-107.19-2.67-214.41-2.67-321.6,0"/>
    <path d="M343.52,137.79c-106.97-2.43-213.98-2.43-320.95,0"/>
    <path d="M343.23,153.83c-106.78-2.18-213.58-2.18-320.36,0"/>
    <path d="M342.98,169.87c-106.61-1.94-213.24-1.94-319.85,0"/>
    <path d="M342.76,185.92c-106.47-1.7-212.95-1.7-319.41,0"/>
    <path d="M342.42,218c-106.25-1.22-212.5-1.22-318.74,0"/>
    <path d="M342.57,201.96c-106.34-1.46-212.7-1.46-319.04,0"/>
    <path d="M342.31,234.04c-106.17-.98-212.35-.98-318.52,0"/>
    <path d="M342.23,250.09c-106.12-.74-212.24-.74-318.36,0"/>
    <path d="M342.19,266.13c-106.09-.5-212.18-.5-318.27,0"/>
    <path d="M342.18,282.18c-106.09-.26-212.17-.26-318.26,0"/>
    <path d="M342.26,314.27c-106.14,.21-212.29,.21-318.43,0"/>
    <path d="M342.27,316c-106.15,.23-212.3,.23-318.45,0"/>
    <path d="M342.28,317.74c-106.16,.26-212.31,.26-318.47,0"/>
    <path d="M342.2,298.22c-106.1-.03-212.21-.03-318.31,0"/>
  </g>
  <path class="rail" d="M23.81,319.47c106.16,.28,212.32,.28,318.48,0,.02,4.34,.04,6.51,.07,10.84-106.21,.44-212.41,.44-318.62,0,.03-4.34,.04-6.51,.07-10.84Z"/>
  <path class="paneStill" d="M340.98,31.9c-50.02-4.23-264.86-4.18-315.86,0,3.44,104.51,4.62,209.09,3.7,313.66,49.29,1.34,259.16,1.36,308.45,0-.92-104.57,.26-209.15,3.7-313.66Zm1.66,320.13c-106.34,.79-212.68,.79-319.02,0,1.09-108.83-.18-217.67-3.99-326.42,108.97-4.27,218.02-4.27,326.99,0-3.8,108.75-5.08,217.59-3.99,326.42Z"/>
  <path class="glassClear" d="M340.98,31.9c-50.02-4.23-264.86-4.18-315.86,0,3.44,104.51,4.62,209.09,3.7,313.66,49.29,1.34,259.16,1.36,308.45,0-.92-104.57,.26-209.15,3.7-313.66Z"/>
  <path class="frameExterior" d="M342.64,352.04c-106.34,.79-212.68,.79-319.02,0,1.09-108.83-.18-217.67-3.99-326.42,108.97-4.27,218.02-4.27,326.99,0-3.8,108.75-5.08,217.59-3.99,326.42ZM365.74,4.79C244.04-.93,122.22-.93,.52,4.79,5.74,127.61,7.32,250.58,5.54,373.53c118.39,1.38,236.79,1.38,355.17,0-1.77-122.95-.2-245.92,5.02-368.74Z"/>
</svg>