<svg viewBox="0 0 325.77 551.11">
  <path class="frameDarkFront" d="M299.68,26.32C191.7,19.08,108.46,19.38,.52,27.17,7.27,201.59,9.85,371.14,8.84,545.68c1.26,.05,2.51,.11,3.77,.16,6.34,.18,12.69,.34,19.03,.5,.84-167.68-1.15-330.37-6.38-497.97,91.52-5.23,158.19-5.46,249.73-.67-4.85,168-6.73,331.07-6.06,499.14,6.34-.13,12.69-.28,19.03-.43,1.26-.05,2.51-.1,3.77-.15-.84-175.01,1.62-345.04,7.95-519.94Z"/>
  <path class="doorDarkFront" d="M255.81,48.46c15.25-15.86,30.6-31.6,46.1-47.22-4.1,184.75-6.7,364.54-7.24,549.33-15.08-.98-30.16-2-45.23-3.05,1.08-168.03,3.33-331.06,6.38-499.07Z"/>
  <path class="doorDarkSide" d="M312.14,550.4l-17.47,.18c.54-184.8,3.13-364.58,7.24-549.33,5.8,.44,11.61,.89,17.41,1.34-4.29,183.81-6.86,363.95-7.18,547.81Z"/>
  <path class="brassDarker" d="M311.61,276.67c-4.12,.02-8.24,.04-12.35,.05,.09-6.79,.18-13.58,.28-20.37,4.12,0,8.23-.02,12.35-.03-.09,6.78-.18,13.56-.28,20.34Z"/>
  <path class="brassDarkest" d="M309.51,270.95c-3.2,.01-4.8,.02-8,.03,.05-3.43,.07-5.14,.12-8.57,3.2,0,4.8-.01,8-.02-.05,3.43-.07,5.14-.12,8.56Z"/>
  <g class="bronzeDarker">
    <path d="M314.16,279.91c-.02,1.54-.04,3.08-.06,4.62,7.42,.4,6.89,11.35,6.82,16.34-.06,5.16,.17,15.86-7.22,16.44-.02,1.54-.03,3.08-.05,4.62,10.22-1.07,11.47-12.84,11.61-21.09,.12-7.75-.83-20.44-11.1-20.94Z"/>
    <path d="M294.03,278.6c-2.48-.36-3.72-.54-6.2-.9,.1-7.55,.2-15.11,.31-22.66,2.49-.29,3.73-.44,6.22-.73-.11,8.1-.22,16.19-.33,24.29Z"/>
  </g>
  <g class="bronzeDark">
    <path d="M319.13,260.53c-1.92-.28-3.2-.47-4.69-.7-.06,4.55-.13,9.1-.19,13.65,1.5-.24,2.79-.44,4.72-.75,4-.62,4.39-11.61,.17-12.21Z"/>
    <path d="M289.43,274.31c1.82,0,3.35-3.4,3.41-7.59,.06-4.18-1.37-7.57-3.2-7.56-1.15,0-1.72,0-2.86,0-.07,5.05-.14,10.1-.21,15.16,1.15,0,1.72,0,2.86-.01Z"/>
    <path d="M284.79,259.27c1.3,0,1.95,0,3.24,0,.39,3.31,.58,4.97,.97,8.28-.47,2.73-.7,4.09-1.17,6.82-1.3,0-1.95,0-3.24,.01,.07-5.03,.13-10.07,.21-15.1Z"/>
  </g>
  <g class="bronzeMediumDark">
    <path d="M288.1,259.81c.34,2.95,.54,4.6,.9,7.72-.42,2.47-.66,3.82-1.04,6.08,1.15-1.21,1.97-3.83,2.01-6.88,.04-3.09-.73-5.74-1.87-6.92Z"/>
    <path d="M284.59,274.37c.47-2.73,.7-4.1,1.17-6.83-.39-3.31-.58-4.97-.97-8.28-.43,0-.65,0-1.08,0-.48,3.31-.72,4.97-1.19,8.29,.4,2.73,.59,4.09,.99,6.82,.43,0,.65,0,1.08,0Z"/>
  </g>
</svg>