<svg viewBox="0 0 1363.64 261.17">
  <polygon class="fence" points="1362.84 260.67 1362.84 16.45 1336.64 0.5 1310.44 16.45 1284.24 0.5 1258.04 16.45 1231.84 0.5 1205.64 16.45 1179.44 0.5 1153.24 16.45 1127.05 0.5 1100.85 16.45 1074.65 0.5 1048.45 16.45 1022.25 0.5 996.05 16.45 969.85 0.5 943.65 16.45 917.46 0.5 891.26 16.45 865.06 0.5 838.86 16.45 812.66 0.5 786.46 16.45 760.26 0.5 734.07 16.45 707.87 0.5 681.67 16.45 655.47 0.5 629.27 16.45 603.07 0.5 576.87 16.45 550.67 0.5 524.48 16.45 498.28 0.5 472.08 16.45 445.88 0.5 419.68 16.45 393.48 0.5 367.28 16.45 341.08 0.5 314.88 16.45 288.69 0.5 262.49 16.45 236.29 0.5 210.09 16.45 183.89 0.5 157.69 16.45 131.49 0.5 105.3 16.45 79.1 0.5 52.9 16.45 26.7 0.5 0.5 16.45 0.5 260.67 1362.84 260.67"/>
  <path class="bushCloser" d="M1363.14,170.1c-1.79-9.22-15.71-17.25-22.79-5.24-6.78-9.85-22.19-6.16-23.73,5.39-8.32-5.63-18.8-1.31-19.86,8.89.45-11.13-11.85-17.6-20.8-12.74,3.72-9.24-8.63-18.17-16.33-12.94,4.62-11.7-15.4-22.18-23.34-10.07-2.54-15.8-25.64-14.57-29-2.25-4.93-13.55-24-12.94-26.5,2.77-8.62-6.77-23.73.38-18.87,13-9.48-9.22-26.11-8-25.66,5.06-1.38-12.74-14-18-24.8-9.83.94-15-21.24-19-29.25-6.37,1.23-12.94-21.26-14.48-23.82-2.63-9.14-12.46-31.94-4.76-31.66,13-9.52-9.74-26.16-6-25.23,10.59-1.24-12-18.49-16.33-24.65-4.31-6.78-12-23.41-8.63-23.1,4-8.63-12.94-27.42-5.54-27,8.39-.43-11.47-12.76-14.24-18.82-7.19,1.75-16.91-25.67-21.53-29.89-7.15-8.15-8.13-21.71-4.74-24.65,5.17-11.23-6.53-25.66-1.06-27.5,10.33-.62-14.48-9.3-16.86-23.15-14.78,8-13.17-9.82-25-18.75-18.49,3.39-17.25-24.65-23.41-28.63-8.2-3.46-12-18.56-11.43-24.7-4.33-12-13.26-29.9-6.48-33.15,8.12-9.69-6.29-20.17,1.11-14.94,13-12.31-5.72-26.79,3.52-25.64,19.08-1.15-7.24-8.85-10-14.65-5.83-.67-15-17.62-20.82-29.13-11.76-7.28-13.37-23.3-12.45-29.45,1.25-7.4-5.38-18.19-1.38-19.78,7.65-8-6.87-19.36-2.56-22.65,8.26,3.91-15.44-11.19-23.75-22.26-18.4-.32-20.76-19.73-24.76-31.65-12.37-5-9-16.73-7.46-18.8,1.52-12.41-14.84-31.2-8.06-34.27,7.48-10.8-8.15-23.43-2.91-24.81,9.83.46-13.05-16.18-20.44-25.66-11.22,4.86-12.61-6.23-20-17.06-14.45-5.81-16-26.45-17.26-35.47-3.93-6.69-9.33-19-5.94-21.87,4.87-11.31-10.81-27.33-2.49-26.42,12.44-8-3.22-16.62,2-15.07,11.5-9-4.86-19.42.68-19,11.81-1.06-10.2-11.53-14.52-19.85-8.89-5.85-12.71-21.87-14.87-31.55-5.39-6.65-6.09-15.59-3.93-17.38,5.28-9.6-5.83-22.85-2.74-26.83,9.35.9-8.71-9.27-13.94-17.4-9.8-.5-15.85-15.59-20.47-26.7-13.11-3.32-14.22-30.74-16.07-34.41.89C65.24,135,43.67,146.38,49.47,161c-7-9.65-24.9-3.49-21.91,8.9-11-9-27.07-.29-26.95,14.59v76.22H1362.84Z"/>
</svg>
