<svg viewBox="0 0 127.56 456.33">
  <path class="ironDarkest" d="M112.26,11.28c4.93,.98,9.86,1.96,14.79,2.95-2.76,146.27-4.86,292.55-6.49,438.84-4.45,.88-8.9,1.76-13.35,2.65,1.21-148.15,2.84-296.3,5.06-444.44Z"/>
  <path class="ironDark" d="M53.65,.7c10.56-.82,19.9,.85,29.76,4.89,9.57,3.92,18.58,5.8,28.85,5.69-2.21,148.14-3.85,296.29-5.06,444.44-33.57-6.96-67.19-13.58-100.87-19.86C4.42,300.45,2.48,165.05,.51,29.65,20.6,25.42,33.28,3.86,53.65,.7Z"/>
  <g class="ironDarkest">
    <path d="M53.66,18.34c9.49,.06,18.08,1.48,26.85,5.26,7.01,3.02,13.86,5.35,21.39,6.51-.66,54.82-1.25,109.65-1.79,164.48-29.68,.39-59.36,1.14-89.03,2.23-.63-50.87-1.26-101.75-1.89-152.62,7.52-.81,13.73-7.32,19.11-12.4,7.12-6.71,15.93-11.82,25.36-13.47Z"/>
    <path d="M100.15,212.91c-29.62-.04-59.24,.26-88.86,.91,.84,68.2,1.69,136.41,2.54,204.61,28.25,4.79,56.45,9.82,84.62,15.1,.47-73.54,1.03-147.08,1.7-220.62Z"/>
  </g>
  <g class="ironDarker">
    <path d="M54.7,20.32c9.3,.06,17.72,1.45,26.31,5.15,6.87,2.96,13.49,5.23,20.87,6.37-.64,53.73-1.23,107.47-1.75,161.2-29.09,.39-58.08,1.11-87.16,2.19-.62-49.86-1.23-99.71-1.85-149.57,7.37-.79,13.45-7.17,18.73-12.15,6.98-6.58,15.62-11.59,24.86-13.2Z"/>
    <path d="M100.14,214.26c-29.03-.04-57.94,.26-86.96,.89,.83,66.84,1.66,133.68,2.49,200.52,27.68,4.69,55.2,9.61,82.81,14.78,.46-72.07,1.02-144.12,1.67-216.19Z"/>
  </g>
</svg>