<svg viewBox="0 0 457.46 379.45">
  <path class="sill" d="M2.01,377.81c151.14,1.52,302.3,1.52,453.44,0-.16-8.65-.3-17.29-.43-25.94-150.86,1.03-301.73,1.03-452.59,0-.13,8.65-.27,17.29-.43,25.94Z"/>
  <path class="frameFront" d="M450.29,351.9c-1.53-115.74,.59-231.49,6.64-347.11C304.85-.93,152.61-.93,.53,4.79,6.58,120.41,8.7,236.16,7.17,351.9c7.41,.05,14.82,.09,22.23,.14,1.28-108.83-.31-217.67-5-326.42,136.19-4.27,272.48-4.27,408.66,0-4.69,108.75-6.29,217.59-5,326.42,7.41-.04,14.82-.09,22.23-.14Z"/>
  <path class="paneStill" d="M24.4,25.61c68.17-2.14,136.36-3.25,204.57-3.29,0,110.09,0,220.19,0,330.28-66.52,0-133.04-.17-199.56-.57,1.28-108.83-.31-217.67-5-326.42Zm11.7,319.95c62.24,.31,124.48,.46,186.72,.46,.03-105.71-.01-211.41-.14-317.12-63.76,.1-127.5,1.11-191.22,3,4.24,104.51,5.73,209.08,4.65,313.66Z"/>
  <path class="paneSliding" d="M228.97,22.32c68.05,.05,136.08,1.16,204.09,3.29-4.69,108.75-6.29,217.59-5,326.42-66.36,.39-132.73,.58-199.09,.57,0-110.09,0-220.19,0-330.28Zm11.33,318.44c58.76,0,117.52-.13,176.27-.39-.94-101.16,.47-202.31,4.38-303.41-60.11-1.7-120.24-2.64-180.38-2.79-.24,102.19-.33,204.39-.27,306.58Z"/>
  <g class="glassClear">
    <path d="M416.58,340.37c-58.76,.26-117.52,.38-176.27,.39-.06-102.19,.03-204.39,.27-306.58,60.14,.15,120.27,1.09,180.38,2.79-3.91,101.1-5.32,202.25-4.38,303.41Z"/>
    <path d="M222.82,346.02c-62.24,0-124.48-.15-186.72-.46,1.08-104.57-.41-209.15-4.65-313.66,63.72-1.89,127.47-2.89,191.22-3,.13,105.71,.18,211.41,.14,317.12Z"/>
  </g>
  <path class="blinds" d="M26.3,73.91c134.93-3.49,269.93-3.49,404.86,0,.57-16.1,1.21-32.2,1.9-48.29-136.19-4.27-272.48-4.27-408.66,0,.69,16.09,1.33,32.19,1.9,48.29Z"/>
  <g class="blindsOverlapLine">
    <path d="M432.38,41.65c-135.74-4.01-271.57-4.01-407.31,0"/>
    <path d="M431.94,57.88c-135.32-3.75-270.71-3.76-406.03-.01"/>
    <path d="M431.87,59.61c-135.28-3.73-270.63-3.73-405.9-.01"/>
    <path d="M431.81,61.34c-135.23-3.7-270.54-3.7-405.77-.01"/>
  </g>
  <path class="rail" d="M26.1,63.07c135.19-3.66,270.45-3.66,405.64,.01-.16,4.33-.24,6.5-.39,10.83-134.93-3.5-269.93-3.5-404.86-.01-.15-4.33-.23-6.5-.39-10.83Z"/>
</svg>