<svg viewBox="0 0 269.96 520.19">
  <path class="frameSide" d="M210.79,29.49Q239.9,14.62,269.42.81C261,173.42,260,346.34,262.31,519.17c-2.3-1.75-3.45-2.62-5.75-4.35C253.87,351.53,254.22,188.16,261,25q-23.18,9.39-46.15,19.39c-2.67,147.89-.19,295.81,4.92,443.61l-3.56-2.51C210.68,333.58,208,181.52,210.79,29.49Z"/>
  <path class="doorFront" d="M219.05,43.23Q115.27,29.54,11.09,19q3.5,246.71,14.67,493.22,96.84-13.39,194.06-23.84Q216.51,265.82,219.05,43.23Z"/>
  <path class="doorSide" d="M15.66,508.89l10,2.89q-10.84-246-14.55-492.2L.51,23Q4.37,266.06,15.66,508.89Z"/>
  <path class="brassDarker" d="M8.87,302.6l7.24.13q-.82-25.75-1.59-51.51l-7.29.21Q8,277,8.87,302.6Z"/>
  <g class="brassDarkest">
    <path d="M9,267.65l4.71-.07c-.11-3.35-.16-5-.26-8.38l-4.71.1C8.85,262.64,8.9,264.31,9,267.65Z"/>
    <path d="M9.73,290.44l4.7,0c-.13-4.12-.2-6.18-.32-10.3l-4.71,0C9.53,284.29,9.6,286.34,9.73,290.44Z"/>
  </g>
  <g class="bronzeDarker">
    <path d="M115.86,129.44c0,3.16,2.29,5.86,5,6.05s5-2.22,5-5.36-2.27-5.85-5-6S115.84,126.28,115.86,129.44Z"/>
    <path d="M41.78,302.14l-15.27.47q-.8-25.75-1.52-51.49l15.4-.08Q41.05,276.58,41.78,302.14Z"/>
  </g>
  <path class="glassDarkest" d="M118.09,129.59a3.29,3.29,0,0,0,2.8,3.37,2.74,2.74,0,0,0,2.76-3,3.29,3.29,0,0,0-2.8-3.37A2.74,2.74,0,0,0,118.09,129.59Z"/>
  <path class="bronzeDark" d="M34.2,257.19H32.89c-3,0-5.31,2.73-5.21,6s2.57,5.94,5.53,5.9l1.31,0C34.39,264.34,34.33,262,34.2,257.19Z"/>
  <g class="bronzeMediumDark">
    <path d="M49.81,285.22c.64,6.21-4.66,11.65-10.52,12.42-6.53.66-10.75-6.43-11.33-11.95.25-5.53,4.15-12.93,10.64-12.45C44.46,273.68,50.11,279,49.81,285.22Z"/>
    <path d="M39.74,263.09c.08,3.29-2.23,6-5.18,6s-5.45-2.6-5.54-5.9,2.24-6,5.21-6S39.65,259.81,39.74,263.09Z"/>
  </g>
</svg>
