<svg viewBox="0 0 60.79 520.19">
  <path class="frameSide" d="M1.63,29.49Q30.75,14.62,60.25.81c-8.43,172.61-9.45,345.53-7.11,518.36-2.29-1.75-3.44-2.62-5.74-4.35C44.71,351.53,45.05,188.16,51.83,25Q28.66,34.39,5.68,44.39C3,192.28,5.49,340.2,10.6,488L7,485.49C1.52,333.58-1.19,181.52,1.63,29.49Z"/>
  <path class="doorSide" d="M5.68,44.39q23-10,46.15-19.39c-6.77,163.1-7.12,326.43-4.44,489.66Q29.15,501.05,10.6,488C5.49,340.2,3,192.28,5.68,44.39Z"/>
  <g class="bronzeDarker">
    <path d="M43.39,299.39l-6.27-1.81q0-21.68.12-43.34l6.43-1.32Q43.47,276.16,43.39,299.39Z"/>
    <path d="M26.73,137.85c0,3-1.25,5.4-2.69,5.41s-2.59-2.41-2.56-5.4,1.25-5.4,2.7-5.41S26.78,134.86,26.73,137.85Z"/>
  </g>
  <path class="glassDarkest" d="M25.57,137.85c0,1.66-.7,3-1.51,3s-1.44-1.34-1.42-3,.7-3,1.51-3S25.59,136.19,25.57,137.85Z"/>
  <g class="bronzeDark">
    <path d="M40.82,288.32q-6.51-.06-13-.05c0-3.72,0-5.58,0-9.3q6.56,0,13.09,0C41.9,280.48,41.87,287,40.82,288.32Z"/>
    <path d="M39.56,270.12c1.78,0,3.24-2.78,3.27-6.25s-1.41-6.29-3.2-6.3l-2.81,0c0,4.19,0,8.37-.06,12.56Z"/>
    <path d="M34.19,257.57h3.15l1,6.9c-.43,2.27-.64,3.41-1.07,5.67H34.14Q34.16,263.86,34.19,257.57Z"/>
  </g>
  <g class="bronzeMediumDark">
    <path d="M37.85,284.12c.48,6.15-5.15,10.47-10.87,10.14a10.19,10.19,0,0,1-9.26-10.15c-.25-5.32,3.41-10.81,9.11-11.11C32.93,272.68,39,277.5,37.85,284.12Z"/>
    <path d="M37.35,257.65c.39,2.71.59,4.09,1,6.83-.42,2.22-.63,3.36-1,5.54,1.53-.49,2.7-3.06,2.72-6.17S38.88,258.15,37.35,257.65Z"/>
    <path d="M34.14,270.14c.42-2.27.63-3.4,1.06-5.67-.4-2.76-.61-4.14-1-6.9h-1c-.44,2.76-.65,4.14-1.08,6.9.41,2.27.62,3.41,1,5.68Z"/>
  </g>
</svg>
