<svg viewBox="0 0 364 424.1">
  <g class="frameDarkFront">
    <path d="M22.99,24.86c106.01-2.74,212.02-2.75,318.03,0-2.45,124.79-2.45,249.59,0,374.37-106.01,2.74-212.02,2.74-318.03,0,2.45-124.79,2.45-249.59,0-374.37ZM.51,420.61c120.98,3.99,241.99,3.99,362.97,0-3.49-139.03-3.49-278.08,0-417.11C242.5-.5,121.49-.5,.51,3.5c3.49,139.03,3.49,278.08,0,417.11Z"/>
    <path d="M175.42,401.38c5.26,0,7.9,0,13.16,0-.1-126.22-.1-252.44,0-378.66-5.26,0-7.9,0-13.16,0,.1,126.22,.1,252.44,0,378.66Z"/>
  </g>
  <g class="patinaDark">
    <path d="M22.99,24.86c2.45,124.79,2.45,249.59,0,374.37,50.8,1.32,101.61,2.03,152.43,2.15,.1-126.22,.1-252.44,0-378.66-50.82,.11-101.63,.83-152.43,2.15Zm115.98,22.82c4.86-.03,7.3-.04,12.16-.07,.04,10.34,.07,20.68,.1,31.03-4.85,.02-7.27,.03-12.12,.05-.04-10.34-.08-20.68-.13-31.01Zm.16,37.22c4.85-.02,7.27-.03,12.11-.05,.03,10.34,.05,20.68,.07,31.03-10.07,.03-20.14,.07-30.22,.12-.02-4.96-.03-7.44-.05-12.39,7.26-.04,10.89-.06,18.14-.09-.02-7.44-.04-11.16-.06-18.61Zm-6.06,254.27c-4.85-.03-7.27-.04-12.11-.08,.03-4.96,.04-7.44,.06-12.39,4.84,.03,7.26,.04,12.1,.07-.02,4.96-.03,7.44-.05,12.4Zm6.06,.03c.03-7.44,.04-11.16,.06-18.61-7.26-.03-10.89-.05-18.14-.09,.02-4.96,.03-7.44,.05-12.39,10.07,.06,20.14,.1,30.22,.12-.02,10.34-.04,20.68-.07,31.03-4.85-.02-7.27-.03-12.11-.05Zm12.1,6.26c-.03,10.34-.06,20.68-.1,31.03-4.86-.02-7.3-.04-12.16-.07,.05-10.34,.09-20.68,.13-31.01,4.85,.03,7.27,.04,12.12,.05Zm-35.97-117.92c0,7.43,0,11.15-.02,18.59-10.04-.02-20.09-.05-30.13-.08,.02-7.42,.02-11.13,.03-18.54-7.23-.01-10.84-.02-18.07-.03,.01-10.28,.01-20.57,0-30.85,7.23-.01,10.84-.02,18.07-.03,0-7.42-.01-11.13-.03-18.54,10.04-.03,20.09-.06,30.13-.08,.01,7.43,.02,11.15,.02,18.59,7.23,0,10.84,0,18.07-.01,0,10.33,0,20.67,0,31-7.23,0-10.84,0-18.07-.01Zm-12.26,74.27c.02-4.95,.03-7.43,.06-12.38,4.83,.03,7.24,.04,12.07,.06-.02,4.96-.03,7.43-.05,12.39-4.83-.03-7.25-.04-12.08-.07Zm12.06,6.27c-.02,4.96-.03,7.43-.06,12.39-4.84-.03-7.26-.05-12.1-.09,.03-4.95,.04-7.43,.07-12.38,4.83,.03,7.25,.05,12.09,.08Zm-11.98-24.84c.02-4.95,.03-7.43,.04-12.38,4.83,.02,7.24,.03,12.06,.05-.01,4.96-.02,7.43-.04,12.39-4.83-.02-7.24-.03-12.07-.06Zm.06-18.57c.01-4.95,.02-7.43,.03-12.38,4.82,.01,7.23,.02,12.06,.03,0,4.96-.01,7.43-.03,12.39-4.82-.02-7.24-.02-12.06-.04Zm-18.26,37.01c.03-4.94,.04-7.42,.07-12.36,4.83,.03,7.24,.05,12.07,.08-.02,4.95-.03,7.42-.06,12.37-4.83-.03-7.25-.05-12.08-.09Zm12.05,6.28c-.03,4.95-.04,7.42-.07,12.37-4.84-.04-7.26-.06-12.1-.11,.04-4.94,.05-7.42,.08-12.36,4.83,.04,7.25,.06,12.09,.1Zm-11.95-24.82c.02-4.94,.03-7.42,.05-12.36,4.83,.03,7.24,.04,12.06,.06-.02,4.95-.03,7.42-.05,12.37-4.83-.03-7.24-.04-12.07-.07Zm.08-18.54c.02-4.94,.02-7.42,.04-12.36,4.82,.02,7.23,.03,12.06,.04-.01,4.95-.02,7.42-.03,12.37-4.82-.02-7.24-.03-12.06-.05Zm-36.28,18.27c.03-4.93,.05-7.39,.07-12.31,10.05,.07,20.1,.14,30.16,.19-.02,4.94-.03,7.41-.06,12.36-10.06-.07-20.12-.14-30.17-.23Zm30.14,6.41c-.03,4.94-.04,7.41-.07,12.36-10.07-.08-20.14-.18-30.2-.29,.04-4.93,.06-7.39,.09-12.31,10.06,.1,20.12,.18,30.18,.25Zm-30.04-24.88c.05-10.26,.09-20.52,.1-30.79,4.82,.01,7.23,.02,12.05,.03-.01,7.4-.02,11.1-.05,18.5,7.23,.03,10.85,.05,18.08,.08-.01,4.94-.02,7.41-.04,12.36-10.05-.05-20.1-.11-30.15-.17Zm12.11-92.42c.02,7.4,.03,11.1,.05,18.5-4.82,.01-7.23,.02-12.05,.03-.02-10.26-.05-20.52-.1-30.79,10.05-.07,20.1-.12,30.15-.17,.02,4.94,.03,7.41,.04,12.36-7.23,.03-10.85,.04-18.08,.08Zm18.1,6.1c.01,4.94,.02,7.41,.02,12.35-4.82,0-7.23,.02-12.05,.03,0-4.94-.01-7.4-.03-12.34,4.82-.02,7.23-.03,12.05-.04Zm-18.04,18.56c0,4.93,0,7.4,0,12.33-4.82,0-7.23,0-12.05,0,0-4.93,0-7.39-.01-12.31,4.82,0,7.23-.01,12.05-.02Zm0,18.5c0,4.93,0,7.4,0,12.33-4.82,0-7.23-.01-12.05-.02,0-4.93,0-7.39,.01-12.31,4.82,0,7.23,0,12.05,0Zm5.98,30.85c.01-4.94,.02-7.4,.03-12.34,4.82,.01,7.23,.02,12.05,.03,0,4.94-.01,7.41-.02,12.35-4.82-.02-7.23-.02-12.05-.04Zm-6.64-160.34c.08,7.4,.11,11.1,.18,18.5,7.26-.09,10.89-.13,18.14-.2,.04,4.94,.06,7.41,.09,12.36-10.07,.09-20.14,.19-30.22,.31-.09-10.26-.19-20.52-.31-30.79,4.85-.08,7.27-.11,12.11-.18Zm-12.19-5.98c-.12-10.26-.26-20.52-.42-30.79,4.86-.1,7.3-.14,12.16-.23,.14,10.28,.27,20.55,.38,30.83-4.85,.07-7.27,.11-12.12,.19Zm48.76,42.67c.03,4.95,.04,7.42,.06,12.37-4.83,.03-7.24,.04-12.07,.08-.03-4.94-.04-7.42-.07-12.36,4.83-.04,7.25-.06,12.08-.09Zm-12.12-6.09c-.03-4.94-.05-7.42-.08-12.36,4.84-.05,7.26-.07,12.1-.11,.03,4.95,.05,7.42,.07,12.37-4.83,.04-7.25,.06-12.09,.1Zm12.21,24.65c.02,4.95,.03,7.42,.05,12.37-4.83,.02-7.24,.03-12.06,.06-.02-4.94-.03-7.42-.05-12.36,4.83-.03,7.24-.05,12.07-.07Zm.07,18.56c.02,4.95,.02,7.42,.03,12.37-4.82,.02-7.23,.02-12.06,.04-.01-4.94-.02-7.42-.04-12.36,4.82-.02,7.24-.03,12.06-.05Zm17.97-37.24c.02,4.96,.03,7.43,.05,12.39-4.83,.02-7.24,.04-12.07,.06-.02-4.95-.03-7.43-.06-12.38,4.83-.03,7.25-.05,12.08-.07Zm-12.11-6.12c-.03-4.95-.04-7.43-.07-12.38,4.84-.04,7.26-.06,12.1-.09,.02,4.96,.04,7.43,.06,12.39-4.83,.03-7.25,.04-12.09,.08Zm12.18,24.7c.02,4.96,.02,7.43,.04,12.39-4.83,.02-7.24,.03-12.06,.05-.02-4.95-.02-7.43-.04-12.38,4.83-.02,7.24-.04,12.07-.06Zm.05,18.59c.01,4.96,.02,7.43,.03,12.39-4.82,.01-7.23,.02-12.06,.03-.01-4.95-.02-7.43-.03-12.38,4.82-.02,7.24-.03,12.06-.04Zm6.08,30.97c0-4.96,0-7.44-.01-12.39,4.82,0,7.23-.01,12.05-.02,0,4.96,0,7.44,.01,12.4-4.82,0-7.23,0-12.05,.01Zm12.05,43.39c0,4.96,0,7.44-.01,12.4-4.82,0-7.23-.01-12.05-.02,0-4.96,0-7.44,.01-12.39,4.82,0,7.23,0,12.05,.01Zm-12.07,18.58c7.23,.02,10.85,.02,18.08,.03,0-7.44,.01-11.16,.02-18.61,4.82,0,7.23,0,12.05,0,0,10.34-.01,20.68-.02,31.03-10.05-.01-20.1-.04-30.15-.07,.01-4.96,.02-7.44,.02-12.39Zm18.1-24.78c0-4.96,0-7.44,0-12.41,4.82,0,7.23,0,12.05,0,0,4.96,0,7.45,0,12.41-4.82,0-7.23,0-12.05,0Zm0-18.61c0-4.96,0-7.44,0-12.41,4.82,0,7.23,0,12.05,0,0,4.96,0,7.45,0,12.41-4.82,0-7.23,0-12.05,0Zm0-18.61c0-7.44,0-11.16-.02-18.61-7.23,.01-10.85,.02-18.08,.03,0-4.96-.01-7.44-.02-12.39,10.05-.03,20.1-.05,30.15-.07,.01,10.34,.02,20.68,.02,31.03-4.82,0-7.23,0-12.05,0Zm-18.14-37.16c-.01-4.96-.02-7.44-.03-12.39,10.06-.04,20.12-.07,30.17-.09,0,4.96,.01,7.45,.02,12.41-10.05,.02-20.1,.04-30.16,.07Zm-.05-18.59c-.02-4.96-.02-7.44-.04-12.39,10.07-.05,20.14-.09,30.2-.11,0,4.96,.01,7.45,.02,12.41-10.06,.02-20.12,.05-30.18,.1Zm-.15-37.18c-.02-4.96-.04-7.44-.06-12.39,4.85-.03,7.27-.05,12.11-.08,.02,4.96,.03,7.44,.05,12.4-4.84,.02-7.26,.04-12.1,.07Zm-.42-68.17c4.87-.05,7.31-.07,12.19-.11v.02c.03,4.95,.04,7.43,.07,12.38-4.87,.04-7.3,.06-12.17,.1-.03-4.96-.05-7.44-.09-12.39Zm-54.83,.82v-.02c4.87-.09,7.31-.14,12.18-.22,.06,4.94,.09,7.41,.15,12.36-4.87,.08-7.3,.12-12.17,.21-.07-4.93-.1-7.39-.17-12.32Zm.25,18.49c7.3-.13,10.94-.18,18.24-.29-.08-7.42-.12-11.13-.21-18.54,10.15-.17,20.31-.3,30.46-.42,.06,7.43,.09,11.15,.15,18.59,7.3-.07,10.94-.1,18.24-.16,.06,10.33,.11,20.67,.15,31-7.27,.04-10.91,.07-18.18,.13,.04,7.43,.07,11.15,.1,18.59-10.09,.07-20.17,.16-30.26,.26-.06-7.42-.09-11.13-.15-18.54-7.27,.09-10.91,.13-18.18,.23-.11-10.28-.23-20.57-.36-30.85Zm.42,37.02c4.85-.06,7.27-.1,12.11-.15,.04,4.94,.06,7.41,.1,12.36-4.84,.05-7.26,.08-12.1,.14-.04-4.94-.07-7.4-.12-12.34ZM29.2,30.85c10.15-.26,20.31-.49,30.46-.69v.02c.07,4.92,.11,7.39,.18,12.31-10.14,.19-20.28,.4-30.42,.64-.09-4.91-.13-7.37-.22-12.29Zm.33,18.43c4.86-.11,7.3-.16,12.16-.26,.16,10.25,.31,20.51,.43,30.76-4.85,.08-7.27,.13-12.12,.21-.14-10.24-.3-20.48-.47-30.71Zm.56,36.86c4.85-.09,7.27-.13,12.11-.2,.15,12.3,.28,24.61,.38,36.92,12.08-.14,24.16-.26,36.24-.36,.03,4.94,.05,7.41,.07,12.35-16.1,.12-32.2,.27-48.29,.44-.13-16.38-.3-32.76-.52-49.14Zm.57,55.28c16.09-.16,32.18-.29,48.28-.4,.02,4.94,.04,7.41,.06,12.36-12.06,.07-24.13,.15-36.19,.24,.07,12.3,.12,24.61,.14,36.92-4.82,.01-7.23,.02-12.05,.03-.04-16.38-.11-32.76-.24-49.14Zm.25,55.28c4.82-.01,7.23-.02,12.05-.02,0,4.92,0,7.38,.01,12.31-4.82,0-7.23,0-12.05,0,0-4.91,0-7.37-.01-12.29Zm.01,18.43c4.82,0,7.23,0,12.05,0,0,4.92,0,7.38-.01,12.31-4.82,0-7.23-.01-12.05-.02,0-4.91,.01-7.37,.01-12.29Zm-.02,18.43c4.82,.01,7.23,.02,12.05,.03-.02,10.25-.06,20.51-.11,30.76-4.82-.03-7.24-.05-12.06-.08,.06-10.24,.1-20.48,.12-30.71Zm-.15,36.86c4.83,.04,7.24,.06,12.06,.09-.03,4.92-.04,7.38-.08,12.31-4.83-.04-7.24-.07-12.07-.11,.04-4.91,.05-7.37,.08-12.29Zm-.13,18.43c4.83,.05,7.24,.08,12.07,.12-.04,4.92-.06,7.38-.1,12.31-4.83-.06-7.25-.08-12.08-.14,.05-4.91,.07-7.37,.11-12.29Zm-.17,18.43c4.83,.06,7.25,.1,12.09,.15-.09,10.25-.2,20.51-.33,30.76-4.85-.08-7.27-.12-12.11-.2,.14-10.24,.25-20.48,.35-30.71Zm-.44,36.86c4.85,.09,7.27,.13,12.12,.21-.13,10.25-.27,20.51-.43,30.76-4.86-.1-7.3-.15-12.16-.26,.18-10.24,.33-20.48,.47-30.71Zm29.66,49.81v.02c-10.16-.2-20.31-.43-30.46-.69,.09-4.86,.14-7.3,.22-12.16,10.14,.24,20.28,.46,30.42,.64-.07,4.87-.1,7.31-.18,12.18Zm.26-18.48c-4.86-.09-7.3-.13-12.16-.23,.15-10.26,.29-20.52,.42-30.79,4.85,.08,7.27,.12,12.12,.19-.11,10.28-.24,20.55-.38,30.83Zm.44-37c-4.85-.07-7.27-.1-12.11-.18,.12-10.26,.22-20.52,.31-30.79,10.07,.12,20.14,.22,30.22,.31-.03,4.94-.05,7.41-.09,12.36-7.26-.07-10.89-.11-18.14-.2-.07,7.4-.1,11.1-.18,18.5Zm18.28-12.12c-.04,4.94-.06,7.41-.1,12.36-4.85-.06-7.27-.09-12.11-.15,.05-4.94,.07-7.4,.12-12.34,4.84,.06,7.26,.09,12.1,.14Zm-.71,67.95c-4.87-.08-7.31-.13-12.19-.22v-.02c.07-4.88,.1-7.32,.17-12.19,4.87,.09,7.3,.13,12.17,.21-.06,4.89-.09,7.34-.15,12.23Zm36.56,.52c-10.15-.11-20.31-.25-30.46-.41,.09-7.42,.13-11.13,.21-18.54-7.3-.11-10.94-.16-18.24-.29,.13-10.28,.25-20.57,.36-30.85,7.27,.1,10.91,.15,18.18,.23,.07-7.42,.1-11.13,.15-18.54,10.08,.1,20.17,.19,30.26,.26-.04,7.43-.06,11.15-.1,18.59,7.27,.06,10.91,.08,18.18,.13-.04,10.33-.1,20.67-.15,31-7.3-.05-10.94-.08-18.24-.16-.06,7.43-.08,11.15-.15,18.59Zm6.18-12.2c4.87,.05,7.3,.07,12.17,.1-.03,4.9-.04,7.35-.07,12.25v.02c-4.87-.04-7.31-.06-12.19-.11,.04-4.91,.05-7.36,.09-12.27Zm48.65,12.57c-10.15-.02-20.31-.07-30.46-.14v-.02c.03-4.9,.04-7.35,.06-12.26,10.14,.07,20.28,.11,30.42,.13,0,4.92-.01,7.37-.02,12.29Zm.03-18.62c-4.86,0-7.3-.02-12.16-.03,.03-10.34,.05-20.69,.08-31.03,4.85,.01,7.27,.02,12.12,.03-.01,10.35-.02,20.69-.04,31.04Zm.05-37.24c-4.85,0-7.27-.01-12.11-.03,.03-12.41,.05-24.82,.07-37.24-12.08-.02-24.16-.07-36.24-.13,.02-4.96,.03-7.44,.04-12.39,16.1,.07,32.19,.11,48.29,.13-.01,16.55-.03,33.11-.04,49.66Zm.05-55.87c-16.09-.01-32.18-.05-48.28-.12,.01-4.96,.02-7.44,.03-12.39,12.06,.04,24.13,.07,36.19,.08,.01-12.41,.02-24.82,.02-37.24,4.82,0,7.23,0,12.05,0,0,16.55,0,33.11-.02,49.66Zm.02-55.87c-4.82,0-7.23,0-12.05,0,0-4.96,0-7.45,0-12.41,4.82,0,7.23,0,12.05,0,0,4.97,0,7.45,0,12.41Zm0-18.62c-4.82,0-7.23,0-12.05,0,0-4.96,0-7.45,0-12.41,4.82,0,7.23,0,12.05,0,0,4.97,0,7.45,0,12.41Zm0-18.62c-4.82,0-7.23,0-12.05,0,0-10.34,0-20.69-.02-31.03,4.82,0,7.24,0,12.06-.01,0,10.35,0,20.69,0,31.04Zm-.01-37.24c-4.83,0-7.24,0-12.06,.01,0-4.96,0-7.45-.01-12.41,4.83,0,7.24-.01,12.07-.01,0,4.97,0,7.45,0,12.41Zm-.01-18.62c-4.83,0-7.24,0-12.07,.02,0-4.96,0-7.45-.02-12.41,4.83,0,7.25-.01,12.08-.02,0,4.97,0,7.45,0,12.41Zm-.01-18.62c-4.83,0-7.25,0-12.09,.02-.02-10.34-.04-20.69-.06-31.03,4.85-.01,7.27-.02,12.11-.03,.01,10.35,.02,20.69,.03,31.04Zm-.04-37.24c-4.85,0-7.27,.01-12.12,.03-.02-10.34-.05-20.69-.08-31.03,4.86-.02,7.3-.02,12.16-.03,.01,10.35,.03,20.69,.04,31.04Zm-.05-37.24c-10.14,.02-20.28,.06-30.42,.13-.02-4.95-.04-7.43-.06-12.38v-.02c10.15-.07,20.31-.12,30.46-.14,0,4.97,.01,7.45,.02,12.41Z"/>
    <path d="M188.58,22.72c-.1,126.22-.1,252.44,0,378.66,50.82-.11,101.63-.83,152.43-2.15-2.45-124.79-2.45-249.59,0-374.37-50.8-1.32-101.61-2.03-152.43-2.15Zm115.49,25.93c4.86,.09,7.3,.13,12.16,.23-.15,10.26-.29,20.52-.42,30.79-4.85-.08-7.27-.12-12.12-.19,.11-10.28,.24-20.55,.38-30.83Zm-.44,37c4.85,.07,7.27,.1,12.11,.18-.12,10.26-.22,20.52-.31,30.79-10.07-.12-20.14-.22-30.22-.31,.03-4.94,.05-7.41,.09-12.36,7.26,.07,10.89,.11,18.14,.2,.07-7.4,.1-11.1,.18-18.5Zm-6.06,252.89c-4.85,.06-7.27,.1-12.11,.15-.04-4.94-.06-7.41-.1-12.36,4.84-.05,7.26-.08,12.1-.14,.04,4.94,.07,7.4,.12,12.34Zm6.06-.08c-.08-7.4-.11-11.1-.18-18.5-7.26,.09-10.89,.13-18.14,.2-.04-4.94-.06-7.41-.09-12.36,10.07-.09,20.14-.19,30.22-.31,.09,10.26,.19,20.52,.31,30.79-4.85,.08-7.27,.11-12.11,.18Zm12.19,5.98c.12,10.26,.26,20.52,.42,30.79-4.86,.1-7.3,.14-12.16,.23-.14-10.28-.27-20.55-.38-30.83,4.85-.07,7.27-.11,12.12-.19Zm-36.94-116.93c0,7.42,.01,11.13,.03,18.54-10.04,.03-20.09,.06-30.13,.08-.01-7.43-.02-11.15-.02-18.59-7.23,0-10.84,0-18.07,.01,0-10.33,0-20.67,0-31,7.23,0,10.84,0,18.07,.01,0-7.43,0-11.15,.02-18.59,10.04,.02,20.09,.05,30.13,.08-.02,7.42-.02,11.13-.03,18.54,7.23,.01,10.84,.02,18.07,.03-.01,10.28-.01,20.57,0,30.85-7.23,.01-10.84,.02-18.07,.03Zm-11.82,74.26c-.03-4.95-.04-7.42-.06-12.37,4.83-.03,7.24-.04,12.07-.08,.03,4.94,.04,7.42,.07,12.36-4.83,.04-7.25,.06-12.08,.09Zm12.12,6.09c.03,4.94,.05,7.42,.08,12.36-4.84,.05-7.26,.07-12.1,.11-.03-4.95-.05-7.42-.07-12.37,4.83-.04,7.25-.06,12.09-.1Zm-12.21-24.65c-.02-4.95-.03-7.42-.05-12.37,4.83-.02,7.24-.03,12.06-.06,.02,4.94,.03,7.42,.05,12.36-4.83,.03-7.24,.05-12.07,.07Zm-.07-18.56c-.02-4.95-.02-7.42-.03-12.37,4.82-.02,7.23-.02,12.06-.04,.01,4.94,.02,7.42,.04,12.36-4.82,.02-7.24,.03-12.06,.05Zm-17.97,37.24c-.02-4.96-.03-7.43-.05-12.39,4.83-.02,7.24-.04,12.07-.06,.02,4.95,.03,7.43,.06,12.38-4.83,.03-7.25,.05-12.08,.07Zm12.11,6.12c.03,4.95,.04,7.43,.07,12.38-4.84,.04-7.26,.06-12.1,.09-.02-4.96-.04-7.43-.06-12.39,4.83-.03,7.25-.04,12.09-.08Zm-12.18-24.7c-.02-4.96-.02-7.43-.04-12.39,4.83-.02,7.24-.03,12.06-.05,.02,4.95,.02,7.43,.04,12.38-4.83,.02-7.24,.04-12.07,.06Zm-.05-18.58c-.01-4.96-.02-7.43-.03-12.39,4.82-.01,7.23-.02,12.06-.03,.01,4.95,.02,7.43,.03,12.38-4.82,.02-7.24,.03-12.06,.04Zm-36.16,18.7c0-4.96-.01-7.45-.02-12.41,10.05-.02,20.1-.04,30.16-.07,.01,4.96,.02,7.44,.03,12.39-10.06,.04-20.12,.07-30.17,.09Zm30.19,6.11c.02,4.96,.02,7.44,.04,12.39-10.07,.05-20.14,.09-30.2,.11,0-4.96-.01-7.45-.02-12.41,10.06-.02,20.12-.05,30.18-.1Zm-30.22-24.72c-.01-10.34-.02-20.68-.02-31.03,4.82,0,7.23,0,12.05,0,0,7.44,0,11.16,.02,18.61,7.23-.01,10.85-.02,18.08-.03,0,4.96,.01,7.44,.02,12.39-10.05,.03-20.1,.05-30.15,.07Zm12.04-93.06c0,7.44-.01,11.16-.02,18.61-4.82,0-7.23,0-12.05,0,0-10.34,.01-20.68,.02-31.03,10.05,.01,20.1,.04,30.15,.07-.01,4.96-.02,7.44-.02,12.39-7.23-.02-10.85-.02-18.08-.03Zm18.07,6.23c0,4.96,0,7.44-.01,12.39-4.82,0-7.23,0-12.05-.01,0-4.96,0-7.44,.01-12.4,4.82,0,7.23,.01,12.05,.02Zm-18.09,18.58c0,4.96,0,7.44,0,12.41-4.82,0-7.23,0-12.05,0,0-4.96,0-7.45,0-12.41,4.82,0,7.23,0,12.05,0Zm0,18.61c0,4.96,0,7.44,0,12.41-4.82,0-7.23,0-12.05,0,0-4.96,0-7.45,0-12.41,4.82,0,7.23,0,12.05,0Zm6.04,31c0-4.96,0-7.44-.01-12.4,4.82,0,7.23,0,12.05-.01,0,4.96,0,7.44,.01,12.39-4.82,0-7.23,.01-12.05,.02Zm-5.81-161.26c-.03,7.44-.04,11.16-.06,18.61,7.26,.03,10.89,.05,18.14,.09-.02,4.96-.03,7.44-.05,12.39-10.07-.06-20.14-.1-30.22-.12,.02-10.34,.04-20.68,.07-31.03,4.85,.02,7.27,.03,12.11,.05Zm-12.1-6.26c.03-10.34,.06-20.68,.1-31.03,4.86,.02,7.3,.04,12.16,.07-.05,10.34-.09,20.68-.13,31.01-4.85-.03-7.27-.04-12.12-.05Zm48.23,43.65c-.02,4.95-.03,7.43-.06,12.38-4.83-.03-7.24-.04-12.07-.06,.02-4.96,.03-7.43,.05-12.39,4.83,.03,7.25,.04,12.08,.07Zm-12.06-6.27c.02-4.96,.03-7.43,.06-12.39,4.84,.03,7.26,.05,12.1,.09-.03,4.95-.04,7.43-.07,12.38-4.83-.03-7.25-.05-12.09-.08Zm11.98,24.84c-.02,4.95-.03,7.43-.04,12.38-4.83-.02-7.24-.03-12.06-.05,.01-4.96,.02-7.43,.04-12.39,4.83,.02,7.24,.03,12.07,.06Zm-.06,18.57c-.01,4.95-.02,7.43-.03,12.38-4.82-.01-7.23-.02-12.06-.03,0-4.96,.01-7.43,.03-12.39,4.82,.02,7.24,.02,12.06,.04Zm18.26-37.01c-.03,4.94-.04,7.42-.07,12.36-4.83-.03-7.24-.05-12.07-.08,.02-4.95,.03-7.42,.06-12.37,4.83,.03,7.25,.05,12.08,.09Zm-12.05-6.28c.03-4.95,.04-7.42,.07-12.37,4.84,.04,7.26,.06,12.1,.11-.04,4.94-.05,7.42-.08,12.36-4.83-.04-7.25-.06-12.09-.1Zm11.95,24.82c-.02,4.94-.03,7.42-.05,12.36-4.83-.03-7.24-.04-12.06-.06,.02-4.95,.03-7.42,.05-12.37,4.83,.03,7.24,.04,12.07,.07Zm-.08,18.54c-.02,4.94-.02,7.42-.04,12.36-4.82-.02-7.23-.03-12.06-.04,.01-4.95,.02-7.42,.03-12.37,4.82,.02,7.24,.03,12.06,.05Zm5.95,30.92c0-4.94,.01-7.41,.02-12.36,4.82,.02,7.23,.02,12.05,.04-.01,4.94-.02,7.4-.03,12.34-4.82-.01-7.23-.02-12.05-.03Zm12.05,43.22c0,4.94,.01,7.4,.03,12.34-4.82,.02-7.23,.03-12.05,.04-.01-4.94-.02-7.41-.02-12.36,4.82,0,7.23-.02,12.05-.03Zm-12.01,18.56c7.23-.03,10.85-.04,18.08-.08-.02-7.4-.03-11.1-.05-18.5,4.82-.01,7.23-.02,12.05-.03,.02,10.26,.05,20.52,.1,30.79-10.05,.07-20.1,.12-30.15,.17-.02-4.94-.03-7.41-.04-12.36Zm18.03-24.74c0-4.93,0-7.4,0-12.33,4.82,0,7.23,0,12.05,0,0,4.93,0,7.39,.01,12.31-4.82,0-7.23,.01-12.05,.02Zm0-18.5c0-4.93,0-7.4,0-12.33,4.82,0,7.23,.01,12.05,.02,0,4.93,0,7.39-.01,12.31-4.82,0-7.23,0-12.05,0Zm.02-18.5c.01-7.4,.02-11.1,.05-18.5-7.23-.03-10.85-.05-18.08-.08,.01-4.94,.02-7.41,.04-12.36,10.05,.05,20.1,.11,30.15,.17-.05,10.26-.09,20.52-.1,30.79-4.82-.01-7.23-.02-12.05-.03Zm-17.97-37.11c.02-4.94,.03-7.41,.06-12.36,10.06,.07,20.12,.14,30.17,.23-.03,4.93-.05,7.39-.07,12.31-10.05-.07-20.1-.14-30.16-.19Zm.09-18.53c.03-4.94,.04-7.41,.07-12.36,10.07,.08,20.14,.18,30.2,.29-.04,4.93-.06,7.39-.09,12.31-10.06-.1-20.12-.18-30.18-.25Zm.25-37.07c.04-4.94,.06-7.41,.1-12.36,4.85,.06,7.27,.09,12.11,.15-.05,4.94-.07,7.4-.12,12.34-4.84-.06-7.26-.09-12.1-.14Zm.71-67.95c4.87,.08,7.31,.13,12.19,.22v.02c-.07,4.93-.11,7.39-.17,12.32-4.87-.09-7.3-.13-12.17-.21,.06-4.94,.09-7.41,.15-12.36Zm-54.83-.67v-.02c4.87,.04,7.31,.06,12.19,.11-.04,4.96-.06,7.44-.09,12.39-4.87-.05-7.3-.07-12.17-.1,.03-4.95,.04-7.43,.07-12.38Zm-.11,18.58c7.3,.05,10.94,.08,18.24,.16,.06-7.43,.08-11.15,.15-18.59,10.15,.11,20.31,.25,30.46,.41-.09,7.42-.13,11.13-.21,18.54,7.3,.11,10.94,.16,18.24,.29-.13,10.28-.25,20.57-.36,30.85-7.27-.1-10.91-.15-18.18-.23-.07,7.42-.1,11.13-.15,18.54-10.08-.1-20.17-.19-30.26-.26,.04-7.43,.06-11.15,.1-18.59-7.27-.06-10.91-.08-18.18-.13,.04-10.34,.1-20.67,.15-31Zm-.18,37.21c4.85,.03,7.27,.04,12.11,.08-.03,4.96-.04,7.44-.06,12.39-4.84-.03-7.26-.04-12.1-.07,.02-4.96,.03-7.44,.05-12.4Zm-36.27-55.99c10.15,.02,20.31,.07,30.46,.14v.02c-.03,4.95-.04,7.43-.06,12.38-10.14-.07-20.28-.11-30.42-.13,0-4.97,.01-7.45,.02-12.41Zm-.03,18.62c4.86,0,7.3,.02,12.16,.03-.03,10.34-.05,20.69-.08,31.03-4.85-.01-7.27-.02-12.12-.03,.01-10.35,.02-20.69,.04-31.04Zm-.05,37.24c4.85,0,7.27,.01,12.11,.03-.03,12.41-.05,24.82-.07,37.24,12.08,.02,24.16,.07,36.24,.13-.02,4.96-.03,7.44-.04,12.39-16.1-.07-32.19-.11-48.29-.13,.01-16.55,.03-33.11,.04-49.66Zm-.05,55.87c16.09,.01,32.18,.05,48.28,.12-.01,4.96-.02,7.44-.03,12.39-12.06-.04-24.13-.07-36.19-.08-.01,12.41-.02,24.82-.03,37.24-4.82,0-7.23,0-12.05,0,0-16.55,0-33.11,.02-49.66Zm-.02,55.87c4.82,0,7.23,0,12.05,0,0,4.96,0,7.45,0,12.41-4.82,0-7.23,0-12.05,0,0-4.97,0-7.45,0-12.41Zm0,18.62c4.82,0,7.23,0,12.05,0,0,4.96,0,7.45,0,12.41-4.82,0-7.23,0-12.05,0,0-4.97,0-7.45,0-12.41Zm0,18.62c4.82,0,7.23,0,12.05,0,0,10.34,0,20.69,.02,31.03-4.82,0-7.24,0-12.06,.01,0-10.35,0-20.69,0-31.04Zm.01,37.24c4.83,0,7.24,0,12.06-.01,0,4.96,0,7.45,.01,12.41-4.83,0-7.24,.01-12.07,.01,0-4.97,0-7.45,0-12.41Zm.01,18.62c4.83,0,7.24,0,12.07-.02,0,4.96,0,7.45,.02,12.41-4.83,0-7.25,.01-12.08,.02,0-4.97,0-7.45,0-12.41Zm.01,18.62c4.83,0,7.25,0,12.09-.02,.02,10.34,.04,20.69,.06,31.03-4.85,.01-7.27,.02-12.11,.03-.01-10.35-.02-20.69-.03-31.04Zm.04,37.24c4.85,0,7.27-.01,12.12-.03,.02,10.34,.05,20.69,.08,31.03-4.86,.02-7.3,.02-12.16,.03-.01-10.35-.03-20.69-.04-31.04Zm30.53,49.5v.02c-10.15,.07-20.31,.12-30.46,.14,0-4.92-.01-7.37-.02-12.29,10.14-.02,20.28-.06,30.42-.13,.02,4.9,.04,7.35,.06,12.26Zm-.09-18.59c-4.86,.03-7.3,.04-12.16,.07-.04-10.34-.07-20.68-.1-31.03,4.85-.02,7.27-.03,12.12-.05,.04,10.34,.08,20.68,.13,31.01Zm-.16-37.22c-4.85,.02-7.27,.03-12.11,.05-.03-10.34-.05-20.68-.07-31.03,10.07-.03,20.14-.07,30.22-.12,.02,4.96,.03,7.44,.05,12.39-7.26,.04-10.89,.06-18.14,.09,.02,7.44,.04,11.16,.06,18.61Zm18.11-12.5c.02,4.96,.04,7.44,.06,12.39-4.85,.03-7.27,.05-12.11,.08-.02-4.96-.03-7.44-.05-12.4,4.84-.02,7.26-.04,12.1-.07Zm.42,68.17c-4.87,.05-7.31,.07-12.19,.11v-.02c-.03-4.9-.04-7.35-.07-12.25,4.87-.04,7.3-.06,12.17-.1,.03,4.91,.05,7.36,.09,12.27Zm36.56-.48c-10.15,.17-20.31,.3-30.46,.41-.06-7.43-.09-11.15-.15-18.59-7.3,.07-10.94,.1-18.24,.16-.06-10.33-.11-20.67-.15-31,7.27-.04,10.91-.07,18.18-.13-.04-7.43-.07-11.15-.1-18.59,10.09-.07,20.17-.16,30.26-.26,.06,7.42,.09,11.13,.15,18.54,7.27-.09,10.91-.13,18.18-.23,.11,10.28,.23,20.57,.36,30.85-7.3,.13-10.94,.18-18.24,.29,.08,7.42,.12,11.13,.21,18.54Zm5.94-12.33c4.87-.08,7.3-.12,12.17-.21,.07,4.88,.1,7.32,.17,12.19v.02c-4.87,.09-7.31,.14-12.18,.22-.06-4.89-.09-7.34-.15-12.23Zm48.89,11.2c-10.15,.26-20.31,.49-30.46,.69v-.02c-.07-4.87-.11-7.31-.18-12.18,10.14-.19,20.28-.4,30.42-.64,.09,4.86,.13,7.3,.22,12.16Zm-.33-18.43c-4.86,.11-7.3,.16-12.16,.26-.16-10.25-.31-20.51-.43-30.76,4.85-.08,7.27-.13,12.12-.21,.14,10.24,.3,20.48,.47,30.71Zm-.56-36.86c-4.85,.09-7.27,.13-12.11,.2-.15-12.3-.28-24.61-.38-36.92-12.08,.14-24.16,.26-36.24,.36-.03-4.94-.05-7.41-.07-12.36,16.1-.12,32.2-.26,48.29-.44,.13,16.38,.31,32.76,.52,49.14Zm-.57-55.28c-16.09,.16-32.18,.29-48.28,.4-.02-4.94-.04-7.41-.06-12.36,12.06-.07,24.13-.15,36.19-.24-.07-12.31-.12-24.61-.14-36.92,4.82-.01,7.23-.02,12.05-.03,.03,16.38,.12,32.76,.24,49.14Zm-.25-55.28c-4.82,.01-7.23,.02-12.05,.02,0-4.92,0-7.38-.01-12.31,4.82,0,7.23,0,12.05,0,0,4.91,0,7.37,.01,12.29Zm-.01-18.43c-4.82,0-7.23,0-12.05,0,0-4.92,0-7.38,.01-12.31,4.82,0,7.23,.01,12.05,.02,0,4.91-.01,7.37-.01,12.29Zm.02-18.43c-4.82-.01-7.23-.02-12.05-.03,.02-10.25,.06-20.51,.11-30.76,4.82,.03,7.24,.05,12.06,.08-.06,10.24-.1,20.48-.12,30.71Zm.15-36.86c-4.83-.04-7.24-.06-12.06-.09,.03-4.92,.04-7.38,.08-12.31,4.83,.04,7.24,.07,12.07,.11-.04,4.91-.05,7.37-.08,12.29Zm.13-18.43c-4.83-.05-7.24-.08-12.07-.12,.04-4.92,.06-7.38,.1-12.31,4.83,.06,7.25,.08,12.08,.14-.05,4.91-.07,7.37-.11,12.29Zm.17-18.43c-4.83-.06-7.25-.1-12.09-.15,.09-10.25,.2-20.51,.33-30.76,4.85,.08,7.27,.12,12.11,.2-.14,10.24-.25,20.48-.35,30.71Zm.44-36.86c-4.85-.09-7.27-.13-12.12-.21,.13-10.25,.27-20.51,.43-30.76,4.86,.1,7.3,.15,12.16,.26-.18,10.24-.33,20.48-.47,30.71Zm.58-36.86c-10.14-.24-20.28-.46-30.42-.64,.07-4.92,.11-7.39,.18-12.31v-.02c10.16,.2,20.31,.43,30.46,.69-.09,4.91-.14,7.37-.22,12.29Z"/>
  </g>
</svg>