<svg viewBox="0 0 271.93 158.7">
  <path class="glassClear" d="M26.21,135.03c73.17-.45,146.33-.45,219.5,0-.09-36.79,.38-73.57,1.42-110.34-74.12-1.33-148.23-1.33-222.34,0,1.04,36.78,1.51,73.55,1.42,110.34Z"/>
  <path class="frameFront" d="M.52,2.2C2.83,54.19,3.62,106.17,2.96,158.2c88.67-.39,177.34-.39,266,0-.66-52.03,.13-104.01,2.44-155.99C181.11-.07,90.82-.07,.52,2.2ZM250.75,140.08c-76.52-.45-153.04-.45-229.56,0,.18-40.11-.36-80.2-1.62-120.3,77.6-1.51,155.2-1.51,232.8,0-1.26,40.09-1.8,80.19-1.62,120.3Z"/>
  <path class="paneStill" d="M19.56,19.78c1.26,40.09,1.8,80.18,1.62,120.3,76.52-.45,153.04-.45,229.56,0-.18-40.11,.36-80.2,1.62-120.3-77.6-1.51-155.2-1.51-232.8,0Zm76.49,114.96c-23.28,.05-46.56,.15-69.84,.29,.09-36.79-.38-73.57-1.42-110.34,23.58-.43,47.16-.75,70.74-.95,.38,37,.55,74,.52,111Zm74.83-.01c-23.28-.04-46.56-.04-69.84,0,.03-37.01-.12-74.02-.45-111.02,23.58-.11,47.17-.11,70.75,0-.33,37.01-.48,74.01-.45,111.02Zm74.83,.3c-23.28-.14-46.56-.24-69.84-.29-.03-37,.14-74,.52-111,23.58,.2,47.16,.52,70.74,.95-1.04,36.78-1.51,73.55-1.42,110.34Z"/>
</svg>