<svg viewBox="0 0 366.17 332.97">
  <path class="sill" d="M1.71,331.47q181.37,2,362.75,0-.18-11.37-.34-22.75-181,1.35-362.07,0Q1.9,320.09,1.71,331.47Z"/>
  <path class="frameFront" d="M360.34,308.74Q358.5,156.46,365.65,4.26,183.15-3.25.52,4.26,7.78,156.39,5.84,308.74q8.88.08,17.78.12,1.54-143.19-4-286.33,163.42-5.62,326.93,0-5.62,143.1-4,286.33Z"/>
  <path class="paneStill" d="M340.92,28.08c-50-3.71-264.87-3.66-315.86,0q5.16,137.52,3.7,275.14c49.29,1.18,259.16,1.2,308.45,0Q335.83,165.63,340.92,28.08Zm1.66,280.82q-159.51,1-319,0,1.64-143.19-4-286.33,163.45-5.62,327,0Q340.86,165.65,342.58,308.9Z"/>
  <path class="glassClear" d="M340.92,28.08c-50-3.71-264.87-3.66-315.86,0q5.16,137.52,3.7,275.14c49.29,1.18,259.16,1.2,308.45,0Q335.83,165.63,340.92,28.08Z"/>
  <path class="blinds" d="M21.14,64.89q161.93-4.59,323.89,0,.69-21.18,1.52-42.36-163.43-5.62-326.93,0Q20.46,43.71,21.14,64.89Z"/>
  <g class="blindsOverlapLine">
    <path d="M346,36.59q-162.88-5.28-325.85,0"/>
    <path d="M345.65,50.83q-162.37-4.94-324.82,0"/>
    <path d="M345.6,52.35q-162.33-4.91-324.72,0"/>
    <path d="M345.55,53.87Q183.27,49,20.93,53.86"/>
  </g>
  <path class="rail" d="M21,55.38q162.24-4.82,324.52,0c-.13,3.8-.19,5.7-.31,9.5q-161.92-4.59-323.89,0C21.18,61.08,21.11,59.18,21,55.38Z"/>
</svg>
