<svg viewBox="0 0 62.8 520.13">
  <path class="frameLightFront" d="M.5,29.53Q31.19,14.65,62.28.78q-7.45,259.11-7.44,518.36c-2.38-1.74-3.57-2.61-6-4.34Q48,269.87,53.86,25,29.39,34.41,5.13,44.41q0,221.84,5.55,443.6L7,485.51Q.86,257.57.5,29.53Z"/>
  <path class="doorLightFront" d="M5.13,44.41Q29.4,34.41,53.86,25q-5.82,244.77-5,489.64Q29.94,501.07,10.68,488,5.19,266.27,5.13,44.41ZM24,337.25q6.27,1.51,12.51,3.09-.08-130.45,1.72-260.9Q31,81.53,23.89,83.65,23,210.45,24,337.25Z"/>
  <path class="edgeLight" d="M22.12,75.13q9.09-2.86,18.2-5.66-2.15,140.2-2.12,280.42-7.87-2.14-15.75-4.23Q21.28,210.41,22.12,75.13ZM24,337.25q6.27,1.51,12.51,3.09-.08-130.45,1.72-260.9Q31,81.53,23.89,83.65,23,210.45,24,337.25Z"/>
  <path class="glassClear" d="M24,337.25q6.27,1.51,12.51,3.09-.08-130.45,1.72-260.9Q31,81.53,23.89,83.65,23,210.45,24,337.25Z"/>
  <path class="bronzeDarker" d="M47.9,278.83,42,280.54q-.11,19.51-.17,39l5.8,1.42Q47.73,299.9,47.9,278.83Z"/>
  <path class="bronzeDark" d="M44,303.71c1.64,0,3,2.84,2.93,6.31s-1.36,6.26-3,6.25l-2.56,0q0-6.27,0-12.55Z"/>
  <g class="bronzeMediumDark">
    <path d="M35.24,293.47c4,0,6.06,0,10.1.11,1-.86,1-6,0-6.9-4.06-.05-6.08-.06-10.14-.08l-3.66.42a3.42,3.42,0,0,0-3.31,3.47,3.36,3.36,0,0,0,3.31,3.4Z"/>
    <path d="M44.4,310c0-3.46-1.29-6.29-2.93-6.3s-3,2.79-3,6.26,1.31,6.28,2.94,6.29S44.39,313.46,44.4,310Z"/>
  </g>
  <path class="knobEdgeLine" d="M34.93,287.89c-.51,0-.92,1-.92,2.16s.41,2.12.92,2.12"/>
</svg>
