<svg viewBox="0 0 162.15 524.48">
  <g class="soleLightTan">
    <path d="M125.68,512c.87,1.56.89,3.9.32,4.42-5.26,4.82-19.93,5.38-27.67,2.45l-.16-4.48Z"/>
    <path d="M99.12,514c1.49,1.65,1.24,5.73.32,6.41-3.71,2.76-13.74,4.69-24.67,3.4-13.36-1.58-25.77.79-36.76-4.11-1.91-.85-2-4.42-.16-6.25Z"/>
  </g>
  <g class="usherShoe">
    <path d="M122.6,492.59A36.33,36.33,0,0,1,125.68,512c-.43,3.77-21.7,7.09-27.51,2.39C84.94,489.47,97.78,486.44,122.6,492.59Z"/>
    <path d="M97.54,496.7a35.81,35.81,0,0,1,2.29,18c-.69,4.61-14,6.53-25.93,5.46-15.89-1.42-31,.79-36.21-5.61-1.5-5,4.59-11.39,10.28-12.34,6.65-1.1,12.76-4.13,20.08-9.72Z"/>
  </g>
  <path class="usherPants" d="M133.17,249.4c-5.83,3.65-63.55,8-75.1,4.55-1.32,19.09-5.23,35.23-1.72,57.61,3.49,22.19,2,40.48,3.26,61.55,1.3,21.45-.61,39.69.77,61.37,2.74,43.1-3.82,46.94,1.34,54.57a39.22,39.22,0,0,0-1.61,7c2.53,5,33.94,12,38.67,3,6.87,3.4,24.53-.87,26.58-4.57.47-5.42.67-10.66-.27-14.76,2.53-9.27,2-20.57,2.29-29.88,1.1-31.07,1.9-59.75,3.69-77.65C138,303.3,145.05,279.53,133.17,249.4Z"/>
  <g class="usherPantsButton">
    <ellipse cx="100.4" cy="281.68" rx="1.64" ry="2.05"/>
    <ellipse cx="135.38" cy="276.08" rx="1.57" ry="2.05"/>
  </g>
  <g class="beltTan">
    <path d="M63.26,256.26a57.12,57.12,0,0,1-5.7-.84c-.7-.06-1.52,9.25-.83,9.31a57.69,57.69,0,0,0,6.21.88A40.78,40.78,0,0,1,63.26,256.26Z"/>
    <path d="M114.71,254.62c-16.11,2.13-35.94,2.89-49.16,1.85a40.44,40.44,0,0,0-.36,9.32,275.74,275.74,0,0,0,51-1.73A39.58,39.58,0,0,0,114.71,254.62Z"/>
    <path d="M134.05,250.77a103.8,103.8,0,0,1-17,3.54,40.41,40.41,0,0,1,1.34,9.43c8.08-1.23,14.49-2.77,18.21-5C137.25,258.52,134.74,250.55,134.05,250.77Z"/>
  </g>
  <g class="skinFilipino">
    <path d="M158.21,190c2.5,5.79,4.31,11.37,3.5,15.7-2.6,13.89-14.8,29.14-27.56,41C132.8,201,122.63,195.71,158.21,190Z"/>
    <path d="M20.83,160.64c2.11,2.84.61,12.89,14.93,26.93-13,15.75-30.31,13.07-32.25,9.11-8-16.22,1-26.85,2.87-39.69C7,151.28,4.15,146.81,12,137c3.5-3.25,3.8-.8,7.18-2.21,3.53-1.47,4.43.81,6.32.62,6.32-1.23,5.95,3.37,8.59,5.7,3.62,3.44-.68,7.85-2,11.72C30.65,154.29,35.44,160.49,20.83,160.64Z"/>
    <path d="M78.08,97.82c1,6.1.58,16-.71,19.26,5.67-2.75,30.3-2.83,36.79-1.31-2.73-4-2.73-21.72-1.57-24.62"/>
  </g>
  <g class="skinOverlapLine">
    <path d="M20.81,171.42a41.16,41.16,0,0,0-6.2,4.7"/>
  </g>
  <path class="usherShirt" d="M151.12,162.48c-2.57-6.85-3.93-13.44-8.91-20.47-4.68-6.59-14.38-9.56-23.34-17.3-13.5,4.08-34-1.5-44.77,1.79-3.88,4.47-9.9,3.44-12.57,8.34C53.65,139,47.29,148.41,44.14,150.3c-3.83,2.28-3.16,3.27-6.39,5.79-3.59,2.81-7.71,2.22-12.3,10.83,1.32,4.32,10.71,16,15.57,18.74,3.37.22,8.85-4,14.56-8.62-1.63,14.12-.81,25.2-.29,37.74.89,21.85-4.31,27.34,2.78,39.17,11.55,3.42,69.27-.9,75.1-4.55,11-13.37,1-20.8,3.24-27.63,4.31-12.48.67-13.13,1.19-18.73.45-4.75,2.68-6.83,2.38-12.95,5.79-1.26,16.2-4.43,17.71-5.66C159.74,175.11,153.85,169.71,151.12,162.48Z"/>
  <g class="usherShirtInner">
    <path d="M74.1,126.5c-.6-.28,2.28-8.87,2.85-9.2,5.64-3.3,35.17-3.09,38.89-1,1,.58,4.13,8,3,8.37C105.37,128.79,84.91,123.21,74.1,126.5Z"/>
    <path d="M25.45,166.92c-.37-.38-4.89,4-4.64,4.5a58.37,58.37,0,0,0,14.62,17.71c.42.34,5.88-3,5.59-3.47C36.16,182.87,26.77,171.24,25.45,166.92Z"/>
    <path d="M157.69,184.43c-1.51,1.23-11.92,4.4-17.71,5.66a19.46,19.46,0,0,1-1.11,7.64c1.22.31,19.53-5.76,20.51-6.55C160.06,189.91,158.8,185.11,157.69,184.43Z"/>
  </g>
  <g class="clothesDisplayLine">
    <path d="M112.34,274.76c-6.83,1.77-19.27,2.55-27.45,1.61"/>
    <path d="M138.55,269.92a75.49,75.49,0,0,1-13.67,3.13"/>
  </g>
  <g class="clothesOverlapLine">
    <path d="M55.58,177a27.73,27.73,0,0,1,9-5.17"/>
    <path d="M137.92,159.18c3.21,10.69-.3,24.14,2.06,30.91"/>
    <path d="M98.78,499c.27-13.68-1-28.79-.12-37.16,4.27-38.62-.77-60.38,1.55-78.24.71-5.44.64-9.21,1.56-12.63,5.63-21,9.31-60.75,15.72-67.93"/>
  </g>
  <g class="clothesFoldLine">
    <path d="M129.65,359.76c-2.34,10.48-5.21,18.33-9.46,24.83"/>
    <path d="M65,374.94c9,25.12,26.37,30.3,32.59,13.88"/>
    <path d="M65,454c2.65,14.19,7.71,25.33,17.91,34.78"/>
    <path d="M109.75,308.56a13.44,13.44,0,0,1-8.46-2.24"/>
    <path d="M119.8,310.85c3.24-2.12,7.76-8.2,5.36-7.91-2.1.26-4.09,3.39-8.61,6.49"/>
    <path d="M124.88,317.2c-3.25,1.69-6.92,2.61-9.6,4.52"/>
    <path d="M124.26,409.41c-.24,25.3-3.12,44.46-10.11,58"/>
    <path d="M140.19,174.53a25.25,25.25,0,0,0,8.4,2.92"/>
    <path d="M134.9,144.51c3.11,3,4.62,9.63,3,14.67,3-1.45,3.59-5.89,3-9.39"/>
    <path d="M122.44,161.78c3.09,14.21,7.33,25.46,15.1,27.66"/>
    <path d="M121.87,173.68c2.11,8.88,4.69,16.67,8.12,22.47"/>
    <path d="M136.41,221.77c-7,8.65-15.39,8.08-15.77,11.38-.3,2.73,8,3.4,13.6,1.61"/>
    <path d="M131.59,217.29c-15.1,18.22-42,19.36-63-2.64"/>
    <path d="M131.88,245.14c-4,1.8-4.06,4.53-6.81,6.32"/>
    <path d="M118.09,247.22c16-6,1.35-10.53-15.48-7.65-18,3.08-18.69,12.37.66,5.29"/>
    <path d="M72.31,228c12.35,4.13,29.89,8.14,7.74,13"/>
    <path d="M114.82,252.83c-5.6-5.14-8-.32-14.71,1.33"/>
    <path d="M76.74,251.28c2.93-3,5.86-1.61,5.27,3.8"/>
    <path d="M71.08,246.46a10.18,10.18,0,0,1,2.44,8.73"/>
    <path d="M59.37,246.64c.83-4.95,6.52,2.09,7.12,8.38"/>
    <path d="M34.54,160c2,4.24,9.06,3.14,16.23,2"/>
    <path d="M65.92,166.75a46.38,46.38,0,0,1-14.8,5.17"/>
    <path d="M52.73,173.71c-4.1,1.24-7.43,3.77-10,3.74"/>
    <path d="M93,158.73a40.1,40.1,0,0,1-14.26,7.84"/>
    <path d="M103.72,151.42c-5.83,9-14.15,16.83-26.39,22.64"/>
    <path d="M64.85,134c6.69-1.28,16.68,7.37,15.51,9.27-.88,1.42-7-4.64-11.41-5"/>
  </g>
  <path class="usherWatchBand" d="M4.87,163.53A48.1,48.1,0,0,0,6.38,157a4.72,4.72,0,0,1,4.79-1.33l9.66,5a12.54,12.54,0,0,1,1.35,4c1.07-1.84.78-3.5-.1-4.37l-11.47-6c-5.33-1-7.68,5-5.94,9.21Z"/>
  <path class="watchSide" d="M22.08,160.31c-.43.82-3.34.14-6.51-1.52s-5.39-3.67-5-4.49l.85-1.64,11.48,6Z"/>
  <ellipse class="watchFace" cx="17.2" cy="155.66" rx="1.67" ry="6.47" transform="translate(-128.68 98.7) rotate(-62.36)"/>
  <path class="hairBlack" d="M47.12,20.29c7-2.91,3.86-12.38,16.07-13.1,9.3-7.92,13.93.56,20.92-6.92a3.35,3.35,0,0,1,3,2.53c5.5-.89,13,3.89,17.72.52a4.93,4.93,0,0,1-.8,5.56c7.89-2.52,11.05,7.69,17.76,6.21,0,2.82-.83,5.25-3.33,6.9,5.11,1.11,8.39,3.75,8.37,9.17,7.4,4.84,2,17.41,8.44,19.06-.28,2.07-6.05,3.53-9.56,2.27l.53,1.74c3.3.28,9.14,3.74,5.69,8.37,6.28,3.45,2.32,13.83,9.83,16a4,4,0,0,1-3.2,3c2.89,7-3.59,13,2.33,15.65-1.17,1.75-3,2.33-5.48,2-1.28,5.37-4.79,7.17-10,6.28,2,3.44-5.13,5.08.27,8-4.38,1.61-8.22,1.13-11.21-2.63-2.33,2-4.53,1.5-6.64-.54,2.26,6.75-9.13,5.51-3.23,10.78-7.47.41-15.84-2.31-20.2-14.46Z"/>
  <g class="mask290">
    <path class="skinAshkenazi" d="M40.53,52c-5.77,20.14,4.41,28.43.39,30.52-7,3-4.13,14.15,3.67,12.8,4.73.67,5.16,33.55,39.64,12.54C84.23,107.85,88,40.72,40.53,52Z"/>
    <g class="skinDisplayLine">
      <path d="M44.37,67a9.21,9.21,0,0,1,8-.2"/>
      <path d="M57.78,100.2a15.86,15.86,0,0,1-6.31,3.32"/>
    </g>
    <ellipse class="blackDark__noStroke" cx="47.21" cy="73.26" rx="2.67" ry="5.33" transform="translate(-13.51 10.74) rotate(-11.36)"/>
    <path class="hairRed" d="M86.19,110.8C91.32,81,84.61,41.92,73.66,8.4,67.2,10.24,59.47,12.15,52,13.8a7.34,7.34,0,0,0-1,2.69c-.43,2.45-6.76,8.64-11.35,8.42C30.5,24.46,23.39,47.39,29,54.51c5.95,7.6,22.27,12.66,43.91,9-.11,14.9-6.78,32.6,9,45A15.4,15.4,0,0,0,86.19,110.8Z"/>
    <path class="hairOverlapLine" d="M72.89,63.52a42.88,42.88,0,0,0-.07-7.07"/>
    <path class="maraHeadband" d="M72.82,56.45C60.87,42.57,46.08,28.4,39.63,24.91A28.73,28.73,0,0,1,51,16.49C61.67,22.61,70.21,38.25,72.82,56.45Z"/>
    <path class="maskBand" d="M86.08,61.91c11.28-2.08,25.43-5.44,39.67-9.42l.53,1.74C114.51,58.32,98.55,62,86.4,64.52Z"/>
  </g>
</svg>
