<svg viewBox="0 0 128.61 519.77">
  <g class="soleLightTan">
    <path d="M48.39,501.24c-6.84,2.12-13.21,4.4-17.5,6.69-5.11,2.72-12.09,2.84-15.09,2.7-5.54-.27-11.94-2.11-14.26-4.06-1.35-1.13-2-4.95-.23-6.38C35,491.08,55,489.19,48.39,501.24Z"/>
    <path d="M83.3,504.69c.92,2.17,1.35,6.46.67,7.22a13.81,13.81,0,0,1-8.4,6.37c-9.55,2.38-20.35,1-26.06-1.21-3.85-1.48-5.33-5.69-3.75-11.1Z"/>
  </g>
  <g class="usherShoe">
    <path d="M28.56,474.91c-5.51,6.53-11.9,14.57-17.9,15.53C4,491.51-.84,498,1.29,502.06s13.05,4.91,19.92,4.79c5.77-.1,11.21-4.53,19.8-6.42a26.38,26.38,0,0,0,11.26-5.84C49.72,481.63,42.12,474.7,28.56,474.91Z"/>
    <path d="M80,486.15c.89,8.2,5.23,15.55,4.17,19.85-1.16,4.69-3.7,7.88-8.65,8.8A64.42,64.42,0,0,1,51,514c-5.69-1.58-6.64-7-4.63-11.42,3-6.48,3.34-13.45,5.92-18.95Z"/>
  </g>
  <path class="usherPants" d="M18.62,246c-.08,18.59-5.4,29.28-5.48,43.61C12.93,325.34,24.79,386,24.77,394.27c0,10,2.41,20.58,3.17,29.9,1.68,20.84-2.13,38.42,2.23,40.91a18.08,18.08,0,0,1,0,5.78c-2.7.15-2,6.61-6.83,8.73,5.95-1.34,16.15,3.06,24.4,6.6-.43,2.6-.41,4.93.48,6.72,9.9-7.9,34.07-2.35,35,2.83-1.42-10.14,5.34-16.08.6-23.56C86.76,445.7,86,419.37,86,393.58c-.13-43.37,16.18-100.67,11.58-151C85.36,247,33,248.27,18.62,246Z"/>
  <g class="beltTan">
    <path d="M23.33,248.65c-2.07-.14-3.84-.31-5.24-.53-.77-.05-1.39,9.08-.62,9.14a43.88,43.88,0,0,0,5.68.71A50.13,50.13,0,0,1,23.33,248.65Z"/>
    <path d="M55.06,258a51.17,51.17,0,0,1-.37-9.26c-11,.42-21.6.45-29.13.07a50.81,50.81,0,0,0-.15,9.34C33.05,258.53,43.94,258.42,55.06,258Z"/>
    <path d="M86.45,246.63c-8.65,1.09-19.2,1.55-29.52,2a50.88,50.88,0,0,0,.38,9.25c11-.5,22-1,30.13-2A52,52,0,0,0,86.45,246.63Z"/>
    <path d="M98.2,244.66c-2.65.61-5.87,1.17-9.49,1.67a53.13,53.13,0,0,1,1,9.24,51.71,51.71,0,0,0,9-1.79C99.44,253.73,99,244.6,98.2,244.66Z"/>
  </g>
  <path class="clothingBrass" d="M45.68,247.44c1,1,1.49,11.47.3,12.45s-16.28.71-17.25,0-1.79-11.58-.47-12.53C29.25,246.64,44.55,246.36,45.68,247.44Zm-15.37,2c-1,.65-.42,8,.36,8.47s12.34.67,13.26,0,.55-7.76-.23-8.41S31.07,249,30.31,249.47Z"/>
  <path class="usherShirt" d="M122.81,160.38c-1.37-7-2.68-17.56-5-21.22-1.74-3-1.1-7.08-5.12-11.71-6.25-7.19-16.46-10.62-26-12.93-32.13-7.78-68.3-4.88-70.12,16.47-1.22,14.13-3.91,30.12,0,34-1.83,8.9-.3,21.07-1.1,30.61-1.19,14.24-4.76,23.42,2.07,29.27-4.88,4-4.51,18.79,1.07,21.11,14.41,2.26,66.74,1,78.92-3.43,6.59-18.33,3.84-30.82,3.44-40.24-.33-7.87,3.54-9.76-1.19-20.48,5.66,1.28,20.21-.9,25.55-5.18C127.57,168.19,124,166.47,122.81,160.38Z"/>
  <g class="usherShirtInner">
    <path d="M99.79,181.86c6.53,1.38,20.91-1.31,25.55-5.18.64-.53,1.66,5.29,1,5.82-3,2.54-18.5,6.58-25.21,5C100.43,187.33,99.05,181.7,99.79,181.86Z"/>
    <path d="M52.67,132.06c4.35-4.46,5.43-2.79,9.71-4.58,3.35-1.39,9,5,11.24,8.36,4.46-4.17,5.42-7.2,8.2-10.78,4.45-5.75,6.16-10,4.17-11.65-4.47-3.72-4.29-7-8.17-8.73-9.33-4.16-23.24-3.82-30.07-1C41.45,106.55,37,116.72,36.54,131c4-3.95,7.31-6.3,9.38-5.66S48.24,128.46,52.67,132.06Z"/>
  </g>
  <g class="clothesDisplayLine">
    <path d="M34.67,264.77c1.16,9.53-.26,35.81,10.35,37.41"/>
    <path d="M73.62,259.92A64.88,64.88,0,0,1,83.49,275"/>
  </g>
  <g class="clothesOverlapLine">
    <path d="M45,302.18c0,17.63,2.27,45.54,1.68,54.77-1.06,16.33,7.13,98.4,1,129.24"/>
    <path d="M10.66,490.44c4-1.1,11.28-.49,14.62,1.14"/>
    <path d="M75.63,502.94c-5.14-4.63-18.33-5.34-24.28-2.21"/>
    <path d="M92.46,154.83c-.46,3.43,2.34,9.19,3.43,14.63.84,4.19.31,9.5,3.9,12.4"/>
    <path d="M16.58,165a101.18,101.18,0,0,1,6.16-23.1"/>
    <path d="M52.67,132.06a23.37,23.37,0,0,0-3.47,12.5"/>
  </g>
  <g class="clothesFoldLine">
    <path d="M35,294.64c-5.05-4.85-12.22-9.12-14.18-4.46"/>
    <path d="M47.46,293.48c8.69-10.13,18.59-13.72,29.71-10.68"/>
    <path d="M48.82,296.2c6-2.91,12.81-2.91,6.8,2.72"/>
    <path d="M38.34,301.25c-6.07-1.07-10.38-.36-9.71,5.43"/>
    <path d="M83.57,364.15C82.06,375.27,80.49,386.3,71.73,389"/>
    <path d="M31.35,390.17c6.43,4.13,10.66.19,14.17-6.41"/>
    <path d="M79.88,476.17c-9.51,7.38-24.46,11.85-26.79,4.28"/>
    <path d="M83.82,472.18a11.68,11.68,0,0,1-4.32,10.21"/>
    <path d="M30.17,465.08c4.48,2.16,7.78,5.85,0,5.78"/>
    <path d="M46.68,463.75c-5.43,12.23-12.42,6.6-15.72,12"/>
    <path d="M116,165.11a31.57,31.57,0,0,1-4.35,12.13"/>
    <path d="M112.85,144.56c0,12.45-2.8,29.88-10.89,30.82"/>
    <path d="M91.22,136.47c-1.06,6.15-2,12.51-.77,19.14"/>
    <path d="M86.08,143.32c.16,7,1.88,10.89,3.43,15.09"/>
    <path d="M75.19,148.76a25.62,25.62,0,0,0,10.43,10"/>
    <path d="M75.5,155.61c6.53,2.65,14.63,7.78,18.21,12.45"/>
    <path d="M28.35,123.4a33.61,33.61,0,0,0-5.3,16.34"/>
    <path d="M30.37,134.45a42.22,42.22,0,0,0-6.54,12.29"/>
    <path d="M20.72,136.66a49.07,49.07,0,0,0,.44,9.38"/>
    <path d="M53,177.77c4.1,4.35,11,7.51,18.41,10.44"/>
    <path d="M41.18,173.48c4.38,6,10.77,11,18.1,15.54"/>
    <path d="M95.9,212.86c-6.65,9.3-22.64,17.39-36.52,15.65"/>
    <path d="M98.76,223.81c-4.19,5.51-13.81,8.68-5.52,12"/>
    <path d="M82.91,234.74c-2.46-4.8-12.71-1.05-13.4,2.15-.51,2.35,9.31,7.16,16.16,4.91"/>
    <path d="M61,243.13c3.46-1.77,6.44.25,9.31,3.11"/>
    <path d="M22.15,216.44c16.16,22.6,41.62,26.9,35.08,17.08"/>
    <path d="M17.55,224.9c4.4,3.81,11,5.35,7.26,8.31"/>
    <path d="M17.34,231.27c2,8.22,10.08,11.64,21.48,12.47"/>
  </g>
  <polygon class="usherLabelSide" points="80.12 160.12 81.34 160.38 80.04 169.24 78.85 169.16 80.12 160.12"/>
  <rect class="usherLabelFront" x="55.37" y="158.39" width="24.23" height="9.13" transform="translate(23.35 -7.81) rotate(8.01)"/>
  <g class="eye">
    <circle class="sclera" cx="81.79" cy="60.98" r="19.42"/>
    <g class="irisBrown">
      <ellipse cx="75.67" cy="61.04" rx="3.74" ry="3.23" transform="translate(9.88 132.62) rotate(-86.31)"/>
      <ellipse cx="97.18" cy="62.42" rx="3.74" ry="2.88" transform="translate(28.63 155.39) rotate(-86.31)"/>
    </g>
    <g class="pupil">
      <ellipse cx="76.08" cy="61.06" rx="1.46" ry="1.26" transform="translate(10.25 133.06) rotate(-86.31)"/>
      <ellipse cx="97.64" cy="62.45" rx="1.46" ry="1.12" transform="translate(29.03 155.87) rotate(-86.31)"/>
    </g>
  </g>
  <g class="skinFilipino">
    <path d="M78,98.28l-.15,7.56c-1,14.66-16.68,11.89-25.13,26.22-2.48-9.33-10.81-19.62-6.54-25.24,1.1-5.21,1.16-11.12.21-19.94"/>
    <path d="M105.94,264.31c-1.45,4.46,3.53,17,1.3,26.22-1.06,4.37-2.08,6.27-5.13,6.34-1.12,2.8-3.42,6-7.83,5a6.68,6.68,0,0,1-7.68,1.76c-1.78,1.73-3.63,1.5-5.67.78-2.48-.87-3.62-3.5-1.54-6-1.65-.85-.73-3.21.4-7.28,1-3.66.26-6.3,1.81-11.33,3.42-10.72,5.55-11.88,8.6-19.12,7.45-16.95,8-41.28,13.4-61.64.26-1-1.82-8.62-2.38-11.53,6.74,1.54,22.15-2.49,25.15-5,1.3,7.3,2.32,14.31,1.9,18.16C126.18,219.89,116.46,241.52,105.94,264.31Z"/>
    <path d="M64.51,101.51C60,99.1,54.5,97.16,50.45,93,18.73,45.17,68.09,7.26,92.23,21.44c25.83,15.18,29.48,82.19-11.69,84.61C74.77,106.59,70.53,104.75,64.51,101.51ZM78.69,60.73A7,7,0,0,0,73,57.81a10,10,0,0,0-5.69,1.73c2.8,2,7.8,3.43,10.76,2C78.43,61.32,79.24,61.55,78.69,60.73Zm13.4,1.94c1.89,0,6,1.27,7.88-.28a4.44,4.44,0,0,0-3.52-1.67c-1.43-.09-3,.54-5.16,1.4C90.32,62.5,91.67,62.67,92.09,62.67Z"/>
  </g>
  <g class="skinOverlapLine">
    <path d="M102.11,296.87c.55-1.77,2.06-5,2.1-6.77"/>
    <path d="M94.28,301.87c1.52-2.58,4.18-7.86,4.57-10.81"/>
    <path d="M86.6,303.63c1.39-1.29,5.75-8.58,6-11.77"/>
    <path d="M86.2,284.25c-1.13,6.17-.67,9-3.13,12.89-1.68,2.65-3,1.45-3.68,1.28"/>
  </g>
  <g class="skinFoldLine">
    <path d="M80,299.81a2.1,2.1,0,0,1,1.1-1"/>
  </g>
  <path class="usherWatchBand" d="M91.3,256.39a85.92,85.92,0,0,1,15.89,6.4c1.17.76,4.16-6.18,2.84-7.12-5.28-2.84-12.13-5.53-16.13-6.34C92.18,249,89.88,255.77,91.3,256.39Z"/>
  <path class="watchSide" d="M99.89,262.55c-2.36-.82-3.31-4.22-2.13-7.6s4-5.45,6.38-4.63l1.59.55-4.25,12.23Z"/>
  <ellipse class="watchFace" cx="103.6" cy="256.99" rx="6.47" ry="4.51" transform="translate(-173.16 270.38) rotate(-70.81)"/>
  <path class="lipMaleBrown__noStroke" d="M82.75,87.44a3.56,3.56,0,0,0,3.51.19c1.47.89,1.55,2,3.55,2.15-2.41,1.71-1.06,6-7.33,5.8-6.49-.15-7.4-5.17-9.59-5.92C78.15,89.24,80.49,87.51,82.75,87.44Z"/>
  <path class="teeth" d="M86.4,89.44c-1.38,1.67-4.61,1.31-7.05.1C82.19,88.79,83.64,90,86.4,89.44Z"/>
  <g class="lipOverlapLine">
    <path d="M90.4,89.54c-.91.64-3.28.25-4-.1a5,5,0,0,0,1.17-.36"/>
    <path d="M79.35,89.54c-2.64.63-4-.6-7.31.31"/>
  </g>
  <g class="lipEdgeLine">
    <path d="M86.26,87.63a3.56,3.56,0,0,1-3.51-.19"/>
    <path d="M88.06,92.63c-2.16,3.89-8.06,3.81-11.92.42"/>
  </g>
  <g class="noseLine">
    <path d="M90.08,70.65c0,3.82,4.7,7.88.55,11"/>
    <path d="M78.12,77.26a2.86,2.86,0,0,0,.2,4.31"/>
    <path d="M80.56,80.65c.73-1,3-.67,4.4.48"/>
    <path d="M90.39,80.8c-.66,1.31-4.18,2.73-7.38.69"/>
  </g>
  <path class="eyeLidLine" d="M100,59.61c.55.73.8,2.28,0,2.78.39.19.5.42.35.69"/>
  <g class="eyeFoldLine">
    <path d="M99.09,64.86a5.7,5.7,0,0,1-5.93-.09"/>
    <path d="M77.67,63.34c-1.57,1-5.91,1.83-8.48-.16"/>
  </g>
  <path class="eyeCornerLine" d="M64.86,59.85a7.36,7.36,0,0,0,2.42-.31"/>
  <g class="eyeCreaseLine">
    <path d="M91.29,62.12c3.36-5,8.58-2.77,9.18-1.31"/>
    <path d="M67.21,57.89c3.08-2.07,9.75-3.55,11.48,2.84"/>
  </g>
  <g class="eyebrowBlack">
    <path d="M104.18,52.32c-4.19-1.61-6.35.28-11.33-.07.08,4.09,6.19,2.24,10.48,4.22A8.94,8.94,0,0,0,104.18,52.32Z"/>
    <path d="M82.13,50c-.08,4.81-10.22-.51-16.53,2.32-.93.42-2.19-1.3-1.79-1.81C71.82,44.45,74,49.28,82.13,50Z"/>
  </g>
  <path class="hairBlack" d="M92,112.63a7.66,7.66,0,0,0,.65-4.65c1.62,6.47,14.52,3.88,8.15,10.46,7.23-1.06,10.31-4.71,10.25-10.32,2.11,1,3.7.23,5-1.28-5.48-5,4.8-11.45-.86-18.79a5.49,5.49,0,0,0,4.45-4c-6.92-1.54-1-11.24-6-15,2.18-2.19,1.89-4.85.16-7.76a5,5,0,0,0,4.51-2.83c-9.11-4.26-1.86-15.62-8.33-17.54a4.36,4.36,0,0,0,4-2c-5.4-1.46-2.67-15.49-9.28-15.08,2.24-4.72-.83-4.41-2.54-6.8-1.55-2.17-.49-4.75-5.54-4.5a4.34,4.34,0,0,0,2.62-3.91C92.92,11.05,89.06-2.54,68.44,2.68,45.3-6.23,40.13,12.48,32.7,8.92A6.71,6.71,0,0,0,34,13.06c-4.29,4.46-10.3,4.66-8.2,10.67C17.75,28.16,23.29,38.09,17.31,41a4.69,4.69,0,0,0,2.93,2.36c-6.63,4-3.15,17.49-9.78,15.89a4.34,4.34,0,0,0,3.22,4.4c-2.87,4.67-3.48,9.62-.69,15-7.7,7.74,1.6,14.91-6,20a4,4,0,0,0,3.46,2.88c.5,2.78,2.13,4.15,4.84,4.17.61,9.24,11.83,1.74,8.35,9.87,4.93-.42,13.05-3.58,15.72-8.31,1,3.71,4.47,5,9,5.33-6.73-5,8.94-6.59,3.43-18.46,2,0,3.74-1.12,5.21-3-6.65-1.88-3.07-10.93-6.62-12.9,1.74.35,3.23-.52,4.59-2.12-5.59-1.81-1.36-8.89-4.69-11.32,5.37-6.72-2.33-13.3,1-18.12A4.36,4.36,0,0,0,53.13,49c1.82-8.69,11.78-7,13.68-9.46-1.1,1.84-1.43,3.45-.59,4.7,2.83-3.49,11-.45,14.1-7.21,6.69,3.07,10.94.81,13.57-5,2.87,6.38,10.32,7.83,7.93,14.92a2.54,2.54,0,0,0,2-1c-.71,4.78,1.72,6-.73,11.16-3.26,6.89,1.24,10-2.11,19.75-2,6-4.23,13.77-6.62,16.87-4.15,5.37-5.13,11.09-13.8,12.38C82.8,110.62,90.16,108.33,92,112.63Z"/>
  <g class="hairOverlapLine">
    <path d="M103.8,45.89A5.9,5.9,0,0,0,106,42.34"/>
    <path d="M51.25,46.65a9.65,9.65,0,0,1-.58-4.42"/>
  </g>
</svg>
