<svg viewBox="0 0 186.77 148.49">
  <g class="blanket">
    <path class="lizBlanket" d="M90.61,21.87c16.9-25.81,75.9-23.82,75.9,2.65,10.42,9.14,18.76,18.53,13.75,26.55.54,4.11,2.23,6.3,2.3,9.93,3.89,2.56,4.24,6,3.82,10.32-1.72,17.38-32.47,16.23-35.91,10.31Z"/>
    <g class="blanketFoldLine">
      <path d="M166.51,24.52c-13.09-8.73-8.39-12.1-5.7-7.53"/>
      <path d="M180.26,51.07c-1.15-7.82-8.13-14.17-16.74-16.69"/>
      <path d="M182.56,61c-.55,6.44-3.67,10.48-11.41,10.2"/>
      <path d="M156.53,61.15c2.88,11,12.36,18.75,22.74,14.69"/>
    </g>
  </g>
  <path class="lizUndershirt" d="M163.43,26.73c7.39,1.72,14.7,11.32,12.61,19.81-1,54.62-26,57.68-69.06,21.85C107,68.39,102.64,7.12,163.43,26.73Z"/>
  <g class="clothesFoldLine">
    <path d="M157.51,55.41a51.2,51.2,0,0,1-2.61,9.91"/>
    <path d="M158.31,62a73.1,73.1,0,0,1-2.88,10.35"/>
  </g>
  <g class="skinIndian">
    <path d="M110.65,23.94l3.44-6.18c10.87,11.52,33.48,15.47,35,17.37,6.12,7.78-.15,35.58-9.3,37-7.31,1.16-13.92-3.22-33.31-6"/>
    <path d="M165.09,109.27c-.38,3.84-4.3,4.57-5.37,17.72.28,4.19-1.82,8.75-2.23,11.6-.11,2.18,5.18,1.83,5.74-4.28a21.38,21.38,0,0,1,2.29-5.64c.23,1.93,2.75,3,2.1,8.57-1.45-.86-3.66.11-3.63,1.65,0,.65,1.41.58,1.94,2.08-3.8-1.3-4.31,1.44-4,2.08-3.9.82-4.14,5.73-1.54,5.14,1.74-.74,2.42-.12,4-.86,3.35.76,9.2-1.07,10.47-3.4,2.85-1.23,4.11-7.44,5.24-10.17,1.52-3.72-3.2-13-2.76-22.23,1.18-21.63,4.79-46.48,1.18-58.86S162.94,27.6,153.8,12.11C143.68-5,128.51-3.39,115.51,15.72c4.93,5.75,16.34,11.24,25.59,13.82,4.74,7.83,17.8,26.66,17.54,28.59C156.91,70.77,166.49,90.22,165.09,109.27Z"/>
    <path d="M115.74,76.27A7.58,7.58,0,0,0,119.36,74c8.6-1.16,18.12-7.78,19.83-14.86,1.63-6.74,5.31-7,5.51-13.64.11-5.09-3.51-7.65-6.24-11.2-3.41-4.43-4-8.55-10.87-12C100.29,2.13,115.74,76.27,115.74,76.27Z"/>
  </g>
  <g class="skinOverlapLine">
    <path d="M135.29,23.44c2.76,1,4.2,4,5.81,6.1"/>
    <path d="M143.11,54.46c2.17.16,4.61,1.59,6.83,2.35"/>
    <path d="M174.26,134.62c-2.23,7.73-1.83,8.44-10,12.71"/>
    <path d="M177.67,134.47c-.18,2.38-2.08,7.67-2.9,9.46"/>
    <path d="M167.62,137.24a5.55,5.55,0,0,1-2,4c-2.54,2.48-2.22,1.44-3.78,1.83"/>
  </g>
  <path class="skinCreaseLine" d="M158.64,58.13a13.4,13.4,0,0,1,3.63-1.63"/>
  <path class="lipFemaleBrown__noStroke" d="M137,38.05c1.73,3.35,5.73,3,6,8.73.16,3.76-1.42,4.81-4.41,8.16,1.26-2.22,3.48-3.19,3.36-7.6C141.73,41.15,137.09,40.6,137,38.05Z"/>
  <g class="lipEdgeLine">
    <path d="M138.54,54.94c1.26-2.22,3.48-3.19,3.36-7.6-.17-6.19-4.81-6.74-4.93-9.29"/>
    <path d="M140.43,41.45c3.57,2.7,2.91,8.25,1.11,10.1"/>
  </g>
  <path class="cheekLine" d="M135.6,37.53c-1.16,3.13-3.1,5.21-3.73,7.47"/>
  <path class="noseLine" d="M132.3,57.3c1.8,1.34,3.93-.16,4.84-1.79.49-.9,3-2,3-4.62,0-3.64-3-4.17-3.48-5.12-.9-1.86-3.56-3.56-4.8-.77"/>
  <g class="eyeLashLine">
    <path d="M121.85,34.13c7.25,3.62,4.31,8.2,5,11.18"/>
    <path d="M127.35,57.72c.2,3.09,3.8,6.15-2.55,11.88"/>
  </g>
  <g class="eyebrowBlack">
    <path d="M118.08,32.58a19.71,19.71,0,0,1,7.84,15.25C125.15,45.06,123.66,37.38,118.08,32.58Z"/>
    <path d="M125.78,58.2a18.91,18.91,0,0,1-4.66,14.47C125.43,66.74,125.07,62.3,125.78,58.2Z"/>
  </g>
  <path class="hairBlack" d="M95.11,11.75c-7.38.85-18.1-1-25.18,4.7C63.36,23.25,54.62,25.3,47.68,39c-10.33,20.33-5.18,46.6,0,36.69,1.51,5.27,7,10.81,9.53,6.1C64.13,87,72.55,85,82,85.19c12.93.22,25.5,2.45,32.28-7.8,2.22,7,8.61-1.72,2.65-13.77,6.92-5.47,4.75-9.66,1.59-7.82,6-12.85,4.67-19,.13-14.71.26-8.66-.71-14.45-3.3-16.37a13.86,13.86,0,0,0,2.38-4.31c4.22,1.11,6.07.63,9.83,1.95.41-3.68-2.27-3.56-3-3.68C116.21,17.38,113.07,9.7,95.11,11.75Z"/>
  <g class="hairOverlapLine">
    <path d="M112.74,27.27c.24-2.38,1.05-3.4,2.64-2.55"/>
    <path d="M117.76,20.41a6.5,6.5,0,0,0,.57-2.23"/>
  </g>
  <g class="pillow">
    <path class="lizPillow" d="M88.77,61.12c39.78-7.83,59.73,7.84,74.79,9,6.75.51,9.17,7.22,2.83,10.91-7.18,4.17-10.63,14.45-25.95,15.26-29.72,1.56-90.49,1.31-119,0-7-.32-10.84-5.66-16-6.27-6.62-.8-6.9-7.7-.73-9.43C15.49,77.54,33.1,53.29,88.77,61.12Z"/>
    <path class="pillowDisplayLine" d="M158.7,80.18c-13.3,5.23-16.13,10.9-20.93,11.77"/>
  </g>
</svg>
