<svg viewBox="0 0 176.8 99.14">
  <path class="lizBlanket" d="M123.8,43.41c4.63,6.62,14.38,9.87,14,26-.18,8.56,5.36,16.14,11.76,21.11L.41,90.17c7.36-14.64,7-52,25.42-63.54A46,46,0,0,1,46.25,9C63.42-5.62,97.61-.38,108.13,13.4,117.09,19.11,121.89,29.6,123.8,43.41Z"/>
  <g class="blanketFoldLine">
    <path d="M25.83,26.63c-11.45,19.53-9.7,35.88-13.32,52.73"/>
    <path d="M46.25,9a25.3,25.3,0,0,1,16.42.23"/>
    <path d="M60.18,4.86c10-2.24,27.39.95,35.41,6.76"/>
    <path d="M92.58,31.21c6.69,3.28,10.67,7.61,14.51,14.08"/>
    <path d="M112.33,31.81c3,3.38,4.54,6.14,5,9.49"/>
    <path d="M109.47,57.14c5.11,7.24.49,12.73,4,21"/>
    <path d="M112.46,40.8c3.2,7.2,9.11,12.1,15.94,16.75s3.8,14.88,2.81,24.31"/>
    <path d="M123.8,43.41a25.66,25.66,0,0,0,1.29,6"/>
  </g>
  <g class="skinIndian">
    <path d="M23.7,88.63c-1.9-14.92,2.83-20.42,2.38-29.08C24.75,34.33,37.63,11.94,55.57,9.85,75.78,7.49,86.27,12.32,92,11.78c15.89-1.49,31.37,8.24,46.11,9.8,8.73.4,13.45-5.07,17.9-3.31a29.42,29.42,0,0,0,8.8,3.15c8,1.33,7.83,4.11,11.25,5.59,1.27.54-.35,2.89-2.65,1.76.76.78,1,1.32,1.86,1.86,1.47,1.32-2.64,4.66-6.95-.54-3.19-1.91-6.07-2-9.25-2.2-2.64-.15-3.54-.93-8.81,1.87,2.73,3.08,9.58,4.64,8.44,8.34-1.08,2.19-4.81.5-10.07-2-4.29-2.06-7.1-.84-12.44-6.22-15.87-.41-31,4.46-43.65,1.36-2.49-.61-12.27-.91-18.88-1.08-3.11-.08-5.54,1.07-6.61,3.2"/>
  </g>
  <path class="skinOverlapLine" d="M156.26,22c2.84.59,6.29.44,9.26,1.62,2.76,1.1,5.19,1.62,7.93,5.19"/>
  <path class="skinCreaseLine" d="M96,19.74A23.91,23.91,0,0,1,94.82,28"/>
  <path class="lizUndershirt" d="M67.09,35.89C58.28,35.4,37,32.64,31,31.07c-1.22-.32-.21-2.93,1.19-2.51,8,2.21,25,4,34.88,4.77Z"/>
  <path class="hairBlack" d="M100.71,94.39c9.81,1,15.19-4.14,9.19-5-3.23-.48-4.48.78-11.16-2.91,5.34,2.28,8.09-10.36,6.52-13.74,4.32-3.3,5.89-7.85,2.36-8.8,3.06.16,3.14-19-2.51-15.55C103.42,38.71,94.43,32,94,35.81,89.32,31.41,77.46,23.87,76.6,29c-23.4-7.39-27.65.51-34.95,1.57C25.4,32.9,24.81,43.74,20.53,48.14,8.67,60.34,7.26,78.77,13.07,73.82c-3,11.07,4,25.91,7,17.12,7.69,9.58,21.75,8.24,40.66,7.27C77.14,97.37,107.7,101.54,100.71,94.39Z"/>
  <path class="hairOverlapLine" d="M98.74,86.46a16,16,0,0,1-7.61,5.18"/>
</svg>
