<svg viewBox="0 0 209.96 407.14">
  <g class="lizJeans">
    <path d="M85.74,229.24c7.22,32.21,8.05,55.82,7.44,75.37-.06,1.75,2.4,2.73.11,4.59,1.92,10.45,3.1,33.74,4.15,52.49l-18.38,1.64c-5.36-24.82-15.52-33.91-12.86-55-3.28-2.07,1.09-.87-1.42-12.34Z"/>
    <path d="M33.82,194.43l58.26,8.91c-5,34.38-16.85,74.72-29.71,101-2.6,5.34-2.08,7.55-5.81,12.56.55,1.09-.23,2.65-1.44,2.52C48.65,333.64,39,351.56,28.69,369.06L12.26,362.3c7-20.27,5.77-42.95,19-56.86-1.91-2.76,1.29-.91,3-8-1.95-1.87.86-3,.86-3.82,0-2.74-2.18-26.22,1.29-47-2.42-1.58.61-3.2-.26-3.62-2.74-1.33.1-3-.91-4.49C26.19,225.44,26.62,208.78,33.82,194.43Z"/>
  </g>
  <g class="lizJeansCuff">
    <path d="M30.12,366.63c-4,.31-15-4.72-17-7.07-2.18-.49-5.07,7.49-3.74,8.91,7,5.28,13.55,6.93,18.26,4.11C28.73,373.5,31.45,367.47,30.12,366.63Z"/>
    <path d="M78.93,368.78c-1.66,0-2.24-8.14-.69-8.93,5.61,1.27,15.7,1,19-1.18,1.73,0,2.15,7.63,1,7.68C94,370.81,87.1,371,78.93,368.78Z"/>
  </g>
  <g class="soleLightTan">
    <path d="M124.94,396.33a4.53,4.53,0,0,1,0,2.34c-3.06,3.77-13.1,2.83-18.65,1.58-4.65-1.05-5.57-1.9-8.5-2.85l.08,3.51c-4,.22-15.53.13-16.19-1a23.49,23.49,0,0,1-3-8.88Z"/>
    <path d="M46.31,402a4.5,4.5,0,0,1-.1,2.47c-3.18,3.66-13.18,2.38-18.69.94a87,87,0,0,1-9.62-3.13l0,3.51c-4,.08-13.83-.38-14.46-1.5a23.73,23.73,0,0,1-2.66-9Z"/>
  </g>
  <g class="lizShoe">
    <path d="M78.93,368.78c-.27,11.19-1.48,13.25-.22,22.28,2.73,2.06,15.66,2.06,21.81,4.73,8.55,3.71,21,4.19,24.42.54.32-1.91-1.44-4.58-4.43-5.14-6.19-1.16-11.08-6.82-16.37-11.21-4.39-3.64-5.8-7.91-5.87-13.63-2.62-.26-3.68.6-4.08,2.18C91.49,368.3,79.25,368.22,78.93,368.78Z"/>
    <path d="M9.42,368.47C6.63,378.06-1.87,385.06.74,395.34c2.66,2.16,13.76,2.87,20,5.45,8.54,3.58,22.13,4.91,25.62,1.37.38-1.9-1.28-4.63-4.25-5.29-6.15-1.37-9.22-4.54-13.8-10.39C24.75,382,26,378,27.68,372.58c-2.07-.61-4.36-2.59-6,0C19,372.26,9.77,367.93,9.42,368.47Z"/>
  </g>
  <path class="hairBlack" d="M76.71,83.34l23.7-1.52c-1.26,7.41,6.43,1.16,10.47-6.56,2.51,5.07,4.83-4.94,4.2-12.49,5.46,6.31.83-14.85-4.61-23.36C104.91,30.72,107.69,18.79,92,6.79,80.74-1.78,58.91-3.12,46.51,10c-13.74.12-10.44,11.83-17.84,21.78C21.74,41.15,25.53,50.31,23,56c-8,18.19,9.42,43.13,9.11,32.5,12.45,9.87,26.06,10.17,19.2,4.07,10.6.43,16.53-2,11.74-4A27.86,27.86,0,0,0,76.71,83.34Z"/>
  <g class="hairOverlapLine">
    <path d="M98.06,27.79c2.72-1.61,2.45-3.45.08-3.82"/>
    <path d="M49.88,47.47A17.93,17.93,0,0,0,56.44,45c-2.79,2.16-3.41,4.31-.6,3.66"/>
  </g>
  <g class="skinIndian">
    <path d="M168.82,169.06a51.78,51.78,0,0,0-7.19-1.1c2.35-4.14,4.22-10,3.43-12a51.78,51.78,0,0,0,5.4,1c4.09-4.7,8.77-4,15.1-8.51,1.78-1.27,2.67-.86,5.11-2.69,3.64-1.12,2.68,5.11-2,6.8a14.26,14.26,0,0,0-3.72,2.67c5.2,2.75,10,5.52,17.94,5.52,5.11-1.56,8.25,1.72,6.17,3.28-2.43.12-5.22,2.27-11.55,1.32a23.26,23.26,0,0,0,4.68,1c5.5-1.55,8.43,2.47,5.68,3.9-1.79.19-3.05.63-4.16.76,2.31.75,2.28,4.18-.25,3.95-2-.18-2.72.48-4.39.49a2.3,2.3,0,0,1-1.47,2.8c-6.9,1.45-10.83-2-15.34-2.84C178.15,174.51,172.38,173.89,168.82,169.06Z"/>
    <path d="M130.45,142a77.39,77.39,0,0,0,6.46-7.23c2.76-3.24,4.72-2.46,8.7-7.31s6.92.93,1.32,5.37a19.55,19.55,0,0,0-2.33,3.11c4.23,0,10.26,1.39,18.27-.08,6.35-2.35,9.54.51,6.73,2.77-4.22,1.85-9.93,2.18-16,2.36a52.05,52.05,0,0,0,11.85,0c5.76-1.89,9.32,1.28,6.58,3.41-1,.71-6.08,1.2-13.15,1.4l5.45.47c5-.82,7.43,1,6.3,3.18-1.43,1.21-3.33,1.06-6.07,1.33,2.91,1.94.48,4.11-3.37,3.82C152,156.35,141.45,150.6,130.45,142Z"/>
    <path d="M53.2,68.84C58.74,72.92,60,79,59.38,85.7c8.74.38,20.66,4.9,27.39,10.23-1.11-6.79-.68-14.38,7-19.3Z"/>
    <path d="M57.09,70.48c-2.54,5.68-6,1.83-7.07,1.06-15.25-10.89-6.45-23.37.19-15.22,3.75,3.48,7.45,3.24,6.08-.26-1.69-3.45-.79-5-.45-7.42,5.09-1.27,6.69-5.93,11.19-11.75-.21,6.87,6.53,0,3.76-9.11C76.67,38,89,34.36,85.52,31.44a18.48,18.48,0,0,0,12.54-3.65c3.14,4.86,2.72,9.72,4.74,13.38,5.92,10.71,7.06,20.24,3.1,30.44-1.2,3.09-.62,7.52-5.87,10.75-4.79,3-8.93,1.82-12.88,2-10.81.61-16.9-2.09-23.59-7.54"/>
  </g>
  <g class="skinOverlapLine">
    <path d="M192,164.36c.9-.16,3,.74,5.56.93"/>
    <path d="M189.36,168.29a26.49,26.49,0,0,0,14.35,2.61"/>
    <path d="M188.3,172.81c3.58,1.26,6.09,2.89,10.77,2.53"/>
    <path d="M158.9,145.77c-1.84,0-3.62-.07-5.35-.21"/>
    <path d="M164.58,150.75a107.79,107.79,0,0,1-11-.61"/>
  </g>
  <g class="skinFoldLine">
    <path d="M144.6,135.9a3.86,3.86,0,0,1-1.26,1.53"/>
    <path d="M153.32,140.1a1.9,1.9,0,0,1,0,1.9"/>
    <path d="M153.21,144.39a1.61,1.61,0,0,1,0,2.18"/>
    <path d="M185,155.17c-.53-.3-1-.62-1.55-.93"/>
    <path d="M50.2,60.31c-5.55-9.65-10.56,1-1.2,7.42"/>
    <path d="M50.88,62.37c-.48,2,3.32,4,1.84,5.08-1,.72-1.22-2-3.07-2.44-3-.65-3.93-6.89-1.23-4.61"/>
  </g>
  <path class="skinCreaseLine" d="M147.92,139.81c-.2,3.83-1.73,6.15-3.45,7"/>
  <path class="lipFemaleBrown__noStroke" d="M87.28,71.76c2.65-.44,3.07-1.92,5.2-3.1,1-.54,2.93.9,4.63-1.59.57-.84,1.59-.11,3.22-1.5-1.31,2.51,1.5,4.73-1.42,7.27C94.7,76.51,90.69,71.71,87.28,71.76Z"/>
  <path class="lipFemaleBrown" d="M87.28,71.76c2.65-.44,3.07-1.92,5.2-3.1,1-.54,2.93.9,4.63-1.59.57-.84,1.59-.11,3.22-1.5-1.92.55-3.4-1.33-4.2-.35-1.18,1.46-2.41.76-3.52,1.21C90.74,67.2,91.89,69.2,87.28,71.76Z"/>
  <g class="lipEdgeLine">
    <path d="M99.92,68.1c.55,2.63.12,3.82-1,4.74-3.83,3.1-6,.06-8,.28"/>
    <path d="M92.48,68.66a2.88,2.88,0,0,0,1-1.69"/>
    <path d="M97.11,67.07a2.6,2.6,0,0,0,.06-1.4"/>
    <path d="M96.26,70.08a3,3,0,0,0-2.1-1.49"/>
  </g>
  <g class="cheekLine">
    <path d="M96.88,58.24a15.59,15.59,0,0,1,3.89,3.32"/>
    <path d="M84.73,60.55c-1.07,1.75,0,3.71-1.56,6.3a8.21,8.21,0,0,0-1.44,3.62"/>
  </g>
  <g class="noseLine">
    <path d="M88.72,46.31c5,8.4,10.12,10,7.45,14-.78,1.17-.64,1.57-2,2.49-1.86,1.26-3.83-.17-6.55.69-2.48.79-3.38-2.07-2.91-2.93"/>
  </g>
  <g class="eyeFoldLine">
    <path d="M98.83,43.61c-.77,1.47-4.1,2.85-6.68,2.34"/>
    <path d="M79.18,51.49A6.74,6.74,0,0,1,73,54.58"/>
  </g>
  <g class="eyeLashLine">
    <path d="M80.57,48.74c-4.81,1.73-6.29,5-13.35,5.69"/>
    <path d="M99.67,40.35c-3.06,3.51-7.35,2.95-9,4.35"/>
  </g>
  <g class="eyebrowBlack">
    <path d="M63.59,50.05c3-5.16,10.48-9.48,14.78-9,1.17.12-.79,2.44-2.08,2.58C70.66,44.23,67,45.92,63.59,50.05Z"/>
    <path d="M101,35.55c-4.48-2.75-11.1-.52-13.82,1.82-.89.77,2.48,1.47,3.56.75C94.35,35.68,95.67,34.7,101,35.55Z"/>
  </g>
  <path class="lizJacket" d="M56.33,93.59c9.79-1.77,21.73.75,33.51,5.18a9.49,9.49,0,0,1,6.63,7.58c5.2,3.16,2.14,7.08,9,12.38,4.09-.84,3.75,3.18,5.48,4.74,2,1.76,4.37,2.32,5.11,5.57,3.35-.46,1.67,3,5.85,5.3,1.68-.93,3,.24,2.51,1.73,1.4,1.8,4.75.09,3.9,3.28,5.21.38,4.15,1.38,8,3.53,4.65,2.61,11.71,5,18.21,9.3,2.1-2,4,1.2,9.94,3.06,3.44,1.67-4.51,19-8.1,17.93-45.5-16.72-44.76-21-49.59-22.39-1.21,2.14-3.72,5.23-5.29,6-2,11.71.46,45-2.14,47.48-8.2,5.94-67.73-5-68.84-9.66,1.11-6.79,5.92-15,7.77-23.79-1.3-3.43,1.3-4.55,2.51-7.06-1.95-5.11,2.23-9,2-14.49-1.32-2.43,1-5.23,1.46-7.71C45.05,136.88,46.83,109.88,56.33,93.59Z"/>
  <path class="lizJacketLapel" d="M56.33,93.59c-1-.71,1.12-7.59,2.68-7.9,10.3.31,24.92,6.54,30.83,13.08a17.44,17.44,0,0,0-8.4-.62C75.1,95.85,65,94.36,56.33,93.59Z"/>
  <g class="clothesDisplayLine">
    <path d="M35.11,200.81c-5.51,8.47-5.75,25.33-.57,34.33"/>
    <path d="M88.91,214.58c-2.62,3.11-9.42,4.39-15.16,3.25"/>
    <path d="M91.15,360.38c.83.69.55,7.54,0,8"/>
    <path d="M93.91,359.93c.79.45.79,7.88-.2,8.57"/>
    <path d="M21.9,364.54c.54,1.23-2,7-3,7.29"/>
    <path d="M24.86,365.64c.34.9-1.65,5.49-2.58,6.19"/>
  </g>
  <g class="clothesOverlapLine">
    <path d="M80.7,131c6,2.06,19.33,16.37,26.08,19.74"/>
    <path d="M101.49,156.75a21.73,21.73,0,0,0-6.22,4.63"/>
    <path d="M94.19,368.53A45.05,45.05,0,0,0,94.7,382"/>
    <path d="M21.64,372.58c-2.39,4.2-3.19,9.32-3.8,13.45"/>
  </g>
  <g class="clothesFoldLine">
    <path d="M83.41,136.86c-3.87,3.22-8,6.82-12.72,8.86"/>
    <path d="M75.22,139.25a64.12,64.12,0,0,1-14.13,4.2"/>
    <path d="M42.74,149.23c1.55,1.52,5.15,2.61,9.71,3.5"/>
    <path d="M40.79,163.72c1,1.81,4.7,3.71,8.54,5.61"/>
    <path d="M38.28,170.78c1.36,1.79,5.12,3.27,9.21,4.69"/>
    <path d="M74.14,163.51a45.24,45.24,0,0,0,16.71-4.75"/>
    <path d="M83,166.42a56.48,56.48,0,0,1-15.2.43"/>
    <path d="M88.69,179.57c-6.79,8.3-20.48,12-31.69,10.13"/>
    <path d="M97,186.9c-1.57,5.08-3.84,9.66-7.44,13.26"/>
    <path d="M81.44,98.15c-9.67,2-15.28,10.56-14.42,6.57"/>
    <path d="M96.47,106.35c-10.8-5.94-19.31,2.54-20.82,2.25-2.29-.44,7.11-8.84,15.2-6.25"/>
    <path d="M99.26,112.05c-4.85-6.9-12.72.22-19.19,4.21"/>
    <path d="M105.48,118.73c3.47,2.16.78,5.3-6,7.35"/>
    <path d="M116.07,129c-1.72.6-2.69,2.07-4.85,2.86"/>
    <path d="M121.92,134.34c-1.86.69-3.41,2.63-4.23,1.12"/>
    <path d="M124.43,136.07c-3.83,4.46-7.06,10.39-.49,6.08"/>
    <path d="M128.33,139.35c-1.2,2.66-1.41,4.34.79,3.66"/>
    <path d="M154.53,152.18c-1.38,1.45-2.79,3-3.31,1"/>
    <path d="M36.19,243c4.51,1.37,15.77,1.53,22.4.27"/>
    <path d="M36.45,246.58c2,.94,6.52,1.53,9.63,1.53"/>
    <path d="M34.3,297.42A23.37,23.37,0,0,0,40.4,300"/>
    <path d="M31.29,305.44c1.54,1.7,5.82,3.49,10.25,4.67"/>
    <path d="M55.12,319.47c-2.16,0-5.26-1.23-8.17-2.54"/>
    <path d="M66.2,308.32a29.79,29.79,0,0,0,9.33.14"/>
    <path d="M93.29,309.2c-2.15,1.2-6.27,2.19-10.53,2.19"/>
    <path d="M39.41,245.52a44.54,44.54,0,0,0,12.18.58"/>
    <path d="M38.71,240.08c10.53,2.09,23.41-1.33,22.45-4.29-.68-2.09-13,3.24-19.49,1.68"/>
    <path d="M36.56,297c1.78,1.14,5.72,2.06,8.51,2.27"/>
    <path d="M33.48,304.6c2.36,1.88,7.94,3.71,11.5,4"/>
    <path d="M37.72,302.34a39.31,39.31,0,0,0,13.36,3.27"/>
    <path d="M55.36,317.54c-2.59.19-7.35-1.49-9-2.74"/>
    <path d="M67.48,306.29c3.37.43,9.14.19,12.12-.87"/>
    <path d="M92.49,307.39a23.25,23.25,0,0,1-11.59,2.36"/>
    <path d="M87.22,344.65c2,3.62,4.55,6.31,7.86,7.75"/>
  </g>
</svg>
