<svg viewBox="0 0 140.58 312.06">
  <g class="food">
    <g class="cartonDark">
      <polygon points="129.46 111.48 115.86 116.43 111.5 123.78 131.19 116.67 131.96 113.09 129.46 111.48"/>
      <polygon points="103.59 120.43 97.56 125.23 99.53 128.07 102.69 129.87 111.5 123.78 108 121.39 103.59 120.43"/>
    </g>
    <g class="cartonMedium">
      <polygon points="126.91 110.5 113.07 115.1 110.5 119.46 111.5 123.78 131.19 116.67 130.44 112.59 126.91 110.5"/>
      <polygon points="115.17 149.36 102.69 129.87 111.5 123.78 122.67 145.81 115.17 149.36"/>
      <polygon points="111.5 123.78 108.29 133.03 122.67 145.81 111.5 123.78"/>
      <polygon points="102.69 129.87 111.46 131.02 115.17 149.36 102.69 129.87"/>
    </g>
    <polygon class="cartonLight" points="122.67 145.81 111.5 123.78 131.19 116.67 137.44 139.14 122.67 145.81"/>
    <g class="printLight">
      <polygon points="124.16 137.27 131.16 134.31 132.23 137.06 125.24 140.09 124.16 137.27"/>
      <polygon points="123.2 131.17 127.91 129.28 128.97 132.03 124.27 133.97 123.2 131.17"/>
      <polygon points="122.24 125.14 124.64 124.24 125.7 126.99 123.31 127.92 122.24 125.14"/>
    </g>
    <g class="printDark">
      <polygon points="123.25 140.95 134.09 136.25 134.87 138.27 124.05 143.05 123.25 140.95"/>
      <polygon points="123.44 134.31 129.77 131.71 131.96 133.98 123.33 137.62 123.44 134.31"/>
      <polygon points="122.48 128.24 126.51 126.67 128.71 128.97 122.36 131.5 122.48 128.24"/>
      <polygon points="121.53 122.24 123.23 121.62 125.45 123.93 121.41 125.46 121.53 122.24"/>
    </g>
  </g>
  <g class="lizJeans">
    <path d="M53.63,183.2c19.7.05,47.31,2.21,60.18,11.63,9.06,6.63,2.52,41.81-.68,73H96.78C93.73,233.46,80.77,204.48,53.63,183.2Z"/>
    <path d="M3.36,185.16c39.31.76,87.25-2.9,101,12.59,8,9-1.06,43-5.77,73.79H80.84c1-24.17-5.4-35.75-1.79-50C26.26,238-11,230.07,3.36,185.16Z"/>
  </g>
  <g class="soleLightTan">
    <path d="M139.6,299.37a3.38,3.38,0,0,1-.07,2.15c-3.16,3.16-13,3.51-19.23,2.2C120.5,297.56,129.54,297.68,139.6,299.37Z"/>
    <path d="M127.42,306.67a4,4,0,0,1-.07,2.43c-3.49,3.64-14.59,3.06-21.25,1.5-5.14-1.21-10.2-3.38-14.06-3.92v4.07c-4.51.13-11.94.16-12.65-.93a22.88,22.88,0,0,1-3.12-9.23"/>
  </g>
  <g class="lizShoe">
    <path d="M96.21,274.12c-1.29,9.77,7.84,22,15.52,25,11.63,4.56,24.31,3.5,27.87.21.37-1.75-1.39-4.84-4.48-5.41-6.37-1.18-11-5-16.4-9.08-4.46-3.42-5.67-7.73-5.63-13C107.84,269.78,96,272.32,96.21,274.12Z"/>
    <path d="M80.59,277.32c-1.4,11-5.53,13.91-4.32,23.27,5.11,3.9,12.77,1.57,21.07,5,12.56,5.15,26.24,4.82,30.08,1.11.4-2-1.5-4.77-4.83-5.41-6.88-1.32-11.89-6.46-17.7-11.11-4.83-3.85-6.13-9.41-6.09-15.33C95.31,273.3,82,275.36,80.59,277.32Z"/>
  </g>
  <g class="lizJeansCuff">
    <path d="M103.11,273.75c1.21-1.62,5.72-1.83,10-1.85,0,.41,0,.81,0,1.21,1.77-1.17,2-7.44.27-7.52-1.92.77-10.83,1.39-13.9.61l-1.19,7.47A32.8,32.8,0,0,1,103.11,273.75Z"/>
    <path d="M80.59,277.32c.38-.57,6.1-.53,9.1-.25,1.25-2.19,4.52-2.23,9.11-2.25.85-.22.75-4.42,0-4.6-1.82,1-15.78.85-17.94-.35C79.49,270.12,79.17,276.85,80.59,277.32Z"/>
  </g>
  <path class="hairBlackDark" d="M96.06,86.79c-6,1.73-9.58.43-6.19-2.06-4.59,1.46-8.17,1.17-10.71-.91C93.51,20.55,127.37,27.77,96.06,86.79Z"/>
  <path class="hairBlack" d="M61.42,84.7,99.3,44.56c-.36,9.79.42,18.95-2.44,25.9-1.65,4-.24,5.65,3,1.71C97.69,81,94.28,89.06,88.46,95.1c-4.21,4.36,5.72,4.32,11.5-2.3-2.09,6.66,7.13-.33,10-8.33-1.77,8.34,12-5,5.09-29.79-1.81-6.49-3.58-9.29-4.89-21S100.93,18.85,99.48,16C95.6,8.52,75.55-4.81,59.46,2.29c-8.94-6.94-16.23,5.53-22.94,12.2-8.64,8.59-9,26.39-11.48,31-9.78,18.06-3.58,39.89.27,31,5.1,12.23,15.74,17,12.15,8.62,12.2,6.83,16.08,5,12.57,1.12C58.37,89.09,65,88.5,61.42,84.7Z"/>
  <path class="lizShirt" d="M68.2,94.82c11.3,3.88,6.12,19.24,10.16,26.09,7,11.94,11,24.43-5,33.66-.19,1.88-1.78,2.59-4.13,2.65-1.84,2.49-1.45,8.48-3.54,12.84.42,2.39,2.9,5.95.29,10.32,1.33,2,4.29,1.7,6.42,3.18-4.07.37-9.16,2.35-13,1.57a37.16,37.16,0,0,1-13,.83c-7.31,1.76-10.66,6.89-21.84,5.65-9.16-1-15.36-6.2-22.21-6.39-2.07-.33,1.67-3.6,1.11-6.38-3.33-4.16,2.59-2.59,2.87-9.13-3.61-3.36.65-4.2.09-10.86-3.7-3.42,2-4.9,1-8.23-2.5-3.24.21-4.64.46-5.93.93-4.62,1.67-12.67,3.52-16.56-1.2-3.61.55-3,1.11-5.37,1.26-5.24,2.41-11.1,5.46-16.66C21.35,92,28.63,89.63,36.78,84.73Z"/>
  <path class="lizShirtCollar" d="M51.84,105.23c2.07-4.41,5.29-8.3,8-9.08,3.31.84,3.09,4.44,3.42,9.08,1.83-4.18,4.52-8.9,5.51-8.64,1.44.37.77,4.15,2,7.69C71,99.36,72.38,94.45,67.6,88s-22.7-9.12-23.84-9c-4.39.46-4.31,3.84-6.84,5.84C35.38,87.28,45.69,99,51.84,105.23Z"/>
  <g class="clothesDisplayLine">
    <path d="M83.64,270.49c-.65.8-1,5.57-.54,6.41"/>
    <path d="M86.31,270.72c-.68.74-1,5.37-.65,6.16"/>
    <path d="M102.32,266.53c-.72.8-1,6.52-.42,7.13"/>
  </g>
  <g class="clothesOverlapLine">
    <path d="M103.11,273.75c-1.59,1.62-1.78,6.54-1.44,10.54"/>
    <path d="M89.69,277.07c-1.26,1.9-1.26,7.76-.9,12.27"/>
    <path d="M17.93,106.1c-1.14,10.47-.63,15.39.62,14.86"/>
    <path d="M39.81,109.44c.72,3.31,1.26,10.92-.57,11.14"/>
    <path d="M63.24,105.23c1.22,17.45,19,27.49,4.07,46-4.13,5.11-7.66,8.41-7.43,11.61.44,6.08-4.86,4.51-3.81,10.24.57,3.19,1.56,8.16-4.16,13.15"/>
    <path d="M59.39,185.13A17.19,17.19,0,0,0,66,180.38"/>
    <path d="M46.34,186c-12.48-1.53-24.7-8.38-25.27-4.59-.29,1.91,3,2.76,6.85,3.22"/>
    <path d="M79.05,221.54a22.58,22.58,0,0,1,3-7.52"/>
  </g>
  <g class="clothesFoldLine">
    <path d="M76.55,129.87c-.73.79-2.39,1.07-4,1.63"/>
    <path d="M79.15,132.86c-2,.15-6.28,0-6.28,0"/>
    <path d="M77,135.35a9.67,9.67,0,0,0-3.83-.69"/>
    <path d="M74.55,148.69a34.3,34.3,0,0,1-5.37,0"/>
    <path d="M73.27,151a21.56,21.56,0,0,1-5.23-.69"/>
    <path d="M64,161.59c-1.23-.29-2.53-.08-3.9-.43"/>
    <path d="M70.35,131.24a32,32,0,0,0-4.86-.55"/>
    <path d="M70.35,132.86c-2.38-.05-4.58-.06-6.38,0"/>
    <path d="M70.35,134.31c-1.93.25-3.78,1-5.51,1"/>
    <path d="M68.74,154.22a6.75,6.75,0,0,0,4.65.35"/>
    <path d="M66.9,148a50.18,50.18,0,0,1-6.72-1.2"/>
    <path d="M65.71,149.55a32.79,32.79,0,0,1-5.31.22"/>
    <path d="M57.58,159.85q-2.8-.4-5.43-.86"/>
    <path d="M58.12,161.16a18.82,18.82,0,0,1-5.42.43"/>
    <path d="M47.6,121.62a26.81,26.81,0,0,0-7.22-3.4"/>
    <path d="M57.37,114.1a29.27,29.27,0,0,1,4.49.49"/>
    <path d="M34.41,102.1c2.24,1.39,4.41,4.77,5.4,7.34,1-3-1-8.94-5.33-10.63"/>
    <path d="M26.53,99.79c3.86,1.44,7.19,5.07,10.27,9.76"/>
    <path d="M24.94,111.06a30.61,30.61,0,0,0,6.29,4"/>
    <path d="M19.59,108.1A14,14,0,0,0,27,115"/>
    <path d="M41.78,104.78a8.77,8.77,0,0,1-1.35,9.54"/>
    <path d="M50.67,121.4c-3.48-2.82-7-5.5-10.19-6"/>
    <path d="M13.37,126.81a10.84,10.84,0,0,0,4.36,4.66"/>
    <path d="M11.36,128.13a12.27,12.27,0,0,0,3.94,4.05"/>
    <path d="M12.36,150.71a19.1,19.1,0,0,0,5.27,3.95"/>
    <path d="M7.38,150.62c5,4.65,15.74,7.91,4.27,7.18"/>
    <path d="M6.36,158.85c2.11,1.53,5.45,2.62,9.65,3.41"/>
    <path d="M19.05,169.35c-5.47.4-10.33-1.48-9.93.3"/>
    <path d="M6.27,169.71C10.94,174,21.46,178,9,175.63"/>
    <path d="M3.4,178.84a18.86,18.86,0,0,0,6.84,3.57"/>
    <path d="M69.26,157.22a5.78,5.78,0,0,1-2.62-1"/>
    <path d="M65.72,170.06c-.66,2-2.32,3-2.92,4.35"/>
    <path d="M93.72,246c-2.47,7.72-5.58,14.2-10.79,16.58"/>
    <path d="M18.9,192.2a56.37,56.37,0,0,0-7.53,5.35"/>
    <path d="M21.51,192.53A90.38,90.38,0,0,0,6.57,205.62"/>
    <path d="M17.59,198.64c-4.87,5.35-9.1,10.68-11.35,15.92"/>
    <path d="M26.53,192.64A59.06,59.06,0,0,0,15.41,207"/>
    <path d="M28.93,192.53a77.69,77.69,0,0,0-12.43,18"/>
    <path d="M28.5,199.4a67.13,67.13,0,0,0-7,19.74"/>
    <path d="M40.17,190.57a37.78,37.78,0,0,0-3.58,8.72"/>
    <path d="M43.11,189A36.83,36.83,0,0,0,37.66,204"/>
    <path d="M90.78,215.7c-4.14.67-7.78,2-10.44,4.55"/>
    <path d="M93.16,213.81c-2.87.22-5.49.65-7.35,1.75"/>
    <path d="M92.18,205.75c-3.43,3.36-6.72,6.67-8,9.18"/>
    <path d="M88.19,206.94a29.15,29.15,0,0,0-5.88,9.11"/>
    <path d="M86.37,200.36c-2,3.43-3.71,6.93-4.3,10.22"/>
    <path d="M82.12,204.56a19.4,19.4,0,0,0-1.85,10.09"/>
  </g>
  <path class="clothesEdgeLine" d="M68.75,96.59a11.37,11.37,0,0,0-.3-5.73"/>
  <g class="hairOverlapLine">
    <path d="M60,38.93c-2.78-.65-2.8-2.21,0-2.76"/>
    <path d="M99.3,44.56c3.51.49,3.57-1.24,1.58-2.77"/>
  </g>
  <g class="eye">
    <circle class="sclera" cx="78.04" cy="57.56" r="17.91"/>
    <g class="irisDarkBrown">
      <ellipse cx="75.16" cy="53.56" rx="3.33" ry="2.85" transform="matrix(0.22, -0.97, 0.97, 0.22, 6.09, 114.78)"/>
      <ellipse cx="92.8" cy="56.95" rx="3.33" ry="2.57" transform="translate(16.47 134.59) rotate(-77.03)"/>
    </g>
    <g class="pupil">
      <ellipse cx="75.37" cy="53.54" rx="1.29" ry="1.11" transform="translate(6.28 114.96) rotate(-77.03)"/>
      <ellipse cx="93" cy="56.92" rx="1.29" ry="1" transform="translate(16.66 134.76) rotate(-77.03)"/>
    </g>
  </g>
  <g class="skinIndian">
    <path d="M43.5,59.94c2.33,7.51,1.89,13.9-.66,21.64,3.69,6.53,11.29,11.58,17,14.57,1.4.68,1.94,5,3.42,9.08.84-5.06,3.94-9.6,4.46-13.6,1.31-5.17,2-9.14,5.43-11.7"/>
    <path d="M67.55,126.74c-9.25,10.11-14.83,39.37-37.74,39.47-3.87,0-6.67-2-8.76-8.18-2.85-8.49-2.31-23.3-2.5-37.07,1.35-1.34,18.77-1.82,20.69-.38A129.06,129.06,0,0,1,38.86,140c6-4.06,11.07-10.1,17.13-18.19a47,47,0,0,1,12.36-12.74c9.17-6.69,10.12-4,18.08-4.33,2.08-.08,3.31,1.89,4.4,3.15s2.71,2.8,2,4.47c1,1.79.66,4.82-1.49,6a3.12,3.12,0,0,1-1.81,2.77c.93,1.14,0,4.59-1.78,4.93a16.84,16.84,0,0,1-7.61-.94C74.55,128.49,68.66,125,67.55,126.74Z"/>
    <path d="M114.94,156.25c-12.15,5.1-25.29,13.89-37.32,10.71A16.08,16.08,0,0,1,68,160.45a8.52,8.52,0,0,1,1.22-3.23c2.35-.06,3.94-.77,4.13-2.65,5-2.89,8-6.09,9.65-9.49a25.75,25.75,0,0,0,2,4.32c5.67-1.59,10.59,1.78,20.35-1.52-.6-3,.42-5.07.26-6.24-.3-2.29-.6-3.24.43-4.63,2.23-3,3.08-.71,5.85-1.14,2.5-.71,2.89,5.14-2.11,5.2l5.32,8.29L133,141.13c1.89-.37,3,4,.95,5.14,1.38,1.16.33,4.07-3.84,4.55C124.62,153.45,120.78,157.29,114.94,156.25Z"/>
    <path d="M136.17,124.7c-4.89-.39-2,8.07,1.57,4.52C138.71,128.26,137.64,124.81,136.17,124.7Z"/>
    <path d="M138.36,132c-5.3,0-2.09,8,1.57,4.83C141,135.94,139.84,132,138.36,132Z"/>
    <path d="M45.77,61.1c-4.81,3.11-5.9-2.31-6.52-3.48C31.73,43.5,45.9,31.33,49.57,45.24c3.09,3.64,5.63,3.47,5.76-.08.45-4.77,2.67-4.72,4.67-6.23,2.83.69,6.14.35,10.94-1.56C64.09,41.89,82.34,41,85,32c-.6,11.83,6.7,13.25,4,8.18,3.08,3,5.92,4.06,10.26,4.43,0,7.64-2.66,10.57-3,14.08C94.94,70.48,92.4,79.18,82.76,84c-3,1.48-4.21,5.08-9.68,4.38-4.46-.58-6-2.66-8.64-4.12C56,79.52,53.09,75.75,50,69.75M79.39,52.27a5.89,5.89,0,0,0-5-2.75,33.42,33.42,0,0,0-7,.89c1.53.92,3.66,2.62,5.86,3.1,3.55.77,4.54-.51,5.35-.65C79,52.78,79.8,53.1,79.39,52.27Zm9.67,2.66A5.93,5.93,0,0,0,92.29,57a4.88,4.88,0,0,0,2.62-.12,3.51,3.51,0,0,0,.63-2.19,10.1,10.1,0,0,0-2.47-1.56,6,6,0,0,0-4,.72C87.71,54.69,88.74,54.63,89.06,54.93Z"/>
  </g>
  <g class="skinOverlapLine">
    <path d="M38.86,140c-5,3.6-10.35,5.88-12.33,12.89"/>
    <path d="M85.08,149.4a9.8,9.8,0,0,0-4,2.75"/>
    <path d="M81.47,109.86c2.24.49,4.92-.56,7.07-.63,1.21,0,3,1.18,4.28,3.15"/>
    <path d="M83.83,119.33c1.68.48,4.17.75,5.69,1.83"/>
    <path d="M91.33,118.39c-.16-2.6-3.68-2.86-6.5-3.73a14.1,14.1,0,0,0,4-.14"/>
    <path d="M134,146.27c-2.42,1.38-12.06,3.7-11.31-.46"/>
    <path d="M130.14,150.82c-3.77.62-6.39-.17-5.69-2.78"/>
  </g>
  <g class="skinFoldLine">
    <path d="M80.13,125.15a5.6,5.6,0,0,0,1.53-1.32"/>
    <path d="M82.74,113.57a3.32,3.32,0,0,0,2.09,1.09"/>
    <path d="M114.94,156.25c-3.83-.87-3.42-2.33-5-3.51-1.3-1-3.34-1.39-4-3.21"/>
    <path d="M109.86,141.07a4.94,4.94,0,0,1-2-.38"/>
    <path d="M47,47.41c.23-10.08-11.41-4.49-6.73,6.11"/>
    <path d="M46.49,49.8c-2.05,1.6.92,5.65-1.4,5.67-1,0-.43-2.31-1.65-3.27-3.08-2.41.47-7.49,2.07-4.77"/>
  </g>
  <g class="skinEdgeLine">
    <path d="M77.4,107c-.08,2.49,1.82,2.94,1.4,6-.21,1.56.77,2.16-.07,4.47-.44,1.22.43,2.27-.37,3.47"/>
  </g>
  <g class="chopstick">
    <path d="M82.58,104.72,63.2,81.63l-.83.71L81.3,104.62Z"/>
    <path d="M92.8,116.88a4.27,4.27,0,0,1-.49.71l8.55,10.07.57-.49Z"/>
    <path d="M75.34,105.07,57.05,86.53l-.77.77,18.09,18.14C74.71,105.3,75,105.18,75.34,105.07Z"/>
    <path d="M90.51,120.45a2.61,2.61,0,0,1-.62.55l8.38,8.4.53-.54Z"/>
  </g>
  <path class="lipFemaleBrown__noStroke" d="M84.61,77.35c-2.19-1.34-.41,2.38-6.33,1.18C72,77.25,73.67,74.92,70,74.75c3.19-.64,4.91-2.33,6.53-1.37,4.25,2.51,6.57,1.17,7.37,2.07C84.4,76.06,84.05,76.81,84.61,77.35Z"/>
  <path class="lipFemaleBrown" d="M84.61,77.35c-.25-1.48.13-2.93-.77-3.59-1.3-1-2.4.64-5.5-1.6-1.82-1.33-5.42,1.3-8.39,2.59,3.19-.64,4.91-2.33,6.53-1.37,4.25,2.51,6.57,1.17,7.37,2.07C84.4,76.06,84.05,76.81,84.61,77.35Z"/>
  <path class="lipEdgeLine" d="M83.43,77.18c-2.06,2.38-3.25,1.53-4.72,1.29s-4.18-.37-6.11-2.89"/>
  <g class="cheekLine">
    <path d="M87,69.83c.43.88.16,3.16-.29,4.34"/>
    <path d="M76.86,65c-2.07,1.51-2.42,2.51-5,4.22-2.79,1.85-3.07,3.29-4.06,4.19"/>
  </g>
  <g class="noseLine">
    <path d="M86.5,55.82c-.13,8.78,2.85,15.41-1.93,15.85-3.27.3-2.77-2-5.61-2.31-4.1-.46-2.93-3.75-2.1-4.41"/>
  </g>
  <g class="eyeFoldLine">
    <path d="M94.64,58.47c-1.82.94-4.29.5-5.26-.61"/>
    <path d="M77.18,55.39c-2.13.93-5.86.4-8.81-1.51"/>
  </g>
  <g class="eyeCornerLine">
    <path d="M65.08,50.25a7.88,7.88,0,0,0,2.31.16"/>
    <path d="M96.59,55.22a4.29,4.29,0,0,1-1-.52"/>
  </g>
  <g class="eyeCreaseLine">
    <path d="M90,52c1.91-.81,5,.36,6.15,1.67"/>
    <path d="M67.92,48.58c4-.52,7.86-1.33,11.43,1.65"/>
  </g>
  <g class="eyebrowBlack">
    <path d="M99,48.78c-2.71-2.15-5.16-2-7.6-2.84-1.54-.55-.37,2.55,1.78,2.5a9.45,9.45,0,0,1,5.66,1.23C98.91,49.38,99,49.09,99,48.78Z"/>
    <path d="M65.52,44.64c7.73-4.54,13.93-.52,17.39-.44.88,0-.43,2.45-2.73,1.66C75.31,44.2,72.82,42.18,65.52,44.64Z"/>
  </g>
</svg>
