<svg viewBox="0 0 185.51 322.5">
  <path class="lizShortsInner" d="M69.06,243.76c-9.22-4.2,.45-3.61,9.89-3.08-3.55,2.13-7.17,3.49-9.89,3.08Z"/>
  <g class="skinIndian">
    <path d="M111.16,201.99c9.1,2.82,19.79,6.41,22.5,10.83,4.5,7.32,4.23,37.01,3.59,65.64l-15.54,1.99c-6.99-29.83-22.66-61.18-10.55-78.46Z"/>
    <path d="M70.8,198.44c27.96,4.25,58.94,6.16,62.9,20.66,6.14,22.48,11.15,44.61,15.39,66.12l-15.61,3.59c-9.41-23.29-25.02-37.49-24.36-53.51-11.99,5.07-28.57,6.64-45.77,6.3-1.07-15.61,1.26-30.06,7.45-43.16Z"/>
  </g>
  <path class="lizShorts" d="M69.06,243.76c-6.78,.69-11.94-.77-16.67-.27-21.59,2.29-45.76-10.14-38.02-40.97,15.75-6.95,37.88-7.75,60.99-6.88-11.6,15.79-8.16,29.44-8.4,35.35-.16,3.99-2.73,9.54,2.1,12.77Z"/>
  <g class="lizSock">
    <path d="M128.77,278.65c-5.69,.82-7.86,.55-7.65,1.28,3.65,13.16-3.36,24.56-1.67,31.71,.88,3.73,9.33,4.05,15.58,3.03,2.07-9.82,1.54-19.36-1.55-25.86-1.45-3.59-3.05-6.97-4.71-10.17Z"/>
    <path d="M149.84,284.57c1.23,5.29,2.74,8.81,4.65,13.07,2.4,5.34,9.72,7.09,14.97,11.67,4.21,3.67,11.82,3.52,13.76,4.26,3.16,1.21,2.16,5.38,.33,6.11-6.91,2.76-14.94,2.98-23.76,2.09-6.71-.68-14.51,.11-22.28-.81-3.88-.46-4.71-5.48-3.77-10.19,1.49-7.49,1.38-14.22-.97-21.99-.36-1.19,1.21-.9,8.7-2.78,6.82-1.71,8.05-2.79,8.37-1.43Z"/>
  </g>
  <path class="lizUndershirt" d="M57.79,91.92s-34.62-2.54-34.09,6.63l-9.21,68.39c2.01,13.15-3.26,10.59,.1,14.61,1.34,3.09-3.12,3.74-.69,6,3.2,2.98-3.33,5.81-.11,11.04-2.21,1.87-1.21,4.03-1.88,6.44,7.51,.54,13.83-2.99,27.78-6.44,11.41-2.82,22.01-1.5,34.41-3.8-1.71-25.61,2.12-24.93,.61-29.3,2.18-3.96,1.01-12,.82-13.11,17.62-11.68,2.87-29.21-4.55-38.95-5.39-6.92-6.58-18.91-13.19-21.52Z"/>
  <path class="clothesOverlapLine" d="M75.52,152.39c-2.85,1.55-6.32,.9-8.64,1.14-2.93,.3-7.04,2.02-15.94,.2"/>
  <g class="clothesFoldLine">
    <path d="M54.21,198.22c-10.36,1.75-18.18,4.69-24.95,11.8"/>
    <path d="M63.07,197.48c-15.67,6.66-16.6,15.8-21.03,14.48-5.06-1.51,2.5-7.06,8.71-9.89"/>
    <path d="M61.14,223.12c-6.63,7.46-15.08,11.54-25.78,11.47"/>
    <path d="M75.71,128.97c-3.32,.49-6.43,.55-9.3,.1"/>
    <path d="M79.55,130.48c-3.23,.66-6.24,1.05-8.79,.91"/>
    <path d="M49.02,140.89c-4.56,.38-8.71,.3-11.86,0"/>
    <path d="M45.89,143.62c-3.47,.38-6.77,0-9.55,0"/>
    <path d="M74.43,155.53c-1.67,1-5.09,1.03-8.02,1.24-2.35,.16-6.57,1.31-10.01,1.01"/>
    <path d="M74.7,165.5c-2.91,2.54-7.55,3.97-14.05,4.2"/>
    <path d="M68.23,165.66c-2.93,1.01-8.29,3.13-13.91,2.76"/>
    <path d="M15.17,177.89c2.03,1.75,4.66,2.75,7.78,3.13"/>
    <path d="M14.58,181.55c5.94,3.12,13.77,2.74,13.82,3.18,.07,.66-3.6,1.13-6.89,1.18"/>
    <path d="M19.28,188.7c5.06,.48,10.74-.25,16.14-.93"/>
    <path d="M17.16,191.74c7.88,.5,20.46-2.42,33.08-4.03"/>
    <path d="M13.77,198.59c7.18,.97,20.87-4.7,21.76-3.56s-8.88,4.03-15.02,5.71"/>
    <path d="M61.23,188.52c-8.13,2.42-11.67,.12-22.28,6.39"/>
    <path d="M67.47,190.81c-6.01,1.07-14.86,.81-24.25,1.84"/>
  </g>
  <path class="fur" d="M80.65,166.97c-11.42,3.11-17.51,23.96-9.9,31.92,.51,2.48,2.18,4.03,4.2,4,.51,.53,.92,.8,1.81,.89,2.16,.21,4.47,.24,6.56,0,1.11-.11,2.12-.86,2.64-2.06,2.97,.77,6.01,.88,8.82,.55,.36,1.36,1.04,2.4,2.67,2.73,2.65,.5,5.41,.58,7.62-.1,2.82,.23,4.93-.19,5.97-1.85,7.72,0,9.6-5.9,10.77-11.73,1.61-8.51-2.02-15.57-9.45-20.57"/>
  <path class="hairBlackDark" d="M16.75,76.84c7.6,5.12,14.19,2.93,10.2-1.52,2.64,1.15,10.68,2.89,14.16,.48-.77-40.81-53.41-45.6-24.36,1.03Z"/>
  <g class="eye">
    <circle class="sclera" cx="66.59" cy="48.41" r="13.75"/>
    <g class="irisDarkBrown">
      <ellipse cx="60.08" cy="47.4" rx="3.36" ry="2.3" transform="translate(7.28 102.8) rotate(-84.65)"/>
      <ellipse cx="77.53" cy="49.49" rx="3.36" ry="1.87" transform="translate(21.03 122.07) rotate(-84.65)"/>
    </g>
    <g class="pupil">
      <ellipse cx="60.6" cy="47.45" rx="1.31" ry=".9" transform="translate(7.7 103.36) rotate(-84.65)"/>
      <ellipse cx="78.1" cy="49.54" rx="1.31" ry=".73" transform="translate(21.49 122.68) rotate(-84.65)"/>
    </g>
  </g>
  <g class="skinIndian">
    <path d="M95.61,153.6c-4.24,6.32-10.64,11.74-20.56,13.63-.02-.54-.13-1.08-.35-1.73,2.18-3.96-.55-6.15-.27-9.97,1.17-.96,1.28-2.04,1.09-3.14,1.74-1.15,3.16-2.36,4.3-3.61,1.78-.22,3.2-.33,4.65-.82-.88-2.74,2.07-5.21,4.13-8.26-.26-2.69,1.44-7.44,3.41-8.62,1.6-.93,4.03-.13,4.39,1.55,.31,1.45,0,3.2,1.14,4.59,.8-6.41,2.41-6.47,4.52-6,1.21,.27,3.46,.53,1.32,7.19,1.45-2.84,2.58-4.29,4.44-3.67,1.47,.49,2.63,2.01,2.07,4.33,2.77,.66,2.93,3.26,2.57,4.7-.42,1.68-2.05,4.03-3.24,4.5-3.09,3.77-7.42,5.83-13.59,5.33Z"/>
    <path d="M67.43,107.26c-2.59-11.25-4.25-11.75-6.98-13.5,3.24,3.29,4.47,8.02,6.98,13.5Z"/>
    <path d="M63.63,66.23c-4.25,2.93-7.08,20.58-5.84,25.69,6.36,5.93,6.15,12.04,10.16,18.86,6.62,11.24-8.58,8.3-11.07,2.1-2.39-5.94-3.98-8.56-6.56-12.27-6.07-8.73-18.53-9.6-23.83-6.21,5.02-8.1,5.29-32.55-.43-36.9"/>
    <path d="M66.94,185.4c-18.47-5.9-39.7-4.73-52.46-18.47-5.23-5.63-1.42-18.32,.14-29.12-.34-13.41,2.79-29.12,9.07-39.12,4.8-7.65,19.86-5.36,25.34,2.68,2.86,4.2,6.95,12.35,6.38,15.76-.11,5.35-9.68,17.09-15.95,15.6-2.45,9.31-5.16,16.99-6.54,22.23,10.95,6.2,22.07,16.67,38.25,19.45,3.44,.86,6.79-5.32,15.08,2.51,3.4,2.16,1.36,5.9-2.82,3.99,.79,1.59,1.06,2.99,1.69,4.07,.06-1.82,2.33-2.89,3.23-1.25,1.42-3.01,5.66-3.63,3.73,2.78,3.19-3.8,8.02-3.46,6.77-.57-.45,.45-1.56,1.71-2.19,2.16,3.15-2.73,8.26-.58,5.41,2.1-2.84,2.04-2.71,3.45-7.42,3.62-3.8,2.38-7.38,0-11.65,1.6-7.85,2.95-14.65-10.06-16.07-10.06Z"/>
    <path d="M32.65,62.75c-2.32,2.03-5.4-.14-6.41-1.82-1.3-2.17-1.96-2.42-2.71-3.99C-2.42,25.63,77.83,17.52,77.83,17.52c9.78,.92,11.35,69.52-12.46,68.76-5.23,.26-6.88-.63-9.85-1.84-10.49-4.28-15.86-6.63-19.65-12.64m28.15-23.39c-.56-2.78-2.39-3.1-4.64-2.76-1.25,.19-2.91,1.21-5.94,1.86,1.76,.95,2.83,1.32,4.89,1.55s3.6-.2,4.7-.21c.45,0,1.19,.52,.99-.44Zm9.72,1.9c1.4,.88,4.96,1.23,6.3,.21,.1-.3,.18-.72,.12-1.12-.7-.78-2.02-1.53-2.79-1.65-1.88-.27-3.54,.73-4.51,2.04-.35,.45,.58,.33,.88,.52Z"/>
  </g>
  <g class="skinOverlapLine">
    <path d="M21.68,109.53c-2.94,9.17-5.27,18.61-7.06,28.29"/>
    <path d="M44.62,117.81c-1.26,3.57-3.59,9.08-5.16,14.94"/>
    <path d="M64.47,114.42c.21,1.45,1.87,2.59,2.6,3.87"/>
    <path d="M109.87,139.08c-1.47,3.27-2.89,6.15-4.6,7.59-2.51,2.13-5.22,.09-3.97-3.55,.24-.69,1.28-2.13,2.06-4.71"/>
    <path d="M109.2,148.27c-2.17,.88-4.29-.36-3.92-1.6"/>
    <path d="M88.6,139.7c-.21,4.59,5.32,3.56,5.01-1.7,.34-.71,.81-1.3,1.45-1.76"/>
    <path d="M84.47,147.96c.46,1.81,1.56,2.58,3.11,3.18"/>
    <path d="M91.53,147.13c-1.54-1.23-.66-1.59-1.12-2.73"/>
    <path d="M97.53,137.22c-.16,1.01-.36,1.81-.45,2.69"/>
    <path d="M101.31,143.12c-.47,1.06-1.04,1.6-1.42,1.28"/>
    <path d="M79.56,179.22c1.53,1.36,2.27,.62,3.87,1.72"/>
    <path d="M83.99,190.85c5.33,3.06,7.24,3.43,10.67,3.01"/>
    <path d="M85.12,185.01c1.19,1.48,4.14,2.5,6.81,4.2,1.08-.85,3.18,.11,4.73-1.07"/>
    <path d="M92.08,186.54c-2.2-.11-2.76,.96-4.6,.21,.02-.9,.42-2.26,.88-2.99"/>
    <path d="M109.12,235.3c.11-2.84,.78-5.45,2.22-7.76"/>
  </g>
  <g class="skinFoldLine">
    <path d="M32.93,154.99c-1.32-.32-2.55-.46-3.6-.25"/>
    <path d="M95.69,139.59c-.96,.13-1.73-.13-2.11-.44"/>
    <path d="M88.13,145.55c.88-.06,2.05,.35,3.02,1.24"/>
    <path d="M30.33,48.14c-.83-10.65-11.83-1.05-4.92,7.8"/>
    <path d="M30.73,52.07c-1.7,1.59,1.69,3.99-.54,4.79-.95,.34-.53-2.04-2.67-3.25-3.47-1.97-.44-7.15,1.4-4.51"/>
  </g>
  <path class="fur" d="M80.65,166.97c1.5,4.93,3.02,5.63,5.73,11.72,1.94,4.36,8.43,6.18,12.97,4.47,2.51-.91,2.34-2.8,6.64-4.81,6.14-2.87,5.33-10.05,9.79-13.29,1.89-1.99,4.16-3.94,6.89-6.11,.87-.7-.04-1.92-1.1-1.72-1.42,.26-3.08,.49-4.67,.23-2.4-.32-4.38-.29-6.55-.1-1.78-2.95-6.55-5.68-10.16-6.46,.03-3.35-.24-6.56-.75-10.28-.19-1.43-1.61-1.59-2.36-.7-1.94,2.29-3.7,4.02-5.08,6.5-1.24,1.99-2.7,3.23-4.42,4.72-4.93,4.44-8.92,9.28-6.93,15.83Z"/>
  <g class="dullMaroonMediumDark">
    <path d="M97.16,152.69c1.39-3.74,1.38-7.13,.83-10.93-4,2.72-5.05,6.92-8.01,9.79,1.72-.45,4.76-.04,7.18,1.14Z"/>
    <path d="M110.9,161.4c3.36-1.89,6.34-.9,9.6-2.37-2.83,3.03-5.69,4.94-7.6,7.24-.2-1.72-.84-3.35-2-4.87Z"/>
  </g>
  <path class="nose" d="M99.66,178.09c-.16-1.24-3.92-2.9-5.29-2.15-.5,.34,.58,3.02,1.67,3.53,.9,.39,3.68-.71,3.62-1.38Z"/>
  <g class="furOverlapLine">
    <path d="M105.06,204.91c3.18-2.25,1.7-7.76-4.17-7.61-4.23,.05-6.42,1.63-6.11,4.98"/>
    <path d="M111.03,203.06c2.05-3.31,1.34-6.16-1.72-8.1-2.73-1.56-7.16-.99-8.41,2.34"/>
    <path d="M85.96,201.73c1.17-3.41-1.89-5.5-4.48-5.5-6.23-.1-8.02,2.91-6.52,6.67"/>
    <path d="M70.75,198.89c-.3-2.05,.19-4.54,3.55-5.77"/>
  </g>
  <path class="lipFemaleBrown__noStroke" d="M72.68,72.15c-1.3,.95-1.11,2.8-5.7,2.64-6.48-.22-6.87-2.39-9.86-2.85,4.3-.06,6.64-2.58,7.97-1.81,3.08,1.78,4.67-.13,5.56,.72,.61,.58,1.18,.98,2.03,1.3Z"/>
  <path class="lipFemaleBrown" d="M72.68,72.15c-1.31-.58-1.16-2.14-2.1-2.76-1.13-.75-2.23,.79-4.76-.74-1.96-1.19-3.9,2.47-8.71,3.3,4.3-.06,6.55-2.5,7.97-1.81,3.2,1.55,4.67-.13,5.56,.72,.61,.58,1.18,.98,2.03,1.3Z"/>
  <path class="lipEdgeLine" d="M71.12,73.81c-1.5,1.29-2.64,.86-4.19,.81-1.67-.05-3.52,.29-5.46-1.13"/>
  <g class="cheekLine">
    <path d="M73.53,64.72c.56,1.09,1.19,3.55,1.22,5.15"/>
    <path d="M63.32,60.23c-2.46,1.25-2.27,2.98-4.77,5.24-1.9,1.71-2.75,2.29-3.43,4.09"/>
  </g>
  <g class="noseLine">
    <path d="M62.82,63.95c-1.24-.91-.92-2.75,.5-3.71"/>
    <path d="M68.75,64.7c-1.52-.14-3.62-2.43-4.71-.72"/>
    <path d="M70.93,53.11c1.74,7.45,5.1,10.47,1.43,12.7-1.87,1.14-4.23-.02-5.61-1.15"/>
  </g>
  <g class="eyeFoldLine">
    <path d="M79.21,52.9c-1.25,.85-2.94,.95-4.62-.08"/>
    <path d="M62.97,51.58c-2.19,.69-6.22,.46-8.45-.94"/>
  </g>
  <path class="eyeCornerLine" d="M49.62,47.93c1.26,.2,2.71-.02,3.83-.42"/>
  <g class="eyeCreaseLine">
    <path d="M74.67,46.83c1.86-1.35,5.33,.3,6.28,2.12"/>
    <path d="M52.63,46.6c3.44-1.63,9.6-4.15,11.88-.57"/>
  </g>
  <g class="eyebrowBlack">
    <path d="M77.24,41.89c2.38-.09,4.31,.22,5.99,.95,.04-.2,.06-.43,.07-.68-3.11-2.15-5.58-1.87-8.09-2.58-1.61-.46-.16,2.4,2.03,2.31Z"/>
    <path d="M50.22,40.79c6.43-4.5,12.94-1.79,16.46-2,.9-.05-.23,2.52-2.63,1.91-5.09-1.29-7.45-2.19-13.83,.08Z"/>
  </g>
  <g class="hairBlack">
    <path d="M86.46,53.62c-2.23-9.3-.39-10.33,.06-13.67,1.9-.37,2.49-1.7,.56-2.64,.67-3.67,.23-6.56-.81-11.01-1.29-5.54-3.9-7.43-5.44-11.68C76.59,2.93,51.94-4.77,39.23,4.1,27.6-.93,20.2,10.92,14.5,16.05,.61,28.56,6.41,41.79,3.78,48.24c-7.69,18.85-.76,29.82,1.48,23.23,3.13,13.43,10.53,18.7,9.64,12.03,14.14,16.62,18.88,10.02,16.25,6.26-8.29-11.85-10.17-20.16-7.62-32.82-7.41-12.67,5.6-21.55,8.93-11.34,1.81,3.38,6.03,5.1,6.2,.57-.15-4.32,.59-4.65,2.63-6.94,6.25,.26,8.67-1.79,14.52-4.3-6.25,5.03,8.91,4.47,12.74-7.31-1.24,10.62,10.24,13.73,7.11,8.8,3.1,1.96,4.14,2.84,7.45,3.3,.63,3.85-.3,4.08-1.11,5.8-.41,.88,1.38,4.26-1.57,4.57,2.01,1.64-.09,1.91,.61,4.34,1.48,9.26-1.05,19.61-7.86,25.25-3.41,2.82-3.5,5.59-7.8,6.59-1.08,1.54-1.79,3.28-3.51,5.4-2.55,3.14,4.16,5.64,12.24-3.66-.38,7.98,17.57-12.65,12.35-34.39Z"/>
  </g>
  <g class="hairOverlapLine">
    <path d="M41.29,39.23c-3.6,.05-3.72-1.99-.71-2.96"/>
    <path d="M83.11,39.72c.88,.26,2.3,.3,3.41,.23"/>
    <path d="M84.78,36.84c.63,0,1.44,.17,2.3,.48"/>
  </g>
</svg>