<svg viewBox="0 0 152.08 238.82">
  <g class="lizSock">
    <path d="M120.54,180.55c5.74-.47,13.32-.33,15.54,1.76,3.28,3.08,1.63,16.41-5.1,19.43-3.14,1.41-7,1.64-11.07,1.6C106.13,198.72,108.59,184.7,120.54,180.55Z"/>
    <path d="M112.9,197.6c4.46.4,9,2.26,9.41,6.61.83,8.49-5.19,18.09-13.87,16.18-11.12-2.45-25.58-3.35-34.1-10.52C86.47,195.49,99.13,188.63,112.9,197.6Z"/>
  </g>
  <path class="lizUndershirt" d="M1.41,178.71c-1.22-1.48.94-2.51,1.36-4.34-2.85-4.37,1.54-7.67,3-10.72-1.45-3.65,2-4.08,2.63-6.24-1-3.95,3.38-4.79,4.26-10.91-.45-4.58,1.19-4.55,1.84-7.29a187.26,187.26,0,0,1,9.07-28L50.66,82.5C52.78,80.07,53,85.11,73,92.79c14.7,5.65,17.82,2.89,17.79,5.84l-2.2,32.71c1.37,10.11-3,18.48-11.62,21.65-3,3.55-.68,6.12-4.6,8.66a4.83,4.83,0,0,1-2,5c.86,1.92-.63,5.17-2.26,6.51C47.56,182.67,23.26,184.14,1.41,178.71Z"/>
  <path class="lizShortsInner" d="M59.57,222.16c-5.17-3.31-3-4.1,1.36-5.86C61.41,217.83,60.87,221.18,59.57,222.16Z"/>
  <path class="lizShorts" d="M1.41,178.71c5.31,1.51,17.87-.93,28.33-.53,6.67.26,17.25-3.49,24.23-4.55-4.23,2.22-.84,43.57,5.6,48.53-5.28,1.38-18.71,1.29-31.94.53C5.39,221.42-3.07,203,1.41,178.71Z"/>
  <path class="clothesOverlapLine" d="M77,153c-9.53,1.4-14.09-2.78-19.55-4.43-4-1.2-12.23-.17-16.7-2.42"/>
  <g class="clothesFoldLine">
    <path d="M7.84,188.15a34,34,0,0,1,10.29-5.72"/>
    <path d="M23.39,181.65c-6.26,3.17-10.57,15.76-13,14.47-2.69-1.44,1-6.12,4.25-9.36"/>
    <path d="M50.38,200.45c-5.49,8.36-17.07,15.07-29.54,17.56"/>
    <path d="M12.65,146.5a24.5,24.5,0,0,0,3.9,8.77"/>
    <path d="M14,161.72a22.62,22.62,0,0,0,6.33,7.05"/>
    <path d="M8.39,157.41c2.2,7,11.27,11.07,4.66,9.08"/>
    <path d="M5.76,163.65A31.16,31.16,0,0,0,17,171.12"/>
    <path d="M2.77,174.37c1.15,1.53,4.6,1.93,2.63,2.72"/>
    <path d="M4.49,170.56A29.58,29.58,0,0,0,23,177.43"/>
    <path d="M70.32,166.64c-3.41,1.87-9,2.7-15.58,3.08"/>
    <path d="M72.35,161.65c-2.17,1.89-6.67,3.47-12.2,4.42"/>
    <path d="M70.53,160.17a18.75,18.75,0,0,1-6.24,2.53"/>
    <path d="M73.69,155.47c-3.39.56-7.65-.91-10.88-1.76"/>
    <path d="M54.67,150.63c-3.51,0-9.93-.08-11.65-1.27"/>
    <path d="M76.15,134.9a79.1,79.1,0,0,1-12.35-3.72"/>
    <path d="M71.31,136.16c-5.9-1.61-11-2.88-14.53-5"/>
  </g>
  <g class="photo">
    <path class="photoFrame" d="M42.51,214.58l-13.1-.3c.58,9.06-5.41,17.43-11.94,23.91l15.65.38C38.38,232.09,42.51,223.72,42.51,214.58Z"/>
    <g class="photoCel">
      <path d="M23.49,233.16l11.85.28a43.3,43.3,0,0,1-2.9,4L20,237.11C20.89,236.22,22.43,234.53,23.49,233.16Z"/>
      <path d="M23.83,232.72l11.8.28c.79-1.27,1.54-2.59,2.22-4l-11.36-.27C25.88,229.72,24.66,231.62,23.83,232.72Z"/>
      <path d="M38.07,228.56l-11.31-.26a34.3,34.3,0,0,0,2.31-4.82l10.88.25A37.55,37.55,0,0,1,38.07,228.56Z"/>
      <path d="M30.71,215.59l10.47.24a27,27,0,0,1-1.07,7.36l-10.84-.25A29.58,29.58,0,0,0,30.71,215.59Z"/>
    </g>
    <g class="lizShirt">
      <path d="M32.8,215.64a1.83,1.83,0,0,0,1.36.84,1.82,1.82,0,0,1,1.24,0,2.16,2.16,0,0,0,1.17-.79Z"/>
      <path d="M31.11,223.52a1.89,1.89,0,0,0,1.28.65,2.68,2.68,0,0,1,1.23,0,3,3,0,0,0,1.25-.58Z"/>
      <path d="M28.51,228.82a2.09,2.09,0,0,0,1.3.61,3.82,3.82,0,0,1,1.31,0,4.21,4.21,0,0,0,1.4-.54Z"/>
      <path d="M25.62,233.21a2,2,0,0,0,1.3.6,4.16,4.16,0,0,1,1.37,0,5.12,5.12,0,0,0,1.53-.52Z"/>
    </g>
    <g class="skinIndian">
      <path d="M33.5,220.84c2,.24,3.1-2.94,1.65-3.72l.25-.6a1.82,1.82,0,0,0-1.24,0l-.06.5C32.31,217.35,31.54,220.61,33.5,220.84Z"/>
      <path d="M31.31,227c1.95.15,3.37-1.89,2-2.39l.3-.38a2.67,2.67,0,0,0-1.23,0l-.11.32C30.46,224.72,29.36,226.81,31.31,227Z"/>
      <path d="M28.3,231.66c2.07.12,3.85-1.51,2.45-1.9l.37-.31a3.8,3.8,0,0,0-1.31,0l-.16.26C27.68,229.88,26.25,231.55,28.3,231.66Z"/>
      <path d="M25,236c2.16.12,4.28-1.5,2.87-1.9l.44-.31a4.14,4.14,0,0,0-1.37,0l-.21.26C24.61,234.26,22.85,235.93,25,236Z"/>
    </g>
    <g class="hairBlackDark">
      <path d="M35.3,216.77c.64,0,1.89.22,1.71.93-.63,2.3-1.6,3.84-3.64,3.6s-2.1-1.72-1.76-4c.16-.77,3-1,2.71-.29a2.4,2.4,0,0,0-1.24,2.26,5.46,5.46,0,0,1,2.46.21c.46-1.06.32-1.95-.39-2.39Z"/>
      <path d="M33.5,224.35c.64,0,1.86.15,1.62.6a3.93,3.93,0,0,1-4,2.3c-2-.16-1.93-1.1-1.38-2.54.24-.49,3.14-.66,2.74-.18-1,.43-1.31.75-1.46,1.44a8,8,0,0,1,2.45.14c.56-.68.5-1.26-.16-1.54Z"/>
      <path d="M31,229.58c.69,0,2,.11,1.65.48a5.32,5.32,0,0,1-4.54,1.84c-2.16-.13-1.92-.89-1.15-2,.32-.39,3.43-.53,2.94-.14-1.14.34-1.49.6-1.73,1.15a11.68,11.68,0,0,1,2.59.11c.68-.54.69-1,0-1.22Z"/>
      <path d="M28.11,234c.73,0,2.05.11,1.66.48a6.63,6.63,0,0,1-5.05,1.84c-2.25-.13-1.89-.88-.9-2,.4-.39,3.69-.53,3.12-.14-1.26.34-1.66.6-2,1.15a12.53,12.53,0,0,1,2.7.11c.81-.54.89-1,.22-1.22Z"/>
    </g>
    <g class="bennettSleeves">
      <path d="M36.57,215.73c0,.3.32,1.24.92,1.39a2.34,2.34,0,0,1,1.26,0,3.83,3.83,0,0,0,2-1.34Z"/>
      <path d="M34.87,223.61c0,.19.2.87.79,1a3.27,3.27,0,0,1,1.25,0,5.14,5.14,0,0,0,2.13-.89Z"/>
      <path d="M32.52,228.91a.87.87,0,0,0,.73.85,4.52,4.52,0,0,1,1.33,0A7,7,0,0,0,37,229Z"/>
      <path d="M29.82,233.31a.74.74,0,0,0,.65.83,5.39,5.39,0,0,1,1.4,0,9.1,9.1,0,0,0,2.61-.74Z"/>
    </g>
    <g class="skinEastAsian">
      <path d="M37.19,221.84c2.19.06,3-3.43,1.35-4.1l.21-.58a2.34,2.34,0,0,0-1.26,0l0,.56C35.51,218.18,35,221.77,37.19,221.84Z"/>
      <path d="M34.9,227.59c2.18,0,3.36-2.19,1.74-2.62l.27-.37a3.28,3.28,0,0,0-1.25,0l-.09.35C33.57,225.26,32.73,227.55,34.9,227.59Z"/>
      <path d="M32.06,232.17c2.32,0,3.86-1.75,2.19-2.1l.33-.29a4.53,4.53,0,0,0-1.33,0l-.15.28C30.94,230.3,29.74,232.14,32.06,232.17Z"/>
      <path d="M28.85,236.55c2.43,0,4.33-1.75,2.63-2.1l.39-.29a5,5,0,0,0-1.4,0l-.19.29C28,234.68,26.42,236.52,28.85,236.55Z"/>
    </g>
    <g class="hairBlack">
      <path d="M37.44,220.94a4.56,4.56,0,0,1,2.24-1.36c-.3,4.11-5.81,3.24-4.12-.2A3.78,3.78,0,0,1,37.44,220.94Z"/>
      <path d="M35.23,227a6.44,6.44,0,0,1,2.38-.87c-.7,2.62-6.13,2.07-4.1-.13A3.14,3.14,0,0,1,35.23,227Z"/>
      <path d="M32.48,231.71a9.33,9.33,0,0,1,2.65-.69c-1.07,2.1-6.8,1.66-4.36-.1A3,3,0,0,1,32.48,231.71Z"/>
      <path d="M29.36,236.1a11,11,0,0,1,2.89-.7c-1.46,2.1-7.4,1.66-4.56-.1A2.67,2.67,0,0,1,29.36,236.1Z"/>
    </g>
  </g>
  <path class="hairBlackDark" d="M111.69,92.17c-6.26.16-10.14-2-6.22-3.57a11.06,11.06,0,0,1-9.87-4.87C125.11,26.64,156.38,43.41,111.69,92.17Z"/>
  <path class="hairBlack" d="M75.38,81.34,121.21,60c-1.28,6.18-3.56,11-6.66,17-1,2.06.49,3.31,3.25,1.24-4.29,8-6.86,12.17-14,18-4.69,3.86,4.34,5.11,11.6.15-3.7,5.93,7.39,3.94,13.65-5.09-3.8,7.63,17.69-4.16,11.77-24.82A72.34,72.34,0,0,1,138.3,44.3c.29-11.82-4.57-14.12-6.39-19.7C128.72,14.82,115.78.87,100.07,3.7,93.48-4,75,2.59,69,9.74,66.12,13.09,60,16.68,58,20c-5.26,9.17-7.77,16.31-9.59,18.64C36.93,53.43,42.57,77.11,46,65.92c2.35,15.26,11.8,22.79,10.19,11.69,7.4,10.17,12.4,8.16,10.8,4.52C74.34,87,77.68,85.35,75.38,81.34Z"/>
  <g class="hairOverlapLine">
    <path d="M78,34c-2.53-1.33-2.15-2.84.74-2.66"/>
    <path d="M121.1,53c5.42,2.23,6.19.16,4.86-1.21"/>
  </g>
  <g class="eye">
    <circle class="sclera" cx="91.49" cy="63.81" r="23.14"/>
    <g class="irisDarkBrown">
      <circle cx="107.35" cy="61.05" r="3.33"/>
      <circle cx="84.54" cy="52.5" r="3.33"/>
    </g>
    <g class="pupil">
      <circle cx="107.35" cy="61.05" r="1.29"/>
      <circle cx="84.54" cy="52.5" r="1.29"/>
    </g>
  </g>
  <g class="skinIndian">
    <path d="M114.61,160.59c-15.67.51-28.3,8.81-42.22,2.83a5.54,5.54,0,0,0,0-1.77c3.92-2.54,1.56-5.11,4.6-8.66a17.43,17.43,0,0,0,9.22-7.66c7.71,2.35,13.88,5.42,28.57,3.86,4.24-1.15,5.28-4.52,13.36-4.34,4.36.1,5.42,0,9,2a13.3,13.3,0,0,1,4.25,3.77c3,.88,5.14,2.51,5,3.68-.41,3.07-2.28,3.52-3,4.1-1.31,1-3.16,1.63-4-.4.33,2.75-.84,4.15-4.11,3.78-.18,1.88-1.28,2.79-3.54,2.48.07,3.62-5,3-6.94.15C117.47,164.23,116.19,160.69,114.61,160.59Z"/>
    <path d="M115.45,161.83c-4.54-2-30.22,2.92-44.89,6.35a7.7,7.7,0,0,1-2.5,5l47.55,13.7c3.49-1.93,6.71-4.75,7.64-9.16C124.52,171.69,121.42,164.46,115.45,161.83Z"/>
    <path d="M109.71,168.92c-4.57-2.32-38.63,1.53-56.33,5.36-2.86,5-.68,34.09,4,44.6a185.6,185.6,0,0,0,41.11-22.23c4.86,2,10.43.39,14.42.95a22.82,22.82,0,0,0,4-8.22C119.27,179.94,114.28,171.25,109.71,168.92Z"/>
    <path d="M65.72,67.83c-1.86,8.41-4.8,14.5-12.76,14.56C54.72,89.7,54.45,96.7,54.45,107c0,10.71,24.65,17.71,28.51,10.88,2.5-4.45,5.27-13.77,6.14-20.91-2.48-2.29-1.54-2.07-3.95-4.55-1.76-1.82-1.49-3.89-.1-7.17"/>
    <path d="M90.77,98.63c-.59,6.12-2.46,12.26-5,19.14-.37,1.84,2,8.66,2.79,13.57C96.93,117.85,98.67,106.29,90.77,98.63Z"/>
    <path d="M36,189c.7-15.47,6.94-29.73,4.84-41.61-1.28-7.2.42-21.68,1.34-33.8,2.34-.41,9.58-3,9.67-4.54.64-10.91.07-20.74-1.23-26.55-9.4.18-21.15,2.1-25.7,11.33-3.83,7.79-.68,36.67-3.19,49-3.83,18.69,1.43,28.34,2.72,47.35-3.81,2.68-5.08,12.2-7,13.09-3.21,1.53-1.27,4.32-.59,5.65,1.64,3.23,3.27,2.43,6.5,2.57,1.31,1.58,4.72,2.76,6.29,1.51a8.8,8.8,0,0,0,2,1c.65,2.36.14,6.11,1.77,6.58,4.07,1.19,4.28-2.88,4.13-6.11l2.17.05c-1.18-2.82,2.1-4,.54-13.32C39.11,193.58,35.77,190.32,36,189Z"/>
    <path d="M62.78,53.23c-4.76,1.16-4.17-4.14-4.43-5.43C55.1,31.44,70.17,26.21,67.8,38c.6,4.18,3,5.14,4,1.73C72.64,37,75.7,35,78,34a27.62,27.62,0,0,0,14.65,2.4c-6.12,2.34,3.59,5.83,8.42-3.19-3.77,9,15.69,21,11.62,13,2.32,3,4.29,5.33,8.4,6.78a16.06,16.06,0,0,1,0,6.45c-1.31,2.52-3.1,4.39-3.62,5.85-3.57,10-8.5,19.61-20.13,21.83-3.26.62-8,4.22-14.37,1.43-5.47-2.4-7-5.77-9.16-7.88C65.27,72.12,61.61,63.63,62.78,53.23Zm42.58,6.89c.94.14,1.46.7,3.38,1.46a10.55,10.55,0,0,0,5.5.32,37.24,37.24,0,0,0-4.54-3c-1.38-.73-3.56-.32-5.56.2C103.21,59.35,104.92,60.05,105.36,60.12Zm-12.79-5.6C91,51.65,89.78,50.6,87,50.24a49.45,49.45,0,0,0-5.81-.56,14.11,14.11,0,0,0,5.11,3.59c2,.92,3.29.63,4.59,1.09C91.3,54.51,93.09,55.44,92.57,54.52Z"/>
  </g>
  <g class="skinOverlapLine">
    <path d="M44.65,100.34c-1.23,3.39-1.89,8.17-2.43,13.25"/>
    <path d="M67.74,114.74c-.63,1.64-.31,3-.66,4.23"/>
    <path d="M89.61,115.86a38.46,38.46,0,0,0-2.92,7.37"/>
    <path d="M125.24,149.09c2.75.83,4.76.11,8.07,1.12,1.51.47,1.8,1.76,5.73,2.81"/>
    <path d="M117.35,158.51c4.5,1.17,8.89.58,10.68-3.34a6.17,6.17,0,0,0,2.53-.18,9,9,0,0,0,6,1.44"/>
    <path d="M143,154.45a2.92,2.92,0,0,0-2,.54"/>
    <path d="M135.18,161.75c-3.9-.81-7.91-2.47-9-4.22"/>
    <path d="M131.64,164.23c-3.74-.9-8.61-2.61-8.11-5.44"/>
    <path d="M124.7,164.38c-1.22-1.27-1.36-2.85-.55-3.56"/>
    <path d="M20.43,202.67c1.33.56-.17,6.32,3,8.78"/>
    <path d="M25.6,199.77c-.06,7.81.2,9.91,4.13,13.19"/>
    <path d="M31.24,198.79c-.85,6.69.46,10.69.53,15.22"/>
    <path d="M37.48,199.58c-.79,6,.13,10.56.19,14.9"/>
    <path d="M98.48,196.65a28.22,28.22,0,0,0,2.35-1.74"/>
    <path d="M102.76,165.57a19.63,19.63,0,0,0-7.16,2.94"/>
  </g>
  <g class="skinFoldLine">
    <path d="M131.14,147.49a4.18,4.18,0,0,0-1.48,2.12"/>
    <path d="M20.27,207a3,3,0,0,0,1.14.41,1.46,1.46,0,0,1-.74,1"/>
    <path d="M65.64,39.67c1.91-9-7.59-4.37-5.57,5.26"/>
    <path d="M64.48,43.12c-2.39,1,0,6.29-2.22,5.73-1-.25.32-2.54-.2-4-1.4-3.89,1.31-6.8,2-4.84"/>
  </g>
  <g class="skinEdgeLine">
    <path d="M30.28,208.24a5.24,5.24,0,0,1-3,.34"/>
    <path d="M25.46,209.31a3.67,3.67,0,0,1-2.17.52"/>
    <path d="M35.85,206.2a5.78,5.78,0,0,0-3.53.31"/>
    <path d="M36.87,195.42c-3.89-1.87-4,.79-7-1-2.8-1.66-3.58,1.59-5.57,1.3-2.15-.31-2.53,1.55-3.29,2.18"/>
  </g>
  <path class="skinCreaseLine" d="M40.88,147.39c-1.84,0-3.63-2.54-4.84-2.37"/>
  <g class="wishbone">
    <g class="wishboneDark">
      <path d="M140.51,149.13l-1.14-.51-1.58-.26c-.3,1.68.08,3.76,1.25,4.66,1,.79-.37,3.09-2.51,3.41l1,1C143.35,154.39,138.7,151.68,140.51,149.13Z"/>
      <path d="M150.67,146l-1.12-.55c-2.2,3.57-6.21,6.87-9,6.14C141.81,154,147.44,151.59,150.67,146Z"/>
    </g>
    <path class="wishboneLight" d="M151.76,146.83l-1.09-.86c-4,6.89-11.53,9-10.16,3.16l-1.71-.24c-.44,2.23.14,3.78,1.28,4.57l-2.52,3.94,1.73.57,2.3-4C145,154.7,149.44,150.72,151.76,146.83Z"/>
  </g>
  <path class="lipFemaleBrown__noStroke" d="M81.61,72.26c2.21,1.28,4.17,3.91,8,5.49,3.4,1.41,5.54.49,8.73.31-3.07,2-4.15,4.64-10,3C83.31,79.54,82.9,74.89,81.61,72.26Z"/>
  <path class="lipFemaleBrown" d="M81.61,72.26c2.28.84,4.17,3.91,8,5.49,3.4,1.41,5.56.15,8.73.31a13.62,13.62,0,0,0-2.49-.4c-1.1,0-1.74-.43-3.52-.44-2.43,0-3.14-1.35-5.46-2.35C84.21,73.74,83.49,73,81.61,72.26Z"/>
  <path class="lipEdgeLine" d="M95.3,80.31c-3.66,2.63-10.28.77-12-3.91"/>
  <g class="cheekLine">
    <path d="M100.14,70.12c1,3.1,1.18,4.77.42,7.75"/>
    <path d="M88.82,66.45c-2.72.3-6.52,3.43-8.84,3.07"/>
  </g>
  <path class="noseLine" d="M100.61,63.58c-.7,2.86-.88,5.44-.47,6.54.81,3.34-2.18,3.6-3,3.68-1.3.13-2.11,1.43-4.38.83-3.08-.81-2-2.52-4.56-4.24-1.68-1.16-1.29-3,.57-3.94"/>
  <g class="eyeFoldLine">
    <path d="M113.19,64a9.52,9.52,0,0,1-7.79-2.24"/>
    <path d="M90,56c-1.6.5-5.93-.7-7.54-3"/>
  </g>
  <g class="eyeCornerLine">
    <path d="M81.18,49.68a4.07,4.07,0,0,1-2.87-1.18"/>
    <path d="M116.37,62.68a8.06,8.06,0,0,1-2.13-.78"/>
  </g>
  <g class="eyeCreaseLine">
    <path d="M107.08,57.16c2.49-.35,5.4,1.61,8,4"/>
    <path d="M82.86,48.52c4.78-.06,8,.85,10.21,3.78"/>
  </g>
  <g class="eyebrowBlack">
    <path d="M119.32,59.31c-2.59-5.93-7.76-6.2-10.69-8.2-1.35-.93-1,2.61,1.17,2.78A12.32,12.32,0,0,1,119.32,59.31Z"/>
    <path d="M80.05,44.31c8-2,13.14,2.15,17,2.62.88.1-1.31,2.34-3.37,1C89,45,87,44,80.05,44.31Z"/>
  </g>
</svg>
