<svg viewBox="0 0 152.08 238.82">
  <g class="lizSock">
    <path d="M120.54,180.55c5.74-.48,13.32-.33,15.53,1.75,3.28,3.09,1.63,16.41-5.1,19.44-3.14,1.41-6.99,1.63-11.07,1.59-13.78-4.62-11.31-18.64,.64-22.78Z"/>
    <path d="M112.9,197.6c4.46,.4,8.99,2.26,9.41,6.61,.83,8.48-5.19,18.08-13.87,16.17-11.11-2.45-25.57-3.35-34.1-10.52,12.13-14.38,24.79-21.24,38.56-12.27Z"/>
  </g>
  <path class="lizUndershirt" d="M1.41,178.71c-1.22-1.48,.94-2.51,1.37-4.34-2.85-4.37,1.53-7.67,2.98-10.72-1.45-3.65,2-4.08,2.64-6.24-.95-3.94,3.38-4.79,4.26-10.9-.46-4.58,1.19-4.55,1.83-7.29,1.95-8.31,5.52-19.77,9.07-28.03l27.1-28.68c2.12-2.43,2.3,2.61,22.32,10.3,14.7,5.64,17.82,2.89,17.8,5.84l-2.21,32.71c1.37,10.11-3.05,18.48-11.62,21.65-3.04,3.55-.68,6.12-4.6,8.66,.28,1.69,0,3.36-2.03,4.99,.86,1.92-.63,5.17-2.26,6.51-20.49,9.52-44.8,10.99-66.65,5.56Z"/>
  <path class="lizShortsInner" d="M59.57,222.16c-5.17-3.31-2.97-4.11,1.35-5.87,.48,1.53-.06,4.88-1.35,5.87Z"/>
  <path class="lizShorts" d="M1.41,178.71c5.31,1.51,17.87-.93,28.34-.53,6.66,.26,17.25-3.49,24.23-4.55-4.23,2.22-.85,43.56,5.6,48.53-5.29,1.37-18.72,1.28-31.94,.53-22.24-1.27-30.7-19.72-26.22-43.98Z"/>
  <path class="clothesOverlapLine" d="M76.95,152.99c-9.53,1.4-14.09-2.78-19.55-4.43-4-1.21-12.23-.17-16.7-2.42"/>
  <g class="clothesFoldLine">
    <path d="M7.84,188.15c2.4-2.17,6.89-4.56,10.29-5.72"/>
    <path d="M23.39,181.65c-6.27,3.17-10.57,15.76-13,14.47-2.69-1.44,.97-6.12,4.25-9.36"/>
    <path d="M50.38,200.45c-5.49,8.35-17.06,15.07-29.54,17.56"/>
    <path d="M12.65,146.5c.82,3.38,2.1,6.32,3.89,8.76"/>
    <path d="M14.04,161.72c1.8,3.03,3.93,5.35,6.33,7.05"/>
    <path d="M8.39,157.41c2.2,6.98,11.27,11.07,4.65,9.08"/>
    <path d="M5.76,163.65c2.97,3.25,6.83,5.63,11.22,7.47"/>
    <path d="M2.77,174.37c1.15,1.53,4.6,1.93,2.62,2.72"/>
    <path d="M4.49,170.56c5.3,4.39,11.48,6.66,18.51,6.87"/>
    <path d="M70.32,166.64c-3.41,1.88-9.03,2.7-15.58,3.08"/>
    <path d="M72.35,161.65c-2.16,1.9-6.66,3.47-12.2,4.42"/>
    <path d="M70.53,160.17c-1.45,1.02-3.53,1.86-6.25,2.53"/>
    <path d="M73.69,155.47c-3.39,.56-7.65-.91-10.88-1.75"/>
    <path d="M54.67,150.63c-3.51,.02-9.93-.07-11.64-1.26"/>
    <path d="M76.15,134.9c-4.17-.76-8.49-2.32-12.36-3.72"/>
    <path d="M71.31,136.16c-5.9-1.61-11.02-2.88-14.53-5.05"/>
  </g>
  <g class="photo">
    <path class="dullTealDark" d="M42.51,214.58l-13.1-.29c.58,9.05-5.41,17.43-11.94,23.9l15.65,.38c5.26-6.47,9.39-14.85,9.39-23.99Z"/>
    <g class="flatTealLightest">
      <path d="M23.49,233.16l11.85,.27c-.92,1.42-1.9,2.75-2.9,3.99l-12.42-.31c.87-.88,2.4-2.57,3.46-3.95Z"/>
      <path d="M23.83,232.72l11.8,.27c.8-1.26,1.55-2.59,2.22-3.96l-11.36-.26c-.61,.95-1.82,2.85-2.66,3.95Z"/>
      <path d="M38.07,228.56l-11.31-.26c.9-1.55,1.68-3.17,2.31-4.82,2.14,.05,8.83,.2,10.88,.25-.15,.71-1.19,3.38-1.88,4.83Z"/>
      <path d="M30.71,215.59l10.47,.24c0,2.49-.39,4.96-1.07,7.36-2.11-.05-8.73-.2-10.84-.25,.83-2.3,1.32-5.36,1.44-7.34Z"/>
    </g>
    <g class="lizShirt">
      <path d="M32.8,215.64c.2,.41,.91,.84,1.36,.84,.42-.12,.83-.13,1.24,.04,.47-.06,.86-.45,1.17-.79l-3.77-.09Z"/>
      <path d="M31.11,223.52c.16,.26,.83,.64,1.28,.64,.43-.08,.84-.08,1.23,.03,.47-.04,.9-.36,1.25-.58l-3.76-.09Z"/>
      <path d="M28.51,228.82c.14,.21,.81,.61,1.3,.61,.46-.06,.91-.07,1.31,.02,.51-.03,1-.36,1.39-.54l-4-.09Z"/>
      <path d="M25.62,233.21c.11,.21,.79,.6,1.29,.6,.5-.06,.96-.07,1.38,.02,.54-.03,1.08-.35,1.53-.52l-4.2-.1Z"/>
    </g>
    <g class="skinIndian">
      <path d="M33.5,220.84c1.98,.23,3.09-2.95,1.65-3.73l.25-.6c-.39-.16-.81-.17-1.24-.04l-.06,.5c-1.79,.37-2.56,3.63-.6,3.86Z"/>
      <path d="M31.31,226.96c1.96,.15,3.38-1.88,2.01-2.38l.31-.38c-.38-.1-.79-.11-1.23-.03l-.11,.32c-1.82,.23-2.92,2.32-.97,2.47Z"/>
      <path d="M28.3,231.66c2.07,.12,3.84-1.51,2.45-1.91l.37-.31c-.39-.08-.83-.09-1.31-.02l-.16,.26c-1.98,.19-3.4,1.86-1.35,1.98Z"/>
      <path d="M24.98,236.04c2.15,.12,4.27-1.51,2.87-1.91l.44-.31c-.4-.08-.86-.09-1.38-.02l-.2,.26c-2.1,.19-3.87,1.86-1.73,1.98Z"/>
    </g>
    <g class="hairBlackDark">
      <path d="M35.3,216.77c.64-.03,1.89,.23,1.71,.94-.62,2.3-1.6,3.83-3.63,3.59-2.07-.24-2.1-1.72-1.77-3.97,.17-.77,3.04-1.03,2.71-.28-.96,.67-1.2,1.17-1.24,2.26,.84-.08,1.82-.06,2.46,.22,.46-1.07,.31-1.96-.39-2.4l.15-.35Z"/>
      <path d="M33.5,224.35c.65-.02,1.87,.15,1.62,.6-.85,1.47-1.97,2.45-3.98,2.3-2.04-.15-1.93-1.1-1.38-2.54,.24-.49,3.14-.66,2.74-.18-1.02,.43-1.31,.75-1.45,1.44,.85-.05,1.83-.04,2.44,.14,.56-.68,.5-1.25-.16-1.53l.18-.22Z"/>
      <path d="M30.97,229.58c.69-.02,1.97,.12,1.65,.48-1.09,1.18-2.41,1.96-4.54,1.84-2.16-.12-1.93-.88-1.16-2.03,.32-.39,3.43-.53,2.94-.15-1.14,.35-1.49,.6-1.73,1.15,.91-.04,1.96-.03,2.59,.11,.69-.55,.7-1,.02-1.23l.22-.18Z"/>
      <path d="M28.11,233.96c.73-.02,2.05,.12,1.66,.48-1.33,1.18-2.84,1.96-5.05,1.84-2.25-.12-1.88-.88-.89-2.03,.4-.39,3.69-.53,3.11-.15-1.26,.35-1.66,.6-2,1.15,.96-.04,2.06-.03,2.7,.11,.81-.55,.89-1,.22-1.23l.26-.18Z"/>
    </g>
    <g class="bennettSleeves">
      <path d="M36.57,215.73c.05,.3,.32,1.24,.92,1.4,.44-.12,.84-.09,1.25,.04,.81-.09,1.65-.93,2-1.34l-4.18-.09Z"/>
      <path d="M34.87,223.61c.02,.19,.2,.87,.79,.97,.45-.07,.85-.06,1.25,.02,.82-.06,1.74-.63,2.13-.89l-4.17-.1Z"/>
      <path d="M32.52,228.91c0,.15,.11,.77,.73,.85,.49-.06,.92-.05,1.33,.02,.88-.05,1.92-.55,2.38-.76l-4.44-.1Z"/>
      <path d="M29.82,233.31c-.02,.15,.02,.75,.65,.83,.53-.06,.97-.05,1.39,.02,.93-.05,2.1-.53,2.61-.74l-4.66-.11Z"/>
    </g>
    <g class="skinEastAsian">
      <path d="M37.19,221.84c2.18,.06,3.03-3.43,1.35-4.1l.21-.58c-.41-.13-.83-.15-1.25-.04l-.04,.56c-1.95,.5-2.44,4.09-.27,4.15Z"/>
      <path d="M34.9,227.59c2.18,.04,3.36-2.19,1.74-2.62l.26-.37c-.4-.08-.81-.1-1.25-.02l-.09,.36c-1.99,.32-2.84,2.61-.67,2.65Z"/>
      <path d="M32.06,232.17c2.32,.03,3.86-1.75,2.19-2.1l.33-.29c-.42-.06-.86-.08-1.33-.02l-.14,.29c-2.17,.26-3.36,2.09-1.05,2.13Z"/>
      <path d="M28.85,236.55c2.43,.03,4.33-1.75,2.63-2.1l.39-.29c-.43-.06-.89-.08-1.39-.02l-.19,.29c-2.32,.26-3.86,2.09-1.43,2.13Z"/>
    </g>
    <g class="hairBlack">
      <path d="M37.44,220.94c.51-.65,1.34-1.07,2.25-1.36-.3,4.1-5.82,3.24-4.12-.2,.9,.4,1.6,.98,1.87,1.56Z"/>
      <path d="M35.23,227.02c.57-.41,1.44-.68,2.38-.87-.7,2.62-6.13,2.07-4.1-.13,.87,.26,1.5,.63,1.72,1Z"/>
      <path d="M32.48,231.71c.66-.33,1.62-.55,2.65-.7-1.07,2.1-6.8,1.66-4.36-.1,.89,.2,1.53,.5,1.71,.8Z"/>
      <path d="M29.36,236.1c.75-.33,1.79-.55,2.89-.7-1.46,2.1-7.4,1.66-4.56-.1,.9,.2,1.52,.5,1.67,.8Z"/>
    </g>
  </g>
  <path class="hairBlackDark" d="M111.69,92.17c-6.26,.16-10.14-2.01-6.23-3.57-4.81,.26-7.93-2.22-9.87-4.87,29.51-57.09,60.78-40.32,16.1,8.44Z"/>
  <path class="hairBlack" d="M75.38,81.34l45.83-21.35c-1.28,6.18-3.55,10.98-6.65,17.04-1.06,2.06,.48,3.31,3.25,1.24-4.29,8.02-6.86,12.17-14.01,18.06-4.68,3.86,4.35,5.1,11.6,.15-3.7,5.92,7.4,3.94,13.65-5.09-3.8,7.62,17.7-4.16,11.77-24.82-1.86-6.47-2.74-13.57-2.53-22.27,.29-11.82-4.57-14.12-6.39-19.7-3.19-9.78-16.12-23.73-31.84-20.9-6.59-7.69-25.05-1.11-31.11,6.04-2.84,3.35-9.01,6.94-10.92,10.28-5.26,9.17-7.77,16.31-9.59,18.64-11.52,14.77-5.88,38.46-2.46,27.27,2.35,15.26,11.79,22.79,10.19,11.68,7.4,10.18,12.4,8.17,10.8,4.52,7.35,4.89,10.7,3.23,8.39-.79Z"/>
  <g class="hairOverlapLine">
    <path d="M78.01,34.02c-2.53-1.33-2.15-2.84,.74-2.66"/>
    <path d="M121.1,52.98c5.42,2.23,6.18,.16,4.86-1.21"/>
  </g>
  <g class="eye">
    <circle class="sclera" cx="91.49" cy="63.81" r="23.14"/>
    <g class="irisDarkBrown">
      <circle cx="107.35" cy="61.05" r="3.33"/>
      <circle cx="84.54" cy="52.5" r="3.33"/>
    </g>
    <g class="pupil">
      <circle cx="107.35" cy="61.05" r="1.29"/>
      <circle cx="84.54" cy="52.5" r="1.29"/>
    </g>
  </g>
  <g class="skinIndian">
    <path d="M114.61,160.59c-15.67,.51-28.3,8.81-42.22,2.82,.09-.59,.06-1.18-.04-1.77,3.92-2.54,1.56-5.11,4.6-8.66,4.07-1.5,7.2-4.18,9.22-7.66,7.71,2.34,13.89,5.42,28.57,3.85,4.24-1.15,5.28-4.52,13.36-4.34,4.37,.1,5.42,.02,9,1.97,1.99,1.09,3.04,2.28,4.26,3.77,3,.89,5.14,2.52,4.99,3.68-.41,3.07-2.28,3.51-3.02,4.1-1.31,1.04-3.16,1.62-4.03-.4,.33,2.75-.84,4.14-4.11,3.78-.18,1.88-1.28,2.79-3.54,2.49,.08,3.62-4.97,3.01-6.93,.15-7.23-.15-8.51-3.69-10.1-3.79Z"/>
    <path d="M115.45,161.83c-4.54-2-30.21,2.92-44.88,6.35-.1,1.81-1.26,3.95-2.51,4.97l47.55,13.7c3.49-1.93,6.72-4.74,7.65-9.16,1.26-6-1.83-13.22-7.81-15.85Z"/>
    <path d="M109.71,168.92c-4.57-2.32-38.63,1.53-56.33,5.35-2.86,4.99-.68,34.1,3.99,44.6,14.44-5.49,29.05-13.53,41.11-22.23,4.86,1.99,10.44,.4,14.42,.96,1.86-2.47,3.21-5.2,3.98-8.22,2.39-9.44-2.59-18.13-7.16-20.46Z"/>
    <path d="M65.72,67.83c-1.86,8.42-4.8,14.51-12.75,14.57,1.76,7.31,1.49,14.3,1.49,24.63s24.65,17.71,28.5,10.87c2.51-4.45,5.28-13.76,6.14-20.91-2.48-2.29-1.54-2.06-3.94-4.54-1.77-1.82-1.49-3.89-.11-7.17"/>
    <path d="M90.77,98.63c-.6,6.12-2.47,12.26-4.99,19.14-.37,1.83,1.98,8.65,2.79,13.57,8.36-13.49,10.11-25.05,2.21-32.71Z"/>
    <path d="M36.04,189c.7-15.47,6.93-29.74,4.83-41.61-1.27-7.2,.42-21.68,1.34-33.8,2.34-.41,9.58-2.98,9.67-4.55,.64-10.9,.07-20.73-1.23-26.55-9.4,.18-21.15,2.1-25.69,11.33-3.84,7.79-.68,36.67-3.2,48.96-3.82,18.69,1.43,28.35,2.72,47.36-3.81,2.67-5.08,12.19-6.95,13.08-3.22,1.53-1.28,4.32-.6,5.65,1.65,3.23,3.27,2.43,6.5,2.57,1.31,1.57,4.72,2.76,6.3,1.51,.68,.47,1.36,.81,2.03,1.05,.66,2.36,.14,6.11,1.77,6.58,4.07,1.18,4.28-2.89,4.13-6.12l2.17,.05c-1.18-2.82,2.1-4,.54-13.32-1.27-7.64-4.61-10.89-4.34-12.21Z"/>
    <path d="M62.78,53.23c-4.76,1.16-4.17-4.14-4.43-5.44-3.26-16.36,11.81-21.59,9.45-9.83,.6,4.18,2.96,5.13,3.97,1.73,.87-2.71,3.92-4.72,6.24-5.68,2.57,1.37,8.7,3.16,14.65,2.4-6.13,2.34,3.58,5.83,8.41-3.19-3.77,8.95,15.7,21,11.62,12.97,2.33,3.04,4.3,5.33,8.41,6.78,.32,1.39,.49,3.73-.05,6.45-1.31,2.52-3.1,4.39-3.61,5.84-3.57,10.05-8.5,19.61-20.13,21.83-3.25,.62-8.01,4.21-14.37,1.43-5.47-2.39-7.05-5.77-9.16-7.88-8.5-8.54-12.17-17.03-11-27.42Zm42.58,6.88c.94,.14,1.46,.7,3.38,1.47,1.75,.69,3.47,.58,5.5,.31-1.51-1.04-2.55-1.96-4.53-3-1.38-.73-3.57-.32-5.57,.21-.92,.24,.79,.95,1.22,1.01Zm-12.79-5.6c-1.61-2.87-2.79-3.92-5.58-4.27-2.89-.37-4.47-.57-5.82-.57,1.63,1.74,2.91,2.6,5.11,3.6,2,.91,3.3,.63,4.59,1.09,.42,.15,2.21,1.08,1.69,.16Z"/>
  </g>
  <g class="skinOverlapLine">
    <path d="M44.65,100.34c-1.23,3.39-1.89,8.16-2.43,13.25"/>
    <path d="M67.74,114.74c-.63,1.64-.31,2.96-.66,4.23"/>
    <path d="M89.61,115.86c-1.27,2.31-2.17,4.9-2.92,7.37"/>
    <path d="M125.24,149.09c2.75,.84,4.76,.11,8.07,1.13,1.51,.46,1.8,1.76,5.73,2.81"/>
    <path d="M117.35,158.51c4.51,1.17,8.89,.58,10.69-3.34,.78,.12,1.62,.06,2.53-.18,1.62,1.04,4.06,1.8,5.98,1.44"/>
    <path d="M143,154.45c-.74-.06-1.42,.11-2.01,.54"/>
    <path d="M135.18,161.75c-3.9-.8-7.91-2.47-8.96-4.22"/>
    <path d="M131.64,164.23c-3.74-.9-8.61-2.61-8.1-5.44"/>
    <path d="M124.7,164.38c-1.23-1.28-1.36-2.85-.56-3.56"/>
    <path d="M20.43,202.67c1.33,.55-.17,6.32,3.01,8.78"/>
    <path d="M25.6,199.77c-.07,7.81,.2,9.91,4.13,13.19"/>
    <path d="M31.24,198.79c-.85,6.69,.46,10.69,.52,15.22"/>
    <path d="M37.48,199.58c-.79,5.97,.13,10.56,.2,14.9"/>
    <path d="M98.48,196.65c.75-.49,1.54-1.08,2.35-1.73"/>
    <path d="M102.76,165.57c-2.76,.62-5.2,1.55-7.16,2.95"/>
  </g>
  <g class="skinFoldLine">
    <path d="M131.14,147.49c-.69,.53-1.21,1.21-1.49,2.12"/>
    <path d="M20.27,207.03c.41,.16,.66,.39,1.14,.41-.1,.41-.26,.77-.74,1.03"/>
    <path d="M65.64,39.67c1.9-8.97-7.6-4.36-5.57,5.26"/>
    <path d="M64.48,43.12c-2.38,1.03,.04,6.29-2.21,5.74-1.01-.25,.32-2.54-.21-4-1.39-3.89,1.32-6.8,2.05-4.84"/>
  </g>
  <g class="skinEdgeLine">
    <path d="M30.28,208.24c-.99,.38-1.98,.55-2.99,.34"/>
    <path d="M25.46,209.31c-.69,.44-1.41,.55-2.17,.52"/>
    <path d="M35.85,206.2c-1.04-.24-2.94-.15-3.53,.31"/>
    <path d="M36.87,195.42c-3.89-1.87-3.99,.79-7.04-1.02-2.8-1.66-3.58,1.59-5.57,1.3-2.15-.31-2.53,1.55-3.29,2.18"/>
  </g>
  <path class="skinCreaseLine" d="M40.88,147.39c-1.83-.05-3.62-2.54-4.84-2.38"/>
  <g class="wishbone">
    <g class="whiteDark">
      <path d="M140.51,149.13l-1.13-.51-1.58-.26c-.3,1.68,.08,3.76,1.24,4.66,.96,.79-.37,3.09-2.5,3.41l1.03,.97c5.78-3.01,1.13-5.71,2.94-8.27Z"/>
      <path d="M150.67,145.97l-1.13-.54c-2.2,3.57-6.21,6.86-8.96,6.13,1.22,2.45,6.86,.03,10.09-5.59Z"/>
    </g>
    <path class="whiteMedium" d="M151.76,146.83l-1.08-.86c-3.96,6.89-11.54,8.97-10.17,3.16l-1.7-.24c-.44,2.23,.13,3.78,1.28,4.58l-2.52,3.93,1.72,.57,2.3-4.02c3.42,.75,7.85-3.23,10.17-7.12Z"/>
  </g>
  <path class="lipFemaleBrown__noStroke" d="M81.61,72.26c2.21,1.27,4.17,3.9,7.99,5.49,3.41,1.41,5.54,.49,8.74,.32-3.08,1.97-4.15,4.63-9.95,2.95-5.08-1.47-5.48-6.13-6.77-8.75Z"/>
  <path class="lipFemaleBrown" d="M81.61,72.26c2.28,.84,4.17,3.9,7.99,5.49,3.41,1.41,5.57,.16,8.74,.32-1.18-.24-1.8-.4-2.5-.4-1.1,0-1.74-.43-3.51-.45-2.43-.01-3.14-1.35-5.46-2.34-2.65-1.13-3.37-1.92-5.25-2.61Z"/>
  <path class="lipEdgeLine" d="M95.3,80.31c-3.66,2.62-10.28,.76-11.99-3.91"/>
  <g class="cheekLine">
    <path d="M100.14,70.12c1,3.1,1.17,4.77,.41,7.75"/>
    <path d="M88.82,66.45c-2.71,.3-6.51,3.43-8.84,3.07"/>
  </g>
  <path class="noseLine" d="M100.61,63.58c-.7,2.86-.88,5.43-.46,6.54,.8,3.35-2.19,3.6-2.95,3.68-1.3,.13-2.11,1.43-4.38,.83-3.08-.81-2.05-2.52-4.56-4.24-1.68-1.15-1.28-2.98,.57-3.94"/>
  <g class="eyeFoldLine">
    <path d="M113.19,64.03c-2.66,.56-6.24-.62-7.79-2.24"/>
    <path d="M89.95,56.03c-1.6,.5-5.93-.7-7.54-2.98"/>
  </g>
  <g class="eyeCornerLine">
    <path d="M81.18,49.68c-1.65,0-2.35-.78-2.87-1.18"/>
    <path d="M116.37,62.68c-.79-.18-1.47-.43-2.13-.79"/>
  </g>
  <g class="eyeCreaseLine">
    <path d="M107.08,57.16c2.48-.36,5.39,1.61,7.97,3.97"/>
    <path d="M82.86,48.52c4.78-.06,8.01,.84,10.21,3.77"/>
  </g>
  <g class="eyebrowBlack">
    <path d="M119.32,59.31c-2.59-5.93-7.77-6.19-10.69-8.2-1.35-.93-.97,2.61,1.17,2.78,3.85,.31,7.27,2.1,9.52,5.42Z"/>
    <path d="M80.05,44.31c8.05-1.98,13.14,2.15,17.05,2.62,.88,.11-1.32,2.34-3.38,1.05-4.73-2.97-6.69-3.96-13.67-3.67Z"/>
  </g>
</svg>