<svg viewBox="0 0 196.22 302.43">
  <path class="mountDark" d="M156.42,289.49c0,15.92-116.62,15.92-116.62,0V225.18H156.42Z"/>
  <ellipse class="mountLight" cx="98.11" cy="225.18" rx="58.31" ry="11.94"/>
  <rect class="groove" x="91.13" y="269.76" width="13.96" height="21.84"/>
  <rect class="switch" x="76.98" y="248.12" width="42.25" height="21.84"/>
  <path class="bulbWhite" d="M195.22,94.11C195.22,40.48,151.74,1,98.11,1S1,40.48,1,94.11a90.52,90.52,0,0,0,28.55,66.77c18.33,18.44,24.12,40.71,26.35,62.64,0,10.33,83.52,10.33,83.52,0,1.28-22.9,8.34-43.93,26.86-62.28A90.5,90.5,0,0,0,195.22,94.11Z"/>
  <path class="filamentDisplayLine" d="M108.34,231.27V119.11c0-21,19.45-29.56,30.19-18.37,10.53,11,3.36,38.16-19.33,38.16H77c-21.78,0-29.86-27.2-19.33-38.16,10.74-11.19,30.2-2.63,30.2,18.37V231.27"/>
</svg>
