<svg viewBox="0 0 342.98 342.8">
  <path class="hand" d="M311.3,188.41c-1.82-85.34-22.23-147.47-74.4-178.57C215.51-2.9,193.75-3.51,177,9.43c15.28,7,36.14,26.34,31.52,32.76-8-11.63-21.07-22.25-34.08-28.69h0c-22-12.43-55.33-1.95-63.9,16,14.18,5.85,42.33,30.74,36.69,36.05A129.76,129.76,0,0,0,109,33.76c-28.62-15.85-70.32-24.53-94.18-10C-14,41.24,3.15,81.73,32.92,80c61.12-3.46,105.38,80.09,83.2,103.6-15.5,16.43-25-20.45-52.22-18.3-37.89,3-42.12,49.34-9.55,62.06,30.09,11.75,23.58,54.91,124.38,63,17.33,3.1,25,48.3,40.91,52.15,24.38,5.88,131.76-95.4,122.81-120C336.77,207,313.84,203.56,311.3,188.41Z"/>
  <ellipse class="handInner" cx="278.3" cy="278.95" rx="64.12" ry="11.76" transform="translate(-115.55 266.9) rotate(-43.31)"/>
</svg>
