<svg viewBox="0 0 290.73 196.22">
  <path class="contact" d="M17.71,123.93C3.93,128.08-2.5,137.61,2.92,155.6,8.15,173,18.93,178,32.71,173.84Z"/>
  <path class="screw" d="M65.45,92.57C58.29,82.23,39.67,84.84,38,98.67,34.64,87.16,14.5,93,15.76,110.18c1.48,20.19,12.93,58.53,23,76.19,8.52,15,28.45,8.77,24.87-2.66,9.06,10.57,25.79,2.49,26.29-10.08C90.6,155.4,76.47,108.48,65.45,92.57Z"/>
  <path class="bulbWhite" d="M224.08,191c51.35-15.47,76.61-68.49,61.14-119.84S219.41-10.42,168.06,5.05a90.54,90.54,0,0,0-55.7,46.6C100,74.52,80.34,86.49,60,94.94c-9.89,3,14.2,83,24.09,80,22.3-5.38,44.47-4.69,67.38,7.75A90.48,90.48,0,0,0,224.08,191Z"/>
  <path class="filamentDisplayLine" d="M67.69,147.39,175.08,115c20.11-6.06,33.91,10.1,26.3,23.61-7.46,13.24-35.57,14.22-42.12-7.5L147.1,90.76c-6.29-20.85,17.43-36.43,31-29.51,13.81,7.06,11.23,28.15-8.88,34.21L61.79,127.81"/>
</svg>
