<svg viewBox="0 0 180.76 486.71">
  <g class="soleWhite">
    <path d="M66.36,473.61a25.75,25.75,0,0,1-1.46,7.19c-4,9.24-34.57,5.21-36.15,1.6-1.3-2.21-.72-4.2-.3-6.53Z"/>
    <path d="M113.31,474.06c1.31,2.71,1,6.63-.26,8.34-2.72,3.69-20.07,4.87-27.39,2-6.43-2.52-4.93-5.63-8.09-9.55-.78-1.39-1-4.05-.89-7.15Z"/>
  </g>
  <g class="tomerShoe">
    <path d="M61.23,477.78c-11.7,4.27-29.06,1.71-32.78-1.91,1.44-7.87,11-9.55,13.37-22.32l19.41.6a33.73,33.73,0,0,1,5.13,19.46A12.55,12.55,0,0,1,61.23,477.78Z"/>
    <path d="M83.55,476.47c-2.86-3.75-4.85-3.22-6.87-8.76a45.83,45.83,0,0,1,2.85-13.86l21.31.1c2.92,13.57,10.2,15.41,12.47,20.11C113.81,480.9,87.61,481.81,83.55,476.47Z"/>
  </g>
  <path class="tomerPants" d="M28.35,245.43c-4.29,14.82-3.12,38.45-1.29,64.34,1,14.63,3.65,25.43,4.42,33.37.39,4-1.14,7.76.05,12,3.44,12.21-.1,39.55,3.32,56,6.06,29.14-3.46,29.47,4.31,38.94.19,2.6-2.86,5.26.53,8.12a7.28,7.28,0,0,1,3.79-.77c2.8-2.74,9.41-2.26,12.17.84,3.52,1.19,7.49-2.64,9.21.87.65-5.26-2.13-9.63.37-12.29,5.79-6.19-.87-18,1.59-27.87,3.36-13.55-2-24,.88-40.37,1-6-1.28-17.07.44-23.05,1.63-5.64.75-16.11,2.79-23.88-.6,10.73,1.78,21.26,1.82,25.47.09,9.66,3.23,24.12,1.57,33.56-2.82,16.07,2.1,32.63-.31,39.7-2.24,6.57,1,11,4.88,14-2.23,3.41-4.76,6.4-.8,11.95a15,15,0,0,0,7.9,1.46c1.18-3.66,10.78-4.23,12.85-1.21,4.76,2,7.34,1.11,5.6-5.49,2.61-3.42-1.14-6.11-2.42-8.68,7.53-3,4.13-11.11,4.16-15.18.24-28,3.49-45.4,1.89-56.61-1.68-11.8,3.08-26.3,4.37-48.45,1.15-19.92,8.53-44.67-1.43-79.62Z"/>
  <path class="tomerShirt" d="M108.15,205.9c-.52,5.13,3.25,7,.85,11.43a32.66,32.66,0,0,0,.17,9.89c3.78,1.52,1.37,6.7,2.07,12.5-14,3.15-70.36,4.62-83,1.33-1.48-3.61,1-6.77,1.27-10.76-3.77-4.8-1.18-7.32-.76-11.43.52-5.07-3.25-7.58.93-9.72,0-12.68-1.64-21-.86-28.14-6.7.44-19.16-1.79-25.59-4.61C6.7,166.14,6.31,158.87,8,146.54c1.23-8.95,9.19-18.08,17.91-20.27,10.7-2.68,19.94-8.07,28.7-9.71l31.11.55c3.44-.33,6.55-.85,8.67-1.92,2.17-4.94,5.28-1.7,8.92-1.57,2.69.1,4.22-3.49,5.78.24,3.86-5.9,3.82-.48,11.17-3.25,1.61-2.86,2.84-.65,4.82,0,1.19.39,2.65-3,4.34-.24a13.8,13.8,0,0,0,4.33-.84c-.33,8.18.54,19,1.35,29.33-10,2.47-20.35,6.68-22.69,18.26S110.22,185.49,108.15,205.9Z"/>
  <g class="escherLogo">
    <path class="clothWhiteMedium" d="M50.94,210.85q28.82-8.94,57-20-6.69-23-13.35-46.05-28.2,10.62-57,19.07Q44.24,187.35,50.94,210.85Z"/>
    <g class="sleeveDisplayLine">
      <path d="M82.74,172.05c3.88,1.49,9.21-1.4,12.71,1.54"/>
      <path d="M92.76,153.78c-3.24.63-8.19-.34-11.05,1.58"/>
      <path d="M63.79,185.11c-3.34-1.51-8.71,1.28-11.47-2"/>
      <path d="M52.56,202.44a22.24,22.24,0,0,1,7-.32c1.47.08,3.29.45,4.53-.64"/>
    </g>
    <g class="clothGrayLight">
      <path d="M82.74,172.05h0c1.08-1.22.92-3.54,1-5.08a15.7,15.7,0,0,0-2-.14C81.78,168.3,81.42,171,82.74,172.05Z"/>
      <path d="M62.74,190.17c.61.08,1.29.19,2,.26.08-1.55.16-4.14-.92-5.32C62.71,186.22,62.8,188.71,62.74,190.17Z"/>
    </g>
    <path class="clothGrayMedium" d="M82.5,210.82q6.1-15.47,12.16-31c.23-.66,2.29-5.59.81-6.26s-3.25,4.18-3.62,5q-6.06,15.47-12.16,30.91C79.39,210.3,82.2,211.57,82.5,210.82Z"/>
    <g class="clothWhiteDark">
      <path d="M50.31,178.37c2.39.82,3.38-2.34,3.52-4.35.36-5.11,2.74-8.19,7.51-6.75,5,1.51-2.17,7.07-3.55,7.93-2.26,1.42-1.61,5.43,1.29,4.81a21.51,21.51,0,0,0,13.5-9.49c2.22-3.51,7.51-4.09,11.15-3.55.08-3.28.27-9.09-2-11.61-6.88.88-13.56-4.05-20.41-2.5-5.37,1.93-12,5.62-12.17,12.68a8.91,8.91,0,0,1,5.07-5.48C50.53,162.21,43.88,176.16,50.31,178.37Z"/>
      <path d="M93.28,182.92c2.61,2,2,6.42.85,9.11-2.34,5.69-8.06,9.21-13.23,10.53-5.5,1.4-11.09-1-16.81-1.08-1.85-3-1.57-7.89-1.35-11.31,3.91.59,6.29,0,8.87-3.43,3.48-4.67,10.29-2.61,11.92-9.37.67-2.8,4.66-4.91,5.86-1.29,1.35,4-2,10.1-4.81,12.61,3.62-1.72,6.54-8.51,5.47-12.63,7.59-.74-.45,14.21-2.65,16.37C90.54,190.58,92.26,186.42,93.28,182.92Z"/>
    </g>
    <path class="clothGrayMedium" d="M65.29,146.5q-6.06,15.21-12.18,30.42c-.26.71-2.32,5.64-.79,6.15s3.21-3.89,3.6-4.78Q62,163.07,68.11,147.81C68.4,147.07,65.59,145.75,65.29,146.5Z"/>
  </g>
  <g class="tomerSweater">
    <path d="M50.78,120.52c2.15,4.63,13,10.7,22.11,11,5.31-1.53,13.82-7.13,14-12.12Z"/>
    <path d="M133.74,110c3.73-1.52,8.29-2.46,12-4.36,1-2.61,2.24-3.06,4.77-2.66.17-2.46,1.08-3.85,2.93-3.91-.69-1.73-.25-3.86-1.26-5.92-3.13-1.75-4.5-4.8-5.16-8.37-2.17.11-3.08-2.87-4.61-4.6-1.66-1.89-5-3.38-3.3-8.6C137,68.5,133.52,67,132.3,63.63c3.09-2.43,7.11-6,9.61-10,2.91.53,4.46,5.39,8.32,7.5,3.19-1.51,6.4,6.23,9.2,9.59,10.55,12.65,18.43,21.6,20.93,33.49.76,3.61-1.58,4-2.23,7.53-.71,3.8-3.57,3.39-7,7.66-3.94,4.88-11.06,4.43-16.32,8.93-3.69,3.15-12.08,4.33-19.81,9C134.25,127.72,133.46,117.68,133.74,110Z"/>
    <path d="M1.3,222.07c-1.68-3.6-1.27-5.73.7-8.51S.45,206.64,3.26,203c-2.94-5,.88-7,1.31-26a73.89,73.89,0,0,0,22.6,4.12c-.28,5.77-1.13,11.1-2.15,18.68,2.55,6.08.12,7.29-.69,11.16-2.11,10.06,2.06,23.95-2.79,29.45,1.73,3.89,0,6.29.45,7.61.74,2.16,1.86,2.37.38,5.55,1.48,1.44,1.3,3.63-.14,6.23.22,4.63,1,8,1.54,12.4-2.6,4.07-16.1,4.11-17,1.55-.11-4.76-1.69-8.95-1.11-12.14-2.92-1.29-3.19-2.72-2.65-4.74.33-1.24-2.34-3.61-.42-5-3-2.47-2.08-3.54.14-7S.33,230.5,1.3,222.07Z"/>
    <path d="M27.34,247.39c20.66,3.06,59.56,2.85,85.16-1.61-.43-2.59.63-4.18-1.26-6.06-14,3.15-70.36,4.62-83,1.33C27.67,243.61,26.42,245.73,27.34,247.39Z"/>
  </g>
  <g class="clothesDisplayLine">
    <path d="M150.23,61.11c2,4.17-6.92,11.32-11.14,10.46"/>
    <path d="M22.23,259.74c-3.59,2.55-12,3.43-16.6,1.81"/>
    <path d="M73.23,249.29c.31,8.22,1.44,18.73.94,25.69-.39,5.37.76,11.91-2.16,16.25"/>
    <path d="M63.67,249.45c1.28,6.64,1,15,.81,24.79-.09,4.34,2.21,8.53,9.6,7.37"/>
    <path d="M52.81,249.32c-.27,8.59-8.83,10.48-20.18,10.73"/>
    <path d="M86.1,248.71c.57,7.54,8.3,10.57,20.62,10.45"/>
    <path d="M81,473.8c3.88-2.64,11.42-10.3,27.94-4.8"/>
    <path d="M32.18,469.25c9-3.44,27.84-.42,30.42,7.87"/>
    <path d="M77.54,460.79a24.59,24.59,0,0,1,1.25,10.9"/>
  </g>
  <g class="clothesOverlapLine">
    <path d="M28.85,162.18c-.54,6.58,1.43,13.34,0,18.82"/>
    <path d="M153.42,99.06c.33,4.91,6.63,8,13.78,8.43"/>
    <path d="M72,291.23a361,361,0,0,1-1.08,40.39"/>
    <path d="M43.48,457.37c5.65.77,4.68,6.32,3.3,10.87"/>
    <path d="M47.81,463.34c1-4.53,5.07-5.44,7.84-5.13"/>
    <path d="M96.32,467.11C95,462.83,94.61,456.27,86,457.78"/>
    <path d="M98.84,456.57c-3.44-.14-5,.37-5,3.57"/>
  </g>
  <g class="clothesFoldLine">
    <path d="M25,199.74c-.61,8.64-11.79,7.43-17.18,0"/>
    <path d="M3.26,203a16.33,16.33,0,0,0,3.37,3.68"/>
    <path d="M18.35,213.91C10.8,219,.94,219.64,2,213.56"/>
    <path d="M21.54,240.35c-2.25,2.25-5.42,2.29-4.94,4.67"/>
    <path d="M20.5,236.54c-5.66,5.52-16.33,5.65-5.12,12.52,4.18,2.56-5,1.89-10-.67"/>
    <path d="M22.37,253.51c-3.89,2.29-8.35,2.74-7.53.94"/>
    <path d="M2.56,251.79c3.26,2,13.06,2.94,3.26,3.47"/>
    <path d="M9.19,160.89c.77,6.36,2.61,11.52,7.94,12.8"/>
    <path d="M29.5,230.29c1.92,1.84,4.81,3.24,8.92,4.11"/>
    <path d="M33.84,229A68.52,68.52,0,0,0,52,234.67"/>
    <path d="M108.87,229.14c-4.72,5-10.93,7.28-18.32,7.28"/>
    <path d="M109,217.33c-3.5,3.33-8,5-10.91,8"/>
    <path d="M104.29,216.48c-4.89,6-15.08,9.29-27.75,11.32"/>
    <path d="M100.92,181.19c-11,8.92-29.3,20-18.86,22.63"/>
    <path d="M89.2,181.86c-8.75,14.08-21.15,23.44-35.43,25.46"/>
    <path d="M67.51,170.05a62.09,62.09,0,0,0-21.68,13.2"/>
    <path d="M85.83,154.16c-8.27,8.29-19,14-31.52,17.78"/>
    <path d="M149.27,81.68a29.81,29.81,0,0,1,12.39,2.16"/>
    <path d="M147,84.77a31.26,31.26,0,0,1,13.05,3.11"/>
    <path d="M153.31,89.63c1.92,2.26,5.4,3.9,10.64,4.85"/>
    <path d="M152.16,93.14c2,1,4.37,2.22,5.76,2.36"/>
    <path d="M156.57,100c1.41,3,5.8,3.52,14.25,3"/>
    <path d="M153.61,103.86c.67,7.81,8.86,13.12,11.69,10,1.68-1.84-4-2.75-7.25-6.79"/>
    <path d="M150.49,103c0,4.15,1.72,8.07,7.41,13.6"/>
    <path d="M149.71,104.4c-5.79,2.69-1.78,18.91,1.45,9.08"/>
    <path d="M145.72,105.63c-1.88,4-2.37,10-4.79,13.23"/>
    <path d="M129.42,110.37a5.36,5.36,0,0,0-.62,4.28"/>
    <path d="M127.86,129.51c-.38,3.8-.39,6.59.13,7.94"/>
    <path d="M123.27,115.6a47.66,47.66,0,0,0-3.49,16.47"/>
    <path d="M120.26,110.61c-.94,2.37-1.36,4.21-1.16,5.39"/>
    <path d="M119.24,121.15a98.59,98.59,0,0,1-7.81,22.77"/>
    <path d="M113.18,115.09a33.13,33.13,0,0,0-4.31,15.76"/>
    <path d="M109.09,113.86c-1,4-2.15,8.21.45,5.54"/>
    <path d="M105.77,115.63c-1.57,2.53-1.35,6.47-2.16,9"/>
    <path d="M97.42,121c-2,4.58-3.89,9.09-3.24,12.12"/>
    <path d="M97,113.75c-.87,5.5-4.7,11-10.1,16.56"/>
    <path d="M110.18,152.41c-2.62,5.86-6.16,10.06-10.58,12.7"/>
    <path d="M108.55,160.22a51.68,51.68,0,0,0-7,11.56"/>
    <path d="M31.57,211.91c.1,3.14,8,6,21.32,8.63"/>
    <path d="M24.68,151c.22,4.95,1.67,12.38,4.17,11.19,3.46-1.63,3.22-13.3,10.28-17.73"/>
    <path d="M28.59,138.44c-2,11.91-1.9,31.14,3.06,9.28"/>
    <path d="M35.23,158.05c3.56-2.58,7.07-4.58,10.44-5.16"/>
    <path d="M43.88,156.89c-4.85.91-9.11,2.7-12.45,5.91"/>
    <path d="M78.29,284.7c2.22-1.92,7.19-2,12.25-1.94"/>
    <path d="M56.32,282c3.32,1,7.2,1.7,8.81,3.24"/>
    <path d="M67,290.36c1.14-4.41-5.56.09-9.45,3.33"/>
    <path d="M75.14,290c2.08-2.36,5.07.72,8.16,4.35"/>
    <path d="M62.81,353.27c-5.45,4.47-10.19-8.15-12.6-19.18"/>
    <path d="M103.87,345.86c-1.27,7.09-4.63,11.14-11.58,10"/>
    <path d="M82.74,369.59c6.3-8.25,17.42-4.36,20.67,10.38"/>
    <path d="M37.14,400.17c1.48,15.11,17.51,3.71,20.29-6.3"/>
    <path d="M43.25,433.73c3.9,6.67,12,7,17.34.18"/>
    <path d="M78.89,444.37c3.29,4.56,12.38,5.39,14.79,8"/>
    <path d="M104.44,451.08c-2,1.93-5.89,1.74-5.11,4.34"/>
    <path d="M102,442.4c-4.45,3.65-10.16,1.43-9.36,3.75s6,1.78,8,3.8"/>
    <path d="M39.16,450c7.71,3.63,12.06-3,20.5,1.22"/>
    <path d="M42.14,446.05c-3.8-6.67,5.43,1.65,12.33-1.29,8.25-3.53,12.6-3.06,5.19.74"/>
    <path d="M65.23,446.79a6.31,6.31,0,0,1-4.09,1.95"/>
    <path d="M98.4,427.42c2.41,11.68.37,7.14-5.47,13.72-7.37,8.31-15.75-6.12-9.17-8.34"/>
  </g>
  <path class="hairDarkBrown" d="M42.89,104.23a2.5,2.5,0,0,1-3.62-.88c-3,1.83-6.87-1.24-6.7-4.25-2.22,1.1-6.09-1.2-6.35-4C24.55,95,23,92.8,23.07,90.92c-4.45-.25-6.24-6.39-4.73-9.18-1.83-.72-2.58-4-1.72-5.48-3.57-.33-6.24-6.39-4.78-8.52C8.15,66.1,7.53,60.63,9.6,57.89c-1.54-2.29-.16-6.51,2.4-7.52-1.06-3,.65-7.25,2.89-8.12-1.3-2.09-.65-5.8,1.56-7C15,31,18.81,26.18,23.09,25.78c-.31-2.18,1.58-5.57,3.75-6-1.81-2.82.87-7.38,4-7.9.51-4,5.8-6.51,9.08-4.6a6.06,6.06,0,0,1,6.93-1.53C47.25,2.52,51.38.6,54,2.68c1.56-1,4.49-.44,4.78,1.53,1-1.09,4.3-1.4,5.39-.39A6.59,6.59,0,0,1,75.38,3c1.64-1.37,5.69-.64,6.83.91,3.32-2.41,8.55-.8,9.74,2.41,4.08-1.26,8.64,2.51,7.71,6.8a7.47,7.47,0,0,1,5.26,9c1.76-.16,3.93,1.85,3.44,3.67a5.08,5.08,0,0,1,5.46,5.24c4.07,2.05,4.69,8.74.4,11.35a3.27,3.27,0,0,1-.56,4.7c2,2,2,5.79-.43,7.23,1.82,4.14-.22,9.53-3.8,10.3.89,2.46.09,5.75-2.72,6.45,1.8,2.71.41,6.82-1.88,7.91L51.55,102.23C50.51,105.29,45.46,106.86,42.89,104.23Z"/>
  <g class="eye">
    <circle class="sclera" cx="80.97" cy="72.36" r="21.26"/>
    <g class="irisAmber">
      <ellipse cx="67.48" cy="71.22" rx="3.44" ry="3.54" transform="translate(-6.31 6.56) rotate(-5.32)"/>
      <ellipse cx="94" cy="68.76" rx="3.44" ry="3.54" transform="translate(-5.97 9.01) rotate(-5.32)"/>
    </g>
    <g class="pupil">
      <ellipse cx="67.48" cy="71.22" rx="1.34" ry="1.37" transform="translate(-6.31 6.56) rotate(-5.32)"/>
      <ellipse cx="94" cy="68.76" rx="1.34" ry="1.37" transform="translate(-5.97 9.01) rotate(-5.32)"/>
    </g>
  </g>
  <g class="skinAshkenazi">
    <path d="M52.12,97.74c4.13,8.74,3.11,19.35-1.34,22.78,3.58,8.49,34.43,10.64,36.1-1.07-2.56-2.36-2.1-9.39-1.69-17"/>
    <path d="M22.91,271.88c2.12,7.23,5.72,6.24,7.6,20.23.57,4.27,0,5.14,1,9,1.08,4.6-5.29,4.34-6.55-1.79-.23,2.54-.24,3.79.3,5.16a29.36,29.36,0,0,1,3.43,5.89c2.44,1.63,4.33,5,2.44,6.56-2.4,1.45-4.33-2.12-6.78-3.34-4,1-6.81-1.46-8.81-4.47-2.65.38-4.81-2.9-5.8-5.69-2.74-.28-4.52-8.07-4.57-10.57-.19-9,2.4-12.37,2.92-18.5A32.16,32.16,0,0,1,22.91,271.88Z"/>
    <path d="M45.12,90.1c-.8,2.26-5,2.09-6.63-.38-2.73-4.28-6.64-8.43-6.8-11.44a2.06,2.06,0,0,0,1.82-1.65c.8,1.67,3.74,2,5.09,1.05.62,2.77,3.3,1.14,4,3.18-.37-2.36,2.65-2.64.9-5.81A6.84,6.84,0,0,0,44,68.7c3.07.29,5.23-3,4.3-6,2-.84,2.7-4.18,1.84-6.49A6.34,6.34,0,0,0,57.28,51c2.61,1.64,8.79,1,10.81-2.17,1.26,1.12,4.4.61,5.28-.85,2.33,2.39,8.24,2.93,10.65-.77.81.93,3.7,1.61,5,.83,1,2.3,5.87,2.43,8.34.89.4,2,2.25,3.92,4.28,3.95.13,2.24,1.71,5.45,1.32,8.79-1,8.41,5,19.89.3,34.31-2,6.1-6.14,9.36-8.86,13.8-2.13,3.47-7.06,5.11-13.71,5.26-4.12.09-7.58-2.44-11.91-3.46C56.21,108.64,48.39,101.83,45.12,90.1Zm28.6-19.4a10.71,10.71,0,0,0-6.5-1.61,14.39,14.39,0,0,0-6.42,2.78A13.94,13.94,0,0,0,73,71.47C73.43,71.25,74.61,71.18,73.72,70.7Zm15.57-.79c4.93,2,8.53-.26,10.49-1.52A10.24,10.24,0,0,0,94.14,67c-2.5.23-3.7,1.08-6,2.41C87.22,70,88.86,69.74,89.29,69.91Z"/>
    <path d="M81.92,46.89c2.85-.63,8.29-.62,16.27-2.37,9.09-2,13.07-4.4,16.83-3.61,10.59,5.51,20.38,7.42,26.16,13.85-1.82,2.83-5,5.33-7.16,7.36-2.63-1.74-2.89-.39-6.28-1.28-4.83,2.56-11.3.94-18.44-2.88-4-1.34-14.7.34-15.15-4.93-3.33.59-6,.63-8.08-.59C81.3,53.08,78.85,47.56,81.92,46.89Z"/>
  </g>
  <g class="skinOverlapLine">
    <path d="M8.2,297.22a19.13,19.13,0,0,0,1.5,6.22"/>
    <path d="M11.8,298.27c1.2,5.09,1.56,7.17,3.7,10.86"/>
    <path d="M16.67,299.54c1.1,5.87,1.58,8.25,7.64,14.06"/>
    <path d="M23.53,290c.64,4,1.63,6.09,1.39,9.37"/>
    <path d="M105.12,45.61c-8.27,1.08-14.31,2.9-20.18,3.22-1,.32-.83,2.25,1.13,3.61"/>
    <path d="M108.55,47.76c-6.43.75-12.7,1.82-14.74,1.71-1.61.8-.37,5.74,6.54,4.24,4.77.37,13.09-1.65,14.64.26,7.37,6,11,6.52,12.75,6.87"/>
  </g>
  <g class="skinFoldLine">
    <path d="M33.42,77a16.42,16.42,0,0,0,4.23,7.91"/>
    <path d="M35.62,78.11c-.45,2.19,3.5,2.75,4.73,7.18.48,1.74,2.58.4.4-2.52-1-1.32-2.41-3-2-4.48"/>
  </g>
  <path class="lipMaleMedium__noStroke" d="M87.18,92.67a10.46,10.46,0,0,1-5.72.7c-3.11.5-6.74,1.71-10.39,1.78,5.65,3.35,5.71,7.45,13.1,6.32,8.27-1.28,6.17-5.57,8.93-8.53C90.36,93.35,89.09,92.39,87.18,92.67Z"/>
  <path class="teeth" d="M91.28,93.27c-.66.06-1.42.09-2.32.13-2.14.1-3.44,1.57-6.88,1.11-3.67-.49-5,.51-7.78.73C80.37,98.88,87.87,98.22,91.28,93.27Z"/>
  <g class="lipOverlapLline">
    <path d="M74.3,95.24a18.32,18.32,0,0,1-5-.38"/>
    <path d="M94.84,91.69C94,92.8,93,93.12,91.28,93.27"/>
  </g>
  <g class="lipEdgeLine">
    <path d="M81.46,93.37a10.46,10.46,0,0,0,5.72-.7"/>
    <path d="M76.75,99.6c4,4.42,13.1.7,13.55-1.1"/>
  </g>
  <g class="cheekLine">
    <path d="M89.54,83c1.79.75,2.82,2.77,4.55,4.56,1.42,1.46,2.71,3,2.87,5.22"/>
    <path d="M75.33,84.26C72.76,85.49,73.82,86,70.76,89c-1.91,1.9-3.16,4-3,6.28"/>
  </g>
  <path class="noseLine" d="M89.54,83c.93.69,1.67,3.23.18,4.23-2,1.32-1.6,3-5.43,3.6-3.06.51-3.16-1.59-7.54-2.18-2.84-.38-2.6-3.33-1.42-4.4"/>
  <g class="eyeFoldLine">
    <path d="M99,71c-1.84,1.82-6.12,3-8.73,1.24"/>
    <path d="M72,73.92c-1.62,2-5.53,2.45-8.12,1.69"/>
  </g>
  <g class="eyeCornerLine">
    <path d="M99.78,68.39a3,3,0,0,0,1.44.08"/>
    <path d="M58.17,72.39a3.05,3.05,0,0,0,2.63-.52"/>
  </g>
  <g class="eyeCreaseLine">
    <path d="M89.53,67c3.49-3.42,9.23-2.08,9.7-.11"/>
    <path d="M62.2,68.86A9.31,9.31,0,0,1,72.78,68"/>
  </g>
  <g class="eyebrowDarkBrown">
    <path d="M74.09,59.05c-.11,4.65-4.72,3.84-8.62,3.77-8-.14-9.41,5.8-9.51,3.54C58.86,57.49,68.82,59.91,74.09,59.05Z"/>
    <path d="M87,57.87c.48,4.6,4.68,3,7.64,2.61,5.72-.75,7.08,3,6.72.73C99.84,54.59,91.12,57.89,87,57.87Z"/>
  </g>
</svg>
