<svg viewBox="0 0 501.82 463.51">
  <circle class="hairDarkGray" cx="385.51" cy="60.07" r="12.63"/>
  <g class="father">
    <g class="chineseRedDark">
      <path d="M217.05,164.35c23.31,3.25,15.57-13.54-7.32-14.53C210.22,154.76,213.51,163.82,217.05,164.35Z"/>
      <path d="M396.37,18c8.26-4-7.37-13.62-7.22-4.85Z"/>
    </g>
    <path class="ghostTail" d="M266.58,195.57c-2.34,6.16-9,3.36-6.28,11.06-18,34-1.54,71.7,19.68,108.67,1.09,1.91-2.85,4.76,1.14,7.77-3-.27-3.47,4.38-1.73,5.71-9.88,20.16,5.08,38.66-9,59C250.62,425.89,297.53,435,293.31,463c28.23-20.08,11.78-46,14.49-53.84,3-1.5,4.05-3.43,2.95-6.47,5.32-4,1.39-7.29,3.09-10.26,13.46-23.57,28.46-32.29,32.31-61.3,3.33-27.63,2.57-57.29-1-92.25-.16-1.55,4-4.8,0-7.18C346.17,199.24,310.61,161.9,266.58,195.57Z"/>
    <g class="chineseRed">
      <path d="M349.85,103.84c3.78-6.44,14.15,5.82,25.35-3,.43,4.56-2.09,7.08-2.17,11.83,18,9.17,29.67,23.34,28.5,34.67a23.48,23.48,0,0,1,2.5,11.5c7.84,4.5,5.8,13.83,8,17.5s3.67,1.34,3,6c.84,4.34,7.17-3.5,12.5,14,4.56-1.5,8.57,1.71,12.34,7,8.16,3,8.5,6,10.66,7.5,6.07,4.2,11.67,5.5,17.83,11.5,1.88,1.38-12,20.94-14.33,20-7.68-3-13.68-7.08-20.16-10.5-7.07-3.72-15.17-7.83-18.67-12-3.25-3.86-8.65-5.4-12-8.33-3.09-2.71-3.84-5.75-7.17-8.67-5.33-4.66-10.57-18-14.33-26.16-2.26-4.88-4.84-4.84-6.5-11-10.42,13.13-6.33,19.73-13.87,21.77-1.73,3.77,2,6.6-3.62,11.32-4.07,7.88-8.09,18.38-12.1,29.7A279.43,279.43,0,0,1,307,214.62c14.1-34.05,7-36.84-3.63-1.55a344.67,344.67,0,0,1-39.6-16.35c1.26-5,3.65-7.42,5.34-11.63,1.76-4.36,2.38-10.59,5-14.61,3.27-4.95,1.69-7.11,2.83-10.53s4.24-1.55,4.4-9.41c-8.33,5.5-13.2,15.54-19,14.44-1.8-.34-8,6.28-22.16,5.5-9.29-.52-21.06-5.5-23.1-6.13,8.71-.32,12.1-9.59,16.35-25.46a113.48,113.48,0,0,1,17.6-1.1c2.67-8,5.55-5.36,6.44-6.45,2.2-2.67,3.62-5.81,6.92-5.5.2-4.89,7.86-7.38,10.53-11.94.63-5.5,5.86-5.59,8.33-9.12,6.55-9.35,16.5-15.55,25.46-15.71s17.58,2.77,25.93,5.34a28,28,0,0,1,4.71-7.86C339.8,96.14,351.27,98.81,349.85,103.84Z"/>
      <path d="M404,62.92c12.65-17.65,5.95-35.74-10.65-47.08-23.24-15.86-42.43-7-50,9.72C358.69,24.14,395.32,43.36,404,62.92Z"/>
    </g>
    <path class="chineseBlack" d="M396,51.58c9.91-14.25,6.92-27.7-2.65-35.74-10.87-4-16.93,3.06-24.62,16.59C378.67,37.21,388.85,44,396,51.58Z"/>
    <g class="chineseTrim">
      <path d="M310.15,213c2.43-9.4,4.88-19.94,8.91-29.51a258,258,0,0,0,10.38-27.72c2.44-8.27,5.79-14.12,8.63-20.77s5-13.14,8.56-19.1c8.87,3.68,23.15,3.08,29-1.86-.84-.47-1.7-.92-2.57-1.37-17.91,7.48-38.18-.51-38.42-18.27l-2.53-.78a25.06,25.06,0,0,0,10.27,20.19c-3.6,6.08-5.81,12.86-8.66,19.42-2.93,6.72-6.6,13.24-8.78,20.44-2.12,7-5.73,16.2-10.53,27.77-5,12-8.83,21.92-12.59,28.05A304.61,304.61,0,0,1,266.94,195a101.11,101.11,0,0,0,7.16-24.56h0c-2.65,4-3.27,10.25-5,14.61-1.69,4.21-4.08,6.61-5.34,11.63a344.67,344.67,0,0,0,39.6,16.35c3.05-5.93,6.51-13.61,10.22-22.32-2.4,8.45-4.62,16.44-6.59,23.87a279.43,279.43,0,0,0,38.65,13.85c4-11.32,8-21.82,12.1-29.7-4.52,5.79-9.07,15.33-13.63,26.22C336,223.12,319.07,217.07,310.15,213Z"/>
      <path d="M395.42,130.4,393.48,128h0c-8.84,9.68-18.39,25.35-21.68,42.47h0a48.08,48.08,0,0,1,3.4-4.83c3.56-11.92,11.15-26,20.22-35.28Z"/>
      <path d="M288.86,131.47c1.83-2.94,4.67-4.38,5.75-7.35,4.66-12.74,9.44-28.42,17-35-1-.06-2-.08-3-.06C301.11,94.23,296.57,113.34,288.86,131.47Z"/>
      <path d="M398.26,72.86c1-.12,6.51-7.42,6.27-8.77C396.58,43.57,356.81,23,342.07,25.74c-1.55,1.35-4.65,9.32-3.86,11.18C356.72,36,385.11,54,398.26,72.86Z"/>
    </g>
  </g>
  <path class="chineseTassel" d="M398.26,72.86c-1.06,11-2.19,22.27-1,31a1,1,0,0,1-1.4.36,2,2,0,0,1-2.28.59,2.13,2.13,0,0,1-2.61,0,2.16,2.16,0,0,1-2.39-1.22c2.16-8,3.27-15.14,3.19-21.15Z"/>
  <g class="bennett">
    <path class="bennettUnderwear" d="M115.05,232.77c-5.07,8.82-4.72,16.36-5.35,24.41-.63,8.24-1.7,16.54-1.67,23.38,2.93,1.95,39.11,6.12,46.63,1.95a27.53,27.53,0,0,1,4.59-12.11c2.22,3,4.22,7.29,6.13,12.25,6.82,1.25,42.59-9,44.54-11.56a46.18,46.18,0,0,0-2.65-12.66c-1.32-3.88-1.86-10.12-3.9-14.48-2.23-4.8-1.34-14.54-6.53-16.25Z"/>
    <path class="bennettWaistband" d="M194.54,218.4c0,3,1.4,5.43,2.3,9.3-4.67.33-8.25,2.49-13.51,2.83-6.48.41-12.22,2.2-18.71,2.19-7.14,0-16.56,1.8-25.08,1.46-10.67-.41-15.7,1.1-24.49-1.41.15-4.13,1.14-4.87,1.26-9.51C135.65,226.39,175.51,223.52,194.54,218.4Z"/>
    <path class="bennettUndershirt" d="M162.39,94.27c14.83,0,20.26-12,31.5-2.18,5.1,4.44,10.93,8.85,10.94,13.69,3.36,0,3.4,4,9.71,9.07-4,3.4-18.29,15.22-22,20.24-.16,13.11.69,30-.81,38.86-.53,3.15,2.57,3,0,5,2.29,9.32-.16,20.57,3.89,34.17-14.57,6-26.91,5.45-40.48,6.48s-35.3,2.42-41-.65c-.33-9.07.16-19.43-2.11-30.77-3.4-1.12,1.46-4.21-.16-9.55-2.75-1.46-.53-2.6-.65-4.86-.48-9.55.32-20.88.65-34.16A163.94,163.94,0,0,0,92,131.36c4.54-12.63,6.8-32.22,17.17-36.27,4.44-1.73,11.57.34,21.7-.66"/>
    <g class="skinEastAsian">
      <path d="M165.08,79.47c-3.92,5.12-3.59,13-2.69,14.8,6,4.4-5.95,14.69-13.25,15.56-5.42.64-21-3-18.3-15.4,1.26-2.77.5-11.15-1.57-16.81"/>
      <path d="M264.42,109.32c-13.26,20.82-16.94,45.14-37.21,50.94-8.07,1.61-22.41-14.3-31.32-28.91,4.62-4.64,11.93-10.86,16.24-14.48a195.22,195.22,0,0,1,12.69,17.51c10.87-10.32,20.44-15.29,29.47-31.87,2.54-13.59,14.12-12.34,17.76-16.55,1.91-2.3,7.08-4.89,8.8-3,3.25,3.58-7.08,6.84-8.71,11,4.69.09,9.19,1.42,11.2-2.3.67-5.26,3.83-7.39,6.31-5.84.59.55-.36,2.06-.28,3.16,1.73-3.47,5.05-5,7.08-2.78.49.72-1.17,1.93-1.73,3.93C297,87.31,300,85.69,302,88c.48.85-1.13,1.81-1.73,3.25,2.31-.18,3.57,1.23,2.66,2.59-5.39,2.57-4.18,4.43-9.16,7-3.23,1.63-3.78.7-10.08,4.13C278.25,107.85,268.79,102.47,264.42,109.32Z"/>
      <path d="M209.14,271.66c-4.52,2.58-25.91,8.86-37.45,10.63,4.9,12.27,9.44,28,16.19,41.1-15.16,15.86-10.46,34-20,41.11-16.63,6.09-8.71,14.67-9.53,25.06-7.11-18.05-6.87-41.66-20.53-56.22-2.89-3.09,6.12-23.29,11.21-49.42-11.71,1.36-34.58-1.25-40-2.95-.77,10.94-2.8,44.93,1.87,59.22,9,27.53,35.74,53.29,36.13,68.43-1.38,8-.92,17.31-1.74,26.22-.65,7-6,12.76-2.46,16.8.4,2.84.4,5.35,3.08,4.91,0,1.64,1.38,2.19,2.71,1.82-.27,1.78,1.86,3,3.6,2.09,1.79,2.1,6.08,2.21,8.65-.49,9.08-9.54,4.76-25.85,11.5-38.7,1.34.25,2.39-.58,3.21-2.22,1.48,0,2.31-1.19,2.72-3.21,2.42-1.45,3-4.39,1.87-8.2-1.58-5.5.12-12.8.24-21.48.05-3.41,1.26-6.49,1.37-10.42.11-4.26,2.44-6.73,4.77-8.78,17.16-15.07,30.59-31.66,31-46.56C216.52,304.83,212.67,289.56,209.14,271.66Z"/>
      <path d="M194.05,218.52a22.49,22.49,0,0,0-.54-4.57c-13.67,5.12-25.47,4.68-38.39,5.66-11.75.88-29.6,2-37.86.36a16,16,0,0,0-.13,3.42C136.59,226.29,175.11,223.49,194.05,218.52Z"/>
      <path d="M111.89,139.62a163.29,163.29,0,0,0-19.17-8,177.82,177.82,0,0,0-8,20.56c-9.89-5.43-19.45-2-37.92-17.38-1-8.27-8-9.13-11.26-13.12-1.4-3.78-5.16-8.55-7.77-6.91-2.35,1.66-1.63,6.21,1.57,9.77a10.73,10.73,0,0,1,1.45,2.53c-3.05.85-3.89,2.14-5.45,2-5,.05-9.5-.86-13.25-3.2C9.87,123,5.82,121.61,5,124.1c-2.32-.95-4.4-.55-4.76,1.53-.12,1.22,1.39,1.59,2.19,2.87-2.37.61-.06,3.08.44,6.12.44,2.61,3.46,4.1,6,5.24,1.17,1.77-.24,4.63,3.86,6.15,6,2.75,6.7-1.14,11.55.37,8.37,2.76,16.14-.91,16.89.26,16.52,12,30.57,30.16,48,32.05,8.1.88,14.75-18.09,22.54-32.9C111.77,143.78,111.84,141.72,111.89,139.62Z"/>
    </g>
  </g>
  <g class="clothesDisplayLine">
    <path d="M155.9,233.26c-1.45,3.62.39,7.88-.19,13.05-.46,4.14,2.19,7.71,1.38,13.35-.64,4.53,1.61,6.67,2.16,10.74"/>
  </g>
  <g class="clothesOverlapLine">
    <path d="M349.85,103.84c-1.73,2.45-2.72,5.36-4.26,8.38-4.56,8.19-6.65,14.61-9.63,21.68-2.48,5.86-6.88,13.4-8.82,20.77-2.89,11.06-8.89,22.8-13.59,36.08"/>
    <path d="M288.86,131.47c-2.24,14.79-9.42,14.79-7.53,19.07,2,3.47,5.26,7.37,2,9.21"/>
    <path d="M191.63,126.53c.46,3.7,1,5.81.89,8.56"/>
    <path d="M111.89,139.62a59.17,59.17,0,0,1,1.77-13.49"/>
    <path d="M172.15,269.78a110.58,110.58,0,0,0-26.77,3"/>
  </g>
  <g class="clothesFoldLine">
    <path d="M279.39,328.78a18.3,18.3,0,0,0,4.26,3.05"/>
    <path d="M281.12,323.07a21.51,21.51,0,0,0,5.36,2.59"/>
    <path d="M310.75,402.66c-3.86,2.57-15.52,2.46-18.39.33"/>
    <path d="M307.8,409.13a19.48,19.48,0,0,1-10.79,1"/>
    <path d="M345.17,231.67a50.68,50.68,0,0,0-9.8-3.64"/>
    <path d="M363.78,180a11.07,11.07,0,0,1-7.51,4.65"/>
    <path d="M361.33,187.45c-1.83,0-3.43.35-3.73,2.69"/>
    <path d="M322.94,198.78c3.5,6.67,8,11.78,13.49,15.19"/>
    <path d="M293,99.92a76,76,0,0,0,.42,19.88"/>
    <path d="M289.89,112.65a25.25,25.25,0,0,0,2.65,9.58"/>
    <path d="M282.11,120.53a33.62,33.62,0,0,0,6.19,13.94"/>
    <path d="M245.35,145.22a16.74,16.74,0,0,1,3.71,10.16"/>
    <path d="M244.21,150.16c-2.52-3.74-.47,5.5-2.75,10.16"/>
    <path d="M249.06,144.84c6,6,7.86,13,1.8,21.94"/>
    <path d="M253.62,142.84c14.24,7.13,6.26,23.08,12.91,16.34"/>
    <path d="M251,137.79c6.89-.17,12.3,9.71,19.14,12.08"/>
    <path d="M256.51,131.68a15.77,15.77,0,0,1,6.51,1.1"/>
    <path d="M264.36,125.84c7.4.36,14.42,11.54,17.05,11.14"/>
    <path d="M274.89,113.9a17.83,17.83,0,0,0,3,10.59"/>
    <path d="M386.55,149.65c5.15-3.34.15,8-10.09,12.2"/>
    <path d="M396.93,142.53c-.57,6.07-2.65,11.86-8.94,16.82"/>
    <path d="M401.53,147.35c-.57,3.52-1.59,6.7-3.62,9.12"/>
    <path d="M399.43,167.84c2.25-2.7,4.09-5.08,4.6-9,5.63,3.15,2.9,20.43-5.21,23.23"/>
    <path d="M415,182.35c-7,11.1-16.83,11.8-16.21,13.52s6.6.84,10.46-2.35"/>
    <path d="M415.64,183.52c1.84,2.45,1.17,5.34-1.81,8.64"/>
    <path d="M419.89,191.25c-1.73,5.39-4.87,9.87-11.06,12.35"/>
    <path d="M427.53,196.35c.92,5,.83,11,2.13,11.27,2.63.46,4.92-4.07,2.58-7.35"/>
    <path d="M436,209.06c-.76,3.83-2.26,7.19-5.15,9.62"/>
    <path d="M439.87,203.35a11.82,11.82,0,0,1,1.77,4.19"/>
    <path d="M449.85,210.28c2.47,3.44,5.28,15.22,9.22,10.22"/>
    <path d="M112.05,188.19a36.47,36.47,0,0,0,11.07.33"/>
    <path d="M114.19,185.3c.69.88,3.6.9,6.78.82"/>
    <path d="M111.89,178.64a13.18,13.18,0,0,0,6.35,1.2"/>
    <path d="M191.71,179a11.94,11.94,0,0,1-5.69,1.71"/>
    <path d="M189,177a34.58,34.58,0,0,1-12,2.15"/>
    <path d="M97.74,118.6a18.63,18.63,0,0,1,1.82,7.1"/>
    <path d="M104.77,115.62c2.23,5.46,5.56,10.49,6.86,9.51s-3.56-7.44-4.3-19.1"/>
    <path d="M111.87,115.62c.34,4,.83,7,2.24,9.34"/>
    <path d="M122.54,114.13c3.11,3.22,7.65,5.74,13,7.85"/>
    <path d="M120.88,118.76a64.38,64.38,0,0,0,15.79,11.57"/>
    <path d="M171.14,109a69.2,69.2,0,0,1-20.83,12.64"/>
    <path d="M175.85,108.59c-6.2,7.77-12.71,16.08-20.25,20.42"/>
    <path d="M184.61,110.5c.41,9.83,6,11.24,1,14.71"/>
    <path d="M188.66,111.9a16.46,16.46,0,0,0,1.07,8.76"/>
    <path d="M194,101.4c.08,14.3-4.23,21.88-3.14,23.15,2.56,3,3.39-7.48,4.46-14.39"/>
    <path d="M193.45,247.22a116.71,116.71,0,0,0-26.82,10"/>
    <path d="M200,252.4a93.88,93.88,0,0,0-21.34,5"/>
    <path d="M150.87,259.48A176.75,176.75,0,0,0,121,255.89"/>
    <path d="M173.81,278.23a34.35,34.35,0,0,0-9.67-4"/>
    <path d="M154.36,274.44A21.45,21.45,0,0,0,145,280"/>
    <path d="M189.63,229.3c1.45,1.47,2.14,4,2.45,7.17"/>
    <path d="M193.72,228.18a9.09,9.09,0,0,1,2.5,4.48"/>
    <path d="M158.78,233c-.29,2.19.47,5.73,1,9.16"/>
    <path d="M152.34,233.77a8.11,8.11,0,0,0-.28,4.54"/>
    <path d="M121,234c-1.77,2.4-2.19,6.63-3.51,9.64"/>
    <path d="M117.21,233.33a8.55,8.55,0,0,0-1.83,5.47"/>
  </g>
  <g class="clothesCreaseLine">
    <path d="M328.88,254.9a299.71,299.71,0,0,0-45.07-6.66"/>
    <path d="M337.49,261.63A189.12,189.12,0,0,0,307,255.81"/>
    <path d="M328.41,288.56a166,166,0,0,0-25.67-2.93"/>
    <path d="M334.83,294.35a112.62,112.62,0,0,0-21.92-3.13"/>
  </g>
  <g class="chineseTie">
    <path d="M334.77,113.18l-1,2.76a150.08,150.08,0,0,1,16.59,6.68l1.13-2.67A115.25,115.25,0,0,1,334.77,113.18Z"/>
    <circle cx="342.78" cy="118.02" r="1.79"/>
    <path d="M324.44,136.7l-1,2.78a153.16,153.16,0,0,1,16.75,6.26l1.06-2.69A114.94,114.94,0,0,1,324.44,136.7Z"/>
    <circle cx="332.57" cy="141.33" r="1.79"/>
    <path d="M315.8,160l-1.14,2.73A151.86,151.86,0,0,1,331,170l1.21-2.63A113.84,113.84,0,0,1,315.8,160Z"/>
    <circle cx="323.65" cy="165.11" r="1.79"/>
    <path d="M307,182.06l-1.14,2.73a152,152,0,0,1,16.37,7.2l1.21-2.63A113.79,113.79,0,0,1,307,182.06Z"/>
    <circle cx="314.89" cy="187.15" r="1.79"/>
  </g>
  <g class="eye">
    <g class="sclera">
      <circle cx="146.56" cy="56.25" r="24.11"/>
      <circle cx="349.56" cy="61.01" r="16.91"/>
    </g>
    <g class="irisDarkBrown">
      <circle cx="160.08" cy="55.83" r="3.47"/>
      <circle cx="133.68" cy="55.83" r="3.47"/>
      <ellipse cx="356.35" cy="62.85" rx="3.47" ry="2.99" transform="translate(200.09 389.22) rotate(-74.42)"/>
      <ellipse cx="336.78" cy="57.39" rx="3.47" ry="2.5" transform="translate(191.04 366.38) rotate(-74.42)"/>
    </g>
    <g class="pupil">
      <circle cx="160.08" cy="55.83" r="1.35"/>
      <circle cx="133.68" cy="55.83" r="1.35"/>
      <ellipse cx="355.98" cy="62.75" rx="1.35" ry="1.16" transform="translate(199.92 388.79) rotate(-74.42)"/>
      <ellipse cx="336.32" cy="57.27" rx="1.35" ry="0.97" transform="translate(190.82 365.85) rotate(-74.42)"/>
    </g>
  </g>
  <g class="skinEastAsian">
    <path d="M382,84.15c2.85,3.61,6.09,2.06,8.58-.63,2.47-2.4,6.67-4.69,7.64-10.66h0c1.93-8.51-6.9-11.52-10.17-4.29C385.55,73.4,383.91,79.56,382,84.15Z"/>
    <path d="M349.92,103.57l.09,0c3.45-5.2,11.9,3.49,21.46-.52.89-4.42,2.84-9.19,4.92-14.21l-29.32,9.65C348.92,100.21,350.27,101.74,349.92,103.57Z"/>
    <path d="M179.39,50.14c2.77.21,4.81,7.82,1.22,16.1-1.18,2.72-1.33,6.08-5.24,6.72-3.27,13.17-10.53,15.12-19.64,21.43-4.62,3.2-13.48,3.47-18.47.14-6.81-4.54-16-6.31-18.68-20.77-5.36-1.16-4.46-3.93-6.15-8.44-2.94-7.82-.74-14,1.34-14.59C113-.48,178.65-1.07,179.39,50.14Zm-24.67,7.64c1.83,0,3.85.54,5.62.48,2.67-.11,4.64-.82,6-2.39a7.57,7.57,0,0,0-5.7-2.8c-3.33-.08-5.23,1.4-7,4C153.06,57.87,154.26,57.78,154.72,57.78Zm-14.12-1c-1.54-2.47-3.31-3.52-6.24-3.24-3.12.3-5.54,2-7.44,2.89,3.88,2.86,8.56,1.79,12.43,1.08C139.8,57.42,141.18,57.71,140.6,56.78Z"/>
  </g>
  <g class="skinGhostLight">
    <path d="M496.54,260.68c-4.87-4.47-10.13-7.82-12.21-12.13-1-1.67-2.43-8.76-.8-10.45a10.15,10.15,0,0,1,6.7-1.52c7.11,2,11.44-2.31,9.21-5.29-4-2.93-9.76-1.25-13.18-3.18-5.35-3.36-12.6-2.53-17.95-4.25-1.07,3.14-5.85,10.24-9.65,14.69,1.69,3.28,2.72,10.15,8.75,16.87,5.27,4.54,14.27,16,20.91,13.8,2.58,1.46,5.49,5.31,7.9,2.56,1.19.64,1.91,1.69,2.64,1.83,2.18.41,3.59-3.05,1.67-5.11C503.24,266.27,500.21,262.2,496.54,260.68Z"/>
    <path d="M197.18,133.43c-1.7,1.51-1.56,5.74,1.28,7.39-1.72,2.18.66,7.14,5,7.34-1.39,1.52,1.06,5.49,4,5-.86,3.3,3.57,5.55,8,3.17,2-1.26.33-3.9-2.31-4.17,1.78-2.44-1.26-5.15-4.5-4.62,1.26-4.3-2.83-4-5.74-6C205.54,136.59,200.05,137.25,197.18,133.43Z"/>
    <path d="M217.39,123.66c2.75-3.72,6.48-1,6.62,2.48.05,1.19-1.2,1.75-2.19,3.69C219.08,132.33,215.14,128,217.39,123.66Z"/>
    <path d="M388.09,68.57c-2.54,4.83-4.18,11-6,15.58-6.74,18.63-25.94,15.89-34.6,16.49-6.2.43-14.88-.86-16.5-6.49-1.78-6.15-5.62-10-4.76-19.82,1.49-17,6.89-15.25,6.76-24.25-.06-4.41,3.66-8,5.27-13.16,11.48-.55,26.75,6.16,39.84,15.83,3.38,9,6.63,8.27,3.41,15.57C383,68.84,386.23,68.73,388.09,68.57ZM353,63.22c3.54,3.4,8.34,2.82,11.41,1.75a14.48,14.48,0,0,0-6.21-4,5.82,5.82,0,0,0-5.51,1.38C352.06,63,352.74,62.94,353,63.22ZM342,59a5.5,5.5,0,0,0-3.56-3.48,5.84,5.84,0,0,0-2.9-.18,4.43,4.43,0,0,0-.86,2.83c2.67,2.75,5.54,1.29,6.49,1.32C341.77,59.53,342.13,59.49,342,59Z"/>
  </g>
  <path class="skinDisplayLine" d="M154.24,456a8.12,8.12,0,0,1,4.83.79,4.1,4.1,0,0,1-6.21,2.87"/>
  <g class="skinOverlapLine">
    <path d="M476.84,254.1c1.1,3,4.14,5.61,7.18,7.87,4.35,1.87,6.35,5.32,4.3,7.08"/>
    <path d="M479.67,252.79c2.41,4.42,7.23,8.92,11.6,11.6,3.46,2,6.28,4.08,5,7.39"/>
    <path d="M483,252.1c2.49,3.66,12.43,11.88,12.43,11.88a13.08,13.08,0,0,1,5.12,4.52"/>
    <path d="M207.45,153.19c1.72,0,4,.24,5.69-1"/>
    <path d="M203.42,148.16c1.72.07,3.57.73,5.22-.59"/>
    <path d="M202.9,141.6c-1.33.68-3.05-.85-4.44-.78"/>
    <path d="M260.05,97c3.51-3.4,7.91-3.4,12.09-3"/>
    <path d="M289.37,89c-.45,4.63-.58,5-3.11,7.74-2.22,2.44-3.79,2.33-8.33,3.45"/>
    <path d="M281.18,102c4.43-1.51,7-1.75,9.87-5,1.85-2.13,2.75-2.13,3.67-6.73"/>
    <path d="M300.27,91.22c-1.82,1.31-2.81,4.78-5.86,7.4s-5,2.49-8.52,4.11"/>
    <path d="M5,124.1a7.52,7.52,0,0,1,4.23,5.25,22.37,22.37,0,0,1,5.69,3.2,28.36,28.36,0,0,1,7.59-.26"/>
    <path d="M2.45,128.5c2.94-.85,5,1.89,5.36,5.23a13,13,0,0,1,6,2.88,31.19,31.19,0,0,1,7.92-1.05"/>
    <path d="M8.85,139.86c-.65-1-1.23-2.06-.78-2.66,2.35-2.09,5.56.39,5.56,3.47a5,5,0,0,1,3.21.92,10.45,10.45,0,0,1,3.4-1.77"/>
    <path d="M158.37,389.56c1.91,7,5.43,9.79,6.94,13.93,2.23,6.15,8.28,10.28,7.06,17.78"/>
    <path d="M144,446.94c-.25,2-1.17,2.52-1.17,4.7"/>
    <path d="M145.91,456.55c-1.42-4.88.3-5.8.61-8.13"/>
    <path d="M148.62,458.37c-.57-5.23,1.09-4.73,1.64-8.85"/>
    <path d="M152.22,460.46c-1.47-2.46,2.34-5.6,3.39-10.08"/>
    <path d="M175.58,419.05c.72-3-1.3-3.55-1.06-6.68"/>
    <path d="M178.3,415.84c.58-2.92-.89-3.66-1.2-5.69"/>
    <path d="M176.2,55.22c-.53,4,.54,9.32-.83,17.74"/>
    <path d="M117.9,56.19c.52,4.41-.41,10.19.68,17.57"/>
  </g>
  <g class="skinFoldLine">
    <path d="M469.45,235.4c2.17,3.29,3.59,7.62,4,13.37"/>
    <path d="M489.13,233.15a3,3,0,0,0,1.1,3.43"/>
    <path d="M84.72,152.18c2.82,2.48,4.89,5,5.16,7.54"/>
    <path d="M34.37,122.24a4.18,4.18,0,0,1-3.56,1.92"/>
    <path d="M12.09,125.83a1.88,1.88,0,0,1-.62,2"/>
    <path d="M13.63,140.67a2.12,2.12,0,0,1-.88,2"/>
    <path d="M392.19,79.35c8.76-8.4,1.74-16.89-3.38-8.09"/>
    <path d="M388,73.63c1.26,2.71-3.21,4.55-1.41,5.91,1.12.84,1.12-1.31,3.91-2.3,3-1.06,2.85-6.84.15-5.29"/>
    <path d="M176.7,55.93c3.28-6,5.37.69,2.92,6.11"/>
    <path d="M176,66.62c2.64-.42,1.33-3.1,1.83-4,1.63-2.89.8-5.11.23-5.15"/>
    <path d="M117.15,56.85c-3.2-5.56-5.8.54-3.22,6.44"/>
    <path d="M118,67.3c-2.53-.45-1.88-3-2.37-3.88-1.63-2.89-.72-4.58-.15-4.61"/>
  </g>
  <g class="skinCreaseLine">
    <path d="M28.11,130.76c3.66,7.86,10.58,3.73,14.92,6.24"/>
    <path d="M25.2,134.49c7.25-.27,1.29,3.19,1.35,7.46"/>
    <path d="M46.8,134.8c-.31,4-2.95,3.62-3.9,7.69"/>
    <path d="M479.12,242a8,8,0,0,1-7-.77"/>
  </g>
  <g class="lipMaleMedium__noStroke">
    <path d="M336.8,80a7.26,7.26,0,0,0,4.27,1.45c1.64,1.67,6.19,1.77,8.11,4.43-3.77.15-4.25,4.44-11.32,2-6.25-2.19-4.41-5.21-4.81-6.85C334.37,79.6,336,81.15,336.8,80Z"/>
    <path d="M144.34,78.64a7.21,7.21,0,0,0,4.13.12c2.68,1.42,7.37-2.17,9.16-1.47-3.83,1.5-4.48,4.89-10.28,5.06-5.92.37-6.67-2.87-11.45-3.71C138.89,78.34,142.88,80.13,144.34,78.64Z"/>
  </g>
  <g class="lipBorderLine">
    <path d="M349.5,86.15c-3.47-3.5-7.37-1.87-10.11-2.78-2.91-1-4.26-3.3-6.56-2.45"/>
    <path d="M158,77.43c-1.34-.83-5.43,2.53-11,2.7-4.22.12-10.26-1.89-11.43-1.37"/>
  </g>
  <g class="lipEdgeLine">
    <path d="M341.07,81.43A7.26,7.26,0,0,1,336.8,80"/>
    <path d="M344.93,87.73c-3.34,1.74-11.38,0-11.62-3.81"/>
    <path d="M148.47,78.76a7.21,7.21,0,0,1-4.13-.12"/>
    <path d="M152.86,80.78a13.32,13.32,0,0,1-10.59.9"/>
  </g>
  <g class="smileLine">
    <path d="M345.57,51.08a12.23,12.23,0,0,1-1.78,4.69"/>
    <path d="M349.69,52.16a8.71,8.71,0,0,0-.35,6.06"/>
  </g>
  <g class="cheekLine">
    <path d="M352.54,88.37a12.62,12.62,0,0,0-1.3-8.51c-2-3.64-2-5.56-2.9-6.38"/>
    <path d="M330.91,81.26a13.87,13.87,0,0,1,4.85-7.38"/>
    <path d="M153.79,68.66c2.33,1.1,6.18,3.77,7.53,7.59"/>
    <path d="M140.51,68.87c-1.09.11-2.52,2-4.64,3.6-2.49,1.92-3.59,3.15-4.05,6.69"/>
  </g>
  <g class="noseLine">
    <path d="M348.34,73.48c1,1.24.44,4.07-1.56,4.45"/>
    <path d="M340.08,66.35c-2.18,3.49-7.12,6.62-2.54,9.48,3,1.9,5.83-.92,7.68.72"/>
    <path d="M153.79,68.66c1.83,2,.06,3.6-.29,4"/>
    <path d="M140.51,68.87a2.86,2.86,0,0,0,.44,4.24"/>
    <path d="M142.09,72.88c1.14.06,1.83,1.71,4.39,1.77,3.53.08,3.68-2,5.86-2"/>
  </g>
  <g class="eyeFoldLine">
    <path d="M333.42,59.92c1.08,2.14,4.23,2.71,6.37,1.83"/>
    <path d="M353.19,65.69a7.82,7.82,0,0,0,8.72,2.44"/>
    <path d="M164,60.1a8.92,8.92,0,0,1-7.53-.17"/>
    <path d="M136.9,59.85c-2.57,1.37-5.25,1.49-7.19-.17"/>
  </g>
  <g class="eyeCornerLine">
    <path d="M365.86,66.3A5.94,5.94,0,0,1,364.43,65"/>
    <path d="M333.74,56.1a6.58,6.58,0,0,1,1.75-.74"/>
    <path d="M334,57.37a4.23,4.23,0,0,0,.67.82"/>
    <path d="M126.92,56.43a3.33,3.33,0,0,1-1.09.23"/>
    <path d="M168,56.59a3.52,3.52,0,0,1-1.63-.72"/>
  </g>
  <path class="eyeCreaseLine" d="M129.48,54.38c3.77-1.6,6.34-3.31,9.53-.92"/>
  <g class="eyebrowBlack">
    <path d="M151.89,47.06c4.11,2.9,9.32-1.71,17.58,3.86C162.07,42.21,155.19,47.58,151.89,47.06Z"/>
    <path d="M141.51,47.83c-3.69,4.2-11.75-.51-16.86,3.6C129.46,44.69,134.12,49.1,141.51,47.83Z"/>
  </g>
  <g class="eyebrowDarkGray">
    <path d="M351.62,56.78c2.74,3.18,4.76.7,10.64.92,3.88.14,7.55,3.69,6.56,1.63C357.49,51.27,355.54,57.56,351.62,56.78Z"/>
    <path d="M333.05,48.63a8.05,8.05,0,0,0-.11,1.3c5.43-.47,6.6,5.87,11,4.06C340.71,52.81,342.24,48.14,333.05,48.63Z"/>
  </g>
  <g class="fatherGlassesDisplayLine">
    <path d="M343.15,57.9c1.27-5.64-10.65-8.4-14.19-7.07-2.84,1.07-3.78,10-2.87,12.51,1.31,3.59,8.62,5.25,10.72,4.85C339.15,67.75,341.83,63.75,343.15,57.9Z"/>
    <path d="M347.89,59.23c1.28-5.68,13.61-1.86,16.46,1.33,2.33,2.61-.87,11.45-2.94,13.22-2.9,2.5-10.52-.34-12.26-1.91C347.23,70.14,346.55,65.12,347.89,59.23Z"/>
    <path d="M347.89,59.23c0-1-4.25-2.19-4.74-1.33"/>
  </g>
  <path class="hairBlack" d="M113.77,50.73c-4.82-20.18,0-35,13.07-41.23-2.15-1.15-4.59-.45-7.18,1.2,2.07-3.49,5.17-4.56,9.36-3,1.45-4.95,4.54-7.45,9.35-7.43-3.47,1.21-6,3.05-6,6.7,12.85-4.05,26.69-2.8,36.51,3.93,9.57,6.56,15.42,24.19,10.54,39.26-2.73-.06-1.61,5.08-3.19,5.08-.66-2.24,0-6.26-1.79-9C167.73,42,161.6,46,155.68,41.72c.79.92,2.82,2.2,4.06,4-6.58-4-12.89,1.28-20.48-4.48a11,11,0,0,1,3.4,4.53c-5.13-4.16-12.54-1.69-13.38-16,.56,14.86-4.69,12.93-7.06,17.48-.24-1.81,1-4.19,1.29-6a13.27,13.27,0,0,1-4.74,4.84c-1.12,2.57-.89,6.74-.87,10.09C115.63,56.15,116.73,50.19,113.77,50.73Z"/>
  <g class="hairOverlapLine">
    <path d="M174.41,46.2a10.34,10.34,0,0,0,2.25,1.11,8.11,8.11,0,0,0-1.56-3.46"/>
    <path d="M118.77,46.1a16.22,16.22,0,0,1-3.7,1.56"/>
  </g>
  <g class="ghostTail">
    <path d="M178.15,339.3c9.52,8.25,25.75,8.42,34.4-2.41,2.57-4.61,4.95-11,5-16.49,15.69,8.17,17.54,39.33-11.43,45.33-.11,8.54-3.94,16.73-12.1,24.2a23.89,23.89,0,0,0-7.51-23c-12.59-1.37-25.11-10.15-28.69-20.55l-9.8,5.16c-2.32-7.21-6.05-13.88-10.22-18.23,17.08-8.83,36.15-15.49,46.74-16.92,1.07,2.48,2,4.44,3.3,7A44,44,0,0,0,178.15,339.3Z"/>
    <path d="M123.6,388c-25-5.67-25.38-31.06-10.17-41.11A132.19,132.19,0,0,0,123.05,365a2.67,2.67,0,0,1,2.7,1.8c7.82,2.71,22.34.46,25.18-5.16-.93-3.82-2-7.47-3.16-10.9,20.11-.78,24.59,11.39,20.77,21.51-4,10.56-16.24,16.19-29.83,16.8.92,1.47,1.68,2.72,2.32,3.83-3.63,4-5.57,9.62-5.26,16.77C128.8,403.88,124.63,397,123.6,388Z"/>
  </g>
  <g class="ghostOverlapLine">
    <path d="M123.6,388a73.55,73.55,0,0,0,15.11,1"/>
    <path d="M206.16,365.73A54.94,54.94,0,0,1,186.55,367"/>
    <path d="M157.86,346.41c8.66-4.58,16.28-8,20.29-7.11"/>
  </g>
  <g class="ghostFoldLine">
    <path d="M123.05,365a7.1,7.1,0,0,0-4.33,1.51"/>
    <path d="M125.75,366.77a7,7,0,0,0-6.48,4.47"/>
    <path d="M113.23,363.18c2.11-1.73,7.15-1.29,8.73,0"/>
  </g>
</svg>
