<svg viewBox="0 0 184.24 467.57">
  <path class="hairBlackDark" d="M41.26,104.86c9.08,2.29,14.94,.4,9.45-1.82,3.15,.91,7.17,.96,10.45,.43-.89-41.24-47.58-31.8-19.91,1.4Z"/>
  <g class="hairBlack">
    <path d="M38.46,89.35c3.18,.82,6.53-.35,8.34-4.19-4.02-4.57-6.69-2.65-8.34,4.19Z"/>
    <path d="M84.82,118.72c-1.01,6.75,8.82,1.27,12.39-9.15,3.73,8.06,9.01-14.75,5.75-30.76,6.7,4.81-.94-15.66-2.6-19.88-1.09-2.76-1.04-7.81-3.88-12.42-4.03-6.54-5.98-5.92-9.78-10.27-8.79-10.07-34.3-14.42-46.54-5.5-10.03-3.38-14.61,5.38-20.61,11.18-13.61,13.18-10.96,20.58-14.64,26.59-9,14.75-2.81,38.97,.41,30.12,1.62,7.41,10.22,17.1,10.47,10.22,11.13,15.77,19.88,11.27,17.43,7.12,8.85,7.86,22.51,7.21,17.42,1.52-13.83-13.95-14.32-28.14-7.41-34.16,10.42-.66,14.59,42.4,41.57,35.38Z"/>
    <path d="M101.01,31.65c-1.28,.47-3.39,1.17-4.38,2.15-1.51-8.08,2.69-12.68,6.82-16.68-1.48,.16-3.73,.4-5.43-.47,8.74-4.32,9.93-11.04,28.74-12.48,10.14-.78,19.43,2.43,22.78,5.34,.03-3.35-1.61-6.12-4-8.76,4.65,2.15,7.37,5.5,7.43,10.2,2.15-2.56,8.77-1.39,9.92,2.36-2.31-2.27-5.19-1.95-6.95,.11,17.18,10.47,12.82,35.04,5.86,45.68-34.62,0-60.8-27.44-60.8-27.44Z"/>
  </g>
  <g class="hairOverlapLine">
    <path d="M150.15,44.06c1.41,.82,3.46,2.14,4.6,2.5"/>
    <path d="M89.15,59.67c1.52,1.15,3.56-1.66,.89-8.16"/>
    <path d="M63.39,60.91c-4.61,.08-5.82-2.06-1.36-3.34"/>
  </g>
  <g class="eye">
    <circle class="sclera" cx="119.92" cy="54.5" r="21.3"/>
    <g class="irisDarkBrown">
      <ellipse cx="133.36" cy="46.32" rx="3.34" ry="3.3" transform="translate(74.28 174.54) rotate(-84.42)"/>
      <ellipse cx="109.33" cy="43.98" rx="3.34" ry="3.3" transform="translate(54.93 148.51) rotate(-84.42)"/>
    </g>
    <g class="pupil">
      <ellipse cx="133.59" cy="46.27" rx="1.3" ry="1.28" transform="translate(74.54 174.73) rotate(-84.42)"/>
      <ellipse cx="109.57" cy="43.92" rx="1.3" ry="1.28" transform="translate(55.2 148.7) rotate(-84.42)"/>
    </g>
  </g>
  <g class="skinEastAsian">
    <path d="M157.4,216.38c7.7-11.55,14.22-23.36,15.51-35.92,1.33-12.95,2.16-28.64,2.68-40.3,.59-13.25,2.3-23.64-6.24-29.26-7.79-5.13-23.32-7.18-29.57-15.2-.88-6.7-.26-12.79,2.97-17.79l-35.44-4.54c3.73,5.62,2.06,16.1,.27,21.02-1.23,1.08-2.53,1.76-3.91,2.18-.97,10.47-4.04,18.23-6.46,13-3.58,10.42-13.41,15.89-12.39,9.15-8.71,2.27-15.06-.69-20.01-5.72l13.87,96.82,38.62,66.92c.19-2.06,.27-4.37,.27-6.88,1.18-.22,2.55-.94,3.66-1.63,4.64,24.28,11.86,41.61,17.09,60.04,2.99,10.53,5.23,18.68,5.96,25.14,1.59,14.2,9.02,34.79,14.11,51.49l17.16-1.45c1.28-23.54,.25-46.35-7.1-68.9-3.98-12.22-.84-70.73-11.05-118.18Z"/>
    <path d="M161.82,59.05c-.25-.38-3.47-3.51-6.28-1.28-1.05-.3-3.14-1.42-4.86-3,1.26-4.82,2.54-4.51-.52-10.71-4.67-3.23-6.18-8.04-7.28-12.54-.55,1.81-.95,3.83-.62,5.72-1.76-1.58-4.38-6.78-3.13-14.74-.11-.05-.22-.1-.33-.16-5.57,13.76-18.49,6.2-24.3,9.49,.26-1.14,2.1-3.03,3.38-4.02-6.52,3.7-11.66,2.04-16.86,3.82-1.07,2.45-2.8,5.78-2.18,10.92,.38,3.1-8.88,25.39,2.93,38.81,4.31,4.9,5.06,6.9,10.76,8.4,5.91,1.56,7.1,.62,17.17-1.13,9.95-1.73,13.72-4.84,19.42-12.66,2.88,2.97,6.44,1.11,8.07-1.18,2.11-2.96,9.48-8.79,4.62-15.7v-.04Zm-49.11-12.46c-3.77,1.04-7.78,.95-10.18-1.68,1.49-1.08,2.7-2.49,5.7-2.22,3.11,.28,3.89,2,5.36,3.44,.79,.77-.45,.34-.89,.46Zm19.24,3.04c-1.96-.05-3.92-.99-5.46-1.58-.43-.16-1.42-.26-.67-.91,1.84-1.61,3.09-2.86,6.37-2.34,3.59,.58,4.96,2.56,6.53,3.9-2.33,.42-4.04,1-6.76,.93Z"/>
  </g>
  <g class="skinIndian">
    <path d="M97.73,171.5c6.84-7.26,2.28-27.16-1.9-27.84,1.07,8.72,1.42,19.27,1.9,27.84Z"/>
    <path d="M148.94,437.99c-1.07-1.3-1.06-3.26-1.95-4.93-4.63-8.68-6.33-23-6.42-26.14-1.12-36.76,1.48-69.15-3.38-85.06-3.65-11.96-22.6-53.03-38.55-79.9-2.02-4.01-1.12-7.74-2.37-14.02,2.87,4.77,7.57,12.1,7.27,14.85-.47,4.38-.09,6.43,.39,8.4,4.57-4.61,1.79-6.8,15.34-14.47-2.44-1.26-4.48-3.25-6-6.19-8.08-14.06-9.9-36.35-13.58-43.97-3.01-6.23-1.43-40.56-6.16-54.24-4.73-13.66-17.02-9.56-21.65-16.25-3.43-7.1,4.53-29.46,8.32-30.91l-33.4,.02c-1.28,2.72-3.34,4.1-5.56,4.38,2.6,9.42-1.41,25.31-7.98,35.75-17.71,47.44,7.31,65.93-9.85,103.17-11.57,25.13,.88,46.19,1.71,50.94,2.11,12.1,5.11,22.42,7.25,31.24,4.89,20.19,8.34,26.61,6.15,33.74-10.03,32.61,4.5,52.57-7.02,74.26-2.36,4.45-12.97,13.38-1.95,18.85,14.86,7.37,15.62,15.52,22.37,18.99-.99,1.34,.37,3.87,2.29,4.17,.39,.85,2.05,1.57,3.15,1.26,.91,1.1,2.93,1.31,4.26,.47,1.77,.91,4.07,.19,4.57-1.5,4.62,.54,6.25-3.97,3.39-5.99-5.55-3.92-6.36-15.3-13.33-24.45-2.95-3.87-1.62-10.09-1.89-16.32-.5-11.5,12.52-45.9,15.01-72.12,1.47-15.5,1.74-32.41,1.8-50.17,13.19,20.06,36.45,34.98,36.22,39.61-1.08,22.03,13.28,37.72,11.9,61.54-.34,5.9-3.97,9.94-7.26,14.81-2.98,4.43-.14,9.19,5.25,13.41,9.94,7.79,9.81,18.69,13.77,21.8,3.97,3.12,1.05,10.55,9.4,11.3,.49-.58,1.07-1.17,1.77-1.75,1.88-1.58,3.48-3.32,4.88-5.19-.02-.32-.12-.63-.28-.94,1.04-.6,1.84-2.61,1.04-3.88,1.81-.4,2.13-3.27,1.08-4.55Z"/>
    <path d="M109.97,253.08c-.76,1.46-1.59,2.86-2.51,4.56l-.94-1.73c1.14-.13,2.23-2.24,3.45-2.83"/>
    <path d="M58.19,97.35c1.96,3.85,5.24,6.9,11.55,9.86,3.77,1.77,6.93,4.14,9.39,3.48,6.23-1.08,2.65-7.5,7.22-8.55,1.53-1.95,1.01-3.69-1.58-5.17,2.01,.22,3.83-.86,4.12-2.25,.12-.55-.72-1.27-.88-3.98,1.58-.58,3.16,.82,4.87-.73,2.56-2.33-1.17-8.82-4.27-14.73-1.88-3.59,2.63-5.64,.52-15.6-2.34-2.08-4.59-7.92-4.54-11.3-2.75,13.33-13.07,15.13-8.37,8.95-6.02,2.84-7.13,3.3-12.84,3.58-2.69,2.23-4.13,6.37-4.15,9.94s-4.21,3.19-8.52-1.13c-4.93-13.19-21.18-.27-7.47,13.62,1.14,1.16,3.26,6.65,8.49,2.17"/>
  </g>
  <path class="lipFemaleBrown" d="M81.39,93.75c3.92,.75,5.59-.84,7.52,.97-.3,1.39-2.11,2.48-4.12,2.25,2.59,1.48,3.1,3.22,1.58,5.17-3.34-2.73-3.38-5.52-4.97-8.39Z"/>
  <g class="sockWhite">
    <path d="M176.12,400.49c-1.5,2-15.53,4.34-19.3,1.7,.32,7.79,4.53,15.87,1.78,21.48-4.86,9.92-7.38,21.36-16.37,28.88-4.95,4.14-4.38,8.52-1.46,9.89,13.35,6.3,25.21,1.33,28.71-6.24,4.38-9.49,14.84-13.71,14.52-20.19s-6.01-13.48-6.57-19.63c-.67-7.34-.19-12.84-1.3-15.89Z"/>
    <path d="M97.01,405.12c-3.49,2.11-14.68,2.51-17.76-.97-.65,2.92,1.48,13.31-.16,19.22-3.08,11.11-3,21.49-9,30.65-2.1,3.21-2.2,6.66,1.78,9.33,7.18,4.8,26.45,7.51,26.12-5.43-.25-9.97,2.59-9.57,2.51-19.95-.05-6.6-2.03-10.66-2.92-16.46-1.02-6.62,.32-14.27-.57-16.38Z"/>
  </g>
  <g class="nippleEastAsian">
    <ellipse cx="137.78" cy="139.65" rx="1.34" ry="2.34" transform="translate(-9.09 269.71) rotate(-86.91)"/>
    <ellipse cx="97.62" cy="136.06" rx="1.34" ry="2.34" transform="translate(-43.49 226.21) rotate(-86.91)"/>
  </g>
  <g class="skinEastAsian">
    <path d="M41.13,104.6c5.9,2.14,7.87,8.58,7.13,12.78,.22,1.05,.68,1.55,1.33,2.05,3.92-2.22,7.04-3.2,11.39-3.26,6.38-.09,7.6,3.25,9.87,3.92,1.56,2-.98,5.03-8.21,2.33,.32,.7,.49,1.3,.49,1.78,2.17,.7,4.55,2.24,6.38,3.25,4.2,1.76,8,5.36,5.03,7.65-1.18,1.04-3.79-.62-6.31-1.21,2.78,1.76,5.05,2.71,5.34,4.25,.35,1.8-.62,3.91-3.63,3.78,1.04,1.16-.4,5.55-6.84,3.16-2.68,2.55-7.41,.7-10.37-1.26-5.08-3.37-6.95-10.05-8.18-10.43-9.92-5.28-20.4-8.23-19.62-23.56,.21-4.22,8.13-9.09,16.94-11.3-.12,2.11-.4,4.22-.75,6.07Z"/>
    <path d="M105.78,328.38c-5.03-6.04-20.76-17.7-31.84-32.61-.37,34.85,2.65,41.55,1.76,49.91-1.68,15.79,1.05,37.88,4.1,58.98,3.52,2.79,13,2.49,16.72,.71,3.64-21.02,8.28-42.42,7.53-55.95-.36-6.42,.82-14.82,1.73-21.04Z"/>
  </g>
  <path class="lipMaleMedium__noStroke" d="M114.17,75.69c5.19,1.32,6.35-1.02,9.16-1.09-3.26-2.79-3.02-6.59-5.31-7.6-3.11,1.01-3.96,.21-5.6-.41-2.06,.81-2.34,4.59-5.22,6.35,1.66,.89,1.67,2.84,6.96,2.74Z"/>
  <path class="skinDisplayLine" d="M111.55,194.58c-1.28,4.36,2.92,5.62,1.62-.26"/>
  <g class="skinOverlapLine">
    <path d="M60.93,119.66c.83,1.11,1.48,2.09,1.72,2.77"/>
    <path d="M58.6,122.51c1.6,.46,3.15,.99,4.54,1.69"/>
    <path d="M55.18,128.28c3.88,1.51,10.67,4.72,13.05,5.6"/>
    <path d="M52.4,133.57c4.65,3.21,10.57,6.31,17.54,8.35"/>
    <path d="M50.56,137.48c2.89,3.49,8.56,6.31,12.54,7.59"/>
    <path d="M46.61,114.46c.68,.53,1.3,1.73,1.65,2.92"/>
    <path d="M112.87,244.96c-.83,3.65-1.78,5.96-2.9,8.12"/>
    <path d="M116.49,254.79c-1.91,3.17-4.16,5.66-5.92,8.72"/>
    <path d="M121.71,257.64c-2.62,4.41-4.79,8.86-8.93,10.13"/>
    <path d="M126.55,258.19c-1.11,3.35-2.32,7.62-4.13,9.12"/>
    <path d="M117.58,269.86c-1.21,.27-2.61,.43-3.6,.26"/>
    <path d="M155.96,128.69c-3.18,9.66-1.63,34.3-5.18,53.97-8.23,13.3-8.94,28.39-18.46,41.6-3.17,4.4-7.16,10.1-13.05,12.44"/>
    <path d="M157.4,216.38c-8.57,11.12-17.78,21.31-18.7,23.85-5.26,14.46-8.25,17.6-8.69,20.59-1.83,6.94-3.36,5.4-7.59,6.5-.41,.34-.81,.64-1.19,.92"/>
    <path d="M37,231.7c-9.6,17.18-1.6,48.01,30.62,48.41"/>
    <path d="M33.65,232.59c.58,.91,.97,1.82,1.53,3.09"/>
    <path d="M54.59,277.97c-6.77,2.64-18.28,2.13-24.91-2.62"/>
    <path d="M61.03,279.56c2.66,3.82,7.13,8.27,10.14,12.26"/>
    <path d="M59.14,453.6c1.64,2.2,.31,4.78,7.06,7.28"/>
    <path d="M60.27,457.69c-1.32,1.32-.44,3.84,1.35,4.69"/>
    <path d="M57.5,458.01c-1.2,.82-1.38,2.89-.14,3.9"/>
    <path d="M54.29,457.88c-.63,.44-.94,1.95-.08,2.77"/>
    <path d="M147.86,442.54c-4.71-.25-2.38-3.49-4.03-5.03"/>
    <path d="M146.82,446.42c-3.14,.42-4.1-1.4-4.06-3,.02-.84-.57-1.34-.84-1.95"/>
    <path d="M144.97,449.94c-2.83,.5-4.56-1.41-4.65-2.83-.05-.8-.04-1.29-.8-2.22"/>
    <path d="M142.73,452.12c-2.5,.76-4.45-1.09-4.23-2.53,.13-.89-1.25-2.55-1.53-3"/>
    <path d="M73.05,140.95c3.14,9.57,2.86,26.44,5.72,49.24,1.92,15.32,10.75,25.66,17.49,37.74"/>
  </g>
  <g class="skinCreaseLine">
    <path d="M156.55,183.29c-2.11-.45-4.13-.63-6.07-.54"/>
    <path d="M157.65,342.61c-3.53,1.38-7.1,1.96-10.74,1.16"/>
    <path d="M93.86,344.64c-4.35,.75-8.53,.48-12.49-1.16"/>
    <path d="M58.09,339.52c-4.87-1.38-10.49-1.67-14.51-.42"/>
    <path d="M126.53,320.87c-6.89,.32-12.57,2.2-16.32,6.57"/>
    <path d="M43.03,142.03c-4.18,17.72,0,37.16,.86,54.73"/>
  </g>
  <g class="skinEdgeLine">
    <path d="M59.5,132.04c-.52,1.47-1.06,2.65-1.62,3.39"/>
    <path d="M61.81,125.87c-.3,1.44-.73,2.69-1.39,3.24"/>
    <path d="M56.34,137.82c-.37,1.15-.8,2.03-1.39,2.31"/>
    <path d="M69.24,129.36c-.23,1.11-.6,2.1-1.28,2.83"/>
    <path d="M67.05,135.56c.11,.37-1.39,3.41-1.64,3.28"/>
    <path d="M63.04,141.21c-.25,.92-.64,1.71-1.28,2.28"/>
    <path d="M53.21,122.03c-2.51,1.7-.88,3.29-2.75,4.54-3.16,2.11-.49,4.28-2.19,5.75-1.21,1.05-.32,2.59-.4,3.89"/>
    <path d="M53.89,141.88c-.24,.63-.63,1.17-1,1.39"/>
    <path d="M88.22,191.57c-1.39,1.3-3.81,1.27-5.55,0"/>
    <path d="M25.5,431.01c2.11-2.33,9.56,3.2,15.29,6.54,7.04,4.11,10.28,9.98,16.68,15.28,2.99,2.48-1.28,4.51-5.55,3.65"/>
    <path d="M113.28,408.66c4.89-2.87,11.51,.32,16.21,5.99,6.29,7.58,12.51,13.97,13.36,20.54,.49,3.83-6.29,10.43-11.25,8.32"/>
  </g>
  <g class="skinFoldLine">
    <path d="M154.58,63.05c4.45-7.89,11.15,1.03,2.68,8.79"/>
    <path d="M154.35,65.44c2.16,2.43-2.95,4.68-1.28,5.77,.82,.53,.86-1.5,2.68-1.97,3.2-.82,2.05-5.89,.43-4.8"/>
    <path d="M48.42,71.57c-.63-9.72-14.61-1.81-4.81,8.76"/>
    <path d="M48.39,74.45c-2.74,1.39,1.56,5.06-.54,5.94-1.46,.61-1.23-2.68-2.9-3.5-3.78-1.86-2.16-7.45,1.28-4.94"/>
  </g>
  <g class="teeth">
    <path d="M85.1,95.39c-.86-.21-2.31-.69-3.72-1.64,1.15,1.57,2.49,2.82,3.4,3.22,.32-.12,.62-1.3,.32-1.58Z"/>
    <path d="M121.88,74.22c-2.59-1.78-4.04-4.69-4.78-4.22-2.79,1.77-3.82-1-4.63-.25-1.23,1.13-2.21,1.97-3.48,2.79,5.17-1.47,9.23,.45,12.9,1.67Z"/>
  </g>
  <g class="lipOverlapLine">
    <path d="M123.83,74.49c-.61,.21-1.25,.09-1.95-.27"/>
    <path d="M108.98,72.55c-.72,.34-1.51,.43-2.35,.33"/>
  </g>
  <g class="lipEdgeLine">
    <path d="M118.03,67c-3.11,1.01-3.96,.21-5.6-.41"/>
    <path d="M118.86,75.78c-1.7,.59-2.69,.16-4.69-.08-1.59-.19-2.58-.02-4.17-.64"/>
    <path d="M85.1,95.39c.74,.18,1.84,.11,2.34-.11"/>
  </g>
  <g class="cheekLine">
    <path d="M122.98,59.01c1.67,2.03,1.69,3.85,2.29,4.7"/>
    <path d="M81.95,89.47c-.02,4.31-1.67,3.56-1.91,8.18"/>
  </g>
  <g class="noseLine">
    <path d="M111.39,56.77c-.66,1.98-3.41,3.43-.9,6.38"/>
    <path d="M122.98,59.01c.88,.9,1.13,4.05-.66,5.24"/>
    <path d="M120.76,62.75c-.42-2.69-3.71,.89-4.35,.98"/>
    <path d="M110.6,61.17c1.88-.11,1.12,1.69,2.55,2.12"/>
    <path d="M89.88,88.35c-1.31-.29-3.03-.82-4.23,.35"/>
    <path d="M83.73,88.49c-1.3-.75-1.13-3.65,.35-4.41"/>
  </g>
  <path class="eyeLidLine" d="M83.23,75.03c1.89-.08,2.77-1.59,2.25-2.18,.98-1.18,.22-3.8-.1-4.31"/>
  <path class="eyeLashLine" d="M78.77,71.19c3.32,.36,5.38,.98,6.71,1.66"/>
  <g class="eyeFoldLine">
    <path d="M104.01,48.95c1.36,1.16,4.81,1.55,6.74,.36"/>
    <path d="M128.52,51.59c1.79,1.8,4.88,1.8,6.41,.82"/>
  </g>
  <g class="eyeCornerLine">
    <path d="M102.52,44.91c-.2,.12-.41,.24-.63,.35"/>
    <path d="M140.22,49.78c-.57-.2-1.02-.56-1.52-1.08"/>
  </g>
  <path class="eyeCreaseLine" d="M113.27,43.71c-2.2-2.62-6.67-3.65-9.76-1.15"/>
  <g class="eyebrowBlack">
    <path d="M116.38,34.34c-4.02,4.53-10.13,0-15.89,4.46,4.77-6.59,9.47-2.85,15.89-4.46Z"/>
    <path d="M125.78,35.75c2.65,4.43,10.28,.01,16.61,6.94-3.63-8.6-10.68-5.12-16.61-6.94Z"/>
    <path d="M75.6,66c2.81-2.86,9.44-3.34,12.08-1.81,.85,.5-.32,2.04-1.25,1.62-3.04-1.35-7.19-1.86-10.83,.19Z"/>
  </g>
</svg>