<svg viewBox="0 0 451.74 167.94">
  <path class="hairBlack" d="M45.57,68C31.05,72.52,32,75.94,18.89,86.78c-6.54,5.4-13.15,25.3-4.83,31.1-3.34,18.54,15.38,32,22.93,34.1,6.34,1.75,8.85,5.08,13.34,6.84,10.14,4,22.89,4.17,17,.06,24.79,4.22,42.54-14.52,33.34-14.07,9.89-10.39,9-25.06,1.69-17C104.4,113.85,49.1,66.93,45.57,68Z"/>
  <g class="hairOverlapLine">
    <path d="M50,131c2.37,3.91-.62,5-2.26,2.57"/>
    <path d="M36.84,86.1c0-5.66-2.63-4.52-3.24-2.08"/>
  </g>
  <g class="eye">
    <circle class="sclera" cx="59.01" cy="100.81" r="19.84"/>
    <g class="irisDarkBrown">
      <ellipse cx="55.25" cy="113.04" rx="3.33" ry="3.17" transform="translate(-30.82 21.26) rotate(-17.11)"/>
      <ellipse cx="49.06" cy="90.38" rx="3.33" ry="3.17" transform="translate(-24.42 18.44) rotate(-17.11)"/>
    </g>
    <g class="pupil">
      <ellipse cx="55.11" cy="112.84" rx="1.29" ry="1.23" transform="translate(-30.77 21.21) rotate(-17.11)"/>
      <ellipse cx="48.92" cy="90.18" rx="1.29" ry="1.23" transform="translate(-24.37 18.39) rotate(-17.11)"/>
    </g>
  </g>
  <g class="skinIndian">
    <circle cx="91.05" cy="87.5" r="10.52"/>
    <path d="M78.39,138c-8.34,11.82-22.58,4.43-14.48-2.68,2.65-6.13-.75-5.14-4.25-3.88-4,1.51-7.11,0-9.64-.38a39.81,39.81,0,0,0-9.74-10.8c6.16,1.75,2.25-7.89-4.68-15.11,5.48,1.64,1.27-8.36-7.93-6.56,6.25-1.3,8.82-8.63,9.17-12.47,7.15-3.79,10.32-3,14-4.89,9.3-4.75,21-7.55,32.25.43,2.7,1.92,7.62,2.37,9.94,8.85,1.67,4.68.91,6.62.53,10.57C92.22,115.4,79.15,136.9,78.39,138ZM53.53,108.57c-.37,2.27-.65,4.34-.05,6.05,1.07,3.09,2.92,3.91,4.27,5.23-.61-2.11-.4-3.3-1.15-5.8-.84-2.81-1.94-3.45-2.13-4.66C54.4,109,53.7,107.49,53.53,108.57ZM50.7,95.84c-.65-1.93-.13-2.16-.64-4.93a20.09,20.09,0,0,0-2-4.92c-.55,1.84-1.23,3.9-.67,6.06a9.25,9.25,0,0,0,2.92,4.78C51.07,97.58,50.84,96.26,50.7,95.84Z"/>
    <path d="M217.63,49.35c20-19.7,38.95-36.65,58.36-46.91,5.76-3,12.14-2.73,18-.19,18.75,8.1,52,34.3,60,34.34,7.6,0,14.24.72,19.52-.59,4.28-1.06,8.59-.9,11.65-2.17,2.65-1.09,4.94.36,4.61,2.23,2.14-.35,3.86,1.69,3.48,3,2.37-.1,3.79,2.81,2.75,3.95,1.56.27,2.19,3.85.84,4.39,1.92,1,3,8.15-7.6,7.77l-48.38-5.25c-15-8.41-41.89-5.1-51.52-13.28-2.61,3.87-5.08,7.61-7.36,11.17Z"/>
    <path d="M214.55,129.78A523.19,523.19,0,0,0,267,164.28c7,4,18.5,4.33,25.13,1.76,11-4.25,32.35-14.84,44.3-20.06,7.73-3.38,23,.69,38.36,4.08,2.67.59,5.22-.19,5.4-2.1a3.27,3.27,0,0,0,4.19-3.08c2.1-.39,3.26-2.77,2.65-3.86,1.49-.55,1.9-3.48.88-4.08,2.31-2.39.9-6.4-2-7.49-5.86-2.23-14.21-1.44-21.4-4.82l-32.09,2c-9.82,8.16-30.82-1.54-46.58,7.72a70.76,70.76,0,0,1-5.4-7.28C257.36,126,235.3,126.72,214.55,129.78Z"/>
  </g>
  <g class="sockWhite">
    <path d="M381.91,53.48c5.9.29,10.53,2.19,17.88-.28,16.62-5.6,20.32,1,32.9,1.49,10.33.39,15.08,3,18.13,9.54,2,4.32-.64,16.67-5.6,17.41-8.26,1.24-11.55-3.71-18.63-5.7-6-1.69-11.58-.6-24.64-3.94-9.19-2.35-13.74.2-20.24.39C378.47,69.64,378.66,55.54,381.91,53.48Z"/>
    <path d="M382,103.48c5.31-.2,12.11,3.14,19.06.2,14.85-6.3,15.37,1,31.33-1.87,7.52-1.35,11.51-4.17,15.87-.59s2.8,18.63-3.64,21a37.8,37.8,0,0,1-13.61,2c-11-1.08-14.83,1.27-22.67-.7-10.76-2.71-20.83.41-26.05.11C379.06,117.94,379.65,106.14,382,103.48Z"/>
  </g>
  <g class="clothesEdgeLine">
    <path d="M414.66,52.92c-9.55.49-9.74,15.44,4.82,17.61"/>
    <path d="M415.84,103.92c-11.91-.2-13.37,17.46-.89,16.38"/>
  </g>
  <path class="lipFemaleBrown__noStroke" d="M73.05,87.51c2.4.71,8.18-1.7,10.45,5.69,2,6.57-3.66,8.86-5.31,11.56C77,100.44,71.74,91.59,73.05,87.51Z"/>
  <path class="lipFemaleBrown" d="M73.19,88.24a2.44,2.44,0,0,0-.78-1.71c1.38,2.64-2.66,4.46-1.85,6.7,1.42,3.94,1,4.85,1.71,6.16,1.52,3,5.77,3.4,5.89,6.63a2,2,0,0,0-.09-1.59Z"/>
  <path class="mouthInner" d="M73.19,88.24c0,1.69-1.82,3.79-1.21,4.89,1.68,3,.9,5,1.7,6.2,1.18,1.82,3.6,3.36,4.39,5.1,1.39-3.18,2.76-6,1.65-10.2S76.47,89.66,73.19,88.24Z"/>
  <path class="tongue" d="M76.57,89.78a5.62,5.62,0,0,0-2.06,1.44c1.95,3,3,8.06,2.21,11.39a6.92,6.92,0,0,1,1.35,1.82c1.39-3.18,2.76-6,1.65-10.2A6.42,6.42,0,0,0,76.57,89.78Z"/>
  <path class="teeth" d="M76.72,102.61c1-4.45-.87-10.66-3.73-13.24-.45,1.42-1.49,2.9-1,3.76,1.68,3,.9,5,1.7,6.2A25.81,25.81,0,0,0,76.72,102.61Z"/>
  <path class="lipEdgeLine" d="M78.57,87.89c4.06,1,6.77,6.88,4.36,11.54"/>
  <g class="cheekLine">
    <path d="M64.09,91c1.8-1.67,1.87-2.34,4.66-4.11"/>
    <path d="M65.6,104.31c2,1.27,2.68.54,5.2,2.13a13.56,13.56,0,0,0,6.54,2.36"/>
  </g>
  <g class="noseLine">
    <path d="M56.08,96.26c6.69-4,6.9-7.07,10.33-4.08"/>
    <path d="M65.6,104.31c.56.69,3.45.47,4-1.55"/>
    <path d="M68.86,101.1A2.57,2.57,0,0,1,68,97.6"/>
    <path d="M65.55,92.73a4.29,4.29,0,0,1,3.27,3.37"/>
  </g>
  <g class="eyeFoldLine">
    <path d="M50.66,87.5a6.34,6.34,0,0,1,1.44,6.21"/>
    <path d="M56.58,110.37c1.08,1.17,2.68,3.41,2.36,6.07"/>
  </g>
  <g class="eyeCornerLine">
    <path d="M48.08,86a1.92,1.92,0,0,0-.18-1.81"/>
    <path d="M59.43,122.61a5.39,5.39,0,0,0-1.68-2.76"/>
  </g>
  <g class="eyeCreaseLine">
    <path d="M48.21,96.28c-3.32-2.62-2.51-7.16-1.59-9.74"/>
    <path d="M56.51,121c-3.78-2.13-5.37-6.37-4.48-11.2"/>
  </g>
  <g class="eyebrowBlack">
    <path d="M42.18,85.55c-3.53,7.64-1.22,10.23-.85,13.77.16,1.62,2.31-.72,1.47-2.7C40.71,91.71,41.43,89.08,42.18,85.55Z"/>
    <path d="M53,123.56c-6.64-3.89-7-10.14-8.59-13.2-.41-.78,2.34-.82,2.78,1.57C48.13,117,48.38,118.81,53,123.56Z"/>
  </g>
  <g class="skinEastAsian">
    <path d="M110.27,42.49c-6,20-11.73,22.65-17.19,8.6A108.6,108.6,0,0,1,110.27,42.49Z"/>
    <path d="M27,153.56c20.39,1.18,44.41,5.17,57.06.29,5.34-2.06,12.51-16.39,24.82-30.86l51.36-3.51L237,126.91c11.19,2.87,26.91,1.36,34.32,1.51,24.05.49,48.29-2,51.39-1.47,24.26,4.5,38.37-1.17,59.29-4-2.74-5.51-2.32-15.8-.32-19C363.8,102,347,97.2,329.55,100.23c-10,2.35-58.5-11.75-72.79-14.3,8.81,0,57.52-10.77,71.82-8.62,18.8,2.84,34.26-1.7,52.76-5.3-2.63-3.19-2.58-14.54-.12-17.86-11.73-1.12-31.35-8.67-57.34-4.25-4.59.78-43.63-3.52-61.44-5.09-33.3-2.94-37,2.23-58.56,5.48-10,1.52-22.95-2.14-38.88-5.08l-24.64-4.28C130.55,34,117.07,27.75,110.31,34c-5.63,5.21-9.81,20.38-15.81,20.87L87.09,81.8c2.19.52,4.9.32,5.32,2.25.51,3.46,1.91,6.33-.2,10.84-11.32,20.88-7.4,25-17.35,41.68C54.15,138.69,48,145.32,27.66,143c-.38-3.89-3.22-8.2-7.2-9.09a11.45,11.45,0,0,0-3.28-3.85c1-3.22-.42-9.22-4.84-7.69a17.55,17.55,0,0,0-1.43-6c2.68-5.57-.54-8.18-2.92-6.88-.49,2.33-1.66,3-2,5.63-.7-4.23-5.3-5.2-5.73-2.47.55,2.77,0,4.91.64,8.15.9,4.42,1.31,8.45,3.7,15.16,1.7,4.14,6.59,8.33,10.33,11.36C18.2,150,21.77,152.94,27,153.56Z"/>
    <path d="M42.59,72.67a24.36,24.36,0,0,1-6.92-1.27,10.24,10.24,0,0,1-5.33,2.19c.29,3.47-6.05,7.39-7.26,3.65-2.94.57-4.55-2.47-2.18-4.27a1.78,1.78,0,0,1-.38-2.7c1.12-1.5,2.53-.49,5.5-2.8,1.32-2.12,3.28-3.08,5.68-4.54"/>
  </g>
  <g class="skinCreaseLine">
    <path d="M320.93,53.64c-2.8,5-3,13.7.16,18.53"/>
    <path d="M321.87,106c-2.81,4-2.65,13.09-.16,17.76"/>
    <path d="M117.94,73.41c28.13,5.66,62.86,9.37,90.79,11.28"/>
  </g>
  <g class="skinIndian">
    <path d="M218.14,130.58c-19.18,6.23-32.35,13.49-50.88,10-23.46-.82-51.68,17.9-58.34-17.63,7.1-12,29-6.13,51.36-3.51,4.89.58,14.06,1.39,16.93.89,12.29-2.13,23.69,2.56,39.84-3.92,2.56-7.65,4.71-7.87,8-10.46a30.87,30.87,0,0,0,4.51-4.51c1.26-1.48,2.89-1.7,4.81-3.62,3.4-1.41,3.4,5.47-1,7.69-1.33,1.92-2.22,4.36-1.33,5.4,4.8,4.21,6.58,2.07,10,1,3-1,3.68-.81,7.75-4.58.89-6.37,6.44-6.22,5.85-2.74-1.18,3.48.22,4-3.21,7.67-4.24,4.55-5.82,4.16-9.73,6,3.69-.82,6.06.52,10.42-4.14.89-6.81,7.32-5.92,6.21-3.18-1.16,2.2-.66,3.47-2.51,6,.81-.52,2.74.51,1.92,1.92-1.55,2.14-.88,2.66-3.34,5.11-1.71,1.69-3.39,3.54-6,3.91-4.51,4.22-6.41,1.71-10.2,1.26a33.61,33.61,0,0,0-9.17.52C219.69,131.36,220.06,129.88,218.14,130.58Z"/>
    <path d="M171.2,48.4c-4.33-2.79-6.09-20.27-22.49-20.65-4.31-.1-10.55,4.17-15.37,8.76a75.57,75.57,0,0,1,7,4.42c3.67,4.16,7,5.09,9.36,6.57a52.07,52.07,0,0,1,9.37,7.7c.14,5.15,2.5,7.79,2.63,11.73.09,3-.16,6.64.84,9.33.82,2.23.13,4.72.58,5.43,1.69,2.93,6.67,0,4.58-6.31a9.64,9.64,0,0,1,1.4-4.5c4.16,3.21,5.94,12.06,11.9,18.37,2.4,1.69,5.78-.62,1.77-5.69a125.5,125.5,0,0,1-5.69-12.9c3.47,2.76,5.9,6.76,8.27,11.12,1.07,5.25,6.41,5.25,6.41,2.67-.63-1.25-.71-2.58-1.6-4.45,1.69,1.87,4.89-.36,3.64-2.49-.81-1.39-.53-2.4-1.51-4.09,1.07.53,3.12-.45,2.4-2.14-.53-1.24.17-4.56-1.22-6.93-2.38-4.07-4.57-2.21-9-7.7C180.44,51.57,173.54,50.83,171.2,48.4Z"/>
  </g>
  <g class="skinDisplayLine">
    <path d="M394.53,52.07a3.06,3.06,0,0,0,.37-3.88c-.38-.42-3.13-.09-3.2.24-.22.91-.27,2.29-.52,3.28"/>
    <path d="M395.21,43.75a3.74,3.74,0,0,1,.14,2.39"/>
    <path d="M383,136.14c-.06-1.15.65-3.59,1.27-3.7a4.22,4.22,0,0,1,2.83,1.54c.41.44-.05,2.4-1,3.16"/>
    <path d="M386,138.59a3.89,3.89,0,0,1-.44,1.83"/>
    <path d="M384.8,142.35a2.39,2.39,0,0,1-.93,1.74"/>
  </g>
  <g class="skinOverlapLine">
    <path d="M141.13,36.33a8.32,8.32,0,0,0-.77,4.6"/>
    <path d="M173.11,129.74c-.15-3,2-7.18,3.93-8.54"/>
    <path d="M160.28,119.48c-13.75,5.79-22.82,4-26.78,3.12"/>
    <path d="M128.63,125c2.08-.78,5.68-.6,8.13-1.81"/>
    <path d="M289.37,36.64a12.88,12.88,0,0,0,2.5-5.46"/>
    <path d="M285.87,134.3a10.31,10.31,0,0,1,2.25,3.42"/>
    <path d="M12.34,122.4c-1.09.46.39,2.38-.39,6.33-.66,3.35.91,5.75,2.39,8.22"/>
    <path d="M9.61,130.72c.39-1.25-.46-5-1.54-6.44a10.63,10.63,0,0,0-2-5.85A8.15,8.15,0,0,0,6,115.12"/>
    <path d="M26,67.47c2-1.41,5.84-1.45,7.91-1.78"/>
    <path d="M20.9,73c2.15,1.47,6,.46,7.93-1.25a13.7,13.7,0,0,0,6.84-.32"/>
    <path d="M23.08,77.24c3.1,0,5.59-2.24,5.2-5.09"/>
    <path d="M185.46,63c2.67,3.74,3.56,1.16,6.85,10.41"/>
    <path d="M182.26,66.48c2.58,4.36,4.36,4.36,7.92,13.52"/>
    <path d="M256.81,116.94c-1.48,2.29-1.56,3.18-4.52,5.32-3.17,2.3-5.17,1.18-9.38,3"/>
    <path d="M249.41,127.88c-2.88.22-4.28-.52-7.54.08"/>
    <path d="M265.45,56.13c5,5.76,5,28.66-4.69,29.8,10.29,4.62,10.14,28.3,4.06,34.69"/>
    <path d="M228.37,82.92c2.11,3.76,3.81,1.78,32.39,3"/>
    <path d="M228.26,88a6.1,6.1,0,0,1,5.41-2.67"/>
    <path d="M389.8,36.06c-1.29.14-2.14,1-5.48,1"/>
    <path d="M393.28,39.06c-2.61-.1-3.71.84-6.77,1"/>
    <path d="M396,43c-4.14-1.19-5,0-7.56.07"/>
    <path d="M396.87,47.4c-1.52-.82-4.61,0-6.89.12"/>
    <path d="M378.36,135.6c4.38.4,7,3.75,9.57,1.34"/>
    <path d="M378.19,140.21c2.54.06,3.69,2,8.86.81"/>
    <path d="M377.38,143.85c2.6,0,4.15,1.73,7,1"/>
    <path d="M375,146.85a44.2,44.2,0,0,1,5.2,1.11"/>
  </g>
  <g class="skinFoldLine">
    <path d="M67.07,135.64a6.56,6.56,0,0,0-2.77,2.56"/>
    <path d="M69.9,134.85c2.27,1.44,5.15-3.68,6-1.51.36.94-1.67,1.26-2.62,2.94a4.45,4.45,0,0,1-.33.51"/>
  </g>
  <path class="skinEdgeLine" d="M184.73,60c-.75,2.09-2.55.93-3.92,3.36s-2.78.46-4.57,3.12c-1.44,2.13-3.64.88-4.89,2.63"/>
  <path class="hairBlack" d="M54.56,10.49c34.76,3.17,64.23,22.72,51.71,54.28C94.22,95.16,56.62,86.05,36,70c-4.82-2.17-6.73-4.48-7-8.8a25.77,25.77,0,0,0-1.38,4.88c-.27-5.29-5.68-8-1.09-14.12-10.54-4-1-14.08-2.34-23.66a17.22,17.22,0,0,1,2.5,4.84C25.37,22.3,35.53,20,39.89,10.81a22.85,22.85,0,0,0,0,5.79C44.48,6,51,10.61,57.36,7.1A23.24,23.24,0,0,1,54.56,10.49Z"/>
  <g class="hairOverlapLine">
    <path d="M54.56,10.49a15,15,0,0,0-3.86.26"/>
    <path d="M36,70a11.34,11.34,0,0,1-2.47-3.39"/>
    <path d="M80.14,72.67c1.53,2.06.91,5.74-2,8.55,3.56-.58,5.71-5,4.68-8.65,4.13-2.27,5.5-6.62,5-10.78-1,4.53-2.84,7.6-6.5,8.14"/>
  </g>
</svg>
