<svg viewBox="0 0 234.64 502.53">
  <path class="hairBlackDark" d="M66.36,69.09c8.4,3.85,13,3.41,9.36.48,3,1,11.36,1.47,13.41.09C95.82,29,45.25,31.38,66.36,69.09Z"/>
  <g class="eye">
    <path class="sclera" d="M126.89,54.22c-35.94-10.15-33-20.59,3-10.45C131.55,46.54,129.72,52.51,126.89,54.22Z"/>
    <g class="irisDarkBrown">
      <circle cx="106.49" cy="42.3" r="3.33"/>
      <circle cx="126.01" cy="47.81" r="3.33"/>
    </g>
    <g class="pupil">
      <circle cx="106.49" cy="42.3" r="1.29"/>
      <circle cx="126.01" cy="47.81" r="1.29"/>
    </g>
  </g>
  <g class="skinIndian">
    <path d="M49.9,211.82a172.56,172.56,0,0,1,8.71-31.24c2.14-5.84-3.38-28.73-1.47-46.71a153.16,153.16,0,0,1-5.51-18.76c-1.72-6.84-4.43-11.11-3.14-20.67s25.56-9,25.56-9C143.91,19.12,187.87,287.3,49.9,211.82Z"/>
    <path d="M99.05,78.87c-6.2-3.55-16.77-9.38-16.77-21-2.83,2.27-5.27,1.15-6.57-1.62-1.12-2.38-2.44-4.65-3.24-6.6C54.23,19.34,112.84,7.76,130.83,24.06,142.07,53,131.26,111.42,99.05,78.87Zm14.38-33.36c-1.29-2.26-2.83-3.64-4.69-4-2.72-.52-4.2.29-6.32,1.14a12.2,12.2,0,0,0,5.4,2.82,24.45,24.45,0,0,0,4.66.43C112.91,46,113.9,46.34,113.43,45.51Zm16.62,3.9c-.28-1.65-1-2.3-2.08-2.62-1.43-.42-3.12,0-4.92,1.23-.84.59.24.87.52,1.11,2.43,2.09,5.13,2.57,6.34.77Z"/>
  </g>
  <path class="lipFemaleBrown__noStroke" d="M117.79,71.37c-1.23,1.15.76,5.36-5.54,4-4.44-1-4.58-4.63-7-6.66C108.5,67.87,114.18,67.93,117.79,71.37Z"/>
  <path class="lipFemaleBrown" d="M118.59,71.81a2.55,2.55,0,0,1-1.13-.75l-11.18-2.57a5.51,5.51,0,0,1-2.43.15c4-.23,6.3-3.54,8.84-3.28,2.24.23,1.62.54,3.59,1.18.89.3,2.24.12,2.77.74C120.54,69,115.46,68.1,118.59,71.81Z"/>
  <path class="mouthInner" d="M108.16,67.91l8.86,2.4a3.3,3.3,0,0,0,.44.75,6.75,6.75,0,0,1-5.11.37c-3.19-.74-3.27-1.5-6.07-2.94C106.72,68.42,108.16,67.91,108.16,67.91Z"/>
  <path class="teeth" d="M108.16,67.91c1.55-.6,3.09-1.47,4.54-.88a12.28,12.28,0,0,0,4.18,1.3,3.59,3.59,0,0,0,.14,2C114.72,71.18,111,69.61,108.16,67.91Z"/>
  <g class="lipEdgeLine">
    <path d="M116.63,74.43c-.6,2.16-5.75,1.64-8-1"/>
    <path d="M116.88,68.33a2.6,2.6,0,0,0,.84,0"/>
  </g>
  <g class="cheekLine">
    <path d="M121.25,63.34a11.73,11.73,0,0,1-.22,4.54"/>
    <path d="M111.18,56.34c-2.38.67-3.34,3.48-5.66,5.59a11.23,11.23,0,0,0-3.09,4.6"/>
  </g>
  <g class="noseLine">
    <path d="M110.49,61.12c-2.16-1.17-.84-4.1.69-4.78"/>
    <path d="M116.56,61.43c-1.14-.88-2.65-1.19-4.69.11"/>
    <path d="M120.84,50c.18,6.95,3.68,12.22-.26,13.72-2,.76-3.84-.53-5.12-1.93"/>
  </g>
  <g class="eyeFoldLine">
    <path d="M128.42,53.06a3.49,3.49,0,0,1-4-1.43"/>
    <path d="M111,47.74a9.22,9.22,0,0,1-7-2"/>
  </g>
  <path class="eyeCornerLine" d="M99.81,42.55a5.74,5.74,0,0,0,2.61.09"/>
  <g class="eyeCreaseLine">
    <path d="M123.54,46.31c3.91-2.62,7.26-.59,7.79,1.79"/>
    <path d="M101.46,41.46c3.7-2.11,9.52-3,11.93,1.22"/>
  </g>
  <g class="eyebrowBlack">
    <path d="M140.8,50c-2.54-6.16-11.14-11-15.32-11.13-1.17,0,.51,2.59,1.8,2.67C132.21,41.85,137.91,45.51,140.8,50Z"/>
    <path d="M99.94,36.79c5.58-4.09,15.82-2.29,18.42-.18.92.74-1.73,2-2.83,1.31A17.34,17.34,0,0,0,99.94,36.79Z"/>
  </g>
  <g class="hairBlack">
    <path d="M72,49.69c.74,1.8,1.93,3.88,3,6.07-1.58.79-3.25.47-4.88-1.71A15.36,15.36,0,0,1,72,49.69Z"/>
    <path d="M130.05,49.41c2.28-1.35,1.17-3.06,1.35-3.94s1-2.5.45-3.45a16.66,16.66,0,0,1-7.32-7.59c2,7.18-7.66-1.13-5.24-11.66-2.53,12.34-17.38,10.4-14.39,6.84-3.25,3.34-7,4.08-11.06,4.3-2.37,1.84-4.71,3.45-5.34,7.64-.61,5-5.44,2.3-6.19.17-1-4.89-13.72-5.85-9.84,8C66,60.11,73.44,72.32,81.74,83c2.77,3.56-2.83,7.45-15.72-3.08,2,8.49-8,4-13.66-12.2-1.39,7.12-6.91-1.41-5.65-12.14-3.33,6-6.12-5.91,4.66-18.71,4.39-5.23.36-9.73,12.65-19C70.38,13.1,82.88-5.93,96.66,2.3c10.84-5.24,27.39-.08,34.9,11.47,2.46,3.79,7.69,8.9,8,21.22.16,6.46,2.09,6.13,3.2,15.44s-1.93,13.16-2.77,8.48c-2.62,34.91-19.75,34-15.27,28.08-11.08,7.06-19.41,6.37-17.21,1.48C96.78,87.8,97,83.8,99.05,78.87c4.86,2.79,6.16,6.13,11.74,5.68,6.38-.51,6.19-4.2,8.78-6.48a28,28,0,0,0,9.9-23.24c-.23-2.37,2.46-2.8.44-4.93Z"/>
  </g>
  <g class="hairOverlapLine">
    <path d="M93.84,33.91c-4.84-.17-4.87-3.28-1-3.39"/>
    <path d="M131.85,42c3.65,1.5,2.93-1,1.41-2.57"/>
  </g>
  <g class="phone">
    <path class="antennaLight" d="M64.82,38.27a.84.84,0,0,0-1,.09c-.77.53-1.65,2.07-1.35,2.4L68,46.46l4.73-1.52Z"/>
    <path class="phoneMedium" d="M114.69,80c-12.14,9.44-38.78-17-47.12-34.8,1.5-1.17,4.61-1.84,7-1.77,1.89.06,4,0,6.48,2.49,2.3,2.3,3.56,5.28,4.3,9.8,7.73,8,15.16,14,28,21.15C115.61,78.12,115.42,79.45,114.69,80Z"/>
    <path class="phoneDark" d="M107.52,81.17a14.78,14.78,0,0,0,7.66-1.9c-.14,4.15-3.43,9.86-5.41,11.31-1.61,1.12-5.59,1.82-7.84,1.53Z"/>
    <path class="phoneLight" d="M107.52,81.17c-.3,2.17-4.22,9.8-5.59,10.94C91,84.51,81.55,76.49,73.42,66.52c-1.07-1-3-1.21-4.82-2.87a14.82,14.82,0,0,1-3.89-6,13.93,13.93,0,0,1-.3-7.53c.48-2.53,2.74-5.58,5-5.46,2.67-.06,5.13,2.23,7.21,5.6,1.62,2.62,1.84,5.46,2.76,6.66C87.49,65.33,97.7,74.66,107.52,81.17Z"/>
  </g>
  <g class="skinIndian">
    <path d="M139.37,270.79a252,252,0,0,1-2.72,35.89c-9,26.63-14.7,54.4-18.23,73.92,1.93,14.85,3.63,28.89,3.51,41.14,0,2.89-.28,5.3-.17,9.14.09,2.67-2.56,4-3.88,2.84a4,4,0,0,1-4.39,4.33c0,2.19-3.7,3.08-4.73,1.72-.09,2-5.76,2.31-6.44.25-2.11,1.66-6.29,1-7.55-1.56-.86-1.72-.28-5.47-.28-7.51,0-3-.41-4.76.48-7.9,4.9-17.15.62-33.22,6.65-39.46C85.08,248.61,115.26,147.69,139.37,270.79Z"/>
    <path d="M100.91,149.14c-6.12,8.16-18.77,9.25-27.73,2.5"/>
    <path d="M67.05,134c-2.7-12.73,11.31-28.82,8.75-40.63C75.41,91.54,70.21,72,73.13,66s2.4-11.26,11.81-10.61c3.18.21,6.64.09,7.66,3.59a7.23,7.23,0,0,1,4.89,3.17c3.51,1.11,5,2.13,4.8,5.36,1.55.64,3.39,2.35,2.49,4.28-1.74,1.24-4.55.3-5.94,1.87a36.57,36.57,0,0,1-4.3,3.87c.18,11.78-5.9,16-6.09,18.12-1.9,15.22,6.38,37.6-3.35,51.34-3.06,4.33-6.89,6.59-11.92,4.62-7.14-2.8-12.38-8.93-16-17.77M95.85,68c-3.19-1-3,1-5.24,4A32.79,32.79,0,0,1,95.85,68Z"/>
  </g>
  <g class="skinBlack">
    <path d="M85.1,120.62c1.49,5.9,2.24,11.91,4.68,15.28,3.82,5.28-.44,18.56,16.16,33.69,3.12,2.84,5.72,7.77,10.13,8.63,19.12,3.71,42.54-18.15,43.51-41.86C133.65,126.11,108.66,120.11,85.1,120.62Z"/>
    <path d="M127.14,165.49c2.71.34,6.25,6.37,4.89,9.26-1.77,4.48-16.83,11.13-20.63,24.29-2.2,7.65-10.31,13.57-17.77,22C81.29,211,68,212.11,54.06,197.87c3.36-4.25,1-8.43,3.08-13.18.42-2.75-6-4.57-8.65-.12-2.51,4.24-9.43,3.94-8.35,13.27,1.69,14.72,6.58,9.44,12.13,17.18C66.11,231.7,77.62,248.69,97,248.5c5.71-.05,16.86-10.64,27.41-20.43,2.5,9.54,5.68,18.42,8.27,26.86,7.06,22.93,8.37,29.67,9.44,39.4-30.38,9.23-63.9,20.76-73.29,29.37s-18.63,79.5-24.14,94.59c-1.88,5.14-5.24,12.1-8.31,14-6.66,4.08-13.44,9.28-19.85,14-4.46,3.31-7,3.66-10.19,3.44-1.69-.12-3.21.94-2.93,1.79a1.78,1.78,0,0,0-1.77,2.29c-1.3.11-1.8,2.58-1.07,3.31-.59,5.87,9.31,3,11,1.78s10.11,1.81,23.18-2.29c5.94-1.86,15-1.67,24.84-1.78,4-.05,5.43-2.84,4.71-8-1.34-9.65-1.11-18.5.89-25.35,9.41-32.17,30.85-43.22,26.31-71.88a335,335,0,0,0,38.23-.14c-7.73,16.56-14,33.13-17,49.69.12,17.5,55.9,34.1,71.9,44.38,9.68,6.22,18.56,13.92,19,25.54.47,12.46,2.68,21.77,1,24.72-4.15,7.25,1.89,11.57,6.7,5.87.88,2.37,4.44,2,5.84-.42a4.32,4.32,0,0,0,4.52-3.06c2-.29,2.92-2,3.36-4.38,3.1-1.08,3.39-3.81,1.89-6.85,3.64-5.15,2.77-17.07,5.69-31.65,2.41-7.41,3.43-14-4.67-15.32-12.13-1.44-20.18-3-29-8.16-17.55-10.2-35.7-37.63-51.4-39.49,36.27-30.85,46.87-48.66,52.31-51.75,24.79-14.14,21.08-36.59,10.85-54.9-5.44-9.74-3.81-35-10.51-65.62-4-18.45-13.11-37.52-21.64-55.44l-14-13.52c-1.53-3.08-4.07-8.52-3.44-12.73"/>
  </g>
  <path class="hairBlack" d="M85.1,120.62c-3.9-16.15,10.39-35.31,28-40.7,36.22-11.11,60.13,24.81,46.5,56.44-3.83,3.27-10.48,3.27-12.64,6.84-7.12-3.65-18.49,4.79-35-4-.43-21-16.28-17.5-10.37-7.56-1.56.94-3,1.86-4.23,2.73C93.7,125.75,88.59,128.17,85.1,120.62Z"/>
  <g class="skinIndian">
    <path d="M159.66,146.89c1,2.59,6.73,8.21,7.18,12.69-5.21,4-5.63,7.38-9.07,8.75-5.82,2.33-3.18,2.86-7.12,4-4.42,3.22,3.85,8.09,9.52,2.54-1.55,5.12.7,9,5.47,7.36-.47,3.37.91,4.67,2.65,5.2s3.75.09,4.42-1.92c.72,2.82,2.27,3.28,4,3.39s3.17-.43,4-3.34c2.34.81,4.37,1,5.94-2.7,2.57-6.08-.38-11.76-2.85-18-3.77-10.88,0-16.72-4.6-27.58C177,132,168.56,126.37,163.45,119,163.15,133.16,156,137.86,159.66,146.89Z"/>
    <path d="M136.07,388.12c-1.69-1.95-3.54-6-5.69-8-5.51-5.12-14.47-22.49-16-33-1.39-9.44,2.91-38.72,2.76-51.63-.06-5,.31-8.48-.66-15.17-2.06-14.27-4.77-20-12.63-34.67h0c-2.68,1.75-5,2.81-6.81,2.82-19.4.19-30.91-16.8-44.75-33.48a15.17,15.17,0,0,0-2.44-2.71c-4.22,24-.6,32.42,9.32,48.23,4.91,7.83,16.9,17.43,24,23.6-2.85,32.08,14.38,51.32,14,70-.16,7.26,1.5,9.92,1.72,16.38.09,2.91,4.57,18.51,6.94,20.9,2.57,2.6,1.47,9.77,8.07,7.66.93,2.18,5.19,1.78,5.94.2,1.12,1.36,5.94.68,6-1.61,2.1,1.52,5.45-.15,5.64-2.42C136.21,396,138.13,390.48,136.07,388.12Z"/>
  </g>
  <g class="skinDisplayLine">
    <path d="M105.33,182.63c3.75,2.7-4.61,2.87-2.2.63"/>
    <path d="M134.4,389.09a5.52,5.52,0,0,1-3.62,3.22c-.52.13-1.71-1.49-1.29-1.85.65-.54,1.91-1.43,3.06-2.43"/>
    <path d="M128.62,393.76a4.93,4.93,0,0,1-2.54,1.38"/>
    <path d="M123.48,395.82a5.09,5.09,0,0,1-3,.79"/>
    <path d="M117.84,396.8a4.6,4.6,0,0,1-3.14.2"/>
    <path d="M112.15,396.26a4.62,4.62,0,0,1-2.79.15"/>
    <path d="M101.51,433.44a10.26,10.26,0,0,0-4.44-.1c-.74.14-.63,3.79,0,4.27a4.58,4.58,0,0,0,4.44.05"/>
    <path d="M107.05,437.41a11,11,0,0,0-2.94.1"/>
    <path d="M112.15,436.43a9,9,0,0,0-2.7.29"/>
    <path d="M116.27,434.47a4.7,4.7,0,0,0-2,.29"/>
    <path d="M120.29,431.33a2.41,2.41,0,0,0-1.77.3"/>
  </g>
  <g class="skinOverlapLine">
    <path d="M168.53,132.23c-5.75.83-10.93,9.57-8.87,14.66"/>
    <path d="M97.49,62.18c-4.12-1.28-5.89-2.21-8.08-.64-1.45,1-3.18,4.24-5.66,7.85"/>
    <path d="M79.72,66c1.91-3.6,2.72-7,5.08-7.53,1.36-.32,4.89.11,7.8.55"/>
    <path d="M95.85,68a8.13,8.13,0,0,1,6.44-.5"/>
    <path d="M180.73,185.58c.88-2,2.42-8,1.91-10.22"/>
    <path d="M176.46,172.26c-.73,4.36-2.64,11.36-3.75,13.27"/>
    <path d="M169.26,170c-1.77,4.85-2.46,9.38-3.62,12.25"/>
    <path d="M160.17,174.89a29.21,29.21,0,0,1,2.66-7.4"/>
    <path d="M117.88,433.72c-.25-2.16-.1-4.33-.32-6"/>
    <path d="M113.49,438.05c-.13-2.69.39-5.55-.4-8.25"/>
    <path d="M108.76,439.77c-.56-2.79.54-6.44-.52-9.32"/>
    <path d="M102.32,440c1.3-1.48.83-5.91.73-9.13"/>
    <path d="M113.86,399.05c-.88-2.19-.43-5-1.36-7.53"/>
    <path d="M119.8,399.25c-1-1.08-1.37-6.71-2.14-8.15"/>
    <path d="M125.85,397.64c-1.58-1.69-1.87-6-3.31-7.59"/>
    <path d="M131.49,395.22c-1.55-.85-3-5-4.84-7.61"/>
    <path d="M3.43,451.54c.76,5.24,5,2.08,9.31,3.64"/>
    <path d="M1.66,453.83c.56,4,6.43,2.06,9.46,2.72"/>
    <path d="M.59,457.14c1.57,2.39,5.09.19,9.65.72"/>
    <path d="M213.18,487.23c0,3.19,3,6-1.82,12.42"/>
    <path d="M217.2,499.23c1.8-3.83.85-7.07-3.12-7.07"/>
    <path d="M221.72,496.17c.71-2.53,0-4.63-3-5.06"/>
    <path d="M225.08,491.79c.15-1.33,0-2.24-1.22-2.67"/>
    <path d="M147.57,390.32a30.73,30.73,0,0,0-12.74,1.33"/>
    <path d="M129.75,349.45c7.48.05,29.38-5.82,38.49-5.76,41.25.24,41.25-40.78,26.86-55.33"/>
    <path d="M198.63,288.36a9.7,9.7,0,0,0-.4,3.91"/>
    <path d="M196.78,338.46a28.31,28.31,0,0,1-8,.66"/>
    <path d="M136.32,218.45c-4,1.78-7.94,5.28-11.89,9.62"/>
    <path d="M142.14,294.33c.55-.26,2.41-.73,2.94-1.39"/>
    <path d="M93.63,221a13.83,13.83,0,0,0-4.22,16.5"/>
    <path d="M111.91,139.21c-.29,4.48-1,8.26-4.51,8.47"/>
  </g>
  <g class="skinFoldLine">
    <path d="M99.91,214.44c-6.28.14-16-1.28-22.79-5.47"/>
    <path d="M83.15,284.14a22.36,22.36,0,0,1,1-5.16"/>
    <path d="M81.13,44.65c-.32-4.75-5.87-5.08-7.33-1.16"/>
    <path d="M103.16,131c-4.44-6.58,6.71-3.67,5.21,9.55"/>
    <path d="M104.26,133c-.43-1.51.74-1.91,1.57.06,1.37,3.33,0,4.42,1,7"/>
  </g>
  <path class="skinCreaseLine" d="M172.39,193.75c16.64,36.84,18.13,72.3,20.54,79.35"/>
  <g class="skinEdgeLine">
    <path d="M164.41,167a6.91,6.91,0,0,1,3.78,1.05"/>
    <path d="M171.33,169.45a5.62,5.62,0,0,1,3.86,1.38"/>
    <path d="M178,172.21a6.15,6.15,0,0,1,3.36,1"/>
    <path d="M165.2,164.49c2.91-1.59,3.17,1.29,6.85.37,3.84-1,3.39,2.46,6.78,2.18,2.46-.2,3.13,2.05,4.74,3.07"/>
    <path d="M15.39,455.54c9.67,1.5,43-6,46.67-2"/>
    <path d="M226.32,485.55c-1.7,2.67-9.08,4.14-11.21,2.3-3.39-2.93,0-7.3,2.89-11.52,6.47-9.67,5.29-22.2,9-33.19,1-2.85,2.6-3.69,4.61-3"/>
  </g>
</svg>
