<svg id="presence" xmlns="http://www.w3.org/2000/svg" viewBox="0 0 709.35 2293.14">
  <defs>
    <style>
      .cls-1 {
        fill: none;
      }

      .cls-1, .cls-2, .cls-3 {
        stroke: #000;
        stroke-miterlimit: 10;
        stroke-width: 2px;
      }

      .cls-2 {
        fill: #db9855;
      }

      .cls-3 {
        fill: #d4d1c7;
      }
    </style>
  </defs>
  <title>epilogue</title>
  <g id="maraHeelSide">
    <path class="cls-1" d="M308.28,2184.4c-.91,20.81-2.51,46-7.59,52.85a46.24,46.24,0,0,1-29.82,18.24C278.4,2225,290.72,2201.06,308.28,2184.4Z"/>
    <path class="cls-1" d="M402.67,2187.23c-1.06,21.86,1.76,42,4.91,47.5,3.16,4.74,12,15.39,29.14,20.76C434.22,2229.17,420.92,2203.21,402.67,2187.23Z"/>
  </g>
  <g id="maraShoe">
    <path class="cls-1" d="M544.26,2096c16.79,27.95,18.44,78.66,41,94.56,27.1,19.13,35.22,54.31,14.43,70.43-49,38-157.83,28.85-175.72-26.34-7.56-23.33-13.31-24.2-21.27-47.45-8.9-26,2.66-95.8,14.78-98.32Z"/>
    <path class="cls-1" d="M300.33,2082c12.89,24.89,16.4,63.15,7.95,102.43-3.49,16.2-26.56,43.85-34.94,66.27-11.31,30.26-98.71,56.56-146.36,31.39-42.14-22.26-29.21-55.86-6.78-80.6,27.45-30.27,20.16-31.51,42.21-69.89Z"/>
  </g>
  <path id="skinWhite" class="cls-1" d="M609.65,1211.38c2.37,123.34-30.75,297.26-29.27,365.94,1.84,85.75-18.52,279.86-41.59,467.12-3.56,29,19.27,109,29.6,153.81-18.94-4.3-62.85-1.72-82.65,5.17-26.69-37-73.46-92.12-68.29-114.51C458.77,1978.71,388,1762,396.78,1599c2.74-50.75-17.22-223.85-25.83-378.82-13.59,82.53-24.36,244.2-37,373.65-5.47,56,5.26,149.93-7.75,240.21-11,76.66-16.38,159.22-25.85,247.9-7.58,55.1-40.93,86.56-83.19,126-20.44-9.82-67.06-12.17-83.62-9.16,9-17.43,18.66-39.79,30.49-71.51,10-26.77,27.16-51.05,27.82-60.08,12.21-167-43.47-216.69-31.32-467.81,1.76-36.43-41-269.16-39.49-398Z"/>
  <g id="skinCreaseLine">
    <path class="cls-1" d="M532.15,1568.5c-19.71,12-56.62,14.31-76.57,3.56"/>
    <path class="cls-1" d="M265.94,1569.39c-18.91,7.56-51.72,8.15-67.66,0"/>
  </g>
  <g id="maraStrap">
    <path class="cls-1" d="M552.89,2134.83c-2-8.38-4-16.8-5.74-25-22.59-23.18-95.14-15.12-124,3.32a225.12,225.12,0,0,0,15.89,26.67h0C468.56,2123.14,519.47,2118.58,552.89,2134.83Z"/>
    <path class="cls-1" d="M289.81,2120h0c-29.52-22.29-81.86-28.67-114.77-17.2-3.89,7.64-11.14,23.34-12.63,28.81h0c33.9-14.64,78.31-9.14,111.45,16.34A154.27,154.27,0,0,0,289.81,2120Z"/>
  </g>
  <path id="maraDress" class="cls-1" d="M517.81,77.55c-106.9,41.57-201.4,40.71-293.45-4.93-6.08-3.32-59.55,19.89-80.29,30-18.41.85-42.69,281-19.41,374.69C100.89,618.63,78.2,818.11,74.88,958.14c-2.15,90.25-13.33,174.27-10.63,258.67,76.46,42.28,571.4,29.35,599.51-1.29,3-42.6.81-85.94-3.86-130.22-9-84.84-1.92-167.13-12.9-235.94-9.34-58.52-13.7-228.62-56.73-376.47,34.27-83.65,10.26-370.11,3.59-372.42C566.9,90.14,525.93,75.09,517.81,77.55Z"/>
  <path id="clothesDisplayLine" class="cls-1" d="M581,472.24c-42,22-406.73,24.39-450.16,7.33"/>
  <g id="clothesOverlapLine">
    <path class="cls-1" d="M583.76,416.88c-14.92,24-37.43,41-77.48,41.95"/>
    <path class="cls-1" d="M134.52,419.47c14.86,25.83,36.84,39.85,65.62,42.55"/>
  </g>
  <g id="clothesFoldLine">
    <path class="cls-1" d="M154.42,515.36c8.08-18.36,36-14.69,39.66,16.9"/>
    <path class="cls-1" d="M331.45,514.63c15.43-10.29,38.94-3.68,36,22.77"/>
    <path class="cls-1" d="M385.08,538.87c.74-27.92,38.2-36,40.4-10.29"/>
    <path class="cls-1" d="M467.05,921.06c-25.68,121.22-103.75,236.27-226,260.93"/>
    <path class="cls-1" d="M625.48,1227.5c-.23-40.38-.17-84.55-2-124.61"/>
    <path class="cls-1" d="M113.61,1230.62c-3.19-44.39,2.06-107.19,2-172.93"/>
    <path class="cls-1" d="M443,379.52c-49.43,7.56-108.42,8.69-139.78,1.66"/>
    <path class="cls-1" d="M415.39,401.43c-45.13,3.22-86.95,2.61-123.83-3.72"/>
  </g>
  <g id="skinWhite-2" data-name="skinWhite">
    <path class="cls-1" d="M422.51,764.7C500.83,706,530.78,585,582.6,550.48c-8-63.07,2.07-84.67,1.16-133.6,29.94-67.95-23-111.72,9.1-313.41,86.49,28.93,95.95,100.36,98,197.09,2.3,108.26,18.58,123.23,17.42,239.56-.31,32.24-35.7,106-88.68,169.3-49.7,59.43-87.53,64.5-141.81,117.47"/>
    <path class="cls-1" d="M301.48,757.58c-75.56-44.24-115.07-142.13-175.82-204.23-2.39-13.54-1.16-44.28,5.16-73.78,0-16.76-4.15-39.82,3.7-60.1-14.14-42.61,5.87-127,14.82-176.22,3.26-17.92-9-99.4-7.77-136-71.3,20.34-109.14,74.4-111.81,158.64C27.83,326.73,12.69,399,6.89,473.66,1.88,538.18-5,592,10.7,616.6,76.11,719.42,165.76,756.15,248,816.71"/>
    <path class="cls-1" d="M457.65,0c-.61,53.43,8.6,67.46,62,80.9C509,154.24,455.87,190.83,366.82,188.12c-91.87-2.78-142.69-38.4-141.9-112.74,41.14-10.89,44.21-20.1,48.51-71.68"/>
  </g>
  <g id="skinFoldLine">
    <path class="cls-1" d="M582.6,550.48A76.93,76.93,0,0,1,597,543.11"/>
    <path class="cls-1" d="M125.66,553.35c-8-5.14-16-7.62-23.84-6.29"/>
  </g>
  <g id="watch">
    <path id="maraWatchBand" class="cls-2" d="M513.46,803.34c-21.06-22.79-41.93-46.55-62.86-71-4.05-4.48-24.83,14.25-20.78,18.73,20.27,25.17,42,47.89,62.72,70.35C497,826.25,517.75,808.31,513.46,803.34Z"/>
    <circle id="maraWatchFace" class="cls-3" cx="471.53" cy="777.52" r="24.99"/>
  </g>
  <path id="maraNecklace" class="cls-1" d="M472.33,59.94c-24.08,115.88-192.45,112.55-212.16-1.38-.63-3.66-10.84-2.75-9.07,7.26C272.37,186.66,453.25,190,482.37,67.47,485,56.65,473.34,55.08,472.33,59.94Z"/>
</svg>
