<svg class="presence" 
    xmlns="http://www.w3.org/2000/svg" viewBox="0 0 867.67 2791.55">
    <path class="hairRed" d="M329.73,476.62c20.89,52.26,69.7,125.29,153.87,143.32-6.75-9.63-10.57-18.89-11.15-27.73,26.19,15.46,55.84,23.38,93.72,13.39a35.71,35.71,0,0,1-10.83-13.74c29.49,6,66.14-9.24,74.26-35.68C534.9,569.73,660.71,466.21,329.73,476.62Z"/>
    <g class="skinAshkenazi">
        <path d="M189.42,1502.16c-2.51,8.24-33.06,34.16-59.5,31.41-11,3.85-14.88,16-28.65,18.73C80.33,1437.7,180.05,1416.21,189.42,1502.16Z"/>
        <path d="M218.4,378.4c55.1,109.45,109.72,207.33,64.61,255C370,607,371.69,713.18,470,701c66.35-8.21,91.43-53.43,113.15-102.9-62.69-17.68-120-33.32-103.64-139"/>
    </g>
    <path class="clothingGold" d="M312.7,600.87c48.33-5.71,93.93,47.6,130,59.4,42.3,13.83,97.37-21.49,66.53-92-1.91-4.35,10.87-3.95,14.55,9.12,25.37,90.27-54.56,104.64-83.41,94.63C397.5,657.2,349.26,602,303.63,614.15,298.39,615.55,298.41,602.56,312.7,600.87Z"/>
    <g class="bottle">
        <path class="labelReverse" d="M165.74,1831.74c1.72-5.6-19.34-12.74-44.43-16l16.92-160.3c25.85,1.93,45,7.5,44.84,11.79Z"/>
        <ellipse class="bottleBottom" cx="105.34" cy="1855.03" rx="10.13" ry="49.78" transform="translate(-1750.5 1765.06) rotate(-83.97)"/>
        <path class="beerSide" d="M179.08,1647.42H179c-.77,5-24.57,9-53.84,9-29.75,0-53.87-4.16-53.87-9.29h0a48.72,48.72,0,0,0-3.5,13.89L49.2,1836.85c-1,10.15,2.63,15.07,10,17.64a184.16,184.16,0,0,0,91.4,9.65c7.47-1.3,12.31-5,13.46-15.17l18.55-175.79C183.63,1664.75,182,1656,179.08,1647.42Z"/>
        <ellipse class="beerTop" cx="125.12" cy="1647.17" rx="53.87" ry="9.29"/>
        <path class="bottleSide" d="M126.29,1461.31c-6.44-.16-8.22,2.83-9,11.11-.73,7-1.64,10.7,3.36,12.93q-8,53.1-19.34,104.6c-2.72,14.38-7.9,23.75-15.37,33.34-9,11.21-17,24.23-18.21,37.77L49.2,1836.85c-1,10.15,2.63,15.07,10,17.64a184.16,184.16,0,0,0,91.4,9.65c7.47-1.3,12.31-5,13.46-15.17l18.55-175.79c1.65-13.49-3.48-27.9-9.92-40.74-5.3-10.93-8.41-21.18-8.07-35.81-.32-35.14.72-70.6,2.93-106.33,5.36-1.14,5.24-5,6-11.94,1-8.26-.13-11.56-6.46-12.75A148.87,148.87,0,0,0,126.29,1461.31Z"/>
        <path class="bottleCreaseLine" d="M167.54,1490.3a166.31,166.31,0,0,1-46.87-5"/>
        <path class="bottleOverlapLine" d="M164.75,1469a186.57,186.57,0,0,1-36.83-3.88"/>
        <g class="labelSecondary">
            <path d="M140.53,1519.29c-2.46-2.38-14.69-5.36-24.25-6.24q-4.07,24.3-8.89,48.26a14.85,14.85,0,0,0,7,3.3c8,1.28,17.38-3.56,22.09-7.38C140.91,1553.26,144.54,1523.63,140.53,1519.29Z"/>
            <path d="M183.07,1667.2c-.09,2-4.19,3.63-13.48,4.59l-17.47,165.5c8.78-1.4,12.94-3.36,13.62-5.55Z"/>
        </g>
        <path class="labelMain" d="M69.2,1653.22a45.05,45.05,0,0,0-1.45,7.84L50.06,1828.65c37.28,2.69,57.69-34.41,62.73-82.12C117.8,1699.09,105.47,1658.72,69.2,1653.22Z"/>
    </g>
    <path class="soleTan" d="M529.82,2647.21c1.48,29.24,8.18,65.38,18.72,75.3,10.28,9.66,48.6,12.84,73.89,10.86C606.44,2703.12,566.45,2671.93,529.82,2647.21Z"/>
    <g class="maraShoe">
        <path d="M748.4,2671.83c37.31,13.93,62.28,50.67,39,79.3-19.55,24-119,34.08-162.34-14.88-36.41-41.12-81.93-48.4-95.22-89-10.81-33.08-2.23-94.42,14.6-116.37Z"/>
        <path d="M477.63,2535.56c14.67,40.78,15.78,124.58,38.11,188.87,19.19,55.24-46.33,71.86-113.86,64.45-51.83-5.68-64.77-36.06-56.87-77.42,7.57-39.61-1.22-122.91,21.09-175.9Z"/>
    </g>
    <path class="maraDress" d="M822.08,1529.46c-15.1-91.2-19.39-176.6-43.56-279.1-26-110.49-39.47-212.51-71.07-292.29,103.15-162.92-16.94-179.36-58-236.9-18.27-25.58-51.77-51.88-92.74-72.92-18.6,27-44.17,47.52-86.7,52.78-98.3,12.15-100-94-187-67.59-10,1.38-37.33,23.52-51.57,39.35C192.83,707,268.13,881.57,311.68,1017c-17.36,104.13-14.59,213.46-20.42,257.25-9.75,73.2-5.88,151.42-10.21,191.91-11.23,105.15-8.22,196.8-7.14,261.33,0,16.33,49.74,9.53,71.18,16.82,67.65,23,220.45,22.77,293-8.16,13.49-5.76,101.35-1.51,128.09-36.22,37.23-6.21,69.21-12.25,69.36-26.29C833.69,1624.26,829,1571.23,822.08,1529.46Z"/>
    <path class="clothesDisplayLine" d="M707.45,958.07c-55,50.62-305.82,97.64-395.77,58.94"/>
    <g class="clothesOverlapLine">
        <path d="M514,985.12c-36.78,20.57-104.1,24.93-140.87-3.74"/>
        <path d="M712.2,921.82c-6.67,7-13.81,9.08-19.2,10.92"/>
    </g>
    <g class="clothesFoldLine">
        <path d="M563.14,1266.92c19.33,148.71,69.08,257.82,162.83,264"/>
        <path d="M766.14,1699.94c-.76-23.33,1.53-44.8,0-69.43"/>
        <path d="M638.05,1736.16c4-13.91-.56-34.27,0-52.11"/>
        <path d="M345.09,1744.32c-2.79-33.51-.55-62.5-17.66-98.19"/>
        <path d="M679.13,1010.4c1.48-29,25.28-10.41,29.74,16.36"/>
        <path d="M660.54,1007.43c6.06,11.48,9.31,21.55,8.92,31.23"/>
        <path d="M549,1052.78c.74-26,20.82-24.53,32.71-3"/>
        <path d="M349,1071.37c-1.49-24.54-17.85-30.48-22.31-1.49"/>
        <path d="M372.05,1049.81c1.74,14.18,2.87,26.1,3,34.2"/>
        <path d="M661.07,859.83c-46.57,18.92-92.22,32.11-136.5,36.77"/>
        <path d="M644.87,884.76a460.23,460.23,0,0,1-118.43,31.17"/>
    </g>
    <g class="eye">
        <path class="sclera" d="M601.48,266.62S348.27,370.37,341,338.17c-9.21-41,244.52-113,244.52-113C594.35,231.23,601.93,252.86,601.48,266.62Z"/>
        <g class="irisGreen">
            <ellipse cx="470.31" cy="288.19" rx="17.08" ry="22.05" transform="translate(-77.49 223.7) rotate(-24.78)"/>
            <ellipse cx="585.45" cy="247.15" rx="12.92" ry="22.05" transform="translate(-49.68 268.18) rotate(-24.78)"/>
        </g>
        <g class="pupil">
            <ellipse cx="473.24" cy="286.84" rx="6.64" ry="8.58" transform="translate(-76.66 224.8) rotate(-24.78)"/>
            <ellipse cx="588.56" cy="245.71" rx="5.02" ry="8.58" transform="translate(-48.79 269.35) rotate(-24.78)"/>
        </g>
    </g>
    <g class="skinAshkenazi">
        <path d="M43.39,1585.38c-6.92-15.13.25-34.13,4.76-50.15,6-21.16,4.32-45.83,34.59-57.94,25.5-13,57.31-30,61.42-50.43,12.26-86.72-5.5-186.84,39.53-313.66,14.47-40.74,5.15-97.31,7.6-160.48,4.46-115-18.85-226.23,43.69-278.73,65.66-26.68,131.64,63.82,93.93,161.85-5.7,183.14-17.36,233.7-16.92,293,.83,113.36-78,196.77-102,315.15-5,19.83,25.28,41.15-8.43,102.62-5.31,9.69-3,22.17-7.93,27.76-10.91,12.4-14.38,25.78-22.31,27.76-26.23,2.53-22.58-35.72-6.24-57q.74-27.27,2.45-54.78c5.36-1.14,5.24-5,6-11.94,1-8.26-.13-11.56-6.46-12.75a148.87,148.87,0,0,0-40.77-4.3c-6.44-.16-8.22,2.83-9,11.11-.73,7-1.64,10.7,3.36,12.93q-3.53,23.54-7.7,46.77c7.15,8.05,11.27,19.1,13.43,30.34,14.27,13.41,18.16,50.59-8.64,48.86-6.49-.86-4.76-12.54-16-24.21,9.08,18.16,9.08,46.69-12.54,46.69-4.19,0-8.52-2.47-9.08-6.92C70.2,1631.64,56.79,1605.27,43.39,1585.38Z"/>
        <path d="M739.78,680.25C785.54,789.74,886.09,856,863.38,953.66c-6.58,28.29-1,53.87-54.62,50.91-31.12-1.73-68-19.42-99.89-49.61-4.57-47.88,6.19-19.55,13.76-54.78C714.54,855.55,715.3,771,676.82,724c-36.33,5.67-59.66.23-86.38-20.75-12.84,1.36-29-9.29-41.36.3-16.43,23.28-47.47,13.69-34.16-8.93-2.72-6.09-4.32-13.69-3.6-25.17-14.05,5.43-25.5-13.12-14.44-18.25,8.34-5.66,13.81-16.58,25.23-24.9-18.13-4.31-24.84-22.87-9.84-29.18,13.27.76,24.87-4.35,43.43-3.56,26,1.11,32.52-3.52,74.89-7.7C664.25,578.58,730,647.89,739.78,680.25Z"/>
        <path d="M649.41,2523.84c-1.78-121,46.86-313,40.42-426.83-1.71-30.27,9.06-66.92,13.13-105.06,7.76-72.72,39.32-180.81,51.49-281.35-34.6,23.18-104.49,20.47-116.4,25.56-15.16,6.46-33.83,11.58-54.49,15.43-31.26,68.73-57.17,176-77.14,326.29,4.31,157.37,33,302.18,39,391,1.2,17.59-7.14,40.34-1,62,14,47,64.86,112.13,109,151,24-13,66-18,95-10C702.41,2633.84,649.91,2557.85,649.41,2523.84Z"/>
        <path d="M372.78,1751.56c25.17,121.24,50.6,260.82,36.33,311-49.33,173.63-36.19,306.84-34.53,373.9.81,32.63-14.13,77.49-8.48,99.06,3.91,13.48-10.75,79.35,14.36,163.36,18.08-11.09,75.84-9.55,97.75,0,18.83-80.41-9.91-193.36-3-217,23.91-124.44,117.4-339.37,124.3-475.51,3.41-67.17,20.58-155.15,20-263.48C552.11,1763.85,441.46,1765.45,372.78,1751.56Z"/>
        <path d="M329.73,476.62C322,492,294.49,492.57,284,479.26,212.62,161.8,349.65,31.46,576.76,175.2c11.47,9.81,7.43,18.8,12.81,29.1,3.95,7.55,20.28,22.25,6,35.31a57.24,57.24,0,0,0-3.06-6.12c-19.62.16-37.81,14.86-38.72,32.3-.23,4,3.79.54,5.65.72,15.42,1.41,29.27-2,40.57-13.08-.48-2.11-1-4.31-1.74-6.54,16.86,5.47,8.62,20.4,13.09,26.07,65.1,98.53,13.8,167.46,20.51,204.25,5.48,44-23.56,69.94-68,70.53-59.19.79-126.85,5.3-183.93-27.56m110.65-236c-13.16-8.45-25.6-11.69-39.76-5.81-16.35,6.79-22.39,15.4-32.26,32.95,22.93,1.2,44.61,0,69.18-20.94C489,289.38,496.57,287.94,490.67,284.14Z"/>
    </g>
    <g class="skinOverlapLine">
        <path d="M522.11,626.32c32.8-20.89,35.17-16.55,78.19-21.68"/>
        <path d="M511.32,669.47c1.74-9.57,11.45-16.06,19.26-22.37,17.62-14.22,28.67-12.46,53.54-15.62"/>
        <path d="M514.92,694.64c18.28-9.87,15.91-26,64.86-31.58"/>
        <path d="M79.71,1525.28c2.59,37.62,9.08,37.18,22.05,61.83"/>
        <path d="M63.71,1527.44c-12.1,52.32,3,54,16.43,99.44"/>
    </g>
    <g class="skinFoldLine">
        <path d="M722.63,900.18c5.64,29.36,15.78,52.43,33.71,64.67"/>
        <path d="M288.71,1136.08c-20.53-8.85-40.68-16-59.89-19.19"/>
        <path d="M284.21,418.38c13.53,9.3,24.35,32.82,6.66,24.45"/>
    </g>
    <g class="skinCreaseLine">
        <path d="M541,2085.69a81.52,81.52,0,0,1-54.63-7.9"/>
        <path d="M673.29,2077.79c-13.16,7.24-36.85,7.24-53.73,0"/>
    </g>
    <g class="maraStrap">
        <path d="M670.79,2579h0c-28.87-6.81-68.55,1.61-91.94,18.14,5.25,7.63,10.85,15.25,16.71,22.73,19.9-15.21,62.39-24.83,89.92-18.2h0C680.15,2594,675.2,2586.38,670.79,2579Z"/>
        <path d="M484.64,2625c-.15-9-.55-18-1.11-26.84-27.61-14.43-92.14-12.83-118.18-3.21h0c.06,8.19.36,17,1,26.47C397.4,2609.82,453.86,2608.62,484.64,2625Z"/>
    </g>
    <g class="watch">
        <path class="maraWatchBand" d="M746.46,692.87c-20.87,15.24-36.55,25-65.19,39.36-5.57,2,6.69,27.1,13.24,25,23.07-10.64,52.64-28.85,65.56-40.3C765.54,711.93,752.17,689.64,746.46,692.87Z"/>
        <path class="watchSide" d="M747.14,738.81c-8.42,4.63-20.63-1.43-27.27-13.52s-5.21-25.65,3.21-30.27l5.7-3.13,24.06,43.8Z"/>
        <ellipse class="watchFace" cx="740.81" cy="713.79" rx="17.39" ry="24.99" transform="translate(-252.15 444.87) rotate(-28.78)"/>
    </g>
    <g class="head49__edited">
        <path class="lipFemaleMedium__noStroke" d="M600.75,428c31.89,27.08-6,57.78-49.51,47.76-25.31-8.82-29.69-25.92-41.75-36.66a26.43,26.43,0,0,0,4.34-2Z"/>
        <path class="lipFemaleMedium" d="M500.84,441.56c5.2-1.17,9.84-2.53,13-4.43,32.13-1.9,63.85-4.89,85.87-33.48,7.53-3.52,14.73-9.52,10.15-16-8.32.73-13.81,6.06-16.71,15.63C564.89,388,539.7,417.81,500.84,441.56Z"/>
        <g class="lipOverlapLine">
            <path d="M603.45,378.81c2.24,3.95,5.67,6,6.4,8.85"/>
            <path d="M615,409.94c-6.2,3.71-12.07,4-14.3-1.07"/>
        </g>
        <path class="lipEdgeLine" d="M610.68,440.47c10.33,23-22.52,43.83-59.44,35.33"/>
        <path class="mouthInner" d="M599.7,403.65c13.66,59.18-48.23,57-85.87,33.48C548.06,408.35,574.62,416.56,599.7,403.65Z"/>
        <path class="tongue" d="M513.83,437.13c17.34-14.58,32.71-19.66,46.92-22.81,14.14,6.16,27.74,15.5,33.71,26.91C578.68,459.65,540.27,453.66,513.83,437.13Z"/>
        <g class="teeth">
            <path d="M590.66,425.13a111.81,111.81,0,0,1-3.4-16.59,69.76,69.76,0,0,0,12.44-4.89,65.32,65.32,0,0,1,1.87,18C598.5,423.23,592.89,425.26,590.66,425.13Z"/>
            <path d="M580.91,410.19c1.47,7.47,2.81,14.25,1.72,17.35-10.54,7.07-43.48,11.63-59.94,2.82C544.65,415.21,563.45,414.23,580.91,410.19Z"/>
        </g>
        <g class="cheekLine">
            <path d="M490.42,411.86c26.54-29.89,22.2-48.59,29.9-54"/>
            <path d="M611.33,370.8a62.93,62.93,0,0,0-9.91-10.71"/>
        </g>
        <g class="noseLine">
            <path d="M520.32,357.86c-6.81,7.56-1.11,22.76,11.42,26.88"/>
            <path d="M563,298.36c20.54,24.62,57.81,48.84,32.55,67.72-16.35,12.22-41-2.7-50.51,12.39"/>
        </g>
        <g class="eyeFoldLine">
            <path d="M605.38,268.06c-2.16,7.28-11.49,13.26-26,13.15"/>
            <path d="M487,307.68c-10.15,14.7-26.86,22.08-45.76,18.56"/>
        </g>
        <g class="eyeCornerLine">
            <path d="M408.67,317.85a29.05,29.05,0,0,0,10-6.57"/>
            <path d="M600.05,253.43a15.89,15.89,0,0,0,2.49-3.17"/>
            <path d="M592.55,233.49a21.88,21.88,0,0,1,4.39.5"/>
        </g>
        <g class="eyeCreaseLine">
            <path d="M483.88,270.86c-15.85-10.67-42.77-9.54-62.62,21.83"/>
            <path d="M599.23,221.16c-9.41-1.07-28.6,1.47-40.86,14.84"/>
        </g>
        <g class="eyebrowRed">
            <path d="M488.33,218.74c0,20.12-27.84,22.24-51.91,28.29C394,257.7,391.37,289.9,384.59,285.37,395.81,220.55,465.2,226.57,488.33,218.74Z"/>
            <path d="M587.59,199.39c-19.71,7.78-36.39,21.07-47,3.55,16.18-3.77,23-13,43.52-17.7C586,189.89,586.13,194.53,587.59,199.39Z"/>
        </g>
        <path class="hairRed" d="M2.1,577c27.54,31.79,70.7,1.69,67.73-27.17C65.21,505,17.31,471.16,51.43,330.32c15-61.72,6.5-111.86,52.51-198.14C170.14,8,442.9-52.31,501.44,61.11l26.17,19.43C556.42,86.72,605.27,151,594,166.18c-57.78,77.68-224.33,12.46-298.17,37.49,55,100.85-14.71,100.35,34.42,196.89-23.38-5.92-43.07-22.66-62-47.25,20,101.68,85.67,231.25,13.22,280.92-15.39,37.92-70.4,71.58-112,64.76,7.29-4,13.35-8.36,16-13.43-61.43,14.51-106.81-9-120.61-51.65C27.46,626.91,9.81,605.57,2.1,577Z"/>
        <path class="maraHeadband" d="M527.61,80.54C393.85,86.66,295.12,171.26,261,267.85,239.2,134,358.48,9.69,485.82,53.91,509.15,62.38,519.91,73.39,527.61,80.54Z"/>
        <g class="hairOverlapLine">
            <path d="M261,267.85c5.67,40.52.19,57.58,7.3,85.46"/>
            <path d="M282,608.59c-4.42,14.66-14.6,27.58-27.41,39.69,9.63-3.53,18.91-7.46,26.94-14"/>
        </g>
    </g>
</svg>
