<svg viewBox="0 0 1251.43 2902.94">
    <g class="sari">
        <path d="M180.5,1275.78c-115.3,158.36-93.78,347.46,33.82,547.32,2.09,46.13,24.6,103,43.05,147.59-16.76,46.26-16.91,155.28-32.28,186-81.49,116.84-55.35,152.2-159.89,216.77,73.79,455.07,1382.12,89.17,1106.93-261.36-56.89-38.43-121-46.66-146.06-73.79-56.88-61.5-143-112.24-159.89-138.37-72.27-111.69-158-203.94-182.95-247.52-24.6-43-41-141.86-43.05-219.85C481.89,1450.71,327.47,1415,180.5,1275.78Z"/>
        <path d="M855.9,884.1c6.66-24.24-10.79-31.85-12.61-43.06-7.13-84.13-67-96.84-137.56-137.39L541.59,668.26c-49.42-15.87-91.53-53.09-162.92-42.11-10.65-11.53-18.91-3-25-1.83-10.16-15.64-24.93-5-32.34-5.49-4.73-.29-17.3-3.63-35.92-9.46-14.49,29.28-34.29,107.46-36,145,44.56,20.94,91.06,42,86.58,75.59-11.49,86.17-24.32,170.55-41.17,221.39,51.91,62,331.2,121.32,406,109.46,5.16-12,10.88-24.36,14.82-38.52,46.31-16.37,62.13-63.51,65.94-107.95,21.82,2.95,95-31.83,99.68-44.61C875.24,941.8,866.51,913.18,855.9,884.1Z"/>
    </g>
    <g class="sariTrim">
        <path d="M1172.13,2112.13c23.43,14,51.15,27.37,77.12,29.24,10.11,55.12-49,96.71-26.54,111.31-26.15,45.3-27.83,104.74-80.16,115.14-78.88,27.73-95.14,102.86-120.47,110.32-103.63,1-132.79,82.82-185.15,92.57-122-1.34-149.5,86.13-215.11,73.8-123.43-23.21-172.12,22.14-227.6-8-90.18-49-126.72-28.21-150-54.23C185.58,2516.66,78.49,2501,71.41,2489c-28.56-19.76-43.54-53.06-63.65-77.67l57.44-37.85c26.77,16.68,36.34,49.14,57.1,56.83l6-7.68c125.56,44.85,141.89,86.24,169.38,100.46,52.41,5.46,102.15,20.73,148.71,47.61,43.48-3,123.15-20.07,177.42,0,51.45-28.26,118.67-75.17,169.26-73.12l7.19,12.29c28.37-8.2,100.63-98.13,160.59-94.91l6.28,5.52c40.92-49.6,79.38-90.25,110.28-103.34,42.42-19.31,51.16-75.61,82.44-110.45l-22-17.45C1155.72,2174,1170.33,2139.62,1172.13,2112.13Z"/>
        <path d="M259.41,600.91c-17.25-3.22-46.15,131.19-37,140.35,8.6,4.43,17.74,8.76,27,13.1,1.72-37.53,21.52-115.71,36-145C277.71,607,269,604.13,259.41,600.91Z"/>
        <path d="M294.79,1051.34a203.52,203.52,0,0,1-8.87,22.69c36.06,61.3,355.3,128.34,405.78,111.66a181.77,181.77,0,0,1,9.08-24.89C626,1172.66,346.7,1113.32,294.79,1051.34Z"/>
        <path d="M881.22,969.72c-2.31-10.82-5.05-21.74-8.14-32.75-25.65,22.95-64,41.41-93.81,43.54,2.13,9.23,2.84,21.3,2.27,33.82C803.36,1017.28,876.58,982.5,881.22,969.72Z"/>
    </g>
    <g class="clothesOverlapLine">
        <path d="M777.32,903c-8.18,30.89-1.37,52.69,1.95,77.51"/>
        <path d="M715.6,1122.28c-15.5,4.19-32.76,6-48.2,3.74"/>
        <path d="M357.16,1007.92c18.63,50.42,85.85,88.58,142.17,73.13"/>
    </g>
    <g class="clothesFoldLine">
        <path d="M205.4,1355.15c-17.23,39.74-30.44,78.76-36.62,116.51"/>
        <path d="M229.7,1448.61c-14.57,58.48-22.33,115.28-17.67,169.05"/>
        <path d="M214.32,1823.1c.78-25-10.75-51.77-14.59-89.42"/>
        <path d="M259.67,1893.51c9.95,21.1.76,53.79-2.3,77.18"/>
        <path d="M317.3,1636.87c-5.53,48.05,14.76,117.58,11.52,148.3-5.11,48.43,13.74,98.86,5.38,138.31-24.59,116-2.55,161.44-24.59,193.63-24.44,35.7-53.77,125.26-66.08,137.54-26.85,26.79-56.06,99.67-65.31,109.11C139.8,2403,111.37,2449.82,71.41,2489"/>
        <path d="M486.93,1634.84c58.26,100.26,107.07,207,134.42,328.44"/>
        <path d="M674.61,1784.48c35.51,57.06,56,118,82.43,143.3"/>
        <path d="M400.7,2035.57c-15.67,46.94-4.49,153-15.22,172.46-51.56,93.33-30.82,168.53-39.31,194-13.95,41.85-46.92,107.79-57.07,148.37"/>
        <path d="M436.2,1897.34c3,61.18,38.05,114.13,33,163.59-6.16,60.14,11.93,76.82-1.26,156-15.22,91.3,1.62,140.43-8.88,195.29-11.41,59.6-3.8,107.79-15.22,176.27"/>
        <path d="M551.6,2260c31.71,63.41,29.78,132.57,33,158.52,4.19,34,30.44,107.79,44.39,175"/>
        <path d="M541.46,1979.77C582,2052.05,577,2119.26,607.4,2153.5c47.22,53.12,93.84,125.55,128.08,228.26,15.43,46.29,58.58,118.87,101.45,188.95"/>
        <path d="M650.71,2014c45.46,48.19,46.78,92.25,75.89,124.28,50.73,55.79,50.35,85.41,78.63,109.05,77.35,64.68,84.09,93,102.71,114.13,57.93,65.7,59.61,50.73,114.14,116.67"/>
        <path d="M760.84,1996.26c38,35.5,67,101,97.65,120.47,65.94,41.85,81.16,82.23,121.74,107.59,43.76,27.35,104,114.33,162.32,143.5"/>
        <path d="M814.75,1951.1c42.49,21.37,103.36,99.75,141.54,113.79,62.9,23.12,108.14,79.64,133.21,92.5,46.92,24.08,89.73,70.31,133.21,95.29"/>
        <path d="M675.51,1024.8c-54.42-10.66-106.42-22.15-155-34.84"/>
        <path d="M633.91,1000.36q-55-12.3-106.6-26.52"/>
        <path d="M783.16,861.51c-.69,17.14-4.16,30.68-5.84,41.49,7.23-5.69,12.45-17.31,16.24-33.17"/>
        <path d="M848.28,863.79c-2.81,14.23-8.43,27.67-19.76,39.52"/>
        <path d="M855.9,884.1c-3.06,15.37-11.38,37.22-23.34,53.86"/>
        <path d="M469.07,796c11.55,33.17,25.13,63.32,42.12,88.4"/>
        <path d="M433.18,736.19C447,780.66,462,821.47,479.47,855.79"/>
        <path d="M291.74,657.66c11.06,35.08,23.91,67.7,39,97.25"/>
        <path d="M322.42,700.31c7.47,25.65,17.95,52.72,30.16,80.6"/>
        <path d="M358.82,674.31C364.54,718.51,376,746.07,376.5,797"/>
        <path d="M353.65,624.32c14.53,24,24.84,72.4,29.61,117.07"/>
        <path d="M378.67,626.15c5.5,9.22,9.32,21.75,10.83,38.79"/>
    </g>
    <g class="clothingGold">
        <path d="M193.87,1242.74c49.44,108.62,367.78,199.25,449.42,159.55,11.24,38.2,2.25,77.9-17.23,47.94-6.74,27.71-37.45,43.44-55.42,19.47-3,24-43.45,39-62.92,14.24-10.49,33.7-80.9,39.69-79.4-13.49-19.48,27.72-79.4,11.24-68.91-34.45-25.47,15-75.66,7.49-65.17-40.45-21.72,23.22-71.16.75-53.18-39.7-25.47,14.23-65.17-8.24-45.69-45.69C152.67,1311.66,168.4,1271.21,193.87,1242.74Z"/>
        <path d="M671,838.18c5.7,74-111,72.72-102.45-12.66-126.93-76.13-53-198.86,60.9-175.74C778,680,753.55,831.92,671,838.18Z"/>
    </g>
    <g class="skinAshkenazi">
        <path d="M641,1403.34c26.48-82.19,23.75-153.79,47.14-216.71-59.16,12.66-355.6-50.19-399.95-109.25-24.11,63.37-64.72,101.1-92.91,168.29C248.52,1352,556.63,1440,641,1403.34Z"/>
        <path d="M699.85,626.6l4,92c47.2,100-185.58,107.19-170.39-39.2l12-76"/>
        <path d="M126.71,279.65C75.53,400.22-17.46,522.39,4.22,616.94c10.16,44.27,125.82,82.85,217,121.67-4.43-19.29,17.8-122.18,34.08-136.17C175,573.11,141.69,571.36,139.93,567.13c25.2-77.27,13.32-154.26,65.93-285.12,39.08-51.17,6.93-100,4-131-2.64-27.65-12.29-52.54-30-53.41-36.74-.13-1.63,49.9-7.09,75.19-36.21-15.23-36.21-42.41-75.73-60-6.62-18.53-11.31-43.1-11-64.06C91.19,20.25,74.6-9.8,53.48,4.83c-4.83,3.07.56,11.85,0,19.08-9.29-5.16-17-8.11-26.21-1.53-7.9,6.14,2.51,14.48,6.31,25.75C18.05,37.3.49,43.89,1.5,57.58.93,66.27,19.37,73.41,31,88.7c9.72,49.54,26.85,71.45,43.63,104.4C90.3,223.81,90.9,246.2,126.71,279.65Z"/>
        <path d="M466.12,1174.49c-34.56,34.76,5.73,48,18.67,66.58,17.44,24.42,31,37.89,57.5,38.84,14.12.5,24.21,13.11,58,9.08,77.72-21.1,262.09,0,318.76-89.47,14.86-28.44-13.66-136.71-40.53-226-14.29,14.76-77.06,43.51-97,40.82-2.14,25-8.11,50.94-21.19,71.7A319.5,319.5,0,0,0,778,1135.18c-37.74,26.09-76.83,77.14-151,74.11,1.86-18.57-5.91-34.51-7.06-51.45s4.27-35,3-49.43c-3-34.8-15.63-37.32-18.16-57.5-2.52-10.09-24.21-6.05-24.21,19.17-11.1-24.21-5.55-50.44-21.18-60-22.7-6-25.22,23.21-13.62,50.44-1.59,8,.15,16.8,2.52,25.73-10.59-44.89-22.19-38.34-33.29-70.11-15.64-18.16-39.34,19.16-8.58,44.38,5,26.74,13.12,39.35,11.61,70.12-17.07-22.73-43.38-29.76-51-14.63C452.8,1144.64,470.16,1152.29,466.12,1174.49Z"/>
        <path d="M671,838.18c5.7,74-111,72.72-102.45-12.66-27.26-16.35-45.25-34.85-55.57-53.6,8.33,65.47,38.06,132.37,85.72,178.22,65.73-21.91,119.18-85,131.44-157.39C719.88,817.56,698.72,836.08,671,838.18Z"/>
        <path d="M626.67,2791.67c-21.39-42.65-47.17-67.79-50.21-91.82-2.77-21.91-11.51-41.19-16.76-62.12-43.6-1.13-75.5,5.91-102.81,8.55-2.09,21.5-6.22,41.57-13.77,59.82-47.1,113.84,36.6,105.31,58.58,166.13,9,24.81,38.68,36.82,67.23,25.32,7.31,5.45,28.81,4.34,35.86-1.59,10,2.59,28.29-.86,33.11-10.13,8.72-1.11,15.6-7.14,20.4-16.57,10-6.44,12.19-13.87,8.58-28C661.52,2828.39,647.54,2833.27,626.67,2791.67Z"/>
        <path d="M281.2,2598.5c-16.18-2.89-27.65-5.8-37-16.23-26.51-29.66-62.91-49.11-95.51-62.64-15,14.7-25.82,31.53-26.31,53.67-.88,39.15-12.49,65.71-13.48,82.92-1.11,19.21-4.93,23.08-7.92,36.31-4.4,19.51,8.81,28.94,19.93,25.28-6.4,13.1,6.5,27.26,19.08,22.85-1.89,13.22,13.22,21.4,24.23,17.94,1.88,12.89,23.28,19.5,33.94,6,5.39,12.45,16.12,18,32.53,16.26,30.53-3.32,34.92-25.14,27.28-49.84C247.67,2697.55,267.66,2651,281.2,2598.5Z"/>
    </g>
    <g class="skinDisplayLine">
        <path d="M575.5,2864.07c-15.53-2.21-24.75,3.33-34.6,5.48"/>
        <path d="M603,2877.24c-5.07,1.35-12.2,1.83-16.91,2.46"/>
        <path d="M631.33,2871.4c-5.58,1.62-8.87,2.94-15.76,4"/>
        <path d="M249.33,2757a123,123,0,0,1-37.52-8"/>
        <path d="M194.27,2753.91c-4-3-9.06-4.61-15.07-5.23"/>
        <path d="M153.37,2735.45a23.51,23.51,0,0,1,11.69,6.46"/>
        <path d="M131.53,2717.92a28.66,28.66,0,0,1,11.69,7.38"/>
        <path d="M523.27,1281.08c.47,33.36-28.47,25.2-8.14-.57"/>
    </g>
    <g class="skinOverlapLine">
        <path d="M640,2834.77c9.06,14.45,19.23,16.82,18.28,34.49"/>
        <path d="M618.51,2841.45c6,11.56,23.47,11.08,19.39,44.38"/>
        <path d="M584.39,2846.64c8.65,1.34,18.77,6.05,20,14.49,3.23,11.5,11.27,25.8.37,34.83"/>
        <path d="M554,2841.82a56.41,56.41,0,0,0,21.51,22.25c9.39,8.87,6.92,28.24-6.57,33.48"/>
        <path d="M120.94,2717.81c8-5.72,12.61-14.81,14.78-26.33"/>
        <path d="M140,2740.66c10.24-7,12.39-24.3,18.69-36.27"/>
        <path d="M164.25,2758.6c4.24-9.86,15.92-22.41,16.24-40"/>
        <path d="M198.19,2764.56c9.69-12.94,9.06-27.42,11.89-41.28"/>
        <path d="M606.24,915c.2,13.57-2,25.48-7.53,35.16"/>
        <path d="M31,88.7c1.15-8.41-2.91-17.64-.28-24.62C50.29,51.69,65.07,76,64.11,100.79a173.65,173.65,0,0,0,25.27,45.29"/>
        <path d="M53.48,23.91c10.74,10.44,16,21.27,14.92,32.55,8.11,31.46,8.58,51,28.13,83.89"/>
        <path d="M97.05,112.78c1.74,7.83,4.12,15.18,8.06,21.38"/>
        <path d="M33.58,48.13c3,5.71,4.33,9.1,5.09,12.8"/>
        <path d="M580.62,1070.08c.06,11,2.69,15.26,6,21.18,6.24,20.71-1.32,34.85-5.26,56.87"/>
        <path d="M548.34,1086.22c2.09,18.19,6.37,31,.12,51.72"/>
        <path d="M466.12,1174.49c12-8,15.42-20.89,23.16-21.75,12.44-1.4,17.45,20.38,6.93,37.48,5.92,8.46,6.44,20.62,3,35.5"/>
        <path d="M496.63,1135.57c.9,6.42.15,14.38-2.53,18"/>
    </g>
    <g class="skinFoldLine">
        <path d="M778,1135.18c18.55-11.3,51.65-10.1,74,3.27"/>
        <path d="M172.78,172.75c6.67,3.05,14.81,5.81,19.86,10.69"/>
        <path d="M482.45,1203.86c5.33-2.19,9.84-7,13.76-13.64"/>
        <path d="M600.29,1289c16.64-7.39,26.86-33.49,25.91-53.31"/>
    </g>
    <g class="skinCreaseLine">
        <path d="M110.66,152.73c18.69,11.6,25.13,46.4,16.75,65.73"/>
        <path d="M142.23,173.35c-1.93,22.56,21.27,57.36,28.36,86.35"/>
        <path d="M534.81,1157.1c4.56,22.85,27.38,39.73,59.16,45.91"/>
        <path d="M501.85,1168.27c4.14,8.33,49.68,11.43,61.22,81.1"/>
    </g>
    <g class="head49">
        <path class="hairRed" d="M948.45,604.54c-38.74,32.48-77.76,20.38-58.69-49.88,49.66-183-34.48-218.4-74.42-327.08C770.58,105.79,652,59.83,532.2,76.75,417.61,92.94,306.69,174.62,300.5,326.06c-4,98.54-43.92,179.78-4.17,257.09,39,75.89,6.51,106.2-31.32,85.13-4.18,39.05,43.67,53.5,78.2,28.69-2,8.15-7,14.16-14.85,18.19,30.87,12.3,59.35,11.32,84.42-8.66,74,25.62,73.13-62.45,226.15-61,11.75,56,53.35,87.9,100.64,70,32.69,17.29,67.07,22.3,101.34,3.65-13.27-3.62-20-9.86-24.37-18.54,37,8,77.13-12.81,82.89-42C934.75,657.87,953,631.86,948.45,604.54Z"/>
        <path class="maraHeadband" d="M339.29,283.32c3.7-23.77,19.32-62.76,34.41-75.84,56.11-48.62,185.43-57.49,251.65-11.56,19.61,13.6,30.37,50.7,35.3,87.2C569.46,219.65,432.66,218.88,339.29,283.32Z"/>
        <g class="hairOverlapLine">
            <path d="M660.65,283.12c4.35,27.73,2.23,58.89,1.82,90.27"/>
            <path d="M339.29,283.32c-12.89,10.2-11.56,31.64,6.64,52"/>
            <path d="M353.2,310.26c-3.92-.84-7.66-1.17-11-2.8"/>
            <path d="M694.43,689.91c11.34,18.68,37.22,23,62.38,12.73-3.48,5-9.31,9.27-17.24,12.82"/>
        </g>
        <g class="eye">
            <rect class="sclera" x="371.69" y="408.15" width="260.73" height="82.52"/>
            <g class="irisGreen">
                <ellipse cx="415.77" cy="462.79" rx="21" ry="22.05" transform="matrix(0.99, -0.16, 0.16, 0.99, -67.08, 70.49)"/>
                <ellipse cx="561.93" cy="439.72" rx="21" ry="22.05" transform="translate(-61.69 93) rotate(-8.97)"/>
            </g>
            <g class="pupil">
                <ellipse cx="417.22" cy="462.56" rx="8.17" ry="8.57" transform="translate(-67.02 70.72) rotate(-8.97)"/>
                <ellipse cx="563.38" cy="439.49" rx="8.17" ry="8.58" transform="translate(-61.64 93.22) rotate(-8.97)"/>
            </g>
        </g>
        <path class="skinAshkenazi" d="M474.63,666.67C460,645.23,377.17,623,367.05,492c-2.62-33.88-20.37-39.79-18-86.13,1.19-23.7-14.28-48.16,4.19-95.56,28.74,3.62,52.73,28.75,112.51,50.45,56.44,20.49,137.21,20.6,196.76,12.68,1.16,78.47-38.46,172.89-23.54,272.11C624.34,659,602.07,669,590.71,679.93,568.74,701,513.11,722.89,474.63,666.67Zm47.75-215.61c8.93-1.59,18.43,3.44,31.14,2.42,14.39-1.15,26.84-6.84,33.74-17-12.83-5.21-22.47-10.73-37.24-9-12.63,1.5-24,5.91-32.38,19.36C514.38,452.09,519.63,451.55,522.38,451.06Zm-88.81,9.79c-13.4-8-18.48-12.42-31.76-11.17a27.94,27.94,0,0,0-23.7,17.4c13.52,9.84,33.1,10.31,52.07-1C432.56,464.69,439.31,464.28,433.57,460.85Z"/>
        <path class="lipFemaleMedium__noStroke" d="M477.42,601.05c6.79,75.29,99.66,40.24,99.56-25.34C537.06,605.31,502,619.55,477.42,601.05Z"/>
        <path class="lipFemaleMedium" d="M477.42,601.05c-10.48-5.11-19.63-7.13-26.47-3.77,14.93-13.6,37.23,2.74,44.54-1.36,41.73-23.39,71.55-24.24,93.68-19.33-4.74-.47-9.14-.86-12.19-.88C541.49,601.1,506.77,620.82,477.42,601.05Z"/>
        <path class="lipEdgeLine" d="M483.65,624.27c18,34.5,67.6,19.15,86.18-18.12"/>
        <path class="teeth" d="M477.42,601.05c40.77,15.6,69-26.72,99.56-25.34-17.2,32-66.22,56.24-93.14,38.88C481.39,612.62,477.63,605.08,477.42,601.05Z"/>
        <path class="mouthInner" d="M501.68,604.14q3.26,8.18,5.67,16.2a58.83,58.83,0,0,0,6.66-.65q-3.21-8.09-5.77-16.74A57.37,57.37,0,0,1,501.68,604.14Z"/>
        <g class="cheekLine">
            <path d="M594.63,565.08c-13.38-10.79-24.71-9-40.12-16.71-13-6.54-17.59-14.12-32.08-18.59"/>
            <path d="M434.88,582.62c2.57-14.85,9.58-17.18,13.41-26.71"/>
        </g>
        <g class="noseLine">
            <path d="M452.28,484.63c3,42.53-18.91,85.61,14.11,89.33C488,576.39,494,563.76,514,558.45c15.84-4.2,17.53-24.15,8.41-28.67"/>
        </g>
        <g class="eyeFoldLine">
            <path d="M392.47,488.23c6.82,8.14,29.49,5.79,39.86-4.44"/>
            <path d="M536.42,469.81c14.21,6.36,35.34,3.95,48.32-9.16"/>
        </g>
        <g class="eyeCornerLine">
            <path d="M378.11,467.08a7,7,0,0,1-5.7,3.61"/>
            <path d="M605.68,436.54a26.05,26.05,0,0,1-18.42-.06"/>
        </g>
        <g class="eyeCreaseLine">
            <path d="M510.4,443.2c26.84-34.35,51.18-28.05,75.29-17.42"/>
            <path d="M371.48,458.37c21.78-27.41,43.38-13.25,58.48-7.08"/>
        </g>
        <g class="eyebrowRed">
            <path d="M497.52,398.37c12.12,13.29,29.77,8.4,53,.81,23.65-7.73,56.26,7.62,60.15,2.41C563.86,363.37,515.15,394.1,497.52,398.37Z"/>
            <path d="M350.55,434.36a88.47,88.47,0,0,0,2.17,9.11C379,411.21,421.55,438,427.1,411.91,410.06,412.24,378.17,396.56,350.55,434.36Z"/>
        </g>
    </g>
</svg>
