<svg viewBox="0 0 159.52 438.44">
  <g class="stand">
    <g class="steelDark">
      <path d="M69.39,381.68,40.72,120c0-.39-1.88-.19-1.83.21L67.55,381.88Z"/>
    </g>
    <g class="chromeMedium">
      <path d="M46.62,220.7c-.07-.64,8.69-1.6,8.76-1l.33,3c0,.41-8.71,1.37-8.76,1Z"/>
      <path d="M47,224c0-.41,8.71-1.37,8.76-1l.33,3.05c0,.32-8.72,1.28-8.76,1Z"/>
    </g>
    <path class="padding" d="M46.19,233c-.06-.54,12.21-1.88,12.27-1.34l.45,4.12c0,.08-12.26,1.43-12.27,1.34Z"/>
    <g class="chromeLight">
      <path d="M48.13,236.9c0-.26,9.24-1.28,9.27-1l.62,5.65c0,.29-9.24,1.3-9.27,1Z"/>
      <path d="M53.59,219.54,53,214.26c0-.31-5.3.27-5.27.57l.58,5.29A39,39,0,0,1,53.59,219.54Z"/>
      <path d="M54.92,231.7l-.58-5.33a19.46,19.46,0,0,0-5.27.58l.58,5.33C51.3,232.05,53.26,231.83,54.92,231.7Z"/>
    </g>
    <g class="steelDark">
      <path d="M50.39,260.48c.23.42,9.59-.43,9.47-1C60.43,254,61,251,58.61,248c-.06-.58-9.54.46-9.47,1C47.57,252.43,48.58,255.39,50.39,260.48Z"/>
      <path d="M59.85,349.82c.07.64,10.16-.47,10.09-1.1l-.85-7.8C69,340.5,59,341.6,59,342Z"/>
      <path d="M57.26,326.12c.06.54,10.14-.57,10.08-1.1l-.85-7.8c0-.39-10.13.71-10.09,1.11Z"/>
    </g>
    <g class="pad">
      <polygon points="69.35 415.68 74.93 415.07 77.1 424.4 69.41 425.24 69.35 415.68"/>
      <path d="M61.51,414.32l6.7-1.92,4.23,5.7a9.06,9.06,0,0,1-7,4.6,10.18,10.18,0,0,1-4.53-.91Z"/>
      <path d="M82.37,412l-7-.42-2.89,6.48a9,9,0,0,0,7.87,3,10.24,10.24,0,0,0,4.23-1.87Z"/>
    </g>
    <g class="steelMediumLight">
      <path d="M67.23,412.68l-4.85,1.39-10.08-92c-.29-2.64,4.66-3.18,5-.54Z"/>
      <path d="M81.41,412l-5-.31-10-91.16c-.29-2.64,4.66-3.19,5-.54Z"/>
    </g>
    <path class="brassDarkest" d="M60.49,404.66c-6.32-2.14,7.82-.42.69-33.93C66,355.65,80.83,400,66.44,403.62A24.55,24.55,0,0,1,60.49,404.66Z"/>
    <path class="brassDark" d="M78,402.72c-1.08-1.46-.82-3.89-.44-7.69,1-10,.17-20-5.1-28.47a41,41,0,0,1-2.56-4.7c1.22-.23,2-.47,2-.67l-1-8.62c-.05-.47-11.21.83-11.16,1.3l1,8.62c0,.19.82.24,2,.19-.84,3.46-2.5,6.39-1.94,10.06.83,5.45,2.5,13.38,1.77,20.85A15.91,15.91,0,0,1,58.8,402c-1.18,1.5.05,3,1.69,2.7a1.26,1.26,0,0,1-.72-2c1.61-2.55,3.51-5.32,3.87-8.88.62-6.12-.43-12.8-1.54-19.85-.39-2.48-.21-4.86.81-5,1.26-.16,2.88,2.08,4.06,5.27,2.32,6.28,2.09,13.62,2.47,20.88.24,4.69-.45,8-4,8.46-2,.28-2.58,3.18.29,3.53a35.12,35.12,0,0,0,11.6-1.31C78.52,405.28,79,404,78,402.72Z"/>
    <g class="brassLight">
      <path d="M18.25,423.73l-4-5.08a166.75,166.75,0,0,0,21.89-16.56c9.23-8.28,27.61-27.62,29.76-25.15C71.16,389.68,45.66,398.84,18.25,423.73Z"/>
      <path d="M.31,423.89c-.87-1.64,8.07-3.66,14.68-4.27l3.26,4.11C11.16,428.11,2.81,428.35.31,423.89Z"/>
    </g>
    <g class="brassMedium">
      <path d="M18.25,423.73A72.62,72.62,0,0,1,38.61,405c13.27-8.21,28.69-22.87,27.26-28l2.66,2.7c1.43,5.16-13.82,19.67-27.09,27.87a74,74,0,0,0-20.53,18.92Z"/>
      <path d="M18.41,427.77c-7.24,2.6-15.47,2.85-17.94.16l-.16-4c2.31,2.71,10.7,2.44,17.94-.16Z"/>
    </g>
    <g class="steelMedium">
      <path d="M58.9,259.71l6.32,57.69c0,.4-7.5,1.22-7.54.83l-6.32-57.72A50.23,50.23,0,0,1,58.9,259.71Z"/>
      <path d="M61.16,350l.39,3.57c.1.85,7.64,0,7.54-.83l-.39-3.57A48.86,48.86,0,0,1,61.16,350Z"/>
      <path d="M58.56,326.26l1.7,15.54c.07.58,7.61-.24,7.54-.82l-1.7-15.55A57.77,57.77,0,0,1,58.56,326.26Z"/>
    </g>
    <rect class="steelLight" x="66.11" y="318.92" width="1.55" height="96.74" transform="translate(173.37 725.11) rotate(173.75)"/>
  </g>
  <g class="soleTan">
    <path d="M140.83,417.9c0,4.53-.67,9-1.71,10.12s-4.2,1.75-6.61,1.53C133.43,424.43,136.49,420.74,140.83,417.9Z"/>
    <path d="M108.62,413.17c-.57,3.54-.93,8-2.07,9-3,2.48-7.51,3-11.49,3v-4.26Z"/>
  </g>
  <path class="soleTanDark" d="M95.06,420.85v4.26H89.39A8.81,8.81,0,0,1,95.06,420.85Z"/>
  <g class="maraShoe">
    <path d="M138.49,401.51a28.82,28.82,0,0,1,2.34,16.39c-.9,3.8-5.72,6-8.32,11.65-4.07,8.93-10,8.94-17.57,8.5-11-.63-11.84-8.49-6.42-14.09s8.37-16.81,11.6-21.43Z"/>
    <path d="M108.12,397.69c1.83,4,2.35,11.11.5,15.48-2.45,5.82-10.57,3.95-18.09,10.94a22.31,22.31,0,0,1-21.21,5.67c-5.11-1.28-5.73-9-1.12-11.51A66.54,66.54,0,0,0,74,414.71Z"/>
  </g>
  <path class="maraDress" d="M151.83,121.33c-1.15,14-7.89,31-6.33,35.89,4.32,13.57,2.46,20.1,4.32,28.12,1.89,8.21,2.67,20.61,4.93,32.95,2,11.15,2.22,31,2.47,51.61-2.06,6.58-72.5,10.11-82.45,2.88-1.76-1.27-5.25-1.72-5.15-3.34.21-6.86,1.45-19.38,1.86-33.05.52-17.56,3-36.29,3.6-51.37.25-6.06,1.86-14.69,2.77-26.72-.14-2.78-.61-4.83-1.72-6.25-14-15.43-1.32-18.43,3.72-37.14.68-2.51-.1-8.65,1.77-14.32A26.69,26.69,0,0,1,88,97c3.92-2.1,3.18,8.76,44.84-1.18A59.78,59.78,0,0,1,144,100.6C149.88,104.64,151.83,121.33,151.83,121.33Z"/>
  <path class="clothesDisplayLine" d="M77.85,158.3c7,3,60.91,3.37,67.65-1.08"/>
  <g class="clothesOverlapLine">
    <path d="M76.13,152.05a14.62,14.62,0,0,0,8.42,2.81"/>
    <path d="M134.15,150.8c-6.52,5.14-15.56,6.9-23.07,4.45"/>
  </g>
  <g class="clothesFoldLine">
    <path d="M151.86,221.1c-4.7.11-5,21.44-4.82,45"/>
    <path d="M121.86,230.74c-1.61,16.42-5,34.1-25.89,37.31"/>
    <path d="M81,165.45c3.25-4.94,7-.54,9.64,4.28"/>
    <path d="M131.68,166.52c6.59-4.67,10.92-6.37,7.68,1.78"/>
    <path d="M139.18,183.3c1.43-10.71,4.17-21.5,6.07-15.35"/>
    <path d="M98.29,176c13.57,2.68,12.32,11.43-9.82,4.46"/>
    <path d="M85.79,182.05c4.73,1.76,15.72,12.34,3.93,9.64"/>
    <path d="M101.51,189.73c-1.73-5.94,14.28-3.75,23.39-.54"/>
    <path d="M74.77,272.78c.43-7.65-.28-17,.53-23.52"/>
    <path d="M87.16,143.14a37,37,0,0,0,11.2,1.44"/>
    <path d="M93.29,146.35a30.3,30.3,0,0,0,11.27.33"/>
  </g>
  <g class="skinAshkenazi">
    <path d="M74.59,193.3c.25-3.68.34-4.71.49-8.28.25-6.06,1.86-14.69,2.77-26.72-.14-2.78-.61-4.83-1.72-6.25-14-15.43-1.32-18.43,3.72-37.14.65-2.43,0-8.25,1.6-13.76-4.93,3.64-8.66,5.67-10,11.38-4.85,21.34-.85,47.59-3.31,52.15-5.12,9.51-7,19.95-12.84,28-1.45-2.27-4.67-1.65-5.8-.86s-1.29,2.94-1.4,3.69c-1.79-1-4.91,1.17-4.82,3.41a3.33,3.33,0,0,0-4.06,3c-1.71.62-2.43,1.39-2.35,2.69.13,1.88.94,3.68,2,4.35,2.34,4.54,6.06,4.63,10.17,4.49l-.45-4.11a3.77,3.77,0,0,0,1.53-2.93l.77,7a13,13,0,0,1,3.09.44c5.85,1.61,11.29-6.58,8.16-11.61C64.76,198.94,71.19,199,74.59,193.3Z"/>
    <path d="M111,331.7c-1.71-7.86,2-28.94,2.29-55-15.61.37-30.82-.48-36.89-3.05,1.11,14.79,5,27.34,5.24,36.54.16,7.27,2,12.21,2,15.93.1,24,9.65,66.25,6.86,69.18-6.18,6.49-10.21,14.42-16.51,19.41a21,21,0,0,1,11.44,2.46c9.47-5.89,21.42-13.31,22.72-19.48C106.16,378,115.08,350.65,111,331.7Z"/>
    <path d="M144,325.53c-2-9.58,3.39-28.89,5.39-52.23-8.71,1.89-23.38,3.17-37.51,3.43.4,15.3,2.67,26.82,3.26,35.65.34,5.22,2,10.33,2,15.45.25,30.53,9.15,60.42,3.75,72.82-4,9.1-4.37,14.16-8.73,21.8,3.19-.77,10.22,0,14.17,2.17,6.52-5.36,12.84-13.56,12.14-23.11C137.21,384.14,150.24,355.93,144,325.53Z"/>
    <path d="M48.1,131.23c.92-2.76,5-3.52,7.78-4.91,4.56-2.27,8.77-5.79,16-1.82,22.34,4.27,26.73,1.63,45.91,3.24,2.88-4.31,7.91-6.47,10.68-14.51,1.09-10.41,10.12-14.3,15.57-12.63,10.9,4.68,13.42,21,.39,30.5-6.13,7.3-14.33,14.56-18.84,16-17.78,5.51-29.53-5.46-53.63-11.9-1.33,3.91-4.09,6.38-9.28,6.35,1,1.92-1.09,3.14-1.93,4.18s-1.83,2-3.59,1.5c-2.26,2.6-7.43,2.12-6.26-1.89-3.57-.88-3.46-3.35-3.34-5.55C47.7,136.71,46.6,134.9,48.1,131.23Z"/>
    <path d="M119.66,77.31C119.22,87.43,122.92,92,131.75,96c-12.58,2.53-10.22,15-21.56,16.27-17.91,2.09-22.78-3.31-21.41-15,5.08-2,8.17-5.65,8-10.56"/>
  </g>
  <g class="skinOverlapLine">
    <path d="M148.12,124.08a15.13,15.13,0,0,1-3.72,7"/>
    <path d="M69.71,134.72c-4.36,5.76-9.82,5.1-12,6.5,2-.58,4-.45,5,.29"/>
    <path d="M53.15,137.58c-1.37,7.25-2.18,7,4,9.61"/>
    <path d="M50.26,136c-1,8.69-1.28,9.76,4.54,10.19"/>
    <path d="M55.35,192.67c2.12,5,4.44,5.14,6.85,9.56"/>
    <path d="M49.35,203.21c-.63,1.39,2.08,6.1,7.65,3.55"/>
    <path d="M61.2,202.83c-6-3.29-4.43.87-9.53-.15"/>
    <path d="M53.47,195.93c1.1,8-5.37,8.67-5.37,5.77.86-2.59-.28-3.18,0-6.2"/>
    <path d="M43.33,198.91c.57,7,1.78,7.1,2.18,9.93a2.52,2.52,0,0,0,3.14.46"/>
    <path d="M39.27,201.88A22.45,22.45,0,0,0,41.44,209c.69,1.11,3.56,1.14,4.07-.11"/>
    <path d="M38.93,208.92c.78.55,1.64.23,2.51,0"/>
  </g>
  <g class="skinFoldLine">
    <path d="M73.72,164.7A9.51,9.51,0,0,1,77,167"/>
    <path d="M117.76,127.74c.9,0,1.62.36,1.95-.1"/>
    <path d="M57.64,139.78a2.14,2.14,0,0,1-.93,2.62"/>
    <path d="M58.53,142.94a1.36,1.36,0,0,0-.86-1.72"/>
  </g>
  <g class="skinCreaseLine">
    <path d="M98.69,322.53c-2.91,1.05-7.83,1.12-10.06-.15"/>
    <path d="M132.53,323.2c-2.46,1.12-8.12,1.2-10.51.08"/>
  </g>
  <g class="watch">
    <path class="maraWatchBand" d="M76.49,136.3A13.91,13.91,0,0,1,78,124.59c.07-.92-3.56-1.42-4.3-.51-1.95,2.25-2.83,8.34-1.49,11.78C73,136.87,76.56,137.27,76.49,136.3Z"/>
    <path class="watchSide" d="M79.51,125.26c0,.41-1.79.58-3.9.37s-3.8-.72-3.76-1.13l.1-1,7.67.76Z"/>
    <ellipse class="watchFace" cx="75.79" cy="123.83" rx="0.75" ry="3.85" transform="translate(-54.9 187.06) rotate(-84.35)"/>
  </g>
  <g class="maraStrap">
    <path d="M102.76,405.1h0c-3.63-3.59-11.7-6.6-15.55-6.05-1.12,1.39-2.19,2.81-3.23,4.21,3.4-.65,10.1,1.28,14.26,5.47C99.88,407.52,101.41,406.31,102.76,405.1Z"/>
    <path d="M137.71,408.73c-4.18-3.15-15.42-4.48-19-2.54-.52,1.44-1,2.79-1.41,4.1h0c3.53-1.85,12.84-1.26,18.63,2.88A24.36,24.36,0,0,0,137.71,408.73Z"/>
  </g>
  <path class="clothingGold" d="M125.15,92.1c-6.71,2-11.6,11.1-16.92,13.27-6.64,2.7-15.29.29-14.14-11.49.08-.73-1.66-.22-1.66,1.46,0,14.51,12.69,13.75,17.17,11.15,6.53-3.78,10.24-11.94,17.14-13.21C127.56,93.13,126.77,91.61,125.15,92.1Z"/>
  <path class="hairRed" d="M54.4,92.31c6.27,4.69,11.22-2.4,9.48-12.94-1.79-10.81-5.53-14.57-4.29-25,.64-5.39-1-14.32-.06-20.49C63.28,9.26,80.07,1.49,99.22.34c15.21-.92,35,5.17,40.39,24.42,2.2,7.82,15.74,18.13,9.85,46.24-1.62,7.7,2.2,17.18,9.64,11.55-1.17,4.57-4.73,7-9.26,6.41-1.52,4.32-7.81,5.72-11.9,3.65a7.58,7.58,0,0,0,6.79,3c-4.34,3.11-13.1,3.35-16.48.89-8,1.09-14.58-3.72-16.75-14.51L90.39,93.23c-1.63,3.72-7.92,5.6-12.91,4.49-4.06,3-8.84,4.08-12.78,2.1,1.78-.91,3.24-2.13,3.59-3.82C63.07,100.19,55.88,98.63,54.4,92.31Z"/>
  <path class="maraHeadband" d="M111.63,34.12c-1-5.52-1.85-10.5-7.4-13.9-12.67-7.74-35.59-7.71-38.86,6.91C81.53,21.65,100,25.36,111.63,34.12Z"/>
  <g class="hairOverlapLine">
    <path d="M65.37,27.13c-4.27,2.19-4.53,5.49-.77,11.06"/>
    <path d="M111.63,34.12c.35,3.94,2,7.76,1.05,14.34"/>
    <path d="M123.79,93.59a13,13,0,0,0,9.52.63c-1,1.41-3,2.09-5.06,2.27"/>
  </g>
  <g class="eye">
    <rect class="sclera" x="67.83" y="52.94" width="34.83" height="8.64"/>
    <g class="irisGreen">
      <ellipse cx="94.5" cy="57.82" rx="3.16" ry="3.31" transform="translate(-11.54 25.73) rotate(-14.62)"/>
      <ellipse cx="72.39" cy="59.64" rx="3.16" ry="3.31" transform="matrix(0.97, -0.25, 0.25, 0.97, -12.71, 20.21)"/>
    </g>
    <g class="pupil">
      <ellipse cx="94.25" cy="58.04" rx="1.23" ry="1.29" transform="translate(-11.6 25.68) rotate(-14.62)"/>
      <ellipse cx="72.13" cy="59.86" rx="1.23" ry="1.29" transform="translate(-12.78 20.15) rotate(-14.62)"/>
    </g>
  </g>
  <g class="skinAshkenazi">
    <path d="M82.44,89.52c-4.08-6.14-14.15-8.81-15.22-31.35-.19-4.19-2.3-5.85-1.62-11,.31-2.35-1.81-6.39-.6-14.08,6,4.81,21.2,21.58,47.68,15.36A221,221,0,0,0,111.5,82c-3.27,3.51-8.21,5.64-10.94,7.76C96.52,92.87,86.08,95,82.44,89.52Zm7.83-31.7c4.85,2.73,8.62,0,10.67-2.87-2.31-.71-4.6-1.48-7-.93-2.23.52-2.87,1.52-4.4,2.85C88.83,57.51,89.87,57.6,90.27,57.82Zm-12.93.42c-1.83-1.51-2.86-2.39-5.27-2.38s-3.14,1.42-4,2.55a5.72,5.72,0,0,0,8.42.61C76.79,58.73,78.17,58.92,77.34,58.24Z"/>
  </g>
  <path class="lipFemaleMedium__noStroke" d="M86.37,80.61c-2.36.06-3.45-.6-6.56,0a2.52,2.52,0,0,1,2.58,1.49c1.43,3.53,7.9,3.45,11.39-.77a6.27,6.27,0,0,1,3.29-1.71C91.86,79.68,89.69,80.52,86.37,80.61Z"/>
  <path class="lipFemaleMedium" d="M79.81,80.57c1.84-.53,2.57-1.64,3.52-1.45,3.75.76,4.33-.52,6.29-.49,1.28,0,3.47.78,7.45,1-5.21.1-7.38.94-10.7,1C84,80.67,82.92,80,79.81,80.57Z"/>
  <path class="lipEdgeLine" d="M82.39,82.06c1.43,3.53,7.9,3.45,11.39-.77"/>
  <path class="noseLine" d="M89.69,69.19c1.25,1.16,2.24,3.69-.77,4.58-4,1-5.22,3-9.41,1.08-3.78-1.84,1.51-7.46,0-15.14"/>
  <g class="eyeFoldLine">
    <path d="M100.14,58.85c-2.6,2.07-6.1,2.8-8.58,1.21"/>
    <path d="M76.24,61.14c-2.33,1.94-6.45,1.9-7.69-.41"/>
  </g>
  <g class="eyeCornerLine">
    <path d="M68,58.41a3.3,3.3,0,0,1-.59.38"/>
    <path d="M103.62,54.64a5.3,5.3,0,0,1-2.68.31"/>
  </g>
  <g class="eyeCreaseLine">
    <path d="M89.71,55.29c2.66-4.11,7.64-3.55,10.58-1.79"/>
    <path d="M68,56.58c1.92-2.9,5.51-3.06,9,.22"/>
  </g>
  <g class="eyebrowRed">
    <path d="M65.66,51A15.29,15.29,0,0,0,66,52.5c4.39-2,8.34.83,9.26-3.17C73.25,49.63,69.94,48.43,65.66,51Z"/>
    <path d="M94.07,49.51l.37,0a40.21,40.21,0,0,1-5.64-1.29,11.46,11.46,0,0,1-2.68.63C88,51.88,90.33,50.09,94.07,49.51Z"/>
    <path d="M103.86,50.28l-.48-.37c-.91,0-1.8.06-2.66.05C102.39,50.41,103.44,50.85,103.86,50.28Z"/>
  </g>
</svg>
