<svg viewBox="0 0 348.77 573.33">
  <path class="wallHighSide" d="M221.13,15.83c-102.27-.82-117.33,.42-219.55,3.73,12.54,76.2,9.12,410.87,.35,553.27H220.59c7.6-158.2,6.81-430.72,.54-557Z"/>
  <path class="wallHighFront" d="M316.35,149.7c-.65-44.16-1.61-88.34-2.88-132.5-30.78-.63-61.56-1.09-92.34-1.37,6.27,126.28,7.06,398.8-.54,557h94.23c3.49-134.95,3.47-291.4,1.53-423.13Z"/>
  <path class="doorLightFront" d="M262.22,410.05c-7.82,.05-15.63,.09-23.45,.13-.92,54.23-2.42,108.45-4.51,162.65h24.92c1.58-51.68,2.27-113.57,3.04-162.78Z"/>
  <g class="frameLightFront">
    <path d="M306.95,414.84c-.45,31.6-1.06,63.21-1.83,94.8-11.29,.18-22.58,.34-33.87,.49,.86-31.67,1.54-63.34,2.05-95.01,11.22-.08,22.44-.18,33.65-.28Z"/>
    <path d="M238.77,410.18c.06-3.3,.08-4.96,.13-8.26,7.81-.04,15.63-.08,23.44-.12-.05,3.3-.07,4.95-.12,8.25-7.82,.05-15.63,.09-23.45,.13Z"/>
    <path d="M266.46,222.18c.03,3.79,.06,7.58,.09,11.37-9.67-.03-19.34-.05-29-.07-.03-3.8-.06-7.59-.09-11.38,9.67,.03,19.34,.05,29.01,.09Z"/>
    <path d="M306.55,222.35c.03,3.78,.05,7.56,.07,11.34-9.67-.04-19.34-.07-29-.1-.03-3.79-.05-7.58-.08-11.36,9.67,.04,19.34,.08,29.01,.12Z"/>
  </g>
  <g class="frameLightSide">
    <path d="M211.24,415.44c-.6,31.76-1.42,63.51-2.44,95.25-27.43,.14-54.85,.16-82.28,.07,1.24-31.75,2.22-63.52,2.95-95.28,27.26,.05,54.51,.04,81.77-.04Z"/>
    <path d="M203.26,222.03c.04,3.8,.07,7.6,.1,11.4-14.86-.01-29.72-.02-44.58-.02-.04-3.8-.07-7.6-.11-11.4,14.86,0,29.73,0,44.59,.03Z"/>
  </g>
  <g class="glassMedium">
    <path d="M306.86,421.58c-.41,27.22-.93,54.43-1.57,81.64-11.28,.17-22.57,.33-33.85,.47,.72-27.27,1.31-54.54,1.76-81.82,11.22-.09,22.44-.19,33.67-.29Z"/>
    <path d="M266.46,222.18c-9.67-.03-19.34-.06-29.01-.09-.29-31.62-.78-63.23-1.46-94.84-.1-9.6-1.16-38.19,13.67-38.14,14.86,.06,15.15,28.39,15.46,38.35,.63,31.57,1.08,63.14,1.34,94.71Z"/>
    <path d="M306.55,222.35c-9.67-.05-19.34-.09-29.01-.12-.26-31.55-.69-63.11-1.3-94.66-.07-9.43-1.16-38.47,13.77-38.01,15.04,.47,15.06,27.97,15.36,38.31,.55,31.49,.94,62.98,1.17,94.47Z"/>
  </g>
  <g class="glassDark">
    <path d="M204.34,422.24c-.55,27.35-1.27,54.7-2.14,82.04-22.88,.1-45.76,.12-68.63,.06,1.02-27.35,1.86-54.7,2.51-82.06,22.76,.03,45.51,.02,68.27-.04Z"/>
    <path d="M203.26,222.03c-14.86-.02-29.73-.03-44.59-.03-.35-31.66-.95-63.32-1.78-94.97-.31-13.65,3.34-38.17,21.3-38.32,17.86-.15,23.14,24.64,23.47,38.38,.75,31.64,1.28,63.29,1.6,94.93Z"/>
  </g>
  <g class="windowDisplayLine">
    <path d="M134.97,463.31c22.81,.04,45.62,.03,68.43-.05"/>
    <path d="M158.54,422.3c-.62,27.36-1.42,54.72-2.39,82.08"/>
    <path d="M181.47,422.29c-.59,27.36-1.34,54.72-2.27,82.07"/>
    <path d="M272.41,462.79c11.25-.12,22.5-.24,33.75-.38"/>
    <path d="M201.66,127.1c-14.92-.04-29.84-.07-44.77-.06"/>
    <path d="M180.97,222.01c-.34-31.66-.9-63.31-1.69-94.96"/>
    <path d="M202.63,174.56c-14.89-.03-29.77-.05-44.66-.05"/>
    <path d="M179.28,127.05c-4.77-10.45-9.56-20.9-14.38-31.33"/>
    <path d="M179.28,127.05c4.23-10.42,8.44-20.85,12.65-31.28"/>
    <path d="M265.12,127.47c-9.71-.08-19.42-.15-29.13-.21"/>
    <path d="M251.95,222.14c-.28-31.6-.74-63.19-1.4-94.78"/>
    <path d="M265.93,174.82c-9.69-.06-19.37-.1-29.06-.15"/>
    <path d="M250.55,127.36c-3.15-10.45-6.32-22.43-9.52-32.86"/>
    <path d="M250.55,127.36c2.7-10.39,5.4-22.32,8.07-32.71"/>
    <path d="M305.38,127.87c-9.71-.11-19.42-.21-29.13-.31"/>
    <path d="M292.04,222.28c-.24-31.53-.66-63.05-1.24-94.57"/>
    <path d="M306.09,175.11c-9.69-.08-19.37-.15-29.06-.22"/>
    <path d="M290.81,127.71c-3.12-10.44-6.27-22.41-9.43-32.83"/>
    <path d="M290.81,127.71c2.73-10.35,5.45-22.25,8.16-32.61"/>
  </g>
  <path class="dullTealDark" d="M234.01,303.88c38.09-.04,76.18-.1,114.26-.18,0,5.55-.02,11.1-.03,16.66-1.86,0-2.79,.01-4.65,.02-.01,5.55-.03,11.11-.05,16.66-1.97,.01-2.95,.02-4.92,.03-.06,15.56-.15,31.13-.26,46.69-34.96,.39-69.93,.7-104.89,.93,.3-26.94,.48-53.87,.54-80.81Z"/>
  <path class="dullTealLighter" d="M332.61,377.94c-31.05,.32-62.1,.58-93.15,.78,.24-22.8,.39-45.61,.45-68.41,31-.05,62-.11,93-.19-.04,22.61-.14,45.22-.3,67.83Z"/>
  <g class="dullTealMedium">
    <path d="M297.75,316.97c-8.19-.2-9.54,9.89-9.55,15.97-.04,6.13,1.16,16.35,9.41,16.31,4.59-.19,7.63-4.15,7.55-8.63-.93-.27-1.4-.41-2.33-.69-1.02,3.78-2.35,5.24-4.94,4.87-3.71-2.2-2.86-8.34-2.82-11.89,.03-3.44-.46-9.33,3.23-11.42,1.84-.58,3.95,1.81,4.6,5.05l2.33-.36c.74-4.74-2.65-9.16-7.48-9.22Z"/>
    <path d="M256.86,317.39c12.2-.31,12.07,18.52-.08,17.8-.46,0-.69,0-1.15,0-.02,4.52-.05,9.04-.08,13.56-3.17,.01-4.75,.02-7.92,.04,.07-10.46,.12-20.92,.16-31.38,3.02,0,6.04-.01,9.07-.02Zm1.71,9.07c-.17-4.49-1.21-6.16-2.99-6.26-.02,4.07-.03,8.15-.05,12.22,2.37-.67,3.03-2.56,3.04-5.96Z"/>
    <path d="M318.03,316.91c8.21,.34,8.83,10.45,8.74,16.64-.31,5.76-1.54,14.91-8.86,15.28-7.88,.39-9.21-9.59-9.29-15.36,.09-6.35,1.03-16.41,9.42-16.57Zm-2.62,15.96c-.04,3.64-.76,8.24,1.94,11.16,2.9-2.73,2.59-7.68,2.49-11.35,.14-3.53,.6-8.27-2.1-10.98-3.01,2.72-2.35,7.52-2.33,11.18Z"/>
    <path d="M275.81,317.29c1.81,0,3.77,0,3.77,0,1.95,10.44,3.88,20.87,5.81,31.31-3.02,.02-4.52,.03-7.54,.04,0,0-.9-5.36-1.29-7.66-2.02,0-3.03,.01-5.04,.02-.51,2.34-1.68,7.68-1.68,7.68-1.62,0-2.43,.01-4.05,.02,2.37-10.46,4.72-20.93,7.05-31.4,0,0,1.43,0,2.98,0Zm-3.82,21.51c.54,0,4.2-.02,4.2-.02-.61-3.62-1.22-7.23-1.83-10.85,0,0-.13,.62-.34,1.57-.67,3.1-1.35,6.2-2.03,9.3Z"/>
  </g>
  <g class="letterDisplayLine">
    <path d="M270.49,356.17c-.04,5.72-.09,11.44-.14,17.16,3.14-.02,4.71-.03,7.85-.06"/>
    <path d="M281.41,356.1c-.04,5.72-.08,11.43-.13,17.15,3.14-.02,4.71-.04,7.85-.06"/>
    <path d="M292.51,373.16c1.77-5.72,3.53-11.44,5.29-17.16,1.45,5.69,2.9,11.39,4.35,17.08"/>
    <path d="M300.18,365.36c-2.2,.02-3.3,.03-5.5,.04"/>
    <path d="M306.22,373.05c.04-5.7,.08-11.4,.12-17.11,2.93-.5,7.68,.06,7.43,3.8-.22,3.39-4.5,4.38-7.48,4.3,5.3-1.15,7.73,4.7,7.39,8.94"/>
    <path d="M325.06,358.45c0-1.44-.72-3.29-3.09-3.28-2.37,.02-4.39,.56-4.41,4.33-.02,3.78,2.28,3.35,4.3,3.95,2.02,.6,3.76,1.23,3.74,4.33-.02,3.7-2.17,4.96-4.29,4.96-2.7,.03-4.29-1.34-4.1-3.56"/>
    <path d="M261.6,356.22c3.97,.07,4.66,6.22,4.66,9.38,0,3.03-1.36,7.79-4.75,7.8-3.45,.01-4.35-4.76-4.36-7.74-.01-3.03,.52-9.5,4.45-9.43Z"/>
    <path d="M253.44,370.68c-.5,1.41-1.54,2.94-4.34,2.79-3.65-.19-4.34-4.75-4.36-7.75-.01-3.1,.29-9.24,4.45-9.44,1.65-.08,3.35,.43,4.15,3.53"/>
  </g>
  <g class="roofFront">
    <path d="M107.25,15.73c-.25-5.02-.51-10.05-.77-15.07,70.52-.46,141.03,.09,211.53,1.67,10.22-.05,10.9,15.58,.44,14.98-70.39-1.49-140.8-2.02-211.2-1.58Z"/>
    <path d="M113.98,284.58c0-5.03-.01-10.06-.03-15.08,69.43-.03,138.87,0,208.3,.1,10.31-.3,10.17,15.32,.02,15-69.43-.02-138.86-.02-208.29-.02Z"/>
  </g>
  <g class="roofSide">
    <path d="M1.58,19.56c-.34-4.95-.69-9.91-1.05-14.86C105.26,1.13,122.83-.16,227.61,.83c10.22-.15,11.19,15.5,.58,15.06-104.63-.94-122.04,.28-226.61,3.67Z"/>
    <path d="M10.74,284.62c0-4.96-.02-9.91-.04-14.87,103.26-.22,119.3-.3,222.57-.24,10.32-.31,10.19,15.4,.02,15.07-103.26,0-119.29,0-222.55,.04Z"/>
  </g>
</svg>