<svg viewBox="0 0 362.86 451.86">
  <path class="wallLowSide" d="M249.17,19.59c-58.21-.5-189.3,.46-247.47,2.9,6.12,59.77,10.87,312.98-.96,428.88H248.47c3.75-96.51,7.54-341.08,.71-431.78Z"/>
  <path class="wallLowFront" d="M325.3,124.03c-.51-34.3-1.28-68.62-2.3-102.92-24.6-.76-49.21-1.26-73.82-1.52,6.83,90.7,3.04,335.26-.71,431.78h74.1c3.41-107.58,4.33-219.89,2.73-327.34Z"/>
  <path class="doorDarkFront" d="M282.31,320.48c-6.71,.05-13.42,.1-20.14,.14-.76,43.59-2.04,87.17-3.82,130.73h20.44c1.64-43.18,2.81-87.73,3.51-130.88Z"/>
  <g class="frameDarkFront">
    <path d="M317.62,315.04c-.44,32.63-1.11,65.26-2.01,97.89-9.05,.23-18.09,.44-27.14,.62,1.01-32.73,1.76-65.47,2.25-98.21,8.97-.09,17.94-.18,26.91-.29Z"/>
    <path d="M316.64,106.65c.54,29.95,.87,59.91,1.02,89.86-18.53-.08-37.06-.14-55.59-.17-.18-30.13-.6-60.25-1.26-90.37,18.61,.15,37.22,.37,55.83,.68Z"/>
    <path d="M262.18,320.63c.03-2.03,.05-3.05,.08-5.08,6.71-.04,13.42-.08,20.13-.14-.03,2.03-.05,3.04-.08,5.07-6.71,.05-13.42,.1-20.14,.14Z"/>
  </g>
  <g class="glassMedium">
    <path d="M316.74,112.31c.45,26.28,.74,52.56,.89,78.84-18.53-.09-37.06-.16-55.59-.2-.18-26.43-.55-52.86-1.1-79.29,18.6,.14,37.2,.36,55.81,.65Z"/>
    <path d="M317.55,320.1c-.42,29.38-1.02,58.75-1.81,88.12-9.04,.23-18.08,.43-27.13,.6,.89-29.47,1.56-58.94,2.03-88.42,8.97-.09,17.94-.19,26.91-.31Z"/>
  </g>
  <g class="windowDisplayLine">
    <path d="M289.79,364.62c9-.13,18-.29,27-.46"/>
    <path d="M261.62,151.31c18.56,.09,37.12,.23,55.67,.43"/>
    <path d="M280.07,111.83c.52,26.39,.86,52.78,1.03,79.18"/>
    <path d="M298.52,112.04c.48,26.34,.8,52.68,.96,79.03"/>
  </g>
  <path class="awningFront" d="M253.17,253.95c32.1-.05,64.19-.15,96.29-.31,9.81-.24,12.98,9.93,12.9,18.04-.05,9.58-.12,19.16-.21,28.74-36.48,.56-72.96,.9-109.44,1.04,.22-15.84,.37-31.68,.46-47.52Z"/>
  <path class="awningSide" d="M276.61,253.91c-6.88,.01-16.46,.13-23.99,.16-.15,15.9-.33,31.72-.56,47.2,11.72-.03,25.74,.07,37.12,0,.12-9.69,.22-19.38,.29-29.07,.1-8.12-2.98-18.5-12.87-18.28Z"/>
  <g class="roofFront">
    <path d="M257.19,.74c24.65,.35,49.28,.98,73.92,1.87,.2,6.26,.38,12.52,.56,18.79-24.57-.82-49.14-1.39-73.72-1.72-.24-6.31-.49-12.63-.76-18.94Z"/>
    <path d="M261.89,215.91c24.24,.02,48.48,.05,72.73,.09,0,6.27,0,12.53,0,18.8-24.24,.03-48.48,.05-72.73,.07,0-6.32,0-12.64,0-18.96Z"/>
  </g>
  <g class="roofSide">
    <path d="M1.71,22.48C1.33,16.25,.94,10.03,.53,3.8,61.75,1.01,195.91-.01,257.19,.74c.26,6.31,.51,12.63,.76,18.94-61.14-.69-195.15,.25-256.24,2.8Z"/>
    <path d="M7.84,234.76c.01-6.23,0-12.47,0-18.7,60.39-.13,193.66-.18,254.06-.15,.01,6.32,.01,12.64,0,18.96-60.39,.03-193.66,0-254.06-.11Z"/>
  </g>
</svg>