<svg viewBox="0 0 334.23 567.13">
  <path class="wallMediumSide" d="M324.53,148Q326.58,82,330.64,15.91q-101.33-4.85-202.78-3.77-2.7,66.18-4.12,132.4-4.44,211,4.58,422.09H333.69C325.51,432.3,320.4,281.1,324.53,148Z"/>
  <path class="wallMediumFront" d="M123.74,144.54q1.4-66.19,4.12-132.4-45.24.6-90.45,2.31-2.07,66-3.13,132.05c-2.18,135.58-1.11,283.88,3.13,420.13h90.91Q119.35,355.72,123.74,144.54Z"/>
  <path class="doorMediumFront" d="M114.59,401.59q-12.36-.09-24.71-.2c.85,51.27,2.65,112.6,4.62,165.24h24.6C117,513.75,115.51,453.53,114.59,401.59Z"/>
  <g class="frameMediumFront">
    <path d="M80.45,396.13q.8,52.29,2.32,104.58-18.3-.39-36.58-.9-1.35-52.06-2.06-104.15Q62.28,395.93,80.45,396.13Z"/>
    <path d="M89.88,401.39c0-2.07,0-3.1-.08-5.17l24.7.19c0,2.07,0,3.11.09,5.18Q102.23,401.5,89.88,401.39Z"/>
    <path d="M83.75,127.35l-.27,13.2c.32-10.16.54-38.36,15.56-38.4s13.88,28.21,13.79,38.09q.14-6.62.29-13.23c.12-9.87,1.26-38.12-13.73-38.07S84.09,117.17,83.75,127.35Z"/>
    <path d="M111.48,235.08l0,8.22q-14.61,0-29.23.09l0-8.21Z"/>
    <path d="M45.28,128q-.12,6.57-.23,13.14c.29-10.17.46-38.2,15.45-38.34s14,28,13.89,37.85q.14-6.58.26-13.18c.09-9.84,1.13-38-13.84-37.84S45.6,117.81,45.28,128Z"/>
    <path d="M73.19,235.23l0,8.19-29.23.14.05-8.17Z"/>
  </g>
  <g class="glassMedium">
    <path d="M80.53,401.29q.75,47.31,2.1,94.61-18.28-.37-36.57-.87-1.19-47.11-1.86-94.22Q62.37,401.08,80.53,401.29Z"/>
    <path d="M111.48,235.08l-29.23.1q.33-47.31,1.23-94.63c.32-10.16.54-38.36,15.56-38.4s13.88,28.21,13.79,38.09Q111.84,187.65,111.48,235.08Z"/>
    <path d="M73.19,235.23,44,235.39q.28-47.12,1.09-94.23c.29-10.17.46-38.2,15.45-38.34s14,28,13.89,37.85Q73.51,188,73.19,235.23Z"/>
  </g>
  <g class="windowDisplayLine">
    <path d="M81.42,448.42q-18.21-.29-36.43-.68"/>
    <path d="M62.06,401.07q.7,47.22,2,94.43"/>
    <path d="M112.83,140.24q-14.67.13-29.35.31"/>
    <path d="M96.87,235.13q.33-47.38,1.29-94.75"/>
    <path d="M112,187.66q-14.64.08-29.28.2"/>
    <path d="M98.16,140.38c-2.74-10.37-5.45-22.6-8.16-33"/>
    <path d="M98.16,140.38c3.16-10.46,6.35-22.76,9.56-33.2"/>
    <path d="M74.39,140.67q-14.67.22-29.34.49"/>
    <path d="M58.57,235.3q.3-47.2,1.15-94.4"/>
    <path d="M73.64,188q-14.64.15-29.27.33"/>
    <path d="M59.72,140.9c-2.76-10.31-5.5-22.47-8.24-32.79"/>
    <path d="M59.72,140.9c3.14-10.44,6.3-22.72,9.48-33.15"/>
  </g>
  <path class="awningFront" d="M90.14,354.79q.12,11.32.26,22.66-44.63-.36-89.26-1.1Q1,365.16,1,354,45.55,354.52,90.14,354.79Z"/>
  <path class="awningSide" d="M122.32,307.86q-16.11,23.44-32.18,46.93.12,11.32.26,22.66,16.27.12,32.54.2Q122.45,342.75,122.32,307.86Z"/>
  <path class="awningTop" d="M33.21,307.65Q17.1,330.83,1,354q44.6.57,89.19.84,16.08-23.48,32.18-46.93Q77.76,307.8,33.21,307.65Z"/>
  <g class="roofFront">
    <path d="M116.74,12.3c.15-3.82.31-7.63.46-11.45q-45.35.78-90.66,2.72-.16,5.67-.35,11.33Q71.44,13,116.74,12.3Z"/>
    <path d="M111.32,295.4q0-5.73,0-11.45H22.13c0,3.78,0,7.56,0,11.34Q66.74,295.36,111.32,295.4Z"/>
  </g>
  <g class="roofSide">
    <path d="M330.64,15.91c.23-3.76.47-7.53.71-11.29Q224.35-.7,117.2.85c-.15,3.82-.31,7.63-.46,11.45Q223.72,10.8,330.64,15.91Z"/>
    <path d="M322.43,295.24c0-3.76,0-7.53,0-11.29H111.31q0,5.71,0,11.45Q216.88,295.46,322.43,295.24Z"/>
  </g>
</svg>
