<svg viewBox="0 0 452.28 597.71">
  <path class="flatRedDark" d="m1,1v591.97s5.9,3.74,16.38,3.74,15.24-3.85,23.69-3.89c9.23.04,12.57,3.89,24.12,3.89,10.79,0,13.58-3.16,21.47-3.2,7.57.03,11.47,3.2,24.36,3.2,10.17,0,13.69-3.59,20.17-3.63,6.59.05,9.02,3.63,18.97,3.63,7.05,0,9.57-2.94,14.87-2.98,6.18.04,9.89,2.98,18.07,2.98,9.01,0,13.01-3.14,19.08-3.18,7.07.04,10.04,3.18,20.82,3.18,8.81,0,12.5-3.35,20.89-3.39,8,.03,12.26,3.39,25.15,3.39,10.54,0,11.88-3.07,19.22-3.1,6.26.04,9.05,3.1,18.36,3.1s11.97-3.18,19.93-3.2c11.33.03,13.04,3.2,24.94,3.2,10.97,0,13.28-3.01,20.77-3.05,7.56.03,12.71,3.05,22.61,3.05s11.93-2.91,19.64-2.94c7.91.03,10.33,2.94,19.76,2.94,10.03,0,17.01-3.11,17.01-3.11V1H1Z"/>
  <g class="flatRedMedium">
    <path d="m414.38,1v592.76c8.01,0,10.41,2.94,19.89,2.94,10.03,0,17.01-3.11,17.01-3.11V1h-36.9Z"/>
    <path d="m372.13,1v592.66c7.63,0,12.78,3.05,22.73,3.05s11.95-2.94,19.76-2.94V1h-42.5Z"/>
    <path d="m326.36,1v592.5c11.5,0,13.16,3.2,25.13,3.2,11.04,0,13.3-3.05,20.9-3.05V1h-46.03Z"/>
    <path d="m288.14,1v592.6c6.34,0,9.11,3.11,18.47,3.11s11.99-3.2,20-3.2V1h-38.47Z"/>
    <path d="m243.77,1v592.32c8.08,0,12.31,3.39,25.27,3.39,10.61,0,11.89-3.11,19.35-3.11V1h-44.62Z"/>
    <path d="m202.05,1v592.52c7.16,0,10.11,3.18,20.95,3.18,8.85,0,12.53-3.39,21.02-3.39V1h-41.97Z"/>
    <path d="m164.89,1v592.72c6.26,0,9.97,2.98,18.21,2.98,9.06,0,13.06-3.18,19.2-3.18V1h-37.41Z"/>
    <path d="m131.06,1v592.07c6.69,0,9.08,3.64,19.09,3.64,7.1,0,9.6-2.98,14.99-2.98V1h-34.08Z"/>
    <path d="m86.54,1v592.51c7.66,0,11.52,3.2,24.48,3.2,10.23,0,13.73-3.64,20.3-3.64V1h-44.78Z"/>
    <path d="m40.94,1v591.82c9.33,0,12.64,3.89,24.25,3.89,10.85,0,13.61-3.2,21.6-3.2V1h-45.85Z"/>
    <path d="m1,1v591.97s5.9,3.74,16.38,3.74,15.28-3.89,23.81-3.89V1H1Z"/>
  </g>
  <g class="flatYellowMedium">
    <path d="m414.38,583.76v10c8.01,0,10.41,2.94,19.89,2.94,10.03,0,17.01-3.11,17.01-3.11v-10s-6.98,3.11-17.01,3.11c-9.48,0-11.87-2.94-19.89-2.94Z"/>
    <path d="m372.13,583.66v10c7.63,0,12.78,3.05,22.73,3.05s11.95-2.94,19.76-2.94v-10c-7.82,0-9.66,2.94-19.76,2.94s-15.1-3.05-22.73-3.05Z"/>
    <path d="m326.36,583.5v10c11.5,0,13.16,3.2,25.13,3.2,11.04,0,13.3-3.05,20.9-3.05v-10c-7.6,0-9.86,3.05-20.9,3.05-11.97,0-13.63-3.2-25.13-3.2Z"/>
    <path d="m288.14,583.6v10c6.34,0,9.11,3.11,18.47,3.11s11.99-3.2,20-3.2v-10c-8.01,0-10.96,3.2-20,3.2s-12.13-3.11-18.47-3.11Z"/>
    <path d="m243.77,583.32v10c8.08,0,12.31,3.39,25.27,3.39,10.61,0,11.89-3.11,19.35-3.11v-10c-7.46,0-8.75,3.11-19.35,3.11-12.95,0-17.19-3.39-25.27-3.39Z"/>
    <path d="m202.05,583.52v10c7.16,0,10.11,3.18,20.95,3.18,8.85,0,12.53-3.39,21.02-3.39v-10c-8.48,0-12.17,3.39-21.02,3.39-10.84,0-13.79-3.18-20.95-3.18Z"/>
    <path d="m164.89,583.72v10c6.26,0,9.97,2.98,18.21,2.98,9.06,0,13.06-3.18,19.2-3.18v-10c-6.14,0-10.14,3.18-19.2,3.18-8.24,0-11.95-2.98-18.21-2.98Z"/>
    <path d="m131.06,583.07v10c6.69,0,9.08,3.64,19.09,3.64,7.1,0,9.6-2.98,14.99-2.98v-10c-5.39,0-7.88,2.98-14.99,2.98-10.01,0-12.41-3.64-19.09-3.64Z"/>
    <path d="m86.54,583.51v10c7.66,0,11.52,3.2,24.48,3.2,10.23,0,13.73-3.64,20.3-3.64v-10c-6.57,0-10.06,3.64-20.3,3.64-12.96,0-16.83-3.2-24.48-3.2Z"/>
    <path d="m40.94,582.82v10c9.33,0,12.64,3.89,24.25,3.89,10.85,0,13.61-3.2,21.6-3.2v-10c-7.99,0-10.75,3.2-21.6,3.2-11.61,0-14.92-3.89-24.25-3.89Z"/>
    <path d="m1,582.97v10s5.9,3.74,16.38,3.74,15.28-3.89,23.81-3.89v-10c-8.52,0-12.94,3.89-23.81,3.89s-16.38-3.74-16.38-3.74Z"/>
  </g>
</svg>