<svg viewBox="0 0 1276.06 175.61">
  <g class="buildingsNearest">
    <path d="M614.49,64.43c-.72-5.27.24-24.65.24-24.65s-19.42.79-21.26.21c-.41-7,.44-21.07.44-21.07.1.42-62.09.06-62.09.06.59,0,1.35,14.77.72,21.75-13.81.3-39.52.38-54.16.08.17,5.74.83,20,1,25.71C514.25,65.14,579.6,63.91,614.49,64.43Z"/>
    <path d="M1055.07,63.05c-.72-5.27.23-38.52.23-38.52s-19.42.79-21.25.21a68.4,68.4,0,0,1,.44-12.76c-9.85.38-35.08.38-41.74.1,0,2.22,0,4.44-.22,7.85-13.82.31-28.43.39-43.08.09.17,5.73.83,39.39,1,45.12C985.32,63.76,1020.17,62.52,1055.07,63.05Z"/>
    <path d="M15.39,64.05c.49-7.88-.68-44.23-.64-44.23,21.47.62,73.69,1.56,95.15.63.1,0-.24,10.73-.24,10.73,0,.89,60.89-.38,60.89-.38s-.44,29.89-.4,35.15C128.84,64.82,56.7,64.18,15.39,64.05Z"/>
    <path d="M1062.89,65.71c.49-7.88-.68-55.32-.63-55.32,21.46.62,43.18,1.56,64.65.64.09,0-.24,24.59-.24,24.59,0,.89,60.88-.38,60.88-.38s-.44,27.12-.4,32.38C1145.85,66.49,1104.21,65.84,1062.89,65.71Z"/>
    <path d="M348.73,64c1.1-11.19-.15-31.92-1.11-45.16,11,.6,55.2.63,66.05,0l-.25,12.63c8.91.84,8.69.21,20.25-.4,0,.05-1.24,26.35-.11,33.7Z"/>
    <path d="M651.22,64c1.1-11.19-.14-37.47-1.11-50.71,11,.61,52.43.64,63.28,0l-.25,12.64c8.91.84,19.78.2,31.34-.41,0,0-1.24,31.9-.11,39.25Z"/>
    <path d="M302.89,65.31c-.61-6.1,1.14-33,1.14-33-13,.83-6.69,2.22-18.33,1.39-.28-4.16,0-21.63.37-28.19-10.63.18-54.93.08-65.78-.55l-.2,23.38c-8.91.83-8.24.54-19.8-.07,0,0,1.25,29.13.11,36.48Z"/>
    <path d="M923.24,60c-1.1-11.19-1.5-46.26-.54-59.5-11,.6-44.11.64-55,0L867.53,35c-8.9.84-49.82.55-61.38-.06,0,.05,1.24,18,.11,25.38Z"/>
  </g>
  <g class="treeFurthest">
    <path d="M1025.19,60.05c-11.64-16.36,18.58-38.54,28-23-.15-11.45,15.9-13.79,18.8-3.21-1-16.17,29.7-16.47,26.92,1.83,16.09-16.92,43.81,5.82,29.39,26.06C1128.33,61.71,1013.48,86.69,1025.19,60.05Z"/>
    <path d="M414.66,62c-13.31-10-.57-24.23,9.34-19.5-12.71-9.7,1.16-30.39,15-24C437.27,3.83,460.34-.42,466.27,13c4.12-8.67,18-5.13,15.88,5.56,5.56-8.22,24-.13,19.7,10.21,6.52-5.08,17.06,1.85,13.63,10.44,11.19-2.77,23.67,10.54,12.3,21.35Z"/>
    <path d="M5.69,62C-1,48.4,12.86,35.33,21.87,40.87c.47-11.41,21.67-14.46,26-4.88,4.89-11.7,26.65-8.27,28,3.92C80.55,30.66,95,35.65,90.81,47c8.41-10.17,28.28-1.39,20,15.52C120.61,60.07,5.69,62,5.69,62Z"/>
    <path d="M601.25,62.54c-18.29-15.8-1.1-37.15,14.15-28-9.15-11.37,12.53-20,17.74-9.43C644,12.68,664.63,23,657.47,37.69,667,31.27,686.38,49.51,670,61.43Z"/>
    <path d="M156.52,60.88c-15-8.87-7.48-41.31,11.58-35-3.7-8.34,14.79-18.64,20-8,10.83-12.43,31.52.73,24.36,15.37,11.72-7.31,30,15.15,11.72,28.18Z"/>
    <path d="M852,59.27c11.32-12-.6-36.65-13.46-30.87,1-11.38-19.65-17.1-25.19-8.15C809.94,8,787.92,8.65,785,20.57c-1.84-7.66-12.31-7.11-12.79.9-7-11.16-26.32-4.52-24,8.22-11.35-6.17-25.56,16.77-14.81,30.12Z"/>
    <path d="M914.84,46.46c-7.49-11.37,10.85-21.2,17.09-11-2-11.92,21.1-19.27,27.43-8,2.6-7.5,16.37-6.73,17.6,1.77,6.19-10.11,32.71,3.68,22.72,15.61C1048.32,82.57,870.2,82.51,914.84,46.46Z"/>
    <path d="M295.82,45.92c-10.81-4.81-15.58,9-8.43,15.24,0,0,48.37-.29,68.49,1.1,10.86.76,13.86-16.91-1.84-18.63,2.69-8-6.53-13.23-11.82-6.93.51-13.9-20.12-19-25.79-6.83C305.25,20.56,287.9,33.86,295.82,45.92Z"/>
    <path d="M1195.54,29.29c-14.53-6.12-26.17,21.88-15.63,31.87l87.06,1.1c16.08-13,1.12-38.26-13.21-35.26,2.7-8-6.52-13.24-11.82-6.93.51-13.9-20.11-19-25.79-6.84C1205,3.93,1187.62,17.22,1195.54,29.29Z"/>
  </g>
  <rect class="wall" x="0.5" y="58.19" width="1275.06" height="116.92"/>
  <rect class="ledge" x="0.5" y="58.19" width="1275.06" height="10.95"/>
  <g class="brickDark">
    <rect x="19.92" y="79.57" width="20.47" height="9.7"/>
    <rect x="144.68" y="79.5" width="20.47" height="9.7"/>
    <rect x="227.7" y="89.17" width="20.47" height="9.7"/>
    <rect x="331.86" y="89.1" width="20.47" height="9.7"/>
    <rect x="435.88" y="89.28" width="20.47" height="9.7"/>
    <rect x="518.98" y="79.57" width="20.47" height="9.7"/>
    <rect x="622.95" y="89.28" width="20.47" height="9.7"/>
    <rect x="685.07" y="89.03" width="20.47" height="9.7"/>
    <rect x="788.71" y="89.16" width="20.47" height="9.7"/>
    <rect x="850.94" y="89.13" width="20.47" height="9.7"/>
    <rect x="891.92" y="79.57" width="20.47" height="9.7"/>
    <rect x="996.15" y="79.5" width="20.47" height="9.7"/>
    <rect x="1079.18" y="89.17" width="20.47" height="9.7"/>
    <rect x="1183.34" y="89.1" width="20.47" height="9.7"/>
  </g>
  <g class="brickLight">
    <rect x="830.39" y="79.55" width="20.47" height="9.7"/>
    <rect x="747.28" y="79.52" width="20.47" height="9.7"/>
    <rect x="643.63" y="79.57" width="20.47" height="9.7"/>
    <rect x="560.53" y="89.03" width="20.47" height="9.7"/>
    <rect x="456.32" y="79.57" width="20.47" height="9.7"/>
    <rect x="373.58" y="79.5" width="20.47" height="9.7"/>
    <rect x="269.72" y="79.58" width="20.47" height="9.7"/>
    <rect x="165.14" y="89.06" width="20.47" height="9.7"/>
    <rect x="82.33" y="89.17" width="20.47" height="9.7"/>
    <rect x="1225.06" y="79.5" width="20.47" height="9.7"/>
    <rect x="1121.2" y="79.58" width="20.47" height="9.7"/>
    <rect x="1016.62" y="89.06" width="20.47" height="9.7"/>
    <rect x="933.81" y="89.17" width="20.47" height="9.7"/>
  </g>
</svg>
