<svg viewBox="0 0 1276.06 175.61">
  <g class="buildingsNearest">
    <path d="M614.49,64.43c-.72-5.27,.23-24.65,.23-24.65,0,0-19.41,.79-21.25,.21-.41-7.02,.44-21.07,.44-21.07,.1,.43-62.09,.06-62.09,.06,.59,0,1.34,14.77,.72,21.75-13.82,.3-39.52,.38-54.17,.08,.17,5.73,.83,19.98,1.04,25.71,34.83-1.38,100.18-2.62,135.07-2.09Z"/>
    <path d="M1055.07,63.05c-.72-5.27,.23-38.52,.23-38.52,0,0-19.41,.79-21.25,.21-.41-7.02,.44-12.75,.44-12.75-9.85,.37-35.08,.37-41.73,.1,0,2.22,0,4.44-.23,7.85-13.82,.3-28.43,.38-43.08,.08,.17,5.73,.83,39.39,1.04,45.12,34.83-1.38,69.68-2.62,104.57-2.09Z"/>
    <path d="M15.39,64.05c.49-7.88-.68-44.23-.63-44.23,21.46,.62,73.69,1.56,95.15,.63,.1,0-.24,10.73-.24,10.73,0,.89,60.88-.38,60.88-.38,0,0-.44,29.89-.4,35.15-41.3-1.13-113.44-1.78-154.76-1.91Z"/>
    <path d="M1062.89,65.71c.49-7.88-.68-55.32-.63-55.32,21.46,.62,43.19,1.56,64.65,.63,.1,0-.24,24.59-.24,24.59,0,.89,60.88-.38,60.88-.38,0,0-.44,27.12-.4,32.38-41.3-1.13-82.94-1.78-124.26-1.91Z"/>
    <path d="M348.73,63.99c1.1-11.19-.15-31.92-1.11-45.16,11,.6,55.2,.63,66.05,0l-.25,12.63c8.91,.84,8.69,.2,20.25-.41,0,.05-1.25,26.36-.11,33.71l-84.83-.77Z"/>
    <path d="M651.22,63.99c1.1-11.19-.15-37.47-1.11-50.71,11,.6,52.43,.63,63.28,0l-.25,12.63c8.91,.84,19.78,.2,31.34-.41,0,.05-1.25,31.9-.11,39.25l-93.15-.77Z"/>
    <path d="M302.89,65.31c-.6-6.11,1.14-32.99,1.14-32.99-13.03,.83-6.69,2.22-18.33,1.39-.28-4.16,0-21.63,.37-28.19-10.63,.18-54.92,.08-65.77-.55l-.2,23.38c-8.91,.84-8.23,.55-19.8-.06,0,.05,1.25,29.13,.11,36.48l102.48,.55Z"/>
    <path d="M923.24,60.03c-1.1-11.19-1.51-46.26-.54-59.5-11,.6-44.11,.63-54.96,0l-.2,34.47c-8.91,.84-49.82,.55-61.39-.06,0,.05,1.25,18.04,.11,25.39l116.98-.3Z"/>
  </g>
  <g class="treeFurthest">
    <path d="M1025.19,60.05c-11.65-16.36,18.58-38.54,28.03-23.01-.16-11.45,15.9-13.8,18.79-3.21-.97-16.18,29.7-16.48,26.93,1.82,16.08-16.91,43.81,5.82,29.39,26.06,0,0-114.85,24.98-103.14-1.66Z"/>
    <path d="M414.66,61.99c-13.31-9.98-.56-24.23,9.35-19.5-12.71-9.7,1.15-30.38,14.98-24-1.72-14.66,21.35-18.91,27.28-5.45,4.12-8.67,18.01-5.13,15.88,5.56,5.56-8.23,24.01-.13,19.7,10.21,6.52-5.08,17.05,1.85,13.62,10.44,11.19-2.77,23.67,10.54,12.3,21.35l-113.12,1.39Z"/>
    <path d="M5.69,61.99c-6.65-13.59,7.17-26.66,16.18-21.12,.47-11.41,21.67-14.46,26.02-4.88,4.89-11.7,26.65-8.27,28,3.92,4.67-9.26,19.08-4.27,14.92,7.1,8.41-10.17,28.28-1.39,19.96,15.53,9.83-2.47-105.08-.55-105.08-.55Z"/>
    <path d="M601.25,62.54c-18.3-15.8-1.11-37.15,14.14-28-9.15-11.37,12.54-20.02,17.74-9.43,10.83-12.43,31.49-2.07,24.33,12.58,9.48-6.42,28.9,11.82,12.54,23.74l-68.76,1.11Z"/>
    <path d="M156.52,60.88c-14.97-8.87-7.49-41.31,11.58-34.96-3.71-8.34,14.78-18.63,19.99-8.04,10.83-12.43,31.52,.73,24.37,15.37,11.71-7.31,30.01,15.15,11.71,28.18l-67.65-.55Z"/>
    <path d="M851.95,59.27c11.32-11.97-.6-36.65-13.45-30.86,.99-11.38-19.65-17.1-25.19-8.15-3.36-12.23-25.38-11.6-28.27,.32-1.84-7.66-12.3-7.11-12.79,.89-7.05-11.16-26.32-4.51-23.99,8.23-11.36-6.18-25.57,16.77-14.81,30.12l118.5-.55Z"/>
    <path d="M914.84,46.46c-7.49-11.37,10.85-21.2,17.09-11.01-2.04-11.91,21.09-19.27,27.42-8.03,2.6-7.49,16.38-6.72,17.61,1.77,6.18-10.1,32.7,3.69,22.72,15.61,48.64,37.78-129.48,37.71-84.84,1.66Z"/>
    <path d="M295.82,45.92c-10.81-4.81-15.58,9-8.43,15.23,0,0,48.37-.28,68.48,1.11,10.86,.75,13.86-16.91-1.84-18.63,2.7-8.04-6.52-13.23-11.82-6.93,.51-13.9-20.12-19.02-25.8-6.83-11.18-9.3-28.52,3.99-20.6,16.06Z"/>
    <path d="M1195.54,29.29c-14.53-6.12-26.17,21.89-15.64,31.87l87.06,1.11c16.08-13.03,1.13-38.27-13.21-35.27,2.7-8.04-6.52-13.23-11.82-6.93,.51-13.9-20.12-19.02-25.8-6.83-11.18-9.3-28.52,3.99-20.6,16.06Z"/>
  </g>
  <rect class="wall" x=".5" y="58.19" width="1275.06" height="116.92"/>
  <rect class="ledge" x=".5" y="58.19" width="1275.06" height="10.95"/>
  <g class="brickDarker">
    <rect x="19.92" y="79.57" width="20.47" height="9.7"/>
    <rect x="144.68" y="79.5" width="20.47" height="9.7"/>
    <rect x="227.7" y="89.17" width="20.47" height="9.7"/>
    <rect x="331.86" y="89.1" width="20.47" height="9.7"/>
    <rect x="435.88" y="89.28" width="20.47" height="9.7"/>
    <rect x="518.98" y="79.57" width="20.47" height="9.7"/>
    <rect x="622.95" y="89.28" width="20.47" height="9.7"/>
    <rect x="685.07" y="89.03" width="20.47" height="9.7"/>
    <rect x="788.71" y="89.16" width="20.47" height="9.7"/>
    <rect x="850.94" y="89.13" width="20.47" height="9.7"/>
    <rect x="891.92" y="79.57" width="20.47" height="9.7"/>
    <rect x="996.15" y="79.5" width="20.47" height="9.7"/>
    <rect x="1079.18" y="89.17" width="20.47" height="9.7"/>
    <rect x="1183.34" y="89.1" width="20.47" height="9.7"/>
  </g>
  <g class="brickDark">
    <rect x="830.39" y="79.55" width="20.47" height="9.7"/>
    <rect x="747.28" y="79.52" width="20.47" height="9.7"/>
    <rect x="643.63" y="79.57" width="20.47" height="9.7"/>
    <rect x="560.53" y="89.03" width="20.47" height="9.7"/>
    <rect x="456.32" y="79.57" width="20.47" height="9.7"/>
    <rect x="373.58" y="79.5" width="20.47" height="9.7"/>
    <rect x="269.72" y="79.58" width="20.47" height="9.7"/>
    <rect x="165.14" y="89.06" width="20.47" height="9.7"/>
    <rect x="82.33" y="89.17" width="20.47" height="9.7"/>
    <rect x="1225.06" y="79.5" width="20.47" height="9.7"/>
    <rect x="1121.2" y="79.58" width="20.47" height="9.7"/>
    <rect x="1016.62" y="89.06" width="20.47" height="9.7"/>
    <rect x="933.81" y="89.17" width="20.47" height="9.7"/>
  </g>
</svg>