<svg viewBox="0 0 516.83 419.78">
  <g class="treeTrunk">
    <path d="M465,260.79c-2.09,6.31-3.29,14.12-2,20.37,3.37,16.55,12.85,33.7,18.23,50.63,7.65,24,13.16,48.53,17.91,73.28,4,6,10.39,10.09,16.15,14.21H461.47c5.35-3.69,13.63-8.74,15-14.71,3.8-16.17-2.78-39.92-6.79-57.82-4.5-20-9.88-44.82-21.89-61.94-10.32-10.72-22.63-17-35.53-24Z"/>
    <path d="M156.16,266.49c-7.15,9.36-12.63,20.2-12.46,32.24,3.92,18.66,10.32,36.8,14.48,55.44,3.48,15.58,4.35,32.67,8.9,47.34,2.28,7.36,10.21,13.09,16.21,17.77h-58.7c6.64-4.39,14.56-9.83,17.19-16.69,4.73-12.3-.2-32.83-2.44-46.86-2.81-17.68-6.61-36.12-13.64-52.68-11.78-16.18-29.85-26.73-47-36.27Z"/>
  </g>
  <path class="treeFurther" d="M356.46,132a28,28,0,0,1,9.33-9.66A28.8,28.8,0,0,1,379.44,131c3-5.68,8-9.85,14.65-12.65a28.39,28.39,0,0,1,16,12A17.81,17.81,0,0,1,421.4,125a15.89,15.89,0,0,1,6,11.65c7.52-3.49,16-2.37,25,1.34,3.52,6.07,4.88,14.25,5.33,23.3a18.7,18.7,0,0,1,10,3.67,23.06,23.06,0,0,1-1.33,11.32c6.36,1.18,12.44,4.53,18.31,9.32a46.4,46.4,0,0,1-5.32,21c6,5.39,10.46,12.68,13.32,22a45.52,45.52,0,0,1-14.32,16,40.67,40.67,0,0,1,4,21c-7.36,4.06-14.69,5.87-22,5a15.91,15.91,0,0,1-5.66,7.33c-3.48-.54-6.71-1.32-9.33-3.33-2.16,4.1-4.09,7.89-7.32,9.66a25.67,25.67,0,0,1-16.32-4Z"/>
  <path class="wallMediumSide" d="M117.89,103A1103.55,1103.55,0,0,0,61.53,3Q107.67.08,154.24.58c20.11,33,38.77,66.83,55.4,101.33,48.75,101.19,80.73,208.8,90.84,317.37H207C199.12,311,167.47,203.52,117.89,103Z"/>
  <path class="wallMediumFront" d="M208.73,101.92A1102.66,1102.66,0,0,0,151.43.58q75,.68,150,1.85c19.93,32.67,38.39,66.14,54.87,100.3,48.62,100.8,81.72,208.32,92,316.55H297.79C290.32,310.63,258.59,202.74,208.73,101.92Z"/>
  <path class="doorMediumFront" d="M337.42,294l34.21-.18a851.64,851.64,0,0,1,20.69,125.46h-35.2A818.1,818.1,0,0,0,337.42,294Z"/>
  <g class="frameMediumSide">
    <path d="M140.19,81.71a1021.36,1021.36,0,0,1,48,106.46l44,.05A1039.38,1039.38,0,0,0,184.58,82Q162.38,81.79,140.19,81.71Z"/>
    <path d="M219.44,289a805.39,805.39,0,0,1,18.25,109.79q22.26-.12,44.49-.37a823.93,823.93,0,0,0-18.69-109.57Q241.46,289,219.44,289Z"/>
  </g>
  <g class="frameMediumFront">
    <path d="M217.71,82.21a1026.87,1026.87,0,0,1,47.55,106.05l32.19,0A1044.5,1044.5,0,0,0,250.17,82.42Z"/>
    <path d="M296.5,288.73a816.19,816.19,0,0,1,18.72,109.38l22.88-.21a826.8,826.8,0,0,0-19-109.26Z"/>
    <path d="M298.7,82.8a1068.28,1068.28,0,0,1,46.84,105.57l32.19,0A1082.59,1082.59,0,0,0,331.2,83.09Z"/>
    <path d="M386.34,288.33A859.23,859.23,0,0,1,406,397.15l22.88-.3A871.61,871.61,0,0,0,409,288.2Z"/>
    <path d="M258.67,82.48a1047.34,1047.34,0,0,1,47.21,105.83l32.18.05A1062.86,1062.86,0,0,0,291.15,82.73Z"/>
    <path d="M371.63,293.82c-.52-2.16-.79-3.24-1.33-5.41l-34.2.16c.54,2.17.8,3.26,1.32,5.43Z"/>
  </g>
  <g class="glassMedium">
    <path d="M149.8,90.79q23,45.42,41.4,92.48l34.28,0q-18.24-47-41.17-92.34Q167.06,90.86,149.8,90.79Z"/>
    <path d="M225.62,294.48a811.77,811.77,0,0,1,16.53,99.31q17.31-.1,34.61-.28a828.1,828.1,0,0,0-16.84-99.16Z"/>
  </g>
  <g class="glassLight">
    <path d="M222.45,91.25q22.83,45.26,41.05,92.13l32,.05q-18.09-46.81-40.82-92Z"/>
    <path d="M297.81,294.16a820.84,820.84,0,0,1,16.91,99l22.87-.2a831.48,831.48,0,0,0-17.12-98.85Z"/>
    <path d="M303.35,91.79q22.41,45.1,40.44,91.72l32,.06q-17.9-46.51-40.18-91.5Z"/>
    <path d="M387.67,293.74a864.47,864.47,0,0,1,17.74,98.45l22.86-.3a876.39,876.39,0,0,0-17.95-98.29Z"/>
    <path d="M263.37,91.5q22.62,45.18,40.75,91.94l32,.06q-18-46.68-40.5-91.77Z"/>
  </g>
  <g class="windowDisplayLine">
    <path d="M172,137l34.36.11"/>
    <path d="M235.57,344.1q17.22-.08,34.42-.2"/>
    <path d="M324.91,137.61l32.1.17"/>
    <path d="M285.12,137.43l32.09.14"/>
    <path d="M244.39,137.27l32.08.12"/>
    <path d="M307.91,343.61l22.74-.15"/>
    <path d="M398.09,342.93l22.73-.22"/>
  </g>
  <g class="roofBelow">
    <path d="M182.39,18.92q73.86.67,147.76,1.8c-1.76-3-3.54-6-5.33-9q-74-1.19-148-1.89Q179.62,14.38,182.39,18.92Z"/>
    <path d="M291.2,266.81q72.41-.19,144.8-.52-7.78-27.54-17.14-54.73H274.07Q283.49,239,291.2,266.81Z"/>
  </g>
  <g class="roofFront">
    <path d="M195.75,10.1q72.45.76,145,2c-1.81-3-3.62-6.05-5.46-9.07Q262.62,1.74,190,1C192,4,193.85,7.05,195.75,10.1Z"/>
    <path d="M292.62,211.65H434.34q-1.59-4.59-3.23-9.19l-141.76-.09Q291,207,292.62,211.65Z"/>
  </g>
  <g class="roofSide">
    <path d="M190,1c1.93,3.05,3.83,6.1,5.73,9.15l-18.89-.18q2.79,4.5,5.53,9l-19.61-.16Q157.17,9.64,151.43.58Z"/>
    <path d="M289.35,202.37q1.66,4.63,3.27,9.28H274.11q9.39,27.4,17.09,55.16l-19.27,0q-9-32.52-20.37-64.5Z"/>
  </g>
  <path class="treeCloser" d="M132.75,294.53c-6,6.59-17.3,5.63-20-4.32-2.4,10.72-15.77,15.3-25.55,7.86-6.82,13.16-30.3,13.55-34.59-2.36-5.44,6.36-15.37,3.12-14.94-5.11-13,2.31-24.1-13.15-19.66-25.16C11,264.09,7.8,255.12,14.42,250.5,6.08,248.05,2.64,237.37,10.1,232-2.7,224.77-3.46,200,12.46,194.68c-3.71-8.66,2.4-15.91,10.61-12.19-5.73-16.51,5.53-32,22.41-28.3-.84-19.51,17.67-29.63,36.17-20.05,2.5-8.62,11.09-10.34,17.29-4.32,13.07-7.17,29.3-1.44,33.42,14.15,8.09-5.86,18.4.25,17.29,10.22,12.37-10.73,31.65-7.87,37.74,9,9.18-4.12,18.53,4.47,15.73,14.15,14.25-4.72,26.47,10,19.26,22.8,14.08,0,23.63,24.4,13.76,33.81,8.34,4.14,4.71,19.22-4.72,18.08,6.76,11.06-1.64,28.62-17.29,28.7,1.53,14.24-15.65,26.65-29.1,20.05-4.11,8.12-19.76,9.84-24.37,2.36C151.71,310.85,135.87,306.84,132.75,294.53Z"/>
</svg>
