<svg viewBox="0 0 504.88 302.83">
  <g class="foliageFar">
    <path d="M.5,217.1V176.36c1.74-8.11,14.77-9.55,16.24,0,2.29-9.55,20.54-8.68,20.25,2.9,7.82-9.56,22.59-1.74,20.85,11.58,5.48-9.55,16.79-9.26,20.27,0v26.35Z"/>
    <path d="M504.38,186.79c0-5.79-4.05-11.87-9.55-11,2.6-7.53-5.51-12.16-12.17-8.1-5.79-6.67-14.77-2.32-15.35,5.79-7.52-2.61-15.92,2.31-13.32,12.16H260.84l-2.61-17.95c.29-10.43-13.32-15.64-20.85-9.27-4.92-8.11-18.53-2.9-17.95,6.08-7.53-1.74-11.88,4.63-10.14,10.71a4.07,4.07,0,0,0-6.66-.28c3.48-12.17-11.29-17.09-18.53-9.85-5.5-10.14-18.54-7.24-20.27,3.47v97.31H504.38Z"/>
  </g>
  <g class="whiteDark">
    <path d="M89.05,171c3.34-57,6.27-114.06,11.34-171,2,56.42,3.49,112.86,5.59,169.27"/>
    <path d="M127.4,169.31C125.31,112.9,123.79,56.46,121.81,0c-5.06,56.9-8,114-11.33,171"/>
  </g>
  <g class="flatRedMedium">
    <path d="M101.55,34.25Q101,17.15,100.39,0q-1.5,16.74-2.77,33.49A20.85,20.85,0,0,1,101.55,34.25Z"/>
    <path d="M93.05,102.3a64.79,64.79,0,0,1,10.64-.14q-.54-16.83-1.06-33.66A51.53,51.53,0,0,0,95.2,68Q94.09,85.15,93.05,102.3Z"/>
    <path d="M104.76,134.91a111.19,111.19,0,0,0-13.68,1q-1,17.56-2,35.13c6.45,2.07,11,1.38,16.93-1.69Q105.34,152.12,104.76,134.91Z"/>
    <path d="M119,33.53Q120.33,16.79,121.81,0q.6,17.1,1.16,34.21A20.71,20.71,0,0,0,119,33.53Z"/>
    <path d="M125.12,102.13c-3.57-.19-7.05.1-10.64.2q1-17.16,2.15-34.33a51.53,51.53,0,0,1,7.43.5Q124.59,85.32,125.12,102.13Z"/>
    <path d="M112.51,135.87a119.37,119.37,0,0,1,13.68-1q.59,17.21,1.21,34.4c-6,3.1-10.54,3.74-16.92,1.69Q111.5,153.44,112.51,135.87Z"/>
  </g>
  <path class="dullYellowDark" d="M200.59,204.74a295.94,295.94,0,0,1,1-35.61q-66.33-2.3-132.67,0a293.94,293.94,0,0,1,1,35.61Q135.31,203.17,200.59,204.74Z"/>
  <path class="whiteDark" d="M69,169.13q66.33-2.3,132.67,0-.44,4.27-.7,8.57-65.62-2.12-131.28,0Q69.39,173.41,69,169.13Z"/>
  <path class="buildingsFar" d="M265.9,204.45q97.76-1.37,195.58.84a224.07,224.07,0,0,1,0-37.36c-14.72-.54-43.67-1.46-43.67-1.46s.5-6.73.83-10.52c-14.63-.58-29.79-1.6-44-1.31,0,3.82.17,7.67.09,11.49-22.19-.5-44.2-.92-66-.24-.06-3.72,0-7.52-.16-11.25-14.94.12-29.25.58-44.31,1.49.41,3.68.73,7.08,1,10.76-7.26.3-15.23.79-21.77,1.14a217.19,217.19,0,0,1-.17,36.78Q254.65,204.62,265.9,204.45Z"/>
  <path class="foliageMiddle" d="M504.38,266.42V198.89c-1.18-8.63-15.36-11.52-21.86-4,0-10.14-19.49-14.19-22.74-3.77A13.14,13.14,0,0,0,440,199.24c-2.36-9.85-15.07-14.48-24.52-8.11-6.2-9-22.15-8.11-26.88,2.32-8.86-5.21-18.31.58-19.79,9.27-2.95-7.24-13.29-11-19.79-3.77-5.31-7.53-16.54-6.08-21.26,1.74.59-10.43-9.46-16.8-20.68-11-2.36-7.81-12.11-10.13-18.91-4.92-7.08-7.82-20.67-3.47-22.74,6.66-7.68-4.34-17.13-.58-19.49,7-5.32-6.37-14.48-6.08-17.73,1.45-3.84-6.66-14.47-6.95-18.31,0C207.82,192,195.12,188,189.8,194c-2.66-6.95-12.7-9-18-2.32-5.32-8.4-19.2-7.24-23.64,3.19-9.15-5.22-19.79-.29-20.08,9.84-1.77-5.21-8.57-5.5-12.41-2.31-.29-7.53-14.18-10.72-17.13-4.06-1.77-8.11-19.49-7.24-20.08,2.32-7.29-6.95-19.16-.87-18.85,10.44-2.34-6.68-12.77-6.68-14.79,1.43C46,203,35,201,30.33,207.35c-1.45-7.53-13-8.69-15.36-.77-2.6-7.34-13-5-14.47,1.35v58.49Z"/>
  <g class="buildingsNear">
    <path d="M404.9,240c.9-9.49.34-19.13-.06-28.64,3.55-.17,10.35-.29,11.52-.29.29,0,.1-4.56-.06-7.39,6.8,0,13.87.15,21.13.46-.11,2.77-.28,4.45-.39,7.22,15.36.29,30.57.73,45.84,1.14a216.6,216.6,0,0,0-.18,29.27Q443.79,241.53,404.9,240Z"/>
    <path d="M295.53,241.24c.38-7.05.15-14.07,0-21.13,3.06-.16,5.37-.6,9.83-.72-.05-3.54-.07-6.21-.19-9.74,7.2-.43,14.67-.43,22.3-.22-.05,3.57-.09,6.27-.13,9.84,7.82-.05,14.61-.34,22.06.23-.23,7.25-.69,14.46-.34,21.72Q322.27,241.83,295.53,241.24Z"/>
    <path d="M172.67,247.89q.3-15.37-.65-30.71c3.7-.29,7.41-.94,11.11-.9-.12-2.25-.19-3.08-.33-5.33,6.9-.59,14.09-.68,21.4-.57,0,2.25,0,3.38,0,5.63,3-.26,7.41.09,11.12,0q-.1,15.38,1,30.7Q194.52,248,172.67,247.89Z"/>
  </g>
  <path class="foliageNear" d="M.5,232.54c0-7.53,15.4-8.88,18.35-1.93,3.25-3.19,9.75-2,10.93,2.9,4-5.6,15.3-2.9,15,3.18.59-4.34,6.39-4.44,8.27-1.74.45-7.43,9.41-8.2,12.8-4.14,2.36-6.09,14-3.77,12.11,5.21,1.88-4.64,9.41-5.79,11.7-.29,1.18-4.06,6.68-4.64,8-1.45-1.87-6.66,7.4-13,10.59-8.11-.87-5.5,7-7.53,8.39-2.31,3-6.38,12.93-8.11,15.58-1.16a5.52,5.52,0,0,1,9.75.87c5-4.64,12.11-2,13.59,4.63A8.79,8.79,0,0,1,167.65,236c1.48-4.06,6.5-4.93,9.45-1.45.3-6.08,7.09-8.4,11.23-3.48,2.06-3.47,10.63-1.44,10,3.48,4.43-2,10.63.58,10.63,6.08,1.18-4.63,6.5-6.66,9.75-5.21,0-6.08,7.38-9,11.82-5.79,1.18-4.35,7.38-5.22,10-1.16,3.25-5.5,13.59-5.79,16.54,1.16,3.25-3.19,9.75-2,10.93,2.89,5.32-2.31,12.4,2.9,12.11,9a5.77,5.77,0,0,1,8.27-4.63c.89-5.8,7.09-7.82,12.41-4.06,2.65-4.63,9.15-4.05,10.63,1.16a8,8,0,0,1,12.11,4.06c1.18-4.93,6.5-6.67,10.63-3.48-.29-5.79,6.5-9.27,11.52-5.21,2.07-4.35,8.86-5.5,12.7-.58a7.11,7.11,0,0,1,13-.29c1.77-4.06,6.79-4.35,9.16-.58,4.13-6.08,12.7-4.34,14.18,2.32a4.29,4.29,0,0,1,7.38,2.6c3.25-2.31,8.57.29,8.86,4.35,0-4.93,5.91-8.4,9.75-6.09a4.81,4.81,0,0,1,8-3.76c1.48-6.37,8.87-7.53,13.3-2.61,2.36-2.89,8-2,9.45,1.74,4.13-2.89,10.63-.87,10.63,5.21,2.07-2.31,5.91-.58,7.09,2-.88-3.76,4.43-6.66,6.8-4.92.88-4.92,9.45-7.24,13.29-2.32,2.95-3.76,8-2,8.56,2,2.66-1.74,6.21-.58,6.5,2.32v71.52H.5Z"/>
</svg>
