<svg viewBox="0 0 61.45 466.7">
  <path class="steelMedium" d="M36.18,452.74q4.77-162,2.49-324.11-.3-20.72-.7-41.41l-11.56.22q.54,26.78.86,53.53.48,37.2.56,74.41Q28.12,334,24.62,452.57c-9.1,1-19.2,5.18-23.78,13.63h59.8C56,457.12,45.39,454.58,36.18,452.74Z"/>
  <path class="whiteMediumDark" d="M10.57,139.77c3,6.19,9.58,7,23.54,20.9,3.16,3.12,5,6.76,7.21,10.85,3.53-2.9,6.63-5.92,11.58-7.18,2.51-.64,4-2,3.42-3.3l-33.27-47.5C14.6,124.49,6.42,133,10.57,139.77Z"/>
  <g class="flatRedDarker">
    <path d="M34.58,148.58c-8.43-7.86-16.58-11.73-21.35-15.31a5.15,5.15,0,0,1-1.94-3.62c-2,3.76-2.57,7.12-.72,10.12,3,6.19,9.58,7,23.54,20.9,3.16,3.12,5,6.76,7.21,10.85a49.51,49.51,0,0,1,7.2-5.42S41.94,155.72,34.58,148.58Z"/>
    <path d="M55.1,163.44c-3.44-6-5.89-11.6-13.26-18.35-9-8.25-11.92-10.34-20.66-15.7-3.81-2.4-5.46-4.26-5.67-6.18,2.23-3,4.87-6.21,7.54-9.67L56.32,161c.4.85-.11,1.72-1.22,2.41Z"/>
  </g>
  <path class="whiteMediumLight" d="M28.76,8.52c4.15,8,10.44,41.14,12.64,56.06S47,97.64,49.88,112.9A438,438,0,0,1,56.32,161c-1.94-3-4.29-5-7.8-4.07-6,1.67-11,3.54-15.59,2.21-5-1.3-9.81-2.47-14.74-1.53C22.22,125.82,25.51,67.9,28.76,8.52Z"/>
  <g class="flatRedMediumDark">
    <path d="M39.14,159.39A87.55,87.55,0,0,0,48.52,157"/>
    <path d="M24.36,83.82h0"/>
    <path d="M40.64,85.75h0"/>
    <line x1="34.11" y1="85.27" x2="34.11" y2="85.27"/>
    <path d="M39.13,159.31c1.38-23.68-3.89-46.29-5-74a17.14,17.14,0,0,1,4.8,0,8.75,8.75,0,0,1,1.73.46C43,113.17,48.52,134.48,48.52,157Z"/>
    <path d="M28.91,85.14c-.28,28.13,1.35,51.44.28,73.12a26.77,26.77,0,0,0-11-.61c2.26-17.85,4.29-43.91,6.21-73.82,1.5.15,2.42.89,4.51,1.31Z"/>
  </g>
  <path class="flatBlueMediumDark" d="M24.36,83.82c2,.19,2.94,1.42,6.89,1.59,2.47.11,4.54-.63,7.66-.12,2.85.47,4.5,1.95,6.57,3.85C44,80.66,42.53,72.2,41.4,64.58,39.2,49.66,32.91,16.51,28.76,8.52,27.33,34.6,25.9,60.4,24.4,83.83Z"/>
  <path class="whiteMedium" d="M15.83,82.5c-4.46,18.31-7.34,33.69-8.18,45.42,0,6.38.67,8.42,2.92,11.85a12.53,12.53,0,0,1,3.67-11.65c4.56-4.07,8.18-7.47,10.49-11.52C34.24,99,24.91,90.79,15.83,82.5Z"/>
  <g class="flatRedDark">
    <path d="M27.37,96.32c-1.33,6.07-3.46,10.08-9.49,16.22-4.49,4-8.06,7.1-9.83,10.93-.16,1.54-.3,3-.4,4.45,0,6.38.67,8.42,2.92,11.85a12.53,12.53,0,0,1,3.67-11.65c4.56-4.07,8.18-7.47,10.49-11.52C29.4,107.93,29.53,101.55,27.37,96.32Z"/>
    <path d="M24.35,91.19a43,43,0,0,0-4.07-4.53,48,48,0,0,1-4.43,5.45c-1,1-2,1.88-2.88,2.76q-1.56,7.11-2.71,13.48a69.22,69.22,0,0,1,6.92-7C20.85,97.47,23,94.45,24.35,91.19Z"/>
  </g>
  <path class="whiteMediumLight" d="M28.76,8.52,8.49,88.9c.76-1.89,2.53-1.58,4.61-1,3.28,1,6.9,3.38,12,10,4.71,6.11,2.67,10.69-.34,18.71,5.15-7.34,6.18-18.9,5.95-32.07C31.29,63.91,30.3,37.24,28.76,8.52Z"/>
  <g class="flatRedMediumDark">
    <path d="M30.68,91.06C25.85,82.65,18.57,75.48,11.76,76.7L8.49,88.9c.76-1.89,2.53-1.58,4.61-1,3.28,1,6.9,3.38,12,10,4.71,6.11,2.67,10.69-.34,18.71C29,110.5,30.44,101.49,30.68,91.06Z"/>
    <path d="M14.47,65.82,17,55.54c5-1.1,9.94,3.34,13.79,9.69.05,4.68.05,9.18,0,13.45C26.57,71.42,20.79,65.34,14.47,65.82Z"/>
  </g>
  <path class="flatBlueMediumDark" d="M30.61,52.6c-3.22-5.07-7-8.3-11.24-6.41L28.76,8.52C29.59,24,30.26,38.92,30.61,52.6Z"/>
  <path class="bronzeDark" d="M23.12,7.82a7.07,7.07,0,1,1,14.14-.43,7.07,7.07,0,1,1-14.14.43Z"/>
</svg>
