<svg viewBox="0 0 613.19 400.93">
  <path class="treeTrunk" d="M156.42,317.92q-.61,27.34-1.64,54.7c9.06,11.5,20.82,20.16,33.61,27.76q-52.21,0-104.43-.14c13.18-7.16,25.38-15.7,35.17-27.62,1.24-27.47,2.48-54.95,3.09-82.44a162.55,162.55,0,0,1-18-27.22l4.31-3.13a98.34,98.34,0,0,0,14.59,15.7c.34-21.54,1.11-43.08,1.08-64.62,11.53-.11,20-.21,31.52-.3.15,23.4.7,46.79.43,70.19,9.7-8.36,15.7-15.49,23.08-23.25l5.76,5.27a410.3,410.3,0,0,1-28.48,35C156.39,304.51,156.57,311.22,156.42,317.92Z"/>
  <path class="treeCloser" d="M209.79,261.48c-2,9.69-17.44,15.9-22.7,5.39-8.32,8-24.08,3.55-24.08-8.93-7,5.28-21.2-1.1-17.37-10.8-2.46,4.56-9.63,5.12-11.94.08,3.22,8.34-6.34,23.15-15.4,15.34-2.26,9.53-16.53,13.16-20.22,2.62-3.37,7.6-13.62,5.27-15.89-1.75C71.54,268.5,58.47,260,61.79,247.8c-9.27,3.49-19.12-8.24-13.15-16.58-5.73,3.21-14.42,2-14.41-6C26.33,232.79,10.33,227,13,215c-6.28.61-9.43-7.08-5-11.34-10-3.33-10.25-19.91.82-21.91-1.19-7.38,4.7-19.17,13.77-14.13-3.76-2.69-3.17-9.92,2.16-10.23-8.66-6.47-8.07-21.82,3.44-24.79-4.37-4.28-1.61-12.39,5.13-10-.26-8.92,8.38-18.2,17.62-13.36,3.35-10.45,17.14-11.1,24.5-4.83A9.82,9.82,0,0,1,86,91.16c-4.91-9.9,5.47-20,15.33-16.14a7.47,7.47,0,0,1,11.41-7.67c5.59-9.92,20.9-9.76,24,2.08C140.8,65,149.47,65.75,149.3,73c10.18-4.33,19.34,7.59,15.87,16.93,5.93-3.41,14.5.21,14.19,7.63,3-12.39,22.22-11.87,27.18-1.2"/>
  <path class="wallSide" d="M459.66,71.36q-.51,164.49-3,329-127.81.18-255.63.08,6.62-164.8,1.07-329.77,61.91-.5,123.81-.38,32.79-29.18,65.88-58Q425.9,41.59,459.66,71.36Z"/>
  <path class="bushFurther" d="M598.1,400c9.72-.72,17.48-15.18,8.95-22.22,5-1,6.1-8.11,1.24-10.17,7.49-7.6,5.46-23.7-6.36-25.6,8.72-8.65,5.17-25.1-7.52-27.48,4.92-3.53,3.44-12.79-3.59-11.75,4.21-8.92-7.18-16.19-14.88-14.62-2.23-12.23-18.57-13-23.54-2.32-6.68-2.64-13.54,4.92-8.37,10.8-8.72-.13-17.09,11.79-9.66,18.86-8.9-.45-14.18,12.27-7.52,18.28Q516.73,367,506.53,400.24,552.31,400.17,598.1,400Z"/>
  <path class="bushCloser" d="M458.81,400.31c-7.19-.26-9.34-9.46-5.11-14.32-12.13-6.84-11-27.06,3-31.15-5.14-4.79-.27-13.77,6.6-11.82-9.84-9.8-.3-30.86,14.12-27.68-5-16.72,19.53-27.44,28.61-12.64,7.81-1.65,12.66,7,8.74,13.39,11.52,1.06,17.39,16.24,10.49,25.17,12,3.1,15.49,18.45,6.83,27,4.7,3.42,5.14,11.11-.11,14.27,7.46,5.28,2.63,17-5.68,17.68Q492.54,400.28,458.81,400.31Z"/>
  <path class="wallFront" d="M203.37,246.77q-.51,76.85-3.59,153.63,61.44,0,122.88,0,2.19-76.89,2.79-153.82L266.9,196.35Z"/>
  <g class="frameDarkFront">
    <path d="M304.51,89q.66,40.65.86,81.3-39.92,0-79.82.17-.42-40.62-1.52-81.24Q264.28,89,304.51,89Z"/>
    <path d="M233.67,353.24q1.4-50.94,1.79-101.88,30.75-.08,61.5-.08-.42,51-1.63,101.94Z"/>
  </g>
  <path class="doorDarkFront" d="M240.72,353.23q1.28-47,1.72-94.07,23.7,0,47.42-.06-.45,47.07-1.58,94.12Z"/>
  <path class="stepFront" d="M224.56,388.23q.21-5.62.39-11.25h4l.39-12.18h4c.11-3.86.23-7.71.34-11.56l61.62,0q-.14,5.77-.29,11.57h4.65q-.16,6.09-.32,12.19h4.11c-.1,3.75-.21,7.5-.31,11.25h3.45q-.16,6.11-.36,12.2-42.9,0-85.81,0,.24-6.09.46-12.18h3.69Z"/>
  <g class="stepOverlapLine">
    <path d="M224.56,388.23h78.57"/>
    <path d="M299.33,377H229"/>
    <path d="M295,364.79H233.33"/>
  </g>
  <g class="glassMediumDark">
    <path d="M299.34,94.29q.57,35.34.78,70.68-34.69,0-69.4.15-.41-35.33-1.29-70.63Q264.38,94.31,299.34,94.29Z"/>
    <path d="M414.69,85.17q-23.22-.23-46.46-.37,1.2,137-1.53,274.05l46,0Q415.05,222,414.69,85.17Z"/>
  </g>
  <g class="glassDark">
    <path d="M414.69,85.17q11.78,5,23.53,9.92-.15,129.09-2.07,258.18l-23.41,5.6Q415.05,222,414.69,85.17Z"/>
    <path d="M368.23,84.8l-23.42,9.58q1.37,129.42-1.31,258.84l23.2,5.63Q369.43,221.84,368.23,84.8Z"/>
  </g>
  <g class="windowDisplayLine">
    <path d="M299.82,129.63q-34.8,0-69.61.18"/>
    <path d="M252.62,94.38q.78,35.33,1.12,70.65"/>
    <path d="M276,94.32q.67,35.33.95,70.66"/>
  </g>
  <g class="bayWallFront">
    <path d="M414.67,75.81q-23.26-.23-46.52-.38c0,3.12.06,6.25.08,9.37q23.24.15,46.46.37Q414.69,80.49,414.67,75.81Z"/>
    <path d="M414.59,186.28q.06-13.26.09-26.53-23-.15-46.08-.26,0,13.27,0,26.56Q391.59,186.14,414.59,186.28Z"/>
    <path d="M413.79,285.22l-45.9-.11q.17-13.53.3-27.05,22.94,0,45.89,0Q413.95,271.65,413.79,285.22Z"/>
    <path d="M412.26,386H366.12q.31-13.59.58-27.18l46,0Q412.52,372.45,412.26,386Z"/>
  </g>
  <g class="bayWallSide">
    <path d="M414.69,85.17q0-4.68,0-9.36,11.79,5.26,23.56,10.55,0,4.36,0,8.73Q426.46,90.11,414.69,85.17Z"/>
    <path d="M414.68,159.85,438,163.76q-.06,12.19-.14,24.39l-23.29-1.72Q414.65,173.14,414.68,159.85Z"/>
    <path d="M437.32,258.61l-23.24-.41q-.13,13.44-.29,26.9l23.29-3.35Q437.22,270.19,437.32,258.61Z"/>
    <path d="M412.74,358.87l23.41-5.6q-.18,12.32-.38,24.63L412.26,386Q412.52,372.45,412.74,358.87Z"/>
    <path d="M368.23,84.8c0-3.12-.05-6.25-.08-9.37q-11.73,5.08-23.44,10.2,0,4.37.1,8.75Z"/>
    <path d="M368.6,159.59l-23.34,3.64q0,12.22,0,24.45l23.31-1.49Q368.61,172.89,368.6,159.59Z"/>
    <path d="M344.93,258.32l23.26-.26q-.13,13.45-.3,26.93l-23.21-3.46Q344.83,269.92,344.93,258.32Z"/>
    <path d="M366.7,358.85l-23.2-5.63q-.27,12.34-.56,24.69L366.12,386Q366.43,372.44,366.7,358.85Z"/>
  </g>
  <g class="roofSide">
    <path d="M203.37,246.77a11.37,11.37,0,0,1-5.17-6.85q34.26-27.87,68.45-55.84,32.43,28,64.66,56.27a9.12,9.12,0,0,1-5.86,6.25L266.9,196.35Z"/>
    <path d="M471.76,71.54l-12.1-.18q-33.8-29.74-67.89-59.14-33.18,28.83-66,58-66.81-.14-133.6.47c-.11-2.91-.21-5.82-.33-8.74q65.25-.6,130.5-.49,34.33-30.6,69-60.83Q431.8,35.8,471.76,71.54Z"/>
  </g>
  <path class="roofTop" d="M191.82,62q10.63-18.82,21.23-37.67,75.68-.61,151.33-.14-21.08,18.6-42.06,37.32Q257.07,61.37,191.82,62Z"/>
</svg>
