<svg viewBox="0 0 930 258.34">
  <g class="tubeWormCavity">
    <path d="M394.34,114.95c1.2-1.84,2.69-3.49,3.68-5.52-1.81-.87-3.58-1.06-5.37-.62-.99,.24-2.01,.65-2.01,1.98l3.7,4.16Z"/>
    <path d="M358.3,110.64c1.13-1.35,2.35-2.62,3.3-4.11-2.65-1.92-5.55-1.33-6.08,1.18l2.77,2.93Z"/>
    <path d="M374.63,102.01c1.59-2,3.18-4,4.78-6.01l.62-.15c-.85,.1-1.41-.59-2.15-.78-2.34-.58-4.63-.95-6.79,.61-.49,.35-.87,.7-1.06,1.25l4.62,5.08Z"/>
  </g>
  <g class="tubeWormBack">
    <path d="M381.71,155.46c.78-1.24,2.04-1.96,3.09-2.92,3.4-3.1,6.64-6.36,9.21-10.19,1.83-2.72,3.14-5.72,3.84-8.93,.39-1.75,1.09-3.41,1.32-5.22,.25-1.95,.54-3.9,.69-5.86,.3-3.9,.09-7.77-1.04-11.56-.12-.42-.32-.68-.69-1.02-2.41,2.68-5.01,2.04-7.67,.28-2.24,3.14-3.05,6.67-3.51,10.3-.37,2.86-.25,5.75-.34,8.62-.06,2.15,.3,4.24,.68,6.31,.34,1.83,.28,3.6-.04,5.4-.78,4.51-2.95,8.1-6.94,10.47-.28,.16-.6,.25-.91,.37-.62-.89-.53-1.87-.65-2.83-.3-2.31-.07-4.63-.36-6.94-.23-1.81,.7-3.58,1.5-5.21,1.44-2.96,2.68-5.96,3.05-9.26,.56-5.07,.96-10.14,.65-15.25-.24-3.94-.59-7.84-1.38-11.71-.25-1.22-.92-2.23-1.3-3.37-.34-1.01-1.39-1.04-2.1-.6-2.53,1.57-5.08,1.61-7.72,.42-.88-.4-1.22,.13-1.54,.78-.79,1.55-1.07,3.27-1.35,4.94-.49,2.9-.9,5.84-1.08,8.78-.24,3.81-.07,7.63,.6,11.39,.94,5.2,2.47,10.21,4.87,14.97,1.47,2.92,1.16,6.2,1.11,9.38-.02,.98-.19,1.95-.29,2.93l8.32,5.55Z"/>
    <path d="M353.98,131.43c-.56-2.41-1.42-4.77-1.67-7.24-.31-2.98-.4-5.94,.21-8.95,.42-2.05,.91-4.04,1.61-5.99,.67-1.88,.93-1.95,2.93-1.73,1.29,.14,2.62,.17,3.86-.57,1.09-.65,1.63-.33,2,.9,1.18,4,1.06,8.09,.74,12.17-.24,3.03-.64,6.04-.82,9.09-.2,3.43,.59,6.69,1,10.02l-9.86-7.7Z"/>
  </g>
  <g class="kelpBack">
    <path d="M720.44,172.25c1.57-1.22,2.66-2.92,3.3-4.65,.95-2.56,2.3-4.92,3.25-7.49,1.29-3.48,2.39-6.99,2.46-10.66,.04-2.28-.11-4.62-.41-6.95-.3-2.28-.32-4.62-.73-6.92-.36-2.05-.78-4.1-.89-6.16-.12-2.15-.15-4.3-.1-6.47,.1-4.08,.91-8.04,1.65-12,.69-3.67,2.1-7.16,3.46-10.65,2.2-5.63,3.11-11.53,3.25-17.55,.06-2.59-.6-5.13-.71-7.7-.09-2.09-.55-4.04-1.13-6.01l-.15-.46c-1,.46-1.07,1.44-1.22,2.31-.67,3.87-2.15,7.48-3.61,11.07-1.93,4.74-4.94,8.96-6.39,14-.8,2.77-1.62,5.51-1.84,8.36-.33,4.24,.57,8.43,1.06,12.63,.36,3.08,1.15,6.11,1.09,9.25-.02,.81-.95,8.57-1.82,11.53-1.08,3.66-2.13,7.45-4.68,10.5-.18,2.58-2.19,3.98-3.66,5.85-2.01-4.4-15.22-32.97-16.53-34.96-1.65-2.51-2.75-5.3-4.03-8-1.95-4.14-2.45-8.46-2.14-12.95,.2-2.9,.64-5.76,1.08-8.63,.63-4.14,.67-8.31,.29-12.47-.18-1.96-.51-3.92-.92-5.85-.79-3.74-2.13-7.33-3.36-10.95-1.32-3.9-3.35-7.47-4.96-11.23-.19-.46-.71-.6-1.22-.62l-.31-1.39c.33,3.84,1.21,7.63,.5,11.56-.64,3.58-1.43,7.14-1.73,10.78-.26,3.13-.6,6.26-.75,9.4-.12,2.61-.2,5.25,.03,7.85,.21,2.33,.82,4.64,1.34,6.93,1.25,5.52,3.1,10.85,5.4,16.01,1.47,3.29,3.15,6.48,4.75,9.71,1.91,3.84,2.94,7.89,3.26,12.17,.14,1.9,.15,3.81,.51,5.72,.32,1.68,.08,3.49-.11,5.22-.17,1.49,.37,2.86,.39,4.32,.04,3.02-.24,5.99-.82,8.93-.34,1.74,.26,3.23,.91,4.78,2.05,4.91,4.02,9.85,6.03,14.78l20.18-2.93Z"/>
    <path d="M268.03,181.03c.19-3.52,1.05-6.89,2.31-10.17,.88-2.31,1.76-4.66,3.28-6.59,1.93-2.44,3.74-4.91,5.39-7.55,2.24-3.58,3.75-7.43,4.85-11.44,1.35-4.92,1.78-10.01,1.98-15.09,.11-2.81-.19-5.65-.43-8.47-.4-4.59-.05-9.17,.41-13.7,.39-3.87,1.5-7.66,2.6-11.43,1.29-4.39,2.58-8.79,3.23-13.37,.48-3.45,.73-6.87,.7-10.33-.05-5.57-.97-11.02-2.63-16.32-1.21-3.87-2.68-7.68-3.17-11.72-.35-2.91-.94-5.79-.88-8.77,.06-2.89,.17-5.76,.5-8.63,.02-.19,.16-.47-.24-.67-1.37,.88-1.97,2.39-2.65,3.76-2.32,4.64-3.96,9.53-4.95,14.62-.59,3.05-1.27,6.14-1.03,9.24,.24,3.02,.76,6.07,1.84,8.92,.81,2.13,1.35,4.34,1.87,6.51,.59,2.51,1.33,4.98,1.86,7.51,.49,2.31,.77,4.63,.97,6.95,.21,2.5,.23,5.03,.17,7.54-.1,4.62-1.34,8.99-3.06,13.25-.56,1.39-1.11,2.78-1.7,4.16-1.55,3.65-3.37,7.17-5.6,10.43-.95,1.39-9.5,52.89-9.03,53.65l-.31-1.23c-1.77-3.22-2.65-6.79-3.99-10.17-1.57-3.98-3.41-7.84-5.24-11.71-1.34-2.84-2.57-5.77-2.92-8.93-.17-1.57-.11-3.19,0-4.77,.1-1.55-.25-3.05-.09-4.63,.41-3.93,.31-7.9,.07-11.85-.17-2.81-.41-5.63-1.28-8.31-.78-2.42-1.9-4.71-3.08-7.01-1.31-2.55-2.5-5.23-3.52-7.94-.68-1.81-1.25-3.62-1.55-5.55-.65-4.26-.43-8.54-.21-12.78,.24-4.58-.32-9.06-.86-13.56-.09-.78-.23-1.56-.47-2.31-.69-2.17-.62-4.51-1.53-6.63l.62-2.46c-.13,1.73-1.42,2.91-2.22,4.27-1.41,2.39-2.08,5-2.83,7.6-.7,2.43-1.2,4.91-1.71,7.39-.56,2.74-1.08,5.5-.62,8.31,.51,3.18,1.75,6.11,2.85,9.11,.9,2.46,1.25,5.16,1.13,7.83-.16,3.44-.48,6.88-.75,10.32-.32,4.02,.22,8.01,.38,12.01,.15,3.57,1.3,6.99,2.66,10.34,2.35,5.82,5.7,11.12,8.31,16.8,1.12,2.44,1.7,5.11,2.1,7.83,.57,3.85,.22,7.71,.44,11.56,.18,3.19,.06,6.39,.83,9.57,.38,1.59,.23,3.3,.81,4.92,.69,1.94,1.86,3.59,2.81,5.38,.99,1.87,2.05,3.7,3.07,5.55l10.47-11.24Z"/>
  </g>
  <g class="kelpFront">
    <path d="M270.81,182.88c-1.16-2.65-1.38-5.52-1.82-8.32-.52-3.36-.31-6.78-.11-10.16,.11-1.84,.48-3.76,1.05-5.53,1.11-3.41,2.44-6.75,3.53-10.17,.79-2.49,1.46-5.06,1.7-7.57,.41-4.38,.51-8.85-.48-13.24-.41-1.83-.47-3.74-.98-5.53-.84-2.92-1.96-5.75-2.88-8.64-.93-2.94-2.4-5.63-3.59-8.45-1.55-3.69-1.96-7.55-1.59-11.41,.42-4.44,1.76-8.74,2.7-13.1,.36-1.64,.8-3.27,1.06-4.93,.47-3.02,.91-6.05,1.23-9.09,.6-5.61,.9-11.21-.43-16.79-.88-3.71-1.69-7.42-3.23-10.94-2.03-4.65-4.08-9.29-5.58-14.16-1.5-4.86-3.33-9.63-3.71-14.79-.23-3.18-1.27-6.32-.44-9.55l-.92,3.54c-.1,.15-.29,.3-.3,.46-.24,3.75-.95,7.44-1.78,11.07-.92,3.99-1.77,7.96-2.07,12.03-.19,2.56-.57,5.15-.39,7.7,.15,2.2,.36,4.43,.47,6.63,.21,4,1.35,7.82,2.53,11.5,1.2,3.74,3.37,7.19,4.64,10.98,.84,2.51,2.02,4.93,2.42,7.56,.58,3.81,.2,7.66-.51,11.38-1.03,5.4-2.56,10.7-3.94,16.03-.84,3.24-1.25,6.55-1.48,9.86-.21,2.96-.23,5.95-.08,8.93,.2,3.73,1.21,7.2,2.96,10.47,2.13,3.97,4.26,7.94,6.48,11.85,1.53,2.7,2.38,5.54,2.28,8.63-.17,5.19-1.48,10.13-3.73,14.77-1.74,3.6-2.32,7.44-2.8,11.28-.38,3.04-.21,6.17,.37,9.23,.06,.3,.14,.74-.01,.9-1.17,1.25-2.4,2.44-3.67,3.71-1.58-3.08-3.13-5.78-4.97-8.29-2.42-3.29-5.65-5.91-7.72-9.54-2.25-3.93-4.56-7.64-4.35-12.51,.16-3.8-.5-7.62-1.26-11.4-.95-4.71-2.26-9.25-4.45-13.58-1.62-3.2-4.03-5.77-5.98-8.71-1.01-1.53-2.02-3.15-2.74-4.72-1.79-3.94-3.34-8.07-3.06-12.58,.01-.2-.12-.41-.14-.62-.2-2.18-.04-4.38,.51-6.45,.65-2.46,1.16-4.95,1.76-7.42,.66-2.66,1.01-5.38,1-8.16,0-3.03,.28-6.03-.1-9.1-.43-3.46-1.09-6.87-1.59-10.31-.84-5.76-2.63-11.22-4.67-16.63l-.31-1.69c-.25,6.23-1.22,12.33-2.91,18.33-1.15,4.09-2.16,8.21-3.25,12.32-.66,2.48-1.11,5.03-1.01,7.55,.14,3.36,.34,6.72,1.37,10.05,.97,3.16,1.96,6.33,2.85,9.53,.46,1.64,.57,3.34,.52,5.08-.08,2.72,.14,5.44,.1,8.16-.03,1.9-.36,3.8-.42,5.7-.08,2.47,.17,4.94,.44,7.39,.6,5.52,2.97,10.16,6.93,14.02,1.22,1.19,2.4,2.43,3.54,3.7,1.91,2.12,3.18,4.62,4.38,7.21,1.2,2.59,1.76,5.33,2.34,8.05,.35,1.62,.26,3.4,.02,5.06-.45,3.09,.31,5.94,1.28,8.79,1.44,4.2,3.23,8.21,6.64,11.23,1.8,1.6,3.65,3.23,5.72,4.42,1.88,1.08,3.81,2.12,5.82,2.98,.25,.11,.43,.19,.46,.47l16.33-14.48Z"/>
    <path d="M711.66,173.02c-.67-1.09-.75-2.39-1.25-3.54-1.74-4.01-3.26-8.1-5.18-12.04-1.49-3.07-2.88-6.22-4.14-9.4-1.23-3.13-2.44-6.33-2.96-9.68-.36-2.29-.74-4.58-.92-6.92-.28-3.6-.51-7.21-.29-10.79,.25-3.98,1.46-7.83,2.41-11.71,.86-3.5,2.03-6.9,2.66-10.47,.74-4.2,1.36-8.36,1.04-12.64-.23-3.07-.55-6.12-1.41-9.08-1.7-5.85-3.37-11.66-3.45-17.87-.05-4.28,.45-8.47,1.2-12.62,.64-3.53,1.76-6.98,2.55-10.49,.97-4.26,2.38-8.36,4.21-12.3,.68-1.47,1.24-3.08,2.58-4.18l-.31,.62c.69,1.4-.2,2.7-.38,3.99-.6,4.25-1.2,8.48-1.4,12.79-.17,3.61,.32,7.13,.82,10.62,.37,2.62,1.5,5.19,2.45,7.74,.65,1.75,1.59,3.4,2.05,5.22,.87,3.44,1.4,6.94,1.7,10.47,.43,5-.52,9.78-2.14,14.49-1.6,4.62-3.39,9.21-4.23,14.03-.27,1.53-.67,3.19-.21,4.94,.3,1.15,.13,2.54,.2,3.83,.17,3.35,.99,6.51,1.79,9.73,.51,2.05,1.34,4.02,1.69,6.13,.78,4.66,2.77,9.02,3.53,13.71,.48,2.97,.78,5.95,1.06,8.94,.32,3.45,.27,6.93-.26,10.31-.37,2.37-.21,4.76-.79,7.11-.53,2.15-.07,4.47-.83,6.61-.33,.92-.29,1.84-.3,2.78l-1.54-.31Z"/>
  </g>
  <g class="oceanRockDark">
    <path d="M791.91,257.28c34.97,0,69.93,0,104.9-.02,.56,0,2-.45,2-.45,2.31-.45,3.87-2.08,5.55-3.54,3.06-2.67,4.84-6.28,7.1-9.54,1.23-1.78,3.07-2.89,4.76-4.17,3.58-2.71,6.3-6.24,9.09-9.7,1.3-1.61,2.44-3.3,3.25-5.23,1.44-3.46,1.08-6.93-.06-10.31-.7-2.07-1.62-4.09-2.66-6.06-.83-1.58-.98-3.5-1.63-5.19-.86-2.26-1.43-4.62-1.91-6.96-.47-2.33-1.06-4.61-1.57-6.93-.25-1.13-.75-2.13-1.46-2.88-2.19-2.33-3.38-5.25-5.06-7.88-3-4.71-5.89-9.53-10.77-12.63-2.91-1.85-5.89-3.48-9.22-4.53-2.41-.76-4.6-2.2-6.96-3.15-4.81-1.94-9.43-4.24-13.88-6.91-2.65-1.59-5.17-3.33-7.69-5.11-3.14-2.22-6.36-4.33-9.54-6.48-2.72-1.85-5.47-3.66-8.16-5.56-2.18-1.54-4.63-2.55-6.95-3.81-1.46-.79-2.87-1.67-4.33-2.44-2.62-1.38-5.16-2.94-7.99-3.89-3.66-1.23-7.22-2.75-10.93-3.88-3.9-1.2-7.89-1.07-11.87-1.04-2.26,.02-4.52,.18-6.78,.29-3.64,.18-7.08,.91-10.19,3.05-3.65,2.5-7.11,5.25-10.76,7.74-2.17,1.48-4.34,2.94-6.46,4.48-.9,.66-1.66,1.52-2.48,2.29-3.36,3.15-5.85,7.08-9.13,10.28-2.86,2.79-5.9,5.42-8.54,8.4-3.83,4.34-8.16,8.37-10.49,13.83-1.14,2.67-2.76,5.12-3.46,7.99-.18,.72-.25,1.45-.43,2.17l54.68,77.79Z"/>
    <path d="M532.2,175.48c-.84-1.98-2-3.74-3.54-5.24-.99-.96-1.94-1.98-2.88-2.97-1.49-1.57-3.5-1.97-5.29-2.86-1.48-.74-2.56-2.06-4.15-2.65-4.84-1.8-9.69-2.52-14.64-.45-2.33,.98-4.64,2.01-6.78,3.39-2.59,1.68-5.69,2.39-8.17,4.3-2.1,1.61-4.29,3.12-6.46,4.63-3.39,2.37-6.4,5.2-9.35,8.06-2.08,2.02-4.11,4.13-5.68,6.68-.83,1.36-1.79,2.7-2.73,4.03-1.15,1.63,11.97,63.3,12.34,64.88h96.45l-39.13-81.79Z"/>
    <path d="M407.28,183.49c-1.38-5.54-4.13-10.42-7.01-15.29-1.95-3.3-4.53-5.95-7.2-8.54-1.43-1.4-3.18-2.52-4.92-3.54-1.16-.69-2.07-1.66-3.19-2.38-3.59-2.29-7.04-4.78-10.62-7.1-4.5-2.91-7.68-7.18-11.02-11.31-2.89-3.58-6.54-6.23-11.5-6.03-1.55,.06-3.08,.4-4.62,.59-3.31,.42-6.58,1.07-9.86,1.68-3.9,.73-7.61,2.02-11.23,3.58-3.69,1.59-7.41,3.17-10.92,5.11-4.56,2.53-9.05,5.19-13.27,8.27-1.66,1.21-3.61,1.95-5.24,3.23-1.67,1.31-3.41,2.5-4.64,4.3-.5,.73-1.08,1.43-1.95,1.91-1.32,.72-1.58,2.31-2.32,3.51-1.77,2.9-3.81,5.5-6.42,7.77-1.76,1.52-3.55,2.93-5.44,4.26-2.43,1.71-5.07,3.02-7.57,4.59-2.81,1.76-5.51,3.67-8,5.87-3.62,3.2-6.3,7.15-8.78,11.24-2.51,4.13-4.94,8.31-7.41,12.47-.07,.12-.2,.21-.41,.41,1.72,2.82,24.58,40.67,28.31,46.71,.48,.79,.72,1.74,1.53,2.32l-.46,.31c.55-.26,1.13-.15,1.69-.15,34.45,0,68.91,0,103.36,0l29.11-73.78Z"/>
  </g>
  <g class="oceanRockMediumDark">
    <path d="M429.78,175.61c-2.1-.64-4.21-.72-6.32-.54-2.5,.2-4.99,.38-7.42,1.29-1.88,.71-3.94,1.02-5.66,2.08-2.99,1.83-5.71,4.02-7.54,7.08-.88,1.48-2.14,2.6-3.29,3.81-2.88,3.02-5.6,6.21-8.76,8.96-3.1,2.7-6.14,5.47-9.2,8.22-4,3.6-8.25,6.9-12.12,10.67-4.01,3.91-5.73,8.64-6.58,13.92-.37,2.31-.18,4.62-.2,6.93-.02,2.11,.37,4.02,1.3,5.85,1.22,2.39,2.88,4.48,4.47,6.62,1.2,1.6,2.54,3.09,3.99,4.48,1.64,1.59,3.6,2.31,5.86,2.31,8.99,0,73.17,0,96.27,0,3.23,0,6.09-1.01,8.3-3.4,3.24-3.51,5.83-7.54,7.29-12.04,.83-2.57,2.14-4.71,3.54-6.88,1.89-2.94,1.82-6.11,1.13-9.24-.4-1.8-.88-3.63-1.42-5.42-.94-3.13-2.18-6.14-4.1-8.73-2.47-3.33-5.21-6.44-8.41-9.15-2.54-2.15-5.58-3.34-8.51-4.71-3.14-1.47-6.13-3.14-9.11-4.9-3.28-1.93-6.02-4.43-8.94-6.79-4.11-3.32-8.38-6.59-13.81-7.61-.58-.11-7.83-1.91-10.77-2.81Z"/>
    <path d="M702.88,173.02c-1.04-2.62-2.55-4.99-3.91-7.45-1.36-2.48-1.84-5.43-2.9-8.1-1.18-2.98-2.72-5.8-4.92-8.16-1.45-1.56-2.44-3.37-3.39-5.24-1.83-3.58-3.91-6.91-7.48-9.17-1.81-1.15-3.27-2.88-5.09-4.14-.9-.63-1.86-1.06-2.82-1.46-5.16-2.15-10.52-3.8-15.88-5.33-2.3-.66-4.68-1.2-7.05-1.68-1.96-.39-3.84-1.21-5.7-1.96-3.06-1.23-6.25-2.12-9.28-3.46-1.2-.53-2.02-1.45-3-2.14-3.46-2.46-7.15-4.57-10.58-7.09-3.32-2.43-6.62-4.92-10.37-6.8-2.65-1.33-5.23-2.87-7.9-4.22-3.11-1.56-6.15-3.39-9.86-2.77-4.44,.75-8.89,1.32-12.82,3.95-3.06,2.06-6.07,4.23-8.82,6.61-2.94,2.56-5.75,5.33-8.59,8.03-3.24,3.08-6.61,6.03-9.49,9.45-2.24,2.66-4.57,5.26-6.35,8.29-.63,1.07-.95,2.18-1.07,3.4-.28,2.88-1.47,5.5-2.48,8.16-1.62,4.28-3.7,8.36-5.61,12.52-1.43,3.13-2.87,6.27-4.43,9.34-1.51,2.98-2.65,6.08-3.45,9.28-.61,2.45-.77,5.02-1.13,7.54-.46,3.19-1.17,6.34-1.57,9.55-.35,2.89-1.17,5.8-1.2,8.63-.04,3.23-.54,6.5,.04,9.8,.27,1.55,.03,3.33,.15,4.98,.22,2.93,1.3,5.51,3.16,7.89,3.89,4.98,7.73,10,12.12,14.54,2.05,2.13,4.43,4.02,6.48,6.15,2.33,2.41,4.81,4.64,7.22,6.96,2.55,2.46,5.51,4.46,8.71,6.09,3.43,1.75,6.96,2.33,10.8,2.32,34.35-.08,68.7-.05,103.05-.04,.57,0,1.15-.11,1.69,.15l23.72-84.41Z"/>
    <path d="M185.01,257.28c-54.63,0-109.26,0-163.89,0-1.81,0-3.21-.72-4.49-1.98-1.32-1.29-1.48-3.39-3.21-4.34-1.44-3.24-3.62-6.06-5.5-9.02-2.12-3.34-3.45-6.92-4.85-10.53-1.29-3.34-1.58-6.85-2.18-10.32-1.01-5.87,0-11.36,2.54-16.63,.47-.96,.69-2.06,1.15-2.88,.92-1.65,1.47-3.48,2.65-5,1.23-1.6,2.41-3.27,3.51-4.95,1.81-2.77,3.83-5.37,5.12-8.54,.92-2.27,2.74-4.3,4.63-6.07,2.32-2.16,4.33-4.66,5.79-7.42,1.42-2.7,2.23-5.71,3.31-8.59l.15-.31c1.18-3.59,2.25-7.23,3.58-10.77,.88-2.33,2.18-4.5,3.24-6.77,.96-2.05,2.42-3.87,3.47-5.89,1.4-2.69,3.17-5.11,4.96-7.53l.31-.15c.96-1.89,2.52-3.14,4.31-4.16l1.08-.77c.69,.15,.9-.54,1.38-.79,1.37-.71,2.68-1.52,4.02-2.29l.15-.31c2.74-1.3,5.03-3.32,7.31-5.19,2.65-2.16,5.64-3.97,7.9-6.55,1.79-2.04,3.95-3.64,5.79-5.62,2.45-2.65,5.48-4.71,8.42-6.82,3.59-2.58,7.29-4.98,11.07-7.28,1.89-1.14,3.68-2.48,5.88-2.86,2.9-.51,5.8-1.02,8.78-.37,1.49,.32,3.08,.2,4.61,.36,2.09,.21,4.13,.64,6.17,1.2,3.85,1.05,7.15,3.14,10.09,5.66,1.25,1.07,2.49,2.35,3.69,3.53,3.13,3.06,6.16,6.3,10.23,8.28,2.04,.99,3.87,2.41,5.88,3.48,1.43,.76,3,1.29,4.49,1.95,1.8,.8,3.11,2.19,4.7,3.22,1.69,1.09,3.32,2.32,4.93,3.54,.81,.62,1.71,1.32,2.3,2.14,1.63,2.23,3.81,3.9,5.61,5.96,3.23,3.7,6.39,7.42,9.1,11.55,3.57,5.44,6.88,11.03,10.18,16.63,1.15,1.96,1.61,4.08,1.9,6.19,.64,4.56,2.24,8.62,4.95,12.34,1.55,2.13,3.51,3.78,5.4,5.55,1.89,1.77,3.29,3.95,4.53,6.26,2.23,4.14,4.17,8.41,5.8,12.81,.94,2.54,1.38,5.23,2.07,7.84,.69,2.6,.77,5.29,1.49,7.87,.17,.61-.14,.88-.62,1.08l-33.89,43.28Z"/>
  </g>
  <g class="oceanRockMedium">
    <path d="M805,240.8c-.43-2.5-1.14-4.89-2.09-7.27-.74-1.85-2.08-3.35-2.66-5.22-1.25-3.98-2.86-7.79-4.95-11.39-.62-1.07-1.07-2.31-1.88-3.2-1.91-2.1-3.73-4.29-5.58-6.42-1.98-2.29-4.4-3.87-6.75-5.57-2.15-1.56-4.59-2.72-6.9-4.05-2.31-1.33-4.61-2.69-6.93-4-3.06-1.73-9.86-6.92-9.94-7-1.81-1.91-4.34-2.47-6.52-3.66-3.4-1.85-7.06-3.11-10.51-4.86-1.28-.65-2.65-1.24-4.14-1.44-1.42-.19-2.58-1.1-3.67-1.88-3.82-2.71-8.17-4.01-12.67-4.49-4.13-.44-8.31-.07-12.33,1.41-2.02,.75-4.2,1.07-6.3,1.58-4.46,1.09-8.42,3.13-11.85,6.17-3.55,3.14-6.84,6.54-9.69,10.33-1.6,2.13-2.74,4.58-4.5,6.6-1.96,2.25-3.96,4.45-6,6.63-3.29,3.51-5.9,7.51-8.5,11.53-1.3,2-2.3,4.17-3.59,6.13-1.1,1.67-1.73,3.61-3.03,5.11-.39,.45-.66,.92-.71,1.42-.2,2.06-1.77,3.48-2.43,5.36-.84,2.39-.75,4.72-.69,7.12,.05,2.15,.61,4.22,1,6.3,.68,3.69,1.82,7.26,5.17,9.56,.8,.55,1.71,.81,2.62,1.07,1.31,.37,2.62,.64,4,.63,46.67-.01,93.35,0,140.02,0l2-16.48Z"/>
    <path d="M272.96,256.51c.14,.67,.69,.51,1.08,.45,4.92-.78,8.78-3.19,10.7-7.87,.67-1.64,.97-3.54,1.32-5.36,.31-1.58,.33-3.18,.48-4.77,.37-3.97-1.76-6.94-3.91-9.84-2.27-3.05-5.01-5.66-8.11-7.92-1.16-.84-2.1-1.99-3.22-2.94-3.15-2.66-6.55-4.93-10.08-7-2.1-1.23-4.45-2-6.75-2.83-1.91-.68-3.86-1.24-5.72-2.12-2.62-1.24-5.38-1.59-8.31-1.3-3.34,.34-6.38,1.6-9.57,2.42-2.93,.75-5.68,1.99-8.6,2.7-4.22,1.03-8.08,2.85-11.72,5.21-1.66,1.08-2.44,2.81-3.68,4.19-1.14,1.27-2.03,3.02-3.45,3.74-1.94,.98-3.68,2.27-5.62,3.24-4.74,2.34-9.47,4.75-13.27,8.58-.71,.71-1.4,1.44-1.52,2.47-.18,1.47-1.53,2.25-1.93,3.68-.88,3.2-1.83,6.43-1.38,9.71,.3,2.18,1.29,4.31,3.74,5.28,1.71,.68,3.4,1.07,5.25,1.07,27.47-.03,54.94-.02,82.41-.04,.56,0,1.22,.3,1.69-.29l.15-.46Z"/>
  </g>
  <path class="coralTube" d="M590.28,257.28c.03-2.27-.36-5.99-2.49-7.02-2.15-1.04-4.26-2.16-6.44-3.14-4.44-2-8-4.95-10.17-9.4l7.55-6.62c1.42,.49,2.3,1.57,3.08,2.77,1,1.52,2.23,2.78,4,3.39,1.75,.61,2.54,.28,3.39-1.39,.88-1.73,.59-3.56,.1-5.22-1.3-4.41-2.94-8.71-4.22-13.12-.65-2.26-1.61-4.49-1.59-6.92l10.94-4.78c1.67,1.42,1.77,3.47,1.97,5.39,.23,2.29,.97,4.43,1.55,6.63,.23,.86,.71,1.55,1.12,2.29,.75,1.37,1.77,1.44,2.91,.32,1.22-1.19,1.59-2.72,1.85-4.31,.41-2.51,.47-5.07,1.07-7.55,1.11-4.56,3.04-8.76,5.4-12.78l9.09,6.93c-1.44,1.14-1.49,2.97-2.11,4.49-1.19,2.9-1.73,6.01-2.32,9.08-.41,2.17-.35,4.42-.69,6.61-.28,1.79-.03,3.49,.06,5.25,.05,1.07-.37,2.27,.02,3.37,.16,.44,.09,1.15,1.02,1.32,.82,.15,1.08-.34,1.38-.7,2.06-2.49,3.48-5.37,4.78-8.31,.78-1.77,1.5-3.57,2.13-5.4,.15-.42,.36-.49,.65-.6l9.4,4.47c-1,5.12-2.56,10.07-5.13,14.61-1.53,2.7-3.42,5.18-5.61,7.46-2.57,2.67-4.3,5.86-3.91,9.82,.05,.55-.09,2.51-.14,3.08h-28.65Z"/>
  <g class="coralTubeCavity">
    <path d="M617.84,198.29c-1.52-1.44-3.35-3.08-5.69-2.94-1.48,.09-2.3,.93-1.54,2.16,1.53,2.47,4.76,4.41,7.39,5.24,.78,.25,1.85,0,1.54-1.23,0,0-.93-2.49-1.7-3.22Z"/>
    <path d="M626.32,216.3c-2.38,1.53-2.33,1.58,.14,3.41,1.52,1.13,3.2,1.87,4.96,2.39,.57,.17,1.41,.9,1.96,.03,.51-.8-.05-1.65-.47-2.27-1.1-1.61-2.72-2.57-4.59-3.1-.61-.17-1.23-.31-1.85-.47h-.15Z"/>
    <path d="M571.18,237.25c-.14,.89,.22,.71,.92,.62,1.75-.24,6.48-4.41,6.93-6.16,.18-.71-.44-1.31-1.23-1.06-1.02,.32-1.94,.84-2.78,1.52-1.55,1.26-2.85,2.73-3.85,4.47v.62Z"/>
    <path d="M591.51,205.37c-3.31,.75-6.05,2.41-8.25,5.06,.77,1.04,1.46,1.16,2.74,.72,1.79-.62,3.64-1.11,5.36-1.94,1.44-.7,2.77-1.54,2.98-3.42-.85-.52-1.77-.41-2.67-.42h-.15Z"/>
  </g>
  <path class="coralBrain" d="M330.65,252.35c.1,.37,.11,.7-.06,1.08-.93,2.1-.56,2.82,1.68,3.38,1.93,.49,3.9,.33,5.85,.29,2.8-.06,5.58-.49,8.31-1.09,3.17-.69,5.98-2.23,8.47-4.3,1.65-1.37,2.22-4.75,1.24-6.76-.5-1.03-.59-1.88,.13-2.95,1.95-2.92,2.07-6.21,1.4-9.52-.77-3.82-2.86-6.81-6.14-8.94-.91-.59-3.05-.4-3.85,.3-1.7,1.51-2.94,1.18-3.97-.94-.42-.87-.58-1.93-.63-2.91-.24-4.62-3.26-6.96-7.13-8.25-3.16-1.06-6.5-1.52-9.84-.38-2.72,.92-5.31,1.8-5.9,5.24-.33,1.94-2.3,2.53-4.11,1.55-3.71-2-7.28-1.52-10.79,.6-3.25,1.96-5.44,4.88-7.37,8.03-.49,.79-.68,1.77-1.11,2.6-1.2,2.3-1.22,4.62-.12,6.93,.34,.72,.87,1.37,1.37,2.01,2.06,2.59,1.64,3.94-.04,5.99-1.35,1.65-2.21,3.36-1.33,5.4,1.17,2.72,2.49,5.32,5.34,6.83,1.84,.98,3.75,.89,5.56,.65,2.65-.35,5.13-.02,7.73,.46,2.66,.49,5.39-.03,7.34-2.12,1.26-1.35,2.44-2.18,4.36-1.86,.66,.11,1.59-.17,2.1-.62,.52-.45,1.24-.49,1.66-1.03l-.15,.31Z"/>
  <g class="coralBrainCavity">
    <path d="M326.1,218c-.27,1.01,.59,1.41,1.09,2,1.09,1.29,2.07,2.63,2.46,4.32,.61,2.6-.61,4.67-2.03,6.61-1.09,1.48-2.38,2.84-3.19,4.49-1.6,3.24-1.27,7.95,2.13,10.01,1.26,.76,3.06,.7,4.15-.33,1.23-1.16,2.38-2.36,3.16-3.96,.53-1.09,1.22-2.17,2.51-2.89,1.34-.75,2.46-.56,3.4,.14,1.24,.91,1.91,2.23,1.45,3.96-.62,2.29-2.56,3.64-3.73,5.53-.15,.24-.45,.38-.6,.63-.65,1.08-1.93,2.02-.93,3.54,.99,1.49,2.57,2.26,4.14,1.93,3.48-.73,7.02-1.51,9.57-4.39,1.29-1.46,1.59-2.97,.79-4.79-.61-1.39-.56-2.85,.6-3.98,1.96-1.92,2.65-4.3,2.77-6.94,.09-2.18-.86-3.93-2.35-5.35-.48-.46-1.4-.44-2.15-.64-1.27,.45-1.77,1.59-1.93,2.77-.2,1.48-1.26,2.01-2.36,2.25-1.11,.24-2.45,.22-3.2-.88-1.54-2.25-2.8-4.57-2.37-7.54,.59-4.01-2.86-8.56-6.9-9.18-1.02-.16-2.03-.45-3.07-.53-1.55-.12-3.38,.98-3.69,2.32-.07,.31,.02,.59,.3,.77v.15Z"/>
    <path d="M319.94,232.79c-.96,2.7-2.22,5.29-2.06,8.32,.08,1.56,.91,2.5,1.76,3.53,.93,1.13,1.83,2.29,1.68,3.86-.37,3.74-4.24,6.01-7.68,4.44-1.57-.72-2.95-.61-4.49,0-1.42,.57-2.98,1.18-4.44,.16-1.7-1.18-1.84-5.55,.92-6.42,2.44-.77,3.35-2.74,3.58-4.82,.18-1.62-.54-3.33-1.88-4.63-.92-.9-1.91-1.63-3.11-1.96-4.03-1.13-4.04-3.07-2.67-5.98,1.23-2.61,3.4-4.73,5.46-6.81,.88-.89,2.16-.38,3.23-.55,.38-.06,1.03,.76,.89,1.46-.19,.93,.02,1.91-.56,2.8-.35,.52-.25,1.2,.1,1.84,.37,.68,.83,.75,1.41,.44,1.53-.82,2.84-1.88,3.55-3.54,.4-.93,.88-1.85,1.7-2.45,1.84-1.35,4.01,.38,4.32,2.14,.47,2.62-.24,4.97-1.42,7.24-.14,.27-.51,.44-.14,.78l-.15,.15Z"/>
  </g>
  <path class="urchinBack" d="M87.35,257.28c-15.25,0-30.5,0-45.75,0-1.41,0-2.72-.33-4.01-.91-.96-.43-1.17-1.08-1.08-2.02,.2-2.12,1.8-3.37,4.02-3.08l-1.69-.46c-1.68-1.75-1.66-2.37,.15-3.7h2.16c-.83-.41-1.74-.24-2.66-.68-2.78-1.31-2.39-2.58-.74-4.26,1.09-1.1,2.63-.65,3.84-1.29l.33,.84-.92-1.08c-1.68-1.95-1.71-3.55,.01-4.44,.53-.27,1.22-.23,1.83-.33l1.85,1.23c-.87-.87-1.85-1.67-2.59-2.64-.62-.82-1.02-1.78-.36-2.91,1.57-2.67,4.15-3.19,6.49-1.22,.19,.16,.33,.38,.62,.3l.92,1.54c-1.41-2.3-.8-4.14,1.23-5.24,1.22-.67,2.29-.05,3.39,.32l.62,.92c-.78-.64-.33-1.57-.39-2.32-.12-1.41,1.15-2.66,2.55-2.92,1.35-.25,2.45,.34,3.04,1.86,.17,.43,.35,.76,.66,1.06l.15,1.08c-.13-.36-.22-.67-.02-1.09,1.35-2.69,3.08-3.25,5.87-1.84l.62,1.69c-.86-2.63,.75-4.59,2.93-5.39,1.3-.48,2.92,.15,3.38,1.39,.58,1.6,1.04,3.23,.32,4.93l.62-2.31c.26-.1,.53-.18,.77-.31,1.88-1.04,2.88-.47,3.45,1.53,.36,1.25-.33,2-.67,2.94l1.08-2.16c.91-.38,1.57-1.09,2.32-1.68,1.54-1.21,3.46-.94,4.44,.61,.5,.79,.28,1.73,.33,2.61,.03,.52-.19,1.05,.28,1.55,1.83,1.97,3.61,3.99,5.41,5.99l-4.78,21.87Z"/>
  <path class="urchinFront" d="M148.66,241.57c1.79-.31,3.62-.24,5.27-1.34,1.11-.74,2.03-1.54,1.91-2.82-.1-1.15-.59-2.29-1.94-2.8-2.08-.77-4.11-.58-6.17,.02l1.54-.62c-.03-.62,.51-.93,.78-1.38,1.23-2.07,.46-4.09-1.57-5.2-.58-.32-1.44-.05-2.13-.35l-2.31,1.08c.72-.36,1.99-.65,2.05-1.09,.17-1.29,1.26-2,1.56-3.21,.31-1.26,.5-2.54-.43-3.34-.88-.76-2.23-.59-3.33-.05-.96,.48-1.86,1.11-2.78,1.68l-1.23,1.85c1.11-1.3,1.17-3.21,.15-4.31-1.03-1.11-2.83-1.13-4.19-.37-.79,.44-1.12,1.32-1.97,1.6l1.23-1.23c-.45-.44-.31-1.01-.3-1.54,.03-2.42-.98-3.81-2.93-4.01-1.59-.16-3.44,1.35-3.82,3.24-.14,.69-.51,1.1-.95,1.53l-.15,1.85c.48-1.66-.17-2.96-1.4-3.99-1.13-.96-3.48-.36-4.62,1.06-.81,1.01-1.6,2.03-1.69,3.39l.46-2c-.88-.17-.62-1.05-.87-1.57-.88-1.78-1.72-2.42-3.59-2.29-1.4,.1-2.95,1.36-3.21,2.78-.13,.71-.45,1.26-.8,1.84v2.31c.33-1.86-1.07-3.26-2.93-2.93-2.47,.45-3.5,1.93-2.77,4l-.31-1.23c-.68-.14-.91-.7-1.25-1.22-.84-1.31-2.46-1.95-3.68-1.55-1.6,.52-2.48,1.69-2.27,3.54,.13,1.13-.13,2.31,.4,3.4,.16,.33,.4,.33,.64,.45l-1.23-1.39c-.8,.19-1.19-.61-1.85-.78-2.09-.54-4.43,1.39-4.1,3.54,.07,.47-.4,1.46,.71,1.55l-.77-.46c-1.14-.31-1.88-1.42-3.23-1.43-1.23,0-2.67,.56-3.37,1.9-.56,1.08-.7,2.21,.28,3.23,.9,.95,1.75,1.94,2.63,2.92l-1.39-1.08c-.15,.05-.31,.11-.46,.15-1.35,.35-2.47,.98-2.76,2.47-.22,1.13,.84,2.61,2.3,3.39l-.69-.15c-.64,.26-1.29,.5-1.92,.77-1.42,.6-2.52,1.91-2.29,2.92,.3,1.33,1.4,1.85,2.6,2.15,.97,.24,1.95,.42,2.92,.62h-1.39c-.2,.62-.88,.86-1.11,1.53-.46,1.3,.26,2.09,.96,2.94l1.54-.15c-1.24,.09-2.41,.39-3.23,1.39-1.39,1.7-.97,3.39,1.07,4.46h2.46c19.87,0,39.74-.02,59.61,.02,3.28,0,5.58-1.52,7.38-4.04,.84-1.18,.93-2.56,.29-3.83-.66-1.3-1.89-1.78-3.36-1.9-.96-.08-1.69,.66-2.62,.5l3.08-.62c.15-.21,.28-.44,.47-.61,1.89-1.76,2.07-3.35,.61-5.4l-3.54,.15Z"/>
</svg>