<svg viewBox="0 0 1332.72 284.01">
  <path class="dullMaroonDark" d="m576.66,128.97c-25.76-24.19-59.05,11.25-33.28,35.45l33.28-35.45Z"/>
  <g class="dullMagentaDark">
    <path d="m435.82,77.25c17.59-29.1,62.68-1.83,45.08,27.26l-45.08-27.26Z"/>
    <path d="m1283.98,68.27c-12.32-30.24-54.5-16.05-47.87,13.67l47.87-13.67Z"/>
  </g>
  <g class="dullPurpleDark">
    <path d="m664.06,76.52c-11.56-29.96-60.97-12.91-49.04,17.65l49.04-17.65Z"/>
    <path d="m194.46,69.71c13.9-32.05,59.56-16.28,51.95,15.68l-51.95-15.68Z"/>
  </g>
  <g class="dullIndigoDark">
    <path d="m146.22,37.27c9.53-29.82-36.89-43.96-47.34-17.83l47.34,17.83Z"/>
    <path d="m764.61,96.09c13.43-25.87-30.02-48.42-43.45-22.55l43.45,22.55Z"/>
    <path d="m1196.82,105.96c-12.71-30.22-62.53-8.97-49.82,21.24l49.82-21.24Z"/>
  </g>
  <g class="dullBlueMediumDark">
    <path d="m987.63,283.48c16.16-75.53,39.33-153.2,166.19-161.41,3.23-12.04,16.45-10.04,49.34-22.62,19.39-7.42,39.21-37.04,57.56-34.74,18.44,2.32,55.84-2.77,71.5-.53v219.19s-344.59.11-344.59.11Z"/>
    <path d="m.5,283.51V34.81c31.36-18.17,64.87-13.79,105.81-18.75,15.03-1.82,50.44,31.86,65.3,31.86,18.98,0,20.09,10.52,33.32,18.86,20.6-3.38,29.51,10.76,44.56,12.32,85.03,8.82,134.82,119.25,165.03,204.41H.5Z"/>
    <path d="m881.4,283.38s-92.86-176.72-102.88-184.24c0-10.02-7.35-3.46-19.58-11.45-9.75-6.37-13.16-11.4-29.18-16.83-18.45-6.25-52.47-1.78-73.57,1.48-19.95,3.08-31.55,8.21-34.15,15.99-11.09,2.45-69.59,31.55-74.78,52.74-3.13,12.77-58.23,113.75-69.15,142.44l403.28-.13Z"/>
  </g>
  <g class="dullMaroonMediumDark">
    <path d="m901.67,68.93c-14.66-32.05-66.61-17.25-58.5,20.15l58.5-20.15Z"/>
    <path d="m717.08,77.43c1.16-29.57-49-32.76-50.74-1.45,3.72,6.46,48.27,7.42,50.74,1.45Z"/>
    <path d="m91.5,23.13c-4.49,8.02-42.34,9.33-51.33,4.69-2.16-35.13,46.71-36.05,51.33-4.69Z"/>
  </g>
  <g class="dullMagentaMediumDark">
    <path d="m223.42,128.15c-10.41-27.87,21.7-53.5,47.55-32.76l-47.55,32.76Z"/>
    <path d="m763.02,97.45c24.76-20.35,57.44,9.14,41.67,34.24-9.57,1.74-42.54-22.65-41.67-34.24Z"/>
    <path d="m610.33,96.99c-19.54-24.27-54.54-2.52-42.85,25.03,8.41,5.22,43.43-14.6,42.85-25.03Z"/>
    <path d="m184.95,55.71c14.4-32.56-36.32-55-50.72-22.44,1.6,8.16,41.72,27.66,50.72,22.44Z"/>
  </g>
  <g class="dullPurpleMediumDark">
    <path d="m382.49,61.93c14.48-31.5,63.57-8.93,49.09,22.56l-49.09-22.56Z"/>
    <path d="m964.41,73.23c8.37-34.27,60.58-19.53,53.4,11.16l-53.4-11.16Z"/>
    <path d="m806.19,134.98c-22.73-32.81,20.98-66.76,46.97-37.54l-46.97,37.54Z"/>
  </g>
  <g class="dullIndigoMediumDark">
    <path d="m348.8,48.52c-7.89-26.61-49.02-17.87-45.07,11.14l45.07-11.14Z"/>
    <path d="m1065.56,109.81c9.03-30.92,59.55-16.17,50.52,14.75l-50.52-14.75Z"/>
  </g>
  <g class="dullBlueMedium">
    <path d="m635.26,283.51c-17.66-30.36-45.11-91.16-59.2-107.84-18.73-22.17-33.77-25.09-48.01-47.35-14.15-22.12-33.81-30.01-55.3-35.78-10.06-2.7-16.4-11.41-31.25-15.48-3.77-11.01-13.16-11.4-29.18-16.83-18.45-6.25-56.02-21.73-75.78-13.64-17.86,7.31-30.27,3.03-48.62,23.71-23.77,26.79-41.05,25.93-43.18,39.48-9.59,8.99-49.9,30.89-59.34,42.92-19.22,24.51-49.71,97.55-56.91,130.82h506.76Z"/>
    <path d="m681.01,283.38c8.15-21.16,23.91-36.11,28.28-58.54,3.14-16.14,10.78-22.86,17.25-39.35,7.72-19.65,30.6-26.72,42.79-43.8,5.14-7.21,31.13-17.26,43.27-17.03,10.98-13.82,12.06-30.18,29.57-41.78,10.38-6.88,29.77-4.61,41.14-13.32,19.96-15.29,45.63-12.01,73.4-14.33,16.28-1.36,14.73,10.71,25.46,17.19,16.43-7.25,41.6,4.82,60.24,6.86,13.68,1.5,22.01,26.16,28.4,29.65,9.75-.92,43.07,10.45,58.67,16.09,19.78,7.15,28.43,14.17,37.52,34.42,14.23,31.7,67.31,61.16,67.31,123.94h-553.3Z"/>
  </g>
  <g class="dullMaroonMedium">
    <path d="m1101.62,122.71c13.96-27.53,61.69-8.34,50.79,23.3-7.78,5.19-49.28-13.49-50.79-23.3Z"/>
    <path d="m350.84,52.03c7.89-32.96,57.75-23.94,53.52,8.73-3.45,7.38-50.58-.04-53.52-8.73Z"/>
  </g>
  <path class="dullMagentaMedium" d="m1054.95,91.28c9.28-33.34-42.33-50.74-54.51-17.69,6.38,11.02,49,23.49,54.51,17.69Z"/>
  <g class="dullPurpleMedium">
    <path d="m303.16,64.79c-18.87-24.51-61.13,0-44.16,31.8,7.26,3.98,46.02-23.03,44.16-31.8Z"/>
    <path d="m1189.18,108.22c-17.03-33.29,35.75-60.29,52.78-27-3.32,9.55-47.77,32.07-52.78,27Z"/>
  </g>
  <g class="dullIndigoMedium">
    <path d="m473.43,97.75c19.27-27.36,61.28,2.22,42.01,29.58-9.8,3.31-45.4-19.21-42.01-29.58Z"/>
    <path d="m953.32,61.24c-6.95-34.47-65.08-26.11-61.06,10.09,8.57,6.52,56.6-1.35,61.06-10.09Z"/>
  </g>
  <path class="dullBlueDarker" d="m768.06,283.4c4.63-37.5,26.1-49.66,30.73-82.07,14.31-8.42,17.4-25.13,30.73-31.57,20.36,4.58,30.53-12.81,54.13-18.19,37.14-8.47,53.28,1.62,75.51-7.48,27.36,3.79,46.9,26.27,77.03,27.78,15.13,18.81,29.3,34.59,35.91,54.95,6.44,19.82,26.87,34.63,30.91,56.68l-334.94-.11Z"/>
  <g class="caveFoldLine">
    <path d="m798.79,201.34c-7.58,5.05-16.84,9.68-24.83,10.52"/>
    <path d="m829.51,169.77c-9.21-2.38-17.92-1.7-26.1,2.1"/>
    <path d="m959.15,144.09c7.92-2.85,14.24-7.79,22.35-9.74"/>
    <path d="m1036.18,171.87c12.9-.79,24.41,2.42,34.02,5.87"/>
    <path d="m441.5,77.05c-5.34-.84-8.24-3.91-13.2-3.4"/>
    <path d="m244.75,109.77c7.03-6.02,14.25,2.53,26.43.74"/>
    <path d="m622.04,88.33c-1.85,4.9.68,4.72-5.01,12.01"/>
    <path d="m204.93,66.78c5.76,3.83,4.5,8.23,12.01,14.13"/>
    <path d="m1153.82,122.08c8.56-.65,7.18,3.28,11.95,3.28"/>
    <path d="m812.6,124.66c-5.27,5.21-6.32,8.41-9.1,12.68"/>
    <path d="m982.18,72.42c-8.34,4.59-15.3.35-22.9,4.65"/>
    <path d="m1070.81,108.92c3.59,2.15,5.31,3.58,8.75,7.17"/>
  </g>
</svg>