<svg viewBox="0 0 324.52 324.09">
  <path class="treeCloser" d="M116.57,90.86a37.08,37.08,0,0,1-8.26-15.41A19.67,19.67,0,0,1,118,67.11a33.23,33.23,0,0,1-5.55-12.22,17.24,17.24,0,0,1,12.18-4.56,57.34,57.34,0,0,1-2-20.77,71.57,71.57,0,0,1,20.72-.22,38.07,38.07,0,0,1,3-15A46.13,46.13,0,0,1,161.28,17c1.26-6.36,5.44-12.24,10.25-16.41a28.74,28.74,0,0,1,16.05,10.63c3.87-3.4,8.7-6.47,13.92-7.18,3.6,2.88,7,6.9,7.91,11.55a40.52,40.52,0,0,1,18.05-4.35c3.48,5.15,3.07,12.47,1.59,18.2a20.63,20.63,0,0,1,11.64-.9A20.23,20.23,0,0,1,242.39,40c3.13-3.36,7.32-6.66,12-7.27a37,37,0,0,1,10.13,12c6.15-5,13.75-7.87,21.38-9.73,4.19,6.61,5.09,14.7,5,22.35A27.51,27.51,0,0,1,303.52,59c.72,4.51-.29,9.07-1.85,13.3a39.88,39.88,0,0,1,13.8,5,21.8,21.8,0,0,1-6.19,11.93,32.42,32.42,0,0,1,14.69,14,34.12,34.12,0,0,1-14.24,15.09,25.36,25.36,0,0,1,9.87,17.46,48,48,0,0,1-18.05,7.51,21.8,21.8,0,0,1,1.36,12.23,22.58,22.58,0,0,1-12.49,4.31,37.62,37.62,0,0,1,17.12,8.59A32.63,32.63,0,0,1,299,182.61c4,1.59,8,4.57,9.81,8.65a19.19,19.19,0,0,1-6.55,9.7c5.75,2,10.31,7.32,12.74,12.73a70.35,70.35,0,0,1-13.73,10.75,17.16,17.16,0,0,1,4.39,10.8,24.28,24.28,0,0,1-12.48,3.29,34.67,34.67,0,0,1,1.92,16.28,78.54,78.54,0,0,1-23.51-.55C219.81,199.89,168.83,144.76,116.57,90.86Z"/>
  <path class="wallFront" d="M241.74,100.87q17.44,17.79,34.86,35.62-3,93.54,1.13,187.09-46.52-.06-93-.06-5.12-111.64-2.59-223.44Q211.93,100.28,241.74,100.87Z"/>
  <path class="wallSide" d="M181.48,135q-1.09,94.28,3.22,188.49-87.88-.07-175.78.05Q4.33,230.75,1.75,137.84,91.59,134.72,181.48,135Z"/>
  <path class="shrubFurther" d="M130.28,323.51c-5.81-1-8.26-8-8-13.08.48-8.09,9-12.91,16.5-13.06,8.07-.17,19.53,2.87,20.89,12.37.78,5.52-1.82,13-8.18,13.77Z"/>
  <path class="shrubCloser" d="M149.07,323.51c-5.55-.8-6.65-8.08-6.15-12.52.79-7.08,7.21-12.08,14.17-12,7.56.1,18.54,2.87,19.66,11.9.63,5.13-1.91,11.87-7.75,12.6Z"/>
  <g class="frameMediumFront">
    <path d="M219.32,270.87l-25.61-.08q-1-35.34-1.26-70.71,12.92.07,25.82.18Q218.39,235.57,219.32,270.87Z"/>
    <path d="M240,206.44c0-2.38,0-3.57,0-6q11.78.15,23.54.33c0,2.38,0,3.56,0,5.94Q251.74,206.57,240,206.44Z"/>
  </g>
  <path class="frameMediumSide" d="M165.25,270.76q-19.73,0-39.44,0-1.2-35.34-1.8-70.69,19.87-.11,39.76-.1Q164.16,235.4,165.25,270.76Z"/>
  <path class="doorMediumSide" d="M240,206.44q11.76.13,23.51.31,0,46.25,1.56,92.46l-23.32-.08Q240.11,252.8,240,206.44Z"/>
  <path class="glassLight" d="M219.16,264.91l-25.62-.09q-.78-29.37-1-58.76,12.9.06,25.8.16Q218.44,235.58,219.16,264.91Z"/>
  <path class="glassMedium" d="M159.47,264.78q-14.13,0-28.27,0-.93-29.38-1.45-58.77Q144,206,158.2,206,158.61,235.4,159.47,264.78Z"/>
  <g class="windowDisplayLine">
    <path d="M130.36,235.44q14.17,0,28.35-.06"/>
    <path d="M192.88,235.44q12.84,0,25.69.13"/>
  </g>
  <path class="stepFront" d="M240.15,299.12l34.14.13q.21,5.87.44,11.73l12.51,0q.25,6.28.53,12.57l-46.62,0Q240.61,311.34,240.15,299.12Z"/>
  <path class="stepSide" d="M240.15,299.12l8.53,0q.23,5.88.46,11.77l7.85,0,.54,12.62H241.15Q240.61,311.34,240.15,299.12Z"/>
  <path class="stepOverlapLine" d="M274.73,311l-34.12-.08"/>
  <path class="roofBelow" d="M247.37,95.6q19.89,20.57,39.75,41.17l-10.52-.28q-17.42-17.82-34.86-35.62Z"/>
  <path class="roofSide" d="M1.75,137.84q102.09-3.56,204.27-2.63,20.46-20,41.35-39.61,19.89,20.57,39.75,41.17.21-5.78.44-11.54-17.07-18-34.16-36l-11.16-.26q-20,18-39.59,36.4Q102,124.46,1.47,128.14C1.56,131.37,1.66,134.61,1.75,137.84Z"/>
  <path class="roofTop" d="M1.47,128.14Q1,109.89.51,91.63q120.8-5.2,241.73-2.7-20,18-39.59,36.4Q102,124.46,1.47,128.14Z"/>
</svg>
