<svg viewBox="0 0 625.03 670.25">
  <g class="stoneDarker">
    <path d="M623.52,592.93c-21.09,.01-42.18,.03-63.28,.05-.02,25.59,0,51.18,.05,76.77h63.24c-.02-27.72-.03-60.16-.01-76.82Z"/>
    <path d="M64.78,592.97c-21.09-.02-42.18-.03-63.28-.05,.02,16.66,.01,49.1-.01,76.82h63.24c.05-25.59,.07-51.18,.05-76.77Z"/>
  </g>
  <path class="brickMediumDark" d="M4.53,369.3c156.04-2.06,312.11-2.57,468.15-1.49,49.27,.34,98.55,.84,147.83,1.49-.99,74.54-1.53,149.09-1.64,223.63-48.73,.03-97.46,.07-146.19,.09-155.5,.06-311.01,.01-466.52-.09-.11-74.55-.65-149.09-1.64-223.63Z"/>
  <path class="rockDark" d="M26.87,592.95c144.45,.09,288.9,.13,433.35,.08,45.98-.02,91.95-.05,137.93-.08,.04-27.63,.13-55.25,.27-82.88-46.02-.19-92.04-.33-138.06-.43-144.58-.31-289.18-.17-433.76,.43,.14,27.63,.23,55.25,.27,82.88Z"/>
  <path class="doorDarkSide" d="M33.14,592.95c141.72,.08,283.43,.13,425.15,.07,44.53-.02,89.06-.05,133.59-.07,.03-25.54,.11-51.09,.23-76.63-44.57-.17-89.13-.29-133.7-.37-141.83-.27-283.67-.15-425.5,.37,.12,25.54,.2,51.09,.23,76.63Z"/>
  <path class="stoneDarker" d="M624.52,360.74c-18.52-16.23-37.03-32.46-55.55-48.69-170.96-2.36-341.95-2.36-512.92,0-18.52,16.23-37.03,32.46-55.55,48.69,.05,3.44,.07,5.17,.12,8.61,157.94-2.11,315.91-2.63,473.85-1.53,49.97,.35,99.96,.86,149.93,1.53,.05-3.44,.07-5.17,.12-8.61Z"/>
  <g class="stoneDark">
    <path d="M572.64,582.55c-34.07,0-68.15,0-102.22,0-.02,29.06-.02,58.13,.02,87.19h102.19c-.02-32.43-.01-69.22,.01-87.2Z"/>
    <path d="M154.61,582.56c-34.07,0-68.15,0-102.22,0,.03,19.74,.03,56.47,0,87.2h102.2c.04-29.06,.04-58.13,.02-87.19Z"/>
  </g>
  <g class="shrubFurther">
    <path d="M512.57,648.93c-3.03-5.98-11.23-5.52-15.16-.82-4.24-3.24-12-2.06-12.89,4.04-4.43-.67-6.81,3.99-4.08,7.37-4.95,.54-7.76,6.03-5.57,10.23h37.73c-.01-6.94-.02-13.87-.03-20.81Z"/>
    <path d="M146.87,660c4.55-2.82,1.79-9.36-3.12-9.09,.57-6.13-6.95-8.83-11.52-5.96-1.03-7.48-10.53-7.06-13.03-.79-4.43-3.55-12.16-.31-12.41,5.51-4.08,6.69-8.16,13.38-12.24,20.07h55.39c3.4-2.72,.98-8.81-3.07-9.74Z"/>
  </g>
  <g class="shrubCloser">
    <path d="M558.44,657.85c3.06-5.31-1.65-13.55-8.19-10.54-.64-7.58-10.24-10.04-14.95-4.38-4.82-5.35-14.7-3.24-15.8,4.26-5.26-1.25-12.08,3.13-10.84,9.11-4.72-1.7-8.53,4.1-7.19,8.13-2.59,.85-3.1,3.76-1.96,5.31h62.68c4.94-3.45,1.97-11.31-3.77-11.9Z"/>
    <path d="M108.15,666.69c3.95-3.29,.28-8.45-3.49-9.47,5.05-2.99,3.2-11.24-2.74-11.57,3.09-6.89-5.37-11.2-10.64-7.47-5.2-5.43-14.33-1.64-14.16,5.87-5.75-2.15-12.48,4.15-10.41,10.08-5.41,.35-6.84,6.55-3.99,10.37-2.22,.82-3.12,3.78-1.56,5.25h49.01c.41-1.03-.16-2.5-2.01-3.06Z"/>
  </g>
  <g class="brickMedium">
    <path d="M466.2,373.31c34,.22,68,.51,102,.88-.75,69.45-1.17,138.91-1.29,208.36-33.83,0-67.66,0-101.5,0,.07-69.75,.33-139.5,.78-209.25Z"/>
    <path d="M473.52,265.82c29.8,.31,59.6,.7,89.4,1.16-.49,32.03-.92,64.05-1.28,96.08-29.65-.32-59.3-.59-88.95-.8,.23-32.15,.51-64.29,.83-96.44Z"/>
    <path d="M480.73,175.37c25.86,.36,51.73,.79,77.59,1.3-.45,23.76-.87,47.52-1.25,71.28-25.73-.42-51.46-.77-77.19-1.07,.26-23.84,.55-47.68,.86-71.52Z"/>
    <path d="M158.83,373.31c-34,.22-68,.51-102,.88,.75,69.45,1.17,138.91,1.29,208.36,33.83,0,67.66,0,101.5,0-.07-69.75-.33-139.5-.78-209.25Z"/>
    <path d="M151.51,265.82c-29.8,.31-59.6,.7-89.4,1.16,.49,32.03,.92,64.05,1.28,96.08,29.65-.32,59.3-.59,88.95-.8-.23-32.15-.51-64.29-.83-96.44Z"/>
    <path d="M144.3,175.37c-25.86,.36-51.73,.79-77.59,1.3,.45,23.76,.87,47.52,1.25,71.28,25.73-.42,51.46-.77,77.19-1.07-.26-23.84-.55-47.68-.86-71.52Z"/>
  </g>
  <g class="brickMediumDark">
    <path d="M491.9,362.41c16.84,.13,33.68,.29,50.52,.46,.61-58.1,1.42-116.19,2.43-174.28-17.02-.31-34.03-.58-51.05-.83-.79,58.22-1.42,116.43-1.9,174.65Z"/>
    <path d="M133.12,362.41c-16.84,.13-33.68,.29-50.52,.46-.61-58.1-1.42-116.19-2.43-174.28,17.02-.31,34.03-.58,51.05-.83,.79,58.22,1.42,116.43,1.9,174.65Z"/>
  </g>
  <g class="stoneDark">
    <path d="M479.87,246.88c25.73,.29,51.46,.65,77.19,1.07,3,4.14,6,8.29,9,12.43-.04,2.66-.06,3.99-.11,6.65-31.82-.51-63.65-.92-95.47-1.24,.03-2.67,.04-4.01,.07-6.68,3.11-4.08,6.21-8.15,9.32-12.23Z"/>
    <path d="M485.64,158.72c22.77,.34,45.54,.73,68.31,1.19,2.64,3.66,5.28,7.31,7.92,10.97-.05,2.34-.07,3.51-.11,5.85-28.16-.56-56.31-1.03-84.47-1.41,.03-2.35,.05-3.52,.08-5.87,2.76-3.58,5.52-7.15,8.28-10.72Z"/>
    <path d="M145.16,246.88c-25.73,.29-51.46,.65-77.19,1.07-3,4.14-6,8.29-9,12.43,.04,2.66,.06,3.99,.11,6.65,31.82-.51,63.65-.92,95.47-1.24-.03-2.67-.04-4.01-.07-6.68-3.11-4.08-6.21-8.16-9.32-12.23Z"/>
    <path d="M139.39,158.72c-22.77,.34-45.54,.73-68.31,1.19-2.64,3.66-5.28,7.31-7.92,10.97,.05,2.34,.07,3.51,.11,5.85,28.16-.56,56.31-1.03,84.47-1.41-.03-2.35-.05-3.52-.08-5.87-2.76-3.58-5.52-7.15-8.28-10.72Z"/>
  </g>
  <g class="stoneMediumDark">
    <path d="M515.34,79.57c3.94,.08,7.87,.16,11.81,.24,8.72,26.69,17.42,53.39,26.11,80.09-22.31-.45-44.63-.83-66.94-1.17,9.58-26.42,19.25-52.81,29.02-79.17Z"/>
    <path d="M109.68,79.57c-3.94,.08-7.87,.16-11.81,.24-8.72,26.69-17.42,53.39-26.11,80.09,22.31-.45,44.63-.83,66.94-1.17-9.58-26.42-19.25-52.81-29.02-79.17Z"/>
  </g>
  <g class="brassMediumLight">
    <path d="M526.39,24.75c5.15,.12,10.3,.25,15.46,.37,.07-2.94,.11-4.41,.18-7.35-5.16-.13-10.31-.25-15.47-.38,.13-5.56,.25-11.13,.38-16.69-3.2-.08-4.8-.12-8-.19-.12,5.57-.25,11.13-.37,16.7-5.16-.12-10.31-.23-15.47-.34-.06,2.95-.09,4.42-.15,7.37,5.15,.11,10.3,.22,15.46,.33-.28,13.3-.56,26.6-.83,39.9,3.18,.07,4.77,.1,7.95,.17,.28-13.3,.56-26.59,.86-39.89Z"/>
    <path d="M98.64,24.75c-5.15,.12-10.3,.25-15.46,.37-.07-2.94-.11-4.41-.18-7.35,5.16-.13,10.31-.25,15.47-.38-.13-5.56-.25-11.13-.38-16.69,3.2-.08,4.8-.12,8-.19,.12,5.57,.25,11.13,.37,16.7,5.16-.12,10.31-.23,15.47-.34,.06,2.95,.09,4.42,.15,7.37-5.15,.11-10.3,.22-15.46,.33,.28,13.3,.56,26.6,.83,39.9-3.18,.07-4.77,.1-7.95,.17-.28-13.3-.56-26.59-.86-39.89Z"/>
  </g>
  <g class="brassMedium">
    <path d="M512.46,72.46c-.08,4.16,3.98,9.22,8.75,8.93,4.33-.26,9-3.9,9.1-8.56,.1-4.66-4.43-8.5-8.75-8.94-4.76-.49-9.02,4.4-9.1,8.57Z"/>
    <path d="M112.57,72.46c.09,4.66-4.44,8.49-8.75,8.93-4.76,.48-9.01-4.4-9.1-8.56-.09-4.16,3.97-9.22,8.75-8.94,4.33,.26,9.02,3.9,9.1,8.57Z"/>
  </g>
  <path class="stoneDark" d="M470.42,579.59c-105.27-.01-210.55-.01-315.82,0,.03,30.05,.02,60.1-.02,90.15H470.44c-.04-30.05-.04-60.1-.02-90.15Z"/>
  <path class="brickMediumDark" d="M159.61,579.59c101.94-.01,203.87-.01,305.81,0,.07-61.43,.28-122.85,.64-184.28-102.36-.58-204.73-.58-307.09,0,.36,61.43,.57,122.85,.64,184.28Z"/>
  <g class="rockDark">
    <path d="M536.42,362.8c.17-16.88,.36-33.77,.56-50.65,.69-10.6-9.18-18.9-19.08-19.48-10.55-.62-19.01,9.06-19.52,19.05-.17,16.91-.32,33.82-.46,50.74,12.83,.11,25.67,.22,38.5,.35Z"/>
    <path d="M88.61,362.8c-.17-16.88-.36-33.77-.56-50.65,.29-9.99,8.53-19.85,19.08-19.48,9.92,.35,19.98,8.43,19.52,19.05,.17,16.91,.32,33.82,.46,50.74-12.83,.11-25.67,.22-38.5,.35Z"/>
  </g>
  <g class="rockMediumDark">
    <path d="M467.48,387.05c34.57,.21,69.15,.49,103.72,.84-.03,2.6-.04,3.9-.07,6.49-34.56-.34-69.13-.61-103.69-.81,.02-2.61,.02-3.91,.04-6.52Z"/>
    <path d="M466.27,362.22c35.07,.24,70.13,.56,105.2,.96-.04,3.68-.08,7.36-.13,11.04-35.05-.38-70.1-.68-105.15-.91,.02-3.7,.05-7.4,.07-11.09Z"/>
    <path d="M470.36,278.17c31.8,.31,63.6,.71,95.4,1.19-.04,2.69-.06,4.04-.1,6.74-31.79-.47-63.57-.86-95.36-1.17,.02-2.71,.04-4.06,.06-6.76Z"/>
    <path d="M157.55,387.05c-34.57,.21-69.15,.49-103.72,.84,.03,2.6,.04,3.9,.07,6.49,34.56-.34,69.13-.61,103.69-.81-.02-2.61-.02-3.91-.04-6.52Z"/>
    <path d="M158.75,362.22c-35.07,.24-70.13,.56-105.2,.96,.04,3.68,.08,7.36,.13,11.04,35.05-.38,70.1-.68,105.15-.91-.02-3.7-.05-7.4-.07-11.09Z"/>
    <path d="M154.66,278.17c-31.8,.31-63.6,.71-95.4,1.19,.04,2.69,.06,4.04,.1,6.74,31.79-.47,63.57-.86,95.36-1.17-.02-2.71-.04-4.06-.06-6.76Z"/>
    <path d="M482.31,582.56c22.48,0,44.96,0,67.44,0,.05-31.68,.16-63.35,.32-95.02-10.95-6.38-21.9-12.77-32.86-19.15-11.56,6.29-23.12,12.58-34.68,18.89-.12,31.76-.2,63.53-.23,95.29Z"/>
    <path d="M142.72,582.56c-22.48,0-44.96,0-67.44,0-.05-31.68-.16-63.35-.32-95.02,10.95-6.38,21.9-12.77,32.86-19.15,11.56,6.29,23.12,12.58,34.68,18.89,.12,31.76,.2,63.53,.23,95.29Z"/>
    <path d="M494.37,427.35c-.07,11.54,10.74,22.13,22.14,22.47,11.79,.36,22.33-10.63,22.42-22.19,.09-11.58-10.32-22.7-22.12-22.49-11.41,.2-22.37,10.65-22.44,22.2Z"/>
    <path d="M130.66,427.35c.07,11.57-10.33,22.71-22.14,22.47-11.39-.22-22.33-10.66-22.42-22.19-.09-11.54,10.73-22.12,22.12-22.49,11.82-.38,22.37,10.62,22.44,22.2Z"/>
  </g>
  <g class="rockMedium">
    <path d="M312.51,371.22c-54.03,0-108.06,.19-162.08,.56-.03-4.33-.06-8.65-.09-12.98,53.92-37.81,107.92-75.51,162.17-112.85,54.25,37.34,108.25,75.04,162.17,112.85-.03,4.33-.06,8.65-.09,12.98-54.03-.37-108.05-.55-162.08-.56Z"/>
    <path d="M153.94,395.35c105.72-.62,211.43-.62,317.15,0,.02-3.65,.03-5.47,.06-9.12-105.75-.65-211.51-.65-317.26,0,.02,3.65,.03,5.47,.06,9.12Z"/>
  </g>
  <g class="marbleDarkest">
    <path d="M312.51,362.21c-50.51,0-101.01,.17-151.52,.51,50.39-34.98,100.85-69.85,151.52-104.41,50.67,34.57,101.13,69.44,151.52,104.41-50.51-.33-101.01-.5-151.52-.51Z"/>
    <path d="M158.91,386.2c102.4-.61,204.8-.61,307.2,0,.03-4.83,.06-9.65,.09-14.48-102.46-.66-204.93-.66-307.39,0,.03,4.83,.06,9.65,.09,14.48Z"/>
  </g>
  <g class="marbleDarker">
    <path d="M437.94,567.17c9.16,0,18.33,0,27.49,.01,.08-53.15,.26-106.3,.56-159.45-9.2-.05-18.39-.09-27.59-.13-.24,53.19-.39,106.38-.46,159.57Z"/>
    <path d="M373.21,567.15c9.16,0,18.32,0,27.49,0,.05-53.23,.15-106.47,.32-159.7-9.2-.03-18.39-.05-27.59-.07-.12,53.26-.19,106.51-.22,159.77Z"/>
    <path d="M187.08,567.17c-9.16,0-18.33,0-27.49,.01-.08-53.15-.26-106.3-.56-159.45,9.2-.05,18.39-.09,27.59-.13,.24,53.19,.39,106.38,.46,159.57Z"/>
    <path d="M251.82,567.15c-9.16,0-18.32,0-27.49,0-.05-53.23-.15-106.47-.32-159.7,9.2-.03,18.39-.05,27.59-.07,.12,53.26,.19,106.51,.22,159.77Z"/>
  </g>
  <g class="rockMediumDark">
    <path d="M107.22,300.39c-.98,.01-1.93,.15-2.83,.39-.28-4.08-.55-8.16-.83-12.24,2.82-.03,4.23-.05,7.05-.09-.18,4.09-.36,8.17-.54,12.26-.91-.22-1.86-.33-2.84-.32Z"/>
    <path d="M517.81,300.39c.98,.01,1.93,.15,2.83,.39,.28-4.08,.55-8.16,.83-12.24-2.82-.03-4.23-.05-7.05-.09,.18,4.09,.36,8.17,.54,12.26,.91-.22,1.86-.33,2.84-.32Z"/>
    <path d="M251.61,621.17c0-82.1-.11-164.21-.32-246.31-.09-33.16,28-61.61,61.22-61.61,33.21,0,61.31,28.44,61.22,61.61-.21,82.1-.31,164.21-.32,246.31-40.6,.01-81.21,.01-121.81,0Z"/>
  </g>
  <g class="marbleDarkest">
    <path d="M434.91,579.59c11.11,0,22.21,0,33.32,0,0-4.14,0-8.28,.01-12.41-11.11,0-22.21,0-33.32-.01,0,4.14,0,8.28-.01,12.43Z"/>
    <path d="M435.36,407.58c11.15,.05,22.29,.1,33.44,.16,.02-4.14,.05-8.28,.07-12.41-11.15-.06-22.3-.12-33.45-.18-.02,4.14-.04,8.28-.06,12.43Z"/>
    <path d="M190.12,579.59c-11.11,0-22.21,0-33.32,0,0-4.14,0-8.28-.01-12.41,11.11,0,22.21,0,33.32-.01,0,4.14,0,8.28,.01,12.43Z"/>
    <path d="M189.66,407.58c-11.15,.05-22.29,.1-33.44,.16-.02-4.14-.05-8.28-.07-12.41,11.15-.06,22.3-.12,33.45-.18,.02,4.14,.04,8.28,.06,12.43Z"/>
    <path d="M251.34,394.95c-10.06,.02-20.12,.05-30.19,.08,.01,4.14,.03,8.29,.04,12.43,10.06-.03,20.11-.06,30.17-.08,0-4.15-.02-8.29-.03-12.44Z"/>
    <path d="M251.59,567.15c-10.02,0-20.04,0-30.06,0,0,4.14,0,8.29,0,12.43,10.02,0,20.04,0,30.06,0,0-4.15,0-8.29,0-12.44Z"/>
    <path d="M373.69,394.95c0,4.15-.02,8.29-.03,12.44,10.06,.02,20.11,.05,30.17,.08,.01-4.14,.03-8.29,.04-12.43-10.06-.03-20.12-.06-30.19-.08Z"/>
    <path d="M373.44,567.15c0,4.15,0,8.29,0,12.44,10.02,0,20.04,0,30.06,0,0-4.14,0-8.29,0-12.43-10.02,0-20.04,0-30.06,0Z"/>
  </g>
  <g class="rockDark">
    <path d="M361.42,621.17c0-82.11,.08-164.23,.25-246.34,.06-26.58-22.53-49.46-49.16-49.46-26.63,0-49.22,22.87-49.16,49.46,.17,82.11,.25,164.23,.25,246.34,32.6,0,65.21,0,97.81,0Z"/>
    <path d="M517.17,476.9c8.55,4.89,17.1,9.79,25.66,14.68-17.69-.07-35.39-.14-53.08-.2,9.14-4.84,18.28-9.66,27.42-14.49Z"/>
    <path d="M107.86,476.9c-8.55,4.89-17.1,9.79-25.66,14.68,17.69-.07,35.39-.14,53.08-.2-9.14-4.84-18.28-9.66-27.42-14.49Z"/>
  </g>
  <g class="rockMediumDark">
    <path d="M275.11,621.18c24.94,0,49.87,0,74.81,0,0-34.88,.01-69.76,.03-104.63-24.96-.01-49.92-.01-74.87,0,.02,34.88,.03,69.76,.03,104.63Z"/>
    <path d="M273.66,374.81c.03,20.28,18,39.14,38.85,39.02,20.64-.12,38.82-18.37,38.85-39.02,.03-20.71-18.18-38.95-38.85-39.08-20.89-.13-38.89,18.75-38.85,39.08Z"/>
  </g>
  <g class="glassDark">
    <path d="M489.54,567.19c17.67,0,35.35,.02,53.02,.03,.05-25.21,.14-50.43,.27-75.64-17.69-.07-35.39-.14-53.08-.2-.1,25.27-.16,50.54-.21,75.81Z"/>
    <path d="M135.49,567.19c-17.67,0-35.35,.02-53.02,.03-.05-25.21-.14-50.43-.27-75.64,17.69-.07,35.39-.14,53.08-.2,.1,25.27,.16,50.54,.21,75.81Z"/>
  </g>
  <g class="windowDisplayLine">
    <path d="M517.1,491.48c-.11,25.24-.19,50.48-.24,75.73"/>
    <path d="M489.62,529.29c17.68,.03,35.36,.07,53.05,.11"/>
    <path d="M489.68,510.4c17.69,.04,35.37,.1,53.06,.15"/>
    <path d="M489.57,548.17c17.68,.02,35.35,.04,53.03,.07"/>
    <path d="M107.93,491.48c.11,25.24,.19,50.48,.24,75.73"/>
    <path d="M135.41,529.29c-17.68,.03-35.36,.07-53.05,.11"/>
    <path d="M135.35,510.4c-17.69,.04-35.37,.09-53.06,.15"/>
    <path d="M135.45,548.17c-17.68,.02-35.35,.04-53.03,.07"/>
  </g>
  <g class="shadow">
    <path d="M528.51,362.73c.17-16.96,.35-33.91,.54-50.86-.03-5.77-5.25-11.66-11.25-11.48-5.65,.17-11.86,5.12-11.5,11.22-.17,16.97-.34,33.94-.49,50.91,7.56,.07,15.13,.13,22.69,.21Z"/>
    <path d="M515.96,247.33c.2-15.2,.42-30.4,.64-45.6,.44-4.74-4.27-8.24-8.47-8.65-4.71-.46-8.28,4.15-8.72,8.4-.21,15.21-.4,30.42-.59,45.63,5.71,.07,11.43,.15,17.14,.22Z"/>
    <path d="M538.11,247.65c.23-15.18,.46-30.37,.71-45.55,.45-4.74-4.26-8.24-8.46-8.66-4.71-.47-8.29,4.13-8.74,8.37-.23,15.2-.45,30.39-.66,45.59,5.71,.08,11.43,.16,17.14,.25Z"/>
    <path d="M96.52,362.73c-.17-16.96-.35-33.91-.54-50.86-.5-6.1,5.61-11.17,11.25-11.48,5.99-.32,11.34,5.45,11.5,11.22,.17,16.97,.34,33.94,.49,50.91-7.56,.07-15.13,.13-22.69,.21Z"/>
    <path d="M109.06,247.33c-.2-15.2-.42-30.4-.64-45.6,.32-4.25,3.75-8.97,8.47-8.65,4.22,.28,9.02,3.65,8.72,8.4,.21,15.21,.4,30.42,.59,45.63-5.71,.07-11.43,.15-17.14,.22Z"/>
    <path d="M86.92,247.65c-.23-15.18-.46-30.37-.71-45.55,.31-4.25,3.74-8.97,8.46-8.66,4.22,.28,9.03,3.62,8.74,8.37,.23,15.2,.45,30.39,.66,45.59-5.71,.08-11.43,.16-17.14,.25Z"/>
    <path d="M503.74,427.4c-.04,6.94,5.87,12.99,12.83,13.03,6.96,.04,12.95-5.93,13-12.86,.05-6.94-5.86-12.98-12.82-13.03-6.97-.05-12.96,5.92-13,12.87Z"/>
    <path d="M121.29,427.4c.04,6.94-5.86,12.99-12.83,13.03-6.96,.04-12.95-5.93-13-12.86-.05-6.94,5.86-12.98,12.82-13.03,6.97-.05,12.96,5.92,13,12.87Z"/>
  </g>
  <path class="bronzeMedium" d="M283.21,374.8c.02,15.83,13.42,29.43,29.3,29.43s29.28-13.61,29.3-29.43c.02-15.86-13.4-29.47-29.3-29.47s-29.32,13.61-29.3,29.47Z"/>
  <path class="flatBlueDark" d="M286.13,374.8c.02,14.21,12.13,26.5,26.39,26.5s26.37-12.3,26.39-26.5c.02-14.23-12.11-26.53-26.39-26.53s-26.4,12.3-26.39,26.53Z"/>
  <path class="bronzeMedium" d="M334.59,383.99c-1.08,2.87-4.69,5.74-7.95,5.01,.7,3.26-2.11,6.86-4.99,7.99-3.06,1.21-7.13,.79-9.14-2.11-2.01,2.9-6.08,3.31-9.14,2.11-2.88-1.13-5.69-4.73-4.99-7.99-3.26,.73-6.87-2.14-7.95-5.01-1.17-3.1-.92-7.14,2.09-9.2-3.01-2.06-3.27-6.09-2.11-9.19,1.08-2.87,4.69-5.75,7.95-5.02-.7-3.26,2.11-6.86,4.99-7.99,3.07-1.21,7.14-.79,9.16,2.1,2.02-2.9,6.09-3.31,9.16-2.1,2.88,1.13,5.69,4.74,4.99,7.99,3.27-.73,6.87,2.15,7.95,5.02,1.17,3.11,.91,7.14-2.1,9.19,3.01,2.06,3.26,6.09,2.09,9.2Zm-27.73-4.82c-.38-.49-.7-1.04-.94-1.64-.25-.6-.41-1.21-.49-1.83-3.28,0-6.55,0-9.83,0-2.87,1.2-4.23,4.51-3.04,7.39,1.19,2.89,4.48,4.25,7.35,3.06,2.32-2.33,4.63-4.66,6.95-6.99Zm22.56-5.29c2.87-1.19,4.24-4.5,3.05-7.39-1.19-2.89-4.48-4.26-7.36-3.07-2.32,2.33-4.64,4.66-6.96,6.98,.38,.49,.7,1.04,.94,1.64,.25,.6,.41,1.21,.49,1.83,3.28,0,6.55,0,9.83,0Zm-17.82,8.03c-.61-.08-1.22-.24-1.82-.49-.6-.25-1.14-.57-1.63-.95-2.32,2.33-4.63,4.66-6.95,6.99-1.19,2.89,.18,6.2,3.05,7.39,2.87,1.19,6.16-.18,7.35-3.06,0-3.29,0-6.59,0-9.88Zm12.23-19.78c1.19-2.89-.17-6.2-3.05-7.39-2.87-1.2-6.17,.17-7.36,3.06,0,3.29,0,6.59,0,9.88,.61,.08,1.22,.24,1.82,.49,.6,.25,1.14,.57,1.63,.95,2.32-2.33,4.64-4.66,6.96-6.98Zm-6.96,18.34c-.49,.38-1.03,.7-1.63,.95-.6,.25-1.21,.41-1.82,.49,0,3.29,0,6.59,0,9.88,1.19,2.89,4.48,4.26,7.35,3.06,2.87-1.19,4.23-4.5,3.05-7.39-2.32-2.33-4.63-4.66-6.95-6.99Zm-5.27-22.68c-1.19-2.89-4.49-4.26-7.36-3.06-2.87,1.2-4.24,4.51-3.05,7.39,2.32,2.33,4.64,4.66,6.96,6.98,.49-.38,1.03-.7,1.63-.95,.6-.25,1.21-.41,1.82-.49,0-3.29,0-6.59,0-9.88Zm7.99,17.91c-.08,.61-.24,1.23-.49,1.83-.25,.6-.57,1.15-.94,1.64,2.32,2.33,4.63,4.66,6.95,6.99,2.87,1.2,6.16-.17,7.35-3.06,1.19-2.89-.17-6.2-3.04-7.39-3.28,0-6.55,0-9.83,0Zm-19.69-12.28c-2.87-1.19-6.17,.18-7.36,3.07-1.19,2.89,.18,6.2,3.05,7.39,3.28,0,6.56,0,9.83,0,.08-.61,.24-1.23,.49-1.83s.57-1.15,.94-1.64c-2.32-2.33-4.64-4.66-6.96-6.98Zm7.5,11.37c0,2.83,2.29,5.13,5.11,5.13s5.1-2.3,5.11-5.13c0-2.83-2.29-5.13-5.11-5.13-2.82,0-5.11,2.3-5.11,5.13Z"/>
  <g class="rockMedium">
    <path d="M312.51,325.38c1.92,0,3.81,.11,5.67,.33,.34-8.75,.69-17.5,1.03-26.25-4.47,0-8.94,0-13.41,0,.34,8.75,.69,17.5,1.03,26.25,1.86-.21,3.75-.33,5.67-.33Z"/>
    <path d="M275.07,504.73c24.96-.02,49.93-.02,74.89,0,.02-31.34,.06-62.69,.1-94.03-12.51-8.33-25.02-16.65-37.54-24.96-12.52,8.31-25.04,16.63-37.54,24.96,.04,31.34,.07,62.69,.1,94.03Z"/>
    <path d="M516.56,440.43c-1.12,0-2.2-.16-3.24-.43-.37,4.71-.74,9.41-1.1,14.12,3.4,.02,5.11,.03,8.51,.04-.31-4.71-.62-9.42-.93-14.13-1.04,.26-2.12,.4-3.24,.39Z"/>
    <path d="M516.74,414.53c1.12,0,2.2,.16,3.24,.43,.38-4.7,.75-9.41,1.13-14.11-3.41-.03-5.12-.04-8.53-.06,.3,4.71,.61,9.42,.92,14.13,1.04-.26,2.12-.4,3.24-.39Z"/>
    <path d="M529.56,427.56c0,1.12-.16,2.21-.43,3.24,4.69,.37,9.38,.74,14.08,1.12,.03-3.41,.04-5.12,.07-8.53-4.7,.31-9.4,.61-14.1,.92,.26,1.04,.39,2.13,.39,3.25Z"/>
    <path d="M503.74,427.4c0-1.12,.16-2.21,.43-3.25-4.69-.37-9.39-.74-14.08-1.11-.02,3.42-.03,5.13-.05,8.55,4.7-.32,9.39-.63,14.09-.94-.26-1.04-.4-2.13-.39-3.25Z"/>
    <path d="M108.46,440.43c1.12,0,2.2-.16,3.24-.43,.37,4.71,.74,9.41,1.1,14.12-3.4,.02-5.11,.03-8.51,.04,.31-4.71,.62-9.42,.93-14.13,1.04,.26,2.12,.4,3.24,.39Z"/>
    <path d="M108.29,414.53c-1.12,0-2.2,.16-3.24,.43-.38-4.7-.75-9.41-1.13-14.11,3.41-.03,5.12-.04,8.53-.06-.3,4.71-.61,9.42-.92,14.13-1.04-.26-2.12-.4-3.24-.39Z"/>
    <path d="M95.47,427.56c0,1.12,.16,2.21,.43,3.24-4.69,.37-9.38,.74-14.08,1.12-.03-3.41-.04-5.12-.07-8.53,4.7,.31,9.4,.61,14.1,.92-.26,1.04-.39,2.13-.39,3.25Z"/>
    <path d="M121.29,427.4c0-1.12-.16-2.21-.43-3.25,4.69-.37,9.39-.74,14.08-1.11,.02,3.42,.03,5.13,.05,8.55-4.7-.32-9.39-.63-14.09-.94,.26-1.04,.4-2.13,.39-3.25Z"/>
  </g>
  <path class="marbleDarkest" d="M284.25,488.57c18.85-.01,37.69-.01,56.54,0,.02-24.22,.04-48.44,.06-72.65-9.44-6.28-18.88-12.55-28.33-18.82-9.45,6.27-18.89,12.54-28.33,18.82,.02,24.22,.04,48.44,.06,72.65Z"/>
  <path class="blackLight" d="M329.61,488.57c0-19.85,.02-39.7,.03-59.56,.54-9.35-8.35-16.85-17.13-17.25-9.31-.43-16.83,8.43-17.13,17.25,.01,19.85,.02,39.7,.03,59.56,11.4,0,22.8,0,34.2,0"/>
  <path class="doorDarkFront" d="M285.39,621.18c18.09,0,36.17,0,54.26,0,0-25.75,0-51.49,.01-77.24-18.09,0-36.19,0-54.28,0,0,25.75,.01,51.49,.01,77.24Z"/>
  <path class="doorBorderLine" d="M312.51,621.18v-77.24"/>
  <path class="stepFront" d="M443.38,658.19c-4.73,0-9.46,.02-14.19,.03,0-4.12,0-8.24,0-12.36-4.64,0-9.27,.01-13.91,.02,0-4.12,0-8.24,0-12.37-4.61,0-9.21,0-13.82,.01,0-4.12,0-8.25,0-12.37-59.28,.03-118.57,.03-177.85,0,0,4.12,0,8.25,0,12.37-4.61,0-9.21,0-13.82-.01,0,4.12,0,8.24,0,12.37-4.64,0-9.27-.01-13.91-.02,0,4.12,0,8.24,0,12.36-4.73,0-9.46-.02-14.19-.03,0,3.85,0,7.71-.01,11.56H443.39c0-3.85,0-7.71-.01-11.56Z"/>
  <g class="stepOverlapLine">
    <path d="M223.59,633.52c59.29,.05,118.57,.05,177.86,0"/>
    <path d="M209.76,645.87c68.5,.08,137.01,.08,205.51,0"/>
    <path d="M195.84,658.22c77.78,.13,155.57,.13,233.35,0"/>
  </g>
  <g class="bulbOn">
    <path d="M382.69,530.63c3.43,0,5.15,0,8.59,0,2.47-4.32,2.8-9.44,2.05-14.27-4.22,0-8.44,0-12.65-.01-.73,4.85-.72,10,2.01,14.28Z"/>
    <path d="M242.33,530.63c-3.43,0-5.15,0-8.59,0-2.47-4.32-2.8-9.44-2.05-14.27,4.22,0,8.44,0,12.65-.01,.73,4.85,.72,10-2.01,14.28Z"/>
  </g>
  <path class="marbleDark" d="M320.6,488.56c-5.35,0-10.7,0-16.05,0,.86-12.21,1.71-24.41,2.57-36.62,3.48,0,6.96,0,10.44,0,1.01,12.21,2.03,24.41,3.04,36.62Z"/>
  <g class="blackMedium">
    <path d="M382.99,534.31c3.19,0,4.79,0,7.98,0,.41-1.47,.61-2.21,1.02-3.69-3.34,0-6.68,0-10.01,0,.41,1.48,.61,2.21,1.01,3.69Z"/>
    <path d="M390.13,511.05c1.92,0,2.88,0,4.8,0-.41,2.12-.62,3.18-1.03,5.3-4.6,0-9.21,0-13.81-.01-.4-2.12-.61-3.18-1.01-5.31,1.92,0,2.88,0,4.8,0-.32-1.48-.47-2.21-.79-3.69,3.13,0,4.7,0,7.84,0-.32,1.47-.48,2.21-.8,3.69Z"/>
    <path d="M242.03,534.31c-3.19,0-4.79,0-7.98,0-.41-1.47-.61-2.21-1.02-3.69,3.34,0,6.68,0,10.01,0-.41,1.48-.61,2.21-1.01,3.69Z"/>
    <path d="M234.89,511.05c-1.92,0-2.88,0-4.8,0,.41,2.12,.62,3.18,1.03,5.3,4.6,0,9.21,0,13.81-.01,.4-2.12,.61-3.18,1.01-5.31-1.92,0-2.88,0-4.8,0,.32-1.48,.47-2.21,.79-3.69-3.13,0-4.7,0-7.84,0,.32,1.47,.48,2.21,.8,3.69Z"/>
    <path d="M315.01,438.24c1.81,.29,3.82,.94,5.14,2.07,2.33,2.16,3.77,6.01,4.17,9.09,.76,3.34-.88,6.9-3.72,8.75,1.11,8.44,1.8,16.86,2.14,25.36-2.4-2.03-6.2-3.43-9.32-3.66-.04-6.35-.42-12.65-.92-18.98-.84,6.24-1.39,12.54-1.44,18.84-3,.29-6.61,1.77-8.86,3.79,.4-7.59,.99-15.1,2.01-22.63-1.37-.69-2.19-1.98-2.55-3.78-.24-5.34,.13-11.82,3.29-16.39,1.77-1.64,3.3-2.06,5.29-2.45,1.91,0,2.86,0,4.77-.02Z"/>
  </g>
  <g class="blackLight">
    <path d="M304.92,466.08c.48,.68,1.15,.84,2.01,.42,1.01-3.94,2.13-7.78,3.37-11.65,0-.66-1.62-1.08-2.34-.67-.87,4.03-1.87,7.94-3.03,11.9Z"/>
    <path d="M322.17,456.8c-1.57,1.66-2.83,2.11-4.62,2.63,.01-1.4-.35-2.84-.93-4.29,1.57-.81,2.9-2.02,3.98-3.66-.65-2.06-.97-3.09-1.62-5.15-2.65,1.82-3.97,2.73-6.61,4.55,1.25,3.97,2.51,7.95,3.76,11.92,2.64-1.82,3.97-2.73,6.61-4.55-.23-.58-.34-.87-.57-1.45Z"/>
  </g>
  <g class="marbleDark">
    <path d="M307.23,429.98c.47,2.93,2.03,7.11,5.29,7.11,3.26,0,4.86-4.16,5.29-7.11,.48-3.32-1.87-6.37-5.29-6.43-3.51-.07-5.82,3.1-5.29,6.43Z"/>
    <path d="M314.41,435.65c.3,1.32,.45,1.97,.76,3.29-1.64,1.03-3.29,1.03-4.93,0,.31-1.32,.46-1.97,.76-3.29,1.37,0,2.05,0,3.41,0Z"/>
    <path d="M308.4,432.74c0,2.51,2.22,5.18,4.12,5.18,1.97,0,4.12-2.59,4.12-5.18,0-3.36-.76-5.52-4.12-5.55-3.25-.03-4.12,2.04-4.12,5.55Z"/>
    <path d="M313.75,457.94c.5,1.14,1.82,1.87,2.91,1.27,1.55-.86,1.72-1.77,1.26-2.93-.45-1.16-1.24-1.4-2.91-.9-1.19,.35-1.9,1.08-1.26,2.56Z"/>
    <path d="M305.26,459.46c-.57,1.11-.39,2.16,.96,3.04,1.04,.68,2.41,.11,3.02-.97,.75-1.32,.19-2.22-.96-2.67-1.72-.68-2.45-.51-3.02,.6Z"/>
  </g>
</svg>