<svg viewBox="0 0 1202 122.16">
  <g class="flatRedMedium">
    <path d="m53.32,8l2,111.23c1.93-.67,3.86-.67,5.79,0l2-111.23h-9.79Z"/>
    <g class="flatRedMedium">
      <path d="m91.93,8l2,111.23c1.93-.67,3.86-.67,5.79,0l2-111.23h-9.79Z"/>
    </g>
    <path d="m91.93,8l2,111.23c1.93-.67,3.86-.67,5.79,0l2-111.23h-9.79Z"/>
    <g class="flatRedMedium">
      <path d="m126.54,8l2,111.23c1.93-.67,3.86-.67,5.79,0l2-111.23h-9.79Z"/>
    </g>
    <path d="m126.54,8l2,111.23c1.93-.67,3.86-.67,5.79,0l2-111.23h-9.79Z"/>
    <g class="flatRedMedium">
      <path d="m160.15,8l2,111.23c1.93-.67,3.86-.67,5.79,0l2-111.23h-9.79Z"/>
    </g>
    <path d="m160.15,8l2,111.23c1.93-.67,3.86-.67,5.79,0l2-111.23h-9.79Z"/>
    <g class="flatRedMedium">
      <path d="m195.76,8l2,111.23c1.93-.67,3.86-.67,5.79,0l2-111.23h-9.79Z"/>
    </g>
    <path d="m195.76,8l2,111.23c1.93-.67,3.86-.67,5.79,0l2-111.23h-9.79Z"/>
    <g class="flatRedMedium">
      <path d="m229.37,8l2,111.23c1.93-.67,3.86-.67,5.79,0l2-111.23h-9.79Z"/>
    </g>
    <path d="m229.37,8l2,111.23c1.93-.67,3.86-.67,5.79,0l2-111.23h-9.79Z"/>
    <g class="flatRedMedium">
      <path d="m262.98,8l2,111.23c1.93-.67,3.86-.67,5.79,0l2-111.23h-9.79Z"/>
    </g>
    <path d="m262.98,8l2,111.23c1.93-.67,3.86-.67,5.79,0l2-111.23h-9.79Z"/>
    <g class="flatRedMedium">
      <path d="m299.59,8l2,111.23c1.93-.67,3.86-.67,5.79,0l2-111.23h-9.79Z"/>
    </g>
    <path d="m299.59,8l2,111.23c1.93-.67,3.86-.67,5.79,0l2-111.23h-9.79Z"/>
    <g class="flatRedMedium">
      <path d="m338.2,8l2,111.23c1.93-.67,3.86-.67,5.79,0l2-111.23h-9.79Z"/>
    </g>
    <path d="m338.2,8l2,111.23c1.93-.67,3.86-.67,5.79,0l2-111.23h-9.79Z"/>
    <g class="flatRedMedium">
      <path d="m371.81,8l2,111.23c1.93-.67,3.86-.67,5.79,0l2-111.23h-9.79Z"/>
    </g>
    <path d="m371.81,8l2,111.23c1.93-.67,3.86-.67,5.79,0l2-111.23h-9.79Z"/>
    <g class="flatRedMedium">
      <path d="m410.42,8l2,111.23c1.93-.67,3.86-.67,5.79,0l2-111.23h-9.79Z"/>
    </g>
    <path d="m410.42,8l2,111.23c1.93-.67,3.86-.67,5.79,0l2-111.23h-9.79Z"/>
    <g class="flatRedMedium">
      <path d="m444.03,8l2,111.23c1.93-.67,3.86-.67,5.79,0l2-111.23h-9.79Z"/>
    </g>
    <path d="m444.03,8l2,111.23c1.93-.67,3.86-.67,5.79,0l2-111.23h-9.79Z"/>
    <g class="flatRedMedium">
      <path d="m481.64,8l2,111.23c1.93-.67,3.86-.67,5.79,0l2-111.23h-9.79Z"/>
    </g>
    <path d="m481.64,8l2,111.23c1.93-.67,3.86-.67,5.79,0l2-111.23h-9.79Z"/>
    <g class="flatRedMedium">
      <path d="m521.25,8l2,111.23c1.93-.67,3.86-.67,5.79,0l2-111.23h-9.79Z"/>
    </g>
    <path d="m521.25,8l2,111.23c1.93-.67,3.86-.67,5.79,0l2-111.23h-9.79Z"/>
    <g class="flatRedMedium">
      <path d="m557.86,8l2,111.23c1.93-.67,3.86-.67,5.79,0l2-111.23h-9.79Z"/>
    </g>
    <path d="m557.86,8l2,111.23c1.93-.67,3.86-.67,5.79,0l2-111.23h-9.79Z"/>
    <g class="flatRedMedium">
      <path d="m594.47,8l2,111.23c1.93-.67,3.86-.67,5.79,0l2-111.23h-9.79Z"/>
    </g>
    <path d="m594.47,8l2,111.23c1.93-.67,3.86-.67,5.79,0l2-111.23h-9.79Z"/>
    <g class="flatRedMedium">
      <path d="m628.08,8l2,111.23c1.93-.67,3.86-.67,5.79,0l2-111.23h-9.79Z"/>
    </g>
    <path d="m628.08,8l2,111.23c1.93-.67,3.86-.67,5.79,0l2-111.23h-9.79Z"/>
    <g class="flatRedMedium">
      <path d="m666.69,8l2,111.23c1.93-.67,3.86-.67,5.79,0l2-111.23h-9.79Z"/>
    </g>
    <path d="m666.69,8l2,111.23c1.93-.67,3.86-.67,5.79,0l2-111.23h-9.79Z"/>
    <g class="flatRedMedium">
      <path d="m700.3,8l2,111.23c1.93-.67,3.86-.67,5.79,0l2-111.23h-9.79Z"/>
    </g>
    <path d="m700.3,8l2,111.23c1.93-.67,3.86-.67,5.79,0l2-111.23h-9.79Z"/>
    <g class="flatRedMedium">
      <path d="m733.91,8l2,111.23c1.93-.67,3.86-.67,5.79,0l2-111.23h-9.79Z"/>
    </g>
    <path d="m733.91,8l2,111.23c1.93-.67,3.86-.67,5.79,0l2-111.23h-9.79Z"/>
    <g class="flatRedMedium">
      <path d="m769.52,8l2,111.23c1.93-.67,3.86-.67,5.79,0l2-111.23h-9.79Z"/>
    </g>
    <path d="m769.52,8l2,111.23c1.93-.67,3.86-.67,5.79,0l2-111.23h-9.79Z"/>
    <g class="flatRedMedium">
      <path d="m803.13,8l2,111.23c1.93-.67,3.86-.67,5.79,0l2-111.23h-9.79Z"/>
    </g>
    <path d="m803.13,8l2,111.23c1.93-.67,3.86-.67,5.79,0l2-111.23h-9.79Z"/>
    <g class="flatRedMedium">
      <path d="m836.74,8l2,111.23c1.93-.67,3.86-.67,5.79,0l2-111.23h-9.79Z"/>
    </g>
    <path d="m836.74,8l2,111.23c1.93-.67,3.86-.67,5.79,0l2-111.23h-9.79Z"/>
    <g class="flatRedMedium">
      <path d="m875.35,8l2,111.23c1.93-.67,3.86-.67,5.79,0l2-111.23h-9.79Z"/>
    </g>
    <path d="m875.35,8l2,111.23c1.93-.67,3.86-.67,5.79,0l2-111.23h-9.79Z"/>
    <g class="flatRedMedium">
      <path d="m913.96,8l2,111.23c1.93-.67,3.86-.67,5.79,0l2-111.23h-9.79Z"/>
    </g>
    <path d="m913.96,8l2,111.23c1.93-.67,3.86-.67,5.79,0l2-111.23h-9.79Z"/>
    <g class="flatRedMedium">
      <path d="m947.57,8l2,111.23c1.93-.67,3.86-.67,5.79,0l2-111.23h-9.79Z"/>
    </g>
    <path d="m947.57,8l2,111.23c1.93-.67,3.86-.67,5.79,0l2-111.23h-9.79Z"/>
    <g class="flatRedMedium">
      <path d="m985.18,8l2,111.23c1.93-.67,3.86-.67,5.79,0l2-111.23h-9.79Z"/>
    </g>
    <path d="m985.18,8l2,111.23c1.93-.67,3.86-.67,5.79,0l2-111.23h-9.79Z"/>
    <g class="flatRedMedium">
      <path d="m1018.79,8l2,111.23c1.93-.67,3.86-.67,5.79,0l2-111.23h-9.79Z"/>
    </g>
    <path d="m1018.79,8l2,111.23c1.93-.67,3.86-.67,5.79,0l2-111.23h-9.79Z"/>
    <g class="flatRedMedium">
      <path d="m1057.4,8l2,111.23c1.93-.67,3.86-.67,5.79,0l2-111.23h-9.79Z"/>
    </g>
    <path d="m1057.4,8l2,111.23c1.93-.67,3.86-.67,5.79,0l2-111.23h-9.79Z"/>
    <g class="flatRedMedium">
      <path d="m1095.01,8l2,111.23c1.93-.67,3.86-.67,5.79,0l2-111.23h-9.79Z"/>
    </g>
    <path d="m1095.01,8l2,111.23c1.93-.67,3.86-.67,5.79,0l2-111.23h-9.79Z"/>
    <g class="flatRedMedium">
      <path d="m1132.62,8l2,111.23c1.93-.67,3.86-.67,5.79,0l2-111.23h-9.79Z"/>
    </g>
    <path d="m1132.62,8l2,111.23c1.93-.67,3.86-.67,5.79,0l2-111.23h-9.79Z"/>
  </g>
  <g class="flatYellowMedium">
    <path d="m61.11,119.23c-1.93-.67-3.86-.67-5.79,0l-.18-10c1.93-.67,4.22-.67,6.15,0l-.18,10Z"/>
    <path d="m99.72,119.23c-1.93-.67-3.86-.67-5.79,0l-.18-10c1.93-.67,4.22-.67,6.15,0l-.18,10Z"/>
    <path d="m134.33,119.23c-1.93-.67-3.86-.67-5.79,0l-.18-10c1.93-.67,4.22-.67,6.15,0l-.18,10Z"/>
    <path d="m167.94,119.23c-1.93-.67-3.86-.67-5.79,0l-.18-10c1.93-.67,4.22-.67,6.15,0l-.18,10Z"/>
    <path d="m203.55,119.23c-1.93-.67-3.86-.67-5.79,0l-.18-10c1.93-.67,4.22-.67,6.15,0l-.18,10Z"/>
    <path d="m237.16,119.23c-1.93-.67-3.86-.67-5.79,0l-.18-10c1.93-.67,4.22-.67,6.15,0l-.18,10Z"/>
    <path d="m270.77,119.23c-1.93-.67-3.86-.67-5.79,0l-.18-10c1.93-.67,4.22-.67,6.15,0l-.18,10Z"/>
    <path d="m307.38,119.23c-1.93-.67-3.86-.67-5.79,0l-.18-10c1.93-.67,4.22-.67,6.15,0l-.18,10Z"/>
    <path d="m345.99,119.23c-1.93-.67-3.86-.67-5.79,0l-.18-10c1.93-.67,4.22-.67,6.15,0l-.18,10Z"/>
    <path d="m379.6,119.23c-1.93-.67-3.86-.67-5.79,0l-.18-10c1.93-.67,4.22-.67,6.15,0l-.18,10Z"/>
    <path d="m418.21,119.23c-1.93-.67-3.86-.67-5.79,0l-.18-10c1.93-.67,4.22-.67,6.15,0l-.18,10Z"/>
    <path d="m451.82,119.23c-1.93-.67-3.86-.67-5.79,0l-.18-10c1.93-.67,4.22-.67,6.15,0l-.18,10Z"/>
    <path d="m489.43,119.23c-1.93-.67-3.86-.67-5.79,0l-.18-10c1.93-.67,4.22-.67,6.15,0l-.18,10Z"/>
    <path d="m529.04,119.23c-1.93-.67-3.86-.67-5.79,0l-.18-10c1.93-.67,4.22-.67,6.15,0l-.18,10Z"/>
    <path d="m565.65,119.23c-1.93-.67-3.86-.67-5.79,0l-.18-10c1.93-.67,4.22-.67,6.15,0l-.18,10Z"/>
    <path d="m602.26,119.23c-1.93-.67-3.86-.67-5.79,0l-.18-10c1.93-.67,4.22-.67,6.15,0l-.18,10Z"/>
    <path d="m635.87,119.23c-1.93-.67-3.86-.67-5.79,0l-.18-10c1.93-.67,4.22-.67,6.15,0l-.18,10Z"/>
    <path d="m674.48,119.23c-1.93-.67-3.86-.67-5.79,0l-.18-10c1.93-.67,4.22-.67,6.15,0l-.18,10Z"/>
    <path d="m708.09,119.23c-1.93-.67-3.86-.67-5.79,0l-.18-10c1.93-.67,4.22-.67,6.15,0l-.18,10Z"/>
    <path d="m741.7,119.23c-1.93-.67-3.86-.67-5.79,0l-.18-10c1.93-.67,4.22-.67,6.15,0l-.18,10Z"/>
    <path d="m777.31,119.23c-1.93-.67-3.86-.67-5.79,0l-.18-10c1.93-.67,4.22-.67,6.15,0l-.18,10Z"/>
    <path d="m810.92,119.23c-1.93-.67-3.86-.67-5.79,0l-.18-10c1.93-.67,4.22-.67,6.15,0l-.18,10Z"/>
    <path d="m844.53,119.23c-1.93-.67-3.86-.67-5.79,0l-.18-10c1.93-.67,4.22-.67,6.15,0l-.18,10Z"/>
    <path d="m883.14,119.23c-1.93-.67-3.86-.67-5.79,0l-.18-10c1.93-.67,4.22-.67,6.15,0l-.18,10Z"/>
    <path d="m921.75,119.23c-1.93-.67-3.86-.67-5.79,0l-.18-10c1.93-.67,4.22-.67,6.15,0l-.18,10Z"/>
    <path d="m955.36,119.23c-1.93-.67-3.86-.67-5.79,0l-.18-10c1.93-.67,4.22-.67,6.15,0l-.18,10Z"/>
    <path d="m992.97,119.23c-1.93-.67-3.86-.67-5.79,0l-.18-10c1.93-.67,4.22-.67,6.15,0l-.18,10Z"/>
    <path d="m1026.58,119.23c-1.93-.67-3.86-.67-5.79,0l-.18-10c1.93-.67,4.22-.67,6.15,0l-.18,10Z"/>
    <path d="m1065.19,119.23c-1.93-.67-3.86-.67-5.79,0l-.18-10c1.93-.67,4.22-.67,6.15,0l-.18,10Z"/>
    <path d="m1102.8,119.23c-1.93-.67-3.86-.67-5.79,0l-.18-10c1.93-.67,4.22-.67,6.15,0l-.18,10Z"/>
    <path d="m1140.41,119.23c-1.93-.67-3.86-.67-5.79,0l-.18-10c1.93-.67,4.22-.67,6.15,0l-.18,10Z"/>
  </g>
  <g class="flatRedDark">
    <path d="m29.5,8l-2,111.23c6.1,2.57,22.53,2.57,27.82,0l-2-111.23h-23.82Z"/>
    <path d="m63.11,8l-2,111.23c6.1,2.57,27.53,2.57,32.82,0l-2-111.23h-28.82Z"/>
    <path d="m101.72,8l-2,111.23c6.1,2.57,23.53,2.57,28.82,0l-2-111.23h-24.82Z"/>
    <path d="m136.33,8l-2,111.23c6.1,2.57,22.53,2.57,27.82,0l-2-111.23h-23.82Z"/>
    <path d="m169.94,8l-2,111.23c6.1,2.57,24.53,2.57,29.82,0l-2-111.23h-25.82Z"/>
    <path d="m205.55,8l-2,111.23c6.1,2.57,22.53,2.57,27.82,0l-2-111.23h-23.82Z"/>
    <path d="m239.16,8l-2,111.23c6.1,2.57,22.53,2.57,27.82,0l-2-111.23h-23.82Z"/>
    <path d="m272.77,8l-2,111.23c6.1,2.57,25.53,2.57,30.82,0l-2-111.23h-26.82Z"/>
    <path d="m309.38,8l-2,111.23c6.1,2.57,27.53,2.57,32.82,0l-2-111.23h-28.82Z"/>
    <path d="m347.99,8l-2,111.23c6.1,2.57,22.53,2.57,27.82,0l-2-111.23h-23.82Z"/>
    <path d="m381.6,8l-2,111.23c6.1,2.57,27.53,2.57,32.82,0l-2-111.23h-28.82Z"/>
    <path d="m420.21,8l-2,111.23c6.1,2.57,22.53,2.57,27.82,0l-2-111.23h-23.82Z"/>
    <path d="m453.82,8l-2,111.23c6.1,2.57,26.53,2.57,31.82,0l-2-111.23h-27.82Z"/>
    <path d="m491.43,8l-2,111.23c6.1,2.57,28.53,2.57,33.82,0l-2-111.23h-29.82Z"/>
    <path d="m531.04,8l-2,111.23c6.1,2.57,25.53,2.57,30.82,0l-2-111.23h-26.82Z"/>
    <path d="m567.65,8l-2,111.23c6.1,2.57,25.53,2.57,30.82,0l-2-111.23h-26.82Z"/>
    <path d="m604.26,8l-2,111.23c6.1,2.57,22.53,2.57,27.82,0l-2-111.23h-23.82Z"/>
    <path d="m637.87,8l-2,111.23c6.1,2.57,27.53,2.57,32.82,0l-2-111.23h-28.82Z"/>
    <path d="m676.48,8l-2,111.23c6.1,2.57,22.53,2.57,27.82,0l-2-111.23h-23.82Z"/>
    <path d="m710.09,8l-2,111.23c6.1,2.57,22.53,2.57,27.82,0l-2-111.23h-23.82Z"/>
    <path d="m743.7,8l-2,111.23c6.1,2.57,24.53,2.57,29.82,0l-2-111.23h-25.82Z"/>
    <path d="m779.31,8l-2,111.23c6.1,2.57,22.53,2.57,27.82,0l-2-111.23h-23.82Z"/>
    <path d="m812.92,8l-2,111.23c6.1,2.57,22.53,2.57,27.82,0l-2-111.23h-23.82Z"/>
    <path d="m846.53,8l-2,111.23c6.1,2.57,27.53,2.57,32.82,0l-2-111.23h-28.82Z"/>
    <path d="m885.14,8l-2,111.23c6.1,2.57,27.53,2.57,32.82,0l-2-111.23h-28.82Z"/>
    <path d="m923.75,8l-2,111.23c6.1,2.57,22.53,2.57,27.82,0l-2-111.23h-23.82Z"/>
    <path d="m957.36,8l-2,111.23c6.1,2.57,26.53,2.57,31.82,0l-2-111.23h-27.82Z"/>
    <path d="m994.97,8l-2,111.23c6.1,2.57,22.53,2.57,27.82,0l-2-111.23h-23.82Z"/>
    <path d="m1028.58,8l-2,111.23c6.1,2.57,27.53,2.57,32.82,0l-2-111.23h-28.82Z"/>
    <path d="m1067.19,8l-2,111.23c6.1,2.57,26.53,2.57,31.82,0l-2-111.23h-27.82Z"/>
    <path d="m1104.8,8l-2,111.23c6.1,2.57,26.53,2.57,31.82,0l-2-111.23h-27.82Z"/>
    <path d="m1142.41,8l-2,111.23c6.1,2.57,27.53,2.57,32.82,0l-2-111.23h-28.82Z"/>
  </g>
  <g class="flatYellowDark">
    <path d="m55.32,119.23c-5.29,2.57-21.72,2.57-27.82,0l.18-10c6.1,2.57,22.17,2.57,27.46,0l.18,10Z"/>
    <path d="m93.93,119.23c-5.29,2.57-26.72,2.57-32.82,0l.18-10c6.1,2.57,27.17,2.57,32.46,0l.18,10Z"/>
    <path d="m128.54,119.23c-5.29,2.57-22.72,2.57-28.82,0l.18-10c6.1,2.57,23.17,2.57,28.46,0l.18,10Z"/>
    <path d="m162.15,119.23c-5.29,2.57-21.72,2.57-27.82,0l.18-10c6.1,2.57,22.17,2.57,27.46,0l.18,10Z"/>
    <path d="m197.76,119.23c-5.29,2.57-23.72,2.57-29.82,0l.18-10c6.1,2.57,24.17,2.57,29.46,0l.18,10Z"/>
    <path d="m231.37,119.23c-5.29,2.57-21.72,2.57-27.82,0l.18-10c6.1,2.57,22.17,2.57,27.46,0l.18,10Z"/>
    <path d="m264.98,119.23c-5.29,2.57-21.72,2.57-27.82,0l.18-10c6.1,2.57,22.17,2.57,27.46,0l.18,10Z"/>
    <path d="m301.59,119.23c-5.29,2.57-24.72,2.57-30.82,0l.18-10c6.1,2.57,25.17,2.57,30.46,0l.18,10Z"/>
    <path d="m340.2,119.23c-5.29,2.57-26.72,2.57-32.82,0l.18-10c6.1,2.57,27.17,2.57,32.46,0l.18,10Z"/>
    <path d="m373.81,119.23c-5.29,2.57-21.72,2.57-27.82,0l.18-10c6.1,2.57,22.17,2.57,27.46,0l.18,10Z"/>
    <path d="m412.42,119.23c-5.29,2.57-26.72,2.57-32.82,0l.18-10c6.1,2.57,27.17,2.57,32.46,0l.18,10Z"/>
    <path d="m446.03,119.23c-5.29,2.57-21.72,2.57-27.82,0l.18-10c6.1,2.57,22.17,2.57,27.46,0l.18,10Z"/>
    <path d="m483.64,119.23c-5.29,2.57-25.72,2.57-31.82,0l.18-10c6.1,2.57,26.17,2.57,31.46,0l.18,10Z"/>
    <path d="m523.25,119.23c-5.29,2.57-27.72,2.57-33.82,0l.18-10c6.1,2.57,28.17,2.57,33.46,0l.18,10Z"/>
    <path d="m559.86,119.23c-5.29,2.57-24.72,2.57-30.82,0l.18-10c6.1,2.57,25.17,2.57,30.46,0l.18,10Z"/>
    <path d="m596.47,119.23c-5.29,2.57-24.72,2.57-30.82,0l.18-10c6.1,2.57,25.17,2.57,30.46,0l.18,10Z"/>
    <path d="m630.08,119.23c-5.29,2.57-21.72,2.57-27.82,0l.18-10c6.1,2.57,22.17,2.57,27.46,0l.18,10Z"/>
    <path d="m668.69,119.23c-5.29,2.57-26.72,2.57-32.82,0l.18-10c6.1,2.57,27.17,2.57,32.46,0l.18,10Z"/>
    <path d="m702.3,119.23c-5.29,2.57-21.72,2.57-27.82,0l.18-10c6.1,2.57,22.17,2.57,27.46,0l.18,10Z"/>
    <path d="m735.91,119.23c-5.29,2.57-21.72,2.57-27.82,0l.18-10c6.1,2.57,22.17,2.57,27.46,0l.18,10Z"/>
    <path d="m771.52,119.23c-5.29,2.57-23.72,2.57-29.82,0l.18-10c6.1,2.57,24.17,2.57,29.46,0l.18,10Z"/>
    <path d="m805.13,119.23c-5.29,2.57-21.72,2.57-27.82,0l.18-10c6.1,2.57,22.17,2.57,27.46,0l.18,10Z"/>
    <path d="m838.74,119.23c-5.29,2.57-21.72,2.57-27.82,0l.18-10c6.1,2.57,22.17,2.57,27.46,0l.18,10Z"/>
    <path d="m877.35,119.23c-5.29,2.57-26.72,2.57-32.82,0l.18-10c6.1,2.57,27.17,2.57,32.46,0l.18,10Z"/>
    <path d="m915.96,119.23c-5.29,2.57-26.72,2.57-32.82,0l.18-10c6.1,2.57,27.17,2.57,32.46,0l.18,10Z"/>
    <path d="m949.57,119.23c-5.29,2.57-21.72,2.57-27.82,0l.18-10c6.1,2.57,22.17,2.57,27.46,0l.18,10Z"/>
    <path d="m987.18,119.23c-5.29,2.57-25.72,2.57-31.82,0l.18-10c6.1,2.57,26.17,2.57,31.46,0l.18,10Z"/>
    <path d="m1020.79,119.23c-5.29,2.57-21.72,2.57-27.82,0l.18-10c6.1,2.57,22.17,2.57,27.46,0l.18,10Z"/>
    <path d="m1059.4,119.23c-5.29,2.57-26.72,2.57-32.82,0l.18-10c6.1,2.57,27.17,2.57,32.46,0l.18,10Z"/>
    <path d="m1097.01,119.23c-5.29,2.57-25.72,2.57-31.82,0l.18-10c6.1,2.57,26.17,2.57,31.46,0l.18,10Z"/>
    <path d="m1134.62,119.23c-5.29,2.57-25.72,2.57-31.82,0l.18-10c6.1,2.57,26.17,2.57,31.46,0l.18,10Z"/>
    <path d="m1173.23,119.23c-5.29,2.57-26.72,2.57-32.82,0l.18-10c6.1,2.57,27.17,2.57,32.46,0l.18,10Z"/>
  </g>
  <rect class="steelDark" x="1" y="1" width="1200" height="7"/>
</svg>