<svg viewBox="0 0 237.87 469.95">
  <g class="anaJeans">
    <path d="M74.22,270.4C67.17,292,61,312.25,57.49,328.59c-1.14,4-5.71,5.13-3.42,8.17-1,1.91-4.18,3.17-2.29,5.71-6,8.26-10.64,16.77-13.31,25.67l24.15,15.4c4.38-8.17,10.18-15.17,13.31-22.25.57-1.33,3.62-2.09,3-4.56,4.58-.89,5.2-6.17,8-10.08,3.45-4.82,11.78-18.29,19-30Z"/>
    <path d="M140.44,242.23c-6.33,15.68-3.77,17.3-6.52,20.25,7,19,15.75,55.5,21.81,77,1.08,3.83,5,6.75,2.71,9.89,1.73,9.17,7.66,21.41,11.46,30.82l-25.7,12.08c-8.71-8.83-14.13-20.24-16.48-34.05-2.45-.9-.71-3.64-1.32-5-4.07-.6-2.11-3.14-4.3-6.11-10.11-14.27-26.26-44.3-36.56-57.2-4,.27-2.87-3.68-5.05-5.27-20.49-26.17-6.18-40.05-.25-60C96.51,226.17,122.08,235,140.44,242.23Z"/>
  </g>
  <g class="beltTan">
    <path d="M78.61,227.68c-.88-.27-4.24,8.69-3.35,9,5.12.66,15.48,3.21,26.88,6.6.63-2.34,2-6.76,2.75-9.13C93.32,230.61,83.34,228.12,78.61,227.68Z"/>
    <path d="M108.61,235.25c-.77,2.33-2.12,6.78-2.76,9.1,9.12,2.78,18.15,5.78,24.33,8.17a48.51,48.51,0,0,0,3.33-8.82C126.58,241.07,117.52,238,108.61,235.25Z"/>
    <path d="M138.85,245.82c-.7-.29-1.45-.6-2.24-.91a72.85,72.85,0,0,1-3.27,8.88c.93.39,1.74.76,2.42,1.09Z"/>
  </g>
  <rect class="clothingBrass" x="130.57" y="249.62" width="15.6" height="2.27" transform="translate(-143.62 300.87) rotate(-71.19)"/>
  <g class="soleTan">
    <path d="M196.21,459.68l2,5.38c-3.16,1.85-11.4,5.77-12.48,4.33-2-2.67-4-4.62-6-7.32Z"/>
    <path d="M15.08,451.29,11.43,456C8.08,455-.33,450.59.28,448.9c1.08-3,1.26-7.5,3.1-10.91Z"/>
  </g>
  <g class="anaBoot">
    <path d="M171.07,378.55c8,21.1,17.34,47.69,21.8,51.48,3.31,2.82,7.44,2.34,18.37,6.23,5.67,2,16-3.5,21.85-1,2.76,1.21,6.35,7,3.47,10.12-12,13.06-29.69,8.51-42.67,15.35-7.65,4-14.95,4.33-18-4.25-8.39-23.72-21.31-46.2-34.37-61.88C142.25,379.33,159.32,372.57,171.07,378.55Z"/>
    <path d="M64.43,383.31c-12.34,18.9-25.61,42.31-26.05,48.15-.33,4.33.9,3.41,5.57,14,2.72,6.18,13.87,5.8,15.79,12.81.79,2.91-1.47,8-5.68,8.62-20.76,3.23-22.83-11-39.5-15.79C6,448.69.23,440.3,5.19,432.66c12.55-19.38,23-46,29.77-64.21C47.75,360,63.49,370,64.43,383.31Z"/>
  </g>
  <g class="anaBootLeg">
    <path d="M173.09,383.91c-11.51-4.83-25.08-2.31-28.55,14.47a208.54,208.54,0,0,1,25.28,42.89C178.61,443.86,191,440,192.87,430,188.78,426.55,180.6,403.91,173.09,383.91Z"/>
    <path d="M32.51,375c-5.4,14.24-12.63,31.85-21,47.14,8.06,8.93,17,12.37,26.92,9.33.4-5.3,11.35-25,22.59-42.77C58.89,375.61,47.21,364.41,32.51,375Z"/>
  </g>
  <g class="anaBootStrap">
    <polygon points="153.33 376.71 147.61 379.89 157.07 396.2 162.21 392.93 153.33 376.71"/>
    <polygon points="57.48 368.4 51.82 365.12 42.65 381.59 48.09 384.33 57.48 368.4"/>
  </g>
  <g class="anaJacketInner">
    <path d="M156.52,211.51l-7.76-44.64c-7.73,8.29-9.11,28.54-9.33,51,3.78-.15,7.69-2.16,11.2-3.66S156.69,212.24,156.52,211.51Z"/>
    <path d="M72.36,214.45C77.3,209.08,60,196,54.53,200.23,52,204.73,68.05,216.85,72.36,214.45Z"/>
  </g>
  <path class="anaShirt" d="M139.41,241.82c10.51-20.47,5.6-49.48,7.79-70.71L81.69,219.88a26.4,26.4,0,0,0-.87,4.85C96.8,226.34,121.35,234.77,139.41,241.82Z"/>
  <g class="anaJacket">
    <path d="M152.45,182.69c-1.41-6.37-1.57-11.28-3.44-21.18,0,0-1.14,6.46-1.81,9.6,2.87,4.34,3.28,8.29,4.79,18.12.93,6.07-.54,14.69.14,22.59,1.31-.58,3.92-.81,4.39-.31C157.77,200.86,154.79,193.29,152.45,182.69Z"/>
    <path d="M115.71,96.25c4-.59,7.39-3.23,11.31-.57,2.08-1.39,6.7-1.85,9.47.92,5.66-.69,10.39-4.82,14.31-4.27.72-2.35,2.14-4,5-4.16,10.16-5.19,8.89-9.12,13.85-9.93,3.12-1.5,3.81-4.15,7-4.73,7.4-1.32,12.7,12.47,10.39,16.85-1.15,2.08-6.81,7.74-8.42,9.47-4.24,4.54-12.06,12.22-16.63,15.47-6.34,4.52-17.31,9.58-23,13.74Z"/>
    <path d="M144.73,190.81c-1.41-15.37,10.89-35.5,1.16-53.66-3.45-6.43-11.76-18.54-14.41-25.56-1.77-5.88-3.34-11.53-5-9.25L92.34,97c-7.41,7.67-12.19,16.67-11.29,25.75.29,3-3.46,7.62-.71,25.14-1.06,1.9-1.42,3.58-3.09,5.42-2.28,2.51-.1,5.6-2,8.49-1.51-.12-2.74,1.06-2.26,3.79.53,3-2.82,1.92-4.33,11-.39,2.4-6.53,10.1-14.14,23.6C60,196,77.3,209.08,72.36,214.45c1.36-.76,2.22-2.48,3.92-4.21.53,2.82-1.16,8.8-.27,9.43,7.38,4.66,14.42,2.4,21.91,3.6,6.78,1.08,14,2.2,21.61,2,7-.16,13.94,1.36,21.57.47C140.79,211.37,145.6,200.35,144.73,190.81Z"/>
  </g>
  <g class="anaJacketCollar">
    <path d="M140.56,145.41c-.18.64-5.38,5.13-6.58,4.92-.54-.1-7-4-7.21-4.71-.13-.53-.76-6.85-.52-7.26.13-.22,13.65-.22,13.79,0C140.42,139,140.67,145,140.56,145.41Z"/>
    <path d="M120.41,112.32c4.29-4.36,4.11-8.75,6-10-7.6-5.25-19.8-6.58-32.95-14.53-2-.17-2.94,7.46-5.3,9.62C89.54,100.42,107.94,105.43,120.41,112.32Z"/>
  </g>
  <path class="anaJacketInner" d="M127.56,101.06c-8.69-6.19-27.48-14.85-34-13.25,13.15,8,25.35,9.28,32.95,14.53,1.93-.28,3.34,5.27,5,9.25C129.72,105.83,130.15,102.74,127.56,101.06Z"/>
  <ellipse class="clothingSilver" cx="134.08" cy="145.36" rx="1.39" ry="2.31"/>
  <g class="anaShirtTrim">
    <path d="M183.34,68.56c-1.77.89-3.35,2.93-6.68,5h0c5.5-1,9.84,6.38,10.76,12,2.14-1.87,3.92-2.64,5.19-3.9C195.72,78.56,187.33,66.55,183.34,68.56Z"/>
    <path d="M53.86,205.05a52.72,52.72,0,0,0,3.73-5.65c5.21.18,13.18,5.89,15.18,10.69-1.61,2.17-2.84,4.22-3.91,5.91C65.93,220.57,50.56,209.37,53.86,205.05Z"/>
  </g>
  <g class="clothesDisplayLine">
    <path d="M156.69,203.22c-.76-1-2.32-.88-4.68.27"/>
    <path d="M141.57,216.31a243.35,243.35,0,0,1-40.73-1.47c-8.89-1-18.53-1.47-24.47-3.85"/>
    <path d="M123.5,108c5.92,3.62,10.53,13.64,14.63,21.72,5.2,10.22,10.13,18.88,6.2,32.34-3.52,12.06-3.68,24.47-4.48,38.7-.39,7.07-3.9,15.59-3.39,25.3"/>
    <path d="M169.62,78.24c8.6,1.22,11.71,14.19,9,21.59"/>
    <path d="M81.77,202.55c.51-5.32-14.09-16.55-21.1-12.61"/>
    <path d="M140,138.37a11.3,11.3,0,0,0,5.85-1.22"/>
    <path d="M126.25,138.36c-3.27-.29-5.72-.35-7.71-.58"/>
  </g>
  <g class="clothesOverlapLine">
    <path d="M76.28,210.24c7.28-10.06,16-22.47,22.14-35.52,4.68-10,10.94-18.79,13.67-30.75"/>
    <path d="M80.34,147.88c5.39-11.74,2-16.85,5.88-24"/>
  </g>
  <g class="clothesFoldLine">
    <path d="M131.8,238.89a10.29,10.29,0,0,0,1.17-4.31"/>
    <path d="M135.15,240.18c2.31-4.52,2.22-9.91,3.22-6.05"/>
    <path d="M129,172.32c-3.48,6.78-6.11,16.08-10,24.8"/>
    <path d="M135.67,165c-2.25,9.08-2.77,18.39-4.85,24.35"/>
    <path d="M75.26,161.79c9.47-1.42,20.84,7.65,21.06,6.76.41-1.69-4.58-6.29-10.69-8.45"/>
    <path d="M96.14,162.35c-10.33-7.46-16.16-5-16.35-6.29-.36-2.34,5-2.16,10.15-.45"/>
    <path d="M81.13,159a9.37,9.37,0,0,0-4.13-.35"/>
    <path d="M104.52,139.8c-5.47-1.58-10.65-2.29-14.62.59"/>
    <path d="M100.87,136.15c-6.23-.62-12.1-.28-16.67,3.51"/>
    <path d="M87.71,106.62c2.49-2.05,7.07-2.32,7.25-1.29.21,1.29-10.61,2.6-13.91,17.41"/>
    <path d="M85.66,121.09c5.56-11.55,16.29-12.9,17.55-10.67,1.38,2.45-11.7,1.61-17,13.41"/>
    <path d="M116.8,141.85c-1.81,1.43-3.44,2.32-4.71,2.12.61-4.56,1.44-7.35,1.06-10.77-.77-6.85,2.7-6.14,1.61,0"/>
    <path d="M117,125.27c2.56,7.87-2.82,14.4-1.79,15.23.7.57,2.74-1.6,4.29-4.16"/>
    <path d="M143.49,116.27a16.46,16.46,0,0,1-6.21,6.47"/>
    <path d="M147.73,113c-1.48,6.09-5.54,9.69-7.69,14.27"/>
    <path d="M127,95.68c5,2.33,6,8.52,7.06,8.69,1.64.27,1.57-4.05,0-6.08"/>
    <path d="M136.49,96.6c1.91,1.93,3.18,3.7,3.4,5.19"/>
    <path d="M149.57,96.44c6.67,2,10.15,6.58,10.15,14"/>
    <path d="M168.2,82.06c5.66,1.67,6.61,7.47,3.23,17.06"/>
    <path d="M155.77,88.17c6.86,1.11,10.32,5.19,10.49,12.15"/>
    <path d="M150.8,92.33c6.15.52,10.23,6.7,11.13,6.23,1.64-.84-1.84-5.9-4.8-7.1"/>
    <path d="M85.54,289.93a33.16,33.16,0,0,0,9.1-3.42"/>
    <path d="M133.92,262.48c-.21-5.37-11.76-7.12-20.75-7.39"/>
    <path d="M125.66,260.33c-7.41-2.25-15.73-2.87-24.71-2.28"/>
    <path d="M158.44,349.41c-2,1.84-6.85,2.1-9.9,4.42"/>
    <path d="M154.13,353.9c-2.85,1.47-6.78,2.08-8.56,3.63"/>
    <path d="M138.18,344.27c-4.06,2.15-8,3.48-11.57,2"/>
    <path d="M126.4,353.24c5.84-2,12-4.15,7.23.36"/>
    <path d="M127.72,358.26c1.66.84,4.44-1.51,7-1.81"/>
    <path d="M60.48,333.94a21,21,0,0,0,8.94,9.17"/>
    <path d="M79,356.73a9.89,9.89,0,0,1-5.77-2.9"/>
    <path d="M51.78,342.47c2.69,2.65,7.59,4.18,6.62,5.34"/>
    <path d="M54.07,336.76c1.21,2.05,10.36,6.14,9.19,7.59s-4.78-2.16-6.48-3"/>
    <path d="M77.89,359.43c-1.52.47-4.15-.89-7.46-3.37"/>
  </g>
  <path class="teeth" d="M148.1,76.79a8.43,8.43,0,0,1-1.31,3.76c-.62.41-5.84-1-7.19-2.27C140.26,74.66,143.91,75.34,148.1,76.79Z"/>
  <g class="eye">
    <circle class="sclera" cx="146.99" cy="51.99" r="5.58"/>
    <path class="irisAmber" d="M148.93,56c.4,0,1.47-1.52,1.61-3.51s-.72-3.66-1.12-3.69A20.53,20.53,0,0,0,148.93,56Z"/>
    <path class="pupil" d="M150,53.82c.32,0,.52-.59.58-1.37s-.07-1.41-.39-1.43A11.45,11.45,0,0,0,150,53.82Z"/>
  </g>
  <g class="skinLatino">
    <path d="M88.41,37.52c7.43,14.58,8.84,39.39,5.79,50.7,11.22,6.6,21.7,8.5,29.15,12.29-.72-7,3.66-18.24,8.36-22.61Z"/>
    <path d="M214.31,61.76c2.36-3,.78-7.3-1.61-7.13,1-4.29.59-6.81-3.32-7.72-3.24-.75-12.28-2.09-14.9-.1-7.17,7.78-7.84,16.89-9.93,21.54,3.4.28,8.33,6.84,8.71,10.88,3.67-2.42,7.3,1.39,14.51-5.14,3.48,0,4.19-4,3.59-5.41C214.83,68,215.83,62.13,214.31,61.76Z"/>
    <path d="M56.23,237.11c8,2,12.1-7.69,10.73-11,8.27-13.55-1.6-13.63-4.71-17.39-4.4-5.34-8-4.14-12-3.12C46,206.74,44.56,207,43.55,212c-2.76,5.65-8.92,12.9-2,18,3.41,1.89,1.81,6,8,6.09C51.52,235.81,53,238.63,56.23,237.11Z"/>
    <path d="M111.1,67.09c-2.59,3.49-7.57,1.16-9.16-2.7-31-24,55.52-66.89,52.73-26.08,1.81,8.9-1.25,11.48-1.41,13.53-.36,4.65,6.2,13,6.45,16.93,0,1.54-3.29,3.37-6.23,2.57-2.11,1.45-1.42,3.47-1.73,4.56-2,3.17-6.95.58-10.13.55a13.66,13.66,0,0,0-1.53,2.8c3,3.57,11.74,4,7.54,8.83-4.45,3.43,0,6.8-4.13,9.44-3.84,2.45-10.56-3.1-14.11-4.69-6.83-3-13.13-8-16.31-14.36M150,49.25a23.69,23.69,0,0,0-6.53,2.4,19.66,19.66,0,0,0,6.13,3.69C150.71,54,150.71,50.82,150,49.25Z"/>
  </g>
  <g class="skinOverlapLine">
    <path d="M196,51.64c2.92,2.57,9.17,1.07,11.45,3.93,2.77,3.48,5,4.29,5.85,5.44,1,1.11-4.43,5.92-8.88.31a6.25,6.25,0,0,1-3.48-.46,15.24,15.24,0,0,1-7.77,11.66"/>
    <path d="M205.6,50.28c-.81,1.36-3.13,1.61-4.89,3"/>
    <path d="M212.7,54.63a6.67,6.67,0,0,1-4,2.27"/>
    <path d="M211.36,68.68c-5.15.61-10.35.46-11.87-2.82"/>
    <path d="M207.77,74.09c-8.47.44-9.53-4.6-6.31-6.21"/>
    <path d="M207.46,63.67c-2.89.27-5.77.07-6.91-.78"/>
    <path d="M214.31,61.76a6.28,6.28,0,0,1-1.56.81"/>
  </g>
  <g class="skinFoldLine">
    <path d="M195.06,60.26c1.53,1,3.33.85,5.9.6"/>
    <path d="M200.35,50.28a5,5,0,0,1,.86,2.68"/>
    <path d="M43.55,212c-1.18,8.4,2.81,7.19,3.15,12,5,3.69,6.54-7.31,2.84-8.18,1.14-.59,1.75-2.51,1.43-4.21"/>
    <path d="M42.22,222.41c.61-1.14,1.29-2.34,2-3.59"/>
    <path d="M46.93,228.26c2-1.81,2.59-2.36,3.24-4.18"/>
    <path d="M52.9,232.48c3.5-4,4.1-3.44,4.46-11.52.12-2.84-3.92-4.22-6.09-3.26"/>
    <path d="M57.36,221c1.33-.85,5,.36,5,2.89.24,5.86-.3,6.22-3.5,9.9"/>
    <path d="M67,226.16c-.19-1.48-3-3.21-4.59-2.31"/>
    <path d="M107.49,52c-1.51-10.31-15.86-2.46-6,8.59"/>
    <path d="M108,55.49c-3.05,1.67,2.61,6.13,0,6.88-1.52.43-.66-2.61-4-3.41-4.59-1.12-2-8.27,1.4-6.16"/>
  </g>
  <path class="skinCreaseLine" d="M63,215.92a9.09,9.09,0,0,1-5.62,5"/>
  <g class="head52__edited">
    <g class="lipFemaleMedium">
      <path d="M140.09,79.25c.4,3.62,4.12,7.46,7.54,8.83C151.83,83.27,143.05,82.82,140.09,79.25Z"/>
      <path d="M151.75,75.9a31.12,31.12,0,0,0-10.13.55C144.8,76.48,149.77,79.07,151.75,75.9Z"/>
    </g>
    <path class="cheekLine" d="M148.3,63.29c1.46,10-6.14,8.27-8.86,17.82"/>
    <path class="noseLine" d="M154.86,70.34c-3.36-.76-4.72,1.74-7.31-.62"/>
    <g class="eyeLidLine">
      <path d="M150,49.25c2.22-.35,1-3,1-3"/>
      <path d="M149.57,55.34c.71.51.69,1.41-.26,2.4"/>
    </g>
    <path class="eyeCornerLine" d="M143.44,51.65a3.87,3.87,0,0,1-1.62.2"/>
    <path class="eyeCreaseLine" d="M144.09,50c2-1.39,4.7-2.68,7.22-2.61"/>
    <g class="eyebrowDarkBrown">
      <path d="M154.07,40.22c-8.4-.31-8.57.89-14.31,5.27.65,1.42,4.37-3.07,8.85-2.85C153.47,42.87,153.46,42.86,154.07,40.22Z"/>
    </g>
    <path class="hairDarkBrown" d="M107.57,82.18C104,75.8,102.1,69.5,101.94,64.39c-3.15-4.32-7.32-7.6-5.47-14.25,2.17-7.85,13-7.66,12.79.19,6.59-1-3.75,21.79,14.5,36.77-8.47-13.5-5-40.63-.56-45,5.53-5.41,12.46-4.1,18.57-19.74C145,27.91,149,32.32,154.2,35c.14,1.23.29,2.33.47,3.29,3.73-1.71,5.62-16.28-9.87-29C134.05.42,104.82-2,91.55,2.35c-14.8,4.83-25,17.27-28.8,28.33a41.81,41.81,0,0,1,8-6.16C62.06,40.7,69.08,63.84,91,75c-1.58-2.82-2.21-5.49-1.78-7.78C93.57,73.46,99.84,78.35,107.57,82.18Z"/>
    <path class="hairOverlapLine" d="M141.77,22.34c-1.34-4.18-5.2-8.53-9.82-9.06"/>
  </g>
</svg>
