<svg id="presence" xmlns="http://www.w3.org/2000/svg" viewBox="0 0 1138.57 1733.8">
  <defs>
    <style>
      .cls-1 {
        fill: none;
      }

      .cls-1, .cls-10, .cls-11, .cls-12, .cls-13, .cls-14, .cls-15, .cls-16, .cls-17, .cls-2, .cls-3, .cls-4, .cls-5, .cls-6, .cls-7, .cls-8, .cls-9 {
        stroke: #000;
        stroke-width: 2px;
      }

      .cls-1, .cls-12, .cls-13, .cls-14, .cls-15, .cls-16, .cls-17, .cls-2, .cls-3, .cls-4, .cls-5, .cls-6, .cls-7 {
        stroke-miterlimit: 10;
      }

      .cls-2 {
        fill: #9e9e88;
      }

      .cls-3 {
        fill: #a6a68e;
      }

      .cls-4 {
        fill: #b0b097;
      }

      .cls-5 {
        fill: #cfcfb8;
      }

      .cls-6 {
        fill: #babaa6;
      }

      .cls-7 {
        fill: #c7c7b1;
      }

      .cls-8 {
        fill: #979c75;
      }

      .cls-10, .cls-11, .cls-8, .cls-9 {
        stroke-linejoin: round;
      }

      .cls-9 {
        fill: #bcc292;
      }

      .cls-10 {
        fill: #a3a87e;
      }

      .cls-11 {
        fill: #afb588;
      }

      .cls-12 {
        fill: #664530;
      }

      .cls-13 {
        fill: #805d49;
      }

      .cls-14 {
        fill: #a39670;
      }

      .cls-15 {
        fill: #b0a279;
      }

      .cls-16 {
        fill: #916a53;
      }

      .cls-17 {
        fill: #ad5445;
      }
    </style>
  </defs>
  <title>eating</title>
  <g id="anaJeans">
    <path class="cls-1" d="M243.61,1053.56c-1.06-94.67,17-171.26,69.14-196.79,415.34-107.14,504.88-2.19,291.46,300-45.06,10.67-98.31,5.12-161.68-64.89C360.83,1118.84,287.58,1124,243.61,1053.56Z"/>
    <path class="cls-1" d="M618,1083.34C635,967,650.38,870.26,700,840.82c107.43-63.83,207.42-40.43,287.2,0,5.32-8.51,33.35-2.4,43.61,19.14,18.27-5.21,30.55,18.67,33,43.11,18,181.19-124.46,290-241.47,245.29C732,1165.77,648.27,1173.29,618,1083.34Z"/>
  </g>
  <g id="clothesOverlapLine">
    <path class="cls-1" d="M829.9,1117.41c22.71-46.2,40.53-76,41.82-120.82"/>
    <path class="cls-1" d="M451.61,1066.66c16.47-42.61,19.14-81.2,11.37-139.76"/>
  </g>
  <g id="clothesFoldLine">
    <path class="cls-1" d="M987.15,840.82c34.92,12.48,55.28,106.44,28.65,171.43"/>
    <path class="cls-1" d="M1030.76,860c11.67,22.31,13.67,44.93,14.8,68.51"/>
    <path class="cls-1" d="M904.61,900.28c7.49,42.13,3.44,90.52-29,154.26"/>
    <path class="cls-1" d="M827.09,930c13.48,22.19,21.23,48.81,24.27,79.09"/>
    <path class="cls-1" d="M879.81,1016.08c7.4-59.77,2.45-133.49-27.89-130.35-20.53,2.12,21.63,62,19.8,110.86"/>
    <path class="cls-1" d="M486.48,918.74c1.28,33.3-1.22,65.76-10.25,96.77"/>
    <path class="cls-1" d="M512.09,923.29c-1.7,43.26-16.86,97.89-39.84,119"/>
  </g>
  <g id="anaHeelInner">
    <polygon class="cls-1" points="266.87 1668.92 273.66 1614.35 216.35 1656.85 266.87 1668.92"/>
    <polygon class="cls-1" points="585.86 1698.04 596.48 1648.16 548.68 1684.86 585.86 1698.04"/>
  </g>
  <g id="anaHeelSide">
    <path class="cls-1" d="M345.65,1589.26c.12,21.63-14.51,39.63-21.36,68-3.58,10.91-37.23,12-57.42,11.71l6.79-54.57Z"/>
    <path class="cls-1" d="M660.15,1628.46c-1.45,21.58-18.88,33.22-28,57.74-7.26,12.72-38.34,12.68-46.33,11.84l10.62-49.88Z"/>
  </g>
  <g id="anaBoot">
    <path class="cls-1" d="M457.4,1073.94c-19.25-31.59-93.19-41.2-170.86,9.17a224.31,224.31,0,0,1-48.24-67.19c-14.26,133-26.74,410.18-56.8,449.18-54.44,53.63-49.23,99.52-142.2,120.26-36.21,8.08-59.22,75.45-10.56,96.69,42.9,18.73,104,21.25,136.52,6.66,29.61-13.28,52.8-40.79,131.62-58.66,88.21-20,49.69-109.28,58.06-162.54C373.07,1352.16,420.46,1240.57,457.4,1073.94Z"/>
    <path class="cls-1" d="M839.34,1133.64c-25.56-28-84.24-45.45-165.62-1.33-12.22-26.06-50.6-67.13-65.25-81.29-24.64,131.47-57.33,394.89-90.36,431.42-58.91,48.9-57.42,101.62-123.38,124.49-35.05,12.15-64.63,67.26-17.78,92.25,41.3,22,94.23,42,127.82,30,30.56-10.92,22.19-44.34,103.26-66.36,91.26-24.79,67.8-101,80.32-153.47C715.47,1395.79,780.43,1302.59,839.34,1133.64Z"/>
  </g>
  <g id="anaBootLeg">
    <path class="cls-1" d="M278.82,1134.83c-18.77-19.26-34.63-36.45-46.53-54.72-12.14,142.63-25,351.52-50.79,385h0c5.69-1.63,16.61-2.85,28.06-11.38,16.27,60.44,94.74,64,144.1,31.68a121.06,121.06,0,0,1,1.28-17.89c16.61-105.67,57.76-208.18,92.95-352.73C403.15,1076.49,336.23,1091.17,278.82,1134.83Z"/>
    <path class="cls-1" d="M560.88,1484c9.49,54.22,81.47,65.91,125.3,36.93.58-4,1.28-7.81,2.17-11.54C713,1406.31,768.73,1320,822.86,1178.7c-46.21-42.88-112.1-22.54-165.46,6.57-16.37-31.28-37.2-62.55-58.46-79.91-23.23,139-51.9,345.08-80.83,377.08C530.77,1487.65,542.36,1491.77,560.88,1484Z"/>
  </g>
  <g id="anaBootStrap">
    <polygon class="cls-1" points="411.93 1043.57 440.96 1053.06 417.19 1170.14 391.44 1161.88 411.93 1043.57"/>
    <polygon class="cls-1" points="809.07 1106.37 832.1 1118.58 789.12 1230.04 769.1 1219.61 809.07 1106.37"/>
  </g>
  <g id="anaShirt">
    <path class="cls-1" d="M426.8,234.54c-4,12.27-21.44,6.34-11.27,30-5.3,18.24-22.49,19.24-16.5,52.35,3.67,20.3-36.55,85.28-52.85,139.26-8.1-14.66-18.8-30.06-31.95-46.18-4.15-23.05-15.81-37.23-33.16-44.32,1.87,12.53-87.43,52.52-95.51,46.29-10.23,39.47,16.65,60,28.29,95,10,30.06,18.55,37.1,41.42,79.92s26.8,70.66,76,86.25c33.62,24.37,79.43,3.42,144.48-123.41-3.64,41.75,34.94-389,34.67-389.87C460.78,163.1,436.55,204.82,426.8,234.54Z"/>
    <path class="cls-1" d="M962.54,194.57c80.52,38.23,71.5,64.64,80.33,105.87,7.18,33.5,34.7,41.88,21.54,69.39,12,64.61,38.28,67,33.5,83.75,1.19,33.5,28.71,39.48,16.74,61,7.18,44.27,48.25,107.87-.8,185.64-21.44,22.12-46.22,31.32-78.16,26.12,3.59,25.12,22.74,28.71,7.18,58.62,25,23.77,35.39,52,13.2,90.33-230.94,0-537.66,28.11-537.66-166.9C527.24,651,472.2,671.32,512.88,596c-102-92.85-20.52-160.72-28.19-253.71Z"/>
  </g>
  <path id="anaShirtOrnament" class="cls-1" d="M510.44,159.84c-28.48,25.33-38.91,100.52-25.75,182.4,68.59-.54,48.53,48.51,151.41,62.42,150.15,20.31,73.61-53.71,255.36-36,0-77,27.06-156,71.08-174.1-3.79-13.66-90.53-44.22-155.39-80.7C691.22,121.73,521.79,149.3,510.44,159.84Z"/>
  <g id="anaShirtTrim">
    <path class="cls-1" d="M951.28,546.5c-70.93-16.73-99.54,92.09-39.22,113.09,8.31,2.89,13.32,8.14,22.8,11.5,53.84,19.09,98-80.22,41-111.65C968.51,555.36,960,548.54,951.28,546.5Z"/>
    <path class="cls-1" d="M254.18,296.41c7.1,21.35,13,41.62,26.89,69.25,1.87,12.53-87.43,52.52-95.51,46.29-9.55-41.26-19-59.16-29.07-74.89C143.1,316.19,247.39,276,254.18,296.41Z"/>
    <path class="cls-1" d="M645.9,397.3c-4.75-19.94-10.54-40.6-16.84-60.44,4.1,63.84-6.06,124.54-20,186.34-11.9,52.78,19.05,136.31,35.27,208.5l35.3,1.59C671.36,681.77,642,608.8,639.77,576,635.92,519.71,659.49,462.14,645.9,397.3Z"/>
  </g>
  <g id="anaShirtCollar">
    <path class="cls-1" d="M581.78,500.27c-2.1,4-59.76,22.53-69,20.05-4.15-1.11-46.77-29.55-47.31-34.13-.41-3.51,2.88-30.87,5.21-33.26,3.68-3.78,114.25,8.73,116.62,13.13S583.1,497.8,581.78,500.27Z"/>
    <path class="cls-1" d="M801.87,515c-2.71,4.15-53.54,26.19-57.74,25.74S688.07,508.61,686,503.78c-1.68-3.92.07-29.66,2.73-32.54,3.81-4.12,113.37,5.75,116.55,10.67C807.93,486,804.53,510.91,801.87,515Z"/>
    <path class="cls-1" d="M740.24,219c19.49-12.58,54.92,32.4,69.68,59.26,9.83-62.48,34.71-141.15,21.4-154.46-11.28-11.28-27.25-49-57.27-50.91-177.7,8.1-226.1,95.86-233.71,210,12.14-20.83,24.4-58.89,34.18-59.32,19.47,9.5,53.09,97,71.38,173.77C653.19,300.2,672.29,247.35,740.24,219Z"/>
  </g>
  <g id="anaShirtButton">
    <circle class="cls-1" cx="518.41" cy="496.12" r="11.82"/>
    <circle class="cls-1" cx="746.9" cy="514.76" r="11.82"/>
  </g>
  <path id="clothesEdgeLine" class="cls-1" d="M574.52,223.53c-1.4-20.26,5.45-49.75,18.61-68.7"/>
  <g id="clothesOverlapLine-2" data-name="clothesOverlapLine">
    <path class="cls-1" d="M381,607.17c22.52-93.48-16.38-116.68-34.81-151"/>
    <path class="cls-1" d="M912.55,427.71A326.49,326.49,0,0,0,929.61,485"/>
    <path class="cls-1" d="M975.91,559.44c12.67-12.72,30.09-11,50.59,0,44.35-15.05,89.39,38.86,85.3,100.95"/>
    <path class="cls-1" d="M1035.69,726.35c-27.61-3.18-88.34-37.3-100.83-55.26"/>
  </g>
  <g id="clothesFoldLine-2" data-name="clothesFoldLine">
    <path class="cls-1" d="M896.17,400.42c7.51,5.45,8.19,23.88,16.38,27.29,0-27.16,53.9-64.82,21.83-51.18"/>
    <path class="cls-1" d="M926.88,329.45c18.42.68-21.16,47.76-14.33,98.26"/>
    <path class="cls-1" d="M1039.47,369.71c-10.71,18.61-26.74,35.29-52.55,48.45"/>
    <path class="cls-1" d="M1064.41,369.83c-7.61,15-15.24,25.52-22.9,29.9"/>
    <path class="cls-1" d="M1074.27,453c-11.72,46-45,76.28-117.37,77.79"/>
    <path class="cls-1" d="M1121.35,601c-15.74-18.87-31.45-32.07-47.08-32.47"/>
    <path class="cls-1" d="M1026.5,559.44c53.22,17,34.12,88.67,47.77,114.07"/>
    <path class="cls-1" d="M1040.15,620.82c17.74-2.73-8.87-28.66-37.69-11.69"/>
    <path class="cls-1" d="M1042.87,785c-11.12,11.57-10.06,24.48,7.51,39.19"/>
    <path class="cls-1" d="M735.13,637.88c4,23.3,27.3,39.57,38.22,62.77"/>
    <path class="cls-1" d="M688.05,635.83c12.72,4.29,21.84,30.71,38.21,38.89"/>
    <path class="cls-1" d="M586.38,623.55c-20.64,27.75-43.85,34.94-71,10.91"/>
    <path class="cls-1" d="M512.88,596c12.09,9.17,22.61,17,22.32,22.82"/>
    <path class="cls-1" d="M293,403.14c5.11,13.92-5.45,38.22-9.55,65.51"/>
    <path class="cls-1" d="M314.23,410c3.14,18.71-12.39,43.66-7.62,75"/>
    <path class="cls-1" d="M399.41,608.53c3.41,36.85-38.89,51.86-18.42-1.36"/>
    <path class="cls-1" d="M435.58,569.64q-6.24-68.14-69.4-83.25"/>
    <path class="cls-1" d="M443.77,521.19c-12.55-26.27-34.48-43.24-66.88-49.81"/>
    <path class="cls-1" d="M356.42,456.37c23.89-9.55,80.52-.68,106.64,15"/>
    <path class="cls-1" d="M417.84,394.27c-23.39,8.31-43.13,19.43-53.91,37.53"/>
    <path class="cls-1" d="M451.27,350.6c16.18,5.95,27.41,15.95,31.84,31.48"/>
    <path class="cls-1" d="M415.53,264.55c16.64,9.39,35.74,4.85,54.17,23.28"/>
    <path class="cls-1" d="M479.06,273.94c-9.36-19.55-46.21-28.42-4.59-29.1"/>
    <path class="cls-1" d="M480.37,306.27c-22.74-12.53-44.31-21.12-62.53-18.44"/>
    <path class="cls-1" d="M483.11,331.6c-27.06-24-90.52-20.57-39.34-30.13"/>
  </g>
  <g id="food">
    <path id="containerDarkest" class="cls-2" d="M788.1,801.81,848.17,805l-28.1-68.56C804.63,757.53,793,779.19,788.1,801.81Z"/>
    <g id="containerDarker">
      <path class="cls-3" d="M820.07,736.42l2.57,14.22s-.9,23,.51,33.35c1.64,11.93,8.77,15.6,22.43,20.3l57.71,15.56c10.94,2.79,17.54,5.27,25.51-3.75,6.66-7.53,20-21.3,20-21.3l8.6-7.51Z"/>
      <path class="cls-3" d="M629.33,894.1,785.6,803.18c4.73-2.41,8.87-5.2,12.08-10.8,5.18-9,14.14-39.89,14.14-39.89l8.25-16.07C759.91,733.24,633.28,819.3,629.33,894.1Z"/>
    </g>
    <path id="containerDark" class="cls-4" d="M276.64,808.43l8.5,17s7.67,31.73,11.86,41.27c4.85,11,12.62,14.59,27,15.35l285.82,15.09c14.41.76,22.51-2,28.49-12.41,5.18-9,14.15-39.9,14.15-39.9l8.24-16.07Z"/>
    <polygon id="containerLighter" class="cls-5" points="402.84 815.1 660.75 828.71 721.5 793.52 465.52 780 402.84 815.1"/>
    <polygon id="containerMedium" class="cls-6" points="402.84 815.1 465.52 780 455.94 717.19 276.64 808.35 402.84 815.1"/>
    <polygon id="containerLight" class="cls-7" points="721.5 793.52 465.52 780 455.94 717.19 820.07 736.42 721.5 793.52"/>
    <g id="containerCreaseLine">
      <polyline class="cls-1" points="811.82 752.49 652.5 844.78 285.14 825.38"/>
      <line class="cls-1" x1="948.77" y1="794.8" x2="822.64" y2="750.64"/>
    </g>
    <polygon id="fryDarkest" class="cls-8" points="769.46 733.75 764.34 721.95 754.48 720.58 725.5 698.53 715.46 705.44 691.58 698.29 686 704.12 675.87 698.66 662.3 715.82 642.74 701.32 635.69 710.88 616.73 707.36 612.87 719.11 602.3 717.19 597.28 724.66 769.46 733.75"/>
    <g id="fryDarker">
      <polygon class="cls-8" points="745.53 732.38 758.36 715.46 750.19 709.46 733.12 731.71 745.53 732.38"/>
      <polygon class="cls-8" points="607.35 717.07 606.77 725.16 614.98 725.59 607.35 717.07"/>
    </g>
    <g id="fryLight">
      <polygon class="cls-9" points="702.52 699.75 711.2 700.55 738.6 732.01 730.13 731.55 702.52 699.75"/>
      <path class="cls-9" d="M678,704.62l8.83-.36q16.05,12.12,22.57,26.19Z"/>
      <polygon class="cls-9" points="677.33 728.73 665.9 697.51 649.87 697.04 660.25 727.82 677.33 728.73"/>
      <path class="cls-9" d="M338.27,1.87,319.85,1c-30.79,19.41-66.51,40.44-105.78,61l18.64,1Z"/>
    </g>
    <g id="fryDark">
      <polygon class="cls-10" points="730.13 731.55 702.52 699.75 691.52 710.14 709.45 730.45 730.13 731.55"/>
      <polygon class="cls-10" points="709.45 730.45 678.04 704.62 668.74 716.91 683.87 729.08 709.45 730.45"/>
      <polygon class="cls-10" points="649.87 697.04 644.74 707 650.68 727.47 660.25 727.82 649.87 697.04"/>
      <path class="cls-10" d="M232.71,63,338.27,1.87l1.85,19A1169,1169,0,0,0,236,81.81Z"/>
    </g>
    <g id="fryMedium">
      <polygon class="cls-11" points="725.75 717.26 739.38 700.13 750.19 709.46 735.57 728.53 725.75 717.26"/>
      <polygon class="cls-11" points="661.48 728.05 676.63 716.82 687.84 729.29 661.48 728.05"/>
      <polygon class="cls-11" points="661.61 728.05 644.87 718.97 638.12 726.81 661.61 728.05"/>
      <polygon class="cls-11" points="745.53 732.38 750.95 725.22 761.29 733.32 745.53 732.38"/>
      <polygon class="cls-11" points="636.94 726.75 622.27 711.18 607.35 717.07 614.98 725.59 636.94 726.75"/>
    </g>
  </g>
  <g id="bottle">
    <path id="labelReverse" class="cls-12" d="M924.55,697.33c-.36-3-7.33-4.93-18.32-5.62L887.69,538.24c11,.43,17.88,2,18.2,4.62Z"/>
    <ellipse id="bottleBottom" class="cls-13" cx="869.24" cy="747.21" rx="53.17" ry="11.89" transform="translate(-83.35 109.65) rotate(-6.89)"/>
    <path id="beerSide" class="cls-14" d="M792.45,619.44c0,6.15,27.45,11.14,61.31,11.14s61.31-5,61.31-11.14l13.69,114.38c3.16,25.23-118,39.74-120.91,14.48Z"/>
    <ellipse id="beerTop" class="cls-15" cx="853.76" cy="619.44" rx="61.31" ry="11.15"/>
    <path id="bottleSide" class="cls-16" d="M885.54,496c-6.95-5.17-14-12.29-18-26.83q-10.61-42.57-19.94-87c3.26-1.42,5.11-2.93,5-4.29l-1.85-15.48c-.41-3.38-13-4.66-28.12-2.84s-27.06,6-26.66,9.4l1.86,15.48c.16,1.36,2.31,2.38,5.82,3q1.41,45.4,1.17,89.28c-.39,15.06-5.58,23.66-11.12,30.31-9.76,10.81-12.28,20.58-9.74,41.78l23.9,199.58c2.89,25.26,124.07,10.75,120.91-14.48L904.87,534.24C902.33,513.05,897.57,504.15,885.54,496Z"/>
    <path id="bottleCreaseLine" class="cls-1" d="M847.64,382.08a112,112,0,0,1-44,5.27"/>
    <path id="bottleOverlapLine" class="cls-1" d="M839.88,366.06a147.77,147.77,0,0,1-32.65,4.16"/>
    <g id="label">
      <path class="cls-17" d="M924.55,697.33c.73,6.07-25.74,14.26-59.12,18.29-16.91,2-32.35,2.63-43.56,1.92h0L803.09,562.07c11.18.45,26.6-.3,43.5-2.34,33.39-4,59.93-11.59,59.3-16.87Z"/>
      <path class="cls-17" d="M857.84,428.4a152.32,152.32,0,0,1-25.58,8.25,215,215,0,0,1-27.62-4.06c.15,11.07.19,22,.18,33a110.94,110.94,0,0,0,24.37-7.88A285.66,285.66,0,0,0,865.11,459Q861.41,443.82,857.84,428.4Z"/>
    </g>
  </g>
  <g id="skinMestizo">
    <path class="cls-1" d="M166.09,290.12c3.91,11.49,8.37,25.61,9.43,36.94,2.74,6.7,73.46-24.34,70.72-31-2.94-8-6.86-16.31-7.39-24.89"/>
    <path class="cls-1" d="M790.05,37.63l2,97.61C761.83,235.48,666.85,238.77,645.9,397.3c-9.78-123.62-46.09-161.82-45.85-217.61V70.75"/>
  </g>
</svg>
