<svg id="presence" xmlns="http://www.w3.org/2000/svg" viewBox="0 0 2224.45 1708.98">
  <defs>
    <style>
      .cls-1 {
        fill: #948466;
      }

      .cls-1, .cls-10, .cls-11, .cls-12, .cls-13, .cls-14, .cls-15, .cls-16, .cls-17, .cls-18, .cls-2, .cls-3, .cls-4, .cls-5, .cls-6, .cls-7, .cls-8, .cls-9 {
        stroke: #000;
        stroke-miterlimit: 10;
        stroke-width: 2px;
      }

      .cls-2 {
        fill: #a1986a;
      }

      .cls-3 {
        fill: #aba271;
      }

      .cls-4 {
        fill: #bab07b;
      }

      .cls-5 {
        fill: #d1d4b2;
      }

      .cls-6 {
        fill: #c2c4a5;
      }

      .cls-7 {
        fill: #b1b396;
      }

      .cls-8 {
        fill: #665a46;
      }

      .cls-9 {
        fill: #756d51;
      }

      .cls-10 {
        fill: none;
      }

      .cls-11 {
        fill: #bdb090;
      }

      .cls-12 {
        fill: #b0a486;
      }

      .cls-13 {
        fill: #4c5d5e;
      }

      .cls-14 {
        fill: #ab9577;
      }

      .cls-15 {
        fill: #8f7c63;
      }

      .cls-16 {
        fill: #b3b08d;
      }

      .cls-17 {
        fill: #6a8385;
      }

      .cls-18 {
        fill: #769294;
      }
    </style>
  </defs>
  <title>squatting</title>
  <g id="bassCase">
    <path id="caseLight" class="cls-1" d="M2223.45,1460.94a40.54,40.54,0,0,1-40.53,40.54H43.9a40.54,40.54,0,0,1-40.53-40.54L1,1393H2223.25Z"/>
    <g id="brassDark">
      <path class="cls-2" d="M1921.9,1418.85a6.62,6.62,0,0,1,6.62-6.62h28.57a6.62,6.62,0,0,1,6.62,6.62v50.85c0,6.75-41.81,6.75-41.81,0Zm-12.05,54.28c0,17.87,65.91,17.7,65.91,0v-56.59a17.63,17.63,0,0,0-17.63-17.63h-30.65a17.63,17.63,0,0,0-17.63,17.63Z"/>
      <path class="cls-2" d="M1442.14,1418.85a6.62,6.62,0,0,1,6.62-6.62h28.56a6.62,6.62,0,0,1,6.62,6.62v50.85c0,6.75-41.8,6.75-41.8,0Zm-12.05,54.28c0,17.87,65.91,17.7,65.91,0v-56.59a17.63,17.63,0,0,0-17.63-17.63h-30.66a17.62,17.62,0,0,0-17.62,17.63Z"/>
      <path class="cls-2" d="M638.23,1418.85a6.62,6.62,0,0,1,6.62-6.62h28.56a6.62,6.62,0,0,1,6.62,6.62v50.85c0,6.75-41.8,6.75-41.8,0Zm-12.05,54.28c0,17.87,65.91,17.7,65.91,0v-56.59a17.63,17.63,0,0,0-17.63-17.63H643.8a17.62,17.62,0,0,0-17.62,17.63Z"/>
      <path class="cls-2" d="M184.84,1416.54a17.63,17.63,0,0,1,17.63-17.63h30.65a17.63,17.63,0,0,1,17.63,17.63v56.59c0,17.7-65.91,17.87-65.91,0Zm12,53.16c0,6.75,41.81,6.75,41.81,0v-50.85a6.62,6.62,0,0,0-6.62-6.62H203.51a6.62,6.62,0,0,0-6.62,6.62Z"/>
      <rect class="cls-2" x="89.28" y="634.76" width="2036.91" height="674.62" rx="73.15"/>
      <path class="cls-2" d="M1,1363.35c-.23,3.54,4.6,6,9.05,6H2214.36c4.24,0,8.6-2.71,8.89-6V1393c-.29,3.3-4.65,6-8.89,6H10.09c-4.45,0-9.28-2.47-9-6Z"/>
    </g>
    <g id="brassMedium">
      <path class="cls-3" d="M1978.94,1436.48c0,15.79-72.27,15.79-72.27,0v-67.12h72.27Z"/>
      <path class="cls-3" d="M1499.18,1436.48c0,15.79-72.27,15.79-72.27,0v-67.12h72.27Z"/>
      <path class="cls-3" d="M1402.73,1403.48c0,15.79-72.27,15.79-72.27,0v-34.12h72.27Z"/>
      <path class="cls-3" d="M1201.75,1403.48c0,15.79-72.27,15.79-72.27,0v-34.12h72.27Z"/>
      <path class="cls-3" d="M695.27,1436.48c0,15.79-72.27,15.79-72.27,0v-67.12h72.27Z"/>
      <path class="cls-3" d="M253.93,1436.48c0,15.79-72.27,15.79-72.27,0v-67.12h72.27Z"/>
      <path class="cls-3" d="M2217.44,1356.71l-64.08-33.24a125.44,125.44,0,0,0-57.77-14.09H122.8a125.49,125.49,0,0,0-62.57,16.71L6.75,1356.85c-11.31,6.63-3.53,12.51,3.34,12.51H2214.36C2221.38,1369.36,2228.72,1362,2217.44,1356.71Z"/>
    </g>
    <g id="brassLight">
      <path class="cls-4" d="M1961.19,1420.39c0,3.1-36.77,3.1-36.77,0v-51h36.77Z"/>
      <path class="cls-4" d="M1481.42,1420.39c0,3.1-36.76,3.1-36.76,0v-51h36.76Z"/>
      <path class="cls-4" d="M677.51,1420.39c0,3.1-36.76,3.1-36.76,0v-51h36.76Z"/>
      <path class="cls-4" d="M236.18,1420.39c0,3.1-36.77,3.1-36.77,0v-51h36.77Z"/>
      <path class="cls-4" d="M1396.69,621.66h60.77a0,0,0,0,1,0,0v3.45a9.65,9.65,0,0,1-9.65,9.65h-41.48a9.65,9.65,0,0,1-9.65-9.65v-3.45A0,0,0,0,1,1396.69,621.66Z" transform="translate(2854.15 1256.42) rotate(-180)"/>
      <path class="cls-4" d="M1803.81,621.66h60.77a0,0,0,0,1,0,0v3.45a9.65,9.65,0,0,1-9.65,9.65h-41.48a9.65,9.65,0,0,1-9.65-9.65v-3.45A0,0,0,0,1,1803.81,621.66Z" transform="translate(3668.39 1256.42) rotate(-180)"/>
    </g>
    <g id="liningLight">
      <path class="cls-5" d="M2093.5,1314.32H123.85a104.7,104.7,0,0,0-16.7,1.35c5.39,11.33,7.45,25.86,7.45,48.75H2098.85c0-23,2.61-37.49,9.21-49A99.81,99.81,0,0,0,2093.5,1314.32Z"/>
      <path class="cls-5" d="M169.9,644.19H2045.58a70.15,70.15,0,0,1,70.15,70.15V1231.8a68.15,68.15,0,0,1-68.15,68.15H167.9a68.15,68.15,0,0,1-68.15-68.15V714.33A70.15,70.15,0,0,1,169.9,644.19Z"/>
    </g>
    <g id="liningMedium">
      <path class="cls-6" d="M111,1315.13a104.85,104.85,0,0,0-39.39,13.15L22.93,1357c-9.45,5.53-4.94,7.45.79,7.45H114.6c0-22.89-2.06-37.42-7.45-48.75C108.43,1315.46,109.71,1315.29,111,1315.13Z"/>
      <path class="cls-6" d="M2198.28,1356.85l-57.52-30.76a102.8,102.8,0,0,0-32.7-10.71c-6.6,11.55-9.21,26-9.21,49H2200.7C2206.56,1364.42,2207.7,1361.23,2198.28,1356.85Z"/>
      <path class="cls-6" d="M1310.16,893.86c41.45,14.51,26.95,54.82-15.08,58.27l-763.81,72.74c-22.38.6-43.43-18.36-56.1-44.51-9.89-20.41-37.12-30.65-59-24.62l-251.16,70a47.31,47.31,0,0,0-34.72,45.6v95.34A47.31,47.31,0,0,0,177.62,1214H450.37a47.39,47.39,0,0,0,42.87-27.31c9.76-20.76,23-37.16,46.48-40.66l832.67-50.37c63.34-4.25,69.2,55.55,12.07,61.73-60.65,6.28-73.33,71.85-42.24,98.11,47,39.38,132.11,36.08,213.21,2,71.17-28.33,139.82-24.93,210.76,7.14,84.27,39.84,165.52,38.72,245.39-14.09,56.56-43.54,80.72-104.57,81.94-178.74,2.47-89.23-8.84-176.35-35.71-267.82C2008.06,652.07,1854.17,628.23,1696,707.6,1613.36,753.47,1527.8,776,1455.52,754c-86.76-28.53-163.65-36.29-217.83-1.19-42.17,27-36,88.81-2.38,111.46C1257.76,880.9,1280.92,882.38,1310.16,893.86Z"/>
    </g>
    <path id="liningDark" class="cls-7" d="M1339.31,883.93c31,20.29,26.6,76.84-26.51,86.82l-788.9,75.68c-22.8,1.7-47.57-19.49-62.47-46.42a41.12,41.12,0,0,0-47-19.67l-233,64.45c-17.82,5-29.15,18.18-29.15,36.67v72.42c0,22.84,13.6,39.31,36.44,39.17l253.64-1.6c15-.09,26.73-8.39,33.93-21.57,12.2-22.36,34.27-42.63,53.64-43.63l855.61-52c65.49-5.82,89.5,90,11.41,103.5-63.62,8.68-54.8,52.16-30.75,67,50.18,31.47,121.87,18.12,198.26-13.94,67-26.69,133.43-21.26,200.25,8.94,79.37,37.53,155.35,45.49,230.59-4.26,53.28-41,74.12-99.22,75.27-169.09,2.32-84.06-8.33-166.12-33.64-252.28-46.87-143.13-187.5-159.77-336.53-85-77.8,43.22-177.24,68.66-245.33,48-81.72-26.87-144.85-37.67-196.67-11.2-39.49,21.69-35.9,61.65-4.24,83C1275.3,864.52,1315.8,867.7,1339.31,883.93Z"/>
    <g id="caseStrap">
      <polygon class="cls-8" points="2126.19 891.17 2202.65 1349.04 2192.99 1344.03 2126.19 944.04 2126.19 891.17"/>
      <polygon class="cls-8" points="89.28 891.17 20.33 1349.04 29.05 1344.03 89.28 944.04 89.28 891.17"/>
    </g>
    <path id="handle" class="cls-9" d="M1148.78,1424.85c5.7,16.79,19.34,28.48,46.09,24.93,24.26,10.3,120.22,10.63,143.85,0,27.88,3.55,41.83-9.29,46-24.93,2.62-9.24,4.47-30.11,2.32-42.51a8.63,8.63,0,0,0-8.53-7.13h-22.64a8.67,8.67,0,0,0-8.67,8.91c.42,14.38.73,33.57-8.71,32.08-22.29-9.38-120.55-8.88-143.5,0-10.45,1.25-10.26-17.92-10-32.18a8.67,8.67,0,0,0-8.67-8.85h-21.21a8.64,8.64,0,0,0-8.54,7.2C1144.54,1395.05,1145.62,1416.63,1148.78,1424.85Z"/>
    <g id="caseEdgeLine">
      <path class="cls-10" d="M1194.87,1449.78a118.15,118.15,0,0,1,.16-33.54"/>
      <path class="cls-10" d="M1338.72,1449.78a131.51,131.51,0,0,0-.19-33.58"/>
    </g>
  </g>
  <g id="bass">
    <polygon id="fretboard" class="cls-11" points="1599.46 1141.94 1604.44 1129.17 577.35 703.89 571.7 715.97 1599.46 1141.94"/>
    <path id="neck" class="cls-12" d="M1316.35,1064.11,622.81,771.7c-21.57-8.59-90.31-30-133-41.88l12.3-28.27,52.1,17.31c12.27,3.35,16.52,3.2,25,.12l751.24,311.34Z"/>
    <g id="pickupSide">
      <polygon class="cls-13" points="1788.56 1224.77 1797.07 1204.35 1844.04 1223.98 1836.04 1243.78 1788.56 1224.77"/>
      <polygon class="cls-13" points="1743.45 1202.96 1752.1 1182.6 1798.93 1202.56 1790.8 1222.31 1743.45 1202.96"/>
    </g>
    <path id="bodyLight" class="cls-14" d="M2134.26,1363.52l-803.8-333.2c-11.7-4.89-42.82,69.59-31.11,74.48l803.54,330.12C2115,1440.24,2146.36,1368.84,2134.26,1363.52Z"/>
    <g id="bodyDark">
      <path class="cls-15" d="M1413.62,1151.75a35.21,35.21,0,0,0,14.94,2.6l74.69-3.32a37.26,37.26,0,0,1,15.85,2.78l272.28,112.49a37.16,37.16,0,0,1,13.54,9.6l46.3,51.82a35.25,35.25,0,0,0,12.86,9.09Z"/>
      <path class="cls-15" d="M1833.19,1238.72a32.29,32.29,0,0,1,11.4,8l48.2,52.3a36.2,36.2,0,0,0,12.85,8.94l134.82,55.29a36.16,36.16,0,0,0,15.86,2.64l65.5-3.92c4.94-.3,7.88-.32,12.44,1.59Z"/>
    </g>
    <polygon id="headstockDark" class="cls-16" points="502.1 701.55 489.79 729.82 144.87 564.94 161.55 532.25 502.1 701.55"/>
    <g id="silverDark">
      <path class="cls-17" d="M191.18,587.07l-3.92,8.08a4.45,4.45,0,0,0,2.1,6L219,615.28a4.47,4.47,0,0,0,5.95-2.1l3.93-8.1Z"/>
      <path class="cls-17" d="M266,622.84,262,631a4.48,4.48,0,0,0,2.1,6l29.61,14.17a4.46,4.46,0,0,0,6-2.1l4-8.17Z"/>
      <path class="cls-17" d="M340.84,658.62l-4,8.23a4.48,4.48,0,0,0,2.1,6L368.55,687a4.46,4.46,0,0,0,6-2.1l4-8.25Z"/>
      <path class="cls-17" d="M415.69,694.4l-4,8.24a4.46,4.46,0,0,0,2.1,6l29.6,14.17a4.46,4.46,0,0,0,6-2.1l4-8.26Z"/>
    </g>
    <g id="silver">
      <rect class="cls-18" x="189.36" y="556.27" width="5.59" height="69.7" transform="translate(47.8 -13.45) rotate(4.58)"/>
      <rect class="cls-18" x="264.1" y="592.17" width="5.59" height="69.7" transform="translate(538.86 2.18) rotate(46.58)"/>
      <rect class="cls-18" x="338.93" y="627.99" width="5.59" height="69.7" transform="translate(-251.45 210.87) rotate(-25.42)"/>
      <rect class="cls-18" x="413.84" y="663.65" width="5.59" height="69.7" transform="translate(427.48 -114.75) rotate(31.58)"/>
      <path class="cls-18" d="M461.47,681.35l13.76-27.51c.82-1.7-3.73-5.56-10.14-8.63S452.82,641,452,642.72l-13.59,27.17Z"/>
      <path class="cls-18" d="M387.19,644.43l13.86-27.71c.81-1.69-3.73-5.56-10.14-8.63s-12.27-4.18-13.08-2.48L364.14,633Z"/>
      <path class="cls-18" d="M312.91,607.5l14-27.89c.81-1.69-3.73-5.56-10.14-8.63s-12.27-4.18-13.09-2.49L289.86,596Z"/>
      <path class="cls-18" d="M238.64,570.57l14.05-28.07c.81-1.7-3.73-5.56-10.15-8.63s-12.27-4.19-13.08-2.49l-13.87,27.73Z"/>
      <path class="cls-18" d="M2048.8,1328.1l11.34-26.39c1-2.54-5.89-7.77-15.48-11.69s-18.2-5-19.23-2.52l-11.28,26.24Z"/>
      <path class="cls-18" d="M1969.93,1295.4l11.73-27.3c1-2.53-5.89-7.77-15.48-11.69s-18.2-5.05-19.24-2.52L1935.28,1281Z"/>
    </g>
  </g>
  <g id="anaBootLeg">
    <path class="cls-10" d="M1164.27,1532.91c-91.6-24.61-131.72-242.25-14.38-271.78,114.91-28.91,163.2,108.93,133.24,237.71Z"/>
    <path class="cls-10" d="M934.26,1183.65c-56.39,2-126.19-4.3-190.07-64.56,13.36,105.34,34.2,199.76,27,290.51,34.38,21,141.09,14.71,165.66-6C929.93,1336.36,929.87,1262.23,934.26,1183.65Z"/>
  </g>
  <g id="anaBoot">
    <path class="cls-10" d="M858.48,1362.12c-21.64,33.33-63.29,49-87.33,47.48-.93,11.7-2.33,23.34-4.28,34.93-27.62,22-35,50.57-20.44,95.75,10.86,18.52,170.1,31.87,184,.08,19.64-36,15.92-114.62,6.39-136.72C936.55,1403.15,885.43,1404.23,858.48,1362.12Z"/>
    <path class="cls-10" d="M1148.37,1269.46c36.25,10.6,83.48,0,112.8,60.71,19.58,40.53,23.86,101.54,22,168.67l-118.86,34.07c-30.66-53.47-52.56-105.74-61.32-154.44C1092,1317.82,1133.23,1290.66,1148.37,1269.46Z"/>
  </g>
  <g id="anaHeelSide">
    <path class="cls-10" d="M940.82,1508.17c-14.67,24.4-154.14,28.36-175.22.13,5.89,28,23.17,40.7,30.13,66.56,0,9.79,116.25,7.79,116.25-2C919.4,1547,936.34,1528.87,940.82,1508.17Z"/>
    <path class="cls-10" d="M1133.56,1440c-31.84-62-34-133.46,18.59-152.28,55-19.69,99.22,31.53,110.8,109.7Z"/>
  </g>
  <g id="anaHeelInner">
    <path class="cls-10" d="M1141.3,1437.47c-21.91-60.8-8-89.25,19.25-99.08,28.17-10.15,69.19-11.36,83.81,65.16Z"/>
    <path class="cls-10" d="M1263,1397.43c33.61,82.12,87.86,164.5,84.29,233.58-3.09,59.86-113.28,106.67-160.32,54.24-42.35-47.21-22.73-161.57-50.88-246Z"/>
  </g>
  <path id="clothesOverlapLine" class="cls-10" d="M766.87,1444.53c-4.36,20.35-6.07,45.7-1.27,62.77"/>
  <path id="anaJeans" class="cls-10" d="M1276.75,858c43.44,127,35,350.31,9.21,538.45H1081.85c-26.28-79.07-48.57-153-61.24-214.77-55-10.65-188.24,42.31-297.07-84.3-63-73.35-50.3-283.57,6.87-302.63Z"/>
  <g id="anaBelt">
    <path class="cls-10" d="M1274.81,892.93c-44,56.71-152.35,89.13-264.63,92.92,0,14.26.08,34,.14,47.84,112.25-3.85,221.67-35.33,272.92-92.8C1287.37,935.54,1279,888.71,1274.81,892.93Z"/>
    <path class="cls-10" d="M708.16,887.88c-4.89-2.35-14.54,42.61-10.23,48.61,50.16,64.69,167.74,97.24,286.84,97.6.1-13.66.22-33.35.3-47.87C869.22,985.71,757,954.51,708.16,887.88Z"/>
  </g>
  <g id="clothesDisplayLine">
    <path class="cls-10" d="M1000.14,1180.19c-3.54-15-6.49-59.17-5.69-87.46"/>
  </g>
  <g id="clothesOverlapLine-2" data-name="clothesOverlapLine">
    <path class="cls-10" d="M1020.61,1181.72c64.37,2,208.49,37.66,260.41-158.38"/>
    <path class="cls-10" d="M715.21,854.35c-17.87,20.22-33.44,69.81-31.05,132.57"/>
  </g>
  <g id="clothesFoldLine">
    <path class="cls-10" d="M1274,1095.64c-10.84,23-38.74,51.68-62.14,50.59"/>
  </g>
  <g id="skinMestizo">
    <polyline class="cls-10" points="1094.69 0 1094.69 98.45 885.16 98.45 885.16 6.31"/>
    <path class="cls-10" d="M1587,961.83c-77.17-78.07-111-193.92-150-219.2l-133.74,64c46.86,79.83,134.4,110.51,210.56,190.54"/>
    <path class="cls-10" d="M666,762.83c13.53-29.79,53.88-59.59,62.27-90.25L578.41,624.74c-18,45.13,4.52,84.84-.9,107.4"/>
  </g>
  <path id="anaShirt" class="cls-10" d="M738.27,712.88c-9.54,11.69-2,33.67-3.7,48.61s-13.53,15.39-4.16,33.3c-3.32,24-7.85,45.07-15.2,59.56C718,980.27,1192,1025,1276.75,858c-.08-42.4-9.71-39-18.54-59.63-5.21-12.15,4.92-18.17-5.21-50.08,8.3,15.77,28.37,36.66,50.2,58.31l133.74-64c-11.25-43-24.6-81.87-43.94-108.91,16.58-61.13,2-81.33-8.65-117.12-6.12-20.58,6.94-44.41-10.46-61.53,5.86-17.32-11.69-33.85-13.37-58.28-19.86-162.62-42.63-161.47-68.79-180.78L713,201.86c-48.12,12.66-73.37,60.21-77.41,119.86-2.71,40-19.21,35.38-16,92.12-58.77,77.72,2.67,84.07-20.65,147-58.47,78.16,33.19,176.19,131.41,120C726.77,694.23,729.55,704.85,738.27,712.88Z"/>
  <g id="anaShirtOrnament">
    <path class="cls-10" d="M1135.19,139.71c-43.1-12.12-225.32-21.33-277.78-4-44.18,21.17-108.36,42-144.45,66.15-5.37.39,3.79,88.78,9.16,88.39,95.39,12.12,94.46,35.65,137.13,56.38,44.65,21.69,103.08-10.12,127,58.9,17.49-69,96.64-35.21,134.37-53.62,50.26-24.51,75.47-53,157.38-49.3,6.45-12,5.53-64.06,13.73-86.6C1249.47,176,1182.29,165.32,1135.19,139.71Z"/>
  </g>
  <g id="anaShirtInner">
    <path class="cls-10" d="M1362.29,772.5c2.66-30.33-1.32-86,3.73-85.81,4.33-6.8,36.44-14.21,52.34-28.66,7-2.22,12.72,46.51,29.8,81.77,5.16,8-22.23,43.23-78.08,62.3,18,17.3-36.84,18.09-67,14.9-9.88-2.47-28.41-27.79-40.41-43.72-4.68-5.07,46.58-48.3,53-46.72C1323.11,723.31,1343.17,758.33,1362.29,772.5Z"/>
    <path class="cls-10" d="M736.8,640.9c1.22,16.74-.77,30.27-6.53,40-53.61,45.81-132,16-152.84-34.09-8.86-29.69-1.33-86.19,21.43-85.92-10.8,26.54-9.91,58,22.88,79.17,7.94,5.12,9.3,32.89,25.7,49.73,18.61-8.42,25.7-26.15,34.56-33.24C689.53,651.23,714.35,661.86,736.8,640.9Z"/>
  </g>
  <g id="anaShirtCollar">
    <path class="cls-10" d="M1135.19,139.71c-43.1-12.12-225.32-21.33-277.78-4,10.12-19.17,17.74-50.09,23.93-54.14,26.69-17.49,181.3-19.33,220.88,4.6C1106.54,88.79,1118.78,119.31,1135.19,139.71Z"/>
  </g>
  <g id="clothesOverlapLine-3" data-name="clothesOverlapLine">
    <path class="cls-10" d="M1278.82,377C1280.65,539.6,1235,659.29,1253,748.33c-2.66,26.43-8,56.1-35.23,73.24"/>
    <path class="cls-10" d="M719.64,377.88c-1.82,37.46,4.36,46.68,3.66,77.66-2.74,121.52,10.05,149.85,13.5,185.36"/>
    <path class="cls-10" d="M1315.57,726.56c-18.38,10.31,19.33,49.78,54.51,75.54"/>
    <path class="cls-10" d="M1362.29,772.5s-1.24,14.9-1.78,22.29"/>
  </g>
  <g id="clothesFoldLine-2" data-name="clothesFoldLine">
    <path class="cls-10" d="M1258.21,798.41c7.11,20.16,5.7,42.89-15.24,71.54"/>
    <path class="cls-10" d="M1227.85,787.29c-7,15.91-21.1,29.2-46.37,38.31"/>
    <path class="cls-10" d="M1176,937.89c4.28-6.51,6.73-16.81,7.76-30"/>
    <line class="cls-10" x1="1144.26" y1="948.34" x2="1147.27" y2="928.34"/>
    <path class="cls-10" d="M1039.13,965.4c16.41-20.61,14-57.47,25.49-31.39"/>
    <path class="cls-10" d="M1020.61,966.33c2.41-5.47,4-12.15,4.28-21"/>
    <path class="cls-10" d="M871.6,954.84A35,35,0,0,1,866,934"/>
    <path class="cls-10" d="M846.19,949.13c-11.39-50.3-38.63-67.89-25.58-26.23"/>
    <path class="cls-10" d="M757.13,913.46q-12.89-19.85-8.59-43.51"/>
    <path class="cls-10" d="M730.41,794.79c10,12.19,24.09,22.3,41.4,30.84"/>
    <path class="cls-10" d="M754.78,791c9.77,12.37,26.6,20.94,47.67,27.24"/>
    <path class="cls-10" d="M738.27,712.88c11.41,9.47,27.2,13.47,34.11,23.09"/>
    <path class="cls-10" d="M614.62,598.07q10.68,21,7.12,42"/>
    <path class="cls-10" d="M731.48,606c-28.48,12.35-57.83,2.07-62.38,15.89"/>
    <path class="cls-10" d="M723.12,509.39c-6.36,22.29-18.49,40.22-18.27,62.58"/>
    <path class="cls-10" d="M720.46,413.68C703.15,382.44,676.23,372,669.1,345"/>
    <path class="cls-10" d="M1248.92,691.69c9.25-3.73-1.58,22.15,26.79,32.73"/>
    <path class="cls-10" d="M1250.88,660.51c6.67,4,8.53,11.09,15.18,14.17"/>
    <path class="cls-10" d="M1393,633.72a139.8,139.8,0,0,1-12.31,30.75"/>
    <path class="cls-10" d="M1376.72,616.23c-4,24.95-14,51.61-39.72,82.85"/>
    <path class="cls-10" d="M1318.27,395.49c18.16,27.24,45.07,59.16,44.83,39.72"/>
    <path class="cls-10" d="M1337,459.05c18.16,18.72,39.15,25.53,36.89-4"/>
    <path class="cls-10" d="M1292.17,374.49c25-52.2-9.08-51.63-13.35,2.47"/>
    <path class="cls-10" d="M679.88,345c1.13-47.67,15.32,15.89,39.76,32.89-4.69-14.39,0-30.06-5.66-35.16"/>
    <path class="cls-10" d="M619.51,413.84c-17.37,70.74,13.84,119.54,71.15,97.41"/>
    <path class="cls-10" d="M617.46,538.49c3.88-16.71-12.49-18.73-20.89-43.16"/>
    <path class="cls-10" d="M682,656.54c-9.34-4.26-18.54,2.11-27.66,15.3"/>
  </g>
</svg>
