<svg class="presence" 
    xmlns="http://www.w3.org/2000/svg" viewBox="0 0 2205.75 1838.73">
    <path class="anaJeans" d="M1128.13,1057.88c9-9.27,24.28-6.13,27.88,5.14,25.21-17,24.9,8.79,27.48,9.67,7.1,2.44,15.49-7.76,29.53,7.12,190,10.88,418.62,16.33,512.78,70.65,67,38.65,146.76,141.43,212.82,222.94l-161.37,166.06c-58.1-43.36-120.44-89.15-141.26-124.7-11.74,9-33-8.41-27.2-22.53-14.33,10.35-22.78-4.14-37-2-239.69,36-574.17,239.22-746.33-10.37-23.08-13.11-23.1-39.45-44.33-68.68C920.41,1242.38,1070.28,1119.75,1128.13,1057.88Z"/>
    <g class="anaBoot">
        <path d="M2059.35,1747.3l118.55-116.88c-35.31-14.11-147.83-158.31-240.83-271.54-19.6.44-41,7.08-61.41,18.24C1964.79,1490.91,1993.11,1594,2059.35,1747.3Z"/>
        <path d="M1741.3,1534c-5.19-73.93,75.4-121,150.9-121.94.59-11.34-4.44-25.92-12.93-44.87,86.84,75.67,132,174.92,256.61,279l-47.49,190.63C2000.18,1750.94,1858.94,1634.85,1741.3,1534Z"/>
    </g>
    <g class="anaBootLeg">
        <path d="M2171.51,1689.45l32.62-41c-32.32-12.92-155.58-152.87-243.1-260.27a213.36,213.36,0,0,0-45.55,14.07C1981.21,1472.31,2065.33,1600.76,2171.51,1689.45Z"/>
        <path d="M2088.39,1836.8l89.51-157.14c-94.28-76.19-183.35-185.53-237.91-249.84,1.49,6.85,1.8,14,.16,18.82-95.23-4-162,33.65-169.84,110C1875,1647,2007.55,1758.11,2088.39,1836.8Z"/>
    </g>
    <polygon class="anaBootStrap" points="1774.15 1451.87 1752.49 1477.02 1837.12 1560.59 1858.57 1537.26 1774.15 1451.87"/>
    <g class="beltTan">
        <path d="M1130.4,1078c-28.66,27.92-58.88,55.12-90.32,81.19,2.22,2.15,5,5.18,7.92,8.65,20.17-17.59,38.69-27.22,48.47-20.49l65.6-34C1165.59,1110.2,1133.93,1074.8,1130.4,1078Z"/>
        <path d="M1033.25,1181.75a120.29,120.29,0,0,0-9-9.67c-69.76,56.3-145.16,106.8-222.79,147-5.33,3.08,20.48,47.89,25.82,44.82,45-24.08,93.26-54,141.08-87.73C979.15,1247.22,1006.16,1209.33,1033.25,1181.75Z"/>
    </g>
    <path class="clothingBrass" d="M1157.63,1095.94c-21.83-16.85-54.19-12.38-72.28,10a51.63,51.63,0,0,0-10.7,43.2c9-4.36,16.64-5.39,21.82-1.83,8.46,7.4,15.25,11.88,30.86,2.54,12.22-17,27-32.84,41.77-41.16A47.72,47.72,0,0,0,1157.63,1095.94Z"/>
    <path class="anaShirt" d="M1130.68,1055.7c-38-106.4-94.25-80.92-204.46-261.9-93.66,26.86,5.2,164.48,141.81,323.82C1096.42,1089.15,1114.61,1075.8,1130.68,1055.7Z"/>
    <g class="anaJacketInner">
        <path d="M983.61,1446.46c41.28,11.7,122.13-99.63,82.26-122.63C1023.56,1309.06,952.66,1424.37,983.61,1446.46Z"/>
        <path d="M815.77,385.16c26.12,35.26,146.62-27.64,130.24-60.71C924.36,299.57,807.76,356.76,815.77,385.16Z"/>
        <path d="M744.26,641.24c-38.27-38.91-81.6-83.07-77.1-92.39-11.81-4.35-48.48,11-73.27,17.32C626.19,563.67,699.46,612.41,744.26,641.24Z"/>
    </g>
    <g class="anaJacket">
        <path d="M1060.81,587.3c-3-39.58-18-61.07-26.62-84-14.41-38.25-29.09-77.67-53.84-102.92-14.74-26.34-27-66.7-34.34-75.9,16.38,33.07-104.12,96-130.24,60.71,2.39,11.58,23.79,49.13,36.13,74.59,7.15,19.6,1.05,49.24,18.39,59.77-.11,10.55,8,22.68,11.37,42-13.18-1.15-28.28,1.36-38.91,13.61-48.46,5.84-98.14-13-155,.94L881.84,725.79c29,3.69,57.3-4.89,80.89-10.83,74.9-18.88,48.28-26.86,71.68-43.19C1066.68,649.24,1063.29,619.55,1060.81,587.3Z"/>
        <path d="M667.16,548.85c76.75,78.53,127.75,80,186.14,131,81.38,71.07,78.87,115.34,121.45,163.76,15.25,17.35,35.48,50.19,61,74.31,37,35.07,78.78,74.31,99.13,123q-8.82,10.68-12.71,9.25C1097.27,982,1015.51,939.36,965.84,862.3,837,662.35,820.79,688.36,744.26,641.24,706,602.33,662.66,558.17,667.16,548.85Z"/>
        <path d="M726.41,1266.26c-64.87-51.48-54.23-57.85-70.53-68.89-26.76-18.13-54.82-80-140.92-228.2-49.71-85.54-89.53-111.95-93.78-145-39.77-50.17-13.36-104.59-39.43-153.9C465.9,620,545.41,575.13,593.89,566.17c32.3-2.5,105.57,46.24,150.37,75.07C854.73,712.34,909.51,823,963.4,922.9c37.58,69.63,74,104,115,189.53-39.51,41.67-74.72,84.94-131.13,124,20.48,9,27.86,25.44,48.54,38.06,21.83,13.32,70.1,49.3,70.1,49.3-42.31-14.77-113.21,100.54-82.26,122.63-40.89-10.83-101.86-77.1-167.78-113.66-11.24,8-26.69,19.08-35.91,20.4C758.84,1326.85,749.62,1295.89,726.41,1266.26Z"/>
    </g>
    <g class="anaJacketCollar">
        <path d="M583.77,661.93c-95.3-5.49-205.76,29.78-206.22,19.51-1.34-29.88-19.11-70.23-6.44-70.07,86.33,1.12,166-45.51,222.78-45.2C581.55,576.53,588.51,629.44,583.77,661.93Z"/>
        <path d="M744,717.75c1.58,4.14-9.62,50.6-18.2,56.11-3.84,2.47-63,21-66.95,18.46-3-1.93-35.49-28.85-35.68-32.17-.12-1.84,84.2-73.92,86.06-73.56C714.29,687.58,743,715.15,744,717.75Z"/>
    </g>
    <g class="clothingSilver">
        <ellipse cx="703.22" cy="750.97" rx="11.66" ry="15.01" transform="translate(-319.5 639.03) rotate(-40.63)"/>
        <ellipse cx="945.7" cy="1401.31" rx="10.26" ry="15.01" transform="translate(-742.13 1305.13) rotate(-52.72)"/>
    </g>
    <g class="anaShirtTrim">
        <path d="M1015.38,1420.3c-9.1-7.65-20.21-13.37-31.79-23.28,16.25-38.63,55.15-82.66,82.28-73.19a111.9,111.9,0,0,0,13.25,8.69C1101.6,1348.85,1037.87,1436.62,1015.38,1420.3Z"/>
        <path d="M903.82,297.24c6.07,10.49,10.79,34.32,25,62.57-25.78,22-72.07,40.95-98.36,34.45-6.26-21.46-21-42.9-26.7-60.91C794.28,303.31,888,270,903.82,297.24Z"/>
        <path d="M1009,929.57c-39.78-47.66-59.15-85.23-75.07-115.66C833.6,666.42,814,684.15,744.26,641.24,815.62,687.17,863.74,749.61,903.39,815c30.84,46.26,52.72,102.16,84.8,134.72,43.18,43.81,70.43,87.44,98.29,150,12.15-11.58,25.15-23.15,32.23-30.52C1091.94,1003.84,1031.34,956.4,1009,929.57Z"/>
    </g>
    <g class="clothesDisplayLine">
        <path d="M851.9,459.75c36.63,25.43,130.23-28.54,128.45-59.4"/>
        <path d="M995.77,1274.53c-38.69-1.14-90.88,70.74-93.12,119.66"/>
        <path d="M1096.91,1006.27a52.38,52.38,0,0,0,12.2-10"/>
        <path d="M1051.36,1061.54c-38.18,41.27-107.71,102.54-152.3,131.79"/>
        <path d="M1041.87,1143.23c-41.15-94.48-84.66-145.5-129.62-225.49-42.52-75.64-89.19-165.11-149.84-207.61-92.43-64.79-109.74-49.47-176.6-91"/>
        <path d="M761.9,1294.24c-4.95,3.28-9.08,6-12.53,8.15"/>
        <path d="M709.2,686.59C725.59,673.14,745.4,662,756,649.06"/>
        <path d="M756.22,648.32c7.52-5,18.65-19.36,18.65-19.36"/>
        <path d="M1127.33,1149.85c24.08-33.46,58.17-62.59,82.22-38.21,11.23,11.37,19.48-.82,33.22,19.95"/>
    </g>
    <g class="clothesOverlapLine">
        <path d="M881.66,561.55c15.25,76.63,127.11,131.42,164.4,53"/>
        <path d="M616.25,766.34C642.88,812,678.67,904.2,693.83,927.67c77.61,120.23,46.41,127.84,68.39,144,28-.72,27.3,25.87,56.76,53.89,29.14,27.72,48.14,25.86,52.45,54.6,22.71-1.89,57.48,46.71,75.8,56.35"/>
        <path d="M726.41,1266.26c36.45,31.49,71.29,51.4,89.42,66.54"/>
        <path d="M1168.34,1143.64c129.43-39.31,477.8,14.31,532.47,41.56,42.65,21.25,117.44,111.56,174.85,191.93"/>
        <path d="M1242.77,1131.59a131.47,131.47,0,0,0-29.75-51.78"/>
    </g>
    <g class="clothesFoldLine">
        <path d="M421.18,824.14c-9.17-49.83,30.45-94.92-2.34-66.91"/>
        <path d="M507,850.83c7.61,18.11,4.1,51.25,14.35,96.34"/>
        <path d="M532.94,897.29q13.78,72.69,54,148.26"/>
        <path d="M871.43,1180.12c25.2,15.73,4.49,22.57-24.89,10.28"/>
        <path d="M909.39,1289.46c-39.38,3.91-77.24-2.37-113.41-19.81"/>
        <path d="M674.36,1154.18c29.38-25.27,64.91-42.36,69.69-36.21,6.45,8.29-34.16,21.87-51.24,63.54"/>
        <path d="M762.22,1071.63c-31.15,13.55-87.7,58.33-94,54.54-13.67-8.2,51.59-55.11,56.7-74.47"/>
        <path d="M616.25,766.34c-21.33-31.21-40.79-40.13-53.26-50.54-24.26-20.25,7.88-26.8,54.53,31.78"/>
        <path d="M842.75,575.16c1.68,21.24-7.29,41.69-27.53,69.24"/>
        <path d="M906.53,658.24c7.45,14.85,15,29.71,8.84,44.21"/>
        <path d="M1002.76,685.81c-57.16-3.16-95.57-34-111.74-97.84"/>
        <path d="M1025.13,616.11c-29.67,16.57-58.24,19.42-85.31,3.64"/>
        <path d="M870.29,519.52c20.64,13.4,45.52,13.8,84,56.45"/>
        <path d="M829.46,894.42c2.55,42.92,10.23,80.17,25.19,109.4"/>
        <path d="M807.43,968.4c-1.56,39.67,1.41,77.92,13.38,113.33"/>
        <path d="M1141.18,1161.73c-14.46,17.51-24.14,37-30.48,57.9"/>
        <path d="M1041.2,1206.6c-15.86,22-31.17,45.9-43,69.42"/>
        <path d="M1096.47,1147.31c19.1,13.16-45.37,63.12-26.18,72.87,14.14,7.19,35.5-41.08,57-70.33"/>
        <path d="M976.2,1258.81c28.64-55.47,97.71-127,120.27-111.5,8.46,7.4,15.25,11.88,30.86,2.54"/>
        <path d="M1156,1063c-4.82,3.89-8.9,8-10.9,12.85"/>
        <path d="M1703.45,1264.3c-8.94,26.19-15.13,51-13.71,71.84"/>
        <path d="M1569.26,1351c44.51-30.53,10,33.61,22,43.68"/>
        <path d="M1636,1414.76c7.21-2.49,6.14-13.13,14.57-16.49"/>
        <path d="M1608.79,1392.23c7.1-34,42.14-104.38,58.09-96.18,18.73,9.62-25.42,52-42.27,104.28"/>
        <path d="M1190.94,1072.37c-9.26,2.65-21.2,8.85-26.54,16.36"/>
    </g>
    <g class="skinMestizo">
        <path d="M580,566.93c-22.31-26.53-46.5-89.15-9.66-141.85l-401.74-21c28.81,31.28,154.45,76.42,209.73,207.28C455.1,610,526.17,572.74,580,566.93Z"/>
        <path d="M1021,1415.46c1.22-38.22,27.25-69.92,55.07-80.92,38,2.44,100.25-9.76,124.24,20.33,30.09,37,53.67,40.26,57.33,84.58,23.59,1.62,23.59,37.81-8.13,41.88-7.32,15.45-30.09,18.7-37.81,13.42-8.3,9-30.91,17.07-43.11,8.53-8.64,6.41-27.24,8.14-37.81,3.66-17.08,10.17-34.12,3.26-44.32,3.26-13.42,0-7-33.34,17.45-28.87C1099,1460.18,1056.38,1480.92,1021,1415.46Z"/>
        <path d="M329.59,452.19c18.87,5.57,48.81,26.18,62.57-12.46,32.72,59,125.91,84.52,186,71,44-9.92,86.61-5,100.84-37.83s-35.31-37.61-13.42-78.13c1.41-11.71-5.73-19.23-14.8-23.93a20.35,20.35,0,0,0,2.45-9.4c1.09-14.36-21.07-17.54-7-36.59,19.18-5,31.4-21,22.94-33.69-14-21.05-71-42-84-69.27-5.74-12-.18-37.33-39.24-81.49C435.55-112.38,42.36,438.85,329.59,452.19Z"/>
        <path d="M810.38,334c21.37,22.36,96.4-14.91,85.13-37.73C869,261.48,821.33,195.43,779.59,173.07c-30.31-23.86-52.67-13.42-94.91-11.93-24.92.88-45.84,6.91-68.07,18.88-12.92,7-32.81,12.92-41.76,15.4-14.41,4.48-6.45,33.69,20.84,30.35,6.46,9.42,28.35,17.67,44.79,19.87,5.94,12.4-2.51,38.24,27.3,36.25,8.45,9.94,11.93,33.79,38.27,21.37,30.81,11.93,39.45-1.4,36.27-26.34C764.68,333.57,800.94,317.14,810.38,334Z"/>
    </g>
    <g class="skinOverlapLine">
        <path d="M1257.65,1439.45c.41,11.38-3.25,32.53-8.13,41.88"/>
        <path d="M1190.16,1388.21c23.17,29.28,36.24,42.55,36.63,54.72.4,12.56-6.14,39.62-15.08,51.82"/>
        <path d="M1161.29,1412.61c15.45,28.87,29.27,47.57,27.24,58.15-1.92,10-7.73,24.39-19.93,32.52"/>
        <path d="M1137.3,1446c8.13,30.09,23.58,48-6.51,61"/>
        <path d="M750.77,226.24c-24.35,8.94-48.7,6.46-55.84,30.72-3.3,11.22-8.76,36.36,11.12,46.3"/>
        <path d="M734.37,199.4c-28.82,9.44-48.2,4.48-63.47,33.07-11.53,21.61-10.57,35.51-3.12,49.42"/>
        <path d="M640.48,245.64c-3.49-16.43,5.91-25.95,11.42-37.81,12.9-27.81,38.74-31.78,68.56-33.77"/>
        <path d="M595.69,225.77c14.91-2.5,37.81-17.42,56.21-17.94"/>
    </g>
    <g class="skinFoldLine">
        <path d="M1103.92,1481.33c1.4,4.7,1.61,9.13,5.82,11.12"/>
        <path d="M756.3,266.67c-7.7,9.55-15.27,18.06-30.68-2.12"/>
        <path d="M727.34,287.19c5.92-1.18,12.34-2.51,14.9-10.29"/>
        <path d="M332.61,367c-41.86-53.12-108.54,37.64-4.09,68.39"/>
        <path d="M342.24,385.81c-11.24,17.69,29.2,20.72,15.67,32.1-5.12,4.31-9-11.88-24.43-7.49-29.55,8.39-32.57-30.62-11.88-29.88"/>
    </g>
    <g class="head52__edited">
        <path class="lipFemaleMedium" d="M650.76,370.82a20.35,20.35,0,0,0,2.45-9.4c-10.05-1.7-16.63-.19-24.74,5.48-7.34,5.12-13.67,13.33-22.35,23.47,17.89,2,36.42,14.88,59.44,4.38C667,383,659.83,375.52,650.76,370.82Z"/>
        <path class="lipOverlapLine" d="M650.76,370.82c-12.11,6.6-20.27,3.91-44.64,19.55"/>
        <path class="cheekLine" d="M610,409.45c-16.28-46.38,24.21-92.39-19.82-118.86"/>
        <path class="noseLine" d="M648.08,313.81c-10.94,2.73-16.54,20.85-36.75,19.89"/>
        <path class="eyeLashLine" d="M520.15,257c26.8-6.32,22.58-14.39,50.09-25.58"/>
        <path class="eyeLidLine" d="M580.11,254.66c2.19-8.57-1.26-25.62-9.87-23.29,6.41-9.13-1.22-14-6.59-19.64"/>
        <path class="eyebrowDarkBrown" d="M565.87,181.72c-48.77,17.17-62.15,5.43-92.44,59.1,6.05,8.69,8.38-24.36,54.92-31.14C559.41,205.16,566.25,202,565.87,181.72Z"/>
        <path class="hairDarkBrown" d="M429.22,542.24c-45.66-20.37-84.31-52-99.63-90.05-31.77-14.06-60.21-21.48-72.32-64.64-11.59-41.31,46-81.61,72.18-39.2,28.95-25.26,38.88,127.14,191.34,150.57-71.56-42.06-158.16-190-142-227.1,20.08-46,44.74-79.36,43.61-184.13,14.33,10.19,73.92,24,105.44,27.78,3.48,7.86,13.91,20.06,18,24.91C563.71,109.42,514.7,12,388,1.64,282.09-7,134,74.9,72.64,141.61-.07,220.72-7.37,313.82,7.11,388.38c3.82-18.49,21-44.25,29.28-59.75C16.33,439.55,150.78,557.17,310,549c-18.05-10.73-27.86-24.44-32.82-38.71C322.1,531.27,373.32,545.72,429.22,542.24Z"/>
        <path class="hairOverlapLine" d="M422.44,87.69c-6-5.61-24.12-24.85-74.41-14.29"/>
    </g>
</svg>
