<svg id="presence" xmlns="http://www.w3.org/2000/svg" viewBox="0 0 906.55 2711.31">
  <defs>
    <style>
      .cls-1 {
        fill: #b39a64;
      }

      .cls-1, .cls-2, .cls-3, .cls-4, .cls-5 {
        stroke: #000;
        stroke-width: 2px;
      }

      .cls-1, .cls-5 {
        stroke-miterlimit: 10;
      }

      .cls-2 {
        fill: #d1d3d4;
      }

      .cls-2, .cls-3, .cls-4 {
        stroke-linecap: round;
        stroke-linejoin: round;
      }

      .cls-3 {
        fill: #bf7435;
      }

      .cls-4 {
        fill: #ada79f;
      }

      .cls-5 {
        fill: none;
      }
    </style>
  </defs>
  <title>waiting</title>
  <g id="cigarette">
    <path id="cigaretteFilter" class="cls-1" d="M226.89,120.3l-26.17,18.44c7.56-3.64,16,7,9.76,13.87l25.91-18.26C243.27,128.2,235.16,115.51,226.89,120.3Z"/>
    <path id="cigaretteBody" class="cls-2" d="M200.72,138.74l-22.65,16,9.47,13.87,22.94-16C216.73,145.79,208.28,135.1,200.72,138.74Z"/>
    <path id="cigaretteEmber" class="cls-3" d="M178.07,154.72c8-4.17,17.29,7.47,9.47,13.87C180.36,173.71,171.18,160.38,178.07,154.72Z"/>
    <path id="smoke" class="cls-4" d="M158.73,148.6c-35-3.26-73.08-25-91.39-48.38-16-20.42-17.51-33.69-27.92-59C35.19,31,21.24,11,1,1,22.07,9.08,45.1,21.29,61.34,40.59c20.52,24.38,15.9,37,33.15,59.79C112.42,124.05,122.82,133.22,158.73,148.6Z"/>
  </g>
  <path id="anaJeans" class="cls-5" d="M771,915.18c19.62,51.75,30.9,115.35,32.53,186.68.45,19.8,28.28,34,4.24,48.09,21.11,18.68,0,46.67,5.66,151.32,6.83,126.35-.11,256-9.9,387.51-2.32,31.15,12.74,68.81,1.41,89.1,11.55,80.26,18.38,177,18.39,278.6-34.17,108.08-107.5,89.66-205.07-7.07C603,1988.5,610.39,1874.26,597,1824.55c-14.69-54.67-25.71-119.43-36.77-188.1-3.95,78.12-13.85,155.66-8.49,213.55,6.23,67.34,14.14,97.59,1.41,189.51-72.58,57.89-141.69,79.53-200.82-2.83-1.41-66.47-12.73-183.85-5.66-215-19.15-10.75-8.8-31.38-12.72-45.26-70.72-250.32-108.9-783.49-59.4-831.58C342.47,985.9,697.45,967.51,771,915.18Z"/>
  <g id="anaBelt">
    <path class="cls-5" d="M542.8,985.6c-65,5.29-132.23,6-188.38.49-2.14,17.42-3,50.16-1.54,64.15,56.71,4.63,126.23,3.85,193.61-1.08C544.13,1033.62,542.25,1001.28,542.8,985.6Z"/>
    <path class="cls-5" d="M758.62,944c-43.23,17.82-115.44,31.94-193.16,39.6-1.29,15.45.75,46.68,4,63.74C654,1039.87,732.29,1026,774,1008.23Z"/>
    <path class="cls-5" d="M330.85,983.31c-27.69-3.84-51.81-9.43-70.38-17-3.49-.5-12.43,62.61-8.94,63.11,17.3,8.42,43.82,14.43,76.06,18.32C327,1032.48,328.66,1000,330.85,983.31Z"/>
  </g>
  <ellipse id="anaBuckle" class="cls-5" cx="439.59" cy="1024.97" rx="73.95" ry="50.45" transform="translate(-37.61 16.96) rotate(-2.12)"/>
  <g id="clothesDisplayLine">
    <path class="cls-5" d="M424.08,1074.63c-4.08,56.49,14.69,85.42,18.23,109.88,8.77,60.56,31.88,66.93,49.41,122.71"/>
    <path class="cls-5" d="M323.59,1064.19c-14.46,24-35.84,40.57-71.4,42.1"/>
    <path class="cls-5" d="M574.16,1069.76c29.21,46,110.39,55,178.12,39.85"/>
  </g>
  <g id="clothesOverlapLine">
    <path class="cls-5" d="M560.27,1636.45c-47.16-169.11-49.58-287.77-68.55-329.23"/>
  </g>
  <g id="clothesFoldLine">
    <path class="cls-5" d="M624.79,1239.49c-37.45,4-76.5,12.75-106.78,20.71"/>
    <path class="cls-5" d="M436.74,1261.8a669.57,669.57,0,0,0-105.18-5.58"/>
    <path class="cls-5" d="M443.91,1288.09a1038.05,1038.05,0,0,0-125.1,16.74"/>
    <path class="cls-5" d="M524.39,1284.11a625.22,625.22,0,0,1,110,18.33"/>
    <path class="cls-5" d="M778.57,1791.68q-51.09,12-118.72,11.16"/>
    <path class="cls-5" d="M733.15,1822c-38.17,4.41-74.57,6.46-107.57,4"/>
    <path class="cls-5" d="M781.76,1838.7a511.5,511.5,0,0,1-114,9.56"/>
    <path class="cls-5" d="M497.29,1800.84c-31.87,8.76-117.13,8-148.2-2.39"/>
    <path class="cls-5" d="M346.71,1821.72c33.4,6.53,67.6,8.71,102,5"/>
    <path class="cls-5" d="M507.65,1840.51c-39.83,8.22-80.68,9.68-122.71,5.37"/>
  </g>
  <polygon id="anaHeelInner" class="cls-5" points="444.84 2653.13 447.01 2598.18 395.7 2597.27 396.64 2647.1 444.84 2653.13"/>
  <g id="anaHeelSide">
    <path class="cls-5" d="M518.65,2566.42c1.94,21.54-11.16,44.71-15.6,73.5-2.64,11.18-37.46,14.59-58.21,13.21l2.17-55Z"/>
    <path class="cls-5" d="M663.69,2575c-10.91,27.69,6.44,58.3,7.37,80.15,16.09,15.78,42.85,14.44,53.18,11Z"/>
  </g>
  <g id="anaBoot">
    <path class="cls-5" d="M566.11,2037.23c-22.75-29.17-101.84-35.85-168.67,28.75-18.93-14.48-34.87-32.3-52.55-60.55,1.13,133.76,32.51,399.86,11.34,437-58.86,57.6-58.83,107.67-148.8,139-35,12.19-36.64,67.19,14.14,82.69,44.77,13.68,92.82,5.87,123.48-12.37,27.89-16.59,56.85-38.86,125.73-51,63.62-11.2,58.57-48.6,57.37-103.46C525.53,2377.86,549.76,2208.41,566.11,2037.23Z"/>
    <path class="cls-5" d="M608.57,2029c47.67,11.79,123.95,54.17,154,80.36,27.86-23.82,59.19-62.89,71.79-98.85-4.27,187-30.11,355-19.33,452.42,26.16,36.07,35,123.05,76.52,161.28,28.35,26.07,13.27,78.55-41.75,83.65-51.11,4.74-151,7.16-159.09-36.63C680.33,2615,665,2604.74,657.88,2568c-7-36.05,6.38-86.63,7.14-113.26C661.8,2305.25,615.92,2162.68,608.57,2029Z"/>
  </g>
  <g id="anaBootLeg">
    <path class="cls-5" d="M397.34,2111.68c-19.09-13.38-36.06-30.4-50.75-50.1,6.5,141,28.14,348.39,9.64,380.88,8.09-8,16.7-10.16,26-20.93C417.1,2465,468.56,2479,528,2479c0-109.72,19.52-256.51,34.75-407.2C506.15,2039.52,440.11,2067.51,397.34,2111.68Z"/>
    <path class="cls-5" d="M832.33,2069.3q-25.8,50.63-69.24,81.16c-52.61-38-105-70.68-151.26-81.32,12.8,122,50.29,251,53.19,385.61-.15,5.47-.85,11.95-1.78,19.1,36.25-3.07,65.63-16.14,89.18-44.2,17,23,41.89,27.62,62.6,33.26C805.38,2375.8,825,2232.34,832.33,2069.3Z"/>
  </g>
  <g id="anaBootStrap">
    <polygon class="cls-5" points="510.36 2011.01 540.97 2016 530.94 2136.03 503.6 2130.9 510.36 2011.01"/>
    <path class="cls-5" d="M608.57,2029q4.23,1.05,8.73,2.4c-2.51-6.33-5.8-10-10.09-9.66-5.37-.25-7.8,3.64-7.2,10.83,2.93,34.47,6.91,71.3,13.58,110.46,1.94,10.79,9.87,9,9.87,9C616.49,2110.26,610.78,2069.22,608.57,2029Z"/>
    <path class="cls-5" d="M828.38,2140.72s8.54,0,9.78-11.31c3.73-37.19,5.24-110.94,5.24-110.94.18-7.21-3.71-8.53-9-8C833.33,2055.2,828.38,2140.72,828.38,2140.72Z"/>
  </g>
  <g id="anaShirt">
    <path class="cls-5" d="M205.21,894.94c24.82,15,56.8,20.59,81,33.14l-3.68-309.29c-21,52.61-38.1,105.38-50.33,158.33-38.2,33.57-19.93,47.79-22,73.21C208.75,867.67,196.1,859.72,205.21,894.94Z"/>
    <path class="cls-5" d="M278.85,677.7c-7.86,68.14-30.68,111.69-1.45,177.36.23,20.24-15.73,41.11-2.81,89.82,67.88,41,422.86,22.63,496.4-29.7,26.88-33.64,2.48-32.51,1.25-46C782.8,848.05,760,807.8,753.08,763.82c21.61-34.57-4.16-41.93-5.46-69.4,28.76-25.06,12.35-48.63,7.19-72.35,0-413.2,48.11-325.5-437.17-325.5-38.68,72.67-94,124.91-41.58,254.14C265.35,632.29,282.54,645.79,278.85,677.7Z"/>
    <path class="cls-5" d="M870.47,308.83c1.34-135-143-106.95-171.11,2.67,1.33,50.8-10.7,77.54-25.4,97.59-20.94,5-.17,10.82-10.7,30.75-9.5,18-8.87-22.52-25.4-12-9-22.23-33.76-27.23-51.19-40.89-16.33-12.8-21.25-29.13-50.41-38,16,15.5-66.54,98.72-82.54,83.22,30.65,59,71.6,86.82,110.15,123.37,41.5,39.35,84.3,89.14,136.13,94.67,46.27,4.93,123-89.83,154.78-247.38C862.58,364.12,900.38,331.64,870.47,308.83Z"/>
  </g>
  <path id="anaShirtOrnament" class="cls-5" d="M818.22,219.72C797.09,196.88,776.3,200,677.55,143.86L441,142.93c-61.76,35.29-105.88,103.92-123.31,153.64,389,98.32,205.67-2.66,381.72,14.93C716.11,246.07,774.31,209.7,818.22,219.72Z"/>
  <g id="anaShirtTrim">
    <path class="cls-5" d="M593.31,175.08c-49.51,48.86-79.83,107.81-103,141C475.32,204.09,535,132,593.31,175.08Z"/>
    <path class="cls-5" d="M447.22,732.05c3.91-61.58-17-87.55-9.26-184.15,2.58-32.24-12.49-69.11,6.2-126.82C434.84,410.79,426,402.35,418,393.77,388.24,464,405,501.25,400.18,550.41,391,643.19,409,664.38,408,726.83c-1.31,86.24-30,142.43,7.43,240.17,13.36.29,28.13.48,44,.19C426.32,862.73,442,814.38,447.22,732.05Z"/>
    <path class="cls-5" d="M536.26,348.93c16,15.5-66.54,98.72-82.54,83.22-21.39-26.15-40.89-39.81-54.85-63-13-21.55,62.38-96.57,81.54-80.27C502,307.28,511,330.32,536.26,348.93Z"/>
    <path class="cls-5" d="M205.21,895.94c-9,26.93-41,71.43-40.44,86.13-2.06,4.44,96.71,50.3,98.78,45.86l22.67-98.85C262,916.53,230,910.92,205.21,895.94Z"/>
  </g>
  <g id="anaShirtCollar">
    <path class="cls-5" d="M368.5,432.7c-2,4-52.93,23.77-61.11,21.52-3.66-1-42.7-28.26-43.05-32.8-.27-3.48,5.34-30.77,7.48-33.2,3.39-3.84,101.51,6,103.5,10.33S369.74,430.21,368.5,432.7Z"/>
    <path class="cls-5" d="M570.58,168.19c23.58,10.78,32.1,43,40.75,78.68C645,206.26,699.7,156.36,686.74,143c-11.15-11.48-18.64-48.55-27.84-53.95-43.37-25.46-166-35.58-222.78,43.51-19.14,26.68-24.58,44.49-27.84,76.58,7.06-27.79,18.84-62.08,26.1-62.66,16.25,18.56,20.75,67.3,43,111.41C503.4,204.94,535.29,176.76,570.58,168.19Z"/>
  </g>
  <g id="anaShirtButton">
    <circle class="cls-5" cx="315.28" cy="429.65" r="11.82"/>
  </g>
  <g id="clothesFoldLine-2" data-name="clothesFoldLine">
    <path class="cls-5" d="M232.21,777.12c-3.08,8-4.8,15.42-2.91,21.27"/>
    <path class="cls-5" d="M235,809.13c3.79,8.84,21.56,20.56,33.87,22.63"/>
    <path class="cls-5" d="M277.4,855.06c7.5,11.56,22.1,15.39,20.77,23.56"/>
    <path class="cls-5" d="M295,917.16c1.35,16.18,4.95,29.24,10.94,39"/>
    <path class="cls-5" d="M360.71,939.91c.82,10.08,4.16,18.45,10.13,25"/>
    <path class="cls-5" d="M276.06,550.71c9.47,20.87,11.37,39.83,27.79,71.41"/>
    <path class="cls-5" d="M310.17,534.31c3.78,34.93,17.06,63.81,20.22,97.92"/>
    <path class="cls-5" d="M541.4,567.16q-2.91,66.5-12,142.15"/>
    <path class="cls-5" d="M581.2,610.75c-4.82,50.23-14.45,106-27.8,166.16"/>
    <path class="cls-5" d="M504.13,912.74c.61,20,3.31,37.65,8.19,52.74"/>
    <path class="cls-5" d="M529.4,939.91c-.84,10.32.14,18.29,2.51,24.45"/>
    <path class="cls-5" d="M677.23,915.18a178.78,178.78,0,0,1,10.51,29.32"/>
    <path class="cls-5" d="M741,898.21c-29.53-17-34.75,14.53-10.19,35.11"/>
    <path class="cls-5" d="M737.88,855.25c-.69,20.48,11,31.13,31.59,34.75"/>
    <path class="cls-5" d="M772.24,869.17c-2.57,4.46-5.7,8-9.72,10.09"/>
    <path class="cls-5" d="M753.08,763.82c-12.67,15.62-45.48.65-54.37,18.77"/>
    <path class="cls-5" d="M747.62,694.42C730.3,715,699.07,709.65,725.88,739"/>
    <path class="cls-5" d="M576.15,423.12c-12.89-22.19-39.17-20.22-55.73-35.77"/>
    <path class="cls-5" d="M542.66,425c13.44,6,24.57,16.17,33.49,30.33"/>
    <path class="cls-5" d="M636.8,359.94c-9.38,17-24,29.06-30.32,39.15"/>
    <path class="cls-5" d="M670.91,380.15c7-26.32-31.58,5.06-45.51,31"/>
    <path class="cls-5" d="M727.14,289.18a110.19,110.19,0,0,0-28.59,51.05"/>
    <path class="cls-5" d="M837.07,268.33c-52.93-3-102.35,31-141.4,91.61"/>
    <path class="cls-5" d="M807.38,290.44c-33.17,8.57-62.84,24.73-87.19,52.44"/>
    <path class="cls-5" d="M870.47,308.83c3.17,32.86-24,58-97.21,71.32"/>
    <path class="cls-5" d="M794.74,421.85c-35.33,1-77.71-19.58-120.78-12.76"/>
    <path class="cls-5" d="M724.62,429.43c-16.52-3.38-37.71-7.33-51.19-3.69"/>
    <path class="cls-5" d="M637.86,427.81c10.77,26.36-12.43,75.54,13.47,142.51"/>
    <path class="cls-5" d="M654.65,440.17c7.79,13.44,11.84,29.45,13.12,47.39"/>
    <path class="cls-5" d="M695.55,561.47c-14.53,104.71,63.3-51.36-35.3-117.78"/>
    <path class="cls-5" d="M734.8,581.73c-12.83-56.12-6.95,16-20.85,35.81"/>
    <path class="cls-5" d="M748.16,575.85c2.14-66.28-27.14-117-75.36-134.16"/>
  </g>
  <g id="skinMestizo">
    <path class="cls-5" d="M449.81,257.92c6.5,13.66,15.1,28.23,23.58,34.52,8.35,8.38-60.68,72.79-69,64.41-6.62-8.33-17.05-18.51-27.61-28.76"/>
    <path class="cls-5" d="M655.11,8.39l-2.56,99c-9.9,26.9-55.13,46-82,60.76-23.23,12.81-59.51,79-82.05,129.8-17.59-59.57-43.12-163.66-29.2-186.29V8.39"/>
  </g>
</svg>
