<svg viewBox="0 0 331.63 460.64">
  <g class="eye">
    <g class="sclera">
      <circle cx="189.92" cy="82.91" r="17.91"/>
      <circle cx="78.42" cy="64.45" r="21.34"/>
    </g>
    <g class="irisDarkBrown">
      <ellipse cx="197.45" cy="83.82" rx="3.33" ry="3.17" transform="translate(59.36 247.96) rotate(-72.93)"/>
      <ellipse cx="176.08" cy="78.64" rx="3.33" ry="3.17" transform="translate(49.21 223.87) rotate(-72.93)"/>
      <ellipse cx="91.19" cy="67.65" rx="3.27" ry="3.22" transform="translate(14.02 150.93) rotate(-83.75)"/>
      <ellipse cx="67.19" cy="65.02" rx="3.27" ry="3.22" transform="matrix(0.11, -0.99, 0.99, 0.11, -4.76, 124.74)"/>
    </g>
    <g class="pupil">
      <ellipse cx="197.26" cy="83.68" rx="1.29" ry="1.23" transform="translate(59.35 247.68) rotate(-72.93)"/>
      <ellipse cx="175.89" cy="78.51" rx="1.29" ry="1.23" transform="translate(49.2 223.59) rotate(-72.93)"/>
      <ellipse cx="91.47" cy="67.91" rx="1.27" ry="1.25" transform="translate(14.01 151.45) rotate(-83.75)"/>
      <ellipse cx="67.47" cy="65.28" rx="1.27" ry="1.25" transform="translate(-4.77 125.25) rotate(-83.75)"/>
    </g>
  </g>
  <g class="liz">
    <path class="lizJeans" d="M223.68,243a177.62,177.62,0,0,1-.4,29.8c-.43,4.16,2.8,5.65-.39,7.89-1.53,19-5.34,41.95-10.31,59.28-1.08,3.73,1.42,6.6-1,8.18-.52,2,2.62,2.22.13,4.95,4.36,22.55-3.51,37.82-5.83,61.56L185.44,414c-1.25-18.82-2.17-39.44-2.23-53.63-3-1.66-.21-4.31-1.22-7.21-.63-1.82-1.47-8.37-1.88-13.84-2.1,7.69,1.44,8.18-1.4,10-.7,1.75,3.14,3.33-.59,5.51,4.42,21.81-2.86,40.33-3.05,60.78l-20.29.36c-2.73-20.54-4.67-43.49-5.51-62.43-2.83-2.67.83-2.33-.7-9.73-5.11-24.66-7.24-52.94-7-74.46-2.18-1.66.46-3.82.3-7a88.59,88.59,0,0,1,1.87-22.62Z"/>
    <g class="lizJeansCuff">
      <path d="M206.09,412.72c-3.46,1.55-19.13.53-20.82-1.35-2.31,0-2.79,8.19-.91,8.85,5.75,6.95,17.23,6.61,20.95,1.74C207.61,422.15,208.39,412.92,206.09,412.72Z"/>
      <path d="M175.12,413.36c-3.31,1.58-17.62,1.58-20.67,0-1.79,1.26-1.89,7.47-.06,8.19,6.6,5.52,13.17,6.15,19.71,2.27C176.75,424,176.75,414.27,175.12,413.36Z"/>
    </g>
    <g class="soleLightTanDark">
      <path d="M162.65,456.15h3.51v-2.86A43,43,0,0,0,162.65,456.15Z"/>
      <path d="M195.12,456.89h0l3.43,0v-3A43.68,43.68,0,0,0,195.12,456.89Z"/>
    </g>
    <g class="soleLightTan">
      <path d="M175.07,443.9a37.23,37.23,0,0,1-1.56,9.2c-.56,1-4.84,2.6-7.35,3v-2.86c-2.07,1.23-2.63,2.74-5.71,4.13-6.72,3-21.38,2.76-24.6.05a3.65,3.65,0,0,1-.82-3.33Z"/>
      <path d="M207.34,444.09a41.21,41.21,0,0,1-1.54,9.64c-.55,1.07-4.77,2.71-7.25,3.19v-3c-2,1.29-2.59,2.87-5.63,4.33-6.63,3.16-21.22,2.5-24.26.06-.87-.7-1-2.09-.82-3.5Z"/>
    </g>
    <g class="lizShoe">
      <path d="M154.39,421.55c6.43-.4,13.52-1.37,14.54,2.92a33.67,33.67,0,0,0,5.17-.65c-.45,8.85,2.34,11.77,1,20.08-.56,3.42-7.86,5.44-12.24,9.46-4.69,4.31-26.24,4.45-27.8.78-1.47-5.54,4.6-8.49,6-9.5,4.89-3.6,8-10.24,11.79-14.57C153.7,429,154.38,425.08,154.39,421.55Z"/>
      <path d="M184.36,420.22c6.28.58,13.65-1.5,16.32,2.89a29.76,29.76,0,0,0,4.63-1.15c-.59,9.58,3.38,13.44,2,22.13-.56,3.59-7.37,6.2-12.07,9.91-5,4-25.88,4.65-27.43.81-1.44-5.79,4.55-8.24,5.89-9.29,4.83-3.77,5.9-12.17,9.66-16.71C184.29,427.73,184.35,423.91,184.36,420.22Z"/>
    </g>
    <path class="lizShirt" d="M214.25,131.34c4.08,1.75,7.66-1,9.54,4.71,2.52-.9,4,0,4.71,2.15,2.16,1.08,5.54.5,6.08,4.27,3.91,1.35,8.33,9.74,13.72,13.24-3.26,5.14-9.29,9.83-14.81,17.1-1.09-.76-2.7-1.62-4-2.43-1.75,8.89-4.82,17.53-6.06,27.47-.54,4.31,2.83,11.31-2,15.49.4,2.69,3,5.92.4,8.89,2.89,3.49,1.75,12.8,3.1,24.11-12.12-2-31.78,10.91-48.61,8.08.13-3.36-.89-5-.81-10.11-.94,6.33-2,7.12-1.21,10-12.52-.67-20.06-9.29-31.64-12.12,0-5.66,2.59-9.41,3.36-13.75.73-4.09-.67-4.85,1.35-8.35-2.47-3.57,1.25-3.66.7-10.58-.84-10.47-6-21.41,1.32-27.26-8.25-13-2.75-21.14,6.4-28.54-3.14-2.15-7.4-6.1-7.13-6.91,7.67-8.08,7.11-21.23,29.29-18.41Z"/>
    <path class="lizShirtCollar" d="M197.59,138.61c3-1.22,7,5.57,8.23,10.29,5.86-4.81,12.29-16,11-17.39-2.73-2.79-3.55-5.28-5.23-6.24-5.82-3.33-21.42-4.5-28-1.53-5.23,2.35-8.8,12.67-12.71,21.35,2.93-4.84,6.86-10.23,10.88-7.29Z"/>
    <g class="skinIndian">
      <path d="M227.28,102.74c-5.74,2.56-17.69,16.88-15.86,24-3.65,4.91-7.86,9-13.83,11.85-3.08,1.19-7.48,5.42-10.69,7.81-1.58-2.78-3.56-6.73-5.18-8.62-2.9-4.61-2.13-8.81.51-12,.81-6.34-1.66-19.79-9.33-26.39"/>
      <path d="M295.88,221.54c-11.84-9.37-27.51-11.7-39.14-27.36-6.22-8.38-6.43-5.69-22.68-22.11,5.09-6.52,10.52-10.94,13.75-15.63,10.06,9.82,19,20.39,21.69,21.81,12.84,6.73,17.45,20.92,34.3,31.64,2,.71,3.48-2.53,10.37-.92,4.29,1,7.16,4.7,13.25,4.63,3.35.28.95,6.71-5.82,4.75-3.57.06-4.72,2.3-3.56,4.52a41.83,41.83,0,0,0,9.8,12c2,1.28,5.79,5.37,1.75,6.95,2.34,1.94,2.75,5.84-1.76,5.84-.35,2-3.29,4.38-7.73,0-.29,1.29-2.13,2-4,1-4.86-2.94-4.93-5.77-12.48-11.86C295.35,230.23,297.45,224.55,295.88,221.54Z"/>
      <path d="M153.78,214.38c-9.22-3.23-20.95-8.67-24.69-19.28-1.7-4.85,9.27-32.44,20-47.22a36.25,36.25,0,0,0,6.59,5.81c-9.15,7.4-14.65,15.5-6.4,28.54-2,3,.21,3,.09,5.6h0c3.55,2.24,11,16,20.19,22.63,7.1.38,9.09,11.42,13.72,14.57,5.46-1.05,8.62,3.36,4.62,5.26,1.44,1.31.79,4.67-2.88,3.93.84,5.26-4.58,3-7,3.21-1.25,4.06-5.78,2.11-11.06-.33-3.58-1.65-5.76-5.76-8.59-9.23-1.9,2.21-4.1,2.21-4.73.73-.84-1.47.36-4.11.31-6.2C154,219.74,152.85,217.78,153.78,214.38Z"/>
      <path d="M216.4,109.8c-7.1,8.87-13.78,11.44-25.57,12.79-4.19.48-7.87,1.82-13.61-.53-5.44-2.22-5.53-5.59-8.19-11.44-7.15-15.74,3.18-29.77,3.65-37.5C170.77,33.15,254.85,72.49,216.4,109.8ZM194.69,84c.84.26,1,1.27,4.47,2.31,3.27,1,4.56-.11,7,0a10.35,10.35,0,0,0-5.35-4.39A8,8,0,0,0,193.89,83C193,83.58,194.27,83.9,194.69,84Zm-11.84-3.54c-1.34-1.95-2.39-3.41-4.69-4s-3.9.78-5.26,1.62a6.61,6.61,0,0,0,3.43,2.54c2.81.83,4.16-.2,5.53.17C182.28,81,183.44,81.37,182.85,80.49Z"/>
    </g>
  </g>
  <g class="bennett">
    <g class="soleWhite">
      <path d="M62.39,431c-.81,2.09-2.32,5.77-.2,8.39,3.08,4.44,3.87,7.72,5.35,11.79,4.21,11.54,28.18,8.23,30.69,5.36,1.92-4.7,1-9.13-1.73-10.5C88.91,437,69.45,426,62.39,431Z"/>
      <path d="M11.25,383.55a12.27,12.27,0,0,0-3.69,4.63c.55,5.65,8.05,10.21,13,17.1,5.8,8,21,15,23.91,13.31,5-4.6,2.38-10.18-1.31-14"/>
    </g>
    <g class="bennettShoe">
      <path d="M69.05,408.52c-1.88,12.53-4.23,9.41-6.66,22.52,1.28,4.53,2,5.77,4.67,9.41,2.32,3.18,2.45,7.59,4.92,8.5,5.3-6.24,19-6.53,24.52-2.87-5.89-7.42-8.77-19.08-8-35.79C89.44,406.09,75.69,401.84,69.05,408.52Z"/>
      <path d="M31,363.16c-4.73,9.71-15.52,14.93-19.76,20.39.3,6.07,9.38,12.38,15.64,19.88,5.4-4,12.67-2.09,16.29,1.12-4.36-12.57-1.75-24.84,8-35C45.65,364.37,38.53,361.28,31,363.16Z"/>
    </g>
    <g class="shoelace">
      <path d="M76.67,421.83a90.22,90.22,0,0,0,1.87,17,16.24,16.24,0,0,1,11.07-.55C88,432.6,87.77,428.14,87,422.14A22.49,22.49,0,0,0,76.67,421.83Z"/>
      <path d="M34.39,377.17a47.33,47.33,0,0,0-3.18,16.17,28.83,28.83,0,0,1,10.24,4.24,32.31,32.31,0,0,1,1.49-15.87A25.9,25.9,0,0,0,34.39,377.17Z"/>
    </g>
    <path class="converseLogo" d="M67.54,433.64c2.91.94,4.47-10.29,1.63-11.38S64.55,432.67,67.54,433.64Z"/>
    <path class="bennettJeans" d="M104.4,221c.63,10.57,6.25,13.37,4,17.39,3.93,24.3,3.76,48.73,2.83,73.22-.28,7.36,5.62,14.24,1.29,18.79a5.45,5.45,0,0,1-.7,8.87c.94,14.89-9.21,36-11.3,48.18,1.62,4.06-2.41,7.71-3.32,12.26-.44,2.2,1.15,6.41-2.59,8.44-1.78,3.52-.2,4.76-7.28,9.09.44-6.14-8.74-7.75-10.69-2-2.28,1.82-6.41.35-9.55,2.7.58-5.67-5.54-7.95,2.13-12.83-2.54-5-.55-9.35,3.13-12.76-5.29-6.18,3.67-11.49,5.14-44.18-17.88,16.36-12.51,24.24-22,21.35-1.22,7.85-6.27,5.93-10.55,7.72,3.81-6.63-3.88-10.14-6.81-7.26-3.13.77-7-1.46-9.89-1.25-.11-1.84,0-4.08,1.1-5.53-1.64-7,4.18-7.54,7.18-10.77-2.23-5.5,4.36-4.72,6.11-7.24,8.92-13.38,17.93-32.14,24.46-33.7-2.32-1-2.12-4.06.2-5.62-6.21.39-6.81-7.38-13.18-12.21-26.37-20-32.68-45.43-24.66-75.21Z"/>
    <path class="bennettSleeves" d="M46.06,104.79c-20.76-7.73-31,.33-35.95,26.46a5.7,5.7,0,0,0-1.44,6.64,3.89,3.89,0,0,1-1.28,4c-4.59,1.27.26,3.57-4.76,18.8-3.12,4.07-1.1,5.45-1.88,8.26C-1.46,177,4,184.47,10,185c8.17.77,17.36-4.17,17.83-8.08l74.91-23.13c1,2.72,4.37,6.19,6.54,7.42,1.57,3.67,5.58,3,9.1,4.69,5.34,2.55,14.66-17.82,9.36-20.45-4.66-1.51-2.35-5-5.54-5.1,0-2.32-2.28-4.24-5.21-6-10.19-15-14.09-43.83-41.62-31.14Z"/>
    <path class="shirtWhite" d="M43,116.79c13.14,9.29,39.18,3.8,41-8,4,3.57,6.32-2.49,7.41,3.93,2.55,5.21,5.75-.23,5.85,5.32,4.57,8.38,3.07,22.9,4.4,31.07,1,6,1.94,6.55,1.34,12.31,1.69,11.81,2.79,26.72,1.57,37.13-.24,2.06,2.91,4.48,0,10.51,2.51,4,2.51,6,.58,8.86.92,1.85,1.48,3.59.29,4.79-8.66,2.49-16,6.57-28.94,7.12-13.47.56-32-6.2-49.26-9.73-1.25-1.83,1.79-4,2-8-2.85-2.18,1.7-4,0-8.43-3.26-3.41,3.13-7.92-1.53-26.72-6.25-20.45,5.36-31.12,3.31-34.3,3.29-1.64,1.23-5.3,2.2-8C37.88,130.1,40.9,123.89,43,116.79Z"/>
    <g class="skinEastAsian">
      <path d="M75.32,103.19c10.12,13.44-34.2,18.23-31.41,1.6,1.31-5.32,1.28-13.32-.78-24.91"/>
      <path d="M159.21,133.29c-2.66,2.24-5.18,6.45-8.72,11.27,4.06.45,5.14,4.7,2.33,6-3.4.07-7.16,2.95-9.87.07-5.48,4.8-13.13,15.21-24.41,14.58-6.65-4.43-1.48-18.87,7.94-20.81,6.31-.82,15.8-5.64,21.49-6.89,2.25-3.77,7-5.3,8.84-8.63,1.34-1.81,3.23-1.49,5.15-1,3-4,4.93-1.91,9.59-1.92,5.95-1.86,5.54-.27,9.68.52,1.28.84.45,3.73-3.62,3.53.74,2.62-2.88,5.41-7.31,1-.38-.38-1.06.08-1.52-.32,1.13,1.41.64,3.07,2.8,4.95.13,2.83-4.56,3.47-7.61-1.44A8.58,8.58,0,0,1,159.21,133.29Z"/>
      <path d="M46.29,115.78c1.27,1.14,1.76,2.43,4,3.24a1.9,1.9,0,0,1-.67,2.91c1.32,1.32,1.32,2.87,4.71,3.45,1.1-.47.89-1.92,1.66-3.1-.82-6.74,4.21-9.2,5.49-5.24.86,2.94,2,4.82.81,7.87A32.08,32.08,0,0,0,60,134.3c-.32,3.84-4.17,8.86-9.33,11.77C39.28,156.73,33,175.43,23.9,181c-11.31,3.28-18.63-13.82-8.31-22.31a64,64,0,0,0,22.26-16.79c-2-6.73-1.29-10.74-2.17-15.41-1.2-6.46-3-11-.39-11.83-1.31-6,1.1-5.55,4.36-7-.3-4.75,3.52-4.57,7.21-6.64,3.42.15,2.79,5.71-2.09,6.82a14.68,14.68,0,0,0,3.08,1.45c.81.85.4,3.19-2,3.88C46,113.89,46.17,114.89,46.29,115.78Z"/>
      <path d="M83.84,100.93c-5.16,3.25-4.54,5.6-12.69,5.56-7.5,0-9.08-2.25-16.59-7.18-8.45-5.54-14.71-15.67-15.31-25.79-4.4,2.67-5.64-1.27-7.52-3.36-2.5-2.77-6.93-14.25,1-18.87C32,28,84.8,12.49,104.5,38.52,99,51,107,52.54,100.64,68,98.26,73.78,100.56,90.4,83.84,100.93ZM73,64.77a5.23,5.23,0,0,0-5.28-3.68c-2.66.29-5.74,1-7.61,2.37a14,14,0,0,0,6.44,2.1c1.62.16,3.49-.26,5.66,0C72.58,65.57,73.26,65.63,73,64.77Zm13.5,2.07c.94,0,5.25,2.24,9.76,1.15a3.8,3.8,0,0,0,.36-2.06,18.54,18.54,0,0,0-5.54-2.32c-1.94-.29-3.72.84-5.18,2.47C85.54,66.46,85.82,66.86,86.47,66.84Z"/>
    </g>
  </g>
  <g class="clothesDisplayLine">
    <path d="M160.09,250.08c-3.38,2.68-7.81,3.79-12.5,3.71"/>
    <path d="M199.79,251.46c3.87,3.25,9.52,5,15.94,5.31"/>
    <path d="M173.36,254.23c-1.05,15.91,3.92,17.48,4.32,22.15"/>
    <path d="M181.4,254.83c-.56,9,5.76,16.16-4.66,18.44"/>
    <path d="M202,413.41c1,1.93.8,7.76.25,9.4"/>
    <path d="M204.16,413.2c.92,1.79,1,7.73.24,9.05"/>
    <path d="M173.48,413.86a21.16,21.16,0,0,1,0,10.13"/>
    <path d="M72,449c7.46,6.12,24,3.94,27.16,1.27"/>
    <path d="M26.89,403.43c5.56,5.18,15.22,9.91,20.31,10.35"/>
    <path d="M61.6,228.3A27.93,27.93,0,0,1,45.21,233"/>
    <path d="M92.7,227.51a18.52,18.52,0,0,0,12.46,6.22"/>
    <path d="M72.14,229.76C75,231,72.49,234.46,74,237c2.44,4.26-.12,5.85,1.46,9,1.37,2.73-1.34,4.39,0,7.19"/>
    <path d="M80.69,229.5c2.56,3.65-.77,3.87,1.54,8.13,1.46,2.68-.48,4.51.73,9.62a6.38,6.38,0,0,1-5.41,8"/>
  </g>
  <g class="clothesOverlapLine">
    <path d="M180.11,339.27c-1.15-17.76-2.91-43.16-2.43-62.89"/>
    <path d="M200.68,423.11c1.19,2.32,1.27,7.82.95,12.06"/>
    <path d="M168.93,424.47c1.21,2.21.78,7.72.46,11.77"/>
    <path d="M175.88,239.68a36.89,36.89,0,0,1-.43,4.63"/>
    <path d="M186.9,146.42c1.88,9.37-7.05,9.52-6.49,14.85.94,9.12-9.33,12.31-6.79,18.91,3.49,9.06-3.17,15.74-1.15,23.32a28.07,28.07,0,0,1,1.36,8.72"/>
    <path d="M162.31,141a19.65,19.65,0,0,0-2.64,8c-3.3,2.23-.5,3.05-3.94,4.69"/>
    <path d="M76.64,415.17c.61,1.81,0,4.7,0,6.66"/>
    <path d="M87.33,424.79a25.36,25.36,0,0,0-10.59-.08"/>
    <path d="M87.66,427.61a26.74,26.74,0,0,0-10.73.05"/>
    <path d="M88,430.3a23.83,23.83,0,0,0-10.79.19"/>
    <path d="M88.4,432.92a23.62,23.62,0,0,0-10.8.46"/>
    <path d="M88.92,435.53a20.44,20.44,0,0,0-10.9.52"/>
    <path d="M87.33,417.2c.09,1.36-.31,3.41-.32,4.94"/>
    <path d="M38.17,369.91c-.31,1.59-2.41,4-3.78,7.26"/>
    <path d="M33.48,379.66a30.56,30.56,0,0,1,8.63,4.72"/>
    <path d="M32.71,382.3a24,24,0,0,1,8.84,4.61"/>
    <path d="M32.13,384.94a27.05,27.05,0,0,1,9.1,4.31"/>
    <path d="M31.71,387.5a26.87,26.87,0,0,1,9.36,4.35"/>
    <path d="M31.39,390.32a24.16,24.16,0,0,1,9.75,4.34"/>
    <path d="M77.49,348.1c8-9,11.91-16.87,17.93-23.34,6.89-7.41,8.18-13.42,7.08-18.17-1.94-8.4-12.26-36-25-51.33-4.78-5.78-10.94-4-17.24-1.31"/>
  </g>
  <g class="clothesFoldLine">
    <path d="M222.89,280.72A26.21,26.21,0,0,1,211,282.38"/>
    <path d="M218.53,280a31.2,31.2,0,0,1-10.91-.1"/>
    <path d="M202.69,274.1a60.19,60.19,0,0,1-16.47-1.58"/>
    <path d="M182.55,278a61.55,61.55,0,0,1,11.23,5.35"/>
    <path d="M171.85,273.89c-4.45.1-8.4.33-12,.63"/>
    <path d="M172.59,279.76a47.5,47.5,0,0,0-10.81,7.35"/>
    <path d="M141.52,269.27a27.22,27.22,0,0,0,5.89,1.37"/>
    <path d="M143.53,267.7a25,25,0,0,0,6.4,1.05"/>
    <path d="M149.27,353.46a24.1,24.1,0,0,0,8.84,1.84"/>
    <path d="M178.71,349.24a28,28,0,0,1-9.59,1.13"/>
    <path d="M178.12,354.75a32.89,32.89,0,0,1-8.26,1.28"/>
    <path d="M175.73,353.09a23.23,23.23,0,0,1-7.65.84"/>
    <path d="M174.89,348a39.26,39.26,0,0,1-10.49.32"/>
    <path d="M211.58,348.18a31,31,0,0,1-10.15,2"/>
    <path d="M209.41,346.8a24.36,24.36,0,0,1-9.86,1.36"/>
    <path d="M211.71,353.13a35.12,35.12,0,0,1-7.76,1.64"/>
    <path d="M183.21,360.32c3.69,1.48,8.72,1.76,14.13,1.69"/>
    <path d="M187.06,359.07a51.55,51.55,0,0,0,14.27.53"/>
    <path d="M223.79,136.05c-4.18,1.32-9.46,8-6.32.66"/>
    <path d="M228.5,138.2q-2-.8-4.27,1.23"/>
    <path d="M234.58,142.47c-2.44-.53-8.29,2.74-3.92-1.3"/>
    <path d="M239.49,160.72c-4.4.12-8.52.4-11.47,1.32"/>
    <path d="M233.8,163.6a22.77,22.77,0,0,0-6.11.66"/>
    <path d="M220.35,163.44c-2.88,1-8.49,3.3-11.3,4.62"/>
    <path d="M221.67,168c-3.66-.22-8.74,1.74-13.53,3.14"/>
    <path d="M227,168.39a11.41,11.41,0,0,0,2.5,2"/>
    <path d="M158,144.22a9.71,9.71,0,0,0,.37,5.89"/>
    <path d="M167.42,148.1c-3-.5-5.28-.5-7.75.9"/>
    <path d="M165.53,150.49c-2.77-.21-5.25-.07-6.77,1.23"/>
    <path d="M176.32,149.06c2.47.86,5.21,1.15,7.15,2.07"/>
    <path d="M183,152.26a52.56,52.56,0,0,0-7.88.94"/>
    <path d="M197.43,153.06c-4.68.07-9.21-.31-11.47.14"/>
    <path d="M176.32,165a30.15,30.15,0,0,1-4.75-1.33"/>
    <path d="M175.78,166.63a50.77,50.77,0,0,0-9.08-.27"/>
    <path d="M176.25,168.43c-2.6.2-7.11.92-7.21.4"/>
    <path d="M185.94,165.42H180"/>
    <path d="M190.48,168.3c-4,.09-7.95-.8-11.15-1"/>
    <path d="M184.6,170.57c-2.54-.67-4.85-1.85-6.07-1.85"/>
    <path d="M149.33,182.23a4.25,4.25,0,0,0,3.27.7"/>
    <path d="M156.48,184.93c-2.37,1.63-6.83,1.63-7.78.29"/>
    <path d="M163.22,186.56c3.19.79,6.88,1,8.86,1.8"/>
    <path d="M168.34,190.35a19.89,19.89,0,0,0-4.9-.73"/>
    <path d="M170.07,207.35a42.16,42.16,0,0,0-6.1-1.9"/>
    <path d="M181.81,188.5a47.85,47.85,0,0,0-7.38,0"/>
    <path d="M185.94,191.42c-4.76-.32-8.6-.95-11.85-1.07"/>
    <path d="M181.56,206.71c-2.73.32-5.46.83-8.1.91"/>
    <path d="M183.53,209.12c-3.09,0-6.35.45-9.81.45"/>
    <path d="M147.31,220.07c1.23,1,1.9,2.29,3.46,3.57"/>
    <path d="M221.77,222.23c-.92.92-2.09,1.68-2.16,2.65"/>
    <path d="M221.37,213.34c-1.9,2.22-5.36,2.79-2.18,5.74"/>
    <path d="M221.4,206.16a10.88,10.88,0,0,1-5.25,6.63"/>
    <path d="M217.12,192.55c-3.18,1.66-8.77,1.94-11.19.07"/>
    <path d="M215.05,196.42c-3.94,1.18-10.16-.28-12.23-2.69"/>
    <path d="M75,251.44c-7.53-5.9-16.91-.59-17.64-3.09-.78-2.7,8.08-2.54,14.86,0"/>
    <path d="M97.82,257.11A36.25,36.25,0,0,0,85.28,256"/>
    <path d="M77.6,297.54c11.58,4.8,3.9,7.8-11.33,2.2"/>
    <path d="M67.33,305.8c8.69.27,16.48-.46,17.33,2.7-.41,2.59-10.11-2.19-14.85-.24"/>
    <path d="M67.13,311.42c7.67-.12,11.81,2.44.48,2.08"/>
    <path d="M82,319.59c-5.54-2.78-12-1.55-19.36,3.4"/>
    <path d="M112.52,330.36c-2.3,1.8-4,3.4-2,3.72"/>
    <path d="M106.87,330.55c-3.89,4-6.55,6.34-12.22,1.94"/>
    <path d="M111.82,339.23c-3.36,1.54-10.58-.53-4.46,6.54"/>
    <path d="M88.69,336.27c7.57-.56,7,2.79-1.71,10"/>
    <path d="M103.71,351.13c-3.4-4.86-9.55-4.24-16.24,0"/>
    <path d="M45,353.19c2.68,4.38,5.85,12.65,12.83,12.73"/>
    <path d="M36.56,352.36c2.71,5.58,14.89,12.88-1.67,7.77"/>
    <path d="M29.38,363.13c1.25,2,4.31,3.32,7.8,3.22"/>
    <path d="M55.53,369.45c-1.79-.7-3.37-.94-4.4.08"/>
    <path d="M94.82,401.54c-5.63,3.74-13.2,5.08-21.12-1.22"/>
    <path d="M72.35,392.28a5.44,5.44,0,0,1,2.94,4"/>
    <path d="M69.22,405a9,9,0,0,0,5.59,5.51"/>
    <path d="M94.61,408.11c-2.56,1.8-6.53-.24-9.94.49"/>
    <path d="M111.58,160.29a14.92,14.92,0,0,1,7.68-16.83"/>
    <path d="M109.23,161.24a13.51,13.51,0,0,1-.17-10.22"/>
    <path d="M105.28,151.93A20.63,20.63,0,0,1,111,141.17"/>
    <path d="M112,145.87c1.94-3.48,5.74-5.44,10.11-5.49"/>
    <path d="M105.84,133.87c4.71.4,6.21,1.71,9.29,3.75"/>
    <path d="M116.94,134.33c-3.06-1.58-3.33-3.42-7-4"/>
    <path d="M103.67,114.74c1.15,4.55.21,10-2.1,15.57"/>
    <path d="M106.42,124.25c-.66,4.51-2.15,8.6-3.9,10.54"/>
    <path d="M98.4,115.21c-4.15,10.89-16.53,21.38-24.14,30.31"/>
    <path d="M95.19,113.26A42.2,42.2,0,0,1,86.83,128"/>
    <path d="M93.93,108.45c-6.62,9.17-20.33,18.19-29.06,25.28"/>
    <path d="M88.67,107.76c-2,3.86-8.31,8.14-12.59,12.83"/>
    <path d="M103,161.41c-.57,2.86-1.46,5.5-3.45,7.36"/>
    <path d="M101.16,162.47a16.09,16.09,0,0,1-6,7.44"/>
    <path d="M101.16,179.3c-4.84,7.17-13.56,13.29-21.29,16.61"/>
    <path d="M44.72,158.46C51.79,172,61.8,179.35,76.09,177.81"/>
    <path d="M44.26,168.42c4.91,10.45,10.12,19.28,16,24.4"/>
    <path d="M105.19,217.91a34.75,34.75,0,0,1-10.1,5.71"/>
    <path d="M104.61,209.05c-5.51,7.24-17.57,11.31-10.32,11"/>
    <path d="M102,205.07C90,219.05,72.28,227.16,52,223.16"/>
    <path d="M29.31,212.1a48.63,48.63,0,0,0,14.6,5"/>
    <path d="M29.31,203.67A58.91,58.91,0,0,0,73.23,217"/>
    <path d="M37.15,204.61a40.64,40.64,0,0,0,16.5,7"/>
    <path d="M38,187a51.67,51.67,0,0,0,35.51,21.64"/>
    <path d="M28.26,115.06c3.32,3.09,7.75,17,5,19.63"/>
    <path d="M27.34,111.17c2.06,2.75,5.37,4.81,6.73,8.36"/>
    <path d="M10.11,131.25c3.61-3.19,9.24-5,14.57-6.23"/>
    <path d="M28.34,126.4c-7,2.21-21.42,6.84-8.47,8.13"/>
    <path d="M8.67,137.89c4.39-1.95,10.68-.69,16.46,1.33"/>
    <path d="M28.11,141.06a6.94,6.94,0,0,1,3,1.59"/>
    <path d="M7.39,141.89c5.81.63,12.8,4.73,19.24,10.51"/>
    <path d="M9.71,145.87C15,148,20,151,22.89,154.87"/>
    <path d="M2.63,160.69c2.58-3.61,6.93-4.67,10.94-4.63"/>
    <path d="M7.07,164.65C5,168.77,6.47,177.13,12,180"/>
    <path d="M5.35,178.62a15.1,15.1,0,0,1,7.76-20.5c-3,.43-6.44,1.52-8.67,3.78"/>
  </g>
  <g class="skinOverlapLine">
    <path d="M149.42,187.83a17.85,17.85,0,0,0-8-2.24"/>
    <path d="M312.41,237.08c3,6.5,8.85,8.22,7.69,10.61"/>
    <path d="M315.07,233.37c6.57,10.26,12.55,11.24,12.76,14.32"/>
    <path d="M317.87,229.73a52.22,52.22,0,0,0,11.72,12.12"/>
    <path d="M317.84,214.41a10.82,10.82,0,0,1-.08,5.94"/>
    <path d="M153.78,214.38c4.64-7.91,9.67-4.66,12.26-3.29,1.11.59,1.62-.4,3.57-.63"/>
    <path d="M158.42,227.87a6.9,6.9,0,0,0,1.79-5.67c-.17-1.38,2.24-2.45,1.62-4.54"/>
    <path d="M188,230.29a7.13,7.13,0,0,0-5.13-1.36c-4.13-1.06-3.68-2.71-5.95-3.85"/>
    <path d="M185.07,234.22a5.47,5.47,0,0,0-5.73-1.48c-6-2.6-4.7-4-7.46-5.6"/>
    <path d="M178.07,237.43c-.44-2.67-3.43-2.91-5.14-2.91-4.54-2.51-4.86-4.7-7.45-6.08"/>
    <path d="M177.61,130c-1.65-.64-3.11-3.26-6.06-4.05"/>
    <path d="M162,127.83a17.24,17.24,0,0,1,6.82,2.78"/>
    <path d="M143,150.59c-1.86-4.41,3.34-8.43,5-13.12"/>
    <path d="M39.65,107.61c2.18-.62,3.46-.72,5.12.18"/>
    <path d="M45.85,113.12a8,8,0,0,1-4.88-.46,2.8,2.8,0,0,1,.28,1.33,7.58,7.58,0,0,1,5,1.79"/>
    <path d="M35.29,114.64c1.08-.83,3.46-.78,6-.65"/>
    <path d="M49.66,121.93c-2.2,1-5.43.15-6.3-2-1.49.28-2.14.41-3.17-.06a2.68,2.68,0,0,1,.26,2.35"/>
    <path d="M38.05,126.26c.67-5.26,3.62-4.17,5.57-3.73,3,.68,5,2.09,5.56,5.81,2.13,4.06-4,4.31-4.47-.14a3.35,3.35,0,0,1-2.44-.6c0,.83-.36,1.15-.55,1.82"/>
  </g>
  <g class="skinFoldLine">
    <path d="M318.25,229.09a1.14,1.14,0,0,1-1,.89"/>
    <path d="M315.57,232.57a1.64,1.64,0,0,1-1.14,1.17"/>
    <path d="M312.93,236.32a1.41,1.41,0,0,1-1.21,1.06"/>
    <path d="M177.51,224.56a1.72,1.72,0,0,1-1.55.68"/>
    <path d="M166.31,228.14a1.37,1.37,0,0,1-1.63.09"/>
    <path d="M172.43,226.69c-.24.4-.72.6-1.51.53"/>
    <path d="M150.49,144.56c-.74-.11-2.56,0-3.17.64"/>
    <path d="M56,122.28c.18,1.39,1.86,2,3.38,1.73"/>
    <path d="M37.17,58.17c-1.47-9.71-10.07-1-5.36,8"/>
    <path d="M37,62c-2.41.88,2.24,5.22-.26,5.7-1.39.27-1-2.1-2.57-3.66-2.68-2.68.32-6.4,1.63-4.19"/>
  </g>
  <g class="skinCreaseLine">
    <path d="M267.53,184a27.78,27.78,0,0,0-5.06,6"/>
    <path d="M315.91,223.4c-4.35,1.45-9.23-2.43-10.5-4.81"/>
    <path d="M313,228.65c-4.21-4.08-4.37,3.28-7.65,6.23"/>
    <path d="M166,211.09c2.43,2.16,2.26,6.77-1.19,10.23"/>
    <path d="M175.3,217.45c-3.54,1.07-8,4.11-6.91,8"/>
    <path d="M49,131.18c-1.58,1.64,4,12.07-3.78,14.34"/>
  </g>
  <path class="lipMaleMedium__noStroke" d="M74.16,86.55a5.73,5.73,0,0,0,4.73.32c1.66.51,4.27-.29,4.91,1.42-1.14,1.56-.56,8.13-9.75,7.86-9.19.43-10.1-6.39-11.33-7.37C65.7,83.66,70.89,86.4,74.16,86.55Z"/>
  <path class="lipFemaleBrown__noStroke" d="M175.84,104.42c.83,2-1.24,5.73,4.34,7.69,4.29,1.51,6.54-2.33,9.26-3.23C186.74,106.31,181.05,103.09,175.84,104.42Z"/>
  <path class="lipFemaleBrown" d="M174.7,104.44a3.86,3.86,0,0,0,1.89-.21L189,108.48a5.32,5.32,0,0,0,2,1.31c-2.89-1.47-3.43-6.36-5.76-7.37-2.07-.9-2.32-.25-4.31-.85-1.18-.36-2.37-1.19-3.23-1.06C175.89,100.8,179.66,102.83,174.7,104.44Z"/>
  <g class="mouthInner">
    <path d="M83.8,88.29c-1.71-1.84-6.24.87-8.81.11-3.75-1.1-8.71-5-12.27.38-.51,1,2,2.34,3.71,2.74,2.67.64,4.32-.25,7.91-.17C79.15,91.45,81.09,94.34,83.8,88.29Z"/>
    <path d="M187.94,107l-10.81-3.07-.54.32c1.21,1.34,2,3,4.15,3.66,3.15.92,4.72.08,8.29.59A9,9,0,0,1,187.94,107Z"/>
  </g>
  <g class="teeth">
    <path d="M81.55,87.65c-2.07.14-4.78,1.28-6.56.75-3.14-.92-7.12-3.77-10.42-1.55a16.92,16.92,0,0,0,9.82,4.5c.21,0,.42,0,.62,0C78,91.44,80.55,90.29,81.55,87.65Z"/>
    <path d="M63.94,87.33a7.9,7.9,0,0,0-1.22,1.45c-.51,1,2,2.34,3.71,2.74a11.64,11.64,0,0,0,4.36,0A17.52,17.52,0,0,1,63.94,87.33Z"/>
    <path d="M80.66,90.37a8.48,8.48,0,0,1-2.87,1.46,5.94,5.94,0,0,0,2.95.16C81,91.32,80.93,90.48,80.66,90.37Z"/>
    <path d="M187.94,107c-.82-1.33-1.85-3-3.41-3.21a22.38,22.38,0,0,1-5.66-1.57,3.92,3.92,0,0,1-1.74,1.71C179.54,106.81,184.3,107.74,187.94,107Z"/>
  </g>
  <path class="lipOverlapLine" d="M84.47,89.62a2.05,2.05,0,0,0-.67-1.33"/>
  <g class="lipEdgeLine">
    <path d="M78.89,86.87a5.73,5.73,0,0,1-4.73-.32"/>
    <path d="M80.78,94c-1.68,2.33-4.06,2.3-6.73,2.19s-4.76.28-6.52-1.73"/>
    <path d="M176.29,108.58c.18,2.23,5.25,5.26,8.3,3.15"/>
    <path d="M178.87,102.2a2.63,2.63,0,0,1-.72-.41"/>
  </g>
  <g class="cheekLine">
    <path d="M85,81.07c.67.78,3.21,2.23,2,8"/>
    <path d="M71.38,78.32c-1.18.47-2.66,1.85-5.56,3a11.76,11.76,0,0,0-6.42,5.9"/>
    <path d="M177.78,94.73a9.61,9.61,0,0,0-3.29,4.19"/>
    <path d="M190.84,96c1.5,1.56.67,4.42,1.6,6.63,1.1,2.6,1.61,2.81,2,5.61"/>
  </g>
  <g class="noseLine">
    <path d="M83.3,75.46c.11,3.42,4.08,5.32-.43,8.37"/>
    <path d="M71.38,78.32a2.72,2.72,0,0,0,.25,4.61"/>
    <path d="M72.84,82c2.16.26,2.48,1.52,5.15,1.88,2.86.39,3.59-1.07,4.52-1.24"/>
    <path d="M185.84,82.61c-4.66,8.08-10,9.94-7.42,13.59"/>
    <path d="M190.84,96c.69.55.73,3.44-1.49,3.64"/>
    <path d="M187.23,99c-.53-.73-2-1.77-2.74-1.55"/>
    <path d="M178.63,95a4,4,0,0,0,5,3.18"/>
  </g>
  <path class="eyeLidLine" d="M98.92,65.3c-.23,1.22-.79,2.15-2,1.78"/>
  <g class="eyeFoldLine">
    <path d="M95,70.42a7.35,7.35,0,0,1-7.65-.53"/>
    <path d="M70.14,68.05c-2.42,1.12-6.51,1-8.5-1.14"/>
    <path d="M173.86,81.1A6.18,6.18,0,0,0,180,82.56"/>
    <path d="M196,86.72a9.22,9.22,0,0,0,7.21,1.88"/>
  </g>
  <g class="eyeCornerLine">
    <path d="M57.76,63.87a5.56,5.56,0,0,0,2.32-.41"/>
    <path d="M96.59,65.93a7.83,7.83,0,0,1,.84.64"/>
    <path d="M96.23,68a1.57,1.57,0,0,1,.89-.12"/>
    <path d="M172.9,78.15a1.53,1.53,0,0,1-.69.31"/>
    <path d="M207.51,87.43a4,4,0,0,1-1.39-1.11"/>
  </g>
  <g class="eyeCreaseLine">
    <path d="M91.05,63.61a10.09,10.09,0,0,0-2-.39"/>
    <path d="M67.69,61.09c1.89-.12,3.1-.93,5.2.93"/>
    <path d="M183.1,78.6a6.45,6.45,0,0,0-10.19-2.2"/>
    <path d="M207,84.85c-2.3-4.51-8.53-6.46-11.86-3.91"/>
  </g>
  <g class="eyebrowBlack">
    <path d="M87.86,55.82c2.13,5.25,8.23,2,12.91,6.06C97.83,55.47,94.7,58.48,87.86,55.82Z"/>
    <path d="M76.91,54.83c-3,4.85-12-1.1-18.73,2.63C63.72,51.09,69.35,56,76.91,54.83Z"/>
    <path d="M184.88,69.67c-2.62-1.38-7.74-1-12.18.67q0,.31,0,.63a16.51,16.51,0,0,1,9.3.3C183.21,71.63,185.92,70.23,184.88,69.67Z"/>
    <path d="M209.82,81.07c-3.29-5.56-12-9.14-14.27-8.67-1.15.24,1.16,2.59,2.45,2.68C202.52,75.41,206.16,77.36,209.82,81.07Z"/>
  </g>
  <g class="hairBlack">
    <path d="M68.28,38.43c-.88,23.33,17.26,14.9,22,19.22a14.47,14.47,0,0,0-2.82-4.19c5.6,4.57,14.61.4,19.79,5,2-4.43,2.88-10.28.87-15.44,1.5.53,2.69,1.16,5,.64C107.39,37.41,108.3,21,90.38,11.52,80.61,6.35,62.05,4.88,56.22,8c.38-4.15,3.26-6.05,6.4-7.72-4.86-.2-9.53,4.16-10,8.61-1-2.48-7-2.55-8.94.14,2.83-1.26,6.3-1,6.47,1.44C30,21.05,29.29,44.74,32.73,51.29c1.55-1.34,6.91-.4,6.6,5.21a11.63,11.63,0,0,0,5.5,2.16c.19-3.22-.73-3,3.29-6.84,2.36-.06,9.88,1.82,14.7-3.47A14.49,14.49,0,0,1,61,52.68C63.46,51.68,67,48.64,68.28,38.43Z"/>
    <path d="M212.25,77.81c2.24,5.83-.36,25.73-4.12,31.78-2.06,3.3.05,3.9,2.85,1.18-3.4,10.43-8.78,16.63-11.29,20.17-3.25,4.61,10.08,7.4,20.67-.26-2.41,7.61,8.86,2.71,13.76-5.3-1.26,5.38,2.83,3.74,6.58-.44,16.7-18.63,7.57-37.08,8.07-45s-4.66-15.41-9-22.5c-7.4-12.07-20.62-16.23-29-13.57-4.45-6.49-21.64-4.28-29.79,4.51-5.26,5.68-15.56,14.11-8.35,24.72a18.86,18.86,0,0,1,2.37-5.89c5.54-.62,9.88-3,12.82-7.58-1.94,9.47,8.11,13.45,5.83,7.82,4.94,4.76,15.07,10.15,12.94,4.39C207.31,74.28,210.22,76.47,212.25,77.81Z"/>
  </g>
  <g class="hairOverlapLine">
    <path d="M48.12,51.82A18.57,18.57,0,0,1,42.87,51a15.64,15.64,0,0,0,4.68-2.08"/>
    <path d="M175.05,67.23c-2.83.14-2.62-1.58-.36-3.33"/>
    <path d="M212.25,77.81c5.81,3.29,5.07-.07,3.46-2.14"/>
  </g>
</svg>
