<svg viewBox="0 0 99.84 407.77">
  <g class="sockWhite">
    <path d="M45.12,377c.15-3.9,1.17-7.16,1-11.85-2.76,1.56-14.78,1.64-17.24.22-.31,5.09.43,9.29.53,15.95C35.94,381.66,42,380.14,45.12,377Z"/>
    <path d="M69.37,380.05c.34-4.12.88-8.53,1.18-12.71-2.25,1.81-15.32,1.09-18,.05-.49,3,.38,9.32.53,16C59.85,385.4,67.71,383.77,69.37,380.05Z"/>
  </g>
  <g class="bradShoe">
    <path d="M45.12,377c-1.76,1.05-7.5,1.77-9.65,1.75,1.82-5.2-7.64-6.26-10.77-1.38-3.3,4.19-7.31,7.08-11.09,8.21a25.25,25.25,0,0,0-9.09,4.64c-6.22,13.16,33,12.1,44-.61C48.55,385.78,47.76,380.53,45.12,377Z"/>
    <path d="M63.57,381.08c-1.53-4.63-9-4.75-11.47-1.29-3.3,4.19-7.54,8.54-11.43,10.9a41.11,41.11,0,0,0-8,4.4c2.9,11.47,35.67,12.78,40.81.5-.19-4.79-1.34-11.77-4.16-15.54C67.61,381.11,65.72,381.11,63.57,381.08Z"/>
  </g>
  <g class="soleWhite">
    <path d="M73.53,395.59c-3,2.9-7.85,4.64-14,5.27-3.69.38-6.5,1.55-9.58,1.3-2.79-6.42-11.45-8.59-17.27-7.07-2.63,2.09-4,4.6-2.44,8,2.73,4.21,15.58,5.82,25.33,3.18,6.68-2.11,14.23-2.19,17.49-5.62C73.46,400.24,73.64,398.25,73.53,395.59Z"/>
    <path d="M31.4,396.3c-1,.28-1.92.54-2.77.8a22.48,22.48,0,0,1-9.91,1,11,11,0,0,0-14.2-7.86c-3.18,2.39-4.41,5.25-2.83,8.65,2.72,4.22,16.54,5.36,25.81,2.09.7-.25,1.41-.47,2.13-.68A5.79,5.79,0,0,1,31.4,396.3Z"/>
  </g>
  <g class="shoelace">
    <path d="M52.36,392.27a22.49,22.49,0,0,0,6.94-7.12A20.07,20.07,0,0,0,49,383.41a40.75,40.75,0,0,1-8.36,7.28A20.86,20.86,0,0,1,52.36,392.27Z"/>
    <path d="M29.88,382.33a12.22,12.22,0,0,0-6.77-3.08,22.23,22.23,0,0,1-9.5,6.35c3.57-.06,5.7,1,8.33,3.38C24.78,387.22,28,385.21,29.88,382.33Z"/>
  </g>
  <path class="bradShorts" d="M86.4,220.49c4.35,18.56.1,26.42-.38,40.9-.38,11.55-4,27.65-4.92,45.82-3,2.22-31.5,4.17-36.56.57-3.41,1.14-18.86.19-20.94-2.08.51-7.68,0-16.28.75-23.09-1.2-3.78-1.2-10.56-1.56-14.4-.65-6.94.24-13.83,0-17.32-.71-10.36.48-20.92,1-30.3Z"/>
  <path class="bradShirt" d="M85.78,213.53c1.75,1.48,2.46,3.17,1,5.31,1.17,1.47,1.37,2.12.83,3.5-22.17,1.5-47.18,3.58-65.08.35.2-2.6-.18-5.38,1.24-6.24Z"/>
  <path class="bradHoodie" d="M79.22,96.3c-5.87-6.76-30.44-4.55-35,6.86-12.31,2.78-14.89,15-21.61,24.19,1.19-3.38.9-5.28-2-6.25-.45-5.65,3.05-8.42,1.1-11.82-.88-1.55-12.29-1.88-13.4-.22-1.46,2.2.44,5.84-1.88,10.82C3,121.1,2,125,5.13,127.91c-1.33,3.32-1.34,4.5-2.22,7.53-1.14,3.91-2.55,6.64-1.44,13.84,1.06,6.91-1.33,8.53,3.2,17.07l20.58,27.48c-1.4,5-3.6,12.89-1.15,14.56-.59,1.77-1.12,7.31-.29,8.06,10.8,3.79,48.76,3.45,62-2.92.75-.82-.14-7.91-.8-10.13,2.38-4.29,5.13-7.87,2.22-9.86,1.59-3.32-2.65-6.31-1.44-9.3,2.11-4.43,6.65-6.87,4-11.41,1-10.19,5.09-16.92,3.88-22.37-.74-3.33,1.22-6.54.77-10.52,2.48-5.41.7-11.17.34-14.85a22.88,22.88,0,0,0-7.65-15.28c2-4.32-.3-4.86-1.44-7.09S86.42,97.63,79.22,96.3Z"/>
  <g class="clothesOverlapLine">
    <path d="M81,122.9C68.1,133.82,71.51,142.39,70.1,151c-2.27,2.92-.46,6.59,0,11.86.19,2.16-1.53,4.58,1.06,6.34-1.77.47-3,1.11-2.7,2.23-1.86.23-3.06.86-3.41,2-6.58-.12-9,3.84-12.33,6-1.29.82-3.64-1.29-5.76,1.88-2.37-1.11-4-.23-4.93,2.35-2.28-1.44-6.46.23-9.39-.71"/>
    <path d="M85.76,184.24c-3.68,5.13-10.65,6.73-16.6,8.42-5.07,1.44-10.63,4.81-16.21,2.23-1.09-.51-2.7,3.88-7,1.18-1.62,1.61-3,2-4.11.23-3.17.71-10.69.59-11.4-.82"/>
    <path d="M22.63,127.35c-1,1.65.22,3.65-1.16,5.37,2.42,1.49.69,4.12,1.38,6.53"/>
    <path d="M35.4,116.37c-2.3,2.65-1.15,6.78-3.21,12.87-1.41,4.15-4,10-3.82,12.91"/>
    <path d="M87.09,109.81c-6.24-4.58-22.6,6.22-36.61,4-3.85-1.9-7-5-6.24-10.69"/>
    <path d="M57.79,195.82c0,5.06,0,9,3.68,12C50,211.86,31.05,209,23.05,205.44"/>
    <path d="M85,203.4c-4.44,3.86-9,3.18-16.07,5.89-14.22,5.47-35.3,2.43-44.81-.9"/>
    <path d="M42,183.62c-.3,4.11.93,7.19-.23,12.68"/>
    <path d="M20.64,121.1c-1.84,3.16-11.34,2.67-14.18-1.22"/>
    <path d="M79.22,96.3A7.17,7.17,0,0,1,81,102.84"/>
    <path d="M26.4,386c-2.4-2-4.81-3.28-7.23-3.22"/>
    <path d="M24,387.68a10.44,10.44,0,0,0-7.14-3.46"/>
    <path d="M28.22,384.37c-2.1-2-4.44-3.3-7.13-3.15"/>
    <path d="M56.33,389a20.37,20.37,0,0,0-10.79-2.05"/>
    <path d="M54.5,390.72c-2.46-1.69-8.65-2.58-10.94-2.09"/>
    <path d="M57.81,387.26a20.14,20.14,0,0,0-10.41-2.13"/>
    <path d="M35.47,378.77c-2.33,0-4,1.64-5.59,3.56"/>
    <path d="M63.57,381.08c-2.06.06-2.88,1.9-4.27,4.07"/>
    <path d="M36.54,241.46c1.34,4.63,5.76,7.06,5.85,10.84.4,18.4.24,37.38,2.15,55.48"/>
  </g>
  <g class="clothesFoldLine">
    <path d="M83,100.16c-1,2.78-4.56,4.88-9.14,6.69"/>
    <path d="M83.93,118.08c-9.14,3.53-9,10.4-11.49,7.06"/>
    <path d="M69.36,122.24c-.45,4.26,4.81,8-.82,8.87"/>
    <path d="M93.07,131.93c1.09,3.44.09,7.22,1.33,8"/>
    <path d="M85.29,150.84c-2.17,2.9-10.5,3.62-13.85,1.18"/>
    <path d="M90.45,149.12c-2.45,4.08-8,4.33-4.35,9.24"/>
    <path d="M89.75,172.83a17.8,17.8,0,0,0-9.62-6.69"/>
    <path d="M71.16,169.17c6,.06,10.75,2.26,14,7.29"/>
    <path d="M68.46,171.4c4.43-1.82,11.31,2.34,12.85,7.32"/>
    <path d="M65.05,173.4c4.4,1.16,10,6.77,7.3,1.61"/>
    <path d="M47,181.27c2.3,2.16,2.08,4.95,3,5.87s1.75-.8.54-3.62"/>
    <path d="M45.91,196.07a10.26,10.26,0,0,0,.82-7.39"/>
    <path d="M53,194.89c3.1-.69,4.46-3,6.54-3.77"/>
    <path d="M53,139.23c1.77,3.61,5.34,6.49,9.63,9.09"/>
    <path d="M55.49,146.15c2.8,4.27,8,7.15,9.33,11.81"/>
    <path d="M55.41,171.48c-3.42,1.87-11.58,1.64-14,1.33"/>
    <path d="M47.41,175.91c-2.63-.82-6.49-.26-9.92-.44"/>
    <path d="M3.87,155a8.39,8.39,0,0,0,5.89,2.54"/>
    <path d="M3.32,140.21c-.1,2.77,4.25,7.49,7.49,7.39"/>
    <path d="M5.13,127.91c3.33,1.66,6.58-.14,8.14,2.68"/>
    <path d="M21.47,132.72c-2,3.23-5.1,3.23-4.84,6.65"/>
    <path d="M40.09,116.1a9.08,9.08,0,0,0-4,5.92"/>
    <path d="M87.2,193.54c-1.33-.67-2.8-.41-4.12-1.65"/>
    <path d="M86.82,218.84c-3.34,1.42-8.53.41-11.41,1.65"/>
    <path d="M39,251.32c-1.75-2.12-9.21-4.23-11.55-3.53"/>
    <path d="M46.89,253c2.4-.7,8.46-.91,11.2.49"/>
    <path d="M81.87,271.29c-2.74,11.69-7,23.11-13.27,31.9"/>
    <path d="M46.53,246.94c3.8-4.14,9.36-9.43,10.95-7.67s-1.8,3.54-4.38,4.63"/>
  </g>
  <g class="hoodieLace">
    <path d="M49.53,141l-.38,4.27c0,.22-.94.13-.92-.09l.41-4.28Z"/>
    <path d="M58.51,113.24c-2.14,8.25-7.44,15.32-8.62,27.47,0,.51-1.59.34-1.53-.17.89-11.09,6.36-19.25,8.57-27.85C57.17,112.06,58.76,112.56,58.51,113.24Z"/>
    <path d="M37.85,138.37l-.94,4.13c0,.22-1,0-.91-.2l1-4.14Z"/>
    <path d="M47.23,110.34c-3.42,8.45-7,17.85-9.08,27.78,0,.51-1.43.19-1.38-.32,2.12-9.76,5.51-18.79,8.88-28C45.9,109.09,47.48,109.63,47.23,110.34Z"/>
  </g>
  <g class="bag">
    <g class="chipBag">
      <path d="M.38,171.24c4.75,2.47,8,6.2,13.78,9.38,4.8,2.61,9.57,5.75,15,8.23A71.15,71.15,0,0,1,37.85,175a56.62,56.62,0,0,0,7-11.69c.61-1.33,1.07.12,4-4.47a39.57,39.57,0,0,0-8.45-9.58c-3.19-2.51-7.89-3.82-10.25-5.74-3.41-2.77-6.83-4.37-9.33-4.64a36.11,36.11,0,0,0-6.54,10.72c-1,2.68-3.79,5.8-5.33,7.78C2.34,165.93,2.71,168.22.38,171.24Z"/>
    </g>
    <polygon class="sunRay" points="29.3 149.23 30.39 152.63 33.44 150.77 32.83 154.29 36.4 154.06 34.22 156.9 37.48 158.35 34.23 159.84 36.45 162.65 32.88 162.47 33.54 165.98 30.47 164.16 29.42 167.58 27.54 164.53 25.02 167.07 24.78 163.5 21.37 164.59 22.81 161.31 19.29 160.68 22.08 158.45 19.25 156.26 22.77 155.58 21.29 152.33 24.71 153.36 24.91 149.79 27.46 152.3 29.3 149.23"/>
    <circle class="sun" cx="28.24" cy="158.41" r="6.16"/>
    <path class="chipDark" d="M28.79,172.82a27.41,27.41,0,0,0-5.19.14C26.44,176.05,31,174.53,28.79,172.82Z"/>
    <path class="chip" d="M16.45,163.14c3.86,7,9.18,7.34,12.34,9.68-5.06-.44-9,1.35-12-.31-5.22-2.88-6.56-6.7-5.44-9.62C12.28,160.42,14.89,160.32,16.45,163.14Z"/>
    <g class="chipBagLightLine">
      <path d="M16.13,149c-.69,1.58-.14,3.55-.69,4.45"/>
      <path d="M9,159.67c.14,1.6-2.16,5.78-4.17,6.26"/>
      <path d="M41.81,163.83c-1.88,2.45-4.44,2.6-5.82,4-.75.75-.4,2.23-.83,3.5"/>
      <path d="M29.4,142.9c-.79,1.33-.52,2.56-.9,3.47"/>
    </g>
  </g>
  <path class="hairSandy" d="M34.51,29.55C32.65,22.88,33,19,37.94,14.43,44.77,8.22,47.43,4.65,45.43.3c9.35-.94,17.5,13,17.25,2.09C70.93,2.77,78.07,17.51,78,7.5a20.64,20.64,0,0,1,9.6,12.86c.54,2.26,14.32,7.88,11.7,33.87-1.46,14.46-9.9,26.4-15.61,24.6C65.41,60.57,59.85,54.6,34.51,29.55Z"/>
  <path class="hairEdgeLine" d="M44.91,13.6c-.42,3.46-3.94,7.17-1.41,13.46"/>
  <g class="eye">
    <path class="sclera" d="M28.33,62.2l41.45.53L29.59,51.19A19.39,19.39,0,0,0,28.33,62.2Z"/>
    <g class="irisBlue">
      <ellipse cx="48.39" cy="59.97" rx="3.14" ry="2.43" transform="translate(-16.68 101.25) rotate(-83.49)"/>
      <ellipse cx="30.23" cy="57.93" rx="3.14" ry="2" transform="translate(-30.75 81.41) rotate(-83.49)"/>
    </g>
    <g class="pupil">
      <ellipse cx="47.93" cy="59.92" rx="1.22" ry="0.95" transform="translate(-17.03 100.75) rotate(-83.49)"/>
      <ellipse cx="29.56" cy="57.86" rx="1.22" ry="0.78" transform="translate(-31.27 80.67) rotate(-83.49)"/>
    </g>
  </g>
  <g class="skinNordic">
    <path d="M48.83,98c-2.4,4.23-1.34,10,2.09,14.25,17.25-4.67,26.81-9.37,23.29-14.09-1.3-8.12.31-18.46,3.89-24.57"/>
    <path d="M20.85,110.16c-.14-.8.45-2.18.75-3.18,3.25-2.81,2.92-5.68,2.16-8.38.63-.71,2.34-1.5,1.55-4.75,2.85,1,3.91-1.52,3-2.52-1.59-1.52-2.05-4.37-5.1-6.56,2.52-.66,2.63-2.34,1.37-2.93-3.51-2-3.76-3.56-9.26-2-4.23,1-5.63.68-7.16,5.59C6.41,90,3.37,91.8,6.69,99.35c1.07,2.45,1.83,6.43,3.16,10.41C11.57,113.34,21,112.61,20.85,110.16Z"/>
    <path d="M10.83,187.55c2.33,4.61,3.34,4.71,8.64,6.34,3.23,1,5.49,2,10.93,1.59-1.46-2.89-.14-9.19,2.24-12.57-2.77-8.2-9.45-3.46-17.62-14.11-3.09-3.31-6,2.18-1.16,6.46a39.11,39.11,0,0,1,4.2,5.12c-2.65-.61-4.5-.12-8-2.35-2-1.46-4.11-3.1-6.42-4.8C1.65,180.45,8.88,182.79,10.83,187.55Z"/>
    <path d="M45,365.6c3.63-18.37,10.56-34,6.91-56.09-3.12-.29-6.2-.81-7.4-1.73-2.51.83-10.94.53-16-.39-.79,18.91.11,39.5,1.31,58.36C33.12,366.67,41.46,366.61,45,365.6Z"/>
    <path d="M69.9,367.69c2.38-20.92,7.91-42.17,4.13-58.83-7.6.93-19.2,1.38-25.28.23.75,18.09,2.31,39,4.51,58.51C56.67,368.45,66.73,369,69.9,367.69Z"/>
    <path d="M28.32,55.67c1.88-.71,4.43.06,6.17,3,.26.46-.53.16-.84.21-3,.48-5.95.83-5.59-1.35-1.78,2-.2,2.49-.94,4-7.68,15.83,2,26.4,2.52,31.52.84,8.11,10.9,8,16.56,6.24,6.07-1.87,25.63-5,30.7-19.75,4.38,3.6,5.79-.4,8.29-2.15,2.73-1.91,5.52-5,6.29-8.66,1.7-8-7.5-10.14-10.67-4.91a21.89,21.89,0,0,1-6.73-.61c3.71-10.31-10.78-10-4.85-28-8.18-3.92-18.57-5.12-24.76-4-3.48-2-7.83-3.45-10-1.7-2,4.19-7.55,17.71-6.9,21.23.65,2.55-.8,4.43.52,6.12C28.18,56.52,28.23,56.1,28.32,55.67Zm16.93,4a4.71,4.71,0,0,1,4.39-1.91,9.76,9.76,0,0,1,5.53,2.92,10.57,10.57,0,0,1-5.61,1.15c-1.6-.13-2.61-1-3.69-1.44C45.53,60.25,44.7,60.35,45.25,59.67Z"/>
  </g>
  <g class="skinOverlapLine">
    <path d="M9,87.21c2.91-2.13,5.15-4.59,7.31-5,1.7-.35,4.19.78,6.89,2.6"/>
    <path d="M16.23,92.61c4-2.2,6.74-4,9.08,1.24.79-2.45.1-3.6-2.41-6.08-3.7-3.67-5.25-.91-9.87,1.93"/>
    <path d="M23.76,98.6a4,4,0,0,0-.93,1.39c-1.28,1.78-4.67-.79-1.83-4.41-.24-.15-.6.29-1.1.29"/>
    <path d="M21.6,107c.92-2.58,1-4.71-.14-6.44"/>
    <path d="M18.06,180.38c1.47.26,3.14,1,4.23,1.13"/>
  </g>
  <g class="skinFoldLine">
    <path d="M81.55,67.09c5.4-8.78,12.65,1.13,4.77,6.74"/>
    <path d="M81.85,69.77c2.21,2.63-2.43,3.89-1.1,5.11s1.38-1.69,3.16-1.95c3.87-.57,2.74-6.41.3-4.82"/>
  </g>
  <path class="skinEdgeLine" d="M6.72,90.65c.25.75.74-.06,1.8,1.54.66,1,1.91.6,3.17,2.53.86,1.33,2.51.9,3.1,1.93"/>
  <path class="lipMaleLight__noStroke" d="M32.65,78.71a5.62,5.62,0,0,0,3.84.53c3.91,0,6.77,2.2,9.71,3.48-2.75,2.19-3.57,10.61-10.68,8.44-6.79-2.06.95-7.53-3.92-12.31C31.91,78.68,32.29,78.81,32.65,78.71Z"/>
  <path class="mouthInner" d="M36.89,83.24a11.39,11.39,0,0,1-2.55-.53h0c-1.09,2.88.07,4.81,2.11,5.26A7.58,7.58,0,0,1,36.89,83.24Z"/>
  <path class="tongue" d="M45.08,82.51c-1.18-.39-2-1-3.25-1.5a15.71,15.71,0,0,0-4.24,1.52c-1.32.65-1.55,3.74-1.14,5.44C38.87,88.5,42.51,87,45.08,82.51Z"/>
  <path class="teeth" d="M43.86,82a11.6,11.6,0,0,0-4.8-1.63c-2.8-.33-4,.07-6-.5-.39,2.21.9,2.7,1.32,2.85A12.69,12.69,0,0,0,43.86,82Z"/>
  <g class="lipOverlapLine">
    <path d="M31.13,77.67A2.66,2.66,0,0,0,33,79.86"/>
    <path d="M45.08,82.51a2.42,2.42,0,0,0,1.9-.05"/>
  </g>
  <g class="lipEdgeLine">
    <path d="M32.65,78.71a5.62,5.62,0,0,0,3.84.53"/>
    <path d="M41.15,90.12c-3.61,2.85-9.3,1-8.54-3.26"/>
  </g>
  <g class="noseLine">
    <path d="M42.65,75.51c1.57-.88,1.23-3.34.39-4.08"/>
    <path d="M31.9,73.62c2.62,4.15,6.2.32,8.18,1.87"/>
    <path d="M35.14,64.79c-1.19,2.69-6.53,6.67-3.78,9.06"/>
  </g>
  <g class="eyeFoldLine">
    <path d="M27.88,60.89a5.41,5.41,0,0,0,4.37.63"/>
    <path d="M46.22,62.52a6.75,6.75,0,0,0,6.27,1"/>
  </g>
  <path class="eyeCornerLine" d="M57.46,61.82a4.21,4.21,0,0,1-2.29-1.14"/>
  <g class="eyeCreaseLine">
    <path d="M55.29,58.47c-3.07-1.92-6.54-3.1-10-.3"/>
    <path d="M34,55.49c-1.88-1.51-5.37-2.89-6.4-.13"/>
  </g>
  <g class="eyebrowSandy">
    <path d="M60.8,55.71c-4.2-3.75-12.66-5.47-16-4.09C44.92,55.27,49.78,49.57,60.8,55.71Z"/>
    <path d="M35.38,50.47a13.16,13.16,0,0,0-7.82-.54,5.09,5.09,0,0,0,0,.56C32.52,49.74,34.61,53.39,35.38,50.47Z"/>
  </g>
  <path class="chip" d="M34.5,84.72c-1.49-1.34-1.9-4.07-5.12-2.43-1.66.84-4.08-1.74-6.17-1.28.4.26.84.54,1.35.83,1.26.59,1.15,2.27-1.37,2.93a10,10,0,0,1,1.9,1.79c2-.55,4-.84,4.61.93C30.58,90,37.3,87.25,34.5,84.72Z"/>
</svg>
