<svg viewBox="0 0 266.89 366.61">
  <g class="jacob">
    <path class="soleWhiteDark" d="M213.25,334.95c-4.45,9.48,25.97,17.03,32.8,13.22,.19-6.85-18.61-3.1-32.8-13.22Z"/>
    <g class="soleWhite">
      <path d="M248.04,336.78c-5.5-5.61-19.35-7.14-37.71-8.17,1.57,2.15,.88,3.79,2.92,6.34,14.19,10.12,32.99,6.37,32.8,13.22,4.43-2.26,3.81-8.17,1.99-11.39Z"/>
      <path d="M228.08,353.83l-43.09-4.73c-.06,2.63,.23,5.25,1,7.76,.57,1.85,3.12,4.35,8.7,6.05,4.26,1.3,7.71,2.73,10.88,2.84,14.28,.48,25.71-3.49,22.51-11.92Z"/>
    </g>
    <path class="jacobShoe" d="M240.38,339.91c1.8-2.65,5.39-4.73,7.66-3.12-3.97-7.57-17.73-5.39-24.73-27.24-16.74-4.3-32.87-8.08-12.98,19.07,11.29,7.85,27.5,12.35,30.04,11.29Z"/>
    <path class="jacobPants" d="M168.1,222.63c11.22-2.61,20.43-14.71,27.94-11.33,2.47-1.26,4.49-.43,6.06,2.37,25.82,2.75,45.98-5.31,56.51,5.21,5.75,5.75,11,10.86,6.06,19.37,1.42,8.39-4.62,11.33-7.78,17.92-6.12,12.78-12.03,20.67-20.79,32.74-6.05,8.33-2.81,17.15-10.28,18.32-.02,1.94-.51,3.41-1.64,4.21-1.58-.86-2.87,.03-3.9,2.53-4.04-3.77-14.55-5.47-23.73-9.97,3.91-13.88,10.86-18.56,12.12-21.79,4.62-11.9,8.17-17.04,16.91-31.7-9.26,4.61-18.48,8.22-27.07,9.59l-30.41-37.48Z"/>
    <g class="skinGallic">
      <path d="M80.89,148.18c28.89-2.24,11.68,20.91,11.68,20.91,0,0-11.68-9.23-11.68-20.91Z"/>
      <path d="M242.38,206.85l-.79-23.85c-10.49,4.07-9.87-.13-18.67,3.03-8.4,.62-16.52-4.28-26.25-7.96-3.5-10.73-8.05-20.36-10.34-30.41-18.41-1.78-17.62,22.04,3.95,54.13,11.96,5.69,22.49,.63,30.68,2.28,.65,.79,4.56,9.11,21.41,2.76Z"/>
    </g>
    <path class="jacobShirt" d="M191.84,210.83s.05-.08,.07-.12c.81-6.57-3.5-11.4-5.04-17.63-1.48-5.99,.37-12.19-3.6-19.15-1.88-3.3-1.52-16.88-4.18-23.93l5.53-8.2c2.46-.7-3.39-20.82-7.35-25.68-6.13-7.54-16.82-4.97-26.07-7.73-11.3,10.08-25.78,11.98-44.59,2.71-8.75,2.49-14.95,6-17.43,10.26-3.26,5.6-8.69,19.65-7.98,23.31l18.55,12.44c2.59,18.6,11.3,33.44,13.14,46.09,.96,6.59,2.97,8.68,4.12,14.11,1.03,4.86-2.22,11.57,1.54,16.74,17.17-6.76,38.75-12.16,53.91-12.88,7.36-3.22,13.79-9.38,19.39-10.32Z"/>
    <g class="readingRainbowLogo">
      <g class="rainbow">
        <path class="flatBlueMediumLight" d="M151.99,157.88c-7.13,1.77-11.44,10.23-10.4,17.88,1.27-.29,1.91-.44,3.17-.75-.82-5.79,2.49-11.99,7.76-13.45,5.13-1.42,9.87,2.9,10.64,8.37,1.19-.37,1.78-.56,2.96-.94-1.05-7.44-7.24-12.82-14.12-11.11Z"/>
        <path class="flatGreenMediumLight" d="M151.46,154.2c-8.84,2.18-14.57,12.59-13.08,22.27,1.29-.28,1.93-.42,3.2-.72-1.03-7.65,3.28-16.1,10.4-17.88,6.88-1.71,13.08,3.67,14.12,11.11,1.18-.38,1.77-.58,2.94-.97-1.21-9.37-9.1-15.9-17.58-13.82Z"/>
        <path class="flatYellowMediumLight" d="M150.94,150.52c-10.69,2.72-17.45,14.95-15.78,26.64,1.3-.27,1.94-.41,3.23-.69-1.49-9.68,4.23-20.09,13.08-22.27,8.48-2.09,16.37,4.45,17.58,13.82,1.17-.39,1.75-.59,2.91-1-1.56-11-10.79-19.1-21.01-16.5Z"/>
        <path class="flatOrangeMediumLight" d="M150.42,146.84c-12.6,3.05-20.47,17.29-18.52,30.97,1.31-.26,1.96-.39,3.26-.66-1.66-11.68,5.09-23.92,15.78-26.64,10.23-2.6,19.46,5.5,21.01,16.5,1.16-.4,1.73-.61,2.88-1.02-1.83-12.93-12.46-22.05-24.42-19.16Z"/>
        <path class="flatRedMediumLight" d="M149.89,143.16c-14.41,3.35-23.45,19.69-21.28,35.28,1.32-.24,1.98-.37,3.29-.63-1.95-13.68,5.92-27.92,18.52-30.97,11.96-2.9,22.59,6.23,24.42,19.16,1.15-.41,1.72-.62,2.85-1.05-2.09-14.76-14.2-24.95-27.79-21.79Z"/>
      </g>
      <g class="book">
        <path class="dullGreenDarker" d="M159.01,142.57c-.17,.24-.62,1.01-.62,1.01-.13,.27-.18,.47-.15,.67-.07-.52-1.3-.21-1.23,.32,1.3,9.11,2.59,18.21,3.89,27.32,.08,.54,1.3,.17,1.23-.38,.24,.26,.5,.34,1.06,.17,5.53-1.75,11.02-3.66,16.46-5.73l-3.36-23.63c-4.95,1.71-9.93,3.29-14.94,4.75l-.58-4.06c-.15-1.07-1.21-1.22-1.76-.45Z"/>
        <path class="paperLight" d="M177.74,162.14c-1.03-7.25-2.06-14.51-3.1-21.76-4.52,1.52-9.07,2.94-13.64,4.25,.97,6.78,1.93,13.57,2.9,20.35-.61,.94-.91,1.41-1.53,2.34,5.16-1.6,10.28-3.32,15.37-5.18Z"/>
        <path class="paperDark" d="M177.67,161.67l.44,3.12c-4.89,1.82-9.82,3.51-14.78,5.08-1.06,.33-1.51-2.85-.45-3.18,4.97-1.55,9.9-3.22,14.79-5.02Z"/>
        <path class="flatMaroonDark" d="M167.51,167.28c-1.37,.45-2.75,.89-4.13,1.32l.68,4.76c.72-1.03,1.08-1.54,1.8-2.57,.93,.49,1.4,.74,2.33,1.22l-.67-4.74Z"/>
      </g>
    </g>
    <g class="jacobShirtTrim">
      <path d="M177.16,144.08c2.63-.48,4.98-1.42,7.46-2.29,.97-.34,2.61,5.4,1.71,5.88-1.74,.92-5.14,2.21-7.24,2.32-1-2.1-1.05-4-1.93-5.91Z"/>
      <path d="M111.3,106.73c9.03,11.9,32.71,10.17,34.93-1.01,.27-.5,5.25,2.16,4.98,2.66-1.77,14.17-30.13,17.87-44.59,2.71-.28-.3,4.4-4.65,4.68-4.35Z"/>
      <path d="M101.12,151.5c.92,.68-1.25,6.17-2.3,5.71-2.99-1.31-16.79-5.83-19.1-6.35-1.08-.44,.39-6.33,1.48-6.2,3.57,.88,17.86,5.31,19.93,6.84Z"/>
    </g>
  </g>
  <g class="mara">
    <path class="nuggetLight" d="M93.93,115.69c-.75,1.31,2.08,3.98,5.48,5.95,3.4,1.96,6.25,3.17,6.98,1.88s-1.26-3.66-4.67-5.62c-3.4-1.96-7.07-3.46-7.8-2.21Z"/>
    <g class="skinAshkenazi">
      <path d="M89.65,283.89c8.64-1.15,25.72-6.41,41.07-12.55,5.95,30.52,32.05,28.35,51.43,60.78,22.73,4.84,42.39-4.25,34.86-13.63-10.48,.08-22.79-2-26.33-5.68-10.15-10.54-28.28-39.74-42.03-57.09l-58.99,28.18Z"/>
      <path d="M95.84,239.42c15.27-.5,29.41-.47,44.06,2.41,8.51,1.67,13.26,11.72,9.07,23.94-5.4,15.78-17.37,43.21-25.33,66.82-2.22,7.83,6.78,10.05,14.87,19.94-2.25,14.03-21.4,2.5-35.75-13.68,12.26-21.53,7.18-43.05,13.96-66.27-8.19,3.23-17.56,8.7-29.48,13.31l8.6-46.47Z"/>
      <path d="M73.02,126.06c-3.29,13.59,5.01,17.6,9.87,27.95l-38.48-9.17c2.71-8.62,6.71-17.06,1.99-35.81"/>
      <path d="M108.59,153.8c-6.84,16.37-1.49,43.57-17.84,57.78-3.19-11.77-2.69-29.67,.02-44.41,1.86-4.14,5.42-11.75,7.09-17.52-2.26-4.15-2.14-10.13-1.66-15.8,.36-4.26-.05-7.61,.6-10.85,1.56,1.05,3.2,1.92,4.93,2.59-.19,.86-.21,1.97,0,2.96,2.66-2.7,3.25-4.57,8.41-1.89-1.13-3.37,1.23-4.35-3.57-6.42-3.6,1.67-7.39-.54-5.08-2.75,2.31-.59,3.85-3.02,5.38-2.74,4.3,.82,7.02,2.6,7.6,3.7,1.11,2.11,.51,5.69,1.07,7.49,.63,3.38,3.67,4.08,3.48,7.49-.38,1.71,.67,3.03-1.01,6.45-6.13,12.45-7.46,10.18-9.41,13.91Z"/>
    </g>
    <path class="soleTan" d="M98.39,362.39c-.14-2.44-1.2-6.47-.78-8.89,5.34-2.91,9.14,1.24,16.23,5.63l-.51,5.52c-5.84,.46-15-.11-14.94-2.26Z"/>
    <g class="maraShoe">
      <path d="M216.75,317.44c-2.09,2.01-.24,5.1-.06,6.43-14.96,6.74-31.75,9.07-36.19,6.91-1.01,3.43,1.23,13.89,4.87,15.65,2.99,1.45,21.67-10.61,28.01-12.11,8.47-2,18.82-8.53,18.74-14.11-3.46-7.55-9.43-3.27-15.36-2.78Z"/>
      <path d="M139.49,351.22c-2.89,.16-4.5,4.89-5.24,6.01-15.74-4.62-29.14-15.27-31.1-19.8-2.29,1.26-7.15,12.37-5.54,16.07,1.33,3.04,21.99,6.71,27.77,9.7,7.73,4,22.03,4.41,25.6,.12,2.29-7.98-6.67-8.61-11.49-12.09Z"/>
    </g>
    <path class="maraStrap" d="M119.65,351.06c2.69-3.54,6.67-8.11,9.36-9.7-1.18-1.12-2.28-2.24-3.31-3.6-2.91,1.87-7.4,6.99-10.24,10.81,1.32,.84,2.72,1.68,4.19,2.49Z"/>
    <path class="maraWatchBand" d="M108.43,157.28c-4.58-1.35-8.29-2.55-12.99-4.13-.89-.27-2.16,3.84-1.27,4.12,4.67,1.73,8.42,2.71,12.92,4.05,.97,.29,2.3-3.72,1.34-4.04Z"/>
    <path class="maraDress" d="M89.54,193.22c-1,10.11,3.39,15.09,1.2,30.43l11.95,12.35c-11.15,7.37-.4,43.82-15.93,63.93-19.32-8.37-44.43-9.47-53.78-25.29-12.95-21.91,7.47-51.79,5.38-88.83-.91-16.15,.37-30.39,6.06-40.97,12.85-13.94,26.1-3.95,29.88,3.26,1.86,3.55,5.4,4.89,8.78,4.34,9.45,18.43,24.97,21.3,6.47,40.78Z"/>
    <path class="clothingGold" d="M79.34,147.92c-7.08,1.02-13.27-18.51-33.35-7.95-.7,.35-1.58-1.22,.7-2.29,18.05-8.47,25.53,6.88,31.26,8.24,2.38,.56,1.39,2.01,1.39,2.01Z"/>
  </g>
  <path class="jacobShoe" d="M194.97,358.27c3.7,1.49,8.99,3.78,11.07,2.55,3.88-5.39,14.28-7.38,18.92-2.27,2.22-.47,3.1-2.2,3.12-4.73-1.33-3.5-4.26-5.7-6.72-8.04-5.97-5.71-8.56-14.23-11.54-17.4l-18.73,1.42c-3.23,5.29-5.94,12.33-6.11,19.29,2.61,4.5,6.02,7.57,9.99,9.18Z"/>
  <path class="shoelace" d="M217.67,347.02c-2.11-3.24-3.93-6.41-5.3-9.46-5.43-.72-10.72,.1-15.89,2.18,2.54,3.14,4.9,6.27,7,9.36,4.24-2.28,9.03-2.79,14.19-2.08Z"/>
  <g class="adidasLogo">
    <path class="clothWhiteMedium" d="M188.32,353.63c1.93,2.06,4.13,3.6,6.52,4.59,1.31-3.5,2.95-6.59,4.96-9.21-2.42-1.98-4.57-3.94-6.34-5.86-2.23,2.69-3.92,6.23-5.14,10.49Z"/>
    <g class="adidasDisplayLine">
      <path d="M195.33,345.06c-2.46,3.23-3.96,6.14-5.16,10.32"/>
      <path d="M197.67,347.21c-2.4,3.04-3.96,5.78-5.39,9.7"/>
    </g>
  </g>
  <path class="jacobPants" d="M212.02,326.32c2.93-5.39-2.02-8.22-5.18-12.38,5.18-5.84-1.44-12.53-1.78-15.62-1.5-13.44-2.2-29.24-5.34-42.96,3.72-8.11-.8-11.44-2.97-14.83-1.41-5.67-1.89-14.96-9.49-17.6-10.77-5.13-41.83,1-65.83,9.98-2.4,1.79-3.85,3.98-4.52,6.39,7.68,.27,15.26,1,22.98,2.51,6.64,1.3,11,7.72,10.59,16.29,2.71,3.58,5.55,7.66,8.46,11.99,2.74-1.34,5.89-2.34,8.41-4.17,1.79,11.55,4.73,15.88,7.26,22.98,6.98,19.56,3.69,27.39,7.98,30.84,5.13,4.13,1.55,9.29,3.57,15.48,2.14,1.43,4.88-.24,8.1,.48,3.45-5.95,13.04-6.74,16.76-2.25,1.16,.18,3.98-.59,4.62-1.68-1.79-1.67-.66-5.36-3.64-5.48Z"/>
  <g class="food">
    <g class="containerLight">
      <polygon points="93.18 226.27 89.11 228.47 126.16 229.5 125.42 227.19 93.18 226.27"/>
      <polygon points="151.9 208.49 156.51 208.07 126.16 229.5 125.42 227.19 151.9 208.49"/>
    </g>
    <g class="containerDark">
      <path d="M89.28,228.47l1.99,2.59s1.92,4.87,2.6,6.33c.79,1.68,2,2.2,4.22,2.26l18.65,.52c2.22,.06,3.46-.39,4.34-2.02,.76-1.41,2.95-6.17,2.95-6.17l2.13-2.48-36.88-1.02Z"/>
      <path d="M156.36,208.17l-.22,3.26s1.1,5.12,1.34,6.71c.27,1.83-.45,2.94-2.26,4.22l-15.24,10.76c-1.82,1.28-3.1,1.59-4.73,.72-1.42-.75-5.87-3.51-5.87-3.51l-3.21-.84,30.2-21.33Z"/>
    </g>
    <g class="containerMedium">
      <polygon points="125.42 227.19 124.25 229.44 126.16 229.5 125.42 227.19"/>
      <polygon points="93.18 226.27 93.94 228.6 89.11 228.47 93.18 226.27"/>
      <polygon points="125.42 227.19 127.67 228.44 126.16 229.5 125.42 227.19"/>
      <polygon points="151.9 208.49 152.56 210.86 156.51 208.07 151.9 208.49"/>
    </g>
    <g class="containerCreaseLine">
      <line x1="91.27" y1="231.07" x2="124.03" y2="231.98"/>
      <line x1="156.14" y1="211.43" x2="129.37" y2="230.34"/>
    </g>
    <g class="nuggetDark">
      <path d="M118.66,229.28c-1.49-9.09-12.08-7.41-12.28-.33l12.28,.33Z"/>
      <path d="M99.41,121.63c-3.4-1.96-6.24-4.64-5.48-5.95l-1.03,1.61c-.75,1.31-.25,3.25,5.02,6.41,4.08,2.45,6.45,2.93,7.45,1.27l.93-1.31c-.87,1.04-3.62-.14-6.88-2.03Z"/>
    </g>
  </g>
  <path class="clothesDisplayLine" d="M89.75,201.15c-3.79,2.59-45.81,3.39-51.73,0"/>
  <g class="clothesOverlapLine">
    <path d="M172.81,133.91c2.23,3.47,3.68,6.86,4.35,10.17"/>
    <path d="M167.1,255.33c-.92,2.91-.12,7.63,.26,10.61"/>
    <path d="M178.95,243.28c-2.95,4.92-6.22,9.54-11.86,12.06-7.58-13.07-.73-22.55-2.93-23.21-1.92-.57-3.28,3.61-4.31,10.39"/>
    <path d="M216.26,344.78c-5.2-.18-10,.45-14.22,2.24"/>
    <path d="M215.28,343.14c-5.49-.25-10.35,.43-14.54,2.09"/>
    <path d="M214.21,341.24c-5.27-.05-10.19,.68-14.82,2.18"/>
    <path d="M213.24,339.39c-5.59-.17-10.67,.59-15.21,2.29"/>
  </g>
  <g class="clothesFoldLine">
    <path d="M187.43,202.05c.74,3.54-4.93,5.86-10.42,9.49"/>
    <path d="M109.92,182.05c9.03,3.44,22.07,3.71,27.92,6.51"/>
    <path d="M126.02,183.44c5.34,1.57,12.49,1.53,20.47,.74"/>
    <path d="M137.48,204.22c-3.77,.35-7.56,.73-11.27,1.18"/>
    <path d="M179.15,196.56c-6.43,3.5-16.13,5.1-26.89,6.25"/>
    <path d="M151.89,199.71c7.69-1.49,12.74-4.23,17.3-10.31,4.54-6.05-7.07,0-17.22,.19"/>
    <path d="M125.83,202.05c6.23-.4,11.54-.69,16.12-1.07"/>
    <path d="M180.73,182.6c-12.38,11.54-27.54,21.03,1.77,10.33"/>
    <path d="M180.83,177.77c-6.36,3.88-13.52,6.96-22.24,8.47"/>
    <path d="M175.99,156.18c-10.81,4.25-22.04,6.63-33.78,6.79"/>
    <path d="M173.29,161.11c-16.28,2.98-34.15,6.14-52.86,5.02"/>
    <path d="M173.85,125.28c.28,3.54,1.49,7.3,.65,8.75"/>
    <path d="M169.57,121.37c2.17,3.86,3.41,7.99,3.25,12.54"/>
    <path d="M163.8,123.7c2.17,3.51,5.03,4.67,6.89,7.35"/>
    <path d="M165.01,127.89c1.77,2.23,5.58,3.54,6.23,5.96"/>
    <path d="M167.89,250.03c-.68-9.04,7.18-17.66,8.62-16.22,1.53,1.53-4.23,4.64-4.23,11.49"/>
    <path d="M183.47,311.04c-1.39,8.01,18.25,5.95,20.21-.94"/>
    <path d="M206.84,313.94c-4.42,4.55-12.64,5.49-6.77,6.19,4.28,.51,7.83,2.9,9.32,.7"/>
    <path d="M187.23,320.13c6.74,5.17,14.27,1.71,14.72,4.15,.58,3.1-10.89,4.15-11.91,6.74"/>
    <path d="M196.04,211.29c-2.56,1.37-5.35,4.34-8.25,8.12"/>
    <path d="M202.1,213.67c-3.53-.92-6.4,1.11-8.9,4.81"/>
    <path d="M240.16,220.87c-6.12,2.94-13.12,9.68-16,21.18"/>
    <path d="M248.3,223.74c3.73,1.05-4.02,5.37-13.31,12.78,2.59-4.71,7.08-8.32,6.24-10.71"/>
    <path d="M231.22,231.11c3.56-3.59,5.41-4.97,6.07-4.82,1.98,.46-10.77,12.7-11.71,24.22"/>
    <path d="M246.4,236.17c-7.05,.09-13.03,3.09-17.3,10.71"/>
    <path d="M264.67,238.25c0-2.05-.72-3.93-2.02-5.68"/>
    <path d="M205.79,293.49c7.43,1.67,14.05-1.3,20.24-6.71"/>
    <path d="M229.91,288.2c-4.71,5.88-13.06,9.06-3.06,14.59"/>
    <path d="M220.97,304.08c-5.88-8.71-9.06-4-14.71-6.59"/>
    <path d="M225.82,307.23c-2.12,.32-6.33-.41-5.68,1.51"/>
    <path d="M207.86,304.69c2.05,.01,4.09,.56,6.14,1.65"/>
    <path d="M84.74,207.1c1.35-3.71,3.49-3.26,3.26,1.24"/>
    <path d="M70.34,208.79c3.38-5.74,5.06-1.69,3.49,4.73"/>
    <path d="M76.64,206.09c-.18,1.49-.16,2.95,.11,4.39"/>
    <path d="M52.67,205.64c-.49,1.86-.75,3.7-.56,5.51"/>
    <path d="M54.25,209.46c2.14-7.2,4.95-3.94,4.39,1.58"/>
    <path d="M55.82,234.44c-6.9,2.9-12.93,7.25-17.33,14.29"/>
    <path d="M57.29,237.14c-3.26,3.38-11.03,6.3-7.54,10.24,3.27,3.69,10.35-11.7,18.9-12.26"/>
    <path d="M72.36,236.92c-16.65,7.88-17.33,29.7-29.7,24.3"/>
    <path d="M73.6,237.48c-3.95,3.03-7.23,6.35-8.44,10.58"/>
    <path d="M68.31,277.31c-6.53,3.49-17.33,4.73-21.04,1.8"/>
    <path d="M87.44,277.87c-11.93,2.7-37.93,6.2-22.5,10.8"/>
    <path d="M80.48,193.77c-2.09,2.73-4.42,4.98-7.11,6.52"/>
    <path d="M83.92,194.12c-.56,2.06-1.33,3.8-2.37,5.1"/>
    <path d="M212.02,326.32c-2.9,2.32-3.51,3.09-.29,3.57"/>
  </g>
  <g class="bottle">
    <g class="labelReverse">
      <path d="M242.44,208.79c-.03-.94-5.52-1.76-10.82-1.35l-.78-23.73c5.29-.47,10.78,.31,10.81,1.13l.79,23.95Z"/>
      <path d="M236.32,170.11c-.21-1.39-.42-2.8-.61-4.21-.65-.32-2.62-.45-3.91-.43l1.48,5.26c.81-.37,2.34-.73,3.04-.62Z"/>
    </g>
    <ellipse class="bottleBottom" cx="233.29" cy="215.7" rx="8.19" ry="1.83" transform="translate(-6.97 7.79) rotate(-1.88)"/>
    <path class="beerSide" d="M242.25,202.85c0,.95-4.2,1.72-9.38,1.72s-9.38-.77-9.38-1.72h0l.4,12.07c.11,3.92,18.9,3.3,18.75-.62l-.38-11.45h0Z"/>
    <ellipse class="beerTop" cx="232.87" cy="202.85" rx="9.38" ry="1.72"/>
    <path class="bottleSide" d="M239.15,177.22c-1-.88-1.99-2.07-2.4-4.36-.71-4.45-1.34-8.99-1.9-13.62,.52-.18,.82-.38,.82-.59l-.08-2.4c-.02-.52-1.93-.89-4.28-.81s-4.23,.56-4.22,1.09l.08,2.4c0,.21,.32,.4,.85,.54-.26,4.66-.59,9.23-1.01,13.72-.26,2.31-1.17,3.56-2.11,4.5-1.64,1.53-2.16,3-2.05,6.28l1.02,30.94c.11,3.92,18.9,3.3,18.75-.62l-1.02-30.94c-.11-3.29-.72-4.72-2.46-6.13Z"/>
    <path class="bottleCreaseLine" d="M234.84,159.25c-2.27,.53-4.55,.61-6.82,.22"/>
    <path class="bottleOverlapLine" d="M233.84,156.3c-1.67,.25-3.36,.3-5.07,.17"/>
    <g class="label">
      <path d="M242.44,208.79c.03,.87-3.57,1.71-8.23,1.97h0l-.8-24.17c4.66-.24,8.27-.99,8.24-1.75l.79,23.95Z"/>
      <path d="M235.82,166.65c-.5,.01-1.47-.19-2.39-.46l-1.18,5.34c1.49-.07,3.55-.64,4.13-1.08-.19-1.26-.38-2.52-.56-3.8Z"/>
    </g>
  </g>
  <path class="hairMediumBrown" d="M159.68,38.68c6.99-7.79-.2-12.62-1-14.43-2.04-4.67,.72-14.55-10.9-14.37,.8-1.14,1.07-2.42,.9-3.81-8.1,4.92-14.26-9.55-32.61-.61,.58-1.69,.41-3.32-.28-4.92-7.72,11.98-21.8-.42-25.07,16.51-13.55,5.19-5.57,13.73-17.25,19.25,.75,2.16,2.05,3.53,3.94,4.02-5.84,9.54,3.38,22.43-6.14,28.51,1.14,2.7,4.07,4.01,7.47,4.3,1.1,8.45,11.56,10.46,5.26,15.73,2.44,1.5,4.97,1.64,7.6-.01,1.28,5.94,8.81,5.96,9.8,10.78,2.15-.37,3.72-1.43,4.82-3.04,5.78,2.43,11.34,1.73,16.76-1.1l36.7-56.8"/>
  <g class="eye">
    <g class="sclera">
      <circle cx="144.47" cy="55.65" r="16.73"/>
      <circle cx="84.69" cy="86.56" r="5.61"/>
    </g>
    <path class="irisGreen" d="M87.19,89.9c.4-.01,1.32-1.57,1.26-3.44s-1.09-3.36-1.5-3.35c-.35,2.28-.27,4.54,.24,6.79Z"/>
    <g class="irisHazel">
      <ellipse cx="137.41" cy="57.57" rx="3.23" ry="3.74" transform="translate(-4.21 11.31) rotate(-4.64)"/>
      <ellipse cx="158.27" cy="55.88" rx="2.6" ry="3.74" transform="translate(-4 12.99) rotate(-4.64)"/>
    </g>
    <g class="pupil">
      <ellipse cx="137.83" cy="57.53" rx="1.26" ry="1.46" transform="translate(-4.2 11.34) rotate(-4.64)"/>
      <ellipse cx="158.77" cy="55.84" rx="1.01" ry="1.46" transform="translate(-4 13.03) rotate(-4.64)"/>
      <path d="M88,87.79c.32-.01,.47-.61,.44-1.34s-.21-1.31-.53-1.3c-.09,.88-.06,1.76,.09,2.64Z"/>
    </g>
  </g>
  <g class="skinGallic">
    <path d="M222.93,186.03c-4.98,1.69-5.99,7.51-2.62,9.1,1.49,.7,3.09,2.61,4.26,2.6,3.59-.05,2.51-7.77-1.54-8.43l-.11-3.26Z"/>
    <path d="M241.59,183l.1,3.03c-2.83,2.31-3.82,6.4-.85,7.02-.62,.68-.72,1.04-.72,1.67-5.19,1.86-5.99,6.53-3.15,7.27-3.21,2.06-1.62,6.78,1.97,5.73-1.1,1.83-.39,4.71,1.95,4.5,1.76-.16,3.73-.76,4.67-1.39,1.57-1.06,1.88-4.61-.03-5.52,3.1-1.83,3.31-5.82,1.09-7.4,2.47-2.47,2.09-6.15-.6-7.27,3.66-5.44-.32-8.68-4.42-7.64Z"/>
    <path d="M86.37,217.84c-1.25-5.57,2.34-5.03,3.18-7.02,2.09-4.93,4.66-2.02,5.49-4.93,2.29-4.38,5.42-.9,8.48-1.74,1.59-.43,2.02-2.25,6.53,.42,5.77,3.41,3.54,13.48,10.08,18.49,1.54,1.16-.24,3.28-2.88,2.58-.64-.93-1.44-1.6-2.46-2.08,.51,1.79,1.05,4.74,.38,5.64l-4.85-.13c-.7-.5-1.33-3.44-2.18-5.37-.51,2.31-5.31,3.11-6.74,.77-.84,2-5.19,2.28-6.43,.3-4.5,3.34-6.96-1.07-8.6-6.92Z"/>
    <path d="M105.22,75.46c5.12,8.57,7.76,24.06,6.08,31.27,9.03,11.9,32.71,10.17,34.93-1.01-2.36-1.53-3.38-7.82-2.67-12.54"/>
    <path d="M107.43,77.8c-6.64,3.08-7.38-2.28-11.23-5.26,5.52-3.79,8.89-8.18,10.32-13.1,2.63,2.46,4.76,1.57,3.51-1.15-2.57-5.58,3.89-9.65,6.94-16.56,16.79,1.38,19.56-9.74,26.81-17.05,5.61-2.74,9.99-3.57,11.86-.48,3.58,6.07,3.4,15.68,5.89,21.07,.82,1.78-.27,3.55-.8,5.87-.15,.84,.79,2.09-.25,3.6,.66,.82,.7,1.86,.13,3.12,8.1,18.8-3.31,30.54-4.94,36.95-2.05,8.05-13.04,8.81-22.37,4.29-2.6-1.26-11.65-2.37-18.74-9.38m25.69-33.12c-3.53-2.65-7.52-.41-10.47,.75,2.45,.81,6.32,1.26,9.51-.14,.39-.17,1.74-.02,.96-.61Zm19.55-1.99c-1.05-1.65-5.19-.23-6.66,.68,1.06-.28,5.91,1.9,6.66-.68Z"/>
  </g>
  <g class="skinAshkenazi">
    <path d="M87.5,221.21c-7.92-1.35-10.91,4.73-14.16,3.88-11.45-3.78-20.44-12.55-30.97-20.56,8.64-13.36,14.7-26.75,19.49-32.53,9.73-11.75,10.69-22.79,2.51-28.76-8.45-6.18-19.65,1.1-21.38,15.25-8.33,18.86-24.21,43.08-20.91,55.17,2.36,8.64,24.52,16.97,42.28,20.43,9.94,1.98,10.45,8.06,21.09,6.37,1.27-.42,3.73,1.9,6.17-.13,1.64,1.73,4.65,1.28,5.49,.05,2.38,3.01,5.14,1.35,5.74-.35,.88-2.04-4.69-6.11-7.39-11.37l3.16,.09c-2.88-2.54-4.36-6.37-11.13-7.52Z"/>
    <path d="M89.25,66.94c5.39,15.4,.41,15.82,2.33,20.46,3.26,7.86,9.07,10.54,7.59,15.1-.91,1.76-3.87,2.36-5.43,1.13-.48,.12-1.27,.45-1.79,.59,.57,3.06,2.54,3.3,3.3,4.82-.17,1.17-1.23,2.69-1.84,2.65-2.76-.48-5.28,.3-6.5,.41,.1,1.62,8.03,1.91,5.3,6.54-5.37,2.35,1.06,8.1-5.31,11.65-2.42,1.35-6.93-1.19-10.79-2.47-6.98-2.31-20.89-5.43-22.49-23.96-.81-23.06,7.09-63.54,35.64-36.93Zm-1.09,17.9c-2.12,.59-3.37,1.19-5.02,2.21,1.99,.35,3.46,.89,4.99,1.11,.45-.72,.39-2.49,.03-3.32Z"/>
  </g>
  <g class="skinOverlapLine">
    <path d="M246.01,190.65c-1.21,1.03-3.3,2.92-5.17,2.41"/>
    <path d="M246.62,197.92c-4.22,3.88-6.61,3.54-9.64,4.07"/>
    <path d="M245.53,205.31c-2.18,1.38-4.9,2.2-6.59,2.41"/>
    <path d="M92,216.46c.96,2.17,1.87,6.42,2.98,8.29"/>
    <path d="M97.91,213.49c1.26,3.79,2.22,7.83,3.5,10.97"/>
    <path d="M104.09,210.74c1.69,3.91,2.54,8.77,4.06,12.94"/>
    <path d="M110.91,208.37c1.63,4.35,2.06,9.19,3.89,15.18"/>
    <path d="M92.57,235.42c1.33,1.37,3.04,3.27,4.56,4.94"/>
    <path d="M91.64,240.32c-.34-.28-.65-.59-.93-.93"/>
    <path d="M114.5,129.12c-1.59-1.04-3.06-1.88-4.37-2.45"/>
    <path d="M112.18,136.49c-5.74-1.16-7.58-3.37-9.95,1.42-2.42,4.9-.9,3.53,2.53,6.95,1.42,1.26,3.42-2.21,1.37-3.79,1.08,.71,2.18,1.1,3.32,1.05"/>
    <path d="M113.34,132.64c-6.58-2.05-7.06-5.21-11.9,1.42-1.56,2.14-3.05,4.74-.27,6.32"/>
    <path d="M101.72,128.55c-4.02,3.94-2.07,5.09-1.52,7.45"/>
    <path d="M116.73,272.57c1.89-6.9,5.42-12.07,9.9-13.92"/>
  </g>
  <g class="skinFoldLine">
    <path d="M196.68,178.08c-3.01-.36-7.42,1.16-8.18,3.75"/>
    <path d="M95.48,228.64c-.65-1.21-2.23-2.64-4.68-3.21"/>
    <path d="M103.82,140.87c.45,.31,1.61,.36,2.3,.2-.04-.33-.49-1.15-.04-2.38"/>
    <path d="M106.55,120.25c.53-.26,.89-.55,1.4-1.13"/>
    <path d="M220.97,204.08c-.73-.99-1.21-2.41-1.25-3.78"/>
    <path d="M102.06,67.42c2.91,3.15,.95,6.46-1.57,1.64"/>
  </g>
  <path class="lipMaleMedium__noStroke" d="M152.62,78.93c-1.67,.9-4.41,1.13-6.51,.74-2.91,.72-7.34,.5-9.95,2.56,3.63,.69,3.16,8.35,11.8,7.37,9.49-1.7,1.98-9.57,6.04-9.8-.65-.25-1.16-.48-1.38-.86Z"/>
  <path class="mouthInner" d="M137.68,81.58s-.12,.03-.57,.21c5.55,5.19,14.4,4.63,14.54,1.56-2.93,2.37-11.02,.73-13.97-1.77Z"/>
  <path class="teeth" d="M152.02,80.24c-3.69,1.69-8.61-.64-14.34,1.34,2.95,2.5,11.04,4.13,13.97,1.77l.07-.03c.5-.3,.5-2.15,.31-3.08Z"/>
  <g class="eyeFoldLine">
    <path d="M160.62,57.87c-.65,1.01-2.97,1.58-4.68,.96"/>
    <path d="M139.67,59.92c-2.03,1.45-4.86,1.9-7.49,1.25"/>
  </g>
  <g class="eyebrowMediumBrown">
    <path d="M143.19,46.24c-3.15,4.84-10.63,.81-19.09,6.19,7.68-8.21,12.84-5.24,19.09-6.19Z"/>
    <path d="M161.63,45.49c-3.26-.77-6,.71-8.82,.35,1.88,2.51,4.32,1.48,8.71,2.6,.3-1.05,.46-2,.1-2.95Z"/>
  </g>
  <g class="lipFemaleMedium">
    <path d="M86.9,112.11c1.22-.11,3.74-.9,6.5-.41,.61,.04,1.67-1.48,1.84-2.65-3.1-.09-5.07,1.76-8.35,3.06Z"/>
    <path d="M86.9,112.11c-.3,.39,1.84,5.13,5.3,6.54,2.73-4.62-5.2-4.91-5.3-6.54Z"/>
  </g>
  <path class="eyebrowRed" d="M91.12,75.66c-.1,3.65-2.54,2.81-6.18,3.4-5.46,.89-5.72,3.27-6.74,2.26,3.63-5.22,9.73-4.56,12.93-5.66Z"/>
  <path class="hairRed" d="M93.13,73.14c6.99-4.77-4.73-22.77-10.59-23.03l-8.18-4.33c-3.88-12.65-42.9-12.2-56.9,4.35-7.04,8.33-9.44,20.34-13.94,28.96-10.34,19.79,7.17,36.25,7.52,43.19,.24,4.79-5.28,9.47-9.84,5.44,2.27,5.17,9.01,9.24,14.96,8.35-1.45,1.39-3.61,2.38-5.31,2.58,4.44,4.14,17.25,3.25,20.78,.41,6.11,5.12,17.24,2.2,20.65-2.72,12.15-1.08,15.84-12.13,14.32-24.39-1.25-10.06-5.32-18.93-4.78-30.93,5.09-7.19,10.47-7.6,9.01-19.75,8.28-1.56,18.72,13.62,22.3,11.88Z"/>
  <path class="maraHeadband" d="M82.53,50.11c-2.96-3.23-9.22-5.71-13.48-5.63-5.09,2.67-6.7,13.59-7.07,27.03,8.23-10.31,15.45-17.1,20.56-21.4Z"/>
  <g class="lipOverlapLine">
    <path d="M137.11,81.79c-.72,.28-1.46,.64-2.2,1.08"/>
    <path d="M154.45,79.87c-.8-.19-1.55-.1-2.43,.37"/>
  </g>
  <g class="lipEdgeLine">
    <path d="M152.62,78.93c-1.67,.9-4.41,1.13-6.51,.74"/>
    <path d="M152.81,86.59c-.9,2.93-7.38,4.47-11.32,1.42"/>
  </g>
  <g class="cheekLine">
    <path d="M89.09,96.39c2.87,7.12-2.35,7.53-5.36,16.48"/>
    <path d="M154.59,72.94c.66,.8,1.06,2.04,1.36,3.06"/>
    <path d="M142.67,69.89c-1.32,1.57-3.91,3.47-6.02,5.72s-3.57,4.64-3.69,6.45"/>
  </g>
  <g class="noseLine">
    <path d="M94.83,103.48c-1.89-.06-3.99,2.06-6.06,.21"/>
    <path d="M142.67,69.89c-1.2,1.51-.95,3.7,.47,4.66"/>
    <path d="M151.79,63.44c2.38,5.15,6.07,7.91,1.73,10.19-2.93,1.54-5-1.05-7.45,.25"/>
  </g>
  <g class="eyeLidLine">
    <path d="M88.77,84.17c1.58-.46,1.06-2.3,.52-3.38"/>
    <path d="M88.74,87.42c1.47,.8,.84,1.87-.31,2.82"/>
  </g>
  <g class="eyeCornerLine">
    <path d="M126.41,58.01c1.17,.03,2.31-.24,3.37-.65"/>
    <path d="M151.05,56.26c.88-.53,1.32-.69,2.1-.96"/>
    <path d="M83.84,86.33c-.89,.47-1.94,.98-3.25,.96"/>
  </g>
  <g class="eyeCreaseLine">
    <path d="M140.26,55.11c-2.89-3.17-7.31-2.09-9.92,.13"/>
    <path d="M160.98,53.07c-2.38-1.48-6.01-1.02-8.68,1.1"/>
    <path d="M83.11,85.14c1.9-2.2,5.48-2.54,6.59-3.31"/>
  </g>
  <g class="hairOverlapLine">
    <path d="M143.78,24.69c2.48-3.1,5.26-5.06,8.34-5.78"/>
    <path d="M116.97,41.73c-2.75-.58-5.06-1.51-7-2.72"/>
    <path d="M96.2,72.54c-1.46,.92-2.87,1.59-4.21,1.94"/>
    <path d="M54.35,133.79c-2.16,1-4.93,1.19-8.01,.36,.73,1.05,3.7,2.11,5.94,2.18"/>
    <path d="M61.97,71.51c-.41,2.87-.04,6.68-.15,9.5"/>
  </g>
  <path class="hairEdgeLine" d="M147.78,9.87c-11.73,2.29-16.84,23.92-29.15,20.14"/>
</svg>