<svg viewBox="0 0 210.76 478.4">
  <path class="hairBlonde" d="M104.3,203.29c-7.49,10.34-34.21,15.3-41.91,1.15-2.21,3.64-4.85,5.78-8.08,5.86,4.24-9.12-9-23.66-4.06-45.61,3-13.28.15-30.63,4.68-42.74,4-10.79,4.36-21.72,13.4-28.84C88,77.62,93.71,80.35,105,79.3c12.48.16,15.68,7.16,15.67,17.62Z"/>
  <g class="hairEdgeLine">
    <path d="M100.3,82.57c.94-1.31,2.83-2.27,4.73-3.27"/>
    <path d="M79,121.89c3.06-16.78.39-34.87,18.2-38.44"/>
  </g>
  <g class="hairOverlapLine">
    <path d="M108.73,86.29c3.22-.24,6.3.46,8.51,3.1"/>
    <path d="M70,153.26a55.54,55.54,0,0,0,8.3-11.42"/>
    <path d="M83.6,128.59c.7-2.21.66-5.31,1.61-9.18"/>
  </g>
  <g class="racket">
    <path class="racketGrip" d="M22.42,105.42.38,151.5c-1.37,3,8.78,7.64,10.15,4.66l19.64-47.07C30.76,107.69,23.1,104,22.42,105.42Z"/>
    <path class="racketStrings" d="M29.58,34.7c-6.38,18.52-5.8,42.72,11.36,48,16.7,5.14,34.32-13.23,40.5-29.25C91,28.55,85.6,10.31,69.58,4.52,53.12-1.42,36.06,15.91,29.58,34.7Z"/>
    <path class="tennisRacket" d="M70.41,1.67c-18-6.51-37,10.32-44.23,30.8-3.82,10.89-4.84,22.77-3.3,32.33a123.23,123.23,0,0,1-.46,40.62c.32-.67,2.21-.2,4,.63a157.61,157.61,0,0,0,2.08-28.57c3.57,5.61,12.28,9.42,18.54,9a77.46,77.46,0,0,0-19.84,19.92c1.73.89,3.2,2,2.93,2.66C36.38,98.2,45.24,91.58,59.9,84,70.38,78.53,80.3,66.41,84.8,54.9,94.17,30.87,91.68,9.37,70.41,1.67Zm11,51.77C77.3,64.16,68,75.94,57.36,81l-.2.09c-5.22,2.44-10.77,3.27-16.22,1.59-17.16-5.27-17.74-29.47-11.36-48,6.48-18.79,23.54-36.12,40-30.18C85.6,10.31,91,28.55,81.44,53.44Z"/>
  </g>
  <g class="shoe">
    <path d="M116.62,435.4c1.21,7.1.84,16.86,5.52,21.71-8.27,19.08-39.24,5.65-31-13.43,1.66-7,4.35-11.78,9.39-14.57C105.16,426.55,115.9,430.71,116.62,435.4Z"/>
    <path d="M93.93,442.73c2.41,3.13-1.76,10,7.89,19.45-21.76,23.19-32.75,2.36-33-6.66,1.44-6.51,3.14-10.46,7.24-15C80.31,435.82,89.83,437.44,93.93,442.73Z"/>
  </g>
  <g class="soleWhite">
    <path d="M101.82,462.18c-4.67-3.42-19.32-1.53-23.25,7.23-2.67-3.12-9.24-7.91-9.79-13.89a22.68,22.68,0,0,0-.47,7.73c.44,2.41,5.5,6.67,8.32,10.29,4.33,5.55,22.48,6.71,28.12,0C106.54,471.47,105.19,464.72,101.82,462.18Z"/>
    <path d="M122.14,457.11c-5.35-2.68-15.24-.59-21.45,3.9.35.39.73.78,1.13,1.17,2.41,1.82,3.79,5.79,3.72,8.68,7.36,1.24,15.84-.34,20.33-4.3C127.31,464.66,126.17,458.06,122.14,457.11Z"/>
  </g>
  <g class="shoelace">
    <path d="M114.63,440.8a28,28,0,0,0-11.25.64A35.87,35.87,0,0,0,105.57,452a26.68,26.68,0,0,1,10.11-.82A59.22,59.22,0,0,1,114.63,440.8Z"/>
    <path d="M93.27,449.19a17.5,17.5,0,0,0-11.09,1,20.89,20.89,0,0,0,2.61,8.27,23.61,23.61,0,0,1,10.58-1.19A23.79,23.79,0,0,1,93.27,449.19Z"/>
  </g>
  <g class="eye">
    <path class="sclera" d="M127.43,112c-48.51,11.61-45.52-.18-4.2-7.65C126.4,105.07,128,109.2,127.43,112Z"/>
    <g class="irisBlue">
      <ellipse cx="108.58" cy="110.37" rx="2.63" ry="2.88" transform="translate(-39.44 64.97) rotate(-28.42)"/>
      <ellipse cx="124.53" cy="106.55" rx="2.42" ry="2.88" transform="translate(-35.7 72.1) rotate(-28.42)"/>
    </g>
    <g class="pupil">
      <ellipse cx="108.88" cy="109.88" rx="1.02" ry="1.12" transform="translate(-39.17 65.05) rotate(-28.42)"/>
      <ellipse cx="124.86" cy="106.03" rx="0.94" ry="1.12" transform="translate(-35.42 72.2) rotate(-28.42)"/>
    </g>
  </g>
  <g class="skinNordic">
    <path d="M157.17,295.64c1.05,26.54-7,63.56-12.69,81.66-6.47,20.72-21.4,36-29.79,58-.38-3.42-10.72-3.17-12.42.53-1.8-1.2-2.74-3-2.33-5.88,10.67-41.36,18.48-126.07,18.48-126.07Z"/>
    <path d="M121.08,304.47c1.66,70.1-2.9,67-6.61,79.23-7,23.31-19.75,42.71-21.61,61.46-1.34-3.09-9.89-2.43-12.15,1.13-2.42-1.43-4-3.09-4.15-5.4,7.83-26.3,1.35-49.46,12.74-69.56,1.52-2.68-12.83-49.78-11.13-69.62Z"/>
    <path d="M120.79,142.56c-2.53,8.54-1.58,16.44,2.63,16.27,3.23-.24,4.91.09,8.27-1.13s5.53-6.51,15.49-10.17c7.42-7.32,19.42-20.75,20.44-25.4,3.12-14.23,13.44-24.91,18-48.31C181.17,68,181.3,63.2,181,58.54a50.25,50.25,0,0,0-1.65-11.7c1.09-4.14,6.59-1.21,7,5.36,0,2.26.45,5.08,1.09,3.91,3.08-2.86,5.36-22.58,8.83-26,2.08-2.56,5.46-.11,2.44,6.74-1.65,5.52-2.74,11.29-2.09,12.83,2.6-3.72,3.85-8.56,6.31-13.84,1.56-6.13,5.56-7.74,6.35-4.05-.15,4.44-2.19,9.46-4.69,15.81,1.3-1.39,3-.35,4.1.53,2.53,2.1-1.09,5.11-.31,6.1.09,1,1.79,1.36,2.1,4.53.24,2.54-1.27,4.76-3,7.92-1.85,3.38-5.31,8.28-9.12,10.38-4.39,17.61-4.07,42.31-12,53.43-16.72,23.55-36.93,43.8-36.66,54.4-1.84,6-1.56,45.89-.38,52.23,1.69,9.07,3.45,16.76,5.17,25.29,1.31,25.19-72.79,28.76-74.11,3.58.91-14.32,2-18.19,2.44-25.54.29-8.36-3.44-12.07-5.82-23.79-1.63-8,2-10.71-1.17-23.7-11-2.27-26.55,14.42-45,13.8-4.47-.15-7.07-2.48-9-6.76-8.4-18.68-3.49-33.95-8.48-50.66l9.78-23.45c-2.83-2.4-2.82-7.18-.29-7.92,1.15-.36,2.57,2.13,5.18,3.94,2.36,1.63,1.36,4.53,2.14,7.2,2.93,10-4.57,11.89-4,16.68.86,13.91,11.07,28.71,13,40.43,11-6.67,19.12-9.88,21.69-12.24a28,28,0,0,1,20.37-7.29c3,.11,4.57-2.05,9.3-4,3-3.16,2.6-15.56-2-21.35"/>
    <path d="M17.39,117.23c-1.89-1.77-5.36-7.09-1.2-9.15,2-1,3.26.79,3.81,2.4C21.85,114.9,20.56,118.28,17.39,117.23Z"/>
    <path d="M16.84,117.09c-3.2-2.5-6.17-.15-5.51,4.42-3.36.21-3.94,3.66-2.07,7.8-2.41-1.3-5.14,2.29-2,5a6,6,0,0,0,0,2.82l1-2.13a6.17,6.17,0,0,0,3.53.74c1.78.11,2-2.58.4-3.43,4.09,2.25,5.39-.84,3.59-3.61,3.8,1,4.22-2.78,1.61-5.94A7.16,7.16,0,0,1,16.84,117.09Z"/>
    <path d="M90.63,141c-.87,5.66-6.13,3.53-8,2.59-1.32-.63-3.33-1.11-4.36-1.79a43.75,43.75,0,0,0,5.34-13.25,8.17,8.17,0,0,0,5.93,2,16.46,16.46,0,0,1-4.32-11.15c4.29-15.83,7.31-31.19,19.36-30.73a5.72,5.72,0,0,1,4.16-2.39,31.76,31.76,0,0,1,10.53,9c2.12,2.92,3.59,2,5.83,8,.5,1.34,3.35,1.6,1.75,4.42-1-3.15-5.58-1.48-5.66,1.81,0,.57.48.26.7.3,2.1.41,4,.35,5.27-1,2,.24,1.2,1.88,1.61,2.27,5.18,4.93,8.42,13.78,6.55,24-.8,4.38-.34,7.31-4.3,9.6-3.3,1.91-3.94,1.42-11.7,2.63-6,.95-15,1.32-21-2.42m14-33.35c-4.74-4.36-9.2,1.29-10.08,3.85,3-1.25,7.64-.15,9.86-2.93C112.37,112.19,113.11,112.25,112.36,111.56Z"/>
  </g>
  <g class="skinDisplayLine">
    <path d="M117.71,257.81c2.62,5-3,5.88-1.68.28"/>
  </g>
  <g class="skinOverlapLine">
    <path d="M72.61,187.55A11.51,11.51,0,0,1,75.89,193"/>
    <path d="M106.34,199.21a9.59,9.59,0,0,1,3.29,6.42"/>
    <path d="M116.63,197.32a9.45,9.45,0,0,0-1,7.06"/>
    <path d="M39.22,186.22a8.1,8.1,0,0,1-1.71,6"/>
    <path d="M204.6,47.6c-4,2.61-4.28,5-5.56,6.14-1,1.93,2.39,5.36,6,.39.66-.9,1.28-.79,1.94-1.8"/>
    <path d="M206.62,54.92c-6.9,1.75-6.68,4.41-9.33,5.49-1.41,1.24,1.63,5.47,5.49,1.27a13.42,13.42,0,0,0,4.33-1.18"/>
    <path d="M11.33,121.51c1.83,5.65,2.88,5.77,4.47,7.16"/>
    <path d="M9.26,129.31a7.78,7.78,0,0,0,3,3"/>
    <path d="M7.3,134.28a10.47,10.47,0,0,0,1,.69"/>
    <path d="M23.16,125.89a3.58,3.58,0,0,0,1.25.82,12.24,12.24,0,0,0-1.1,3.31"/>
  </g>
  <g class="skinFoldLine">
    <path d="M79.49,139.51a15,15,0,0,0,3.87,1.88"/>
    <path d="M83.56,133.06c-1.29,2.62,4.4,3.32,2.7,5.19-1.2,1.32-2.26-1.18-5.58-1.34"/>
  </g>
  <g class="skinCreaseLine">
    <path d="M176.58,126.7a20.21,20.21,0,0,0-7.59-3"/>
    <path d="M149.39,168a14.6,14.6,0,0,0-3.71,7"/>
    <path d="M112,377.74a12.63,12.63,0,0,1-9.67.16"/>
    <path d="M135.17,378.18a10.27,10.27,0,0,1-8.69-1.48"/>
    <path d="M190.84,55.49c4,.7,5.58,10.12,3.82,13.64"/>
    <path d="M201.51,62.8A23.45,23.45,0,0,0,205,64.74"/>
    <path d="M196.85,53.12a8.34,8.34,0,0,0,1.48,6.69"/>
  </g>
  <path class="bikiniTop" d="M149.8,206c-.7,1.71,2,4.35-.5,7-6.43,6.94-22,10.92-33.85.52-2.69.31-7.2,5.79-11.25,8.7-5.73,4.1-18.71,5.95-24.65,1.77-3.65-2.56-5.61-12.69-3.06-14.31-.06-7.85,20.18-12.79,31.83-4.72,2.55,1.77,6.43.68,8.74-1.9,7.65-8.59,22.1-11.74,31.44-4C150.09,200.37,151.14,205.08,149.8,206Z"/>
  <path class="shorts" d="M154.67,261.48c1.1,4.8,2.26,7.95,1.74,10.32.45,2.82,1.88,4.89.44,6.36,2.9,6,0,13.55,2.54,20.54-3.53-1.81-5.28,4.74-7.85,1.66-1.5,5.55-4.93-.09-6.95,3.84-3.23-1.43-4.47,4.59-8.21,1.33-1.69,2.64-5.16,0-7.31,3.09-2.55-2.64-6,2.62-8.32-1.49-2.5,4.39-6.57-1.07-8.4,2.76-1.95-4.1-6.78,1.12-8.42-3.37-3.08,3.08-8-.73-9.79,1.92-2.62-4-7.73,1.27-8.83-3.15-2.43,3.63-6.15-.85-8.45,1,1.14-4.87-.54-9.53,1-11.59-1.21-1.06-1.76-3.24-.85-7.28.53-2.32-1.69-5.84-.14-9.08-1.38-3.7,1.75-7.83,3.2-12.95,9.57,6.65,30.6,8.11,38.27,8.46-.17-1.66,5.74-.88,10.81-1.29C141.2,271.58,150.92,267.07,154.67,261.48Z"/>
  <g class="clothesDisplayLine">
    <path d="M107.63,274a20.44,20.44,0,0,0-.49,8.67"/>
    <path d="M103.91,274.05a20.68,20.68,0,0,0-.62,8.24"/>
    <path d="M135.31,272.84a18.13,18.13,0,0,1,1,8.07"/>
    <path d="M138.8,272.51a18.73,18.73,0,0,1,.82,7.79"/>
    <path d="M121.68,303.94a8.33,8.33,0,0,0,7.07-9.2c-.52-3.48,1-8-.08-10.74"/>
    <path d="M121.08,306.08c1.08-2.52,1-6.09-.06-10.44-.76-3.29.45-6.59-.78-10.93-1.07-3.78-.12-8-1.85-10.87"/>
    <path d="M101,282.48c-1.49,3.07-5.9,4.92-14.55,5"/>
    <path d="M141.07,281.08c2.16,2.77,6.31,3.41,9.78,2.91"/>
    <path d="M105.24,468.15c-3.09,4.25-20.87,6.48-26.67,1.26"/>
    <path d="M125.78,460.69c-2.3,3.35-14,5.68-21.64,4.39"/>
  </g>
  <g class="clothesOverlapLine">
    <path d="M142.54,288.91c-11.21,4.33-14.54,16.2-21.46,17.17-5-1.78-8.44-9.14-24.87-15.7"/>
    <path d="M93.53,451.16a25.68,25.68,0,0,0-11,1.06"/>
    <path d="M93.93,453.16A26.28,26.28,0,0,0,83.1,454.6"/>
    <path d="M94.5,455.13a27.14,27.14,0,0,0-10.71,1.32"/>
    <path d="M114.7,443.11a35.63,35.63,0,0,0-11.11.74"/>
    <path d="M114.89,445.69a33.21,33.21,0,0,0-10.9.68"/>
    <path d="M115.22,448.4a37.31,37.31,0,0,0-10.58.72"/>
    <path d="M102.27,435.86c.91,1.12.85,3.33,1.11,5.58"/>
    <path d="M114.69,435.33c.59,1.27,0,3.1-.06,5.47"/>
    <path d="M80.71,446.29c1.21.81,1.19,2.24,1.47,3.88"/>
    <path d="M92.86,445.16c.7,1.08.38,2.57.41,4"/>
  </g>
  <g class="clothesFoldLine">
    <path d="M108.32,205c4.73,3.21,10.38,8.27,15.51,10.51"/>
    <path d="M115.45,213.55c-6.12-5.05-13.91-9.8-22.34-9.17"/>
    <path d="M149.8,206a28.91,28.91,0,0,1-8.38,2.2"/>
    <path d="M148.69,208.83c-1.74,1.64-4.33,2.94-8.11,3.78"/>
    <path d="M83.11,206.76a16.29,16.29,0,0,0-6.62,3"/>
    <path d="M76.51,216.12a8.3,8.3,0,0,0,4.72.27"/>
    <path d="M81.52,218.88a51.15,51.15,0,0,0,20.16-3.42"/>
    <path d="M107.42,209.93a56.57,56.57,0,0,0-13.62-1.11"/>
    <path d="M102.43,219.17a20.41,20.41,0,0,1-15,3.78"/>
    <path d="M113.1,211.69a29,29,0,0,1-7.35,5.61"/>
    <path d="M126.5,201.52c-5.67,2.13-8.63,5.2-11.61,8.32"/>
    <path d="M126.59,204.34c-4,1.76-8,4.1-10.11,6.68,3.86,2,9.29,3,14.51,3.37"/>
    <path d="M134.72,209.77a46.87,46.87,0,0,1-15.33.58"/>
    <path d="M156.41,271.8c-.85,1.12-2.55,2.23-5.3,3.33"/>
    <path d="M156.85,278.16c-1.21,1.1-3.71,1.89-7,2.49"/>
    <path d="M149.09,288.25c-3.51,2.55-9.29,3.68-14.93,9.34"/>
    <path d="M133.58,289.89c-5.26,2.74-14.56,3.91-22,3.27"/>
    <path d="M125.89,297.17a27,27,0,0,1-8.61,1.36"/>
    <path d="M87.79,292.56a35.6,35.6,0,0,1,16,5.18"/>
    <path d="M76.92,278.33c1.1,1.11,2.9,1.6,5,1.83"/>
    <path d="M77.91,294.69a4.1,4.1,0,0,0,2.68.86"/>
  </g>
  <circle class="clothingSilver" cx="124.23" cy="278.22" r="2.56"/>
  <path class="lipFemaleLight__noStroke" d="M130.05,129.22c-5.22.23-7.49,4-10,4.46a8.48,8.48,0,0,1,3-.16c3.81.68,7.3-.36,8.65-2.73C132,130.09,131.42,129.23,130.05,129.22Z"/>
  <path class="lipFemaleLight" d="M130.05,129.22c-5.22.23-7.49,4-10,4.46,3.36-2.84,1.29-7,5.62-7.71,1.52-.25,2.66-1.63,4-.64A2.47,2.47,0,0,1,130.05,129.22Z"/>
  <path class="lipEdgeLine" d="M123,133.52c3.81.68,7.3-.36,8.65-2.73"/>
  <path class="teeth" d="M124.92,129.17c-1.09,1-1.19,1.8-1.92,2.92a13.16,13.16,0,0,1,6-2.78C128.65,127.35,126.6,127.64,124.92,129.17Z"/>
  <g class="noseLine">
    <path d="M119.82,108.77c1.66,5.61,12.16,6.24,8,12.34"/>
    <path d="M118.66,120.35a2.61,2.61,0,0,0,1.77,3.66"/>
    <path d="M122.31,123.12c.57-1.57,2.36-3.25,2.25-1"/>
    <path d="M127.86,119.21c.06,1.06-.81,1.92-1.62,2.68"/>
  </g>
  <g class="eyeFoldLine">
    <path d="M128.62,110.62c-.24.67-1.09,1-2,1.12"/>
    <path d="M111.81,115.65c-.9,1.45-3.9,1.95-5.25,1.67"/>
  </g>
  <path class="eyeCornerLine" d="M99.53,117.57a8.26,8.26,0,0,0,2.75-2.16"/>
  <g class="eyeCreaseLine">
    <path d="M120.12,106.59c2.17-2.52,6.19-2,7.09-1.06"/>
    <path d="M101.6,113.73c2.09-4.13,5.78-6,8.8-4.49"/>
  </g>
  <g class="eyebrowBlonde">
    <path d="M110.24,103.39c-.28,3.91-11.29.88-15,11.22C98.25,102.39,105.33,105.23,110.24,103.39Z"/>
    <path d="M123.48,99.76a21.36,21.36,0,0,1-3.94,1.2c1.48.94,3,.73,4.72.33A16.55,16.55,0,0,0,123.48,99.76Z"/>
  </g>
</svg>
