<svg viewBox="0 0 289.49 383.66">
  <circle class="dullPastDarkerClear" cx="150.45" cy="135.71" r="12.64"/>
  <path class="dullPastDarkerClearer" d="m164.83,105c-17.95,11.35,5.1,55.54,26.81,41.8,26.75-16.92-3.73-56.4-26.81-41.8Z"/>
  <path class="dullPastDarkerClearest" d="m185.72,101c31.88,40.29,85.01-4.51,56.53-42.01-33.66-43.15-88.04,2.18-56.53,42.01Z"/>
  <g class="bubbleFoldLine">
    <path d="m165.46,125.8c.96-2.27,1.63-3.19,3.02-4.65"/>
    <path d="m227.7,57.37c-1.67.82-3.71,2.54-4.6,4.33"/>
    <path d="m142.88,135.9c.76,1.31,1.73,2.07,3.08,2.59"/>
  </g>
  <path class="dullPastDark__noStroke" d="m256.83,343.11H80.39V48.79C45.86,54.66,1.13,39.64.5,10.66l.18,372.5h288.76c-24.89-2.31-33.98-22.24-32.62-40.05Z"/>
  <path class="dullPastDarker__noStroke" d="m258.82,359.96c-6.07-18.11,1.34-40.77,15.96-44.89.02-.15.04-.29.06-.43-45.89-5.62-46.55-99.08-3.61-108.09-45.84-5.85-41.24-99.46,6.22-104.24-34.55-16.82-26.65-59.59-9.96-71.65-10,1.55-33.93-3.96-39-25-2,42.06-94.16,56.78-109.74,14.56-5.82,22.25-32.87,31.22-59.64,29.66-9.42,101.35-2.25,286.08,15.06,306.89,12.5,15.01,153.67,17.36,184.63,3.19ZM185.64,57.64c6.79-9,19.02-16.1,27.55-14.46,8.36,1.61,13.89,6.05,14.51,14.18,3.81-1.89,8.65-.65,10.66.67,11.71,7.2,11.43,22.87,7.79,32.55-2.54,7.71-8.82,12.49-16.49,12.89-2.49,8.98-10.52,11.97-17.78,11.69-9.71-.06-18.5-4.42-18.62-15.78.06.08-11.75.16-15.3-14.8-2.61-11.02,2.09-19.55,7.67-26.95Zm-8.32,45.66c7.09-.5,11.44,3.45,11.24,9.99,4.34.28,7.34,2.75,9.85,6.89,6.89,12.07-9.15,25.85-23.32,23.53-9.47-1.72-12.85-9.24-9.64-17.93-4.24-1.35-6.08-4.04-5.56-8.41,1-6.6,9.01-13.21,17.43-14.08Zm-25.61,21.01c6.09,1.11,8.98,6.5,7.02,14.54-1.9,7.3-7.06,9.28-11.87,8.12-5.8-1.56-9.15-7.99-3.98-11.07-2.65-5.72-.07-12.63,8.83-11.58Z"/>
  <g class="dullPastDarkest__noStroke">
    <path d="m263.65,369.44c-2.1-2.9-3.7-6.11-4.83-9.48-30.96,14.17-172.13,11.82-184.63-3.19v24.05h189.49l-.03-11.38Z"/>
    <path d="m255.54,113c-.51-8.47-1.89-17.1-4.16-26.08h-1.55v33.16c2.02-3.06,3.83-5.18,5.71-7.08Z"/>
  </g>
  <g class="dullPastDark__noStroke">
    <path d="m57.57,261.19c61.27,5.25,121.95,6.19,182.24,2.85-.09-1.9-.11-3.81-.08-5.71-60.48,3.69-121.37,2.63-182.4-3.17-2.25-.29-2.6,5.66.24,6.04Z"/>
    <path d="m258.57,84.99c-3.33-.39-7.83.07-7.35,1.31,2.37,9.2,3.8,18.04,4.32,26.7,2.98-3.01,6.37-5.51,10.15-7.35-.58-4.58-1.4-9.25-2.47-14.04-1.82-2.09-3.36-4.31-4.65-6.62Z"/>
  </g>
  <path class="bubbleBorderLine" d="m.68,383.16h288.76c-43.99-4.09-38.62-63.19-13.45-68.38-47.03-4.18-48.05-99.14-4.76-108.23-45.84-5.85-41.24-99.46,6.22-104.24-34.55-16.82-26.65-59.59-9.96-71.65-10,1.55-33.93-3.96-39-25-2,42.06-94.16,56.78-109.74,14.56C106.58,66.78,1.46,55.19.5,10.66l.18,372.5ZM185.64,57.64c6.79-9,19.02-16.1,27.55-14.46,8.36,1.61,13.89,6.05,14.51,14.18,3.81-1.89,8.65-.65,10.66.67,11.71,7.2,11.43,22.87,7.79,32.55-2.54,7.71-8.82,12.49-16.49,12.89-2.49,8.98-10.52,11.97-17.78,11.69-9.71-.06-18.5-4.42-18.62-15.78.06.08-11.75.16-15.3-14.8-2.61-11.02,2.09-19.55,7.67-26.95Zm-10.55,86.08c-9.47-1.72-12.85-9.24-9.64-17.93-4.24-1.35-6.08-4.04-5.56-8.41,1-6.6,9.01-13.21,17.43-14.08,7.09-.5,11.44,3.45,11.24,9.99,4.34.28,7.34,2.75,9.85,6.89,6.89,12.07-9.15,25.85-23.32,23.53Zm-28.23,3.25c-5.8-1.56-9.15-7.99-3.98-11.07-2.65-5.72-.07-12.63,8.83-11.58,6.09,1.11,8.98,6.5,7.02,14.54-1.9,7.3-7.06,9.28-11.87,8.12Z"/>
  <path class="dullPastDarkerClear__noStroke" d="m267.5,30.66c4.14-3.19,12.48-6.07,15.84-6.99-9.17-3.41-17.23-13.62-19.14-23.58,1.01,10.29,7.71,18.74,15.27,23.37-6.61,1.87-12.07,4.71-16.53,8.19l4.57-.99Z"/>
  <path class="dullPastDarkerClearer__noStroke" d="m279.47,23.46c-7.57-4.62-14.27-13.08-15.27-23.37.09,8.89,4.91,17.47,12.35,23.05-6.69,1.81-12.28,4.85-17.59,9.37l3.97-.86c4.47-3.48,9.92-6.32,16.53-8.19Z"/>
  <path class="dullPastDarkerClearest__noStroke" d="m276.55,23.14c-7.45-5.58-12.27-14.15-12.35-23.05-.75,7.69,3.24,16.74,9.82,22.52-7.41,1.86-13.65,6.09-19.06,10.76l4.01-.87c5.31-4.52,10.9-7.56,17.59-9.37Z"/>
  <path class="bubbleOverlapLine" d="m267.5,30.66c4.14-3.19,12.48-6.07,15.84-6.99-9.17-3.41-17.23-13.62-19.14-23.58"/>
</svg>