<?xml version="1.0" encoding="UTF-8"?>
<svg id="presence" xmlns="http://www.w3.org/2000/svg" viewBox="0 0 420.57 335.68">
  <defs>
    <style>
      .cls-1 {
        fill: #dff7f5;
      }

      .cls-1, .cls-2, .cls-3, .cls-4, .cls-5, .cls-6 {
        stroke: #000;
        stroke-miterlimit: 10;
      }

      .cls-2 {
        fill: #afc4c3;
      }

      .cls-3 {
        fill: #c9dedd;
      }

      .cls-4 {
        fill: #9eafae;
      }

      .cls-5 {
        fill: #95bfc1;
      }

      .cls-6 {
        fill: none;
      }
    </style>
  </defs>
  <g>
    <circle id="bubbleClear" class="cls-1" cx="166.8" cy="212.77" r="11.47"/>
    <path id="bubbleClearer" class="cls-3" d="m131.35,223.96c10.74,1.95,21.03-5.18,22.98-15.93,1.95-10.74-5.18-21.03-15.93-22.98-10.74-1.95-20.62,5.14-22.57,15.88-1.95,10.74,4.77,21.07,15.51,23.02Z"/>
    <path id="bubbleClearest" class="cls-2" d="m52.72,178.85c-1.24,44.14,66.93,49.6,68.16,5.46,1.24-44.2-66.92-49.65-68.16-5.46Z"/>
    <g id="bubbleFoldLine">
      <path class="cls-6" d="m123.04,199.29c1.85-1.26,2.81-1.63,4.59-2.05"/>
      <path class="cls-5" d="m85.02,157.96c-.68,1.55-1.09,3.94-.66,5.7"/>
      <path class="cls-6" d="m165.05,206.13c-1,.95-1.46,1.96-1.64,3.26"/>
    </g>
    <path id="bubble" class="cls-4" d="m.5,335.18h419.57c-48.29,0-62.38-60.78-27.71-84.56-35.08-1.32-41.85-65.12-8.11-75.68-45.64-9.87-32.16-99.44,10.81-100.77-18.28-4.87-29.01-21.36-27.46-37.46-4.4.34-9.74-.12-14.29-3.35,2.99,30.68-44.4,46.39-60.58,17.17-.35,28.95-53.86,38.2-63.17,5.43-8.4,44.94-117.4,39.9-120.9-7.88-18.53,27.56-57.37,16.82-66.13,4.94,6.1,9.3,1.45,38.92-16.8,47.57,38.75-1.39,45.47,74.78,3.09,79.15,42.25,8.37,37.22,86.98-5.85,87.93,21.25,3.6,32.58,61.7-22.46,67.52Zm155.61-123.23c.16-5.45,5.14-9.75,8.94-5.83,4.5-3.54,11.14-2.7,12.08,5.37.3,5.61-3.86,9.28-11.37,9.23-6.84-.16-9.67-4.29-9.65-8.78Zm-33.16-21.81c4.02-4.53,13.38-5.61,20.22-2.13,5.65,3.12,7.01,8.27,3.63,13.16,3.17,2.36,4.23,5.71,4.1,10.11-.71,12.59-19.73,15.17-29.37,6.42-6.36-5.98-5.23-13.38,1.51-18.41-2.57-3.12-2.64-6.07-.09-9.15Zm-66.94-7.37c-.56-10.22,3.77-22.3,10.65-26.15,6.74-3.77,13.17-3.94,18.36,1.34,1.53-3.54,5.62-5.51,7.78-5.77,12.34-1.86,21.31,9.17,24.46,18.02,2.75,6.84,1.2,13.82-3.89,18.59,3.54,7.68-.29,14.46-5.48,18.51-6.77,5.64-15.42,7.76-22.15-.05.09.02-8.06,6.99-19.27-1.31-8.26-6.11-9.99-14.78-10.45-23.18Z"/>
    <g id="bubbleClear__noStroke">
      <path class="cls-6" d="m42.53,53.02c-3.08-3.65-6.35-9.52-7.23-12.89-3.52,9.13-11.62,15.93-21.6,17.72,10.3-.88,16.62-6.35,21.34-13.86,2.45,6.84,9.37,15.33,13.35,19.49l-5.86-10.46Z"/>
      <path class="cls-6" d="m367.6,36.71c.65-7.24,2.21-15.83,15.45-25.6-9.59,1.94-21.43-3.33-28.31-10.78,6.28,8.21,16.07,12.34,24.93,12.28-9.72,7.1-14.99,16.98-15.43,27.34l3.36-3.25Z"/>
    </g>
    <g id="bubbleClearer__noStroke">
      <path class="cls-6" d="m35.04,43.99c-4.72,7.51-11.04,12.98-21.34,13.86,8.89.02,15.31-3.57,20.98-10.94,2.98,7.31,9.99,15.93,14.51,20.55l-.81-3.98c-3.93-4.13-10.92-12.64-13.35-19.49Z"/>
      <path class="cls-6" d="m379.68,12.62c-8.87.06-18.65-4.07-24.93-12.28,4.76,7.51,13.19,12.46,22.46,13.27-9.03,5.47-15.69,17.69-15.88,29.18l2.92-2.83c.45-10.42,5.76-20.28,15.43-27.34Z"/>
    </g>
    <g id="bubbleClearest__noStroke">
      <path class="cls-6" d="m34.68,46.91c-5.67,7.38-12.09,10.97-20.98,10.94,7.68.85,14.56-1.91,20.42-8.41,2.78,7.14,8.91,15.91,15.89,22.04l-.82-4.02c-4.53-4.62-11.51-13.25-14.51-20.55Z"/>
      <path class="cls-6" d="m377.2,13.61c-9.27-.81-17.69-5.76-22.46-13.27,3.41,6.93,11.58,12.51,20.21,13.96-9.1,4.5-15.43,16.11-16.58,31.34l2.95-2.85c.23-11.49,6.87-23.71,15.88-29.18Z"/>
    </g>
    <g id="bubbleOverlapLine">
      <path class="cls-6" d="m42.53,53.02c-2.95-3.43-6.35-9.52-7.23-12.89-3.52,9.13-11.62,15.93-21.6,17.72"/>
      <path class="cls-6" d="m367.6,36.71c.67-7.23,2.21-15.84,15.45-25.6-9.59,1.94-21.43-3.33-28.31-10.78"/>
    </g>
  </g>
  <path class="cls-6" d="m420.07,168.34c-139.85-.97-279.71-1.22-419.57-.75v167.59h419.57v-166.84Z"/>
</svg>