<svg viewBox="0 0 412.61 324.26">
  <circle class="bubbleClear" cx="160.12" cy="192.32" r="11.47"/>
  <path class="bubbleClearer" d="m125.19,202.7c10.64,2.45,21.25-4.19,23.7-14.83,2.45-10.64-4.19-21.25-14.83-23.7-10.64-2.45-20.84,4.17-23.28,14.81s3.78,21.27,14.42,23.72Z"/>
  <path class="bubbleClearest" d="m50.19,153.96c-3.3,44.03,64.53,52.68,67.83,8.64,3.31-44.09-64.53-52.73-67.83-8.64Z"/>
  <path class="bubble" d="m.04,323.76h412.57c-49.96,0-54.95-65.56-17.09-86.92-39.7-3.71-43.53-60.72-5.48-71.94-49.36-15.66-38.52-102.38,11.47-102.89-18.28-4.87-25.45-19.05-23.89-35.15-4.4.34-9.74-.12-14.29-3.35-5.34,36.32-55.82,49.62-76.05,15.59.5,32.02-52.69,42.51-63.17,5.43-17.6,49.81-119.1,32.96-117.08-24.94-20.08,33.34-60.51,24.31-68.04,19.06,6.32,16.79-1.89,39.92-24.18,46.2,43.64-4.02,52.2,70.85,5.66,77.36,46.66-2.1,51.95,91.13,2.04,94.03,23.96,4.71,35.51,62.89-22.46,67.52Zm149.44-132.75c.42-5.44,5.59-9.5,9.21-5.4,4.66-3.33,11.25-2.18,11.81,5.93.03,5.62-4.29,9.09-11.79,8.69-6.83-.48-9.46-4.74-9.23-9.22Zm-31.1-22.48c4.23-4.33,13.63-4.98,20.3-1.18,5.5,3.38,6.62,8.59,3.01,13.31,3.05,2.5,3.96,5.9,3.62,10.29-1.29,12.54-20.41,14.23-29.64,5.03-6.07-6.27-4.6-13.61,2.37-18.32-2.42-3.24-2.35-6.19.34-9.14Zm-65.09-10.5c-.08-10.23,4.81-22.1,11.86-25.63,6.91-3.45,13.34-3.32,18.28,2.2,1.7-3.47,5.87-5.24,8.04-5.4,12.41-1.28,20.86,10.15,23.59,19.14,2.43,6.96.55,13.86-4.76,18.39,3.17,7.84-.96,14.43-6.34,18.24-7.02,5.32-15.76,7.03-22.12-1.08.09.03-8.37,6.6-19.19-2.21-7.97-6.49-9.29-15.23-9.36-23.65Z"/>
  <g class="bubbleClearest__noStroke">
    <path d="m40.97,48.19c-.2-3.3-.86-6.53-2-9.55-9-5.9-15.02-15.35-16.75-23.86-.96,12.36,7.83,25.42,18.74,33.42Z"/>
    <path d="m377.61,26.86h0c1.24-11.57,7.53-22.76,18.17-26.36-10.11-.11-20.66,11.21-24.68,26.12,2.25.37,4.48.39,6.5.24Z"/>
  </g>
  <g class="bubbleFoldLine">
    <path d="m118.04,177.67c1.91-1.17,2.89-1.5,4.68-1.84"/>
    <path d="m83.43,134.6c-.75,1.52-1.27,3.88-.92,5.66"/>
    <path d="m158.68,185.61c-1.04.9-1.55,1.89-1.79,3.18"/>
  </g>
  <g class="bubbleOverlapLine">
    <path d="m38.98,38.64c-9-5.9-15.02-15.35-16.75-23.86"/>
    <path d="m377.61,26.86c1.24-11.57,7.53-22.76,18.17-26.36"/>
  </g>
</svg>