<svg viewBox="0 0 575.6 654.15">
  <circle class="dullPastDarkClear" cx="352.72" cy="183.21" r="11.62"/>
  <circle class="dullPastDarkClearer" cx="354.35" cy="149.18" r="20.02"/>
  <path class="dullPastDarkClearest" d="m294.72,123.05c23.63,36.26,83.85,1.23,60.22-35.03-24.45-37.52-84.67-2.49-60.22,35.03Z"/>
  <g class="bubbleFoldLine">
    <path d="m354.79,136.94c1.93,1.19,2.67,1.92,3.8,3.39"/>
    <path d="m309.57,87.03c.33,1.68,1.37,3.9,2.74,5.12"/>
    <path d="m351.78,176.32c-1.12.83-1.71,1.79-2.05,3.08"/>
  </g>
  <path class="dullPastDark" d="m451.92,590.07c21.17-38.69,87.59-10.95,89.19,18.12,2.1-3.8,8.23-10.16,21.55-10.81-47.51-6.45-47.51-75.07-14.64-89.55-43.09-5.23-43.09-77.49-6.29-87-59.65-4.8-51.08-131.02,3.54-134.31-44.71-5.09-36.68-81-1.11-87.05-45.43-19.22-26.19-105.57,19.37-104.19-38.09-15.58-29.77-63.26-19.99-75.71-9.67-1.05-15.35-5.44-19.65-15.37,11.94,65.47-100.91,95.83-135.02,34.17-1.54,36.85-63.58,41.51-71.56,7.16-9.69,71.25-165.63,73.7-171.29-7.08-35.24,60.08-113.69,27.12-114.22-15.73-2.56,11.51-11.22,22.54-18.35,25.33,44.58-5.89,66.68,90.65,18.32,104.27,34.35-2.29,46.75,51.73,12.86,64.44,51.27-.86,56.6,104.52,8,108.8,41.95,4.03,38.3,70.45,0,73.26,60.96,15.99,38.55,146.38-18.56,142.2,26.94,10.46,18.18,60.83-12.68,59.66,5.22,1.6,15.34,9.62,18.6,16.92,1-26.09,50.64-54.05,84.07-22.14,3.68-53.11,105.48-64.58,121.31-9.07.73-40.15,79.56-48.91,86.13-.73,3.66-50.23,116.06-49.19,120.44,4.38ZM299.72,124.41c-6.36-8.18-9.72-20.74-6.21-27.91,3.44-7.03,8.7-10.88,16.06-9.47-.77-3.84,1.5-7.83,3.15-9.29,9.2-8.66,23.03-4.65,30.75.9,6.23,4.11,8.96,10.82,7.48,17.72,7.37,4.36,8.1,12.21,6.11,18.58-2.38,8.6-8.36,15.35-18.47,12.73.09-.03-2.68,10.46-16.8,10.02-10.4-.33-16.84-6.55-22.07-13.28Zm37.43,18.76c2.89-8.36,10.2-10.37,17.64-6.23,1.82-3.66,4.52-4.95,8.42-3.87,5.85,1.84,10.73,10.04,10.34,17.81-.54,6.51-4.74,9.91-10.66,8.8-.87,3.9-3.52,6.28-7.65,7.98-11.93,4.56-22.19-11.95-18.09-24.48Zm4.93,37.91c.83-5.46,6.37-9.17,9.71-4.76,4.96-3.01,11.53-1.35,11.48,6.88-.39,5.68-5.02,8.86-12.56,7.89-6.86-1-9.2-5.5-8.62-10.01Z"/>
  <g class="dullPastDarkClear__noStroke">
    <path d="m31.78,22.73c-.11-6.2.8-12.56,2.55-19.15C24.5,10.4,11.64,11.73.32,6.69c11.02,6.18,21.16,4.98,31.08.62-2.75,7.94-2.41,20.33-1.4,27.68l1.77-12.26Z"/>
    <path d="m543.52,19.58c5.22-8.39,16.95-15.33,27.19-15.22-13.4-.6-27.69,9.56-31.71,16.97"/>
    <path d="m541.11,608.19c.65,6.98-1.59,15.69-2.96,20.15,10.45-7.95,24.48-10.03,37.14-5.05-12.38-6.24-23.45-4.44-34.12.82,2.63-8.84,2.84-14.25,2.1-21.81l-2.16,5.88Z"/>
    <path d="m39.97,617.62c5.12,10.03,7.1,26.22.97,36.15,9.75-13.23,4.44-37.49-2.56-46.1"/>
  </g>
  <g class="dullPastDarkClearer__noStroke">
    <path d="m31.41,7.31C21.49,11.67,11.34,12.87.32,6.69c8.98,6.12,17.93,6.89,28.72,3.32-2.86,7.97-2.28,17.8-1.46,26.27l2.43-1.3c-1.02-7.35-1.35-19.74,1.4-27.68Z"/>
    <path d="m538.99,21.32c4.01-7.4,18.31-17.59,31.71-16.97-14.06-1.64-30.24,8.78-34.99,16.67"/>
    <path d="m541.17,624.11c10.67-5.26,21.74-7.06,34.12-.82-10.14-6.28-19.99-6.69-31.66-2.26,2.75-8.88,2.82-14.59,1.51-23.85l-1.88,5.12c.74,7.56.53,12.97-2.1,21.81Z"/>
    <path d="m38.38,607.68c7,8.64,12.27,32.85,2.56,46.1,11.91-13.78,6.8-40.48-.96-51.03"/>
  </g>
  <g class="dullPastDarkClearest__noStroke">
    <path d="m29.05,10.02C18.25,13.58,9.3,12.81.32,6.69c7.18,6.13,16.03,8.05,26.42,5.5-3.31,8.73-2.01,20.04-1.09,28.72l1.93-4.63c-.82-8.48-1.4-18.31,1.46-26.27Z"/>
    <path d="m535.72,21.03c4.76-7.88,20.88-18.3,34.99-16.67-13.73-3.29-30.87,7.47-37.99,15.74"/>
    <path d="m543.63,621.03c11.67-4.44,21.52-4.02,31.66,2.26-8.17-6.38-17.97-8.06-29.24-4.76,3.21-9.74,2.41-17.04.99-26.52l-1.89,5.17c1.31,9.26,1.24,14.97-1.51,23.85Z"/>
    <path d="m39.98,602.74c7.77,10.54,12.85,37.2.96,51.03,13.85-12.24,8.93-44.48,1.42-55.9"/>
  </g>
  <g class="bubbleOverlapLine">
    <path d="m31.78,22.73c-.11-6.2.84-12.56,2.55-19.15C24.5,10.4,11.64,11.73.32,6.69"/>
    <path d="m543.52,19.58c5.22-8.39,16.95-15.33,27.19-15.22"/>
    <path d="m541.11,608.19c.65,6.98-1.59,15.69-2.96,20.15,10.45-7.95,24.48-10.03,37.14-5.05"/>
    <path d="m39.97,617.62c5.12,10.03,7.1,26.22.97,36.15"/>
  </g>
</svg>