<svg viewBox="0 0 339.57 266.11">
  <circle class="bubbleClear" cx="105.98" cy="167.57" r="11.47"/>
  <path class="bubbleClearer" d="m91.79,150.39c8.68,6.63,21.08,4.97,27.71-3.71,6.63-8.68,4.97-21.08-3.71-27.71-8.68-6.63-20.7-4.82-27.32,3.86-6.63,8.68-5.35,20.93,3.32,27.56Z"/>
  <path class="bubbleClearest" d="m44.23,72.72c-23.5,37.39,32.44,76.72,55.94,39.34,24.28-38.63-31.66-77.97-55.94-39.34Z"/>
  <g class="bubbleFoldLine">
    <path d="m95.63,124.64c2.22-.27,3.25-.17,5.02.26"/>
    <path d="m82.66,71.13c-1.37.99-2.94,2.84-3.46,4.57"/>
    <path d="m104.14,160.95c-.98.96-1.44,1.98-1.6,3.28"/>
  </g>
  <path class="bubble" d="m0,265.61h339.57c-46.69-.3-55.16-91.28-16.77-106.52-40.03-7.54-30.57-83.68,5.66-85.23-18.28-4.87-25.45-21.05-23.89-37.15-4.4.34-9.74-.12-14.29-3.35,2.81,33.68-70.83,49.26-80.74,8.9-5.67,42.03-106.5,40.13-110.95-7.08-10.67,22.52-47.71,23.41-59.65,13.31,6.32,16.79-1.89,43.92-24.18,50.2,41.75,1.03,41.75,72.52,7.66,76.5C57.5,181.12,57.27,265.61,0,265.61Zm95.28-98.72c.09-5.45,5.01-9.82,8.86-5.94,4.45-3.6,11.1-2.85,12.15,5.21.37,5.61-3.74,9.33-11.25,9.38-6.85-.06-9.73-4.16-9.76-8.65Zm4.43-50.44c5.64-2.2,14.47,1.1,18.97,7.32,3.61,5.35,2.47,10.56-2.76,13.37,1.75,3.54,1.17,7.01-.96,10.87-6.36,10.89-24.47,4.52-29.07-7.67-2.94-8.22,1.44-14.29,9.73-15.7-.86-3.95.42-6.61,4.09-8.18Zm-54.64-38.69c4.71-9.09,14.58-17.3,22.46-17.12,7.72.18,13.35,3.3,15.13,10.49,3.12-2.27,7.64-1.9,9.64-1.02,11.57,4.67,13.7,18.72,11.91,27.94-1.11,7.29-5.99,12.51-12.8,14.03-.86,8.42-7.59,12.31-14.13,13.16-8.69,1.42-17.22-1.15-19.05-11.29-5.3.67-10.49,1.92-15.93-10.92-4.01-9.46-1.1-17.81,2.78-25.28Z"/>
  <g class="bubbleClear__noStroke">
    <path d="m38.94,48.49c-3.72-3-8.05-8.14-9.55-11.28-1.72,9.63-8.37,17.86-17.83,21.51,9.94-2.82,15.1-9.4,18.31-17.67,3.74,5.65,6.64,7.98,10.86,11.75l-1.79-4.32Z"/>
    <path d="m304.57,36.71c.65-7.24,2.21-15.83,15.45-25.6-9.59,1.94-21.43-3.33-28.31-10.78,6.28,8.21,16.07,12.34,24.93,12.28-9.72,7.1-14.99,16.98-15.43,27.34l3.36-3.25Z"/>
  </g>
  <g class="bubbleClearer__noStroke">
    <path d="m29.87,41.06c-3.2,8.27-8.36,14.85-18.31,17.67,8.73-1.67,14.35-6.42,18.51-14.74,3.62,5.48,6.82,8.16,12.21,12.58l-1.55-3.76c-4.22-3.78-7.18-6.16-10.86-11.75Z"/>
    <path d="m316.64,12.62c-8.87.06-18.65-4.07-24.93-12.28,4.76,7.51,13.19,12.46,22.46,13.27-9.03,5.47-15.69,17.69-15.88,29.18l2.92-2.83c.45-10.42,5.76-20.28,15.43-27.34Z"/>
  </g>
  <g class="bubbleClearest__noStroke">
    <path d="m30.07,43.99c-4.16,8.32-9.78,13.07-18.51,14.74,7.7-.63,13.93-4.65,18.45-12.15,3.98,6.27,8.28,9.29,13.84,13.78l-1.57-3.79c-5.39-4.42-8.56-7.09-12.21-12.58Z"/>
    <path d="m314.17,13.61c-9.27-.81-17.69-5.76-22.46-13.27,3.41,6.93,11.58,12.51,20.21,13.96-9.1,4.5-15.43,16.11-16.58,31.34l2.95-2.85c.23-11.49,6.87-23.71,15.88-29.18Z"/>
  </g>
  <g class="bubbleOverlapLine">
    <path d="m38.94,48.49c-3.54-2.8-8.05-8.14-9.55-11.28-1.72,9.63-8.37,17.86-17.83,21.51"/>
    <path d="m304.57,36.71c.67-7.23,2.21-15.84,15.45-25.6-9.59,1.94-21.43-3.33-28.31-10.78"/>
  </g>
</svg>