<svg viewBox="0 0 339.57 280.8">
  <circle class="bubbleClear" cx="105.98" cy="182.26" r="11.47"/>
  <path class="bubbleClearer" d="m91.79,165.08c8.68,6.63,21.08,4.97,27.71-3.71,6.63-8.68,4.97-21.08-3.71-27.71-8.68-6.63-20.7-4.82-27.32,3.86-6.63,8.68-5.35,20.93,3.32,27.56Z"/>
  <path class="bubbleClearest" d="m44.23,87.41c-23.5,37.39,32.44,76.72,55.94,39.34,24.28-38.63-31.66-77.97-55.94-39.34Z"/>
  <g class="bubbleFoldLine">
    <path d="m95.63,139.33c2.22-.27,3.25-.17,5.02.26"/>
    <path d="m82.66,85.83c-1.37.99-2.94,2.84-3.46,4.57"/>
    <path d="m104.14,175.64c-.98.96-1.44,1.98-1.6,3.28"/>
  </g>
  <path class="bubble" d="m0,280.3h339.57c-46.69-.3-57.16-91.28-18.77-106.52-44.2-2.51-44.2-94.06-2.74-98.61-17.7-7.71-17.5-27.91-15.49-36.77-4.4.34-9.74-.12-14.29-3.35-.63,38.82-69.57,47.52-78.74,10.9-3.04,43.63-106.5,51.13-110.95,3.92-10.67,22.52-47.71,23.41-59.65,13.31,6.32,16.79-1.89,43.92-24.18,50.2,41.75,1.03,41.75,72.52,7.66,76.5C57.5,195.82,57.27,280.3,0,280.3Zm95.28-98.72c.09-5.45,5.01-9.82,8.86-5.94,4.45-3.6,11.1-2.85,12.15,5.21.37,5.61-3.74,9.33-11.25,9.38-6.85-.06-9.73-4.16-9.76-8.65Zm4.43-50.44c5.64-2.2,14.47,1.1,18.97,7.32,3.61,5.35,2.47,10.56-2.76,13.37,1.75,3.54,1.17,7.01-.96,10.87-6.36,10.89-24.47,4.52-29.07-7.67-2.94-8.22,1.44-14.29,9.73-15.7-.86-3.95.42-6.61,4.09-8.18Zm-54.64-38.69c4.71-9.09,14.58-17.3,22.46-17.12,7.72.18,13.35,3.3,15.13,10.49,3.12-2.27,7.64-1.9,9.64-1.02,11.57,4.67,13.7,18.72,11.91,27.94-1.11,7.29-5.99,12.51-12.8,14.03-.86,8.42-7.59,12.31-14.13,13.16-8.69,1.42-17.22-1.15-19.05-11.29-5.3.67-10.49,1.92-15.93-10.92-4.01-9.46-1.1-17.81,2.78-25.28Z"/>
  <g class="bubbleClear__noStroke">
    <path d="m38.94,63.19c-3.72-3-8.05-8.14-9.55-11.28-1.72,9.63-8.37,17.86-17.83,21.51,9.94-2.82,15.1-9.4,18.31-17.67,3.74,5.65,6.64,7.98,10.86,11.75l-1.79-4.32Z"/>
    <path d="m302.57,38.41c2.01-6.99,5.15-15.13,19.99-22.23-9.78.1-20.42-7.3-25.77-15.91,4.62,9.25,13.45,15.15,22.17,16.76-10.89,5.14-17.92,13.86-20.3,23.95l3.91-2.56Z"/>
  </g>
  <g class="bubbleClearer__noStroke">
    <path d="m29.87,55.75c-3.2,8.27-8.36,14.85-18.31,17.67,8.73-1.67,14.35-6.42,18.51-14.74,3.62,5.48,6.82,8.16,12.21,12.58l-1.55-3.76c-4.22-3.78-7.18-6.16-10.86-11.75Z"/>
    <path d="m318.96,17.02c-8.72-1.61-17.55-7.51-22.17-16.76,3.26,8.27,10.61,14.72,19.56,17.26-9.9,3.67-18.74,14.42-21.09,25.67l3.4-2.23c2.4-10.15,9.47-18.84,20.3-23.95Z"/>
  </g>
  <g class="bubbleClearest__noStroke">
    <path d="m30.07,58.68c-4.16,8.32-9.78,13.07-18.51,14.74,7.7-.63,13.93-4.65,18.45-12.15,3.98,6.27,8.28,9.29,13.84,13.78l-1.57-3.79c-5.39-4.42-8.56-7.09-12.21-12.58Z"/>
    <path d="m316.35,17.52c-8.95-2.54-16.29-8.99-19.56-17.26,2.05,7.45,9.02,14.47,17.22,17.52-9.78,2.7-18.18,12.92-22.19,27.65l3.43-2.25c2.38-11.24,11.21-21.99,21.09-25.67Z"/>
  </g>
  <g class="bubbleOverlapLine">
    <path d="m38.94,63.19c-3.54-2.8-8.05-8.14-9.55-11.28-1.72,9.63-8.37,17.86-17.83,21.51"/>
    <path d="m302.57,38.41c2.02-6.97,5.16-15.14,19.99-22.23-9.78.1-20.42-7.3-25.77-15.91"/>
  </g>
</svg>