<svg viewBox="0 0 285.7 201.52">
  <circle class="dullPastMediumClear" cx="230.59" cy="148.99" r="9.16"/>
  <path class="dullPastMediumClearer" d="m234.91,135.4c6.74-5.52,7.72-15.46,2.19-22.2-5.52-6.74-15.46-7.72-22.2-2.19-6.74,5.52-7.53,15.19-2.01,21.93,5.52,6.74,15.28,7.99,22.01,2.47Z"/>
  <path class="dullPastMediumClearest" d="m180.81,67.79c-25.09,24.74,11.16,65.53,36.25,40.79,25.12-24.77-11.13-65.56-36.25-40.79Z"/>
  <g class="bubbleFoldLine">
    <path d="m215.61,127.7c.19-1.78.46-2.55,1.12-3.85"/>
    <path d="m210.95,73.59c-1.25.52-2.8,1.67-3.53,2.92"/>
    <path d="m228.75,143.82c-.73.82-1.03,1.66-1.08,2.7"/>
  </g>
  <path class="dullPastMedium__noStroke" d="m268.39,153.65c-14.78-.76-16.27-27.34-1.56-30.24-25.47-3.84-23.08-51.22.95-55.82-12.01-4.73-16.56-19.37-14.57-31.92-4.41,1.7-10.61.93-13.73-1.8,2.69,23.5-39.84,33.72-48.03,12.01-.73,26.97-61.27,33.66-67.7,1.25-3.21,22.77-42.87,21.7-43.74-2.71-8.97,19.07-44.49,16.67-50.03-4.83,2.04,10.08.6,18.78-10.49,21.68,16.7-2.69,20.2,24.95,5.17,28.57,27.73,1.8,24.3,53.63-1.42,54.57,20.77,8.53,13.51,54.93-18.86,56.61h281.31c-27.85,0-37.18-30.56-17.31-47.38Zm-71.51-39.01c-7.01-.49-13.17-4.04-12.73-12.26.04.06-8.5-.42-10.38-11.4-1.38-8.08,2.41-14.03,6.78-19.13,5.32-6.2,14.49-10.77,20.58-9.19,5.97,1.55,9.76,5.01,9.84,10.92,2.84-1.19,6.28-.07,7.67.97,8.13,5.74,7.21,17.05,4.14,23.88-2.19,5.46-6.94,8.62-12.51,8.56-2.21,6.38-8.15,8.17-13.38,7.64Zm33.43,40.75c-5.45.34-7.98-2.76-8.27-6.33-.24-4.34,3.43-8.1,6.72-5.24,3.34-3.12,8.68-2.9,9.97,3.45.62,4.44-2.44,7.64-8.41,8.11Zm-4.27-17.26c-6.92.78-10.84-3.74-10.41-10.43-3.22-.05-5.05-1.54-5.61-4.67-.68-4.78,3.5-11.03,9.16-13.4,4.81-1.82,8.66.01,9.88,4.59,3.07-.71,5.66.38,8.27,2.73,7.29,6.94-.97,19.83-11.28,21.17Z"/>
  <path class="dullPastMediumDark__noStroke" d="m68.21,55.13c-6.43,2.61-14.13,2.88-21,.87v145.02h21V55.13Z"/>
  <path class="dullPastDark__noStroke" d="m234.89,84.65c5.25.08,10.5.14,15.75.19,2.79-8.57,8.6-15.61,17.14-17.24-12.01-4.73-16.56-19.37-14.57-31.92-4.41,1.7-10.61.93-13.73-1.8.64,5.61-1.3,10.47-4.73,14.31.11,12.15.17,24.3.15,36.46Z"/>
  <path class="dullPastDarker__noStroke" d="m224.71,143.29c.04-1.71.08-3.4.11-5.08-6.17.15-9.61-4.22-9.21-10.51-3.22-.05-5.05-1.54-5.61-4.67-.68-4.78,3.5-11.03,9.16-13.4,2.43-.92,4.62-.91,6.34-.07.13-5.09.23-8.52.27-9.39-1.26-.05-2.52-.08-3.78-.12-2.42,4.46-6.75,7.01-11.74,6.95-2.21,6.38-8.15,8.17-13.38,7.64-7.01-.49-13.17-4.04-12.73-12.26.02.04-3.7-.16-6.77-3.47-42.92-.7-85.83-.29-128.77,1.29,1.57,33.6,2.24,67.19,2.1,100.83h172.99c-.03-6.28.35-26.45.79-47.13-1.51-1.19-2.3-2.94-2.45-4.83-.14-2.51,1.03-4.82,2.68-5.77Z"/>
  <g class="dullPastMediumDark__noStroke">
    <path d="m112.21,131.11c15.98-.11,31.95-.13,47.93-.02.07-8.74.11-13.11.21-21.85-16.13-.12-32.25-.11-48.38.03.11,8.74.16,13.11.24,21.85Z"/>
    <path d="m112.41,161.49c15.85-.08,31.7-.09,47.55-.02.03-9,.06-13.5.12-22.5-15.93-.09-31.87-.08-47.8.02.07,9,.1,13.49.13,22.49Z"/>
    <path d="m166,194.13c15.82.08,31.65.2,47.47.37-.03-9.81-.02-14.71.06-24.52-15.83-.26-31.67-.45-47.5-.58-.03,9.89-.04,14.84-.03,24.73Z"/>
    <path d="m112.46,194.11c15.82-.04,31.63-.05,47.45,0,0-9.9,0-14.85.02-24.74-15.83-.07-31.66-.05-47.49.01.03,9.9.03,14.84.02,24.74Z"/>
    <path d="m214.03,139.82c-15.11-.28-32.74-.61-47.83-.79-.08,8.99-.11,13.49-.15,22.48,15.85.15,31.7.36,47.55.65.07-8.37.2-13.8.43-22.34Z"/>
    <path d="m210.01,123.03c-.49-3.44,1.55-7.63,4.83-10.6.03-.65.05-1.3.08-1.99-2.13-.07-4.25-.11-6.38-.17-2.82,3.73-7.47,4.8-11.66,4.38-4.41-.31-8.47-1.83-10.78-4.95-6.51-.14-13.02-.28-19.54-.38-.13,8.74-.18,13.1-.27,21.84,14.22.19,33.64.59,47.85.94.06-1.6.11-3.09.16-4.51-2.4-.41-3.81-1.87-4.29-4.55Z"/>
    <path d="m60.71,110.42c14.92-.47,29.83-.83,44.76-1.07.42,28.27.62,56.53.61,84.8-14.64.1-29.29.22-43.93.35.02-28.04-.45-56.05-1.43-84.08Z"/>
  </g>
  <g class="dullPastDark__noStroke">
    <path d="m98.75,71.24c1.16.68,2.74,2.11,3.83,2.44,2.45.75,2.17,4.74-.05,5.31-1.2.31-2.34,1.59-3.5,2.24-11.41,6.4-30.13,6.71-41.73,1.24-1.35-.64-3.13-1.42-4.43-2.4-1.64-1.23-1.65-3.7-.06-4.69,1.21-.75,2.06-1.3,3.34-2.14,11.07-7.3,30.34-9.17,42.61-2.01Z"/>
    <path d="m54.75,84.26c-2.4.1-4.24,2.08-4.11,4.41.25,4.57.37,6.85.6,11.42,42.05-1.49,84.08-1.88,126.12-1.19-1.57-1.7-2.96-4.2-3.6-7.91-.5-2.9-.32-5.53.31-7.94-39.77-.67-79.53-.28-119.32,1.22Z"/>
  </g>
  <g class="dullPastDarker__noStroke">
    <circle cx="98.09" cy="150.38" r="2.88"/>
    <circle cx="190.47" cy="120.62" r="2.88"/>
    <circle cx="189.95" cy="150.56" r="2.88"/>
    <circle cx="189.76" cy="181.94" r="2.88"/>
    <circle cx="136.16" cy="120.13" r="2.88"/>
    <circle cx="136.18" cy="150.2" r="2.88"/>
    <circle cx="136.18" cy="181.71" r="2.88"/>
    <path d="m49.09,100.17c1.72-.07,2.58-.11,4.3-.17-.99-2.67-1.49-4.01-2.49-6.68-.72,2.74-1.08,4.11-1.8,6.86Z"/>
    <path d="m222.02,100.02c1.43.06,2.29.09,3.85.16-.66-2.49-1.02-3.86-1.62-6.14-.43,2.06-1.85,5.37-2.24,5.98Z"/>
    <path d="m224.96,88.76c-.09,3.26-.86,6.45-1.95,9.08,2.18.56,5.53-.73,5.7-4.52.09-2.01-1.62-4.21-3.75-4.56Z"/>
    <circle cx="50.89" cy="93.32" r="4.65"/>
  </g>
  <path class="bubbleBorderLine" d="m24.66,89.84c27.73,1.8,24.3,53.63-1.42,54.57,20.77,8.53,13.51,54.93-18.86,56.61h281.31c-27.85,0-37.18-30.56-17.31-47.38-14.78-.76-16.27-27.34-1.56-30.24-25.47-3.84-23.08-51.22.95-55.82-12.01-4.73-16.56-19.37-14.57-31.92-4.41,1.7-10.61.93-13.73-1.8,2.69,23.5-39.84,33.72-48.03,12.01-.73,26.97-61.27,33.66-67.7,1.25-3.21,22.77-42.87,21.7-43.74-2.71-8.97,19.07-44.49,16.67-50.03-4.83,2.04,10.08.6,18.78-10.49,21.68,16.7-2.69,20.2,24.95,5.17,28.57Zm197.37,59.23c-.24-4.34,3.43-8.1,6.72-5.24,3.34-3.12,8.68-2.9,9.97,3.45.62,4.44-2.44,7.64-8.41,8.11-5.45.34-7.98-2.76-8.27-6.33Zm-12.03-26.03c-.68-4.78,3.5-11.03,9.16-13.4,4.81-1.82,8.66.01,9.88,4.59,3.07-.71,5.66.38,8.27,2.73,7.29,6.94-.97,19.83-11.28,21.17-6.92.78-10.84-3.74-10.41-10.43-3.22-.05-5.05-1.54-5.61-4.67Zm-29.46-51.17c5.32-6.2,14.49-10.77,20.58-9.19,5.97,1.55,9.76,5.01,9.84,10.91,2.84-1.19,6.28-.07,7.67.97,8.13,5.74,7.21,17.05,4.14,23.88-2.19,5.46-6.94,8.62-12.51,8.56-2.21,6.38-8.15,8.17-13.38,7.64-7.01-.49-13.17-4.04-12.73-12.26.04.06-8.5-.42-10.38-11.4-1.38-8.08,2.41-14.03,6.78-19.13Z"/>
  <path class="dullPastMediumClear__noStroke" d="m29.98,39.59c-1.39-4.82-2.03-9.47-1.42-13.07-7.29,7.24-17.97,10.29-28.3,7.72,10.25,3.58,18.65,1.04,26.39-4.13-.2,7.12,2.43,15.45,6.03,24.37l-2.7-14.89Z"/>
  <path class="dullPastMediumClearer__noStroke" d="m26.64,30.11c-7.74,5.17-16.15,7.71-26.39,4.13,8.51,3.84,16.27,3.24,24.87-1.4-.19,6.89,3.17,17.21,6.08,24.93l1.47-3.28c-3.6-8.89-6.25-17.35-6.03-24.37Z"/>
  <path class="dullPastMediumClearest__noStroke" d="m25.13,32.83c-8.6,4.64-16.36,5.24-24.87,1.4,7,4.11,14.98,4.71,23.38.99-.36,7.79,3.83,18.92,6.27,25.84l1.3-3.31c-2.9-7.76-6.26-18.01-6.08-24.93Z"/>
  <path class="dullPastDarkClear__noStroke" d="m253.21,35.67c1.35-6.77,4.54-14.45,18.02-22.34-9.25.86-19.9-5.31-25.64-13.04,5.1,8.39,13.92,13.28,22.3,14.12-9.57,4.99-17.17,16.03-18.63,25.76l3.95-4.5Z"/>
  <path class="dullPastDarkClearer__noStroke" d="m267.9,14.42c-8.38-.84-17.2-5.73-22.3-14.12,3.74,7.57,11.19,13.09,19.86,14.8-9.08,4.25-17.46,14.85-18.79,25.68l2.59-.6c1.46-9.73,9.04-20.77,18.63-25.76Z"/>
  <path class="dullPastDarkClearest__noStroke" d="m265.46,15.1c-8.67-1.71-16.12-7.23-19.86-14.8,2.52,6.89,9.67,12.99,17.67,15.23-9.05,3.33-17.04,13.38-19.68,27.64l3.07-2.39c1.33-10.82,9.73-21.42,18.79-25.68Z"/>
  <g class="bubbleOverlapLine">
    <path d="m29.98,39.59c-1.35-4.55-2.03-9.47-1.42-13.07-7.29,7.24-17.97,10.29-28.3,7.72"/>
    <path d="m253.21,35.67c1.36-6.76,4.54-14.47,18.02-22.34-9.25.86-19.9-5.31-25.64-13.04"/>
  </g>
</svg>