<svg viewBox="0 0 289.21 184.94">
  <circle class="bubbleClear" cx="221.29" cy="145.05" r="8.72"/>
  <path class="bubbleClearer" d="m217.05,131.72c6.16,5.56,15.66,5.07,21.22-1.09s5.07-15.66-1.09-21.22c-6.16-5.56-15.38-4.93-20.94,1.23-5.56,6.16-5.35,15.52.81,21.08Z"/>
  <path class="bubbleClearest" d="m177.98,77.17c-12.69,31.07,34.33,53.19,47.03,22.12,12.71-31.11-34.32-53.23-47.03-22.12Z"/>
  <g class="bubbleFoldLine">
    <path d="m221.55,112.45c1.7-.07,2.47.07,3.79.51"/>
    <path d="m206.55,70.96c-.9.92-1.83,2.51-1.99,3.88"/>
    <path d="m220.89,139.84c-.87.58-1.36,1.27-1.67,2.22"/>
  </g>
  <path class="bubble" d="m289.21,184.44c-26.53,0-42.28-41.64-17.97-55.92-28.69-4.76-23.65-53.99.9-58.16-11.44-4.51-15.66-19.07-13.76-31.02-4.2,1.62-10.1.88-13.08-1.71,2.36,23.44-42.83,36.75-52.85,11.06.09,23.27-44.64,29.23-49.21,3.62-3.75,25.97-56.33,21.78-56.93-5.02-13.27,26.78-52.37,15.88-57.64-4.6,1.95,9.6-.96,22.96-11.52,25.71,27.85,1.79,32.98,56.63,5.11,62.12,22.53,9.12,12.87,52.32-17.96,53.92h284.92Zm-75.8-41.45c.86-4.05,5.16-6.6,7.48-3.15,3.84-2.04,8.7-.52,8.31,5.65-.54,4.24-4.14,6.42-9.75,5.37-5.1-1.04-6.65-4.52-6.03-7.87Zm11.74-36.49c4.41-1.32,10.89,1.73,13.92,6.72,2.4,4.27,1.22,8.15-2.92,9.95,1.1,2.79.45,5.38-1.4,8.17-5.5,7.85-18.82,1.91-21.54-7.61-1.72-6.41,1.98-10.74,8.34-11.29-.41-3.04.73-4.98,3.6-5.95Zm-45.88-25.67c2.33-7.42,8.65-14.86,14.57-15.75,5.8-.88,10.43.72,12.7,5.87,2.04-2.11,5.47-2.42,7.08-2.02,9.27,1.98,12.7,12.22,12.57,19.36.13,5.6-2.85,10.15-7.74,12.18.46,6.41-4.07,10.21-8.86,11.7-6.32,2.2-13.04,1.39-15.74-5.96.06.04-7.6,2.81-13.36-6.09-4.24-6.56-3.15-13.19-1.23-19.29Z"/>
  <g class="bubbleClear__noStroke">
    <path d="m28.67,42.69c-1.42-4.56-2.14-11.25-1.63-14.69-6.8,7.03-16.91,10.15-26.8,7.91,9.83,3.2,17.78.62,25.05-4.45-.05,6.78,2.64,16.94,6.25,25.35l-2.86-14.12Z"/>
    <path d="m258.39,39.35c1.42-7.13,4.45-17.01,18.66-25.32-9.74.91-20.95-5.59-27-13.73,5.37,8.83,14.66,13.98,23.48,14.87-10.42,6.02-17.29,16.8-18.83,27.05l3.69-2.87Z"/>
  </g>
  <g class="bubbleClearer__noStroke">
    <path d="m25.29,31.46c-7.27,5.08-15.22,7.66-25.05,4.45,8.18,3.48,15.56,2.76,23.66-1.83-.05,6.57,3.38,18.59,6.3,25.88l1.33-3.16c-3.6-8.39-6.31-18.66-6.25-25.35Z"/>
    <path d="m273.53,15.17c-8.82-.88-18.11-6.03-23.48-14.87,3.94,7.97,11.79,13.79,20.92,15.59-9.56,4.48-18.06,17.43-19.47,28.83l3.21-2.5c1.56-10.31,8.46-21.07,18.83-27.05Z"/>
  </g>
  <g class="bubbleClearest__noStroke">
    <path d="m23.9,34.09c-8.1,4.58-15.48,5.31-23.66,1.83,6.74,3.78,14.35,4.18,22.29.48-.19,7.43,4.04,20.21,6.5,26.75l1.17-3.18c-2.92-7.33-6.33-19.3-6.3-25.88Z"/>
    <path d="m270.96,15.88c-9.13-1.8-16.98-7.61-20.92-15.59,2.66,7.26,10.18,13.68,18.61,16.04-9.53,3.5-17.62,15.89-20.4,30.9l3.24-2.52c1.45-11.4,9.92-24.35,19.47-28.83Z"/>
  </g>
  <g class="bubbleOverlapLine">
    <path d="m28.67,42.69c-1.38-4.3-2.14-11.25-1.63-14.69-6.8,7.03-16.91,10.15-26.8,7.91"/>
    <path d="m258.39,39.35c1.44-7.12,4.46-17.03,18.66-25.32-9.74.91-20.95-5.59-27-13.73"/>
  </g>
</svg>