<svg viewBox="0 0 228.08 226.88">
  <path class="bubble" d="m107.07,42.08c-13.37,25.65-53.39,22.31-65.92,3.21,5.06,13.43-2.27,30.29-18.7,34.7,35.69,4.43,38.05,85.44-.17,89.17C45.56,177.63,42.84,226.38,0,226.38h228.06c-44.64-2.5-47.9-86.12-13.19-97.72-29.26-3.29-24.07-59.14,1.17-60.94-14.43-2.29-18.87-15.35-18.58-28.45-6.18,2.39-14.86,1.3-19.23-2.52.38,29.31-63,35.42-71.15,5.32Z"/>
  <g class="bubbleClear__noStroke">
    <path d="m41.15,45.29c-2.46-4.09-4.76-10.41-5.08-13.88-4.93,8.45-14.01,13.88-24.14,14.06,10.31.77,17.42-3.62,23.27-10.28,1.57,6.6,6.59,15.82,12.1,23.14l-6.14-13.04Z"/>
    <path d="m197.45,39.28c.48-6.7,3.31-17.05,17.44-25.47-9.73.99-21-5.41-27.11-13.5,5.44,8.79,14.78,13.86,23.61,14.67-10.37,6.11-16.83,17.44-17.6,27.21l3.66-2.9Z"/>
  </g>
  <g class="bubbleClearer__noStroke">
    <path d="m35.19,35.18c-5.85,6.66-12.96,11.06-23.27,10.28,8.77,1.44,15.77-1.02,22.54-7.4,1.51,6.39,7.71,17.25,12.28,23.64l.54-3.38c-5.5-7.3-10.57-16.63-12.1-23.14Z"/>
    <path d="m211.39,14.97c-8.83-.81-18.16-5.88-23.61-14.67,4,7.94,11.9,13.69,21.05,15.41-9.52,4.56-17.8,17.93-18.22,29l3.18-2.53c.74-9.76,7.28-21.14,17.6-27.21Z"/>
  </g>
  <g class="bubbleClearest__noStroke">
    <path d="m34.47,38.07c-6.77,6.38-13.77,8.84-22.54,7.4,7.45,2.06,14.94.65,21.76-4.83,1.58,7.26,8.73,18.67,12.68,24.43l.38-3.36c-4.58-6.42-10.74-17.23-12.28-23.64Z"/>
    <path d="m208.83,15.71c-9.14-1.72-17.04-7.47-21.05-15.41,2.72,7.23,10.3,13.59,18.75,15.88-9.5,3.58-17.83,16.05-19.14,31.08l3.21-2.55c.42-11.05,8.72-24.44,18.22-29Z"/>
  </g>
  <g class="bubbleOverlapLine">
    <path d="m41.15,45.29c-2.36-3.85-4.76-10.41-5.08-13.88-4.93,8.45-14.01,13.88-24.14,14.06"/>
    <path d="m197.45,39.28c.47-6.7,3.31-17.07,17.44-25.47-9.73.99-21-5.41-27.11-13.5"/>
  </g>
</svg>