<svg viewBox="0 0 289.49 387.13">
  <circle class="dullPastMediumDarkClear" cx="150.45" cy="139.19" r="12.64"/>
  <path class="dullPastMediumDarkClearer" d="m164.83,108.47c-17.95,11.35,5.1,55.54,26.81,41.8,26.75-16.92-3.73-56.4-26.81-41.8Z"/>
  <path class="dullPastMediumDarkClearest" d="m185.72,104.48c31.88,40.29,85.01-4.51,56.53-42.01-33.66-43.15-88.04,2.18-56.53,42.01Z"/>
  <g class="bubbleFoldLine">
    <path d="m165.46,129.27c.96-2.27,1.63-3.19,3.02-4.65"/>
    <path d="m227.7,60.85c-1.67.82-3.71,2.54-4.6,4.33"/>
    <path d="m142.88,139.38c.76,1.31,1.73,2.07,3.08,2.59"/>
  </g>
  <path class="dullPastDark__noStroke" d="m256.83,346.59H80.39V52.27C45.86,58.14,1.13,43.12.5,14.14l.18,372.5h288.76c-24.89-2.31-33.98-22.24-32.62-40.05Z"/>
  <path class="dullPastMediumDark__noStroke" d="m258.82,363.43c-6.07-18.11,1.34-40.77,15.96-44.89.02-.15.04-.29.06-.43-45.89-5.62-46.55-99.08-3.61-108.09-45.84-5.85-41.24-99.46,6.22-104.24-34.55-16.82-26.65-59.59-9.96-71.65-10,1.55-33.93-3.96-39-25-2,42.06-94.16,56.78-109.74,14.56-5.82,22.25-32.87,31.22-59.64,29.66-9.42,101.35-2.25,286.08,15.06,306.89,12.5,15.01,153.67,17.36,184.63,3.19ZM185.64,61.12c6.79-9,19.02-16.1,27.55-14.46,8.36,1.61,13.89,6.05,14.51,14.18,3.81-1.89,8.65-.65,10.66.67,11.71,7.2,11.43,22.87,7.79,32.55-2.54,7.71-8.82,12.49-16.49,12.89-2.49,8.98-10.52,11.97-17.78,11.69-9.71-.06-18.5-4.42-18.62-15.78.06.08-11.75.16-15.3-14.8-2.61-11.02,2.09-19.55,7.67-26.95Zm-8.32,45.66c7.09-.5,11.44,3.45,11.24,9.99,4.34.28,7.34,2.75,9.85,6.89,6.89,12.07-9.15,25.85-23.32,23.53-9.47-1.72-12.85-9.24-9.64-17.93-4.24-1.35-6.08-4.04-5.56-8.41,1-6.6,9.01-13.21,17.43-14.08Zm-25.61,21.01c6.09,1.11,8.98,6.5,7.02,14.54-1.9,7.3-7.06,9.28-11.87,8.12-5.8-1.56-9.15-7.99-3.98-11.07-2.65-5.72-.07-12.63,8.83-11.58Z"/>
  <g class="dullPastDarker__noStroke">
    <path d="m263.65,372.91c-2.1-2.9-3.7-6.11-4.83-9.48-30.96,14.17-172.13,11.82-184.63-3.19v24.05h189.49l-.03-11.38Z"/>
    <path d="m255.54,116.47c-.51-8.47-1.89-17.1-4.16-26.08h-1.55v33.16c2.02-3.06,3.83-5.18,5.71-7.08Z"/>
  </g>
  <g class="dullPastDark__noStroke">
    <path d="m57.57,264.67c61.27,5.25,121.95,6.19,182.24,2.85-.09-1.9-.11-3.81-.08-5.71-60.48,3.69-121.37,2.63-182.4-3.17-2.25-.29-2.6,5.66.24,6.04Z"/>
    <path d="m258.57,88.47c-3.33-.39-7.83.07-7.35,1.31,2.37,9.2,3.8,18.04,4.32,26.7,2.98-3.01,6.37-5.51,10.15-7.35-.58-4.58-1.4-9.25-2.47-14.04-1.82-2.09-3.36-4.31-4.65-6.62Z"/>
  </g>
  <path class="bubbleBorderLine" d="m.68,386.63h288.76c-43.99-4.09-38.62-63.19-13.45-68.38-47.03-4.18-48.05-99.14-4.76-108.23-45.84-5.85-41.24-99.46,6.22-104.24-34.55-16.82-26.65-59.59-9.96-71.65-10,1.55-33.93-3.96-39-25-2,42.06-94.16,56.78-109.74,14.56C106.58,70.26,1.46,58.67.5,14.14l.18,372.5ZM185.64,61.12c6.79-9,19.02-16.1,27.55-14.46,8.36,1.61,13.89,6.05,14.51,14.18,3.81-1.89,8.65-.65,10.66.67,11.71,7.2,11.43,22.87,7.79,32.55-2.54,7.71-8.82,12.49-16.49,12.89-2.49,8.98-10.52,11.97-17.78,11.69-9.71-.06-18.5-4.42-18.62-15.78.06.08-11.75.16-15.3-14.8-2.61-11.02,2.09-19.55,7.67-26.95Zm-10.55,86.08c-9.47-1.72-12.85-9.24-9.64-17.93-4.24-1.35-6.08-4.04-5.56-8.41,1-6.6,9.01-13.21,17.43-14.08,7.09-.5,11.44,3.45,11.24,9.99,4.34.28,7.34,2.75,9.85,6.89,6.89,12.07-9.15,25.85-23.32,23.53Zm-28.23,3.25c-5.8-1.56-9.15-7.99-3.98-11.07-2.65-5.72-.07-12.63,8.83-11.58,6.09,1.11,8.98,6.5,7.02,14.54-1.9,7.3-7.06,9.28-11.87,8.12Z"/>
  <path class="dullPastMediumDarkClear__noStroke" d="m267.5,34.14c4.61-3.56,13.9-6.76,17.64-7.78-10.21-3.8-19.19-15.17-21.32-26.26,1.12,11.46,8.59,20.88,17.01,26.02-7.37,2.08-15.08,6.37-20.06,10.25l6.73-2.23Z"/>
  <path class="dullPastMediumDarkClearer__noStroke" d="m280.83,26.12c-8.43-5.15-15.89-14.57-17.01-26.02.1,9.9,5.47,19.45,13.76,25.67-7.45,2.01-13.67,5.41-19.59,10.44l2.78.17c4.97-3.88,12.69-8.16,20.06-10.25Z"/>
  <path class="dullPastMediumDarkClearest__noStroke" d="m277.58,25.76c-8.29-6.21-13.66-15.76-13.76-25.67-.84,8.56,3.61,18.64,10.93,25.08-8.25,2.08-15.21,6.78-21.22,11.99l4.46-.97c5.91-5.03,12.14-8.42,19.59-10.44Z"/>
  <path class="bubbleOverlapLine" d="m267.5,34.14c4.61-3.56,13.9-6.76,17.64-7.78-10.21-3.8-19.19-15.17-21.32-26.26"/>
</svg>