<svg viewBox="0 0 427.57 236.45">
  <circle class="dullPastMediumClear" cx="251.79" cy="147.17" r="11.47"/>
  <path class="dullPastMediumClearer" d="m210.3,136.77c4.97,9.72,16.88,13.58,26.6,8.61,9.72-4.97,13.58-16.88,8.61-26.6-4.97-9.72-16.59-13.28-26.31-8.31-9.72,4.97-13.86,16.57-8.89,26.3Z"/>
  <path class="dullPastMediumClearest" d="m185.38,55.02c-36.25,25.21-.17,83.3,36.08,58.09,36.3-25.24.22-83.33-36.08-58.09Z"/>
  <g class="bubbleFoldLine">
    <path d="m226.04,115.9c2.12.71,3,1.25,4.42,2.4"/>
    <path d="m220.98,68.65c-1.65.37-3.81,1.46-4.97,2.85"/>
    <path d="m251.32,140.32c-1.16.75-1.8,1.65-2.22,2.9"/>
  </g>
  <path class="dullPastDarkest__noStroke" d="m0,235.95h427.57c-47.56,0-48.2-60.98-22.8-69.93-32.29,1.18-34.18-52.94-9.23-58.02-27.99-10.94-29.14-39.33-22.17-58.84-22.29,22.96-79.68,4.85-94.68,12.51-29.18,14.88-15.15,61.74-11.23,87.48l-17.81,16.26C185.45,127.69,122.92,88.26,57.13,53.35c-1.87,8.54-7.42,16.97-19.15,22.53,35.14,4.3,31.03,67.59-.89,68.45,36.98,20.03,19.57,91.63-37.09,91.63Z"/>
  <path class="dullPastMediumDark__noStroke" d="m277.13,219.68c24.81,1.88,49.62,3.8,74.43,5.75-.42-50.24.11-100.44,1.64-150.66-25.05-2.29-50.12-4.47-75.19-6.52-.75,50.48-1.03,100.95-.88,151.43Z"/>
  <path class="dullPastDark__noStroke" d="m362.37,235.95c-.7-57.51-.05-114.99,2.04-172.48-48.03-1.23-96.06-1.87-144.1-1.92.83,2.08,1.09,4.44.66,7.1,3.76-.87,7.77,1.25,9.27,2.83,8.82,8.82,5.28,22.59.02,30.38-3.87,6.27-10.41,9.17-17.27,7.91-4.08,7.41-11.81,8.35-18.15,6.58-8.56-2.1-15.4-7.8-13.11-17.85.03.09-10.41-2.33-10.39-16.28.01-9.28,4.87-15.51,10.59-20.58-38.44.21-76.88.79-115.32,1.75,2.05,57.51,2.69,115.03,2,172.57h293.75Zm-90.16-162.61c26.43.33,52.85.79,79.27,1.39-1.49,49.65-2.02,99.3-1.64,148.97-26.11-.25-52.23-.46-78.35-.61-.16-49.92.07-99.83.71-149.75Zm-20.9,66.98c5.08-2.64,11.45-.57,10.86,7.54-.76,5.57-5.53,8.4-12.9,6.94-6.69-1.43-8.7-6.03-7.83-10.43,1.18-5.32,6.88-8.61,9.88-4.05Zm-40.82-14.45c.9-8.69,7.47-12.27,15.55-9.97.93-3.93,3.23-5.78,7.22-5.62,6.04.45,12.58,7.23,13.96,14.79.95,6.38-2.32,10.59-8.26,10.87.05,3.95-1.97,6.83-5.55,9.39-10.44,7.07-24.03-6.48-22.91-19.46Z"/>
  <g class="dullPastDarker__noStroke">
    <path d="m73.02,76.52c3.19-.76,4.79-1.14,7.99-1.9,26.99-.59,53.99-1.03,80.98-1.34-1.34.7-2.01,1.05-3.35,1.75-28.54.33-57.08.83-85.62,1.49Z"/>
    <path d="m74.35,131.58c3.16-1.66,4.74-2.49,7.9-4.14,26.74-.46,53.48-.82,80.23-1.06-1.33,1.61-1.99,2.42-3.32,4.04-28.27.27-56.55.66-84.82,1.17Z"/>
    <path d="m74.81,187.79c3.18-2.55,4.76-3.83,7.94-6.39,26.64-.34,53.29-.6,79.93-.79-1.33,2.53-2,3.79-3.33,6.32-28.18.2-56.36.49-84.55.86Z"/>
    <path d="m257.26,180.57c.92,2.53,1.38,3.79,2.3,6.32-28.18-.1-56.35-.11-84.53-.03.92-2.53,1.38-3.79,2.3-6.32,26.64-.07,53.28-.06,79.92.03Z"/>
    <path d="m271.51,224.81c0-.69,0-1.03,0-1.72,26.12.16,52.23.36,78.35.61.68.69,1.03,1.04,1.71,1.73-26.68-.26-53.37-.46-80.05-.62Z"/>
    <path d="m205.75,27.8c-7.21,37.57-80,33.89-82.47-4.6-14.69,28.43-57.67,22.94-69.53,6.02,3.85,7.14,6.06,18.49,1.94,28.87,3.26,1.57,6.61,3.19,10.93,5.29,38.44-.96,76.88-1.54,115.32-1.75.61-.54,1.23-1.07,1.86-1.59,7.89-6.52,20.18-10.21,27.37-6.96,4.48,2.03,7.7,4.82,9.16,8.47,48.03.05,96.07.69,144.1,1.92,2.28-1.11,4.24-2.05,6.07-2.94,1.44-9.27,4.94-17.81,9.09-23.61-5.15-1.51-10.15-4.1-13.44-8.34-8.21,30.39-55.56,29.22-62.97.8-6.81,40.35-91.71,38.19-97.42-1.59Z"/>
    <path d="m232.88,74.83c9.09.02,18.19.06,27.29.12-.93-.7-1.39-1.04-2.32-1.74-8.72-.05-17.44-.06-26.15-.09.44.55.83,1.12,1.19,1.71Z"/>
    <path d="m210.47,126.22c-11.09,0-22.18.01-33.27.05-.92,1.61-1.38,2.42-2.3,4.03,11.92-.05,23.84-.06,35.75-.06-.2-1.33-.27-2.67-.18-4.02Z"/>
    <path d="m246.93,130.31c4.26.02,8.53.01,12.79.03-.92-1.61-1.38-2.42-2.29-4.03-3.36-.02-6.72-.01-10.08-.03.1,1.48-.05,2.83-.42,4.02Z"/>
  </g>
  <g class="dullPastDarkest__noStroke">
    <path d="m351.48,74.73c.69.02,1.03.03,1.71.04-1.53,50.21-2.06,100.42-1.64,150.66-.68-.69-1.03-1.04-1.71-1.73-.39-49.67.14-99.32,1.64-148.97Z"/>
    <path d="m82.75,181.4c-3.17,2.55-4.76,3.83-7.94,6.39,3.18-.05,4.77-.07,7.94-.11,0-2.51,0-3.76,0-6.27Z"/>
    <path d="m82.26,127.43c-3.16,1.66-4.74,2.49-7.9,4.14,3.19-.06,4.78-.09,7.97-.15-.02-1.6-.04-2.4-.06-3.99Z"/>
    <path d="m177.2,126.27c0,1.61.01,2.41.02,4.01-.93,0-1.39,0-2.31.01.92-1.61,1.38-2.42,2.3-4.03Z"/>
    <path d="m257.43,126.31c0,1.61-.01,2.41-.02,4.01.93,0,1.39,0,2.31.01-.92-1.61-1.38-2.42-2.29-4.03Z"/>
    <path d="m177.34,180.54c-.92,2.53-1.38,3.79-2.3,6.32.92,0,1.38,0,2.31,0,0-2.52,0-3.78,0-6.31Z"/>
    <path d="m257.26,180.57c0,2.52,0,3.78,0,6.31.92,0,1.38,0,2.31.01-.92-2.53-1.38-3.79-2.3-6.32Z"/>
  </g>
  <g class="dullPastMedium__noStroke">
    <path d="m74.05,115.3c28.33-.55,56.66-.98,85-1.26-.12-13-.25-26-.41-39.01-28.54.33-57.08.83-85.62,1.49.39,12.93.74,25.85,1.03,38.78Z"/>
    <path d="m74.77,171.51c28.19-.41,56.38-.73,84.57-.95-.04-13.38-.09-26.77-.17-40.15-28.27.27-56.55.66-84.82,1.17.19,13.31.33,26.62.42,39.93Z"/>
    <path d="m259.65,231.06c-28.23-.06-56.45-.07-84.68-.02.05-14.73.07-29.46.07-44.19,28.18-.08,56.35-.07,84.53.03,0,14.73.02,29.45.08,44.18Z"/>
    <path d="m74.55,231.72c28.24-.26,56.47-.47,84.71-.62.07-14.72.1-29.44.1-44.17-28.18.2-56.36.49-84.55.86,0,14.64-.09,29.29-.26,43.93Z"/>
    <path d="m188.54,113.89c-5.23-2.98-8.48-8.01-6.8-15.39.02.05-4.02-.87-7.07-4.94.05,6.79.11,13.57.15,20.36,4.57-.02,9.15-.01,13.72-.03Z"/>
    <path d="m230.27,101.86c-3.87,6.27-10.41,9.17-17.27,7.91-.93,1.69-2.06,3.02-3.3,4.08,5.69,0,11.37,0,17.06.01,1.19-2.52,3.29-3.72,6.51-3.59,2.59.19,5.26,1.55,7.59,3.63,6.33.02,12.65.02,18.98.06.1-13.01.21-26.01.34-39.02-9.1-.06-18.19-.09-27.29-.12,5.31,8.67,2.02,20.18-2.61,27.04Z"/>
    <path d="m238.96,135.93c.05,3.95-1.97,6.83-5.55,9.39-9.26,6.28-21-3.69-22.75-15.09-11.92,0-23.84.01-35.75.06.05,13.39.09,26.78.12,40.17,28.19-.09,56.37-.07,84.55.03.01-5.86.04-11.72.06-17.57-2.23,2.02-5.8,2.77-10.37,1.87-6.69-1.43-8.7-6.03-7.83-10.43,1.18-5.32,6.88-8.61,9.88-4.05,2.88-1.49,6.17-1.47,8.37.29.01-3.42.02-6.85.04-10.27-4.26-.02-8.53-.02-12.79-.03-1.04,3.37-3.87,5.44-7.97,5.63Z"/>
  </g>
  <g class="dullPastMediumDark__noStroke">
    <path d="m158.64,75.03c1.34-.7,2.01-1.05,3.35-1.75.15,12.81.28,25.63.39,38.44-1.33.93-2,1.39-3.33,2.32-.12-13-.25-26-.41-39.01Z"/>
    <path d="m159.17,130.41c1.33-1.62,1.99-2.42,3.32-4.04.08,13.39.14,26.77.18,40.16-1.33,1.61-1.99,2.42-3.32,4.03-.04-13.38-.09-26.77-.17-40.15Z"/>
    <path d="m159.36,186.93c1.33-2.53,2-3.79,3.33-6.32.01,14.92,0,29.83-.06,44.75-1.34,2.3-2.01,3.45-3.36,5.75.07-14.72.1-29.44.1-44.17Z"/>
  </g>
  <path class="bubbleBorderLine" d="m395.55,108c-34.77-13.59-28.12-54.09-15.96-71.07-5.15-1.51-10.15-4.1-13.44-8.34-8.21,30.39-55.56,29.22-62.97.8-6.81,40.35-91.71,38.19-97.42-1.59-7.21,37.57-80,33.89-82.47-4.6-14.69,28.43-57.67,22.94-69.53,6.02,6.38,11.85,8.28,35.27-15.77,46.66,35.14,4.3,31.03,67.59-.89,68.45C74.07,164.35,56.66,235.95,0,235.95h427.57c-47.56,0-48.2-60.98-22.8-69.93-32.29,1.18-34.18-52.94-9.23-58.02Zm-154.11,36.36c1.18-5.32,6.88-8.61,9.88-4.05,5.08-2.64,11.45-.57,10.86,7.54-.76,5.57-5.53,8.4-12.9,6.94-6.69-1.43-8.7-6.03-7.83-10.43Zm-8.18-34.09c6.04.45,12.58,7.23,13.96,14.79.95,6.38-2.32,10.59-8.26,10.87.05,3.95-1.97,6.83-5.55,9.39-10.44,7.07-24.03-6.48-22.91-19.46.9-8.69,7.47-12.27,15.55-9.97.93-3.93,3.23-5.78,7.22-5.62Zm-49.46-50.24c7.89-6.52,20.18-10.21,27.37-6.96,7.04,3.18,10.99,8.26,9.82,15.57,3.76-.87,7.77,1.25,9.27,2.83,8.82,8.82,5.28,22.59.02,30.38-3.87,6.27-10.41,9.17-17.27,7.91-4.08,7.41-11.81,8.35-18.15,6.58-8.56-2.1-15.4-7.8-13.11-17.85.03.09-10.41-2.33-10.39-16.28.01-10.28,5.96-16.82,12.45-22.18Z"/>
  <g class="dullPastDarkerClear__noStroke">
    <path d="m53.75,29.22c-2.81-3.86-4.24-7.5-4.87-10.93-4.16,8.86-12.72,15.07-22.8,16.15,10.33-.14,17.03-5.16,22.26-12.31,1.92,6.44,11.57,18.86,17.27,24.01l-11.86-16.92Z"/>
    <path d="m379.58,36.93c4.86-5.41,11.24-11.36,27.69-11.27-8.85-4.18-15.18-15.49-16.23-25.57.12,10.34,5.49,19.5,12.63,24.76-12.04-.13-22.17,4.64-28.72,12.68l4.63-.59Z"/>
  </g>
  <g class="dullPastDarkerClearer__noStroke">
    <path d="m48.34,22.13c-5.24,7.15-11.93,12.17-22.26,12.31,8.87.65,15.52-2.47,21.7-9.43,2.08,6.23,11.69,18.74,16.85,23.9l.98-2.77c-5.93-5.4-15.33-17.56-17.27-24.01Z"/>
    <path d="m403.67,24.85c-7.14-5.25-12.51-14.42-12.63-24.76-.68,8.87,3.12,17.87,10.06,24.07-10.51-1.02-23.16,4.79-30.18,13.88l4.03-.52c6.59-8.08,16.75-12.81,28.72-12.68Z"/>
  </g>
  <g class="dullPastDarkerClearest__noStroke">
    <path d="m47.78,25.02c-6.18,6.96-12.83,10.08-21.7,9.43,7.6,1.39,14.66-.88,20.97-6.94,2.91,7.39,9.98,16.76,18.16,24.88l-.58-3.46c-5.28-5.35-14.75-17.66-16.85-23.9Z"/>
    <path d="m401.09,24.16c-6.94-6.2-10.73-15.2-10.06-24.07-1.41,7.6,1.79,16.96,7.85,23.28-9.98-1.84-22,3.68-32.04,15.19l4.07-.52c7.05-9.07,19.68-14.89,30.18-13.88Z"/>
  </g>
  <g class="bubbleOverlapLine">
    <path d="m53.75,29.22c-2.7-3.63-4.24-7.5-4.87-10.93-4.16,8.86-12.72,15.07-22.8,16.15"/>
    <path d="m379.58,36.93c4.86-5.39,11.25-11.37,27.69-11.27-8.85-4.18-15.18-15.49-16.23-25.57"/>
  </g>
</svg>