<svg viewBox="0 0 433.47 401">
  <circle class="dullPastMediumClear" cx="285.8" cy="161.06" r="12.64"/>
  <path class="dullPastMediumClearer" d="m294.03,128.53c-13.5,16.4,22.2,51.16,38.53,31.33,20.12-24.44-21.17-52.41-38.53-31.33Z"/>
  <path class="dullPastMediumClearest" d="m309.71,60c-34.38,33.13,15.85,89.85,49.76,57.18,41.93-40.41-14.68-90.99-49.76-57.18Z"/>
  <g class="bubbleFoldLine">
    <path d="m301.12,148.1c.2-2.46.55-3.54,1.41-5.36"/>
    <path d="m359.02,101.21c-1.01-1.57-2.96-3.39-4.84-4.07"/>
    <path d="m283.22,153.95c-1,1.14-1.41,2.29-1.48,3.74"/>
  </g>
  <path class="dullPastMedium__noStroke" d="m359.27,267.12c.18-25.91,11.19-50.62,33.23-54.12-43.03-8.53-32.43-102.94,14-103-42.11-15.22-31.39-61.84-21-72-10,1.55-30.01-3.42-39.46-18.17-2.41,42.76-95.63,52.71-111,10.25-8.16,31.15-61.29,28.43-64-.88-12.22,39.82-101.36,27.6-102.23-15.58C52.34,44.24.5,32.06.5,0l.12,267.12h358.65Zm-46.01-195.2c-.08.07-1.53-11.65,12.91-16.92,10.64-3.88,19.66-.21,27.67,4.47,9.74,5.69,18.22,17.01,17.58,25.67-.63,8.49-4.38,14.51-12.39,16.07,2.33,3.56,1.66,8.51.58,10.66-5.78,12.47-21.37,14.03-31.42,11.54-7.96-1.62-13.43-7.3-14.73-14.87-9.21-1.42-13.12-9.05-13.69-16.29-1.08-9.65,2.23-18.89,13.49-20.33Zm-7.9,51.11c6.58-2.69,11.95-.3,13.8,5.98,4.21-1.09,7.83.32,11.51,3.47,10.32,9.31-.62,27.41-14.79,29.64-9.53,1.32-15.1-4.76-14.76-14.02-4.45.04-7.03-1.94-7.91-6.25-1.11-6.58,4.43-15.36,12.15-18.83Zm-22.14,30.92c4.58-4.33,11.96-4.07,13.79,4.69.88,6.13-3.31,10.57-11.56,11.27-7.53.51-11.04-3.75-11.46-8.68-.37-6,4.67-11.21,9.23-7.29Z"/>
  <path class="dullPastDarker__noStroke" d="m.61,233.49l103.79-2.84s-18.62-12.85-23.61-12.85c-2.53.24-7.26,3.24-11.64,6.42-6.96-4.29-15.16-8.88-18.51-8.88-3.28.31-9.52,4.32-15.19,8.46-9.44-5.93-21.5-12.86-26.19-12.86-2.12.2-5.2,1.59-8.65,3.6v18.96Z"/>
  <path class="dullPastMediumDark__noStroke" d="m404.5,331c-40.78-.47-54.2-59.56-39.4-94.08H.68v163.58h432.76c-46.94-2.5-50.94-56.5-28.94-69.5Z"/>
  <path class="dullPastDark__noStroke" d="m370.92,226.64c-96.08-.88-196.81,1.41-294.07,3.35-.76-14.52-.94-33.55-.15-45.53,1,.85,1.85,2.18,2.07,3.77,1.11-2.14.98-4.3.28-5.67,1.08.1,2.26.94,3.37,2.8.41-2.8-1.17-4.82-2.82-5.95.83-.28,2.73-.11,4.36,1.32-.72-3.03-2.95-4.36-4.88-4.46,1.13-1.13,2.86-1.82,4.46-1.72-2.01-1.68-5.66-.75-6.66-.14-1.61-1.95-4.4-1.59-6.28-1.02,2.1.14,3.29,1.66,3.2,2.32-1.09.23-4.22,1.33-4.9,4.21.83-.66,2.08-.93,3.13-1.06-1.61,1.02-2.95,2.46-2.93,5.27.78-1.3,2.22-2.3,3.72-2.49-.75.89-1.98,4.28-1.31,6.6.63-2.05,1.76-3.36,2.97-4.01-.61,13.17-.92,30.75-.67,45.82-3,.06-6,.12-9,.18-.69-15.05-1.83-31.29-2.98-40.88,1.05.62,1.85,1.85,1.98,2.37.55-1.36.5-3.57-.93-4.52,1.22-.34,2.76-.08,3.72.74-.04-2.05-2.17-3.25-3.48-3.59,1.18-.65,3.09-.18,4.07.82-.63-2.61-3.29-3.71-4.31-3.72.54-1.06,1.68-2.09,2.79-2.52-1.78-.42-3.77.32-5.02,1.64-.84-.79-3.98-1.91-6.43.07,1.41-.21,2.91.32,3.88,1.37-1.1.23-3.74,1.24-4.12,4.8,1.01-1.81,2.87-2.1,3.57-2-1.27,1.49-1.81,3.58-1.5,5.51.72-2.01,1.94-2.92,2.9-3.05-1.01.92-1.06,2.82-.73,4.44.42-1.19.97-1.91,1.53-2.32,1.27,11.02,2.11,30.4,2.18,40.88-20.65.4-41.13.78-61.35,1.1l.04,76.41c78.93-.17,276.88-7.24,362.1-14.89-6.55-22.64-3.88-50.02,8.18-66.26Z"/>
  <path class="dullPastMediumDark__noStroke" d="m144.09,228.65c-48.55.94-96.7,2-143.48,2.74h0v5.93s0,7.21,0,7.21c40.77-11.41,95.57-13.77,143.48-15.87Z"/>
  <path class="bubbleBorderLine" d="m.68,400.5h432.76c-46.94-2.5-50.94-56.5-28.94-69.5-55.62-.64-60.35-110.32-12-118-43.03-8.53-32.43-102.94,14-103-42.11-15.22-31.39-61.84-21-72-10,1.55-30.01-3.42-39.46-18.17-2.41,42.76-95.63,52.71-111,10.25-8.16,31.15-61.29,28.43-64-.88-12.22,39.82-101.36,27.6-102.23-15.58C52.34,44.24.5,32.06.5,0l.18,400.5ZM353.83,59.47c9.74,5.69,18.22,17.01,17.58,25.67-.63,8.49-4.38,14.51-12.39,16.07,2.33,3.56,1.66,8.51.58,10.66-5.78,12.47-21.37,14.03-31.42,11.54-7.96-1.62-13.43-7.3-14.73-14.87-9.21-1.42-13.12-9.05-13.69-16.29-1.08-9.65,2.23-18.89,13.49-20.33-.08.07-1.53-11.65,12.91-16.92,10.64-3.88,19.66-.21,27.67,4.47Zm-37.96,102.65c-9.53,1.32-15.1-4.76-14.76-14.02-4.45.04-7.03-1.94-7.91-6.25-1.11-6.58,4.43-15.36,12.15-18.83,6.58-2.69,11.95-.3,13.8,5.98,4.21-1.09,7.83.32,11.51,3.47,10.32,9.31-.62,27.41-14.79,29.64Zm-41.88-.88c-.37-6,4.67-11.21,9.23-7.29,4.58-4.33,11.96-4.07,13.79,4.69.88,6.13-3.31,10.57-11.56,11.27-7.53.51-11.04-3.75-11.46-8.68Z"/>
  <path class="dullPastMediumClear__noStroke" d="m385.5,38c3.52-3.86,11.24-8.13,14.39-9.62-9.62-1.77-19.32-10.44-22.93-19.92,2.77,9.96,10.83,17.13,19.08,20.38-6.19,2.99-11.07,6.72-14.87,10.92l4.33-1.76Z"/>
  <path class="dullPastMediumClearer__noStroke" d="m396.04,28.84c-8.25-3.25-16.31-10.42-19.08-20.38,1.62,8.74,7.85,16.36,16.15,20.57-6.28,2.94-11.26,6.9-15.7,12.27l3.76-1.53c3.8-4.2,8.68-7.94,14.87-10.92Z"/>
  <path class="dullPastMediumClearest__noStroke" d="m393.11,29.03c-8.3-4.21-14.53-11.82-16.15-20.57.59,7.7,6.09,15.93,13.56,20.49-6.98,3.12-12.4,8.35-16.91,13.89l3.8-1.55c4.45-5.37,9.43-9.33,15.7-12.27Z"/>
  <path class="bubbleOverlapLine" d="m385.5,38c3.52-3.86,11.24-8.13,14.39-9.62-9.62-1.77-19.32-10.44-22.93-19.92"/>
</svg>