<svg viewBox="0 0 427.78 454.2">
  <g>
    <circle class="bubbleClear" cx="243.5" cy="178" r="12.64"/>
    <circle class="bubbleClearer" cx="278.59" cy="174.19" r="21.78"/>
    <path class="bubbleClearest" d="m296.51,107.08c-33.3,33.3,17.51,89.55,50.81,56.25,34.45-34.45-16.36-90.7-50.81-56.25Z"/>
    <g class="bubbleFoldLine">
      <path d="m281.92,160.32c1.73,1.76,2.32,2.73,3.13,4.57"/>
      <path d="m338.19,114.8c-1.72.73-3.85,2.33-4.84,4.06"/>
      <path d="m250.47,175.06c-1.19-.94-2.36-1.29-3.81-1.28"/>
    </g>
    <path class="bubble" d="m0,453.7h427.76c-47.2-1.22-58.64-71.97-27.55-84.73-56.73-2.48-63.88-115.13-9.39-125.26-37.81-5.97-32.04-73.91,6.84-73.9-43.65-12.54-43.04-89.24-11.66-106.94-10.84.1-23.93-3.13-32.25-13.15,10.97,40.35-72.38,61.21-90.24,24.97-16.02,61.54-141.22,39.78-139.15-27.25-33.07,28.95-88.07,7.82-96.25-29.94-4.04,5.43-9.72,9.81-17.47,12.84,31.58-3.06,43.69,52.21,12.22,63.74,64.4-.43,75.35,103.33,19.67,118.39,50.56,4.94,48.5,87.96-.33,91.56C101.35,327.77,89.59,452.31,0,453.7ZM296.18,112.7c7.28-8.61,19.9-15.01,28.32-12.88,8.25,2.08,13.53,6.82,13.69,14.98,3.91-1.68,8.67-.16,10.6,1.27,11.28,7.85,10.12,23.47,5.94,32.94-2.97,7.56-9.51,11.97-17.19,11.94-2.99,8.83-11.18,11.36-18.41,10.67-9.69-.61-18.22-5.46-17.7-16.8.05.09-11.74-.5-14.44-15.64-1.99-11.15,3.19-19.4,9.18-26.48Zm-34.51,49.61c5.24-8.07,13.48-8.3,20.26-1.99,2.88-3.4,6.07-4.05,9.9-1.9,5.7,3.47,8.71,13.4,6.28,21.51-2.27,6.74-7.59,9.23-13.55,6.52-1.93,3.9-5.36,5.71-10.16,6.43-13.79,1.71-20.33-18.41-12.73-30.58Zm-18.94,3.9c5.97-.67,11.44,4.09,7.75,8.85,4.56,4.36,4.68,11.73-3.98,14.01-6.08,1.2-10.73-2.77-11.84-10.97-.9-7.49,3.18-11.22,8.08-11.89Z"/>
    <g class="bubbleClear__noStroke">
      <path d="m28.11,17.5c-1.07-5.12-.15-12.64.49-16.06C21.54,8.21,11.32,10.93,1.52,8.32c9.7,3.58,17.74,1.3,25.2-3.49-1.2,6.77-.9,11.68.29,17.21l1.1-4.54Z"/>
      <path d="m386,62.87c4.4-2.83,12.95-4.98,16.38-5.6-8.84-4.18-15.99-15.06-17.04-25.14.12,10.34,6.07,19.34,13.21,24.59-6.75,1.3-12.43,3.65-17.18,6.74l4.63-.59Z"/>
    </g>
    <g class="bubbleClearer__noStroke">
      <path d="m26.72,4.83c-7.46,4.79-15.5,7.07-25.2,3.49,8.04,3.8,15.37,3.27,23.64-1-1.29,6.81-.86,11.93.89,18.68l.96-3.95c-1.19-5.54-1.49-10.45-.29-17.21Z"/>
      <path d="m398.54,56.72c-7.14-5.26-13.09-14.26-13.21-24.59-.68,8.87,3.39,17.82,10.33,24.02-6.82,1.23-12.65,3.78-18.33,7.82l4.03-.52c4.75-3.08,10.43-5.44,17.18-6.74Z"/>
    </g>
    <g class="bubbleClearest__noStroke">
      <path d="m25.16,7.31c-8.27,4.27-15.6,4.8-23.64,1,6.59,4.03,13.99,4.45,22.06,1.05-1.55,7.48-.35,13.71,1.51,20.61l.97-3.99c-1.75-6.75-2.18-11.87-.89-18.68Z"/>
      <path d="m395.66,56.15c-6.94-6.2-11-15.16-10.33-24.02-1.41,7.6,1.79,16.96,7.84,23.28-7.54,1.22-14.13,4.89-19.91,9.08l4.07-.52c5.68-4.04,11.51-6.6,18.33-7.82Z"/>
    </g>
    <g class="bubbleOverlapLine">
      <path d="m28.11,17.5c-1.07-5.12-.15-12.64.49-16.06C21.54,8.21,11.32,10.93,1.52,8.32"/>
      <path d="m386,62.87c4.4-2.83,12.95-4.98,16.38-5.6-8.84-4.18-15.99-15.06-17.04-25.14"/>
    </g>
  </g>
  <g>
    <path d="m108.18,237.87c3.29-4.12,13.55-3.71,14.38,4.12,6.98-4.94,23,1.65,23,13.59,4.93-4.53,16.02,4.53,10.27,10.71,9.86,1.65,6.16,16.47-2.46,14.41.82,9.47-11.91,16.88-19.31,10.3-.82,7.82-11.5,9.47-15.61,4.53-15.99,22.47-116.17-24.22-68.18-39.95-19.03-26.34,48.33-38.66,57.92-17.71Z"/>
    <path d="m93.4,199.16c.41-14-18.48-21.41-28.75-13.18-.82-11.53-26.55-17.29-31.78-7.15-3.34-7.36-18.02-9.17-28.86-6.16v73.94c15.64,4.02,29.9,3.73,35.61-4.38,2.2,8.52,16.69,6.31,14.75-2.72,5.08,9.03,28.38,5.88,27.52-4.94,5.75,4.12,16.43-2.47,16.02-11.53,16.02-4.12,13.97-23.89-4.52-23.89Z"/>
    <path d="m88.89,282.97c3.89-12.05-10.25-19.84-19.09-12.4-2.12-8.15-11.31-9.57-15.9-4.25-3.85-12.02-29.19-11.21-49.89-3.86v56.29c2.19-.26,4.31-1.04,6.07-2.47,4.24,8.5,19.09,9.57,23.68,1.42,6.01,7.44,18.02,7.09,22.97-.71,1.77,6.02,12.37,5.32,13.78-2.13,6.01,4.61,19.09-6.02,15.2-13.82,12.02,6.38,16.96-19.49,3.18-18.07Z"/>
  </g>
  <g>
    <path class="wallHighSide" d="m39.59,442.73c-6.57,0-13.14,0-19.72,0-.52-17.84-.91-35.69-1.17-53.54,3.15-3.69,6.31-7.37,9.46-11.05,3.41,3.69,6.83,7.37,10.25,11.05.26,17.85.65,35.7,1.17,53.54Z"/>
    <path class="roofSide" d="m38.42,389.19c-3.42-3.68-6.84-7.36-10.25-11.05h10.12c.04,3.68.09,7.37.14,11.05Z"/>
    <path class="wallLowFront" d="m39.59,442.73h41.24c-.75-25.91-1.23-51.83-1.42-77.76-7.04-7.52-14.07-15.06-21.09-22.6-6.73,7.52-13.45,15.06-20.15,22.6.19,25.93.66,51.85,1.42,77.76Z"/>
    <path class="roofSide" d="m114.37,364.97c-9.67-4.81-17.32-12.18-23.79-20.73h-27.86c3.42,11.09,12.98,17.69,23.79,20.73h27.86Z"/>
    <path class="roofTop" d="m86.44,335.03c3.06.05,5.51,2.5,5.53,5.54,0,1.4-.53,2.69-1.39,3.67h-27.86c-1.38-3.07-2.76-6.14-4.14-9.21h27.86Z"/>
    <path class="roofFront" d="m84.04,368.68c.99-1.48,1.48-2.23,2.47-3.71-9.67-4.81-17.32-12.18-23.79-20.73.87-.98,1.4-2.27,1.39-3.67-.02-3.04-2.51-5.54-5.53-5.54-3,0-5.53,2.51-5.55,5.54,0,1.4.53,2.69,1.39,3.67-6.28,8.24-13.98,16.52-23.63,20.73,1.01,1.48,1.51,2.23,2.53,3.71,10.16-5.33,18.73-12.95,25-22.6,6.94,9.37,15.37,17.14,25.72,22.6Z"/>
    <path class="stepFront" d="m155.6,442.73h-84.87c-.11-3.67-.21-7.34-.31-11.01h84.87c.1,3.67.2,7.34.31,11.01Z"/>
    <path class="wallHighSide" d="m144.58,363.66c-21.73,0-43.45,0-65.18,0,.16,22.69.53,45.38,1.12,68.06h65.18c-.59-22.68-.96-45.36-1.12-68.06Z"/>
    <path class="wallHighFront" d="m144.88,290.94c-9.31-9.17-18.61-18.37-27.88-27.58-9.39,9.17-18.76,18.37-28.11,27.58-.35,24.25-.45,48.49-.31,72.73,18.67,0,37.33,0,56,0-.14-24.24-.04-48.48.31-72.73Z"/>
    <g class="frameDarkFront">
      <path d="m135.77,363.66c2.94,0,5.87,0,8.81,0-.1-16.32-.09-32.65.04-48.97h-8.81c-.12,16.33-.13,32.65-.04,48.97Z"/>
      <path d="m88.58,363.66h8.81c-.1-16.32-.09-32.65.04-48.97h-8.81c-.12,16.33-.13,32.65-.04,48.97Z"/>
    </g>
    <path class="awningFront" d="m144.88,291.28h-52.99c-10.06,9.16-21.49,16.59-33.2,23.41h85.93c.07-7.8.15-15.61.26-23.41"/>
    <path class="roofSide" d="m116.55,260.09c9.64,0,19.28,0,28.92,0-.24,10.28-.44,20.57-.6,30.85-11.24-8.69-20.92-18.68-28.33-30.85Z"/>
    <path class="roofFront" d="m116.83,266.65c8.7,11.36,19.58,22.18,32.14,29.22.91-2.03,1.36-3.05,2.27-5.08-13.28-7.69-23.42-17.97-31.86-30.7-1.91,0-2.86,0-4.77,0-8.3,12.94-19.07,23.64-32.89,30.54.85,2.03,1.27,3.05,2.12,5.08,13.25-6.01,24.98-16.99,32.99-29.06Z"/>
    <path class="wallLowFront" d="m146.27,231.9c12.02-10.65,24.06-21.28,36.12-31.89,11.38,10.65,22.79,21.28,34.21,31.89-2.22,70.3-2.31,140.6-.26,210.83h-70.33c-2.04-70.23-1.96-140.53.26-210.83Z"/>
    <g class="frameDarkSide">
      <path d="m194.92,196.49c.45-3.8.9-7.59,1.36-11.39h-8.5c-.3,3.29-.6,6.58-.89,9.87,2.35,1.22,5.44,1.34,8.04,1.52Z"/>
    </g>
    <g class="frameDarkFront">
      <path d="m178.3,185.1h9.47c-.6,6.81-1.18,13.61-1.75,20.42h-7.44c-.11-6.81-.21-13.61-.29-20.42Z"/>
      <path d="m151.92,226.89c19.76,0,39.52,0,59.28,0,1.78,2.21,3.56,4.41,5.34,6.61h-70.32c1.9-2.21,3.8-4.41,5.71-6.61Z"/>
      <path d="m156.9,442.73h48.4c-.95-32.64-1.45-65.29-1.5-97.96h-48.4c.05,32.67.55,65.32,1.5,97.96Z"/>
    </g>
    <path class="doorDarkFront" d="m163.61,442.73h34.97c-.88-30.28-1.37-60.57-1.48-90.87h-34.97c.11,30.3.6,60.6,1.48,90.87Z"/>
    <path class="roofTop" d="m222.41,232.63h43.62c-15.56-9.36-26.74-22.43-36.23-37.74-5.91,2.98-15.03,2.02-21.39,2.04-6.21.02-16.07,1.2-21.65-2.04,9.4,15.22,20.17,28.42,35.65,37.74Z"/>
    <g class="roofFront">
      <path d="m186.87,195.07c-.29,3.49-.57,6.97-.84,10.46,9.53,12.95,20.3,24.7,34.15,33.1.89-2.4,1.34-3.6,2.23-5.99-15.41-9.28-26.16-22.42-35.54-37.56Z"/>
      <path d="m178.44,194.88c-10.39,14.95-22.34,28.83-38.48,37.74.74,2.4,1.12,3.6,1.86,5.99,14.47-8.45,26.21-20.18,36.76-33.1-.04-3.4-.08-6.8-.12-10.2-.02-.28-.03-.44-.03-.44Z"/>
    </g>
    <path class="wallHighSide" d="m382.26,169.4c-27.07-15.95-54.11-31.95-81.13-47.99-6.85,107.05-8.72,214.28-5.6,321.33h83.88c-2.65-91.05-1.7-182.23,2.84-273.33Z"/>
    <path class="wallHighFront" d="m298.37,169.55c-12.98-12.58-25.93-25.2-38.84-37.85-13.49,12.58-26.94,25.2-40.37,37.85-4.54,91.05-5.48,182.18-2.84,273.18h79.21c-2.65-91-1.7-182.13,2.84-273.18Z"/>
    <g class="beamSide">
      <path d="m236.86,442.73c-2.65-91.05-1.7-182.23,2.84-273.33h-10.58c-4.54,91.1-5.49,182.28-2.84,273.33h10.58Z"/>
      <path d="m285.56,442.73c-2.65-91.05-1.7-182.23,2.84-273.33h-10.58c-4.54,91.1-5.49,182.28-2.84,273.33h10.58Z"/>
      <path d="m334.24,442.73c-2.65-91.05-1.7-182.23,2.84-273.33h-10.58c-4.54,91.1-5.49,182.28-2.84,273.33h10.58Z"/>
      <path d="m379.42,442.73c-2.65-91.05-1.7-182.23,2.84-273.33h-10.58c-4.54,91.1-5.49,182.28-2.84,273.33h10.58Z"/>
    </g>
    <g class="beamFront">
      <path d="m229.13,169.4h-9.96c-4.54,91.1-5.49,182.28-2.84,273.33h9.96c-2.65-91.05-1.7-182.23,2.84-273.33Z"/>
      <path d="m277.83,169.4h-9.96c-4.54,91.1-5.49,182.28-2.84,273.33h9.96c-2.65-91.05-1.7-182.23,2.84-273.33Z"/>
      <path d="m326.51,169.4h-9.96c-4.54,91.1-5.49,182.28-2.84,273.33h9.96c-2.65-91.05-1.7-182.23,2.84-273.33Z"/>
      <path d="m371.69,169.4h-9.96c-4.54,91.1-5.49,182.28-2.84,273.33h9.96c-2.65-91.05-1.7-182.23,2.84-273.33Z"/>
    </g>
    <g class="roofBelow">
      <path d="m216.01,251.92c-8.93,12.52-19.61,22.91-32.41,31.42,10.58,0,21.16,0,31.73,0,.18-10.47.41-20.95.68-31.42Z"/>
      <path d="m204.15,177.26h14.63c.12-2.57.25-5.14.38-7.71-5,2.57-10.01,5.14-15.01,7.71Z"/>
    </g>
    <g class="roofSide">
      <path d="m298.44,169.4c-7.3,14.67-16.69,28.16-29.38,38.73,1.02,2.77,2.04,5.53,3.06,8.29,10.57-8.79,18.81-19.67,25.57-31.55.24-5.16.48-10.32.74-15.48Z"/>
      <path d="m294.56,285.34c-6.79,14.64-15.71,28.15-28.07,38.74,1.11,2.77,2.23,5.53,3.35,8.29,10.29-8.8,18.15-19.69,24.5-31.55.06-5.16.13-10.32.22-15.49Z"/>
      <path d="m294.56,285.34c.05-3.28.11-6.57.18-9.85h-13.82c-.06,3.28-.12,6.57-.18,9.85h13.82Z"/>
      <path d="m326.62,283.35c27.71,0,55.42,0,83.13,0,1.52-2.59,3.05-5.18,4.57-7.77-27.71,0-55.42,0-83.13,0-1.53,2.59-3.05,5.18-4.57,7.77Z"/>
      <path d="m310.2,177.52c29.92,0,59.84,0,89.75,0,1.32-2.66,2.64-5.32,3.97-7.97-29.92,0-59.84,0-89.75,0-1.32,2.66-2.65,5.31-3.97,7.97Z"/>
      <path d="m314.35,226.98c27.89,0,55.77,0,83.66,0-.11,3.28-.22,6.57-.32,9.85-27.89,0-55.77,0-83.66,0,.1-3.28.21-6.57.32-9.85Z"/>
    </g>
    <g class="roofTop">
      <path d="m269.06,208.13h-79.27c12.69-10.57,22.08-24.06,29.38-38.73h79.27c-7.3,14.67-16.69,28.16-29.38,38.73Z"/>
      <path d="m266.49,324.08c-26.42,0-52.84,0-79.27,0,12.36-10.6,21.28-24.1,28.07-38.74h79.27c-6.79,14.64-15.71,28.15-28.07,38.74Z"/>
      <path d="m331.19,275.57c27.71,0,55.42,0,83.13,0-14.91-9.79-26.66-23.19-35.28-38.74-27.71,0-55.42,0-83.13,0,8.62,15.55,20.37,28.95,35.28,38.74Z"/>
      <path d="m314.17,169.55h89.75c-20.96-11.76-37.13-28-50.09-48.14h-89.75c12.96,20.14,29.13,36.38,50.09,48.14Z"/>
    </g>
    <g class="roofFront">
      <path d="m272.12,216.43h-79.27c-1.02-2.76-2.05-5.53-3.06-8.29h79.27c1.02,2.77,2.04,5.53,3.06,8.29Z"/>
      <path d="m269.84,332.37h-79.27c-1.12-2.76-2.23-5.53-3.35-8.29h79.27c1.11,2.77,2.23,5.53,3.35,8.29Z"/>
      <path d="m280.91,275.49h-79.67c-.06,3.28-.12,6.57-.18,9.85h79.67c.05-3.28.11-6.57.18-9.85Z"/>
      <path d="m295.91,236.83c8.62,15.55,20.37,28.95,35.28,38.74-1.53,2.59-3.05,5.18-4.57,7.77-12.51-8.51-22.8-18.92-31.14-31.55.13-4.99.27-9.98.43-14.97Z"/>
      <path d="m259.53,131.7c13.52,17.99,30.81,34.93,50.67,45.82,1.32-2.66,2.64-5.32,3.97-7.97-20.96-11.76-37.13-28-50.09-48.14h-7.77c-14.54,20.41-32.55,37.18-55.34,47.88,1.06,2.66,2.12,5.32,3.18,7.97,21.81-9.35,41.46-26.43,55.38-45.56Z"/>
      <path d="m216.44,236.83c-9.55,15.53-21.88,28.78-37.22,38.74,1.43,2.59,2.86,5.18,4.29,7.77,12.85-8.54,23.56-18.98,32.5-31.55.13-4.99.27-9.98.42-14.97Z"/>
      <path d="m295.91,236.83c.1-3.28.21-6.57.32-9.85h18.12c-.11,3.28-.22,6.57-.32,9.85h-18.12Z"/>
      <path d="m216.44,236.83c.1-3.28.21-6.57.32-9.85h-18.12c-.11,3.28-.22,6.57-.32,9.85h18.12Z"/>
    </g>
  </g>
  <g>
    <path d="m398.76,12.81h-32.75c-4.82,13.45-13.19,25.22-23.43,35.85-2.81,127.12-2.25,254.35,1.32,381.56,25.77-.28,51.54-.46,77.31-.54-2.5-123.77-2.11-247.55,1.49-371.19-10.26-14.11-19.19-29.16-23.94-45.67Z"/>
    <path d="m426,429.68c-30.78.08-61.56.3-92.34.66.05,1.68.1,6.99.15,12.49h92.19v-13.15Z"/>
    <g class="frameDarkFront">
      <path d="m385.26,176.78c8.24.22,16.48.45,24.72.69.36-29.45.89-58.89,1.59-88.33-8.31-.33-16.62-.66-24.93-.98-.63,29.53-1.08,59.07-1.37,88.62Z"/>
      <path d="m350.6,175.92c8.24.19,16.48.39,24.72.6.26-29.58.69-59.16,1.29-88.74-8.31-.31-16.62-.6-24.93-.89-.53,29.67-.88,59.35-1.07,89.03Z"/>
      <path d="m402.38,429.75c-1.03-46.75-1.67-93.49-1.9-140.24-14-.19-28-.35-42-.48.42,47,1.26,94.01,2.5,141.01,13.8-.12,27.59-.22,41.39-.29Z"/>
    </g>
    <path class="doorDarkFront" d="m393.2,429.8c-1.08-46.8-1.76-93.61-2.03-140.41-7.79-.1-15.59-.19-23.38-.27.38,46.95,1.17,93.89,2.37,140.84,7.68-.06,15.36-.12,23.04-.16Z"/>
    <g class="shadow">
      <path d="m405.09,95.18c-.56,25.27-1,50.53-1.31,75.81-4.09-.12-8.19-.24-12.28-.35.29-25.31.69-50.63,1.22-75.93,4.12.16,8.25.31,12.37.48Z"/>
      <path d="m370.15,93.88c-.48,25.38-.83,50.77-1.06,76.16-4.09-.1-8.19-.21-12.28-.31.2-25.43.52-50.86.97-76.28,4.12.14,8.25.29,12.37.43Z"/>
    </g>
    <path class="awningFront" d="m402.92,289.55c-19.81-.27-39.63-.48-59.44-.63-.13-13.54-.23-27.07-.3-40.61,19.9.26,39.79.58,59.69.95-.01,13.43,0,26.86.06,40.29Z"/>
    <path class="awningSide" d="m402.92,289.55c2.72.04,4.08.06,6.8.1-.04-13.42-.05-26.84-.03-40.26-2.73-.05-4.1-.08-6.83-.13-.01,13.43,0,26.86.06,40.29Z"/>
    <g class="roofFront">
      <path d="m419.83,209.33c-26.36-.68-52.73-1.26-79.09-1.74-7.02-.2-6.94,10.53,0,10.65,26.34.44,52.67.99,79.01,1.63-1.81-3.32-1.78-7.31.08-10.53Z"/>
    </g>
  </g>
</svg>