<svg viewBox="0 0 1308.16 378.73">
  <path class="waterDark" d="M1307.59,378.23c.07,0,.07-246.66,.07-246.66-103.77-1.61-207.55-2.85-311.33-3.7-158.03-1.29-316.07-1.69-474.1-1.19-173.92,.54-347.83,2.18-521.73,4.88v246.67H1307.59Z"/>
  <path class="mountainFar" d="M1307.66,67.24c-12.19-5.25-31.8-16.88-44.74-10.77-54.68,25.79-113.11,51.63-165.06,87.07,71.61,.75,138.21,1.69,209.81,2.8V67.24Z"/>
  <g class="rubberDark">
    <path d="M1070.09,143.3c-6.56-.07-13.12-.13-19.68-.19,.03-3.66,.05-5.49,.09-9.15,6.56,.06,13.12,.13,19.68,.19-.04,3.66-.05,5.49-.09,9.15Z"/>
    <path d="M726.7,141.3c6.56,.01,13.12,.02,19.68,.04,0-3.66,.01-5.49,.02-9.15-6.56-.01-13.12-.03-19.68-.04,0,3.66,0,5.49-.02,9.15Z"/>
  </g>
  <path class="suspenders" d="M571.7,104.72c78.4-7.24,158.08-6.06,236.72-6.37,102.44-.41,204.95,.55,307.34,4.08,36.57,1.26,73.35,2.3,109.76,6.11l-3.26-6.7c-62.04-8.56-122.97-35.47-157.57-90.01l-5.97-1.37c-74.97,108.06-245.81,108.54-319.08-1.86l-5.98,1.3c-35.48,54.07-96.29,80.31-158.61,88.17l-3.34,6.66Z"/>
  <g class="rustDark">
    <path d="M1064.74,5.58c33.5,58,98.34,86.41,162.58,93.41-2.03,1.14-3.04,1.71-5.07,2.84-62.04-8.56-122.97-35.47-157.57-90.01l.06-6.24Z"/>
    <path d="M733.66,3.65c-34.18,57.61-99.33,85.25-163.66,91.5,2.01,1.16,3.02,1.74,5.04,2.9,62.32-7.86,123.13-34.1,158.61-88.17,0-2.5,0-3.74,.01-6.24Z"/>
    <path d="M739.63,8.59c.07-2.49,.11-3.74,.18-6.23,33.9,54.52,94.88,86.66,158.71,87.04,63.92,.37,125.35-31.11,160.07-85.18,.04,2.49,.07,3.74,.11,6.23-74.97,108.06-245.81,108.54-319.08-1.86Z"/>
    <path d="M1065.58,133.9c-.28-43.48-.56-86.96-.85-130.44-2.08-1.4-4.17-1.42-6.28-.06-1.13,43.47-2.25,86.93-3.37,130.4"/>
    <path d="M731.32,131.95c.79-43.47,1.58-86.95,2.37-130.42,2.09-1.38,4.19-1.37,6.28,.01,.62,43.48,1.24,86.95,1.85,130.43"/>
    <path d="M571.7,104.72c-.68-3.16-1.02-4.74-1.69-7.9,79.44-6.87,160.01-5.88,239.67-6.26,102.69-.49,205.44,.28,308.08,3.79,36.48,1.25,73.25,2.17,109.55,6.3-.71,3.15-1.07,4.73-1.78,7.88-36.41-3.81-73.19-4.85-109.76-6.11-102.39-3.53-204.89-4.49-307.34-4.08-78.64,.31-158.32-.87-236.72,6.37Z"/>
    <path d="M906.69,88.76c-.03,4.49-.04,6.74-.07,11.23-5.87-.04-11.74-.07-17.6-.1l.06-11.23c5.87,.03,11.74,.07,17.61,.1Z"/>
  </g>
  <g class="mountain">
    <path d="M1307.66,102.26c-33.43-16.29-40.28-22.02-53.67-16.6-20.52,8.3-89.92,40.73-103.95,49.03-10.09-4.17-20.27-8.26-30.65-11.65-2.54-.83-5.32-.73-7.75,.32-12.51,5.42-24.22,12.25-35.42,20.2,75.15,.77,156.29,1.75,231.43,2.91v-44.2Z"/>
    <path d="M539.28,75.98c-10.08-5.02-21.31-5.65-31.74-2.93-24.22,6.32-49.52,15.65-72.88,26.76-30.14-18.53-59.32-41.17-90.79-54.67-9.26-3.97-18.76-4.54-28.49-1.85-42.26,11.67-87.24,26.14-128.17,45.64-18.44-10.82-36.55-22.31-56.34-30.09-5.62-2.21-12.09-2.04-17.67,.33-29.21,12.45-57.37,27.26-84.28,44.29-8.9-5.56-18.61-9.52-28.43-13.12v55.99c162.17-2.52,324.34-4.12,486.53-4.76,51.57-.2,103.14-.31,154.7-.33-33.65-22.64-66.19-47.22-102.45-65.26Z"/>
  </g>
  <path class="buildingsFarthest" d="M582.51,117.91c-3.83-.13-5.74-.2-9.57-.32-.19-5.29-.31-10.57-.38-15.86-3.82-.15-5.73-.22-9.55-.35-1.84-14.17-3.68-28.34-5.03-42.56-2.64,12.45-4.47,25.01-6.57,37.56-4.15-.13-6.23-.19-10.38-.3,.07-4.78,.18-9.56,.32-14.34-4.19-.13-8.38-.25-12.56-.35-.09,3.05-.12,4.57-.16,7.62-2.5-.06-3.75-.09-6.25-.14,.05-4.38,.09-6.57,.22-10.94-4.54-.1-6.81-.15-11.35-.22,.17-6.82,.39-13.64,.66-20.46-4.17-.09-8.34-.16-12.5-.2-.12,5.39-.22,10.78-.3,16.17-4.01-.04-6.01-.06-10.02-.09,0,4.43,0,6.64,.04,11.07-4.06-.02-6.09-.03-10.14-.03-.04-2.56-.05-3.84-.09-6.39-4.16,0-6.24,0-10.41,.02,.07,3.07,.1,4.6,.17,7.67-3.38,.02-5.07,.03-8.45,.06,.1,3.58,.15,5.37,.25,8.95-4.15,.04-6.23,.06-10.38,.12-.06-2.04-.1-3.07-.17-5.11-5.55,.09-11.1,.19-16.65,.3,.25,6.24,.46,12.47,.64,18.71-2.65,.05-3.97,.08-6.62,.14,.04,1.7,.06,2.55,.1,4.25-3.97,.09-5.96,.13-9.94,.23-.21-8.2-.52-16.4-.92-24.59-4.16,.12-8.33,.26-12.49,.41,.14,2.2,.21,5.3,.32,7.5-4.43,.16-8.86,.32-13.28,.5-.13-2.19-.2-5.28-.36-7.47-4.99,.22-9.98,.45-14.98,.68-.31-3.85-.49-5.78-.91-9.63-4.64,3.91-9.28,7.8-13.95,11.66,.16,2.36,.3,5.72,.43,8.08h-31.11v20.22h-17.01v-4.78h-15.12v7.24h-12.69v-10.78h-17.54v15.09h-21.83v-4.46h-23.36v8.19h-23.08v-3.46h-24.57v-4.98h-54.92v9.13h-10.91v-6.72h-19.47v8.5H44.15v-4.14H27v7.03H.5v10.01c162.17-2.52,324.34-4.12,486.53-4.76,32.11-.13,64.22-.2,96.32-.26-.36-6.21-.64-19.54-.84-23.4Z"/>
  <path class="mountainNear" d="M620.39,154.56c-35.16,.03-70.32,.1-105.49,.22,8.31-9.9,19.98-16.73,31.81-21.52,2.56-1.03,5.37-1.45,8.1-1.08,22.55,3.05,44.64,13.91,65.57,22.39Z"/>
</svg>