<svg viewBox="0 0 1051.11 701.07">
  <path class="oceanSurface__noStroke" d="m1050.61,700.57c-350.04-.01-700.07-.01-1050.11,0,.01-233.36.01-466.71,0-700.07,350.04,0,700.07,0,1050.11,0,0,233.36,0,466.71,0,700.07Z"/>
  <g class="waveRidge__noStroke">
    <path d="m21.34,492.83c17.06-2.4,34.17,14.88,60.5,7.42-11.69,14.78-29.47,12.33-45.6,7.22-10.03-3.18-26.57-2.87-35.73,13.2,0-14.1,0-28.2,0-42.29,3.56,7.39,7.2,16.38,20.83,14.46Z"/>
    <path d="m993.14.5c-5.48,0-8.22,0-13.7,0-3.98,16.44-15.19,31.93-30.32,39.1-31.01,14.71-65.57-2.73-66.49-39.1-11.08,0-16.62,0-27.7,0-16.89,36.88-65.3,36.52-82.34,0h-36.9c-10.17,11.83-20.74,23.57-30.56,35.45-19.91,24.09-47.06,42.93-79.09,32.55-26.13-8.47-52.05-28.01-80.22-32.17-64.32-9.51-104.47-2.49-78.03-35.82h-19.31c-.53,26.06-111.52,40.67-143.32,59.83-44.07,26.55-90.97.55-109.15-46.66-1.8-4.66-3.91-9.09-6.29-13.17-6.45,0-9.67,0-16.11,0,4.96,7.37,8.23,15.3,9.68,23.27,3.11,17.12,31.46,35.07,17.48,52.07-60.77,73.91-117.8,38.75-165.5-13.45C19.76,45.41,12.04,22.84,15.28.5c-5.91,0-8.87,0-14.78,0,0,29.59,0,59.18,0,88.76,5.61-9.13,17.2-11.99,26.31-6.27,29.79,18.71,81.85,43.86,80.89,85.66-.82,35.54-57.07,45.8-80.49,60.5-9.65,6.06-21.45,1.67-26.7-7.94,0,43.47,0,86.94,0,130.41,7.12-5.03,16.05-6.56,26.28-3.91,24.76,6.41,26.68,27.81,34.29,50.6,8.53,25.54,40.11,53.53,65.5,65.18,21.28,9.77,31.15,31.03,22.17,51.92-19.53,45.42-80.42,69.39-89.39,120.3-3.41,19.33-15.17,39.23-34.9,42.96-9.28,1.75-17.3-.56-23.95-5.89,0,11.11,0,16.67,0,27.78h29.66c14.22-14.46,56.15-37.16,57.78,0,8.36,0,12.54,0,20.9,0,9.68-21.93,29.22-37.85,47.29-52.58,22.34-18.21,53.58-14.8,78.37-25.99,19.3-8.71,35.97-10.02,54.67-2.1,12.96,5.48,26.98,17.4,42.4,18.28,33.27,1.9,74.43,24.87,74.51,62.38,6.75,0,10.12,0,16.87,0,14.57-48.63,75.1-57.52,113.34-79.6,31.57-18.23,80.2-30.13,113.49-9.94,30.16,18.3,76.32,47.37,57.12,89.53,7.33,0,11,0,18.34,0,27.04-28.23,81.42-18.63,110.98,0,9.35,0,14.02,0,23.37,0-30.29-30.76-8.51-79.08,11.97-107.75,16.29-22.81,54.86-18.02,78.3-9.64,30.32,10.84,60.92,23.7,83.21,47.56,19.55,20.91.47,52.16-14.07,69.83,10.54,0,21.08,0,31.61,0,0-35.05,0-70.09,0-105.14-32.39,7.42-59.44-6.65-84.4-26.16-20.35-15.91-51.32,4.37-70.1-14.86-23.68-24.25-26.84-65.87,8.14-81.72,44.73-20.26,104.66-17.04,146.35,9.55,0-10.12,0-20.24,0-30.36-6.24,3.82-14.69,4.25-25.07.52-52-18.71-106.99-14.66-151.43,16.7-21.59,15.23-51.32,3.93-60.98-19.2-11.41-27.32,4.22-59.73,31.95-69.84,34.24-12.48,26.99-50.31,34.04-78.39,4.88-19.46,26.94-26.44,38.84-40.17,21.33-24.62,65.55-32.86,94.05-18.62,25.51,12.75,39.46,83-2.06,81.24-28.87-1.22-62.3,12.76-70.43,43.04,18.47-15.86,44.88-32.69,69.78-27.59,16.46,3.37,32.76,14.94,41.3,30.11,0-55.19,0-110.37,0-165.56-6.47,5.98-14.16,10.51-22.7,12.39-41.05,9.01-82.72,9.7-123.67.43-20.66-4.68-56.33-13.38-60.91-37.55-9.61-50.7,52.79-83.66,92.1-100.83,32.56-14.22,49.89-44.61,57.73-78.07Zm-191.96,319.53c-23.63-19.07-35.55-53.4-23.84-82.28,6.68-16.47,23.84-42.98,44.08-41.03,25.04,2.42,51.52,23.16,69.22,38.9,13.03,11.59.63,26.36-8.54,34.62-17.24,15.53-24.4,38.47-20.28,61.19,3.03,16.67-15.6,45.2-34.63,35.44-16.24-8.33-12.25-35.74-26.01-46.84Zm-120.49,269.65c31.73-19.24,65.05-29.39,101.03-24.63,19.07,2.53,49.77,10.33,54.96,31.94,4.4,18.33.89,43.02-10.85,58.88-21.47,28.98-62.62,9.9-86.65-4.06-11.28-6.55-87.06-44.81-58.49-62.13Zm-123.21-58.23c-16.96-11.55,24.93-12.33,37.53-20.93,14.79-10.1,14.43-19.85,23.46-31.75,8.03-10.6,21.49-31.9,37.35-27.13,19.81,5.95,4.99,39.3-1.32,51.36,16.3-8.86,28.35-29.17,24.2-47.35-4.81-21.04,27.29-13.6,37.46-9.32,24.13,10.15,71.31-5.75,85.6,22.66,16.44,32.68,61.2,37.17,65.24,77.91,4.67,47.1-60.72,2.95-78.04-2.43-27.01-8.39-54.19-5.4-79.97,7.26-16.24,7.98-32.94,24.69-51.82,26.22-13.83,1.13-26.12-9.38-37-16.82-16.14-11.02-45.96-18.3-62.68-29.68ZM296.26,223.97c20.22-37.08,67.05-23.83,101.31-25.44,24.49-1.15,46.67-15.86,64.97-29.12,54.29-39.35,73.18-22.6,93.68-9.77,31.87,19.93-15.3,37.93-30.28,65.89-20.62,38.5-33.87,35.51-57.51,61.46-24.37,26.75-33,35.38-57.3,40.2-32.96,6.54-131.17,16.09-112.54-43.85,7.02-22.61-11.72-42.19-2.34-59.38Zm262.25,133.56c6.73,18.37.86,46.55-22.95,47.39-64.94,2.3-124.66,53.71-186.1,19.35-50.24-28.09-121.38-18.63-160.92-69.31-40.06-51.34,12.19-115.43,68.41-117.04,31.3-.89,27.41,41.59,25.13,62.1-5.34,47.94,53.27,48.2,86.04,43.8,34.3-4.61,16.42,33.09,1.47,44.83,31.76-1.52,36.09-40.42,62.31-51.5,37.09-15.67,50.05-59.45,75.54-42.58,23.01,15.23,41.56,36.92,51.09,62.94Zm46.07,79.14c12.93,8.35,5.01,30.2-1.67,40.81-11.63,18.48-34.2,28.45-55.98,25.93-38.96-4.5-82.66,29.27-119.74,6.59-12.42-7.59-30.8-19.63-31.02-35.99-.18-13.34,12.22-22.82,24.64-24.75,60.05-9.32,128.65-48.2,183.77-12.6Zm-59.97,108.94c28.03,14.35,71.43,23.13,67.15,34.33-4.3,11.25-32.37,7.67-46.45,7.45-30.25-.46-57.18,17.34-78.06,37.78-29.16,28.55-106.73,48.55-108.42-13.47-2.16-79.72,110.75-94.25,165.77-66.08Zm-370.16-160.26c15.03-2.59,28.12,3.22,43.02,10,23.89,10.87,49.24,21.6,73.86,24.4,26.38,3.01,16.24,29.15-3.48,33.41,20.13,9.15,37.3-10.51,56.78-11.41,18.4-.85,33.64,16.75,36.71,33.36,2.91,15.71,16.47,25.8,25.34,38.58,7.26,10.45.02,21.52-6.98,29.32-15.31,17.06-28.23,36.71-36.55,58.62-9.66,25.42-42.92,16.88-59.79,4.73-16.04-11.55.33-31.42-4.76-46.33-7.45-21.8-28.72-17.59-44.61-28.34-25.77-17.44-8.7-48.68,11.26-63.73-28.19,5.43-56.51,39.02-36.35,64.39,10.89,13.71,64.24,21.68,49.61,50.04-10.15,19.66-39.02,17.11-56.1,25.94-14.14,7.31-31.76,7.99-47.16,11.11-21.56,4.37-40.12,16.7-54.89,32.74-15.01,16.3-36.78,23.98-39.99-5.05-4.47-40.47,41.8-71.16,66.1-97.21,29.24-31.33,30.53-67.91-1.48-95.25-32.62-27.87,4.85-65.07,29.48-69.31Zm-16.87-141.17c5.64,12.77,2.01,27.47-.38,40.31-3.26,17.52-4.31,36.96,1.92,54.61,10.45,29.58-26.3,35.47-45.13,64.22-9.83,15.01-31.36,14.86-37.09-4.73-8.03-27.42-14.38-58.46-44.76-63.54-29.05-4.86-12.62-55.69-4.82-71.3,22.69-45.43,103.37-80.5,130.27-19.57Zm118.99-97.72c18.44,34.24,19.58,59.37-12.41,65.7-19.07,3.77-37.12,11.66-52.58,23.32-8.13,6.14-17.18,15.12-28.24,14.74-18.25-.63-19.33-31.33-30.51-41.14-14.84-13.03-38.86-34.54-26.59-57.17,10.23-18.86,34.39-27.11,53.45-33.31,31.98-10.39,45.84-60.38,82.05-26.95,14.9,13.75,5.94,38.3,14.83,54.8Zm389.91,21.09c-33.4,36.78-94.85-19.27-129.19-31.57-49.09-17.58-91.93,32.64-139.73,43.21-72.72,16.08-101.63-3.74-108.72-47.88-8.2-50.98,39.45-72.97,83.2-80,13.54-2.18,46.57-18.7,53.03-6.16,8.72,11.93-14.48,44.43,9.67,64.02-9.63-24.65,9.18-70.73,36.24-68.85,42.82,2.98,105.24,16.37,142.63,40.65,25.28,16.42,78.96-12.59,86.51,30.38,4.33,24.63-19.46,40.56-33.65,56.19Zm123.06,16.95c3.08,10.45-5.77,18.97-12.26,25.83-9.88,10.45-19.83,23.52-22.07,37.65-4.47,28.09,5.04,53.33,20.68,77.33,11.55,17.73,29.49,36.86,28.71,59.88-1.33,39.39-37.2,68.77-75.38,50.64-15.72-7.46-9.93-28.78-8.32-42.01,2.64-21.65-2.9-43.92-22.18-56.83,11.4,21.11,18.05,50.73,2.54,71.48-19.32,25.83-57.92,25.34-85.44,16.33-26.02-8.51-34.28-37.78-37.74-62.02-2.69-18.88-13.2-36.44-26.88-49.15-9.38-8.71-21.71-17.61-24.18-30.69-6.59-34.89,24-80.73,59.62-88.1,24.08-4.98,74.19,7.02,71.48,39.84-.67,8.04-6.67,16.05-6.61,24.41.12,15.91,13.27,28.04,25.45,37.28-6.78-11.33-14.58-24.61-11.25-37.96,1.81-7.27,8.57-12.6,9.81-20.27,1.56-9.68-3.39-15.91-5.82-25-3.06-11.46.77-22.73,7.02-32.36,22.56-34.79,99.24-42.4,112.82,3.72Zm40.32-33.97c-3.8,41.95-61.39-10.22-79.11-12.3-60.34-7.09-42.75-110.33,12.05-109.56,15.18.21,27.66,11.83,41.78,15.58,25.96,6.89,64.93-28.34,79.99,9.56,7.01,17.66-7.19,34.24-19.32,45.42-14.52,13.4-33.45,29.96-35.38,51.3Z"/>
  </g>
</svg>