<svg viewBox="0 0 1359.3 718.23">
  <path class="oceanRockDarkest" d="M1358.8,145.75c-17.79-15.68-33.52-32.75-46.86-51.2-3.15-4.37-7.54-2.17-13.47-.85-7.45,1.66-11.42-8.32-17.13-1.73-33.14,38.22-129.41,68.67-194.98,94.79-38.19-22.7-77.28-49.22-126.52-93.23-7.62-4.14-9.22,3.07-15.84-.39-3.51-1.83-6.62-.77-8.32,.62-27.44,22.38-56.58,39.97-84.95,45.35-7.03,1.33-19.98-9.73-38.23-22.47-7.4-5.17-11.98,5.58-19.66,1.41-7.53-4.09-8.34-7.24-14.17-3.11-24.91,17.66-51.12,31.37-78.84,39.43,0,0-61.57-37.48-91.55-71.87-7.46-8.56-10.09,0-14.7-2.19-6.87-3.27-10.52-3.14-13.14-.75-17.91,16.39-140.53,96.44-183.55,108.73-53.27-26.12-122.07-76.77-146.09-106.48-1.85-2.29-3.58-3.33-10.93-1.13-4.39,1.32-7.9-8.34-14.36-1.72-24.42,25.02-63.87,54.36-66.19,52.65-3.28-2.42-21.18-17.02-34.69-30.72-6.56-5.07-10.3,3.27-15.78,.64-6.21-2.98-11.97-1.71-14.08,.56C73.46,124.99,30.88,157.64,.5,176.28V487.03H1358.8V145.75Z"/>
  <path class="oceanRockDarker" d="M1358.8,261.65c-137.6-101.7-176.6-151.24-237.78-222.63-8.42-9.82-17.25,.87-28.47-3.88-14.24-6.03-20.15,6.17-30.62,2.16-8.53-3.27-13.76,6.34-18.11,12.51C849.2,325.42,239.2,424.42,.5,716.58l1358.3,.72V261.65Z"/>
  <path class="oceanRockDark" d="M1358.8,717.73L.5,716.58V311.42C139.2,236.42,257.2,156.42,365.81,13.14c14.17-18.69,19.7-6.34,29.76-10.78,13.63-6.02,19.9,4.92,34.07,0,13.34-4.63,23.42,1.81,33.21,14.23,225.34,285.82,664.77,464.54,895.94,701.13Z"/>
  <g class="flatRedDark">
    <path d="M377.51,14.47c7.99,6.86,25.41-2.48,38.4,.79,10.73,2.7,27.4,2.5,33.62-2.17,2.21-1.66-8.24-3.36-15.55-1.95-9.47,1.83-22.74-3.41-34.08-.41-10.32,2.72-29.8-2.63-22.38,3.75Z"/>
    <path d="M1114.1,47.21c-7.62,5.4-20.01-2.41-30.25,.9-8.46,2.73-22.11,3.07-26.47-2.07-1.92-2.26,11.94-.8,17.06-2.26,7.37-2.1,17.2,1.97,25.02,0,8.3-2.09,17.68,1.29,14.65,3.44Z"/>
  </g>
</svg>