<svg viewBox="0 0 1359.23 401.4">
  <path class="oceanRockDarkest" d="M1358.23,400.9H.5V141.37c48.64-25.55,88.95-57.93,117.39-97.27,2.87-3.97,6.86-1.97,12.24-.78,6.77,1.51,9.85-7.07,15.58-1.57,20.33,19.53,72.89,37.8,74.4,36.88,32.83-19.75,64.24-46.21,90.98-76.12,2.02-2.26,4.45-3.49,13.36,1.11,6.18,3.19,10.77-4.99,16.32,1.29,22.07,24.99,64.89,54.55,69.47,54.97s16.89-7.96,16.89-7.96c3.45-2.81,6.18,2.29,7.84,1.18,2.99-2,6.02-.7,7.57,.57,24.94,20.35,56.07,36.74,81.86,41.64,6.39,1.21,32.91-17.01,47.51-31.11,5.9-5.7,10.89,5.07,17.87,1.28s7.58-6.58,12.88-2.83c22.64,16.05,46.48,28.52,71.68,35.85,12,3.49,55.97-34.08,83.22-65.34,6.78-7.78,9.18,0,13.37-2,6.24-2.97,9.57-2.86,11.95-.68,16.28,14.9,37.56,29.79,43.84,30.77,11.19,1.75,21.7-15.32,30.22-9.74,17.13,11.22,31.64,18.4,49.71,24.67,6.53,2.27,31.09-11.8,44.69-23.63,8.53-7.42,17.39,14.47,49.33,25.14,7.08,2.36,56.7-37.83,78.54-64.84,1.69-2.09,3.25-3.03,9.94-1.03,3.99,1.2,7.18-7.58,13.05-1.57,22.2,22.75,58.06,49.42,60.17,47.86,2.99-2.2,19.26-15.48,31.53-27.92,5.97-4.61,9.36,2.98,14.35,.58,5.65-2.71,10.88-1.56,12.8,.51,22.45,24.13,46.01,45.62,73.04,59.92,4.94,2.61,16.53-3.56,21.93-6.6,10.54-5.94,13.4,13.28,42.71,27.57l-.5,288.75Z"/>
</svg>