<svg viewBox="0 0 1272.32 726.74">
  <path class="snowglobeRoadDark" d="M862.49,198.38c-250.64-17.95-528.14-23.15-508.32-68.86C378.65,73,908,153.56,847.3,81.68c162.78.3,270-35.42,171.32-53.25-43.73-7.9,144.28-13.93,79.73,1.42-103.14,24.52,147.4,36,77.64,5.32-34.94-15.36,58.94-8,95.69-15.08-25.59,4.73-138.83-2.37-102.54,14.94,50.18,23.94-144,14.49-64.47-3.92,72.75-16.84-116.21-16.3-101-5.2-27.8-3.15-67.17-1.06-52.22-10.26C967.86,5.54,896.1,8.58,928.25.49c-35.44,8.09,35.07,5,15.43,15.84-26,14.35,69.32,7.84,91.54,24.68,21.69,16.44-123.74,30.72-211.78,25.49C799.1,65.06,568.07,46.73,591.38,34.76,641,9.27,349.37,12.32,180.72,25c118.78-10.1,436-12.24,402.8,5.38C531.46,58,785,70.29,809.39,83.74,838.9,100,673.64,88.85,516.78,82.25,345.42,75,178.54,103.81,223,85c46.7-19.73-89.23-8.29-74.54-16.76C176.89,51.88,73.61,49,0,52.16c70.66-3,171.35,2.31,143.82,15.13C114.78,80.82,225.92,74.21,207,80.13c-42.88,13.43-42.72,36.42,83.71,34C220.27,171,426.47,250.88,713.89,299.87c217.73,37.1,165,380.77-629.14,426.37H1169.32c109.16-122.82,120.11-318.89-25.78-435,45.43-4.67,92.11-15.87,128.28-32.37V180.91C1122.53,208.93,931.68,203.68,862.49,198.38Z"/>
</svg>
