<svg viewBox="0 0 1153 656.72">
  <rect class="ironDarker" x=".5" y=".5" width="1152" height="655.72"/>
  <g class="dullRedDarkest">
    <path d="m1071.73,456.94v-62.73c0-15.92-35.37-18.18-35.37-2.26,0-15.92-35.37-17.99-35.37-2.07,0-15.92-35.37-17.76-35.37-1.84,0-15.92-35.37-17.64-35.37-1.72,0-15.92-35.37-17.47-35.37-1.55,0-15.92-35.37-17.3-35.37-1.38,0-15.92-35.37-17.07-35.37-1.15,0-15.92-35.37-17.01-35.37-1.09,0-15.92-35.37-16.84-35.37-.92,0-15.92-35.37-16.61-35.37-.69,0-15.92-35.37-16.55-35.37-.63,0-15.92-35.37-16.26-35.37-.34,0-15.92-35.37-16.1-35.37-.18,0-15.92-35.37-16.01-35.37-.09,0-15.92-35.37-15.83-35.37.09,0-15.92-35.37-15.74-35.37.18,0-15.92-35.37-15.57-35.37.34,0-15.92-35.37-15.29-35.37.63,0-15.92-35.37-15.23-35.37.69,0-15.92-35.37-15-35.37.92,0-15.92-35.37-14.83-35.37,1.09,0-15.92-35.37-14.77-35.37,1.15,0-15.92-35.37-14.54-35.37,1.38,0-15.92-35.37-14.37-35.37,1.55,0-15.92-35.37-14.2-35.37,1.72,0-15.92-35.37-14.08-35.37,1.84,0-15.92-35.37-13.85-35.37,2.07,0-15.92-35.37-13.66-35.37,2.26v62.73h990.46Z"/>
    <path d="m1087.65,251.62v-115.56c0-11.5-25.56-6.92-25.56,4.58,0-11.5-25.56-7.36-25.56,4.15,0-11.5-25.56-7.7-25.56,3.81,0-11.5-25.56-7.83-25.56,3.68,0-11.5-25.56-8.31-25.56,3.19,0-11.5-25.56-8.44-25.56,3.06,0-11.5-25.56-8.65-25.56,2.85,0-11.5-25.56-9.05-25.56,2.45,0-11.5-25.56-9.12-25.56,2.38,0-11.5-25.56-9.39-25.56,2.11,0-11.5-25.56-9.6-25.56,1.9,0-11.5-25.56-9.87-25.56,1.63,0-11.5-25.56-10.01-25.56,1.5,0-11.5-25.56-10.35-25.56,1.16,0-11.5-25.56-10.55-25.56.95,0-11.5-25.56-10.62-25.56.88,0-11.5-25.56-10.82-25.56.68,0-11.5-25.56-10.89-25.56.61,0-11.5-25.56-11.33-25.56.17,0-11.5-25.56-11.39-25.56.11,0-11.5-25.56-11.62-25.56-.11,0-11.5-25.56-11.68-25.56-.17,0-11.5-25.56-12.11-25.56-.61,0-11.5-25.56-12.18-25.56-.68,0-11.5-25.56-12.38-25.56-.88,0-11.5-25.56-12.45-25.56-.95,0-11.5-25.56-12.66-25.56-1.16,0-11.5-25.56-13-25.56-1.5,0-11.5-25.56-13.13-25.56-1.63,0-11.5-25.56-13.4-25.56-1.9,0-11.5-25.56-13.61-25.56-2.11,0-11.5-25.56-13.88-25.56-2.38,0-11.5-25.56-13.95-25.56-2.45,0-11.5-25.56-14.36-25.56-2.85,0-11.5-25.56-14.56-25.56-3.06,0-11.5-25.56-14.69-25.56-3.19,0-11.5-25.56-15.18-25.56-3.68,0-11.5-25.56-15.31-25.56-3.81,0-11.5-25.56-15.65-25.56-4.15,0-11.5-25.56-16.08-25.56-4.58v115.56h1022.3Z"/>
  </g>
  <g class="dullRedDarker">
    <path d="m1096.7,557.3v-115.44c0-18.73-41.62-23.11-41.62-4.38,0-18.73-41.62-22.68-41.62-3.95,0-18.73-41.62-22.07-41.62-3.35,0-18.73-41.62-22.01-41.62-3.29,0-18.73-41.62-21.47-41.62-2.74,0-18.73-41.62-21.1-41.62-2.37,0-18.73-41.62-20.8-41.62-2.07,0-18.73-41.62-20.37-41.62-1.64,0-18.73-41.62-20.13-41.62-1.4,0-18.73-41.62-19.7-41.62-.97,0-18.73-41.62-19.34-41.62-.61,0-18.73-41.62-19.06-41.62-.33,0-18.73-41.62-18.73-41.62,0,0-18.73-41.62-18.4-41.62.33,0-18.73-41.62-18.11-41.62.61,0-18.73-41.62-17.75-41.62.97,0-18.73-41.62-17.33-41.62,1.4,0-18.73-41.62-17.08-41.62,1.64,0-18.73-41.62-16.66-41.62,2.07,0-18.73-41.62-16.35-41.62,2.37,0-18.73-41.62-15.99-41.62,2.74,0-18.73-41.62-15.44-41.62,3.29,0-18.73-41.62-15.38-41.62,3.35,0-18.73-41.62-14.77-41.62,3.95,0-18.73-41.62-14.35-41.62,4.38v115.44h1040.4Z"/>
    <path d="m576.5,263.4c179.65,0,355.51-4.06,526.18-11.84v-80.08c0-13.53-30.07-10.3-30.07,3.23,0-13.53-30.07-10.53-30.07,3,0-13.53-30.07-10.75-30.07,2.79,0-13.53-30.07-10.96-30.07,2.57,0-13.53-30.07-11.12-30.07,2.41,0-13.53-30.07-11.4-30.07,2.13,0-13.53-30.07-11.56-30.07,1.97,0-13.53-30.07-11.75-30.07,1.78,0-13.53-30.07-11.9-30.07,1.63,0-13.53-30.07-12.09-30.07,1.44,0-13.53-30.07-12.37-30.07,1.16,0-13.53-30.07-12.47-30.07,1.06,0-13.53-30.07-12.65-30.07.88,0-13.53-30.07-12.81-30.07.72,0-13.53-30.07-13.08-30.07.45,0-13.53-30.07-13.13-30.07.4,0-13.53-30.07-13.32-30.07.21,0-13.53-30.07-13.53-30.07,0,0-13.53-30.07-13.74-30.07-.21,0-13.53-30.07-13.93-30.07-.4,0-13.53-30.07-13.98-30.07-.45,0-13.53-30.07-14.25-30.07-.72,0-13.53-30.07-14.41-30.07-.88,0-13.53-30.07-14.59-30.07-1.06,0-13.53-30.07-14.69-30.07-1.16,0-13.53-30.07-14.97-30.07-1.44,0-13.53-30.07-15.16-30.07-1.63,0-13.53-30.07-15.31-30.07-1.78,0-13.53-30.07-15.5-30.07-1.97,0-13.53-30.07-15.66-30.07-2.13,0-13.53-30.07-15.94-30.07-2.41,0-13.53-30.07-16.1-30.07-2.57,0-13.53-30.07-16.32-30.07-2.79,0-13.53-30.07-16.54-30.07-3,0-13.53-30.07-16.76-30.07-3.23v80.08c170.68,7.78,346.53,11.84,526.18,11.84Z"/>
  </g>
  <path class="dullRedDark" d="m576.5,557.3c246.02,0,456.01,38.56,538.56,92.82v-148.73c0-22.03-48.96-31.09-48.96-9.06,0-22.03-48.96-29.87-48.96-7.84,0-22.03-48.96-28.79-48.96-6.76,0-22.03-48.96-27.77-48.96-5.73,0-22.03-48.96-26.92-48.96-4.89,0-22.03-48.96-26-48.96-3.96,0-22.03-48.96-25.24-48.96-3.2,0-22.03-48.96-24.52-48.96-2.49,0-22.03-48.96-23.8-48.96-1.77,0-22.03-48.96-23.09-48.96-1.05,0-22.03-48.96-22.36-48.96-.32,0-22.03-48.96-21.71-48.96.32,0-22.03-48.96-20.98-48.96,1.05,0-22.03-48.96-20.26-48.96,1.77,0-22.03-48.96-19.54-48.96,2.49,0-22.03-48.96-18.83-48.96,3.2,0-22.03-48.96-18.07-48.96,3.96,0-22.03-48.96-17.14-48.96,4.89,0-22.03-48.96-16.3-48.96,5.73,0-22.03-48.96-15.27-48.96,6.76,0-22.03-48.96-14.19-48.96,7.84,0-22.03-48.96-12.97-48.96,9.06v148.73c82.55-54.26,292.54-92.82,538.56-92.82Z"/>
  <path class="dullRedMediumDark" d="m1123.7,656.22v-65.23c0-25.92-57.6-56.46-57.6-30.54,0-25.92-57.6-45.29-57.6-19.37,0-25.92-57.6-40.14-57.6-14.22,0-25.92-57.6-36.88-57.6-10.96,0-25.92-57.6-34.09-57.6-8.17,0-25.92-57.6-32.25-57.6-6.33,0-25.92-57.6-30.41-57.6-4.49,0-25.92-57.6-28.98-57.6-3.06,0-25.92-57.6-27.32-57.6-1.4,0-25.92-57.6-25.92-57.6,0,0-25.92-57.6-24.52-57.6,1.4,0-25.92-57.6-22.86-57.6,3.06,0-25.92-57.6-21.43-57.6,4.49,0-25.92-57.6-19.59-57.6,6.33,0-25.92-57.6-17.76-57.6,8.17,0-25.92-57.6-14.96-57.6,10.96,0-25.92-57.6-11.7-57.6,14.22,0-25.92-57.6-6.55-57.6,19.37,0-25.92-57.6,4.62-57.6,30.54v65.23h1094.4Z"/>
  <path class="ironMediumDark" d="m29.3,656.21c75.69-57.45,292.07-98.91,547.2-98.91s471.52,41.47,547.2,98.91H29.3Z"/>
  <path class="ironDarkest" d="m.5,249.18v11.91c187.26,6.78,379.69,10.31,576,10.31s388.74-3.53,576-10.31v-11.91c-186.21,9.33-378.82,14.22-576,14.22S186.71,258.5.5,249.18Z"/>
  <g class="ironDark">
    <path d="m.5,208.21v40.97c186.21,9.33,378.82,14.22,576,14.22s389.79-4.9,576-14.22v-40.97c-182.01,14.1-375.46,21.69-576,21.69S182.51,222.31.5,208.21Z"/>
    <path d="m.5.5c0,79.53,257.88,144,576,144S1152.5,80.03,1152.5.5H.5Z"/>
  </g>
</svg>