<svg viewBox="0 0 131.98 292.24">
  <g class="sockWhite">
    <path d="M36.63,241.22l-.82,8c-2.29,2.38-12.5,2.48-14.57-1l.52-10.55Z"/>
    <path d="M49.92,245.87l.5,8.21c-1.88,2.72-12,4.29-14.57,1.17l-1.18-10.5Z"/>
  </g>
  <g class="soleWhite">
    <path d="M40.32,261.47a13.15,13.15,0,0,1,.25,5.72c-1.81,4.6-9,5.3-15.58,10-7.47,5.26-16.94,6.62-21,4.4-6.1-3.28-4-10.52,1.85-13.27Z"/>
    <path d="M56.81,265.26A13.22,13.22,0,0,1,58,270.87c-1.06,4.83-7.95,7-13.73,12.66-6.53,6.39-12.07,10.51-20.13,7.39-6.46-2.5-5.66-10.48-.3-13.4Z"/>
  </g>
  <g class="bennettShoe">
    <path d="M36.75,247.12c.42,8.26,2.59,7.1,3.57,14.35-.41,3.18-5.2,6.83-11.13,8.92-6.65,2.34-7.63,4.19-12.14,5.91-2-5-7.94-8.27-11.26-8,5.54-3.14,7.26-5.91,10.36-11.52,2.65-4.79,2.21-3.1,3.35-9.43.39-3.2,6.71-1.79,6.27,2.37C30.12,250.89,35.08,249.71,36.75,247.12Z"/>
    <path d="M50.82,250.74c1,8.22,3.86,7.53,6,14.52.1,3.21-4.2,7.31-9.55,10.6-6,3.4-6.76,6-10.94,8.43a14.76,14.76,0,0,0-12.5-6.77c5-4,6.22-7,8.38-13,1.84-5.15,1.87-4,2-10.42.06-3.79,6.13-3.21,6.37,1C45,255.51,49.59,253.57,50.82,250.74Z"/>
  </g>
  <g class="shoelace">
    <path d="M16.15,256.76a34.71,34.71,0,0,1-4.94,7.44,22.18,22.18,0,0,1,6.26,2.85,44.37,44.37,0,0,0,7.12-11.66A46.87,46.87,0,0,0,18.22,253C17.8,253.9,17.19,254.87,16.15,256.76Z"/>
    <path d="M32.2,264.49a35.65,35.65,0,0,1-3.68,8.14c2.11.09,5.34.76,6.63,1.8a43.92,43.92,0,0,0,5.16-12.65,24.68,24.68,0,0,0-6.66-1.29C33.37,261.41,32.93,262.46,32.2,264.49Z"/>
  </g>
  <path class="converseLogo" d="M32.26,264.32c1.55-4.32,1.77-4.07,1.88-8.13a2.7,2.7,0,0,0-3.15-.71C26.64,257.21,28.19,265.07,32.26,264.32Z"/>
  <g class="backpack">
    <path class="backpackMedium" d="M124.82,120.71c2,0,4.66,2.16,5,4.87.8,5.89,2,12.63,1.49,19.84-.28,3.83,1,11.66,0,18.41-.75,5-4.09,5.26-6.52,6.25C122.94,151.74,122.62,123.86,124.82,120.71Z"/>
    <polygon class="backpackZipperPull" points="129.44 134.53 128.16 134.72 128.82 141.62 130.62 141.34 129.44 134.53"/>
    <path class="backpackZipperTeeth" d="M124.83,121.56c2.94,1,3.57,4.1,3.91,7,.25,2,.31,3.69.7,5.95l-1.28.19c-.26-2.16-.27-3.53-.42-5.85-.19-2.87-1.06-5.73-2.91-6.58Z"/>
    <path class="backpackPocket" d="M125.76,135.59c1.44,8.95,0,15.61.49,24.44.37,6.17-1.26,12.71-4.8,13.36-4.2.77-5.86,2.32-11.94.88l-.77-36.58C114,135.52,120.46,133.82,125.76,135.59Z"/>
    <path class="backpackLight" d="M86.75,80.88c16.35-.88,33.12,4.6,35.47,22.11.89,6.61,3,12.48,2.55,20.88-.11,4.35.77,6.86,1,11.72-4-.22-11.16,2.43-17,2.1Z"/>
    <g class="backpackAdjusterDark">
      <path d="M93.8,71.5c.28,3-1.87,6.31-1.08,11.47L94.94,84c-.23-3.71,1.62-6.29,3.58-8.27A8.38,8.38,0,0,0,93.8,71.5Z"/>
      <path d="M83.29,71.2c2,3.19,4.79,5.43,5.07,11.26l1.34-.17c-.14-4.85-.21-9-1.82-11.23A15.93,15.93,0,0,1,83.29,71.2Z"/>
    </g>
    <path class="backpackCreaseLine" d="M96.42,81.15a19.54,19.54,0,0,1,9.12,8.73"/>
    <path class="backpackOverlapLine" d="M102.37,82.24c6.59,3.79,11.12,8.69,13.5,14.82,4,10.36,3.71,24.21,4.91,39.07"/>
  </g>
  <path class="shirtWhite" d="M112.55,147.86C86,213.87.84,41.44,107.05,97.79,113,108,112.76,126.63,112.55,147.86Z"/>
  <g class="overalls">
    <path d="M112.15,156.06c2.41-2.55.21-5.23.85-9-4.46,8.05-12.76,15.69-15.66,15.08-7.8-1.68-21.88-50.83-21.88-50.83-5.31,2.46-14.59,2-19.19,0-1.3,12.7-3.28,16-1.69,20.5,3.89,9.37,1.83,13.58,4.3,14.81-3.27,3.69-4.4,9-1.39,11.77-2.08,3.54,1.52,8.21,1,9.86-.45,1.48-3.72.46-3.72,3-1.5-.12-3.71,1.39-3,2.9-12.41,7.3-27.66,14.19-30,23.66-2.18,8.65-1.44,19.26-1.63,27.26-.16,6.84-2.54,10.92-2.2,17.51.34,1.36,6.75,3.34,10.8,3.1.17,5.64,17.73,5.83,24.12,2.44-.82-13.89,2.07-27.72.69-36.53,1.89-.71,2.32-2.24,1.8-4.29a2.88,2.88,0,0,0,3.87-.83c1.36,2.22,3.72-.54,7.06-.13,21.95,2.7,38,1.9,44-13,4.87-9.79.46-19-.27-27.39C109.74,162.34,113.22,159.93,112.15,156.06Z"/>
    <path d="M71.66,125.26A41.89,41.89,0,0,1,57.87,124a39.29,39.29,0,0,0,1.92,12.82,12.6,12.6,0,0,0,2.59,2.38,35.36,35.36,0,0,0,8.38,1A11.41,11.41,0,0,0,73,138,127.39,127.39,0,0,1,71.66,125.26Z"/>
    <path d="M74.2,102.89c.67-6.74,3.44-13,8-17-6.69,4-11,11.61-12,23.28.09.68,2.54.6,3.68,0A61.24,61.24,0,0,1,74.2,102.89Z"/>
    <path d="M56.46,108.89c1.27.31,2.6.32,2.6-.23,0-7.79.7-16,3.89-23C57.75,91.71,57.13,100.16,56.46,108.89Z"/>
  </g>
  <path class="overallsFlap" d="M71.66,125.26q-.06-1-.09-2A40.29,40.29,0,0,1,58,122c-.05.66-.07,1.33-.08,2A41.89,41.89,0,0,0,71.66,125.26Z"/>
  <g class="clothingSilver">
    <ellipse cx="72.79" cy="116.19" rx="1.83" ry="1.89"/>
    <ellipse cx="56.99" cy="115.25" rx="1.83" ry="1.89"/>
  </g>
  <g class="backpackAdjusterLight">
    <path d="M83.45,66.94c1.67-.75,9.38-.18,11,.69,2.49,1.37,4.89,6.29,4.09,8.13-4-7.58-12-3.72-15.23-4.56C83,70.4,82.26,67.48,83.45,66.94Z"/>
    <path d="M97.33,143.27c4.31,6.63,8.88,13.26,13.68,18.39.45,3-.69,4.11-.57,6.62a148.61,148.61,0,0,1-17.06-22.91Z"/>
  </g>
  <g class="backpackStrap">
    <path d="M98,86.94l-14.51,22.4c.94,11.88,4.66,17.6,12.65,27.45,1.86,2.3-.14,4.39,1.16,6.48a4.37,4.37,0,0,1-4,2.1c-2.13-2.6-3-1.2-6.22-4.49-11.25-11.6-14.36-23.93-13-38,.93-9.33,5.88-17.76,14.16-20.43C91.15,81.55,97,84.55,98,86.94Z"/>
    <path d="M68.44,81.12C54,89.36,58.19,106.92,54.83,122c-4.16-13.77-2.51-30.65,6.75-40.43C62.09,80.81,66.71,80.36,68.44,81.12Z"/>
  </g>
  <g class="bennettSleeves">
    <path d="M61.58,81.57,40.15,66.09c5.41-9.49-14.5-12.61-15.55-9.57-2.49,7.18-2.82,15.56-.06,18.83C37,90.08,44.88,92.66,53.29,99.54,54.41,92.66,57.11,86.29,61.58,81.57Z"/>
    <path d="M98.33,87.42c-10.1-3.47-17.89,8-14.81,21.92-.87,1.44-.78,2.34,0,2.85-2,13.12-6.25,12.34-3.78,14.89A17.26,17.26,0,0,0,78.12,134c-2.7.31-1.67,3.08-2.16,4.86-.4,1.47-2.85,1.54-1.39,4.4-3.24,1.38-.14,3-3.45,6.4,1.61,3.68,14.65,9.15,16.39,7.75a75.45,75.45,0,0,0,6.76-13.92c2.29-6.9,4.22-16.82,6.65-25.72C112.14,106.64,108.36,92.38,98.33,87.42Z"/>
    <path d="M82.25,85.91,63,85.61h0a36.6,36.6,0,0,0-2,5.75c2.48,3.46,8.92,4,13.44,2.81A21.65,21.65,0,0,1,82.25,85.91Z"/>
  </g>
  <g class="clothesDisplayLine">
    <path d="M36.32,284.29c-6,5.09-15.08,5-16.68,1.46"/>
    <path d="M17.05,276.3c-5.21,2.77-14.5,2.32-16.73.54"/>
  </g>
  <g class="clothesOverlapLine">
    <path d="M28.72,245.71a19.29,19.29,0,0,1,.33-7c1-4.67-1.24-34.37,2.67-42.92,3.71-8.12,27.14-17.63,43.61-21.92,1.19-1.83,3.43-2.52,6.38-2.44a27.84,27.84,0,0,1,14.85-2.09"/>
    <path d="M23.37,258.07a54.74,54.74,0,0,0-6.54-2.52"/>
    <path d="M22,260.67a61.67,61.67,0,0,0-6.62-2.47"/>
    <path d="M20.56,262.94a24.55,24.55,0,0,0-6.51-2.53"/>
    <path d="M19,265.11a31.94,31.94,0,0,0-6.21-2.85"/>
    <path d="M25.77,249.7a22.88,22.88,0,0,1-1.18,5.69"/>
    <path d="M39.53,264.63a26.1,26.1,0,0,0-6.86-1.44"/>
    <path d="M38.57,267.42A24,24,0,0,0,31.64,266"/>
    <path d="M37.54,269.89a24.82,24.82,0,0,0-6.83-1.46"/>
    <path d="M36.37,272.27a19.47,19.47,0,0,0-6.58-1.81"/>
    <path d="M40.55,255a31.06,31.06,0,0,1-.24,6.74"/>
  </g>
  <g class="eye">
    <circle class="sclera" cx="56.42" cy="54.26" r="7.76"/>
    <ellipse class="irisDarkBrown" cx="55.77" cy="55.19" rx="2.45" ry="2.91" transform="translate(-7.61 8.94) rotate(-8.58)"/>
    <ellipse class="pupil" cx="55.32" cy="55.26" rx="0.95" ry="1.13" transform="translate(-7.63 8.87) rotate(-8.58)"/>
  </g>
  <g class="skinEastAsian">
    <path d="M67.43,176.13h0c6.91-5.22,13.5-10.55,19.13-18.55-3.17,0-12-3.83-14.78-7C65.38,159.33,60,171.77,57,174.29c-7.9,6.15-14.46,5.22-14.54,12.31h0A140.08,140.08,0,0,1,67.43,176.13Z"/>
    <path d="M48.59,22.9C45,37.48,43.38,54.58,40.31,62.25c-2.59,4.38-16.08.07-15-5.13,3.29-9.76,11.62-17.91,15.91-33.06"/>
    <path d="M57.28,78c-.15.58,4.38,3.06,5.83,7.44,1.08,5.64,9.79,5.65,18,1.49a18.14,18.14,0,0,1,6.33-4.17h0c-1.31-3.53-2.93-9.38-2.6-12.29.48-4.18,3-8.11,7-15"/>
    <path d="M75.26,72.76C74.17,76.49,68.52,81.53,64.82,83c-4.49,1.82-7.08,3.68-12,3.27-5.3-.44-5.86-4.58-7.72-6.25-2.68-2.39-8.55-11.73-5.9-22.69,1.41-5.78-5.17-8.44.19-27.45,21.4-26.43,69.89,15.76,44.23,32-.89,1.67-3.75,6.39-7.09,3.86M52.69,56.32a7.38,7.38,0,0,0,9-1.61c-3.42-.57-5.5-2-7.36-1.41-1.46.46-1.55.82-2.74,2C51.11,55.7,52.28,56.12,52.69,56.32Z"/>
  </g>
  <path class="lipMaleMedium__noStroke" d="M45.9,71.81a4,4,0,0,0,4.35.27c1.49,1.89,3.37,1.52,5.35,3.39-2.26.31-2.26,4-7.3,3-2.87-.6-3.4-2.6-2.18-4.29C46.54,73.2,44.5,73,45.9,71.81Z"/>
  <path class="teeth" d="M52.64,74.76c-1.28-.32-2.58-1.29-3-1.06a2.64,2.64,0,0,1-3,0,.66.66,0,0,1-.07.26c1.28.64,1.49,1.22,2.14,1.31C49.91,75.47,50.58,74.61,52.64,74.76Z"/>
  <g class="lipOverlapLine">
    <path d="M55.69,75.49c-1.17-.23-2.1-.45-3-.73"/>
    <path d="M46.55,74c-.44,0-1,.62-1.7.93"/>
    <path d="M46.62,73.71a1.63,1.63,0,0,1-.68-.65"/>
  </g>
  <g class="lipEdgeLine">
    <path d="M50.25,72.08a4,4,0,0,1-4.35-.27"/>
    <path d="M51.92,78.22c-.64,0-4.46,1.78-6.13-1.67"/>
  </g>
  <path class="cheekLine" d="M55.09,74.79a2.93,2.93,0,0,1,1,1.82"/>
  <g class="noseLine">
    <path d="M52.75,68.43a2.23,2.23,0,0,0-.36-3.62"/>
    <path d="M47.24,68.06a5.2,5.2,0,0,1,3.54.53"/>
    <path d="M45.5,60.74C44.86,63,42.22,66,43.77,68c1.23,1.57,3.13,1.51,4.69.43"/>
  </g>
  <path class="eyeFoldLine" d="M53.35,58.27c3,2.16,4.95.11,6.16,0"/>
  <path class="eyeCornerLine" d="M61.67,54.71a9.27,9.27,0,0,0,1.51.07"/>
  <g class="eyebrowBlack">
    <path d="M48.65,47.19C53.5,48.57,59,46,62.62,51,56.94,47.81,51.88,51.11,48.65,47.19Z"/>
    <path d="M38.12,50c1.71-.19,3.63-.78,4.28-2.5a24.43,24.43,0,0,1-4.65.79A16.34,16.34,0,0,0,38.12,50Z"/>
  </g>
  <path class="eyepatch" d="M37.88,48.92c.63,3.2,2.06,5.41,1.32,8.44a26,26,0,0,0-.72,5.73c3.75-.8,7.1-3,7.17-6.87C45.72,51.68,42,49.38,37.88,48.92Z"/>
  <path class="eyepatchGauze" d="M38.73,59.83c2.24-.33,4.2-1.85,4.2-3.68s-1.82-3.77-4.22-4.06a4.07,4.07,0,0,0-.58,2.3c-.05.8.6,1,.8,1.34-.94,1.37-.58,1.5-.33,2.28C38.73,58.39,38.45,59.14,38.73,59.83Z"/>
  <path class="hairBlack" d="M58.46,43.92C62.88,48,64,45.92,67.72,46c3.61,2.37,4,2.58,3.84,6.83a28.44,28.44,0,0,0,6.24-1.5c1.43-6.17,8.87-4.34,10,.21.94,3.8-1.11,6.22-4.17,10.37.79,1.2,3.65,1.79,5,1.68C96.32,57.47,99.83,42,96.49,31.76A31.51,31.51,0,0,0,62,10.51c.11-2.93,3.7-9,6.3-10.2-3.19.15-7.91,5.62-9.56,9.74a6.92,6.92,0,0,0-8.88-2.87c2.08-.82,6.26,2.37,6.64,4.59-19.09,5.47-13.8,12.73-28.4,19.34,1.82,1.12,6.12-.19,7.63-1.12-1.57,2.15-.66,8.1,1.67,9.83a69.15,69.15,0,0,1,2-9.13A17.59,17.59,0,0,0,47,50.15a15.1,15.1,0,0,1-2.22-5.45c4.17,4,13.61-.27,18,4.17A23.42,23.42,0,0,0,58.46,43.92Z"/>
  <g class="hairOverlapLine">
    <path d="M67.72,46a15.42,15.42,0,0,1,5.08,1,14.5,14.5,0,0,0-3.86-3.36"/>
  </g>
  <g class="clothesFoldLine">
    <path d="M58.88,146.63a10,10,0,0,0,4.7,1.45"/>
    <path d="M57.49,158.4c1.75.58,4.6.5,6.91,2.1"/>
    <path d="M93.33,164.6a31.23,31.23,0,0,1-13,.49"/>
    <path d="M74.57,143.21c6.66-1.64,10.1,4.62,1.22,2.42"/>
    <path d="M72.88,145.39c.3,2.26,3.46,3.47,6.28,5.21"/>
    <path d="M74.85,140.19c2.51-1.48,5.16-1.27,7.89,0"/>
    <path d="M80.19,136.61c-1.68-.11-3.33-.2-4.07.9"/>
    <path d="M94.51,125.05c-3.93,6-9.71,9.36-16.39,8.9"/>
    <path d="M79.74,127.08c1.06-1.34,4.44-1.54,7.75-4.5"/>
    <path d="M99.12,104.69c-.74,7-13.12,15.8-17.76,18.78"/>
    <path d="M102.49,106.34a31,31,0,0,1-1.57,11.38"/>
    <path d="M91.41,100.49a53.58,53.58,0,0,0-7.89,8.85"/>
    <path d="M87.28,108a8.42,8.42,0,0,0-3,3.72"/>
    <path d="M87.76,96c-2.25,2.1-4,5.16-4.81,9.7"/>
    <path d="M51.89,86.18a43,43,0,0,0,.45,6.74"/>
    <path d="M49.18,85a9.27,9.27,0,0,0,.41,3.25"/>
    <path d="M41.61,75.79c.74,2.11,1.44,4.17,1,5.44"/>
    <path d="M38.37,70.15c-.74,7-1,13.67,3.79,17.68"/>
    <path d="M37.41,68.5c-7.22,5.71-17.2,4.2-2.68-.21"/>
    <path d="M36.59,66.16a36.75,36.75,0,0,1-10.53,1"/>
    <path d="M60.66,163.47a16.86,16.86,0,0,1,3.18,0"/>
    <path d="M93.89,170.93c3.51.06,7.62,1.85,12,4.29"/>
    <path d="M81.71,171.39c5.21.59,10.72,2.63,16.43,5.68"/>
    <path d="M101.78,181.52c-.42-1.45-12-7.72-9.35-2.82"/>
    <path d="M75.33,173.83C81,171.64,89.09,177.66,94,184.12"/>
    <path d="M85.52,178.48a30.51,30.51,0,0,1,9.35,14"/>
    <path d="M54.8,171.28a4.14,4.14,0,0,1,2.67.67"/>
    <path d="M62,200.44c-6.23-.37-11.79-1.83-16.18-5.19"/>
    <path d="M59.2,206.5c0-1-1.64-2.48-3.58-4.05"/>
    <path d="M42.41,202.45c2.89,1.26,8.21,4.15,4.53,4.82"/>
    <path d="M53.53,211.62c-1,.4-3.55-3.68-3.25.55"/>
    <path d="M55.33,207.33c-2.23-1.84-5.81-7.71-7.43-6.67S51,204,53.69,206.82"/>
    <path d="M50.28,239c-1.65,2-2.81,4.28-1.41,7.49"/>
    <path d="M48.5,225.38C45,235.68,41.13,245,32.24,242.52"/>
    <path d="M29.32,228.13c-2,4.57-4.37,9-7.56,9.54"/>
    <path d="M38.93,55.73a6.93,6.93,0,0,1,1.17,1.13"/>
  </g>
  <path class="skinEastAsian" d="M37.39,24.74c-3.87-2.64-.87-6.88,1.82-5.89-1.34-2.87,3.26-4.37,3.92-3.51-1.08-2.74,3.48-4.44,4.61-3.49.24-1.09,3.41-2.92,5.1-.44.85,0,2.79-1,3.64.42-.86.24-1.89.57-2.72.84,2.72,3.25-.62,5-2.26,4.26,1,2.62-3.64,4.89-5.62,1-.38-.75-.59-.42-1.05-.76.44.74.25.89.68,1.8,1.84,2.34-2.79,5-4.57,1.74,1,2.21-1,3-2.53,3C38.16,23.93,37.65,24.48,37.39,24.74Z"/>
  <g class="skinOverlapLine">
    <path d="M52.84,11.41c.47.55.51.83.92,1.26"/>
    <path d="M47.74,11.85c2.49,1.38,2.85,3.7,3.76,5.08"/>
    <path d="M43.13,15.34a11.15,11.15,0,0,1,1.7,1.79"/>
    <path d="M39.21,18.85a3.58,3.58,0,0,1,1.73,1.82"/>
    <path d="M38.41,23.66a2.82,2.82,0,0,1-1.4-.37"/>
  </g>
  <g class="skinFoldLine">
    <path d="M78.66,53.39c3.11-8,12.1-1.53,5,6.18"/>
    <path d="M78.93,55.43c2,1.76-1.69,5.28.2,5.58,1.12.17-.13-1.84,2.82-3.08s1.15-5.65-.47-4.48"/>
  </g>
</svg>
