<svg id="presence" xmlns="http://www.w3.org/2000/svg" viewBox="0 0 1182.44 3062.46">
  <defs>
    <style>
      .cls-1 {
        fill: #305e66;
      }

      .cls-1, .cls-2, .cls-3, .cls-4, .cls-5 {
        stroke: #000;
        stroke-miterlimit: 10;
        stroke-width: 2px;
      }

      .cls-2 {
        fill: #99745f;
      }

      .cls-3 {
        fill: #8a6754;
      }

      .cls-4 {
        fill: none;
      }

      .cls-5 {
        fill: #4596ad;
      }
    </style>
  </defs>
  <title>collecting</title>
  <g id="bottle">
    <path id="labelReverse" class="cls-1" d="M199.76,206.88c-2.18,4.15-18.27.21-39.1-8.94l-.07.18L88.78,334.43c20.72,9.33,36.56,13.73,38.47,10.11Z"/>
    <path id="bottleSide" class="cls-2" d="M127.34,114.47c8.34-2.33,17.49-6.46,26.37-18.63q25.13-36,49.74-74.16c-2.54-2.49-3.73-4.56-3.09-5.77l7.27-13.8c1.59-3,13.8.3,27.28,7.4S258,24.81,256.44,27.82l-7.27,13.8c-.64,1.21-3,1.4-6.51.72q-17.55,41.89-33,83c-5,14.21-3.24,24.09-.46,32.28,5.25,13.59,4.11,23.61-5.84,42.5L109.67,377.92C97.94,400.48-10,343.6,1.92,321.16L95.6,143.33C105.55,124.44,113.17,117.83,127.34,114.47Z"/>
    <ellipse id="bottleBottom" class="cls-3" cx="52.5" cy="355.81" rx="11.89" ry="53.17" transform="translate(-286.77 236.43) rotate(-62.22)"/>
    <path id="bottleCreaseLine" class="cls-4" d="M203.45,21.68a112.09,112.09,0,0,1,39.21,20.66"/>
    <path id="label" class="cls-5" d="M199.76,206.88c2.85-5.41-19-22.5-48.71-38.17-7-3.71-13.89-7-20.28-9.8h0L57.63,297.75c6.37,2.85,13.2,6.18,20.24,9.89,29.75,15.67,51.86,32.19,49.38,36.9Z"/>
  </g>
  <g id="willyShoe">
    <path class="cls-4" d="M648.51,2896.32c7.37,39,8.75,76.53-.22,111.35-63,85.84-386.32,2.77-354.45-88,29.48-13,52.22-7,90-11.74,42.92-11.15,82.68-32.72,120.56-60.49Z"/>
    <path class="cls-4" d="M895.2,2646.63c29.28,28.74,51.52,61.08,61.52,99.7,32,73.19-302.2,249.09-297.6,137.5l106.09-205.45Z"/>
  </g>
  <g id="willySole">
    <path class="cls-4" d="M648.29,3007.67c-1.84,19.42-6.42,36.52-17.13,48.44-51.8,16.33-141-9.4-228.63-14.79-57.62-3.55-145.89-44.71-150.59-71.18-1.77-22.94,21.76-47.06,41.9-50.5,27.51-.09,56.93,29.32,69.71,65,5,13.89,20.57,20.26,38.4,23,42.35,6.59,126.34,24.25,170,22.47C600.7,3029,625.52,3022.73,648.29,3007.67Z"/>
    <path class="cls-4" d="M659.12,2883.83l-20,61.33c109.1,29.05,159.72-62.09,220.13-77.46,46.18-11.76,99.41-37.45,111.68-64.56,4.52-18.72-4.81-39.17-14.2-56.81-11,82.63-114,96.63-149.12,124-35.83,27.89-71.91,46.32-103.29,47.12C690.37,2901.21,675.55,2888.93,659.12,2883.83Z"/>
  </g>
  <g id="willyShoelace">
    <path class="cls-4" d="M518.28,2899.3c-17.29-14.74-35.6-24.31-55.78-24.41h0c-25.16,14.52-51.27,25.89-78.68,33,18.81,3.38,34,13.33,46,28.9C461.49,2930.7,490.74,2917.51,518.28,2899.3Z"/>
    <path class="cls-4" d="M693.19,2817.85c12.9,1.5,25.31,7.35,37.31,17,27.09-22.89,49.5-49.38,68.52-78.41-18.76-15.64-50.54-23.71-63.16-21.18Z"/>
  </g>
  <g id="clothesOverlapLine">
    <path class="cls-4" d="M446.65,2932.84c-13.84-14.39-29-24.17-45.17-30.17"/>
    <path class="cls-4" d="M462.87,2927.64c-15.82-14.69-32-25.18-49.31-29.27"/>
    <path class="cls-4" d="M477.34,2921.83c-15-15-31.72-25.12-51.64-28.39"/>
    <path class="cls-4" d="M506.05,2907c-17.45-14.53-35.71-24.23-56-25.23"/>
    <path class="cls-4" d="M491.4,2915.11c-14.07-14.77-31.17-24.82-53.4-27.27"/>
    <path class="cls-4" d="M789,2771.05c-17.48-13.91-37.19-22.27-60.25-22"/>
    <path class="cls-4" d="M778.63,2784.79c-20-13.73-39.32-22-57-21.94"/>
    <path class="cls-4" d="M767.4,2798.36c-16.69-12-34.17-20-52.64-22.27"/>
    <path class="cls-4" d="M756.51,2810.31a143.64,143.64,0,0,0-48.82-20.55"/>
    <path class="cls-4" d="M742.86,2823.83c-14.14-10.52-29-17-42.59-19.68"/>
  </g>
  <path id="willyPants" class="cls-4" d="M980.86,1539.7c4.3,29.65,22.81,43.33,12.82,58.71,12.69,84.82,25.64,253.25-27.18,346.36-10.56,79.44-81.58,257.48-79.73,280.68,5,63.24-21.17,70-17.55,97.28,4.16,31.31-18,53.72-20.49,81.67,20.33,31.34,45.91,61.36,34.72,103.33,19.48,41.5,81.31,32.18,26.26,121.11-.57,18.84,10.1,32.16,23.71,44-43.36,52-106.17,62.33-175.31,50.82-34.73,60.13-51.67,133.81-99.09,122,30.49,36.42,4.23,61.83.84,94-80.46.85-123.65-99.09-191.4-76.22-3.49-11.3,2.15-21.15,11-30.49-41.5,1.69-25.56-22.31-31.34-33.88-26.86-53.74,34.72-98.24,66.91-155.83l55.89-216c-54.2-92.32-78.55-188.15-87.23-202.42-30.61-50.33-28.79-138.89-48.27-236.29-20.16-36-27-101.38-34.73-156.68-8.45-60.45-27.95-101.64-16.09-166-11.85-21.72-1.69-66.06,0-108.41Z"/>
  <g id="clothesDisplayLine">
    <path class="cls-4" d="M601.1,1617.75c-31.58,124.77,10.72,122.23,15.43,162,1.77,14.91-8,41.52,0,65.42"/>
  </g>
  <g id="clothesOverlapLine-2" data-name="clothesOverlapLine">
    <path class="cls-4" d="M848.73,2404.4c-20.71,98-37.23,211-90.62,319.3"/>
    <path class="cls-4" d="M616.53,1845.15c-25.94,170.31,10.74,197.83-11.84,268.79-15.36,48.3-5.62,97.11-15.72,136.82-13.5,53,11.77,106.47-18,176.51"/>
  </g>
  <g id="clothesFoldLine">
    <path class="cls-4" d="M932.49,1803.35c-50.91,63.31-94.24,123.5-120.11,176.52"/>
    <path class="cls-4" d="M966.5,1944.77c-14,20.54-27.64,26.91-34.92,41.47"/>
    <path class="cls-4" d="M655.88,1803.35c47.68-33.77,108.33-55.44,176.52-70.06"/>
    <path class="cls-4" d="M638.59,1767.87c35.49-48.23,117.38-100.09,128.3-90.09,14.22,13-37.31,28.21-71,64.61"/>
    <path class="cls-4" d="M572.17,1769.68c-23.69-11.29-57.67-16.13-94.63-19.1"/>
    <path class="cls-4" d="M578.54,1799.71c-34.6,4.5-66.32,12.77-94.63,25.48"/>
    <path class="cls-4" d="M384.61,1665.88c9.22,16.45,21.43,27.49,20.13,43.75"/>
    <path class="cls-4" d="M435.43,1988.56c9.35,13.15,19.06,24.61,23.91,38.63"/>
    <path class="cls-4" d="M805.18,2316c-69.72-58.1-116.19-19.37-94.25,80.34"/>
    <path class="cls-4" d="M731.59,2069.4c-99.41,108.45,3.87,67.13-41.31,143.3"/>
    <path class="cls-4" d="M572.79,2273.38c-21.3,3-12.48,34.75,13.34,82.65"/>
    <path class="cls-4" d="M883.45,2507.73c-9.15,46.11,21.28,55.15-.92,89.69"/>
    <path class="cls-4" d="M909.71,2628.84C876.11,2660.3,836,2672.7,790.44,2669"/>
    <path class="cls-4" d="M804.42,2499.58C743.58,2649.21,649,2750.34,561.87,2646.75"/>
    <path class="cls-4" d="M515,2643.24c-8.25,37.22,27.92,89.84-37.85,80"/>
    <path class="cls-4" d="M659,2845.65c-50.28-23-114.41-72.83-121-54.2-3.51,9.93,22.12,27,50.15,45.22"/>
    <path class="cls-4" d="M466.5,2785.7c-15.32-32.14-8.24-43.76,30.42-35.36,51.25,11.15,107.47,3.11,139.77,36.18"/>
    <path class="cls-4" d="M771.49,2694.74c13.24-4.53,28.36-2.57,44.5,2.92"/>
    <path class="cls-4" d="M640.17,2860.61c-70.75-23.58-74.5.54-.53,30.56"/>
    <path class="cls-4" d="M479.47,2833c34.2-19.51,67.2,5.14,66.9,15.87-.43,15.09-17.69-26.27-59-14.47"/>
    <path class="cls-4" d="M993.68,1598.41c-7,7.14-17.47,13.87-33.08,20"/>
  </g>
  <path id="willyShirt" class="cls-4" d="M1137.34,991.09c-35.39,11.57-86.65,201.78-130.76,347.69-24,84.32,12.34,98.31-17.72,119.4-.55,27,22.71,42,9.18,61.81-7,10.28-11,20.62-8.84,29.74-179.29,80.09-480.7,94.83-614.32,17.87-9.88-22.57-5.36-45.52-15-62.65-15.78-12.36-5.14-39.76-7.52-49.28-38.55-154,13.09-250.94,17.54-319.94-12.77-15.93,12.66-41.26,10.86-56.8-3.82-32.89,1.36-71.86,9.19-112.77-21.58,3.48-41.68,1.85-60.39-4.65l-52.2-192.43c38.82-20.79,84.26-32.82,103.67-44,.7-29.49,33.43,1.11,51.95-24.46,17.82-24.6,25.24,6,42-9.85,11.8-30.43,21.72-2.65,55.46-15.55,73.43-28.78,217.3-39.68,286.76-20.83,72.38,19.64,168.89,44.8,206.39,91.3C1073.32,807.37,1102.88,887.77,1137.34,991.09Z"/>
  <g id="clothesOverlapLine-3" data-name="clothesOverlapLine">
    <path class="cls-4" d="M440.1,828.68c-17.09,57.69-42,92.7-50.18,137.48"/>
    <path class="cls-4" d="M900.6,832c-18.52,117.74,24.28,168.91,38,226.13a28.09,28.09,0,0,1,4.5-8.09"/>
  </g>
  <g id="clothesFoldLine-2" data-name="clothesFoldLine">
    <path class="cls-4" d="M423.74,978c63.52,18.24,131.87,28.31,204.32,31.44"/>
    <path class="cls-4" d="M517.17,1022.53c63.74,17.46,153.68,15.71,232.26,24.44"/>
    <path class="cls-4" d="M369.87,1135.73a153.88,153.88,0,0,0,22.44,24.76"/>
    <path class="cls-4" d="M352.33,1455.67c10.37,33.43,36.65,12.79,42.75-4.72"/>
    <path class="cls-4" d="M359.85,1505c21.24,14.25,41-8.52,48.3-23.68"/>
    <path class="cls-4" d="M672.65,1457.49c25.94,31.91,45.37,61.64,49.34,86.19"/>
    <path class="cls-4" d="M711.88,1476.51c24.28,32.19,50.28,58.9,79.65,74.89"/>
    <path class="cls-4" d="M712.48,1441.44c68,50.26,141.9,81.26,222.89,89.16"/>
    <path class="cls-4" d="M783.8,1456.3c66.11,35.93,129.46,29.67,190.21-16.64"/>
    <path class="cls-4" d="M988.86,1458.18c-32.68,28.44-102.23,51.62-11.88,51"/>
    <path class="cls-4" d="M919.92,1083.62c-22.56,31.55-50.83,55-86.19,68.36"/>
    <path class="cls-4" d="M967.38,1120.51c-41.52,7.1-88.07,34.24-122.35,62.38"/>
    <path class="cls-4" d="M815.9,914.22c34.7,16.27,61.73,39.37,80.13,70.15"/>
    <path class="cls-4" d="M846.21,862.51c7.18,22.48,18.38,41.17,35.07,54.69"/>
    <path class="cls-4" d="M865.83,823.88c-6.54,29.72,1.78,51.71,16,76.08"/>
    <path class="cls-4" d="M931.81,826.25c-10.42,19-17.64,39.35-20.21,61.82"/>
    <path class="cls-4" d="M954.39,860.13c.34,42.51-3.47,83-14.26,120.07"/>
    <path class="cls-4" d="M1006.7,816.74a455.47,455.47,0,0,0,80.83,112.34"/>
    <path class="cls-4" d="M475,690.77c4.12,11.8-.27,26.94-11,44.54"/>
    <path class="cls-4" d="M492,713.92c-1.82,20.58-12.53,49.25-29.72,83.8"/>
    <path class="cls-4" d="M433.12,732.94c8.56,18.65,10.23,43.67,7.13,73.11"/>
    <path class="cls-4" d="M391.51,752.55c18.65,26.51,31.6,56.24,36.85,90.35"/>
    <path class="cls-4" d="M502.66,804.26c-21.68,10-39.34,21-47,34.48"/>
    <path class="cls-4" d="M357.63,839.93a279.8,279.8,0,0,1,46.47,80.24"/>
    <path class="cls-4" d="M392.31,862.51c7.67,10.94,15.9,20.16,24.78,27.34"/>
  </g>
  <g id="skinLatino">
    <path class="cls-4" d="M1121.78,1632.46c20.43-134.69,66.58-285.59,58.78-431.51-3.59-67.06-21.7-138.32-49-208.51-13.28,5.37-59,5.45-100.37,19.42-36.4,12.3-75.62,13.95-88.06,38.22,14.61,49,34.27,97.86,56.83,146.57-12.22,160.81,27.86,276.9,27.23,437.25"/>
    <path class="cls-4" d="M99.8,502.14c19.55,129.12,102.37,190.15,141.78,291.13,15-9.63,21.72-16.6,37.52-22.06,48,38.69,44,67.35,62.31,120.56,8.72,25.32,19.23,44,16.42,63.41-58.6,29.63-190.8,35.91-207,22.42C14.15,863.86,40,700.73,11.63,510.68"/>
    <path class="cls-4" d="M576.24,630.21c1,11.72,3.87,24-.81,43-36.13,28.32-2.93,67.39,49.81,96.68C718,745.45,782.53,707.9,801,658.53c-14.57-18.09-17.95-41.54-17.53-68.36"/>
  </g>
  <path id="skinOverlapLine" class="cls-4" d="M241.58,793.27c5.56,24.37,8.28,47.06,1.79,66.16"/>
  <path id="skinFoldLine" class="cls-4" d="M999.93,1196.65c15.68-13.33,35.79-21,58.5-25.38"/>
</svg>
