<svg viewBox="0 0 364.64 527.26">
  <g class="soleWhite">
    <path d="M212.42,511.9c-.48,2.07-.64,4.5.38,5.67,2.4,2.74,8.06,3.37,13.63,6.08,6.8,3.31,26,2.86,31.26-2.64a7.84,7.84,0,0,0-.18-5.18Z"/>
    <path d="M205.89,515.48A10.78,10.78,0,0,1,206,521c-3.69,6.51-35.26,8.57-40.66,1.8a11.15,11.15,0,0,1-.75-5.92Z"/>
  </g>
  <g class="shoe">
    <path d="M239.88,490.71c3.56,5.81,7.19,11,11,14,5.5,3,7.44,6.77,6.62,11.09-1.61,5.1-23.44,7.88-32.48,2.78-2.68-1.52-8.23-3-12.61-6.71-.25-5,1.43-11.09,2.77-18.25Z"/>
    <path d="M202.31,492.4c-.36,9.48,3.58,14.4,3.58,23.08-3.22,7.6-35.87,8.94-41.33,1.43-1.43-10.56,9.22-8.77,10.74-25.77C182.87,487.32,192,488.2,202.31,492.4Z"/>
  </g>
  <g class="shoelace">
    <path d="M244.63,497.88h0c-5.31-1.93-14.46-1.65-20.67.51a26.13,26.13,0,0,0,5.28,8c5.19-2.88,15.07-3.67,21.65-1.61A35.29,35.29,0,0,1,244.63,497.88Z"/>
    <path d="M176.4,497.46a39.74,39.74,0,0,1-3.32,8.89c6.41-1.34,13.51-.91,21.07.68.63-2.79.32-5.64.95-8.93C188.24,496.49,181.86,496,176.4,497.46Z"/>
  </g>
  <g class="sign">
    <path class="signHandle" d="M51.12,143.22,35.33,222.94c-.69,3.1,7.57,4.91,8.26,1.81l15.6-79.45Z"/>
    <polygon class="signWhite" points="107.87 8.81 53.2 0.26 10.41 33.47 0.26 88.31 27.89 137.1 81.3 152.47 130.46 120.69 141.87 59.01 107.87 8.81"/>
    <path class="signRed" d="M83.4,53.49C94,55.59,93.94,66.72,91.49,80S85.1,103.45,74.63,100.9c-10.27-2.5-10.21-13.45-7.81-26.4S73.05,51.43,83.4,53.49ZM72.23,75.69c-1.33,7.21-2.16,17.62,3.56,19s8.75-8.66,10.1-16,2.17-17.81-3.64-19S73.56,68.49,72.23,75.69Zm52.66.42c-1.66,9-9.63,12.26-18.23,10.33l-4.43-1L98.3,106.69l-6.07-1.51L101.13,57l10.58,2.11C120.37,60.72,126.55,67.13,124.89,76.11Zm-17,3.87c5.12,1.12,9.67.12,10.65-5.22s-2.86-8.11-8-9.16l-4.45-.91L103.42,79Zm-40-23.21L58.8,54.91,51.34,95.26,45.75,93.9l7.43-40.14-8.92-1.83,1.11-6L69,50.62Zm36.4-42.16L54.36,6.53,15,36.83,5.72,87.18l25.46,44.64L80,145.59l44.64-29.11L135,60.42Zm-84,58.84c-1.06,5.7.17,8.06,4.33,9,4.67,1.11,6.76-1,7.23-6.46.64-7.47-15.17-11.92-13.25-22.28,1.34-7.24,5.55-12.1,13.29-10.55s10,6.87,8.83,14.22l-5.5-1.17c.38-3.91-1.26-6.31-4.45-7-3.51-.72-5.65.68-6.44,5C23,61.11,39.37,65.72,37.29,77c-1.54,8.29-5,13.62-13.84,11.48-8.36-2-10-7.39-8.38-16.19Z"/>
  </g>
  <path class="pants" d="M161.3,294c-7.36,20-2.35,37.69-3.86,62.51-1.83,30,6.13,34.16,5,55.74-1,18.94,3.5,22.27,4.91,41.33-5.07,14.41-.68,16.47-1.41,21.69-.83,5.9,3.16,13.78,5.16,22.72,5.33-8.79,24.14-7.12,32.3-1.52,2.66-9.24,0-12.27,1-16.21,2.78-11,1.66-23.78.83-30.44,2.83-11.67.5-22.57,3.7-40,.37,8.22,1.68,15,1.13,19.69-1.61,13.64,3.12,27.11,0,36-3,8.42,2.07,21.58,2.63,32.71,9.23-1.54,25-9.59,32.76-2.22.94-5-.5-10.44,1.13-13.71,2.92-5.86-.56-13.53-.75-20.55,8.28-13.88,1.88-38,4.52-43.68,9.15-19.63,6.56-42,7.53-50.36,2.57-22.44,1.17-36.51,3.95-46.6,2.34-8.49-.75-15.59-1.51-25.35Z"/>
  <path class="shirt" d="M225.09,156.34c-10.06-2.05-26.67-.26-35.57,1.42-12.94,2.46-26.6,6.92-38.17,16.13-18,14.35-16.94,6.74-26.54,16.74,3.27,8.78,12.4,18.36,21.59,23.47a40.4,40.4,0,0,0,19.44-6.94c31,21.64,89.4,8.78,91.85,16.94,6.54.41,21.84-9.39,23.48-15.31-2.86-9.38-9.15-15.87-11.43-23.67C262.91,161.78,243.05,161,225.09,156.34Z"/>
  <g class="eye">
    <circle class="sclera" cx="184.09" cy="124.26" r="16.48"/>
    <g class="irisBrown">
      <ellipse cx="188.96" cy="124.69" rx="3" ry="3.6" transform="translate(-23.33 46.03) rotate(-13.09)"/>
      <ellipse cx="170.87" cy="128.9" rx="2.76" ry="3.6" transform="translate(-24.75 42.04) rotate(-13.09)"/>
    </g>
    <g class="pupil">
      <ellipse cx="188.59" cy="124.78" rx="1.17" ry="1.4" transform="translate(-23.36 45.95) rotate(-13.09)"/>
      <ellipse cx="170.43" cy="129" rx="1.21" ry="1.4" transform="translate(-24.79 41.95) rotate(-13.09)"/>
    </g>
  </g>
  <g class="vest">
    <path d="M165.36,164.6c-1.64,4.9-1.24,12.13-2.08,16.58-1.12,6,.77,15.9.54,21.83-.32,8.53,2.54,14-.36,23.61-5.62,18.58-7,39.38-4.65,51.34.8,4.12-2.83,18.72,5.32,22.05,14.62,6,37.94,8.9,48.17.85l-1.61-80c-4.52-10.79-19.09-28.19-22.08-63.4C179.7,158.76,166.23,163.71,165.36,164.6Z"/>
    <path d="M231.45,157.37c8.25,1.59,17.15,3.67,24.67,8.15-.36,14.23,3,25.67.41,48.28-1.35,11.65,11.82,40,4.88,60.79.59,3.81,4.35,6.69,1.73,12.28-2,4.24.26,9.05-1.48,11.83-3.67,5.87-55.13,16.07-57.73-5.9C196.48,229.9,217.22,202.5,231.45,157.37Z"/>
  </g>
  <g class="reflector">
    <path d="M261.47,242.81c-15.81.68-41.79.51-57.2-1a165.24,165.24,0,0,0-1.84,20.51c14.9,2,46.92,2.42,61,.14A91.15,91.15,0,0,0,261.47,242.81Z"/>
    <path d="M244.08,243.18c0-23.58,2.31-53.26,6.47-80.47A83.19,83.19,0,0,0,234.81,158,615.25,615.25,0,0,0,225.25,243C231.47,243.15,237.94,243.21,244.08,243.18Z"/>
    <path d="M173,242.63c5.74.33,11.66.61,17.57.77-.25-10.94,1.08-22.34-.68-34.81-1.92-13.62-3.75-35.3-4.62-50.5a116.84,116.84,0,0,0-16.11,4.8c0,13.32,1.41,26.81,3.23,41.37C174,217.11,172.94,231.76,173,242.63Z"/>
    <path d="M204,243.55c-14.79.1-30.53-.78-44.14-1.8a135.62,135.62,0,0,0-2.12,20.76,407.5,407.5,0,0,0,44.63,2A169.57,169.57,0,0,1,204,243.55Z"/>
  </g>
  <g class="clothesDisplayLine">
    <path d="M212.75,328a15.31,15.31,0,0,1-8.84.1"/>
    <path d="M207.77,306.92c-2.23,10.83-1.17,17.57-.44,21.68"/>
  </g>
  <g class="clothesOverlapLine">
    <path d="M208.92,409.78c1-12.61-.19-62.31-.43-81.18"/>
    <path d="M248.73,502.8c-6.7-1.33-16.37-.59-21.27,1.54"/>
    <path d="M247.36,501.32a39.11,39.11,0,0,0-21.2,1.18"/>
    <path d="M245.87,499.53a37,37,0,0,0-20.85,1"/>
    <path d="M194.64,502.5a55.74,55.74,0,0,0-19.56-.7"/>
    <path d="M194.78,500.39a42.36,42.36,0,0,0-18.92-.86"/>
    <path d="M194.48,504.85a52.09,52.09,0,0,0-20.25-1"/>
  </g>
  <g class="clothesFoldLine">
    <path d="M264,182.28a84.12,84.12,0,0,0,4.28,23.45"/>
    <path d="M222.59,182.28c-4.56,4-9.86,6.27-16.47,5.48"/>
    <path d="M195.57,189.77c5.16,2.82,11.6,2.91,18.79,1.41"/>
    <path d="M137.48,185c8.79,3.49,16.74,1,25.45,1.71"/>
    <path d="M137.48,189c5,1.59,11,2,17.29,2"/>
    <path d="M147.58,208.31c4.47-.27,8.52,1.9,14.15,1.38"/>
    <path d="M163.87,206.77a22.67,22.67,0,0,1-6.88,0"/>
    <path d="M214.36,278c5.82,3.16,13,7.12,15.21,6.68,3.59-.71,7.11-2.53,12.16-4.11"/>
    <path d="M241.73,289.61a68.94,68.94,0,0,0-12.84,7.71"/>
    <path d="M261.41,274.59c-.93,2.09-2.19,4.38-2.39,6.46"/>
    <path d="M158.81,278c.92,3.66,3.36,6,3.66,9.26"/>
    <path d="M245.82,461.68c-3.81,4.48-6.7,9-1.61,13.64"/>
    <path d="M244.6,455.56c-4.81,8.87-22.23,19.64-29,13"/>
    <path d="M240.05,475.79c-3.68-4.55-11.31-2.84-18.07.12"/>
    <path d="M232,484.19c-5.67-5-9.94-1.53-13.91,3.78"/>
    <path d="M174.15,479.93c4.65-7.93,10-10.41,16.38-3"/>
    <path d="M182.86,445.63c-7.76,8-13.32,16.35-13.26,25.55"/>
    <path d="M176,462c10.44-13.94,20.41,4.38,23.4,21.17"/>
    <path d="M205.22,449.81a23.64,23.64,0,0,0-2.47-8.79"/>
    <path d="M167.34,453.57c1.64-3.34,2.36-7.47,2.78-11.84"/>
    <path d="M245.85,425.55c-1.81-3.33-8.32,2.75-16.38,11.92"/>
    <path d="M252.11,351.3c-.23,18.7-3.16,28.43-14,36.11"/>
    <path d="M163.65,332.6c.67,29.11,4,48.17,22.34,52.1"/>
    <path d="M214.3,329.39c3.82-2,9.3-3.14,15.33-4"/>
    <path d="M199.94,327.13c-6.71-2.52-14.32-3.65-22.41-4"/>
    <path d="M197.64,331c-5.15-.88-12.36.82-19.92,3"/>
    <path d="M213.92,332.18c6.31.57,13.21,1.54,20.5,2.79"/>
    <path d="M202.81,334.8a51.13,51.13,0,0,0-9.38,5.92"/>
  </g>
  <g class="clothesEdgeLine">
    <path d="M183.39,491.93a40.08,40.08,0,0,0,0-10.94"/>
    <path d="M229.27,493.79c-.79-2.39,0-4.4-1.05-6.77"/>
  </g>
  <g class="skinLatino">
    <path d="M352.38,323.33l-12.74-16.78c4.77,4.13,8.21,7.78,11.05,10.7,6.38,8.19,11.47,2,8.87.08-4.59-4.34-9.23-10.78-14.25-14.95,5.42,3.59,5.68,5.41,10.17,8.07,7.77,6.93,10.74.47,7.79-1.65-8.46-6.42-14-14-20.09-20.54A12.56,12.56,0,0,1,350.3,290c2.83,1.59,7.38.81,6.86-3-.68-1.59-6-2.95-9.32-5.69-7.25-5.32-16-2.86-19.41-6.07-19.07-17.68-24.91-32.56-36.91-46.23-2.61-3-1.25-4.07-10.69-19.37-2.77,6-16.92,14.8-23.14,14.41,6.84,11.76,11.27,20.27,15.22,27.45,9.46,17.21,25.13,18.93,40.64,33.82,4.42,4.85.42,13.73,12.55,24.52,3,3.25,5.17,7.84,9.32,12.71,3,3.56,7.68,2.08,6.94-1.32l1.68,1.81C349.09,330.6,353.81,325.49,352.38,323.33Z"/>
    <path d="M58.61,205.76c15,10.82,23.8,21.54,48.9,20.43,9-.39,22.47-7.41,36.73-13.38-8.43-5.32-16.42-14.09-19.43-22.18-8.49,3-15,8.24-17.87,7.7-15.8-3-27.13,1.37-41.67-7,.49-6.48-2.43-8.64-5-11.36-3.07-3.21-6.71-4.13-10.72-2.28-5.26-1.64-10.21-2.9-13.6-2.23-3.83.75-4.48,5.26-3.46,7-2.62.56-4.14,6.52-1.54,8.25-2.17.65-2.3,7.24.54,7.73-1.3,6.57,3.49,8.11,11.14,6.92,3.31-.52,3.15-5.18,1.69-6.32,3.9-1.46,3.81-6.19,1.7-7a5.09,5.09,0,0,0,3.08-3.34c.41,1.22.45,3,.74,4.32L47.15,206.6C52.89,208.22,57,205,58.61,205.76Z"/>
    <path d="M220.63,133.37c-.3,13.15,4.28,21.71,6.25,26-3.57,9.57-24.72,14.25-36.52,7.57a37.18,37.18,0,0,0-1.56-13.14"/>
    <path d="M181.18,163.37c-2.73-4.19-16.2-10.73-13.75-35.82.42-4.25-2.86-5.39.07-13,1.43-3.75,5-26.32,24-31.11,9-2.28,17.46,2.84,24.53,6.57,8,4.43,13.24,12.16,17,21.76,2.38,3.37,2.19,8.79-2.15,15.56-2.29,3.58-3.55,6.43-8.2,4,1.25,24-18.66,29.31-23.07,32C193,167.41,185,169.22,181.18,163.37Zm5-38a16.2,16.2,0,0,0,4.24-.44c2.35-.69,4-1.79,6.84-2.22-2.32-1-5.5-1.94-7.56-1.46a6.26,6.26,0,0,0-4.42,3.8C184.93,125.92,185.78,125.42,186.18,125.36Zm-10,1.33c-2.12-1.27-4-1.46-5.54-.69a4.66,4.66,0,0,0-2.18,2.19,1.27,1.27,0,0,0,.2.84c1.08-.19,1.85.17,2.83-.07,1.3-.33,2.48-1.26,4.12-1.5C176,127.4,177.15,127.25,176.22,126.69Z"/>
  </g>
  <g class="skinOverlapLine">
    <path d="M333.93,309.48c2.12,4.19,6.15,8.2,8.43,11.8"/>
    <path d="M49.52,177.69c-2.11,1.92-4.33,3.18-6.16,6.59a25,25,0,0,1-3.16,5.45c-1,2.32,3,3.69,5.79,2.35"/>
    <path d="M55.3,184.5c-3.52,3.43-5,1.37-6.23,4.24"/>
    <path d="M49.81,193.06a9.32,9.32,0,0,0,2.49,5"/>
    <path d="M32.46,182.51c2.1,1,8,1.77,10.9,1.77"/>
    <path d="M30.92,190.76c2.3,1,7.67,1.45,10.34,1.33"/>
    <path d="M31.46,198.49c3.17.86,9.88,1.31,12.83.6"/>
  </g>
  <g class="skinFoldLine">
    <path d="M287.08,232.39a25.13,25.13,0,0,1-8.71,7.33"/>
    <path d="M109.61,201.39c1.1,4.65,1.81,8.78,1.52,11.61"/>
    <path d="M345.94,301.41c-.47.79-1,1.52-1.54,1.67"/>
    <path d="M340.23,305.81a2.68,2.68,0,0,1-1.38,1.17"/>
    <path d="M223.71,116.61c.73-11,13-4.67,7.14,6.1"/>
    <path d="M224.18,118.21c3.33,1-1.08,6.73.81,7.26,1.62.46.58-2,2.88-3.85,3.38-2.75.79-7.57-1.5-5.68"/>
  </g>
  <g class="skinCreaseLine">
    <path d="M341.27,293c-5.68,1.41-10.93.15-15.7-4.23"/>
    <path d="M338.42,299.58c-4-1.84-8.06-1.07-12.08,2.85"/>
    <path d="M327.51,278.43c-4.37,2.88-3.88,6.15-7.05,7.05"/>
    <path d="M63.88,195.15c-1.07,4.36-3.22,4.52-3.86,7.23"/>
  </g>
  <path class="lipMaleBrown__noStroke" d="M180.88,149.09a7.87,7.87,0,0,0,4.4-.78c2.41-.17,6.13-2.65,9.76-2.7-3.65,2.57-3.73,8.13-9.5,9.06-7.13,1.16-6.55-4.48-8.72-5.45C178,148.73,179.76,149.64,180.88,149.09Z"/>
  <path class="lipBorderLine" d="M176.19,149.23c1.81-.32,3.56,1.28,7.4.61,4.89-.85,7.56-3.58,12.23-4.37"/>
  <g class="lipEdgeLine">
    <path d="M191.17,151c-2.22,3.72-8.85,5.43-11.82,2"/>
    <path d="M185.28,148.31a7.87,7.87,0,0,1-4.4.78"/>
  </g>
  <g class="cheekLine">
    <path d="M196.94,143.52c-.87-1.74-2.58-2.34-4.59-3.27s-2.66-2.24-4.43-2.45"/>
    <path d="M175.13,146.91a9.73,9.73,0,0,1,1-2.92"/>
  </g>
  <g class="noseLine">
    <path d="M187.92,137.8a2.92,2.92,0,0,1,1,4.68"/>
    <path d="M178.22,131.7c-1.37,5.27-6.23,12.47.76,13.55,3.63.56,4.66-3.43,7.23-2.91"/>
  </g>
  <path class="eyeLidLine" d="M168.7,129s-.88,0-.57,1.35"/>
  <g class="eyeFoldLine">
    <path d="M169.71,133c1.46,1,3.85.79,6.24-.79"/>
    <path d="M188.28,129.11c2.4,1.32,5.23.56,7.24-1.33"/>
  </g>
  <g class="eyeCornerLine">
    <path d="M200.45,123.44a9.72,9.72,0,0,1-3.19-.74"/>
    <path d="M168.5,128.19a1,1,0,0,1-.75.45"/>
  </g>
  <g class="eyeCreaseLine">
    <path d="M185.32,122.5C186,119,191.26,118,196,120.23"/>
    <path d="M168,125.93c1.91-2.74,3.7-2.94,6.24-2.11"/>
  </g>
  <g class="eyebrowLightGray">
    <path d="M180.08,115c.57,3.72,6.24,1.43,8.89.75,8.56-2.21,11.32,1.55,11.5-.31C190.27,109.11,183.63,115.14,180.08,115Z"/>
    <path d="M173.36,116.79c-2.53.72-4.29.5-6.89,1.22a10.8,10.8,0,0,0-.15,3.08C169.61,120.65,174.26,119.73,173.36,116.79Z"/>
  </g>
  <path class="hairLightGray" d="M214.63,117a14,14,0,0,0,6.47-3.11c.76-6.52,8.45-8.05,11.91-2.12-.15-14.46-8.9-21.83-17-21.76.88.49,1.71,1,2.5,1.56-2.43,3.72-8.35,7.61-13.14,11.29C208.49,110.67,214.21,106.82,214.63,117Z"/>
  <path class="visor" d="M227.6,108.06c-9.6-14.91-31.13-26.83-44-22.8-3.77,1.17-8.1,6.31-12.31,10.08,35.87-1.76,38.64,10.17,51.06,15.23A5.86,5.86,0,0,1,227.6,108.06Z"/>
  <path class="visorBillTop" d="M168,113c-12.65-.15-21.93-11.54-16.53-17.89s11.16.71,29.34-1c19.53-1.89,29.32,9.08,36.88,14-16,4.78-31.27,3.48-45.35-7.5A70.26,70.26,0,0,0,168,113Z"/>
  <path class="visorBillBottom" d="M172.31,100.6c-7.83-7.14-19.07-9-20.76-2.15-1.64,6.64,7.65,13.77,16.42,14.53A70.91,70.91,0,0,1,172.31,100.6Z"/>
</svg>
