<svg viewBox="0 0 137.64 448.96">
  <g class="willyShoe">
    <path d="M132.75,435.41c-1.63-5.29-7-6.4-11.27-8.7a26.71,26.71,0,0,1-12.61-14.41l-25.24,2a53.63,53.63,0,0,0-4.56,16.35C81.56,447.34,126.77,443.76,132.75,435.41Z"/>
    <path d="M72.81,431.91c-2.87-4.63-3.67-10.49-5.29-16l-23.28-.6c.09,14.15-8.47,18.16-8.47,24.91C51.32,450.75,73.78,446.33,72.81,431.91Z"/>
  </g>
  <g class="soleWhite">
    <path d="M132.75,435.41c-3.6-4.35-17.47-3.78-24.82,2.66-2.93,2.57-6.18,3.06-10.3,2.14-8.51-1.92-15.57-2.62-18.56-9.6-.44,4.33-.38,7.45,1.8,10.32,4.87,4.05,13.58,3.7,22.92,5.3,8.36,1.44,17.24,1.59,25.57-2.22A6.75,6.75,0,0,0,132.75,435.41Z"/>
    <path d="M35.77,440.19c5-4.46,22.18-5.42,28,1.8,5-.94,8.27-4.24,9-10.08.82,3.64,1.25,8.12-.11,10.61C67.71,450.16,32.7,452.18,35.77,440.19Z"/>
  </g>
  <g class="shoelace">
    <path d="M112.1,418.46h0c-3-1.41-10-.62-14.57,1.08l9.8,9c3.66-1.84,9.69-2.54,14.15-1.87A27.14,27.14,0,0,1,112.1,418.46Z"/>
    <path d="M63.57,420.93c.28,3.2-.69,6.73-.91,10.41-5.75-2.76-14.3-2.76-19.93-.73,1.82-3.71,3.18-7.27,3.42-10.47A32.9,32.9,0,0,1,63.57,420.93Z"/>
  </g>
  <path class="skinLatino" d="M121.28,271.64c-2.86-61.4-16.9-149.31,12-135.41-1,10.42,2.52,18.77,3,27.46.8,14.58-2.37,38.67-3.79,61.39-.58,5.23,3.64,10.95,4.76,18.67.66,3.91-1.12,8.4-2.06,13.18-.78,3.38-3.47,5.34-6.18,9.46C128,268.41,124.22,269.11,121.28,271.64Z"/>
  <path class="willyPants" d="M122.24,217.4c0,7.28,2,7.55,1.5,13.85-.43,5.55,4.19,21.42-.54,34.64-1.38,3.84,2.46,31.43-10,55.05.93,4.12,4.19,9.65.55,16.59,7,6.2,1.44,11.1,2.24,18.23,1.5,13.44,10,29.14-4.43,37.37,3.8.92,4.13,4.9,4.86,9.24.49,3,3,8.87-4.68,9.17,1.18,1.68.44,3.68.73,5.47-3.47-4.44-20.83,1.39-34.09,8-1.31-4.51-4.59-9-4.56-13.67a15.76,15.76,0,0,1-4.44,10.22c-10.16-5.48-25.17-5.57-26.76-.53-8-9.67-14.71-17.23-4.37-23.19,4.05-5.06.26-15.5-3-24-4.92-12.58-5.43-22.52-1.72-35.7,1-3.45-1.86-3.95.53-10.67,2.12-6-2.26-6.1-.27-13.25,2.93-10.54-7.45-1.71-4.37-25,.6-4.55-5.92-8.22-3.27-29.94,1.26-10.31-4.68-24.52-.44-46.38ZM77.35,351.32c2.73-17.56-1.25-22-1.72-38.42-1.94,11.77-.88,14.75-2.17,19.84-2.33,9.2,2.59,11.42,0,19.36-1.53,4.65.16,9-.39,12.65-2.54,17,3.85,26.78-2.56,29.57,1.38,5.81,3.73,5.38,4.62,11.63C82.42,383.31,73.06,380.45,77.35,351.32Z"/>
  <path class="willyShirt" d="M137.36,135.17c-3.09,3.54-8.53,5.49-15,6.37-1,9.83,3.84,8.39,2.07,16.09,3.69,13,2.64,27.72-.39,40.9-1.13,4.94,1.06,9.56-1.36,12.26-.3,3.22,1,4,.45,8C97.13,236.31,29.81,226,24,214.2c-.13-3.41,1.36-5.29,1.7-8.06-5.48-9.44-5.67-20.74-3.5-32.21-4.57-19.5-9.27-36-18.73-39.3,5-8.65,8.5-19.45,13.25-29.52,5.6-11.84,19.46-15.75,35.66-23.8,6.42-3.19,33.32-2.49,42.12.39C104.67,85,115.43,85.52,121.12,92,131.14,103.46,131.92,121.14,137.36,135.17Z"/>
  <g class="clothesDisplayLine">
    <path d="M77,228.15c.23,5.59,1.15,9.1.28,14.29-.61,3.66.9,6.82-.17,11.55"/>
  </g>
  <g class="clothesOverlapLine">
    <path d="M117.62,113.74c2.87,12.64,4.59,16.52,4.73,27.8"/>
    <path d="M33.47,119.79a158.49,158.49,0,0,0-3.95,16.78"/>
    <path d="M77.14,254c1,11.62-1,46.2-1.51,58.91"/>
    <path d="M75.12,406c.43,3.66-.83,3.41-1.33,5.41"/>
    <path d="M62.83,429.45a35.42,35.42,0,0,0-19.15-.87"/>
    <path d="M63,428a38.42,38.42,0,0,0-18.66-1"/>
    <path d="M63.23,426.33A42.67,42.67,0,0,0,45,425.27"/>
    <path d="M63.43,424.76a46.79,46.79,0,0,0-17.94-1"/>
    <path d="M63.62,422.94a37.27,37.27,0,0,0-17.71-1"/>
    <path d="M105.76,427.13A28.25,28.25,0,0,1,118.68,425"/>
    <path d="M104.22,425.71a30.28,30.28,0,0,1,12.62-2.13"/>
    <path d="M102.4,424a41.08,41.08,0,0,1,12.81-1.92"/>
    <path d="M100.8,422.56a35.09,35.09,0,0,1,13.26-1.65"/>
    <path d="M99,420.91A35.69,35.69,0,0,1,113,419.65"/>
  </g>
  <g class="clothesFoldLine">
    <path d="M95.78,133.27c-11-.41-21.66-.41-31.75.15"/>
    <path d="M76.53,136.29a129.8,129.8,0,0,0-20.25,1.29"/>
    <path d="M92.05,217.89c-5.56-5.51-12.9-3.77-21.26,2.15"/>
    <path d="M25.71,206.14c3,4.17,7.45,7,13.62,8.3"/>
    <path d="M27.69,201.94c6.4,6.64,14.6,5.69,24-.29"/>
    <path d="M57.43,204.38a53,53,0,0,0-10.06,8.34"/>
    <path d="M109.14,200.36A47.05,47.05,0,0,1,116.9,212"/>
    <path d="M110.87,191.31c2.43,6.5,5.94,11.4,11.06,13.94"/>
    <path d="M124.42,157.63a7.15,7.15,0,0,1-3.07,3.23"/>
    <path d="M122.79,151.37c-1.86,2.8-4.21,4.64-7.33,5"/>
    <path d="M30.34,153c7,4.41,15.23,8.3,19.39,14.41"/>
    <path d="M30.28,149.84c3.23,2.25,7.58,3.52,12.38,4.41"/>
    <path d="M127.58,113.37c-.38,8.7-1.11,18.27.89,21.21"/>
    <path d="M119.69,109.08c-.33,1.47-1.9,2.81-2.07,4.66-.32-3-2.26-7.06-3.6-11.33"/>
    <path d="M118.82,100.75a18.59,18.59,0,0,1-2.26,8.82"/>
    <path d="M110.82,105.75c1.67,3.13,3.47,4.6,3.94,8.74"/>
    <path d="M41.91,103.48c-3.81,4.33-5.8,12-8.44,16.31.76-3.66.47-6.82-.46-8.17"/>
    <path d="M77.51,249.47c2.87,5.06,6,8.77,7.26,12.39"/>
    <path d="M77.35,258.09c2.48,4.19,5.3,14.21,8.93,22.9"/>
    <path d="M81.44,240.32a128,128,0,0,1,24.42.61"/>
    <path d="M81.9,247.35c2.92-.85,10,2,16.4,3.48"/>
    <path d="M72.67,240.85c-4.23-1.36-20-1.59-27.13-.6"/>
    <path d="M72.6,247.12c-4.93.83-10.34,2.94-15.95,5.6"/>
    <path d="M72.6,250.22c-2.62.76-5.67,3.41-8.54,4.92"/>
    <path d="M38.63,256.61C44,274.28,50,290.14,58.57,298.21"/>
    <path d="M48.6,295c1.89,6.53-3.44,11.86-10.83,11.34"/>
    <path d="M56,307.33c-8.62.58-15.83,2.69-19.09,9.11"/>
    <path d="M115.83,268.81c-.18,8.43-8.08,11-9.63,32.15"/>
    <path d="M81.61,296.49c2.5-10.71,13.24,4.82,18.23,21.84"/>
    <path d="M44.13,328.64c7.57-10.83-.51-6.36-7.22.86"/>
    <path d="M57.54,319.88c-6,14.27-23.95,25.66-21.49,28,1.59,1.53,5.61.39,10.66-2.06"/>
    <path d="M69.06,339c-5.91,3.2-11.14,6.66-13.06,11.35"/>
    <path d="M47.91,349.62c-7.56,4.47-10.65,6.7-2.06,15.47"/>
    <path d="M44.13,378c8.79,7.78,18.74,14.78,24.59,11.69"/>
    <path d="M113.17,320.94c-2.67,5.81-7.32,9.6.55,16.59"/>
    <path d="M102.59,330.54c4,2.35,2.81,7.16-2.75,14.09"/>
    <path d="M111.53,345.15c-8.07-7-14.25,13.66-20.12,31.29-3.1,9.32-1.68,15.21,5.68,16"/>
    <path d="M110.45,399.79c-6,3.92-16.43,1.35-25.26,1.11-2.55-.07-4.17,1.16-6.13,5.27-1.38,2.89-.49,4.53,2.57,5.4"/>
    <path d="M111.71,411.54c-8.37-.34-13.52-5.62-26,3.09"/>
    <path d="M70.5,394.32c-6.65,3.27-32.2,2.62-32.4,8.78-.1,3.31,9.93-2,16.19-.12"/>
    <path d="M69,405.8c-7.85,3.56-18.39,7.48-4.9,11.77"/>
    <path d="M35.17,373.88c6,14.88,19.36,16.35,3,24"/>
    <path d="M34.67,406.66c6.62,3.56,11.41-2.58,14.83.86,10.79,10.83-3.55,3.43-6.74,8.21"/>
  </g>
  <g class="eye">
    <rect class="sclera" x="52.98" y="28.2" width="48.82" height="11.76"/>
    <g class="irisBrown">
      <circle cx="91.73" cy="33.41" r="3.6"/>
      <circle cx="64.6" cy="33.41" r="3.6"/>
    </g>
    <g class="pupil">
      <circle cx="91.73" cy="33.41" r="1.4"/>
      <circle cx="64.6" cy="33.41" r="1.4"/>
    </g>
  </g>
  <g class="skinLatino">
    <path d="M90.27,73.08c-.27,4.15.2,7.73,4.24,8.62C94,87.24,89.43,93.22,77.22,98.1,69,96.8,54.67,87.24,52.39,81.31c4.41-1.81,5-6.17,4.48-11.66"/>
    <path d="M30.36,110.2C25,141.2,40.83,169.92,15,180.27c-5.24,2.09-9.62-1.37-11.63-6.05-9.88-23,6.74-35.58,10.93-66.17C9.13,99.36,11.88,92,11.69,89A103.86,103.86,0,0,1,12,69.85c.42-3.44,3.6-5.24,5.23-2.59C16.7,57.67,24,57,24.14,61.7c1.17-6.1,8.31-5.75,6.92.48-.34,3.25-1.47,6.59-1.77,10l3.35-8.56c1.27-3.34,7.86-2.06,3.54,7.48-1.58,3.83-1.68,8-2.12,11.21s.54,9,1.72,9.84c1.79.28,4.11-5.33,7.59-8.52,2.61-2.8,6-.13,4.55,3.38-1,4.16-4.06,5.13-6.67,10.83C36.12,110.44,31,106.67,30.36,110.2Z"/>
    <path d="M54,8C60.62,3,63.15.54,72.45.26c11-.33,17.84,10.8,25.25,18.28,6.63,6.68,3.85,10.33,5.38,15.9,1.38,5,4.13,10.37.74,24.22-1.51,32.22-59,26-61.06-5.6-5.89,2.84-5.86-3.78-8.7-6.62-3.67-3.67-3.79-15.19,1-15.66C39,19,45.53,11.51,54,8Zm17.2,25.72a11.15,11.15,0,0,0-5.94-2c-3.28-.16-5.64,1.95-7.77,2.74A17.29,17.29,0,0,1,63,33.78c2.25.08,4.43-.48,7.13,0C70.6,33.9,72.12,34.37,71.18,33.72Zm15.21.09c2.3-.25,3.74.29,6,.21s3.08-.43,5.57,0c-1.91-1.1-3.82-2.47-7.1-2.31-1.42.06-2.27.3-5.58,1.87C84.23,34.06,85.92,33.87,86.39,33.81Z"/>
  </g>
  <g class="skinOverlapLine">
    <path d="M127.78,240.06c-1,7.52,2.06,16.68-2.79,18"/>
    <path d="M17.21,67.26c1,3.34-.43,9,.26,16.35"/>
    <path d="M24.14,61.7c.17,4.79-2,10.1-1.19,20.63"/>
    <path d="M29.29,72.21a49.83,49.83,0,0,0-1.21,10.54"/>
  </g>
  <g class="skinFoldLine">
    <path d="M129.9,162.49a23.92,23.92,0,0,0-4.22.63"/>
    <path d="M28.94,83.09a2,2,0,0,0-1.75-.19"/>
    <path d="M23.71,82.52a1.55,1.55,0,0,0-1.46,0"/>
    <path d="M18.39,83.52a2.92,2.92,0,0,0-1.77.47"/>
    <path d="M39,37.26c-3-8.62-9.51.37-2.51,8.57"/>
    <path d="M39.08,40.38c-2.43,2.45,2.36,6.1.81,6.72s-1.37-2.72-3.07-3.78c-2.27-1.41-1.69-5.91-.12-5.51"/>
    <path d="M39.52,33a6.73,6.73,0,0,1,.56,2.26"/>
  </g>
  <g class="skinCreaseLine">
    <path d="M28.67,109.24c-4.38.86-4.44-.52-7.69.05a9,9,0,0,1-5.44-.79"/>
    <path d="M30.51,89.52c-3.25,3-5.76,6.41-6.39,10.92"/>
    <path d="M25.38,86.57c-.69,5-3.22,8-9.12,7.32"/>
  </g>
  <path class="lipMaleBrown__noStroke" d="M77.73,57.75a16,16,0,0,0,5.6,0c2.48.48,5.83-.18,7.75,2.33C88.27,62.87,88.41,71,80,71.39S70.4,63.55,67.1,61.09C72.19,56.85,76,58.47,77.73,57.75Z"/>
  <path class="mouthInner" d="M90.31,59.63C87,57.84,84.62,58.93,81,59c-3.91.08-7-1.7-13,1.55C70.87,67.87,87.18,69,90.31,59.63Z"/>
  <path class="tongue" d="M87.62,63.59a5.38,5.38,0,0,0-2.06-2.44,37.94,37.94,0,0,0-10-2.56,13.9,13.9,0,0,0-7.5,2C70.37,66.59,81.92,68.44,87.62,63.59Z"/>
  <path class="teeth" d="M81,59c-3.55.07-6.44-1.39-11.39.77,4.33,4.49,17.68,4.64,18.92-.88C86,58.22,83.93,58.94,81,59Z"/>
  <g class="lipOverlapLine">
    <path d="M90.31,59.63a12.94,12.94,0,0,1,1.21.75"/>
    <path d="M66.36,61.53c.57-.37,1.12-.7,1.65-1"/>
  </g>
  <g class="lipEdgeLine">
    <path d="M86.37,68.25c-2.11,3.87-9.85,4-12.52,1.34"/>
    <path d="M83.33,57.75a16,16,0,0,1-5.6,0"/>
  </g>
  <g class="smileLine">
    <path d="M56.8,36.17a12,12,0,0,0-3.49,2.47"/>
    <path d="M101.46,38.05a12.62,12.62,0,0,0-3.62-2"/>
  </g>
  <g class="cheekLine">
    <path d="M86.77,46.36c1.87,2.31,4.35,3.44,5.85,6.19"/>
    <path d="M72.6,47c-2.33.83-3.57,3.15-6.42,5.12"/>
  </g>
  <g class="noseLine">
    <path d="M87,51.8c2.85-2.69.13-4.46-.24-5.44"/>
    <path d="M72.5,52c-2.23-1.36-1-4.55.1-5.08"/>
    <path d="M74.15,51.72C75,50,79.27,57.05,85.69,51.1"/>
  </g>
  <g class="eyeFoldLine">
    <path d="M96.09,37.59c-2.12,2.12-6.37,1.61-8,.11"/>
    <path d="M69.6,37.18c-2,1.71-7.35,1.65-9.21.62"/>
  </g>
  <g class="eyeCornerLine">
    <path d="M57.47,34.44a8.87,8.87,0,0,1-3.47.47"/>
    <path d="M98,34a5,5,0,0,0,2.79.55"/>
  </g>
  <g class="eyeCreaseLine">
    <path d="M57.23,33.14C59,32.06,63.8,28,69.08,31.38"/>
    <path d="M85.51,32.33c2.2-2.65,7.54-3.46,11.44-.5"/>
  </g>
  <g class="eyebrowLightGray">
    <path d="M74.84,23.61c.33,4.75-8.26,2.43-11.19,2.08-7.14-.84-10,3.52-11.13,2.29C60.63,19.87,67.27,24,74.84,23.61Z"/>
    <path d="M102,25.48c-6.15-4.16-11.86-1.74-17.54-1.83-.32,4.75,8.14,2,11.08,1.76a12.83,12.83,0,0,1,6.76,1.71A14.21,14.21,0,0,0,102,25.48Z"/>
  </g>
  <g class="hairLightGray">
    <path d="M97.7,18.54c6.59,6.72,3.85,10.33,5.38,15.9h0a16.54,16.54,0,0,0,1.35-10,4.1,4.1,0,0,0,3.45-1.15C101.26,22,102.51,14.87,100,13c-4.83-3.61-8.29-2.47-12.43-5.44C89.24,9,94.05,14.81,97.7,18.54Z"/>
    <path d="M64.81,63.92c.75-5.67,5.38-8.65,9.75-7.81a24.39,24.39,0,0,0,11.93-.17c1.23-.32,6.3-.33,6.3,7.9,1,5.63-7.23,16.55-11.09,8.41a7.18,7.18,0,0,1-3.11.16C75.1,80.11,63.71,72.24,64.81,63.92ZM35,30.78A4,4,0,0,1,39.52,33c3.27,2.28,4,10,2.79,23.54-1.52,17.26,8.23,18.06,9.87,24.8a9.56,9.56,0,0,0,1.87-4C58.79,84,63,83.83,65.86,90a6,6,0,0,0,1-4.49c4.61,5.51,8.84,3.72,13.52,9,5.41-3.55,9.73-6.19,11.84-11.25a5.29,5.29,0,0,0,2.13,3.55c1.78-5.31,7.35-9.84,7-14.8a7.92,7.92,0,0,0,3.19,2c-1.47-4.41,2-6.76-.73-15.34-.2,3.2-3.59,9-7.38,9.18-3.36-4.19-1-8.37-4.12-12.25-4.45-4.83-8.66-2.11-11.2-2-6.13.23-8.15-3.22-13.79.69s-2.6,8.15-6.3,13.61c-5-1.68-7.56-4-10.92-7.77a7,7,0,0,0,4.11-1c-8-5.32-9.83-8.47-9.51-20.78C45,28.77,51,28.44,46.66,15.5A48,48,0,0,1,53.9,8.16C39.6,8.64,40.56,19.75,32,21.43a5.46,5.46,0,0,0,4.55,1.2C34.88,24.67,34.17,27.22,35,30.78Z"/>
  </g>
  <g class="hairFoldLine">
    <path d="M46.66,15.5a4.64,4.64,0,0,0-1.15-2"/>
    <path d="M61,67.87A7.27,7.27,0,0,1,59.19,70"/>
    <path d="M96.44,67.84a5.07,5.07,0,0,0,1,1.08"/>
  </g>
</svg>
