<svg viewBox="0 0 167.36 136.03">
  <g class="fur">
    <path d="M42.1,109.1c-2-.77-9.92,3.53-9.38,5.46S44.06,134.35,46,135.18c1.55.66,11.83.24,12.95-.06,1.31-.29,1.37-2.85.9-4.69a4.92,4.92,0,0,0-4.64-3.56c-2.49.06-4.63.17-6.23-1.91C47,122.17,43.47,109.81,42.1,109.1Z"/>
    <path d="M69.83,108.72c-2.23-.65-8.73,3.86-8.12,5.42s11.72,18.57,13.56,19.36c1.49.64,11.42.37,12.51.08,1.26-.29,1.44-2.51,1-4.29a4.76,4.76,0,0,0-4.6-3.31c-2.41,0-4,.54-6-2C76.25,121.32,72,109.31,69.83,108.72Z"/>
    <path d="M113.46,97.28c3.16-1.5,7.27-1.8,8.08.81,3.17,10.56,6,20.32,8.1,26A2.28,2.28,0,0,1,129,127a42.91,42.91,0,0,1,6.56,0c2.87.26,5.09,1.5,5.58,4.39.33,1.94-.52,3.36-2.38,3.72a79.35,79.35,0,0,1-11.52.12c-2.76-.53-3.39-2.66-2.47-6.2-1.71,0-3-1.1-4.09-3-2.66-6.89-5.69-13-8-17.69-.43,5.28-.81,10.65-1.05,14.73a4,4,0,0,1-1.48,3,26.35,26.35,0,0,1,5.53.19c2.46.46,3.71,2.25,4,4.74.15,1.87-.48,2.93-2,3.25a109.08,109.08,0,0,1-12.12-.06c-3-.8-3.45-5.51-1-7.7a5.69,5.69,0,0,1-1.62-4.37c-.11-7-1-15-1.75-23-.28-2.76.1-4.64,1.91-5C107.3,93.43,111.49,93.81,113.46,97.28Z"/>
    <path d="M35.67,62.55c-4.76,14.52-2.75,26.28,10.08,33.64,10.43,5.46,22.93,4,30.93-5.1a87.61,87.61,0,0,1,26.8-3.67c9,8.85,28.09,3.78,33.9-6.28,11.11-19.18-5-35.92-20-35.73a50.35,50.35,0,0,1-16.55-1.33A83.21,83.21,0,0,0,69.53,42c-12.32,1.76-22.34,5.89-29,12.81-1-2.44-2.93-3.69-6.56-4.47-8.89-2-11.84-10-11.89-21.58.05-7.9-9-17-19.9-10.61C-.9,19.85.55,24.69,4.25,23.67c9.41-3.16,11.88,2,10.74,9.65-1.15,7.13.53,12.93,5.76,19.15A49.89,49.89,0,0,0,31.18,61.6,5.57,5.57,0,0,0,35.67,62.55Z"/>
    <path d="M126,1.52c-1.36.38-1.74,7.94-1.37,12.55a15.65,15.65,0,0,1-1,6.15c-2.88,8.6-3.47,20.92,10.37,27.3,8,3.4,15.63,2.68,22-2.56a41.39,41.39,0,0,1,5.29-3.49c4.6-2.62,6.34-7.29,5.12-13.23-.32-1.46-1.31-2.26-3.24-3.08-2.17-.9-4.13-2.26-4.86-4-.91-2.17-2.61-3.68-4.87-5.2-2.86-2.15-6.72-3-11.35-3.51-1.5-4.62-4.8-12-6.14-11.94s-2.74,5.79-3.09,9.44C130.15,6.82,127.49,1.17,126,1.52Z"/>
  </g>
  <path class="nose" d="M166.46,28.24a18.24,18.24,0,0,1,.36,2.84c-1.65-.75-3.21-2.41-3.39-3.55a4.1,4.1,0,0,1,.15-2.21C165.27,26.09,166.16,26.87,166.46,28.24Z"/>
  <g class="furOverlapLine">
    <path d="M76.68,91.09A13.89,13.89,0,0,0,80,84.21"/>
    <path d="M103.48,87.42a15.91,15.91,0,0,1-3.38-4.58"/>
    <path d="M40.51,54.83a24.41,24.41,0,0,0-4.84,7.72"/>
    <path d="M113.46,97.28c-2.33,1.1-4,2.44-3.53,4.53a44.29,44.29,0,0,0,2.72,6.61"/>
    <path d="M126.87,4.4A36.14,36.14,0,0,0,129,19.76"/>
    <path d="M132.91,9.94c1,1.13,1.38,2.44,2.41,2.35a31.1,31.1,0,0,1,6.82.15"/>
    <path d="M136.6,2.92a43.11,43.11,0,0,0,2.47,9.27"/>
    <path d="M129,127a10.8,10.8,0,0,1-4.23,2.07"/>
    <path d="M110.12,126.19a11.32,11.32,0,0,1-5.59.42"/>
  </g>
</svg>
