<svg viewBox="0 0 154.77 189.72">
  <g class="fur">
    <path d="M103.78,161.91c2.55-.69,9.66,3,9,4.72-.44,2-10.19,21.18-12.39,22.13-1.69.79-11.29.36-12.38.08-1.27-.29-1.57-2.51-1.11-4.29.72-2,2.42-3.8,4.6-3.8,2.41.05,3,.13,4.59-2.8S101.15,162.63,103.78,161.91Z"/>
    <path d="M76.26,161.35C78,160.22,86.13,162.67,86,165c-.09,2.17-8.13,22.43-10.32,23.39-2.35,1-9.85.52-11.41-.06-1.56-.29-1.67-2.35-1.21-4.13.72-2,2.67-4.14,4.86-4.14,1.35.08,1.46-.62,2.38-2.54C72,174.57,74.38,162.84,76.26,161.35Z"/>
    <path d="M79.63,2.59c1.27.6,2.75,7.75,1.68,12.49-.81,2.83.75,5.39,1.12,7.57,1.85,9.69,1.14,22.27-13.61,26.16-6.75,1.8-16.13-1.2-22.09-7.41-1.55-1.67-3.64-2.73-5.34-4.12-4.07-3.37-5-8.73-2.75-14.37.57-1.38,1.92-2.27,4-2.74,2.29-.52,4.68-.89,5.89-2.39A15.11,15.11,0,0,1,54,13.63a26,26,0,0,1,11.91-1.74C68.45,7.84,69.5.22,70.81.51s2.54,6.09,2.26,9.6C75.18,7.13,78.23,2,79.63,2.59Z"/>
    <path d="M135.11,100.31c11.92,7.49,15.1,15.93,10.55,26.48-4.24,7.24-10.24,7.76-17.17,4.24-2.79-1.55-5.17-2.58-6.93-1.24a62.47,62.47,0,0,0-3.2-19c-6.22-17.62-17.58-38.06-27.72-48.41-9.93-9.62-23.58-15.2-36.72-3.62-9.1,8.69-6.69,26.11,2,31.51A40,40,0,0,1,45,88.11c-2.84-1.22-5.22-1.42-7-.31-2.56-1.64-4.87-1.64-6.93-.11a55.93,55.93,0,0,1-6.2,5.07c-3.07,3-2.42,5.49.93,7.66a3.48,3.48,0,0,0,3.83.51,57.36,57.36,0,0,0,8-6.2,5.22,5.22,0,0,0,3.83,2.79A74.27,74.27,0,0,1,54.23,102c4.9,2.6,8.44,2.54,10.45-.52,3.68,5,5.44,12.56,6.31,21.31-4.66,15.72,6.31,29.78,18.2,33.09,16,4,28.55-5.37,31.24-18.1,1.65,2.49,2.58,1.25,5.79,2.49,17.07,5.69,26.68-4.55,27.82-15.62,1.66-15.83-5.79-23.08-16.44-28.65C134.29,93.9,131.49,98.14,135.11,100.31Z"/>
    <path d="M16.34,37.94c1.75-1.62,3.16-2.31,4.59,0A74,74,0,0,0,36,53.67c3.16,2.33,4.48,4.11,3.12,5.85-2.17,3-5.54,5.9-8.07,6.86-1.53.55-2.71.39-3.65-1.34C24.2,58.18,19.55,50.41,15.1,45.72c-2-2.23-2.72-3.51-1.87-5-2.38.52-8.86-4.19-11.87-7.35a3.69,3.69,0,0,1,.28-5c1.94-2,5.3-2.68,7.24-1a45.55,45.55,0,0,0,5.51,4.27A4.69,4.69,0,0,1,16.34,37.94Z"/>
  </g>
  <path class="nose" d="M38.64,22.91a19.59,19.59,0,0,0-.72,2.21C39.84,25,42,24,42.48,23.07a2.74,2.74,0,0,0-.67-2.69A4.68,4.68,0,0,0,38.64,22.91Z"/>
  <g class="furOverlapLine">
    <path d="M78.82,5.47a18.88,18.88,0,0,1-2,11.88"/>
    <path d="M73.07,10.11a11.06,11.06,0,0,0-1.55,3.35,19.9,19.9,0,0,0-5.63-1.57"/>
    <path d="M16.34,37.94s-1.5,2.36-3.11,2.82"/>
    <path d="M38,87.8c2.51,2.07,2.34,4.38-.41,6.93"/>
    <path d="M55.88,90.24c2.44.2,4,.14,6.48.31,4.7.29,4.58,7.18,2.32,10.9"/>
    <path d="M66.07,94.35a10.3,10.3,0,0,0,5,0"/>
    <path d="M71,122.76c1.09-3.09,2.74-5.81,5-7.09"/>
    <path d="M121.56,129.79a26.6,26.6,0,0,1-1.13,8"/>
  </g>
</svg>
