<svg viewBox="0 0 136.95 144.02">
  <g class="fur">
    <path d="M23.87,115.12c-1.62-.86-11.38,2.48-11,4.66s10.32,22.92,11.59,23.43,12.35.31,13.48,0c1.3-.29,1.61-2.85,1.13-4.69a4.67,4.67,0,0,0-4.63-3.31c-2.5.05-3.89.17-5.49-1.91C27,130.52,25.34,116,23.87,115.12Z"/>
    <path d="M41.67,110.86c-2.62-.77-10.36,3.7-9.64,6s14.13,22,16.29,22.93c1.74.75,11.48.66,12.76.32,1.48-.33,1.46-3.21.75-5.23-.85-2.37-3.17-3-5.72-3-2.83.06-4.33.05-6.08-2.18C47.78,126.66,44.06,112.08,41.67,110.86Z"/>
    <path d="M118.4,134.69c1.33-1.25,1.25-2.83.72-4.37-1.87-5.88-3.58-12.72-5.31-20.11-.7-3.56-3.77-2.87-7.35-1.44-3,1.21-5.88,3-4.53,5.66a198.45,198.45,0,0,1,9.23,20.72c.58,1.38,2.38,1.42,4.36.87a6.14,6.14,0,0,0-1.49,4.41c.1,1.65.6,2.64,2.29,2.82a93,93,0,0,0,13-.09c1.71-.2,3.11-1.17,3-2.87-.19-2.74-1-5-3.78-5.56A28.87,28.87,0,0,0,118.4,134.69Z"/>
    <path d="M85.28,131.36c5.48-.26,9.62,1,9.38,5.55-.25,2.31-1,3.28-3.18,3.5a67.3,67.3,0,0,1-11.8-.1c-2.83-.12-3.69-1.79-3.37-4,.44-3.28,2-4.49,5-4.92a3.85,3.85,0,0,1-2.63-5c2.34-5.82,4.44-13.36,6.65-21.47.55-1.89,1.83-2.26,3.8-2,2.17.16,4.48,1.4,6.6,2.6s2.73,2.72,1.4,4.6a172.14,172.14,0,0,0-9.7,18.7A4.62,4.62,0,0,1,85.28,131.36Z"/>
    <path d="M87.13,95.85c-8.77-1.84-18-1-27,1.65-9.2,10.31-24.8,10.31-34.7,1.6-10-9.69-9.91-23.88-2.73-36.38a6.91,6.91,0,0,1-3.93-1.55C.56,49.34-4.84,23,6.22,2.32,8.07-1.2,11.86,1,10.85,3.71,3.21,26.63,7.14,42.84,24.51,51.52c3.65,1.72,5.23,2.95,4.17,5.55,13.25-9.16,26-9.59,36.58-7.52C77.19,52,89.6,53.48,103.34,54.88,123.61,57,131.29,73.66,122.67,89.7,115.86,101,100.84,103.73,87.13,95.85Z"/>
    <path d="M135.53,8.4c1.54,1.59,1.26,6.72-1.72,13.55-1.26,3.08-1.11,5.92-.71,9.1,1.17,11.48-8,23.11-21.08,19.88-3.17-.79-5.67-1.87-9.46-2.08-5.58-.09-10.62-2.61-12.44-7.33a8.55,8.55,0,0,1,1.11-8.39A13.86,13.86,0,0,0,94.11,27c.81-4.1,5.92-9.44,9.86-10.85-1.16-1.12-1.21-3.62-.85-6.2.65-4.55.29-8.5,2.51-8.34.7,0,1.73,2.48,4,4.86,2.58,2.57,3.79,5.65,5,8.92a9.88,9.88,0,0,1,6.16,1.84C125.11,12.44,133.91,6.63,135.53,8.4Z"/>
  </g>
  <path class="nose" d="M100.2,34.77c-.4-1.34-4.83-2.25-6.1-1.15-.72.61.9,3.73,1.71,3.88C96.79,37.66,100.46,35.87,100.2,34.77Z"/>
  <g class="furOverlapLine">
    <path d="M60.13,97.5a21.52,21.52,0,0,0,4.13-7.62"/>
    <path d="M87.13,95.85a9.86,9.86,0,0,1-3.64-7.52"/>
    <path d="M28.68,57.07a23.14,23.14,0,0,0-6,5.65"/>
    <path d="M105.26,4.54a20.67,20.67,0,0,1,5,10.86,17.71,17.71,0,0,0-6.31.76"/>
    <path d="M134.31,10.77c-.26,4.2-2.07,8.36-4.72,12.5"/>
    <path d="M118.4,134.69a20.88,20.88,0,0,1-2.88,1.33"/>
    <path d="M85.28,131.36a5.46,5.46,0,0,1-3.92,0"/>
  </g>
</svg>
