<svg viewBox="0 0 87.66 155.78">
  <g class="fur">
    <path d="M60.39,17.07c4.25,2.71,5.92,6.17,6.14,11.92,.11,1.86,.64,3.46,1.51,4.91,1.01,1.83,1.23,4.02,.74,6.37-.82,5.04-6.56,9.72-10.29,10.29-2.23,.38-3.42,.66-5.73,1.22-5.75,1.2-13.37-.83-18.52-4.28-7.06-5.15-9.64-12.87-7.83-20.7,1.15-5.58,7.39-12.04,13.31-16.05,3.12-2.13,5.75-5.3,8.38-8.38,1.7-1.93,3.19-2.69,3.88-.7,.76,2.16,1.48,5.2,1.99,8.84,1.41-1.77,2.87-2.89,4.72-4.27,1.19-.91,1.88-1.74,3.18-2.54,1.82-.93,2.23,1.22,1.69,3.81-.71,3.91-1.33,6.75-3.16,9.56Z"/>
    <path d="M55.91,146.18c9.21,.8,18.32,.26,27.61-1.32,3.94-.85,4.87,4.74,1.85,5.7-13.68,4.34-34.92,7.03-51.76,1.99-8.56,1.17-15.58,.19-20.83-3.45C3.83,143.81-.03,129.09,.56,116.47c.35-9.11,1.75-16.01,5.26-24.19,3.27-8.41,5.21-18.7,7.36-28.74,.85-3.69,2.57-7.01,7.71-9.23,7.71-3.04,16.1-2.93,24.07-.47,7.13,2.1,10.28,9.93,11.1,18.34,.82,6.78,2.23,12.62,4.91,18.11,8.76,18.69,7.12,43.93-5.06,55.89Z"/>
  </g>
  <path class="dullMaroonMedium" d="M56.91,19.78c.31-5.26,3.62-10.3,6.47-14.32,.44,3.44-1.44,9.44-2.98,11.61-.96,0-2.14,.99-3.48,2.71Z"/>
  <g class="furOverlapLine">
    <path d="M55.91,146.18c-4.84-.43-9.42-1.15-13.72-2.14,.04-4.43-9.15-6.78-12.1-1.54-1.8,3.22-1.71,8.13,3.53,10.05"/>
    <path d="M42.18,144.05c-1.47-.32-2.79-.85-3.91-1.62"/>
    <path d="M53.96,10.51c-1.83,1.94-3.89,3.36-6.3,4.06"/>
    <path d="M42.1,12.76c2.61-.96,5.66-.93,9.13,.1"/>
  </g>
</svg>