<svg viewBox="0 0 167.36 136.03">
  <g class="fur">
    <path d="M42.1,109.1c-1.96-.77-9.92,3.53-9.37,5.46,.47,2.01,11.34,19.79,13.24,20.62,1.54,.66,11.82,.25,12.95-.05,1.31-.3,1.37-2.85,.89-4.69-.75-2.09-2.38-3.56-4.63-3.56-2.5,.05-4.63,.17-6.23-1.91-1.96-2.79-5.47-15.15-6.84-15.86Z"/>
    <path d="M69.83,108.72c-2.23-.66-8.73,3.86-8.12,5.42,.54,1.7,11.72,18.57,13.56,19.36,1.49,.64,11.42,.36,12.51,.07,1.26-.29,1.44-2.51,.98-4.29-.73-2.02-2.42-3.31-4.6-3.31-2.41,.05-4.02,.54-6.02-1.97-1.89-2.7-6.14-14.7-8.31-15.29Z"/>
    <path d="M113.46,97.28c3.17-1.5,7.27-1.8,8.09,.81,3.17,10.57,5.99,20.32,8.1,25.98,.5,1.26,.26,2.31-.63,2.94,2.46-.18,4.66-.12,6.56,.04,2.87,.26,5.1,1.5,5.59,4.39,.32,1.94-.52,3.36-2.38,3.72-1.35,.33-10.35,.36-11.53,.12-2.75-.53-3.39-2.66-2.47-6.2-1.71,0-3.04-1.09-4.09-2.96-2.66-6.89-5.7-12.97-8.04-17.69-.44,5.28-.81,10.65-1.06,14.73-.02,1.37-.62,2.24-1.48,3.03,1.8-.07,3.97-.12,5.53,.19,2.46,.46,3.71,2.25,4.05,4.74,.15,1.87-.48,2.93-2.06,3.24-1.14,.19-10.82,.21-12.11-.05-2.99-.8-3.46-5.51-1-7.7-.91-.73-1.6-2.3-1.62-4.37-.1-7.04-.96-14.99-1.74-22.98-.29-2.75,.1-4.63,1.9-5.01,4.23-.83,8.42-.44,10.39,3.02Z"/>
    <path d="M35.67,62.55c-4.76,14.52-2.75,26.28,10.08,33.64,10.43,5.45,22.93,3.94,30.92-5.11,7.95-2.55,17.51-3.76,26.81-3.67,9,8.85,28.09,3.77,33.9-6.28,11.1-19.18-5.03-35.91-20.01-35.73-6.02,.38-10.81,.12-16.55-1.33-10.72-2.64-21.26-3.44-31.29-2.05-12.32,1.75-22.34,5.89-29.02,12.8-1-2.44-2.94-3.68-6.56-4.47-8.89-2.02-11.84-9.97-11.9-21.58,.06-7.9-9-17.02-19.9-10.6-3.06,1.68-1.61,6.51,2.09,5.5,9.4-3.16,11.88,2.04,10.73,9.65-1.15,7.13,.53,12.92,5.76,19.15,3.05,3.43,6.38,6.53,10.43,9.13,1.63,1.09,2.95,1.23,4.5,.95Z"/>
    <path d="M142.21,13.08c-1.18-4.8-4.88-12.64-6.22-12.58-1.35,.09-3.29,7.96-3.29,13.4"/>
    <path d="M142.14,12.44c-2.29-.27-4.51-.37-6.82-.15-1.03,.09-1.41-1.22-2.41-2.35-2.77-3.11-5.42-8.77-6.9-8.41-1.36,.38-1.74,7.94-1.37,12.55,.1,1.99-.24,4.06-.98,6.15-2.88,8.59-3.48,20.91,10.37,27.3,8.01,3.4,15.63,2.68,22.02-2.56,1.61-1.26,3.38-2.43,5.29-3.5,4.6-2.61,6.34-7.28,5.12-13.23-.32-1.46-1.32-2.25-3.24-3.07-2.17-.91-4.13-2.26-4.86-4.01-.91-2.17-2.61-3.68-4.86-5.21-2.86-2.15-6.72-2.98-11.35-3.51Z"/>
  </g>
  <g class="dullMaroonMedium">
    <path d="M128.98,19.76c-1.82-5.29-2.89-10.13-2.03-15.52,1.85,2.12,3.62,5.99,6.69,9.21-2.53,1.03-4.23,3.49-4.66,6.31Z"/>
    <path d="M139.07,12.19c-1.26-2.72-2.33-6.99-2.15-9.99,0,0,1.8,0,5.22,10.24l-3.07-.25Z"/>
  </g>
  <path class="nose" d="M166.46,28.24c.2,.99,.32,1.94,.36,2.85-1.66-.75-3.22-2.41-3.4-3.56-.15-.95-.09-1.48,.15-2.21,1.69,.77,2.58,1.55,2.89,2.92Z"/>
  <g class="furOverlapLine">
    <path d="M76.68,91.09c1.79-2.18,2.96-4.46,3.29-6.87"/>
    <path d="M103.48,87.42c-1.48-1.41-2.58-2.95-3.38-4.59"/>
    <path d="M40.51,54.83c-2.06,2.26-3.71,4.8-4.84,7.72"/>
    <path d="M113.46,97.28c-2.32,1.1-3.97,2.44-3.52,4.53,.74,2.31,1.65,4.51,2.72,6.61"/>
    <path d="M129.01,127.01c-1.1,.85-2.82,1.83-4.23,2.06"/>
    <path d="M110.12,126.19c-1.31,.5-4.23,.87-5.59,.42"/>
  </g>
</svg>