<svg viewBox="0 0 136.95 144.02">
  <g class="fur">
    <path d="M23.87,115.12c-1.62-.86-11.39,2.48-10.98,4.66,.35,2.23,10.32,22.92,11.59,23.43,1.42,.51,12.35,.31,13.48,.02,1.31-.3,1.61-2.85,1.14-4.69-.75-2.09-2.38-3.31-4.63-3.31-2.5,.05-3.89,.17-5.49-1.91-1.96-2.79-3.63-17.33-5.09-18.19Z"/>
    <path d="M41.67,110.86c-2.62-.77-10.36,3.7-9.64,5.98,.7,2.18,14.13,21.99,16.29,22.93,1.75,.75,11.49,.66,12.77,.33,1.48-.34,1.45-3.21,.75-5.23-.85-2.37-3.16-3.04-5.72-3.04-2.82,.06-4.33,.05-6.08-2.18-2.25-2.99-5.96-17.56-8.36-18.78Z"/>
    <path d="M118.4,134.69c1.33-1.25,1.26-2.82,.73-4.37-1.88-5.87-3.58-12.71-5.31-20.11-.71-3.55-3.78-2.87-7.35-1.44-3.03,1.21-5.88,3.05-4.53,5.66,3.43,6.68,6.84,14.25,9.23,20.72,.58,1.38,2.38,1.42,4.35,.87-.96,1.17-1.58,2.55-1.48,4.4,.1,1.66,.6,2.65,2.29,2.83,4.24,.24,9.99,.24,12.95-.09,1.71-.2,3.11-1.18,3.02-2.87-.18-2.74-1-4.98-3.78-5.56-3.56-.68-6.82-.54-10.11-.04Z"/>
    <path d="M85.28,131.36c5.48-.27,9.61,1.04,9.37,5.55-.24,2.31-.94,3.28-3.18,3.5-3.99,.3-7.93,.28-11.8-.1-2.83-.12-3.69-1.79-3.37-3.99,.44-3.28,2.04-4.5,5.05-4.93-2.41-.83-3.39-3.11-2.63-5.01,2.34-5.82,4.44-13.37,6.65-21.47,.55-1.89,1.83-2.26,3.8-2,2.17,.16,4.48,1.4,6.6,2.6,2.08,1.22,2.73,2.72,1.4,4.6-3.95,6.33-6.91,12.73-9.7,18.7-.59,1.33-1.15,1.98-2.2,2.55Z"/>
    <path d="M87.13,95.85c-8.78-1.85-18.03-1.03-27,1.64-9.2,10.31-24.81,10.31-34.7,1.6-9.96-9.69-9.91-23.87-2.74-36.37-1.63,.06-2.97-.93-3.93-1.55C.56,49.34-4.84,23.01,6.22,2.32c1.86-3.52,5.64-1.31,4.63,1.39-7.64,22.92-3.7,39.13,13.66,47.81,3.66,1.73,5.23,2.95,4.17,5.56,13.25-9.17,26.04-9.6,36.58-7.52,11.94,2.47,24.34,3.93,38.09,5.33,20.26,2.1,27.95,18.79,19.33,34.82-6.81,11.3-21.84,14.03-35.54,6.16Z"/>
    <path d="M135.53,8.4c1.54,1.59,1.26,6.73-1.72,13.55-1.26,3.08-1.11,5.92-.71,9.1,1.16,11.48-8.04,23.11-21.09,19.87-3.17-.79-5.66-1.87-9.46-2.07-5.58-.1-10.62-2.61-12.44-7.33-1.07-2.61-.81-5.97,1.12-8.39,1.28-1.69,2.12-2.99,2.88-6.12,.81-4.1,5.92-9.43,9.86-10.85-1.16-1.11-1.21-3.61-.86-6.19,.66-4.55,.29-8.5,2.51-8.34,.71-.02,1.74,2.48,3.96,4.85,2.58,2.58,3.79,5.66,4.96,8.92,2.27-.08,4.27,.53,6.16,1.84,4.4-4.8,13.2-10.61,14.82-8.84Z"/>
  </g>
  <g class="dullMaroonMedium">
    <path d="M105.26,4.54c2.61,2.92,4.35,6.5,5.03,10.86-2.34-.08-4.48,.13-6.31,.76-.15-4.97,.8-7.28,1.28-11.62Z"/>
    <path d="M128.87,25.07c2.65-4.14,5.18-10.1,5.45-14.3-4.7,.41-8.64,4.9-11.84,7.63,3.13,1.84,5.23,4.31,6.4,6.67Z"/>
  </g>
  <path class="nose" d="M100.2,34.77c-.4-1.34-4.83-2.25-6.11-1.14-.72,.6,.9,3.73,1.71,3.88,.98,.16,4.65-1.63,4.39-2.74Z"/>
  <g class="furOverlapLine">
    <path d="M60.13,97.5c1.83-2.09,3.17-4.67,4.13-7.62"/>
    <path d="M87.13,95.85c-2.18-1.58-3.56-4.6-3.65-7.53"/>
    <path d="M28.68,57.07c-2.11,1.41-4.55,3.54-5.98,5.65"/>
    <path d="M118.4,134.69c-.86,.48-1.81,.93-2.88,1.33"/>
    <path d="M85.28,131.36c-1.26,.6-2.63,.41-3.92,.03"/>
  </g>
</svg>