<svg viewBox="0 0 154.77 189.72">
  <g class="fur">
    <path d="M103.78,161.91c2.55-.69,9.66,2.97,9.03,4.72-.44,1.96-10.2,21.18-12.39,22.14-1.69,.79-11.3,.36-12.39,.07-1.26-.29-1.57-2.51-1.11-4.29,.73-2.02,2.42-3.8,4.6-3.8,2.41,.05,3.03,.13,4.59-2.8,1.65-2.87,5.03-15.32,7.67-16.04Z"/>
    <path d="M76.26,161.35c1.72-1.13,9.87,1.32,9.78,3.66-.09,2.17-8.13,22.43-10.32,23.38-2.34,1.04-9.84,.52-11.4-.05-1.56-.29-1.67-2.36-1.21-4.13,.73-2.02,2.68-4.14,4.86-4.14,1.35,.08,1.47-.62,2.38-2.54,1.66-2.96,4.04-14.69,5.92-16.18Z"/>
    <path d="M79.63,2.59c1.28,.61,2.75,7.75,1.68,12.49-.81,2.83,.75,5.39,1.13,7.57,1.85,9.69,1.13,22.27-13.61,26.16-6.75,1.8-16.13-1.2-22.09-7.41-1.55-1.67-3.65-2.73-5.34-4.12-4.07-3.37-4.98-8.73-2.75-14.37,.57-1.38,1.92-2.27,3.96-2.74,2.29-.52,4.68-.89,5.89-2.38,1.57-1.74,3-3.05,5.49-4.16,3.07-1.37,7.25-2.02,11.91-1.74,2.56-4.05,3.61-11.67,4.92-11.38,1.31,.33,2.54,6.1,2.26,9.61,2.11-2.98,5.16-8.13,6.55-7.53Z"/>
    <path d="M135.11,100.31c11.91,7.49,15.1,15.93,10.55,26.48-4.24,7.24-10.24,7.76-17.17,4.24-2.79-1.55-5.17-2.59-6.93-1.24-.05-6.36-1.14-12.71-3.21-19.03-6.22-17.62-17.58-38.06-27.72-48.41-9.93-9.62-23.58-15.2-36.72-3.62-9.1,8.69-6.69,26.11,1.96,31.5-4.02-.18-7.36-1-10.86-2.13-2.83-1.22-5.22-1.42-7.03-.31-2.56-1.64-4.87-1.64-6.93-.1-1.93,1.84-4.02,3.5-6.21,5.07-3.07,2.98-2.42,5.49,.93,7.65,1.21,.99,2.49,1.08,3.83,.52,2.6-1.6,5.27-3.78,7.96-6.21,.78,1.56,2.11,2.42,3.83,2.79,4.4,1.08,8.67,2.58,12.83,4.45,4.9,2.6,8.44,2.55,10.45-.52,3.68,5.01,5.44,12.56,6.31,21.31-4.65,15.72,6.31,29.79,18.2,33.1,16.03,4.03,28.55-5.38,31.24-18.1,1.65,2.48,2.59,1.24,5.79,2.48,17.07,5.69,26.68-4.55,27.82-15.62,1.65-15.82-5.79-23.07-16.45-28.65-3.31-2.07-6.1,2.17-2.48,4.34Z"/>
    <path d="M16.34,37.94c1.75-1.62,3.16-2.31,4.59-.03,4.47,6.31,9.74,11.71,15.03,15.77,3.16,2.32,4.48,4.11,3.12,5.84-2.17,3.02-5.54,5.9-8.06,6.86-1.54,.55-2.72,.4-3.66-1.33-3.16-6.86-7.81-14.63-12.26-19.33-2.03-2.22-2.72-3.51-1.87-4.95-2.38,.52-8.85-4.19-11.87-7.35-1.19-1.29-1.19-3.39,.28-5.03,1.94-1.99,5.3-2.68,7.24-1.01,1.82,1.44,3.1,2.83,5.5,4.27,2.44,1.52,3.14,4.29,1.95,6.3Z"/>
  </g>
  <path class="dullMaroonMedium" d="M78.64,4.75c.92,4.46,.1,8.75-1.85,12.59-1.05-1.3-2.41-2.38-4.06-3.24,1.57-4.25,3.42-6.02,5.9-9.35Z"/>
  <path class="nose" d="M38.64,22.91c-.29,.74-.53,1.48-.72,2.21,1.92-.1,4.11-1.14,4.55-2.05,.36-.8,0-1.89-.67-2.69-1.6,.51-2.68,1.34-3.17,2.53Z"/>
  <g class="furOverlapLine">
    <path d="M73.07,10.11c-.71,1.06-1.25,2.17-1.55,3.35-1.79-.8-3.67-1.32-5.63-1.57"/>
    <path d="M16.34,37.94s-1.5,2.36-3.11,2.82"/>
    <path d="M37.99,87.8c2.51,2.07,2.34,4.39-.41,6.93"/>
    <path d="M55.88,90.24c2.44,.21,3.96,.15,6.48,.31,4.69,.29,4.58,7.19,2.31,10.9"/>
    <path d="M66.07,94.35c1.74,.45,3.48,.39,5,0"/>
    <path d="M70.99,122.76c1.09-3.09,2.75-5.8,4.99-7.08"/>
    <path d="M121.56,129.79c.01,2.66-.34,5.32-1.14,7.96"/>
  </g>
</svg>