<svg viewBox="0 0 196.32 78.87">
  <g class="flatIndigoDark">
    <path d="m76.17,29.71c-1.7-9.5-12.44-10.79-20.25-8.22-5.04,1.66-3.42,9.4-.49,15.24-.8,4.06-1.48,9.67,2.03,10.66,6.32,1.8,15.41-2.05,18.35-8.72l.36-8.96Z"/>
    <path d="m151.08,48.37c-1.66-9.27-12.43-12.57-20.91-8.33-4.64,2.32-2.82,9.48.04,15.18-.78,3.96-1.1,9.13,2.35,10.05,6.5,1.74,15.43-1.48,18.3-8l.22-8.9Z"/>
    <path d="m108,36.78c-1.62-9.06-11.17-11.08-18.94-7.72-4.65,2.02-3.85,9.36-1.05,14.92-.76,3.87-1.71,8.18,1.63,9.13,6.03,1.72,15.6-.67,17.81-7.28l.54-9.06Z"/>
  </g>
  <g class="flatAmberDark">
    <path d="m47.08,32.17c1.58-1.76,4.54.34,8.63-.18,3.83-.49,2.4-8.05,10.31-8.81,1.98-.19,6.74.41,10.15,6.53,1.33,2.39,5.86.62,5.97,4.66.09,3.05-4.2,1.78-6.33,4.3-1.91,2.25-4.65,4.79-8.44,4.98-5.98.3-8.4-4.88-10.71-4.31-2.86.7-6.66,4.15-9.48,1.51-1.81-1.7-2.04-6.53-.11-8.68Z"/>
    <path d="m120.16,51.35c1.54-1.72,5.83.73,9.83.22,3.74-.48,1.21-8.17,9.83-9.5,3.74-.57,8.06-.22,11.26,6.29,1.11,2.26,5.21.84,5.58,4.5.35,3.41-4.17,1.63-5.8,4.4-1.44,2.43-5.07,5.02-9.72,4.79-5.84-.28-8.23-4.09-10.49-3.53-2.79.68-8.42,3.28-10.38,1.3-1.7-1.72-1.99-6.38-.11-8.48Z"/>
    <path d="m80.04,39.64c1.51-1.68,4.33.33,8.23-.17,3.65-.46,2.29-7.68,9.84-8.4,1.89-.18,6.28.08,9.89,5.72,1.33,2.08,4.96,1.5,4.75,4.84-.22,3.34-3.25,1.82-5.29,4.22-1.82,2.14-4.44,4.57-8.05,4.75-5.7.29-8.01-4.65-10.22-4.11-2.73.67-6.36,3.96-9.04,1.44-1.73-1.62-1.94-6.23-.11-8.28Z"/>
  </g>
  <g class="flatIndigoDark">
    <path d="m68.82,34.6c-1.36-2.83-4.72-3.62-7.56-3.55-1.39.04-1.68,6.49-.31,6.68,2.37.33,6.4-.87,7.87-3.13Z"/>
    <path d="m50.22,31.58c-1.34-.21-2.4-.24-3.14.59-1.92,2.15-1.7,6.98.11,8.68.91.85,1.93,1.07,2.98.94-.72-3.73-.68-7,.05-10.21Z"/>
    <path d="m144.3,53.52c-1.32-2.76-5.1-4.38-7.86-4.31-1.35.03-1.72,6.47-.38,6.66,2.31.33,6.81-.15,8.24-2.36Z"/>
    <path d="m100.79,41.96c-1.29-2.7-4.31-3.78-7.01-3.72-1.32.03-1.37,6.35-.06,6.53,2.26.32,5.67-.66,7.08-2.82Z"/>
    <path d="m83.04,39.08c-1.28-.2-2.29-.23-3,.56-1.83,2.05-1.62,6.66.11,8.28.87.82,1.84,1.02,2.84.9-.9-3.56-.93-6.69.05-9.75Z"/>
  </g>
  <g class="flatIndigoMedium">
    <path d="m167.18,21.2c-2.11-11.84-14.98-13.86-25.12-9.47-6.07,2.63-4.64,11.61-.99,18.88-.99,5.06-1.38,11.58,2.99,12.82,7.88,2.24,18.74-2.09,22.4-10.4l.7-11.84Z"/>
    <path d="m62.47,51.47c-2.03-11.38-15.25-15.42-25.65-10.22-5.69,2.84-3.46,11.63.05,18.62-.95,4.86-1.34,11.19,2.88,12.32,7.98,2.13,18.93-1.82,22.45-9.81l.27-10.91Z"/>
    <path d="m125.4,57.21c-1.98-11.09-14.53-12.61-23.65-9.6-5.89,1.94-4,10.99-.57,17.8-.93,4.74-1.72,11.29,2.37,12.46,7.38,2.1,18-2.4,21.43-10.19l.42-10.46Z"/>
    <path d="m96.88,12.5c-2.02-11.29-14.14-14.84-24.47-9.68-5.65,2.82-4.43,11.08-.94,18.01-.95,4.83-1.19,10.67,2.86,12.23,8.33,3.23,18.38-1.34,21.88-9.28l.67-11.29Z"/>
    <path d="m37.93,32.14c-2.07-11.6-14.3-14.19-24.24-9.88-5.95,2.58-4.92,11.98-1.34,19.1-.97,4.96-2.19,10.47,2.09,11.69,7.72,2.2,19.97-.86,22.8-9.31l.69-11.6Z"/>
    <path d="m189.94,50.08c-2.18-12.22-15.96-15.47-25.29-11.06-6.18,2.92-6.14,13.99-1.42,20.13-2.12,4.94-2.46,10.84,2.2,12.31,7.08,2.24,21.04-.91,24.02-9.81l.48-11.57Z"/>
  </g>
  <g class="flatAmberMedium">
    <path d="m130.66,24.94c1.97-2.2,5.65.42,10.75-.22,4.77-.61,2.99-10.03,12.85-10.97,2.47-.24,8.2.11,12.91,7.47,1.73,2.71,7.47,2.11,7.19,6.48-.28,4.37-5.23,2.22-7.89,5.35-2.38,2.8-5.8,5.97-10.52,6.2-7.45.37-10.46-6.08-13.34-5.37-3.56.87-8.3,5.17-11.81,1.88-2.25-2.11-2.54-8.14-.14-10.82Z"/>
    <path d="m24.55,55.12c1.89-2.11,7.15.89,12.05.27,4.59-.58,1.49-10.02,12.05-11.65,4.58-.7,9.89-.27,13.81,7.72,1.36,2.78,6.39,1.04,6.85,5.51.43,4.19-5.11,2-7.12,5.4-1.76,2.98-6.22,6.16-11.92,5.88-7.16-.35-10.1-5.01-12.87-4.33-3.42.84-10.33,4.03-12.73,1.59-2.09-2.11-2.44-7.82-.14-10.4Z"/>
    <path d="m91.42,60.08c1.84-2.06,5.3.4,10.08-.21,4.47-.57,2.81-9.4,12.04-10.29,2.32-.22,7.87.48,11.86,7.63,1.56,2.79,6.84.72,6.98,5.44.1,3.56-4.9,2.08-7.4,5.02-2.23,2.62-5.44,5.59-9.86,5.81-6.98.35-9.81-5.7-12.51-5.03-3.34.82-7.78,4.85-11.07,1.76-2.11-1.98-2.38-7.63-.13-10.14Z"/>
    <path d="m59.24,16.13c1.88-2.1,7.1.89,11.96.27,4.55-.58,1.48-9.95,11.96-11.56,4.55-.7,9.81-.27,13.71,7.66,1.35,2.76,7.12,2.02,6.86,6.18s-5.53,1.73-7.53,5.11c-1.75,2.96-5.77,5.65-11.43,5.38-7.11-.35-10.03-4.97-12.77-4.3-3.4.83-10.25,4-12.64,1.58-2.07-2.1-2.42-7.76-.13-10.32Z"/>
    <path d="m2.14,35.8c1.93-2.15,5.54.42,10.54-.22,4.68-.6,2.93-9.83,12.59-10.76,2.42-.23,8.04.1,12.66,7.32,1.7,2.66,6.36,1.92,6.08,6.2s-4.16,2.33-6.77,5.4c-2.33,2.74-5.68,5.85-10.31,6.08-7.3.37-10.26-5.96-13.08-5.26-3.49.86-8.14,5.07-11.58,1.85-2.21-2.07-2.49-7.98-.14-10.6Z"/>
    <path d="m152.48,53.28c2.03-2.27,5.84.44,11.1-.23,4.93-.63,3.09-10.36,13.27-11.33,2.55-.24,8.22.76,13.08,8.37,1.79,2.8,6.15,1.35,5.86,5.86s-3.59,2.47-6.34,5.7c-2.45,2.89-5.99,6.16-10.86,6.4-7.69.39-10.81-6.27-13.78-5.55-3.68.9-8.57,5.34-12.2,1.94-2.33-2.18-2.62-8.4-.15-11.17Z"/>
  </g>
  <g class="flatIndigoMedium">
    <path d="m157.76,27.96c-1.69-3.52-6.22-4.45-9.76-4.36-1.73.04-1.2,7.8.51,8.04,2.95.42,7.41-.86,9.24-3.68Z"/>
    <path d="m54.17,57.79c-1.63-3.39-6.25-5.37-9.65-5.28-1.66.04-2.11,7.94-.46,8.17,2.84.4,8.35-.18,10.11-2.89Z"/>
    <path d="m116.82,62.91c-1.58-3.3-5.52-4.23-8.83-4.14-1.62.04-1.96,7.58-.36,7.8,2.77.39,7.47-1.02,9.19-3.66Z"/>
    <path d="m88.28,18.68c-1.61-3.36-6.58-5.19-9.95-5.11-1.65.04-1.36,7.84.27,8.07,2.82.4,7.93-.27,9.68-2.96Z"/>
    <path d="m28.71,38.77c-1.66-3.45-5.52-4.84-8.98-4.76-1.69.04-1.76,8.13-.08,8.36,2.89.41,7.26-.84,9.06-3.61Z"/>
    <path d="m180.47,56.41c-1.75-3.64-5.81-5.1-9.46-5.01-1.78.05-2.21,8.53-.45,8.78,3.05.43,8.02-.86,9.91-3.77Z"/>
    <path d="m28.55,54.54c-1.75-.29-3.18-.32-3.99.58-2.3,2.57-1.95,8.28.14,10.4.83.84,2.19,1,3.76.83-1.08-3.52-1.16-8,.1-11.81Z"/>
    <path d="m134.58,24.2c-1.67-.26-2.99-.3-3.92.74-2.4,2.68-2.11,8.7.14,10.82,1.14,1.07,2.4,1.33,3.71,1.18-.89-4.64-.85-8.73.06-12.73Z"/>
    <path d="m95.09,59.39c-1.56-.24-2.8-.28-3.67.69-2.25,2.51-1.98,8.16.13,10.14,1.06,1,2.25,1.25,3.48,1.1-.84-4.35-.79-8.18.06-11.93Z"/>
    <path d="m63.2,15.55c-1.74-.28-3.16-.32-3.96.58-2.29,2.55-1.94,8.22.13,10.32.82.83,2.17.99,3.73.83-1.08-3.5-1.16-7.94.1-11.72Z"/>
    <path d="m5.98,35.08c-1.64-.26-2.93-.3-3.84.72-2.35,2.62-2.07,8.53.14,10.6,1.11,1.04,2.35,1.3,3.64,1.15-1.16-4.55-1.19-8.56.06-12.48Z"/>
    <path d="m156.53,52.52c-1.72-.27-3.09-.31-4.05.76-2.47,2.76-2.18,8.99.15,11.17,1.17,1.1,2.48,1.37,3.84,1.21-1.22-4.8-1.25-9.02.06-13.14Z"/>
  </g>
</svg>