<svg viewBox="0 0 19.66 49.47">
  <path class="bennettShoe" d="M10.37,44.35c3.24.28,4.71,1.76,3.47,4.12-.37.69-6.28.64-7.34,0-1.43.55-4.66.46-5.26,0a2.75,2.75,0,0,1,1.43-4.07Z"/>
  <path class="bennettJeans" d="M11.22,28.27a123.07,123.07,0,0,1-.12,16.19c-.35,1-3.86,1.06-4.68.25-.84.69-3.92.78-4.33,0,.14-3.18-.18-8.82-.9-11.08a8.53,8.53,0,0,1,.13-5.7Z"/>
  <polygon class="paperLight" points="17.27 9.35 8.29 9.41 7.51 16.37 16.51 16.37 17.27 9.35"/>
  <g class="skinEastAsian">
    <path d="M4.44,9.82a7.33,7.33,0,0,1,.19,5.25l4.3.28A10.91,10.91,0,0,1,9,12.71,3.51,3.51,0,0,0,12.14,9.3a5.92,5.92,0,0,1,.69-2.8Z"/>
    <path d="M17.41,16.34c-.59.2-.9,5.58-2.66,6.23l-1.84-3.09c.88-1.05,2.43-3.22,2.31-3.76a3.11,3.11,0,0,1,.7-3.26c1.08-.92,2.18-1,2.92.09S19.27,15.85,17.41,16.34Z"/>
  </g>
  <path class="bennettSleeves" d="M8.93,14.27c2.68-.33,4.74,2.14,6,4.95.78,1.84.92,3.19-.78,3.59a2.28,2.28,0,0,1-2.5-1.33l-10,.33C.26,21.54.39,20,.7,18.41,1.11,16,2.34,14.33,4.63,14"/>
  <path class="shirtWhite" d="M8.93,14.27c-.17,2.13.83,4.67,2.73,7.21a65.5,65.5,0,0,0,.09,7.88C11,30.6,1.82,30.51.57,29c.46-2.76.94-6,1-7.76,0-1.47,1.88-5.3,3-7.24A13.61,13.61,0,0,0,8.93,14.27Z"/>
  <path class="clothesOverlapLine" d="M5.24,33.06A98.07,98.07,0,0,1,6.42,44.71c-.74,1.29-.79,3.49.08,3.76"/>
  <path class="hairBlack" d="M12.24,7.12a3.85,3.85,0,0,0-3,2.55c-.59,1.59-4.25,1-5.16,0a6.13,6.13,0,0,1-1-5.48C3.77,1.6,5.34.29,9,.53,13.52.77,15,6.36,12.24,7.12Z"/>
</svg>
