<svg viewBox="0 0 23.15 49.55">
  <g class="bennettShoe">
    <path d="M13.44,44.51c1.49-.62,3.46-.88,4.38.07a1.55,1.55,0,0,1-.62,2.6c-1.92.89-5.25,2-6.17,1.86a2.59,2.59,0,0,1-1-3.19Z"/>
    <path d="M9.09,47.39c-.08-1.51-1.63-2.08-3.6-2.11l-3.3-.7a2.36,2.36,0,0,0-1.59,3c.51.57,4.1,1.16,5.94,1.38C7.66,49.08,9.09,48.58,9.09,47.39Z"/>
  </g>
  <path class="bennettJeans" d="M10.56,29.43a75.62,75.62,0,0,0,3.67,14.91A7.3,7.3,0,0,1,10,45.85c-.8-1.59-1.74-3.36-2.55-5.24A37.13,37.13,0,0,0,6,45.38a4.23,4.23,0,0,1-3.78-.8C3.06,40.67,3.81,36,4.28,32.92A4.6,4.6,0,0,1,3,28.53Z"/>
  <path class="shirtWhite" d="M11.61,14.62a11.4,11.4,0,0,1-4-1.19c-3.63,1.85-5.48,12.9-5.07,15.7,1,1.12,8.29,1.51,9.11.73C12.3,28,13.13,17.59,11.61,14.62Z"/>
  <path class="bennettSleeves" d="M10.41,22.39a17.27,17.27,0,0,0,1.53,1.31c0,.64-1.57,2.87-2.24,2.94A6.11,6.11,0,0,1,6.41,23.7C6,22.07,5.09,18.43,5.33,16.4a2,2,0,0,1,3.76-.64C10,18,10,21.83,10.41,22.39Z"/>
  <path class="clothesOverlapLine" d="M4.28,32.92c1,1.07,2.05,4.88,3.2,7.69"/>
  <polygon class="sketchPaperLight" points="16.38 22.38 20.36 15.79 22.41 16.59 18.21 23.45 16.38 22.38"/>
  <g class="skinEastAsian">
    <path d="M16.71,9a6,6,0,0,0,.84-2.53C12.27,3,8.89,3.54,8.44,10.35a11.18,11.18,0,0,1-.72,3.15,11.22,11.22,0,0,0,3.6,1.08,5.22,5.22,0,0,1,.18-1.18,6.28,6.28,0,0,0,1.88.26c1.23-.05,1.91-.92,2.36-2.1A.83.83,0,0,0,16.8,11C17,10.37,16.24,9.74,16.71,9Z"/>
    <path d="M17.33,21.84c.85-1,1.36-2.09-.85-2.52-1.38-.3-2,.9-2.52,1.94a6.51,6.51,0,0,1-1.49.1c0,1,0,1.25-.08,2.29l-.45.05c0,.64-1.57,2.88-2.24,2.94,2.3,1.27,6.09-1.09,6.57-1,1.8.55,3.69.5,4.06-1.89C20.53,22.24,19.37,21.2,17.33,21.84Z"/>
  </g>
  <g class="skinOverlapLine">
    <path d="M17.33,21.84c-.66.25-.81.21-1.26.84-.92.91-2.53.84-4.13,1"/>
    <path d="M11.5,13.4a5.18,5.18,0,0,1-1.26-.58"/>
  </g>
  <path class="flatChartreuseMedium" d="M16.78,19.75a2.87,2.87,0,0,0-.71,0l-1.3-4.44a.76.76,0,0,1,.64-.19Z"/>
  <path class="hairBlack" d="M14,6.44c-.71.84-1.52.94-2.95.39C9.72,6.44,9.29,7.94,9.36,10.2a2.72,2.72,0,0,1-1.23.13C6.67,8,6.28,6.13,7.53,3.57s3.65-3.66,7-2.76c2.39.66,4.61,2.32,4.28,4.72C18.5,7.22,16.7,7.54,14,6.44Z"/>
</svg>
