<svg viewBox="0 0 16.61 51.84">
  <g class="skinEastAsian">
    <path d="M11.68,15.5a2.58,2.58,0,0,1,2.5,2.6,63.73,63.73,0,0,0,.25,11.22c.36,1.43,1.34,1.8,1.15,3.67a2.18,2.18,0,0,1-2.77,2Z"/>
    <path d="M12,34.76a108.26,108.26,0,0,1-1,13.54l-7.41-.13A124.12,124.12,0,0,0,3.53,34.7Z"/>
  </g>
  <path class="anitaShoe" d="M2.15,50.47a2.56,2.56,0,0,1,2-3.3,5.18,5.18,0,0,1,3.76.38,4.73,4.73,0,0,1,4.11-.17,2.38,2.38,0,0,1,1.48,3.09c-.29,1-4.58.93-5.53.4C7.14,51.46,2.4,51.68,2.15,50.47Z"/>
  <path class="anitaDress" d="M3.67,15.54c1.89-1.65,7-1.83,8.83-.13.9.91,1.55,5.55.29,9.08,1.34,2.11,1.51,8.57.72,10.84-.64,1.22-10.17,1.7-11.44-.2-.7-1.51.08-7.5,1.4-10.37C2.61,21.54,2.23,16.81,3.67,15.54Z"/>
  <path class="clothesOverlapLine" d="M7.94,47.55A2.26,2.26,0,0,1,8,50.87"/>
  <path class="clothesDisplayLine" d="M12.79,24.49c-1,1.2-7.72,1.23-9.32.27"/>
  <g class="hairBlackDark">
    <path d="M5.12,2.47c-.84-.64-2.28-.21-2.74,1.29a13.91,13.91,0,0,0-.36,6,4.47,4.47,0,0,0,2.41,2.9c.25-.83,1.07-1.32,1.41-2.44Z"/>
    <path d="M12.85,2.47c.84-.64,2.28-.21,2.73,1.29a14.07,14.07,0,0,1,.37,6,4.51,4.51,0,0,1-2.42,2.9c-.24-.83-1.07-1.32-1.4-2.44Z"/>
  </g>
  <g class="skinEastAsian">
    <path d="M4.82,17.18c-.11,2.68-1.18,7.23-1.11,11.5-.11,1.47.78,2.42.75,4.06S4,35.77,3,35.88A2,2,0,0,1,.8,34.82c-.81-2.5.28-3,.35-4.94-.28-4.91.21-11,1.21-12.82C3.15,15.24,4.75,15.42,4.82,17.18Z"/>
    <path d="M14.05,5.38C12.86-1.53,1.78,1.19,4.94,9.72a6.45,6.45,0,0,0,1.93,2.85,4.69,4.69,0,0,1-.41,1.88c.89,1.06,3.86.89,4.24.17a8.64,8.64,0,0,1,0-1.35,4.09,4.09,0,0,0,3.27-4.12C13.77,7.49,14.22,6.51,14.05,5.38Z"/>
  </g>
  <g class="skinOverlapLine">
    <path d="M7.37,47.28a89.3,89.3,0,0,0,1-10.88"/>
    <path d="M10.67,13.27a7.22,7.22,0,0,1-3.3-.39"/>
  </g>
  <path class="hairBlack" d="M14.46,5.4a25.43,25.43,0,0,1-7.34,0c-.43,1.89-1.35,1-1.49,2.85a3,3,0,0,1-.55,1.77c-1.25-1.2-1.72-3.7-1.14-6C4.6,1.28,7.66.42,9.74.51S15,2.3,14.46,5.4Z"/>
</svg>
