<svg viewBox="0 0 48.14 76.12">
  <path class="khariShoe" d="M30.14,71.9c-.37-1.62.18-3,2.68-3.52,2.08-.4,8.76-.45,10.15,0,1.9.62,3.55,1.77,3.1,3.36-.38,1.15-5,1.13-6.27.54C38.46,72.93,30.49,73.29,30.14,71.9Z"/>
  <path class="khariPajama" d="M44.53,44.47C44.27,53,43.79,61,42.94,68.27c-.74.66-3.53.93-4.7.38-1.11.76-5.48.71-6.65-.16a181.09,181.09,0,0,1-2-24.27Z"/>
  <path class="khariKurta" d="M38.72,20.48c.32-1.22,1.21-1.7,2.61-2.34a4.31,4.31,0,0,0,2.13,1.13c1.83.46,2.65,1.71,2.72,3.78a90.11,90.11,0,0,0,.56,12.46c.29,2.19.68,4.19.88,5.29a4,4,0,0,1-2.71.94s1.07,5.09,1.12,6c-.86,1.07-5.24,3.19-7.71-1.63A7.06,7.06,0,0,1,30.51,50c-1.26-.31-2.55-1.1-2.69-1.86a42.07,42.07,0,0,0,1-5.84c-1.32.25-3.67,0-4.66-.82,0-7,1.65-15.53,3.44-20a4.07,4.07,0,0,1,3.25-2.42,8.81,8.81,0,0,0,3.61-1.24C36.35,18.41,38.32,19.16,38.72,20.48Z"/>
  <g class="clothesOverlapLine">
    <path d="M44.47,26.42a59.15,59.15,0,0,0-.34,9.69,25.92,25.92,0,0,0,.78,5.63"/>
    <path d="M30.07,26.1a52.59,52.59,0,0,0-.46,9s.36,7-.78,7.19"/>
    <path d="M38.24,68.65c.26-6.55.3-15.64.08-22.53"/>
    <path d="M39.8,72.25C41,72,41.71,70,39.47,68.92"/>
  </g>
  <path class="clothesBorderLine" d="M38.32,46.12c.32-4.3,1-19.64.4-25.64"/>
  <g class="skinBlack">
    <path d="M42.62,10.26a9,9,0,0,0,.19,2.11,4.14,4.14,0,0,1-2,4.27,6,6,0,0,0,.27,2.3c-2,2.11-4.14,2-6.49.07a5.28,5.28,0,0,0,.58-2.81,6.34,6.34,0,0,1-1.74-3.93C29.19,3.72,47.46.24,42.62,10.26Z"/>
    <path d="M46.84,41a5.22,5.22,0,0,1-1.35,5.84l-1.56-5.31Z"/>
    <path d="M29.57,41.68l-4.41-.33c-.88,2.6.77,6.14,3.79,6.28Z"/>
  </g>
  <path class="khariTurban" d="M42.14,5.58a10.3,10.3,0,0,1,.48,4.68c2.7-1.5,3.35-3.63,2.76-6.73C45,2,43.51,1.63,41.76,2,41.12.67,39.48.45,38.05.51a13.32,13.32,0,0,0-5.61,1.42,3.74,3.74,0,0,0-2.31,3.61c-.24,3.71,1.17,5.71,3.32,6.73a8.24,8.24,0,0,1-.09-3.06C36.85,8.69,39.88,7.82,42.14,5.58Z"/>
  <path class="hairBlack" d="M10,23.16c0-4.53,2.32-6.22,6.84-5.28A4.28,4.28,0,0,1,20,22.07a12,12,0,0,0,.63,3.83c1.25,2.93-.63,5-2.71,5.25L10,31.3C7.4,31.05,7.74,26.91,10,23.16Z"/>
  <path class="skinIndian" d="M10,23.16c3.11.64,6,.54,8.23-1.17.29.78-.29,2.18,0,3.43a3.94,3.94,0,0,1-2.43,4.63,5.47,5.47,0,0,0,0,.6c3.49.58,5.31,2.23,5.29,5.55a25.35,25.35,0,0,0,1,9.11c1.63,4.61,1.4,8-1.59,9.51l-17.26.23L5.52,35.62c.38-4.58,6.53-5.09,6.53-5.09a3.91,3.91,0,0,0,0-.61c-2.28-1.31-1.84-2.74-2.78-5.33Z"/>
  <g class="skinOverlapLine">
    <path d="M15.82,30.05a5.28,5.28,0,0,1-3.73-.13"/>
    <path d="M40.83,16.64c-1.54.74-4.15.85-5.64-.44"/>
  </g>
  <path class="lizSari" d="M18.91,36.35c1,1.5.92,3.94.41,6-.34,1.85.49,4.21,1.1,6.22a76.33,76.33,0,0,1,1.82,8.28,151.88,151.88,0,0,1,2,16.75,5.16,5.16,0,0,1-4.86,1.29c-2.78-.47-4.55,1.62-9.16.29-2.48-.8-5.87,1-8.5-.81-.3-3,.46-10.57,1.16-15.6A87.56,87.56,0,0,1,8.81,36.48,11.33,11.33,0,0,0,18.91,36.35Z"/>
  <path class="lizSash" d="M21.48,34.45C21.85,36,16.55,46.81,9.8,54.1a27.11,27.11,0,0,1-7.45,6.49,77.1,77.1,0,0,1,.75-8.46,22.86,22.86,0,0,0,4.13-4.42A73.67,73.67,0,0,0,17.43,30.9,5.31,5.31,0,0,1,21.48,34.45Z"/>
  <path class="lizVeil" d="M16.86,17.88c-2.14-.32-4.27.1-5.31,2.45C10.28,23,9,32.26,8.43,41c-.16,2.82-.3,6.76.27,9.27-.17,1.46-6.59,4.61-8.19,4.24A57.71,57.71,0,0,1,3.87,33.88,42.1,42.1,0,0,0,6,25.4C7.35,18.34,12.13,16.15,16.86,17.88Z"/>
</svg>
