<svg viewBox="0 0 17.77 49.14">
  <path class="bennettJeans" d="M14.48,28a116.65,116.65,0,0,1-2,18L4.7,45.82a121.11,121.11,0,0,1-1.76-18Z"/>
  <path class="bennettShoe" d="M8.5,45.25c2.32-1,5.48-.79,6,1.47.15,1.2-.4,1.73-1.66,1.8-1.81.08-3.59,0-4.28-.54-.66.62-2.23.72-3.74.63C3,48.43,2.49,47.64,3,46.37,4,44.51,6.94,44.44,8.5,45.25Z"/>
  <path class="bennettSleeves" d="M13.19,12.48c3.46.56,3.92,5.33,4.08,10.43.08,2.46-2.65,2.75-3.75,2.36l-9-.05c-2.68.39-3.88,0-4-2.51,0-3.37.93-9.6,4.52-10.39Z"/>
  <path class="shirtWhite" d="M13.19,12.48A17.73,17.73,0,0,0,5,12.32,39.61,39.61,0,0,1,3.59,24.1l0,1.18L14,25.34l0-1.17A51.42,51.42,0,0,1,13.19,12.48Z"/>
  <path class="clothesOverlapLine" d="M8.79,31.86c-.09,4.21-.19,8.7-.29,13.39,0,.86.08,2,0,2.73"/>
  <polygon class="paperLight" points="4.34 23.85 13.41 23.97 13 29.07 5.04 28.95 4.34 23.85"/>
  <g class="skinEastAsian">
    <path d="M5,6.91a25.15,25.15,0,0,1,.72,3.56c.66,3.44,6,3.44,6.81.1.23-1.18.41-2.17.69-3.26C10.41,4.2,7.45,3.77,5,6.91Z"/>
    <path d="M3.64,23.19a1.64,1.64,0,0,0-2.14-.34c-.71.42-1.11,1.24-.49,2.7a3.07,3.07,0,0,0-.41,1.6,2.31,2.31,0,0,0,2.19,2.1A2.18,2.18,0,0,0,5.1,26.94c0-.75,0-1.84-1.06-2A9.37,9.37,0,0,0,3.64,23.19Z"/>
    <path d="M14.43,23a1.61,1.61,0,0,1,1.92.17c.5.35.79,1.07.35,2.52A3.23,3.23,0,0,1,17,27.3a2.29,2.29,0,0,1-2.18,2.1c-1.27,0-2.1-.79-2.09-2.34,0-1,.08-1.79,1.09-2.1C13.9,24.57,13.58,23.68,14.43,23Z"/>
  </g>
  <g class="skinOverlapLine">
    <path d="M16.7,25.7A2.79,2.79,0,0,0,13.77,25"/>
    <path d="M4,24.91c-.69-.16-2.4-.36-3,.64"/>
  </g>
  <path class="hairBlack" d="M7.74,6.19C8.34,7.48,10.54,9,12,8.85c.9-.08,2-.36,2.2-2.36.36-4-1.88-6.19-5.27-6C5.73.75,4,2.79,4.26,6.3c.12,1.11.57,2,1.35,2A2.93,2.93,0,0,0,7.74,6.19Z"/>
</svg>
