<svg class="presence" xmlns="http://www.w3.org/2000/svg" viewBox="0 0 910.48 3111.61">
  <g class="skinGallic">
    <path d="M367.74,264.93c-29.36,99.19,9.37,109.14,4.31,148.43-17.48,135.86,58.22,188.23,99.61,226.72C544.21,707.56,717,556.7,785.33,425.72Z"/>
    <path d="M456.05,674.69c-76.47-50.36-124.85-42.21-173.78-41.4-38.27.62-47.18,50.32-48.58,85.26a97.69,97.69,0,0,1,19-8.3c-4.93,30.31-31.28,34.7-18.88,52.24,19,26.38,33.39-8.75,71,8.19,22,9.9,33.87,6.9,56.6,1.88Z"/>
    <path d="M158.74,1072.07c.15-65.78-20.42-59.87-44.76-70.84-31.35-14.13-39.7-3.62-53.13-2.53-30.94,2.51-19,19-32.25,22.77-31,12.65-12,31-20.24,40.48-17.08,21.5,1.26,27.19-1.27,39.21-4.39,16.64,3.19,20.85,11.6,30.39,13.23,15,40.68,29.74,60.51,25.27Z"/>
    <path d="M506.74,540.4c28.66,13.12,23,86.34,12.62,117.63l205.28,6.62c-17.39-30.77-12.42-77.38,2.86-127,10.94-35.56,21.78-34.77,48.72-86.93"/>
  </g>
  <g class="head51__edited">
    <g class="hairLightBrown">
      <path d="M681.22,511.58c39.29-43.84,73.43-12.82,111.33-65.62,24.45-34,66.92-141,43.24-239.42C801.17,2.49,408.58-10.8,363,203.81c-8.89,41.83-52.11,85.38-20,202.23-9.08-55.41-7.77-93.24,10.13-131.6,24.21,62.19,61.4,10.73,61.83,108.83,18.6-21.59,16.07-35.8,31-56.48,23.35-32.39,68.32,10,45.55,87.45C573.43,503.52,647.52,472.41,681.22,511.58Z"/>
      <path d="M836.06,86.37C830,29.88,746.54-24.5,690.25,13.85c-99.16-8.6-93.5,132.85,36.39,201.27C831.48,270.34,923.08,160.42,836.06,86.37Z"/>
    </g>
    <g class="hairFoldLine">
      <path d="M732.73,72.52c-14.16,18.42-18.06,51-2.83,87.46"/>
      <path d="M725.11,86.26c16.47,1.14,54.72,43.27,65.69,80.45"/>
      <path d="M746.75,99.11c9.71-12.07,29-14.79,46.18-12.85"/>
      <path d="M774.1,131.93c19.54-2.4,52.47,5.39,64.15,17.08"/>
      <path d="M690.25,13.85c29.73,1,66.21,36.72,63,59.38"/>
      <path d="M836.06,86.37c2.19,19.44-5.25,41.75-21.56,50.34"/>
    </g>
  </g>
  <g class="skinOverlapLine">
    <path d="M253.42,671.21c-6.61,15.8,1.44,24.13-.72,39"/>
    <path d="M444.44,469.91c8.66,6.5,27.85,5.71,36.81-19.76,5.15-14.62,2.71-19.49,10.2-35.91"/>
  </g>
  <g class="skinFoldLine">
    <path d="M125.94,1040.51q2.52,6,9.12,11.92"/>
    <path d="M451,370.83c-11.1-58.2,42.15-36.27,10.2,59.56"/>
    <path d="M461.14,360.28c-11.64,6.22-1.1,29.14-1.6,42.5-.18,4.77-4.69,15.29,3.94,20.49"/>
  </g>
  <g class="sockWhite">
    <path d="M748,2894.87c11.72,47.5,43.32,75,67.67,109.23,76.17,68.23-61,22.92-205.71-31.38,10.27-23.94,15.76-50.5,18.46-78.58Z"/>
    <path d="M522.35,2886.38c-4.25,71.71,16.7,82.19,40.16,132.25l-174.9-47.16c9-16.5,13.53-53,13.59-86.4Z"/>
  </g>
  <g class="soleTan">
    <path d="M372.13,3065.19a69.81,69.81,0,0,0,1,34.82c17.9,7,124.9,4.76,144.38,0,.62-6.85,1.59-13.89,1-21.1C497.31,3046.25,429,3050.35,372.13,3065.19Z"/>
    <path d="M604.36,3066.61c-2.46,13.69-1.38,26.71,1,39.12,17.63,5.85,126.1,7.14,146,0,.77-5.81,1.66-12.22,1-19C717.17,3054.47,666.37,3050.42,604.36,3066.61Z"/>
  </g>
  <g class="soleTanDark">
    <path d="M545.09,3095.4c-20.49-31-37.63-35.31-40.77-1.15C506.31,3097,535.24,3097.24,545.09,3095.4Z"/>
    <path d="M824.52,3105.72c-50.7-47.57-82-58-84.76-4C765.55,3104.41,791.32,3105.73,824.52,3105.72Z"/>
  </g>
  <g class="shoe">
    <path d="M610,2972.72c122.94-41.71,166.08,64.31,225.8,54.82-9.24-7.77-16.31-15.58-20.09-23.44,14.14,12.81,32.18,15.61,39.91,31.35,12.37,25.22,5.34,64.87-18.14,69.12-42.13,7.61-83-24.53-137.31-31.26-16.21-2-83.18,3.44-95.79-6.7C591.44,3056.22,582.41,2982.08,610,2972.72Z"/>
    <path d="M372.13,3065.19c5.34,10.36,76.1,6.35,103.4,4.58,47.07-3,54.74,25.69,69.56,25.63,20-.08,41.74-54.47,17.42-76.77-6.14-5.63-9.23-15.27-15-22.32-44.83-54.42-127-48.06-165.6-21.19C368.6,2984.35,356.83,3035.52,372.13,3065.19Z"/>
  </g>
  <path class="pants" d="M873.07,1642.54c6.49,75-2.38,158.76-2.61,247.88-.17,66-9.16,146-17.65,238.26-6.37,69.22-10,136.67-18.45,202.16-12.71,98.1-9.43,191.32-16.65,256.3-7.73,69.57,0,114.32-10.83,157.64-10.1,40.41,3.61,55.35-9.62,139.58-16.85,30.08-174.48,31.29-190.13,7.22-7.19-95.76-3.13-275.5-4.81-458.46-1.42-155.1-10.83-279.17-18.05-434.4-3.61,184.11-12.34,297.67-14.44,399.5-1.48,72-9,142-6,227.43,3.42,96.39,1.79,184.73-3.61,263.52-14.3,14.31-138.38,33.7-169.66-1.2-6.52-7.27-21.66-4.81-24.07-16.85-3.61-145.6-13-286.6-13.24-377.84-.23-108.3-15-221.29-21.65-306.84-9.63-122.74-23.38-262.24-15.65-373,3.61-51.74-7.75-114.75-2.4-170.87C480.62,1383.36,668.27,1398.46,873.07,1642.54Z"/>
  <g class="jacket">
    <path d="M396.06,729.79c11-24.37,39.78-53.83,58.67-59.32,13.85-4,32.12,17.28,50.39,26.42Z"/>
    <path d="M751,687.28c20.21,17.24,43.21,23.07,57.56,41.05,13.56,6.75,38.09,16.41,36.4,37.89,35.92,60.51,32,287.69-8.79,399.09-1.51,42.15,23.56,57-8.31,121,8.37,30.86,26.38,23,9,79,12,29.83,12.49,60.48,3,91.83C871.45,1502,898.07,1601.5,909.11,1622c10.11,24.18-192.6,150.71-285.22,143.9-23.2-98.76-46.48-194.08-70.06-263.58-20.33,60.29-23.77,164.55-30.1,265.45-62.2,13-205.31-3.12-228.83-39.64,19.49-126.75,31-244,54.81-358.48-14.57-20.73,5-41.39,3.91-65-13.57-22.4,4.5-28,8.91-77.56,1.47-16.53-8.1-35.72-3.42-69-19.32,18.66,12.73,40.2-48.57,65.1-65.69,46.66-150.34-3.73-224-34.47-41.19-38.8-13-136.59,48.57-136.22,20.39.45,39.24,30.9,67.37,23.42,6.81-10.11,14.88-12.45,25.07-13.32,3.52-30.85,26.42-67.88,51.7-124.56-9.15-35,5.49-38.55,11-60.23,10.47-41.15,17.14-75.59,43.84-92.53-7.56-15.31,9.58-33.45,27.42-37.6,1.1-20.06,71.85-32.13,122.58-56.6Z"/>
  </g>
  <path class="collar" d="M484,691c17.89-18.64,22.06-58.2,36.19-56.94,65.94,6.35,136.23,8.08,197.17,1.53,11.93,0,17.9,32.3,33.56,51.68C667.45,708.9,553.38,693.25,484,691Z"/>
  <path class="clothesDisplayLine" d="M554.19,1606.4c-8.84,74.83-5.6,147,13,215.87"/>
  <g class="clothesOverlapLine">
    <path d="M476,861c-8.27,56.64-19.73,64.28-26.09,82.09-25.47,71.31-54.73,160.38-90.78,214.91-9.73,11-20.33,15.47-27.59,38.92"/>
    <path d="M567.17,1822.27c10.29,53.17,15.84,112.18,17.1,176.45"/>
  </g>
  <g class="clothesFoldLine">
    <path d="M202.43,1075.85c-23.15,25.21-35.7,55.87-24.45,98.76"/>
    <path d="M171.28,1093.1c-17.15,14-27.59,31.13-24.57,54.71"/>
    <path d="M227.5,1062.53c-12.67,40.62.88,75.59,38.69,114.31"/>
    <path d="M212,1103.15c-28.48,97.14,54.15,132.32,16.19,69.79"/>
    <path d="M279.2,938c9.24,35.15,15.26,69.9,5.42,102.64"/>
    <path d="M334,785.21c45.49-27.67,88,18.37,95.74,12,5.61-4.61-31.82-45.78-70.9-31.82"/>
    <path d="M361.46,747.61c11.56-4.43,23.78-4.48,36.5-1.23"/>
    <path d="M416.38,844.64C434,869.74,444.12,897.24,441,929"/>
    <path d="M448.77,966.92c22.33-15.64,28-44.89,35.17-44.11,6.21.67-4.12,35.43-26.24,58.62"/>
    <path d="M808.52,728.33q12.83,16.21,13.93,26"/>
    <path d="M774.27,1002.79c-30.4,70.79-69.66,133.74-129.09,178.82"/>
    <path d="M349.71,1369.62c8.65,7.34,16.26,9.61,23.31,9.26"/>
    <path d="M353.62,1304.6c8.1,9.64,16.63,14.23,25.55,14.48"/>
    <path d="M640.7,1304c-53.12,43.63-109.14,77.73-168.76,100"/>
    <path d="M786.56,1202.29c-47.33,81.28-115.37,153.28-207.33,214.59"/>
    <path d="M836.13,1165.31Q786.6,1280.92,712.24,1366"/>
    <path d="M827.82,1286.27c-46.41,91.35-141.65,191-121.73,201.58,17.54,9.28,80.19-70.74,111.76-128.53"/>
    <path d="M836.85,1365.3c-10.53,29.72-23.31,57.81-46.38,78.4"/>
    <path d="M836.85,1528.09c-37-1-69.13,11-95,39.67"/>
    <path d="M839.86,1457.13c-9.15,23.46-18.53,44.29,2,46.37"/>
    <path d="M797.5,1806.57a447.92,447.92,0,0,1-126.21,25.78"/>
    <path d="M602.08,1822.17c65.14-6.78,123.75-39.11,131.64-33.93,9,5.92-.58,13-22.39,21"/>
    <path d="M512.51,1827.6c-46.79,1.71-90.5-5.44-128.93-27.82"/>
    <path d="M497.58,1798.42c17.38.74,46.82,19,69.59,23.85"/>
    <path d="M413.44,1905c11.54,63.78,90.93,67.85,101.78,137.74"/>
    <path d="M620.4,2235.41c34.9,121.82,127.57,67.86,191.35-23.75"/>
    <path d="M528.12,2242.88c-59.72,82.78-134.36,47.5-167.61-55"/>
    <path d="M790.72,2289.7c-36.92,45.31-64.42,98.67-80.07,162.17"/>
    <path d="M627.86,2310.05c28.3,28.86,56.27,57.64,31.9,73.29"/>
    <path d="M389.69,2289c27.18,34.4,44.73,72.72,40,120.1"/>
    <path d="M473.83,2654.08c-.95,70.78,1.53,135.63,8.15,193.39"/>
    <path d="M392.41,2838c2.71,37.32-2.51,47.68,5.41,56.17"/>
    <path d="M791.4,2751.79c-27.82,63.79-85.1,101.53-71.25,129.61"/>
  </g>
</svg>
