<svg id="presence" xmlns="http://www.w3.org/2000/svg" viewBox="0 0 713.43 2502.76">
  <defs>
    <style>
      .cls-1 {
        fill: none;
        stroke: #000;
        stroke-miterlimit: 10;
        stroke-width: 2px;
      }
    </style>
  </defs>
  <title>flirting</title>
  <g id="amySole">
    <path class="cls-1" d="M91.6,2415c-4.54,7.23-1.11,33,5,39.49,12.6,13.5,38.49,13.67,65.41,11.06Z"/>
    <path class="cls-1" d="M495.17,2435c3.65,10.66,4.88,19.11-1.3,26.46-31.41,37.36-140.17,28.73-215.8,36.37-60.25,6.08-133.55,7.52-152.86-14.15-5.47-6.13-7.08-28.71-3.93-36.26Z"/>
  </g>
  <g id="amyBoot">
    <path class="cls-1" d="M358.21,2080.13c-10.61-1.67-106,14.43-113.86,22.33-8.37,8.37,25.41,150.85,20,166.46-3.62,10.42-123.41,66.65-163.58,108.49-9.1,9.48-10.56,27.06-9.17,37.58,3,22.42,21.76,31.19,55.63,30.16C358.22,2438.79,400.25,2298.28,358.21,2080.13Z"/>
    <path class="cls-1" d="M504.59,2119.4c-3.62-6.14-189.71,5.31-191.19,8.53-7.33,16.05,10.45,137.7,2.12,180.52-2.44,12.52-137.29,60.61-180.95,96.93-13.57,11.29-16.54,24.94-13.29,42.06,5.72,30.18,56.38,39.17,147.21,29.24,93.26-10.19,170.34,2,226.68-41.66,15.58-14.87,9.77-62.16,5.1-104.25C494.66,2280.13,513.21,2134,504.59,2119.4Z"/>
  </g>
  <g id="clothesDisplayLine">
    <path class="cls-1" d="M432.22,2119c-4.89,31.74,8,99.56,6,153.41-2.95,78,17.66,110.43,15.29,184.65"/>
    <path class="cls-1" d="M315.52,2308.45c29.46,27.26,95.23,37.08,132,69"/>
    <path class="cls-1" d="M451.94,2410c20.86-16.95,38.26-35.72,50.74-57.06"/>
    <path class="cls-1" d="M264.35,2268.92a160.25,160.25,0,0,0,52.77,27.89"/>
  </g>
  <g id="amyHose">
    <path class="cls-1" d="M178.74,1799.86c21.26,85.64,65,191.61,97.68,292.62,25.19-5.54,58.3-10.87,73.89-12.17-48.55-630.08-62.43-624.3-232.39-587.66,8.07,61.67,28.64,137,30.93,184.53C150.5,1711.42,169.59,1763,178.74,1799.86Z"/>
    <path class="cls-1" d="M345.17,2124.24c37.24-3,98.29-6.34,133.05-6.6,3.17-96.88,51.29-269.33,15.95-390.92,6.91-7.84,5.51-16-3.07-24.55,15.79-16.6-5.23-23.21-7.67-38.36,15.12-11.17-6.26-29.73-6.14-46.8.19-26.47,12.76-73,28.93-120.32l-248.8,13.12c29.7,178.16,38.71,184.77,43.35,235.46C309.57,1841.31,334.51,1997.84,345.17,2124.24Z"/>
  </g>
  <path id="amySkirt" class="cls-1" d="M545.62,905.69c53.52,107.17,46.9,358.35,62.37,583.8.21,14.75-67.41,18.73-95.25,16.08C511.17,1521,424,1528.8,410.23,1521c-6.86,14.7-53.9,3.09-66.65,2.94-12-.14-100,10.78-101.93-6.86-38.22-1-96.69,8.72-123.48-7.84-13.73,5.88-74.49,2.82-74.49-8,16.66-228.35,24.49-490.95,51.94-595.76Z"/>
  <g id="clothesFoldLine">
    <path class="cls-1" d="M483.43,1663.81c-9.46,6.22-20,9-31.27,9.4"/>
    <path class="cls-1" d="M491.1,1702.17a136,136,0,0,1-45.79,14.22"/>
    <path class="cls-1" d="M296.18,1712c-15.7,7-38.66,14.71-58.53,18.13"/>
    <path class="cls-1" d="M299.09,1730.09c-8.18,3.37-16.89,6.17-23.75,7.17"/>
    <path class="cls-1" d="M526.62,922.28c31.22,88.87-12,134.5-22.42,30.42"/>
    <path class="cls-1" d="M475.38,931.09c6.76,54.64,10,112.76,11.21,172.93"/>
    <path class="cls-1" d="M413.73,1077.6c-4.77,100.55-5.6,244.19,14.41,286.62"/>
    <path class="cls-1" d="M123.91,931.09c-5.86,39.77-9.37,77.82-8.81,112.88"/>
    <path class="cls-1" d="M178.35,1005.54c2.4-124.09-52.84-38.43-32.82,88.07"/>
    <path class="cls-1" d="M201.57,1128.84c-1.7,102.81-4.5,197.76-16,231.37"/>
    <path class="cls-1" d="M118.17,1509.2c3.09-33.64.14-82.53,2.54-130.57"/>
    <path class="cls-1" d="M243.2,1445.08c-4,29.62,0,52-1.55,72"/>
    <path class="cls-1" d="M345.68,1407.45c1.6,52-4.67,91.34-2.1,116.45"/>
    <path class="cls-1" d="M410.23,1521c-7.43-6.79-1.3-39-6.91-53.46"/>
    <path class="cls-1" d="M512.74,1505.57c10.81-5.32-.53-76.5,1.87-130.94"/>
  </g>
  <path id="amyShirt" class="cls-1" d="M596.57,141.4c33.56,38.7,79.39,73.92,79.67,103.68,21,33.53,31.44,97.11,33.19,158.24L565.86,451.87C612.9,572.59,621.25,676,539.31,739c7,17.46,27.45,37.47,5.59,64.27.7,28,30.32,51.71,5.59,72.66,10.82,13.28.7,25.85,5.59,36.33-102.7,34.93-375.17,42.62-467.39,4.89,7-21-.53-39.65,9.79-56.59-12.77-15.2-2.1-38.42,3.49-61.48C98.18,720,106.19,636.81,127.12,549c22.71-145.83-49.5-178.93,53.1-243.22C262.65,142.28,292,174.51,339.79,139.51"/>
  <g id="amyShirtTrim">
    <path class="cls-1" d="M596.57,141.4C588,133.9,581,125,573.82,122.49l-206.74,2.84c-6,.19-20.92,10.23-27.29,14.18-2.85,18,1,55.66,8.28,77.91C428.67,182.33,531.51,140.87,596.57,141.4Z"/>
    <path class="cls-1" d="M709.43,403.32c-56.17-9-128.53,19.29-174.24,18.28a143.11,143.11,0,0,0,1.56,39.61c43.15,2.08,108.22-24.79,174.77-18.79C712.22,431.89,714,418.65,709.43,403.32Z"/>
  </g>
  <g id="clothesOverlapLine">
    <path class="cls-1" d="M261.44,242.4c-25.67,34-53,46.37-81.22,63.36"/>
    <path class="cls-1" d="M532.19,362.46c-1,19.84,2.49,43.05,3,59.14"/>
    <path class="cls-1" d="M428.32,530.84c-38.31,29.29-122.48,28.52-151.17-7.62"/>
  </g>
  <g id="clothesFoldLine-2" data-name="clothesFoldLine">
    <path class="cls-1" d="M602.16,222c23.66,7.88,46.76,20.84,59.16,36.05"/>
    <path class="cls-1" d="M626.39,216.31c18.69,6.21,36,14.63,49.85,28.77"/>
    <path class="cls-1" d="M458.5,440.54a225.91,225.91,0,0,1,60.28,5.07"/>
    <path class="cls-1" d="M486.67,425.33c15.77,1.69,36.05,3.94,47.83,9"/>
    <path class="cls-1" d="M575.68,347c8.38,18.38,19.92,32.83,35.5,42.25"/>
    <path class="cls-1" d="M457.37,340.26c31.14,10.06,57.8,21.52,74.65,36.05"/>
    <path class="cls-1" d="M483.85,336.88c18.45,5.6,34.89,13.72,48.34,25.58-2-22.95-7.54-40.57-17.35-51.5"/>
    <path class="cls-1" d="M537.06,320.54c2.43,12.94,3.08,24.19,1,34.37"/>
    <path class="cls-1" d="M179.06,420.53c22.46,11,47.45,18.61,74.37,23.66"/>
    <path class="cls-1" d="M251.17,463.34c-21.23-4-40.14-8.65-54.64-14.64"/>
    <path class="cls-1" d="M539.31,738c-24.47,28.73-81.25,62.27-35.74,51.83"/>
    <path class="cls-1" d="M544.9,803.28C491.18,840,286,885.11,469.77,860.82"/>
    <path class="cls-1" d="M550.49,875.94c-67.44,26.61-168,13.62-235.09,30.52"/>
    <path class="cls-1" d="M444.41,785.89C423,836,217.37,921.67,162.16,898"/>
    <path class="cls-1" d="M98.48,860.57c14.66,20,48.79,25.08,24.81,29.55"/>
    <path class="cls-1" d="M102,799.09c1.6,14.41,6.39,20.51.47,30.18"/>
    <path class="cls-1" d="M290.61,832.09c-65.36,36.92-128,65-167.32,16.34"/>
  </g>
  <g id="skinWhite">
    <path class="cls-1" d="M573.82.16C566,49.8,549.38,99,573.82,122.49c-67.82,9.22-141.64,31.88-204.75,60.34-5.67-15.57-6.23-42.82-2-57.5C382.81,76.72,387.29,28,377.51,11.53"/>
    <path class="cls-1" d="M544,461.29c2.9,68.8,6.29,120.35,15.93,147.31C530.07,714.33,570,678.28,539.31,738c72.77-.76,125-9.52,140.47-32.69,28.66-42.7,25.93-167.86,20.44-263.6C641.28,439.52,584.44,460.49,544,461.29Z"/>
    <path class="cls-1" d="M170.84,192.77c-44.68,157.87,3,252.2-37.73,315.74l-6,40.47c-44,26.61-83.54,29.3-105.21-3.73C-40.64,449.93,53.68,315.89,89.43,167"/>
  </g>
  <g id="skinFoldLine">
    <path class="cls-1" d="M133.11,508.51c-6.7,9.52-13.71,16.88-21.15,21.24"/>
  </g>
  <path id="amyChoker" class="cls-1" d="M379.53,74.39Q378.45,81,377,87.93c38.38,14.52,145.55,19.57,184.54,7.12a95.56,95.56,0,0,1-.47-14.51C521.49,92.76,416.23,87.09,379.53,74.39Z"/>
</svg>
