<svg viewBox="0 0 720.55 3086.09">
    <g class="soleLightTan">
        <path d="M92.51,2997.45c-4.59,7.31-1.12,33.31,5,39.89,12.72,13.63,38.87,13.8,66.06,11.17Z"/>
        <path d="M500.11,3017.68c3.69,10.77,4.93,19.3-1.31,26.72-31.73,37.74-141.57,29-218,36.74-60.86,6.15-134.88,7.6-154.39-14.29-5.53-6.19-7.15-29-4-36.62Z"/>
    </g>
    <g class="amyBoot">
        <path d="M361.78,2659.25c-10.71-1.7-107,14.57-115,22.54-8.45,8.46,25.67,152.36,20.2,168.13-3.65,10.53-124.64,67.32-165.21,109.58-9.19,9.57-10.67,27.33-9.26,37.95,3,22.65,22,31.5,56.18,30.47C361.79,3021.49,404.24,2879.58,361.78,2659.25Z"/>
        <path d="M509.62,2698.9c-3.65-6.19-191.61,5.37-193.09,8.63-7.41,16.21,10.54,139.07,2.13,182.32-2.46,12.64-138.66,61.21-182.76,97.9-13.7,11.4-16.7,25.18-13.42,42.48,5.78,30.48,56.94,39.56,148.68,29.53,94.2-10.3,172,2,229-42.08,15.74-15,9.86-62.78,5.16-105.29C499.6,2861.25,518.33,2713.67,509.62,2698.9Z"/>
    </g>
    <g class="amyHose">
        <path d="M180.52,2376.17c21.47,86.5,65.64,193.52,98.65,295.55,25.44-5.59,58.88-11,74.64-12.29-49.05-636.39-63.06-630.55-234.72-593.54,8.15,62.29,28.92,138.35,31.24,186.37C152,2286.84,171.27,2338.9,180.52,2376.17Z"/>
        <path d="M348.61,2703.79c37.62-3,99.27-6.4,134.38-6.67,3.21-97.84,51.81-272,16.11-394.82,7-7.92,5.57-16.2-3.1-24.79,15.95-16.77-5.28-23.44-7.75-38.75,15.27-11.28-6.32-30-6.2-47.27.19-26.73,12.89-73.78,29.22-121.52L260,2083.22c30,179.94,39.09,186.61,43.78,237.82C312.65,2418,337.85,2576.13,348.61,2703.79Z"/>
    </g>
    <path class="amySkirt" d="M551.07,1476.06c54,108.24,47.36,358.94,63,586.64.21,14.9-68.09,18.92-96.2,16.23-1.58,15.56-89.68,23.47-103.54,15.56-6.93,14.84-54.44,3.11-67.31,3-12.08-.14-101,10.88-102.95-6.93-38.6-1-97.66,8.8-124.72-7.92-13.86,5.94-75.23,2.85-75.23-8,16.82-230.64,24.73-492.86,52.46-598.72Z"/>
    <path class="amyShirt" d="M602.53,697.06c33.9,39.09,80.18,74.65,80.47,104.71,21.17,33.87,31.75,98.08,33.51,159.82l-145,49c47.51,121.92,55.94,226.37-26.81,290,7,17.64,27.72,44.92,5.64,72,.71,28.22,30.62,52.22,5.65,73.38,10.92,13.42.7,26.11,5.64,36.7-103.73,35.28-378.92,43-472.06,4.93,7.06-21.16-.53-40,9.88-57.15-12.9-15.35-2.12-38.81,3.53-62.1-3.83-79.83,4.26-171,25.4-259.68C151.32,961.43,78.39,928,182,863.06,265.27,698,294.91,730.5,343.18,695.14"/>
    <g class="amyShirtTrim">
        <path d="M602.53,697.06c-8.62-7.58-15.76-16.52-23-19.1l-208.8,2.87c-6.08.19-21.13,10.33-27.56,14.31-2.88,18.2,1,56.23,8.36,78.7C433,738.4,536.81,696.52,602.53,697.06Z"/>
        <path d="M716.51,961.59c-56.72-9-129.81,19.49-176,18.47a144,144,0,0,0,1.58,40c43.58,2.1,109.3-25.05,176.52-19C719.33,990.45,721.07,977.07,716.51,961.59Z"/>
    </g>
    <g class="clothesDisplayLine">
        <path d="M436.53,2698.49c-4.94,32.06,8.13,100.56,6.08,155-3,78.81,17.84,111.53,15.44,186.5"/>
        <path d="M318.66,2889.85c29.76,27.53,96.19,37.45,133.33,69.67"/>
        <path d="M456.45,2992.4c21.07-17.12,38.64-36.08,51.25-57.63"/>
        <path d="M267,2849.92a162,162,0,0,0,53.3,28.18"/>
    </g>
    <g class="clothesOverlapLine">
        <path d="M264,799.06c-25.92,34.29-53.52,46.84-82,64"/>
        <path d="M537.51,920.32c-1,20,2.5,43.49,3,59.74"/>
        <path d="M432.59,1090.39c-38.69,29.59-123.7,28.81-152.68-7.69"/>
    </g>
    <g class="clothesFoldLine">
        <path d="M608.17,778.41c23.9,8,47.23,21.05,59.75,36.42"/>
        <path d="M632.64,772.72c18.89,6.26,36.39,14.77,50.36,29"/>
        <path d="M463.07,999.19a228,228,0,0,1,60.89,5.12"/>
        <path d="M491.52,983.83c15.94,1.7,36.42,4,48.32,9.1"/>
        <path d="M581.43,904.73c8.46,18.57,20.12,33.16,35.85,42.68"/>
        <path d="M461.94,897.9c31.44,10.16,58.37,21.74,75.39,36.42"/>
        <path d="M488.68,894.49c18.63,5.65,35.24,13.86,48.83,25.83-2.07-23.18-7.62-41-17.53-52"/>
        <path d="M542.42,878c2.45,13.07,3.11,24.43,1,34.71"/>
        <path d="M180.84,979c22.68,11.12,47.93,18.81,75.11,23.9"/>
        <path d="M253.68,1022.22c-21.45-4-40.55-8.74-55.2-14.79"/>
        <path d="M544.7,1299.63c-24.72,29-82.07,70-36.1,59.42"/>
        <path d="M550.34,1372.63c-54.26,37.06-261.51,82.64-75.89,58.12"/>
        <path d="M556,1446c-68.11,26.88-169.73,13.76-237.45,30.83"/>
        <path d="M448.85,1355.07c-21.62,50.64-229.32,137.13-285.08,113.23"/>
        <path d="M99.45,1430.49c14.82,20.17,49.29,25.33,25.06,29.84"/>
        <path d="M103,1368.39c1.61,14.56,6.45,20.72.48,30.49"/>
        <path d="M293.51,1401.73c-66,37.28-129.3,65.62-169,16.5"/>
        <path d="M488.25,2238.76c-9.55,6.29-20.17,9.14-31.58,9.49"/>
        <path d="M496,2277.51a137.5,137.5,0,0,1-46.25,14.35"/>
        <path d="M299.13,2287.4c-15.85,7-39,14.85-59.12,18.31"/>
        <path d="M302.07,2305.71c-8.26,3.4-17.06,6.23-24,7.24"/>
        <path d="M531.87,1492.82c31.54,89.75-12.13,135.84-22.64,30.72"/>
        <path d="M480.12,1501.71c6.84,55.19,10.12,113.9,11.32,174.66"/>
        <path d="M417.86,1649.69c-4.82,101.56-5.66,243.63,14.55,286.48"/>
        <path d="M125.14,1501.71c-5.92,40.17-9.46,78.6-8.9,114"/>
        <path d="M180.13,1576.91c2.42-125.33-53.37-38.81-33.16,88.95"/>
        <path d="M203.58,1701.44c-1.72,103.84-4.55,196.74-16.18,230.69"/>
        <path d="M119.34,2082.61c3.13-34,.14-83.37,2.56-131.88"/>
        <path d="M245.62,2017.84c-4,29.92,0,52.56-1.56,72.69"/>
        <path d="M349.13,1979.84c1.61,52.56-4.72,92.25-2.12,117.62"/>
        <path d="M414.32,2094.49c-7.51-6.87-1.31-39.45-7-54"/>
        <path d="M517.86,2078.93c10.92-5.37-.54-77.26,1.88-132.25"/>
    </g>
    <g class="eye">
        <path class="sclera" d="M201.74,451.55l204.17-86.79-225.36,15C176.6,400.08,186.75,440.73,201.74,451.55Z"/>
        <g class="irisHazel">
            <ellipse cx="313.99" cy="388.77" rx="15.73" ry="22.95" transform="translate(-87.91 91.78) rotate(-14.61)"/>
            <ellipse cx="197.07" cy="419.01" rx="12.59" ry="22.95" transform="translate(-99.32 63.26) rotate(-14.61)"/>
        </g>
        <g class="pupil">
            <ellipse cx="310.56" cy="389.67" rx="6.12" ry="8.93" transform="translate(-88.25 90.94) rotate(-14.61)"/>
            <ellipse cx="193.34" cy="419.99" rx="4.9" ry="8.93" transform="matrix(0.97, -0.25, 0.25, 0.97, -99.69, 62.35)"/>
        </g>
    </g>
    <g class="skinGallic">
        <path d="M607.35,419.86C529.74,524.62,554.86,654.2,579.54,678c-68.49,9.31-143,32.2-206.79,60.94-5.73-15.73-6.29-43.24-2-58.07,15.89-49.1,4.38-172.79,4.38-172.79"/>
        <path d="M549.45,1020.15c2.92,69.49,6.36,121.55,16.09,148.78-30.18,106.79,10.11,70.37-20.84,130.7,73.49-.76,126.29-9.62,141.87-33,28.95-43.12,26.19-169.53,20.64-266.23C647.68,998.16,590.27,1019.34,549.45,1020.15Z"/>
        <path d="M503,538.45c-29,56.22-71.95,74.94-111.69,101.63-31.74,21.31-98.64,46.38-120.3-6.37-16-38.9-108.88-90.94-91-185,5.91-17.21-5.84-16.39,4.83-26.63,4.4,3.67,16.19-3.3,33.67-4.9,2-.18,6.78,1.81,6-.83C213.71,403.25,198,399.06,181.84,410c.64,3,1.25,5.88,2,8.62-12.52-2-13-6.94-16.44-14.52-4.17-9.16-13.12-11.34-11.55-37.2,1.13-20.49-6.59-55.67-2.95-84.22-33-237.21,680.58,17.21,410.24,188.71-3.26,7.08-28,15.48-37.5,1.71m-231-73.29c6.2-4,12.22-9.8,29.63-14.58,14.07-3.85,28-2.72,35.88-4.31-15-2.95-41.54-16-69.53,18.24C286.94,403.7,291.68,401.76,294.69,399.79Z"/>
        <path d="M172.54,749c-45.13,159.44,3,254.71-38.11,318.89l-6.05,40.87C84,1135.59,44,1138.31,22.12,1105c-63.18-96.27,32.09-231.65,68.19-382.08,15.2-45.82,11.39-130.83,38-149.23,26.65-26,11.77-33.83,53.9-48.32,29.22-10.05,37.38,3.26,55.23,19.13,5.71,5.08.63,14.59-9.52,17.13,1.52,3.54,1.14,7.53.9,9.52,18.46,2.67,27.26,13.57,27,30.19,31.71,9,27.25,24.73,20.28,43.67-6.05,16.45-21.43,37.28-39.32,27.65C207,730.35,185.45,730.35,172.54,749Z"/>
    </g>
    <g class="skinOverlapLine">
        <path d="M160.07,568.85c24.37-18.66,54.43-40.43,67.89-7.27"/>
        <path d="M188.06,586a199.25,199.25,0,0,1,40.8-14.86"/>
        <path d="M218.13,610.84c11.18-7.17,24-9,37.75-9.55"/>
        <path d="M236.84,672.61c3.06-9.42,5.13-18.75,1.51-26.52,7.77,1.55,20.73,1.55,30.58-5.19"/>
    </g>
    <g class="skinFoldLine">
        <path d="M134.43,1067.84c-6.77,9.61-13.85,17-21.36,21.45"/>
        <path d="M534.58,385.58c4.3-66.09,87.9-32.08,47.31,41"/>
        <path d="M540.6,396.65c23.77,11.46-11.41,40.94,7.24,43,9.58,1,5.25-12.8,21.28-29.48,17.69-18.42-11.16-38.93-16.63-26.88"/>
    </g>
    <path class="skinEdgeLine" d="M134.78,584.59c2.49,10.18,17.93,1.18,21.66,15.36,5.77,21.9,19.29,4.34,27.07,22.48,3.34,7.79,7.66,10.7,17,13.29"/>
    <path class="amyChoker" d="M399.08,635q-3.88,2.5-7.75,5.09c-2.81,1.89-5.91,3.81-9.21,5.7,44.42,12.46,145.62,15.2,182.45,3.44-1.27-4-3.06-10.55-3.77-14C527.27,645.55,446,643.56,399.08,635Z"/>
    <g class="head51__edited">
        <path class="lipFemaleMedium__noStroke" d="M292.52,550.09c-18.38,11-35.95,3.87-53.25,4,3.14,3.25,4.07,7.6,6.47,11.84,15.77,27.83,53.07,26.71,81.81-8.69,8.91-11,10.11-19.44,23.08-28C335.28,538.84,313.7,537.35,292.52,550.09Z"/>
        <path class="lipFemaleMedium" d="M358.27,522.92c-15.21,16.92-40.76,12.13-65.75,27.17-18.38,11-35.95,3.87-53.25,4,9.4-3.93,7.26-9.82,16-10.66,21.52-1.07,35.68-11.82,50.18-13.8C316.55,528.16,331.25,531.41,358.27,522.92Z"/>
        <path class="lipEdgeLine" d="M245.74,566c15.77,27.83,53.07,26.71,81.81-8.69"/>
        <g class="cheekLine">
            <path d="M231.4,518.37a80.28,80.28,0,0,0,1.31,21.73"/>
            <path d="M296.89,472.75c7,.75,11.38,11.85,30.84,17.66,16.68,5,37.6,8.06,50.53,14.67"/>
            <path d="M325.78,611.1C310.31,618,295,621.19,280.09,618"/>
        </g>
        <g class="noseLine">
            <path d="M231.93,406.27c12.51,31-8.15,62.29-9.86,88.83-1.31,20.39,13.85,39.3,52.1,16.18"/>
            <path d="M296.89,472.75c9.21,4.08,16.3,22.79,6.09,31.16"/>
            <path d="M290.81,499.89c-8.23-4.05-20.93,4.49-30.59,11.84"/>
        </g>
        <g class="eyeFoldLine">
            <path d="M187.82,443.7c5.83,7.65,23.73,1.22,32.78-7.32"/>
            <path d="M306.05,411.59c11.09,6.88,34.81,3.68,49.87-10.36"/>
        </g>
        <g class="eyeCornerLine">
            <path d="M381.81,376c-6.75,9.11-16.28,5.5-21.61,4.89"/>
            <path d="M181.84,410a8.74,8.74,0,0,0-2.9,5.34"/>
        </g>
        <g class="eyeCreaseLine">
            <path d="M212.17,396.87c-22.54-10-38.68,2.83-41.52,10.44"/>
            <path d="M365.51,372.3C342,367.63,314.82,359,294.63,388.86"/>
        </g>
        <g class="eyebrowLightBrown">
            <path d="M266.12,355.94c13.27,22.31,43.43-23.61,114.81-3C340,322.31,269.17,340.13,266.12,355.94Z"/>
            <path d="M155.81,368.36a70.74,70.74,0,0,0,.31,11.75c34.62-12.13,51.23,8.84,58.76-11.35C211.68,361.49,182.53,357.19,155.81,368.36Z"/>
        </g>
        <circle class="amyEarring" cx="547.22" cy="459.34" r="8.6"/>
        <g class="hairDyedRed">
            <path d="M415.83,26.79C405,14.08,356,14.11,334.24,28.24c-32.5-11-78.54,5.33-93.16,40.35-45.42,17.8-56.25,53-40.42,84.08C360.75,123.65,431.07,110.83,415.83,26.79Z"/>
            <path d="M522.93,363.62c-9.63,3.9.18,32.34-29.68,53.14-7-120.06-40.14-95.57-86.53-139.81,32.72,153.07-28.41,214.35,14,329.79-50.51-82.28,4.19-188.92-41.87-314.1-36.07-96.46-107.12-112.38-170.6-70.31-11.44-3.74-30.41-.25-35.51,3.61-11.13,14.52-17.11,32.32-19.84,56.72-19.75-31.86-12.17-65.07,9.24-83.78,17.33-32.54,75.84-90.26,151.6-104,125.05-54.15,266.28,3.15,316.88,98.34,51.88,97.57,59.83,253.48-40,286.81,35.18,48.41-20.5,75.28,28.75,118.59-67.68-47.84,7.49-82.3-56.22-127.29,17.9-27,35.34-27.4,42.57-81.75C612.75,336.94,543.08,301.77,522.93,363.62Z"/>
            <path d="M443,103.48c-46.8-4.66-50.4-45.54-27.13-76.69,26.82-35.88,101.26-41.37,154.89,29.6C658.85,86.64,668.83,158.14,639,187.22c-30.11,29.39-101.46,8.41-120.47-31.26C478.38,157,455.65,129.56,443,103.48Z"/>
        </g>
        <g class="hairOverlapLine">
            <path d="M443,103.48c43.88,4,67.71-85.71,134.39-42.9,71.46,47.77-6.1,91.58-58.79,95.38"/>
            <path d="M406.72,277c-2.79-16.52-6.34-32.16-18.6-54.46"/>
            <path d="M208.28,222.33c9.66-53.26,45.34-92.38,105.49-127.41"/>
            <path d="M181.6,190.7c-6.57.66-14.39,1.75-19.43,8.18"/>
            <path d="M334.24,28.24c21,8.64,30.65,29.83,26.6,51.53"/>
            <path d="M241.08,68.59c4.27,13.89,18.57,29.39,30.55,38.84"/>
        </g>
        <g class="hairFoldLine">
            <path d="M606,97.52c14.82,4.22,14.84,12.31,26.85,17.55"/>
            <path d="M532.8,50.12c-4.64-10.41-30-29.35-49.94-28.2"/>
        </g>
    </g>
</svg>
