<svg id="presence" xmlns="http://www.w3.org/2000/svg" viewBox="0 0 1517.1 2446.87">
  <defs>
    <style>
      .cls-1 {
        fill: #b39c3a;
      }

      .cls-1, .cls-2, .cls-3 {
        stroke: #000;
        stroke-width: 2px;
      }

      .cls-1, .cls-2 {
        stroke-linecap: round;
        stroke-linejoin: round;
      }

      .cls-2 {
        fill: #c4ac40;
      }

      .cls-3 {
        fill: none;
        stroke-miterlimit: 10;
      }
    </style>
  </defs>
  <title>dryingTears</title>
  <path id="braceletDark" class="cls-1" d="M1385.71,725.86c-2.39-37.69,36.55-20.08,65.56-17.44,31.61,2.88,61.18-20.15,64.54,18.08,4.2-42.17-39.15-20.49-63-22.5C1422.66,701.46,1380.51,681.34,1385.71,725.86Z"/>
  <path id="braceletMedium" class="cls-2" d="M1515.81,726.5c.64,81.31-125.65,94.27-130.1-.64C1399.8,812.74,1509.41,795,1515.81,726.5Z"/>
  <g id="bennettSoleSide">
    <path class="cls-3" d="M1281.85,2360.38c5.08,13.29,4.74,27.48-2.65,42.83-20.39,13.16-143.6,13-174.43-1.71-13.09-6.25-18.13-16.34-30.56-21.78-17.44-7.63-34.47-16.95-43.32-27.94-14.67-48.52,26.53-75.61,48.25-82.73Z"/>
    <path class="cls-3" d="M683.46,2356.67c-4.46,13.29-4.17,27.47,2.33,42.82,17.37,16.25,126.22,20,153.31,5.29,11.5-6.24,15.94-16.34,26.86-21.77,15.33-7.63,30.3-24,38.07-35,12.9-48.51-23.31-78.6-42.4-85.72Z"/>
    <path class="cls-3" d="M5.91,2291.32a89.61,89.61,0,0,0,4.41,42.57c8.49,13.16,70.29,36,137.64,22.93,59.89-8.92,159.25,1.28,188.13-22.51,5.1-73.9-45.44-70.08-67.85-84.29Z"/>
    <path class="cls-3" d="M542,2349c48.91,5.68,98.34,19.08,87.94,82.08-64.83,26.92-133.3,9.19-204.3,7.34-67.88-1.77-165.77,9.34-188.4-18.18-1.95-12.94-1.79-26.62,3.86-42Z"/>
  </g>
  <g id="bennettShoe">
    <path class="cls-3" d="M1251.85,2173.5c-5,68.09,35.24,136.42,30,186.88-24.9,22.1-138.51,12.65-155.81,8.19-20.24-5.22-22.15-12.69-40.55-21.46-17.1-8.15-26-12.42-30.07-16.28-2.8-18.86,13.61-43.81,23.72-61.78,23.2-28.59,29.65-50.39,34.09-102.77Z"/>
    <path class="cls-3" d="M709.83,2169.79c4.41,68.09-31,136.42-26.37,186.88,20.85,26.36,121.74,19.65,136.95,15.19,17.79-5.23,19.46-12.69,35.63-21.46,15-8.15,23.88-15.42,27.44-19.29,2.46-18.85-13-50.8-21.85-68.77-20.39-28.59-26.06-47.4-30-99.77Z"/>
    <path class="cls-3" d="M48.58,2126.18c-13,60.56-49,108.1-42.67,165.14,23.18,26.58,82.21,38.42,133.84,33,58.72-6.14,100-2.75,144.52-15.07,3.33-21.39-3.17-42.29-16-59.26-25.12-16.74-85.54-49.23-99.55-125.84Z"/>
    <path class="cls-3" d="M394.54,2163.36c1.41,47.69,18,90.29,51.31,118.22,35.27,29.55,66,61.61,96.14,67.44-9.59,17-14.5,38.29-11.13,58.3-99.54-12.91-237.24,8.68-289.77-29.1,4-54.35,23.56-91.64,28.29-187.66C306.89,2154.54,361.36,2158.75,394.54,2163.36Z"/>
  </g>
  <path id="bennettShoelace" class="cls-3" d="M487,2343.75c2.6-4,8.76-10.17,14.85-14.95-17.7-13.1-36.13-30.56-56-47.22a130.89,130.89,0,0,1-26.75-30.77c-7,3.58-14.63,8-17.28,10.14C418,2289,451.57,2317.45,487,2343.75Z"/>
  <g id="converseLogo">
    <path class="cls-3" d="M1117.46,2322.09c22.42,5.27,24.74-71,2-74.66C1099,2244.13,1096,2317,1117.46,2322.09Z"/>
    <path class="cls-3" d="M829.52,2320.38c-17.32,5.27-19.11-71-1.55-74.66C843.75,2242.42,846.11,2315.33,829.52,2320.38Z"/>
    <path class="cls-3" d="M159.6,2280.8c40,1.11,38.79-74.44-2.91-74.63C116.87,2206,114.35,2279.54,159.6,2280.8Z"/>
  </g>
  <g id="clothesOverlapLine">
    <path class="cls-3" d="M401.82,2261c-15.1-28.74-8-31.5-18.75-49"/>
    <path class="cls-3" d="M415.23,2280c3.43-2.89,12-10.17,16.49-12.19"/>
    <path class="cls-3" d="M429.77,2295.83c3-3.19,11.83-11.54,16.08-14.25"/>
    <path class="cls-3" d="M443.13,2308.45c3.72-4.36,11.16-12.61,16-15.5"/>
    <path class="cls-3" d="M457,2320.38c3.21-4.6,10.27-12.67,15.81-15.47"/>
    <path class="cls-3" d="M471.79,2332.2c2.07-4.24,10.16-12.33,15-15.36"/>
  </g>
  <g id="clothesDisplayLine">
    <path class="cls-3" d="M1055.42,2330.83c-7.15-3.88-19.64-9.93-23.62-19.86"/>
    <path class="cls-3" d="M883.48,2331.11c6.28-3.87,16.26-13.92,19.76-23.85"/>
    <path class="cls-3" d="M530.86,2407.32c35.84,3.5,73.62-2.9,98.09-12.61"/>
  </g>
  <g id="bennettJeans">
    <path class="cls-3" d="M1247.92,931.39c27,60.72,32.86,132.64,16.38,216.42-4.68,21.06,9.33,47-2.34,57.49-5.85,117-35.1,285.28-46.79,396.41-2.24,21.23,30.41,32.76,3.51,57.32-3.51,14,31.58,21.06,2.34,50.3,24.25,93,30.32,186,31.41,308.84.34,38.6,43.45,87.74-2.17,125.17,67.85,18.72-14,95.93-105.28,56.16-14-6.1-65.52,0-53.82-55-32-26.44,10-54.54-12.87-140.38-21.91-82.39-31.58-166.11-43.28-283.1-1.63-16.29-22.23-29.24,2.34-59.66-26.91-26.9-10.53-43.28-15.21-78.38-13.44-100.85-24.28-233-33.92-366.16-7.19,118.78-31.45,276.57-44.46,360.31-6.4,41.26,10,66.49-14,83.06,21,22.23-8.19,25.74-11.7,71.36-.65,87.88-12.18,181.07-38.61,280.76-25.73,97.1,21.06,105.29-8.19,145.06,28.45,65.11-96.8,82.2-163.82,60-25.69-8.51-5.8-44.78-8.14-67-28.71-33.77,1.47-65.49,4.68-127.51,5.77-111.72,16.07-217.26,36.26-312.35,0-9.35-19.89-23.39,8.19-55-24.33-17.47.35-34.92-1.17-63.17-12.87-238.65-83.06-482-23.4-661Z"/>
    <path class="cls-3" d="M475.72,897.69c12.68,63.9,11.41,139.51,7,209.27-1,16.43,12.62,45.92-2.79,65.57-.23,125.26-18.34,249-43.25,373.91-2.92,14.69,14.91,47-7,64.17,27.48,36.84-1.48,55.7-1.4,86.5-10.39,100.43-15.95,220.63-23.71,343.21-2.42,38.17,36.5,92-2.79,113,14.24,14.38,2.17,27-4.72,37-3.1-15-20.06-4-14,21.64-16.85,20.21-76.82-3.21-116.8,18.93-24.62-18.94-34.55-46.12-26-78.21,3.67-13.79-32.34-34.36-18.19-84.2-6.57,14.91-15.87,26.16-31,29.64,9.26,21-11.45,37.05-16.42,49.11-41.51-16.11-129.75,27-138.51-35.17-12.8-14.62-9.32-52.1,13.47-63.12-19.13-42.15,34.36-92.28,59.28-172.44,25.93-83.39,52.54-181.88,93.64-247.9-7.41-9.43-2.7-26.94,8.08-33.68,6.78-28.29-3.06-78.81-9.13-129.33-45.43-101-85.94-209.67-118.18-274.84-22.91-12.8-10.41-27-15.5-35.7C22.68,1077.57,18,980.68,42.89,886.93,199.11,830.93,344.46,829.15,475.72,897.69Z"/>
  </g>
  <g id="clothesDisplayLine-2" data-name="clothesDisplayLine">
    <path class="cls-3" d="M989.7,984.78c1.77,49.62,0,140-5.32,176.35"/>
    <path class="cls-3" d="M91.3,923.34c-11.89,63.33-11,125.9,18,180.48"/>
  </g>
  <g id="clothesOverlapLine-2" data-name="clothesOverlapLine">
    <path class="cls-3" d="M801,1213.41c100.13,35.45,154.46-4,187.27,3.42,126.43,28.49,174.29-20.25,180.49-7,7.16,11.44-18.4,19.83-80.64,24.81"/>
    <path class="cls-3" d="M160,1166.49c-9.89,9.79-6.32,21,4.6,31.14-8.18,33.89,25.44,133.9,36.9,267.94"/>
    <path class="cls-3" d="M210.62,1594.9c-4.88,17.9,14.49,27.92,9.33,38.85-15.28,32.39,1.76,42.62,0,57.6-20.95,178,17.2,303.71,2.12,377.11"/>
    <path class="cls-3" d="M120.07,1158.24c65.17,25.31,133.54-17,137.3,13.92,2.53,20.88-32.9,7.59-63.91,4.43"/>
  </g>
  <g id="clothesFoldLine">
    <path class="cls-3" d="M949.17,1230c-28.67,14.79-59.11,23.19-92.6,20.58"/>
    <path class="cls-3" d="M961.75,1246.62c-27.72,51.76-52.51,103.79-74.88,156.05"/>
    <path class="cls-3" d="M924.59,1367.8C905.24,1404.88,890.74,1447,880,1493"/>
    <path class="cls-3" d="M1016.62,1250.05c-5.76,11.87,18.87,68,41.16,105.75"/>
    <path class="cls-3" d="M1064.64,1247.76c-40-10.29-20,34.87,21.15,66.31"/>
    <path class="cls-3" d="M1058.69,1598.62c29.33,38.77,66.84,54.55,111.83,49.23"/>
    <path class="cls-3" d="M1218.68,1659c-32.69,21.17-76.87,10.92-77.89,21.88-1.14,12.25,41.68,13.36,69.11,5.62"/>
    <path class="cls-3" d="M1037.35,1661.37c22,20.94,52.92,7.48,55.1,16,1.74,6.82-19,13.36-40.09,12"/>
    <path class="cls-3" d="M1065.72,1701.3c84.67,2.78,132.23,11.26,38,29.47"/>
    <path class="cls-3" d="M1202.87,1728.73c-30.95,2.82-64.67,14.5-97.06,23.92"/>
    <path class="cls-3" d="M916.62,1608.47c-3.37,23.42-25.73,38.18-80.88,38"/>
    <path class="cls-3" d="M929.73,1660.2c-9.6,4.53-24.74,5.08-19.44,10.86"/>
    <path class="cls-3" d="M748.4,1655.52c69.75,24,140.22,11,134.46,22.57-6.43,12.9-47.24,12.41-111.13,2.82"/>
    <path class="cls-3" d="M887.08,1704.12c-52.75,12-116.86-13.75-118.86-2.82-2.51,13.67,31.86,18,65.41,21.81"/>
    <path class="cls-3" d="M821.67,1740.69c-22.17-2.77-42.76,3.09-61.89,16.88"/>
    <path class="cls-3" d="M846.29,2076.88c-8.87,32.94-24,58.4-50.64,70.33"/>
    <path class="cls-3" d="M759.07,2148.62c-28.44-10-47.55-29.4-54.15-61.19"/>
    <path class="cls-3" d="M871.23,2157.38c-24.94,18-115,21.68-51.67,29.92"/>
    <path class="cls-3" d="M699.27,2150.36c30.34,20.91,115.8,42.56,14.79,34.83"/>
    <path class="cls-3" d="M1240.85,2054.37c4.22,71-108.31,99.17-130.82,4.22"/>
    <path class="cls-3" d="M1250.26,2143.34c-29.1,16.53-48.08,23.28,4,23.56"/>
    <path class="cls-3" d="M1091.16,2144.51c43.49,33.65,107.49,27.32,68.1,43.49"/>
    <path class="cls-3" d="M1262,1205.3c-5.36,7.15-14.45,14.43-29.92,15.34"/>
    <path class="cls-3" d="M83.31,1190.73c9.29,1.88,17.48,5.3,23,12.45"/>
    <path class="cls-3" d="M164.59,1197.63c6.85,5.82,11.59,12.34,13.89,19.65"/>
    <path class="cls-3" d="M429.68,1610.61c-14,3.93-30.41,7.13-14.11,20.55"/>
    <path class="cls-3" d="M412.56,1569.32c-35.26,24.09-89,2.27-132-12.06"/>
    <path class="cls-3" d="M403.51,1666.6c-29.41,7.55-70.13-36.19-135.74,9.05"/>
    <path class="cls-3" d="M242.88,1598c73.91-6,125.27,22,19.61,37.71"/>
    <path class="cls-3" d="M248.16,2070.05c8.78,29.12,21.64,52.65,42.23,65.61"/>
    <path class="cls-3" d="M401.25,2103.23c-1.73,23.12-18.72,41-61.84,49.77"/>
    <path class="cls-3" d="M157.67,2064.77c-33.5-1.48-60.28-7.38-69.38-24.88"/>
    <path class="cls-3" d="M49.62,2048.92a42.88,42.88,0,0,0,13.79,20.38"/>
    <path class="cls-3" d="M191.08,2098.1c-28.89-.15-82.43,5.89-102-10.7"/>
    <path class="cls-3" d="M36.15,2112c23.14,12.33,48.55,14.81,74.76,13.82"/>
    <path class="cls-3" d="M378.62,2175.63c-28,10.25-60.19,8.68-98.79-11.32"/>
    <path class="cls-3" d="M237.62,2181.84c9,19.43,68.61-.18,48.25,20.18"/>
  </g>
  <path id="bennettHoodieInner" class="cls-3" d="M855.29,117.46c51.87-55.43,194-56.14,258,7.82Z"/>
  <g id="bennettHoodie">
    <path class="cls-3" d="M1158.75,160.19c54.08,47.33,121.33,54.05,134.78,125.51,0,20.17,16.82,26.65,14.29,64.72-2.17,32.72,16.49,89.5,25.22,132.82,7.8,38.7,7.56,81.54,22.7,114.33,9.55-12.71,25.94-19.34,47.91-21,53-31.94,96.67,33.63,57.16,74-3.8,29.28-17.72,50.19-40.35,63.89-14.91,27.79-47.54,47.41-76.49,60.52-44.56,20.18-90.71,3.71-114.33-64.73,1.4,12.45-1.17,21.38-7.56,26.9,10.31,15.17,12.26,33.2,6.72,53.8,14.67,24.54,18.44,50.66,6.73,79,10.08,32,25.74,66.41,19.85,72.3-87.1,18.49-173,1-262.8,1.68-91.63.63-191.66,16.81-276.56,1.68-4.2-7.57,12.38-49.76,14.29-76.5-14.61-27.69-2.25-52.46,16.81-76.5-9.87-20.19-8.88-40.64,2.52-61.36-14.29-18.5,4.08-31.24-.84-49.6-28.58-106.76-9.24-271.52-25.22-293.38-10.92-16.81-29.42,4.21-109.28,21L502.5,236.1c14.51-12.18,33.07-32.49,53.8-57.16-4.2-19.34,15.13-32.79,25.22-39.51-4.21-8.41-1.68-26.06,17.65-25.22,31.1-37,31.73-61.75,42.71-72.18,6.17-5.86,77.45,37.56,74.14,45.39C712,97,680.7,125.64,671.47,156.24c16.81,29.42-9.25,33.62-15.14,58.84,35.31-7.56,36.15-50.43,69.78-28.58,10.08-48.75,50.43-33.62,61.36-41.19Z"/>
    <path class="cls-3" d="M777.87,147.82C818,79.87,903.08,125,969.9,116.17c107.66-14.15,202.55,5.91,200,53.09-59.09,63.79-105.49,148.6-211,145.61C864.13,312.19,827.79,203.52,777.87,147.82Z"/>
  </g>
  <path id="bennettShirt" class="cls-3" d="M478.26,865.72c-72.92-54-440.33-18.23-443.13,31.55C145.21,994,313.49,794.2,481.77,916.91,473.36,891.67,493.39,881.6,478.26,865.72Z"/>
  <path id="bennettJacketCollar" class="cls-3" d="M111.9,135.39c20.84-26.51,26.67-65.46,41.41-70C216.21,46,302.9,43.94,354.63,75.69Z"/>
  <path id="bennettJacket" class="cls-3" d="M486,484.46c32.6,30.79,63.62,56.16,88.33,71,58.56,35.21,172.09,62.86,253.76,71.88,48.11,5.32,82.18,23.18,131.64,13.86,7.24,1,23.7-119.39,16.46-120.38-37.09-12.16-72.71-18.6-96.14-19.05-44.17-.87-126.44-48.5-207-78-2.59-26.85-26.84-4.33-38.1-23.38-15.24-29.21-58.89-81.41-97-133.38-7.52-21.86-14.12-40.65-33.78-53.69C456.4,102.86,393.5,60.82,320.49,80.26,228.37,83,167.77,108.62,111.9,135.39,8.49,187-17.46,366.5,12.88,596.81c5,37.81-11.71,72.07-.85,96.65,9.33,21.11-8.53,42.45,1.36,58,11.93,18.73-2.6,34.65,4.9,59.43,13.23,43.75-7,84.31,16.84,86.41,2.8-49.78,370.21-85.54,443.13-31.55-18.23-38.56,22.44-35.06,2.81-64.5-11.92-49.09,20.65-77.44-4.81-121.2-12.15-20.9,24.44-51.29,2.7-88.45C491.85,570.07,479.67,530.57,486,484.46Z"/>
  <g id="clothesOverlapLine-3" data-name="clothesOverlapLine">
    <path class="cls-3" d="M328,302.87C385.43,356.15,427.22,428.24,486,484.46"/>
    <path class="cls-3" d="M599.17,114.21c26.07,11.56,50.71,24.9,72.3,42"/>
    <path class="cls-3" d="M656.33,215.08c-11.79,5.77-30.12,9.37-35.82,18.83-15.47-1.67-26.07,6.78-33.44,21.94-14.25,4.47-27.31,13-39.64,24"/>
    <path class="cls-3" d="M1355.74,597.57c22.18,27,26.38,59.85-2.45,103.33"/>
    <path class="cls-3" d="M1252.83,395.2c-.72,146.71-39.39,275.34-23.19,315"/>
    <path class="cls-3" d="M1235.53,869.93c-77.62,16.61-168.43,12.34-253.67,12.12-83.16-.21-168.81,15.5-251.55-13"/>
    <path class="cls-3" d="M1403.65,576.55c32.51,3.44,58.91,35,57.16,74"/>
  </g>
  <g id="clothesFoldLine-2" data-name="clothesFoldLine">
    <path class="cls-3" d="M320.49,80.26c-16.76,10.45-11.41,20.27-29.25,29.19"/>
    <path class="cls-3" d="M179.73,320.86c-43.68,15.54-84.38,27.73-114.18,27.66"/>
    <path class="cls-3" d="M141.37,355.65c-33.7,11-65.08,17.47-91.88,15.17"/>
    <path class="cls-3" d="M371.52,97.85c-160.57,37.47-32.11,245.31-66,84.74"/>
    <path class="cls-3" d="M280.53,259.31c19.1,19.29,41.93,21.41,71.37,41.93"/>
    <path class="cls-3" d="M376.88,392.23C330.39,465,282.37,522.71,231.47,551.91"/>
    <path class="cls-3" d="M388.47,456.46C335.74,519.27,277.59,569.52,211,600.08"/>
    <path class="cls-3" d="M377.77,554.58c11.59,9.82-60.92,39.26-107,44.61"/>
    <path class="cls-3" d="M479,591.57c-14.33-13.65-28.28-22.4-41.42-20.93"/>
    <path class="cls-3" d="M91.42,675.9a326,326,0,0,1,129.35-29.44"/>
    <path class="cls-3" d="M255.56,710.69c-57.62,4.64-110.26,14.63-153.44,34.79"/>
    <path class="cls-3" d="M274.29,684.82c56.24-6.48,124.89-26.76,59.77-31.22"/>
    <path class="cls-3" d="M335.84,614.35c-49.06,21.41,117.75,40.14,101.7,12.49"/>
    <path class="cls-3" d="M426.83,659.85c-40.14,8.92,26.76,29.43,40.14,49.95"/>
    <path class="cls-3" d="M350.11,692.85c-96.34,26.76,171.28,63.34,59.77,4.46"/>
    <path class="cls-3" d="M329.6,744.59c54.74,12.49-37.47,25-79.4,24.09"/>
    <path class="cls-3" d="M450,750.84c-53.52,3.56,2.68,12.48,31.05,50.38"/>
    <path class="cls-3" d="M457.16,826.66c-26.49-40.59-84.74-40.14-147.19-33"/>
    <path class="cls-3" d="M87.85,886.43c59.77,4.46,128.46-31.22,213.2-33"/>
    <path class="cls-3" d="M470.54,885.54c-14.23-6.7-28-11.47-41-13.38"/>
    <path class="cls-3" d="M504.2,213.39c14.68,32.32,24.08,67.74,12.45,115.5"/>
    <path class="cls-3" d="M538,267.08c7.64,26.53,12.35,52,12,75.62"/>
    <path class="cls-3" d="M605.19,401.19c-5.12,23.16-15.09,41.95-36.56,50.36"/>
    <path class="cls-3" d="M640.93,423.93c-33.22,32.77-32.33,21.21-5.95-23.47"/>
    <path class="cls-3" d="M673.08,423.84c.56,13.82,6.54,27.34,15,40.71"/>
    <path class="cls-3" d="M627.93,458.05c14.62-3.25,22.75-33.31,34.93-1.63"/>
    <path class="cls-3" d="M876.5,514.91c-25.78,14.81-55.12,22.48-89.35,20.31"/>
    <path class="cls-3" d="M581.52,139.43c19,12.62,52.28,20.67,10.94,22.82"/>
    <path class="cls-3" d="M658.5,186.41c-14-8-33.29-8-38.66,0"/>
    <path class="cls-3" d="M556.3,178.94c22.07-6.43,58.71,30,68.37,50.42"/>
    <path class="cls-3" d="M587.07,255.85c-6,8.46-8.67,17.41-5.35,27.21"/>
    <path class="cls-3" d="M620.51,233.91c-22.37,30.53-15.81,61.41,19.2,92.64"/>
    <path class="cls-3" d="M637,285.74c10.12,25.27,30.92,43.51,59.06,56.92"/>
    <path class="cls-3" d="M680.56,201.48c54.72-2.72,90.09,161.58,37,65.6"/>
    <path class="cls-3" d="M726.11,186.5c55.88,99.24,74.67,64.88,24.74-3.11"/>
    <path class="cls-3" d="M798.75,394.11c15.69,39.8,33,74.69,52.61,102.65"/>
    <path class="cls-3" d="M857.44,435.49c20,28.76,41.57,52.64,64.74,71.28"/>
    <path class="cls-3" d="M749.64,731.23a105.9,105.9,0,0,0,43.09,4.45"/>
    <path class="cls-3" d="M747.12,792.59c23.28,11.21,55.56,16.27,92.26,18.32"/>
    <path class="cls-3" d="M848.41,694.3c41.38,29.34,205.39,26.33,247.52,9"/>
    <path class="cls-3" d="M1078.63,789.84c-45.15,1.51-127.15,15.8-165.52,2.26"/>
    <path class="cls-3" d="M1222.08,737.11c-7.58,6.06-21,9.53-38.13,11.36"/>
    <path class="cls-3" d="M1228.8,790.91c-3.51,8.18-22.56,12-45.6,14.73"/>
    <path class="cls-3" d="M837.12,172.17c3.76-27.84,64.39-.64,126.4.75,65.08,1.47,130.15-33.85,127.9,6.77"/>
    <path class="cls-3" d="M864.21,220.32c30.06,12,52.93,29.66,67,54.17"/>
    <path class="cls-3" d="M1079.38,226.34c-27.84,3-75.24,30.09-91.79,55.67"/>
    <path class="cls-3" d="M1269,343.71c-6-33-17-33.92-15.56-19.16,1.26,13.14,7.28,31.19-.58,70.65,8.76-3.94,15.81-14.12,21.4-29.68"/>
    <path class="cls-3" d="M1293,464.83c18.67,70.21,26.57,139.44,15,206.9"/>
    <path class="cls-3" d="M1225.94,671.73c6.71,24.2,19.81,38.18,37.59,44.65"/>
    <path class="cls-3" d="M1372.38,657.36c16.21,39.19-12.38,94.12-26.67,94.12-6.53-4.7,13.54-19.57,24.07-54.21"/>
    <path class="cls-3" d="M1373.61,641.83c10.85,6,18,22.24,14.42,33"/>
    <path class="cls-3" d="M1368.33,618c44.45,8.16,52.17,41.87,36.77,92.25"/>
    <path class="cls-3" d="M1358.29,600.82c37.08-2.64,61.33,12.19,69.84,48.42"/>
    <path class="cls-3" d="M1424.16,668.44c6.22,14.15,4.3,29.58-3.7,46"/>
  </g>
  <g id="skinEastAsian">
    <path class="cls-3" d="M182.5.32,161,63.16c59.91-16.66,138.2-17.87,188.24,9.4l2.66-15.06"/>
    <path class="cls-3" d="M458.26,106.72a110.38,110.38,0,0,1-11.76,13.15c17.82,18.95,34.38,44.1,49.55,75.66a256.61,256.61,0,0,1,27.34-32.36"/>
    <path class="cls-3" d="M991.67,531.57q-7.17,0-13.67-.43c0,20.5-6,66.64-11.69,92.2a62.22,62.22,0,0,1,7.27,3"/>
  </g>
</svg>
