<svg viewBox="0 0 1548.83 2928.64">
    <path class="braceletDark" d="M1385.71,1227.62c-2.39-37.69,36.55-20.08,65.56-17.43,31.61,2.87,61.18-20.15,64.54,18.07,4.2-42.17-39.15-20.49-63-22.5C1422.66,1203.22,1380.51,1183.1,1385.71,1227.62Z"/>
    <path class="braceletMedium" d="M1515.81,1228.26c.64,81.32-125.65,94.27-130.1-.64C1399.8,1314.5,1509.41,1296.77,1515.81,1228.26Z"/>
    <g class="soleWhite">
        <path d="M1281.85,2862.15c5.08,13.29,4.74,27.47-2.65,42.82-20.39,13.17-143.6,13-174.43-1.71-13.09-6.25-18.13-16.34-30.56-21.78-17.44-7.63-34.47-16.94-43.32-27.94-14.67-48.52,26.53-75.6,48.25-82.72Z"/>
        <path d="M683.46,2858.43c-4.46,13.29-4.17,27.48,2.33,42.83,17.37,16.24,126.22,20,153.31,5.29,11.5-6.25,15.94-16.34,26.86-21.78,15.33-7.63,30.3-23.95,38.07-34.94,12.9-48.52-23.31-78.61-42.4-85.73Z"/>
        <path d="M5.91,2783.09a89.56,89.56,0,0,0,4.41,42.56c8.49,13.16,70.29,36,137.64,22.93,59.89-8.92,159.25,1.28,188.13-22.51,5.1-73.9-45.44-70.08-67.85-84.29Z"/>
        <path d="M542,2830.78c48.91,5.68,98.34,19.08,87.94,82.08-64.83,26.92-133.3,9.19-204.3,7.34-67.88-1.76-165.77,9.34-188.4-18.18-1.95-12.94-1.79-26.62,3.86-42Z"/>
    </g>
    <g class="bennettShoe">
        <path d="M1251.85,2675.26c-5,68.1,35.24,136.42,30,186.89-24.9,22.09-138.51,12.65-155.81,8.18-20.24-5.22-22.15-12.69-40.55-21.46-17.1-8.15-26-12.42-30.07-16.28-2.8-18.86,13.61-43.81,23.72-61.77,23.2-28.6,29.65-50.4,34.09-102.78Z"/>
        <path d="M709.83,2671.55c4.41,68.09-31,136.42-26.37,186.88,20.85,26.36,121.74,19.65,136.95,15.19,17.79-5.23,19.46-12.69,35.63-21.46,15-8.15,23.88-15.42,27.44-19.29,2.46-18.85-13-50.8-21.85-68.77-20.39-28.59-26.06-47.39-30-99.77Z"/>
        <path d="M48.58,2618c-13,60.55-49,108.1-42.67,165.14,23.18,26.57,82.21,38.42,133.84,33,58.72-6.14,100-2.75,144.52-15.07,3.33-21.39-3.17-42.29-16-59.26-25.12-16.74-81.54-49.23-95.55-125.84Z"/>
        <path d="M404.54,2645.12c1.41,47.69,8,90.29,41.31,118.22,35.27,29.55,66,61.61,96.14,67.44-9.59,17-14.5,38.29-11.13,58.3-99.54-12.9-237.24,8.68-289.77-29.1,4-54.35,23.56-91.64,28.29-187.66C306.89,2636.3,371.36,2640.51,404.54,2645.12Z"/>
    </g>
    <path class="shoelace" d="M487,2825.52c2.6-4.05,8.76-10.18,14.85-15-17.7-13.1-36.13-30.56-56-47.22a130.7,130.7,0,0,1-26.75-30.77c-7,3.58-14.63,8-17.28,10.14C418,2770.73,451.57,2799.21,487,2825.52Z"/>
    <g class="converseLogo">
        <path d="M1117.46,2823.85c22.42,5.28,24.74-71,2-74.66C1099,2745.89,1096,2818.8,1117.46,2823.85Z"/>
        <path d="M829.52,2822.14c-17.32,5.27-19.11-71-1.55-74.66C843.75,2744.18,846.11,2817.09,829.52,2822.14Z"/>
        <path d="M159.6,2772.56c40,1.11,38.79-74.44-2.91-74.63C116.87,2697.75,114.35,2771.3,159.6,2772.56Z"/>
    </g>
    <g class="skinEastAsian">
        <path d="M712.51,583.11c9.72-6.38,32.4,7.59,76.39-15.5L773.23,441.66C691.64,459.51,685.38,496,646.17,543.55,660,546.51,700.22,570.7,712.51,583.11Z"/>
        <path d="M782.8,390.8c-13.06,46.34-38.92,136.9,20.9,227.05,25.71,38.76,68.19,71.6,157.06,60.84,95-11.51,145.52-114.37,205.76-154.69C1011.56,308.54,828.17,125.36,782.8,390.8Z"/>
    </g>
    <g class="bennettJeans">
        <path d="M1247.92,1433.15c27,60.72,32.86,132.64,16.38,216.42-4.68,21.06,9.33,47-2.34,57.5-5.85,117-35.1,285.27-46.79,396.4-2.24,21.23,30.41,32.76,3.51,57.32-3.51,14,31.58,21.06,2.34,50.31,24.25,93,30.32,186,31.41,308.83.34,38.61,43.45,87.74-2.17,125.18,67.85,18.71-14,95.92-105.28,56.15-14-6.1-65.52,0-53.82-55-32-26.44,10-54.54-12.87-140.38-21.91-82.4-31.58-166.12-43.28-283.1-1.63-16.3-22.23-29.25,2.34-59.67-26.91-26.9-10.53-43.28-15.21-78.38-13.44-100.85-24.28-233-33.92-366.15-7.19,118.77-31.45,276.56-44.46,360.31-6.4,41.26,10,66.49-14,83.05,21,22.23-8.19,25.74-11.7,71.36-.65,87.88-12.18,181.08-38.61,280.76-25.73,97.1,21.06,105.29-8.19,145.06,28.45,65.12-96.8,82.2-163.82,60-25.69-8.51-5.8-44.78-8.14-67-28.71-33.78,1.47-65.5,4.68-127.52,5.77-111.72,16.07-217.26,36.26-312.34,0-9.36-19.89-23.4,8.19-55-24.33-17.47.35-34.91-1.17-63.17-12.87-238.64-83.06-482-23.4-661Z"/>
        <path d="M475.72,1399.45c12.68,63.9,21.41,139.52,17,209.27-1,16.43,12.62,45.92-2.79,65.58-.23,125.25-18.34,258.94-43.25,383.9-2.92,14.69,14.91,47-7,64.17,27.48,36.84-1.48,55.7-1.4,86.5-10.39,100.43-15.95,190.63-23.71,313.21-2.42,38.17,36.5,92-2.79,113,14.24,14.38-7.83,26.95-14.72,37-3.1-15-20.06-4-14,21.64-16.85,20.21-76.82-3.21-116.8,18.93-24.62-18.94-34.55-46.11-26-78.21,3.67-13.79-32.34-34.35-18.19-84.2-6.57,14.91-11.87,36.16-27,39.64,9.26,21-15.45,37-20.42,49.11-41.51-16.1-139.75,27-148.51-35.16-12.8-14.62-9.32-52.11,13.47-63.13C20.49,2498.54,74,2438.4,98.9,2358.24c25.93-83.39,52.54-151.88,93.64-217.89-7.41-9.43,2.3-26.95,13.08-33.68,6.78-28.3-8.06-88.82-14.13-139.34-45.43-101-85.94-209.67-118.18-274.83-22.91-12.8-10.41-27-15.5-35.71-45.13-77.46-39.77-174.35-14.92-268.1C199.11,1332.69,344.46,1330.92,475.72,1399.45Z"/>
    </g>
    <g class="head50">
        <path class="hairBlack" d="M738,382.7a65,65,0,0,0,36.85-35.39c18,31.86-2.76,91,14.22,113.5.91-24,12.71-56.57,9.27-84.6,10-45.31,62.34-39.68,39.68,43.48,56.15,94,154.38,76,202.17,133.14,39.23-29.56,131,2.89,190.88-79.79,92-127,73.41-313.14-53.51-375.71,3.38-9.93,33.79-21.55,73.54-5.35-23.31-22-63.58-30.41-92.39-6.67-9.9-32.65-31.81-49.7-66.37-53.75,23.84,11.85,34.55,22.53,42.61,47.91C1020.31,30.77,824.06,30.36,777.89,161,730.29,295.79,778.58,318.56,738,382.7Z"/>
    </g>
    <path class="bennettHoodieInner" d="M855.29,619.23c51.87-55.44,194-56.15,258,7.81Z"/>
    <g class="bennettHoodie">
        <path d="M1158.75,662c54.08,47.32,121.33,54,134.78,125.5,0,20.17,16.82,26.65,14.29,64.73-2.17,32.71,16.49,89.49,25.22,132.82,7.8,38.69,7.56,81.54,22.7,114.32,9.55-12.71,25.94-19.34,47.91-21,53-32,96.67,33.62,57.16,74-3.8,29.29-17.72,50.19-40.35,63.89-14.91,27.79-47.54,47.42-76.49,60.52-44.56,20.18-90.71,3.71-114.33-64.72,1.4,12.44-1.17,21.37-7.56,26.9,10.31,15.16,12.26,33.19,6.72,53.8,14.67,24.53,18.44,50.65,6.73,79,10.08,32,25.74,66.41,19.85,72.3-87.1,18.49-173,1.06-262.8,1.68-91.63.64-191.66,16.81-276.56,1.68-4.2-7.56,12.38-49.76,14.29-76.5-14.61-27.69-2.25-52.45,16.81-76.49-9.87-20.19-8.88-40.65,2.52-61.37-14.29-18.49,4.08-31.23-.84-49.6-28.58-106.76-9.24-271.52-25.22-293.38-10.92-16.81-29.42,4.21-109.28,21L502.5,737.86c14.51-12.18,33.07-32.49,53.8-57.16-4.2-19.34,15.13-32.79,25.22-39.51-4.21-8.41-1.68-26.06,17.65-25.22,31.1-37,31.73-61.75,42.71-72.18,6.17-5.85,77.45,37.56,74.14,45.4C712,598.8,680.7,627.4,671.47,658c16.81,29.42-9.25,33.63-15.14,58.85,35.31-7.57,36.15-50.44,69.78-28.59,10.08-48.75,50.43-33.62,61.36-41.19Z"/>
        <path d="M777.87,649.58c40.08-68,125.21-22.87,192-31.65,107.66-14.15,202.55,5.91,200,53.09-59.09,63.79-105.49,148.6-211,145.61C864.13,814,827.79,705.29,777.87,649.58Z"/>
    </g>
    <path class="shirtWhite" d="M478.26,1367.48c-72.92-54-440.33-18.23-443.13,31.56,110.08,96.76,278.36-103.07,446.64,19.63C473.36,1393.43,493.39,1383.37,478.26,1367.48Z"/>
    <g class="eye">
        <circle class="sclera" cx="468.81" cy="342.64" r="91.43"/>
        <g class="irisDarkBrown">
            <ellipse cx="462.37" cy="321.67" rx="22.5" ry="17.42" transform="matrix(0.08, -1, 1, 0.08, 106.84, 758.55)"/>
            <ellipse cx="543.93" cy="358.05" rx="22.5" ry="11.8" transform="translate(145.99 873.51) rotate(-85.69)"/>
        </g>
        <g class="pupil">
            <ellipse cx="465.65" cy="321.92" rx="8.75" ry="6.78" transform="translate(109.63 762.05) rotate(-85.69)"/>
            <ellipse cx="547.15" cy="358.29" rx="8.75" ry="4.59" transform="translate(148.72 876.95) rotate(-85.69)"/>
        </g>
    </g>
    <g class="skinEastAsian">
        <path d="M620,537.51c9.73,18.8,38.71,23.23,36.88.38-4-2.59-4.22-9.55-9.67-13.16,23.31,4.16,29.21-17.74,18.88-23.7-7.78-4.14-4.87-7.27-17.44-18,22.12-4.89,27-30.42,14-35.3-8.25-.89-19,3.44-26.39,1.32,33.34-27.25,18.94-67.29-4.1-54.61-14.79,28-27.65,27.36-46,49.33-38.35,5.67-35.18,13.45-49.29,43.62-19.59,21.95-47.52,29.44-65.09,59.1-10.8,18.24-6.35,41.75-15.2,65.7q-5.75,9.46-11.95,13.37l50.4,77a259.85,259.85,0,0,1,27.81-32.92C534.65,654.91,602.43,654.32,620,537.51Z"/>
        <path d="M158.14,383.09c21.81,46.6,21,129.29,2.82,181.83l188.24,9.4c13.93-42.32,35.95-86.15,73.62-106"/>
        <path d="M229.87,403.79c-24.91,29.09-45.79-1.91-51-8C-21.5,265.65,391.75-56.4,556.2,150.66c-12.81,79.6,44.07,170.13,14.32,192.82-11.78,9,2.77,15.34-13.61,26.23,3.82,4,4.91,8.39,1.21,13.44C572,428.72,560.74,496,518.54,543.67,488.2,578,494.92,601.4,448.85,603.58c-47.69.11-67.37-24.84-117-50.68-33.56-17.48-61.54-42.49-79.65-71.74m231.23-147c-.64-8-1.88-20.43-11.58-23.58-11.58-3.78-37.07-7.88-53.45.35,14.7,7.89,20.8,14,30.88,18.81,10.79,5.19,18.25,7.52,27.61,6.68C479.3,336.22,483.91,339.93,483.45,334.17Zm60.28,8.65c-10.08-2.46-18.06-.54-23,7.17,3.44,13.19,19,22.51,32.13,19.71a24.18,24.18,0,0,0,4.31-14.42C554.4,349.12,549.4,344.2,543.73,342.82Z"/>
    </g>
    <g class="head50__edited">
        <path class="lipMaleMedium__noStroke" d="M514.57,479.85c8.26-15.69-1.54-13.84-13-15.76-8.3-1.39-10.86-7-20.25-4.91-13.09,6.14-22.18,24.14-45,37.72,11.06.91,15.61,40.48,55.54,35.33,15.23-6.38,13.91-17.41,2.51-26.88C500.83,488.34,508.63,488.93,514.57,479.85Z"/>
        <path class="mouthInner" d="M494.38,505.35c3.74-6.69,4.48-14.31,3.37-22.5-6.54-1.18-11.51-3-14.57-6.85-2.65-3.07-35.81,14.29-46.85,20.9C460.86,495.61,481.46,500.06,494.38,505.35Z"/>
        <path class="teeth" d="M483.18,476c-1.57-1.82-13.8,3.51-25.82,9.54,11.6,6.72,26.63,13.36,31.05,12.87,2-.93,5.7-8.67,8-15.82C490.52,481.4,486,479.56,483.18,476Z"/>
        <g class="lipOverlapLine">
            <path d="M426.91,498.33c3.66.11,6.64-1,9.42-1.43"/>
            <path d="M497.75,482.85a11.73,11.73,0,0,0,8.79-2.21"/>
            <path d="M494.38,505.35c5.94,2.6,8.95,8,9.22,14.35"/>
        </g>
        <g class="lipEdgeLine">
            <path d="M514.57,479.85c8.26-15.69-1.54-13.84-13-15.76-8.3-1.39-10.86-7-20.25-4.91"/>
            <path d="M494.44,530.35c-17.22,7.94-39-8.79-42.87-15.24"/>
        </g>
        <path class="cheekLine" d="M468.41,407.07c-9.58,3.44-12.4,11.66-27.5,26.59-11.86,11.72-17.24,17.5-20.42,27.12"/>
        <g class="noseLine">
            <path d="M520.75,350c1.21,48.86,46.38,83.64-5,95.21"/>
            <path d="M468.41,407.07c-8.3,2.8-14.63,18.5-2.36,28"/>
            <path d="M475.57,435.55c14.75-8.2,32.29-5.66,28,2.5"/>
        </g>
        <g class="eyeFoldLine">
            <path d="M551.79,382.73c-7.59,1.53-21.46-5.07-28.15-12.35"/>
            <path d="M472.06,346.59c-14.12,4.54-30-1.57-39.85-10.48"/>
        </g>
        <g class="eyeCornerLine">
            <path d="M408.5,314.06c4.21-1.14,6-2.45,9.92-3.12"/>
            <path d="M557.19,355.28a36.35,36.35,0,0,1,3.06,7.77"/>
        </g>
        <path class="eyeCreaseLine" d="M416.35,301.74c20-8.07,51.61-7.43,65.44,5.64"/>
        <g class="eyebrowBlack">
            <path d="M512.2,274.13c-25.09,26-68-23.49-103.22-2.34C439.57,236,474.19,273,512.2,274.13Z"/>
            <path d="M545.65,290.6c-3.27,22.6,14.56,27.47,31.11,44.68a35.28,35.28,0,0,0,2.45-12.51C567.32,308.22,553.89,307.81,545.65,290.6Z"/>
        </g>
        <path class="hairBlack" d="M467.79,132.11c-4.58,40.73-1,65.39,8.29,83.67.25-8.55.79-22.9,5.93-33.16,3.75,59,60.57,62.47,70.7,94.64-.82-7.16,1.53-13-7-30.3,15.56,25.49,41.62,36.12,43.1,67.1,19-45,28.06-112-12.89-157.61,6,.45,12.72,12.43,31.9,18.79-47.3-45.74-39.69-99-191.29-140.64C371.2,22.16,251.71,22.13,200.21,64.5c-1.93-22.17,10.13-45.16,36.92-61.81C200.54,12.41,176.31,40.44,179,72.23c-12-24-46.06-11.77-52.7,7.86,18.49-12.55,32.23-10,40,7.16-57.78,57.57-99.86,211.82-7.49,308.45,6.53,2.29,14.28,1.74,20.1.12-24.78-32.44-39.2-41.72-33.35-85.15s70.14-54,80.95-6.24c13.5-.53,40.65-4.67,53.24-7.34,3-34.51-2.69-33.37,29.43-62.36,33.78-5.39,84.48,1.41,103.85-35.19-2.14,12.79-12.95,21.34-12.33,34.3C412.34,213.15,453.5,213,467.79,132.11Z"/>
        <path class="hairOverlapLine" d="M309.15,234.73c-11-.25-23.84,1.88-33.41,2.34,9.58-6.74,23.44-13.07,27.63-17.94"/>
    </g>
    <path class="bennettJacketCollar" d="M111.9,637.15c20.84-26.5,26.67-65.45,41.41-70,62.9-19.4,149.59-21.44,201.32,10.3Z"/>
    <path class="bennettJacket" d="M486,986.23c32.6,30.78,63.62,56.15,88.33,71,58.56,35.21,172.09,62.86,253.76,71.89,48.11,5.31,82.18,23.17,131.64,13.85,7.24,1,23.7-119.39,16.46-120.38-37.09-12.16-72.71-18.59-96.14-19.05-44.17-.87-126.44-48.5-207-77.95-2.59-26.85-26.84-4.33-38.1-23.38-15.24-29.2-58.89-81.41-97-133.37-7.52-21.87-14.12-40.66-33.78-53.7C456.4,604.62,393.5,562.58,320.49,582c-92.12,2.78-152.72,28.36-208.59,55.13-103.41,51.61-129.36,231.11-99,461.43,5,37.8-11.71,72.07-.85,96.64,9.33,21.12-8.53,42.45,1.36,58,11.93,18.72-2.6,34.64,4.9,59.42,13.23,43.75-7,84.31,16.84,86.42,2.8-49.79,370.21-85.54,443.13-31.56-18.23-38.56,22.44-35,2.81-64.5-11.92-49.08,20.65-77.44-4.81-121.2-12.15-20.9,24.44-51.29,2.7-88.45C491.85,1071.83,479.67,1032.33,486,986.23Z"/>
    <g class="clothesDisplayLine">
        <path d="M989.7,1486.54c1.77,49.63,0,140-5.32,176.35"/>
        <path d="M91.3,1425.11c-11.89,63.32-11,125.89,18,180.48"/>
        <path d="M1055.42,2832.59c-7.15-3.87-19.64-9.93-23.62-19.86"/>
        <path d="M883.48,2832.87c6.28-3.87,16.26-13.92,19.76-23.85"/>
        <path d="M530.86,2889.08c35.84,3.5,73.62-2.9,98.09-12.61"/>
    </g>
    <g class="clothesOverlapLine">
        <path d="M801,1715.18c100.13,35.44,154.46-4,187.27,3.42,126.43,28.48,174.29-20.26,180.49-7,7.16,11.44-18.4,19.83-80.64,24.81"/>
        <path d="M160,1668.25c-9.89,9.79-6.32,21,4.6,31.14-8.18,33.89,15.44,133.9,26.9,267.94"/>
        <path d="M205.62,2106.67c-4.88,17.89,16.49,27.91,11.33,38.84-15.28,32.4,1.76,42.62,0,57.6-20.95,178,20.2,273.71,5.12,347.11"/>
        <path d="M120.07,1660c65.17,25.31,133.54-17,137.3,13.92,2.53,20.88-32.9,7.59-63.91,4.43"/>
        <path d="M328,804.63C385.43,857.91,427.22,930,486,986.23"/>
        <path d="M599.17,616c26.07,11.57,50.71,24.9,72.3,42"/>
        <path d="M656.33,716.85c-11.79,5.76-30.12,9.36-35.82,18.82-15.47-1.67-26.07,6.78-33.44,21.94-14.25,4.47-27.31,13-39.64,24"/>
        <path d="M1355.74,1099.33c22.18,27,26.38,59.85-2.45,103.34"/>
        <path d="M1252.83,897c-.72,146.7-39.39,275.33-23.19,315"/>
        <path d="M1235.53,1371.69c-77.62,16.62-168.43,12.34-253.67,12.13-83.16-.21-168.81,15.49-251.55-13"/>
        <path d="M1403.65,1078.32c32.51,3.43,58.91,35,57.16,74"/>
        <path d="M401.82,2742.71c-15.1-28.74-8-31.5-18.75-49"/>
        <path d="M415.23,2761.72c3.43-2.9,12-10.18,16.49-12.2"/>
        <path d="M429.77,2777.6c3-3.2,11.83-11.55,16.08-14.26"/>
        <path d="M443.13,2790.21c3.72-4.36,11.16-12.61,16-15.49"/>
        <path d="M457,2802.14c3.21-4.59,10.27-12.67,15.81-15.46"/>
        <path d="M471.79,2814c2.07-4.24,10.16-12.32,15-15.36"/>
    </g>
    <g class="clothesFoldLine">
        <path d="M949.17,1731.8c-28.67,14.79-59.11,23.19-92.6,20.58"/>
        <path d="M961.75,1748.38c-27.72,51.77-52.51,103.8-74.88,156"/>
        <path d="M924.59,1869.56c-19.35,37.09-33.85,79.19-44.58,125.18"/>
        <path d="M1016.62,1751.81c-5.76,11.87,18.87,68,41.16,105.75"/>
        <path d="M1064.64,1749.52c-40-10.28-20,34.87,21.15,66.31"/>
        <path d="M1058.69,2100.38c29.33,38.78,66.84,54.55,111.83,49.23"/>
        <path d="M1218.68,2160.79c-32.69,21.18-76.87,10.92-77.89,21.88-1.14,12.25,41.68,13.36,69.11,5.63"/>
        <path d="M1037.35,2163.13c22,20.95,52.92,7.48,55.1,16,1.74,6.82-19,13.37-40.09,12"/>
        <path d="M1065.72,2203.07c84.67,2.77,132.23,11.25,38,29.46"/>
        <path d="M1202.87,2230.5c-30.95,2.81-64.67,14.49-97.06,23.91"/>
        <path d="M916.62,2110.23c-3.37,23.43-25.73,38.19-80.88,38"/>
        <path d="M929.73,2162c-9.6,4.53-24.74,5.08-19.44,10.86"/>
        <path d="M748.4,2157.28c69.75,24,140.22,11,134.46,22.58-6.43,12.89-47.24,12.4-111.13,2.81"/>
        <path d="M887.08,2205.88c-52.75,12-116.86-13.75-118.86-2.81-2.51,13.66,31.86,18,65.41,21.8"/>
        <path d="M821.67,2242.45c-22.17-2.77-42.76,3.09-61.89,16.88"/>
        <path d="M846.29,2578.64c-8.87,32.94-24,58.4-50.64,70.33"/>
        <path d="M759.07,2650.38c-28.44-10.05-47.55-29.4-54.15-61.19"/>
        <path d="M871.23,2659.14c-24.94,18-115,21.69-51.67,29.92"/>
        <path d="M699.27,2652.13c30.34,20.9,115.8,42.55,14.79,34.82"/>
        <path d="M1240.85,2556.13c4.22,71-108.31,99.17-130.82,4.22"/>
        <path d="M1250.26,2645.11c-29.1,16.52-48.08,23.27,4,23.55"/>
        <path d="M1091.16,2646.28c43.49,33.64,107.49,27.31,68.1,43.48"/>
        <path d="M1262,1707.07c-5.36,7.14-14.45,14.42-29.92,15.33"/>
        <path d="M73.31,1692.5c9.29,1.88,17.48,5.29,23,12.44"/>
        <path d="M164.59,1699.39c6.85,5.82,11.59,12.34,13.89,19.66"/>
        <path d="M439.68,2122.37c-14,3.93-30.41,7.13-14.11,20.55"/>
        <path d="M422.56,2081.09c-35.26,24.08-99,2.26-142-12.07"/>
        <path d="M413.51,2178.37c-29.41,7.54-80.13-36.2-145.74,9.05"/>
        <path d="M232.88,2109.74c73.91-6,135.27,22,29.61,37.71"/>
        <path d="M248.16,2551.81c8.78,29.12,21.64,52.65,42.23,65.61"/>
        <path d="M411.25,2585c-1.73,23.12-18.72,41-61.84,49.78"/>
        <path d="M161.67,2556.54c-33.5-1.48-74.28-7.39-83.38-24.89"/>
        <path d="M39.62,2540.68a42.83,42.83,0,0,0,13.79,20.38"/>
        <path d="M195.08,2589.86c-28.89-.14-86.43,5.89-106-10.7"/>
        <path d="M26.15,2603.81c23.14,12.32,58.55,14.8,84.76,13.81"/>
        <path d="M378.62,2657.39c-12.4,4.54-49.15,14.4-98.79-11.31"/>
        <path d="M237.62,2663.6c9,19.43,68.61-.18,48.25,20.18"/>
        <path d="M320.49,582c-16.76,10.45-11.41,20.27-29.25,29.19"/>
        <path d="M179.73,822.63c-43.68,15.53-84.38,27.72-114.18,27.65"/>
        <path d="M141.37,857.42c-33.7,11-65.08,17.46-91.88,15.16"/>
        <path d="M371.52,599.61c-160.57,37.47-32.11,245.32-66,84.75"/>
        <path d="M280.53,761.07c19.1,19.29,41.93,21.41,71.37,41.93"/>
        <path d="M376.88,894c-46.49,72.79-94.51,130.48-145.41,159.68"/>
        <path d="M388.47,958.22C335.74,1021,277.59,1071.28,211,1101.84"/>
        <path d="M377.77,1056.35c11.59,9.81-60.92,39.25-107,44.6"/>
        <path d="M479,1093.33c-14.33-13.65-28.28-22.4-41.42-20.93"/>
        <path d="M91.42,1177.67a325.87,325.87,0,0,1,129.35-29.44"/>
        <path d="M255.56,1212.46c-57.62,4.64-110.26,14.62-153.44,34.79"/>
        <path d="M274.29,1186.59c56.24-6.49,124.89-26.77,59.77-31.23"/>
        <path d="M335.84,1116.11c-49.06,21.41,117.75,40.15,101.7,12.49"/>
        <path d="M426.83,1161.61c-40.14,8.92,26.76,29.44,40.14,50"/>
        <path d="M350.11,1194.61c-96.34,26.77,171.28,63.34,59.77,4.46"/>
        <path d="M329.6,1246.35c54.74,12.49-37.47,25-79.4,24.09"/>
        <path d="M450,1252.6c-53.52,3.57,2.68,12.49,31.05,50.38"/>
        <path d="M457.16,1328.42c-26.49-40.59-84.74-40.14-147.19-33"/>
        <path d="M87.85,1388.19c59.77,4.46,128.46-31.22,213.2-33"/>
        <path d="M470.54,1387.3c-14.23-6.7-28-11.47-41-13.38"/>
        <path d="M504.2,715.15c14.68,32.33,24.08,67.74,12.45,115.5"/>
        <path d="M538,768.85c7.64,26.52,12.35,52,12,75.61"/>
        <path d="M605.19,903c-5.12,23.16-15.09,41.95-36.56,50.36"/>
        <path d="M640.93,925.69c-33.22,32.77-32.33,21.21-5.95-23.47"/>
        <path d="M673.08,925.6c.56,13.83,6.54,27.34,15,40.71"/>
        <path d="M627.93,959.81c14.62-3.25,22.75-33.3,34.93-1.62"/>
        <path d="M876.5,1016.67c-25.78,14.82-55.12,22.48-89.35,20.31"/>
        <path d="M581.52,641.19c19,12.62,52.28,20.67,10.94,22.82"/>
        <path d="M658.5,688.17c-14-8-33.29-8-38.66,0"/>
        <path d="M556.3,680.7c22.07-6.43,58.71,30,68.37,50.42"/>
        <path d="M587.07,757.61c-6,8.46-8.67,17.41-5.35,27.21"/>
        <path d="M620.51,735.67c-22.37,30.53-15.81,61.41,19.2,92.64"/>
        <path d="M637,787.5c10.12,25.28,30.92,43.51,59.06,56.92"/>
        <path d="M680.56,703.24c54.72-2.72,90.09,161.58,37,65.61"/>
        <path d="M726.11,688.26c55.88,99.24,74.67,64.88,24.74-3.11"/>
        <path d="M798.75,895.87c15.69,39.8,33,74.69,52.61,102.65"/>
        <path d="M857.44,937.25c20,28.76,41.57,52.64,64.74,71.28"/>
        <path d="M749.64,1233a105.9,105.9,0,0,0,43.09,4.45"/>
        <path d="M747.12,1294.36c23.28,11.2,55.56,16.26,92.26,18.31"/>
        <path d="M848.41,1196.06c41.38,29.34,205.39,26.33,247.52,9"/>
        <path d="M1078.63,1291.61c-45.15,1.5-127.15,15.8-165.52,2.25"/>
        <path d="M1222.08,1238.88c-7.58,6.06-21,9.52-38.13,11.35"/>
        <path d="M1228.8,1292.68c-3.51,8.18-22.56,12-45.6,14.73"/>
        <path d="M837.12,673.93c3.76-27.83,64.39-.64,126.4.76,65.08,1.46,130.15-33.86,127.9,6.77"/>
        <path d="M864.21,722.08c30.06,12,52.93,29.66,67,54.17"/>
        <path d="M1079.38,728.1c-27.84,3-75.24,30.1-91.79,55.68"/>
        <path d="M1269,845.47c-6-33-17-33.91-15.56-19.15,1.26,13.13,7.28,31.18-.58,70.65,8.76-4,15.81-14.13,21.4-29.68"/>
        <path d="M1293,966.59c18.67,70.21,26.57,139.44,15,206.9"/>
        <path d="M1225.94,1173.49c6.71,24.2,19.81,38.18,37.59,44.65"/>
        <path d="M1372.38,1159.12c16.21,39.2-12.38,94.12-26.67,94.12-6.53-4.7,13.54-19.56,24.07-54.2"/>
        <path d="M1373.61,1143.59c10.85,6,18,22.24,14.42,33"/>
        <path d="M1368.33,1119.72c44.45,8.16,52.17,41.87,36.77,92.26"/>
        <path d="M1358.29,1102.59c37.08-2.65,61.33,12.18,69.84,48.41"/>
        <path d="M1424.16,1170.2c6.22,14.15,4.3,29.58-3.7,46"/>
    </g>
    <g class="skinEastAsian">
        <path d="M966.31,1125.11c5.65-25.56,11.65-71.7,11.69-92.21,39.1,0,36.58-20.46,109.43-15.35,11.73.83,23.43,1.71,40.9-.42,9.05.79,9.8,20-9.37,26,27.82,9.22,58.37,23,78.82,40.47,9.1,6.56,18.32,25.56,3.4,29.82,10.21,10.91,14.06,29.4-.42,36.64,4.54,10.52,1.7,26-22.73,23.44,4.41,14.06-5.82,24.28-32.23,22.43C990.29,1189.25,1005.2,1147.5,966.31,1125.11Z"/>
        <path d="M1542.61,1156.75c-4.66-15.57-17.48-21.93-21.59-29.81-11.32-21.69-26-49.13-67.19-50.92,23.47,14.32,32.26,50.46,7,76.27-3.8,29.29-17.72,50.19-40.35,63.89a91.76,91.76,0,0,1-14.87,20c6.7,13.38,22.17,11.7,32.51,3.79-1,20.22,32.21,20.56,44.89-5.83,13,12.68,35.63-8.56,48-24C1544.66,1190,1554.26,1178.68,1542.61,1156.75Z"/>
    </g>
    <g class="skinOverlapLine">
        <path d="M1145.8,1090.41a159,159,0,0,1,55.38,23"/>
        <path d="M1141.11,1129.18c25.56,8.09,46.87,7.67,59.65,20.87"/>
        <path d="M1127.91,1164.11c16.18,6.82,34.93,7.25,50.12,9.38"/>
        <path d="M1119,1043.12c-7.24-2.13-15.41-4.47-20.45-8.95"/>
        <path d="M586.11,443.81c-11.22,10.68-20.89,20.76-29.21,28.62"/>
        <path d="M533.86,523.54c18.25-17.67,24.1-8.09,39.11-33.35,16.23-7.23,29.94,35.73-8.69,59.87-13.65,11.55-22.28,26.38-29,42.49"/>
        <path d="M636.24,449.09c-20.59,12.63-37,35.88-47.54,54.92"/>
        <path d="M648.68,483.07c-25.39,4.31-21.72-7-46.81,0"/>
        <path d="M647.24,524.73C621.76,521,633.37,510.29,608,508.46c1.47,12.71-1.59,25.13-13.44,37"/>
        <path d="M1454.64,1176.55c11.21,13.44,60.21,14.81,73.92-3.06"/>
        <path d="M1438.1,1240a33,33,0,0,1,21.24-28.44c1.37-8.22,6.51-20.56,12.32-26.66"/>
        <path d="M1483,1234.19c-9.26-7.88-1.14-30.35,17.81-36.66-1.12-3.9,1.11-8,3.82-12.09"/>
        <path d="M790.84,470.24c-6.11,35,26.55,20.25,31.61-4.92,3.87-19.22,13.41-29.06,15.6-45.63"/>
    </g>
    <g class="skinFoldLine">
        <path d="M608,508.46c-4,.07-8.19-2.88-10.22-6.63"/>
        <path d="M1485.34,1130.1c-4.49,5.18-9.25,7.87-14.75,8.79"/>
        <path d="M216.68,315.83c-20.33-61.65-88-6.84-48.2,45.35"/>
        <path d="M209.16,337.63c-16.94,11.35,11.09,26.25,0,32.87-6.83,4.08-2.6-6.65-23.41-15.12-24.24-9.86-.1-45.11,10-31.62"/>
        <path d="M806,380.11c14.78-34.36,12,56-9,82.75"/>
        <path d="M815.8,390c-4.77-2.47-9.39,4.91-10.53,11.46"/>
        <path d="M807.61,408.15c7.19,9.32-10.85,31.29-1.78,37.45"/>
    </g>
    <g class="skinCreaseLine">
        <path d="M549.23,626.47c6.85-19.71,5.29-44.59-1.22-58.11"/>
        <path d="M577.16,589.45c-7.71-8.22-16.11-22.1-18.63-34"/>
    </g>
    <path class="skinEdgeLine" d="M1132.17,1072.94c-6.4,19.17,12.35,26-2.13,43.88-12.35,15.25,2.55,23-11.51,33.66-10.87,8.24-3.41,14.49-10.65,20"/>
</svg>
