<svg viewBox="0 0 238.77 452.7">
  <path class="braceletDark" d="M213.54,190.59c-.36-5.81,5.64-3.09,10.1-2.69,4.87.45,9.43-3.1,10,2.79.64-6.5-6-3.16-9.71-3.47C219.24,186.83,212.74,183.73,213.54,190.59Z"/>
  <path class="braceletMedium" d="M233.59,190.69c.09,12.52-19.36,14.52-20.05-.1C215.72,204,232.6,201.24,233.59,190.69Z"/>
  <g class="soleWhite">
    <path d="M197.55,442.36a8,8,0,0,1-.41,6.6c-3.14,2-22.12,2-26.87-.26-2-1-2.79-2.52-4.71-3.36-2.68-1.17-5.31-2.61-6.67-4.3-2.26-7.48,4.09-11.65,7.43-12.74Z"/>
    <path d="M105.37,441.79a9.07,9.07,0,0,0,.36,6.6c2.68,2.5,19.44,3.08,23.62.81,1.77-1,2.45-2.51,4.13-3.35a18.29,18.29,0,0,0,5.87-5.38,11.1,11.1,0,0,0-6.53-13.21Z"/>
    <path d="M1,430.19a13.62,13.62,0,0,0,.68,6.55c1.3,2,10.82,5.55,21.2,3.53,9.22-1.37,24.53.2,29-3.46.78-11.39-7-10.8-10.46-13Z"/>
    <path d="M83.58,437.53c7.54.88,15.15,2.94,13.55,12.65-10,4.14-20.54,1.41-31.47,1.13-10.46-.28-25.54,1.44-29-2.8a12.66,12.66,0,0,1,.59-6.48Z"/>
  </g>
  <g class="bennettShoe">
    <path d="M192.93,413.58c-.78,10.49,5.42,21,4.62,28.78-3.84,3.41-21.34,1.95-24,1.26-3.12-.8-3.41-1.95-6.25-3.3-2.63-1.26-4-1.91-4.63-2.51-.43-2.9,2.1-6.75,3.65-9.51,3.58-4.41,4.57-7.77,5.25-15.84Z"/>
    <path d="M109.43,413c.68,10.49-4.77,21-4.06,28.79,3.21,4.06,18.76,3,21.1,2.34,2.74-.8,3-1.95,5.49-3.3a17.27,17.27,0,0,0,4.22-3c.38-2.9-2-7.82-3.36-10.59-3.14-4.4-4-7.3-4.62-15.37Z"/>
    <path d="M7.58,404.75C5.57,414.08,0,421.4,1,430.19c3.57,4.09,12.66,5.91,20.61,5.08,9.05-.94,15.4-.42,22.26-2.32a12,12,0,0,0-2.47-9.13c-3.86-2.58-12.55-7.58-14.71-19.38Z"/>
    <path d="M62.41,408.93c.22,7.35,1.23,13.91,6.36,18.21,5.44,4.56,10.16,9.49,14.81,10.39a14,14,0,0,0-1.71,9c-15.34-2-36.55,1.34-44.64-4.48.63-8.37,3.63-14.12,4.36-28.91C47.37,407.58,57.3,408.22,62.41,408.93Z"/>
  </g>
  <path class="shoelace" d="M75.12,436.72a11.35,11.35,0,0,1,2.28-2.3c-2.72-2-5.56-4.71-8.63-7.28a20,20,0,0,1-4.12-4.74A20.49,20.49,0,0,0,62,424C64.48,428.28,69.65,432.67,75.12,436.72Z"/>
  <g class="converseLogo">
    <path d="M172.22,436.47c3.46.81,3.82-10.94.31-11.51C169.39,424.46,168.92,435.69,172.22,436.47Z"/>
    <path d="M127.87,436.2c-2.67.81-2.94-10.93-.24-11.5C130.06,424.19,130.43,435.42,127.87,436.2Z"/>
    <path d="M24.68,428.56c6.16.18,6-11.46-.45-11.49C18.1,417,17.71,428.37,24.68,428.56Z"/>
  </g>
  <g class="skinEastAsian">
    <path d="M109.85,91.31c1.5-1,5,1.17,11.76-2.39l-2.41-19.4c-12.57,2.75-13.53,8.38-19.57,15.7C101.76,85.67,108,89.4,109.85,91.31Z"/>
    <path d="M121.39,61.58c-2,7-5.73,19.43,3.3,33,3.89,5.85,10.3,10.81,23.71,9.19,14.35-1.74,21.82-16,30.91-22.12C155.92,49.16,128.23,21.51,121.39,61.58Z"/>
    <path d="M133.93,86.92c2.38,1.19,1.19,6.11,0,11.89l34.48,2.55c-1.67-14.71,8.8-14.17,12.23-22.94"/>
  </g>
  <g class="bennettJeans">
    <path d="M192.32,222.25c4.16,9.35,5.06,20.43,2.52,33.33-.72,3.25,1.44,7.24-.36,8.86-.9,18-5.4,43.94-7.2,61.06-.35,3.27,4.68,5.05.54,8.83-.54,2.16,4.86,3.24.36,7.75,3.73,14.33,4.67,28.65,4.84,47.57,0,6,6.69,13.52-.34,19.28,10.45,2.88-2.16,14.78-16.22,8.65-2.15-.94-10.09,0-8.29-8.47-4.93-4.07,1.54-8.4-2-21.62-3.37-12.69-4.86-25.59-6.67-43.61-.25-2.51-3.42-4.5.37-9.19-4.15-4.14-1.63-6.67-2.35-12.07-2.07-15.54-3.74-35.89-5.22-56.4-1.11,18.29-4.85,42.6-6.85,55.5-1,6.35,1.54,10.24-2.16,12.79,3.24,3.42-1.26,4-1.8,11a172.83,172.83,0,0,1-5.95,43.25c-4,15,3.24,16.22-1.26,22.34,4.38,10-14.91,12.66-25.24,9.24-4-1.31-.89-6.89-1.25-10.32-4.42-5.2.23-10.09.72-19.64.89-17.21,2.47-33.46,5.59-48.11,0-1.44-3.07-3.61,1.26-8.47-3.75-2.69.05-5.38-.18-9.73-2-36.76-12.8-74.24-3.61-101.81Z"/>
    <path d="M73.37,217.06c2,9.84,3.3,21.49,2.62,32.23-.16,2.53,1.94,7.07-.43,10.1,0,19.3-2.83,39.89-6.66,59.14-.45,2.26,2.29,7.24-1.08,9.88,4.24,5.68-.23,8.58-.21,13.33C66,357.21,65.15,371.1,64,390c-.37,5.88,5.63,14.17-.43,17.41,2.2,2.21-1.2,4.15-2.26,5.69-.48-2.31-3.09-.61-2.16,3.34-2.59,3.11-11.83-.5-18,2.91a10.82,10.82,0,0,1-4-12c.57-2.13-5-5.3-2.8-13-1,2.29-1.83,5.57-4.15,6.1,1.42,3.24-2.38,5.71-3.15,7.57-6.39-2.48-21.53,4.16-22.88-5.42-2-2.25-1.43-8,2.08-9.72-2.95-6.5,5.29-15.76,9.13-28.11,4-12.84,8.09-23.39,14.42-33.56-1.14-1.45.36-4.15,2-5.19,1-4.36-1.24-13.68-2.18-21.46-7-15.56-13.24-32.3-18.2-42.33-3.53-2-1.61-4.16-2.39-5.5-6.95-11.94-6.13-26.86-2.3-41.3C30.77,206.77,53.16,206.5,73.37,217.06Z"/>
  </g>
  <path class="hairBlack" d="M114.63,60.36A9.84,9.84,0,0,0,120.19,55c2.71,4.81-.42,13.73,2.15,17.13.13-3.62,1.92-8.54,1.4-12.77,1.5-6.84,9.41-6,6,6.56C138.2,80.13,153,77.42,160.24,86c5.93-4.46,19.78.44,28.82-12,13.88-19.18,11.08-47.27-8.08-56.72.51-1.5,5.1-3.25,11.1-.81-3.52-3.31-9.59-4.59-13.94-1-1.5-4.92-4.81-7.5-10-8.11,3.6,1.79,5.21,3.4,6.43,7.23-17.31-7.35-43.41-5.9-51.78,10.84C113.12,44.72,120.75,50.68,114.63,60.36Z"/>
  <path class="bennettHoodieInner" d="M131.84,96.87c8-8.54,29.89-8.64,39.74,1.21Z"/>
  <g class="bennettHoodie">
    <path d="M178.59,103.46c8.33,7.28,18.68,8.32,20.76,19.33,0,3.1,2.59,4.1,2.2,10-.34,5,2.54,13.78,3.88,20.46,1.2,6,1.17,12.56,3.5,17.61,1.47-2,4-3,7.38-3.24,8.16-4.92,14.89,5.18,8.8,11.39a12.78,12.78,0,0,1-6.21,9.85c-2.3,4.28-7.33,7.3-11.78,9.32-6.87,3.11-14,.57-17.61-10,.21,1.91-.19,3.29-1.17,4.14a9.67,9.67,0,0,1,1,8.29,12.88,12.88,0,0,1,1,12.17c1.56,4.92,4,10.23,3.06,11.14-13.42,2.84-26.65.16-40.48.26-14.11.09-29.52,2.58-42.6.25-.65-1.16,1.91-7.66,2.2-11.78-2.25-4.26-.35-8.08,2.59-11.78a9.72,9.72,0,0,1,.39-9.45c-2.2-2.85.63-4.82-.13-7.64-4.4-16.45-1.43-41.83-3.89-45.2-1.68-2.59-4.53.65-16.83,3.24L77.5,115.15a78.86,78.86,0,0,0,8.29-8.81c-.65-3,2.33-5,3.88-6.08a2.67,2.67,0,0,1,2.72-3.89c4.79-5.7,4.89-9.51,6.58-11.12,1-.9,11.93,5.79,11.42,7-.63,1.48-5.44,5.88-6.86,10.6,2.59,4.53-1.43,5.18-2.34,9.06,5.44-1.17,5.57-7.77,10.75-4.4,1.56-7.51,7.77-5.18,9.45-6.35Z"/>
    <path d="M119.92,101.55c6.17-10.47,19.28-3.52,29.58-4.88,16.58-2.18,31.2.91,30.8,8.18-9.1,9.83-16.25,22.89-32.51,22.43C133.2,126.87,127.61,110.13,119.92,101.55Z"/>
  </g>
  <path class="shirtWhite" d="M73.77,212.13C62.53,203.82,5.94,209.32,5.51,217c17,14.91,42.87-15.87,68.8,3C73,216.13,76.1,214.58,73.77,212.13Z"/>
  <g class="eye">
    <circle class="sclera" cx="70.62" cy="53.04" r="14.08"/>
    <g class="irisDarkBrown">
      <ellipse cx="67.93" cy="49.96" rx="3.47" ry="2.68" transform="translate(13 113.94) rotate(-85.69)"/>
      <ellipse cx="82.19" cy="55.41" rx="3.47" ry="1.82" transform="translate(20.75 133.2) rotate(-85.69)"/>
    </g>
    <g class="pupil">
      <ellipse cx="68.43" cy="50" rx="1.35" ry="1.04" transform="translate(13.43 114.48) rotate(-85.69)"/>
      <ellipse cx="82.68" cy="55.45" rx="1.35" ry="0.71" transform="matrix(0.08, -1, 1, 0.08, 21.17, 133.73)"/>
    </g>
  </g>
  <g class="skinEastAsian">
    <path d="M95.6,84.29c1.5,2.89,6,3.57,5.68.06-.62-.4-.65-1.48-1.49-2,3.6.64,4.5-2.73,2.91-3.65C101.5,78,102,77.55,100,75.9c3.4-.75,4.15-4.69,2.14-5.44-1.27-.13-2.92.53-4.06.21,5.14-4.2,2.92-10.37-.63-8.42-2.28,4.32-4.26,4.22-7.09,7.6-5.91.88-5.42,2.07-7.59,6.72-3,3.3-7.26,4.42-10,9.11-1.66,2.8-1,6.43-2.34,10.12a6.32,6.32,0,0,1-1.84,2.06l7.76,11.85a40.76,40.76,0,0,1,4.28-5.07C82.45,102.37,92.89,102.28,95.6,84.29Z"/>
    <path d="M23.82,60c3.36,7.17,2.6,22.21-.21,30.31L55,95.7c.29-8.35,7.72-33.49,13.53-36.55"/>
    <path d="M33.81,62.46c-3.84,4.48-7-.3-7.85-1.23-30.87-20,32.79-69.66,58.12-37.77-2,12.27,6.78,26.21,2.2,29.71-1.81,1.38.43,2.36-2.09,4a1.46,1.46,0,0,1,.18,2.07c2.15,7,.41,17.37-6.09,24.72-4.68,5.29-3.64,8.89-10.74,9.23-7.34,0-10.38-3.83-18-7.81A27.72,27.72,0,0,1,38.07,75m33.11-23.1c-.1-1.23-.29-3.15-1.79-3.64-1.78-.58-5.71-.9-8.23.37,2.26,1.21,3.2,1.84,4.76,2.59a7.67,7.67,0,0,0,4.25,1C70.54,52.2,71.25,52.77,71.18,51.89Zm11,1.17a2.76,2.76,0,0,0-3.54,1.11,4.44,4.44,0,0,0,4.94,3A3.67,3.67,0,0,0,84.23,55,3.56,3.56,0,0,0,82.16,53.06Z"/>
  </g>
  <path class="lipMaleMedium__noStroke" d="M77.66,74c1.28-2.42-.23-2.13-2-2.43-1.28-.21-1.68-1.07-3.12-.76-2,1-3.42,3.72-6.94,5.81,1.71.14,2.41,6.24,8.56,5.45,2.34-1,2.14-2.69.38-4.14C75.55,75.33,76.75,75.42,77.66,74Z"/>
  <path class="mouthInner" d="M74.55,78a5.44,5.44,0,0,0,.52-3.47,3.53,3.53,0,0,1-2.24-1c-.41-.48-5.52,2.2-7.22,3.21A21.47,21.47,0,0,1,74.55,78Z"/>
  <path class="teeth" d="M72.83,73.43c-.24-.28-2.13.54-4,1.46,1.79,1,4.1,2.06,4.78,2a6.07,6.07,0,0,0,1.23-2.44A3.33,3.33,0,0,1,72.83,73.43Z"/>
  <g class="lipOverlapLine">
    <path d="M64.16,76.86a6.61,6.61,0,0,0,1.45-.22"/>
    <path d="M75.07,74.48a1.78,1.78,0,0,0,1.36-.34"/>
    <path d="M74.55,78A2.38,2.38,0,0,1,76,80.16"/>
  </g>
  <g class="lipEdgeLine">
    <path d="M77.66,74c1.28-2.42-.23-2.13-2-2.43-1.28-.21-1.68-1.07-3.12-.76"/>
    <path d="M74.56,81.8c-2.65,1.22-6-1.36-6.6-2.35"/>
  </g>
  <path class="cheekLine" d="M70.55,62.81c-1.47.53-1.91,1.79-4.23,4.09-1.83,1.81-2.66,2.7-3.15,4.18"/>
  <g class="noseLine">
    <path d="M78.62,54.17c.18,7.53,7.14,12.73-.77,14.51"/>
    <path d="M70.55,62.81a2.51,2.51,0,0,0-.36,4.31"/>
    <path d="M71.66,67.19c2.27-1.26,5-.87,4.31.39"/>
  </g>
  <g class="eyeFoldLine">
    <path d="M83.4,59.21c-1.17.24-3.31-.78-4.34-1.9"/>
    <path d="M69.42,53.8a6.58,6.58,0,0,1-6.14-1.62"/>
  </g>
  <g class="eyeCornerLine">
    <path d="M59.63,49.1a13.32,13.32,0,0,1,1.53-.48"/>
    <path d="M84.23,55a6.35,6.35,0,0,1,.47,1.2"/>
  </g>
  <path class="eyeCreaseLine" d="M60.84,47.2c3.08-1.24,8-1.45,10.08.56"/>
  <g class="eyebrowBlack">
    <path d="M76.07,42.64c-3.87,4-10.47-3.62-15.9-.36C64.88,36.77,70.21,42.46,76.07,42.64Z"/>
    <path d="M82.45,45c-.5,3.48,2.24,4.23,4.79,6.88A5.33,5.33,0,0,0,87.62,50C85.79,47.73,83.72,47.67,82.45,45Z"/>
  </g>
  <path class="hairBlack" d="M70.46,20.61c-.71,6.27-.15,10.07,1.28,12.89a12.87,12.87,0,0,1,.91-5.11C73.23,37.48,82,38,83.54,43a9,9,0,0,0-1.08-4.67c2.4,3.92,6.41,5.56,6.64,10.33C92,41.7,94,31.37,87.73,24.36c.92.07,2,1.91,4.91,2.89-7.28-7-6.11-15.56-29.46-22-7-1.92-26-1.61-33.94,4.91-.3-3.41,1.56-6.95,5.69-9.52-5.64,1.5-9.37,5.82-9,10.71-1.84-3.69-7.09-1.81-8.12,1.21,2.85-1.93,5-1.53,6.16,1.11C14.91,22,7.92,47.49,22.86,61.21a5.45,5.45,0,0,0,3.1,0c-3.82-5-6-6.43-5.14-13.12s10.8-8.32,12.47-1C35.37,47.07,39,47,41.46,47c.46-5.31-.39-6.09,4.56-10.55,5.21-.83,13,.21,16-5.43-.33,2-2,3.29-1.9,5.29C61.92,33.09,68.26,33.06,70.46,20.61Z"/>
  <path class="hairOverlapLine" d="M46,36.42c-1.69,0-3.67.28-5.14.36,1.47-1,3.61-2,4.25-2.77"/>
  <path class="bennettJacketCollar" d="M17.33,99.63c3.21-4.08,4.11-10.08,6.38-10.78,9.69-3,23-3.3,31,1.59Z"/>
  <path class="bennettJacket" d="M75,153.4a86.9,86.9,0,0,0,13.61,10.94c9,5.43,26.5,9.69,39.08,11.08,7.42.81,12.66,3.57,20.28,2.13,1.12.15,3.65-18.39,2.54-18.54a55.15,55.15,0,0,0-14.81-2.94c-6.8-.13-19.48-7.47-31.88-12-.4-4.14-4.14-.67-5.87-3.61-2.35-4.49-9.08-12.54-15-20.54-1.15-3.37-2.17-6.26-5.2-8.27-7.36-17-17.05-23.5-28.3-20.51-14.19.43-23.52,4.37-32.13,8.49-15.93,8-19.92,35.6-15.25,71.08.77,5.82-1.8,11.1-.13,14.89,1.44,3.25-1.32,6.54.21,8.93,1.84,2.88-.4,5.33.75,9.15,2,6.74-1.08,13,2.6,13.31.43-7.67,57-13.17,68.26-4.86-2.81-5.94,3.45-5.4.43-9.93-1.84-7.56,3.18-11.93-.74-18.67-1.87-3.22,3.76-7.9.41-13.63C75.86,166.59,74,160.51,75,153.4Z"/>
  <g class="clothesDisplayLine">
    <path d="M152.55,230.47c.27,7.65,0,21.57-.82,27.17"/>
    <path d="M14.16,221c-1.83,9.75-1.69,19.39,2.77,27.8"/>
    <path d="M162.67,437.81c-1.1-.6-3-1.53-3.64-3.06"/>
    <path d="M136.18,437.85a8.28,8.28,0,0,0,3-3.67"/>
    <path d="M81.87,446.51A34.68,34.68,0,0,0,97,444.57"/>
  </g>
  <g class="clothesOverlapLine">
    <path d="M123.47,265.69c15.43,5.46,23.79-.61,28.85.53,19.47,4.38,26.84-3.12,27.8-1.08,1.1,1.76-2.83,3.06-12.42,3.82"/>
    <path d="M24.74,258.46c-1.52,1.51-1,3.24.71,4.8-1.26,5.22,2.38,20.62,4.14,41.27"/>
    <path d="M31.77,326c-.75,2.76,2.54,4.3,1.74,6-2.35,5,.28,6.56,0,8.87-3.22,27.42,3.12,42.16.79,53.47"/>
    <path d="M18.59,257.19c10,3.9,20.57-2.62,21.15,2.14.39,3.22-5.07,1.17-9.84.69"/>
    <path d="M50.61,125.43c8.86,8.21,15.29,19.31,24.35,28"/>
    <path d="M92.39,96.37a51,51,0,0,1,11.14,6.48"/>
    <path d="M101.19,111.91c-1.81.89-4.64,1.44-5.51,2.9-2.39-.26-4,1-5.15,3.38a17,17,0,0,0-6.11,3.69"/>
    <path d="M208.93,170.83c3.42,4.16,4.06,9.22-.38,15.91"/>
    <path d="M193.08,139.65c-.11,22.6-6.07,42.42-3.57,48.53"/>
    <path d="M190.41,212.78c-11.95,2.56-25.94,1.9-39.07,1.87-12.81,0-26,2.38-38.75-2"/>
    <path d="M216.31,167.59c5,.53,9.07,5.39,8.8,11.39"/>
    <path d="M62,424c-2.33-4.43-1.23-4.86-2.89-7.55"/>
    <path d="M64.06,426.89A15.72,15.72,0,0,1,66.6,425"/>
    <path d="M66.3,429.34a20.44,20.44,0,0,1,2.47-2.2"/>
    <path d="M68.35,431.28a13.88,13.88,0,0,1,2.47-2.38"/>
    <path d="M70.49,433.12a8.79,8.79,0,0,1,2.44-2.38"/>
    <path d="M72.77,434.94a8.42,8.42,0,0,1,2.3-2.36"/>
  </g>
  <g class="clothesFoldLine">
    <path d="M146.3,268.25A26.12,26.12,0,0,1,132,271.42"/>
    <path d="M148.24,270.8c-4.27,8-8.09,16-11.53,24"/>
    <path d="M142.52,289.47a81.33,81.33,0,0,0-6.87,19.28"/>
    <path d="M156.69,271.33c-.89,1.83,2.91,10.48,6.34,16.29"/>
    <path d="M164.09,271c-6.16-1.59-3.08,5.37,3.26,10.21"/>
    <path d="M163.17,325c4.52,6,10.3,8.41,17.23,7.59"/>
    <path d="M187.82,334.33c-5,3.26-11.84,1.68-12,3.37-.18,1.89,6.42,2.06,10.64.87"/>
    <path d="M159.89,334.69c3.39,3.23,8.15,1.15,8.48,2.47.27,1-2.92,2.06-6.17,1.84"/>
    <path d="M164.26,340.84c13,.43,20.36,1.73,5.85,4.54"/>
    <path d="M185.38,345.07c-4.77.43-10,2.23-14.95,3.68"/>
    <path d="M141.29,326.54c-.52,3.61-4,5.88-12.46,5.85"/>
    <path d="M143.31,334.51c-1.48.7-3.81.78-3,1.67"/>
    <path d="M115.38,333.79c10.74,3.69,21.59,1.7,20.71,3.48-1,2-7.28,1.91-17.12.43"/>
    <path d="M136.74,341.27c-8.13,1.85-18-2.11-18.31-.43-.39,2.11,4.91,2.78,10.07,3.36"/>
    <path d="M126.66,346.91a13,13,0,0,0-9.53,2.6"/>
    <path d="M130.45,398.69c-1.36,5.08-3.7,9-7.8,10.84"/>
    <path d="M117,409.74a12,12,0,0,1-8.34-9.42"/>
    <path d="M134.3,411.09c-3.85,2.77-17.72,3.34-8,4.61"/>
    <path d="M107.81,410c4.67,3.22,17.84,6.56,2.28,5.37"/>
    <path d="M191.23,395.23c.65,10.94-16.68,15.27-20.15.65"/>
    <path d="M192.68,408.93c-4.48,2.55-7.41,3.59.61,3.63"/>
    <path d="M168.17,409.11c6.7,5.18,16.56,4.21,10.49,6.7"/>
    <path d="M194.48,264.44a5.89,5.89,0,0,1-4.6,2.36"/>
    <path d="M11.39,262.2a5.59,5.59,0,0,1,3.54,1.91"/>
    <path d="M25.45,263.26a6.68,6.68,0,0,1,2.14,3"/>
    <path d="M67.82,328.41c-2.16.61-4.68,1.1-2.17,3.17"/>
    <path d="M65.19,322.05c-5.44,3.71-15.25.35-21.87-1.86"/>
    <path d="M63.79,337c-4.53,1.16-12.34-5.58-22.45,1.39"/>
    <path d="M36,326.47c11.38-.93,20.83,3.38,4.56,5.8"/>
    <path d="M38.32,394.56c1.35,4.49,3.34,8.11,6.51,10.11"/>
    <path d="M63.44,399.67c-.26,3.56-2.88,6.31-9.52,7.67"/>
    <path d="M25,395.29c-5.16-.23-11.44-1.14-12.84-3.83"/>
    <path d="M6.2,392.85A6.65,6.65,0,0,0,8.32,396"/>
    <path d="M30.15,400.42c-4.45,0-13.32.91-16.34-1.65"/>
    <path d="M4.12,402.57c3.57,1.9,9,2.28,13.06,2.13"/>
    <path d="M58.42,410.82c-1.91.7-7.57,2.22-15.22-1.74"/>
    <path d="M36.7,411.78c1.39,3,10.57,0,7.43,3.11"/>
    <path d="M49.46,91.14c-2.58,1.61-1.75,3.12-4.5,4.5"/>
    <path d="M27.78,128.2c-6.73,2.4-13,4.27-17.59,4.26"/>
    <path d="M21.87,133.56c-5.19,1.69-10,2.69-14.15,2.34"/>
    <path d="M57.32,93.85c-24.73,5.77-4.94,37.79-10.16,13.06"/>
    <path d="M43.31,118.72c2.94,3,6.46,3.3,11,6.46"/>
    <path d="M58.15,139.2c-7.16,11.21-14.56,20.1-22.4,24.59"/>
    <path d="M59.93,149.09c-8.12,9.68-17.07,17.42-27.34,22.12"/>
    <path d="M58.29,164.21c1.78,1.51-9.39,6-16.49,6.87"/>
    <path d="M73.87,169.9c-2.2-2.1-4.35-3.45-6.38-3.22"/>
    <path d="M14.18,182.89a50.14,50.14,0,0,1,19.92-4.53"/>
    <path d="M39.46,188.25c-8.87.72-17,2.25-23.63,5.36"/>
    <path d="M42.35,184.27c8.66-1,19.23-4.13,9.2-4.81"/>
    <path d="M51.83,173.41c-7.56,3.3,18.14,6.19,15.66,1.93"/>
    <path d="M65.84,180.42C59.66,181.79,70,185,72,188.11"/>
    <path d="M54,185.5c-14.84,4.13,26.38,9.76,9.2.69"/>
    <path d="M50.87,193.47c8.43,1.93-5.78,3.85-12.23,3.71"/>
    <path d="M69.42,194.44c-8.25.54.41,1.92,4.78,7.76"/>
    <path d="M70.52,206.12c-4.09-6.26-13.06-6.19-22.68-5.09"/>
    <path d="M13.63,215.32c9.2.69,19.78-4.81,32.84-5.08"/>
    <path d="M72.58,215.18a23.26,23.26,0,0,0-6.32-2.06"/>
    <path d="M77.76,111.65a25.57,25.57,0,0,1,1.92,17.79"/>
    <path d="M83,119.92a40.34,40.34,0,0,1,1.85,11.65"/>
    <path d="M93.32,140.58c-.79,3.57-2.33,6.46-5.63,7.75"/>
    <path d="M98.82,144.08c-5.11,5-5,3.27-.91-3.62"/>
    <path d="M103.78,144.07a12.91,12.91,0,0,0,2.3,6.27"/>
    <path d="M96.82,149.34c2.25-.51,3.5-5.13,5.38-.25"/>
    <path d="M135.11,158.09a23.79,23.79,0,0,1-13.77,3.13"/>
    <path d="M89.67,100.26c2.93,1.94,8,3.18,1.69,3.51"/>
    <path d="M101.53,107.49c-2.15-1.24-5.13-1.24-6,0"/>
    <path d="M85.79,106.34c3.4-1,9,4.63,10.53,7.77"/>
    <path d="M90.53,118.19a4.46,4.46,0,0,0-.83,4.19"/>
    <path d="M95.68,114.81c-3.45,4.7-2.44,9.46,2.95,14.27"/>
    <path d="M98.22,122.79c1.56,3.9,4.76,6.71,9.1,8.77"/>
    <path d="M104.93,109.81c8.43-.41,13.87,24.89,5.7,10.11"/>
    <path d="M111.94,107.51c8.61,15.28,11.51,10,3.81-.48"/>
    <path d="M123.13,139.49a77.14,77.14,0,0,0,8.11,15.81"/>
    <path d="M132.17,145.86a52.67,52.67,0,0,0,10,11"/>
    <path d="M115.57,191.42a16.4,16.4,0,0,0,6.64.68"/>
    <path d="M115.18,200.87c3.58,1.72,8.56,2.5,14.21,2.82"/>
    <path d="M130.78,185.73c6.38,4.52,31.64,4.05,38.13,1.39"/>
    <path d="M166.24,200.44c-7,.24-19.58,2.44-25.49.35"/>
    <path d="M188.34,192.32c-1.17.94-3.23,1.47-5.87,1.75"/>
    <path d="M189.38,200.61c-.54,1.26-3.48,1.85-7,2.27"/>
    <path d="M129,105.3c.58-4.29,9.92-.1,19.47.12,10,.22,20.05-5.22,19.7,1"/>
    <path d="M133.22,112.72c4.63,1.85,8.15,4.57,10.31,8.34"/>
    <path d="M166.36,113.64c-4.29.47-11.59,4.64-14.14,8.58"/>
    <path d="M195.56,131.72c-.92-5.08-2.61-5.22-2.39-2.95a26.92,26.92,0,0,1-.09,10.88c1.35-.6,2.43-2.17,3.29-4.57"/>
    <path d="M199.27,150.38c2.88,10.81,4.09,21.48,2.32,31.87"/>
    <path d="M188.93,182.25c1,3.73,3.06,5.88,5.8,6.88"/>
    <path d="M211.49,180c2.5,6-1.9,14.49-4.11,14.49-1-.72,2.09-3,3.71-8.35"/>
    <path d="M211.68,177.64a4.84,4.84,0,0,1,2.22,5.08"/>
    <path d="M210.87,174c6.84,1.25,8,6.45,5.66,14.21"/>
    <path d="M209.32,171.33c5.71-.41,9.45,1.87,10.76,7.46"/>
    <path d="M219.47,181.74c1,2.18.66,4.56-.57,7.09"/>
  </g>
  <g class="skinEastAsian">
    <path d="M148.94,174.8a89.34,89.34,0,0,0,1.8-14.21c6,0,5.64-3.15,16.86-2.36a29.15,29.15,0,0,0,6.3-.07c1.39.13,1.51,3.09-1.44,4,4.28,1.42,9,3.54,12.14,6.23,1.4,1,2.82,3.94.52,4.6,1.57,1.68,2.17,4.52-.06,5.64.7,1.62.26,4-3.5,3.61.67,2.16-.9,3.74-5,3.45C152.64,184.68,154.93,178.25,148.94,174.8Z"/>
    <path d="M237.71,179.67c-.71-2.4-2.69-3.38-3.32-4.59-1.75-3.34-4-7.57-10.35-7.84A7.48,7.48,0,0,1,225.11,179a12.78,12.78,0,0,1-6.21,9.85,14.09,14.09,0,0,1-2.29,3.08c1,2.07,3.41,1.81,5,.59-.15,3.11,5,3.16,6.92-.9,2,2,5.49-1.32,7.39-3.69C238,184.79,239.51,183.05,237.71,179.67Z"/>
  </g>
  <g class="skinOverlapLine">
    <path d="M176.59,169.45a24.35,24.35,0,0,1,8.53,3.55"/>
    <path d="M175.87,175.42c3.94,1.25,7.22,1.19,9.19,3.22"/>
    <path d="M173.83,180.81c2.5,1.05,5.39,1.11,7.73,1.44"/>
    <path d="M172.46,162.17a8.46,8.46,0,0,1-3.15-1.38"/>
    <path d="M90.38,69.85c-1.73,1.65-3.22,3.2-4.5,4.41"/>
    <path d="M82.33,82.13c2.81-2.72,3.71-1.24,6-5.13,2.5-1.12,4.62,5.5-1.33,9.22a16.5,16.5,0,0,0-4.47,6.54"/>
    <path d="M98.1,70.67c-3.17,1.94-5.7,5.52-7.32,8.46"/>
    <path d="M100,75.9c-3.91.66-3.35-1.08-7.21,0"/>
    <path d="M99.79,82.32c-3.92-.58-2.13-2.23-6-2.51a6.53,6.53,0,0,1-2.07,5.7"/>
    <path d="M224.16,182.72c1.73,2.07,9.28,2.28,11.39-.47"/>
    <path d="M221.61,192.5a5.1,5.1,0,0,1,3.28-4.38,9.08,9.08,0,0,1,1.9-4.11"/>
    <path d="M228.53,191.6c-1.43-1.21-.18-4.68,2.74-5.65a2.38,2.38,0,0,1,.59-1.86"/>
    <path d="M122.6,73.57c-.92,5.28,4,3.06,4.77-.74.58-2.9,2-4.39,2.36-6.89"/>
  </g>
  <g class="skinFoldLine">
    <path d="M93.75,79.81a1.88,1.88,0,0,1-1.57-1"/>
    <path d="M228.89,175.57a3.74,3.74,0,0,1-2.27,1.35"/>
    <path d="M31.78,48.91c-3.13-9.5-13.56-1.06-7.43,7"/>
    <path d="M30.62,52.26c-2.61,1.75,1.71,4.05,0,5.07-1.05.63-.4-1-3.6-2.33-3.74-1.52,0-7,1.54-4.87"/>
    <path d="M124.89,60c2.23-5.19,1.82,8.45-1.35,12.49"/>
    <path d="M126.37,61.46c-.72-.37-1.42.74-1.59,1.73"/>
    <path d="M125.13,64.2c1.09,1.41-1.64,4.72-.27,5.65"/>
  </g>
  <g class="skinCreaseLine">
    <path d="M84.7,98A13.22,13.22,0,0,0,84.51,89"/>
    <path d="M89,92.29A12.41,12.41,0,0,1,86.13,87"/>
  </g>
  <path class="skinEdgeLine" d="M174.49,166.76c-1,3,1.9,4-.33,6.76-1.9,2.35.4,3.54-1.77,5.19-1.67,1.26-.52,2.23-1.64,3.08"/>
</svg>
