<svg id="presence" xmlns="http://www.w3.org/2000/svg" viewBox="0 0 2225.07 2598.17">
  <defs>
    <style>
      .cls-1 {
        fill: #c4ac40;
      }

      .cls-1, .cls-2, .cls-3, .cls-4 {
        stroke: #000;
        stroke-width: 2px;
      }

      .cls-1, .cls-2, .cls-3 {
        stroke-linecap: round;
        stroke-linejoin: round;
      }

      .cls-2 {
        fill: #b39c3a;
      }

      .cls-3 {
        fill: #d6bb45;
      }

      .cls-4 {
        fill: none;
        stroke-miterlimit: 10;
      }
    </style>
  </defs>
  <title>horsing</title>
  <path id="braceletMedium" class="cls-1" d="M1282.05,1119.1c12-31.3-76.53-83.28-66-132.69-16.52,46.71,66.8,93.94,46.53,139.43Z"/>
  <path id="braceletDark" class="cls-2" d="M1216,965.77c13.15,23.75,12.06,46.53,13.15,69.88-4.37-21-8.7-45.58-13.15-49.24Z"/>
  <path id="braceletLight" class="cls-3" d="M1229.17,1035.65c0,39.78,6.59,71.78,33.38,90.19,5.1,5.47,20.42-2.43,19.5-6.74C1255.88,1106.63,1238.19,1068.7,1229.17,1035.65Z"/>
  <g id="bennettSoleBottom">
    <path class="cls-4" d="M494.86,2498.55c-11.58,19.86,19.47,68,67.91,95.08,22.08,3,141.57,5.09,176.32,2.08C649.32,2514.09,559.21,2425.37,494.86,2498.55Z"/>
    <path class="cls-4" d="M1495.36,1869c-11.84,17.53-52.72,3.92-75.43,12.58-37.79,14.42-121.17-15.42-116.49-33.42C1338.32,1757.57,1532.9,1803.55,1495.36,1869Z"/>
  </g>
  <g id="bennettSoleSide">
    <path class="cls-4" d="M523.25,2111.52c4.49,10.83,7.75,31.07,3.38,37.87C517.4,2162,410.15,2184,363.46,2181c-50.95-3.34-112.2,3.83-122.89-5.4-14.94-46.58,9.23-80.57,47.86-91.47"/>
    <path class="cls-4" d="M739.09,2500.8c19,19,42.64,39.29,28.27,86.56-94.54,51-178-155.93-272.5-88.81-1.07-10.73,5.57-26.49,12-36.07C555,2404.47,643.1,2443,739.09,2500.8Z"/>
    <path class="cls-4" d="M1818.84,2402.8c-3.54,12.1-4.7,37.49-.23,42.84,16.94,32,39.17,29.78,53,51.53,38.17,60.18,205.53,36.19,219.45,18.58,8.63-27.32-14.81-66.66-33.61-72.36C1994.76,2392.94,1875.21,2358.15,1818.84,2402.8Z"/>
    <path class="cls-4" d="M1493,1774.74c32.43,25.24,29.37,72.48,2.37,94.27,9-27.48-83.85-62.06-115.12-57.32-42.28,6.41-59.69,18.47-76.8,36.48-5.68-13.74-4.74-31.47,0-47.38C1366.71,1700.14,1447,1707.57,1493,1774.74Z"/>
  </g>
  <g id="bennettShoe">
    <path class="cls-4" d="M453,1930.76c8.14,53,62.54,110.83,70.3,180.76-41.81,24.39-96.09,36.77-162.22,34.5-38.4-1.33-71.83,4.71-96.66,2.42-7.77-88.39,83.55-51,67.52-193.31Z"/>
    <path class="cls-4" d="M704.34,2349.25c-1.16,57.61,8.38,109.26,34.75,151.55,6.21,21.12,6.52,41.44-.92,60.71-56.54,4.17-133.54-153.72-231.33-99,25.95-60.25,60.78-102.57,73.76-144.74Z"/>
    <path class="cls-4" d="M1853,2227c11.16,78.14-30.62,93.46-34.12,175.79,11.87,24.22,37.72,35.67,54.85,53.33,9.4,9.69,23.29,22.08,39.93,25.46,16.15-53.81,105.05-54.72,143.8-38.2-36.85-31.19-84.32-116.29-79.85-192.76C1998.88,2155.19,1891.14,2183.48,1853,2227Z"/>
    <path class="cls-4" d="M1497.73,1605.14c-8.82,68.06-12.73,128.31-4.74,169.6-34.11-27-99-44.53-138-2.7-16.86,4.12-34,13.59-51.5,28.75,27.48-80.06,60.22-116.54,82-215.07Z"/>
  </g>
  <g id="bennettShoelace">
    <path class="cls-4" d="M1916.08,2310.36c2.83,30.67,10,62,20.28,93.75,20.28-8.92,61.11-9,85.41-3.69-16.11-25.29-30.56-57-38.38-90C1965.07,2305.3,1933.76,2305.09,1916.08,2310.36Z"/>
    <path class="cls-4" d="M1470.5,1760.67c-1.09-24.26-.68-46.74,2.78-65.59-23.72-17.65-50.4-26.29-79.43-27.8-9.76,23.73-10.53,52-5.07,83.56C1415.72,1742.57,1446.19,1748.69,1470.5,1760.67Z"/>
  </g>
  <path id="converseLogo" class="cls-4" d="M1865.44,2401.18c24,4.68,27.53-68.87,4.07-74.55S1840.88,2396.4,1865.44,2401.18Z"/>
  <g id="clothesOverlapLine">
    <path class="cls-4" d="M1913.62,2266.63c7,4.72,2.46,30.3,2.46,43.73"/>
    <path class="cls-4" d="M1987.21,2325.06c-18.29-3.42-48.45-2.55-69.27,1.27"/>
    <path class="cls-4" d="M1992.79,2341.58c-20.43-4.22-50.76-2.74-72.21,1.11"/>
    <path class="cls-4" d="M1998.88,2357c-21.87-4.5-52.21-3.22-75.11,1.36"/>
    <path class="cls-4" d="M2005.58,2371.54c-23.22-4.63-54.51-2.7-77.95,2.72"/>
    <path class="cls-4" d="M2013,2385.79c-25.83-5.05-59.43-3.66-81.36,3.11"/>
    <path class="cls-4" d="M1471.17,1710.5c-27.25-15.64-54.76-24.69-82.48-27"/>
    <path class="cls-4" d="M1470.18,1725.83a262.67,262.67,0,0,0-84.13-25.69"/>
    <path class="cls-4" d="M1470,1741.39a227.11,227.11,0,0,0-84.59-24.91"/>
    <path class="cls-4" d="M1470,1756.7c-28.32-13.49-56.34-21-83.42-21.54"/>
    <path class="cls-4" d="M1393.85,1667.28c3.47-14.36,10.19-27.84,7.85-37.41"/>
    <path class="cls-4" d="M1473.28,1695.08c2.33-15,9-28.35,7.08-38.77"/>
  </g>
  <g id="clothesDisplayLine">
    <path class="cls-4" d="M264.37,2148.44c-8.31-.39-22.11-.13-28.27-3.29"/>
    <path class="cls-4" d="M1913.62,2481.59c51.24,21.8,155.2,12.94,173.72-4"/>
    <path class="cls-4" d="M1354.94,1772c62.23-17.4,150.06,28.75,161.46,53.57"/>
    <path class="cls-4" d="M738.17,2561.51c11.06.08,22.37.08,33.52-8.86"/>
  </g>
  <g id="bennettJeans">
    <path class="cls-4" d="M1854,986.45c10.4,20.09,34.7,28.19,28.57,53.79,23.23,11.29,10.9,28.26,21.85,62.19C1967,1296.3,2042.56,1508.66,2054,1677.26c2.79,41,21.77,61.76,5.05,97.48-17.38,121.76-21.88,245-37,322.72-8.11,41.69,21.6,85.32-21.85,105.89,8.75,25.3,3.23,46.93-22.84,63.28,3.1-33.58-56.29-33.58-63.75,0-19.77-2.58-40.52,3.45-61.83,14.51-5.4-15.7-27.9-16.6-12.32-39.65-31.78-28.24,4.22-37.24,3.79-55.36-45.46-21.47-2.38-68.27-2.27-94.81.44-113.87.9-215.52,12.6-300.1,4.5-14.4-22.5-34.2-4.5-51.3-30.6-19.79,11.17-38.8-7.2-45-32.64-11-6.17-41.52-20.7-66.59-45-64.79-131.38-326.65-189.87-337.44-21.16,1.06-28.79,11.69-47.69,17.09H1400.06c-50.39-108-62.29-217.49-31.5-305Z"/>
    <path class="cls-4" d="M894.84,1081.59c30.36,48,20.27,83.76,21.89,111.22.86,14.54,9.85,49.18,1.76,69.19-4,10,11.15,19.8-9.64,39.41,8.33,9.83,8.57,28.17,0,37.66,8.92,97.27-2.54,266-25.87,439.36-2,15,18.89,40-16.66,50,0,12.22,28.88,23.33-4.45,56.66-15.55,130-57.81,226.19-90,330-12.49,40.27,2.12,87-36.67,100,10.13,28,.4,50-30.37,65.68-36.29-34.57-93-47.9-134-38.4-14.51-14-27.84-28.39,1-45.06-39.12-28.51,14.79-80.33,24.44-124.43,27.82-127.07,38.09-243.92,82.22-324.42-27.77-25.56,1.11-40-7.78-53.33-21.42-15.91,5.56-37.78-1.11-57.78-23.21-104-42.83-235.74-61.1-376.52-9.14-2.77-17-2.12-27.78-2.34-72.22,60-163.32,104.44-214.43,153.32,23.33,23.34-15.89,17.78-3.67,40,24.78,1.11,12.3,19.4,22.56,45.55,22.22,56.67,37.1,167.14,58.88,222.21,9.95,25.16,53.44,37.12,26.67,71.11,37.77,27.77-2.22,48.88-8.21,72.39-55.12,23.15-175.92,39.19-159.56-13.51,7.78-31.11-29.9-4.49-32.22-60-1.11-26.66-72.82-181.65-98.88-267.75-6.11-20.18-25.55-35.56-2.22-64.44-18.17-13.81-18.66-34.46-12.22-57.78-21.11-26.66-2.22-35.55,12.22-68.88,51.55-119,100.6-234.66,147.77-285.54-2.54-14.9,5-25.74,17.77-34.44,4.59-30.39,24.13-65.15,47.78-101.1Z"/>
  </g>
  <g id="clothesDisplayLine-2" data-name="clothesDisplayLine">
    <path class="cls-4" d="M1643.55,1049.45c-12.23,43.35,31.65,71.94,16.66,105.87-16,36.23,2.48,65.81-11,87.64s-6.74,33.71-17.94,47.94"/>
    <path class="cls-4" d="M1693.78,1045.24c-5.9,40.45,29.81,67.59,17,93.22-12.64,25.28,20.74,65.85-56.46,75"/>
    <path class="cls-4" d="M663.59,1137.68c-7.11,57.24-21.68,111.49-49.79,160.29"/>
  </g>
  <g id="clothesOverlapLine-2" data-name="clothesOverlapLine">
    <path class="cls-4" d="M1409,1188.12c13.54-37.86-1.7-45.08,14.38-80,12-26,32-32.86,60.68-75.84"/>
    <path class="cls-4" d="M580.78,1358.46q-64.41-2.12-115.7-23.65"/>
    <path class="cls-4" d="M785.64,1362.31c-57.73,13.41-116.45,16.26-177.08-1.51"/>
  </g>
  <g id="clothesFoldLine">
    <path class="cls-4" d="M1882.55,1040.24a145,145,0,0,0-39.47-6.27"/>
    <path class="cls-4" d="M1836.34,1171.7c-35.74,1.58-69.66,4.83-101.12,11.43"/>
    <path class="cls-4" d="M1874.26,1175.54a524.72,524.72,0,0,0-133.15,32.87"/>
    <path class="cls-4" d="M1446.56,1077.54c9.72-38.52-23.15-38.52-31.58,11.2"/>
    <path class="cls-4" d="M1619.76,1152.79c-12.64-88.49-34.55-21.91-14.41,68.25"/>
    <path class="cls-4" d="M1456.28,1100.54c57.27-70.54,42.46,6.79-14.33,170.23"/>
    <path class="cls-4" d="M1577.63,1202.51c-13.57-31.34-19.38,43.82-14.33,117.14"/>
    <path class="cls-4" d="M1449.53,1409c-14.32,18.54-29.49,31.18-17.69,57.3,10.4,23,.29,43.59-45.51,48"/>
    <path class="cls-4" d="M1485.77,1407.29c-5.9,29.49-37,22-34.55,43,2.53,21.91,45.42,61.92,75,85.11"/>
    <path class="cls-4" d="M1523.77,1606c-14.4-36.88-55.7-36-5.13-34.35"/>
    <path class="cls-4" d="M1361.15,1574c37.82-15.85,72.68-14,19.28-31.87"/>
    <path class="cls-4" d="M1485.77,1626.4c27.43-14.83-8.43-38.77-40.45-43-24.24-3.19-86.69-2.16-55.62,34.55"/>
    <path class="cls-4" d="M1812.75,1525.27c40.63,62.14,83,108.9,128.93,123.88"/>
    <path class="cls-4" d="M2033.54,1751.12c-19.87-41.65-17.93,46.3-5.9,134"/>
    <path class="cls-4" d="M1876,1689.6c63.2-10.11,76.69,10.11-2.53,22.75"/>
    <path class="cls-4" d="M1859.1,1757c77.36-40.69,92.77-34.13,31.18,31.18"/>
    <path class="cls-4" d="M1849.09,1739.92c5-4.81,17.59-9,30.23-12.4"/>
    <path class="cls-4" d="M1995.62,2159.84c-34.25,26.86-76,26-125.57-3.37"/>
    <path class="cls-4" d="M1843.26,2186.13c37.9,15.69,75.56,31.36,22.58,40.28"/>
    <path class="cls-4" d="M2000.21,2203.35c-24.82,13.79-98.58,6.65-79.6,34.86"/>
    <path class="cls-4" d="M1839.47,2241.49a221.94,221.94,0,0,0,37.32,9.36"/>
    <path class="cls-4" d="M335.24,1110.7c-7.07,27.73,3.94,53.63,19.76,79"/>
    <path class="cls-4" d="M317.47,1145.14c.32,21.12,6.06,46.45,17.17,61.26"/>
    <path class="cls-4" d="M908.85,1301.41c-8.78,13.34-25.18,26.52-49,39.54"/>
    <path class="cls-4" d="M894.43,1291.58c-41.35,40.73-120.35,64.8-181.45,62.33"/>
    <path class="cls-4" d="M908.85,1339.07c-5,7.34-11.06,12.56-19.36,13.61"/>
    <path class="cls-4" d="M814.2,1383.54c-47.26,7.67-92.52,11.38-130.85,1.23"/>
    <path class="cls-4" d="M724.09,1463.15c-70.69-82.09-89.42-79-35.18,43.83"/>
    <path class="cls-4" d="M547.57,1363.17c-34.26,6.76-66.2,9.51-93.2,3.7"/>
    <path class="cls-4" d="M360.56,1491.55c-42.38,2.61-87.72-4.44-135.78-20.37"/>
    <path class="cls-4" d="M157.48,1499.56a104.13,104.13,0,0,0,32.73,14.2"/>
    <path class="cls-4" d="M366.35,1511.78c-32.33-1.1-85.41-18.38-134.78-8.51"/>
    <path class="cls-4" d="M362.68,1551.78c-43.47-8.39-100.82,11.55-104,1.48-3.78-12.14,57.44-27.78,100.61-20.36"/>
    <path class="cls-4" d="M335.25,1576.1c-43.76-3.68-81.77,9.46-111.71,46.29"/>
    <path class="cls-4" d="M169.7,1557.34c35.33-31.23,89.31-31.09,91.49-37.4,2.63-7.61-30-5-59.25,5.55"/>
    <path class="cls-4" d="M439.56,1835.32c2.79,45.53-58,83.32-130.23,56.78"/>
    <path class="cls-4" d="M299,1932.68c33.83,17.44,71.89,3.39,75.53,8.18,6,7.92-7.58,14.09-34.3,19.75"/>
    <path class="cls-4" d="M470.79,1890.65c-34.32,31.7-64.56,31.08-63.32,36.63.61,6.79,37.12-1.87,56.78-13"/>
    <path class="cls-4" d="M856.78,1776.07c-13.81,14.19-32.92,17.55-58.63,7.41"/>
    <path class="cls-4" d="M680.88,1730.4c9.84,29.18,34.11,42.58,67.28,46.29"/>
    <path class="cls-4" d="M866.32,1828.43c-22.5,2.57-83.6-20.88-92.24-2.37-6.1,13.07,37.65,4.94,62.95,19.75"/>
    <path class="cls-4" d="M670.77,1795.1c18.27,11.3,101.84-4.45,121.82,11.83,8.9,7.25-85.3,5.25-96.28,16"/>
    <path class="cls-4" d="M825.31,1871.74c-43-21-87-29.64-132.08-21.61"/>
    <path class="cls-4" d="M742.6,2229.09c-35.8,40.73-145.66,32.09-139.48-40.73"/>
    <path class="cls-4" d="M735.21,2315.06c-13.59-21.78-70.51-21-71-29.19-.65-11.16,40.68-10.12,66.65,4.32"/>
    <path class="cls-4" d="M571.89,2297.28c33.69,3.4,81.33-11.1,78.75,12.66"/>
  </g>
  <path id="bennettShirt" class="cls-4" d="M1365.44,1000.9a57,57,0,0,1-3.56,11.14c189.68,56.42,377.66,50.34,500.92-18.92,3.45-3.7-2-10.53-4.18-18.3C1800.32,999.34,1444.21,1034.91,1365.44,1000.9Z"/>
  <path id="bennettJacketInner" class="cls-4" d="M1043.31,883.22c5.82,7.86,133.82-49.25,126.7-60.42C1148.2,821.12,1063.45,855.53,1043.31,883.22Z"/>
  <path id="bennettJacket" class="cls-4" d="M1348.23,249.31c-.28-10.66,267.85-17.69,268.13-7,18.74-15.53,39.42-15.08,61.25-5,26.93-10.24,25.25-34.57,138.59,25.11,14.34-5.17,31-1.65,49.2,8,36.33,1.1,57.31-9,99.19,5.6,11-6.18,1.75-32.19,28.46-39.46-1-19,5.33-33.44,20-42.69,29.6-36.47,25.94-98.52,54.34-105.44-2.92-31.73,23.09-52.71,38.81-87.33,15.33,1.9,110.15,47.21,117.73,66-66.32,144.86-98.72,298.65-153.95,345.43-41.59,35.22-208.58,21.8-263.92,35.57,14.88,27.17,6,43.79,9.7,62.1s16.25,28.9,11,47.87c-1.94,18.11,10.35,11,2.59,53.69-2.39,13.12-2.13,16.29,5.17,27.82,12,19,2.59,63.39,12.29,141,27.18,48.13,12.7,63.22,12.07,106-.38,26.36,11.75,46.15,6.69,84.15-24.31,25.07-442.19,68.8-507.14,26.52-3.06-14.18,8.73-28.44,7.11-47.22-22.32-18.55,5-40-.35-60.75-24.43-20.46-1.39-54.73-8-80.91-37-32.56-1.73-67.8-6.47-91.86-46.45-31.32,11.45-53.14-21.35-113.2-14.25-19.43-13.14-46-21.74-67.49s-22.66-37.76-29.36-61.88c-74.9,33.7-96.51,96.29-195.52,113.07,38.11,9.12,14.68,85.46,36.08,125.87,30.27,16.41,23.49,68.81,51.18,109.92-21.81-1.68-106.56,32.73-126.7,60.42-17-32.43-30.14-68.21-40.28-106.57-40.28-52-87.54-182.88-88.11-208.1-.84-36.92,156.92-163.63,190.48-189.64,12.59-8.4,10.91-39.44,47.83-38.6,15.18-18.88,31.63-34.56,52-40.28,16.78-13.43,12.58-48.67,53.7-36.92,11.1-11.28,25.27-13.51,42.8-5.88C1318.54,251.36,1321.9,228.7,1348.23,249.31Z"/>
  <path id="bennettJeans-2" data-name="bennettJeans" class="cls-4" d="M1625.39,1178.91c-36.24,39.31-10.37,69.81-25.4,114.93-9.14,27.43-1.56,49.54-29,96.78-21.71,37.33-14.82,190-47.18,215.35,12,25.91-20.63,42.61-33.37,69.72a32.74,32.74,0,0,0-10-19.38c9.86-32.21-59.55-56.47-78.66-26.44-11.39,2.34-23.35,10.48-35.81,23.71-5.67-30.68-35.33-56.64-4.74-79.59-40.45-26.18-8.92-61.32-1.11-89.51,23.89-86.17,29.82-186.28,49-296.36-5.34-58.53-20.08-129.22,26.94-159.21,78.28-49.92,158.06-62.65,180,24.5C1626.58,1095.42,1659.61,1141.79,1625.39,1178.91Z"/>
  <path id="bennettJacketCollar" class="cls-4" d="M1638.22,332.48c-34.69-21.79-67.44-33.38-93.52-9.88-47.42-23.26-86.92.84-107.21,41-45.62-72.23-96.56-124.69-50.18-151.3,40.82-23.42,121.65-21.29,160.43-9.89C1595.82,216.6,1619.22,275.45,1638.22,332.48Z"/>
  <path id="bennettHoodieInner" class="cls-4" d="M429.22,211.94c76-59.1,186.65-65.66,280.45-19.7C614.1,219.36,520.45,227.57,429.22,211.94Z"/>
  <g id="bennettHoodie">
    <path class="cls-4" d="M746.45,236.23c37,7.78,87.31,7.76,103.73,38.9,19.67-2.33,51.33-7.54,63.53,20.75,55.11,15.61,85.7,52.5,102.79,63.3,81.57,51.51,217.73,139.45,230.63,189.51,9.79,38-69.31,124.56-133.78,150.43-17.18-41.4,2.8-61-21.37-74.35-11.27-10.4,9.84-19.83-9.23-37.76-3.27-18.21-20.36-22.7-38.36-28.1-72.87-10.8-137.65-67.48-168.24-63,9.89,112.46-8.37,191.14-10.8,263.61-1.8,16.19,16.2,38.69,9.9,72.88-.9,14.39.16,21,6.3,34.18,11,23.47,0,51.29,5.39,63,9.45,20.47,31.37,58.71,8.1,92.67-1.84,24.55,9.9,50.38,9.9,66.58-56.68,33.29-151.51-.68-227.62-3.6-108.23-4.15-223.83-12.5-303.9-65.58,26.09-61.18-6-195.36,10.59-218.72-48.58-48.59,0-64.78-8.09-90-18-11.13-12.84-31.79-15.3-69.28-1-15.84-13.8-34.86-10.79-59.38,3.61-29.52-10.8-58.48-2.7-86.37-12.43-2.18-1.8-17.1-24.29-29.69-5.17,13.84-14.69,9.92-23.4,18.89-14.51,14.95-31.18,38.72-54,42.29-8.1,22.49-31.49,20.69-43.18,50.38-5.41,13.73-13.33,20.74-39.59,13.5,11.7,11.69,31.43,14.43,27,28.79,18.89,11.69,19.19,41.71,36,52.18C245.83,684.83,258,696.45,265.25,711s45.89,7.19,50.39,54c29.69,32.39,32.66,27.1,40.48,39.58,12.15,19.38-56,70.37-75.57,58.48-10.34-6.28-12.6-19.79-37.79-36.88-19.32,7.35-33.88-2.85-45.88-22.49C141.1,793.73,17.84,673.17,1.64,621c-9-68.38,78-156.22,156.55-208.73,47.62-31.85,51.28-99,121.46-120.56,1.06-21.45,13.42-23.78,30.59-18,0-17.09,19.79-25.19,33.29-21.59,9.89-38.69,38.68-5.4,54-23.39Z"/>
    <path class="cls-4" d="M763.65,215.21c-27.74-61.37-121.07-18.65-187.07-11.8-96.78,10-154.2-19.07-183.7,19.88-16.16,21.33,73.69,174.64,189.6,177.8C690.47,404,776.22,243,763.65,215.21Z"/>
  </g>
  <g id="clothesOverlapLine-3" data-name="clothesOverlapLine">
    <path class="cls-4" d="M1785.17,385.76c19.72,23.12,10.2,49.65,20.94,62.3"/>
    <path class="cls-4" d="M1432.39,741.13c-25.61,63.3-50.25,126.21-36.23,174.12"/>
    <path class="cls-4" d="M1811,713.08c9.35,26.88,28,51.42,35.84,67.47"/>
    <path class="cls-4" d="M315.64,764.94c-9.17,22.71-54.35,53.67-72.88,61.18"/>
    <path class="cls-4" d="M895,1022.25c-71.54,14.72-173.71,3.11-258.1-7-79-9.5-153.94-3.34-232.59-49.36"/>
  </g>
  <g id="clothesFoldLine-2" data-name="clothesFoldLine">
    <path class="cls-4" d="M1390.76,330.67c-.69-15.92-2.77-33.21-8.61-51.75"/>
    <path class="cls-4" d="M1348.23,249.31c6.58,12.14,11.14,23.27,12.78,32.93"/>
    <path class="cls-4" d="M1329.88,256.64c-4.14,13.29-13.24,14.16-28.12.59"/>
    <path class="cls-4" d="M1259,263.11c76.32,24.83,61.26,175.32,65.38,62.71"/>
    <path class="cls-4" d="M1205.26,300c40.9,12,106,56,55.43,8.5"/>
    <path class="cls-4" d="M1153.23,340.31c59.59,2.23,101.62,22.35,129.6,56.77"/>
    <path class="cls-4" d="M1136.16,375.64c34.42-8.82,72.25.62,112.08,20.75"/>
    <path class="cls-4" d="M1193.58,451.05c26.29,8,51.44,16.7,58.36,37"/>
    <path class="cls-4" d="M1174.21,461.43c19.62,6.1,36.86,12.78,45.66,21.44"/>
    <path class="cls-4" d="M987.83,610c25,7.21,48.73,15.35,62.08,30.74"/>
    <path class="cls-4" d="M1042.67,673.83c23.43,20.63,49,33,76.16,39"/>
    <path class="cls-4" d="M1092,624.77c-60.73-19.58-82.53-30.95-8.33-22"/>
    <path class="cls-4" d="M1003,776.65c22.17,24.94,43.69,37.24,63.75,51.46"/>
    <path class="cls-4" d="M1495.86,427.35c-32.3,8.35-61.33,18.34-80.76,33.15"/>
    <path class="cls-4" d="M1426,421.33c-27.61,13.93-52.65,29.47-73.52,47.6"/>
    <path class="cls-4" d="M1344.6,573.79c11.16,16.3,24.33,28.53,39.77,36.16"/>
    <path class="cls-4" d="M1329.37,603.31c16.43,22.91,52.66,26.17,29.09,50"/>
    <path class="cls-4" d="M1404.86,647.92c-16.27,21.09-47.7,23.86-22.9,57.85"/>
    <path class="cls-4" d="M1350.72,716.51c19.68,18.06,44,36.51,25.21,51.33-14.76,8.95-16,18.6-4.22,28.93"/>
    <path class="cls-4" d="M1357.19,808.37c12.45,8.1,21.91,17.26,24.77,28.78"/>
    <path class="cls-4" d="M1365.24,889.28a68.74,68.74,0,0,0,20.33,13"/>
    <path class="cls-4" d="M1365.59,950c6.73,6.44,18.38,11.1,12.75,17.89"/>
    <path class="cls-4" d="M1753.79,1010.1c-54.43,8.47-105.55,13.38-150.63,11.81"/>
    <path class="cls-4" d="M1730.89,940.2c-53.33,12.39-103.72,19.68-148.25,16.87"/>
    <path class="cls-4" d="M1690.51,763a414.44,414.44,0,0,1-130.77,15.07"/>
    <path class="cls-4" d="M1729.68,702.76a392.88,392.88,0,0,1-104.86,39.77"/>
    <path class="cls-4" d="M1647.12,532.21a1250,1250,0,0,0-162.71,11.45"/>
    <path class="cls-4" d="M1721.24,493a778.67,778.67,0,0,0-171.15,8.44"/>
    <path class="cls-4" d="M1616.36,242.28c6.84,7.5,16.24,8.89,27.14,6.69"/>
    <path class="cls-4" d="M1677.61,237.26c40.62,21.35,58.6,81.57,67.14,82.82,12,1.77,7.37-22,1.2-47"/>
    <path class="cls-4" d="M1781.51,318.88c9,21.9,11.81,44.11,3.66,66.88-5.18-16.17-30.18-17.47-13.91-29.52"/>
    <path class="cls-4" d="M1804.41,362.87c1.8,19.08-.24,34.67-7.74,45.32"/>
    <path class="cls-4" d="M1816.2,262.37c38.62,16.75,62.61,44.73,70.77,84.83"/>
    <path class="cls-4" d="M1865.4,270.4c17.72,12.71,29.82,23.84,30,31.6"/>
    <path class="cls-4" d="M1971.94,315.26c19.38,24.2,28.84,52.88,12,93.41"/>
    <path class="cls-4" d="M2023.16,378.54c-4.28-43.79-24.43-77.58-58.57-102.54,39.48,6.51,69.11,33.91,92.92,73.61"/>
    <path class="cls-4" d="M1993.05,236.54c18.57-1.26,37.5,6.47,56.63,19.06"/>
    <path class="cls-4" d="M2033.41,199c-12.14,10.71-27.72,10.25-20.31-5.1"/>
    <path class="cls-4" d="M2094.28,74.81c-10.58,9.16-19.93,14.84-26.84,13.6"/>
    <path class="cls-4" d="M2139.47,115.79c-24.1-8.74-48.21-9.16-72.31.6"/>
    <path class="cls-4" d="M471.67,307.21c34.05,6.06,60.59,21.71,76.31,51.2"/>
    <path class="cls-4" d="M688.05,295.62c-32.08,7.59-57.5,26.19-74.38,58.93"/>
    <path class="cls-4" d="M689,241.53C653.28,223.17,641.53,252,576,257c-63.76,4.83-106.27-18.35-128.48,0"/>
    <path class="cls-4" d="M913.71,295.88c4.26,9.4-1.19,16.5,9.09,28.72"/>
    <path class="cls-4" d="M850.18,275.13c3.36,5.56,5.32,10.66,4,14.7"/>
    <path class="cls-4" d="M814.66,396.48c24.42,24.55,40.42,49.38,41.27,74.68"/>
    <path class="cls-4" d="M890.65,421.38c-5.87,15.5-2.71,32.08-.56,50.44"/>
    <path class="cls-4" d="M839.55,384.69c16.23,24.22,30.8,76.68,36.6,111.24,7.2-44.27-5.16-114.4-26.12-165.61"/>
    <path class="cls-4" d="M933.88,481c52.16,37.09,117.19,57.47,193.25,63.54"/>
    <path class="cls-4" d="M1061.49,564.51c79.39,35.14,134-21.76,143.77-8.84,7.79,10.3-8.22,22-31,22"/>
    <path class="cls-4" d="M1193.58,591.87c-37.87,16.23-75.14,20.85-110.83-4.86-30.24-13.86-81.06-7.19-119-18.64"/>
    <path class="cls-4" d="M1157.26,623.79c-28.17,0-55-7.86-66.15-20.48"/>
    <path class="cls-4" d="M1132.37,659.82c-6.46,2-14.42,1.62-27.07-6.48"/>
    <path class="cls-4" d="M784.49,625.32C659.68,824.52,437,840.66,617.72,809.46"/>
    <path class="cls-4" d="M641.39,464.08c-41,78.8-91.83,143.1-171.08,165.7"/>
    <path class="cls-4" d="M506.89,586.74c-24.49,16.76-49.77,31-77.46,37.66"/>
    <path class="cls-4" d="M385.31,689c17.57,9.44,35.6,11.94,53.8,11.83"/>
    <path class="cls-4" d="M375.92,711c18.18,10.18,40.57,13,64.27,13.5"/>
    <path class="cls-4" d="M685.5,695.41c-85.87,80.71-181.13,108.72-289.43,63.48"/>
    <path class="cls-4" d="M384,800.93c43.27,27.9,117.5,15,110,30.05"/>
    <path class="cls-4" d="M694.11,846C630.15,867.22,567.54,879,508,869.71"/>
    <path class="cls-4" d="M387.28,843.29a148.91,148.91,0,0,0,55,7.17"/>
    <path class="cls-4" d="M396.83,872A179.19,179.19,0,0,0,444,884.51"/>
    <path class="cls-4" d="M401.61,900c52.89,25.1,120.56,35.25,193.55,40"/>
    <path class="cls-4" d="M405.79,934.69c13.4,13.62,33.62,20.74,56.75,25.09"/>
    <path class="cls-4" d="M278,729.19c12.65.84-28.08,59.14-53.17,62.73"/>
    <path class="cls-4" d="M184.17,754.28c39.43-19.11,17.92,14.94,12.71,49.35"/>
    <path class="cls-4" d="M189.68,620.09c-15.72,14.34-61.06,24.28-97.5,51.76"/>
    <path class="cls-4" d="M168,606.73a175.55,175.55,0,0,0-52,29.27"/>
    <path class="cls-4" d="M49.17,640.19c32.19-27.68,70.28-43.49,113.52-48.89-42.44-30.56-144.31-20.54-138,.5,5.89,19.69,59.14-14.94,101.56-10.16"/>
    <path class="cls-4" d="M191.34,570.89c-21.53-9.7-45.74-15.3-72.28-17.32"/>
    <path class="cls-4" d="M245.46,527.42C199,538,159.25,538.23,125.63,529.08"/>
    <path class="cls-4" d="M252.27,507c-46,10.16-88.1-7.93-118.28-9"/>
    <path class="cls-4" d="M200.9,438.87c29.1,24.13,86,48.39,105.23,41.43"/>
    <path class="cls-4" d="M276.16,380.93c6.29,21.86,16.48,40.12,31.67,53.76"/>
    <path class="cls-4" d="M279.65,291.7c2.26,14.65,3.11,27-5.28,24.71"/>
    <path class="cls-4" d="M310.24,273.7c25.66,40.32,42.39,98.87,22.67,74.37"/>
    <path class="cls-4" d="M343.53,252.11c33.59,31.45,26.42,66.1,7.31,27.86"/>
    <path class="cls-4" d="M378.31,329a126,126,0,0,1,5.38,51.37"/>
    <path class="cls-4" d="M351.43,381.53c3,34.05-4.83,71.5-28.59,84.71,17.24-103.83-39.51-182.68-12.63-75.16"/>
    <path class="cls-4" d="M335,476.73c18.26-1.42,30.8-65.93,46.36-51.6"/>
    <path class="cls-4" d="M347.13,495.93c3.32,1.13,18.28,3.87,23.42,8.06"/>
  </g>
  <path id="zipperDisplayLine" class="cls-4" d="M1544.7,322.6c35,46.81,55.78,180.08,80,319.09,22.07,126.81,22,256.64,32.08,365.13"/>
  <g id="skinEastAsian">
    <path class="cls-4" d="M1560.09,191.62l1.83,37.25c37.67,29.36,3,55.57-17.22,93.73-39-27.78-144.6-35.72-159.87-84l-6.1-63.51"/>
  </g>
</svg>
