<svg viewBox="0 0 206.48 356.07">
  <g class="soleWhite">
    <path d="M196.78,335.81c.89,1.18,.42,4.94-.2,6.26-1.6,3.35-22.26,4.05-25.67,.65-2.24-1.75-3.26-5.59-4.39-7.89-1.45-2.94-.6-7.59,.76-10.42,5.64,7.61,25.05,1.77,29.5,11.4Z"/>
    <path d="M177.07,339.49c4.81,1.79,8.12,5.43,7.51,10.02-2.3,5.85-23.32,9.58-33.64,2.25-4.77-3.39-10.09-4.43-11.09-7.33-.6-1.93,.06-4.72,.3-6.83,14.07-.64,26.81-1.48,36.92,1.89Z"/>
    <path d="M70.08,329.42c.04,1.96-.5,3.42-1.48,5.09-1.11,1.88-12.18,4.54-19.41,2.29-11.58-3.62-20.93-11.75-20.93-21.45l41.82,14.08Z"/>
    <path d="M51.28,339.9c.21,1.48,.11,2.19-.64,3.95-1.21,2.87-17.76,6.53-26.38,2.57-5.95-2.73-12.15-4.4-13.87-6.82-1.49-2.1-1.74-4.05-1.6-6.1l42.49,6.4Z"/>
  </g>
  <g class="sasha">
    <g class="pastSashaShoe">
      <path d="M55.31,310.84c5.07,14.03,14.77,8.16,14.77,18.58,0,3.74-18.43,5.99-24.45,2.21-5.84-3.67-17.21-12.63-17.37-16.29-.18-4.06,4.27-12.49,7.06-13.42,8.73-2.92,17.42,1.79,19.99,8.92Z"/>
      <path d="M33.17,320.88c2.63,3.8,7.3,9.67,9.11,10.51,5.68,1.9,8.38,4.72,9,8.2-1.01,2.35-17.07,7.01-26.17,3.1-6.11-2.62-13.16-4.87-16.32-9.5,0-3.79,.79-8.94,3.15-12.73,2.08-3.33,18.83-3.04,21.22,.42Z"/>
    </g>
    <g class="pastSashaSock">
      <path d="M38.54,293.54c-1.4,4.34-2.9,8.27-4.69,10.93,0,2.37,2.8,6.18,6.04,6.18,3.09-2.59,8.05-3.25,12.3-2.34,.13-2.25,1.59-6.1,3.24-9.81l-16.88-4.96Z"/>
      <path d="M30.23,309.71c-.44,3.54-.76,6.76,.46,9.63-3.81-1.13-9.03,.74-10.67,3.83-2.9,.57-6.71-.88-7.46-2.37,1.41-5.15,1.33-8.22,1.65-13.39l16.01,2.3Z"/>
    </g>
    <path class="pastSashaPants" d="M69.86,173.45c3.78,19.04,8.03,52.83,7.31,77.37-.17,5.89-1.94,3.9-2.25,7.96-.69,9-4.52,11.58-18.89,43.44-6.75,2.77-17.83-2.94-19.22-8.14-1.87,4.85-3.59,10.63-5.19,17.14-4.33,2.6-18.53,0-20.43-3.81,2.83-7.6,2.77-32.01,6.58-49.5-2.1-1.53,0-3.64-.35-4.85-2.96-1.4-.35-5.19-1.56-7.27C5.13,227.8-1.62,198.55,1.49,181.07c-1.83-2.58,.87-3.98,1.73-6.06-1.56-4.85,4.79-4.66,5.54-10.04l61.09,8.49Z"/>
    <path class="pastSashaShirt" d="M14.6,85.79c10.98-23.96,23.66-14.8,33.96-11.15l25.62,8.49c20.17,8.52,16.48,15.66,21.7,24.57-2.11,2.95-11.21,6.37-14.74,6.8-4.87,20.22-2.8,46.25-7.98,51.95,1.53,3.27,1.16,6.22-1.43,8.8,1.97,1.46-.52,2.09,.29,4.17-10.84,4.6-51.02-2.48-64.73-13.57l7.32-80.07Z"/>
    <g class="birthrightLogo">
      <g class="pastBirthrightLight">
        <path d="M36.55,118.72c13.6-1.11,27.07,1.16,38.13,9.52-7.8-3.45-15.77-6.62-24.35-7.29-4.6-.36-9.73,.37-13.78-2.23Z"/>
        <path d="M44.24,128.77c4.71-5.18,9.35-10.43,13.94-15.76,1.19,4.26,2.44,8.5,3.62,12.76,.73,2.62,1.7,5.37,1.88,8.19-2.22-5.68-4.38-11.39-6.46-17.15-3.76,3.88-8.17,10.01-12.99,11.96Z"/>
        <path d="M48.57,137.2c3.82-2.75,7.71-5.46,11.33-8.6,1.16-1.01,4.68-3.54,4.09-5.57-5.06,4.85-10.19,9.58-15.41,14.17Z"/>
        <path d="M49.03,118.35c-1.17,2.14,.45,5.41,1.16,7.22,1.88,4.83,4.24,9.38,6.49,13.95-2.66-6.99-5.21-14.05-7.65-21.17Z"/>
        <path d="M62.7,132.37c-3.58,1.08-7.45,.85-10.84-.21-2.14-.67-5.94-2.1-6.1-5.23,4.87,3.62,11.01,5.19,16.94,5.44Z"/>
      </g>
      <path class="pastBirthrightDark" d="M56.16,122.15c1.54,.26,2.55,1.96,2.17,3.79-.38,1.83-1.99,3.17-3.54,2.91-1.55-.26-2.52-2.05-2.15-3.88,.37-1.83,1.98-3.08,3.52-2.82Zm-1.4,3.22c-.09,.46,.15,.89,.54,.96,.39,.07,.79-.26,.88-.72s-.15-.89-.54-.96c-.39-.07-.79,.25-.88,.71Z"/>
    </g>
    <g class="skinAshkenazi">
      <path d="M54.38,56.38l-5.82,18.27c.52,7.87,5.55,15.04,12.92,22.41,7.92-2.91,12.27-7.49,12.69-13.92"/>
      <path d="M111.35,179.12c-3.84-2.51-5.08-16.34-13.67-33.12-2.64-5.15-3.52-22.18-5.17-35.65-3.32,1.88-8.34,3.73-11.37,4.15-2.56,10.62-3.2,25.92-3.99,35.96,2.43,17.26,14.43,22.11,22.84,33.43l11.36-4.78Z"/>
    </g>
    <g class="hairLightBrown">
      <path d="M75.07,145.28c1.89-6.68-4.08-5.89,0-12.94-4.58-5.67-2.67-8.09,.12-11.33-3.72-4.8-4.24-9.46,.24-12.59-2.17-3.32-4.2-8.93,.12-13.13-1.9-4.13-4.66-11.12,.76-17.22l9.64-.81c3.25,3.39,1.52,7.87-1.35,11.56,3.51,3.87,2.91,11-1.54,15.87,3.6,2.55,2.99,7.46-.86,12.47,2.52,2.94,2.41,5.96-1.55,11.14,1.15,2.69,2.57,4.7-.54,8.99,1.57,1.87-1.36,4.32-.07,7.99,6.39,14.9-6.31,16.13-.14,28.68-7.34-10.18-8.68-15.76-4.83-28.68Z"/>
      <path d="M48.54,74.16c2.97,4.07,5.27,7.15-.71,15.48,3.14,3.23,2.84,8.63-.86,14.37,2.31,3.36,3.69,6.69-1.58,13.29,3.04,4.13,2.79,6.63,.12,9.98,3.53,3.99-1.32,6.98-.4,12.71,6.02,15.47,.05,23.42-7.74,29.78,5.11-14.08-4.58-13.04,2.76-29.78,.82-3.12-1.05-4.56,.32-7.17-3.4-4.94-2.81-6.81-.63-9.43-3.79-4.53-3.16-9.28-.64-12.22-3.67-6.09-3.47-8.99-.24-12.34-2.89-6.25-3.2-10.28,.31-14.15-4.06-6.18-4.59-13.45-1.26-15.95-4.23-5.44-2.87-13-.12-17.75-1.68-6.51,1.37-22.34,14.59-21.07,6.62,14.74,4.06,37.33-3.94,44.24Z"/>
      <path d="M103.64,53l2.36-2.15c.33,1.62,.6,3.65,.74,5.76,.32-2.21,.35-4.48,.17-6.81C123.24,31.62,104.78-1.48,76.55,2.07c-23.11-11.78-54.51,36.95-30.16,49.29l57.25,1.64Z"/>
    </g>
    <g class="pastSashaHairTie">
      <path d="M80.16,141c0,.48-4.99,.48-4.99,0-.41,.02-.5,3.89-.1,4.28,.49,.58,4.43,.54,4.98,0,.43-.39,.53-4.29,.11-4.28Z"/>
      <path d="M39.92,135.85c0,.48,5.37,.48,5.37,0,.41,.02,.23,3.76-.17,4.15-.49,.58-4.43,.54-4.98,0-.43-.39-.64-4.15-.22-4.15Z"/>
    </g>
  </g>
  <g class="eye">
    <g class="sclera">
      <path d="M183.42,188.59l-40.68-12.08,42.42,6.03c.9,1.45-.17,4.65-1.74,6.05Z"/>
      <circle cx="86.23" cy="52.08" r="16.81"/>
    </g>
    <g class="irisDarkBrown">
      <ellipse cx="165.44" cy="181.57" rx="2.85" ry="2.25" transform="translate(-47.69 303.7) rotate(-77.47)"/>
      <ellipse cx="182.98" cy="185.23" rx="2.85" ry="1.92" transform="translate(-37.53 323.68) rotate(-77.47)"/>
    </g>
    <g class="irisGreen">
      <ellipse cx="80.62" cy="52.67" rx="3.14" ry="2.82" transform="translate(11.36 119.56) rotate(-77.16)"/>
      <ellipse cx="98.83" cy="55.39" rx="3.14" ry="2.32" transform="translate(22.86 139.44) rotate(-77.16)"/>
    </g>
    <g class="pupil">
      <ellipse cx="165.9" cy="181.83" rx="1.11" ry=".87" transform="translate(-47.58 304.34) rotate(-77.47)"/>
      <ellipse cx="183.51" cy="185.51" rx="1.11" ry=".74" transform="translate(-37.38 324.41) rotate(-77.47)"/>
      <ellipse cx="80.88" cy="52.73" rx="1.22" ry="1.1" transform="translate(11.5 119.87) rotate(-77.16)"/>
      <ellipse cx="99.18" cy="55.47" rx="1.22" ry=".9" transform="translate(23.06 139.85) rotate(-77.16)"/>
    </g>
  </g>
  <g class="bennett">
    <g class="pastBennettShoe">
      <path d="M190.3,306.92c-.35,6.34,.69,9.47,.85,12.68,.37,7.49,3.76,12.42,5.63,16.21-2.85-7-23.3-6.45-25.86,.28-1.08-2.68-5.33-7.82-3.65-11.69,2.7-6.18,5.24-12.27,5.16-19.68,6.67-3.17,12.73-3.03,17.87,2.2Z"/>
      <path d="M160.22,312.71c1.39,6.08,.9,7.49,4.51,12.29,3.85,5.14,7.35,12.14,12.35,14.48-7.07-1.79-17.36,1.4-19.08,9.43-2.81-.35-7.68-3.3-12.06-5.58-2.55-1.33-5.07-3.05-5.79-5.73,.72-9.04,3.46-11.15,3.1-20.99,4.66-3.4,11.7-4.93,16.96-3.89Z"/>
    </g>
    <g class="shoelace">
      <path d="M189.24,328.08c-3.22-1.43-10.16-.83-12.9,0,.07-4.56-1.18-8.57-.79-12.2,4.55-.99,7.98-.99,12.38,.14,.41,3.54,.68,7.53,1.31,12.05Z"/>
      <path d="M168.57,334.45c-3.78,.13-7.72,.85-11.79,2.05-2.86-4.12-5.2-8.18-6.74-12.16,3.84-1.34,7.88-1.85,12.09-1.68,2.04,4.28,3.85,7.71,6.43,11.79Z"/>
    </g>
    <path class="pastConverseLogo" d="M169.1,326.31c.64,1.24,3.5-8.01,2.82-9.25-.74-1.36-3.6,7.74-2.82,9.25Z"/>
    <path class="pastBennettSleeves" d="M100.11,220.98c.63-8.41-9.12-1.07-19.57-5.03-2.34,.92-4.24,.24-5.54-2.66-2.19,.09-4.05-.82-5.43-3.1-2.98,.56-1.67-3.21-5.1-3.05-2.46-3.11,8.02-20.3,12.31-19.34,3.08,.68,2.75,3.63,5.21,4.66,2.71-.72,5.7-.41,8.87,.55,6.52-3.55,26.82-9.87,40.23-2.73,16.14,6.97,35.82,14.95,41.04,16.06,4.8-2.26,2.12,2.52,6.29,4.14,8.84,3.44,7.04,14.73,25.27,17.82,6.49,12.14-.38,32.27-9.53,27.38l-94.04-34.69Z"/>
    <path class="shirtWhite" d="M170.62,232.99c-6.99-12.21-1.92-13.9-8.16-14.68-3.64-.52-2.51-4.86-4.79-4-6.41,8.74-27.74,3.22-32.51-10.18-1.2,1.54-2.56,1.87-4.2,.13-2.86-1.82-2.21,3.77-8.98,4.42-5.33,.91-1.02,7.37-11.87,12.3-4.24,18.88-5.43,35.57-4.13,50.67,.3,3.48-4.03,5.59,.98,9.04,.06,2.28-3.06,4.62,.78,7.82-2.25,6.76-.76,11.18,3.13,14.08,40.86,.67,63.96-22.74,69.75-69.61Z"/>
    <g class="skinEastAsian">
      <path d="M134.79,177.25c1.53,4.59-2.23,13.8-4.68,18.63-3.51,13.73,20.14,22.77,25.88,10.48"/>
      <path d="M57.59,168.96c6.13,9.47,13.43,12.65,18.44,18.84-4.09,.74-11.77,12.93-11.94,17.82-9.31-10.24-12.33-25.65-17.33-32.04-1.76-3.41-7.05-2.58-5.69-17.97,.34-3.86-4.21-9.71,.19-11.83-2.86-1.09-2.48-4.88-.35-4.57,1.37,.24,2.4-.13,3.94,.2-.53-.73-.73-.95-1.11-1.66-4.33-1.56-3.39-6.78-.78-5.58,3.26,2.42,3.38,1.07,6.08,4.9-.12-.99-.26-.97-.69-2.01-4.61-3.34-1.43-8.44,.91-6.35,1.75,2.73,3.13,3.47,4.36,6.06,2.41,5.06,1.49,7.06,2.4,10.27,2.18,3.4,3.5,3.73,3.27,8.83-.3,6.43-3.68,12.79-1.69,15.1Zm-9.33-16.26c1.03-1.76,.45-2.93,.65-4.2-2.43-.25-2.34-2.16-3.08,.06,.26,1.36,1.04,3.16,2.43,4.14Z"/>
      <path d="M138.02,185.59c-3.05,2.17-5.49-.66-5.92-2.98-.58-3.13-2.27-3.33-3.04-9.71-2.53-27.14,47.69-46.5,65.64-17.39-6.43,13.52-1.31,17.43-6.87,26.37-.65,.93-.16,2.55-2.49,2.58-1.21-1.46-3.96-1.88-6.5-.56-.4,.27,.19,.1,.61,.19,2.27,.53,4.73,1.86,5.86,.51,1.49,1.39-.33,2.61-.35,3.38-.47,5.53-1.48,16.05-13.36,21.88-4.26,2.09-4.69,4.94-10.19,4.08-8.04-1.26-4.9-1.56-13.49-7.09-3.87-2.49-5.61-5.3-8-8.96m28.02-16.8c-2.42-2.45-5.7-1.27-7.58-1.12,1.36,1.06,2.36,1.41,3.77,1.52,.88,.06,1.99-.29,3.32,0,.39,.08,1.29,.4,.5-.39Z"/>
      <path d="M181.03,204.68c3.91,16.62,0,25,5.06,39.66,10.84,4.62,18.89-5.9,17.76-14.38-2.09-7.09-7.91-10.42-10.37-25.99,.06-1.88,4.49-1.45,11.52-12.94,1.11-1.77,0-3.4-.38-6.1-.43-3.04-1.68-5.65-2.82-6.3-.25-3.09-1.33-5.12-5.7-2.67-1.28-1.41-3.62-.71-5.6,1.04-2.56-1.03-4.37,1.43-5.49,2.93-3.09,4.13-1.35,4.42-.37,7.83-3.05,4.34-5.25,12.64-3.6,16.92Z"/>
    </g>
    <path class="pastBennettJeans" d="M194.39,253.15c2.99-4.21-.9-9.8-1.17-11.9-1.16-8.97-8.59-12.33-19.1-10.22-8.09,1.62-17.42,25.45-25.97,48.6-1.98-6.41-4.36-13.75-7.58-18.3,1.44-5.81-2.35-7.55-4.26-10.17-5.6-7.68-12.66-7.57-19.82-4.36-8.32,3.74-12.79,23.93-14.57,45.46-5.03,4.01-2.21,25.57,7.2,31.56,14.81,9.44,27.61,2.68,33.23,1.99,.72-3.12,3.95-2.9,5.76-6.89,.25-5.3,11.4-7.83,12.48-.88,.2,1.31,1.76,3.35,2.53,4.58,1.72,.03,3.05,.75,4.93,.04,2.11-4.67,3.54-9.17,4.13-13.46,1.17-.64,1.97-.09,3.44-.86-.35-4.76,12.04-7,12.45,1.15,.74,.91,1.77,.76,2.21,1.74,.96-5.53,5.85-6.53,3.95-13.17,4.31-3.35-.3-7.85-.34-14.41-.04-7.43,2.42-19.16,.5-30.5Z"/>
  </g>
  <g class="clothesDisplayLine">
    <path d="M47.01,179.62c3.49,6.57-.07,9.26,.78,12.54,1.31,5.09-.81,4.33-.39,7.31s-.99,6.02-4.84,9.27"/>
    <path d="M37.93,177.95c-2.07,1.84-4.79,3.45-10.82,3.61"/>
    <path d="M196.78,335.81c-2.02,2.72-15.04,3.91-21.93,2.28"/>
    <path d="M158,348.91c7.75,1.92,22.88,0,25.69-4.24"/>
  </g>
  <g class="clothesOverlapLine">
    <path d="M32.51,95.63c1.08,.77,2.57-1.13,4.09-3.15"/>
    <path d="M38.52,199.21c5.87,7.44,11.99,47.05,8.35,60.14-3.41,12.25-6.79,25.03-10.06,34.74"/>
    <path d="M42.55,208.74c6.92-1.04,10.06-7.96,13.73-9.53"/>
    <path d="M20.02,323.16c-.31,.65-.59,1.28-.83,1.89"/>
    <path d="M52.18,308.31c1.44,.5,2.41,1.03,3.13,2.53"/>
    <path d="M110.36,257.59c-1.97,9.65,3.49,12.34,3.94,14.92,1.64,9.43,7.29,17.46,13.18,26.77,3.73,5.88,2.02,15.83,11.2,13.07-8.71,7.66,2.39,4.79,3.65,13.47"/>
    <path d="M148.14,279.63c4.24,20.9,15.03,21.63,10.47,28.11,2.69,2.54,2.82,4.71,.35,7.29"/>
    <path d="M167.74,237.76c-6.85,9.13-1.26,12.04-1.35,16.39-.21,10.17,3.34,22.47,2.9,34.76-.17,4.67-3.53,8.96,1.04,10.79-2.92,2.85,1.35,6.22,1.84,9.52"/>
    <path d="M188.17,318.22c-4.66-.74-8.22-.68-12.67-.03"/>
    <path d="M188.38,320.43c-4.46-.72-8.29-.41-12.68,.16"/>
    <path d="M188.62,322.87c-4.33-.94-8.29-.66-12.62,.19"/>
    <path d="M188.9,325.38c-4.44-.97-8.59-.97-12.64,.11"/>
    <path d="M187.94,316.03c-.19-2.04,.23-3.39,.13-6.53"/>
    <path d="M175.55,315.89c-.11-2.23,.33-5.44,.06-7.54"/>
    <path d="M151.17,326.98c4.1-1.05,8.2-1.57,12.31-1.56"/>
    <path d="M152.48,329.57c3.74-1.08,7.85-1.62,12.24-1.74"/>
    <path d="M153.98,332.2c3.96-1.16,8-1.78,12.12-1.85"/>
    <path d="M155.39,334.44c3.74-1.31,7.68-2.05,11.79-2.24"/>
    <path d="M148.1,318.93c.96,1.17,1.12,3.33,1.94,5.42"/>
    <path d="M160.58,318.05c.34,1.72,.81,3.3,1.55,4.62"/>
  </g>
  <g class="clothesFoldLine">
    <path d="M32.16,77.55c1.75,4.92,3.02,9.8,2.15,14.52"/>
    <path d="M73.56,135.08c-5.96,3.09-12.06,4.69-18.29,4.71"/>
    <path d="M39.25,140.57c-3.62-1.47-7.13-3.48-10.45-6.03"/>
    <path d="M73.43,138.31c-5.44,3.3-11.51,5.05-17.73,5.26"/>
    <path d="M73.15,166.46c-3.76,3.98-8.87,4.97-8.33,8.42"/>
    <path d="M71.72,175.26c-1.45,.82-2.98,1.26-4.61,1.23"/>
    <path d="M21.14,160.22c4.7,5.65,14.11,9.41,5.78,8.6"/>
    <path d="M57.7,169.12c5.36-1.06,9.97-3.73,12.77-8.1"/>
    <path d="M22.35,152.29c4.38,8.04,11.92,13.37,19.87,15.82"/>
    <path d="M34.71,170.3c3.18,1.59,6.97,2.4,11.16,2.69"/>
    <path d="M89.15,105.38c-1.08,1.85-2.22,3.33-3.49,4.03"/>
    <path d="M3.22,175.01c1.5-.07,3.06,.45,5.02,.58"/>
    <path d="M53.79,191.77c-4.44-.29-9.79-1.44-13.96-1.31"/>
    <path d="M25.21,196.6c4.44,.19,8.57,2.3,12.4,6.26"/>
    <path d="M58.23,202.3c-2.99,.93-5.35,2.13-6.79,3.57"/>
    <path d="M59.79,205.87c-5.49,.89-10.58,2.17-14.49,4.57"/>
    <path d="M56.79,195.42c-2.05-.2-4.06-.22-6,.13"/>
    <path d="M44,194.64c-1.6-.36-3.59-.7-5.15-.32"/>
    <path d="M63.52,259.61c-5.08,2.29-9.4,4.91-12.73,8.48"/>
    <path d="M58.69,254.26c-3.92-.14-7.31-1.13-10.77-3.13"/>
    <path d="M53.75,256.22c-2.28-.15-4.37-.54-6.07-1.43"/>
    <path d="M58.04,257.65c-2.82,1.42-6.34,1.17-8.04,1.96"/>
    <path d="M29.13,256.61c-4.09-.64-8.05-1.63-11.7-3.53"/>
    <path d="M17.77,257.92c1.18,.77,3.78,1.33,5.88,1.42"/>
    <path d="M27.56,261.57c-3.26,1.04-5.35,1.96-7.05,3.78"/>
    <path d="M56.27,284.9c-2.79,4.54-5.75,8.94-12.79,9.53"/>
    <path d="M18.55,289.86c.52,8.48,1.53,19.94,9.66,16.44"/>
    <path d="M42.29,331.39c-2.29-.44-5.44-.29-7.5,.24"/>
    <path d="M64.57,321.47c-2.77-1.06-7.71-1.6-10.87-.73"/>
    <path d="M194.39,253.15c-.82-2.74-.81-5.79-2.9-8.24"/>
    <path d="M194.23,298.06c-3.25,2.36-11.34-1.27-6.57,3.29"/>
    <path d="M170.33,299.69c7.37-.31,14.84,2.49,3.22,2.8"/>
    <path d="M184.02,275.42c5.6,12.66-9.26,9.67-3.53,16.08,3.18,3.55-.33,4.11-7.88,2.9"/>
    <path d="M185.17,262.45c-.62,18.05,7.83,20.21,.31,24.9-4.86,3.03,2.18,7.05,6.95,6.95"/>
    <path d="M141.28,282.68c10.58,24.28,17.15,16.7,18.43,22.29"/>
    <path d="M142.42,293.37c3.22,6.33,6.95,8.71-2.18,11.93"/>
    <path d="M158.61,307.73c-3.12-.87-8.18,.56-8.1,1.62,.1,1.35,3.22,.41,6.54,.73"/>
    <path d="M138.69,312.35c2.7-2.28,7.99-3.11,8.09-4.56,.09-1.26-4.71,.18-7.68,2.8"/>
    <path d="M139.61,320.76c-1.54-2.94,9.35-4.98,5.41-6.12"/>
    <path d="M193.43,304.88c-.86,1.2-2.22,1.79-4.19,1.66"/>
    <path d="M172.3,246.78c-1.96,3.44-2.77,8-2.39,13.69"/>
    <path d="M162.65,251.56c1.56,2.49,1.76,5.08,3.93,8.09"/>
    <path d="M166.39,254.15c1.56-6.33,4.88-13.49,3.42-13.9-1.36-.39-1.76,5.29-2.9,9.13"/>
    <path d="M140.57,261.33c-1.18-2.74-3.01-5.08-5.41-7.06"/>
    <path d="M135.89,259.25c-8.61-7.99-2.39,3.62,5.5,10.98"/>
    <path d="M114,265.68c-1.76-12.03,.89-9,4.25,1.45"/>
    <path d="M116.81,280.81c-2.71-.51-4.41-1.48-6.45-4.25"/>
    <path d="M115.27,276.56c-3.14-1.97-4.59-4.05-6.25-7.88"/>
    <path d="M101.91,292.26c-.75,6.34,.38,12.84,4.41,19.57"/>
    <path d="M104.45,302.18c1.39,4.57,3.84,8.4,6.95,11.2"/>
    <path d="M96.95,280.69c2.6,1.68,5.21,1.5,1.94,4.47"/>
    <path d="M97.74,288.51c1.08,.3,1.93,.15,2.47-.57"/>
    <path d="M98.24,276.31c1.69,1.44,3.39,2.56,5.1,3.32"/>
    <path d="M99.2,260.11c2,3.18,4.13,5.77,6.56,7.06"/>
    <path d="M100.57,258.1c2.09,2.88,4.1,5.22,5.94,6.33"/>
    <path d="M113.24,241.48c2.12,2.11,4.21,3.09,6.23,4.17"/>
    <path d="M107.19,231.52c4.13,4.98,8.49,9.1,13.25,11.74"/>
    <path d="M152.06,247.94c-5.09,2.8-10.31,3.1-15.76,3.21"/>
    <path d="M161.71,241.82c-5.76,7.77-13.11,12.21-22.33,12.8"/>
    <path d="M155.49,260.48c-3.95,3.14-7.75,5.47-11.3,6.4"/>
    <path d="M149.83,268.54c-1.81,1.27-3.49,2.15-4.91,2.24"/>
    <path d="M107.19,208.69c5.66,7.56,11.67,13.9,18.22,18.44"/>
    <path d="M107.63,203.58c5.74,8.81,17.14,18.51,26.43,21.53"/>
    <path d="M108.2,195.01c3.4,6.2,7.63,10.76,12.82,13.4"/>
    <path d="M114.78,195.81c1.63,3.51,3.67,6.7,6.17,8.44"/>
    <path d="M124,193.7c.05,3.64,.95,6.91,2.72,9.52"/>
    <path d="M121.17,198.9c.89,2.82,2.12,5.2,3.67,7.13"/>
    <path d="M79.18,191.94c-2.04,.69-3.66,1.82-4.61,3.61"/>
    <path d="M81.98,192.46c-2.37,1.16-4.31,2.92-5.47,5.76"/>
    <path d="M73.64,200.81c-2.1,3.09-4.05,6.19-4.07,9.38"/>
    <path d="M76.23,206.86c-1.1,1.83-1.73,3.88-1.23,6.43"/>
    <path d="M78.32,211.54c.47,2.01,1.06,3.76,2.22,4.41"/>
    <path d="M88.9,214.28c-11.09-4.1-12.1-17.14,1.95-21.27"/>
    <path d="M84.15,202.54c3.28,.51,8.43-.62,13.97,.75"/>
    <path d="M98.15,191.33c-1.9,1.41-3.96,2.65-5.79,3.09"/>
    <path d="M161.9,214.19c-1.51,1.99-4.33,4.2-7.32,5.95"/>
    <path d="M167.31,214.03c-5.78,6.79-14.19,11.95-22.09,12.95"/>
    <path d="M173.81,211.65c-6.04,12.27-15.48,19.92-29.17,21.82"/>
    <path d="M178.78,215.39c-5.28,5.15-8.11,10.98-8.16,17.59"/>
    <path d="M182.87,217.59c-6.84,3.82-11.53,13.55-10.07,13.14,.69-.2,4.42-6.78,10.26-8.29"/>
    <path d="M179.57,227.99c-1.1,.82-1.99,1.67-2.52,2.59"/>
  </g>
  <path class="lipMaleMedium__noStroke" d="M166.43,206.92c-4.2,.61-8.97-3.44-7.74-5.09,3.48-4.1,8.07-.65,9.72-.91,1.6,1.18,2.65,1.5,4.27,.82,2.02,.71-.35,1.56-2.52,1.88,3.27,1.97-1.83,4.77-3.73,3.31Z"/>
  <g class="eyebrowBlack">
    <path d="M155.73,173.51c6.24-4,8.49,2.43,16.07,3.1-5.3,3.78-10.52-5.08-16.07-3.1Z"/>
    <path d="M184.53,180.59c.33-.49,1.2-1.61,1.45-1.89-2.17,.26-4.43,.97-5.89,.61,1.27,1.46,2.84,1.47,4.44,1.28Z"/>
  </g>
  <path class="hairBlack" d="M170.19,159.8c-2.68,15.81,5.95,15.18,9.59,17.93-.23-1.73-.86-2.6-1.92-4.07,4.95,4.49,13.74-2.31,16.9,2.86,4.39-3.81,6.24-13.86,4.25-17.03,.94,.21,2.63,2.16,4.99,2.35-8.25-9.31-7.45-25.4-27.39-33.3-8.03-3.18-18.38-4.34-24.52-1.9,.47-3.37,3.64-5.58,6.94-7.03-4.67,.07-9.13,3.21-10.86,7.51-1.51-3.61-7.94-3.07-10.22,.08,2.44-1.42,7.09-1.69,7.11,2.31-17.5,8.16-20.8,36.7-16.03,43.39-.59-10.12,12.05-11.85,12.09-2.07,1,.85,2.21,1.59,4.04,2.29,.04-2.8,1.72-3.67,3.46-3.74,2.37,1.02,5.03,1.76,10.23-.33-1.71,1.89-3.49,2.47-4.71,3.37,3.78,.94,12.08-.33,16.03-12.62Z"/>
  <g class="skinAshkenazi">
    <path d="M10.65,176.54c.73,2.03-1.71,2.52-4.44,11.57-1.23,4.09-4.03,8.27-2.96,12.83-.77,4.75-1.14,6.33-2.39,9.5-.4,1.09,.86,1.53,1.87,1.34-1.04,1.91,1.38,3.37,4.34,1.72,.92,.23,4.12-1.9,3.9-6.21,3.7-9.36,4.22-6.78,10.43-11.86,3.97-3.24,5-1.51,9.28-.04,6.06,4.9,9.3-1.01,7.84-1.5-7.7-2.43-7.44-6.17-10.03-10.31-2.91-4.66-3.98-3.4-6.12-7.77-5.17-16.79,.64-34.11-2.97-42.06,.65-6.8,9.84-25.01,13.09-38.13-2.61-3.31-12.24-8.37-17.13-8.83-9.29,19.31-8.89,27.58-12.22,36.29-7.89,20.62,2.25,38.29,7.49,53.45Z"/>
    <path d="M107.27,188.99c-2.59,3.92-6.18,1.57-8.72,2.24-4.84,1.28-4.04-4.48-2.94-6.3,1.52-2.53,4.41-2.85,8.69-4.56,3.6-1.44,7.46-3.99,10.5-1.8,3.64,2.63,6.06,2.47,7.91,4.7,3.85-1.28,6.38,7.87,2.49,8.21,.16,.9,.46,1.58,.73,1.91,1.91,2.35-2.25,4.69-3.93,2.58,1.34,1.95-2.62,4.08-5.4,1.17,.17,2.42-6.85,3.52-7.06-3.37-.65-4.6-1.47-3.11-2.27-4.78Z"/>
    <path d="M105.55,47.99c-.81,4.15-2.45,5.68-2.81,10.45-.17,2.22-2.92,16.46-15.18,22.8-4.44,2.3-5.78,5.69-11.19,4.95-5.11-.7-5.33-1.6-10.98-5.73-7.51-5.5-12.11-12.99-11.25-24.33-2.15,1.65-4.6,1.06-6.04-2.04-1.06-2.29-5.03-5.89-4.35-11.6,3.02,.09,7.89-.33,10.7-1.25,2.96-.97-.07,5.49,4.32,8.98,.17-3.97,1.97-7.3,4.04-11.65,2.89-2.06,5.08-1.65,7.52-2.87-2.75,3.41-5.86,8.12-7.37,11.69,8.18-10.39,18.32-20.47,27.06-21.81,6.72,3.77,14.49,13.7,15.52,22.41Zm-22.33,5.02c-.8-2.57-1.9-3.57-3.9-4.05-2.87-.7-5.13,.37-6.99,.71,.81,.7,1.18,2.83,5.13,3.98,2.3,.67,3.24,.07,4.99,.11,.39,0,1.13,.38,.78-.74Zm10.66,2.58c.76-.02,2.78,1.92,6.51,.6,.45-.64,.75-2.27,.62-2.93-.69-.41-1.53-.87-2.77-1.01-2.63-.29-3.72,1.34-4.81,2.68-.31,.38-.17,.67,.43,.66Z"/>
  </g>
  <g class="skinOverlapLine">
    <path d="M5.41,194.04c-.91,1.68-1.87,3.79-2.19,7.21"/>
    <path d="M10.63,194.63c-4.27,7.48-3.7,11.65-5.72,16.39-.16,.69-.11,2.18,2.17,2.49"/>
    <path d="M7.6,194.08c-2.89,5.48-3.05,14.32-4.87,17.71"/>
    <path d="M110.39,182.64c5.78,4.38,4.69,12.45,6.22,14.5"/>
    <path d="M116.69,182.28c5.21,4.53,4.27,11.41,5.31,13.69"/>
    <path d="M122.71,183.27c1.42,1.61,2.43,5.31,2.49,8.21"/>
    <path d="M100.07,185.09c1.41-.73,2.55,.73,5.52,.52,1.67-.31,2.5,1.51,1.68,3.38"/>
    <path d="M44.85,139.4c.88,1.01,1.61,1.53,2.25,2.1,1.07,.75,1.17,3.14,2.03,4"/>
    <path d="M41.27,143.77c2.54-1.03,4.44,3.29,4.57,4.79"/>
    <path d="M49.03,137.05c1.14,4.19-.03,7.14-.12,11.45"/>
    <path d="M43.34,144.06c.73,.09,1.34-.03,2.03-.28,1.38,.92,1.19,2.52,3.58,3.75"/>
    <path d="M201.79,178.64c.52,3.03,.58,6.24,1.05,8.34"/>
    <path d="M196.09,175.97c1.66,2.27,3.06,5.78,4.32,9.38"/>
    <path d="M190.49,177.01c1.61,1.26,3.23,4.07,4.86,6.73"/>
    <path d="M184.63,187.76c1.08-2.07,2.55-3.57,4.25-3.55-1.15-.27-1.78-1.22-1.58-2.2"/>
  </g>
  <g class="skinFoldLine">
    <path d="M92.11,147.58c-2.53,1.48-4.89,2.58-6.99,3.09"/>
    <path d="M13.61,129.98c2.02,1.08,4.03,2.29,5.81,3.78"/>
    <path d="M188.88,184.21c-1.43,.19-2.46-.08-2.95-.38"/>
    <path d="M139.18,173.97c.96-11.7-12.99-7.68-6.32,4.8"/>
    <path d="M138.42,175.53c-2.64,.08,.32,5.27-1.78,4.94-1.32-.2,.23-1.92-1.95-4.36s.52-6.05,1.73-4.09"/>
    <path d="M45.46,42.5c-.13,1.73,.26,3.86,1.5,6.25"/>
    <path d="M52.68,42.9c-.04-.41-.1-.79-.17-1.15"/>
    <path d="M52.39,45.35c-2.59,.03,1.35,5.43-1.23,5.36-1.56-.04-.16-1.53-2.07-3.47-2.53-2.56,.47-6.2,1.43-4.22"/>
  </g>
  <path class="lipFemaleMedium__noStroke" d="M85.14,74.66c.63,6.24-8.56,7.36-9.06,1.82-.06-.7,0-1.54-.75-1.98,.3-.08,.57-.28,.79-.44,3.85-.13,8.23-.79,9.02,.61Z"/>
  <path class="lipFemaleMedium" d="M76.12,74.05c1.97-1.63,5.09-3.66,6.94-1.05,.52,.5,1.65-1.59,2.48,.54,.29,.73,.26,1.69,.84,2.39-.76-.18-1.24-1.65-1.77-1.73l-8.48-.14Z"/>
  <g class="eyebrowLightBrown">
    <path d="M70.45,45.44c5.9-5.38,12.74-.48,17.47-1.26-2.58,5.62-10.22-2.12-17.47,1.26Z"/>
    <path d="M96.52,45.12c-.13,5.07,4.09,2.91,8.25,5.72,.21-.6,.4-1.23,.58-1.95-2.92-2.43-5.95-1.1-8.83-3.78Z"/>
  </g>
  <g class="mouthInner">
    <path d="M159.51,202.54c.93,0,3.05-.76,4.46-.09,2.77,1.47,5.15,1.59,7.27,.76-4.97,.29-6.63-5.49-11.91-1.88-1.07,.73-.38,1.2,.18,1.21Z"/>
    <path d="M76.12,74.05c2.51,3.12,7.23,3.6,8.48,.14-.78-.54-1.31-.17-2.33-.62-1.76-.78-4.17-.55-6.15,.48Z"/>
  </g>
  <g class="teeth">
    <path d="M161.1,200.41c1.05,1,2.45,1.91,3.95,2.56,2.32,.97,4.36,.97,6.19,.25-4.36,.26-6.18-4.18-10.14-2.81Z"/>
    <path d="M82.27,73.57c-1.5-.66-3.46-.59-5.23,.07,.34,.27,1.06,.42,1.75,.47-.8,1.33,.63,1.66,2.67,1.85,1.81,.17,2.41-.53,3.14-1.77-.78-.54-1.31-.17-2.33-.62Z"/>
  </g>
  <g class="lipOverlapLine">
    <path d="M174.43,201.19c0,1.03-.92,1.76-3.19,2.03"/>
    <path d="M171.68,204.62c-.46-.49-1.06-.83-1.79-1.02"/>
    <path d="M76.12,74.05c-.79,.66-1.57,.64-1.96,.4"/>
  </g>
  <g class="lipEdgeLine">
    <path d="M168.41,200.92c1.6,1.18,2.65,1.5,4.27,.82"/>
    <path d="M161.98,206.1c1.96,1.47,2.87,.51,4.44,.81,1.25,.24,2.03,.93,3.51-.26"/>
    <path d="M84.96,76.73c-1.32,4.34-8.44,4.6-8.88-.26"/>
  </g>
  <g class="noseLine">
    <path d="M176.52,188.5c-.55,3.57,3.23,8.04-.71,9.9-2.7,1.27-5.11-.97-6.92-1.21-4.71-.61-3.68-4.29-2.07-4.7"/>
    <path d="M90.91,60.83c-.05,4.03,2.23,6.78-1.35,8.15-3.82,2.4-7.05-.83-8.36-1.19-3.24-.89-1.72-3.8-.41-4.33"/>
  </g>
  <g class="eyeFoldLine">
    <path d="M184.77,187.58c-.94,.46-2.31,.48-3.59-.22"/>
    <path d="M166.16,184.09c-1.57,.66-4.98,.58-7.08-1.25"/>
    <path d="M99.72,57.96c-.97,.88-3.61,1.38-5.55,.03"/>
    <path d="M81.29,55.62c-3.67,1.67-6.63-.61-8.11-2.18"/>
  </g>
  <g class="eyeCornerLine">
    <path d="M155.17,179.49c1.45,.2,3.91,.57,5.17,.49"/>
    <path d="M70.54,49.92c.52,.07,1.16-.03,1.8-.26"/>
    <path d="M101.02,53.26c.4,.25,.58,.57,.71,.88"/>
    <path d="M100.39,56.19c.35-.16,.71-.48,1.02-.75"/>
  </g>
  <g class="eyeCreaseLine">
    <path d="M157.97,178.29c4.17,.38,7.73-.95,9.98,1.94"/>
    <path d="M71.87,48.29c3.43-1.16,9.05-1.8,11.77,1.72"/>
    <path d="M93.65,52.41c2.61-1.55,5.45-2,8.16,.25"/>
  </g>
  <g class="hairOverlapLine">
    <path d="M148.64,169.38c-1.56-.5-3.61-2.82-5.15-2.66,1.58-.82,3.58,0,5.12-.66"/>
    <path d="M75.07,132.34c2.35,3.54,6.33,5.77,2.89,9.02"/>
    <path d="M75.19,121.01c2.23,4.15,7.95,7.04,2.2,14.24"/>
    <path d="M75.43,108.42c2.41,8.43,11.27,10.6,2.83,16.85"/>
    <path d="M75.55,95.29c2.78,8.19,11.18,11.29,3.9,20.31"/>
    <path d="M80.57,85.87c2.54,4.74,4.27,10.62-.98,16.57"/>
    <path d="M84.6,88.82c-.63,1.08-1.37,2.1-1.96,2.63"/>
    <path d="M83.06,104.69c-.44,.54-.89,1.01-1.35,1.38"/>
    <path d="M82.21,117.16c-.36,.47-.68,.83-.97,1.07"/>
    <path d="M80.66,128.3c-.21,.3-.47,.55-.8,.78"/>
    <path d="M80.12,137.29c-.27,.32-.57,.61-.9,.88"/>
    <path d="M40.46,132.83c.12,.15,.24,.29,.37,.42"/>
    <path d="M39.82,123.4c1.95,3.24,6.29,5.34,4.48,9.66"/>
    <path d="M39.18,111.18c2.67,7.67,9.63,9.55,3.58,15.78"/>
    <path d="M38.95,98.84c2.49,8.01,10.29,9.42,3.23,17.81"/>
    <path d="M39.26,84.69c4.01,7.55,10.27,11.28,3.07,20.29"/>
    <path d="M38,68.74c4.08,9.71,11.73,9.94,5.05,21.97"/>
    <path d="M37.88,50.99c3.93,12.19,12.9,14.18,5.33,25.87"/>
    <path d="M45.52,127.29c-.45,.66-.91,1.2-1.39,1.55"/>
    <path d="M45.39,117.31c-.54,.73-1.07,1.28-1.6,1.59"/>
    <path d="M46.97,104.02c-.96,1.35-1.92,2.54-2.88,3.5"/>
    <path d="M47.83,89.64c-1.15,1.5-2.22,2.79-3.2,3.79"/>
    <path d="M48.54,74.16c-1.23,2.01-2.5,3.73-3.83,4.94"/>
    <path d="M48.66,55.1c-1.02,3.21-2.43,5.92-4.4,7.93"/>
    <path d="M103.26,35.56c2.06,3.95,3.25,8.71,3.65,14.24"/>
    <path d="M105.55,47.99c.2,1.12,.34,1.9,.45,2.86"/>
    <path d="M70.33,35.71c.91-1.13,2.01-2.22,3.25-3.28"/>
    <path d="M62.82,38.58c-2.38,1.58-5.15,1.77-8.36,2.67"/>
    <path d="M43.76,42.5c-.7,0-1.34-.04-1.91-.14"/>
  </g>
</svg>