<svg viewBox="0 0 224.26 392.33">
  <g class="soleWhite">
    <path d="M199.2,382.3a12.88,12.88,0,0,1-.6,4.54c-.61,1.94-5.84,4.08-10.08,4.8-3.84.65-13.75.45-17.16-1.48-1.09-.62-1.62-2.37-1.85-5Z"/>
    <path d="M160.21,382.46a12.85,12.85,0,0,1-.59,4.53c-.39,1.23-4,2.67-8.21,3.07-2.3.21-5.71,1.52-7.27,1.73-3.86.54-10.66.46-14.08-1.48-1.09-.62-1.47-2.37-1.69-4.95Z"/>
    <path d="M85.45,382.93c.87,1.15.56,5.11,0,6.39-1.58,3.08-23.64,4.13-27.61.09-1-1.37-.64-5,0-6.27C59.43,373.23,79.71,373,85.45,382.93Z"/>
    <path d="M22.37,382.64c-.87,1.15-.56,5.11,0,6.39,1.59,3.08,23.5,4.13,27.47.09,1-1.37.78-5,.13-6.27C47.79,373.31,27,372.22,22.37,382.64Z"/>
  </g>
  <g class="bennett">
    <g class="bennettShoe">
      <path d="M79.16,354.88c.21,3.82-.24,6.34.93,9.23,2.91,7.2,2,14.33,5.36,18.82-4.87-8.15-24.91-8.63-27.64.21.06-3,1.77-7.08,2.32-11.35.83-6.5,3.8-10,3.72-17.22Z"/>
      <path d="M29.86,354.49c-.21,3.82.28,6.44-.89,9.33-2.91,7.2-4,14.24-6.6,18.82,3.44-8,24.92-8.63,27.64.21,0-3-2.66-7.05-2.93-11.35-.38-6.26-2.58-5.51-2.18-17.21Z"/>
    </g>
    <g class="shoelace">
      <path d="M77.67,375.57c-3.13-1.39-9.87-1.11-12.52-.3.06-4.42-.68-8.16-.31-11.68a28.13,28.13,0,0,1,13.1.29C78.34,367.32,77.06,371.19,77.67,375.57Z"/>
      <path d="M30.93,375.13c3.13-1.39,9.4-1,12.06-.15-.07-4.42.68-8.16.31-11.68a33.35,33.35,0,0,0-12.64.14C30.26,366.88,31.54,370.75,30.93,375.13Z"/>
    </g>
    <path class="bennettJeans" d="M91.75,204.9A300.46,300.46,0,0,1,90.16,279c-.4,2.66,3.06,6.85-1.72,10,.49,2.36,3.84,5.58,0,7.94-.68,15.56-3.74,35.63-4.32,46.78-.14,2.7,1.94,6.49-2.76,8.28,4.68,3.95.71,6.55-1.71,10.77a18.5,18.5,0,0,0-1.69-4.1c-.4-3.76-12.37-3.84-12.8-.17A4.92,4.92,0,0,0,63,361c-.47-3.6-3.09-7.09.43-9.18-5.8-2.27-2.12-8.59-2.51-13.9a358,358,0,0,1-.35-38.4c.1-1.69-2.64-6.46,2.45-8-5.8-.89-3.1-5.79-3.19-7.84-.58-14.25-2.13-28.43-3.19-42.8-.54,14.74-2.68,28.68-3.31,42.92-.08,1.87,2.18,7.3-3.67,7.48,4.82,3,3.27,5.75,2.45,8.58-1.22,15.71-2.53,32-2.21,39.36-.24,3.19,3.07,7.11-.86,10.67,4.15,6.58-1.65,8.65-3.35,15.08-1.18-1.89-1.23-4.81-2.25-6.13.1-3.79-12.24-3.64-12.58.42-.57.54-.92,3.15-1.93,4.49-1.14-5.21-4.63-7.15-1.71-12.88-5.75-4.07-.47-8.25-1.23-13.61-1.43-10.06-2.49-26.1-3.36-37-.26-3.22-2.71-5.93,1.77-8.85-5.51-2.63-2-6.76-2.33-9.81-2.21-20.49-5.24-57.16-2-75.53Z"/>
    <path class="bennettSleeves" d="M.82,176.91c2.72,1.71,20.31,1.4,21.65-.11,39.9,8.52,53.89,2.93,65.54,2,5.6-.47,18-2.47,20.1-6.32-3.25-6.34,1.62-7.8-2.1-14.36,4.14-4.15-.3-11.91-1.59-36.24-.82-15.4-12.18-18.11-20.2-20.46a67.54,67.54,0,0,1-11.89-4.87c-12.58-6.76-26-4.27-36.52,1.33-12.92,6.85-25.92,4.06-29.24,21.77-2,10.83-4,21.24-4.18,30.9-.09,4.24-3.23,5.94-.91,11.3C.12,163.34,0,166.23.83,169.15c.47,1.63-1.25,2.39.19,4.52A3.56,3.56,0,0,0,.82,176.91Z"/>
    <path class="shirtWhite" d="M18.86,207.74c1.87-2.22.59-4.51,1.81-5.77-2.83-2.81,1-4.5.18-7-3-4.16,2-2.06.62-21.6-1.21-.8-.65-2.59-.32-4.37.75-13.31-1-30,.49-42.09,3.83-4.56,7.5-5.4,10.38-8.73a43.59,43.59,0,0,1,9.81-8.55c6.38,3.32,21.39,3.55,28.74-.8a123.38,123.38,0,0,0,20.36,18c1,10.8.15,21.35.15,29.14,0,7,2,4.76.65,8.39,1.49,5-.36,5.31-.17,7.92s1.09,5.86-.42,8.24c-1,10.54,3.14,12.68.63,17.7-1.13,3.64,1.38,6.4,1.16,9.65-12.11,2.66-17.29,8.95-35.4,8.68C35.33,216.14,33,211.93,18.86,207.74Z"/>
  </g>
  <g class="sasha">
    <g class="sashaShoe">
      <path d="M195.82,368.66a26,26,0,0,1,3.38,13.64c-1.5,2.11-5.72,4.38-10.55,5.39-3.78.78-17.92-.11-19.14-2.48a7.9,7.9,0,0,1,3.53-7.73c2.11-3.46,1.92-6.28,5.32-9.67C181,365.14,194.11,365.89,195.82,368.66Z"/>
      <path d="M157.91,368.81c1.89,3.45,2.64,9.71,2.3,13.65-1,1.41-4.81,3.44-9.17,3.88-2.31.23-5.17,1.25-6.77,1.5-3.85.59-14.68-.1-15.9-2.48-.34-2.85,2.06-6.51,5.38-7.72,2.1-3.47,3.3-6.28,6.7-9.68C143.12,365.29,156.35,366,157.91,368.81Z"/>
    </g>
    <g class="sashaSock">
      <path d="M179.5,358.2c.13,3.47.27,6.81-.31,9,3.68-1.76,12.28-1.5,13.48,3.11a1.89,1.89,0,0,0,2.27-1.56c-.38-3.5.33-6.7.61-10.69Z"/>
      <path d="M141.51,356.56c.13,3.47.36,8.6-.23,10.83,3.68-1.75,11.82-1.49,13,3.12a2,2,0,0,0,3.2-.95,62.89,62.89,0,0,1-.46-11.31Z"/>
    </g>
    <path class="sashaPants" d="M203.1,204.77c8.08,28.1-3.75,72.86-3.19,95.09-.23,13.82-1,27.09-.84,39.66.05,4.06,1.48,9.24-1.46,11.57a27.25,27.25,0,0,0,.62,8.25c-2.56,2.77-18.59,3.25-22.59-.26.58-1.7,1.23-1.75.31-4.05-.65-1.63-1.21-11-2.15-26.71-.92-15.38-.78-14.41-1.83-22.64-.54-4.19-1.69-16.62-2.29-21.39-1.75-13.91-1.8-11.68-3.14-26.3-.16,14.32-.74,19.75-1.15,28.85-.45,10-1.73,18.43-1.49,25a110.81,110.81,0,0,1-2,24.33c-.61,2.67.86,5.7-1,8.17-.15,5.35.93,11.19,0,13.66-2.23,3.72-17.41,2.68-21.57-.15-1-10.39-.81-21.54-1.78-31.33-1.63-16.49.33-24.31-.59-32.35-2.36-20.43-10.46-56.54-2.31-89.46Z"/>
    <path class="sashaShirt" d="M183.45,100.77c8,2.24,18.44,3.64,25.58,6.83,9.53,4.25,10.41,14.84,12.69,18.78-2.79,2.69-14.66,5.5-18.23,5.88.27,11.13.53,27.37-.12,39.65-.76,14.54,4.08,17,.64,22.2.38,5,2.38,7.69.25,12-7.39,4.59-64.53,4.24-70.84,1-1.94-2.08-2-4.72-.64-7.77-2.29-3.57,1.92-6.52,1.79-13.15-.36-18.55-2.48-36.72-.69-53.8a54.94,54.94,0,0,1-16.75-6.76c2.68-4.21,3.62-14.15,11.78-17.59,9-3.79,12.27-2.68,24.25-7.27Z"/>
    <!-- <g class="birthrightLogo">
      <g class="birthrightLight">
        <path d="M143.92,144.58c17.34-7.2,32.76-5.64,46.67,2.85C162.12,136.11,154.44,146.3,143.92,144.58Z"/>
        <path d="M155.32,151.54l12.43-18.48c4.73,7.93,10.77,17.82,11.38,20.26L167.55,137C162.89,143,158.29,149.85,155.32,151.54Z"/>
        <path d="M162.35,158.64c8.41-7.82,16.38-14.38,14.51-16.33Z"/>
        <path d="M158.4,140.21c-1.33,2.61,4.86,8.89,13.9,19.33Z"/>
        <path d="M177.59,151.78c-6.81,2.39-19.87,1.72-21-2.43C162.89,151.38,170.9,152,177.59,151.78Z"/>
      </g>
      <path class="birthrightDark" d="M167.57,142.41a3.42,3.42,0,1,1-3.42,3.41A3.4,3.4,0,0,1,167.57,142.41Zm-.86,3.41a.86.86,0,1,0,1.71,0,.85.85,0,0,0-.85-.85A.86.86,0,0,0,166.71,145.82Z"/>
    </g> -->
  </g>
  <g class="hairLightBrown">
    <path d="M189,158.79c.92-5-3.62-11-1.64-15-2.6-2.93-4.21-5.69-1.4-9.32-3.15-3.9-2.58-7.45-.33-10.71-2.11-3.22-2.39-7.42.65-10.55-3.13-3.63-3.95-7.75-1.07-11.71-9.15-12.19.25-22.93,13.15-22.93,2.13,4,2.5,8.65-1.11,14.56,3.23,2.43,3.68,6.25-.26,12.25,3.41,3.75,3,7.66-1.31,12.39,3.5,2.47,3.35,6.87-.39,11.73,2.45,2.86,3.15,5.69-.13,10.56,2.11,2.54,2.83,6.2-1,11.35,0,2.09-.91,4.69-.28,7.38,5.12,7.81.71,17.23-5.95,25.27C193.92,172,181.71,171.65,189,158.79Z"/>
    <path d="M149.1,158.94c-.9-5.57,3.48-8.81.05-12.67,3.16-3.08,4.53-6.43,1-10.63a9.18,9.18,0,0,0,.66-11.45c2.14-3.62,2.72-7.9-.33-11,3.13-3.63,3.29-8.07.41-12,9.15-12.2,2-22.56-11.75-22.56-2.67,4.62-1.84,9.06,2,13.75-3.23,2.43-4.77,6.19-.82,12.19-3.41,3.75-3,7.16.49,13.18C137.75,120,138.67,125,142,130c-2.44,2.86-1.79,6,1,11.45-2.11,2.54-2.71,6.64.91,11.86,0,2.09,1,2.91.38,5.59-3.78,7.44-2.36,14.26,2.58,24.8C145.51,174.07,154.29,174.44,149.1,158.94Z"/>
    <path d="M189.93,80.57c23.28,2.23,25.5-27.37,14.53-47C196.4,19.08,181.75,8.8,164.58,12.68c-21.8-5.64-34.4,24.38-33,41.62a32.06,32.06,0,0,0-2.21,6.38,31.93,31.93,0,0,1,2.43-5.25,10.79,10.79,0,0,0,2.25,5.64c-1.39,9.28,1.76,16.79,7.79,20.68C154.49,75.18,171.64,77.12,189.93,80.57Z"/>
  </g>
  <g class="sashaHairTie">
    <path d="M193.74,154.63c0,.47-5,.47-5,0-.4,0-.18,3.78.2,4.16.48.56,4.3.52,4.84,0S194.14,154.63,193.74,154.63Z"/>
    <path d="M144.05,154.91c0,.47,5.21.47,5.21,0,.39,0,.22,3.65-.16,4-.48.57-4.3.53-4.84,0C143.85,158.56,143.65,154.91,144.05,154.91Z"/>
  </g>
  <g class="eye">
    <g class="sclera">
      <circle cx="161.79" cy="58.69" r="20.63"/>
      <circle cx="64.39" cy="56.52" r="19.1"/>
    </g>
    <g class="irisGreen">
      <circle cx="174.36" cy="58.16" r="3.14"/>
      <circle cx="150.26" cy="58.16" r="3.14"/>
    </g>
    <g class="irisDarkBrown">
      <circle cx="75.26" cy="56.03" r="3.14"/>
      <circle cx="51.92" cy="56.03" r="3.14"/>
    </g>
    <g class="pupil">
      <circle cx="174.36" cy="58.16" r="1.22"/>
      <circle cx="150.26" cy="58.16" r="1.22"/>
      <circle cx="75.26" cy="56.03" r="1.22"/>
      <circle cx="51.92" cy="56.03" r="1.22"/>
    </g>
  </g>
  <g class="skinAshkenazi">
    <path d="M110.27,216.72c2-20.46-.15-32.61,5.26-50.36,1-2.78,1.6-26.1,3.32-39.7a60,60,0,0,0,15,5.73,181.65,181.65,0,0,0-.5,25.26c-.64,7.55-1.55,10.36-1.63,14.46,1.86,14.37-8.13,29.62-8.64,45.34.16,4.25,4.82,8.36,5.88,12.09,1.61,5.63-.05,7.89,1,10.15.49,1.69-3.29,2.26-5.14-.24.33,4.18-1,5.14-2.19,5.55-1.71.61-3.53.56-5.06-3,1,4.91-5.95,4.83-6,1.12l-6.18-11.72C106.44,221.94,109.75,220.22,110.27,216.72Z"/>
    <path d="M148.11,78.53c7.91,11.31,5.9,15.3,5,22.24-2.7,8,9.25,13.24,14.29,19,6-5.21,17.15-11,16-19-.87-8.83-1.68-20.18,5.3-24.72"/>
    <path d="M206.2,252c-2.23.62-2.38-1.92-1-3.85-1.61-1.15-1-5.82-1.4-8.46-2.21-16.24,4.41-18.05,4.48-23.47.31-10.31-1.14-18.61-3-27.19h0c.05-3.1-2.46-6.39-1.89-17.14.65-12.28.42-28.48.12-39.65,2.79-.3,11.24-2.08,15.47-4.12,1.67,11.74.44,28.05,2.88,40.59,4.23,16.22-1.18,34.82-1.18,50.54-.15,1.82,1.1,3.53,3.09,10.28,1.15,3.93-1.62,15.31-4.84,15.32-1.27,3.17-3.24,4.48-5.71,4.46C209.9,252.71,207.75,251.59,206.2,252Zm3.08-16a24.4,24.4,0,0,0,.38,7.38C210.85,239.64,209.6,238.82,209.28,236Z"/>
    <path d="M155,31c10.12,2.38,26.28,13.09,34,24.64-2.58-6.17-8.68-13.55-15-18.48,6,3.14,11.81,9,17.6,16.08a33.67,33.67,0,0,1,0,12.38c3.24-4.35,2-9.8,3.49-8.37a47.22,47.22,0,0,0,7.82,6.83c-1.5,3.24-4.14,5.6-4.49,6.75-.66,2.11-2.87,5.15-6,2.68C191,82,185.72,89.27,176.49,93.21c-8.34,3.57-9.28,4.78-15.44,4.61-4.88-.14-6-2.89-11.45-6.47-14.25-9.26-8.59-29.78-9.38-33.54a34.61,34.61,0,0,1,.11-15A51.06,51.06,0,0,1,155,31Zm14.66,28.72a18.08,18.08,0,0,0,4.86.4,17.4,17.4,0,0,0,5.6-1.54c-1.92-1.1-3.82-2.53-6-2.47-2.38.07-3.67.76-5.5,2.89C167.77,60,169.25,59.58,169.68,59.69Zm-14.33-.55a6.37,6.37,0,0,0-6.26-3c-2.1.19-3.62,2-4.84,2.71a14.77,14.77,0,0,0,5.26,1.32,13.07,13.07,0,0,0,4.63-.27C154.57,59.73,155.92,60.06,155.35,59.14Z"/>
  </g>
  <g class="skinEastAsian">
    <path d="M18.45,216.12c-.81-12.38,3.06-28.37,2.6-38.77-4.32,1-16.7,1-19.85-.25-.58,11.06,4.7,27.14,4.7,39.55C6,219,3,220.86.74,230.35c-1.13,4.75-.32,12,2.59,12.3.4,2.66,2.67,3.69,4.46,2.95.68,1.89,3.72,2.24,5.08,1.54.87,1.73,5.26,1.8,5.53-.69,1.17,1.41,4.27.84,3.55-1-1.09-5.39.3-7.36,0-14C21.68,224.18,18.7,219.89,18.45,216.12Z"/>
    <path d="M76.56,77.49c-5.26,6.13-5.69,16.65-3.74,21.34.34,10.11-35.2,10.11-34.22-.84,2.36-3.61,3.13-8.46-2.35-24"/>
    <path d="M123.17,216.19c4,1.3,4.9,3.39,6.44,5.56,1.24,1.75,2.75,3.52,2.75,5.58-.13,2.35-2.26,2.71-3.38,5-2,2.24-5.55-2.06-1.48-5.9C124.88,222.4,122.72,219.67,123.17,216.19Z"/>
    <path d="M125.36,238.87c.17,2.8-4.4,2.78-4.83.82-1.06-4.77-1.27-10.66,1.17-11C125,228,125.06,233.77,125.36,238.87Z"/>
    <path d="M117.63,242c-.45-.85-.16-2.67-1-4.66,2.41-6.17-2.34-8.28-3.49-5.11-.53,1.46-.44,1.38-1,2.81,1.11-4-2.39-5.82-3.23-3.64-.29-2-2.66-2.42-3.18-.79-.36,1.13-1.17,2.44-1.47,3.66-.6,2.45-1.33,5.19,2.64,5.14,0,3.51,5.1,5.11,5.57,1.69C113,244.36,117.33,244.3,117.63,242Z"/>
    <path d="M75.1,89.31c-4,3-5.34,6.22-11.39,6.55s-6.87-.62-15.22-4.19c-9.22-3.94-14.18-11-16.59-19.27-3.59,2.38-4.56-.79-5.68-2.7-1.21-2.06-8.27-11-2-16C21.44,33.94,55.32.53,85.61,32.59,83.15,45.8,87.25,44,84.78,56.51,84,60.28,89.23,78.67,75.1,89.31ZM58,56.66c-1.61-1.85-3.49-3-5.81-2.79-2.51.19-3.93,1.48-5.58,2.77A18.05,18.05,0,0,0,52,57.85c2.18.06,3.46-.5,5.11-.63C57.57,57.19,58.64,57.37,58,56.66Zm13.64.72c1.49,0,2.19.44,4.49.44,1.83,0,2.72-.6,4.53-1.09-1.23-1-2.1-2.81-5-2.73-2.41.06-3.46,1-5,2.74C69.92,57.51,71.22,57.39,71.65,57.38Z"/>
    <path d="M105.6,230c1.18-8.23,4.17-9.94,4.67-13.26.83-8.41,1-16.05,1.19-22.46h0c-1.7-8.45-2.49-15.2-4.73-20.35-3,2.25-9.73,3.68-14.83,4.4a5.34,5.34,0,0,1-.76,2.14c-.83,8.7,1.85,11.67,1.4,15.27,4.58,7.67,11.23,17.4,12.72,23.63C105.79,221.56,104,225.24,105.6,230Z"/>
  </g>
  <g class="clothesDisplayLine">
    <path d="M85.45,382.93c-3,2.36-23.62,1.84-27.64.21"/>
    <path d="M22.37,382.64c3,2.67,23.5,2.85,27.64.21"/>
    <path d="M91.3,217.88a18,18,0,0,1-11.78-5.43"/>
    <path d="M33.59,213c-4.17,2.82-8.88,4.87-14.63,4.33"/>
    <path d="M54.76,216.41c1.26,2.51-1.22,5.53,0,9.27,1.34,4-1.56,7.9,1.89,15.27"/>
    <path d="M55.54,237.93c6.31-.19,9-3.61,8-7.47-.58-2.23.53-5.22-.41-7.28-.84-1.86,1.08-4.76.2-6.86"/>
    <path d="M184.19,209.1c2.54,5.61,8,7.84,15.51,8.16"/>
    <path d="M150.15,209.18c-1.88,4.37-6.18,7.87-15.23,7.34"/>
    <path d="M162.69,209.53c-.95,7.71.72,6.63.14,12.35-.91,8.8,1.37,5.28.6,11.77-.47,4,1.18,10.25,1.89,13.66L166.54,258"/>
    <path d="M172.32,209.47c-1.24,9,.51,6.45.19,12-.49,8.37.93,5.86.2,11.92-.48,4-3.08,6.2-8.65,5.55"/>
  </g>
  <g class="clothesOverlapLine">
    <path d="M154.29,370.51a4.73,4.73,0,0,1-.46,3.27"/>
    <path d="M78,366a43.57,43.57,0,0,0-13.28-.17"/>
    <path d="M77.82,368.42a44.59,44.59,0,0,0-13-.17"/>
    <path d="M77.59,370.81a30.92,30.92,0,0,0-12.6-.17"/>
    <path d="M77.5,373.3A23.14,23.14,0,0,0,65.12,373"/>
    <path d="M77.94,363.88c-.16-1.78.08-3.51,0-5.22"/>
    <path d="M64.84,363.59c.16-1.84.2-3.6.32-5.1"/>
    <path d="M30.59,365.56a40.48,40.48,0,0,1,12.81,0"/>
    <path d="M30.78,368a41.44,41.44,0,0,1,12.53,0"/>
    <path d="M31,370.37a28.61,28.61,0,0,1,12.15,0"/>
    <path d="M31.09,372.86a21.6,21.6,0,0,1,11.93-.2"/>
    <path d="M30.66,363.44c.05-.9.19-2.41.24-4.11"/>
    <path d="M43.3,363.3c-.12-1.08.3-2.88.18-4.39"/>
    <path d="M203.93,113.25c-4.53-1.68-1.44,10.58-.44,19"/>
    <path d="M132.55,113.59c1.39,5.6,1.27,11.92,1.33,18.8"/>
  </g>
  <g class="clothesFoldLine">
    <path d="M87.32,117.63c-.32,3.1,2.13,5.84,3.61,9.13,1-5.73,4.81-13,2.24-14.55s-2.13,3.29-2.34,8.5"/>
    <path d="M95.83,121.24A9,9,0,0,1,92.21,127"/>
    <path d="M99.35,135.51c-1.35,5.17-5.72,13.12-7.24,14.32"/>
    <path d="M96.57,147.81c-1.79,3.78-3.61,6.33-5.49,7.12"/>
    <path d="M74.46,140.05c-11.39,1.33-21.91,1.85-30.29.43"/>
    <path d="M61.07,143.88a217.86,217.86,0,0,1-26.89-1"/>
    <path d="M86.79,163.43a54.43,54.43,0,0,1-15.2,2.77"/>
    <path d="M91.73,164.29a34.52,34.52,0,0,1-13,3.39"/>
    <path d="M35.14,172.57c-5.12-.37-10-.83-13-1.8"/>
    <path d="M21.47,173.34c2.83,1.25,11.6,1.93,19,2.1"/>
    <path d="M88.28,178.74a57.75,57.75,0,0,1-13.28,3"/>
    <path d="M91.14,180.45c-2,1.44-7.42,2.83-10.54,2.89"/>
    <path d="M64.47,185.86c-8.13.28-15.6-.09-21.46-2"/>
    <path d="M66.92,188.62a78.06,78.06,0,0,1-15.09.11"/>
    <path d="M22.17,190.32c3.62,3.06,8.22,5,13.4,6.17"/>
    <path d="M20.85,194.94c5.15,3.88,12.06,4.95,5.89,5.05"/>
    <path d="M20.67,202a49.94,49.94,0,0,0,15.43,3.55"/>
    <path d="M74.57,209.56c-5,2.55-27.31,2.66-34.43-.21"/>
    <path d="M90.14,195.89a47.34,47.34,0,0,1-21.31,3"/>
    <path d="M91.58,198.51a33.15,33.15,0,0,1-13.71,3.4"/>
    <path d="M1,173.67c2.46,1.1,6,1.43,10,1.45"/>
    <path d="M21.22,167.68a53.36,53.36,0,0,1-14.46,1.07"/>
    <path d="M1.48,161.81c7.73,2.15,19.58.09,7.73,3.54"/>
    <path d="M10.06,160.24c-11.07-1.19-1.7-3.93,6.8-.53"/>
    <path d="M9.74,142.5c3.22,7.83,7.12,14,11.61,18.6"/>
    <path d="M9.21,127.72c-.32,6.49,5.42,19.56,10,24.55"/>
    <path d="M12.5,114a22.58,22.58,0,0,0,6.59,9.89"/>
    <path d="M27.59,123.9a11.86,11.86,0,0,0-5.95,3c-5.31-22.11-7.33-13.61-5.42-9.78"/>
    <path d="M29,127.51a13.08,13.08,0,0,0-6.17,2.34"/>
    <path d="M49.38,238.67c-4.73.28-10.59,1.67-15.27,2"/>
    <path d="M51.36,240.85a48.65,48.65,0,0,1-8.31,6.76"/>
    <path d="M79,239.92c-5.61-.06-10.89-.13-15.59-.21"/>
    <path d="M64.76,242.73a52.5,52.5,0,0,0,9.88,6.13"/>
    <path d="M83.89,286.37c-5.41,3.08-11.62,4.06-19.23,1.35"/>
    <path d="M88.44,289c-2.06.91-5.3.94-3.31,3.3"/>
    <path d="M88.44,296.93c-2.22.1-4.06.53-5.07,1.7"/>
    <path d="M63,297.59c3.32,1.25,7.34.82,10.49,1.77"/>
    <path d="M63.06,291.59c4.43,1,14.1-.18,15.84,1.22,1.11.9-1.43,1.59-6.86,1.77"/>
    <path d="M47.83,287.83c-7.26,1.63-14.12,1.92-20.37.1"/>
    <path d="M49.7,291.35c-3.57.06-7.71-.24-5.41,3.33"/>
    <path d="M24.44,291.47c2.81.72,7.39.62,5.3,2.49"/>
    <path d="M26.63,297.7c10.08-4.16,18.29,3.84,21.72,1.14"/>
    <path d="M65.18,346.85c3.63,1.7,8.3,1.83,13.72,0,3.37-1.14-.42-4-.52-7.27"/>
    <path d="M47.1,344.88c-3,2.91-15.59,2.8-18.6.2"/>
    <path d="M27.26,350.94c3,1.42,8.41,1.52,7.68,4"/>
    <path d="M49.08,350c-2.29,1.05-7,1.67-2.71,4.89"/>
    <path d="M81.36,352c-1.74.68-5.57-.16-3.19,2.24"/>
    <path d="M63.47,351.86c2.23.71,5.77-.52,5.35,1.95"/>
    <path d="M210.43,120.75c-.38,4-5.91,5.71-6.94,11.51"/>
    <path d="M198.93,129.17c2.43,1.8,3.53,3.41,4.63,8.09"/>
    <path d="M130.72,119.09c-5.36-2.46.2,4.91,3.13,11.59"/>
    <path d="M138.45,125.32a18.18,18.18,0,0,0-4.75,8.87"/>
    <path d="M198.63,191.93a44.42,44.42,0,0,1-21.47,10.87"/>
    <path d="M204,194.11c-4.19,4.45-12.17,8.1-3.53,7.1"/>
    <path d="M138.14,196.31a46.79,46.79,0,0,0,20.27,6.48"/>
    <path d="M132.78,199.34c37.8,17.73,63.59-2.11,60.28,5"/>
    <path d="M188.83,247.31c-5.75-.31-12.33-.2-16.77.92"/>
    <path d="M162,246.88a32.46,32.46,0,0,0-12.49-.63"/>
    <path d="M155.64,247.92a66.6,66.6,0,0,0-14.15.84"/>
    <path d="M196.23,299a46.13,46.13,0,0,1-16.69.52"/>
    <path d="M187.33,304.34A37.62,37.62,0,0,1,176.5,304"/>
    <path d="M192.58,296.31a46.14,46.14,0,0,1-19.53-1.05"/>
    <path d="M185.24,307c-1.77.52-9.64-.11-11.1-1.15"/>
    <path d="M159.72,300.48c-6.49.77-14.28.72-20.11-.84"/>
    <path d="M161.18,303.19a54.89,54.89,0,0,1-16.56.21"/>
    <path d="M184.27,339.7c4.17,5.11,10.06,9,13.29,6.57"/>
    <path d="M182.19,340.84c6.36,6.16,4,12.73-3.86,13.46"/>
    <path d="M193.91,350c-4.69-3.86-6.19,2.71-10,5"/>
    <path d="M143.26,347.38c4,4.66,8.78,8.41,13.08,8.24"/>
    <path d="M140.76,351.65a11.9,11.9,0,0,1,7.13,5.74"/>
    <path d="M160.91,344.29a6.47,6.47,0,0,0-2.59,3.82"/>
    <path d="M133.75,377.64c4.66-1.47,13.54-.46,16.4,2.46"/>
    <path d="M173,377.48c6.11-2.3,14.56-1,19.21,3.27"/>
    <path d="M106,158.08c-4.22,2.55-9.91,6.07-5.62,6.07"/>
    <path d="M105.2,152.58c-.74,2.76-3.25,4.94-7.54,7.93"/>
    <path d="M92.11,174.66c4.7-.49,8.93-1.64,11.16-3.89"/>
  </g>
  <g class="skinOverlapLine">
    <path d="M205.2,248.17c2.58,1.49,5.14-1.06,4.46-4.77"/>
    <path d="M213.2,249.33a24,24,0,0,0,3.49-9.06"/>
    <path d="M220.79,238a28.93,28.93,0,0,1-1.88,6.91"/>
    <path d="M19.4,231.88c-.32,4.34-1.7,4.28-1.48,6.84s.43,4.26.48,7.73"/>
    <path d="M11.92,238.72c.59,2.55.26,5.37.95,8.42"/>
    <path d="M6.91,238.26c.4.52.16,5.37.88,7.34"/>
    <path d="M3.08,237.19c.15,1.38,0,3.77.25,5.46"/>
    <path d="M108.9,231.42c-.94,1.32-1.83,2.68-2,8"/>
    <path d="M112.13,235.06a14.36,14.36,0,0,0,.33,6.06"/>
  </g>
  <g class="skinFoldLine">
    <path d="M209.47,169.52a16.86,16.86,0,0,0-6.1,2.39"/>
    <path d="M128.18,169.35a12.62,12.62,0,0,1,3.57,2.76"/>
    <path d="M28.6,60.59c-3.11-9.76-7.74-1.05-2.74,4.75"/>
    <path d="M28.43,62.56c-2,1.63,2.62,4.72.81,5.57-.77.35-1.1-2.33-2.42-3.75-1.57-1.7-.72-3.95.37-3.55"/>
    <path d="M201.4,63A8.22,8.22,0,0,1,199,66.42"/>
    <path d="M195.85,61.16a8.52,8.52,0,0,1,1-2.13"/>
    <path d="M196,62.63c2.46,1.16-2.29,4.81-.48,5.66.77.36,1-2.26,2.38-3.63,2.59-2.6.74-3.86-.35-3.46"/>
  </g>
  <path class="skinEdgeLine" d="M222.92,233.2c-.2.72-.6,1.83-1.73,1.83s-1.33,1.58-4,1.39c-2.08-.16-2.37,1.23-4.25.79"/>
  <path class="lipFemaleMedium__noStroke" d="M153.23,80.16c1.26,2.38,1.3,3.59,2.5,5.16,3,3.85,7.87,4,11.41.86,1.9-1.67,1.9-3.82,3.83-5.6C162.28,83.55,160.68,83.87,153.23,80.16Z"/>
  <path class="lipFemaleMedium" d="M153.23,80.16c6.43,3.22,8.82,3.6,17.74.42-4.23.53-7.09-1.31-9.65,1.43-2.27-2.88-5.51-1.11-8.09-1.85"/>
  <g class="eyebrowLightBrown">
    <path d="M140.24,54.79c4.75-6.1,12.22-4.46,16-2.71C153.31,55.35,151.37,49.23,140.24,54.79Z"/>
    <path d="M183.48,54.44c-4.94-5.63-13.25-4-17.07-2.22C170,55.4,171.26,49.7,183.48,54.44Z"/>
  </g>
  <path class="lipMaleMedium__noStroke" d="M62.88,76.9a5.37,5.37,0,0,0,5.51,0c1.17.93,1.6,2,3,3-1.54,1.2-1.57,6.74-6.8,6.77-5.71,0-6.6-5.15-9.44-6.52C58.67,79.39,60.46,77.63,62.88,76.9Z"/>
  <path class="mouthInner" d="M70.47,79.82c-2.1-.68-2.58-1.54-3.63-.87-2,1.18-3-.42-4.06-.14a35.83,35.83,0,0,1-6,1.45C60.48,83.17,67.24,83.49,70.47,79.82Z"/>
  <g class="eyebrowBlack">
    <path d="M43.31,50.06c4.73-5.79,9.41-1.45,16.63-2.35C56.84,51.66,48.66,46.36,43.31,50.06Z"/>
    <path d="M69.42,47.82c4.74,1.19,10.65-2.47,14.19,2C78.56,47.77,72.64,51.48,69.42,47.82Z"/>
  </g>
  <path class="hairBlack" d="M71.88,10.08C62,6.28,46.4,7,41.16,10.6c-.06-4,3.72-8.26,6.54-10.18-5.35.83-9.65,6.57-9.87,11.52-1.12-2.46-8.4-5-11,1.1,2.64-3.09,7.84-2.48,8.53,1.18C19.5,25.49,21.59,46.52,24.21,53.67c1.08-.42,4.39-1.43,5.68,4.16a13.3,13.3,0,0,0,3.64-.17c.66-5.13-.3-5.17,4.64-10.58,1.63-.59,2.77-1.34,6-4.19a14.53,14.53,0,0,1-1.42,4.36c2.72-.76,6.66-5.7,6.66-13.91C50.91,50.68,66.58,44.86,71.19,47.5a9.06,9.06,0,0,0-2.85-4.69c6.41,4.61,15.56-.58,21.54,5.65,1.17-4.19,1.3-7-.6-11.15,1.35.48,2.89,2.22,4.73,2.1-6-6.48-2.91-11.15-8.63-18.08,1.6,0,4.61-.14,6.15-1C85.84,19.33,77.62,12.28,71.88,10.08Z"/>
  <g class="teeth">
    <path d="M153.23,80.16c2.15.66,4.71,2.32,8.28,2.35s6-1.32,9.46-1.93c-2.36.85-3.86,2.16-5.45,2.76,0,1.61-1.88,1.59-3.74,1.58s-3.64.08-3.59-1.54C156.59,82.78,155.43,81.41,153.23,80.16Z"/>
    <path d="M69.91,79.62c-1.63-.63-2.12-1.28-3.07-.67-2,1.18-3-.42-4.06-.14-.89.24-2.24.68-3.6,1C62,81.83,67.23,81.72,69.91,79.62Z"/>
  </g>
  <g class="teethOverlapLine">
    <line x1="158.19" y1="83.38" x2="158.19" y2="82.85"/>
    <line x1="165.52" y1="83.34" x2="165.52" y2="82.85"/>
  </g>
  <g class="lipOverlapLine">
    <path d="M171,80.58a1.57,1.57,0,0,1,1.75.34"/>
    <path d="M151.27,80.3c.35-.39,1.32-.36,2-.14"/>
    <path d="M54.62,80a7.63,7.63,0,0,0,2.13.22"/>
    <path d="M70.47,79.82a2.81,2.81,0,0,0,1.43-.07"/>
  </g>
  <g class="lipEdgeLine">
    <path d="M155.73,85.32c3,3.85,7.87,4,11.41.86"/>
    <path d="M62.88,76.9a5.37,5.37,0,0,0,5.51,0"/>
    <path d="M60.46,85.3a6.07,6.07,0,0,0,8.26-.53"/>
  </g>
  <g class="noseLine">
    <path d="M155.76,69.93c-.91.91-1.56,3.42.05,4.46"/>
    <path d="M167.52,70.07c1.08.5,1.72,3.58,0,4.53"/>
    <path d="M165.33,74.26c-1.22-.52-2.26,1.65-5.05,1.48-2.47-.15-2.09-1.75-3.72-1.63"/>
    <path d="M71.14,68.5a3,3,0,0,1-.29,4.19"/>
    <path d="M58.88,68.35c-1.08.5-1.7,3.28,0,4.23"/>
    <path d="M61.35,72.4c1.22-.52,1.34,1.2,4.13,1.27,2.45.06,2.45-1.33,4.08-1.21"/>
  </g>
  <g class="eyeFoldLine">
    <path d="M145.83,61.43c1.52,1.31,6.22,1.54,7.81.55"/>
    <path d="M170.24,61.77c1.36,1,5.87,1.32,8.43-.89"/>
    <path d="M79.52,59.37c-1.34,1.05-5.11,1.17-6.71.18"/>
    <path d="M56.35,59.61c-1.36,1-5.3,1-7.4-.06"/>
  </g>
  <g class="eyeCornerLine">
    <path d="M144.25,58.81a2.56,2.56,0,0,1-1.43.44"/>
    <path d="M181.56,59a3.83,3.83,0,0,1-1.42-.4"/>
    <path d="M80.67,56.73a2.16,2.16,0,0,0,1.47.41"/>
    <path d="M44,57.39a3.2,3.2,0,0,0,2.67-.75"/>
  </g>
  <g class="eyeCreaseLine">
    <path d="M180.26,56.45c-2.22-2.39-8.57-3.52-11.68.07"/>
    <path d="M154.75,56.38c-2.21-2.39-7.67-3.05-11,.21"/>
    <path d="M46.56,54.83c2.22-2.39,7.46-3.73,10.78-.47"/>
  </g>
  <g class="hairOverlapLine">
    <path d="M202.89,64.05a13.23,13.23,0,0,0,3.54,1.6"/>
    <path d="M191.58,53.21a36.89,36.89,0,0,0,3.49,4"/>
    <path d="M140.33,42.84a76.3,76.3,0,0,0-8.5,12.59"/>
    <path d="M139.38,40.49a94.63,94.63,0,0,0-7.77,13.81"/>
    <path d="M187.31,143.79c1.83,2.61,4.5,3.65,6.76,7.62"/>
    <path d="M195.11,140.06a28.13,28.13,0,0,1-4.33,7.26"/>
    <path d="M185.91,134.47c2.64,3.59,5.25,4.5,7.65,8.79"/>
    <path d="M195.24,129.5c-1.41,3.22-5.12,6.34-5.78,8.76"/>
    <path d="M185.58,123.76c2.45,4.27,4.8,5.11,7.37,9.32"/>
    <path d="M195.63,117.77c-2.35,4.85-5.12,6-7.31,9.71"/>
    <path d="M186.23,113.21c2.39,4.26,4.75,6,6.49,8.93"/>
    <path d="M196.94,105.38c-3,5-5.77,7.09-8.07,11.75"/>
    <path d="M185.16,101.5c3,4.15,6.33,6.74,7.79,9.51"/>
    <path d="M197.2,93.13c-3,4.93-6.24,7.79-8.66,12.44"/>
    <path d="M193.22,98.71c-1.7-4.63-5.25-6.12-8.1-11.24"/>
    <path d="M197.33,80.17a70.86,70.86,0,0,1-8.63,11.89"/>
    <path d="M149.15,146.27c-1.75,3-3.56,4-5.27,7.08"/>
    <path d="M143,141.49a26.46,26.46,0,0,0,4.67,7.16"/>
    <path d="M150.14,135.64c-2.5,4.4-3.47,4.13-5.87,8.42"/>
    <path d="M142,130c1.42,3.58,5.25,6.56,5.91,9"/>
    <path d="M150.8,124.19c-2.46,4.27-4.12,5.18-6.68,9.39"/>
    <path d="M140.83,117.69c2.36,4.85,5,6.84,7.17,10.59"/>
    <path d="M150.47,113.16c-2.39,4.26-5,6.38-6.72,9.29"/>
    <path d="M140.34,104.51c3,5,5.7,7.26,8,11.92"/>
    <path d="M150.88,101.13c-3,4.15-5.53,5.77-7,8.54"/>
    <path d="M141.16,92.32c3,4.94,5.57,6.35,8,11"/>
    <path d="M144.13,96.44c1.19-2.44,3.42-3.44,5.42-5.11"/>
    <path d="M38.17,47.08a85.78,85.78,0,0,1-8.25,2.43"/>
  </g>
</svg>
