<svg viewBox="0 0 458.59 148.2">
  <path class="exhaust" d="M246.3,147.62H437.89a11.61,11.61,0,0,0,5.31-7.84,10.44,10.44,0,0,0-4.08-10.65c1.31.63,5.82-1.4,7.08-2.12,9.29-5.29,12.55-17.59,11.78-28-.88-12.06-7.83-21.36-18.7-24.93,1.69-1.87,1.28-9.84.87-12.37-1.29-8-5.26-12.56-10.93-17.62a25.67,25.67,0,0,0-2.36-1.86A27.83,27.83,0,0,0,407,37.86c-5.41.72-11.43,3.26-14.24,8.49.29-1.52-2.48-11.07-2.86-12.25C385.18,19.06,369.29,9,354.61,10a50,50,0,0,0-24,8.5c-3.71,2.58-7.46,6.91-8.36,11.72-.29-1.08-3-4.5-8.82-5.27-4.54-.6-9.43-.21-13.71,2.5C293.78,31.18,291,34,288.44,39.09c-1.45,2.84-2.76,8.63-.47,11.47-1.88-2.05-8.68-2.88-11.5-3.06-12.05-.77-21,8.27-25.82,17.27-3.69,6.85-3.55,12.49-3.05,17.47.32,3.29,2,9.41,5,11.09a15.47,15.47,0,0,0-11.69,12.72c-.94,6.12,2,11.84,6.19,15.68-3.16,1.71-7.1,7.5-7.18,11.53C239.7,141.81,243.81,145.86,246.3,147.62Z"/>
  <path class="body" d="M.5,14.54V147.68q102.9-2.46,205.8,0c8.85-45.1,20.27-89.56,35.74-132.93A2162.49,2162.49,0,0,0,.5,14.54Z"/>
  <path class="trim" d="M191.52,135.09a1.92,1.92,0,0,1-1.9,1.46Q95.06,134.5.5,137.05v10.57H213.19a4.93,4.93,0,0,0,.63-1.23c.65-2.88,1-4.31,1.64-7.19a1.63,1.63,0,0,0-1.58-2,1.63,1.63,0,0,1-1.58-2c.42-1.78.62-2.67,1-4.45a1.92,1.92,0,0,1,1.9-1.45l1,0a1.91,1.91,0,0,0,1.91-1.44c.68-2.87,1-4.3,1.71-7.17a1.61,1.61,0,0,0-1.56-2,1.63,1.63,0,0,1-1.56-2c.65-2.68,1-4,1.64-6.71a1.62,1.62,0,0,0-1.55-2q-108.13-3.63-216.29,0v10.62q96.48-3,193-.62a1.62,1.62,0,0,1,1.56,2Q193.27,127.5,191.52,135.09Z"/>
  <path class="turnLight" d="M175.92,125.67c-.16.72-.23,1.08-.39,1.8a1.81,1.81,0,0,0,1.76,2.21l8.53.18a2.14,2.14,0,0,0,2.12-1.66c.15-.72.23-1.07.39-1.79a1.8,1.8,0,0,0-1.76-2.21L178,124A2.15,2.15,0,0,0,175.92,125.67Z"/>
  <g class="glassLight">
    <path d="M164.47,25.18q-2.55,10-5,19.93,25.45.53,50.88,1.53,2.76-9.89,5.61-19.73Q190.21,25.79,164.47,25.18Z"/>
    <path d="M158.23,50Q155.79,60,153.38,70q25.16.44,50.31,1.29,2.59-9.9,5.29-19.76Q183.62,50.53,158.23,50Z"/>
    <path d="M104.66,24.73q-2.18,10-4.33,20,25.52-.13,51,.22,2.44-10,4.93-20Q130.48,24.62,104.66,24.73Z"/>
    <path d="M99.27,49.69q-2.14,10-4.31,20,25.22-.14,50.42.14,2.37-10,4.78-20Q124.72,49.56,99.27,49.69Z"/>
    <path d="M44.73,25.94q-1.78,10-3.61,20,25.54-.8,51.11-1.1,2.11-10,4.22-20Q70.59,25.1,44.73,25.94Z"/>
    <path d="M40.21,50.85q-1.86,10-3.77,20,25.26-.72,50.51-1,2.13-10,4.24-20Q65.69,50.08,40.21,50.85Z"/>
    <path d="M.5,52.44v19.7q14-.6,27.92-1.07,1.88-10,3.69-19.95Q16.3,51.69.5,52.44Z"/>
    <path d="M.5,27.88V47.59Q16.75,46.8,33,46.2q1.78-10,3.52-20Q18.51,26.93.5,27.88Z"/>
  </g>
  <path class="roof" d="M250.52,4.56A2091.82,2091.82,0,0,0,.5,3.93V14.54a2160.08,2160.08,0,0,1,247.1.56,2.16,2.16,0,0,0,2.17-1.43c.91-2.79,1.37-4.18,2.29-7A1.62,1.62,0,0,0,250.52,4.56Z"/>
</svg>
