<svg viewBox="0 0 206.79 199.62">
  <path class="wallFront" d="M200.48,199.12q-2.35-81.18,1.17-162.35-98.37-4.16-196.85-2,1.89,82.16,2.05,164.35Z"/>
  <g class="glassLight">
    <path d="M175.45,61.08q-.51,20.2-.75,40.39l-23.94-.23q.17-20.35.55-40.71Q163.39,60.79,175.45,61.08Z"/>
    <path d="M135,60.25q-.3,20.44-.41,40.89-12-.06-23.93-.08,0-20.55.19-41.1Q122.93,60.08,135,60.25Z"/>
    <path d="M94.54,59.86q-.08,20.6-.06,41.2-12,0-23.93.09-.1-20.66-.15-41.31Q82.46,59.83,94.54,59.86Z"/>
    <path d="M54.08,59.92q.14,20.67.29,41.33l-23.93.24q-.24-20.65-.5-41.31Q42,60,54.08,59.92Z"/>
    <path d="M174.55,134.45q.06,20.2.38,40.4l-23.87.35q-.3-20.35-.37-40.72Z"/>
    <path d="M134.57,134.52q.09,20.44.36,40.9l-23.86.3q-.24-20.55-.35-41.11Z"/>
    <path d="M94.6,134.7q.12,20.6.34,41.2l-23.86.26q-.19-20.65-.34-41.3Z"/>
    <path d="M54.62,135,55,176.32l-23.87.21q-.13-20.65-.31-41.32Z"/>
  </g>
  <g class="windowDisplayLine">
    <path d="M163.38,60.79q-.45,20.28-.65,40.56"/>
    <path d="M175,81.28q-12-.23-24-.39"/>
    <path d="M122.93,60.08q-.24,20.51-.31,41"/>
    <path d="M134.74,80.69q-12-.1-24-.18"/>
    <path d="M82.47,59.83q0,20.63,0,41.26"/>
    <path d="M94.48,80.46l-24,0"/>
    <path d="M42,60q.21,20.67.4,41.33"/>
    <path d="M54.23,80.59q-12,.1-24,.25"/>
    <path d="M162.62,134.46q.06,20.28.37,40.57"/>
    <path d="M174.66,154.65l-23.85.19"/>
    <path d="M122.65,134.56q.09,20.5.35,41"/>
    <path d="M134.7,155l-23.84.19"/>
    <path d="M82.67,134.77q.14,20.64.34,41.27"/>
    <path d="M94.74,155.3l-23.84.21"/>
    <path d="M42.7,135.09q.16,20.67.32,41.34"/>
    <path d="M54.79,155.65l-23.85.22"/>
  </g>
  <path class="roofSide" d="M205.59,36.94Q103.4,32.5,1.07,34.86C1,32.9,1,31.92,1,30q102.43-2.54,204.87,2.24C205.73,34.1,205.68,35.05,205.59,36.94Z"/>
  <path class="roofFront" d="M205.82,32.2Q196.13,17.86,186.5,3.48,103.49-.6,20.36.94,10.6,15.42,1,30,103.39,27.42,205.82,32.2Z"/>
</svg>
