<svg viewBox="0 0 500.65 231.71">
  <g class="foliageNear">
    <path d="M86.43,175.05c-4.94-7.5-1-18.44,7.52-20.81-.25-9.51,12.66-15.31,20.66-11.2-.32-15.8,20.26-22.46,30.41-14.85,1.25-12.52,19.74-17.47,27.77-11.48,10.56-14.65,38.64-7.89,43,4.8,3.26-3.43,9.77-1.2,11.1,3.06Z"/>
    <path d="M270.76,117.57c-13-11.21-2.27-30.36,11-28.5C278.35,83,285.15,74.9,293.06,78c-3.87-8.28,2.35-16.23,11.49-13.84-2.49-5.14,1.85-10.78,7-9.08-5.87-7.77,2.65-18,10.72-15.53-1-6,6.39-9.44,11.09-6.16,3-12.1,18.87-11.81,23.51-3.44,13.57-3.75,32.22,7.24,30,22.37,6.44-7.9,20.61-5.44,25.59,3.17,24-10.29,56,18.45,44.89,43.46Z"/>
  </g>
  <path class="palmTrunk" d="M111.79,164.73c-4.47-32.21-3.91-52.24-2.31-79.45l-4.22-.62c-2.5,28.39-2.41,49.82-.74,83.28Z"/>
  <path class="palmFrond" d="M114,82.91c5.35,0,9.52,5.82,11.22,9,1-8.11-4.38-12.81-8.26-16,5.18-.33,10.16,5.9,12.81,9.86.49-6.45-4.49-12.92-9.49-16.52,4.17-.78,8.62,1.69,12.24,5-1.19-7.43-7.59-11.68-12.1-13,2-1.9,4.63-3.26,9.48-3.68-4.68-2.66-10.61-4.62-18.43-.43-2.73-6.38-11-7.15-16.43-5.26,2.84,1.32,6.25,4,6.7,6.64-7.34.45-12.63,6.32-14.11,11.62,1.48-1.35,6.9-4.06,10.1-3.45-6.16,4.07-8.38,6.29-10.35,12.94,4.19-3.45,8.88-6.41,11.6-5.06-4.7,2.84-7.9,9.25-7.15,14.19,1.9-2.65,6.15-6.54,9.11-6.66-2.71,3.57-4.15,7.76-4.44,13.3,2.38-4.12,7.89-9.11,10.6-9.36,2.89,1.24,7.78,3.16,12,8.18A19,19,0,0,0,114,82.91Z"/>
  <g class="oakDark">
    <path d="M422.57,100.47h-4.43l.19-36.23,4-4.25S422.57,99.88,422.57,100.47Z"/>
    <polygon points="432.59 43.95 433.17 100.96 438.1 100.96 438.1 38.3 432.59 43.95"/>
    <path d="M453.58,100h7.2c0-.47.5-77.68,0-78.44l-7.39,7.62S453.28,99.75,453.58,100Z"/>
    <path d="M477.76,10.94l-.49,89.71c2.88,0,6.8-.18,9.88-.18,0-.47,0-100,0-100Z"/>
  </g>
  <g class="oakDarkest">
    <polygon points="422.33 59.99 420.17 63.88 419.98 101.32 425.11 101.27 425.07 63.69 422.33 59.99"/>
    <polygon points="443.05 44.34 443.03 99.97 435.64 99.97 435.21 43.49 438.1 38.3 443.05 44.34"/>
    <path d="M460.78,21.54,457.24,29l.08,71.22h10.85c0-.47-.79-47.21-.76-70.29Z"/>
    <path d="M495.57,9.59c-.07,4.64.7,90.91.7,91.37H482.32c.25-1.78.65-91.68.65-91.68L487.13.5Z"/>
  </g>
  <g class="oakMedium">
    <path d="M433.17,101l-.5-49a93.58,93.58,0,0,0-9.85,12.71c0,12.28-.19,37.1-.15,37.28Z"/>
    <path d="M453.37,34a140.82,140.82,0,0,0-14.3,11.43l.26,55.51,14.05.83C453.25,89.73,453.34,48.28,453.37,34Z"/>
    <path d="M477.27,100.65l.45-82c-5.45,2.71-11.61,8.26-15.69,10.75-.43.31.15,71.84.15,71.84Z"/>
  </g>
  <path class="meadowMiddle" d="M500.15,231.21V100.26C340.45,92.19,129.73,122,.5,231.21Z"/>
  <g class="stoneDark">
    <path d="M226,76.3C194.1,78.19,197.19,92,204,137.05h9.86C224.14,135.82,226,76.3,226,76.3Z"/>
    <path d="M113,145.17l8-.3L121,159q2.94-1.25,5.9-2.46l-.09-33.6-5.9.27,0,12.26-8.38.2Z"/>
    <path d="M278,122.75c2.26-16.49,2.89-25.45-8.52-26.87-9.95-1.24-11.88,10.38-12.81,24.37Z"/>
    <path d="M361.61,102.88q8.25-.72,16.45-1.3l1.13-45.49,12.71-.66.54-17.25-13.19.87.81-18.25-14.24,1.81-.92,17.61L354.77,41l-.58,16.41,9.83-.51Z"/>
    <path d="M339.37,105.08l4.5-11.15c-9.23,0-9.64,6.83-9.28,11.69Z"/>
  </g>
  <g class="stoneDarkest">
    <path d="M118.62,145l8.29-.38,0,12q3.9-1.59,7.83-3.14v-9.2l7.19-.33V135l-7.22.18,0-11.94-7.86-.23,0,12.37-8.56.22Z"/>
    <path d="M247.48,128.35c-3.13-28.91-3.77-54.11-21.46-52-24,2.79-15.27,31.35-12.17,60.76Z"/>
    <path d="M269.52,95.88c11.41,1.42,10.78,10.38,8.52,26.87l5.2-1.33C284.65,107.89,288,96.61,269.52,95.88Z"/>
    <path d="M409.8,99.83c-.39-7-2.26-10.15-6.94-9.8-4.06.3-5.83,3.55-5.13,10.35Q403.79,100.07,409.8,99.83Z"/>
    <polygon points="389.27 38.39 389.68 25.48 380.06 20.8 379.25 39.05 389.27 38.39"/>
    <path d="M392.44,38.18l-.54,17.25-12.71.66-1.13,45.49c-.21,0,6.65-.45,10.27-.67.06-8.78.69-42.17.69-42.17l9.77-.48.52-16.82Z"/>
    <path d="M353,103.67c-1.23-8.6-5.16-10-9.16-9.74s-6,3.3-6.09,11.33Q345.42,104.41,353,103.67Z"/>
  </g>
</svg>
