<svg viewBox="0 0 359.57 209.46">
  <g class="foliageNear">
    <path d="M270.33,151.63a1.28,1.28,0,0,1,.14-1.24,10,10,0,0,1,4.89-4.88,5,5,0,0,1,4.08,0,10.33,10.33,0,0,1,5.84-7.6,8.21,8.21,0,0,1,8.53.54v-.23a12.07,12.07,0,0,1,2.74-5.47,7.26,7.26,0,0,1,5.35-2.42,7.49,7.49,0,0,1,5.89,2.51c1-1.6,6.41-5.15,7.68-6a10.33,10.33,0,0,1,5.36-1.4,11.25,11.25,0,0,1,5.69.72c2,.93,4,1.69,5,3.87.45,1,.76,2,2.4,1.55,1.23-.34,2.48.45,3.51,1.2a6.92,6.92,0,0,1,2.9,4.08,21.13,21.13,0,0,1,.3,4.11,12.43,12.43,0,0,1,6.5-.23,8.15,8.15,0,0,1,5.4,9.34c-.18.9.23,1.16.65,1.34a10.09,10.09,0,0,1,2,1.4,9.73,9.73,0,0,1,3.56,6.52,13.34,13.34,0,0,1-.06,5.48,12.09,12.09,0,0,1-1.78,4.32,15,15,0,0,0-1.74,2.15c3.94,2.34,3.73,6.24.46,8.8a10.71,10.71,0,0,1,2.87,6.25,24.76,24.76,0,0,1-.28,5,16.56,16.56,0,0,1-2.5,6.93c-1.16,2.05-3.07,3.53-4.78,5.12a53,53,0,0,1-4.53,3.45Z"/>
    <path d="M196.24,125.3c.45-.14.53-.53.56-.91a14.39,14.39,0,0,0-.37-4.7A7.16,7.16,0,0,0,194,115.5a5.21,5.21,0,0,0-4.56-1.37,2.08,2.08,0,0,1-2.07-.44c-1.77-1.61-3.63-3.14-5.46-4.69a.92.92,0,0,1-.35-.8,5.63,5.63,0,0,0-1.36-3.41,5.53,5.53,0,0,0-5-2.55c.34-2.89-.5-5.2-3-6.67a7.3,7.3,0,0,0-7.12-.17c-.1-2.83-.54-5.28-2.88-7.06s-4.66-1.68-7.21-1.06a1.37,1.37,0,0,1,0-.28,5.72,5.72,0,0,1,.11-.57A8.18,8.18,0,0,0,154,79.81a6.62,6.62,0,0,0-5.15-3.18l.23-.12c-.06-.36.29-.46.45-.68,1.39-1.92,1.72-4,.24-6a6.09,6.09,0,0,0-2.4-1.59H147a8.6,8.6,0,0,0,1.91-6.85,13.31,13.31,0,0,0-2.31-5.54,7,7,0,0,0-4.51-2.63,8.49,8.49,0,0,1-1.23-.3c1.88-4.92-1.63-10.32-7.52-10.33a14,14,0,0,0-.34-5,7.33,7.33,0,0,0-4.82-5,27.28,27.28,0,0,0-2.73-.7c-2-.52-3.75.3-5.58.7-2,.43-3.23,2-4.67,3.38a5.08,5.08,0,0,0-3.65-1.22,6.71,6.71,0,0,0-4.89,2.63,4.56,4.56,0,0,0-1.27,3.4l-.23-.34a9.11,9.11,0,0,0-8.54-2.12,11.49,11.49,0,0,0-7.06,5.09,7.48,7.48,0,0,0-1.27,1.91c-1.64-1.41-3.22-1.09-5-.25-4.2,2-8.53,3.61-12.74,5.54-2.92,1.35-5.84,2.67-8.79,4-4.45,1.93-8.86,4-13.31,5.87-2.87,1.24-5.72,2.55-8.58,3.82-3.67,1.62-7.33,3.28-11,4.85a32.44,32.44,0,0,0-5.71,2.71c-.56.38-1.17.26-1.75.48-4.3,1.66-6.14,5-6.58,9.3a4.71,4.71,0,0,0,.07.91,2.35,2.35,0,0,1-.28,1.93A6,6,0,0,0,9.67,86a14.06,14.06,0,0,0-4.35,6.35c-.62,1.77-.16,4.44,1,6.72-.53.71-1.42.93-2,1.68a15,15,0,0,0-2.46,5.5,10.6,10.6,0,0,0,1.23,7.53c.41.78.69,1.61,1.61,1.93Z"/>
  </g>
  <path class="treeTrunk" d="M54.89,80.16a36.89,36.89,0,0,1-.14-3.82H46.46c0,1.88,0,3.71,0,5.53,0,2.74-.63,5.46-.32,8.2a17.89,17.89,0,0,1-.06,4.33A43.87,43.87,0,0,0,46,99.77a59.55,59.55,0,0,1-.88,10.2H55.53c-.4-1.61-.18-3.19-.41-4.73a45.42,45.42,0,0,1-.31-7.18c0-2.82-.22-5.62-.06-8.44s0-5.77,0-8.66c0-.23-.13-.49.1-.69Z"/>
  <path class="treeCloser" d="M50.22,80.39c-4.33,5.24-14.82,2.51-14.13-5a6.45,6.45,0,0,1-9.35-6.84c-11.4-1.14-12.31-14.81-6-20a6.27,6.27,0,0,1-1.55-11.45c-7.75-10.71-.92-20.51,10.26-20.74-1.6-8.21,6.38-13,13.9-8.67,5.7-12.31,24.39-7.52,23.26,5,5.69-2.51,11.17,2.74,8.66,7.75,8.89-3.42,20.06,6.16,14.13,17.1C94.68,38,97.64,47.1,92.17,51L64.58,79.7C63,84.72,52.73,85.18,50.22,80.39Z"/>
  <g class="palmTrunk">
    <path d="M312.39,65.8c4.1,32.14,7.75,67.71-2.74,118.09l-9.11-8.67c14.59-42.17,12.08-71.81,8.2-109Z"/>
    <path d="M129.1,95.09c-.32-1.73-.09-3.53-.4-5.23-.47-2.49-.08-5-.27-7.42a47.11,47.11,0,0,1,0-4.9c.06-2.36-.17-4.71,0-7.07.17-1.81.11-3.65.14-5.47.06-3.12.25-6.24.47-9.35.14-2.13.39-4.26.59-6.38a43.07,43.07,0,0,1,1.11-6.74c-.12-.33-.41-.48-.68-.67-.57-.39-.92-1.49-1.69-1.09a3.41,3.41,0,0,0-2.12,2.91,48.73,48.73,0,0,1-.6,5.37,29.58,29.58,0,0,0-.24,3.41c-.29,4.18-.57,8.36-.67,12.54,0,1.88-.24,3.73-.47,5.59-.17,1.31.26,2.66,0,4-.49,2.23.18,4.51-.24,6.73s0,4.26-.22,6.38-.22,4.48-.22,6.73Z"/>
  </g>
  <g class="palmFrond">
    <path d="M302.42,49.43a6.79,6.79,0,0,0-3.49-2.28c-1.36-.33-3.18-.62-3.18-.62,0-.5.43-.56.79-.68a32,32,0,0,1,3.2-1.12,12.14,12.14,0,0,1,11.4,2l-.12-.23a15.36,15.36,0,0,1,2.41-1.9,16.42,16.42,0,0,1,5.46-2,7.85,7.85,0,0,1,5.47.92l-.34.11a22.46,22.46,0,0,0-3.92,1.75,10.63,10.63,0,0,0-3.69,4.09c-.18.3-.43.49-.6.78l.57-.46c.3-.06.6,0,.92-.09a7.73,7.73,0,0,1,6.27,1.9c2.14,1.66,3.14,4,4,6.42.25.66.79,1.54.17,2.37v.23a10.63,10.63,0,0,0-4.92-3.5,5,5,0,0,0-3.52,0h-.68c.94-.16,1.47.65,2,1.08a13.53,13.53,0,0,1,4.93,9.3c.08.57.18,1.14.23,1.71a9.24,9.24,0,0,1-.46,3.76V72c-.69-.75-.92-1.79-1.58-2.57-1.5-1.78-3-3.51-5.48-3.91-.39-.07-1,.39-1.26-.3l.46.45c.53.92,1.11,1.8,1.59,2.74a12.14,12.14,0,0,1,1.28,8c-.11.59-.59,1-.59,1.59l-.12-.34c-.22-.19-.56-.1-.71-.56-.81-2.6-2.73-4.25-5-5.59-4.55-2.74-10.5,1.14-12.31,6.15a8.85,8.85,0,0,1-.49,1,3.46,3.46,0,0,1-1-2.45,13.78,13.78,0,0,1-.34-2.85,10.51,10.51,0,0,1,2-6.64c.13-.16.5-.4.38-.77l.68-.11A5.68,5.68,0,0,0,301,66c-2.89,1-5.5,2.39-6.73,5.48a.79.79,0,0,1-.81.46,9.66,9.66,0,0,1,1-7,19.76,19.76,0,0,1,7.14-7.66l-.45.11a2.41,2.41,0,0,0-.46-.22c-2-.3-3.63.68-5.36,1.37a9.36,9.36,0,0,0-3.3,2.73c-.57-.42-.35-.93-.22-1.37a15.72,15.72,0,0,1,3.28-6.63c1.44-1.54,2.86-2.93,5.13-3.25.78-.11,1.57.28,2.29-.15C302.47,49.84,302.83,49.93,302.42,49.43Z"/>
    <path d="M135.37,37.07c1.14,1,2.67,1.44,3.81,2.57a24.63,24.63,0,0,1,2.69,3.47l.11.46c-.19-.47.33-.7.36-1.14a18.39,18.39,0,0,0-1.74-9.91A12.62,12.62,0,0,0,137,28.3l.8.22a4.61,4.61,0,0,1,3.4.84,13.29,13.29,0,0,1,3.78,3.39c.15.23.32,0,.46.11l.23.22a22.71,22.71,0,0,0-.06-3.19,14.13,14.13,0,0,0-2.28-5.55,11,11,0,0,0-5.07-4.13,3.42,3.42,0,0,0-2.4-.46l.46-.23a13.84,13.84,0,0,1,1.95-2.73c1.39-1.44,2.76-2.94,4.89-3.31l-.23-.12c-.34-.94-1.26-.48-1.84-.61a11,11,0,0,0-7.18,1,12.56,12.56,0,0,0-4.11,3,10.11,10.11,0,0,0-4.42-2.89,9.69,9.69,0,0,0-6.27.11c-1.12.31-2.12.87-3.19,1.26a1.56,1.56,0,0,0-.91,1.14c2.08.56,4.28.7,6.16,1.93a3.06,3.06,0,0,1,1.29,1.21,13.62,13.62,0,0,0-7.76,5.89A12.84,12.84,0,0,0,113,31.66c2.52-1.74,4.92-3.56,8-3.93l-1.37.57a24.34,24.34,0,0,1-2.54,2.94,15.55,15.55,0,0,0-3.39,9.37,1.11,1.11,0,0,0,.46,1.14s0,.35,0,.23a15,15,0,0,1,5.61-6.23c.27-.18.83-.77,1.34-.16l.23-.23a20.91,20.91,0,0,0-2.4,3.88,20.6,20.6,0,0,0-1.4,6.49,1.38,1.38,0,0,0,.49.92c1.77-2,3.64-3.89,6.38-4.57a11.08,11.08,0,0,1,5.11-.13c2.58.6,4.5,2.45,6.07,4.58.67.92.79,2.13,1.6,3.12a6.84,6.84,0,0,0,.83-2.76,12.31,12.31,0,0,0-.15-5.6c-.27-1.09-1.1-1.95-1.26-3.08Z"/>
  </g>
  <g class="stoneDarkest">
    <path d="M160,116.07a32.32,32.32,0,0,0,.09-6.95c-.46-3-1.14-6-4-7.86a6,6,0,0,0-6.59,0c-3.3,1.89-4.68,4.94-4.81,8.64,0,.76-.07,1.52-.11,2.28Z"/>
  </g>
  <path class="meadowFar" d="M358.7,209C267.55,125,118.7,85.39.54,115.62c-.05.16,0,51.7,0,93.34Z"/>
  <path class="stoneDark" d="M58.77,119.37c-1.77.33-2.27.89-2.28,2.51a50.66,50.66,0,0,0-.14,6c.08.72.19,1.44.24,2.17,0,.54.28.74.81.81a45.67,45.67,0,0,0,7.75.28c.73,0,1.45.06,2.17,0,2.05,0,4.1-.1,6.15-.1.48,0,.63-.22.81-.58,1-2,2-4,3-6.05.57-1.2,1-2.44,1.61-3.64,1.73-3.7,3.52-7.36,5.23-11.07,2.38-5.15,4.7-10.34,7.08-15.49,1.87-4,3.82-8,5.69-12.09,2.45-5.31,4.83-10.65,7.31-15.95,1.89-4,3.66-8.12,5.65-12.11.57-1.14,1.09-2.34,1.66-3.6a6.28,6.28,0,0,0-3.68-1.25,75.42,75.42,0,0,0-15.61.34,13.48,13.48,0,0,0-5.11,1.49c-2.46,1.51-4.85,3.17-6.08,6-.41.93-1.12,1.72-1.56,2.63a33.45,33.45,0,0,0-2,4.8C77,65.73,76.31,66.69,76,67.85a1,1,0,0,1-1,.66,64.89,64.89,0,0,0-8,.9c-.9.12-1.82.17-2.73.27a6.78,6.78,0,0,0-1.36.23,1.76,1.76,0,0,0-1.41,1.93c.07,7.45-.17,14.9.09,22.34.28,8,0,16,.17,23.94,0,.15.08.34-.12.46l-2.73.68Z"/>
  <g class="stoneDarkest">
    <path d="M141.64,114.47v1.77c1.09.19,2.08-.12,3.08,0,1.38.19,1.72.5,1.95,1.85.49,2.84,0,5.72.43,8.56.11.71-.14.88-1,1-2.24.27-4.51-.12-6.73.38a1,1,0,0,1-.34,0c-2.52-.17-5,.2-7.53.27-3.22.1-6.45.31-9.68.48-1.33.07-2.67.07-4,.17-3.23.25-6.46.34-9.69.51-1.33.07-2.67.07-4,.17-3.23.25-6.46.35-9.69.52-1.33.06-2.66.07-4,.17-3.23.25-6.46.34-9.69.51-1.33.07-2.66.08-4,.17-1.1.07-2.19.23-3.31.25-1.87,0-2,.08-2-1.73a49.41,49.41,0,0,1-.14-7.3c.19-1.64.55-2.08,2.17-2.39.34-.06.7,0,1-.12a1.34,1.34,0,0,0,1.18-1.48c.09-2.35.08-4.71,0-7.07,0-2-.27-4-.3-6,0-1.86,0-3.72-.11-5.58-.3-6.46-.48-12.92-.36-19.38.06-3.08-.33-6.16,0-9.23.16-1.38.36-1.58,1.71-1.7,3.15-.3,6.3-.54,9.46-.81,1.1-.1,2.2-.28,3.3-.32.56,0,.59-.37.68-.71.72-2.55,1.4-5.12,2.27-7.64a15.66,15.66,0,0,1,2.3-3.86c2.72-3.88,6.86-5.36,11.18-6.34a15.69,15.69,0,0,1,6.83.38,16.42,16.42,0,0,1,10.12,6.76,19.65,19.65,0,0,1,2.73,7c.28,1.13.91,2.19.81,3.53a41.93,41.93,0,0,0,5.14,0,30,30,0,0,1,7.52.17,1.2,1.2,0,0,1,1,1.23c.13,1.6.21,3.2.35,4.79.3,3.3,0,6.62.28,9.91.21,2.86-.08,5.72.21,8.55s-.06,5.87.23,8.78,0,5.71.23,8.55c.15,1.75.14,3.5.18,5.25Z"/>
    <path d="M179.82,93.72c-1.42.89-1,2.33-.86,3.53.22,1.56.37,3.13.64,4.68s.43,3.12.63,4.68.34,3,.52,4.44.41,3.12.62,4.68.33,2.88.51,4.32a40.41,40.41,0,0,0,.79,5.48,2.79,2.79,0,0,0,2.73,2.2,27.6,27.6,0,0,0,5.82,0c1-.09,1.1-.44,1.18-1.47.12-1.78.13-3.59.36-5.35.61-4.78,1.07-9.57,1.56-14.37a5.14,5.14,0,0,0-1.06-3.75c-1.68-2.24-3.19-4.59-4.65-7-.54-.87-1.38-1-2.28-1.16a27.72,27.72,0,0,0-6.39-1Z"/>
  </g>
  <path class="stoneDark" d="M186.55,104a39.59,39.59,0,0,0-5.11-7.76c-.61-.65-1-1.51-1.6-2.17a.88.88,0,0,0-1.27-.09,68,68,0,0,0-6.4,5.21,6.81,6.81,0,0,0-2.66,4.81c-.28,2.51-.73,5-1.09,7.53s-.76,4.78-1.13,7.18a10.55,10.55,0,0,0-.21,1.93,1.63,1.63,0,0,0,1.12,1.49,47.88,47.88,0,0,0,5.46,2.07c2.77.85,5.5,1.83,8.2,2.86a3.11,3.11,0,0,0,1.89.43c1.08-4.07,1.13-7.59,1.54-11.52s1.29-7.85,1.26-11.85Z"/>
</svg>
