<svg viewBox="0 0 488.63 182.34">
  <g class="stoneDark">
    <path d="M50.79,52c-.48-3.14-.86-12-1.35-15-.41-2.57-.9-5.13-1.32-7.69-.56-3.5-1.17-7-1.6-10.51a7.31,7.31,0,0,1,.7-4.73,36.59,36.59,0,0,0,3-6.79c.29-.85,1.25-1.28,1.4-2.22C51.59,5,68.12,57.59,50.79,52Z"/>
    <path d="M278.21,60.29a11,11,0,0,0-6.49-.65c-2.61.5-6,5.11-7,7.83,2.19,1.32,5.08,3.16,7.64,4.71,1.47-3,4.62-8.67,5.8-11.74Z"/>
    <path d="M415.29,42.69c-.72.49-1.59.3-2.38.55-3.74,1.2-5.28,4.08-6,7.59a2.62,2.62,0,0,0,0,2h11.38c0-3.08,0-6.08,0-9.09,0-.81-.36-1.15-1.19-1a14.58,14.58,0,0,1-1.62,0Z"/>
  </g>
  <g class="stoneDarkest">
    <path d="M33.48,50.83c-.9-2.65-2-5.1-4.42-6.83-2.22-1.61-4.51-1.34-6.82-.55-3.83,1.32-4.41,4.78-5,8.12a38.61,38.61,0,0,0-.2,4.58,2.89,2.89,0,0,0,.38,1.37l15.3-6a4.74,4.74,0,0,0,.89-.59Z"/>
    <path d="M52.11,5c2.4,2.86,5.4,5.2,7.4,8.42a9,9,0,0,1,1.32,3.11c.61,3.3,1.15,6.61,1.79,9.91.75,3.91,1.43,7.84,2.51,11.68.43,1.49.94,3,1.49,4.43.26.71.12,1-.61,1.2-3.15.74-6.3,1.52-9.57,2.31-.81-3.44-1.61-6.8-2.41-10.16-1-4.35-1.45-8.81-2.44-13.18a24.85,24.85,0,0,1-1-5.16,46.53,46.53,0,0,1,0-4.87c.19-2.33.56-4.64.86-7Z"/>
    <path d="M412.63,52.6h11.7a11.2,11.2,0,0,0-2.55-8.12c-2.26-2.62-4.62-2.25-6.55-.08a10.49,10.49,0,0,0-2.75,8.2Z"/>
    <path d="M160.5,25.83c-.18.48-.56,1-1,.86a23.63,23.63,0,0,0-6.35-.67c-1.27,5.5-.14,14.68-.24,18.89h-9.08c.76-4.27.46-14.35.79-18.6-2.13-.21-4.2-.43-6.28-.62-1.57-.14-1.88-.47-1.78-1.93.12-1.82.3-3.64.27-5.47s.39-2.13,2.4-2.34a25.9,25.9,0,0,1,3.84,0c1,.05,1.4-.33,1.34-1.34-.1-1.78.35-3.54.32-5.33s.49-2.07,2.19-2.06c2,0,4-.38,5.91.29.86.29,1.41.43,1.14,1.79-.36,1.85-.06,3.84-.41,5.75-.21,1.22.39,1.56,1.49,1.65a40.22,40.22,0,0,1,4.74.54c2.21.45,2.24.38,1.9,2.54C161.5,20.86,160.82,25,160.5,25.83Z"/>
    <path d="M282.94,74.63A28.38,28.38,0,0,0,284,66.94c0-3-1.52-5.49-4.18-6.3s-5-.18-6.95,2.45a13.9,13.9,0,0,0-1.61,2.53c-.36.83-.68,1.68-1.06,2.64l12.59,6.37Z"/>
  </g>
  <path class="meadowFar" d="M161.83,181.55l326.3.29V60.48C367.7,20.14,210.93,104.36,161.83,181.55Z"/>
  <path class="meadowMiddle" d="M.5,64.43.65,181.55h386C312.56,17.33,74.1,22.51.5,64.43Z"/>
  <g class="stoneDark">
    <path d="M326.27,69c-1.72,1-3.71,1.45-5.47,2.38-1.56.82-1.77,1.54-1.2,3.25.73,2.15,1.41,4.33,2.08,6.5.53,1.75.87,2,2.52,1.33,1-.37,1.95-.84,2.94-1.23s1.19-.28,1.51.63c1.45,4.08,2.59,8.25,3.68,12.43.5,1.92,1,3.85,1.43,5.74,1.18-.09,2.31-.24,3.45-.26,2.41,0,3.55-1.48,3-3.85-2.37-9.47-4.65-19-7.14-28.38-.89-3.35-1.71-6.72-2.62-10.07a2.57,2.57,0,0,0-3.69-1.62,24.16,24.16,0,0,0-2.66,1.78c-1.26,1-1.32,1.42-.6,2.94,1.06,2.26,1.82,4.62,2.65,7a6.37,6.37,0,0,1,.16,1.33Z"/>
    <path d="M147,57.92A33,33,0,0,1,153,59.84c.42.22,1,.17,1,.89s-.5.78-.9,1c-5,3.25-9.93,6.56-15,9.75q-13,8.25-25.87,16.71c-4.45,2.92-9,5.72-13.53,8.63a61.73,61.73,0,0,0-6.43-3.6c-1.87-.87-2.22-2.6-2.37-4.43-.33-3.85-.75-7.69-1-11.54-.24-3.49-.37-7-.44-10.49,0-1.38.61-1.89,1.9-2.08,3.4-.51,6.8-1.06,10.2-1.59A15.8,15.8,0,0,1,105.3,57a35,35,0,0,1,5.79-3.83,31.22,31.22,0,0,1,8.3-2.47,25.16,25.16,0,0,1,10.19.5,10.64,10.64,0,0,1,4.61,2.44c1.32,1.14,2.73,2.24,3.91,3.48a3.91,3.91,0,0,0,3.47,1.11c1.78-.06,3.55-.19,5.33-.29Z"/>
    <path d="M360.57,60.14c3-8.07,6.05-16.15,9.16-24.45A14.21,14.21,0,0,0,362.5,35a15.18,15.18,0,0,0-3.4,1.16c-3.59,1.57-5.34,4.38-5.65,8.27a57.46,57.46,0,0,0,.48,9.46c.13,1.53.38,3.06.6,4.71,2,.34,3.81,1.39,5.9,1.5Z"/>
    <path d="M264.46,9.87c.58,1.36.2,2.78.1,4.13-.31,4-2.29,7.44-3.66,11.09q-3.09,8.3-6.21,16.57c-1.95,5.13-3.95,10.25-5.91,15.38-1.29,3.39-2.72,6.75-3.79,10.22-.63,2-2.25,2.72-3.76,3.67-.47.29-.95,0-1.31-.3-3.61-2.64-7.22-5.29-10.8-8a1.91,1.91,0,0,1-.67-2.68,66.8,66.8,0,0,0,3-6.79c.58-1.83,2-2.1,3.31-2.1a2.55,2.55,0,0,0,2.37-1.13,25.39,25.39,0,0,0,2.21-3.85Q244.85,35.49,250,24.65c1.21-2.57,2.57-5.08,3.66-7.7,1-2.29,3.05-3,4.92-4.11s3.84-2,5.76-3Z"/>
    <path d="M113.77,1.73c-2.5,7.66-14.89,43.43-14.78,44-2.47-.31-4.95-.56-7.4-.94-2.21-.35-2.42-.3-2.53-2.8s.11-23.12,2.16-29.4c.74-2.35,1.41-4.79,3-6.85a10.83,10.83,0,0,1,7.27-4.43c2.4-.34,4.79-1,7.24-.71a20.16,20.16,0,0,1,5,1Z"/>
    <path d="M290.48,68.42a34.29,34.29,0,0,1,7.42,3.82,1.71,1.71,0,0,1,.54,2.53c-2.34,4-4.3,8.1-6.46,12.15-3.81,7.16-7.52,14.37-11.24,21.59-.33.65-.79,1.18-1.15,1.76a3,3,0,0,1-2-.72c-2.1-1.52-4.25-3-6.34-4.47a1.73,1.73,0,0,1-.68-2.22c1.18-4.29,2-8.67,3.05-13,.61-2.53,1.37-5,2.05-7.55a17.67,17.67,0,0,0,.3-1.77,3.17,3.17,0,0,1,1-1.93,108.88,108.88,0,0,1,12.87-10.19,1.43,1.43,0,0,1,.44-.15Z"/>
    <path d="M125.67,102.29c.78.23.54.95.41,1.32-.6,1.74-.18,3.56-.46,5.35s-.27,3.43-.39,5.16c-.27,3.74-.41,7.5-.86,11.24-.18,1.46-.2,3-.25,4.43a64.48,64.48,0,0,0-.38,6.66c.06.84-.41,1.63-.3,2.51.09.72-.5.85-1,.72a58.69,58.69,0,0,0-8.59-1.32c-2.7-.25-3.16-1.41-3.61-3.68-1-5.22-2.15-10.43-2.78-15.7a18.56,18.56,0,0,1,2.59-11.8,7.93,7.93,0,0,1,5.44-3.74,64.17,64.17,0,0,1,10.06-1.15Z"/>
  </g>
  <g class="stoneDarkest">
    <path d="M394.73,94.74c.43,1.07,1.41.86,2.22.88,4.73.08,9.47.11,14.2.16,3.89,0,7.8.11,11.67.37,7.3.48,14.59.89,21.89,1.11h.91c1.18-9.18.8-18.31,1.89-27.47-2.64-.27-5.15-.62-7.68-.74A2.92,2.92,0,0,1,437,67.11a15.35,15.35,0,0,0-11.8-9,19.84,19.84,0,0,0-13.89,3,10.74,10.74,0,0,0-4.73,5.47,1.85,1.85,0,0,1-1.93,1.15,20.75,20.75,0,0,1-3.85-.24,17,17,0,0,0-3.1.12c-1,.07-.78,1-.85,1.48-.28,2.06-.48,4.13-.62,6.21-.42,6-.8,12-1.19,18a2.68,2.68,0,0,1-.3,1.33Z"/>
    <path d="M264.75,9.27c.2,1.86,1.34,3.39,1.8,5.17s1.14,3.44,1.57,5.19c.24,1-.39,1.89-.72,2.8-2.07,5.72-3.66,11.59-5.71,17.32-2.13,6-3.89,12.11-5.81,18.18-.18.57-.29,1,.42,1.51.86.54,1.41,1.47,2.52,1.81.45.13.78.92.48,1.71-.9,2.44-1.7,4.92-2.53,7.39-.21.6-.68.58-1.19.59-1,0-2,.19-3,.13-3.22-.19-6.41.4-9.62.32-1.42,0-1.74-.43-1-1.7,1.48-2.59,1.75-5.64,3.26-8.2a1.47,1.47,0,0,0-.25-1.6,2.82,2.82,0,0,1,0-2.7c1.93-4.89,3.93-9.76,5.89-14.65S255,32.87,257,28c1.89-4.42,3.43-9,5.23-13.43.64-1.57,1-3.33,2.49-4.45Z"/>
    <path d="M153.85,60.14a3.12,3.12,0,0,1-1.48.15c-2.66,0-5.33.07-8-.12a2,2,0,0,1-1.93-1.06,14.6,14.6,0,0,0-5.92-6,15.06,15.06,0,0,0-11.68-1.53,32.92,32.92,0,0,0-11.35,5.23,13.42,13.42,0,0,0-4.84,7.82,1.55,1.55,0,0,1-1.4,1.31c-2.16.47-4.33.89-6.5,1.34-1.89.39-2.76,1.49-2.5,3.4a71,71,0,0,1,.14,8c.06,2.36.31,4.73.26,7.09-.07,3.17.21,6.32.35,9.47.1,2.14.32,2.68,2.63,2.19,5.37-1.15,10.79-2,16.14-3.32q9-2.18,18.17-3.61c3.71-.59,7.38-1.45,11.1-1.86,2.78-.3,5.47-1.16,8.39-1.23a20.25,20.25,0,0,0,0-6.07,58.22,58.22,0,0,1-.47-8.14c.05-1.27-.22-2.56-.26-3.84a66.69,66.69,0,0,0-.29-8,1.56,1.56,0,0,0-.46-1Z"/>
    <path d="M99,46.09c6.18.1,12.34-.39,18.49-.87,1.91-.15,3.84-.15,5.77-.15,1.07,0,1.55-.27,1.66-1.49.37-4.08.34-8.18.55-12.27a97.88,97.88,0,0,0-.36-13.16,23,23,0,0,0-5.88-14,10.43,10.43,0,0,0-16.13,1,27,27,0,0,0-5.47,14.37c-.22,3.31-.44,6.61-.39,9.91q.09,6,.31,12c0,.89.29,1.75.3,2.66s-.22,2.23.71,2.07Z"/>
    <path d="M358.8,43a36.79,36.79,0,0,0,.47,10,35.46,35.46,0,0,0,1.14,6.37c.3.9.67,1.18,1.65.9,2.89-.8,5.82-1.46,8.71-2.25a36.56,36.56,0,0,1,5-1.34c.78-.09,1.11-.66,1-1.46q-.52-6.24-1.64-12.42c-.53-2.88-1.52-5.44-4.4-7a7.75,7.75,0,0,0-8.57,1c-1.75,1.57-3.44,3.35-3.28,6Z"/>
    <path d="M334.1,53.49A26.14,26.14,0,0,0,328,55.25c-1.17.39-1.22,1.14-.88,2.08,1.14,3.2,2.3,6.4,3.49,9.71-1.78.86-3.51,1.76-5.28,2.55a1.52,1.52,0,0,0-1,1.94c.65,2.76,1.33,5.51,1.91,8.28.25,1.22,1,1.21,1.79.87,1.77-.72,3.52-1.53,5.5-2.41,2,7.07,4.07,14,5.06,21.25a26.15,26.15,0,0,0,7.17-4.2c1.49-1.25.53-2.75.15-4.12-1.13-4.08-2.47-8.1-3.28-12.27-.27-1.4-1-2.69-1.15-4.28,1.05-.53,2.17-1.06,3.26-1.65,1.69-.9,1.54-.89,1.22-2.81a43.44,43.44,0,0,0-2.14-7.08A1.88,1.88,0,0,0,343,62c-1.76.11-3.18,1.12-5,1.68-.57-1.61-1.17-3.2-1.7-4.82-.39-1.22-.69-2.46-1-3.7a2.64,2.64,0,0,0-1-1.62Z"/>
    <path d="M298.76,73.45c-3.13,2.25-6,4.87-8.87,7.39-1.48,1.29-2.92,2.61-4.46,3.82a2,2,0,0,0-.86,1.36c-.42,3.3-1.29,6.51-1.92,9.76-.82,4.29-1.89,8.52-3.1,12.72a11.53,11.53,0,0,0-.21,1.72,1.39,1.39,0,0,0,1.38.33c3.31-.66,6.62-1.31,9.91-2.07,3.07-.71,6.09-1.64,9.18-2.31,1.09-.23,1.26-.88,1.3-1.67.26-5,.81-9.87,1.51-14.78.25-1.74.64-3.46,1.05-5.17a1.94,1.94,0,0,0,0-1.33c-1.57-3.26-2.9-6.63-4.72-9.77Z"/>
    <path d="M123.11,139.26c-.71-.38-.74-1.16-1-1.77a44.36,44.36,0,0,1-2.76-8.74,51.42,51.42,0,0,1-1.91-10.35,33.23,33.23,0,0,1,.36-9.17,7.68,7.68,0,0,1,3-4.4c3.4-2.66,5.85-3.59,10.16-1.47a10.05,10.05,0,0,1,4.35,4.68c1.17,2.32,2.49,4.56,3.52,7a52.4,52.4,0,0,1,3.86,12.27,30,30,0,0,0,.94,3.37c-5.05,2.72-10.46,4.4-15.59,6.72a21.19,21.19,0,0,0-4.75,2.34Z"/>
    <path d="M191.85,61.77c3,.29,5.79-.88,8.72-1.08A1.52,1.52,0,0,0,201.92,59c0-1.77,0-3.55.09-5.33a119.64,119.64,0,0,1,1.3-12.55,46.41,46.41,0,0,1,1.86-9.47c.43-1.2-.12-2.15-.62-3.11-1.37-2.69-2.6-5.45-4.24-8a3,3,0,0,0-1.8-1.32c-2.77-.86-5.62-1.39-8.44-2-.61-.14-1.25-.66-1.92,0a2.45,2.45,0,0,0-.85,2.51c.53,1.67.28,3.38.46,5.05.21,2,.27,4.15.46,6.2.29,3,.3,6,.78,9,.24,1.45.13,3,.29,4.43.35,3.34.3,6.72.69,10,.23,2,.16,4.06.52,6.07a1.68,1.68,0,0,0,1.2,1.33Z"/>
    <path d="M467.93,50.83a15.78,15.78,0,0,1,.33-3.25c.84-2.58.12-4.79-1.21-7-.74-1.21-1.42-2.44-2.07-3.7a3.94,3.94,0,0,0-3.11-2.08c-2.22-.41-4.48-.68-6.66-1.3a5.91,5.91,0,0,0-1.43,0c1.6,8.22,3.15,16.25,4.74,24.44,2.66-.25,5.24,0,7.79-.58.59-.13.85-.45.85-.79,0-1.9.78-3.71.62-5.62Z"/>
    <path d="M54.62,56.15c-1.78.21-3.56.37-5.33.71a5.38,5.38,0,0,0-1.68.74c2.16,4.62,4.31,9.19,6.42,13.78,2.53,5.51,5,11,7.55,16.56a4.12,4.12,0,0,0,.72,1.2c.6.65,1,.89,2,.33a34.22,34.22,0,0,0,6.34-5.22,2.77,2.77,0,0,0,.58-2.37C71,77.84,69.8,74,69,70.05a22.79,22.79,0,0,0-2.47-7.26,18.77,18.77,0,0,0-4-4.73c-2.28-1.9-5-2-7.7-1.91Z"/>
    <path d="M231.33,87.06a23.32,23.32,0,0,0-7.25,1.31A4.25,4.25,0,0,0,222,89.81c1.94,6.07,3.84,12.09,5.8,18.09s4,11.82,5.86,17.76c.36,1.12.68,1.22,1.68.9a70.21,70.21,0,0,1,10.19-2.72,1.65,1.65,0,0,0,1.38-1.43,49.24,49.24,0,0,0,.85-7.26c.17-3,.7-6,.75-9a36.66,36.66,0,0,0-1.34-9.61,11.37,11.37,0,0,0-5.6-7.44c-3.19-1.83-6.58-2-10.08-2Z"/>
  </g>
  <g class="stoneDark">
    <path d="M193,38c.64-2.61,1.3-5.22,1.91-7.84a2.32,2.32,0,0,0-.28-1.63C192.78,25.1,191,21.66,189,18.31c-1-1.7-1.36-1.77-2.92-.59s-3,2.52-4.45,3.84-2.73,2.69-4.16,4a3.79,3.79,0,0,0-1.13,2.54,53.1,53.1,0,0,1-1.24,7.09c-1,4.05-1.7,8.18-2.46,12.28-.53,2.89-1.32,5.71-1.9,8.75.35.84,1.46.78,2.18.94,5.67,1.29,11.29,2.75,16.84,4.49.81.25,1.43.07,1.49-1,.26-4.34.53-8.68.89-13,.26-3.16.68-6.31,1-9.46Z"/>
    <path d="M60,89.42c.76.77,1.78.34,2.67.56s1-.34,1.05-1.15c.22-2.68-.64-5.22-1-7.83-.47-4-2-7.63-3.18-11.4a29.09,29.09,0,0,0-4.91-9.47c-3-3.81-9.34-3.82-12.87-.14-2.39,2.49-3.34,5.49-3.76,8.87-.53,4.32,0,8.58.1,12.87,0,1.24.65,2.45.82,3.7s1.19.88,1.67,1c4.36.8,8.76,1.43,13.14,2.14,1.59.26,3.17.53,4.73.91a2.34,2.34,0,0,0,1.34,0Z"/>
    <path d="M460.39,45.5c.5-2.26-.85-3.86-1.89-5.64s-2.26-3.32-3.17-5.14-1.64-1.9-3.52-1c-2.76,1.24-5.46,2.58-8.16,3.93-1.67.84-1.94,2.09-2.2,3.61-.69,4-1,8.08-1.43,12.35,1.34,1.06,3.11,1.34,4.84,1.69,3.89.8,7.85,1.18,11.69,2.21,1.88.5,2.44-.06,2.68-1.9.42-3.3.46-6.64,1.16-9.91Z"/>
    <path d="M237.75,114.57c.79-4.87,1.52-9.73.66-14.65-.63-3.67-1.9-7-4.82-9.66-2.31-2.1-4.93-2.33-7.73-2.15a11.78,11.78,0,0,0-6.34,2.81c-3.39,2.66-5.2,6.36-6.72,10.31-1.62,4.24-2.22,8.72-3.51,13a1.05,1.05,0,0,0,.76,1.3c3.51,1.33,6.42,3.72,9.74,5.38,3.94,2,7.8,4.12,11.69,6.19,1.59.84,2.18.72,3.25-.74a12.84,12.84,0,0,0,1.93-4.88c.27-1.19.59-2.37.88-3.55C237.54,118,237.58,115.6,237.75,114.57Z"/>
  </g>
  <g class="graveEdgeLine">
    <path d="M232.51,51.57c.92,1.72,2.8,2.32,4.16,3.53,2.14,1.91,4.77,3.16,7,5a3.8,3.8,0,0,0,2.35.78c4,.26,8,.82,12,.88.53,0,1.05.37,1.63.27"/>
    <path d="M60,14.15a74.88,74.88,0,0,0-8.86,2.7c-1.46.56-4.23-.38-4.62-.53"/>
    <path d="M254.25,15.34a25.86,25.86,0,0,1,4,2.1c2.17,1.7,4.81,1.78,7.28,2.45a10.35,10.35,0,0,1,2.5.77"/>
    <path d="M194.51,28.94l7.54,1.19c.84.13,1.68.29,2.52.44"/>
    <path d="M88.63,65.32,98.39,68"/>
    <path d="M276,79.37c.28.86,1.19.88,1.79,1.31,1.9,1.37,4.06,2.38,5.91,3.85a3.2,3.2,0,0,0,1,.31"/>
    <path d="M467.93,44.47c-.17-.18,0-.56-.44-.61-2.37-.21-4.73-.48-7.1-.72"/>
    <path d="M108,65.32a35.69,35.69,0,0,0-7.54-2.07"/>
  </g>
</svg>
