<svg viewBox="0 0 1275.78 168.71">
  <g class="treeFurthest">
    <path d="M223.38,40.1c4.44-15.88-17.93-25.94-26.23-11.91.15-11.45-15.9-13.8-18.8-3.21,1-16.18-23.68-19.22-28-4.34-10-10.88-28.26,3.81-21.95,17.09C119.19,71.64,235.09,66.74,223.38,40.1Z"/>
    <path d="M867,54.4c8.78-7.36.06-21-9.85-16.32,12.89-9.84-.92-30.49-15-24,1.72-14.66-21.35-18.91-27.28-5.45C810.76,0,796.86,3.5,799,14.19c-5.56-8.22-24-.13-19.71,10.21C774,20.15,761,26.8,765.67,34.84,714.37,70.61,872.75,75,867,54.4Z"/>
    <path d="M1155,39.25C1151,26.91,1169.31,17.87,1177.72,28c-.54-8,9.77-9.88,12.57-2.52,1.34-12.19,23.1-15.62,28-3.92,4.35-9.58,25.55-6.53,26,4.88,9-5.54,21.59,5.9,15.51,15.15,14.23,1.74,17.58,25.85,4.79,30.88"/>
    <path d="M679.69,44.84C689,37.4,680,17.84,668,21c3.71-8.34-14.78-18.63-20-8-10.83-12.43-31.52.73-24.37,15.38-9.48-6.42-20.26,5.7-13,13.94C594.37,57,684.29,69.94,679.69,44.84Z"/>
    <path d="M1123,49.55c9.29-7.44.31-27-11.65-23.88,3.71-8.34-14.78-18.64-20-8C1080.55,5.2,1059.86,18.36,1067,33c-9.48-6.42-20.27,5.43-13,13.66C1036.44,69.24,1126.05,84.53,1123,49.55Z"/>
    <path d="M528.41,67.63c16.8-.65,17.19-28,.71-30,7.64-9.65-3.46-22.44-14.81-16.26,2.33-12.74-16.94-19.38-24-8.23-.48-8-10.95-8.55-12.79-.89C474.65.36,452.63-.27,449.27,12c-5.54-9-26.18-3.23-25.19,8.15-9.64-4.35-20.67,8.61-13.46,17-13.89,3.54-14.15,27.89-.82,31.24"/>
    <path d="M380,61.74c10.54-10.26-4.61-27.51-14.05-20,3.19-11.2-14.64-20.1-20.89-9.91,2-11.91-21.09-19.27-27.42-8-2.6-7.49-16.38-6.73-17.61,1.77-6.18-10.1-28.15-5.62-27.87,7-12.81-1.07-18.6,25-7.22,30.56Z"/>
    <path d="M951.5,26.82c10.81-4.81,15.8,6.78,8.65,13,18.4,21.81-85.31,45.69-80.86,13-11.64-9-.34-31.27,14-28.27-2.69-8,6.53-13.24,11.82-6.93-.51-13.9,20.12-19,25.8-6.84C942.07,1.46,959.42,14.75,951.5,26.82Z"/>
    <path d="M85.6,28.76c10.81-4.81,15.8,6.78,8.65,13,8.86,19.7-87.34,27.95-80.86,13-11.64-9-.34-31.28,14-28.28-2.7-8,6.52-13.23,11.81-6.93C38.69,5.64,59.32.52,65,12.7,76.18,3.4,93.52,16.69,85.6,28.76Z"/>
  </g>
  <g class="roofSide">
    <path d="M447,68c-8.54-6.43-41.7-26.54-50.54-35.81-9.51,10-41.53,27.65-50.07,33.86Z"/>
    <path d="M163.47,68.35c7.67-6.43,26.55-23.73,33.44-31.21,13.82,1.14,54.31,0,54.31,0a377.9,377.9,0,0,0,31.11,30.14Z"/>
    <path d="M536.89,38.38c16.89.5,45.15,1.07,50.72.56,4-2.69,7.47-4.13,11.18-7.09a39.16,39.16,0,0,0,9.87,7.09c6.81.51,12.91.12,25.24-.56,6.2,6.9,23.9,21.26,29.84,26.41L508.26,66.38C515.32,59.88,533,43.28,536.89,38.38Z"/>
    <path d="M4.3,66.17c13.45-10.8,28-22.52,35.94-30.67,19.45.6,73.52,1,88.27.27l10.07-5.86c10.42,10.7,27.34,23.68,42.06,35.71Z"/>
    <path d="M833.32,64.23c8.55-6.43,26.38-21.5,35.21-30.77,9.52,10,30.08,22.21,38.62,28.42Z"/>
    <path d="M784.2,62.81c-7.66-6.44-26.54-23.74-33.43-31.21-13.83,1.13-84,0-84,0a381.3,381.3,0,0,1-31.11,30.14Z"/>
    <path d="M1221,35.33c-16.89.5-18.26,1.07-23.83.56-4-2.69-7.46-4.13-11.18-7.09a39.12,39.12,0,0,1-9.86,7.09c-6.81.51-31.49.12-43.82-.56-6.2,6.9-23.9,21.26-29.84,26.41l147.16,1.59C1242.53,56.83,1224.82,40.23,1221,35.33Z"/>
    <path d="M1089.06,62.75c-13.44-10.81-38.11-31.3-46-39.45-19.46.6-44.41,1.05-59.16.27l-10.07-5.86c-10.42,10.7-42.62,36.19-57.34,48.22Z"/>
  </g>
  <polygon class="fence" points="1275.28 168.21 1275.07 59.69 1265.31 51.97 1255.84 59.34 1244.85 51.51 1235.56 59.62 1224.85 51.81 1215.01 59.68 1204.39 52.37 1194.78 59.74 1183.7 51.59 1174.14 59.7 1164.47 52.35 1154.99 59.71 1144.01 51.62 1134.72 59.72 1124 52.19 1114.17 60.06 1103.54 52.47 1093.94 59.84 1082.86 51.97 1073.21 59.7 1063.44 51.98 1053.97 59.34 1042.99 51.52 1033.7 59.63 1022.98 51.81 1013.15 59.69 1002.52 52.38 992.92 59.74 981.84 51.6 972.27 59.71 962.6 52.35 953.13 59.72 942.14 51.62 932.85 59.73 922.14 52.19 912.3 60.07 901.68 52.48 892.07 59.85 880.99 51.98 870.89 60.03 859.82 52.16 849.99 60.04 839.36 52.45 829.76 59.82 818.67 51.95 809.03 59.68 799.26 51.95 789.79 59.32 778.81 51.5 769.51 59.61 758.8 51.79 748.97 59.67 738.34 52.36 728.74 59.72 717.65 51.58 708.09 59.69 698.42 52.33 688.95 59.7 677.96 51.6 668.67 59.71 657.96 52.17 648.12 60.05 637.5 52.46 627.89 59.82 616.81 51.96 607.16 59.68 597.4 51.96 587.93 59.33 576.94 51.51 567.65 59.62 556.93 51.8 547.1 59.67 536.47 52.36 526.87 59.73 515.79 51.59 506.23 59.69 496.55 52.34 487.08 59.71 476.1 51.61 466.81 59.72 456.09 52.18 446.26 60.05 435.63 52.47 426.02 59.83 414.94 51.97 405.29 59.69 395.53 51.97 386.06 59.34 375.07 51.51 365.78 59.62 355.07 51.81 345.24 59.68 334.61 52.37 325 59.74 313.92 51.59 304.36 59.7 294.69 52.35 285.21 59.71 274.23 51.62 264.94 59.72 254.22 52.19 244.39 60.06 233.76 52.47 224.16 59.84 213.08 51.97 203.43 59.7 193.67 51.98 184.19 59.34 173.21 51.52 163.92 59.63 153.2 51.81 143.37 59.69 132.74 52.38 123.14 59.74 112.06 51.6 102.5 59.71 92.82 52.35 83.35 59.72 72.36 51.62 63.07 59.73 52.36 52.19 42.52 60.07 31.9 52.48 22.29 59.85 11.21 51.98 0.5 60.38 0.77 168.21 861.61 168.18 861.6 168.21 1275.28 168.21"/>
</svg>
