<svg viewBox="0 0 457.5 268">
  <path class="treeTrunkFurther" d="M63.91,267.39c.58-.14,1.36-.1,1.71-.46,3.17-3.34,7.57-5,10.94-8A11.39,11.39,0,0,1,79.39,257a3.46,3.46,0,0,0,2.17-3.09c.36-3.77,1.13-7.56,1-11.32-.28-8.26,1.63-16.38,1.2-24.63-.36-7.12.64-14.23.62-21.35,0-8.8.17-17.59.9-26.37a4.84,4.84,0,0,0-1.77-4.14c-2.38-2.26-4.8-4.49-7.18-6.76-1.87-1.78-3.56-3.77-5.89-5l-.21.65c-.22.14-.42.37-.66.42-5.15,1.25-10.34,2.39-15.46,3.76-2.83.76-5.65,1.5-8.5,2.16a121.1,121.1,0,0,0-12.22,3.43c-2,.69-4,1.18-6.15-.32a28,28,0,0,0-6.48-2.89,128.17,128.17,0,0,1-18.3-8.09c-.73-.4-1.66-.55-2-1.51a2.67,2.67,0,0,1,2.17-.43c3.58,1,7.3,1.09,10.92,1.87,4.56,1,9.18,1.71,13.74,2.79a8.77,8.77,0,0,0,5,.21c3.63-1.18,7.23-2.51,10.9-3.47,6.51-1.71,12.62-4.41,18.92-6.43,0-.43.1-.73,0-.86-3.13-4-6.51-7.7-10-11.33-2.71-2.81-5.13-6.14-8.36-8.15-4.66-2.89-9.92-4.82-15-7.1-2.93-1.33-6-2.38-8.88-3.82-4-2-8-3.65-12-5.6-2.24-1.11-4.8-1.7-6.59-3.67A2.6,2.6,0,0,1,4,105.3c3.75.56,7.3,2,11.11,2.46,4,.5,7.85,1.68,11.78,2.53,5.51,1.18,11.05,2.28,16.55,3.51,2.65.59,4.41,2.44,6.4,4.25a245.15,245.15,0,0,0,26.74,21c.92.62,2,1.27,3.25.46l.66.87c-.74-1.17-.14-2.5-.46-3.7a21,21,0,0,1,.4-12,4.3,4.3,0,0,0-.52-3.73,148.7,148.7,0,0,0-9.36-13.31c-3-4-5.77-8.17-8.84-12.1-1.3-1.66-2-4.08-4.13-4.76-4.26-1.39-7.91-4-11.89-5.88-3.3-1.58-6.46-3.72-9.73-5.36s-6.37-3.67-9.66-5.32c-4.62-2.33-9.1-5-13.55-7.75C12,66,11,65.83,10.6,64c14.52,3.38,28,9,42,12.92a19.17,19.17,0,0,0,.85-2.18c1-3.84,2-7.7,3.07-11.54q2.49-9.16,5-18.31L62,46.45a6.21,6.21,0,0,1,.89,3.27c.08,2.9.27,5.81.41,8.71.31,6.1.82,12.19.67,18.31a11.52,11.52,0,0,0,3,8.73c2.84,3,5.45,6.16,8.32,9.11,3.91,4,7.46,8.44,11.81,12.1a5.34,5.34,0,0,0,2.34-2.7c1.46-3.61,3.93-6.65,5.49-10.23,2-4.62,4.68-9,3.25-14.41-1.81-6.86-3.3-13.81-5.08-20.68-.65-2.47-1.09-4.74.91-6.76,1.46-1.47,2.27-3.38,3.48-5,4.55-6.17,8.66-12.62,12.67-19.15,3.55-5.76,7.38-11.35,11.08-17l.44-.43c.89.66.7,1.47.46,2.4-1.25,4.83-3,9.5-4.22,14.36a46.62,46.62,0,0,1-3.55,10.63C112.59,41,111.87,44.8,109.75,48c-1.33,2-1.56,4.69-3.11,6.72-.14.2.14.7.19,1.07.62,5,2.75,9.63,3.52,14.59,0,.27.39.47.42.88.15,1.67.8,2,2.15,1.08,3.52-2.44,7-4.85,10.46-7.42,6-4.51,11.8-9.3,17.94-13.62,2.29-1.61,4.53-3.66,8-3.23,7.08.88,14.22,1.36,21.35,1.8,4.57.28,9.17.24,13.72.9.8.11,1.6.15,2.44.23.74,1.46-.58,1.77-1.36,1.91-3.24.55-6.56.75-9.78,1.4-3.63.73-7.33.76-10.94,1.81-3,.88-6.36.8-9.55,1.2a68.65,68.65,0,0,1-8.94.63c-.7,0-.94.53-1.29.9-1.56,1.64-3,3.39-4.6,5-5.76,5.79-11.72,11.37-17.5,17.14-2.78,2.78-5.93,5.25-8.86,7.93-.37.35-.94.67-1,1.1-1.51,5.92-4.92,11.15-6.47,17-1.12,4.23-3.32,8.06-4.06,12.39a9.28,9.28,0,0,1-1,2.18c-1.88,3.83-.49,7.43.61,11.13,1.4,4.74,2.5,9.57,3.75,14.36.75,2.92,1.54,5.83,2.34,8.84,2.31-.88,4-2.53,5.7-4.06a199.59,199.59,0,0,1,15.49-13.27,4.56,4.56,0,0,0,2.05-2.59c1.24-4.2,2.46-8.38,3.52-12.63.82-3.3,2.13-6.52,2.89-9.85,1.14-5.07,4.84-8.42,7.92-12.16s6.46-7.18,9.77-10.7c2-2.17,4.2-4.23,6.32-6.32.35-.35.59-1,1.34-.55a3.26,3.26,0,0,1-.72,3.35c-4.21,5-6.79,11-10.59,16.2a25.74,25.74,0,0,0-4.72,13.23c-.32,3.89-1.64,7.68-2,11.57-.21,2.3-1,4.6-.5,7.11,2.53-.89,5.1-1.67,7.57-2.62,5.63-2.15,11.4-3.94,16.84-6.61a15.74,15.74,0,0,1,3.89-1.37c4.4-.85,6.2-4.72,8.66-7.68,4.39-5.29,8.55-10.79,12.64-16.33,1-1.42,2-2.91,3-4.41,1.17.95.74,1.91.31,2.92-2.28,5.3-4.15,10.8-6.88,15.84-2.18,4-3.48,8.35-5.67,12.32a5.26,5.26,0,0,1-2.09,2.08c-6.3,3.59-12.92,6.53-19.55,9.49-8.49,3.79-16.94,7.69-25.54,11.23-3.85,1.59-6.16,4.82-9,7.56s-5.57,5.48-8.57,8c-2.81,2.37-5,5.49-7.73,7.94-2.43,2.17-2.86,4.72-2.81,7.68.12,7.2.27,14.4.88,21.58a56.38,56.38,0,0,1,.15,5.66c-.08,4.52.91,8.95.63,13.52-.25,4.18.47,8.42.76,12.63.4,5.75,1.38,11.44,1.52,17.21a3.86,3.86,0,0,0,2.14,3.78,119.37,119.37,0,0,1,15.88,11.18,2.66,2.66,0,0,1-2.11.51H67.39a11.3,11.3,0,0,1-1.52-.2Z"/>
  <path class="treeTrunk" d="M350.59,155.31a6.78,6.78,0,0,0,1.57-.38c2.76-.91,5.11-2.68,7.59-4a121.27,121.27,0,0,0,11.37-6.42c4.12-2.85,8.63-5.18,12.12-8.85,5.21-5.48,9.85-11.47,15-17,2.82-3.07,6-5.92,8.34-9.3a155.65,155.65,0,0,1,11.39-14c.53-.6,1.13-1.8,2.16-.86.84.78-.09,1.62-.42,2.39a4.66,4.66,0,0,1-.43.66c-3.93,6.15-8.22,12.09-11.26,18.77l-.89,1.32c0,.08,0,.17,0,.22-2.32,4-4.65,7.89-7.05,12,1.76.86,3.52.46,5.06.33,4.12-.37,8.23-.75,12.37-.78,2.9,0,5.52-.25,8.24-1.88,4.36-2.62,8.81-5.09,13-8.07,5.14-3.69,10.27-7.4,15.48-11,.7-.48,1.79-1.41,2.83-.28a1.93,1.93,0,0,1-.4,1.36c-1.66,2.21-4,3.69-6,5.48-6.81,6-13.68,11.92-20.51,17.9-4.94,4.32-10.28,7.78-17,8.64a82.07,82.07,0,0,0-8.61,1.75c-4.11,1-8.17,2.22-12.37,2.87-2.84.43-5.63.94-7.75,3.27-1.86,2-3.94,3.86-5.94,5.76-4,3.84-8.1,7.66-12.22,11.39-4.71,4.27-8.64,9.39-14,12.92-2,1.28-2.43,3.08-2.09,5.51.37,2.75.32,5.58.48,8.38.33,5.51.38,11,.49,16.56.17,8.31.44,16.63.4,24.94,0,5.32.78,10.59.72,15.9a5.83,5.83,0,0,0,2.66,5c3.16,2.18,6.45,4.17,9.7,6.21,2.85,1.79,5.74,3.54,8.61,5.31h-.45c-.81.07-1.61.21-2.42.21q-33.57,0-67.12.05c-1.27,0-3.87-.11-3.87-.11,5.76-4.24,13-8.77,18.48-13.35a4.12,4.12,0,0,0,1.76-3.58c0-3.7,1.13-7.27,1-11.05a34.24,34.24,0,0,1,.75-6.83c.57-3.31.15-6.63.15-9.94,0-3,.78-5.87.5-8.83a5.7,5.7,0,0,1-.18-2c1.28-4.12.71-8.41,1.17-12.6a107.67,107.67,0,0,0,.62-13.46c-.06-3.6.37-7.21.61-10.82a5.15,5.15,0,0,0-1.33-4,48.48,48.48,0,0,1-3.94-4.44,95,95,0,0,0-8.65-10.13c-2.71-2.95-5.83-5.62-8.05-8.9a22.75,22.75,0,0,0-8.95-7.43c-4.11-2.13-8.61-3.22-13-4.35-4-1-7.77-2.46-11.66-3.68-3.73-1.16-7.66-2.21-10.59-5-2.77-2.67-5.26-5.63-8-8.35-3.15-3.13-5.61-6.85-8.77-10-2.8-2.79-5.21-6-7.75-9-.31-.37-.75-.89-.25-1.53.63-.83,1.22-.29,1.76,0a12.52,12.52,0,0,1,1.34,1.09c3.53,2.87,7.08,5.72,10.59,8.61,3.19,2.63,6.5,5.13,9.45,8a15.51,15.51,0,0,0,8,3.89c4.32.93,8.74,1.43,13,2.51,5.88,1.5,11.94,2.26,17.68,4.35,3.6,1.31,7.1,2.78,9.48,6a47.67,47.67,0,0,0,7,7.1,109.35,109.35,0,0,1,10.85,10.57,68.94,68.94,0,0,0,6,6.87c2-3.7,3.4-7.43,5.06-11.05,2.1-4.57,3.64-9.36,5.68-13.94.35-.79,1-1.64,0-2.42-1.75-1.4-3.2-3.14-4.87-4.61-5-4.39-10.24-8.43-15.25-12.8-5.19-4.52-10.38-9-15.28-13.86a62.2,62.2,0,0,0-7.85-7.17,70.46,70.46,0,0,0-7.32-3.92c-3.74-2-7.71-3.54-11.51-5.44-4.56-2.28-9.42-4-14.09-6.05a1.69,1.69,0,0,1-1.3-1.93,149.59,149.59,0,0,1,28.47,5.3c0-4.27.25-8.49-.06-12.66-.57-7.87-1.41-15.73-1.19-23.63a23.09,23.09,0,0,1,1-7.72l.23-.67c1.19,3.82,1.51,7.8,2.23,11.7,1,5.55,2.64,11,3.56,16.55.76,4.61,2,9.14,3,13.7a26.15,26.15,0,0,1,.44,2.65c.35,2.92,2.47,4.66,4.45,6.37,3.12,2.69,6.25,5.36,9.3,8.14,4.63,4.21,10,7.46,15.38,10.7,2.42,1.46,4.55,3.38,6.88,5,.93.65,1.74,1.65,3.15,1.56.15-1.51-.55-2.86-1-4.18-2.08-5.93-4.66-11.7-6.46-17.71-1.13-3.78-2.7-7.46-3.33-11.43a3.89,3.89,0,0,1,.16-2c1-3.19,2.26-6.32,3.26-9.51,1.76-5.65,3.4-11.33,5.1-17,.73-2.43,1.54-4.83,2.19-7.29.81-3.1,2.06-6.26,1.07-9.47C337.92,27.27,337,22,335.82,16.88c-.49-2.12-.56-4.33-1.32-6.41-.1-.28.27-.73.41-1.09V7.61c-.24,1.88,1.51,2.84,2,4.4,1.31,3.86,3.63,7.23,5.5,10.82,2.2,4.24,4.55,8.4,6.82,12.6,1.06,2,.32,4-.29,5.71-2.59,7.58-3.83,15.46-5.73,23.19-.45,1.84-.65,3.72-1.2,5.56-1,3.22,0,6.33,1.49,9.25,2.6,5.08,4.54,10.46,6.89,15.65A72,72,0,0,1,354.48,105c2.67-.66,4.39-2.57,6.26-4.24,5.66-5.07,11.27-10.21,16.53-15.7,1.33-1.39,2.82-2.73,3.56-4.61l.67-.44a1.19,1.19,0,0,1-.23.22.3.3,0,0,1-.21,0c-.63-1.62.18-3.25,0-4.85-.47-3.69,0-7.36,0-11,.07-4,.5-8.11.35-12.14a13.37,13.37,0,0,1,1.4-7.07c3.42-6.41,5.79-13.3,8.9-19.84,1.1-2.33,1.78-5,4.2-6.88a8.48,8.48,0,0,1,0,4.87c-.77,3.29-1.35,6.62-2,9.93q-1.32,6.41-2.65,12.8a28.44,28.44,0,0,0-.65,8.17c.47,5.67,1.06,11.33,1.51,17,.17,2.13.25,2.2,2.45,2,4.86-.43,9.55-1.74,14.35-2.45,4.49-.66,9-1.23,13.46-2,1.45-.27,3.53-.09,3.94-2.16.35-1.86,1.46-3.36,2-5.08A127.89,127.89,0,0,1,436,42.72c.38-.78.59-1.77,1.76-1.78.53.46.37.92.26,1.56-1,5.68-2.6,11.2-3.93,16.79a155.58,155.58,0,0,1-4.27,15.88c-.24.67-.44,1.77-1.1,1.69-2.09-.26-3.85.78-5.74,1.21a142.81,142.81,0,0,0-13.89,3.57c-5,1.67-10.06,2.82-15.08,4.19-2.2.6-4,1.14-5.24,3-.72,1.12-1.73,2-2.4,3.11-6.29,10.15-14,19.25-21.38,28.57-3.58,4.52-5.72,9.45-7.59,14.68-2.07,5.8-4,11.66-6.25,17.41-.54,1.38-.16,3.52-2.36,4Z"/>
  <path class="treeTrunkCloser" d="M263.69,131.93c.28-.35.49-.82.85-1a76.44,76.44,0,0,0,8.17-6.14,10.83,10.83,0,0,1,3.61-2.24,28.25,28.25,0,0,0,7.1-3c5.49-3.31,11.18-6.26,16.89-9.13,6.29-3.16,12.26-6.87,18.44-10.21a4.35,4.35,0,0,0,2.42-2.71c-1.21.12-2.3-.18-3.46.42a36.28,36.28,0,0,1-5.67,2.52c-5.61,1.77-11,4-16.61,5.88-4.79,1.6-9.47,3.62-14.5,4.46l.42-.42c.6-2.9,1.15-5.8,2-8.65C284.52,98,286,94.4,286.47,90.7c.7-4.94,3.48-8,7.06-10.94,3.74-3,7.23-6.38,11-9.39,2.07-1.66,3.84-3.61,5.81-5.36.6-.54,2.13-1.3.82-2.8-6.23,4.48-13.1,7.88-19.55,12-2.86,1.84-5.84,3.59-8.8,5.29a7.19,7.19,0,0,0-3.14,4.06q-3.86,9.68-7.08,19.57c-1.15,3.55-2.4,7-3.81,10.51-.2.5-.13,1.21-.66,1.44-3.9,1.67-7,4.75-10.9,6.39-2,.85-3.79,2.35-5.71,3.51A128.81,128.81,0,0,1,238,131.72c-1.2.54-2.1,1.72-3.76,1.69-1.26-4-2.39-8.17-3.84-12.19-2.18-6-3.4-12.3-5.55-18.34-1.43-4-1.9-8.38-2.85-12.58a2.82,2.82,0,0,1,.42-2.32c2-3.13,3.84-6.37,5.94-9.44,2.4-3.53,4.67-7.16,7.3-10.55a70.31,70.31,0,0,0,6.18-8.78c.86-1.55,2.89-2,4.39-2.44,5-1.45,9.59-3.76,14.47-5.4,6.42-2.17,12.75-4.63,19.16-6.86.83-.29,1.49-.83,2.3-1.08a.84.84,0,0,0,.59-1.06.81.81,0,0,0-1-.66c-1,.14-2.1.12-3.15.19-5.29.34-10.5,1.28-15.76,1.83s-10.7.69-16,1.59c-1.13.19-2.24-.59-3.36,0l.84-.42q-3.78-9.78-7.57-19.56c-1.88-4.84-3.71-9.7-5.7-14.5a70.62,70.62,0,0,0-4.17-9.27,1.67,1.67,0,0,0-1.9-1c-1,.25-.71,1-.68,1.86.16,5.27,1.81,10.25,2.83,15.34,1.3,6.5,2.63,13,3.61,19.55.53,3.51,1.2,7.05,2,10.53s-.49,6.24-2.52,8.83c-5,6.37-10.35,12.47-15.76,18.51-.66.74-1.18,1.6-1.87,2.54-4.66-4.07-9.46-7.72-13.7-12a49,49,0,0,0-4.86-4.6c-2.83-2.17-3.55-5.35-4.35-8.45-1.26-4.88-2.29-9.81-3.4-14.71-.51-2.24-1-4.48-1.44-6.74-.16-.87-.51-1.57-1.3-1.63-1.19-.08-.78,1-.83,1.64A106.46,106.46,0,0,0,183.16,47c.14,1.75.39,3.5.4,5.25,0,4.09,1.05,8.09.9,12.2a6.66,6.66,0,0,0,2.27,4.84c4.08,4.19,8.09,8.45,12.23,12.58A40.91,40.91,0,0,1,202.14,85c2.61,3.19,2.88,7,3.37,10.76.33,2.56,1.26,5,1.82,7.58,1.23,5.53,2.37,11.08,3.59,16.61,1.37,6.17,2.83,12.33,4.16,18.51a10.65,10.65,0,0,0,.71,1.87c1.07,2.63.15,5.09-1.16,7.11-2.66,4.09-3.88,8.88-6.65,12.88-.41.59-.67,1.28-1.07,1.88-.51.79-1.2,1-1.87.21-3-3.62-6.95-6.38-10.07-9.9-6.12-6.91-12.86-13.22-19.18-19.93-.85-.91-1.15-2.32-2.64-2.56,1-3,.4-5.82.28-8.6-.38-8.14-1.09-16.26-1.6-24.39-.17-2.65-1.92-4.26-3.61-5.87A124.34,124.34,0,0,1,157.06,79.6,75.1,75.1,0,0,0,144,67c-.45-.34-1.2-1.15-2.07-.47l-.42-.84c.48,3.56,2.71,6.29,4.44,9.24,2.67,4.52,5.73,8.8,8.2,13.46,1.24,2.36,3.13,4.31,4.69,6.46a14.25,14.25,0,0,1,2.47,7.84c.44,6,.13,11.92.18,17.88,0,3.5.19,7,.18,10.51a4.61,4.61,0,0,0,1.7,3.37c3.36,3.39,6.64,6.84,9.68,10.51.64.77,1.26,1.54,1.89,2.31l-.63-.42c-1.21,1-2.64.34-3.77.12-5.52-1.08-11.05-2.06-16.62-2.89a55.39,55.39,0,0,1-9.44-2.15c-2.21-.74-3.7-2.83-5.48-4.34-4.43-3.76-8.83-7.55-13.09-11.51-.73-.69-1.9-1.49-3.23-.37.91,2.53,2.74,4.56,4.13,6.83,3.23,5.29,7.22,10,10.67,15.18,2.33,3.45,5.89,4.22,9.5,5,6.28,1.37,12.55,2.74,18.74,4.54,5.64,1.64,11.21,3.6,17,4.76a6.32,6.32,0,0,1,4,2.89c4.48,6.64,9.18,13.13,13.57,19.83,1.25,1.91,2.08,4.12,3.66,5.82a1.82,1.82,0,0,1,.39,1.5c0,4.9,0,9.81,0,14.71.06,6.47-.83,12.91-.77,19.35.07,7-.86,13.86-.71,20.81,0,1.69-.87,3.34-.14,5.11-6.07,4.63-11.32,10.21-17.58,14.57.58.89,1.4.72,2.16.72H250c.63,0,1.26-.1,2.24-.19a24.33,24.33,0,0,0-5.19-4.63c-4.06-3-8.08-6-12.21-8.81-2.19-1.5-2.34-3.74-2.46-5.92-.23-4.12,0-8.28-.31-12.4-.26-3.64-.37-7.31-.46-10.94-.1-4.63-.63-9.23-.63-13.87,0-1.4.2-2.8.11-4.21-.51-7.63-.07-15.28-.61-22.92-.23-3.21.84-6.45.34-9.66-.68-4.37.65-8.19,2.53-12a73.6,73.6,0,0,0,3.76-9,10.08,10.08,0,0,1,3.67-5c3.75-2.74,7.68-5.23,11.52-7.84a.93.93,0,0,1,1.07,0c3.77,1.77,8,2.39,11.73,4.09,6.53,3,13.46,5,19.78,8.37,2.55,1.37,5,.64,7.36-.08,8-2.45,15.91-5,24-7.15,2.41-.64,4.59-2.08,7-2.82,1-.31,1-.86,1.29-1.58a3.52,3.52,0,0,0-3-.34c-3.47.77-7.1.4-10.5,1.28-3.83,1-7.75,1.18-11.59,2a56.87,56.87,0,0,1-8.83,1c-.89,0-1.81-.92-2.73-1.39-3.66-1.86-7.47-3.45-11.11-5.33-4-2.06-8.23-3.43-12.22-5.41a2.13,2.13,0,0,0-2.11-.2Z"/>
</svg>
