<svg viewBox="0 0 490.54 203.5">
  <g class="treeFurther">
    <path d="M157.25,38.08a17.06,17.06,0,0,1,2.7-8.69,17.45,17.45,0,0,1,8.76,3.18,60.87,60.87,0,0,1,2.17-16.49,31.83,31.83,0,0,1,13.75,7.3,17.5,17.5,0,0,1,4.89-7.5,17.83,17.83,0,0,1,5.66,4.46c1.74-5,5.08-9.13,8.67-12.9A29.33,29.33,0,0,1,212.92,20a18.66,18.66,0,0,1,6.38-5.92,24.1,24.1,0,0,1,4.77,8.3,28.15,28.15,0,0,1,13-8,46,46,0,0,1,2.65,16.13A13.8,13.8,0,0,1,246,28.46a26.73,26.73,0,0,1,1.55,7.63,32.14,32.14,0,0,1,4.34-6.94,27.7,27.7,0,0,1,6.23,4.17A54.83,54.83,0,0,1,263,18.42a66.46,66.46,0,0,1,13.29,10.63,28.08,28.08,0,0,1,3.57-8.3,25.45,25.45,0,0,1,6.53,5.41,38.73,38.73,0,0,1,8.74-14.31c3.74,3.73,7.24,8,8.47,13.24a13,13,0,0,1,5.47-4.28,25.4,25.4,0,0,1,3.16,6.45,34.38,34.38,0,0,1,13.9-6.77,38.21,38.21,0,0,1,5.93,17.57q-.9,35.44-1.26,70.9-86.15-.88-172.29,0Q158.16,73.52,157.25,38.08Z"/>
    <path d="M454.45,85.7a30.13,30.13,0,0,1,13.06-1.38,23.64,23.64,0,0,1,2.2,11.77,27.79,27.79,0,0,1,14,3.5,29.92,29.92,0,0,1-4.76,12.86,15.26,15.26,0,0,1,8.62,6.64,18.81,18.81,0,0,1-6.91,6.63,26.08,26.08,0,0,1,9.29,10.83A43.46,43.46,0,0,1,478.48,142a15.09,15.09,0,0,1,2.4,9.31,24,24,0,0,1-9-.44,17.4,17.4,0,0,1-1.47,11.44,35.07,35.07,0,0,1-13.19-8q-19.17-.42-38.33-.76,0-34.47,1-68.93Q437.17,85.11,454.45,85.7Z"/>
  </g>
  <g class="treeCloser">
    <path d="M319.28,53.28c-.35-6.82,1.62-15.54,10-15.94A8.78,8.78,0,0,1,340.56,26.8C338.07,11.51,354.4.71,366.82,11c3.52-7.88,14.5-9.11,19.39-1.86,7.63-13.3,31.5-11.12,32.31,5.93,5.92-5.62,16.37-1.65,16.77,6.59,9.94-9.36,24,4.52,18.65,15.54,8.09-2,13.91,7.66,9.29,14.2,13.24,5.34,8.79,28.34-5.05,29.39,3.24,7.72-7.17,15.34-13.74,10.48,3.84,12.54-10.61,19.89-21.09,19.23q-52.41-1.14-104.83-1.64Q318.76,81.06,319.28,53.28Z"/>
    <path d="M174,66.14c8.23-8.58-.71-25.29-12.51-22.42,3.75-8.15-4.73-17.23-13.06-13.35.16-16.82-23.24-23.43-31.76-9-3.74-10.53-17.53-9-21.24.49-9.34-10.26-27.22-6.41-27.84,8.6-6.77-6.65-17.71-1.65-18.5,7.28-11-5.53-25.73,7.88-17.75,18.83-8.84,2.06-8.52,13.35-1.35,17.3-11.54,2.72-8.34,17.53.83,20.93-7.24,5.43-5.68,19,4.42,20q69.64-1.78,139.29-2.4Q174.39,89.28,174,66.14Z"/>
  </g>
  <path class="palaceWallSide" d="M474.34,143.06q-31.93-.8-63.88-1.38,0,30.67.72,61.32h64.14Q474.33,173,474.34,143.06Z"/>
  <path class="palaceWallFront" d="M89.93,129.33q-40.26.73-80.52,1.82Q9.72,167.09,8.5,203H89.32Q90.15,166.18,89.93,129.33Z"/>
  <path class="palaceRoofSide" d="M477.21,142.2q-33.37-.37-66.75-.52,0-10.59.16-21.18,26.2.06,52.41.26C464.93,129.38,471.09,136.21,477.21,142.2Z"/>
  <path class="palaceRoofFront" d="M5.78,130.07q42.08-.57,84.15-.74-.12-13.35-.37-26.7-33.07.08-66.16.42C21.16,113.92,13.46,122.52,5.78,130.07Z"/>
  <g class="palaceRoofTrimBelow">
    <path d="M460,123.73c-16.5.5-32.94,0-49.41-1.06,0-1.76,0-2.64,0-4.41,16.18.9,32.32,1.62,48.52,1.06a6,6,0,0,0,4.76-1.83c2.37-2,5,.76,3.15,3.23A8.49,8.49,0,0,1,460,123.73Z"/>
    <path d="M472.78,144.87c-20.8.68-41.54-.18-62.31-1.27,0-2,0-3,0-5,20.44,1,40.84,2,61.31,1.28a6.71,6.71,0,0,0,5.33-2.07c2.64-2.31,5.66.86,3.59,3.63A9.47,9.47,0,0,1,472.78,144.87Z"/>
  </g>
  <g class="palaceRoofTrimAbove">
    <path d="M27.26,106.77c20.81.54,41.57-.1,62.34-1.41,0-2.22,0-3.33-.08-5.55-20.42,1.14-40.81,2.1-61.26,1.41a7.66,7.66,0,0,1-6-2.29c-3-2.58-6.33,1-3.92,4.07A10.79,10.79,0,0,0,27.26,106.77Z"/>
    <path d="M11.39,133.42c26.21.86,52.37-.28,78.54-1.67,0-2.5,0-3.75,0-6.26-25.76,1.22-51.5,2.66-77.29,1.69a8.51,8.51,0,0,1-6.75-2.59c-3.35-2.9-7.13,1.09-4.48,4.58A12.17,12.17,0,0,0,11.39,133.42Z"/>
  </g>
  <path class="wallHighSide" d="M429.45,114q-14-16.49-28-33Q386.12,96.85,371,112.9q-.47,45.06.35,90.1H430Q428.79,158.51,429.45,114Z"/>
  <path class="wallLowSide" d="M275.87,103.63q-63.39-.22-126.78.53.49,49.43-.19,98.84h127Q275.72,153.32,275.87,103.63Z"/>
  <path class="wallLowFront" d="M150.19,104.15Q129.46,83.56,108.4,63.29,89.49,84.41,70.54,105.51q.9,48.75-.33,97.49H150Q150.69,153.58,150.19,104.15Z"/>
  <g class="frameDarkFront">
    <path d="M150.19,104.15c-3.94,0-7.87.09-11.81.15q.57,49.35-.2,98.7H150Q150.69,153.58,150.19,104.15Z"/>
    <path d="M82.35,105.26l-11.81.25q.9,48.75-.33,97.49H82Q83.18,154.13,82.35,105.26Z"/>
    <path d="M101.68,45.55l12.16-.26q0,14.09-.2,28.15l-9.48.19Q103,59.58,101.68,45.55Z"/>
  </g>
  <path class="frameDarkSide" d="M124.19,62.4c.19-5.56.38-11.75.57-17.32l-10.92.21q0,7.44-.08,14.86C117.07,62.44,121.4,62.41,124.19,62.4Z"/>
  <g class="roofSide">
    <path d="M159.18,111.05q58.95-.61,117.91-.4l2.63-7.1q-59-.24-118,.37C160.7,106.77,160.2,108.2,159.18,111.05Z"/>
    <path d="M149.82,104.15c-6.33,14.62-14.93,28.83-27.12,39.32.75,3,1.13,4.54,1.87,7.57A125,125,0,0,0,150,118.24Q149.9,111.21,149.82,104.15Z"/>
    <path d="M360.89,112.75c1.39,2.16,2.09,3.23,3.49,5.39q-19.75-.27-39.49-.47c-1.4-2.15-2.1-3.23-3.51-5.38Q341.14,112.49,360.89,112.75Z"/>
  </g>
  <g class="roofTop">
    <path d="M161.71,103.92q59-.61,118-.37c-19.69-11-34.79-26.74-47.88-44.88-5.25,3.7-13.48,2.42-19.45,2.67-13.1.55-26.41,1-39.61,1.11-13.53.14-27.21,0-40.63-.3-5.63-.12-13.39,1.46-18.39-2C127,77.86,142.07,93.36,161.71,103.92Z"/>
    <path d="M361.68,69.68a8.17,8.17,0,0,0-8.09,7.84,7.88,7.88,0,0,0,1.87,5.32q19.85.3,39.67.7,3.15-6.56,6.32-13.09Q381.56,70,361.68,69.68Z"/>
    <path d="M122.7,143.47q-39.23.53-78.44,1.37c12.15-10.49,20.71-24.7,26.92-39.35q39.32-.85,78.64-1.34C143.49,118.77,134.89,133,122.7,143.47Z"/>
  </g>
  <g class="roofFront">
    <path d="M124.57,151q-39.22.5-78.44,1.31c-.74-3-1.12-4.51-1.87-7.51q39.21-.84,78.44-1.37C123.45,146.5,123.83,148,124.57,151Z"/>
    <path d="M113.76,60.15c0,4.43-.07,8.86-.12,13.29,13.37,14.89,28.05,27.75,45.54,37.61,1-2.85,1.52-4.28,2.53-7.13C142.16,93.4,127,77.78,113.76,60.15Z"/>
    <path d="M103,60.15C90.9,78.54,76.18,94.49,57.12,105.72c1.1,2.79,1.65,4.19,2.74,7a166.15,166.15,0,0,0,44.3-39.08q-.54-6.48-1.1-13Z"/>
    <path d="M321.38,112.29c13.72-7.27,24.41-17.41,34.08-29.45q19.85.3,39.67.7c-5.13,15.39-19.08,25.13-34.24,29.21Q341.14,112.48,321.38,112.29Z"/>
  </g>
  <g class="roofBelow">
    <path d="M70.57,107c0-.39,0-.58,0-1-3.52,2.32-7.06,4.54-10.69,6.7l8.22-.18Q69.37,109.83,70.57,107Z"/>
    <path d="M364.38,118.14c-1.4-2.16-2.1-3.23-3.49-5.39,13.75-7.19,24.49-17.26,34.24-29.21a7.81,7.81,0,0,1-1.83-5.31,8.17,8.17,0,0,1,8.15-7.78,8,8,0,0,1,7.63,8.12,7.86,7.86,0,0,1-2.14,5.22c8.59,12.24,19.31,23.88,33,30.46l-3.64,5.23c-14.12-7.84-26.68-19.19-34.93-33.17A118.2,118.2,0,0,1,364.38,118.14Z"/>
  </g>
  <path class="palaceWallSide" d="M372.64,126.66q-41.88-.61-83.77-.83-.08,38.58.17,77.17h84.09Q372.43,164.83,372.64,126.66Z"/>
  <path class="palaceWallFront" d="M288.87,125.83q-62.38-.3-124.79.27.15,38.44-.31,76.9H289Q288.8,164.41,288.87,125.83Z"/>
  <g class="beamSide">
    <path d="M382.32,126.8l-9.68-.14q-.22,38.18.49,76.34h9.72Q382.1,164.9,382.32,126.8Z"/>
    <path d="M298.55,125.88l-9.68,0q-.08,38.58.17,77.17h9.72Q298.48,164.44,298.55,125.88Z"/>
    <path d="M185.72,125.92,176,126q.12,38.49-.27,77h9.72Q185.82,164.47,185.72,125.92Z"/>
  </g>
  <g class="beamFront">
    <path d="M176,126l-12,.1q.15,38.44-.31,76.9h12Q176.15,164.5,176,126Z"/>
    <path d="M372.72,126.66l-12-.17q-.19,38.25.45,76.51h12Q372.52,164.83,372.72,126.66Z"/>
    <path d="M288.87,125.83l-11.95-.06q-.06,38.63.12,77.23h12Q288.8,164.41,288.87,125.83Z"/>
  </g>
  <path class="awningBelow" d="M288.9,117.4q50.79.28,101.59,1.15c0,3.36-.06,5-.08,8.39q-50.78-.84-101.54-1.11C288.88,122.46,288.89,120.77,288.9,117.4Z"/>
  <path class="awningSide" d="M288.9,117.4q.06-14.46.15-28.92,40.6.26,81.19.92a69.07,69.07,0,0,0,20.25,29.15Q339.7,117.68,288.9,117.4Z"/>
  <path class="awningFront" d="M155.85,126.18q66.51-.68,133-.35c0-3.37,0-5.06,0-8.43q-66.55-.32-133.1.37C155.83,121.14,155.84,122.82,155.85,126.18Z"/>
  <path class="awningTop" d="M288.9,117.4q.06-14.46.15-28.92-55.14-.3-110.29.17c-3.83,12.06-12.56,22.17-23,29.12Q222.35,117.08,288.9,117.4Z"/>
  <path class="palaceRoofSide" d="M367.53,89.35Q351.3,71.13,335,52.93q-18.94,17.77-37.63,35.8Q332.48,88.9,367.53,89.35Z"/>
  <path class="palaceRoofFront" d="M167.56,84.66q67-.68,134-.2c12.9-8.74,23.56-19.54,33.44-31.53q-65.25-1-130.5-.85A222.62,222.62,0,0,1,167.56,84.66Z"/>
  <path class="palaceRoofTrimBelow" d="M300.74,88.76c8.05-2.75,13.94-10,19.84-15.57,4.88-4.64,10.77-9.16,14.28-15.13C340.52,65,346.15,72,352,78.69c4,4.53,8.25,10.31,14.45,11.77,8.06,1.1,13.55-8.84,16.38-14.9-5,3-10.47,6.89-16.55,5.54-12.9-7.93-22.06-20.52-31.42-32.11-4.31,5.91-9.45,10.9-14.56,16s-11.79,14.74-19.64,15c-5,.18-9.14-3.76-12-7.69-2.83,4.55-7.65,8.15-13,8.71-33.19.11-66.38.62-99.56-.1-9.17-.85-16.3-4.35-24-9.12,4.15,8.4,11.08,17.3,21.3,17.59,24.29,1,48.7.68,72.9.69C264.4,90.11,282.66,91.64,300.74,88.76Z"/>
  <path class="palaceRoofTrimAbove" d="M190.46,31c2,7.68,5.33,19.06,14.36,21.07,23,8.28,48.34,6.09,72.31,6,13.11-.06,26.25-.45,39.33-1.29,8-.51,16.45-.45,23.88-3.77,8.54-4.4,12.31-12.9,13.64-22-4.72,5.67-10.44,11.8-18,13.28-42.15,8-85.67,8.2-127.7-.68C201.09,41.67,195.18,36.53,190.46,31Z"/>
</svg>
