<svg viewBox="0 0 389.51 191.72">
  <path class="platformBack" d="M372.91,137.6c-19.73,0-27.43-6.56-34.78-12.84-38-32.49-59.32-78.83-77.87-78.83-26.27,0-71.9,125.88-104.51,139.63-29,12.42-49.14,0-75.22-37.28-18.45-26.36-41.78-22.77-76.77-22.77v65.71H372.91Z"/>
  <path class="oakDark" d="M372.91,137.6c-19.73,0-27.43-6.56-34.78-12.84-38-32.49-59.32-78.83-77.87-78.83-26.27,0-71.9,125.88-104.51,139.63-29,12.42-49.14,0-75.22-37.28-18.45-26.36-41.78-22.77-76.77-22.77-4,0-4-6.47,0-6.47,35,0,62.33-2.05,80.77,24.31,26.08,37.28,42.23,48.17,71.22,35.74,28.7-16.53,73.92-139.65,104.82-139,23.57.49,32.77,37.25,79.1,78.52,7.22,6.43,13.51,12.53,33.24,12.53A3.24,3.24,0,1,1,372.91,137.6Z"/>
  <path class="platformFront" d="M257.25,152C207.56,174.34,149.77,108,121,81.9,88.41,49.46,74.83,41.88,3.76,43.68V191.22l369.15,0V69.78C310.83,68.61,315.92,117.94,257.25,152Z"/>
  <path class="oakMediumDark" d="M3.76,43.68C74.83,41.88,88.41,49.46,121,81.9,149.77,108,207.56,174.34,257.25,152c58.67-34.05,53.58-83.38,115.66-82.21,5.26,0,4.35-6.44,0-6.29C304.81,64.19,311.14,114,256,146c-48.1,22.23-103.7-44.93-132.87-71C90.57,42.55,72.5,35.67,3.76,37.39A3.15,3.15,0,1,0,3.76,43.68Z"/>
  <g class="flatMaroonMedium">
    <path d="M374.64,28.69c8.94,1.7,5.62,6.33,14.37,9.81-4.17,2.67-9.11-4.45-14.86-3.35C374.27,33,374.47,30.89,374.64,28.69Z"/>
    <path d="M5.19.5c9.66.72,6.49,4.34,14.55,6.7-3.88,3.08-9.52-1.61-15-.24C4.83,4.86,5,2.7,5.19.5Z"/>
  </g>
  <g class="flagpoleStandaloneLine">
    <path d="M373.14,66.43c0-12.47.57-26.8,1.5-37.74"/>
    <path d="M3.72,40.29c0-12.48.55-28.85,1.47-39.79"/>
  </g>
</svg>
