<svg viewBox="0 0 424.21 344.14">
  <path class="wallHighSide" d="M22.78,343.64h-21Q.91,315.08.5,286.52l10.1-11.79,10.93,11.79Q21.95,315.08,22.78,343.64Z"/>
  <path class="roofSide" d="M21.53,286.52,10.6,274.73H21.39Q21.45,280.63,21.53,286.52Z"/>
  <path class="wallLowFront" d="M22.78,343.64h44q-1.2-41.46-1.51-83-11.27-12-22.5-24.11-10.77,12-21.49,24.11Q21.57,302.17,22.78,343.64Z"/>
  <path class="roofSide" d="M102.56,260.68c-10.31-5.12-18.48-13-25.38-22.11H47.47c3.64,11.83,13.85,18.87,25.37,22.11Z"/>
  <path class="roofTop" d="M72.76,228.74a6,6,0,0,1,5.91,5.91,5.84,5.84,0,0,1-1.49,3.92H47.47q-2.22-4.92-4.42-9.83Z"/>
  <path class="roofFront" d="M70.21,264.64l2.63-4c-10.31-5.12-18.47-13-25.37-22.11A5.88,5.88,0,0,0,49,234.65a5.91,5.91,0,1,0-11.82,0,5.86,5.86,0,0,0,1.49,3.92c-6.7,8.79-14.91,17.62-25.21,22.11,1.07,1.59,1.61,2.38,2.69,4a70.54,70.54,0,0,0,26.67-24.11A81.39,81.39,0,0,0,70.21,264.64Z"/>
  <path class="stepFront" d="M146.54,343.64H56l-.33-11.75h90.54Q146.36,337.76,146.54,343.64Z"/>
  <path class="wallHighSide" d="M134.78,259.29H65.25q.25,36.3,1.19,72.6H136Q135,295.59,134.78,259.29Z"/>
  <path class="wallHighFront" d="M135.11,181.7Q120.2,167,105.36,152.28q-15,14.68-30,29.42-.56,38.81-.32,77.59h59.73Q134.56,220.5,135.11,181.7Z"/>
  <g class="frameDarkFront">
    <path d="M125.39,259.29h9.39q-.15-26.13,0-52.25h-9.4Q125.24,233.17,125.39,259.29Z"/>
    <path d="M75.05,259.29h9.39q-.15-26.13,0-52.25h-9.4Q74.89,233.17,75.05,259.29Z"/>
  </g>
  <path class="awningFront" d="M135.1,182.07H78.57c-10.73,9.77-22.93,17.69-35.42,25h91.67q.1-12.48.28-25"/>
  <path class="roofSide" d="M104.89,148.79h30.85q-.37,16.46-.63,32.91C123.11,172.43,112.79,161.78,104.89,148.79Z"/>
  <path class="roofFront" d="M105.19,155.8c9.28,12.12,20.88,23.65,34.28,31.17l2.42-5.42c-14.16-8.2-25-19.17-34-32.76h-5.09C94,162.59,82.47,174,67.73,181.37c.9,2.17,1.35,3.25,2.26,5.42C84.13,180.38,96.64,168.66,105.19,155.8Z"/>
  <path class="wallLowFront" d="M136.58,118.73q19.24-17.06,38.53-34,18.22,17,36.5,34-3.56,112.48-.28,224.91h-75Q133,231.26,136.58,118.73Z"/>
  <g class="frameDarkSide">
    <path d="M188.48,81q.72-6.08,1.45-12.15h-9.07c-.32,3.51-.64,7-1,10.52C182.42,80.63,185.71,80.75,188.48,81Z"/>
    <polygon points="179.9 79.43 179.9 79.43 179.9 79.43 179.9 79.43"/>
  </g>
  <g class="frameDarkFront">
    <path d="M170.76,68.8h10.1q-1,10.89-1.86,21.78h-7.94Q170.88,79.69,170.76,68.8Z"/>
    <path d="M142.62,113.38h63.23l5.7,7.06h-75Z"/>
    <path d="M147.92,343.64h51.64Q198,291.41,198,239.13H146.33Q146.4,291.41,147.92,343.64Z"/>
  </g>
  <path class="doorDarkFront" d="M155.09,343.64H192.4q-1.41-48.45-1.58-96.95H153.51Q153.68,295.18,155.09,343.64Z"/>
  <path class="roofTop" d="M217.81,119.5h46.53c-16.6-10-28.53-23.94-38.65-40.27-6.31,3.18-16,2.16-22.82,2.18-6.62,0-17.14,1.29-23.09-2.18C189.81,95.46,201.3,109.55,217.81,119.5Z"/>
  <g class="roofFront">
    <path d="M179.9,79.43q-.47,5.56-.9,11.15c10.16,13.81,21.65,26.35,36.43,35.31.95-2.56,1.42-3.84,2.38-6.39C201.37,109.59,189.9,95.58,179.9,79.43Z"/>
    <path d="M170.91,79.23c-11.08,16-23.83,30.75-41,40.27.79,2.55,1.19,3.83,2,6.39,15.44-9,28-21.53,39.21-35.31l-.12-10.88C170.92,79.4,170.91,79.23,170.91,79.23Z"/>
  </g>
  <path class="wallHighSide" d="M388.35,52Q345,26.53,301.8.85q-10.95,171.3-6,342.79h89.48Q381.08,197.93,388.35,52Z"/>
  <path class="wallHighFront" d="M298.85,52.21q-20.76-20.15-41.44-40.38Q235.84,32,214.35,52.21q-7.26,145.7-3,291.43h84.5Q291.59,198,298.85,52.21Z"/>
  <g class="beamSide">
    <path d="M233.23,343.64Q229,197.93,236.26,52H225q-7.28,145.79-3,291.6Z"/>
    <path d="M285.18,343.64q-4.24-145.71,3-291.6H276.93q-7.28,145.79-3,291.6Z"/>
    <path d="M337.11,343.64q-4.23-145.71,3-291.6H328.86q-7.26,145.79-3,291.6Z"/>
    <path d="M385.31,343.64q-4.23-145.71,3-291.6H377.06q-7.28,145.79-3,291.6Z"/>
  </g>
  <g class="beamFront">
    <path d="M225,52H214.36q-7.28,145.79-3,291.6H222Q217.71,197.93,225,52Z"/>
    <path d="M276.93,52H266.31q-7.28,145.79-3,291.6H273.9Q269.65,197.93,276.93,52Z"/>
    <path d="M328.86,52H318.24q-7.26,145.79-3,291.6h10.62Q321.59,197.93,328.86,52Z"/>
    <path d="M377.06,52H366.44q-7.28,145.79-3,291.6H374Q369.79,197.93,377.06,52Z"/>
  </g>
  <g class="roofBelow">
    <path d="M211,140.08a131.1,131.1,0,0,1-34.58,33.52h33.85Q210.56,156.85,211,140.08Z"/>
    <path d="M198.33,60.43h15.61q.19-4.11.4-8.22Z"/>
  </g>
  <g class="roofSide">
    <path d="M298.92,52c-7.79,15.66-17.81,30-31.34,41.32q1.62,4.42,3.27,8.85c11.27-9.37,20.06-21,27.28-33.65Q298.51,60.29,298.92,52Z"/>
    <path d="M294.79,175.73c-7.25,15.62-16.77,30-30,41.33l3.57,8.85c11-9.39,19.36-21,26.14-33.66C294.62,186.74,294.69,181.23,294.79,175.73Z"/>
    <path d="M294.79,175.73c0-3.51.12-7,.18-10.51H280.23q-.11,5.25-.19,10.51Z"/>
    <path d="M329,173.6h88.68l4.88-8.29H333.86Z"/>
    <path d="M311.47,60.71h95.75q2.1-4.26,4.23-8.5H315.7Z"/>
    <path d="M315.89,113.47h89.25c-.12,3.5-.23,7-.34,10.51H315.56C315.66,120.48,315.78,117,315.89,113.47Z"/>
  </g>
  <g class="roofTop">
    <path d="M267.58,93.36H183C196.55,82.08,206.57,67.7,214.36,52h84.56C291.13,67.7,281.11,82.08,267.58,93.36Z"/>
    <path d="M264.84,217.06H180.28c13.18-11.31,22.7-25.71,29.95-41.33h84.56C287.54,191.35,278,205.75,264.84,217.06Z"/>
    <path d="M333.86,165.31h88.68C406.63,154.87,394.1,140.57,384.9,124H296.22C305.42,140.57,318,154.87,333.86,165.31Z"/>
    <path d="M315.7,52.21h95.75C389.09,39.66,371.83,22.33,358,.85H262.27C276.09,22.33,293.34,39.66,315.7,52.21Z"/>
  </g>
  <g class="roofFront">
    <path d="M270.85,102.21H186.29q-1.65-4.42-3.27-8.85h84.56Q269.2,97.79,270.85,102.21Z"/>
    <path d="M268.41,225.91H183.85l-3.57-8.85h84.56Z"/>
    <path d="M280.23,165.22h-85q-.11,5.25-.19,10.51h85Q280.13,170.47,280.23,165.22Z"/>
    <path d="M296.22,124c9.2,16.59,21.73,30.89,37.64,41.33L329,173.6a120.14,120.14,0,0,1-33.21-33.66Q296,132,296.22,124Z"/>
    <path d="M257.41,11.83C271.84,31,290.29,49.09,311.47,60.71l4.23-8.5C293.34,39.66,276.09,22.33,262.27.85H254c-15.52,21.77-34.73,39.66-59,51.08l3.39,8.5C221.6,50.45,242.57,32.24,257.41,11.83Z"/>
    <path d="M211.44,124a129.43,129.43,0,0,1-39.7,41.33q2.28,4.16,4.57,8.29A131,131,0,0,0,211,139.94Q211.2,132,211.44,124Z"/>
    <path d="M296.22,124c.11-3.5.22-7,.34-10.51h19.33c-.11,3.5-.23,7-.33,10.51Z"/>
    <path d="M211.44,124c.11-3.5.22-7,.34-10.51H192.45c-.12,3.5-.23,7-.34,10.51Z"/>
  </g>
</svg>
