<svg viewBox="0 0 294.78 135.57">
  <path class="meadowMiddle" d="M.5,4.2V135.07H294.28c-5.63-47.27-11.34-65.7-92.92-65.56-59.64.1-24.23-57.14-91.19-62.11C73.81,4.7,37.31,3,.5,4.2Z"/>
  <g class="treeFurther">
    <path d="M234.77,71.65a8.72,8.72,0,0,0,10.22.57c11.83,4.44,10.61-3.84,6.4-12.82,6.13-1.31,1.68-7.94-2.21-14.29,6.07-.5,2.16-7.41-1.73-14.3,5.08-.41-2.94-14.78-4.68-14.78s-9.61,12.78-5.42,14.29C229.66,40.47,231.28,55.35,234.77,71.65Z"/>
    <path d="M202.35,11.84c2.46,0,9,12.5,4.43,14.54,4.93,5.67,15.39,30.88,7.15,42.14-1.53,2.1-13.06,5.42-15.64,1.92-5.06,3-8-1.67-2.84-8.08-7.4,1.73-3.95-5.42.49-10.1-6.38.34-2.14-6.49,1.73-13.07-7.46-.82-3.13-6.92.74-12.81C192.36,24.82,200.13,11.84,202.35,11.84Z"/>
  </g>
  <path class="treeCloser" d="M227.49,72.47c13.06,6.16,16.46-3.68,8.87-13.81,7.44,0,3.16-6.4-2.47-13.55,7.21-1.54,1.5-7.92-3.45-14.3,7.15,1.73,2.72-7.39-4.43-14C233.89,17,224.78.5,221.57.5S208.26,18,216.89,17c-5.17,7.83-9.62,15.32-2.22,14-3.7,7.37-8.07,14.69-2,14.05-5.92,7.39-7.6,14.66-1.48,13.55-5.92,7.17-8.38,17.26,1,13.07C214.92,75.67,225.27,75.42,227.49,72.47Z"/>
</svg>
