<svg viewBox="0 0 226.82 161.94">
  <g class="skinBlack">
    <path d="M212.57,114.85l-15.94,19.31c4.58-1.79,23.75,5.42,28.4-2.36C229.91,123.62,222.52,116.7,212.57,114.85Z"/>
    <path d="M148.15,144.37a29.26,29.26,0,0,0,21.19,14.54c6.76.87,11.06-5.1,13.75-15.64,11.47-1,17.42-7,21.93-11,17.29-15.3,10.57-44.87-6.72-49.86,3.25-10.59-3.07-18.45-11.55-24.1-8.69-9.8-24.92-19.17-35.47-23L109.52,91Z"/>
    <path d="M48.32,109.58c-7.3-.13-24,1.11-30.48,1.73-4.89.7-12-1.48-10,3.93-3.23,0-4.61,1.14-4.34,4-2.62-.17-3.59,3.15-1.84,4.2-1.57.61-2.44,4.89.61,5.41-2.18,5.68,3.72,5.51,8.3,6.29,8.74,1.49,15.29-1.4,23-2.44,3.59-.49,7.86-1.12,12.45-2.21Z"/>
  </g>
  <g class="phone">
    <path class="phoneDark" d="M96.85,73.74c-1.41,2.6-8.49,5.36-11.38,5.59-2.35.3-7.7,0-8.93,2.85l7.74-7.71C88.33,69.43,92.46,70.16,96.85,73.74Z"/>
    <path class="phoneLight" d="M61.37,84.61c-.45-2.35,1.73-6.57,4.22-9.25a28.6,28.6,0,0,1,14.24-8.51c5-1.37,10.55-1.34,14.64.77,1.14.74,2.65,4,2.38,6.12-6.67-3.39-14.92-1.67-22.07,1.45Z"/>
    <path class="phoneMedium" d="M74.13,75.28c4.39-5,14.7-7.94,20.34-7.66a7.77,7.77,0,0,1,2.38,6.12c-5.06.11-9.92.43-12.68,2.27-.24.23.63.93.39,1.32-.75,1-4.33,3.12-5.77,3.6Z"/>
    <path class="phoneDark" d="M78.79,80.93c-.86,1.55-12.08,9.64-14.1,8.68-1.14-.67-3.52-3.86-3.32-5,.57-2,10.76-9.23,13.13-9.64A20.71,20.71,0,0,1,78.79,80.93Z"/>
    <path class="antennaLight" d="M74.09,82.4a1.87,1.87,0,1,0-2.15-3.06l-2.49,1.75a1.87,1.87,0,1,0,2.15,3.06Z"/>
    <path class="antennaMedium" d="M72.68,82.94a1.31,1.31,0,1,0-1.51-2.14L69.43,82a1.31,1.31,0,1,0,1.5,2.15Z"/>
  </g>
  <g class="skinIndian">
    <path d="M146.78,109.49c5.09-12.41,14.28-20.08,16.23-38.63-3.33-2.69-3.47-6.65-5.38-9.9-2.94-5-2.14-7-3.92-9.88-.54-3.74,5.88-2.76,7.59,3.87a35.35,35.35,0,0,0,2.83-13.14c1.21-2,3.42-2.14,5.2-.74,1.45,1.14.81,4.59.85,7.07,1-2.59,1-4.22,3-4.7,1.31-.32,4.43,1.08,4.21,3.83,2.5-1.06,6.5,1,4.29,5.64,4.31-1.55,6.29,4.87,4,6.17-4.75,3-2.51,11.34-9.1,14.46-3.74,14.07-1,36.1-10.83,53.54-4.92,8.75-12.46,11.81-21.85,21.38-5.92,6-12.21,11.65-20.65,12.52-7.65.78-16.35-5.5-24.72-6.81L61,132.79c-7.32-5.85-8.05-11.1-13.66-18.91C42.42,107,37.7,100.79,40.17,90.8c1.57-6.32,4.17-7.85,8.17-12.88,5-6.33,11.45-16.9,18.9-18.93,4-1.08,7.81-.32,11.71,2.22.83-.33,2,.25,3.47,1.44,2.32-1.61,3.47-.95,5.2.74,2.13-.75,3,1,4.19,3.6s.83,4.05-.69,4.26c.24,1.17-1.34,1.57-2.17,1.5.55,1.82-2.52,3.51-4.82,1.18a4.57,4.57,0,0,1-6.54-4.53c-1.84.68-3.43-.21-4.22-.06a26.69,26.69,0,0,0-7.78,6c-2.49,2.68-4.67,6.9-4.22,9.25-.2,1.14,2.18,4.33,3.32,5,2,1,13.24-7.13,14.1-8.68a16,16,0,0,0,2.54-1.25c1.56-.21,3.13-.22,4.14-.35,2.89-.23,10-3,11.38-5.59Z"/>
    <path d="M63.52,140.74c-9.57-3.47-16.34-15.16-16.34-27.1C57.72,120,63.22,129,63.52,140.74Z"/>
  </g>
  <g class="skinBlack">
    <path d="M147.19,108.15c-.3-1.79-2.66-2.49-2.84-4-.56-4.8-3.2-3.69-4.94-5-2.29-.62-1.94-3.68-6.25-3.61-7.93,0-11.06,3-15.72,5.63-2.09,3.2,2.85,6,8,1.65a16.15,16.15,0,0,1,5.91-1.3c-6.26,2.92-8.07,6.81-11.34,10-2.08,3.62,3.76,6.68,8.56.07,3.06-1.6,6.46-6,12-4.59a62.33,62.33,0,0,0-13.15,10.92c-2.29,2.92,1.67,6,3.83,4.73a89,89,0,0,0,10.92-8.7c-2.16,3.89-2.8,5.6-5,7.53-3.09,1.76-5.62,4.49-2.15,6.4,2.91-3.47,7.61-6.92,9.33-9.62C145,114.28,145.85,112.59,147.19,108.15Z"/>
    <path d="M159.89,41c5.87-1.49,1.69,11.8-5,16.6A63.06,63.06,0,0,0,159.89,41Z"/>
    <path d="M111,85.77c-5.67,3.51-9.82,2.13-10.9-4.43A38.7,38.7,0,0,0,111,85.77Z"/>
    <path d="M138.09,80.1c-18.5,16.12-53.79,1.1-53.81-24.37C94.43,33.31,148.24,57.69,138.09,80.1Z"/>
  </g>
  <g class="skinDisplayLine">
    <path d="M7.69,129.16a6.4,6.4,0,0,1-.22,3.54"/>
    <path d="M3.53,124.7a3.47,3.47,0,0,1-.3,2.69"/>
    <path d="M3.71,120.28a3.19,3.19,0,0,1-.18,2.09"/>
  </g>
  <g class="skinOverlapLine">
    <path d="M156.68,119.2c-4.07-3.4-9.15-3.78-12.36-1"/>
    <path d="M128.39,137.3c3.3-3.3,2.64-5.84,6.6-9.43"/>
    <path d="M60.72,66.41c-3.59,6.36-.07,9,.86,15.77"/>
    <path d="M64.24,93.77c.78-1.45,1.11-3.24,2.06-4.34"/>
    <path d="M161.3,55c-.59,1.33-1.51,2.95-1.08,4.46"/>
    <path d="M177.37,47.27a22.3,22.3,0,0,1-1.08,4.21"/>
    <path d="M181.88,55.17a2.52,2.52,0,0,0-1.19,1.35,4.39,4.39,0,0,1,1-3.61"/>
    <path d="M65.1,66.84c4.22-.79,5.51-5.5,12.88-2.85,2.31.82,4.63,2,4.85,3.89.44,3.76,2.81,4.69,1.3,6.05"/>
    <path d="M79,61.21a16.35,16.35,0,0,0-4.09,2"/>
    <path d="M82.42,62.65C87.85,65.12,86.71,69,89,72.75"/>
    <path d="M87.62,63.39c2.37,2.28,2.76,6,3.5,7.86"/>
    <path d="M7.86,115.24c1.38-.17,3.16.15,5.08,0"/>
    <path d="M3.52,119.26c2.79-.5,5.09.14,8.34,0"/>
    <path d="M1.68,123.46c2.85.28,6.74-.36,10.62-.55"/>
    <path d="M2.29,128.87c2.76.87,7.59-.48,11.8-.61"/>
    <path d="M186.75,58.35c12.51,13.1,12,33,15,38.47"/>
    <path d="M194.32,95.06c-4.69,7.1-7.95,35.66-11.23,48.21"/>
    <path d="M176.27,137.52c-2.15-5.58-5.23-8.28-10.57-10.44"/>
    <path d="M137.36,100c-2.21-.21-4.07.6-6,1.47"/>
    <path d="M145.12,111.27c-1,.3-2.11,1.92-3,2.67"/>
  </g>
  <g class="hairBlack">
    <path d="M138.09,80.1c10.93-7.59,25.83-32.37,21.56-53.82-3.59-18-28.68-32.6-49-23C95,10.79,84.39,31.7,84.28,55.73a7.86,7.86,0,0,1,2.18-2c2,29.73,28.6,38.63,51.39,22.07A7.1,7.1,0,0,1,138.09,80.1Z"/>
    <path d="M125.53,157.55c8.44-.81,16.66-8.6,10.6-8.77-3.27-.09-3.48,1.43-11-.1,4.28-8.64,4.18-21.31,3.36-28.13,3.72-.22,4.12-11.74,1.47-20.64,5.77,1.4,2.1-8-5-11.65-.6-5.71-5-9.62-6.87-6.84-5.64-8-15.73-11.79-15.4-7.39-8.36-3.26-18-1.63-16.94,1.53-9.34,2.11-17,8.1-14.72,10.45-19.52,12-22.89,22.84-27.24,27.17-12.4,12.36-8.64,34.08-2.68,28.28,1.34,10.11,9.46,22.78,11.47,17.25,5.65,5.45,18.2,1.73,36.51,1.81S129.12,163.24,125.53,157.55Z"/>
  </g>
  <path class="hairOverlapLine" d="M125.15,148.68a19.86,19.86,0,0,1-7.79,7.65"/>
</svg>
