<svg viewBox="0 0 494.83 240.96">
  <g class="sockWhite">
    <path d="M69.42,107.29c-3.54-.73-11.51-6.44-11.74-9.83-.6-8.77,9.63-2.22,13.74-2.46,16.86-1,19.76-1,22-1.86,7.72-3,11.79-16.5,13.84-17.36.57-.23,15.73,9.61,17.32,11.2.69.69-9.95,11.6-13.36,21.94-2.73,8.27-6,15.44-12.67,14.24C94.17,122.36,85,110.49,69.42,107.29Z"/>
    <path d="M9.34,93.54c-3-2-10-10.6-9-13.86,2.82-9.59,11.38,1,15.3,2.21,16.1,5.09,18.76,7,21.18,7,8.27,0,16.53-11.54,18.75-11.61.61,0,11.64,14.91,12.56,17C68.53,95.11,55,100.82,48,110c-5.27,6.93-11.24,12.07-17,8.59C27.15,116.29,22.72,102.07,9.34,93.54Z"/>
  </g>
  <g class="skinEastAsian">
    <path d="M185.86,51.08a201.93,201.93,0,0,0-20.45-27.87c-6.1-6.79-17.78-6.49-23.25.56-8.87,11.41-21.52,31.57-34.31,52.73l16.07,10.57C166.6,97,183.54,81.29,185.86,51.08Z"/>
    <path d="M302.15,131.31c-30,3.88-45.7-1.24-60.31-3.71-8.48-1.43-16.27,3.49-23.07,4.26-71-49.4,20.87-66,117.86-44.43"/>
    <path d="M266.18,36.22a49.49,49.49,0,0,0,.06,12.69l-14.59-9.3a29.42,29.42,0,0,0,2.82-8.08,20.09,20.09,0,0,1-2.06-11.35c-3.45-3.49-2.45-9.25,0-8.34a3.29,3.29,0,0,1,2.4-3.09,6,6,0,0,1,3.42-5c1.62-.95,3.88-2.63,5.87.9,5.9-7,8.3-1.83,9.81-.36,3.08,3,.34,4.57.07,8.88,2.49-.63,2.44,1.69,3.37,3.64.78,1.63,3,2.4,1.25,5.29C275.77,26.83,278.29,32,266.18,36.22Zm-.28-22.3c.84-1.21.83-4.15,1.43-5.64a13.48,13.48,0,0,1-1.86.34A27.22,27.22,0,0,1,265.9,13.92Z"/>
  </g>
  <path class="skinNordic" d="M195.83,28.18c-14.26,1.1-36.83,14.21-57.32,16.39-18.51-9.9-55.28-15.39-66-29.66C67.32,8,65.2-1.52,58.31.53c-5.77,1.73-9.94,8.26-17.52,10A37.72,37.72,0,0,0,28.63,15.8c-.33-.81-1.88-1-2.5-.45-.65-1.38-2.64-2-3.66-1.43-1.82-1-3.24-.64-4,.53-.84,1.32-.47,2.3.8,3.44-3.67.45-6.39,4.25-3.48,6,1.47.9,4.6.11,8.78,1.92,3.87,1.67,28-.84,41.66,6.89C88.91,46.48,109.76,64.65,125.72,72,182,97,194.87,69.8,195.83,28.18Z"/>
  <path class="skinEastAsian" d="M178.14,72.35A487.57,487.57,0,0,0,126,31c-6.9-4.59-15.34-2.78-22.87,4C90.19,44.53,73.45,60.81,56,78.35c-.15.52,10.59,15.44,11.35,15.35,19.77-13,40.08-15.61,50.63-32.24,6.67,8.66,20.9,33.25,37.21,54.3C168.89,104.14,175.83,89.34,178.14,72.35Z"/>
  <path class="hairBlack" d="M424.49,112c12.28-16.8,2.48-42.33-3.85-47.93,3.45-1,6.63.2,9.67,2.52-2.31-4-6-6.23-11.56-6,1.57-4.28-.22-8.12-4-10.16q3.74,4.11,1.24,7c-15.07-14.37-28-4.61-36.41-9.54C382.89,61.21,398.84,43.88,424.49,112Z"/>
  <g class="bennettUnderwear">
    <path d="M155.64,100.33A27.09,27.09,0,0,1,158.89,94a74.35,74.35,0,0,1,10,3.79,101.26,101.26,0,0,0-7.56-7.38,60.7,60.7,0,0,1,12-12.12C177,97.6,174.82,121.94,155.64,100.33Z"/>
    <path d="M199.8,108.85l9.64,24.73c-12.38,6.75-24.05,3.86-35.45.81Z"/>
  </g>
  <path class="bennettWaistband" d="M207.9,99.57c-.65,11.73,4.23,25.62,10.87,32.29-4.46.35-5.86,1.51-9.33,1.72-6-4.93-9-14.13-9.64-24.73Z"/>
  <path class="hairBlonde" d="M422.59,101c-2.2-10.72-4.18-24-15.41-33.66-5.45-13.45-19.46-13.07-28.13-14.54-13.29-2.26-17.86,3.07-25.7,5.74-19.17,6.51-34.55,36.46-26.43,47h0c2.69,6.5-.47,14.75-.15,19.68.48,7.46-1.78,15.29-.14,24.68,1.94,4.07,4,13.41,6.38,20.8,4.87-3.26,9-14.88,8.19-19.86,1.64.68,3.14,2.83,3.82,4.78,4-8.34-4.52-14.66-.31-21.58l23.68,6c-3.32,9.3,3.52,14-.44,24.5,2.72,0,4.63-1.56,6.09-4,2.28,10.77,8.55,20.12,16.6,23-1-3-1.31-4.92-.62-7,6.28,9.14,23.11,15.14,28.37,12.59-9.79-10.91,4.6-26.65-.52-41a6.12,6.12,0,0,0,6.72,2.24c-3.82-5.87-1.5-16.93.87-26.23C428.43,112.49,423.77,106.75,422.59,101Z"/>
  <g class="hairOverlapLine">
    <path d="M364.89,85.75a26,26,0,0,1-5.49-3.62"/>
    <path d="M404.23,114.78c3.33,15.23-7.26,24.65-6,38.9"/>
  </g>
  <g class="hairEdgeLine">
    <path d="M403.31,97c-2.79-13.7-12.67-15.87-17.21-16.42-6.41-.77-12.83,1.8-22.58-.76"/>
    <path d="M404.83,99.31c18.62,18.74,2.24,33.52,2.82,41.05"/>
  </g>
  <g class="eye">
    <path class="sclera" d="M381,130.7c-24.12-39.43-20.38-40.56,8.89-6.61A12.74,12.74,0,0,1,381,130.7Z"/>
    <g class="irisBlue">
      <ellipse cx="374.39" cy="113.5" rx="3.4" ry="2.33" transform="translate(6.18 245.67) rotate(-36.61)"/>
      <ellipse cx="384.6" cy="127.24" rx="3.4" ry="1.89" transform="translate(0 254.47) rotate(-36.61)"/>
    </g>
    <g class="pupil">
      <ellipse cx="374.7" cy="113.92" rx="1.32" ry="0.91" transform="translate(5.99 245.94) rotate(-36.61)"/>
      <ellipse cx="384.94" cy="127.7" rx="1.32" ry="0.74" transform="translate(-0.21 254.77) rotate(-36.61)"/>
    </g>
  </g>
  <path class="skinNordic" d="M326.92,105.5c-3.1-4.16-3.1-11.17.77-20.4A45.14,45.14,0,0,1,332,77c-8.11-9-22.07-16.48-37.09-28.64-4.39-3.55-11.76-.14-17.25,2.93-7.52-2.23-13.74-4.45-18.92-9.08-5.69-5.09-5.95-10.79-11.58-15.36L191.83,33c-6,7.54-8.34,19.55-13,29.81a301.6,301.6,0,0,0-14.9,41.47C155,85.29,117.14,81.72,109.66,52c-1.85-7.34-7.66-11.2-12.33-7.88C74.72,60.28,72.8,50.3,61.91,60.8c-.95.92-2.34.63-3.42.59-4.47-.17-9.77,5.23-6.25,8.25a1.43,1.43,0,0,0,1.61,1.74,2.33,2.33,0,0,0,2.82,1.27c3.38,1.81,6.27-3.68,14.72-2.49,8.16,1.15,17.34.85,22.85,2.19,11.12,2.71,42.12,51.16,65.4,64.24,2.86,1.61,8.9,3.11,11.57,1.26,14.69-10.2,33.78-30.49,47-51.06,10.8,8.55,22.65,6.51,29.74,13,8.85,8.07,19.43,12.44,22.08,14,3.64,3.66.77,12.78,11.42,17.77l42.19-17.27Z"/>
  <path class="skinEastAsian" d="M319.11,140c-6.15,4.29-19.25,3.9-31.71,10.87-1,7-2.08,9.47-1.22,14.21,1.66,5,14.29,3.57,15.74,15.64,1.87,3.68,2.95,6.78,4.78,10.09,3.21,5,1.22,9.34.87,12.49-.22,2.45-6.51,2.73-4.89-3.48-1.5,2.17-2.54,4.2-4.8,4.09-3-.15-2.11-2-3.38-2.77a4.45,4.45,0,0,1-5,1.14c-1.94-.67-1.36-3.38-2.6-5.48a1.75,1.75,0,0,1,.39-2.21,9.87,9.87,0,0,0-1.69-3.25,7,7,0,0,1-.21,2.67,1.8,1.8,0,0,1,.64,2.73c-1,2.24.57,5.24-3.6,4.65-5.49-.79-2.28-7.34-4.35-10.57-7.94-10.14-3.91-13.62-5.21-16.25-2.94-14.12-12.67-20.45-4.93-35.82,3.89-8.58,42.55-22,51.72-24.48m-25.3,83.28a2.9,2.9,0,0,1,1.74-.76c-1.59-2.19-.16-3.3-4.16-7.09C293.55,191.13,293.78,195.24,294.33,197.51Z"/>
  <g class="banjo">
    <path class="banjoHeadstock" d="M494.58,192.36c-.05-1.29-2.31-2.14-5.38-2.22-7.08-.2-28.31-.1-28.31-.1-5.24.29-12.89.22-15.48.26l.15,1.65C446.05,195.39,494.05,199.69,494.58,192.36Z"/>
    <path class="banjoSide" d="M308.19,224.28c.7,5.85-16.82,12.75-39.12,15.39s-40.94,0-41.64-5.81l-1.65-14,80.76-9.58Z"/>
    <ellipse class="banjoHead" cx="265.67" cy="211.02" rx="40.66" ry="10.68" transform="translate(-23 32.76) rotate(-6.76)"/>
    <g class="brassDark">
      <path d="M275.16,236.44c.08.63,2.26.37,2.19-.26l-.92-7.74a4.31,4.31,0,0,0-2.19.26Z"/>
      <path d="M288.86,233.4c.08.63,2.26.37,2.19-.26l-.92-7.74a4.26,4.26,0,0,0-2.18.26Z"/>
      <path d="M299.8,229.35c.07.63,2.26.37,2.18-.25l-.91-7.74a4.19,4.19,0,0,0-2.19.25Z"/>
      <path d="M305.68,225.29c.07.63,2.26.37,2.18-.26l-.92-7.74a4.28,4.28,0,0,0-2.18.26Z"/>
      <path d="M262.4,238c.07.63-2.11.89-2.19.26l-.92-7.74a4.19,4.19,0,0,1,2.19-.25Z"/>
      <path d="M248.36,238.2c.08.63-2.11.89-2.18.26l-.92-7.74a4.28,4.28,0,0,1,2.18-.26Z"/>
      <path d="M236.78,236.83c.08.63-2.11.88-2.18.26l-.92-7.74a4.3,4.3,0,0,1,2.19-.26Z"/>
      <path d="M230.12,234.25c.07.63-2.11.89-2.19.26l-.91-7.74a4.26,4.26,0,0,1,2.18-.26Z"/>
      <path d="M225.48,217.39a3.58,3.58,0,0,0,1.12,2.09L244,217.3l-.2-4.24-17.74,2A3.53,3.53,0,0,0,225.48,217.39Z"/>
      <path d="M483,198.43l-5.88-.38L477,199.6c-.07,1,5.82,1.43,5.88.39Z"/>
      <path d="M468,197.44l-5.89-.4-.11,1.57c-.06,1,5.82,1.42,5.89.39Z"/>
    </g>
    <g class="hoop">
      <path d="M225.48,217.39c-.69-5.85,16.82-12.75,39.12-15.39s40.95,0,41.64,5.81l-.19-1.58c-.69-5.86-19.33-8.46-41.63-5.81S224.6,210,225.29,215.81Z"/>
      <path d="M306.54,210.33c.7,5.86-16.82,12.75-39.12,15.4s-40.94,0-41.64-5.82l-.49-4.1c.7,5.86,19.34,8.46,41.64,5.82s39.82-9.54,39.12-15.4Z"/>
    </g>
    <path class="banjoNeck" d="M489.77,198.85c-7.15-.41-28.54-1.87-28.54-1.87a47.3,47.3,0,0,0-15.29-.74c-29.5,4.24-117.52,16.64-117.52,16.64-5.13.84-6.56,6.7-7.2,10.7l-13.44,2.27-1.89-15.68L445.56,192s10.85-.41,15.7.51c0,0,21.6.88,29,1.2,1.92.08,4.05-.14,4.33-1.3l-.45,5.1C493.92,198.32,491.77,199,489.77,198.85Z"/>
    <path class="banjoFretboard" d="M305.89,210.17a2.52,2.52,0,0,0,.42-1.75l-.26-2.19,97.76-11.82c.19.54,1.06.76,1.8.67l37.9-4.74.21,1.85Z"/>
    <g class="brassLight">
      <path d="M304.14,210.07l.88,7.48c0,.15,1.38,0,1.36-.16l-1-8.71A8.34,8.34,0,0,1,304.14,210.07Z"/>
      <path d="M298.25,213.78l.93,7.83c0,.14,1.38,0,1.36-.16l-1-8.31C299.14,213.35,298.71,213.57,298.25,213.78Z"/>
      <path d="M287.34,217.7l1,8c0,.14,1.37,0,1.36-.16l-1-8.17Z"/>
      <path d="M273.67,220.68l.95,8c0,.15,1.38,0,1.36-.16l-1-8.07Z"/>
      <path d="M228.06,219.1l.88,7.47c0,.15-1.34.31-1.36.16l-1-8.71A8.38,8.38,0,0,0,228.06,219.1Z"/>
      <path d="M234.64,221.33l.93,7.82c0,.15-1.34.31-1.36.16l-1-8.31Q233.91,221.18,234.64,221.33Z"/>
      <path d="M246.17,222.59l.94,7.94c0,.15-1.34.31-1.36.16l-1-8.16Z"/>
      <path d="M260.16,222.28l.95,8c0,.14-1.35.3-1.36.16l-1-8.08Z"/>
      <path d="M481.58,192.06c-.26.52-2,.47-2.32-.11l.2-2.91c.05-.93,2.18-.82,2.14.11Z"/>
      <path d="M466.54,191.46c-.26.52-2,.47-2.32-.1l.2-2.92c.05-.93,2.18-.82,2.14.11Z"/>
      <path d="M402.76,194.54l1.05-.13c.14.41.69.64,1.27.69l-.3-1.88c-.11-.93-2.23-.69-2.13.23Z"/>
    </g>
    <g class="tuningKey">
      <path d="M482.16,195.69a2,2,0,0,0-1.65-.4c-.6.55-1.79,5.36-1.51,6.14.11.3,1.47.61,1.65.4C481.17,201.24,482.37,196.41,482.16,195.69Z"/>
      <path d="M465.65,194.38c-.21-.22-1.54.13-1.65.41-.27.78.94,5.58,1.54,6.13a2,2,0,0,0,1.65-.41C467.37,199.74,466.18,194.91,465.65,194.38Z"/>
      <path d="M402.76,194.54l-.11-1.09c-.08-.73,1.25-1,1.85-.65a4.19,4.19,0,0,0,.51-1.14c0-.3-1.13-1.07-1.41-.95-.57.23-2.26,2.58-3.08,4.1Z"/>
    </g>
    <polygon class="bridgeFront" points="256.3 219.04 256.24 213.16 255.66 208.61 255.76 214.5 256.3 219.04"/>
    <rect class="bridgeSide" x="254.43" y="214.58" width="1.6" height="4.57" transform="translate(-23.77 31.57) rotate(-6.76)"/>
    <g class="bridgeNut">
      <polygon points="443.72 192.19 443.41 189.43 445.21 189.18 445.56 191.95 443.72 192.19"/>
      <polygon points="254.17 214.69 254.27 208.79 255.66 208.61 255.76 214.5 254.17 214.69"/>
    </g>
  </g>
  <g class="skinNordic">
    <path d="M326.92,105.5c2.68,6.54-.47,14.44-.15,19.68.47,7.81-1.77,14.77-.14,24.68,3.62,7.52,6.26,28.82,16.55,41.85.93,1.62,11.48,3.43,12.44,8.53-3,2.15-3.52,5-2.24,9.12,1.81,3.5-.05,7.26-3.64,7.82-3.15,1.08-3.63,4.71-8.17,2-1.54-.92-2.53,1.6-5.2,0-2.26-1.32-4,.09-5.13-1.59-2.14-2.34-3.26-6.45-3.74-7.93-2-6.18,1.06-12.08.18-14.66-7-17.49-21.22-18.84-21.49-41.73-9.65-23.38-4.36-31.11-8.47-35.5"/>
    <path d="M404.23,114.78a30.24,30.24,0,0,1-6.43,6.1c-3.39,2-2.8,3.25-6.22,4.37-.66.22-1.92,3.78-4.61,2.54,1.08-2-2.06-4.46-5.73-4.71-.5,0,.17.77.24,1,.69,2.53,1.78,4.59,4,4.85a1.68,1.68,0,0,1-1.55,1.56c-2.2.25-6.33,11.59-24.06,9.64-3.5-.39-8.58,3.4-13-2.58-3-4.07-3.09-6.61-5-14.27-2.49-9.78-4-21.91,4.37-30.41-5.33-1.38-3.67-5.49-2.83-7.77.51-2.8.71-6.51,5.56-11.14,6.43-4.92,13.25,1.75,10.21,7.89,2.32,1.17-5.82,7-4.46,10.91a34.06,34.06,0,0,1,10.27-7c14.45,7.64,29.86,1.51,34.14,18.16C401.87,105.4,403.76,111.74,404.23,114.78Zm-28,.26a6,6,0,0,0-.83-5.45,11.63,11.63,0,0,0-5.79-3.51,11.82,11.82,0,0,0,1.79,5.7,9.07,9.07,0,0,0,3.91,3.08C375.64,115,375.92,115.85,376.23,115Z"/>
  </g>
  <g class="skinOverlapLine">
    <path d="M282.13,140.75c3.19,2.67,5.4,6.49,5.27,10.08"/>
    <path d="M163.9,104.3a40,40,0,0,0-1.72,13.7"/>
    <path d="M28.63,15.8a10.15,10.15,0,0,0-3.47,3.29,9.48,9.48,0,0,0-5.88-1.2"/>
    <path d="M22.47,13.92a3,3,0,0,1,1.12,2.54,6.84,6.84,0,0,0,2.13,1.78"/>
    <path d="M26.13,15.35c.54.8-.36.86.74,1.75"/>
    <path d="M56.67,72.65c-2-1.46-.62-4.9,2-5a4.57,4.57,0,0,0,3.27-1.28"/>
    <path d="M53.85,71.38c-1.15-4.66,3.57-4,5.11-5.1"/>
    <path d="M52.24,69.64c-.54-4.35,4.29-3.93,5.82-4.75"/>
    <path d="M218.2,86.79a7.83,7.83,0,0,0-2.54-1.52"/>
    <path d="M277.67,51.27c14.59,3.52,32.56,10.82,46.67,21"/>
    <path d="M237.82,30.14a11,11,0,0,1,2.05,3.25"/>
    <path d="M285.36,194c-1.22-.6-3.88-.81-4.7,3"/>
    <path d="M287.26,194.55c2.85-1.85,4.63-.36,6,2.51"/>
    <path d="M293.77,200.2c-1.22-3.14,3.83-5.37,5.65-1.15"/>
    <path d="M296.81,186.72a34.73,34.73,0,0,0,4.45,5.88c.17,4.9,2.57,4.71,1.42,7.18"/>
    <path d="M301.92,180.68c.13,1.69-.82,2.95-.68,5-.62,2.89-6.37-.14-5.47-6.48a4.27,4.27,0,0,1-2.27-1.07C290,182,283,181.8,277.74,178"/>
    <path d="M252.41,20.18a2.17,2.17,0,0,0,1.43.7"/>
    <path d="M273.3,19.93a3.65,3.65,0,0,0,2.12,1"/>
    <path d="M274,13.2c-2.78.89-2.74,4.48-.68,6.73a12.21,12.21,0,0,0-2.18,4.47"/>
    <path d="M252.41,11.84c-.8,7.23,1.55,8.46,2.2,10.72,2,2.63,5.81-2,2.83-6.79"/>
    <path d="M296.92,122.12a16.28,16.28,0,0,0-7.27-2.62"/>
    <path d="M270,113.73a24.47,24.47,0,0,0,4.61,1.59"/>
  </g>
  <g class="skinFoldLine">
    <path d="M306.19,153.34a4.25,4.25,0,0,1,2.56-2.24"/>
    <path d="M326.63,149.86a7.23,7.23,0,0,0-1.86-2.17"/>
    <path d="M297.46,192.73c-.71.73-1.68.69-2.12,1"/>
    <path d="M305.05,196.7a4.1,4.1,0,0,0-2.07,1.73"/>
    <path d="M293.1,188.76a3,3,0,0,1-2.76,1.17"/>
    <path d="M286.64,190.4a2.16,2.16,0,0,1-2.55.83"/>
    <path d="M266.93,14.35a1.81,1.81,0,0,0-2.11-.2"/>
    <path d="M271.72,8.38c-1,.91-2.93.27-3.6-.34a2.3,2.3,0,0,0,2.65-1.94"/>
    <path d="M260.52,7.16a4.35,4.35,0,0,1-.41,2.81,2.57,2.57,0,0,0,2.24-.86"/>
    <path d="M254.47,31.53A5,5,0,0,0,256.32,33"/>
    <path d="M266.18,36.22a5.7,5.7,0,0,1-2.92.19"/>
    <path d="M118,61.46a6,6,0,0,1-1.2-3.26"/>
    <path d="M354.92,82.93c6.88-8.39-6-12.81-8.91-.58"/>
    <path d="M352.25,84.51c-3.05-1.52-2.2,4.25-4.11,3.29-1.21-.6.76-1.72.62-4.77-.21-4.39,5.4-3.84,4.48-1.49"/>
    <path d="M301.26,192.6a3.31,3.31,0,0,1,1.5-1"/>
  </g>
  <g class="skinCreaseLine">
    <path d="M250.12,47.87c11.31,16.51,32.87,9.9,63.47,33.49"/>
    <path d="M294,185c-4.18-3-8.78-1.11-13.54-.55"/>
    <path d="M268.68,19.64c-3.95,1.75-7.38,4.74-9.68,10.53"/>
    <path d="M263.47,16.48A5.56,5.56,0,0,1,258.31,21"/>
  </g>
  <g class="skinEdgeLine">
    <path d="M49.55,7.69c-6.18,5.19-14,5.52-20,9.49"/>
    <path d="M99.69,46.34C89.51,55.47,72.6,56,66.72,61.68"/>
  </g>
  <path class="lipFemaleLight" d="M357.52,123.74a7.56,7.56,0,0,1-1.07-2.24c1.11,2.69,5.73,7.12,6.46,9.1.81,2.23,1.95,2.09,2.19,2.81.64,2,2,1.74,2.83.6-.85,1.46-2.09,1.59-3.93-.36C360.93,132.84,358.79,129.47,357.52,123.74Z"/>
  <g class="lipOverlapLine">
    <path d="M361.92,137.36a3.31,3.31,0,0,0-.87-2.94"/>
    <path d="M357.28,131.94a4.23,4.23,0,0,0,.28-2.83"/>
  </g>
  <path class="teeth" d="M357.52,123.74c4.05,5,3.08,7.87,6.48,9.91-.77.66-2.12,1.31-2.95.77C357,131.44,357,126.72,357.52,123.74Z"/>
  <g class="cheekLine">
    <path d="M367.61,122.43c-2.32-.38-2.87-.15-5.7-1.31s-4.18-1.46-7.92-1.06"/>
    <path d="M370.64,133.31c-.08,1.48-2.3,3-4.08,3"/>
  </g>
  <path class="noseLine" d="M367.61,122.43c-1.88-.19-4.46,1.75-3,3.68,2,2.67,1.78,3.43,2.57,4.75a4.46,4.46,0,0,0,2.41,2.18c4.46,2,5.1-7.28,10.79-10.75"/>
  <g class="eyeFoldLine">
    <path d="M383.9,130.49a2.75,2.75,0,0,1-2.34-1.26"/>
    <path d="M373,115.67a7.3,7.3,0,0,1-4.48-5.94"/>
  </g>
  <path class="eyeCornerLine" d="M367,104.28a5.18,5.18,0,0,0,2.57,1.8"/>
  <g class="eyeCreaseLine">
    <path d="M384.52,123c2.7,1,4,2.87,3.73,5"/>
    <path d="M370.6,105.49c3.35.62,7.89,4,6.85,9.13"/>
  </g>
  <g class="eyebrowBlonde">
    <path d="M381.36,113.58c-4.17-.06-.69-9.38-10.91-14.69C383.18,103.77,379.53,110.1,381.36,113.58Z"/>
    <path d="M393.93,124.08c-2.14-2.37-5.39-2.48-7.46-3.7.25,2.25,2.84,1.83,5.7,4.66A6.57,6.57,0,0,0,393.93,124.08Z"/>
  </g>
  <path class="miriamUnderwear" d="M191.83,33c-1.64,6-1.42,10.45.63,19.79,2.15,9.86,14.61,33.17,23.2,32.46-19.58-15.3,6.56-55.51,27.39-62.65-10.1-8.73-28.2-7.88-37.59-.28C199.78,24.56,194.58,28.52,191.83,33Z"/>
  <path class="miriamWaistband" d="M215.66,85.27c-12.47-6.58-10.82-26.4-4.8-37.72,5.75-10.83,14-18.83,32.19-24.93,1.41,1.06,3.66,3.17,4.12,4.21-14.93,4.05-25.8,12.15-31.74,24.31C209.19,63.89,208.65,78.36,215.66,85.27Z"/>
  <path class="clothesOverlapLine" d="M205.46,22.34a20.07,20.07,0,0,1,12.1-.44"/>
  <g class="clothesFoldLine">
    <path d="M201.6,56.92c-.38,6.3.7,14.61,5.41,21.58"/>
    <path d="M233,20.31A80.05,80.05,0,0,0,221,26.85"/>
    <path d="M227.64,20.49a99.13,99.13,0,0,0-8.85,5"/>
    <path d="M194.65,117.73a28.11,28.11,0,0,1-2.43,11.16"/>
    <path d="M192.46,120.14a17.85,17.85,0,0,1-1.47,5.45"/>
    <path d="M204.6,127.68a7.54,7.54,0,0,1-3.16,1"/>
  </g>
  <g class="banjoPick">
    <path d="M259.47,10.94c-3.81-1.49-1.26-3.73.43-3,.84,3.51-1,7.79-2.95,8-1.65-.37-2.43-4.06-2-8.13,2.5.14,2.76,2.18.42,3.11C255.09,13.22,258.68,13.69,259.47,10.94Z"/>
    <path d="M264.86,4.43c-1.75,2.18.22,3.77,2.63,3,.59-1-.34-3.29.86-3.79.77-.33,2.58.9,1.32,3.71-1.89,1.37-6.8,1.84-7.4.91-.57-1.44,3.44-5.34,4.07-5.78C269.1,2.4,267.76,4.27,264.86,4.43Z"/>
    <path d="M271.89,15.53a5.14,5.14,0,0,0,.85,3.69c-1.23.34-3.63.13-3.88-.6S270.41,16.28,271.89,15.53Z"/>
    <path d="M276.34,13.74c-.73,2-4.17,2.86-2.84,5,1,1.47,3.14-.44,4-2.13A20.41,20.41,0,0,0,276.34,13.74Z"/>
  </g>
</svg>
