<svg viewBox="0 0 320.95 637.72">
  <path class="skinEastAsian" d="M109.07,239c15.12,30.2,14.26,74.11,8.63,107.69h98.55c-1.92-8.94-2.24-20.57-1.57-30.14,46.38,3.35,78.42-39.73,80.05-69.87,1.78-33.06-6.87-68.48,3.42-93C194.08-24.93,16.4,230.92,109.07,239Z"/>
  <g class="skinDisplayLine">
    <path d="M240.57,215.51c18.89,1.32,21.87,35.79-11.93,27.18"/>
    <path d="M275.23,174.13c-7.83-6.33-19.55-5.75-25-.9"/>
    <path d="M219.73,173.37c-8.43-5.72-20.18-6-27.11.3"/>
    <path d="M246.57,275.26a75.45,75.45,0,0,1-30.61,0"/>
  </g>
  <g class="skinOverlapLine">
    <path d="M109.07,239a15.55,15.55,0,0,0,9.26.46"/>
    <path d="M214.68,316.56c-25.09,0-57.71-14.1-62.47-29"/>
  </g>
  <g class="stubbleBlack">
    <path d="M261.31,302.25c-18.38,3.64-13.7-4.11-28.72-3.77-14.81.34-11.93,7.94-33.39,3C200.34,326.11,243.13,317.31,261.31,302.25Z"/>
    <path d="M265.92,271c-.88-19.68-9.69-22.63-32.88-22.08-20.11.47-33.6.4-35.79,22.44,14.33-4,21.26-7,37.45-7.38C246.51,263.68,255,268.1,265.92,271Z"/>
  </g>
  <path class="hairBlack" d="M203.49,94.77c26.35,38.28,64.54,60.11,108.41,74.05-12.7-20,9.68-39.79-3.3-72.72-30.73-77.94-137-83.6-185.76-51.26-2.58-16.36,8.74-29.73,27.39-42.9C123.1,7.49,106.33,26.87,104,50.82,85.46,46.36,67.8,49.38,53.42,63.7c15.37-4.85,30.14-6.82,38.7,1.29-54.58,52.87-38.7,168.53,24.78,196.9-.61-6.7-4.75-15.87-7.83-22.88-32.65-7.83-27.43-74.14,9-57.42,1.92,23.31,7.19,48.26,22.26,66.7-6.89-22.4-5.7-49.63-2.66-73.67C166.34,160.33,188.1,128.12,203.49,94.77Z"/>
  <g class="eyeBlob">
    <ellipse cx="209.7" cy="188.81" rx="7.12" ry="14.24"/>
    <ellipse cx="265.05" cy="189.47" rx="7.12" ry="14.24"/>
  </g>
  <path class="oldBennettShirt" d="M118.08,321.91C161.45,360.24,264,368.53,264,368.53c33,11.6,45.43,102.63,55,178.38,5,39.21-9,59.89-43.9,66.69L171.16,624.16C124.59,650,25,631.12,14.59,610.73-7.69,567-7.13,398.31,51.13,368,73.06,357,95.39,345.12,118.08,321.91Z"/>
  <path class="oldBennettVest" d="M91.93,341.37c-13.54,8.33-29.51,17.84-46.49,27.21,26.3,35.85,35.42,109.62,33.27,179.14,34.44,6.37,49.21,22.81,123-16.34,9.11-7.57,49.75-1.52,71.56,7.89,7.77-48.36,6.82-141.54-7.48-172-4.47-.77-23.14-12-26.63-15-9.09,42.14-19.88,79.62-49.56,110.72C165.81,423.44,128,382.81,91.93,341.37Z"/>
  <path class="oldBennettBowtie" d="M178.14,343.83c0-3.82,31.63-3.82,31.63,0C220,335.13,234.1,330,239.6,332.42c7.74,3.4,6.09,50.65-1,53.81-5.78,2.56-17.35-5-29.23-13.79,0,5-30.83,6-30.83,1-12.65,8.68-26,17.7-32.85,15.63-9.05-2.73-8.72-58.5,0-58C155.93,331.59,166.78,334.83,178.14,343.83Z"/>
  <g class="clothesOverlapLine">
    <path d="M273.28,539.27c11.36,5.49,19.59,11.25,24.85,17.28"/>
    <path d="M78.71,547.72c-16.94-1.43-36.88,18.53-37.77,28.79"/>
    <path d="M178.14,343.83c2.88,0,3.29,29.57.4,29.61"/>
    <path d="M209.77,343.83c3.1,0,2.7,28.65-.4,28.61"/>
  </g>
  <g class="skinEastAsian">
    <path d="M169.54,576.88c20.67-12.8,55.27-25.19,67.24-25.32,13.58-.15,50.32,32.09,50.86,46.32.9,23.75-29.16,38.18-69.2,28.77-17.87,8.3-33.78,8.12-47.28-2.49C164.38,613.21,162.87,586.15,169.54,576.88Z"/>
    <path d="M212.17,557.42c.06-9.09-2.94-17.82-10.45-26-22-14-46.82-23.05-70.42-21.83-12.94.67-35.35,24-42.15,44.85-9,27.45,53.48,48,80.39,22.48C181.46,569.5,198,562.26,212.17,557.42Z"/>
  </g>
</svg>
