<svg class="presence" 
  xmlns="http://www.w3.org/2000/svg" viewBox="0 0 717.79 1240.63">
  <g class="eye">
    <circle class="sclera" cx="191.99" cy="378.87" r="30.19"/>
    <path class="irisDarkBrown" d="M189.29,403.54c-2,.86-10.24-5.14-14.5-15.07s-2.92-20-.92-20.89A110.93,110.93,0,0,1,189.29,403.54Z"/>
    <path class="pupil" d="M180.19,394.44c-1.6.68-3.74-2.11-5.4-6s-2.2-7.33-.6-8A59.48,59.48,0,0,1,180.19,394.44Z"/>
  </g>
  <g class="skinEastAsian">
    <path d="M162.05,682c5.22-19.15,28.33-19.5,33.58-32.8,5.25-16.11-28.36-15.06-37.12-1.75C94.3,812.67,436.73,863.64,347.13,662.43a515.75,515.75,0,0,0-40.73,77.48c-34.92-18.18-93.5-23.83-144.35-57.87"/>
    <path d="M591.24,1239.7c228.41-91.9,76.1-252.12,72.38-356.83-6.37-178.69-50.89-337.39-180.28-412.4-36.3-26.25-47.87-79.07-33.59-126.21L274.57,446.45c34.79,6.1,57.9,54.34,71.85,91.63,5.1,31.19-30.21,161.63,44,312.8,25.15,51.23,13.82,130.26,32.29,167.21C299.35,987.79,133.1,953.8,86.55,997.4"/>
    <path d="M391.29,570.47c-19.36,50.64-13.68,63.4-24.73,91.32-14.16,35.78-35.49,73.31-40,107-25.24-20-103.6-37.36-160.11-77-8.24-3.55-4.14-43.32-9.47-67.52-4.79-21.77-4.92-36.9,6.56-61.1,4.11-16.81-32.8-12.3-35,21.83-8.3,13.15-3.24,24.47-10.17,28.73-21.9-8.32-60.92-18.31-75.78-36.51-23.18-28.4-44-6.1-36.48,3.55,4.08,3.64,4.08,7.29,7.5,11.69-17.08,0-15.55,24.53-2.84,35.59-12.34.48-13.29,25.63,0,33.7C6,692.17,25.69,700.94,43,714c35.14,26.55,55.08,20.38,75,29.87,67.16,34.37,140.91,126.76,230.11,134.89,21.86,2,74.28-36.64,127.8-189.65,8.39-24,30.26-50,38.47-80.44"/>
    <path d="M59.77,571.08c10-1.75,21.19,3.11,18.7,11.22,17.76-3.43,27.11,4.36,24.93,15.89,15.58-1.87,23.37,8.42,19,18.7-2.73,8.39-15.58,7.79-22.13,9-12.7,24.2-36.77,10.6-28.36-1.87-9.3,10.17-27.25,3.33-22.44-5.3-9.28,2.36-20.57-4.67-14.65-14.65,2.19-6.85,1.25-12.46,5.93-17.45C23.43,588.43,22,562.39,35,564.58,40.94,565.52,51.16,561.35,59.77,571.08Z"/>
    <path d="M363.44,460.85c-4.87,20.87-15.22,39.68-39.7,62.78-25.6,24.16-43.36,33.57-56.56,36-54.5,10.18-32.46-33-61.47-34.38-5.22-5.4-7.55-12.18-2.46-21.28-7.72,1.86-17-6.89-16.07-11.36,1.22-6-1.41-14.26-6.25-19-9.76,5.44-34.52,9.16-29.61-19.92,3.28-19.49,11.34-56.23-1.31-74.88-33.92-50-23.39-101.49-35.33-156.81,126.55-244.92,420.64,44.18,294,151.66-7.79,17.72-16.49,45.57-41.34,37m-187.48-14.1c7.92-4.55,18.91-15.33,27.68-22a191.74,191.74,0,0,1-35.75-3C170.85,378.36,174.31,391,179.84,396.58Z"/>
  </g>
  <g class="skinOverlapLine">
    <path d="M423.74,1018.09c44.12,11.62,55.66,18.84,70.81,24.61"/>
    <path d="M71.92,624.06c5.92-8.81,8-23.34,31.48-25.87"/>
    <path d="M78.47,582.3c-28.33,9.53-22.52,26.28-29,36.46"/>
    <path d="M59.77,571.08c-6,1.6-15.27,11.68-19,15.58"/>
    <path d="M10.76,661.79a148.52,148.52,0,0,0,25,14.83"/>
    <path d="M10.76,628.09A107.31,107.31,0,0,0,39.32,646"/>
    <path d="M13.6,592.5c4.12,7.86,12.6,15,19.76,18.63"/>
  </g>
  <g class="skinFoldLine">
    <path d="M134.85,629.6c-1.81-5-5.23-9.26-11.44-12.71"/>
    <path d="M363.32,330.35c2.1-49.37,71.18-25.39,34.6,37.21"/>
    <path d="M367.4,342.32c20.84,7.26-5.34,30.05,6.68,33.74,10.67,3.28,1.35-10,16-21.78,8-6.43,7.17-34.14-10.29-24.71"/>
  </g>
  <path class="skinEdgeLine" d="M50.51,701.26c-5.87-6.66,2.41-11.82-2.47-24.4-5.87-15.13,7.53-16.07,3.87-26-4.65-12.64,2.06-18.39,5.53-21.25"/>
  <path class="lipMaleMedium__noStroke" d="M230.41,500.25c-15.67-6.39-30.43-1.8-43.23-7.6-1.12,4.53,8.49,13.16,16.07,11.36-5.09,9.1-2.76,15.88,2.46,21.28q.63,0,1.23.09C225.69,526.49,229.17,511.69,230.41,500.25Z"/>
  <path class="lipBorderLine" d="M203.25,504c14.06-7.24,18.27-1.81,27.5-3.81"/>
  <g class="lipEdgeLine">
    <path d="M205.71,525.29c7.8.55,14.09-1,18.84-6.88"/>
    <path d="M205.71,525.29c7.8.55,14.09-1,18.84-6.88"/>
  </g>
  <path class="cheekLine" d="M227.71,496.66c2.13,3.2,5.62,5.38,6.08,7.08"/>
  <path class="noseLine" d="M194.66,441c6.54,1.36,14,13.89,5.74,22.77-6.24,6.74-18.56,1.6-26.13,6.43"/>
  <g class="eyeLidLine">
    <path d="M171.77,371.64c-11.53-1.84-7.57-9.67-8-17.85"/>
    <path d="M179.84,396.58c-2.78,1.81-5.73,6.22-2.15,11.84"/>
  </g>
  <path class="eyeCornerLine" d="M207.52,374.61c3.59-.49,7.08-.59,10-1.95"/>
  <path class="eyebrowBlack" d="M135,332.53c27.92,8.83,55.76-14,78.28,7.82C179.43,335.29,154,358.62,135,332.53Z"/>
  <path class="hairBlack" d="M92.7,222.58c-13.31,7.83-33.37,16.55-48.41,17.92,42.27-30.4,44.83-66.71,89.53-113.74,52.24-54.95,128.37-71.37,196-73.62C323.17,35.64,307.51,8,281.11,1.57c31.73-5.22,61.63,26.71,70.46,53,13.16-24,39.18-34.7,62.12-28.61C391.23,29.4,375.8,45.33,375.47,58c93.68,13.57,213.47,193.23,80.18,326.45-19.71,2.44-31.58-3.13-47-10.69,8.5-20.52,23.88-46.19,0-73.7-20-23-58.95-6.26-57.66,23.21-12.9,6.9-29.64,11-45,15.11-5.11-16.27-4.39-19.84-31.62-36.22-24.2,4.56-50.79,5.09-93.39-10.93,17.54,12.82,26.83,19.65,31.86,28.62C173.65,297.51,86.37,344.6,92.7,222.58Z"/>
  <path class="hairOverlapLine" d="M274.36,302.12c18.67-5.9,33.55-.63,42.06-.72-8.09-9.93-23.4-17.72-31.1-20.88"/>
</svg>
