<svg viewBox="0 0 124.72 250.34">
  <rect class="noStroke" x="24.56" y="199.42" width="51.25" height="50.67"/>
  <path class="skinEastAsian" d="M24.83,101.81c7.35-11.54,15.51-7.71,23.53-9.61,1.72-.57,2.18-12.58-4.49-20.69L79.5,74.78c-5.31,6.44-8.1,15.4-6.29,19.53,7.18,4.64,16.34,6.86,19.19,10.45,3,4.06,3.9,14.89,4,21.56L80.25,150.86c-4.13,23.49,2.15,29.21-1.78,48.81l-55.18-.09c-3.76-14.67,1.35-27.06,2.26-33.88,5-36,4.26-41.65,5.34-45.74-.93,1-1.83,1.89-2.62,2.66"/>
  <g class="violin">
    <g class="violinDark">
      <path d="M65.4,122.76a28.67,28.67,0,0,1,7.6,1.8c5.25,2,10.26,16.78,5.06,25.08-3,4.79-7.16,6.51-12.87,6.11"/>
      <path d="M124.22,130.65a9.24,9.24,0,0,0-7.17,2.56C118.06,133.34,123.57,131.46,124.22,130.65Z"/>
      <path d="M122.57,132.5c-1.69-.66-2.76-.18-3.34,1.21A6.4,6.4,0,0,0,122.57,132.5Z"/>
      <path d="M25.06,165.71c4.26.57,10.13-.64,13.21-2.91,1.75-1.29,3.9-2.23,5.67-1.64,1.51.5,2.55-1.68,1.32-2.26-2.56-1.21-1-5.42,4.59-6.33C38.9,147.79,30.43,151.47,25.06,165.71Z"/>
      <path d="M35.05,126.34a14.47,14.47,0,0,1,4,1.21,1.1,1.1,0,0,1,.27,1.45c-.66,1.5,2.34,2.34,4.94,2.33C38.49,135.75,32.28,134.64,35.05,126.34Z"/>
    </g>
    <g class="violinMedium">
      <polygon points="117.22 132.72 104.64 135.09 103.79 129.91 116.47 128.14 117.22 132.72"/>
      <path d="M122.34,131.1a3.5,3.5,0,0,1,.23,1.4,11.41,11.41,0,0,0-3.34,1.21c-.17.11-.76-1.3-.54-1.39a6,6,0,0,1,3.65-1.22"/>
      <path d="M121.78,127.66a1.72,1.72,0,0,0-.17-1,7.88,7.88,0,0,0-3.55-.08c-.17,0-.28,1-.14,1A5,5,0,0,0,121.78,127.66Z"/>
    </g>
    <g class="violinLight">
      <path d="M75.3,148.73c-2.52,5-7,7.3-12.38,7.09-2.83-.11-7.05,0-7.85.77a1.23,1.23,0,0,1-2-1.43c.78-1.38-.76-2.26-1.95-2.49-2.62-.49-8.24.91-9.72,2.22-1,.88-1.41,2.56-.63,3.27a1.35,1.35,0,0,1-1.31,2.32c-.93-.42-3.36.83-4.79,2.13-6,5.46-19.46,4.14-23.36-7.44A43.59,43.59,0,0,1,9,140.63c0-12.22,11.36-16.72,19.85-13.82,1.33.46,4.39.5,5.14-.2a1.35,1.35,0,0,1,2,1.79c-.51.92.42,2.38,1.65,2.9,1.82.77,7.59.31,9.92-1,1.05-.59,2.23-1.92,1.06-3a1.23,1.23,0,0,1,1.38-2c1,.46,5-.77,7.69-1.77,5-1.91,10.2-1.35,14,2.76C76.51,131.62,78.47,142.46,75.3,148.73Z"/>
      <path d="M124.22,130.65a26.63,26.63,0,0,0-7.17,2.56c-1,.5-2-5.31-.9-5.48a27.42,27.42,0,0,1,7.61.14C124.08,127.92,124.55,130.6,124.22,130.65Z"/>
    </g>
    <g class="violinInner">
      <path d="M115.7,129l-11.77,1.74.57,3.44,11.67-2.11A10.63,10.63,0,0,1,115.7,129Z"/>
      <path d="M44.76,146.21c-.54,0-.83.2-.9.51a.72.72,0,0,0,1.39.39.87.87,0,0,0,0-.32,1.06,1.06,0,0,1,.37.56c.3,1-.77,1.62-1.54,1.94s-2.55,1.09-4.27,1.89l-.65-.51-.27.34.48.37c-1.35.64-2.68,1.31-3.59,1.87s-2.16,1.89-1.89,2.88c.16.59,1,.91,1.28,1a1.2,1.2,0,0,0,1.25-.45.88.88,0,0,0-.36-1.22,1,1,0,0,0-1.27.4,1,1,0,0,0-.11.36,1,1,0,0,1-.23-.36c-.25-.84,1-1.46,1.74-1.74.93-.34,2.58-1.05,4.25-1.85l.76.6.27-.34-.6-.47a28.06,28.06,0,0,0,4.1-2.34,2.58,2.58,0,0,0,1.21-2.61A1.53,1.53,0,0,0,44.76,146.21Z"/>
    </g>
    <rect class="nut" x="102.79" y="129.99" width="1.43" height="5.25" transform="translate(-20.07 18.47) rotate(-9.3)"/>
    <g class="shinyBlack">
      <path d="M118.26,134.74c-.24-.6-.76-.74-1.78-.41l-.23-1.43-1,.19.26,1.56c-1.14.48-1.31.84-1.36,1.24a4.15,4.15,0,0,0,1.05,2.6c.6.45,2.74-.33,3.07-1A7,7,0,0,0,118.26,134.74Z"/>
      <path d="M110,135.24l-.19-1.13-1,.19.26,1.56a1.32,1.32,0,0,0-.58,1.27,4.07,4.07,0,0,0,.86,2.31c.59.46,1.66-.48,1.82-.92a7.44,7.44,0,0,0-.11-2.6C111,135.47,110.61,134.9,110,135.24Z"/>
      <path d="M111,127.53l.22,1.34,1-.14-.25-1.51a2.4,2.4,0,0,0,1.08-1,5.25,5.25,0,0,0-.9-2.62c-.52-.42-2,.25-2.46.87a5.11,5.11,0,0,0,0,2.77A1,1,0,0,0,111,127.53Z"/>
      <path d="M104.79,129.77l1-.14-.25-1.51c1.09-.18,1.39-.59,1.56-1a4.78,4.78,0,0,0-.9-2.62c-.52-.42-3-.06-3.45.56a4.87,4.87,0,0,0,0,2.78c.28.29.69.58,1.78.41Z"/>
      <path d="M17.6,127.44c2.55,1.14,3.64,6,3,10.68-.65,4.53-3.74,7.4-9,6.68-2.82-.39-3.22-3.63-2.6-7.55C9.9,131.3,14.6,126.12,17.6,127.44Z"/>
    </g>
    <path class="flatBlackDark" d="M30.75,140.2c-3.59.59-2.21,9,1.38,8.43C32.78,148.52,31.4,140.09,30.75,140.2Z"/>
    <g class="flatBlack">
      <path d="M102.37,130.14,48.25,138c-1.57.26-.39,7.43,1.18,7.17l53.79-9.83Z"/>
      <path d="M30.75,140.2A29.84,29.84,0,0,0,22,143.4a33.3,33.3,0,0,1-6.33,2c-1.4.33-4.37,1-5.43,1.24a1.24,1.24,0,0,0,.4,2.45c1.09-.08,4.11-.43,5.55-.56a32.29,32.29,0,0,1,6.62-.13,29.89,29.89,0,0,0,9.31.24C30.73,148.86,29.35,140.43,30.75,140.2Z"/>
    </g>
    <g class="tuner">
      <circle cx="27" cy="146.09" r="0.69"/>
      <circle cx="27.31" cy="147.96" r="0.69"/>
      <circle cx="26.39" cy="142.37" r="0.69"/>
      <circle cx="26.7" cy="144.24" r="0.69"/>
    </g>
  </g>
  <path class="cowboyHat" d="M55.58,9.47C62.1,2.69,67.39-1.71,73.69,1.13c6.54,2.94,13-6.82,26.17,16.41Z"/>
  <path class="cowboyHatBrim" d="M64.41,73.64c32.79,13.8,51,2.87,50.93-22.77C114.07,28.62,100.12,7.51,75.65,7.79c-8.23.1-14.13,3.12-25-1-10.63-4-19.25.62-25.47,13C14.26,41.51,27.47,76.26,64.41,73.64Z"/>
  <g class="skinEastAsian">
    <path d="M25,101.54c-6.37,10-26.24,24.23-24.66,30.77,2.86,11.82,19.53,9.93,32,10.77,4.22,1.48,4.75,5.71,12,5.95,4,.14,10.87,3,10.79-3,2.13-.37,2.13-3.27,1.64-4.53,1.71-.9,1.64-4.38.22-4.76,1.79-1,1.12-4.47-.07-4.7a1.29,1.29,0,0,0-1.43-1.86c-2.53.45-5.35-1.12-10.78-.15-7,1.23-8.49,2.31-10.92,2.16-10.55-1-12.2-3.69-15.88-5.18a16.31,16.31,0,0,1,6.66-1,68.74,68.74,0,0,0,6.36-6"/>
    <path d="M97.76,140.89c3.28,7.07.3,16-9.06,16.93-6.93.3-11.06-6.68-6.79-15"/>
    <path d="M95.37,147.72c-2.86-5,4.35-5.53,4-11.46-.15-1.32-.52-5.62-.52-5.62l1.82-.26c.94-4-2.92-4.23-3.57-5.56s-2.52-.28-2.27,1.46a2.13,2.13,0,0,0-1.48.49c-1-1.19-4.57-.91-4.94.3-1.26-.69-4-.34-4.31.73-2.87-.4-3.53,1.72-3.94,3.22-2.27,11.46,3.7,10.37,2.32,16.2"/>
    <path d="M93.64,61.53c2.93,4.29,0,9.43-3.36,12-2.58,2-4.72,5.79-7.54,2.73-3.39,6.76-13.7,11.78-22.3,12.9-6.35.82-7.83,1.37-13-.18-2.76-.83-4.15-3.22-7.27-7.45-7.48-10.17-3.6-21.11-2.5-29,.84-6-.47-6.13,4.54-19C50,18.89,89.72,37.72,93.64,61.53Z"/>
  </g>
  <ellipse class="nippleEastAsian" cx="39.6" cy="121.37" rx="1" ry="1.75" transform="matrix(0.16, -0.99, 0.99, 0.16, -86.46, 141.52)"/>
  <path class="skinDisplayLine" d="M50.08,165.51c.94,4.73-3.16,3.75-1.34,0"/>
  <g class="skinOverlapLine">
    <path d="M11.92,125.55c1.37-.48,3.52.27,6,1.47"/>
    <path d="M32.84,107c.23,3.87-1,7.76-2,12.92"/>
    <path d="M79.84,115.81c-.7,6.47.81,10.06.92,13.66"/>
    <path d="M94.88,126.28c2.92-.24,3.7.86,4,4.36"/>
    <path d="M93.4,126.77c.26,2,.12,5.37.31,8"/>
    <path d="M88.46,127.07c-.64,2.36-.35,5.4-.35,8.1"/>
    <path d="M84.15,127.8c-1.17,1.37-.5,5.1-.5,7.75"/>
    <path d="M50.32,132.31c2.82.14,5.32-.31,6.56-.26"/>
    <path d="M57,136.75a34.63,34.63,0,0,1-5.94.42"/>
    <path d="M50.09,141.91a30.89,30.89,0,0,0,6.64-.4"/>
    <path d="M55.09,146c-2,.16-3.8.19-5.51.19"/>
  </g>
  <g class="skinFoldLine">
    <path d="M87.11,64.71c3-7,9.75,1.45,3.12,6.8"/>
    <path d="M86.58,67.11c2.68,1.51-2.6,3.9-1,5.18,1,.74,1-1.64,2.41-2.15,3.28-1.18,2.86-4.69.79-4.32"/>
  </g>
  <path class="skinEdgeLine" d="M96,138.2c-3.36-.48-3.44,2.4-6.66,1.33-2.29-.77-2.84.77-4.62,0-2.2-1-2.37.3-3.37-.26"/>
  <path class="lipMaleMedium__noStroke" d="M48.19,68a6.85,6.85,0,0,0,4.46.39c2.39.07,4.56,3.61,7.1,5.37-2.54,2.37-2.38,8.69-9.37,7.76-5.87-.78-2.75-6.9-5-9.48C48,70.12,47.11,69.12,48.19,68Z"/>
  <path class="mouthInner" d="M47.88,75.64a3.6,3.6,0,0,1,1.88-2.14,6.24,6.24,0,0,1-3.14-2,4.56,4.56,0,0,1-.6.34,20.54,20.54,0,0,1,1.91,3.86Z"/>
  <path class="tongue" d="M59.2,73.61a5.63,5.63,0,0,1-1.83-1.09,15.22,15.22,0,0,0-6.11.58,3.73,3.73,0,0,0-3.38,2.54,3.51,3.51,0,0,0,2.31,2.17C53,78.68,55.77,77.2,59.2,73.61Z"/>
  <path class="teeth" d="M57.88,72.92c-1.35-1-2.5-2.42-4.56-2s-2.23.33-3.48-.4-2.17.31-3.22,1C48.84,74.3,54.11,74.54,57.88,72.92Z"/>
  <g class="lipOverlapLine">
    <path d="M59.2,73.61a2.85,2.85,0,0,0,.94.13"/>
    <path d="M45,72.09a1.88,1.88,0,0,0,1-.22"/>
  </g>
  <g class="lipEdgeLine">
    <path d="M48.19,68a6.85,6.85,0,0,0,4.46.39"/>
    <path d="M46.64,78.27c.52,3.09,5.55,4.42,8,2.62"/>
  </g>
  <g class="noseLine">
    <path d="M58.3,66c1.62-.9,1.37-3.36.42-3.83"/>
    <path d="M52.69,65.14c1.24.19,2.34-2.3,4.11-.18"/>
    <path d="M48.18,63.37c.22.76.81,1.19,1.91,1.5"/>
    <path d="M48,61.14c-.9,1.13-1.13,2.86.05,3.64"/>
  </g>
  <path class="eyeFoldLine" d="M62.39,57a5.66,5.66,0,0,0,5.66.62"/>
  <path class="eyeLashLine" d="M60.39,54.68c1.35.22,2.15-1.11,5.78-.65,4.42.57,5.09,2.64,6.65,2.57"/>
  <g class="eyebrowBlack">
    <path d="M38.57,47.9c4-4.24,5.77-1.52,12-3C47.68,49,43.52,45.81,38.57,47.9Z"/>
    <path d="M59.75,46c4.31,2.07,11.45-.23,14.65,5.85C69.74,47.41,62.46,50.5,59.75,46Z"/>
  </g>
  <path class="eyepatch" d="M36.69,57.72a6.87,6.87,0,0,0,5.11,2.39c5.22.18,10.86-1.5,11.39-6.55.67-6.26-4.64-7-10-7.73-2.48-.36-3.94.24-5,1.28-.18,1.67-.18,3.12-.51,5.49C37.44,54.16,37.07,55.89,36.69,57.72Z"/>
  <path class="eyepatchGauze" d="M50.11,53.25c.29-3.35-2.85-4-6-4.45-2.91-.44-5.68.61-5.91,3.92C38,56.4,40.28,57.2,43.28,57,46.46,56.8,49.88,55.82,50.11,53.25Z"/>
  <path class="hairBlack" d="M62.21,26.06C44,23.83,43.77,29.92,34.89,28c.55,1.33,3,3,4.42,2.47-4,4.33-.11,6.68-4.92,11.91,4.75-.75,9.43-3.9,12-11.32-1.73,12.06,4.24,9.95,8.25,13.61a19.7,19.7,0,0,0-1.89-4.27c5.19,5.84,12.35.82,17.73,5.56-.47-1.54-.62-3.47-1.62-4.92,4.63,4.92,10.26,5.11,13,7.61.69,6.17,2.81,6.56,1.43,11.83a7.69,7.69,0,0,0,2.83,1.68c1.22-4.05,6.41-2.77,7.51-.67,1.19-7-3.57-19.88-9.38-24.68A7.38,7.38,0,0,0,87.91,35C78.09,33.94,79.06,28.12,62.21,26.06Z"/>
  <path class="hairOverlapLine" d="M84.73,47.71a8.48,8.48,0,0,1,.72,4.68,33.09,33.09,0,0,0-3.58-3.7"/>
</svg>
