<svg viewBox="0 0 807.79 1623.99">
    <rect class="noStroke" x="158.81" y="1294.04" width="332.72" height="328.95"/>
    <path class="skinEastAsian" d="M160.59,660.29c47.69-74.88,100.66-50,152.74-62.36,11.16-3.71,14.16-81.69-29.12-134.32l231.3,21.21c-34.5,41.83-52.57,100-40.82,126.81,46.6,30.16,106,44.55,124.53,67.85,19.83,26.39,25.36,96.64,26,139.95L520.39,978.74c-26.81,152.49,14,189.62-11.6,316.87L150.61,1295c-24.47-95.23,8.73-175.62,14.66-219.9,32.5-234,27.63-270.44,34.63-296.94"/>
    <g class="violin">
        <g class="violinDark">
            <path d="M424,796.3c20.19,3.07,28.38,3.74,49.3,11.69,34.13,13,66.64,109,32.87,162.86-19.47,31.07-46.5,42.22-83.57,39.67"/>
            <path d="M805.79,847.56c-19.22-1.06-32.62,4.48-46.52,16.63C765.82,865,801.57,852.82,805.79,847.56Z"/>
            <path d="M795.1,859.57c-10.93-4.26-17.89-1.2-21.67,7.85C777.19,868.18,793.35,862.69,795.1,859.57Z"/>
            <path d="M162.05,1075.14c27.67,3.75,65.76-4.15,85.76-18.86,11.39-8.36,25.36-14.49,36.82-10.67,9.79,3.26,16.54-10.9,8.57-14.67-16.62-7.87-6.32-35.16,29.8-41.07C251.91,958.82,196.94,982.72,162.05,1075.14Z"/>
            <path d="M226.89,819.57c7.6,1.75,18.21,3.45,25.65,7.83,2.87,1.7,3.49,5.49,1.76,9.45-4.25,9.72,15.24,15.16,32.1,15.09C249.29,880.67,209,873.44,226.89,819.57Z"/>
        </g>
        <g class="violinMedium">
            <polygon points="760.39 860.96 678.69 876.37 673.19 842.75 755.53 831.29 760.39 860.96"/>
            <path d="M793.61,850.47c.62-.11,2.11,9,1.49,9.1-8.37,1.59-14.27,4-21.67,7.85-1.13.73-4.93-8.46-3.5-9a38.81,38.81,0,0,1,23.68-7.94"/>
            <path d="M790,828.16c.63-.1-.25-6.35-1.08-6.62-8.33-1.81-14.69-2.26-23-.54-1.11.13-1.82,6.6-.93,6.73C772.36,831.41,780.81,831.15,790,828.16Z"/>
        </g>
        <g class="violinLight">
            <path d="M488.26,964.94c-16.36,32.43-45.77,47.4-80.39,46-18.37-.73-45.76.06-51,5-6.89,6.49-16.47-2.38-12.62-9.28,5-9-5-14.69-12.66-16.15-17.06-3.22-53.53,5.9-63.13,14.39-6.5,5.74-9.16,16.66-4.11,21.25,7.93,6.67.82,18.09-8.47,15.07-6-2.74-21.81,5.37-31.15,13.81-39.19,35.42-126.33,26.86-151.6-48.3a283.67,283.67,0,0,1-15.46-94.41c0-79.29,73.73-108.5,128.83-89.71,8.68,3,28.53,3.25,33.37-1.27,7.84-5.83,18.23,2.73,12.84,11.58-3.33,6,2.68,15.46,10.67,18.83,11.81,5,49.28,2,64.42-6.5,6.82-3.83,14.45-12.45,6.85-19.34-5.85-5.31.4-16.77,9-12.82,6.51,3,32.73-5,49.9-11.54,32.38-12.35,66.25-8.72,90.88,18C496.08,853.84,508.81,924.21,488.26,964.94Z"/>
            <path d="M805.79,847.56c-17.53,3.54-31.07,8.75-46.52,16.63-6.31,3.24-12.63-34.5-5.83-35.61,17-2.25,31.56-1.43,49.4.92C804.94,829.8,808,847.2,805.79,847.56Z"/>
        </g>
        <g class="violinInner">
            <path d="M750.51,837.13l-76.4,11.26,3.66,22.33,75.81-13.66A68.73,68.73,0,0,1,750.51,837.13Z"/>
            <path d="M290,948.6c-3.48-.06-5.38,1.26-5.81,3.31a4.66,4.66,0,0,0,9,2.51,4.53,4.53,0,0,0,.12-2.06,6.75,6.75,0,0,1,2.41,3.64c2,6.35-5,10.47-10,12.6-5.56,2.36-16.54,7-27.71,12.23l-4.19-3.3L252,979.75l3.07,2.41a249.57,249.57,0,0,0-23.27,12.14c-6.14,3.82-14,12.28-12.3,18.69,1,3.83,6.32,5.89,8.34,6.2,2.51.38,6.5,0,8.07-2.91a5.69,5.69,0,0,0-2.33-7.93,6.17,6.17,0,0,0-8.25,2.64,6,6,0,0,0-.68,2.28,5.38,5.38,0,0,1-1.48-2.32c-1.66-5.45,6.3-9.46,11.26-11.27,6.06-2.22,16.79-6.85,27.59-12l5,3.9,1.74-2.22-3.88-3.05c10.68-5.24,21-10.87,26.64-15.14,5.28-4,9.75-10.6,7.8-17C298,950,292.85,948.65,290,948.6Z"/>
        </g>
        <rect class="nut" x="666.69" y="843.27" width="9.31" height="34.07" transform="translate(-130.21 119.8) rotate(-9.3)"/>
        <g class="shinyBlack">
            <path d="M767.15,874.13c-1.56-3.91-5-4.85-11.56-2.65l-1.53-9.33-6.6,1.25,1.66,10.15c-7.39,3.07-8.5,5.41-8.8,8-.63,5.46,4.4,15.05,6.81,16.88,3.88,2.94,17.77-2.12,19.93-6.3C768.49,889.37,768.13,876.57,767.15,874.13Z"/>
            <path d="M713.6,877.34,712.4,870l-6.6,1.24,1.65,10.13a8.56,8.56,0,0,0-3.73,8.24c.83,6.63,3.12,13.19,5.53,15,3.88,2.94,10.79-3.13,11.87-6s.23-11-.73-16.87C719.9,878.81,717.46,875.14,713.6,877.34Z"/>
            <path d="M720.27,827.33l1.42,8.67,6.66-.93-1.61-9.81c3.59-2.19,6.35-4.5,7-6.7.74-2.53-3.37-15.15-5.83-17-3.36-2.73-13.24,1.64-16,5.66-1.7,2.51-1.63,15.88-.09,18C713.61,827.64,716.8,829.38,720.27,827.33Z"/>
            <path d="M679.7,841.84l6.65-.93-1.6-9.79c7.06-1.15,9-3.82,10.11-6.2s-3.36-15.14-5.83-17c-3.36-2.73-19.64-.36-22.38,3.66-1.7,2.51-1.9,16.1-.09,18s4.5,3.8,11.56,2.65Z"/>
            <path d="M113.61,826.75c16.56,7.34,23.68,38.71,19.29,69.3-4.22,29.44-24.23,48.07-58.51,43.38-18.36-2.52-20.93-23.55-16.88-49C63.64,851.77,94.16,818.11,113.61,826.75Z"/>
        </g>
        <path class="flatBlackDark" d="M199,909.57c-23.31,3.81-14.35,58.53,9,54.71C212.22,963.59,203.26,908.87,199,909.57Z"/>
        <g class="flatBlack">
            <path d="M664,844.25l-351.35,50.9c-10.2,1.67-2.58,48.22,7.63,46.55L669.5,877.87Z"/>
            <path d="M199,909.57c-24.2,4-41,13.21-56.77,20.74-14.1,6.73-31.89,10.78-41,12.93s-28.4,6.29-35.31,8.07c-9.79,2.46-7.27,16.79,2.6,15.87,7.11-.51,26.69-2.74,36-3.61s27.52-2.72,43-.84c17.35,2.11,36.22,5.52,60.42,1.55C198.89,965.77,189.93,911.05,199,909.57Z"/>
        </g>
        <g class="tuner">
            <circle cx="174.67" cy="947.82" r="4.46"/>
            <circle cx="176.66" cy="959.93" r="4.46"/>
            <circle cx="170.72" cy="923.65" r="4.46"/>
            <circle cx="172.7" cy="935.76" r="4.46"/>
        </g>
    </g>
    <path class="cowboyHat" d="M360.23,60.88c42.28-44.06,76.63-72.63,117.54-54.19,42.46,19.13,84.66-44.28,169.92,106.53Z"/>
    <path class="cowboyHatBrim" d="M417.54,477.42C630.43,567,748.39,496.05,748.18,329.65,740,185.15,649.35,48.13,490.48,50,437.09,50.6,398.76,70.2,328,43.42c-69-26.09-125,4-165.36,84.49C92,268.83,177.74,494.47,417.54,477.42Z"/>
    <g class="skinEastAsian">
        <path d="M199.9,778.18c-14.7,15.51-28.9,29.14-41.28,39.09a106.88,106.88,0,0,0-43.21,6.7c23.9,9.7,34.59,27.2,103.08,33.64,15.78.95,25.79-6,70.88-14,35.29-6.28,53.55,3.9,70,1,7.74-1.37,12.18,5.8,9.28,12.08,7.73,1.45,12.08,23.75.48,30.52,9.19,2.42,9.67,25.07-1.45,30.87,3.15,8.21,3.15,27-10.63,29.41.48,39.15-44.21,20.31-70.06,19.45-46.87-1.56-50.29-29.08-77.73-38.64-80.87-5.48-189.11,6.78-207.66-69.91-10.28-42.49,117.63-133.11,159-198.07"/>
        <path d="M634,914c21.28,45.92,2,103.65-58.79,109.91-45,2-71.84-43.35-44.08-97.36"/>
        <path d="M618.54,958.36c-18.6-32.71,28.23-35.92,26.31-74.41-1-8.57-3.43-36.43-3.43-36.43l11.81-1.71c6.1-26.32-18.92-27.48-23.15-36.13-4.15-8.47-16.34-1.77-14.74,9.48-4.59.47-7.69,1-9.63,3.21-6.53-7.71-29.62-5.94-32.07,1.92-8.19-4.42-26-2.18-27.94,4.78-18.66-2.65-23,11.16-25.58,20.88-14.76,74.42,24,67.36,15,105.21"/>
        <path d="M607.26,398.81c19,27.85,0,61.22-21.8,78.09-16.72,12.94-30.65,37.6-48.91,17.76-22,43.88-88.94,76.47-144.79,83.71-41.2,5.35-50.83,8.91-84.44-1.13-18-5.37-27-20.9-47.21-48.38-48.56-66-23.41-137-16.27-188,5.48-39.12-3-39.77,29.51-123.15C323.8,122,581.87,244.25,607.26,398.81Z"/>
    </g>
    <ellipse class="nippleEastAsian" cx="256.44" cy="787.28" rx="6.52" ry="11.39" transform="translate(-561.24 917.58) rotate(-81.01)"/>
    <path class="skinDisplayLine" d="M324.5,1073.86c6.11,30.75-20.52,24.34-8.71,0"/>
    <g class="skinOverlapLine">
        <path d="M76.76,814.43c8.91-3.09,22.84,1.75,38.65,9.54"/>
        <path d="M199.9,778.18c6.39-33.51,14.15-58.75,12.68-83.89"/>
        <path d="M517.73,751.2c-4.56,42,5.21,65.32,5.94,88.72"/>
        <path d="M615.34,819.16c19-1.51,24,5.6,26.08,28.36"/>
        <path d="M605.71,822.37c1.7,13,.78,34.85,2,52.09"/>
        <path d="M573.64,824.29c-4.1,15.38-2.26,35.08-2.26,52.64"/>
        <path d="M545.7,829.07c-7.59,8.88-3.26,33.08-3.26,50.32"/>
        <path d="M326,858.34c18.33.9,34.56-2,42.6-1.68"/>
        <path d="M369.12,887.18c-9.72,2.21-28.65,2.71-38.57,2.71"/>
        <path d="M324.54,920.65c12,.3,32.16.2,43.13-2.6"/>
        <path d="M357,947.46c-12.82,1-24.69,1.24-35.81,1.24"/>
    </g>
    <g class="skinFoldLine">
        <path d="M564.92,419.5c19.59-45.63,63.29,9.39,20.24,44.13"/>
        <path d="M561.49,435.08c17.38,9.77-16.93,25.28-6.19,33.58,6.25,4.82,6.45-10.61,15.64-13.92,21.3-7.69,18.55-30.43,5.11-28.08"/>
    </g>
    <path class="skinEdgeLine" d="M622.56,896.54c-21.85-3.12-22.33,15.61-43.22,8.65-14.92-5-18.49,5-30-.24-14.27-6.54-15.37,1.92-21.85-1.68"/>
    <g class="head47">
        <path class="lipMaleMedium__noStroke" d="M312.25,440.91a44.85,44.85,0,0,0,29,2.54c15.46.45,29.56,23.4,46.1,34.84-16.55,15.38-15.51,56.44-60.86,50.41-38.1-5.06-17.85-44.85-32.72-61.57C311.18,454.58,305.19,448.12,312.25,440.91Z"/>
        <path class="mouthInner" d="M310.24,490.45c2.48-6.9,6.67-11.34,12.18-13.9-8.3-2.49-15.48-6.7-20.38-12.79a33.81,33.81,0,0,1-3.88,2.2c6.78,9.72,9.18,18.31,12.36,25.08C310.43,490.85,310.34,490.65,310.24,490.45Z"/>
        <path class="tongue" d="M383.68,477.24c-4.42-1.36-8.18-4.11-11.86-7.05-9-1.55-21.92-.77-39.68,3.77-10.33,1.16-18.12,6-21.9,16.49,3,6.5,6.51,11.38,15,14C343.31,510.18,361.42,500.54,383.68,477.24Z"/>
        <path class="teeth" d="M375.17,472.75c-8.82-6.35-16.27-15.72-29.64-12.81-13.94,3-14.5,2.13-22.56-2.59-7.33-4.29-14.1,2-20.93,6.41C316.48,481.71,350.67,483.31,375.17,472.75Z"/>
        <g class="lipOverlapLine">
            <path d="M383.68,477.24a20.06,20.06,0,0,0,6.15.88"/>
            <path d="M291.69,467.37a12.55,12.55,0,0,0,6.47-1.41"/>
        </g>
        <g class="lipEdgeLine">
            <path d="M312.25,440.91a44.85,44.85,0,0,0,29,2.54"/>
            <path d="M302.15,507.5c3.4,20,36.08,28.7,52,17"/>
        </g>
        <g class="noseLine">
            <path d="M377.87,427.62c10.54-5.85,8.88-21.84,2.69-24.92"/>
            <path d="M341.48,422.25c8,1.25,15.13-14.93,26.66-1.18"/>
            <path d="M312.19,410.8c1.4,4.94,5.22,7.71,12.36,9.7"/>
            <path d="M311.23,396.29c-5.8,7.35-7.33,18.6.36,23.61"/>
        </g>
        <path class="eyeFoldLine" d="M404.41,369.23c12.11,10.28,29.17,7.44,36.78,4"/>
        <path class="eyeLashLine" d="M391.44,354.33c8.75,1.47,13.95-7.18,37.52-4.17,28.66,3.65,33.07,17.15,43.16,16.63"/>
        <g class="eyebrowBlack">
            <path d="M249.81,310.37c25.9-27.54,37.43-9.88,77.8-19.75C308.89,317.27,281.93,296.79,249.81,310.37Z"/>
            <path d="M387.27,297.92c28,13.44,74.37-1.49,95.13,38C452.13,307.15,404.9,327.22,387.27,297.92Z"/>
        </g>
        <path class="eyepatch" d="M237.55,374.12c7.56,7.72,16.59,14.95,33.18,15.51,33.93,1.15,70.51-9.75,74-42.54,4.31-40.66-30.17-45.22-64.85-50.22-16.11-2.32-25.58,1.62-32.71,8.36-1.17,10.82-1.17,20.25-3.32,35.6C242.41,351,240.05,362.21,237.55,374.12Z"/>
        <path class="eyepatchGauze" d="M324.67,345.11c1.88-21.76-18.47-25.93-38.8-29-18.87-2.81-36.88,4-38.34,25.49-1.61,23.9,13.35,29.05,32.79,27.81C301,368.13,323.23,361.77,324.67,345.11Z"/>
        <path class="hairBlack" d="M403.22,168.55c-118.34-14.49-119.66,25.07-177.36,12.86,3.57,8.65,19.69,19.49,28.75,16.05-26,28.12-.71,43.36-32,77.29,30.82-4.86,61.19-25.28,77.75-73.46-11.21,78.3,27.51,64.59,53.54,88.32-2.41-10.54-8.57-20.08-12.23-27.73,33.65,37.94,80.15,5.38,115.1,36.1-3.05-10-4-22.5-10.52-31.91,30.06,31.91,66.6,33.19,84.61,49.41,4.47,40,18.24,42.58,9.24,76.77a49.67,49.67,0,0,0,18.36,10.94c8-26.29,41.62-18,48.75-4.38,7.73-45.43-23.15-129-60.84-160.21,9.9-1.8,16.05-5.73,23.64-11.95C506.34,219.71,512.65,182,403.22,168.55Z"/>
        <path class="hairOverlapLine" d="M549.45,309.11c5.3,11.79,5.53,20.48,4.66,30.4-2-.78-10.41-14.24-23.21-24"/>
    </g>
</svg>
