<svg viewBox="0 0 675.1 2094.03">
    <path class="backpack" d="M104.6,991.23c-1.68,50.06-1.81,97.91,20.59,113.91l13.88-110.56Z"/>
    <g class="soleWhite">
        <path d="M530.75,2054.64c1.45,7.87,1.26,13-.88,19.36-20.91,16.9-115,17-138.12,11.89-9.56-2.11-28.52-6.17-36.7-6.67-12.89-.78-32.13-6.22-33-11.23-3.53-6.16-3.17-13.33-2.45-22.46Z"/>
        <path d="M295.45,2047.87c1.64,8.63,1.81,21.45-.8,24.5-24.76,28.88-132.29,25.25-153.39,2.92-3.34-3.53-6-18.12-4.06-26.42Z"/>
    </g>
    <g class="sockWhite">
        <path d="M342.6,1952.12c2.27-17.13,0-35.38,2.6-42.4,2.31-6.23,90.58-7,93.26,2.67,1.88,6.83-3,19.39-1.82,33.17C442.49,1974.36,344.87,1992.85,342.6,1952.12Z"/>
        <path d="M265,1904.83c3.2,6.49-2.67,24.28-2,39.71,0,31.19-93.27,34-91.32,0-.57-13.09-3.19-32.48-1.24-37.83C173,1899.63,262.21,1899.22,265,1904.83Z"/>
    </g>
    <g class="shoe">
        <path d="M339.93,1946.34c3.1,10.31,11.38,14.54,23.13,14.67,13-27.66,73.7-28,79.43-7.86,4.32-7.74,9.06-5.49,11.76.3,36.64,78.88,77,61.39,76.5,101.19-2.66,12-101.46,20.84-135.78,14.57-11.35-2.07-27.49-5.51-36.8-6.33-10.28-.92-36.37-9.35-38.59-17.35C317.36,2021.06,325.25,1963.68,339.93,1946.34Z"/>
        <path d="M254.53,1949.45c5-.41,8.59-3.75,11.12-9.79,9.29,48.73,30.77,81.78,29.8,109.21-1.25,35.27-151.23,37.89-158.25,0-6-32.32,29.35-55.4,32.81-107.43,2.28,5,5.42,8.94,10.23,10.68C187.36,1932.1,247,1932.55,254.53,1949.45Z"/>
    </g>
    <g class="shoelace">
        <path d="M447,1976.35c-23.21-4.15-40.22-1.76-61.92,6.61,6.08,10.09,15.24,19.49,26.57,28.38,14.38-5.5,31.38-4.85,49.86-3.82C456.78,1997.37,449.16,1985.81,447,1976.35Z"/>
        <path d="M244.94,1980.41c-20.74-4.73-45.59-5.16-65.14-.37-1.46,9.83.36,21.48-2.19,32a134.4,134.4,0,0,1,59-.73C240.21,2000.06,242.21,1991.58,244.94,1980.41Z"/>
    </g>
    <path class="shorts" d="M507.43,1177.3c9,86.51,16.87,168.23,11.88,229.16-3.34,40.82,2.31,83.3-4.24,116.28-33.1,5.09-81.72,25.82-115.43,18.67-28-5.94-50.92-2.55-74.69-9.34-28,12.73-82.62,24.69-118,13.58-26.38-8.29-67.32.76-80.63-10.18-3.4-44.14-3.4-84.72-6.79-125.61-6-72.73-4.09-160.41,5.24-230Z"/>
    <g class="hoodie">
        <path d="M663.28,407.48c-2-27.92-25.66-69.64-43.14-97.27-11.49-18.14-3.86-32.8-29.69-47.48,3.93-27.94-16.57-35.67-29.52-35-4.19-12.78-4.09-22-9.75-28.43-12-13.64-70.13,11.24-70.07,29.38,0,9.65,5.52,16.19,11.7,31.24-3.05,5-4.62,10.23-4.14,15.51s11.43,18.95,19.9,21.72c-10,9.24,5.15,17,2.22,33-2.57,14.15.24,27.27,10,31.19,15.73,26.7.94,55.65,22.16,66.5-4.9,4.93-8.08,10.31-4.07,17.64-4.93,7.52-19.73-5.34-30.31,21.72-33.16,36-58.88,28.9-58.35,48.85-19.35-8.65-26.91,7.06-35.29,18.1-30.08-9.51,8.27,21.66-263,59.07C51.54,622.17,58,709,47,743.09c-17.62,32.53-22.57,80.5-23.16,133.79-62.13,71.35,12.64,193.45,100.34,117.7-5.78,14.15-4.82,36.2-4.5,72.69.3,33.49-11.58,55.38,4.5,69.53,0,24.44-13.5,51.39-4.68,53.78,106.31,19.48,344.94,11.12,391.45,0,1.25-13.82-8-32.91-4.75-48.73,4.85-12.13,4.06-26.44-1.7-35.15,16.22-32.86,1.75-62-9.14-85,6.24-12.93,5.4-27.39,1.61-42.48,9.89-15.44-2.3-36.13-1.25-51.71,8.14-15.58,5.53-27.91-4.23-38.07,24.41-8.74-7.75-156.68-4.24-177,2.86-26.1,20.8-57.16,42.8-82,41-46.29,91.33-81,133.64-139.36C686.48,459.82,664.92,430.44,663.28,407.48Z"/>
        <path d="M196.79,534s-23.15-4.73-34,26c-11.3,2.87-18.74,15.18-22.86,32.61C216,660,303.19,643.49,335.37,656c39-19.31,109.49-88,30.3-136.85C328.94,496.48,236.33,497.29,196.79,534Z"/>
    </g>
    <g class="backpackStrap">
        <path d="M396.31,549.61c9,17.76,5.75,36.18-3.47,52.83,47.29,63.7,89.39,154.09,110.55,228.36C517.08,742.41,449.09,592.86,396.31,549.61Z"/>
        <path d="M139.91,592.59h0c-3.71,2.52-6.19,5-6.79,7.27,14.1,75.19,13.43,177.24-21.45,316.87C205.9,857,232,721.14,225.55,638.66,197.71,631,168.05,617.53,139.91,592.59Z"/>
    </g>
    <g class="backpackCreaseLine">
        <path d="M181,621.11c9.28,60.11-.19,149.75-23.44,209.69"/>
        <path d="M401.15,578.83c27.78,36,55.31,87.19,71.8,133.36"/>
    </g>
    <path class="hoodieInner" d="M215.65,521c-76.36,39.72,19.23,92.93,69.66,103.84Z"/>
    <path class="zipperDisplayLine" d="M335.37,656c7,51.4,26.1,88,12.14,143.22-7.39,29.28,25.4,67.18,8.73,147-10.36,49.62,24,95-4.61,182.61-6,18.31-.92,32.28-6.23,73.07"/>
    <g class="clothesOverlapLine">
        <path d="M492.81,259.88c5.3-17.74,47.13-33.72,68.12-32.19"/>
        <path d="M506.24,1141.85c-43.64,13.09-319.66,20.73-382-5"/>
        <path d="M495.4,1021.74c-7.87-10.75-14.21-25.4-19.56-42.56C413.11,984.63,289,986,224.92,980.54c-11.19,65.53-63.41,92.73-58.64,123.41,3,19.06-3.17,17.24.24,42.47"/>
        <path d="M363.06,1961c10.25.1,16.28,13.18,22,22"/>
        <path d="M254.53,1949.45c-4.87,6.16-5.1,20.48-9.59,31"/>
        <path d="M180.24,1952.12c-3.06,7.21.29,18.79-.44,27.92"/>
        <path d="M442.49,1953.15c2.38,6.54,1.86,15.32,4.49,23.2"/>
        <path d="M325,1532.07c2.55-39.89-2.55-78.08,0-122.21,2.07-35.95-2.55-55.17,0-81.48"/>
    </g>
    <g class="clothesFoldLine">
        <path d="M162.77,560c-2.54,8.75-.85,17,7.71,24.48"/>
        <path d="M590.45,262.73c-17.65-7.08-32.67-8.66-45.31-6.29"/>
        <path d="M508.57,297.11c15-20.89,47.47-10.19,21.85-21.7"/>
        <path d="M586.17,279.45c8.89,1.21,23.38,5.64,29.15,20.84"/>
        <path d="M520.79,361.34c8,1.74,13.26,8.61,23,11"/>
        <path d="M538.88,445.48c17.8,18.6,56.58,27.08,52.54,33.14-8.89,7.68-26.66-7.29-40-19"/>
        <path d="M543.75,463.67c4.73,20.07,13.59,36.64,27.07,49.29"/>
        <path d="M529.21,463.67c-3.24,28.28-1.62,63.43,6.46,85.25"/>
        <path d="M508.57,467.2c-3,17.88-3.05,34.19,3.67,47"/>
        <path d="M476.69,500.84c-4,12.12-5.66,28.69,1.61,40"/>
        <path d="M450.22,516.05c-.28,4.75,4.17,21.42,4.25,18.73"/>
        <path d="M414.93,534.15c8.18,3.11,13.71,7.55,16.1,13.56"/>
        <path d="M463.35,580c3.64,26.26,5.26,50.9,2.23,72"/>
        <path d="M478.3,609.11c4.18,29.27,5,55.13,1.23,76.3"/>
        <path d="M411.64,835c-43.64,3.95-85.86,3.88-126.45-.81"/>
        <path d="M376.49,854.75c-34.43,1.2-65.83.36-92.51-3.64"/>
        <path d="M491.53,889.48c-7.92,6.3-17.32,11.83-9.59,26.27"/>
        <path d="M495.76,927.55c-3.52,5.77-7.16,9.34-11,9.61"/>
        <path d="M497,979.26c-4.07,4.1-6.51,9.49-5.38,17.69"/>
        <path d="M417.7,1001c-11.31,3.24-59,2.43-76.36,0"/>
        <path d="M409.22,1017.56c-33.31,2.45-64.35,1.65-91.71-4.45"/>
        <path d="M504.54,1106.7c-9.43,10.52-29,16.3-55.73,18.73"/>
        <path d="M183.78,1116.94c28.91,7.39,65.35,8.22,103.83,7.27"/>
        <path d="M169.64,1038.57c-16-11.6-32.6-17.12-50-14.15"/>
        <path d="M44.71,858.47c17.82,24.95,41.56,25,68.62,11.14"/>
        <path d="M23.88,876.88c2.77,9.19,2.56,18.35-4.11,27.48"/>
        <path d="M19.48,939.71c2.84-33.13,42.45-59,74.56-40.61"/>
        <path d="M47,743.09c.67,29.19,10.64,53.77,26.39,75.47"/>
        <path d="M65.81,762.93c9,33.45,22.57,54,40.75,64.15"/>
        <path d="M107.51,659.55c6.77,36,16.41,65.09,33.08,77.61"/>
        <path d="M106.56,725.81c11.36,20.82,27.81,33.23,30.29,55"/>
        <path d="M410.67,1241.81c.57,65.31,8.66,125.87,29.71,178.23"/>
        <path d="M184.06,1210.4c.72,34.74-1.46,68.14-8.49,99.31"/>
        <path d="M244.32,1367.42c-.38,47.74-4.2,94-14.43,137.49"/>
    </g>
    <g class="eye">
        <circle class="sclera" cx="237.78" cy="309.36" r="107.32"/>
        <g class="irisDarkBrown">
            <ellipse cx="283.42" cy="302.88" rx="18.85" ry="15.15" transform="translate(-75.29 511.17) rotate(-77.04)"/>
            <ellipse cx="159.17" cy="284.11" rx="18.85" ry="14.31" transform="translate(-153.39 375.53) rotate(-77.04)"/>
        </g>
        <g class="pupil">
            <ellipse cx="280.84" cy="301.32" rx="7.33" ry="5.89" transform="translate(-75.77 507.45) rotate(-77.04)"/>
            <ellipse cx="156.29" cy="282.48" rx="7.33" ry="5.57" transform="translate(-154.04 371.46) rotate(-77.04)"/>
        </g>
    </g>
    <g class="skinEastAsian">
        <path d="M399.64,1541.41c-25.45-5.4-46.7-3.09-68.2-7.72-.64,42,6.2,79.94,1,109.66-17.55,100.5,21.28,170.92,19.15,267.79-.16,6.46,82.4,8.59,82.56,2.13,35.17-200,28.95-237.19,33-274.88,3.33-30.68,12-57.27,14.42-107.94C453.92,1537.82,423.16,1546.4,399.64,1541.41Z"/>
        <path d="M297.14,1541.83c-28.46,7.76-64.42,11.91-90.16,3.82-18.42-5.79-43.94-3.12-62.19-4.72.39,55.55,12.26,105.82,8.23,137.88-7.47,59.48,10.64,145.39,22,228.79.05,6.49,84.45,5.78,84.39-.71,14.19-104.68,39.72-185.53,29.08-278.43C293.38,1606.42,292.47,1574.36,297.14,1541.83Z"/>
        <path d="M190.36,458.82c22.46,32.65,30.4,65.86,24.35,99.62,25,86,111.32,54.82,120.66,97.56,5.42-39.46,46.95-46,35.09-112.11-3.42-31.16,1.51-63,25.05-96.47"/>
        <path d="M482.4,223.68c8.07-16.18,51.68-34.33,66.21-26.43-5.46-25.94-1.27-56.26-12.92-93.73-6.26-20.11-7.43-38-21-58.55C505,30.2,484.49,3.74,475.13,14.06c-4-2.87-10.32-4-15.47-8C450.1-8.29,436.7,10.83,445.1,26c-8.4,8.14-5.36,19.44,7.59,29.28,6.78,5.15,31,42.11,18.9,67.21a12.45,12.45,0,0,1-6.42-7.43c-2.72-8.8-17.71-18.16-30.69-7.06-10.13,8.66,16.72,24,21.06,48.51C453.45,199.32,476.05,207.6,482.4,223.68Z"/>
        <path d="M32.76,942.07c-8.1-4.62-26.45,7.89-21.41,21.19,2.22,5.86,9,19.7,15.13,28.24,10.05,14.09,24.87,8.49,30-1.83,1.53,26.11,29.65,20.89,34.36,9.88,1.5,9.38,10,9.71,20.65,7.05,2.77,11.49,22.32,16.39,31.25.76,5.82-10.18,16.58-16.13,15.63-31.25,37.95,5,37.95-22.88,23.44-27.9-15.07-5-18.42-12.84-30.14-10.6-8.37-20.09-19.29-48-38.5-47.32-12.29.43-14.3,11.6-28.81,9.37-23.44-5.58-23.21,15.62-33.81,20.09C41.13,924,41.4,937.61,32.76,942.07Z"/>
        <path d="M473.14,401c-6.65,20.41-16.11,30.13-31.41,42.07-16.63,13-25.82,28.66-43.94,10-24.78,34-81.36,62-137.58,65.36-41.47,2.5-39.62,9.78-81.62-3.13-17.92-5.51-30-21.91-49-47.36C94.12,420.52,111.92,335,125.06,300.33c7.84-20.71,5.8-46.28,14.75-72.13C177.86-5.09,559.62,231.87,473.14,401ZM259.86,317c9.66,6.23,18.61,9.8,26.95,11.54,15.52,3.23,27.72-1.11,40.84-4-7.47-12.3-23.66-22.49-36.31-24.79-16.19-2.93-25.84,3.68-34.89,11.5C252.25,314.93,257.82,315.73,259.86,317ZM194,302.62c-8.2-9.85-15.56-20.49-30.84-22.35-7.65-.93-15.65,2.61-19.64,5.4-1.9,3.74-3.15,10.85-2.31,14.66,19.16,16.82,42.57,4.22,48.07,5.81C193.12,307.25,196,305,194,302.62Z"/>
    </g>
    <g class="skinOverlapLine">
        <path d="M475.13,14.06c-6.72,7.62-1.84,21.17,10.36,28.49,11.21,11,15.45,24.67,17.62,50.15-9.21,24.4,1.64,28.56-6.78,64.7-7.37,18.24-7,34.44-1.76,42.45"/>
        <path d="M459.66,6.09c-21.88-1.76-15.91,29.41,4,32.43,13.71,14.33,25.1,29.24,29.43,56.35"/>
        <path d="M445.1,26c7.59,16,24.66,10.59,39.3,71"/>
        <path d="M471.59,122.5c-5.32,8.76-13.37,21.35-16,34"/>
        <path d="M151.63,937.61c4.11,12,7.07,29.45,6.7,38.5"/>
        <path d="M103.1,923.89c12.75,17.34,20.68,12.67,21.6,46.48.64,23.19-2,32.62-13.25,36.23"/>
        <path d="M72,936.65c14.07,25.84,20.61,23.55,18.78,62.9"/>
        <path d="M32.76,942.07c10.66,6.27,24,33.15,23.68,47.6"/>
    </g>
    <g class="skinFoldLine">
        <path d="M425.61,387.32c25.18-45.13,63.77,8.85,14.87,41.91"/>
        <path d="M421.18,398.68c16.67,10.93-13.76,18.68-3.61,27.69,5.9,5.24,5.7-7,15.09-9.68,21.78-6.2,17.14-26.48,3.57-25.06"/>
    </g>
    <g class="skinCreaseLine">
        <path d="M434.58,1617.82c-16.14,5-32.44,5-48.93-1.42"/>
        <path d="M245.93,1622.07c-16.13,4.3-31.58,4.13-46.1-2.12"/>
        <path d="M482.64,116c0,11.93,8.07,18.95,17,19.65"/>
    </g>
    <g class="skinEdgeLine">
        <path d="M115.52,953.33c-6.74,3.74-13.31,6-19.62,6.21"/>
        <path d="M81.84,971c-5.92,3.3-13.74,5.47-19.34,5.23"/>
        <path d="M34.55,952c-6.17,1.13-13.31,4.7-16.35,9.29"/>
        <path d="M143.23,934.32c-6,3.45-12,5.67-18,5.86"/>
        <path d="M151,986c-5.86,2.94-11.71,4.53-17.56,3.42"/>
    </g>
    <g class="head47">
        <path class="lipMaleMedium__noStroke" d="M179.33,400.15c11.37,8,17,5.79,27.72,4.15,11.45,6.36,16,23.49,33.08,43.3-16.46,1.19-23.84,19.69-50.35,13.12-24.37-6-19.61-21.25-25.53-25.85C177.55,421.64,166.42,405.75,179.33,400.15Z"/>
        <path class="teeth" d="M233.17,442.56c-18.86-13.72-21.68-20.85-27.39-22.81-8.93-3.07-10.39,3.34-20.74-1-1.07,3.61-9.16,9.87-12.84,13.5,7.88-.75,13.74,3.15,21.42,3.82C206.42,437.22,214.05,434.44,233.17,442.56Z"/>
        <g class="lipOverlapLine">
            <path d="M243,450.75a37.22,37.22,0,0,0-9.8-8.19"/>
            <path d="M172.2,432.28c-4.67.6-7.22,2-10.59,4.32"/>
            <path d="M185,418.78c-2.64-1.52-4.5-3.81-7.72-5.87"/>
        </g>
        <g class="lipEdgeLine">
            <path d="M207.05,404.3c-10.68,1.64-16.35,3.85-27.72-4.15"/>
            <path d="M211.47,459.31c-9.56,2.93-26.76,3.77-35.77-5.19"/>
        </g>
        <g class="noseLine">
            <path d="M182.36,352.23c-6.56,3.95-10.85,16.1-3.34,24.17"/>
            <path d="M244.27,363.18c4.66,3.11,9,20.9-7.46,24.71"/>
            <path d="M232.66,384.14c-2.37-15.09-11.07-1.82-22.95-.53"/>
            <path d="M181.13,366.05c-.27,4.71,5.11,11.76,9.92,13.91"/>
        </g>
        <g class="eyeFoldLine">
            <path d="M143,313c8.35,11.77,29.58,11.06,37.74,7.61"/>
            <path d="M264.49,334.3c8.42,9.88,29.88,12.16,41.33,7.47"/>
        </g>
        <g class="eyeCornerLine">
            <path d="M332.79,329.39c-2.33-1-3.35-3-5.14-4.81"/>
            <path d="M143.53,285.67c-2.33.87-3.38,2.27-5.38,2.48"/>
        </g>
        <g class="eyeCreaseLine">
            <path d="M188.47,284.81c-18.16-23.14-42.9-11.83-47-7.88"/>
        </g>
        <g class="eyebrowBlack">
            <path d="M259,264c28,11.88,63.94-3,81.43,29.74C310.72,274,278.72,292.91,259,264Z"/>
            <path d="M132.2,264.78c29.37-9.62,51.33,11.7,70.47-11.45-32.83,4.9-48.16-10.64-69.28,2.86C133,259.08,132.57,262,132.2,264.78Z"/>
        </g>
        <path class="hairBlack" d="M473.14,401c13.07-30.95-29.8-63.23-49.44-28.42-7.87-3.52-14.87-7.53-20.21-12.5,10.26-38.41,11.36-34.88-5.54-81.3-30.07-12.68-57.21-27.09-80.51-43.74A54.44,54.44,0,0,0,328.49,255c-38.13-13.51-69-28.48-88.16-45.83-1.29,6.2,1.16,13.31,4.72,20.7-32.16-20.49-46.69-46.35-50.66-75.42-9.19,17.1-19.22,32.2-31.48,42.07,1.83-5.47,1.67-9.43.18-12.39-9.27,8.19-16.62,24.66-23.28,44.08C100.39,170.49,192.16,57.33,320,73.3,522.5,89.2,562.89,289.11,473.14,401Z"/>
        <path class="hairOverlapLine" d="M398,278.8a117.38,117.38,0,0,1,19.5,13.5,77.19,77.19,0,0,0-14.65-23.13"/>
    </g>
</svg>
