<svg id="presence" xmlns="http://www.w3.org/2000/svg" xmlns:xlink="http://www.w3.org/1999/xlink" viewBox="0 0 922 3105">
  <defs>
    <style>
      .cls-1 {
        fill: none;
        stroke: #000;
        stroke-miterlimit: 10;
        stroke-width: 2px;
      }
    </style>
  </defs>
  <title>bennett_catholicPensive</title>
  <path id="bennettSoleBottom" class="cls-1" d="M77.92,2813.14c-4.54,27,25.21,91.76,94.36,120.37,12.88,3.06,114.53,5.63,154.92.12C222.91,2826.37,116.61,2754.82,77.92,2813.14Z"/>
  <g id="bennettSoleSide">
    <path class="cls-1" d="M550.8,2909.9c29.21,15.5,45.73,44.64,29.21,84-14.91,13.72-69.71,5.94-103.12,11.72-58.1,10.07-143.06,3.39-151.41-9.15-5.36-6.54-4.68-22.72-1.78-38.3Z"/>
    <path class="cls-1" d="M311.18,2835.39c22.05,19.08,42.32,47.09,35.17,94.18-51.26,16.69-93.73-15.76-121.6-59.82-44.11-69.74-108.68-93-146.83-56.61-1.19-11.32,6.75-29,16.89-39.14C136.9,2717.65,245.47,2807.76,311.18,2835.39Z"/>
  </g>
  <g id="bennettShoe">
    <path class="cls-1" d="M291.51,2651.21c-.6,68.54-14.9,135.9,19.67,184.18,5.11,23.55,2.7,44.82-5.37,64.38-37.55-11.33-67.73-78.43-101.92-107.3-34.39-29-77.49-34-109.08-18.47,19.67-47.69,51.85-85.84,72.72-146.64Z"/>
    <path class="cls-1" d="M484.63,2800.82c3.27,45.94,25.17,82.38,66.17,109.08,12.56,18.92,13.05,39.2,7.15,60.2-39.94,7.16-60.37.34-113.25,4.17-41.13,3-93.55-.88-121-16.07-4.77-68.55,27.59-101.63,35.16-160.36Z"/>
  </g>
  <path id="converseLogo" class="cls-1" d="M267,2780.84c19.56,6.78,18.71-65.59,0-74.66C248,2697,245.85,2773.54,267,2780.84Z"/>
  <g id="clothesDisplayLine">
    <path class="cls-1" d="M558,2970.1c11,0,21.39-2.36,28.61-6.72"/>
    <path class="cls-1" d="M305.81,2899.77a62.8,62.8,0,0,0,41.41,0"/>
  </g>
  <path id="bennettJeans" class="cls-1" d="M707.39,1579.28c21.46,49.27,18.77,111.45,3.41,181-11.48,52,12.8,80.74-11.38,109.29-8.83,155.09-33.16,311.16-60.34,432.6-7.05,31.52-1.66,48.54-19.35,68.31-13.39,97.65-45,161.11-66,222-21.38,61.76-19.6,143.1-50.78,158.63,32.4,53.27-19.76,32.18-12.35,82.34-45.73,19.73-91.81,16.56-138.18-4.83.45-20-2.62-36.77-10.47-49.22-26.32-18.3-23-43.82-14.11-60.47,27.09-50.8,85.39-344.16,108.74-411.69-10-15.54-8.87-48.83,8.88-58.81-32.18-36.62,15.54-30-12.2-183.1-34.41,126.5.65,141.3-32.19,150.92,6.73,20.55,6.65,38.87-8.87,52.15-5.91,72-24,149.49-52.16,230.81-14.25,41.12,22.63,83.62-14.42,108.75,13.31,51.05-22.2,58.82-35.71,86.55-20.89-43.27-87.47-56.59-134.39-36.75,11.41-40.92-41.85-46.47,0-82-24.1-28.85,9-58.62,10.3-83.22,3.33-65.47,11.28-173.87,34.4-233,7.8-20,4.42-49,22.2-52.15-23.31-24.41-2.22-35.51,1.11-57.71-25.45-107.58-31.34-232.69-26.64-367.3-11.68-13.42-11.64-25.58-1.11-36.62,14.43-32.18-24.63-105.64,30.85-223.26Z"/>
  <g id="clothesDisplayLine-2" data-name="clothesDisplayLine">
    <path class="cls-1" d="M388.1,1584.78c-14.55,50.92-19.4,126.09-3.64,175.79"/>
  </g>
  <g id="clothesOverlapLine">
    <path class="cls-1" d="M260.8,1766.64c29.1,36.37,131.42,37.9,162.46,46.07,23,6.06,106.69,29.09,145.49,2.42"/>
    <path class="cls-1" d="M433.23,2065.32c-5.12-92.58-16-179.87-10-252.61"/>
  </g>
  <g id="clothesFoldLine">
    <path class="cls-1" d="M196.86,1782.35c9.13,9.27,22.53,15.61,37.51,20.85"/>
    <path class="cls-1" d="M511.64,1862c-38.51-25.21-89.62-38.51-55.31.7"/>
    <path class="cls-1" d="M352,1883.72c42.84-65.07,57-55.14,39.21,38.51"/>
    <path class="cls-1" d="M277.92,1780.54c-10.41,11.6,9.68,24.75,46.77,38.76"/>
    <path class="cls-1" d="M644,2086.77c-18.8,79.57-46.27,146.69-132.33,129.54"/>
    <path class="cls-1" d="M260.8,2135.79c54.09-10.51,92.6,16.8,114.56,12.6"/>
    <path class="cls-1" d="M391.21,2171.49c-53.21,10.51-24.51,14.71-.7,41.32"/>
    <path class="cls-1" d="M311.39,2254.82c31.07,13.41,48.57,35.29,45.51,70"/>
    <path class="cls-1" d="M595,2366.14c-27.8-23.26-59.76-37.77-96.62-42"/>
    <path class="cls-1" d="M445.43,2248.42c55.71,16.2,145.54-9.59,141.83,14.8-1.76,11.59-27.86,8.23-60.92-1.4"/>
    <path class="cls-1" d="M224.57,2177.1c32.2-19.61,100.12,9.8,102.22-9.81,1-9.77-33.34-11.1-56-4.2"/>
    <path class="cls-1" d="M222.39,2207.36c59.59-20.46,118.33,34.29,139.41,27.15,27-9.14-17.35-32.24-50.41-27.31"/>
    <path class="cls-1" d="M546,2304.53c-25.91,0-78.9-32.77-91-16.81-6.81,9,16.39,15.22,47.61,14.71"/>
    <path class="cls-1" d="M237.17,2521.58c28.33-.58,56.3,11.09,84,31.51"/>
    <path class="cls-1" d="M155.49,2575.77c17.22-11.49,41.22-15.24,66.28-17.78"/>
    <path class="cls-1" d="M147.29,2619.78c19.16,11,110.19-24.68,140.29,20.84"/>
    <path class="cls-1" d="M325.59,2608c-24-38-80.72-12.85-81.42-28.25,9.8-14,48.31-7,60.92,5.6"/>
    <path class="cls-1" d="M502.92,2751.1c-43.79,16.25-90.71,20.45-115.21-2"/>
    <path class="cls-1" d="M327.81,2718.92c2.95,16.19,12.57,26.73,30.49,30.22"/>
    <path class="cls-1" d="M341.92,2779.39c34.19,16.27,64.38,15.85,92,4.76"/>
    <path class="cls-1" d="M507.3,2792.28c-20.76,15.94-44.13,23.56-70.58,21.28"/>
  </g>
</svg>
