<svg id="presence" xmlns="http://www.w3.org/2000/svg" viewBox="0 0 2161.22 735.01">
  <defs>
    <style>
      .cls-1 {
        fill: #ae96c2;
      }

      .cls-1, .cls-2, .cls-3 {
        stroke: #000;
        stroke-miterlimit: 10;
        stroke-width: 2px;
      }

      .cls-2 {
        fill: #96a1c2;
      }

      .cls-3 {
        fill: none;
      }
    </style>
  </defs>
  <path id="lizPillow" class="cls-1" d="M1010.09,15.91c48.85-17.6,86.18,2.6,78.95,51.35l2.08,589.28c9.31,39.61-24.64,78.11-67.37,62.73-35.64-12-78.08-15.86-113.66-8.87-49.94,9.1-112.93,6.12-165.47-7.81-75.37,37.55-283.93,27.53-359.5,1.8-62.4,22.43-156.38,27-211.16,16.7-36.77-6.94-56.44-7.25-81.14,2.15-58.63,15.91-95.64-1.1-79.75-59.31,8.49-29.6,7.2-58.18.48-91.29C-4.37,495.41-.13,206.53,8,168a230.79,230.79,0,0,0,.33-90.51C1,33.94,19,9.37,63.17,19.63c29.59,6.57,65.31,8,111.42-.82C283.5-2.67,405.56,5.66,507.77,35.35c104.42-34.2,274.42-46.2,419.11-17.89C957.49,23,983.76,25,1010.09,15.91Z"/>
  <path id="boyfriendPillow" class="cls-2" d="M1151.64,715.59c-48.85,17.6-76.18-2.6-69-51.35,3.81-22.62-7-42.77-11.18-65.2-22.35-113-29.58-328.23-5.64-419.22C1079,130.9,1087.77,103.47,1080.61,75c-9.32-39.61,24.64-78.11,67.36-62.73,35.65,12,68.08,15.85,103.66,8.86,49.95-9.09,78.43-6.12,131,7.82,75.37-37.56,329.92-27.54,405.5-1.8C1850.5,4.68,1934-3.45,1987.77,11.41c32.4,8.64,56.44,7.25,81.14-2.15,51.52-21.38,95.63-.9,79.74,57.31-8.48,29.59-7.2,59.18-.47,92.29,17.92,77.22,12.67,369.11,4.55,407.62-6.89,34.26-5.38,60.63-.33,87.51,7.34,43.57-10.67,68.14-54.84,57.88-29.6-6.57-65.31-8-111.42.81-108.91,21.49-276,13.16-378.19-16.53C1490.73,739.22,1373.85,746,1234.84,714,1204.23,708.53,1178,706.5,1151.64,715.59Z"/>
  <g id="pillowFoldLine">
    <path class="cls-3" d="M507.77,35.35c-16.34,6.14-31.87,12.52-46.37,19.21"/>
    <path class="cls-3" d="M1788.11,27.11c16.27,5.29,29.82,12,38.37,21.2"/>
    <path class="cls-3" d="M1608,696.15c16.35-6.14,31.87-12.52,46.38-19.21"/>
    <path class="cls-1" d="M385.12,704.39c-23.71-8.2-44.46-16.83-58.55-26.44"/>
    <path class="cls-1" d="M1382.61,28.91c10.58,2.24,34.58,11.24,44.58,19.24"/>
    <path class="cls-1" d="M744.19,702.15c-16-5-31-12-41-20"/>
  </g>
</svg>
