<svg viewBox="0 0 247.01 331.15">
  <path class="dullGreenDarker" d="M28.92,3.85c-2.49,1.94-9.31,8.54-9.31,8.54-2.05,2.41-3,4.3-3,6.39C16.66,13.3,1.05,13.17,1,18.64V304.45c0,5.69,15.61,5.69,15.61,0,2.47,3.32,5.46,5,12.73,5H246V56H49.74V13.31C49.74,2.11,37-2.44,28.92,3.85Z"/>
  <polygon class="paperLight" points="228.5 263.25 228.5 30.21 49.73 30.21 49.73 244.22 26.9 263.05 228.5 263.25"/>
  <path class="paperDark" d="M228.5,258.25v33.39H34.27c-13.52,0-13.52-33.39,0-33.39Z"/>
  <polygon class="flatMaroonDark" points="90.4 279.12 37.11 279.12 37.11 329.15 63.75 309.15 90.4 329.15 90.4 279.12"/>
</svg>
