<svg viewBox="0 0 2928.43 2002.77">
  <rect class="stageFront" x="3.73" y="1873.15" width="2920.97" height="128.62"/>
  <polygon class="stageTop" points="2924.7 1873.15 2889.13 1852.61 39.3 1852.61 3.73 1873.15 2924.7 1873.15"/>
  <g class="prosceniumBottom">
    <polygon points="2924.7 197.88 2900.58 215.81 2705.46 215.81 2728.58 197.88 2924.7 197.88"/>
    <polygon points="3.73 197.88 27.86 215.81 222.97 215.81 199.85 197.88 3.73 197.88"/>
  </g>
  <g class="prosceniumSide">
    <polygon points="2728.58 197.88 2705.46 215.81 2705.46 15.7 2728.58 1.77 2728.58 197.88"/>
    <polygon points="199.85 197.88 222.97 215.81 222.97 15.7 199.85 1.77 199.85 197.88"/>
  </g>
  <g class="prosceniumFront">
    <rect x="2728.58" y="1.77" width="196.12" height="196.12"/>
    <rect x="3.73" y="1.77" width="196.12" height="196.12"/>
    <rect x="2755.68" y="204.56" width="34.71" height="1661.59"/>
    <rect x="2805.05" y="204.56" width="34.71" height="1661.59"/>
    <rect x="2854.42" y="204.56" width="34.71" height="1661.59"/>
    <rect x="138.04" y="204.56" width="34.71" height="1661.59"/>
    <rect x="88.67" y="204.56" width="34.71" height="1661.59"/>
    <rect x="39.3" y="204.56" width="34.71" height="1661.59"/>
    <rect x="207.41" y="133.48" width="2514.61" height="34.71"/>
    <rect x="207.41" y="84.11" width="2514.61" height="34.71"/>
    <rect x="207.41" y="34.74" width="2514.61" height="34.71"/>
  </g>
  <g class="prosceniumBottom">
    <polygon points="207.41 168.19 220.41 177.84 2709.02 177.84 2722.02 168.19 207.41 168.19"/>
    <polygon points="207.41 118.82 212.41 123.15 2717.02 123.15 2722.02 118.82 207.41 118.82"/>
    <polygon points="207.41 69.45 212.41 73.78 2717.02 73.78 2722.02 69.45 207.41 69.45"/>
    <circle cx="2826.64" cy="99.83" r="79.05"/>
    <circle cx="101.79" cy="99.83" r="79.05"/>
  </g>
  <g class="prosceniumSide">
    <polygon points="2755.68 204.56 2741.03 213.81 2741.03 1858.15 2755.68 1866.15 2755.68 204.56"/>
    <polygon points="2805.05 204.56 2797.72 209.19 2797.72 1862.15 2805.05 1866.15 2805.05 204.56"/>
    <polygon points="2854.42 204.56 2847.09 209.19 2847.09 1862.15 2854.42 1866.15 2854.42 204.56"/>
    <polygon points="172.75 204.56 187.41 213.81 187.41 1858.15 172.75 1866.15 172.75 204.56"/>
    <polygon points="123.38 204.56 130.71 209.19 130.71 1862.15 123.38 1866.15 123.38 204.56"/>
    <polygon points="74.01 204.56 81.34 209.19 81.34 1862.15 74.01 1866.15 74.01 204.56"/>
  </g>
  <g class="prosceniumInset">
    <circle cx="2821.64" cy="102.83" r="71.59"/>
    <circle cx="106.79" cy="102.83" r="71.59"/>
    <rect x="2790.4" y="209.12" width="7.33" height="1653.03"/>
    <rect x="2839.76" y="209.12" width="7.33" height="1653.03"/>
    <rect x="130.71" y="209.12" width="7.33" height="1653.03"/>
    <rect x="81.34" y="209.12" width="7.33" height="1653.03"/>
    <rect x="212.41" y="123.15" width="2504.61" height="10.33"/>
    <rect x="212.41" y="73.78" width="2504.61" height="10.33"/>
  </g>
</svg>
