<svg viewBox="0 0 428.91 116.78">
  <path class="bennettUndershirt" d="M282.61,8.72s.52-4.38-.18-6.6C296.5,4,312,3.68,316.71,14.1Z"/>
  <path class="miriamNightie" d="M243.37,94.74c3.85,2.65,7.53-.43,8.79.66,6,5.13,12.09-.44,16.62,2.28,5.51,3.31,7.13-.64,10.22.22a6.4,6.4,0,0,0,6.58,0C465.88,58.86,169.85-70.65,243.37,94.74Z"/>
  <g class="blanket">
    <g class="bennettBlanket">
      <path d="M34.28,55.46c3.38-22.84,21.11-18.57,26.27-22.52,13.87-10.61,20.9-12.22,40.58-7.5,12.09-11.22,25.56-5.34,30-5.63,7.81-.52,14.69-9.52,30.49-3,11.07-5.85,28.86-11.13,40.82-12,5.21-11.55,24,3.17,36.36,0C239.74,51.52,161.52,64.07,34.28,55.46Z"/>
      <path d="M214,13.66c3.94-9.95,13.47,2.84,28.08-1.24,3.72,24.77-2.54,46.68-2.54,61.37,0,11.17,4.15,25.49,12,28.54a16.4,16.4,0,0,1-8.7-2.43c-4.8,1.17-9.25,1.79-12-.26-4.09-2-5.92-.78-9.14.91-7.7,4-25.4,1.56-31.45-3.78-5.4-2.69-7.78-1.7-10.57,1.43-3.13,3.53-8.74,2-11.62,1.44-9.26-1.7-25.72,9.4-54.16.91C86,92.23,75.53,106.42,59.74,98.07L18.37,101.6C12,101.46,7.41,97,.1,99.25c6.87-3,12.66-6.67,16.71-11.36-.4-5.87,4.3-9.66,8.74-13.57-1.83-6.79-1-13.83,9.27-21.4C48.26,40.39,62.35,33.47,72.4,36.21c4.19,1.14,2.22,3.66,15.53,6.92,21.27-18.4,37.85,0,52.07-2.09,5.58-7.28,11-10.22,16.19-6.13,1.64-6,10.95-5.38,14.61-8.62C183.88,14.75,203.82,9.46,214,13.66Z"/>
    </g>
    <g class="bennettBlanketInner">
      <path d="M18.37,101.6c9.62,1.69,14.34-.91,20.72-1.33,8.62-.56,14.19.31,20.65-2.2C35.86,82.78,34.57,98.39,18.37,101.6Z"/>
      <path d="M190.25,96.77c-4.56,0-8.57,2.41-13,3.1,6.61-4.26-2.08-7.65,1.12-10.89C183.09,84.23,186.71,93.63,190.25,96.77Z"/>
      <path d="M220.35,101.16c5.8-4.91-3-9.16,1.56-12.54,7.39-3.56,5,7.72,8.93,11C226.75,99.2,223.34,100.91,220.35,101.16Z"/>
      <path d="M233.43,100.76h0c2.61.55,5.92,0,9.42-.86C239,96.29,236.7,99.87,233.43,100.76Z"/>
    </g>
    <g class="blanketFoldLine">
      <path d="M202.47,4.79a18,18,0,0,1,8.45,8"/>
      <path d="M161.65,16.76c-6.06,2.85-9.47,6.79-14.13,7.6"/>
      <path d="M150.37,20.67c-3.68,1.31-8.07,5.11-3.8,8.55"/>
      <path d="M101.13,25.44A157.5,157.5,0,0,0,89.81,36.59"/>
      <path d="M16.81,87.89c.41,2.09,3,2.09.89,5"/>
      <path d="M25.55,74.32c.81,1.59,1.21,3.08.73,4.33"/>
      <path d="M64.16,77.51C49.91,90.14,23.85,86.58,24,79.46"/>
      <path d="M87.93,43.13c-9,8.16-18.59,15-31.06,18"/>
      <path d="M116.12,66.51c-7.93,15,32.54,9.22,50.83,28.49"/>
      <path d="M140,41c-6.72,8.63-7.53,18-16.43,27.73"/>
      <path d="M156.19,34.91c-3.33,14-10.77,21.88-7.21,7.32"/>
      <path d="M133.69,52.15c-29.06,9.82-27.28,13.39-41,28.76"/>
      <path d="M214,13.66c-2.36,12.22,8.33,33.1-16.12,64.18-7.8,9.93,15.54,13.43,7.94,17"/>
      <path d="M203.37,80.59c.42-3.41,19.54-4.75,27-1.78"/>
      <path d="M211.79,96.29c6.91-4.61,2-12.48-1.66-18.54"/>
    </g>
  </g>
  <g class="clothesFoldLine">
    <path d="M280.08,25.57c-5.75,2.71-14,12.13-18.44,21.36"/>
    <path d="M275.91,33.31c-4.66,6.43-8.7,13.21-11,20.54"/>
    <path d="M276.94,46.93c-3.2,4.57-6.63,8.6-11.19,11.15"/>
    <path d="M250.36,82.09c-2.89,4.2-6.88,8.2-7.65,7.55s2.43-4.58,2.25-6.71"/>
    <path d="M260.34,78.92c-6.57,6.93-12,12.21-16.42,15.29"/>
    <path d="M264.35,85c-3.9,4.16-8.86,9-11.48,9.23"/>
    <path d="M272.65,81.62c-4,3.92-6.95,9.86-11.2,12.22"/>
    <path d="M288.31,70.24c-1.58,7.12-10,14-19.11,23.32"/>
    <path d="M284.77,92c13.34-12.4-6.43-5.59-11.19,4.11"/>
    <path d="M297.92,85.17c1.74-6.55-5.5-.38-9.61,9.47"/>
    <path d="M279,97.9c-.84-.24-.77-1.82-2.53-2.47"/>
    <path d="M303,83.77a7.06,7.06,0,0,0,2.44,3.7"/>
    <path d="M310,79.05a55.35,55.35,0,0,1-1.14,7.48"/>
    <path d="M314.36,81.62c-.52,1.62-1.82,2.89-2.75,4.34"/>
    <path d="M292.06,34.54c-6.63,17.19-22.86,29.4-27.1,31.94"/>
    <path d="M289.83,45.72c-5.42,10.1-15,18.74-23.37,26.76"/>
    <path d="M295.15,48c-.33,7.15.38,14.58-.31,21.75"/>
    <path d="M299.23,36.85c-1.85,10.7-.15,22.9.47,34.24"/>
    <path d="M302.4,42.71a46,46,0,0,0,5.93,17.12"/>
    <path d="M288.72,25.27a24.33,24.33,0,0,0-6,6.21c-2.17,3.42-3.94.81-.49-2.92"/>
  </g>
  <g class="skinEastAsian">
    <path d="M330.28,43.38c3-9.63,8.92-15,17.71-18-2.43-3.35.93-5.54,3-6.56,2.28-1.14,10.19-8.32,16.82-3.65C388.14,11,327.42,52.4,330.28,43.38Z"/>
    <path d="M258.25,39c2.23,9.11,8.12,12.45,7.45,22.67-.5,5.73-2.91,13.28-7,11.75-2,.82-3.67.27-5.33-3.52L241.11,44.93C233.71,32.46,230.68,9.72,235,5.85c10.25-9.19,31.77-4.75,47.64-2.8a25.46,25.46,0,0,1,0,5.67"/>
  </g>
  <path class="hairBlack" d="M409.44,24.53c-12.77-15.72-34.38-12.6-41.64-9.4.89.67,2.49,5.29-3,6.71Z"/>
  <path class="hairBlonde" d="M399.71,78.47c5.81,3.51,18.33,1.94,22.35-4.75,5.4-5.83,8.84-16.83,4.88-24.62,2.48-9.8-2.18-20.44-10.71-27.64-7.43-6.29-16.55-8.93-32.12-5.79-10.73,1.51-20.7-.22-28.12,8.28-7,6.11-7.06,8.12-23.38,15.77Z"/>
  <g class="skinNordic">
    <path d="M369.38,69c-6.51-2.09-20.74,0-23.75,3.06-3.22,3.07,5.93,14.79-6.66,27,2.37-.19,5-.4,8.13-.84,3.11-1,2.9-4.28,8.64-5.42,2.15-.42,6.83.38,10.91-.28,1-.92,1.66-.1,2.44.06-.35-1.34.74-4.23,2.54-2.43,1.42,1.47,2.94.76,4.36,3.08s2.14,9,.9,9.87c-.42,4.41-5.88,6.64-10.53,9.81-2.79,2-13.09-3-19.57-2.69-22.71-.12-48.49,15.68-64.09-2.27-4.57-5.26-.52-10.21,4.55-12.73,9.08-4.53,20.17-9.8,30.81-9.87,19.85-16.71-1.33-16.25-2.71-29.6-1-10,18.72-13.67-6.11-31.63-6-3.37-14.92-3.07-20.43,1.15-1.75-2.29-4.68-2.09-8.64.31-2.34-1.86-5.4-1.57-8.82-.23-3.54,8.29-13.62,14.39-15.89,22.87-.33,1.47.75,5.44.52,12.65-.09,2.76-1.88,6.15-1.61,9.21.18,2.11-1,4.54-.48,6.33.11,2.06-5.85.65-4.79-4.85a26.48,26.48,0,0,0,.14-3.12c-1.83,3.91-1.46,7-2,9.55,2.61,2.68.35,6.81-1.58,5.5-1.78-1.79-3.43-1.44-3.64-4.88a4.24,4.24,0,0,1-4.19-3.3c-2.68.35-4.12-1.16-5.5-5.91-4-.58-2.88-8.15-.94-12.78,3.21-7.68,9.05-11.47,11.34-16.5,4.91-12.25,6.33-28.89,19.53-34.12,4.06-1.61,19.84.36,36.13,3.81,12,2.54,26.62,1.3,35.06,10.46,3.76,4.07,4.75,18.3,9.06,19.34,5.17,2.39,12.71,1.14,24.34.82m-1,63.14a9.28,9.28,0,0,1,3.33-1.9,6.43,6.43,0,0,1-1.33-2.32,3.78,3.78,0,0,1-2.46-.88c-1.26.54-3.05,0-3.41.63C361.37,100.86,365,102,365.88,103.57Z"/>
    <path d="M375.2,18.07c-8.09.39-8.92,6.21-11.8,8.36-1.79,1.34-2,5.53-.11,7.33C355.72,38.6,351.63,44.61,350,54.05c-1.16,6.7-1.69,7.9-.7,12.12,1.29,5.58,3.43,5.59,8,9.57,10.75,9.42,27,6,28.36,5.42,6-2.33,9.59,1.8,27.31-8,4.69-5.06,7.32-9.69,4.4-17.22,3.06-8.69-1-15.33-9.9-19.92-5.85-3-13.46-.78-21.7-6.3a20.82,20.82,0,0,0-9.9,1.36c.79-3.34,8.08-3.17,4.64-5.76C382,22.31,380.63,18.82,375.2,18.07Z"/>
  </g>
  <g class="miriamNightieLace">
    <path d="M345,75.5c-2-.72-8.28-1.22-14.46-1.35a3.74,3.74,0,0,1,.3,2.15c5.63-.07,11.87.4,14.48,1.39Z"/>
    <path d="M327.43,36.75A55.36,55.36,0,0,1,339,34.83l-.7-2c-3,0-7.22.77-11.92,2A3.05,3.05,0,0,1,327.43,36.75Z"/>
    <path d="M309.15,24.11a25.62,25.62,0,0,1,5.32,8c.67,1.27,3.79,3.58,5.06,6.4-.9,4.25-2.65,5.8-4,8.71-1.51,3.19-1.93,6-4.77,9.18,2.84,2.82,3.07,6.18,4.34,7.21a19,19,0,0,1,4.27,6.15c.45,1.41,3.1,2.94,4.42,6.13-.29,2.07-2.52,4.61-3.56,5.81-.89,1-1.34,2.67-2.23,3.67a33.4,33.4,0,0,1,6.72.26c.92-.51,1.27-1.59,1.24-3,1.87.18,2.34-1.21,2.31-3.15,3.35-1.46,3.56-5.66.11-7.44-.05-2.64-1.19-4.16-3.57-4.4.17-2.58-.86-4.26-3.35-4.82.28-2.48-.82-4.1-2.84-4.47a3.23,3.23,0,0,0,0-4.75c1.94-.42,2.79-1.74,2.41-4.09a3.34,3.34,0,0,0,2.41-4.19c2.25-.83,2.94-2.54,2.41-4.92,2.72-2.31,1.89-6-1.47-6.39-1.12-1.6-2.48-2.6-4.4-2.21-.21-1.9-1.36-3.13-3.77-3.45C314.56,25.57,312.06,24.46,309.15,24.11Z"/>
  </g>
  <g class="skinOverlapLine">
    <path d="M233.85,60.54c-.92,3.18-2.34,6.68-1.5,8.86"/>
    <path d="M239.11,61.39c-2,6.42-3,7.93-1.26,13.92"/>
    <path d="M244.78,62.23c-2,7-3.3,10.49-2.74,16.38"/>
    <path d="M253.06,61.46c-.66,2.2-2.86,3.49-3.82,7"/>
    <path d="M369.09,92.58c1.35.65,2.9.15,4.1,1.41a15.63,15.63,0,0,1,3.7,9.11"/>
    <path d="M365.42,98.47c-1.66-1.49-1.12-4.34.09-4.2,3.65,1.9,5.93-.23,8,4.39,2.56,5.6-.08,5.32-3.82,9.37"/>
    <path d="M366.65,92.52a2.65,2.65,0,0,0-.72,2"/>
    <path d="M271.26,25.34a19.4,19.4,0,0,0,1.08-6.16"/>
    <path d="M324.69,85.61a17.75,17.75,0,0,1,8.22,4.06"/>
    <path d="M339,99.06c-23.43,1.79-35.3-9.82-47.34-4.06"/>
    <path d="M315,26.75c1.4.19,3.14,1.08,4.65,1"/>
    <path d="M260.16,60.21c-.16,3.45.22,5.74.17,8.26,0,1.92-.38,4-1.64,4.93"/>
  </g>
  <g class="skinFoldLine">
    <path d="M347.09,102.14c4.39-9.66,17,4.18,18.79,1.43"/>
    <path d="M360.27,97.46a5.23,5.23,0,0,1,1.82,2.63"/>
    <path d="M377.16,25.71c4.3-3.86-4.72-8.29-9.3-1.09"/>
    <path d="M372.8,28.05c-2.4-2.1-3.86,3.52-5.13,2-.88-1,1.27-1.49,1.62-3.13.78-3.75,5.83-3.63,5.24-1"/>
    <path d="M250.75,4.12a11.17,11.17,0,0,1,4.53,6.43"/>
    <path d="M366.19,17.75c.71-2.82-6.11-4.27-11.13.58"/>
    <path d="M359,21.12c-2.16-1.33-4,2.7-5.15,1.22-.85-1.09,2.28-1.14,3.54-3.31,1.42-2.45,6-1.6,4.07.07"/>
  </g>
  <g class="skinEdgeLine">
    <path d="M246.79,71.74a7,7,0,0,1-3.56-.66"/>
    <path d="M237.92,69.62a10,10,0,0,0,3.73.79"/>
    <path d="M236,68.21a5,5,0,0,1-3.12-.57"/>
    <path d="M259,68.39a4.73,4.73,0,0,1-3.44.32"/>
    <path d="M263.72,67.46a3.23,3.23,0,0,1-2.63.6"/>
    <path d="M256.49,56.12c2-.38,2.85,2,5.75.44"/>
  </g>
  <path class="lipFemaleLight__noStroke" d="M363.27,56.77a4.38,4.38,0,0,1-.65,2.74c-2.22,3.39-1.29,8.63,1.05,11.07.52.55,1.14.81,1.6,1.79A14.8,14.8,0,0,1,365.8,70C366.76,66.28,365.64,60.31,363.27,56.77Z"/>
  <path class="lipFemaleLight" d="M365.8,70a14.8,14.8,0,0,0-.53,2.36c1.8-2.16,5.06-2.56,6.1-4.29.86-1.43-.32-2.43,0-5.2.28-2.38-4.77-3.33-8.11-6.11C365.64,60.31,366.76,66.28,365.8,70Z"/>
  <g class="eyebrowBlonde">
    <path d="M397.89,55.56c-4.38-2.34.53-11.25-7-18C400.22,44.89,396.93,50.45,397.89,55.56Z"/>
    <path d="M399,66c-3.65,2.37,1.32,7.56-2.77,13.78l1-.19C401.93,74.72,398.85,70.28,399,66Z"/>
  </g>
  <path class="mouthInner" d="M365.8,70c1-1.25,2.56-1.1,3.05-2.32s-.46-1.62-.11-4.22c.23-1.78-2.38-2.64-4.14-4.17C366,62.74,366.56,67.07,365.8,70Z"/>
  <path class="teeth" d="M367.33,61.23a16.69,16.69,0,0,0,.6,7.41,1.89,1.89,0,0,0,.92-1c.49-1.23-.46-1.62-.11-4.22C368.86,62.55,368.22,61.88,367.33,61.23Z"/>
  <path class="lipEdgeLine" d="M362.62,59.51c-2.22,3.39-1.29,8.63,1.05,11.07"/>
  <g class="noseLine">
    <path d="M381.93,69.49c-1.45.58-3,2.71-5.48-.21"/>
    <path d="M380.14,58.36c-.61-1-3.91-1.3-4.73.88"/>
    <path d="M377,60.29c1.66,1-.59,1.53-.83,2.36"/>
    <path d="M378.09,68.94c1.32-.65-1.3-.78-1.8-2.62"/>
  </g>
  <g class="eyeLashLine">
    <path d="M387.63,40.81c-.75,2.36,4.37,8.13,2.39,14.72"/>
    <path d="M391.21,66.7c3,7.07,0,10,.51,11.51"/>
  </g>
  <g class="eyeFoldLine">
    <path d="M387.53,53.69c-1.51-1.77-1.82-5.72-1.09-8"/>
    <path d="M389.93,76.26c-1.5-1.76-1.47-5.29-.74-7.54"/>
  </g>
  <g class="hairOverlapLine">
    <path d="M415.3,74.76c3.69-4.75,5.21-9.93,3-15.85"/>
    <path d="M385.73,29.74A24.93,24.93,0,0,1,381.19,26"/>
  </g>
  <g class="hairEdgeLine">
    <path d="M424.09,56.05c3.09,5.83,1,12.24-2,17.67"/>
    <path d="M423.81,53.06c4.66-9.81-1.61-18.57-11.6-23.13-5.54-2.53-9.44-1.15-18.29-2.16"/>
  </g>
</svg>
