<svg viewBox="0 0 1128.74 3241">
    <g class="shoe">
        <path d="M951.05,2982.24a177.18,177.18,0,0,0-27-39.32L726.5,2986.1c-10.26,34.87-36.11,66.43-66.44,90.74-22.54,19.42-50.21,16.14-65.83,44.81l145.53,59C795.47,3209.61,974.7,3044.68,951.05,2982.24Z"/>
        <path d="M425,3175.68c6-22.42,6.69-50.94,1.83-79.59l-162.68-95.81c-24.6,19.67-57.5,45.17-152.85,50.22-39.07-2.67-84.72,4.73-96.8,38.35C112.91,3173.78,375.36,3267.21,425,3175.68Z"/>
    </g>
    <g class="soleWhite">
        <path d="M951.05,2982.24c10.45,14.12,18.07,30.38,18.81,49.24,1.7,43.13-46.12,80.1-99,107.88-24.5,12.85-43.14,30.61-60.3,43.15-35.72,26.07-69.46,29.59-99,30-47,.64-106.69-18.53-118.78-38-10.45-16.81-9.08-41.25,1.43-52.87,43.15-8.85,108.73,9,146.35,46.65,34.3-1.5,72.87-16.88,114.77-47.2C912.08,3080,954.71,3031.34,951.05,2982.24Z"/>
        <path d="M425,3175.68c-3.94,22.65-14.65,45.48-30,57.68-12.18,9.67-60.52,9.67-96.65-6-31.91-13.83-67.7-18.71-92.39-20.72-25.1-2-154.83-20.11-194.71-50.19-15.7-11.85-12.31-53.09,3.24-67.6,42.83-7.29,82.88,5,121.84,43.71,25,24.91,53.46,36,84.14,45.31,30.44,9.27,62.85,17.67,95.34,25.47,23.36,5.61,39.22,4.61,59-1.45C392.39,3196.47,407.93,3188.83,425,3175.68Z"/>
    </g>
    <g class="shoelace">
        <path d="M796.57,3024c-23.76-16.39-55.34-21.55-80.33-12.56a253.9,253.9,0,0,1-56.18,65.41c17.7-4.42,55.88-.46,75.79,10,21.25-11.56,44.25-36.72,60.72-62.9Z"/>
        <path d="M203.71,3100.72c26.29-2.71,60.35-20.52,94.62-43.55h0c-14.36-19.89-45.57-35.2-64-35.81h0C194,3044.38,146,3047,111.27,3050.5,150.28,3052.32,176.08,3070.67,203.71,3100.72Z"/>
    </g>
    <path class="pants" d="M444.9,2298.54c-20.74,76.07-17.9,183.06-49.24,258.17-32.72,78.43-32.8,166.49-65.07,220.66-22.2,37.26-1.33,87.09-23.26,106.56-48.79,43.32,13.83,58.78-73.77,129.09,69.16-17.29,129.09,89.9,204,109.49,20.75-153.29,95.66-58.78,96.82-177.49.69-71.44,38.34-116.32,81-263.84C628,2710,620,2725,640.71,2758.4c15.69,25.27,29.37,112.82,62.6,130.91,6.91,20.75-25.36,42.64,2.3,62.24,16.9,12,21.14,24.91,10.38,48.4,77.22-43.79,110.64,56.48,224.74-51.86-4.61-42.64-42.4-127.09-38.3-164.33,6.81-61.88-37.32-52.93-47.25-100.27C819,2510.94,753.4,2379.65,739.44,2293.93c23-53,34.62-137.39,68-219,31.12-76.07,42.65-149.83,71-237.25,34.53-106.32,54.24-199.11,19.95-285.28l-523.8-1.88c4.61,21.9-11.61,60.2-3.32,99.12,19.79,93-.49,123.32,30.63,312.34,6.69,40.64-3.12,149.83,13,208.61C424.12,2204,428.77,2253.59,444.9,2298.54Z"/>
    <path class="backpack" d="M866.87,1097.43c1.14,3.43,0,410.62,0,410.62,47.78-8.14,90.44-21.5,120.17-48.07C987,1252,998.48,1097.43,866.87,1097.43Z"/>
    <g class="jacket">
        <path d="M367.1,1134.08c-21.45,26.23-32,65.34-42.24,80-11.72,16.83-49,36-50.32,74.58-.68,19.78-48.52,79.4-44.93,112.65,1.55,14.29-35.05,24.26-46.73,83.57,36.6,13.3,65.75,39.89,89.86,75.48,55.72-12.58,55.72-50.32,97.06-82.67Z"/>
        <path d="M832.74,652.69c69.92,21.29,141,24.52,117.89,89.7,20,9.72,28.93,23.09,30.63,40.34.87,8.78,21.38,1.16,16.62,37.12,15.72,12.94,32.2,64.8,49.06,85.62,28.3,34.93,20.53,82.61,30.15,99,28.14,48,23.59,88.4,40.85,119.83,12.53,22.82-7.83,45.8-1,122.88,4.09,46.28,22.12,116.7,0,136.18-14.38,12.65,8.38,59.48-4.31,92.6-23.27,60.74,9.43,88.68-14,110.9-16.83,16,1.25,38.15-28,71.06-36.43-16.41-75.92-22.11-118-18.6-24.83-51.64-5.81-63.83-14.08-80-11.69-22.89,12.24-82,3.83-100.5-11.51-25.32,2.77-61.13-3.07-89-8.46-40.36-5.37-87.68-5.37-139.08-33.49-37.37,26.83-31.81-13-51.4,1.89,34.83-8.9,88.9-2.49,110.72s-12.83,39.29-15.76,57.21v43c5.29,24.71,27.46,39.49,16,77.26-5.75,19.71,15.59,48.11-4.92,63.22-12,8.85-.83,22.17-10.75,33.91-34.76,19.19-67,10.14-107.64,14.7-120,13.46-203.34,13.56-262.41,5.61-58.31-7.85-120,1.12-157.21-14.59-18-43.16-6.75-82.31-20.86-142.55-17.35-74,8.3-143,3.29-193.1-5.22-52.16,6-112.25,3.74-131.38-7.45-63.2-4.29-153.49,14.07-206.09,23.67-71.55,10-118.93,27.17-178.35Z"/>
    </g>
    <g class="clothesDisplayLine">
        <path d="M517.1,854.83c-16,55.58-21,173.59-31.55,248.19-13.54,95.58-5.67,233.79-12.39,327.35-3.68,51.27-.12,113.67-.3,150.77"/>
        <path d="M531.24,1817c-44.78-30.12-37.92-76.35-52.52-93.39-27.42-32-.7-51.31-13.35-73.1-9.95-17.13-8.14-46.61,5.32-69.42"/>
    </g>
    <g class="clothesOverlapLine">
        <path d="M841.86,961.73c4.94,21,24.07,30.56,26.54,49.69,7.6,58.95,43.59,84.44,50.2,118.38,2.76,14.18-20.58,39.71,2.26,49.52,44.11.49,120-31.38,121.33-17.6,2.44,25.42-55.23,21-100.68,30.79"/>
        <path d="M739.44,2293.93c-54.32,109.85-81.83,266.61-124.08,387.25"/>
        <path d="M444.9,2298.54c15.47-45.77,13.33-95.56,23.5-155.07,15.86-92.84,40.85-252.32,62.84-326.47"/>
        <path d="M269.06,3075.47c-16.93-22.46-42.33-39.91-65.92-40.39"/>
        <path d="M283.16,3067c-16.66-20.88-39.42-36-62.12-38.89"/>
        <path d="M298.33,3057.17c-14.36-19.89-45.57-35.2-64-35.81"/>
        <path d="M752.19,3075.7c-22.24-13.85-52.48-19.55-77-12.36"/>
        <path d="M765.53,3063.48c-20.35-14.25-50.66-21.5-78.06-13"/>
        <path d="M778.12,3049.49c-21.48-15.27-55-19.37-79.34-12.59"/>
        <path d="M787.86,3036.9c-20-17.18-54.87-20.29-79.7-12.91"/>
        <path d="M796.57,3024c-23.76-16.39-55.34-21.55-80.33-12.56"/>
        <path d="M229.38,3094.43c-10.49-22.61-43.56-47.22-72.43-49"/>
        <path d="M250.47,3085.38c-12.19-23-41.28-43-70-44.11"/>
    </g>
    <g class="clothesFoldLine">
        <path d="M404.21,1689.87c26,33.74,39.36,82.25,80.14,103.34"/>
        <path d="M630.56,1618.87c-39.62,28.92-72.19,60.9-87.16,100.53"/>
        <path d="M538.47,1750.33c23.2-51.32,64-80.14,77.33-66.08,14.38,15.13-71,51.31-84.56,132.75"/>
        <path d="M321.59,2958.29c-25.22-44.34.27-55.07,35.65-21.74,45.21,42.61,93.09,74.59,54.78,102.61"/>
        <path d="M508.53,2874c-46.08,10.43-60.09,43.39-102.6,38.26-51.55-6.23-69.14-17.94-46.08-43.48"/>
        <path d="M710.8,2689.07c61.67,75,123.79,128.31,159,80"/>
        <path d="M722.55,2833.1c10.44,79.12,89.56,41.73,95.65,120.86"/>
        <path d="M703.31,2889.31c47.94,34.22,81.56,27.35,86.2,42,4.7,14.91-16.53,16.52-45.22,8.7"/>
        <path d="M443.33,1080.55c-12.37,14.55-29.26,23.6-49.77,30.11"/>
        <path d="M434.13,1115.45c-13.27,8.38-31.76,24.83-35.25,43"/>
        <path d="M545.59,1235.3c28.3,30.93,62.93,51.07,104.1,60.08"/>
        <path d="M546.29,1274.42c20.37,13.89,33,41.54,36.33,63.3"/>
        <path d="M326.91,1273.72c-11.47,6.38-22.88,8.4-34.23,5.59"/>
        <path d="M279.41,1352.39c14,16.77-22.36,45.41,33.53,62.18"/>
        <path d="M294.08,1434.13c-31.61-3.86-7,37.73-.7,69.87"/>
        <path d="M206.75,1457.89c37-40.53,44,2.79,61.48,41.22"/>
        <path d="M387,1496.31c31.44,28.65,77.6,46.72,37,60.09"/>
        <path d="M576.33,1525c3.13,15.69-1.83,28.77-17.46,38.42"/>
        <path d="M595.2,1523.56c5.17,47.68,20.15,59.42,51.7,10.48"/>
        <path d="M657.38,1533.34c-5.31,14.05-5.68,25.92,3.49,33.54"/>
        <path d="M824.35,1476.75c-33.53,18.16-59.46,61.89-85.23,67.77"/>
        <path d="M893.52,1462.78c-69.86,25.85-90.82,48.2-.7,41.92"/>
        <path d="M913.65,1530.73c-18,8.2-41.79-12.76-82.31,22.87"/>
        <path d="M882.83,1245.62c-9,31.58-26.94,70.79-56.28,96.55"/>
        <path d="M883.6,1281.86c48.34-13.3-49.34,69.56-44,80.35"/>
        <path d="M880.51,1398.45c-4.51-15.78-5.1-33-3.85-50.88"/>
        <path d="M824.23,1045.52c-20.2-36,4.71-29.55,37.78-15.42"/>
        <path d="M774.89,898.68c30.87,12.36,53.48,42.75,59.37,78.82"/>
        <path d="M829.63,892.51c-21.59-95.6-45.49-42.4-6.94,14.65"/>
        <path d="M836.57,794.6c3.8,83.23,12.09,129.44,36.23,44.72"/>
        <path d="M950.63,742.39c-20,25.23-25.6,45.73,17,48.36"/>
        <path d="M971.49,814.65C946,820.81,912,818.68,902.1,847"/>
        <path d="M877.43,888.66c-15.42,26.21-34.68,55.65-35.57,73.07"/>
        <path d="M981.51,920.09c14.57,15.07,30.38,33.73,47.8,33.51"/>
        <path d="M1033.16,986.75c-20.15.46-40.74,28.63-61.67,60.31"/>
        <path d="M987.45,1119c-81.13,58.41,29.81,8.56,71.61,27.62"/>
        <path d="M1086.17,1167.59c-22.48,29.32-117.29,28.34-40.56,48.87"/>
        <path d="M945.91,1221.84c48.38,1.46,93.53,1.26,110.94,20.52"/>
        <path d="M1012.87,1250.67c-13.2,5.38-56.7,9.29-65.49-6.35"/>
        <path d="M1099.86,1369.86c-29.87,17.84-50.82,1.45-66-37.15"/>
        <path d="M1087.15,1408c-34.1,17.48-65.72,37.4-69.4,84.54"/>
        <path d="M1086.17,1509.63c-12.26,24.55-65,29.81-17.59,65"/>
        <path d="M971.81,1587.34c32.75-5.38,37.15-32.26,79.18,9.77"/>
    </g>
    <path class="backpackAdjusterLight" d="M902.61,1347.25c-30.16-41.4-66.87-120-84.73-166.18a44.48,44.48,0,0,1-23.37,14c21.29,50.72,60.27,136.15,108.1,195.17C908.26,1387.89,908.26,1353.9,902.61,1347.25Z"/>
    <g class="backpackStrap">
        <path d="M875.6,664c-110.33,21.42-144.26,235.79-84.16,367.33,22.8,49.9,1,90.62,29.43,145-3.92,9-19.45,19.27-31.47,19.27-37.55-71.2-60.48-63-82.65-117.46-65.15-160.07-51.42-360.71,79.87-441.83C810.1,619.27,882.68,642.75,875.6,664Z"/>
        <path d="M572.74,621.75C489.19,601.15,369,804.86,375.88,897.24,414.8,802.58,490.33,683.55,572.74,621.75Z"/>
    </g>
    <g class="jacketInner">
        <path d="M750.06,1231.46l-12.29,6.88c35.4,53.1,53.1,131.16,90,196.9l12.78-5.75C804.64,1366.06,779.47,1272.07,750.06,1231.46Z"/>
        <path d="M517.1,854.83c14.79-110.24-76.63-138.47-145.19-94.11,5.38-43,69.49-82.27,101.53-115.61C622,490.5,912.35,529.49,834.38,747.28,729.52,694.85,545.34,729.8,517.1,854.83Z"/>
    </g>
    <path class="shirtWhite" d="M517.1,854.83c21.51-93.6-16.2-107.6,6.43-161.47,35.16,20.46,76.58,15.65,120.67,0C584.94,734.3,528.91,787.09,517.1,854.83Z"/>
    <g class="eye">
        <rect class="sclera" x="412.47" y="268.72" width="227.65" height="72.27"/>
        <g class="irisGreen">
            <ellipse cx="547.15" cy="305.99" rx="23.85" ry="16.35" transform="translate(88.84 733.71) rotate(-72.24)"/>
            <ellipse cx="429.24" cy="298.34" rx="23.85" ry="12.5" transform="translate(14.17 616.11) rotate(-72.24)"/>
        </g>
        <g class="pupil">
            <ellipse cx="543.65" cy="304.86" rx="9.27" ry="6.36" transform="translate(87.47 729.59) rotate(-72.24)"/>
            <ellipse cx="425.55" cy="297.16" rx="9.28" ry="4.86" transform="translate(12.73 611.77) rotate(-72.24)"/>
        </g>
    </g>
    <g class="skinGallic">
        <path d="M960.11,1638.79c-15.89,52.67-41.81,51.07-62.3,148.39-5.68,30.85-.61,53.37-5.48,76.1-6.81,31.76,37.39,19.17,44.71-27.66-4.07,24.24,4.78,35.11-1.46,45.37-10.7,20.06-10.5,32.52-18.35,37.79-17.74,11.91-26,34.56-12.3,45.75,17.46,10.56,27.2-13.38,45-22.3,29.23,7.31,46.68-6.09,58.45-32.47,19.89,4.06,35.72-6.9,42.93-27.16,20-2,30.39-8.16,36.92-36.51,4.79-20.78,9.52-34.14,9.9-52.31,1.37-65.21-25-102.25-30-136.94C1034.62,1642.22,998.49,1636.59,960.11,1638.79Z"/>
        <path d="M763.74,590.47c-13.21-35.15-10.67-100.24,13.67-118.79L465.52,516.9c78.84,31.3,67.25,136.82,58,176.46,35.16,20.46,76.58,15.65,120.67,0C708.24,654.51,783.49,639.34,763.74,590.47Z"/>
        <path d="M192.21,1488.61c-47.61,56.8-111.72,62-157,151-8.09,15.9-26.73,85.47-18.7,100,8.65,15.72,10,28.07,25.64,37.91,8,5,21.16,31.23,46.65,13.29,19.36,11.33,47.06,5.59,45.64-7.62,19.88,10.47,37.44-5.12,29.42-19.28,25.08,5.76,37.76-32.1,8-34.93a32,32,0,0,0,8.58-17c26.9-4.72,30.93-29.47,45.71-48.15,31-39.18,20.2-78.18,42-110.08C247.11,1524.47,222.28,1501.86,192.21,1488.61Z"/>
        <path d="M793.87,484.84c-12.72,11.75-34.29,7.42-41-3.23-16.61,40.82-32.21,78.24-77.71,94.53-55.92,20-112.06,23.64-161.63,24.05-32.46.27-54.64,8-89.06-7.8-29.08-13.39-18.59-44.48-28.58-77.07-16.61-54.19-11.79-133,12.86-194.69,9.52-23.81-17.25-30.23,1.06-77.6,13.34-34.51,16.13-75.18,41.84-100.9C696.19-102.09,1091.46,340.38,793.87,484.84ZM524.22,322.06c20.07,13.93,58,14.22,72.33.43-11.95-10.54-32.5-24-45.4-24.53-12.09-.51-23.59,8-31.61,19.41C516,322.38,522.14,320.61,524.22,322.06Zm-67-12.66c-10.37-11.82-16.63-18.1-27.1-18.71-9.24-.54-11.27,7.68-14.93,12.47-1.95,20.11,19.19,19.29,37.34,11.19C454.78,313.34,461.74,314.56,457.2,309.4Z"/>
    </g>
    <g class="skinOverlapLine">
        <path d="M1063.17,1826.75c-.84,15.36-5.41,39.84-11.83,55.85"/>
        <path d="M1029.71,1832.33c-5.69,35.27-5.69,50.52-21.3,77.43"/>
        <path d="M989.32,1837.33c-8,42.67,3.41,51.21-39.36,104.9"/>
        <path d="M929.57,1769.62c-1.14,29.59,8,37.55,7.47,66"/>
        <path d="M214.47,1572.74c-21,86.7-64.16,80.44-99.12,103.28-17.71,11.19-31.88,59.41-66.75,43-12.44-5.85,6.91-25.72,11.65-39.88,11.73-35,44.2-72.84,44.2-72.84"/>
        <path d="M88.81,1790.85c7-14-1.68-28-13.66-35.74-11.2-7.07-10-23.09-9.3-33"/>
        <path d="M163.87,1764c-6.38-9.91-16.47-15.91-29.12-19.2-2.74-26,5.67-18.93,15.81-41.32"/>
        <path d="M134.45,1783.23c.79-12.14-15.29-25.65-33.71-28.36,2.07-14.45-1.83-28,.46-33,1.9-4.19,13.77-14,21.7-27.8"/>
        <path d="M171.89,1729c-7.11-.44-13.8,1-19.71,6"/>
        <path d="M134.75,1744.75a18.35,18.35,0,0,0-14.38,5.4"/>
        <path d="M47.82,1753.13c8.45-4.47,18.66-3.65,27.33,2"/>
        <path d="M100.74,1754.87c-4.65-.37-8.61.79-11.68,4"/>
    </g>
    <g class="skinFoldLine">
        <path d="M66.28,1664.34a34.39,34.39,0,0,1-12.07-3.57"/>
        <path d="M157.63,1706.63a94.92,94.92,0,0,0-11.48-4.88"/>
        <path d="M133.94,1696.13c-7.75-.18-14.17-2.26-18.32-7.57"/>
        <path d="M785.08,395.38C815.76,333.15,879.57,380,819.31,444"/>
        <path d="M785.69,410.14c11.81,9.48-5,22-8.44,28.55-6.46,12.28,6.28,18.33,10.84,6.78,2.32-5.88,6.28-14.75,15.71-16.67,19.83-4.05,27.56-37.34,4.64-34.88"/>
    </g>
    <path class="skinCreaseLine" d="M190,1670c-11.42-7.84-23.64-12.2-36.83-12.23"/>
    <g class="head53">
        <path class="lipMaleLight__noStroke" d="M422.76,456.3c7.59,4.45,22.09,4.9,33.43,1.43,21.46,5.42,36.66,20.93,62.56,31.47-18.81,3.24-50.55,17.24-77.45,13.93-28.94-3.56-27.21-16.67-29.18-22.47C415.86,470.72,416.86,461.77,422.76,456.3Z"/>
        <path class="lipBorderLine" d="M518.75,489.2c-26-6.6-48.65-15.34-71.15-13.61-14.71,1.14-21.31-5.39-35.48,5.07"/>
        <g class="lipEdgeLine">
            <path d="M456.19,457.73c-11.34,3.47-25.84,3-33.43-1.43"/>
            <path d="M482.4,498.09c-22.61,8.39-56,7.86-66.89-7.3"/>
        </g>
        <path class="cheekLine" d="M513.87,480.3a37.21,37.21,0,0,0,8,12.53"/>
        <g class="noseLine">
            <path d="M500.72,395.05c7.13,8.65,6.53,24.94-6,32.68"/>
            <path d="M477,422.81c-11.77-6.95-23.61-9.92-35.52-7.77"/>
            <path d="M450.2,340.79c-37.87,37.58-73.83,66.89-2.08,85.37"/>
        </g>
        <g class="eyeFoldLine">
            <path d="M573.41,341.78c-13.47,5.79-35.17,3.4-46.34-4.67"/>
            <path d="M414.55,327.38c6.55,7.14,17.81,7.78,28.51,3.42"/>
        </g>
        <path class="eyeCornerLine" d="M603.81,328.23a36,36,0,0,1-7.26-5.74"/>
        <g class="eyeCreaseLine">
            <path d="M522.47,301.15c31.09-28.08,52.14,1,77.93,10.91"/>
            <path d="M412.32,293.48c14.54-13.59,34.11-10.12,45.33,5.36"/>
        </g>
        <g class="eyebrowSandy">
            <path d="M509.39,243.94c-8.45,28.8,57.42,21,75.56,28.37,12.15,4.94,23,14.75,36.65,25.1,2.87,2.52,13.06-4.54,10.19-7.06C590.33,234,563.39,257.21,509.39,243.94Z"/>
            <path d="M455,240.82c-15.23,2.46-30.93,2-45.53,3.21a103.86,103.86,0,0,0-4.87,16.56C425.07,258.52,458.37,259,455,240.82Z"/>
        </g>
        <path class="ashedCross" d="M529.63,187.38c-6.74-1.26-20.29-2.74-30.15-2.15a83.89,83.89,0,0,1,4.14-11.17c7-14.73-15.66-11.67-19.7-1.89a55.42,55.42,0,0,0-4.21,13.63,62.27,62.27,0,0,0-14.19,3.26c-9.56,3.25-11.63,25.54.61,21.45a75.6,75.6,0,0,1,11-3.16c-3.78,19.29-2.81,41.35,2,41.64,6.54.4,5.12-13,14.26-43.5,18-2.88,30.31,2.79,25.77-5.83C518.21,197,538.54,189.05,529.63,187.38Z"/>
        <path class="hairSandy" d="M723.12,355.91a349.11,349.11,0,0,0,55.71,16.48c38.31-58.22,114-1.28,63.37,65.74-24.63,32.56-29.34,27.19-48.33,46.71,119.88-8.33,164.24-217.91,110.85-335.62,7.84-2.09,14.29,2,19.91,9.79.5-28.92-12.68-44.87-39.14-48.24,2.93-15.79,0-30.72-8.66-45.15,1.27,9.26.16,17.6-3.27,23.75-5.63-18-16.46-31.16-33.9-38.17,2.57,5.75,4.19,11.25,4.08,16.3-30.35-32.55-74.1-46-128.31-57.23C663.86-.39,606.27-3.35,554.71,9.41c9.41,2,18,4.56,23.86,8.75-48.88,1.48-85,26-109.41,39.71,12.76-1.15,22.06-4.76,31.61-4.37C467.43,69.3,435.22,86.76,421.18,131c5.35-2.65,12.41-10.54,22.18-12.46a70,70,0,0,0-21.54,33.62c10-4.58,19.51-8.52,29.81-10.07-6.58,9.44-9.12,19.11-5.36,29.16C467.1,136.84,489.37,149.48,530,130c-15.2,8-29.92,16.86-36,22.72,82.38-20.41,85.88,21.07,136.1-.42a44.29,44.29,0,0,1-21.33,16.62c25.39,3.54,51,.06,76.77-11.16C648.9,292.47,744.14,281.77,723.12,355.91Z"/>
    </g>
</svg>
