<svg viewBox="0 0 1115.18 3273">
  <g class="shoe">
    <path d="M942.77,3022.75a177.24,177.24,0,0,0-27-39.33l-197.55,43.19c-10.26,34.87-36.12,66.43-66.44,90.74-22.54,19.42-50.21,16.14-65.83,44.81l145.52,59C787.19,3250.11,966.42,3085.19,942.77,3022.75Z"/>
    <path d="M428.42,3207.68c5.95-22.42,6.69-50.94,1.83-79.59l-162.68-95.81c-24.61,19.67-57.5,45.17-152.85,50.22-39.07-2.67-84.72,4.73-96.8,38.35C116.36,3205.78,378.81,3299.21,428.42,3207.68Z"/>
  </g>
  <g class="soleWhite">
    <path d="M942.77,3022.75c10.45,14.12,18.06,30.38,18.81,49.24,1.7,43.13-46.13,80.1-99,107.87-24.49,12.86-43.13,30.62-60.3,43.15-35.71,26.07-69.45,29.59-99,30-47,.64-106.7-18.53-118.79-38-10.44-16.81-9.08-41.24,1.44-52.86,43.15-8.85,108.73,9,146.35,46.65,34.29-1.5,72.87-16.89,114.76-47.2C903.8,3120.55,946.43,3071.85,942.77,3022.75Z"/>
    <path d="M428.42,3207.68c-3.95,22.65-14.65,45.48-30,57.68-12.18,9.67-60.52,9.67-96.66-6-31.9-13.83-67.69-18.71-92.38-20.72-25.1-2-154.83-20.11-194.71-50.19-15.71-11.85-12.31-53.09,3.24-67.6,42.83-7.29,82.87,5,121.84,43.71,25,24.91,53.46,36,84.14,45.31,30.44,9.27,62.84,17.67,95.34,25.47,23.35,5.61,39.22,4.61,59-1.45C395.84,3228.47,411.38,3220.83,428.42,3207.68Z"/>
  </g>
  <g class="shoelace">
    <path d="M788.29,3064.5c-23.76-16.39-55.35-21.55-80.33-12.56-15.42,25.42-34.21,47.44-56.18,65.41,17.7-4.43,55.87-.47,75.79,10,21.24-11.55,44.25-36.71,60.72-62.89Z"/>
    <path d="M207.16,3132.72c26.29-2.71,60.35-20.52,94.61-43.55h0c-14.35-19.89-45.56-35.2-64-35.81h0c-40.35,23-88.37,25.67-123.06,29.14C153.73,3084.32,179.52,3102.67,207.16,3132.72Z"/>
  </g>
  <path class="pants" d="M438.35,2330.54c-20.74,76.07-17.9,183.06-49.24,258.17-32.73,78.43-32.8,166.49-65.07,220.66-22.2,37.26,8.67,87.09-13.27,106.56C262,2959.25,324.61,2974.71,237,3045c69.15-17.29,129.09,89.9,204,109.49,20.75-153.29,95.66-58.78,96.81-177.49.7-71.44,28.34-116.32,71-263.84,12.67,28.81,4.61,43.8,25.35,77.22,15.69,25.27,27.64,121.33,60.87,139.42,6.91,20.74-25.36,42.64,2.3,62.24,16.9,12,21.14,24.91,10.37,48.4,77.22-43.79,110.65,56.48,224.75-51.86-4.61-42.65-42.4-127.09-38.3-164.34,6.81-61.87-37.32-52.92-47.25-100.27-36.19-172.55-100-312.34-114-398.06,23-53,34.63-146.39,68-228,31.12-76.07,35.65-163.83,64-251.25,34.52-106.32,54.24-199.11,20-285.28l-523.8-1.88c4.61,21.9-11.61,60.2-3.33,99.12,19.8,93-.49,123.32,30.63,312.34,6.69,40.64,3.89,172.83,20,231.61C417.56,2236,422.22,2285.59,438.35,2330.54Z"/>
  <path class="backpack" d="M853.32,1106.43c1.14,3.43,0,410.62,0,410.62,47.78-8.14,90.44-21.5,120.17-48.07C973.49,1261,984.93,1106.43,853.32,1106.43Z"/>
  <g class="jacket">
    <path d="M353.55,1143.08c-21.45,26.23-32,65.34-42.24,80-11.72,16.83-49,36-50.32,74.58-.68,19.78-48.53,79.4-44.93,112.65,1.54,14.29-35.05,24.26-46.73,83.57,36.6,13.3,65.75,39.89,89.86,75.48,55.72-12.58,55.72-50.32,97.05-82.67Z"/>
    <path d="M819.19,661.69c69.92,21.29,141,24.52,117.89,89.7,20,9.72,28.93,23.09,30.63,40.34.87,8.78,21.38,1.16,16.62,37.12,15.72,12.94,32.2,64.8,49.06,85.62,28.3,34.93,20.53,82.61,30.15,99,28.13,48,23.59,88.4,40.85,119.83,12.53,22.82-7.83,45.8-1,122.88,4.09,46.28,22.12,116.7,0,136.18-14.38,12.65,8.37,59.48-4.31,92.6-23.27,60.74,9.43,88.68-14,110.9-16.84,16,1.24,38.15-28,71.06-36.43-16.41-75.92-22.11-118-18.6-24.83-51.64-5.82-63.83-14.09-80-11.68-22.89,12.24-82,3.84-100.5-11.51-25.32,2.77-61.13-3.07-89-8.46-40.36-5.37-87.68-5.37-139.08-33.5-37.37,26.83-31.81-13-51.4,1.89,34.83-8.9,88.9-2.49,110.72s-12.83,39.29-15.76,57.21v43c5.29,24.71,27.45,39.49,16,77.26-5.75,19.71,15.59,48.11-4.93,63.22-12,8.85-.82,22.17-10.74,33.91-34.76,19.19-67,10.14-107.65,14.7-120,13.46-203.33,13.56-262.4,5.61-58.31-7.85-120,1.12-157.21-14.59-18-43.16-6.75-82.31-20.86-142.55-17.35-74,8.3-143,3.28-193.1-5.22-52.16,6-112.25,3.75-131.38-7.45-63.2-4.29-153.49,14.07-206.09,23.67-71.55,10-118.93,27.16-178.35Z"/>
  </g>
  <g class="clothesDisplayLine">
    <path d="M503.55,863.83c-15.95,55.58-21,173.59-31.55,248.19-13.54,95.58-5.68,233.79-12.39,327.35-3.68,51.27-.13,113.67-.3,150.77"/>
    <path d="M517.69,1826c-44.79-30.12-37.92-76.35-52.52-93.39-27.42-32-.7-51.31-13.36-73.1-9.94-17.13-8.13-46.61,5.33-69.42"/>
  </g>
  <g class="clothesOverlapLine">
    <path d="M828.31,970.73c4.94,21,24.07,30.56,26.54,49.69,7.6,58.95,43.59,84.44,50.2,118.38,2.76,14.18-20.58,39.71,2.26,49.52,44.11.49,120-31.38,121.33-17.6,2.44,25.42-55.23,21-100.68,30.79"/>
    <path d="M732.88,2325.93c-54.31,109.85-81.82,266.61-124.07,387.25"/>
    <path d="M438.35,2330.54c15.47-45.77,13.32-95.56,23.49-155.07,15.87-92.84,33.86-275.32,55.85-349.47"/>
    <path d="M272.51,3107.47c-16.93-22.46-42.33-39.91-65.92-40.39"/>
    <path d="M286.61,3099c-16.66-20.88-39.42-36-62.12-38.89"/>
    <path d="M301.77,3089.17c-14.35-19.89-45.56-35.2-64-35.81"/>
    <path d="M743.91,3116.21c-22.24-13.85-52.48-19.55-77-12.37"/>
    <path d="M757.24,3104c-20.34-14.25-50.66-21.5-78-13"/>
    <path d="M769.84,3090c-21.48-15.27-55-19.38-79.34-12.59"/>
    <path d="M779.58,3077.41c-20-17.18-54.87-20.3-79.7-12.91"/>
    <path d="M788.29,3064.5c-23.76-16.39-55.35-21.55-80.33-12.56"/>
    <path d="M232.83,3126.43c-10.49-22.61-43.56-47.22-72.43-49"/>
    <path d="M253.91,3117.38c-12.18-23-41.27-43-70-44.11"/>
  </g>
  <g class="clothesFoldLine">
    <path d="M390.66,1698.87c26,33.74,39.36,82.25,80.13,103.34"/>
    <path d="M617,1627.87c-39.62,28.92-72.2,60.9-87.17,100.53"/>
    <path d="M524.92,1759.33c23.2-51.32,64-80.14,77.33-66.08,14.38,15.13-71,51.31-84.56,132.75"/>
    <path d="M325,2990.29c-25.21-44.34.28-55.07,35.65-21.74,45.22,42.61,93.1,74.59,54.78,102.61"/>
    <path d="M512,2906c-46.08,10.43-60.09,43.39-102.6,38.26-51.55-6.23-69.14-17.94-46.09-43.48"/>
    <path d="M702.51,2729.58c61.68,75,123.8,128.3,159,80"/>
    <path d="M714.27,2873.6c10.43,79.13,89.56,41.74,95.65,120.87"/>
    <path d="M695,2929.82c47.93,34.21,81.56,27.35,86.19,42,4.7,14.91-16.52,16.52-45.21,8.69"/>
    <path d="M429.77,1089.55c-12.37,14.55-29.25,23.6-49.76,30.11"/>
    <path d="M420.58,1124.45c-13.28,8.38-31.76,24.83-35.26,43"/>
    <path d="M532,1244.3c28.3,30.93,62.93,51.07,104.1,60.08"/>
    <path d="M532.74,1283.42c20.37,13.89,33,41.54,36.33,63.3"/>
    <path d="M313.36,1282.72c-11.47,6.38-22.89,8.4-34.23,5.59"/>
    <path d="M265.85,1361.39c14,16.77-22.35,45.41,33.54,62.18"/>
    <path d="M280.53,1443.13c-31.61-3.86-7,37.73-.7,69.87"/>
    <path d="M193.19,1466.89c37-40.53,44,2.79,61.49,41.22"/>
    <path d="M373.45,1505.31c31.44,28.65,77.6,46.72,37,60.09"/>
    <path d="M562.78,1534c3.13,15.69-1.83,28.77-17.47,38.42"/>
    <path d="M581.64,1532.56c5.17,47.68,20.16,59.42,51.7,10.48"/>
    <path d="M643.82,1542.34c-5.3,14.05-5.67,25.92,3.5,33.54"/>
    <path d="M810.8,1485.75c-33.53,18.16-59.47,61.89-85.23,67.77"/>
    <path d="M880,1471.78c-69.87,25.85-90.83,48.2-.7,41.92"/>
    <path d="M900.09,1539.73c-18,8.2-41.78-12.76-82.3,22.87"/>
    <path d="M869.27,1254.62c-9,31.58-26.93,70.79-56.28,96.55"/>
    <path d="M870.05,1290.86c48.34-13.3-49.35,69.56-43.95,80.35"/>
    <path d="M867,1407.45c-4.51-15.78-5.1-33-3.85-50.88"/>
    <path d="M810.68,1054.52c-20.2-36,4.71-29.55,37.78-15.42"/>
    <path d="M761.34,907.68c30.87,12.36,53.48,42.75,59.36,78.82"/>
    <path d="M816.08,901.51c-21.59-95.6-45.49-42.4-6.94,14.65"/>
    <path d="M823,803.6c3.8,83.23,12.09,129.44,36.23,44.72"/>
    <path d="M937.08,751.39c-20,25.23-25.6,45.73,17,48.36"/>
    <path d="M957.93,823.65c-25.44,6.16-59.46,4-69.38,32.38"/>
    <path d="M863.88,897.66c-15.42,26.21-34.68,55.65-35.57,73.07"/>
    <path d="M968,929.09c14.57,15.07,30.38,33.73,47.8,33.51"/>
    <path d="M1019.61,995.75c-20.15.46-40.74,28.63-61.68,60.31"/>
    <path d="M973.9,1128c-81.13,58.41,29.81,8.56,71.61,27.62"/>
    <path d="M1072.62,1176.59c-22.48,29.32-117.29,28.34-40.56,48.87"/>
    <path d="M932.36,1230.84c48.38,1.46,93.53,1.26,110.94,20.52"/>
    <path d="M999.31,1259.67c-13.19,5.38-56.69,9.29-65.48-6.35"/>
    <path d="M1086.31,1378.86c-29.88,17.84-50.82,1.45-66-37.15"/>
    <path d="M1073.6,1417c-34.1,17.48-65.72,37.4-69.4,84.54"/>
    <path d="M1072.62,1518.63c-12.27,24.55-65,29.81-17.59,65"/>
    <path d="M958.26,1596.34c32.75-5.38,37.14-32.26,79.17,9.77"/>
  </g>
  <path class="backpackAdjusterLight" d="M889.06,1356.25c-30.16-41.4-66.87-120-84.73-166.18a44.48,44.48,0,0,1-23.37,14c21.29,50.72,60.27,136.15,108.1,195.17C894.71,1396.89,894.71,1362.9,889.06,1356.25Z"/>
  <g class="backpackStrap">
    <path d="M862.05,673c-110.33,21.42-144.26,235.79-84.16,367.33,22.8,49.9,1,90.62,29.43,145-3.92,9-19.45,19.27-31.47,19.27-37.55-71.2-60.49-63-82.65-117.46-65.15-160.07-51.42-360.71,79.86-441.83C796.55,628.27,869.13,651.75,862.05,673Z"/>
    <path d="M559.18,630.75c-83.54-20.6-203.72,183.11-196.85,275.49C401.24,811.58,476.78,692.55,559.18,630.75Z"/>
  </g>
  <g class="jacketInner">
    <path d="M736.51,1240.46l-12.3,6.88c35.41,53.1,53.11,131.16,90,196.9l12.78-5.75C791.09,1375.06,765.92,1281.07,736.51,1240.46Z"/>
    <path d="M503.55,863.83c14.79-110.24-76.63-138.47-145.19-94.11,5.38-43,69.49-82.27,101.52-115.61C608.41,499.5,898.8,538.49,820.82,756.28,716,703.85,531.78,738.8,503.55,863.83Z"/>
  </g>
  <path class="shirtWhite" d="M503.55,863.83c21.51-93.6-16.2-107.6,6.42-161.47,35.17,20.46,76.58,15.65,120.68,0C571.39,743.3,515.36,796.09,503.55,863.83Z"/>
  <g class="eye">
    <rect class="sclera" x="398.92" y="268.72" width="227.65" height="72.27"/>
    <g class="irisGreen">
      <ellipse cx="533.6" cy="305.99" rx="23.85" ry="16.35" transform="translate(79.42 720.81) rotate(-72.24)"/>
      <ellipse cx="415.69" cy="298.34" rx="23.85" ry="12.5" transform="translate(4.76 603.2) rotate(-72.24)"/>
    </g>
    <g class="pupil">
      <ellipse cx="530.1" cy="304.86" rx="9.27" ry="6.36" transform="translate(78.05 716.69) rotate(-72.24)"/>
      <ellipse cx="412" cy="297.16" rx="9.28" ry="4.86" transform="translate(3.32 598.87) rotate(-72.24)"/>
    </g>
  </g>
  <g class="skinGallic">
    <path d="M946.56,1647.79c-15.89,52.67-41.81,51.07-62.3,148.39-5.68,30.85-.61,53.37-5.49,76.1-6.8,31.76,37.4,19.17,44.72-27.66-4.07,24.24,4.78,35.11-1.46,45.37-10.71,20.06-10.5,32.52-18.35,37.79-17.74,11.91-26,34.56-12.3,45.75,17.46,10.56,27.2-13.38,45-22.3,29.23,7.31,46.68-6.09,58.45-32.47,19.89,4.06,35.72-6.9,42.92-27.16,20-2,30.4-8.16,36.93-36.51,4.79-20.78,9.51-34.14,9.9-52.31,1.36-65.21-25-102.25-30-136.94C1021.07,1651.22,984.94,1645.59,946.56,1647.79Z"/>
    <path d="M750.18,599.47c-13.2-35.15-10.67-100.24,13.68-118.79C720.72,437.54,577.37,499.07,452,525.9c78.84,31.3,67.24,136.82,58,176.46,35.17,20.46,76.58,15.65,120.68,0C694.68,663.51,769.94,648.34,750.18,599.47Z"/>
    <path d="M178.66,1497.61c-47.61,56.8-111.73,62-157,151-8.09,15.9-26.73,85.47-18.71,100,8.66,15.72,10,28.07,25.65,37.91,8,5,21.16,31.23,46.65,13.29,19.36,11.33,47.05,5.59,45.64-7.62,19.88,10.47,37.44-5.12,29.42-19.28,25.07,5.76,37.76-32.1,8-34.93a32,32,0,0,0,8.57-17c26.91-4.72,30.94-29.47,45.72-48.15,31-39.18,20.2-78.18,42-110.08C233.56,1533.47,208.73,1510.86,178.66,1497.61Z"/>
    <path d="M661.59,576.14c-55.93,20-112.06,23.64-161.64,24.05-32.45.27-54.64,8-89.05-7.8-29.08-13.39-18.59-44.48-28.58-77.07-16.62-54.19-11.79-133,12.86-194.69,9.52-23.81-17.25-30.23,1.06-77.6,13.34-34.51,16.13-75.18,41.84-100.9,244.55-244.22,639.83,198.25,342.24,342.71-12.72,11.75-34.29,7.42-41-3.23M510.67,322.06c20.06,13.93,58,14.22,72.33.43-12-10.54-32.5-24-45.4-24.53-12.1-.51-23.59,8-31.61,19.41C502.48,322.38,508.59,320.61,510.67,322.06Zm-67-12.66c-10.37-11.82-16.63-18.1-27.1-18.71-9.24-.54-11.27,7.68-14.93,12.47-1.95,20.11,19.19,19.29,37.34,11.19C441.23,313.34,448.19,314.56,443.65,309.4Z"/>
  </g>
  <g class="skinOverlapLine">
    <path d="M1049.61,1835.75c-.83,15.36-5.4,39.84-11.83,55.85"/>
    <path d="M1016.16,1841.33c-5.69,35.27-5.69,50.52-21.3,77.43"/>
    <path d="M975.76,1846.33c-8,42.67,3.42,51.21-39.35,104.9"/>
    <path d="M916,1778.62c-1.14,29.59,8,37.55,7.47,66"/>
    <path d="M200.91,1581.74c-21,86.7-64.15,80.44-99.11,103.28-17.72,11.19-31.88,59.41-66.75,43-12.44-5.85,6.9-25.72,11.65-39.88,11.72-35,44.2-72.84,44.2-72.84"/>
    <path d="M75.26,1799.85c7-14-1.69-28-13.66-35.74-11.2-7.07-10-23.09-9.3-33"/>
    <path d="M150.32,1773c-6.38-9.91-16.47-15.91-29.12-19.2-2.74-26,5.67-18.93,15.81-41.32"/>
    <path d="M120.9,1792.23c.79-12.14-15.29-25.65-33.71-28.36,2.07-14.45-1.83-28,.46-33,1.9-4.19,13.77-14,21.7-27.8"/>
    <path d="M158.34,1738c-7.11-.44-13.8,1-19.71,6"/>
    <path d="M121.2,1753.75a18.35,18.35,0,0,0-14.38,5.4"/>
    <path d="M34.26,1762.13c8.45-4.47,18.67-3.65,27.34,2"/>
    <path d="M87.19,1763.87c-4.65-.37-8.62.79-11.68,4"/>
  </g>
  <g class="skinFoldLine">
    <path d="M52.73,1673.34a34.39,34.39,0,0,1-12.07-3.57"/>
    <path d="M144.08,1715.63a94.92,94.92,0,0,0-11.48-4.88"/>
    <path d="M120.39,1705.13c-7.75-.18-14.17-2.26-18.32-7.57"/>
    <path d="M771.53,395.38C802.2,333.15,866,380,805.76,444"/>
    <path d="M772.14,410.14c11.81,9.48-5,22-8.45,28.55C757.24,451,770,457,774.54,445.47c2.32-5.88,6.28-14.75,15.71-16.67,19.83-4.05,27.55-37.34,4.64-34.88"/>
  </g>
  <path class="skinCreaseLine" d="M176.41,1679c-11.43-7.84-23.64-12.2-36.83-12.23"/>
  <path class="lipMaleLight__noStroke" d="M409.21,456.3c7.59,4.45,22.09,4.9,33.43,1.43,21.46,5.42,36.66,20.93,62.56,31.47-18.81,3.24-50.55,17.24-77.45,13.93-28.94-3.56-27.22-16.67-29.19-22.47C402.31,470.72,403.31,461.77,409.21,456.3Z"/>
  <path class="lipBorderLine" d="M505.2,489.2c-26-6.6-48.65-15.34-71.16-13.61-14.71,1.14-21.3-5.39-35.48,5.07"/>
  <g class="lipEdgeLine">
    <path d="M442.64,457.73c-11.34,3.47-25.84,3-33.43-1.43"/>
    <path d="M468.85,498.09c-22.61,8.39-56,7.86-66.9-7.3"/>
  </g>
  <path class="cheekLine" d="M500.32,480.3a37.35,37.35,0,0,0,8,12.53"/>
  <g class="noseLine">
    <path d="M487.16,395.05c7.14,8.65,6.54,24.94-6,32.68"/>
    <path d="M463.47,422.81c-11.77-6.95-23.61-9.92-35.52-7.77"/>
    <path d="M436.65,340.79c-37.87,37.58-73.83,66.89-2.09,85.37"/>
  </g>
  <g class="eyeFoldLine">
    <path d="M559.86,341.78c-13.47,5.79-35.18,3.4-46.35-4.67"/>
    <path d="M401,327.38c6.56,7.14,17.82,7.78,28.52,3.42"/>
  </g>
  <path class="eyeCornerLine" d="M590.26,328.23a35.73,35.73,0,0,1-7.26-5.74"/>
  <g class="eyeCreaseLine">
    <path d="M508.92,301.15c31.09-28.08,52.14,1,77.93,10.91"/>
    <path d="M398.76,293.48c14.55-13.59,34.12-10.12,45.34,5.36"/>
  </g>
  <g class="eyebrowSandy">
    <path d="M495.83,243.94c-8.44,28.8,57.43,21,75.57,28.37,12.15,4.94,23,14.75,36.64,25.1,2.87,2.52,13.07-4.54,10.2-7.06C576.77,234,549.84,257.21,495.83,243.94Z"/>
    <path d="M441.4,240.82c-15.23,2.46-30.93,2-45.54,3.21A103.73,103.73,0,0,0,391,260.59C411.52,258.52,444.82,259,441.4,240.82Z"/>
  </g>
  <path class="ashedCross" d="M516.08,187.38c-6.74-1.26-20.29-2.74-30.15-2.15a82.52,82.52,0,0,1,4.14-11.17c6.95-14.73-15.66-11.67-19.7-1.89a55.42,55.42,0,0,0-4.21,13.63c-6.84,1-8.77,1.42-14.19,3.26-9.56,3.25-11.63,25.54.61,21.45a75.6,75.6,0,0,1,11-3.16c-3.79,19.29-2.82,41.35,2,41.64,6.54.4,5.12-13,14.26-43.5,18-2.88,30.3,2.79,25.77-5.83C504.66,197,525,189.05,516.08,187.38Z"/>
  <path class="hairSandy" d="M709.57,355.91a349.11,349.11,0,0,0,55.71,16.48c38.31-58.22,114-1.28,63.36,65.74-24.62,32.56-29.33,27.19-48.32,46.71,119.87-8.33,164.24-217.91,110.84-335.62,7.85-2.09,14.3,2,19.92,9.79.5-28.92-12.68-44.87-39.15-48.24,2.94-15.79.05-30.72-8.65-45.15,1.26,9.26.16,17.6-3.27,23.75-5.64-18-16.46-31.16-33.9-38.17,2.57,5.75,4.18,11.25,4.08,16.3-30.35-32.55-74.11-46-128.31-57.23C650.31-.39,592.71-3.35,541.16,9.41c9.41,2,18,4.56,23.85,8.75-48.87,1.48-85,26-109.41,39.71,12.77-1.15,22.07-4.76,31.62-4.37-33.34,15.8-65.55,33.26-79.6,77.54,5.36-2.65,12.42-10.54,22.19-12.46a70,70,0,0,0-21.54,33.62c10-4.58,19.5-8.52,29.81-10.07-6.59,9.44-9.12,19.11-5.37,29.16,20.84-34.45,43.11-21.81,83.72-41.28-15.2,8-29.92,16.86-36,22.72,82.39-20.41,85.88,21.07,136.11-.42a44.29,44.29,0,0,1-21.33,16.62c25.39,3.54,51,.06,76.76-11.16C635.35,292.47,730.59,281.77,709.57,355.91Z"/>
</svg>
