<svg viewBox="0 0 1039.6 3316.53">
    <g class="soleTan">
        <path d="M599.44,3260.49c.82,6.59-2,23.7-14.68,35.18-29.15,26.32-164.71,32.45-190.31-19.09-4.51-9.08-3.68-19.47-1.68-34.31Z"/>
        <path d="M431.14,2317.23c7.12-3.77,18.8,7.58,21.86,15.84,31.11,84.15-42.49,165.59-37.29,257.09C398.72,2491.94,402.34,2400.45,431.14,2317.23Z"/>
    </g>
    <g class="wadeShoe">
        <path d="M415.16,2298.57c44.66,29.89,45.48,92.69,12.12,183.62-23.86,65,5.34,136-22.37,202.26-31.34,74.94-139.81,59.65-167.77-1.87-23.43-51.54,14-124,14.91-190.14.81-55.75.93-136.08,12.12-187.34C308.13,2269.76,359.79,2274.49,415.16,2298.57Z"/>
        <path d="M578.14,3098c23.91,24.23,6.27,73.46,23.5,115.7,30.11,73.79-39,84.6-108.47,85-83.71.46-127.92-53.91-96.39-99.89,19.22-28,20.41-69.74,43.06-114.34C487.2,3073.24,533.18,3079.33,578.14,3098Z"/>
    </g>
    <path class="wadePants" d="M823.68,1614.88c24.56,45.74-5.92,70.62,3.2,167.85,12.11,129-66.51,308.76-76.57,445.77-8.37,114-47.11,125.78-44.27,182.87,6.05,121.34-29.89,187.87-32.41,293.56-1.94,81.68-32.68,183.57-35.2,240.09-1.76,39.6-12.29,71.63-30.83,94.25,0,29.84,12.14,54.62-15.68,81.43-27-19.06-45.17-24.62-72.75-25-23.81-8.4-53.06-1.13-73.49,10.62-12.58,1.2-18.43-4.23-25.7-1.3-29.33-23.27,27.16-70.44,13.65-103.68-14.78-36.37,9.24-63.11,13.73-82.72,13.83-60.34-6.83-92.26,2.52-148.33,13.82-83,5.79-184.61,17.6-235.07,8.43-36,1.76-73,11.31-103.07-17.6-28.92.59-47.64,1.26-70.4,3.77-129.47-13.55-269.35-6.29-398.48-40.85,40-97.69,106.56-100.13,128.49,14.62,8.12,8.94,32.48-12.18,30.86,12.18,6.49,17.87,24.36,8.55,34.79,20.59,37.62,23.38,91,48.27,105.05,17.56,9.95,18.47,30.23,12.87,54.77,3.46,48.32-18.55,92.87-59,120.55-7.47-17.49-38.15-15.62-61-15.62-26.26,0-40.24-6.45-44,17-17.28-3.41-14.79-37.59-31.23-43.3-43.47-15.11-33.36-69.56-50.39-112.15-49.75-64.5-38.83-93.17-74.11-121.34-32.91-26.28,26.23-33.44-14.06-73.15-30.78-30.34,11-56.78,11.62-81.14,2.15-80.38,78.77-233.87,82-289.9,1.42-24.65,21.48-27.58,22.73-46.28,1.48-22.13,28.42-76.34,43-131.55C343.59,1589.11,774.52,1634.39,823.68,1614.88Z"/>
    <g class="beltTan">
        <path d="M355.22,1585.07c-43.06-9.44-77-18.84-95.4-26.67-3.48-.65-14.64,59.21-11.16,59.86,25.51,8.9,58.78,18.07,96.85,26.85C345.34,1627,349.35,1599.37,355.22,1585.07Z"/>
        <path d="M682.11,1630.44c-102.4-5.92-218.11-22.93-304.83-40.7-5.87,14.56-9.83,42.39-9.57,60.32,92.48,20,207.76,37.14,308.33,43C680.91,1676.82,684.1,1647.43,682.11,1630.44Z"/>
        <path d="M823,1629.46c-33.94,3.53-74.56,3.94-118.3,2.1,2,17.06-1.25,46.46-6.12,62.66,45.93,1.93,88,1.26,122.42-2.89C827.86,1691.55,829.86,1629.68,823,1629.46Z"/>
    </g>
    <path class="clothingBrass" d="M557,1690.48c-9.59,8.33-86.62-1.61-94.51-11.62-6.82-8.65.94-68.42,9-76,6.57-6.16,89.52,4.21,94.92,12.15S566.12,1682.58,557,1690.48Z"/>
    <path class="skinGallic" d="M910.71,1940.44c50,53.39,65.39-6.46,79.61,73.54-9.68,33.54-2.37,55.7,19.21,55.07C1062,1815.46,838.94,1706.18,910.71,1940.44Z"/>
    <g class="bottle">
        <g class="labelReverse">
            <path d="M895.05,2190.84c-.38-6.1,34.6-14.73,69.07-15.36l-9.51-153.87c-34.5.22-69.49,8.62-69.16,13.93Z"/>
            <path d="M910.88,1937.11q.75-13.71,1.37-27.57c4-2.47,16.67-4.53,25-5.17l-6.36,34.88C925.44,1937.34,915.32,1936,910.88,1937.11Z"/>
        </g>
        <ellipse class="bottleBottom" cx="958.46" cy="2229.89" rx="53.17" ry="11.89" transform="translate(-135.71 63.36) rotate(-3.54)"/>
        <path class="beerSide" d="M1010.46,2084.09c0,5.47-27.26,9.9-60.89,9.9s-61-4.43-61.05-9.9h-.07l8.81,142.49c1.43,25.39,123.24,17.86,121.54-7.51Z"/>
        <path class="beerTop" d="M888.52,2084.09c0,5.47,27.42,9.9,61.05,9.9s60.89-4.43,60.89-9.9-27.26-9.91-60.89-9.91S888.52,2078.62,888.52,2084.09Z"/>
        <path class="bottleSide" d="M897,1984.81c5.91-6.33,11.59-14.61,12.84-29.62q2.77-43.77,4-89.21c-3.47-.81-5.56-2-5.64-3.33l-1-15.56c-.21-3.4,11.94-6.91,27.14-7.85s27.71,1,27.92,4.45l1,15.56c.08,1.37-1.85,2.77-5.19,4q6.78,44.93,14.91,88c3.09,14.75,9.74,22.26,16.39,27.82,11.54,8.87,15.78,18,17.09,39.34l12.4,200.62c1.7,25.37-120.11,32.9-121.54,7.51L884.86,2026C883.54,2004.65,886.62,1995,897,1984.81Z"/>
        <path class="bottleCreaseLine" d="M913.78,1866a112,112,0,0,0,44.23-2.73"/>
        <path class="bottleOverlapLine" d="M918.46,1846.32a147.68,147.68,0,0,0,32.86-2"/>
        <g class="label">
            <path d="M895.05,2190.84c.35,5.67,24.13,8.89,54.42,7.65h0l-9.68-156.7c-30.29,1.32-54-1.3-54.34-6.24Z"/>
            <path d="M912,1914.46c3.24-.21,9.38-2.13,15.18-4.45l10.89,33.8c-9.67.46-23.32-2-27.34-4.46Q911.44,1927,912,1914.46Z"/>
        </g>
    </g>
    <path class="wadeShirt" d="M986.91,1234.47a232.2,232.2,0,0,1-7.71-49.93c25.55-25,6.23-51.56,5.79-68.3-1.29-48.76-16.1-96.42-26.63-142.38,16-30.36.42-54.27-5.78-77.56-4.66-17.5-11.78-60-40.52-84.51-30.53-30.13-81.91-32-103-50.93-25-22.42-77.39-6.79-142.38-50.94L396.09,697.77c-51.5,41.38-211.56,21.56-267.67,188.72-31.42,93.56-81.13,158-64.37,207.82-32.19,28.5-23.91,70.8-34,93.79,69.71-2.73,129.63,13.51,180.24,47.82.92-17.47,14.91-37.37,0-63.07,32.41,4.67,23-27,35.21-54.78-2.13,45.2,5.68,79.39,2.47,96.7-7.65,41.24,8.27,85.52-3.45,132.18-27.91,59,23.44,77.79,12.8,193.77,86.29,47.51,498.31,91.61,562.52,75.36,16.58-49.06-6.78-88.07-10.94-124.36-4-35.21,2.43-128.08,10.69-212.28,43.34,6,120.54,6,172.22-1C977.17,1259.5,1011.19,1247.87,986.91,1234.47Z"/>
    <g class="wadeShirtInner">
        <path d="M685.58,839.6C697.75,762.54,699.86,678.09,631.5,672L445.93,649.85c-54.1-12.33-68.29,90.31-84.82,175.29,23.38-38.68,42.24-72.1,63.54-63.54,44.77,18,92.91,52.64,104.1,106.39,37.86-74.36,55.53-56.68,90.59-89.23C638.26,761.19,666.94,801.63,685.58,839.6Z"/>
        <path d="M992.84,1306.81c4-8.8,5-20.41-1-28.41-51.68,7-128.88,7.09-172.22,1-3,31-3.24,63.15-5.88,93.17,63,9.25,146.72,6.09,172.84-9.08C1007.25,1350,983,1328.31,992.84,1306.81Z"/>
        <path d="M30,1188.1c-18.08,27.94-26.44,61-27,98.11,29.19-2.41,129.83,19.5,175.2,38.71,9.64-8.8,15.26-18.71,11.55-31.24,6.79-40.07,29.88-34,20.53-57.76C159.65,1201.61,99.73,1185.37,30,1188.1Z"/>
    </g>
    <g class="clothesDisplayLine">
        <path d="M528.75,868c-20,120-7.06,300.11-16.77,388.88-4.55,41.68,2.2,92.6-4.18,131.12-7.12,43.06-4.52,113.92-7.76,144.18-1.62,15.11-10.86,36,2.32,64.34"/>
        <path d="M571.94,1031.52c68,18.22,139.71,8.51,210.18,10.93"/>
        <path d="M497.5,1689.85c-16.45,35.47,7.48,71.74-6.23,101.11-16.86,36.13-3.61,53-6,78.27"/>
    </g>
    <g class="clothesOverlapLine">
        <path d="M828.21,1037.22c15.6,12.74,1.34,42.73.9,70-1,63.1-3,121.06-9.53,172.23"/>
        <path d="M262.74,1010.16c-20.5,17.95-11.11,64.69-17.25,107.91"/>
        <path d="M473.76,1963.27c2.39-20.75-3.4-33,.46-59"/>
        <path d="M372.13,2437.78a52.92,52.92,0,0,1,7.1,23.42"/>
        <path d="M267.08,2439.2c-1.1,9.16-1,14.43-1.42,21.29"/>
        <path d="M519.17,3095.7c26.58,7.35,44.62,22.26,53.07,45.67"/>
        <path d="M445.68,3106.32c-7.57,4.13-11.83,10.47-15.5,16.25"/>
    </g>
    <g class="clothesFoldLine">
        <path d="M746.37,767.31c24.88-7.16,30.51,16.37,38.69,37.21"/>
        <path d="M797.72,773.26q20.84,32.75,56.55,44.65"/>
        <path d="M868.41,852.89c-6.39,50.7-21.71,96.46-50.6,134.69"/>
        <path d="M923.48,932.51c-12.83,29.28-30,55.29-58,72.93"/>
        <path d="M958.36,973.86c-6.57,8.84-10.52,18.68-10.32,30.1"/>
        <path d="M843.11,1154.28c44.62,35.62,86.79,38.39,125.77-1.49"/>
        <path d="M868.41,1197.44c66.56,20.7,94.16,42.21-35.72,67"/>
        <path d="M979.2,1184.54c-37.86,17.37-49.77,32.11,7.71,49.93"/>
        <path d="M961.43,1258.47c-14.08-8.25-34,1.15-56.55,18.6"/>
        <path d="M982.27,1309.81c-45.62,6.34-90.31,5.21-133.95-4.46"/>
        <path d="M986.74,1343.3c-6.09,6-19.09,10-38.7,11.91"/>
        <path d="M859.48,1330.65c123.54-7.44,102.37,35-43.49,6"/>
        <path d="M752.32,1305.35c-89.3,33.49-207.63,96.74-75.29,112.37"/>
        <path d="M856.51,986.1c59.53-46.89,10.41-97.49-11.17,11.16-10.81,54.41-43.16,49.86-29,67.72"/>
        <path d="M301.61,1167.32c49.25,58.26,110.32,63.9,179.4,34"/>
        <path d="M281.63,1394.22c48.16,41.23,98.76,63.73,152.21,64.32"/>
        <path d="M275.2,1424.24c64.31,47.16,169.27,95.82,30,89"/>
        <path d="M448.85,1487.48c-57.88,32.16-81.47,41.81-8.11,99.76"/>
        <path d="M299,1534.07c45.47,2.19,80.38,16.25,101.22,46.12"/>
        <path d="M725.74,1487a1363.1,1363.1,0,0,1-161.57,117.35"/>
        <path d="M719.09,1534.07c-39.61,17.41-81.74,49.9-131.14,73"/>
        <path d="M791.79,1526.47c-20,43.93-64.36,72.54-130.22,87.61"/>
        <path d="M797,1596.51c16.68-50.81-36.59,10.55-85.53,21"/>
        <path d="M278.1,920.24c-6.92,39.09-5.1,62.49,18.74,46.4"/>
        <path d="M234.2,939.64C177.13,818.54,273.25,861,253.69,987c-5.11,32.87,55.67,37.58,23,53.59"/>
        <path d="M174.33,858.53c39.83,63.72,104.78,201,34.32,115.8"/>
        <path d="M119.19,997c10,54.79,31.53,101.42,73.53,133.57"/>
        <path d="M99,1047.25c53.31,56.37,47.18,105.38-13.48,53.91"/>
        <path d="M64.05,1094.31c5.71,23,12.16,46.54-5.52,50.36"/>
        <path d="M133.9,1178.36c-66.13-25.39,23.89-53.3,76.38-5.51"/>
        <path d="M125.32,1219.42c27.46,9.08,52.55,20.37,74.14,34.92"/>
        <path d="M165.14,1260.47c-66.78-37.38-80.19-20.16-74.75-10.42s52.7,12.87,99.34,43.63"/>
        <path d="M474.22,1904.3c1.53-27.88-34.7-53.34-67-64.6"/>
        <path d="M205.09,1726.44c6.87-18,19.74-25.16,35.74-26.68"/>
        <path d="M450.75,1891.06c-19.13-19.91-46.06-26.82-77.52-26.18"/>
        <path d="M513.17,1904.65c26-1.15,55.06,12.64,85.08,31.21"/>
        <path d="M713.87,2313.42c-7.11-25.69-46.92-10.69-70.68,22"/>
        <path d="M491.12,2392.42c4.52,24.82,39.13,3.72,72.47-15.44"/>
        <path d="M478.79,2432.15c28.37,38.68,78.93,66.63,75.3,98.08"/>
        <path d="M552.3,2475.58c-24.73-23.8-31.29-46.83,1.19-68.31,49.33-32.62,109.14-29.48,125.34,42.77"/>
        <path d="M428.16,3092.16c-5.35-26.13,128.3-26.13,164.54,5.94"/>
        <path d="M607.6,3039.27c-10,10.51-20.35,16.88-30.94,19.63"/>
        <path d="M450.73,3048.8c35.64-12.47,88.33,4.69,91.48-11.91,2.81-14.88-45.15-12.44-83.76-51.65"/>
        <path d="M611.7,2991.77c-23,31.63-59.24,27.92-101-7.72-13.61-11.62,2.43-23,16.64-33.86"/>
        <path d="M185.46,2283.75c16.38,23.73,61.37,62.34,27.07,61.75"/>
        <path d="M404.4,2371.63c-47.52,36.83-127.33,7.55-131.28,20.79-3.77,12.64,31.49,20.41,60.59,20.2"/>
        <path d="M394.89,2321.74c-25,75.08-140.78,18.41-182.95-70.69"/>
        <path d="M361.45,2122.62c-11.55-1.69-22.73-16.37-28.93-11.76-6.77,5,7.82,12.64,22,15.45"/>
        <path d="M373.63,2091.76a55.94,55.94,0,0,1-20.32-15.94"/>
        <path d="M569,3210.68c-25-24.3-115.79-28.59-146.52-3.57"/>
    </g>
    <g class="eye">
        <rect class="sclera" x="576.89" y="397.53" width="233.24" height="99.04"/>
        <g class="irisGreen">
            <ellipse cx="652.05" cy="436.88" rx="23.85" ry="18.47" transform="translate(151.41 1041.35) rotate(-84.19)"/>
            <ellipse cx="791.96" cy="451.11" rx="23.85" ry="15.41" transform="translate(262.99 1193.33) rotate(-84.19)"/>
        </g>
        <g class="pupil">
            <ellipse cx="655.53" cy="437.23" rx="9.28" ry="7.18" transform="translate(154.18 1045.12) rotate(-84.19)"/>
            <ellipse cx="795.39" cy="451.46" rx="9.28" ry="5.99" transform="translate(265.72 1197.05) rotate(-84.19)"/>
        </g>
    </g>
    <g class="skinGallic">
        <path d="M967.27,1920.22c-4.48,23.41-12.06,45.47-15.22,56.2-13.88,23.36-26.77,54.41,2.81,60.1,13.17,2.16,26.32-27,39.91-52.6,13.71,14.91,10.48,27.85,14.76,85.13,22.75-6.3,25.11-60.7,23.44-103.19-1.73-44.08,15.33-74.85-2.78-98.28-17.43-28.58-54.76-60.5-54.09-82.74-9.44-151,21-299.48,4.12-418.3-31.44,12.54-107.9,14.68-166.52,6.07-3.6,141.26,52.14,203.08,62.16,412.23.28,31.85-33.87,58.34-17.14,121.07,14.46,29.95,16.85,86.75,27.73,95.63,23.22,23.67,49.44-17.84,24.26-61.1q2.07-36.66,3.07-74.46c-3.47-.81-5.56-2-5.64-3.33l-1-15.56c-.21-3.4,11.94-6.91,27.14-7.85s27.71,1,27.92,4.45l1,15.56c.08,1.37-1.85,2.77-5.19,4Q962.36,1892.11,967.27,1920.22Z"/>
        <path d="M345.17,1610.73c-69.05-78.61-101.64-172.47-167-285.81C135.53,1306.86,44,1286.42,9,1286c-10.57,31.44-10,64.94-1.85,88.51,35.17,101.17,189.74,225.15,234.27,280.87,10.62,13.3-7.56,53.56,9.08,100.73,5.91,16.77,17.12,25.2,28.58,48.87,6.24,12.88,32.24,13.69,37.59,5.87,11.16,8.26,34.36,3.48,40.88-5.21.86,10.43,9.46,18.27,24.15,16.94,11.3,31.72,40,14.51,56.61-10.69,8.43-12.77,8.73-50.56,6.39-62.12-5.66-27.9-16.93-55-28.5-73.46C381.41,1620.73,369.51,1635.8,345.17,1610.73Z"/>
        <path d="M660.57,702.27c8.67,73.21-103.64,65.24-131.82,165.72C515.63,769.69,389.1,757.14,423.2,672.86c19.15-46.94,19.17-99.17,8.58-157.37"/>
        <path d="M808.33,242.53c27.14,28.79,19.12,62.89,21.44,91,2.3,27.8,7.26,61-1.53,78.05C790,485.93,849.3,525.93,773,633.55c-21,29.5-26.3,65.76-48.23,84.51-33.82,28.93-94.51,10-141.88-11.55-33.77-15.39-64.61-26.8-103.32-61.8S431,566.3,431.78,515.49c-31.66,13.11-43.15-6.62-56.67-35.25-8.41-17.81-22.54-30.5-24.89-67.83C321.06,179.87,651.19,49.78,808.33,242.53ZM675,438.32c-18.55-23.15-43.85-14.74-71.56-10.47C627.26,448,653.48,454.9,675,438.32ZM806,446c-5.86-12.16-27.88-11.51-53.15.09C780.66,462,804.86,462.9,806,446Z"/>
    </g>
    <g class="skinOverlapLine">
        <path d="M1011.61,1915.35c.16,26.72-9.18,48.07-16.84,68.57"/>
        <path d="M304,1747.21c5.26,19,19.53,43.76,12.67,63.67"/>
        <path d="M347.12,1733c6.46,28.92,21.45,50.91,10.4,72.69"/>
        <path d="M389.11,1719.9c5.4,21.14,12.35,36.95,13.41,48.62,3.43,37.52-11,42.14-20.85,54.09"/>
    </g>
    <g class="skinFoldLine">
        <path d="M420.43,411.21c-11.37-76.78-91.82-18.34-45.42,40.6"/>
        <path d="M419.21,428.14c-16,5.64.7,24.37,2.1,35.95,2.19,18.14-9.64,16-13.19,1.69-1.53-6.15-1.51-11.71-12.81-17.06-13.87-6.56-15.44-47.6,8.92-40"/>
    </g>
    <g class="head53">
        <path class="lipMaleLight__noStroke" d="M729.66,595.77c-12.59,5.43-23.61,3.18-35.19-5.08-12.35,2.87-38.1,15.69-72.89,2.72,16.67,9.84,23.13,26.36,31.9,38.2,21.75,26.27,59.85,28.64,78.38,5.35,4.62-8.71,8.94-22.16,21.1-32C740.6,604.66,736.23,601.21,729.66,595.77Z"/>
        <path class="teeth" d="M642.26,601.53c14.06,24.36,83.91,32.22,96.49,8.32-11,.76-20.8-3.13-35.26-4.34C683.71,603.85,660.26,605.62,642.26,601.53Z"/>
        <g class="lipOverlapLine">
            <path d="M756.77,602.66c-5.89,3.89-11.88,6.51-18,7.19"/>
            <path d="M642.26,601.53c-9.83-1.85-18.33-5.54-25.13-11.58"/>
        </g>
        <g class="lipEdgeLine">
            <path d="M729.66,595.77c-12.59,5.43-23.61,3.18-35.19-5.08"/>
            <path d="M731.86,637c-18.53,23.29-56.63,20.92-78.38-5.35"/>
        </g>
        <g class="smileLine">
            <path d="M762.65,580.05c5.75,9,10.6,22.78-.19,32.51"/>
            <path d="M630.9,561c-12.52,5.75-34.18,18.63-29,36.35"/>
        </g>
        <g class="noseLine">
            <path d="M677.18,524.46c-8.58,4.42-11.71,23.21-2.59,29.42"/>
            <path d="M743.28,474.27c20.84,50.91,37.5,99-12.63,88.16-16.13-3.47-24.9-11.07-41.43-8.4"/>
        </g>
        <g class="eyeFoldLine">
            <path d="M809.36,458.06c-3.28,13.72-22.05,20.51-44.64,15"/>
            <path d="M667.3,457.44c-15.74,9.58-39.45,7.16-56.7-3.77"/>
        </g>
        <path class="eyeCornerLine" d="M603.45,427.85a57.44,57.44,0,0,1-17.43.56"/>
        <g class="eyeCreaseLine">
            <path d="M675,425.48c-15.78-17.57-39.45-20.38-64.92-9.4"/>
            <path d="M809.06,429.68c-10.78-7.88-28.72-8.11-44.66-.55"/>
        </g>
        <g class="eyebrowSandy">
            <path d="M832.12,398.86c-23.51-21.34-46.88-8.68-66.12-10.63-.94,16.51,16.59,12.34,41.36,14.86,5,.09,12.28,3.51,20.86,8.56l0,0A43,43,0,0,0,832.12,398.86Z"/>
            <path d="M696.81,377.45c-3.44,27.89-57.37,6.66-76.68,7.38-13.11.49-25.4,4.81-41.36,11-3.46,1.62-7.71-5.8-4.26-7.42C627.65,346.72,633.86,372.26,696.81,377.45Z"/>
        </g>
        <path class="hairSandy" d="M476,400.85c.83-45.56,48.76-58.24,66.12-89.64,17.5-31.65,18-76.87,38-99.77C591,224,605,231.11,621.64,233.86c-8.14-9.84-14.69-20-18.13-30.71,22.49,14.79,33.37,4.52,74.57,43.31,37.17,35,49.88,23.82,81.71,36.09-.63-10.45-10-15.26-13.1-25,20.34,5.8,42-1.38,70.76,15.5,1.06-9.33-3.26-19.76-9.12-30.49,14.93,7.21,28.33,23.61,40.84,40.56.75-21.8-1.37-41.91-10-58.19,8.79.93,17.94,4.78,27.3,10.35-8-23.37-23-42-43.83-56.75,7.59-1.53,15.32-.36,23.17,2.85-9.91-27.75-43.23-40.7-54.37-49.28,1.49-10.49,8-18.13,17.82-23.84-14.56-9-25.37-3.76-37.47-11.14-9.53-8-6.39-21.32,2.29-36.91a76.89,76.89,0,0,0-36.83,20.93C725.93,52,689.1,39.79,675,4.39c-1.23,16.4,0,31.69,5.67,45.05-25.5-9.41-46.35-23-64.8-46.25,1.32,16.69,5.64,32.67,13.9,51.82C607,42.13,577.78,34.6,550.57,21.3c5.22,11.24,14.78,22,19,34a210.58,210.58,0,0,0-92,1.14c12.31,5,21.91,11.83,26.85,21.93-20.94-2.08-42-.7-60.93,5.64,9,1.76,15.4,6.92,19.17,15.63-19.84,1-38.54,5.39-55.51,14.88,9.52,1.82,18,4.76,24.41,9.82-20.44,2.5-40.16,12.6-59.22,29.65,10-1.32,18.94-1.21,25.74,1.64-13.45,6.7-25.05,17.78-33.91,35.4a92.3,92.3,0,0,1,21.26-8.7c-5.63,15.62-18.65,28.4-27.8,46.64,4.08-1.83,7.72-2.8,10.76-2.57-24,48.4-33.72,136.25-18.2,186.06-2.18-56.72,67-78.22,77.64-23.38A331.23,331.23,0,0,0,476,400.85Z"/>
    </g>
</svg>
