<svg viewBox="0 0 284.9 474.21">
  <g class="eye">
    <g class="sclera">
      <circle cx="69.62" cy="72.6" r="5.15"/>
      <path d="M212.63,55.35c-36.06,6.37-47.59,5.75-2.74-11C211.82,46.57,213.45,51.83,212.63,55.35Z"/>
    </g>
    <path class="irisDarkBrown" d="M67.67,76.63c-.38,0-1.43-1.39-1.61-3.26s.58-3.47,1-3.51A19.57,19.57,0,0,1,67.67,76.63Z"/>
    <g class="irisHazel">
      <ellipse cx="195.8" cy="55.15" rx="2.38" ry="3.47" transform="translate(-7.53 49.12) rotate(-14.03)"/>
      <ellipse cx="210.89" cy="51.38" rx="1.84" ry="3.47" transform="translate(-6.17 52.66) rotate(-14.03)"/>
    </g>
    <g class="pupil">
      <ellipse cx="196.31" cy="55.02" rx="0.92" ry="1.35" transform="translate(-7.48 49.24) rotate(-14.03)"/>
      <ellipse cx="211.44" cy="51.24" rx="0.71" ry="1.35" transform="translate(-6.12 52.79) rotate(-14.03)"/>
      <path d="M66.64,74.64c-.3,0-.51-.55-.58-1.27s0-1.33.33-1.36A10.12,10.12,0,0,1,66.64,74.64Z"/>
    </g>
  </g>
  <g class="amy">
    <g class="soleLightTan">
      <path d="M205.79,462.48a9.29,9.29,0,0,1-1,5c-3.17,6.18-23.36,7.57-31.11,1.61-3.45-2.66-11.73-18-12.53-21.74-.49-2.32-.14-4.13.37-6.88Z"/>
      <path d="M273.81,440a31,31,0,0,1,.25,11.42,40.06,40.06,0,0,1-7.76,17.69c-5.14,6.6-29.13,5.94-31.91,1.2a14.43,14.43,0,0,1-1.41-7.57Z"/>
    </g>
    <g class="amyBootLining">
      <path d="M200.74,405.54c-.84-2.64-25.9-9.2-29.41-7.74C173.25,406.28,193.43,412.64,200.74,405.54Z"/>
      <path d="M274.68,402.55c-.92-4.1-31.44-4.14-32,.09C245.65,410.53,270.72,412.49,274.68,402.55Z"/>
    </g>
    <g class="amyBoot">
      <path d="M200.74,405.54c.39,2.15-5.51,18.22-8.81,29.38,2.1,2.87,5.28,11.6,6.6,17.07,5.34,2.24,8.08,6,7.26,10.49-2.89,5.91-24.77,10.43-33.91-1.22-4.68-6-10.39-17.71-10.39-20.78,3.11-13.62,6.27-34,9.84-42.68C174.35,401.79,197,406.87,200.74,405.54Z"/>
      <path d="M274.68,402.55c-.46,9.21-1.71,25.06-.87,37.44.33,4.46-3.54,17.25-7.4,22.82-6.88,9.92-30.28,7-32.61,2.5-2-3.91-.34-7.8,2.79-10.33,1.19-5.46,3.31-12.88,6.21-18,.86-9.24-.28-21.49-.15-34.34C245.5,407,269.89,406.86,274.68,402.55Z"/>
    </g>
    <g class="amyHose">
      <path d="M275.66,304.58c-.78,13.91-3.71,21.48-3.4,24.57.34,3.43,1.29,8.4-1.24,10.35,1.55.46,1.81,2.07.47,3.39,6,18.54-1.24,36.63-2.48,59.8-2.16,2.32-18.07,2.32-20.08.62-7.72-51.29-5.22-60-6.33-64.59A135.57,135.57,0,0,1,239,311.53Z"/>
      <path d="M225.38,312.6c-4.57,26.59-10,35.11-11.1,40.46-3.05,15.5-14.11,33.89-19,51.13-1.43.56-18.16-3.66-19.09-4.9,2.59-19.51,2.94-39.25,10.47-55-1.34-2.27,1.69-3,1.8-4.75-1.55-2.44,2.28-3.83,2.12-6.85-.27-4.86-1.47-19.42-1.47-19.42Z"/>
    </g>
    <path class="amySkirt" d="M266.21,205.07c2.37,7.05,9.2,16.28,12.71,41.55,2.14,15.4,6,35.78,5.72,57.44-.39,1.94-5.61,1.94-8.9,2.24-1.13,2.17-10.94,5.09-17.66,5-2.92,3.89-15.6,2.29-21.94,2.65-7.87.44-18,4.42-24.49-.43-3.1,1.75-22.38,4-24.75,1.81-1.63.41-4.06,0-4.09-.94.53-6.73-1.14-20-.24-31.77.61-7.88-.56-30,1.11-41.16.81-5.41.57-15.81,1.66-23.07Z"/>
    <g class="skinGallic">
      <path d="M258.56,100.44c1.29,2.72,2.11,21-.52,34a85.21,85.21,0,0,0-7.16-12.53c-17.77,0-26.24,15.49-2.48,39.25,9.41,7.85,18.2,13,23.28,5.93,15.47-21.49.47-49.21-2.76-70.34-1.3-6.1,1.52-13.4-10.63-22.45-3-2.25-3.16-6.06-4.38-10.31,1.54-4,1.51-7.94-1.95-7.26-1.24.28-1.34,2.77-2.18,3.34.69-4.43-1.17-9.39-4.84-8-1.36-2.11-3.5-2.42-5.21-.9-.89.95.32,2.13.25,3.42-3.06.6-2,4.43-2.37,7.7-.23,1.83.65,5.21,1.4,9.83s2.91,7.15,5.32,13.19C247.53,93.35,255.22,92.74,258.56,100.44Z"/>
      <path d="M147.71,137.43c23.91.85,24.6,6.62,24.6,33.76-.38,10.27-6,23.26-13.09,26.17-4.69,1.93-10.21-1.73-13.08-7.24l-24.6-87.56c2.88-1.3,6.51,1.1,12,5.32,5.11,3.92,5.06,1.74,8.48,7.57,5.28,9,3.07,13.47,5.66,22"/>
      <path d="M203,91.88c-.67,2.28-1,4.42.29,6,46.66,22.59-57.79,46.79-31,7.15.94-9.1-2.07-21.76-12.37-33.09"/>
      <path d="M168.26,78.89c-1,2.47-4.2,3.48-6,1.69-42.07-12.28,37.25-87,45.47-50.42,2.67,4.45,3.25,8.8,4.14,10.61,1.88,3.27,1.33,4.83,1.32,6.35,0,1.3.68,2.35-.64,3.19-.12-.53-.24-1-.39-1.49-1-.54-3.57.41-4.67,3.31-.11.5.33.19.57.16,1.83-.25,3.69-.38,4.54-1.73,2.33.61.79,2.28,2,3.69,9.51,12.56.74,26.21-.2,35-.85,8-13.07,8.77-19.19,7-7-2.33-14.91-2.6-20.93-8.06m23.19-33.69c-1.47-1.39-2.39-1.95-4.1-1.53S189.66,55,188,56.78A20.79,20.79,0,0,0,196.9,55C197.24,54.88,198.13,55.05,197.48,54.44Z"/>
    </g>
    <path class="amyChoker" d="M198.64,96.84c-7.25,4.49-20.55,6.84-26.19,4.62,0,1,0,1.53,0,2.13,6.13,2.74,23.15-.53,29.68-6.62A25.85,25.85,0,0,1,198.64,96.84Z"/>
    <path class="amyShirt" d="M264.53,201.38c2-3.52-2.73-5.33-4.44-9.76.17-9.57-2.91-11.86-7.35-21.67-3.44-7.6-3.43-13.16-7.49-20.53,1.53-6.8-1.79-13.2-5.7-17.74,4.3-4.3,11-9.59,11-15.89-4.48-9.13-9.34-17.38-14.93-20.85-6.41-4-16.19-1.15-24.81,1.07A15.2,15.2,0,0,1,208,97.12c.13,9.74-8.1,53.26-40.37,10.87-6.81,4.6-14.51,4.24-17.57,12.57-3.17,8.66-3.58,15.81-.33,24.72l15.94,7.26c-.27,8.76,1.29,15.22,7.52,20.1,5.45,7.38.26,9.64,6.52,15.67,1.81,6.67-3.29,6,3,17.25.34,2.93.06,4.5,1.72,6.19-1.75,1.51.87,5.18.31,6.68,28,7.75,68.7-6.4,82.35-12.85C265.63,204.08,267.12,201.85,264.53,201.38Z"/>
    <g class="nirvanaLogo">
      <path class="nirvanaFace" d="M188.54,175.1c3.94,13.51,20.55,19.53,33.45,13.33,14-6.71,20.19-20.41,13.56-32.88S215.7,138.21,202,142.46C188,146.8,184.85,162.42,188.54,175.1Z"/>
      <path class="tongue" d="M227.82,167.54h0a13.36,13.36,0,0,1-3.09,8h0C234,179.46,237.27,168.47,227.82,167.54Z"/>
      <g class="nirvanaDisplayLine">
        <path d="M197.44,173.19a12.59,12.59,0,0,0-2.34,4.21"/>
        <path d="M231.73,160.35a10.23,10.23,0,0,0-4.59-.48"/>
        <path d="M199.5,156.64a41.17,41.17,0,0,0-2.21,9.24"/>
        <path d="M202.82,162.06a48.49,48.49,0,0,0-8.58-1.83"/>
        <path d="M217.83,148.2a39.44,39.44,0,0,0-2.25,9.43"/>
        <path d="M221.79,154a26.19,26.19,0,0,1-9.35-3.23"/>
        <path d="M229.5,159.85c.59,3.59-1.54,4.3-1.68,7.69-.32,8.08-7.89,12.81-11.39,13.27-5.52.74-6.42-1.68-11.75-.55-3.82.81-6.14-2.13-8.66-5"/>
        <path d="M227,171.6a6.82,6.82,0,0,1,4,1.29"/>
      </g>
    </g>
    <g class="amyShirtTrim">
      <path d="M235.91,127.22c3.56-1,15-9.4,14.65-11.43a31.59,31.59,0,0,1,3,5.24c.32,1.35-10.34,9.47-14,10.65C238.36,130.22,237.12,128.67,235.91,127.22Z"/>
      <path d="M166.18,146.56c-4.2.45-14.76-.54-16.48-1.28l2.1,6.29c2.17.82,9.8,1.42,13.84,1A43.76,43.76,0,0,1,166.18,146.56Z"/>
      <path d="M203.25,97.86c4.21,5.09,3,14.06-7.92,25-13-4.1-27.68-7.94-23-17.89a49.24,49.24,0,0,1-4.69,3c-5.07,10.43,12.33,16,29.55,22.06,10.67-10.86,18.47-24.81,11.11-33A21.42,21.42,0,0,1,203.25,97.86Z"/>
    </g>
  </g>
  <g class="stephanie">
    <path class="stephanieJeans" d="M144.52,284.52c6.73-14.27,15.49-20.08,6.81-50.82-12.47,6.56-47.76,9.47-63.21,3.39.1,4.61-1.93,8.5-.67,12.28-20.49,22.49-48.1,54.34-49.64,64,3.54,3.49,2.67,8.5-2.5,8.5.59,13.66-1.66,30-1.83,45.81-.07,7.16-3.16,16.49-.66,25.48L54.3,396c1.67-7.49,7.21-16.7,7.28-25,.06-7,4.89-19,3.89-40.31.87.11,4.61-.17,2.28-4,2.59,0,3.26-3,6.31-4.83a60.15,60.15,0,0,0,12.39-10c-2,8.62-2.93,17.58-3.85,28.78,6.66,3,5.35,10,1.19,13.16,1.66,10.49,17.82,47.14,27.15,66.63l21.15-9.33c-3.83-11-1.2-21.73-7.83-34.65-2.38-4.65.77-8.66-7.89-26.65-2.33-2.83,3.67-4.5-1.33-8.16,5.33-2.17,1.92-5.86,3.33-8.83C124.87,319.12,136,302.58,144.52,284.52Z"/>
    <g class="stephanieJeansInner">
      <path d="M112.41,417.82c2.72-.17,11.56-4.26,18.29-7.88,3-1.58,7.26,5.33,4.85,7.68-4.45,4.35-19.06,11.29-22.83,10.15C108,426.34,107.56,418.13,112.41,417.82Z"/>
      <path d="M33.55,391.28c6.41,1.66,13.38,2,19.86,2.73,4.37.51,2.7,9.89-1.68,9.39-6.88-.79-14-.81-20.18-2.12C27.57,400.44,29.61,390.26,33.55,391.28Z"/>
    </g>
    <path class="stephanieShirt" d="M93,127.82c1.71,16.66,38.89,16.35,46.77,6.06,7.67,19.82,7.14,39.63,7.85,61.23.15,4.54,4.29,7.49.89,12.49,1.07,3.21,3.75,5.89.72,10.53,8.74,10.53.53,9.64,2.85,15.17C138.84,241,94.57,244,83.32,234.37c-.71-4.46.75-9.61.54-14.1C83,201.53,79,178.33,77.79,162.8,75.83,149.06,87.61,143,93,127.82Z"/>
    <g class="skinEastAsian">
      <path d="M80,150.34a48.68,48.68,0,0,1,2.81-4.74A66.73,66.73,0,0,1,64,126.07c-1.22-1.85-.94-8.81-7.89-12.08-3.35-1.58-6.34-4.29-8.66-5.81-2.06-1.35-3.69-1.77-4.69-3.26-1-.93-3.33-.5-3.08,2.62C39.72,107.54,71.48,145.87,80,150.34Z"/>
      <path d="M62.85,126.58c-.08-4.6-4.05-10.11-10.29-12.47-2.33-.89-4.2-3.48-7.79-5s-3.81-2.39-5.11-3c-1.62-.81-5.26,3.45,1.45,8.36a4.8,4.8,0,0,0,1.61,1.91c-3.35.72-4.95.71-7.63,1.34-3.55.84-15.73.55-17.31.82-3.06.3-3.29,4,0,4.85-4.6-.2-5,1-5.18,2.38-.27,1.93,1.91,2.46,4.25,2.88a2.7,2.7,0,0,0-1.75,3c.49,2.16,2.62,1.67,6.72,2.42a2,2,0,0,0-1.07,3.55c1.46,1.07,8,2.15,15.19,3,4.91.55,10.92,3.73,19,.53C67,160.85,77.84,183.65,95,191.76c3.65,1.72,11.94-4,17.29-10.87-11.78-3.36-11.47-11-16.06-17.74C84.11,154.12,68.2,142.8,62.85,126.58Z"/>
      <path d="M86.4,99.32c8.3,14.37,8.7,20.91,6.56,28.5,1.71,16.66,38.89,16.35,46.77,6.06-3.52-12.76-9.81-25.11-16.71-28.29-2.25-4.39-7.53-19.46-1-36.26"/>
      <path d="M83.8,341.25c3.06-2,5.58,3.49,8.43,1.3,1,1.6,3.82,0,5,2.76,1.47-1.86,3.85,1.28,7-.2-2.12,4.34-6,2.62-6.36,5.05-1.47-1.28-3.39,1-6.33.38-1.1,2.48-5.14,1.14-7.28,2.81C82.81,349.24,83.15,346.5,83.8,341.25Z"/>
      <path d="M38.32,313.87c-1.84,3.2-2.27,5.05-2.11,7.9,1.86-.07,2.92,3.06,5.52.91,1,2.48,5.13-.23,6.39,1.78,1.71-2.06,3.41.72,5.92-.4-2.45-1.54-2.25-4.14-5.22-3.38-.54-2.09-4.18-1.3-4.23-4.27C41.78,318,40.37,314.07,38.32,313.87Z"/>
      <path d="M132.93,419.72a60.72,60.72,0,0,1-16,7.65c1.53,3.73,3,8,4.52,12.64l16.89-8.95C136.29,427.18,134.47,423.39,132.93,419.72Z"/>
      <path d="M32.92,401.55a72.64,72.64,0,0,1-.72,14.54l16.91-.29c.3-4.6.38-8.91.73-12.6C44.07,402.65,38.21,402.49,32.92,401.55Z"/>
      <path d="M102.61,94.86c-.23,5.87-7.07,11.73-11.86,15.08-3.54,2.48-6.94,5.18-9.54,5.39-8.38.65-3.59-7.84-8.74-8.55-4-2.6,2.06-5.77,4.59-7.29A24.09,24.09,0,0,0,75.56,97c-3.14.65-4.63.63-6,1.47-1,.65-2.51-1.21-2.58-2.43a10,10,0,0,0,.77-3.55c-3.13.18-7.54,2.16-8.16-1.57-.41-2.42,4.18-11.69,4.23-15.62,0-3.4-3.9-8.6-3.76-14.81-8.41-43.68,91.29,11.61,52.59,19.06-2,2.44-2.3,6.73-7.84,4.27M66.44,74.93c1.27-.36,2.88-.62,4.76-1.16a43.72,43.72,0,0,0-5.08-2.14A5.33,5.33,0,0,0,66.44,74.93Z"/>
    </g>
    <path class="stephanieUndershirt" d="M97.89,136a77.4,77.4,0,0,1,3.22-18.23c-3,4-5.08,9.92-6,15.57A13.53,13.53,0,0,0,97.89,136Z"/>
    <g class="soleWhite">
      <path d="M147.85,438.77c1.51,2.12,3,4.87,2.54,7-2.53,9.23-15.8,15.24-24.63,23.76-5,5.2-28.54,6.47-25.46-4.33Z"/>
      <path d="M55.29,424.76a30.38,30.38,0,0,1,.13,7.77C53.08,439.85,36,439,25.21,443.16c-13.32,5.13-26.77,4.23-24.76-5.64Z"/>
    </g>
    <g class="stephanieShoe">
      <path d="M123.47,437.35c5.45-2,10.83-5.23,14-9.72,3.1,1.1,8.54,6.7,10.34,11.14-.47,9.69-11.32,16-21.49,25.13-7.62,6.8-17.2,6-18,4.56-1.75-3.12-5.77-4.3-8-3.27,1.81-6.87,9.09-7.41,10.64-8.05,5.7-9.78,7.52-18.09,5.42-24.84C117.14,429.73,123,431.44,123.47,437.35Z"/>
      <path d="M34.53,413.66a34,34,0,0,0,15.21-3.16c2.29,2,5.1,8.87,5.55,14.26-5.64,12.07-20.18,10.55-30.59,14.64-7.06,2.76-13.34,4-19,2.18-1.26-2.4-3-4-5.22-4.06,1.28-5.46,6.19-7.64,13.12-9.22,7-5.17,12.63-12.31,18.68-20.93C34.11,406.36,36.13,410.56,34.53,413.66Z"/>
    </g>
    <g class="shoelace">
      <path d="M115,458.05a39,39,0,0,0,6.25-14.53c-1.6,0-3.16,0-4.67-.12a47.28,47.28,0,0,1-5.67,13.74A10,10,0,0,1,115,458.05Z"/>
      <path d="M16,430.76c4.51-2.26,8.55-6.29,12.4-11.06-1.15-.72-2.48-1.49-3.68-2.31A64.38,64.38,0,0,1,13.57,428.3,6.51,6.51,0,0,1,16,430.76Z"/>
    </g>
  </g>
  <g class="clothesDisplayLine">
    <path d="M174.17,399.78c-3.49,8.77-7.13,30.27-10.3,47.76"/>
    <path d="M162.92,433.83c1,2.4,1,5.16,2,7.77"/>
    <path d="M165.67,437.59c7.75-5.49,21.35-7.47,26.26-2.67"/>
    <path d="M272.28,403.88c-.56,5.71-.37,13.35-.71,21.3-.3,7,.7,15.73.7,23.87"/>
    <path d="M272,439.41c-5.33-6.35-25.41-7.51-29.15-2.43"/>
    <path d="M272.16,443.83c1-2.79.74-6.79,1.41-9.19"/>
    <path d="M129.14,239.36a14.09,14.09,0,0,1,1,6.83"/>
    <path d="M125.73,239.74a11.87,11.87,0,0,1,1.16,6.83"/>
    <path d="M94.93,241.68c1.48,12.12,9.86,16.61,24.16,14.56"/>
    <path d="M42.68,392.89c.56.83-.18,9.13-1,9.67"/>
    <path d="M45.75,393.22c.69,1,0,8.91-1,9.57"/>
    <path d="M121,414.77c1.08.61,4.64,8.16,4.23,9.37"/>
    <path d="M123.44,413.62c1.26.59,4.72,7.77,4.32,9.22"/>
  </g>
  <g class="clothesOverlapLine">
    <path d="M166.18,146.56c.6-2.37-.71-3.17-.2-5.14"/>
    <path d="M182.65,176.05c-2.62.36-7.51-1.93-9.49-3.41"/>
    <path d="M232.84,121.59a13.81,13.81,0,0,0,3.07,5.63"/>
    <path d="M245.25,149.42a16,16,0,0,1-6.06,8.86"/>
    <path d="M125.91,156.77c-5.29,13.22-4.44,22.48-6,23.11-1.86,1.19-4.5,1.32-7.7,1"/>
    <path d="M103.39,170.94c-2.75-4.93-5.51-5.81-7.19-7.79-2.56-4.45-1.48-6.23,1.47-7.56a16,16,0,0,1-1.1-8.14"/>
    <path d="M87.45,249.37c-.63,2.81,1.81,5,1.37,7.36-1,5.42,2.13,6.95,1.65,8.72C90,267,90.83,269.58,93,270c-2.17.49-2.13,4.39.08,5l-6.59,36.89"/>
    <path d="M116.81,455.25a14.6,14.6,0,0,1-4.31-.9"/>
    <path d="M118.31,452.39a22.54,22.54,0,0,1-4.44-.89"/>
    <path d="M119.59,449.41a22.61,22.61,0,0,1-4.58-.66"/>
    <path d="M120.55,446.63c-1.67-.09-3.24-.22-4.66-.43"/>
    <path d="M26.59,421.86a41.13,41.13,0,0,1-3.72-2.29"/>
    <path d="M24.45,424.21a36.85,36.85,0,0,1-3.68-2.35"/>
    <path d="M22.33,426.27a33.51,33.51,0,0,1-3.52-2.43"/>
    <path d="M19.39,428.68c-1.21-.91-2.33-1.75-3.18-2.49"/>
    <path d="M28.4,419.7c2.54-2.59,3.72-6.3,6.13-6"/>
    <path d="M123.47,437.35c-1.92,1.15-1.56,3.73-2.19,6.17"/>
  </g>
  <g class="clothesFoldLine">
    <path d="M271,339.5a22.37,22.37,0,0,1-8.37,3.77"/>
    <path d="M271.49,342.89a7.59,7.59,0,0,1-3,1.72"/>
    <path d="M188.5,339.51a7,7,0,0,0,3.13,2.42"/>
    <path d="M186.7,344.26a15.2,15.2,0,0,0,5.64,2.58"/>
    <path d="M267,253.17c.8,5.89-.79,18.77,2.23,24.5"/>
    <path d="M258.44,222c-3.34-11.29-5.25-1.59-2.54,11.14"/>
    <path d="M249.06,217.22a201.3,201.3,0,0,1,.79,28.32"/>
    <path d="M200.54,233.45c2.38,22.27-5.73,8.75-4-9.55"/>
    <path d="M191.31,224.7c-1.43,8.59-.48,18.93-1.11,27.2"/>
    <path d="M197.36,262.56c.15,8.75,1.74,20-1.12,25.29"/>
    <path d="M218.35,275.76c.88,11.12,2.47,21.42,6.21,29.27"/>
    <path d="M248.42,286.58c0,7-.46,13.73-2.07,19.41"/>
    <path d="M275.74,306.3c.61-1.76.36-6-.12-10.81"/>
    <path d="M258.08,311.31c1.53-3.5.2-16,.36-28.55"/>
    <path d="M211.65,313.53c-1.54-3.63-.61-12.16-.93-21.22"/>
    <path d="M186.9,315.34c-1-2,0-6.17-.36-11.58"/>
    <path d="M198.53,452c-4.26-1.37-9-.25-13.39,1.64"/>
    <path d="M236.59,455c6.28-3.39,18.52-2.31,22.92,1.75"/>
    <path d="M235.38,119.18c-.55,2,0,4.32-1,6"/>
    <path d="M226.15,121.63a19.26,19.26,0,0,1,7.48,2.11"/>
    <path d="M226.54,123.29a25.25,25.25,0,0,1,9.75,4.39"/>
    <path d="M242.25,200.75c-6.43,5.07-13.25,8.24-20.53,9.12"/>
    <path d="M254.89,194.52c-6.5,7.86-13.5,13.88-21.39,16.54"/>
    <path d="M260.09,191.62c-.16,3.19-1.82,6,.17,8"/>
    <path d="M264.53,201.38c-1.93,2.79-14.68,4.88-19.95,8.3"/>
    <path d="M184.41,211.75c2.29,2.08,6.59,2.9,11,3.64"/>
    <path d="M216.16,213.77c-12.22.33-25.49-1.43-33.47-8.21"/>
    <path d="M180.94,194c3,8.27,12.17,11.79,21.72,12.83"/>
    <path d="M179.68,188.31A61.63,61.63,0,0,0,200.43,197"/>
    <path d="M176.9,180.69c2.59,4.05,7.1,6.59,12.41,8.51"/>
    <path d="M217.53,155.46a130.09,130.09,0,0,1-25.09,11.38"/>
    <path d="M211.84,162.43A81.79,81.79,0,0,1,200,167.3"/>
    <path d="M158.64,136.69a15.81,15.81,0,0,0,5.38,6"/>
    <path d="M168.71,142.19c-1.14,1.39-1.79,3.75-2.7,5.68"/>
    <path d="M157.19,128.5a27.54,27.54,0,0,0,7.38,12.75"/>
    <path d="M162.39,128.88c-.21,3,2.22,10.45,3.59,12.54,1.32-.77,1.79-3.6,3.2-5.07"/>
    <path d="M228.66,107.89c-.25,3.83,2.37,11.55,4.18,13.7.86-2.94.19-7.59.86-9.45"/>
    <path d="M97.67,155.59a18.53,18.53,0,0,0,1.39,2.74"/>
    <path d="M116.47,154.17c-5.16,5.68-13.83,8.73-19.29,5"/>
    <path d="M91.22,218.4c1.18-10.86-.4-21.2-3.6-31.23"/>
    <path d="M107.08,186.4a40.15,40.15,0,0,0,10.12,12.5"/>
    <path d="M111,186.77c6.14,8.44,13.25,12.29,20.89,13.52"/>
    <path d="M99,204.14c3.88,8.78,9.68,14.72,17.46,17.78"/>
    <path d="M132.19,230.69c-10.81,2.56-21.24.5-31.38-5.33"/>
    <path d="M144.73,205c-6.68,4.16-14.62,5.47-23.93,3.69"/>
    <path d="M148.47,207.6c-12.35,12.11-29.26,6.33-30.29,7.65-1.15,1.48,15.16,7.16,28.43-2.51"/>
    <path d="M132,224.13c5.82.25,12.95-1.71,17.16-6-1.1,2.89,3.65,6.41-8,9.61"/>
    <path d="M93,270c4.51,1.06,10,1.22,15.9,1"/>
    <path d="M104.38,273.8a98.67,98.67,0,0,0,23.34-1.1"/>
    <path d="M93,274.94c2.18,1,6.67.69,10.61,1.79"/>
    <path d="M45.59,333.12c6.1,6.76,10.69,15.11,9.88,27.06"/>
    <path d="M123.32,373.79c.26,3.66-1.33,4.24,0,9"/>
    <path d="M113.74,398c1,7.1.85,13.83-1.33,19.82"/>
    <path d="M125.46,403.64c-.11,3.22.21,6.13,1.91,8"/>
    <path d="M34,375.66c1.31,5.21,1,9.84,2.45,16.12"/>
    <path d="M44,393a14.5,14.5,0,0,0,7.38-3.78"/>
    <path d="M114.08,334.76c-2.51,2.62-6.74,4-13.6,3.47"/>
    <path d="M57.06,313.87c1.82,4.22,5.35,7.22,10.42,9.12"/>
    <path d="M116.3,346.8c-1.75,2.42-10,2-6.67,4.89"/>
    <path d="M115,341.61c-5.3.1-13.59.33-2.84,2.27"/>
    <path d="M67.75,326.66c-3.07-.58-10.38-5.26-11-3.53-.81,2.34,5.65,2.69,9.12,4.06"/>
    <path d="M65.47,330.66c-2.42,0-5.42-2-8.2-1.63"/>
    <path d="M115,458.05a13.89,13.89,0,0,1,2.75,1.55"/>
  </g>
  <g class="clothesCreaseLine">
    <path d="M254.7,344.79a15.45,15.45,0,0,1-7.42-.9"/>
    <path d="M208.42,345.32a17.14,17.14,0,0,1-7.86-1.16"/>
  </g>
  <g class="skinOverlapLine">
    <path d="M266.94,90.56c-2-5.64-4.89-8.56-9.54-9a9.81,9.81,0,0,0-2.56-4.44c.92-5.14-2.05-8.15-5.55-6.88-.82.28-.19,3.44-.46,6.94-.22,3,1.55,4.86,2.78,8.2"/>
    <path d="M240,54.59c3.07-.07,4.62,4.57,3.6,8.52A24.52,24.52,0,0,0,248.9,76"/>
    <path d="M244.94,52.07a7.29,7.29,0,0,1,1.29,7.33c.85,5.33,1.31,7.58,3.06,10.84"/>
    <path d="M249.78,60c0,4.15,1.47,7.33,3.21,10.54"/>
    <path d="M131.06,112.77c2.53-1,3.28.35,6.07,2.75,2.16,1.86,2.27,4.41,3.89,8"/>
    <path d="M129.88,127.14a84.27,84.27,0,0,1-2.44,12.93"/>
    <path d="M102.85,122.06c-.6,4.81-2.28,9.93-3,15.15"/>
    <path d="M101.11,117.73c2.78-11.43,10.18-16,21.91-12.14"/>
    <path d="M51.92,117.5c-1.68-1.55-5.55-1.76-9.2-1.12"/>
    <path d="M17.75,123.39c5.44.56,11.06.33,15.68.87a1.45,1.45,0,0,0,1.55-.89"/>
    <path d="M16.82,128.65c5.29.47,10.33,1,16.89,1.5"/>
    <path d="M21.79,134.08c3.58.45,7.63.77,11.71,1.12.79.12,1.37.28,1.61,1.07"/>
  </g>
  <path class="lipFemaleMedium__noStroke" d="M195.14,79.33C201.52,89,214.7,86.23,213,79c-.46-1.86-1.55-2.36-2.45-4.41C211.37,78.1,197.71,78.69,195.14,79.33Z"/>
  <g class="lipFemaleMedium">
    <path d="M69.56,98.43c1.37-.84,2.86-.82,6-1.47-3.1-.43-6.41-.9-8.58-1C67.05,97.22,68.57,99.08,69.56,98.43Z"/>
    <path d="M72.47,106.86c1.41-.89,3.6-4.39,4.59-7.37C74.48,101,68.43,104.2,72.47,106.86Z"/>
    <path d="M195.14,79.33c3.15-2.55,4.48-4.21,9.26-4.62a13.65,13.65,0,0,0,3.93-.58c2.06-.78,3.59-2.78,4.64-.11-1.16-1.09-1.56-.09-2.47.61C211.51,77.94,198.25,78.55,195.14,79.33Z"/>
  </g>
  <path class="mouthInner" d="M195.14,79.33c7.6-5.88,10.74-1.08,15.36-4.7.51.86,1.19,3.51.49,4.48-2.19,3-7,3.41-9.74,2.92S197.65,80.44,195.14,79.33Z"/>
  <g class="teeth">
    <path d="M210.5,74.63c-4.62,3.62-7.76-1.18-15.36,4.7.36.16.68.31,1,.47C201,82,207.76,81.92,211,79.11,211.69,78.14,211,75.49,210.5,74.63Z"/>
    <path d="M75.56,97c-2.86.59-4.35.63-5.63,1.26.71,3.42.5,4.13,1.94,3.51a8,8,0,0,0,.41,1,24.62,24.62,0,0,1,4.78-3.28A22.29,22.29,0,0,0,75.56,97Z"/>
  </g>
  <path class="teethOverlapLine" d="M71.86,101.71a37,37,0,0,0,5.19-2.49"/>
  <g class="gum">
    <path d="M197.38,77.82c5.19.5,11-.21,13.56-2.11a5.94,5.94,0,0,0-.44-1.08C206.36,77.88,203.41,74.36,197.38,77.82Z"/>
    <path d="M75.56,97c-2.86.59-4.35.63-5.63,1.26.06.28.11.55.15.78a48.88,48.88,0,0,0,5.69-1.72Z"/>
  </g>
  <g class="skinFoldLine">
    <path d="M258,134.41c-1.1,5.52-4,11.58-3.74,19.54"/>
    <path d="M151.8,151.57c3.35,12,10.29,18.76,11.4,31.53"/>
    <path d="M54.89,141.11a6.3,6.3,0,0,1-.46-3.4"/>
    <path d="M106.17,69.5c.57-8.21,14.63-4.21,5.65,8.26"/>
    <path d="M106.56,71.54c3.06,1.67-1.52,5,.86,6,1.23.55.12-1.58,2.74-3.44,3.41-2.41.16-5.71-1.29-4.05"/>
    <path d="M161.7,66.06c-4.7-8.83-14.09,1-4,8.59"/>
    <path d="M162.45,68.33c-2.55,3,3.85,5.19,1.41,6.62-1.25.74-1.22-1.7-4.47-3-3.58-1.43-1.4-5.9.1-4.58"/>
  </g>
  <g class="eyeLidLine">
    <path d="M66.12,71.63c-2.64-.69-1.63-2.31-1.53-3.74"/>
    <path d="M66.44,74.93c-.8.34-.78,1.75-.1,2.77"/>
  </g>
  <path class="eyebrowBlack" d="M61.64,65.09c2.3,2.78,5.94-2.32,13.69,2.06C68.34,60.6,63.89,64.58,61.64,65.09Z"/>
  <path class="hairBlack" d="M112.65,79.51c.53,5.73,3.06,9.69,7.79,11.69C117.5,80.14,137.9,78.09,137,52c-.85-23.88-19.26-40.43-28.71-31.94-6.33-13.07-44,1.42-50.83,13.29-9.77,16.88.94,19.8-2.06,31.44,5.74-4.21,9.51-10.41,11.48-18.41,2.29,8.86,7.26,15.22,15.5,18.54a33,33,0,0,1-6-8.33c3.65,4.53,9,6.65,15.34,7.16,3.66,2.94,4.77,9.73,5.1,17.67,10.8-4.26,3.56-12.42,7.2-13,.41-8.79,10-7.48,11.62-2.83C117.69,71.28,116.45,74.71,112.65,79.51Z"/>
  <path class="lipEdgeLine" d="M199.1,83.36C205.76,87.84,214.39,85,213,79"/>
  <g class="eyebrowLightBrown">
    <path d="M198,44.91c-1.15,3.77-6.94,0-16.15,8.68C187,45.28,196,42.87,198,44.91Z"/>
    <path d="M212.3,41.65c-2.82-1.08-5.32-.54-6.43,1.62,1.66,1.93,3-.77,7.2.5A9.1,9.1,0,0,0,212.3,41.65Z"/>
  </g>
  <path class="amyNoseRingLine" d="M204.78,65.18c-1.24,1,.4,5.46,1.58,3.22"/>
  <circle class="amyEarring" cx="164.44" cy="78.34" r="1.3"/>
  <g class="hairDyedRed">
    <path d="M150.25,10.63c.8-3.41,7.88-7.45,12.14-6.68,3.79-3.54,11.91-5.14,16.13-2.09,9.29-.38,13.79,4.57,12.14,10.71C166.82,18.53,153.38,23.14,150.25,10.63Z"/>
    <path d="M162.55,64c1.95-.54,1.52,3.55,7.5,4.57-4.1-6.89-3-13.14.3-19.12-.14,14.49,12.15,23.1,2,46.87,12.25-22.26,1.35-32.43,3.36-49.1.93-15.34,8.29-22.81,18.88-21a10.05,10.05,0,0,1,7.06-2.64c2.6,1.31,4.39,3.69,6,6.63a11.49,11.49,0,0,0-5.38-10.61C192.71,9.3,173.39,9,164.23,14c-35.66,3.43-35.71,66-6.78,69.81-3,7.89,5.48,8.87-.7,19.13,9.19-10.64-3-13.2,5.48-22.36-3.65-3.71-8.31-3.61-10.7-11.74C149.41,61.65,158.19,55.82,162.55,64Z"/>
    <path d="M156.18,22.12c9-12.06-17.44-19.7-22.93,3.24-9.9,10.89-4.53,20.82,1.22,23a9.59,9.59,0,0,0,12.64-10.71C154.37,36.05,158.08,27.14,156.18,22.12Z"/>
  </g>
  <g class="cheekLine">
    <path d="M67.35,80.59C65.49,93.16,72.9,89.32,78,101.47"/>
    <path d="M211.83,68.38a6.32,6.32,0,0,1,2.07,3.36"/>
    <path d="M201.6,66.33c-2.11,1.61-1.94,3.67-4.53,7-3.12,4-4.44,3.26-4,6.38"/>
    <path d="M212.38,87.14c-1.92-.49-5.69.59-7.87,2.41"/>
  </g>
  <g class="noseLine">
    <path d="M64.07,92c1-.1,4.22,1.23,6.55-.32"/>
    <path d="M207.91,56.63c.79,1.08,1.89,2.48,3.72,5.17,2.19,3.2,3.63,6.38-2.84,7.51"/>
    <path d="M201.6,66.33c-.89,1.24-.73,4,1.76,4.16"/>
    <path d="M204.1,69.41c1.74-.91,2.85-1.49,4.75-1.07"/>
  </g>
  <g class="eyeFoldLine">
    <path d="M213.3,54.13a3,3,0,0,1-2.56,1.24"/>
    <path d="M197.34,58.08c-1.38,2.13-5.35,2.71-8.39,2"/>
  </g>
  <g class="eyeCornerLine">
    <path d="M71.2,73.77a3.23,3.23,0,0,0,1.16.07"/>
    <path d="M183.88,58.55c1.73.22,3.15-.94,4.15-1.77"/>
    <path d="M212.86,49.42a1.53,1.53,0,0,0-.73-.6"/>
  </g>
  <g class="eyeCreaseLine">
    <path d="M70.19,71.25c-1.37-.59-4.31-.84-5.86-1.29"/>
    <path d="M206.24,50.42c1.69-4.49,5.5-2.93,6.45-2.15"/>
    <path d="M186.91,56c1.69-3.05,6.81-7,9.93-3.31"/>
  </g>
  <g class="hairOverlapLine">
    <path d="M91.73,63.78a29.43,29.43,0,0,0,5,.3"/>
    <path d="M156.18,22.12c-5.85,5.27-15.47-7.6-21.74,2.84-5.17,9,5.81,13.61,12.67,12.69"/>
    <path d="M170.35,49.44c-.42-6.46-.33-12.15,1.27-17.63"/>
    <path d="M194.63,26.17c-5.84-10.89-19.1-14.58-30.4-12.17"/>
    <path d="M198.75,19.24a5.05,5.05,0,0,1,3.57.31"/>
    <path d="M162.39,4C160,6.44,159.6,11.43,162,14.3"/>
    <path d="M178.52,1.86a20.61,20.61,0,0,1-1.42,8.92"/>
  </g>
  <g class="hairFoldLine">
    <path d="M133.6,31.85c-1.83,1.06-2.87,4.9-.91,8.45"/>
    <path d="M138.89,21a6.37,6.37,0,0,1,2.83-4.87"/>
  </g>
</svg>
