<svg viewBox="0 0 206.8 399.81">
  <g class="andrewShoe">
    <path d="M108.16,381.65c-7.79-3.76-12.45-11.31-15.2-20.34l-18,5.26c-2.63,4.63-4.27,8.89-4.29,13,3.74,13.18,29.27,23.19,44,9.4C114.44,385.72,111.89,382.73,108.16,381.65Z"/>
    <path d="M53.67,389.67c1-4.71-.35-8.9.3-13.23a36.73,36.73,0,0,0-1.09-16.1l-19.94-1.67c-1.66,5.28-2.75,10.4-3.75,15.1-1.2,5.6-4.69,10.46-4.74,14.91C24.32,398.85,50.94,402.72,53.67,389.67Z"/>
  </g>
  <g class="soleWhite">
    <path d="M114.62,388.93c-3-3.62-14.07-.91-17.68,4.74-9.91.3-23.75-8.18-26.28-14.14-.61,2.27-1.07,4.73,1,6.87,3.25,3.34,8.29,4.55,13,8.09,4.35,3.23,11.62,4.55,19.91,2.93C110.7,396.23,114.77,394.62,114.62,388.93Z"/>
    <path d="M53.67,389.67c-1.65,2.86-3.87,4.79-7.21,4.93-5.23-4.74-14.31-6.32-19.35-2.76a4,4,0,0,1-2.66-3.16c-.52,3.59.78,6.4,5.53,8.59,5.67,2.62,10.86,2.76,16.88,1.58C51.53,397.93,53.73,394.79,53.67,389.67Z"/>
  </g>
  <g class="shoelace">
    <path d="M47.88,368.62c-.87,4.95-1.56,10-2.7,14.33a25.76,25.76,0,0,0-14.31-1.48,129,129,0,0,0,2.51-14.55A19.52,19.52,0,0,1,47.88,368.62Z"/>
    <path d="M96.69,370.3h0a20.34,20.34,0,0,0-11,3.23c2.6,4,6,9.07,10.12,12.05,2.83-2,7.66-4.71,12.34-3.93A26.25,26.25,0,0,1,96.69,370.3Z"/>
  </g>
  <path class="andrewPants" d="M31,246.68c7,34.81-.44,32.18,5.64,39.48-6.42,7.2-1.62,10.11-3.11,13.42-2,4.34-.2,13.76-2.19,25.29a63.4,63.4,0,0,0-.34,22c.36,2.17-3.5,1.17-2.92,10.89,3.09,5.4,14.39,7,22.76,5.64,7.38-1.2,8.16-12,8-20.81-.18-8.59,4.17-22.82,4.86-34.24.44-7.19,4.67-11.67,2.49-18.32,2-1.64,2.78-4.32,2.92-7.47,4.43,16.43-1.15,26.66.19,36.73,1.66,12.55-1.85,18.27.37,24.37-.37,6.64-2.22,17.35,2.7,28.42,8.56-.92,14.65-6.64,23.32-5.35,3.14-6.28,3.49-10.48,1.66-14.21,3.14-3.33,1.25-6.47,1.48-8.86,1.62-17.18,2.94-33.19,2.25-47.21,3.66-4.29,0-6.32-.4-8.74,7.2-6.44,2.31-9.49,2.78-13.09,3.12-24.36,5-59.26,1.19-78.6Z"/>
  <g class="andrewTurtleneck">
    <path d="M83.42,86.42c5.7,3.3,14.67,1,19.43,5.25,3.27,2.87,5.42,8.78,6.34,15.67.55,4.12,3.52,8.4.3,14.23,3.62,3,4.61,7.28-.62,11.72,1.63,1.91,2.59,3.39.42,5.85,3.85,4.3-1.85,8.21,1.66,10.4-13.29,21.56,1.56,47-7.82,48.77-15.52,2.9-42.26-22.49-68.2-42.46.58-8.29-2.11-19.16-.85-25.92a3.81,3.81,0,0,1-3.47,1.68c.35,2.87-.42,5.13-3.56,6.08,2.22,2.51-2.82,4.39-.88,6.56C15.63,141.86,5,151.11,8.45,160.93c-6-4.07-10-8.87-7-16.27-2.31-3.5-1.19-6.71,3-9.68-1-3.37.66-5.69,3.44-7.52-3.65-8.18,5.49-6.45,4.74-8.93-2.48-7.74,1.93-5.27,4.19-6.88-.32-2.47,4.91-6.49,7.85-11.29C34.64,84,66.09,86,83.42,86.42Z"/>
    <path d="M54.19,74.23c-2.65.91-1.94,2.61-2.72,7.32-.59,3.56-1.81,6.16-.16,7.93,7.45,7.7,29.16,7.6,32.82,2.11,2.07-2.86-.06-5.83-.15-6.17-.74-2.76,1.8-5.07-.13-7.33C80.19,73.82,60.33,72.14,54.19,74.23Z"/>
  </g>
  <g class="clothesDisplayLine">
    <path d="M1.43,144.66c5.69-7.81,17.93-7.6,24.74-.41"/>
    <path d="M77.19,220.5c-1.28,6.38-.75,12.83-4.88,16.43"/>
    <path d="M93,212.87c2.1,2.64,6.16,3.6,11,3.88"/>
  </g>
  <g class="clothesOverlapLine">
    <path d="M42.21,102.79c.91,10.81-6,17.87-8.13,27.14"/>
    <path d="M103,111.67c1.82,9.67.82,24,1.26,27.32.68,5.12-.35,7.51,0,11.15"/>
    <path d="M72.31,236.93C72,255,68,277.49,69,282.54"/>
    <path d="M45.74,380.62a23,23,0,0,0-14.27-1.9"/>
    <path d="M46.21,378.32a22,22,0,0,0-14.27-1.94"/>
    <path d="M46.61,376.14a20,20,0,0,0-14.26-2"/>
    <path d="M47,373.66c-4.67-2.32-10.14-3.05-14.33-1.67"/>
    <path d="M47.42,371.34a20.74,20.74,0,0,0-14.37-1.74"/>
    <path d="M87.35,376A13.9,13.9,0,0,1,98,372.54"/>
    <path d="M88.69,377.94a15.56,15.56,0,0,1,10.69-3.52"/>
    <path d="M90.26,380A18.18,18.18,0,0,1,101,376.35"/>
    <path d="M91.74,381.79c3.28-2.19,7.64-3.85,11.18-3.6"/>
    <path d="M93.66,383.78c3-2.73,8-3.9,11.44-3.9"/>
  </g>
  <g class="clothesFoldLine">
    <path d="M103.82,118.35a7.6,7.6,0,0,0,3.87-3.24"/>
    <path d="M109.49,121.57a24,24,0,0,1-5.36,4.37"/>
    <path d="M104.2,147.65a6.5,6.5,0,0,1,4.83-.54"/>
    <path d="M54,111.85c-4.6,1.75-8.7,4.1-11.19,8.4"/>
    <path d="M61.61,131.29a29.19,29.19,0,0,0,10.7,10.52"/>
    <path d="M108.87,133.29c-1,.55-1.84,1.17-.6,2.48"/>
    <path d="M109.29,139.14c-.62.5-1.52.86-.49,1.75"/>
    <path d="M16.81,111.65c0,1.43,1.1,1.88,1.75,3.4"/>
    <path d="M26.24,110.64a18.67,18.67,0,0,0,4.56,11"/>
    <path d="M12.62,118.53c1,2.61,11.08,7.46,2.4,7.09"/>
    <path d="M30.61,131.61c-1.72-.4-3.54-1.72-5.39-3.23"/>
    <path d="M27.05,137.69c-4.43-.55-8-5.48-15.15-6.71"/>
    <path d="M7.88,127.46a3.11,3.11,0,0,0,1.71,1.28"/>
    <path d="M4.44,135c1.3-1.06,3.47-.93,5.72-.67"/>
    <path d="M36.6,286.16c2.21,2,3.46,4,.43,5.61"/>
    <path d="M37.93,274a18.34,18.34,0,0,0,5.62,13.17"/>
    <path d="M66.12,290c-2.16,1.38-3.31,3-2.64,5.08"/>
    <path d="M65.27,282.44c-.19,1.81-1.24,3.36-3.7,4.47"/>
    <path d="M54.8,298c3.47,2.08,5.32,6,5.75,11.5"/>
    <path d="M100.16,282.05c-3.17,1.94-6.15,2.38-8.82.26"/>
    <path d="M85.59,283.46c9.55.65,1.41,7.67-9.58,9.07"/>
    <path d="M93.64,295.47c-10.09-.77-4.34-6,3.07-6.77"/>
    <path d="M90.32,298.54a18.83,18.83,0,0,0-15.21.38"/>
    <path d="M97.09,346.71c-4.8,6.35-11.6,4.51-19.42-1.53"/>
    <path d="M74.73,347.86c3.07,3.71,10.09,4.72,10.09,7.16,0,1.66-3.72,3-7,3.19"/>
    <path d="M94.79,358.6c-4.47-4.09-11,2.17-17,5.11"/>
    <path d="M52.88,322.43c-2.94,8.44-.18,17.4-3.58,19s-5,2.55-3.32,5.37c3.81,6.4,5.37,7.54,8.18,5.11"/>
    <path d="M47.51,339.05c-1.4,1.66-5.3,1.73-5.24,4.47.12,4.85,1.45,10.45-4.6,8.05"/>
    <path d="M31.28,355.15c.93-2.87,1.71-3.59,3.2-1.54,3.7,5.12,9.81,5.73,15.72,3.58,3.5-1.28,4.2-1.11,2.81.9"/>
    <path d="M42,294.77c-2.47.43-4.54,2.76-6.23,6.91"/>
    <path d="M79.93,237.83c-9.11-1.55.52-2.8,8.51-3"/>
  </g>
  <g class="strap">
    <path d="M84.72,87.06c4.33,3.64,4.52,7.12,4.89,13.19.7,11.5-1.39,24.44-1.61,38h1.84a238.79,238.79,0,0,1,4.67-23.91c2.8-10.75,2.31-23.21-.94-25.86C90.09,87.72,88.14,87.85,84.72,87.06Z"/>
    <path d="M34.38,143.59c-1,2.17-2,4.25-3,6.25,1.11,1,2.3,2.12,3.58,3.18C35,150,34.69,146.77,34.38,143.59Z"/>
  </g>
  <g class="guitar">
    <path class="guitarSide" d="M61.23,146.88c-8.2,8.91-16.55,14.29-24.32,15C9.63,164.2,5.07,181.4,7,196.89c2.28,18.39,9.24,36,22.19,47.71,3.76,3.41,12.12,3.17,18.13,2.51l53.8-55.52a29.76,29.76,0,0,0-10-.07c-3.57.92-7.67,3-12.13,2.52l.25-52.39C70.57,141.54,65.75,142,61.23,146.88Z"/>
    <g class="guitarFront">
      <path d="M86.06,184.38c-3.13,2.78-3.63,5.57-.52,8,3.32,2.61,7.43,1.31,12.06-.51s6.34,1.34,5.18,5.51c-2.75,9.87-10.46,13.36-17.48,15.45-8.41,2.51-11.23,7.64-15.68,16.12-8.43,16.08-24.69,25.73-36.9,10.41-8.9-11.16-16.34-30.48-17.89-45.28-1.46-14,3.18-29,18.73-30.73C46.17,162,57.49,159.5,65,150.68c5.6-6.6,11.83-11.19,18.73-8,4.17,1.93,5.39,5.13,4.06,10-1.13,4.15-1.46,9.68,3.28,7.14Z"/>
      <path d="M173.7,121.38c1.61-1.77,3.52-3.47,5.68-2.95,7.65,1.84,13-.45,16.63-4.93,1.09-1.34,2.11-1.7,2.72-.51,1.47,2.87,5.66,2.5,7.21-1.47,2.12-5.45-1.62-10.08-5.37-9.72-6.75.67-25.55,2.86-25.55,2.86-4.63.81-6.7,3.12-7.78,7Z"/>
    </g>
    <polygon class="bridgeDark" points="170.1 110.71 168.32 111.88 172.48 124.18 171.4 123.99 167.25 111.69 169.02 110.52 170.1 110.71"/>
    <g class="bridgeGuardLight">
      <path d="M81.39,187.69c-.94,6.38,5.89,10.74,15.08,7.28,4.87-1.83,4.47,1.49,2.46,5.51-2.69,5.39-8.49,8-13.74,9.64-6.87,2.16-12.83,6.51-15.76,13.67L51.49,170.68c9-5.86,19.25-10.91,30.18-10.74,2.19,0,5,1.28,5.38,3.11Z"/>
      <polygon points="168.32 111.88 170.1 110.71 174.24 122.95 172.48 124.18 168.32 111.88"/>
    </g>
    <path class="guitarNeck" d="M80.05,188.64l-1-.16-5.9-17.3,17.85-11.37a3.32,3.32,0,0,1-2.81.48l73.46-46.57c5.78-3.7,5-6.58,7.82-8.08a48.22,48.22,0,0,1,5.5-1c-4.14.85-3.33,3.74-6,5.86l-1.78,1.17Z"/>
    <polygon class="fretboard" points="167.25 111.69 171.4 123.99 80.06 188.64 74.19 171.29 167.25 111.69"/>
    <g class="leather">
      <path d="M87.77,152.67l0,.11c.53,1.48,2.26,2,2.26,0-.15-5.06-.56-10-.16-14.54H88c-.23,2.73-.45,5.23-.56,7.56C88.46,147.6,88.54,149.86,87.77,152.67Z"/>
      <path d="M9.49,211a54.81,54.81,0,0,0,7.18,4,7.67,7.67,0,0,1,4.63,6.49c.19,1.91-1,3.81-3.42,3.29a9.07,9.07,0,0,1-4.37-2.27A64.37,64.37,0,0,1,9.49,211Z"/>
    </g>
    <polygon class="silverDark" points="63.97 200.59 47.3 211.8 46.14 211.7 62.8 200.5 63.97 200.59"/>
    <g class="silverMedium">
      <path d="M73.41,192.7l-1.12-.06a1.39,1.39,0,0,1-1.12-1l-4.81-14.24a2.68,2.68,0,0,1,1.89-3.53,11.71,11.71,0,0,1,1.37,0Z"/>
      <polygon points="57.49 181.4 40.84 192.59 47.3 211.8 46.14 211.7 39.67 192.5 56.32 181.3 57.49 181.4"/>
    </g>
    <g class="silverLight">
      <path d="M67.33,177.41c-1-2.93,2.83-4.93,3.68-2.45l4.8,14.24c.85,2.89-2.91,4.8-3.67,2.45Z"/>
      <polygon points="56.56 182.02 62.8 200.5 47.06 211.08 40.84 192.59 56.56 182.02"/>
      <path d="M65.05,211.93c3.29-2.51,6,3.46,2.4,6L46,234.12c-3.56,2.56-6-3.17-2.39-6Z"/>
    </g>
    <g class="plasticDark">
      <path d="M54.42,204.64l-1.54-.19a1.68,1.68,0,0,1-1.47-1.78l1.22-15a1.75,1.75,0,0,1,2-1.62l1.36.16Z"/>
      <path d="M65.41,217.29c-.72,0-1.24-.9-1.18-1.9s.7-1.77,1.42-1.72l1.93.13-.24,3.61Z"/>
    </g>
    <g class="plasticLight">
      <ellipse cx="67.46" cy="215.6" rx="1.81" ry="1.3" transform="translate(-152.13 268.68) rotate(-86.21)"/>
      <path d="M56.4,203.08l1.19-15a1.84,1.84,0,0,0-3.67-.31l-1.23,15C52.54,205.07,56.25,205.32,56.4,203.08Z"/>
    </g>
    <g class="metalDark">
      <path d="M46.19,233.05c-1.15-.08-2-1.44-1.89-3s1.13-2.84,2.27-2.77l3.1.21-.39,5.8Z"/>
      <path d="M57.55,224.51c-1.15-.08-2-1.44-1.88-3s1.12-2.84,2.26-2.76l3.1.2-.39,5.81Z"/>
      <path d="M175.4,109.71c-.55,0-1-.67-.92-1.44s.52-1.36,1.07-1.33L177,107l-.15,2.77Z"/>
      <path d="M180.33,109.13c-.55,0-1-.67-.92-1.44s.52-1.36,1.07-1.33l1.48.08-.15,2.77Z"/>
      <path d="M185.26,108.55c-.55,0-1-.67-.92-1.44s.52-1.36,1.07-1.33l1.48.08-.15,2.77Z"/>
      <path d="M190.19,108c-.55,0-1-.67-.92-1.44s.52-1.36,1.07-1.33l1.48.08-.15,2.77Z"/>
      <path d="M195.12,107.39c-.55,0-1-.67-.92-1.44s.52-1.36,1.07-1.33l1.48.08-.15,2.77Z"/>
      <path d="M200.05,106.82c-.55,0-1-.67-.92-1.44s.52-1.36,1.07-1.33l1.48.08-.15,2.77Z"/>
      <path d="M42.42,192.68c1.08.4,2.58-1,1.53-1Z"/>
      <path d="M45.06,198c1.07.41,2.57-1,1.52-1Z"/>
      <path d="M47.52,203.44c1.07.4,2.57-1,1.52-1Z"/>
      <path d="M17.94,221.75c.36-.59-.27-2-1-2l-2.2-.24c-1.41.7.62,4.8,2,4.1Z"/>
    </g>
    <g class="metalLight">
      <ellipse cx="49.47" cy="230.35" rx="2.91" ry="2.08" transform="translate(-183.64 264.51) rotate(-86.21)"/>
      <ellipse cx="60.84" cy="221.81" rx="2.91" ry="2.08" transform="translate(-164.51 267.87) rotate(-86.21)"/>
      <ellipse cx="176.95" cy="108.4" rx="1.39" ry="0.99" transform="translate(59.23 279.29) rotate(-86.93)"/>
      <ellipse cx="181.88" cy="107.82" rx="1.39" ry="0.99" transform="translate(64.47 283.67) rotate(-86.93)"/>
      <ellipse cx="186.81" cy="107.24" rx="1.39" ry="0.99" transform="translate(69.72 288.04) rotate(-86.93)"/>
      <ellipse cx="191.74" cy="106.66" rx="1.39" ry="0.99" transform="translate(74.96 292.42) rotate(-86.93)"/>
      <ellipse cx="196.67" cy="106.08" rx="1.39" ry="0.99" transform="translate(80.21 296.79) rotate(-86.93)"/>
      <ellipse cx="201.6" cy="105.51" rx="1.39" ry="0.99" transform="translate(85.44 301.17) rotate(-86.93)"/>
      <path d="M198.6,101.4l.05.6,1.25-.13-.05-.6a2.13,2.13,0,0,0,1-.38,4.14,4.14,0,0,0-.21-3.14,4.62,4.62,0,0,0-3.38.25,4.88,4.88,0,0,0,.21,3.22A1.94,1.94,0,0,0,198.6,101.4Z"/>
      <path d="M193.71,101.93l0,.6,1.26-.14-.06-.59a4.07,4.07,0,0,0,1.32-.38,4.1,4.1,0,0,0-.21-3.14,6.41,6.41,0,0,0-4,.31,4.88,4.88,0,0,0,.21,3.22A3.81,3.81,0,0,0,193.71,101.93Z"/>
      <path d="M188.83,102.45l.06.62,1.25-.14-.07-.61a2.9,2.9,0,0,0,1.19-.38,4.11,4.11,0,0,0-.21-3.13,5.48,5.48,0,0,0-3.71.3,4.88,4.88,0,0,0,.21,3.22A2.8,2.8,0,0,0,188.83,102.45Z"/>
      <path d="M184,102.85l.06.77,1.25-.14-.07-.75a6.49,6.49,0,0,0,1.67-.38,4.11,4.11,0,0,0-.2-3.13,11.84,11.84,0,0,0-4.89.33,4.82,4.82,0,0,0,.22,3.22A6.61,6.61,0,0,0,184,102.85Z"/>
      <path d="M179.08,103.38l.06.8,1.26-.14-.08-.81c.63-.15.38-2.43-.08-3.24a1.89,1.89,0,0,0-1.57.09C178.33,100.8,178.51,103.33,179.08,103.38Z"/>
      <path d="M174.06,103.91l.07,1a8.37,8.37,0,0,1,.89-.21l.35,0-.08-.83a7,7,0,0,0,1.68-.37,4.13,4.13,0,0,0-.2-3.14,11.82,11.82,0,0,0-4.89.34,4.79,4.79,0,0,0,.21,3.21A6.37,6.37,0,0,0,174.06,103.91Z"/>
      <path d="M44.31,191.81c.1.29-.94,1.13-1.89.87l1.76,5.21c.89.26,2-.58,1.86-.87l-1.73-5.21"/>
      <path d="M46.94,197.14c.11.28-.94,1.13-1.88.86l1.76,5.21c.88.27,2-.57,1.85-.87l-1.73-5.2"/>
      <path d="M49.4,202.57c.11.29-.93,1.13-1.88.87l1.76,5.21c.88.26,2-.58,1.85-.87l-1.73-5.21"/>
      <path d="M89.71,145.36c0,1.3.1,2.62.15,3.95l1.14.13C92.18,148.86,91,145.92,89.71,145.36Z"/>
    </g>
  </g>
  <path class="hairBlack" d="M43.75,54.3C35.83,43.18,38,11.44,49.46,10.58,55.65-6.66,114.11-5,114.11,36.52c-2.33-3.21-5.37-6.28-6.34-6.27C87.37,45.51,66.94,60.56,43.75,54.3Z"/>
  <g class="hairOverlapLine">
    <path d="M82,23.35c14.19-8.15,26.88,5.25,32.13,13.17"/>
    <path d="M70.07,21.31c-3,.32-4.54,3.22-5.33,5.49.08-7.76,7.6-11.36,12.31-6.58,4.62-5,16.32-6.08,24-1"/>
    <path d="M49.46,10.58c1.74-.74,10.91.94,13,2"/>
  </g>
  <g class="eye">
    <path class="sclera" d="M104.23,59.3H75.81V48.22h28.42C105.89,51.3,105.7,55.68,104.23,59.3Z"/>
    <g class="irisDarkBrown">
      <ellipse cx="87.69" cy="55.41" rx="3.14" ry="2.42" transform="translate(17.46 131.75) rotate(-79.67)"/>
      <ellipse cx="103.41" cy="55.48" rx="3.14" ry="2.09" transform="translate(30.3 147.27) rotate(-79.67)"/>
    </g>
    <g class="pupil">
      <ellipse cx="88.07" cy="55.48" rx="1.22" ry="0.94" transform="translate(17.7 132.18) rotate(-79.67)"/>
      <ellipse cx="103.89" cy="55.56" rx="1.22" ry="0.81" transform="translate(30.6 147.81) rotate(-79.67)"/>
    </g>
  </g>
  <g class="skinFilipino">
    <path d="M53.42,53c2.33,10.54,2.8,20.35,1.18,24,3,5.87,25.57,6.45,27.3,2.22"/>
    <path d="M37.9,171.68c-7.29-4.5-19.6-4.18-29.73-11.65-2.48-9.26,7.31-17.7,17.29-15.93,3.93,3.53,10.07,10.75,18.66,15,2.28.71,6-2.06,14.22-2.35,5.13-.17,7.43,2.12,11.58,4.12,2.84,1.36,4.64,2.27,3.11,6.13-.83,2.09-1.94,2.55-4.28,3.19,1.1,1.86-1.92,5.14-4.22,4.44.87,1.9-1.61,5.29-5,3.88C57,182,53.59,180,51.53,180,42.87,179.61,41.19,174.14,37.9,171.68Z"/>
    <path d="M108.21,168.71c-4-2.33-1.89-6.76,1.9-5.21a5.22,5.22,0,0,1,3.07,1.69l1.84-1.3a19.77,19.77,0,0,0-1.81-2.43c-3.49.2-4-4.56-.87-4.75,2,.48,4-1.15,6.8,2.81,3.26,4.6,2.52,5.44,3.22,8.06,1.34-2.33,1.92-3.49.66-8.54-4.76-2.72-3.3-7.87-.2-6.41,2.92,2.81,4.57,1.26,6.41,8.06,1.7,6.25-.58,8.06-2.33,12.91-2,4.76-4.85,7.17-8.83,9.42-6.7,3.79-14.57,3.69-13.11-3.89-.49-1.84-2.37-8.44.81-8.69Z"/>
    <path d="M56.73,66.68c-3.17,2.95-5.87-.12-7.1-2.1C48,61.93,44.47,60.44,43.75,54.3,42.68,45.19,53.84,44.52,55.28,52a20.46,20.46,0,0,0,6.41.63C62,41.25,72.34,45.53,72,30.48c6-2.58,19.91-3.52,26.49-1,3-1.17,7.52-.47,9.25.79,1.13,5.63.65,7.69.58,11,0,2.12.41,6-.73,7.43-1.45,1.79.69,2.58-2.22,4.75,0-.29,0-.63,0-1-1.28-.63-4,.61-5.59,2.51-.26.42.35.28.54.38,1.8,1,4.89.87,5.07-1.32,1.76,2.2.18,1.87.65,3.82,3,16.38-8.71,22.35-9.06,24.47C93.62,92.89,82.75,89.43,78.62,87c-4.33-2.54-11.06-4-16.49-10.54m28.7-21.85a5.35,5.35,0,0,0-4.37-2.32,35.75,35.75,0,0,0-7.86,1.47c2.36,1.66,8.55,2.89,11.53,1.49C90.46,55.1,91.39,55.28,90.83,54.61Z"/>
  </g>
  <g class="skinOverlapLine">
    <path d="M55.14,175.46c1.23.11,2.57,2,4.37,3"/>
    <path d="M59.27,169.47c1.77,2.28,3.8,3.33,5.26,5.12"/>
    <path d="M62.23,163.23a48.07,48.07,0,0,1,6.52,6.92"/>
    <path d="M116.69,170.44c.89,1.7.6,3.35.7,4.52"/>
    <path d="M122.36,167.58c.2.93.32,1.93.56,3.11"/>
    <path d="M105.77,170.44c2.68-.21,3.56,3.06,5.31,6.75.19-2.62.73-4.67-2.87-8.48"/>
    <path d="M115,163.89c1.48,2.46,1.08,3.88,1.67,6.55a21,21,0,0,0-3.51-5.25"/>
  </g>
  <g class="skinFoldLine">
    <path d="M69.76,166.83A4.54,4.54,0,0,1,66,167"/>
    <path d="M53.78,54.23c-3.14-10-13.68-1.31-3.82,7.6"/>
    <path d="M53.26,56.21c-1.76,1.31,2.8,4.76.22,5.57-1.62.51-.34-1.72-2.62-2.73-3.55-1.57-1.26-6.21.64-4.37"/>
  </g>
  <g class="skinEdgeLine">
    <path d="M60.56,158.78c-.35,3.34-3.52,2-4.5,5.15-1.6,5.16-3.07,1.9-4,6.82-.52,2.8-2.25,2.39-2.18,4.89"/>
    <path d="M111.08,177.19c2.06,5.07-4.27,7.34-6.12,1.94"/>
    <path d="M116.4,172.89a4.33,4.33,0,0,1-3.28,1.79"/>
    <path d="M121.48,165.43a2.69,2.69,0,0,1-2.17,1.79"/>
  </g>
  <path class="lipMaleBrown__noStroke" d="M92.85,82.83C84.27,83,85.49,76.56,84.1,75c2.81-1.82,6.28-.76,8.32-1.55a10,10,0,0,0,4.85-.44c.67.78,1.69,0,2.4.66-2.51,1.93-.51,7.54-6.82,9.12"/>
  <path class="tongue" d="M84.87,74.91c4.06-1.4,8.76,1.8,13.49-.73,1.54,1.75,2.89,9.27-.47,10-2.54.56-5.25-1.52-7.45-2.92S85.46,79.11,84.87,74.91Z"/>
  <path class="teeth" d="M86.64,74.57c3.42,3,7.32,3.46,9.82.34C93.05,75.77,89.7,74.35,86.64,74.57Z"/>
  <g class="lipOverlapLine">
    <path d="M99.84,73.66a12.2,12.2,0,0,0-1.48.52"/>
    <path d="M83.14,74.86a2.18,2.18,0,0,0,1.73,0"/>
  </g>
  <g class="lipEdgeLine">
    <path d="M92.42,73.49a10,10,0,0,0,4.85-.44"/>
    <path d="M86.24,80.5a7.59,7.59,0,0,0,6.61,2.33"/>
  </g>
  <g class="cheekLine">
    <path d="M101.17,68.39a3.36,3.36,0,0,1,.28,2.43"/>
    <path d="M90.35,66.08c-3.7,1.79-6.08,3.13-9.18,8.92"/>
  </g>
  <g class="noseLine">
    <path d="M98.94,60c1.19,4.7,5,7.89-.1,10.23-2,.9-4.1-.42-6.3-.16-4.12.49-3.26-3.52-2.19-4"/>
  </g>
  <g class="eyeFoldLine">
    <path d="M106,57a2.43,2.43,0,0,1-3,1.38"/>
    <path d="M89.13,58.16c-1.44.84-5.64,1.13-7.55-.52"/>
  </g>
  <path class="eyeCornerLine" d="M76.61,54.13a5.94,5.94,0,0,0,2-.37"/>
  <g class="eyebrowBlack">
    <path d="M92.35,49.72c.27.2.81-1.43.54-1.63-5.1-1.81-11-3.65-16.19-.67-.3.14.31,1.54.61,1.4C81.77,47.12,87.25,48.83,92.35,49.72Z"/>
    <path d="M108.33,46.45A42.43,42.43,0,0,0,101.81,48c-.27.2-.45,1.85-.17,1.65,1.94-.06,3.56-.89,6.12-1.09A5,5,0,0,0,108.33,46.45Z"/>
  </g>
</svg>
