<svg viewBox="0 0 350.96 556.35">
  <path class="frameFront" d="M40.77,27.43Q49.38,288.76,49,550.26H70.7q.12-250.69-6.37-501.34a2607.21,2607.21,0,0,1,262.57,0q-6.67,250.62-6.38,501.34h21.74q-.18-261.47,8.19-522.83A2439,2439,0,0,0,40.77,27.43Z"/>
  <path class="doorExterior" d="M71,47.77Q48,24.33,24.72,1.23q7.79,277.22,7.18,554.58,22.76-1.57,45.49-3.25Q77.77,300.14,71,47.77Z"/>
  <path class="doorSide" d="M14.44,555.79l17.46,0q.75-277.32-7.18-554.58Q16,2,7.31,2.76C12.46,186.62,14.93,371.85,14.44,555.79Z"/>
  <path class="brassDarker" d="M16.09,312l12.48,0q-.32-26.31-.67-52.6l-12.48.09Q15.78,285.72,16.09,312Z"/>
  <g class="brassDarkest">
    <path d="M17.85,276.12l8.08,0c0-3.43-.06-5.15-.11-8.58l-8.09.05C17.78,271,17.8,272.69,17.85,276.12Z"/>
    <path d="M18.14,299.49l8.09,0c-.05-4.21-.08-6.32-.13-10.53L18,289C18.07,293.18,18.09,295.28,18.14,299.49Z"/>
  </g>
  <g class="bronzeDarker">
    <path d="M50.44,141.7c.07,3.39,1.35,6.11,2.86,6.08S56,145,55.9,141.6s-1.36-6.11-2.86-6.08S50.37,138.32,50.44,141.7Z"/>
    <path d="M33.82,312l6.25-2q-.28-24.56-.62-49.11l-6.3-1.5Q33.51,285.65,33.82,312Z"/>
  </g>
  <path class="glassDarkest" d="M51.65,141.68c.05,1.88.76,3.4,1.6,3.38s1.49-1.56,1.44-3.44-.75-3.4-1.59-3.38S51.61,139.8,51.65,141.68Z"/>
  <g class="bronzeDark">
    <path d="M13.11,289.19H11.85c-1,1.59-.95,8.64.12,10.12h1.26Z"/>
    <path d="M39.18,294.7a24.59,24.59,0,0,1,1.3-5.81l-4.34,0c-1,1.65-.93,9,.13,10.53h4.2A24,24,0,0,1,39.18,294.7Z"/>
    <path d="M37.51,277.85c-1.51,0-2.77-2.73-2.81-6.11s1.14-6.13,2.65-6.14h2.37q.09,6.12.17,12.24Z"/>
  </g>
  <g class="bronzeMediumDark">
    <path d="M39.18,294.7c.86,5.26,4.13,13.3,11,11.5,5.48-1.09,9-6.14,9-11.57.79-5.85-4.09-11-9.24-12.55C42.75,280,39.69,289.3,39.18,294.7Z"/>
    <path d="M13.23,299.31H12c-1.07-1.48-1.15-8.53-.12-10.12h1.26c0-1.87,0-3.74-.07-5.6C3.58,279.48.42,289.15.5,294.8c.09,6.2,5.14,13.63,12.8,10C13.26,302,13.22,298.39,13.23,299.31Z"/>
    <path d="M37.07,271.73c0,3.38,1.31,6.11,2.82,6.1s2.7-2.75,2.65-6.13-1.31-6.12-2.82-6.11S37,268.35,37.07,271.73Z"/>
  </g>
</svg>
