<svg viewBox="0 0 70.39 522.36">
  <path class="frameExterior" d="M63.48,25.94q0,231.51-4.25,463.18c-.78.55-1.61.82-2.39,1.37q4.11-227,3.9-453.92A313.73,313.73,0,0,0,4.29,14.65Q10.77,267,9.93,519.79c-1,.53-1.88,1.22-2.85,1.74C7.45,347.88,5.34,173.93.52.66A308,308,0,0,1,63.48,25.94Z"/>
  <g class="gateDark">
    <path d="M49.37,43.56q1.16,220.33-2,440.88l2.46-1.19q3.35-219.47,2.44-438.76Z"/>
    <path d="M41,40q2,224.28-.72,448.82l2.51-1.17Q45.72,264.18,44,40.89Z"/>
    <path d="M32.41,37.34q2.88,228.14.63,456.57l2.58-1.81Q38,264.66,35.46,37.47C34.24,37.41,33.63,37.38,32.41,37.34Z"/>
    <path d="M23.43,33.56q3.84,231.85,2.12,464.06l2.63-1.13q1.89-231.25-1.61-462.24C25.32,34,24.69,33.83,23.43,33.56Z"/>
    <path d="M14.11,30.71Q19,266.1,17.8,501.93c1.08-.42,1.61-.64,2.69-1.08q1.34-234.94-3.14-469.56C16.06,31,15.41,30.93,14.11,30.71Z"/>
    <path d="M11.93,296.18q22.76-2.91,45.51-5.87c0-3.8.05-5.71.08-9.51q-22.85,2.38-45.68,4.9C11.88,289.89,11.9,292,11.93,296.18Z"/>
  </g>
  <path class="mesh" d="M12.46,505.18C26.89,497.41,41,488.93,55,479.9q3.67-216.37,3.34-432.59A331,331,0,0,0,7.65,28.61Q13.26,266.66,12.46,505.18Z"/>
  <g class="gateLight">
    <path d="M56.63,368c-8.07,1.16-9.78-14.55-10.94-21.41-3.27-19.42-4.26-39.17-4.48-59.17.32-20.26,1.4-40.34,5-60.26,1.42-7.87,3.3-23.31,11.84-24.06Q57.61,285.57,56.63,368Z"/>
    <path d="M4.29,14.65A313.73,313.73,0,0,1,60.74,36.57q.16,226.88-3.9,453.92C41.49,501,25.91,510.88,9.93,519.79Q10.67,267,4.29,14.65Zm8.17,490.53C26.89,497.41,41,488.93,55,479.9q3.67-216.37,3.34-432.59A331,331,0,0,0,7.65,28.61Q13.26,266.66,12.46,505.18Z"/>
  </g>
  <path class="escutcheon" d="M52.6,304.26l6.9-1.12q.18-17.83.34-35.67l-7,.48Q52.75,286.1,52.6,304.26Z"/>
  <path class="knobMountDark" d="M52.54,294.07c-.91.06-1.64-3.08-1.61-7s.81-7.15,1.73-7.19l3.25,0q-.06,7.08-.13,14.17Z"/>
  <path class="knobMountLight" d="M57.51,286.89c0,3.9-.82,7.11-1.73,7.17s-1.64-3.07-1.6-7,.81-7.14,1.73-7.17S57.55,283,57.51,286.89Z"/>
  <path class="knobLight" d="M58.89,293.89c3.53-1.49,5.29-2.24,8.83-3.72A3.17,3.17,0,0,0,66.29,284l-9.35,0C54.25,285.4,57.44,294.37,58.89,293.89Z"/>
  <path class="knobDark" d="M53.36,290.77a3.62,3.62,0,0,0,3.76,3.51A3.71,3.71,0,0,0,61,290.77a3.63,3.63,0,0,0-3.77-3.52A3.7,3.7,0,0,0,53.36,290.77Z"/>
  <path class="knobEdgeLine" d="M56,287.45c3.13-.86,4.71-1.28,7.85-2.13"/>
</svg>
