<svg viewBox="0 0 500.12 558.06">
  <path class="frameMediumFront" d="M499.61,3.11Q250.08-2.11.51,3.11q4.83,277.2.18,554.45h20q4.07-265.3.2-530.64,229.19-4,458.4,0-3.88,265.31.2,530.64h20Q494.78,280.36,499.61,3.11Z"/>
  <path class="doorMediumFront" d="M479.3,26.92q-229.2-4-458.44,0,3.88,265.31-.2,530.64H479.51Q475.45,292.26,479.3,26.92Z"/>
  <path class="doorBorderLine" d="M250.14,24.58v533"/>
  <g class="edgeMedium">
    <path d="M445,66.23q-80.61-1-161.21-1.27-.4,228.2,0,456.4,80.67-.2,161.34-1.3Q442.6,293.16,445,66.23Z"/>
    <path d="M55,520.05q80.67,1.13,161.34,1.31.43-228.19,0-456.4-80.61.26-161.2,1.27Q57.54,293.14,55,520.05Z"/>
  </g>
  <g class="glassLight">
    <path d="M63.77,508.86q72,.9,144.09,1.11.49-217.55,0-435.1-72,.27-144,1.09Q66,292.41,63.77,508.86Z"/>
    <path d="M436.35,508.86q-72,.9-144.09,1.11-.5-217.55,0-435.1,72,.27,144,1.09Q434.16,292.41,436.35,508.86Z"/>
  </g>
  <g class="bronzeMediumDark">
    <path d="M226.07,404.41c0,4.48,3.34,8.12,7.46,8.13s7.48-3.64,7.48-8.13-3.34-8.12-7.47-8.12S226.07,399.92,226.07,404.41Z"/>
    <path d="M226.09,201.74c0,4.49,3.34,8.12,7.46,8.12s7.47-3.64,7.47-8.13-3.35-8.12-7.47-8.12S226.08,197.25,226.09,201.74Z"/>
    <path d="M274.05,404.41c0,4.48-3.34,8.12-7.46,8.13s-7.48-3.64-7.48-8.13,3.34-8.12,7.47-8.12S274.05,399.92,274.05,404.41Z"/>
    <path d="M274,201.74c0,4.49-3.34,8.12-7.46,8.12s-7.47-3.64-7.47-8.13,3.35-8.12,7.47-8.12S274,197.25,274,201.74Z"/>
  </g>
  <g class="bronzeDarker">
    <path d="M229.09,398.2c1.55.81,6.91.81,8.47,0q0-94.72,0-189.45c-2.1-1.46-6.75-1.27-8.46,0Q229.14,303.47,229.09,398.2Z"/>
    <path d="M271,398.2c-1.55.81-6.91.81-8.47,0q0-94.72,0-189.45c2.1-1.46,6.75-1.27,8.46,0Q271,303.47,271,398.2Z"/>
  </g>
</svg>
