<svg viewBox="0 0 350.77 556.11">
  <path class="frameDarkFront" d="M324.68,26.32A2333.27,2333.27,0,0,0,.52,27.17Q10.65,288.8,8.84,550.68l3.77.16q9.53.27,19,.5,1.26-251.52-6.38-503A2512.75,2512.75,0,0,1,300,47.7q-7.28,252-6.07,504.14l19-.43,3.77-.15Q315.47,288.75,324.68,26.32Z"/>
  <path class="doorDarkFront" d="M280.81,48.46Q303.67,24.69,326.9,1.24q-6.15,277.13-7.24,554.34-22.62-1.49-45.23-3.05Q276,300.49,280.81,48.46Z"/>
  <path class="doorDarkSide" d="M337.14,555.4l-17.48.18q.81-277.2,7.24-554.34l17.41,1.34C340,186.39,337.45,371.54,337.14,555.4Z"/>
  <path class="brassDarker" d="M336.61,281.67l-12.35.05.27-20.37,12.36,0Q336.74,271.51,336.61,281.67Z"/>
  <path class="brassDarkest" d="M334.51,276l-8,0c0-3.43.07-5.15.11-8.57l8,0C334.58,270.81,334.56,272.52,334.51,276Z"/>
  <g class="bronzeDarker">
    <path d="M339.16,284.91l-.06,4.62c7.42.4,6.89,11.35,6.83,16.34-.07,5.17.17,15.86-7.22,16.45l-.06,4.61c10.23-1.06,11.48-12.84,11.61-21.09C350.38,298.09,349.43,285.4,339.16,284.91Z"/>
    <path d="M319,283.6l-6.2-.9q.15-11.32.31-22.66l6.22-.73Z"/>
  </g>
  <g class="bronzeDark">
    <path d="M344.13,265.53l-4.7-.69q-.09,6.82-.19,13.64l4.72-.74C348,277.11,348.35,266.13,344.13,265.53Z"/>
    <path d="M314.43,279.31c1.82,0,3.35-3.4,3.4-7.59s-1.37-7.57-3.2-7.56h-2.86l-.21,15.15Z"/>
    <path d="M309.79,264.27H313c.39,3.31.58,5,1,8.28-.47,2.72-.7,4.09-1.17,6.82h-3.24Q309.68,271.82,309.79,264.27Z"/>
  </g>
  <g class="bronzeMediumDark">
    <path d="M313.1,264.81c.34,2.95.54,4.61.9,7.73-.42,2.46-.66,3.82-1,6.07,1.15-1.2,2-3.83,2-6.88S314.24,266,313.1,264.81Z"/>
    <path d="M309.59,279.37c.46-2.73.7-4.09,1.17-6.82-.39-3.31-.58-5-1-8.28h-1.08l-1.2,8.29c.4,2.73.6,4.09,1,6.82Z"/>
  </g>
</svg>
