<svg viewBox="0 0 291.24 240.43">
  <g class="post">
    <path d="M287,239.83l-21.27,0c-.44-95.56.59-141.83,3.2-237.35q10.92.36,21.83.77C287.64,98.51,286.44,144.52,287,239.83Z"/>
    <path d="M25.55,239.85l-21.27,0C4.8,144.52,3.59,98.51.52,3.27q10.91-.4,21.82-.77C25,98,26,144.29,25.55,239.85Z"/>
  </g>
  <g class="plankLight">
    <path d="M225.66,239.9l40-.05c-.44-95.56.59-141.83,3.2-237.35q-20.53-.65-41.08-1.11C226.06,97.31,225.37,144,225.66,239.9Z"/>
    <path d="M105.6,239.92h40V.5q-20.55,0-41.1.22C105.4,96.88,105.74,143.76,105.6,239.92Z"/>
  </g>
  <g class="plankDark">
    <path d="M145.62,239.93h40c-.15-96.16.2-143,1.07-239.2Q166.18.52,145.62.5Z"/>
    <path d="M65.57,239.9l40,0c.14-96.16-.2-143-1.08-239.2Q84,1,63.43,1.39C65.18,97.31,65.87,144,65.57,239.9Z"/>
  </g>
  <g class="plankMedium">
    <path d="M185.64,239.92l40,0c-.29-95.94.4-142.59,2.15-238.51Q207.26,1,186.71.72C185.84,96.88,185.49,143.76,185.64,239.92Z"/>
    <path d="M25.55,239.85l40,.05c.3-95.94-.39-142.59-2.14-238.51Q42.88,1.86,22.34,2.5C25,98,26,144.29,25.55,239.85Z"/>
  </g>
  <g class="beam">
    <path d="M23.28,23.54q.41,17.91.78,35.82,121.54-2.84,243.12,0,.36-17.91.78-35.82Q145.64,20.2,23.28,23.54Z"/>
    <path d="M25.65,178q0,17.91,0,35.83,120-.37,239.9,0,0-17.91,0-35.83Q145.62,177.17,25.65,178Z"/>
    <path d="M210.55,58.31,25.65,178q27.95-.21,55.89-.31L267.18,59.36Q238.86,58.7,210.55,58.31Z"/>
  </g>
  <g class="steelMedium">
    <path d="M13.2,55.16,24,54.89Q23.69,41.45,23.38,28l-10.82.31Q12.89,41.75,13.2,55.16Z"/>
    <path d="M15.05,209.43l10.62,0q0-13.42,0-26.87L15,182.59Q15.06,196,15.05,209.43Z"/>
    <path d="M23.86,49.6Q40.93,46.52,58,43.55c0-2.29-.05-3.44-.09-5.73q-17.2-2.31-34.42-4.5Q23.69,41.45,23.86,49.6Z"/>
    <path d="M25.68,204.11q16.86-2.73,33.74-5.43c0-2.3,0-3.44,0-5.74q-16.86-2.59-33.74-5.13Q25.69,196,25.68,204.11Z"/>
  </g>
</svg>
