<svg viewBox="0 0 177.89 302.91">
  <path class="frameLightFront" d="M.52,3.34Q5.46,152.83,5.18,302.41H17.59Q17.7,159,14,15.61a1476.35,1476.35,0,0,1,150,0Q160.11,159,160.3,302.41h12.41q-.14-149.57,4.67-299.07A1377,1377,0,0,0,.52,3.34Z"/>
  <path class="doorLightFront" d="M163.92,15.61A1476.35,1476.35,0,0,0,14,15.61Q17.79,159,17.59,302.41H160.3Q160.21,159,163.92,15.61ZM43.36,149.75Q42.9,95.57,42.09,41.39q46.86-1.26,93.71,0-.81,54.18-1.27,108.36Q88.95,149.38,43.36,149.75Z"/>
  <path class="bronzeMediumDark" d="M138.87,166c0,4.74,4.59,9.13,9.22,9.35,4.9.24,9.34-4.54,9.39-9.2s-4.31-9.53-9.21-9.37C143.63,156.89,138.91,161.2,138.87,166Z"/>
  <path class="glassLight" d="M43.36,149.75q45.58-.37,91.17,0Q135,95.57,135.8,41.39q-46.85-1.26-93.71,0Q42.9,95.57,43.36,149.75Z"/>
  <path class="flatRedDark" d="M96.61,102.75q0,7.38,0,14.75-7.65,0-15.28,0l0-14.75-14.87.09q0-7.61-.08-15.2,7.45-.06,14.92-.09l0-14.75q7.73,0,15.45,0l0,14.75q7.47,0,14.93.09l-.09,15.2Q104,102.78,96.61,102.75Z"/>
</svg>
