<svg viewBox="0 0 112.56 436.57">
  <circle class="hairRedDark" cx="55.71" cy="84.52" r="33.31"/>
  <g class="soleTan">
    <path d="M47.58,419.73c-.14,3.2-.38,7.08-1.17,8.14a7.1,7.1,0,0,1-4.59,2.81C43,426,44.88,422.3,47.58,419.73Z"/>
    <path d="M62.12,420.16c-.16,3.37.27,6.47.76,7.32a8.36,8.36,0,0,0,4.49,3.2A16.58,16.58,0,0,0,62.12,420.16Z"/>
  </g>
  <g class="maraShoe">
    <path d="M83.93,406.12c2.59,4.3,2.84,12.11,6.31,14.56,4.18,2.95,5.43,8.37,2.22,10.85-7.54,5.85-24.31,4.45-27.06-4.06-1.17-3.59-2.05-3.72-3.28-7.31-1.37-4,.41-14.75,2.28-15.14Z"/>
    <path d="M46.36,404c2,3.84,2.52,9.73,1.22,15.78-.53,2.49-4.09,6.75-5.38,10.21-1.74,4.66-15.2,8.71-22.54,4.83-6.5-3.43-4.5-8.6-1.05-12.41,4.23-4.67,3.11-4.86,6.5-10.77Z"/>
  </g>
  <path class="maraDress" d="M79.53,98.26c-16.47,6.41-30.7,6.29-44.87-.74-.94-.51-9.18,3.06-12.37,4.62-2.84.13-6.58,43.28-3,57.72-3.66,21.76-7.16,52.49-7.67,74.06-.33,13.9-2.05,26.85-1.64,39.85,11.78,6.51,88,4.52,92.35-.2a114.79,114.79,0,0,0-.6-20.06c-1.38-13.07-.29-25.75-2-36.34-1.44-9-2.11-35.22-8.74-58,5.28-12.89,1.58-57,.55-57.37C87.42,100.22,83.15,98.44,79.53,98.26Z"/>
  <path class="clothesDisplayLine" d="M89.59,159.07c-6.48,3.4-62.65,3.76-69.34,1.13"/>
  <g class="clothesOverlapLine">
    <path d="M90,150.55c-2.3,3.69-5.77,6.32-11.94,6.46"/>
    <path d="M20.82,151a12.41,12.41,0,0,0,10.1,6.55"/>
  </g>
  <g class="clothesFoldLine">
    <path d="M23.88,165.72c1.25-2.83,5.55-2.27,6.11,2.6"/>
    <path d="M51.15,165.6c2.38-1.58,6-.56,5.55,3.51"/>
    <path d="M59.41,169.34c.12-4.3,5.89-5.55,6.23-1.59"/>
    <path d="M72.26,230.53c-4,18.67-16.2,34.07-35,37.87"/>
    <path d="M96.44,275.41c0-6.22,0-13-.31-19.19"/>
    <path d="M17.6,275.89c-.5-6.84.31-16.51.3-26.64"/>
    <path d="M68.34,144.79c-7.62,1.17-16.7,1.34-21.53.26"/>
    <path d="M64.08,148.17A81.13,81.13,0,0,1,45,147.6"/>
  </g>
  <path class="hairRed" d="M77.13,75.81c-.19,24.52,3.55,29,14.21,27.8A9.34,9.34,0,0,0,102.41,99c5.42,1.72,9.86-3.39,9.89-5.83C104.5,95.62,101,88.47,103.7,81c9.6-27.08-2.41-37.41-4-48.42C96.83,12.75,74.89.51,57.82.26,39.21,0,21.54,7.41,16.34,31.73c-2.53,11.8-11.41,28.57-3.84,49,3.74,10.07-2.15,14.82-7.83,10.1.89,5.34,3.73,9,9.27,7.87,2.05,3.84,7.1,6.2,11.43,3.73,7.22-.17,10.53-4.59,9.3-20Z"/>
  <path class="maraHeadband" d="M32.36,18.13C41.09,3.94,75.41,3.22,79.89,25.44,68.49,12.07,48.12,10.61,32.36,18.13Z"/>
  <g class="hairOverlapLine">
    <path d="M91.34,103.61a6.27,6.27,0,0,0,4.1-2.68,7.82,7.82,0,0,1-7.78-.47"/>
    <path d="M25.37,102.38c-2-.08-3.55-.64-4.32-1.92,2.49.64,5.14-.08,7.91-1.72"/>
    <path d="M79.89,25.44c.6,3.9-.82,7.09-.4,10.62"/>
    <path d="M32.36,18.13C25.14,21.78,20.63,28.06,27,39.32"/>
    <path d="M30.07,25.44A10.89,10.89,0,0,0,28,25.11"/>
  </g>
  <g class="eye">
    <circle class="sclera" cx="51.38" cy="60.55" r="22.85"/>
    <g class="irisGreen">
      <circle cx="63.73" cy="50.62" r="3.4"/>
      <circle cx="39.15" cy="50.16" r="3.4"/>
    </g>
    <g class="pupil">
      <circle cx="63.73" cy="50.62" r="1.32"/>
      <circle cx="39.15" cy="50.16" r="1.32"/>
    </g>
  </g>
  <g class="skinAshkenazi">
    <path d="M56.7,277.9c-14.23.12-28.6-.41-37.91-1.82.66,20.33,6.28,49.89,6,55.08C23,369.84,31.53,376,29.64,401.68c-.1,1.39-2.74,5.13-4.28,9.25a100.49,100.49,0,0,1-4.7,11c2.55-.47,9.73-.1,12.88,1.41,6.51-6.08,11.65-10.92,12.82-19.41,1.46-13.66,2.28-26.38,4-38.18,2-13.91.35-26.84,1.19-35.47C53.31,312.11,54.85,291.33,56.7,277.9Z"/>
    <path d="M89.5,327.76c-.22-10.06,4.38-33.24,4.52-52-8.55,1.19-22.44,2-36.57,2.11,1.41,22.89,4.17,45.77,3.76,53.2C59.86,356.2,70.76,388,64.4,405c-.8,3.45,6.41,11.94,10.52,17.64a32.06,32.06,0,0,1,12.73-.8c-1.59-6.89-5.11-19.23-4.56-23.69C86.64,369.32,89.78,341,89.5,327.76Z"/>
    <path d="M70.15,83.35c-.46,10.75.3,12.21,9.38,14.91-1.64,11.3-9.83,17-23.54,16.59-14.16-.43-22-5.92-21.86-17.37,9.89-2.42,8.8-6.2,8.53-14.9"/>
    <path d="M70.15,83.35c-.46,10.75.3,12.21,9.38,14.91-1.64,11.3-9.83,17-23.54,16.59-14.16-.43-22-5.92-21.86-17.37,9.89-2.42,8.8-6.2,8.53-14.9"/>
    <path d="M43.43,91.05c-5.94-7.83-18.85-11.31-16-36.21.72-6.25-3.23-15.09,2.6-29.4,5.46,1.53,6.41,6.15,15,8.8C57.09,38,67.61,39,79.49,36.06,82,48.8,77.54,63.17,77.13,75.81c-3.9,9.25-10.74,11-16.72,15.52C56.5,94.32,46.61,95.24,43.43,91.05ZM59.09,52a17.79,17.79,0,0,0,4.76.83c2.84,0,4.2-1.24,6.2-2.19-2-1.11-3.33-2.48-6.37-2.48-2.85,0-4.37,1-5.59,3.12C57.6,52.12,58.64,51.91,59.09,52Zm-14.18-.91a5.85,5.85,0,0,0-6-3.46c-3,.07-4.35,1.59-6.15,2.54,1.06,1.4,3.13,2.18,5.81,2.34a12.11,12.11,0,0,0,5.26-.78C44.25,51.55,45.38,52.05,44.91,51.08Z"/>
    <path d="M72.23,217.9c-1.76-5.24-4.06-6.24-7.13-8.92-7.74-7.87-14.42-3.33-18.56-5.95-11.64-6.82-17.73-21.9-27.09-31.46a36.08,36.08,0,0,1,.8-11.37c0-2.58-.64-6.13.57-9.25-2.18-6.57.9-19.57,2.28-27.15.49-2.68-1.27-14.56-1.21-20.41a8.46,8.46,0,0,1-1.42-.08c-10,3.43-15.4,11.58-15.79,24-.3,9.37-2.63,20.5-3.52,32-.78,9.94-1.83,18.23.58,22,10.08,15.84,24.73,22,37.39,31.28C43.67,223.91,50,223.91,52.05,226.9c2.24,4.17,5.77,3.69,6.35,1.66a3.77,3.77,0,0,0,4.65-1.39c2.4.59,4.21-1.48,4.32-4.41,1.1,6.68,6.13,5.13,6,3.27C73.26,223.69,73.68,222.21,72.23,217.9Z"/>
    <path d="M95.36,104a9.06,9.06,0,0,1-4-.35l-.13,0c-4.5,29.89,3.35,36.59-1.19,46.9.14,7.53-1.42,10.86-.18,20.58-8,5.32-12,23.41-24.66,32.53-5.05,2.62-20,.31-28.83,12.54-1.77,2.36.35,5.24,1.69,4.58-1.18,2,1.19,5.15,3.22,4.18a2.85,2.85,0,0,0,4.24,1.93c1.27,1.76,2.87,2.06,4.4,1.27,7.25-3.4,18.64-6,23.79-14.46,8.37-8.16,14.19-8.94,21.85-18.09,8.16-9.76,13.61-21.11,13.66-26.08.18-17.92-2.33-20.22-2.69-36.9C106.23,119.35,105,109.17,95.36,104Z"/>
  </g>
  <g class="skinOverlapLine">
    <path d="M63.15,215.05c2.91,3.18,4.38,3.1,4.22,7.71"/>
    <path d="M59,219.16c3.05,2.78,4.7,2.72,4,8"/>
    <path d="M54.83,222c1.86,2.94,4,3.36,3.57,6.57"/>
    <path d="M38,220.78a17.09,17.09,0,0,1,3.5-3.38"/>
    <path d="M41.26,225a27.56,27.56,0,0,1,3.36-3.71"/>
    <path d="M45.5,226.89c1-.74,2-1.62,3.18-2.59"/>
  </g>
  <g class="skinFoldLine">
    <path d="M89.84,171.13A11.52,11.52,0,0,1,92.05,170"/>
    <path d="M19.45,171.57a5.21,5.21,0,0,0-3.67-1"/>
  </g>
  <g class="skinCreaseLine">
    <path d="M82.07,326.4c-3,1.84-8.73,2.2-11.8.55"/>
    <path d="M41.06,326.53c-2.91,1.17-8,1.26-10.42,0"/>
  </g>
  <g class="maraStrap">
    <path d="M85.26,412.09c-.31-1.29-.61-2.58-.88-3.85-3.48-3.57-14.66-2.33-19.1.51a34,34,0,0,0,2.45,4.11h0C72.27,410.29,80.11,409.59,85.26,412.09Z"/>
    <path d="M44.74,409.8h0c-4.55-3.43-12.61-4.41-17.68-2.65a38.64,38.64,0,0,0-1.95,4.44h0a17.5,17.5,0,0,1,17.17,2.52A24.13,24.13,0,0,0,44.74,409.8Z"/>
  </g>
  <g class="watch">
    <path class="maraWatchBand" d="M79.19,210.08c-3.25-3.51-6.46-7.17-9.69-10.94-.62-.69-3.82,2.19-3.2,2.89,3.13,3.87,6.48,7.37,9.66,10.83C76.65,213.6,79.85,210.84,79.19,210.08Z"/>
    <circle class="watchFace" cx="72.73" cy="206.1" r="3.85"/>
  </g>
  <path class="clothingGold" d="M72.85,95.57c-3.71,17.85-29.64,17.33-32.68-.22-.1-.56-1.67-.42-1.4,1.12,3.28,18.62,31.14,19.13,35.63.26C74.8,95.06,73,94.82,72.85,95.57Z"/>
  <path class="lipFemaleMedium__noStroke" d="M42.85,73.76a6.94,6.94,0,0,0,.8,0c4.59,3.3,10.53,2.41,17,0,.23,0,.46.06.69.09-1.44,1.51-1.21,3.27-3.52,5.92C53,85.36,43.57,83.77,43,77.2,42.89,76.15,43,75,42.85,73.76Z"/>
  <path class="lipFemaleMedium" d="M43.65,73.78a20.58,20.58,0,0,0-2.95,0c6.1-2.62,8.48.08,10-.63,3.11-1.4,7.16-.63,11.51.79a10.77,10.77,0,0,1-1.64-.14C54.22,76.13,48.25,77.09,43.65,73.78Z"/>
  <path class="lipEdgeLine" d="M57.79,79.79C53,85.36,43.57,83.77,43,77.2"/>
  <path class="mouthInner" d="M43.65,73.78c.6,4.3,3.91,5.67,7.09,5.67,5.2,0,6.27-3,9.88-5.67-4.38-.64-7.37,1-10.7.86C47.72,74.54,46.57,73.61,43.65,73.78Z"/>
  <g class="teeth">
    <path d="M50.86,77.52a10.81,10.81,0,0,0,9.36-3.79c-3.85-.45-6.63.84-9.57.92C50.61,75.94,50.59,77.45,50.86,77.52Z"/>
    <path d="M49.49,77.49a17.4,17.4,0,0,0,.12-2.87c-2-.17-3.18-1-6-.84C44.24,76.91,47.06,77.55,49.49,77.49Z"/>
  </g>
  <g class="cheekLine">
    <path d="M42.72,66.12c-.93,1.09-3.32,4.55-3.4,5.67"/>
    <path d="M56.94,64.2c1.31.37,2.26,2.26,4,3.89,2,1.85,3.88,4.07,4.15,5.41"/>
  </g>
  <g class="noseLine">
    <path d="M45.91,57.32c-.79,4.41-5.31,8.25-2,10.92"/>
    <path d="M56.94,64.2c1,.45,1.33,2.8-.21,3.83"/>
    <path d="M54.21,67.93c-2.31,0-5.36,3.47-9.61-.32"/>
  </g>
  <g class="eyeFoldLine">
    <path d="M34.2,53.31a9,9,0,0,0,8.87.68"/>
    <path d="M59.3,54.46c3,1.84,7.2,1.31,10-.53"/>
  </g>
  <g class="eyeCornerLine">
    <path d="M32.77,50.16a4.26,4.26,0,0,1-2,.41"/>
    <path d="M72.27,51.18a10.61,10.61,0,0,1-2.22-.55"/>
  </g>
  <g class="eyeCreaseLine">
    <path d="M44.44,48.37c-3.68-5.3-9.52-1.59-10.24-.63"/>
    <path d="M69,48.36c-4.1-3.2-8.56-1.79-11.35.89"/>
  </g>
  <g class="eyebrowRed">
    <path d="M57.05,42.18c1,3.31,4.51,1.76,8.2,1,6.63-1.28,9.34,2.86,10,2.16C69.54,38,59.84,42,57.05,42.18Z"/>
    <path d="M45.35,42c-.8,3.62-3.61,1-7.37.9-7.14-.22-7.83,2.69-8.58,1.69C36,37.78,42.68,41.64,45.35,42Z"/>
  </g>
</svg>
