<svg id="Layer_1" data-name="Layer 1" xmlns="http://www.w3.org/2000/svg" viewBox="0 0 1261.24 4315.94">
  <defs>
    <style>
      .cls-1 {
        fill: #82726c;
      }

      .cls-1, .cls-10, .cls-11, .cls-12, .cls-13, .cls-14, .cls-15, .cls-16, .cls-2, .cls-20, .cls-3, .cls-4, .cls-5, .cls-6, .cls-7, .cls-8, .cls-9 {
        stroke: #000;
        stroke-miterlimit: 10;
        stroke-width: 2px;
      }

      .cls-2 {
        fill: #b39b7e;
      }

      .cls-3 {
        fill: #cfc0aa;
      }

      .cls-4 {
        fill: #82664c;
      }

      .cls-5 {
        fill: #a18644;
      }

      .cls-6 {
        fill: #ddb4a2;
      }

      .cls-7 {
        fill: #664530;
      }

      .cls-8 {
        fill: #805d49;
      }

      .cls-9 {
        fill: #a39670;
      }

      .cls-10 {
        fill: #b0a279;
      }

      .cls-11 {
        fill: #916a53;
      }

      .cls-12 {
        fill: none;
      }

      .cls-13 {
        fill: #ad5445;
      }

      .cls-14 {
        fill: #7fb2c9;
      }

      .cls-15 {
        fill: #719eb3;
      }

      .cls-16 {
        fill: #edeff2;
      }

      .cls-17 {
        fill: #2a491f;
      }

      .cls-17, .cls-18 {
        opacity: 0.5;
      }

      .cls-19 {
        fill: #b38584;
        opacity: 0.2;
      }

      .cls-20 {
        fill: #c09e77;
      }
    </style>
  </defs>
  <g id="soleTan">
    <path class="cls-1" d="M856,4208.09c1.28,13.87-1.06,27.1-9.13,39.33-20,20.75-75.18,40.83-125,47.36l-7.13-9.54c-115,46.84-274.62,35.86-295.61-16Z"/>
    <path class="cls-1" d="M429.87,4189c1.38,6.91.12,15.1-3.05,22.4-17.15,19.57-99.94,41.62-150,30.5l-5.08-9.74c-97.38,25.42-239.79,63.21-270.3-28.64Z"/>
  </g>
  <g id="wadeShoe">
    <path class="cls-2" d="M650.9,4285.81c64-17.53,152.84-19,205.06-77.72-1.73-41.15-9.58-69.91-30.7-104.52-113.64-57.9-192.48-69.69-210.18-.53-77.44,126.95-212.81,81.68-196,166.16C462.75,4299.87,576.77,4306.12,650.9,4285.81Z"/>
    <path class="cls-2" d="M204.82,4229.74c91.38-24.49,138,10.15,225.05-40.78,4-40.62,2.94-67-10.23-100.67C294,4012.2,219.85,3993.19,216.83,4053,139.92,4154.14-8.1,4118.32,1.44,4203.48,34.69,4244,111.22,4254.82,204.82,4229.74Z"/>
  </g>
  <path id="wadePants" class="cls-3" d="M336.7,2814.47c-46.59,259.42-50,404.37-61.41,475.43-8.73,54.36-33.88,72-5.29,114.36-13.77,510.37-57.18,459.55-24,503.21,8.5,82-45.08,108.63-29.14,145.53,8.08-18.79,36.9-20.48,60.1-9.56,11.91,5.59,7.66,16.23.59,36.58,9.84,15.9,119.46,19.37,142.12,8.27,30.07-14.73-4.86-43.89,13.29-64.73,19-21.76,1.49-69.9,3.5-112.35,58.49-65.89,1.3-185.73,49.41-362.77,36.86,106.82,68.41,249,102.6,411.28,13,61.86-16.35,79.89,34.83,97.17,2.4,11.21-9.71,27.8-8.19,46.15,9.28-24.32,24.93-22.87,49.68-13.81,18.45,6.75,18.87,17,12.62,27.15,17.74,7.23,35.29,21.25,54.19,24.9,35.68,6.89,60.39-25.76,102.84-37.94,6.25-11.19-21.39-14.15-7.12-35.88,6.77-35.5-29.89-45.4-26.82-75.74,41.37-70.3-18.77-34.93-45.9-320.3-3.14-33.06-20.8-117-33-142.69-8.35-17.56,25.94-49.53-18.84-69.92,53-88.1,5-100.18,6.58-123.8,9.9-148.26,16.93-351.77,41.74-410.05,50.06-117.65,73.67-235.94,18.25-359.76-96.86,49.14-380.12,90.4-453.39,61.42C326.12,2749.88,300.73,2781.66,336.7,2814.47Z"/>
  <g id="beltTan">
    <path class="cls-4" d="M407.36,2652.16c.3,14.33,3.53,40,7.39,56.23,60.34-1.58,135-9.5,203-21.35-.35-16.76-5.39-43.44-10.33-57.61C538.94,2642.4,465,2651,407.36,2652.16Z"/>
    <path class="cls-4" d="M775.55,2580c-32,16.78-85.3,32.39-144.83,44.78,5,14,10.11,41,10.47,57.94,67.37-12.95,125.26-29.68,151.47-47.61C800.12,2630.25,783.53,2578.63,775.55,2580Z"/>
    <path class="cls-4" d="M317.07,2642.64l1.35,59.43c17.29,4.53,43.41,6.59,74.75,6.6-3.89-16-7.17-41.83-7.53-56.42C355.05,2651.81,330.81,2648.79,317.07,2642.64Z"/>
  </g>
  <path id="clothingBrass" class="cls-5" d="M334.18,2718.38c-1.95,8.86-20,3.06-22.18-6.54-1.85-8.29-2-68.61-.34-76.62,1.32-6.53,20.78-.62,22.28,7.05S336,2710,334.18,2718.38Z"/>
  <path id="skinGallic" class="cls-6" d="M91.69,1289.91c20.16,61.09-11,83.27-17.15,122.36,75.3,54.52,145.15,76.88,204,34,8.65-18.3,16.07-46.17,16.43-60.75C258.53,1306.07,177,1295.13,91.69,1289.91Z"/>
  <g id="bottle">
    <path id="labelReverse" class="cls-7" d="M81.6,1286.53c2.88.92,3.45,8.12,2.05,19l147.22,47.18c1.65-10.84,1.41-17.94-1.1-18.74Z"/>
    <ellipse id="bottleBottom" class="cls-8" cx="22.17" cy="1331.42" rx="53.17" ry="11.89" transform="translate(-1252.51 946.24) rotate(-72.23)"/>
    <path id="beerSide" class="cls-9" d="M396.66,1422.25l-14.85-4.75c-1.31-.41-3.13,1.12-5.15,4q-41.88-17.57-81.71-36c-10.46-5.1-16.21-11.21-20-17.32-.1,3.76-57.42,6.8-134.06,6.8-75.18,0-136.72-2.93-139.16-6.59-.55,12.17,1.64,21.15,7.82,23.08L201,1452.65c20.33,6.49,30.4,5.86,42.86-1.69,7.58-4.17,17-7.65,31.86-5.19q43.13,8,87.46,18c-.05,3.56.54,5.87,1.85,6.29l14.85,4.74c3.25,1,9.63-9.89,14.27-24.4S399.91,1423.28,396.66,1422.25Z"/>
    <path id="beerTop" class="cls-10" d="M1.61,1368.21c0,3.76,62.53,6.81,139.25,6.81s134.07-3,134.07-6.81-57.36-6.81-134.07-6.81S1.61,1364.45,1.61,1368.21Z"/>
    <path id="bottleSide" class="cls-11" d="M272,1362.85c3.76,7.8,9.42,16.09,23,22.69q39.8,18.45,81.71,36c2-2.93,3.84-4.46,5.15-4l14.85,4.75c3.25,1,2.12,13.63-2.51,28.15s-11,25.43-14.27,24.4L365,1470.06c-1.31-.42-1.9-2.73-1.85-6.29q-44.31-9.94-87.46-18c-14.86-2.46-24.28,1-31.86,5.19-12.46,7.55-22.53,8.18-42.86,1.69L9.52,1391.51c-24.27-7.6,12.85-123.87,37-116L238,1336.64C258.37,1343.13,266.21,1349.48,272,1362.85Z"/>
    <path id="bottleCreaseLine" class="cls-12" d="M376.66,1421.55a112.31,112.31,0,0,0-13.48,42.22"/>
    <path id="bottleOverlapLine" class="cls-12" d="M390.93,1432.19a148.34,148.34,0,0,0-10.25,31.29"/>
    <g id="label">
      <path class="cls-13" d="M81.6,1286.53c-5.82-1.87-18.86,22.58-29.12,54.6-5.2,16.22-8.69,31.27-10.11,42.42h0l149.12,47.78c1.68-11.06,5.32-26.06,10.52-42.28,10.26-32,22.69-56.66,27.76-55Z"/>
      <path class="cls-13" d="M333.1,1402.8a153.26,153.26,0,0,0-12.93,23.56,216,216,0,0,0-1.23,27.89c-10.84-2.24-21.6-4.35-32.33-6.4A110.47,110.47,0,0,1,299,1425.4a286.88,286.88,0,0,1,5.47-35.52Q318.64,1396.39,333.1,1402.8Z"/>
    </g>
  </g>
  <g id="wadeShirt">
    <path class="cls-14" d="M414.16,1781.13c-13.78,5.06-43.89-14.88-74.28,19.09-17,14.72-57.38-5.14-63.27,26.6a69.22,69.22,0,0,0-33.33.8h0c9,25.5,6.31,144-1.12,174.44,26.53-3.39,39.85-14.44,65.63-10.18,34.73,5.75,53.51-16.77,75.19-14.67l128.39-221C475.29,1759.73,440.78,1767,414.16,1781.13Z"/>
    <path class="cls-14" d="M315.9,2626.62c73.27,29,356.53-12.28,453.39-61.42,13.59-58.28-29.37-116.64-19.64-159.59,29.17-36.47,5.67-69.7,8.91-81.86,26.75-19.45,0-57.54,14.4-81.1,72.64-1.76,135.83-12.3,185.74-35.18q-9.21-12.7-10.49-34.46c15.4-25.93-15.4-83.48-19.45-102.12-16.21-63.21-21.25-132.13-41.34-160.46,3.7-23.44-1.57-45.75-20.32-66.37-27.49-41.42-55.34-90.37-91.88-100l-259.5,2.56c-53,47.06-65.33,93.76-100.79,152.42-44.57,73.75-74.16,187.45-88.34,295-8.1,81.05-37.28,154-34,236.65C295.48,2505.44,299,2575.08,315.9,2626.62Z"/>
  </g>
  <g id="wadeShirtInner">
    <path class="cls-15" d="M958.7,2207.47c13,18.71,7.24,56.37,16.86,93.49-10.66,24.66-169.94,46.32-181.94,38.33-9.23-6.16,2.67-22-2.66-30.66-14-18.66,6-28-1.34-38-15.33-1.12-21.3-10.1-16.66-28C845.6,2240.89,908.79,2230.35,958.7,2207.47Z"/>
    <path class="cls-15" d="M526.62,1742.58c.74-7.5,1.06-10.83,1.9-19.37-21.12,11.2-31.48,12.6-42.14,22.68-5.88,4.28-14.25,27.28-15.32,52.44,12.26-22,30.1-35.23,45-50.48,5.46,20,7.83,54.7,5.86,88.46,51.26-42.64,169.9-88.16,253.3-92.21.92-18.34-7.29-53.41-21.46-60.87-10.66-8.53-151,31.46-227.14,59.35"/>
    <path class="cls-15" d="M243.28,1827.62c-5.73-9.82-19.89-6-27,2a25.17,25.17,0,0,0-7.81-4.11c-37.79,3.31-109.11,105.41-78.56,172,2.05,17.1,103.79,20.32,110.11,10.55C249,1994.16,253.1,1855.45,243.28,1827.62Z"/>
  </g>
  <g id="clothesDisplayLine">
    <path class="cls-12" d="M477.09,2019.47c38.24,9.53,92,12,149.13,16.39"/>
  </g>
  <g id="clothesOverlapLine">
    <path class="cls-12" d="M699.23,1983.08c-3.18,39.22,31.48,70.82,30,109.22-.85,22.77,19.26,33.58,15.71,72-2.63,28.36,25.61,47.14,28,78.33"/>
    <path class="cls-12" d="M336.7,2814.47c41.57,55.62,4.53,73.36,47,101.91-26.79,39.8,7.48,38.69,13,98.39,5.16,55.67,19,175.74,45.33,298.49,17.8,82.89,5.53,140.4,40.9,182.41-6.85,16.21-4.42,38.7,2.93,52.77"/>
    <path class="cls-12" d="M677.38,4116.38a343.74,343.74,0,0,1-25.27,41.06"/>
    <path class="cls-12" d="M277.52,4080c-2.73,8.1-11.3,21-20.36,30.85"/>
  </g>
  <g id="clothesFoldLine">
    <path class="cls-12" d="M187.92,1867.84c-3.21,48.87-6.73,96.08-20.3,89.37"/>
    <path class="cls-12" d="M216.26,1829.62c17.41,68.89-10,170.46-13.88,78.93"/>
    <path class="cls-12" d="M276.61,1826.82c-2,15-3.47,30.86-17.86,25.2"/>
    <path class="cls-12" d="M265,1947.42c9.48-35.53,22.52-12.14,36.28,23.29"/>
    <path class="cls-12" d="M325,1838.14c-42.32,29-25.37,75.62,18.81,130.33"/>
    <path class="cls-12" d="M384.61,1791.56c14.92,13.56,32.94,23.59,53.74,30.46"/>
    <path class="cls-12" d="M388.64,1858.74c-25.22-31.33-22.84,23.29,7.61,58.67"/>
    <path class="cls-12" d="M852.09,1873c13.24,25.27,24.27,21,35.33,37.4"/>
    <path class="cls-12" d="M928.17,2134.8c-7.19,40.3-98.82,2.4-141.52,7.2"/>
    <path class="cls-12" d="M948.21,2173c-10.44,16-35.74,26.6-17.16,32.79"/>
    <path class="cls-12" d="M772.74,2164.54c26.87,10.08,139.41,11,130,25.91-13.92,22.06-67.64,43.17-117.06,13"/>
    <path class="cls-12" d="M789.62,2270.64c66.59-3,137.59-23.11,66.11,13.83"/>
    <path class="cls-12" d="M798.65,2308.46c36.89,1.94,78.13-5.67,121.85-18.71"/>
    <path class="cls-12" d="M433.58,2109.85c57.09,25.91,173.8,53.24,35,111.3"/>
    <path class="cls-12" d="M528.57,2127.6c54.5,42.84,122.45,56.75,197.16,56.13"/>
    <path class="cls-12" d="M481.55,2239.38c73.31-32,158-41.08,250.9-33.58"/>
    <path class="cls-12" d="M532.88,2374.66c69.56-32.62,113.7-20.15,30.71,36.94"/>
    <path class="cls-12" d="M748.76,2286.39c-54.87,28.64-108.92,55.82-138.64,39.82"/>
    <path class="cls-12" d="M758.56,2323.75c-129.73,40.83-198.81,128.62-34.75,48.51"/>
    <path class="cls-12" d="M749.65,2405.61c-34.95,32.85-127.54,61.63-25.36,94.73"/>
    <path class="cls-12" d="M725.25,2526.73c-43.81-11.6-90.4,24.83-138.66,90.08"/>
    <path class="cls-12" d="M549.67,2475.88c128.09-91.15,136.41,20.15-1.75,144.39"/>
    <path class="cls-12" d="M342.92,2608.76c29.74-26.38,52.28-24.71,22.54,23"/>
    <path class="cls-12" d="M398.08,2599.65c-4.31,12.47-14.68,27.73-14.4,36.47"/>
    <path class="cls-12" d="M487.31,2568.46c-18.82,24.65-38.68,47.68-60.91,67"/>
    <path class="cls-12" d="M487.31,2597.25c-10.72,11.75-21.08,23.59-28.32,36.2"/>
    <path class="cls-12" d="M771.11,1898.13c-19.31,20.26-85.27,153.64-33.23,96.14"/>
    <path class="cls-12" d="M753.83,1877.75c-23.93,32.34-54.5,137.79-40.32,34.11"/>
    <path class="cls-12" d="M700.66,1860.47c-8.73,44.85-12.92,87.51-1.43,122.61-18.64-8.22-34.92-22.44-46.87-47.74"/>
    <path class="cls-12" d="M674.52,1894.58c1.14,29.86,5.56,55.37,19.8,67.81"/>
    <path class="cls-12" d="M383.67,2916.38c7.26,6.34,35.55-.73,17.87,24"/>
    <path class="cls-12" d="M577.2,3261.07c33,67.2,80.63,133.94,127.32,114.35"/>
    <path class="cls-12" d="M270,3404.26c17.38,19.09,29.49,35.95,32.51,49"/>
    <path class="cls-12" d="M281.29,3381.32c.2,22.47,50.69,40.08,79,69.56"/>
    <path class="cls-12" d="M482.91,3495.67c28.27,31.83,75.17,49.78,45.95,67.2"/>
    <path class="cls-12" d="M702.72,3458.81c-26.59-9.66-32-22.79-6.45-40.94"/>
    <path class="cls-12" d="M684.48,3481.53c28,27.44-4.52,35.78-64.84,35.36"/>
    <path class="cls-12" d="M709.24,3845.81c31.68,47.3,63.14,93.35,87.24,97.85"/>
    <path class="cls-12" d="M800.47,3991.72c-19.32,21.5-62.36,32.44-28.75,46.26"/>
    <path class="cls-12" d="M624.36,3926c22.39,49.51,86.79,111.76,10.61,95.49"/>
    <path class="cls-12" d="M623.27,4056.89c31.63,16.86,103.2,8.37,106,27.06,2.11,14.05-16.51,17.69-41.26,4.72"/>
    <path class="cls-12" d="M257.71,3888.25c27.07,4.73,43.15,12.93,36.55,28.3"/>
    <path class="cls-12" d="M436.43,3911.21c-13.41,12.19-25.18,17.2-36.07,18.31"/>
    <path class="cls-12" d="M258.89,3948.38c21.22,69.56,96.19,83.17,85.06,96.85-10.73,13.19-65-7.25-89.78-37.9"/>
    <path class="cls-12" d="M390.11,4043.51c-35.73,3.9,10.25-23.22,27.93-43.26"/>
  </g>
  <g id="skinGallic-2" data-name="skinGallic">
    <path class="cls-6" d="M151.81,1266.08c-13.06-2-22.61,4.57-25.81,13.36h0c-8.36-4.31-11.11-13.2-19-13.72-12.92-.37-18.42,7.61-16.27,24.2L157,1311.1l23.3-22.7C166.63,1279.43,162.15,1267.7,151.81,1266.08Z"/>
    <path class="cls-6" d="M294,1385.54c-8.16-21.85-3.53-46.56-11.54-57-10-16.69-24.92-17.9-41.49-14,.28-11.86-7-21.07-18.63-30-13.88-10.69-28.78-2.54-46.14,5.92-10.58,6.78-13.54,16.09-24.55,26.25-8,16.51,20.74,31.32,47.46,7.81l15.59,5c-5.9,7.47-10.94,11.38-15.37,15.17-12.33,20.24,19,38.9,45.22,10.76,6.16,1.1,12.94-.35,20.08-3.35C272.81,1360.84,270.58,1373.8,294,1385.54Z"/>
    <path class="cls-6" d="M207.86,1454.92c7.12-9,19.1-18.36,30-26.22-14.61-24.34-8.61-60.29,19.47-56.92,6,3,7.92,23.27,14,30.51,9.77,11.61,16.31,21.92,9.94,35.4-11.05,23.4-10.48,38.19-23.84,50.17-19.23,17.26-24,31.12-58.35,37.07-14.19,155.23,6.19,230.27,8.39,298.44.94,29.34-29.34,54.9-48.27,68.15-5.89,33.89-16.41,69.37-30.29,106-32.52-2.92-64.4-6.19-73.83-27.45-52.06-117.37,27.4-280.16,38.75-460,1.8-12.51-29.48-46.48-20.27-97.81Z"/>
    <path class="cls-6" d="M812.19,2977.58c19.73,1.91,27.73-9.54,37.95-36.89,21.58-57.75.5-152.69,13.29-180.27,27.45-117.37,101.23-265,103.12-373.87.52-29.91,2.23-51-3.26-76.07-35.64,18.69-141.13,33.22-166,30.05-6.3,142.64,2.6,265.44-33.79,394.59-10.81,37.55-47.09,50.91-77.55,120.91-17.27,28.64-12.76,41.57-22.11,64.34-10.41,25.37-23.3,44.58-13.34,51.4-16.4,17,6.57,20.21,15.15,31.65,12.49,16.66,33.32,16.95,50.48,8.11,16.87,8.88,33,6.71,46.66-6.46C788,3015.12,802.82,2994.71,812.19,2977.58Z"/>
    <path class="cls-6" d="M535.93,1637.14l-10.31,105.44c65.91-24.12,179.77-57.3,216.2-60.3L735.88,1631"/>
  </g>
  <g id="skinOverlapLine">
    <path class="cls-12" d="M813.19,2977.58c4.89-11,11-25.65,12.63-37.06"/>
    <path class="cls-12" d="M763.75,3005.07c11.78-15.45,19.42-32.81,24.18-51.51"/>
    <path class="cls-12" d="M717.09,3011.53c9.95-7.23,23.58-35.56,27.66-55.93"/>
    <path class="cls-12" d="M699.53,2875.34c-17.12,59.89,7.33,49.29-15.08,89.63-11.3,20.35-29.83,11.44-33,6.8"/>
    <path class="cls-12" d="M127,1279.44c-2.59,9.51.92,17.65,9.29,24.71"/>
    <path class="cls-12" d="M241.92,1314.58c-9.51,4-21.08,10.08-26.27,14.91"/>
  </g>
  <path id="skinCreaseLine" class="cls-12" d="M178.64,1526.58c-41.59-2.31-38-13-64.69-17.17-8.15-1.26-15.27-3.28-21.23-8.86"/>
  <g id="head">
    <rect id="sclera" class="cls-16" x="290" y="722.37" width="147.05" height="146.81"/>
    <path id="irisGreen" class="cls-17" d="M341.47,846.81c-5,0-17-20.15-17-45s12-45,17-45A255.28,255.28,0,0,1,341.47,846.81Z"/>
    <path id="pupil" class="cls-18" d="M330.47,819.31c-4,0-6-7.84-6-17.5s2-17.5,6-17.5A136.67,136.67,0,0,1,330.47,819.31Z"/>
    <g id="skinGallic-3" data-name="skinGallic">
      <path class="cls-6" d="M930,941.37c-42.29,37.54-61.31,90.11-123.47,70.44-11.65,73.36-15,156.68-68.14,212-41.8,43.56-100.49,70.22-161.61,96.18-56.13,23.84-111.11,48.43-190.19,57.31-54.74,6.16-100.65-17.26-90.67-68.71,12.43-64.09,10.25-85.25-24.72-93.35-19.76-43.22,27.09-61.79,67.75-63.56-43.31-10.6-92.37-33.14-91.56-53.26.84-20.74,19.41-62.51,1.76-69.48-34.75-13.73-79.49-6.46-85.08-45.6-4.8-33.62,114.52-158.28,116.58-179.64,3.44-35.69-30.55-67.88-29.59-106.89,1.37-55.16,16.47-154.14,41.34-209.19C237,106.05,1377.4,680.76,930,941.37ZM326,813.87c21.31-3.71,45.74-9,71.25-15.16-27-1.08-52-2.11-72.38-3C324.08,799.43,323.83,809.91,326,813.87Z"/>
    </g>
    <path id="lipMaleLight__noStroke" class="cls-19" d="M348.43,1151.59c-40.17-12.27-78.85-33.43-101-53.12-.81,20.12,48.25,42.66,91.56,53.26-40.66,1.77-87.51,20.34-67.75,63.56C327.9,1203.85,335.32,1164.27,348.43,1151.59Z"/>
    <g id="skinFoldLine">
      <path class="cls-12" d="M858.09,822.15c46.79-150.19,206,11.32,35.47,109.43"/>
      <path class="cls-12" d="M849.79,852.33c30.94,12.83-5.6,40.12-8.81,61.89-2.92,19.77,16.36,14.34,21.76.07,4.23-11.17,13.07-27.24,33.84-34,34.49-11.28,34-70.19-6.79-58.87"/>
    </g>
    <path id="lipEdgeLine" class="cls-12" d="M271.23,1215.29c10.64.26,29.26-9.24,43.89-18.47"/>
    <g id="noseLine">
      <path class="cls-12" d="M315.18,961c18.74,13.49,18,56.22-17.24,63.71"/>
      <path class="cls-12" d="M285.2,1013.26c-20.1-10.52-40.56-14-61.46-9"/>
    </g>
    <g id="eyeLidLine">
      <path class="cls-12" d="M324.83,795.68c-25.94,1-13.72-33.4,3.49-62.57"/>
      <path class="cls-12" d="M326,813.87c-23.57,6-16.84,31.94,8.09,35.93"/>
    </g>
    <path id="eyeCornerLine" class="cls-12" d="M397.21,798.71c6.64.06,13,0,19.13-.52"/>
    <path id="eyeCreaseLine" class="cls-12" d="M372.66,783.29c-20.51-4-44.87-6.37-62.78-6.37"/>
    <path id="eyebrowSandy" class="cls-20" d="M270.65,664.06c6.46,34.63,37,38.74,84.54,36.4,14.09-1.18,42.25,14.13,71,28.76,4.93,3,16.09-12.05,11.15-15C361.06,641.75,334.64,678.73,270.65,664.06Z"/>
    <path id="hairSandy" class="cls-20" d="M697.18,792.74c41.11,4.09,87.7,3.13,137.73-1,87.94-163.27,257,16.9,95.12,149.62,13.54,44.6,44,73,86.21,90.17C1176.11,960.76,1264.72,768,1237.15,587c5.29,3,10.53,7.58,15.76,13.4-3.54-34.39-15-72.14-30.28-111.5,12.39,2.59,26.45,12.48,37,23.89-7.81-40.49-33.37-75.16-68.72-102.9,21.11-6,40.73.3,59.07,17-16.61-41.72-43.58-71.69-82.7-87.87,10.79-37,13.36-77.41,11.82-119.62-11.62,27.76-29.1,44.42-54.64,45.78.32-38-13.55-71.68-36.19-102.64.66,21.3-.9,39.49-8.86,48.74-30.63-30.58-46.24-64.87-50.42-113.15-16.54,20.91-30.72,39.63-36.71,67.37-26-48.5-75.36-73.1-101.89-132.91-6.55,27.4,2.9,66.15-13.29,67.19-34.35-34-75.73-57-123.31-70.15,18,15.9,36.83,34.8,31,51C725.17,50.22,659.35,51.24,616.42,3.07c3.7,29.17,10.09,55.73,20.67,78.27-56.66-19.43-109.36-30-152.85-19.94,17.35,9.85,31.16,21.22,38.4,35.45C494.3,109,463.92,83.3,411.88,105.71c21.45,10.58,40.25,21.31,50.95,32.49-60.58,0-114.62,18.76-161,59.81,23.2-2.92,45.47-1.72,66.46,5.16-49,16.22-91.88,39.59-125.53,73.84,15.91-.69,31,1.44,45,7.39-30.68,29.34-54.58,63.66-70.14,104.11,21.62-14.5,42.06-24.36,60.54-26.58-32.75,61.58-27.1,113.25,34,150.63-10.81-22.1-14-43.59-6.65-64.24,34.14,34.22,76.38,40.65,123.32,31-20.5-9.54-36.95-17.43-48.48-31,50.45,18,104.79-45.08,159.23-25.15C505.82,682.28,714.08,623.21,697.18,792.74Z"/>
  </g>
</svg>
