<svg id="Layer_1" data-name="Layer 1" xmlns="http://www.w3.org/2000/svg" viewBox="0 0 1208.88 3982.82">
  <defs>
    <style>
      .cls-1 {
        fill: #bfbcb8;
      }

      .cls-1, .cls-10, .cls-11, .cls-12, .cls-13, .cls-17, .cls-18, .cls-2, .cls-3, .cls-4, .cls-5, .cls-6, .cls-7, .cls-8, .cls-9 {
        stroke: #000;
        stroke-miterlimit: 10;
        stroke-width: 2px;
      }

      .cls-2 {
        fill: #ccc;
      }

      .cls-3 {
        fill: #d9d9d9;
      }

      .cls-4 {
        fill: #8a755e;
      }

      .cls-5 {
        fill: #a19960;
      }

      .cls-6 {
        fill: #93989e;
      }

      .cls-7 {
        fill: none;
      }

      .cls-8 {
        fill: #737163;
      }

      .cls-9 {
        fill: #a39e7a;
      }

      .cls-10 {
        fill: #797d82;
      }

      .cls-11 {
        fill: #e6e6e6;
      }

      .cls-12 {
        fill: #ddb4a2;
      }

      .cls-13 {
        fill: #edeff2;
      }

      .cls-14 {
        opacity: 0.5;
      }

      .cls-15 {
        fill: #2a491f;
      }

      .cls-16 {
        fill: #b38584;
        opacity: 0.2;
      }

      .cls-17 {
        fill: #c09e77;
      }

      .cls-18 {
        fill: #807573;
        opacity: 0.75;
      }
    </style>
  </defs>
  <g id="shoe">
    <path class="cls-1" d="M931.42,3719.12A173.61,173.61,0,0,0,905,3680.57l-193.69,42.34c-10,34.18-35.4,65.12-65.13,89-22.1,19-49.22,15.82-64.54,43.93l142.67,57.86C778.89,3942,954.61,3780.33,931.42,3719.12Z"/>
    <path class="cls-1" d="M416.66,3918.77c5.84-22,6.56-49.95,1.79-78L259,3746.8c-24.12,19.29-56.37,44.29-149.85,49.24-38.31-2.62-83.06,4.64-94.9,37.6C110.72,3916.9,368,4008.5,416.66,3918.77Z"/>
  </g>
  <g id="soleWhite">
    <path class="cls-2" d="M931.42,3719.12c10.25,13.85,17.72,29.78,18.44,48.27,1.67,42.29-45.22,78.53-97.08,105.76-24,12.61-42.29,30-59.12,42.31-35,25.56-68.09,29-97,29.4-46.11.63-104.6-18.16-116.46-37.23-10.24-16.49-8.9-40.44,1.41-51.83,42.3-8.68,106.6,8.85,143.48,45.73,33.62-1.47,71.44-16.55,112.51-46.27C893.22,3815,935,3767.26,931.42,3719.12Z"/>
    <path class="cls-2" d="M416.66,3918.77c-3.87,22.21-14.37,44.59-29.41,56.54-11.93,9.49-59.33,9.48-94.75-5.88-31.28-13.56-66.37-18.34-90.58-20.31-24.6-2-151.79-19.71-190.89-49.21-15.4-11.62-12.07-52,3.18-66.27,42-7.14,81.25,4.86,119.45,42.86,24.55,24.41,52.41,35.25,82.49,44.41,29.84,9.09,61.61,17.33,93.47,25,22.9,5.49,38.45,4.51,57.8-1.43C384.72,3939.14,400,3931.66,416.66,3918.77Z"/>
  </g>
  <g id="shoelace">
    <path class="cls-3" d="M780,3760.05c-23.29-16.07-54.26-21.13-78.75-12.31a249.39,249.39,0,0,1-55.08,64.13c17.35-4.34,54.78-.46,74.3,9.84,20.83-11.33,43.39-36,59.53-61.66Z"/>
    <path class="cls-3" d="M199.73,3845.27c25.78-2.65,59.17-20.11,92.77-42.69h0c-14.08-19.5-44.68-34.51-62.74-35.11h0C190.2,3790,143.12,3792.64,109.11,3796,147.35,3797.83,172.64,3815.81,199.73,3845.27Z"/>
  </g>
  <path id="pants" class="cls-4" d="M466.2,3058.82c-20.34,74.58-32.55,179.48-63.28,253.11-32.08,76.89-32.15,163.23-63.79,216.34-21.77,36.53-16.31,85.38-37.81,104.47-47.83,42.47,13.56,57.63-72.32,126.55,67.8-16.95,126.56,88.14,200,107.35,20.34-150.28,93.79-57.63,94.92-174,.68-70,40.59-114,82.39-258.67,12.43,28.25,4.52,42.94,24.86,75.71,15.38,24.77,24.79,100.61,57.37,118.34,6.78,20.34-24.86,41.81,2.26,61,16.57,11.73,20.72,24.43,10.17,47.46,75.7-42.94,108.47,55.36,220.33-50.85-4.51-41.81-45.56-114.59-41.54-151.11,6.67-60.66-36.59-51.89-46.33-98.31-35.48-169.16-96-287-108.47-381.92,22.59-52,33.94-134.69,66.66-214.68,30.51-74.58,41.81-146.89,69.64-232.6,33.84-104.24,53.17-195.2,19.56-279.68l-513.53-1.84c4.52,21.47-6.39,59,1.74,97.17,19.4,91.13,4.52,120.9,35,306.21,6.56,39.85,16.95,146.89,32.77,204.52C445.82,2966.18,450.38,3014.76,466.2,3058.82Z"/>
  <path id="backpack" class="cls-5" d="M849.89,1891.26c1.12,3.37,0,392.57,0,392.57,46.84-8,88.67-21.08,117.81-47.12C967.7,2032.75,978.92,1891.26,849.89,1891.26Z"/>
  <g id="jacket">
    <path class="cls-6" d="M359.92,1927.2c-21,25.72-31.41,64.06-41.41,78.41-11.49,16.5-48,35.25-49.33,73.12-.67,19.39-47.58,67.84-44.05,100.43,1.51,14-34.36,23.79-45.81,81.94,35.88,13,64.46,39.11,88.1,74,54.62-12.33,54.62-49.33,95.14-81Z"/>
    <path class="cls-6" d="M816.43,1486.25c68.55,20.87,138.22,24,115.58,87.94,19.57,9.52,28.36,22.64,30,39.54.85,8.62,21,1.15,16.29,36.4,15.41,12.69,31.57,63.53,48.1,83.94,27.74,34.25,20.13,61,29.56,77.06,27.58,47,23.13,75.66,40,106.48,12.29,22.37-7.68,44.9-1,120.47,4,45.37,21.69,104.42,0,123.51-14.1,12.41,8.21,58.31-4.22,90.78-22.82,59.56,9.24,87-13.73,108.73-16.51,15.65,1.22,37.4-27.44,69.67-35.72-16.09-74.43-21.68-115.73-18.24-24.34-50.63-5.7-62.57-13.81-78.45-11.45-22.44,12-80.4,3.76-98.53-11.28-24.82,2.72-59.93-3-87.25-8.29-39.58-5.26-76-5.26-126.36-32.84-36.63,26.3-31.18-12.79-50.39,1.86,34.15-8.72,87.16-2.43,108.55s-12.59,28.52-15.46,46.09v42.16c5.19,24.22,26.92,38.71,15.65,75.74-5.63,19.32,15.29,47.16-4.83,62-11.77,8.67-.8,21.74-10.53,33.24-34.08,18.82-65.69,10-105.54,14.42-117.63,13.19-199.34,13.29-257.26,5.5-57.16-7.7-117.63,1.1-154.12-14.31-17.66-42.31-6.62-80.7-20.46-139.75-17-72.56,8.14-130.19,3.23-179.31-5.12-51.14,5.88-110.06,3.67-128.81-7.31-62-4.21-119.48,13.79-171,23.2-70.14,9.8-116.59,26.63-174.85Z"/>
  </g>
  <g id="clothesDisplayLine">
    <path class="cls-7" d="M507,1684.42c-15.64,54.49-20.57,139.19-30.93,212.32-13.28,93.72-5.56,219.21-12.15,310.94-3.6,50.26-.12,111.43-.29,147.81"/>
    <path class="cls-7" d="M520.84,2586.73c-43.9-29.53-37.17-74.86-51.48-91.56-26.89-31.37-.69-50.31-13.1-71.67-9.75-16.8-8-45.69,5.22-68.06"/>
  </g>
  <g id="clothesOverlapLine">
    <path class="cls-7" d="M825.38,1779.22c4.84,20.57,23.59,20,26,38.72,7.46,57.8,42.74,71.79,49.22,105.07,2.7,13.9-20.18,38.93,2.21,48.54,43.25.48,117.65-30.77,118.95-17.25,2.4,24.91-54.14,20.6-98.7,30.19"/>
    <path class="cls-7" d="M725,3054.3C671.71,3162,647.74,3315.69,606.31,3434"/>
    <path class="cls-7" d="M466.2,3058.82c15.16-44.87,13.06-93.69,23-152,15.56-91,10-247.36,31.61-320.06"/>
    <path class="cls-7" d="M263.8,3820.52c-16.59-22-41.49-39.13-64.62-39.6"/>
    <path class="cls-7" d="M277.63,3812.23c-16.33-20.48-38.65-35.31-60.9-38.13"/>
    <path class="cls-7" d="M292.5,3802.58c-14.08-19.5-44.68-34.51-62.74-35.11"/>
    <path class="cls-7" d="M736.46,3810.75c-21.8-13.58-51.45-19.17-75.49-12.12"/>
    <path class="cls-7" d="M749.53,3798.77c-19.94-14-49.66-21.08-76.52-12.72"/>
    <path class="cls-7" d="M761.88,3785.05c-21.06-15-53.93-19-77.78-12.34"/>
    <path class="cls-7" d="M771.43,3772.71c-19.59-16.84-53.79-19.9-78.13-12.66"/>
    <path class="cls-7" d="M780,3760.05c-23.29-16.07-54.26-21.13-78.75-12.31"/>
    <path class="cls-7" d="M224.9,3839.11c-10.28-22.17-42.7-46.29-71-48"/>
    <path class="cls-7" d="M245.57,3830.24c-11.94-22.53-40.46-42.14-68.6-43.25"/>
  </g>
  <g id="clothesFoldLine">
    <path class="cls-7" d="M396.3,2462.09c25.5,33.08,38.6,80.63,78.57,101.31"/>
    <path class="cls-7" d="M618.22,2392.48c-38.84,28.35-70.78,59.7-85.46,98.56"/>
    <path class="cls-7" d="M527.94,2521.36c22.74-50.31,62.71-78.57,75.81-64.78,14.09,14.84-69.61,50.31-82.91,130.15"/>
    <path class="cls-7" d="M315.3,3705.64c-24.72-43.48.27-54,34.95-21.31,44.33,41.77,91.27,73.12,53.71,100.59"/>
    <path class="cls-7" d="M498.58,3623c-45.18,10.23-58.91,42.54-100.59,37.51-50.54-6.1-67.78-17.58-45.18-42.62"/>
    <path class="cls-7" d="M696.88,3441.7c60.47,73.54,116.36,125.79,150.89,78.43"/>
    <path class="cls-7" d="M707.4,3572.9c10.23,77.57,87.81,40.92,93.78,118.49"/>
    <path class="cls-7" d="M688.54,3628c47,33.55,80,26.81,84.5,41.22,4.61,14.62-16.19,16.2-44.32,8.52"/>
    <path class="cls-7" d="M434.65,1874.72c-12.12,14.26-28.68,23.14-48.79,29.52"/>
    <path class="cls-7" d="M425.64,1908.93c-13,8.22-31.14,24.35-34.57,42.15"/>
    <path class="cls-7" d="M534.91,2026.43c27.75,30.32,61.7,50.07,102.06,58.91"/>
    <path class="cls-7" d="M535.6,2064.79c20,13.62,32.38,30.72,35.62,52.05"/>
    <path class="cls-7" d="M320.52,2064.1c-11.25,6.25-22.43,8.24-33.56,5.48"/>
    <path class="cls-7" d="M274,2131.23c13.7,16.44-21.92,44.52,32.87,61"/>
    <path class="cls-7" d="M288.33,2211.37c-31-3.79-6.85,37-.68,68.49"/>
    <path class="cls-7" d="M202.71,2234.65c36.3-39.72,43.15,2.74,60.28,40.42"/>
    <path class="cls-7" d="M379.43,2272.33c30.82,28.08,76.08,45.8,36.3,58.9"/>
    <path class="cls-7" d="M565.05,2300.41c3.07,15.38-1.8,28.21-17.12,37.67"/>
    <path class="cls-7" d="M583.55,2299c5.06,46.75,19.75,58.26,50.68,10.27"/>
    <path class="cls-7" d="M644.51,2308.63c-5.2,13.78-5.57,25.41,3.42,32.88"/>
    <path class="cls-7" d="M808.21,2253.15c-32.88,17.81-58.3,60.68-83.56,66.44"/>
    <path class="cls-7" d="M876,2239.45c-68.5,25.34-89,47.26-.68,41.1"/>
    <path class="cls-7" d="M895.75,2306.07c-17.67,8-41-12.51-80.69,22.42"/>
    <path class="cls-7" d="M865.54,2036.55c-8.79,31-26.41,59.4-55.18,84.66"/>
    <path class="cls-7" d="M866.29,2072.08c47.4-13-48.37,58.2-43.08,68.78"/>
    <path class="cls-7" d="M863.27,2176.38c-4.42-15.47-5-32.34-3.78-49.88"/>
    <path class="cls-7" d="M808.09,1851.37c-19.8-35.29,4.62-29,37-15.12"/>
    <path class="cls-7" d="M759.72,1727.41c30.26,12.12,52.43,31.92,58.2,67.27"/>
    <path class="cls-7" d="M813.38,1721.37c-21.16-93.73-44.59-41.57-6.8,14.36"/>
    <path class="cls-7" d="M820.19,1625.38c3.73,81.59,11.85,126.9,35.52,43.83"/>
    <path class="cls-7" d="M932,1574.19c-19.61,24.73-25.1,44.83,16.67,47.41"/>
    <path class="cls-7" d="M952.46,1645c-25,6-58.3,4-68,31.74"/>
    <path class="cls-7" d="M860.24,1717.59c-15.11,25.7-34,44.56-34.86,61.63"/>
    <path class="cls-7" d="M962.28,1748.41c14.29,14.77,29.79,23.06,46.87,22.84"/>
    <path class="cls-7" d="M1012.92,1803.75c-19.75.46-39.94,18.08-60.46,49.13"/>
    <path class="cls-7" d="M968.11,1912.36c-79.54,57.27,29.23,8.4,70.2,27.09"/>
    <path class="cls-7" d="M1064.9,1960.05c-22,28.75-115,27.79-39.77,47.91"/>
    <path class="cls-7" d="M927.38,2013.23c47.44,1.44,91.7,1.25,108.77,20.13"/>
    <path class="cls-7" d="M993,2041.5c-12.94,5.27-55.58,9.11-64.21-6.23"/>
    <path class="cls-7" d="M1078.31,2148.35c-29.28,17.49-49.82,1.43-64.68-36.41"/>
    <path class="cls-7" d="M1065.85,2185.72c-33.43,17.15-64.43,36.67-68,82.89"/>
    <path class="cls-7" d="M1064.9,2285.38c-12,24.08-63.73,29.23-17.25,63.73"/>
    <path class="cls-7" d="M952.78,2361.57c32.1-5.27,36.41-31.63,77.62,9.58"/>
  </g>
  <path id="backpackAdjusterLight" class="cls-8" d="M884.93,2126.19c-29.56-40.59-65.55-107.68-83.07-152.92A43.56,43.56,0,0,1,779,1987c20.87,49.73,59.09,123.49,106,181.35C890.47,2166,890.47,2132.7,884.93,2126.19Z"/>
  <g id="backpackStrap">
    <path class="cls-9" d="M858.46,1497.37c-108.18,21-141.44,211.16-82.52,340.12,22.35,48.92,1,77.84,28.85,131.17-3.84,8.82-19.06,18.89-30.85,18.89-36.81-69.8-59.3-61.77-81-115.16-63.87-156.93-50.41-322.64,78.3-402.17C794.23,1453.48,865.39,1476.5,858.46,1497.37Z"/>
    <path class="cls-9" d="M561.52,1455.91c-81.9-20.2-199.72,179.53-193,270.09C406.68,1633.19,480.74,1516.5,561.52,1455.91Z"/>
  </g>
  <g id="jacketInner">
    <path class="cls-10" d="M735.37,2022.66l-12,6.75c34.71,52.07,52.06,118.59,88.22,183l12.53-5.64C788.88,2144.63,764.2,2062.48,735.37,2022.66Z"/>
    <path class="cls-10" d="M507,1684.42c14.5-108.07-75.12-135.75-142.34-92.26,5.27-42.17,68.12-80.66,99.53-113.35C609.79,1327.24,894.48,1365.46,818,1579,715.23,1527.58,534.66,1561.85,507,1684.42Z"/>
  </g>
  <path id="shirtWhite" class="cls-11" d="M507,1684.42c21.09-91.76-15.88-105.49,6.3-158.31,34.48,20.06,75.08,15.35,118.31,0C573.49,1566.25,518.56,1618,507,1684.42Z"/>
  <g id="skinGallic">
    <path class="cls-12" d="M941.31,2412c-15.58,51.64-41,50.07-61.08,145.48-5.57,30.24-.61,52.32-5.38,74.61-6.67,31.14,36.66,18.79,43.84-27.12-4,23.77,4.68,34.42-1.44,44.48-10.49,19.67-10.29,31.89-18,37.06-17.39,11.67-25.51,33.88-12,44.84,17.11,10.36,26.67-13.12,44.15-21.86,28.65,7.17,45.76-6,57.3-31.83,19.5,4,35-6.77,42.08-26.63,19.59-2,29.8-8,36.2-35.79,4.7-20.38,9.33-33.47,9.7-51.28,1.35-63.93-24.5-100.25-29.38-134.26C1014.36,2415.38,978.93,2409.85,941.31,2412Z"/>
    <path class="cls-12" d="M748.78,1425.24l-14.54-63.81-197.38,18.94c20.94,100.68-17.94,112.65-23.58,145.74,34.48,20.06,75.08,15.35,118.31,0C694.37,1488,768.15,1473.16,748.78,1425.24Z"/>
    <path class="cls-12" d="M188.46,2264.78c-46.67,55.68-109.53,60.8-153.91,148-7.93,15.6-26.2,83.8-18.34,98.08,8.49,15.42,9.79,27.53,25.14,37.17,7.84,4.93,20.75,30.62,45.74,13,19,11.11,46.13,5.48,44.74-7.47,19.49,10.26,36.71-5,28.85-18.9,24.58,5.64,37-31.47,7.86-34.25a31.35,31.35,0,0,0,8.41-16.66c26.38-4.63,30.32-28.9,44.81-47.21,30.41-38.41,19.81-76.65,41.18-107.92C242.28,2299.93,217.94,2277.77,188.46,2264.78Z"/>
  </g>
  <g id="skinOverlapLine">
    <path class="cls-7" d="M1042.34,2596.29c-.82,15.06-5.3,39.05-11.6,54.75"/>
    <path class="cls-7" d="M1009.54,2601.75c-5.58,34.59-5.58,49.53-20.88,75.92"/>
    <path class="cls-7" d="M969.94,2606.66c-7.81,41.83,3.34,50.2-38.58,102.84"/>
    <path class="cls-7" d="M911.37,2540.28c-1.12,29,7.81,36.81,7.32,64.7"/>
    <path class="cls-7" d="M210.28,2347.25c-20.57,85-62.9,78.87-97.17,101.26-17.37,11-31.25,58.24-65.44,42.16-12.2-5.73,6.77-25.22,11.42-39.1,11.49-34.27,43.33-71.41,43.33-71.41"/>
    <path class="cls-7" d="M87.09,2561.09c6.9-13.69-1.65-27.49-13.39-35-11-6.93-9.82-22.64-9.12-32.32"/>
    <path class="cls-7" d="M160.68,2534.72c-6.26-9.72-16.15-15.6-28.55-18.83-2.69-25.44,5.56-18.55,15.5-40.51"/>
    <path class="cls-7" d="M131.83,2553.62c.78-11.91-15-25.14-33-27.8,2-14.17-1.8-27.44.45-32.39,1.86-4.1,13.5-13.69,21.27-27.25"/>
    <path class="cls-7" d="M168.54,2500.47c-7-.43-13.53,1-19.33,5.83"/>
    <path class="cls-7" d="M132.13,2515.89a18,18,0,0,0-14.1,5.3"/>
    <path class="cls-7" d="M46.9,2524.11c8.28-4.38,18.3-3.57,26.8,1.94"/>
    <path class="cls-7" d="M98.79,2525.82c-4.56-.37-8.45.77-11.45,3.9"/>
  </g>
  <g id="skinFoldLine">
    <path class="cls-7" d="M65,2437.06a33.58,33.58,0,0,1-11.83-3.5"/>
    <path class="cls-7" d="M154.56,2478.52a92.86,92.86,0,0,0-11.26-4.78"/>
    <path class="cls-7" d="M131.33,2468.23c-7.6-.18-13.89-2.22-18-7.43"/>
  </g>
  <path id="skinCreaseLine" class="cls-7" d="M186.26,2442.64c-11.2-7.69-23.18-12-36.12-12"/>
  <g id="head">
    <rect id="sclera" class="cls-13" x="240.77" y="526.06" width="380.57" height="146.81"/>
    <g id="irisGreen" class="cls-14">
      <ellipse class="cls-15" cx="494.47" cy="583.1" rx="45" ry="30.85" transform="translate(-198.57 905.91) rotate(-74.68)"/>
      <ellipse class="cls-15" cx="271.58" cy="585.17" rx="45" ry="23.59" transform="translate(-364.56 692.46) rotate(-74.68)"/>
    </g>
    <g id="pupil" class="cls-14">
      <ellipse cx="487.77" cy="581.27" rx="17.5" ry="12" transform="translate(-201.73 898.1) rotate(-74.68)"/>
      <ellipse cx="264.52" cy="583.24" rx="17.5" ry="9.17" transform="translate(-367.88 684.24) rotate(-74.68)"/>
    </g>
    <g id="skinGallic-2" data-name="skinGallic">
      <path class="cls-12" d="M973.91,900.44c-23,23.18-64,16.74-77.58-2.8-28.05,78.29-54.45,150.09-138.91,184.45-103.81,42.22-209.33,53.56-302.75,58.32-61.16,3.11-102.36,19.56-168.51-7.56-55.89-22.91-38.62-82.35-60.07-143-35.66-100.81-32.9-249.85,8.61-368,16-45.63-34.94-55.59-4.23-146.37,22.37-66.11,24.36-143,70.77-193.55C742.63-198.12,1523.29,604.22,973.91,900.44ZM452.53,615.24c38.94,24.66,110.45,22.16,136.38-5-23.37-18.9-63.19-42.59-87.56-42.59-22.84,0-43.82,16.9-58,39.12C437.11,616.51,448.49,612.68,452.53,615.24ZM325.18,603.76c-20.5-21.44-26.81-32.77-46.59-33.08-17.47-.28-26.63,15.37-33.15,24.69-2.07,38.06,37.73,34.83,71.28,18.1C320.92,611.38,334.14,613.13,325.18,603.76Z"/>
    </g>
    <path id="lipMaleLight__noStroke" class="cls-16" d="M272.05,876.45c14.66,7.77,42,7.47,63.12,0C376.07,885,406,913,455.64,930.76c-35.21,7.62-93.9,36.56-144.88,32.48-54.84-4.38-52.64-29.24-56.82-40C260.2,904.19,261.36,887.24,272.05,876.45Z"/>
    <g id="skinFoldLine-2" data-name="skinFoldLine">
      <path class="cls-7" d="M950.16,732.5c52.83-119.76,176.88-36.56,68.43,89"/>
      <path class="cls-7" d="M952.49,760.28c23,16.92-7.67,41.89-13.63,54.5-11.18,23.67,13.33,34.06,21,11.92,3.91-11.29,10.66-28.32,28.28-32.7,37.06-9.22,48.95-72.6,5.94-66.11"/>
    </g>
    <path id="lipBorderLine" class="cls-7" d="M455.64,930.76c-49.52-10.35-92.94-25-135.23-19.94-27.64,3.32-40.6-8.45-66.47,12.41"/>
    <g id="lipEdgeLine">
      <path class="cls-7" d="M335.17,876.45c-21.08,7.47-48.46,7.77-63.12,0"/>
      <path class="cls-7" d="M387.83,950.45c-41.95,17.61-104.88,19.29-126.69-8.39"/>
    </g>
    <path id="cheekLine" class="cls-7" d="M445.72,914.37c3.85,8.55,9.86,17.56,16.1,23"/>
    <g id="noseLine">
      <path class="cls-7" d="M414.08,754.73c14.15,15.72,14.32,46.48-8.64,62.09"/>
      <path class="cls-7" d="M371.65,809c-22.76-12.16-45.3-16.8-67.59-11.79"/>
      <path class="cls-7" d="M314.5,656.51c-68.37,73.86-133.81,132,2.92,161.09"/>
    </g>
    <g id="eyeFoldLine">
      <path class="cls-7" d="M546.84,648.47c-24.94,12-66,9.23-87.74-5.08"/>
      <path class="cls-7" d="M246.21,641.08c12.93,12.93,34.2,13.24,54,4.15"/>
    </g>
    <path id="eyeCornerLine" class="cls-7" d="M603.06,620.49c-8.22-4.65-10.22-6.92-14.15-10.24"/>
    <g id="eyeCreaseLine">
      <path class="cls-7" d="M447.55,576c56.34-55.41,98.37-2.3,147.78,14.32"/>
      <path class="cls-7" d="M239.28,577.35c26.32-26.79,63.49-21.81,85.89,6.46"/>
    </g>
    <g id="eyebrowSandy">
      <path class="cls-17" d="M418.29,469.18c-13.62,55,109.93,34.95,144.72,47.4,23.3,8.34,44.56,26,71.1,44.37,5.61,4.52,24.26-9.6,18.66-14.12C570.07,444,521.16,489.85,418.29,469.18Z"/>
      <path class="cls-17" d="M315.42,467.67c-28.51,5.86-58.14,6.28-85.58,9.7A196.9,196.9,0,0,0,222,509C260.51,503.44,323.34,501.71,315.42,467.67Z"/>
    </g>
    <path id="ashedCross" class="cls-18" d="M451.9,360.94c-12.8-1.84-38.46-3.55-57-1.64a156.79,156.79,0,0,1,6.92-21.38c11.93-28.34-30.46-20.75-37.3-2-2.94,8.06-4.63,11.92-6.84,26-12.8,2.43-16.41,3.38-26.48,7.28-17.75,6.88-19.88,49.07,2.87,40.38,9.8-3.74,13.24-5.07,20.52-6.84-5.58,36.67-2,78.18,7.06,78.34C374,481.35,370.25,456.2,385,398c33.77-6.89,57.35,2.81,48.11-13.07C431.16,380.06,468.84,363.36,451.9,360.94Z"/>
    <path id="hairSandy" class="cls-17" d="M830.19,663.09a659.22,659.22,0,0,0,106.34,26.58c67.54-112.82,214.87-11.57,124.73,118.84-43.81,63.36-53.11,53.61-87.35,91.93,225.31-25.33,292.1-424,182-641.58,14.63-4.55,27.11,2.66,38.33,16.87-1.38-54.56-27.51-83.57-77.67-87.79,4.27-30-2.38-57.93-20-84.42,3.14,17.35,1.73,33.17-4.25,45-12.06-33.47-33.53-57.41-67-69.22,5.31,10.64,8.8,20.88,9,30.39C974.58,50.8,891,28.92,787.94,12.14,689.87-3.81,581.05-4.76,484.89,23.42c17.91,3.07,34.3,7.15,45.67,14.58-92,6.71-158.14,55.76-203,83.65,24-3.19,41.2-10.74,59.24-10.77-61.57,32.45-120.9,68-143.81,152.56,9.88-5.44,22.56-20.87,40.81-25.27-18.59,17.93-31.69,39.34-37.9,65.11,18.55-9.45,36.09-17.63,55.39-21.38-11.66,18.31-15.65,36.76-7.77,55.38C330,270.68,373,292.73,448,252.75c-28,16.23-55.05,34.19-66.08,45.72,153.67-45.08,163.59,32.83,256.53-11.71-9.71,15.71-23.1,26.1-38.86,33,48.14,4.65,96.08-4,143.81-27.2C685.18,549.45,863.86,521.63,830.19,663.09Z"/>
  </g>
</svg>
