<svg id="Layer_1" data-name="Layer 1" xmlns="http://www.w3.org/2000/svg" viewBox="0 0 1158.6 4200.63">
  <defs>
    <style>
      .cls-1 {
        fill: #82726c;
      }

      .cls-1, .cls-10, .cls-14, .cls-2, .cls-3, .cls-4, .cls-5, .cls-6, .cls-7, .cls-8, .cls-9 {
        stroke: #000;
        stroke-miterlimit: 10;
        stroke-width: 2px;
      }

      .cls-2 {
        fill: #b39b7e;
      }

      .cls-3 {
        fill: #cfc0aa;
      }

      .cls-4 {
        fill: #82664c;
      }

      .cls-5 {
        fill: #a18644;
      }

      .cls-6 {
        fill: none;
      }

      .cls-7 {
        fill: #7fb2c9;
      }

      .cls-8 {
        fill: #719eb3;
      }

      .cls-9 {
        fill: #ddb4a2;
      }

      .cls-10 {
        fill: #edeff2;
      }

      .cls-11 {
        opacity: 0.5;
      }

      .cls-12 {
        fill: #2a491f;
      }

      .cls-13 {
        fill: #b38584;
        opacity: 0.2;
      }

      .cls-14 {
        fill: #c09e77;
      }
    </style>
  </defs>
  <g id="soleTan">
    <path class="cls-1" d="M862.27,4143.63c6.94,8.42,8.68,20.08,1.63,27.67-41.56,39.59-167.4,32.92-201.13,9.08-22.68-16-48.49-21.9-51.82-36.69-2.75-12.19-1.31-17.15,6.13-29.35Z"/>
    <path class="cls-1" d="M437.36,4130c4.93,12.83,6,23.12-.91,35.89-20.1,37-210.25,44.71-231.3-4.91-5.46-12.89-2.53-23.22,3.33-34.56Z"/>
  </g>
  <g id="wadeShoe">
    <path class="cls-2" d="M638.8,3990.05c-15.94,51.67-30.73,94.17-24.25,134.18,6,19.78,25.24,22.9,42,36.21,32.46,25.81,152.6,40,201.26-1.11,28.56-24.14,8.42-66.24-14.8-75.94-61.72-66-40.65-70.32-52.45-86.26C752.72,3941.65,703,3935.67,638.8,3990.05Z"/>
    <path class="cls-2" d="M428.7,3994.35c11.46,32.11,5.23,63.67,13.68,83.67,17.7,41.93-3.46,80-44.49,92.47-69.14,21-167.51,5.3-184-18.17-35-49.75,44.08-92.08,57.66-158.76C315.37,3952.9,368.37,3956.08,428.7,3994.35Z"/>
  </g>
  <path id="wadePants" class="cls-3" d="M610.78,3948c30.76,20.51-6.45,51.58,15.67,73.38,15.93.59,37.77-24.2,63.15-21.84,17.12-23.6,79.68-31.87,100.93-2.36,36-29.51,14.16-57.25,3.54-81.45,38.34-33.42,4.66-59.83,15.1-119.62,34.93-200.21,5.37-349.35,20.15-409.81,12-49.13-6.72-56.44-1.34-100.78,16.12-47,5.31-53.78,2.68-135.7-10.75-335.91,34.94-344,12.1-470.27-28.22-134.37,2.89-156.13-28.22-199.89-82.62,38.65-487.08,54.77-590.54,2.37-35.71,37.32-2.73,120.44-27.53,180.05-14.57,35-6.41,122.79,6.51,211,10.14,46.35-7.34,263.65,13,310,15.93,36.21-17.39,53.59,17.38,84,4.34,26.08-27.51,38.67-15.94,84,17.38,68.07-23.17,124.56,48.13,469.3-43.6,72.24,25.25,111.09-11.06,147.09-15.43,15.29,3.91,29.29,9.69,48.91,3.94-9.34,15.81-10.76,25.34-17,20.69-26.62,83.12-27.27,112.06,3.89,15.57,1.64,21.28,14.9,38.52,16.56,11.72-15,4.38-38,7.69-51.71,8.38-34.81-27.34-47.51-18.87-80,38.76-26.11,16.23-48.26-4.79-75.27,67.37-96.24,12.65-56,23-408,.69-23.75,34.07-50.58,3.09-98.08,57.82-37.16-24.77-44.39,67.11-457.35,100.19,344,51.29,416.08,91,462.06-41.37,131.14,33.42,511.53,5.05,573.43C599.66,3914.65,595.31,3937.63,610.78,3948Z"/>
  <g id="beltTan">
    <path class="cls-4" d="M327.88,2520.83c-44.66-5.26-80-13.2-104.9-23.95-13.25,12.23-12.27,58.08-6.23,67.25,27.78,11.12,64.82,19,109.94,24.28C324,2569.9,323.84,2540.53,327.88,2520.83Z"/>
    <path class="cls-4" d="M677.84,2519.58c-106.94,12.24-229.41,12.54-325.23,3.81-3,20.94-3,47.81-.68,67.62,103.75,9.4,232.41,8.2,331.08-2.4C684.57,2568.31,682.39,2540.25,677.84,2519.58Z"/>
    <path class="cls-4" d="M812,2493.82c-32.32,8.32-68,17.2-108.59,22.59,4.42,19.76,6,48.81,4.78,69.24,50.5-6.43,88.74-16.91,109.93-26.61C826,2550.09,820.08,2490.25,812,2493.82Z"/>
  </g>
  <path id="clothingBrass" class="cls-5" d="M562.46,2599.61c-8.36,9.55-86,10.26-95.21,1.42-7.94-7.63-8.43-67.9-1.48-76.49,5.66-7,89.25-8.09,95.68-1S570.39,2590.54,562.46,2599.61Z"/>
  <g id="wadeDisplayLine">
    <path class="cls-6" d="M505,2607.17c5,93.55-11.28,162.17,12.31,242.11"/>
    <path class="cls-6" d="M842.76,2679.5c-38.62-16.71-74.18-45.14-107.46-82.35"/>
    <path class="cls-6" d="M201.37,2693.07c37.55-17.58,68.58-45.59,93.61-83.21"/>
  </g>
  <path id="wadeShirt" class="cls-7" d="M959.47,2061.67c4.52-37.5,5.23-76.62-5.9-95.6,12.55-29.39-4.52-67.8-7.92-103.63C934.82,1679.89,847.29,1679.31,797.4,1653c-32.6-17.19-101.58-10.84-159.94-50.58l-276,12c-49.14,34.89-213.3,49.64-239.13,115.12-23.47,59.53-47.95,75.62-52.09,187.74-.47,29.91-17.95,65.51-6.46,95-9.69,22.48-30.9,53.84,4.26,90.44-3.81,9.51-14.75,13.08-13.36,22.52l162.9,112.22c-2.1,32.47,8.12,59.66,3.35,86.64-7.13,40.36-11.14,104.35,3,157.82,103.46,52.4,507.92,36.28,590.54-2.37,6.47-70.6-21.79-124.51-15.84-163.74,7.4-48.85-2.16-50.84,0-118.79C798.73,2197.08,1030.29,2119.77,959.47,2061.67Z"/>
  <g id="wadeShirtInner">
    <path class="cls-8" d="M654.62,1716c7.36-90-1.61-157-57.84-161.3-61.26-4.74-124.73-5.41-189.82,0-44.5,3.69-69.25,92-76.58,168.63,27.7-32.58,63.78-73,92.06-56.21,38.26,22.76,73.32,36.66,73.32,97,18.73-81.47,65.87-81.59,93.68-104.69C611.63,1640.91,632.18,1680.05,654.62,1716Z"/>
    <path class="cls-8" d="M799.73,2124.11c88.38,24.32,201.09-15.41,159.74-62.44,21.94,4.84,27.57,45.41,14.59,66.49,4.06,12.16,27.82,23.24,5.68,47.84-36.49,40.54-153.44,60-181,21.08Z"/>
    <path class="cls-8" d="M216.8,2141.58c-57.51,4.9-129.28-4.07-166.68-17.89-9.75,13.82-3.35,19.62-4.06,35s-2.85,31.31,5.69,36.59c4.06,13.82-20.33,14.64-5.69,29.27,15.64,15.64,119.52,28.46,171.55,13Z"/>
  </g>
  <g id="clothesDisplayLine">
    <path class="cls-6" d="M495.76,1764c-17.84,85.65-10.7,198.12-15,253.29-4.52,58.13,9,128.76,1.33,183.36-4.37,30.9,6.31,115.93-1.33,182-4.54,39.22,2.17,89.93,7.49,132.57"/>
    <path class="cls-6" d="M556.21,1928c52.46,11.2,128.55,5.64,203,4.51"/>
  </g>
  <g id="clothesOverlapLine">
    <path class="cls-6" d="M803,1925.63c17.23,26.51-2,42.26-.48,68.58,2.6,45.31-2.19,93.72-2.74,129.9"/>
    <path class="cls-6" d="M229.45,1901.67c-17.16,15.65-11.85,47.15-13.37,69.52-2.74,40.34,1.55,112.81.72,170.39"/>
    <path class="cls-6" d="M689.6,3999.49a105.48,105.48,0,0,0-24.2,33.65"/>
    <path class="cls-6" d="M401.62,4003.21c5.66,7.39,8.63,15.53,7.72,24.75"/>
    <path class="cls-6" d="M289.56,3999.32c-6,6.53-11,12.77-14.34,18.45"/>
  </g>
  <g id="clothesFoldLine">
    <path class="cls-6" d="M776.1,1659.6c-23.68-3.38-48.49,4.51-59.76,19.17"/>
    <path class="cls-6" d="M256.26,2031.72c106.4,31.63,212.66,63.27,115,106"/>
    <path class="cls-6" d="M726.49,2270.78c-83.45,57.51-130.81,21.42-194-44"/>
    <path class="cls-6" d="M733.25,2299c-31.27,22.57-58.46,46.75-39.47,89.08"/>
    <path class="cls-6" d="M232.54,2366.58c3.65,55.75,24.4,101.68,87.69,123.16"/>
    <path class="cls-6" d="M244.79,2458.79c15.13,14,27.5,27.52,31.59,39.86"/>
    <path class="cls-6" d="M327.88,2458.79c26.67,15.84,47.93,33.45,61.39,53.59"/>
    <path class="cls-6" d="M384.72,2473.62q14.83,26.46,29.68,40.08"/>
    <path class="cls-6" d="M581.39,2467.17c-25.4,11.77-49.65,26.2-70.63,48.11"/>
    <path class="cls-6" d="M558.82,2496.19c49.66-14.83,103.52-13.92,60.62,5.81"/>
    <path class="cls-6" d="M689.73,2488.45c-100,5.81-4.52-63.84,89.63-16.76"/>
    <path class="cls-6" d="M785.16,2419.46c-9.67,16.76-64.48,25.14-83.18,16.12"/>
    <path class="cls-6" d="M51.75,2195.24c35,17,78.42,25,119,23"/>
    <path class="cls-6" d="M217.15,2182.32c-74.49,9.54-133.82-23.5-136.84-11.63-3.38,13.27,42.07,22.44,77.52,25.65"/>
    <path class="cls-6" d="M63.81,2012.34c10.38,29.77,59.45,53.38,11,50.89"/>
    <path class="cls-6" d="M68.07,2102.78c35.32,12,83.74.86,50.22,23.19"/>
    <path class="cls-6" d="M80.4,2001.74c26.28,31.8,58.08,45.31,99.39,27.33"/>
    <path class="cls-6" d="M204.63,2047.7c-50.31,21.12-134.25,38.45-16.15,45.35"/>
    <path class="cls-6" d="M216.8,2107.33c-28.94,9.32-66.82,12.54-63.1,22.36"/>
    <path class="cls-6" d="M99.66,1819.12c40.37,105.6,149.07,106.84,53.42,21.12"/>
    <path class="cls-6" d="M191,1837.13c-73.3-54.66,1.47-99.12,22.36,29.2,8.7,53.42,51.55,42.86,28.57,63.35"/>
    <path class="cls-6" d="M200.77,1776.62c23.3,23.55,20.76,60.28,37.48,71.42"/>
    <path class="cls-6" d="M801.72,1823c-10.12,80.76,28.29-24,67-79"/>
    <path class="cls-6" d="M913.53,1836.28c17.05-51.8-31,36.64-75.17,48"/>
    <path class="cls-6" d="M847.83,1854.6c62.54-81.49-35.37-13.9-33.48,34.74,2.22,56.9-31.58,24-26.53,59.38"/>
    <path class="cls-6" d="M953.57,1966.07c-5.74-6.68-8.32-15.87-7-28.13"/>
    <path class="cls-6" d="M838.24,2004.42c-74.69,32.87,59,47.06,106.07,6"/>
    <path class="cls-6" d="M865.14,2056c58.61-4.48,44.81,20.17-58.27,47.06"/>
    <path class="cls-6" d="M948.8,2049.24c-11.21,21.66-128.48,71-21.67,43.32"/>
    <path class="cls-6" d="M974.06,2128.16c-43.11,28.27-93.5,38.22-150.76,30.89"/>
    <path class="cls-6" d="M966,2150.83c-62,47.81-142.59,15.78-146.41,30.62-4.05,15.75,32.85,15.7,72.46,12.7"/>
    <path class="cls-6" d="M843,4083.39c-31.87-18.77-97.31-18.38-120.92,1.09"/>
    <path class="cls-6" d="M386,4093.19c-35.8-30.38-122-35.81-157.86-7.6"/>
    <path class="cls-6" d="M694.37,3713.33c22.35,44.85,49.76,79.86,84.79,100.06"/>
    <path class="cls-6" d="M794.07,3915.68c-14.15,9.24-24.08,16.12-34.77,15.35"/>
    <path class="cls-6" d="M653.88,3910.41c-13.75-2.29-27.24,6.56-11.46,19.86,29,24.44,52,5.35,95.49,27.5"/>
    <path class="cls-6" d="M684.44,3763c5.35,48.89,45.85,56.52,48.12,82.5,1.54,17.57-44.45,30.46-81,31.32"/>
    <path class="cls-6" d="M424.17,3812.74c-14.51,14.05-24.57,28.58-24.66,44.2"/>
    <path class="cls-6" d="M265.59,3820.32c5.26,20.94,8,40.59-6.63,51.13"/>
    <path class="cls-6" d="M270.42,3914.23c16.8,29,73.27,22.2,71.8,37.43-1.55,16.13-58.05,8.4-67.22,15.27"/>
    <path class="cls-6" d="M429,3888c-44,28.51-94.86,20.5-94.38,33.09.77,19.86,49.65,6.11,75.63,32.08"/>
    <path class="cls-6" d="M828,3285.47c-22.21,37.23-71.13,35.33-69.24,52.35,1.68,15.11,26.87,5.88,51.23,17.63"/>
    <path class="cls-6" d="M694.09,3308.43c-44.88,11.61-71.63-24.17-89.85-82.29"/>
    <path class="cls-6" d="M726.84,3370.57c-41.86-10.42-77.37.79-101.61,50.38"/>
    <path class="cls-6" d="M608.31,3311.34c19.44,18.08,55.55,25.64,12.73,65.1"/>
    <path class="cls-6" d="M233.4,3267c10.25,21.34,71.08,39.74,62.68,58.21-11.35,9.2-25.52,3.78-41.15-9.23"/>
    <path class="cls-6" d="M450.24,3306.63c-18.13,11-79.43,12.72-34.09,50.5"/>
    <path class="cls-6" d="M290.2,3359.65c-42.82-30.23-63.82-23.51-57.94,5"/>
    <path class="cls-6" d="M423.71,3405.83c-27.81,7.2-48.53,23.12-54.58,57.1"/>
    <path class="cls-6" d="M644.88,2721.86c-37.22,24.19-71.14,48.65-95.78,73.89"/>
    <path class="cls-6" d="M538.15,2849.11c18.75-4,36.44,2.92,53.36,17.79"/>
    <path class="cls-6" d="M491.63,2860.06c-3.6-15.87-28.92,8.24-57.47,38.31"/>
    <path class="cls-6" d="M487.53,2816.27c-38.62-31.87-112.42-72.15-121.78-57.46-8.6,13.5,42.56,26,41.05,45.15"/>
  </g>
  <g id="skinGallic">
    <path class="cls-9" d="M126.58,2980.15c37.32,2.18,20.44-38-3.87-46.42-4.11-14.78-13.62-26.65-26.16-36.88Z"/>
    <path class="cls-9" d="M103.78,2896c-2.66-14.57-8.34-34.71,12.29-77.23,12.32,29-6.87,109.59,25.81,109.61,33.65,0,17.67-50.91,26.37-96.57,7.25-83.34-17.39-118.85-20.54-163.25-6.42-181.28,60.3-263.36,50.69-426.84-51.61,7.87-128.35-1.93-149-14.65-23.55,127,14.65,414.13,6,445.83-17.81,65.49-53.29,109-54.4,143.46-.36,11.13,7.12,61.62,28.25,76.08,7,27,22.25,33.36,46.61,50,11.79,28.36,25.69,33.37,37.14,50.72,15.8,13.79,38.71-17.47,9.79-53.61C116.57,2935.55,116.13,2915.31,103.78,2896Z"/>
    <path class="cls-9" d="M1157.73,2561.61c-88-149.81-92.2-176.72-127.58-261-23.69-56.41-39.39-81.94-54.17-120.81-31.93,30.13-108.27,47.06-151.63,33.79,5.75,123.51,133.89,240.11,238.26,392.37"/>
    <path class="cls-9" d="M600,1531.36l11.81,81.8c7.59,37.95-94.45,30.36-116.09,150.86,11.52-94.36-100.64-100.26-110.76-139l11.81-98.67"/>
  </g>
  <g id="skinOverlapLine">
    <path class="cls-6" d="M29.26,2892.4c-3.37-17.19-3.76-34.21-3.59-51.09"/>
    <path class="cls-6" d="M56.92,2847.09c-1.55,46.78,3.91,60.42,19,95.36"/>
  </g>
  <g id="head">
    <rect id="sclera" class="cls-10" x="92.44" y="761.84" width="566.65" height="146.81"/>
    <g id="irisGreen" class="cls-11">
      <circle class="cls-12" cx="546.1" cy="826.49" r="45"/>
      <circle class="cls-12" cx="205.39" cy="826.49" r="45"/>
    </g>
    <g id="pupil" class="cls-11">
      <circle cx="546.1" cy="826.49" r="17.5"/>
      <circle cx="205.39" cy="826.49" r="17.5"/>
    </g>
    <g id="skinGallic-2" data-name="skinGallic">
      <path class="cls-9" d="M961.41,729.92C1032.7,749,1011.08,905,952.83,958.06c-22.88,20.83-39.58,88-95.52,56.71C837,1133.25,811.46,1215.49,740,1263.15c-69.73,46.49-156,76.27-185.22,97.86-89.43,66.13-269.07,60.54-313.22,7C178.7,1291.7,31.72,1144.17,75.83,858c10.53-68.28-17.47-105.25-7.54-164.57,7-41.91,6.67-113,14.95-156.3C83.24,81.74,961.41,297.31,961.41,729.92ZM478,844.63c51.76,24.66,111.44,12.1,146.11-19.73-25.8-14.57-41.37-26.54-73.72-27.91-32.69-1.38-62,14.72-84.62,39.18C457,845.65,472.66,842.07,478,844.63ZM272.91,833.77c-23.14-28-41.88-37-73.55-37-35.19,0-50.1,17.84-69.92,29.15C157.15,858,214.07,861,258.68,844.24,264.26,842.15,282,844.8,272.91,833.77Z"/>
    </g>
    <g id="lipMaleLight__noStroke">
      <path class="cls-13" d="M316.23,1142c17.76,8.58,39.71,8,63.92,2.39,32.05,4.59,71.9,17,127.29,15.34-52.64,36.67-74.62,70.17-149.51,68.41-63.93-1.51-83.17-36.55-125.26-68.41C273.38,1155.11,297.58,1142.73,316.23,1142Z"/>
    </g>
    <g id="skinFoldLine">
      <path class="cls-6" d="M891.5,845c51.59-160.66,139.62-42.77,60.88,73.67"/>
      <path class="cls-6" d="M894.3,865.83c21.46,13.64-6.14,42-9.72,63.48-5.61,33.62,12.87,35.44,19.82,9.29,3-11.24,4.22-25.3,16.66-31.31,36.48-17.61,43.4-79.87,8.17-66"/>
    </g>
    <path id="lipBorderLine" class="cls-6" d="M507.44,1159.68c-74.31,13.58-220.44,12-274.77,0"/>
    <g id="lipEdgeLine">
      <path class="cls-6" d="M380.15,1144.34c-24.21,5.59-46.16,6.19-63.92-2.39"/>
      <path class="cls-6" d="M440.07,1209.06c-46.34,29.56-128.63,24.77-156.6-8.79"/>
    </g>
    <g id="cheekLine">
      <path class="cls-6" d="M502.58,1152.79c1.15,5.74,8.32,8.9,13.49,13.77"/>
      <path class="cls-6" d="M242.27,1153.65c-4.82,5.18-12.34,5.74-15.5,10.62"/>
    </g>
    <g id="noseLine">
      <path class="cls-6" d="M441.34,1002.51c18.63,15.66,23.68,51.78-6.71,66.33"/>
      <path class="cls-6" d="M276.63,1000.28c-17.14,14.9-23.1,48.44-.74,66.33"/>
      <path class="cls-6" d="M288.56,1057.66c11.92-.74,21.58,21.62,55.15,21.62s45.46-25.34,75.27-19.38"/>
    </g>
    <g id="eyeFoldLine">
      <path class="cls-6" d="M603.81,872.09c-32.79,21.61-75.3,22.3-110.3.75"/>
      <path class="cls-6" d="M247.57,869.11c-26.83,16.4-71.55,19.38-97.63-1.49"/>
    </g>
    <g id="eyeCornerLine">
      <path class="cls-6" d="M129.44,825.91c-6.93,4.11-16.47,9.41-22.66,8.23"/>
      <path class="cls-6" d="M647,837.15a141.44,141.44,0,0,1-22.8-12.25"/>
    </g>
    <g id="eyeCreaseLine">
      <path class="cls-6" d="M468.91,803.53C558.35,735,618,802,662.69,805"/>
      <path class="cls-6" d="M128.32,798.31c46.21-34.28,97.57-31.56,140.11,1.49"/>
    </g>
    <g id="eyebrowSandy">
      <path class="cls-14" d="M429.87,728.25c1.87,45.74,116.22-.47,153.1,1.87,24.7,1.56,49.69,7.79,80.28,18.14,6.64,2.78,25.38-14.89,18.74-17.67C581.17,660.1,526.49,709.11,429.87,728.25Z"/>
      <path class="cls-14" d="M273,727.39c-5.29,43.86-101.48-2.22-128.47,1.55-18.08,2.53-27.67,5.31-50.39,16.8-5,3-22.37-13.77-17.42-16.8C140.13,662.69,203.24,712.16,273,727.39Z"/>
    </g>
    <path id="hairSandy" class="cls-14" d="M832.35,807.32l50.42-9.05c4.4-49.56,42.52-78,78.64-68.35,25.88-90.55,20.86-236.76-9.68-283.1,9.37,4.44,20.92,16.42,32.66,29-7.49-41.74-24.2-77.71-51.41-107.07,15.75,4.14,31,16.34,46,32.67-11.76-49.48-57.85-83-98-104.65,15-7.88,34.89-5.81,56.25-.61-24.07-30.93-67.42-53-108.28-55.65-12-35.24-15.67-72-12.7-110.09-17.07,17.22-31.62,35.75-42.34,56.26-17.59-33.44-43.37-62.79-75.62-88.92,11.94,21,19.35,42.22,21.78,63.51-49.89-55.66-109.79-64.87-168.77-130-1.56,16.36.73,33.56,6.05,51.41-36-16.71-73.52-45.53-111.9-80.45-.52,26.1,4.72,50.43,16.93,72.59-29.84-10.16-56.08-23.06-84.71-38.71.24,20.21,7,45.5,16.54,62.88-41.08-8-84.72-12.18-119.95,4.26,25.65-1.74,44.51,5.08,63.51,18.15-51,2.32-104.95,13.17-144,37.5,14.25-.28,24.77,4.58,41.74,4.24-43.19,14.77-82.32,35.94-116.59,67.14,19.16-1,31.78,6.15,48.84,1.81C132.34,248.2,89.53,294.17,74.2,334.31c14.48-10.71,29.3-18.43,44.58-22.38-38.9,36.43-72,82.37-83.48,139.13,18.61-16,34.44-28.54,50.63-37.11-21.86,35.39-22.05,82.39-2.69,123.15C91.2,471,122.52,430.47,157.57,396c43.94,16.54,70.53,79.3,131,111.43-14.68-22.31-29.94-46.92-37.41-70.13,77.58,98.58,147.54,62.56,238.13,81.89-13.36-10.12-30.75-17.76-50.24-24.08,66.06,1.39,132.2,2.32,183.75,27.52-11.27-25.92-29.47-50.29-52.31-73.63,29.22-1.73,56,8.21,80.52,28.21-.37-28-12.41-53.94-33-78.45,40.45,18.57,81.93,35.59,102.54,77.08C706.42,670.2,846.48,643.88,832.35,807.32Z"/>
  </g>
</svg>
