<svg viewBox="0 0 158.29 332.13">
  <path class="anitaDress" d="M114.18,173.47l-52.07-1.61c-2.53,16.59-4.54,27.93-6.36,39.49-1.6,10.17-4.39,16.73-5.14,27.92,1.1,1.08,4.02,1.23,7.27,1.21,3.77,2.82,10.35,1.31,16.15,1.61,2.3,2.3,19.3,2.85,20.18,1.01,4.01,.94,9.81,.47,13.79-1.31,5.9,.96,6.31-1.51,13.3-1.37,.4-9.09-2.16-23.45-2.47-31.26-.46-11.76-2.29-23.65-4.64-35.68Z"/>
  <g class="anitaJacket">
    <path d="M81.38,83.47c-3.25,17.91-21.87,21.53-18.88,48.86-1.38,1.47-1.18,4.63,.09,5.84-3.15,3.62-1.03,4.05-1.28,6.43s-2.28,6.03,.67,8.3c-2.3,2.62-1.74,10.85,.27,11.52,2.81,1.47,50.28,2.95,52.69,.67-3.35-71.13,16.09-93.04-33.57-81.62Z"/>
    <path d="M83.42,92.1c-1.48-2.61-2.72-7.27-2.04-8.63,7.04-5.56,26.57-8.74,28.38-7.72,1.48,1.48,1.02,3.07,2.5,5.22-10.9-1.82-20.55,.57-28.84,11.13Z"/>
  </g>
  <g class="flatGreenMediumLight">
    <path d="M115.74,110.65c.07-1.68,.13-3.28,.17-4.81-12.56,.1-36.33,.46-46.76-.97-.95,1.36-1.87,2.78-2.71,4.3,9,1.6,35.42,1.52,49.3,1.48Z"/>
    <path d="M61.43,169.93l-.38,2.52c-.07,2.02,53.96,3.57,54.03,1.55l-.04-2.6c-3.48,1.81-50.34,.39-53.61-1.47Z"/>
    <path d="M78.97,120.88c-1.11-.67-1.99-1.15-2.45-1.01-2.83,.82-7.95,10.07-6.7,12.19,.27,.45,1.09,.87,2.17,1.36-.41-2.54,4.18-11.52,6.98-12.53Z"/>
  </g>
  <g class="flatOrangeMediumLight">
    <path d="M115.9,105.84c.04-1.71,.07-3.33,.05-4.86-10.96,.19-32.82,.47-43.54-.52-1.1,1.44-2.22,2.89-3.28,4.41,10.43,1.43,34.21,1.08,46.76,.97Z"/>
    <path d="M115.04,171.4l-.05-3.04c-3.51,1.55-49.47,.75-53.16-1.12l-.4,2.69c3.27,1.86,50.14,3.28,53.61,1.47Z"/>
    <path d="M81.14,122.19c-.77-.44-1.51-.91-2.17-1.31-2.8,1.01-7.39,10-6.98,12.53,.75,.34,1.63,.71,2.52,1.15-.01-2.72,3.95-11.08,6.63-12.38Z"/>
  </g>
  <g class="flatRedMediumLight">
    <path d="M115.96,100.97c-.01-1.86-.07-3.58-.2-5.18-10.39,.22-29.64,.59-39.97,.12-1.07,1.54-2.22,3.03-3.37,4.54,10.72,.99,32.58,.71,43.54,.52Z"/>
    <path d="M62.26,164.42l-.42,2.82c3.69,1.86,49.66,2.66,53.16,1.12l-.05-3.27c-2.41,2.28-49.88,.8-52.69-.67Z"/>
    <path d="M83.8,123.47c-.91-.41-1.85-.82-2.67-1.28-2.68,1.3-6.64,9.66-6.63,12.38,.91,.45,1.84,.96,2.67,1.58,.55-4.85,3.25-10.94,6.62-12.68Z"/>
  </g>
  <g class="backpack">
    <g class="backpackAdjusterDark">
      <path d="M69.66,139.07c1.99,4.61-.15,10.67-.47,16.67,.86,.2,1.77,.25,2.72,.19-.76-7.01,1.25-10.11-.39-17.53l-1.86,.67Z"/>
      <path d="M117.45,62.7c-1.72-.51-2.73,4.01-2.73,8.06h0c1.43-3.33,3.38-5.42,2.73-8.06Z"/>
    </g>
    <g class="backpackAdjusterLight">
      <path d="M109.11,163.54c-5.65-4.86-24.07-15.1-37.59-25.13l-1.86,.67c15.25,11.58,33.81,23,39.98,28.88,.06-1.42-.09-2.88-.53-4.41Z"/>
      <path d="M113.61,80.58c-1.62-10.45,4.95-13.33,3.84-17.88,1.47,.61,3.04,1.82,3.74,2.83,2.23,5.16-7.08,7.23-5.01,15.62l-2.58-.57Z"/>
    </g>
    <g class="backpackStrap">
      <path d="M110.43,79.09c-1.15,1.4-.85,3.7-1.76,5.66-9.54-3.92-17.96,1.56-24.34,7.45-8.48,7.82-17.02,16.98-18.52,20.22-1.2,.25-2.48,.1-3.66-.23,1.48-3.58,3.9-6.13,6.44-8.97,4.73-5.31,8.32-9.09,14.67-14.95,7.7-7.11,16.51-11.58,27.17-9.18Z"/>
      <path d="M66.4,132.41c1.35,2.56,3.39,3.6,5.12,5.99,0,.35-1.24,.89-1.86,.67-2.36-1.36-5.43-3.92-7.16-6.74,1.32,.15,2.48,.25,3.9,.09Z"/>
    </g>
    <path class="backpackMedium" d="M137.34,119.76c3.48,1.66,6.13,4.91,5.78,9.65-.84,11.43,1.64,19.21,0,36.35-.5,5.26-4.05,5.77-6.89,7.42-1.85,1.08-3.2,1.66-5.11,1.78l6.22-55.2Z"/>
    <path class="backpackPocket" d="M136.68,134.7l-26.89,.64c-.86,10.75,.45,23.48-.68,28.19l.53,4.41c2.13,1.95,2.07,8.91,6.63,8.77,2.24-.07,4.31-.32,7.53,.05,5.67,.65,12.91-4.49,13.54-9.91,1.54-13.22-.44-19.17-.66-32.16Z"/>
    <path class="backpackLight" d="M137.34,119.76c-.22-10.58-1.56-16.14-2.18-25.3-.48-7.09-7.48-14.18-15.78-14.03-3.62,.07-6.26-1.3-8.95-1.35-1.15,1.4-.85,3.7-1.76,5.66,1.73,1.47,1.47,43.8,1.11,50.6,3.05,.88,16.53,.29,19.78,.41,2.71,.1,5.07-.13,7.12-1.05,0-5.19,.75-10.68,.66-14.94Z"/>
    <g class="backpackZipperPull">
      <polygon points="127.89 89.42 132.07 95.9 130.58 96.73 128.21 92.54 127.89 89.42"/>
      <polygon points="127.89 89.42 131.77 92.02 132.63 90.6 127.66 87.62 127.89 89.42"/>
    </g>
    <path class="backpackCreaseLine" d="M119.38,80.44c-.67,3.94,.12,12.3,1,18.98"/>
    <path class="backpackOverlapLine" d="M126.58,82.18c3.1,11.85,1.77,30.86,2.98,53.58"/>
  </g>
  <path class="anitaJacketSleeve" d="M119.29,116.77c.29-5.98-1.83-11.31-2.99-16.27-.89-3.82,.96-7.68-3.23-10.31-3.23-9.81-17.95-8.71-20.34,5.85-1.42,8.65-.48,13.67,2.87,15.94,2.87,5.38,1.08,10.05,4.31,12.92-.6,1.08-.42,2.43,.36,4.19-2.63,2.39-1.91-1.67-6.58-2.51-1.73-.31-2.3-1.66-4.19-1.44-5.62-6.7-11.49,3.59-12.32,11.01-.34,3.03,9.09,8.02,14.12,9.69,4.67,1.56,5.98,3.95,10.65,4.55,7.05,.9,12.54,2.42,15.67-2.63,2.61-4.21,4.75-7.01,2.87-10.41,3.15-5.1-1.44-15.79-1.2-20.58Z"/>
  <g class="hairBlack">
    <path d="M129.93,78.35c13.08-7.97,13.88-36.28,.33-36.09-6.23,20.21,3.36,26.91-.33,36.09Z"/>
    <path d="M71.41,25.86c-4.55-7.74,4.76-24.33,16.77-23.07,18.21-7.74,40.27,3.31,44.49,18.05,3.71,12.95,.3,39.57-23.58,41.98-1.86-.97-3.15-4.68-3.05-6.72-24.67-4.82-21.29-23.23-34.63-30.24Z"/>
    <path d="M133.78,81.24c15.64-9.88,14.24-52.48,3.93-60.89-3.63-2.96-7.07-2.61-10.29-.72l.49,2.32c2.48-1.4,5.63,4.67,4.3,12.07-6.82,37.93,4.52,34.63,1.56,47.22Z"/>
  </g>
  <path class="hairOverlapLine" d="M91.67,31.02c1.66,.33,5.88,.91,7.38,.66,.24-1.35-.38-4.85,.73-8.78"/>
  <g class="anitaBarrette">
    <path d="M131.42,18.73c.08,.66-2.24,2.47-2.9,2.5-.38,.02-2.01-1.08-1.99-1.46,.07-1.02,2.37-3.5,3.7-2.96,.46,.19,1.13,1.43,1.19,1.92Z"/>
    <path d="M128.51,21.22c-.38,.02-1.97-1.08-1.99-1.46-.28-.37-3.42,1.52-3.57,1.96-.27,.77,2.73,3.03,3.51,2.95,.41-.04,2.35-3.16,2.05-3.45Z"/>
    <path d="M135.68,16.64c-.1-1.52-2.1-3.11-3.16-2.8-.36,.1-2.61,2.77-2.3,2.96,.46,.19,1.13,1.43,1.19,1.92h0c.45,.51,4.31-1.4,4.27-2.08Z"/>
  </g>
  <g class="eye">
    <circle class="sclera" cx="76.96" cy="38.54" r="5.49"/>
    <path class="irisDarkBrown" d="M73.3,40.03c-.32-.13-.59-1.74,.05-3.36s1.93-2.62,2.26-2.49c-.42,2.09-1.19,4.03-2.3,5.85Z"/>
    <path class="pupil" d="M73.28,37.97c-.26-.1-.19-.66,.06-1.29s.58-1.09,.84-.98c-.2,.8-.5,1.55-.9,2.27Z"/>
  </g>
  <g class="skinEastAsian">
    <path d="M73.17,261.52c.22-3.34,4.14-10.13,7.9-17.62-3.33-.34-6.21-.95-7.06-1.8-5.79-.3-12.38,1.2-16.15-1.61-.82,0-1.62,0-2.38-.03-9.8,27.64-16.4,64.72-24.92,67.17-5.45,1.56-10.74,2.15-15.22,.6-3.12,14.57,30.69,15.96,33.42,5.11-.42-1.25-.64-2.23-.52-3.72,1.51-17.5,23.79-31.14,24.92-48.09Z"/>
    <path d="M147.13,293.66c-17.45-12.47-17.03-36.63-34.62-45.91-1.65-.87-2.27-2.82-2.65-5.76-.56-.03-1.18-.09-1.88-.21-3.98,1.78-9.78,2.25-13.79,1.31-.53,1.1-6.8,1.35-12.26,.88,2.94,7.7,8.34,13.15,11.23,15.89,18.34,17.44,40.49,33.37,37.06,43.89-2.75,5.81-2.82,10.69-6.99,14.14,5.87,11.52,30.34-12.07,23.9-24.24Z"/>
    <path d="M108.3,62.24c-1.22-1.46-2.29-3.65-2.25-6.14l-36.09-.84c9.52,7.55,12.3,16.91,12.07,27.73,6.44-4.51,20.91-7.34,26.04-7.43-1.97-6.24-1.97-11.75,.24-13.32Z"/>
    <path d="M75.75,120.25c-3.52-2.94-5.98-8.86-9.46-10-.5,.75-.86,1.41-.98,2.01-2.05,.05-5.34-.47-8.07,.4-2.47,.78-1.28,2.51-2.92,4.33-2.46,3.19,1,3.78-.14,6.7-.96,2.19,1.96,3.42,2.1,5.33,.27,1.55,3.37,2.94,5.29,3.26,3.96,.66,4.82-.29,8.08-.72-.39-2.54,3.41-9.48,6.1-11.3Z"/>
    <path d="M89.31,67.03c-4.32,2.14-9.06,3.15-13.31,3.4-3.82,.22-4.52,.05-5.49-.38-4.5-2.03-1.74-6.23-4.68-7.66-2.43-3.75,2.08-4.63,4.25-2.92-.19-.35-2.33-3.47-4.58-3.23-.7-.41-.78-2.19-.43-2.85,.96-.53,1.35-1.88,1.62-3.3-4.1-.24-5.14-3.3-3.77-4.52,2.42-2.16,8.13-4.9,7.66-9.07-.45-3.93,.42-7.14,1.78-10.11,1.4,.47,2.88,.86,4.45,1.1-.05-2.55,.52-4.4,1.48-5.8-.19,2.25-.15,4.39,.48,6.29,2.71,.77,5.49,1.43,8.33,1.99-.32-1.63,.09-3.41,.76-5.25,.05,1.99,.22,3.91,.83,5.58,.94,.28,1.92,.58,2.97,.73,4.62,8.85,8.16,8.94,1.73,18.45,7.65,.71,6.45-6.68,9.33-5.12,4.17-5.61,12.41,.17,9.08,6.45-1.98,3.92-4.45,4.12-5.76,5.3-3.29,3.43-6.98,4.38-8.89,1.75m-24.17-18.39c1.47,.02,3.84,.2,5.6,0-1.35-1.06-3.39-2.33-4.79-3.56-.65,.89-1.12,2.59-.81,3.55Z"/>
  </g>
  <g class="soleLightTan">
    <path d="M156.38,305.18c.88,.35,1.8,2.18,1.63,2.98-1.35,6.43-14.26,13.78-22.55,19.92-6.22,4.61-14.85,4.57-18.64,2.27-.98-.57-1.31-1.87-.98-2.69l40.53-22.48Z"/>
    <path d="M45.92,328.42c-.46,1.36-1.12,2.12-2.04,2.81-4.88,2.12-12.76-2.75-19.33-3.76-12.67-1.95-22.83-8.35-24.06-10.15-.46-.67-.2-1.58,.32-2.42"/>
  </g>
  <g class="anitaShoe">
    <path d="M147.13,293.66c3.39,1.59,8.97,7.27,9.26,11.53,.48,7.26-12.01,14.13-22.53,21.66-6.17,4.42-17.32,3.37-18,.82-1.34-5.01,4.88-7.16,7.37-9.76,3.2,1.25,5.19,1.79,6.99,1.52,1.85-.28,4.54-4.77,3.54-6.34-.94-1.47-2.9-3.03-6.23-3.83,.09-1.51,1.32-4.07,2.21-5.78,10.84,6.51,18.33-1.74,17.4-9.82Z"/>
    <path d="M48.77,313.32c1.32,3.78-.57,12.58-2.85,15.1-8.48,3.3-13.34-1.64-20.05-2.7-14.21-2.25-24.39-9.17-25.05-10.81-.12-6.21,7.86-8.88,14.54-6.69,.23,2.91,1.17,5.91,2.67,7.08,3.67,2.86,8.21,.81,11.15-2.5,4.18,6.58,15.18,6.03,19.6,.53Z"/>
    <path d="M29.42,307.53c2.01,2.82,3.16,6.25,3.56,9.88,.37,3.33-6.08,3.71-6.47,.57-.5-4.07-1.51-7.49-3.42-10,1.21-.35,4.83-.65,6.33-.44Z"/>
  </g>
  <g class="lipFemaleMedium">
    <path d="M70.08,59.47c-2.18-1.71-6.69-.83-4.25,2.92,1.79-.26,2.07-1.59,4.25-2.92Z"/>
    <path d="M65.07,53.38c-.36,.67-.27,2.44,.43,2.85,2.25-.24,4.39,2.88,4.58,3.23-.94-3.41-2.33-5.77-5.01-6.09Z"/>
  </g>
  <path class="noseLine" d="M69.45,47.7c.79,.73,.21,3.09-1.18,3.2-1.91,.15-1.51-1.39-2.98-1.41"/>
  <g class="eyeLidLine">
    <path d="M73.79,35.92c-1.22-.97-1.26-1.21-.18-2.67"/>
    <path d="M72.99,39.46c-.67-.08-1.73,.32-.82,2.52"/>
  </g>
  <path class="eyeCornerLine" d="M78.58,39.47c.29,.12,.64,.25,.98,.3"/>
  <path class="eyebrowBlack" d="M72.4,28.56c2.85,.41,7.83-.56,10.17,8.1-4.7-6.81-8.58-5.15-10.17-8.1Z"/>
  <g class="skinFoldLine">
    <path d="M102.89,47.19c5.3-8.02,12.04,2.69,3.34,7.15"/>
    <path d="M103.11,49.1c.75,1.52-3,3.87-1.84,5.08,.8,.84,.82-1.57,3.57-1.81,3.79-.33,2.76-5.42,.55-4.25"/>
  </g>
  <g class="clothesFoldLine">
    <path d="M62.59,138.16c1.35,1.16,1.6,2.17,.06,2.95"/>
    <path d="M61.99,152.9c1.97,.91,2.37,3.11,.18,2.7"/>
    <path d="M89.5,125.14c.48,1.33-.99,2.55,.88,2.8"/>
    <path d="M94.13,105.17c.84,2.17-.16,3.9,1.48,6.82"/>
    <path d="M99.91,124.9c1.37,.63,3.09-.31,4.87-1.52"/>
    <path d="M100.27,129.09c3.83,1.27,4.02,7.47,10.53,13.25"/>
    <path d="M113.81,138.43c-2.93-3.44-6.3-5.83-10.43-6.42"/>
    <path d="M120.49,137.35c-.74,.92-1.72,1.17-1.55,2.29"/>
    <path d="M113.07,90.19c-1.31-.72-2.5-1.15-3.49-1.05"/>
    <path d="M103.99,189.36c.85,10.02,1.68,19.79,2.48,29.31"/>
    <path d="M77.16,189.11c-.88,7.76-1.16,15.46-.75,23.1"/>
    <path d="M61.01,216.31c-1.44,8.66-2.6,16.89-3.14,24.16"/>
    <path d="M74.3,235.44c-.34,2.32-.51,4.57-.29,6.65"/>
    <path d="M94.55,224.26c-.12,7.58,.1,14.98-.35,18.84"/>
    <path d="M108.33,234.82c.27,2.62,.21,4.99-.35,6.97"/>
    <path d="M113.18,225.5c.69,5.31,.99,10.62,.92,15.94"/>
    <path d="M125.46,22c-.03,1.06,.77,1.04,2.23-1.15"/>
    <path d="M132.82,15.86c1.85-.7,.37,1.55-1.75,1.96"/>
  </g>
</svg>