<svg viewBox="0 0 158.29 332.13">
  <path class="anitaDress" d="M114.18,173.47,62.1,171.85c-2.52,16.6-4.54,27.93-6.36,39.49-1.61,10.17-4.39,16.73-5.14,27.92,1.1,1.09,4,1.23,7.26,1.22,3.78,2.81,10.36,1.3,16.15,1.61,2.3,2.3,19.3,2.85,20.18,1A24.1,24.1,0,0,0,108,241.78c5.9,1,6.31-1.5,13.3-1.37.41-9.08-2.16-23.45-2.47-31.26A234.89,234.89,0,0,0,114.18,173.47Z"/>
  <g class="anitaJacket">
    <path d="M81.38,83.47C78.13,101.38,59.51,105,62.5,132.33a4.75,4.75,0,0,0,.09,5.83c-3.15,3.62-1,4.05-1.27,6.43s-2.28,6,.67,8.31c-2.3,2.61-1.74,10.85.27,11.52,2.81,1.47,50.28,2.94,52.69.67C111.6,94,131,72.05,81.38,83.47Z"/>
    <path d="M83.42,92.1c-1.48-2.61-2.73-7.27-2-8.63,7-5.56,26.56-8.74,28.38-7.72,1.48,1.47,1,3.06,2.5,5.22C101.36,79.15,91.71,81.54,83.42,92.1Z"/>
  </g>
  <g class="rainbowGreen">
    <path d="M115.74,110.65c.07-1.68.13-3.28.16-4.81-12.55.1-36.33.46-46.76-1a50,50,0,0,0-2.71,4.31C75.44,110.77,101.85,110.68,115.74,110.65Z"/>
    <path d="M61.43,169.93l-.38,2.52c-.07,2,54,3.57,54,1.55l0-2.6C111.56,173.21,64.7,171.79,61.43,169.93Z"/>
    <path d="M79,120.88c-1.11-.67-2-1.15-2.45-1-2.83.82-8,10.07-6.7,12.19A5.26,5.26,0,0,0,72,133.41C71.58,130.88,76.17,121.89,79,120.88Z"/>
  </g>
  <g class="rainbowOrange">
    <path d="M115.9,105.84c0-1.71.07-3.34.06-4.87-11,.19-32.82.47-43.54-.52-1.1,1.44-2.21,2.89-3.28,4.41C79.57,106.3,103.35,105.94,115.9,105.84Z"/>
    <path d="M115,171.4l0-3c-3.51,1.54-49.48.74-53.17-1.12l-.4,2.69C64.7,171.79,111.56,173.21,115,171.4Z"/>
    <path d="M81.14,122.19c-.77-.45-1.51-.91-2.17-1.31-2.8,1-7.39,10-7,12.53.75.35,1.62.72,2.52,1.16C74.5,131.85,78.46,123.49,81.14,122.19Z"/>
  </g>
  <g class="rainbowRed">
    <path d="M116,101c0-1.85-.07-3.58-.2-5.17-10.39.22-29.64.58-40,.12-1.07,1.54-2.22,3-3.37,4.53C83.14,101.44,105,101.16,116,101Z"/>
    <path d="M62.26,164.42l-.43,2.82c3.69,1.86,49.66,2.66,53.17,1.12l0-3.27C112.54,167.36,65.07,165.89,62.26,164.42Z"/>
    <path d="M83.8,123.47c-.9-.41-1.84-.83-2.66-1.28-2.68,1.3-6.64,9.66-6.63,12.38a17.19,17.19,0,0,1,2.67,1.58C77.73,131.3,80.43,125.21,83.8,123.47Z"/>
  </g>
  <g class="backpack">
    <g class="backpackAdjusterDark">
      <path d="M69.66,139.07c2,4.61-.15,10.67-.47,16.67a9.38,9.38,0,0,0,2.72.19c-.76-7,1.25-10.11-.39-17.53Z"/>
      <path d="M117.45,62.7c-1.72-.51-2.74,4-2.74,8.06h0C116.14,67.43,118.09,65.35,117.45,62.7Z"/>
    </g>
    <g class="backpackAdjusterLight">
      <path d="M109.11,163.54c-5.65-4.86-24.07-15.1-37.59-25.14l-1.86.67c15.25,11.58,33.81,23,40,28.88A13.94,13.94,0,0,0,109.11,163.54Z"/>
      <path d="M113.61,80.58c-1.63-10.45,5-13.33,3.84-17.88a9.62,9.62,0,0,1,3.74,2.83c2.23,5.16-7.08,7.24-5,15.62Z"/>
    </g>
    <g class="backpackStrap">
      <path d="M110.43,79.09c-1.15,1.4-.85,3.7-1.76,5.66-9.54-3.92-18,1.56-24.34,7.45-8.48,7.81-17,17-18.52,20.22a7.79,7.79,0,0,1-3.65-.23c1.47-3.58,3.9-6.12,6.43-9a187.54,187.54,0,0,1,14.67-15C91,81.16,99.78,76.7,110.43,79.09Z"/>
      <path d="M66.4,132.41c1.35,2.56,3.39,3.6,5.12,6,0,.35-1.23.89-1.86.67a21.7,21.7,0,0,1-7.16-6.74A16.85,16.85,0,0,0,66.4,132.41Z"/>
    </g>
    <path class="backpackMedium" d="M137.34,119.76a9.57,9.57,0,0,1,5.78,9.65c-.84,11.43,1.64,19.21,0,36.35-.5,5.26-4.05,5.77-6.89,7.42a10.7,10.7,0,0,1-5.11,1.78Z"/>
    <path class="backpackPocket" d="M136.68,134.7l-26.89.65c-.86,10.75.45,23.47-.68,28.19l.53,4.41c2.12,2,2.06,8.91,6.63,8.77a43.27,43.27,0,0,1,7.53.05c5.67.65,12.91-4.49,13.54-9.9C138.89,153.64,136.9,147.69,136.68,134.7Z"/>
    <path class="backpackLight" d="M137.34,119.76c-.22-10.58-1.56-16.13-2.18-25.29-.48-7.1-7.48-14.18-15.78-14-3.62.07-6.26-1.3-8.95-1.35-1.15,1.4-.85,3.7-1.76,5.66,1.73,1.47,1.47,43.8,1.12,50.6,3,.88,16.53.29,19.77.41a15.62,15.62,0,0,0,7.12-1.06C136.68,129.52,137.43,124,137.34,119.76Z"/>
    <g class="backpackZipperPull">
      <polygon points="127.89 89.42 132.07 95.9 130.58 96.73 128.21 92.54 127.89 89.42"/>
      <polygon points="127.89 89.42 131.77 92.02 132.63 90.6 127.66 87.62 127.89 89.42"/>
    </g>
    <path class="backpackCreaseLine" d="M119.38,80.44c-.67,3.94.12,12.3,1,19"/>
    <path class="backpackOverlapLine" d="M126.58,82.18c3.1,11.84,1.77,30.86,3,53.58"/>
  </g>
  <path class="anitaJacketSleeve" d="M119.29,116.77c.3-6-1.83-11.31-3-16.27-.89-3.82,1-7.68-3.23-10.31-3.23-9.81-17.94-8.72-20.34,5.85-1.42,8.65-.48,13.67,2.87,15.94,2.88,5.39,1.08,10,4.31,12.92-.6,1.08-.42,2.43.36,4.19-2.63,2.39-1.91-1.67-6.58-2.51-1.73-.31-2.3-1.66-4.19-1.44-5.62-6.7-11.48,3.59-12.32,11-.34,3,9.09,8,14.12,9.69,4.67,1.56,6,3.95,10.65,4.55,7,.9,12.54,2.42,15.67-2.63,2.61-4.22,4.75-7,2.87-10.41C123.64,132.25,119.05,121.55,119.29,116.77Z"/>
  <g class="hairBlack">
    <path d="M129.93,78.35c13.08-8,13.88-36.29.33-36.09C124,62.47,133.62,69.16,129.93,78.35Z"/>
    <path d="M71.41,25.86C66.86,18.12,76.17,1.53,88.18,2.79c18.2-7.74,40.27,3.31,44.49,18.05,3.72,13,.3,39.58-23.58,42-1.86-1-3.15-4.68-3-6.72C81.37,51.28,84.76,32.87,71.41,25.86Z"/>
    <path d="M133.78,81.24c15.64-9.88,14.24-52.48,3.94-60.89-3.63-3-7.07-2.62-10.3-.72l.5,2.32c2.48-1.4,5.63,4.67,4.3,12.07C125.4,71.94,136.74,68.65,133.78,81.24Z"/>
  </g>
  <path class="hairOverlapLine" d="M91.67,31c1.65.33,5.88.91,7.38.66.24-1.35-.38-4.85.73-8.78"/>
  <g class="anitaBarrette">
    <path d="M131.42,18.73c.07.66-2.24,2.46-2.91,2.49-.38,0-2-1.07-2-1.46.06-1,2.37-3.5,3.7-3A3.53,3.53,0,0,1,131.42,18.73Z"/>
    <path d="M128.51,21.22c-.38,0-2-1.07-2-1.46-.28-.37-3.43,1.52-3.58,2-.26.77,2.74,3,3.51,3C126.88,24.64,128.81,21.52,128.51,21.22Z"/>
    <path d="M135.68,16.64c-.09-1.52-2.1-3.11-3.16-2.8-.35.11-2.61,2.77-2.29,3a3.53,3.53,0,0,1,1.19,1.92h0C131.86,19.24,135.73,17.32,135.68,16.64Z"/>
  </g>
  <g class="eye">
    <circle class="sclera" cx="76.96" cy="38.54" r="5.49"/>
    <path class="irisDarkBrown" d="M73.3,40c-.33-.12-.59-1.74,0-3.35s1.93-2.62,2.26-2.49A17.86,17.86,0,0,1,73.3,40Z"/>
    <path class="pupil" d="M73.28,38c-.26-.11-.19-.67.06-1.29s.58-1.09.84-1A9.34,9.34,0,0,1,73.28,38Z"/>
  </g>
  <g class="skinEastAsian">
    <path d="M73.17,261.52c.22-3.34,4.14-10.13,7.9-17.63-3.33-.33-6.21-.95-7.06-1.8-5.79-.31-12.37,1.2-16.15-1.61-.82,0-1.62,0-2.38,0-9.8,27.65-16.39,64.73-24.92,67.17-5.44,1.57-10.74,2.15-15.21.61-3.13,14.57,30.69,15.95,33.42,5.1a8.33,8.33,0,0,1-.52-3.71C49.76,292.1,72.05,278.46,73.17,261.52Z"/>
    <path d="M147.13,293.66c-17.45-12.48-17-36.63-34.62-45.91-1.66-.88-2.27-2.82-2.65-5.76a15.87,15.87,0,0,1-1.88-.21,24.1,24.1,0,0,1-13.79,1.32c-.52,1.1-6.8,1.34-12.26.88,2.94,7.69,8.34,13.14,11.23,15.89,18.34,17.44,40.49,33.37,37.06,43.89-2.75,5.81-2.82,10.69-7,14.14C129.09,329.42,153.56,305.83,147.13,293.66Z"/>
    <path d="M108.3,62.24A9.55,9.55,0,0,1,106,56.1L70,55.26C79.47,62.82,82.25,72.17,82,83c6.43-4.51,20.91-7.34,26-7.43C106.08,69.32,106.08,63.81,108.3,62.24Z"/>
    <path d="M75.75,120.25c-3.52-2.94-6-8.86-9.46-10a6,6,0,0,0-1,2c-2,0-5.34-.46-8.08.4-2.46.78-1.27,2.51-2.91,4.33-2.47,3.19,1,3.78-.14,6.7-1,2.19,2,3.42,2.09,5.33.28,1.55,3.37,2.94,5.29,3.26,4,.66,4.82-.29,8.09-.72C69.27,129,73.07,122.07,75.75,120.25Z"/>
    <path d="M89.31,67A34.81,34.81,0,0,1,76,70.43c-3.83.23-4.52.06-5.49-.38-4.5-2-1.74-6.23-4.68-7.66-2.43-3.75,2.07-4.63,4.25-2.92-.19-.35-2.33-3.47-4.58-3.23-.7-.41-.79-2.19-.43-2.86,1-.53,1.35-1.88,1.62-3.3-4.1-.24-5.14-3.3-3.77-4.52,2.42-2.17,8.14-4.91,7.66-9.08a18.39,18.39,0,0,1,1.79-10.1,26.56,26.56,0,0,0,4.45,1.1,9.59,9.59,0,0,1,1.48-5.8A16.05,16.05,0,0,0,78.78,28c2.71.76,5.49,1.43,8.33,2a10.08,10.08,0,0,1,.76-5.24,17.75,17.75,0,0,0,.83,5.58,20.47,20.47,0,0,0,3,.73c4.61,8.85,8.16,8.94,1.72,18.45,7.65.71,6.45-6.69,9.34-5.12,4.17-5.61,12.41.17,9.07,6.45-2,3.92-4.45,4.12-5.76,5.3-3.29,3.43-7,4.38-8.89,1.75M73,39.46a45.15,45.15,0,0,0,5.59,0c-1.35-1.06-3.39-2.33-4.79-3.55A4.8,4.8,0,0,0,73,39.46Z"/>
  </g>
  <g class="soleLightTan">
    <path d="M156.38,305.18a3.59,3.59,0,0,1,1.64,3c-1.36,6.43-14.27,13.78-22.55,19.92-6.21,4.61-14.84,4.57-18.64,2.27a2.32,2.32,0,0,1-1-2.69Z"/>
    <path d="M45.92,328.42a5.43,5.43,0,0,1-2,2.81c-4.88,2.12-12.76-2.74-19.34-3.75-12.66-2-22.82-8.35-24-10.16a2.26,2.26,0,0,1,.32-2.42"/>
  </g>
  <g class="anitaShoe">
    <path d="M147.13,293.66c3.39,1.59,9,7.27,9.25,11.52.49,7.26-12,14.13-22.53,21.66-6.17,4.42-17.32,3.37-18,.82-1.34-5,4.88-7.16,7.38-9.76,3.19,1.25,5.19,1.79,7,1.52s4.55-4.77,3.54-6.34-2.9-3-6.23-3.83c.1-1.51,1.33-4.07,2.21-5.77C140.58,310,148.06,301.74,147.13,293.66Z"/>
    <path d="M48.77,313.32c1.32,3.78-.57,12.58-2.85,15.1-8.49,3.3-13.35-1.64-20.06-2.71-14.2-2.24-24.39-9.16-25-10.81-.12-6.21,7.86-8.88,14.54-6.68.23,2.9,1.17,5.91,2.67,7.07,3.67,2.86,8.21.81,11.15-2.49C33.35,319.38,44.35,318.83,48.77,313.32Z"/>
    <path d="M29.42,307.53A20.8,20.8,0,0,1,33,317.4c.36,3.34-6.09,3.72-6.47.57-.51-4.07-1.51-7.49-3.42-10A22.45,22.45,0,0,1,29.42,307.53Z"/>
  </g>
  <g class="lipFemaleMedium">
    <path d="M70.08,59.47c-2.18-1.71-6.68-.83-4.25,2.92C67.62,62.13,67.9,60.81,70.08,59.47Z"/>
    <path d="M65.07,53.38c-.36.67-.27,2.45.43,2.86,2.25-.24,4.39,2.88,4.58,3.23C69.15,56.06,67.75,53.7,65.07,53.38Z"/>
  </g>
  <path class="noseLine" d="M69.45,47.7c.79.73.21,3.09-1.18,3.2-1.91.15-1.51-1.39-3-1.41"/>
  <g class="eyeLidLine">
    <path d="M73.79,35.92c-1.22-1-1.26-1.22-.17-2.67"/>
    <path d="M73,39.46c-.67-.08-1.73.32-.82,2.52"/>
  </g>
  <path class="eyeCornerLine" d="M78.58,39.47a3.86,3.86,0,0,0,1,.3"/>
  <path class="eyebrowBlack" d="M72.4,28.56c2.85.41,7.83-.56,10.17,8.1C77.87,29.85,74,31.51,72.4,28.56Z"/>
  <g class="skinFoldLine">
    <path d="M102.89,47.19c5.3-8,12,2.68,3.34,7.15"/>
    <path d="M103.11,49.1c.75,1.53-3,3.87-1.84,5.09.8.84.82-1.57,3.57-1.81,3.79-.33,2.76-5.42.55-4.25"/>
  </g>
  <g class="clothesFoldLine">
    <path d="M62.59,138.16c1.35,1.16,1.6,2.17.06,3"/>
    <path d="M62,152.9c2,.91,2.37,3.1.17,2.7"/>
    <path d="M89.5,125.14c.48,1.34-1,2.56.89,2.8"/>
    <path d="M94.13,105.17c.84,2.17-.16,3.9,1.47,6.81"/>
    <path d="M99.91,124.9c1.37.64,3.09-.31,4.87-1.51"/>
    <path d="M100.27,129.09c3.83,1.27,4,7.47,10.53,13.25"/>
    <path d="M113.81,138.43c-2.93-3.44-6.3-5.83-10.42-6.41"/>
    <path d="M120.49,137.35c-.74.92-1.72,1.16-1.55,2.29"/>
    <path d="M113.07,90.19a6.33,6.33,0,0,0-3.49-1"/>
    <path d="M104,189.36q1.28,15,2.48,29.31"/>
    <path d="M77.16,189.11a137.69,137.69,0,0,0-.75,23.1"/>
    <path d="M61,216.31c-1.44,8.66-2.6,16.89-3.15,24.17"/>
    <path d="M74.3,235.44a27,27,0,0,0-.29,6.65"/>
    <path d="M94.55,224.26c-.13,7.58.1,15-.36,18.84"/>
    <path d="M108.33,234.82a18.66,18.66,0,0,1-.35,7"/>
    <path d="M113.18,225.5a110.59,110.59,0,0,1,.91,15.94"/>
    <path d="M125.46,22c0,1.06.77,1,2.23-1.15"/>
    <path d="M132.82,15.86c1.85-.7.36,1.55-1.75,2"/>
  </g>
</svg>
