<svg viewBox="0 0 127.84 414.87">
  <rect class="noStroke" x="15.15" y="232.6" width="75.46" height="182.02"/>
  <path class="hairBlackDark" d="M77.77,83.86c10.63-30.45-5-16.12-18,4.79C66,92.11,75.43,89.22,77.77,83.86Z"/>
  <path class="hairBlack" d="M48.16,87.49,79.65,62.14c.2,9.77-.59,17-6.8,26.35-4.53,6.82,5.47,3.54,9.83-4.36.91,7.78,15-11.63,4.59-37.8C81.43,31.62,85.62,30.39,82,21.68c-2.14-5.14-7.54-8.29-9.32-10.9C65.83.7,46.68-4.76,32.52,6.55,21.77,2,16.2,15,10.33,23.45,1.2,36.53,3.7,48,2.05,54c-5.92,21.28,4.54,41,6.13,31.43C16.09,96,28.55,98.28,22.92,91c13.29,5,18.13,2.27,13.8-.6C45.13,92.1,52.52,91.58,48.16,87.49Z"/>
  <g class="hairOverlapLine">
    <path d="M37.1,41c-3.43.42-3.24-1.46-.62-2.69"/>
    <path d="M78.55,34.72C81.83,34.17,82,33,79.68,32"/>
  </g>
  <rect class="lizUndershirt" x="39.47" y="103.35" width="41.69" height="99.9"/>
  <path class="lizJeans" d="M15.57,232.6c-2.09-14.7-1.7-27.82,1.69-39,14.16,2,57.8,1.89,71.43.12a182.78,182.78,0,0,1,1,38.89Z"/>
  <g class="lizJacket">
    <path d="M109.76,184.89c-.59-3.52-6.12-10.9-7.74-14.3-1.93-4-1.16-7.05-4.39-11.41.23-3.84-1.39-6.16-1.86-8-1.18-4.74-1.38-9.71-3.39-15.89C92.89,107.83,90,107.38,89,103c-.64-2.79-11.71-7.83-22.07-12.72,16.85,37.67-.37,63.88-2,88.9,1.34,9.26,1.49,23.29,7.73,22.87,8.91-.6,18.93-3.11,18.35-6.11-1.21-6.27-3.49-12.23-3.79-17.49,2.52,5.93,4.61,8.87,7.14,14.91C93.09,189,106.62,180.21,109.76,184.89Z"/>
    <path d="M9.6,106.13c.8-8.47,11.86-6.66,25.36-18.07,9.45,24.43,39.93,46,35.21,69.42-.29,7.76-2.53,14.7-3.86,21.6-1.48,7.7-2,20.71-5.41,21.8-7.16,3.05-45.76-4.26-45.47-6.43,1.67-5.66,2.73-13.77,4.66-19.38-6.62-.47-15.93-2.83-16.54-6.67-1.19-7.52-3.83-6.47-1.67-12.28C4,136,5.6,110.42,9.6,106.13Z"/>
  </g>
  <g class="lizJacketInner">
    <path d="M41.54,175.37c-6.66-1-5.17-19.09,2.07-18.84C50.39,156.76,47.48,176.29,41.54,175.37Z"/>
    <path d="M94.27,193.33c3.77,4.21,17.82-1.46,15.49-8.44C106.62,180.21,93.09,189,94.27,193.33Z"/>
  </g>
  <g class="lizJacketLapel">
    <path d="M73.9,106.48a18,18,0,0,1,4.34-1.62c-1.45-5.78-4.17-10.38-8.18-13.26-2.68-1.92-4.6-4.72-8.38-5.35,5.81,6.45,15.61,38.41,8.57,59.18l.45,6.43c7.08-15.28,9.91-30.55,8.42-42.3A20.66,20.66,0,0,0,73.9,106.48Z"/>
    <path d="M39.08,84.32c-.53-.68-6.41,3.69-10.53,7.54-1.31,1,2.46,11.3,4.55,14.15a46.09,46.09,0,0,1,8.62.07,21.93,21.93,0,0,0-4.87,5.08C48.56,124.63,69,131.61,70.17,157.48,80.33,125.77,33.84,103.92,39.08,84.32Z"/>
  </g>
  <g class="clothesDisplayLine">
    <path d="M48.74,203.35c-2.19,8.09-10.84,12.26-25.36,12.88"/>
    <path d="M74.89,203c2,6.49,6.19,10.2,13,11.87"/>
    <path d="M60.54,202.66c1.18,3.54.22,7,.59,8.85,1.28,6.29-.59,9.43-.59,13s-.86,5.33-2.06,8.12"/>
    <path d="M67.72,202.17c1.18,4.52.18,7,.49,9.54.52,4.34-.47,9.94-.79,12.38-.7,5.39-4,7.23-8.31,7"/>
  </g>
  <g class="clothesOverlapLine">
    <path d="M24.63,108.93c1.53,11.07-.7,27-2.75,36.25-.77,3.43,1.58,5.8-1,7.94a1.66,1.66,0,0,1,.72,2.41C26,155.44,30,157,34.11,156.6a13.57,13.57,0,0,1,9.5-.07"/>
    <path d="M20.09,175.07c7.86.46,15.91-.21,21.45.3"/>
    <path d="M85.35,113c-.26,4.28,2.34,7.53,1.34,9.73,6.59,9.66,8.85,19.27-.35,28.74,2.59,5.54-.55,5.56-.81,8s.54,4-.44,6.61c-.79,2.11,2.78,9.47,2,12.35"/>
  </g>
  <g class="clothesFoldLine">
    <path d="M9.6,106.13a9.28,9.28,0,0,1,2.92-1.93"/>
    <path d="M14.59,113c-.17,7.77,3.11,16.59,5.53,25.83"/>
    <path d="M17.36,115.69c.42,4.4,2.76,9.16,4.57,14"/>
    <path d="M4.57,153.09a8.43,8.43,0,0,0-2.69,3"/>
    <path d="M20.89,153.12C6,151-2,168,12.78,155.86"/>
    <path d="M7.94,166.91c4.32-6.7,8.92-10,13.67-11.38-4.08,2.57-7.91,7.73-10.13,13.89"/>
    <path d="M34.11,156.6c-2.61,1.11-4.49,3.23-7.86,5"/>
    <path d="M29.28,112.32c3.64,6.09,9.58,10.19,15.72,14"/>
    <path d="M29.71,120.09c2.12,2.91,7,4.35,11.75,7.43"/>
    <path d="M27.46,139.44a15.56,15.56,0,0,1-4.09-2.16"/>
    <path d="M33.94,143.42a23,23,0,0,1-11.19-2.52"/>
    <path d="M40.07,153.78c-3.8-1.92-7.7-2.06-10.28-4.14"/>
    <path d="M22.12,150.15c5.52,2.77,13.58,3.13,10.61,5.38"/>
    <path d="M48.37,178.31a30.7,30.7,0,0,1-11.92,9.85"/>
    <path d="M55.8,173.48c-2.48,2.93-4.06,7.17-6.48,11.31"/>
    <path d="M52.94,147.82a23.53,23.53,0,0,1,6,3.78"/>
    <path d="M58.39,146.18c1.42,2.27,5.32,4.71,6.74,6.79"/>
    <path d="M83.61,119.23c.48,1.49.23,3.79-1.81,8"/>
    <path d="M86.69,122.77c-.1,1.13-.81,2.52-2.48,4.32"/>
    <path d="M76.09,147.91a12,12,0,0,1-4.47,1.9"/>
    <path d="M80,149a42.72,42.72,0,0,1-8.78,4.36"/>
    <path d="M86.34,151.51a8.66,8.66,0,0,0-2.9,3"/>
    <path d="M85.6,154.47c.15,2-2,3.29-6.83,3.72"/>
    <path d="M83.61,175.81c-3.79-.5-7.48-5.92-11.2-10.93"/>
    <path d="M93.11,150.41A10.64,10.64,0,0,1,88.62,154"/>
    <path d="M97.63,159.18a13.69,13.69,0,0,0-9.44,1.95"/>
    <path d="M87,159.14a13.79,13.79,0,0,1,6.82-.95"/>
    <path d="M101.66,176c-.6,3.73-7.43,4-12.35.61"/>
  </g>
  <g class="eye">
    <ellipse class="sclera" cx="64.19" cy="50.62" rx="14.79" ry="14.94"/>
    <g class="irisDarkBrown">
      <ellipse cx="57.14" cy="47.68" rx="2.84" ry="3.33" transform="translate(-0.86 1.05) rotate(-1.05)"/>
      <ellipse cx="75.09" cy="46.59" rx="2.58" ry="3.33" transform="translate(-0.84 1.38) rotate(-1.05)"/>
    </g>
    <g class="pupil">
      <ellipse cx="57.35" cy="47.6" rx="1.1" ry="1.29" transform="translate(-0.86 1.06) rotate(-1.05)"/>
      <ellipse cx="75.27" cy="46.52" rx="1" ry="1.29" transform="translate(-0.84 1.38) rotate(-1.05)"/>
    </g>
  </g>
  <g class="skinIndian">
    <path d="M47.29,169.59c-1.78-.07-5.94,1.17-9.39,2-1.44-4.43-.33-11.43,2.85-14a14.22,14.22,0,0,0,6.2-1.2c2.78-5.33,6.76-4.54,10.15-4.69,8.57-.4,7.76,1.38,11.24,4.86,3.93.94,7.74,1.28,7.34,4.86-.17,1.56-2,2.71-4.83,1.94,2.06.69,1.74,2.64,1.36,3.54-1,2.45-2.43,2-4.68,1.39-.33,1.93-1.45,3.72-4,3.17-.6,2.36-5,2.47-7.78,2.07C49.64,172.6,48.71,169.58,47.29,169.59Z"/>
    <path d="M66.24,72.17C63.17,75.49,62,83,63.84,89.49c2.54,4.1,4.5,10.34,6.25,17.8-5.43,8.8-9.59,9-19,2.67C45.53,103.51,38.07,95.4,37.2,89c1.25-12.45-.69-21.49-4.4-25.12"/>
    <path d="M106.65,191.73a6.85,6.85,0,0,0,3.89-2.47c.16.74.1,1.45.62,1.84-4.26,5.64,1.93,7.55,2.64,6a15.77,15.77,0,0,1,1.63-3c-.54,3.82,2.56,5.24,4.71,3.87.68.64,3.08.47,3.39-1.23,1.35,1,2.63,0,3.1-1.34.86-2.47,2.31-5.66-1.85-6.23.13-1-.44-4.42-3.7-4.11-2-2.21-2.92-1.87-4.59-3.1-2.53-1.87-3.76-3.1-6-1.95-7-.25-7,2.65-9.92,4.23-4.55,2.43-6.74,10.79-.73,11.62,2.44.47,3.36,1.09,5.22,1.1C107.79,197,109.08,193,106.65,191.73Z"/>
    <path d="M33,64.65c-4,4.8-6.45.16-7.52-.62C11.74,54,24.26,38.39,30,48.15c2.43,3.77,5.42,3.75,5,0C34.22,44,36.3,43.42,37.1,41c4.49-1.25,5.92-2.33,9.7-6.27-3,6.65,11.2.1,11-9.47,2.28,11.62,11.78,12.25,8,8a20.69,20.69,0,0,0,12.84,1.5c2.56,7.68,0,10.09,1,14.16C82.44,60.77,81.64,70,75,78.41,72.9,81,71.8,84,66.36,84.84c-4.91.76-5.9.21-9.73-.81C42.71,80.3,37,77.08,33,64.65ZM60.38,47.71c-.85-1.38-2.47-2.61-3.88-2.26-1.74.44-4.13,2.38-6.75,3.34,2.23.31,3.52,1.34,5.77,1.29,2.93-.06,3.43-1.3,4.31-1.42C60.27,48.6,60.85,48.46,60.38,47.71Zm10.5-.25c.74,0,1.94,1.33,4.31,1.13a5.11,5.11,0,0,0,2.33-1.11,3.45,3.45,0,0,0-.08-1.82c-1.69-.86-2.26-1.5-3.83-1.43a4.81,4.81,0,0,0-3.07,2.19C69.64,47.69,70.44,47.45,70.88,47.46Z"/>
  </g>
  <g class="skinOverlapLine">
    <path d="M57.75,153.31c2.88-.08,6.42,2.6,10.59,3.2"/>
    <path d="M66.69,162.25c1.32.32,2.71.67,4.16,1.06"/>
    <path d="M65.25,167.49a16,16,0,0,0,2.28.75"/>
    <path d="M62.38,171.19c.34.05.74.12,1.2.22"/>
    <path d="M124.78,189.19c.18,3.74-1,5.22-1.25,7.57"/>
    <path d="M121.08,185.08c1.13,1.43,1.14,4.34.09,8.15-.66,2.38,0,3.76-1,4.76"/>
    <path d="M111,180.73c1.08,1.46,5.12,3.06,5.68,5.13.75,2.75-.42,6.78-1.27,8.26"/>
    <path d="M108.78,186.13c.33.81,1.93.33,1.76,3.13"/>
    <path d="M106.65,191.73c-2.4-1.73-4.88-.64-5.53-3.45"/>
  </g>
  <g class="skinFoldLine">
    <path d="M99,191.2c.91-.87,2.35-1.06,4.1-.83"/>
    <path d="M105.14,185.59a4.91,4.91,0,0,0,4.61,1.29"/>
    <path d="M28.63,52.18c-2.48-10.42-13,1.34-3.38,9.21"/>
    <path d="M29,55.25c-1.39,1.81,2.94,4.26.91,5.39-.87.48-.83-1.18-3.09-2-3.67-1.35-1.94-7.87.27-5.62"/>
  </g>
  <path class="skinEdgeLine" d="M64.72,158.13c.84,3.81-1.19,4.29-1.15,6.78,0,2-1.92,2.07-2,4.13-.06,1.34-1,1.57-.93,1.84"/>
  <path class="lipFemaleBrown__noStroke" d="M71.66,70.36c-.55.93-.57,4.18-5.49,4.58-5.18.41-5-2.25-6.76-3.42C63.54,69.92,68.53,68.17,71.66,70.36Z"/>
  <path class="lipFemaleBrown" d="M72.71,70.89c-2.42-1.4-.25-4.81-2.29-4.06-3.89,1.42-4.57-1.23-6.84,1.45-1.18,1.39-2.58,2.21-5.2,3.42a7.87,7.87,0,0,0,2-.5c4.28-2.07,8.62-2.82,10.45-1.29A20.08,20.08,0,0,0,72.71,70.89Z"/>
  <path class="teeth" d="M70.85,69.91a4.17,4.17,0,0,1-1.44-1.42c-2,.31-4.16-.14-4.72.21-.87.53-2.82,1.79-4.29,2.5,3.61-1.46,4.6-.47,6.71-.59C68.73,70.52,69.05,69.59,70.85,69.91Z"/>
  <g class="lipEdgeLine">
    <path d="M70.94,72.66c-1.62,2-6.46,3.74-9.63,1"/>
    <path d="M69.41,68.49a2.62,2.62,0,0,0,1.13-.56"/>
  </g>
  <g class="cheekLine">
    <path d="M73,62.28c.73.6.92,2.16,1,3"/>
    <path d="M61.63,58.62c-1.63,1.3-1.7,3.86-3.52,6-2.37,2.81-1.84,4.15-2.1,5.16"/>
  </g>
  <g class="noseLine">
    <path d="M68.41,49.34c2.43,7.29,7.47,12.83,2.94,14.4-3.09,1.08-3.74-1.41-6.51-.71-5,1.25-3.89-3.71-3.21-4.41"/>
  </g>
  <g class="eyeFoldLine">
    <path d="M77.9,49.21c-1.12,1.68-3.88,2.53-5.59,1.19"/>
    <path d="M59.15,51.23c-1.73,1.61-4.38,1.72-7.72.59"/>
  </g>
  <g class="eyeCornerLine">
    <path d="M47.38,49.49a6.82,6.82,0,0,0,2.37-.7"/>
    <path d="M77.44,45.66a3.27,3.27,0,0,0,1,.4"/>
  </g>
  <g class="eyeCreaseLine">
    <path d="M70.66,43.92c2.15-2.43,4.62-1.74,6.81-.21"/>
    <path d="M49.47,46.19c3.84-2.19,7.36-4.47,10.89-1.08"/>
  </g>
  <g class="eyebrowBlack">
    <path d="M79.67,39.79c-3.56-2.53-6.15-2-8.85-2.61-1.59-.36,0,2.36,2.12,2.15a12.4,12.4,0,0,1,6.77,1C79.7,40.13,79.69,40,79.67,39.79Z"/>
    <path d="M46.42,44.06c4.63-6.13,11.52-5.57,14.75-6.82.82-.32.54,2.42-1.88,2.57C54.15,40.15,51.67,40,46.42,44.06Z"/>
  </g>
</svg>
