<svg viewBox="0 0 253.71 247.78">
  <g class="wheel">
    <path class="wheelHubDark" d="M143.63,136.6h0l-11.2-19.31c-2.11,0-4.33,4-4.09,6.44L141,140h0c-3,5.54-3.62,10.12-1.89,10.65C141,150.43,147.62,138.29,143.63,136.6Z"/>
    <path class="wheelHubLight" d="M141.39,124.57a89.9,89.9,0,0,1-2.55,9l4.74,8.12c-1.15,3.31-2.65,6.22-4.14,7.66l-9.49,4.2s-1.23,2.11-1.85,3.1l10-4.87c3-1.32,4.32-2.65,6.28-7.33s1.85-6.5.82-9.61Z"/>
    <path class="wheelHandle" d="M139,104.29c6.07,3.31,4.4,19.07-3.16,37.14s-17.6,30.64-24.24,28.31c-7.83-2.74-4.41-19.06,3.16-37.13S132.33,100.64,139,104.29Zm-23,53.61c3.07-3.31,7.38-10.86,11.22-20s6.21-17.57,6.41-22.08c-3.07,3.31-7.29,10.9-11.23,20S116.26,153.54,116.06,157.9Z"/>
    <g class="wheelOverlapLine">
      <path d="M133.69,115.78c.08-1.89-.22-3.1-.94-3.4"/>
      <path d="M113,159.64c.72.3,1.79-.34,3.09-1.74"/>
    </g>
  </g>
  <path class="lizUndershirt" d="M94.71,173.13a31.34,31.34,0,0,1,1.87,18.6c-19.48,17.73-39.8,25.91-61.27,20.75Z"/>
  <path class="lizJeans" d="M35.31,212.48a141.57,141.57,0,0,0,23.15-3.71c6.23-4.61,12.34-9,13.59-6.36,1.17-1.34,3.56-2.38,4.93-1.57,1.1-2.14,2.44-2.83,4-2.39,4.56-2.68,8.85-5,12.69-6.79-.38-1,1.44-2.11,2-1.4,17.76-8.65,39.7-18,50.88-13.21,18.64,8,39.1,22.7,57.14,34.37l-8.91,17.1c-2.36.25-11.3-3-13.42-3.66-13.22-4-29.21-7.2-38.79-16.57-1.77,1.93-2.68-.61-3.15-.29,0,1.26-.54,1.89-2,1.63.27,3.79-2.31,1.42-2.9,3.12-19.71,17.81-35.27,32.39-57.31,34.37C44.9,250,29.1,237.37,35.31,212.48Z"/>
  <path class="lizJeansCuff" d="M201.88,210.28c1.31-.56,5.82,1.88,6.09,3.21,0,7.21-2.31,14.82-8.16,18.33-1.51.63-6.79-1.83-6.78-3.45C195.26,225.77,201,213.57,201.88,210.28Z"/>
  <path class="soleLightTan" d="M251.37,206.31a3.9,3.9,0,0,1,2,1.42c1.06,4.93-5.19,13.63-10.22,18.27-3.88,3.58-9.14,6.39-11.75,9.29l3.36,2.28c-2.42,3.8-6.57,10-7.87,10a22.91,22.91,0,0,1-9.38-2.61Z"/>
  <path class="lizShoe" d="M199.81,231.82c9.27,6.94,9.24,8.84,17.67,13.09,6.09-2,8.46-9.69,15.93-14.64,11.32-7.5,18.88-18.7,18-24-1.41-1.44-4.79-1.44-7.19,1-5,4.95-12.87,6-20,8.23-5.89,1.83-11.35,1.35-16.22-2-2.56,3.81-4.36,6.54-3.25,8.81C202.8,224.62,199.55,231.19,199.81,231.82Z"/>
  <g class="lizJacket">
    <path d="M117.55,132.7c-.42-2.35-8.75-11-11.68-12.57-1.4-.07-4.89,5.81-10.42,10.71C98.44,143.49,110.05,148.87,117.55,132.7Z"/>
    <path d="M40.53,102c13.53-11.07,56.18,22.1,60.18,34.31a7.42,7.42,0,0,0,2.58-1.73c-.55-4.47,3.14-3,8.4-11.77,1.1-1.85,15,10.85,13.33,12.72-10.2,11.84-17,27.9-24.62,32.69-.75,11.67-15.84,17.44-35.48,24.85C54.41,197,43.68,208.25,32.64,213c-1.06-2.87,3.72-4.48,2.36-7.69-.5-1.19-.21-2.59.41-5.31s-3.09-4.94-2.6-8.15c.41-2.66,3.91-5.66,4-8.72-2.89-4.87.75-6.37-.17-13.14-1.23-9.14-.32-21.53-1.34-23.6-2.12-4.32-.08-6.78-.38-11.4C34.16,123.2,36.61,112.33,40.53,102Z"/>
  </g>
  <path class="lizJacketInner" d="M100.4,168.21c-4.73,17-30.17,19.78-39.48,18.86-2,0-13.83,17.6-28.28,25.91a50.07,50.07,0,0,0,18-8.32c3.26-2.3,7.59-2.34,13.11-9.12C88.31,188.72,99.81,179.58,100.4,168.21Z"/>
  <g class="lizJacketLapel">
    <path d="M43.05,93.25c-.71-.32-4.34,7.92-3.63,8.23A177.45,177.45,0,0,1,57.23,107c.92.19,2.54-1.47,4.47-2.41,0,1.65-.5,3.58,0,4.12,16.74,6.73,31.21,16,39,27.62C99.73,127,74.61,105.4,43.05,93.25Z"/>
    <path d="M70.85,102.06s-5.8,1.29,3.2,7.13c.75.49,7.57,5.11,10.41,7.54C80.16,111,77.51,107.5,70.85,102.06Z"/>
  </g>
  <g class="clothesDisplayLine">
    <path d="M198,218.63c.43,1,5.59,4,6.75,3.67"/>
    <path d="M196.57,221.1c.32.9,5.14,3.62,6.39,3.49"/>
  </g>
  <g class="clothesOverlapLine">
    <path d="M72.16,123.24a11.22,11.22,0,0,1,2.15,3.28c3.18,1.2,2.28,4.58,5,8.71,3,.59,3.37,3.41,4.38,5.31.69,1.3,2.22,1.37,2,4,1.41,2.39,3.84.62,3.31,3.87.85.83,1-1.08,1.92-.23.14-2.21,4-2.64,6.67-8-.23-3.31,1.83-3.34,3.11-3.9"/>
    <path d="M100.4,168.21c-5.06,3.64-11.67,6.5-14.81,5.28C71.11,167.88,51.91,134.22,46,132.38"/>
    <path d="M204.72,222.3c.86,2.1,5.71,5.39,9.65,7.63"/>
  </g>
  <g class="clothesFoldLine">
    <path d="M61.93,203.4c-4.32,1.16-8.26,1.81-11.33,1.26"/>
    <path d="M63.71,195.54c-3,.67-5.48,1.17-7.31,1"/>
    <path d="M60.68,175.37C53.07,185.47,41.09,196,36.08,191"/>
    <path d="M36.81,183.11a5.85,5.85,0,0,1,.73,4.66"/>
    <path d="M49.42,139c-4.38,2.54-8.81,3.75-13.34,2.71"/>
    <path d="M55.67,149.52a21.78,21.78,0,0,1-9.48,3.54"/>
    <path d="M54.53,155.88a34.56,34.56,0,0,0,7.39-5.2"/>
    <path d="M43.9,108.87a15.9,15.9,0,0,1,8.77-3.5"/>
    <path d="M70.78,115.34a12.51,12.51,0,0,1,1.38,7.9c-5.13-13.32-19.91-4.71-21.39-8.32-1.28-3.15,6.26-3.75,12.93-1.67"/>
    <path d="M58.7,121.69c5.41,3.65,10.42,3.23,15.61,4.83"/>
    <path d="M79.29,135.23c3.94,3.21-2.67,5.43-11.32,5.22"/>
    <path d="M78.29,123.67a43.64,43.64,0,0,0,7.92,6.26"/>
    <path d="M82.87,133.05c2.7-.21-1.66-4.06-6.66-5"/>
    <path d="M85.7,144.58c0,2.17-1.9,4.1-5.33,6.4"/>
    <path d="M89,148.45c0,2.22-8.74,13.47-3.53,17"/>
    <path d="M88,162.23c1.71-4.12,1.87-8.4,1.77-12.71"/>
    <path d="M90.93,148.22c.8,4.43,2.84,8.55,1.22,13.7"/>
    <path d="M97.6,140.2a23.5,23.5,0,0,1-.66,9.11"/>
    <path d="M103.29,134.57a6,6,0,0,1-.51,4.22"/>
    <path d="M107.36,136.8c.85,5.36,1.23,10.61-1,15.32"/>
    <path d="M137.36,209.63a32.62,32.62,0,0,1-4.54-9.52"/>
    <path d="M139.37,208c-1.75-3-2.27-6.94-2.62-11"/>
    <path d="M142.52,208.29c-.55-1.08,1-3.95,1.62-6.71"/>
    <path d="M140.51,206.74c.41-3.28,1.58-5.28,2.87-10.15"/>
    <path d="M95.62,190.26c.55,2.24,4.33,8.81,7.53,13.75"/>
    <path d="M93.63,191.66c.66,2.25,6.23,11.59,10.16,17.86"/>
    <path d="M58.46,208.77a99.48,99.48,0,0,0-13.29,13.54"/>
    <path d="M72.05,202.41c-2.64,2.89-6.93,14.29-9.27,22.66"/>
    <path d="M77,200.84c-.71,1.82-.6,9.61,0,16.25"/>
    <path d="M68.59,204a62.93,62.93,0,0,0-16,14.26"/>
    <path d="M62.89,212.28a72.5,72.5,0,0,0-10,16.61"/>
    <path d="M73.87,203.48c-3.3,5-5.61,11.5-7.1,19.36"/>
    <path d="M78.91,201c-1.15,2.89-.58,10.38.36,18.84"/>
    <path d="M176.74,200.39c7.81,7.64,15.11,17.46,13.18,25.66"/>
    <path d="M134.65,209.71a19.9,19.9,0,0,1-2.57-4.48"/>
  </g>
  <g class="eye">
    <circle class="sclera" cx="82.41" cy="54.49" r="6.82"/>
    <path class="irisDarkBrown" d="M85.26,57.84c.37,0,1.32-1.43,1.4-3.27s-.75-3.36-1.11-3.38A18.83,18.83,0,0,0,85.26,57.84Z"/>
    <path class="pupil" d="M86.16,55.85c.29,0,.47-.56.5-1.28s-.09-1.3-.39-1.31A9.77,9.77,0,0,0,86.16,55.85Z"/>
  </g>
  <path class="teeth" d="M87.12,77a8,8,0,0,1-.87,3.33C80.9,78.91,81.78,75.59,87.12,77Z"/>
  <g class="skinIndian">
    <path d="M38.25,73.59c2.85,4,7.15,11.32,5.33,19.86a166.07,166.07,0,0,1,30.47,15.74c-.5-2.3-2.25-5.14-3.2-7.13-2.58-12,3.68-13.32,9-17.82"/>
    <path d="M111.69,122.8c.45-.77,3.11,1,6,3.41l18.64-29c-4.42-3.85-10.35,2.68-18.2,9.43-3.73,3.21-7.35,9.66-11.34,14.09a38.4,38.4,0,0,1,4.05,3.54C111.08,123.78,111.38,123.31,111.69,122.8Z"/>
    <path d="M126.46,118.62a63,63,0,0,0-5,11.22c-3-3.19-7.15-6.58-9-7.14,2.11-3.58,3.78-7.58,6.38-11.32,3.27-4.71,2.08-6.64,14.46-14.18,4-2.6,6.94.24,9.4,2,2.25,1.61,7.94,3.77,6.16,7.52.51,1.45,1.64,8.42-1.95,9.73-.32,1.7-2.49,2.62-4.55,2.32a40.65,40.65,0,0,0,.31-4.37,7.45,7.45,0,0,1-3-2C135.55,118,131.19,117,126.46,118.62Z"/>
    <path d="M54,78.21c0-35.15,5.78-40.79,35.23-40.79.77,6.17,2.55,8.2.49,14.81-1.82,5.83,8.71,13.86,6.36,18.53-.93,1.85-3.61,1.69-5.8.14a10.33,10.33,0,0,1-1.17.53c.32,3.27,1.52,4.38,1.38,4.67-.26,1-1.06,1.81-1.92,1.56-1.5-.43-2.55,0-4.69,0L83.42,79c5.63.89,7.48,4,5.24,5.31-3.55,2.3,2.46,8.19-5,9.67-4.51.9-20.69-4.25-27.31-11.88M86.51,52.81a27.57,27.57,0,0,0-6.83,2.31c2,.36,5.24.73,6.83.89A4.35,4.35,0,0,0,86.51,52.81Z"/>
  </g>
  <g class="skinOverlapLine">
    <path d="M139.94,100.4c3.11,2.73,7.44,3.89,9,6.32"/>
    <path d="M141.26,106.55c4.8,3,6.6,3.85,5.71,9.9"/>
  </g>
  <g class="lipFemaleBrown">
    <path d="M84.13,77l-.25.63c2.14.06,3.19-.41,4.69,0,.86.25,1.66-.59,1.92-1.56C88.61,76,86.18,77,84.13,77Z"/>
    <path d="M83.42,79h0c.81,1.85,3.44,4.7,5.24,5.31C90.9,83,89.05,79.92,83.42,79Z"/>
  </g>
  <path class="cheekLine" d="M83,81c.74-5.64,5.13-9,3.47-14.72"/>
  <path class="noseLine" d="M92.09,70.35c-1.9,0-3.37,2.25-5.54.81"/>
  <g class="eyeLidLine">
    <path d="M86.51,52.81c1.51-.6.2-2.58.2-2.58"/>
    <path d="M86.51,56c1,.25,1.81,3.09-2.53,2"/>
  </g>
  <path class="eyeCornerLine" d="M79.68,55.12a6.49,6.49,0,0,1-2.38.2"/>
  <path class="eyeCreaseLine" d="M80.32,53.28a18.48,18.48,0,0,1,6.83-2.19"/>
  <path class="eyebrowBlack" d="M75.89,49.94c4.26-4.26,9.2-3,12.58-4.08,1.56-.5.21,2.61-1.92,2.33C82.84,47.7,79.06,47.72,75.89,49.94Z"/>
  <path class="hairBlack" d="M14.16,71.44C11.32,73,6,72.53,1.73,70.58-.71,69.47-.12,74.28,3.4,76.5c-.85.32-2.09.07-2.58.36C-1,77.93,2.69,82.29,8.29,82.68a3.56,3.56,0,0,1-2.35,3.09c-2.22,1.74,3.75,3.49,9.18-.26-.81,2.66-3.25,3.76-3.66,4.4-2.05,3.2,9.88,4.32,17.56-1.57-3,6.62,8.62,1,11.46-7.79-.48,3.39,1.57,3.26,3.29.43,0,0,7.58-35.25,19.63-35.25C69,45.28,73,43.56,75.74,41.12c-4.66,6.12,4.35,5,10.8-6.16,7.1,9.64,13.63,5.92,10.73,4.12a9.92,9.92,0,0,1-2.68-1.8C72.08,19.25,32.13,53.46,14.16,71.44Z"/>
  <path class="goKartHelmetTrim" d="M99.78,35.26c-.3,3.36-30.07,4.8-36,10.11-5,4.48-.15,22.41-7.54,32.41-7.18,9.71-40.54-4.64-42-6.34-1-.46-1.71-8.41-.67-8.29C35.77,35,64.73,26.07,98,29.46,99.26,28.9,100,34.85,99.78,35.26Z"/>
  <path class="goKartHelmet" d="M98,29.46c-14.25,4-32.57,5.17-39.14,10.83-8,6.84-2.42,26.8-8.47,32.36-3.17,2.91-24.63-2-36.9-9.5C.24,45.92,10.62,9,39.45,2.55,72.7-4.84,93.81,6,98,29.46Z"/>
</svg>
