<svg viewBox="0 0 2726.63 1998.87">
    <g class="leg">
        <path d="M1145.93,1733.57c19.18-4.42,24.68-.94,23.46,24.63-.91,23.75,1.53,74.59,11.57,104.42,6.7,17.66,5.74,31.47-3.18,33.93,7.89,5.56,10.89,9.91,11.71,17.82,2.53,15.48,26.48,22.23,44.46,25.71,23.88,4.23,30.08,18.33,28.53,36.75-6.51-5.88-12-9.08-19.72-4.92-5.32,3.75-11.06,3.18-16.55,1.54,1,9.73-4,17.06-10.64,22.73-6-11.18-8.43-12.7-16.93-7.26-7,4.61-15.24-.26-22.85-10-11.27-14-22.53-17.35-32.76-11.27-7.88,4.94-13.21,6.4-21.76,2.9-6.37-2-9.18,2.23-14.51,7.26-5.56-15.93.22-32.37,16.44-35.31,18.49-2.54,24.58-11.07,23.7-25.63-1-8.88,3.48-13.85,9.58-18.62-9-3.85-13.57-12.79-13-28.29,1.67-32-2.73-74-11-105.66C1125.55,1740.24,1133.15,1736.72,1145.93,1733.57Z"/>
        <path d="M1005.84,1737.54c17.85,2.35,19.05,11.07,13.39,29.09-8.24,27-16.22,66.94-17.51,100.42,0,17.76-2.49,31.33-14.25,30.82,10.1,4.38,9.21,12.86,10.25,20.94,1.85,13.52,6.76,19.54,19.9,23.55,16.31,4.91,25.19,20.28,25.41,38.85-5.35-3.83-10.92-5.86-17.1-3.42-12.43,4-19.67,0-27.69-7.57-11.51-8.83-24.34-9.33-33.66-1.78-18.54,16.07-39.22,22.51-51.05,18.33-20.71-8.3-33.41.61-40.54,9.75-1.78-9.36,1.11-16.72,5.79-25.85a13.12,13.12,0,0,0-7.13,5.41c-.22-20.57,14-36.84,32.32-38.84,25.18-2.68,40.48-5.14,47.46-22.29,4-9.58,7.58-15.38,16.81-20.07-12.35-3.38-7.46-20.11-2.31-33.5,9.53-29.09,17-74.41,16.74-102.47C982.67,1740.37,988.42,1735.26,1005.84,1737.54Z"/>
    </g>
    <g class="bodyOverlapLine">
        <path d="M1190.21,1935.14c6.59,19.15,32.24,13.56,36,38.31"/>
        <path d="M878.78,1970.67c23.06-30.4,34.05-4.38,72.16-33.33"/>
        <path d="M1177.78,1896.55c-6.91,2.15-14.46,3-21.3,1.69"/>
        <path d="M987.47,1897.87a54.28,54.28,0,0,1-20.77-3.2"/>
    </g>
    <path class="body" d="M1004.44,1221.65c127.17-17.22,216.09,35.1,253.19,150.12,37.73,108.56,26,202.45-36.29,283a136.48,136.48,0,0,0-20.22,36c-6.11,17.53-21.39,27.42-31.45,16.48-7,13.64-33.69,15.43-43.44.75-7.93,15-35.8,17.68-44.18-3.75-12.54,3.42-25.18,3.75-36.69.75-2,14.09-22.64,22.48-32.95,10.48-9.47,11.7-30.45,9-37.45-2.24-12.47,7.94-32.55-1.94-38.19-15a202.16,202.16,0,0,0-30-52.42c-62.64-78.68-78.62-174.11-59.23-282.23C863.91,1282.78,920.84,1234.24,1004.44,1221.65Z"/>
    <path class="train" d="M899.11,1635.72s-14.22,25.23-51.68,36.61c-52.26,18.26-41.56,38.84-86.76,49.84-49.47,13.69-46.17,42.5-101.53,49.84-52.48,8.3-42.6,19.83-88.6,23.08-64.31,8.27-44.55,19.8-102.45,18.46-40,.39-45.82,21.09-94.15,12-37.69-8.29-50.45,6.63-95.06-14.76-35.32-20.84-52.53-5.77-87.69-48.92-22.94-28.2-38.92-7.89-64.61-61.84-13-31.73-32.76-26.72-38.76-73.84-3.15-40.65-20.34-32.73-26.77-84.91-4.52-41-26.5-44.13-28.61-109.84-1.56-38.72-23.41-53.65-14.77-113.52,5.76-31.13-16-53.73-8.3-97.84,6.61-32.6-19.27-69.49-2.77-108.91,13.52-29.62-10.74-42.07,5.53-106.14C26.74,959.89,6.56,943.14,38,875.8c21-35.08-.14-41.32,47.07-103.37,26.1-32.67,17-51.55,64.61-103.37,30.18-36.89,16.6-60.13,71.07-110.76,41-39.5,41-104.13,144.9-166.14,68.16-37.59,36.06-56.53,110.76-89.53C535,278,528.46,249.2,596,223.68c42.31-15.27,37-56.8,118.56-78.88C774.59,130.66,781.17,75.51,878.81,71c76.88-4.51,63.71-44,158.75-35.08C1115.38,48.35,1130.2.6,1208.31,12.82c76.65,15,64.3-31.15,174.44-1.85,68.49,18.44,73.43-22.72,168.91,3.7,70.8,23,101.26-16.54,174.44,27.68,75,35.63,110.39-16.23,180,34.15,51.42,41,114.8-2.64,166.14,53.54,36.74,41.78,103.42,24.5,152.29,110.75,21.1,51.22,78.72,39.69,111.68,134.76C2357.56,448.41,2430,427,2458,534.3c33.72,89.45,88.05,40.88,115.37,160.6,19.6,72.9,86.28,75.37,90.46,177.21,1.18,46.4,51.79,85,40.61,167.06-11,67.78,41.64,101.53,12,202.13-27.16,79.68,26.51,88-10.16,171.67-40.75,85.1-10.41,156.61-96.91,216.9-45.21,31.91-37,79.65-112.6,115.38-55.26,25.18-49.5,76.22-117.22,100.6-61.52,21.72-53.29,53.82-129.22,60.92-48.76,4-73.89,35.71-141.21,17.53-54.86-16-74.27,11.59-156-15.69-53.28-17.17-70.56,14.94-142.13-22.15-54.38-26.3-84.84-1.6-144.91-36.92-47.13-28.15-74.11-8.31-126.45-48-41.5-31.12-73.6-17.94-117.22-51.69-39.52-32.93-58.46-13.18-91.37-48.92-32.94-38.34-56-27.64-77.53-67.37-27-51.64-55.84-45.88-68.3-89.53-13.88-48.55-48.45-43.61-48-101.53.37-51.56-17.74-53.21-8.79-75.5,65.45-49.68,51.21-129.64-26.29-143.58-141.37-15.83-229,27.84-254.58,140.15C827.63,1464.32,843.05,1555.5,899.11,1635.72Z"/>
    <path class="trainTop" d="M1227.73,934.74c16.55,2.08,37.39-4.87,48,21.29,5.86,24.41,38.7,6.68,40,45.79,1.67,32,28.5,34.52,11.7,67.09-13.74,27,16.8,36.73-9.67,64.21-15.77,17.31,16.29,39.19-17.81,63.62-13.23,9.16,7.13,39.19-25.44,53.44-17.31,8.14,3.56,41.73-42.75,57.51-19.34,6.1,2.54,37.66-43.77,46.82-18.32,3-15.78,25.44-48.35,15.77a53.3,53.3,0,0,0-11.15-3.27c15.18-34.24-13.1-31,3.39-67.13,8.32-20.9-9.29-25.5-4.37-47.85,3.29-17.33-15.44-26.36-25.31-28.6l-73-199.22c6.81-23.22,6.91-45.9,35.63-51.4,15.91-2.46,8.3-43.63,58.82-36.37,27.68,2.77,42.45-42,89.86-8C1217.44,932.43,1222.36,934.06,1227.73,934.74Z"/>
    <g class="trainLightLine">
        <path d="M2433.09,1611.59c-86.29-47.23-175.38-86.74-267.71-117.26"/>
        <path d="M2540.64,1314.73c-162.77-32-316.94-49.33-457.74-43.65"/>
        <path d="M2603.57,951.38c-93.39,13.94-183.26,40.43-270,78.15"/>
        <path d="M2366.07,741.28c-131.7,51.32-252.17,114.2-360.3,189.8"/>
        <path d="M2220.94,499.73c-59.33,38.07-114.27,76.28-163.41,114.69"/>
        <path d="M2060.57,227.73c-78.73,62.14-149.38,129-211.1,201"/>
        <path d="M1700.27,115.07c-58.23,82-103.48,164.88-135,248.66"/>
        <path d="M1329.82,224.68c-12.74,73.67-21.38,144.51-25.38,212.12"/>
        <path d="M1041.57,127.25q31.29,130.11,69,253.73"/>
        <path d="M788.85,281.52C840,368,887.29,456.87,932,547.43"/>
        <path d="M594.81,479.32a1235.86,1235.86,0,0,1,98.54,100.3"/>
        <path d="M197.73,821.1c49,8.72,98,22.32,146.92,40.2"/>
        <path d="M438.21,1090.19c-85.94-18.08-169.09-29.52-249-33.25"/>
        <path d="M281.24,1241.75c-51.71,5.25-98.79,14.9-139.19,30.93"/>
        <path d="M354.69,610.52a1720.62,1720.62,0,0,1,174.6,128.91"/>
    </g>
    <g class="eyespotOuter">
        <path d="M1166.53,522.7c-2.36,33.65,16.18,51.34,36.76,52.78s41.4-13.5,43.76-47.16-14.87-70.29-35.45-71.73S1168.88,489,1166.53,522.7Z"/>
        <path d="M950.9,404.76c6.77,28.38,26.65,38.18,44,34s30.67-21.85,23.9-50.24-30.46-54.17-47.82-50S944.13,376.37,950.9,404.76Z"/>
        <path d="M835.25,161.49c10.53,25.17,30.35,31.2,45.75,24.76s25-24.8,14.46-50S859.17,90.9,843.78,97.34,824.71,136.32,835.25,161.49Z"/>
        <path d="M649.71,384.46c15.08,23.34,36,25.83,50.31,16.61s20.61-29.35,5.53-52.69-44.53-39-58.81-29.76S634.63,361.12,649.71,384.46Z"/>
        <path d="M331.42,521.22c19.9,16.86,39.4,13.41,49.71,1.24s10.54-32-9.35-48.83-50.6-22.91-60.91-10.75S311.53,504.35,331.42,521.22Z"/>
        <path d="M1332.46,674.08c-5.68,31.37,9.9,49.89,29.09,53.37s40.27-8.4,46-39.77-6.7-67.56-25.88-71S1338.15,642.71,1332.46,674.08Z"/>
        <path d="M845.65,675.29c12.87,28.6,35.83,34.94,53.32,27.07s28-29.25,15.11-57.86-43.07-51-60.57-43.18S832.78,646.69,845.65,675.29Z"/>
        <path d="M583.29,679c18,21.67,39.34,21.67,52.59,10.68s17.21-32-.75-53.66-49.46-33.87-62.71-22.88S565.33,657.3,583.29,679Z"/>
        <path d="M308.07,751.23c23.32,15.76,43.83,9.76,53.47-4.5s7.55-35.54-15.77-51.3-57-18.63-66.61-4.37S284.74,735.47,308.07,751.23Z"/>
        <path d="M632.31,970.5c24,16.23,45.15,10,55.08-4.64s7.77-36.6-16.25-52.83-58.68-19.2-68.61-4.51S608.29,954.27,632.31,970.5Z"/>
        <path d="M401.33,1007.37c25.52,11.73,44.75,2.49,51.92-13.13S454.9,958,429.37,946.3s-59.12-9.08-66.29,6.53S375.8,995.65,401.33,1007.37Z"/>
        <path d="M106.7,956c27.54,5.51,44.12-7.92,47.49-24.77s-6.76-35.62-34.31-41.13-59.63,4.82-63,21.67S79.15,950.5,106.7,956Z"/>
        <path d="M1597.57,811.86c-19.84,23.48-15.74,46.47-1.38,58.61s37.7,12.36,57.55-11.12,26.92-59.68,12.57-71.82S1617.42,788.39,1597.57,811.86Z"/>
        <path d="M1827.41,589c-22.32,21.14-20.77,44.44-7.84,58.09s36.11,16.45,58.43-4.7,33.34-56.34,20.41-70S1849.73,567.86,1827.41,589Z"/>
        <path d="M2179.19,644.72c-28.34,13.49-34.19,36.6-25.94,53.94s29.88,27.37,58.23,13.87,50.15-44.2,41.9-61.54S2207.54,631.22,2179.19,644.72Z"/>
        <path d="M1838.79,828.33c-26.82,16.31-30.3,39.89-20.33,56.3s32.51,24.19,59.34,7.89,45.41-49.07,35.44-65.48S1865.62,812,1838.79,828.33Z"/>
        <path d="M2162.53,910.37c-30.32,8.17-40.23,29.85-35.23,48.39s24.46,32.3,54.77,24.13,57.3-34.46,52.3-53S2192.84,902.2,2162.53,910.37Z"/>
        <path d="M2525,799.77c-28.35,7.64-37.62,27.92-32.95,45.26s22.88,30.2,51.22,22.56,53.59-32.22,48.91-49.56S2553.33,792.13,2525,799.77Z"/>
        <path d="M1580.16,1015.63c-25.27,15.36-28.54,37.58-19.15,53s30.62,22.79,55.9,7.43,42.77-46.23,33.38-61.69S1605.44,1000.28,1580.16,1015.63Z"/>
        <path d="M1803.57,1045.47c-30.19,9.2-39.45,31.31-33.83,49.77s25.64,31.66,55.83,22.46,56.45-36.48,50.82-55S1833.76,1036.28,1803.57,1045.47Z"/>
        <path d="M1366.54,1063.57c-19.69,18-18.71,38.25-7.69,50.29s31.08,14.83,50.77-3.18,29.8-48.39,18.78-60.43S1386.23,1045.56,1366.54,1063.57Z"/>
        <path d="M1497.73,1173c-26,10.48-32.54,30.79-26.13,46.72s25.16,26.08,51.21,15.6,47.21-36.7,40.8-52.63S1523.78,1162.54,1497.73,1173Z"/>
        <path d="M1664.51,1241.19c-28,2.55-40,20.13-38.46,37.23s16.6,32.21,44.56,29.66,55.77-21.57,54.21-38.67S1692.48,1238.64,1664.51,1241.19Z"/>
        <path d="M1889,1341.35c-29.81-.33-44.45,16.94-44.65,35.17s14.06,35.82,43.87,36.15,61.24-16.76,61.44-35S1918.83,1341.68,1889,1341.35Z"/>
        <path d="M2044.53,1152.4c-33.45-.37-49.87,19-50.1,39.46s15.77,40.19,49.22,40.56,68.71-18.81,68.93-39.26S2078,1152.77,2044.53,1152.4Z"/>
        <path d="M2455.16,1136.31c-31-2.3-47.33,14.7-48.74,33.64s12.26,38.17,43.24,40.46,64.77-13.4,66.18-32.34S2486.13,1138.61,2455.16,1136.31Z"/>
        <path d="M2266.26,1352.94c-30-8.2-49.34,5.38-54.35,23.73s4.74,39.87,34.75,48.06,66.25-.77,71.26-19.12S2296.27,1361.13,2266.26,1352.94Z"/>
        <path d="M2602.93,1467.69c-27-10.61-46.23,0-52.72,16.51s.38,37.4,27.35,48,61.42,6,67.91-10.53S2629.9,1478.3,2602.93,1467.69Z"/>
        <path d="M1702.74,1453.77c-29.53-8.24-48.65,5-53.69,23.08s4.45,39.31,34,47.55,65.27-.38,70.31-18.44S1732.26,1462,1702.74,1453.77Z"/>
        <path d="M2038.3,1542.23c-29.5-11-50.26.84-57,18.88s1.07,40.65,30.58,51.7,66.87,5.39,73.63-12.65S2067.8,1553.29,2038.3,1542.23Z"/>
        <path d="M2318.49,1683.76c-27.67-17.82-51.49-10.28-62.38,6.64s-7.91,41.72,19.76,59.54,67.06,20.3,78,3.39S2346.15,1701.57,2318.49,1683.76Z"/>
        <path d="M1516.35,1340.76c-26.4,2.14-37.94,18.61-36.63,34.75s15.36,30.54,41.76,28.4,52.8-19.82,51.49-36S1542.75,1338.62,1516.35,1340.76Z"/>
        <path d="M1348.15,1298.32c-26.48-.06-39.35,15.4-39.39,31.6s12.77,31.7,39.26,31.76,54.27-15.37,54.3-31.57S1374.64,1298.37,1348.15,1298.32Z"/>
        <path d="M1344.19,1516.33c-20.1-12-36.85-6.07-44.19,6.22s-4.62,29.85,15.48,41.85,48.16,12.83,55.5.54S1364.28,1528.33,1344.19,1516.33Z"/>
        <path d="M1501.77,1489c-24.61-7.91-41.17,2.64-46,17.69s2.46,33.27,27.07,41.19,55,1.82,59.86-13.23S1526.38,1497,1501.77,1489Z"/>
        <path d="M1568.59,1669c-27.69-8.91-46.31,3-51.76,19.9s2.76,37.43,30.45,46.34,61.91,2,67.36-14.88S1596.28,1677.91,1568.59,1669Z"/>
        <path d="M1828.27,1658.81c-25.71-10.82-44.5-1-51.12,14.69s-.48,36,25.23,46.82,59,7.13,65.59-8.59S1854,1669.64,1828.27,1658.81Z"/>
        <path d="M2049.23,1807.89c-22.43-12.68-40.71-5.71-48.46,8s-4.3,33,18.13,45.65,53.34,12.84,61.1-.87S2071.66,1820.57,2049.23,1807.89Z"/>
        <path d="M2175.28,320.28c-23.29,16.34-25,37.88-15,52.12s30.83,19.94,54.13,3.6,38.14-47.09,28.14-61.33S2198.57,303.93,2175.28,320.28Z"/>
        <path d="M1402.6,380.61c-6.4,31.23,8.76,50.11,27.86,54s40.46-7.49,46.85-38.72-5.16-67.69-24.26-71.6S1409,349.38,1402.6,380.61Z"/>
        <path d="M1476.09,77.29c-6.28,25.67,5.69,41.78,21.39,45.61s33.74-4.93,40-30.6-2.15-56.23-17.85-60.07S1482.36,51.62,1476.09,77.29Z"/>
        <path d="M1173.69,211.94c-3.18,31.6,13.76,48.78,33.08,50.72s39.34-11.52,42.51-43.12S1237.31,153,1218,151,1176.86,180.34,1173.69,211.94Z"/>
        <path d="M1164.39,826.75c-1.22,28.37,14.77,42.84,32.12,43.59s34.54-12.3,35.76-40.67-14.09-58.82-31.44-59.57S1165.61,798.38,1164.39,826.75Z"/>
        <path d="M856,945.09c16.75,22.93,38.28,24.25,52.3,14s19.32-31.15,2.56-54.08-47.71-37.17-61.74-26.93S839.27,922.15,856,945.09Z"/>
        <path d="M768,1154.94c23.71,13.72,43.22,6.52,51.62-8s4.93-35-18.78-48.73-56.56-14.25-65,.24S744.3,1141.21,768,1154.94Z"/>
        <path d="M563.58,1196.5c26.56,6.72,43.36-5.55,47.46-21.79s-4.83-35-31.38-41.74-58.31,1.77-62.42,18S537,1189.78,563.58,1196.5Z"/>
        <path d="M427.83,1351.76c28.11-1.83,40.67-19.16,39.55-36.35s-15.82-32.74-43.93-30.91-56.51,20.19-55.39,37.38S399.71,1353.59,427.83,1351.76Z"/>
        <path d="M240.83,1191.6c28.44,2.76,43.84-12.53,45.53-29.93s-10.49-35.36-38.93-38.12-59.87,11-61.55,28.38S212.38,1188.85,240.83,1191.6Z"/>
        <path d="M751.9,1334.15c24.43,3.17,38.12-9.58,40.06-24.52s-8.05-30.75-32.48-33.92-51.87,7.79-53.81,22.73S727.47,1331,751.9,1334.15Z"/>
        <path d="M596.56,1470.78c26-2.06,37.36-18.25,36.1-34.13s-15-30.08-41-28-52,19.4-50.73,35.29S570.58,1472.84,596.56,1470.78Z"/>
        <path d="M527.07,1644.34c25.65-12.28,30.91-33.23,23.4-48.92s-27.13-24.73-52.78-12.45-45.36,40.14-37.85,55.83S501.41,1656.62,527.07,1644.34Z"/>
        <path d="M295.32,1565.15c26.15-10.72,32.56-31.21,26-47.21s-25.51-26.08-51.67-15.35-47.28,37.26-40.72,53.25S269.17,1575.88,295.32,1565.15Z"/>
        <path d="M110.24,1423.19c24.47-8,31.66-26.16,26.78-41.12s-21.41-25.4-45.89-17.42-45.44,30.66-40.55,45.63S85.77,1431.18,110.24,1423.19Z"/>
        <path d="M324.25,1782.83c22.29-8.73,28-26,22.64-39.62s-21.24-22.43-43.53-13.7-40.54,30.92-35.2,44.55S302,1791.57,324.25,1782.83Z"/>
        <path d="M752.25,1526.13c21.52-6.08,28.39-21.61,24.67-34.78s-17.71-22.79-39.23-16.7-40.51,25-36.79,38.2S730.73,1532.22,752.25,1526.13Z"/>
        <path d="M700.08,1673.2c22.39-8.22,28.44-25.29,23.42-39s-20.68-22.8-43.08-14.59-41,29.92-36,43.62S677.68,1681.42,700.08,1673.2Z"/>
        <path d="M1402.38,864.38c-12.71,25.4-4,45.14,11.51,52.91s36.54,2.9,49.25-22.5,11.18-59.44-4.35-67.21S1415.09,839,1402.38,864.38Z"/>
        <path d="M1561.81,574.13c-15,27.86-5.93,50.11,11.11,59.26s40.57,4.39,55.53-23.46,14.35-65.8-2.68-74.95S1576.77,546.28,1561.81,574.13Z"/>
        <path d="M1711.36,332.87c-19.88,24.59-15.13,48.13-.09,60.29s39,11.85,58.93-12.74,26.32-62,11.28-74.14S1731.24,308.28,1711.36,332.87Z"/>
    </g>
    <g class="eyespotInner">
        <circle cx="1206.48" cy="529.85" r="22.94"/>
        <circle cx="985.73" cy="400.32" r="19.84"/>
        <circle cx="866.71" cy="152.13" r="18.55"/>
        <circle cx="679.57" cy="369.43" r="18.89"/>
        <circle cx="354.17" cy="499.6" r="17.73"/>
        <circle cx="1369.25" cy="684.93" r="21.67"/>
        <circle cx="881.52" cy="663.59" r="21.32"/>
        <circle cx="611.53" cy="660.28" r="19.13"/>
        <circle cx="329.93" cy="725.36" r="19.13"/>
        <circle cx="654.82" cy="943.86" r="19.71"/>
        <circle cx="418.64" cy="978.35" r="19.1"/>
        <circle cx="116.84" cy="923.77" r="19.1"/>
        <circle cx="1623.1" cy="838.64" r="20.9"/>
        <circle cx="1849.83" cy="618.43" r="20.9"/>
        <circle cx="2191.68" cy="680.37" r="21.34"/>
        <circle cx="1854.84" cy="862.53" r="21.34"/>
        <circle cx="2168.39" cy="947.68" r="21.34"/>
        <circle cx="2530.47" cy="834.67" r="19.96"/>
        <circle cx="1595.27" cy="1047.85" r="20.1"/>
        <circle cx="1810.67" cy="1082.77" r="21.45"/>
        <circle cx="1385.54" cy="1089.45" r="18.14"/>
        <circle cx="1506.91" cy="1205.53" r="19.09"/>
        <circle cx="1663.96" cy="1274.96" r="19.09"/>
        <circle cx="1884.79" cy="1376.97" r="20.27"/>
        <circle cx="2039.78" cy="1192.36" r="22.74"/>
        <circle cx="2448.41" cy="1173.07" r="21.11"/>
        <circle cx="2252.59" cy="1387.78" r="21.15"/>
        <circle cx="2586.77" cy="1498.58" r="19.7"/>
        <circle cx="1689.07" cy="1488.02" r="20.84"/>
        <circle cx="2021.27" cy="1576.1" r="21.42"/>
        <circle cx="2293.61" cy="1714.55" r="22.37"/>
        <circle cx="1515.51" cy="1372.61" r="18"/>
        <circle cx="1344.67" cy="1329.99" r="18"/>
        <circle cx="1327.24" cy="1538.82" r="15.91"/>
        <circle cx="1489.12" cy="1517.46" r="17.57"/>
        <circle cx="1554.36" cy="1700.97" r="19.77"/>
        <circle cx="1812.01" cy="1688.17" r="18.96"/>
        <circle cx="2031.17" cy="1833.08" r="17.51"/>
        <circle cx="2191.82" cy="350.25" r="19.34"/>
        <circle cx="1439.13" cy="392.29" r="21.67"/>
        <circle cx="1505.98" cy="88.11" r="17.96"/>
        <circle cx="1211.08" cy="219.82" r="21.59"/>
        <circle cx="1198.17" cy="831.87" r="19.31"/>
        <circle cx="885.61" cy="928" r="19.31"/>
        <circle cx="787.48" cy="1128.35" r="18.62"/>
        <circle cx="575.05" cy="1165.6" r="18.62"/>
        <circle cx="429.26" cy="1317.89" r="19.15"/>
        <circle cx="247.8" cy="1157.93" r="19.43"/>
        <circle cx="758.84" cy="1305.34" r="16.74"/>
        <circle cx="597.45" cy="1439.44" r="17.71"/>
        <circle cx="515.69" cy="1612.07" r="19.34"/>
        <circle cx="285.86" cy="1532.49" r="19.22"/>
        <circle cx="103.84" cy="1392.89" r="17.5"/>
        <circle cx="316.68" cy="1755.05" r="16.27"/>
        <circle cx="747.75" cy="1499.6" r="15.2"/>
        <circle cx="693.14" cy="1645.35" r="16.22"/>
        <circle cx="1431.12" cy="882.86" r="19.31"/>
        <circle cx="1593.2" cy="595.62" r="21.5"/>
        <circle cx="1738.21" cy="359.82" r="21.5"/>
    </g>
    <path class="neckBottom" d="M1016.42,1029.11c26.63-.21,41.07,14.63,47,40,8.78,40.41,21.52,80.89,36,125.21,7.91,23.72,3.52,39.54-14.94,52.28-52.72,34.7-100.16,39.54-145.41,26.36-23.73-7-40.42-26.36-40-49.21.87-46.57,6.59-94,4-137.07-1.32-29.88,12.88-48.51,32.51-51.84A486.61,486.61,0,0,1,1016.42,1029.11Z"/>
    <path class="neckTop" d="M1046.76,855.37c14.31,6,18.92,16.31,14.58,31.23-10.44,38-15.81,85.5-20.88,129.67-1.82,22.52-8.73,34.23-24.69,33.91-35.23-1.52-75.41-15.73-95.49-30.92-12.75-11.4-10.67-27.53-1.63-43.68,18.72-33.64,37.17-73.24,49.92-111.22,6-18.18,13.29-19.53,27.67-19.53A139.23,139.23,0,0,1,1046.76,855.37Z"/>
    <g class="bodyLightLine">
        <path d="M1034.63,1062q-51.45,26.94-106.2,7.24"/>
        <path d="M1042.68,870.52c-20.17-1-38.46-4.6-53.91-12.07"/>
        <path d="M904.29,1300.17c57.13,25.75,144.68,23.34,197-12.86,17.31-11.9,27.41-30.29,19.47-46.68"/>
    </g>
    <g class="bodyDisplayLine">
        <path d="M1074.46,710.13a324.6,324.6,0,0,0,38.69-52.37"/>
        <path d="M1130.06,678.62a310.66,310.66,0,0,1-45.34,43.6"/>
        <path d="M1090.93,733.29a421.61,421.61,0,0,1,57.91-25.07"/>
        <path d="M1095.8,746.17a452.52,452.52,0,0,1,62-5.33"/>
    </g>
    <path class="mouth" d="M982,761.78a117.73,117.73,0,0,0-23.1-28.49c-2.93,16.35-12.49,31-30.43,43.62C904,791.65,885.32,805,874.15,824.37c12.07-8.26,28.09-15.25,45.07-20.14,17-7.06,41.91-6.08,56.41-14.79C986.69,782.33,987.87,775.61,982,761.78Z"/>
    <path class="beak" d="M1016,785.78c4.32-9.94,6.48-19.88-5.24-43.34-6.27-12.91-28.94-39.1-47.68-52.21-17.92-7-36.52-9.13-52.29-4.59q-24.88,5.34-46.13,22.79C917,702.53,956.76,719.1,982,761.78c5.91,13.83,4.73,20.55-6.33,27.66-14.5,8.71-39.41,7.73-56.41,14.79,6.86.35,15,2.23,23.34,4.86C973.55,808.57,1010,798.68,1016,785.78Z"/>
    <path class="head" d="M1086.44,724.83c-20.08-31.8-60.8-45.18-93.23-38.86-17.64,3.44-29.75,4.4-30.11,4.26,18.74,13.11,41.41,39.3,47.68,52.21,11.72,23.46,9.56,33.4,5.24,43.34-6,12.9-42.47,22.79-73.46,23.31a213.16,213.16,0,0,1,37,15.91c24.76,13.89,61,16,93.84-7.64C1100.55,796.79,1107.48,760.21,1086.44,724.83Z"/>
    <path class="crest" d="M1124,631.88c8.5-2.9,17.74,3.26,18.45,11.35,7.76-1.16,14.68,6.34,11.34,13.83,8.54,1.17,15.47,12.14,12.42,19.86,9.21,1.52,14.21,12.1,10.64,18.45,7.61,1,12.23,12.9,7.8,18.08,6.93,4.64,6.74,19.26-.35,22.35,10.75,11.73-1.18,23.47-16,17.73-12.94-5.23-13.32-20.24-7.45-32.28-10.88-4.9-16.46-19.52-14.54-30.85-12.12-2.34-22.32-16.58-20.22-27.31-13.26-.82-23.85-14.67-22.34-25.18C1106.55,624.74,1119.06,618.78,1124,631.88Z"/>
</svg>
