<svg viewBox="0 0 683.16 502.23">
  <g class="leg">
    <path d="M287.23,434.14c4.8-1.1,6.17-.23,5.87,6.16-.23,5.94.38,18.65,2.89,26.11,1.67,4.41,1.44,7.86-.79,8.48,2,1.39,2.72,2.48,2.92,4.45.63,3.87,6.62,5.56,11.12,6.43,6,1.06,7.52,4.58,7.13,9.19-1.63-1.47-3-2.27-4.93-1.23a4.52,4.52,0,0,1-4.14.38,6.42,6.42,0,0,1-2.66,5.68c-1.5-2.79-2.1-3.17-4.23-1.81-1.76,1.15-3.81-.07-5.71-2.5-2.82-3.5-5.64-4.34-8.19-2.82-2,1.24-3.31,1.6-5.44.73-1.6-.5-2.3.55-3.63,1.81-1.39-4,.06-8.09,4.11-8.83,4.62-.63,6.14-2.76,5.92-6.4-.23-2.22.87-3.47,2.4-4.66-2.24-1-3.39-3.2-3.24-7.07a95.82,95.82,0,0,0-2.74-26.42C282.14,435.81,284,434.93,287.23,434.14Z"/>
    <path d="M252.21,435.13c4.46.59,4.76,2.77,3.35,7.28a108.91,108.91,0,0,0-4.38,25.1c0,4.44-.62,7.83-3.56,7.71,2.52,1.09,2.3,3.21,2.56,5.23.46,3.38,1.69,4.89,5,5.89,4.07,1.23,6.29,5.07,6.35,9.71a4.33,4.33,0,0,0-4.28-.85c-3.11,1-4.92,0-6.92-1.89-2.88-2.21-6.09-2.34-8.41-.45-4.64,4-9.81,5.63-12.77,4.58-5.17-2.07-8.35.16-10.13,2.44-.45-2.34.28-4.18,1.45-6.46a3.27,3.27,0,0,0-1.79,1.35,9.37,9.37,0,0,1,8.08-9.71c6.3-.67,10.12-1.29,11.87-5.57,1-2.4,1.89-3.85,4.2-5-3.09-.84-1.86-5-.58-8.37a95.42,95.42,0,0,0,4.19-25.62C246.42,435.84,247.85,434.56,252.21,435.13Z"/>
  </g>
  <g class="bodyOverlapLine">
    <path d="M298.3,484.54c1.65,4.78,8.06,3.38,9,9.57"/>
    <path d="M220.45,493.42c5.76-7.6,8.51-1.1,18-8.34"/>
    <path d="M295.2,474.89a11.17,11.17,0,0,1-5.33.42"/>
    <path d="M247.62,475.22a13.76,13.76,0,0,1-5.2-.8"/>
  </g>
  <path class="body" d="M251.86,306.16c31.79-4.3,54,8.78,63.3,37.53,9.43,27.14,6.5,50.62-9.07,70.76a33.92,33.92,0,0,0-5.06,9c-1.53,4.38-5.35,6.85-7.86,4.11-1.76,3.41-8.42,3.86-10.86.19-2,3.75-8.95,4.42-11.05-.93a17.87,17.87,0,0,1-9.17.18c-.49,3.52-5.66,5.62-8.24,2.62-2.37,2.93-7.61,2.25-9.36-.56-3.12,2-8.14-.48-9.55-3.74a50.5,50.5,0,0,0-7.49-13.11c-15.66-19.67-19.65-43.52-14.81-70.55C216.73,321.44,231,309.31,251.86,306.16Z"/>
  <path class="train" d="M225.53,409.68S222,416,212.61,418.83c-13.07,4.57-10.39,9.71-21.69,12.46-12.37,3.43-11.55,10.63-25.38,12.46-13.13,2.08-10.66,5-22.16,5.77-16.07,2.07-11.13,5-25.61,4.62-10,.09-11.45,5.27-23.53,3-9.43-2.08-12.62,1.65-23.77-3.7-8.83-5.21-13.13-1.44-21.92-12.23-5.74-7-9.73-2-16.15-15.46-3.24-7.93-8.2-6.68-9.7-18.45-.78-10.17-5.08-8.19-6.69-21.23-1.13-10.25-6.62-11-7.15-27.46-.39-9.68-5.85-13.42-3.69-28.38,1.44-7.79-4-13.43-2.08-24.46,1.66-8.15-4.82-17.37-.69-27.23C5.78,271.14-.28,268,3.78,252c3.66-11.28-1.39-15.46,6.46-32.3,5.26-8.77,0-10.33,11.77-25.84C28.54,185.69,26.26,181,38.16,168c7.55-9.22,4.15-15,17.77-27.69,10.26-9.87,10.26-26,36.23-41.53,17-9.4,9-14.13,27.69-22.38,14.66-6.16,13-13.36,29.89-19.74C160.32,52.85,159,42.47,179.38,37c15-3.53,16.66-17.32,41.07-18.46,19.22-1.13,15.93-11,39.69-8.77C279.6,12.84,283.3.9,302.83,4,322,7.69,318.9-3.83,346.44,3.49c17.12,4.61,18.36-5.68,42.22.93,17.71,5.74,25.32-4.14,43.62,6.92,18.74,8.9,27.59-4.06,45,8.54,12.85,10.24,25.2,4.09,38,18.13,9.19,10.45,27.11,4.37,39.33,25.94,5.27,12.8,21.93,6.92,30.17,30.69,5.34,18.21,23.45,12.86,30.46,39.69,8.42,22.36,22,10.21,28.84,40.14,4.9,18.23,21.57,18.85,22.61,44.31.3,11.6,12.95,21.25,10.15,41.76-2.76,16.95,10.42,25.39,3,50.54-6.78,19.91,6.63,22-2.53,42.91-10.19,21.28-2.61,39.15-24.23,54.23-11.31,8-9.25,19.91-28.15,28.84-13.82,6.3-12.38,19.06-29.31,25.15-15.38,5.43-13.32,13.46-32.3,15.23-12.19,1-18.47,8.93-35.31,4.39-13.71-4-18.56,2.89-39-3.93-13.32-4.29-17.64,3.74-35.54-5.53-13.59-6.58-21.2-.41-36.22-9.23-11.79-7-18.53-2.08-31.61-12-10.38-7.78-18.41-4.49-29.31-12.92-9.88-8.24-14.61-3.3-22.84-12.23-8.24-9.59-14-6.92-19.39-16.85-6.75-12.91-13.95-11.47-17.07-22.38-3.47-12.14-12.11-10.9-12-25.38.09-12.89-4.43-13.3-2.2-18.88,16.37-12.42,12.8-32.41-6.57-35.89-35.34-4-57.25,7-63.65,35C207.66,366.83,211.51,389.63,225.53,409.68Z"/>
  <path class="trainTop" d="M307.68,234.43c4.14.53,9.35-1.21,12,5.33,1.47,6.1,9.68,1.67,10,11.44.42,8,7.13,8.63,2.93,16.78-3.44,6.74,4.2,9.18-2.42,16-3.94,4.33,4.07,9.8-4.45,15.9-3.31,2.29,1.78,9.8-6.36,13.36-4.33,2,.89,10.44-10.69,14.38-4.84,1.53.64,9.42-10.94,11.71-4.58.76-3.95,6.36-12.09,3.94a13.68,13.68,0,0,0-2.79-.82c3.8-8.56-3.27-7.76.85-16.78,2.08-5.23-2.32-6.37-1.09-12,.82-4.33-3.86-6.59-6.33-7.15L258,256.8c1.7-5.8,1.73-11.47,8.91-12.85,4-.61,2.07-10.91,14.7-9.09,6.92.69,10.62-10.5,22.47-2A5.73,5.73,0,0,0,307.68,234.43Z"/>
  <g class="trainLightLine">
    <path d="M609,403.65a402.06,402.06,0,0,0-66.92-29.32"/>
    <path d="M635.91,329.43c-40.69-8-79.24-12.33-114.43-10.91"/>
    <path d="M651.64,238.59a268,268,0,0,0-67.49,19.54"/>
    <path d="M592.27,186.07c-32.93,12.83-63,28.55-90.08,47.45"/>
    <path d="M556,125.68c-14.83,9.52-28.56,19.07-40.85,28.67"/>
    <path d="M515.89,57.68a376.34,376.34,0,0,0-52.77,50.24"/>
    <path d="M425.82,29.52C411.26,50,400,70.74,392.07,91.68"/>
    <path d="M333.2,56.92a479.27,479.27,0,0,0-6.34,53"/>
    <path d="M261.14,32.56Q269,65.1,278.4,96"/>
    <path d="M198,71.13c12.78,21.62,24.61,43.84,35.78,66.48"/>
    <path d="M149.45,120.58a307.06,307.06,0,0,1,24.64,25.08"/>
    <path d="M50.18,206a217.8,217.8,0,0,1,36.73,10.06"/>
    <path d="M110.3,273.3A392.94,392.94,0,0,0,48.06,265"/>
    <path d="M71.06,311.19c-12.93,1.31-24.7,3.72-34.8,7.73"/>
    <path d="M89.42,153.38a430.47,430.47,0,0,1,43.65,32.23"/>
  </g>
  <g class="eyespotOuter">
    <path d="M292.38,131.42c-.59,8.42,4.05,12.84,9.19,13.2s10.35-3.37,10.94-11.79-3.71-17.57-8.86-17.93S293,123,292.38,131.42Z"/>
    <path d="M238.48,101.94c1.69,7.1,6.66,9.55,11,8.51s7.67-5.46,6-12.56-7.61-13.54-11.95-12.51S236.78,94.84,238.48,101.94Z"/>
    <path d="M209.56,41.12c2.64,6.29,7.59,7.8,11.44,6.19s6.25-6.2,3.61-12.49-9.07-11.35-12.92-9.73S206.93,34.83,209.56,41.12Z"/>
    <path d="M163.18,96.86c3.77,5.84,9,6.46,12.57,4.16s5.16-7.34,1.39-13.18S166,78.1,162.44,80.41,159.41,91,163.18,96.86Z"/>
    <path d="M83.61,131.05c5,4.22,9.84,3.36,12.42.32s2.64-8-2.34-12.21-12.64-5.73-15.22-2.69S78.63,126.84,83.61,131.05Z"/>
    <path d="M333.87,169.27c-1.43,7.84,2.47,12.47,7.27,13.34s10.07-2.1,11.49-9.94-1.68-16.89-6.47-17.76S335.29,161.43,333.87,169.27Z"/>
    <path d="M212.16,169.57c3.22,7.15,9,8.74,13.33,6.77s7-7.31,3.78-14.46-10.77-12.77-15.14-10.8S209,162.42,212.16,169.57Z"/>
    <path d="M146.57,170.49c4.49,5.42,9.84,5.42,13.15,2.67s4.3-8-.19-13.41-12.36-8.47-15.68-5.72S142.08,165.08,146.57,170.49Z"/>
    <path d="M77.77,188.56c5.83,3.94,11,2.44,13.37-1.13s1.88-8.88-4-12.82S73,170,70.54,173.51,71.94,184.62,77.77,188.56Z"/>
    <path d="M158.83,243.37c6,4.06,11.29,2.52,13.77-1.15s1.94-9.15-4.06-13.21-14.68-4.8-17.16-1.13S152.82,239.32,158.83,243.37Z"/>
    <path d="M101.08,252.59c6.38,2.93,11.19.62,13-3.28s.42-9.05-6-12S93.31,235.06,91.52,239,94.7,249.66,101.08,252.59Z"/>
    <path d="M27.42,239.75c6.89,1.38,11-2,11.88-6.19s-1.69-8.9-8.58-10.28-14.91,1.2-15.75,5.41S20.54,238.37,27.42,239.75Z"/>
    <path d="M400.14,203.72c-5,5.87-3.93,11.61-.34,14.65s9.42,3.09,14.39-2.78,6.73-14.92,3.14-18S405.11,197.85,400.14,203.72Z"/>
    <path d="M457.6,148c-5.58,5.29-5.19,11.11-2,14.52s9,4.12,14.61-1.17,8.34-14.09,5.1-17.5S463.18,142.72,457.6,148Z"/>
    <path d="M545.55,161.93c-7.09,3.37-8.55,9.15-6.49,13.48s7.47,6.85,14.56,3.47,12.54-11,10.48-15.38S552.64,158.56,545.55,161.93Z"/>
    <path d="M460.45,207.83c-6.71,4.08-7.58,10-5.08,14.08s8.12,6.05,14.83,2,11.35-12.27,8.86-16.37S467.16,203.76,460.45,207.83Z"/>
    <path d="M541.38,228.34c-7.58,2-10.06,7.47-8.81,12.1s6.12,8.07,13.7,6,14.32-8.61,13.07-13.25S549,226.3,541.38,228.34Z"/>
    <path d="M632,200.69c-7.09,1.91-9.41,7-8.24,11.32s5.72,7.55,12.81,5.64,13.39-8.06,12.22-12.39S639.08,198.78,632,200.69Z"/>
    <path d="M395.79,254.66c-6.32,3.84-7.14,9.39-4.79,13.26s7.66,5.69,14,1.85,10.69-11.55,8.34-15.42S402.11,250.82,395.79,254.66Z"/>
    <path d="M451.64,262.12c-7.55,2.3-9.86,7.82-8.45,12.44s6.4,7.91,13.95,5.61,14.11-9.12,12.71-13.73S459.19,259.82,451.64,262.12Z"/>
    <path d="M342.38,266.64c-4.92,4.51-4.67,9.57-1.92,12.58s7.77,3.7,12.7-.8,7.44-12.1,4.69-15.11S347.31,262.14,342.38,266.64Z"/>
    <path d="M375.18,294c-6.51,2.63-8.13,7.7-6.53,11.69s6.29,6.51,12.8,3.89,11.81-9.17,10.2-13.15S381.7,291.38,375.18,294Z"/>
    <path d="M416.88,311.05c-7,.63-10,5-9.62,9.3s4.15,8.06,11.14,7.42,14-5.39,13.56-9.67S423.87,310.41,416.88,311.05Z"/>
    <path d="M473,336.09c-7.46-.08-11.12,4.23-11.17,8.79s3.52,8.95,11,9,15.31-4.19,15.36-8.75S480.46,336.17,473,336.09Z"/>
    <path d="M511.88,288.85c-8.36-.09-12.47,4.75-12.52,9.87s3.94,10,12.3,10.13,17.18-4.7,17.24-9.81S520.24,288.94,511.88,288.85Z"/>
    <path d="M614.54,284.83c-7.74-.58-11.83,3.67-12.18,8.41s3.06,9.54,10.8,10.11,16.2-3.35,16.55-8.08S622.28,285.4,614.54,284.83Z"/>
    <path d="M567.31,339c-7.5-2-12.33,1.35-13.58,5.94s1.18,10,8.69,12,16.56-.19,17.81-4.78S574.82,341,567.31,339Z"/>
    <path d="M651.48,367.67c-6.74-2.65-11.56,0-13.18,4.13s.1,9.35,6.84,12,15.36,1.49,17-2.63S658.23,370.32,651.48,367.67Z"/>
    <path d="M426.43,364.19c-7.38-2.06-12.16,1.26-13.42,5.77s1.12,9.83,8.5,11.89,16.32-.1,17.58-4.61S433.82,366.25,426.43,364.19Z"/>
    <path d="M510.32,386.31c-7.37-2.77-12.56.21-14.25,4.72s.27,10.16,7.64,12.92,16.72,1.35,18.41-3.16S517.7,389.07,510.32,386.31Z"/>
    <path d="M580.37,421.69c-6.91-4.45-12.87-2.57-15.59,1.66s-2,10.43,4.94,14.88,16.76,5.08,19.49.85S587.29,426.14,580.37,421.69Z"/>
    <path d="M379.84,335.94c-6.6.54-9.49,4.65-9.16,8.69s3.84,7.63,10.44,7.1,13.2-5,12.87-9S386.44,335.4,379.84,335.94Z"/>
    <path d="M337.79,325.33c-6.62,0-9.84,3.85-9.85,7.9s3.19,7.93,9.81,7.94,13.57-3.84,13.58-7.89S344.41,325.34,337.79,325.33Z"/>
    <path d="M336.8,379.83c-5-3-9.22-1.51-11.05,1.56s-1.15,7.46,3.87,10.46,12,3.21,13.87.14S341.82,382.83,336.8,379.83Z"/>
    <path d="M376.19,373c-6.15-2-10.29.66-11.5,4.42s.61,8.32,6.77,10.3,13.75.46,15-3.31S382.34,375,376.19,373Z"/>
    <path d="M392.9,418c-6.92-2.23-11.58.74-12.94,5s.69,9.36,7.61,11.59,15.48.51,16.84-3.72S399.82,420.23,392.9,418Z"/>
    <path d="M457.82,415.45c-6.43-2.7-11.13-.26-12.78,3.67s-.12,9,6.3,11.71,14.75,1.78,16.4-2.15S464.24,418.16,457.82,415.45Z"/>
    <path d="M513.06,452.72c-5.61-3.17-10.18-1.43-12.12,2s-1.07,8.25,4.54,11.42,13.33,3.21,15.27-.22S518.66,455.89,513.06,452.72Z"/>
    <path d="M544.57,80.82c-5.82,4.09-6.26,9.47-3.76,13s7.71,5,13.53.9,9.54-11.77,7-15.33S550.39,76.73,544.57,80.82Z"/>
    <path d="M351.4,95.9c-1.6,7.81,2.19,12.53,7,13.51s10.12-1.87,11.72-9.68-1.29-16.92-6.07-17.9S353,88.1,351.4,95.9Z"/>
    <path d="M369.77,20.07c-1.57,6.42,1.42,10.45,5.35,11.41s8.43-1.24,10-7.65-.54-14.06-4.46-15S371.34,13.66,369.77,20.07Z"/>
    <path d="M294.17,53.74c-.79,7.9,3.44,12.19,8.27,12.67s9.84-2.88,10.63-10.78-3-16.64-7.82-17.12S295,45.84,294.17,53.74Z"/>
    <path d="M291.85,207.44c-.31,7.09,3.69,10.71,8,10.89s8.63-3.07,8.94-10.16-3.53-14.71-7.86-14.89S292.15,200.34,291.85,207.44Z"/>
    <path d="M214.76,237c4.18,5.73,9.57,6.06,13.07,3.5s4.83-7.79.64-13.52-11.93-9.29-15.43-6.73S210.57,231.29,214.76,237Z"/>
    <path d="M192.75,289.48c5.93,3.44,10.81,1.63,12.9-2s1.24-8.75-4.69-12.18-14.14-3.57-16.24.06S186.82,286.05,192.75,289.48Z"/>
    <path d="M141.65,299.87c6.63,1.68,10.83-1.38,11.86-5.44s-1.21-8.76-7.85-10.44-14.57.44-15.6,4.5S135,298.19,141.65,299.87Z"/>
    <path d="M107.71,338.69c7-.46,10.16-4.79,9.88-9.09s-4-8.18-11-7.73-14.12,5.05-13.84,9.35S100.68,339.15,107.71,338.69Z"/>
    <path d="M61,298.65c7.11.69,11-3.13,11.38-7.48s-2.62-8.84-9.73-9.53-15,2.74-15.39,7.09S53.85,298,61,298.65Z"/>
    <path d="M188.73,334.29c6.1.79,9.52-2.4,10-6.13s-2-7.69-8.12-8.48-13,1.95-13.45,5.68S182.62,333.49,188.73,334.29Z"/>
    <path d="M149.89,368.44c6.49-.51,9.34-4.56,9-8.53s-3.76-7.52-10.25-7-13,4.85-12.68,8.82S143.4,369,149.89,368.44Z"/>
    <path d="M132.52,411.84c6.41-3.07,7.72-8.31,5.85-12.23s-6.78-6.19-13.2-3.12-11.34,10-9.46,14S126.1,414.91,132.52,411.84Z"/>
    <path d="M74.58,392c6.54-2.68,8.14-7.81,6.5-11.8s-6.38-6.53-12.92-3.84S56.34,385.71,58,389.71,68,394.72,74.58,392Z"/>
    <path d="M28.31,356.55c6.12-2,7.92-6.54,6.69-10.28s-5.35-6.35-11.47-4.36-11.36,7.67-10.14,11.41S22.19,358.55,28.31,356.55Z"/>
    <path d="M81.81,446.46c5.57-2.19,7-6.5,5.66-9.91s-5.31-5.61-10.88-3.42-10.13,7.73-8.8,11.13S76.24,448.64,81.81,446.46Z"/>
    <path d="M188.81,382.28c5.38-1.52,7.1-5.4,6.17-8.69s-4.43-5.7-9.81-4.18S175,375.67,176,379,183.43,383.8,188.81,382.28Z"/>
    <path d="M175.77,419.05c5.6-2.05,7.11-6.32,5.85-9.75s-5.17-5.7-10.76-3.64-10.27,7.48-9,10.9S170.17,421.1,175.77,419.05Z"/>
    <path d="M351.35,216.84c-3.18,6.35-1,11.29,2.87,13.23s9.14.73,12.31-5.62,2.8-14.86-1.08-16.81S354.52,210.5,351.35,216.84Z"/>
    <path d="M391.2,144.28c-3.74,7-1.48,12.53,2.78,14.82s10.14,1.1,13.88-5.87,3.59-16.45-.67-18.73S394.94,137.32,391.2,144.28Z"/>
    <path d="M428.59,84c-5,6.15-3.78,12,0,15.07s9.76,3,14.73-3.18,6.58-15.5,2.82-18.54S433.56,77.82,428.59,84Z"/>
  </g>
  <g class="eyespotInner">
    <circle cx="302.37" cy="133.21" r="5.73"/>
    <circle cx="247.18" cy="100.83" r="4.96"/>
    <circle cx="217.43" cy="38.78" r="4.64"/>
    <circle cx="170.64" cy="93.11" r="4.72"/>
    <circle cx="89.29" cy="125.65" r="4.43"/>
    <circle cx="343.06" cy="171.98" r="5.42"/>
    <circle cx="221.13" cy="166.65" r="5.33"/>
    <circle cx="153.63" cy="165.82" r="4.78"/>
    <circle cx="83.23" cy="182.09" r="4.78"/>
    <circle cx="164.46" cy="236.71" r="4.93"/>
    <circle cx="105.41" cy="245.34" r="4.77"/>
    <circle cx="29.96" cy="231.69" r="4.77"/>
    <circle cx="406.52" cy="210.41" r="5.22"/>
    <circle cx="463.21" cy="155.36" r="5.22"/>
    <circle cx="548.67" cy="170.84" r="5.34"/>
    <circle cx="464.46" cy="216.38" r="5.34"/>
    <circle cx="542.85" cy="237.67" r="5.34"/>
    <circle cx="633.37" cy="209.42" r="4.99"/>
    <circle cx="399.57" cy="262.71" r="5.03"/>
    <circle cx="453.42" cy="271.44" r="5.36"/>
    <circle cx="347.14" cy="273.11" r="4.54"/>
    <circle cx="377.48" cy="302.13" r="4.77"/>
    <circle cx="416.74" cy="319.49" r="4.77"/>
    <circle cx="471.95" cy="344.99" r="5.07"/>
    <circle cx="510.69" cy="298.84" r="5.68"/>
    <circle cx="612.85" cy="294.02" r="5.28"/>
    <circle cx="563.9" cy="347.69" r="5.29"/>
    <circle cx="647.44" cy="375.39" r="4.92"/>
    <circle cx="423.02" cy="372.76" r="5.21"/>
    <circle cx="506.07" cy="394.77" r="5.35"/>
    <circle cx="574.15" cy="429.39" r="5.59"/>
    <circle cx="379.63" cy="343.9" r="4.5"/>
    <circle cx="336.92" cy="333.25" r="4.5"/>
    <circle cx="332.56" cy="385.45" r="3.98"/>
    <circle cx="373.03" cy="380.12" r="4.39"/>
    <circle cx="389.34" cy="425.99" r="4.94"/>
    <circle cx="453.75" cy="422.79" r="4.74"/>
    <circle cx="508.54" cy="459.02" r="4.38"/>
    <circle cx="548.71" cy="88.31" r="4.84"/>
    <circle cx="360.53" cy="98.82" r="5.42"/>
    <circle cx="377.25" cy="22.78" r="4.49"/>
    <circle cx="303.52" cy="55.7" r="5.4"/>
    <circle cx="300.29" cy="208.72" r="4.83"/>
    <circle cx="222.15" cy="232.75" r="4.83"/>
    <circle cx="197.62" cy="282.84" r="4.66"/>
    <circle cx="144.51" cy="292.15" r="4.66"/>
    <circle cx="108.07" cy="330.22" r="4.79"/>
    <circle cx="62.7" cy="290.23" r="4.86"/>
    <circle cx="190.46" cy="327.08" r="4.19"/>
    <circle cx="150.11" cy="360.61" r="4.43"/>
    <circle cx="129.67" cy="403.77" r="4.83"/>
    <circle cx="72.22" cy="383.87" r="4.8"/>
    <circle cx="26.71" cy="348.97" r="4.37"/>
    <circle cx="79.92" cy="439.51" r="4.07"/>
    <circle cx="187.69" cy="375.65" r="3.8"/>
    <circle cx="174.03" cy="412.09" r="4.05"/>
    <circle cx="358.53" cy="221.47" r="4.83"/>
    <circle cx="399.05" cy="149.66" r="5.37"/>
    <circle cx="435.3" cy="90.7" r="5.37"/>
  </g>
  <path class="neckBottom" d="M254.85,258c6.66,0,10.27,3.66,11.76,10,2.19,10.11,5.38,20.22,9,31.3,2,5.93.88,9.89-3.73,13.07-13.18,8.68-25,9.89-36.36,6.59-5.93-1.75-10.1-6.59-10-12.3.22-11.64,1.65-23.5,1-34.27-.33-7.46,3.22-12.12,8.13-13A122,122,0,0,1,254.85,258Z"/>
  <path class="neckTop" d="M262.44,214.59c3.58,1.5,4.73,4.08,3.65,7.81-2.61,9.5-4,21.37-5.23,32.42-.45,5.63-2.18,8.55-6.17,8.48-8.8-.39-18.85-3.94-23.87-7.74-3.19-2.84-2.67-6.88-.41-10.91a172.24,172.24,0,0,0,12.48-27.81c1.49-4.54,3.33-4.88,6.92-4.88A34.69,34.69,0,0,1,262.44,214.59Z"/>
  <g class="bodyLightLine">
    <path d="M259.41,266.25a31.73,31.73,0,0,1-26.55,1.81"/>
    <path d="M261.42,218.38a34.87,34.87,0,0,1-13.48-3"/>
    <path d="M226.82,325.79c14.28,6.44,36.17,5.84,49.25-3.21,4.32-3,6.85-7.58,4.86-11.67"/>
  </g>
  <g class="bodyDisplayLine">
    <path d="M269.37,178.28A81.41,81.41,0,0,0,279,165.19"/>
    <path d="M283.27,170.41a78.49,78.49,0,0,1-11.34,10.9"/>
    <path d="M273.48,184.07A104.74,104.74,0,0,1,288,177.81"/>
    <path d="M274.7,187.29A113.46,113.46,0,0,1,290.19,186"/>
  </g>
  <path class="mouth" d="M246.24,191.2a29.52,29.52,0,0,0-5.77-7.13c-.74,4.09-3.13,7.76-7.61,10.91-6.11,3.68-10.78,7-13.57,11.86a40.24,40.24,0,0,1,11.26-5c4.26-1.77,10.48-1.52,14.11-3.7C247.42,196.33,247.72,194.65,246.24,191.2Z"/>
  <path class="beak" d="M254.75,197.2c1.09-2.49,1.63-5-1.3-10.84-1.57-3.23-7.24-9.77-11.93-13.05-4.48-1.74-9.12-2.28-13.07-1.15a26.93,26.93,0,0,0-11.53,5.7c13.08-1.48,23,2.67,29.32,13.34,1.48,3.45,1.18,5.13-1.58,6.91-3.63,2.18-9.85,1.93-14.11,3.7a24.35,24.35,0,0,1,5.84,1.21C244.14,202.89,253.24,200.42,254.75,197.2Z"/>
  <path class="head" d="M272.36,182c-5-8-15.2-11.3-23.31-9.72a57.31,57.31,0,0,1-7.53,1.07c4.69,3.28,10.36,9.82,11.93,13.05,2.93,5.86,2.39,8.35,1.3,10.84-1.51,3.22-10.61,5.69-18.36,5.82a53.48,53.48,0,0,1,9.25,4c6.19,3.47,15.24,4,23.46-1.91C275.89,200,277.62,190.8,272.36,182Z"/>
  <path class="crest" d="M281.76,158.72a3.53,3.53,0,0,1,4.61,2.84,2.56,2.56,0,0,1,2.84,3.46c2.13.29,3.86,3,3.1,5,2.3.38,3.55,3,2.66,4.61,1.9.24,3.06,3.23,1.95,4.52,1.73,1.16,1.69,4.82-.09,5.59,2.69,2.93-.29,5.87-4,4.43-3.23-1.3-3.33-5.06-1.86-8.07-2.72-1.22-4.11-4.88-3.64-7.71-3-.58-5.57-4.14-5-6.83-3.32-.2-6-3.67-5.59-6.29C277.39,156.94,280.51,155.44,281.76,158.72Z"/>
</svg>
