<svg viewBox="0 0 1258.97 1173.14">
  <g class="leg">
    <path d="M593.45,1087.43c11.2-3.79,11.2-15.67,7.38-32.37-6.76-29.27-13.67-82.15-13.45-115.17.22-21.16-6.26-22.67-20.29-20.29-14.89,2.8-21.15,9.06-14.89,27,9.64,25.53,16.24,85,13.16,111.59-2.1,14.89-1.15,30.49,9.43,31.26-10.91,5.18-17,13.57-23.68,22.11-8.54,11.08-18,14.08-28.35,13-18.22.62-29.59,10.3-29.86,27.18,9.06-5.22,19.43-9.26,30.24-5.36,12.5,4.87,27.74,3.25,41.34,0,13.4-3.21,35.79,2.56,44.79,10.34,10.16,7.92,26.78,14.15,39.48,9.53,11.77-4.15,19.81-.28,29.81,5.4,2.51-9.09-1.88-19.94-9.73-26.17,13.85,7.39,46.63,9.46,61.87,1.85,14.31-6.7,23.31-4.16,39.34,1.73-5.64-19.85-18.34-32.67-41.34-31-17.16,1.33-31.48,6.09-44,6.06-7.65-14.84-17.23-21.11-31.39-16.4-14.68,4.31-35.24,5.21-39.63.83C609.74,1104.84,608.35,1091.92,593.45,1087.43Z"/>
    <path d="M787,968.25c4.49-12.81-2.56-16-21.45-18.58-30.1-4.84-85.17-24.33-110.79-42.9-13.45-10.25-23.37-10.89-31.7,4.48-6.72,12.49-3.2,18.25,15.69,22.73,24.66,6.09,88.7,37.47,102.46,49.59,17.3,13.81,25.3,14.45,33.95,4.85a36.24,36.24,0,0,0,9.06,29.17c-9.17,14.09-10.27,29.19-1.74,46,4.92,9.66,12.4,14.82,19.88,19.14-3.22-7.62-8-14.81-2.9-21.77,5.64-8,6.69-13.23,6-23.19-.93-13.68,14.84-23.19,25-26.67,14.77-5.34,32.47-6,42.41,3,8.15,7.4,16.8,10.23,27.34,9.19,9.13-1.06,15.63,2,19.88,8.7,1.51-14-4.29-28.12-12.92-39.51,15.19,3,34.38,10.69,37.53,22.61,3.18,11.59,11.47,22.58,21,23.57,8.48,1.06,12.27,7.17,17.31,15.2,1.68-17.87.78-33.76-8.49-49.76C944.52,960.27,905.86,950.93,861.5,965c-17.49,5.54-29.49,8.73-40.92,3.13C809,962.6,796,963.3,787,968.25Z"/>
  </g>
  <path class="body" d="M692.9,372.87c18.63-.69,40.12-.69,57.46,2.08,28.08,4.16,43.94,17.5,62.41,41.26l73.16,118.58c20.38,34,25,65.88,10.05,98.12-35,77-83.56,137-146,171.63-31.2,17.68-55.47,35.37-70.73,56.52-14.45,21.63-32.59,28.43-48.54,14.91-2.51,11.17-14.91,26.35-30.51,16.29-4.86,13.87-26.35,19.07-37.1,7.63-9.36,12.83-28.09,13.18-34-3.47-8.67,4.86-21.5,0-23.58-7.62Z"/>
  <path class="train" d="M692.9,418.51c41.16-21.2,23.8-47.57,0-45.64-175.08,8.3-314.51,90-427.7,212.89C161.26,697.32,68.39,820.51,4.07,961.37c-10.93,24.44,9.52,19,27-1.12C44.46,945.48,49.2,938.56,66.46,926c8.36,13.51,30.23,10.29,49.52-3.86,12.86,24.44,47.6,16.73,75.89-3.86,13.51,28.3,56,18.66,79.11,5.79C648.09,790.46,819.58,626.5,692.9,418.51Z"/>
  <path class="wing" d="M306.68,903.52c-39.18-9.43,1.25-40.44,24.56-68.69-45.38,6.66-13.32-47,18.73-95.74C372,705,385.36,664.16,405.45,622.4,450.3,522.21,524.78,449,617.52,425.89c68.53-18.35,128.6-7.54,176.09,46.7,38.93,46.33,27.59,114.14,0,163.43C740,726.18,670.24,796,583.48,852c-102.84,65.71-213.57,108.46-316,97.22C227.42,942.89,272.08,915.44,306.68,903.52Z"/>
  <g class="bodyOverlapLine">
    <path d="M668.83,1145.47c-15-12.53-22.14-.46-57.35-19.7"/>
    <path d="M684.68,1124.11a258.77,258.77,0,0,1-62.12-4.21"/>
    <path d="M907.26,992.49c-11.13-11.6-26-15.72-45.09-11.46"/>
    <path d="M787,968.25c-5.88,6.63-10.17,13.34-11.84,20.17"/>
    <path d="M593.45,1087.43a48.74,48.74,0,0,1-18.66,2"/>
    <path d="M191.87,918.27a44.11,44.11,0,0,0,9.36-10.11"/>
    <path d="M331.24,834.83a307,307,0,0,0,21.66-27.7"/>
    <path d="M306.68,903.52c23.78-10.1,45.67-24.86,66.23-42.91"/>
    <path d="M784.24,1017.59c4.8-5.66,5.56-13.7,3.27-21.55"/>
    <path d="M630.74,876c1.34-5.07,4.2-9.67,7.89-14"/>
  </g>
  <path class="neckBottom" d="M1034,376c12.21,18.56,13.11,40.3-2.7,56.76-27.86,28.59-55.36,59-75.66,96.16-14.28,24.45-39,36.53-63.73,18.13-44.31-34.39-74-77.3-88.72-133.77-4.39-17.86-1.1-34.61,16.48-42,33.88-13.45,63.18-23.35,97.24-45.32,23.9-15.39,45.87-13.74,65.29,3"/>
  <path class="neckTop" d="M1106.22,228.87c-3.11,31.62-4.06,73-4.68,104.56,0,30.59-12.8,50.88-39.33,48.7-22.47-2.19-45-11.29-63.05-21.85-24.35-14.67-19-32.46-9-53.69,14.67-29.65,23.1-60.24,29.65-91.76,3.43-16.86,12.3-22.43,27.16-22.16,16.67-.08,33.7,1.87,48.06,9.36C1105.3,207.81,1107.48,211.64,1106.22,228.87Z"/>
  <path class="beak" d="M1256.84,48.45c-13.38-9.2-34-15.13-53.47-15.77-8.74-.2-23-.44-35,3.77a84.56,84.56,0,0,1-12.7,3.48c-13.3,18.28-21.36,44.3-16.15,56.39,3.5,5,17.21,8.25,25.4,10.78C1181.83,87,1216.28,64,1256.84,48.45Z"/>
  <g class="bodyDisplayLine">
    <path d="M1256.84,48.45c-36.22,6.77-68.62,18.31-95.65,36.56"/>
    <path d="M1021.3,75.77A656.12,656.12,0,0,1,953.7,28"/>
    <path d="M1012.56,99.58a526.07,526.07,0,0,0-84.39-1.94"/>
    <line x1="1015.73" y1="87.91" x2="933.65" y2="60.49"/>
  </g>
  <g class="bodyLightLine">
    <path d="M834.84,531.08a408.31,408.31,0,0,0,45.93,45.59"/>
    <path d="M775.78,404.5A210.94,210.94,0,0,0,782,435.68"/>
    <path d="M957.09,340.74q19.93,34,58.64,60.15"/>
    <path d="M1091.45,213.45c-18.1,3.73-35.75,1-53.16-8.29"/>
  </g>
  <path class="head" d="M1139.55,96.32c-5.21-12.09,2.85-38.11,16.15-56.39-11.06,2.06-20.31,1-30.49-1.25-26.54-5.16-55-2.82-78.75,11.58-45.43,26-50.8,102.73,6.42,128.1,40.34,16.92,78.53-9.85,103.93-59.24a61.92,61.92,0,0,1,8.14-12C1156.76,104.57,1143.05,101.36,1139.55,96.32Z"/>
  <path class="crest" d="M930.49,11.27c-11.43,1.43-15.4,12.88-12.81,22.51-5.86,1.88-13.62,11.4-11.5,16.13-7.18,4.36-4.73,14.08.48,21.18-6.76,3.37-11.74,16.71-6.2,22.74-2.46,11.71,6.63,16.63,14.81,13,7.94,2.3,16.07-7,11.76-14.53,4.52-4.18,1.56-18.54-5.65-20.85,10.81-.59,18.43-20.54,12.8-29.37,6.05,3.27,15.19-4,16-12.38,9.75-1.95,8.29-18.48,1.1-20.73C949.94-.73,931.87-3.34,930.49,11.27Z"/>
</svg>
