<svg viewBox="0 0 22.41 49.9">
  <g class="anitaShoe">
    <path d="M21.91,45.91a2.31,2.31,0,0,0-2.33-2c-1.1.17-4,.37-4.73.94s-.51,2.16,0,3C15.16,48.54,21.76,46.81,21.91,45.91Z"/>
    <path d="M7.45,48.91c.56-.84-.21-2-1.33-2.38s-2.74-2.14-3.68-2.16S.68,45.73.5,46.71c-.06.44,2.54,2.27,4,2.57C5.84,49.54,7.12,49.33,7.45,48.91Z"/>
  </g>
  <g class="skinEastAsian">
    <path d="M5.4,33.82a31.08,31.08,0,0,1-1.29,5.6,22.68,22.68,0,0,0-1.76,5,2.49,2.49,0,0,0,2.14,1.13,45.86,45.86,0,0,0,2.94-5.3,24.58,24.58,0,0,0,2-6.44Z"/>
    <path d="M8.52,34.08a46.34,46.34,0,0,1,3.59,6.24c.54,1.76,1.23,2.25,2.56,4.73A2.46,2.46,0,0,0,17,44.36a40.89,40.89,0,0,0-1.71-5.79,56.26,56.26,0,0,0-2.61-6.14Z"/>
  </g>
  <path class="anitaDress" d="M10.05,14.64c2.1,1.67,2.69,7.34,2.07,9.31,1.11,1.73,2.17,6.69,3,10.36-1.18,1.5-10.63,2-12,.53.33-2.26.44-3.49.62-6a9.26,9.26,0,0,1,1.42-4.63C4.56,22,4,15.44,6.54,14.32Z"/>
  <path class="clothesDisplayLine" d="M12.12,24c-1.57.77-4.69.79-6.9.31"/>
  <g class="skinEastAsian">
    <path d="M7.39,17.06c.75,3-.23,6.35,2,10.72.65,1.4,1.87,1.48,2.33,2.95s.52,2.69-.39,3.1a1.89,1.89,0,0,1-2.27-.29c-1.47-2-.8-2.65-1.3-4.37C5.34,25.23,4.3,19.82,4.63,17.33,4.9,15.27,7.12,15.22,7.39,17.06Z"/>
    <path d="M5.65,8.89a6,6,0,0,0,1.26,3,24.17,24.17,0,0,1-.37,2.4,6,6,0,0,0,3.51.32,6.84,6.84,0,0,1,.1-1.41A2.6,2.6,0,0,0,13,11.68a.87.87,0,0,0,1-.47c.26-.54-.27-1-.19-1.43.14-1.29.8-1.17,1-3.06C15.58.26,4.45.52,5.65,8.89Z"/>
  </g>
  <path class="skinOverlapLine" d="M10.15,13.23A7.6,7.6,0,0,1,8,12.48"/>
  <path class="hairBlack" d="M15.16,8A17.47,17.47,0,0,1,10.86,6a2.22,2.22,0,0,1-2.2,1.16c-.92,0-1.37.49-1.55,1.54a2.89,2.89,0,0,1-1.17,1.38C4.76,8.78,3.6,5.78,4.81,3.44c1.71-3,4.66-3.61,7.8-2.28C16.29,2.85,16.4,6.1,15.16,8Z"/>
  <path class="hairBlackDark" d="M7,2.7C6.87,1.49,6.57.62,5.63.62c-1.18,0-2,.5-2.42,2.29a15.2,15.2,0,0,0,.17,5.76,4.6,4.6,0,0,0,1.94,2.76,6.28,6.28,0,0,1,.86-2.14C6.93,7.86,7.11,3.88,7,2.7Z"/>
</svg>
