<svg viewBox="0 0 163.26 393.55">
    <g class="skinEastAsian">
        <path d="M19,258.07c-6.44.65-12.2-.59-15.6-6.55C-2.76,235.15,4.84,231.44,5,218.85c-2.87-32.44-.53-72.72,6.2-84.95C49.09,115.77,24.35,233.53,19,258.07Z"/>
        <path d="M127.44,112.18c15.41-11.48,36.25-34.74,34.74-45-1.51-10-37.93-33.47-61.93-47.73l4.83,20.84c9.07,6.35,15.71,18.43,27.19,29.91-5.44,5.13-14.8,11.18-21.11,18.55Z"/>
        <path d="M88.88,363.32c7.23-37.46,12.58-72.85,12.84-106.51L25.49,256A650.4,650.4,0,0,0,37.26,362.52C57.73,381.89,74.85,381.68,88.88,363.32Z"/>
    </g>
    <path class="motherShoe" d="M102.19,386.86c1.71-9.15-1.29-20.85-13.42-23.48C81.94,368,69.57,366.8,63.9,363c-8.66,5.38-19.92,4.14-26.75-.52C28,366.05,22.7,377.93,25,386.86c1.89,6.41,32,6,38.15,2.59C68.72,393.27,100.58,394.72,102.19,386.86Z"/>
    <path class="motherShorts" d="M109.38,206.78c3.49,17.15,6.35,43.51,4.13,51.45-6,7.62-39,11.54-50,5.71-9.84,4.77-37.65,3.5-47.81-6-2.22-8.89,1.27-32.07,6-53.67Z"/>
    <path class="motherShirt" d="M111.16,88.74c7.38,4.47,19.67,19.17,20.4,24.47-5.31,7.23-15.26,12.05-19.36,19.52-4.57,11.33,2.14,46,2.86,74-9.88,14.94-80.55,19-96.94-.48,1.93-22.17,7-40.89,6.23-59.05-6.51-.11-16.1-2.67-18.86-5.14,1.15-18.52,11.43-39.78,30.39-49.56Z"/>
    <g class="clothesOverlapLine">
        <path d="M63.9,363c-2.8,5.32-4.46,23.93-.77,26.48"/>
        <line x1="63.51" y1="263.94" x2="63.51" y2="246.66"/>
    </g>
    <line class="skinOverlapLine" x1="63.51" y1="263.94" x2="63.9" y2="362.97"/>
    <path class="hairBlack" d="M106.77,25.53c4,15.93,4.07,29.34,8.69,45.26,3.26,12.31-5.8,23.26-18.47,26.52-18.83,4-38.74,3.17-58.29-.81-15.11-3.9-19.19-17-15.57-27.88,5.34-16,5.79-32.23,12-46C46.67-6,95.91-7.41,106.77,25.53Z"/>
</svg>
