<svg id="presence" xmlns="http://www.w3.org/2000/svg" viewBox="0 0 307.95 473.69">
  <defs>
    <style>
      .cls-1 {
        fill: #7a5765;
      }

      .cls-1, .cls-10, .cls-11, .cls-2, .cls-3, .cls-4, .cls-5, .cls-6, .cls-7, .cls-8, .cls-9 {
        stroke: #000;
        stroke-miterlimit: 10;
        stroke-width: 2px;
      }

      .cls-2 {
        fill: #e6e8d4;
      }

      .cls-3 {
        fill: #bcbf92;
      }

      .cls-4 {
        fill: none;
      }

      .cls-5 {
        fill: #857652;
      }

      .cls-6 {
        fill: #663b4a;
      }

      .cls-7 {
        fill: #343636;
      }

      .cls-8 {
        fill: #80653f;
      }

      .cls-9 {
        fill: #77b874;
      }

      .cls-10 {
        fill: #558894;
      }

      .cls-11 {
        fill: #55947a;
      }
    </style>
  </defs>
  <title>puppetKhariLiz</title>
  <path id="khariShoe" class="cls-1" d="M193.43,464.5c-2.42-10.51,1.15-19.6,17.38-22.81,13.5-2.61,56.91-2.92,65.94-.2,12.33,4,23,11.51,20.06,21.84-2.46,7.4-32.4,7.29-40.7,3.44C247.44,471.19,195.68,473.53,193.43,464.5Z"/>
  <path id="khariPajama" class="cls-2" d="M286.85,286.45C285.17,341.76,282,394,276.52,441c-4.79,4.29-22.9,6-30.49,2.46-7.2,4.92-35.6,4.64-43.22-1-7.7-47.27-11.55-100.54-13-157.58Z"/>
  <path id="khariKurta" class="cls-3" d="M249.12,130.71c2.11-7.9,7.86-11,16.94-15.17,3.18,3.48,8,5.78,13.81,7.29,11.93,3,17.2,11.16,17.68,24.59-.05,26.72.17,57.91,3.63,80.84,1.91,14.24,4.42,27.2,5.72,34.34-1.83,3.19-11.95,6.51-17.6,6.16,0,0,6.95,33,7.29,39-5.62,6.92-34,20.68-50.09-10.56-8.67,20.89-33.49,29.44-50.7,25.33-8.17-2-16.54-7.13-17.46-12.08a272.14,272.14,0,0,0,6.59-37.87c-8.56,1.61-23.85,0-30.27-5.35C155,221.45,165.37,166.44,177,137.36c4.37-9.52,10.39-13.19,21.1-15.71,10.42-2.31,17.88-3.72,23.42-8.11C233.72,117.28,246.53,122.17,249.12,130.71Z"/>
  <g id="clothesOverlapLine">
    <path class="cls-4" d="M286.42,169.29c-2.12,21.34-3.47,41.35-2.18,62.91,1.2,12.62,1.34,25.28,5.06,36.56"/>
    <path class="cls-4" d="M193,167.2a345.5,345.5,0,0,0-3,58.71s2.36,45.49-5,46.66"/>
    <path class="cls-4" d="M246,443.43c1.67-42.52,1.92-101.53.47-146.24"/>
    <path class="cls-4" d="M256.11,466.77c7.79-1.81,12.41-14.51-2.12-21.57"/>
  </g>
  <path id="clothesBorderLine" class="cls-4" d="M246.5,297.19c2.08-28,6.61-127.52,2.62-166.48"/>
  <g id="skinBlack">
    <path class="cls-5" d="M274.45,64.38A55.4,55.4,0,0,0,275.68,78c1.95,16.15-6.49,23.14-12.84,27.77a38.54,38.54,0,0,0,1.75,14.87c-12.75,13.73-26.88,13.11-42.18.48a33.71,33.71,0,0,0,3.79-18.23c-7.7-8.13-10.47-17-11.32-25.55C187.24,21.9,305.87-.66,274.45,64.38Z"/>
    <path class="cls-5" d="M301.85,264.14c4.72,13.78,2.11,29-8.79,37.9L283,267.59Z"/>
    <path class="cls-5" d="M189.71,268.36l-28.64-2.16c-5.71,16.86,5,39.87,24.6,40.78Z"/>
  </g>
  <path id="turban" class="cls-6" d="M271.33,34c3.63,7.62,3.85,19.31,3.12,30.43,17.51-9.77,21.71-23.56,17.9-43.7-2.22-9.8-12.12-12.32-23.48-9.67-4.19-8.89-14.81-10.32-24.12-10-16.54,1.22-26.88,4.19-36.4,9.21-12.3,6.61-14.58,14.13-15,23.45-1.54,24.07,7.58,37.07,21.52,43.67a54,54,0,0,1-.54-19.81C237,54.19,256.67,48.51,271.33,34Z"/>
  <path id="hairBlack" class="cls-7" d="M62.8,132.09c-.14-29.41,15-40.38,44.4-34.24,11.35,4.07,19,11.12,20.23,27.19.48,7.93.41,14.78,4,24.88,8.12,19-4.07,32.48-17.58,34.06l-51.1,1C45.78,183.31,48,156.46,62.8,132.09Z"/>
  <path id="skinIndian" class="cls-8" d="M62.8,132.09c20.18,4.16,39.18,3.53,53.43-7.55,1.89,5-1.88,14.12,0,22.23,2.28,11.64-1.49,23.69-15.76,30a31.8,31.8,0,0,0,.19,3.94c22.68,3.76,34.48,14.43,34.3,36-.64,20.21.27,40.21,6.76,59.12,10.63,30,9.14,52.09-10.29,61.74l-112,1.51L33.58,213C36,183.24,76,180,76,180a21.31,21.31,0,0,0,.3-4c-14.82-8.55-11.92-17.82-18.08-34.63Z"/>
  <g id="skinOverlapLine">
    <path class="cls-4" d="M100.47,176.82c-7.88,2.44-16.25,2.69-24.22-.81"/>
    <path class="cls-4" d="M262.84,105.81c-10,4.77-27,5.47-36.64-2.88"/>
  </g>
  <path id="lizSari" class="cls-9" d="M120.54,217.77c6.4,9.7,6,25.58,2.65,38.85-2.24,12,3.16,27.36,7.14,40.36,2.64,8.59,7,26.55,11.78,53.77,7.67,43.95,13.56,99.64,13.17,108.77-4.93,6.3-17.59,11.16-31.55,8.34-18.06-3-29.56,10.55-59.49,1.9-16.12-5.2-38.12,6.79-55.21-5.26-1.9-19.35,3-68.62,7.54-101.31,7.11-51.43,19.46-100,38.37-144.61C75.66,229.73,104.74,227,120.54,217.77Z"/>
  <path id="lizSash" class="cls-10" d="M137.18,205.41c2.41,10.2-32,80.25-75.8,127.59C47.1,349.43,32.53,364.44,13,375.1c1.34-18.37,1.65-37.49,4.88-54.94,9.7-7.39,15.81-14.86,26.81-28.7a476.33,476.33,0,0,0,66.23-109.11C123.66,184.62,132,192.85,137.18,205.41Z"/>
  <path id="veil" class="cls-11" d="M107.2,97.85c-13.9-2.07-27.73.63-34.46,15.86-8.27,17.44-16.6,77.44-20.25,133.91-1,18.3-1.93,43.84,1.76,60.18C53.11,317.27,11.47,337.69,1,335.31.51,296.24,6.12,245.1,22.87,201.69c7.31-19,10-33.55,13.75-55C45.46,100.84,76.47,86.6,107.2,97.85Z"/>
</svg>
