<svg viewBox="0 0 395.42 155.29">
    <g class="tireEdge">
        <path d="M276.4,119c-2.13-12.8-14-25.89-31.35-24.77h0c-6,.66-8.69,1.15-13.61,3l13.29,57a36.12,36.12,0,0,0,13.93-2.49h0C269.33,148.7,279.75,139.16,276.4,119Z"/>
        <path d="M86.24,105.72C84.11,92.93,72.19,79.83,54.89,81h0c-6,.65-8.7,1.15-13.62,3l13.3,57a36.45,36.45,0,0,0,13.92-2.49h0C79.16,135.41,89.59,125.87,86.24,105.72Z"/>
    </g>
    <path class="interior" d="M286.82,38.75c-29.42-2.59-79.4-8.56-101-11.81-30.38,1.37-72.26,12.36-99.44,26.14,30.05,4.38,66.4,6.75,106,8.06C228,55.5,260.09,48.31,286.82,38.75Z"/>
    <path class="hood" d="M86.36,53.08C118.78,41.64,156,30.43,185.8,26.94c-31.92-4.69-67.36-2.11-93.47,2C59.24,33.5,32.82,43.11,6.93,55.72,23.27,50.9,54.08,48.25,86.36,53.08Z"/>
    <ellipse class="steeringWheelDisplayLine" cx="247.98" cy="48.69" rx="16.07" ry="18.29" transform="translate(1.85 106.02) rotate(-24.22)"/>
    <path class="miriamDress" d="M204.07,38.79,193.28,40c-9.63,4.79-11.15,16.22-9.83,27.46l41.74-6C220.15,51.35,214.92,41.85,204.07,38.79Z"/>
    <path class="skinNordic" d="M203.63,35.87c.39,1.31,0,1.76.44,2.92-4.11,1.84-6.14,1.87-10.79,1.16.41-3-.8-4.72-1.76-7.66C179.76,12.41,188.13,6.09,208.7,8,213.5,23,212.87,34.5,203.63,35.87Z"/>
    <path class="hairBlonde" d="M203.63,35.87c10.85-.21,13.92-8.82,10.5-15.12-3-5.18-2.3-9.58-4-13.27-2.29-5.27-7.26-6.45-12.94-5.67C189,2.93,184.14,6.55,183,12.88a69.23,69.23,0,0,1-2.81,10.44c-2,5.62.63,11.57,4.27,13,5.8,2,10.31,1.36,7.07-6.36-1.55-4.1-1.07-7.51-.27-12.61,7.61.09,12.43-1.9,16.32-7.54a10.38,10.38,0,0,1,1.39,6.57c-.14,2.57.9,4.39,1.52,6.75A10.06,10.06,0,0,1,203.63,35.87Z"/>
    <path class="bennettSleeves" d="M153.24,47.3l-10.77,1.33c-8.12,2.53-11.55,9.92-13.28,19.07l40.9-3.57C166.29,55.55,161.15,49.15,153.24,47.3Z"/>
    <path class="skinEastAsian" d="M152.75,44.39c.41,1.3,0,1.76.49,2.91-4.09,1.9-6.11,2-10.77,1.33.36-3-.88-4.7-1.88-7.63-12.07-19.69-3.81-26.14,16.79-24.57C162.42,31.41,162,42.88,152.75,44.39Z"/>
    <path class="hairBlack" d="M148,19.2a10.58,10.58,0,0,1-5.75,8.28c-4.13.16-5.16,6.87-3.23,10.77-11.21-1.16-14.89-13-10.56-22.48,5-9.85,15.85-10.53,22-9.38,7.55,1.42,12.35,9,12.27,18.41A25.69,25.69,0,0,1,148,19.2Z"/>
    <path class="bodySide" d="M321.22,135.7c1.4-10.38.16-21.23-5.75-33.09-18.23-13.14-87.13-37.78-123.1-41.47-38.87-3.37-78.86-3.23-106-8.06C54.08,48.25,23.27,50.9,6.93,55.72.83,58.11-2,89.82,5.52,98.32,14.9,108.36,54.81,114,75,115.75c43.29,3.76,95.75,8.16,139.77,13.07C241.91,131.81,286.31,138.21,321.22,135.7Z"/>
    <path class="bodyFront" d="M391.64,85.51c-17.84,11.21-46.93,23.25-72.3,26.74h0a53.87,53.87,0,0,1,1.89,23.45c31.12-5.27,60.15-18.69,72.88-31.35A37.44,37.44,0,0,0,391.64,85.51Z"/>
    <path class="hood" d="M387.7,78C358.16,58.58,317,44.55,286.82,38.75c-22.09,8.33-55.38,16.06-94.45,22.39,36,3.69,106,28.35,123.52,42.36C320.06,109,387.57,86.56,387.7,78Z"/>
    <path class="trimDisplayLine" d="M394,94.23c-14.73,11.83-48.64,25.4-72.51,28.7-20.41,1.61-61.56-.51-92.34-2.66-64.52-7.74-109.64-12.15-172.58-16.55C40,101.52,18,96.66,2.86,93.24"/>
    <g class="tireFront">
        <ellipse cx="242.33" cy="124.8" rx="26.42" ry="29.64" transform="translate(-25.69 75.15) rotate(-16.75)"/>
        <ellipse cx="52.16" cy="111.51" rx="26.42" ry="29.64" transform="matrix(0.96, -0.29, 0.29, 0.96, -29.93, 19.77)"/>
    </g>
    <g class="hubcap">
        <ellipse cx="242.33" cy="124.8" rx="12.24" ry="13.73" transform="translate(-25.69 75.15) rotate(-16.75)"/>
        <ellipse cx="52.16" cy="111.51" rx="12.24" ry="13.73" transform="translate(-29.93 19.77) rotate(-16.75)"/>
    </g>
    <path class="headLightLit" d="M387.7,78c-16.29,10.36-45.6,21-71.81,25.49l-25.72-1.41,1.26,8.64,27.91,1.52c25.37-3.49,54.46-15.53,72.3-26.74A20.82,20.82,0,0,0,387.7,78Z"/>
    <path class="windshield" d="M248.59,1.1c-24.2,6.17-51.65,10.64-83.21,16.17a414.29,414.29,0,0,1,27,43.87c39.07-6.33,72.36-14.06,94.45-22.39C275.49,25.36,262.83,13.45,248.59,1.1Z"/>
</svg>
