<svg viewBox="0 0 110.89 314.51">
    <path class="bennettJeans" d="M91.75,179.47c-.52,38.55-6.28,80.18-12.7,116.77l-50.77-1c-6.22-32.52-10-74.21-11.44-117Z"/>
    <path class="bennettShoe" d="M52.92,291.5C68,285,88.54,286.4,91.74,301c1,7.79-2.56,11.25-10.75,11.72-11.74.52-23.34.33-27.8-3.54-4.25,4.06-14.45,4.7-24.26,4.09-11.54-1.17-15-6.29-11.45-14.54C23.6,286.72,42.78,286.25,52.92,291.5Z"/>
    <path class="bennettSleeves" d="M83.39,78.75c22.48,3.69,25.41,34.64,26.49,67.74.48,16-17.21,17.84-24.37,15.34l-58.32-.36C9.76,164,2,161.62,1,145.17c-.18-21.83,6.07-62.3,29.34-67.42Z"/>
    <path class="bennettShirt" d="M83.39,78.75a115.8,115.8,0,0,0-53-1c1.78,23-3,54.79-9.3,79.49l67.35,1C84.3,132.67,81.4,99.75,83.39,78.75Z"/>
    <path class="clothesOverlapLine" d="M54.84,204.56c-.58,27.37-1.23,56.51-1.92,86.94-.16,5.61.57,12.91.27,17.72"/>
    <polygon class="sketchbook" points="17.82 146.08 93.68 147.08 85.87 189.32 27.83 188.32 17.82 146.08"/>
    <g class="skinEastAsian">
        <path d="M29.87,42.64c2.7,8.82,3.7,16.93,4.69,23.06,4.3,22.35,38.92,22.35,44.22.66,1.49-7.61,2.65-14.07,4.45-21.13C65.34,25,46.15,22.22,29.87,42.64Z"/>
        <path d="M18,146.82a22,22,0,0,0-4.26-.52C1.85,146.18.3,154.12,4.31,163.62A20.11,20.11,0,0,0,1.68,174c.29,6.82,6.76,13.65,14.16,13.65,8.28,0,15-4.55,15-15,0-7.87-3.16-12-9.85-13.21Z"/>
        <path d="M93.59,147.61a19.12,19.12,0,0,1,4.75-.59c9.58.12,10.6,6.77,7.82,17.56,1.23,2.43,1.84,5.79,1.65,10.41-.29,6.82-6.77,13.65-14.17,13.65-8.27,0-14-4.55-14-15,0-8.06,4-12.46,11.49-12.84Z"/>
    </g>
    <g class="skinOverlapLine">
        <path d="M106.16,164.58c-2.49-3.9-8.44-4.53-15-3.77"/>
        <path d="M21,159.44c-4.45-1-12.56-2.31-16.67,4.18"/>
    </g>
    <path class="hairBlack" d="M48,38c3.89,8.38,18.15,18.18,27.31,17.26,5.88-.53,12.71-2.35,14.32-15.3C91.93,13.7,77.42-.27,55.42,1.09,35,2.65,23.85,15.87,25.41,38.66c.78,7.21,3.7,12.76,8.74,13C39.05,51.42,46.23,45,48,38Z"/>
</svg>
