<svg viewBox="0 0 231.23 491.39">
  <g class="food">
    <g class="cartonMedium">
      <polygon points="26.84 305.12 26.86 275.97 57.02 279.67 50 307.96 26.84 305.12"/>
      <polygon points="26.86 275.97 46.36 285.58 26.84 305.12 26.86 275.97"/>
      <polygon points="57.02 279.67 35.78 284.29 50 307.96 57.02 279.67"/>
      <polygon points="7.16 306.24 1.26 282.25 26.83 279.18 26.79 303.88 7.16 306.24"/>
      <polygon points="26.83 279.18 10.29 287.29 26.79 303.88 26.83 279.18"/>
      <polygon points="1.26 282.25 19.25 286.21 7.16 306.24 1.26 282.25"/>
    </g>
    <g class="takeoutBag">
      <path d="m44.95,236.99l1.32-2.6c3.24.2,6.41-.63,6.7,3.19.12,1.58,1.49,5.2-2.14,4.85-1.89-.18-3.48-1.29-4.96-2.29l-.92-3.15Z"/>
      <path d="m20.13,227.93c-2.96.52-6.3-.51-7.75.95-1.62,1.63-3.37,3.63-2.4,6.52,1.13,3.36,7.5.01,8.24-2.09l1.9-5.39Z"/>
      <path d="m22.56,229.29c.29,7.5,2.55,15.41,5.54,15.41,1.07,0,3.04.16,4.31.53,4.17,1.22,7.22-2.92,8.73-7.99l3.81-.26c3.87,13.31,8.01,30.08,12.08,42.68.39,6.26,1.25,11.54.37,14.24-1.53,4.68,1.4,9.3,1.24,12.6-3.55.64-6.63,1.56-8.63,1.45-6.71-.39-13.26-.32-18.45,0-5.33.34-10.64-1.05-14.94-.66-3.61.33-7.23-.86-10.23-1.07-2.49-.18-4.18.04-5.89.38-1.03-8.81,1.59-17.34.77-24.37,6.1-16.07,11.97-34.83,18.35-52.86l2.94-.1Z"/>
    </g>
    <g class="bagOverlapLine">
      <path d="m22.56,229.29c-1.55,2.59-3.24,6.63-4.52,10.12"/>
      <path d="m45.24,237.98c1.12.77,6.02,1.05,6.02,2.46,0,.7-2.5-.41-2.49-.5"/>
      <path d="m20.13,227.93c-2.04,2.47-5.18,1.09-7.39,4.73"/>
      <line x1="18.81" y1="247.13" x2="10.56" y2="264.98"/>
      <line x1="20.91" y1="252.55" x2="11.27" y2="270.49"/>
      <line x1="42.36" y1="246.54" x2="49.72" y2="267.1"/>
      <line x1="38.8" y1="251.59" x2="48.28" y2="272.85"/>
    </g>
  </g>
  <g class="skinBlack">
    <path d="m196.54,371.48c5.67,25.43-9.8,61.01-3.41,88.86-.54,15.28-26.67,22.32-23.92-3.8,6.01-18.9-5.33-55.68-4.64-83.69l31.96-1.37Z"/>
    <path d="m158.91,363.75c8.94,27.5-2.58,45.88,5.4,76.96,2.09,21.7-18.64,33.02-22.93,4.5,2.06-24.06-12.89-50.18-14.61-78.53l32.14-2.92Z"/>
    <path d="m170.03,63.44c-5.01,8.68-2.74,20.77,1.76,33.15-22.55,21.51-34.58,36.26-37.3-5.55"/>
  </g>
  <g class="soleLightTan">
    <path d="m113.89,476.72c-.43,1.11-.06,2.65.86,3.62,5.03,5.35,21.62,6.53,30.74.31,14.31-9.74,27.21-16.79,24.68-22.32l-56.28,18.38Z"/>
    <path d="m145.25,484.73c-.6.89-.64,1.77,0,3,2.28,2.59,19.58,4.95,27.52,2.12,7.87-2.8,20.2-4.87,21.46-8,.28-1.35.64-2.37.28-3.67l-49.26,6.55Z"/>
  </g>
  <g class="khariShoe">
    <path d="m164.31,440.71c4,3.9,6.23,9.42,6.12,16.37-.07,4.6-9.73,8.05-17.95,15.73-17.74,16.58-37.86,6.98-38.59,3.92-3.64-15.21,16.95-5.6,23.6-29.36,1.44-5.15,10.49-4.86,15.41-2.22,3.86,2.07,1.43,8.45-1.16,14.68,6.22-4.86,10.52-11.14,12.56-19.11Z"/>
    <path d="m181.94,470.27c5.14-2.07,9.69-5.65,11.19-9.92,2.45,5.53,2.98,11.46,1.37,17.84-4.01,5.41-13.19,5.83-18.69,8.13-9.82,4.12-28.33,1.73-30.57-1.58-2.96-11.19,15.04-9.9,18.96-24.39,1.75-6.48,8.87-6.86,15.94-5.81,6.7,1,3.17,9.13,1.79,15.73Z"/>
  </g>
  <path class="khariShorts" d="m200.21,230.46c1.3,3.13,4.91,5.05,3.05,10.94-1.69,5.37,3.12,13.77.78,26.56-1.36,7.45,1.88,17.55-2.73,30.67-2.99,8.52-1.13,15.11-3.13,26.37-5.96,33.68,3.52,36.72-1.17,42.38,1.07,2.65,1.4,5.12.98,7.42-6.84,3.32-29.49,4.88-37.31.98-.21-2.59-.77-5.41-1.56-8.4-6.25,3.71-28.71,5.08-35.55,1.95.26-6.61-2.98-14.5-1.95-23.63.57-5.04-3.71-14.26-3.52-22.07.37-14.89-5.08-33.6-4.1-54.88.38-8.18-1.97-19.09,1.37-30.08.41-1.36,1.17-4.1.98-6.84l83.86-1.37Z"/>
  <path class="khariShirt" d="m144.55,116.61c5.01-9.21,8.68-15.74,16.82-6.62-14.76,15.21-17.89,17.35-29.34-2.06,2.75-10.39,7.42,1.07,12.52,8.68Z"/>
  <path class="khariSweater" d="m226.79,164.51c5.03-5.91-1.38-5.53-2.77-13.71,4.37-4.2-3.19-7.28-4.02-10.69-3.32-13.54-8.2-26.07-13.46-33.33-4.86-6.71-18.87-5.91-27.64-9.7-31.47,24.17-30.09,37.75-50.23,4.26-8.53,4.94-15.95,3.18-23.75,20.66-1.51,3.39-2.75,10.88-4.02,12.7-4.02,5.79-3.9,13.71-7.42,21.38-.76,1.66-3.65,2.26-3.14,8.3-6.67,3.27-1.13,6.16-4.02,8.93-3.52-.73-3.9,1.89-5.79,4.53-3.11.68-5.27,2.37-6.29,5.28-3.79.28-6.23,2.46-7.67,6.04-3.52-1.64-4.65,1.26-7.29,3.02-2.27-.18-4,1.46-5.15,5.02,4.07,2.85,8.68,8.81,9.49,15.46,3.47,2.18,5.91.96,8.28-3.37,3.14,3.02,6.62-1.08,11.15-3.14,5.13-2.33,9.86-4.26,12.33-7.29,2.35-2.9,7.29,1.64,18.49-18.99-.25,12.33-4.89,25.89.5,32.07-1.52,4.53-1.49,8.32,1.99,10.49,10.71,3.93,64,3.93,83.79-.27,1.86-1.38,1.78-2.82.12-4.31,3.46-2.72,3.44-5.59,1.75-8.25l18.25-17.54c11.57-2.77,13.83-17.23,6.54-27.54Z"/>
  <g class="khariSweaterTrim">
    <path d="m159.48,110.05c-4.78,3.81-10.06,7.29-14.3,8.87-4.2-3.26-7.52-8.23-10.26-13.18-1.05.79-1.88,2.68-3.02,4.62,3.73,6.09,8.49,12.04,13.11,15.11,5.5-2.05,11.57-5.68,17.6-11.03-1.18-1.36-2.17-2.94-3.13-4.39Z"/>
    <path d="m54.11,197.19c4.07,2.85,8.68,8.81,9.49,15.46-3.8,1.36-7.46,4.88-10.03,5.56-2.66,1.85-12.55-12.39-9.9-14.24-.27-1.63,8.14-4.88,10.44-6.78Z"/>
    <path d="m200.14,222.14c-19.8,4.2-73.08,4.2-83.79.27-.94-.08-1.71,11.52-.78,11.6,14.61,6.02,82.53,3.72,86.06-1.3-1.32-3.74-.27-6.64-1.49-10.58Z"/>
    <path d="m198.24,167.5c4.75,2.17,4.07,16.81-4.47,18.71-25.34,3.81-22.52-35.23,4.47-18.71Z"/>
  </g>
  <g class="khariCollar">
    <path d="m169.3,88.71c4.9-1.06,6.24,6.37,9.6,8.37,2,2.74-13.6,15.49-14.47,19.09-5.05-3.79-6.32-12.66-12.53-9.82,9.15-5.43,19.42-11.03,17.39-17.63Z"/>
    <path d="m138.02,106.29c-1.73-5.67-2.01-11.11.54-16.1-3.37.21-5.68,7.57-9.89,11.15-1.51,3.24.32,8.42.32,12.73,4.42-3.79,4.93-11.35,9.03-7.78Z"/>
  </g>
  <path class="khariHatMedium" d="m182.92,145.26c-35.28,1.88-34.13,50.47-3.76,60.18l3.76-60.18Z"/>
  <path class="khariHatLight" d="m208.89,192.08c-2.33.51-4.16-.2-5.73-1.56-5.04.93-8.33-.3-9.4-4.3-2.44-1.49-9.6-1.64-11.66-4.2-2.41-3,1.29-16.21,5.97-17.49,2.95-.81,6.51,2.44,10.17,2.98.75-.97,1.79-1.31,2.97-1.33,1.82-6.51-4.64-10.55-8.94-21.61-3.54-.31-5.07-.14-9.35.7-11.86,2.31-29.83,40.51-3.76,60.18,16.09,12.14,38.39,1.55,41.09-13.38-3.68.42-8.5,1.93-11.36.03Z"/>
  <path class="hairBlack" d="m104.19,29.31c1.25-17.75,26.57-37.17,55.27-25.54,15.69,6.36,20.64,22.4,18.95,43.19-28.12,17.28-52.78,10.87-74.21-17.64Z"/>
  <g class="eye">
    <circle class="sclera" cx="125.3" cy="59.63" r="18.32"/>
    <g class="irisDarkBrown">
      <ellipse cx="131.15" cy="59.64" rx="2.85" ry="3.67" transform="translate(-8.39 23.79) rotate(-10.04)"/>
      <ellipse cx="109.86" cy="60.86" rx="2.21" ry="3.67" transform="translate(-8.93 20.09) rotate(-10.04)"/>
    </g>
    <g class="pupil">
      <ellipse cx="130.62" cy="59.73" rx="1.11" ry="1.43" transform="translate(-8.42 23.7) rotate(-10.04)"/>
      <ellipse cx="109.2" cy="60.97" rx=".86" ry="1.43" transform="translate(-8.96 19.98) rotate(-10.04)"/>
    </g>
  </g>
  <g class="skinBlack">
    <path d="m44.97,204.13c1.69.14,8.4,9.82,8.26,13.14.01,5.1-3.73,11.79-7.18,13.55,2.3.81,1.98,2.73-.06,5.69-1.77,2.57-5.77,2.03-5.77.07-1.42.61-4.81.34-5.49-1.15-2.3,1.22-5.42,1.15-6.71-.41-4.4.81-7.04-.28-5.89-4.47-2.98,1.02-5.01-1.56-3.79-3.12,1.08-1.29,2.84-3.05,3.93-4.88,1.35-4.94,5.69-9.75,10.29-12.8,5.31-3.51,9.19-6.54,12.39-5.62Z"/>
    <path d="m185.83,181.33c4.38-.41,7.06-12.91,4.57-13.93-2.38-1.1-3.87-10.42-13.32-13.69-4.18-1.02-8.03-3.45-11.68-6.84-2.94-1.03-3.57,5.36,1.49,8.7-3.5-.79-6.78-1.17-8.93-1.19-2.56-.03-4.25,4.4-2.16,6.04-3.27-.45-3.86,5.04-1.63,6.38-1.93.3-2.35,5.24.29,6.33-1.34.97-.89,4.69,1.71,5.5,4.96,1.56,7.74,4.46,14.29,4.91,8.24.56,10.89-2.62,15.37-2.21Z"/>
    <path d="m161.07,78.67c-1.25,6.56-8.35,13.6-15.67,17.26-6.06,3.03-11.39,7.49-19.95,6.59-6.22-.66-7.15-6.36-9.79-9.52-12.76-15.24-8.07-29.29-9.98-33.8-1.11-2.62-2.08-5.05-1.94-10.87s-1.49-8.54.45-19.02c9.69,2.98,31.55-1.33,42.86-3.26,1.3,12.4,1.78,13.75,10.59,19.8,1.77,1.22,2.23,2.22,2.5,5.8.83-.16,6.32-2.04,6.85-2.8,1.1-7.04,10.75-7.95,11.76-.41,1.22,9.06-3.79,11.65-4.93,15.08-1.3,3.92-5.46,4.36-7.22,2.84m-38.57-6.51c4.8,3.51,9.45.33,12.54-2.23-2.19-.76-5.22-2.4-8.06-2.14-1.81.17-4,1.12-5.22,3.45-.45.86.4.67.74.91Zm-11.85-.11c-1.42-.97-2.51-2.03-4.24-2.46-1.98-.49-3.72.39-3.98.53-.33.8-.43,3.04.22,4,3.96,2.16,6.68-1.16,7.27-1.28.68-.14,1.17-.5.73-.8Z"/>
  </g>
  <g class="skinOverlapLine">
    <path d="m155.8,160.42c1.98.64,3.97,1.11,5.96,1.33"/>
    <path d="m154.17,166.8c1.68.89,4.29,1.33,6.2,1.67"/>
    <path d="m154.46,173.13c1.87.68,3.66,1.12,5.39,1.39"/>
    <path d="m166.88,155.57c2.58.65,4.85.89,6.54.35"/>
    <path d="m29.93,215.92c-2.98,2.84-5.55,4.06-7.65,6.64"/>
    <path d="m22.14,230.55c2.94-.97,5.11-2.16,6.08-4.46,1.75-1.17,3.3-2.49,5.63-2.65"/>
    <path d="m28.04,235.02c4.88-1.69,7.55-4.55,8.47-6.98.61-3.79-3.79-4-8.13-.07-.81.22-1.38.4-1.82.36"/>
    <path d="m34.74,235.43c6.1-3.39,6.03-7.65,8.94-10.9.47-4.06-4.67-3.73-8.07.94"/>
    <path d="m40.23,236.58c4.94-2.44,5.49-5.82,6.71-8.6,1.08-2.17-1.49-3.93-3.25-3.45"/>
  </g>
  <g class="skinFoldLine">
    <path d="m47.1,214.6c-2.52,4.22-8.65,8.79-13.24,8.84"/>
    <path d="m168.43,51.88c3.57-12.3,13.49-3.18,6.09,6.86"/>
    <path d="m168.77,55c1.81,1.9-1.75,4.97.39,5.62,1.9.59,1-3.22,2.77-4.05,3.82-1.8,2.27-6.91-.47-4.55"/>
  </g>
  <g class="clothesDisplayLine">
    <path d="m139.6,237.33c-3.3,8.63,1.5,14.24,1.14,20.87-.85,15.65,6.82,14.6,12.01,20.55"/>
    <path d="m150.49,237.61c-1.19,5.32-.46,10.93.69,16.96,1.38,7.25-1.28,12.36-9.91,11.69"/>
    <path d="m169.93,237.27c4.83,6.82,12.5,12.12,23.01,15.81"/>
    <path d="m115.36,238.67c1.94-.71,3.26-1.69,4.83-3.33"/>
    <path d="m147.5,477.08c-.37,2.63,13.39,4.02,18.75,2.24s10.42-4.86,15.7-9.05"/>
    <path d="m151.75,459.82c-5.98,6.99-12.06,13.45-19.15,14.39-7.39.98-17.22-1.18-17.9-4.68"/>
  </g>
  <g class="clothesOverlapLine">
    <path d="m113.62,133.03c-1.3,11.94.61,32.18.23,46.82"/>
    <path d="m188.61,130c0,3.49,2.13,9.26,3.67,14.56"/>
    <path d="m201.21,166.17c1.65.27,3.01.79,3.79,1.78,1.51-2.4,3.64-1.32,6-.34,1.68.69,1.59-1.34,5.24.64"/>
    <path d="m152.74,278.74c.94,6.23,3.21,68.77,6.23,75-1.4,4.45-.76,9.64.14,13.64"/>
    <path d="m153.04,274.03c4.68-4.33,17.32-7.37,17.91-5.27s-16.74,3.75-18.2,9.98"/>
  </g>
  <g class="clothesBorderLine">
    <path d="m196.33,167c-.5-4.28-3.63-8.66-6.17-12.49-3.45-5.22-5.63-8.78-9.78-8.28"/>
    <path d="m168.51,192.08c3.55,2.07,10.93-3.98,18.09-7.86"/>
    <path d="m197.84,190.52c-2.47,9.07-5.51,20.12-14.92,17.29"/>
    <path d="m208.31,192.18c1.02,2.9,5.34,7.34,1.61,14.12"/>
  </g>
  <g class="clothesFoldLine">
    <path d="m59.27,192.18c1.87.68,3.1,1.51,3.77,2.47"/>
    <path d="m66.56,189.16c3.39,1.59,6.15,4.83,8.33,9.59"/>
    <path d="m71.88,209.28c1.4-3.47-3.5-7.91.49-6.43"/>
    <path d="m74.23,183.12c1.2-.14,2.09.32,2.71,1.38"/>
    <path d="m80.52,177.84c4.51-.75,9.07,4.49,9.18,8.14"/>
    <path d="m86.31,173.31c9.55,2.3,16.4,14.04,17.65,12.67,2.41-2.64-1.48-5.93-4.79-7.87"/>
    <path d="m88.79,170.59c3.99-.46,14.93,4.45,18.35,10.03"/>
    <path d="m90.33,164.38c3.54.14,5.73,1.17,6.67,3.02"/>
    <path d="m95.4,158.06c2.31,2.41,6.31,4.07,11.63,5.13"/>
    <path d="m104.98,156.69c1.7,1.99,4.63,3.26,8.58,3.93"/>
    <path d="m102.93,138.22c1.62,3.98,4.48,7.18,8.09,9.92"/>
    <path d="m117.86,122.38c-2.74,3.65-6.38,8.66-4.24,10.66.68-1.93,1.77-3.17,3.21-3.82"/>
    <path d="m111.93,121.01c-.53,4.58-.4,8.1,1.23,9.19"/>
    <path d="m134.73,147.91c-1.19,7.34-3.37,14.61-7.07,21.77"/>
    <path d="m135.07,164.78c-2.05,8.32-6.42,17.51-7.3,24.85"/>
    <path d="m114.35,211.92c3.05,1.87,8.18,8.03,3.96,7"/>
    <path d="m116.61,205.7c5.06,5.88,11.39,9.17,18.69,10.49"/>
    <path d="m164.48,212.31c5.48-1.28,10.77-3.32,15.9-6.01"/>
    <path d="m202.01,209.59c-12.9,6.71-34.11,8.28-17.8.79"/>
    <path d="m200.26,217.84c-3.31,1.37-7.01,1.9-11.16,1.54"/>
    <path d="m179.87,132.07c2.74.14,5.09.83,6.73,2.51"/>
    <path d="m177.93,124.09c6.04.34,12.99,10.03,6.5,6.61"/>
    <path d="m179.07,120.67c3.64,2.83,6.4,3.8,6.95.11"/>
    <path d="m191.04,110.86c-3.76,6.84-2.39,13.11-2.43,19.13"/>
    <path d="m193.89,115.65c-2.16,3.37-3.78,7.08-3.31,12.08"/>
    <path d="m211.22,123.63c.5,4.21-.15,8.93-3.19,14.7"/>
    <path d="m220.9,147.11c-.46,4.1-8.21,8.44-14.93,8.66"/>
    <path d="m224.03,150.8c-1.64.99-2.47,1.62-.84,4.29"/>
    <path d="m207.23,163.07c-.16-2.25-3.42-1.03-4.22,1.6"/>
    <path d="m205,167.95c4.28,2.65,2.74,10.41,4.16,10.63s1.52-1.77,1.25-3.99"/>
    <path d="m203.16,190.52c3.49-1.34,4.75-7.15,6.23-5.56"/>
    <path d="m208.89,192.08c1.36-.66,2.25-1.53,2.78-2.56"/>
    <path d="m224.67,184.27c1.94-7.3-1.55-13.19-8.43-16.02"/>
    <path d="m226.72,173.56c-2.65-4.34-6.44-6.98-11.85-7.18"/>
    <path d="m226.79,164.51c-4.75-4.06-11.25-1.78-11.25-3.72,0-1.83,6.04-1.25,9.12.57"/>
    <path d="m194.33,275.97c0,6.97,3.93,20.02,5.5,13.58"/>
    <path d="m146.22,278.54c-4.88-2.84-13.21-3.3-20.75-4.87"/>
    <path d="m140.25,280.27c-5.11-.46-10.9.22-16.98,1.42"/>
    <path d="m155.02,279.01c4.77-2.93,14.74-3.68,23.9-3.77"/>
    <path d="m184.88,291.82c1.76,8.93,5.08,17.12,10.42,24.35"/>
    <path d="m148.24,289.13c-4.72,10.19-8.48,20.23-11,30.08"/>
    <path d="m123.7,343.73c3.38,3.28,11,12.9,1.16,6.93"/>
    <path d="m140.72,347.01c2.86,10.26,10.57,21.15,15.86,16.6"/>
    <path d="m158.41,351.89c-1.13,3.64-2.85,6.68-5.67,8.65"/>
    <path d="m197.01,367.38c-1.39,1.58-3.24,3.03-5.63,4.32"/>
    <path d="m193.7,365.94c-3.14,2.42-6.55,4.24-10.57,4.76"/>
    <path d="m159.97,358.43c3.49,1.7,5.1-1.77,6.77-5.08"/>
    <path d="m158.98,353.75c.51,1.36,1.19,2.31,2.05,2.89"/>
  </g>
  <path class="lipMaleDark__noStroke" d="m118.82,83.37c1.86.2,3.15.16,5.34-.47,1.99.04,3.34.66,10.05.59-4.07,2.66-3.56,6.47-11.36,6.92-6.02.35-4.62-4.38-6.41-5.5,1.5-.45,1.56-1.19,2.37-1.54Z"/>
  <path class="lipBorderLine" d="m134.22,83.49c-8.2.38-10.78,2.02-12.07,2.02-2.06.01-4.14-.96-5.7-.6"/>
  <g class="lipEdgeLine">
    <path d="m124.17,82.9c-2.19.64-3.48.68-5.34.47"/>
    <path d="m130.25,87.49c-4.01,3.9-11.66,4.16-12.55-.52"/>
  </g>
  <g class="noseLine">
    <path d="m127.94,72.02c1.49.41,1.92,3.7.24,4.75"/>
    <path d="m115.87,68.68c-3.07,5.95-3,8.4.34,9.52,5.1,1.71,5.75-1.76,9.83-1.41"/>
  </g>
  <g class="eyeFoldLine">
    <path d="m107.85,63.68c.7,1.26,3.76,1.85,5.6.6"/>
    <path d="m128.74,62.54c2.31,1.93,7.13,1.92,9.66-.85"/>
  </g>
  <g class="eyeCornerLine">
    <path d="m142.73,58c-.78,0-1.55-.13-2.16-.36"/>
    <path d="m106.45,58.87c.43-.38,1.01-.77,1.52-1.03"/>
    <path d="m108.19,61.83c-.32-.16-.62-.32-.88-.48"/>
  </g>
  <g class="eyeCreaseLine">
    <path d="m127.31,55.58c1.97-3.4,6.87-3.61,11.35-.73"/>
    <path d="m106.95,56.58c.12-2.78,5.08-2.77,7.32-.55"/>
  </g>
  <g class="eyebrowBlack">
    <path d="m125.08,46.64c1.09,5.29,5.26,3.13,10.44,3.03,2.21-.04,3.78.04,7.28,2.03.95.56,2.12.06,1.7-.4-5.93-6.56-9.99-4.14-19.41-4.66Z"/>
    <path d="m103.89,52.82c.07.67.17,1.28.28,1.84.82-.91,1.5-2.02,3.99-2.57,4.83-1.07,6.51.12,6.61-4.78-7.91,1.92-8.45,1.77-10.89,5.51Z"/>
  </g>
</svg>