<svg viewBox="0 0 1233.15 3347.11">
  <path class="cymbalInner" d="M370.87,2462.7c-7-303.36,76-569,185.5-593.33s204,201.87,211,505.22-76,569-185.5,593.33S377.91,2766.05,370.87,2462.7Zm136-33.41c2.4-.54,4.21-6.35,4.06-13s-2.22-11.58-4.61-11-4.22,6.34-4.06,13S504.49,2429.82,506.88,2429.29Z"/>
  <path class="cymbalCentre" d="M492.85,2425.22c-1.27-54.71,13.71-102.62,33.46-107s36.78,36.41,38.05,91.12-13.71,102.62-33.46,107S494.12,2479.93,492.85,2425.22Zm14,4.07c2.4-.54,4.21-6.35,4.06-13s-2.22-11.58-4.61-11-4.22,6.34-4.06,13S504.49,2429.82,506.88,2429.29Z"/>
  <path class="hairMediumBrown" d="M549,391.91c-14.32-10.94-23.87-23.64-26.86-38.76-18.07-2.86-28.76-14.51-33.81-32.92,80.83-6-17.54-100.05,70.93-146.16a37.41,37.41,0,0,1-2.73-26.33c35.23,18.35,43.23-49.69,91.46-56.25-5.46-7-9.66-15.53-6.28-24.24,74.25,6,120.07-59.17,166.58-20.74-11.16-14-12.47-28.93-5.57-44.69,56.86,62.79,145.8,19.41,157.2,89.36,78.57-2.18,66.85,89,138.3,83.46-1.1,14-6.46,24.52-15.86,31.68,63.59,53.89,16.18,122,70.67,136.78-2.43,13.17-9.45,23.73-22.57,30.87,7.52,44.8-7.54,77.69-49.92,96.17,10.15,54.55-53.16,69.1-37.13,119.33-16.86,8.26-32.57,5.27-47.23-8.15-27,20.9-59.07,27.58-96.37,19.6L549,391.91"/>
  <g class="hairOverlapLine">
    <path d="M655.32,247.4c22.14-23.76,57.38-45.58,89.81-47.68"/>
    <path d="M980.22,471.81c14.56,4.73,26.69,5.62,40.19.46"/>
  </g>
  <path class="hairEdgeLine" d="M785.64,139.2C591.78,107.29,602.2,260.82,560.44,297.47"/>
  <g class="drumstickTip">
    <path d="M98.93,457.14c4,5.7,14.76,5.07,25.12-2.17s8.76-13.08,4.71-18.83-8.93-9.28-19.32-1.92S94.92,451.45,98.93,457.14Z"/>
    <path d="M1.14,349.32c1.32,6.84,11.38,10.69,23.8,8.35s13.36-8.32,12-15.23-4.33-12.13-16.82-9.69S-.17,342.48,1.14,349.32Z"/>
  </g>
  <g class="drumstick">
    <path d="M179.17,384.72c-12.75,9-42.58,33-56.4,45.41-3.28,2.31,6.34,16,9.62,13.67,16.42-8.71,48.74-28.7,61.76-37.8L626.22,104.26c17.52-12.24.08-37-17.35-24.64Z"/>
    <path d="M104.06,316.3c-15.34,3-52.37,12.57-70.08,18.2-3.94.76-.78,17.17,3.15,16.42,18.55-1.19,56.23-6.12,71.84-9.06l517.93-97.4c21-4,15.28-33.69-5.69-29.58Z"/>
  </g>
  <g class="soleWhite">
    <path d="M751.59,3283.61c-6.15,63.51,136.85,72.64,186.79,53.83,75.81-28.56,170.53-43.17,179-83.67a174.2,174.2,0,0,0,2.88-53.51C960.18,3214.22,781,3221.07,751.59,3283.61Z"/>
    <path d="M331.11,3233c-10.65,48.75,115.32,77.21,180.11,60.36,78-20.29,180.76,14.14,217-39,3.07-4.49,5.9-17.1,7.11-33.86C564.77,3206.33,379.85,3184.8,331.11,3233Z"/>
  </g>
  <g class="eye">
    <path class="sclera" d="M580.63,495.05l172.91-60.5L570.83,416.39C566.82,436.89,563.13,472.65,580.63,495.05Z"/>
    <g class="irisHazel">
      <ellipse cx="686.98" cy="449.49" rx="16.66" ry="24.3" transform="translate(-50.27 88.32) rotate(-7.1)"/>
      <ellipse cx="580.5" cy="462.75" rx="11.96" ry="24.3" transform="translate(-52.72 75.27) rotate(-7.1)"/>
    </g>
    <g class="pupil">
      <ellipse cx="683.25" cy="449.95" rx="6.48" ry="9.45" transform="translate(-50.36 87.86) rotate(-7.1)"/>
      <ellipse cx="576.76" cy="463.21" rx="4.65" ry="9.45" transform="translate(-52.81 74.81) rotate(-7.1)"/>
    </g>
  </g>
  <g class="skinGallic">
    <path d="M606.28,1953.43c-25.68,29.83-49.22-17.26-28.31-51.87-2.52-8.12,1.23-29.15-2.19-33.9-27.2-1.11-53.41,13-75.1,36.59-3-15.28-10.48-35-7.1-44.69,14-40.09,49.05-67.38,52.61-121.35,14.49-116.08,5.67-322.77,31.91-417.79,9.36-33.89,0-64.26,3.56-239.54,188.51-65.63,124,299,45.52,656.62-5.51,38.29,5.43,45.94,3.08,83.35Z"/>
    <path d="M768.13,650.62c9.59,29.9,20,48.35,13.06,66.76-7.9,93.52,178.72,59.34,229.63-29.27-46.26-26.43-81.5-152-59.38-214.74"/>
    <path d="M901.74,597.73c-34.21,56.66-95.7,85.17-110.12,97.61-60.07,51.83-130.3,50.49-152-8.56C623.61,643,543.29,582.43,571.34,478.67c-6.2-6.05-6.15-8.89-2.78-14.38,9.56,1.83,16.45-3.08,27.38-5.89-12.71-8.09-29.9-8.81-27.68,3.94-10.3-7.91-5.61-16.91-5.41-22.27,4-25.7-14.28-11-17.45-82.34,57.91,17.33,70.94-67.48,110.78-113.72,38.2-15,78.25-16,117.82-3.3-5.63,101.44,96.32,104.84,85.47,155.09-4.19,19.41,8.46,22,26.14,4.12,15.91,30,57.6,53.36,94.61,71.89-21,24.56-14.09,57.19-55.31,39.67M679.5,449c20,2.81,32.63-8.89,53.79-10.34-15.55-3.62-39.88-10.83-60.1,7.6C668.7,450.33,677,448.62,679.5,449Z"/>
    <path d="M540,164.48c22,9.15,32.51,37.43,41.55,38.82,127.21,17.48,351.16-64,481.65,14.57,30.1,24.27,47.9,70,79.17,137.21,26.61,57.22,37.52,142.27,55.37,180.68-15.51,57.54-146.76,72.2-177,24-42.49-125-41.57-190.54-64-207.87C817.29,384.12,674.76,283,563.9,298.8c-30.48,2.82-15.5,41-125.38,33.17-24.61-1.76-42.51-19.43-60-26.35-26.91-10.65-25.36-28-49.89-46-14.58-10.65,1.12-30.27,24.66-20.18-38.68-48.21-7.85-74,16.26-63.34,0-9.53,26.67-18.5,32.83-11.78-1.44-11.77,24.35-23,35-15.13,15.14-20.74,46-16.26,73.45,0l-24.14,17.14C497,171.71,505,178.1,508.56,186.43ZM429.61,253.72c2,6.5,0,18-18.94,17.58,5.59,5.16,9,3,18.84,10.28L626.9,244.46c21-4,15.28-33.69-5.69-29.58l-135,26.48C473.12,273.38,453,257.16,429.61,253.72Z"/>
    <path d="M662.83,1556.17c102,45.44,424.65,47.29,533.32,15.89a203.09,203.09,0,0,0-2.77-45C1062,1575.45,795.9,1610.69,662.83,1556.17Z"/>
  </g>
  <g class="skinOverlapLine">
    <path d="M437.4,149.22c-2.26,13.19,8.24,29,14.36,36.39,10.72,12.87,26.88,20.3,38.21,25.51,11.54,5.3,23.59-11.64,18.59-24.69"/>
    <path d="M402.4,164.35c-.07,11.9,9.74,29.59,16.65,38.28,16.34,20.54,29.67,31.21,67.11,38.73,14.54-.59,22.19-17.07,12.39-29.24"/>
    <path d="M369.57,176.13c-6.93,13.67,15.31,44.55,24.76,53.46,12.32,11.62,24.29,23,35.28,24.13"/>
    <path d="M353.31,239.47c8.27,10.19,12.5,23.92,30.8,29.55,11.16,3.43,14.95,1.85,26.56,2.28"/>
  </g>
  <g class="skinFoldLine">
    <path d="M575.78,1867.66c0-6-2-11.09-4.62-15.88"/>
    <path d="M664.23,1317.74c-17.69,1-33.34-1.93-47.27-8.24"/>
    <path d="M936.24,447.59c-7.07,22.28,10,25.76,12.87,7.71"/>
  </g>
  <g class="jacobShoe">
    <path d="M873.39,3321.77c6.34,10.5,84.49-17.4,137.7-31.75,52.14-14.06,86.76-44.88,109.17-89.76-3-29.63-13.33-57.24-27.53-83.33l-158.89-14.27C906,3151,871,3190,824.88,3213.86c-35.42,18.35-70,36.16-73.29,69.75C788.81,3261.69,848.77,3281,873.39,3321.77Z"/>
    <path d="M422.46,3263.46c9.72,11.66,52.29,11.84,112.73,1.94,71.79-11.76,148.3,14.31,200.18-44.87,2.55-35.31-2.14-89.07-27.19-124.23l-123.75-31.74c-53.75,45.64-106.39,90.81-153.55,103-46.65,12.07-90.47,22.86-99.77,65.44C360.54,3221.26,398.62,3234.84,422.46,3263.46Z"/>
  </g>
  <g class="shoelace">
    <path d="M986.77,3162.39a305.72,305.72,0,0,0-80.83-17.85c-22.58,29.07-49.17,52.8-81.06,69.32,32.68.5,65,7.78,97.1,21.09A187.9,187.9,0,0,0,986.77,3162.39Z"/>
    <path d="M602.57,3131.29c-23.81-9.67-49.43-15.59-76.59-18.34-33.16,25.93-65.23,46.89-95.1,54.62,28.18,1.41,54.58,7.53,79.05,18.79C544.23,3174.77,581.19,3152,602.57,3131.29Z"/>
  </g>
  <g class="shoeLogo">
    <path d="M624,3161.09a557.61,557.61,0,0,1-64.78,33.69,446.83,446.83,0,0,1,29.78,67c28.65-.23,56.9.69,82.93-4.88C661.33,3219.36,645.88,3186.89,624,3161.09Z"/>
    <path d="M1072.86,3259.91c-17.75-25.31-40.08-48.83-66-71-11.39,15.33-30.79,33.87-44.06,50.54,19.41,12.92,36.39,29.62,51.18,49.72C1036.9,3282.67,1056.37,3272.83,1072.86,3259.91Z"/>
  </g>
  <path class="jacobPants" d="M1196.15,1572.06c11.44,21.17,38.65,36.73,10.33,64.8,33.85,11.14,11,29.87,16.94,55.42,4.83,20.94,8,71.67,0,102.34-4.13,15.66,18.52,49.66-13.15,49.77,32.72,13.31-20.69,46.27-29.37,114.38-17,133.69-42.79,256.31-50.42,314.86-9.67,74.07,13.46,98.75-27.51,125.19-11.57,43.85,26.77,94.56,3.91,131.75,6.16,193.45-12.62,358.51-12.39,405.54.11,21,19.17,22.88-3.46,63-17.56,31.59,23.14,42.39,10.68,70.67-17.11,38.83,7.59,36.47,5,64.58-22.77-6.58-61.06,8.26-94.45,2.69-1.24-27.21-76.68-41.43-92.23-12.06-9.78-16.61,2.57-36.17,0-52.37-34.72-41.71,32.18-60.82-4.06-100.58-38.62-42.39,1.23-47.84-24.53-219.55-10-66.68,6.91-225.1-8.58-242.85-23.93-27.44,22.13-44.15-2.45-78.5-25.59-35.76,17.17-65-7.36-301.72-94.28,208.36-43.29,230.61-76.61,257.71,15.71,43.37-14.4,91.55-12.86,163.41,2.71,127-30.08,237.84-30.89,333.27-.26,30.68,14.72,76.71-24.44,87.49,16.28,31.74,27.62,62.8-7.72,87.5,23.93,25.37-.18,35.57,9,57.9-21.23.85-44.41,19.39-89.18-1.81-3.6-28.33-62.23-42.82-83.91-26.66-14.11-32.81,5.37-45.79,6.05-63.69-35.92-34.95,10.61-59.43-.68-75.74-29.89-43.15,3.62-74.81,2.78-97.36-1.91-51.17-7.39-230.09,3.71-328.22-8.35-27.82-4.64-58.42,9.27-95.5-15-21.34-10.79-51.48-15.76-85.31-9.2-62.54,8.1-92.81,13.9-155.76,25-271.67,73.25-405.19,59.34-445.06-4.32-14.27.21-30.07,13-47.28-5.56-51,5.57-97.36,14.84-138.16C764.82,1601.61,1087.48,1603.46,1196.15,1572.06Z"/>
  <path class="jacobShirt" d="M580.85,1041.3c-12.16-34.28-2.91-60.61,1.41-95.34s1-70.77,20.36-112.63c25.78-55.64,97.7-58.35,146-92.53,91.41,71,163.27,50.55,233.68-39.58a148.9,148.9,0,0,1,27.39-42.94c-6.61-15.82,6.06-36.35,11.61-55.33l189.54-25.29c26.9,28.19,20.16,147.42,20.16,225.72,0,117.52,6,154-9.54,229.89,8.16,27.73-2.44,93.8-13.86,123.16,8.15,65.25-6.43,115.1-5.71,178.62s19.17,121.53,23.65,178.63c-114.19,54.64-417.6,102-562.73,42.49-2.42-15,1.19-28.94,7.29-42.49-13.87-26.11,14.83-61,0-90.54-15.28-30.37,7.64-22.2-4.9-98.69-8.15-49.76,10.61-31.81.82-74.22-26.92-45.68,4.08-7.34-12.91-156.43Z"/>
  <g class="jacobShirtTrim">
    <path d="M1197.73,535.76c-15.51,57.54-146.76,72.2-177,24-3.52-5.62-5.75,36.55.63,43.15,47.79,49.42,175.78,21.62,189.54-25.29C1214.41,569.73,1199.86,527.86,1197.73,535.76Z"/>
    <path d="M748.64,740.8c-1.15-4.18,31.47-27.62,32.55-23.42,20.19,79.16,144.59,57.35,201.13-16.16-16.15,21-25,40.39-33.11,60.58-25.85,4-37.16,26.66-57.36,45.24C833.69,814.31,764.22,797.35,748.64,740.8Z"/>
    <path d="M651.94,1053.42c-29.25,1.07-55.74-.81-71.09-12.12-6.52-4.81-5.89,35,.81,39.58,17.77,12.12,45,15.2,71.47,12.92C651.13,1072.8,653.56,1066.34,651.94,1053.42Z"/>
  </g>
  <g class="clothesDisplayLine">
    <path d="M851.33,1589.69c13.19,67.19-36.45,75.77-23.4,139.49,13.92,67.94-7,83.23,23.4,144-44.47-12.78-71.74-34.3-67.06-95.12,2.14-27.78-19.49-66.28,0-111.5,12-27.87.78-52.25,14-81.47"/>
    <path d="M957.91,1623.94c20,55.51,83.74,84.41,174.7,96.78"/>
    <path d="M731.83,1623.94c-12,35.92-48.82,66.8-83.84,70.39"/>
    <path d="M582.35,3183.92c14.87,26.82,26.68,52.93,33.17,77.84"/>
    <path d="M603.55,3172.91c20.86,26.88,33.24,57.6,41.69,87.65"/>
    <path d="M977.05,3223a251.28,251.28,0,0,1,58.57,58.66"/>
    <path d="M991.64,3207a442.26,442.26,0,0,1,63.18,65.06"/>
  </g>
  <g class="clothesOverlapLine">
    <path d="M684.28,907c-19.64,41.48-32.69,98-32.34,146.45"/>
    <path d="M851.33,1873.22c14.61,37.94,14.61,84.2,21.68,256.22"/>
    <path d="M532.92,3177.15c-22.65-10.44-47.42-17-73.95-20.19"/>
    <path d="M552.79,3167.05a247.46,247.46,0,0,0-74.57-20.57"/>
    <path d="M569.88,3156.77c-24.22-11.14-49.46-18.3-76.62-19.87"/>
    <path d="M585.81,3145.56c-24-11.39-52.26-19.15-75.69-20.55"/>
    <path d="M938.18,3223c-27.93-14.17-58.24-21.44-90.52-22.72"/>
    <path d="M953.19,3209.29c-27.73-12.23-56.5-20.41-86.36-23.62"/>
    <path d="M966.12,3194.67c-28.08-12.37-56.51-19.88-85.31-21.76"/>
    <path d="M977.05,3179.39c-28.93-10.82-57.1-17.92-84.13-19.2"/>
  </g>
  <g class="clothesFoldLine">
    <path d="M759.8,1729.18c-16.93-5.82-36.95-8-58.82-8"/>
    <path d="M857.35,1726.19c17.26-6.15,39.79-7.94,64.56-7.89"/>
    <path d="M865.24,1748.43a233.46,233.46,0,0,1,63.85,16.5"/>
    <path d="M881.74,1906.24c3.22-16,34.43,10.76,46.63,23.68"/>
    <path d="M792.79,1878.27c-12.73-4.76-27.25,8.61-39.45,15.78"/>
    <path d="M599.12,2288.58c-12.58,25.05,30,45,83.92,63.84"/>
    <path d="M711.74,2408.37c-48,17.65-27.57,40.15,20.08,64.56"/>
    <path d="M591.94,2474.37c41.79-30.34,86.33-11.81,132,26.54"/>
    <path d="M568.26,2523.24c5.75,16.4,10.71,27.86,20.1,37.92"/>
    <path d="M796.4,2387.15c-8.24,4.44-16.11,8.62-23.69,12.62"/>
    <path d="M588.36,2371.79c12.29-16.41,103.84-.12,106.16,12.19,2.82,15-48.78,25.83-82.49,41.61"/>
    <path d="M917.61,2373.94c59.54,15.07,46.63,41.61-17.22,45.19"/>
    <path d="M1076.14,2400.48c-53.8,26.54-129.73,37.39-128.4,56.67,1.1,15.91,49.87,16.52,92.53,19.37"/>
    <path d="M931.24,2502.34c45.91-3.58,148.83-5.9,76.75,27.26"/>
    <path d="M576.09,2902.58c-12.31,25.36,17.94,36.17,58,43.63"/>
    <path d="M562.45,3024.56c27.55,25.7,95.45,24.5,108.1,44.4"/>
    <path d="M697.89,2963.47c-25.42,23.5-99.62,17.38-100.7,33.57-1.44,21.58,85.83,47.47,118.44,27.33"/>
    <path d="M720.49,3058.82c-10.42,6.23-19.12,7.92-26.92,7.27"/>
    <path d="M1083.41,2929.91c-30.21,51.3-86.31,74.8-12,69.05"/>
    <path d="M927.57,2933.74c13.34,23.91,34.71,29.29,62.82,19.18"/>
    <path d="M920,3072.64c58.41,55.78,134.17-31.49,155.27-21.9,24.62,11.19,2.88,40.28-30.21,49.39"/>
    <path d="M949.63,3063.21c-22.93-11.43-17.61-15.74,4.79-19.66,65.19-11.39,136.74-32.79,66.18,6.71"/>
    <path d="M949.21,761.8a288.74,288.74,0,0,0-23.42,73"/>
    <path d="M994.38,702.93c-24.27,60.15-50.65,156.18-3.17,107.64"/>
    <path d="M1009.71,658.28c8.94,26.71-2.67,52,25.82,98.47"/>
    <path d="M1012.32,782.08c7.17,45.31,29,81.14,68.59,105.52"/>
    <path d="M1027.09,689.21c8.61,40.1,27.19,72.09,57,95"/>
    <path d="M1037.64,669.16c23.06,52.51,64.79,96.28,117.14,135.08"/>
    <path d="M1085.13,710.32c14.63,31.16,66.48,51.71,99.19,85.47"/>
    <path d="M1204.37,974.13q14.7,31.71,17.11,59.14"/>
    <path d="M1183.27,1103.93c9.5,24.27,21.1,32.71,24.35,52.5"/>
    <path d="M631.38,916.09c7.38,69.65,13.47,103.71,26.38,19"/>
    <path d="M628.21,978.35c6.68,23.34,14.64,42.15,24.32,54.92"/>
    <path d="M853,945.64C824.49,971,789.66,977.3,745.34,995.23"/>
    <path d="M811.82,984.68c-28.49,17.94-60,30.7-77,44.32"/>
    <path d="M926.29,1100.36c-75.52,72.83-189.45,151.49-252.63,116.88"/>
    <path d="M784.24,1246c19.89,22.66-15.28,56.64-90.8,37.76"/>
    <path d="M1023.39,1046.42C938.88,1159.7,796.33,1206.26,804,1227.13c6.29,17.08,72.83-3.6,123.17-37.76"/>
    <path d="M1033.28,1156.1c-57.67,43-120.06,77-190.6,95.3"/>
    <path d="M686.24,1304.45c42.31,6.25,90.75,2.57,143-7.19"/>
    <path d="M879.54,1298.16c-49.45,49.44-156.29,107.7-193.3,90.8"/>
    <path d="M1127.68,1388.06c-43.57,77.12-90.11,145.61-156.43,156.44"/>
    <path d="M1162.75,1353.9c-3.6,60.23-109.69,163.63,18,134.86"/>
    <path d="M670.12,1513.68c16.67,11.33,70.25,18.85,133,25.42"/>
    <path d="M682.65,1492.35c56.67,10.91,106.39,1.64,152.84-17.08"/>
    <path d="M803.12,1384.47c-31.47,12.58-67.26,20.39-55.74,31.46,22.79,21.9,79.08,7.6,138.46-9.89"/>
    <path d="M705.12,1433c47.65,28.77,98.64,7.29,92.61,23.38-5.4,14.39-47.65,18.88-62,14.39"/>
  </g>
  <g class="head54__edited">
    <path class="lipMaleMedium__noStroke" d="M623.54,599.62c10.76,1.92,22.71.26,35.39-3.59,20.44.09,52.06-9.92,69.52,1.13-9.34,22.6,4.89,67.69-48.3,71.14-53.53,3.47-10.22-41-62.35-64.51C621,603.65,623.12,602.47,623.54,599.62Z"/>
    <path class="mouthInner" d="M660,641.62c-6.07-2.67-10.65-8.06-12.45-16.81a69.77,69.77,0,0,0,11.45.41A56.9,56.9,0,0,0,660,641.62Z"/>
    <path class="tongue" d="M716.27,593.77a43.13,43.13,0,0,1,8.48,1.88c-1.3,30-42.82,55.63-64.76,46a56.9,56.9,0,0,1-1-16.4C685.66,624,710,608.34,716.27,593.77Z"/>
    <path class="teeth" d="M633.06,608.69c21.57-.43,56.3-18.24,83.21-14.92-7.12,16.64-37.89,34.74-68.73,31C637.38,623.42,634.53,613.47,633.06,608.69Z"/>
    <g class="lipOverlapLine">
      <path d="M724.75,595.65a35.27,35.27,0,0,1,8.5,4.16"/>
      <path d="M613,589c.92,15.27,8.66,19.92,20.08,19.7"/>
    </g>
    <g class="lipEdgeLine">
      <path d="M623.54,599.62c10.76,1.92,22.71.26,35.39-3.59"/>
      <path d="M649.81,655.81c9.82,17.78,43.9,16.8,62.66-2.64"/>
    </g>
    <g class="cheekLine">
      <path d="M670.8,533.74c14.83,3.68,56.43,28.94,64.68,43.67"/>
    </g>
    <g class="noseLine">
      <path d="M670.8,533.74c13,6.18,14.75,22.38,5.64,28.59"/>
      <path d="M610.4,498.64c-9.49,35.44-31.45,70.75,2,77.27,14.24,2.77,37.09-19.58,50.37-9.48"/>
    </g>
    <g class="eyeFoldLine">
      <path d="M571.34,478.67c7.53,4.7,20.58,4,28.3-.16"/>
      <path d="M677.36,464.13c14.11,7.82,30.45,8.46,47-1.4"/>
    </g>
    <g class="eyeCornerLine">
      <path d="M762.57,438.74c-8.71,3.56-21.82,3.21-29.28-.11"/>
      <path d="M664.31,455.85a58,58,0,0,1,8.88-9.62"/>
      <path d="M595.94,458.4c4,2,8.4,4.33,14.18,4.67"/>
    </g>
    <g class="eyeCreaseLine">
      <path d="M671,438c20.46-21.7,51.45-19,73.44-5.81"/>
      <path d="M561.66,448.59c10.22-10.67,27.39-8.7,43.08,2.83"/>
    </g>
    <g class="eyebrowMediumBrown">
      <path d="M635.43,390.82c26.16,23.92,65.73-14.58,132,3.95C698.53,356.37,672,383.87,635.43,390.82Z"/>
      <path d="M577.75,398.44c-5.32,8.08-13.21,11.35-23.22,12.76a82.22,82.22,0,0,1-4.48-14.05C559.08,398.09,568.11,399,577.75,398.44Z"/>
    </g>
  </g>
</svg>
