<svg viewBox="0 0 221.8 456.13">
  <g class="soleWhite">
    <path d="M44.21,439.84c3.57,3.7,13.94,1.8,10,14.79-17.29,4.16-25.39-2.75-36.12-10.26-7.51-6-17.12-11-17.84-15a13.21,13.21,0,0,1,3.3-5.66Z"/>
    <path d="M194.12,422.17c5.3-.53,12.86-3.2,14.14,7.39-8.73,9.2-22.1,8.51-36.38,14.05-6.45,2.5-12.61,4.54-18.63,4.81a12.22,12.22,0,0,1-3-6.17Z"/>
  </g>
  <g class="bennettShoe">
    <path d="M158.61,401.33c3.82,7.55,7.27,14.8,13,15.87,8.6,1.61,15.89,4.87,22.51,5-.71,2.63-.36,4.77,1,7.6-10.86,4.29-21.86,6.34-27.61,8.78-6.44,2.75-14.43,4.3-17.29,3.7-3.46-5.49-3.34-21.59-7.52-29.7Z"/>
    <path d="M36.81,402.39c-1.55,6.08-3.4,11.36-1.91,16.82,2.39,8.71,2.75,15.27,9.31,20.63a13.16,13.16,0,0,0-6.92,8.71c-6.19-1.22-13.72-8-21.83-12.88-5-3-10.78-8.9-11.9-12,2.07-5.28,11.78-12.72,15.6-21.43Z"/>
  </g>
  <g class="shoelace">
    <path d="M34.9,419.21a16,16,0,0,1-.52-3.18,20.06,20.06,0,0,0-4.1.67c1.51,7.21,1.75,12,5.45,18.43a31.19,31.19,0,0,1,3.49-1.46C37.14,429.58,36.45,424.84,34.9,419.21Z"/>
    <path d="M185.76,420.82c-4.41-1.15-9.17-2.69-14.15-3.62a9.71,9.71,0,0,1-5.05-2.89,3.73,3.73,0,0,0-1.47,1.93c2.23,3.36,10.17,4.5,20,6.67A8.22,8.22,0,0,1,185.76,420.82Z"/>
  </g>
  <circle class="converseLogo" cx="159.88" cy="428.46" r="5.87"/>
  <path class="bennettJeans" d="M70.23,216.55c-8,10.88-11.49,23.08-8.78,36.66.48,3.16-2.59,5-.32,7.91-1.76,1.57-2.62,4.14-1.25,5-3.93,27.83-7.29,53-10.11,55.36a8.16,8.16,0,0,0-2.88,7.36,4.53,4.53,0,0,0-3.37,4.62c-11.77,13.32-14.2,34.91-27.62,57.05-2.29.24-4.52,3.66-3.75,6.37-5.17,3.69.49,7.69,2.65,12.47,3.48-2.22,11.16-.17,15.29-.9,2.19-6.61,6.81-6.61,5.38-.94,1.43-1.4,4-.21,5-4.11,5.4.12,2.42-4.63,11.26-17.79,7.68-11.44,12.29-26.58,20.32-35.8,5.13-2.9,2.1-7.52,5.3-9.91,3.94-2.93,3.1-7.38,17-27.59,2.69,5.78,2.65,13.11,6.18,17.35,1.93,2.3.63,7.27,2.94,9.29,1.56,1.36-.72,6.73,4.34,8.83.69,10.3,5.86,22.91,13.17,34.1,3.73,5.71,6.18,19.37,10.53,24,2.06,2.19.15,9.79,7.44,11-3.71,5.15,3.63,7.79,7.28,8.39,3.51-9.45,9-12.13,11.59-16.56C156,405.09,159.3,402.5,161,406c1.79-2.38,2.72-4.68.79-6.89.72-2.5-2.88-4.5-3.72-6.19-10.22-20.57-12.36-37.3-18.9-57.49.78-4-3.79-6.78-2.63-9.45,2-4.59-1.21-5.27-1.65-7.52-1.36-7.05-8.26-43.78-12.91-58.49,5.43-6.2.74-10.3,3.86-13.32,5.05-4.89.31-10.84,1.24-17.5Z"/>
  <path class="bennettHoodieInner" d="M69.43,99.06c.62-9,4.27-14.66,12-13,14.83,3.18,37.81,18,35.43,23.86C104.16,101.66,87.87,98.74,69.43,99.06Z"/>
  <g class="bennettHoodie">
    <path d="M176.45,156.3c-2.57.64-7.47,5-10.94,6.22a3.47,3.47,0,0,0-6.53,1.09c-2.27-.64-3.85.42-5.14,1.12-1.75,1-1.87-.78-5.89,1.27-2.51.82-3.16-.12-5.57,0s-6.85,2.39-9.26.81c-.46-17.22-3.17-15.47-4.92-23-2.73-11.63-1.24-25.52-11.29-34.07l0,.14,0-.14c-.39-.34-.8-.66-1.22-1-20.23-12-37-10.25-48.69,12.42-2.38,8.61.65,20.56-.18,30.4a75.43,75.43,0,0,0-.12,11.15c.2,3.71-3.92,7.48.73,11.56-2.87,9.44,2.35,8.25,0,18.35-1.12,4.82.22,4.85.22,6.16,0,2-1.66,2.84,1,6,0,2.26-1.16,5,.65,7.23-.91,2.13-1.59,5-.66,5.61,10.9,7.92,42.81,14.33,59.06,13.35,2-1.86,1.07-5.66.53-8.81,10.37-8.38,4.33-19.27,3.35-29.26,4.5,1.07,13.91-4.8,16.4-4.92,7.23-.34,11.1-3.79,17.93-8.68,3.05,1.09,4.83.15,5.61-2.37,3.46-1.95,11.15-4.53,11.67-5.28C184.13,170.34,178.12,155.89,176.45,156.3Z"/>
    <path d="M116.77,108.09c-2-5.14-17.91-8.92-31.75-9.64-18.32-1-15.58-2.72-17.52-3.19-3.34-.8-3.7,6.2-4,7.49-7,4.67-2.7,9.08-1.9,12.43.94,4-.48,8.76,3.66,8.92,3.85.15,12.59-24.85,33.3-19.44,6.53,4.41,16.08,7.33,18.31,5.26h0A3.5,3.5,0,0,0,116.77,108.09Z"/>
    <path d="M116.77,108.09a3.5,3.5,0,0,1,.11,1.83A2.86,2.86,0,0,0,116.77,108.09Z"/>
  </g>
  <g class="hoodieLace">
    <path d="M124.43,138.75l.2,6.08c0,.33,1.4.26,1.38-.07l-.25-6.16Z"/>
    <path d="M117.23,111c4.54,10.76,5.24,15.62,6.81,27.42,0,.68,2.11.46,2.06-.22-1.31-12.57-3-19.36-7.08-28.16Z"/>
    <circle cx="117.77" cy="109.7" r="1.77"/>
  </g>
  <g class="clothesDisplayLine">
    <path d="M55.07,448.91c-4.94,1.27-13.12.95-17.78-.36"/>
    <path d="M195.16,429.77a33.44,33.44,0,0,0,11.18-5.8"/>
    <path d="M120.82,234.45c-3,5.62-8.44,8-18,4.55"/>
  </g>
  <g class="clothesOverlapLine">
    <path d="M77.64,88.35c14.17,1.26,40.91,14.22,39.24,21.57"/>
    <path d="M87,143.87c5,17,22.93,45.41,26.8,48.27s14,.59,17.71.86"/>
    <path d="M133.12,166.81c-2-1.7-3.88,1-5.3.7,1.28-2.19-2.64-1.35-2.52-3.89.81-1.35.36-6.24-2.67-6.32-2.53-3.83,3.31-4.42-1.95-6.81a19.87,19.87,0,0,0-3.56-10.94c2.62-1.59,1.33-3.79-.91-6.14"/>
    <path d="M165.51,162.52a83.83,83.83,0,0,1,6,14.51"/>
    <path d="M125.3,193.37c1.16,11.51-4.53,12.69-7.77,18-2.74,4.53-.59,6.82-3.64,10.89"/>
    <path d="M128.2,222.26c-10,1.79-48.86-2.81-58.93-10.15"/>
    <path d="M122,259.93c-4,10.91-6.84,8-8.56,12.43a285.14,285.14,0,0,1-19,39.95"/>
    <path d="M30.28,416.7c-.42-3.18.51-5.52-.19-8.25"/>
    <path d="M34.9,419.21A9.26,9.26,0,0,0,31,420"/>
    <path d="M35.69,422.24a13.62,13.62,0,0,0-4.19.66"/>
    <path d="M36.46,425.41a21.38,21.38,0,0,0-4.33.53"/>
    <path d="M37.22,428.34a20.47,20.47,0,0,0-4.2.8"/>
    <path d="M38,430.9a15.23,15.23,0,0,0-3.84,1.23"/>
    <path d="M157.84,408.71c2.56.87,5.06,4.53,7.25,7.53"/>
    <path d="M169,416.24a7.14,7.14,0,0,0-1.43,2.07"/>
    <path d="M172,417.28a9.87,9.87,0,0,0-1.12,2.34"/>
    <path d="M175.14,418a6.13,6.13,0,0,0-1.24,2.5"/>
    <path d="M178.73,418.88a5.89,5.89,0,0,0-1.33,2.39"/>
    <path d="M182.25,419.87a4.89,4.89,0,0,0-1.05,2.21"/>
  </g>
  <g class="clothesFoldLine">
    <path d="M73.4,97.41c4.88-5.06,11.72-4,19.14-1.18"/>
    <path d="M63.51,102.75c-.17,8.57,5.28,6.41,12.35,1.15"/>
    <path d="M74.12,109.32c-6.33,2.57-6.75,7-11,8.29"/>
    <path d="M98.57,104.66c3.38.67,6.22,1.08,9.82,2.72"/>
    <path d="M82.16,125.89c-.77,6.75,2.42,19.42,4.88,18,1-.61-3-8.26-.54-15.73"/>
    <path d="M83.23,156.27a37,37,0,0,0,13,8.75"/>
    <path d="M75.93,160.56A64.65,64.65,0,0,0,100,171.88"/>
    <path d="M67.43,174.33a39,39,0,0,0,9.39,4.31"/>
    <path d="M71.29,182.49c10.57,6.42,27.84,8.53,22.82,10.67-3.35,1.42-15,.67-20.56-.84"/>
    <path d="M68.62,204.88c7.91,6.25,23.78,5,21.14,8.13"/>
    <path d="M71.09,199.38c7.61,6.22,26.67,9.58,41.78,8.1"/>
    <path d="M75.83,198.49c4-.39,6.52,1.68,15.41.49,12.31-1.64,21.49,4.55,11.46,4.05"/>
    <path d="M97.39,212.69c12.23,3.77,32.63.84,28.07,5"/>
    <path d="M117.16,123.66a18.77,18.77,0,0,1,.36,11.28"/>
    <path d="M117.12,139.55a43.2,43.2,0,0,0-12.18-3.82"/>
    <path d="M94.83,141.77q11,11.65,25.85,8.72"/>
    <path d="M94.08,147.35a26.06,26.06,0,0,0,7.69,7.85"/>
    <path d="M122.63,157.3c-3.84,2.23-7.47,3.4-10.75,2.73"/>
    <path d="M125.3,163.62c-.89,1.24-5.42,1.54-7.53,5.46"/>
    <path d="M127.82,167.51c-2.14,1.9-3.94,5.51-5.57,9.9"/>
    <path d="M125,167.07c-4.31,2.62-7.72,7-10.2,13.35"/>
    <path d="M129.1,168.92c-.81,6.37-3.58,12.41-8.15,18.14"/>
    <path d="M132.86,173.3a26.19,26.19,0,0,1-2.94,11.37"/>
    <path d="M159,163.61c1.18,6.2,5.29,14.79-.28,15.61"/>
    <path d="M165.46,175.2a9.31,9.31,0,0,1,.42,4.2"/>
    <path d="M112.49,131.08a14.6,14.6,0,0,1,3.72,2.33c-3.32-22.26-21.33-20-21.19-22,.18-2.74,9.83-2.4,15.68,5.51"/>
    <path d="M115.45,193c-14.89,1.13-4.39,4.33,9.47,7.8"/>
    <path d="M115.79,263.38a45.32,45.32,0,0,0-11.58-5.79"/>
    <path d="M111,268.36a26.9,26.9,0,0,0-8.57.88"/>
    <path d="M61.13,261.12a6.55,6.55,0,0,0,2.75,1.22"/>
    <path d="M59.88,266.12a2.56,2.56,0,0,0,2,1.2"/>
    <path d="M66.83,319.91c1.1,7.23,3.31,13.3,10.08,14.59"/>
    <path d="M57.48,332.07c7.24,3.66,14.1,7.3,12.37,9-.71.71-13.31-1.86-19.33-9.27"/>
    <path d="M47.39,335.42c8.16,4.09,14.32,7.83,1.64,6.15"/>
    <path d="M70.89,347.12c-2.26-2.07-5.32-3.13-9-3.35"/>
    <path d="M131.91,322.35c-3.32,3.41-9.24,5.36-15.83,6.14"/>
    <path d="M105.71,333.54c4.52-.69,8.11-2.2,2.43,2.67"/>
    <path d="M136.66,336.13c-.19-3-6.76,2-14,9.15"/>
    <path d="M109.65,339.45c6.14-5,19.72-9.22,21-8.06s-6.1,5.49-13.84,9.95"/>
    <path d="M107.83,347.78c2.51.35,8-2.76,6-.11"/>
    <path d="M156.54,395.1c-2.08,2-9.58,1.62-12.13-.47"/>
    <path d="M138,397.88c2.08,1.62,5.79,3.12,5.09,5.44-1.09,3.64-4.37,7-6.45,2.62"/>
    <path d="M139,416.88c4,.79,8.53-1.24,12-5.46"/>
    <path d="M161.76,399.07c-7.88,7.37-13.3,2.51-16.19,10.5-1.71,4.7,6-1.18,10.91-5.9"/>
    <path d="M22.75,388a26.27,26.27,0,0,0,18.61,10"/>
    <path d="M15.9,390.51c2.9,2.51,11.78,3.9,10.3,6.14-.9,1.35-2.8,1.19-5-.23"/>
    <path d="M12.15,396.88c6.82,2.57,14.26,5,11.85,6.49-.93.58-3.45-.7-5.91-2.55"/>
    <path d="M40.5,403.4c-3,.55-17.08-6.63-9.79,0"/>
  </g>
  <path class="teeth" d="M133.11,77.19a12.77,12.77,0,0,1-.72,4.26c1.41,0,.56,1.32.61,3.08C122.18,83.48,122.67,76.14,133.11,77.19Z"/>
  <path class="teethOverlapLine" d="M132.39,81.45a17.24,17.24,0,0,1-5.34-1.07"/>
  <g class="eye">
    <circle class="sclera" cx="129.02" cy="54.89" r="5.65"/>
    <path class="irisDarkBrown" d="M131.72,58.73c.38,0,1.31-1.55,1.31-3.47s-.93-3.46-1.31-3.46A19.68,19.68,0,0,0,131.72,58.73Z"/>
    <path class="pupil" d="M132.56,56.61c.31,0,.47-.6.47-1.35s-.16-1.35-.47-1.35A11.09,11.09,0,0,0,132.56,56.61Z"/>
  </g>
  <g class="skinEastAsian">
    <path d="M71.18,62.32C77.25,71.82,82.26,75.45,81.92,89a86.86,86.86,0,0,1,26.94,11.15c-1.79-11,7.53-18.76,14-23Z"/>
    <path d="M221.48,141a2.65,2.65,0,0,0-3.45-1.8c1.75-1.67,2.41-3.56,1.1-5.05-.94-1.07-2.95-.47-6,1.79,1.52-2.4.46-4.7-2.66-4-2,.47-10.41,7.13-16.85,10.94,2.81-3.61.43-7.48-.95-6.09-4.13,4.15-9.14,5.17-12.26,11.85-2.26,4.84-2.09,6.87-2.83,8.58,1.9,2.55,4.94,9.84,5.56,13.08a3.12,3.12,0,0,1,1.69-.27c11.95,2.29,18.67-5.93,22.55-9.15,5.64-4.7,11.08-7.35,11.72-10.37.26-1.24-.85-3.91-3.16-2.82C219.21,145.05,222,143.15,221.48,141Z"/>
    <path d="M174.85,214.41c2.82-.31,4-2.56,1.46-4.56-1.63-1.31-12.45-2.93-19.44-5.61,4.39-.57,5.64-4.92,3.69-5.13-5.81-.65-10.49-2.73-16.71-1.34-6.56,1.47-7.84,5-10.33,5.92,1,5.24,1.29,10.4-2,15,7.52,6.73,15.44,6.36,19.76,7.5,7.15,1.89,14.32,4.31,17.09,2.93,1.13-.57,1.05-3.32-1.24-4.46,4.07.94,7.51,1.2,8.89-.59a2.65,2.65,0,0,0-.73-3.82c2.4.33,4.28-.33,4.64-2.28C180.23,216.59,178.51,215.38,174.85,214.41Z"/>
    <path d="M96.07,72.36c-3.85,3.16-6-.11-8.91-2.61C48.65,54.59,103.52-4.4,133.62,24.51c.37,10.77,5.44,18.78,2.09,27.69-1.76,4.66,3.75,9.86,6.58,16.16,1.49,3.32-.67,5.42-6.08,4.89a4.56,4.56,0,0,0,0,2.94,2.18,2.18,0,0,1-2.09,1.89A37.62,37.62,0,0,0,128,78a11.92,11.92,0,0,0-1.28,3.57c4.06,3.2,8.78.16,7.45,5.34-4.11,1.13,2.18,9.61-6.84,10.08-2.32.12-3.36-.75-11.18-3.68a40.56,40.56,0,0,1-15.46-10.17m31.5-30.94c-2.63.55-4.32,2.57-5.41,3.62a10.42,10.42,0,0,0,5.52,2.19C133.36,56.67,133.14,53.23,132.22,52.24Z"/>
  </g>
  <g class="skinOverlapLine">
    <path d="M156.87,204.24a8.88,8.88,0,0,1-4.16-1,15.83,15.83,0,0,0-5.77,1.29"/>
    <path d="M174.85,214.41a163.32,163.32,0,0,1-16.21-3.53"/>
    <path d="M175.34,220.27c-3.52-.65-10.94-2-17.93-3.79"/>
    <path d="M167.18,224.68c-2.77-.52-7.77-2-12.79-3.21"/>
    <path d="M187.08,146c3.21-2,4.19-1.68,6.55-3.14"/>
    <path d="M213.14,135.89c-4.32,3.53-9.06,6.74-12.7,9.8a1.48,1.48,0,0,1-1.82.1"/>
    <path d="M218,139.15c-4.19,3.49-9.34,7-14.7,11.06"/>
    <path d="M216,147.66c-2.8,2.39-6.15,4.8-9.44,7.39-.6.54-1,1-.77,1.81"/>
  </g>
  <g class="skinFoldLine">
    <path d="M152.71,203.27a2.47,2.47,0,0,1-.28-2.08"/>
    <path d="M158.73,210a2.51,2.51,0,0,1-.51,1.76"/>
    <path d="M157.6,215.42a4.65,4.65,0,0,1-.6,2"/>
    <path d="M154.62,220.72a2.11,2.11,0,0,1-.76,1.41"/>
    <path d="M92.77,58.11c-1-9.24-17.14-.35-5.92,7.93"/>
    <path d="M92.89,61.24c-2.85,2,2.32,4.54.29,6.05-1.42,1-1.51-1.84-4.53-3.32-3.44-1.67,0-7,1.8-4.88"/>
  </g>
  <g class="skinCreaseLine">
    <path d="M151.33,209c-3.58,3.9-7.16,4.88-11.8,4.88"/>
    <path d="M152.31,211.88c-3,1.39-6.07,6.65-6.51,9"/>
  </g>
  <g class="lipMaleMedium__noStroke">
    <path d="M136.25,76.19c-2.05,1.36-5.68.68-8.22,1.85a37.62,37.62,0,0,1,6.13,0A2.18,2.18,0,0,0,136.25,76.19Z"/>
    <path d="M126.75,81.61c1.94,2.61,3.17,5.37,7.45,5.34C135.53,81.77,130.81,84.81,126.75,81.61Z"/>
  </g>
  <path class="lipEdgeLine" d="M134.2,87c-1.38.15-3.13-.3-3.74-1.18"/>
  <path class="cheekLine" d="M126.57,82.81c.6-5.32,3.23-6.33,4.24-9.92"/>
  <path class="noseLine" d="M138.11,72.15c-3.65-.45-4.07.74-5,.8-1.91.13-2.23-3-.78-3.82"/>
  <g class="eyeLidLine">
    <path d="M132.22,52.24c2.09-.54.76-2.45.76-2.45"/>
    <path d="M132.33,58.05c1.27.22,1.36,2.11-.66,2.3"/>
  </g>
  <path class="eyeCreaseLine" d="M127.37,53.31a10.33,10.33,0,0,1,5.88-3"/>
  <path class="eyebrowBlack" d="M135.92,45.55c-3.39,4.18-5.17-1.74-12.17,1.69C128.88,41.15,131.68,46.78,135.92,45.55Z"/>
  <path class="hairBlack" d="M129.23,24.87c.43,9.05,6.51,14.3,13.83,16.89-4.75-4.93,1.32-14.81-8.41-21.1a21.53,21.53,0,0,0,6.12.43C131.15,17.32,135,15,118.33,8c-9.46-4-27.26-3-37.59,1.14-.19-3.5,3.42-6.62,6.91-8.73C82.52,1,78.54,5.2,77.32,10.32c-2.46-3.56-7.17-3.08-10,.33,4-1.42,5.56-1,7.49,1.46C58.59,25.69,53.58,60.37,78.28,75a19.18,19.18,0,0,0,8.88-5.27c-4.25-3.31-8.4-7.36-5.24-14.32,2.43-5.35,11.87-6.21,12.26.39a45.1,45.1,0,0,0,9.22.14c.09-6.14-.92-4,4.36-9.72,4.52-1.58,14.19-1,16.84-13.25a15.39,15.39,0,0,0,.78,5.7C126,34.2,129.16,32.28,129.23,24.87Z"/>
  <path class="hairOverlapLine" d="M107.76,46.24c-1.73.44-4.89,1.13-6.35,1.61a15.68,15.68,0,0,0,4.14-3.79"/>
</svg>
