<svg viewBox="0 0 1482.21 2841.93">
    <g class="soleWhite">
        <path d="M1360.43,2260.15c48.62-20.81,96-35.07,120.69,22-21.29,51.1-94.82,75.28-180.35,134-59.12,40.57-115.82,72.39-131.59,74.54-14.89-10.67-23.25-22.51-28.79-36.78Z"/>
        <path d="M420.64,2750.72c54.9,5.66,100.23,12.8,89.21,77.55-90.13,25.69-189.13,3.58-267.63,8-37.53,2.1-104,2.26-115.82-2.85-5.48-6.79-6.49-30.91-3.58-46.62Z"/>
    </g>
    <g class="bennettShoe">
        <path d="M297.23,2577.7c-2.53,37.08-5.46,70.57,16.63,92.72,34,34.12,67.58,70.38,106.78,80.3-9.82,17.06-13.87,34.43-9.46,52.26-80.21,2.67-138.79-6.71-193.29-3.15-41.46,2.7-88.77-3.61-95.07-13.07-.45-56.32,40.6-122.1,48.26-191Z"/>
        <path d="M1144.25,2213.19c22.37,33.5,48,60.12,83.36,64,32.84,3.59,74.24,6,132.82-17,3.06,22.53,12.49,41.22,28,57.12-26.06,22.72-87.69,48.58-128.86,79.75-39.23,29.7-104.34,58.63-119.21,56.83-31.28-41.51-41.64-97.38-74.54-129.82Z"/>
    </g>
    <g class="shoelace">
        <path d="M313.86,2670.42A66,66,0,0,1,303,2656a106.06,106.06,0,0,0-14.25,9.82c23.39,34.29,49.77,62.25,80.46,81.09a81.63,81.63,0,0,1,13.22-14.28C358.6,2716.41,336.33,2693,313.86,2670.42Z"/>
        <path d="M1311.45,2292.74a110.47,110.47,0,0,1-.58-17.86c-33.74,6.66-60.55,4.77-83.26,2.29a79.84,79.84,0,0,1-27.89-8.41,74,74,0,0,0-4.39,18C1221.45,2299.1,1275.8,2299.45,1311.45,2292.74Z"/>
    </g>
    <circle class="converseLogo" cx="1181.31" cy="2367.42" r="37.33"/>
    <path class="bennettJeans" d="M534.71,1422C751.44,1645.6,798.24,1741.35,841,1764.53c24.61,13.33,18.94,35.19,35.66,45.48,18.66,11.46,29.44,48.14,35.67,62.41,79.35,107,136.28,203.08,197.93,290.66,17.48,24.83,50,36.06,47,68.18-12.64-16.76-31.35.12-16.87,24.12-26.07,23.94-51,68.72-49,104.67-23.41,2.39-47.81-5.55-62.07-6.44-14.27,5.35-30.19-15.44-26.55-33.83,2.57-13-48-4.5-59.72-63.46-6.41-32.37-121.47-116.69-222.22-297.68-32.76,1.79-19.19-20.92-28.7-21.89-33-3.36-21.91-24.75-33.83-36.61-47.11-46.89-119.43-87.76-207.36-148.64-26.38,148.86-51.14,258.1-50.46,295.3.4,22.38.45,37-23.68,39.91,41.26,27.73-8.63,46.07-17.59,139.34-14.88,154.9-36.49,187.72-38.55,263.8-.8,29.57-14.25,30.69-5.76,56.82,5.74,17.68-1.8,29.95-13.42,39.91,10.41,9.47,4.64,30.8-8.58,37.26-.91-35.84-21.07-26.54-16.51,7.87-44.67,2.13-89.91,36.57-126.48,53.78-48-21.8-15.47-46.15-24.26-57.65-25.71-23.68,2.7-52.76,6.76-77.79,8-66.13,3.49-145.31,4.74-230.66,1.35-92.66,13.43-145.18,24.35-193.45,1.14-5-6.14-28.16,13.52-42.61-37.2-26.38,14.89-16.91-12.88-476.22-27-19.59-3.41-45.18-12.14-54.09-14-14.29-5.51-40.53-7.44-48-17.59-68.32,8.71-148.63,54.05-211.72Z"/>
    <path class="bennettJacket" d="M732,681.67c34.09,125.45-1.14,252.29-25.42,369.49-16.6,80.13-22.37,136.64-50.65,225.42-15.11,47.42-21.66,94.7-26.11,131.69,2.95,18-110-15.15-180.84-40-76.19-26.75-244.8-97.17-239.23-109.86,25.32-78.45,15.52-76.19-2.27-43.14-15.78,30.18-92.15-10.83-76.07-43.14,57-66,83.62-184.23,118.07-218,15.26-14.95,22.6-58.9,42-62.45-10-42.78,26.86-31.56,40.87-52.22,36.78-54.2,118.88-147.4,194.14-232.74C610,592.45,679.9,613.79,732,681.67Z"/>
    <path class="bennettHoodieInner" d="M558,540.42c-1.31-3.93,33.33-33.09,45.25-27.47,46.66,22,78.92,65.21,106,96.88,28.1,32.85,45.84,53.7,29.13,99.2C727,657,649.77,599.31,558,540.42Z"/>
    <path class="teeth" d="M923.17,574.52c-23.72-9.18-38.7,11.28-7.58,13.8C919,585.4,921.4,579.28,923.17,574.52Z"/>
    <g class="eye">
        <circle class="sclera" cx="957.17" cy="422.29" r="37.77"/>
        <path class="irisDarkBrown" d="M967,452.38c2.38.76,11.17-7,15-18.83s1.16-23.25-1.22-24A127.76,127.76,0,0,0,967,452.38Z"/>
        <path class="pupil" d="M976.41,441c1.9.61,4.05-2.82,5.53-7.42s1.72-8.63-.18-9.25A68.3,68.3,0,0,0,976.41,441Z"/>
    </g>
    <g class="skinEastAsian">
        <g>
            <path d="M579.56,369a15.82,15.82,0,0,0-6.35-3.65Z"/>
            <path d="M579.56,369c22.33,19.47,46.91,106.53,28.16,146.21,44.24,22.6,75.28,64,101.5,94.65,15.45,18.07,27.76,32.51,32.94,49.41,19.73-54.71,98.46-124.59,151.68-106.34Z"/>
        </g>
        <path d="M163,1328.89c-23.57,17.45-48.3,28.11-62.65,36.25-13,7.39-36.84,1.58-55.21-2.77-16.11-3.82-25-17.45-42.9-29.7-4.24-5.19,3.77-10.38,9.43-9.9-2.83-7.08,3.54-16.17,12.73-19.8-3.3-13.2,8.45-21.48,18.86-20.75,1.88-19.32,22-31.42,29.7-45.72,34.28-63.44,55.15-52.8,64.11-62.23,36.77-31.12,85.33.47,66,40.54C176.62,1270.44,180.32,1316,163,1328.89Zm-66.43-22.44c2-8.6,11.9-22.81,17.52-29.75-2.47-7.06-1.39-17.6,1.65-30.07-18.18,18.5-26.44,51.89-53.21,54.53C69.75,1318.35,75,1307.44,96.52,1306.45Z"/>
        <path d="M211.16,1048.86c5.14,40.88,12.78,76.17,61.89,79.44-.86,36.15-25.78,69.72-65.57,87,6.46-16.11,11.17-29.64,16.46-39-12.89-12.4-15.29-48.24-8.82-78.76-12.44,1.64-23.85-.67-34.66-5.32-10.37,23.16-23.39,45.1-38.28,66.44-7.32-6.68-5.46-21.28,4.11-27.07-4.77-7.58-.87-16.9,6.47-21.18-5.58-1.5-10.49-7.54-10.87-13.58C172.47,1077.88,147.93,1053.34,211.16,1048.86Z"/>
        <path d="M714.87,458.15c-27.76,10.3-34.32-5.89-44.14-25.28C462.74,262.75,912.9,1.7,1041.62,240.15c-35,66.18-.54,134.3-39,182.74-20.09,25.31,3.68,88.35,4.51,109.83,1.35,34.82-38.32,12.67-45.15,14.61-6.36,6.92-8.8,18.14-5.06,28-3.63,7.75-14,12.62-16.38,10.24-12.79-11.68-35-11-38.58-5,21.13,5,47.2,25.53,30.57,39.59-42,1-15,56.92-74.39,46.69-15.56-2.68-33.2-20.44-65.54-46.33-32.08-25.68-62.62-57.65-75.9-93.65m267.1-107.62c-16.07.1-26,1.63-37.12,4.69,10.41,6.45,20.54,14.44,30.3,19.67C982.3,437.67,984.9,426,983.83,419.21Z"/>
    </g>
    <g class="skinOverlapLine">
        <path d="M146.1,1311.85c-10.79,15.61-22.69,28.67-36.77,36.77-9.19,4.42-43.39,4.05-54.42,0-15.08-4.41-26.48-15.81-43.29-25.85"/>
        <path d="M24.35,1303c14.75-4,29.09,4.84,38.28,12.19,4.2-1.54,8.24-3.09,12.16-4.64"/>
        <path d="M43.21,1282.22c-.41,11.08,8.69,18.66,19.27,18.94"/>
        <path d="M146.29,1131.51c2,3.74,4.28,5.25,10,5.68"/>
        <path d="M152.76,1110.33c5.36,1.14,12.16,2.28,18.9,0"/>
    </g>
    <g class="skinFoldLine">
        <path d="M723.27,365.58c-5.49-72-92.57-28.18-56.39,33.19"/>
        <path d="M710.07,382.09c-21.69,7.9,5.82,33.41-6.86,36.09-7.38,1.57-4.32-12.39-20.45-27.51-17.17-16.11,12.86-42.24,21.42-26"/>
    </g>
    <g class="bennettHoodie">
        <path d="M449,1368.27c-76.19-26.75-244.8-97.17-239.23-109.86-9.48,8.11-11.59,27.76-20.63,39.06-6,16,123.53,72.3,238,103.94,68.33,18.88,117,39.22,125.79,33.14,5.34-3.7,2-14.5,9.27-31.44C526.34,1393.93,482.84,1380.15,449,1368.27Z"/>
        <path d="M738.35,709c2.13-14.14,8.93-36.53-17.46-60.84-21.75-20-41.21-44-64.77-61-35-25.29-76.37-41.48-113-70-28-21.85-47.53-12.34-71.55,36.15-41.26,7.72-40.4,36.87-45.2,66.29-3.25,19.94-22.55,34-7.53,64.77,6.78,10.55,4.34,26.49,18.17,24.69,78.24-100.76,176.16-119.59,245.72-57.64C701.27,667.9,728.43,682.08,738.35,709Z"/>
    </g>
    <g class="clothesDisplayLine">
        <path d="M475.92,1418.18c-21.47,12.41-49.6,18.26-89.94,12.1"/>
        <path d="M411.18,2803c36.37-1.15,69.29-5.52,96.27-15.46"/>
        <path d="M1463.15,2255.38c-11.92,17.64-44.7,44.37-74.69,61.89"/>
    </g>
    <g class="clothesOverlapLine">
        <path d="M273.05,1128.3c23.76,4.26,32.2-5.47,65.94-36,14.21-12.84,30.49-18.17,44.1-41.17,19.56-3.51,26.72-17.41,30.63-34,33.63-2.65,42.06-32.5,59.58-57.8,30.52-44.09,91.49-97.33,161.64-177"/>
        <path d="M486.32,697.22c-38.33,38.24-74.55,96.26-81.8,96.64-24.66,1.29-43.47,68.13-69.43,81.1-13.35,2.27-29.84,32.45-31.14,46.72-22.71,9.74-20,22.79-34.39,38.93-60,67.53-62.29,68.13-58.4,88.25"/>
        <path d="M574.27,1152.32c-40.2,50-93.44,102.13-130.38,120.6"/>
        <path d="M547.17,1434.92c1.31,25.59-9.32,32.61-8.56,50.75,3,37-21.16,36.28-22.67,54.42,1.51,38.54-28,46.1-29.48,65-14.72,41.44-25.65,98.76-35.55,146.41"/>
        <path d="M276.36,2631.71c3.74,10.29,4.71,24.44,12.37,34.09"/>
        <path d="M313.86,2670.42c-4.59,4.2-9.12,8.07-13.55,11.49"/>
        <path d="M328.83,2685.49c-5.58,4.68-10.71,9.14-15,13.19"/>
        <path d="M342.18,2698.68a139,139,0,0,0-16,13.45"/>
        <path d="M354.42,2710.16c-5.43,4.59-10.55,9.33-15.41,14.17"/>
        <path d="M369.05,2722.69a55.27,55.27,0,0,0-14.63,14.19"/>
        <path d="M1216.57,2275.16a82.76,82.76,0,0,0-4.08,17.25"/>
        <path d="M1234.55,2277.89a90,90,0,0,0-2.41,17.73"/>
        <path d="M1256,2279.32a87.83,87.83,0,0,0-2.57,17.77"/>
        <path d="M1273.64,2279.27a93,93,0,0,0-2,17.63"/>
        <path d="M1291.66,2277.89c-.53,5.83-.76,11.74-.74,17.73"/>
        <path d="M1140.39,2255.38c10.33-.53,31.8,19.78,54.94,31.36"/>
    </g>
    <g class="clothesFoldLine">
        <path d="M471.58,553.28c27.75,33.33,94.74,18.93,156.72,43.34"/>
        <path d="M430.52,593.5c-1.93,20,34.38,38.18,7.86,60.09"/>
        <path d="M565.69,635.44c-49.46,23.16-68.86,54.46-79.37,61.78C492,679.93,504.73,664,520,648.58"/>
        <path d="M662.1,734.35c1.67,16.9-9.09,32.74-27.16,47.95,28.41-6.63,47.28-38.55,50.33-74.24"/>
        <path d="M564.44,776.92c-58.35,33.29-112.41,52.71-154,31.93"/>
        <path d="M508.1,841.41c-26.39,5.64-50.85,14.59-72.63,28.17"/>
        <path d="M335.93,893.37a93.42,93.42,0,0,0-12.52,50.71"/>
        <path d="M304,921.68c-5.58,16.76-1.9,31.56-11.21,29.29"/>
        <path d="M274.58,993.54c-13.57,12.52-26.76,21.49-38.81,20"/>
        <path d="M322.16,1037.36c-9.38,18.73-13.55,38.47-8.14,60.1"/>
        <path d="M383.09,1051.16c-9-.65-15.85-5.86-21.49-11.92"/>
        <path d="M445.49,969.75q-27.24,26.91-58.22,28.79"/>
        <path d="M413.72,1017.12c-13-1.16-25.08-1.62-17.06,13.35"/>
        <path d="M291.49,891.7c5-1.35,9-5.06,11.89-11.48"/>
        <path d="M580.09,917.78c3.13,41.32,21.19,70,28.8,96.42"/>
        <path d="M566.32,964.74q10.27,68.34,41.94,118.32"/>
        <path d="M353.19,1081.43A306.87,306.87,0,0,0,391,1152.32"/>
        <path d="M342.82,1126.26q27.44,54.69,64.48,92"/>
        <path d="M473.66,1564.81c-27.15-1.86-58.2-7.56-87.68-10.83"/>
        <path d="M454,1603.35c-6.29,3.51-82.33,12.32-78.61,9.07"/>
        <path d="M823.81,1770.68c-16.37,25-45.77,52-80.84,63.93"/>
        <path d="M674,1879.15c33.76-12,45.71-10.44,15.11,17.39"/>
        <path d="M723.09,1918.45c33.26-48.37,100.72-100.16,106-91.84,4.18,6.56-43.27,63.88-84.84,93.36"/>
        <path d="M882,1838.7c-23.06,4.56-40.06,30.23-64.24,52.9"/>
        <path d="M720.8,1958.64c25-6.18,60-32.22,38.57,8.18"/>
        <path d="M280.64,2041c28.92,23.82,63.16,26.95,102,12.1"/>
        <path d="M267,2072.71c43.08,23.43-27.89,36.27-64.93-6.05"/>
        <path d="M175,2083.33c22.72,13.23,36.82,26,4.44,36.24"/>
        <path d="M376.77,2086.71c-62.12,2.62-93.11,14,1.37,21.52"/>
        <path d="M353.19,2141.48c-2.51-17.09-66.22-13.6-133.48,1.52"/>
        <path d="M187.74,2525.43c30.1,19,71.09,29,106.5,22.67"/>
        <path d="M132.38,2550.05c22.86,24.51,82.8,7.35,79.89,20.09-2.11,9.24-49.47,16.51-61.56,11.22"/>
        <path d="M306.45,2586.58c-13,8.38-58.78-5.22-73.14,12.16"/>
        <path d="M125.62,2627.84c26.79,7.77,113-34.39,84.26-3.4"/>
        <path d="M1102.7,2191.66c-34.79,39-81.11,76.05-128.68,69.93"/>
        <path d="M1126.9,2179.56c13.54,15-6.45,43.74-44.82,74"/>
        <path d="M1029.29,2353.61c24.84-8.89,55-86.12,65.63-80.62,5.71,3,.48,14.19-24.18,37.79"/>
        <path d="M987.57,2309.35c45.4-9.22,52.2-42.47,61.27-27.67,5.24,14-13.6,17-41.57,27.52"/>
    </g>
    <g class="head50__edited">
        <g class="lipMaleMedium__noStroke">
            <path d="M902,580.53c10.83,18.17,7.63,33.1,30.57,39.59C949.19,606.06,923.12,585.56,902,580.53Z"/>
            <path d="M940.57,585.53C943,587.91,953.32,583,957,575.29h0c-18.1,5.08-46.24-6.64-55,5.24C905.58,574.57,927.78,573.85,940.57,585.53Z"/>
        </g>
        <path class="lipEdgeLine" d="M917.58,611.22c3.07,4.22,9.06,7.84,15,8.9"/>
        <path class="cheekLine" d="M896.64,592c10.7-26.8,21.84-29.53,31.34-43.57"/>
        <path class="noseLine" d="M980.26,545.83c-14.25-5.66-27.48,1.78-32.73-2.88-6.5-5.77-4.78-17.05,4.43-21.71"/>
        <g class="eyeLidLine">
            <path d="M983.83,419.21c14,.83,7.67-14.89,7.67-14.89"/>
            <path d="M977,443.57c5.18,2.71,3.73,10.66-5.66,13.7"/>
        </g>
        <path class="eyeCornerLine" d="M946.71,423.9a36.84,36.84,0,0,1-11.1,1.38"/>
        <path class="eyeCreaseLine" d="M956.61,413.1c13.09-4.74,22.93-3.55,36.09-3.05"/>
        <path class="eyebrowBlack" d="M1012.56,381.65c-27.57,24.09-40.66-6.32-77.07,4.51C965.16,360.73,979.59,383.84,1012.56,381.65Z"/>
        <path class="hairBlack" d="M1017.13,235.82c-22.65,81.19-1.46,108.83,42.27,138.58-13.78-27.31,32.33-89-10.25-144.7,9.1,4.63,16.31,15.14,29.55,21.78C1052,211.16,1066.55,157.41,955,88.82c-46.74-28.74-133.75-50.5-205.74-45.66,5.66-22.8,33.48-36.08,59.41-41.35-35.89-5.26-69.32,15.76-85,44C706.58,9.84,680.3,10,657.86,24.71,681.51,20,701.57,31.11,703,53.86c-114.72,33.49-216.81,253-105,388.62,22.13,1.65,50.27-1.09,72.73-9.61-20.27-33.37-40.3-61.35-12.83-102.64,21.06-31.66,91.9-22.42,79.71,26.36,17.39,8.19,42.32,14.85,60.34,18.32,12.81-37.8,5.87-28.28,49.89-53.18,36.9,6,97.44,31.73,123.65-46.94-3,13.71-3.72,28.41-4.51,38.52C975.59,294.78,1003.21,281.36,1017.13,235.82Z"/>
        <path class="hairOverlapLine" d="M847.84,321.73c-10.62-2.8-29.52-4.74-39.54-4.66C824.17,311.87,833,308.88,842,305"/>
    </g>
</svg>
