<svg id="presence" xmlns="http://www.w3.org/2000/svg" viewBox="0 0 1364.24 2362.05">
  <defs>
    <style>
      .cls-1 {
        fill: none;
        stroke: #000;
        stroke-miterlimit: 10;
        stroke-width: 2px;
      }
    </style>
  </defs>
  <title>alley</title>
  <g id="bennettSoleSide">
    <path class="cls-1" d="M1242.45,1780.27c48.63-20.8,96-35.07,120.7,22-21.29,51.09-94.83,75.27-180.35,134-59.12,40.56-115.82,72.38-131.6,74.53-14.88-10.66-23.24-22.51-28.78-36.78Z"/>
    <path class="cls-1" d="M302.67,2270.84c54.89,5.67,100.23,12.81,89.2,77.55-90.12,25.7-189.12,3.58-267.62,8-37.53,2.09-104,2.26-115.82-2.86-5.48-6.78-6.49-30.91-3.59-46.62Z"/>
  </g>
  <g id="bennettShoe">
    <path class="cls-1" d="M174.26,2097.82c-2.53,37.08-.46,70.58,21.62,92.72,34,34.12,67.59,70.39,106.79,80.3-9.82,17.06-13.87,34.43-9.46,52.27-80.22,2.67-138.79-6.71-193.3-3.16-41.45,2.7-88.76-3.6-95.07-13.07-.45-56.32,44.61-122.1,52.27-191Z"/>
    <path class="cls-1" d="M1026.28,1733.31c22.37,33.5,48,60.12,83.35,64,32.85,3.59,74.25,6,132.82-17,3.06,22.54,12.5,41.22,28,57.12-26.06,22.72-87.69,48.58-128.87,79.75-39.22,29.7-104.33,58.63-119.2,56.83-31.29-41.51-41.65-97.38-74.54-129.82Z"/>
  </g>
  <g id="bennettShoelace">
    <path class="cls-1" d="M195.88,2190.54A66,66,0,0,1,185,2176.1a105.42,105.42,0,0,0-14.25,9.82c23.39,34.29,49.77,62.25,80.46,81.1a81.63,81.63,0,0,1,13.22-14.29C240.62,2236.53,218.36,2213.07,195.88,2190.54Z"/>
    <path class="cls-1" d="M1193.48,1812.86a110.45,110.45,0,0,1-.59-17.86c-33.74,6.67-60.54,4.77-83.26,2.29a79.85,79.85,0,0,1-27.88-8.41,74.07,74.07,0,0,0-4.4,18C1103.47,1819.22,1157.83,1819.57,1193.48,1812.86Z"/>
  </g>
  <circle id="converseLogo" class="cls-1" cx="1063.34" cy="1887.54" r="37.33"/>
  <g id="clothesOverlapLine">
    <path class="cls-1" d="M158.39,2151.84c3.74,10.28,4.71,24.43,12.37,34.08"/>
    <path class="cls-1" d="M195.88,2190.54c-4.59,4.2-9.11,8.07-13.54,11.5"/>
    <path class="cls-1" d="M210.86,2205.61c-5.59,4.68-10.72,9.14-15,13.19"/>
    <path class="cls-1" d="M224.21,2218.8a138,138,0,0,0-16,13.46"/>
    <path class="cls-1" d="M236.44,2230.28c-5.42,4.59-10.54,9.34-15.41,14.18"/>
    <path class="cls-1" d="M251.08,2242.81A55.46,55.46,0,0,0,236.44,2257"/>
    <path class="cls-1" d="M1098.59,1795.29a81.89,81.89,0,0,0-4.07,17.24"/>
    <path class="cls-1" d="M1116.57,1798a91,91,0,0,0-2.41,17.74"/>
    <path class="cls-1" d="M1138,1799.44a87.13,87.13,0,0,0-2.56,17.77"/>
    <path class="cls-1" d="M1155.67,1799.4a92.78,92.78,0,0,0-2,17.62"/>
    <path class="cls-1" d="M1173.68,1798q-.78,8.74-.74,17.74"/>
    <path class="cls-1" d="M1022.42,1775.5c10.32-.52,31.79,19.79,54.93,31.36"/>
  </g>
  <g id="clothesDisplayLine">
    <path class="cls-1" d="M293.21,2323.11c36.36-1.15,69.28-5.53,96.27-15.47"/>
    <path class="cls-1" d="M1345.17,1775.5c-11.91,17.65-44.69,44.37-74.68,61.89"/>
  </g>
  <path id="bennettJeans" class="cls-1" d="M416.73,942.12c216.74,223.61,259.53,324.36,302.33,347.54,24.6,13.32,18.93,35.19,35.66,45.47,18.66,11.47,29.44,48.15,35.67,62.41,79.35,107,136.28,203.08,197.93,290.66,17.48,24.83,54,31.06,51,63.18-12.65-16.75-31.36.12-16.87,24.12-26.08,23.94-51,68.73-49,104.68-23.41,2.38-44.81-14.56-59.07-15.45-14.27,5.35-30.19-15.44-26.55-33.82,2.57-13-48-4.51-59.72-63.47-6.41-32.37-121.47-116.69-222.22-297.68-32.77,1.79-19.19-20.91-28.71-21.88-33-3.37-21.9-24.76-33.82-36.62-47.11-46.88-122.43-81.76-210.36-142.63-26.38,148.85-56.14,261.09-55.47,298.29.41,22.38.46,37-23.67,39.91,41.26,27.73-8.63,46.07-17.59,139.34-14.88,154.9-36.5,187.72-38.55,263.8-.8,29.58-14.25,30.7-5.77,56.82,5.75,17.68,3.21,29.95-8.41,39.91,10.4,9.47,4.64,30.8-8.58,37.27-.92-35.91-21.15-27.13-16.51,7.87-44.68,2.12-89.91,36.56-126.48,53.77-48-21.8-11.47-46.15-20.27-57.65-25.7-23.67,2.71-52.76,6.77-77.79,8-66.12,3.49-145.3,4.73-230.65,1.36-92.67,13.44-145.19,24.35-193.46,1.14-5-6.13-28.15,13.53-42.61-37.2-26.38,14.88-16.91-12.88-476.22-27-19.59-3.42-45.18-12.15-54.09-14-14.29-5.51-40.53-7.44-48C11,956.8,33.27,876.49,78.61,813.4Z"/>
  <g id="clothesDisplayLine-2" data-name="clothesDisplayLine">
    <path class="cls-1" d="M358,938.31c-21.48,12.4-49.6,18.26-89.94,12.09"/>
  </g>
  <g id="clothesOverlapLine-2" data-name="clothesOverlapLine">
    <path class="cls-1" d="M429.2,955c1.31,25.59-15.32,28.61-14.56,46.75,3,37-21.17,36.28-22.68,54.42,1.51,38.55-28,46.1-29.47,65-14.72,41.44-19.65,99.77-29.55,147.42"/>
  </g>
  <g id="clothesFoldLine">
    <path class="cls-1" d="M355.68,1084.93c-27.14-1.85-58.19-7.56-87.67-10.82"/>
    <path class="cls-1" d="M336,1123.48c-6.29,3.5-82.32,12.31-78.6,9.07"/>
    <path class="cls-1" d="M701.84,1295.8c-16.38,25-42.77,43-77.85,54.93"/>
    <path class="cls-1" d="M559,1390.27c33.76-12,45.72-10.43,15.12,17.39"/>
    <path class="cls-1" d="M608.12,1429.58c33.26-48.37,93.72-86.16,99-77.85,4.18,6.56-36.28,49.88-77.85,79.36"/>
    <path class="cls-1" d="M760,1363.82c-23.07,4.57-40.06,30.23-64.25,52.91"/>
    <path class="cls-1" d="M605.83,1469.76c25-6.17,59.95-32.22,38.57,8.19"/>
    <path class="cls-1" d="M157.66,1561.09c28.93,23.81,63.17,26.94,102,12.09"/>
    <path class="cls-1" d="M144.06,1592.83c43.08,23.43-18.9,36.28-55.93-6"/>
    <path class="cls-1" d="M61,1603.45c22.71,13.23,36.82,26,4.44,36.24"/>
    <path class="cls-1" d="M253.8,1606.83c-62.12,2.63-93.11,14,1.36,21.52"/>
    <path class="cls-1" d="M230.22,1661.61c-2.51-17.1-61.22-13.61-128.49,1.51"/>
    <path class="cls-1" d="M73.77,2045.55c30.1,19,62.09,29,97.5,22.68"/>
    <path class="cls-1" d="M18.41,2070.17c22.86,24.51,78.79,7.35,75.88,20.1-2.11,9.23-45.46,16.5-57.55,11.21"/>
    <path class="cls-1" d="M183.48,2106.7c-13,8.39-53.78-5.22-68.14,12.17"/>
    <path class="cls-1" d="M11.64,2148c26.8,7.77,109-34.38,80.27-3.4"/>
    <path class="cls-1" d="M980.73,1716.78c-34.8,39-74.11,62.06-121.68,55.93"/>
    <path class="cls-1" d="M1004.92,1704.68c13.54,15-2.44,38.75-40.82,69"/>
    <path class="cls-1" d="M914.32,1864.73c24.84-8.88,52-77.12,62.63-71.61,5.71,3,.47,14.18-24.18,37.79"/>
    <path class="cls-1" d="M872.59,1820.47c45.41-9.21,52.21-42.47,61.28-27.67,5.24,14-13.61,17-41.57,27.53"/>
  </g>
  <path id="bennettJacket" class="cls-1" d="M614,201.79c34.09,125.45-1.13,252.29-25.41,369.5C572,651.41,566.24,707.92,538,796.7c-15.11,47.42-21.66,94.7-26.12,131.7,2.95,18-110-15.15-180.83-40-76.19-26.75-244.8-97.16-239.23-109.85,25.31-78.45,15.52-76.19-2.28-43.15-9.31,15.16-85.39-28.53-76.06-43.14,57-66,83.61-184.23,118.07-218,15.26-14.94,22.59-58.9,42-62.44-10-42.79,26.85-31.57,40.87-52.23,36.78-54.2,118.88-147.4,194.14-232.74C492,112.57,561.93,133.92,614,201.79Z"/>
  <path id="bennettHoodieInner" class="cls-1" d="M440,60.54c-1.31-3.93,33.34-33.09,45.26-27.47,46.66,22,78.92,65.21,106,96.88,28.11,32.85,45.84,53.7,29.14,99.2C609,177.09,531.8,119.44,440,60.54Z"/>
  <g id="skinEastAsian">
    <polyline class="cls-1" points="521.76 0.51 491.53 50.9 602.92 168.31 657.8 97.5"/>
  </g>
  <g id="bennettHoodie">
    <path class="cls-1" d="M331,888.39c-76.19-26.75-244.8-97.16-239.23-109.85-9.49,8.1-11.59,27.75-20.63,39.05-6,16,123.53,72.31,238,103.94,68.33,18.88,117,39.23,125.79,33.14,5.35-3.7,2-14.49,9.27-31.44C408.36,914.05,364.87,900.28,331,888.39Z"/>
    <path class="cls-1" d="M620.38,229.15c2.12-14.14,8.93-36.53-17.46-60.84-21.75-20-41.21-44-64.78-61-35-25.29-76.36-41.48-113-70-28-21.85-47.54-12.33-71.56,36.16-41.26,7.71-40.39,36.87-45.19,66.28-3.25,19.94-22.55,34-7.53,64.78C307.66,215,305.22,231,319,229.15c78.25-100.76,176.17-119.59,245.72-57.63C583.3,188,610.45,202.21,620.38,229.15Z"/>
  </g>
  <g id="clothesOverlapLine-3" data-name="clothesOverlapLine">
    <path class="cls-1" d="M155.08,648.42c23.76,4.26,32.19-5.47,65.93-36,14.21-12.85,30.5-18.17,44.11-41.18,19.55-3.51,26.71-17.41,30.63-34,33.62-2.66,42.06-32.51,59.58-57.81,30.52-44.09,91.49-97.33,161.63-177"/>
    <path class="cls-1" d="M368.35,217.34C330,255.58,293.79,313.6,286.55,314c-24.66,1.3-43.48,68.13-69.43,81.11-13.35,2.26-29.85,32.44-31.15,46.72-22.71,9.73-20,22.78-34.38,38.93-60,67.52-62.3,68.13-58.4,88.24"/>
    <path class="cls-1" d="M456.3,672.44c-40.21,50-93.44,102.13-130.39,120.6"/>
  </g>
  <g id="clothesFoldLine-2" data-name="clothesFoldLine">
    <path class="cls-1" d="M353.6,73.41c27.76,33.32,94.74,18.92,156.72,43.34"/>
    <path class="cls-1" d="M312.55,113.63c-1.94,20,34.37,38.17,7.85,60.09"/>
    <path class="cls-1" d="M447.72,155.56c-49.46,23.16-68.87,54.47-79.37,61.78,5.62-17.29,18.4-33.2,33.67-48.63"/>
    <path class="cls-1" d="M544.13,254.48c1.67,16.89-9.09,32.73-27.17,47.94,28.42-6.63,47.29-38.55,50.33-74.24"/>
    <path class="cls-1" d="M446.47,297.05c-58.36,33.28-112.41,52.7-154,31.93"/>
    <path class="cls-1" d="M390.12,361.53c-26.38,5.64-50.85,14.59-72.62,28.17"/>
    <path class="cls-1" d="M218,413.49a93.47,93.47,0,0,0-12.52,50.71"/>
    <path class="cls-1" d="M186,441.81c-5.57,16.76-1.89,31.55-11.21,29.28"/>
    <path class="cls-1" d="M156.61,513.66c-13.57,12.52-26.76,21.5-38.82,20"/>
    <path class="cls-1" d="M204.19,557.48c-9.38,18.73-13.55,38.48-8.14,60.1"/>
    <path class="cls-1" d="M265.12,571.28c-9-.65-15.85-5.86-21.49-11.92"/>
    <path class="cls-1" d="M327.52,489.87q-27.24,26.92-58.22,28.8"/>
    <path class="cls-1" d="M295.75,537.25c-13-1.17-25.08-1.63-17.06,13.35"/>
    <path class="cls-1" d="M173.52,411.83c5-1.35,9-5.06,11.88-11.49"/>
    <path class="cls-1" d="M462.12,437.91c3.13,41.32,21.19,70,28.8,96.41"/>
    <path class="cls-1" d="M448.34,484.86q10.29,68.34,42,118.32"/>
    <path class="cls-1" d="M235.22,601.55a306.87,306.87,0,0,0,37.83,70.89"/>
    <path class="cls-1" d="M224.85,646.38q27.43,54.71,64.48,92"/>
  </g>
</svg>
