<svg viewBox="0 0 2768.06 939.11">
    <path class="bennettUndershirt" d="M1760.93,271.82c-.41-19.63,23.27-12.67,63.39-3.54,58,13.22,109.77,5.17,158.75,45.79,21.78,18.06,49.88,81.8,123,139.55L2169.77,645c15.36.55,22.66,8.47,24.12,21.73,16,2.78,17.21,14.7,23.55,22.87,6.66,8.59,18.39,12.65,15.46,27.4,12.13,20.88,32.16,24,28.22,51.92-7.47,52.87-90.56,100.47-116.1,106.9-48.87,12.31-101.73-43.68-140.2-38.78-16.7,10-44.1,11.12-47.26,3-115.68-1.41-216.79,30.11-304.61,25.51C1581.88,656.07,1511,411.82,1760.93,271.82Z"/>
    <path class="bennettUndershirtInner" d="M2093.73,847q3.72,14.76,17,28a75.16,75.16,0,0,0,26.93,2.15C2119.65,867.46,2104.44,858.38,2093.73,847Z"/>
    <path class="clothesOverlapLine" d="M1765.69,372.93c16.36-4,37.45-4.09,50.56-14.89"/>
    <g class="clothesFoldLine">
        <path d="M1705.75,384.58c-.26,7.14,5.5,17.29,5.5,17.29"/>
        <path d="M1721.77,389c5.3,16.71,13.41,32.51,26.4,46.71"/>
        <path d="M1736.93,377.69c2.43,11.3,7.85,17.75,15,26.89"/>
        <path d="M1756.63,384.62c13.84,23.34,29.79,44.09,48.39,61.59"/>
        <path d="M1859.85,320.65c-18,10.51-35.1,21.56-43.6,37.39,21.09,13.48,40.73,38.85,59.84,68.54"/>
        <path d="M1904.52,326.07c-30.6,5.78-57,15.06-75.47,30.79,24.38-7.9,56.9-7.06,92.39-3"/>
        <path d="M1891.66,375.14c-21.17-6.61-41-10.89-58.21-10.83"/>
        <path d="M1832.77,391.72c15.5,14.37,33.17,45.69,51.78,72.09"/>
        <path d="M1930.24,496c6.09,14.21,41,53.13,58.55,67.34"/>
        <path d="M2061.58,620.3c-54.86-24.17-100.44-68.45-141.15-89.15"/>
        <path d="M2193.89,666.69c-21.84-6-52-9-73.69-23.38"/>
        <path d="M2217.44,689.56c-53.72-15.32-142.5,15.36-148.43-7.52-3.64-14,27.58-27.58,59.85-10.41"/>
        <path d="M2232.9,717c-76.46-56.77-155.15,43.51-144.11,49.38,7,3.73,39.55-36.94,76.49-42.67"/>
        <path d="M2081,735.12c-23.41,26-107.72,72.85-138.94,76"/>
        <path d="M1957.56,840c14.71-1.41,36.14-13.58,58.9-27.86"/>
        <path d="M2004.82,837c12.89-7.39,27.31-20.45,42.34-35.79"/>
        <path d="M2083.06,786.12c-7.46,18.71-31.74,38-36.42,53.08"/>
        <path d="M2058.86,840.64c9-5.09,12.62,3.61,7.78,11.3"/>
    </g>
    <path class="blanket" d="M1494,335.56,1629.5,567.89c16.85,56.55,18.37,121.23-5.8,178.92,22,21.11,46.43,49.57,56.72,68.06l-13.14,53.73c15.27,8.71,31.71,11,49,9-35.91,29.63-76.84,0-121.8,2.39-93.36,39.94-156.17,16.65-205.38,4.18-24.58,12-50.62,16.12-77,8.36-34-10-57.27,16.11-97.92-11.35-143.54,38.05-189.41-22.64-260.9-17.31C861,913.54,782.39,877.83,708.56,891c-63.51,11.29-124.91,8.47-200.72-16.39-97.09,34-260.11,34.74-352.84-2.38-52,13.64-101.72,16-147.47-.6,27.1,2.38,50.1.55,63.28-11.34L63.54,809.8c31.05-41.64,42.12-47,50.11-105.15,4.94-36,36-27.09,57.86-83.27,49.2-126.26,144-48,201.84-43.76,110.8-31,167.37-144.79,311.34-74.92,88.8-102.92,150.35-62.23,210.89-82.45,51.65-17.25,76.92-44.46,165.84,9.17,62.81-69.86,142.35-106.72,215.95-91C1371.93,268.52,1414.28,376.49,1494,335.56Z"/>
    <g class="blanketInner">
        <path d="M1667.83,890.23c-12.79-27.54,34.66-57.34,12.59-75.36-16.92-13.81-25.43,33.86-86,65.08C1620.3,878.57,1644.83,887.79,1667.83,890.23Z"/>
        <path d="M60.51,882.66c30.32,2.17,61.94-1.94,94.49-10.47-48.42-18.36-60.09-81-91.46-62.39C40,823.78,91.22,866.42,60.51,882.66Z"/>
    </g>
    <g class="blanketFoldLine">
        <path d="M1277.37,338.38c145.73,28,109.1,251.58-3.75,351.57-76.43,67.71-108.24,130.57-59.49,191.19"/>
        <path d="M1587.54,535.69c31.77,86.59-29.29,157.94,36.16,211.12"/>
        <path d="M1532.18,465.17c-32.25,130.35-136.53,168.09-18.52,332.06"/>
        <path d="M953.23,863.83c50.92-28.35,108.63-34.92,173.49-18.58"/>
        <path d="M1061.42,429.42c-49.27,49.47-86.32,114.65-160.42,175"/>
        <path d="M903.75,578.37c-55.57,58.32-24,101.54,60.37,116"/>
        <path d="M1389.06,884.13c-49-11.44-90.14-40.94-132-23.1"/>
        <path d="M919.53,734.11c-63.17-24-120.39-24.86-170.14,3.43"/>
        <path d="M969.1,538.13c-88.68-14-129.15,82.78-221.77,130.8"/>
        <path d="M684.69,502.7c-31.35,34.51-65.66,121-167.19,169"/>
        <path d="M373.35,577.62c75.61,7,149.18-7.49,221-40.41"/>
        <path d="M182,754c89.88-50.08,123.49,9.61,168.77,14.41"/>
        <path d="M507.84,874.57c-48.66-17-98.74-36.18-148.82-27.26"/>
        <path d="M131.93,701.86c29.5,37,80-18.92,140.64-15.78,92.62,4.81,181.12,98.8,330,117.32"/>
    </g>
    <g class="eye">
        <circle class="sclera" cx="2239.81" cy="376.49" r="142.53"/>
        <g class="irisDarkBrown">
            <ellipse cx="2302.04" cy="416.12" rx="20.92" ry="22.5" transform="translate(621.28 2043.27) rotate(-54.32)"/>
            <ellipse cx="2168.61" cy="320.31" rx="20.92" ry="22.5" transform="translate(643.51 1894.96) rotate(-54.32)"/>
        </g>
        <g class="pupil">
            <ellipse cx="2300.06" cy="417.17" rx="8.14" ry="8.75" transform="translate(619.61 2042.1) rotate(-54.32)"/>
            <ellipse cx="2166.63" cy="321.35" rx="8.14" ry="8.75" transform="translate(641.84 1893.79) rotate(-54.32)"/>
        </g>
    </g>
    <g class="skinEastAsian">
        <path d="M2748,586c-33.41,40.9-88.71,47.81-140.44,86.19-142.67,117.72-226.16,262.33-355.69,265.93-22.76-1-52.22-28.2-89.22-47.84-29.27-15.52-54.11-27.18-69.45-43.79C2076,778,2193.33,695.36,2244.58,742.88c11.35,10.94,19.54,18.11,24.38,27.47,59.66-59.52,136.38-44,280.12-157.89,49.22-117.58,84-70.76,98.13-95-11.42-11.42-9.8-28.16,7.76-33.14-15.4-2.66-17-19.86-9.49-27.35,15-1.15,38.58-16.59,56.46-13.83,14.4,1.16,65.09,41.48,65.09,54.73C2767.68,516,2754.36,577.92,2748,586Z"/>
        <path d="M1848.54,657.52c17.58,42.88,46,68.37,67.7,108,7.84,12.19,6.89,30.16-11.91,31.7,8,22.2-10.7,32-28.59,16.84-1.89,14.64-20.89,25.14-39.78,4.36,1.89,5.66-6.14,20.78-19.84,10.86-22.19-20.78-60.45-35.89-78.4-60.92-59-54.79-36.83-103.91-54.62-125.09-89.12-107.24-216-208.44-194.1-330,6.18-34.32,43.3-37.41,78.55-46.07,43-10.57,120.83,4.53,193.38,4.61-.56,36.48.76,70.53,4.76,101.11-7.5,7.44-22.68-13.94-28.76,4.76-9.3,4.31-23.14-16.83-31.18,6.89-20.65-2.58-36.14,3-54.76-2.49,32,82.63,41.4,134.58,103.74,211.56,47.56-10.3,59.5,16.53,96.34,21.26,25.37,3.25,42.08,8.92,64.64,6.32,10,6.08,11.28,42.95-43.39,34.29C1863.31,654.41,1850.15,652.48,1848.54,657.52Z"/>
        <path d="M2076.1,449.71c-59.81-37.15-62.76,100.68-14.52,170.59,47.43,14.6,84.79,43.09,108.19,24.66,1.36-32,73.91-59.44,129-78.78"/>
        <path d="M2119.86,274c17.23-62.2,63.12-82,154.14-169.81,204.94-49.93,326.51,243.47,220.59,369.08,16.39,49.14-53.15,76.67-71.45,86.38-9.8,5.21-29.44,19.41-45.54-4.67-72.43,54.73-136,50.68-200.61,37.27-27.56-5.72-46.7-2.58-83.16-35.09-33-29.39-27.1-55-40.34-98.63C2026.74,370.37,2115.66,289.18,2119.86,274Zm159.23,124.78c7,3.86,12.74,15.52,21.37,21.93,12.88,9.58,24,12.21,38,13.42-6.69-13.78-31.6-43.77-62-40.89C2269.94,393.86,2276.4,397.29,2279.09,398.78Zm-75.45-58.56c-15.19-32.63-42.56-42.63-56.09-44.9,3.89,20.34,25.11,37,48.9,43.81C2199.43,340,2206.75,346.9,2203.64,340.22Z"/>
    </g>
    <g class="skinOverlapLine">
        <path d="M1834.93,640.07c7.06,4.76,10.89,11.19,13.61,17.45"/>
        <path d="M1839,716.74c-2.84,9.93,55.48,65.29,65.38,80.52"/>
        <path d="M1780.31,771.6c7.57,0,41.29,31,55.65,46.86"/>
        <path d="M1812.86,750.72c20.31,20.6,45.4,48.95,62.88,63.38"/>
        <path d="M2582.19,622c12.65-59.43,68.8-69.3,112.29-61.18,1-12,5.55-23.55,16.35-30-8.64,3.4-16.66-.61-17.27-9.25-8.95,18.51-33,20.67-39.18-.62,14.81-8.33,20.67-29.3,34.24-33.62,8.33-6.17,55.84,6.78,57.69,16.66,4.67,14.29.82,40.55-2.47,66"/>
        <path d="M2647.21,517.44c2.78,1.66,5.7,2.61,10.78,1.09"/>
        <path d="M2655,484.3c14-.69,26-23.85,43.84-19.73,11.79-.46,50.29,17,61,27.51,8.44,3.58-1.62,49.45-7.16,69.33"/>
    </g>
    <g class="skinFoldLine">
        <path d="M1612,324.27q26.37,18.87,39,57.82"/>
        <path d="M2269,770.35c-23.95,18.53-41.86,46.27-46.13,64.18"/>
        <path d="M2447,487.62c45.74-36.8,52.38,26.5-7,52.93"/>
        <path d="M2432.11,499.58c3.91,18.36-32,25.62-20.67,36.55,5.81,5.6,9.94-10.82,24.94-12.74,26.68-3.42,26.53-28.47,10.6-23.5"/>
    </g>
    <g class="head50">
        <path class="lipMaleMedium__noStroke" d="M2139.13,468.7c7.22,9.79,11.38,15.53,27.75,19,4.27,16,28.81,17.95,36.36,31.49-18.43-5.24-33.38,16.2-69.19-10-32.28-23.59-12.76-42.68-24.74-60C2119,454.16,2127.79,471.21,2139.13,468.7Z"/>
        <path class="lipBorderLine" d="M2207.05,522.07c-9.28-11-19.9-8.82-30-15.38-21.34-13.92-23.43-7.81-33.76-15.66-6.78-5.14-4.44-9.89-17.41-21.24-7.28-6.36-12.84-19.51-21.05-23.85"/>
        <g class="lipEdgeLine">
            <path d="M2166.88,487.7c-16.37-3.47-20.53-9.21-27.75-19"/>
            <path d="M2169.7,522.85c-18.37-2.61-50.91-14.94-54.45-41.4"/>
        </g>
        <g class="cheekLine">
            <path d="M2145.2,409.63c-6.41.4-9.69,3.81-15.6,5.22"/>
            <path d="M2226.7,453.19c5,12.55,4.29,33,4.29,33"/>
        </g>
        <path class="noseLine" d="M2159.63,401.45c-11.68,1.32-22.65,12.34-13.33,25.68,8,11.51,1.31,19.51,19,32.56,13.7,10.09,23.67,4.74,36.68,11.52,14.72,7.68,27.74-8.35,24.7-18"/>
        <g class="eyeFoldLine">
            <path d="M2140,318.49c7.83,17.81,26,32.28,45.94,33.93"/>
            <path d="M2273.77,416.78c4.53,12.62,22.84,29.7,40,29.17"/>
        </g>
        <g class="eyeCornerLine">
            <path d="M2147.55,295.32c-3.13-.46-7.1-1.09-9.31-2.38"/>
            <path d="M2345.13,441.26a22.14,22.14,0,0,1-6.67-7.13"/>
        </g>
        <path class="eyeCreaseLine" d="M2203,324.8c-9.17-31-37.26-37.53-47.84-37.16"/>
        <g class="eyebrowBlack">
            <path d="M2295.43,337.8c-3,39.25,62.9,42.64,76.71,81.72C2373,374.6,2328.07,373.26,2295.43,337.8Z"/>
            <path d="M2242.33,298.92c-34.48,13-55.39-43.78-95-44.91C2190.54,239.16,2197.59,280.86,2242.33,298.92Z"/>
        </g>
        <path class="hairBlack" d="M2353.3,345.49c.87,9.58,12,19.76,9,31.5-40.89-57.06-92.61-34.34-115.14-117.87-1.29,11.47-4.22,20.83-10.15,29.09,1.09-31.42-38.34-72.85,22.7-143.77-26.56,31.49-72.6,83.48-136.19,63.47,40.09-24.29,25.88-76.6,86.8-99.29-11.44-.55-22,.59-34.29-3.75,42-8,94.41-74.44,190.27-67.08,1.37-21.31-27.1-36.4-38-31.13,23.12-15.6,49.55,3.7,54,25.77,7-18.76,54.83-32.88,81-12.88-25.2-11.89-62.14,11.29-67.56,25.74,36.42,3.8,184.07,72.66,203.46,197.06,17.31,111-44.26,191.52-104.62,230.92-10.63-23.22-41.31-14.29-48.47-2.08-8.34.78-20.16-2.91-25.37-6.64,15.13-19.8,16.42-18.27,21.07-46.26C2412.54,389.23,2378,382,2353.3,345.49Z"/>
        <path class="hairOverlapLine" d="M2441.82,418.29c7.73,8.25,15.16,19.6,18.5,27.31,3.3-7.21,2.71-18.39.41-31.31"/>
    </g>
</svg>
