<svg viewBox="0 0 1389.22 2095.13">
    <g class="phone">
        <g class="phoneLight">
            <path d="M87.51,1922.49c25.65,2.11,59.55,8,81.63,14.66L313,1918a445.14,445.14,0,0,0-81-11.37C205.19,1905.58,127.77,1911.42,87.51,1922.49Z"/>
            <path d="M132.94,1960.48l-45.43-9.22-48.06,27.21A343.5,343.5,0,0,0,93.05,1989C105.74,1979.33,132.94,1960.49,132.94,1960.48Z"/>
            <path d="M654.07,309.7c-15.77-3.45-44.57,6.15-55.1,15-33.39,28.41-16,269.88,33.62,323.14l37.78-29c-29.7-41.75-46.12-139.15-46.13-209.23l13.32-6.24Z"/>
        </g>
        <g class="phoneDark">
            <path d="M398.82,1984.05c-29.24,18.1-257.48,57.5-307,53.19-2.07-15.86-1.38-32,1.2-48.29,23.37-17.72,48.83-35,76.09-51.8,43-10.09,91.68-16.59,143.89-19.2,26.37,4.54,74.07,20,83.17,32.24C401.38,1957.16,403.36,1975.68,398.82,1984.05Z"/>
            <path d="M87.51,1951.26v-28.77c-24.89,9.25-60.94,28-81.73,44.56a327.33,327.33,0,0,0,33.67,11.42Z"/>
            <path d="M737.57,654.77c-38-54.68-63.45-141.38-66.2-210.34l-47.13-34.82c0,70.08,16.43,167.48,46.13,209.23C681.31,631.69,719.7,651.13,737.57,654.77Z"/>
            <path d="M648.4,310.05c11.51-4.27,47.52,30.95,51.49,43.73,5,10.68-2.15,81.9-14.93,85.7-12.79,2.6-46-24-51.4-36.11C627.19,388.44,634.59,318.44,648.4,310.05Z"/>
        </g>
        <g class="phoneMedium">
            <path d="M91.85,2037.24c-2.08-15.13-1.4-31.33,1.2-48.29a336.47,336.47,0,0,1-87.27-21.9C1,1978.47-.71,1999.36,3,2010.34,15,2020.78,68.09,2034.94,91.85,2037.24Z"/>
            <path d="M87.51,1951.26l45.43,9.22,36.2-23.33c-22.08-6.66-56-12.55-81.63-14.66Z"/>
            <path d="M637.56,403.37l-13.32,6.24c9.52,14.77,34.44,34.15,47.13,34.82L689,439.48C676.17,442.08,642.93,415.51,637.56,403.37Z"/>
            <path d="M670.37,618.84c10.94,12.85,49.33,32.29,67.2,35.93-7.26,12.61-26.38,27.35-37.12,28.79-15.2-.07-55.9-20.55-67.86-35.71Z"/>
        </g>
    </g>
    <path class="bennettUnderwearInner" d="M929.53,1531.14c-9.32,0-22.26-10.77-30.51-26.42C846.33,1404.69,1074.7,1515.5,929.53,1531.14Z"/>
    <g class="sockWhite">
        <path d="M971.64,1708c-36.21,24.35-76,42.31-118.9,54.55,15,31.37,62.74,97.37,60.78,140.5-1,22.86-17.65,39.87-30.72,81.69-8.89,28.45-44.43,43.78-36.59,73.19,9,33.87,110,43.15,154.22,31.37,28-7.45,40.53-35.3,61.74-54.59,50.15-45.61,12.7-96.59-16.64-149.3C1007,1816.1,1004.32,1779.19,971.64,1708Z"/>
        <path d="M730.54,1734.41c-45,15.89-89.2,27.58-132.66,34.63,15.68,45.75,43.89,90.85,24.83,129.4-12.18,24.64-44.49,47.63-72.54,76.46-14.71,15.11-68.92,13.25-92.14,34-19.92,17.78-16.34,45.09,2.61,52.93,100.73,41.68,167.7-7.24,266-8.49,102.6-1.31,55.54-106.52,34.63-177.1C738.93,1800.9,743.61,1786,730.54,1734.41Z"/>
    </g>
    <g class="eye">
        <circle class="sclera" cx="746.28" cy="380.52" r="106.47"/>
        <g class="irisDarkBrown">
            <ellipse cx="805" cy="375.29" rx="21.92" ry="21.82" transform="translate(-28.64 68.83) rotate(-4.81)"/>
            <ellipse cx="667.64" cy="386.85" rx="21.92" ry="21.82" transform="translate(-30.09 57.35) rotate(-4.81)"/>
        </g>
        <g class="pupil">
            <ellipse cx="804.04" cy="375.85" rx="8.53" ry="8.49" transform="translate(-28.69 68.75) rotate(-4.81)"/>
            <ellipse cx="666.69" cy="387.41" rx="8.53" ry="8.49" transform="translate(-30.14 57.27) rotate(-4.81)"/>
        </g>
    </g>
    <g class="skinEastAsian">
        <path d="M1271.49,683.3c-33-93.09-74.14-92.77-142.44-101-43.77-5.25-69.6-14.21-85-17.46-24-11.65-50.45-108.62-20.46-177.27L855.92,583.21c-35,7.88-58.74,23-88.68,30.89-27.89,7.31-37.92,14.68-43.71,25q4.86,8.2,10,15.68c-5.56,9.65-18.06,20.54-28.43,25.77-14.23,30.39-11.46,63.63-18.67,95.69-17.42-30-24.24-67.27-31.3-110.52-31.85-17.42-47.62-50.2-62.33-127.34,9.14-7.7,19.55-8.23,29.32-16.08,21.72,5.92,22.7,20.72,37.57,22.74L642,441.92c-8.86-15.62-40.1-41.13-58.33-44.26-23.91-1.36-31.41,34.89-48.59,62.49-19.27,23.43,2.08,32.28-3.12,45.82-3.65,25,38.53,83.84,41.18,107.43,28,191.72-34.16,356.75,83,421.41,24.36,13.44,99.93-19.14,124.44-138.2,14.88,63.91,30.92,93.64,37.3,142.63,1.66,12.77,2.55,25.74,2.94,38.82-4.88,2.56-8.89,6.53-11.1,14.17-3.46,17.23-1,28.58,10.76,36.08l0,.68c-12,3.61-23,12.33-25.67,19.2-7,18.34-6.47,35.56,22.51,41.25-10.52,3.41-13.74,13.7-15.46,24.06-28.59-2.18-57-4.66-78.67.26-122.22-.25-244.06,2.73-263.5,93.52-19.95,93.15,57.06,278.87,141.76,461.16,40.83-6.86,82.35-17.8,124.5-32.44-12-65.75-17.74-146.06-29.38-198.91,33.84,55.5,103.64,141.57,159.17,224.53,40.08-11.74,77.5-28.54,111.74-50.94-23.75-65.77-45.82-176.81-71.43-234.26,24.82,16.55,41.36,22.06,70.66,27.91,223.67-72.47,298.5-246.71,298.5-246.71,7.64-26.24,8.7-60.37,7-97.78,63.42-22.48,115.38-62.68,115.94-98.64C1389.93,948.27,1322.13,826.1,1271.49,683.3Z"/>
        <path d="M966.05,510.67c-9.27,32.53-44,67.15-78.74,85.74-53.17,28.41-48,35.67-99.69,39.29-39.82,2.79-42.13-24.65-73.81-41.22-39.14-20.46-59.25-46.9-69.45-100.69C626,397,636.59,402.2,630.56,396.23c-12.17-12.38-2.53-21.79-6.87-31-16.4-34.63,10.49-66.67-12.27-129.39,109.86-182.42,431.53-77,446.33,88.2,12.43,35.45-16.89,72.82-23.09,96-3.87,14.43-24,31.92-40.87,19.24M782.07,382.15c7.73-4.18,17.86-1.49,28.19-1.66,7.24-.12,24.85-1.53,35.86-8.24-14.47-5.76-29.26-11.06-41.8-10-11.05.93-20.89,9.37-27,16.78C773.23,384.07,779.1,383.76,782.07,382.15Zm-75.35,1.94c-6.1-3.37-13.52-9.42-23-8.47-15.42,1.54-27.93,9.24-36.68,16.13,8.06,2.51,18.82,2.59,26.78,1.74,8.21-.87,15.79-5.38,26.5-5.51C703.29,387.94,713,387.57,706.72,384.09Z"/>
    </g>
    <g class="skinOverlapLine">
        <path d="M896.07,1476.42c-10.38-34.34-35.49-60.46-70.79-80.89"/>
        <path d="M774.42,1240.45c-71.72,6.91-138.1,14.43-154.64,98.08-9.46,47.82,30.85,122.26,76.81,198.56"/>
        <path d="M686.47,776.23c20,36,47,96.43,50.86,166"/>
        <path d="M757.83,751.31c17.78,30.92,0,47.15,22.8,145.3"/>
        <path d="M992.05,1222.94l17-8.66c102.79-41,183.18-20.1,263.21-54.44"/>
        <path d="M1138.88,761.36c6.18,6.18,15.22,12.9,20.86,30.14,28.6,87.34,57.84,162.32,87.34,229.55-74.2,18.55-161.53,100.48-242.69,105.12-6.19-27.31-45.49-42.46-52.89-69.11-9.64-25.43-27.16-9.33-45.15-19.27-20.36,4.73-15.15,35.51,8.52,40.24,3,7,5.21,13.26-4.26,17-25.56,5.69-39.29,4.26-54.92-1.42,8.7-11.2,3.32-25.09-7.57-27-8.74,6.76-19.19,7.16-27.25,11.39"/>
        <path d="M1302.27,1012c-20.79-.14-42.25,3.57-55.19,9.09"/>
        <path d="M820.53,1128.31c14.13,8.33,35.67,17.26,7.83,23.56"/>
        <path d="M817.34,1189.44c15.22,2.89,28.35,9.94,9.44,13.39"/>
        <path d="M565.81,452.56c13.86-10.9,24.27-22.45,37.71-23.68,9.52-.87,19.09,2.82,32.3,8.58"/>
        <path d="M571.26,480.29C588.59,466.92,597,461.91,612.85,461c9.27-.54,17,.87,26.67,5"/>
        <path d="M581.16,507.52c19.31-13.37,33.17-19.44,45.91-20.34,5.29-.37,10.79.92,16.79,4"/>
        <path d="M821.92,1237c24.24-.9,67-2.34,88.31-1.94"/>
    </g>
    <g class="skinFoldLine">
        <path d="M1002.35,348.52c20-62.42,65.89-10.71,36.12,34.6"/>
        <path d="M1003.28,363.94c15.76,12-6.9,36.37,4,38.41,8.89,1.67,5.85-13.78,17-21,16.33-10.52,4.67-41-9.22-30.59"/>
    </g>
    <g class="nippleEastAsian">
        <ellipse cx="820.38" cy="893.75" rx="15.21" ry="8.7" transform="translate(-34.11 32.55) rotate(-2.23)"/>
        <ellipse cx="1070.33" cy="890.51" rx="15.21" ry="8.7" transform="translate(-33.8 42.26) rotate(-2.23)"/>
    </g>
    <path class="bennettWaistband" d="M1259.78,1308.5c6.39-16.25,1.75-29.5,5.45-50.88-64-64.84-215-32.1-273.18-34.68-4.31,2.41-9,4.7-14,6.9Z"/>
    <g class="bennettUnderwear">
        <path d="M1259.78,1308.5c25.25,178.83-122.46,250.09-330.25,222.64,8.35,0,12.36-4.6,18.66-16.33,10.89-20.26,44.76-17.48,64.46-106.13,17.9-8,44.91-14.54,74.09-20.78-32-6.33-59.77-11.11-76.32-11.87,12.87-91.93-17.81-152.88-100.19-141,19.3-8.9,78.69-6.27,121.71,0,8.84,1.29,20.78-8.9,32.65,3.72,20.56-14.39,53.68,8.28,84.61,24.49C1187.79,1272.87,1223.41,1274.36,1259.78,1308.5Z"/>
        <path d="M821.92,1237c-17.42.46-33.38,3-47.5,3.49-1.77-11.72-19.3-22.24-51.21-26.69,23-5.45,54.92-1.74,78.67-.26C801.76,1228.08,805,1232.7,821.92,1237Z"/>
    </g>
    <g class="clothesFoldLine">
        <path d="M1108.3,1323.11c-12.47-34.65-31-52.2-33.72-61-2.87-9.08-2.77-17.09-10-23.39,17.19,12.91,38.63,35.86,46.94,61.94"/>
        <path d="M1115.69,1258c34.76,18.76,61.21,52.09,81.31,96.55"/>
        <path d="M1149.2,1263.23c18,12.94,31.86,28.31,41.79,46"/>
        <path d="M1027.92,1460.77c21.55,21,46.54,34.2,75.3,38.81"/>
        <path d="M1002.51,1480.18a115.28,115.28,0,0,0,39.73,17.55"/>
        <path d="M1240.6,1293.27a107.76,107.76,0,0,1-2,55.25"/>
        <path d="M1220.58,1282.41c2.17,16.38,2.71,29.6,0,36.54"/>
    </g>
    <g class="head50__edited">
        <path class="lipMaleMedium__noStroke" d="M739.64,511.43c12,5,23.34,1.47,36.67-3.52,22.14,1.42,56.3-9.75,70.42,23.37,7.47,7.91-34.77,40.65-78.17,40.25-56.24,3.72-39.48-43.65-54.16-46.32C718.07,511.12,732.5,516.58,739.64,511.43Z"/>
        <path class="mouthInner" d="M768.76,539.52c23.58.1,38.64,8.46,56.36,5.41,6.32-1.09,25.73-5.79,20.53-14.56-26.14-38.81-58.16-12.86-82.93-6.24-17,4.53-40-14.21-48.5.45C734.89,564.69,737.22,539.38,768.76,539.52Z"/>
        <g class="teeth">
            <path d="M828.24,513.88c-22.09-11.09-46.31,5.11-65.52,10.25-10.22,2.73-22.64-3-32.77-4.76,2.3,7.3,4.82,14.5,8.5,16.82a42.45,42.45,0,0,0,14.36,5.62,54,54,0,0,1,16-2.29,98.19,98.19,0,0,1,12.6.89C796.59,536.46,812.93,527.63,828.24,513.88Z"/>
            <path d="M835.61,518.71c-8.3,10.2-23.07,20.52-35.43,25.26,9,1.9,16.24,2.46,24.94,1,6.32-1.09,25.73-5.79,20.53-14.56C842.06,525,839.42,521.84,835.61,518.71Z"/>
        </g>
        <path class="lipOverlapLine" d="M708.69,538.44a59.6,59.6,0,0,1,5.53-13.86"/>
        <g class="lipEdgeLine">
            <path d="M776.31,507.91c-13.33,5-24.64,8.52-36.67,3.52"/>
            <path d="M801,566c-11.05,6.51-22.61,4.5-33.54,5-10.28.43-18.28,2.4-26.89-2.9"/>
        </g>
        <g class="cheekLine">
            <path d="M710.5,483.51c-3,13-13.64,10.24-17.57,59.59"/>
            <path d="M791.12,453.13c13.44,5.46,26.49,20.11,45.3,32.57,29.07,19.26,31.7,55.64,31.9,63.07"/>
        </g>
        <g class="noseLine">
            <path d="M712.72,459.72c-3.67,4.36-11.6,18.85,2.81,28.28"/>
            <path d="M791.12,453.13c7.16,4.09,15.47,18.33,5.13,28.08"/>
            <path d="M780.5,481.26c-14.17,1.37-15.23,14-34.31,14.59-19.53.58-23.09-6.36-26.19-10.35"/>
        </g>
        <g class="eyeFoldLine">
            <path d="M841.07,389.67c-15.26,12.36-39.31,10.76-51,6.21"/>
            <path d="M698.34,403c-11.44,8.2-32.41,9.33-43.12,3.42"/>
        </g>
        <g class="eyeCornerLine">
            <path d="M647,391.75c-2,1.52-5.63,4.83-8.07,4.93"/>
            <path d="M876,372.62c-11.17,2.62-20.89,2.37-29.87-.37"/>
        </g>
        <path class="eyeCreaseLine" d="M666.26,380.22c10.33-6.19,20.57-15.44,37-7"/>
        <g class="eyebrowBlack">
            <path d="M759.56,320.75c26.09,39.41,78.86.65,115.08,21.6C845.4,305.53,799.1,336,759.56,320.75Z"/>
            <path d="M622.17,361.75c32.2-21.79,64.28-6.93,78.7-35.8-37.41,14.68-56,0-80.79,29.39A55,55,0,0,0,622.17,361.75Z"/>
        </g>
        <path class="hairBlack" d="M830,294.1c8.61,4.51,16.48,9.09,24.5,20-51.23-22.16-80.29,19.48-133.75-15.68,14.4,14.91,18.25,20.07,19.65,29-32.09-26.58-81-12.63-83.73-105.94-1.18,61.6-12.47,87.47-55.95,113.2,8.91-49.76-34.25-63.11,2.26-133.2-7.64,2.51-15.06,16.61-27.2,19.12,27.85-31.67,7.37-72.53,103.62-142.36-9.94-17.57-27.14-17.34-46.28-3.21,2.88-16.82,41.68-37,62.74-10.15C693.73,33.16,717.19,7,748.85,1c-22.33,8.59-36.56,36.75-29.55,53.37C754,41.14,869.61,7.43,965.66,67.33c123.25,76.87,104.72,225.32,92.09,256.76C1044.5,286.67,992,290,991,335c-8.75,4.45-17.53,9.29-28.32,10.24-3.8-32-15.32-18.61-43.74-48.47C901.39,296.79,857.78,306.11,830,294.1Z"/>
        <path class="hairOverlapLine" d="M918.89,296.72c12.33-.72,29.84.77,49.36,5.92-3.78-6.12-10.78-13-19.52-20.4"/>
    </g>
</svg>
