<svg id="presence" xmlns="http://www.w3.org/2000/svg" viewBox="0 0 1389.22 1776.2">
  <defs>
    <style>
      .cls-1 {
        fill: #a9bfdb;
      }

      .cls-1, .cls-2, .cls-3, .cls-4 {
        stroke: #000;
        stroke-miterlimit: 10;
        stroke-width: 2px;
      }

      .cls-2 {
        fill: #91a5bd;
      }

      .cls-3 {
        fill: #9db2cc;
      }

      .cls-4 {
        fill: none;
      }
    </style>
  </defs>
  <title>brokenHearted</title>
  <g id="phoneLight">
    <path class="cls-1" d="M87.51,1603.57c25.65,2.11,59.55,8,81.63,14.65L313,1599a444.2,444.2,0,0,0-81-11.36C205.19,1586.65,127.77,1592.49,87.51,1603.57Z"/>
    <path class="cls-1" d="M132.94,1641.56l-45.43-9.23-48.06,27.22A342.34,342.34,0,0,0,93.05,1670C105.74,1660.4,132.94,1641.56,132.94,1641.56Z"/>
    <path class="cls-1" d="M642.68,1.72c-15.77-3.45-44.58,6.15-55.1,15-33.4,28.41-16,269.87,33.62,323.14l37.77-29c-29.7-41.75-46.12-139.15-46.13-209.23l13.32-6.24Z"/>
  </g>
  <g id="phoneDark">
    <path class="cls-2" d="M398.82,1665.12c-29.24,18.1-257.48,57.51-307,53.19-2.07-15.86-1.38-32,1.2-48.29,23.37-17.72,48.83-35,76.09-51.8,43-10.09,91.68-16.59,143.89-19.2,26.37,4.55,74.07,20,83.17,32.25C401.38,1638.23,403.36,1656.75,398.82,1665.12Z"/>
    <path class="cls-2" d="M87.51,1632.33v-28.76c-24.89,9.25-60.94,28-81.73,44.55a329.79,329.79,0,0,0,33.67,11.43Z"/>
    <path class="cls-2" d="M726.17,346.79c-37.94-54.67-63.44-141.37-66.2-210.34l-47.13-34.82c0,70.08,16.43,167.48,46.13,209.23C669.91,323.71,708.3,343.16,726.17,346.79Z"/>
    <path class="cls-2" d="M641,2.08c11.5-4.28,47.51,31,51.48,43.73,5,10.67-2.14,81.89-14.92,85.69-12.79,2.6-46-24-51.41-36.11C619.8,80.47,627.19,10.46,641,2.08Z"/>
  </g>
  <g id="phoneMedium">
    <path class="cls-3" d="M91.85,1718.31c-2.08-15.13-1.4-31.33,1.2-48.29a336.07,336.07,0,0,1-87.27-21.9C1,1659.55-.71,1680.43,3,1691.42,15,1701.85,68.09,1716,91.85,1718.31Z"/>
    <path class="cls-3" d="M87.51,1632.33l45.43,9.23,36.2-23.34c-22.08-6.66-56-12.54-81.63-14.65Z"/>
    <path class="cls-3" d="M626.16,95.39l-13.32,6.24c9.52,14.77,34.45,34.16,47.13,34.82l17.6-4.95C664.78,134.1,631.53,107.53,626.16,95.39Z"/>
    <path class="cls-3" d="M659,310.86c10.94,12.85,49.33,32.3,67.2,35.93-7.26,12.61-26.37,27.36-37.11,28.8-15.21-.08-55.9-20.55-67.86-35.71Z"/>
  </g>
  <path id="bennettUnderwearInner" class="cls-4" d="M929.53,1212.21c-9.32,0-22.94-10.43-30.51-26.42-24-50.7-11.41-72.52,75.23-.82C961,1199.6,951.32,1214.75,929.53,1212.21Z"/>
  <g id="skinEastAsian">
    <path class="cls-4" d="M969.17,1396.32c-24.38-65.09-46.88-180-73.1-238.83,24.82,16.55,41.36,22.07,70.66,27.91,233-75.48,190.41-204.4-11-271.85-47.54,1.26-92.19.06-133.78,4.48-35.33-16.09-68.87-26-98.71-23.2-122.22-.24-249.06,2.73-268.5,93.52-20.12,94,63.54,282.21,149,466.06l123.18-32.17c-12.63-66.66-18.38-149.84-30.33-204.08,34.56,56.69,106.63,145.25,162.71,229.82Z"/>
    <path class="cls-4" d="M855.92,264.28c-35,7.88-63,24.51-93.68,28.89-40.76,7.69-65.65,97.17-83.16,175.09-18.68-32.2-29.77-72.66-36.77-119.94l-80.54-42.89c28,191.72-22.76,345.79,94.42,410.45,24.36,13.44,99.93-19.13,124.44-138.19,14.88,63.9,30.92,93.64,37.3,142.62,7.44,57.23-.53,118.26.34,176.91l447,41.47c7.64-26.23,8.7-60.36,7-97.77,63.42-22.49,115.38-62.68,115.94-98.65,1.75-112.93-66-235.09-116.69-377.9-33-93.08-74.14-92.77-142.44-101-43.77-5.26-75.6-14.22-91-17.46l-26.26-68.76"/>
  </g>
  <g id="nippleEastAsian">
    <ellipse class="cls-4" cx="820.38" cy="574.83" rx="15.21" ry="8.7" transform="translate(-21.72 32.31) rotate(-2.23)"/>
    <ellipse class="cls-4" cx="1070.33" cy="571.59" rx="15.21" ry="8.7" transform="translate(-21.4 42.02) rotate(-2.23)"/>
  </g>
  <g id="skinOverlapLine">
    <path class="cls-4" d="M896.07,1157.49c-10.38-34.33-35.49-60.45-70.79-80.89"/>
    <path class="cls-4" d="M774.42,921.52c-71.72,6.91-138.1,14.43-154.64,98.09-9.46,47.81,30.85,122.26,76.81,198.55"/>
    <path class="cls-4" d="M679.08,468.26c20,36,49.38,85.47,53.25,155"/>
    <path class="cls-4" d="M757.83,432.38c17.78,30.92,0,47.15,22.8,145.31"/>
    <path class="cls-4" d="M1138.88,442.43c6.18,6.18,15.22,12.91,20.86,30.14,28.6,87.34,57.84,162.32,87.34,229.56-74.2,18.55-161.53,100.47-242.69,105.11"/>
    <path class="cls-4" d="M1272.24,840.92c-80,34.34-160.42,13.47-263.21,54.43"/>
  </g>
  <g id="bennettSock">
    <path class="cls-4" d="M971.64,1389c-36.21,24.36-76,42.32-118.9,54.55,15,31.37,62.74,97.37,60.78,140.5-1,22.86-17.65,39.87-30.72,81.69-8.89,28.46-44.43,43.79-36.59,73.19,9,33.87,110,43.15,154.22,31.37,28-7.45,40.53-35.3,61.74-54.58,50.15-45.62,12.7-96.6-16.64-149.31C1007,1497.17,1004.32,1460.26,971.64,1389Z"/>
    <path class="cls-4" d="M730.54,1415.48c-45,15.89-89.2,27.58-132.66,34.64,15.68,45.74,43.89,90.85,24.83,129.39-12.18,24.64-44.49,47.63-72.54,76.46-14.71,15.11-68.92,13.25-92.14,34-19.92,17.79-16.34,45.09,2.61,52.94,100.73,41.68,167.7-7.25,266-8.5,102.6-1.31,55.54-106.52,34.63-177.1C738.93,1482,743.61,1467.11,730.54,1415.48Z"/>
  </g>
  <path id="bennettWaistband" class="cls-4" d="M1259.78,989.57c6.39-16.24,1.75-29.5,5.45-50.88-64-64.84-215-32.09-273.18-34.68-4.31,2.41-9,4.7-14,6.91Z"/>
  <g id="bennettUnderwear">
    <path class="cls-4" d="M1259.78,989.57c25.25,178.84-122.46,250.1-330.25,222.64,8.35,0,12.36-4.59,18.66-16.33,10.89-20.26,44.76-17.48,64.46-106.12,17.9-8,44.91-14.54,74.09-20.78-32-6.34-59.77-11.12-76.32-11.88,12.87-91.92-17.81-152.88-100.19-141,19.3-8.91,78.69-6.27,121.71,0,8.84,1.29,20.78-8.91,32.65,3.71,20.56-14.39,53.68,8.28,84.61,24.49C1187.79,954,1223.41,955.43,1259.78,989.57Z"/>
    <path class="cls-4" d="M821.92,918c-17.42.46-33.38,3-47.5,3.49-1.77-11.71-19.3-22.23-51.21-26.69,23-5.45,54.92-1.74,78.67-.25C804.46,905,811.43,910,821.92,918Z"/>
  </g>
  <g id="clothesFoldLine">
    <path class="cls-4" d="M1108.3,1004.18c-12.47-34.65-31-52.2-33.72-61-2.87-9.08-2.77-17.09-10-23.39,17.19,12.92,38.63,35.87,46.94,62"/>
    <path class="cls-4" d="M1115.69,939c34.76,18.77,61.21,52.09,81.31,96.55"/>
    <path class="cls-4" d="M1149.2,944.3c18,12.94,31.86,28.32,41.79,46"/>
    <path class="cls-4" d="M1027.92,1141.85c21.55,21,46.54,34.2,75.3,38.8"/>
    <path class="cls-4" d="M1002.51,1161.25a115.28,115.28,0,0,0,39.73,17.55"/>
    <path class="cls-4" d="M1240.6,974.34a107.76,107.76,0,0,1-2,55.25"/>
    <path class="cls-4" d="M1220.58,963.49c2.17,16.37,2.71,29.6,0,36.53"/>
  </g>
</svg>
