<svg viewBox="0 0 841.43 2989.44">
  <g class="soleWhite">
    <path d="M569.93,2887.58c26.51,12.92,50.21,26.23,41.28,77.58-24.92,28.61-148.62,30.72-207.59,7.07-32.49-13-70.54-19-83.41-36.67-7.51-14.25-6.25-27.65-4.58-44.44C409.49,2859,494,2862.59,569.93,2887.58Z"/>
    <path d="M275,2722.46c16.74,69.06-31.5,118.53-106.1,98-58.13-16-40.95-105-44.88-158.86-9.53-70.68-44.87-160.42-5.29-198,12.81-8.69,29.25-12.63,49.17-15.33Z"/>
  </g>
  <g class="bennettShoe">
    <path d="M453.07,2706.74c-3.12,1.56,26.54,75,41.18,95.09,22.37,30.79,41.55,66.12,75.68,85.75-41-15.63-129.29,4.54-125.81,55.63-29.08-1.85-30.61-8.79-57.26-15-32.84-7.63-65.65-28.74-71.23-37.11-8.37-37.95,23.79-102.33,21-171C375.72,2689.26,451.11,2699.59,453.07,2706.74Z"/>
    <path d="M267.58,2418.58C217,2450.52,174.93,2435.49,150,2458.5c-56.17,51.78,2.14,162.67-4.92,260.77,44.17-5.85,95.93-7.45,130,3.19-14.91-56.94,19.15-145.82,58-202.23C334.92,2521.37,267.58,2418.58,267.58,2418.58Z"/>
  </g>
  <g class="shoelace">
    <path d="M532.49,2854.83c-13.92-16.67-25.57-35.56-38.24-53-5.07-7-12.28-20.3-19.43-34.83-19-2.16-59-1.28-69.91,2.19,5,31.27,19.24,62,47.2,90.6C464.71,2855.89,508.9,2854.35,532.49,2854.83Z"/>
    <path d="M235.33,2568.14c-15.47,30.32-24,61.92-20.09,95.83,17.63.81,36.79,4.93,57.06,11.4,2.68-28,11.64-58.56,23.93-87.48A257.27,257.27,0,0,0,235.33,2568.14Z"/>
  </g>
  <path class="converseLogo" d="M172.14,2550.3c31.66,17.16,63.19-52.34,27.78-69.41C167,2465,137.11,2531.3,172.14,2550.3Z"/>
  <path class="bennettJeans" d="M728.7,1449.12c21.91,68.69,35.84,129.35,2.65,148,29.33,141.77,38.91,302.57,41.29,488.32,6.46,46.4-19.77,61-27.28,101.82-6.48,35.17-30.89,31.22-35.52,47.32-8.53,29.61-146,129.4-240.72,215.87-19.36,165,18.61,174.59.93,228.41,13.33,16.54-9.42,32.94-8.6,59.42-12.06-19.41-52.23-17.65-59,14.34-19,19.42-62.35,9.78-74.64,47.32-7.79-36.74-40.89-57.15-23.86-86.54,12.83-22.14-14.44-36.94-9.64-61.85,4.71-24.43-3.15-85.75-11.24-147.8-24.18-8.31-43.7-33.39-61.09-66.15,23.31-22.32-2.28-55,49-68,5.55-49.59-24.87-118.53-10.23-149.4-38.36-25-4.46-70.85-6.43-107.64-12.64-236.71-54.57-479.3-23.29-658.45C369.49,1478.38,607.08,1475.72,728.7,1449.12ZM483.09,2118.2c19.53,53.72-12.69,41-6.83,68.37,14.24-18.67,29.9-32.38,47.85-38.09-10.74-28.32,6.84-47.86,26.37-45.9-9.77-13.67-10.74-43,2.93-58.6-25.39-23.44,5.76-27.92-51.9-180.27C488.54,1944.39,477.23,2108.44,483.09,2118.2Z"/>
  <path class="bennettSleeves" d="M412.12,606.45l209.52,6.94C747.29,760,712,1085.61,706.1,1423.74l-452.81,8.83C301.54,1078.39,348.61,709.84,412.12,606.45Z"/>
  <path class="shirtWhite" d="M659.35,746c-12.66-19.33-25.82-36.37-39.65-50.46-23.29,32.88-136.5,33.41-188.33-8.11a510.22,510.22,0,0,1-41.49,38.8l-61.63,681c130.93,152.88,261.75,139.53,368.1,3.43Z"/>
  <g class="bennettHoodie">
    <path d="M621.64,613.39c74.44-29.68,173.68-15.65,177,46.07,5.56,103.39,3,189.66-7.9,263.69-15.1,39.16,15.37,46.93,0,83.41-3.94,9.51,2.39,20.24-7.49,26,4.4,13.21,6.41,26.08-2.14,37.42,10.8,26.82-.93,29.37-1.12,42.72s8.16,25.43-2.8,36.91c2.64,17.92-5.15,32.93.77,46,27.58,18.69-.81,39.7-.81,39.7-.41,12.17,24.41,12.5-.73,33.2-8.71,39.39,6.07,64.89-2.23,77.5-5.11,7.77-74.74.52-74.21-8.86C705.55,1062,699.25,714.6,621.64,613.39Z"/>
    <path d="M218.38,924.19c-6.18,109.68-5.3,207-16.22,273.84-2.31-25.49-20.08-44.8-33.21-57.93,10.81-27-7.73-23.17-5.41-57.93,20.08-20.86,6.11-32.2,10.82-48.67s19.18-22.85,19.31-43.66c.09-16.24,10.44-18.59,14.67-29.35C212.66,949.52,208,932.16,218.38,924.19Zm66.05-327.77c-67.21,34.33-108-5.4-117.93,44-27,31.08-46.52,77.34-63,129.92-23.11,12.09-6,45.85-25.07,88.91-20.53,46.35-33.72,35.92-19.9,67-35.07,16.44-25.09,44.89-31.76,75.38-4.63,21.19-44.36,20.17-15.21,103.5-12.6,22.62,5.28,24.61,9.25,56.39,5.3,27.15,17.69,32.52,25.83,47.68,23.84,44.37,35.4,84.74,74.85,89.81.93,21,20,25.36,43,22-4.24,31.9-7.51,54.1-5.56,78.92,1.33,17.08-10.6,28.47,7.55,48-2.92,51.33-17.17,53.52-11,62,7.88,6.72,26,19.17,39,22C381.54,1524.6,491.24,535.58,284.43,596.42Z"/>
    <path d="M367.25,747.87C357.48,681.24,315.63,627,268.18,603.6c24.31-33.23,24.31-70.73,88.68-37.78C372.64,612.47,369.29,672.64,367.25,747.87Z"/>
  </g>
  <g class="bennettHoodieInner">
    <path d="M289.89,1376.71c94.92-259.09,57.9-349,78.24-415.71,24.6-80.74-3.85-161.46-.88-213.13,7.6-132.5-58.12-128-44-170.38,29.5-24.37,51.3-24.37,65.41-26.94,8.1-5.87,16.68-21,53.87-29.5-16.47,34.86-28.84,78.71-39.76,125.7,12.83,286-.44,549.12-65.41,777.42Z"/>
    <path d="M700.6,754.35c-1.53,23.16,10.13,59.36,2.75,121.09-5.43,45.3,10.35,76.73,12.39,113.79,1.9,34.64-9.14,57.31-3.18,96.66,10.59,69.82,9.46,137.66,5.76,194.71-1.49,23.13,4.6,34.91-1.05,56l-37,56.67c-35.55-278.93,11.29-596.94-66.34-804.16C702.42,576.46,706.39,666.76,700.6,754.35Z"/>
  </g>
  <g class="zipperDisplayLine">
    <path d="M289.89,1376.71c94.92-259.09,57.9-349,78.24-415.71,24.6-80.74-3.85-161.46-.88-213.13"/>
    <path d="M700.6,754.35c-1.53,23.16,10.13,59.36,2.75,121.09-5.43,45.3,10.35,76.73,12.39,113.79,1.9,34.64-9.14,57.31-3.18,96.66,10.59,69.82,9.46,137.66,5.76,194.71-1.49,23.13,4.6,34.91-1.05,56"/>
  </g>
  <g class="hoodieLace">
    <path d="M349.79,859.77,348.4,898.5c-.11,2.11-8.92,1.61-8.8-.5l1.4-38.9Z"/>
    <path d="M353.58,682.25c-11,70.19.7,100.3-1.94,176.06-.61,4.21-11.76,3.81-11.6,0,3.4-66.46-8.46-110.25.6-177Z"/>
    <circle cx="347.08" cy="676.25" r="11.28"/>
  </g>
  <g class="clothesDisplayLine">
    <path d="M512.3,1517.34c-5,41.82,9.94,73.11,4.66,108.41-5.49,36.77,15.86,66.32-3.73,123.74"/>
    <path d="M448.48,1502.44c-15.64,39.86-48.59,63.73-113.27,58.35"/>
    <path d="M610.69,1498.14c17.74,40.15,50.25,53.72,90.11,54.07"/>
    <path d="M575.12,1507.18c-11.54,47.58,7.37,72.23-3.48,105.59-10,30.66,29,93.72-51.38,107.42"/>
    <path d="M444.12,2943.21c61,6.7,151.12-4.74,166-18.61"/>
    <path d="M145.05,2719.27c-4.34,47,7.95,102.74,81.08,102.63"/>
  </g>
  <g class="clothesOverlapLine">
    <path d="M732.32,825.63c-2.9,56.23,5.89,104.5,3.88,160-2.05,57-13.57,116.2-16.44,172.44"/>
    <path d="M218.38,924.19c6.55-9.84,7.72-19.51,2.36-29,11.09,1.67,16.09-6.1,17.19-20"/>
    <path d="M202.16,1198c1.19,11.5,6.3,20.88,14.92,30.3,14.45-3.26,14.53,14.23,19.51,22.76,4.84,8.3,17.35,10.48,6.24,28.5,20.55,33.7,39.72,53.15,39.51,62.8-.22,10.24-62.37,26.87-95.68,44.08-9.49,4.9-12.4-42.49-22.15-65.51,3.47-14,67.89-41,78.32-41.37"/>
    <path d="M776.42,1268.57c-14.25-7.33-38.65-10.16-56.88-9.17"/>
    <path d="M319.08,1289a81.19,81.19,0,0,1-16.78-7.7c-9.55,18.2-20.05,30.52-31,40.08"/>
    <path d="M166.5,1447.88c5.15,4.83,8.43,6.82,14.09,7.66"/>
    <path d="M639.76,682.6c21.23,31,42.52,62.09,48.87,93.41"/>
    <path d="M402.76,646.75c-10.17,27.94-22.05,49.46-35.24,66"/>
    <path d="M513.23,1749.49c-4.1,19.31-5.39,70.89-11.72,114.22"/>
    <path d="M476.26,2186.57c14.55,38.18-12.21,42.69-10.87,75.16,2.31,56.23,5.31,124.79,3.73,188.7"/>
    <path d="M271.06,2369.58c-2,42.37,9.53,85.5,12.05,134.15"/>
    <path d="M402.49,2752.6c2.13,3.5,2,11,2.42,16.59"/>
    <path d="M408.61,2786.32c13.54-1.93,61.49-3.77,75.34-1.55"/>
    <path d="M414.21,2802.94c15-3,62-8.11,77.28-5.18"/>
    <path d="M422.15,2819.79c12.38-4.32,61.12-12,78.6-8.8"/>
    <path d="M430.17,2833c13-5.33,60.91-11,80.9-7"/>
    <path d="M440.61,2847c13-5.3,56.52-10.64,80-7.48"/>
    <path d="M228.46,2582.8c21,4,41.51,11.16,61.68,20.29"/>
    <path d="M222,2600.06a227.51,227.51,0,0,1,62.77,18.27"/>
    <path d="M217.8,2615.76c21,2.43,41.85,8.54,62.57,17.29"/>
    <path d="M215.25,2631.12a208,208,0,0,1,61.51,16.47"/>
    <path d="M214.31,2647.59a177.56,177.56,0,0,1,59.85,13.48"/>
    <path d="M266.06,2494.47c-1.4,21.28-17,44.77-30.73,73.67"/>
  </g>
  <g class="clothesFoldLine">
    <path d="M388.65,550.55c-17.41,22.93-12.8,52.48-26.44,47.23"/>
    <path d="M613.88,589.07c48.38,3.2,67.06,46.21,59.42,119.82"/>
    <path d="M754,659.59c2,47.78-30.69,106.93-21.67,166,25.64-38.75,45-89.31,49-145.91"/>
    <path d="M779.91,814.44c-7.91,46.74-25,91.35-44.48,117.34"/>
    <path d="M754.55,958.18a51.36,51.36,0,0,1-18,16.93"/>
    <path d="M736.2,985.62c27.63,6.72,39.69-8,15.09,16.57"/>
    <path d="M762.15,1018.67c-15-2.2-28.95,3.34-28.59,6.55"/>
    <path d="M783.25,1032.58c-3.59,2.61-9.31,3.91-10.78,7.83"/>
    <path d="M777.19,1149.63c-4.37,3.79-23.71,4-29.57,6.53"/>
    <path d="M771.34,1198.18c-10.23,4.38-36.2-.48-50.42-.16"/>
    <path d="M785.79,1226.17c-13.32,12-40.88,3-42.56,12"/>
    <path d="M661.05,896.85c-52.93-1.31-110.4,2.87-164.53,3.95"/>
    <path d="M555.88,882.47a1111.42,1111.42,0,0,1-141.43-1"/>
    <path d="M665.15,1149.63c-37,17.69-73.43,29.77-109.27,34.28"/>
    <path d="M606.52,1187.41c-56.61,17.15-110.36,22.63-159.77,10.47"/>
    <path d="M370.58,1281.26a286.48,286.48,0,0,0,94.51,40.08"/>
    <path d="M555.88,1331.46c-66.28,15.72-129.47,7.5-188.36-34.18"/>
    <path d="M355.89,1352c43,35.21,100.56,58.11,146.54,56.9"/>
    <path d="M582.29,1412.52c-66.73,20.55-131.78,13.51-195.41-16.94"/>
    <path d="M672.82,1321.34c-63.54,120.28-170.39,171-312,74.24"/>
    <path d="M345.77,1393.23c30.82,19.29,46,68.9,119.32,77.57"/>
    <path d="M675.57,1352c-22.8,41.24-79.36,69.6-19.83,49.64"/>
    <path d="M502.43,1474.23c47.19-8.47,101-20,162.72-56.27-60.47,36.3-95.56,75-153.91,65.34"/>
    <path d="M278.86,1105.14c-4,73.36-19.49,156.6-36,174.45"/>
    <path d="M128.27,1267.91c17.46-2.64-1.44,14.88-6.74,31.06"/>
    <path d="M132.59,1244.87c-20.16,9.6-20.16,43.2-41.76,19.68"/>
    <path d="M217.08,1228.33c-20.71,1.06-38.83,6.63-53.65,18"/>
    <path d="M225.35,1255.91c-44.64,9.6-71,53.28-71.52,32.16"/>
    <path d="M169,1140.1c-14.18-4-27.71-3.7-40.56,1.08"/>
    <path d="M34.19,1121c6.57-30.42,32.1-50.29,66.36-62.4"/>
    <path d="M11.6,1105.09c7-25.07,32.67-45.51,60-53.19"/>
    <path d="M163.54,1082.17c-2-10.11-21.23-19.71-29.39-18.27"/>
    <path d="M133.19,1082.14c9.92,1.18,18.05,6.53,24.48,15.84"/>
    <path d="M159.59,1059.1c-11.52-24.48-105.24-36-142.2,2.4"/>
    <path d="M30.24,971.93c5.39,28.33,51.22,47.63,24.11,56.17"/>
    <path d="M49.07,947.46c8.64,44.16,88.44,74.4,124.92,60"/>
    <path d="M58.57,926.21c3.65,7,5.84,13.74,4.42,19.81"/>
    <path d="M74.51,919.14a81.74,81.74,0,0,0,29.88,45.12"/>
    <path d="M104.59,790c9.79,21.1,31.83,37.45,51.16,49.92"/>
    <path d="M136.07,851.46c16.8,14.4,43.2,58.56,41.76,77.76"/>
    <path d="M220.74,895.22c-9.67,0-17.75,1.78-15.55,14.32"/>
    <path d="M171.79,714.66c7.25,40.46,36.68,104.46,4.6,84"/>
    <path d="M166.5,640.39c24.6,23.31,50.89,45.63,55,65.15"/>
    <path d="M204.23,725.22c19.45,50.1,33.55,108.79,33.7,150"/>
    <path d="M207.11,621.05c8.16,5.28,16.74,16.85,18.24,25"/>
    <path d="M263.36,957c-25.69,78.08-46.57,148.28-58,217.82"/>
    <path d="M462.92,2147.94C413.62,2177.07,345.64,2162,294.1,2093"/>
    <path d="M445.15,2243.86c-25.89-25.21-88.2,5.6-148.67,23.32"/>
    <path d="M260.83,2220.18c11.61,8.66,32.07,13.59,17.47,22.49"/>
    <path d="M479.24,2169.33c-13.9,13.67-54.45,21.61-25.39,37.38"/>
    <path d="M320.82,2170.74c36,3.47,76.67,18.58,65.61,31.62-21.75,25.63-72.49,26.91-100.23-3.56"/>
    <path d="M577.16,2068.38c-13.44,27.27,78.49,75.09,93.05,65.35,5.08-3.4,2-12.18-15.36-38.47"/>
    <path d="M550.48,2102.58c16.8,16.78,65.41,36.15-7.31,18.37"/>
    <path d="M524.11,2148.48c5.84,7.26,18.21,9.72,35.66,8.43"/>
    <path d="M586.25,2151c90.53,1.31,79.62,14.19-33.6,29.61"/>
    <path d="M616.52,2204.73c-36.63-6.4-75.09,4.34-109.71,27.67"/>
    <path d="M234.34,2409.12c.56,21,17.29,30.92,36.48,39.11"/>
    <path d="M451.4,2644.93c-39.21,37.68-74.8,3.56-118.6-13.75"/>
    <path d="M470.05,2678.84c-8.69,11.07-20.37,13.82-34.44,9.88"/>
    <path d="M405.62,2730.48c-38.7.51-50.92,15.79-76.89,24.44"/>
    <path d="M320.07,2670.39c26,16.3,54,13.59,59.07,22.41,5.94,10.39-40,35.06-59.07,19.35"/>
    <path d="M689,1653.16c-33.65,8.5-63.28,17.72-84.5,28.44"/>
    <path d="M692.34,1727.61c-44.13-6-87.39-4.7-129.66,5"/>
    <path d="M484,1689.13A585.41,585.41,0,0,0,380.31,1664"/>
    <path d="M486.55,1728.45c-38.36-4-77.82-4.36-118-2.51"/>
  </g>
  <g class="eye">
    <path class="sclera" d="M761.36,420.59,496.3,348.27l277.21-.48C781.56,372.37,776.21,397.72,761.36,420.59Z"/>
    <g class="irisDarkBrown">
      <ellipse cx="630.91" cy="360.34" rx="22.5" ry="21.92" transform="translate(171.63 923.32) rotate(-80.52)"/>
      <ellipse cx="747.71" cy="377.3" rx="22.5" ry="21.92" transform="translate(252.48 1052.7) rotate(-80.52)"/>
    </g>
    <g class="pupil">
      <ellipse cx="630.91" cy="360.34" rx="8.75" ry="8.53" transform="matrix(0.16, -0.99, 0.99, 0.16, 171.63, 923.32)"/>
      <ellipse cx="747.71" cy="377.3" rx="8.75" ry="8.53" transform="translate(252.48 1052.7) rotate(-80.52)"/>
    </g>
  </g>
  <g class="skinEastAsian">
    <path d="M364,384.59c46.71,95,49.68,72.92,47.16,221.86-4.9,80.89,261.81,153.83,207-45.87"/>
    <path d="M695.34,1455.38c15.42,35.59,28.14,29.43,40.36,76.65-1.76,15,.89,32.54,1.41,45.83-22.59,32.21-3.86,56.06,17.48,50.2,3.75-18.79,16.74-30.42,18.82-56.89,25.27-20.14,23.79-33.32,21.07-56.42,7.95-9.62,17.19-50.12,5.86-69.87-14.64-25.52-8.81-57.31-30.75-101.91-5.84-4.43-45-7.81-53.32-6.41-51.23,64.45-51.23,93.15-68.2,125C663.5,1460,679.28,1457.94,695.34,1455.38Z"/>
    <path d="M392.83,1469.44a386.88,386.88,0,0,1-37.38-32.81c-19.32-38.54-51.43-49.82-75.71-91.21-9.75,10.09-61.48,24.77-92,40,1.69,26.78-14.92,54.88-6.08,132.87.87,9.13-9,16.94-10.51,27-2.54,16.89,19.64,27.76,36.6,18.19-3.91,9.14,16.53,22.19,30,16.1-21.75,20.44-31.76,47.84-5.22,53.5,10-4.35,10-13,29.14-23.06,13.8-7.21,21.31-22.72,29.14-37.62,0,5.85.82,11,3,14.57-19.13,23-17.4,56.11,9.14,54.37.87-10.44,24.79-40,27-60.89,13.49-55.24,1.31-75.25,0-114.52Q361,1468.22,392.83,1469.44Z"/>
    <path d="M443.57,440c-29.46,8.37-36.28-6.44-45-20C212.91,274.06,646.38-21.13,789.38,196.62c-17.16,81.38,23.77,97.59-2.56,155.94-2.39,5.3,9.11,16.42-10.19,28.28a76.66,76.66,0,0,0,.62-10.5c-16.2-4.58-33.69.1-42.25,18.71-1.93,4.15,4.92,3.53,7.56,4.54,17.36,6.62,29.39,11.24,32-2.27,9,9.05,2.87,11.88,3.7,16.07,10.27,51.71-9.95,120-66.16,174.1-21,20.24-24,50.74-64.84,47.15-47.77-4.21-68.22-21.92-117.23-49.5-34.46-19.39-59-48-73-77.75M677.79,377.27c-4.55-16.49-16.83-25.8-30.43-27.21-20.23-2.1-34.73,11.37-45.26,17.11,18.26,13.1,38.1,23.27,70.29,14.78C674.89,381.28,679.37,383,677.79,377.27Z"/>
  </g>
  <g class="skinOverlapLine">
    <path d="M226.55,1519.65c-5.8,18.85-12.56,37.7-17.8,43.87"/>
    <path d="M263.77,1516.27c-4.35,25.13-10.13,53-25,63.35"/>
    <path d="M300,1506.6c0,24.65,1.45,35.77-8.2,65.84"/>
    <path d="M767.1,1485.21c4.92,33.2,12.35,64.28,7.31,86"/>
    <path d="M792.51,1471.28c2.14,14.18,2,31.15,3,43.47"/>
    <path d="M355.45,1436.63c5.47,14.17,6.95,22.85,10.76,31.6"/>
  </g>
  <g class="skinFoldLine">
    <path d="M438.74,337.39c-14.72-67.07-91.49-10-42.51,49.36"/>
    <path d="M433,362.41c-14.84,9,15.08,26.87,1.48,34.92-12.13,7.18-7.79-13.24-19.56-22-26.62-19.76,1.72-46.53,9.47-31.65"/>
  </g>
  <g class="head50__edited">
    <path class="lipMaleMedium__noStroke" d="M680.15,511.91c8.3,4.94,14.39,8,26.6,3.17,6.86,4.95-1.09,8.45,5.76,11.08C698.69,534.43,717,563.5,672,569.4c-33.63,4.4-38.14-41-53.11-51.63C651.37,523.49,664.83,509.63,680.15,511.91Z"/>
    <path class="teeth" d="M624.32,519.81c24.38,4.07,47.65-1.5,51.17,2.71,14.79,12.73,21.13,1.07,26.62,3.33C698.19,553,655.21,548.21,624.32,519.81Z"/>
    <g class="lipOverlapLine">
      <path d="M616.9,516.66a32.67,32.67,0,0,0,8.41,3.32"/>
      <path d="M702.11,525.85a17.3,17.3,0,0,0,11.46-.54"/>
    </g>
    <g class="lipEdgeLine">
      <path d="M706.75,515.08c-12.21,4.81-18.3,1.77-26.6-3.17"/>
      <path d="M702.18,553.12c-20.07,26.07-51.08,17.34-62.59-1.82"/>
    </g>
    <path class="cheekLine" d="M660,454.24c-13.43,9.87-42.34,40.35-53.39,60.12"/>
    <g class="noseLine">
      <path d="M724.2,431.87c-1.06,27.79,18.46,51.47-3.39,61.85-18,8.54-28.52-4.46-49.28-7.92-9.93-1.66-31.93-4.11-11-31.48"/>
    </g>
    <g class="eyeFoldLine">
      <path d="M768.2,417.53c-5,2.59-14.25,3.33-21.92-1.95"/>
      <path d="M661,399.91c-15.73,5.36-33.3,1.29-43-5.47"/>
    </g>
    <g class="eyeCornerLine">
      <path d="M588.75,371.8c5.17-.41,8.79-2.36,13.35-4.63"/>
      <path d="M780.93,373.82a4.41,4.41,0,0,0-3.68-3.48"/>
    </g>
    <path class="eyeCreaseLine" d="M603.69,353.83c37.28-25.16,59.85-10,71.51,2.24"/>
    <g class="eyebrowBlack">
      <path d="M702.76,308.45c-22,25.79-72.87-4.35-109.24,10.7C632.1,284.42,656.07,313.82,702.76,308.45Z"/>
      <path d="M750.61,316c7,17.85,22.33,20.94,40.81,24.85a93.43,93.43,0,0,0,2.94-11.08C777,323.56,765.72,325.94,750.61,316Z"/>
    </g>
    <path class="hairBlack" d="M665,183.29c-5.08,42.39-4.56,67.56,9,86.88-2.29-12.86.57-25,6.48-36.58,6.09,70.75,71.92,64.61,87.41,79.47-2.8-8.63-8.44-16.36-15.84-23.52,10.28,12.15,43.84,9.92,61.27,34.89,11.9-34.25,19.37-76.85-7.52-123.13,9.26,3.48,18.06,10.29,33.32,8.73-50.63-46.45-24.82-111.86-180.2-168.51C597.07,19,495.39,18.43,440,56.2c6.46-23,17.95-44.18,39-54-34.2,5.83-53.92,34.29-62.44,64.36-20.82-18.75-49-16-65.64.59,22.85-8.13,39.65-4.26,49.47,13.33C325.74,150.1,282.1,325.13,374.67,433.76c6.69-.12,17.84-6.15,23.71-12.79-21.88-34.73-42.07-56-24.12-102.34,15.41-39.84,79.16-34.17,75,14.39a165.35,165.35,0,0,0,36.66,12.13c6.1-34.29,13.1-29,47.89-55.11,36.05,2.53,65.34,4.18,86.26-35.76-4.22,13.64-8.3,24.4-6.77,35.59C622.24,265.17,653.88,265.52,665,183.29Z"/>
    <path class="hairOverlapLine" d="M534,289.05c-11-1.24-25.86,1.5-35.82,3,10.91-9.08,22.09-13,30.46-18.21"/>
  </g>
</svg>
