<svg id="presence" xmlns="http://www.w3.org/2000/svg" viewBox="0 0 1759.48 2594.55">
  <defs>
    <style>
      .cls-1 {
        fill: #a8a498;
      }

      .cls-1, .cls-10, .cls-11, .cls-12, .cls-2, .cls-3, .cls-4, .cls-5, .cls-6, .cls-7, .cls-8, .cls-9 {
        stroke: #000;
      }

      .cls-1, .cls-10, .cls-11, .cls-12, .cls-2, .cls-3, .cls-8, .cls-9 {
        stroke-miterlimit: 10;
      }

      .cls-1, .cls-2, .cls-3 {
        stroke-width: 3px;
      }

      .cls-2 {
        fill: #b7b3a5;
      }

      .cls-3 {
        fill: #e8e4d9;
      }

      .cls-4 {
        fill: #7f76a6;
      }

      .cls-4, .cls-5, .cls-6, .cls-7 {
        stroke-linecap: round;
        stroke-linejoin: round;
      }

      .cls-10, .cls-11, .cls-12, .cls-4, .cls-5, .cls-6, .cls-7, .cls-8, .cls-9 {
        stroke-width: 2px;
      }

      .cls-5 {
        fill: #8b81b5;
      }

      .cls-6 {
        fill: #978cc4;
      }

      .cls-7 {
        fill: #9e9ebf;
      }

      .cls-8 {
        fill: #c3e0e0;
      }

      .cls-9 {
        fill: #80d4d4;
      }

      .cls-10 {
        fill: #72bdbd;
      }

      .cls-11 {
        fill: #568f8f;
      }

      .cls-12 {
        fill: none;
      }
    </style>
  </defs>
  <title>dishroomReading</title>
  <g id="book">
    <path id="paperStackDark" class="cls-1" d="M1262.23,290.59c83.42,11.05,181,45.72,207,94.36,58.36-29.24,159.66-13.48,231.11,25C1678.65,249.73,1350.18,154.44,1262.23,290.59Z"/>
    <path id="paperStackLight" class="cls-2" d="M1262.23,290.59c26.13-99.28,47.93-196.53,61.51-254.73l34.66-33.7c107.22,119,231.2,150.1,379.25,96.3l20.22,35.62c-22,80.52-37.56,177.61-57.5,275.91l-18.3-38.52c-120-96.14-252.13-133.32-398.65-101.11Z"/>
    <path id="bookPageLight" class="cls-3" d="M1536.55,93.64C1525.19,21.31,1428.23-2.92,1358.4,2.16c0,0-46.63,172.09-75,268.2,83,7.41,162.8,41,185.66,97.11,29.26-35.47,137.21-23.21,213,4,21-97.55,36.31-194.14,55.58-273C1678,62.83,1574.1,39.72,1536.55,93.64Z"/>
    <line id="paperCreaseLine" class="cls-1" x1="1536.55" y1="93.64" x2="1469.08" y2="367.47"/>
  </g>
  <g id="tray">
    <path id="trayBasinDark" class="cls-4" d="M167.5,761.74c8.32,10.46,19.58,16,31.91,14.48l427.76-51.63V714.33Z"/>
    <path id="trayBasinMedium" class="cls-5" d="M22.93,528.46,567.62,705.23l59.55-6.94L431.62,480.07c-20-20.72-47.41-25.14-67.05-23.34L42.38,480.07C20.39,480.93-12.23,498.62,22.93,528.46Z"/>
    <path id="trayBasinLight" class="cls-6" d="M22.93,528.46l335-27.89c16.81-1.6,36.1,4.19,51.95,21.76l157.75,182.9L156.9,756.75Z"/>
    <path id="trayRim" class="cls-7" d="M197,746.9a51.35,51.35,0,0,1-49.21-23.33L18.63,521.74c-12.51-21.65,2.61-39.8,23.75-41.67C10,482.6-8.86,507,6.36,531.74L136.43,736.88a61.27,61.27,0,0,0,58.95,28l431.79-50.58v-16Z"/>
    <path id="lancetPenLight" class="cls-8" d="M317.83,576.78c-14.06,5-64.2,57.77-89.51,91.36,13.78-8.84,37.92,11.68,31.49,27.79,30.44-29.35,77-86.45,79.7-99.94C341.55,585.92,328.53,573.83,317.83,576.78Z"/>
    <path id="penCapLight" class="cls-9" d="M228.32,668.14c-7.93,10.51-13.43,19.15-14.61,23.86-2,7.87,16,23.74,23.92,21.19,4.5-1.45,12.53-8,22.18-17.26C266.24,679.82,242.1,659.3,228.32,668.14Z"/>
    <path id="penCapDark" class="cls-10" d="M237.63,713.19h0c9.63-9.78-15.23-32.36-23.92-21.19h0C208.35,703.42,226.54,719.71,237.63,713.19Z"/>
    <path id="penCapInner" class="cls-11" d="M228.37,699.67c-2.61-2.31-5.83-2.95-7.2-1.42s-.35,4.66,2.27,7,5.85,3,7.2,1.4S231,702,228.37,699.67Z"/>
  </g>
  <g id="bennettSoleSide">
    <path class="cls-12" d="M1277.68,2539.62c5.08,13.29,4.75,27.47-2.65,42.82-20.39,13.17-114.66,16.67-144-.85-36.91-22.05-75.6-11-91.32-30.58-6.54-35.91,11.47-70.08,30-76.93Z"/>
    <path class="cls-12" d="M969.8,2486.36a89.61,89.61,0,0,1-4.41,42.57c-8.49,13.16-86.57,32.31-137.64,22.93-59.89-8.92-159.25,1.28-188.13-22.51-5.1-73.9,45.45-70.08,67.86-84.29Z"/>
  </g>
  <g id="bennettShoe">
    <path class="cls-12" d="M1256.68,2350.73c-5,68.1,26.24,138.42,21,188.89-24.9,22.09-108.06,16.51-125.37,12-37-9.54-84.23-13.74-94.6-21.86-2.8-18.85,1.89-37.75,12-55.72,36-27.6,58-71.25,69.21-127.25Z"/>
    <path class="cls-12" d="M934.08,2342.92c11.72,47.44,39.07,94.33,35.72,143.44-23.18,26.58-82.21,34.42-133.84,29-58.72-6.14-100,1.25-144.51-11.07-3.34-21.39,3.17-42.29,16-59.26,25.11-16.74,62.51-60.84,103.25-107.72Z"/>
  </g>
  <path id="converseLogo" class="cls-12" d="M1135,2521.06c22.43,5.27,24.74-71,2-74.66C1116.59,2443.1,1113.53,2516,1135,2521.06Z"/>
  <g id="clothesDisplayLine">
    <path class="cls-12" d="M691.45,2504.32c-19.33-3.92-33.75-8.92-46.8-19"/>
    <path class="cls-12" d="M1057.71,2529.8a44.1,44.1,0,0,1-16.71-15.32"/>
  </g>
  <path id="dishroomApronInner" class="cls-12" d="M1107.54,1603.57c-1.35-225.54-31.13-237.91-94.29,3C1046.65,1603.82,1078.35,1602.57,1107.54,1603.57Z"/>
  <path id="bennettJeans" class="cls-12" d="M1349.49,1116.91c24.43,53.95,21.66,131.88,15.87,190.66,5.12,22.47,7.12,44.23-5.69,62.61-9.06,98.69-9.78,192.11-22.77,290.26-13.08,98.83,5.17,133.19-14.23,156.51-5.47,7.46,21.09,17.74-.4,42.93-8.5,69.91-3.56,165.06-14.47,232.53-21.12,130.66,17.83,189.94-16.22,229.54,11.76,28.83-2,48.76-23.22,54.2-24.84,57.41-191,5.14-148.21-70.25-21.42-16.28-7.17-39.38-9.43-67.68-6.86-86,1.72-329.85,5.14-390.67-16.27-15.43-.48-37.83-2.57-60-9.42-100.23-22.66-226.17-30-337.55-34.18,109.86-75.63,209-106.24,293-18.51,50.85-1.35,92.6-31.7,102,29.13,18.84-7.83,38-3.42,63.39,14.56,84,17.13,179.06,11.13,240.75-5.89,60.59,38.38,73.75,5.14,120.8-12.27,17.38,13.3,52.79-20.56,61.68,11.29,19.89,16,33.87-10.28,39.55C863,2385.08,768.89,2359.88,810,2308.47c-70.73-37.6-8.54-62.19-41.12-223.61C749.57,1989.2,739,1902.11,756,1832.12c-30-35.12,1.45-42.86,6-80.53,19.68-162.74,62.82-410.32,115.66-652Z"/>
  <g id="clothesDisplayLine-2" data-name="clothesDisplayLine">
    <path class="cls-12" d="M1160.86,1197.14c1.62,63.1-7.31,118.6-30.18,164"/>
  </g>
  <g id="clothesOverlapLine">
    <path class="cls-12" d="M988.27,1380.11c52.26,27.64,100.65,9.5,117,11.32,84.4,9.43,105.15-21.83,115.06-5.66,4,6.53-18.12,13.59-56.59,20.75"/>
    <path class="cls-12" d="M1105.22,1391.43c-.64,18.79-14.81,37.81-21.91,58.59"/>
  </g>
  <g id="clothesFoldLine">
    <path class="cls-12" d="M1365.36,1307.57c-5.51,16.29-19.54,31.73-47.89,45.77"/>
    <path class="cls-12" d="M929.53,1391c61,40.87,113.53,18.81,116.77,28.54-2.11,8.45-21.73,13.08-57.09,14.27"/>
    <path class="cls-12" d="M1070.3,1428.59q-26.86,21-49.95,64.23"/>
    <path class="cls-12" d="M1109.88,1444.81A367.18,367.18,0,0,0,1154,1592.72"/>
    <path class="cls-12" d="M1193.56,1437c-62.28-36.33-79.79-13-16.86,56.44"/>
    <path class="cls-12" d="M818,1641.38c-14.33,61.58-17.76,119.53,11,166.72"/>
    <path class="cls-12" d="M955.48,1743.88c-9.25,28.33-23.48,53.42-57.74,65.52"/>
    <path class="cls-12" d="M1231.19,1797.72c-25.86,20.8-56.77,31.62-94.72,28.54"/>
    <path class="cls-12" d="M1297.36,1819.13c-75.9,9.08-109.64,22.7,10.38,21.41"/>
    <path class="cls-12" d="M1152,1860c92.12-5.84,137.53,7.78,6.49,15.57"/>
    <path class="cls-12" d="M1300.6,1874.27c-29.19,3.89-49.3,5.84-84.33,22.71"/>
    <path class="cls-12" d="M945.37,1845c-77.47,16.32-164.21-5.07-165,2.69-1.05,9.76,70.71,28.55,141.43,11.68"/>
    <path class="cls-12" d="M789.4,1874.27c28.55,8.43,47.36,7.79-3.24,34.38"/>
    <path class="cls-12" d="M921.75,1889.19C874.39,1894.38,803,1910.6,800.43,1945"/>
    <path class="cls-12" d="M1287.42,2285.09c-42.37,24.08-105.05,20.87-131-31.65"/>
    <path class="cls-12" d="M1291.58,2322c-26.47,25-110.64,27.18-26.47,29.34"/>
    <path class="cls-12" d="M1120.15,2305.9c28.25,26.95,49.37,37.7,64.38,34.59"/>
    <path class="cls-12" d="M1268.36,2376.15c-32.74,10.39-71.6,6.79-98.94-11.19"/>
    <path class="cls-12" d="M937.66,2331.6c-29,6.58-57.46,5.54-84.8-8.37"/>
    <path class="cls-12" d="M855,2213.87c-10,14.44-56.12,9.35-72.66,25.18"/>
    <path class="cls-12" d="M935.59,2199.48c4.32,20.14,36,23.74,34.49,44.52"/>
    <path class="cls-12" d="M934.88,2271.42c-38.86-20.86-111.36-8-113,2.88-1.91,12.89,56.84,30.94,107.92,20.15"/>
  </g>
  <g id="skinEastAsian">
    <path class="cls-12" d="M1460.46,490.62c-4.91,25.52-16.69,40.25-23.56,65.77,6.64,75.41,25.27,131.12,63.81,154.14,21.6-55,2-134.5,10.8-212.06"/>
    <path class="cls-12" d="M532.71,800.81C596.53,779.92,662.5,770,705.54,745.75c-29.33-6.32-80.89-54.16-78.38-111-35.3,26.71-51.56,62-105.24,91.52"/>
    <path class="cls-12" d="M999,163.79l-.86,69c35.3-9.72,147.41-9.13,189-2.92l-12.57-83.42"/>
  </g>
  <path id="bennettShirt" class="cls-12" d="M925.28,1069.29l-7,58.59c65.78,21,394.65,26.31,438.71-4.61l-12.32-63.78C1327.51,1134.68,958.45,1118.59,925.28,1069.29Z"/>
  <g id="bennettSleeves">
    <path class="cls-12" d="M1479,662.56a40.15,40.15,0,0,0-6.55-21.23c-8.21,42.17-76.57,117.21-135.38,93.76,26.7,56.48,62.68,67.61,108.11,66.5,25.68-.62,32.27-17.71,34.45-38.83C1510.35,722.35,1521.16,686.44,1479,662.56Z"/>
    <path class="cls-12" d="M679.25,584.56c-11.13,3.15-19.51,9.45-20.64,24-14.66,1.59-20.8,17.83-31.2,22.29-5.2,59.44,49.78,110,79.5,115.16,8.91-.74,31.37-15.18,29.42-19,15.81,1.69,24-16.17,41.17-34.07C726.31,700.33,687.81,665.37,679.25,584.56Z"/>
  </g>
  <path id="dishroomCollar" class="cls-12" d="M1233.94,293.4c-13.21-16.4-21.19-43-31-58.28.2-11.93-202.43-15.22-215,2.69C978,252,971.5,270.41,963.44,291Z"/>
  <path id="dishroomShirt" class="cls-12" d="M859.93,599.86c4.84,153.46,31.29,308.5,65.35,469.43,33.17,49.3,402.23,65.39,419.34-9.8-19.95-101.77-1.77-237.6-14.73-261.11,8.39-22,9.38-42.9,7.21-63.29,62.33,24.86,135.39-60.92,136.2-101-41.7-88.06-25.77-260.81-127.81-299.08-68.13-25.55-147.62-67.19-249.18-56.33-145.43,2.39-145.1,18.56-191.79,35.51C766.36,364.4,741.75,487.41,678.35,574.47c7.57,105,62.46,139.11,131.54,108.83C831.2,658.12,844.56,631.35,859.93,599.86Z"/>
  <g id="dishroomApron">
    <path class="cls-12" d="M1335,865.72c-5.74,75.87-10.87,85.08-9.55,110.59,3.31,63.85,24.22,139.82,42.83,225.65C1366.3,1088.46,1340.8,976.69,1335,865.72Z"/>
    <path class="cls-12" d="M877.31,801C912.54,951.81,977.7,920,953.52,1017c-25.53,102.39-99.77,440.21-141.77,563.38-15.87,46.54-28.6,47.2-42.29,41,31.93-148.63,69.66-450.74,95.78-515.24-26.42-30.83-4.4-37.44,7.71-59.45-30.83-30.83-2.2-44,3.3-63.86C870.75,947.68,889.42,918.78,877.31,801Z"/>
  </g>
  <g id="dishroomApronLace">
    <path class="cls-12" d="M1325.3,973.19q-8.77,1.66-18,3.14s-12.66,14.77-31.42,10.2c-16.55,12.49-40,9.63-55.24,5.58-11.63,4.08-21,4.67-28.89,3.11-41.5,11.82-108.45-2.6-114-6.45-19.26,3.85-38,1.31-52.71-3.25,0,0-49.58-2.5-66.27-4.45a131,131,0,0,1-2.83,25.24c60.68,9.55,324.61,4,371.34-7.21C1326.45,991.34,1325.34,974.2,1325.3,973.19Z"/>
    <path class="cls-12" d="M1184.31,1023.57c2.76,34.2,29.62,86.83-31.33,77.63-30.1-4.55-1.3-43.82,12-77.63Z"/>
    <path class="cls-12" d="M1165,1023.57c-6.51,18.39-8.09,38.22-14.51,65.83-8.14,35-3.53,68.06-14.84,102.87-.47,4,20.83,6.53,21.3,2.51,2.85-41.17,7.68-104.45,16.4-168.57Z"/>
    <path class="cls-12" d="M1167.47,1023.57c7.08,29.51-11.93,91.32-2.52,176.9.68,4.53,23.07,1.2,22.39-3.33-7.94-31-1.58-33.88-7-69.84-2.55-16.91,1.9-38.5,1.9-50.91,0-18.51-7-33.3-8.91-50.18Z"/>
    <path class="cls-12" d="M1166.77,987.56c32.39-10.55,40,40.76,3.27,38.58C1179.5,1018.5,1179.5,991.2,1166.77,987.56Z"/>
    <path class="cls-12" d="M1169.54,988.86c-18.35,4.36-17,36.42,1.8,36C1178.79,1016.64,1178.91,995.06,1169.54,988.86Z"/>
  </g>
  <g id="clothesOverlapLine-2" data-name="clothesOverlapLine">
    <path class="cls-12" d="M1351.17,476c11.47,64.69-6.76,159.46-14.07,259.05"/>
    <path class="cls-12" d="M934.36,407.25C932,498.55,878.3,545,859.93,599.86"/>
  </g>
  <g id="clothesFoldLine-2" data-name="clothesFoldLine">
    <path class="cls-12" d="M1374.27,448.86c3.09,26,4,51.2-10.53,71.06"/>
    <path class="cls-12" d="M1327.55,445.57c.1,24.14,4.19,44.53,16.45,57.25"/>
    <path class="cls-12" d="M1397.3,523.21c1.83,71.56,8.72,131.43,41.45,131.6"/>
    <path class="cls-12" d="M1463.09,745c-13.32-31.27,12.51-57.24,15.94-82.39,9.76,20.46,14.91,42.89-6.07,76.47"/>
    <path class="cls-12" d="M1479.66,762.76c-10.64,11.14-21.19,12.75-21.83,21"/>
    <path class="cls-12" d="M1281.5,689c-29,40.84-64.25,69.48-111.2,75"/>
    <path class="cls-12" d="M960.41,623.23c24.64,66.39,57.66,120.94,102.64,158.56"/>
    <path class="cls-12" d="M1304.52,761.4c-20.51,56-57.54,110.69-128.3,162.51"/>
    <path class="cls-12" d="M1329.89,798.38c-16.15,32.76-75.37,111.06-110.9,128.17"/>
    <path class="cls-12" d="M944,765.35c40.36,63.91,80.72,119.88,121.07,142.12"/>
    <path class="cls-12" d="M937.38,813.38c23.45,46.08,47.56,84.91,73.69,101.32"/>
    <path class="cls-12" d="M1307.33,976.33c6.44-5.33,12.85-15.14,19.23-28"/>
    <path class="cls-12" d="M1275.91,986.53c18.09-12.61,43.8-54.35,57.78-104.65"/>
    <path class="cls-12" d="M1220.67,992.11c10-4.38,14.52-10,16.74-16.22"/>
    <path class="cls-12" d="M1077.75,988.77c-9.94-4.54-18.51-10.13-23.41-18.48"/>
    <path class="cls-12" d="M1025,985.52c-19.09-7.85-33.07-19.36-42.28-34.29"/>
    <path class="cls-12" d="M993,1037.67c3.72-12.94,13.41-21.48,27-27.18"/>
    <path class="cls-12" d="M1072.46,1032.1c7.74-10.86,19.14-17.13,32.53-20.91"/>
    <path class="cls-12" d="M1237.41,1007.42c20,6.2,31.31,17.22,32.11,34"/>
    <path class="cls-12" d="M1289,1004.08c12.17,7.63,17.35,15.81,18.35,24.3"/>
    <path class="cls-12" d="M873,1046.77c11.28,6.66,15,14.59,8.15,24.31"/>
    <path class="cls-12" d="M876.25,982.91c2.52,5,7.28,8.68,14.5,11"/>
    <path class="cls-12" d="M658.61,608.57c-1.51,13.75,10.54,31.91-8.19,27.11"/>
    <path class="cls-12" d="M650.42,660.15C662.29,695,702.1,732.93,736.33,727"/>
    <path class="cls-12" d="M679.35,624.55c0,26.7,20.77,63.05,45.22,57.59"/>
    <path class="cls-12" d="M815.83,501.42C786.9,546.67,746.6,600.67,709,588.2"/>
    <path class="cls-12" d="M889.26,471.75c10.16-32.92,14.84-8.9,11.13,28.19"/>
    <path class="cls-12" d="M940.44,488.81c-9.65,19.45-21.51,36.37-37.83,48.21"/>
  </g>
</svg>
