<svg viewBox="0 0 1045.47 2995.45">
    <g class="bennettShoe">
        <path d="M462.32,2725.1c4.39,39.43,17.85,72.88,49.87,93.69,39.89,25.92,72.13,61.11,107.28,76.31,123.44,108.82-263.68,90.38-300.7,36.26.22-36,28.71-109.55,29.47-173.77C377,2725.42,416.19,2717.19,462.32,2725.1Z"/>
        <path d="M250.77,2653.33c-17.06,36.42-24.81,78.2-13.86,122.39,11.6,46.85,22.93,89.15,52.39,120.13,28.85,163.53-281.12-56.52-271.23-145.06,14.35-31.78,97.46-80.84,133.73-136Z"/>
    </g>
    <g class="soleWhite">
        <path d="M619.47,2895.1c-12.09,9.82-17.11,30.11-15.87,49.86-55.9,9.82-125.07,0-201,2.27-34,1-74.79-3.78-83.86-15.87-3.47,13.68-3.77,25.38.55,39.74,11.33,7.71,74.36,10,122.42,8.62,97-2.75,204.49,22.22,262.53-23.58C703.36,2899,659.84,2901.28,619.47,2895.1Z"/>
        <path d="M289.3,2895.85c-24.49,3.13-41.69,18-54.39,40-31.24-12.11-88.56-59.48-151.11-108-22.11-17.16-65.73-62.71-65.73-77.06-8.68,9.7-15.45,21.79-17,34.41,5,20.86,39.44,56.23,78,82.52,81.18,55.4,133.31,141,263.44,124.69C365.11,2920.32,306.62,2925.31,289.3,2895.85Z"/>
    </g>
    <g class="shoelace">
        <path d="M256.55,2842.09c-8-20.4-13.81-42.81-19.64-66.37a171.77,171.77,0,0,1-4.9-33.83c-8.65-1.89-16.29-2.51-22.75-1.64,1,35,9.79,70.21,25.56,105.52A64.84,64.84,0,0,1,256.55,2842.09Z"/>
        <path d="M486.26,2794.34a54.6,54.6,0,0,0-14.83,10.06c18.16,25.15,51.91,52.06,90.18,79.49a56.49,56.49,0,0,1,16.67-14.55c-20.79-16-42-34.93-66.09-50.55A98.1,98.1,0,0,1,486.26,2794.34Z"/>
    </g>
    <ellipse class="converseLogo" cx="396.98" cy="2860.23" rx="35.55" ry="37.33"/>
    <path class="bennettJeans" d="M584.52,1566.92c-.68,19.53,15.36,46.6-.45,67.38-14.61,19.22,14.55,39.81-19.29,88,12.54,201.17,19.16,440.89-6.92,506.76-16.47,41.57-41,76.29-64.23,120.07,2.07,128.71-27.62,292.71-17.72,325.94,7.7,25.86,9.3,48.39-10.55,69.42-3.82-22.72-30.51-14.53-26.34,7.82-25.37,30-79.27,32.38-96.64,60-12.32-36.1-46.25-36.1-34.24-80.64-45.95-24,0-53-4.94-103.21-11.31,29-44.54,29-64.19,56.1,7.62-28.82-21.35-20.75-31.25,13.89-25-18.48-77-12-118.24-17.89,12.21-43.61-22.36-64.11,9.45-88.86-2.12-54.43,39.58-43.83,48.77-56.55-5-32.08,23.66-62.62,41-88.36,43.82-65,70.4-146.57,99.67-176.73-21.91-30.4,10.05-54.24-.71-61.5-26.26-17.73,8.85-41.84,5.66-64.33-7.95-56-12.23-143.14-12.73-234.7-19.79-69.27-28.21-142.74-43.82-173.9-26.49-3.6-17.67-32.08-26.16-55.84-28.28-79.18-23.4-157.64,26.79-231.87C358.12,1441.46,473.28,1486,584.52,1566.92Z"/>
    <path class="shirtWhite" d="M363,708.33c-67.17,98.87-78.27,223.27-73.39,378.58.66,21.14-20.29,44.86-4.07,56.91,15.45,43.91-28.46,66.68-5.69,102.46-12.94,14.86-17.42,31.27-11.38,49.6-8.14,40.65-37.95,62-24.4,79.68,6.51,17.08-16.86,32.93-5.69,46.35-6.48,8-7.86,19-8.57,32.52,33.34,14.64,146.8-.81,259.82,70.74,42.68,27,72.9,54.24,99.2,51.23,5.92-17,15.62-37.07,5.69-56.92,23.8-6.56,6.86-34.62,9.76-47.16,26.93-14.81,7.87-32.2,14-45.11,41.51-59.3,31.22-148.06,31.22-148.06,7.21-4.87,8.46-21.73,1.18-27.18,17.07-86.19,11.7-162.57,20.32-238.24,14.13-123.94,9.07-211.41-26.71-291.1Z"/>
    <path class="bennettSleeves" d="M624.41,690.82c12,6.06,15.19,20.07,19.81,31.81-15.54,9.8-38.21,12.76-58.48,7.38-12.75,30.45,11.33,36.12-14.87,60.19,7.69,29.26-36.12,93.48-58.07,95.6-7.21,14.52-14.83,20.75-22.66,22.66-4.46,28-14.87,53.11-19.83,73.65,9.92,14.16-2.48,25.67-4.95,49.57s7.08,35.41-5,46c18.41,32.57-8.5,37.53-8.5,52.4,23.37,32.57-5.66,39.66-5.66,55.24,25.49,22-7.09,16.28,4.95,42.48,8.65.37,7.61,7,5,19.12-6.37,29,4.36,49.72-7.82,49.21L309.94,1289c-5.6.73-4.26-15.22-6.75-30.71-2.93-18.27-8.73-36.67-2.12-37.53-14.16-55.23,5-35.06,2.83-80-2.12-43.9,2.12-122.51,17-196.15-5-28.33,9.91-56.34,12-80.73,1.42-16.29-14.16-27.62,9.92-64.44,1.16-83.55,43-151.13,97.15-185.87Z"/>
    <g class="clothesDisplayLine">
        <path d="M531.5,1553.17c-15.55,17.67-46.63,17.73-66.42,11.37"/>
        <path d="M234.91,2935.89c33.38,21.39,62.69,25.77,112.56,23.87"/>
        <path d="M603.6,2945c27.46.53,66.46-5.37,91.94-22.8"/>
    </g>
    <g class="clothesOverlapLine">
        <path d="M280.64,1909.51c18.38,86.25,46.66,142.8,49.49,171.08-4.95,24.74,7.71,48.27,24.74,68.57-2.12,31.1-33.93,21.2-19.79,52.31-19.23,14.32-16.26,40.29-46.66,68.57"/>
        <path d="M493.63,2349.11c-81.35,126.59-179.12,210.06-190.43,279.33"/>
        <path d="M207.76,2698.43c6.36,12-.82,23.7,1.5,41.82"/>
        <path d="M439,2752.29c11.14,15,17.71,34.55,32.41,52.11"/>
        <path d="M210.42,2758.05a71.91,71.91,0,0,1,23.33,1.78"/>
        <path d="M213,2776.24a58.93,58.93,0,0,1,23.94-.52"/>
        <path d="M216.46,2792.81a75.9,75.9,0,0,1,24.76,0"/>
        <path d="M220.79,2808.54a67.15,67.15,0,0,1,24.38-1"/>
        <path d="M227.37,2827.74a82.91,82.91,0,0,1,23.27-2.14"/>
        <path d="M485.45,2821.12c3.26-4.1,8.19-8.1,13.82-12"/>
        <path d="M498.31,2833.79a127,127,0,0,1,13.88-15"/>
        <path d="M512.19,2846a99.51,99.51,0,0,1,15.62-16.4"/>
        <path d="M527.81,2858.69a63.43,63.43,0,0,1,15.34-17.36"/>
        <path d="M544.79,2871.63a53.92,53.92,0,0,1,15.73-16.18"/>
    </g>
    <g class="clothesFoldLine">
        <path d="M512.8,885.8c11.65-14.16,18.59-32.78,21.83-55"/>
        <path d="M482.44,803.66c11.83,29.22,23,63.06,7.7,104.8"/>
        <path d="M464.34,798.09c8.35,33.4,18.79,57.76,11.83,94.64"/>
        <path d="M395.45,747.29c-19.29,16.08-38.2,32.44-52.6,52.12"/>
        <path d="M399.63,771c-24.56,22.4-48,45.13-53.58,73.07"/>
        <path d="M346.74,898.29c-9.19,10.92-17.93,25.41-25.84,46.29"/>
        <path d="M437.21,899.69c8.66,34.94,19.26,63.78,33.1,82.42"/>
        <path d="M519.32,775.82c9,30.62-2.09,96-22.78,107.1"/>
        <path d="M409.37,1006.15c11.49,36.81,26,68.05,47.32,87"/>
        <path d="M354.4,1028.42c-8.46,18.5-19.55,33.79-35.49,43.14"/>
        <path d="M436.51,1108.45c3.63,9.4,8.57,16.9,15.39,21.66"/>
        <path d="M416.33,1104.27c6.48,17.45,1.39,36.18-11.83,38.27"/>
        <path d="M443.47,1166.9c-26.44-9.74-79.41,5-50.1,18.09"/>
        <path d="M330.74,1177.34c-12.92,11.77-18.79,39-29.67,43.41"/>
        <path d="M451.19,1227.83q-209.08-15.63.71-20.38"/>
        <path d="M440,1243.44c-36.37-4.27-72-1.2-107.16,7"/>
        <path d="M279.83,1246.28c5.28,8.18,7.57,17,.81,27.78"/>
        <path d="M268.45,1295.88c1.85,7.12,28.89,10.19,44.55,20"/>
        <path d="M277.16,1352c16.31,4.72,30,11.09,38.27,20.87"/>
        <path d="M252.11,1376.35c23.66,8.35,73.05,12.92,44.53,24.36"/>
        <path d="M238.36,1421.91c26.8-7.13,61.47-1.17,99.8,10.87"/>
        <path d="M594.5,1519.48c-32,3.38-96.75-49.88-149.22-65.86"/>
        <path d="M484.52,1495.34c31.28,25.08,83.51,38.28,103,48.71"/>
        <path d="M604.26,1472.32c-20.23,4.24-59.22-18-55,.06"/>
        <path d="M587.51,1448.72c-47.7-3.32-93.18-12.62-135.69-29.92"/>
        <path d="M459.47,1299.11c13.92,11.83,38.67,23.39,12.53,21.57"/>
        <path d="M454,1267.1c32.15,34.12,69.31,56.87,110.6,70.28"/>
        <path d="M585.42,1002.67c-40.35,17.8-80.14,26-119.31,23.63"/>
        <path d="M564.59,1028.42c-11.78,12.38-77.15,25.71-91.41,19.51"/>
        <path d="M458.15,1117.21c11.81,8.08,31.4,14.55,53.14,20.58"/>
        <path d="M529.58,1167.53c-25.8-5.46-49.74-13.29-70.66-25"/>
        <path d="M572,1232.6q26,21.15,57.94,20.76"/>
        <path d="M649.43,1279.15c-18.84,16.35-65.28-3.25-106.84-30.13"/>
        <path d="M633.32,1347.64c-11.1,3-25.35.23-34.65-3.18"/>
        <path d="M626.27,1376.85c-40.92,1.07-121.17-16.9-152.78-35.18"/>
        <path d="M302.54,1163.74c13.95-34.73,34.28-53.22,38.1-69.75,4.77-17.51-15.7,1.81-30.7,6.64"/>
        <path d="M236.82,1735.61c18.11.87,24.74,0,37.46-4.24"/>
        <path d="M212.5,2543.48c-.26,51.76,15.32,87.14,63.83,88.46"/>
        <path d="M147.74,2535.13a87.68,87.68,0,0,0,8.49,25.15"/>
        <path d="M99,2591.68c25.91,5.55,62.46,33.79,23.67,24.59"/>
        <path d="M199.62,2670.58c-32.47-34.16-80.34-11.2-108.89-37"/>
        <path d="M261.21,2656c-57.11,1.12-65.5-44.79-89-47"/>
        <path d="M465,2713.13c-21.83-3.52-33.07,2.08-45.35,19-16.24,22.4-61.59,19.6-76.15,34.71"/>
        <path d="M453.41,2672.29c-24.49,16.94-60,19-89.74,1.08"/>
        <path d="M308.14,2731.65c34.25,7.79,39.85-15.16,71.76-8.45"/>
        <path d="M299.32,2663.31c0,17.64,52,20.7,21.24,38.62"/>
        <path d="M363.87,2070.7c23.21,70.9,81.77,79.92,95.3,103.12"/>
        <path d="M354.87,2149.16c11.4,17.5,45.1,15,29.63,27.89"/>
        <path d="M325.2,2283.39c52.84-33.67,118-45.14,165.82-28.2"/>
        <path d="M335.08,2201.47c37.17,22,125.35-20.07,136.34,10.38,4.6,12.76-41.16.64-74.68-1.29"/>
    </g>
    <g class="eye">
        <circle class="sclera" cx="781.14" cy="403.47" r="39.76"/>
        <path class="irisDarkBrown" d="M796.1,430.18c2.47.42,10.06-8.52,12.13-20.77s-2.16-23.18-4.63-23.6A127.49,127.49,0,0,0,796.1,430.18Z"/>
        <path class="pupil" d="M803.82,417.54c2,.33,3.61-3.36,4.41-8.13s.48-8.79-1.5-9.13A68.32,68.32,0,0,0,803.82,417.54Z"/>
    </g>
    <g class="skinEastAsian">
        <path d="M804.1,1470.31c-80.66-61.58-111.13-131.52-154.67-191.16-10.51,28.91-9.64,62.81-16.11,68.49,8.45,9.35,6.17,29.27-7.05,29.21-4.42,20-8.4,37-8.06,50.36,29.54,27.53,70.21,46.42,99.71,72.52,26,25.51,28.17,92,71.78,107,40.75,12.15,49.53,32.26,66.44,41.37,20.39,11.71,39.47-9.54,29.35-19.92-10.27-7.83-13.81-18.86-25.88-27.78-10-7.37-24.72-17.78-25.58-26.89,4.36-27.51,44.29-32.86,82-27.75-3,10.84,8.24,23.41,24.28,21.68,2.23,19,29.49,34.69,40.77,18.21,11.71,22.12,42.5,26,49,9.54,3-2.6-15.66-15.06-16-23.85,23.86,9.11,36.17-8.24,27.93-19.08-20-7.37-37.64-27.25-60.45-31.49,2.17-18.21-24.14-21.88-42.5-30.52-14.09-6.64-26-22.55-47.27-21.25C856.58,1470.74,815.94,1479.35,804.1,1470.31Z"/>
        <path d="M422,1758.49c-23.35,1-34.34-25.79-19-35.74-45.17-54.65-29.1-109.82-29.23-131.17-16.49-104-57.36-219.42-63.82-302.59,16.5-1.44,124.77,2.15,138.39,7.17,2.87,73.85-14.34,147.71,9.32,263.15,15,36.28,70.76,64.93,78.3,104.13,8.67,27.6,12.89,67.16,8.29,78.39-24.87,58-45.23,43.72-65.58,55.78-8.31,2.07-15.43-5.09-15.07-15.83-10.42.71-21.13-5.78-21.13-15.18C433.38,1766.6,426.57,1764.65,422,1758.49Z"/>
        <path d="M745.66,583.46c-86.81-5.57-108.76,57.06-121.25,107.36-38.14,22.65-182-42.71-184.41-77.28,29-73.25,5.17-168.67-47.82-248.83"/>
        <path d="M553.94,470.48c-29.56,17.64-42.2-1.52-58-20.64C265.78,311.12,672.58-14.37,834,203.28c-9.28,69.36,23.08,131.46-4.74,186.67-15,29.65,15.41,73,22.32,108.34,8.57,43.87-35.89,18.73-45.14,23.61-2.21,16-.92,28.59,3.32,33.19-2.49,8.19-14,13.28-18,11-10.61-6.48-35,3.93-37.34,5.92,17,8,50,30.13,26.84,43.18-35.39-.43-5.57,61.82-60.78,54.83-19-2.41-51.16-27.24-85.46-50.46-25.08-17-44.46-40.78-58-65.36M806,388.38c-16,1-30.18,10-38.33,15.59,10.45,7.11,18.76,15.63,33.56,22.61C808.5,416.51,811.43,399.51,806,388.38Z"/>
    </g>
    <g class="skinOverlapLine">
        <path d="M422,1758.49c18.82-.69,19.05-25.53,24.09-44"/>
        <path d="M479.16,1698.24c-1.68,31.92,5.6,65.52-36.7,68.36"/>
        <path d="M508.84,1685.36c2.24,28.56,6.36,54.44-2.51,69.51-5.89,10-27.73,20.65-42.74,26.91"/>
        <path d="M920.93,1494.18c15,8.61,44.24,23.07,60.54,26.6"/>
        <path d="M916,1545.77c31.9,1.89,48,10.12,72.65,11.35,6.32,4.36,14,11.12,25.35,14.23"/>
        <path d="M940.27,1567.45c-3.51-9.12.87-13.5-6.37-19.82"/>
        <path d="M981,1585.66c-8.12-13.08,3.2-9.07-25-33.73"/>
    </g>
    <g class="skinFoldLine">
        <path d="M404.93,1713.81c-2,4.69-2.86,14.73-2,19.86"/>
        <path d="M541.55,378.13c-17-64.54-89.82-19.77-52.35,37.26"/>
        <path d="M539.47,401.34c-17.66,11.52,9.07,26.9-2.69,32.34-8.14,3.75-3.4-12.15-22.79-20.95-22.74-10.31-2-45.6,11.3-31.35"/>
    </g>
    <g class="head50__edited">
        <path class="lipMaleMedium__noStroke" d="M754.41,572c2.35-2,26.73-12.4,37.34-5.92,4,2.27,15.51-2.82,18-11-20.35,2.58-46,9.14-56.82,16.68,5.57,19.77,8.94,36.5,28.32,43.43C804.37,602.15,771.42,580,754.41,572Z"/>
        <path class="lipEdgeLine" d="M780.76,615.12c-5.26-1.25-9.56-4.51-13.35-8.83"/>
        <path class="noseLine" d="M825,518.3c-14.12-2.13-24.77,3.23-31.12.27-7.08-3.31-6.75-14.58,1.08-21.94"/>
        <g class="eyeLidLine">
            <path d="M806,388.38c14-1.18,8.62-14.05,8.62-14.05"/>
            <path d="M801.22,426.58c3.93,3.08,6.12,7.88-1.53,14.22"/>
        </g>
        <path class="eyeCornerLine" d="M767.66,404c-4.17,1.74-7.68,3.78-12.46,4"/>
        <path class="eyeCreaseLine" d="M784.49,384.27c6.68-5.21,22-7,30.88-7.28"/>
        <path class="eyebrowBlack" d="M832.71,348.41c-22.94,22.84-46.42.88-77.21,10.44C783.12,331.83,804.24,351.67,832.71,348.41Z"/>
        <path class="hairBlack" d="M822.58,217.65c-11.73,60.7,9.31,110.83,62.19,115.35-30.28-39.43,19.08-88.86-30.15-136,9.2,3.48,24.15,13.12,36.41,20.43-22.52-36-34.22-95.67-159.06-145-51-20.17-142.56-35.92-205.65-24.33C531.77,29.12,551.19,11.8,574,1,541.13.26,512.79,26.89,499.39,55.7c-18.26-23.49-46.93-27.16-65.23-6.55,24-10.13,36.45-4.6,44.9,15C355.54,139,307.8,368.81,430.51,469.79c22.14-1.53,43.88-8.4,64.9-20-25.15-33.41-42-56.34-21.7-98.65,17.12-35.65,81.93-33.4,82.53,15.43,18.38,5.63,36.27,7.21,58.94,9.47,7.28-39.23,4.22-30.78,35.87-55,32.72,0,108.69,20.84,143.44-68.27-3.23,12.64-1.25,24.88-1.17,37C803.23,261.09,816.11,255.9,822.58,217.65Z"/>
        <path class="hairOverlapLine" d="M651.05,321c-10.92-1.26-28.48,1.35-38.38,2.86,15-7.41,25.77-13.22,34.11-18.35"/>
    </g>
</svg>
