<svg class="presence" 
  xmlns="http://www.w3.org/2000/svg" viewBox="0 0 1209.48 2970.43">
  <g class="soleWhite">
    <path d="M266.55,2881.1c3.55,12.1,3,34.38-1.51,39.73-5.26,5.94-18.89,7.38-25.86,17.06-32.62,45.3-178,35.5-187.44,9.91-6.37-20.16,2.15-66.64,19-80.27C133.37,2817.08,210.18,2836.45,266.55,2881.1Z"/>
    <path d="M778.76,2857.3c30.07,8.67,62.84,34,53.91,85.36-28.34,19.08-125.25,32-195.54,8.14-30.83-10.44-131-13.88-152.38-34.7-7.51-14.25-5.25-24.65-3.58-41.44C575,2842.57,702.83,2832.3,778.76,2857.3Z"/>
  </g>
  <g class="bennettShoe">
    <path d="M238.16,2700.54c-11.16,78.14,22.25,110.79,28.39,180.56-3.9,7.82-13.57,11.93-26.81,18.19-10.21,4.83-12.93,12.9-21,16.9-6.78-58.3-97-75.62-148-48.66,36.85-31.19,48.55-106.15,44.09-182.61C153.08,2661.56,194.53,2670.13,238.16,2700.54Z"/>
    <path d="M636.66,2667.6c.61,39.46,18.91,87.12,40,113.67,25.29,31.83,70.76,62.83,102.09,76-41.3-10.05-105.49,19.83-102.7,65.59-33.24-1.72-64.37-16.56-97.91-17.72-31.42-1.08-91.4-22.14-97-30.51-8.37-38,37.25-118.36,26.62-185.9C536.34,2663.2,598.51,2648.35,636.66,2667.6Z"/>
  </g>
  <g class="shoelace">
    <path d="M193.11,2747.72c-23.47-7.36-49.11-7-72.12-1.1-2.21,32.65-7.61,63.12-16.85,86.83,26.69-4.27,52.63-2.38,78.16,3.1C192,2809.54,195.42,2779.84,193.11,2747.72Z"/>
    <path d="M676.67,2781.27c-8.44-10.61-16.42-24.61-23-40.1h0c-13-.26-27.94,4.24-42.25,9.7,12.9,39.86,33.81,71.14,58.35,88.19,18.15-9.62,33.79-12,58.93-10.47C709.08,2814.72,690.05,2798.11,676.67,2781.27Z"/>
  </g>
  <g class="converseLogo">
    <path d="M241.75,2860.2c-15.23,3.15-21.66-69.47-7.75-74.26C244.37,2782.37,256.49,2857.14,241.75,2860.2Z"/>
    <path d="M546,2864.41c34.27,4.33,40.35-69,3.52-74.66C515.08,2784.45,509.35,2859.78,546,2864.41Z"/>
  </g>
  <path class="bennettJeans" d="M643,1430c20.22,92.26,9.19,241.81,19.41,296.44,12.51,66.85-.48,246.13,10.3,344.08,5.67,51.55-17.7,96.21-14.12,114.7,6.93,35.82-7.12,79.69-3.53,112.93,4.66,43.15-8,184.44-3.77,199.1,16.85,58.67-14.56,93.92-6.68,102.46,22.66,24.6-7.4,49.66-6.31,87.81-5-16.62-44.63-13.19-43.83,17.3-25.57-7.79-57.29,22.28-84.28,31.25-8.43-23.23-51.93-35.49-27.81-71,10.7-15.75-27.43-18.85-24.57-69,5.85-103-26.22-280.25-8.71-399,6.72-45.5-10-77.51-17.55-143.92-14-122.86-26.3-283.13-47.65-318.27-24.59,44.45-34.79,263.27-47.66,392-3.84,38.41-3.12,69.2-18.72,105.31-22.23,51.49,5.34,138.08-26.25,278.49-13,57.76,11.7,110-25.74,162.64,27.1,50.44-16.43,48.73-28.95,74.42-9.7-16.12-31.22-10-42.5-30.13-.34-25-63.21-29.73-66.09-4.13-6.69,11.65-11.41,13.07-12.77,22.64-44.53-42.53-16.11-73.28-13-115.56-15.42-16.16-14.46-42.57-6.72-73,8.55-33.65-4.48-181.34,3.72-264.22,2.46-24.86,13.06-51.14,9.61-79.75-5.65-46.9,23.59-61.15,13.45-73-33.63-39.4-9.61-38.05-17.29-194.09-9.61-195-3.53-390.09,28.17-531.33"/>
  <path class="shirtWhite" d="M652.15,1448.5c-157,111.29-399.89,86.92-530-33,7.47-13.26,10.72-36.82,3.41-48.19-8.65-13.46,11.51-23.7,6-38.76-13-16.46,9.44-36.8,6.57-67C-7.31,501.62,794.74,440.36,629.05,979.5,613,1156,650.79,1134,623.31,1167.41c10.77,28.43.28,41,1,56s13,17.06-4.07,33.31C647.9,1303.89,626,1372.13,652.15,1448.5Z"/>
  <path class="bennettSleeves" d="M483.55,597.09c67.58,34.18,135.36,29.39,153.3,69.45,3.5,7.81,18.35,3.07,23.72,33,28.24,22.23,26.25,78.77,50.82,125.36,13.6,25.79,30.49,19.48,31.33,65.21,13.14,18.44,37.15,28.21,39,61.83,22.78,47,73,81.91,32.67,183.46-6.47,16.22-150.94-11.17-144.41-26.84,7-21-8.58-38.42,8.49-44.29,2.78-14.67-19.13-6.46-11.36-25.36-32.42-11.91-26.26-35.87-38-59.44,10.4-24.36.87-42.59,1.5-78.46.53-29.88,11.64-31.49,2.74-54.09,14.92-18-1.22-23.46-1.91-39.21.69-44.51-37-14.31-63.14-74.45-14-32.15-25.33-6.85-52.72-47.93-45.87,39-152.69,44.51-211.57,17.8-76.77,64.46-56.7,74.15-82.17,76-.86,11.58-3.93,20.42-10.72,24.64,8.72,16.51-8.1,80.08-27.48,132.67-11.56,31.4-2.07,56.06-17.3,67.13-14.53,44.29,18.62,50.3-14.53,67.13,5.68,12.61,7.94,23.7-4.15,28.38,18.68,10.14,28.59,21.84,32.52,34.6,24,53.52-122.53,148.36-152.94,78.51C-4,1202.54-2.93,1107.86,7.8,1097.73c10-9.4-13.15-13.84,5.54-59.51-9.69-27.69,15.91-31.15,15.91-79.59C9.33,924.38,44,913.42,62.47,786.31c23.09-158.68,148.1-137,216.62-193.78Z"/>
  <g class="clothesDisplayLine">
    <path d="M400.55,1520c-4.55,22.3,15.93,52,5.08,79.62-10.4,26.46,5.67,39.7-7.57,67.1-14.7,30.46,2.84,29.3-14.13,68.13"/>
    <path d="M451.13,1518.47c9.94,62.46,18,159.63-59.49,174.81"/>
    <path d="M295.52,1505.54c-42.88,30.57-89.95,44.57-144.14,33.62"/>
    <path d="M547.4,1499.9c24.73,18.27,48.24,26.89,79.78,29.39"/>
    <path d="M218.77,2916.19c-59.53,27.86-144.64,20.21-168.3,1.28"/>
    <path d="M676.06,2922.89c46.67,8.2,130.48,3.15,155.65-16.11"/>
  </g>
  <g class="clothesOverlapLine">
    <path d="M194.11,2717.59c-1.71,8.54-1.75,20.21-1,30.13"/>
    <path d="M186.85,2822.06c-27.41-5.08-53.46-6.57-77.72-3.29"/>
    <path d="M190.2,2807.28c-27.19-4.59-53.15-5.88-77.39-2.51"/>
    <path d="M192.48,2791.77c-26.22-3.62-51.78-4.5-76.56-2.13"/>
    <path d="M193.57,2777.54c-27.16-3.49-52.61-4.71-75.43-2.41"/>
    <path d="M193.81,2762.36c-26.19-3.58-51.06-4.06-74.18.22"/>
    <path d="M121,2746.62c0-10.73,3.52-25.88,7-33.16"/>
    <path d="M617.49,2767.61c15.51-4.79,32.63-10.2,44.3-9.39"/>
    <path d="M625.25,2784.65c15-5.58,32.36-10.84,46-10.69"/>
    <path d="M634.21,2800.42c16.18-6.89,33.48-12.73,48.08-12.46"/>
    <path d="M644.34,2814.71c16.91-8.11,34.39-13.42,51.56-12.76"/>
    <path d="M656.29,2827.93c18.72-9.1,36.68-14.86,54.74-12.75"/>
    <path d="M594.5,2704.85c5.14,6.31,11.26,35,16.9,46"/>
  </g>
  <g class="clothesFoldLine">
    <path d="M15.83,1180.16c-14.35-85,69-104.87,131.77-81"/>
    <path d="M42.32,1140.42c12.15-32.56,69.54-41.39,109.28-32"/>
    <path d="M31.29,1067.57c33.66-3.31,67-20.64,94.37-2.76"/>
    <path d="M38.46,1033.35c56.3,1.66,88.31,25.94,113.29,37.39"/>
    <path d="M29.25,958.63c9.21,9.6,35.91,54.81,10.31,45.47"/>
    <path d="M55,947.81c39.74,81.68,96.58,78.92,110.06,96.19"/>
    <path d="M85.37,862.26c26.49,50.22,64.42,94.39,80.91,141.35"/>
    <path d="M100.27,835.77c13.8,63.47,74.56,130.24,74.56,153.12"/>
    <path d="M129,736.62c2.12,33.44,15.24,61.79,43.17,88"/>
    <path d="M154.4,766.25c11.24,35,29.56,60.78,56.5,75.3"/>
    <path d="M167.52,712.08c21.38,22.12,35.55,53.11,43.54,91.73"/>
    <path d="M202.65,715.46c8.6,16.95,19.46,41.48,19.13,63.71"/>
    <path d="M246.66,737.05c.85,23.88-6.85,50.93-27.93,83"/>
    <path d="M219.88,834.69c22-24.54,36.09-12.58,5.62,6"/>
    <path d="M273.75,810.26c-18,28.56-37.93,48.07-62.22,47.83"/>
    <path d="M483.19,771.32C433.45,803.39,380.87,824.91,325,834.18"/>
    <path d="M551.57,745.08c-37.55,36.72-78.13,64.81-123,80.81"/>
    <path d="M486.64,925.35C425.42,949.14,361,964,291.86,966.1"/>
    <path d="M578.5,888.74c-51.63,42.64-111.9,67.59-180.27,76"/>
    <path d="M338.14,1091.12c-44.79,2.12-86.37,1.87-120.18-4.15"/>
    <path d="M428.62,1087c-51.91,15.8-103.49,22.08-154.71,18"/>
    <path d="M369.91,1198.18c-37.91,2.69-73.29,1.43-105-5.53"/>
    <path d="M443.82,1210.61c-46.16,6.51-90.47,8.75-131.24,2.76"/>
    <path d="M154.41,1315.59a49.16,49.16,0,0,0,31.09,22.8"/>
    <path d="M223,1376.85c33.22,12.3,70.2,22.22,109.6,30.61"/>
    <path d="M131.53,1328.5c16.14,12.51,34.7,23.49,55.25,33.2"/>
    <path d="M218.79,1409c47.39,13.37,102.36,21.6,153.89,24.67"/>
    <path d="M125.53,1367.26c13.49,10.27,30.68,19.38,50.39,27.32"/>
    <path d="M226.25,1435.78c69.92,30.78,145.77,41.62,226.55,35.91"/>
    <path d="M488.92,1431.09c9.66-.72,15.34,1.66,13.61,10.21"/>
    <path d="M416.19,1447.52c11.81-1.59,25.74-5.45,38.92-9"/>
    <path d="M610.28,1325.26c-28.18,36.26-69.48,60.19-120.19,75.29"/>
    <path d="M616.54,1362.75c-53.87,41.44-140.17,69.36-24.22,48.16"/>
    <path d="M613.73,1423.34c-16.65,15.14-42.23,23.58-74.6,26.94"/>
    <path d="M602,1243.76c-33.9,14.73-73.33,23.38-117.42,26.94"/>
    <path d="M613,1151.9q-19,9-44.9,12.43"/>
    <path d="M623.31,1167.41c-9.38,7.39-21.15,11.43-35.83,11.43"/>
    <path d="M620.27,1256.77c-11.36,8.37-30.71,14.64-55.58,19.45"/>
    <path d="M594.39,711.92c3.84,32.55,12.4,68,14.5,105"/>
    <path d="M624.78,685c15.42,53.37,14.49,104.65-1.38,154"/>
    <path d="M660.57,699.57c7.55,41.6,1.53,87.63-22.25,139.44"/>
    <path d="M655.86,840.39c18.62-50,.69,40.06,1.38,116"/>
    <path d="M676.58,761c19.34,103.61-26.24,245.89,31.77,255.56"/>
    <path d="M720.1,849.37c4.14,11.16.24,24.45-12.44,40.06"/>
    <path d="M742.72,890.14c-1,15.75-8.29,32.51-26.77,51.1"/>
    <path d="M761.54,922.59c8.79,21.43-3.47,45.56-26.94,71.14"/>
    <path d="M781.69,952c.18,13.49-1.67,26.49-8.41,38.31"/>
    <path d="M661.39,1016.52q13.74,8.13,5.69,22.42"/>
    <path d="M800.22,1035.17c-52.5-12.43-108.84,29.49-130.17,17.59"/>
    <path d="M696.61,1085.59c32.9-5,63.08-2.45,89.79,9.67"/>
    <path d="M678.44,1064.3c36.13-.81,128,11.62,69.28-12.55"/>
    <path d="M796.76,1052.44c-18.21-8.81-36.23-13.72-54-14.32"/>
    <path d="M456.32,1702.16c35.84,1,71.28,3.82,106.39,8.17"/>
    <path d="M450.82,1749.85c24.55,5.57,66,25.68,101.8,37.6"/>
    <path d="M350.85,1697.57c-46,4.36-88.38,9.19-125.65,14.68"/>
    <path d="M337.09,1743.43q-72.19,27.21-142.15,58.69"/>
    <path d="M502.17,1900.26c-8.46,44-25.06,82-48.1,98.13"/>
    <path d="M631,2122.2c-46.37,26.06-101.94,21.27-146.66-16.5"/>
    <path d="M470.58,2131.37c38.52,22,88,24.77,5.5,68.79"/>
    <path d="M638.32,2145.13c-17.42,10.09-35.76,11.92,5.51,32.1"/>
    <path d="M639.24,2205.66c-27.72-36.91-104.2-22.7-99.84-8,1.58,5.33,36.35,4.9,54.48,25"/>
    <path d="M581.14,2234.39c-30.86-22.53-82.06-31.6-107.49-15.18"/>
    <path d="M133.12,2070.28c45.86,85.7,115.68,103.77,184.46,48"/>
    <path d="M122.28,2130.53c16,14,23.24,27.22,2.51,38.22"/>
    <path d="M309.25,2150.13c-31.76,12.77-38.17,29.61-4.41,52.91"/>
    <path d="M132.14,2194.22c41.15-47,140.6,3.58,129.1,7.27-46,14.78-63,29.48-92.36,20.66"/>
    <path d="M298,2224.11c-21.69-17.18-64.38,17.14-96.71,19.1"/>
    <path d="M102.22,2620.54c23.18,14.62,45.89,23.6-.79,44.87"/>
    <path d="M265.56,2673.3c-9.6-14.17-54.68-9.61-10.17-26.73"/>
    <path d="M245.68,2699.08c-39.38-25.68-90.74-38.24-140.4-10.28"/>
    <path d="M633.62,2531.29c17.12,34.81-64.92,90.74-100.31,65.06"/>
    <path d="M629.06,2599.77c-27,22.3-21.12,28.54,5.13,29.11"/>
    <path d="M476.23,2601.49c12,25.68,72.71,43.62,31.26,55.35"/>
    <path d="M614.92,2649.43c-48.51-15.41-71.48,25.11-106.86,37.66"/>
    <path d="M118.55,2583.79c5.13,36.53,19.26,20,52.37,37.1,19.72,10.2,134.12-9.7,81.62-39.38"/>
  </g>
  <g class="cable">
    <g class="cableWire">
      <path d="M480.57,2857.52c-30.19-.9-62.76-4.55-79.4-9.41,22.17-2.48,53.51-3.83,81.34-3.2.87-4.34,1.94-8.88,3.17-13.59-36.72.59-72.34,2.12-98.54,6.44,5.45-7.17,51.25-13.56,100.62-14.14,1.67-5.94,3.5-12.11,5.39-18.46-82.62,1.83-177.63,8.37-176.69,37.45.36,11.29,12.37,19.22,30.86,24.88,12.64,19.49,76.26,21.43,132.31,23,.28-4.79.95-9.93,1.54-15.86A55.67,55.67,0,0,1,480.57,2857.52Zm-133.2-4.24c-9-2.94-14.38-6.43-14.38-10.59,0-7.33,19.94-13,48.18-16.86-6.63,3.61-10.29,8-10.08,13.48a14,14,0,0,0,.18,1.74C359.6,2844.1,351.2,2848.08,347.37,2853.28Zm15.79,4c2.36-2.69,6.1-4.83,14.06-6.16,9.2,6.32,27.46,11.16,47.11,13.59C401.67,2863,379.81,2860.57,363.16,2857.25Z"/>
      <path d="M988.27,2865.13C735.93,2682,574.91,2040,600.49,1753.94c67.13,89.21,192.33,69.5,251.58-34,66.19-115.57,27.15-270.77-91.13-271-109.22-.19-163.06,158.45-168.66,266.32-94.15-153.4-95.68-381.63-189.32-437-129.2-76.34-226,10.83-244.1,214-15.8,177.17,59.81,288.88,162.5,288.88,122.5,0,167-152.58,161.87-316.81,26.92,110.27,57.35,192.52,104.83,271.82-28.88,257.51,102.71,898,377.27,1134.34-7.25,1.8-14.73,3.46-22.29,4.91a372.34,372.34,0,0,0-61.11-22.36c-.27-8.9-13.18-19.16-34.3-25,3.18-29.07-83.18-46.37-160.42-34.81,4.43,4.65,9.22,9.24,14.24,13.71,38.75-2,99.65,3.82,105.81,14.8-24.74-3.21-67.42-4.37-91.66-3,6.42,5,13,9.82,19.65,14.27,22.76-.18,51.52,1.21,70.54,2.71-4.93,5.28-24.63,9.26-47.2,11.57a217.22,217.22,0,0,0,20.17,9.91c17.29,5,35.47,15.48,46.1,33.27,35.73,12.17,76,10.52,115.66,1,20.54,10.09,42.89,26.92,65.18,35.41-.78-4.59,1-10,4.44-12.9-21.31-8.31-34-19.51-49.62-27.65,5.56-1.35,15.15-2.81,20.78-4.37,76,48.26,218.81,56.42,226.82,17.53C1216,2861.21,1091.88,2848.57,988.27,2865.13ZM759,1463.11c113.34-5.42,137.39,158.34,80.46,250.67s-172.54,118.85-236,19.39C613.67,1640.62,644.63,1468.59,759,1463.11Zm-300,51.52C455.67,1635,406.11,1804,274,1742.37c-103.38-48.19-115-230.85-64.52-378.53-7.26,38.24-9.82,77.15-8.55,116.59,0,1,15.22,1,15.22,0-.55-64.14,5.3-123.29,25.65-167.33C319.05,1236.13,465.34,1278.58,458.94,1514.63ZM841.31,2841.35c9.32,2.3,16,5,19,8.12a116.26,116.26,0,0,0-27.19-1.55A55.35,55.35,0,0,0,841.31,2841.35Zm-28.15,26.47c-.58-6.2,19.76-11,42.78-7.59C847.63,2864.29,831.71,2866.86,813.16,2867.82Zm24.76,11.53c12.82-2.15,33.24-9.12,37-14.29,13.12,3.13,31.79,10,45.4,15.92C895.8,2885.23,857.71,2886,837.92,2879.35Zm349.57,17.16c-2,20.44-119.43,13.31-179.14-18.5C1090.13,2865,1189.11,2879.63,1187.49,2896.51Z"/>
    </g>
    <g class="cableGuard">
      <path d="M197.37,1553c0,2.87,22.85,2.87,22.85,0v-71.75c0-2.17-22.85-2.17-22.85,0Z"/>
      <path d="M1057.35,2945.26c11.36,2.7,16.65-19.52,5.29-22.22l-45-10.69c-12.16-2.9-17.45,19.33-5.29,22.22Z"/>
    </g>
    <g class="cablePlug">
      <path d="M202.59,1554.83V1607l6.2,7.36L215,1607v-52.2A62.66,62.66,0,0,1,202.59,1554.83Z"/>
      <path d="M1062.29,2941.07l33.93,8.07,8.59-4.33-5.72-7.73-33.93-8.07C1057.88,2927.27,1055,2939.34,1062.29,2941.07Z"/>
    </g>
    <g class="cableOverlapLine">
      <path d="M483.23,1464.47c-1.27-35.5-5-66.7-20.65-107.71"/>
      <path d="M241.75,1313.1c-12.52,12.27-23,29.46-32.32,50.74"/>
      <path d="M417.06,1302.89c90.22,111.66,52.7,373.39-32.16,430.55"/>
      <path d="M315.81,1261.79c-98.24,6-151.44,117.3-150.72,279.4.54,123.71,56.86,220.26,151.73,229.53,82.22,8,136.4-72.9,159.48-180.52"/>
      <path d="M347.37,2853.28c-3.24,4.26-3.45,10.44-.05,14.21"/>
      <path d="M363.16,2857.25c-7.27,14,49.79,16.12,118,17.41"/>
      <path d="M381.17,2825.83c22.32-10.35,70-12.87,109.82-13.39"/>
      <path d="M387.14,2837.76c-5.88,1-11.24,2-15.87,3.29"/>
      <path d="M401.17,2848.11c-7.77.55-15.77,1.58-23.95,3"/>
      <path d="M424.33,2864.68c20.64,1.39,37.84,2.12,55.91,2.35"/>
      <path d="M588.06,1736.29c4,5.67,8.09,11.52,12.43,17.65"/>
      <path d="M592.28,1715.32c3.26,5.36,7.06,12,11.17,17.85"/>
      <path d="M965.33,2870.63q7.42,5.73,16,11.46"/>
      <path d="M988.27,2865.13a122.5,122.5,0,0,0,20.08,12.88"/>
      <path d="M960.52,2886.46q-9.74,2.85-20,5.14"/>
      <path d="M943,2875.54q-11.43,2.68-22.73,5.44"/>
      <path d="M881.93,2853.18a21.76,21.76,0,0,1-7,11.88"/>
      <path d="M837.92,2879.35a162.25,162.25,0,0,1-19.16,2.69"/>
      <path d="M805.79,2835.82c12.3.93,24.2,2.44,35.52,5.53"/>
      <path d="M807.26,2821.83a228.25,228.25,0,0,1,40.37,6.3"/>
      <path d="M821.19,2837.39c-9.15,6-26.35,11.28-53.36,14.87"/>
      <path d="M687.86,2794c76-7.31,138,11.42,141.35,30.33"/>
      <path d="M860.35,2849.47c5.6,3.72,3.89,7.3-4.41,10.76"/>
      <path d="M813.16,2867.82c-3.48.23-6.88.38-10.16.44"/>
      <path d="M833.16,2847.92a164.75,164.75,0,0,1-38.9,15.37"/>
    </g>
  </g>
  <g class="eye">
    <circle class="sclera" cx="519.6" cy="325.77" r="106.1"/>
    <g class="irisDarkBrown">
      <ellipse cx="484.69" cy="334.72" rx="21.42" ry="22.5" transform="translate(-28.84 46.19) rotate(-5.3)"/>
      <ellipse cx="607.13" cy="322.53" rx="21.42" ry="22.5" transform="translate(-27.19 57.44) rotate(-5.3)"/>
    </g>
    <g class="pupil">
      <ellipse cx="486.19" cy="334.58" rx="8.33" ry="8.75" transform="translate(-28.82 46.32) rotate(-5.3)"/>
      <ellipse cx="608.62" cy="322.39" rx="8.33" ry="8.75" transform="translate(-27.17 57.58) rotate(-5.3)"/>
    </g>
  </g>
  <g class="skinEastAsian">
    <path d="M240.6,1315.63c7.35,13.89,19.42,21.7,38.86,20,14.25,29.64,37.73,8,47.88,16,13.11,10.26,24.84,3.87,37.62.85,42.18-10,55.29-24.22,71.82-63.55,9.12-13.68-5.13-26.79-16.53-20,7.41-17.1-11.4-25.65-23.37-18.81-5.7-18.81-31.35-12.54-42.75,13.11,0-10.31-9.28-13.8-17.21-12.66-11.13-24.15-31.5-38.82-63.73-40.35-22.81.9-30.78-30.77-70.79-24-8.59-11.92-14.79-26.15-29-45.36C114.29,1106,21.15,1148,39.85,1220.22c34.34,54.34,117.38,56.19,181.05,79.78,30.5-38.29,67.4-52.31,109.1-48.16-10.28,4.26-19.41,13.93-27.56,28.18C276.16,1284.51,243.34,1307,240.6,1315.63Z"/>
    <path d="M628.68,1326.52c34.3-63.64,30.05-137.61,43.27-216.93,31.85-26.44,130.4,1.8,139.41,25.84-8.18,64.39-61.29,143-90.74,210.92-6.66,6.78,42.21,30.1,50,126.74-.65,8.43,9.55,26.84,7.77,38.43-1.26,8.26-14.44,14.33-22.21,9.89,3.89,17.77-14.44,29.43-25.55,22.21.52,16.4-21.1,24.44-30.54,17.22,1.66,20.55-23.89,28.32-35,16.66-5.79-4.52-12.7-42-20.73-47.79-4,6.25-7,13.1-10.3,19.22-8.46-30.74-26.91-48.34-21.73-98.06C617.09,1405.17,607.53,1365.76,628.68,1326.52Z"/>
    <path d="M508.28,542c-19,8.14-20.26,60.79-9.15,79.34,35.35,74.73-217.14,87.86-232.29-11.11,28.46-10,29.72-120.55,6.65-172.15"/>
    <path d="M291.33,468.3c-21.25,16.42-36.37,7.63-44-5.67-13.63-23.8-47.87-33.63-50.52-82.71C162.08,232.92,461,34.86,620.14,174.79c-12.36,94.81,23.06,89.07,8.82,148-4,30.91,43.55,112.34-15.84,215.35-14.48,25.11-20.76,57.15-56,65.18-51.12,11.64-72.45.86-140.49-21.25-26.79-8.71-61.08-25.76-86.91-60.88M503.3,336c-8.29-14.73-22.44-19.11-35.45-17.57-16.69,2-32.28,15.73-41.3,24,9.8,2,19.78,6.88,38.86,6,10-.46,20.21-6.8,34-6.6C502,341.93,506.19,341.16,503.3,336Zm73.51-2c7.59-3.29,22.56,9.26,42.54-5.51,2-4.76,1.44-11.74-.27-15.85a21.22,21.22,0,0,0-18.65-3.8c-14.36,3.46-21.4,12.41-28.59,22C569.9,333.51,573.06,335.71,576.81,334.08Z"/>
  </g>
  <g class="skinOverlapLine">
    <path d="M626.92,1470.52c2.22,22.36,6.14,43.48,17.44,59.19"/>
    <path d="M684.06,1518c6.63,5.62,14.62,33.1,16,42.88"/>
    <path d="M719.26,1507.25c3.06,10.2,8.57,22.12,11.36,36.37"/>
    <path d="M749.87,1492.45c-2.55,7.15,4.9,20.56,6.3,29"/>
    <path d="M420.25,1268.93c-5.88,9.21-8.27,31.38-20.6,47.83-7.61,10.15-19.66,13.32-36.15,19.66"/>
    <path d="M338.77,1328.17c30.44-12,48.2-40.58,58.11-78.05"/>
    <path d="M279.46,1335.62c55.5-15.06,66.92-53.74,74.67-72.39"/>
    <path d="M202.4,1186.2c-20.81,6.71-13.3,29.73,15.24,49.39-4.87,17.57.27,42.5,10.52,55.91"/>
    <path d="M271.72,1247.62c-17.41-5.54-36.06.45-54.08-12"/>
    <path d="M336.92,1250.57a20.51,20.51,0,0,0-6.92,1.27"/>
  </g>
  <g class="skinFoldLine">
    <path d="M259.19,1212.15c2.07,7.43-2.89,19.82-9.08,22.3"/>
    <path d="M258.4,374.18c-30.52-55.76-79.55,7-22.9,53.23"/>
    <path d="M260.16,397.7c-14.1,15.68,19.67,29.05,9.7,37.32-6.9,5.73-7.35-12.33-25.81-22.95-22.39-12.88-6.83-41,4.4-28.66"/>
  </g>
  <path class="lipMaleMedium__noStroke" d="M579.7,467.13c-8.64,6.69-20.94,10.15-32.47,6.16-16.43.35-23.64,15-56.83,25.11,8.46,7.35,27.92,51.31,62.66,42.54,47.65-12,11.49-33.85,31.43-55C570.69,480.92,593.17,473.43,579.7,467.13Z"/>
  <path class="mouthInner" d="M505.83,495.91c-4.34,1.08-8.83,2-13.39,2.81,30.9,25.66,75.63,27.8,77.37-1.32l0,0C554.49,510.23,524.68,506.89,505.83,495.91Z"/>
  <path class="teeth" d="M568.06,481.74c-4.75,3.57-10.1,5.42-17.24,2.05-4.36-2.05-22.66,6.54-45,12.12,18.85,11,48.66,14.32,64,1.46.27-.22.52-.45.78-.69q.71-.63,1.38-1.32l.17-.18c.28-.3.55-.6.81-.91l.34-.4.62-.79.56-.78c.12-.17.24-.33.35-.5a29,29,0,0,0,3.16-6.52l.06-.2C575.2,484.89,571.74,483.41,568.06,481.74Z"/>
  <g class="lipOverlapLine">
    <path d="M568.06,481.74a26.5,26.5,0,0,0,2.17-2"/>
    <path d="M578.08,485.08a28,28,0,0,0,10.87-.64"/>
  </g>
  <g class="lipEdgeLine">
    <path d="M547.23,473.29c11.53,4,23.83.53,32.47-6.16"/>
    <path d="M507.58,522.22c24.94,29,72.13,24.45,72.66-10.74"/>
  </g>
  <g class="cheekLine">
    <path d="M593.4,432.08c5.28,4.06,6.57,8.56,9,17.08"/>
    <path d="M510.8,422.2c-7.13,4.68-12.47,10.7-21.11,27.25-8.43,16.14-14,21.2-15.54,31.22"/>
  </g>
  <g class="noseLine">
    <path d="M574.31,383.22c4.91,27.44,32,36.27,12.77,61.21"/>
    <path d="M510.8,422.2c-6.27,5.24-7.14,22.41,5.84,27.35"/>
    <path d="M530.07,449c5.88-10.47,16.24,1.81,33.58.2,12.43-1.16,17.69-5.43,21.41-11.21"/>
  </g>
  <g class="eyeFoldLine">
    <path d="M616.13,344.84c-9.75,7.05-20.31,7.79-29.23,3.42"/>
    <path d="M491.93,356.35c-12.11,9.64-32.58,8-38.41,3.8"/>
  </g>
  <g class="eyeCornerLine">
    <path d="M414.54,354.93c3.78-2.58,8.84-9.56,12-12.44"/>
    <path d="M619.08,312.72c2.17,1.37,3.11,4,5.29,4.74"/>
  </g>
  <path class="eyeCreaseLine" d="M429.07,328.39c19.81-23.35,49.79-23.77,66.47-12.08"/>
  <g class="eyebrowBlack">
    <path d="M516.51,268.66c-16,33.17-74.57,2.72-108.06,40.94C432.83,259.62,471,284.71,516.51,268.66Z"/>
    <path d="M628.4,272.4c-21-13-39.89-2.3-58.93-9,11.62,24.67,28.91,5.13,61.7,20.3A106.54,106.54,0,0,0,628.4,272.4Z"/>
  </g>
  <path class="hairBlack" d="M430.63,183.22c18,86.9,104,66.84,127.84,86.06-4.17-9-6.61-18.7-15.77-28.15,26.21,18.75,74.47.42,101.92,28.11,3.18-38.55.72-82.93-22.14-117.08,7.07,4.56,16.86,6.72,33.68,9.31-55-43.58-80.3-142.33-242.08-140.76-56.3.54-142.07,17.1-174.59,50.16-3-24.06,10.66-52.91,28.43-67.65-32.62,12.84-52.4,54.62-49.47,82.34C208.09,62.82,171.72,60,157.66,83.73c27.83-16,49.68-2,48.12,21.46-68.33,85.15-32.17,261.22-9,274.73-2.81-45.58,51.71-66.48,66.27-19.08,11.73,1.16,42-.93,52.83-4.09,1.27-33.59-7.84-26.51,11.23-58.4,27.44-7.42,69.61-13.06,84.65-49.4-.18,13.59-.29,21.11-4.59,35.38C417.31,269.72,437.4,259.32,430.63,183.22Z"/>
  <path class="hairOverlapLine" d="M327.15,298.35c-14.22,4.4-21.6,4.67-29.75,6.63,9-8,15.07-13.48,21.87-21.66"/>
</svg>
