<svg id="presence" xmlns="http://www.w3.org/2000/svg" viewBox="0 0 893.88 2967.9">
  <defs>
    <style>
      .cls-1 {
        fill: none;
      }

      .cls-1, .cls-10, .cls-11, .cls-12, .cls-13, .cls-14, .cls-15, .cls-2, .cls-3, .cls-4, .cls-5, .cls-6, .cls-7, .cls-8, .cls-9 {
        stroke: #000;
        stroke-miterlimit: 10;
        stroke-width: 2px;
      }

      .cls-2 {
        fill: #b0ad9a;
      }

      .cls-3 {
        fill: #7e8070;
      }

      .cls-4 {
        fill: #bdbfb0;
      }

      .cls-5 {
        fill: #9aacb0;
      }

      .cls-6 {
        fill: #7a9ca3;
      }

      .cls-7 {
        fill: #84a8b0;
      }

      .cls-8 {
        fill: #647173;
      }

      .cls-9 {
        fill: #829599;
      }

      .cls-10 {
        fill: #8eb4bd;
      }

      .cls-11 {
        fill: #bdc7c9;
      }

      .cls-12 {
        fill: #859db5;
      }

      .cls-13 {
        fill: #78a7d9;
      }

      .cls-14 {
        fill: #6994bf;
      }

      .cls-15 {
        fill: #719fcc;
      }
    </style>
  </defs>
  <title>gateCode</title>
  <g id="bennettSoleSide">
    <path class="cls-1" d="M717.22,2911.56c4,12.92,2.45,25.71-2.4,30.79-42.16,32.36-169.93,25.12-185.2-8.55-7.3-18.29-25.32-19.54-29.41-30-2.29-8.74-.65-20.44,2.8-32.81Z"/>
    <path class="cls-1" d="M435.29,2912.4c1.48,13.67.68,32.28-3.68,37-9.8,16.61-107.66,26.75-161,5.54-37.48-14.91-75.11-6.39-101.36-42.16-11.08-45.15,21.49-70.42,57-82.29Z"/>
  </g>
  <g id="bennettShoe">
    <path class="cls-1" d="M683.92,2754.31c6.89,70.77,29,84.43,33.3,157.25-18.6,21.52-170.9,30.34-186.8-12C524.5,2883.76,513.58,2883,503,2871c2.43-43.73,41-61,56.36-129.14Z"/>
    <path class="cls-1" d="M410.94,2765.34c9.57,40.46,26.65,98.35,24.35,147.06-3.67,11-81.34,32.87-133.27,18.17-40-10.57-71.69-8.52-105.24-31-11-77.2,52.39-49.63,89.62-154Z"/>
  </g>
  <path id="converseLogo" class="cls-1" d="M548.79,2884.85c13.23,4.89,15.57-70.81,2-74.66C539.71,2807.05,537.21,2880.58,548.79,2884.85Z"/>
  <path id="clothesDisplayLine" class="cls-1" d="M196.78,2899.53c-11.23-6.36-20.66-13.36-27.07-21.41"/>
  <path id="bennettJeans" class="cls-1" d="M720.9,1430.08c25.14,53.73,39.19,485.12,11.77,689.72-4.61,34.37,17.44,57.37-7.39,78.27-2.06,23.86,18.21,44.26,0,62,11.27,106.21-1.31,236.25-2.95,366.28-.43,34.19,29.59,51.14-8.86,90.09-15,26.6,5,57.27-25.85,64.55-80.76,19-168.49-16.15-142.39-72.75-28.09-31.58,10.08-58.28-5.37-202.78A2310.64,2310.64,0,0,1,527.1,2249c-33.91-17.95-1.3-57.73-14.77-141.68-10.74-66.94-20.94-136-26.86-228.29-24.8,260.67-10.93,234.91-34.24,310.21-4.43,29.73,17.42,56.71-2.68,72.34,5.19,138.69-4,230-10.39,342.86-3.31,58.53,29.45,92.07-11.42,117.4-15.38,16.35,6.57,48.92-13.22,54.19-99.48,26.49-155-15.12-151.43-63.37-43.16-37.94,8.3-82.52-8.49-198.45-13.75-95-21.56-185.15-12.88-261.56-16.84-31.7-4-53.5-4.95-73.32C222.89,2027.74,209,1791,222.89,1756.27c-24.77-17.83-7.49-38.67-8.92-56.47-5.94-74.31,4.66-175.74,30.72-270.48Z"/>
  <g id="clothesDisplayLine-2" data-name="clothesDisplayLine">
    <path class="cls-1" d="M530,1511.55c15.27,76.87,19.32,151.2-9.9,218"/>
  </g>
  <g id="clothesOverlapLine">
    <path class="cls-1" d="M583.21,1766.38c-20.79,7.87-54.07-6.11-91.06.64-70.84,12.94-90.56-11.47-99.79,1.23-4.93,6.78,24,17.25,41.27,16.63"/>
    <path class="cls-1" d="M492.15,1767c3.09,34-4.31,76.39-6.68,112"/>
  </g>
  <g id="clothesFoldLine">
    <path class="cls-1" d="M469.36,1789.2c-12.32,24.64-31.42,77.62-40.66,100.41"/>
    <path class="cls-1" d="M508.79,1802.75c5.27,27.38,19.36,66,27.1,92.4"/>
    <path class="cls-1" d="M566.69,1788c-42.07-.58-40.22,27.51-5.54,77"/>
    <path class="cls-1" d="M362.79,1807.06c57.47-9.66,77.16.26,33.26,43.12"/>
    <path class="cls-1" d="M446,2038.07c-18.08,105.74-60.07,178.65-173.1,154"/>
    <path class="cls-1" d="M451.23,2189.23c-20.06,56.44-154.09,27.91-150.66,39.81s50.79,11.07,108.42,7.39"/>
    <path class="cls-1" d="M272.23,2254.3c41.27,8,111.35-9.39,88.09,19.71"/>
    <path class="cls-1" d="M527.1,2249c27.27,10.24,104.44.17,130.76,18.24"/>
    <path class="cls-1" d="M725.28,2198.07c-34.15,24.81-95.36,19.4-97,31-2.08,14.84,53,9.24,81.31-5.54"/>
    <path class="cls-1" d="M560.53,2200.09c73.31-10.48,100.41,9.24-10.47,22.17"/>
    <path class="cls-1" d="M701.6,2682.44c-51.74,40.65-109,17.86-134.91-30.8"/>
    <path class="cls-1" d="M713.47,2716.47c-27.27,20.18-90.59,17.37-29.55,37.84"/>
    <path class="cls-1" d="M545.23,2708.27c39.33,37.62,71.77,18.82,70.74,35.15-.61,9.86-24,11.71-56.67,5.55"/>
    <path class="cls-1" d="M417.61,2686.13c-27.15,20.23-61.76,26.39-108.42,9.86"/>
    <path class="cls-1" d="M262.09,2712.65c40.94,23.38,74,2.39,75.44,16.61.62,6.16-8.48,12.06-41.27,12.93"/>
    <path class="cls-1" d="M426.74,2721.83c-46.09,27.14-150.81,35.76-27.61,32.68"/>
  </g>
  <g id="bennettHoodie">
    <path class="cls-1" d="M243.48,1410.85c-6.11,10.5-6.09,26.44-5.23,34.19,52.55,13.79,432.48,9.48,491.07,1.72.29-11.42-1.54-22.15-7.24-31.64C694.38,1433.48,296.2,1424.22,243.48,1410.85Z"/>
    <path class="cls-1" d="M99.51,966.34c-2.21-11-2.84-21.5-9.2-26.81C64.44,918-1.1,953.93,1.05,982.67c.66,8.84,3.53,14.35,5.86,20.23C23.25,961,75.88,950.26,99.51,966.34Z"/>
  </g>
  <path id="bennettJacket" class="cls-1" d="M674.85,671c54.3,39.18,86.86,24.93,97.53,86.54,25.43,142.77,83.91,249.65,89.28,332.41-3.11,21.62,22.41,32.18,5.76,58.16,6.46,39.26-67.84,105.74-110.87,130.35l-39.37,80.74c3.87,25.62,12.49,40.54,4.9,56-27.7,18.36-425.88,9.1-478.6-4.27,13.44-14.77-17.54-26.31,0-54.13,19.68-31.2-19.37-31.73-.71-76.21,13-31-10.94-39.13-3.56-56.26-20-88.21,8.6-84,1.43-126.06-17.13,38.45-38.67,63.53-48.73,87.67-6.07,14.58-4.86,26.73-46.78,20.05-69.87,43.74-141-105.72-142.78-183.49,5.9-61.89,79.59-76.56,102.26-51.71,6,6.61,5.25,10.87,12.82,17.09,38.64-52.27,20.89-119,44.15-137.45,17.54-70,31.85-147.07,76.92-157.4C328,672.45,399.78,599.5,674.85,671Z"/>
  <g id="walkman">
    <path id="cassette" class="cls-2" d="M362.63,1561.62c-16,0-46.92,7.93-60.19,14-8.94,27.45-10.9,76.26-8.54,105,12.6,10.76,41.8,23.77,57.06,24.84C359.48,1666.45,365,1602.94,362.63,1561.62Z"/>
    <g id="cassetteTape">
      <ellipse class="cls-3" cx="323.07" cy="1588.21" rx="22.3" ry="24.75" transform="translate(-545.87 220.1) rotate(-20.92)"/>
      <ellipse class="cls-3" cx="316.8" cy="1674.58" rx="36.66" ry="40.71" transform="translate(-577.13 223.56) rotate(-20.92)"/>
    </g>
    <g id="cassetteReel">
      <ellipse class="cls-4" cx="323.07" cy="1588.21" rx="13.12" ry="14.57" transform="translate(-545.87 220.1) rotate(-20.92)"/>
      <ellipse class="cls-4" cx="316.8" cy="1674.58" rx="13.12" ry="14.57" transform="translate(-577.13 223.56) rotate(-20.92)"/>
    </g>
    <path id="walkmanButton" class="cls-5" d="M252.16,1536.19l-7.8-.49c-9.17,34.73-14.79,115-8.52,157.47l7.82,3C238.76,1647.7,240.73,1587.89,252.16,1536.19Z"/>
    <path id="walkmanDark" class="cls-6" d="M425.61,1524.22l-37.6,1.35c7.52,40.9-2.35,172.58-19.75,228.47,13.73-2.54,26.25-6.46,37.14-12.23C425.61,1711.32,438.34,1560.62,425.61,1524.22Z"/>
    <path id="walkmanMedium" class="cls-7" d="M388,1525.57l37.6-1.35c-22.08-21.8-125.64-35.8-164.71-20.16C284.11,1499.3,359.87,1512.06,388,1525.57Z"/>
    <path id="walkmanWindow" class="cls-8" d="M368.26,1754c-10,1-24.51-.71-40.12-3.88a197,197,0,0,1-2.35-36.94s-29.32-15.11-43.74-27.41c-2.7-32.87-.46-87.58,9.78-119a230.15,230.15,0,0,1,49.07-16c.88-8.69,5.19-25.87,9.6-37.24,15.13,3.58,28.67,7.74,37.51,12C395.53,1566.47,385.66,1698.15,368.26,1754Zm-5.63-192.42c-16,0-46.92,7.93-60.19,14-8.94,27.45-10.9,76.26-8.54,105,12.6,10.76,41.8,23.77,57.06,24.84C359.48,1666.45,365,1602.94,362.63,1561.62Z"/>
    <path id="headphoneEarpad" class="cls-9" d="M404.34,367.25c-71.25,0-71.25-106.87,0-106.87S475.58,367.25,404.34,367.25Z"/>
    <g id="walkmanLight">
      <path class="cls-10" d="M325.79,1713.22s-29.32-15.11-43.74-27.41c-2.7-32.87-.46-87.58,9.78-119a230.15,230.15,0,0,1,49.07-16c.88-8.69,5.19-25.87,9.6-37.24-33-7.81-73.68-12.78-89.6-9.52-21.92,66.29-24.15,156.84-13.8,218,14,9.46,49.82,21.81,81,28.15A197,197,0,0,1,325.79,1713.22Z"/>
      <path class="cls-10" d="M391.49,172.56a543.8,543.8,0,0,0,0,117.52c15.86.44,22.94,11.84,22.94,23.73,0,13.31-9.79,24.36-23.09,24.1-11.86-.23-22.42-8.63-25.1-24.1-5.86-33.8-8.19-92.45-2-141.25Z"/>
    </g>
    <path id="headphoneBand" class="cls-11" d="M389.13,172.56c6.44-58.06,25.44-141.41,44.34-170.27L416.18,1c-18.07,26-41.12,114.37-45,171.52Z"/>
  </g>
  <g id="bag">
    <g id="bagStrap">
      <path class="cls-12" d="M717.18,1359.16l27.62,73.59,73.66-2.43-106-260c2.4,20.6,10.13,44.73-7.61,63.59,4.71,14.72,19.43,44,3.53,70.08C723.28,1317.58,727.65,1335.38,717.18,1359.16Z"/>
      <path class="cls-12" d="M593.24,1459.19C505.64,1118.91,406.34,738.1,324.59,664c12.5-6.87,47.06-15,61-12.8,77.23,80.51,189.54,467.34,284,801.15Z"/>
    </g>
    <path id="bagLight" class="cls-13" d="M669.52,1452.34c-8.25-5.06-66.65,1.18-76.28,6.85-15.31,11.34-16.16,225.49-6.17,384,1,15.62,3.33,31.33,33.58,34,16.33,1.42,90.77,7.62,110.59.19C712.67,1702.74,696.16,1494.4,669.52,1452.34Z"/>
    <path id="bagDark" class="cls-14" d="M667.41,1446.37c12.93,36.59,22.7,232.15,27.16,384.77,1.64,56.16,24.34,55.56,59.3,36.14C750.72,1640.52,729.77,1441.26,667.41,1446.37Z"/>
    <path id="bagMedium" class="cls-15" d="M667.41,1446.37c19.41,15.21,25.93,38.16,30.31,65.11,14.91,91.67,19.6,185.17,24.09,278.94,3.31,69.16,20.48,92.89,60.44,66.11,26.06-17.46,50.9-30.67,79.08-39.76,38.26-12.34,32.92-35.39,28.43-62.15-12.62-75.24-22.07-211-36.87-281.34-8.24-39.16-37.34-49.55-67.49-45.37C743.12,1433.77,694.94,1436.24,667.41,1446.37Z"/>
  </g>
  <path id="bennettHoodie-2" data-name="bennettHoodie" class="cls-1" d="M339.93,659.19c-5.94-17,8.54-17.54,11-24.61,1.2-8.9,4.55-16.94,22.84-22.83C608.07,641.34,645.9,581.29,686.68,627c43.64,48.88-80.06,177.73-120.95,179.31C456.63,810.51,405,687,339.93,659.19Z"/>
  <path id="bennettHoodieInner" class="cls-1" d="M373.74,611.75c-5.13-3.9,20.53-30.81,26.65-28.8,59.5,19.58,128.3,14.88,198.21,6.71,25.19-2.95,29,21.59,30.63,43.45C535.16,672.5,464.6,631.93,373.74,611.75Z"/>
  <g id="clothesOverlapLine-2" data-name="clothesOverlapLine">
    <path class="cls-1" d="M326.18,848.62c-6.05,44.75-23.62,81-42.34,135.48-16.95,49.28-26.62,87.1-43.2,114.09"/>
    <path class="cls-1" d="M736.58,1193.67c-10.66-3.34-18.11-12.08-24.09-23.33-5.27-35,27.39-197.13,21.35-310.84"/>
    <path class="cls-1" d="M117.43,987.8c-4.4,8.77-5.77,15.76-.82,19-28.32,37-24.39,85.76-4.72,119.59"/>
    <path class="cls-1" d="M629.23,633.11a65.26,65.26,0,0,0,19.26-9"/>
  </g>
  <g id="clothesFoldLine-2" data-name="clothesFoldLine">
    <path class="cls-1" d="M350.9,634.58c8.83,4.75,18.58,4.17,21.41,8.73"/>
    <path class="cls-1" d="M473,709.53c-29.8-19.2-31.43-35.73-18.54-30.46,76.16,31.13,153.45,30.25,195.37-8"/>
    <path class="cls-1" d="M473.64,751.92c18.53-1.63,37.88,10.34,57.62,29.14"/>
    <path class="cls-1" d="M592.19,769.14c14.56-21.15,33-38.23,57-49.67"/>
    <path class="cls-1" d="M213.36,721.46c36.43-24.51,68.42,7.2,74.84,4.63,5-2-9.76-16.71-25.83-21.19"/>
    <path class="cls-1" d="M310.72,750.6c8.18-.18,18.54,51.66,22.52,52.32,3-13.48,2-28.78-4-46.36"/>
    <path class="cls-1" d="M292.17,761.19c18.51,26.65,31.31,55.28,34,87.43,11.21-14.7,18.26-36.38,23.61-60.93"/>
    <path class="cls-1" d="M161.58,850.35c-14.45,51.91,47.14,65.16,95.49,26.08"/>
    <path class="cls-1" d="M270.32,893.65c-26.35,25.67-54.4,43-87.43,35.77"/>
    <path class="cls-1" d="M82.89,1001c-31,4.21-49.2,24-47,68.87"/>
    <path class="cls-1" d="M116.61,1006.79A36.46,36.46,0,0,0,127.92,987"/>
    <path class="cls-1" d="M105.38,1025.44c-28.94,6.27-44.19,40.14-46.09,100.94"/>
    <path class="cls-1" d="M110.7,1033.4c-1.69,32.27,2.7,54.2,15.24,62.25"/>
    <path class="cls-1" d="M97.07,1055c-17.49,6.2-32.06,91-8.22,115.33"/>
    <path class="cls-1" d="M145.13,1205.91c10-3,13.6-9,23.86-12.24"/>
    <path class="cls-1" d="M332.57,1030.09c-22.14,15.22-45.48,23.49-70.79,20.32"/>
    <path class="cls-1" d="M274.29,1117.51c1.33-6.62-14.51-20.22-33.65-19.32"/>
    <path class="cls-1" d="M302.11,1090.36c-10.23-34.74,45.7-29.81,77.49-37.76"/>
    <path class="cls-1" d="M257.07,1238.05c21.2,22.52,60.93,13.91,12.59,53.64"/>
    <path class="cls-1" d="M297.47,1323.48c-43.05-23.84,9.27-34.44,39.74-29.8"/>
    <path class="cls-1" d="M265,1324.15c22.52,18.54,60.66,15.88,19.87,49.67"/>
    <path class="cls-1" d="M343.17,1363.22c-18.65,4.62-34.63,12.62-44.37,28.48"/>
    <path class="cls-1" d="M443.18,1318.19A588.91,588.91,0,0,0,556,1315.47"/>
    <path class="cls-1" d="M488.88,1279.11c19.86.81,39.17,1,57.56,0"/>
    <path class="cls-1" d="M582.6,1152.11c18-.85,35.53-1.65,52.64-2.15"/>
    <path class="cls-1" d="M412.71,1155.26c34.2,1.47,67.76,1,100.37-.07"/>
    <path class="cls-1" d="M714.72,803.58c9.93,10.6,16.56,47.69,19.12,55.92,5.54-17.56,6.23-37.64,2.74-59.89"/>
    <path class="cls-1" d="M751.81,1095.65c-12.18-3-23.91-4.09-34.34,0"/>
    <path class="cls-1" d="M757.11,1123.47c-14.45-7.83-28.63-13.51-42.39-15.64"/>
    <path class="cls-1" d="M735.91,1172.48c-8.2-4.6-16.16-11.48-23.68-22.52"/>
    <path class="cls-1" d="M704.88,1233.93c-6.74,6.29-11.75,13-12,20.68"/>
    <path class="cls-1" d="M708.41,1304c-4.81,6.79-9.91,12-15.55,14.18"/>
    <path class="cls-1" d="M717.18,1359.16c-4.11,6.12-8.4,10.85-13.06,12.67"/>
  </g>
</svg>
