<svg class="presence" 
  xmlns="http://www.w3.org/2000/svg" viewBox="0 0 946.65 2995.91">
  <g class="soleWhite">
    <path d="M770,2939.57c4,12.92,2.45,25.71-2.4,30.79-42.16,32.36-169.93,25.12-185.21-8.55-7.29-18.29-25.31-19.54-29.4-29.95-2.3-8.74-.66-20.44,2.8-32.81Z"/>
    <path d="M488.06,2940.41c1.48,13.67.67,32.28-3.69,37-9.79,16.61-107.65,26.75-161,5.54-37.47-14.91-75.1-6.39-101.36-42.16-11.07-45.15,21.5-70.42,57-82.29Z"/>
  </g>
  <g class="bennettShoe">
    <path d="M736.68,2782.32c6.9,70.77,29,84.43,33.31,157.25-18.6,21.52-170.91,30.34-186.8-12-5.92-15.77-16.84-16.54-27.41-28.49,2.43-43.73,41-61,56.36-129.14Z"/>
    <path d="M463.7,2793.35c9.58,40.46,26.66,98.35,24.36,147.06-3.68,11-81.34,32.87-133.27,18.17-40-10.57-71.69-8.52-105.24-31-11-77.2,52.39-49.63,89.61-153.95Z"/>
  </g>
  <path class="converseLogo" d="M601.56,2912.86c13.23,4.89,15.56-70.81,2-74.66C592.47,2835.06,590,2908.59,601.56,2912.86Z"/>
  <path class="bennettJeans" d="M773.67,1458.09c25.14,53.73,39.19,485.12,11.77,689.72-4.61,34.37,17.44,57.37-7.39,78.27-2.06,23.86,18.2,44.26,0,62,11.27,106.21-1.31,236.25-2.95,366.28-.43,34.19,29.58,51.14-8.86,90.09-15,26.6,5,57.27-25.86,64.55-80.75,19-168.49-16.15-142.38-72.75-28.09-31.58,10.08-58.28-5.38-202.78A2313,2313,0,0,1,579.87,2277c-33.91-17.95-1.31-57.73-14.77-141.68-10.75-66.94-21-136.05-26.86-228.29-24.8,260.67-10.93,234.91-34.25,310.21-4.42,29.73,17.43,56.71-2.67,72.34,5.18,138.69-4,230-10.39,342.86-3.32,58.53,29.44,92.07-11.43,117.4-15.37,16.35,6.58,48.92-13.21,54.19-99.48,26.49-155-15.12-151.43-63.37-43.17-37.94,8.29-82.52-8.49-198.45-13.76-95-21.56-185.15-12.88-261.56-16.84-31.7-4-53.5-5-73.32-12.88-151.58-26.75-388.37-12.88-423-24.76-17.83-7.49-38.67-8.91-56.47-5.95-74.31,4.66-175.74,30.71-270.48Z"/>
  <path class="bennettJacket" d="M727.62,699c54.3,39.18,86.86,24.93,97.52,86.54,25.44,142.77,83.92,249.65,89.29,332.41-3.12,21.62,22.41,32.18,5.75,58.16,6.47,39.26-67.84,105.74-110.87,130.35L770,1387.17c3.87,25.62,12.49,40.54,4.89,56-27.69,18.36-425.88,9.1-478.59-4.27,13.44-14.77-17.55-26.31,0-54.13,19.68-31.2-19.37-31.73-.71-76.21,13-31-11-39.13-3.56-56.26-20-88.21,8.6-84,1.42-126.06-17.13,38.45-38.66,63.52-48.72,87.67-6.08,14.58-4.86,26.73-46.78,20.05-69.88,43.74-141-105.72-142.79-183.49,5.9-61.89,79.6-76.56,102.26-51.71,6,6.61,5.26,10.87,12.82,17.09,38.64-52.27,20.9-119,44.16-137.45,17.54-70,31.85-147.07,76.92-157.4C380.78,700.46,452.55,627.51,727.62,699Z"/>
  <g class="bag">
    <path class="bagStrapDark" d="M770,1387.17l27.61,73.59,73.67-2.43-106-260c2.4,20.6,10.13,44.73-7.61,63.59,4.71,14.72,19.42,44,3.53,70.08C776.05,1345.59,780.41,1363.39,770,1387.17Z"/>
    <path class="bagStrapLight" d="M646,1487.2C558.41,1146.92,459.1,766.11,377.36,692c12.49-6.87,47.06-15,61-12.8,77.24,80.51,189.55,467.34,284,801.15Z"/>
    <path class="bagLight" d="M722.29,1480.35c-8.26-5.06-66.65,1.18-76.29,6.85-15.31,11.34-16.15,225.48-6.17,384,1,15.62,3.33,31.33,33.58,34,16.34,1.42,90.78,7.62,110.59.19C765.44,1730.75,748.92,1522.41,722.29,1480.35Z"/>
    <path class="bagDark" d="M720.17,1474.38c12.94,36.59,22.7,232.15,27.16,384.77,1.65,56.16,24.35,55.56,59.31,36.14C803.49,1668.53,782.54,1469.27,720.17,1474.38Z"/>
    <path class="bagMedium" d="M720.17,1474.38c19.41,15.21,25.93,38.16,30.32,65.11,14.91,91.67,19.6,185.17,24.09,278.94,3.31,69.16,20.48,92.89,60.44,66.11,26.05-17.46,50.9-30.67,79.08-39.76,38.25-12.34,32.91-35.39,28.42-62.15-12.62-75.24-22.07-211-36.87-281.34-8.23-39.16-37.34-49.55-67.49-45.37C795.89,1461.78,747.71,1464.25,720.17,1474.38Z"/>
  </g>
  <g class="bennettHoodie">
    <path d="M152.28,994.35c-2.22-11,.75-16.57-4.62-22.88-28.59-33.6-93.42,10.31-93.84,39.21-.13,8.87,3.53,14.35,5.86,20.23C76,989,128.64,978.27,152.28,994.35Z"/>
    <path d="M392.7,687.2c-5.95-17,8.53-17.54,11-24.61,1.2-8.9,4.55-16.94,22.84-22.83C660.83,669.35,698.67,609.3,739.45,655c43.63,48.88-80.07,177.73-121,179.31C509.39,838.52,457.8,715,392.7,687.2Z"/>
    <path d="M637.27,1453.29c-129.33,1.1-307-5.81-341-14.43-6.12,10.5-6.09,26.44-5.23,34.19,35.38,9.28,219.13,10.36,353.32,7.71Q640.82,1467.07,637.27,1453.29Z"/>
    <path d="M781.47,1462.6a50.41,50.41,0,0,0-6.63-19.47c-5.87,3.89-28.41,6.54-60.77,8.18q3.25,11.51,6.49,22.94C736,1468.64,757.85,1465.39,781.47,1462.6Z"/>
  </g>
  <path class="bennettHoodieInner" d="M426.51,639.76c-5.13-3.9,20.42-30.44,26.65-28.8,58.44,15.39,138.4,16.55,206.2,6.71,19.91-2.89,21.06,21.59,22.64,43.45C587.92,700.51,517.36,659.94,426.51,639.76Z"/>
  <g class="clothesDisplayLine">
    <path d="M582.79,1539.56c15.27,76.87,19.32,151.2-9.91,218"/>
    <path d="M249.55,2927.54c-11.24-6.36-20.66-13.36-27.07-21.41"/>
  </g>
  <g class="clothesOverlapLine">
    <path d="M378.94,876.63c-6.05,44.75-23.61,81-42.34,135.48-16.94,49.28-26.61,87.1-43.2,114.09"/>
    <path d="M789.34,1221.68c-10.65-3.34-18.11-12.08-24.08-23.33-5.27-35,27.39-197.13,21.34-310.84"/>
    <path d="M170.19,1015.81c-4.39,8.77-5.77,15.76-.81,19-28.33,37-24.39,85.76-4.72,119.59"/>
    <path d="M682,661.12a65.38,65.38,0,0,0,19.26-9"/>
    <path d="M636,1794.39c-20.8,7.87-54.07-6.11-91.06.64-70.84,12.94-90.56-11.47-99.8,1.23-4.93,6.78,24,17.25,41.28,16.63"/>
    <path d="M544.92,1795c3.08,34-4.31,76.39-6.68,112"/>
  </g>
  <g class="clothesFoldLine">
    <path d="M403.67,662.59c8.82,4.75,18.57,4.17,21.41,8.73"/>
    <path d="M525.75,737.54c-29.81-19.2-31.43-35.73-18.55-30.46,76.17,31.13,153.45,30.25,195.38-8"/>
    <path d="M526.41,779.93c18.53-1.63,37.87,10.34,57.62,29.14"/>
    <path d="M645,797.15c14.56-21.15,33-38.23,57-49.67"/>
    <path d="M266.13,749.47c36.42-24.51,68.42,7.2,74.84,4.63,5-2-9.76-16.71-25.83-21.19"/>
    <path d="M363.48,778.61c8.18-.18,18.55,51.66,22.52,52.32,3-13.48,2-28.78-4-46.36"/>
    <path d="M344.94,789.2c18.51,26.65,31.31,55.28,34,87.43,11.22-14.7,18.27-36.38,23.62-60.93"/>
    <path d="M214.35,878.36c-14.45,51.91,47.14,65.16,95.49,26.08"/>
    <path d="M323.08,921.66c-26.34,25.67-54.39,43-87.42,35.77"/>
    <path d="M135.65,1029c-31,4.21-49.2,24-47,68.87"/>
    <path d="M169.38,1034.8a36.52,36.52,0,0,0,11.31-19.75"/>
    <path d="M158.15,1053.45c-28.94,6.27-44.19,40.14-46.09,100.94"/>
    <path d="M163.47,1061.41c-1.69,32.27,2.69,54.2,15.23,62.25"/>
    <path d="M149.83,1083c-17.49,6.2-32.06,91-8.21,115.33"/>
    <path d="M197.9,1233.92c9.95-3,13.59-9,23.85-12.24"/>
    <path d="M385.34,1058.1c-22.15,15.22-45.49,23.49-70.79,20.32"/>
    <path d="M327.06,1145.52c1.32-6.62-14.52-20.22-33.66-19.32"/>
    <path d="M354.87,1118.37c-10.22-34.74,45.7-29.81,77.49-37.76"/>
    <path d="M309.84,1266.06c21.19,22.52,60.93,13.91,12.58,53.64"/>
    <path d="M350.24,1351.49c-43.05-23.84,9.27-34.44,39.74-29.8"/>
    <path d="M317.79,1352.16c22.51,18.54,60.66,15.88,19.87,49.67"/>
    <path d="M395.94,1391.23c-18.65,4.62-34.63,12.62-44.38,28.48"/>
    <path d="M495.94,1346.2a589,589,0,0,0,112.83-2.72"/>
    <path d="M541.64,1307.12c19.87.81,39.18,1,57.57,0"/>
    <path d="M635.37,1180.12c18-.85,35.53-1.65,52.64-2.15"/>
    <path d="M465.48,1183.27c34.2,1.47,67.76,1,100.37-.07"/>
    <path d="M767.49,831.59c9.93,10.6,16.55,47.69,19.11,55.92,5.55-17.56,6.24-37.64,2.74-59.89"/>
    <path d="M804.57,1123.66c-12.18-3-23.9-4.09-34.34,0"/>
    <path d="M809.87,1151.48c-14.44-7.83-28.62-13.51-42.38-15.64"/>
    <path d="M788.68,1200.49c-8.21-4.6-16.17-11.48-23.69-22.52"/>
    <path d="M757.65,1261.94c-6.74,6.28-11.75,13-12,20.68"/>
    <path d="M761.18,1332c-4.81,6.79-9.91,12-15.55,14.18"/>
    <path d="M770,1387.17c-4.12,6.12-8.41,10.85-13.06,12.67"/>
    <path d="M522.13,1817.21c-12.32,24.64-31.42,77.62-40.66,100.41"/>
    <path d="M561.55,1830.76c5.27,27.38,19.37,66,27.11,92.4"/>
    <path d="M619.46,1816c-42.07-.58-40.22,27.51-5.55,77"/>
    <path d="M415.55,1835.07c57.48-9.66,77.17.26,33.27,43.12"/>
    <path d="M498.72,2066.08c-18.09,105.74-60.07,178.65-173.11,154"/>
    <path d="M504,2217.24c-20.06,56.44-154.09,27.91-150.66,39.81s50.8,11.07,108.43,7.39"/>
    <path d="M325,2282.31c41.27,8,111.34-9.39,88.09,19.71"/>
    <path d="M579.87,2277c27.27,10.24,104.43.17,130.76,18.24"/>
    <path d="M778.05,2226.08c-34.15,24.81-95.37,19.4-97,31-2.08,14.84,53,9.24,81.32-5.54"/>
    <path d="M613.3,2228.1c73.31-10.48,100.41,9.24-10.47,22.17"/>
    <path d="M754.37,2710.45c-51.75,40.65-109,17.86-134.91-30.8"/>
    <path d="M766.24,2744.48c-27.27,20.18-90.59,17.37-29.56,37.84"/>
    <path d="M598,2736.28c39.32,37.62,71.76,18.82,70.74,35.15-.61,9.86-24,11.71-56.67,5.55"/>
    <path d="M470.38,2714.14c-27.15,20.23-61.77,26.39-108.42,9.86"/>
    <path d="M314.86,2740.66c40.94,23.38,74,2.39,75.44,16.61.61,6.16-8.48,12.06-41.28,12.93"/>
    <path d="M479.5,2749.84c-46.08,27.14-150.81,35.76-27.6,32.68"/>
  </g>
  <g class="eye">
    <path class="sclera" d="M367.67,363.26l-33,22.09c-8.61-14.33-8.11-36.84,0-53.44Z"/>
    <path class="irisDarkBrown" d="M333.5,382.23c-1.5,0-5.1-10.07-5.1-22.5s3.6-22.5,5.1-22.5A211.54,211.54,0,0,1,333.5,382.23Z"/>
  </g>
  <g class="skinEastAsian">
    <path d="M146.13,969.79c25.72-49.56,18.22-81.2-1.19-108.07-12.6-14.32-19.57-61.9-44.73-72.67-25.34-10.9-35.36,0-45.38,5.25-5.15,18.7,3.23,30.43,15.62,28.05,0,5.37.19,9.47,2.36,13-15.68-.82-26.57,7.37-26.41,22.1-9.09-2.63-28.51,7.89-25.82,23.93-25.73,1-18.83,23.22-18.5,38.25,1.18,55,28,67.49,51.74,91.08C54.23,982.29,116.83,939.41,146.13,969.79Z"/>
    <path d="M330.45,385.16c-8.22,7.21-21.16,30.73-30.25,51.65-10.37,23.83,16.12,27.7,27.33,30.25Z"/>
    <path d="M716.81,427.63c-14,31.61-215.76,144.1-252.89,168.35-32.31,21.12-65.6,22.88-81.39,22.37-66.56-2.18-27.32-60.43-58.88-71.52C315.06,536,330,526,336.92,524.23a45.37,45.37,0,0,1-2-8.09c-6.61-2.75-24.77-8.83-21.48-26.63,23.06-12.71-4.84-51.05,13.07-99.41-8.86-11.92,8.68-20.94,22.61-30.36-14.23-10.68-23.24-18.43-25.92-22.53-4.85-12,6.87-15.79.59-32.33-15.5-45.85,19.11-34,23.37-145,195.44-187.7,489.12,192.32,239.1,290.72-15.47,16.8-32.81,29.15-48.86,9.38"/>
    <path d="M447.78,554.69c15.41,11.41,12.13,38.56,8.65,62.32,57.38,14.4,134.36,15.5,200.34,6.24-.19-36.54-.66-53.27,9.83-99.4,7.55-33.24,58.91-57.41,52.87-83.09"/>
  </g>
  <g class="skinOverlapLine">
    <path d="M20.58,881.35a36,36,0,0,0,2.32,8.76"/>
    <path d="M46.4,857.42a18.24,18.24,0,0,0,1.67,7.52"/>
  </g>
  <g class="skinFoldLine">
    <path d="M71.26,814a21.11,21.11,0,0,0-.81,8.35"/>
    <path d="M554.23,359.48c24.76-49.53,77.93,6.19,29.5,62.63"/>
  </g>
  <g class="head50__edited">
    <g class="lipMaleMedium__noStroke">
      <path d="M336.92,524.23c-7,1.74-21.86,11.72-13.27,22.6C331,540.91,334.87,533.06,336.92,524.23Z"/>
      <path d="M335,516.14c-8.75-10.09-16.26-10.8-21.48-26.63C310.18,507.31,328.34,513.39,335,516.14Z"/>
    </g>
    <path class="cheekLine" d="M335,506.93c-1.76,10.84,2.93,19.95,6.38,29"/>
    <path class="eyebrowBlack" d="M319.87,285.89a62.4,62.4,0,0,0,3.2,16.7c11.3,2.1,23.34,4.51,35.3,13.33C344.73,295.7,332.4,288.87,319.87,285.89Z"/>
    <path class="hairBlack" d="M332.33,158.73c-9.72,12.28-21.59,19.14-34.83,19,42.51-29.19,34-97.12,169.65-136.89C493.69,33,541.06,35,569.73,51.65,596.67,39,648.48,39.93,681,57.76,680.66,40.48,667.7,17.82,646.71,3,681.15,14.11,698,43.44,700.45,64.59c15.39-19.12,58-26.65,75.81-5.8-19.46-9.22-49.16-1.54-58.37,16.89,127.75,77.39,142.26,251.74,43.36,359.14-26,28.27-75.38,46.66-102.82,80.1C645,490.12,606.77,488,586.29,450.61c26-26.11,46.27-60.27,32.77-100.87-11.55-34.74-60-37.9-76.77,4.56-15.92,2.6-52.78,3.63-62.51,1.58-2.64-34.55,3.32-28.67-22.53-59.4-40.85-10.87-57.58.39-79.35-35.84,4.1,12.8,1,24.58.5,32.26C358.94,236.06,302.63,248.86,332.33,158.73Z"/>
    <path class="hairOverlapLine" d="M457.25,296.48c8.08-.69,37.57,9.84,48.13,16.9-1.54-7.17-13.31-17.92-16.9-25.09"/>
  </g>
  <g class="walkman">
    <path class="cassette" d="M413.31,1590.48c-16,0-46.92,7.92-60.19,14-8.94,27.45-10.9,76.27-8.53,105,12.6,10.75,41.79,23.76,57.05,24.83C410.16,1695.3,415.72,1631.8,413.31,1590.48Z"/>
    <g class="cassetteTape">
      <ellipse cx="373.75" cy="1617.06" rx="22.3" ry="24.75" transform="translate(-552.84 240.1) rotate(-20.92)"/>
      <ellipse cx="367.49" cy="1703.44" rx="36.66" ry="40.71" transform="translate(-584.09 243.56) rotate(-20.92)"/>
    </g>
    <g class="cassetteReel">
      <ellipse cx="373.75" cy="1617.06" rx="13.12" ry="14.57" transform="translate(-552.84 240.1) rotate(-20.92)"/>
      <ellipse cx="367.49" cy="1703.44" rx="13.12" ry="14.57" transform="translate(-584.09 243.56) rotate(-20.92)"/>
    </g>
    <path class="walkmanButton" d="M302.84,1565.05l-7.8-.49c-9.16,34.72-14.78,115-8.51,157.46l7.82,3C289.44,1676.56,291.41,1616.74,302.84,1565.05Z"/>
    <path class="walkmanDark" d="M476.3,1553.07l-37.61,1.35c7.52,40.9-2.35,172.59-19.75,228.47,13.73-2.54,26.25-6.45,37.14-12.22C476.3,1740.17,489,1589.48,476.3,1553.07Z"/>
    <path class="walkmanMedium" d="M438.69,1554.42l37.61-1.35c-22.09-21.79-125.65-35.8-164.72-20.15C334.8,1528.16,410.55,1540.91,438.69,1554.42Z"/>
    <path class="walkmanWindow" d="M418.94,1782.89c-10,1-24.5-.7-40.12-3.87a196.21,196.21,0,0,1-2.34-37s-29.32-15.1-43.74-27.41c-2.71-32.86-.47-87.58,9.77-119a230.34,230.34,0,0,1,49.07-16c.89-8.68,5.19-25.86,9.6-37.23,15.13,3.57,28.67,7.74,37.51,12C446.21,1595.32,436.34,1727,418.94,1782.89Zm-5.63-192.41c-16,0-46.92,7.92-60.19,14-8.94,27.45-10.9,76.27-8.53,105,12.6,10.75,41.79,23.76,57.05,24.83C410.16,1695.3,415.72,1631.8,413.31,1590.48Z"/>
    <path class="headphoneEarpad" d="M539.12,444.6c-71.25,0-71.25-106.86,0-106.86S610.36,444.6,539.12,444.6Z"/>
    <g class="walkmanLight">
      <path d="M376.48,1742.07s-29.32-15.1-43.74-27.41c-2.71-32.86-.47-87.58,9.77-119a230.34,230.34,0,0,1,49.07-16c.89-8.68,5.19-25.86,9.6-37.23-33-7.81-73.68-12.79-89.6-9.52-21.91,66.28-24.14,156.83-13.8,217.95,14,9.45,49.82,21.81,81,28.15A196.21,196.21,0,0,1,376.48,1742.07Z"/>
      <path d="M526.27,249.92a543.8,543.8,0,0,0,0,117.52c15.86.43,23,11.84,23,23.73,0,13.31-9.8,24.35-23.1,24.1-11.86-.23-22.41-8.63-25.1-24.1-5.86-33.8-8.19-92.45-2-141.25Z"/>
    </g>
    <path class="headphoneBand" d="M521.92,249.92c6.43-58.06,39-173.13,57.92-202l-17.92-.32c-18.07,26-54.08,145.15-58,202.3Z"/>
  </g>
</svg>
