<svg viewBox="0 0 146.01 461.86">
  <g class="soleWhite">
    <path d="M118.7,453.09c.63,2,.38,4-.37,4.74-6.49,5-26.17,3.87-28.53-1.32-1.12-2.82-3.9-3-4.53-4.61a10.33,10.33,0,0,1,.44-5.06Z"/>
    <path d="M75.27,453.21c.23,2.11.11,5-.56,5.7-1.51,2.56-16.59,4.12-24.8.85-5.77-2.3-11.57-1-15.61-6.49-1.71-7,3.31-10.85,8.77-12.68Z"/>
  </g>
  <g class="bennettShoe">
    <path d="M113.57,428.86c1.06,10.9,4.46,13,5.13,24.23-2.86,3.31-26.32,4.67-28.77-1.86-.91-2.43-2.6-2.55-4.22-4.39.37-6.73,6.3-9.39,8.68-19.89Z"/>
    <path d="M71.52,430.56c1.48,6.23,4.11,15.15,3.75,22.65-.56,1.7-12.52,5.07-20.52,2.8-6.16-1.63-11-1.31-16.21-4.78-1.7-11.89,8.07-7.64,13.8-23.71Z"/>
  </g>
  <path class="converseLogo" d="M92.76,449c2,.75,2.4-10.91.31-11.5C91.36,437,91,448.31,92.76,449Z"/>
  <path class="bennettJeans" d="M119.27,224.88c3.87,8.28,6,74.73,1.81,106.24-.71,5.3,2.69,8.84-1.14,12.06-.31,3.68,2.81,6.82,0,9.56,1.74,16.36-.2,36.39-.45,56.42-.07,5.26,4.56,7.87-1.37,13.87-2.31,4.1.78,8.83-4,10-12.44,2.93-25.95-2.49-21.93-11.21-4.33-4.86,1.55-9-.83-31.24a356.19,356.19,0,0,1-2-39.5c-5.23-2.77-.2-8.9-2.28-21.83A348.76,348.76,0,0,1,83,294c-3.82,40.15-1.68,36.18-5.27,47.78-.68,4.58,2.68,8.73-.41,11.14.8,21.37-.62,35.43-1.6,52.82-.51,9,4.53,14.18-1.76,18.08-2.37,2.52,1,7.53-2,8.35-15.32,4.08-23.87-2.33-23.32-9.77-6.65-5.84,1.27-12.71-1.31-30.56-2.12-14.64-3.32-28.52-2-40.29-2.59-4.89-.61-8.24-.76-11.3-2-23.35-4.12-59.82-2-65.16-3.82-2.75-1.16-6-1.38-8.7-.91-11.45.72-27.07,4.73-41.66Z"/>
  <path class="bennettJacket" d="M112.18,108c8.36,6,13.37,3.84,15,13.33,3.92,22,12.92,38.46,13.75,51.21-.48,3.32,3.45,4.95.89,8.95,1,6.05-10.45,16.29-17.08,20.08L118.7,214c.59,3.95,1.92,6.24.75,8.62-4.27,2.83-65.6,1.4-73.72-.66,2.07-2.27-2.7-4,0-8.34,3-4.8-3-4.88-.11-11.74,2-4.78-1.69-6-.55-8.66-3.07-13.59,1.33-12.93.22-19.42-2.64,5.92-6,9.79-7.5,13.5-.94,2.25-.75,4.12-7.21,3.09-10.76,6.74-21.71-16.28-22-28.26.9-9.53,12.26-11.79,15.75-8,.93,1,.81,1.68,2,2.64,5.95-8,3.22-18.34,6.8-21.18C35.81,124.8,38,112.93,45,111.34,58.75,108.18,69.8,96.94,112.18,108Z"/>
  <g class="bag">
    <path class="bagStrapDark" d="M118.7,214,123,225.3l11.35-.38-16.33-40c.37,3.18,1.56,6.89-1.17,9.8.73,2.27,3,6.77.54,10.79C119.63,207.55,120.31,210.3,118.7,214Z"/>
    <path class="bagStrapLight" d="M99.6,229.37C86.11,177,70.81,118.29,58.22,106.88c1.93-1.06,7.25-2.31,9.4-2,11.89,12.4,29.19,72,43.73,123.4Z"/>
    <path class="bagLight" d="M111.35,228.31c-1.27-.78-10.26.18-11.75,1.06-2.35,1.74-2.49,34.73-.95,59.15.15,2.41.52,4.83,5.18,5.24,2.51.21,14,1.17,17,0C118,266.88,115.46,234.79,111.35,228.31Z"/>
    <path class="bagDark" d="M111,227.39c2,5.64,3.5,35.76,4.18,59.27.26,8.65,3.75,8.56,9.14,5.57C123.86,257.3,120.64,226.61,111,227.39Z"/>
    <path class="bagMedium" d="M111,227.39c3,2.35,4,5.88,4.67,10,2.29,14.12,3,28.53,3.71,43,.51,10.65,3.15,14.31,9.31,10.18a47.84,47.84,0,0,1,12.18-6.12c5.89-1.9,5.07-5.45,4.38-9.58-1.95-11.58-3.4-32.5-5.68-43.33-1.27-6-5.75-7.64-10.4-7C122.69,225.45,115.27,225.83,111,227.39Z"/>
  </g>
  <g class="bennettHoodie">
    <path d="M23.55,153.45c-.34-1.69.12-2.55-.71-3.52-4.4-5.18-14.39,1.59-14.45,6a7.14,7.14,0,0,0,.9,3.11C11.81,152.63,19.91,151,23.55,153.45Z"/>
    <path d="M60.59,106.14c-.92-2.62,1.31-2.7,1.69-3.79.18-1.37.7-2.61,3.51-3.52,36.1,4.56,41.93-4.69,48.21,2.35,6.72,7.52-12.34,27.37-18.63,27.62C78.56,129.45,70.61,110.43,60.59,106.14Z"/>
    <path d="M98.26,224.14c-19.92.17-47.29-.89-52.53-2.22a9.66,9.66,0,0,0-.81,5.27c5.45,1.43,33.76,1.59,54.43,1.19C99,227,98.62,225.56,98.26,224.14Z"/>
    <path d="M120.47,225.58a7.7,7.7,0,0,0-1-3c-.9.6-4.38,1-9.36,1.26.33,1.18.67,2.36,1,3.53A45.9,45.9,0,0,1,120.47,225.58Z"/>
  </g>
  <path class="bennettHoodieInner" d="M65.79,98.83c-.79-.6,3.15-4.69,4.11-4.43,9,2.36,21.32,2.54,31.76,1,3.07-.45,3.24,3.32,3.49,6.69C90.66,108.19,79.79,101.94,65.79,98.83Z"/>
  <g class="clothesDisplayLine">
    <path d="M89.87,237.43c2.35,11.84,3,23.29-1.53,33.58"/>
    <path d="M38.54,451.23a14,14,0,0,1-4.17-3.3"/>
  </g>
  <g class="clothesOverlapLine">
    <path d="M58.47,135.32c-.93,6.89-3.64,12.48-6.52,20.87-2.61,7.59-4.1,13.41-6.66,17.57"/>
    <path d="M121.68,188.47a6.71,6.71,0,0,1-3.71-3.6c-.81-5.39,4.22-30.36,3.29-47.88"/>
    <path d="M26.31,156.76c-.68,1.35-.89,2.42-.12,2.92-4.37,5.7-3.76,13.21-.73,18.42"/>
    <path d="M105.15,102.12a9.68,9.68,0,0,0,3-1.39"/>
    <path d="M98.06,276.69c-3.2,1.21-8.33-.95-14,.09-10.91,2-14-1.76-15.37.19-.76,1,3.7,2.66,6.36,2.57"/>
    <path d="M84,276.78c.48,5.24-.66,11.77-1,17.26"/>
  </g>
  <g class="clothesFoldLine">
    <path d="M62.28,102.35c1.36.73,2.86.64,3.29,1.34"/>
    <path d="M81.08,113.89c-4.59-3-4.84-5.5-2.86-4.69,11.74,4.8,23.64,4.66,30.1-1.22"/>
    <path d="M81.18,120.42c2.86-.25,5.84,1.6,8.88,4.49"/>
    <path d="M99.44,123.08a22.26,22.26,0,0,1,8.78-7.66"/>
    <path d="M41.09,115.73c5.61-3.77,10.54,1.11,11.53.71.76-.3-1.51-2.57-4-3.26"/>
    <path d="M56.09,120.22c1.26,0,2.85,8,3.46,8.06a12.94,12.94,0,0,0-.61-7.14"/>
    <path d="M53.23,121.85a27.58,27.58,0,0,1,5.24,13.47c1.72-2.27,2.81-5.61,3.63-9.39"/>
    <path d="M33.11,135.58c-2.22,8,7.27,10,14.71,4"/>
    <path d="M49.86,142.25c-4.06,4-8.38,6.62-13.46,5.51"/>
    <path d="M21,158.78c-4.77.65-7.58,3.71-7.24,10.61"/>
    <path d="M26.19,159.68a5.66,5.66,0,0,0,1.74-3"/>
    <path d="M24.46,162.55c-4.46,1-6.81,6.19-7.1,15.55"/>
    <path d="M25.28,163.78c-.26,5,.41,8.35,2.34,9.59"/>
    <path d="M23.18,167.11c-2.7.95-4.94,14-1.27,17.76"/>
    <path d="M30.58,190.35c1.53-.45,2.09-1.38,3.67-1.88"/>
    <path d="M59.45,163.27c-3.41,2.34-7,3.62-10.9,3.13"/>
    <path d="M50.47,176.74c.21-1-2.23-3.12-5.18-3"/>
    <path d="M54.76,172.55c-1.58-5.35,7-4.59,11.94-5.81"/>
    <path d="M47.82,195.3c3.27,3.47,9.39,2.15,1.94,8.27"/>
    <path d="M54.05,208.46c-6.64-3.67,1.42-5.3,6.12-4.59"/>
    <path d="M49.05,208.57c3.47,2.85,9.34,2.44,3.06,7.65"/>
    <path d="M61.08,214.58c-2.87.72-5.33,1.95-6.83,4.39"/>
    <path d="M76.49,207.65a91,91,0,0,0,17.38-.42"/>
    <path d="M83.53,201.63c3.06.12,6,.15,8.87,0"/>
    <path d="M98,182.07c2.76-.14,5.47-.26,8.1-.33"/>
    <path d="M71.8,182.55c5.26.23,10.43.16,15.46,0"/>
    <path d="M118.32,128.38c1.53,1.63,2.55,7.35,2.94,8.61a20,20,0,0,0,.42-9.22"/>
    <path d="M124,173.37a8.75,8.75,0,0,0-5.29,0"/>
    <path d="M124.85,177.65a20.58,20.58,0,0,0-6.53-2.4"/>
    <path d="M121.58,185.2a10.67,10.67,0,0,1-3.65-3.46"/>
    <path d="M116.8,194.67a4.79,4.79,0,0,0-1.85,3.18"/>
    <path d="M117.34,205.46a5.8,5.8,0,0,1-2.39,2.19"/>
    <path d="M118.7,214a5,5,0,0,1-2,1.95"/>
    <path d="M80.52,280.2c-1.9,3.8-4.84,12-6.26,15.47"/>
    <path d="M86.6,282.29c.81,4.22,3,10.16,4.17,14.23"/>
    <path d="M95.51,280c-6.48-.09-6.19,4.24-.85,11.86"/>
    <path d="M64.11,283c8.85-1.49,11.88,0,5.12,6.64"/>
    <path d="M76.92,318.54c-2.79,16.28-9.26,27.51-26.67,23.72"/>
    <path d="M77.73,341.82c-3.09,8.69-23.74,4.3-23.21,6.13s7.83,1.71,16.7,1.14"/>
    <path d="M50.16,351.84c6.35,1.24,17.15-1.44,13.57,3"/>
    <path d="M89.42,351c4.2,1.57,16.08,0,20.14,2.81"/>
    <path d="M119.94,343.18c-5.26,3.82-14.69,3-14.94,4.77-.32,2.29,8.16,1.43,12.53-.85"/>
    <path d="M94.57,343.49c11.29-1.61,15.46,1.43-1.62,3.42"/>
    <path d="M116.3,417.79c-8,6.26-16.8,2.75-20.79-4.74"/>
    <path d="M118.12,423c-4.2,3.11-14,2.68-4.55,5.83"/>
    <path d="M92.21,421.77c6.06,5.8,11.05,2.9,10.9,5.42-.1,1.51-3.7,1.8-8.73.85"/>
    <path d="M72.55,418.36c-4.18,3.12-9.51,4.07-16.7,1.52"/>
    <path d="M48.6,422.44c6.3,3.61,11.4.37,11.62,2.56.09.95-1.31,1.86-6.36,2"/>
    <path d="M74,423.86c-7.1,4.18-23.23,5.51-4.26,5"/>
  </g>
  <g class="eye">
    <path class="sclera" d="M56.73,56.24l-5.08,3.4c-1.33-2.2-1.25-5.67,0-8.23Z"/>
    <path class="irisDarkBrown" d="M51.47,59.16c-.23,0-.79-1.55-.79-3.46s.56-3.47.79-3.47A33.44,33.44,0,0,1,51.47,59.16Z"/>
  </g>
  <g class="skinEastAsian">
    <path d="M22.6,149.67c4-7.64,2.81-12.51-.18-16.65-1.94-2.2-3-9.53-6.89-11.19s-5.45,0-7,.81c-.79,2.88.5,4.68,2.41,4.32a3.67,3.67,0,0,0,.36,2c-2.41-.12-4.09,1.14-4.07,3.41-1.4-.41-4.39,1.21-4,3.69-4,.15-2.9,3.57-2.85,5.89.18,8.47,4.31,10.39,8,14C8.45,151.59,18.09,145,22.6,149.67Z"/>
    <path d="M51,59.61c-1.27,1.11-3.26,4.74-4.66,8-1.6,3.67,2.48,4.27,4.21,4.66Z"/>
    <path d="M110.51,66.16C108.36,71,77.28,88.35,71.56,92.09A21.9,21.9,0,0,1,59,95.53c-10.25-.33-4.21-9.31-9.07-11-1.32-1.68,1-3.22,2-3.48a7.88,7.88,0,0,1-.3-1.25c-1-.42-3.81-1.36-3.31-4.1,3.55-2-.74-7.87,2-15.32-1.36-1.83,1.34-3.22,3.49-4.67a22.15,22.15,0,0,1-4-3.47c-.74-1.85,1.06-2.43.1-5-2.39-7.07,2.94-5.24,3.6-22.34C83.68-4,128.92,54.54,90.41,69.7c-2.39,2.58-5.06,4.49-7.53,1.44"/>
    <path d="M69.07,85.73c2.37,1.75,1.87,5.94,1.33,9.6,8.84,2.21,20.7,2.38,30.86,1A52.67,52.67,0,0,1,102.78,81c1.16-5.12,9.07-8.85,8.14-12.8"/>
  </g>
  <g class="skinOverlapLine">
    <path d="M3.27,136.05a5.43,5.43,0,0,0,.35,1.34"/>
    <path d="M7.24,132.36a2.93,2.93,0,0,0,.26,1.16"/>
  </g>
  <g class="skinFoldLine">
    <path d="M11.07,125.67A3.12,3.12,0,0,0,11,127"/>
    <path d="M85.47,55.66c3.81-7.63,12,1,4.54,9.65"/>
  </g>
  <g class="lipMaleMedium__noStroke">
    <path d="M52,81c-1.07.26-3.36,1.8-2,3.48A6,6,0,0,0,52,81Z"/>
    <path d="M51.69,79.79c-1.35-1.55-2.5-1.67-3.31-4.1C47.88,78.43,50.67,79.37,51.69,79.79Z"/>
  </g>
  <path class="cheekLine" d="M51.7,78.37c-.27,1.67.45,3.07,1,4.47"/>
  <path class="eyebrowBlack" d="M49.37,44.32a9.38,9.38,0,0,0,.49,2.57A12.29,12.29,0,0,1,55.3,49C53.2,45.83,51.3,44.78,49.37,44.32Z"/>
  <path class="hairBlack" d="M51.29,24.74a6.74,6.74,0,0,1-5.37,2.91c6.55-4.49,5.23-15,26.13-21.08,4.09-1.2,11.39-.89,15.8,1.67C92,6.3,100,6.44,105,9.18,104.94,6.52,103,3,99.71.74A11.94,11.94,0,0,1,108,10.23c2.37-2.94,8.94-4.1,11.68-.89-3-1.42-7.57-.24-9,2.6,19.67,11.92,21.91,38.78,6.68,55.32-4,4.36-11.61,7.19-15.84,12.34-2.07-3.82-8-4.15-11.11-9.9,4-4,7.12-9.29,5-15.54-1.78-5.35-9.23-5.84-11.82.7A44.31,44.31,0,0,1,74,55.1c-.41-5.32.51-4.41-3.47-9.15-6.29-1.67-8.87.06-12.22-5.52a11.75,11.75,0,0,1,.07,5C55.39,36.65,46.71,38.62,51.29,24.74Z"/>
  <path class="hairOverlapLine" d="M70.53,46c1.24-.1,5.79,1.52,7.41,2.61-.23-1.11-2-2.76-2.6-3.87"/>
  <g class="walkman">
    <path class="cassette" d="M63.76,245.28a30.34,30.34,0,0,0-9.27,2.15c-1.38,4.23-1.68,11.75-1.32,16.17A20.36,20.36,0,0,0,62,267.43,96.43,96.43,0,0,0,63.76,245.28Z"/>
    <g class="cassetteTape">
      <ellipse cx="57.67" cy="249.37" rx="3.43" ry="3.81" transform="translate(-85.25 37.04) rotate(-20.92)"/>
      <ellipse cx="56.7" cy="262.68" rx="5.65" ry="6.27" transform="translate(-90.07 37.57) rotate(-20.92)"/>
    </g>
    <g class="cassetteReel">
      <ellipse cx="57.67" cy="249.37" rx="2.02" ry="2.24" transform="translate(-85.25 37.04) rotate(-20.92)"/>
      <ellipse cx="56.7" cy="262.68" rx="2.02" ry="2.24" transform="translate(-90.07 37.57) rotate(-20.92)"/>
    </g>
    <path class="walkmanButton" d="M46.74,241.36l-1.2-.08c-1.41,5.35-2.27,17.72-1.31,24.26l1.21.46A81.93,81.93,0,0,1,46.74,241.36Z"/>
    <path class="walkmanDark" d="M73.46,239.51l-5.79.21c1.16,6.3-.36,26.59-3,35.19A19.93,19.93,0,0,0,70.35,273C73.46,268.33,75.42,245.12,73.46,239.51Z"/>
    <path class="walkmanMedium" d="M67.67,239.72l5.79-.21c-3.4-3.35-19.35-5.51-25.37-3.1C51.67,235.68,63.34,237.64,67.67,239.72Z"/>
    <path class="walkmanWindow" d="M64.63,274.91a22.92,22.92,0,0,1-6.18-.59,30.16,30.16,0,0,1-.36-5.69,45.62,45.62,0,0,1-6.74-4.23c-.42-5.06-.07-13.49,1.5-18.33a36,36,0,0,1,7.56-2.46,27.73,27.73,0,0,1,1.48-5.73,31.18,31.18,0,0,1,5.78,1.84C68.83,246,67.31,266.31,64.63,274.91Zm-.87-29.63a30.34,30.34,0,0,0-9.27,2.15c-1.38,4.23-1.68,11.75-1.32,16.17A20.36,20.36,0,0,0,62,267.43,96.43,96.43,0,0,0,63.76,245.28Z"/>
    <path class="headphoneEarpad" d="M83.14,68.77c-11,0-11-16.46,0-16.46S94.11,68.77,83.14,68.77Z"/>
    <g class="walkmanLight">
      <path d="M58.09,268.63a45.62,45.62,0,0,1-6.74-4.23c-.42-5.06-.07-13.49,1.5-18.33a36,36,0,0,1,7.56-2.46,27.73,27.73,0,0,1,1.48-5.73c-5.09-1.21-11.35-2-13.8-1.47C44.72,246.62,44.37,260.57,46,270c2.17,1.46,7.68,3.36,12.49,4.34A30.16,30.16,0,0,1,58.09,268.63Z"/>
      <path d="M81.16,38.78a84.24,84.24,0,0,0,0,18.1,3.44,3.44,0,0,1,3.53,3.66,3.55,3.55,0,0,1-3.55,3.71,4.07,4.07,0,0,1-3.87-3.71A83.69,83.69,0,0,1,77,38.78Z"/>
    </g>
    <path class="headphoneBand" d="M80.49,38.78c1-8.94,6-26.67,8.92-31.11l-2.76,0c-2.78,4-8.33,22.36-8.93,31.16Z"/>
  </g>
</svg>
