<svg id="presence" xmlns="http://www.w3.org/2000/svg" viewBox="0 0 1622.72 1263.66">
  <defs>
    <style>
      .cls-1 {
        fill: #9aa2b3;
      }

      .cls-1, .cls-2, .cls-3 {
        stroke: #000;
        stroke-miterlimit: 10;
        stroke-width: 2px;
      }

      .cls-2 {
        fill: #606a80;
      }

      .cls-3 {
        fill: none;
      }
    </style>
  </defs>
  <title>goKarts</title>
  <path id="wheelHubLight" class="cls-1" d="M913.33,433.69l-24.1-110.42-34.55,54,38.07,65.52C888,456.14,857.74,502.67,852,504L761.16,523.3l-12.54,19.58L859,518.55C865.89,516.91,914.9,440.75,913.33,433.69Z"/>
  <path id="wheelHandle" class="cls-2" d="M655.81,574.71c-21.41,33.43,30,66.32,51.37,32.89l223.49-349c20.91-32.66-30.46-65.56-51.37-32.9Z"/>
  <path id="bennettSoleSide" class="cls-3" d="M1501,987.48c39.73-30.17,82.4-56.65,120.66-12.51-11,52.24-91.89,114.11-149.36,189.82-28.3,37.28-84.6,95.64-95.64,97.85-14.12-3.49-22-10.06-30.16-20.6Z"/>
  <path id="bennettShoe" class="cls-3" d="M1248.64,965.78c43.23,40.58,83.12,72.46,123.59,65.11,38.33-7,89-9.57,128.75-43.41,4.41,19.13,14.71,32.37,33.11,47.08-28.31,42.88-75.76,82-114,133.91-24.45,33.15-55.92,69.89-73.57,73.57-38.48-19.59-72.09-92.33-123.59-138.68Z"/>
  <path id="bennettShoelace" class="cls-3" d="M1456.67,1034.26c-3.6-5.3-5.35-11.89-6-19.28-27.22,9-55.13,11.66-78.45,15.91-13.54,2.46-28.65,0-44.39-5.9-2.33,8.53-2.76,16.75-.71,24.56C1362.67,1058.72,1426.48,1049.55,1456.67,1034.26Z"/>
  <g id="clothesOverlapLine">
    <path class="cls-3" d="M1327.13,1049.55c-25.61-4.26-38.56-24.21-56.7-30.71"/>
    <path class="cls-3" d="M1345.3,1030.11a64.57,64.57,0,0,0-1,22.32"/>
    <path class="cls-3" d="M1366.5,1031.63a54.67,54.67,0,0,0,0,21.52"/>
    <path class="cls-3" d="M1387.74,1028.31a142.67,142.67,0,0,0,0,23.48"/>
    <path class="cls-3" d="M1407.46,1025.16a71.53,71.53,0,0,0,1.41,23.62"/>
    <path class="cls-3" d="M1428.29,1021.12a50.34,50.34,0,0,0,3.59,22.39"/>
  </g>
  <path id="clothesDisplayLine" class="cls-3" d="M1534.09,1034.56a422.89,422.89,0,0,0,55.19-81.35"/>
  <path id="bennettShirt" class="cls-3" d="M440.91,748.16c10.6,10.5,11.16,22.8-5.63,38.23,5.23,9.6,5,22.24-1.6,28.77-99.83,82.25-310.53,219-384.29,174.12-11.57,2.8-1.31-36.77-8.14-55.31-10.88-29.56,23.42-23.42,8.59-50.07Z"/>
  <path id="bennettJeans" class="cls-3" d="M49.39,989.28c60.25.06,113.58-28,162.84-72.78,38.53-39.62,91.43-60.24,134.46-62.91,158.92-69.67,332.89-151.11,404.63-156.67,61.21-4.75,222.91,136.93,403.39,224.51,18.3,8.88,57.08-3.31,72.79,29.61,30-15,27.32,14.6,42.93,34-16.14-6.71-16.5,21,0,33.82-4.85,27.48-12.82,65.49-29.25,102.3-30.28-4-60.76,28.21-77-12.9-37.51,21.39-54.54-14.41-82.21-24C837.07,999.68,825.36,939.84,793.31,942.38c-29.43,2.33-20.79-20.67-31.73-25.55-7,26.39-24.75,17.81-41.81,30.19-125.65,91.23-378.46,217.64-436.59,222.17C161.16,1178.7,69.48,1104.73,49.39,989.28Z"/>
  <g id="clothesFoldLine">
    <path class="cls-3" d="M1191.24,958.87c-1.45,26.2-9.7,50.4-28.56,71.49"/>
    <path class="cls-3" d="M1227.5,951c5.49,23.55-32.43,108.27-21.62,114.73,11.38,6.81,22.7-43.93,31.49-78.35"/>
    <path class="cls-3" d="M1164.14,1108.24c22-16.84,36.61-33,34.42.73"/>
    <path class="cls-3" d="M853.68,760.43c19.45,39,45.3,72.27,82,95.93"/>
    <path class="cls-3" d="M722.61,800c-3.66,46.87,29,109.86-1.46,107.64"/>
    <path class="cls-3" d="M800.23,797.78c-11.11,118.32-.49,107.18,24.16,12.45"/>
    <path class="cls-3" d="M761.58,916.83c6.43-56.08-8.19-122,5.7-119.05,20.34,4.28,1.46,54.91,2.93,112.76"/>
    <path class="cls-3" d="M296.45,917.13c-21.94,1.63-35,36.35-43.93,86.4"/>
    <path class="cls-3" d="M212.23,916.5c-17.95,23.17-30.86,46.07-39.52,68.73"/>
    <path class="cls-3" d="M346.69,853.59c-52.43,32-129.32,60.61-122,105.28C227.77,977.59,254,923,284,895.16"/>
  </g>
  <g id="bennettHoodie">
    <path class="cls-3" d="M543.9,431.85c6.89-2,15.06-2.06,21,5.4,62.67-27.7,68.56-40.65,78.76-42.35,6.68-1.12,29.17,17.05,24.65,22.1C522.05,515.56,470.2,530.21,543.9,431.85Z"/>
    <path class="cls-3" d="M579.51,269.87c1.92,51.1-19.29,52.06-22.87,88.1-4.76,47.72,20.83,42.57-29.49,121.73,21.34-.37,31.3-34.79,56.82-18.94,22.36-11.48,46.93-44.83,57-51.82,21.22-13.27,81.64,73.63,60.87,87.6-7.7,5.18-45.25,27.67-63.14,46.3-7.61,21.42-17.54,37.77-36.82,33.67-40.7,87.57-73.3,58.59-133.07,111.93-4.86,25-14,47.76-33.51,65.21-70.74,70.58-148.78,23.67-240.17,48.05C93.64,828.77,57.23,919.76,1.47,875.91c7.24-21.64,43.47-28,61.58-67C56.71,768.23,38.6,758.27,79.36,693c-.91-78.7,29.88-87.75,30.79-123.17.48-19,94.19-256.21,201-367.7C427.13,117.07,596.86,157.08,579.51,269.87Z"/>
    <path class="cls-3" d="M579.51,269.87c1.92-85.8-133-134-295-37-57.12,34.19-126.26,8.12-77.09-69-22.45-32.23,26-44.34,38.56-66.52C244,60.67,283.79,5.5,318.24,24,440.56,89.81,645.06,151.29,579.51,269.87Z"/>
  </g>
  <g id="bennettHoodieInner">
    <path class="cls-3" d="M365.48,79c35.67-16.39,45.31-54,84.84-32.78C545.71,97.39,594.17,154.45,587.8,200.6,559.9,156.13,442.61,130.08,365.48,79Z"/>
    <path class="cls-3" d="M435.28,753.65C340.21,835,240.17,730.5,161.77,726.9,132,821.53,52.72,908,1.47,875.91c5.29,24.92,85.5,15.91,136.26-14,54.6.1,101.16-14.13,136.76-47.9C349,815.89,399.73,792.78,435.28,753.65Z"/>
  </g>
  <g id="skinEastAsian">
    <path class="cls-3" d="M490.8.46l-36.88,71c54.57,48.79,127.36,80,133.88,129.15l33.84-60.26"/>
  </g>
  <g id="bennettHoodieLace">
    <path class="cls-3" d="M521.87,344.41l-35.8,14.83c-1.93.85,1.61,8.93,3.55,8.08L525.75,352Z"/>
    <path class="cls-3" d="M577.8,297.49c-13.48,19.56-25.88,31.83-54.66,43.8-3.93,1.8,2,13.59,5.89,11.78C555.57,344.11,588.6,315.1,577.8,297.49Z"/>
  </g>
  <g id="clothesOverlapLine-2" data-name="clothesOverlapLine">
    <path class="cls-3" d="M547.23,344.41c-5.25,24.66-4.51,50.45-28.75,52.74,8.52,20.86-2.18,43.45-11.1,50.27-9.72,7.43,6.53,43.75-28.73,62.68-6.28,3.37-1.23,12.73-6.53,20.24l30-17.63,25-33"/>
    <path class="cls-3" d="M564.85,437.25c5.19,7.51,7,13.91,5.86,19.35"/>
    <path class="cls-3" d="M584,460.76c18.08,5.6,57.26,55.87,54.71,82.08"/>
    <path class="cls-3" d="M468.79,688.44C438.17,711.2,348.72,714.73,322,687.31,280.16,649.44,286,521.86,327.17,432.4c9.14-13.71-4.57-37.21,13.06-53.54"/>
    <path class="cls-3" d="M287.69,770.5a97.81,97.81,0,0,0,33.55-25.91c37.48,18.91,77.63,18.22,119.67,3.57"/>
  </g>
  <g id="clothesFoldLine-2" data-name="clothesFoldLine">
    <path class="cls-3" d="M453.92,71.45c-10.4-8.94-19.4-17.58-6.79-17.47"/>
    <path class="cls-3" d="M365.48,79C322.72,60.87,287.93,21.48,326,38.55"/>
    <path class="cls-3" d="M245.93,97.3c1,12.48,10.08,20.71,8.84,30.21"/>
    <path class="cls-3" d="M207.37,163.82c3.56,5.17,5.12,10.54.79,16.54"/>
    <path class="cls-3" d="M563.63,305.08C578.52,231.82,492.16,189.53,541,258"/>
    <path class="cls-3" d="M330.74,348c-9.85-16.29-10.9-37.81-6.55-62.54"/>
    <path class="cls-3" d="M339.08,331.29c-8.34-49.44,32.17-8.34,1.15,47.57"/>
    <path class="cls-3" d="M193.75,432.54c30.71,19.2,64.62,27.18,101.26,25.61"/>
    <path class="cls-3" d="M306.47,491c-24.88,2.31-47.08,1.63-66.26-2.42"/>
    <path class="cls-3" d="M126.45,611.23c32.17,26.26,77.74,23.36,128.06,10.12"/>
    <path class="cls-3" d="M79.36,693c-1.1,8.26-.93,14.89,1.23,18.91,12.77,15.37,64.32,16.09,116.74,3.58"/>
    <path class="cls-3" d="M63.05,808.89c3.62,12.57,3.61,27-15.22,50.71"/>
    <path class="cls-3" d="M435.28,786.39c-18.4,10.14-60.46,14.24-39,26.75"/>
    <path class="cls-3" d="M270,843.52c-69.09,36.33-162.4,106.07-203.1,81.6"/>
    <path class="cls-3" d="M350.4,408.72c25.61,5.95,8.34,16.08-11.32,41.69"/>
    <path class="cls-3" d="M308.11,588c7.87,9.67,10.34,24,8.34,42.29"/>
    <path class="cls-3" d="M518.48,397.15c-7.86-22.38-23.94-17.62-16.2,7.4"/>
    <path class="cls-3" d="M418.9,351.54c28,84.57,73.85,69.68,81.33,133.78"/>
    <path class="cls-3" d="M465.65,474.72c-72.21-24.45-.77,11.65,9.39,42.51"/>
    <path class="cls-3" d="M434.6,552c-47-28,10.87-11.65,37.52-21.64C462.55,571,377.36,583.62,353.85,632"/>
    <path class="cls-3" d="M385.29,556.64c58,4.09-6.21,15.53-29.89,43.87"/>
    <path class="cls-3" d="M427.22,619.92a110.13,110.13,0,0,1-32.61,59"/>
    <path class="cls-3" d="M427.22,573.18c-3.87,32-16.29,59.59-36.88,82.84"/>
    <path class="cls-3" d="M459.56,550.77c3.06,25.5-1.46,55.3-11.38,88.17"/>
    <path class="cls-3" d="M472.12,530.34c12.57,1.6,18.38,38.72,14.5,68.22"/>
    <path class="cls-3" d="M502.15,512.71c40.35,6.45,50.91,49,52.4,102.55"/>
    <path class="cls-3" d="M552.61,519.76c26.45,14.86,44.46,33.13,49.25,56.75"/>
    <path class="cls-3" d="M566.59,483.65c12.81,3.5,52.41,43.48,19.8,36.49"/>
  </g>
</svg>
