<svg viewBox="0 0 180.38 453.28">
  <g class="soleWhite">
    <path d="M94,433c4.64,1.34,11.13,1.86,9.75,9.77-4.36,2.94-19.44,6-30.27,2.33-4.75-1.61-17.46-.62-20.75-3.83a10.75,10.75,0,0,1-1.17-6.69C66,429.65,82.28,429.16,94,433Z"/>
    <path d="M65.39,437.09c4.09,2,11.1,3.78,9.73,11.69-6,5-19.86,5.48-30.18,2.11C40.18,449.34,29.21,448,27.37,446a10.77,10.77,0,0,1-1.17-6.69C35.53,436.1,59.46,435.14,65.39,437.09Z"/>
  </g>
  <g class="bennettShoe">
    <path d="M72.67,402.62c.1,6.08,4.24,14.91,7.49,19,3.89,4.9,9,9.36,13.81,11.39-6.36-1.55-12.61,3.2-12.06,7.65-5.12-.26-12.38-1.78-17.55-2-4.83-.17-12-2.82-12.83-4.11-1.29-5.84,5.62-18.78,4-29.18C59.91,401.47,66.8,399.66,72.67,402.62Z"/>
    <path d="M48.53,409.88c.1,6.07.54,12,3.79,16.07,3.89,4.91,8.25,9.11,13.07,11.14-6.06-.86-12.61,3.84-13.28,8.82-4.48-.29-10.29-2.22-14.48-2.67-4.81-.51-10.57-2.66-11.43-3.95-1.29-5.85,2.82-16.78,2.4-27.35C34.93,408.33,42.66,406.91,48.53,409.88Z"/>
  </g>
  <g class="shoelace">
    <path d="M80.16,421.62a34,34,0,0,1-3.65-6,18.63,18.63,0,0,0-6.5,1.14c2,6.14,5.3,11.1,9.08,13.73a22.22,22.22,0,0,1,8.29-1.59A46.68,46.68,0,0,1,80.16,421.62Z"/>
    <path d="M52.32,426a15.52,15.52,0,0,1-2.81-6.05,20.29,20.29,0,0,0-6.22.72c1.23,5.27,3,10.52,7.68,14.94a37,37,0,0,1,8.89-1.83A47.75,47.75,0,0,1,52.32,426Z"/>
  </g>
  <path class="converseLogo" d="M61.38,433.06c5.7.54,6.35-10.85.46-11.5C56.61,421,55.68,432.52,61.38,433.06Z"/>
  <g class="mandolin">
    <g class="mandolinDark">
      <path d="M112.43,209.55l3.12,1.54c2,1.11.84,3.87,1.52,5.24C113.36,215.92,111.28,214.11,112.43,209.55Z"/>
      <path d="M102.14,303.61c.6-3.15.54-5.73-1.24-7-2.35-1.69-2.06-6.46-1.29-11.8,1.2-8.23,3.62-24.22,5.2-32.86.45-2.11,2.4-4.06,4.85-5l-2.4-.72c-9.74-1.78-19.06,40.18-15.87,55.21Z"/>
    </g>
    <g class="mandolinMedium">
      <path d="M117.07,216.33l2.12.89c-4.76,8.08-9.09,21.88-9.53,29.69l-2.4-.72C105.44,239,112.18,219.27,117.07,216.33Z"/>
      <path d="M74.33,394.92c20,3,33.79-3.87,39.87-23.94,4.28-14.12,3.17-33.85-4.52-46a21.53,21.53,0,0,1-3.71-9.13c-.72-6.15-.38-11.06-3.83-12.25l-8.81-1.81Z"/>
    </g>
    <g class="mandolinLight">
      <path d="M85.2,300.32c-2.93.33-4.33,5.1-7.21,10.69a18.48,18.48,0,0,1-6.06,6.82C60,326.23,51.3,345.24,50.44,360.18c-1,17,1.81,30,17.91,33.8,17.19,4,30.53-6.32,35.55-23.26,4.24-14.35,4-34-3.84-46.3a23.61,23.61,0,0,1-3.14-9.73c-.53-6.26.21-11.69-3.59-12.89Z"/>
      <path d="M102.39,250.92a8.43,8.43,0,0,1,4.87-4.73c-.28-6.09,5.76-23.72,9.81-29.86-1.49-.47-2.38-1.27-2.26-2.75.28-3.39-3.93-6.79-7.61-1.21a3.19,3.19,0,0,1-3,1.59c-.62,6.38-5.35,24-9.18,29.86,1.13,1.6.93,3.58.55,5.75Z"/>
    </g>
    <path class="fHole" d="M95.71,341.94a2.13,2.13,0,0,0-.42,2.36,1.14,1.14,0,0,0,1.81.14c.66-.58,1-2.25.14-2.66,3.06-2.51,1.64,5.06,1.12,6.89-.43,1.55-1.79,6.72-2.43,8.32a3.84,3.84,0,0,1-1.69,2.27,2.31,2.31,0,0,1,.44,2.05c-.47,1.93-1.14,4.34-1.4,5.73-.46,2.49-.35,6.26,1.31,6.94,1,.41,2.5-.72,3-1.25a3.44,3.44,0,0,0,1.05-2.84,1.31,1.31,0,0,0-2.1-.78,2.61,2.61,0,0,0-.82,3.45c-2.29,2.32-.67-5.82,0-7.72.78-2.15,2.22-4.91,2.8-6.51a3.18,3.18,0,0,1,1.88-2.17c-.65-.25-.92-.88-.73-1.79.47-2.19.9-6.91,1.06-8.65.21-2.24-.18-4.73-1.88-5.34C97.73,340,96.31,341.13,95.71,341.94Z"/>
    <polygon class="fretboardDark" points="88.51 320.65 89.66 320.73 103.15 251.07 102.39 250.92 88.51 320.65"/>
    <polygon class="fretboardLight" points="94.71 251.67 80.09 318.95 88.51 320.65 101.95 253.12 94.71 251.67"/>
    <g class="bridgeDark">
      <rect x="86.14" y="350.44" width="2.71" height="6.25" transform="translate(-276.45 368.07) rotate(-78.38)"/>
      <rect x="66.98" y="347.43" width="2.71" height="4.4" transform="translate(-287.89 346.16) rotate(-78.38)"/>
    </g>
    <g class="bridgeNutLight">
      <path d="M102,253.12l.44-2.2-7.25-1.43c-.64-.13-1.07,2-.43,2.18Z"/>
      <rect x="76.11" y="344.39" width="2.71" height="14.23" transform="translate(-282.44 356.6) rotate(-78.38)"/>
    </g>
    <g class="brassDark">
      <polygon points="75.31 384.25 76.49 384.5 74.09 395.42 72.87 395.32 75.31 384.25"/>
      <path d="M111.86,220.44a1.24,1.24,0,0,1,.51,1.63c-.24.73-.86,1.18-1.38,1l-1.41-.46.87-2.64Z"/>
      <path d="M109.85,226.42a1.24,1.24,0,0,1,.51,1.63c-.24.73-.85,1.18-1.37,1l-1.41-.46.86-2.64Z"/>
      <path d="M107.94,232.43c.52.17.74.9.51,1.63s-.86,1.18-1.38,1l-1.41-.46.87-2.64Z"/>
      <path d="M106,238.44a1.24,1.24,0,0,1,.51,1.63c-.24.73-.86,1.18-1.38,1l-1.4-.46.86-2.64Z"/>
      <path d="M105.94,219.44a1.24,1.24,0,0,1,.51,1.63c-.24.73-.86,1.18-1.38,1l-1.41-.46.87-2.64Z"/>
      <path d="M103.93,225.42a1.24,1.24,0,0,1,.51,1.63c-.24.73-.85,1.18-1.37,1l-1.41-.46.86-2.64Z"/>
      <path d="M102,231.44a1.24,1.24,0,0,1,.51,1.63c-.24.72-.86,1.18-1.38,1l-1.41-.46.87-2.64Z"/>
      <path d="M100.08,237.45a1.23,1.23,0,0,1,.51,1.62c-.24.73-.85,1.19-1.38,1l-1.4-.47.86-2.64Z"/>
    </g>
    <g class="brassLight">
      <path d="M75.31,384.25l-2.44,11.07-8-1.95,2.1-11c.5.12,1.25.23,1.36-.1.86-3.71,6.58-2.38,5.72,1.33C74.06,383.93,74.86,384.17,75.31,384.25Z"/>
      <ellipse cx="110.02" cy="221.3" rx="1.39" ry="0.99" transform="translate(-134.53 256.97) rotate(-71.87)"/>
      <ellipse cx="108.01" cy="227.28" rx="1.39" ry="0.99" transform="translate(-141.59 259.19) rotate(-71.87)"/>
      <ellipse cx="106.1" cy="233.29" rx="1.39" ry="0.99" transform="translate(-148.63 261.51) rotate(-71.87)"/>
      <ellipse cx="104.16" cy="239.3" rx="1.39" ry="0.99" transform="translate(-155.67 263.81) rotate(-71.87)"/>
      <ellipse cx="104.1" cy="220.3" rx="1.39" ry="0.99" transform="translate(-137.66 250.66) rotate(-71.87)"/>
      <ellipse cx="102.09" cy="226.28" rx="1.39" ry="0.99" transform="translate(-144.73 252.88) rotate(-71.87)"/>
      <ellipse cx="100.18" cy="232.3" rx="1.39" ry="0.99" transform="translate(-151.76 255.2) rotate(-71.87)"/>
      <ellipse cx="98.24" cy="238.3" rx="1.39" ry="0.99" transform="translate(-158.8 257.5) rotate(-71.87)"/>
      <path d="M111.57,241.25l-1.06-.37c-.09.43-.17.85-.25,1.26l.94.3a2.89,2.89,0,0,0-.13,1.24,4.16,4.16,0,0,0,2.91,1.23,5.49,5.49,0,0,0,1.21-3.51,4.94,4.94,0,0,0-3-1.25A2.82,2.82,0,0,0,111.57,241.25Z"/>
      <path d="M113.63,235.36l-1.61-.62c-.12.43-.23.84-.35,1.26l1.58.54a6.79,6.79,0,0,0-.33,1.69,4.18,4.18,0,0,0,2.92,1.23,11.82,11.82,0,0,0,1.64-4.59,4.89,4.89,0,0,0-3-1.26A6.42,6.42,0,0,0,113.63,235.36Z"/>
      <path d="M115.58,229.42l-1.63-.64c-.15.42-.29.83-.43,1.24l1.7.59c0,.45,2,1.44,3,1.38.3-.09.65-1.1.55-1.46C118.22,229.9,115.91,229,115.58,229.42Z"/>
      <path d="M117.57,223.32l-1.23-.49c-.18.4-.36.8-.53,1.21l1.38.46a7.2,7.2,0,0,0-.33,1.69,4.18,4.18,0,0,0,2.92,1.23,11.82,11.82,0,0,0,1.64-4.59,4.87,4.87,0,0,0-3-1.26A6.38,6.38,0,0,0,117.57,223.32Z"/>
    </g>
  </g>
  <path class="bennettJeans" d="M72.36,225.35c.7,3.56,3,7.62,2.11,14.82-.58,4.6,1.1,8.48-.35,12.36-1.07,2.87,2.41,40.58.35,60.54-.53,5.23,3.46,7.75,1.24,12-2.64,5.05,2.89,8.81-.88,12.54C73.34,355.45,72,394.92,73,395.76c2.28,1.53,2.4,4.36.29,5.86,2.86,1.4,1.4,6.15,1,8.88-1.09-4.14-7.07-2.22-7.07.77-3.64,2-10.37,2.31-12.59,6.28-1.21-2.67-4.06-3.63-4.18-5.87-.15,1.81-1.39,2.25-1.73,3.22-.62-3.92-6.87-2.5-6.83,1.15-5.34-.63-9,5.68-13.14,7.45-.36-7.09-6.62-7.91-5.32-11.57.72-2,1.39-2.39.23-4.49-3.3-.89-4.48-5.55-2.71-11.45,1.3-4.33-.47-6.91,1.18-9.45-.24-11.81-2.95-15.82-1.89-35.89.23-4.28-2.24-3.66-.35-9.45,1.71-5.26-3.81-4.49-1.21-10.86,2.07-5.09-4-5.54-2.36-11.69C17.08,315.82,10,277.79,3.13,253c-3.76-13.6-4.23-25.7.94-36.61Z"/>
  <path class="shirtWhite" d="M79.05,194.38c-2.71,3.51-2,9.22-3.84,13,.71,2,.91,3.85-1,5.43-.88,3.66,1.67,7.08-1,10.09a5.37,5.37,0,0,1,.88,4.93c-4.29,1.89-3.14,8.78-16.53,9-18.17.23-38.6-22.21-55.26-18.43-.13-1.11.71-2.37,1.77-3.66-2.27-2.9.58-3.22.76-4.79s-2.78-2.15.25-4.67c2.18-2.85,1.88-10.73,5-19.56-1.76-4,2.91-2.65,3.41-12.37-2.14-3.28,2.15-2.65,2.65-13.5-1.51-2.27.51-2.65,1-3.92,1.48-3.69,1-10.72,3.41-14.89-3.41-3.91,1.26-3.53,2.14-10.72-1.13-3.91,3.54-3.91,5.39-15.53C94.19,87.83,126.33,97.87,79.05,194.38Z"/>
  <path class="bennettSleeves" d="M61.59,171.74c-3-.67-1.87-4.69-4.12-5.84-6.36-7.93-7-12.63-11.88-19.71-3.87-5.59-6.93-14.63-10.41-19.47-8.17-3.33-9.11-10.68-4.65-18,2-2.07-.07-5.67,6.36-7,3.89-5.25,10.93-6.66,14.82-9.18C56,88,56,91.31,59.68,90.66l31.06,9.09c4.5,5.33,13.44,13.33,13.92,18.31.91,9.4-.7,13.61-1.76,21.64-.76,5.79-.78,11.47-2.31,16.38.87,6.72,1.55,29,.16,32.7,2,1.82.49,4.31.74,6.83.5,1.31-22,.07-22.44-1.23-1.34-4.49,2.65-7.71,1.62-10.23C62.85,179.57,64.41,172.37,61.59,171.74Zm1.92-54.38c-.84,1.11-.81,2.17-2.16,2.61,2.73,1.82,1,5.56,4.43,11.46,2.83,2.38.56,3.63,2.84,7.1,2,1.77,3.29,3.6,2.48,5.58,2.05,4.34,5.93,5.36,4.59,8.32,2.34.73,3.46,1.91,2.24,4,1.92-.55,3.85.22,3.72,2.11,1.83,2.2,4.55-1.55,5.83,1.86,5.15-5.91,7.12-14.87,9.93-22.46,3.43-6.48,1.75-8,.53-12,.08-2.53.78-5.69-2-7-2,.6-1.56-3.4-3.85-3.67.14-2.6-1.46-2.37-1.75-4.32-4.93,3.31-17,1.16-22.84-2.36A19.68,19.68,0,0,1,63.51,117.36Z"/>
  <g class="clothesDisplayLine">
    <path d="M59.54,236.7c1.18,3.24-1.2,7.33-.81,10.69.84,7.27-2.32,6.48-2.71,10.23a8.29,8.29,0,0,1-2.6,5.53c5.53-3.1,5.84-5.15,7.34-7,4.48-5.67,1.67-9.23,2.62-11.5,1.79-4.3.33-6.25.84-8.7"/>
    <path d="M69.81,232.3c.87,1.2,2,2.81,4.06,3.16"/>
    <path d="M42,232.74a15.84,15.84,0,0,1-13.17,2.72"/>
    <path d="M81.91,440.66c7.77.5,17.2-.45,21.07-3.41"/>
    <path d="M52.11,445.91c9.4,1,20.48-.81,22.07-3.38"/>
  </g>
  <g class="clothesOverlapLine">
    <path d="M33.37,122.21a13.28,13.28,0,0,0,1.81,4.51"/>
    <path d="M83.47,183.34c-.24,1.37-1.23,1.54-2.8.81"/>
    <path d="M93,162.5c.12-1.32-3-.93-5.47-2.13"/>
    <path d="M50.48,411.68c1.17-3.33-4.82-3.71-.84-6.55s1.1-6.54,1.27-8.56c.78-23.7,1.81-51.1,3-58.67,3.46-3.7-.33-6.57.74-7.83,3-3.56-1.43-13.08-1.41-19.12.05-17.5,1.86-37.44-1.31-43.36"/>
    <path d="M70.91,419.28A22,22,0,0,1,77.73,418"/>
    <path d="M72.15,422a17.7,17.7,0,0,1,6.94-1.85"/>
    <path d="M73.56,424.48a18.38,18.38,0,0,1,7.32-2"/>
    <path d="M75.13,426.7a15,15,0,0,1,7.78-1.91"/>
    <path d="M76.94,428.72A15.54,15.54,0,0,1,85,426.9"/>
    <path d="M67.25,411.27c1.38,1.14,1.88,3.42,2.76,5.52"/>
    <path d="M41.92,416.05c.84.62.91,2.83,1.37,4.57"/>
    <path d="M44,423.5a27,27,0,0,1,6.45-.66"/>
    <path d="M45,426.31a23.66,23.66,0,0,1,6.93-.94"/>
    <path d="M46.13,429a28,28,0,0,1,7.68-1.27"/>
    <path d="M47.48,431.4a24.59,24.59,0,0,1,8-1.75"/>
    <path d="M49,433.52a25.21,25.21,0,0,1,8.28-2"/>
  </g>
  <g class="clothesFoldLine">
    <path d="M4.05,214.7c4.13,1.9,14.3.21,24,3.05"/>
    <path d="M12.33,213.49c3.51-.93-1.57-2.42-5.82-3.89"/>
    <path d="M13,208.41c3.07,2.87,8.06,4.34,14.07,5.08"/>
    <path d="M23.08,196.24A16.3,16.3,0,0,1,12.33,201"/>
    <path d="M26.86,187.38c-2.37,4.83-6.37,8.56-11.94,11.23"/>
    <path d="M37.37,186.08c2.45,7.75,9,12.74,18.2,15.95"/>
    <path d="M42.93,198.84c7.67,6.69,16.53,8.17,26.23,6"/>
    <path d="M73.77,209.24c-3.19,2.6-13.08,4.72-18.79,5.2"/>
    <path d="M74.2,212.81c-3.15,1.87-8.72,3.37-14.26,3.88"/>
    <path d="M55.45,219.17c-5.84-.28-11.11-1-15.24-2.6"/>
    <path d="M25.32,219.4c5,1.54,7.09,4.73,16.78,7"/>
    <path d="M67.74,221.18c-5.08,3.42-17.26,3.37-30.13-1.42"/>
    <path d="M73.19,222.9c-3.37,2.62-8.9,3.84-16.67,3.59"/>
    <path d="M66.32,228a17.14,17.14,0,0,1-15.47,2.13"/>
    <path d="M49.31,174.86c5.55,12.77,13.1,21.15,24,22.21"/>
    <path d="M59.94,184.07c5,8.48,10.58,11.07,16.66,9.1"/>
    <path d="M10.09,185.68c3.49-.69,7.42-3.35,11.57-6.92"/>
    <path d="M13.5,173.31c14.07-7.08,20.24-6.27,1.66,6.75"/>
    <path d="M18.11,168.12a51.61,51.61,0,0,0,14.54-7.8"/>
    <path d="M16.15,159.81c1.73.28,3.86-.31,6.34-1.26"/>
    <path d="M28.87,154.65c-3.1.34-6.86,2-9.57,2"/>
    <path d="M20.57,141a23.93,23.93,0,0,0,12.08,3.25"/>
    <path d="M22.71,130.28c2.73,5.58,10.38,9.32,6,10.07"/>
    <path d="M26.15,131.73a27.05,27.05,0,0,0,11,9.81"/>
    <path d="M87.48,160.37c-3,2.85-5.49,7.5-7.69,12.95"/>
    <path d="M83.69,160.32c-2.83,2-6.42,8.3-8.5,14.18"/>
    <path d="M81.65,158.51c-6.45.59-11.78,8.31-11.43,18.36"/>
    <path d="M66.56,172.61c-.71-5.55,3.38-9.57,3.66-11.22.35-2-2.13-.41-7,8.15"/>
    <path d="M56.63,159.14c4,2,10.44-.28,5.68,5.79"/>
    <path d="M55.57,155.71c14.77,4.26,15.13-2,20.12-3.28"/>
    <path d="M77.93,156.4c-1.78,1.47-3.33.73-1.8-1.39"/>
    <path d="M46.71,145.32c2.33,2,5.59,3,9.33,3.54"/>
    <path d="M52.62,146c4.84,2.12,7.91.35,12.17.94"/>
    <path d="M71.1,144.11c-2.2-3.3-6.08-4.42-11.16-4"/>
    <path d="M53,136c6.74,2.6,11.46-.12,15.65,2.55"/>
    <path d="M40.33,128.89c7.68,6.5,26.82,1.66,26.08,5.61"/>
    <path d="M65.78,131.43c-5.6-4-12.57-1.24-17.89-3"/>
    <path d="M61.6,123.81A12.49,12.49,0,0,0,50.37,122"/>
    <path d="M45.88,119c5.2-.83,9.37,1.26,3.78-2.72"/>
    <path d="M61.35,120C56,114.78,48.94,113,41,112.7"/>
    <path d="M35.84,105.5c9-5,24.22,3.78,21.69,11.47"/>
    <path d="M36.89,101.73c6.75-2.38,14,2,15.85,1.52,1.62-.44-1.42-4.13-.6-7.21"/>
    <path d="M57.34,92.38c-4.6,11.94,5.44,18.55,6.17,25"/>
    <path d="M65.78,113.79A26.73,26.73,0,0,1,64,127.28"/>
    <path d="M66.75,111.57a19.54,19.54,0,0,1,1.87,11.05"/>
    <path d="M71.4,116.6c.27,5.75-.75,11.17-4.65,15.85"/>
    <path d="M87.12,120.5a71.59,71.59,0,0,1-9,16.43"/>
    <path d="M92.91,109.87c.42,4.59-4,14.33-9,24.69"/>
    <path d="M95.78,110.51a101.61,101.61,0,0,1-1.4,22.4"/>
    <path d="M98.1,117A47.63,47.63,0,0,1,97,131.44"/>
    <path d="M102.32,118.66c-.06,6-.63,11.59-3.25,15.35"/>
    <path d="M103,131c-2.11,4-10,12.71-2.53,6.81"/>
    <path d="M100.59,156.08a15,15,0,0,1-3.61,7"/>
    <path d="M98.85,188.15c-6.59-.8-16.28.92-12.89-2.3"/>
    <path d="M100.65,191.35a47.7,47.7,0,0,0-8.39-.1"/>
    <path d="M99.3,152.16c-1.92,3.75-4.09,7.16-7.24,9.28"/>
    <path d="M52,267.59c7.29-5-9.34-12.31-8.53-14.2,1.24-2.87,6.22,1.69,9.81,7.11"/>
    <path d="M67.86,252c-1.88,3.13-4.21,5.69-7.66,6.91"/>
    <path d="M49.53,266.26c-3.8-.57-7.25-.6-10,.38"/>
    <path d="M67.48,264.13a24.35,24.35,0,0,0-9.42-.63"/>
    <path d="M72.5,321.37c-2.93,1.72-7,1.41-12.3-1.26"/>
    <path d="M53.42,322.75c-2.34,5.85-15.1,3.13-20.37-2.89"/>
    <path d="M73.38,325.38c-7.53,3.14-9.14,4.81.12,6.78"/>
    <path d="M58.06,324.38c7.09,1.05,9.06,2.35,1.26,4.14"/>
    <path d="M56.93,331.41c11.92,1.75,22.54,3.6,4,7.65"/>
    <path d="M29.79,326.14c15.94,3.38,26.36,2.76-.63,9.41"/>
    <path d="M53.93,337.9c-2.77-5.36-12.11-.54-18.12,1.67-2.67,1,0,1.86,4.18,2.13"/>
    <path d="M33.68,344.46a12.76,12.76,0,0,0-10-1.25"/>
    <path d="M22.16,386.54c2.39-1.57,3-4.76,3-8.44"/>
    <path d="M48.15,400.32c-4.83,2.71-9.73,2.16-14.69-.76"/>
    <path d="M71.37,397.43c-4.45,3.61-9.67,3.73-15.44,1.38"/>
    <path d="M73.31,401.62a13.83,13.83,0,0,1-6,1.84"/>
    <path d="M63.47,406c-2.85,1.57-12.43,6.4-12.22.22"/>
    <path d="M52.74,400.75c2.81,1.42,5.35,2.86,3.69,4.54"/>
    <path d="M23.69,407.44c9.08-2.82,17.09-2.8,16.91-1.51-.33,2.26-10.78.64-15.18,3.34"/>
    <path d="M32.57,415.88c-12,.81-2.46-6.81,9.23-4.05"/>
  </g>
  <g class="eye">
    <circle class="sclera" cx="107.04" cy="58.29" r="16.06"/>
    <g class="irisDarkBrown">
      <ellipse cx="102.5" cy="57.46" rx="3.47" ry="2.68" transform="translate(34.25 153.12) rotate(-83.77)"/>
      <ellipse cx="121.33" cy="60.05" rx="3.47" ry="2.68" transform="translate(48.48 174.15) rotate(-83.77)"/>
    </g>
    <g class="pupil">
      <ellipse cx="103" cy="57.52" rx="1.35" ry="1.04" transform="translate(34.65 153.67) rotate(-83.77)"/>
      <ellipse cx="121.84" cy="60.1" rx="1.35" ry="1.04" transform="translate(48.87 174.7) rotate(-83.77)"/>
    </g>
  </g>
  <g class="skinEastAsian">
    <path d="M101,195.93c-2.74.63-16.3-.08-20.64-1,1.19,12.55,6,26.93,10,41.91.81,4.6-4,3.77-1.69,20.82A9.79,9.79,0,0,0,90,260.18c-2-.1-3.84,1.79-2.51,4.45.42.84,1.91.27,2.74.05-1.63,1.34-1.21,4.21.71,4.21l1.13-5.19c6.8,1,4.61-7.29,2-9.07l.64-3c-.64-.13-.21-2.31.43-2.18l.46.08c.38-2.17.58-4.15-.55-5.75a29.86,29.86,0,0,0,2.31-4.59A1.56,1.56,0,0,1,97.3,238a1.44,1.44,0,0,1,1-1c.42-1.12.83-2.3,1.23-3.52a1.61,1.61,0,0,1,.81-2.51s0-.1,0-.15C99.72,220.65,100.35,209.35,101,195.93Z"/>
    <path d="M99.13,91.11c-5.19.49-4.89,4.45-6.9,10.33-2.49,11.2-30.9,3.94-32.55-10.78,5.62-4.75,6.61-15.13,6.86-22.06"/>
    <path d="M157.63,162.2c7,.56,15.48,1.14,17.27,1.94,2.74,1.22,2.23,4-.26,4.94,3.55,0,5.38.71,5.48,2,.14,1.85-1.41,2.89-3.66,3.15,1.36.45,2.13,1.33,1.56,2.67-.83,1.95-4,1.78-7.91,1.89a2.14,2.14,0,0,1,1.38,3.6c-2.54,1.81-8.41.47-15.2,1.44-16.76,2.37-19.15-4.72-23.08-4.89-17.57,1.56-35.29,7.47-49.74,4.36.31-6.22,5.59-16.79,9.48-20.84,12.43,1.87,28.29,4.36,40,2.18,1.4-4.14,6.53-6,9.78-9.21,3.73-3.91,7.46-3.67,9.07-6.88,2.58-.47,4.2,5.16-1.72,8.22a7.71,7.71,0,0,1-2.19,2.1C152.12,160.17,154.6,162,157.63,162.2Z"/>
    <path d="M103.07,262.2c-4.39.33-7.24,7.86-1.76,6.3-2.63,1.56-1.39,6.7.82,5.15,3.53-2.66,6.25-2.74,8-4.84s1.63-5.84,1.6-10.84c.74-1.18,2.51-4,1.35-5.83-.77-1.25-1.87-4.15-3.39-5.23-2.45,1-4.4,2.93-4.85,5C104.3,254.76,103.69,258.35,103.07,262.2Z"/>
    <path d="M67.64,71.61c-3.72,1.83-5.39.46-6.48-1.63C60,66.45,54.05,63.53,56.05,54.9,55.33,31.65,106.54,11,126.25,37c-2.91,13,2.25,9.74-1.84,21.6-1.29,8.82,2,20.6-10.42,34.43-3.28,3.66-5.2,8.58-10.77,8.61-7.68,0-10.66-3.19-19.53-8.27A33.66,33.66,0,0,1,71.35,81.11m34.78-22.62c-1.12-1.74-1.66-4.2-5.3-4.63-2.67-.31-6,1.79-7.63,3A12.17,12.17,0,0,0,99.44,60c2.65.38,4.81-.85,5.91-.71C105.74,59.31,106.63,59.26,106.13,58.49Zm10.26,2c.5,0,2.35,3.17,5.82,1.57a6.51,6.51,0,0,0,.71-4.22c-.63-.56-2.59-2.55-7.13,1.89C115.44,60.09,115.74,60.56,116.39,60.5Z"/>
  </g>
  <g class="skinOverlapLine">
    <path d="M156.14,162.36"/>
    <path d="M174.64,169.08c-5.22.2-11.06-.72-15-.58a1.54,1.54,0,0,1-1.42-1.11"/>
    <path d="M176.46,174.27c-5.1.25-10.52-.39-16.79-.41"/>
    <path d="M170.11,178.83c-3.44.22-7.3-.18-11.21-.1-.76.06-1.17.18-1.45.92"/>
    <path d="M90,260.18c1.36,1.72,1.09,3.22,2.07,3.52a5.68,5.68,0,0,0-1.84,1"/>
    <path d="M101.31,268.5c2.25-1.48,4.62-2,5.85-3.42,1.88-2.15,2.34-4.13,4.54-7.11"/>
    <path d="M103.07,262.2c.88-2.44,1.84-4.46,3-5.5a5.89,5.89,0,0,1-1.5-3.36"/>
    <path d="M90.35,236.82"/>
  </g>
  <g class="skinFoldLine">
    <path d="M66.2,57c-2.17-9.48-12.6-2-6.75,6.26"/>
    <path d="M65.55,59.52c-2.61,1.94,2.24,5.25,0,6.51-1.2.68-.69-1.55-3.49-3.1-3.69-2,.33-6.76,2-5.11"/>
  </g>
  <path class="lipMaleMedium__noStroke" d="M107.28,80.05a4.31,4.31,0,0,0,4.58.14c2.26.5-1.27,2.22.27,3.79-.08,1.09.87,7.4-5.68,7.84-7.39.5-6.78-7-8-8.95C103.22,82.41,104.45,79.79,107.28,80.05Z"/>
  <path class="mouthInner" d="M109.3,85a6.48,6.48,0,0,1-.25,2.1,9.75,9.75,0,0,0,2.93-3.2A6.8,6.8,0,0,1,109.3,85Z"/>
  <path class="tongue" d="M103.32,82.35a13,13,0,0,1-4.91.52c2.16,2.11,6.39,6.9,10.64,4.2a6.29,6.29,0,0,0,.12-3.09A35,35,0,0,0,103.32,82.35Z"/>
  <path class="teeth" d="M112,83.87a5.15,5.15,0,0,1-1.41-1.75c-3.09,1.23-3.45-.86-4.56-.55a31.83,31.83,0,0,1-5.47,1.32C104.26,85.64,109.33,85.78,112,83.87Z"/>
  <g class="lipOverlapLine">
    <path d="M110.57,82.12a2.43,2.43,0,0,0,.55-.33"/>
    <path d="M112,83.87a2.3,2.3,0,0,0,1.31.41"/>
  </g>
  <g class="lipEdgeLine">
    <path d="M107.28,80.05a4.31,4.31,0,0,0,4.58.14"/>
    <path d="M99.9,88.08c3.17,5.55,10.25,4.21,11.64.69"/>
  </g>
  <g class="cheekLine">
    <path d="M115.8,75.34c.67.78.87,2.59.58,4.1"/>
    <path d="M104.14,70.39c-2.09,1-2.73,3-5.38,4.82"/>
  </g>
  <g class="noseLine">
    <path d="M114.5,67.63c0,3.16,4.54,5.94-.28,9.12"/>
    <path d="M104.14,70.39c-1,.74-2.06,3.75-.59,5.16"/>
    <path d="M105.67,75.19c2.56-.37,2.73,1.15,5.16,1.5a4.51,4.51,0,0,0,3.62-1.26"/>
  </g>
  <g class="eyeFoldLine">
    <path d="M122,63.85a4.36,4.36,0,0,1-4.4-.17"/>
    <path d="M102.89,61.55c-2,1.23-6.38.44-8-1.29"/>
  </g>
  <g class="eyeCornerLine">
    <path d="M90.86,57.72a7.61,7.61,0,0,0,2.34-.84"/>
    <path d="M122.92,57.85c.28.26.44.6.8.81"/>
  </g>
  <path class="eyeCreaseLine" d="M94.28,54.18c1.87-.88,7.47-4,11.52,1.7"/>
  <g class="eyebrowBlack">
    <path d="M110.15,47.33c-4.13,4.46-9.39-3-18.56,1C100.71,41.62,102.91,48,110.15,47.33Z"/>
    <path d="M117.72,48.61c1.72,3,4.38,2,8.29,3.45a11.87,11.87,0,0,0,0-1.55C122.9,48.83,121.1,50.16,117.72,48.61Z"/>
  </g>
  <path class="hairBlack" d="M99.82,31.73c.1,14,12.51,13.69,15.34,16.39a16.29,16.29,0,0,0-2.26-4.82c3.77,4.21,13.43,3.54,15.64,7.08,1.67-5.72,3.42-13.33-.36-17.86.92.9,1.92,1.37,4.33,2.73C127,27.64,124.36,12.12,99.89,7.37,91.38,5.72,79.3,5.54,73.37,9.53c.28-3.73,3.23-7.34,6.37-9a11.35,11.35,0,0,0-9.24,9.77c-.87-3.76-5.09-6.6-8.87-4.23a5.45,5.45,0,0,1,6.2,6.53C53,23.42,53.22,51.67,56.05,54.9c1.92-7.16,11.35-7.27,11.83-.39a29,29,0,0,0,7.66.81c1.22-5-.11-5.06,4.41-9.61C84.32,45.43,91.82,45,95.21,40c-1,2.15-.83,2.86-1.92,4.88C95,42.78,98.12,43.06,99.82,31.73Z"/>
  <path class="hairOverlapLine" d="M80,45.71c-1.7.18-3.43-.11-4.94.21,1.66-1.14,3.54-2.09,4.78-3"/>
</svg>
