<svg viewBox="0 0 1195.41 2890.68">
  <g class="soleWhite">
    <path d="M1047.45,2715.81c48-4.63,104.38-27.94,117.88,45.67-14.72,30.05-115.81,60.75-219.58,79.73-41.67,7.62-94.46,36.8-137.4,31.9-11.65-5.52-18.3-22.66-21.66-37.07Z"/>
    <path d="M20.16,2705.85C11.47,2714.16,4.72,2723.36,1,2735c6.75,26.37,49.35,53.88,90.16,77.28,92.81,53.21,152.5,93.27,266,71.19,25.15-79.74-41.09-81-65.1-94.95Z"/>
  </g>
  <g class="bennettShoe">
    <path d="M241.89,2580.16c-20.35,39-29.17,79.81-10.93,120.23,18.09,40.1,36.3,72.36,61.11,88.15-21.8,12.21-35.2,37.8-35.57,61.09C215,2839.9,146.73,2803.8,80.28,2766c-28.1-16-47.6-37.1-60.12-60.12,32.79-48.4,81.2-89.78,114.77-158.48Z"/>
    <path d="M851.49,2590.89c14.4,41.65,37.81,75.78,80.41,92.91,39.68,15.95,78.83,34.75,115.55,32-6.8,21.47-4.62,43.09,3.9,64.8-45.74,17.09-110.5,24.85-168.64,45.28-37.35,13.12-70.89,15.73-96,10.15C769,2804,768,2718.93,752.33,2657.25Z"/>
  </g>
  <g class="shoelace">
    <path d="M231,2700.39a110.15,110.15,0,0,1-9.85-41.93,46.63,46.63,0,0,0-20.86,2.26c3.1,29,18.4,68.13,42.52,114.68a63.63,63.63,0,0,1,20-8.84C251.37,2747.29,241.31,2723.33,231,2700.39Z"/>
    <path d="M1005.69,2711.21c-24.07-6.22-48.82-17.38-73.79-27.41a127.56,127.56,0,0,1-26-14.06c-6.93,3.91-12.53,8.1-16.5,12.63,26.64,23.5,62,39,101.79,50.25C993.43,2725.59,998.72,2718.44,1005.69,2711.21Z"/>
  </g>
  <circle class="converseLogo" cx="846.96" cy="2759.08" r="37.33"/>
  <path class="bennettJeans" d="M736.38,1499.5c0,33.13,17.48,49.7,8.28,75.46,7.51,23.18-4.6,57.06-2.76,91.11,19.32,91.1,17.82,244,34.39,329.59,6.44,30.36,26.2,61.55.92,93.86,4.6,12.88,38.65,23,11,54.29,30.37,37.73,31.59,150.54,45.48,238.25,16.86,106.44,59.78,140.16,30.37,172.09,20.24,29.45-.92,41.41-1.48,63.44-10.25-19.51-34.68-10.94-29.75,12.61-28.59,34.38-50.67,44.5-69.17,89.66-7.2-23.08-16.11-42.61-34-47.92-43.25-12.88-8.28-41.41-23-51.53-36.1-20.63-18.26-110-38.51-154.13-60.71-132.46-55.6-242.85-72.16-255.73-11.05-9.21-15.65-28.53-7.37-37.73-24.84-30.37,5.52-41.41,8.29-61.66-15-6.48-21.67-7.28-26.22-26-18.4,37.73-11.86,51.46-40.68,92.37-92.66,131.52-162.89,269.91-205.69,311.78-45.58,44.6-37.73,116.87-92.91,113.62,7.48-31.85-20.28-23.43-28.49,7.8-33.2-19.27-77.37-11-100.57-9.29,20.44-50.47-29.5-95.11,25.07-114.12,23-3.68-10.13-32.21,16.56-39.57,28.18-7.77-23-9.64,151-277.43,13.49-20.78,12-47.85,40.49-59.82-22.09-20.24,19.32-37.73,16.56-67.18-20.25-23.92.43-40.44-1.84-66.25-5.76-65.63,15.49-208.74,20.09-329.29-13.8-20.25.87-38.48-8.28-55.22-10.67-19.53,5.41-33.42-.92-54.29-18.4-60.74,24.63-166.71,75.25-227.44C550,1341.14,649.74,1404.56,736.38,1499.5Z"/>
  <path class="shirtWhite" d="M708,584.57,926,712c10.56,60.42,18.51,120.56-10.69,182.87-13.15,67.32,5.84,79.36-16.8,98.65-22.77,58.79.8,93.53-31.48,113.35-3.72,20.8,14.76,38.44,1.15,60.3,15.33,49.07-70.54,328.12-122.3,347.19-120.29-27-208.86-185.48-318-195.64-8.12-23.82,1.32-40.52,19.64-53.63-22.71-18.41,11.05-33.32,12.08-65-25.94-22.08,8.29-35.95,15.11-84.6-17.12-38.65-6.82-2.62,15.11-142C517.86,794.89,620.87,642.88,708,584.57Z"/>
  <g class="bennettSleeves">
    <path d="M876.09,1271.33c-11.56-40,2.83-83.77-8-104.17-18.52,24.29-.43,71.75-38.89,104.17A228.52,228.52,0,0,0,876.09,1271.33Z"/>
    <path d="M740.8,561.66A110.31,110.31,0,0,0,708,584.57c30.46,25.46-98.67,161.77-9.17,282.12-8.79,62.59-6.1,122.68-6.1,174.69,0,51.54-17.94,69-7.24,102.92-6.81,19.22-7.46,38.61,5,58.36-10.85,22.21,4.93,49.46,4.17,79.2,33.94,12.41,112.85,6.13,156.23-15.33-10.2-17.1-1-38.61-13.85-46,15.36-19.76,1.86-35.66,1-53.44,16.44-13.31,0-30.84,7.42-42,11.39-17.29-5.65-27.15,1.48-36.61,17.08-29.1-6.24-39-2.36-48,5.09-57.3,21.69-109.7,22.13-147,32.28-35,31.39-68.15,34.08-89.67,2.77-22.17,18.83-17.94,9-67.26-5-20.67,2.79-22.7,16.24-24.49-1.79-15.25,6.14-33.71-4.18-44.28Z"/>
  </g>
  <g class="clothesDisplayLine">
    <path d="M256.5,2849.63c34.79,11.59,76.53,5.48,106.1-2.75"/>
    <path d="M1051.35,2780.61c39.58-10.69,72.5-29.08,101.85-51.58"/>
  </g>
  <g class="clothesOverlapLine">
    <path d="M570.77,2085.19c43.06-125.62,81.3-300.11,117-418.68,32.85-27.14,15.7-38.49,27.14-50.71,13.28-14.19,4.1-36.56,14.28-42.86,13.44-8.31,14.82-24,12.07-42.32"/>
    <path d="M200.25,2660.72c-.09-21.42,6.71-41.16,2.75-50"/>
    <path d="M832.87,2630.2c17.68,5.07,29.78,29.58,56.55,52.17"/>
    <path d="M903.27,2693.34A68.44,68.44,0,0,1,919.34,2678"/>
    <path d="M919.34,2703.64a127.26,127.26,0,0,1,17.13-18"/>
    <path d="M935.09,2711.94c3.95-7.29,10.24-13.66,18.1-19.43"/>
    <path d="M953.19,2719.86a72.09,72.09,0,0,1,16.2-20.67"/>
    <path d="M971.26,2726.46c3.08-7.78,8.51-14.69,16-20.82"/>
    <path d="M204.11,2681.59a56.93,56.93,0,0,1,19.6-2.81"/>
    <path d="M210.88,2703.88a101.59,101.59,0,0,1,20.08-3.49"/>
    <path d="M218.46,2723.7a51.48,51.48,0,0,1,20.71-4.93"/>
    <path d="M226.16,2741.41a86,86,0,0,1,20.35-6.46"/>
    <path d="M234.66,2759.34a66.83,66.83,0,0,1,20-7.52"/>
  </g>
  <g class="clothesFoldLine">
    <path d="M447.46,1265.08c121.17,17.61,190.92,102,91.89,46.76"/>
    <path d="M459.54,1200.12c25.55,20.57,65.28,40.38,58.28,58.46"/>
    <path d="M474.65,1115.52c11.3,12.16,28.53,17.33,34.55,32"/>
    <path d="M511.79,1206.05c24.78,27.35,53.92,52.53,87,75.78"/>
    <path d="M758.63,1475.44c-165.89-72.18-183.11-187.26-45.33-43.76"/>
    <path d="M735.41,1402.2c-31.33-16.54-59.4-37.82-83.25-65.25"/>
    <path d="M716.23,1343.13c-43.69-22.41-86.91-56.37-129.76-99.19"/>
    <path d="M707.48,1310.86c-15.43-6.53-31-16.38-46.75-29"/>
    <path d="M535,1150.93c53.39,54.26,131.76,99,170.55,151.56"/>
    <path d="M528.15,1108.74c47.48,27.62,98.61,48.65,152.58,64.57"/>
    <path d="M688.24,1208.43c-74.12-45.07-78.62-14.7,3,43.43"/>
    <path d="M572.13,1025.41c21,30.31,47.66,54.21,79.1,72.73"/>
    <path d="M554.89,954.94c18.12,47.79,44.84,83.83,79.47,109.08"/>
    <path d="M639.61,940.69c10.12,16.12,39.36,43.49,52.73,51"/>
    <path d="M632.86,835.35c16.83,35.78,36.81,65.08,60.77,86.23"/>
    <path d="M692.75,943.31c-29.15-11.62-52.87-61.61-62.14-56.6-8.22,4.45,9,30,32.63,50"/>
    <path d="M765.94,670c-29.24,1.49-70.85,43.48-78,78"/>
    <path d="M734.45,736c-48.11,38.7-29.19,80.8-35.66,130.68"/>
    <path d="M737.32,704c-32.83,30.51-65.5,77.36-37.09,116.64"/>
    <path d="M711.06,1250.52c25.88,7,57.87,6.87,93.07,3.09"/>
    <path d="M690.45,1202.66c35.67,27.78,97.82,14.3,98.62,25.07.88,11.84-30.12,12.75-55.23,9.27"/>
    <path d="M685.45,1144.3c4.36,38.25,43,26.66,29.08,48.68"/>
    <path d="M837,1220.52c-10.08,7.6-32.7,8.71-8.92,18.8"/>
    <path d="M771.31,1037.72c16.41,40.86,33.61,75.6,52.52,96.94"/>
    <path d="M807.22,1061.66c9.72,20.37,20.94,36.47,34.76,45.19"/>
    <path d="M775.17,932.28c-5,25.11,37.85,111.62,52.91,126.29"/>
    <path d="M851.64,829.94c11,16.55,17.18,36.75,15,63.47"/>
    <path d="M848.16,770.46c10.82,34.37,34.56,56.43,26.26,99.26"/>
    <path d="M849.42,711.05c28.54,15.69,36.52,40.72,29.06,89.4C893.75,765.23,901.57,726,865.81,685"/>
    <path d="M917.21,843.66c-16.38,38.39-34,65.64-53.11,77.92"/>
    <path d="M915.26,894.86c-13.54,31.8-42.74,54.59-61.5,83.1"/>
    <path d="M903.81,959.88C902.64,973,894.88,979.11,882.2,980"/>
    <path d="M898.46,993.51c-7.16,7.11-13.19,7.49-17,6.36"/>
    <path d="M870,1063.84c-3.24,3.32-10.31,6.44-16.19,6.44"/>
    <path d="M867,1106.86a37.18,37.18,0,0,1-17.57,4.7"/>
    <path d="M860.5,1135.56c-2.7,5.55-7.46,8.69-15.56,8.74"/>
    <path d="M868.13,1167.16c-8.12,7.54-17.79,0-30.14-.08-28.06,13.54-120,33.23-26.52,34.78"/>
    <path d="M663.15,1689.36a623.82,623.82,0,0,0-83.87,34.15"/>
    <path d="M670.57,1639.63c-19.67-.77-43.79-12.62-66.06-13.36"/>
    <path d="M687.79,1666.51c-9.67,6.24-29.84-3.13-41.71,2.81"/>
    <path d="M452.06,2007.89c22,85.53-1.71,75-60.12-8.16"/>
    <path d="M352.08,2043.35c21.3,24.67,106,47.92,100,64.75-4,11.05-34.89,4.45-72.74-11.88"/>
    <path d="M335.52,2110.53c24.5,9.45,73.25,14.71,19.31,32.46"/>
    <path d="M436.47,2171.19c48.68-28.86-42.31-21.52-103.17,5.2"/>
    <path d="M765,2062.77c-19.28,25.74-49,38.52-97.23,28.2"/>
    <path d="M777.21,2089.52c-17.44,10.88-21.5,23.37-3.27,38.56"/>
    <path d="M597,2111.16c66.74,24.08,156.17-.89,86.39,43.65"/>
    <path d="M588.7,2172.82c30.49,9.93,85.78-12.82,65,22.07"/>
    <path d="M784.33,2182.27c-37.28-11-71.53-2.85-103.92,17.07"/>
    <path d="M202.82,2473.7c11.88,38.6,25,70.12,68.77,64.52"/>
    <path d="M177.59,2497.45c20.78,38.6-22.79-6.75-50.09-10.1"/>
    <path d="M214.44,2578.3c-30.62-24.63-68.17-55.11-82.87-47.44-14,7.29,30.91,20,56.15,38.54"/>
    <path d="M152.09,2576.08c-21.53-5.94-36.53-23.74-40.74-15.06"/>
    <path d="M839.62,2527.24c-28,32-61.48,51.84-112.08,34.14"/>
    <path d="M864.1,2554.15c-19.29,19.11-70.84,32.86-6.67,29.5"/>
    <path d="M824,2622.25c-18.56,28.95-83.13,21.52-66.06,41.56"/>
    <path d="M713.43,2599.24c37.86,8.16,83.88-4.46,87.59,5.19,3.21,8.35-43.79,10.4-67.54,36.37"/>
  </g>
  <g class="eye">
    <circle class="sclera" cx="1082.25" cy="394.4" r="41.69"/>
    <path class="irisDarkBrown" d="M1101.17,420c2.48.35,9.83-8.78,11.56-21.09s-2.79-23.12-5.26-23.46A127.53,127.53,0,0,0,1101.17,420Z"/>
    <path class="pupil" d="M1108.54,407.13c2,.28,3.52-3.46,4.19-8.25s.24-8.8-1.74-9.08A68.14,68.14,0,0,0,1108.54,407.13Z"/>
  </g>
  <g class="skinEastAsian">
    <path d="M763.7,415.57C781.55,456,780.36,523.3,740.8,561.66c35.73,47.26,134.86,106.05,181,106.05-28.34-42.39,44.67-113.66,85.91-143.84"/>
    <path d="M835.89,1271.89a227.39,227.39,0,0,0,34.23,0c9.7,103.91-1.11,177.4,19.38,270.72,11.44,50.16,22.75,123.75,14.84,164.31-9.35,47.89-20,94-24.85,123.13-22.58,9-30.35-25.23-26.77-53.41Z"/>
    <path d="M776.29,1546.63c-23.33-113.32-61.95-187.31-74.2-262.51,35.89,9,104.18,2.8,145.14-15.88,4.19,100.83-1.48,179,14.14,276.72,14.77,95,21.85,115.07,18.44,131-7.33,34.17-11,81.75-37.53,137.15-13.75,21-13.75,50.74-24.33,55.81-12.26,2.19-19.81-3.43-22.89-16.46-24.26-2.17-22.51-31-9.3-51.51-15.4-9.7-6.34-32.45,6.15-46.94,9.27-19.47,5.57-38.86,8.87-64a84.19,84.19,0,0,1-10.73-19.32c-10,27.19-18.9,73.4-42.21,64.39-31.48-12.16,7.15-59.9,7.87-79.41C758.57,1577.73,781.09,1574.26,776.29,1546.63Z"/>
    <path d="M861.28,471.74c-25.6,14.85-29.76,2.3-46.1-16.38C581.38,322.94,975.26-16.32,1142.51,196.87c-7.39,69.59,23.11,126.77-6.56,181-15.51,28.35,14.64,67.2,27.1,110.29,6.55,22.63-7.7,34.23-42,25.93-6.22,7.44,3.11,25.89,11.21,36.22-2.78,7.2-12.52,12.89-15.71,11.78-10.38-3.6-33.88,12.91-36.18,15,16,1.7,40.95,21,21.45,35.93-29.4-11.85-18.64,53.25-71.25,51.17-15.78-.63-46.7-22.31-81.62-44.59-25.17-16.07-45.48-39.09-60.19-63.14m221.3-177.9c-17.36,1.11-29.55,12.65-37.45,17.42,8.33,7.48,26.25,17.8,33.32,20.34C1113.05,407.82,1116.27,387.21,1110.09,378.55Z"/>
  </g>
  <g class="skinOverlapLine">
    <path d="M781.86,1568.78c-13.34,25.27-10.86,62.06,8.19,102"/>
    <path d="M841.89,1697.94c-3.44,55.61-28.64,82.48-37.7,101.88-6,3.45-12.07,3.45-18.43,1.12"/>
    <path d="M860.47,1700.17c-6.16,38.91-21.79,84.13-40.11,110.5-17,24.53-16.17,42.61-25.3,41.78"/>
  </g>
  <g class="skinFoldLine">
    <path d="M849.58,385c-5.87-84.4-93.84-21.07-45.22,33.93"/>
    <path d="M845.77,396.9c-14.28,10.75,13.16,31,1.55,36.75-8,4-5.74-11.67-24.42-21.9-24.31-13.31-.88-45.09,9.74-29.83"/>
  </g>
  <g class="lipMaleMedium__noStroke">
    <path d="M1080.4,577.08c2.3-2.06,25.8-18.57,36.18-15,3.19,1.11,12.93-4.58,15.71-11.78C1120.55,557,1103.38,554.81,1080.4,577.08Z"/>
    <path d="M1101.85,613c19.5-14.92-5.46-34.23-21.45-35.93C1088.59,587.68,1088.37,601.18,1101.85,613Z"/>
  </g>
  <path class="lipEdgeLine" d="M1090.57,598c3.18,5.11,6.53,10.33,11.28,15"/>
  <path class="cheekLine" d="M1069.9,591.55c8.16-7.42,9.84-16.33,21.08-29.55"/>
  <path class="noseLine" d="M1136.5,510.18c-14.09-2-21.08,4.75-30.29,2.91-12.87-2.58-10.19-13.54-3.43-23.93"/>
  <g class="eyeLidLine">
    <path d="M1110.09,378.55c18.87,3,10.11-21.57,10.11-21.57"/>
    <path d="M1106,416.31c8.71,4.73,3.4,13.36-2.2,18.32"/>
  </g>
  <path class="eyeCornerLine" d="M1072.64,396c-3.73,1.8-5.84,2.9-9,3.71"/>
  <path class="eyeCreaseLine" d="M1086.38,379.23c12.13-8.51,25.72-13.1,35.83-10.15"/>
  <path class="eyebrowBlack" d="M1136,322.79c-15.21,36.63-41.87,10.8-67.48,32.1C1087.28,318.71,1111.11,340.84,1136,322.79Z"/>
  <path class="hairBlack" d="M1120.31,208.87c-10.08,61,16.8,99.92,67.33,113.18-34.23-39.23,12.75-89.6-32.34-134.21,9.29,3.22,24.54,14.15,37,21.13-23.49-35.41-28-95.62-154.08-141.56-51.56-18.78-146.4-37.48-216.52-20.52,3.77-21.68,28.34-34,50.87-45.45-33.37,2.89-61.3,20.87-73.91,50C781,30.34,752.42,30.74,732.79,49c22.52-8.65,38.11-5.51,48.31,11.74C659.66,138.89,609.75,366.22,762.45,474c22.09-2.12,32-6.44,52.73-18.64-25.63-29.46-51.53-58.94-31.44-104.29,15.39-34.77,77.89-33,78.88,12.06,18.53,5.13,39.78,6.69,62.5,8.33,6.22-39.42-4.09-25,35.08-57,32.71-.93,99.8,14.66,126.25-65.56-2.88,12.72,3.18,24.21,5,35.3C1100.56,255.23,1114.88,247.29,1120.31,208.87Z"/>
  <path class="hairOverlapLine" d="M960.2,314.43c-11-1-29.9.33-39.76,2.1,14.76-7.81,23-12.26,31.18-17.61"/>
</svg>
