<svg id="presence" xmlns="http://www.w3.org/2000/svg" viewBox="0 0 1096.98 2460.81">
  <defs>
    <style>
      .cls-1 {
        fill: none;
        stroke: #000;
        stroke-miterlimit: 10;
        stroke-width: 2px;
      }
    </style>
  </defs>
  <title>merrilyDeranged</title>
  <g id="bennettSoleSide">
    <path class="cls-1" d="M475.14,2372.42c3.54,12.1,4.7,33.49.23,38.84-5.27,5.94-16.58,6.36-25,23.16-19.43,38.86-171.58,26.52-177.72,6.55-8.63-27.32-.59-60.34,16.15-70.95C351.48,2319.57,418.77,2327.77,475.14,2372.42Z"/>
    <path class="cls-1" d="M1010,2334.29c13.51,3.9,86.24,10.76,74.7,77.1-20.86,20.19-120.39,41-202.59,15.39-31.08-9.67-127.67,2-154.9-28-7.51-14.25-5.25-24.65-3.58-41.45C817.44,2325.26,934,2309.3,1010,2334.29Z"/>
  </g>
  <g id="bennettShoe">
    <path class="cls-1" d="M448.09,2193.2c-3,74.41,23,107.72,27.05,179.22-3.91,7.82-10.27,11.87-23.07,19-9.83,5.47-6,14.55-16.55,17.82-7.91-69.71-127.14-52-146.7-39.22,34.31-56.37,31.31-102.08,45.95-188C373,2158.7,404.46,2162.79,448.09,2193.2Z"/>
    <path class="cls-1" d="M874.53,2150.4c-8.25,64,21.37,94.72,42.47,121.27,25.29,31.83,61.62,49.42,93,62.62-34.52.61-76.4,28.76-76.4,62.47-33.24-1.72-79.45-10.75-113-11.9-31.42-1.09-86.6-9.46-97-27.52-8.37-38,40.25-118.36,29.62-185.89C781.76,2145.89,836.39,2131.14,874.53,2150.4Z"/>
  </g>
  <g id="bennettShoelace">
    <path class="cls-1" d="M411.14,2252.79c-26.66-7.36-51.79-7-77.94-1.1-2.51,32.65-4.64,62.12-15.14,85.83,23.13-7.39,63.77-7,88.8,1.1C411.81,2310,415.54,2279.25,411.14,2252.79Z"/>
    <path class="cls-1" d="M917,2271.67c-9.24-11.62-20.1-24-28.71-39.7-21.07,1.65-30.69,4.11-42,8.42,18.2,49.56,26.1,64.86,67.32,93.21,13.78-5.84,47-13.31,60.4-16.23C953.29,2306.15,933,2291.74,917,2271.67Z"/>
  </g>
  <g id="converseLogo">
    <path class="cls-1" d="M454.68,2350.85c-15.23,3.16-21.67-69.46-7.75-74.25C457.3,2273,469.41,2347.8,454.68,2350.85Z"/>
    <path class="cls-1" d="M794.53,2350.06c35.45,4.33,41.73-69,3.64-74.66C762.51,2270.09,756.58,2345.43,794.53,2350.06Z"/>
  </g>
  <g id="clothesOverlapLine">
    <path class="cls-1" d="M413.18,2236.12c-2.83,7-3,11.16-2,16.67"/>
    <path class="cls-1" d="M409.35,2323.18c-31.36-6.23-58.12-7.08-85.39-2.47"/>
    <path class="cls-1" d="M411.32,2308c-31-5.71-56.64-7.55-83.85-3"/>
    <path class="cls-1" d="M412.55,2294.15c-29-6.21-55-6.4-82.95-3.27"/>
    <path class="cls-1" d="M413.09,2279.29c-29.3-6.13-58.47-6.74-82-1.7"/>
    <path class="cls-1" d="M412.55,2264.46c-29.76-4.58-54.55-4.38-80.42,1"/>
    <path class="cls-1" d="M853.13,2258.55c15.51-4.79,34.06-10.81,45.73-10"/>
    <path class="cls-1" d="M860.16,2275.13c15-5.57,36.7-11.62,50.38-11.48"/>
    <path class="cls-1" d="M868.68,2291c16.19-6.89,39.34-12.88,53.93-12.61"/>
    <path class="cls-1" d="M879.38,2305.15c16.91-8.11,39.49-13.25,55.64-14.53"/>
    <path class="cls-1" d="M894.66,2319.55c18.72-9.09,39.77-15.89,57.42-15.57"/>
    <path class="cls-1" d="M836.92,2209.33c5.14,6.32,4.79,21.15,9.36,31.06"/>
    <path class="cls-1" d="M333.2,2251.69c-1.17-7.62-.22-10.46,1.5-14.42"/>
  </g>
  <g id="clothesDisplayLine">
    <path class="cls-1" d="M435.52,2409.24c-40.77,12-141.37,12.55-165-6.38"/>
    <path class="cls-1" d="M933.55,2396.76c46.66,8.2,119.74-9.41,144.91-28.67"/>
  </g>
  <path id="bennettJeans" class="cls-1" d="M819.48,927.9c9.78,37.46,26.11,70.46,18,103.31,50.45,187,33.57,502.59,44.12,557.46,12.75,66.27-8.44,53.76-6.33,88.58,19,28.84-13.71,59.09-1.05,200.49,13.71,83.36-2,121.22,2.11,165.66,2.93,31.59,25.77,60.9-3.17,77,34,23.39,5.28,51.7,3.44,81.81.78-35.38-48.81-24.83-39.73,7.09-19.06,15.87-56.56,7.12-86.56,22.64-2.65-17.81-8.92-30.85-17.49-40.84-57.31-16.73-48.54-69.65-17.94-89.69-34.82-25.33-22-53.84-25.32-76-19.16-127.81-9.34-244.18-24.27-313.39-11.61-34.82,23.18-51.93,1.06-86.52-16.16-25.27,3.05-45-3.17-65.42-39.16-128.8-32.71-300.73-79.14-321.83-30.2,8.45-37.63,79.58-45.37,149.83,16.88,54.87-32.42,76-27.44,232.14,3.17,99.19-20,66.48-22.15,108.69,18.86,49.44-6.48,75.6-4.23,120.29,2.77,54.87-15,118-4.21,176,7.22,38.67-2,77.45,9.49,106.81,25.45,64.82-35.59,39.15-37,126.51-15.19-19.77-31.39-4.78-40-22.43,3.3-28.44-74-37.2-78.48,1.15-10,5.82-19.92-2.09-18.68-12.05,6.38-51-29.55-71.18-7.39-103.87,19-28-33.25,16.4-17.64-143.14,7.51-76.76-3.82-142,3.53-214.08,6-58.71-15.57-75.48-9.58-148.56,13.34-162.82-19.17-442.07,27.55-700.84Z"/>
  <g id="clothesDisplayLine-2" data-name="clothesDisplayLine">
    <path class="cls-1" d="M441.34,1014c-27.84,14.24-61.31,24.36-104.7,27.18"/>
    <path class="cls-1" d="M724.23,1006c13.29,21.25,44.84,24.27,83.56,20.14"/>
    <path class="cls-1" d="M568.19,1036.17c-1,18.12,15.89,39.9,7,66.45-10.06,30.2,12.28,77.62-3,118.79"/>
    <path class="cls-1" d="M619.56,1035.17c18.09,45.3-1.44,66.9,5.13,99.86,6.75,33.83-22.32,48.13-46.88,55.18"/>
  </g>
  <g id="clothesFoldLine">
    <path class="cls-1" d="M522.88,1170.07c-45.81-3.32-96,.93-149,10.07"/>
    <path class="cls-1" d="M652.75,1162c35.72-4.88,77.94-5.23,123.83-3"/>
    <path class="cls-1" d="M627.47,1196.25c39.65,7.09,84.55,24.65,132,47.31"/>
    <path class="cls-1" d="M527.92,1211.35c-20.26,10.84-38.36,21.86-52.35,33.22"/>
    <path class="cls-1" d="M447.38,1260.68c21.14,76.51,57,180.9,80.54,150"/>
    <path class="cls-1" d="M840,1386.52c-17.08,76.42-39.91,149.08-127.86,179.2"/>
    <path class="cls-1" d="M472.55,1614c-51.71,35.71-104.92,43.61-161.08-3"/>
    <path class="cls-1" d="M302.71,1649.88c59.45,6.26,96.37,18.15,21.27,59.45"/>
    <path class="cls-1" d="M451,1654.26c-20.06,6.22-48.62,13-43.8,21.28,6.88,11.89,53.19,24.4,60.07-2.51"/>
    <path class="cls-1" d="M457.91,1727.48c-41.62-35.48-88.06-31-138.31,5"/>
    <path class="cls-1" d="M489.13,1729c-10.5-18.23-10.64-36.67-1.18-55.3"/>
    <path class="cls-1" d="M841.53,1614.21c-44.34,24.08-90.6,25.85-139.56-3.76"/>
    <path class="cls-1" d="M875.32,1677.25c-26.28-26.75-87.61-13-19.4-41.14"/>
    <path class="cls-1" d="M689.46,1637.36c70.09,8.76,94.5,15.65-3.76,46.31"/>
    <path class="cls-1" d="M691.34,1712.46c21.3-4,45.24,7.81,70.71,28.79"/>
    <path class="cls-1" d="M845.91,1743.13c-28.47-8.19-56.6-.14-84.48,19.4"/>
    <path class="cls-1" d="M850.29,1694.31c-46.31-38.8-114-12.8-110.14,3.13,3.75,15.65,49.44,34.42,106.39,11.27"/>
    <path class="cls-1" d="M317.33,2081.49c26.07,24.23,50.51,21.84,73.65-1.77"/>
    <path class="cls-1" d="M461.1,2100.94c-23,41.24-71.89,76.6-124.92,51.26-16.92-8.09,11.2-32.41,40.66-38.3"/>
    <path class="cls-1" d="M448.09,2193.2c56-53.38,12.42-48.66-58.29-13.31"/>
    <path class="cls-1" d="M714.93,2101.44c20.75,9.51,65.37,8.64,9.56,21.89"/>
    <path class="cls-1" d="M733.33,2080.9c45,19.3,89,22.85,132,10"/>
    <path class="cls-1" d="M873.21,2120.43c-5.91-.43-11.66-4.08-17.32-9.48"/>
    <path class="cls-1" d="M732.87,2191.13c12.74,5,23.73,6.22,33.45,4.67"/>
    <path class="cls-1" d="M854.71,2148.07c20.62-13-62.46-43.6-107.24-8.83-19.28,15,40.66,40.06,72.48,33"/>
  </g>
  <path id="bennettSleeves" class="cls-1" d="M287.1,437.8,800.53,535c11,17.9,23.13,32.63,38,39.6,5.66,31.52,25,29,35.56,42,17.53,21.76,31.29,38.19,60.62,44.45,36.12,7.72,49.2-12,77.59-38,9.7-8.89,27.49-16.49,32.33-51.73,5.65-41.22-86.48-142.24-134.17-138.2,2.43-38.8-13.54-36-25.86-71.93s.75-49.23-23.44-71.94c-16.38-15.38-13.85-47.64-31.52-56.57,2.93-37.68-24.9-47.31-44.45-65.47-22.63-21-104.26-22.63-143.06-46.06H439.26C381.07,143,238,209.31,221.85,250.53c-6,15.24-28.83,13.35-21,35.56-4,31.52-40.34,29.48-38.8,51.73-26.67,38-52.33,52.68-74.35,77.59-16.91,19.12-20.53,48.33-40.41,58.19C23.38,485.44,32.84,494.18,22.22,510,4.3,536.63-12.53,555.23,17.37,627.16,35.13,669.87,185,644.12,186.29,594c.21-8.41-3.09-17-15.36-25.86,18.59-12.12-11.31-18.59,25.87-44.45,35.56,4.85,16.16-28.29,44.45-62.24C256.29,458.13,271.6,449.88,287.1,437.8Z"/>
  <path id="bennettShirt" class="cls-1" d="M682.24,194.72c40.37,30.69,89.44,56.76,113.38,114.64,12,83.55,15.93,172.91,12.86,263.68-.61,18.16,26.07,28.84-2.28,48.74,12.25,5.4,6.11,56,6.11,89,0,18.4,21.47,25.3-1.54,55-5.36,103,40.65,88.38,9.9,129.49,6.35,16.18,9.26,31.74,7.62,46.46-64.28,14.41-95.2,99.69-254.43,91.85-97.61-4.81-194-33.74-271.15-93.37,43.43-138.95,1.85-137.15,21.13-197.32-5.64-24.3-8.3-47-4.52-66-18.42-35.87,4.59-75.74-9.22-130.18-16.86-28.36-4.6-57.5-11.68-65.38-5.95-9-12.08-22.79-11.32-43.49,23.86-17,63.5-86.45,98.14-132.65,9.21-12.26,22.18-4.12,31.38-27.89,11-17.55,22-35.68,37.63-51.85C513.29,262.22,643.63,250,682.24,194.72Z"/>
  <g id="skinEastAsian">
    <path class="cls-1" d="M1096,255.81c-23.09,115.38-15.36,225.33-60.89,322.41-46.64,59.67-135.73-30.07-122-95.36,32.74-66.95,79.89-98.79,105.66-263.72"/>
    <path class="cls-1" d="M633.08,60.21l27.49,76.46c24,98.79-264.59,99.65-231.08-5.16L439.79.08"/>
    <path class="cls-1" d="M260.25,780.09C219.88,733.71,210.43,662,179.5,592.38c-23.19-15.46-152.91,17.19-153.77,36.94,31.79,75.6,109.1,125,156.35,198"/>
  </g>
  <g id="clothesFoldLine-2" data-name="clothesFoldLine">
    <path class="cls-1" d="M170.93,568.16c-38.82-12.49-173.41-21-134,7.52"/>
    <path class="cls-1" d="M153.93,555.67c-28.55-25.37-120.64-35.16-76.39-15.15"/>
    <path class="cls-1" d="M177.5,555.67C163.63,529,72.09,496.86,48.44,503.53"/>
    <path class="cls-1" d="M90.28,431.39c13.19-11.87,66.69,33.95,94,73.36"/>
    <path class="cls-1" d="M162,337.82c12.51,54.76,45.68,129.73,38,153"/>
    <path class="cls-1" d="M186.07,345.3c54.56,60,135.8,72.75,14.77-59.21"/>
    <path class="cls-1" d="M206.07,416.23c-6.06-32.13,14.77-16,26.68-12.73,10.91,3,43-5.46,11.52,20.61"/>
    <path class="cls-1" d="M306.11,385.92c-18.44-9.06-29.1,48.5-64.86,75.55"/>
    <path class="cls-1" d="M283.07,291.34c50.93,13.35,5.46-18.19-14.55-47.29"/>
    <path class="cls-1" d="M247.3,315.59c-32.13-49.72.51-14.72,37-1.82,32.14,11.37,56.2,9.06,32.14,34"/>
    <path class="cls-1" d="M351.58,256.17c41.28,17.44,87,28,136.41,32.74"/>
    <path class="cls-1" d="M558.32,309.53c-46.47.89-93.27-2.64-140.66-13.95"/>
    <path class="cls-1" d="M299.44,444.12c13.31,28.39,39.29,50.13,74,67.29"/>
    <path class="cls-1" d="M298.42,481.29c33.18,36.13,75.59,60.44,120.46,74.38"/>
    <path class="cls-1" d="M321.87,530.82c29.84,50.67,68,90.55,116.41,117"/>
    <path class="cls-1" d="M310.1,546.67c40.46,71.87,110.59,132.68,184.56,161.18"/>
    <path class="cls-1" d="M319.32,676.85C334,711.48,354.61,749.07,377,766.66"/>
    <path class="cls-1" d="M349.15,687.84C382,761.91,437.06,820.61,505,854.57"/>
    <path class="cls-1" d="M363.1,795.76c20,46.07,94.58,119.43,148.54,135.8"/>
    <path class="cls-1" d="M323.84,742.86c24.32,110.6,133.84,214.77,274.49,245.69,29.8,6.55,3.25,19.69-26.67,21.83"/>
    <path class="cls-1" d="M394,957.63c24.21,14.93,56.61,23.83,94,29.1"/>
    <path class="cls-1" d="M715.34,977c-38.64,6-76.05,4.17-112.16-6.06"/>
    <path class="cls-1" d="M773.55,897.61c-40.39,17.55-81.6,22.67-123.68,14.55"/>
    <path class="cls-1" d="M820.67,895.24c-36.93,30.54-89.22,44.26-163.53,33.9"/>
    <path class="cls-1" d="M790.52,750.89c-37.59,30.32-133.38,26.68-163.69,6.67"/>
    <path class="cls-1" d="M810.77,765.75c-20.85,20.31-96,31.22-114.22,25.76"/>
    <path class="cls-1" d="M806.2,621.78c-19.06,11.33-44.45,20.71-75.09,28.47"/>
    <path class="cls-1" d="M769.91,621.76c-28.08,11.65-64.67,18.15-107.92,20.61"/>
    <path class="cls-1" d="M741.88,309.27c-49.25,59.85-109,100.26-181,118"/>
    <path class="cls-1" d="M596.37,398.88c-54.28,17.52-104.08,23-147.28,10.65"/>
    <path class="cls-1" d="M810.19,214.34c-25-28.35,7.1,50.57-14.57,95"/>
    <path class="cls-1" d="M829.63,232.75c4,40.63-5,79.06-29.09,115"/>
    <path class="cls-1" d="M858.1,310.16c-1.8,33.92-11.31,61.64-47,68.32"/>
    <path class="cls-1" d="M825.28,395.34c28.22,10.36-5.33,52.34-15.91,99.36"/>
    <path class="cls-1" d="M834.15,503.58c4.94,14-.89,45.25,4.37,71"/>
    <path class="cls-1" d="M924.61,461.47c-30.57,1.47-77.15,34.12-66.51,85.2"/>
    <path class="cls-1" d="M886.49,610.93c-22.18-64.77-5.5-115.49,21.3-132.2-41.7,83.4,63,173.9,1.77,135.75"/>
    <path class="cls-1" d="M910.45,433.19c-24.28,4.76-57.2,44.15-61.22,39.33-4.44-5.32-.89-16.85,10.65-29.27"/>
  </g>
</svg>
