<svg id="presence" xmlns="http://www.w3.org/2000/svg" viewBox="0 0 924.96 2907.53">
  <defs>
    <style>
      .cls-1 {
        fill: none;
      }

      .cls-1, .cls-2, .cls-3, .cls-4, .cls-5, .cls-6, .cls-7, .cls-8 {
        stroke: #000;
        stroke-miterlimit: 10;
        stroke-width: 2px;
      }

      .cls-2 {
        fill: #829599;
      }

      .cls-3 {
        fill: #8eb4bd;
      }

      .cls-4 {
        fill: #bdc7c9;
      }

      .cls-5 {
        fill: #859db5;
      }

      .cls-6 {
        fill: #6994bf;
      }

      .cls-7 {
        fill: #78a7d9;
      }

      .cls-8 {
        fill: #719fcc;
      }
    </style>
  </defs>
  <title>mopSopped</title>
  <g id="bennettSoleSide">
    <path class="cls-1" d="M550.48,2812.68c48.91,5.68,92.34,16.08,81.94,79.08-64.84,26.92-133.3,9.19-204.3,7.34-67.88-1.77-165.77,7.34-188.4-20.18-3.93-14.53-1.8-29.62,3.85-45.05Z"/>
    <path class="cls-1" d="M238,2676.8c20.44,42,23.91,79.2-19.05,103-64.84-34.25-104.53-135-140.69-178.61C39.7,2554.72-1.9,2494.77,1.16,2483.76a139.21,139.21,0,0,1,31.36-26.84Z"/>
  </g>
  <g id="bennettShoe">
    <path class="cls-1" d="M411.31,2622.82c-2.65,49.13,1.68,96.49,35,124.42,35.27,29.55,74,59.61,104.14,65.44-9.59,17-13.5,35.29-10.14,55.3-99.53-12.91-244.23,3.68-296.77-34.11,4.61-48.84,45.16-110.59,50.69-185.25C331.77,2612.61,378.13,2618.21,411.31,2622.82Z"/>
    <path class="cls-1" d="M286,2444c-25.43,33.25-46.47,68.44-52.53,107.83-5.63,36.54-11.14,78.87,4.53,125-19.41.58-36.65,6-51.62,16.59-44.24-57.14-69.14-109.55-106.83-149.83-23.83-25.48-47.92-72.81-47-86.64,21-23.74,108.75-45.16,160.36-85.71Z"/>
  </g>
  <g id="bennettShoelace">
    <path class="cls-1" d="M223.92,2495.59c-14.35,34.73-17,81.76-17.39,131.84a70.14,70.14,0,0,1,22.1,5.09c-2.67-29.08,1-56.18,4.81-80.67a177.1,177.1,0,0,1,14.86-47.73C240.41,2498.57,232.32,2495.26,223.92,2495.59Z"/>
    <path class="cls-1" d="M486.89,2806.37c3.75-5.83,9.66-10.75,17.33-15-19.05-12.32-39-28.32-57.88-44.17a87.83,87.83,0,0,1-24.78-34.46c-7.18,2.51-13.05,5.41-17.26,8.83C418.27,2753.07,449.74,2782.77,486.89,2806.37Z"/>
  </g>
  <circle id="converseLogo" class="cls-1" cx="135.72" cy="2494.52" r="37.33"/>
  <g id="clothesOverlapLine">
    <path class="cls-1" d="M223.92,2495.59c13.09-22.16,29.68-35.36,34.25-48.13"/>
    <path class="cls-1" d="M404.3,2721.61c-10-25.44-10.89-56.61-20.52-60.16"/>
    <path class="cls-1" d="M206.88,2605.54a40.9,40.9,0,0,1,20.85,4.6"/>
    <path class="cls-1" d="M207.65,2585.26a33,33,0,0,1,20.89,6.22"/>
    <path class="cls-1" d="M209,2565.65a39.28,39.28,0,0,1,21.65,5.56"/>
    <path class="cls-1" d="M211.64,2543.07a48.31,48.31,0,0,1,22.4,5.17"/>
    <path class="cls-1" d="M216.14,2519.81a43.45,43.45,0,0,1,23.51,6.18"/>
    <path class="cls-1" d="M416,2742.14a52.15,52.15,0,0,1,16.29-10"/>
    <path class="cls-1" d="M429,2758.61q8.15-5.94,17.3-11.37"/>
    <path class="cls-1" d="M442.12,2772a76.5,76.5,0,0,1,19.15-12.44"/>
    <path class="cls-1" d="M456.08,2784.23a77.41,77.41,0,0,1,19.13-13.59"/>
    <path class="cls-1" d="M471.85,2796.25c3.71-6.05,9.78-10.86,17.66-14.72"/>
  </g>
  <g id="clothesDisplayLine">
    <path class="cls-1" d="M186.35,2693.39C199,2720,222,2746.86,243.57,2758.61"/>
    <path class="cls-1" d="M540.34,2868a194.16,194.16,0,0,0,91.1-12.61"/>
  </g>
  <path id="bennettJeans" class="cls-1" d="M568.84,1428.57c26,42.42.16,60.52-6.09,90.33.83,30.61-5.4,50.11-15.22,63.93,59,181.58,150.73,437.51,135,489.16-24.57,80.52-113.5,133.19-214.13,243.56-9.57,89.85-19.25,191.76-28.42,241.54-2.24,15.89,17.21,45.4-15.22,75.09,4.94,17.25-1.1,27.31-13.62,29.27-2.74-29.5-22.35-28.11-27.33,0-25.47,12-68.13,26.88-95.4,25.83-5.59-15-26.15-33.67-13.88-46.48-7.13-18.86-20.91-42.68,0-60.23-23.23-19.66-1.77-68-7.19-139.3-14.12,21.52-65-13.15-122.22-40.93,11.62-13.81,6.55-33.05,21.38-32.41-10.43-31.69,28.46-27,40.06-39.11-5-36.68,39.38-40.87,71.16-74.56,1.33-39.83,3.92-77.6,13.12-104.63-26.8-21.3,16.76-33.63-.68-56.82-13.73-18.25-15.33-47.65-18.74-90.56C268,1960,226.77,1814.46,198.44,1592.5,119.75,1229.72,328,1306.76,568.84,1428.57Z"/>
  <g id="clothesDisplayLine-2" data-name="clothesDisplayLine">
    <path class="cls-1" d="M518.28,1437.35c-27.45,26.77-61.61,37.39-106.22,17.54"/>
  </g>
  <g id="clothesOverlapLine-2" data-name="clothesOverlapLine">
    <path class="cls-1" d="M547.53,1582.83c-1.73,53.12-20.92,39.44-20.92,64.88,0,140.51-10.89,281-24.14,405.42-2.6,24.39,22,49.4-13.62,80.47-12.49,10.89,24,34.14-4.33,81.7-11.6,19.47-9.29,44.57-16.15,100.25"/>
    <path class="cls-1" d="M277.69,2254.26c-7.52,60.06-10.71,122.55-10.38,187"/>
  </g>
  <g id="clothesFoldLine">
    <path class="cls-1" d="M481,1562.66c21.34,21.37,45.29,43.4,37.53,57.4"/>
    <path class="cls-1" d="M443.51,1581.8c50.78,35.32,102.29,72.84,7.36,47.83"/>
    <path class="cls-1" d="M502.38,1684.08c-33.11,11.77-88.3,12.51-126.56,44.88"/>
    <path class="cls-1" d="M484.72,2091c-19.92,29.57-61,10.94-111.85-30.17"/>
    <path class="cls-1" d="M322.1,2094.68c64.13,12.77,91.74,24.26,2.21,31.64"/>
    <path class="cls-1" d="M328.72,2175.62c92.17-32.32,124.83-21,33.85,81"/>
    <path class="cls-1" d="M476.63,2208.74c-14.7-28.38-21.81,1.53-26.49,50"/>
    <path class="cls-1" d="M511.9,1956.27c31.15,31.63,65.36,53.48,103.8,61.88"/>
    <path class="cls-1" d="M515.63,2010.79c43.44,19.21,76.14,38.13,72.11,54.46-1.73,7-37.13-3.34-58.87-21.34"/>
    <path class="cls-1" d="M515.63,2082.17c39,25.76,67.36,12.61,70.64,23.55,2.21,7.36-15.45,14.71-32.38,14.71"/>
    <path class="cls-1" d="M502.38,2155.76c53.72-19.87,109.22-27.5,49.3,14.71"/>
    <path class="cls-1" d="M424.38,2578.87c-35.32,37.52-120.68,9.56-128.77-56.66"/>
    <path class="cls-1" d="M274.5,2580.57c10.07,7.13,29,12.31,28.47,23.32"/>
    <path class="cls-1" d="M306.65,2634.06c39.73-2.21,81.6-11.57,86.09-1.48,4.58,10.3-21.05,13.86-56.66,11.78"/>
    <path class="cls-1" d="M274.5,2640.8c11.06,11.6,27.47,17.41,49.81,16.8"/>
    <path class="cls-1" d="M248.52,2336q9.34,23.63,19.89,35.17"/>
    <path class="cls-1" d="M206.53,2328.82c2.25,16,48.3,59.56.78,29.29"/>
    <path class="cls-1" d="M166.47,2367.93q21.28,29.18,59.23,38"/>
    <path class="cls-1" d="M267.34,2419.19c-9.17-13.25-23.95-19.85-23.77-27.23"/>
  </g>
  <g id="walkman">
    <path id="headphoneEarpad" class="cls-2" d="M745.11,327.7c-67.5-22.8-33.3-124,34.2-101.24S812.61,350.5,745.11,327.7Z"/>
    <path id="walkmanLight" class="cls-3" d="M804.52,142.67a695.92,695.92,0,0,0-41.78,109.85,24.09,24.09,0,0,0-13.12,46.18c12.44,4.73,27.56-1,32-17,12.52-44.94,28.12-84.71,48.28-128Z"/>
    <path id="headphoneBand" class="cls-4" d="M907.17,1.15c-26,18.35-75,91.14-98,143.55l16.35,7.11C851.23,99.3,895,29.17,923,8.24Z"/>
  </g>
  <path id="bennettJacket" class="cls-1" d="M408.7,646.46c-28.38,45.5-52.64,90.47-69.27,134.47-66.57,67-133.19,138.44-135.82,180.65-1.11,17.79,16.94,51.32,39.68,87.59,0,0-9.8,98.38,4.87,118.4,10.69,24.87-14.52,28.61-3.32,49.15,1,24.72-19.6,45.75-16.8,80.29,114.84,18.68,202.61,115.78,340.8,131.56,5.57-6.39,8.7-14.75,9.33-25.11,83.1-72.83,72.74-136.3,73.76-203.55.94-61.62,21.79-55.93,15.88-99.9-3.14-23.3,16.81-50.11,19.6-74.7,3.07-27-6.44-52.8,3.74-79.36,20.81-54.32,14.58-216.79-1.87-306.25C580,523.14,485.07,514.58,408.7,646.46Z"/>
  <path id="bennettHoodie" class="cls-1" d="M568.84,1428.57c6.36,3.55,7.7,7.17,5.79,10.85-71.41,13.18-238.58-62.27-355.38-79.74L228,1297C359.57,1310.59,479.31,1344.07,568.84,1428.57Z"/>
  <g id="bag">
    <g id="bagStrap">
      <path class="cls-5" d="M248.16,1167.57l-27.78,50.54-68.93-13.41,91.84-155.53A289.1,289.1,0,0,0,271,1099C262.36,1144.18,238.84,1143,248.16,1167.57Z"/>
      <path class="cls-5" d="M484.69,1153c134.46-141.55,225.2-292.12,215.75-439.62,8.24,110-120.16,262.75-254.45,393.08,9.05,14.12,16.21,26.09,20.59,34.89C472.91,1141.34,478.84,1146.66,484.69,1153Z"/>
      <path class="cls-5" d="M378.19,1255.76c-34.33,30.68-70.16,60.74-106.86,90.07-17.82-11.12-43.17-16.79-74.66-18,33.9-29,85.26-71.84,142.43-122.57A405,405,0,0,0,378.19,1255.76Z"/>
    </g>
    <path id="bagDark" class="cls-6" d="M196.67,1327.83,68.88,1724.65C56.8,1719.29,47,1691.8,42,1668.5,86.81,1480.69,132.36,1301.14,196.67,1327.83Z"/>
    <path id="bagLight" class="cls-7" d="M196.67,1327.83C156.47,1324,111.23,1498.11,71,1631.1c-11,36.16-25.5,51.84-35.06,27.63-11.23-28.46-10.68-53.48-22.47-89.12-8.74-26.43,1.5-58.42,13.48-84.63,35.05-76.65,52.9-171.06,88.58-250.4,20.77-46.18,79.19-32.69,104.9-16.47,10,6.28,28.21,40,32.07,62.29Z"/>
    <path id="bagMedium" class="cls-8" d="M64.35,1695.43c-5.87,18.4-5.42,28.42,16.48,33.7,19.74,4.77,40,6.78,61.41,10.49,16.51,2.86,29.45.4,35.95-18.72,50.43-148.4,81.09-302.8,93.14-375.07-17.82-11.12-43.17-16.79-74.66-18C161.71,1398.85,92.06,1608.56,64.35,1695.43Z"/>
  </g>
  <path id="bennettHoodieInner" class="cls-1" d="M500.08,495.41c15.52-9.7,32-36.3,46.56-25.22,78.24,59.49,147.43,107.35,142.64,169.51Z"/>
  <g id="bennettHoodie-2" data-name="bennettHoodie">
    <path class="cls-1" d="M526.61,1206.48c-3.78,33.3-24.29,57-59.27,72.37,8.27,9,5.58,22,13.78,22.06,24.82.12,85.1-49.15,69.44-70.68C545.05,1222.65,539.71,1226.47,526.61,1206.48Z"/>
    <path class="cls-1" d="M692.19,657c-20.34-35-51.45-45.45-89-70.79-65-43.85-127.16-3.65-182,60.66-21.06,24.71-40.76,21.48-43.85-13.89-8.16-93.47,28.49-76.47,27.77-89.89-2.92-54.81,19.34-41,27-57.73,8.77-19,32.89-40.92,74.54,2.92C557.23,541.43,691.58,574.47,692.19,657Z"/>
  </g>
  <g id="clothesOverlapLine-3" data-name="clothesOverlapLine">
    <path class="cls-1" d="M476.67,622.79c-41.72,31.28-61.09,70.15-87.45,101.88C371.5,746,353,758.73,339.43,780.93"/>
    <path class="cls-1" d="M552.88,789.66c-39.31,32.89-57.07,83.55-89.85,96.27-1.61,21.66-23.59,32.18-35.3,45.73s-19,28.88-36.1,33.69c1.38,9,.48,17.07-7.22,22.46,23.12,32.32,33.69,73.81,61.58,118.61"/>
    <path class="cls-1" d="M484.69,1153c27.28,40.23,46.45,42.21,41.92,53.52"/>
    <path class="cls-1" d="M467.34,1278.85c-54.85,19.44-58.87,6.6-89.15-23.09"/>
    <path class="cls-1" d="M271,1099c18.23,34.72,41.36,70.19,68.14,106.23"/>
    <path class="cls-1" d="M604,1208.73c-26,59.9-74.66,110.25-127.61,126.74"/>
  </g>
  <g id="clothesFoldLine-2" data-name="clothesFoldLine">
    <path class="cls-1" d="M482.57,517.57c-19.15,2.37-41,1.28-52.56-12.18"/>
    <path class="cls-1" d="M466.54,559.24c-15.92,14.26-35.61,21.36-62.18,15.39"/>
    <path class="cls-1" d="M569.75,613.09c-43-21.8-65.54,2.76-59.62-6.41,19.88-30.77,82.06-21.8,116,22.43"/>
    <path class="cls-1" d="M614,725.91c-29.48,53.85-63.46,57.05-61.1,63.75,17.17,5.71,50.85-15,75.85-38.75"/>
    <path class="cls-1" d="M450.52,764.37C437.06,797.07,439,872.71,448,883.61"/>
    <path class="cls-1" d="M511.32,837.38c9.73,21.41,31.51,39.81,46.25,60.33"/>
    <path class="cls-1" d="M514,880.4c8.16,25.94,28,50.66,51.28,75"/>
    <path class="cls-1" d="M299.87,923.35c43.6-18,76.3,42.34,91.76,42-29.11,11.74-80.86,4.15-115.47-20.85"/>
    <path class="cls-1" d="M278.72,917.58c17.15,17.26,39,27.8,64.75,32.69"/>
    <path class="cls-1" d="M384.41,987.81c-22.25,11-48.2,16.48-78.77,15"/>
    <path class="cls-1" d="M261.41,1174.64c26.39,17.77,46.53,34.47,3.85,40.38"/>
    <path class="cls-1" d="M244.84,1216.72c5.12,7,29.76,22.89,45.14,23.3"/>
    <path class="cls-1" d="M293.46,1171.43c10,15.83,23,28.68,40.43,37.3"/>
    <path class="cls-1" d="M512.7,1372.08q32.73,22.77,65.47,31.38"/>
    <path class="cls-1" d="M604,1153a208.28,208.28,0,0,0,49.77,21.68"/>
    <path class="cls-1" d="M537.7,1135.53c21,17.91,43.39,30.35,67.31,36.54"/>
    <path class="cls-1" d="M440.9,1022.71c-1.61,5.18,16.52,73.63,18.91,70.19"/>
    <path class="cls-1" d="M455,974c5.23,35.35,15.47,66.39,29.68,94"/>
  </g>
</svg>
