<svg class="presence" 
  xmlns="http://www.w3.org/2000/svg" viewBox="0 0 992 2963.9">
  <g class="soleWhite">
    <path d="M556.48,2869c48.91,5.69,92.34,16.08,81.94,79.09-64.84,26.91-133.3,9.19-204.3,7.34-67.88-1.77-171.77,7.34-194.4-20.19-3.93-14.52-1.8-29.61,3.85-45Z"/>
    <path d="M238,2733.17c20.44,42,23.91,79.2-19.05,103-64.84-34.26-104.53-135-140.69-178.61C39.7,2611.09-1.9,2551.14,1.16,2540.13a139,139,0,0,1,31.36-26.84Z"/>
  </g>
  <g class="bennettShoe">
    <path d="M417.31,2679.19c-2.65,49.13,1.68,96.48,35,124.42,35.27,29.55,74,59.6,104.14,65.43-9.59,17-13.5,35.29-10.14,55.3-99.53-12.9-250.23,3.69-302.77-34.1,4.61-48.85,34.16-110.6,39.69-185.25C320.77,2669,384.13,2674.58,417.31,2679.19Z"/>
    <path d="M286,2500.39c-25.43,33.25-46.47,68.44-52.53,107.83-5.63,36.54-11.14,78.87,4.53,125-19.41.57-36.65,6-51.62,16.59-44.24-57.14-69.14-109.55-106.83-149.84-23.83-25.47-47.92-72.81-47-86.63,21-23.75,108.75-52.16,160.36-92.71Z"/>
  </g>
  <g class="shoelace">
    <path d="M223.92,2552c-14.35,34.74-17,81.77-17.39,131.85a69.86,69.86,0,0,1,22.1,5.09c-2.67-29.08,1-56.18,4.81-80.67a177,177,0,0,1,14.86-47.73C240.41,2554.93,232.32,2551.63,223.92,2552Z"/>
    <path d="M492.89,2862.73c3.75-5.82,9.66-10.75,17.33-14.95-19.05-12.33-39-28.32-57.88-44.17a87.83,87.83,0,0,1-24.78-34.46c-7.18,2.5-13.05,5.41-17.26,8.83C424.27,2809.44,455.74,2839.13,492.89,2862.73Z"/>
  </g>
  <circle class="converseLogo" cx="135.72" cy="2550.89" r="37.33"/>
  <path class="bennettJeans" d="M568.84,1484.94c26,42.42,10.16,57.52,3.91,87.32.83,30.62-5.4,50.12-15.22,63.94,59,181.58,145.73,440.51,130,492.16-24.57,80.52-113.65,140.5-214.28,250.86-9.57,89.85-18.1,184.46-27.27,234.23-2.24,15.9,17.21,45.41-15.22,75.1,4.94,17.25-1.1,27.31-13.62,29.26-2.74-29.49-22.35-28.1-27.33,0-25.47,12-85.13,26.89-112.4,25.83-5.59-15-26.15-33.66-13.88-46.47-7.13-18.87-20.91-42.69,0-60.24-23.23-19.66,9.23-67.94,3.81-139.3-14.12,21.52-65-19.15-122.22-46.92,11.62-13.81-.84-39.9,14-39.26-10.43-31.7,28.47-27,40.07-39.12-5-36.67,38.88-62.07,70.67-95.76,1.32-39.83,4.41-49.39,13.61-76.42-26.8-21.3,16.76-33.63-.69-56.82-13.73-18.25-7.94-41.8-11.35-84.72-3.35-42.25-44.62-187.78-72.95-409.75C119.75,1286.08,328,1363.13,568.84,1484.94Z"/>
  <path class="bennettJacket" d="M408.7,702.83c-28.38,45.5-52.64,90.47-69.27,134.47-66.57,67-133.19,138.44-135.82,180.64-1.11,17.8,16.94,51.33,39.68,87.6,0,0-9.8,98.38,4.87,118.4,10.69,24.87-14.52,28.6-3.32,49.14,1,24.73-19.6,45.76-16.8,80.3,114.84,18.68,202.61,115.78,340.8,131.56,5.57-6.39,8.7-14.75,9.33-25.12,83.1-72.83,72.74-136.29,73.76-203.54.94-61.63,21.79-55.93,15.88-99.91-3.14-23.3,16.81-50.1,19.6-74.69,3.07-27-6.44-52.81,3.74-79.37C712,948,705.73,785.53,689.28,696.06,580,579.51,485.07,571,408.7,702.83Z"/>
  <g class="bag">
    <path class="bagStrapDark" d="M248.16,1223.94l-27.78,50.53-68.93-13.4,91.84-155.53A289.1,289.1,0,0,0,271,1155.4C262.36,1200.54,238.84,1199.32,248.16,1223.94Z"/>
    <g class="bagStrapLight">
      <path d="M484.69,1209.33C619.15,1067.78,709.89,917.2,700.44,769.7c8.24,110-120.16,262.76-254.45,393.08,9.05,14.13,16.21,26.1,20.59,34.9C472.91,1197.71,478.84,1203,484.69,1209.33Z"/>
      <path d="M378.19,1312.13c-34.33,30.67-70.16,60.74-106.86,90.07-17.82-11.12-43.17-16.79-74.66-18,33.9-29,85.26-71.83,142.43-122.57A405,405,0,0,0,378.19,1312.13Z"/>
    </g>
    <path class="bagDark" d="M196.67,1384.19,68.88,1781C56.8,1775.66,47,1748.17,42,1724.87,86.81,1537.06,132.36,1357.5,196.67,1384.19Z"/>
    <path class="bagLight" d="M196.67,1384.19c-40.2-3.86-85.44,170.29-125.72,303.28-11,36.16-25.5,51.84-35.06,27.63-11.23-28.46-10.68-53.48-22.47-89.12-8.74-26.43,1.5-58.42,13.48-84.63C62,1464.7,79.8,1370.29,115.48,1291c20.77-46.18,79.19-32.7,104.9-16.48,10,6.29,28.21,40,32.07,62.29Z"/>
    <path class="bagMedium" d="M64.35,1751.8c-5.87,18.4-5.42,28.41,16.48,33.7,19.74,4.77,40,6.78,61.41,10.49,16.51,2.86,29.45.4,35.95-18.73,50.43-148.39,81.09-302.79,93.14-375.06-17.82-11.12-43.17-16.79-74.66-18C161.71,1455.22,92.06,1664.92,64.35,1751.8Z"/>
  </g>
  <g class="eye">
    <circle class="sclera" cx="865.75" cy="415.84" r="37.25"/>
    <path class="irisDarkBrown" d="M872.58,443.18c2.4.67,10.9-7.4,14.26-19.37s.3-23.28-2.1-24A127.48,127.48,0,0,0,872.58,443.18Z"/>
    <path class="pupil" d="M881.59,431.43c1.92.54,3.95-3,5.25-7.62s1.4-8.69-.52-9.23A68,68,0,0,0,881.59,431.43Z"/>
  </g>
  <g class="skinEastAsian">
    <path d="M553.12,1294.69c.13,22.67-60.59,64.53-83.94,67.75,1.92,8.85,2,21.4,6.1,31.85,59.12-15.44,90.09-48.85,108.67-80.13C576.18,1306,562.88,1299.53,553.12,1294.69Z"/>
    <path d="M524.65,385.09c33.85,63.8,28.66,98-2.12,145.85l156.22,129c7.82-61.71,54.15-60.34,127.62-97.25Z"/>
    <path d="M642.12,466.67c-27.36,11.32-33-12.59-46.7-33.28C381.29,271.09,810.49-4.28,947.94,229.24c-16.57,68-.9,137.8-37.52,187.63-19.13,26-3.27,53.22,3.36,97.58,3.49,23.3-11.7,29.19-44.57,16.4-6.31,9.47-10.74,19.68-6.81,29.09-.73,7.79-5.57,10.79-12.73,11.69,0,0,12.68,19.54-4.84,23.71-38.08,10.75-19,62.83-77.59,55.53-15.67-2-39-24-70.64-50.76-21.93-18.52-42.35-42.74-55.05-79.58M888.18,415.1c-12.21-1.17-20.21-.15-29.7.75,7.69,5.56,18.24,10.57,26.25,13.54C887.28,425.06,888.66,418.5,888.18,415.1Z"/>
  </g>
  <path class="skinFoldLine" d="M645.72,374.8c-4.66-74.62-102.25-37-47.2,38.6"/>
  <path class="bennettHoodieInner" d="M487.32,546.07c15.52-9.7,32-36.31,46.56-25.22,78.25,59.49,160.19,113,155.4,175.21Z"/>
  <g class="bennettHoodie">
    <path d="M568.84,1484.94C462.07,1472.75,385.41,1412,303.1,1376.42q-15.77,13-31.77,25.78c-1.17,7-2.52,14.84-4.05,23.34,110.82,26.19,245.27,81.7,307.35,70.25C576.54,1492.11,575.2,1488.49,568.84,1484.94Z"/>
    <path d="M526.61,1262.85c-3.78,33.3-39.47,62.4-74.46,77.78,8.28,9,5.58,22,13.79,22,24.81.13,100.28-54.55,84.62-76.09C545.05,1279,539.71,1282.84,526.61,1262.85Z"/>
    <path d="M692.19,713.32c-20.34-35-51.45-45.46-89-70.79-65-43.85-127.16-3.66-182,60.65-21.06,24.71-40.76,21.48-43.85-13.88-8.16-93.47,15.73-82.18,15-95.6-2.92-54.81,19.33-41,27-57.73,8.77-19,32.88-40.93,74.54,2.92C544.48,592.09,691.58,630.83,692.19,713.32Z"/>
  </g>
  <g class="clothesDisplayLine">
    <path d="M518.28,1493.71c-27.45,26.78-56.61,34.4-101.22,14.55"/>
    <path d="M186.35,2749.76C199,2776.38,222,2803.23,243.57,2815"/>
    <path d="M546.34,2924.34a194.17,194.17,0,0,0,91.1-12.6"/>
  </g>
  <g class="clothesOverlapLine">
    <path d="M476.67,679.15C435,710.44,415.58,749.3,389.22,781,371.5,802.37,353,815.1,339.43,837.3"/>
    <path d="M552.88,846c-39.31,32.9-57.07,83.55-89.85,96.27-1.61,21.66-23.59,32.19-35.3,45.73s-19,28.88-36.1,33.7c1.38,9,.48,17.07-7.22,22.46,23.12,32.32,33.69,73.81,61.58,118.6"/>
    <path d="M484.69,1209.33c27.28,40.23,46.45,42.2,41.92,53.52"/>
    <path d="M452.15,1340.63c-54.85,19.43-43.68,1.19-74-28.5"/>
    <path d="M271,1155.4c18.23,34.71,41.36,70.18,68.14,106.22"/>
    <path d="M604,1265.1c-22.35,80.39-77,120-142.8,132.15"/>
    <path d="M557.53,1636.2c-1.73,53.12-20.92,39.44-20.92,64.88,0,140.51-15.89,284-29.14,408.42-2.6,24.39,22,49.4-13.62,80.46-12.49,10.9,24,34.14-4.33,81.71-11.6,19.47-9.44,51.87-16.3,107.55"/>
    <path d="M269.82,2276.57c-7.53,60.06-2.84,156.61-2.51,221.06"/>
    <path d="M223.92,2552c13.09-22.15,29.68-35.35,34.25-48.13"/>
    <path d="M410.3,2778c-10-25.45-10.89-56.62-20.52-60.17"/>
    <path d="M206.88,2661.91a40.69,40.69,0,0,1,20.85,4.6"/>
    <path d="M207.65,2641.62a33,33,0,0,1,20.89,6.23"/>
    <path d="M209,2622a39.36,39.36,0,0,1,21.65,5.56"/>
    <path d="M211.64,2599.43a48.43,48.43,0,0,1,22.4,5.17"/>
    <path d="M216.14,2576.18a43.36,43.36,0,0,1,23.51,6.18"/>
    <path d="M422,2798.51a52,52,0,0,1,16.29-10"/>
    <path d="M435,2815q8.15-5.94,17.3-11.37"/>
    <path d="M448.12,2828.37a76.75,76.75,0,0,1,19.15-12.43"/>
    <path d="M462.08,2840.6a77.69,77.69,0,0,1,19.13-13.6"/>
    <path d="M477.85,2852.61c3.71-6.05,9.78-10.85,17.66-14.71"/>
  </g>
  <g class="clothesFoldLine">
    <path d="M469.81,568.23c-19.14,2.37-41,1.28-52.56-12.18"/>
    <path d="M453.79,609.9c-15.93,14.25-35.62,21.35-62.18,15.38"/>
    <path d="M569.75,669.45c-43-21.79-65.54,2.76-59.62-6.41,19.88-30.77,82.06-21.79,116,22.44"/>
    <path d="M614,782.28c-29.48,53.84-63.46,57.05-61.1,63.74,17.17,5.72,50.85-15,75.85-38.74"/>
    <path d="M450.52,820.74C437.06,853.43,439,929.07,448,940"/>
    <path d="M511.32,893.74c9.73,21.42,31.51,39.82,46.25,60.34"/>
    <path d="M514,936.77c8.16,25.94,28,50.66,51.28,75"/>
    <path d="M299.87,979.72c43.6-18,76.3,42.34,91.76,42-29.11,11.74-80.86,4.15-115.47-20.85"/>
    <path d="M278.72,974c17.15,17.26,39,27.8,64.75,32.69"/>
    <path d="M384.41,1044.18c-22.25,11-48.2,16.47-78.77,15"/>
    <path d="M261.41,1231c26.39,17.78,46.53,34.48,3.85,40.39"/>
    <path d="M244.84,1273.08c5.12,7.06,29.76,22.9,45.14,23.31"/>
    <path d="M293.46,1227.8c10,15.83,23,28.68,40.43,37.3"/>
    <path d="M512.7,1428.44q32.73,22.77,65.47,31.38"/>
    <path d="M604,1209.33A208.65,208.65,0,0,0,653.78,1231"/>
    <path d="M537.7,1191.9c21,17.9,43.39,30.35,67.31,36.54"/>
    <path d="M440.9,1079.08c-1.61,5.18,16.52,73.63,18.91,70.19"/>
    <path d="M455,1030.36c5.23,35.35,15.47,66.39,29.68,94"/>
    <path d="M491,1616c21.34,21.37,45.29,43.39,37.53,57.4"/>
    <path d="M453.51,1635.16c50.78,35.32,102.29,72.85,7.36,47.83"/>
    <path d="M512.38,1737.45c-33.11,11.77-88.3,12.5-126.56,44.88"/>
    <path d="M489.72,2147.37c-19.92,29.57-61,10.94-111.85-30.17"/>
    <path d="M314.71,2145.2c68.94,13.72,96.71,23.84,2.21,31.64"/>
    <path d="M328.72,2232c92.17-32.32,129.83-21,38.85,80.94"/>
    <path d="M481.63,2265.1c-14.7-28.38-21.81,1.54-26.49,50"/>
    <path d="M516.9,2012.64c31.15,31.62,65.36,53.47,103.8,61.88"/>
    <path d="M520.63,2067.16c43.44,19.21,76.14,38.12,72.11,54.45-1.73,7-37.13-3.33-58.87-21.34"/>
    <path d="M520.63,2138.54c39,25.75,67.36,12.6,70.64,23.54,2.21,7.36-15.45,14.72-32.38,14.72"/>
    <path d="M507.38,2212.12c53.72-19.87,109.22-27.49,49.3,14.72"/>
    <path d="M430.38,2635.23c-35.32,37.53-137.68,9.57-145.77-56.66"/>
    <path d="M263.5,2636.93c10.07,7.13,29,12.31,28.47,23.32"/>
    <path d="M295.65,2690.42c39.73-2.21,81.6-11.56,86.09-1.47,4.58,10.3-4.05,13.85-39.66,11.77"/>
    <path d="M263.5,2697.17c11.06,11.59,38.47,17.4,60.81,16.8"/>
    <path d="M248.52,2392.4c6.23,15.75,10.67,25.55,17.7,33.25"/>
    <path d="M199.15,2372.33c2.24,16.06,48.29,59.57.77,29.3"/>
    <path d="M159.08,2411.45c25.87,33.35,49.74,44.8,80.29,62"/>
    <path d="M267.34,2475.55c-9.17-13.24-35.61-24.07-36.56-44.12"/>
  </g>
  <path class="lipMaleMedium__noStroke" d="M849.67,571.63c7.16-.9,12-3.9,12.73-11.69-12.54,6.83-27.33.69-45,6.23,9.93,8,13.49,23,27.48,29.17C862.35,591.17,849.67,571.63,849.67,571.63Z"/>
  <path class="lipBorderLine" d="M849.67,571.63c-6.32-.86-4-5.37-32.32-5.46"/>
  <path class="lipEdgeLine" d="M831.44,583.18a24.17,24.17,0,0,0,13.39,12.16"/>
  <path class="cheekLine" d="M811,576.91c6.59-7.91,8.55-18.84,15-28.41,4-5.94,14-10.78,17.78-18.14"/>
  <path class="noseLine" d="M884.07,528.44c-16.16-1.17-20,3.1-26.25,0-9.76-4.76-8.26-16.11-.2-23.26"/>
  <g class="eyeLidLine">
    <path d="M888.18,415.1c12.73,1.52,12.06-9.62,12.06-9.62"/>
    <path d="M884.73,429.39c8.55,2.4,7.7,11.6-2.87,14.51"/>
  </g>
  <path class="eyeCornerLine" d="M858.48,415.85a62.38,62.38,0,0,1-14.41-.64"/>
  <path class="eyeCreaseLine" d="M860.34,405.59c10.41.25,25.28-.72,39.9-.11"/>
  <path class="eyebrowBlack" d="M918.68,375.08c-28.29,25.7-36.76-18.33-81.72-2.43C874.71,340.38,890,375.3,918.68,375.08Z"/>
  <path class="hairBlack" d="M917.42,233.62c-9.12,51.68,15.39,102.93,63.72,122.78-31-45.92,38.21-99.2-25.2-156a147.23,147.23,0,0,0,32.83,4.29C945.05,173.6,932.67,138,878.6,104c-28.52-18-38.09-16.56-63.67-17.53C778.78,46,709.48,39.05,661.66,46.4c6.62-21,31.91-37,55.75-45.32C684-.49,655.57,20.94,639.2,48.16c-13.54-24.26-38.51-33.86-60.85-18,23.46-5.58,35.5,4.46,43.32,22.92-123.08,57.62-206.26,265.26-85.14,400.07,16.82-2.46,40.8-9.62,58.89-19.79-21.64-33.43-37.39-61.47-15.92-95,21.74-34,83.73-21.79,78.72,23,17.68,7.54,38.3,11,60.61,15.66,10.78-40,7.32-26.61,50.4-53.12,32.3-1.69,77.68,6,106.81-53-4.55,12.23-4.54,23-4.23,34.23C884.7,277.63,906.94,271,917.42,233.62Z"/>
  <path class="hairOverlapLine" d="M769.23,323.91c-12-.24-34.28,1-44.29,1.43,15.67-5.78,34-12.86,42.85-17.07"/>
  <g class="walkman">
    <path class="headphoneEarpad" d="M618.85,439.9c-67.49-22.8-33.29-124,34.2-101.25S686.35,462.7,618.85,439.9Z"/>
    <path class="walkmanLight" d="M678.26,254.87a695.82,695.82,0,0,0-41.78,109.84,24.09,24.09,0,0,0-13.11,46.18c12.43,4.73,27.55-1,32-17,12.52-44.93,28.13-84.7,48.29-128Z"/>
    <path class="headphoneBand" d="M808.17,79.58C782.11,97.93,705.88,204.49,682.93,256.9L699.29,264C725,211.49,796,107.61,824,86.68Z"/>
  </g>
</svg>
