<svg viewBox="0 0 987 2970.9">
    <g class="soleWhite">
        <path d="M556.48,2876c48.91,5.69,92.34,16.08,81.94,79.09-64.84,26.91-133.3,9.19-204.3,7.34-67.88-1.77-171.77,7.34-194.4-20.19-3.93-14.52-1.8-29.61,3.85-45Z"/>
        <path d="M238,2740.17c20.44,42,23.91,79.2-19.05,103-64.84-34.26-104.53-135-140.69-178.61C39.7,2618.09-1.9,2558.14,1.16,2547.13a139,139,0,0,1,31.36-26.84Z"/>
    </g>
    <g class="bennettShoe">
        <path d="M417.31,2686.19c-2.65,49.13,1.68,96.48,35,124.42,35.27,29.55,74,59.6,104.14,65.43-9.59,17-13.5,35.29-10.14,55.3-99.53-12.9-250.23,3.69-302.77-34.1,4.61-48.85,34.16-110.6,39.69-185.25C320.77,2676,384.13,2681.58,417.31,2686.19Z"/>
        <path d="M286,2507.39c-25.43,33.25-46.47,68.44-52.53,107.83-5.63,36.54-11.14,78.87,4.53,125-19.41.57-36.65,6-51.62,16.59-44.24-57.14-69.14-109.55-106.83-149.84-23.83-25.47-47.92-72.81-47-86.63,21-23.75,108.75-52.16,160.36-92.71Z"/>
    </g>
    <g class="shoelace">
        <path d="M223.92,2559c-14.35,34.74-17,81.77-17.39,131.85a69.86,69.86,0,0,1,22.1,5.09c-2.67-29.08,1-56.18,4.81-80.67a177,177,0,0,1,14.86-47.73C240.41,2561.93,232.32,2558.63,223.92,2559Z"/>
        <path d="M492.89,2869.73c3.75-5.82,9.66-10.75,17.33-14.95-19.05-12.33-39-28.32-57.88-44.17a87.83,87.83,0,0,1-24.78-34.46c-7.18,2.5-13.05,5.41-17.26,8.83C424.27,2816.44,455.74,2846.13,492.89,2869.73Z"/>
    </g>
    <circle class="converseLogo" cx="135.72" cy="2557.89" r="37.33"/>
    <path class="bennettJeans" d="M568.84,1491.94c26,42.42,10.16,57.52,3.91,87.32.83,30.62-5.4,50.12-15.22,63.94,59,181.58,145.73,440.51,130,492.16-24.57,80.52-113.65,140.5-214.28,250.86-9.57,89.85-18.1,184.46-27.27,234.23-2.24,15.9,17.21,45.41-15.22,75.1,4.94,17.25-1.1,27.31-13.62,29.26-2.74-29.49-22.35-28.1-27.33,0-25.47,12-85.13,26.89-112.4,25.83-5.59-15-26.15-33.66-13.88-46.47-7.13-18.87-20.91-42.69,0-60.24-23.23-19.66,9.23-67.94,3.81-139.3-14.12,21.52-65-19.15-122.22-46.92,11.62-13.81-.84-39.9,14-39.26-10.43-31.7,28.47-27,40.07-39.12-5-36.67,38.88-62.07,70.67-95.76,1.32-39.83,4.41-49.39,13.61-76.42-26.8-21.3,16.76-33.63-.69-56.82-13.73-18.25-7.94-41.8-11.35-84.72-3.35-42.25-44.62-187.78-72.95-409.75C119.75,1293.08,328,1370.13,568.84,1491.94Z"/>
    <path class="bennettJacket" d="M408.7,709.83c-28.38,45.5-52.64,90.47-69.27,134.47-66.57,67-133.19,138.44-135.82,180.64-1.11,17.8,16.94,51.33,39.68,87.6,0,0-9.8,98.38,4.87,118.4,10.69,24.87-14.52,28.6-3.32,49.14,1,24.73-19.6,45.76-16.8,80.3,114.84,18.68,202.61,115.78,340.8,131.56,5.57-6.39,8.7-14.75,9.33-25.12,83.1-72.83,72.74-136.29,73.76-203.54.94-61.63,21.79-55.93,15.88-99.91-3.14-23.3,16.81-50.1,19.6-74.69,3.07-27-6.44-52.81,3.74-79.37C712,955,705.73,792.53,689.28,703.06,580,586.51,485.07,578,408.7,709.83Z"/>
    <g class="bag">
        <g class="bagStrap">
            <path d="M248.16,1230.94l-27.78,50.53-68.93-13.4,91.84-155.53A289.1,289.1,0,0,0,271,1162.4C262.36,1207.54,238.84,1206.32,248.16,1230.94Z"/>
            <path d="M484.69,1216.33C619.15,1074.78,709.89,924.2,700.44,776.7c8.24,110-120.16,262.76-254.45,393.08,9.05,14.13,16.21,26.1,20.59,34.9C472.91,1204.71,478.84,1210,484.69,1216.33Z"/>
            <path d="M378.19,1319.13c-34.33,30.67-70.16,60.74-106.86,90.07-17.82-11.12-43.17-16.79-74.66-18,33.9-29,85.26-71.83,142.43-122.57A405,405,0,0,0,378.19,1319.13Z"/>
        </g>
        <path class="bagDark" d="M196.67,1391.19,68.88,1788C56.8,1782.66,47,1755.17,42,1731.87,86.81,1544.06,132.36,1364.5,196.67,1391.19Z"/>
        <path class="bagLight" d="M196.67,1391.19c-40.2-3.86-85.44,170.29-125.72,303.28-11,36.16-25.5,51.84-35.06,27.63-11.23-28.46-10.68-53.48-22.47-89.12-8.74-26.43,1.5-58.42,13.48-84.63C62,1471.7,79.8,1377.29,115.48,1298c20.77-46.18,79.19-32.7,104.9-16.48,10,6.29,28.21,40,32.07,62.29Z"/>
        <path class="bagMedium" d="M64.35,1758.8c-5.87,18.4-5.42,28.41,16.48,33.7,19.74,4.77,40,6.78,61.41,10.49,16.51,2.86,29.45.4,35.95-18.73,50.43-148.39,81.09-302.79,93.14-375.06-17.82-11.12-43.17-16.79-74.66-18C161.71,1462.22,92.06,1671.92,64.35,1758.8Z"/>
    </g>
    <g class="eye">
        <circle class="sclera" cx="864.75" cy="422.84" r="37.25"/>
        <path class="irisDarkBrown" d="M871.58,450.18c2.4.67,10.9-7.4,14.26-19.37s.3-23.28-2.1-24A127.48,127.48,0,0,0,871.58,450.18Z"/>
        <path class="pupil" d="M880.59,438.43c1.92.54,3.95-3,5.25-7.62s1.4-8.69-.52-9.23A68,68,0,0,0,880.59,438.43Z"/>
    </g>
    <g class="skinEastAsian">
        <path d="M553.12,1301.69c.13,22.67-60.59,64.53-83.94,67.75,1.92,8.85,2,21.4,6.1,31.85,59.12-15.44,90.09-48.85,108.67-80.13C576.18,1313,562.88,1306.53,553.12,1301.69Z"/>
        <path d="M508.65,385.09c15.67,46.23,44.66,105,13.88,152.85l156.22,129c6.88-54.3,67.07-43.32,129.59-76.48Z"/>
        <path d="M628.12,467.67c-27.36,11.32-33-12.59-46.7-33.28C367.29,272.09,807.49,2.72,944.94,236.24c-16.57,68,1.1,137.8-35.52,187.63-19.13,26,6.73,58.22,13.36,102.58,3.49,23.3-11.7,29.19-44.57,16.4-6.31,9.47-4.74,20.68-.81,30.09-.73,7.79-5.57,10.79-12.73,11.69,0,0,12.68,19.54-4.84,23.71-23.43,3.23.82,72.17-65.59,61.53-15.6-2.5-63-27-94.64-53.76a221.82,221.82,0,0,1-51.54-63.8M887.18,422.1c-12.21-1.17-20.21-.15-29.7.75,7.69,5.56,18.24,10.57,26.25,13.54C886.28,432.06,887.66,425.5,887.18,422.1Z"/>
    </g>
    <path class="skinFoldLine" d="M631.72,375.8c-4.66-74.62-102.25-37-47.2,38.6"/>
    <path class="bennettHoodieInner" d="M487.32,553.07c15.52-9.7,32-36.31,46.56-25.22,78.25,59.49,160.19,113,155.4,175.21Z"/>
    <g class="bennettHoodie">
        <path d="M568.84,1491.94C462.07,1479.75,385.41,1419,303.1,1383.42q-15.77,13-31.77,25.78c-1.17,7-2.52,14.84-4.05,23.34,110.82,26.19,245.27,81.7,307.35,70.25C576.54,1499.11,575.2,1495.49,568.84,1491.94Z"/>
        <path d="M526.61,1269.85c-3.78,33.3-39.47,62.4-74.46,77.78,8.28,9,5.58,22,13.79,22,24.81.13,100.28-54.55,84.62-76.09C545.05,1286,539.71,1289.84,526.61,1269.85Z"/>
        <path d="M692.19,720.32c-20.34-35-51.45-45.46-89-70.79-65-43.85-127.16-3.66-182,60.65-21.06,24.71-40.76,21.48-43.85-13.88-8.16-93.47,15.73-82.18,15-95.6-2.92-54.81,19.33-41,27-57.73,8.77-19,32.88-40.93,74.54,2.92C544.48,599.09,691.58,637.83,692.19,720.32Z"/>
    </g>
    <g class="clothesDisplayLine">
        <path d="M518.28,1500.71c-27.45,26.78-56.61,34.4-101.22,14.55"/>
        <path d="M186.35,2756.76C199,2783.38,222,2810.23,243.57,2822"/>
        <path d="M546.34,2931.34a194.17,194.17,0,0,0,91.1-12.6"/>
    </g>
    <g class="clothesOverlapLine">
        <path d="M476.67,686.15C435,717.44,415.58,756.3,389.22,788,371.5,809.37,353,822.1,339.43,844.3"/>
        <path d="M552.88,853c-39.31,32.9-57.07,83.55-89.85,96.27-1.61,21.66-23.59,32.19-35.3,45.73s-19,28.88-36.1,33.7c1.38,9,.48,17.07-7.22,22.46,23.12,32.32,33.69,73.81,61.58,118.6"/>
        <path d="M484.69,1216.33c27.28,40.23,46.45,42.2,41.92,53.52"/>
        <path d="M452.15,1347.63c-54.85,19.43-43.68,1.19-74-28.5"/>
        <path d="M271,1162.4c18.23,34.71,41.36,70.18,68.14,106.22"/>
        <path d="M604,1272.1c-22.35,80.39-77,120-142.8,132.15"/>
        <path d="M557.53,1643.2c-1.73,53.12-20.92,39.44-20.92,64.88,0,140.51-15.89,284-29.14,408.42-2.6,24.39,22,49.4-13.62,80.46-12.49,10.9,24,34.14-4.33,81.71-11.6,19.47-9.44,51.87-16.3,107.55"/>
        <path d="M269.82,2283.57c-7.53,60.06-2.84,156.61-2.51,221.06"/>
        <path d="M223.92,2559c13.09-22.15,29.68-35.35,34.25-48.13"/>
        <path d="M410.3,2785c-10-25.45-10.89-56.62-20.52-60.17"/>
        <path d="M206.88,2668.91a40.69,40.69,0,0,1,20.85,4.6"/>
        <path d="M207.65,2648.62a33,33,0,0,1,20.89,6.23"/>
        <path d="M209,2629a39.36,39.36,0,0,1,21.65,5.56"/>
        <path d="M211.64,2606.43a48.43,48.43,0,0,1,22.4,5.17"/>
        <path d="M216.14,2583.18a43.36,43.36,0,0,1,23.51,6.18"/>
        <path d="M422,2805.51a52,52,0,0,1,16.29-10"/>
        <path d="M435,2822q8.15-5.94,17.3-11.37"/>
        <path d="M448.12,2835.37a76.75,76.75,0,0,1,19.15-12.43"/>
        <path d="M462.08,2847.6a77.69,77.69,0,0,1,19.13-13.6"/>
        <path d="M477.85,2859.61c3.71-6.05,9.78-10.85,17.66-14.71"/>
    </g>
    <g class="clothesFoldLine">
        <path d="M469.81,575.23c-19.14,2.37-41,1.28-52.56-12.18"/>
        <path d="M453.79,616.9c-15.93,14.25-35.62,21.35-62.18,15.38"/>
        <path d="M569.75,676.45c-43-21.79-65.54,2.76-59.62-6.41,19.88-30.77,82.06-21.79,116,22.44"/>
        <path d="M614,789.28c-29.48,53.84-63.46,57.05-61.1,63.74,17.17,5.72,50.85-15,75.85-38.74"/>
        <path d="M450.52,827.74C437.06,860.43,439,936.07,448,947"/>
        <path d="M511.32,900.74c9.73,21.42,31.51,39.82,46.25,60.34"/>
        <path d="M514,943.77c8.16,25.94,28,50.66,51.28,75"/>
        <path d="M299.87,986.72c43.6-18,76.3,42.34,91.76,42-29.11,11.74-80.86,4.15-115.47-20.85"/>
        <path d="M278.72,981c17.15,17.26,39,27.8,64.75,32.69"/>
        <path d="M384.41,1051.18c-22.25,11-48.2,16.47-78.77,15"/>
        <path d="M261.41,1238c26.39,17.78,46.53,34.48,3.85,40.39"/>
        <path d="M244.84,1280.08c5.12,7.06,29.76,22.9,45.14,23.31"/>
        <path d="M293.46,1234.8c10,15.83,23,28.68,40.43,37.3"/>
        <path d="M512.7,1435.44q32.73,22.77,65.47,31.38"/>
        <path d="M604,1216.33A208.65,208.65,0,0,0,653.78,1238"/>
        <path d="M537.7,1198.9c21,17.9,43.39,30.35,67.31,36.54"/>
        <path d="M440.9,1086.08c-1.61,5.18,16.52,73.63,18.91,70.19"/>
        <path d="M455,1037.36c5.23,35.35,15.47,66.39,29.68,94"/>
        <path d="M491,1623c21.34,21.37,45.29,43.39,37.53,57.4"/>
        <path d="M453.51,1642.16c50.78,35.32,102.29,72.85,7.36,47.83"/>
        <path d="M512.38,1744.45c-33.11,11.77-88.3,12.5-126.56,44.88"/>
        <path d="M489.72,2154.37c-19.92,29.57-61,10.94-111.85-30.17"/>
        <path d="M314.71,2152.2c68.94,13.72,96.71,23.84,2.21,31.64"/>
        <path d="M328.72,2239c92.17-32.32,129.83-21,38.85,80.94"/>
        <path d="M481.63,2272.1c-14.7-28.38-21.81,1.54-26.49,50"/>
        <path d="M516.9,2019.64c31.15,31.62,65.36,53.47,103.8,61.88"/>
        <path d="M520.63,2074.16c43.44,19.21,76.14,38.12,72.11,54.45-1.73,7-37.13-3.33-58.87-21.34"/>
        <path d="M520.63,2145.54c39,25.75,67.36,12.6,70.64,23.54,2.21,7.36-15.45,14.72-32.38,14.72"/>
        <path d="M507.38,2219.12c53.72-19.87,109.22-27.49,49.3,14.72"/>
        <path d="M430.38,2642.23c-35.32,37.53-137.68,9.57-145.77-56.66"/>
        <path d="M263.5,2643.93c10.07,7.13,29,12.31,28.47,23.32"/>
        <path d="M295.65,2697.42c39.73-2.21,81.6-11.56,86.09-1.47,4.58,10.3-4.05,13.85-39.66,11.77"/>
        <path d="M263.5,2704.17c11.06,11.59,38.47,17.4,60.81,16.8"/>
        <path d="M248.52,2399.4c6.23,15.75,10.67,25.55,17.7,33.25"/>
        <path d="M199.15,2379.33c2.24,16.06,48.29,59.57.77,29.3"/>
        <path d="M159.08,2418.45c25.87,33.35,49.74,44.8,80.29,62"/>
        <path d="M267.34,2482.55c-9.17-13.24-35.61-24.07-36.56-44.12"/>
    </g>
    <g class="head50__edited">
        <path class="lipMaleMedium__noStroke" d="M864.67,584.63c7.16-.9,12-3.9,12.73-11.69-12.54,6.83-27.33.69-45,6.23,9.93,8,13.49,23,27.48,29.17C877.35,604.17,864.67,584.63,864.67,584.63Z"/>
        <path class="lipBorderLine" d="M864.67,584.63c-6.32-.86-4-5.37-32.32-5.46"/>
        <path class="lipEdgeLine" d="M846.44,596.18a24.17,24.17,0,0,0,13.39,12.16"/>
        <path class="cheekLine" d="M826,589.91c6.59-7.91,8.55-18.84,15-28.41,4-5.94,10.69-8.1,14.43-15.46"/>
        <path class="noseLine" d="M893.07,540.44c-16.16-1.17-20,3.1-26.25,0-9.76-4.76-8.26-16.11-.2-23.26"/>
        <g class="eyeLidLine">
            <path d="M887.18,422.1c12.73,1.52,12.06-9.62,12.06-9.62"/>
            <path d="M883.73,436.39c8.55,2.4,7.7,11.6-2.87,14.51"/>
        </g>
        <path class="eyeCornerLine" d="M857.48,422.85a62.38,62.38,0,0,1-14.41-.64"/>
        <path class="eyeCreaseLine" d="M859.34,412.59c10.41.25,25.28-.72,39.9-.11"/>
        <path class="eyebrowBlack" d="M917.68,382.08c-28.29,25.7-36.76-18.33-81.72-2.43C873.71,347.38,889,382.3,917.68,382.08Z"/>
        <path class="hairBlack" d="M916.42,240.62c-9.12,51.68,15.39,102.93,63.72,122.78-31-45.92,32.21-97.2-31.2-154,8,1.8,19.23,4.94,34.83,5.29C940.05,183.6,925.67,140,871.6,106c-32.68-20.58-54.26-18.6-78.67-19.53C756.78,46,687.48,39.05,639.66,46.4c6.62-21,31.91-37,55.75-45.32C662-.49,633.57,20.94,617.2,48.16c-13.54-24.26-38.51-33.86-60.85-18,23.46-5.58,35.5,4.46,43.32,22.92-123.08,57.62-198.26,266.26-77.14,401.07,16.82-2.46,40.8-9.62,58.89-19.79-21.64-33.43-37.39-61.47-15.92-95,21.74-34,83.73-21.79,78.72,23,17.68,7.54,38.3,11,60.61,15.66,10.78-40,3.32-28.61,46.4-55.12,32.3-1.69,94.68,14,123.81-45-4.55,12.23-4.54,23-4.23,34.23C883.7,284.63,905.94,278,916.42,240.62Z"/>
        <path class="hairOverlapLine" d="M751.23,322.91c-12-.24-32.28,2-42.29,2.43,15.67-5.78,32-13.86,40.85-18.07"/>
    </g>
    <g class="walkman">
        <path class="headphoneEarpad" d="M604.85,440.9c-67.49-22.8-33.29-124,34.2-101.25S672.35,463.7,604.85,440.9Z"/>
        <path class="walkmanLight" d="M664.26,255.87a695.82,695.82,0,0,0-41.78,109.84,24.09,24.09,0,0,0-13.11,46.18c12.43,4.73,27.55-1,32-17,12.52-44.93,28.13-84.7,48.29-128Z"/>
        <path class="headphoneBand" d="M786.17,79.58C760.11,97.93,691.88,205.49,668.93,257.9L685.29,265C711,212.49,774,107.61,802,86.68Z"/>
    </g>
</svg>
