<svg viewBox="0 0 153.21 456.74">
  <g class="soleWhite">
    <path d="M85.81,442c7.54.88,14.23,2.48,12.63,12.18-10,4.15-20.54,1.42-31.47,1.13-10.46-.27-26.46,1.14-29.95-3.1a11.32,11.32,0,0,1,.6-6.94Z"/>
    <path d="M36.75,421.1c3.15,6.48,3.68,12.2-2.93,15.87-10-5.28-16.1-20.79-21.67-27.51C6.21,402.3-.2,393.06.27,391.37a21.63,21.63,0,0,1,4.83-4.14Z"/>
  </g>
  <g class="bennettShoe">
    <path d="M64.38,412.79c-.41,7.57.26,14.86,5.39,19.16,5.44,4.55,11.4,9.18,16,10.08a12.64,12.64,0,0,0-1.56,8.52c-15.33-2-38.54.57-46.63-5.25.7-7.53,5.26-17,6.11-28.54C49.51,411.21,59.27,412.08,64.38,412.79Z"/>
    <path d="M44.15,385.25c-3.92,5.12-7.16,10.54-8.1,16.61-.86,5.62-1.71,12.14.7,19.24a14.2,14.2,0,0,0-7.95,2.56c-6.81-8.8-10.65-16.88-16.45-23.08C8.67,396.65,5,389.36,5.1,387.23c3.24-3.65,16.76-8,24.71-14.28Z"/>
  </g>
  <g class="shoelace">
    <path d="M34.59,393.19c-2.21,5.35-2.62,12.59-2.68,20.31a10.8,10.8,0,0,1,3.4.78,50.19,50.19,0,0,1,.74-12.42,27.71,27.71,0,0,1,2.29-7.36A6.16,6.16,0,0,0,34.59,393.19Z"/>
    <path d="M76,441.06a7.12,7.12,0,0,1,2.67-2.3A95.16,95.16,0,0,1,69.77,432,13.44,13.44,0,0,1,66,426.64,9.14,9.14,0,0,0,63.3,428C65.45,432.85,70.3,437.42,76,441.06Z"/>
  </g>
  <circle class="converseLogo" cx="21" cy="393.02" r="5.75"/>
  <path class="bennettJeans" d="M87.72,228.83c4,6.53,1.56,8.86.6,13.45.13,4.72-.83,7.72-2.34,9.85,9.08,28,22.44,67.85,20,75.81-3.79,12.4-17.51,21.64-33,38.64-1.48,13.84-2.79,28.41-4.2,36.08-.35,2.45,2.65,7-2.35,11.57.76,2.66-.17,4.21-2.09,4.51-.43-4.55-3.45-4.33-4.21,0-3.93,1.85-13.12,4.14-17.32,4-.86-2.32-4-5.19-2.14-7.16-1.09-2.91-3.22-6.58,0-9.28-3.57-3,1.43-10.47.59-21.46-2.17,3.32-10-2.95-18.83-7.23,1.79-2.12-.12-6.14,2.16-6-1.61-4.89,4.39-4.16,6.17-6-.77-5.65,6-9.56,10.89-14.75.2-6.14.68-7.61,2.09-11.77-4.12-3.28,2.59-5.18-.1-8.75-2.12-2.82-1.23-6.44-1.75-13.05S35,288.27,30.66,254.08C18.54,198.2,50.63,210.07,87.72,228.83Z"/>
  <path class="bennettJacket" d="M63.05,108.36a120.47,120.47,0,0,0-10.67,20.71C42.13,139.39,31.86,150.4,31.46,156.9c-.17,2.74,2.61,7.9,6.11,13.49,0,0-1.51,15.15.75,18.24,1.65,3.83-2.24,4.4-.51,7.57.16,3.81-3,7-2.59,12.37,17.69,2.87,31.21,17.83,52.5,20.26A6.28,6.28,0,0,0,89.16,225c12.8-11.22,11.2-21,11.36-31.35.14-9.49,3.35-8.62,2.44-15.39-.48-3.59,2.59-7.72,3-11.51.47-4.16-1-8.13.58-12.22,3.2-8.37,2.24-33.39-.29-47.18C89.44,89.36,74.81,88,63.05,108.36Z"/>
  <g class="bag">
    <path class="bagStrapDark" d="M38.32,188.63,34,196.41l-10.62-2.06,14.15-24a45.16,45.16,0,0,0,4.26,7.68C40.51,185,36.89,184.84,38.32,188.63Z"/>
    <g class="bagStrapLight">
      <path d="M74.76,186.38c20.71-21.81,34.68-45,33.23-67.72,1.27,17-18.51,40.47-39.2,60.55,1.4,2.17,2.5,4,3.18,5.37C72.94,184.59,73.85,185.41,74.76,186.38Z"/>
      <path d="M58.35,202.21c-5.29,4.73-10.81,9.36-16.46,13.87-2.74-1.71-6.65-2.58-11.5-2.77,5.22-4.47,13.13-11.06,21.94-18.88A62.82,62.82,0,0,0,58.35,202.21Z"/>
    </g>
    <path class="bagDark" d="M30.39,213.31,10.71,274.44c-1.87-.83-3.37-5.06-4.14-8.65C13.47,236.86,20.48,209.2,30.39,213.31Z"/>
    <path class="bagLight" d="M30.39,213.31C24.2,212.72,17.23,239.54,11,260c-1.68,5.57-3.92,8-5.4,4.25C3.89,259.9,4,256.05,2.16,250.56c-1.34-4.08.23-9,2.08-13,5.4-11.81,8.15-26.35,13.64-38.57,3.2-7.11,12.2-5,16.16-2.54,1.54,1,4.35,6.15,4.94,9.6Z"/>
    <path class="bagMedium" d="M10,269.94c-.91,2.83-.84,4.37,2.54,5.19,3,.73,6.16,1,9.46,1.61,2.54.44,4.53.06,5.53-2.88a395.91,395.91,0,0,0,14.35-57.78c-2.74-1.71-6.65-2.58-11.5-2.77C25,224.25,14.28,256.55,10,269.94Z"/>
  </g>
  <g class="eye">
    <circle class="sclera" cx="133.45" cy="64.15" r="5.74"/>
    <path class="irisDarkBrown" d="M134.5,68.36c.38.11,1.68-1.14,2.2-3s.05-3.59-.32-3.69A19.67,19.67,0,0,0,134.5,68.36Z"/>
    <path class="pupil" d="M135.89,66.55c.3.08.61-.45.81-1.17s.22-1.34-.08-1.42A10.5,10.5,0,0,0,135.89,66.55Z"/>
  </g>
  <g class="skinEastAsian">
    <path d="M85.3,199.53c0,3.49-9.34,9.93-12.93,10.43a28.07,28.07,0,0,0,.94,4.91,26.15,26.15,0,0,0,16.74-12.35A17.87,17.87,0,0,0,85.3,199.53Z"/>
    <path d="M80.91,59.41c5.22,9.83,4.42,15.1-.33,22.47l24.07,19.87c1.2-9.51,8.34-9.3,19.66-15Z"/>
    <path d="M99,72c-4.22,1.74-5.08-1.94-7.2-5.13-33-25,33.13-67.41,54.3-31.44-2.55,10.47-.14,21.22-5.78,28.9-2.94,4-.5,8.2.52,15,.54,3.59-1.8,4.5-6.86,2.53-1,1.46-1.66,3-1.05,4.48-.12,1.2-.86,1.66-2,1.8,0,0,2,3-.75,3.65-5.87,1.66-2.93,9.68-11.95,8.55-2.42-.3-6-3.7-10.88-7.82a27,27,0,0,1-8.48-12.25m38-16.24a21.17,21.17,0,0,0-4.58.11,18.36,18.36,0,0,0,4,2.09A4.19,4.19,0,0,0,136.91,64Z"/>
  </g>
  <path class="skinFoldLine" d="M99.56,57.83c-.72-11.5-15.75-5.7-7.27,5.94"/>
  <path class="bennettHoodieInner" d="M75.16,84.21c2.39-1.49,4.93-5.59,7.17-3.88,12.06,9.16,24.68,17.41,23.94,27Z"/>
  <g class="bennettHoodie">
    <path d="M87.72,228.83C71.27,227,59.46,217.6,46.78,212.11q-2.43,2-4.89,4c-.18,1.09-.39,2.29-.62,3.6,17.07,4,37.78,12.59,47.34,10.82C88.9,229.93,88.7,229.38,87.72,228.83Z"/>
    <path d="M81.21,194.62c-.58,5.13-6.08,9.61-11.47,12C71,208,70.6,210,71.87,210c3.82,0,15.44-8.41,13-11.72C84.05,197.11,83.23,197.7,81.21,194.62Z"/>
    <path d="M106.72,110c-3.13-5.39-7.93-7-13.72-10.9-10-6.76-19.58-.56-28,9.34-3.24,3.81-6.27,3.31-6.75-2.14C57,91.87,60.64,93.61,60.53,91.55c-.45-8.45,3-6.32,4.17-8.9,1.35-2.92,5.06-6.3,11.48.45C84,91.3,106.62,97.27,106.72,110Z"/>
  </g>
  <g class="clothesDisplayLine">
    <path d="M79.93,230.18c-4.23,4.13-8.72,5.3-15.59,2.24"/>
    <path d="M28.8,423.66c2,4.1,5.49,8.23,8.82,10"/>
    <path d="M84.25,450.55a30,30,0,0,0,14-1.94"/>
  </g>
  <g class="clothesOverlapLine">
    <path d="M73.52,104.71c-6.43,4.82-9.41,10.81-13.47,15.69-2.73,3.29-5.58,5.25-7.67,8.67"/>
    <path d="M85.26,130.41c-6.06,5.07-8.79,12.87-13.84,14.83-.25,3.34-3.63,5-5.44,7s-2.93,4.45-5.56,5.19c.21,1.38.08,2.63-1.11,3.46,3.56,5,5.19,11.37,9.48,18.27"/>
    <path d="M74.76,186.38c4.2,6.19,7.15,6.5,6.45,8.24"/>
    <path d="M69.74,206.6c-8.45,3-6.72.18-11.39-4.39"/>
    <path d="M41.83,178.07a125.65,125.65,0,0,0,10.5,16.36"/>
    <path d="M93.14,195c-3.45,12.38-11.87,18.47-22,20.35"/>
    <path d="M86,252.13c-.27,8.18-3.23,6.07-3.23,10,0,21.65-2.44,43.75-4.49,62.91-.4,3.76,3.39,7.61-2.09,12.4-1.93,1.68,3.69,5.26-.67,12.58-1.79,3-1.45,8-2.51,16.57"/>
    <path d="M41.66,350.77c-1.16,9.25-.44,24.12-.39,34.05"/>
    <path d="M34.59,393.19c2-3.41,4.57-5.45,5.27-7.42"/>
    <path d="M63.3,428c-1.54-3.91-1.68-8.72-3.16-9.26"/>
    <path d="M32,410.13a6.33,6.33,0,0,1,3.22.7"/>
    <path d="M32.08,407a5.09,5.09,0,0,1,3.22,1"/>
    <path d="M32.29,404a6.07,6.07,0,0,1,3.34.86"/>
    <path d="M32.7,400.5a7.51,7.51,0,0,1,3.45.8"/>
    <path d="M33.39,396.92a6.67,6.67,0,0,1,3.62.95"/>
    <path d="M65.1,431.17a7.82,7.82,0,0,1,2.51-1.54"/>
    <path d="M67.11,433.7c.83-.61,1.72-1.19,2.66-1.75"/>
    <path d="M69.12,435.77a11.78,11.78,0,0,1,2.95-1.92"/>
    <path d="M71.27,437.65a12,12,0,0,1,3-2.09"/>
    <path d="M73.7,439.5a6.41,6.41,0,0,1,2.72-2.27"/>
  </g>
  <g class="clothesFoldLine">
    <path d="M72.46,87.62c-2.95.37-6.32.2-8.09-1.87"/>
    <path d="M70,94a10.1,10.1,0,0,1-9.58,2.37"/>
    <path d="M87.86,103.22c-6.62-3.36-10.1.42-9.18-1,3.06-4.74,12.63-3.36,17.87,3.45"/>
    <path d="M94.67,120.59c-4.54,8.3-9.77,8.79-9.41,9.82,2.64.88,7.83-2.31,11.68-6"/>
    <path d="M69.49,126.52c-2.07,5-1.78,16.69-.39,18.37"/>
    <path d="M78.86,137.76c1.5,3.3,4.85,6.14,7.12,9.3"/>
    <path d="M79.27,144.39c1.25,4,4.3,7.8,7.9,11.55"/>
    <path d="M46.29,151c6.71-2.77,11.75,6.52,14.13,6.47-4.48,1.81-12.45.64-17.79-3.21"/>
    <path d="M43,150.12a18.46,18.46,0,0,0,10,5"/>
    <path d="M59.31,160.94a24.37,24.37,0,0,1-12.13,2.31"/>
    <path d="M40.36,189.71c4.07,2.74,7.17,5.31.6,6.23"/>
    <path d="M37.81,196.2c.79,1.08,4.58,3.52,6.95,3.59"/>
    <path d="M45.3,189.22A15.25,15.25,0,0,0,51.53,195"/>
    <path d="M79.07,220.13A31.77,31.77,0,0,0,89.16,225"/>
    <path d="M93.14,186.38a32.06,32.06,0,0,0,7.66,3.33"/>
    <path d="M82.92,183.69a26.09,26.09,0,0,0,10.37,5.63"/>
    <path d="M68,166.31c-.25.8,2.55,11.34,2.91,10.81"/>
    <path d="M70.18,158.81a46.17,46.17,0,0,0,4.58,14.48"/>
    <path d="M75.73,249c3.29,3.29,7,6.69,5.78,8.84"/>
    <path d="M70,252c7.82,5.44,15.76,11.22,1.14,7.37"/>
    <path d="M79,267.73c-5.1,1.81-13.6,1.92-19.49,6.91"/>
    <path d="M75.53,330.87c-3.07,4.55-9.39,1.68-17.23-4.65"/>
    <path d="M48.57,330.53c10.62,2.12,14.9,3.68.34,4.88"/>
    <path d="M50.73,343.9c14.2-5,20-3.23,6,12.47"/>
    <path d="M74.28,349c-2.26-4.37-3.35.24-4.08,7.71"/>
    <path d="M79.72,310.11c4.8,4.88,10.07,8.24,16,9.54"/>
    <path d="M80.29,318.51c6.69,3,11.73,5.88,11.11,8.39-.27,1.08-5.72-.51-9.07-3.29"/>
    <path d="M80.29,329.51c6,4,10.38,1.94,10.88,3.62.34,1.14-2.38,2.27-5,2.27"/>
    <path d="M78.25,340.84c8.28-3.06,16.82-4.23,7.6,2.27"/>
    <path d="M66.39,406c-5.44,5.78-21.21,1.47-22.45-8.73"/>
    <path d="M40.68,406.28c1.56,1.1,4.47,1.9,4.39,3.59"/>
    <path d="M45.64,414.52c6.12-.34,12.57-1.78,13.26-.23s-.63,2.13-6.11,1.81"/>
    <path d="M40.68,415.56c1.71,1.78,5.93,2.68,9.37,2.58"/>
    <path d="M38.38,368.61a16,16,0,0,0,2.72,5.12"/>
    <path d="M30.77,365.52c.35,2.47,7.44,9.18.12,4.51"/>
    <path d="M24.6,371.55c4,5.13,7.66,6.9,12.37,9.54"/>
    <path d="M41.28,381.42c-1.42-2-5.49-3.71-5.64-6.8"/>
  </g>
  <path class="lipMaleMedium__noStroke" d="M131,88.15c1.1-.14,1.84-.6,2-1.8-1.93,1.05-4.21.1-6.94,1,1.53,1.23,2.07,3.53,4.23,4.49C132.93,91.16,131,88.15,131,88.15Z"/>
  <path class="lipBorderLine" d="M131,88.15c-1-.14-.62-.83-5-.84"/>
  <path class="lipEdgeLine" d="M128.17,89.93a3.7,3.7,0,0,0,2.06,1.87"/>
  <path class="cheekLine" d="M125,89c1-1.22,1.32-2.9,2.32-4.38.62-.91,2.16-1.66,2.74-2.79"/>
  <path class="noseLine" d="M136.27,81.49c-2.48-.18-3.07.48-4,0-1.5-.73-1.27-2.48,0-3.58"/>
  <g class="eyeLidLine">
    <path d="M136.91,64c2,.23,1.86-1.48,1.86-1.48"/>
    <path d="M136.38,66.24c1.31.37,1.18,1.78-.45,2.23"/>
  </g>
  <path class="eyeCornerLine" d="M132.33,64.15a9.12,9.12,0,0,1-2.22-.1"/>
  <path class="eyeCreaseLine" d="M132.62,62.57c1.6,0,3.89-.11,6.15,0"/>
  <path class="eyebrowBlack" d="M141.61,57.87c-4.36,4-5.67-2.82-12.59-.37C134.83,52.53,137.19,57.91,141.61,57.87Z"/>
  <path class="hairBlack" d="M141.41,36.08c-1.4,8,2.37,15.86,9.82,18.91-4.79-7.07,5.88-15.28-3.88-24a23.43,23.43,0,0,0,5.05.66c-6.73-4.79-8.64-10.27-17-15.51-4.39-2.77-5.87-2.55-9.81-2.7-5.56-6.24-16.24-7.31-23.6-6.18,1-3.23,4.91-5.7,8.58-7-5.15-.24-9.52,3.06-12,7.25-2.09-3.73-5.94-5.21-9.38-2.76,3.62-.86,5.47.68,6.68,3.53-19,8.87-31.78,40.86-13.12,61.62a28.74,28.74,0,0,0,9.07-3.05c-3.33-5.15-5.76-9.47-2.45-14.63s12.9-3.36,12.13,3.54a50.49,50.49,0,0,0,9.33,2.41c1.66-6.16,1.13-4.1,7.76-8.18,5-.26,12,.93,16.46-8.17a13.07,13.07,0,0,0-.65,5.27C136.37,42.86,139.8,41.84,141.41,36.08Z"/>
  <path class="hairOverlapLine" d="M118.58,50c-1.85,0-5.28.15-6.82.22,2.42-.89,5.24-2,6.6-2.63"/>
  <g class="walkman">
    <path class="headphoneEarpad" d="M95.42,67.86c-10.4-3.52-5.13-19.11,5.27-15.6S105.82,71.37,95.42,67.86Z"/>
    <path class="walkmanLight" d="M104.57,39.36a107.59,107.59,0,0,0-6.43,16.91,3.71,3.71,0,1,0,2.91,4.5,123.94,123.94,0,0,1,7.44-19.71Z"/>
    <path class="headphoneBand" d="M124.58,12.35c-4,2.83-15.75,19.24-19.29,27.32l2.52,1.09c4-8.09,14.89-24.09,19.21-27.31Z"/>
  </g>
</svg>
