<svg viewBox="0 0 1059.72 2950.02">
  <g class="soleWhite">
    <path d="M422.31,2764.28c13.51,3.89,89.56,13.84,78.7,68.1-20.86,20.18-120.78,37.34-194.59,20.39-31.73-7.29-127.67,2-154.89-28-7.51-14.25-5.26-24.65-3.59-41.44C241.8,2751.24,346.38,2739.29,422.31,2764.28Z"/>
    <path d="M509.64,2843.91c26.51,12.92,62.21,24.24,53.28,75.58-38.83,32.2-132.78,36.34-188.9,20.75-31.37-8.72-117.21-11.28-125.1-23.91-7.51-14.25-9.25-26.65-7.58-43.44C335.2,2840.81,433.71,2818.92,509.64,2843.91Z"/>
  </g>
  <g class="bennettShoe">
    <path d="M298.9,2576.38c-8.26,64,21.36,94.73,42.46,121.28,25.29,31.82,49.62,53.42,80.95,66.62-34.52.61-64.4,24.75-64.4,58.47-33.24-1.72-79.45-10.75-113-11.91-31.42-1.08-86.6-9.45-97-27.51-8.37-38,40.26-118.36,29.63-185.9C206.12,2571.87,260.75,2557.13,298.9,2576.38Z"/>
    <path d="M395.78,2663.08c.61,39.46,3.46,77.82,24.56,104.37,25.29,31.82,58,63.26,89.3,76.46-41.3-10-94.88,16.19-92.09,62-29.08-1.86-62.56-9.82-91-11.31-31.39-1.63-79.65-13.3-85.23-21.67-10.31-55.83,47.88-127.59,45.09-196.24C327.58,2653.24,357.64,2643.82,395.78,2663.08Z"/>
  </g>
  <path class="shoelace" d="M420.34,2767.45c-8.88-11.18-14.52-24.46-18.13-39a164.62,164.62,0,0,0-46.47,4.43c8,34.18,25.2,66.78,55.81,95.45,16-5.26,39.09-8.74,57.05-10.58C451.21,2803.21,434.6,2785.39,420.34,2767.45Z"/>
  <path class="converseLogo" d="M218.89,2773c35.45,4.33,41.73-69,3.64-74.66C186.87,2693.08,180.94,2768.41,218.89,2773Z"/>
  <path class="bennettJeans" d="M54.72,1340.24c-24.1,65.9-74.22,171.71-44.64,285.7C44.7,1759.4,138,2018.09,172.93,2032.32c-40.11,42.7,33.64,38.82,24.58,68.57-37.52,36.23,22,62.11,23.29,337.68-16.86,22.06-22.14,62-32.34,84.09-13.13,28.38-41.77,59.22-14.23,82.81-10.64,15-.08,35.58-.67,58.07,26.75.91,44.19-16.07,69.38-20.94-10.05,35.16,20.25,43.88,21.18,56,4.57,9-5.5,40.77,8.8,49.27,23.31-15.47,56.36-6.29,72.88-38.88,4.72-25.72,48.71-40.77,54.19,9,8-25.6,31-54.15,12.18-79.93,32-59.38.2-103.66,2.09-230.44.64-42.35,6.55-106.39.81-202.38,16.58-40,35.14-95.92,36.21-142.72,2.21-97.28,17.63-173.12,13.37-239.4C408.44,1526.37,260.87,1383.87,54.72,1340.24Z"/>
  <path class="shirtWhite" d="M181.85,1432.56c-41.91-11.59-133.49-63.78-140.5-82.23a45.42,45.42,0,0,1,13.53-29.14c-15.62-38.51,20.7-33,59.32-142.58,11.1-687.8,632.65-714.75,512-265.78C602.33,976.7,584.63,1075.57,542,1191.1Z"/>
  <g class="guitar">
    <path class="guitarSide" d="M908.07,953.53c5.64,16.43,6,41.55-5,52l-375,340.59c-101.77,16.28-52.63-83.77-2.91-184.26-70.16-4.88-115.61,51.53-144.82,124.11-17.19,42.72-54.25,44.49-89.76,49.49-134.52,18.95-156.31,153.88-150.54,205.4,7.43,66.37,61.06,194.69,118.73,268,26,33,63.92,67,112.24,74.82,10.15,1.64,32.8-3.38,43.49-6.54-95.39-140.9,60.64-166.73,126.34-382.1,20.42-66.93,469.72-518.42,387-542.78Z"/>
    <path class="guitarFront" d="M540,1487.11l-7,0-46.62-95.6L534.85,1348l-.48-.15c-47.46-9.68-48.06-87.76.65-132.74,33.63-31.06,15.77-56.18-16.84-53-71.12,6.86-89.18,49.75-121,121.65-19.34,43.67-47.44,45.23-81.1,48C181.31,1343,155.2,1466,182.8,1562.56c22.46,78.6,68.3,186.51,117.53,248.91,42.15,53.42,89.19,78,125,62.39,62.09-27,94.73-91.95,117.19-169.06,10-34.25,31.89-55.16,62.49-60.47,25.47-4.41,53.74-21.55,61-54.94,7.48-34.31-6.68-48-25.57-42.81-27.74,7.65-51.72,9.29-64.69-4.31C553.59,1519,555,1493.61,558.51,1468Z"/>
    <g class="leatherLight">
      <path d="M544.46,1204.87a42.3,42.3,0,0,0,8.28,9.93c24.47,21.42,25.5-56,26-120.58-12.67-2.49-19.06-4-26.06-5.74-8.16,22.4-16,50.19-16.8,75C553.1,1168.53,559.87,1184.72,544.46,1204.87Z"/>
      <path d="M173.81,1630.36c11.74,28.47,19.7,47.54,39,64.61,31.65,28,38.9,57.56,22.34,62.19-22.28,6.24-36.95-16.71-53.74-59.78-5.39-13.82-13.36-40.19-19.53-65.21C165.49,1632,169.15,1631.18,173.81,1630.36Z"/>
    </g>
    <polygon class="fretboard" points="913.17 1006.1 493.22 1391.64 540.5 1486.93 942.46 1065.13 913.17 1006.1"/>
    <polygon class="headstockSide" points="1056.04 872.27 1036.36 872.91 908.07 953.53 927.91 952.17 1056.04 872.27"/>
    <path class="headstockFront" d="M1056,872.27c-2.13,18.06-2.86,30.87-1.5,48.29a12.26,12.26,0,0,1-2.61,8.48c-28.13,35.89-36.32,49.37-50.81,94.27a12.29,12.29,0,0,1-11,8.47c-8.9.54-40,29.78-47.66,33.35l-29.29-59c21.2-18.57,18-31.25,14.74-53.92Z"/>
    <g class="metalDark">
      <path d="M383.07,1801c-7.45.24-13.76-8-14.1-18.43s5.41-19.07,12.85-19.32l20.13-.66,1.25,37.74Z"/>
      <path d="M430.17,1726c-7.44.25-13.76-8-14.1-18.43s5.41-19.06,12.86-19.31l20.13-.66,1.24,37.74Z"/>
      <path d="M951.78,971.15c-3.55.18-6.64-3.7-6.89-8.67s2.42-9.15,6-9.34l9.6-.49.92,18Z"/>
      <path d="M969.07,960.34c-3.55.18-6.63-3.71-6.89-8.68s2.42-9.15,6-9.33l9.6-.49.92,18Z"/>
      <path d="M986.51,949.52c-3.56.18-6.64-3.7-6.89-8.68s2.41-9.15,6-9.33l9.6-.49.92,18Z"/>
      <path d="M1003.8,938.7c-3.55.18-6.63-3.7-6.89-8.67s2.42-9.15,6-9.33l9.61-.49.92,18Z"/>
      <path d="M1021.23,927.89c-3.55.18-6.63-3.71-6.89-8.68s2.42-9.15,6-9.33l9.61-.49.92,18Z"/>
      <path d="M1038.67,917.07c-3.56.18-6.64-3.7-6.9-8.68s2.42-9.15,6-9.33l9.6-.49.92,18Z"/>
      <path d="M227.89,1739.24c1.91-4-3-12.68-7.58-12.49l-14.39-.16c-12.15,3,9.05,36,15.75,25.17Z"/>
    </g>
    <g class="metalLight">
      <ellipse cx="402.58" cy="1781.43" rx="13.49" ry="18.88" transform="translate(-58.52 14.24) rotate(-1.89)"/>
      <ellipse cx="449.68" cy="1706.5" rx="13.49" ry="18.88" transform="matrix(1, -0.03, 0.03, 1, -56.03, 15.76)"/>
      <ellipse cx="960.92" cy="961.66" rx="6.44" ry="9.02" transform="translate(-47.76 50.23) rotate(-2.92)"/>
      <ellipse cx="978.22" cy="950.84" rx="6.44" ry="9.02" transform="translate(-47.19 51.09) rotate(-2.92)"/>
      <ellipse cx="995.65" cy="940.02" rx="6.44" ry="9.02" transform="translate(-46.62 51.97) rotate(-2.92)"/>
      <ellipse cx="1012.95" cy="929.21" rx="6.44" ry="9.02" transform="translate(-46.04 52.84) rotate(-2.92)"/>
      <ellipse cx="1030.38" cy="918.39" rx="6.44" ry="9.02" transform="translate(-45.47 53.71) rotate(-2.92)"/>
      <ellipse cx="1048.18" cy="908.28" rx="6.44" ry="9.02" transform="translate(-33.11 39.68) rotate(-2.14)"/>
    </g>
    <polygon class="humbuckerSide" points="392.77 1468.89 347.78 1513.57 404.28 1627.43 416.28 1627.43 404.77 1468.89 392.77 1468.89"/>
    <polygon class="humbuckerFront" points="359.78 1513.57 404.77 1468.89 461.28 1582.76 416.28 1627.43 359.78 1513.57"/>
    <g class="bridgeNutDark">
      <polygon points="318.48 1542.66 303.17 1557.85 359.56 1671.84 371.56 1671.84 330.48 1542.66 318.48 1542.66"/>
      <polygon points="921.12 998.25 913.17 1006.14 942.47 1065.38 948.71 1065.38 927.36 998.25 921.12 998.25"/>
    </g>
    <g class="bridgeNutLight">
      <polygon points="330.48 1542.66 315.17 1557.85 371.56 1671.84 386.98 1656.53 330.48 1542.66"/>
      <polygon points="927.36 998.25 919.41 1006.14 948.71 1065.38 956.73 1057.43 927.36 998.25"/>
    </g>
    <g class="tuningKey">
      <path d="M993.48,887.8c2.06-.22,6-1.72,10.38-3.75l3.67,7,7-4.4L1011,880.4c4.72-2.61,8.89-5.38,10.5-7.33,0-5.19-4.94-16.08-9.11-18.94-5.33.23-25,11.33-27.85,15.23C984.61,875.51,989.41,885.61,993.48,887.8Z"/>
      <path d="M985.56,894.53a2.32,2.32,0,0,0,1,.15l3.76,7.17,7-4.4-3.52-6.27a3.59,3.59,0,0,0,.83-1.19c0-5.18-4.94-16.07-9.11-18.94-2.26-.33-8.4,3-8.86,5C976.7,882.24,981.49,892.35,985.56,894.53Z"/>
      <path d="M959.05,909.29c2.06-.22,6-1.72,10.38-3.75l3.72,7.1,7-4.41-3.56-6.34c4.71-2.61,8.89-5.38,10.5-7.34,0-5.18-4.94-16.07-9.11-18.94-5.33.24-25,11.34-27.85,15.24C950.18,897,955,907.1,959.05,909.29Z"/>
      <path d="M945.48,918.69c1.53.11,4.06-.45,7.68-2l3.32,6.44,7-4.39-3.05-5.66c3.46-2,5.51-3.56,6.58-5.2,0-5.18-4.94-16.07-9.11-18.93-4.8-.54-19.2,6.93-21.29,11.31C936.62,906.4,941.41,916.5,945.48,918.69Z"/>
      <path d="M927.94,929.67c1.53.11,4.79-.92,8.41-2.48l3.42,6.42,7-4.4-3.19-5.64c3.47-2,6.4-4.08,7.47-5.72,0-5.18-4.94-16.07-9.11-18.93-4.8-.54-20.82,7.92-22.92,12.31C919.08,917.38,923.87,927.48,927.94,929.67Z"/>
      <path d="M912.68,939.19c1.53.12,3.17.11,6.79-1.45l3.44,6.47,7-4.41-3.21-5.68c3.47-2,4.42-3.25,5.49-4.88,0-5.18-4.94-16.07-9.11-18.94-4.8-.53-17.22,6.07-19.32,10.46C903.81,926.91,908.61,937,912.68,939.19Z"/>
    </g>
  </g>
  <path class="bennettSleeves" d="M418.93,658.49C457,700.52,559.41,719,593.46,690c2.82,46.44,29.2,63.73,29.2,104.67,0,38.22,21.84,18.19,3.52,118.16C697.26,761,672.93,720.26,592.79,644.28l-205.1-86.39c-86.81,35.72-168.23,13.6-229.93,84.85-31.18,36-43.68,178.41-79.4,296.93-6.11,29.68-25.18,54.48-4.85,75.15-.35,21.85-26.95,35.63,1.21,54.54A180.26,180.26,0,0,0,82,1128.74c-11.32,27.65,12.09,34.39,38.79,89.69,9.49,19.17,144-47.49,134.53-66.66-25.67-32.31-1.11-46-32.42-51.27,10.2-10.9,6.65-19.62-5.55-27,6.43-6.12,4.66-13.48-.79-21.4,8.54-24.57,15.29-55.93,14.91-86.43,15.08-6.79,18.34-21.75,15.46-40.94,7.32-4.71,6.64-27.23,14.56-56.41,7-25.8,20.92-40,25.47-84.61,10.72-5.25,16.95-20.94,20.93-41.85C342.66,727,380.48,694.51,418.93,658.49Z"/>
  <g class="clothesDisplayLine">
    <path d="M417.55,2905.87c61,6.7,128.27-8.73,142.67-23.23"/>
    <path d="M458.54,2808.89c13.23-4.27,24.54-9.39,32.1-15.18"/>
  </g>
  <g class="clothesOverlapLine">
    <path d="M370.38,1881.87c24,148.37,56.6,152.66,44.69,323.37"/>
    <path d="M220.8,2438.57c-5.65,197.13,43.24,139.67,22.14,204"/>
    <path d="M345.8,2709c9.94,5.74,5.91,19.21,9.94,23.87"/>
    <path d="M360.42,2749.44a223.58,223.58,0,0,1,47.71-2.91"/>
    <path d="M368.28,2769.3c15.13-2.94,36.48-3.65,52.06-1.85"/>
    <path d="M377.83,2787.14c15.51-3.16,38-4.52,55.32-4.36"/>
    <path d="M387.11,2800.94c15.18-4.36,37.9-6.66,55.92-7.23"/>
    <path d="M398.86,2815.33c13.48-5.62,36.18-8.83,54.87-10.53"/>
  </g>
  <g class="clothesFoldLine">
    <path d="M128.35,1373.57c8.23,4,16.51,8.07,24.56,12.51"/>
    <path d="M54.88,1321.19c7.11,11.5,17,20.5,28.48,28.23"/>
    <path d="M125.87,1293.39c27.33,27,72.54,48.72,111.51,57.75"/>
    <path d="M152.91,1343.6c17,8.76,43.17,18.72,61,21.45"/>
    <path d="M237.38,1121.45c-18.92-16.13-69.19,1-101.88,30.76"/>
    <path d="M222.89,1100.5c-13.34-32.47-122.47,10.4-115.21,35.35C108,1136.81,196.57,1090.89,222.89,1100.5Z"/>
    <path d="M95.36,1069.22c81.47,4.42,15.38,23.37-13.37,59.52"/>
    <path d="M73.51,1014.82C83.68,1029.75,116,1037.31,88.1,1050"/>
    <path d="M80.93,989.67c19,31.15,115.48,33.29,135.62,62.47"/>
    <path d="M217.34,1073.54c-27.05-20.33-63.56-27.69-61.66-17.58C157.08,1063.43,190.73,1063.22,217.34,1073.54Z"/>
    <path d="M185,858.7c22.61,21.87,37.82,58.1,46.5,107"/>
    <path d="M171.23,795.33c25.35,59.68,60.87,86.74,75.69,129.44"/>
    <path d="M148,705c15.84,37,60.2,66,70.76,109.32"/>
    <path d="M194.47,657c11.87,27.5,32.73,55.73,60.2,84.49"/>
    <path d="M258.36,623.71c25.42,44.06,42.38,93.07,28.59,160-4.93-30.13-22.2-58-43.9-85"/>
    <path d="M303.78,663.84c6.13,25.37,9.77,51.07,4.1,78.06"/>
    <path d="M357.64,740.41c-20.63,21.5-43.3,38.1-70.69,43.34"/>
    <path d="M402,715.07c-16.9,36.43-60.83,75-117.22,84.4,14.08,7.15,35.72,4.39,58.61,0"/>
    <path d="M402,803.86c-44.42,14.56-85.35,20-120.54,10.49"/>
    <path d="M242.49,1125.49c64.46,81.74,163.74,103.92,74.49,93"/>
    <path d="M318,1161.79c33.53,28.07,67.59,47,102.47,51.77"/>
    <path d="M254.67,1036.14q75.41,54.38,166.87,79.74"/>
    <path d="M328.07,1049.34c72.22,41.89,141,53.47,206.48,35.91"/>
    <path d="M546.21,1108c-23,9.82-47.61,13.51-73.45,12.66"/>
    <path d="M368.73,865c40.39,22.8,88.29,36.9,141,45.42"/>
    <path d="M474.88,887.75c35.09,9.84,71.8,11.91,109.66,8.46"/>
    <path d="M533.49,840.75c16.73,3.44,34.63,4.21,53.55,2.65"/>
    <path d="M644.39,768.93c10-19,10.56,21.65-11.85,67.8"/>
    <path d="M172.93,2032.32c17.48,8.54,37.38,15,58.27,20.72"/>
    <path d="M290.86,2114.23c-43.59,20.65-100.87,30-93.35-13.34"/>
    <path d="M356.63,2130.29c-50.17,7.82-89.95,36.12-116.25,91"/>
    <path d="M186,2079.2c18.29,8.35,40.08,7.7,62.28,6"/>
    <path d="M405.49,2613.65c-15.48,41.83-136-3.82-150.58-68.83"/>
    <path d="M412.17,2638.06c-57.83,44.42-142-31.31-142,26.07,0,19.12,38.2,10.89,74.19-4.59"/>
    <path d="M174.23,2605.47c22.56,12,49.33-4.06,72.77,3.67"/>
    <path d="M203.67,2552.47c6.79,11.91,16.86,22.06,30.63,30.23"/>
    <path d="M290.1,2716.9c9.84-8.88,31.35-7.65,52.77-13"/>
  </g>
  <path class="strapDark" d="M578.77,1094.22l-26.06-5.74c14.54-46.68,22.73-78.71,28.44-110.27C580.2,1020.92,577.82,1059.49,578.77,1094.22Z"/>
  <g class="strapLight">
    <path d="M584.05,624.29c12.17,12.29,20.72,24.13,29.72,38.92,15.54,33.41-25.09,229.18-33.84,355.53C582.68,876.08,598.77,729.5,584.05,624.29Z"/>
    <path d="M120.09,1217c-19-38.79-36.12-53.27-40.14-68.5-6,89.35-5.51,169.6,12.84,255.13,13,60.74,39.45,141.74,69.1,228.5l11.92-1.81c-17.77-74.43-33.94-144.76-39.63-192.25C128.16,1387.91,123.91,1306.7,120.09,1217Z"/>
  </g>
  <g class="skinEastAsian">
    <path d="M657,497.6c-27.46,37.7-55.21,77-64.16,146.68-17.34,63.64-201.19,3.18-205.1-86.39,8.9-38.92,25.75-86.86-17.29-152.7"/>
    <path d="M351.05,1425.64c-63.14-78.82-180-129-225.49-209.41-9.41-28.62,112.55-73.72,127.28-62.17,61,86.88,116.38,175.22,179,215.9,26.93,14.27,61.58,28.43,86,73.28,9.86,15.52,50.48,20,43,55-3.68,17.33-20.86,23.11-44.34,16.4,0,15.5-12.67,27.57-24.51,26.51,12.87,18.43,13,32-4.93,43.92-5.93,4-18.65,5.33-29.81,1.89-4.85,17.86-20.92,17.53-36,6.31-14.71-10.94-12.08-24.24-13.95-33.93-6-24.23-27.1-31.5-35.38-48.06C349.2,1465.84,360.75,1433.05,351.05,1425.64Z"/>
    <path d="M721.07,1297.45c56.85,9.36,81-20,117.43-40.17,23.54-13,19.37-30.44,33.21-33.9,28.86-6.84,31.9-27.36,25-41.89,12.29-12.1-11.43-46.09-26.27-56.3-21.94-15.08-18.74-32.44-29.15-33.25-19.75,1.72-21.12,30.06-1.39,49.12-8.76,1-22.93-9-22.83,8.3-20.21-9.08-29.35-.86-29.75,18-20.62-1.48-24.28,29.6,0,40.81-.51,5.24,2.22,17.47,2.22,17.47Z"/>
    <path d="M577.59,1151.63c-2,44.13-7.57,78.3-24.85,63.17a42.3,42.3,0,0,1-8.28-9.93,81.66,81.66,0,0,1-9.44,10.22,114.7,114.7,0,0,0-33.69,57.35c26.58,11,57.16,14.46,90.08,16.16l91.43-83C643.56,1190.15,608.14,1172.38,577.59,1151.63Z"/>
    <path d="M444.28,438.69c-37.83,14.37-43.94-13.31-53.13-27.79C206.23,264.52,676.92-20.7,819,197.31c-24.63,79.56,4.79,116.45-16.85,154.11-11.59,14.06-.77,21.54-10.15,28.4,2,5,1.35,10.87-4,14.67,14.51,57.17-15.59,134.68-67.75,189.15-14.67,15.32-26.72,58.47-73.94,55-47.56-3.53-61.52-22.51-110.17-50.1-30.27-17.17-55.78-43.83-72.62-72.4"/>
  </g>
  <g class="skinOverlapLine">
    <path d="M787.3,1167.35c14.59,13.37,27.75,16.66,33.6,25.8,6.64,10.38,3.29,23.39,2.92,43.49"/>
    <path d="M817.05,1149.36c11.16,8,22.85-3,41.86,46.35,2.05,9.73-4.17,21.27-12.43,33.26"/>
    <path d="M839.88,1141.06c15.74,9.33,28-5.39,56.81,40.43"/>
    <path d="M506.64,1486.81c4.89,9.8,9.18,19.42,9.88,27.85"/>
    <path d="M473.15,1516.76c7.52,7.87,13.6,16.83,18.86,24.41"/>
    <path d="M457.27,1587c1.54-7.14-4.2-17.54-11.94-21.41,2.42-6.36,1.36-13.61-.83-23.39"/>
  </g>
  <g class="skinFoldLine">
    <path d="M868.45,1202c-4.68-.87-7.6-2.59-9.54-6.24"/>
    <path d="M444.5,1542.18c5.23,14,10.32,24.64,24.19,27.88"/>
    <path d="M525.78,1500.89c-6-.94-11.86-4.21-17.39-10.51"/>
    <path d="M441.72,342c-13.41-65.83-90.39-14.66-51.26,43.25"/>
    <path d="M435.11,367.08c-18.59,8.17,6.64,31.62-5.14,37-8.14,3.75-3.9-12.54-20.77-25.53-21.33-16.43,5.9-45.63,13.56-30.81"/>
  </g>
  <g class="head50__edited">
    <path class="lipMaleMedium__noStroke" d="M679.93,493.82c14,9.2,23.59,9.46,34,6.13,8.45,4.9-11.38,13.72-1.41,23.47-26.24,5.77,1.16,55.21-51.12,55.62-41.11.31-44.94-55.9-48.93-70.85C628.51,496,660,501,679.93,493.82Z"/>
    <path class="mouthInner" d="M681.21,532.2a37.54,37.54,0,0,1-1,18.1c6-3,10.35-8.88,11.81-18.29h0A66.29,66.29,0,0,1,681.21,532.2Z"/>
    <path class="tongue" d="M640.24,504.13c-13-.26-24.21-.07-27.74,4.06,4.62,27.86,46.45,52.87,67.74,42.11,2.76-9.6,1.87-17.77-1.19-25.09C664.23,514,651.11,507.39,640.24,504.13Z"/>
    <path class="teeth" d="M701.27,511.64c-15.78,6.48-22.1-8.33-31.61-7.6-17.9,1.36-40.58-1.5-51.65,1.29,20.79,17.57,50.68,29.13,74,26.68,6.22-1.28,10.89-4.75,14.26-12.84A29.94,29.94,0,0,1,701.27,511.64Z"/>
    <g class="lipOverlapLine">
      <path d="M701.27,511.64a20.29,20.29,0,0,0,5.87-3.47"/>
      <path d="M706.32,519.17a14.5,14.5,0,0,0,9.57,4.87"/>
    </g>
    <g class="lipEdgeLine">
      <path d="M679.93,493.82c14,9.2,23.59,9.46,34,6.13"/>
      <path d="M625.52,553.33c16.6,34.5,62.35,33.78,71.91,1.7"/>
    </g>
    <g class="smileLine">
      <path d="M720.51,312c-.45,10.82-4.54,21.27-15.12,31.06"/>
      <path d="M742,314.49c-2.43,11.11-2.46,21.41,2,30.21"/>
      <path d="M606.47,357.92c-8.58-.65-16.47.48-23.1,4.76"/>
    </g>
    <g class="cheekLine">
      <path d="M734.71,478.1a45.13,45.13,0,0,1,1.91,20.82"/>
      <path d="M672,441.25c-13.89,11.88-41.26,24.54-62.38,54.09"/>
    </g>
    <g class="noseLine">
      <path d="M672,441.25c-9.18,4.52-18.46,28.66,15.24,31.18"/>
      <path d="M680.81,465.59C698,462.9,702.31,476,715,479.16c13.56,3.39,26.11-2.23,31.26-9.27,11.09-15.12-8.22-30.68-9.73-57.56"/>
    </g>
    <g class="eyeFoldLine">
      <path d="M781.81,393.51c-9.3,3-24.06.08-30.83-4.42"/>
      <path d="M670.77,370.73c-11.14,4-38.23,1.47-49-8.74"/>
    </g>
    <g class="eyeLashLine">
      <path d="M740.31,375.43C760,373.12,761.36,365,792,379.82"/>
      <path d="M685.42,360.41c-51.95-32.28-75.71.71-103.81-20.71"/>
    </g>
    <g class="eyebrowBlack">
      <path d="M699.82,328.91C669.19,350.3,638,286.76,587.69,301.32,631.86,268.36,669.41,324.12,699.82,328.91Z"/>
      <path d="M756.16,337.74c10.21,16.37,28.76,9.28,48.89,7.95a53.09,53.09,0,0,0,3.47-11.54C788.74,330.71,773.25,343.41,756.16,337.74Z"/>
    </g>
    <path class="hairBlack" d="M680.12,180.14c-5.2,42.15-2.47,65.7,11.51,78.91-1.45-8.57-1.75-19,1.26-29.34,2.09,54.53,80.66,51.24,99.5,80.88-.11-6.68-9.26-26.11-14.36-35,13.88,26.1,37.11,22.05,45.11,48.39,14.59-33.22,34.47-92.51,2.74-140.18,9.19,3.48,19.31,14,34.49,12.54C810.17,150,816.24,85.17,654.45,34.53c-53.58-16.78-156.73-9.11-212,28.27,7.44-21.33,27.76-50.93,48.73-60.58-34,5.68-61.33,38.76-69.9,68.64-23.74-29.49-53.18-25.19-66.79,1.66C377,55.07,397.45,63.14,405.6,86.17c-58.63,61.16-108.37,223-36.21,335.18,5.2-1.2,15.9-3.87,21.76-10.45-20.78-36.84-34.2-50.67-13.68-95.58,13.94-30.51,79.59-29.89,75.37,14.51,13.06,3.44,29.19,3.18,37-.54,6.18-34.08,4.08-35.38,38.76-61.24,27.12,2.12,57.43,13.33,86-23.2-4.78,15.83-16.48,23.41-16.66,36.7C610.68,263.68,671.92,267.59,680.12,180.14Z"/>
    <path class="hairOverlapLine" d="M528.63,268.05c-10-.55-24.09-3.6-36-3.64,10.95-5.63,26-10.68,34.33-15.8"/>
  </g>
</svg>
