<svg id="presence" xmlns="http://www.w3.org/2000/svg" viewBox="0 0 1499.29 2368.15">
  <defs>
    <style>
      .cls-1 {
        fill: none;
      }

      .cls-1, .cls-2, .cls-3, .cls-4, .cls-5 {
        stroke: #000;
        stroke-miterlimit: 10;
        stroke-width: 2px;
      }

      .cls-2 {
        fill: #859db5;
      }

      .cls-3 {
        fill: #719fcc;
      }

      .cls-4 {
        fill: #6994bf;
      }

      .cls-5 {
        fill: #78a7d9;
      }
    </style>
  </defs>
  <title>pious</title>
  <g id="bennettSoleSide">
    <path class="cls-1" d="M1373.76,2152.58c52.11-13.26,100.27-33,124.35,25.05-48.92,48.73-117.55,83-200.84,120.67-43.21,19.56-95.51,60.49-140.67,67.6-12.15-5.29-23.15-22.78-25.62-40.45Z"/>
    <path class="cls-1" d="M268.43,2265.23c21.4,36.25,77.34,20.79,67.79,95.38-123.26,29.11-143-45.9-209.85-89.32C78.75,2240.38,2.83,2190.51,1,2170.49c4.46-13.42,13.65-29.56,25.18-40.42Z"/>
  </g>
  <g id="bennettShoe">
    <path class="cls-1" d="M1154.8,2059.52c26,39.78,55,75.33,95.25,81,39.52,5.58,85.4,16.36,123.71,12-3,17.57,1.32,34.81,12.17,51.75-31.61,24-98.06,46.9-157.26,81.64-35.79,21-69.66,38.71-97.69,39.48-22.73-27.57-32.12-123.79-60.9-182Z"/>
    <path class="cls-1" d="M273.11,2034.37C239.7,2083.6,221.35,2126,231,2155.49c13.68,42.06,19.47,82,37.47,109.74-17.46,7.23-31.64,17.63-39.48,34.13-29.44-12.72-70.64-57.35-126.82-89-30.32-17.09-72.59-60.87-75.94-80.26,10-36.81,107.07-74.29,139.86-137.19Z"/>
  </g>
  <g id="bennettShoelace">
    <path class="cls-1" d="M211,2111.58c-12.56,26.23-.39,67.11,16.31,110.68a49.43,49.43,0,0,1,21.59-3.88c-5.72-19.42-10.73-40.86-17.89-62.89-3.93-12.07-3.18-26.28,1.35-42.23A70.43,70.43,0,0,0,211,2111.58Z"/>
    <path class="cls-1" d="M1328.14,2152.13c-26.25-2.59-53.41-8.11-78.09-11.59-15.55-2.2-29.42-8.86-42.09-18.49-4.28,7.2-7.22,14-8.45,20.4,29.31,21.48,74,28.74,122.92,32C1322.43,2166.25,1324.81,2159.33,1328.14,2152.13Z"/>
  </g>
  <circle id="converseLogo" class="cls-1" cx="122.04" cy="2130.54" r="37.33"/>
  <g id="clothesOverlapLine">
    <path class="cls-1" d="M228.25,2060.63c5.18,8.89-11.57,30.91-17.3,50.95"/>
    <path class="cls-1" d="M220.86,2205a75.24,75.24,0,0,1,23.2-3.68"/>
    <path class="cls-1" d="M215.42,2188.76a63.12,63.12,0,0,1,24.36-3.29"/>
    <path class="cls-1" d="M210.3,2170.42a64.84,64.84,0,0,1,24.65-2"/>
    <path class="cls-1" d="M206.73,2151.59c7.78-.29,15.5-.32,23.14,0"/>
    <path class="cls-1" d="M206.07,2130.54a177,177,0,0,1,22.64,1.49"/>
    <path class="cls-1" d="M1156.16,2106.78c9.88-.82,24.32,20.51,43.35,35.67"/>
    <path class="cls-1" d="M1215.42,2152.06a50.72,50.72,0,0,1,9.91-19.2"/>
    <path class="cls-1" d="M1234,2159.71a52,52,0,0,1,12.29-19.81"/>
    <path class="cls-1" d="M1254.46,2165.48a76.51,76.51,0,0,1,12.91-22.29"/>
    <path class="cls-1" d="M1277.62,2169.84c1.89-9.12,4.64-17.23,9-23.49"/>
    <path class="cls-1" d="M1300,2172.63c1.44-8.81,3.81-16.72,7.91-23"/>
  </g>
  <g id="clothesDisplayLine">
    <path class="cls-1" d="M229,2299.36C257.34,2321,293.42,2328.5,335,2325.9"/>
    <path class="cls-1" d="M1385.93,2204.33c27.12-13.73,62.55-40.76,79.49-62.45"/>
  </g>
  <path id="bennettJeans" class="cls-1" d="M848.11,1118.75c50.14,115,90.87,260.25,120.52,388.17,11.11,47.95,45.54,58.83,21,85.48-11.33,12.31,40.2,11.5,19.62,47.64,31,109,80.46,248.69,123.31,353.14,10.43,25.4,57.22,41,40.82,92.93-16.24-18.85-27.22,0-17.24,20.67-29.4,20.49-43.34,77-59.4,115.48-19-17-50.74-20.63-40.39-47.77-35.07,3.36-50.88-19.74-29.09-49.68-50.46,0-36.82-29.49-43.62-44.47-12.87-28.36-135.15-213.85-176.21-393.47-16.18-9.38-15.44-14.1-15.39-33.36-25.66-9.41-12.83-40.21-29.94-62.45-32.5-47-64.3-92-83.83-144.55-28.22,96.65-63.29,209.56-85.53,231.8-79.1,86.3-171.7,187.74-236.08,272-58.17,76.13-45.34,102.64-94.3,100.48,10.47-20.08-17.76-15.8-34.13,9.83-21.43-15.73-71.73-11.09-101.06-20.78-3.17-23.67-16.43-54.25,7.94-63.87-18.81-30.79,21.39-35.07,27.38-47.9-6.55-25.49,28.67-25.88,42.77-58.17,32.5-74.41,102.63-164.88,171.92-255.75,5.92-7.76-1.71-36.78,29.94-32.5,15.4-20.53-24.8-28.23-1.71-48.76,11.12-13.69,23.95-97.51,53.47-168.51Z"/>
  <g id="clothesOverlapLine-2" data-name="clothesOverlapLine">
    <path class="cls-1" d="M636.7,1369.2c15.66,36.21,26.42,47,41.59,77.31"/>
  </g>
  <g id="clothesFoldLine">
    <path class="cls-1" d="M961.62,1560c-32.37,24-77.52,36.61-135.06,38.17"/>
    <path class="cls-1" d="M990,1651.06c18.08-34-48.93,1-85.14,43.06"/>
    <path class="cls-1" d="M840.26,1640.29c34.26-4.89,90.33-37.78,95.91-25.44,2.93,6.47-19,18.63-52.84,33.27"/>
    <path class="cls-1" d="M807.45,1686.87c34.77,10.19,104.26-21.13,44.56,21.93"/>
    <path class="cls-1" d="M573.09,1572.77q-66.08,0-123.32-23.49"/>
    <path class="cls-1" d="M383.22,1650.08c26.65-3.51,58.78,15.13,92,38.17"/>
    <path class="cls-1" d="M407.14,1581.66c36.76,13.62,69.06,87,102.33,85.06,44.14-2.6-91-59.7,15.66-45,26.7,3.67,22.76-16-3.91-21.53-33.28-6.85-85.71-18.91-114.08-37.75"/>
    <path class="cls-1" d="M162.51,1928.08c3.87,20.17,16.44,39.16,39.66,56.71"/>
    <path class="cls-1" d="M296.12,2008.28c-24.46,3.32-49.35-13-74.38-35.24"/>
    <path class="cls-1" d="M135.13,1976c12.88,16.13,35.66,27.77,61.17,38.17"/>
    <path class="cls-1" d="M285.36,2038.61c-27.93-4-49.92-11.74-69.49-28.38"/>
    <path class="cls-1" d="M1145.61,2033.72c-17.36,28.75-45.49,45.89-93.95,41.1"/>
    <path class="cls-1" d="M1118.21,2102.23c51.16-14.23,32.42,6.1-41.11,37.19"/>
    <path class="cls-1" d="M1027.28,2124.81c20.46-4,39.23-13.66,26.33,6.78"/>
    <path class="cls-1" d="M1056.37,2174.49c15.58-1.16,27.38-7.06,36.39-16.48"/>
  </g>
  <g id="bag">
    <polygon id="bagStrap" class="cls-2" points="443.4 579.31 357.86 969.01 411.43 951.21 482.63 594.82 443.4 579.31"/>
    <path id="bagMedium" class="cls-3" d="M754.49,916.19c15.47.17,53.11-2.42,70.34.27,15.72,2.46,18.07,27.75,21.65,51.38,7.91,52.19,6.31,108.07,14.4,172.24,6.58,52.19,8.62,107.39,14.21,155.15,2.42,20.6-4.84,39.72-21.5,43.68-20.79,4.94-41.33,7.84-68.48,11.22Z"/>
    <path id="bagDark" class="cls-4" d="M774.43,916.53c18.32,6.43,19.6,37.6,20.74,72,2.45,74,13.51,155.82,22,243.46,5.27,54.67,6.5,112.6-32,118.16-93,13.42-271.76,24.18-357.17,27.69-32.15,1.32-46.56-18.3-46.3-42.28Z"/>
    <path id="bagLight" class="cls-5" d="M774.43,916.53c-15.7,25.88,14.46,194,20.27,316.65,2.67,56.6-6.54,94.38-44.46,97.19-97.52,7.23-197.27,12.7-308.94,22.17-41.53,3.52-68.19-12.24-71.32-45.58-10.38-110.52-21.55-220.41-25.65-270.26-3.88-47.24,5.88-71.81,33.69-78.65C446.17,941.29,684.91,912.74,774.43,916.53Z"/>
  </g>
  <g id="bennettHoodie">
    <path class="cls-1" d="M562.74,930.25c10.61,18-4.73,29.23-4.73,29.23-2.54,9.17.22,19.82-13.5,24.62.21,56.19,16.57,73.58,12.74,81.85-8.15,17.61-90.29,18.34-96.73,9.94-3.77-4.92,1.35-43.78-4.66-88.48-34.91-19.74-25.7-44.29-22.37-64.62.76-81.95-24.81-115.71-6.62-144.15-1.83-73.84,1.62-131.47,9.42-189.42,4.69-34.77,1.26-67.6,12.95-98.06-7.83-54.34,11.21-91.23,22.85-133.1,7.57-27.2-1-45,16.08-79-11.17-18.25,21-42.93,2.49-66.28,57.39-115.51,155-128.69,275.05-84.51,67.44,43.62,101.82,220.47,107.71,394.36,5.76,39,36.45,60.44,9.94,92,6,30.56,2.22,60.35-9.94,89.47,22.46,89.19,10.11,163.71-66.31,211.2C707.59,915.23,632.11,923.18,562.74,930.25Z"/>
    <path class="cls-1" d="M980.63,841.62c8.08-25.58-5.81-34.78-30.28-36.1-.45-6.68-4.42-16.31-14.56-13.4,4.08-7.57-2.33-19.79-11.64-15.72-9.47-22.33-27.9-46.8-50.73-72.33L858.2,867.33c18.2,11.55,5.39,48.87,50.22,34.26,34.36,41.34,34.24,58.06,42.93,65.13,10.76,8.74,90.17-54.84,83.59-67C1027.25,885.39,1014.4,887.62,980.63,841.62Z"/>
    <path class="cls-1" d="M491.61,251.31c-70.48-40.3-35.44-67.23-38.16-75.78-4.32-13.57-38.24-21.59-20.35-56.74C436.18,92.89,475,92.14,497.85,91c215.85-44.41,301,12.95,265.81,59.82-46.87,4.31-125.81-6.79-144.93-24.05-56.49,7.43-98.67,36.38-106.07,99.29C503.55,233.09,495.47,242.79,491.61,251.31Z"/>
  </g>
  <path id="bennettHoodieInner" class="cls-1" d="M488,109.54c7.56-35.07,17.31-63,41.93-62.91,139.38.62,215.6,31.56,225.1,90.66C702.6,128,678.64,114.5,653.27,108.92,571.86,91,552.13,109.54,488,109.54Z"/>
  <g id="clothesOverlapLine-3" data-name="clothesOverlapLine">
    <path class="cls-1" d="M480.38,896.25c18.32,32.32,62,47.94,82.36,34"/>
    <path class="cls-1" d="M980.63,841.62c-7.67,15.29-55.13,56-72.21,59"/>
    <path class="cls-1" d="M544.51,984.1c-15.37,5.34-73.93,9-88.65,3.31"/>
    <path class="cls-1" d="M873.42,704.07c-30,1.29-64.64-3.05-101.41-9.89,7.55,30-4.5,33.11-2.1,48.25,5.08,32,7.07,55.22-49.68,70.72-59,16.11-30,42.51-56.09,79.6"/>
    <path class="cls-1" d="M556.67,863.27c39.07,17.27,149.6,40.59,219.05,46.68"/>
  </g>
  <path id="bagStrap-2" data-name="bagStrap" class="cls-2" d="M820.74,207.35c34.91,106.94,34.54,223,19.64,341.24-12,94.91-66,367.94-66,367.94l50.4-.07S867.09,657,875.54,560.92C884.46,459.58,875.33,290.84,820.74,207.35Z"/>
  <g id="bennettHoodieLace">
    <path class="cls-1" d="M793.44,333.77l4,38.55c.26,2.09,9,1,8.75-1.09l-4.36-39Z"/>
    <path class="cls-1" d="M731.23,151.67c33.69,64.11,49.19,103.72,59.57,180,.61,4.29,13.59,2,13-2.28-14-79.25-31.8-130.59-61.57-184.62Z"/>
    <circle class="cls-1" cx="734.14" cy="143.31" r="11.28"/>
    <path class="cls-1" d="M843.23,320l17,34.83c.89,1.92-7.11,5.63-8,3.71l-17.07-35Z"/>
    <path class="cls-1" d="M774.71,132.38C806,191,809.08,254,844,317.43c2.88,3.24-8,9.62-10.86,6.38-38.37-68.24-39.32-130.95-68.24-185.72Z"/>
    <circle class="cls-1" cx="767.15" cy="129.5" r="11.28"/>
  </g>
  <g id="clothesFoldLine-2" data-name="clothesFoldLine">
    <path class="cls-1" d="M574.66,184.61c-23.91,11.93-45.94,25-62,41.49"/>
    <path class="cls-1" d="M488.17,279.07c11-18.5,26.65-33.44,46.08-45.44"/>
    <path class="cls-1" d="M477.69,437.26c-11.56,17.81-21.64,35.73-28.45,53.9"/>
    <path class="cls-1" d="M522.4,505.68c13.47,68.42,52.1,57.85,23.17,86.19"/>
    <path class="cls-1" d="M553.65,516.46c14.54,53.87,30.7,47.94,43.05,61.52"/>
    <path class="cls-1" d="M586.2,601.84c-32.71,7.29-75.18,12.69-22.85,36.36"/>
    <path class="cls-1" d="M578.56,656.26c-6.79,3.87-14.65,4.73-23.83,1.88"/>
    <path class="cls-1" d="M510,713.08c13.27,23,30,39.23,51.18,46.87"/>
    <path class="cls-1" d="M562.74,930.25c-17.59-16.24-6.34-39.67-6.14-61.11.29-30.08.81-59.48,16.23-92.6,10.2-21.91,4.24-36.18,4.77-57.28.48-19,17.19-26.73,1-63,13.06-14.81,13.52-33.61,7.64-54.42C597.6,599.1,599,589.73,596.7,578c2.42-17.18,6.18-32.53,11.45-45.82,10.74-12.25,15.26-29.07,13.37-50.6a473,473,0,0,0,30.55-111.69c10.85-5.45,14-16.62,9.54-33.41,21-24.82,17.82-24.28,23.87-44.87s19.09-42,15.27-75.42"/>
    <path class="cls-1" d="M477.15,936.11c-3.23,19.93-44.71,18.32-43.66-13.32"/>
    <path class="cls-1" d="M558,959.48c-8.06,3.19-16.31,3.53-24.83-.2"/>
    <path class="cls-1" d="M572,433.13c22.64,28.51,38,60.11,36.17,99"/>
    <path class="cls-1" d="M570.05,386c25.2,29.18,44.44,60.33,51.47,95.56"/>
    <path class="cls-1" d="M638.49,342.74a45.68,45.68,0,0,1,13.58,27.13"/>
    <path class="cls-1" d="M639.13,310.46c10.3,7.52,18.17,16,22.48,26"/>
    <path class="cls-1" d="M681.1,230.39c-28.41-99.43-104.6-82-50.36-42"/>
    <path class="cls-1" d="M739.21,305.94a363.28,363.28,0,0,0-51.86-20.21"/>
    <path class="cls-1" d="M757.25,320c-33-8.55-61.38-13.71-77.24-9.52"/>
    <path class="cls-1" d="M657.16,366.38c21.43,12.81,46.63,23.8,74.07,33.7"/>
    <path class="cls-1" d="M836.59,575.66c-75-15.42-144.53-45.37-209.43-88"/>
    <path class="cls-1" d="M829.94,617.3c-83,3.15-161.07-5.63-232.33-31.3"/>
    <path class="cls-1" d="M786.56,668c-71.23-6.47-138.06-16.66-197.64-33"/>
    <path class="cls-1" d="M580.59,705.51c132.54,20.89,219.53,9.42,103.92-18.93"/>
    <path class="cls-1" d="M578.34,757.89c46,9.45,114,26.4,48.82,37.43"/>
    <path class="cls-1" d="M769.91,742.43c-50.54,3.4-130.72,12-49,30.25"/>
    <path class="cls-1" d="M558.5,828.33c93.91,15,205.68,33,186.89,46.41"/>
    <path class="cls-1" d="M769.91,820.93c-20.27-4-41.48-6.81-62.24-3.71"/>
    <path class="cls-1" d="M691.56,442.33c16.19-32.62,81.94,9.28,126.77,13.38"/>
    <path class="cls-1" d="M617.37,538.7C659,565.41,726.31,566.11,685,575.13"/>
    <path class="cls-1" d="M950.35,805.52c-21.76,14.91-47.78,70.42-43.62,29.13"/>
    <path class="cls-1" d="M924.15,776.4a142.94,142.94,0,0,0-34.07,29.11"/>
    <path class="cls-1" d="M935.79,792.12a40.27,40.27,0,0,0-10,10.26"/>
    <path class="cls-1" d="M488,109.54c-11.87-.32-22.89-1.2-32.09-3.29"/>
    <path class="cls-1" d="M618.73,126.81c19.17-2.2,34.17-2.54,25.24,7.69"/>
  </g>
  <path id="zipperDisplayLine" class="cls-1" d="M816.07,288.38c1.85,54.42,21.89,82.7,33.45,148.12"/>
  <g id="skinEastAsian">
    <path class="cls-1" d="M545.57.2,533.22,61c89.41,7,157.26,37.84,221.8,76.32-37.42-42.19-58.18-85.92-53.65-132"/>
  </g>
</svg>
