<svg viewBox="0 0 231.16 447.26">
  <g class="soleWhite">
    <path d="M211.71,414c8-2,15.44-5.08,19.15,3.86-7.53,7.51-18.11,12.78-30.94,18.59-6.65,3-14.71,9.32-21.67,10.41-1.87-.81-3.56-3.51-3.94-6.23Z"/>
    <path d="M41.45,431.31c3.29,5.59,11.91,3.21,10.44,14.7-19,4.48-22-7.07-32.33-13.76C12.23,427.49.53,419.8.25,416.72a16.19,16.19,0,0,1,3.88-6.23Z"/>
  </g>
  <g class="bennettShoe">
    <path d="M178,399.63c4,6.13,8.47,11.6,14.67,12.48s13.16,2.52,19.06,1.85a11,11,0,0,0,1.87,8c-4.87,3.7-15.1,7.23-24.22,12.58-5.52,3.24-10.73,6-15.05,6.08-3.5-4.25-4.95-19.07-9.38-28Z"/>
    <path d="M42.17,395.75c-5.15,7.59-8,14.11-6.5,18.66,2.11,6.48,3,12.63,5.78,16.9a11,11,0,0,0-6.09,5.26c-4.53-2-10.88-8.83-19.53-13.71-4.67-2.63-11.18-9.38-11.7-12.37,1.55-5.66,16.49-11.44,21.54-21.13Z"/>
  </g>
  <g class="shoelace">
    <path d="M32.59,407.65c-1.93,4-.06,10.33,2.51,17.05a7.45,7.45,0,0,1,3.33-.6c-.88-3-1.65-6.3-2.76-9.69a11.2,11.2,0,0,1,.21-6.5A10.81,10.81,0,0,0,32.59,407.65Z"/>
    <path d="M204.68,413.89c-4-.4-8.23-1.25-12-1.78a13.87,13.87,0,0,1-6.48-2.85,9.81,9.81,0,0,0-1.3,3.14c4.51,3.31,11.39,4.43,18.93,4.94A8,8,0,0,1,204.68,413.89Z"/>
  </g>
  <circle class="converseLogo" cx="18.9" cy="410.57" r="5.75"/>
  <path class="bennettJeans" d="M130.73,241.55c7.72,17.72,14,52.48,18.57,72.19,1.71,7.38,7,9.06,3.24,13.16-1.75,1.9,6.19,1.78,3,7.34a577.15,577.15,0,0,0,19,55.17c1.6,3.91,8.81,6.31,6.28,14.31-2.5-2.9-4.19,0-2.65,3.19-4.53,3.15-6.68,11.87-9.15,17.79-2.93-2.63-7.82-3.18-6.22-7.36-5.41.51-7.84-3-4.48-7.65-7.78,0-5.68-4.55-6.72-6.86-2-4.36-20.82-33.71-27.15-61.37-2.49-1.45-2.37-2.18-2.37-5.14-3.95-1.45-2-6.2-4.61-9.62-5-7.25-9.9-14.18-12.91-22.27-4.35,14.89-9.75,32.28-13.18,35.71C79.22,353.43,65,369.83,55,382.81c-9,11.72-7,15.81-14.53,15.48,1.62-3.1-2.73-2.44-5.25,1.51-3.3-2.42-11-1.71-15.57-3.2-.49-3.65-2.53-8.36,1.22-9.84-2.9-4.74,3.3-5.4,4.22-7.38-1-3.92,4.42-4,6.59-9,5-11.46,15.81-26.17,26.48-40.16.91-1.2-.26-5.67,4.61-5,2.37-3.16-3.82-4.35-.26-7.51,1.71-2.11,2.29-19.35,6.84-30.29Z"/>
  <g class="bag">
    <polygon class="bagStrapDark" points="68.4 167 55.22 227.03 63.47 224.29 74.44 169.39 68.4 167"/>
    <path class="bagMedium" d="M116.32,218.89c2.38,0,8.18-.37,10.83,0,2.42.38,2.78,4.28,3.34,7.92,1.21,8,1,16.65,2.21,26.53,1,8,1.33,16.54,2.19,23.9.37,3.17-.74,6.12-3.31,6.73A96.19,96.19,0,0,1,121,285.73Z"/>
    <path class="bagDark" d="M119.39,218.94c2.82,1,3,5.8,3.19,11.09.38,11.4,2.08,24,3.38,37.5.82,8.43,1,17.35-4.93,18.2-14.33,2.07-41.86,3.73-55,4.27-5,.2-7.17-2.82-7.13-6.51Z"/>
    <path class="bagLight" d="M119.39,218.94c-2.42,4,2.23,29.88,3.12,48.78.41,8.72-1,14.54-6.85,15-15,1.11-30.39,2-47.59,3.42-6.39.54-10.5-1.89-11-7-1.6-17-3.32-34-4-41.63-.6-7.28.9-11.07,5.19-12.12C68.82,222.76,105.6,218.36,119.39,218.94Z"/>
  </g>
  <g class="bennettHoodie">
    <path d="M151.15,207.41c1.24-3.94-.9-5.36-4.66-5.57-.07-1-.69-2.51-2.25-2.06.63-1.16-.36-3.05-1.79-2.42-1.46-3.44-4.3-7.21-7.82-11.14l-2.34,25.15c2.8,1.78.83,7.52,7.74,5.27,5.29,6.37,5.27,9,6.61,10,1.66,1.34,13.89-8.45,12.88-10.33C158.33,214.15,156.35,214.49,151.15,207.41Z"/>
    <path d="M86.78,221.06a3.33,3.33,0,0,1-.73,4.5c-.39,1.41,0,3.05-2.08,3.79,0,8.66,2.55,11.34,2,12.61-1.25,2.71-13.9,2.83-14.9,1.53-.58-.75.21-6.74-.71-13.63-5.38-3-4-6.82-3.45-10,.12-12.62-3.82-17.82-1-22.21a177.37,177.37,0,0,1,1.45-29.17c.72-5.36.2-10.42,2-15.11-1.21-8.37,1.72-14,3.52-20.5,1.16-4.19-.16-6.93,2.47-12.17-1.72-2.81,3.23-6.61.39-10.21,8.84-17.79,23.87-19.82,42.36-13,10.39,6.72,15.69,34,16.59,60.74.89,6,5.62,9.31,1.54,14.17a23.36,23.36,0,0,1-1.54,13.78c3.46,13.74,1.56,25.22-10.21,32.53A340.4,340.4,0,0,0,86.78,221.06Z"/>
    <path d="M75.82,116.48C65,110.27,70.36,106.12,70,104.8c-.67-2.09-5.89-3.32-3.14-8.74.48-4,6.45-4.1,10-4.27,33.25-6.84,46.36,2,41,9.21-7.22.67-19.38-1-22.33-3.7-8.7,1.14-15.2,5.6-16.34,15.29A11.33,11.33,0,0,0,75.82,116.48Z"/>
  </g>
  <path class="bennettHoodieInner" d="M75.26,94.64c1.17-5.4,2.67-9.71,6.46-9.69,21.47.09,33.22,4.86,34.68,14-8.08-1.42-11.77-3.51-15.68-4.37C88.18,91.79,85.14,94.64,75.26,94.64Z"/>
  <path class="zipperDisplayLine" d="M125.8,122.19c.29,8.38,3.37,12.74,5.15,22.81"/>
  <path class="bagStrapLight" d="M126.52,109.71c5.38,16.47,5.32,34.35,3,52.56-1.85,14.62-10.16,56.67-10.16,56.67h7.76s6.51-40,7.81-54.76C136.34,148.56,134.93,122.57,126.52,109.71Z"/>
  <g class="hoodieLace">
    <path d="M122.32,129.18l.61,5.94c0,.32,1.38.15,1.34-.17l-.67-6Z"/>
    <path d="M112.73,101.13c5.19,9.87,7.58,16,9.18,27.72.09.66,2.09.31,2-.35-2.15-12.2-4.9-20.11-9.48-28.44Z"/>
    <circle cx="113.18" cy="99.84" r="1.74"/>
    <path d="M130,127.06l2.62,5.36c.14.3-1.09.87-1.23.57l-2.63-5.39Z"/>
    <path d="M119.43,98.16c4.82,9,5.3,18.73,10.68,28.5.44.5-1.23,1.48-1.67,1-5.91-10.52-6.06-20.18-10.52-28.61Z"/>
    <circle cx="118.27" cy="97.71" r="1.74"/>
  </g>
  <g class="clothesDisplayLine">
    <path d="M35.36,436.57c4.38,3.33,9.93,4.49,16.34,4.09"/>
    <path d="M213.58,421.93c4.18-2.11,9.64-6.27,12.25-9.62"/>
  </g>
  <g class="clothesOverlapLine">
    <path d="M74.09,215.82c2.83,5,9.55,7.39,12.69,5.24"/>
    <path d="M151.15,207.41c-1.18,2.35-8.49,8.62-11.12,9.08"/>
    <path d="M84,229.35c-2.37.83-11.39,1.4-13.65.51"/>
    <path d="M125.68,185.75c-2.15-.27-4.38-.63-6.67-1.05,1.17,4.61-.69,5.1-.32,7.43.78,4.92,1.09,8.5-7.65,10.89-9.09,2.48-4.63,6.55-8.64,12.26"/>
    <path d="M134.63,186.22c-.79,0-1.61,0-2.45,0"/>
    <path d="M85.84,210.74c6,2.66,23,6.25,33.75,7.19"/>
    <path d="M97.93,288.05c2.41,5.58,4.31,11.71,6.65,16.38"/>
    <path d="M35.26,399.8c.79,1.37-1.79,4.76-2.67,7.85"/>
    <path d="M34.12,422a11.68,11.68,0,0,1,3.57-.56"/>
    <path d="M33.28,419.53A9.66,9.66,0,0,1,37,419"/>
    <path d="M32.49,416.71a10,10,0,0,1,3.8-.31"/>
    <path d="M31.94,413.81q1.8-.07,3.57,0"/>
    <path d="M31.84,410.57a27.15,27.15,0,0,1,3.49.23"/>
    <path d="M178.19,406.91c1.52-.13,3.74,3.16,6.68,5.49"/>
    <path d="M187.32,413.88a7.63,7.63,0,0,1,1.52-2.95"/>
    <path d="M190.17,415.06a8.1,8.1,0,0,1,1.89-3.05"/>
    <path d="M193.33,416a11.68,11.68,0,0,1,2-3.43"/>
    <path d="M196.9,416.62a9.91,9.91,0,0,1,1.38-3.62"/>
    <path d="M200.34,417.05a9.32,9.32,0,0,1,1.22-3.54"/>
  </g>
  <g class="clothesFoldLine">
    <path d="M88.62,106.2a35.32,35.32,0,0,0-9.56,6.39"/>
    <path d="M75.29,120.75a20.78,20.78,0,0,1,7.1-7"/>
    <path d="M73.68,145.12a43.69,43.69,0,0,0-4.38,8.3"/>
    <path d="M80.57,155.66c2.07,10.54,8,8.91,3.56,13.28"/>
    <path d="M85.38,157.32c2.24,8.3,4.73,7.38,6.63,9.48"/>
    <path d="M90.39,170.47c-5,1.12-11.58,2-3.52,5.6"/>
    <path d="M89.22,178.85a4.43,4.43,0,0,1-3.67.29"/>
    <path d="M78.66,187.61c2,3.53,4.62,6,7.88,7.22"/>
    <path d="M86.78,221.06c-2.71-2.5-1-6.11-1-9.41,0-4.64.13-9.17,2.5-14.27,1.58-3.37.66-5.57.74-8.82.07-2.93,2.65-4.12.15-9.71,2-2.28,2.08-5.17,1.17-8.38,1.76-.42,2-1.86,1.62-3.67a30.75,30.75,0,0,1,1.76-7.06c1.66-1.89,2.36-4.48,2.06-7.8a72.27,72.27,0,0,0,4.71-17.2q2.5-1.26,1.47-5.15c3.23-3.82,2.74-3.74,3.68-6.91s2.94-6.47,2.35-11.61"/>
    <path d="M73.6,222c-.5,3.07-6.89,2.82-6.73-2.05"/>
    <path d="M86.05,225.56a4.79,4.79,0,0,1-3.82,0"/>
    <path d="M88.2,144.48c3.49,4.4,5.86,9.26,5.57,15.26"/>
    <path d="M87.9,137.22c3.89,4.5,6.85,9.3,7.93,14.72"/>
    <path d="M98.45,130.56a7.09,7.09,0,0,1,2.09,4.18"/>
    <path d="M98.55,125.59a10.1,10.1,0,0,1,3.46,4"/>
    <path d="M105,113.26c-4.37-15.32-16.11-12.64-7.76-6.47"/>
    <path d="M114,124.89a56.21,56.21,0,0,0-8-3.11"/>
    <path d="M116.74,127.06c-5.08-1.32-9.45-2.12-11.9-1.47"/>
    <path d="M101.32,134.2a65.89,65.89,0,0,0,11.41,5.19"/>
    <path d="M129,166.44A92.37,92.37,0,0,1,96.7,152.88"/>
    <path d="M127.94,172.85c-12.78.49-24.81-.86-35.79-4.82"/>
    <path d="M121.26,180.67a177,177,0,0,1-30.45-5.09"/>
    <path d="M89.53,186.44c20.41,3.22,33.81,1.45,16-2.91"/>
    <path d="M89.18,194.51c7.08,1.45,17.56,4.06,7.52,5.76"/>
    <path d="M118.69,192.13c-7.78.52-20.13,1.85-7.55,4.66"/>
    <path d="M86.13,205.36c14.46,2.31,31.68,5.08,28.78,7.15"/>
    <path d="M118.69,204.22a28.1,28.1,0,0,0-9.59-.57"/>
    <path d="M106.62,145.9c2.5-5,12.62,1.43,19.53,2.06"/>
    <path d="M95.19,160.75c6.42,4.11,16.79,4.22,10.43,5.61"/>
    <path d="M146.49,201.84c-3.36,2.3-7.36,10.85-6.72,4.49"/>
    <path d="M142.45,197.36a22.21,22.21,0,0,0-5.25,4.48"/>
    <path d="M144.24,199.78a6.27,6.27,0,0,0-1.53,1.58"/>
    <path d="M75.26,94.64a26.53,26.53,0,0,1-4.94-.51"/>
    <path d="M95.4,97.3c3-.34,5.27-.39,3.89,1.18"/>
    <path d="M148.22,321.92c-5,3.7-11.94,5.64-20.8,5.88"/>
    <path d="M152.59,335.94c2.79-5.24-7.53.15-13.11,6.63"/>
    <path d="M129.53,334.28c5.27-.75,13.91-5.82,14.77-3.92.45,1-2.93,2.87-8.14,5.13"/>
    <path d="M124.47,341.46c5.36,1.57,16.06-3.26,6.87,3.37"/>
    <path d="M88.37,323.88a49.78,49.78,0,0,1-19-3.62"/>
    <path d="M59.13,335.79c4.1-.54,9.05,2.33,14.17,5.88"/>
    <path d="M62.81,325.25c5.66,2.1,10.64,13.4,15.76,13.1,6.8-.4-14-9.19,2.42-6.93,4.11.56,3.5-2.47-.61-3.32-5.12-1.05-13.2-2.91-17.57-5.81"/>
    <path d="M25.13,379.38c.6,3.11,2.53,6,6.11,8.74"/>
    <path d="M45.71,391.73c-3.77.52-7.6-2-11.46-5.42"/>
    <path d="M20.91,386.76c2,2.48,5.5,4.28,9.42,5.88"/>
    <path d="M44.05,396.41c-4.3-.62-7.69-1.81-10.7-4.37"/>
    <path d="M176.56,395.65c-2.67,4.43-7,7.07-14.47,6.34"/>
    <path d="M172.34,406.21c7.88-2.2,5,.94-6.33,5.72"/>
    <path d="M158.34,409.69c3.15-.62,6-2.11,4,1"/>
    <path d="M162.82,417.34a8.29,8.29,0,0,0,5.6-2.54"/>
  </g>
  <path class="hairBlackDark" d="M139.05,32.9a9.24,9.24,0,0,1-3.89-1.79,8.44,8.44,0,0,1-1.32,6.57c-1.89-3.47-10.46-21,1.32-14.67C137.31,24.22,136.79,30.11,139.05,32.9Z"/>
  <g class="skinEastAsian">
    <path d="M77.41,66.54c5.91,5,9.21,11.55,9.44,20.62,13.46,1.69,19.61,5.83,29.55,11.75-1.62-6.45-1.33-20.07,2.09-22.7"/>
    <path d="M185.5,243c-6-3.06-10.83-5.23-12.68-11.86,4.42,4.56,9.69,2.57,8.12-.64-2.21-1.42-3.42-4-7.12-6.62-8-6.8-11.46-5-14.6-6.29-1.68,2.8-8.93,8.54-11.69,9.18,1.86,5.53-.21,11.72,8.19,18.55,3.28,2.57,1.64,7,8.34,6.42,1.28,1.56,5.27,2.7,6.62-.36,5.85,1.21,5.85-2.64,8.48-4.63,3.07.78,7.57,4.08,9.21,3.73C192.36,250.17,191.63,245.32,185.5,243Z"/>
    <path d="M71.41,243.75c-2.15,6-5.51,9.74-4.71,14.09.59,3.15-1.81,7.28,1,9.45-.08,3.49.77,4.56,2.82,5.08.53,2.78.81,5.13,2.68,7.18,1,1.63,3.81,3,4.66,4.7,1.61.48,2.67-1.76,2.42-3.51,2.24,1,3.22-1.86,1.75-3.38,3.17-4.26-3.6-5.09-5-7.05-.18-7,3.15-6.72,3.57-10.72.63,1.81,1.33,3.2.91,5.07-.91,7.35,5,9,5.71,5.9.45-3.08,0-8.08,1.54-12.33,1.92-9.6-1.54-10.9-3.44-15.57C82.63,244.52,73.53,244.65,71.41,243.75Z"/>
    <path d="M95.63,79a32.24,32.24,0,0,0,13.84,6.33c7.33,1.51,7.36,1.8,13.75.91,7-1,7.27-5.43,9.61-9.32,5.46-9.08,4.16-19.29,2.08-26.69-.17-.63,1.21-1.69-.15-3.09,1.61-1.94-.44-2.69,0-4.31,1.07-4.17-1.11-6.34-1.68-9.56-.62-3.47-2.31-9-4.08-11.86-28.5-35.64-81.15,26-48.46,46.45,1.46,1.57,3.47,5.33,8.36,2"/>
  </g>
  <g class="skinOverlapLine">
    <path d="M72,260.37c-.79,4.66-2,9.37-1.44,12"/>
    <path d="M69,260.3c-.55,2.52-1.26,4.41-1.26,7"/>
    <path d="M77,270.31a17,17,0,0,0,.4,5.77c1.68,1,2.56,3.48,2.87,4.66"/>
    <path d="M82,277.36c-2.1-2.4-4-1.75-5.1-4.5"/>
    <path d="M179.16,246.72c3-3.6-4-7.82-7.67.48"/>
    <path d="M170.68,251.35c1.75-5,.14-7,.34-10.64-2.5-1.6-5.35-.57-5.55,3.13"/>
    <path d="M160.58,246.26c-2.61-2.74,1.16-5.48,3.35-4.62.6,1.88,2.21,2.35,3.14,4,.67,1.2-1.34,5.49-3,6.05"/>
    <path d="M172.82,231.11c-.77-1.72-3.49-1.86-4.88-4.72"/>
  </g>
  <g class="skinFoldLine">
    <path d="M172.74,228.31a2.34,2.34,0,0,0,.08,2.8"/>
    <path d="M84,55.31c-3.84-9.24-14.2.13-4.84,8.6"/>
    <path d="M84.36,57.66c-2.22,2.82,3.55,5.69,1,6.89-1.32.61-.18-1.35-4.67-3.08-3.55-1.37-.77-6.59.6-5.14"/>
  </g>
  <g class="skinCreaseLine">
    <path d="M159.83,230.83c2.7,2.28,6.25,3.18,10.39,3.1"/>
    <path d="M164.35,237.7a9.54,9.54,0,0,0-8.21,2.27"/>
  </g>
  <path class="lipMaleMedium__noStroke" d="M122.64,67a5.12,5.12,0,0,0,4.18,0c1.11.72.75,1.7,2.64,2.74-1.34.59-1.21,3.87-6.17,4.07s-5.81-3-9-3.55C118.92,69.74,121.1,67.29,122.64,67Z"/>
  <path class="lipBorderLine" d="M113.79,70.21c5.91.77,7.77-1.44,9.13-1,2.21.77,2.13.21,3.66-.2.74-.19,1.45,1,3.18.69"/>
  <g class="lipEdgeLine">
    <path d="M122.64,67a5.12,5.12,0,0,0,4.18,0"/>
    <path d="M120,73.43a8.87,8.87,0,0,0,6.48-.4"/>
  </g>
  <g class="cheekLine">
    <path d="M117.18,59.14c-2,1.17-3.29,5.13-5.34,7.51"/>
    <path d="M128.8,61.31a10.78,10.78,0,0,1,1.63,2.78"/>
  </g>
  <g class="noseLine">
    <path d="M124.72,50.31c1,6.22,6.58,7.75,3.46,12"/>
    <path d="M117.18,59.14c-1.31,1.27-1.27,2.5,0,3.44"/>
    <path d="M125.93,63.05a3.76,3.76,0,0,0,2-1.74"/>
    <path d="M119.37,62.79c-.29-1.87,2.42-1,3.6,0"/>
  </g>
  <g class="eyeFoldLine">
    <path d="M132.68,50.17a3.6,3.6,0,0,1-4-.14"/>
    <path d="M114.62,49.63c-2,1.25-5.61,1-6.85.14"/>
  </g>
  <g class="eyeLashLine">
    <path d="M127.24,46.86c1.6.07,4.14-1.14,7.52.27"/>
    <path d="M103.84,47.54c2.31,0,4.17-1.22,7.83-1.34,2.73-.09,4.16.74,5.26.81"/>
  </g>
  <g class="eyebrowBlack">
    <path d="M118.36,38.31c-3.2,4.27-11.79.22-17.23,4.06C105.69,36,111.32,39.59,118.36,38.31Z"/>
    <path d="M135,40c-2.62-1.51-4.69-.59-7.7-1.51,2.62,3,3.81,1.29,7.68,3A8.31,8.31,0,0,0,135,40Z"/>
  </g>
  <path class="hairBlack" d="M110.28,14.22c2.63,11,14.1,7.27,17.24,10.78a15,15,0,0,0-2.82-3.82c3.93,3.24,14.66,1.82,17,5.08.94-5.48-5.1-14.59-15-16.91,1.48.29,3.82-1.11,4.63-2.3-9.4.12-10-4.19-24.1-4.93-8.14-.42-20.66,2.64-28.37,8.5.39-3.63,2.25-7.71,5-9.9-5,1.74-7.67,6.58-8.2,11.34a7.77,7.77,0,0,0-8.78,3.83,8.19,8.19,0,0,1,6.88-1.35C64,24.6,61.76,57.1,78.46,69.11a4.34,4.34,0,0,0,2.05-1.26C76.83,64.15,72.28,61,74,53.45c1-4.28,7.68-6.53,10.71-1.69,1.42.23,3.77-1.39,5.66-2.2-1-7.28-2.43-6.86,1.89-16A18.56,18.56,0,0,0,99.56,29c-.88,2.14-1.51,3.45-1.44,5.27C100.19,30.08,113,27.89,110.28,14.22Z"/>
  <path class="hairOverlapLine" d="M92.3,33.54a22.93,22.93,0,0,0-7.85,3.12,10.68,10.68,0,0,1,2.93-4.46"/>
  <g class="ashedCross">
    <path d="M185.5,243c-2.7,1.58-1.89,5.35,2.87,7.48C192.36,250.17,191.63,245.32,185.5,243Z"/>
    <path d="M127.25,30.64c-.68-.16-1.3-.31-1.87-.47.4-.87.73-1.68,1-2.38.55-1.55-2.22-2.59-2.72-.89-.27.89-.55,1.69-.83,2.43-3.2-1.21-3.39-2-2.68-.1-1.82,0-4.83-.43-3.4.43a30.16,30.16,0,0,0,5,2.21c-1.51,3.07-2.58,4.07-.85,3.73.35.38-.62,3.8.29,2.4s2-3.31,3-5.26c.87.31,1.69.61,2.42.9C128,34.21,129.3,31.1,127.25,30.64Z"/>
  </g>
</svg>
