<svg viewBox="0 0 1094.86 2428.12">
    <path class="bennettJeans" d="M382.31,1266c70.47-65.29,259.6-195.42,283.34-203.61,77.59-26.74,146.23,30.46,145.23,138.11,21.53,188.9,60.2,146.61,21.64,210,37.86,121.85,50.48,280.59,52.4,455-3,216.37,39.37,266.51,5.7,310.39-3.83,36.49,17.92,48.57,37,71.19-30,22.09-51.06,20.84-78.31,37.8C780.8,2327.4,737,2311.34,704.1,2322.42c-20.32-82.37.22-81.16-14.24-131-24.21-36,2.38-52.88-6.14-187-2.22-35-14.44-94.24-3.83-129.06-14.25-14.84-.7-45.45-5.69-61.22-4.11-13-22.86-22.39,0-49.83-44.18,9.59-11-31.07-33.75-29.84-32.63,5-39.16-14.17-58.81-22.28-259.94-107.28-553.85-28.81-553.2-324C144.84,1372.61,263.68,1332.88,382.31,1266ZM615,1389.76c-11.64,21.62-24.06,38.91-38.08,47.39,19.46,6.78,41.75,18.06,60.93,23.7C618.22,1440.4,608.68,1417.22,615,1389.76Z"/>
    <g class="sockWhite">
        <path d="M695.1,1369.9c-.62,12.88-1.86,28.41-1.62,39.55,39.12-28.76,77.1-23.76,124.63,6,.62-11.54,0-28.31,0-38.7C810.19,1328.24,699.7,1331.36,695.1,1369.9Z"/>
        <path d="M1093.7,2393.29c-3.28-35.06-68.67-28.65-98.62-54.89-36.07-31.61-76-52.27-100.57-73.29-15,5.93-29,9.58-45.18,19.65-58.19,36.21-98.58,30.1-129.56,34.21-1.62,38.37-10.15,77.28,22.8,92.53,44.19,20.47,48.84-17.21,216.77,8.38C1031.2,2430.83,1097.54,2434.41,1093.7,2393.29Z"/>
    </g>
    <path class="bennettShoe" d="M942.42,1511.84c-18.88-6.71-48.32-22.14-63.15-35.53-20.78-33.49,21.05-74.64-13.87-98.08-11.58-7.77-24.4,23.44-22,52.63-10.62-21.14-20.69-39.35-33.48-47.84-52.63-34.93-106.21-18.34-124.87,11,2.87,37.79-22.42,113.73-15.55,168.4C825.22,1620.42,1061.51,1590.38,942.42,1511.84Z"/>
    <path class="soleWhite" d="M1047.44,1621.71c8-49-32.37-86.68-105-109.87,9.09,10.84,16,21.74,17.63,33-64.11-6.22-136.19-18.61-163.06-32.64-64.2-25.32-119-19.09-127.5,50.23Z"/>
    <path class="soleWhiteDark" d="M1012,1583.88c66.26,20,35.35,94-57.11,79.84-63.23-9.69-159.56-31.51-211.81-45-138.3-35.56-55.36-123.82,34-80.19C844.11,1571.3,947.81,1564.46,1012,1583.88Z"/>
    <g class="eye">
        <circle class="sclera" cx="609.26" cy="398.52" r="38.35"/>
        <path class="irisDarkBrown" d="M623.88,421.64c2.49.25,9.47-9.17,10.72-21.54s-3.71-23-6.2-23.24A127.51,127.51,0,0,0,623.88,421.64Z"/>
        <path class="pupil" d="M630.73,408.51c2,.2,3.38-3.6,3.87-8.41s-.12-8.8-2.11-9A68.39,68.39,0,0,0,630.73,408.51Z"/>
    </g>
    <g class="skinEastAsian">
        <path d="M299,1308.52c-79.25-14.21-158.75,7.64-207.77,68.93C160,1363.19,229.39,1340.41,299,1308.52Z"/>
        <path d="M758.2,1645.65c28.63.91,17.18-34.23,7.21-52.41-.39-15.43-1.79-32.48-4.1-51,16.44,34.8,23.89,60.93,39.11,90.88,12.3,24.21,38.38,12.88,34.76-7.62-6.37-36-30.62-74.37-42.8-117.26,8,7.08,16.61,12.65,26.38,15.83,29.32,25.8,59.2,17,63.32-3.52-6.45-10-49.83-17.59-76.21-63.9-25.21-45.73-63.91-48.08-87.22-79.19-73.47-94.53-98.64-164.18-146.89-247.86-29.37,23.81-89.87,52.09-125.79,70.52,48,69.6,130.71,132.55,188.81,213.41,10.44,13.22-4.8,32.56,12.79,101.75,5.28,27.55-11.73,66.25,4.69,86.18,6.45,4.69,25.21,8.79,41.63,7.62,8.4,18.18,22.83,23.3,44.55,16.42C743.21,1632.93,745.93,1644.29,758.2,1645.65Z"/>
        <path d="M612.86,1066.44c-17.88,2.55-51.59-6.13-74-15,10.55,18.9,17.39,47.46,32.85,70.28l26.08-17.8c32-12.47,50.34-.67,74.35-1.7,34.25,22.71,62.71,9.6,62.84-13.24a31.61,31.61,0,0,0,14.82,6.65c8.68,30.14,34.22,40.78,45.23,23.28,11.44,24.16,15.84,51.78,15.87,81.52,12,7.5,22.19-1.33,23.19-10.38,1.34-8-9.71-11.75-12.26-26.57,12.37-2.6,14.72-7.09,16.35-15.32,2.55-5.62-10.19-13.06-17.88-39.34-6.13-20.94-22-30.65-48-41.38-17.2-13.88-22.23-22.31-38.44-28C652.53,1022.24,642.2,1058.28,612.86,1066.44Z"/>
        <path d="M249.13,324.52c9.11,87.75,47.19,162.26-8.35,228,19.92,28.14,137.94,95.41,183.88,99,18-67.68,70.73-126.32,140.72-180.45"/>
        <path d="M379.81,458.23c-20.59,16.38-40.16,2.87-54.54-21.17C100.37,290,516.69-18.35,670,205.06c-11.8,69,20,140.7-13.12,193-17.27,27.31,14.69,62.89,18.27,101.32,3.8,40.78-34.66,16.6-44.74,23.89-2,5.95.17,15.43,7.59,26.27-2.78,8.09-10.55,16.36-13.45,14.94-11.21-6-25.36-.46-31.34,3.14,21.6-3.08,34.32,15.47,24.39,27.32-31.73,1,1.83,57.66-59.84,54.91-15.78-.7-44.85-14.66-80.62-34.86-41.32-23.33-68.37-54.57-83.31-86.41M634,387.83c-15.44,5.45-27,10.52-36,14,13.52,4.87,23.76,11.55,30.79,15.38C633.8,410.69,635.83,394.53,634,387.83Z"/>
    </g>
    <g class="skinOverlapLine">
        <path d="M678.7,1557a186.08,186.08,0,0,0,15.19,52"/>
        <path d="M721.16,1550.73c2.1,49.79,13.1,57.13,17.28,74.76"/>
        <path d="M772.25,1067.46c14.85,15.53,11,40.49,22.76,51.47"/>
        <path d="M821.81,1163.5c-6.5-.08-11.36-4.17-15.43-10.16"/>
        <path d="M645.79,1067.39c35.68-4.14,44.6,1.91,57,9.56,24.21,11.14,30.26,4.45,32.15,12"/>
        <path d="M750.74,1083.94c-1.9,3.21-1.9,8.14-1,11.71"/>
        <path d="M728.56,1069.21c-2.23,6.35-2.23,8.52.13,15.3"/>
        <path d="M701.13,1057.56c-5.14,7.2-5.14,11.43,1.68,19.39"/>
    </g>
    <g class="skinFoldLine">
        <path d="M377.56,370.73c-9.4-75.92-98.18-18.41-50,38.56"/>
        <path d="M374.56,385.33c-18.07,10.87,3.49,31.19-8.47,36.19-8.27,3.45-1.74-10.58-19.54-22.28-25.16-16.54,3.59-47.86,10.72-32.77"/>
    </g>
    <path class="skinEdgeLine" d="M771.2,1502c-15.56,15-33.65-.86-49.4,13.82-16.75,15.6-27.42,2-37.17,10.66-5.21,4.61-7.92,6.54-12.15,6.54"/>
    <path class="shirtWhite" d="M390.89,1130c9.53,19.4,6.1,28.3-6.54,31.6,1,15.66,22.1,36.29,10.89,57.53-4.95,9.39,5.31,14.16-8,32.75,9.37,7.67,13,17.56,9.32,30.28-55,45-147.06,27.15-209.12,49.51-64.24,23.15-114.86,83.17-163.67,76.86-6.8-21.81,9.61-38-.71-48.39-22.61-13,2.17-21.22-4.27-37.72-22.29-12.69-11.26-29.53-10.67-46.64C-22.44,998.89,45.47,697.88,207.53,580l221.9,114.21c22.33,58.05-20.29,112.25-38.54,435.8"/>
    <path class="bennettSleeves" d="M207.53,580c9-9.92,20.11-19.05,33.25-27.48,19.92,28.14,137.94,95.41,183.88,99a236.32,236.32,0,0,1,4.77,42.66c-9.63,1-19.84-.58-30.48-4.12,14.1,30.7,10.52,51.91,19.31,81.17,10.06,33.53,30.09,62.55,34.24,106.66,23,12,12.37,31.1,15.91,44.4,2.36,8.85,23.61,7.67,16.22,31.39,15.43,20.49,9.75,51.82,35.42,79.09,26,9.7,29.21,60.06,55.19,93.92-30.7,26.92-105.65,60.56-140,79.08-21.32-59.8-48.12-63.23-51.17-98.19-3-34.7-42.3-48.18-53.7-121.56-29.14-42.06-42.2-94.28-63.14-150.47-70.86-14.86-99.31-161.16-43.67-237.4C215.85,591.82,210.54,586.51,207.53,580Z"/>
    <path class="clothesDisplayLine" d="M960.05,1544.83c32.1,3.73,61.73,9.27,74.74,23.65"/>
    <g class="clothesOverlapLine">
        <path d="M390.5,1350.78c68.76,23.37,118.26,59.81,186.42,86.37"/>
        <path d="M391.88,1285.46c9.62,21.31,31.25,30.21,28.87,46.06-2.13,14.24,10.32,22.69,13.62,36.74"/>
        <path d="M843.39,1430.86c7.37,18.71,20.21,33.17,35.88,45.45"/>
    </g>
    <g class="clothesFoldLine">
        <path d="M332.08,647.41c21,15.77,45.41,21.93,66.87,42.63-4.47-25.37-45.84-39.13-80-71.54"/>
        <path d="M306.68,688.59C353.11,707,410.87,731.25,414.53,756"/>
        <path d="M219.94,753.42c-14.89-42,2.21-62.52,10.52-4.38,6.13,42.93,28.91,54.32,36.73,86.49"/>
        <path d="M352.23,770.06c14.24,4,32.27,11.5,51.69,23.66"/>
        <path d="M373.26,790.21c29.76,13.21,62.56,26.41,67.88,39.6"/>
        <path d="M271.63,760.43C316.48,825.24,375.7,866.16,452.5,877.87"/>
        <path d="M319.82,848.91c34.6,34.24,73.61,55.08,118.27,58.7"/>
        <path d="M484.63,953.66c-9.74,17.91-26.39,20.53-25.51,37.18"/>
        <path d="M462.62,945.28c-6.13,12.27-28.77,29.52-32.41,42.06"/>
        <path d="M328.58,955.8c15.5,26.34,33.83,46.84,56.07,56.94"/>
        <path d="M330.33,986c14.89,23.87,31.32,43.67,49.06,60"/>
        <path d="M520.05,1032.75c-27.64-7.74-59.25-11.34-81.08-26.14"/>
        <path d="M510.81,1052.17c-25.41-6.14-68.8-2.47-52.57,14.89"/>
        <path d="M385.52,1077.57c17.53,15.77,64,37.68,23.66,43.81"/>
        <path d="M439,1131.89c-14.9,5.26-28.47,16.86-43.79,5.24"/>
        <path d="M188.4,823.51q43.41,25.07,85.57,30.76"/>
        <path d="M216.44,852.42c20.73,11.82,42.36,18.44,64.53,22"/>
        <path d="M238.34,951.42c33.44,64.65,70.87,120,120,148.06"/>
        <path d="M99,852.42c19.3,54.56,45.21,100.42,79.73,134.92"/>
        <path d="M131.46,966.31c24.93,31.4,50.64,56.42,77.09,75.34"/>
        <path d="M64.87,994.34c24.83,47.36,55.17,85.74,92.87,112.14"/>
        <path d="M103.42,1086.33c30.76,34.22,63.19,60.41,98.12,74.47"/>
        <path d="M384.35,1161.56q-20.88-1.11-40.88-14.77"/>
        <path d="M322.45,1123.13c-33.3-21.9-39.67-47.81-49.94-35.92,8.06,55.83,64.83,92.87,105.13,106"/>
        <path d="M395.24,1219.09c-15.77,1.17-30.32-3.45-43.88-12.73"/>
        <path d="M377.64,1239.65c-82.35,2.63-158.57-120-75.34-58.7"/>
        <path d="M387.26,1251.84c-84,45.58-200.28,35-215.5,11.47-17.26-26.65,92.86-7,154.19-12.27"/>
        <path d="M135.84,1280c73.56,16,5.25,39.43-96.37,25.41"/>
        <path d="M18.81,1322.38c13.35,6.46,22.82,13.15,4,21.53"/>
        <path d="M23.08,1360.1c38.29-.42,105.19-9.71,18.14,18"/>
        <path d="M138.47,1223.88c75.34-9.64,195.36,15.77,86.73-18.4"/>
        <path d="M321.5,1403c22.63-28.72,51.35-54,69-52.18-11.55-46.18-97.73,35.65-142.12,94"/>
        <path d="M211.82,1386.43c52.42-25,87.34-39.19,94.33-32.62s-78.44,34.91-123,94.42"/>
        <path d="M296.25,1440.39c-32.47,29.5-51.36,60.4-63.54,91.4"/>
        <path d="M442.49,1262.82c-4.8,32.67-7.27,64.11-3.48,92.27"/>
        <path d="M457.29,1237.58c-5.82,44.48-4.48,92.33,3.25,143.2"/>
        <path d="M494.72,1265.43c-.94,30.4,3.18,59.2,13,86.18"/>
        <path d="M699.27,1184.48c82.69-70.5,57.45,31.34-13.06,145.37"/>
        <path d="M616.58,1188c7-43.59,19.76-58.73,18-60.8-1.33-1.61-13.07,2-18,32.95"/>
        <path d="M631,1192.12c12.33-33.14,24.81-63,35.82-57.52,15.09,7.52-3.8,35.05-33.06,67.85"/>
        <path d="M790,1671.18c-50.27,51.32-114.69,111.19-29,80.42"/>
        <path d="M640.32,1634.68c-1.49,40.22,22.34,11.18,41.7,4.47,27.49-9.51,11.92,33.51-47.66,67.77"/>
        <path d="M685,1784.37c17.87-22.34,8.19-32.77-10.8-20.08"/>
        <path d="M640.45,1734.45c48.27-45.4,105.62-82.64,118.28-74.45,18.61,19.37-55.86,37.24-102,82.9"/>
        <path d="M755.75,2129.91c-19.36,5.22-42.41,24.15-57.34,8.94"/>
        <path d="M890.62,2175.77c-25,37-123,79.25-27.63,76.28"/>
        <path d="M711.07,2191.72c72-27.49,131.18-43.58,137.77-20.85,6,20.76-50.64,37.24-105.75,87.88"/>
    </g>
    <g class="head50__edited">
        <path class="lipMaleMedium__noStroke" d="M590,568.35c11.31-10.83,31.73-12.11,48.08-18.86-2.78,8.09-10.55,16.36-13.45,14.94-11.21-6-25.36-.46-31.34,3.14,21.6-3.08,34.32,15.47,24.39,27.32C602,590.78,592.71,582,590,568.35Z"/>
        <path class="lipEdgeLine" d="M617.63,594.89a41.28,41.28,0,0,1-16.6-7.58"/>
        <path class="cheekLine" d="M586.7,571.49c4.07-5.15,5.15-9,8.58-13.77"/>
        <path class="noseLine" d="M647.37,516.94c-14.77-4.11-23.27,2.63-29.71-.14-11.44-4.94-11.14-18.68-.51-25.21"/>
        <g class="eyeLidLine">
            <path d="M634,387.83c15-4.21,8.57-20,8.57-20"/>
            <path d="M628.78,417.22c5.18,2.95,9.13,11.17,4,14.61"/>
        </g>
        <path class="eyeCornerLine" d="M598,401.84a56,56,0,0,1-7,1.6"/>
        <path class="eyeCreaseLine" d="M611.12,384.12c11.27-5.42,23.48-10.64,32.82-9.56"/>
        <path class="eyebrowBlack" d="M658.86,335c-19,32.62-52.44,3.94-78.12,22.9C604.26,326.52,625.31,351.53,658.86,335Z"/>
        <path class="hairBlack" d="M651.51,216c-13.94,60.23,8.17,100.22,55.25,118.43C684.54,301.92,727.92,274,689.57,219a127.15,127.15,0,0,0,34.12,17.4c-30.47-37.55-34.83-114.14-143-163.21C530.77,50.51,434.29,33.39,361.79,49c4-22,23.74-38.69,48.25-47.89-40.16-1.74-68.43,29.2-68.59,51.84C330.54,30,296.89,16,271.59,26.74c25.13-2.48,43.09,16.56,51.17,32.18-114.18,39.67-202.61,255.7-65.23,393.79,23.52,2.72,45.35-.94,67.74-15.65-17.54-31.59-43.59-58.09-16.76-99.8,19.61-30.48,81.16-28,79.28,17,18.16,6.3,36.12,9.29,58.7,12.37,9.21-44.54,12.61-35.09,53.74-64.53,14-3.13,64.49,8.15,110.41-53.73-8.12,16.38-8,26.53-6.87,37.71C614.72,257.82,637.13,274.53,651.51,216Z"/>
        <path class="hairOverlapLine" d="M500.23,302.14c-20.44-.82-35.85,7.17-45.54,10.32,2.95-8,11.56-21.55,20.08-26.37"/>
    </g>
</svg>
