<svg id="presence" xmlns="http://www.w3.org/2000/svg" viewBox="0 0 726.88 2482.83">
  <defs>
    <style>
      .cls-1 {
        fill: none;
        stroke: #000;
        stroke-miterlimit: 10;
        stroke-width: 2px;
      }
    </style>
  </defs>
  <title>showAnnoyed</title>
  <g id="bennettSoleSide">
    <path class="cls-1" d="M668.55,2374.51c34.58,14,59.78,21.46,57.14,77.65-26,25.39-92.22,19.55-133.53,25.39-60,8.48-140.92,4.33-159-12.22-6.09-10.17-3-29,.88-46.15Z"/>
    <path class="cls-1" d="M355.72,2379.88c11.44,13.76,27,28.31,14.75,76.6-21.08,15.8-52,8.41-74.64,14.05-55.79,13.88-147.5,4.82-154.53-6.59-4.19-16.18-2.6-29.78,3.42-41.41Z"/>
  </g>
  <g id="bennettShoe">
    <path class="cls-1" d="M591.26,2273.27c13,35.81,38.46,79.91,66.42,94.33,27.3,14.08,33,36.93,31.25,64.3-32.93,8.93-63.39,3.27-93.21,7.37-66.79,9.19-146-2.79-161.65-20.09-1.11-38,24.91-89.54,38.86-148.14Z"/>
    <path class="cls-1" d="M291.54,2255.41c7.25,53,29,91,64.18,124.47q9.51,25.77,3.35,49.11c-23.44,5-46.37,2.4-69.77,6.14-55.81,8.93-129.72-2.56-144.58-12.6-8.9-41,20.68-94,25.14-154.84Z"/>
  </g>
  <path id="converseLogo" class="cls-1" d="M285.57,2399.22c20.57-2.37,20.66-77,0-74.66C265.35,2326.88,266.49,2401.42,285.57,2399.22Z"/>
  <g id="clothesDisplayLine">
    <path class="cls-1" d="M359.07,2429a46.73,46.73,0,0,0,15.9-4.65"/>
    <path class="cls-1" d="M688.93,2431.9c13-2.81,24.42-6.91,34.14-12.39"/>
  </g>
  <path id="bennettJeans" class="cls-1" d="M662.35,967.6c33.77,101.32,4.52,181.28,15.58,254.6,10.4,68.84-13.11,104.3-1.29,179.26,7.79,49.45-15.59,191-9.1,203.94,9.1,18.18,12.66,42-7.79,68.84-9,11.78,19.48,44.17-7.8,89.63,9.65,66.28-10.37,249-10.39,306.56,0,49.57,23.17,61.79-15.58,109.11-5.2,22.08,32.47,59.75-16.89,81.84,14.29,57.15-131.2,70.14-145.49,22.08-6.49-22.08-39-33.77-15.58-74-31.49-23.64,3.51-58.4,2.59-109.12-1.85-102.88-13.68-200.75-11.69-292.26-15.59-28.58,1.3-58.46-2.6-75.35-23.38-28.57,4.56-53.18,2.6-74s-41.63-267.44-50.76-388.1c-15,119.24-16.62,253.57-28.47,373.81-3.61,36.57,12,59.61-14.29,87-7.8,10.39,20.78,19.48,3.89,41.56-2.51,102.22-12.69,219.23-35.07,348.13-8.37,48.19,20.78,75.34-11.69,103.92,16.92,55.07-52,87-136.2,69.71-26.17-22.95-43.06-32-14.48-60.62-45.46-29.88-5.2-42.87,3.9-61-60.14-24.29-10.38-91-13-146.79-5-106.33-13-202.85-2.6-281.87-14.62-18.24,1.11-43.6-2.6-68.85-6.49-44.17-14.29-288.37-9.09-436.46-23.38-74-14.29-185.75,23.38-274.08Z"/>
  <g id="clothesDisplayLine-2" data-name="clothesDisplayLine">
    <path class="cls-1" d="M388.16,1270.55c-37.18-33.34-35.37-141-18.18-210.64"/>
  </g>
  <g id="clothesOverlapLine">
    <path class="cls-1" d="M178.2,1254.4c72.37,66.94,172,1.6,210,16.15,113.66,43.58,178.37-10,179.93,8.28,0,11.76-41.61,29.56-82.32,21.42"/>
  </g>
  <g id="clothesFoldLine">
    <path class="cls-1" d="M324.75,1292.4c-46.32,14.24-92.14,18.15-136.6-6.34"/>
    <path class="cls-1" d="M326.56,1340.34c46.29-61.39,56.72-52.09,30.75,29"/>
    <path class="cls-1" d="M429.68,1316.82c-24.87-38.48-17.19,32.57,23.52,88.65"/>
    <path class="cls-1" d="M538.24,1410c24.74,116.41,54.81,215.91,111.26,231.58"/>
    <path class="cls-1" d="M610.6,1677.76c-49.75,17.19-118.5-10.85-118.5,15.38,0,13.69,87.75,29.85,138.41,25.33"/>
    <path class="cls-1" d="M179.1,1689.52c45.5-11.28,102.6-12.77,102.23,2.71-.4,16.51-77.8,10-112.18,38"/>
    <path class="cls-1" d="M474.91,1732.94c98.61-6.33,158.31,20.81,35.28,28"/>
    <path class="cls-1" d="M338.32,1719.37c-48.85,26.24-137.64,4.65-134.79,24.43,2.42,16.86,54.28,21.71,90.46,16.28"/>
    <path class="cls-1" d="M612.41,2091.17c-19,109.46-157.4,123.93-146.54,29.85"/>
    <path class="cls-1" d="M448,2209.42c32.32,10.2,89.31-2.46,22.37,26.49"/>
    <path class="cls-1" d="M626,2179.54c-34.37,22-101.31,39.18-6.33,41.89"/>
    <path class="cls-1" d="M155.75,2173.05c9.79,2.25,30.59-1.37,25.16,23"/>
    <path class="cls-1" d="M151.85,2234.1c18.21,4.52,38.43,6.51,7.35,23.52"/>
    <path class="cls-1" d="M302.53,2225c-18.49,10-49.86,3.07-27.54,25.37"/>
    <path class="cls-1" d="M259.61,2267.57c-29.68-10.87-56.93-9.84-80.51,9"/>
    <path class="cls-1" d="M549.09,2284.76c50.79-35.57,46.28-50.13,0-35.67-29,9-80.51-14.09-52.47,17.57"/>
    <path class="cls-1" d="M275.9,2184.34c11.76,35.28-81.84,49.88-85.94,34.38-4-15.27,54.28-18.09,34.37-56.09"/>
  </g>
  <path id="bennettHoodie" class="cls-1" d="M666.25,907.24c-5.45,40.55,11.7,71,7,74.09-58.42,16.48-140.69,14.15-230,6.24a701.82,701.82,0,0,1-228.48-4.68C166.39,882.29,194.46,908,666.25,907.24Z"/>
  <g id="skinEastAsian">
    <polyline class="cls-1" points="326.01 0.04 322.75 79.46 513.94 106.84 510.96 30.5"/>
  </g>
  <path id="bennettJacket" class="cls-1" d="M668.84,341.19c26,159.66,8,378.42,19.52,572.19-3.72,13.14-40.09,14.23-102.15,13.48-3,22-4.08,50.37-3.64,72.9-51.19,23.31-100.85.93-149.45-7.29,4.4-25.06-.43-47.59,4.86-65.61a1530.71,1530.71,0,0,1-218.72,1.21c8,17.2,10.34,37.7,17,47.39-17.58,31.78-122.91,28-145.81,27.95C67.38,956,61.4,891.61,47.94,836.94,28.64,758.63,1.76,704.5,6.62,649.82-11.6,628,20,608.51,23.63,561.12c-9.72-36.45,22.71-28.77,29.17-68.05,7.14-43.42,26.8-70.92,54.68-137.3,18.6-44.31,30.37-109.36,64.39-171.32,1.28-27.28,34-31.6,58.33-46.18,191.48-9.66,411.4-28.75,432.56,18.23,7.15,15.86,40.1,18.22,20.66,51C716.12,243.18,673.7,279.22,668.84,341.19Zm0,0c26,159.66,8,378.42,19.52,572.19-3.72,13.14-40.09,14.23-102.15,13.48-3,22-4.08,50.37-3.64,72.9-51.19,23.31-100.85.93-149.45-7.29,4.4-25.06-.43-47.59,4.86-65.61a1530.71,1530.71,0,0,1-218.72,1.21c8,17.2,10.34,37.7,17,47.39-17.58,31.78-122.91,28-145.81,27.95C67.38,956,61.4,891.61,47.94,836.94,28.64,758.63,1.76,704.5,6.62,649.82-11.6,628,20,608.51,23.63,561.12c-9.72-36.45,22.71-28.77,29.17-68.05,7.14-43.42,26.8-70.92,54.68-137.3,18.6-44.31,30.37-109.36,64.39-171.32,1.28-27.28,34-31.6,58.33-46.18,191.48-9.66,411.4-28.75,432.56,18.23,7.15,15.86,40.1,18.22,20.66,51C716.12,243.18,673.7,279.22,668.84,341.19Zm0,0c26,159.66,8,378.42,19.52,572.19-3.72,13.14-40.09,14.23-102.15,13.48-3,22-4.08,50.37-3.64,72.9-51.19,23.31-100.85.93-149.45-7.29,4.4-25.06-.43-47.59,4.86-65.61a1530.71,1530.71,0,0,1-218.72,1.21c8,17.2,10.34,37.7,17,47.39-17.58,31.78-122.91,28-145.81,27.95C67.38,956,61.4,891.61,47.94,836.94,28.64,758.63,1.76,704.5,6.62,649.82-11.6,628,20,608.51,23.63,561.12c-9.72-36.45,22.71-28.77,29.17-68.05,7.14-43.42,26.8-70.92,54.68-137.3,18.6-44.31,30.37-109.36,64.39-171.32,1.28-27.28,34-31.6,58.33-46.18,191.48-9.66,411.4-28.75,432.56,18.23,7.15,15.86,40.1,18.22,20.66,51C716.12,243.18,673.7,279.22,668.84,341.19Zm0,0c26,159.66,8,378.42,19.52,572.19-3.72,13.14-40.09,14.23-102.15,13.48-3,22-4.08,50.37-3.64,72.9-51.19,23.31-100.85.93-149.45-7.29,4.4-25.06-.43-47.59,4.86-65.61a1530.71,1530.71,0,0,1-218.72,1.21c8,17.2,10.34,37.7,17,47.39-17.58,31.78-122.91,28-145.81,27.95C67.38,956,61.4,891.61,47.94,836.94,28.64,758.63,1.76,704.5,6.62,649.82-11.6,628,20,608.51,23.63,561.12c-9.72-36.45,22.71-28.77,29.17-68.05,7.14-43.42,26.8-70.92,54.68-137.3,18.6-44.31,30.37-109.36,64.39-171.32,1.28-27.28,34-31.6,58.33-46.18,191.48-9.66,411.4-28.75,432.56,18.23,7.15,15.86,40.1,18.22,20.66,51C716.12,243.18,673.7,279.22,668.84,341.19ZM185.73,563.87c-9.83,23.44-28,6-25.71,82.43,28,40.84-9.83,13.61,24.2,127.05,20.42-111.17-9.83-108.9-6.81-144.44C179.42,605.38,197.83,602.44,185.73,563.87Z"/>
  <path id="bennettHoodieInner" class="cls-1" d="M285.76,106.84c8.55-24,22.93-44.58,60.1-42.48,64,3.61,136.66-4.19,168.08,42.48Z"/>
  <g id="bennettHoodie-2" data-name="bennettHoodie">
    <path class="cls-1" d="M117.54,1003.54c2,8.4-.14,12.08,7.11,17,26.53,9.36,91.76-4.47,108.15-19.29,2.17-6.12-2.08-8.21-5.32-16.51C204.53,1000.79,151.73,1003.32,117.54,1003.54Z"/>
    <path class="cls-1" d="M442.78,994.27c-1.13,6-2.26,10.87.25,12.43,19.51,6.46,71.35,30.65,124.41,11.14,2.15-.79,1-6.07.06-12.48C525,1017.81,483.5,1002.49,442.78,994.27Z"/>
    <path class="cls-1" d="M580.48,128.47c-47,31.1-126.58,197-249.45,157.72-35.42-11.32-47.74-40.37-67.48-62.93-31.84-36.39-57.41-98.45-34.88-113,15.93-10.27,29.35-9.6,158.47-9.1C455.53,101.46,541.4,81,580.48,128.47Z"/>
  </g>
  <g id="clothesOverlapLine-2" data-name="clothesOverlapLine">
    <path class="cls-1" d="M178.69,227.82c-10.53,86.57-19.89,189.52,7,336.05"/>
    <path class="cls-1" d="M184.22,773.35c7.33,52.27,23.71,99.06,35,154.72"/>
    <path class="cls-1" d="M586.21,926.86c7.78-34.56-.7-45.89.76-73.17,3.51-65.51,8.58-120.24,2.34-193,26.86-8,3.51-35.1,15.2-69,27.72-12.91,31.59-153.26,64.33-250.46"/>
    <path class="cls-1" d="M438,926.86c5.09-107.09-10.88-231.3,3.92-279.06-10.52-33.93,18.72-36.27,10.53-64.34C439.56,546,466.92,546.08,470,525a2281.17,2281.17,0,0,1,52.64-256.2"/>
  </g>
  <g id="clothesFoldLine-2" data-name="clothesFoldLine">
    <path class="cls-1" d="M683.42,207.53c-27.2-25.37-73.74-9.91-40-32.34"/>
    <path class="cls-1" d="M523.88,243.11c13.93-54,37.73-37.73-1.26,25.65"/>
    <path class="cls-1" d="M512.27,214.66c-14.54,43.86-18.49,84.33-6,119.53"/>
    <path class="cls-1" d="M467.57,279.09a291.83,291.83,0,0,0,24.3,120.72"/>
    <path class="cls-1" d="M409,284.91a807.13,807.13,0,0,0,18.57,178.77"/>
    <path class="cls-1" d="M311.64,277a514.62,514.62,0,0,0-25.88,97.26"/>
    <path class="cls-1" d="M256.51,214.66C239,282.47,234.22,351.78,245.84,423.05"/>
    <path class="cls-1" d="M212.85,207.12c-18.09,53.4-20.81,119.15-17.51,185.16"/>
    <path class="cls-1" d="M275.44,206.54c16.83,11.61,34.76,24.7,43,43.53"/>
    <path class="cls-1" d="M307.37,152.56c70.23,16.25,159.62-23.8,159,4.64"/>
    <path class="cls-1" d="M438,211.76c-26.82.39-49.74,12.52-65.59,45.86"/>
    <path class="cls-1" d="M158.77,547.26c-21.37,16.19-43.53,26.51-66.75,29"/>
    <path class="cls-1" d="M172.57,580.22A150.76,150.76,0,0,1,118.14,592"/>
    <path class="cls-1" d="M105.37,615.76c20.89,13.93,46.43,16.37,54.65,30.54"/>
    <path class="cls-1" d="M97.24,629.69c21.44,11.19,40,24.12,47,44.11"/>
    <path class="cls-1" d="M28.17,627.37c-10,4.93-18,11.68-21.55,22.45"/>
    <path class="cls-1" d="M23.63,561.12c2.8,5.88,8.39,8.66,9.18,14.59"/>
    <path class="cls-1" d="M118.14,775.38c22,63.9,45.45,119.78,75.46,137.57"/>
    <path class="cls-1" d="M547.8,779.54c4.7,48.73,13.72,89.05,31,113.36"/>
    <path class="cls-1" d="M589.31,660.67c-8.75-3.35-7.7-13.77-14.94-13.09"/>
    <path class="cls-1" d="M589.74,618.91c2.4,9.19,11.85,10,13.07,20"/>
    <path class="cls-1" d="M601.33,541.41c-13.7,15.72-28.32,26.91-44,33.15"/>
    <path class="cls-1" d="M604.51,591.65c-4.47,11.47-60.31-1.51-49.12,27.66"/>
  </g>
</svg>
