<svg viewBox="0 0 362.76 231.86">
  <path class="wall" d="M341.48,159.26C384,129.8,356.21,42.55,304.09,44.82c-5.67-29.47-51.28-46.18-72.81-24.08-19.26-26.06-71.67-27.2-91.22-2C94.46-8.16,40.92,16.2,33.55,61.81c-30.31,3.4-43.91,49.58-22.95,69.12C1,143.64.62,160.15,6,175.05h336.8A26.14,26.14,0,0,0,341.48,159.26Z"/>
  <path class="floor" d="M68.39,209.69c17.57,26.91,71.39,29.18,94.9-.29,18.13,29.18,80.17,29.47,97.74-.28,32.66,19.17,76-7,81.78-34.07H6C15.4,201,42.3,222.11,68.39,209.69Z"/>
  <g class="bennettJeans">
    <path d="M48.18,155.52c-4.19,5.8-5,12-.33,18.74l6.21,16.07a70.4,70.4,0,0,0,31-.49A14.31,14.31,0,0,0,93.26,185c4.38,1.21,7.43-.37,10.59-3.29,3.05-3.17,2.65-7.43.86-11.32A49.47,49.47,0,0,0,86.44,153Z"/>
    <path d="M313.39,181.06c-3.76,5.93-8.72,9.71-15.63,10-8.52.47-17.91-3.62-27.15-10.08l-20.91-2.18c.82-8.61,1.55-16.16,3.7-21.86,3-6.38,8.26-7.28,14.42-6.05a32.69,32.69,0,0,1,12.1,5.89C302.94,151.76,312,162.13,313.39,181.06Z"/>
    <path d="M207.12,154.94c10.27,12.3,6.17,16.76,0,16.84l-42.62-.13c-7.95-1.08-7.46-9,.12-16.27"/>
  </g>
  <path class="bennettShoe" d="M57,175.2a9.73,9.73,0,0,0-10-2.29c-5.94,1.6-10.86,4-13.31,7.88-3.3,4.53-2.17,10.46,1.7,13,6.64,4.19,12.1-1.4,19.37-3.34C51.7,185.27,53,179.83,57,175.2Z"/>
  <path class="bennettSoleBottom" d="M254.27,175.08c5.09,1.85,9,3.13,13.39,3.3a6.9,6.9,0,0,1,7.3,6.09,8.32,8.32,0,0,1-6.26,9.23c-6.66,1.54-20.15.41-23.89-1.64-7-3.34-7.07-13.61-1.74-16.87C246,173.17,249.92,173.66,254.27,175.08Z"/>
  <g class="shirtWhite">
    <path d="M311.53,118.18c5.7,10.19,8.87,20.59,8.06,34a90.14,90.14,0,0,1-6.2,28.92c-1.47-7.23-6.05-12.84-14.61-15.64a126.76,126.76,0,0,0-23.47-4.72c.89-5.17,4.28-8.56,4.14-13.73a74.72,74.72,0,0,1-4.15-12.85C270.4,105.83,290,110.69,311.53,118.18Z"/>
    <path d="M207.12,154.94c-13.79,7.6-28,8.22-42.5.44l-3.4-38.67c6.2-23.91,43.84-21,48,1.18Z"/>
    <path d="M61.7,158c-4.94.22-9.55-.36-13.52-2.44,2.12-6.29,2.42-14.9,2.12-24.28,7.17-43.51,44.32-36.5,43.83-5.87Z"/>
  </g>
  <g class="bennettSleeves">
    <path d="M84.15,99.7c4.4.86,7.69,5.14,10.63,10.54,2.35,4.71,3.42,12.81,4,20.37l-7.5-4a52.78,52.78,0,0,0,.59-10.59,64.4,64.4,0,0,0-8.82-12.28,12.74,12.74,0,0,1-9.19-.22c-2.71,6.48-7.16,11.09-14.12,13-1.54,1.93-3.92,7.51-5.78,12.67a11.55,11.55,0,0,0,3.61,3.88c.77,2.44-6.15,10.94-9.52,11.23a14.59,14.59,0,0,1-5.91-6,9.55,9.55,0,0,1-1.37-7.55,150.4,150.4,0,0,1,9-22.93c3.37-7,9.6-9.9,17.38-11.56Z"/>
    <path d="M194.74,96.47a30,30,0,0,1,10.82,2.85,14.31,14.31,0,0,1,8.56,10.22,182.79,182.79,0,0,1,5.47,26.39c-.82,2.55-10.82,3.56-13.32,1.19a118.16,118.16,0,0,0-1.78-18.43,47.05,47.05,0,0,1-11.41-16.16,42.81,42.81,0,0,1-18.3.12,70.84,70.84,0,0,1-6.9,13.31A43.44,43.44,0,0,0,164,126.85l-9.52-2a68.65,68.65,0,0,1,6.9-17.83c1.75-4.11,5.62-7.59,11.51-10.48"/>
    <path d="M296.69,105.42c7.17,2.37,12.85,6.38,14.84,12.76-.57,5.82-2.34,10.21-6.18,13.36-3.32,7.94-8,14.67-15,19.87a26.48,26.48,0,0,1-9.53,3.72c-2.37-1.29-5-11.19-3.11-14.06a23.11,23.11,0,0,0,9.74-5.81,23.57,23.57,0,0,0,4.36-6.95c-3.57-2.88-4.65-8.13-5-14.06l-5.66.32c-4.07,5.74-5.72,12.37-5.81,19.55-4.5,5.31-10.84,11.76-17.29,4.85l11-19.23a61.28,61.28,0,0,1,15-9.95Z"/>
  </g>
  <g class="clothesOverlapLine">
    <path d="M204.49,118.69a58,58,0,0,1-1.59-7.45"/>
    <path d="M291.78,128.31a12.48,12.48,0,0,0,1.47-3.9"/>
    <path d="M275.31,160.7c-5.42-.49-9.2-2.18-12.58-.69-4.28,1.69-6.67,9-4.48,13.33.8,1.78,3.31,3.25,6.36,4.74"/>
    <path d="M269.89,155.93c2,1.48,2.91,3,2.87,4.45"/>
    <path d="M81,161.89c9.52,4.76,17.78,14,12.22,23.09"/>
    <path d="M76.92,178.37a27.12,27.12,0,0,0-17.67-4.94A5.1,5.1,0,0,0,57,175.2"/>
    <line x1="59.78" y1="116.57" x2="61.63" y2="113.37"/>
  </g>
  <path class="bookPageLight" d="M147.51,119c10,4.44,21.82,6.31,34.81,6.52-2,14.2-3.44,29-4.42,44.24-12.85-.77-24.58-2.59-33.6-6.92C146.46,149.87,147.34,135,147.51,119Z"/>
  <g class="guitar">
    <path class="guitarDark" d="M95.85,124.53a29.32,29.32,0,0,0-8.21-1.9c-4.08-.33-8.23,1.57-10.85,3.13-3.52,1.61-7.61.19-11.57,1.65-5,1.72-10.5,4-11.7,10.46a35.59,35.59,0,0,0-.21,12A31.19,31.19,0,0,0,55,156.37c1.5,3,2.26,4.8,4.83,6.5,3.71,1.23,7.55,2.54,11,2.83Z"/>
    <path class="guitarNeck" d="M134.86,116.86l-3.16-.74c-1.58,2.52-5.1,5-9.1,7.47L100.66,131l.57,2.26C118.08,131.08,131,126.6,134.86,116.86Z"/>
    <path class="guitarLight" d="M99.86,128.92c-2.84-5.9-7.7-6.27-12.77-2.29-2.57,2.21-5.61,2.15-9.49,2.13-7,.08-12.91,2.08-14.79,7.4-1.89,4.09-1.67,9.5-.81,14.61.7,4.21,1.83,8.39,4.39,11.94,3.68,5.47,11.11,3.27,17-3,3.4-3.55,5.38-5,8.94-5.88,5.83-1.22,7.36-3.13,9-7.5C102.42,142.13,101.67,132.82,99.86,128.92Z"/>
    <path class="guitarHeadstock" d="M134.86,116.86c2,3.41,2.52,6.17,1.34,10.78-2.79,0-6.76,1.46-10.33,3l-.76-6.51A23.29,23.29,0,0,0,134.86,116.86Z"/>
    <polygon class="guitarFretboard" points="125.17 124.67 91.44 136.77 92.12 143.59 125.8 130.06 125.17 124.67"/>
  </g>
  <ellipse class="soundHole" cx="87.31" cy="141.38" rx="7.39" ry="5.11" transform="translate(-58.79 220.54) rotate(-86.75)"/>
  <g class="melodica">
    <path class="melodicaBody" d="M271.85,109.06c-.5,1.45.22,2.66.59,4.42a10.46,10.46,0,0,1-1.08,5.75l-20.07,37.19c-1,1.77-2.2,2.28-3.57,2.14-2.51,0-5-1.08-7.16-1.87-2.89-1.16-3.34-3.76-2.48-5.13l22.08-37.94a9.71,9.71,0,0,1,3.67-3.15,8.51,8.51,0,0,0,3.69-2.93C268.74,106.59,271.28,107.47,271.85,109.06Z"/>
    <path class="melodicaKey" d="M260.16,113.62a10.52,10.52,0,0,1,8.35,2.39L247.4,154.38a22.86,22.86,0,0,0-9.32-2.82Z"/>
  </g>
  <g class="skinEastAsian">
    <path d="M203,79.89c-1,6.64-3.44,12-8.72,14.55a16.11,16.11,0,0,0,.46,2c-2.64,3.61-17.74,4.24-21.88.1a12,12,0,0,0,.28-2.3c-4.72-2.7-7-8.19-7.32-14.29C149.81,50.32,219.29,47.42,203,79.89Z"/>
    <path d="M108.5,73.27A22.43,22.43,0,0,0,105,81.16c-2.3,12.43-9.64,19.15-20.84,17.13a3.91,3.91,0,0,0,0,1.41c-4.07,3.86-14.76,1.32-17-3.44,2-3.76,2.08-8,.41-12.63C60.28,50.81,106.61,42.32,108.5,73.27Z"/>
    <path d="M54.36,133.4c2.62,2.44,5.22,4.47,7.66,5.28,1.95.71,4.45.9,5.48-.19,1.38-1.62,4.31-2.12,7.84-2.27,2.44,0,4.45.37,5,1.7,2.32.73,3.63,2.28,3.16,5.52a9.64,9.64,0,0,1-9.13,8.24c-3.91.21-8.32-.15-10.52-2.23-1.49-1.66-2.44-2.55-4.15-3.07a79.39,79.39,0,0,1-11.73-4.63C47.28,139,52.12,133.48,54.36,133.4Z"/>
    <path d="M218.26,136.11c-.53,3.51-1,7.56-1.42,10.55a3.26,3.26,0,0,0,1,3,5.41,5.41,0,0,1,1.42,4.8c-.12,1.83,1,2.68,2.24,3.52,2.31,1.67,1.24,5.84-2,5.35-2-.25-3.62-.85-4.62-2.57-.56,1.65-1.37,2.69-3.83,2.63-2.61,0-3.49-1.41-3.71-2.76a5.19,5.19,0,0,1-4.28,2.79c-4.72,0-4.95-3.9-3.1-4.69a3.86,3.86,0,0,0,2.29-2.91c-3,.7-5,.41-7.27-1.53-1.35-1.27-1-3.11.89-4.22,1.56-.92,3.25,1.63,7.53-1.29a8.74,8.74,0,0,1,5.14-1.83,40.17,40.17,0,0,0-.4-10.41C209.4,133.94,216.64,133.74,218.26,136.11Z"/>
    <path d="M147.22,131.79l-.18,4.59c3.12-.19,6.69.41,8.29,3.82.8,2.71-1.6,9.23-4.61,10.23-3.21,1.21-7.33.8-9.63-2.11-3.22-4.21-1.9-9.65,1.73-14.31A7.56,7.56,0,0,1,147.22,131.79Z"/>
    <path d="M124.78,130.46c-3.21-2.85-12.41-1.44-12,4.82l-11,4.41a29.66,29.66,0,0,1-.24,5.43,82.37,82.37,0,0,0,9.7-1.24c2.07.15,4,1,6.83-.1s5.86-4.44,7.19-7.4A5.57,5.57,0,0,0,124.78,130.46Z"/>
    <path d="M279.19,142.25c2.37,2.18,3.75,8.11,2.4,10.46-6.07.09-14.89-1.76-17.39-2.47-3.79,1.13-8.92.92-10.72-.58a22.65,22.65,0,0,0-5.87-3.68c-1.83-.68-2-4.62-.61-7.08,1.65-2.67,3.8-4,6.81-3.75,4.06-.31,7.38,2.75,10.48,5.91a4.78,4.78,0,0,0,3.87,1.73A70.49,70.49,0,0,0,279.19,142.25Z"/>
    <path d="M261.17,121c-.32,3.56-2.16,6.6-5.46,9.33a6.56,6.56,0,0,1-5.87,1,5.41,5.41,0,0,1-1.11-5.28,14.1,14.1,0,0,1,6.16-8.13C257.62,116.22,261.55,118.31,261.17,121Z"/>
    <path d="M294.8,96.17c-6.2-31.65-18.24-40.86-39.4-15a35,35,0,0,0,2.68,7.77c1.29,2.62,1.89,7.28,2.5,12A13.08,13.08,0,0,0,265,109.6l.2.16a8.93,8.93,0,0,0,2.33-2.22c1.22-1,3.76-.07,4.33,1.52-.45,1.3.09,2.42.47,3.92,3.74.43,7.65-.84,11.65-3.19,4.19,1.08,10.54-.37,12.72-4.37C295.42,103.06,295.09,100,294.8,96.17Z"/>
  </g>
  <g class="skinOverlapLine">
    <path d="M284,109.79a9.32,9.32,0,0,0,3.93-4.93"/>
    <path d="M194.28,94.44c-6.52,3.23-15.22,2.61-21.14-.17"/>
    <path d="M84.15,98.29C81,97.23,79,96.08,77.42,93.68"/>
    <path d="M214.92,160.8a6.32,6.32,0,0,0-.89-3.47"/>
    <path d="M207.38,160.67a4.77,4.77,0,0,1,1.38-3.79"/>
    <path d="M112.8,135.28a16.19,16.19,0,0,0,.41,3.58"/>
  </g>
  <g class="skinDisplayLine">
    <path d="M95.08,73.35c-2.34-1.36-5-1.24-7.87-.13"/>
    <path d="M105,75c-1.66-1.08-3.59-1-5.65-.26"/>
    <path d="M98.83,82.33c2.75,3.17.37,7.38-3.84,6.28"/>
    <path d="M91.82,92.7A16.31,16.31,0,0,0,89,92.45"/>
    <path d="M188.7,83.69c-.84,3.3-6.79,3.56-7.6,0"/>
    <path d="M195.14,73.62a6.94,6.94,0,0,0-6.51-.3"/>
    <path d="M181.57,73.2a6.81,6.81,0,0,0-6.69.36"/>
    <path d="M265.69,87.38a8.83,8.83,0,0,0-5.94-.49"/>
    <path d="M275.43,87.62a10,10,0,0,0-6-.67"/>
    <path d="M264.34,95.71a3.64,3.64,0,0,0,3.19,6.43"/>
  </g>
  <path class="mouthBlob" d="M189.27,90c0-1.25-2.42-1.26-4.57-1.36-2.53-.08-4.52.08-4.62,1.46.06,1.34,2.23,2.24,4.77,2.31C186.82,92.5,188.86,91.45,189.27,90Z"/>
  <g class="eyeBlob">
    <ellipse cx="101.66" cy="78.04" rx="3.19" ry="1.59" transform="translate(-4.58 149.72) rotate(-71.52)"/>
    <ellipse cx="91.7" cy="76.33" rx="3.19" ry="1.59" transform="translate(-9.76 139.1) rotate(-71.52)"/>
    <ellipse cx="272.22" cy="90.75" rx="1.59" ry="3.19" transform="translate(-8.95 33.48) rotate(-6.92)"/>
    <ellipse cx="262.75" cy="90.61" rx="1.59" ry="3.19" transform="translate(-9.01 32.33) rotate(-6.92)"/>
    <ellipse cx="191.64" cy="76.38" rx="1.59" ry="3.19" transform="translate(-2.55 6.73) rotate(-2)"/>
    <ellipse cx="178.27" cy="76.38" rx="1.59" ry="3.19" transform="translate(-2.56 6.27) rotate(-2)"/>
  </g>
  <g class="hairBlack">
    <path d="M279.81,53.81a6.24,6.24,0,0,0-3.33,3.66c-7.41-.89-14.25,1.17-18.44,7.21-4.73,7-6.13,14.25-2.17,22.3,2.69-2.25,4-5.17,5-9,7.57,9,17.5,10.52,28.8,9.78l12.69,5.28c5.18-7.76,5.82-16,2.47-24.62s-9-13.77-17.64-14.74q1.56-5,8.07-8.06c-6.12.53-10.68,2.58-12,7.74-1.11-4-4.11-5.52-8.5-5.27C277.57,49.58,279.82,51.26,279.81,53.81Z"/>
    <path d="M208.52,59.34c.21-8.38-4-14.51-11.34-19.08-7-3.67-13.75-4.49-20.45-1.71.25-3.23,3-5.8,6.29-8.61-5.39,1.79-9.59,5.35-9.88,10-2.79-4-7.54-3.36-11-1.11,4.3-.53,7.3.36,8.27,2.84-5.16,4.27-7.72,10.1-8.66,16.94Z"/>
    <path d="M98.79,58.63a25.43,25.43,0,0,0,12.27,16.3c3.39-7.05,4.3-15.2.09-22.17-5.62-8.4-13.35-11.63-23-10.16-2.51-2.9-5.38-4.4-9-3.12.39-3.44,2.83-6.66,6-9.8-5,2.75-9.09,5.73-9.34,9.71-2.79-3.62-6.44-3.78-10.63-1.74,3.28-.18,5.84.84,7.33,3.67C66.82,44.06,63.29,49.06,61,54.5A26.64,26.64,0,0,0,61.05,77l13-8.71C83.68,72.56,91.58,67.49,98.79,58.63Z"/>
  </g>
  <g class="headphoneBand">
    <path d="M295.58,80.82c-2.66-12.38-10.86-24.28-18.74-24.26l-3.5.76c7.87.52,14.43,10.61,18.79,24.56Z"/>
    <path d="M91.15,42.29,87,41.47C77,44.64,70,55.06,68.64,64.75l4.39.89C73.7,55.18,81.27,44.83,91.15,42.29Z"/>
    <path d="M205.52,59.29c-1.45-12.2-9.43-19.45-20.63-19.45s-19.71,7.68-20.31,18.76C167.06,48.2,202.3,47.87,205.52,59.29Z"/>
  </g>
  <g class="headphoneSpeaker">
    <path d="M288.48,90.41c.79,5.62,3.83,9.83,9.11,9.18,4.63-.58,7.22-6,6.45-11.2-.83-5.62-3.74-9.88-9.1-9.19S287.62,84.25,288.48,90.41Z"/>
    <path d="M61.22,70.94c-1.72,4.84-.2,10.91,4,12.29,5.06,1.63,8.92-1.78,10.78-7.15s1.06-10.5-4-12.28S63.13,65.6,61.22,70.94Z"/>
    <path d="M198.06,67.69c.92-6.08,4.95-10.47,9.29-9.81,5.89.9,6.26,6.72,5.45,12.06-.75,4.93-3.22,10.91-9.8,10,.66-4.37.24-8.53,1.16-11.84Z"/>
    <path d="M172,68c-.66-6.11-4.5-10.67-8.86-10.19-5.93.64-6.64,7-6,11.81.81,5.72,2.6,10.86,8.62,10.36-.47-5.17.59-7.7-.12-11.86Z"/>
  </g>
  <g class="headphoneEdgeLine">
    <path d="M291.39,84.54c-.79,3.67-.52,11.51,4.71,13.61"/>
    <path d="M72.6,66.86c2.16,3.81,0,11-4,13.58"/>
  </g>
  <path class="hairBlack" d="M165.42,55.07c2.46-8.23,11-12.57,19.22-12.61,10.45,0,15.32,5.47,18.48,10.74,2.68,4.78,3.17,13.14,1.79,16.71-8.92,3.73-19.37-.09-23-9.08a19.1,19.1,0,0,1-16.14,10.52A23.86,23.86,0,0,1,165.42,55.07Z"/>
  <g class="mic">
    <circle class="popScreen" cx="176.5" cy="108.05" r="11.07"/>
    <path class="popScreenHolder" d="M176.5,97a11.07,11.07,0,1,1-11.07,11.07A11.07,11.07,0,0,1,176.5,97Zm-13.91,11.07A13.92,13.92,0,1,0,176.5,94.13,13.91,13.91,0,0,0,162.59,108.05Z"/>
    <g class="micStand">
      <polygon points="112.61 161 112.61 185.93 119.43 192.22 103.36 192.22 110.17 185.93 110.17 161 112.61 161"/>
      <rect x="225.74" y="118.07" width="2.44" height="67.85"/>
      <rect x="153.33" y="105.64" width="2.44" height="80.29"/>
    </g>
    <ellipse class="micBack" cx="115.81" cy="163.67" rx="2.84" ry="1.72" transform="matrix(0.59, -0.8, 0.8, 0.59, -84.65, 159.47)"/>
    <g class="micBody">
      <path d="M117.5,161.39c-.77-.56-2.14,0-3.07,1.26s-1.07,2.74-.31,3.3L98,154.13c-1.54-4.08.27-5.82,4.62-5.75Z"/>
      <path d="M114.43,162.65"/>
      <path d="M223.18,117.26l6.43,11.49c4.16,1.32,6.38.17,6.09-4.18l-8.16-10c-.69-.93-2-1.08-3.28-.27A2.25,2.25,0,0,0,223.18,117.26Z"/>
      <path d="M170.6,103.17l-.5,6.78-24-2.93c-.92-.89-.78-3.9.32-4.74Z"/>
    </g>
    <g class="micHead">
      <path d="M93.5,152.57a7.15,7.15,0,0,0,4.5,1.57c-.18-2,3.15-5.62,4.9-5.52a7,7,0,0,0-2.27-4.42,5.52,5.52,0,1,0-7.13,8.37Z"/>
      <path d="M239.29,126.62c-2.21-2.55-4.69-3.46-7.44-1.8s-3.12,5-1.56,7.77a5.6,5.6,0,0,0,7.63,1.8A5.53,5.53,0,0,0,239.29,126.62Z"/>
      <path d="M169.35,106.61c-.2,3.15,1.27,5.29,6,6.1a6,6,0,0,0,6.93-5.3,6,6,0,0,0-6.22-6.12C171.2,101.34,169.54,103.46,169.35,106.61Z"/>
    </g>
  </g>
  <g class="console">
    <g class="fader">
      <rect x="223.73" y="163.49" width="6.46" height="4.2"/>
      <rect x="214.28" y="163.49" width="6.46" height="4.2"/>
      <rect x="204.84" y="163.49" width="6.46" height="4.2"/>
      <rect x="204.84" y="163.49" width="6.46" height="4.2"/>
      <rect x="195.39" y="163.49" width="6.46" height="4.2"/>
      <rect x="185.95" y="163.49" width="6.46" height="4.2"/>
      <rect x="176.5" y="163.49" width="6.46" height="4.2"/>
    </g>
    <path class="consoleScreen" d="M133.34,157.12H169a3,3,0,0,1,3,3v7.59a0,0,0,0,1,0,0H130.36a0,0,0,0,1,0,0v-7.59A3,3,0,0,1,133.34,157.12Z"/>
    <path class="consoleBody" d="M131.07,167.69h99.11a6.9,6.9,0,0,1,6.9,6.9v19.65a0,0,0,0,1,0,0H124.17a0,0,0,0,1,0,0V174.6A6.9,6.9,0,0,1,131.07,167.69Z"/>
    <path class="consolePanel" d="M135.95,175.14h89.36a4.47,4.47,0,0,1,4.47,4.47v14.63a0,0,0,0,1,0,0h-98.3a0,0,0,0,1,0,0V179.61A4.47,4.47,0,0,1,135.95,175.14Z"/>
  </g>
</svg>
