<svg viewBox="0 0 589.14 376.68">
  <path class="wall" d="M554.41,258.67c69-47.81,23.91-189.42-60.69-185.74C484.53,25.11,410.5-2,375.56,33.84c-31.26-42.29-116.32-44.13-148-3.21C153.49-13,66.59,26.49,54.64,100.51,5.44,106-16.62,181,17.4,212.7,1.81,233.32,1.2,260.11,9.94,284.3H556.56A42.25,42.25,0,0,0,554.41,258.67Z"/>
  <path class="floor" d="M111.19,340.51c28.51,43.68,115.86,47.36,154-.46,29.43,47.36,130.12,47.82,158.63-.46,53,31.12,123.36-11.27,132.72-55.29H9.94C25.18,326.44,68.84,360.67,111.19,340.51Z"/>
  <g class="bennettJeans">
    <path d="M78.38,252.6C71.59,262,70.29,272,77.85,283L87.93,309.1a114.34,114.34,0,0,0,50.38-.79,23.29,23.29,0,0,0,13.24-7.91c7.12,2,12-.59,17.19-5.33,4.94-5.14,4.3-12.05,1.39-18.38-5.73-9.88-17.2-21.73-29.64-28.25Z"/>
    <path d="M508.83,294.06c-6.11,9.62-14.16,15.75-25.38,16.21-13.83.75-29.07-5.88-44.05-16.37l-33.95-3.53c1.33-14,2.52-26.23,6-35.49,4.85-10.35,13.41-11.81,23.41-9.82a53.3,53.3,0,0,1,19.64,9.57C491.86,246.5,506.63,263.33,508.83,294.06Z"/>
    <path d="M336.35,251.66c16.66,20,10,27.2,0,27.33l-69.17-.21c-12.91-1.75-12.12-14.67.18-26.41"/>
  </g>
  <path class="bennettShoe" d="M92.75,284.54c-4.55-4.16-10-5.71-16.28-3.72-9.63,2.6-17.62,6.52-21.6,12.79-5.36,7.35-3.52,17,2.75,21.12,10.78,6.8,19.65-2.28,31.44-5.42C84.1,300.88,86.13,292.05,92.75,284.54Z"/>
  <path class="bennettSoleBottom" d="M412.87,284.34c8.26,3,14.52,5.09,21.72,5.36,7,0,11.21,4.58,11.86,9.88.75,7.49-3.78,13.52-10.15,15-10.82,2.5-32.71.67-38.79-2.66-11.31-5.41-11.46-22.09-2.83-27.38C399.5,281.25,405.81,282,412.87,284.34Z"/>
  <g class="shirtWhite">
    <path d="M505.8,192c9.25,16.54,14.41,33.42,13.09,55.1-.72,17-4.32,31.63-10.06,47-2.4-11.74-9.83-20.84-23.72-25.4A206,206,0,0,0,447,261c1.44-8.39,7-13.9,6.71-22.28A122.27,122.27,0,0,1,447,217.87C439.05,172,470.85,179.84,505.8,192Z"/>
    <path d="M336.35,251.66C314,264,291,265,267.36,252.37l-5.51-62.76c10.06-38.8,71.15-34,77.85,1.92Z"/>
    <path d="M100.34,256.56c-8,.35-15.5-.59-22-4,3.45-10.22,3.94-24.19,3.44-39.41C93.46,142.58,153.76,154,153,203.67Z"/>
  </g>
  <g class="bennettSleeves">
    <path d="M136.77,162c7.13,1.38,12.48,8.33,17.24,17.1,3.82,7.64,5.55,20.79,6.56,33l-12.17-6.44a85,85,0,0,0,1-17.18c-4.18-7.76-8.71-13.48-14.32-19.93-5.2,1.64-10.2,1.69-14.92-.35-4.38,10.51-11.61,18-22.91,21.12-2.5,3.13-6.36,12.2-9.39,20.56a18.68,18.68,0,0,0,5.87,6.3c1.24,4-10,17.76-15.45,18.24a23.72,23.72,0,0,1-9.59-9.84c-2.4-4.15-3.32-7.82-2.22-12.24A243.13,243.13,0,0,1,81,175.18c5.47-11.44,15.58-16.07,28.2-18.76Z"/>
    <path d="M316.25,156.76a48.08,48.08,0,0,1,17.56,4.63c8.07,3.47,12,9.41,13.89,16.59a295.5,295.5,0,0,1,8.88,42.82c-1.33,4.14-17.56,5.79-21.61,1.93a190.84,190.84,0,0,0-2.89-29.9,76.3,76.3,0,0,1-18.52-26.24,69.44,69.44,0,0,1-29.71.2,114.48,114.48,0,0,1-11.19,21.6,70.22,70.22,0,0,0-6.35,17.68l-15.44-3.21a111.49,111.49,0,0,1,11.18-28.93c2.85-6.67,9.13-12.31,18.69-17"/>
    <path d="M481.71,171.29c11.64,3.83,20.85,10.35,24.09,20.71-.92,9.45-3.79,16.56-10,21.68-5.38,12.88-13,23.81-24.39,32.25a43.17,43.17,0,0,1-15.47,6c-3.85-2.08-8.16-18.15-5.05-22.82a33.92,33.92,0,0,0,22.88-20.71c-5.79-4.67-7.54-13.19-8.13-22.81l-9.17.52c-6.62,9.32-9.29,20.07-9.44,31.73-7.3,8.62-17.6,19.08-28.06,7.87l17.83-31.21a100.22,100.22,0,0,1,24.3-16.16Z"/>
  </g>
  <g class="clothesOverlapLine">
    <path d="M332.08,192.83a94.55,94.55,0,0,1-2.59-12.11"/>
    <path d="M473.74,208.43a20.66,20.66,0,0,0,2.4-6.32"/>
    <path d="M447,261c-8.81-.79-14.94-3.54-20.43-1.11-6.94,2.74-10.81,14.52-7.26,21.62,1.3,2.9,5.36,5.28,10.32,7.71"/>
    <path d="M438.21,253.27q4.77,3.6,4.67,7.21"/>
    <path d="M131.71,262.94c15.45,7.72,28.86,22.72,19.84,37.46"/>
    <path d="M125,289.68a44.05,44.05,0,0,0-28.68-8,8.21,8.21,0,0,0-3.6,2.87"/>
    <line x1="97.21" y1="189.38" x2="100.22" y2="184.18"/>
  </g>
  <path class="bookPageLight" d="M239.59,193.38c16.24,7.2,35.42,10.24,56.5,10.58-3.26,23-5.58,47-7.17,71.8-20.85-1.26-39.89-4.2-54.54-11.23C237.9,243.43,239.33,219.27,239.59,193.38Z"/>
  <g class="guitar">
    <path class="guitarDark" d="M155.76,202.29a48.06,48.06,0,0,0-13.33-3.08c-6.63-.53-13.36,2.56-17.61,5.09-5.71,2.61-12.35.31-18.78,2.67-8.13,2.8-17,6.45-19,17a57.4,57.4,0,0,0-.33,19.53A49.81,49.81,0,0,0,89.39,254c2.43,4.87,3.67,7.8,7.84,10.56,6,2,12.25,4.12,17.84,4.59Z"/>
    <path class="guitarNeck" d="M219.07,189.85l-5.13-1.2c-2.56,4.09-8.28,8.12-14.77,12.12l-35.61,12,.93,3.67C191.82,212.93,212.78,205.67,219.07,189.85Z"/>
    <path class="guitarLight" d="M162.27,209.42c-4.61-9.57-12.5-10.17-20.73-3.72-4.17,3.6-9.1,3.49-15.41,3.47-11.31.13-20.95,3.38-24,12-3.07,6.65-2.72,15.42-1.33,23.73,1.13,6.82,3,13.61,7.12,19.37,6,8.88,18,5.31,27.56-4.94,5.52-5.75,8.75-8.06,14.52-9.54,9.46-2,11.94-5.09,14.66-12.17C166.42,230.86,165.2,215.76,162.27,209.42Z"/>
    <path class="guitarHeadstock" d="M219.07,189.85c3.29,5.54,4.08,10,2.17,17.5-4.53,0-11,2.36-16.76,4.93l-1.23-10.56A37.8,37.8,0,0,0,219.07,189.85Z"/>
    <polygon class="guitarFretboard" points="203.34 202.54 148.59 222.17 149.7 233.23 204.36 211.27 203.34 202.54"/>
  </g>
  <ellipse class="soundHole" cx="141.89" cy="229.65" rx="12" ry="8.29" transform="translate(-95.43 358.31) rotate(-86.75)"/>
  <g class="melodica">
    <path class="melodicaBody" d="M441.4,177.19c-.81,2.35.35,4.33,1,7.17.41,1.94-.1,6-1.75,9.33L408,254.05c-1.69,2.89-3.57,3.71-5.78,3.48-4.08,0-8.11-1.75-11.63-3-4.69-1.87-5.42-6.09-4-8.32l35.82-61.58a16,16,0,0,1,6-5.11,13.78,13.78,0,0,0,6-4.75C436.35,173.18,440.47,174.61,441.4,177.19Z"/>
    <path class="melodicaKey" d="M422.42,184.59A17,17,0,0,1,436,188.47l-34.26,62.28a36.87,36.87,0,0,0-15.11-4.58Z"/>
  </g>
  <g class="skinEastAsian">
    <path d="M329.66,129.85c-1.66,10.78-5.59,19.4-14.16,23.62a26.28,26.28,0,0,0,.75,3.29c-4.29,5.86-28.79,6.89-35.51.17a20.14,20.14,0,0,0,.46-3.75c-7.67-4.37-11.43-13.29-11.88-23.18C243.32,81.86,356.1,77.14,329.66,129.85Z"/>
    <path d="M176.28,119.11c-2.86,4.49-5.05,8.83-5.69,12.8-3.74,20.17-15.65,31.08-33.82,27.8a6.31,6.31,0,0,0,0,2.3c-6.62,6.26-24,2.14-27.58-5.59,3.28-6.11,3.38-13,.66-20.49C98,82.66,173.22,68.87,176.28,119.11Z"/>
    <path d="M88.41,216.7c4.26,4,8.48,7.25,12.44,8.57,3.17,1.14,7.22,1.45,8.89-.31,2.24-2.64,7-3.44,12.73-3.68,4-.06,7.22.6,8.05,2.75,3.76,1.18,5.89,3.7,5.13,9a15.66,15.66,0,0,1-14.83,13.36c-6.33.34-13.5-.23-17.07-3.62-2.42-2.68-4-4.14-6.73-5a128.7,128.7,0,0,1-19-7.51C76.92,225.76,84.77,216.82,88.41,216.7Z"/>
    <path d="M354.42,221.09c-.86,5.71-1.64,12.28-2.3,17.12a5.29,5.29,0,0,0,1.64,4.94c2.1,2,2.67,4.73,2.31,7.8-.2,3,1.7,4.35,3.62,5.71,3.75,2.71,2,9.47-3.18,8.67-3.2-.4-5.88-1.38-7.5-4.17-.91,2.68-2.23,4.37-6.23,4.28-4.22,0-5.66-2.29-6-4.49-1.35,2.11-3.13,4.25-6.94,4.53-7.68-.05-8.05-6.33-5.05-7.61,2.4-1.35,3.45-2.8,3.73-4.73-4.86,1.14-8.06.68-11.81-2.48-2.18-2-1.61-5,1.45-6.85,2.53-1.48,5.28,2.65,12.22-2.09a14.18,14.18,0,0,1,8.35-3,64.93,64.93,0,0,0-.66-16.9C340,217.57,351.79,217.24,354.42,221.09Z"/>
    <path d="M239.13,214.08l-.3,7.45c5.06-.3,10.85.67,13.46,6.2,1.3,4.4-2.61,15-7.49,16.61-5.21,1.95-11.89,1.3-15.63-3.42-5.21-6.84-3.07-15.67,2.82-23.23C233.89,215.52,236.39,214.67,239.13,214.08Z"/>
    <path d="M202.71,211.93c-5.21-4.63-20.14-2.35-19.44,7.81l-17.83,7.17a48.4,48.4,0,0,1-.39,8.81,131.82,131.82,0,0,0,15.75-2c3.36.24,6.46,1.68,11.08-.16,4.56-1.68,9.51-7.22,11.67-12C205.27,217.69,204.56,214.3,202.71,211.93Z"/>
    <path d="M453.32,231.07c3.83,3.53,6.08,13.16,3.89,17-9.85.16-24.17-2.86-28.22-4-6.16,1.84-14.48,1.49-17.4-.94-2.5-1.94-6-4.72-9.53-6-3-1.11-3.29-7.51-1-11.49,2.68-4.34,6.17-6.55,11.05-6.09,6.58-.5,12,4.46,17,9.59a7.77,7.77,0,0,0,6.29,2.8A113.93,113.93,0,0,0,453.32,231.07Z"/>
    <path d="M424.07,196.64c-.52,5.77-3.5,10.71-8.86,15.14a10.72,10.72,0,0,1-9.52,1.58,8.76,8.76,0,0,1-1.81-8.58c2.06-6.18,5.25-10.3,10-13.19C418.3,188.81,424.69,192.21,424.07,196.64Z"/>
    <path d="M478.66,156.28c-10.07-51.37-29.61-66.33-64-24.43a56.35,56.35,0,0,0,4.36,12.6c2.08,4.26,3.06,11.82,4,19.48a21.29,21.29,0,0,0,7.16,14.13l.33.27a14.36,14.36,0,0,0,3.78-3.6c2-1.55,6.1-.12,7,2.46-.73,2.12.14,3.94.76,6.36,6.08.71,12.42-1.36,18.91-5.18,6.8,1.76,17.11-.6,20.64-7.08C479.66,167.46,479.13,162.5,478.66,156.28Z"/>
  </g>
  <g class="skinOverlapLine">
    <path d="M461.07,178.37a15,15,0,0,0,6.37-8"/>
    <path d="M315.5,153.47c-10.57,5.24-24.69,4.23-34.3-.29"/>
    <path d="M136.77,159.71c-5.17-1.72-8.34-3.59-10.93-7.48"/>
    <path d="M349,261.16a10.3,10.3,0,0,0-1.45-5.63"/>
    <path d="M336.77,261a7.71,7.71,0,0,1,2.24-6.14"/>
    <path d="M183.27,219.74a25.26,25.26,0,0,0,.66,5.81"/>
  </g>
  <g class="skinDisplayLine">
    <path d="M154.51,119.24c-3.81-2.2-8.12-2-12.78-.22"/>
    <path d="M170.51,121.83c-2.68-1.75-5.81-1.57-9.16-.42"/>
    <path d="M160.59,133.81c4.46,5.14.59,12-6.24,10.19"/>
    <path d="M149.21,150.64a26.44,26.44,0,0,0-4.66-.4"/>
    <path d="M306.46,136c-1.38,5.36-11,5.78-12.34,0"/>
    <path d="M316.89,119.68c-3.54-1.85-7.06-2.17-10.56-.49"/>
    <path d="M294.88,119a11.07,11.07,0,0,0-10.85.59"/>
    <path d="M431.4,142a14.34,14.34,0,0,0-9.64-.8"/>
    <path d="M447.22,142.4a16.12,16.12,0,0,0-9.75-1.09"/>
    <path d="M429.22,155.52c-5.27,4.38-1.39,12,5.17,10.44"/>
  </g>
  <path class="mouthBlob" d="M307.37,146.31c0-2-3.93-2-7.41-2.21-4.12-.12-7.34.13-7.5,2.37.09,2.18,3.63,3.63,7.74,3.75C303.39,150.31,306.7,148.6,307.37,146.31Z"/>
  <g class="eyeBlob">
    <ellipse cx="165.19" cy="126.85" rx="5.18" ry="2.59" transform="matrix(0.32, -0.95, 0.95, 0.32, -7.48, 243.3)"/>
    <ellipse cx="149.02" cy="124.07" rx="5.18" ry="2.59" transform="translate(-15.9 226.07) rotate(-71.52)"/>
    <ellipse cx="442.01" cy="147.48" rx="2.59" ry="5.18" transform="translate(-14.55 54.35) rotate(-6.92)"/>
    <ellipse cx="426.64" cy="147.24" rx="2.59" ry="5.18" transform="translate(-14.64 52.5) rotate(-6.92)"/>
    <ellipse cx="311.22" cy="124.16" rx="2.59" ry="5.18" transform="translate(-4.14 10.94) rotate(-2)"/>
    <ellipse cx="289.53" cy="124.16" rx="2.59" ry="5.18" transform="translate(-4.16 10.18) rotate(-2)"/>
  </g>
  <g class="hairBlack">
    <path d="M454.33,87.53c-2.85,1.56-4.76,3.5-5.41,5.93-12-1.44-23.13,1.9-29.94,11.7-7.67,11.36-10,23.13-3.52,36.19,4.37-3.64,6.44-8.38,8.19-14.57,12.29,14.57,28.4,17.07,46.73,15.87l20.6,8.58c8.41-12.6,9.45-26,4-40-5.24-14.08-14.57-22.34-28.62-23.91q2.53-8.11,13.09-13.09c-9.93.87-17.33,4.19-19.55,12.57-1.79-6.46-6.66-9-13.79-8.55C450.68,80.65,454.33,83.38,454.33,87.53Z"/>
    <path d="M338.61,96.5c.35-13.61-6.52-23.56-18.4-31-11.38-6-22.31-7.28-33.19-2.77.41-5.24,4.82-9.42,10.21-14-8.74,2.9-15.56,8.68-16,16.14-4.53-6.42-12.23-5.45-17.85-1.8,7-.86,11.85.59,13.43,4.62-8.38,6.93-12.54,16.39-14.06,27.49Z"/>
    <path d="M160.52,95.34c2.53,11.59,10.67,21.28,19.92,26.46,5.5-11.44,7-24.68.15-36-9.13-13.65-21.68-18.88-37.31-16.5-4.08-4.71-8.74-7.14-14.57-5.06.64-5.59,4.59-10.81,9.66-15.9-8.1,4.46-14.75,9.29-15.16,15.75C118.68,58.24,112.76,58,106,61.3c5.32-.3,9.47,1.35,11.89,5.94-9.22,4.46-15,12.58-18.73,21.41-5.95,12.34-4.73,25.87.15,36.57l21.11-14.12C136,118,148.83,109.73,160.52,95.34Z"/>
  </g>
  <g class="headphoneBand">
    <path d="M479.92,131.36C475.6,111.26,462.29,92,449.5,92l-5.68,1.24c12.77.85,23.42,17.21,30.5,39.87Z"/>
    <path d="M148.12,68.83l-6.78-1.34c-16.15,5.15-27.58,22.05-29.74,37.8l7.11,1.44C119.8,89.74,132.09,73,148.12,68.83Z"/>
    <path d="M333.74,96.42c-2.35-19.8-15.29-31.58-33.48-31.58s-32,12.47-32.95,30.46C271.33,78.42,328.52,77.88,333.74,96.42Z"/>
  </g>
  <g class="headphoneSpeaker">
    <path d="M468.4,146.92c1.28,9.12,6.2,16,14.77,14.9,7.52-.93,11.72-9.73,10.48-18.18-1.35-9.12-6.07-16-14.78-14.9S467,136.92,468.4,146.92Z"/>
    <path d="M99.56,115.33c-2.8,7.84-.33,17.71,6.56,19.93,8.21,2.66,14.47-2.88,17.49-11.59s1.74-17-6.56-19.93S102.65,106.65,99.56,115.33Z"/>
    <path d="M321.63,110c1.51-9.86,8-17,15.09-15.91,9.56,1.46,10.16,10.9,8.84,19.56-1.22,8-5.23,17.71-15.9,16.16,1.07-7.09.39-13.84,1.87-19.21Z"/>
    <path d="M279.39,110.56C278.31,100.64,272.1,93.24,265,94c-9.62,1-10.78,11.29-9.68,19.17,1.3,9.29,4.22,17.63,14,16.82-.77-8.39.95-12.5-.2-19.25Z"/>
  </g>
  <g class="headphoneEdgeLine">
    <path d="M473.11,137.4c-1.27,5.95-.85,18.68,7.65,22.08"/>
    <path d="M118,108.7c3.51,6.19,0,17.8-6.51,22"/>
  </g>
  <path class="hairBlack" d="M268.67,89.56c4-13.35,17.89-20.39,31.19-20.45,17-.07,24.87,8.87,30,17.43,4.34,7.76,5.13,21.32,2.89,27.11-14.47,6-31.44-.14-37.36-14.74-5,9.33-13.29,16-26.19,17.09A38.75,38.75,0,0,1,268.67,89.56Z"/>
  <g class="mic">
    <circle class="popScreen" cx="286.65" cy="175.55" r="17.96"/>
    <path class="popScreenHolder" d="M286.65,157.59a18,18,0,1,1-18,18A18,18,0,0,1,286.65,157.59Zm-22.59,18A22.59,22.59,0,1,0,286.65,153,22.59,22.59,0,0,0,264.06,175.55Z"/>
    <g class="micStand">
      <polygon points="182.96 261.49 182.96 301.94 194.02 312.17 167.94 312.17 179 301.94 179 261.49 182.96 261.49"/>
      <rect x="366.56" y="191.82" width="3.96" height="110.12"/>
      <rect x="249.05" y="171.64" width="3.96" height="130.31"/>
    </g>
    <ellipse class="micBack" cx="188.15" cy="265.83" rx="4.6" ry="2.79" transform="translate(-137.46 259.04) rotate(-53.52)"/>
    <g class="micBody">
      <path d="M190.88,262.13c-1.23-.92-3.46,0-5,2s-1.74,4.44-.5,5.36l-26.17-19.18c-2.49-6.63.43-9.45,7.5-9.34Z"/>
      <path d="M185.91,264.17"/>
      <path d="M362.41,190.5l10.44,18.65c6.74,2.13,10.36.28,9.88-6.79l-13.24-16.23c-1.12-1.5-3.24-1.75-5.33-.44S361.63,188.88,362.41,190.5Z"/>
      <path d="M277.08,167.63l-.82,11-38.94-4.74c-1.49-1.45-1.26-6.33.53-7.7Z"/>
    </g>
    <g class="micHead">
      <path d="M151.94,247.82a11.67,11.67,0,0,0,7.3,2.54c-.29-3.22,5.11-9.13,8-9a11.53,11.53,0,0,0-3.69-7.18,9,9,0,1,0-11.57,13.6Z"/>
      <path d="M388.55,205.69c-3.58-4.14-7.61-5.62-12.07-2.92s-5.06,8.12-2.53,12.61a9.07,9.07,0,0,0,12.38,2.92C390.84,215.39,391.25,208.81,388.55,205.69Z"/>
      <path d="M275,173.22c-.32,5.11,2.06,8.59,9.7,9.9a9.69,9.69,0,0,0,11.26-8.6c.32-5.12-4.2-10-10.11-9.93C278,164.67,275.36,168.1,275,173.22Z"/>
    </g>
  </g>
  <g class="console">
    <g class="fader">
      <rect x="363.3" y="265.54" width="10.48" height="6.82"/>
      <rect x="347.97" y="265.54" width="10.48" height="6.82"/>
      <rect x="332.64" y="265.54" width="10.48" height="6.82"/>
      <rect x="332.64" y="265.54" width="10.48" height="6.82"/>
      <rect x="317.31" y="265.54" width="10.48" height="6.82"/>
      <rect x="301.98" y="265.54" width="10.48" height="6.82"/>
      <rect x="286.65" y="265.54" width="10.48" height="6.82"/>
    </g>
    <path class="consoleScreen" d="M216.6,255.2h57.94a4.84,4.84,0,0,1,4.84,4.84v12.31a0,0,0,0,1,0,0H211.76a0,0,0,0,1,0,0V260A4.84,4.84,0,0,1,216.6,255.2Z"/>
    <path class="consoleBody" d="M212.92,272.36H373.78A11.21,11.21,0,0,1,385,283.56v31.89a0,0,0,0,1,0,0H201.72a0,0,0,0,1,0,0V283.56A11.2,11.2,0,0,1,212.92,272.36Z"/>
    <path class="consolePanel" d="M220.83,284.44h145a7.26,7.26,0,0,1,7.26,7.26v23.75a0,0,0,0,1,0,0H213.58a0,0,0,0,1,0,0V291.69a7.25,7.25,0,0,1,7.25-7.25Z"/>
  </g>
</svg>
