<svg viewBox="0 0 1469.85 938.71">
    <path class="wall" d="M1384.53,645.18c172.41-119.54,59.77-473.56-151.73-464.37-23-119.54-208-187.35-295.4-97.7-78.16-105.74-290.81-110.34-370.12-8C382.23-34.13,165,64.72,135.1,249.78,12.11,263.57-43.06,450.93,42,530.24c-39,51.55-40.51,118.54-18.64,179H1389.91C1394.52,687.59,1393.22,665.78,1384.53,645.18Z"/>
    <path class="floor" d="M276.48,849.78C347.74,959,566.14,968.17,661.54,848.63,735.1,967,986.82,968.17,1058.09,847.48c132.54,77.79,308.41-28.18,331.82-138.23H23.36C61.46,814.61,170.59,900.17,276.48,849.78Z"/>
    <g class="bennettJeans">
        <path d="M194.46,630c-17,23.52-20.23,48.56-1.33,76l25.19,65.2c42,8.4,81,8.4,126-2,14.33-3.46,23.68-9,33.1-19.76,17.78,4.94,30.13-1.48,43-13.34,12.34-12.84,10.74-30.13,3.45-45.94-14.32-24.7-43-54.34-74.09-70.64Z"/>
        <path d="M1270.56,733.64c-15.26,24.05-35.38,39.38-63.43,40.53-34.57,1.89-72.68-14.7-110.14-40.91l-84.86-8.83c3.31-34.95,6.3-65.59,15-88.73,12.14-25.87,33.54-29.52,58.54-24.54,17.77,4.28,34,12.55,49.09,23.91C1228.14,614.75,1265.06,656.83,1270.56,733.64Z"/>
        <path d="M839.37,627.64c41.65,49.91,25,68,0,68.35l-172.92-.53c-32.27-4.39-30.29-36.69.45-66"/>
    </g>
    <path class="bennettShoe" d="M230.37,709.85c-11.37-10.39-25-14.26-40.69-9.29-24.09,6.5-42.07,15.3-52,31-13.39,18.35-8.8,42.45,6.88,52.77,27,17,47.12-4.68,76.61-12.53C208.76,750.7,213.84,728.64,230.37,709.85Z"/>
    <path class="bennettSoleBottom" d="M1030.68,709.36c20.63,7.51,36.3,12.71,54.31,13.38,17.56,0,28,11.45,29.63,24.71,1.87,18.73-9.46,33.8-25.38,37.45-27,6.24-81.77,1.67-97-6.66C964,764.72,963.62,723,985.21,709.79,997.25,701.61,1013,703.58,1030.68,709.36Z"/>
    <g class="bennettShirt">
        <path d="M1263,478.5c23.14,41.34,36,83.55,32.73,137.76-1.8,42.52-10.78,79-25.16,117.38-6-29.34-24.55-52.1-59.29-63.48-29-9.22-61.17-15.19-95.22-19.16,3.6-21,17.37-34.74,16.77-55.7A308.47,308.47,0,0,1,1116,543.18C1096.11,428.37,1175.62,448.11,1263,478.5Z"/>
        <path d="M839.37,627.64c-56,30.82-113.45,33.35-172.47,1.8L653.12,472.53c25.16-97,177.87-85,194.64,4.79Z"/>
        <path d="M249.34,639.91c-20.05.86-38.75-1.49-54.88-9.92,8.61-25.53,9.84-60.45,8.6-98.51,29.09-176.54,179.83-148.11,177.85-23.81Z"/>
    </g>
    <g class="bennettSleeves">
        <path d="M340.43,403.52c17.82,3.46,31.19,20.83,43.09,42.77,9.55,19.09,13.89,52,16.41,82.62L369.5,512.8c2.29-12.29,2.81-27,2.39-42.95-10.44-19.39-21.78-33.71-35.8-49.81-13,4.08-25.49,4.22-37.28-.9-11,26.29-29,45-57.27,52.8-6.26,7.85-15.91,30.5-23.48,51.41,4.19,6.83,8.56,11.79,14.67,15.76,3.1,9.91-25,44.39-38.62,45.58-10.88-5.69-18.3-14.51-24-24.58-6-10.38-8.3-19.55-5.55-30.6A609,609,0,0,1,201,436.44c13.67-28.58,38.95-40.17,70.51-46.88Z"/>
        <path d="M789.12,390.39c14.91.84,29.53,4.94,43.92,11.58,20.16,8.67,30,23.53,34.72,41.47,9.85,33.33,16.93,69.32,22.18,107.06-3.31,10.35-43.88,14.47-54,4.83a480,480,0,0,0-7.23-74.75A191.11,191.11,0,0,1,782.4,415a173.5,173.5,0,0,1-74.27.48c-8.06,19.89-17.18,38.21-28,54-7.94,15.54-13.53,31.8-15.89,44.2l-38.61-8c6.45-25.79,15.22-50.22,28-72.34,7.1-16.65,22.82-30.77,46.72-42.49"/>
        <path d="M1202.79,426.73c29.08,9.58,52.12,25.87,60.2,51.77-2.29,23.61-9.47,41.41-25.06,54.19-13.45,32.21-32.52,59.53-61,80.64-13.09,7.92-26,13-38.68,15.08-9.62-5.22-20.42-45.39-12.64-57,13-3.45,27.24-11.63,39.52-23.59a94.4,94.4,0,0,0,17.7-28.19c-14.49-11.69-18.86-33-20.32-57l-23,1.31c-16.54,23.29-23.2,50.17-23.6,79.33-18.25,21.54-44,47.7-70.15,19.67l44.58-78q29.5-26,60.76-40.39Z"/>
    </g>
    <g class="clothesOverlapLine">
        <path d="M828.7,480.58a234.89,234.89,0,0,1-6.48-30.27"/>
        <path d="M1182.86,519.58c3.24-6,5.27-11.28,6-15.81"/>
        <path d="M1116.05,651c-22-2-37.35-8.84-51.06-2.79-17.35,6.86-27,36.32-18.16,54.07,3.25,7.24,13.41,13.19,25.8,19.27"/>
        <path d="M1094,631.67q11.93,9,11.65,18"/>
        <path d="M327.79,655.84c38.62,19.3,72.14,56.82,49.59,93.67"/>
        <path d="M311.06,722.69c-21-14.45-44.62-21.82-71.69-20a20.54,20.54,0,0,0-9,7.18"/>
        <line x1="241.54" y1="471.94" x2="249.04" y2="458.95"/>
    </g>
    <path class="paper" d="M597.47,481.94c40.61,18,88.55,25.61,141.25,26.46-8.14,57.6-14,117.6-17.91,179.51-52.14-3.16-99.74-10.52-136.36-28.09C593.24,607.08,596.82,546.67,597.47,481.94Z"/>
    <g class="guitarSide">
        <path d="M387.9,504.23c-12.07-4.3-23.38-7.24-33.32-7.71-16.57-1.33-33.4,6.4-44,12.72-14.28,6.53-30.87.77-46.95,6.69-20.33,7-42.61,16.13-47.48,42.46-3.57,18.33-2.87,34.39-.83,48.84a124.77,124.77,0,0,0,6.69,26.2c6.06,12.17,9.17,19.5,19.6,26.38,15,5,30.62,10.32,44.59,11.5Z"/>
        <path d="M546.18,470.13H533.34c-6.4,10.23-20.7,20.28-36.91,30.3L500,529.72l9.84,1Z"/>
    </g>
    <g class="guitarFront">
        <path d="M404.17,522.05c-11.53-23.93-31.25-25.43-51.82-9.29-10.42,9-22.76,8.72-38.52,8.66-28.27.34-52.39,8.45-60,30-7.67,16.62-6.78,38.53-3.32,59.3,2.84,17.06,7.44,34,17.82,48.43,15,22.2,45.09,13.27,68.89-12.34,13.8-14.39,21.86-20.15,36.3-23.84C397.17,618,412,603.4,412,574.9,412.37,556.9,411.51,537.91,404.17,522.05Z"/>
        <path d="M546.18,470.13c8.23,13.85,10.21,30,5.42,48.76-11.32,0-27.26,5.41-41.72,11.83l-3.42-29.29C521.86,495.2,535.1,484.1,546.18,470.13Z"/>
    </g>
    <path class="skinEastAsian" d="M505.26,528.33c4.34,6.76,5.28,14.68,2.1,24-5.39,12-17.77,25.83-29.15,30-11.56,4.59-19.32,1-27.71.41-14.86,2.72-34,5.37-48,5.22V549.34C468.28,516.17,501,510.49,505.26,528.33Z"/>
    <path class="guitarNeck" d="M506.86,504.84,370,553.93l2.76,27.66,83.92-33.73c-1.75-25.41,35.59-31.11,48.59-19.53l4.14-1.66Z"/>
    <ellipse class="soundHole" cx="353.22" cy="572.63" rx="29.99" ry="20.73" transform="translate(-238.49 892.86) rotate(-86.75)"/>
    <g class="skinEastAsian">
        <path d="M1195.14,389.2c1.18,15.55,2.5,27.95,7.65,37.53-8.84,16.2-34.61,22.09-51.61,17.71-27.19,16-53.23,19.66-77-.78-10.3-8.83-16.19-20.85-17.91-35.34-2.45-19.14-4.9-38-10.1-48.69-4.87-10.7-8.86-20.9-10.89-31.51C1121.12,223.38,1170,260.77,1195.14,389.2Z"/>
        <path d="M822.65,323.13c-4.14,26.93-14,48.48-35.39,59a64.65,64.65,0,0,0,1.86,8.22c-10.72,14.65-72,17.22-88.76.43a51.11,51.11,0,0,0,1.14-9.36c-19.18-10.93-28.59-33.24-29.7-57.95C606.81,203.15,888.74,191.36,822.65,323.13Z"/>
        <path d="M439.19,296.27c-7.14,11.24-12.61,22.08-14.22,32-9.34,50.43-39.12,77.71-84.54,69.5a14.94,14.94,0,0,0,0,5.75c-16.55,15.66-59.91,5.35-68.95-14,8.19-15.27,8.45-32.42,1.64-51.25C243.57,205.15,431.54,170.68,439.19,296.27Z"/>
        <path d="M219.53,540.25c10.65,9.89,21.19,18.12,31.09,21.42,7.93,2.86,18.05,3.63,22.23-.77,5.61-6.6,17.47-8.61,31.82-9.2,9.88-.15,18.06,1.51,20.14,6.86,9.38,3,14.71,9.27,12.81,22.43-3.82,21.94-21.64,33-37.07,33.42-15.83.85-33.75-.59-42.66-9.06C251.83,598.64,248,595,241,592.9a321.35,321.35,0,0,1-47.61-18.77C190.79,562.89,210.44,540.55,219.53,540.25Z"/>
        <path d="M884.56,551.22c-2.16,14.28-4.12,30.71-5.77,42.81-.77,5.6.9,9.19,4.12,12.35,5.25,5.1,6.65,11.81,5.77,19.49-.5,7.4,4.24,10.87,9.06,14.28,9.37,6.78,5,23.67-8,21.68-8-1-14.69-3.45-18.74-10.43-2.28,6.71-5.59,10.92-15.57,10.71-10.56-.12-14.15-5.73-15-11.24-3.37,5.29-7.82,10.64-17.36,11.34-19.18-.14-20.11-15.84-12.61-19,6-3.38,8.62-7,9.32-11.82-12.13,2.83-20.14,1.68-29.52-6.2-5.45-5.15-4-12.61,3.62-17.13,6.32-3.7,13.21,6.62,30.57-5.22,6.85-4.68,12.33-7.17,20.86-7.41a162.67,162.67,0,0,0-1.65-42.26C848.59,542.43,878,541.61,884.56,551.22Z"/>
        <path d="M596.32,533.69l-.75,18.65c12.67-.76,27.14,1.65,33.65,15.49,3.26,11-6.51,37.45-18.72,41.52-13,4.88-29.71,3.25-39.08-8.55-13-17.1-7.67-39.17,7.05-58.08C583.23,537.3,589.48,535.17,596.32,533.69Z"/>
    </g>
    <path class="melodicaBody" d="M1102,441.47c-2,5.88-.32,8.8,2.13,16.17,1.87,6.52,0,16.88-4.11,25.09l-81.45,150.91c-4.23,7.2-8.92,9.25-14.47,8.68-10.19,0-20.25-4.36-29.05-7.58-11.73-4.69-13.56-15.24-10.07-20.81L1054.55,460a39.77,39.77,0,0,1,14.91-12.79,34.38,34.38,0,0,0,15-11.89C1089.38,431.46,1099.67,435,1102,441.47Z"/>
    <path class="melodicaKey" d="M1054.55,460c11.39-1.63,22.73.83,33.88,9.69l-85.64,155.7c-12.6-6.67-25.19-10.74-37.8-11.45Z"/>
    <g class="skinEastAsian">
        <path d="M1131.79,576.16c9.59,8.83,15.2,32.91,9.74,42.42-24.64.39-60.43-7.15-70.56-10-15.38,4.59-36.21,3.72-43.5-2.35-6.24-4.86-14.92-11.8-23.82-14.94-7.41-2.76-8.22-18.77-2.47-28.71,6.68-10.85,15.41-16.39,27.62-15.24,16.46-1.24,30,11.15,42.51,24,5.3,5.93,10.11,6.76,15.71,7C1099.88,579,1115.27,578,1131.79,576.16Z"/>
        <path d="M1058.67,490.1c-1.29,14.42-8.76,26.78-22.15,37.86-7,5.4-16.22,6.18-23.81,3.94-4.84-6-7.09-12.7-4.52-21.46,5.15-15.45,13.14-25.75,25-33C1044.25,470.53,1060.22,479,1058.67,490.1Z"/>
    </g>
    <g class="skinOverlapLine">
        <path d="M1151.18,444.44c7.59-5,13.14-11.48,15.93-20"/>
        <path d="M787.26,382.17c-26.45,13.11-61.75,10.59-85.76-.71"/>
        <path d="M340.43,397.77c-12.93-4.29-20.85-9-27.33-18.7"/>
        <path d="M871,651.4c.35-5.56-1.43-9.78-3.64-14.07"/>
        <path d="M840.42,650.87c-.68-5.71,1.64-11,5.6-15.36"/>
        <path d="M456.67,547.86a64.13,64.13,0,0,0,1.65,14.53"/>
    </g>
    <g class="skinDisplayLine">
        <path d="M384.77,296.59c-9.51-5.5-20.3-5-32-.53"/>
        <path d="M424.79,303.08c-6.72-4.38-14.54-3.94-22.91-1.06"/>
        <path d="M400,333c11.13,12.88,1.48,29.95-15.6,25.5"/>
        <path d="M371.53,375.09a68.07,68.07,0,0,0-11.65-1"/>
        <path d="M764.64,336.55c-3.44,13.39-27.58,14.45-30.84,0"/>
        <path d="M790.74,295.7c-8.85-4.63-17.66-5.42-26.41-1.24"/>
        <path d="M735.71,294c-7-4.12-19.25-4-27.15,1.47"/>
        <path d="M1077,353.51c-7.15-3.56-15.29-3.89-24.11-2"/>
        <path d="M1116.54,354.5a40.38,40.38,0,0,0-24.36-2.74"/>
        <path d="M1071.55,387.31c-13.17,10.94-3.48,30.07,12.92,26.1"/>
    </g>
    <path class="mouthBlob" d="M762.68,365.76c.08-5.07-7.41-8.13-16.12-8.56-11-.78-20.53,1.48-20.93,7.08,0,5,8.23,8.59,17.56,9.14C753.94,374.08,762.47,370.78,762.68,365.76Z"/>
    <g class="eyeBlob">
        <ellipse cx="411.48" cy="315.61" rx="12.94" ry="6.47" transform="translate(-18.3 605.81) rotate(-71.52)"/>
        <ellipse cx="371.05" cy="308.68" rx="12.94" ry="6.47" transform="translate(-39.34 562.73) rotate(-71.52)"/>
        <ellipse cx="1103.52" cy="367.2" rx="6.47" ry="12.94" transform="translate(-36.22 135.7) rotate(-6.92)"/>
        <ellipse cx="1065.1" cy="366.61" rx="6.47" ry="12.94" transform="translate(-36.42 131.06) rotate(-6.92)"/>
        <ellipse cx="776.54" cy="306.89" rx="6.47" ry="12.94" transform="translate(-10.24 27.29) rotate(-2)"/>
        <ellipse cx="722.32" cy="306.89" rx="6.47" ry="12.94" transform="translate(-10.27 25.4) rotate(-2)"/>
    </g>
    <g class="hairBlack">
        <path d="M1134.32,217.31c-7.11,3.92-11.9,8.76-13.53,14.84-30.07-3.61-57.82,4.76-74.83,29.25-19.19,28.39-24.88,57.83-8.81,90.48,10.92-9.1,16.11-21,20.48-36.43,30.71,36.43,71,42.68,116.83,39.68L1226,376.57c21-31.51,23.62-64.89,10-99.91-13.1-35.2-36.43-55.86-71.56-59.78q6.33-20.3,32.73-32.73c-24.82,2.17-43.33,10.48-48.87,31.42-4.47-16.15-16.64-22.4-34.47-21.38C1125.21,200.12,1134.33,206.94,1134.32,217.31Z"/>
        <path d="M845,239.76c.87-34-16.31-58.91-46-77.43-28.43-14.88-55.77-18.22-83-6.93,1.05-13.11,12.07-23.56,25.54-35-21.86,7.26-38.91,21.7-40.11,40.37-11.31-16.07-30.56-13.64-44.62-4.51,17.46-2.14,29.61,1.48,33.57,11.56-20.94,17.32-31.34,41-35.15,68.73Z"/>
        <path d="M399.8,236.85c6.32,29,26.67,53.21,49.8,66.15,13.76-28.59,17.46-61.69.37-89.94-22.82-34.1-54.18-47.19-93.28-41.25-10.19-11.76-21.85-17.84-36.41-12.63,1.6-14,11.47-27,24.15-39.76-20.25,11.14-36.89,23.23-37.9,39.39-11.33-14.7-26.12-15.36-43.11-7.06,13.3-.75,23.69,3.39,29.73,14.86-23,11.15-37.37,31.43-46.83,53.51-14.86,30.85-11.83,64.69.38,91.42l52.76-35.3C338.51,293.38,370.58,272.82,399.8,236.85Z"/>
    </g>
    <g class="headphoneBand">
        <path d="M1198.29,326.89c-10.79-50.24-44.06-98.5-76-98.44l-14.2,3.11c31.93,2.11,58.54,43,76.26,99.66Z"/>
        <path d="M368.81,170.58l-16.95-3.35c-40.39,12.87-69,55.13-74.36,94.48l17.77,3.6C298,222.85,328.74,180.86,368.81,170.58Z"/>
        <path d="M832.86,239.55c-5.88-49.49-38.24-78.94-83.7-78.94-45.26,0-80,31.18-82.4,76.15C676.83,194.56,819.81,193.21,832.86,239.55Z"/>
    </g>
    <g class="headphoneSpeaker">
        <path d="M1169.49,365.8c3.2,22.81,15.52,39.91,36.94,37.25,18.8-2.33,29.29-24.33,26.18-45.46-3.35-22.78-15.17-40.08-36.94-37.25S1166,340.8,1169.49,365.8Z"/>
        <path d="M247.39,286.83c-7,19.6-.82,44.26,16.41,49.83,20.54,6.63,36.19-7.22,43.73-29s4.33-42.64-16.41-49.83S255.12,265.13,247.39,286.83Z"/>
        <path d="M802.59,273.6c3.76-24.66,20.09-42.47,37.7-39.78,23.91,3.65,25.42,27.26,22.11,48.92-3.06,20-13.07,44.26-39.75,40.39,2.68-17.74,1-34.6,4.68-48Z"/>
        <path d="M697,274.9c-2.69-24.8-18.24-43.31-36-41.38-24,2.62-26.95,28.24-24.2,47.92,3.25,23.23,10.54,44.1,35,42.07-1.92-21,2.36-31.27-.49-48.13Z"/>
    </g>
    <g class="headphoneEdgeLine">
        <path d="M1181.28,342c-3.18,14.86-2.12,46.7,19.11,55.19"/>
        <path d="M293.54,270.24c8.78,15.48,0,44.52-16.27,55.14"/>
    </g>
    <path class="hairBlack" d="M670.18,222.4c10-33.37,44.72-51,78-51.13,42.4-.18,62.16,22.19,75,43.57,10.85,19.4,12.83,53.31,7.24,67.78-36.19,15.14-78.61-.34-93.41-36.85-12.51,23.34-33.23,40.12-65.47,42.72C662.63,263.82,663.5,243.61,670.18,222.4Z"/>
    <circle class="popScreen" cx="715.12" cy="437.37" r="44.91"/>
    <path class="popScreenHolder" d="M715.12,392.47a44.91,44.91,0,1,1-44.91,44.9A44.91,44.91,0,0,1,715.12,392.47Zm-56.46,44.9a56.46,56.46,0,1,0,56.46-56.46A56.46,56.46,0,0,0,658.66,437.37Z"/>
    <g class="micStand">
        <polygon points="455.9 652.21 455.9 753.36 483.54 778.91 418.36 778.91 446 753.36 446 652.21 455.9 652.21"/>
        <rect x="914.9" y="478.06" width="9.91" height="275.3"/>
        <rect x="621.12" y="427.59" width="9.91" height="325.77"/>
    </g>
    <ellipse class="micBack" cx="468.87" cy="663.07" rx="11.51" ry="6.97" transform="translate(-343.04 645.79) rotate(-53.52)"/>
    <g class="micBody">
        <path d="M475.71,653.82c-3.09-2.29-8.66,0-12.44,5.11S458.93,670,462,672.32l-65.43-48c-6.23-16.57,1.08-23.61,18.76-23.35Z"/>
        <path d="M463.27,658.93"/>
        <path d="M904.53,474.74l26.1,46.64c16.86,5.33,25.89.69,24.69-17l-33.1-40.59c-2.79-3.74-8.08-4.37-13.33-1.09C903.87,465.79,902.57,470.69,904.53,474.74Z"/>
        <path d="M691.2,417.58l-2,27.5L591.8,433.22c-3.73-3.62-3.14-15.82,1.32-19.26Z"/>
    </g>
    <g class="micHead">
        <path d="M378.35,618c6,4.4,12.35,6.65,18.25,6.37-.72-8.06,12.77-22.83,19.89-22.41-.42-6.23-3.73-12.5-9.2-17.94-9.53-9.47-24.28-9-33,1.22S367.5,610.12,378.35,618Z"/>
        <path d="M969.87,512.73c-9-10.36-19-14.05-30.16-7.3-11.49,7-12.66,20.29-6.32,31.52,5.09,9,19.66,14.6,30.94,7.31S976.62,520.52,969.87,512.73Z"/>
        <path d="M686.1,431.54c-.79,12.79,5.16,21.48,24.26,24.76,14.56,2.5,27.34-8.71,28.13-21.51S728,409.82,713.24,410C693.6,410.17,686.89,418.75,686.1,431.54Z"/>
    </g>
    <g class="fader">
        <rect x="906.75" y="662.35" width="26.2" height="17.04"/>
        <rect x="868.43" y="662.35" width="26.2" height="17.04"/>
        <rect x="830.1" y="662.35" width="26.2" height="17.04"/>
        <rect x="830.1" y="662.35" width="26.2" height="17.04"/>
        <rect x="791.77" y="662.35" width="26.2" height="17.04"/>
        <rect x="753.45" y="662.35" width="26.2" height="17.04"/>
        <rect x="715.12" y="662.35" width="26.2" height="17.04"/>
    </g>
    <path class="consoleScreen" d="M540,636.5H684.83a12.11,12.11,0,0,1,12.11,12.11v30.78a0,0,0,0,1,0,0h-169a0,0,0,0,1,0,0V648.6A12.1,12.1,0,0,1,540,636.5Z"/>
    <path class="console" d="M530.8,679.39H932.95a28,28,0,0,1,28,28v79.72a0,0,0,0,1,0,0H502.79a0,0,0,0,1,0,0V707.4A28,28,0,0,1,530.8,679.39Z"/>
    <path class="consolePanel" d="M550.58,709.61H913.15a18.15,18.15,0,0,1,18.15,18.15v59.36a0,0,0,0,1,0,0H532.46a0,0,0,0,1,0,0v-59.4A18.12,18.12,0,0,1,550.58,709.61Z"/>
</svg>
