<svg viewBox="0 0 1059.63 1022.49">
  <path class="floor" d="M374.69,922.43c80.95,126.5,300,133.33,408.33,11.91,75.6,22.92,151.52-19,193.68-79.38H125.58C173,932.2,279.49,973.82,374.69,922.43Z"/>
  <path class="wall" d="M980.64,677.19c98.81-58.33,111.91-277.38-8.33-353.57C1033,153.38,840.17-21.62,664,70.05c-85.72-91.67-246.43-94-316.67,4.76C152.07,20.05-7.45,232,85.41,397.43-26.5,454.57-33.23,683.15,102.07,745.05c-5.57,40,3.93,78,23.51,109.91H976.7C1015.54,799.33,1025.74,728,980.64,677.19Z"/>
  <path class="posterLeft" d="M502.47,1c-60.6-.4-119.53,23.66-155.16,73.79C178.78,27.54,36.87,179,60.92,327.72H502.47Z"/>
  <path class="posterRight" d="M972.31,323.62C1033,153.38,840.17-21.62,664,70.05c-24-25.63-53.81-44.28-85.89-55.69V327.72H978.44Q975.44,325.61,972.31,323.62Z"/>
  <polygon class="albumRightTop" points="402.64 518.22 561.65 509.18 500.54 346.08 341.53 355.12 402.64 518.22"/>
  <polygon class="albumLeftTop" points="202.16 527.15 361.17 518.11 300.06 355.01 141.05 364.05 202.16 527.15"/>
  <g class="pileSide">
    <polygon points="263.14 406.93 212.82 396.62 275.78 560.62 326.37 575.68 263.14 406.93"/>
    <polygon points="141.05 364.05 92.42 354.08 153.26 512.59 202.16 527.15 141.05 364.05"/>
    <polygon points="469.62 398 419.3 387.68 482.26 551.68 532.85 566.75 469.62 398"/>
    <polygon points="341.53 355.12 292.89 345.15 353.74 503.66 402.64 518.22 341.53 355.12"/>
  </g>
  <g class="pileBorderLine">
    <line x1="317.22" y1="572.96" x2="255.16" y2="405.3"/>
    <line x1="308.53" y1="570.37" x2="246.79" y2="403.58"/>
    <line x1="300.15" y1="567.88" x2="238.72" y2="401.93"/>
    <line x1="291.31" y1="565.25" x2="230.4" y2="400.71"/>
    <line x1="282.92" y1="562.75" x2="222.14" y2="398.53"/>
    <line x1="193.32" y1="524.52" x2="133.34" y2="362.47"/>
    <line x1="184.92" y1="522.02" x2="125.25" y2="360.81"/>
    <line x1="176.82" y1="519.61" x2="117.45" y2="359.21"/>
    <line x1="168.27" y1="517.06" x2="109.41" y2="358.04"/>
    <line x1="160.17" y1="514.65" x2="101.42" y2="355.93"/>
    <line x1="523.7" y1="564.03" x2="461.64" y2="396.36"/>
    <line x1="515.01" y1="561.44" x2="453.27" y2="394.65"/>
    <line x1="506.63" y1="558.94" x2="445.2" y2="392.99"/>
    <line x1="497.79" y1="556.31" x2="436.88" y2="391.77"/>
    <line x1="489.4" y1="553.81" x2="428.61" y2="389.59"/>
    <line x1="393.8" y1="515.59" x2="333.81" y2="353.54"/>
    <line x1="385.4" y1="513.09" x2="325.73" y2="351.88"/>
    <line x1="377.29" y1="510.67" x2="317.92" y2="350.28"/>
    <line x1="368.75" y1="508.13" x2="309.89" y2="349.1"/>
    <line x1="360.65" y1="505.72" x2="301.89" y2="346.99"/>
  </g>
  <g class="pileTop">
    <polygon points="469.62 398 419.3 387.68 580.82 378.33 634.14 388.64 469.62 398"/>
    <polygon points="263.14 406.93 212.82 396.62 374.34 387.26 427.66 397.58 263.14 406.93"/>
    <polygon points="141.05 364.05 92.42 354.08 248.53 345.04 300.06 355.01 141.05 364.05"/>
    <polygon points="341.53 355.12 292.89 345.15 449 336.11 500.54 346.08 341.53 355.12"/>
  </g>
  <polygon class="albumRightBottom" points="532.85 566.75 697.37 557.39 634.14 388.64 469.62 398 532.85 566.75"/>
  <polygon class="yearlingsAlbum" points="326.37 575.68 490.89 566.33 427.66 397.58 263.14 406.93 326.37 575.68"/>
  <polygon class="standFront" points="784.62 857.28 352.55 891.58 352.55 632.34 784.62 609.8 784.62 857.28"/>
  <path class="standSide" d="M352.55,632.34,5.42,611.8c10.92,56.69,42.34,108.4,96.65,133.25-7,50.26,9.76,97.31,40.42,133.14l210.06,13.39Z"/>
  <polygon class="binFront" points="371.57 644.75 371.57 539.4 784.62 520.76 784.62 622.38 371.57 644.75"/>
  <path class="binSide" d="M371.57,539.4,53.29,421.11h0C7.16,467.61-9.72,550.4,7.75,622.58l363.82,22.17Z"/>
  <polygon class="yearlingsAlbum" points="570.34 573.39 713.2 527.65 640.65 370.2 497.79 415.95 570.34 573.39"/>
  <g class="mask">
    <path d="M439.69,442.08c5.17,7.6,6.66,14.83,3.17,20.91-1.26,2.47-.39,5.3,1.14,8.46a58.92,58.92,0,0,1,5.13,14.62c1.09,7.54-1.15,13-6.89,16.36-3.92,2-8.38,2.6-13.27,2.35-4.25-.2-7.93.29-10.25,2.19-3.53,3-7.29,4.77-11.63,4.23-6.53-.89-11.69-4.46-15.09-11.22a25.24,25.24,0,0,1-7.73-4.91,21.23,21.23,0,0,1-4.66-6.74,5.38,5.38,0,0,1-.25-4.2,4.34,4.34,0,0,0,0-3.42c-.64-2.07.42-3.58,2.93-4.61a9.82,9.82,0,0,0,5-5.1c2.82-.72,5.82.46,9.26,2.38-.8-3.71-4.55-5.95-8.54-5.56-.54-3.12,1.74-4.12,2.9-8.24a12.46,12.46,0,0,1,7.91-8.59c-.26,2.83,2.9,5.11,7.77,7.13a48.91,48.91,0,0,0,22.62,2.53c2.32-.37,2.92-1.6,1.5-4.08-1.47-3.3-1.08-6.93,1.08-9.07s3.43-4.23,3.67-6.15C435.81,439.24,438.05,439.52,439.69,442.08Zm-21.61,43.48c1.29-5.76-8.16-12.21-12.65-8.78A34.47,34.47,0,0,1,418.08,485.56Zm-6.75,17c.59-2.19-.36-3.62-2.66-4.4a22.36,22.36,0,0,1-12.53,3.29C401,507.92,409.77,508,411.33,502.58Z"/>
    <path d="M357.09,474.48a40.06,40.06,0,0,1,19.71,19.27c0,1.52-3.53,1.36-8.35.63,3.68,3.32,7.3,5,10.79,3.37a37.28,37.28,0,0,0,9.65,5.59,7.42,7.42,0,0,1,4.23,4.13,17.2,17.2,0,0,0,2.8,4.32,7.89,7.89,0,0,1-3,12.08c.13,3.68-2.39,5.21-7.69,5.78-2.84.41-4.87.23-7.47,1.74-2.38,1.12-7,.47-10.81-1.37-4.11-2.08-8.83-3.59-13.26-3.44-7.18.31-13.74-1.7-20.66-6.19-9.6-6.68-12.47-17.23-13.55-28.89-.07-1.42-1.18-2.75-2-2.11-4.32,3.75-11.1,3.75-17.74,1.64-1.47-.54-2.5-2.42-.85-3.16a13,13,0,0,0,5.37-4.82c1.56-3.35,7.42-4.79,11.34-4.2a8.62,8.62,0,0,0,7-1.36c9.8,4.81,19.64,5.75,29,3.07C355.43,479.35,356.55,477.28,357.09,474.48Zm-6.47,29c9.11,4.81,15-.34,10.76-7.13C359.45,500,355.76,502.27,350.62,503.45ZM381,525.07a30.78,30.78,0,0,1-6.46-2.92c-3.44-1.89-5.58-1.47-6.51.73-.73,1.87.23,2.85,2.22,3.48,2.41.57,4,.54,5.86-.65A8.6,8.6,0,0,1,381,525.07Z"/>
    <path d="M653.59,410.91c5.31,6.74,7.43,13.93,5.13,21-.8,2.85.27,5.61,1.95,8.55a62.25,62.25,0,0,1,6.09,14c1.8,7.6.51,13.82-4,18.56a21.76,21.76,0,0,1-11.12,5.41c-3.67.74-6.78,2.08-8.55,4.57-2.69,3.86-5.71,6.59-9.5,7-5.71.53-10.55-2-14.25-8.3a17.86,17.86,0,0,1-7.2-3.37,18.76,18.76,0,0,1-4.78-6,6.4,6.4,0,0,1-.7-4.3,5.32,5.32,0,0,0-.36-3.57c-.78-2,0-3.82,2-5.45a11.9,11.9,0,0,0,3.71-6.43c2.34-1.37,5.06-.82,8.23.41a5.83,5.83,0,0,0-8-3.87c-.82-3.12,1-4.68,1.55-9.22a15.07,15.07,0,0,1,5.8-10.69c.1,3,3.08,4.66,7.49,5.67a35.59,35.59,0,0,0,19.72-2.43c2-.9,2.32-2.31.81-4.57a10.22,10.22,0,0,1-.11-9.68,15.23,15.23,0,0,0,2.45-7.21C649.93,408.83,651.88,408.62,653.59,410.91ZM640,461c.45-6.28-8.41-10.87-11.87-6.3A25,25,0,0,1,640,461Zm-3.83,19.2c.26-2.4-.72-3.68-2.79-4A20,20,0,0,1,623,482.4C627.92,488,635.48,486.09,636.2,480.15Z"/>
    <path d="M586.39,463.07c8.36,2.43,14.66,7.75,19.14,15.63.21,1.57-2.88,2.2-7.1,2.52,3.55,2.63,6.84,3.53,9.65,1.09A26.37,26.37,0,0,0,617,486a6,6,0,0,1,4.12,3.36,15.62,15.62,0,0,0,2.89,3.86,9.74,9.74,0,0,1-1.16,13.22c.54,3.8-1.45,6-5.93,7.73-2.39,1.07-4.16,1.33-6.22,3.48-1.91,1.7-6,2.06-9.44,1a19.87,19.87,0,0,0-11.78-.6c-6.13,1.92-12,1.3-18.45-1.83-9-4.79-12.7-15.12-15-27-.23-1.46-1.33-2.59-1.94-1.76-3.28,4.87-9.1,6.39-15,5.68-1.32-.24-2.43-2-1.09-3.1a15.42,15.42,0,0,0,4-6.21c1-3.83,5.82-6.64,9.25-6.9a7.45,7.45,0,0,0,5.83-3,29.25,29.25,0,0,0,25.25-3.29C585.52,468.5,586.25,466.1,586.39,463.07Zm-2.22,31.57c8.38,3,12.85-3.72,8.41-9.83C591.35,489.05,588.44,492.26,584.17,494.64Zm28.54,15.69a21.16,21.16,0,0,1-5.87-1.59c-3.18-1.2-5-.28-5.51,2.21-.42,2.11.53,2.91,2.31,3.12a5.52,5.52,0,0,0,5-2A7.15,7.15,0,0,1,612.71,510.33Z"/>
  </g>
  <g class="maskOverlapLine">
    <path d="M393,523.87a17.43,17.43,0,0,1-12,1.2"/>
    <path d="M392,500a14,14,0,0,0,4.14,1.49"/>
    <path d="M622.86,506.4a14.07,14.07,0,0,1-10.15,3.93"/>
    <path d="M619.3,481.77a9.58,9.58,0,0,0,3.73.63"/>
  </g>
  <path class="maraDress" d="M854.38,368.2c28.8,13.28,33.71,54.91,34.49,101.44-.21,14.61-3.8,23.59-10.15,32.46,6.49,6,10.15,17,12.85,29.76,7.7,44.86,17.11,119.23,8.68,136.44-5.62,12.3-10.18,19.32-22.88,25.19-32.63,17.1-88,28.11-164.89-2.83,5.87-61.24,14.71-118.33,27.6-175L740.41,401c11.5-11.33,29.76-21.51,48.37-31.43Z"/>
  <polygon class="albumHeld" points="612.06 772.65 738.32 843.85 752.35 673.51 626.09 602.31 612.06 772.65"/>
  <g class="skinAshkenazi">
    <path d="M757.44,373.43c-29.28,11.37-52.2,5.81-69.87-21.65-2.69-5.7-5.68-8.06-8.86-8.2-16.08,2.3-22.64-14.11-15.1-25.27,2.72-4.88,2.53-11,0-18-7.71-14.66-10.22-34-8.54-54.16C711.81,231.38,791.12,265.92,757.44,373.43Z"/>
    <path d="M847.8,369.2c4.22,6.83,9,17.13,6.39,22.07C849,400,814.69,405.5,801.63,400c-6.39-2.9-5.81-16.84-37.76-23.81Z"/>
    <path d="M728.55,520.16c0,5.26-.87,10.65-.69,13.8-14.36,22.71-22.71,47.43-30.06,55.12-5.16,7.62-12,12.35-21.38,17.36-12.36,7-15.7,18-18.71,32.74-3.67,18.71,3,33.07,14.37,42.43,5,4.34,13.69-4.34,14.36-11.36,2-8.68,8.35-13,16.7-19.37,7.35-6.68,12.7-13,14.37-23.39,2-6.07,2.67-8.35,11-15.7,19.37-21.38,43.09-54.11,48.44-83.51,7-35.41,9.78-69.36,8.35-93.54-1.44-20.9-12.36-35.4-31.4-37.07-15.37-2.34-26.74,15.78-27.09,35.8A228.15,228.15,0,0,0,728,465.91a46.55,46.55,0,0,1-22-2.67c-10.78-4.69-20.89-2.79-30.48,4.19-6.69,5-9.15,14.52-1.14,20.58,6.75,3.07,11.31,1.31,19.87-1.39l17.26,37.44C718.75,524.1,723,523.39,728.55,520.16Z"/>
    <path d="M877.37,693.49c-1.68,13.09-2.73,23.37-.56,35.52,4.77,25.82,1.3,45.78-5.43,66.18-4.33,14.32-6.16,31.9-1.08,47.73-12.8,29.07-130.18,34.71-145.37,7.81,10.47-1.32,19.77-4.42,27-9.23,6.35-4.61,12.08-12.62,9.66-24.47-3-15.22-9.48-42.61-12.09-68.71-2-18.87-1.35-32.61.9-51C795.4,706.83,838,706.54,877.37,693.49Z"/>
  </g>
  <g class="skinCreaseLine">
    <path d="M864.4,725.13a41.61,41.61,0,0,1-18.2,2.94"/>
    <path d="M817.43,730.41a61.82,61.82,0,0,1-27.59,3.53"/>
  </g>
  <g class="skinOverlapLine">
    <path d="M728,465.91a338.79,338.79,0,0,1,.51,54.25"/>
    <line x1="694.29" y1="486.62" x2="698.83" y2="484.52"/>
    <path d="M829.76,703.63c-2.07,8.81-3.63,16.41-2.07,26.6,4,21.92,1.21,53.72-5,80.5-2.25,9.67-6,23.85-7.26,36.45"/>
  </g>
  <ellipse class="eyeBlob" cx="680.18" cy="295.26" rx="6.47" ry="12.94" transform="translate(-58.13 226.56) rotate(-18.15)"/>
  <path class="maraShoe" d="M871.48,841.79c7.16,9.92,9,24.32,7.21,35-1.12,6.74-4.43,11.16-10.3,12.88-10.43,5.26-26,4.38-42.75,2.06-4.55,4.69-9.1,7.8-18,8.75-41.21,3.65-104.23-3.94-115.4-14.39-4.47-5.19-5.62-17.15,2.06-25.3,7.12-7.18,18-8.75,30.42-10.87,9.28,12.87,72.53,8.44,92.19-3.52,2.42,2.53,2.9,4.19,4.7,7.21C840.14,853.35,858.89,850.5,871.48,841.79Z"/>
  <path class="clothesOverlapLine" d="M821.58,853.63c6.52,12.67,10.35,27.31,4.06,38.12"/>
  <path class="clothesDisplayLine" d="M878.72,502.1c-30,14.16-63.27,18.67-99.63,13.75"/>
  <path class="hairRed" d="M909.52,297.7c-20.37-4.38-30.92-29.43-29-53.52,3.2-31.66-5.18-64.85-32.9-89.37-44.14-38-99.89-47.34-144.85-19.15-11.76,6.61-16.25,17.75-15.72,30.45l-13.26,13.26c-10.78-4-16.94-4.55-26,5.4-15.73,17.76-19.27,36.13-7.86,55,15,23.36,37.74,29.19,74.34,26.14,3.4,13.94,8.28,38.23,2.43,59-7.09,25.17,11.71,42.67,38.14,53.62,31.9,13.86,66.06,8.7,97.64-1.61C890.2,364.3,917.91,326,909.52,297.7Z"/>
  <path class="hairOverlapLine" d="M714.28,265.9c.15-4-1.21-7.26-1.64-11.82"/>
  <path class="maraHeadband" d="M687.33,159.15A69.43,69.43,0,0,0,665.64,177c10.59,28.32,14.7,55.49,47,77.11C689.65,218.17,690.5,185.73,687.33,159.15Z"/>
</svg>
