<svg viewBox="0 0 539.7 506.98">
  <g class="sketchLightest">
    <path d="M156.1,326.91a65.45,65.45,0,0,0-6.44-16.74h0a13.06,13.06,0,0,1-10,2.46c.57,7.28.35,13.51,1.55,19,1.18,5.72,2.39,14.65,1.21,19.87h0a14.18,14.18,0,0,0,10.24-8.43C154.54,338.35,156.89,331.33,156.1,326.91Z"/>
    <path d="M195.3,246.06a13.53,13.53,0,0,1,5.37,2.84c6,4.54,9.9,15.32,4.25,24.87-1.37,1.88-4.16,1.64-5.58-.49q-.72,9.44-7.66,14.18a15.7,15.7,0,0,1-18.8-.84c-7.81-7.1-5.94-26,3.93-35.79a16,16,0,0,1,7.27-4.51l-.34,5.13c4.6.26,8.24,1.65,10.95,4.14Z"/>
    <path d="M29.72,298.19c3.45-1.06,6.3-3.06,7-7,.49-5.58.15-10.83-4.32-14.84-4.14-3.17-8-.67-10.75,2.66-5.9-1.34-14.44.76-17.18,4.54C0,289.17.84,302.49,4.13,310.81c2.33,5.42,9,7.16,15.79,5.53,3.88-.93,5.26-3.22,7.6-6.7A17.37,17.37,0,0,0,29.72,298.19Z"/>
    <path d="M396.07,296.51c-2.65-2.36-6.24-5.71-9.83-9.36a13.71,13.71,0,0,0-3.79-.26,31.61,31.61,0,0,1-9.13-1.2,35,35,0,0,0-14.84,13.56c.83,7.47,3.94,13.35,9.2,18.87l11.64-13.84a8,8,0,0,0,.56,2.86c-9.5,8-8,18.37-3.15,22.21,4.57,2.81,9.68,4.06,13,2.75,8.68-2.86,16.1-14.25,18.22-20.09a11.48,11.48,0,0,0,.16-7.06A133.86,133.86,0,0,1,396.07,296.51Z"/>
    <path d="M322.44,99.49c-3.06-.41-5.19.64-6.16,2.93-1.6,3.36-3.07,5.89-4.11,5.66.52-2.79-.28-6-2.2-7-5.7-3.72-4.79-14.08-5-25.74a23.93,23.93,0,0,0-4.1,8.07,2.8,2.8,0,0,1-2.08,2c-17.28,3.63-39.16,2-51-1.34-.85,5.41-1.17,10.33-.37,14.26a15.48,15.48,0,0,1-.27,7.47c-6,20.22,1.21,34.44,18,43.52l-.8,4.45c-.71,5.77,1.76,11.48,7.21,15.77a9.3,9.3,0,0,0,7.8,1.57c8.13-1.77,24.51-7.82,25.83-15.88l.08,0a107.63,107.63,0,0,1,.76-14,22.69,22.69,0,0,1,3.59-9.9,39.38,39.38,0,0,0,4.48-9.08c5.83,2.12,10.89-2.18,12.37-13C327.39,104.1,326.13,100.73,322.44,99.49Z"/>
    <path d="M149.11,113.21c-4.64-4.79-8.39-11.3-11.61-18.8-3.94,11.3-11.65,18.88-22.52,23.32,2.2-5,3.61-9.61,3.61-13.73-13.21,11.89-26.29,23.24-36.5,22.5-.78-4.89-6-4.54-8.3-1.53-3.93,5.75-2.07,13.18,3.34,19.09a32.55,32.55,0,0,0,3.25,2c5.26,9.46,6.35,24.65,4.1,35.69,2.38,5,13.81,12.05,24.69,15,6.21-2.13,15.35-9.05,13.87-11.64a14.83,14.83,0,0,1-2-7.75c5.19-1.45,10.54-4.43,16-8.64,9.14-8.05,12.48-19.13,10.9-32.78A81.43,81.43,0,0,1,149.11,113.21Z"/>
  </g>
  <g class="sketchLighter">
    <path d="M502.8,150.46c-21.09,22.81-64.06,78.66-105.42,129.62,3,2,5.67,4,7.67,5.57,2.12,1.82,4.72,4.23,7.43,6.88,44.68-50,91.8-102.46,110.32-127.47,7.18-11.54,12.15-24.6,15.44-38.8C524.33,133.2,512.25,141.13,502.8,150.46Z"/>
    <path d="M171.4,170.45c-10.31-5.86-17.49-15.84-23.11-27.89a36.38,36.38,0,0,1-3.76,16.51c7.74,8.24,16.09,14.31,25.65,16.09C173,175.41,174.45,172.32,171.4,170.45Z"/>
    <path d="M385.83,64.74C407,42.81,396.6,36.12,375.39,51,364.33,58,335.79,67.59,323,64.26c-12.32-22.15-48.19-29.71-69.29-13.49-5.21-3.11-10.07-8.88-14.4-13.66-7.49-11.54-20.76-6.46-7.4,15-9.94-5.69-10.4,8.73.37,23.32-12.77-4.36-7.1,13.78,3.89,24.43-3.93,5.38,2,14.23,9,21.93h0a44.4,44.4,0,0,1,2-15.93,15.48,15.48,0,0,0,.27-7.47c-.8-3.93-.48-8.85.37-14.26a39.65,39.65,0,0,1-4.14-1.41,4.11,4.11,0,0,1-2.27-3.9c0-48.12,89.26-44.78,81,20.7h0c3.69,1.24,4.95,4.61,4.07,9.85-1.48,10.79-6.54,15.09-12.37,13a39.38,39.38,0,0,1-4.48,9.08,22.66,22.66,0,0,0-1.61,2.89c30.36,7,72-14.4,58.45-23,16.18-3.6,29.76-23.49,13-22.35C393.46,78.56,401.35,61.13,385.83,64.74Z"/>
    <path d="M80.09,80.55c3.42,6.73,1.27,22.2-4.84,27.69-12.8,4.1-20,11.26-22.91,23.29-3.6,18.15,2.23,29.5,15.71,40.72,3.37,2.71,0,4.82-3.14,3.74-10.41-4.92-19.75-13-23.74-27C34,121.09,52.16,78.51,80.09,80.55Z"/>
    <path d="M101.9,365.47c0,8.62-.49,17.87-.79,20.88,2.45,4.45,27.68,5.06,29.17,0,.61-1.93,1.35-16.09,1.18-26.62C122.8,363.16,112.49,365,101.9,365.47Z"/>
    <path d="M60.72,361.53a8.48,8.48,0,0,1-6.12-5.29,174.25,174.25,0,0,1-1.77,26.69c4,4.36,30.21,7.45,30.46,1.72a120.42,120.42,0,0,0,1.5-19.38A139.57,139.57,0,0,1,60.72,361.53Z"/>
    <path d="M183.74,251.45c4.6.26,8.24,1.65,10.95,4.14h0L206.53,76.36l-11.19-.58Z"/>
    <path d="M181.18,290.1,168.13,487.77a12.53,12.53,0,0,0,11.16,1l13.34-202A16.34,16.34,0,0,1,181.18,290.1Z"/>
    <path d="M19.11,278.64,15.16,92.94l-8,.1,3.37,186.73A23.58,23.58,0,0,1,19.11,278.64Z"/>
    <path d="M19.92,316.34a18.49,18.49,0,0,1-8.77.11l2.84,157a10.19,10.19,0,0,0,9.27-.4Z"/>
  </g>
  <g class="sketchMiddle">
    <path d="M376.73,329.35c-3.81-2.65-7.44-13.14,3.15-22.21a8.38,8.38,0,0,1-.56-2.86l-14.78,17.58c.08,3.62,6.4,9.4,10.39,9.74l1.83-2.23Z"/>
    <path d="M206.1,3.24a482.67,482.67,0,0,1,10.53,49.51,72.58,72.58,0,0,0-10.1,23.61l-11.19-.58a82.73,82.73,0,0,0-5-25.33A494.06,494.06,0,0,1,206.1,3.24Z"/>
    <path d="M15.16,92.94A41.67,41.67,0,0,1,21.89,71,439.77,439.77,0,0,0,10.05,18.21,491.37,491.37,0,0,0,1,70.82,37.06,37.06,0,0,1,7.12,93Z"/>
    <path d="M150.83,309.19c-2.66-11-4.72-28.72-6.72-47.17,0-12.22-.43-30.79-.46-49.83-.25-7.45-.87-12.92-6.73-19.46-3.8-4.53-8.91-7.31-14.56-9.06.2.44.43.89.68,1.37,1.48,2.59-7.66,9.51-13.87,11.64-10.88-2.91-22.31-9.93-24.69-15,.14-.69.27-1.39.39-2.11l-.81-.09c-11.78,2.93-21.18,5.93-28.53,16.53-8.76,12.89-13.07,34.59-21.33,55.55a170.85,170.85,0,0,1-13.47,27.22l1,.18c2.7-3.33,6.61-5.83,10.75-2.66,4.47,4,4.81,9.26,4.32,14.84-.74,3.95-3.59,5.95-7,7a18.74,18.74,0,0,1,.15,3.8l.3.26c12.6-10.95,23.79-24,27.92-34.5,0,6,1.25,10.39,4.13,12.4A170.7,170.7,0,0,0,101,286.76c13.77.36,25-1.71,33.55-7.1a38.4,38.4,0,0,1-1.2,9.13c-5.84,3.84-13.78,6-23,6.41a141.58,141.58,0,0,1-48.77-7.08l-.06-.32c-4.4,3.25-8,9.31-9.8,16.73-4,18-10.3,39.65-9.07,48.59,4,1.7,7.41,1.82,10.86-.25,1.19,4.2,2.56,7.45,7.27,8.66,24.36,6.15,60.47,6.5,80.09-6.64,3.5-3.31,1.93-15.91.42-23.25-1.2-5.5-1-11.73-1.55-19A13.16,13.16,0,0,0,150.83,309.19Z"/>
    <path d="M310.35,278l0-.5c-9.34,3.37-67.66.92-76.66-9.42h0c-17.81,16.32-30.11,105.4-37.84,180.64a7.26,7.26,0,0,0,2.83,6.53c17,12.91,87.77,22.9,110.24,11a8.41,8.41,0,0,0,4.39-6.71C320,385.16,328,298.19,310.35,278Z"/>
    <path d="M349.82,242.28c-8.95-42.34-3.41-75.79-44.59-87-1.32,8.06-17.7,14.11-25.83,15.88a9.3,9.3,0,0,1-7.8-1.57c-5.61-4.41-8.07-10.33-7.15-16.27-29.79,3.58-36.86,46.08-46.63,78.63a169,169,0,0,1-21.32,14.52,13,13,0,0,1,4.17,2.45c4.94,3.72,8.43,11.63,6.42,19.61h0A67,67,0,0,0,234.15,261l.16-1.92c7.66,7.8,59.92,14.29,76.72,8.89v-.17c7.78-1.72,5.49-16.78,9.09-23.49l3.22,11.32c5.37,12.11,19.11,29.38,34.78,45.4l.53-.46c-.07-.43-.13-.87-.18-1.31a35,35,0,0,1,14.84-13.56c.54.16,1.1.3,1.69.44l.09-.08C366.64,270.25,358.81,256.51,349.82,242.28Z"/>
  </g>
  <g class="sketchDarker">
    <path d="M423.87,304.57l-5.77,6.32a172.32,172.32,0,0,1-22-14.38,185.31,185.31,0,0,1-17-17.14l6.25-7.08a226,226,0,0,1,19.71,13.36A204,204,0,0,1,423.87,304.57Z"/>
    <path d="M374.93,331.6c-4-.34-10.31-6.12-10.39-9.74l.88-1.05A10.4,10.4,0,1,0,376,330.28Z"/>
    <path d="M260,470.84c-3.29,6.46-6.12,12.49-6.12,18,0,6,4.63,12.54,10.39,14.25,11.4,3.38,22.59,4,33.27,1.14a12.46,12.46,0,0,0,9.21-10.33c1.25-8.12-.92-16.83-4.37-25.11C291.81,471.73,276.15,472.15,260,470.84Z"/>
    <path d="M245.62,469.23c-15.81-2.23-30.69-5.91-40.18-10.19-9.07,4.8-17.53,9.26-20.71,16-2.75,5.88-2,12.46,3.07,16,12.94,9.06,31.17,7.57,50.59-.37,5.92-2.42,7.43-6.63,7.73-11.33A52.81,52.81,0,0,0,245.62,469.23Z"/>
    <path d="M150.52,473.38c-2.43-9-8.55-13.44-17-16.34,1.2-25.77,2.45-55.6,2-64.07-.28-3.56-2.35-5.49-5.19-6.62-1.5,5.06-26.72,4.45-29.17,0,0-.5.11-1.17.17-2-4.35,1.58-7.06,4.44-7.6,9-1.36,11.51-4.11,38.61-7.67,66.08-.47-15.47,4.37-64.69,2.33-69.36a11.36,11.36,0,0,0-5-5.4c-.25,5.73-26.43,2.64-30.46-1.72.12-.74.23-1.49.33-2.24-5.08,1.7-7.74,5.2-7.51,10.84-2.45,29.75-5.49,58.15-7.2,77.67,0,4.82.91,7.75,4.75,10.05,13.53,7,26.93,12.11,39.75,9.1,6.46-1.45,9.88-5.72,11-12.11l.47.27c17.65,9.49,34.93,17.21,49.25,10.73C148.91,484.93,152.12,477.94,150.52,473.38Z"/>
    <path d="M134.54,279.66a38.4,38.4,0,0,1-1.2,9.13c-5.84,3.84-13.78,6-23,6.41a141.58,141.58,0,0,1-48.77-7.08,12.17,12.17,0,0,1,.7-8A170.7,170.7,0,0,0,101,286.76C114.76,287.12,126,285.05,134.54,279.66Z"/>
    <path d="M311.44,267.83l-.83,9.56c-8.7,3.51-68.6,1.05-77.06-9.55l.76-8.77C242,266.93,295.09,273.47,311.44,267.83Z"/>
  </g>
  <g class="sketchDarkest">
    <path d="M322.45,99.49c8.21-65.48-81.08-68.82-81-20.7a4.11,4.11,0,0,0,2.27,3.9c10.12,4.23,35.59,6.86,55.15,2.75a2.8,2.8,0,0,0,2.08-2,23.93,23.93,0,0,1,4.1-8.07c.18,11.66-.73,22,5,25.74,1.92,1,2.72,4.22,2.2,7,1,.23,2.51-2.3,4.11-5.66C317.25,100.13,319.38,99.08,322.45,99.49Z"/>
    <path d="M323,64.26a26.89,26.89,0,0,0,7.43.67h0c-10.54-31.66-51.19-35.21-71.34-17.62h0C280.47,35.87,311.71,43.89,323,64.26Z"/>
    <path d="M165.78,83.23c-6.24-2.15-12.64-11.55-21.75-17.56,1.44-6.41,7.82-10.05,15.2-13.13-10.62-2.53-17.14-1.5-24.9,4.65-2.54-16.54-10.64-28.45-25.9-34.39,8,7.86,11.56,18.83,12.06,32-30-5.74-65.12,8.5-67.91,40.51,7-9.41,16.51-15.53,27.51-14.73,3.42,6.73,1.27,22.2-4.84,27.69-9.06,2.9-15.32,7.34-19.23,14,4.61,21.57,16.08,18.17,12.86,40.49C80.25,161.27,82,150.19,78.06,145,71.94,139,69.65,131,73.79,125c2.27-3,7.52-3.36,8.3,1.53,10.21.74,23.29-10.61,36.5-22.5,0,4.12-1.41,8.78-3.61,13.73,10.87-4.44,18.58-12,22.52-23.32,4.66,10.83,10.39,19.61,18.37,24.09,5.92-11.65,6.88-21.92-1.84-29.47a15.93,15.93,0,0,0,9.24-.16C165.71,88,168.45,84.15,165.78,83.23Z"/>
    <path d="M324.28,135.58h0a59.91,59.91,0,0,1-16.23-1.3,23.34,23.34,0,0,0-2,7,107.63,107.63,0,0,0-.76,14l-.08,0A60.36,60.36,0,0,1,319.49,161C325.51,152.66,326,143.92,324.28,135.58Z"/>
  </g>
  <g class="sketchLine">
    <path d="M237.36,196.7c-3.57,18.89-8.27,41.77-8.2,47.87,0,5.8,1.39,10.8,5.15,14.5"/>
    <path d="M320,244.08c-2.61-9.27-4.48-23.73-6.22-39.09"/>
    <path d="M53.45,352.87c-1.08-8.26.59-22.49,2.45-37.13"/>
    <path d="M58.09,267.75c4.39-8.94,9.62-27.42,14.9-46.48"/>
    <path d="M134.54,279.66c4.34-2.8,6.28-7.77,6.47-14.3-.37-12.22-2.36-33.09-4.46-54.59"/>
    <path d="M133.34,288.79c4.39,4.49,5.82,13.48,6.34,23.84"/>
    <path d="M133.48,457c-7-2.22-15-2.52-21.26-.26"/>
    <path d="M349.82,242.28a21.35,21.35,0,0,0-11.58,3.8"/>
    <path d="M217.82,231.93c2.42-.19,6.7,1.39,8.48,4"/>
    <path d="M34.2,251.6c4.75-2.45,14.08.88,15.23,5"/>
    <path d="M120.61,177.25c-13.79,1.61-23.85-7.31-29.86-16.66"/>
    <path d="M265.19,149.35c11.08,5.43,24.42.93,33.59-7.51"/>
    <path d="M80,146a3.64,3.64,0,0,0,4.06-.45"/>
    <path d="M29.72,298.19c-6.15,1.47-10.3-16.17-8-19.19"/>
    <path d="M382,296.49a16.2,16.2,0,0,0-2.69,7.79"/>
    <path d="M379.88,307.14c1.19,2.84,3.2,4.7,6,4.94,4-.05,6.76-3.82,7.87-7.34a29.49,29.49,0,0,0,1.52-8.95"/>
    <line x1="405.05" y1="285.65" x2="538.24" y2="126.26"/>
    <path d="M129.66,142.71c2.49,8.25-6.89,9.84-13.85,6.82"/>
    <path d="M274.09,125.63c-6.69,3-13.65,0-12.73-5.93"/>
    <path d="M275.94,136.64a27.09,27.09,0,0,1-10.39-.51"/>
    <path d="M127.29,160.57a64.06,64.06,0,0,0-12.06.15"/>
    <path d="M94,476.24c2.29-14.8-15.89-28.36-38.87-13.61"/>
    <path d="M194.69,255.59c4,3.4,5.5,9,4.65,17.69"/>
  </g>
  <g class="eyeBlob">
    <ellipse cx="283.88" cy="105.61" rx="6.4" ry="4.4" transform="translate(153.93 379.2) rotate(-85)"/>
    <ellipse cx="258.74" cy="103.81" rx="6.4" ry="4.4" transform="translate(132.77 352.52) rotate(-85)"/>
    <ellipse cx="134.69" cy="131.1" rx="6.4" ry="4.4" transform="translate(-7.66 253.85) rotate(-85)"/>
    <ellipse cx="109.84" cy="130.54" rx="6.4" ry="4.4" transform="translate(-29.77 228.58) rotate(-85)"/>
  </g>
  <g class="star">
    <path d="M360.64,65.79c.73,6.94,2.25,13.46,6.4,16.4-4.48.78-5.87,8.37-6.8,15.6-.46-7.31-1.48-13.91-6.4-16C358.64,79.39,359.56,72.91,360.64,65.79Z"/>
    <path d="M252.79,169.59c.72,6.93,2,13.6,6.4,16-4.49.78-5.88,8.76-6.8,16-.46-7.31-2-15.2-6.4-16.4C250.79,182.79,251.7,176.71,252.79,169.59Z"/>
    <path d="M301.83,343.2c.72-6.94,2-13.6,6.4-16-4.48-.78-5.87-8.77-6.8-16-.46,7.31-2,15.2-6.4,16.4C299.83,330,300.75,336.08,301.83,343.2Z"/>
    <path d="M226.87,364.78c-.72-6.94-2-13.6-6.4-16,4-1.2,5.87-8.76,6.8-16,.46,7.31,2,14.8,6.4,16.4C228.87,351.58,228,357.66,226.87,364.78Z"/>
    <path d="M123.94,222.88c-.66-6.34-1.83-12.41-5.84-14.6,3.65-1.1,5.36-8,6.2-14.6.42,6.66,1.83,13.5,5.84,15C125.76,210.83,124.93,216.38,123.94,222.88Z"/>
    <path d="M72.54,279.82c-.51-4.94-1.42-9.69-4.56-11.4,2.85-.85,4.19-6.24,4.85-11.4.32,5.21,1.42,10.55,4.56,11.69C74,270.42,73.31,274.75,72.54,279.82Z"/>
    <path d="M301.25,230c-.45-4.34-1.25-8.5-4-10,2.5-.75,3.67-5.48,4.25-10,.29,4.57,1.25,9.25,4,10.25C302.5,221.72,301.93,225.52,301.25,230Z"/>
    <path d="M121.4,417.81c-.46-4.34-1.25-8.5-4-10,2.5-.75,3.67-5.48,4.25-10,.28,4.57,1.25,9.25,4,10.25C122.65,409.56,122.07,413.36,121.4,417.81Z"/>
    <path d="M203.15,488.4c-.45-4.33-1.25-8.5-4-10,2.5-.75,3.68-5.48,4.25-10,.29,4.57,1.25,9.25,4,10.25C204.4,480.15,203.83,484,203.15,488.4Z"/>
    <path d="M126.92,296.31c-.51,4.94-1.42,9.69-4.56,11.4,2.85.86,4.19,6.25,4.85,11.4.33-5.21,1.42-10.54,4.56-11.68C128.35,305.72,127.7,301.38,126.92,296.31Z"/>
    <path d="M386.11,307.74c-.51,4.95-1.42,9.69-4.56,11.4,2.85.86,4.19,6.25,4.85,11.4.33-5.2,1.42-10.54,4.56-11.68C387.54,317.15,386.89,312.82,386.11,307.74Z"/>
    <path d="M67.17,107.1c-.51-4.95-1.42-9.69-4.56-11.4,2.85-.86,4.19-6.25,4.85-11.4C67.79,89.5,68.88,94.84,72,96,68.6,97.69,68,102,67.17,107.1Z"/>
    <path d="M291.75,466c.66-6.33,1.83-12.41,5.84-14.6-3.65-1.09-5.36-8-6.2-14.6-.42,6.67-1.83,13.51-5.84,15C289.93,454,290.76,459.5,291.75,466Z"/>
    <path d="M66.54,488.88c-.66-6.33-1.83-12.41-5.84-14.6,3.65-1.09,5.36-8,6.2-14.6.42,6.67,1.83,13.51,5.84,15C68.36,476.84,67.53,482.39,66.54,488.88Z"/>
    <path d="M130.85,64.19c-.66,6.33-1.82,12.41-5.84,14.6,3.65,1.09,5.36,8,6.21,14.6.41-6.67,1.82-13.51,5.84-15C132.68,76.23,131.84,70.68,130.85,64.19Z"/>
    <path d="M500.51,187.16c-.67-6.51-1.87-12.75-6-15,3.75-1.13,5.51-8.22,6.38-15,.43,6.85,1.87,13.87,6,15.37C502.39,174.78,501.53,180.49,500.51,187.16Z"/>
  </g>
</svg>
