<svg viewBox="0 0 440.93 296.31">
  <g class="sketchLightest">
    <path d="M326.2,67c-5.91,16.8-8.11,34.77-7,53.81-8.18-15.5-7.44-36.33-3.82-53.44A28.25,28.25,0,0,0,326.2,67Z"/>
    <path d="M299.29,65.12a15.23,15.23,0,0,1-8.13-1.84c-2.6,15.26-3.64,36.45,3.08,54.64C294.89,99.37,295.8,80.51,299.29,65.12Z"/>
  </g>
  <g class="sketchLighter">
    <path d="M252.6,147.63a1.59,1.59,0,0,1,1.64,2.45,33,33,0,0,1-16.05,14.32c-2.53,1.07-7-.59-8.91-5.24-1.81-4.39-.09-7.81,2.41-8.17A84.76,84.76,0,0,0,252.6,147.63Z"/>
    <path d="M280.45,131.44a21.48,21.48,0,0,0,5.73-13,1.62,1.62,0,0,0-2.37-1.55c-5.79,3.54-10.94,6.07-15.63,6.92A73.27,73.27,0,0,0,280.45,131.44Z"/>
    <path d="M439.12,80.91a1.21,1.21,0,0,0-2.24,0,23.05,23.05,0,0,1-17.54,14c-3.42-7.59-8-14.45-13.24-18.67-6.42-4.75-12-11.38-17.05-19.27-7.11-10.36-17.11-18.6-29.84-24.84h0c4.61-5.73,7.18-13.39,5.15-19.95-7.83,1.54-21.77,11.3-33,6.31-4.71-1.87-15.1-3.52-21.29-2.69-4.77.7-13.79-8.42-19.52-15.08-5.49,5.6-5,14.38-.8,23.4-8.57,7.19-13.47,16.36-14.09,27.68-4.78,1-10.35,1.89-12.13,1.07a29.85,29.85,0,0,1-7.25-4.77,13.9,13.9,0,0,1-4.57-6.71c-1-4.75-4-9.61-7.22-11-10.48-4.61-20.95-5.28-29.56.31-5.12,3.3-6.32,9.09-5.54,14.71.82,6.19,8.29,7,9.91,6,1.58,1.85,7.63,2.74,12.59.89,0,0,11.78,9.65,15.42,16.86,3.92,6.92,8.62,14,15,18,7.61,4.5,18.17,5.87,27.13,6.15a134.21,134.21,0,0,1,1.79-30c4.29,2.78,12.52,2.86,14.89-2.16.86,3.32,4.36,5.22,9.37,6.29A28.25,28.25,0,0,0,326.2,67c-5.91,16.8-8.11,34.77-7,53.81-4.48-8.5-6.28-18.6-6.4-28.8-4,4.1-14.33,2.94-17-2.57-.25,2.81-.46,5.67-.64,8.55a21.92,21.92,0,0,0,4.18,2.12,138.17,138.17,0,0,1,16.57,21.56c2.9,4.83,7.06,8.25,12.33,11.22a35.51,35.51,0,0,0,10.7-7.58,2.66,2.66,0,0,1,3.49-.3,60.64,60.64,0,0,0,11,6,4.42,4.42,0,0,1,2.66,3.55c.36,3.22-1.73,6.71-4.49,8.71,8.62,8.7,16.09,25.93,26.63,23.88-.52,5.68-.76,10.88-2.72,14.46-1.68,3.56-1.8,8.69.66,10.75,1.86,1.83,7.89,2.44,11.49,1.27,5.79-1.74,7.77-6.61,6.74-14a50.78,50.78,0,0,1,.12-20.94c4.12,4.32,9.51,8.42,14.57,10,4,10.49,5.62,21,4.46,31.48-.14,4.85,3,11.68,5.35,12.33,6.44,1.18,12,.1,16.72-4,2.37-2.2,1.95-10.94-1.77-16.92-4.43-8.43-8.24-18.71-7.3-25,.57-5.23,1.7-9.82-.56-16.17-1.24-4.44-1.07-6.62-1-11a85.29,85.29,0,0,0-1-30.93C434,103.29,444.1,93.24,439.12,80.91ZM292.83,33.54c2.76,2.32,7.22,4.49,7.85,8.42C294.13,42.6,292.12,39.26,292.83,33.54Zm22.1,19.61a19.68,19.68,0,0,1-7.42,7.26,2.28,2.28,0,0,1-2.74-.45c-2.17-2.32-3.4-5.72-4.25-9.34A1.73,1.73,0,0,1,302,48.51a18.86,18.86,0,0,1,12.4,2.35A1.64,1.64,0,0,1,314.93,53.15Zm6.45-8.74c2.86-3.09,6.92-4.91,12.46-3.93C331.44,45.13,327.11,46.8,321.38,44.41Z"/>
  </g>
  <g class="sketchMiddle">
    <path d="M353.41,131.05a60.64,60.64,0,0,1-11-6,2.66,2.66,0,0,0-3.49.3c-8.83,9.28-24.42,14.37-44.51,11-15.64-3.18-33.25-15.87-35.62-23.34C249.3,82.3,235.71,63.57,209,57.94a302.69,302.69,0,0,1-30-8.47c-15.52-4.1-27.54.71-35.54,13.36-3.76,5.73-6.5,10.24-9.82,14.51A54.21,54.21,0,0,0,129,84.61a108,108,0,0,1-18.42,5.84C91.86,94.08,76.9,98.9,67,105.37,46.35,117.23,28.37,132.64,22,150.84c-7.67,19.73-5.54,44,4.78,64.45.84,1.63,1.76,3.26,2.75,4.87h0c1.12,13.83-1.83,26.77-11.09,33.78a.75.75,0,0,0,.65,1.32c11.05-2.87,14.81-15.23,16.08-26.88,4.11,5.46,8.8,10.8,13.51,16,5,7.7,6.51,18.08,3.42,29.29,7.14,6.78,37.94,4.37,43-2.62.67-7.74-.35-15.49-2.68-24.23,3.2,7.4,5.76,13.46,6.57,19.91,8.26,3.26,32.56,1.41,37.76-4.16a33.62,33.62,0,0,0-1.69-12.33c13.79-2,26.69-6.06,35-10.5a68.33,68.33,0,0,0,8.54,6.65c5.62,4,6.6,10.22,5.64,18.85,10.27,3.66,35.94,1.13,40.22-5.22-1.92-4.74-3-11.12-3.69-16.18-1.22-10.71-5.56-19.21-10.89-26.93a30.69,30.69,0,0,0,10.3-9.15c3.78,1.43,7.56,1.9,13,2.28,7.46.76,14.29,10.08,20.2,19.57,1.87-6.14,7.51-9.85,15.75-11.91,6.38-1.9,11-5.75,13.15-12.25a105.68,105.68,0,0,1-13.38-19.59,21.64,21.64,0,0,0-14.15-10.1h0a20.45,20.45,0,0,0-1.23-9.61,69.89,69.89,0,0,1,27.91-3c24.06,1.88,48.08-6.49,68.34-18.78,3.6-1.56,6.76-5.86,6.32-9.76A4.42,4.42,0,0,0,353.41,131.05ZM204.68,141.4c-2-.39-3.28-1.7-2-3.8,2.81-3.66,7.66-6.79,12.88-8.81a18.31,18.31,0,0,1,3.36,9.09A21.55,21.55,0,0,1,204.68,141.4Zm44.89,35c-2.47,1.07-6.2-2.59-11.43-3.84a99,99,0,0,1,10.66-4.91C250.25,171.27,250.6,175.22,249.57,176.45Zm4.67-26.37a33,33,0,0,1-16.05,14.32c-2.53,1.07-7-.59-8.91-5.24-1.81-4.39-.09-7.81,2.41-8.17a84.76,84.76,0,0,0,20.91-3.36A1.59,1.59,0,0,1,254.24,150.08Zm97-11.56a3,3,0,0,1-4.21.67,10.23,10.23,0,0,1-4.38-8.84.72.72,0,0,1,1.13-.56,30.49,30.49,0,0,0,8.22,4.13C353.45,134.64,352.69,136.4,351.21,138.52Z"/>
    <path d="M304.77,60c-2.17-2.32-3.4-5.72-4.25-9.34A1.73,1.73,0,0,1,302,48.51a18.86,18.86,0,0,1,12.4,2.35,1.64,1.64,0,0,1,.57,2.29,19.68,19.68,0,0,1-7.42,7.26A2.28,2.28,0,0,1,304.77,60Z"/>
    <path d="M178.58,246.39c-1.92-1.32-3.65-2.55-5.25-3.82l-13,1.46a127.24,127.24,0,0,1-25.23,6.21,36.76,36.76,0,0,1,1.29,5.29l46-5.12A13.23,13.23,0,0,0,178.58,246.39Z"/>
    <path d="M94.36,251.37l-.81.09A78.31,78.31,0,0,1,95,260.14l2.52-.28A88.43,88.43,0,0,0,94.36,251.37Z"/>
    <path d="M52.54,253.18C30.16,255.09,11.43,262.25,1.67,273c-2.53,2.79-.73,4.77,3.2,6.36,16.18-12.78,30.58-17.66,48.8-18.35A35.79,35.79,0,0,0,52.54,253.18Z"/>
    <path d="M404.24,240.3c-10.44.6-15.2.19-27.38-.73-8-.44-12.29-.63-20.1-5.35-7.6-5.6-18.63-4.49-31.44-4.93q-11.77.44-23.77,1.12c-1.26,3.09-2.37,5.79-2.12,8.92q13.47-.78,26.65-1.29c12.82.44,23.84-.67,31.45,4.93,7.81,4.72,12.09,4.92,20.09,5.35,12.18.92,17.19,1.34,27.38.74a9.32,9.32,0,0,1,4.62.86,12.34,12.34,0,0,0,2.06-2.58C414.49,243.68,408.75,239.91,404.24,240.3Z"/>
    <path d="M256.37,233.7q-18.18,1.61-36.79,3.64a48.9,48.9,0,0,1,1.17,6.5c.1.7.21,1.43.33,2.17q20.94-2.28,41.37-4Z"/>
    <path d="M312.84,92a114.33,114.33,0,0,1,2.58-24.62c-4.45-1-7.7-2.56-9-5.23a50.32,50.32,0,0,1-4.13,11.5c-2.17,4.46-3.76,12.41-4.29,18.42,5.47,3.9,12.8,2.42,14.81,0Z"/>
  </g>
  <g class="sketchDarker">
    <path d="M300.68,42c-6.55.64-8.56-2.7-7.85-8.42C295.59,35.86,300.05,38,300.68,42Z"/>
    <path d="M333.84,40.48c-2.4,4.65-6.73,6.32-12.46,3.93C324.24,41.32,328.3,39.5,333.84,40.48Z"/>
    <path d="M248.8,167.7a99,99,0,0,0-10.66,4.91c5.23,1.25,9,4.91,11.43,3.84C250.6,175.22,250.25,171.27,248.8,167.7Z"/>
    <path d="M342.62,130.35a.72.72,0,0,1,1.13-.56,30.49,30.49,0,0,0,8.22,4.13c1.48.72.72,2.48-.76,4.6a3,3,0,0,1-4.21.67A10.23,10.23,0,0,1,342.62,130.35Z"/>
    <path d="M215.52,128.79a18.31,18.31,0,0,1,3.36,9.09,21.55,21.55,0,0,1-14.2,3.52c-2-.39-3.28-1.7-2-3.8C205.45,133.94,210.3,130.81,215.52,128.79Z"/>
    <path d="M299,217.93l-16.74-12.48c-2.17,6.5-6.77,10.35-13.15,12.25-8.24,2.06-13.88,5.77-15.75,11.91l11,15c3.44,3.25,7.92,3.59,12.77,2.86a31.91,31.91,0,0,0,13.31-7.14c2.14-1.61,3.18.1,3.61,2.25s-1.25,5.23-1.49,8.95c-.2,7.41,12.76,6,11-1-.58-3.36-2.14-4.93-3.59-8.5-1.57-5,.39-8.57,2.25-13.29A8.59,8.59,0,0,0,299,217.93Z"/>
    <path d="M299.29,65.12a187.2,187.2,0,0,0-3.49,24.37A7,7,0,0,0,298,92.1c.53-6,2.12-14,4.29-18.42a50.32,50.32,0,0,0,4.13-11.5,6.39,6.39,0,0,1-.39-1.06C304.37,64.73,299.29,65.12,299.29,65.12Z"/>
    <path d="M248.8,167.7a99,99,0,0,0-10.66,4.91c5.23,1.25,9,4.91,11.43,3.84C250.6,175.22,250.25,171.27,248.8,167.7Z"/>
  </g>
  <path class="sketchDarkest" d="M405,249.06c-10.19.6-15.2.18-27.38-.74-8-.43-12.28-.63-20.09-5.35-7.61-5.6-18.63-4.49-31.45-4.93q-13.17.5-26.65,1.29A12.07,12.07,0,0,0,300,242c1.45,3.57,3,5.14,3.59,8.5,1.75,7-11.21,8.38-11,1,.24-3.72,2-6.65,1.49-8.95-.26-1.32-.75-2.46-1.58-2.79l-1.26.08a4.71,4.71,0,0,0-.77.46,31.91,31.91,0,0,1-13.31,7.14c-4.85.73-9.33.39-12.77-2.86l-1.9-2.59q-20.41,1.72-41.37,4a66.56,66.56,0,0,0,3.36,14c-4.28,6.35-29.95,8.88-40.22,5.22.69-6.15.38-11.06-1.88-14.83l-46,5.12a29.2,29.2,0,0,1,.4,7c-5.2,5.57-29.5,7.42-37.76,4.16a41.57,41.57,0,0,0-1.5-6.87l-2.52.28a56.92,56.92,0,0,1,.13,10.91c-5.07,7-35.87,9.4-43,2.62A42.72,42.72,0,0,0,53.67,261c-18.22.69-32.62,5.57-48.8,18.34a49.76,49.76,0,0,0,7.21,2.13,65.4,65.4,0,0,1,19.17,7.71c11.68,5.93,26.73,7.74,44.63,6.06q33.48-3.21,65.4-3.73a627.5,627.5,0,0,0,66.09-5.5c23-3.16,47-5.38,71.67-6.84,34-1.83,75.23-8.33,108.47-18.59,9.61-3.11,17.84-6.48,22.11-10.63A9.25,9.25,0,0,0,405,249.06Z"/>
  <g class="sketchLine">
    <path d="M291.4,7.49c1.89,4.11,2.73,8.23,1.94,12.35"/>
    <path d="M360.32,18c-1.51,5.54-9.58,7.67-10.47,13.72"/>
    <path d="M333.84,40.48a9.31,9.31,0,0,0,4.72-1.27"/>
    <path d="M292.83,33.54a8.72,8.72,0,0,1-2.23-2.65"/>
    <path d="M326.2,67c5.6-1.06,8.16-4,8.39-8.13"/>
    <path d="M291.16,63.28c-3.61-2.25-5-5-5.61-8.9"/>
    <path d="M394.1,82.15a101.77,101.77,0,0,1-1.77,22.06A22.43,22.43,0,0,0,394.5,116c6,10,7.25,24.4.55,32.39a9,9,0,0,1-6,3.37"/>
    <path d="M381.87,147.24c-4.74,1.52-12-.94-13.68-6.77"/>
    <path d="M365.93,95.14c-.46,7.72-.2,16.21,3.47,21.78"/>
    <path d="M371.38,115.15c-6.41,5.63-11.56,11-9.2,18.44,2.47,5.48,5,8.67,12.55,6.87"/>
    <path d="M219.28,51.36a7.32,7.32,0,0,1-2-3.24"/>
    <path d="M229.45,47.34c0,6.82,7.63,7.11,15.1,3.51"/>
    <path d="M378.21,167.19a12.77,12.77,0,0,0,7.33-4.06"/>
    <path d="M409.07,168.75a9,9,0,0,0,6.16-1.1"/>
    <path d="M123.27,121.49c2.12-2.52,5.07-2.87,8.33-2.43"/>
    <path d="M220.16,207.76A63.37,63.37,0,0,0,227.88,192"/>
    <line x1="209.86" y1="216.91" x2="206.93" y2="212.61"/>
    <path d="M170,239.74A58.94,58.94,0,0,1,159.88,231"/>
    <line x1="215.52" y1="128.79" x2="217.17" y2="128.07"/>
    <path d="M254.73,175.76a9.39,9.39,0,0,1-3,5.62c-2.68,2-7.75-.74-18.75.07-8.84.65-15.59,1-24.39,1.15-21.69.05-36-8.23-47.22-22.62-4.78,3.15-9.7,5-15.34.21a46.18,46.18,0,0,0-9.52-8c-10.3-3.93-22.14-20.64-13.22-30.71a23.53,23.53,0,0,1-1.69-16.07c.89-2.92,2.82-6.79,3.61-10.84a45.44,45.44,0,0,1,3.83-10"/>
    <path d="M135.06,250.24c-28.19,2.42-46-2.28-53.68-9.29"/>
    <path d="M29.48,220.17a54.33,54.33,0,0,0,5.57,8.34"/>
    <path d="M229.65,176.49c5.88-1.61,13-7.37,23.85-10.34"/>
    <path d="M424.29,108.53a77.55,77.55,0,0,0-5-13.6"/>
    <path d="M351.35,143.08c10.3,3.91,17.84,4.13,25.13,4.35,2.16,3.17,8.34,5.14,12.61,4.3a37.8,37.8,0,0,0,5.41,7"/>
    <path d="M319.68,96.49a54.25,54.25,0,0,0,18.68-20.56c2.56-.11,4.83,2.29,7,5.36a42.65,42.65,0,0,0,3.72-12.84c3.33-2.41,6.89-1.76,10.61,1.06,4.24-12.31,1.82-22.93-5.94-32.2a27.07,27.07,0,0,0,5.45-5.16"/>
    <path d="M299.35,100.15a19.45,19.45,0,0,0,13.94-.19"/>
    <path d="M275.64,51.82a51.37,51.37,0,0,0,.74,11.61c1.24-1.58,2.5-3.6,4.17-4.35,1.72,9.11,5.67,13.74,8.73,21.92"/>
    <path d="M46.68,263.9C31,266.7,18.4,272.19,11.35,279.51"/>
    <path d="M90,277.75c-11.25,4.69-30.7,3.54-37.77.75-4.41-1.61-7.27-5.06.43-8.29"/>
    <path d="M226.61,265.23c-11.26,4.69-35.56,6.53-42.61,4-6.72-2-7.86-5.29.48-7.72"/>
    <path d="M140.34,264.53c-7.41,6.34-33.67,8.64-44.28,4.44"/>
    <path d="M331.33,242.7c6.3-.46,15.91-.25,21.59,3,8.71,5.21,16,7.24,25.12,7.47"/>
  </g>
  <g class="star">
    <path d="M223.15,29c.51,4.92,1.59,9.54,4.53,11.62-3.18.55-4.16,5.93-4.82,11-.32-5.17-1.05-9.85-4.53-11.33C221.73,38.59,222.38,34,223.15,29Z"/>
    <path d="M165.63,54.47c.51,4.91,1.42,9.63,4.54,11.33C167,66.36,166,72,165.35,77.14c-.33-5.18-1.42-10.77-4.54-11.62C164.21,63.82,164.86,59.51,165.63,54.47Z"/>
    <path d="M150.32,204.52c.51-4.92,1.41-9.64,4.53-11.34-3.18-.55-4.16-6.21-4.82-11.34-.32,5.18-1.41,10.77-4.53,11.62C148.9,195.17,149.55,199.47,150.32,204.52Z"/>
    <path d="M38.89,169.86c-.51-4.92-1.42-9.64-4.54-11.34,2.84-.85,4.17-6.21,4.82-11.33.33,5.17,1.42,10.48,4.54,11.62C40.3,160.51,39.66,164.81,38.89,169.86Z"/>
    <path d="M411.36,120.49c-.47-4.48-1.3-8.79-4.14-10.34,2.59-.78,3.8-5.67,4.4-10.35.29,4.73,1.29,9.57,4.13,10.6C412.65,112,412.06,115.89,411.36,120.49Z"/>
    <path d="M306,158.74c-.36-3.5-1-6.86-3.23-8.07,2-.61,3-4.43,3.44-8.08.23,3.69,1,7.47,3.23,8.28C307,152.08,306.51,155.15,306,158.74Z"/>
    <path d="M410.88,160.1c-.32-3.08-.89-6-2.83-7.09,1.77-.53,2.6-3.88,3-7.09.2,3.24.88,6.56,2.83,7.27C411.77,154.25,411.36,156.94,410.88,160.1Z"/>
    <path d="M190.14,176.85c-.31-3.08-.88-6-2.83-7.09,1.77-.53,2.6-3.88,3-7.08.21,3.23.89,6.55,2.84,7.26C191,171,190.63,173.69,190.14,176.85Z"/>
    <path d="M384.05,188.33c-.32-3.07-.89-6-2.84-7.08,1.77-.53,2.6-3.88,3-7.09.21,3.24.89,6.56,2.84,7.27C384.93,182.49,384.53,185.18,384.05,188.33Z"/>
    <path d="M200.58,238.87c-.36,3.5-1,6.86-3.23,8.07,2,.61,3,4.43,3.44,8.08.23-3.69,1-7.47,3.23-8.28C201.59,245.53,201.13,242.46,200.58,238.87Z"/>
    <path d="M328.33,108.77c-.37,3.5-1,6.86-3.24,8.07,2,.61,3,4.43,3.44,8.08.23-3.69,1-7.47,3.23-8.28C329.34,115.43,328.87,112.36,328.33,108.77Z"/>
    <path d="M57.29,243.09c-.37-3.5-1-6.86-3.24-8.08,2-.6,3-4.42,3.44-8.07.23,3.69,1,7.47,3.23,8.28C58.3,236.43,57.83,239.5,57.29,243.09Z"/>
    <path d="M303.17,38.65c.47-4.48,1.29-8.79,4.14-10.34-2.59-.78-3.8-5.67-4.4-10.35-.3,4.73-1.29,9.57-4.14,10.61C301.88,30.12,302.47,34.05,303.17,38.65Z"/>
    <path d="M260.49,207.38c-.47-4.49-1.3-8.79-4.14-10.35,2.59-.77,3.8-5.66,4.4-10.34.29,4.72,1.29,9.57,4.13,10.6C261.78,198.84,261.19,202.78,260.49,207.38Z"/>
  </g>
</svg>
