<svg viewBox="0 0 1031.28 1250.88">
    <g class="sketchLightest">
        <path d="M278.62,1141.69c-7.21-15.19-8.27-34.91-6-56.24,3.67-25.16,4.11-48.84,1-70.88-.35,22.66-3.17,45.06-12.57,66.79a214.92,214.92,0,0,1-14.71,46.94c-8.3,19.24-16.27,40.92-15.42,62.8,13.38,2.65,25.7,2.09,36.39-3.42C281.6,1177,286,1157.71,278.62,1141.69Z"/>
        <path d="M173.45,1203.28c2.22-19.24,5.58-39.24,5.71-61.66,1.3-27.61-5.92-45.83-6.21-61.26a99.21,99.21,0,0,1-24.82,6.58c-4.67,14.66-6.31,28.88-3.17,42.44,5.75,20.53,11.49,33.89,13.14,52.78-14,.85-22.81,7.83-25.87,19.47-1.21,11,4,20,20,20.51C153.87,1212.32,161.42,1206.2,173.45,1203.28Z"/>
        <path d="M416.47,891.59c-42.55,32.66-61,6.18-75.44-36.37-9.61,2.64-17.48,3.41-23.9,2.6-23.54,55.95-23.91,128.56-11.54,210.94,5.46,30,19.14,43.84,30.51,67.47-13.73,12.32-18.3,31.33-2.35,39.54,13.87,7.14,44,9.85,53.84-7.8,7.77-13.92,8.18-29.61,3-41.08-5.44-13.68-16.28-17.71-19.24-27.62s-.59-28.16-.59-28.16c26.67,14.32,52.24,16.81,76.27,2.93,1.35,19,3.23,37.5,5.86,55.15,1.73,25.41,2.61,50.49-1.17,67.29-26.64,7-30.36,27.91-21.6,42.49,2.83,4.72,13,7.55,18.49,7.55h34.78c4.7,0,13.13-2.34,15.64-6.31,6.63-10.49,8.68-27.59,2.64-37.25-6.32-11.84-5.12-15.73-3-26.25,16.54-57.32,26.34-118.23,29.92-182.45,3.5-34.34-2.84-66-16.1-95.76C489.7,906.53,453.74,907.63,416.47,891.59Z"/>
        <path d="M386.61,1169.57c-8.66,12.8-29,13.49-43.58,9.65a67,67,0,0,1,.05,11.07c-11.74,4.1-18.68,9.88-19,20.3-.77,10,1.95,17.67,8.71,18.35h46.63c6.66,0,11.87-6.57,12.69-12.51,1.32-12.12-.94-20.37-6.26-31.22A40.57,40.57,0,0,1,386.61,1169.57Z"/>
        <path d="M249.06,898.88c-5.65,4.83-14.91,7.1-28.66,6.19-15.14,17-30.29,33.6-45.48,45,14.49,2,24.38,2.75,24.89,1.5,25.89-17.52,47,11.55,27.09,26.69,3.18,28.68-31.47,40.23-46.2,9.56A692.76,692.76,0,0,0,50.35,959.17c-9.82,43.71-12.09,89.57-7.63,137.6.55,17.07,9.19,32.59,23.83,47,.34,4,.36,8.17-3.21,13.31-5.39,8.44-3.3,21.76,2.21,27,8.87,9.89,36.05,12.86,48.34,6,12.47-5.52,16.48-19.25,16.52-29.53.31-9.37-5.29-22.87-9.41-33.64-4.46-13.81-3.93-27.59.7-41.34,14.48,4.44,35.16,1.47,51.25-5.2.29,15.43,7.51,33.65,6.21,61.26-.13,22.42-3.49,42.42-5.71,61.66-17.63,4.28-25.65,15.42-19.62,35,5,14.34,52.64,16.48,68.37,0,8.93-11.74,9.93-25.32,8.71-46.94-.93-22,7.09-43.75,15.42-63.07A214.92,214.92,0,0,0,261,1081.36c9.95-23,12.53-46.76,12.61-70.77C271.22,963,263.11,925.57,249.06,898.88Z"/>
        <path d="M544,785.82c-10.58-6.89-16.55-20.37-21.3-36.2-3.18-21.29-22.3-40.21-44.58-58.66-4.07-36-13.46-56-25.81-66.88-23.68,9.67-40.44,33.52-54,63.95-17.84,2.87-33.57,10.35-47.52,21.7-26-13.26-50.65-19.65-72.15-10.56-8.95,20.37,4.54,41.25,20.53,62.19-11,56.76-16.57,109.94,41.89,93.86,14.46,42.55,32.89,69,75.44,36.37,37.27,16,73.24,14.94,95.95,6.91,24-8.48,53.77-25.42,57.75-69.09C571.71,812.49,559.88,796.24,544,785.82Zm-2.54,62.7A11.21,11.21,0,0,1,533.3,855a34.22,34.22,0,0,1-16.54-.85,5.86,5.86,0,0,1-3.67-7.89c4.58-10.76,12.76-17.14,25.32-18.21a5.76,5.76,0,0,1,6.23,5.76A36.4,36.4,0,0,1,541.41,848.52Z"/>
        <path d="M248.85,789c12.13-24.78,13.37-49.47,3.46-64.59-23.77,2-47.86,16.22-62.74,31.76-25.92-11.61-56.39-17-80.66-14.46-6.85-20.3-16.32-39.25-29.3-46.13C55,710.11,46.67,732.23,49.7,765.89c-16.3,21.34-28.64,41.8-5,54.21-17.08,21.28-22.95,40.28,1.92,53.06,1.93,33.58,5.83,65.26,27.29,80,18.74,8,39,11.85,60.75,11.92,28.73,2.5,57.24-27.94,85.73-60,37.12,2.46,41.58-18.21,30.37-50C283,843.81,266.06,816.43,248.85,789ZM124.51,925.9c-4.92,4.64-11.5,6.94-20,6.55-7.49-2.27-12.29-6.6-14.68-12.76a6.27,6.27,0,0,1,4.65-8.32A38.8,38.8,0,0,1,123.43,916,6.26,6.26,0,0,1,124.51,925.9Z"/>
    </g>
    <g class="sketchLighter">
        <path d="M512.42,898.5a82.49,82.49,0,0,1,13.44,16.12c6.44,10.75,12.73,14,21.76,12.68,9.89-2.44,15.75-7.69,15.62-18.06a51.2,51.2,0,0,0-14.82-31.74C537.54,888,524.27,894.31,512.42,898.5Z"/>
        <path d="M760.35,805.54q-4.11-54.72-6.8-108.76c33.57-.94,68.52-.51,102.65,1q-3.19,53.21-8.64,107.81Z"/>
        <path d="M860.48,588.08A655.75,655.75,0,0,0,750.1,586q-.69-56.61,1.22-112c35.31-3.93,73.34-2.34,108.52,4h0q1.59,54.4.63,110.1Z"/>
        <path d="M758.55,363.09q-5.29,54.65-7.23,110.91c-22.14,2.46-43.22,7.08-61.85,14.06,1.81-34.64,5-68.62,9.69-101.73,15.66-11.53,36.54-19.24,59.39-23.23Z"/>
        <path d="M750.1,586q.66,54.9,3.45,110.81c-20.18.57-40.91,1.7-59.67,3.33q-4.57-53.16-5.84-105.33C706.46,590.42,727.68,587.53,750.1,586Z"/>
        <path d="M769.21,910.39c-15.76-.36-31.29-1-46.46-2.1q-9.64-51.36-16.89-102.75h54.49q3.92,52,8.87,104.45Z"/>
        <path d="M871.19,908.22q8.73-51.71,15.87-102.68h-39.5Q842.43,857.1,835.29,910q18-.6,35.91-1.71Z"/>
        <path d="M860.47,588.11q-.93,54.12-4.27,109.62c14.66.63,29.16,1.44,43.34,2.43,3.42-35.54,5.91-70.65,7.27-105.21-14.27-2.85-29.93-5.16-46.33-6.87Z"/>
        <path d="M898.75,386.39c4.48,33.78,7.22,68.41,8.46,103.74A326,326,0,0,0,859.84,478h0q-1.65-56.11-6-111c16.77,4.43,32.17,10.89,44.84,19.35Z"/>
        <path d="M971.28,1069.11v0c-22.64-71.36-55.66-125.54-100.08-160.86l-24.39,133.71c57.62,29.52,99.4,79.38,127.67,146.58C963.29,1148.6,961.67,1108.17,971.28,1069.11Z"/>
        <path d="M752.62,909.88c-31.82,38.83-55.1,85.16-70.85,135.37,13.23,37.56,15.85,78.62,10.92,117.06,16.13-46.58,37.85-88.2,71.9-119.42C758.14,995.74,754.37,952.68,752.62,909.88Z"/>
    </g>
    <g class="sketchMiddle">
        <path d="M451.67,1196.48c3.78-16.8,2.9-41.88,1.17-67.29-2.63-17.65-4.51-36.12-5.86-55.15a67.65,67.65,0,0,1-22.54,8.28q.58,59.57,1,119.14,6.27.51,12.52,1A44.19,44.19,0,0,1,451.67,1196.48Z"/>
        <path d="M412.52,368.52q3.45,141.78,6,283.59c9.53-12.86,20.56-22.65,33.75-28C464.61,635,474,654.92,478.07,691c22.28,18.45,41.4,37.37,44.58,58.66,4.75,15.83,10.72,29.31,21.3,36.2,15.93,10.42,27.76,26.67,26.22,43.59-2,22.08-10.63,37.32-21.75,48.09a51.2,51.2,0,0,1,14.82,31.74c.13,10.37-5.73,15.62-15.62,18.06-9,1.29-15.32-1.93-21.76-12.68a82.49,82.49,0,0,0-13.44-16.12l-1.6.53,1.6-.53c13.26,29.77,19.6,61.42,16.1,95.76-3.58,64.22-13.38,125.13-29.92,182.45-2.1,10.52-3.3,14.41,3,26.25a20.52,20.52,0,0,1,1.42,2.81h0q37.19,1.1,74.46.34,1.13-421.95,4.48-843.88A1311.82,1311.82,0,0,0,412.52,368.52Z"/>
        <path d="M898.75,386.43c-13.21-99.64-41.55-192-91.2-274.13-6-17.75-8-67.11-10.57-112.24-1.84,44.91-2.93,94.73-9.06,111.73-46,79.84-74.41,173.17-88.76,274.55C747.73,350.58,846.56,351.53,898.75,386.43Z"/>
        <path d="M722.75,908.28q3.16,16.86,6.58,33.67a347.38,347.38,0,0,1,23.29-32.07c1.75,42.8,5.52,85.86,12,133a583.43,583.43,0,0,0,82.22-1c8.67-44.79,16.91-89.4,24.37-133.65C821,911.37,770.11,911.56,722.75,908.28Z"/>
        <path d="M791.62,1043.85c-9.07-.11-18.08-.41-27-1-4.68,4.29-9.13,8.8-13.37,13.47h0c-13.41,43-12.75,87.88-.34,132.14,2,7,7.52,12.46,14.75,13.31a83.46,83.46,0,0,0,21.51-.32,15.31,15.31,0,0,0,12.79-12.24c10.75-51,9.11-100.49-8.31-145.41Z"/>
        <path d="M1010.75,1201.5a83.53,83.53,0,0,1-21.52.32c-7.23-.85-12.78-6.29-14.75-13.31-17.22-61.43-11.81-124.1,22.42-181.11,33.87,53.91,40.39,116.6,26.64,181.86A15.34,15.34,0,0,1,1010.75,1201.5Z"/>
        <path d="M652.15,1201.5a82.07,82.07,0,0,0,21.33.32,17.13,17.13,0,0,0,14.63-13.31c13-58.34,9-126.79-24.23-181.11-33.59,53.91-39.32,122.77-24.42,181.86C641.06,1195.58,645.73,1200.61,652.15,1201.5Z"/>
    </g>
    <path class="sketchDarker" d="M639.46,1189.26c-13.26-52.59-10.16-112.91,14.36-163.56q3.31-308.12,10.34-616.18Q623.51,385.07,582,362.23q-3.48,421.93-4.48,843.88,37.31-1.56,74.49-4.64C645.66,1200.52,641.05,1195.53,639.46,1189.26Z"/>
    <g class="sketchDarkest">
        <path d="M544.64,833.82a36.4,36.4,0,0,1-3.23,14.7A11.21,11.21,0,0,1,533.3,855a34.22,34.22,0,0,1-16.54-.85,5.86,5.86,0,0,1-3.67-7.89c4.58-10.76,12.76-17.14,25.32-18.21A5.76,5.76,0,0,1,544.64,833.82Z"/>
        <path d="M123.43,916a38.8,38.8,0,0,0-28.94-4.61,6.27,6.27,0,0,0-4.65,8.32c2.39,6.16,7.19,10.49,14.68,12.76,8.49.39,15.07-1.91,20-6.55A6.26,6.26,0,0,0,123.43,916Z"/>
    </g>
    <g class="eyeBlob">
        <ellipse cx="446.4" cy="816.02" rx="16.08" ry="9.25" transform="translate(-324.05 294.9) rotate(-27.25)"/>
        <ellipse cx="164.85" cy="877.95" rx="9.25" ry="16.08" transform="translate(-726.52 936.41) rotate(-83.12)"/>
        <ellipse cx="84.33" cy="862.77" rx="9.25" ry="16.08" transform="matrix(0.15, -0.99, 0.99, 0.15, -781.45, 819.09)"/>
        <ellipse cx="508.12" cy="777.66" rx="16.08" ry="9.25" transform="translate(-299.65 318.91) rotate(-27.25)"/>
    </g>
    <g class="sketchLine">
        <path d="M256.13,1156.87a62.94,62.94,0,0,0-19.83-2"/>
        <path d="M343.08,1190.29c10.6-3.08,22.89-.66,29.16,4.21"/>
        <path d="M158.1,1182.16a23.69,23.69,0,0,1,12.28,1.94"/>
        <path d="M543.78,904.14a52.85,52.85,0,0,0-10.41-15.57"/>
        <path d="M226.9,978.28c-2.38-7.23-9-12.74-17.48-12"/>
        <path d="M12,925.89c4.62-2.86,10.22-3.19,16.71-1"/>
        <path d="M453.67,643.05c-7.75,17.16-10.88,36.85-7.4,55.06"/>
        <path d="M296.09,712.11c20.28,1.43,39,12,51.39,29.45"/>
        <path d="M77,708.63c7.44,10.56,9.86,22.4,13,35.67"/>
        <path d="M244.58,737.44c-14.76,5.68-26.7,13.77-34.3,25.61"/>
        <path d="M336.1,1136.23c5.22-2.16,12.82-2.16,18.66,0"/>
        <path d="M173.45,1203.28c9.57-1.57,21.54-.8,30.68,2.45"/>
        <path d="M66.55,1143.72c8.81,7,21.85,6.6,36.5,3.27"/>
        <line x1="121.7" y1="1085.56" x2="107.05" y2="1078.67"/>
        <path d="M447,1074a21.41,21.41,0,0,1,1.27-11"/>
        <path d="M370.71,1071.11c-5-3.58-8.65-9-11.56-15.61"/>
        <path d="M451.67,1196.48a47.82,47.82,0,0,1,14.16.65"/>
        <path d="M350.76,709.73A51.4,51.4,0,0,1,364,721.89"/>
        <path d="M887.06,805.54q7.38-53.22,12.48-105.38"/>
        <path d="M689.49,488.05c-1.83,35-2.27,70.6-1.43,106.73"/>
        <path d="M906.8,595c1.4-35.54,1.61-70.52.41-104.82"/>
        <path d="M693.89,700.11q4.5,52.39,12,105.43"/>
        <path d="M54.7,925.79c-3.84-1.38-6-2.56-6-3.46C36.12,903.41,11.17,912.1,12,925.89c-26.5,18.14-1,59.16,31.65,32.47l6.67.8"/>
    </g>
</svg>
