<svg viewBox="0 0 934.14 895.91">
    <path class="sky" d="M870.06,520.71c115.75,97.53-20.71,303-138,278-58.15,134.69-416.36,120.07-469,5-263,53.89-349.56-476.54-160-531-49.72-161.31,170.4-299.4,302-207,69-99.71,255.85-78.59,288,25C885.09,42.35,1017.49,415.18,870.06,520.71Z"/>
    <path class="foliageNearest" d="M39.17,657.22C81.66,754,158.39,825.16,263.06,803.71c52.64,115.07,410.85,129.69,469-5,84,17.92,177.76-82.31,181.8-176.5-9.31-5.88-22.37-5.85-35.19,3,5.1-49.92-47.61-71.74-79.9-38.15,1.39-33.26-39.91-40.65-52.54-13-20.61-49.52-79.37-44.82-93.58,0-19.7-44.82-90.89-30.72-92.85,11.51-23.56-17.38-50.76-2-46.07,30-32-19.16-87,8-79.17,52.79-24.91-8.49-45.73-.1-42.47,32.43-9.3-35.55-38.51-39.24-60.46-20.19-1.22-52.3-49.91-70.76-86.38-31.68-11.55-28.34-41.77-28.34-54.7-2.16-20.31-41-66.31-37.26-82.78,7.92C89.24,628.8,53.64,632.14,39.17,657.22Z"/>
    <path class="pole" d="M464.42,268.17c2.6,208.33,3.75,416.74-6.35,624.89,8.92.76,17.92,1.29,26.94,1.58,6.39-208.81,1.45-417.67-4.94-626.42C473.81,268.29,470.68,268.28,464.42,268.17Z"/>
    <path class="checkerWhite" d="M455.84,440.64c4.2,16.83,17.53,25.78,19.89,34.58,2.45,9.12,0,12.43-4,28.73,14.64-12.12,22.09-26.87,24-37.48s-1.54-43.52-5.62-70H455.84C451.52,412.56,450.88,427.47,455.84,440.64Z"/>
    <g class="checkerBlack">
        <path d="M474,396.52H455.84c-4.32,16-5.95,28.65-1,44.12,4.42,13.21,11.18,19.52,16.17,26.18a139.7,139.7,0,0,0,18.13-22.73c-1.58-2.9-3.3-5.77-5.17-8.54C473.64,420.23,472.7,406.48,474,396.52Z"/>
        <path d="M496.31,459.64a242.86,242.86,0,0,0-1.39-25.53c-1.75,3.38-3.7,6.73-5.78,10A134.83,134.83,0,0,1,496.31,459.64Z"/>
    </g>
    <path class="checkerWhite" d="M514.33,396.34c.58,8.12-13.08,16.24-40.4,20.67-18.09,4.06-19.57,13.19-18.09,23.63-13-8.46-.24-77.53,8.25-129.95C496.13,312.73,515.35,337,514.33,396.34Z"/>
    <g class="checkerBlack">
        <path d="M505.6,339.55c-8.49-18.89-22.81-27.67-41.51-28.86-.82,5-1.67,10.21-2.54,15.47q.66,11.59,1.6,22.77C474.79,343.62,490,341.14,505.6,339.55Z"/>
        <path d="M512.51,364.58a192.78,192.78,0,0,1,1.82,31.76c.58,8.12-13.08,16.24-40.4,20.67l-.92.21c-2.4-10.69-4.39-22-6.05-33.74l.08,0C481.8,378.74,501.9,375.68,512.51,364.58Z"/>
        <path d="M457.38,352c-2.2,14-4.19,27.87-5.5,40.33A41,41,0,0,1,467,383.48c-1.56-11.1-2.81-22.64-3.81-34.55A51.45,51.45,0,0,0,457.38,352Z"/>
    </g>
    <path class="checkerWhite" d="M465.77,124c-18.66,71.51-32.68,144.09-44.53,190.89,10.19-5.55,53.57,24.15,70.69,40.43,12.7,12.13,22.62,28.49,22.4,40.49C524.65,324.45,491.73,217.26,465.77,124Z"/>
    <g class="checkerBlack">
        <path d="M454.14,170.91c3.67-15.5,7.53-31.24,11.63-46.92,4.54,16.33,9.3,33.09,14,50-.87,3-1.78,6.11-2.69,9.2C469.21,177.62,461.44,173.21,454.14,170.91Z"/>
        <path d="M483.66,188.09c4.74,17.3,9.34,34.69,13.52,51.89a220.51,220.51,0,0,0-31.07-21.63c3.93-12,7.58-23.76,11-35.16C479.27,184.74,481.47,186.38,483.66,188.09Z"/>
        <path d="M445.35,209.05c-2.61,11.57-5.11,22.84-7.52,33.72a101.44,101.44,0,0,1,17.51,7c3.8-10.58,7.38-21.08,10.77-31.41A114.24,114.24,0,0,0,445.35,209.05Z"/>
        <path d="M429.4,315c4.93-11.13,9.61-22.39,14.07-33.68a87.15,87.15,0,0,0-13.24-4.42c-3.15,13.92-6.13,26.72-9,38,1.8-1,4.62-.86,8.16.08Z"/>
        <path d="M455.34,249.76c11.89,6,23.74,14.3,35.36,24-3.48,10.61-7,20.73-10.62,30.21-12-9.58-24.46-17.54-36.61-22.66C447.63,270.77,451.59,260.23,455.34,249.76Z"/>
        <path d="M507.88,289.09c-2.54-13.58-5.55-27.47-8.87-41.51-2.78,9-5.54,17.72-8.31,26.16C496.49,278.56,502.23,283.71,507.88,289.09Z"/>
        <path d="M466.37,335a232,232,0,0,1,25.56,20.28A95,95,0,0,1,502,366.64c2.71-4.36,6-16.42,9.89-32.95A299.64,299.64,0,0,0,480.08,304,295.45,295.45,0,0,1,466.37,335Z"/>
        <path d="M511.93,333.69q.84-3.58,1.73-7.43"/>
    </g>
</svg>
