<svg class="presence" xmlns="http://www.w3.org/2000/svg" viewBox="0 0 1492.16 1295.85">
  <path class="ground" d="M1385.66,954.2H90.63c104.9,165.49,429.78,237.82,734,217.51,118.59,74.73,262.56,119.7,373.23,123-67.1-37.63-138.11-91.94-191.32-147.08C1171.73,1114,1313.57,1049.53,1385.66,954.2Z"/>
  <path class="wall" d="M1491.16,596.4C1491.16,179.12,1170.92,1,746.08,1,343.67,1,1,199.26,1,596.4,1,756.22,33.46,868.49,90.63,954.2h1295C1451.52,868,1491.16,755.43,1491.16,596.4Z"/>
  <path class="cutout" d="M1462.54,695.37c-18.72-80.7-26-174.76-13.82-233.58,11.1.82,21.76,4.65,32.07,10.9-21.54-121.94-75.8-218.29-154.93-291.26-18,12.12-33.21,26.33-44.54,43.61,31.39-1.27,61.29,4.56,85.75,27.67-38.8,10.14-95.83,56.48-100.38,120.16,30.32-21.77,63.16-26.54,98.38-15.25-52,15.66-76,64.43-78.39,138.89,28.22-38.31,64-57.92,111-49.46-.66,79.13-6.4,154.34-19.56,223.85-133.38-41.75-258.42-96.08-374-165.45-25,19.4-62.75,19.4-88.39-.52-70.73,56.58-140.16,102.84-207.28,131-68.73-25.15-131.79-52.8-186.77-84-18.85,15.38-51.86,14.2-70.5,1.1a3071.9,3071.9,0,0,1-340.9,127.92C95.15,601.1,88.86,524.77,95.06,453.37c33-5.42,67.29,10.39,102.06,33.14-5.45-59.79-30.12-105-80-131,45.25,4.29,86.13,24.15,123.1,57.87-4.07-67.2-37-118.14-102.06-151,25.81-6.55,53.2-2.11,81.55,8.95C206,240.73,186,217.86,158.84,203.7,89,272.1,38.87,357.82,15.59,460.89a80.75,80.75,0,0,1,29-3.31c1.57,70.1-.14,157.09-13.17,246.44q-12.07,3.35-24.16,6.57C19.18,814,48.05,890.36,90.62,954.2h1295c50.47-66.09,85.53-145.57,99.16-253Q1473.65,698.34,1462.54,695.37Z"/>
  <g class="supportFront">
    <polygon points="1289.51 747.42 1334.1 973.6 1363.6 973.6 1315.95 747.42 1289.51 747.42"/>
    <polygon points="184.67 747.42 140.08 973.6 110.58 973.6 158.23 747.42 184.67 747.42"/>
  </g>
  <g class="supportSide">
    <polygon points="1289.51 747.42 1289.51 954.2 1334.1 973.6 1289.51 747.42"/>
    <polygon points="184.67 747.42 184.67 954.2 140.08 973.6 184.67 747.42"/>
  </g>
  <path class="mount" d="M299.8,101.54h913.48q-18.52-10.08-38.06-19.12H338.37Q318.66,91.48,299.8,101.54Z"/>
  <g class="shutter">
    <polygon points="966.15 172.93 988.83 203.04 958.73 193.56 971.64 221.71 901.11 211.51 914.69 188.54 887.93 194.67 857.83 148.41 890.16 147.85 879.01 133.35 918.59 142.83 966.15 172.93"/>
    <polygon points="493.26 140.6 525.59 132.24 515 186.31 486.57 182.97 492.7 209.73 419.12 223.1 423.02 196.9 401.28 206.94 419.67 161.78 467.62 129.45 501.62 123.32 493.26 140.6"/>
  </g>
  <g class="stageLightSide">
    <path d="M462.9,101.15c8.3,18.32,15.49,31.59,26,45,6.73,11.65-2.13,30.95-21,41.86s-38.68,10.31-45.41-1.35c-7.3-15.05-16.71-29.8-28-46Z"/>
    <path d="M900.17,136.85c-8.17,8.85-3.76,27,12.3,41.86s34.7,18.65,42.87,9.79C966.79,174,980.9,161,995.23,147.33L937.06,93.68C923.24,111.24,911,127.66,900.17,136.85Z"/>
  </g>
  <g class="stageLightTop">
    <ellipse cx="428.68" cy="120.91" rx="39.52" ry="24.38" transform="translate(-3.02 230.54) rotate(-30)"/>
    <ellipse cx="966.15" cy="120.5" rx="21.8" ry="39.57" transform="translate(222.54 749) rotate(-47.31)"/>
  </g>
  <path class="skinIndian" d="M868.25,614c4.17,4.64,8,24,9.09,30,13.62,14.38,27.19,26.77,36.58,31.31,12.13-7.88,22.1-19,33.08-19.17,15.36-.87,20.41,17-3.52,24.46,9,5,19.32,6.59,32.73,6.2,13.8-.71,17.2,8.57,11.68,22.87-4.73,13.48-12.58,20.41-26.28,22.85-16.15,1.73-35.47-4.07-47.54-15-8.78-7.9-6.58-8.42-17.19-15A229.42,229.42,0,0,1,862.28,676Z"/>
  <path class="lizJeans" d="M864.85,701.64c8.32,15.53,8.95,45.58,9.72,79.48.58,65.76-9.72,129.23-23.44,181.83L742.49,972.1c-4.94-26.47-9.32-71.31-8.13-101.18.62-15.56-3.11-23-4.67-37.35-7.47-52.9-10.65-74.75-.7-115.1Z"/>
  <path class="lizShoe" d="M852.78,956.11c16.4,6.26,29.52,13.87,38.84,25.45,7.37,9.15,2.46,23.56-8,27.8-11.17,4.24-37.38,4.24-49-.89-14.35,12.37-30.93,12.72-50.13,11.83-19-1.34-37.71-6.15-57.3-12.12l9.66-33.81c23.67-15.53,47.43-19.9,71.75-6.65C823.53,959.82,840.72,953.21,852.78,956.11Z"/>
  <path class="lizShirt" d="M831.22,519.31c21,6.47,32.53,20.73,34.77,42.59,22.55,22.62,23.19,43.91,7.6,65.12-7.79,10.34-7.07,17.35-5.28,31.68,2.69,16.58,6.68,30.67,6.28,44.35-9.56,20.21-93,28.26-145.6,15.42L725.2,535.38C737.76,497.89,777.21,500.06,831.22,519.31Z"/>
  <path class="hairBlackDark" d="M866,345.78c9.93,11.76,12.88,28.1,10.64,47.51a80.17,80.17,0,0,0,8.85,47c18.76,35.74-3.54,62.64-27.25,69.72-22.69,6.59-27.63,11.53-49.93,7.43C801.17,394.78,811.28,345.7,866,345.78Z"/>
  <g class="skinEastAsian">
    <path d="M740.82,643.13c-.53,11-1.07,21.28,1.58,33.48,2.3,10,7.88,17.26,15.21,25.52,12.08,13.68,21,28.06,17.51,45.51-2.75,10.11-8.58,17.68-17.09,22.08l-46.82-8.09L712,641.42C719.57,646.3,729.54,646.13,740.82,643.13Z"/>
    <path d="M268.39,298.94c-7.3,16.14-11.15,30.74-8.67,43a91.58,91.58,0,0,1,1.74,36c-5.37,23.65,1.55,50.16,12.77,66.17,10.68,17,28,16.65,51.41,10.12-.44,15.13-10.09,27.56-23.44,38-15,10.76-21.52,20.37-23.05,33-3.46,21.52-5.27,54.05-6.08,88.84-6.6,11.07-13.14,23.75-21.47,39.46-5.88,9.65-10.7,10.58-16.84,14.51-23.24,12.43-29,32.41-20.55,58.93,4.61,8.83,18.27,16.39,28,13.06,9.43-4.35,13.06-16.14,10.88-22.31a70.75,70.75,0,0,0,10.32-10.86l171.67,21.73c20.8-.47,30-10.82,32.05-27.17,1-13.34-.95-29.08-9-38.63-5.38-7.68-12.29-18.82-12.29-29.58.38-22.68-7.3-77.62-18.45-116-3.84-10-6-20.41-19.1-27.33-10.7-5.55-17.54-11.87-18.94-22.62-2.82-15.77-.21-30.51,2.78-47.2C383.55,314.4,341.45,280.06,268.39,298.94Z"/>
  </g>
  <g class="skinIndian">
    <path d="M848.36,349.08c8.88,16.53,10.39,33.91,9.93,44.55-1,23.93,16,16,19.42,31.5,3.59,16.25-14.79,12.71-14.74,25.68-.62,18.56-8,30.77-12.81,35.95-7.07,7.6-12.48,10-22.95,12-1,6.75.49,16,4,20.58a44.57,44.57,0,0,1-22.56,19.22c-11.37-3.74-23.5-11.15-35.94-20.06-32.53-18.71-81.41-82.6-47.5-97.88C805.88,384.23,753.38,287.3,848.36,349.08Z"/>
    <path d="M707.31,720.78a60.3,60.3,0,0,0,32.05-3.65c16.37-2.85,22.62,17.15,4.08,24.44-13.54,4.58-25.83-.83-36.88-7.5Z"/>
    <path d="M708.65,747.2c22,14.17,38.61,19.79,50.59,7.67,6.91,7.74,2.66,20.92-6.84,25.24-17.29,6.46-32.5-6.87-46-19.58Z"/>
  </g>
  <g class="stephanieShoe">
    <path d="M451.58,955c12.77,12.4,20,27.45,20.9,45.5.63,10-4.68,16.67-14.75,20.28-32.46,11.19-70,14.72-85.77,10.55-10.28-1.93-19.91-4.82-21.84-13.81-2.25-13.81,4.17-19,11.88-25,9.31-7.59,15.08-14.81,18.88-21.49Z"/>
    <path d="M283.73,962.35c9.54,12.57,13.4,25.92,9.23,44.88-3.21,8.66-7.07,10.26-16,12.29-32.83,7.6-64.48,7.08-93.45-5.53-9.06-4.85-12.41-10.89-12.3-16.6.67-13,8.7-22,20.58-24.86,15.73-3.85,30.51-7.71,42.75-17.56Z"/>
  </g>
  <g class="stephanieDress">
    <path d="M435.32,549.39c-2.34,2.72-6.78,4.6-12.6,5.93-25,5.74-57.12,8.65-93.15,10-16.48,1.91-36.79,3.06-59-1.54-5.72,7.58-5.32,12.93-9.05,22.61s-8.3,13.41-9,20.32c10.35,13.42,60.56,20.32,86.63,3.45,38.71,3.84,86.48,1.65,96.16-16.44,12-2.75,18.4-7.62,18.83-14.71-3.09-7.24-4.86-7-9.17-13.64S441.71,556.41,435.32,549.39Z"/>
    <path d="M413,642.14c-41.72,13.5-81.31,15.35-115.15,6.13-5.06,7.91-12.8,17.3-21.8,27.39-4.76,4.5-7.48,9.22-7.36,14.26-1.23,6.19-.85,11.18-5.24,17-3.12,34.1-6.24,81.43-14.69,116.76-12.19,43.77-29,81-50,111.21,8.71,17,44,34.49,70.37,33.11,22.14-1.12,49.72,1.07,73.58,5.52,38.41,5.83,73.82,7,97.69-9.77,17.71-12.91,30-25,44.4-32.83,9.38-4.69,16.27-11.56,18.87-19.49a267.58,267.58,0,0,0-23.24-31.78c-19.08-22.52-28.71-41.29-38.46-75.36-6.88-20-7.82-59.71-6.26-86.59C436.68,685.16,430.87,662.36,413,642.14Z"/>
  </g>
  <path class="bennettJeans" d="M712.92,703.72c-.69,50.13-.81,83.1-3.84,129.16-2.35,40.68-3.69,80.3-5.38,132.46l-60.85,20.17c-1,.34-79.75-6.72-79.75-6.72-4.23-79.42-3.66-168.38-7.65-182.89-6.06-20.17-8.07-35.3-7.4-54.46C559.11,671.1,636,688.26,712.92,703.72Z"/>
  <path class="bennettShoe" d="M666.39,1013.08c21.77,7.88,43,9.41,66.22,2.69,15.47-4,22.53-15.13,19.5-27.57-3.69-14.46-13.78-23.87-28.24-26.9q-35.32-6.88-65.22,9.75c-12.64-9.33-26.87-13.9-43.36-14.12-23.2.34-50.1,6.39-57.83,13.45-8.4,8.41-10.22,28.54-4.37,38.33,8.41,11.09,37.27,16.56,57.83,16.81C635.46,1025.52,653,1021.07,666.39,1013.08Z"/>
  <path class="bennettSleeves" d="M683.14,473.32c14.28,2.15,28.35,10.63,40.06,28,11.19,16.27,16,40.66,17.62,70.19,1,21.79,4.72,42.09,10.29,65.13-4.2,7.86-29.68,12.29-39.14,4.81l-139.24-7.7c-17.08,13.4-49,10.75-60.08-2.77,5.1-27.93,16.85-53.86,22.22-78.07,2.71-12,5.9-24,14.36-37.33,9.61-17.33,30.44-31.81,61.53-43.46C632.91,464.51,657,465.11,683.14,473.32Z"/>
  <path class="shirtWhite" d="M673,501.38c10.78,19.38,24.23,34.4,41.07,43.92,3.56,34.34,4.13,140.58.56,156.61-25.53,16.63-104.11,19.89-150.2,2.79-.69-22.17-2-43.75-4.11-64.58a27,27,0,0,0,6-2.44,364.77,364.77,0,0,1,13.59-85.87c24.16-7.56,40-25.56,48.83-49.74C642.12,506.61,659.4,505.51,673,501.38Z"/>
  <path class="skinBlack" d="M1034.74,661.86c-18.66,26.54-28.68,51.08-6.24,72.06Z"/>
  <path class="khariPants" d="M1204.59,748.84q4.83,114.39-18.66,232.86L1046.36,975c-13.11-75.32-19.12-120.18-22.41-201.15-2.73-46,6-115.43,16.44-157.85C1143.53,560.51,1195.49,610.52,1204.59,748.84Z"/>
  <path class="khariShoe" d="M1179.59,973c6.93,2.31,12.71,5.2,16.46,15.31,2,6.35,2,17.9-4.33,22.23-17.62,12.71-58.17,20.94-89.81,17.9-16.58-2.16-23.74-5.52-28.39-12.7-21,4.33-49.93,5.26-70.65-.29-9.53-3.18-14.15-6.93-13.28-14.73,4.44-25,19.92-36.09,46.2-39.27,32-4,44,4.2,67.65,12.21C1125.41,963.39,1160.24,967,1179.59,973Z"/>
  <g class="clothesOverlapLine">
    <path d="M1073.52,1015.75c-3.42-15.24,12.08-34.81,29.92-42.08-17.86-71.39-21-186.1-23.38-289.18"/>
    <path d="M824.39,753.14c-1.94,67.85-9.12,138.51-22.09,212.27"/>
    <path d="M644.48,781.55c1.55,44.16,2.36,116-.79,181.49"/>
    <path d="M329.57,565.32c3.32,5.36,3.79,12.36,4.91,21s4,12,4.68,23.85"/>
    <path d="M422.72,555.32c3.32,5.31,2,9,5.07,18.23s5.27,8.29,7.53,20.17"/>
    <line x1="579.93" y1="551.81" x2="583.1" y2="535.91"/>
    <line x1="714.11" y1="545.3" x2="713.47" y2="533.45"/>
    <path d="M658.65,971.05c9.45,10.42,16.68,33.67,7.74,42"/>
    <path d="M808.58,967.72c20.23,9.09,35.83,25.63,26,40.75"/>
  </g>
  <path class="skinBlack" d="M1198.18,301.56c1.1,20.24-3.83,34.95-20.43,39-6,8.33-8.66,22.66-10.62,38.3a167.85,167.85,0,0,0,3,44.22c27.18,9.39,45,26.52,51.09,53.38a281.32,281.32,0,0,1,14.49,76.25c1.85,20,1.06,38.9-3,56.43q-8.87,31-15.25,61c-1.87,10.38-1.64,18.7,3.57,24.41,10.3,10.16,11.18,26.79,8.1,42.93-3.76,8.4-14.85,14.15-20.86,20.16-7.22,8-12.92,7.16-23.6,5.53-7.26-1.82-12.89-5.53-15.25-12.2-4.58-18.9-3-38.55,3-58.71a222.1,222.1,0,0,0,8.39-29l-68.63-30.5c-16.53,3.5-34.23,2.07-52.62-2.29-23.63-76.06-9.95-188.1,25.92-207.33,7.92-5.34,10-8.62,10-14.87-18.34-1.61-30.16-7.24-42.91-18.79-13.49-13.09-23.14-32.26-22.5-52.58.63-15.56,2.9-26.55-.42-41-4.43-20.33-5.45-39.51-2.82-57.47C1102.18,188.42,1159.16,209.94,1198.18,301.56Z"/>
  <g class="khariVest">
    <path d="M1088.59,416.23C1069,425.85,1054.3,440,1047,461.14c-17.62,57.07-19.42,121.16-12.59,185.49,7.78,7.56,17.85,11,29.38,11.75-3.26-66.51-2.76-128.51,5.45-181.3C1072,457.39,1078.92,437,1088.59,416.23Z"/>
    <path d="M1170.42,417.49c-24.71,15.85-41.54,34.41-49.94,67.57-15.11,59.59-14.69,115.4-6.71,179.61a108.27,108.27,0,0,0,67.09-1.42c5.09-24.6,4.67-46.42,7.19-75-10.91-33.15-21.4-61.27-17.21-94.42,5-33.57,17.49-55.76,36.51-52.46C1198.54,431.76,1185.07,424.31,1170.42,417.49Z"/>
  </g>
  <g class="skinEastAsian">
    <path d="M683.14,473.51c.07,1.36.17,2.8.29,4.35,2.82,12.31-66.14,19.29-69.07-6,2.62-4.87,4.72-9.79,5.35-15.7a69.62,69.62,0,0,1-27.82-30.89c-6-13.56-6.71-29.55-4.17-44.77,2.7-14.32,1.65-26.61,1.7-41.77C634.29,183,830.72,364.44,736,411.29,736,411.29,702.12,459.16,683.14,473.51Z"/>
    <path d="M556.12,641.22c6.07,19.67,6.6,49.28,11.45,62.13,15.27,2.67,34.61,12.68,39.81,23.49,2.69,10-1.11,15.37-7.77,14.74-5.43-.74-10.22-3.54-15.05-5.39a101.93,101.93,0,0,0-27.51,35.22c-7.79-13.61-12-28.17-11.5-43.93-7.72-23.15-23.25-53.39-26.54-68.71a33.82,33.82,0,0,1,1.63-21.51C529.9,642.24,543.53,644,556.12,641.22Z"/>
  </g>
  <path class="mouthBlob" d="M851.24,456.46c-11.51,1-18.92-.28-35.94-2.57,5.91,7.3,14.19,14.44,20.08,14.93C844.83,469.6,840,457.65,851.24,456.46Z"/>
  <g class="eyeBlob">
    <ellipse cx="668.17" cy="367.91" rx="12.94" ry="6.47" transform="translate(213.4 980.28) rotate(-82.24)"/>
    <ellipse cx="618.16" cy="362.28" rx="12.94" ry="6.47" transform="translate(175.73 925.86) rotate(-82.24)"/>
    <path d="M1043.87,294.88a25,25,0,0,0,.21,3.81c.92,7.09,4.54,12.46,8.08,12s5.67-6.58,4.75-13.67a24.35,24.35,0,0,0-.69-3.44Z"/>
    <path d="M1087.75,293.75a26.53,26.53,0,0,0,.26,3.81c1,7.07,4.72,12.39,8.26,11.88s5.58-6.66,4.55-13.73a25.48,25.48,0,0,0-.74-3.44Z"/>
  </g>
  <g class="skinOverlapLine">
    <path d="M1177.75,340.53c-4.83.34-7.87-.33-9.56-2.36"/>
    <path d="M1095.53,408.26c19.28,1,44.32-14.52,56.44-36.63"/>
    <path d="M759.24,754.87a40.76,40.76,0,0,0,7.29-12.76"/>
    <path d="M683,458.06c-22.83,9.63-42.7,10.14-63.24-1.88"/>
    <path d="M419,532.25a66.24,66.24,0,0,1,1.82,22.83"/>
    <path d="M324.24,535c0,10-.92,21.92-3.66,30.75"/>
    <path d="M417.73,606.25c.38,11.87-.92,28-4.72,35.89"/>
    <path d="M297.86,648.27c8.87-10.79,15.39-20.87,18.16-29.84"/>
    <path d="M253.14,717.76a22.71,22.71,0,0,1-9.3,4.81"/>
    <path d="M753.14,453.5a14.79,14.79,0,0,0,9.53-.46"/>
    <path d="M327.69,395.16c-4.2,2.74-8.44,4.33-12.78,3.72"/>
    <path d="M827.21,498.73a49.09,49.09,0,0,1-22.23-2.6"/>
    <line x1="325.64" y1="454.18" x2="325.62" y2="440.38"/>
  </g>
  <g class="skinDisplayLine">
    <path d="M848.14,401.2a25.4,25.4,0,0,0-27.86,4.94"/>
    <path d="M1101.52,369.13a162,162,0,0,0-20.43.39"/>
    <line x1="1043.19" y1="295.18" x2="1069.2" y2="292.25"/>
    <line x1="1087" y1="293.18" x2="1116.5" y2="289.42"/>
    <path d="M1066.62,322.45c-16.22,6.95-5.1,25.72,9.73,19.23"/>
    <path d="M691.34,361.14c-6.58-5.54-17.6-8.34-28.26-7.41"/>
    <path d="M642.46,354c-7-4.89-17.14-6.26-28-5.79"/>
    <path d="M635.25,383c-16.55.45-19.68,21.25-.23,22.59"/>
    <path d="M657.84,431.76c-5.85-.41-11.46-.86-16.78-1.34"/>
  </g>
  <g class="hairBlack">
    <path d="M789.6,517.14c8.71-6.72,9-18.1-2.94-21.8-16.68-5-28.82-20-33.52-41.84-9.69-4.7-17.54-11-19.92-24.72-1.32-10.85,6.31-18,16.64-15.85,6.88,1.59,9.43,9.46,16.45,9.76-2.81-13.27-1.09-18.94,2.56-32.49,25.12-11.88,44.79-28.48,53.1-50.06,12.6,12.85,23.45,15.76,40.66,15,12.18-1.32,18.79-12.7,9.53-19.32-15.1-10.63-14.33-16.79-21.44-25.15-11.49-16.25-48.5-32.05-82.6-26.59-9-27.59-28.67-42.83-56.6-50.53,3.13-16.94,12.71-28.26,27.26-38.84C720.19,201.78,703,212.1,694,228.27c-8.08-14.84-15.94-24.83-29.21-28.89,8.85,7.35,13.69,16.58,13.21,28.3-26.65,1.9-52.42,7.68-73.1,23.1-34.19,24.34-43.13,62.56-29.87,94.93,28.35-12.33,44.38-25.28,55.79-53.33,14.22,30,44.75,46,82.1,56.32,4.72,5.39,6.44,13.06,7.27,21.41l10.5,3.23c10-12.49,24.12-7.36,22.65,7.79-1.71,10.5-6.25,22-14.9,28.58-5.13,4.39-9.64,6.21-14.78,3.37-10.06,20.73-23.21,35.88-40.66,45-.53,4.21-.11,10.28.44,15.44,25.73,6.07,43.31,23.14,50.88,53.71C754.12,530,772.48,526.3,789.6,517.14Z"/>
    <path d="M1120.19,234.85c-34.13,7.54-70.75,10.23-93.31,3.6.71-22.6,10.46-37.39,25.24-46,26.55-15.6,61.83-25.68,105.18-9.22,44.38,18.51,62.16,71.24,40.88,118.31-4.6-13.47-19.72-14.14-27.78-3.06l-10.09-2.35c2.86-10.47-3.69-21.5-15.33-29.3C1134.18,259.07,1126.18,248.1,1120.19,234.85Z"/>
    <path d="M280.63,302.6c-11.3,4.89-27.15,5.35-34.81-.86-7.25-6.41-4.58-19.41,4.52-24.28,9.27-4.78,13.93-9.68,20.71-17.21C288.31,241.71,304,236,346.78,231c50.81-6.22,99,19.88,105.15,76.47,2.68,21.8,7.27,40.53,19.74,49.29,23.09,15.72,5.5,37.89-10.16,41.21-6.9,27.66-42.84,37.22-80.18,35-24.61-2-39.52-14.24-53.64-37.83,13-9.29,17.56-28.79,9.6-39.52-8-10.12-20.34-9.92-25.69-1.51-2.68,6.5-5.3,7.51-8.75,10-1.86-10.29-6.8-17.84-13-24.28C279.61,327.89,278,316.51,280.63,302.6Z"/>
  </g>
  <g class="hairOverlapLine">
    <path d="M712.87,348.7c6.29,1.35,11.39,1.84,15.15,1.38"/>
    <path d="M768.87,390.2c-7,1.31-13.13,1.48-17.91-.3"/>
    <path d="M753.29,381.13c21-30.68,26.41-63,14.83-97.09"/>
  </g>
</svg>
