<svg viewBox="0 0 1402.48 1126.36">
  <path class="ground" d="M180.77,977.72C149.23,1030.23,90.86,1082.41,28.64,1115c109.5,1.51,185.88-14.12,264.12-68.93,121.05,57.61,265.8,79.29,427,79.29,261.08,0,477.19-90.44,592.16-256.94H81.18A439.16,439.16,0,0,0,180.77,977.72Z"/>
  <path class="stripePrimary" d="M719.72,1C298.11,1,1,150.36,1,564,1,688.86,30.05,789.14,81.18,868.42h1230.7c57.4-83.12,89.6-185.2,89.6-304.45C1401.48,243.11,1183,1,719.72,1Z"/>
  <g class="stripeSecondary">
    <path d="M201.24,128.1V868.42h200V38C325.29,58.49,258,88.11,201.24,128.1Z"/>
    <path d="M719.72,1Q658.66,1,601.24,5.29V868.42h200V3.64Q761.82,1,719.72,1Z"/>
    <path d="M1001.24,37.57V868.42h200V135C1146.24,93.58,1079.66,60.5,1001.24,37.57Z"/>
  </g>
  <g class="guitar">
    <path class="guitarDark" d="M111,700.52c-15.5,26.72-19.44,42.61-9.82,67.28,8.63,21,8.65,35.93,2.89,54.19-11.38,43.75,11.74,70.12,31.8,78.1,22.21,7.92,70.83,12,93.85-1.72,30.47-18.12,25.6-25.83,37.61-59.67Z"/>
    <path class="guitarNeck" d="M122,494.54l-1.7,12.7c8,14.15,11.55,27.07,15.6,42.7L147,686.24l8.23-6.1L140.84,546.41C140.16,526,134.3,509.22,122,494.54Z"/>
    <path class="guitarLight" d="M208.8,684.88c-29.58-8.08-56.57-7.77-81,2.73-22.07,9.23-27.2,29.06-17.57,53.72,8.62,21,8.53,37.93,2.77,56.19-10.76,34.26-.61,71.3,30.58,82,25.16,9,69.89,11,92.9-2.77,32.69-18.83,42.27-49,16.49-83.95-9.83-13.21-13-28.81-11.72-46C243.52,716.68,239.67,693.84,208.8,684.88Z"/>
    <polygon class="guitarFretboard" points="192.42 740.16 164.56 547.73 140.84 546.41 161.85 739.97 192.42 740.16"/>
    <path class="guitarHeadstock" d="M165.26,547.77,140,546.36c-2.43-16.18-9.47-33.62-18-51.82a57.32,57.32,0,0,1,39.26,2.18C160.91,514.85,161.24,532,165.26,547.77Z"/>
    <path class="soundHole" d="M151.08,755.15c-.75,13.41,12.3,25,27.79,25.9s27.58-9.37,28.32-22.78-12.29-25-27.79-25.9S151.82,741.74,151.08,755.15Z"/>
  </g>
  <g class="monitor">
    <path class="monitorDark" d="M1288.56,853.58c3.19,17-17.24,38.6-23.35,43.57-6.88,6.26-69.36,18.24-112.63,18.1-11.77-19.54,44.68-132.44,62.06-129.76C1248.63,801.52,1281.49,823.51,1288.56,853.58Z"/>
    <path class="monitorLight" d="M1214.64,785.49c-31.68-4.12-65.25-5.6-94.23-3.31-16.6-2.57-70.52,99.28-59.28,117.94,26.12,7.09,59,11.89,91.45,15.13Z"/>
    <path class="coneOuter" d="M1102.82,880.11c11.38.1,29.9-12.24,42.1-36.33,10.72-21.18,9.38-40.27-2.77-40.1-12.55.18-30,12.37-42.1,36.33C1089.35,861.2,1093.57,880,1102.82,880.11Z"/>
    <path class="coneInner" d="M1118.7,858.31c4.11,0,11.29-5.51,15.21-13.14s3.4-14.55-1-14.49-11.29,5.5-15.21,13.13S1115.35,858.28,1118.7,858.31Z"/>
  </g>
  <g class="mic">
    <path class="micBody" d="M1208.11,409.9l54.28-39.09c5.58-18.87.28-27.57-19.23-23l-47.45,45.38c-4.09,3.65-3.91,8.74-.19,13.68C1199,411.63,1203.68,412.73,1208.11,409.9Z"/>
    <path class="micHead" d="M1252.09,330.84c-11.28,11.44-15.18,22.79-7.5,33.34,7.91,10.86,22.66,9.61,35,.78,9.88-7.09,13.4-21.57,5.13-32.15S1260.58,322.23,1252.09,330.84Z"/>
    <path class="micStand" d="M1282.9,906.29c-12.18-4.16-27.07-6-42.72-6V384.62c-3.19-1.92-5.78-2.16-9.91,0V900.31c-41.3.05-72.63,10-72.63,41.33,6.95,6.62,46.06,9.12,83.41,8.48A505.7,505.7,0,0,0,1282.9,906.29Z"/>
  </g>
  <g class="amy">
    <g class="skinGallic">
      <path d="M1036.65,412.51l-34.83,35.25c10.85,8.26,24,18.15,33.58,29.3-12.69,12-30.76,41.24-49.27,63.21l18.24,60.31c15.5,4,33.84-3.16,37.77-15.61,8.17-23.94,4.27-38-13.75-45.86,15.76-9.84,32-32,46.9-47.18,7.47-8,6.82-14.71,3.4-23.79C1070.81,446.92,1056,428.72,1036.65,412.51Z"/>
      <path d="M1004.44,693.56c-.67,0-11.6,37.9-14.53,45.65a68,68,0,0,0-2.07,32.17c3.6,21.21,1.65,57.5-1,93.39l-74.36-1c-17.78-28.16-35.17-56.94-48.6-86.16-4.44-10.42-6.74-22.08-7.26-34.77.86-18.73,4.22-36,10.37-51.36C867,691.48,1006,693.53,1004.44,693.56Z"/>
    </g>
    <path class="amyBoot" d="M890.16,850.29c6.06-8.65,58.56-33.56,68.59-32.62,3.88,2.73,12,21,16.31,35,10.08-1,23.46.18,29.74,3.36,3,7.8,5.2,56.39,5.28,83.46.16,6.86-3,14.19-18.23,15.83a434.5,434.5,0,0,1-91.14,0c-9.37,4.95-18.89,8.61-22.54,3.36-11.37-18.32-19.84-33.92-3.92-54.56C882.5,894,893.67,886.85,906.48,880,900.62,873.38,890.61,854.82,890.16,850.29Z"/>
    <path class="amySkirt" d="M1001.24,557.13c13.93,17.15,19,53.25,18.43,89.15-.31,20.9,2.93,24.89,4.94,45.2-22.55,25.74-159,19.71-171.12,4-1.29-35.42,10.53-86.47,23.36-142Z"/>
    <path class="amyShirt" d="M981.78,374c28.17,5,45.12,22.23,59,35.79.88,7.77-20.21,27.09-35.94,37.94,4.13,32.59,7.91,86.35,4.75,105.84-15,13.69-84.09,18.95-111,4.83L875.57,449c-4.34-.27-6.64-2.14-8.2-5.26-.63-15,6-42.77,22.51-52.64,9.06-5.11,22.3-8.79,33.4-11.43Z"/>
    <g class="skinGallic">
      <path d="M981.78,338.25c-3.43,14.94-3.36,26.81,0,35.78q-26.06,8.36-58.5,5.61a37.28,37.28,0,0,0-.94-16.79c-11.06,3.51-25.47,4.74-31.79,3-13.82-3.52-20-31.62-21-48.07-1-5.11-2.72-6.88-7-8.39-16-5.07-14.59-21.32-.55-30.39,14.94-8.62-4.1-36.81,18.4-82.13C969.11,200,998,251.12,981.78,338.25Z"/>
      <path d="M912.15,452.7c-13.71-7.64-26.95-8.44-39.78-4.47-3.13,27.42-1.88,62.17-2.06,81.17-10.07,20.22-15.87,45.55-31.82,77.94-5.42,12.87-11.76,25.53-9.47,38,4.34,17.15,11.07,30.39,23.81,39,6.26,3.58,27-9.62,29.37-17.59,4.92-15.6,3.3-25.86-5.36-30.39,2-10-6.29-16.1-10.47-24.71,10.21-16.5,25.19-27.14,31-40.59a153.93,153.93,0,0,0,12.51-42C913.29,507.75,913.73,476.79,912.15,452.7Z"/>
    </g>
    <g class="hairDyedRed">
      <path d="M1026.22,164.8c37-22.82,73.44,40.77,31.63,65Z"/>
      <path d="M948.26,146.5c-15.7,2.66-25.81,6.12-38.58,6.65-22.62,1.6-39.1,23.38-35.58,45.71,3.11,17.89,13.76,30.66,27,34.85,15.74,15,23.46,35.19,18.79,62.25,10.63-6,16.37-18.55,22.49-30.79,3.73-8,14.11-12.5,22.93-9.14,21.24,8.88,7.94,45.33-11.22,53,4.79,14.11,15.17,23.95,27.67,29.18,30.75-10.68,55.08-30.24,70-64.56,14-40.24,4.52-82-25.54-108.89C1006.79,147,979.82,140.74,948.26,146.5Z"/>
      <path d="M975.66,171.78c52.69-30.87,85.68,42.3,47.63,65.72-18.89,11.17-38,2.66-50-16C963.42,205.57,958.1,183.22,975.66,171.78Z"/>
    </g>
  </g>
  <path class="lizShoe" d="M649.68,872.83c19.74,8.4,37.23,17.92,39.07,37.23.46,11.49-4.6,20.22-16.09,22.52-12.19,3.06-23.6,3.5-33.55-.92-12.87,15.17-62.06,16.55-76.3,0C497.34,858.33,563.1,859.94,649.68,872.83Z"/>
  <path class="skinIndian" d="M679.09,543.44c2.94,15,5.25,40,7.47,66.35.76,10.79,4.27,17.43,8.78,23.73,16.27,26.8-5.71,54.49-29.44,63.72C638.78,631.66,639.67,578.81,679.09,543.44Z"/>
  <path class="lizJeans" d="M674.1,634.36c4.47,70.81-6.11,152-24.42,238.47-17.48,6.06-35.17,9.93-54.24,0-22.94,12.81-44.17,14.62-62.7-1.08L529.63,642Z"/>
  <path class="bennettShoe" d="M532.74,871.75c30.64,8.3,43.31,26.65,39.72,57.91-1.33,7.24-5.72,12.71-16.09,14.71-26.66,3.84-50.28,2.89-67.11-4.89-19.76,11.49-69.4,14.24-90.59,1.35C368.41,838.73,426.71,830.06,532.74,871.75Z"/>
  <path class="bennettSleeves" d="M490.8,404c36,14.86,70.1,28,95.41,33,13.09,51.61-150.66,97.55-266.29,145-1.4-17.85.13-28.3,5-44.1,7.61-26.27,17.44-49.76,31.34-79C368.55,435,396,414.35,421.68,404Z"/>
  <path class="lizShirt" d="M635.17,450c12.49-.91,23.31,3.44,33.38,10.84l13.71,46.4c8.74,20.07,5.43,39-8.16,56.71-4.66,8.16-3.19,19-.54,28.32a183.08,183.08,0,0,1,6,36.22c-10.36,21.84-119,32.1-154.35,11.17l5.6-172.8c7.9-14.48,24.52-21.22,46.49-21.45Z"/>
  <path class="bennettJeans" d="M390.87,641c-3.57,75.08,2.22,157.9,3.43,239.11,19.42,9.31,55.08,6,74.74-6.48,13.7,10,32.1,9.87,53.51,3.22,13.39-2.71,15.55-12.16,12.89-24.49-2.75-26.64-4.26-52.27-2.91-79.3,2.16-37.31,0-86.65-3.42-139.19L383,637.7"/>
  <path class="shirtWhite" d="M492.58,425.74c11.57,16.44,24.18,30.43,38.18,41.14,3,.46,10.2,155.68,5.26,162.26-5.63,13.11-125.06,25.35-153,8.56l9.87-169.5c14.42-12.75,28.51-21.49,38.51-38.51C454.71,435.87,475.08,434.45,492.58,425.74Z"/>
  <g class="clothesOverlapLine">
    <path d="M919.87,431.83c-1,10.07-1.77,20.57-7.72,20.87"/>
    <path d="M975.06,852.69A418.25,418.25,0,0,1,989.55,898c1.05,7.19-3,13.34-9.33,17.62a754.62,754.62,0,0,1-79.51,39.74"/>
    <path d="M474.33,698.93C473,761.57,469.47,820.26,469,873.67"/>
    <path d="M616.84,681.88c-2.39,67.62-8.65,132-21.4,191"/>
    <path d="M457.69,879.6c24.36,7.71,40.19,40.19,31.57,59.88"/>
    <path d="M587.46,876.85c31.41,6.13,59.8,22,51.65,54.81"/>
    <line x1="1004.82" y1="447.76" x2="1003.25" y2="436.38"/>
  </g>
  <g class="banjo">
    <path class="banjoSide" d="M351,956.52,380.15,958c13.44,1.14,29.25-31.12,32.83-73.3s-6.41-75.3-19.86-76.44L364,803.78Z"/>
    <polygon class="banjoFretboard" points="374.91 814.14 393.11 598.68 381.21 598.68 357.15 806.62 374.91 814.14"/>
    <ellipse class="banjoHead" cx="357.53" cy="880.15" rx="76.64" ry="24.44" transform="translate(-549.72 1161.92) rotate(-85.15)"/>
    <polygon class="banjoNeck" points="403.98 558.98 410.84 561.68 398.99 602.41 382.71 814.72 374.91 814.14 393.11 598.68 403.98 558.98"/>
    <polygon class="banjoHeadstock" points="393.11 598.68 379.38 598.68 383.88 559.92 403.98 558.98 393.11 598.68"/>
  </g>
  <path class="hairBlackDark" d="M588.37,427.69c-14.68-.07-28.21,1.71-39.15,5.88-14.66-19.94-13.51-47.43-8.32-74.39C563.72,379.71,581.46,403.49,588.37,427.69Z"/>
  <path class="hairBlack" d="M544,367.79c3.6,22.41,9.78,40.69,20.86,53.31,8.76,9.79-1.55,26.79-18.55,17.52-20.6-10.56-34.25-22.93-46.36-46.11Z"/>
  <g class="skinIndian">
    <path d="M649.9,425.47a45.61,45.61,0,0,1-16.12,6.65c1.68,9.33,2.09,13.36,4.38,20.73C637,455.72,625.89,467.3,618,470.61c-16.9-5.44-39.48-16.39-41.25-22.69,3.54-4.62,4.24-17.62,5.63-26.69-13.53-11.48-20.32-20.14-24.42-37a52.32,52.32,0,0,1-27.87-13.12C565.16,115.48,794.59,315.47,649.9,425.47Z"/>
    <path d="M419.07,465.06C422.49,480.45,418,507,403,517.39l-18.81.68c-9.53-12.49-9.58-30.44,1.37-49.59C394.78,453.77,416.67,452.4,419.07,465.06Z"/>
  </g>
  <g class="skinEastAsian">
    <path d="M562.41,308.29c3.31,30.76-6.86,52.79-20,68.79-9.82,10.19-22.19,22.56-51.65,26.92-11.28,16.74-46.07,15.79-69.12,0,6.55-28.73-6.91-45.83-20.35-63.05C338.74,209.75,632.67,153.36,562.41,308.29Z"/>
    <path d="M352.68,549.8c-21.11,1.27-33.25,14.55-32.76,32.21.89,14.86,14,22,20.73,23.24,12.1,2.23,25-2,31.23-10.9,3.54-5.08,6.38-15.52,8.05-22.56,13.6,2.82,25.38.75,35.4-6.08,13.06-10.78,13.63-24.61,6.33-40.38-4.19-10.35-12.21-12.25-21.82-12C374.47,514.47,355,522.58,352.68,549.8Z"/>
    <path d="M696.9,465.94c-10-16.26-21.13-22.81-33.73-15.91-11.29,6.71-17.55,16.72-16.84,26.47,1,12.05,7.07,21.64,14.46,30.36,5.53,6.29,10.77,8.93,19.73,7.75,15.64-2.43,26.14-15.55,23.09-28.95C702.13,478,700.69,472,696.9,465.94Z"/>
  </g>
  <g class="skinOverlapLine">
    <path d="M876.84,636.39c-.7,7.07-.92,15.32-6.16,21.28"/>
    <path d="M945.22,709c-8.84,19-13.45,32.82-12.84,40.18,9.79,23.19,9.79,44.31,19.58,69.56"/>
    <path d="M490.8,404q-27.66.79-45.58-16.91"/>
    <path d="M406.61,329.42c3.37,6.43,9.91,9,16.81,7.88"/>
    <path d="M632.78,432.12c-18.94,4.2-35.66.39-51.38-10.89"/>
    <path d="M379.93,571.79c-9.93-1.56-13.92-4.1-16.1-11.37"/>
    <line x1="922.34" y1="362.85" x2="919.89" y2="352.54"/>
    <line x1="954.11" y1="309.07" x2="948.07" y2="310.87"/>
  </g>
  <g class="skinDisplayLine">
    <path d="M525.16,315.49c16.12,8.81,10,31.33-8.67,27.76"/>
    <path d="M510.45,283c-12.6-6.26-23.77-5.39-33.14,4.42"/>
    <path d="M553.27,290c-8.66-4.89-17.47-6.22-26.69,3.61"/>
    <path d="M671.83,339c-6.54-12.34-15.85-14.2-26.57-10.71"/>
    <path d="M626.92,330.9c-4.46-10.91-14.12-13.35-27.3-10"/>
    <path d="M639.52,359c21.28,5.82,13.65,28.51-6,25.7"/>
    <path d="M594.08,385.56c9.38,10.92,22.43,17.66,35.7,18"/>
    <path d="M899,265.8c-8.92-5.3-16.41-3.78-22.39,1.92"/>
  </g>
  <g class="eyeBlob">
    <ellipse cx="501.92" cy="296.87" rx="12.94" ry="6.47" transform="translate(51.14 666.81) rotate(-69.98)"/>
    <ellipse cx="543.28" cy="303.13" rx="12.94" ry="6.47" transform="translate(72.46 709.79) rotate(-69.98)"/>
    <ellipse cx="604.02" cy="333.19" rx="12.94" ry="6.47" transform="translate(168.23 867.93) rotate(-79.7)"/>
    <ellipse cx="651.98" cy="340.55" rx="12.94" ry="6.47" transform="translate(200.39 921.16) rotate(-79.7)"/>
  </g>
  <g class="mouthBlob">
    <path d="M903.57,317.16c-8.79,3-15.8,6.22-24.45,9,4.88.59,4,12.43,10.18,9.3C895.64,332.27,899.71,326.87,903.57,317.16Z"/>
    <path d="M483.58,354.14c10.52,5.61,28.89,9.85,41.07,7.94-17,.64-14,14.91-26.24,12.63C489.91,373.12,487.18,363.19,483.58,354.14Z"/>
  </g>
  <path class="hairBlack" d="M586.7,217.18c36.52-5.16,69,1.79,95.14,26,13.25,12.56,21.52,32.78,21.25,52.43,8,7.05,5.93,17.3-1.69,19.94,2,13.39,3.54,25.95,7.67,34.24,8.41,18.92,5.2,46.5-5.58,63.32-8.67,12.87-18.62,23.36-32.31,26-7.92,1.53-24.75-.61-28.29-9.87,28.92-13.51,40.29-46,38.19-71.31-2.1-15.5.48-26,3.79-41.87-27.16-4.63-51.26-19.76-66.32-44.22-9.37,22.88-31.43,34.61-56.14,36.43-1.31-8.14,1.64-17.82,4.73-26.53-21.28-7.62-48.28-23.93-63.93-52.78-11.07,25.86-26.71,46.47-53.83,50.94-4.84,5.19-8.35,10.58-9.61,16.34l-13-2.41c-6.33-8.71-13.16-10.75-20.67-3.84-10.28,9.61-8.38,23.35.48,39.41A48.89,48.89,0,0,1,401.33,341c-17.74-16.39-26.35-42.08-29.8-73.05-3-31,9.17-56.6,30.28-82.1-2.78-11-15.42-16.59-30.28-15.86,15.35-7,29.46-6.92,41.33,6.25-7.62-20.53-1.66-40.4,8.65-60.07-2,20.39-2.41,39.63,3.85,53.82,34.38-16.2,70.85-15.28,108.61-2.32C560.57,177.25,576,193.46,586.7,217.18Z"/>
  <g class="hairOverlapLine">
    <path d="M586.7,217.18c8.77,21.43,10,47-4.34,66.44a28.72,28.72,0,0,1-15.22-1.86"/>
    <path d="M703.09,295.62c-4.37-4.11-14-9.61-18.86-12.46"/>
    <path d="M701.4,315.56c-5.12.78-12.47,1.56-16.53.52"/>
    <path d="M449.38,279.92a57.73,57.73,0,0,1-21.17-1.58"/>
  </g>
</svg>
