<svg viewBox="0 0 346.16 312.93">
  <path class="ground" d="M323.58,214.28H20.26c21.55,35.13,74,60.44,124.73,63.9-8.06,12.69-22.58,25.74-38.66,34.07,29.29-2.17,61.68-15.65,84.91-35.07C256.33,271.57,299.29,249.45,323.58,214.28Z"/>
  <path class="stripePrimary" d="M177.63.5C73.72.5.5,37.31.5,139.25c0,30.78,7.16,55.49,19.76,75H323.58c14.14-20.48,22.08-45.64,22.08-75C345.66,60.17,291.8.5,177.63.5Z"/>
  <g class="stripeSecondary">
    <path d="M49.85,31.83V214.28H99.14V9.61C80.42,14.67,63.83,22,49.85,31.83Z"/>
    <path d="M177.63.5q-15,0-29.2,1.06V214.28h49.3V1.15Q188,.51,177.63.5Z"/>
    <path d="M247,9.51V214.28h49.29V33.53C282.75,23.32,266.34,15.16,247,9.51Z"/>
  </g>
  <g class="guitar">
    <path class="guitarDark" d="M27.62,172.9c-3.82,6.59-4.79,10.5-2.42,16.58,2.12,5.18,2.13,8.86.71,13.36-2.81,10.78,2.89,17.28,7.84,19.25,5.47,1.95,17.45,3,23.13-.43,7.51-4.46,6.31-6.36,9.27-14.7Z"/>
    <path class="guitarNeck" d="M30.32,122.14l-.42,3.13a40.49,40.49,0,0,1,3.85,10.52l2.74,33.59,2-1.5-3.56-33A20,20,0,0,0,30.32,122.14Z"/>
    <path class="guitarLight" d="M51.71,169.05c-7.29-2-13.94-1.92-20,.67C26.31,172,25,176.88,27.41,183a18.87,18.87,0,0,1,.69,13.85c-2.65,8.44-.15,17.57,7.53,20.22,6.21,2.21,17.23,2.7,22.9-.69,8.06-4.64,10.42-12.08,4.06-20.69a16.26,16.26,0,0,1-2.88-11.33C60.27,176.88,59.32,171.25,51.71,169.05Z"/>
    <polygon class="guitarFretboard" points="47.68 182.67 40.81 135.25 34.96 134.92 40.14 182.62 47.68 182.67"/>
    <path class="guitarHeadstock" d="M41,135.25l-6.23-.34c-.6-4-2.33-8.29-4.43-12.77a14.12,14.12,0,0,1,9.68.53A47.45,47.45,0,0,0,41,135.25Z"/>
    <path class="soundHole" d="M37.49,186.37c-.19,3.3,3,6.17,6.85,6.38s6.79-2.31,7-5.61-3-6.18-6.85-6.39S37.67,183.06,37.49,186.37Z"/>
  </g>
  <g class="monitor">
    <path class="monitorDark" d="M317.83,210.62c.78,4.2-4.25,9.52-5.76,10.74-1.69,1.54-17.09,4.5-27.75,4.46-2.91-4.81,11-32.64,15.29-32C308,197.79,316.09,203.21,317.83,210.62Z"/>
    <path class="monitorLight" d="M299.61,193.84a115.9,115.9,0,0,0-23.22-.81c-4.09-.64-17.38,24.47-14.61,29.07a145.74,145.74,0,0,0,22.54,3.72Z"/>
    <path class="coneOuter" d="M272.05,217.16c2.81,0,7.37-3,10.38-8.95,2.64-5.22,2.31-9.93-.69-9.88s-7.39,3-10.37,8.95C268.73,212.5,269.77,217.14,272.05,217.16Z"/>
    <path class="coneInner" d="M276,211.79c1,0,2.79-1.36,3.75-3.24s.84-3.59-.24-3.57-2.78,1.36-3.75,3.24S275.14,211.78,276,211.79Z"/>
  </g>
  <g class="mic">
    <path class="micBody" d="M298,101.28l13.38-9.64c1.37-4.65.07-6.79-4.74-5.66L295,97.16c-1,.9-1,2.16-.05,3.37A2.17,2.17,0,0,0,298,101.28Z"/>
    <path class="micHead" d="M308.84,81.79c-2.78,2.82-3.74,5.62-1.85,8.22s5.59,2.37,8.62.19a5.56,5.56,0,0,0,1.26-7.92A5.45,5.45,0,0,0,308.84,81.79Z"/>
    <path class="micStand" d="M316.43,223.61a33.77,33.77,0,0,0-10.52-1.47V95.05a2.14,2.14,0,0,0-2.45,0V222.14c-10.18,0-17.9,2.45-17.9,10.19,1.72,1.63,11.35,2.24,20.56,2.09A123.67,123.67,0,0,0,316.43,223.61Z"/>
  </g>
  <g class="amy">
    <g class="skinGallic">
      <path d="M255.74,101.92l-8.58,8.69a54,54,0,0,1,8.27,7.22c-3.12,3-7.58,10.16-12.14,15.58l4.5,14.86c3.82,1,8.34-.78,9.31-3.85,2-5.9,1-9.35-3.39-11.3,3.88-2.42,7.9-7.89,11.56-11.63,1.84-2,1.68-3.62.83-5.86C264.16,110.4,260.51,105.92,255.74,101.92Z"/>
      <path d="M247.81,171.19c-.17,0-2.86,9.34-3.58,11.25a16.68,16.68,0,0,0-.52,7.93c.89,5.22.41,14.17-.25,23l-18.33-.24a187.23,187.23,0,0,1-12-21.24,24.41,24.41,0,0,1-1.79-8.57,38.94,38.94,0,0,1,2.56-12.66S248.19,171.18,247.81,171.19Z"/>
    </g>
    <path class="amyBoot" d="M219.64,209.81c1.49-2.13,14.43-8.27,16.91-8,.95.68,2.94,5.18,4,8.64,2.49-.24,5.79,0,7.33.82.74,1.93,1.28,13.9,1.3,20.57,0,1.69-.74,3.5-4.49,3.9a106.72,106.72,0,0,1-22.46,0c-2.31,1.22-4.66,2.13-5.56.83-2.8-4.51-4.88-8.36-1-13.45a25.39,25.39,0,0,1,7.94-6C222.22,215.5,219.75,210.93,219.64,209.81Z"/>
    <path class="amySkirt" d="M247,137.56c3.43,4.23,4.67,13.13,4.54,22-.08,5.16.72,6.14,1.22,11.14-5.56,6.35-39.2,4.86-42.18,1-.31-8.73,2.6-21.31,5.76-35Z"/>
    <path class="amyShirt" d="M242.22,92.44c6.94,1.23,11.12,5.47,14.54,8.82.21,1.91-5,6.67-8.86,9.35,1,8,1.95,21.28,1.17,26.08-3.7,3.38-20.73,4.67-27.37,1.19l-5.66-27a2.19,2.19,0,0,1-2-1.3c-.15-3.7,1.48-10.54,5.55-13a34.68,34.68,0,0,1,8.23-2.81Z"/>
    <g class="skinGallic">
      <path d="M242.22,83.62c-.84,3.68-.83,6.6,0,8.82a36.67,36.67,0,0,1-14.42,1.38,9.26,9.26,0,0,0-.23-4.14c-2.73.87-6.28,1.17-7.83.73-3.41-.87-4.93-7.79-5.19-11.84a2.23,2.23,0,0,0-1.72-2.07c-3.94-1.25-3.6-5.26-.14-7.49,3.68-2.13-1-9.08,4.54-20.24C239.1,49.55,246.21,62.14,242.22,83.62Z"/>
      <path d="M225.06,111.82a12.05,12.05,0,0,0-9.8-1.1c-.78,6.76-.47,15.33-.51,20-2.48,5-3.91,11.23-7.85,19.21-1.33,3.17-2.89,6.29-2.33,9.36,1.07,4.23,2.73,7.49,5.87,9.62,1.54.88,6.67-2.37,7.24-4.33,1.21-3.85.81-6.38-1.32-7.49.49-2.48-1.55-4-2.58-6.09,2.51-4.07,6.21-6.69,7.64-10a37.73,37.73,0,0,0,3.09-10.35A95.62,95.62,0,0,0,225.06,111.82Z"/>
    </g>
    <g class="hairDyedRed">
      <path d="M253.17,40.87c9.12-5.63,18.1,10.05,7.8,16Z"/>
      <path d="M234,36.36c-3.87.66-6.36,1.51-9.51,1.64a9.8,9.8,0,0,0-8.77,11.26c.77,4.41,3.39,7.56,6.66,8.59,3.88,3.69,5.78,8.67,4.63,15.35,2.62-1.49,4-4.58,5.55-7.59a4.59,4.59,0,0,1,5.65-2.26c5.23,2.19,2,11.18-2.77,13.08a11.91,11.91,0,0,0,6.82,7.19,27.76,27.76,0,0,0,17.25-15.91c3.45-9.92,1.11-20.22-6.3-26.84C248.39,36.48,241.74,34.94,234,36.36Z"/>
      <path d="M240.71,42.59c13-7.61,21.12,10.43,11.74,16.2-4.65,2.75-9.38.65-12.33-3.94C237.7,50.92,236.38,45.41,240.71,42.59Z"/>
    </g>
  </g>
  <path class="lizShoe" d="M160.37,215.37c4.87,2.07,9.18,4.42,9.63,9.17.11,2.84-1.13,5-4,5.55-3,.76-5.82.87-8.27-.22-3.18,3.74-15.3,4.08-18.81,0C122.83,211.8,139,212.19,160.37,215.37Z"/>
  <path class="skinIndian" d="M167.62,134.19c.73,3.7,1.29,9.85,1.84,16.35a10.48,10.48,0,0,0,2.17,5.85c4,6.6-1.41,13.43-7.26,15.7C157.69,155.93,157.9,142.9,167.62,134.19Z"/>
  <path class="lizJeans" d="M166.39,156.6c1.1,17.45-1.51,37.45-6,58.77-4.31,1.49-8.67,2.45-13.37,0-5.65,3.16-10.88,3.6-15.45-.27l-.77-56.62Z"/>
  <path class="bennettShoe" d="M131.55,215.1c7.55,2.05,10.67,6.57,9.79,14.28-.33,1.78-1.41,3.13-4,3.62-6.58.95-12.4.71-16.54-1.21-4.87,2.84-17.11,3.52-22.33.34C91.05,207,105.42,204.83,131.55,215.1Z"/>
  <path class="bennettSleeves" d="M121.21,99.82c8.87,3.66,17.28,6.9,23.52,8.13,3.23,12.72-37.13,24-65.63,35.74a25.36,25.36,0,0,1,1.23-10.86,123.4,123.4,0,0,1,7.72-19.47c3-5.89,9.79-11,16.13-13.54Z"/>
  <path class="lizShirt" d="M156.79,111.16a12.1,12.1,0,0,1,8.23,2.68l3.38,11.43c2.16,5,1.34,9.62-2,14-1.15,2-.79,4.68-.13,7a45,45,0,0,1,1.46,8.92c-2.55,5.39-29.34,7.92-38,2.76l1.38-42.59c1.95-3.57,6.05-5.23,11.46-5.29Z"/>
  <path class="bennettJeans" d="M96.59,158.24c-.88,18.51.54,38.92.84,58.93,4.79,2.3,13.58,1.48,18.42-1.59,3.38,2.46,7.91,2.43,13.19.79,3.3-.67,3.83-3,3.18-6a126,126,0,0,1-.72-19.54c.53-9.2,0-21.36-.84-34.3l-36,.93"/>
  <path class="shirtWhite" d="M121.65,105.18a46,46,0,0,0,9.41,10.14c.75.11,2.52,38.37,1.3,40-1.39,3.23-30.82,6.25-37.72,2.11l2.44-41.78c3.55-3.14,7-5.29,9.49-9.49C112.32,107.68,117.34,107.33,121.65,105.18Z"/>
  <g class="clothesOverlapLine">
    <path d="M227,106.68c-.24,2.48-.44,5.07-1.9,5.14"/>
    <path d="M240.56,210.41a101.26,101.26,0,0,1,3.57,11.16,4.51,4.51,0,0,1-2.29,4.34,184.58,184.58,0,0,1-19.6,9.79"/>
    <path d="M117.16,172.51c-.33,15.44-1.2,29.9-1.31,43.07"/>
    <path d="M152.28,168.31c-.59,16.66-2.13,32.53-5.28,47.06"/>
    <path d="M113.05,217c6,1.9,9.91,9.9,7.79,14.75"/>
    <path d="M145,216.36c7.74,1.51,14.74,5.42,12.73,13.51"/>
    <line x1="247.9" y1="110.61" x2="247.51" y2="107.8"/>
  </g>
  <g class="banjo">
    <path class="banjoSide" d="M86.77,236l7.17.35c3.32.28,7.21-7.67,8.1-18.07s-1.59-18.55-4.9-18.83L90,198.35Z"/>
    <polygon class="banjoFretboard" points="92.65 200.91 97.14 147.8 94.21 147.8 88.28 199.05 92.65 200.91"/>
    <ellipse class="banjoHead" cx="88.37" cy="217.17" rx="18.89" ry="6.02" transform="translate(-135.5 286.85) rotate(-85.15)"/>
    <polygon class="banjoNeck" points="99.82 138.02 101.51 138.68 98.59 148.72 94.58 201.05 92.65 200.91 97.14 147.8 99.82 138.02"/>
    <polygon class="banjoHeadstock" points="97.14 147.8 93.75 147.8 94.86 138.25 99.82 138.02 97.14 147.8"/>
  </g>
  <path class="hairBlackDark" d="M145.26,105.66a27.14,27.14,0,0,0-9.65,1.45c-3.61-4.92-3.33-11.69-2.05-18.33C139.19,93.84,143.56,99.7,145.26,105.66Z"/>
  <path class="hairBlack" d="M134.32,90.9c.89,5.52,2.41,10,5.14,13.14,2.16,2.41-.38,6.6-4.57,4.31A24.19,24.19,0,0,1,123.46,97Z"/>
  <g class="skinIndian">
    <path d="M160.43,105.11a11.26,11.26,0,0,1-4,1.64,38.38,38.38,0,0,0,1.08,5.11,14.24,14.24,0,0,1-5,4.38c-4.17-1.34-9.73-4-10.17-5.59.88-1.14,1-4.34,1.39-6.58-3.33-2.83-5-5-6-9.11a12.86,12.86,0,0,1-6.87-3.23C139.54,28.71,196.09,78,160.43,105.11Z"/>
    <path d="M103.54,114.87c.84,3.79-.27,10.33-4,12.9l-4.63.17c-2.35-3.08-2.36-7.51.33-12.23C97.55,112.09,103,111.75,103.54,114.87Z"/>
  </g>
  <g class="skinEastAsian">
    <path d="M138.86,76.23a21.93,21.93,0,0,1-4.92,17c-2.42,2.51-5.46,5.56-12.73,6.63-2.78,4.13-11.35,3.89-17,0,1.61-7.08-1.7-11.29-5-15.54C83.74,52,156.18,38.05,138.86,76.23Z"/>
    <path d="M87.17,135.76c-5.2.31-8.19,3.58-8.07,7.93a6.43,6.43,0,0,0,5.11,5.73c3,.55,6.17-.48,7.7-2.68a19.69,19.69,0,0,0,2-5.57,10.9,10.9,0,0,0,8.72-1.49c3.22-2.66,3.36-6.07,1.57-10-1-2.56-3-3-5.38-2.95C92.54,127.05,87.75,129.05,87.17,135.76Z"/>
    <path d="M172,115.09c-2.47-4-5.21-5.62-8.31-3.92-2.79,1.65-4.33,4.12-4.15,6.52a13.19,13.19,0,0,0,3.56,7.48,4.87,4.87,0,0,0,4.86,1.91c3.86-.6,6.44-3.83,5.69-7.13A13.25,13.25,0,0,0,172,115.09Z"/>
  </g>
  <g class="skinOverlapLine">
    <path d="M216.36,157.1c-.17,1.74-.23,3.77-1.52,5.24"/>
    <path d="M233.21,175c-2.18,4.68-3.32,8.09-3.16,9.9,2.41,5.72,2.41,10.92,4.82,17.15"/>
    <path d="M121.21,99.82A14.68,14.68,0,0,1,110,95.65"/>
    <path d="M100.47,81.44a3.78,3.78,0,0,0,4.14,1.94"/>
    <path d="M156.21,106.75a15.06,15.06,0,0,1-12.67-2.68"/>
    <path d="M93.89,141.17c-2.45-.38-3.43-1-4-2.8"/>
    <line x1="227.57" y1="89.68" x2="226.97" y2="87.14"/>
    <line x1="235.4" y1="76.43" x2="233.91" y2="76.87"/>
  </g>
  <g class="skinDisplayLine">
    <path d="M129.68,78c4,2.17,2.47,7.72-2.13,6.84"/>
    <path d="M126.06,70c-3.11-1.54-5.86-1.33-8.17,1.09"/>
    <path d="M136.61,71.73c-2.13-1.21-4.3-1.53-6.58.89"/>
    <path d="M165.83,83.81c-1.61-3-3.91-3.5-6.55-2.64"/>
    <path d="M154.76,81.81c-1.1-2.69-3.48-3.3-6.73-2.48"/>
    <path d="M157.87,88.74c5.24,1.44,3.36,7-1.49,6.34"/>
    <path d="M146.67,95.28a12.27,12.27,0,0,0,8.8,4.44"/>
    <path d="M221.81,65.76a4.21,4.21,0,0,0-5.52.48"/>
  </g>
  <g class="eyeBlob">
    <ellipse cx="123.95" cy="73.42" rx="3.19" ry="1.59" transform="translate(12.53 164.74) rotate(-69.98)"/>
    <ellipse cx="134.15" cy="74.96" rx="3.19" ry="1.59" transform="translate(17.79 175.34) rotate(-69.98)"/>
    <ellipse cx="149.12" cy="82.37" rx="3.19" ry="1.59" transform="translate(41.42 214.37) rotate(-79.7)"/>
    <ellipse cx="160.94" cy="84.18" rx="3.19" ry="1.59" transform="translate(49.35 227.48) rotate(-79.7)"/>
  </g>
  <g class="mouthBlob">
    <path d="M223,78.42c-2.17.75-3.9,1.53-6,2.21,1.2.14,1,3.06,2.51,2.29S222,80.81,223,78.42Z"/>
    <path d="M119.43,87.53a19,19,0,0,0,10.13,2c-4.2.16-3.46,3.67-6.47,3.11C121,92.21,120.32,89.76,119.43,87.53Z"/>
  </g>
  <path class="hairBlack" d="M144.85,53.78c9-1.27,17,.44,23.45,6.41a18,18,0,0,1,5.23,12.92c2,1.74,1.47,4.26-.41,4.92.48,3.29.87,6.39,1.89,8.43,2.07,4.67,1.28,11.47-1.38,15.61-2.13,3.17-4.58,5.76-8,6.41-1.95.38-6.1-.15-7-2.43,7.13-3.33,9.93-11.34,9.41-17.58-.52-3.82.12-6.42.93-10.32A23.57,23.57,0,0,1,152.7,67.26c-2.31,5.63-7.75,8.53-13.84,9-.32-2,.41-4.39,1.17-6.54-5.25-1.87-11.9-5.89-15.76-13-2.72,6.37-6.58,11.45-13.26,12.55a8.83,8.83,0,0,0-2.37,4l-3.2-.59c-1.56-2.15-3.24-2.66-5.09-1-2.54,2.37-2.07,5.75.12,9.71a11.92,11.92,0,0,1-1.31,2.84c-4.37-4-6.49-10.37-7.34-18s2.26-14,7.46-20.23c-.68-2.72-3.8-4.09-7.46-3.91,3.78-1.74,7.26-1.71,10.19,1.54-1.88-5.06-.41-10,2.13-14.81-.49,5-.6,9.77,1,13.27,8.47-4,17.46-3.77,26.76-.58C138.41,43.94,142.21,47.93,144.85,53.78Z"/>
  <g class="hairOverlapLine">
    <path d="M144.85,53.78c2.16,5.28,2.46,11.58-1.07,16.37a6.93,6.93,0,0,1-3.75-.46"/>
    <path d="M173.53,73.11A31.3,31.3,0,0,0,168.89,70"/>
    <path d="M173.12,78a12.61,12.61,0,0,1-4.08.12"/>
    <path d="M111,69.24a14.08,14.08,0,0,1-5.22-.39"/>
  </g>
</svg>
