<svg viewBox="0 0 1418.39 1129.94">
    <path class="path" d="M61.67,884.77c32.43,37.51,76.5,60.32,128.9,53.87,18.42,144.73,267.1,223.68,371.05,109.21C630,1161,843.2,1155.74,903.73,1032.06c136.12,127.45,395.58-5.77,395.35-146.86Q680.53,867,61.67,884.77Z"/>
    <path class="sky" d="M1331.36,520.21c140.79-156.57-36.84-422.36-218.42-371.05C1036.62-12.68,753.73-53.47,620.83,84.69,540.57-16.63,332.67,29.42,302.41,154.42,118.2,101.79-56.8,411,84,557.06-27.4,610.41-18.26,792.29,61.67,884.77q618.57-17.81,1237.41.43a112.39,112.39,0,0,0-3.25-26.83C1432.67,832.06,1466.89,574.16,1331.36,520.21Z"/>
    <path class="foliageNear" d="M1416.75,654.09c-49.57-16.47-109,9.85-121,64.37-22-21.89-62.57-19.63-79,8.23-34.31-35.76-96.38-30.12-120.19,13.18-46.15-32-112.73-11.7-128.43,46.1-36.21-23.33-80.22-3.64-93.86,28-19.09-42.91-99.21-58.71-141.6-13.17-53.16-18.47-118.18,20.85-125.12,75.29Q953.3,875,1299.07,885.2a112.37,112.37,0,0,0-3.24-26.83C1378.21,842.53,1423.4,742.76,1416.75,654.09Z"/>
    <path class="cloud" d="M536.81,437.32c67-47.19,35.4-155-50.24-148.68,8.59-22.54-4.51-53.35-25-59.22,75.24-41.13,65.95-162.85-20.4-194.35C376.06,49.9,317.41,92.46,302.41,154.42,118.2,101.79-56.8,411,84,557.06-27.4,610.41-18.25,792.29,61.68,884.77q192.16-5.53,384.39-7.58L548.32,511.08C582.21,498.75,577.59,437.12,536.81,437.32Z"/>
    <g class="reatta">
        <path class="windshield" d="M102.82,762.56c3.66-22,10.57-38.22,23.17-59.35,43.5-7.32,135-6.1,163.42,0-9.35,19.92-14.64,39-16.26,57.31Z"/>
        <path class="hairBlonde" d="M168.68,739c-15.13-12.94-21-30.5-11.39-48.78,5.76-10.65,15.52-17.75,32.35-15.57,25.14,4,39.59,4.16,53.43-5.16-2.58,7.3-7.26,13.77-13.83,19.51,13.06,3.07,27.71-1.48,39.44-11.79-5.13,16.53-17.87,31.69-36.87,35.25,2.17,5.94,7.7,9.2,13.69,9.47-6.57,8.94-16.07,12.7-25.18,13.5Z"/>
        <g class="cushion">
            <path d="M226.67,752.09c2.16-11.28-1.75-23.92-13.79-25.49-11.53-1.31-28.81-1.57-39.55,1-12,3.41-14.73,13.69-15.44,25.76Z"/>
            <path d="M334.33,752.09c2.16-11.28-1.75-23.92-13.79-25.49-11.53-1.31-28.81-1.57-39.55,1-12,3.41-14.73,13.69-15.44,25.76Z"/>
        </g>
        <g class="tireLight">
            <path d="M194.9,880.81c8.7-.21,13.82-17.88,10.43-39.38s-13-38.55-21.71-38.47l-27.23,1,12.27,77.85Z"/>
            <path d="M124,883.1c8.51-.2,13.52-17.48,10.2-38.5S121.48,806.91,113,807l-26.63,1,12,76.12Z"/>
            <path d="M352.61,877.88c8.62-.2,13.69-17.71,10.33-39s-12.88-38.18-21.5-38.1l-27,1,12.16,77.11Z"/>
            <path d="M283.38,879.15c8.43-.2,13.39-17.32,10.1-38.14s-12.59-37.33-21-37.26l-26.38,1L258,880.12Z"/>
        </g>
        <path class="body" d="M180,860c9.93-.57,18-2,21.65-5.2,4.82-3.65,7.53-9.51,8.82-16.84,4.28-24.26-.41-57.75-9.79-69.49-7.76-12.08-28.39-17.86-40.71-19.2,57.6-3.43,126.51-3.36,186.65,0,12.32,1.34,22.94,6.12,30.71,18.2,9.38,11.74,14.07,45.23,9.79,69.49-1.29,7.33-4,13.19-8.82,16.84-3.63,3.16-11.72,4.63-21.65,5.2C296.82,861.89,239.17,862.7,180,860Z"/>
        <path class="trimEdge" d="M367.14,840.9q-78.66,2.24-157.27,0c-.4,1.32-.59,2-1,3.31q79.14,2.24,158.25,0Z"/>
        <path class="brakeLight" d="M208.22,785.86q76.17-1.08,152.31,0v19.19q-74.53-1-149.07,0A134.27,134.27,0,0,0,208.22,785.86Z"/>
        <path class="bodyDark" d="M54.64,795.13c-5.64,10.73-4.17,26,0,36.57,2,4.53,12.5,16.48,22.5,20.06,11.86,4.24,23.75,7.14,32.42,7.77A612.72,612.72,0,0,0,180,860c9.93-.57,18-2,21.65-5.2,4.82-3.65,7.53-9.51,8.82-16.84,4.28-24.26-.41-57.75-9.79-69.49-7.76-12.08-18.39-16.86-30.71-18.2-20.8-2.45-37.7.12-53.71,6.23C93.33,764.34,61.38,782.39,54.64,795.13Z"/>
        <path class="trimSide" d="M61.67,840.94q74.11,2.05,148.2,0l-1,3.37q-71.87,2-143.7.11Z"/>
        <path class="turnLight" d="M211.46,805.08H192.68a58.19,58.19,0,0,1-4.16-19.2h19.7A122,122,0,0,1,211.46,805.08Z"/>
        <g class="tire">
            <path d="M309.82,860.83c4.71,11,11.15,18.18,16.8,18s9.81-7.75,11-19Q323.67,860.42,309.82,860.83Z"/>
            <path d="M241.17,861.6c4.64,11.2,11.12,18.66,16.8,18.52,5.53-.14,9.57-7.56,10.76-18.53Q254.95,861.71,241.17,861.6Z"/>
            <path d="M146,843.34c3.39,21.5,14,38.68,22.71,38.47s13.82-17.88,10.43-39.38-14-38.55-22.7-38.47C147.3,804,142.56,821.84,146,843.34Z"/>
            <path d="M76.14,846.46c3.32,21,13.66,37.82,22.2,37.62s13.52-17.49,10.2-38.51S94.85,807.89,86.34,808C77.45,808,72.83,825.44,76.14,846.46Z"/>
        </g>
        <g class="hubcap">
            <path d="M156.1,843.06c1.31,8.33,5.41,15,8.8,14.91s5.36-6.93,4-15.27-5.43-14.94-8.81-14.91S154.78,834.72,156.1,843.06Z"/>
            <path d="M86.06,846.19c1.29,8.15,5.3,14.66,8.61,14.58s5.24-6.78,4-14.93-5.3-14.61-8.6-14.58C86.57,831.29,84.78,838,86.06,846.19Z"/>
        </g>
    </g>
    <path class="exhaust" d="M721.5,876c77.81,0,77.81-56.67,43.73-79,24.43-5.95,28-47.06,6.55-54.21,47.66-34,31.58-107.24-33.95-109.62,57.54-91.75-50.35-186.71-141-126.09-44.75-55.41-152.51-9.78-137.87,61.75-55.4-11.92-101.87,44.09-74.47,97.11-92.34,0-109.61,148.94-23.83,165.62-13.95,12.15-16.33,32.72-4.71,46.76Q538.75,875.61,721.5,876Z"/>
    <g class="bennettShoe">
        <path d="M813.19,879.86c30.54-14.51,58.29-16.61,76.79,10.58,4,5.54,5.49,15.39-2,22.33C872.91,927.93,799.16,963.65,784.1,965c-9.11.75-14.88-1.48-19.71-7.13a74.22,74.22,0,0,1-13.56-50.39Z"/>
        <path d="M480.68,846.05c-19.3,10.06-35.47,22-46.4,37.05-4.74,6.74-4.74,11.21.37,18.34,15.75,22.66,41.32,51.7,59,60.89,18.12,9.93,41.71,11.67,58.06,4.78,5.24-2.55,7.23-6.52,8.07-13.21,3.73-33.84-15.83-41.65-36.31-48.42a64.66,64.66,0,0,1-1.1-16.88Z"/>
    </g>
    <path class="bennettJeans" d="M695.23,667.08c23.66,31.58,53.63,78.69,72,115.58,16.06,32.4,38.89,73.25,50.19,90.62,1.74,9.38-59.17,40-71.09,33.19-16.08-34.76-36.63-74.61-55.85-99.2-11.57-14.29-34-32.84-51.56-41-5.66,18.48-12.41,34.64-25,52-12.67,16.27-50.55,49.32-71.48,79.68-18,4-62.09-29.29-61.82-57.5,32.51-27.67,61.74-58.77,75.1-69.83-5.4-32-8.25-63.21-6.64-93,1-15.14,5.75-29.17,12.5-42.57Z"/>
    <path class="shirtWhite" d="M722.93,546c-4.21,24-8.84,46.15-14.31,64.69-5,18.66-8.17,36-9,54.74-21.77,10.88-130.94.62-145.55-32,12.13-30.16,22.08-58.78,32.34-92.68,10.89-38.56,29.21-68.22,56.36-97.35C695.26,437.78,722.74,470.82,722.93,546Z"/>
    <g class="skinEastAsian">
        <path d="M843.58,348a88,88,0,0,1-13.23,21.33c-3.17,3.89-1.53,12.14,1.8,16.2,14.53,19.2-2.84,37.9-17.47,30.8-12.79,20.92-29.76,35.8-51.58,37.82-13.54,1-24-.66-35.66-8.65-6.77,7.46-12.29,17-17,27.82l-63.47-30c18.45-23.19,30.27-45.63,22.68-65.88C708.87,276.26,828.19,253.17,843.58,348Z"/>
        <path d="M793.85,546.52c13.59,9.38,26.87,19.74,37.38,24.43C846.87,562.74,862,555.42,868,563c3.48,5,.52,10-4.82,14.73q8.44,4,17,7.46c9.85-5.2,17,.5,17,6.33,14.35,3.8,14.53,9,13,17.47-1.29,5.92-3.85,8.6-6.75,12.45,12.63-1.89,21.06,2.59,20.69,17.2-.76,18.6-13.28,35.06-27.07,35.06-22.45-.38-48.55-18.15-58.82-32.5C833,633.48,827.05,625,820,620.66A423,423,0,0,1,767.28,583Z"/>
    </g>
    <g class="bennettSleeves">
        <path d="M640.67,445.7,650.6,435C663,431,700,443.7,717.46,459.55c18.37,18.9,31,40.57,47.38,58.06,11.85,13,26.15,24.27,40.51,34.54,0,9-24.3,41.07-35.83,38.43-19.91-13.62-48.77-35.65-71.15-56.35-11.86,5.45-24.16,3.74-33-10.9-12.73-21.59-14.61-50.52-9.75-74.78C650.12,445,645.36,445.58,640.67,445.7Z"/>
    </g>
    <g class="lizShoe">
        <path d="M1053.69,917.77c9,6.75,9.33,25.79.84,44.07-3.77,7.17-10.29,8.85-17.19,8.64-32-.72-64.94-11.75-97.9-28.68-7.82-3.9-10.27-9.55-7.17-17.78,11-25.31,38.6-25.95,67.11-25.19Z"/>
        <path d="M1187.63,880.94c20.27,6.88,29.89,21.06,32.65,39.95,1.11,7.93-.22,12.53-5.67,16.6-37.2,26.5-76.92,34.41-106.89,30.36-7.48-.85-9.24-6.25-8.9-13,1.32-17.7,16.72-32.71,34.28-47.3C1147.42,890.77,1165.83,882.35,1187.63,880.94Z"/>
    </g>
    <path class="lizPants" d="M1182.06,662c7,34.15,2,69.11-17.91,105.07-6.37,10.93-11.84,21-16.32,33.44,17.53,21.51,30.11,49.16,39.8,80.4a306.71,306.71,0,0,0-54.53,26.66c-17.56-22.27-33.44-43.57-44.57-62.09a602.61,602.61,0,0,1-34.84,72.26c-16.55,4.3-45.84-7.19-54.31-18.94,12-77.45,27.4-157.45,49.34-236Z"/>
    <path class="lizShirt" d="M1141.33,474.48c14.1,8.59,23.08,18.69,24.73,34.08,2.45,19.75,5,28.31,4.4,53.59-.27,22.81,3.57,41.5,8,52.49,7.26,17.68,13.19,41.5,12.09,52-14.84,17.59-100,35.45-152,6.59-1.65-10.44-.27-19.51,3.57-30.5a48.78,48.78,0,0,0-4.12-38.75c-19.51-32.44-22-56.35-4.67-82.46-2.24-4.51-.21-9.2,4.4-14,9.12-10.18,22.81-22.26,43.69-33Z"/>
    <g class="clothesOverlapLine">
        <path d="M1088.53,845.51c5.54-12.2,6.86-19.88,9-33.58,4.33-7.22,41-49.34,53.21-75.43"/>
        <path d="M523.42,905.48c-5.71-1.65-9.79-2.3-13.87-1.87"/>
        <path d="M639,766.25c6.06-20.22,10.78-34.18,13.78-51.78"/>
        <path d="M698.37,534.23a73,73,0,0,1-8.47-9.55"/>
        <path d="M1059.36,560.81c5.29,4.56,13.07-1.23,20.84-7"/>
    </g>
    <g class="skinIndian">
        <path d="M1027.65,301.4c-2.11.64-8.19,39.27-7.92,46.82-.21,7.18-3.39,12.08-8,14.21-13.09,4.37-12.65,28.11,3.4,30-1.8,17-.39,37.86,10.06,54.16,7,11,19.07,13.62,35.14,13.82C1133.61,374.55,1105.32,329.51,1027.65,301.4Z"/>
        <path d="M1033.32,521.47c3.82,14.81,12.68,27.86,26,39.34-17.09,9.85-33.45,18.2-48.47,23.75a51.81,51.81,0,0,1-26.84,1.54c-13.71-2.7-36.69-13.32-60.24-22-8.5-3.09-14.92-4.82-20.86-5.6-21.62-2.12-33-19.31-39.77-38.23-.65-5.8,1.33-11.1,5.21-16,7.72-8.69,15.16-8.84,21.63-3.28,7.32,7,14.44,13.08,20.85,15.83-.19-14.87,4.63-24.13,16.6-17.76,6-7.83,13.48-10.83,22.21-10,12.21,1.08,22.13,10.16,29.74,20.46-.79-10.8-5.51-14.23-2.51-21.53,3.86-7.08,14.6-3.22,19.1,3.87,6,8.37,7.39,19.24,7.16,29.06,5.62,3.34,10.84,6.94,15.81,8.5C1022.84,527,1028.19,524.43,1033.32,521.47Z"/>
    </g>
    <g class="eyeBlob">
        <ellipse cx="813.77" cy="361.1" rx="12.79" ry="6.4" transform="translate(52.05 821.97) rotate(-55.1)"/>
        <ellipse cx="1043.05" cy="358.32" rx="12.94" ry="6.47" transform="translate(504.06 1320.53) rotate(-79.7)"/>
    </g>
    <g class="mouthBlob">
        <path d="M782.4,417.43c-6.65,8.54-14.61,21.7-19.16,14.87C761.53,425.47,775.36,417.75,782.4,417.43Z"/>
        <path d="M1025.54,413.08c8.16,2.8,12.52,3.31,24.7,2.47-3.85,6-8,9.89-13.11,11.3C1031.69,423.26,1029.68,420.74,1025.54,413.08Z"/>
    </g>
    <g class="skinDisplayLine">
        <path d="M825,350c-10.45-3.78-22.43.87-35.89,13.76"/>
        <path d="M782.4,417.43a26.92,26.92,0,0,1,8.45-.2"/>
        <path d="M1061.63,362q-3.26-17.13-20-23.55"/>
    </g>
    <g class="skinOverlapLine">
        <path d="M701.67,365.76c1,3.7,2.55,7.8,5.17,10.49"/>
        <path d="M727.44,445.48c-6.5-6.29-10-10.39-12.5-17.33"/>
        <path d="M897.27,591.54c1.07,9.3-8.62,14.05-19.87,19.09,6.57,6.2,17.09,11.27,26.11,10.83"/>
        <path d="M880.24,585.21a261.65,261.65,0,0,0-24.43,10.21,19.39,19.39,0,0,1-13.89-1.12c-11.52-9-24.9-21.44-39-35.3"/>
        <path d="M927.47,499c6.75,4.35,9.82,18.05,12.19,33.53,18.5,8.25,34.78,8.05,51.67,11.67,8.39-4.54,17.67-9.54,27.65-14.88"/>
    </g>
    <g class="hairBlack">
        <path d="M822.83,313.81c3.67,19.64,12.27,35.89,27.47,47.6C880.35,343.74,890,305.54,874.92,274c-17.74-34.23-38.61-54.68-78.27-68.67-20.88-7.3-39.61-7.39-55.73-5.22-4.6-15.7,4.38-29.89,18.74-45.62-21.87,9.74-35.48,26.07-36.07,46.46-9.54-15.51-25.36-23-45-21.28,16.07,7.41,30.26,15.33,28.84,27.46-39,15.27-62,55.19-62.71,98.42-.71,25.23,7.12,48.55,20.14,71.41,12.24,2.08,25.69-3.17,36.76-11.22-2.37-14-1-22.75,8.71-30.43,8.73-6.17,18.92-3,19.07,8.23q4.27,2.83,9.3,5.8c5-7.51,12.8-13.14,23.2-19.53C783.68,333.88,803.86,327.79,822.83,313.81Z"/>
        <path d="M1070.87,341c-20-5.75-37.59-16.59-47.86-34.24-7.93-16.6-2.49-30,14.28-41,31.83-19.72,78.48-22.6,121.1-10.71,36.76,10,68.59,44.61,65,87.07-2.14,28.54-.72,39.25,4.28,59.59,7.49,26-13.26,54.91-36.89,65.46-41.18,17.67-87.5,21.24-126.22,10-10.63-3.32-16.23-14.8-8.88-23.31C1081,427.2,1081.77,387.89,1070.87,341Z"/>
    </g>
    <g class="hairOverlapLine">
        <path d="M1070.87,341c14.5,3.24,20.6-8.17,13.64-18.1a30.4,30.4,0,0,0-12.84-11.06"/>
        <path d="M762,329.83a133.18,133.18,0,0,1-27.86-9"/>
    </g>
    <g class="tear">
        <path d="M1070,372.74c17.84,10,28.52,21.77,31.27,29.31,4.42,12.12-11.79,20.14-17.68,7.7C1080.09,402.46,1080.59,385.19,1070,372.74Z"/>
        <path d="M780.37,361.13c-20.21.69-34.92,6.2-40.76,11.58-9.37,8.64,1.24,23,12,14.77C758,382.65,765.38,367.24,780.37,361.13Z"/>
    </g>
</svg>
