<svg viewBox="0 0 1359.03 1165.22">
  <path class="dishroomFloor" d="M109.33,936.37c44.06,64.61,114,110.18,183.93,90.23,36.39,151.13,380.44,188,464.44,59.14,66.87,113.39,293.61,35.56,292.79-66.35,66.2,32.09,156.71-10.95,203.94-83Z"/>
  <path class="dishroomWall" d="M109.33,936.37h1145.1c33-50.41,44.88-115,12.42-178,143.18-56.67,112.72-415.39-56.26-429.82,50.54-144.63-167.53-314.49-301-228C867.9-33.7,462.9-33.7,430,109.92c-108.69-68.8-319.31,58.37-288.54,166.54-154-4.85-193.55,377.64-57.37,450.14C46,782.69,63.85,869.67,109.33,936.37Z"/>
  <g class="steps">
    <path d="M1266.85,758.33a107.08,107.08,0,0,0,31.22-19.24H1049.32v71.62h234.79A171.23,171.23,0,0,0,1266.85,758.33Z"/>
    <path d="M1034.32,882.33h245.07a167.08,167.08,0,0,0,4.72-71.62H1034.32Z"/>
    <path d="M1019.32,954h222.27c17.9-21.74,31.33-47.84,37.8-71.63H1019.32Z"/>
  </g>
  <g class="door">
    <path class="doorLightFront" d="M1210.59,328.51c34.68-99.24-57.11-210.35-161.27-242.38v653h248.75C1404.22,646.11,1366,341.77,1210.59,328.51Z"/>
    <g class="stainlessSteel">
      <path d="M1355.14,613.57h-284.9V716.72h247.94C1337.74,689.47,1350,653.12,1355.14,613.57Z"/>
      <rect x="1070.24" y="342.13" width="74.57" height="178.6"/>
    </g>
    <path class="windowFront" d="M1160.76,156.38a77.83,77.83,0,0,0,56.73,115.47C1213.82,230.32,1192.24,189.7,1160.76,156.38Z"/>
  </g>
  <path class="busingWall" d="M851.55,48.9H475.72c-23.63,16.19-40.08,36.51-45.69,61-63.49-40.18-161.74-13.51-226.37,37.19V451H851.55Z"/>
  <g class="dishroomSink">
    <g class="ironDark">
      <polygon points="313.91 952.46 267.23 952.46 280.23 936.37 280.23 810.59 300.91 810.59 300.91 936.37 313.91 952.46"/>
      <polygon points="796.47 952.46 749.78 952.46 762.78 936.37 762.78 810.59 783.47 810.59 783.47 936.37 796.47 952.46"/>
    </g>
    <path class="metalMedium" d="M244,700.24h577a0,0,0,0,1,0,0v70.27a40.2,40.2,0,0,1-40.2,40.2H284.17a40.2,40.2,0,0,1-40.2-40.2V700.24A0,0,0,0,1,244,700.24Z"/>
    <path class="metalLight" d="M243.16,700.24H819.72c21.9,0,21.9-31,0-31H243.16C221.15,669.2,221.15,700.24,243.16,700.24Z"/>
  </g>
  <g class="conveyorBelt">
    <path class="track" d="M168.71,392a69,69,0,0,0,69,69H822.34a69,69,0,0,0,68.95-69V137.27a69,69,0,0,0-68.95-69H452.86a100.52,100.52,0,0,0-13.09,17.39H817.86a55.43,55.43,0,0,1,55.43,55.43v247a55.43,55.43,0,0,1-55.43,55.43H242.15a55.43,55.43,0,0,1-55.43-55.43V161.69a206.5,206.5,0,0,0-18,19.3Z"/>
    <polygon class="carInnerLight" points="64.81 644.03 135.15 667.03 135.15 344.76 64.81 367.76 64.81 644.03"/>
    <g class="carInnerMedium">
      <polygon points="64.81 644.03 135.15 667.03 280.41 655.03 211.61 636.94 64.81 644.03"/>
      <polygon points="280.41 356.76 207.78 374.93 64.81 367.76 135.15 344.76 280.41 356.76"/>
    </g>
    <g class="carDark">
      <rect x="613.94" y="85.71" width="190.26" height="322.27"/>
      <polygon points="280.41 655.03 135.15 667.03 135.15 344.76 280.41 356.76 280.41 655.03"/>
    </g>
    <line class="carDisplayLine" x1="135.15" y1="505.9" x2="64.81" y2="505.9"/>
  </g>
  <g class="liz">
    <path class="lizShoe" d="M942,903.36c14.77,9.27,17,29,16.09,54.86-.41,10.94-132.93,12.43-135,1.68-5.33-27.8,25.53-44.14,56.09-55.81Z"/>
    <path class="lizJeans" d="M860.77,675.33c-1.63,73.66,8.68,152.23,18.43,228.76,1.07,8.4,62.63,7.73,62.81-.73,1-50.39,8.37-91.72,20.11-128.09,7.64-30,30.06-42.31,20.12-101.84Z"/>
    <path class="lizShirt" d="M973.24,476.77c39.63,58,8.65,107.73,14.56,129.89,10.78,40.43,11.8,59.83,1.2,70.4-19.64,19.58-132.25,21-135.54,2.69-2.82-13.17,15.19-41.84-3.17-96.72-15.52-46.42,44.3-87.91,52.65-108.14Z"/>
    <g class="skinIndian">
      <path d="M855.84,321.39c-5.59,11.76-10.71,34.09-8.43,48.38,3,16.45-20.68,17.56-18,36.93-.43,11,17.33,7.67,17.88,15.47,1.92,18.32,2.46,35.54,13.08,44.42,8.61,7.22,38.85,9.38,45.32,1.05C960.32,388.94,966.45,328.28,855.84,321.39Z"/>
      <path d="M831,584.59c-32.12,2.91-47.18-35.47-103.43-27.41-10.91,1.57-16.78,22.55,18.64,25.47,20.1,1.66,32.74,15.6,24,22.64-13.83,11.15-11.21,28.78,7.23,21.61,12.6-4.89,12.73-21.1,50.16-7.79Z"/>
      <path d="M830.64,627c10.34,7.8,14.33,26.87,22.55,28.08,26.68.63,59-41.58,78-81.17a138.11,138.11,0,0,1-42.66-24.12c-12.48,18.36-24.58,35-31.48,49.8-4.66-1.54-.68-29.55-24.25-19.94C818.36,585.53,801,611.46,830.64,627Z"/>
    </g>
  </g>
  <g class="bennett">
    <g class="bennettShoe">
      <path d="M543.6,882c54.63,6.21,79.13,9.86,71.39,49.51-2,10.32-114.1,30-120.22,21.15-10.74-15.57-10.32-34.58-7.86-54.57Z"/>
      <path d="M406.28,905.24c36.05,15.11,61.51,19.86,52.6,57.51-2.05,8.69-121.22,7.65-124.18-3-4.14-14.78-.23-41.23,9.46-54Z"/>
    </g>
    <path class="bennettJeans" d="M342.67,678.71c-10.55,41.32,5,82.85,2.8,122.51-2.49,44.54-6.69,83.64-2.83,102.37,1.52,7.66,66.4,9.84,66.64,1.8,7-25,10.71-73,16.43-120.33,22.21,28.66,41.91,66,56.7,110.19,2.37,10.14,67.31-5.65,64.94-15.79-10.7-58-34.62-123-56.14-193.33Z"/>
    <path class="dishroomShirt" d="M459.83,441.8c38.09,4.3,38.08,58.77,77.8,89.95-14.56,6.61-30.4,28.32-32.8,49.85-5.42-.85-9.15-3.84-13.53-7.13l-7.94,116.42s-150.79,2.81-147.58-19.52c2.5-24.92,8.56-53.48,9-89.11-5.89-1.13-15.86-3.37-16.5-9.72-3.43-34.11,1.16-60.66,8.74-94.08,10.4-32.83,37.1-35.44,64.71-43.75Z"/>
    <path class="dishroomApron" d="M401.76,434.71c13.92,24.29,11.6,49.19,20.19,54,9.93,8.13,47.51,11.1,47-6.17-.63-22.1-5-30.32-9.14-40.77,11.77,1.46,19.38,7.24,27.62,19.13,12.29,42.35,6.81,74.41,3.85,113.54-21.54,50.5,6.17,63.09,15.51,140.18,2.31,24.48-159.1,26.46-157.94,1.61q3.64-72.24,12.81-131.9c46.11,19.92,76.06-49.4,29.95-69.32,6.61-38.22-.44-55.82-11-73.18C388.16,439,395.1,436.59,401.76,434.71Z"/>
    <g class="book">
      <polygon class="paperStackLight" points="416.3 513.78 433.62 518.02 430.81 610.03 414.51 608.11 416.3 513.78"/>
      <g class="bookCover">
        <path d="M414.51,608.11l1.79-94.33L391.63,515c-.78,34.7,5.69,61.74-7,64.32C376.71,610.27,391.06,614.62,414.51,608.11Z"/>
        <path d="M334.59,579.36c-3.31-1.5-6-3.64-6.28-6.82a223.11,223.11,0,0,1,1.13-54.34l-20.82,1.06.13,89.89,27.75-.27C334.9,601.76,334.41,582.9,334.59,579.36Z"/>
      </g>
    </g>
    <g class="bennettSleeves">
      <path d="M334.59,579.36c15.31,5.34,41,3.95,50,0,2.89,7.66,9.06,17.83,7.39,20.67-2.62,7-46.18,27.12-50.7,21.26C336.75,617.68,334.56,601.24,334.59,579.36Z"/>
      <path d="M534.48,533.41c-13.61,8.07-27.43,28.21-29.65,48.19,1.77,3.42,22.94,11.23,37.08,11.92,1.33-14.72,11-36.42,19.36-43.4C550.24,544.81,540.73,539.31,534.48,533.41Z"/>
    </g>
    <path class="cafeteriaHatDark" d="M545.07,263.62c-124.74,19-103.64,29.24,6.94,34.05C620.07,268.78,603.14,253.42,545.07,263.62Z"/>
  </g>
  <g class="hairBlack">
    <path d="M897.93,356.07c-44.2-3.6-80.57-27.91-54-57.59,19-21.22,79.33-37.4,122-23.63,102.4,33.06,47.91,111.3,62,157.83,10,33.16-10.23,47.05-64.72,55-43.18,6.32-93.61-2.08-82.56-33.1C891.41,424.34,904.52,405.87,897.93,356.07Z"/>
    <path d="M378.26,374.79a36.34,36.34,0,0,1-14.65-22.53c51.9-61.66,128.69-81.48,188.54-64,.26,14.55-.91,31.55-16.31,27.86Z"/>
  </g>
  <path class="hairOverlapLine" d="M897.93,356.07c40.77.63,37.13-19.54,2.85-30.42"/>
  <path class="cafeteriaHat" d="M363.61,352.26c-5.44,2.26-32.33-62.19-28.76-66.88,35.24-46.33,147-87,171.54-88.19,8.6-.4,46.2,62.24,38.68,66.43C503.68,272,408,312.51,363.61,352.26Z"/>
  <path class="cafeteriaHatMesh" d="M492.56,199.63c-20.08-9.27-53.7-12.74-93.57,8-35,18.18-52.61,42.53-55.21,67.68C380,239.25,457.05,208.35,492.56,199.63Z"/>
  <g class="skinEastAsian">
    <path d="M401.76,434.71c2.28-31.84-3.59-41.53-23.5-59.92,6.12-2.83,10.49-9.09,13.52-13.17-20.22-35.95,9.66-55.56,17.38-26.8l10.07,2.85c.12-6.76,5.63-11.58,8.29-18.16,27.27,3.54,46.82-9.35,64.16-33.34,5.72,16,21.63,25.2,44.16,29.93-8.58,26.17,2.63,43.11-9.57,71.92-12.76,30.13-33.76,47.14-66.14,44.37a22.27,22.27,0,0,0-.3,9.41C445.81,451.59,410.72,447.2,401.76,434.71Z"/>
    <path d="M523.91,560.92c-12.6-11.79-27.14-2.44-22,16.43-28.73-4.27-35.18,20.64-46,26.55-9.05,5-41.52-.17-66.6-.73-7.55,6.28-28.25,16.09-40,18.58,7.47,15.06,15.34,25.86,23.57,27.8,15.91,3.74,74.49-15.93,106.42-8.55,42.27,9.78,58-16.3,49.38-46.58C536.27,579.9,530.56,567.14,523.91,560.92Z"/>
    <path d="M667.6,570.55c11.07-8.85,11.36-23.19-4.48-23.7-18.44-.59-29.69,18.26-44.51,20.55-5.58.86-41.67-11-60-14.66-6.87,7.89-13.95,23.89-16.18,36.63,8.24,4.34,58.56,3.68,64.08,7,22.25,13.35,42.62,27,67,31.45,21.24,3.87,43.21-19.49,44.78-32.25C719.83,583.34,689.57,575.69,667.6,570.55Z"/>
  </g>
  <g class="lancetPen">
    <path class="penCapLight" d="M627.93,597.35a204.43,204.43,0,0,0-19.45,16.33c-9.47,9.06,6.73,20.85,17.26,15.88,10.16-4.8,19.55-9.7,28.4-14.92C654.44,602.33,639.3,596.09,627.93,597.35Z"/>
    <path class="lancetPenLight" d="M686.62,563.37c-19.84,9.27-40.31,20.31-58.69,34,11.37-1.26,26.51,5,26.21,17.29A234.15,234.15,0,0,0,703,576.7C712.38,567.21,698.7,557.72,686.62,563.37Z"/>
  </g>
  <g class="clothesOverlapLine">
    <path d="M888.54,549.78c-7.12-5.6-.23-14.49,4.78-22.95"/>
    <path d="M931.2,573.9c10.73,6.05,16.38-9.23,22.54-22.39"/>
    <path d="M425.71,785.06q2.87-24.42,4.2-51.13"/>
  </g>
  <path class="mouthBlob" d="M492.68,395.05c-12.64,16.8-20.95,11.2-33.57-6.93C470.1,392.39,482.41,395.17,492.68,395.05Z"/>
  <g class="eyeBlob">
    <ellipse cx="869.51" cy="379.78" rx="6.47" ry="12.94" transform="translate(-8.87 21) rotate(-1.38)"/>
    <ellipse cx="485.76" cy="334.52" rx="12.57" ry="6.28" transform="translate(100.38 781) rotate(-83.75)"/>
    <ellipse cx="522.3" cy="337.3" rx="12.57" ry="6.28" transform="translate(130.17 819.8) rotate(-83.75)"/>
  </g>
  <g class="skinDisplayLine">
    <path d="M863.33,363.81c10.27-1.49,23.38,7.8,25,18.81"/>
    <path d="M509.2,352.22c18.05,4.76,11.4,30-6.65,25.21"/>
    <path d="M495.14,320.92c0-11.51-16.84-12.06-28.29.17"/>
    <path d="M530.54,325.75c.71-6.55-8.27-13.19-21.57-2.6"/>
    <path d="M492.68,395.05a36.65,36.65,0,0,0,12.57-2.5"/>
  </g>
  <g class="skinOverlapLine">
    <line x1="857.06" y1="599.58" x2="849.46" y2="615.32"/>
    <path d="M391.78,361.62a35.37,35.37,0,0,0,13.44,9.3"/>
    <path d="M421.85,418.65c10.35,7.21,23.16,11.74,38.28,13.74"/>
    <path d="M528.65,594.42c-2.77,4.81-5.86,8.3-9.35,10.14"/>
    <path d="M501.87,577.35c.92,3.57-1,6.84-7.07,9.69"/>
  </g>
</svg>
