<svg viewBox="0 0 350.08 278.99">
  <path class="earthMediumDark" d="M15.45,218.31c8,9.25,18.86,14.87,31.77,13.28,4.54,35.67,65.83,55.13,91.45,26.91,16.86,27.89,69.4,26.59,84.31-3.89,33.55,31.41,97.5-1.42,97.44-36.19Q168,213.92,15.45,218.31Z"/>
  <path class="sky" d="M328.38,128.46C363.08,89.87,319.3,24.37,274.55,37,255.74-2.87,186-12.92,153.26,21.13c-19.78-25-71-13.62-78.47,17.18-45.4-13-88.53,63.24-53.84,99.23-27.45,13.15-25.2,58-5.5,80.77q152.46-4.38,305,.11a27.66,27.66,0,0,0-.8-6.61C353.35,205.32,361.78,141.76,328.38,128.46Z"/>
  <path class="foliageNear" d="M349.42,161.46c-12.21-4.06-26.87,2.43-29.83,15.86-5.41-5.39-15.42-4.84-19.48,2-8.46-8.81-23.76-7.42-29.62,3.25-11.38-7.89-27.79-2.88-31.66,11.36-8.92-5.75-19.77-.89-23.13,6.9-4.7-10.58-24.45-14.47-34.9-3.25-13.1-4.55-29.12,5.14-30.83,18.56q85.23-.27,170.45,2.25a27.66,27.66,0,0,0-.8-6.61C339.92,207.9,351.06,183.31,349.42,161.46Z"/>
  <path class="cloud" d="M132.55,108c16.51-11.63,8.73-38.21-12.38-36.64,2.12-5.55-1.11-13.15-6.16-14.59,18.54-10.14,16.25-40.14-5-47.9-16,3.65-30.5,14.14-34.19,29.41-45.4-13-88.53,63.24-53.84,99.23-27.45,13.15-25.2,58-5.49,80.77q47.36-1.37,94.73-1.87l25.2-90.23C143.74,123.17,142.6,108,132.55,108Z"/>
  <g class="reatta">
    <path class="glassClear" d="M25.59,188.19c.91-5.41,2.61-9.42,5.72-14.63,10.72-1.8,33.26-1.5,40.27,0a42.08,42.08,0,0,0-4,14.13Z"/>
    <path class="hairBlonde" d="M41.82,182.38c-3.72-3.19-5.17-7.52-2.8-12,1.42-2.63,3.82-4.38,8-3.84,6.2,1,9.76,1,13.17-1.27a11.55,11.55,0,0,1-3.41,4.81,11.16,11.16,0,0,0,9.72-2.91c-1.26,4.08-4.4,7.81-9.09,8.69a3.65,3.65,0,0,0,3.38,2.33,8.37,8.37,0,0,1-6.21,3.33Z"/>
    <g class="cushion">
      <path d="M56.12,185.61c.53-2.78-.43-5.89-3.4-6.28a32.71,32.71,0,0,0-9.75.26c-3,.84-3.63,3.37-3.8,6.34Z"/>
      <path d="M82.65,185.61c.53-2.78-.43-5.89-3.4-6.28a32.63,32.63,0,0,0-9.74.26c-3,.84-3.63,3.37-3.81,6.34Z"/>
    </g>
    <g class="rubberMediumDark">
      <path d="M48.29,217.34c2.14-.06,3.4-4.41,2.57-9.71s-3.21-9.5-5.35-9.48l-6.71.25,3,19.18Z"/>
      <path d="M30.81,217.9c2.1-.05,3.33-4.31,2.52-9.49s-3.14-9.29-5.23-9.27l-6.57.24,3,18.76Z"/>
      <path d="M87.16,216.61c2.12-.05,3.37-4.36,2.54-9.61s-3.17-9.41-5.3-9.39l-6.64.24,3,19Z"/>
      <path d="M70.09,216.93c2.08-.05,3.3-4.27,2.49-9.4s-3.1-9.2-5.18-9.19l-6.5.24,2.93,18.59Z"/>
    </g>
    <path class="body" d="M44.62,212.21c2.44-.14,4.44-.5,5.33-1.28a6.36,6.36,0,0,0,2.18-4.15c1-6-.1-14.24-2.42-17.13-1.91-3-7-4.4-10-4.73a420.11,420.11,0,0,1,46,0,9.57,9.57,0,0,1,7.57,4.49c2.31,2.89,3.47,11.14,2.41,17.12a6.37,6.37,0,0,1-2.17,4.15c-.9.78-2.89,1.14-5.34,1.28C73.41,212.67,59.2,212.87,44.62,212.21Z"/>
    <path class="trimEdge" d="M90.74,207.5q-19.39.56-38.76,0c-.1.32-.15.49-.24.81q19.5.56,39,0Z"/>
    <path class="brakeLight" d="M51.57,193.94q18.78-.27,37.54,0v4.73q-18.37-.27-36.74,0A32,32,0,0,0,51.57,193.94Z"/>
    <path class="bodyDark" d="M13.72,196.22c-1.39,2.64-1,6.41,0,9a12.44,12.44,0,0,0,5.55,5,32.75,32.75,0,0,0,8,1.91,152.81,152.81,0,0,0,17.36.12c2.44-.14,4.44-.5,5.33-1.28a6.36,6.36,0,0,0,2.18-4.15c1-6-.1-14.24-2.42-17.13a9.6,9.6,0,0,0-7.57-4.49,26.84,26.84,0,0,0-13.23,1.54C23.25,188.63,15.38,193.08,13.72,196.22Z"/>
    <path class="trimSide" d="M15.45,207.51q18.27.51,36.53,0c-.1.33-.15.5-.24.83q-17.72.49-35.42,0Z"/>
    <path class="turnLight" d="M52.37,198.67H47.74a14.34,14.34,0,0,1-1-4.73h4.85A30,30,0,0,1,52.37,198.67Z"/>
    <g class="rubberDark">
      <path d="M76.61,212.41c1.16,2.7,2.75,4.48,4.14,4.45s2.42-1.91,2.72-4.69Z"/>
      <path d="M59.69,212.6c1.15,2.76,2.74,4.6,4.14,4.57s2.36-1.87,2.65-4.57Q63.09,212.63,59.69,212.6Z"/>
      <path d="M36.22,208.1c.84,5.3,3.45,9.53,5.6,9.48s3.41-4.4,2.57-9.7-3.45-9.5-5.59-9.48S35.39,202.8,36.22,208.1Z"/>
      <path d="M19,208.87c.82,5.18,3.36,9.32,5.47,9.27s3.33-4.31,2.52-9.49-3.38-9.29-5.48-9.27S18.2,203.69,19,208.87Z"/>
    </g>
    <g class="steelMedium">
      <path d="M38.73,208c.32,2.06,1.33,3.7,2.16,3.68s1.33-1.71,1-3.77-1.34-3.68-2.17-3.67S38.4,206,38.73,208Z"/>
      <path d="M21.46,208.8c.32,2,1.31,3.62,2.13,3.6s1.29-1.67,1-3.68-1.31-3.6-2.12-3.6S21.15,206.79,21.46,208.8Z"/>
    </g>
  </g>
  <path class="exhaust" d="M178.07,216.16c19.18,0,19.18-14,10.78-19.47,6-1.47,6.9-11.6,1.62-13.37,11.74-8.36,7.78-26.42-8.37-27,14.18-22.61-12.41-46-34.74-31.08-11-13.65-37.59-2.41-34,15.22A16.55,16.55,0,0,0,95,164.38c-22.76,0-27,36.71-5.88,40.82A8.28,8.28,0,0,0,88,216.73Q133,216.06,178.07,216.16Z"/>
  <g class="bennettShoe">
    <path d="M198.7,215.62c7.52-3.57,14.37-4.09,18.92,2.61a4.14,4.14,0,0,1-.49,5.5c-3.71,3.74-21.89,12.54-25.6,12.86a5.15,5.15,0,0,1-4.86-1.75,18.29,18.29,0,0,1-3.34-12.42Z"/>
    <path d="M120.69,209.51c-4.75,2.48-8.74,5.42-11.43,9.13-1.17,1.66-1.17,2.76.09,4.52,3.88,5.58,10.18,12.74,14.53,15,4.46,2.44,10.27,2.87,14.31,1.17,1.29-.62,1.78-1.6,2-3.25.91-8.34-3.91-10.27-9-11.94A16.17,16.17,0,0,1,131,220Z"/>
  </g>
  <path class="bennettJeans" d="M171.6,168.36a210.36,210.36,0,0,1,17.76,28.48c3.95,8,7.61,12.88,10.39,17.16.43,2.31-14.58,9.85-17.52,8.18a86.21,86.21,0,0,0-11.79-19.27,42.16,42.16,0,0,0-12.71-10.11,40.65,40.65,0,0,1-6.16,12.8c-3.12,4-10.48,9.2-15.64,16.68-4.45,1-15.3-7.22-15.24-14.17,8-6.82,13.25-11.53,16.54-14.25A105.21,105.21,0,0,1,135.59,171a27.48,27.48,0,0,1,3.08-10.49Z"/>
  <path class="shirtWhite" d="M178.42,138.53a147.33,147.33,0,0,1-3.52,15.94A61.79,61.79,0,0,0,172.68,168c-5.37,2.68-32.28.15-35.88-7.9,3-7.43,5.44-14.48,8-22.84,2.69-9.5,7.2-16.81,13.89-24C171.61,111.84,178.38,120,178.42,138.53Z"/>
  <g class="skinEastAsian">
    <path d="M208.9,91.44a22,22,0,0,1-3.26,5.26c-.78,1-.38,3,.44,4,3.58,4.73-.7,9.34-4.3,7.59-3.16,5.15-6.85,8.33-12.22,8.83a12.57,12.57,0,0,1-8.79-2.14,24.17,24.17,0,0,0-4.55,6.56l-16.52-8.32c4.55-5.72,8.69-10,6.82-15C176.19,73.27,205.11,68.07,208.9,91.44Z"/>
    <path d="M194.92,137.66c3.35,2.31,6.62,4.86,9.21,6,3.85-2,7.58-3.83,9.07-2,.86,1.24.13,2.46-1.19,3.64q2.09,1,4.2,1.83c2.43-1.28,4.18.13,4.2,1.57,3.53.93,3.58,2.21,3.2,4.3a6.93,6.93,0,0,1-1.67,3.07c3.12-.47,5.19.64,5.1,4.24-.18,4.58-3.27,8.64-6.67,8.64-5.53-.1-12-4.48-14.49-8-1.32-1.91-2.78-4-4.53-5.07a103.89,103.89,0,0,1-13-9.27Z"/>
  </g>
  <g class="bennettSleeves">
    <path d="M158.15,113.8l2.45-2.65c3.05-1,12.17,2.15,16.48,6.06,4.52,4.66,7.63,10,11.67,14.31a50.87,50.87,0,0,0,9,7.53c0,2.21-6,10.12-8.83,9.47a146.9,146.9,0,0,1-16.55-12.9c-2.92,1.34-6,.92-8.13-2.69-3.13-5.32-3.6-12.45-2.4-18.43A5.68,5.68,0,0,0,158.15,113.8Z"/>
  </g>
  <g class="lizShoe">
    <path d="M259.94,226.44c2.21,1.67,2.3,6.36.21,10.87a4.19,4.19,0,0,1-4.24,2.13c-7.89-.18-16-2.9-24.13-7.07-1.92-1-2.53-2.36-1.76-4.38,2.72-6.24,9.51-6.4,16.54-6.21Z"/>
    <path d="M293,217.37c5,1.69,7.37,5.19,8.05,9.84.27,2-.05,3.09-1.4,4.09-9.17,6.54-19,8.49-26.34,7.49-1.84-.21-2.28-1.54-2.2-3.2.33-4.36,4.13-8.06,8.46-11.65A18.42,18.42,0,0,1,293,217.37Z"/>
  </g>
  <path class="lizJeans" d="M291.58,163.41c1.72,8.42.49,17-4.41,25.9a48.81,48.81,0,0,0-4,8.24c4.32,5.3,7.42,12.12,9.81,19.82a75.43,75.43,0,0,0-13.43,6.57,157.4,157.4,0,0,1-11-15.3,148,148,0,0,1-8.59,17.8c-4.08,1.06-11.29-1.77-13.38-4.66a500.76,500.76,0,0,1,12.16-58.17Z"/>
  <path class="lizShirt" d="M281.54,117.19c3.48,2.12,5.69,4.61,6.1,8.4.6,4.87,1.22,7,1.08,13.21a35.48,35.48,0,0,0,2,12.94c1.78,4.35,3.25,10.22,3,12.8-3.66,4.33-24.66,8.74-37.46,1.62a14.52,14.52,0,0,1,.88-7.51,12,12,0,0,0-1-9.55c-4.81-8-5.41-13.89-1.15-20.33-.55-1.11,0-2.26,1.09-3.45a36.46,36.46,0,0,1,10.77-8.13Z"/>
  <g class="clothesOverlapLine">
    <path d="M268.53,208.64a27.46,27.46,0,0,0,2.22-8.28c1.07-1.78,10.1-12.16,13.12-18.59"/>
    <path d="M131.23,224.15a9,9,0,0,0-3.42-.46"/>
    <path d="M157.73,192.8a104.64,104.64,0,0,0,3.4-12.76"/>
    <path d="M172.37,135.62a18.76,18.76,0,0,1-2.09-2.36"/>
    <path d="M261.34,138.47c1.3,1.12,3.22-.3,5.14-1.72"/>
  </g>
  <g class="skinIndian">
    <path d="M251.8,74.78c-.52.16-2,9.68-2,11.54a3.71,3.71,0,0,1-2,3.5c-4.15,2.17-3.12,6.93.84,7.41-.55,4.65-.7,9.85,2.33,13.53,2,2.49,4.84,3.17,8.8,3.22C277.92,92.81,270.94,81.71,251.8,74.78Z"/>
    <path d="M254.92,128.77a19.19,19.19,0,0,0,6.42,9.7,80.51,80.51,0,0,1-11.95,5.85,12.79,12.79,0,0,1-6.61.38c-3.38-.66-9-3.28-14.85-5.42a24,24,0,0,0-5.14-1.38c-5.33-.53-8.14-4.76-9.8-9.43a5.34,5.34,0,0,1,1.28-4c1.91-2.14,3.74-2.17,5.33-.8a20.08,20.08,0,0,0,5.14,3.9c0-3.67,1.15-6,4.1-4.38a5.82,5.82,0,0,1,5.47-2.47c3,.26,5.45,2.5,7.33,5-.2-2.66-1.36-3.51-.62-5.31.95-1.74,3.6-.79,4.71,1a11.76,11.76,0,0,1,1.76,7.16,20.89,20.89,0,0,0,3.9,2.09C252.34,130.13,253.66,129.5,254.92,128.77Z"/>
  </g>
  <g class="eyeBlob">
    <ellipse cx="201.55" cy="94.67" rx="3.15" ry="1.58" transform="matrix(0.57, -0.82, 0.82, 0.57, 8.6, 205.82)"/>
    <ellipse cx="254.36" cy="88.81" rx="3.19" ry="1.59" transform="translate(121.52 323.2) rotate(-79.7)"/>
  </g>
  <g class="mouthBlob">
    <path d="M196.41,108.3a8.56,8.56,0,0,0-4.65,2.35c-.69.56-1.66,1.3-2.54.37S191.71,107.3,196.41,108.3Z"/>
    <path d="M250.73,102.55c1.52.69,3.64.66,6.15.37-.95,1.47-2,2.68-3.24,3s-2.29-.65-2-1.44S251.7,103.53,250.73,102.55Z"/>
  </g>
  <g class="skinDisplayLine">
    <path d="M204.56,91.69a10.71,10.71,0,0,0-8.08,1.64"/>
    <path d="M258.94,89.72a7.32,7.32,0,0,0-4.94-5.8"/>
  </g>
  <g class="skinOverlapLine">
    <path d="M173.92,95.82a5.87,5.87,0,0,0,1.28,2.58"/>
    <path d="M180.77,115a10.53,10.53,0,0,1-3.08-4.27"/>
    <path d="M220.41,148.76c.26,2.29-2.13,3.46-4.9,4.7a9.59,9.59,0,0,0,6.43,2.67"/>
    <path d="M216.21,147.19a64.88,64.88,0,0,0-6,2.52,4.78,4.78,0,0,1-3.43-.28,124.75,124.75,0,0,1-9.62-8.7"/>
    <path d="M228.84,123.24c1.66,1.07,2.42,4.45,3,8.27,4.56,2,8.57,2,12.73,2.87l6.82-3.67"/>
  </g>
  <g class="hairBlack">
    <path d="M203.79,83a18.43,18.43,0,0,0,6.76,11.73c7.41-4.36,9.13-14.92,6.32-20.8-4.37-8.44-9-13.72-18.8-17.17a28.94,28.94,0,0,0-13.73-1.29c-1.14-3.87,1.08-7.36,4.62-11.24-5.39,2.4-8.75,6.42-8.89,11.45-2.36-3.82-6.25-5.66-11.08-5.25,4,1.83,7.46,3.78,7.11,6.77-9.61,3.76-14.78,13.11-15,23.77a30.88,30.88,0,0,0,4.23,17.1,11,11,0,0,0,8.56-2.27c-.58-3.46-.25-5.61,2.15-7.5,2.15-1.52,4.66-.73,4.7,2,.7.46,1.47.94,2.29,1.43,1.22-1.85,3.16-3.24,5.72-4.82C194.14,88,199.11,86.46,203.79,83Z"/>
    <path d="M262.45,84.54c-4.92-1.42-9.26-4.09-11.79-8.44-2-4.09-2.73-11.7,5-11.17,4,.54,8.71-5.43,25.46-1.58,9.14,2.1,17.39,10.75,16.51,21.21-.53,7,1,8.53,2.21,13.55,1.85,6.42-4.66,15.24-10.26,17.73-11.39,5.84-36.09,4-31.42-3.42C259.6,110,266.86,102,262.45,84.54Z"/>
  </g>
  <g class="hairOverlapLine">
    <path d="M262.45,84.54c3.58.8,5.08-2,3.36-4.46a7.46,7.46,0,0,0-3.16-2.73"/>
    <path d="M188.78,87a32.2,32.2,0,0,1-6.87-2.21"/>
  </g>
  <g class="tear">
    <path d="M262.22,92.37c4.4,2.46,7,5.36,7.71,7.22a2.38,2.38,0,1,1-4.36,1.89C264.72,99.69,264.85,95.43,262.22,92.37Z"/>
    <path d="M193.77,94.81c-4.32,2.48-6.89,5.37-7.54,7.22-1,3,2.34,3.61,3.75.56C190.8,100.81,190.33,98.62,193.77,94.81Z"/>
  </g>
</svg>
