<svg viewBox="0 0 544.81 467.29">
  <path class="dishroomFloor" d="M44.33,375.15C62,401,89.93,419.22,117.9,411.24c14.56,60.45,152.18,75.2,185.78,23.66,26.75,45.35,117.44,14.22,117.12-26.54,26.47,12.83,62.68-4.39,81.57-33.21Z"/>
  <path class="dishroomWall" d="M44.33,375.15h458c13.21-20.16,18-46,5-71.22,57.27-22.67,45.09-166.16-22.5-171.93,20.21-57.85-67-125.79-120.42-91.19-16.66-53.69-178.66-53.69-191.81,3.76C129.14,17.05,44.89,67.92,57.2,111.18c-61.59-1.94-77.42,151.06-23,180.06C19,313.68,26.14,348.47,44.33,375.15Z"/>
  <g class="stepFront">
    <path d="M507.34,303.93a42.89,42.89,0,0,0,12.49-7.69h-99.5v28.64h93.91A68.5,68.5,0,0,0,507.34,303.93Z"/>
    <path d="M414.33,353.53h98a66.84,66.84,0,0,0,1.88-28.65H414.33Z"/>
    <path d="M408.33,382.18h88.91a79.73,79.73,0,0,0,15.12-28.65h-104Z"/>
  </g>
  <g class="door">
    <path class="doorLightFront" d="M484.84,132C498.71,92.31,462,47.86,420.33,35.05V296.24h99.5C562.29,259,547,137.31,484.84,132Z"/>
    <g class="steelLight">
      <path d="M542.66,246h-114v41.26h99.17C535.7,276.39,540.58,261.85,542.66,246Z"/>
      <rect x="428.7" y="137.45" width="29.83" height="71.44"/>
    </g>
    <path class="windowFront" d="M464.91,63.15a31.13,31.13,0,0,0,22.68,46.19C486.13,92.73,477.49,76.48,464.91,63.15Z"/>
  </g>
  <path class="busingWall" d="M341.22,20.16H190.89c-9.45,6.48-16,14.61-18.28,24.41-25.39-16.07-64.7-5.41-90.54,14.87V181H341.22Z"/>
  <g class="dishroomSink">
    <g class="steelDark">
      <polygon points="126.17 381.58 107.49 381.58 112.69 375.15 112.69 324.84 120.97 324.84 120.97 375.15 126.17 381.58"/>
      <polygon points="319.19 381.58 300.51 381.58 305.71 375.15 305.71 324.84 313.99 324.84 313.99 375.15 319.19 381.58"/>
    </g>
    <path class="porcelainDark" d="M98.19,280.7H329a0,0,0,0,1,0,0V308.8a16.08,16.08,0,0,1-16.08,16.08H114.27A16.08,16.08,0,0,1,98.19,308.8V280.7A0,0,0,0,1,98.19,280.7Z"/>
    <path class="porcelainMedium" d="M97.87,280.7H328.49a6.22,6.22,0,1,0,0-12.42H97.87A6.22,6.22,0,1,0,97.87,280.7Z"/>
  </g>
  <g class="conveyorBelt">
    <path class="ironMedium" d="M68.09,157.41A27.58,27.58,0,0,0,95.67,185H329.53a27.58,27.58,0,0,0,27.59-27.58V55.51a27.58,27.58,0,0,0-27.59-27.58H181.75a40,40,0,0,0-5.24,7H327.74a22.18,22.18,0,0,1,22.18,22.18v98.8A22.18,22.18,0,0,1,327.74,178H97.46a22.17,22.17,0,0,1-22.17-22.18V65.28A81,81,0,0,0,68.09,73Z"/>
    <polygon class="patinaMediumDark" points="26.53 258.21 54.66 267.41 54.66 138.51 26.53 147.71 26.53 258.21"/>
    <g class="patinaDarker">
      <polygon points="26.53 258.21 54.66 267.41 112.76 262.61 85.24 255.38 26.53 258.21"/>
      <polygon points="112.76 143.31 83.71 150.57 26.53 147.71 54.66 138.51 112.76 143.31"/>
    </g>
    <g class="patinaMedium">
      <rect x="246.18" y="34.88" width="76.1" height="128.91"/>
      <polygon points="112.76 262.61 54.66 267.41 54.66 138.51 112.76 143.31 112.76 262.61"/>
    </g>
    <line class="carDisplayLine" x1="54.66" y1="202.96" x2="26.53" y2="202.96"/>
  </g>
  <g class="liz">
    <path class="lizShoe" d="M377.4,370.34c5.91,3.71,6.82,11.61,6.44,22-.16,4.37-53.68,5-54,.67-.92-13,9.25-19.42,22.44-22.32Z"/>
    <path class="lizJeans" d="M344.91,278.33c-.66,29.47,3.07,61.7,7,92.31.43,3.35,25.85,3.09,25.92-.3.41-20.15,2.95-36.68,7.65-51.23,3.06-12,12-17.72,8.05-41.54Z"/>
    <path class="lizShirt" d="M389.9,199.71c15.85,23.19,2.66,42.29,5,51.16,4.31,16.17,4.72,23.93.48,28.16-7.86,7.83-52.1,7.59-53.41.27-1-4.85,6.23-14.65-1.27-37.09-6.21-18.57,17.72-35.16,21-43.25Z"/>
    <g class="skinIndian">
      <path d="M344.14,136.36c-2.24,4.7-5.28,13.66-4.17,19.35,1.32,6.84-8.27,7.27-7.62,14-.17,4.4,6.13,3.87,6.35,7,0,7.53,1.79,14.21,6,17.77,3.45,2.88,15.54,3.75,18.13.41C384.73,163.37,388.38,139.11,344.14,136.36Z"/>
      <path d="M333,242.84c-14.37,3.11-18.07-13.39-40.57-10.17-4.37.63-7.51,7.42,6.65,8.59,8,.66,13.1,7,9.61,9.86-5.53,4.46-4.49,11.51,2.89,8.64,5-2,5.09-8.44,20.06-3.12Z"/>
      <path d="M332.86,259.8c4.13,3.12,5.73,10.74,9,11.23,10.68.25,21.06-14.66,30-28.87a55.26,55.26,0,0,1-17.07-9.65c-5,7.34-8.23,10.82-11,16.72-1.86-.61-.67-12.22-10.1-8.37C328,243.21,321,253.58,332.86,259.8Z"/>
    </g>
  </g>
  <g class="bennett">
    <g class="bennettShoe">
      <path d="M218,362.62c21.55-.14,33.65,2.34,30.56,18.2-.81,4.13-47.64,12.81-50.09,9.26-4.3-6.23-4.13-13-3.15-21Z"/>
      <path d="M163.11,371.5c16.41,1.81,26.61,7.54,23,22.6-.82,3.47-50.49,3.06-51.67-1.18-1.66-5.91-.09-16.09,3.78-21.18Z"/>
    </g>
    <path class="bennettJeans" d="M137.67,280.48c-4.22,16.53,2,33.14,1.12,49-1,17.81-2.68,33.85-1.14,41.35.61,3.06,26.57,3.93,26.66.71,2.81-10,4.29-29.58,6.57-48.52,8.89,11.46,16.77,27.2,22.68,44.87.95,4.06,26.93-2.26,26-6.32-4.28-23.2-13.85-50-22.46-78.13Z"/>
    <path class="dishroomShirt" d="M184.53,187.32c15.24,1.72,15.24,21.91,31.12,34.38-5.82,2.64-12.16,11.33-13.12,19.94-2.17-.34-3.66-1.54-5.41-2.85l-3.18,46.56s-60.31,1.13-59-7.8c1-10,3.43-21.39,3.61-35.64-2.35-.46-6.34-1.36-6.6-3.89-1.37-13.65.47-22.67,3.5-36,4.16-13.14,14.84-14.18,25.89-17.51Z"/>
    <path class="dishroomApron" d="M161.31,184.48c5.56,9.72,4.63,19.68,8.07,21.61,4,3.26,19,4.45,18.81-2.46-.25-8.84-2-12.13-3.66-16.31,4.71.58,7.75,2.9,11.05,7.65,4.91,16.94,2.73,28.16,1.54,43.82-8.62,20.2,2.47,25.24,6.21,56.07.92,9.79-63.64,10.58-63.18.64a520.3,520.3,0,0,1,5.12-52.76c18.45,8,30.43-19.76,12-27.72,2.65-15.29-.17-20.73-4.39-27.68C155.86,186.19,158.64,185.24,161.31,184.48Z"/>
    <g class="book">
      <polygon class="paperStackLight" points="167.12 212.51 174.05 214.21 172.93 251.01 166.41 250.24 167.12 212.51"/>
      <g class="bookCover">
        <path d="M166.41,250.24l.71-37.73-9.87.51c-.31,13.88,2.28,24.69-2.81,25.73C151.28,251.11,157,252.85,166.41,250.24Z"/>
        <path d="M134.44,238.74c-1.33-.6-2.39-1.45-2.52-2.72a89.36,89.36,0,0,1,.46-21.74l-8.33.42,0,36,11.1-.11A73.9,73.9,0,0,1,134.44,238.74Z"/>
      </g>
    </g>
    <g class="bennettSleeves">
      <path d="M134.44,238.74c6.12,2.14,16.39,1.59,20,0,1.15,3.06,3.62,7.12,3,8.26-1.05,2.78-18.48,10.85-20.29,8.5C135.3,254.07,134.42,247.49,134.44,238.74Z"/>
      <path d="M214.39,222.37c-5.44,3.22-11,11.28-11.86,19.27.71,1.37,9.18,4.49,14.83,4.77.54-5.89,4.41-14.57,7.75-17.36C220.69,226.92,216.89,224.72,214.39,222.37Z"/>
    </g>
    <path class="cafeteriaHatDark" d="M218.63,114.45c-49.9,7.61-39.46,11.7,4.77,13.62C250.63,116.51,241.86,110.37,218.63,114.45Z"/>
  </g>
  <g class="hairBlack">
    <path d="M359.77,150.23c-17.68-1.44-34.3-25.88-18.34-26.94,6.85-.46,20.77-14.65,45.53-5.55,32.92,12.1,24.38,32.88,28.79,45.22,5.72,16-3.08,36.23-29.88,40.32-16.64,2.54-38.68,1.05-32.86-8.68S364.54,174.44,359.77,150.23Z"/>
    <path d="M151.1,158.91a17.65,17.65,0,0,1-5-9c20.75-24.67,53.47-32.6,77.41-25.61.1,5.82-.36,12.62-7.33,11.14Z"/>
  </g>
  <path class="hairOverlapLine" d="M359.77,150.23c13.75,1.24,15.41-6.46,1.69-10.81"/>
  <path class="cafeteriaHat" d="M146.05,149.91c-2.18.9-12.94-24.88-11.51-26.76,14.1-18.53,58.8-34.81,68.62-35.27,3.44-.16,18.47,24.89,15.47,26.57C202.07,117.79,163.78,134,146.05,149.91Z"/>
  <path class="cafeteriaHatMesh" d="M197.62,88.85c-8-3.71-21.48-5.09-37.42,3.19-14,7.28-21,17-22.09,27.08C152.61,104.7,183.42,92.34,197.62,88.85Z"/>
  <g class="skinEastAsian">
    <path d="M161.31,184.48c.91-12.73-1.44-18.21-9.41-25.57,2.45-1.12,4.2-3.63,5.41-5.26-8.08-14.38,3.86-22.23,6.95-10.72l4,1.14c.05-2.71,2.25-4.63,3.32-7.27,10.9,1.42,18.72-3.73,25.66-13.33,2.29,6.41,10.65,10.08,19.66,12-3.43,10.47,1.06,17.24-3.82,28.77-5.1,12-15.51,20.45-28.46,19.35a9.05,9.05,0,0,0-.12,3.76C178.92,191.24,164.89,189.48,161.31,184.48Z"/>
    <path d="M210.17,231.37c-5-4.72-10.86-1-8.82,6.57-11.49-1.71-14.07,8.25-18.4,10.62-3.63,2-16.61-.07-26.65-.29-3,2.51-11.3,6.44-16,7.43,3,6,6.14,10.35,9.43,11.12,6.37,1.49,29.79-6.37,42.57-3.42,16.91,3.91,23.19-6.52,19.75-18.63A11,11,0,0,0,210.17,231.37Z"/>
    <path d="M265.64,237.22c4.43-3.54,4.55-9.28-1.79-9.48C256.47,227.51,252,235,246,236c-2.23.34-14.66-4.4-22-5.86-2.75,3.15-5.58,9.55-6.47,14.65,3.29,1.74,22,.16,24.24,1.49,8.9,5.34,14.44,11.3,24.2,13.08,8.49,1.55,17.47-7.77,17.9-12.89C284.51,239.66,272.14,243.26,265.64,237.22Z"/>
  </g>
  <g class="lancetPen">
    <path class="penCapLight" d="M251.37,249.14a84,84,0,0,0-7.78,6.53c-3.79,3.62,2.7,8.34,6.91,6.35,4.06-1.92,7.82-3.87,11.36-6C262,251.13,255.92,248.63,251.37,249.14Z"/>
    <path class="lancetPenLight" d="M274.85,235.55a134.94,134.94,0,0,0-23.48,13.59c4.55-.51,10.61,2,10.49,6.92a93.62,93.62,0,0,0,19.54-15.18C285.15,237.09,279.68,233.29,274.85,235.55Z"/>
  </g>
  <g class="clothesOverlapLine">
    <path d="M354.81,232.51c-2.84-2.24,1.11-9.4,3.12-12.78"/>
    <path d="M371.88,242.16c4.29,2.42,7.75-7.29,10.22-12.56"/>
    <path d="M170.88,323c.77-6.52,1.34-13.32,1.68-20.46"/>
  </g>
  <path class="mouthBlob" d="M201.78,167.27c-8.21.92-7.75,13.18-17.93-1.82C188.24,167.16,194.88,169.35,201.78,167.27Z"/>
  <g class="eyeBlob">
    <ellipse cx="348.41" cy="159.71" rx="2.59" ry="5.18" transform="translate(-3.74 8.42) rotate(-1.38)"/>
    <ellipse cx="191.7" cy="143.21" rx="5.03" ry="2.51" transform="translate(28.49 318.19) rotate(-83.75)"/>
    <ellipse cx="208.32" cy="144.32" rx="5.03" ry="2.51" transform="translate(42.19 335.7) rotate(-83.75)"/>
  </g>
  <g class="skinDisplayLine">
    <path d="M345.93,152.93c4.11-.6,9.36,3.11,10,7.52"/>
    <path d="M201.88,150.69a5.23,5.23,0,1,1-2.66,10.08"/>
    <path d="M195.05,138.17c0-4.61-6.73-4.83-11.31.06"/>
    <path d="M211.22,140.1c.28-2.62-3.31-5.28-8.63-1"/>
  </g>
  <g class="skinOverlapLine">
    <line x1="343.82" y1="249.23" x2="340.38" y2="255.13"/>
    <path d="M157.31,153.65a14.18,14.18,0,0,0,5.38,3.72"/>
    <path d="M169.34,178.06a34.34,34.34,0,0,0,15.31,5.5"/>
    <path d="M212.06,244.77a10.21,10.21,0,0,1-3.74,4.06"/>
    <path d="M201.35,237.94c.37,1.43-.41,2.73-2.83,3.87"/>
  </g>
</svg>
