<svg viewBox="0 0 1352.29 1243.48">
    <g class="sketchLightest">
        <path d="M443,820.24A164.33,164.33,0,0,0,423.32,780h0c-6.93,6.18-16.39,9.17-24.31,8.29,3,18,3.81,33.57,8,47,4.17,14,9.13,36,7.32,49.23h0c9.73-2.23,20.68-12.23,23.68-23.23C441.6,849.05,445.94,831.08,443,820.24Z"/>
        <path d="M523,610.34a33.86,33.86,0,0,1,14,5.9c16,10,28,36,16,61-3,5-10,5-14,0q.27,23.65-16,37c-13.7,10.84-33,12-47,2-21-16-20.47-63.52,2-90a40.28,40.28,0,0,1,17.1-12.81l.28,12.86c11.51-.37,20.89,2.3,28.18,7.92Z"/>
        <path d="M122,776.24c8.36-3.39,15-9,16-19,0-14-2-27-14-36-11-7-20.2.09-26.2,9-15-2.05-35.8,5-41.8,15-10,15-5,48,5,68,7,13,24,15.88,40.53,10.35C111,820.42,114,814.4,119,805.24A43.47,43.47,0,0,0,122,776.24Z"/>
        <path d="M1034,692.24c-7.1-5.32-16.77-12.86-26.51-21.16a34.06,34.06,0,0,0-9.49.16,78.41,78.41,0,0,1-23-1c-15.27,9.54-26.81,21.72-34,37,3.67,18.44,12.71,32.4,27,45l26-37a20.38,20.38,0,0,0,2,7c-21.9,22-15.91,47.5-3,56,12,6,25,8,33,4,21-9,37-39,41-54a28.58,28.58,0,0,0-1.14-17.61A335.63,335.63,0,0,1,1034,692.24Z"/>
        <path d="M807.72,217.59c-7.72-.34-12.8,2.74-14.71,8.65-3.25,8.71-6.35,15.33-9,15,.68-7.06-2-15-7-17-15-8-15-34-18-63-3.39,5.65-6.89,12.26-8.45,21a7,7,0,0,1-4.74,5.54c-42.23,12.79-97.08,13.5-127.32,7.77-1,13.66-.66,26,2.18,35.61a38.77,38.77,0,0,1,1,18.65c-10.49,51.67,10.52,85.52,54.38,104.45l-1,11.27c-.51,14.53,6.89,28.21,21.39,37.7,5.87,3.84,13.07,4.29,19.76,2.21,19.89-6.18,59.36-24.81,60.89-45.18l.19,0a270.14,270.14,0,0,1-1.14-35,56.63,56.63,0,0,1,6.78-25.46A97.86,97.86,0,0,0,792,276.24c15,4,26.66-7.81,28-35C821,228,817.17,219.88,807.72,217.59Z"/>
        <path d="M379,289.54c-12.61-10.91-23.35-26.32-33-44.3-7.34,29-24.89,49.56-51,63,4.39-12.82,6.89-24.73,6-35-30.31,32.5-60.41,63.61-86,64-3-12-16-10-21-2-8.53,15.17-2.28,33.27,12.48,46.8a81.38,81.38,0,0,0,8.52,4.2c15.15,22.42,21.17,60,18,88,7,12,37,27,64.74,31.87,15-6.65,36.26-25.87,32-32-3.74-5.87-5.74-9.87-6.74-18.87,12.62-4.74,25.29-13.32,38-25,21-22,26.89-50.35,20-84C377.74,329.23,377.14,310,379,289.54Z"/>
    </g>
    <g class="sketchLighter">
        <path d="M1268,305.24c-47.55,61.42-142.42,209.86-234.3,345.79,7.89,4.44,15,8.67,20.3,12.21,5.68,4.07,12.69,9.51,20,15.51,100.41-134.21,206.3-275.18,247-341.51,15.36-30.31,24.89-63.91,30-100C1317.86,257.58,1289.51,280,1268,305.24Z"/>
        <path d="M447,427.24c-26.94-12.34-47-35.63-63.63-64.42,1.21,15.28-.63,29.29-5.76,41.94,21.07,18.81,43.18,32.12,67.39,34.48C452,439.24,455,431.24,447,427.24Z"/>
        <path d="M958,117.24c47.86-59.22,20.58-73.61-29-32-26,20-95,50-127.5,44.5C766,77.24,675,66.24,626,111.24c-13.66-6.62-27-19.93-38.85-30.89C566,53.24,534.06,68.79,572,119.24c-26-12-24,24,6,58-32.76-8.08-14.7,35.88,15,60-8.62,14.25,8,35,27.17,52.66h0c-2-11.95-1.56-25.29,1.44-40.11a38.77,38.77,0,0,0-1-18.65c-2.84-9.62-3.13-21.95-2.18-35.61a93.17,93.17,0,0,1-10.63-2.6c-3.85-1.22-6.15-5.18-6.51-9.21-10.54-119.85,212.55-131,206.39,33.87h0C817.17,219.88,821,228,820,241.24c-1.34,27.19-13,39-28,35a97.86,97.86,0,0,1-9.17,23.58,54.86,54.86,0,0,0-3.38,7.56C856.58,318.19,955.7,255.84,920,237.24c39.5-12.5,69-65,27.5-58.5C980,150,995.87,104.88,958,117.24Z"/>
        <path d="M200,223.24c10,16,8,55-6,70-31,13-47.36,32.42-52,63-5,46,12,73,48,98,9,6,1,12-7,10-27-10-52-28-65-62C94,334.24,130,224.24,200,223.24Z"/>
        <path d="M316.41,928.09c2,21.44,2.68,44.61,2.6,52.15,7.07,10.56,70,6.58,72.63-6.36,1.12-4.94-.14-40.37-2.85-66.57C368,917.76,342.69,924.48,316.41,928.09Z"/>
        <path d="M213,927.24c-8.54-1.42-13.08-5.78-16.39-11.84,2,24.84,2.87,46.61,1.39,66.84,11,10,76.87,12,76.24-2.35,1.3-16.5.84-30.06-.48-48.58A349.79,349.79,0,0,1,213,927.24Z"/>
        <path d="M495.39,626.29c11.51-.37,20.89,2.3,28.18,7.92h0l-9.56-449-28,1Z"/>
        <path d="M497.45,723.1,508,1218.24c9.61,4.26,19,4.54,28,0L525.23,712.29C518,719.24,506.64,723.42,497.45,723.1Z"/>
        <path d="M91.32,729.87,41,268.24l-20,2L70.09,734.56A58.8,58.8,0,0,1,91.32,729.87Z"/>
        <path d="M101.54,823.59a46,46,0,0,1-21.81,2.17L121,1216.24a25.45,25.45,0,0,0,23-3Z"/>
    </g>
    <g class="sketchMiddle">
        <path d="M993,778.24c-10.07-5.77-21.39-31.12,3-56a20.77,20.77,0,0,1-2-7l-33,47c1,9,18,22,28,22l4.08-6Z"/>
        <path d="M497,3.24c15.09,42.14,27.67,82.64,37,121a181.48,181.48,0,0,0-20,61l-28,1c-3.24-22.88-9.06-43.69-18-62A1234.46,1234.46,0,0,1,497,3.24Z"/>
        <path d="M41,268.24a103.91,103.91,0,0,1,12-56c-10.18-41.75-24.26-84.9-41-129-6.16,46.94-10.17,91.62-11,133,11.59,15.06,19.08,32.57,20,54Z"/>
        <path d="M426,777.24c-9-26.72-18-70.5-27-116-2.7-30.43-7.8-76.59-12-124-2.26-18.5-5-32-21-47-10.46-10.45-23.81-16.27-38.26-19.4.61,1.06,1.27,2.13,2,3.27,4.26,6.13-17,25.35-32,32C270,501.24,240,486.24,233,474.24c.2-1.74.36-3.53.48-5.34l-2,0c-28.7,9.87-51.46,19.38-67.46,47.38-19,34-25,89-41,143-8,25.81-16.76,49.82-27.63,70.72.82.06,1.63.14,2.43.25,6-8.88,15.2-16,26.2-9,12,9,14,22,14,36-1,10-7.64,15.61-16,19a49,49,0,0,1,1.19,9.44l.81.56c29-30,54-65,62-92,1.43,15,5.38,25.62,13,30,28.29,5.84,61,9,98,8,34.37-2.09,61.78-9.69,82-25a95.66,95.66,0,0,1-1,23c-13.71,10.86-33,18-56,21-43,5-86,2.08-123-7-.09-.26-.15-.52-.23-.79-10.25,9-17.8,24.93-20.77,43.79-6.08,45.66-17,101-12,123,10.39,3.36,18.86,2.92,27-3,3.88,10.22,8,18,20,20,62,10,152,3,198-34,8-9,1.35-40-4-58-4.19-13.43-5-29-8-47C408,789.24,419,785.24,426,777.24Z"/>
        <path d="M816.51,664.74l0-1.25c-22.53,10.41-168.3,17-193-6.77v0c-40.79,44.53-52,269.08-54.89,458.15a18.14,18.14,0,0,0,8.48,15.64c45.25,28.42,223.59,37.9,276.95,3.34a21,21,0,0,0,9.47-17.66C863.75,929.59,864.91,711.24,816.51,664.74Z"/>
        <path d="M907,567.24c-31.5-103.5-25-188-130-207-1.53,20.37-41,39-60.89,45.18-6.69,2.08-13.89,1.63-19.76-2.21-14.92-9.77-22.35-24-21.35-39-73.39,15.43-81.74,122.8-99,206-13.53,13.3-30.71,27.09-49.93,40.82A32.45,32.45,0,0,1,537,616.24c13.1,8.2,23.51,27.12,20.26,47.44h0c21.25-2.77,45.21-11.55,65.74-24.63v-4.82c20.77,17.74,152.33,22.54,193,5.42v-.42c19-6,10-43,17.5-60.5l10.5,27.5c16,29,54,69,96.5,105.5l1.21-1.27c-.26-1.06-.5-2.13-.71-3.23,7.19-15.28,18.73-27.46,34-37,1.36.29,2.81.52,4.29.72l.21-.22C955,633.24,932.51,600.74,907,567.24Z"/>
    </g>
    <g class="sketchDarker">
        <path d="M1105,706.24l-13,17c-22.72-10.19-45.13-22.31-58-31-12-9-31.36-24.33-46-39l14-19c19,9.51,40,21,52,29C1068,673.24,1090,691.53,1105,706.24Z"/>
        <path d="M989,784.24c-10,0-27-13-28-22l2-2.8a26,26,0,1,0,28.45,21.28Z"/>
        <path d="M733.21,1156.05c-6.78,16.8-12.52,32.43-11.32,46,1.31,15,14.27,30.23,29,33.23,29.13,5.93,57.13,4.93,83.1-4.42a31.14,31.14,0,0,0,20.69-27.74c1.33-20.49-5.95-41.7-16.35-61.58C812.54,1151.35,773.62,1155.8,733.21,1156.05Z"/>
        <path d="M697,1155.18c-39.87-2.13-77.74-8-102.29-16.63-21.55,13.94-41.64,26.87-48.09,44.45-5.58,15.24-2.21,31.47,11.14,39.18,34.2,19.75,79.28,12.06,125.91-11.93,14.21-7.31,17.06-18.14,16.78-29.9A131.73,131.73,0,0,0,697,1155.18Z"/>
        <path d="M461,1186.24c-8-22-24.21-31.62-46-37-2.63-64.43-6-139-9-160-1.47-8.78-7-13.16-14.37-15.35C389,986.82,326.08,990.8,319,980.24c0-1.25,0-2.94,0-5-10.48,4.88-16.61,12.57-17,24-.88,29-1.81,97.08-4.69,166.25-4.54-38.42-3.23-162.06-9.31-173.25a28.57,28.57,0,0,0-13.76-12.35c.63,14.33-65.24,12.35-76.24,2.35.13-1.86.24-3.75.34-5.65-12.29,5.35-18.14,14.66-16.34,28.65.38,74.61-1,146-1,195,1,12,4,19.1,14,24,35.21,14.4,69.71,24.28,101,14,15.76-5,23.34-16.4,24.76-32.57l1.24.57c46,19.8,90.73,35.26,125,16C459.53,1215.35,466,1197.24,461,1186.24Z"/>
        <path d="M379,707.24a95.66,95.66,0,0,1-1,23c-13.71,10.86-33,18-56,21-43,5-86,2.08-123-7-2.24-6.83-2.27-14.17,0-20,28.29,5.84,61,9,98,8C331.38,730.15,358.79,722.55,379,707.24Z"/>
        <path d="M817,639.24v24c-20.9,10.63-170.62,17.56-194-7v-22C644,652.13,777.51,656.86,817,639.24Z"/>
    </g>
    <g class="sketchDarkest">
        <path d="M807.75,217.6c6.16-164.86-216.93-153.73-206.39-33.88.36,4,2.66,8,6.51,9.21,26.14,8.31,90.14,9.31,138-5.17a7,7,0,0,0,4.74-5.54c1.56-8.72,5.06-15.33,8.45-21,3,29,3,55,18,63,5,2,7.68,9.94,7,17,2.65.33,5.75-6.29,9-15C794.92,220.32,800,217.24,807.75,217.6Z"/>
        <path d="M801.51,129.74a67,67,0,0,0,18.66,0h0C787,53.24,685,53.24,638.64,101.45h0C689.33,68.29,768.87,81.48,801.51,129.74Z"/>
        <path d="M414,211.24c-16-4-34-26-58-39,2.21-16.28,17.29-26.73,35-36-27-4-43,0-61,17-9.94-40.63-32.71-68.52-72-80,21.62,17.82,32.89,44.38,37,77-75.86-7.77-160.33,35.34-160.29,115.69,15.43-25,37.72-42.29,65.29-42.69,10,16,8,55-6,70-22,9.21-36.56,21.64-44.86,39,16.19,52.7,44,41.76,40.86,98,28-6,30-34,19-46-16.55-13.73-24-33-15-49,5-8,18-10,21,2,25.59-.39,55.69-31.5,86-64,.89,10.27-1.61,22.18-6,35,26.11-13.44,43.66-34,51-63,14,26,30.15,46.57,51,56,12.22-30.31,12.37-56.08-11-73,9.06,1.37,16.67.5,23-2.4C414.89,223.13,420.87,213,414,211.24Z"/>
        <path d="M820.17,307.09h0a150.14,150.14,0,0,1-40.71.29,58,58,0,0,0-3.4,17.9,270.14,270.14,0,0,0,1.14,35l-.19,0a151.77,151.77,0,0,1,36.76,11.17C827,349.36,826.37,327.48,820.17,307.09Z"/>
    </g>
    <g class="sketchLine">
        <path d="M617,478.24c-4.77,47.81-11.49,105.82-10,121,1.2,14.46,5.83,26.6,16,35"/>
        <path d="M833,578.24c-8.51-22.5-16.31-58.13-24-96"/>
        <path d="M193,907.24c-4.48-20.32-3.43-56.12-2-93"/>
        <path d="M186,694.24c9-23.21,18-70.38,27-119"/>
        <path d="M379,707.24c10.2-7.91,13.94-20.69,13-37-3.6-30.36-13.09-81.92-23-135"/>
        <path d="M378,730.24c11.92,10.25,17.44,32.31,21,58"/>
        <path d="M415,1149.24c-18-4-38-3-53,4"/>
        <path d="M907,567.24c-10,.89-21,6-28,12"/>
        <path d="M576,570.24c6-1,17,2,22,8"/>
        <path d="M123,659.24c11.29-7.15,35.25-.89,39,9"/>
        <path d="M322,455.24c-34,7-61-13-78-35"/>
        <path d="M676,354.24c28.78,11.13,61-3,82-26"/>
        <path d="M214,386.24c3.7,1.47,7,.63,10-2"/>
        <path d="M122,776.24c-15,5-29.2-38-24.2-46"/>
        <path d="M999,695.24a40.47,40.47,0,0,0-5,20"/>
        <path d="M996,722.24c3.6,6.81,9,11,16,11,10-1,16-11,18-20a73.42,73.42,0,0,0,1.84-22.62"/>
        <line x1="1054.01" y1="663.24" x2="1351.01" y2="237.24"/>
        <path d="M337,367.24c8,20-15,26-33,20"/>
        <path d="M693,293.24c-16,9-34,3-33-12"/>
        <path d="M700,320.24a67,67,0,0,1-26,1"/>
        <path d="M335,412.24a161.55,161.55,0,0,0-30,3"/>
        <path d="M320.77,1205.67c2.48-37.35-45.74-67.15-99.76-25.43"/>
        <path d="M523.57,634.21c10.72,7.58,15.66,21.23,15.44,43"/>
    </g>
    <g class="eyeBlob">
        <ellipse cx="713.01" cy="241.24" rx="11" ry="16"/>
        <ellipse cx="650.01" cy="242.24" rx="11" ry="16"/>
        <ellipse cx="347.01" cy="337.24" rx="11" ry="16"/>
        <ellipse cx="285.01" cy="341.24" rx="11" ry="16"/>
    </g>
    <g class="star">
        <path d="M899,125.24c1.8,17.35,5.62,33.66,16,41-11.21,1.95-14.69,20.92-17,39-1.15-18.27-3.72-34.78-16-40C894,159.24,896.29,143,899,125.24Z"/>
        <path d="M653,407.24c1.8,17.35,5,34,16,40-11.21,1.95-14.69,21.92-17,40-1.15-18.27-5-38-16-41C648,440.24,650.29,425,653,407.24Z"/>
        <path d="M806,829.24c1.8-17.34,5-34,16-40-11.21-1.94-14.69-21.91-17-40-1.15,18.28-5,38-16,41C801,796.24,803.29,811.45,806,829.24Z"/>
        <path d="M624,899.24c-1.81-17.34-5-34-16-40,10-3,14.68-21.91,17-40,1.15,18.28,5,37,16,41C629,866.24,626.72,881.45,624,899.24Z"/>
        <path d="M337.05,568.24c-1.64-15.82-4.56-31-14.6-36.5,9.13-2.73,13.4-20,15.51-36.5,1.05,16.68,4.57,33.77,14.6,37.42C341.61,538.13,339.53,552,337.05,568.24Z"/>
        <path d="M222.15,721.24c-1.28-12.35-3.56-24.22-11.4-28.5,7.13-2.13,10.47-15.61,12.11-28.5.82,13,3.57,26.37,11.4,29.22C225.71,697.73,224.08,708.56,222.15,721.24Z"/>
        <path d="M781.19,547.24c-1.12-10.84-3.12-21.25-10-25,6.25-1.87,9.18-13.69,10.63-25,.72,11.42,3.12,23.13,10,25.63C784.32,526.62,782.89,536.12,781.19,547.24Z"/>
        <path d="M374.19,1054.24c-1.12-10.84-3.12-21.25-10-25,6.25-1.87,9.18-13.69,10.63-25,.72,11.42,3.12,23.13,10,25.63C377.32,1033.62,375.89,1043.12,374.19,1054.24Z"/>
        <path d="M593.19,1212.24c-1.12-10.84-3.12-21.25-10-25,6.25-1.87,9.18-13.69,10.63-25,.72,11.42,3.12,23.13,10,25.63C596.32,1191.62,594.89,1201.12,593.19,1212.24Z"/>
        <path d="M366.15,750.24c-1.28,12.36-3.56,24.23-11.4,28.5,7.13,2.14,10.47,15.62,12.11,28.5.82-13,3.57-26.36,11.4-29.21C369.71,773.76,368.08,762.93,366.15,750.24Z"/>
        <path d="M1014.15,722.24c-1.28,12.36-3.56,24.23-11.4,28.5,7.13,2.14,10.47,15.62,12.11,28.5.82-13,3.57-26.36,11.4-29.21C1017.71,745.76,1016.08,734.93,1014.15,722.24Z"/>
        <path d="M171.15,292.24c-1.28-12.35-3.56-24.22-11.4-28.5,7.13-2.13,10.47-15.61,12.11-28.5.82,13,3.57,26.37,11.4,29.22C174.71,268.73,173.08,279.56,171.15,292.24Z"/>
        <path d="M808,1137.24c1.65-15.82,4.57-31,14.6-36.5-9.12-2.73-13.4-20-15.51-36.5-1,16.68-4.56,33.77-14.6,37.42C803.4,1107.13,805.49,1121,808,1137.24Z"/>
        <path d="M252.05,1243.24c-1.64-15.82-4.56-31-14.6-36.5,9.13-2.73,13.4-20,15.51-36.5,1,16.68,4.57,33.77,14.6,37.42C256.61,1213.13,254.53,1227,252.05,1243.24Z"/>
        <path d="M326.05,171.24c-1.64,15.83-4.56,31-14.6,36.5,9.13,2.74,13.4,20,15.51,36.5,1.05-16.67,4.57-33.76,14.6-37.41C330.61,201.36,328.53,187.49,326.05,171.24Z"/>
        <path d="M1267,397.24c-1.69-16.26-4.69-31.87-15-37.5,9.37-2.81,13.77-20.54,15.94-37.5,1.07,17.13,4.68,34.69,15,38.44C1271.73,366.31,1269.58,380.56,1267,397.24Z"/>
    </g>
</svg>
