<svg viewBox="0 0 2059.45 1257.21">
  <g class="sketchLightest">
    <path d="M1334.28,159.93c-6.42,11.44-13.73,23.14,0,28.51,2.54,10.74,5.78,20.9,13.27,27.63,8.61,5.63,17.59,9,27.06,9.55,10.82-.13,20.89-6,30.77-13.26,24.08,11.72,27-3.17,27.06-21.76,23.33,1.36,18.21-18.22,13.27-37.67,8.93-9.73,13.85-22,15.92-36.08-16.24-8.35-30.5-4.8-44,3.12a81.65,81.65,0,0,0-35-12c0-10.54-7.82-20.36-20.17-28.77-13.89,11.24-19.25,26.07-19.63,43C1328.18,135.64,1318.75,148.73,1334.28,159.93Z"/>
    <path d="M1419.73,216.51c-3.66,0-8.35-1.23-14.35-4.15-9.88,7.3-20,13.13-30.77,13.26-9.47-.52-18.45-3.92-27.06-9.55-7.49-6.73-10.73-16.89-13.27-27.63a17,17,0,0,1-4-2.15,89,89,0,0,0-33.46,41.88c-8,3.24-12.92,9.73-14.69,19.38a.62.62,0,0,1,.22.15c39.14,15.18,81.49,30.52,124,45l.11,0a18.9,18.9,0,0,0,12-8.11,47.38,47.38,0,0,0,3.22-22.84c-.14-4.79-1.07-9.94,0-16.65C1424,236.79,1422.51,226.12,1419.73,216.51Z"/>
    <path d="M346.29,1060.72A895.7,895.7,0,0,0,550.61,941c8-15.65,12.89-30.69,8-46.84-6-16.5-38.91-24.52-53.41-13.07-15,11.32-14.8,26.77-15,45-16.93-9.81-21-42.94-50.14-51.32,5.12-32,35.41-10.87,42.81-53.31,12.09-4.44,15.94-17,9.7-39.58-4.85-14.74-12.95-25.51-25.85-30.7-25.76-10.35-18.7-36.52-57.25-38.46-1.43-20.44-7-35.23-20.16-39.51-20.18,3.77-32.61,21.57-42.74,43.54a162.54,162.54,0,0,0-41.13,8.87c-15.13-13.69-30.37-23.9-46-22.58-11.66,16.6-6.2,39.17,7.26,64.52-9.55,28-17.19,55.13,13.7,66.12-11.09,22.83-13,42,13.71,50-17.1,34.12-33.49,83.77-39.27,127.41C284.32,1020.91,315.12,1036.93,346.29,1060.72Z"/>
    <path d="M1057.38,534.53c.64-46.24,16.76-91.78,45-124.44h0c-29.41-9.22-58.37-21.27-82.32-36.07,2.34-8.61,4.69-18.2,7.11-28.46-66.35-26.17-117.77,56-102.08,115.12,9.37,40.23,56.28,71.38,132.79,94.18C1057.92,554.86,1057.3,540.87,1057.38,534.53Z"/>
    <path d="M1660.31,559.15l-9.92,21.67c-57,1.78-158.72-25.59-255.12-56.26h0c1.56,53.29-13.67,105.5-45.82,140.72,93.91,37.25,269.12,82.09,327.4,37.43C1707.37,683.36,1746.23,586.23,1660.31,559.15Z"/>
    <path d="M1214.59,184.3c-2.48-12-2.7-23.6,0-34.61-10.76,9-19.69,18.3-23.94,28.14-2.44,1-12.12-9.06-13.26-15.53-4.61,6.4-8.07,25-6.32,38.26,11,5.21,22.86,10.6,35.53,16.12C1212.86,210.57,1216.64,199.09,1214.59,184.3Z"/>
    <path d="M1590.39,271.57c-5.24,13.61-11.62,25.48-20.81,33-6.3-5.93-9-13.66-9.91-22.29-11.83,12-15.81,33.57-11.17,55.45,14.89,4.31,29.31,8.34,43.1,12C1611.47,322.3,1591.12,295.4,1590.39,271.57Z"/>
  </g>
  <g class="sketchLighter">
    <polygon points="2019.31 757.05 1953.31 1024.05 1660.31 890.55 1718.31 692.05 2019.31 757.05"/>
    <polygon points="866.31 434.05 835.31 571.05 656.31 533.05 696.31 363.05 866.31 434.05"/>
    <path d="M1696.81,765.63l-97.45-29.78c-14.81,4.66-23.7,32.18-12.7,43.61l94.7,39Z"/>
    <path d="M962,523.27l-82.43-30.91c-13.22,5-17.91,26.36-10.52,36.25l75,25.1Q953.5,538.76,962,523.27Z"/>
    <path d="M1212.43,362.36c-94-5.11-160.71,85.25-154.51,192.5,6,104.73,83.61,146.1,154.51,146.84,94.88,1,159.27-69.31,159.06-167.17C1371.28,439.44,1304.09,367.34,1212.43,362.36Zm-4,297.23c-56.19.31-114.12-48.12-112.91-125.31,1.1-69.75,45-131.72,113.91-128.31,65.16,3.22,112.83,46.14,112.92,128.31C1322.42,604,1276.19,659.22,1208.43,659.59Z"/>
    <path d="M1754.62,363.05c-3.63-6.22-10-12.87-18.52-19.83q-.07,12.52-.95,25.47c-13.79,42.93-662.35-175.43-639.89-223.3q7.15-9.94,14.82-19.16a151,151,0,0,0-21.21,1.24c-28.95,16.18-74.07,72.36-60.56,120,56.8,71,594.54,266.06,705.88,238.37C1755.47,474.82,1764.83,408.41,1754.62,363.05Z"/>
    <path d="M1232.05,179.44c-6.35-29.19-1-56.49,16.5-81.83-27.06,9.54-51.37,21.79-64.37,45.18-.28-8-.58-17.12,0-26.74-8.41,14.88-19.67,19.91-25,28.34-10.25,16.16-10.23,34.08-7,46.88,5.93,3,12.25,6.12,18.9,9.29-1.75-13.25,1.71-31.86,6.32-38.26,1.14,6.47,10.82,16.58,13.26,15.53,4.25-9.84,13.18-19.1,23.94-28.14-2.7,11-2.48,22.59,0,34.61,2.05,14.79-1.73,26.26-8,32.38q7.76,3.36,15.86,6.8c24.1-11.27,30.29-41.68,30.29-62.47Z"/>
    <path d="M1641,286.38c-8.13,9.12-16.8,16.69-27,19.73,22.51-44.62,8.79-86.06-24.12-117.67,2.56,29-2.52,53.59-20.46,70.89.21-13.36-.85-25.67-3.66-36.54-6,21.36-27.35,31.27-35.08,53.35-6.78,18.59-7.57,37-2.09,55.2v.54q10.1,3,20,5.86c-4.64-21.87-.66-43.4,11.17-55.44.9,8.63,3.61,16.36,9.91,22.29,9.19-7.54,15.57-19.41,20.81-33,.73,23.83,21.08,50.73,1.21,78.21q13.68,3.66,26.48,6.86C1635.16,338.45,1644.76,311.16,1641,286.38Z"/>
  </g>
  <g class="sketchMiddle">
    <polygon points="2019.31 757.05 2058.31 783.05 2000.31 1019.05 1953.31 1024.05 2019.31 757.05"/>
    <path d="M869,528.61c-7.39-9.89-2.7-31.28,10.52-36.25l5.49,2.05,12.29-50.36-31-10-31,137h31L876.09,531Z"/>
    <path d="M796,863.7C774.88,642.62,544.24,504.77,357,555.32c-61.46,20-118,50-170.26,88.87C330,538.21,590,553.9,709.28,767.33c-72.92,121.63-212.13,230.13-363,293.39C178.47,932.63,21.52,1029.53,18.63,1110c32.24,125.64,174.89,163.74,305.17,139.2,186-35,363-146.7,437.94-261.27C790.66,952.57,800.81,914,796,863.7Z"/>
    <path d="M1599.36,735.85l7.94,2.43c.82-5.76,1.71-11.46,2.65-17.14-78.16,3.09-191.37-28.44-260.5-55.86-26.62,29.16-64.84,46.67-114.74,43.53-21.3-1.35-44.07-4.09-65.38-12.71-56.2-14.42-106.58-57.65-111.41-141.24C1019.77,543.49,989,530,966.54,514.43a535.61,535.61,0,0,1-36.87,60.85c113,105.36,515.76,222.46,670.86,229.86q.6-9.74,1.41-19.38l-15.28-6.3C1575.66,768,1584.55,740.51,1599.36,735.85Z"/>
    <path d="M1020.1,374c23.95,14.8,52.91,26.85,82.32,36.07h0c-28.28,32.66-44.4,78.2-45,124.44,0,2.77.06,7,.18,10.9-1.89-103.06,63.65-188,154.87-183.07a171.52,171.52,0,0,1,65.18,16.44h0l0,0c65.85,14.74,115.05,55.27,117.69,145.79,96.18,30.6,197.71,57.92,254.73,56.27,5.56-12,28.49-62.57,60.15-92.28l-.09,0c-140.09,2.2-570.4-153.12-667.14-227.45h0C1039.26,293.75,1029.32,340.56,1020.1,374Z"/>
    <path d="M1209.43,406c-68.9-3.41-112.81,58.56-113.91,128.31-1,61.53,35.66,104.8,79,119.65-32.28-21.25-56.27-60.58-55.48-112.4C1120,477.19,1150.45,416.52,1209.43,406Z"/>
    <path d="M1277.58,378.77l0,0c56.62,27.18,93.72,85.11,93.88,155.73.21,97.86-64.18,168.15-159.06,167.17A180.72,180.72,0,0,1,1169,696c21.42,8.74,44.33,11.51,65.75,12.86,110.19,7,163.41-86.85,160.56-184.25C1392.63,434,1343.43,393.51,1277.58,378.77Z"/>
  </g>
  <g class="sketchDarker">
    <path d="M1016.3,632.91c84.6,71.8,169.11,191.68,150.89,333.13C1239.62,858.38,1348,786.55,1510.5,793.88,1365.11,768.07,1148.67,702.73,1016.3,632.91Z"/>
    <path d="M1209.43,406c-59,10.55-89.4,71.22-90.37,135.56-.79,51.82,23.2,91.15,55.48,112.4-1.22-.42-2.44-.87-3.65-1.33a103.52,103.52,0,0,0,37.54,7c67.76-.37,114-55.55,113.92-125.31C1322.26,452.11,1274.59,409.19,1209.43,406Z"/>
    <path d="M250.54,1009.71C158,887.83,152.46,654.46,312.37,588.64A350.62,350.62,0,0,0,253.26,607c-86.55,61.11-105,158.6-96.5,283.51C93.86,943-7.49,1024.22,18.63,1110,21,1045.2,123.19,969.75,250.54,1009.71Z"/>
    <path d="M1152.17,191.27c-3.23-12.8-3.25-30.72,7-46.88-36.62-6.81-60.47-7.38-63.91,1-4.52,9.63,18.06,26.14,57.14,46Z"/>
    <path d="M1247.57,165.62q-9.18-2.53-18-4.88a112.41,112.41,0,0,0,2.48,18.7Z"/>
    <path d="M1282.14,247.55c1.77-9.65,6.64-16.14,14.69-19.38a88.83,88.83,0,0,1,29.57-39.1c-25.67-8.09-50.53-15.53-73.82-22-1.13,20.26-8.25,46.23-30.12,56.46a1.33,1.33,0,0,0-.19,0c18.78,7.94,39,16.08,60.09,24.27A.62.62,0,0,0,1282.14,247.55Z"/>
    <path d="M1618.17,296.72c-1.23,3.11-2.62,6.24-4.21,9.39a42.35,42.35,0,0,0,12-5.94Z"/>
    <path d="M1641.2,307a89.92,89.92,0,0,1-23.06,49.56c66.37,16.55,113,23.1,117,12.11C1738.92,357.25,1700.67,334.24,1641.2,307Z"/>
    <path d="M1528.55,331.34c-5.48-18.21-4.69-36.61,2.09-55.2a54.29,54.29,0,0,1,6.57-12.76c-37.07-14.5-76.7-29.11-116.44-43,2.07,8.52,3,17.49,1,24.68-1.07,6.71-.14,11.86,0,16.65a47.38,47.38,0,0,1-3.22,22.84,18.9,18.9,0,0,1-12,8.11l-.11,0c41.45,14.13,83.09,27.47,122.15,39.11Z"/>
  </g>
  <path class="sketchDarkest" d="M1365.46,208.63a18.57,18.57,0,0,0,13.28-4.55,28.08,28.08,0,0,0-19.15-7.21A16.61,16.61,0,0,0,1365.46,208.63Z"/>
  <g class="eyeBlob">
    <path d="M1357.14,178.68c4.42,1.1,8.46.13,9-2.15s-2.56-5-7-6.13-8.46-.13-9,2.15S1352.72,177.58,1357.14,178.68Z"/>
    <path d="M1393.76,190.2c4.34,1.37,8.44.66,9.15-1.58s-2.24-5.18-6.58-6.56-8.44-.66-9.15,1.58S1389.41,188.83,1393.76,190.2Z"/>
  </g>
  <g class="sketchLine">
    <path d="M1020.1,374c-31.56-29.71-69.39-13.78-86.17,15.91"/>
    <path d="M1036.48,381.61c-44.79,18.72-63.94,91.31-52.41,143.51"/>
    <path d="M1483.65,550.37a1095.72,1095.72,0,0,0-38.23,145.74"/>
    <path d="M1587.11,575.28c6.54,32.41-8,110.55-30.87,144.52"/>
    <path d="M1650.39,580.82c50.28,3,43.56,88.1,0,134.94"/>
    <path d="M1286.56,13.75c2.66,9.63-.13,19.06-8,28.3q-10.24,12.18-12.17,25.55"/>
    <path d="M1573.55,52.09c-8.51,14.7-14.69,29-15.74,42.28-1.35,12.12-10.09,23.64-24.94,34.68-10.72,6.42-18.48,18.66-24.94,33.46"/>
    <path d="M1558.33,90.06c9.49,10.91,19.24,20.57,29.5,27.81,10,7.65,13.65,19.83,15.18,31.82"/>
    <path d="M1547.42,115.86a82.7,82.7,0,0,0-35.89-10.21,114.37,114.37,0,0,1-25.56-2.22"/>
    <path d="M1286,29.72c5,7,10.43,8.81,18.14,14.82,7.24,5.41,8.55,10.37,10,19.63"/>
    <path d="M1735.15,368.69c25.1-371.3-448.19-489.79-639.89-223.3"/>
    <path d="M186.74,644.19C111.88,690-53,929.75,18.63,1110"/>
    <line x1="1784.01" y1="706.24" x2="1719.96" y2="917.73"/>
    <line x1="1858.93" y1="722.42" x2="1791.05" y2="950.12"/>
    <line x1="1996.34" y1="849.97" x2="1699.32" y2="757.05"/>
    <line x1="1974.74" y1="937.36" x2="1679.47" y2="824.98"/>
    <line x1="1934.81" y1="738.8" x2="1866.83" y2="984.65"/>
    <line x1="855.34" y1="482.52" x2="682.45" y2="421.98"/>
    <line x1="845.38" y1="526.56" x2="669.64" y2="476.42"/>
    <line x1="779.39" y1="397.75" x2="743.63" y2="551.59"/>
    <line x1="738.59" y1="380.71" x2="700.11" y2="542.35"/>
    <line x1="824.33" y1="416.52" x2="790.42" y2="561.52"/>
    <path d="M490.14,926.09c9.6,4.61,16.94,11.27,20.77,18.43"/>
    <path d="M431.13,988.92c6.72,6.63,16.27,11.34,28,14.57"/>
    <path d="M1296.83,228.17c11.55-2.55,25.2,2.67,30.44,14.05"/>
    <path d="M1371.49,280c-.89-8.87,2.24-15.68,9.23-18.75,10.82-4.78,19.66-2.07,28.92,5"/>
    <path d="M1362.83,88.71c6.29,6.63,10.46,13.42,11.58,22.87"/>
    <path d="M1452,119.6c-10.9.48-20.36,2.81-28.08,8"/>
  </g>
</svg>
