<svg viewBox="0 0 619.33 378.56">
  <g class="sketchLightest">
    <path d="M401,48.68c-1.92,3.43-4.11,6.94,0,8.55.77,3.22,1.74,6.27,4,8.29a16.48,16.48,0,0,0,8.12,2.87c3.25,0,6.27-1.79,9.23-4,7.23,3.51,8.11-.95,8.12-6.53,7,.41,5.46-5.47,4-11.3a19.8,19.8,0,0,0,4.78-10.82c-4.87-2.51-9.15-1.44-13.21.93a24.5,24.5,0,0,0-10.51-3.6c0-3.17-2.35-6.11-6.05-8.64-4.17,3.38-5.77,7.83-5.89,12.9C399.15,41.39,396.32,45.32,401,48.68Z"/>
    <path d="M426.62,65.65a10.17,10.17,0,0,1-4.31-1.24c-3,2.19-6,3.94-9.23,4A16.48,16.48,0,0,1,405,65.52c-2.24-2-3.21-5.07-4-8.29a5.08,5.08,0,0,1-1.19-.64,26.67,26.67,0,0,0-10,12.56A7.14,7.14,0,0,0,385.34,75a.18.18,0,0,1,.07.05c11.74,4.55,24.45,9.16,37.21,13.51h0a5.68,5.68,0,0,0,3.61-2.44,14.24,14.24,0,0,0,1-6.85,23,23,0,0,1,0-5C427.91,71.74,427.45,68.54,426.62,65.65Z"/>
    <path d="M104.59,318.92A268.7,268.7,0,0,0,165.88,283c2.41-4.69,3.87-9.2,2.4-14.05-1.79-4.95-11.68-7.35-16-3.92-4.51,3.4-4.44,8-4.51,13.51-5.08-2.95-6.31-12.89-15-15.4,1.54-9.6,10.62-3.26,12.84-16,3.63-1.33,4.79-5.11,2.91-11.88-1.45-4.42-3.88-7.65-7.75-9.2-7.73-3.11-5.61-11-17.18-11.54-.43-6.14-2.09-10.57-6-11.86-6.06,1.13-9.79,6.47-12.83,13.07a48.46,48.46,0,0,0-12.34,2.66c-4.54-4.11-9.11-7.17-13.78-6.78-3.5,5-1.86,11.75,2.17,19.36-2.86,8.39-5.15,16.54,4.12,19.84-3.33,6.84-3.9,12.6,4.11,15A131,131,0,0,0,77.15,304,94.54,94.54,0,0,1,104.59,318.92Z"/>
    <path d="M317.91,161.06c.2-13.87,5-27.54,13.52-37.33h0a111.15,111.15,0,0,1-24.7-10.82c.7-2.59,1.41-5.47,2.13-8.54-19.9-7.85-35.33,16.8-30.62,34.53,2.81,12.07,16.88,21.42,39.84,28.26C318.08,167.16,317.89,163,317.91,161.06Z"/>
    <path d="M498.79,168.45l-3,6.5c-17.09.53-47.62-7.68-76.54-16.88h0c.47,16-4.1,31.65-13.75,42.22,28.18,11.17,80.74,24.62,98.22,11.22C512.91,205.71,524.57,176.57,498.79,168.45Z"/>
    <path d="M365.08,56a23.3,23.3,0,0,1,0-10.38c-3.23,2.71-5.91,5.49-7.18,8.44-.74.31-3.64-2.72-4-4.66-1.39,1.92-2.42,7.5-1.9,11.48,3.29,1.56,6.86,3.18,10.66,4.83C364.56,63.87,365.69,60.43,365.08,56Z"/>
    <path d="M477.82,82.17c-1.58,4.08-3.49,7.65-6.25,9.91a10.21,10.21,0,0,1-3-6.69c-3.55,3.61-4.74,10.07-3.35,16.63,4.47,1.3,8.79,2.51,12.93,3.61C484.14,97.39,478,89.32,477.82,82.17Z"/>
  </g>
  <g class="sketchLighter">
    <polygon points="606.49 227.82 586.69 307.92 498.79 267.87 516.19 208.32 606.49 227.82"/>
    <polygon points="260.59 130.92 251.29 172.02 197.59 160.62 209.59 109.62 260.59 130.92"/>
    <path d="M509.74,230.39l-29.23-8.93c-4.45,1.39-7.11,9.65-3.81,13.08l28.41,11.71Z"/>
    <path d="M289.29,157.68l-24.73-9.27c-4,1.49-5.37,7.91-3.16,10.87l22.51,7.53Q286.75,162.32,289.29,157.68Z"/>
    <path d="M364.43,109.41c-28.2-1.53-48.22,25.57-46.35,57.75,1.81,31.42,25.08,43.83,46.35,44.05,28.46.29,47.78-20.79,47.72-50.15C412.08,132.53,391.93,110.9,364.43,109.41Zm-1.2,89.17c-16.86.09-34.24-14.44-33.87-37.6.33-20.92,13.5-39.51,34.17-38.49,19.55,1,33.85,13.84,33.87,38.49C397.43,181.91,383.56,198.47,363.23,198.58Z"/>
    <path d="M527.09,109.62a23.66,23.66,0,0,0-5.56-6q0,3.77-.28,7.65c-4.14,12.88-198.71-52.63-192-67,1.43-2,2.91-3.9,4.45-5.75a46.32,46.32,0,0,0-6.37.37c-8.68,4.85-22.22,21.71-18.17,36,17,21.29,178.36,79.82,211.77,71.52C527.34,143.15,530.15,123.22,527.09,109.62Z"/>
    <path d="M370.32,54.53A30.17,30.17,0,0,1,375.26,30c-8.11,2.87-15.41,6.54-19.3,13.56a79.3,79.3,0,0,1,0-8c-2.53,4.46-5.91,6-7.51,8.5a18.12,18.12,0,0,0-2.1,14.06Q349,59.45,352,60.87c-.52-4,.51-9.56,1.9-11.48.34,1.94,3.24,5,4,4.66,1.27-2.95,4-5.73,7.18-8.44a23.3,23.3,0,0,0,0,10.38c.61,4.44-.52,7.88-2.4,9.71q2.32,1,4.76,2c7.23-3.38,9.09-12.5,9.09-18.74Z"/>
    <path d="M493,86.61c-2.44,2.74-5,5-8.11,5.92,6.75-13.38,2.64-25.81-7.24-35.3.77,8.69-.75,16.08-6.14,21.27a41.37,41.37,0,0,0-1.09-11c-1.82,6.4-8.21,9.38-10.53,16a25.68,25.68,0,0,0-.63,16.56v.16c2,.61,4,1.19,6,1.76-1.39-6.56-.2-13,3.35-16.63a10.21,10.21,0,0,0,3,6.69c2.76-2.26,4.67-5.83,6.25-9.91.22,7.15,6.32,15.22.36,23.46,2.74.74,5.39,1.42,7.94,2.06C491.25,102.23,494.13,94.05,493,86.61Z"/>
  </g>
  <g class="sketchMiddle">
    <polygon points="606.49 227.82 618.19 235.62 600.79 306.42 586.69 307.92 606.49 227.82"/>
    <path d="M261.4,159.28c-2.21-3-.81-9.38,3.16-10.87l1.65.61,3.68-15.1-9.3-3-9.3,41.1h9.3l2.94-12Z"/>
    <path d="M239.5,259.81C233.17,193.48,164,152.13,107.8,167.3A176.74,176.74,0,0,0,56.72,194c43-31.8,121-27.09,156.76,36.94-21.87,36.49-63.63,69-108.89,88-50.35-38.43-97.43-9.36-98.3,14.77,9.67,37.69,52.46,49.13,91.55,41.76,55.8-10.51,108.9-44,131.38-78.38C237.9,286.47,240.94,274.88,239.5,259.81Z"/>
    <path d="M480.51,221.46l2.38.72c.25-1.72.51-3.44.8-5.14-23.45.93-57.41-8.53-78.16-16.75-8,8.74-19.45,14-34.42,13.05-6.39-.4-13.22-1.22-19.61-3.81-16.86-4.33-32-17.29-33.42-42.37-11.45-3.41-20.68-7.45-27.42-12.13a160.52,160.52,0,0,1-11.06,18.25c33.9,31.61,154.73,66.74,201.26,69,.12-2,.26-3.88.42-5.81l-4.58-1.89C473.4,231.11,476.06,222.85,480.51,221.46Z"/>
    <path d="M306.73,112.91a111.15,111.15,0,0,0,24.7,10.82h0c-8.49,9.79-13.32,23.46-13.52,37.33,0,.83,0,2.1.06,3.27-.57-30.92,19.09-56.41,46.46-54.92A51.25,51.25,0,0,1,384,114.34h0c19.76,4.42,34.52,16.58,35.31,43.74,28.86,9.18,59.31,17.37,76.42,16.88,1.67-3.59,8.55-18.77,18.05-27.68h0c-42,.65-171.12-45.94-200.14-68.24h0A249.39,249.39,0,0,1,306.73,112.91Z"/>
    <path d="M363.53,122.49c-20.67-1-33.84,17.57-34.17,38.49-.29,18.46,10.69,31.44,23.7,35.9-9.68-6.38-16.88-18.17-16.64-33.72C336.71,143.86,345.84,125.66,363.53,122.49Z"/>
    <path d="M384,114.33h0c17,8.15,28.12,25.53,28.17,46.72.06,29.36-19.26,50.44-47.72,50.15a54.78,54.78,0,0,1-13-1.72c6.42,2.62,13.3,3.45,19.72,3.85,33.06,2.09,49-26.05,48.17-55.27C418.49,130.91,403.73,118.75,384,114.33Z"/>
  </g>
  <g class="sketchDarker">
    <path d="M305.59,190.57c25.38,21.54,50.73,57.51,45.27,99.94,21.73-32.3,54.23-53.84,103-51.65C410.23,231.12,345.3,211.52,305.59,190.57Z"/>
    <path d="M363.53,122.49c-17.69,3.17-26.82,21.37-27.11,40.67-.24,15.55,7,27.34,16.64,33.72l-1.09-.4a31.16,31.16,0,0,0,11.26,2.1c20.33-.11,34.2-16.67,34.17-37.6C397.38,136.33,383.08,123.46,363.53,122.49Z"/>
    <path d="M75.86,303.61C48.1,267.05,46.44,197,94.41,177.29a104.88,104.88,0,0,0-17.73,5.5c-26,18.33-31.49,47.58-29,85C28.86,283.61-1.55,308,6.29,333.69,7,314.26,37.66,291.63,75.86,303.61Z"/>
    <path d="M346.35,58.08A18.12,18.12,0,0,1,348.45,44c-11-2.05-18.14-2.22-19.17.3-1.36,2.89,5.42,7.84,17.14,13.8Z"/>
    <path d="M375,50.39c-1.83-.51-3.64-1-5.4-1.47a32.38,32.38,0,0,0,.75,5.61Z"/>
    <path d="M385.34,75a7.14,7.14,0,0,1,4.41-5.81,26.6,26.6,0,0,1,8.87-11.73c-7.7-2.43-15.16-4.66-22.15-6.61-.34,6.07-2.47,13.87-9,16.93h-.06c5.63,2.38,11.69,4.82,18,7.28A.18.18,0,0,0,385.34,75Z"/>
    <path d="M486.15,89.72c-.37.93-.79,1.87-1.26,2.81a12.65,12.65,0,0,0,3.61-1.78Z"/>
    <path d="M493.06,92.8a26.87,26.87,0,0,1-6.92,14.87c19.91,5,33.89,6.93,35.11,3.64S510.9,101,493.06,92.8Z"/>
    <path d="M459.26,100.1a25.68,25.68,0,0,1,.63-16.56,16.87,16.87,0,0,1,2-3.83c-11.12-4.35-23-8.73-34.93-12.89a15.43,15.43,0,0,1,.29,7.41,23,23,0,0,0,0,5,14.24,14.24,0,0,1-1,6.85,5.68,5.68,0,0,1-3.61,2.44h0c12.44,4.24,24.93,8.24,36.64,11.73Z"/>
  </g>
  <path class="sketchDarkest" d="M410.34,63.29a5.56,5.56,0,0,0,4-1.37,8.41,8.41,0,0,0-5.74-2.16A5,5,0,0,0,410.34,63.29Z"/>
  <g class="eyeBlob">
    <path d="M407.84,54.3c1.33.33,2.54,0,2.71-.64s-.77-1.51-2.09-1.84-2.54,0-2.71.65S406.51,54,407.84,54.3Z"/>
    <path d="M418.83,57.76c1.3.41,2.53.2,2.74-.47s-.67-1.56-2-2-2.53-.2-2.75.47S417.52,57.35,418.83,57.76Z"/>
  </g>
  <g class="sketchLine">
    <path d="M306.73,112.91c-9.47-8.92-20.82-4.14-25.85,4.77"/>
    <path d="M311.64,115.18c-13.43,5.62-19.18,27.4-15.72,43.06"/>
    <path d="M445.79,165.81a328.94,328.94,0,0,0-11.46,43.72"/>
    <path d="M476.83,173.28c2,9.73-2.41,33.17-9.26,43.36"/>
    <path d="M495.82,175c15.08.9,13.06,26.43,0,40.48"/>
    <path d="M386.67,4.83c.8,2.88,0,5.71-2.4,8.48A15.24,15.24,0,0,0,380.62,21"/>
    <path d="M472.77,16.33C470.21,20.74,468.36,25,468,29c-.4,3.64-3,7.09-7.48,10.4-3.22,1.93-5.54,5.6-7.48,10"/>
    <path d="M468.2,27.72a51.55,51.55,0,0,0,8.85,8.34c3,2.3,4.09,5.95,4.55,9.55"/>
    <path d="M464.93,35.46a24.72,24.72,0,0,0-10.77-3.06,34.22,34.22,0,0,1-7.67-.67"/>
    <path d="M386.49,9.62c1.51,2.08,3.13,2.64,5.44,4.44,2.17,1.63,2.57,3.11,3,5.89"/>
    <path d="M521.25,111.31c7.52-111.39-134.46-146.94-192-67"/>
    <path d="M56.72,194C34.26,207.71-15.2,279.62,6.29,333.69"/>
    <line x1="535.9" y1="212.57" x2="516.69" y2="276.02"/>
    <line x1="558.38" y1="217.43" x2="538.02" y2="285.74"/>
    <line x1="599.6" y1="255.69" x2="510.5" y2="227.82"/>
    <line x1="593.12" y1="281.91" x2="504.54" y2="248.19"/>
    <line x1="581.14" y1="222.34" x2="560.75" y2="296.09"/>
    <line x1="257.3" y1="145.46" x2="205.43" y2="127.29"/>
    <line x1="254.31" y1="158.67" x2="201.59" y2="143.62"/>
    <line x1="234.52" y1="120.03" x2="223.79" y2="166.18"/>
    <line x1="222.28" y1="114.91" x2="210.73" y2="163.4"/>
    <line x1="248" y1="125.66" x2="237.83" y2="169.16"/>
    <path d="M147.74,278.53a13.71,13.71,0,0,1,6.23,5.52"/>
    <path d="M130,297.38a19,19,0,0,0,8.41,4.37"/>
    <path d="M389.75,69.15c3.46-.76,7.56.8,9.13,4.22"/>
    <path d="M412.15,84.7c-.27-2.66.67-4.71,2.76-5.63,3.25-1.43,5.9-.62,8.68,1.51"/>
    <path d="M409.55,27.31A11.45,11.45,0,0,1,413,34.17"/>
    <path d="M436.3,36.58A16.11,16.11,0,0,0,427.87,39"/>
  </g>
</svg>
