<svg viewBox="0 0 254.67 308.56">
  <g class="sketchLightest">
    <path d="M68.92,281.39c-1.78-3.74-2-8.6-1.47-13.86a61.56,61.56,0,0,0,.24-17.47,42.24,42.24,0,0,1-3.1,16.46A53,53,0,0,1,61,278.09c-2,4.74-4,10.09-3.8,15.48a13.54,13.54,0,0,0,9-.84A9.3,9.3,0,0,0,68.92,281.39Z"/>
    <path d="M43,296.57a131.43,131.43,0,0,0,1.41-15.2c.32-6.8-1.46-11.29-1.53-15.09a24.31,24.31,0,0,1-6.12,1.62A19.7,19.7,0,0,0,36,278.36c1.42,5.06,2.83,8.35,3.24,13-3.45.21-5.62,1.93-6.38,4.8-.29,2.7,1,4.92,4.92,5.05C38.18,298.8,40,297.29,43,296.57Z"/>
    <path d="M102.9,219.75c-10.49,8.05-15,1.53-18.6-9a15.36,15.36,0,0,1-5.89.64c-5.8,13.79-5.89,31.68-2.84,52,1.34,7.38,4.72,10.8,7.52,16.63-3.39,3-4.51,7.72-.58,9.74,3.42,1.76,10.84,2.43,13.27-1.92a11.45,11.45,0,0,0,.72-10.12c-1.33-3.38-4-4.37-4.74-6.81s-.14-6.94-.14-6.94c6.57,3.53,12.87,4.14,18.79.72.34,4.69.8,9.24,1.45,13.59.43,6.26.64,12.45-.29,16.59-6.57,1.71-7.48,6.87-5.32,10.47.7,1.16,3.2,1.86,4.55,1.86h8.58c1.15,0,3.23-.58,3.85-1.56,1.63-2.58,2.14-6.8.65-9.18-1.56-2.91-1.26-3.87-.74-6.47a202.61,202.61,0,0,0,7.37-45,45.58,45.58,0,0,0-4-23.6C120.94,223.44,112.08,223.71,102.9,219.75Z"/>
    <path d="M95.54,288.26c-2.14,3.16-7.15,3.33-10.74,2.38a17.75,17.75,0,0,1,0,2.73c-2.9,1-4.6,2.43-4.69,5s.48,4.36,2.14,4.53H93.75a3.51,3.51,0,0,0,3.13-3.09,12.6,12.6,0,0,0-1.54-7.69A10,10,0,0,1,95.54,288.26Z"/>
    <path d="M61.64,221.55c-1.4,1.19-3.68,1.75-7.07,1.53-3.73,4.19-7.46,8.28-11.21,11.09,3.58.49,6,.68,6.14.37,6.38-4.32,11.58,2.85,6.67,6.58.79,7.07-7.75,9.91-11.38,2.35a170.94,170.94,0,0,0-32.13-7.06,108.23,108.23,0,0,0-1.88,33.91c.14,4.21,2.27,8,5.87,11.57a4.44,4.44,0,0,1-.79,3.28c-1.32,2.08-.81,5.37.55,6.66,2.18,2.44,8.88,3.17,11.91,1.49,3.08-1.37,4.06-4.75,4.07-7.28.08-2.31-1.3-5.64-2.31-8.29a15.88,15.88,0,0,1,.17-10.19c3.57,1.09,8.66.36,12.63-1.28.07,3.8,1.85,8.29,1.53,15.09A131.43,131.43,0,0,1,43,296.57c-4.34,1.06-6.32,3.8-4.83,8.64,1.24,3.53,13,4.06,16.85,0,2.2-2.9,2.44-6.25,2.14-11.57s1.75-10.79,3.8-15.55a53,53,0,0,0,3.63-11.57C67,260.85,67.68,255,67.7,249.08,67.1,237.34,65.1,228.13,61.64,221.55Z"/>
    <path d="M134.31,193.69c-2.6-1.7-4.08-5-5.24-8.93-.79-5.24-5.5-9.91-11-14.45-1-8.89-3.32-13.8-6.36-16.49-5.84,2.39-10,8.26-13.31,15.76a24.5,24.5,0,0,0-11.71,5.35c-6.41-3.27-12.48-4.84-17.78-2.6-2.21,5,1.12,10.17,5.06,15.33-2.71,14-4.09,27.09,10.32,23.13,3.57,10.49,8.11,17,18.6,9,9.18,4,18,3.69,23.64,1.71,5.91-2.09,13.26-6.27,14.24-17C141.16,200.26,138.24,196.25,134.31,193.69Zm-.62,15.45a2.76,2.76,0,0,1-2,1.6,8.51,8.51,0,0,1-4.08-.21,1.44,1.44,0,0,1-.9-1.95A6.94,6.94,0,0,1,133,204.1a1.4,1.4,0,0,1,1.53,1.41A8.82,8.82,0,0,1,133.69,209.14Z"/>
    <path d="M61.58,194.46c3-6.11,3.3-12.19.86-15.92-5.86.48-11.8,4-15.47,7.83-6.38-2.86-13.89-4.2-19.87-3.56-1.69-5-4-9.68-7.23-11.37-6.06,3.59-8.12,9-7.37,17.33-4,5.26-7.06,10.3-1.23,13.36-4.21,5.25-5.65,9.93.48,13.08.47,8.28,1.43,16.08,6.72,19.71a38.14,38.14,0,0,0,15,2.94c7.09.61,14.11-6.89,21.13-14.78,9.15.6,10.25-4.49,7.49-12.32C70,208,65.83,201.23,61.58,194.46ZM30.94,228.21A6.41,6.41,0,0,1,26,229.82a5.2,5.2,0,0,1-3.61-3.14,1.53,1.53,0,0,1,1.14-2.05,9.53,9.53,0,0,1,7.13,1.14A1.54,1.54,0,0,1,30.94,228.21Z"/>
  </g>
  <g class="sketchLighter">
    <path d="M126.54,221.46a19.92,19.92,0,0,1,3.31,4c1.59,2.65,3.14,3.44,5.37,3.12,2.44-.6,3.88-1.89,3.85-4.45a12.69,12.69,0,0,0-3.65-7.82A24.22,24.22,0,0,1,126.54,221.46Z"/>
    <path d="M187.65,198.55q-1-13.49-1.68-26.81c8.27-.23,16.89-.13,25.3.23q-.79,13.13-2.13,26.58Z"/>
    <path d="M212.32,145a161.34,161.34,0,0,0-27.2-.52q-.17-14,.3-27.6a95.28,95.28,0,0,1,26.75,1h0q.39,13.41.15,27.14Z"/>
    <path d="M187.2,89.5q-1.3,13.47-1.78,27.33a64,64,0,0,0-15.24,3.47c.45-8.54,1.23-16.91,2.39-25.07A35.12,35.12,0,0,1,187.2,89.5Z"/>
    <path d="M185.12,144.43c.11,9,.41,18.13.85,27.31-5,.14-10.08.42-14.71.82-.75-8.73-1.23-17.4-1.43-26A98,98,0,0,1,185.12,144.43Z"/>
    <path d="M189.83,224.39c-3.88-.09-7.71-.26-11.45-.52q-2.37-12.66-4.16-25.32h13.43q1,12.81,2.18,25.74Z"/>
    <path d="M215,223.85c1.43-8.49,2.75-16.94,3.91-25.3h-9.74q-1.26,12.7-3,25.74,4.42-.15,8.85-.42Z"/>
    <path d="M212.32,145q-.23,13.33-1,27c3.61.16,7.19.36,10.68.6.84-8.76,1.46-17.41,1.79-25.93-3.51-.7-7.37-1.27-11.42-1.69Z"/>
    <path d="M221.76,95.24q1.65,12.49,2.08,25.57a81.24,81.24,0,0,0-11.67-3h0q-.4-13.83-1.47-27.35a37.34,37.34,0,0,1,11.05,4.77Z"/>
    <path d="M239.63,263.5h0c-5.58-17.59-13.72-30.94-24.66-39.65l-6,33c14.2,7.27,24.49,19.56,31.46,36.12A57.35,57.35,0,0,1,239.63,263.5Z"/>
    <path d="M185.74,224.26a99.2,99.2,0,0,0-17.46,33.36A63.3,63.3,0,0,1,171,286.47c4-11.48,9.33-21.73,17.72-29.43C187.1,245.42,186.17,234.81,185.74,224.26Z"/>
  </g>
  <g class="sketchMiddle">
    <path d="M111.57,294.9c.93-4.14.72-10.33.29-16.59-.65-4.35-1.11-8.9-1.45-13.59a16.55,16.55,0,0,1-5.55,2q.15,14.69.26,29.36l3.08.24A10.7,10.7,0,0,1,111.57,294.9Z"/>
    <path d="M101.92,90.84q.85,34.95,1.48,69.89a19.94,19.94,0,0,1,8.32-6.91c3,2.69,5.35,7.6,6.36,16.49,5.49,4.54,10.2,9.21,11,14.45,1.16,3.9,2.64,7.23,5.24,8.93,3.93,2.56,6.85,6.57,6.47,10.74a18.13,18.13,0,0,1-5.36,11.85,12.69,12.69,0,0,1,3.65,7.82c0,2.56-1.41,3.85-3.85,4.45-2.23.32-3.78-.47-5.37-3.12a19.92,19.92,0,0,0-3.31-4l-.39.13.39-.13a45.58,45.58,0,0,1,4,23.6,202.61,202.61,0,0,1-7.37,45c-.52,2.6-.82,3.56.74,6.47a4.47,4.47,0,0,1,.35.69h0q9.17.29,18.35.09.28-104,1.11-208A321.86,321.86,0,0,0,101.92,90.84Z"/>
    <path d="M221.76,95.25c-3.26-24.55-10.24-47.32-22.48-67.56-1.48-4.37-2-16.54-2.6-27.66-.46,11.07-.73,23.35-2.24,27.54C183.1,47.24,176.1,70.25,172.57,95.23,184.54,86.42,208.9,86.65,221.76,95.25Z"/>
    <path d="M178.38,223.87c.52,2.77,1.06,5.53,1.62,8.3a84.82,84.82,0,0,1,5.74-7.91c.43,10.55,1.36,21.16,2.95,32.78a144.82,144.82,0,0,0,20.27-.23c2.13-11,4.16-22,6-32.94A284.33,284.33,0,0,1,178.38,223.87Z"/>
    <path d="M195.35,257.28c-2.23,0-4.45-.1-6.66-.24q-1.73,1.59-3.29,3.32h0a56.7,56.7,0,0,0-.09,32.57,4.39,4.39,0,0,0,3.64,3.28,20.49,20.49,0,0,0,5.3-.08,3.77,3.77,0,0,0,3.15-3c2.65-12.58,2.25-24.77-2.05-35.84Z"/>
    <path d="M249.36,296.13a20.49,20.49,0,0,1-5.3.08,4.38,4.38,0,0,1-3.64-3.28c-4.24-15.14-2.91-30.58,5.53-44.64,8.34,13.29,10,28.74,6.56,44.83A3.77,3.77,0,0,1,249.36,296.13Z"/>
    <path d="M161,296.13a20.18,20.18,0,0,0,5.26.08,4.21,4.21,0,0,0,3.6-3.28c3.22-14.38,2.22-31.25-6-44.64-8.28,13.29-9.69,30.26-6,44.83A3.86,3.86,0,0,0,161,296.13Z"/>
  </g>
  <path class="sketchDarker" d="M157.85,293.12c-3.27-13-2.5-27.83,3.54-40.31q.83-75.94,2.55-151.87-10-6-20.25-11.65-.87,104-1.11,208,9.19-.39,18.36-1.14A3.88,3.88,0,0,1,157.85,293.12Z"/>
  <g class="sketchDarkest">
    <path d="M134.48,205.51a8.82,8.82,0,0,1-.79,3.63,2.76,2.76,0,0,1-2,1.6,8.51,8.51,0,0,1-4.08-.21,1.44,1.44,0,0,1-.9-1.95A6.94,6.94,0,0,1,133,204.1,1.4,1.4,0,0,1,134.48,205.51Z"/>
    <path d="M30.67,225.77a9.53,9.53,0,0,0-7.13-1.14,1.53,1.53,0,0,0-1.14,2.05A5.2,5.2,0,0,0,26,229.82a6.41,6.41,0,0,0,4.93-1.61A1.54,1.54,0,0,0,30.67,225.77Z"/>
  </g>
  <g class="eyeBlob">
    <ellipse cx="110.27" cy="201.13" rx="3.96" ry="2.28" transform="translate(-79.84 72.8) rotate(-27.25)"/>
    <ellipse cx="40.88" cy="216.39" rx="2.28" ry="3.96" transform="translate(-178.85 231.05) rotate(-83.12)"/>
    <ellipse cx="21.04" cy="212.65" rx="2.28" ry="3.96" transform="translate(-192.39 202.13) rotate(-81.53)"/>
    <ellipse cx="125.48" cy="191.68" rx="3.96" ry="2.28" transform="translate(-73.83 78.71) rotate(-27.25)"/>
  </g>
  <g class="sketchLine">
    <path d="M63.38,285.13a15.6,15.6,0,0,0-4.89-.49"/>
    <path d="M84.81,293.37a8.76,8.76,0,0,1,7.19,1"/>
    <path d="M39.22,291.37a5.88,5.88,0,0,1,3,.47"/>
    <path d="M134.27,222.85a12.9,12.9,0,0,0-2.56-3.84"/>
    <path d="M56.17,241.12a4.14,4.14,0,0,0-4.3-3"/>
    <path d="M3.22,228.21A4.7,4.7,0,0,1,7.34,228"/>
    <path d="M112.06,158.5a23,23,0,0,0-1.82,13.57"/>
    <path d="M73.23,175.52a17,17,0,0,1,12.66,7.26"/>
    <path d="M19.23,174.66c1.83,2.61,2.43,5.52,3.2,8.79"/>
    <path d="M60.53,181.76a16.74,16.74,0,0,0-8.45,6.31"/>
    <path d="M83.09,280.05a6.79,6.79,0,0,1,4.6,0"/>
    <path d="M43,296.57a16.27,16.27,0,0,1,7.56.6"/>
    <path d="M16.65,281.89c2.18,1.74,5.39,1.63,9,.81"/>
    <line x1="30.25" y1="267.56" x2="26.64" y2="265.86"/>
    <path d="M110.41,264.72a5.21,5.21,0,0,1,.32-2.7"/>
    <path d="M91.62,264a9.2,9.2,0,0,1-2.85-3.85"/>
    <path d="M111.57,294.9a11.63,11.63,0,0,1,3.49.16"/>
    <path d="M86.7,174.93a12.58,12.58,0,0,1,3.25,3"/>
    <path d="M218.88,198.55c1.21-8.75,2.25-17.41,3.07-26"/>
    <path d="M170.18,120.3c-.45,8.61-.56,17.4-.35,26.3"/>
    <path d="M223.74,146.64c.35-8.76.4-17.38.1-25.83"/>
    <path d="M171.27,172.56c.74,8.61,1.73,17.29,2.95,26"/>
    <path d="M13.73,228.18c-.94-.34-1.48-.63-1.48-.85-3.1-4.66-9.24-2.52-9,.88-6.53,4.47-.25,14.58,7.8,8l1.64.2"/>
  </g>
</svg>
