<svg viewBox="0 0 413.71 500.99">
  <g class="sketchLightest">
    <path d="M112.05,456.71c-2.89-6.07-3.31-14-2.39-22.5a99.54,99.54,0,0,0,.39-28.35c-.15,9.07-1.27,18-5,26.72a85.9,85.9,0,0,1-5.89,18.78c-3.32,7.69-6.51,16.36-6.17,25.11,5.35,1.06,10.28.84,14.56-1.37A15.09,15.09,0,0,0,112.05,456.71Z"/>
    <path d="M70,481.35c.89-7.7,2.23-15.7,2.28-24.67.52-11-2.36-18.33-2.48-24.5a39.8,39.8,0,0,1-9.93,2.63c-1.87,5.86-2.52,11.55-1.27,17,2.3,8.21,4.6,13.55,5.26,21.11-5.6.34-9.12,3.13-10.35,7.79-.48,4.39,1.59,8,8,8.2C62.15,485,65.17,482.52,70,481.35Z"/>
    <path d="M167.19,356.67c-17,13.06-24.39,2.47-30.18-14.55a24.9,24.9,0,0,1-9.56,1c-9.41,22.38-9.56,51.43-4.61,84.38,2.18,12,7.65,17.54,12.2,27-5.49,4.92-7.32,12.53-.94,15.81,5.55,2.86,17.6,3.94,21.54-3.12,3.1-5.57,3.27-11.84,1.17-16.43-2.17-5.47-6.51-7.08-7.69-11.05s-.24-11.26-.24-11.26c10.67,5.73,20.9,6.72,30.51,1.17.54,7.61,1.29,15,2.35,22.06.69,10.17,1,20.2-.47,26.92-10.66,2.78-12.15,11.16-8.64,17,1.13,1.89,5.19,3,7.39,3h13.92c1.87,0,5.25-.93,6.25-2.52,2.65-4.2,3.47-11,1.06-14.9-2.53-4.74-2.05-6.29-1.21-10.5a328.92,328.92,0,0,0,12-73,74.08,74.08,0,0,0-6.44-38.31C196.48,362.65,182.1,363.09,167.19,356.67Z"/>
    <path d="M155.24,467.86c-3.46,5.12-11.59,5.4-17.43,3.86a26.18,26.18,0,0,1,0,4.43c-4.69,1.64-7.47,4-7.61,8.12-.31,4,.77,7.07,3.48,7.34h18.65c2.67,0,4.75-2.63,5.08-5,.52-4.84-.38-8.14-2.5-12.48A16.13,16.13,0,0,1,155.24,467.86Z"/>
    <path d="M100.23,359.59c-2.26,1.93-6,2.84-11.47,2.47-6.06,6.81-12.12,13.44-18.19,18,5.8.79,9.75,1.1,10,.6,10.35-7,18.8,4.62,10.83,10.68,1.27,11.47-12.59,16.09-18.48,3.82A276.72,276.72,0,0,0,20.74,383.7c-3.93,17.49-4.83,35.83-3,55,.22,6.83,3.68,13,9.53,18.78a7.3,7.3,0,0,1-1.28,5.33c-2.16,3.37-1.32,8.7.88,10.81,3.55,4,14.42,5.14,19.34,2.4,5-2.21,6.59-7.7,6.6-11.81.13-3.75-2.11-9.15-3.76-13.45a25.81,25.81,0,0,1,.28-16.54c5.79,1.77,14.06.59,20.5-2.08.12,6.17,3,13.46,2.48,24.5-.05,9-1.39,17-2.28,24.67-7.05,1.71-10.26,6.17-7.85,14,2,5.73,21.06,6.59,27.35,0,3.57-4.7,4-10.13,3.48-18.78s2.84-17.5,6.17-25.22A85.9,85.9,0,0,0,105,432.58c4-9.2,5-18.71,5-28.31C109.09,385.22,105.84,370.26,100.23,359.59Z"/>
    <path d="M218.18,314.36c-4.23-2.75-6.62-8.15-8.52-14.48-1.27-8.51-8.92-16.08-17.83-23.46C190.2,262,186.45,254,181.5,249.67c-9.47,3.86-16.17,13.4-21.59,25.57a39.78,39.78,0,0,0-19,8.69c-10.41-5.31-20.27-7.86-28.87-4.23-3.57,8.15,1.82,16.5,8.22,24.88-4.4,22.7-6.63,44,16.75,37.54,5.79,17,13.16,27.61,30.18,14.55,14.91,6.42,29.29,6,38.38,2.76,9.59-3.39,21.51-10.16,23.1-27.63C229.29,325,224.55,318.53,218.18,314.36Zm-1,25.08a4.47,4.47,0,0,1-3.24,2.6,13.71,13.71,0,0,1-6.62-.34,2.34,2.34,0,0,1-1.46-3.16A11.29,11.29,0,0,1,216,331.26a2.3,2.3,0,0,1,2.49,2.3A14.37,14.37,0,0,1,217.16,339.44Z"/>
    <path d="M100.14,315.62c4.85-9.91,5.35-19.79,1.38-25.84-9.51.79-19.14,6.49-25.09,12.71-10.37-4.65-22.56-6.81-32.27-5.79-2.74-8.12-6.52-15.7-11.71-18.45-9.84,5.83-13.18,14.68-12,28.14-6.52,8.54-11.46,16.72-2,21.69-6.83,8.51-9.18,16.11.77,21.22.78,13.43,2.34,26.1,10.92,32a61.81,61.81,0,0,0,24.3,4.77c11.49,1,22.89-11.17,34.29-24,14.85,1,16.63-7.28,12.15-20C113.81,337.56,107,326.61,100.14,315.62ZM50.4,370.39a10.4,10.4,0,0,1-8,2.63,8.46,8.46,0,0,1-5.87-5.11,2.51,2.51,0,0,1,1.86-3.33A15.5,15.5,0,0,1,50,366.43,2.49,2.49,0,0,1,50.4,370.39Z"/>
  </g>
  <g class="sketchLighter">
    <path d="M205.57,359.43a32.89,32.89,0,0,1,5.37,6.45c2.58,4.3,5.1,5.59,8.71,5.07,3.95-1,6.3-3.07,6.25-7.22A20.53,20.53,0,0,0,220,351,39,39,0,0,1,205.57,359.43Z"/>
    <path d="M304.74,322.25q-1.65-21.88-2.72-43.5c13.43-.38,27.41-.21,41.06.38q-1.27,21.28-3.46,43.12Z"/>
    <path d="M344.79,235.27a262.28,262.28,0,0,0-44.15-.85q-.27-22.63.49-44.79a153.78,153.78,0,0,1,43.4,1.61h0q.64,21.76.26,44Z"/>
    <path d="M304,145.27q-2.11,21.85-2.89,44.36a104.07,104.07,0,0,0-24.74,5.63c.72-13.86,2-27.45,3.87-40.69,6.27-4.61,14.62-7.7,23.76-9.29Z"/>
    <path d="M300.64,234.42q.27,22,1.38,44.33c-8.07.23-16.37.68-23.87,1.33q-1.83-21.27-2.33-42.13A157,157,0,0,1,300.64,234.42Z"/>
    <path d="M308.28,364.19c-6.3-.14-12.51-.42-18.58-.84q-3.85-20.55-6.76-41.1h21.8Q306.3,343,308.29,364Z"/>
    <path d="M349.08,363.32c2.32-13.79,4.46-27.49,6.34-41.07h-15.8q-2.06,20.63-4.9,41.78c4.78-.16,9.58-.39,14.36-.68Z"/>
    <path d="M344.79,235.28q-.37,21.65-1.71,43.85c5.86.25,11.66.57,17.34,1,1.36-14.22,2.36-28.26,2.9-42.09-5.7-1.13-12-2.06-18.53-2.74Z"/>
    <path d="M360.1,154.59c1.79,13.51,2.89,27.36,3.38,41.5a130.23,130.23,0,0,0-19-4.85h0q-.64-22.45-2.38-44.39a60.07,60.07,0,0,1,17.93,7.74Z"/>
    <path d="M389.11,427.68v0c-9.05-28.54-22.26-50.21-40-64.34l-9.76,53.49c23.05,11.81,39.76,31.75,51.07,58.63C385.92,459.48,385.27,443.3,389.11,427.68Z"/>
    <path d="M301.65,364c-12.73,15.53-22,34.06-28.34,54.14,5.29,15,6.34,31.45,4.37,46.83,6.45-18.63,15.14-35.28,28.76-47.77C303.86,398.33,302.35,381.11,301.65,364Z"/>
  </g>
  <g class="sketchMiddle">
    <path d="M181.27,478.63c1.51-6.72,1.16-16.75.47-26.92-1.06-7.06-1.81-14.45-2.35-22.06a27,27,0,0,1-9,3.31q.23,23.84.41,47.66l5,.38A17.62,17.62,0,0,1,181.27,478.63Z"/>
    <path d="M165.61,147.44Q167,204.16,168,260.88c3.81-5.15,8.23-9.06,13.5-11.21,4.95,4.36,8.7,12.33,10.33,26.75,8.91,7.38,16.56,14.95,17.83,23.46,1.9,6.33,4.29,11.73,8.52,14.48,6.37,4.17,11.11,10.67,10.49,17.44-.81,8.83-4.25,14.92-8.7,19.23a20.53,20.53,0,0,1,5.93,12.7c0,4.15-2.3,6.25-6.25,7.22-3.61.52-6.13-.77-8.71-5.07a32.89,32.89,0,0,0-5.37-6.45c-.21.08-.43.14-.64.21.21-.07.43-.13.64-.21A74.08,74.08,0,0,1,212,397.74a328.92,328.92,0,0,1-12,73c-.84,4.21-1.32,5.76,1.21,10.5a8.41,8.41,0,0,1,.57,1.12h0q14.87.45,29.78.14.45-168.78,1.79-337.55A523.62,523.62,0,0,0,165.61,147.44Z"/>
    <path d="M360.1,154.61C354.82,114.75,343.48,77.8,323.62,45c-2.41-7.11-3.19-26.85-4.23-44.9-.73,18-1.17,37.89-3.62,44.69C297.36,76.69,286,114,280.26,154.57,299.69,140.27,339.23,140.65,360.1,154.61Z"/>
    <path d="M289.7,363.35q1.26,6.73,2.63,13.47A138.15,138.15,0,0,1,301.65,364c.7,17.11,2.21,34.34,4.79,53.2a233.55,233.55,0,0,0,32.88-.38c3.47-17.92,6.77-35.76,9.75-53.46A463,463,0,0,1,289.7,363.35Z"/>
    <path d="M317.25,417.57c-3.63,0-7.23-.16-10.81-.38q-2.82,2.58-5.35,5.39h0c-5.36,17.19-5.1,35.15-.14,52.86a7.11,7.11,0,0,0,5.9,5.32,33.6,33.6,0,0,0,8.61-.12,6.14,6.14,0,0,0,5.11-4.9c4.3-20.41,3.65-40.2-3.32-58.17Z"/>
    <path d="M404.9,480.64a33.6,33.6,0,0,1-8.61.12,7.11,7.11,0,0,1-5.9-5.32c-6.89-24.57-4.72-49.64,9-72.45,13.55,21.57,16.15,46.64,10.65,72.75A6.12,6.12,0,0,1,404.9,480.64Z"/>
    <path d="M261.46,480.64a33,33,0,0,0,8.53.12,6.84,6.84,0,0,0,5.85-5.32c5.22-23.34,3.61-50.72-9.69-72.45-13.43,21.57-15.73,49.11-9.76,72.75A6.24,6.24,0,0,0,261.46,480.64Z"/>
  </g>
  <path class="sketchDarker" d="M256.39,475.74c-5.31-21-4.07-45.17,5.74-65.42q1.32-123.26,4.13-246.48-16.26-9.78-32.87-18.91Q232,313.7,231.6,482.48q14.93-.63,29.8-1.86A6.24,6.24,0,0,1,256.39,475.74Z"/>
  <g class="sketchDarkest">
    <path d="M218.46,333.56a14.37,14.37,0,0,1-1.3,5.88,4.47,4.47,0,0,1-3.24,2.6,13.71,13.71,0,0,1-6.62-.34,2.34,2.34,0,0,1-1.46-3.16A11.29,11.29,0,0,1,216,331.26,2.3,2.3,0,0,1,218.46,333.56Z"/>
    <path d="M50,366.43a15.5,15.5,0,0,0-11.57-1.85,2.51,2.51,0,0,0-1.86,3.33A8.46,8.46,0,0,0,42.41,373a10.4,10.4,0,0,0,8-2.63A2.49,2.49,0,0,0,50,366.43Z"/>
  </g>
  <g class="eyeBlob">
    <ellipse cx="179.16" cy="326.44" rx="6.43" ry="3.7" transform="translate(-129.57 118.24) rotate(-27.25)"/>
    <ellipse cx="66.54" cy="351.21" rx="3.7" ry="6.43" transform="translate(-290.11 375.19) rotate(-83.12)"/>
    <ellipse cx="34.33" cy="345.14" rx="3.7" ry="6.43" transform="translate(-312.1 328.26) rotate(-81.53)"/>
    <ellipse cx="203.85" cy="311.1" rx="6.43" ry="3.7" transform="translate(-119.81 127.84) rotate(-27.25)"/>
  </g>
  <g class="sketchLine">
    <path d="M103.05,462.78a25.22,25.22,0,0,0-7.93-.8"/>
    <path d="M137.83,476.15c4.24-1.23,9.16-.26,11.67,1.68"/>
    <path d="M63.84,472.9a9.5,9.5,0,0,1,4.91.77"/>
    <path d="M218.11,361.69a21.11,21.11,0,0,0-4.16-6.23"/>
    <path d="M91.36,391.35a6.71,6.71,0,0,0-7-4.8"/>
    <path d="M5.41,370.39a7.66,7.66,0,0,1,6.68-.41"/>
    <path d="M182.07,257.26a37.35,37.35,0,0,0-3,22"/>
    <path d="M119,284.88a27.58,27.58,0,0,1,20.55,11.78"/>
    <path d="M31.39,283.48c3,4.23,4,9,5.21,14.27"/>
    <path d="M98.43,295c-5.9,2.27-10.68,5.51-13.72,10.24"/>
    <path d="M135,454.53a11,11,0,0,1,7.46,0"/>
    <path d="M70,481.35a26.55,26.55,0,0,1,12.27,1"/>
    <path d="M27.22,457.52c3.53,2.82,8.74,2.64,14.6,1.31"/>
    <line x1="49.28" y1="434.26" x2="43.42" y2="431.5"/>
    <path d="M179.39,429.65a8.58,8.58,0,0,1,.51-4.38"/>
    <path d="M148.88,428.48a14.81,14.81,0,0,1-4.62-6.25"/>
    <path d="M181.27,478.63a18.76,18.76,0,0,1,5.66.26"/>
    <path d="M140.91,283.93a20.48,20.48,0,0,1,5.27,4.86"/>
    <path d="M355.42,322.25c2-14.19,3.66-28.26,5-42.15"/>
    <path d="M276.4,195.25q-1.11,21-.58,42.7"/>
    <path d="M363.32,238c.56-14.21.64-28.2.16-41.92"/>
    <path d="M278.16,280.08q1.8,21,4.79,42.17"/>
    <path d="M22.48,370.35c-1.54-.55-2.41-1-2.41-1.38-5-7.57-15-4.09-14.66,1.42-10.6,7.25-.4,23.66,12.66,13l2.67.32"/>
  </g>
</svg>
