<svg viewBox="0 0 451.57 407.3">
  <g class="sketchLightest">
    <path d="M319.6,236.41a345.51,345.51,0,0,0,34.65,17.05c.06.22.12.45.16.68a10.24,10.24,0,0,0-1.39-3.41c-1.72-2.78-20.58-22.8-30.2-38.06a16.32,16.32,0,0,1-4.22,2.1c.11,6.17.55,14.39,1.11,23.42C319.67,237.59,319.63,237,319.6,236.41Z"/>
    <path d="M317.57,171a37.5,37.5,0,0,1-12.08,9.82,59.08,59.08,0,0,0,.06,7.6l.17-.18c11.12.45,19.65,4.67,24.5,14.24-.27.72-.56,1.42-.87,2.09q2.7,4,5.39,7.85a14.76,14.76,0,0,1,.07-4.08C328.93,195.79,320.9,182.56,317.57,171Z"/>
    <path d="M273.47,158.44c0-1.52.12-2.84.19-4.15a51,51,0,0,0-9.29,8.62,62.81,62.81,0,0,1-9.8,9.08,30.66,30.66,0,0,0-10-23.84c-14.21-12.68-34.4-10-48.14,7-1.73,2-3.41,3.8-5.08,5.42A23.65,23.65,0,0,1,174.42,176a40.36,40.36,0,0,0,.51,6.32,33.75,33.75,0,0,0,6.21-.62c6.36-1,11.62,3.81,15.39,10.19a146.44,146.44,0,0,0,12.95-15.7v-11c0-4,7.53-3.87,7.53,0V192.7h23.23V165.19c0-4,7.53-3.87,7.53,0v11a154.74,154.74,0,0,0,20,22.77,27.16,27.16,0,0,1,18.64-10.71,56,56,0,0,0,.79-7.24C278.51,175.42,273.26,166.1,273.47,158.44Z"/>
    <path d="M73.88,264.29c3.93-7.69,11.62-14.87,20.18-14,4.19.68,7.82-.31,11.57-2.88a83.54,83.54,0,0,0,11.63-11,8.49,8.49,0,0,1-1.4-1.67,167.51,167.51,0,0,0,10.23-20.36c3.21-7.81,6.25-16.07,11.36-23.64,3.41-4.76,8.8-7.67,15.74-9.11a28.65,28.65,0,0,0,1.21-8.2,29.32,29.32,0,0,1-5.32-3.58c-.22.22-.43.46-.65.69-7.16,8.19-12.6,12.11-20.88,11,0,0,7.36-15-6.4-26.81-11-9.46-26.2-8-36.66,4.93C78.43,167,70.63,170.6,68,171.11c-13.7-8.34-31.12-4.28-43.39,10.93-6.4,7.31-12.16,12.76-18.88,14.21v80C25.83,276.4,49.58,272.05,73.88,264.29Z"/>
    <path d="M123.17,244.12q8-4,15.65-8.38c1-8.36,2.2-17.61,3.44-25.39-3,11.26-7.74,20.83-13.91,31.11a8.42,8.42,0,0,1-1.83-.14c-1.12,1-2.23,1.89-3.35,2.8Z"/>
    <path d="M439.44,157.33c-15.2-13.57-37.43-7.54-52.13,10.68a39.36,39.36,0,0,1-9.66,8.51c8.53-11.06,7.53-28-3.06-37.46-9.89-8.84-23.13-8.9-34.16-1a41.64,41.64,0,0,1,.87,14.84c-1.24,7.07-5,11.53-10.24,15.33,3,13.43,7.8,25.16,13.31,36.33,9.1,3.66,9.88,10.66,6.66,22.43a27,27,0,0,1-8.29-3.31,276.88,276.88,0,0,0,17.91,22.37,19.67,19.67,0,0,0,9.83,5.09c6.56,1.72,10.57,6.53,12.7,13.08,24,7.67,47.4,12,67.39,12V182.73A33.44,33.44,0,0,0,439.44,157.33Z"/>
    <path d="M127.23,118.61c1.69-8.6,6.34-15.86,13.79-20.11,10.28-5.85,24.14-5.45,37.65-2,8.07,2.35,14.29,6.65,17.83,13.19,7,1.67,14.11,3.83,21.13,6.27a235.82,235.82,0,0,0-13.86-29.47C193,66.6,179.06,49.76,159.35,41.64,134,30.34,105.73,29.17,81.69,35c-13,2.85-21.15,9.71-28.38,19.64a245.58,245.58,0,0,0-29.68,54c17.84-4.77,36.49-1.86,55.77,7.07C96.89,122.57,112,123.1,127.23,118.61Z"/>
    <path d="M276.86,88.76c28.07-13.09,57.26-11.92,88.42-.57,23.46,10.29,48.53,8,74.31-.08A212.06,212.06,0,0,0,426.43,53c-10.22-24.16-24-41.41-45-47.2A139.5,139.5,0,0,0,301.67,8c-21.08,7.08-37.25,20.32-47.78,39.5-7.88,13.69-15.3,30.61-22.1,49.34C244.94,99.62,260.39,96.47,276.86,88.76Z"/>
    <path d="M271.87,255.9c-2.95,9.84-3,22.18-1.84,35.65-4.43,8.87-9.89,26-8.93,27.74,1.4,7,16.83,10,21.54,6.82,4.66-7.27,7.54-14.92,10-22.15,1.54-4.11,2.08-9.08,3-15,2.23,18.07,2.95,42.07,5.59,56.88,1.68,2,7.2,2.3,12.53,2.76A16.17,16.17,0,0,1,326.36,345c-3-34-4-65.9-7-87.62C310.39,261.73,281.28,263.11,271.87,255.9Z"/>
  </g>
  <g class="sketchLighter">
    <path d="M292.87,126.76c-5.72,7.86-12.16,13.59-19,16.16a23.34,23.34,0,0,1-.15,8.15c-4.55-4-7.53-8.82-6.73-16.7,1.31-11.22,5.76-19.21,20.59-24.55,11.53-3.84,30.31-3.41,39.92,5.46,9.63,9.12,15.59,23.7,13.82,37.63-1.24,7.07-5,11.53-10.24,15.33,3,13.43,7.8,25.16,13.31,36.33,9.1,3.66,9.88,10.66,6.66,22.43-9.44-2.11-17.77-8.88-16.22-18.66-5.88-12.55-13.91-25.78-17.24-37.34a15,15,0,0,0,3.57-6c4.37,1.53,8.48-1.58,8.92-7.63.46-5.34-2.81-7.92-8.16-5C308.74,148.32,298.88,139.49,292.87,126.76Z"/>
    <path d="M259.72,236.74c3.42,5.93,7.23,12,11.4,18,2.76-15.18,5-29.48,5.25-39.93-.74-.51-1.46-1-2.17-1.58A182.66,182.66,0,0,1,259.72,236.74Z"/>
    <path d="M365.67,267.06a19.77,19.77,0,0,1,.41,5.48c-.29,3-4.66,4.59-6.66,1.66-2.21-3.42-4.34-8.07-4.83-11.91a335.5,335.5,0,0,1-34.5-18.05c.26,4,.53,8.15.81,12.28a9.28,9.28,0,0,1-1.5.89c2.16,15.72,3.28,36.79,4.86,60.11,39.5,39.12,86.58,73.26,126.31,88V288.69C422.89,286.2,393.58,278.51,365.67,267.06Z"/>
    <path d="M137.55,259.19a3.54,3.54,0,0,1-.34-.48c-.29-2,.06-7.69.76-15a334.26,334.26,0,0,1-35.58,18.66,14.29,14.29,0,0,1-8.23,9.46c-3.07,1.29-5.41-.78-4-4.21C62.3,278.92,33.17,286.43,5.68,288.78V405.87c37.82-13.75,82.48-45.32,120.93-82.14C129.17,306.48,133,282.2,137.55,259.19Z"/>
    <path d="M189,212.5c-.25,12.34.71,28.05.8,36.76q5.09-7.78,9.33-15.38A147.92,147.92,0,0,1,189,212.5Z"/>
    <path d="M209.48,179.83A162.9,162.9,0,0,1,198,194.65c3.47,7,4.81,12.78,7.48,18.88.51,1.25,1.13,2.61,1.83,4a115.13,115.13,0,0,0,8-24.85h-5.86Z"/>
    <path d="M264.76,203.63c.33-.62.68-1.21,1-1.8a171.64,171.64,0,0,1-18-22V192.7H241.9c2,10.61,6.36,22.28,12.65,34.54,4.12-6.51,8.19-13.59,12.21-21.06C266.06,205.35,265.39,204.51,264.76,203.63Z"/>
    <path d="M174.93,182.32c-7.76,3.48-15.09,3.89-21.74-.62-6.94,1.44-12.33,4.35-15.74,9.11-5.11,7.57-8.15,15.83-11.36,23.64a167.51,167.51,0,0,1-10.23,20.36c1.85,3.07,8.5,6.85,12.49,6.65,6.17-10.28,10.94-19.85,13.91-31.11a193.86,193.86,0,0,1,12.28-19.64c3.89,2.35,13.71,2.15,19.33-.41,3.38,7.57,9.42,17.5,15.15,22.2,4.34,11.17,9.29,21.05,15.14,29.06,4.3,1.12,11.66-5.53,11.18-8.59-2.28-4.92-7.4-13.41-9.85-19.44-2.87-6.55-4.2-12.69-8.29-20.47-3.8-7-9.31-12.38-16.06-11.36A33.83,33.83,0,0,1,174.93,182.32Z"/>
  </g>
  <g class="sketchMiddle">
    <path d="M320.09,244.24a335.5,335.5,0,0,0,34.5,18.05,10.74,10.74,0,0,1-.06-2.64,17.3,17.3,0,0,0-.28-6.19,345.51,345.51,0,0,1-34.65-17.05C319.75,239,319.92,241.57,320.09,244.24Z"/>
    <path d="M383.18,264.23h0l-.14,0-.73-.24q-7.47-2.37-14.53-5.08c-1.92-.15-4.59,1.41-3.4,4.26a24.3,24.3,0,0,1,1.29,3.93c27.91,11.45,57.22,19.14,84.9,21.63V276.21C430.58,276.25,407.15,271.9,383.18,264.23Z"/>
    <path d="M123.17,244.12a149.79,149.79,0,0,1-16.46,12c-2.72,1.54-4,3.52-4.19,5.82,0,.17-.08.34-.13.51A334.26,334.26,0,0,0,138,243.75c.24-2.51.53-5.21.85-8Q131.14,240.12,123.17,244.12Z"/>
    <path d="M91.1,265.86c3.42-5.25,1.31-8-2.86-6.53l-.14.05c-4.29,1.59-8.58,3.09-12.86,4.47l-1.36.44h0c-24.3,7.76-48,12.11-68.2,11.92v12.57c27.49-2.35,56.62-9.86,84.43-21.12A9.36,9.36,0,0,1,91.1,265.86Z"/>
    <path d="M209.48,176.19a146.44,146.44,0,0,1-12.95,15.7c.23.38.45.78.67,1.17l.81,1.59a162.9,162.9,0,0,0,11.47-14.82Z"/>
    <path d="M247.77,176.18v3.65a171.64,171.64,0,0,0,18,22,34.75,34.75,0,0,1,2-2.88A154.74,154.74,0,0,1,247.77,176.18Z"/>
    <path d="M240.24,192.7h7.53V165.19c0-3.87-7.53-4-7.53,0Z"/>
    <path d="M209.48,192.7H217V165.19c0-3.87-7.53-4-7.53,0Z"/>
    <path d="M198.34,315c-.17-4.66-4.48-11.07-9.62-16.54a296.26,296.26,0,0,0,1.61-30,38.6,38.6,0,0,0-1.56-12.82c-3.73,1.84-6,5.56-11,8.24-12.76,6.87-35.7,1-40.2-4.73-6.52,33.09-11.62,68.78-13.5,82.47a16.15,16.15,0,0,1,13.22,3.53c5.69.32,11.33-.4,14.13-2.72,1.89-11.5,5.6-26.2,8-38.87,3.31,8.59,8.22,17.16,15.48,24C183.6,332.89,199.31,326.8,198.34,315Z"/>
    <path d="M330.22,202.48c-2.23,6-6.05,10.47-11.62,12.29.18,10.18,1.26,25.94,2.3,41.75-6.83,5.14-40.95,7.18-49.86-1.33,2.8-15.33,5.12-29.8,5.33-40.34a46.47,46.47,0,0,1-11.61-11.22c4.63-8.53,11.58-14,21.65-15.39,4.23,5,15,5,19.31,0C316.84,188.69,325.37,192.91,330.22,202.48Z"/>
    <path d="M215.34,233c.15.95-.46,2.24-1.49,3.55,2.44,5.57,5.18,10.84,8,16.14,4-1.52,9.12-1.93,13.23-.29,5.47-7,10.87-13.71,16.19-20,1.12-1.65,2.22-3.36,3.33-5.1-6.29-12.26-10.66-23.93-12.65-34.54H215.34a115.13,115.13,0,0,1-8,24.85C210,222.94,213.53,229.07,215.34,233Z"/>
    <path d="M324.26,317.52c.61,8.9,1.28,18.13,2.1,27.51,8.64,1.25,13,6.15,14.06,13.88.44,4-1.57,7.25-4.77,8.39-12.72,3.77-30,.07-34.33-5.76-3.26-4.5-2.75-11.64.44-16.52l-.21-.22c-2.63-14.81-3.64-37.79-5.87-55.86-.94,5.94-1.48,10.91-3,15-2.47,7.21-5.34,14.85-10,22.1a33.7,33.7,0,0,1,.49,13.78c-1.28,5.76-4.85,9.44-10.12,10.26-6.85.81-12.06-1.15-14.59-7.58-2.56-6.67-.6-15.3,2.75-23.48a6.89,6.89,0,0,1-.29-1.19c1.35-8.64,4.69-17.43,9.12-26.3-1.2-13.47-1.11-25.81,1.84-35.65-.29-.23-.57-.46-.83-.71,0-.13,0-.27.08-.41-4.17-6.08-8-12.11-11.4-18-.62.85-1.24,1.69-1.87,2.52-5.92,7.3-12.61,14.41-18.45,19.05a2.08,2.08,0,0,1-.88,1.77h0c4.61,6.32,3.79,17,0,21.51-2.69,3.16-5.52,4.07-9.26,4.25-5,.1-11.5-2.83-12.34-5.94-5.56-8.42-6.58-16-1.39-22.54q-5.17-7.63-9.79-15.71a4.34,4.34,0,0,1-1.58-.09,90.79,90.79,0,0,1-5-7.68q-4.23,7.58-9.33,15.38a29,29,0,0,1-.29,6.08c-.26.1-.51.22-.76.34a38.6,38.6,0,0,1,1.56,12.82,296.26,296.26,0,0,1-1.61,30c4.9,5.22,9,11.81,9.53,16.45,2.39,2.64,3.7,6,3.88,10.46.34,7.88-.33,16.77-4.11,23.87-3.77,6.78-9.43,10.11-16.65,9.11-5-.89-9.22-3.67-10.33-8.11-1.73-7,.84-14.81,3.82-22.67-7.22-6.87-12.12-15.43-15.43-24-2.43,12.67-6.14,27.37-8,38.87,2.88,2.58,3.28,5.81,3.21,11.47-.22,4.55-2.44,6.77-5.89,8.66-13.88,6.66-29.64,7.33-35.75,2.33-7.33-6,.78-21.76,11.08-23.27.57-4.17,1.44-10.38,2.56-17.93C88.16,360.55,43.5,392.12,5.68,405.87H450.57v-.37C410.84,390.78,363.76,356.64,324.26,317.52Z"/>
  </g>
  <g class="sketchDarker">
    <path d="M202.13,325.4c-.18-4.44-1.46-7.74-3.79-10.37,1,11.77-14.74,17.86-23.43,12.62-1.42,2.92-6.29,16.29-3.87,22.62,1.54,4.32,5.33,7.22,10.33,8.11,7.22,1,12.88-2.33,16.65-9.11C201.8,342.17,202.47,333.28,202.13,325.4Z"/>
    <path d="M151.4,342.47c-2.8,2.32-8.44,3-14.13,2.72a16.15,16.15,0,0,0-13.22-3.53c-10.3,1.51-18.41,17.27-11.08,23.27,6.11,5,21.87,4.33,35.75-2.33,3.45-1.89,5.67-4.11,5.89-8.66C154.68,348.28,154.28,345.05,151.4,342.47Z"/>
    <path d="M340.42,358.91c-1.05-7.73-5.42-12.63-14.06-13.88a16.17,16.17,0,0,0-12.56,3.55c-5.33-.46-10.85-.76-12.53-2.76-2.74,4.83-3,11.46.05,15.72,4.34,5.83,21.61,9.53,34.33,5.76C338.85,366.16,340.86,362.88,340.42,358.91Z"/>
    <path d="M282.64,326.11c-4.71,3.16-20.14.22-21.54-6.82-3.29,8.11-5.19,16.63-2.65,23.23,2.53,6.43,7.74,8.39,14.59,7.58,5.27-.82,8.84-4.5,10.12-10.26a33.7,33.7,0,0,0-.49-13.78Z"/>
    <path d="M24.56,182C36.83,166.83,54.25,162.77,68,171.11c2.68-.51,10.48-4.11,16.54-11.37,10.46-13,25.67-14.39,36.66-4.93,13.76,11.82,6.4,26.81,6.4,26.81,8.28,1.1,13.72-2.82,20.88-11,.22-.23.43-.47.65-.69h0a25.52,25.52,0,0,1-8.2-12.33,8.28,8.28,0,0,1-3.41-3.45c-7.82-5.41-11-16.57-11-27.69a40.19,40.19,0,0,1,.72-7.84c-15.21,4.49-30.34,4-47.83-2.89-19.28-8.93-37.93-11.84-55.77-7.07C12.5,136.46,5.68,167,5.68,196.25,12.4,194.8,18.16,189.35,24.56,182Z"/>
    <path d="M449,141.06c-1.55-17.89-3-33.41-9.43-52.95-25.78,8-50.85,10.37-74.31.08-31.16-11.35-60.35-12.52-88.42.57-16.47,7.71-31.92,10.86-45.07,8.09-3.62,10-7,20.53-10.17,30.93-1.13-3.84-2.46-7.77-4-11.82-7-2.44-14.14-4.6-21.13-6.27,2.45,4.51,3.63,10.09,3.28,16.83-.26,4-2.9,6.44-6.52,7.24a36.27,36.27,0,0,0-.68,14A27.18,27.18,0,0,1,191,161.37c.1-.25.2-.5.29-.76,1.67-1.62,3.35-3.44,5.08-5.42,13.74-17,33.93-19.72,48.14-7a30.66,30.66,0,0,1,10,23.84,62.81,62.81,0,0,0,9.8-9.08,51,51,0,0,1,9.29-8.62,28.55,28.55,0,0,0,0-3.22c-4.55-4-7.53-8.82-6.73-16.7,1.31-11.22,5.76-19.21,20.59-24.55,11.53-3.84,30.31-3.41,39.92,5.46a46.49,46.49,0,0,1,12.95,22.79h0c11-7.91,24.27-7.85,34.16,1,10.59,9.44,11.59,26.4,3.06,37.46a39.36,39.36,0,0,0,9.66-8.51c14.7-18.22,36.93-24.25,52.13-10.68a33.39,33.39,0,0,1,11.12,24.18C450.42,170.35,450,154.69,449,141.06Z"/>
  </g>
  <path class="sketchDarkest" d="M164.85,116.69c2.15,14,16.34,17.27,28.41,17.07,3.52-.06,6.18-2.12,6.52-7.24.86-16.52-7.47-26-21.11-30-13.51-3.45-27.37-3.85-37.65,2-9.63,5.5-14.58,16-14.51,28,0,11.12,3.14,22.28,11,27.69-2.18-4.06-3.08-9.17-.37-11.84,2.12-1.89,5-1.88,6.65.77a23.79,23.79,0,0,0,3.27,0c1.13-4.81,2.49-9,4.37-12C159.11,130.81,162.86,126.08,164.85,116.69Z"/>
  <g class="eyeBlob">
    <ellipse cx="182.61" cy="142.46" rx="4.32" ry="2.84" transform="translate(22.66 309.97) rotate(-84.28)"/>
    <ellipse cx="165.32" cy="142.46" rx="4.32" ry="2.84" transform="translate(7.09 292.77) rotate(-84.28)"/>
  </g>
  <g class="sketchLine">
    <path d="M138.35,189.65c-12.1-8.89-24.85-6.83-38,5.89-5.16,5.22-11.53,7.14-17.92,7.32"/>
    <path d="M129.67,206.55c-6.06-6.14-15.46-5.4-22.14,0-9.27,7.54-11,21.46-3.42,29.14a24.26,24.26,0,0,0,8.55,5.58"/>
    <path d="M112.74,219.21c1.42,4.38,5.14,5.63,8.8,5.16"/>
    <path d="M344.05,203.93a21,21,0,0,1,4.6-6.57c6.29-6,18.57-7.31,24.86-1.32,5,4.8,4.69,13.56-.35,18.36-4,3.83-10.19,5.48-14.22,1.64-3.22-3.07-2.53-7.72.69-10.79"/>
    <path d="M336.54,186.64c13.56-13.21,32-14.94,45.22-3.85,13.06,11,13.4,31.64,1.11,43.35-9.83,9.36-25.77,9.69-35.6.32-.31-.29-.61-.6-.89-.92"/>
    <path d="M325.43,195.8a16.32,16.32,0,0,0,2.49-1.22"/>
    <path d="M199.07,189.13c1.61-9.13-1-19-9.11-25.42"/>
    <path d="M186.09,182.11a11,11,0,0,0-2.89-5.65,11.49,11.49,0,0,0-3.5-2.4"/>
    <path d="M414.35,182.22c-3.44,3.5-4.53,8.44-1.08,11.94,4.31,4.37,10.68,3.41,15-1,5.39-5.47,5.51-16.75.13-22.21-6.74-6.83-20-5.08-26.77,1.75-8.41,8.54-8.91,25.81-.49,34.35,10.52,10.67,29,10.29,39.51-.38a34.57,34.57,0,0,0,9.93-24"/>
    <path d="M126.07,184.4a21.24,21.24,0,0,0,1.48-2.78"/>
    <path d="M111.35,178.08c3.42-3.53,3.87-7.63,1.05-11.08-2.49-3-10.61-4.72-15.54,0-5.32,5.1-4.55,16.58-.11,20.8a21.73,21.73,0,0,0,7.15,4.57"/>
    <path d="M68,171.11c19.52,13.52,18.15,37.21,5.86,49.67a24.93,24.93,0,0,1-35.6.35c-7.87-8-6.49-23,1.37-31,6.3-6.38,18.58-7.78,24.87-1.4,5,5.1,4.68,14.43-.35,19.53-4,4.08-10.2,5.83-14.22,1.75-3.23-3.27-2.54-8.21.68-11.48"/>
    <path d="M211.46,162.55c6.35-6,16.9-6.54,23.06-.3,5,5.11,5.73,13.73.7,18.84-4,4.08-9.5,4.78-13.52.7-3.22-3.27-2.54-7.52.68-10.78"/>
    <path d="M204.56,182.26a24.74,24.74,0,0,1,4.92-17.51"/>
    <path d="M254.57,172a31.75,31.75,0,0,1-2.06,10.48"/>
    <path d="M307.85,179.5a15,15,0,0,1-2.36,7.69"/>
    <path d="M273.19,193.52c-3.44-10.07.63-16.54,5-21.17"/>
    <path d="M322.31,183.24a33.41,33.41,0,0,1-2.23,8.57"/>
    <path d="M346.74,179.06a22.58,22.58,0,0,1-2.19-1.95c-6.85-7-5.66-17.6,1.2-24.54,5.48-5.56,15.27-4.75,20.27,1.25a8.72,8.72,0,0,1-.84,11.39c-4.47,4.24-10.22,2.35-12.9-1.51"/>
    <path d="M377.65,176.52c-.56.69-1.42,1.61-2,2.21"/>
    <path d="M221.62,127.78c-1.28,4.39-2.36,8.74-3.32,13.1"/>
    <path d="M175.43,148.43c5.74,2.3,3.12,9-3.11,7.38"/>
    <path d="M179,162.86a24.86,24.86,0,0,1-12,1.48"/>
    <path d="M305.14,151.71c-2.62-2.13-7.05-3.11-10.49-1.31"/>
    <path d="M286.94,150.07c-2.3-2.46-6.07-2.29-9-1.14"/>
    <path d="M293.34,161.72c-4.76,1.64-8.86-.66-8-4.1"/>
    <path d="M296.29,170.74c-3.91,1.14-7.47,1-10.5-1"/>
    <path d="M305.49,180.82c-6.51,2.73-12.63,2.9-18.29.18"/>
    <path d="M174.42,176a26.2,26.2,0,0,1-20-2.5"/>
    <path d="M140.88,157.59a4.84,4.84,0,0,0,4.6-1.63"/>
    <path d="M321.14,165a9.93,9.93,0,0,1-2.58-1.77"/>
    <path d="M235,252.37a6.51,6.51,0,0,1,4.37,5.94"/>
    <path d="M295.68,288.94a128.16,128.16,0,0,0,1-13.23"/>
    <path d="M313.8,348.58a7.62,7.62,0,0,0-2.65,3.74"/>
    <path d="M159.43,303.6c-1.07-7.49-.59-16.88.33-26.83"/>
    <path d="M137.27,345.19a13,13,0,0,1,3,5"/>
    <path d="M318.6,214.77c-.21-3.13-.16-5.17-1-7"/>
    <path d="M276.37,214.85a21.64,21.64,0,0,1,1.16-6.31"/>
    <path d="M189,212.5c0-2.88,0-5.55-.13-7.63"/>
    <line x1="142.26" y1="210.35" x2="143.19" y2="204.23"/>
    <path d="M270,291.55a32.94,32.94,0,0,0,1.2,5.93"/>
    <path d="M188.72,298.49a25.79,25.79,0,0,1-1.09,5.05"/>
    <path d="M151.39,131.06c-2.31-.09-4.33-.2-5.82-.33"/>
    <path d="M318,172.42a96.39,96.39,0,0,0,15.82,6.24,44.67,44.67,0,0,1-7.2,13.39,91,91,0,0,0,13.84,4.2,42.91,42.91,0,0,1-5.65,12.09c3.17.73,7.52-1.3,9.56-3.77a72.46,72.46,0,0,1-13.55-4.33,38.44,38.44,0,0,0,6.4-11.8,72.84,72.84,0,0,1-15.47-6.55,56.35,56.35,0,0,0,9.31-13.65"/>
    <path d="M238.52,260.08c-2.83,1.55-4.71.24-10.71-1.23s-10.3.7-10,5.22c.72,4.76,6.27,4.25,10.27,3.17,5.79-1.47,8.53,1,8.29,5.47-.48,4.27-7,4.49-10.41,3.06-10.14-4.29-9.07,4.13-9.07,4.13"/>
    <path d="M221.8,252.66a15.51,15.51,0,0,0-6.27,4.7"/>
  </g>
</svg>
