<svg class="presence" 
    xmlns="http://www.w3.org/2000/svg" viewBox="0 0 1606.34 982.08">
    <g class="sketchLightest">
        <path d="M1209.88,245.47c-25.92,57.24-39.21,119.73-41,187-24-57-15-130,3-189C1183.47,246.7,1196.3,247,1209.88,245.47Z"/>
        <path d="M1115.88,230.47a53.74,53.74,0,0,1-28-9c-13.82,52.86-24,127-6,193C1089.88,349.47,1098.88,283.47,1115.88,230.47Z"/>
    </g>
    <g class="sketchLighter">
        <path d="M926.4,506.1c5-.94,7.88,4.95,5,9.13a116.68,116.68,0,0,1-60.81,45.39c-9.23,3-24.44-4.24-29.73-21.15-5-16,2.09-27.48,11-28C871.12,513,897.88,511.47,926.4,506.1Z"/>
        <path d="M1029.28,457.77c11-9.59,21.66-26.4,24.12-43.86.62-4.41-3.87-8.17-7.85-6.19-21.45,10.65-40.33,18-57,19.51A256.05,256.05,0,0,0,1029.28,457.77Z"/>
        <path d="M1602.52,329a4.29,4.29,0,0,0-7.88-.74c-14.34,26.37-37.43,41.16-66,43.92-9.68-27.7-23.74-53.24-40.8-69.66-21.09-18.7-38.72-43.7-54-73-21.81-38.6-54.41-70.64-97.25-96.46h0c18-18.73,29.34-44.87,24.25-68.53-28,3-80,33-118,12-16-8-52-17-74-16-17,1-45.89-33.81-64-59-21,18-22,49-10,82-32.31,22.63-52.36,53.37-58,93-17.08,2-36.93,3.47-43,0a105.74,105.74,0,0,1-24-19c-7-7-12.14-15.52-14-25-2-17-11-35-22-41-35.4-19.43-72-25-104-8-19,10-25,30-24,50,1,22,27,27,33,24,5,7,26,12,44,7,0,0,38.43,37.55,49,64,11.65,25.54,26,52,47,68,25.39,18.13,62.08,26.19,93.49,30,1-38.25,7.68-75,15.51-105,14.23,11.09,43.12,13.92,53-3,2,11.94,13.7,19.68,31,25,11.59,3.23,24.42,3.53,38,2-25.92,57.24-39.21,119.73-41,187-13.15-31.25-16.38-67.3-13.65-103.21C1140,342.45,1104,335.2,1096.12,315q-2.59,14.7-4.88,29.83a77.79,77.79,0,0,0,14.06,8.75c19.23,23.81,35.67,50.5,51.58,80.88,8.71,17.87,22.3,31.18,39.92,43.22a125.28,125.28,0,0,0,39.94-23.36,9.36,9.36,0,0,1,12.34,0c12,10.44,27.76,19.6,36.75,24.44a15.6,15.6,0,0,1,8.26,13.3c.29,11.43-8.14,23.08-18.47,29.24,27.63,33.24,48.6,96.08,86.26,92.12-3.55,19.81-6,38-14,50-7,12-9,30-1,38,6,7,27,11,40,8,20.9-4.34,29.37-20.86,28-47-2.55-25-.82-49.53,6.87-73.56,13.12,16.43,30.83,32.51,48.13,39.56,10.8,38.08,13.32,75.4,6,112-2,17,7,42,15,45,22.27,6.12,42,4,60-9,9-7,10.24-37.86-1-60-13-31-23.21-68.31-18-90,3.63-18.22,9-34,3-57-3-16-1.7-23.59,0-39a300.56,300.56,0,0,0,6-109C1577.47,406,1616.22,373.81,1602.52,329ZM1102.88,117.47c9,9,24,18,25,32C1104.67,149.7,1098.64,137.34,1102.88,117.47Zm71.66,75.72c-8.08,10.76-17.12,18.37-28.31,23.22a8,8,0,0,1-9.48-2.4c-6.93-8.84-10.21-21.15-12.06-34.14a6.11,6.11,0,0,1,5.69-7A66.66,66.66,0,0,1,1173.25,185,5.82,5.82,0,0,1,1174.54,193.19Zm25.34-28.72c11-10,25.85-15.13,45-10C1235,170.06,1219.32,174.61,1199.88,164.47Z"/>
    </g>
    <g class="sketchMiddle">
        <path d="M1285.83,478.81c-9-4.84-24.77-14-36.75-24.44a9.36,9.36,0,0,0-12.34,0c-33.91,29.91-90.25,43-159.86,25.14-54-16-112-66-118-93-24-111-66-181-158-209-34.09-10.55-68.43-24.26-103-39-53.27-19.19-97-6-129,36-15,19-26,34-39,48a189.61,189.61,0,0,0-18.45,24.13c-22.76,6.71-45,12.56-66.55,14.87-67,7-121,19.32-158,39-76.06,35.34-144,84-172,146-33,67-33,153-3,228q3.66,9,8.15,18h0c-.34,48.95-14.68,93.53-49.39,115.32a2.64,2.64,0,0,0,1.88,4.82c39.72-6.66,56.75-49,64.79-89.53,12.78,20.47,27.61,40.68,42.57,60.42,15.19,28.59,17.32,65.55,3,104,23,26,132,27,152,4,4.73-27,3.53-54.57-2-86,9,27,16.12,49.1,17,72,28,14,114,15,134-3,2.12-12.72,1.25-29.12-2.16-43.86,49.07-2.6,95.69-13.08,126.16-26.14,8,9,17,17,28,26,18.52,15.85,20.06,37.94,14,68,35,16,126,15,143-6-5.3-17.23-7-40-8-58-1-38-13.65-69.22-30-98,14.9-6,27.56-16.35,39-29,12.86,6.21,26,9,45,12,26,5,47.13,39.85,65,75,8.46-21,29.42-32.32,59-37,23-4.73,40.37-16.84,50-39-16.45-23.26-30.45-47.46-41-73-9.48-19.19-24.83-32.66-46.64-39.85h0c2.69-10.41,1.46-22.49-1.36-34.15,33.12-7.28,66.12-8.15,99-2,84,14,171-8,246-45,13.12-4.35,25.56-18.51,25.21-32.36A15.6,15.6,0,0,0,1285.83,478.81Zm-525.95-9.34c-7-2-11-7-6-14,11-12,29-21.5,48-27,5.87,10.56,9.22,21.5,9,33C792.88,470.47,778.88,472.47,759.88,469.47Zm147,137c-9,3-21-11-39-17,14.37-5.8,28.3-11.24,39-14C910.88,588.47,910.88,602.47,906.88,606.47Zm24.54-91.24a116.68,116.68,0,0,1-60.81,45.39c-9.23,3-24.44-4.24-29.73-21.15-5-16,2.09-27.48,11-28,19.24,1.51,46,0,74.52-5.37C931.38,505.16,934.28,511.05,931.42,515.23Zm344.39-10.84a10.44,10.44,0,0,1-15,1.07c-9.43-8.43-14.17-19.11-12.67-32.41a2.51,2.51,0,0,1,4.12-1.62c9.52,8.08,17.77,12.56,27.62,17C1284.88,491.47,1281.65,497.42,1275.81,504.39Z"/>
        <path d="M1136.75,214c-6.93-8.85-10.21-21.16-12.06-34.15a6.11,6.11,0,0,1,5.69-7A66.66,66.66,0,0,1,1173.25,185a5.82,5.82,0,0,1,1.29,8.24c-8.08,10.76-17.12,18.37-28.31,23.22A8,8,0,0,1,1136.75,214Z"/>
        <path d="M635.88,830.47c-6.37-5.22-12.06-10.1-17.28-15l-46.3,1.09a445.2,445.2,0,0,1-90.58,14.08,131.31,131.31,0,0,1,2.91,19l163.24-3.85A47,47,0,0,0,635.88,830.47Z"/>
        <path d="M338.31,822.06l-2.87.07a273.2,273.2,0,0,1,2.34,31l8.94-.22A314.76,314.76,0,0,0,338.31,822.06Z"/>
        <path d="M190.77,815.58c-79.24-.19-147.28,19.24-184.89,53.89-9.73,9-4,16.54,9.3,23.31C76,852.84,128.09,840.12,192.33,843.31A123,123,0,0,0,190.77,815.58Z"/>
        <path d="M1430.88,878.47c-36.87-1.1-53.47-4-96-11-28-4-43-6-69-25-25-22-64.09-21.5-109-27q-41.49-2.07-83.88-3.36c-5.39,10.48-10.1,19.62-10.18,30.72q47.57,1.35,94.06,3.64c44.91,5.5,84,5,109,27,26,19,41,21,69,25,42.53,7,60,10,96,11a32.76,32.76,0,0,1,16,4.44,42.22,42.22,0,0,0,8-8.44C1465.88,893.47,1446.88,878.47,1430.88,878.47Z"/>
        <path d="M913.19,809.79q-64.41,0-130.43,1.47a178,178,0,0,1,2.12,23.21c.14,2.49.3,5.08.47,7.73q74.34-1.58,146.67-1.39Z"/>
        <path d="M1155.23,329.21c2.25-29.59,8.53-59.1,16.65-85.74-15.36-4.72-26.3-11.36-30-21.15-5.34,15.46-9,24.15-18,39.15s-17.06,42.44-20.77,63.42c18.06,15.38,44.24,12.45,52.1,4.38Z"/>
    </g>
    <g class="sketchDarker">
        <path d="M1127.88,149.47c-23.21.23-29.24-12.13-25-32C1111.88,126.47,1126.88,135.47,1127.88,149.47Z"/>
        <path d="M1244.88,154.47c-9.85,15.59-25.56,20.14-45,10C1210.88,154.47,1225.73,149.34,1244.88,154.47Z"/>
        <path d="M906.88,575.47c-10.7,2.76-24.63,8.2-39,14,18,6,30,20,39,17C910.88,602.47,910.88,588.47,906.88,575.47Z"/>
        <path d="M1248.14,473.05a2.51,2.51,0,0,1,4.12-1.62c9.52,8.08,17.77,12.56,27.62,17,5,3,1.77,8.95-4.07,15.92a10.44,10.44,0,0,1-15,1.07C1251.38,497,1246.64,486.35,1248.14,473.05Z"/>
        <path d="M801.88,428.47c5.87,10.56,9.22,21.5,9,33-18,9-32,11-51,8-7-2-11-7-6-14C764.88,443.47,782.91,434,801.88,428.47Z"/>
        <path d="M1067.88,767.47l-55-49c-9.63,22.16-27,34.27-50,39-29.58,4.68-50.54,16-59,37l34,56c11.11,12.48,26.73,15,44,14,18.71-2.79,34.35-10.69,49-21,8-5,11.16,1.3,12,9,1,8.24-6,18-8,31-3,26,43,25,39,0-1-12-6-18-10-31-4-18,4-30,12-46C1083.88,791.47,1078.88,776.47,1067.88,767.47Z"/>
        <path d="M1115.88,230.47c-8.18,25.51-14.51,54.81-19.76,84.55a24.44,24.44,0,0,0,7,9.87c3.71-21,11.77-48.42,20.77-63.42s12.7-23.69,18-39.15a21.19,21.19,0,0,1-1-3.85C1133.87,230.63,1115.88,230.47,1115.88,230.47Z"/>
        <path d="M906.88,575.47c-10.7,2.76-24.63,8.2-39,14,18,6,30,20,39,17C910.88,602.47,910.88,588.47,906.88,575.47Z"/>
    </g>
    <path class="sketchDarkest" d="M1430.88,909.47c-36-1-53.47-4-96-11-28-4-43-6-69-25-25-22-64.09-21.5-109-27q-46.45-2.31-94.06-3.64a43.33,43.33,0,0,0,1.06,9.64c4,13,9,19,10,31,4,25-42,26-39,0,2-13,9-22.76,8-31-.51-4.7-1.89-8.88-4.71-10.28l-4.45-.1a13.55,13.55,0,0,0-2.84,1.38c-14.65,10.31-30.29,18.21-49,21-17.27,1-32.89-1.52-44-14L932,840.81q-72.28-.22-146.67,1.39c1.08,16.48,3,35.42,7.53,50.27-17,21-108,22-143,6,4.32-21.41,4.77-38.78-2-52.72L484.63,849.6a104.28,104.28,0,0,1-.75,24.87c-20,18-106,17-134,3a147.79,147.79,0,0,0-3.16-24.61l-8.94.22a203.32,203.32,0,0,1-2.9,38.39c-20,23-129,22-152-4a149.21,149.21,0,0,0,9.45-44.16C128.09,840.12,76,852.84,15.18,892.77a181.08,181.08,0,0,0,24.7,9.7c24.89,8.24,46.46,19.32,65,33,39.22,24.43,91.56,35.41,155,35q118.65-1,231,7c74.89,4.62,153.12,4.63,234,1,82-4,166.79-4.47,254-2,120,4,267-6.13,387-32,34.71-8,64.69-17.29,81-30.57A32.77,32.77,0,0,0,1430.88,909.47Z"/>
    <g class="sketchLine">
        <path d="M1105.88,25.47c5.37,15,7.06,29.76,3,44"/>
        <path d="M1344.88,83.47c-7,19-36,24-41,45"/>
        <path d="M1244.88,154.47c6,0,11.56,0,17-3"/>
        <path d="M1102.88,117.47a30.47,30.47,0,0,1-7-10"/>
        <path d="M1209.88,245.47c20-2,29.93-11.68,32-26"/>
        <path d="M1087.88,221.47c-12-9-16-19-17-33"/>
        <path d="M1443.88,319.47a358.64,358.64,0,0,1-13,77c-2.6,14.24-1,28.22,4,42,17.9,36.82,18,88-8,114-6.24,5.77-13.14,10.06-22,10"/>
        <path d="M1380.88,544.47c-17.11,3.9-42-7-46-28"/>
        <path d="M1340.88,356.47c-4,27-5.67,56.92,5.51,77.62"/>
        <path d="M1353.88,428.47c-24.26,17.8-44,35-38,62,7,20,15,32,42,28"/>
        <path d="M838.88,157.47a25.83,25.83,0,0,1-6-12"/>
        <path d="M875.88,146.47c-2,24,24.63,27.35,52,17"/>
        <path d="M1361.88,613.47c11.19-.59,19.46-5.73,27-12"/>
        <path d="M1469.88,628.47c7.3,2.18,14.64,1.12,22-2"/>
        <path d="M479.88,374.47c8.21-8.22,18.7-8.54,30-6"/>
        <path d="M793.88,707.47c12.6-14.82,23-32.94,32-53"/>
        <line x1="754.88" y1="736.47" x2="745.88" y2="720.47"/>
        <path d="M607.88,804.47a208,208,0,0,1-33-34"/>
        <line x1="801.88" y1="428.47" x2="807.88" y2="426.47"/>
        <path d="M925.24,605.62a33.12,33.12,0,0,1-12.36,18.85c-10,6-27-5-65.92-5.55-31.26-.43-55.08-1.45-86.08-3.45-76.25-6.48-124-40-159-94-17.76,9.57-35.62,14.64-54-4a161.18,161.18,0,0,0-31-31c-35-17-71.45-79.35-37-112-6.24-15.19-8-35-1-57,4-10,12-23,16-37a160.77,160.77,0,0,1,16.55-33.87"/>
        <path d="M481.72,830.61c-99.84-.14-160.84-22.14-185.84-49.14"/>
        <path d="M119.88,692.47c5,11,10,21,17,31"/>
        <path d="M836.88,600.47c21.15-3.84,48-21.89,87-29"/>
        <path d="M1541.88,421.47c-2.39-16.26-7.54-33.16-13.19-49.33"/>
        <path d="M1274.88,520.47c35,16.9,61.46,20,87,23,6.62,11.81,27.75,20.63,43,19,3.6,7.9,9.51,17.22,16.87,26.43"/>
        <path d="M1177.92,347c31.27-16.42,54.79-40,72-66.52,9,.38,16.26,9.51,23,21q11.22-18.75,17-44c12.46-7.44,24.78-4.06,37,7,18.69-42,13.43-80.06-11-115A95.62,95.62,0,0,0,1336.63,133"/>
        <path d="M1105.34,353.61c14.89,7.08,31.39,8.5,49,3.6"/>
        <path d="M1036.84,176.44a182.52,182.52,0,0,0-1,41c4.84-5.19,9.88-11.88,16-14,3.23,32.55,15.68,50,23.93,79.72"/>
        <path d="M166.88,851.47c-56,5-102,20.42-129,44"/>
        <path d="M314.88,913.47c-41,13-109,3-133-9-15-7-24-20,4.07-29"/>
        <path d="M798.88,911.47c-41,13-127,12-151,1-23-9-26-21,4.07-27"/>
        <path d="M495.88,882.47c-28,20-121,20-157,2"/>
        <path d="M1173.88,864.47c22.3.31,56,4,75,17,29,21,53.89,30.37,86,34"/>
    </g>
    <g class="star">
        <path d="M855.89,79.71c1.8,17.35,5.63,33.66,16,41-11.21,2-14.69,20.92-17,39-1.15-18.27-3.72-34.78-16-40C850.89,113.71,853.18,97.51,855.89,79.71Z"/>
        <path d="M645.89,151.71c1.8,17.35,5,34,16,40-11.21,1.95-14.69,21.92-17,40-1.15-18.27-5-38-16-41C640.89,184.71,643.18,169.51,645.89,151.71Z"/>
        <path d="M552.89,674.71c1.8-17.34,5-34,16-40-11.21-2-14.69-21.91-17-40-1.15,18.27-5,38-16,41C547.89,641.71,550.18,656.91,552.89,674.71Z"/>
        <path d="M171.89,518.71c-1.8-17.34-5-34-16-40,10-3,14.69-21.91,17-40,1.15,18.27,5,37,16,41C176.89,485.71,174.61,500.91,171.89,518.71Z"/>
        <path d="M1495.94,459.71c-1.65-15.82-4.57-31-14.6-36.5,9.12-2.74,13.4-20,15.51-36.5,1.05,16.67,4.56,33.76,14.6,37.41C1500.5,429.6,1498.41,443.47,1495.94,459.71Z"/>
        <path d="M1113,561.71c-1.29-12.36-3.57-24.22-11.4-28.5,7.12-2.14,10.46-15.61,12.11-28.5.82,13,3.56,26.36,11.4,29.21C1116.6,538.2,1115,549,1113,561.71Z"/>
        <path d="M1481.08,598.71c-1.13-10.84-3.13-21.25-10-25,6.25-1.87,9.18-13.69,10.62-25,.72,11.42,3.13,23.13,10,25.63C1484.2,578.09,1482.78,587.59,1481.08,598.71Z"/>
        <path d="M700.08,589.71c-1.13-10.84-3.13-21.25-10-25,6.25-1.87,9.18-13.69,10.62-25,.72,11.42,3.13,23.13,10,25.63C703.2,569.09,701.78,578.59,700.08,589.71Z"/>
        <path d="M1378.08,689.71c-1.13-10.84-3.13-21.25-10-25,6.25-1.87,9.18-13.69,10.62-25,.72,11.42,3.13,23.13,10,25.63C1381.2,669.09,1379.78,678.59,1378.08,689.71Z"/>
        <path d="M713,810.71c-1.29,12.36-3.57,24.23-11.4,28.5,7.12,2.14,10.46,15.62,12.11,28.5.82-13,3.56-26.36,11.4-29.21C716.6,834.22,715,823.39,713,810.71Z"/>
        <path d="M1202,392.71c-1.29,12.36-3.57,24.23-11.4,28.5,7.12,2.14,10.46,15.62,12.11,28.5.82-13,3.56-26.36,11.4-29.21C1205.6,416.22,1204,405.39,1202,392.71Z"/>
        <path d="M213,781.71c-1.29-12.36-3.57-24.22-11.4-28.5,7.12-2.14,10.46-15.61,12.11-28.5.82,13,3.56,26.36,11.4,29.21C216.6,758.2,215,769,213,781.71Z"/>
        <path d="M1140.85,138.71c1.64-15.82,4.56-31,14.6-36.5-9.13-2.74-13.4-20-15.51-36.5-1,16.67-4.57,33.76-14.6,37.41C1136.29,108.6,1138.37,122.47,1140.85,138.71Z"/>
        <path d="M938.94,718.71c-1.65-15.82-4.57-31-14.6-36.5,9.12-2.74,13.4-20,15.51-36.5,1,16.67,4.56,33.76,14.6,37.41C943.5,688.6,941.41,702.47,938.94,718.71Z"/>
    </g>
</svg>
