<svg viewBox="0 0 1273.3 1158.76">
    <path class="mountain" d="M1267.68,401.18c-4.43-51.13-8.5-95.47-26.94-151.29-73.66,22.95-145.27,29.61-212.31.23-89-32.44-172.43-35.77-252.62,1.63-47.08,22-91.2,31-128.79,23.09-10.32,28.43-20.1,58.68-29,88.39q-4.85-16.46-11.42-33.76c-76.2-26.57-156.45-41-205.62-14.41-62.67,33.12-119.39,41.1-189.3,13.72C156.55,303.25,103.27,295,52.3,308.58,20.49,388,1,475.4,1,558.86H1272.28S1272.87,470.73,1267.68,401.18Z"/>
    <path class="mountainOverlapLine" d="M618,363.23c-18.07,61.94-22.52,121-36.14,195.63"/>
    <g class="snow">
        <path d="M440.05,117.12c-72.42-32.29-153.19-35.63-221.88-19-37,8.14-60.43,27.75-81.08,56.09-32.84,44.47-62,97.37-84.79,154.34,51-13.63,104.25-5.33,159.34,20.2,69.91,27.38,126.63,19.4,189.3-13.72,49.17-26.59,129.42-12.16,205.62,14.41-10-26.28-23.06-54.16-39.57-84.22C536.25,188.42,496.37,140.32,440.05,117.12Z"/>
        <path d="M775.81,251.75c80.19-37.4,163.61-34.07,252.62-1.63,67,29.38,138.65,22.72,212.31-.23a607.57,607.57,0,0,0-37.59-100.46c-29.22-69-68.65-118.31-128.55-134.86C999.56-4.92,924.17-4,846.69,21,786.46,41.25,740.27,79.07,710.16,133.9c-22.5,39.1-43.7,87.44-63.14,140.94C684.61,282.78,728.73,273.76,775.81,251.75Z"/>
    </g>
    <path class="cloud" d="M1240.33,447.66c-43.44-38.77-107-21.55-149,30.5-10,11.47-18.82,19.3-27.6,24.32,24.36-31.6,21.51-80.05-8.72-107-35.36-31.56-85.63-24-119.82,18.41-13.29,15.19-32.89,31-48.74,37.88-35.77-42.59-97.55-45.44-146.37,11.86a180.27,180.27,0,0,1-28,25.94c.69-25.12-8.88-50.39-28.74-68.12-40.58-36.22-98.28-28.5-137.52,20.13a221.3,221.3,0,0,1-21.56,22c-32-22.87-72.5-24.67-115.45,22.1-20.47,23.39-36,34.6-59.67,31.45,0,0,21-42.83-18.26-76.61-31.42-27-74.86-22.95-104.76,14.1-17.31,20.75-39.58,31-47.26,32.48C139.76,463.21,90,474.81,55,518.25,36.67,539.14,20.22,554.7,1,558.86v598.9H1272.12V520.23A95.54,95.54,0,0,0,1240.33,447.66Z"/>
    <g class="cloudDisplayLine">
        <path d="M306.88,624.47c7,21.52,33.48,16.55,44.9,5.66,9-8.56,14.69-29.58.84-43.63-17.32-17.56-41.53-13.65-60.61,1.86-26.49,21.56-31.43,61.33-9.78,83.28,27.06,27.44,74.93,28.48,102,1,33.82-34.3,39.35-95.46,2.93-127-36.68-31.77-75.53-27.69-115.62,11.13-14.76,14.93-33,20.4-51.22,20.94"/>
        <path d="M890,563.26c19.21-3.91,29.74-3.37,48-23,39.24-45.69,96.93-53.88,137.52-19.85,37.31,31.28,38.29,90.39,3.18,123.83-28.09,26.76-73.63,27.7-101.72.94-22.47-21.4-18.54-61.75,3.93-83.15,18-17.13,53.07-20.88,71.05-3.76,14.38,13.7,13.38,38.73-1,52.43-11.51,11-29.13,15.66-40.64,4.7-9.2-8.77-7.24-22,2-30.82"/>
        <path d="M473.61,526.73c-8,8.14-9.73,20.46-1.71,28.59,10,10.17,25.39,5.82,35.42-4.35,12.54-12.72,13.41-35.94.87-48.65-15.67-15.89-46.25-12.41-61.92,3.48-19.59,19.87-23,57.3-3.43,77.16,24.48,24.83,64.18,24,88.67-.87,30.6-31,34-89.54-7.2-118.59"/>
        <path d="M1168.65,518.77c-9.86,10-13,24.12-3.1,34.11,12.31,12.49,30.52,9.74,42.83-2.75,15.39-15.61,15.75-47.85.35-63.46-19.24-19.51-57.22-14.48-76.46,5-24,24.39-25.45,73.73-1.4,98.12,30.06,30.48,82.8,29.41,112.87-1.07a98.7,98.7,0,0,0,28.38-68.52"/>
        <path d="M345,525a61.34,61.34,0,0,0,4.23-8"/>
        <path d="M302.93,506.94c9.76-10.09,11.05-21.79,3-31.64-7.1-8.66-30.31-13.49-44.39,0-15.21,14.57-13,47.34-.31,59.41a61.8,61.8,0,0,0,20.42,13"/>
        <path d="M178.91,487c55.79,38.65,51.86,106.31,16.75,141.91-28.09,28.49-73.63,29.49-101.72,1-22.47-22.78-18.54-65.73,3.93-88.51,18-18.23,53.07-22.23,71-4,14.39,14.58,13.39,41.22-1,55.81-11.5,11.66-29.13,16.66-40.63,5-9.21-9.34-7.25-23.47,2-32.8"/>
        <path d="M712.13,489.54a89.81,89.81,0,0,1-25.56,60.7c-28.09,28.49-73.63,29.49-101.72,1-22.47-22.78-18.54-64.73,3.94-87.52,18-18.23,49.06-20.23,67-2,14.38,14.59,16.38,39.23,2,53.82-11.51,11.66-27.13,13.66-38.64,2-9.2-9.34-7.24-21.47,2-30.8"/>
        <path d="M886.5,451.73c28.34,34.71,26.39,90-5.68,122.55-28.09,28.49-73.63,29.49-101.72,1-22.47-22.78-18.54-65.73,3.93-88.51,18-18.23,53.07-22.23,71-4,14.39,14.58,13.39,41.22-1,55.81-11.5,11.67-29.13,16.67-40.63,5-9.21-9.34-7.25-23.47,2-32.8"/>
        <path d="M975.45,509.75a66.21,66.21,0,0,1-6.25-5.58c-19.58-19.86-16.16-50.27,3.42-70.12,15.66-15.89,43.64-13.57,57.92,3.57,7.18,8.62,6.7,23.94-2.39,32.55-12.78,12.11-29.21,6.71-36.87-4.3"/>
        <path d="M1063.77,502.48a83.81,83.81,0,0,1-5.79,6.32"/>
    </g>
    <g class="post">
        <path d="M671.17,548.72h21.52V470.11c0-11-21.51-11.34-21.52,0Z"/>
        <path d="M583.28,548.72H604.8V470.11c0-11-21.51-11.34-21.52,0Z"/>
    </g>
    <path class="plank" d="M675.93,548.72H600C563.12,746.28,236,1072.37,1,1157.76H1272.12v-1C1037.38,1069.73,712.7,745.48,675.93,548.72Z"/>
    <g class="suspenders">
        <path d="M675.93,485.15v63.57c36.77,196.76,361.45,521,596.19,608V823C1042.11,802.29,772.91,656,675.93,485.15Z"/>
        <path d="M1,823.24v334.52c235-85.39,562.12-411.48,599-609V485.15C502.66,656.66,231.63,803.51,1,823.24Z"/>
    </g>
    <g class="rope">
        <path d="M675.93,475.3v9.85c97,170.8,366.18,317.14,596.19,337.83V787.32C1078.53,787.71,772,644,675.93,475.3Z"/>
        <path d="M600,485.15C502.66,656.66,231.63,803.51,1,823.24V787.31c193.42,1.81,502.51-142.49,599-312Z"/>
    </g>
    <g class="bennettShoe">
        <path d="M417.35,976.63c8.21,7.38,9.37,16.6,9.17,32.76-.64,13-7,19.35-16.82,24.75-39.65,19-84.7,20.94-102.15,6.66-20.94-17.13,2.22-62.18,31.65-66.48Z"/>
        <path d="M547.07,893.91c9.48,8.16,14.59,18.72,15.23,34,1,22.52-.95,47.9-11.74,68.21-10.79,19.35-27,28.87-47.59,26-14.27-2.54-26.33-10.47-29.5-23.16-5.71-23.16,5-49.29,14.91-75.19Z"/>
    </g>
    <path class="bennettPants" d="M551.35,899.83c-.47-13.29-12.7-33.23-27.38-48.86,3.17-27.9,4.25-56.37,4.61-85.67.5-18.83-2.12-28.93-5.83-41.32L379.21,731.4c-19.31,96.52-34.5,202.8-40,242.92,13.81-2.24,28.3,1.49,37.77,10.09,16.27.91,32.38-1.16,40.38-7.78,5.4-32.85,16-74.87,22.94-111,9.47,24.52,23.5,49,44.22,68.69C509.35,949.26,553.93,928.43,551.35,899.83Z"/>
    <path class="bennettShirt" d="M524.82,605.29c-.94,47.41,4.35,112.3,1.46,122.4-12,4.8-18.26,16.34-33.65,24.51-37.49,20.19-105.74,1.92-115.84-14.9-1.92-13.46,6.25-87,14.44-138.14-11.12-51.56,11.89-68.68,61.51-58.94C513.75,527,536.84,549.55,524.82,605.29Z"/>
    <g class="skinEastAsian">
        <path d="M425.91,493.85c-18.56-9.73-33.1-26.11-38.62-45.44a23.78,23.78,0,0,1-9.76-9.88c-80.2-101.68,139.4-182.38,162.33-68.17A104.43,104.43,0,0,0,535,420.19c5.1,36.89-15.86,72.24-51.89,80.82a116.65,116.65,0,0,0,2.7,24.75c-22.45,11.17-44.47,12.14-65.9-1A84.39,84.39,0,0,0,425.91,493.85Z"/>
        <path d="M348,686.11c-19.59,16.82-39.07,31.82-58.38,43.69-7.77,4.39-11.37,10.05-12,16.63-2.95,12.79-11.11,22.57-23.91,28.49-10.21,4.3-17.63-4.44-8.73-17.17,9.77-15,3.74-22.82-8.17-18.66-12.38,4.46-28.21,10.1-41,14.17,11.23-22,33.2-42.49,57.65-40,12,2,22.36-.89,33.07-8.24,13-9.7,25.94-22.77,38.87-37.65Z"/>
        <path d="M593.67,669.07c8.57,20.33,18.61,39.07,28.63,58.24l44,13.92c13.17,18.06,10.83,48.57,0,61.46-7.69,9-15.77,11.62-26.46,12.14-14.4.28-32.86-8.08-35.26-17l-1.23-60.37Q584.89,710.71,568.87,682Z"/>
    </g>
    <path class="bennettSleeves" d="M484.56,519.05c-22.16,9.94-43.1,11.12-62.09-1.76-19.84,4.11-35.23,12.41-45,26-14.61,21.63-23.29,45.22-32.44,67.53-6.57,16.84-17.19,36.93-29.24,58.17,5.27,8.77,24.27,19.58,35.67,19,17.65-29.35,31.27-56.71,39.75-88.86C402.5,579,413.16,561.23,426.31,543c11.11,6.72,39.17,6.14,55.25-1.17,9.64,21.63,26.89,50,43.26,63.43,12.42,31.92,26.56,60.13,43.26,83,12.28,3.22,33.33-15.78,32-24.55-6.52-14-21.14-38.3-28.16-55.54-8.18-18.71-12-36.25-23.67-58.47-10.86-19.88-26.6-35.37-45.9-32.46C495.59,518.18,490.62,519.35,484.56,519.05Z"/>
    <path class="hairBlack" d="M455.77,331.55c6.14,40.12,40.69,48.06,72,49.56,14.8.43,26.82-6.86,27.77-21.49,2.49-47.18-21.33-74.43-60.29-85.76-38.62-9.87-78.21-11-107.59,5.71-27.49,15.7-41.66,45.75-41.44,79.87,0,31.76,9,63.64,31.29,79.09-6.22-11.58-8.79-26.2-1-33.81,6-5.39,14.37-5.37,19,2.2a67.84,67.84,0,0,0,9.35,0c3.24-13.74,7.12-25.84,12.48-34.31C439.37,371.89,450.1,358.37,455.77,331.55Z"/>
    <g class="sashaShoe">
        <path d="M917.23,984c24.7,3.55,37.17,17.56,40.17,39.66,1.27,11.34-4.47,20.71-13.61,24-36.36,10.76-85.71.2-98.1-16.45-10.15-14-7.51-37,3.86-50.77C869.53,974.42,892.53,976.86,917.23,984Z"/>
        <path d="M790.63,923.55a95.05,95.05,0,0,1,3.17,45.56c-3.64,16.46-13.85,27-28.92,29.32-19.55,2.31-34.44-3.29-41.68-21.65-7.94-20.68-.68-47.94,10.38-73Z"/>
    </g>
    <path class="sashaPants" d="M917.23,984c-8.72-99.67-11.52-193.19-20.58-255.29l-133.82-3.47c-9.69,28.76-10.14,65.58-6.53,105.94-12.67,25.36-22.22,50.48-26.08,75.15,3.95,24.34,48.63,32.63,62.1,23.59,13.32-20.76,21.55-42.63,28.63-63.26,4.4-11.75,5.95-26,8.63-42.93,6.38,51.64,9.24,117.3,16.77,159.6,4.81,5.71,19.76,9.5,35,10.8C891.55,985.79,903.49,982.35,917.23,984Z"/>
    <g class="skinWhite">
        <path d="M766.78,429.78c.4,7.27-.65,13.23-.65,21.05-.62,21.87,14.4,48.51,39.21,64.46-.24,9.55-2.36,22.65-4.52,32.42h57.82c-1.13-12.5-1.68-23.88-1-32.94a107.08,107.08,0,0,0,34.5-28C1099.29,401.43,696.14,220.82,766.78,429.78Z"/>
        <path d="M922.59,578c30.41,44.65,60.48,87.65,92.61,123.19,8.31,8.31,18.27,12.25,28.1,14.52,18.74,4.94,30.2,18.68,36.27,37.39q-22.63-7.12-44-15.31c-5.49-.43-13.11,4-9.72,12.16,3.83,9.23,5.39,16.82,4.86,26.87-.84,8.68-13.33,13.12-19,4.77-7.83-12.17-15.34-29.73-14-41.58.84-10.16.74-17.46-4.32-25.48-5.1-8.27-63-69.61-89.35-113.71Z"/>
        <path d="M748.83,583.73c-15.17,28.34-30.54,54.83-46.27,78.25-15.21,18-30.66,37.2-46.28,57.21-16.83-6.69-39.89-1.39-50,8.07-21,20.06-19.37,43.82-1.7,70.6-1-14.84,10.81-18.72,25.92-11.79,9.41,4.53,28.36,3.46,29.75-8.76.69-12.69-7.15-19.84-23.7-15.63-11.42,3.08-27.27,4.56-29.35-9-.92-12.92,11.31-17.53,28.51-14.93,11.39,1.55,16.34,5.55,25.84,5.07,6.15-.39,7.49-4.8,7.26-6.6,16.69-13.25,35.8-33.57,52.72-54.42a519.59,519.59,0,0,0,48.37-77.41Z"/>
    </g>
    <g class="eye">
        <ellipse cx="506.52" cy="405.18" rx="12.34" ry="8.12" transform="translate(52.89 868.81) rotate(-84.28)"/>
        <ellipse cx="457.12" cy="405.18" rx="12.34" ry="8.12" transform="translate(8.41 819.65) rotate(-84.28)"/>
    </g>
    <g class="skinDisplayLine">
        <path d="M486,422.24c16.4,6.56,8.9,25.77-8.9,21.08"/>
        <path d="M496.32,463.47a71,71,0,0,1-34.2,4.21"/>
        <path d="M856.61,431.61c-7.5-6.09-20.15-8.9-30-3.75"/>
        <path d="M804.6,426.92c-6.56-7-17.33-6.56-25.77-3.28"/>
        <path d="M822.88,460.19c-13.59,4.68-25.3-1.88-23-11.71"/>
        <path d="M831.31,486c-11.18,3.27-21.33,2.89-30-2.81"/>
    </g>
    <g class="skinOverlapLine">
        <path d="M857.61,514.77c-18.61,7.8-36.09,8.29-52.27.52"/>
        <path d="M483.12,501q-30.62,7.83-57.21-7.16"/>
        <path d="M387.29,448.41c5.25.74,9.67-.71,13.14-4.65"/>
        <path d="M902.33,469.56a28.73,28.73,0,0,1-7.4-5.05"/>
        <path d="M656.28,719.19c8.29,3.57,12.07,9.42,12.49,17"/>
    </g>
    <path class="sashaShirt" d="M928.26,576.67c-6.37,17.11-17.28,29.92-33.2,35.09.51,29.1,3.59,74.14,6.56,119.31-19.5,14.68-117,20.49-142.44-3.8,8-43.82,14.63-85.16,15.22-115.26a133,133,0,0,1-33.16-32.08c13.21-24.37,33.08-40,61.85-44,12.1,14.19,43,14.19,55.18,0C890,537.25,914.39,549.32,928.26,576.67Z"/>
    <g class="clothesOverlapLine">
        <path d="M829.58,823.68a368.36,368.36,0,0,0,2.92-37.8"/>
        <path d="M881.33,994.08c-4,3.54-6.45,6.64-7.55,10.7"/>
        <path d="M440.29,865.59c-3.05-21.42-1.69-48.26.95-76.67"/>
        <path d="M377,984.41a37.25,37.25,0,0,1,8.59,14.17"/>
        <path d="M895.06,611.76c-.61-8.93-.45-14.77-2.72-20"/>
        <path d="M774.4,612c0-4.34,1.47-13.69,3.3-18"/>
        <path d="M524.82,605.29c.13-8.22.1-15.87-.37-21.81"/>
        <line x1="391.23" y1="599.16" x2="393.9" y2="581.67"/>
        <path d="M756.3,831.13a90.74,90.74,0,0,0,3.43,16.94"/>
        <path d="M524,851a72.59,72.59,0,0,1-3.12,14.43"/>
    </g>
    <path class="hairSandy" d="M821.55,360.3c-16.35,22.48-34.74,38.83-54.36,46.19a66.58,66.58,0,0,1-.41,23.29c-13-11.42-21.52-25.22-19.22-47.71,3.72-32.06,16.45-54.9,58.8-70.15,32.95-11,86.62-9.74,114.07,15.59C948,353.58,965,395.22,959.93,435c-3.54,20.19-14.35,32.94-29.26,43.8,8.54,38.38,22.26,71.9,38,103.8,26,10.46,28.24,30.45,19,64.09-27-6-50.77-25.39-46.33-53.32-16.82-35.86-39.76-73.67-49.27-106.68a42.7,42.7,0,0,0,10.22-17.16c12.47,4.38,24.23-4.49,25.48-21.8,1.3-15.25-8-22.61-23.33-14.4C866.88,421.91,838.71,396.68,821.55,360.3Z"/>
    <path class="hairOverlapLine" d="M417.31,372.61c-6.6-.26-12.37-.57-16.63-.95"/>
    <path class="hairDisplayLine" d="M893.34,490.77a275.91,275.91,0,0,0,45.22,17.82A127.75,127.75,0,0,1,918,546.85a259.93,259.93,0,0,0,39.55,12c-2.76,11.14-8.69,22.73-16.14,34.54,9.06,2.07,21.48-3.71,27.3-10.77A208,208,0,0,1,930,570.27a110.35,110.35,0,0,0,18.28-33.74,206.59,206.59,0,0,1-44.21-18.71c9.76-10.27,18.73-23.22,26.62-39"/>
</svg>
