<svg viewBox="0 0 510.27 391.02">
  <path class="bennettFloor" d="M92.22,345.3c34.85,54.51,139.37,59.62,187.14,12.93C314.21,397,403.56,390,426.6,345.86,457.75,351.77,482,336.25,496,313H23.74C37.22,337.18,62.75,353.93,92.22,345.3Z"/>
  <path class="bennettWall" d="M480,203.68c42.71-56.76-1.68-156.23-79.24-155.11C378.27,1,301.84-9.88,264.16,30,212.49-20.55,118.07-2.57,92.22,64.87,19.16,63.74-28.61,185.7,22,243.58,9.29,264.2,11.77,291.52,23.74,313H496C516.52,278.76,514.79,227.77,480,203.68Z"/>
  <path class="steelMediumLight" d="M30.21,181.36h7.51q0,22.44.48,44.86H30.7Q30.18,203.8,30.21,181.36Z"/>
  <path class="steelMedium" d="M20,226.22c9.66-.47,19.26-.47,28.92,0,.1,4.07.16,6.11.29,10.18H20.28C20.15,232.33,20.09,230.29,20,226.22Z"/>
  <path class="lampShade" d="M20.25,137.09a165.28,165.28,0,0,1,28.92,0q2.74,22.14,6,44.21H12.76Q16.24,159.14,20.25,137.09Z"/>
  <path class="nightstand" d="M22,243.58c-14.18,23-9.41,54.48,6.39,76.74H58.53V233.6H14.59A77.19,77.19,0,0,0,22,243.58Z"/>
  <g class="cushion">
    <polygon points="425.3 327.36 93.83 327.36 94.71 294.19 424.41 294.19 425.3 327.36"/>
    <path d="M424.41,294.19c0-42.53.16-79.23.16-103,.58-15.8-6.56-25.26-17.52-24.85q-63.1,1.92-127.66.08c-13.51-.16-20.58,7.14-20.46,20.46.63-12.7-4.43-20.92-20.45-20.46-40.87,1.08-84,1.3-125.92.51-13.55-.06-20.38,7.15-18.87,27l1,100.34Z"/>
    <path d="M451.38,229.14c-15,.47-25.42,7.47-26.08,23-1,22.88-1.55,53.69,0,75.19h40.3c-.39-4.86-.94-41.48,0-54.87,6.56-1.92,10.41-6.1,11.18-13.89C478.37,241,469,228.67,451.38,229.14Z"/>
    <path d="M93.84,252.17c-1.28-15.52-11.12-22.56-26.08-23-17.64-.47-27,11.82-25.41,29.46.77,7.79,4.63,12,11.18,13.89.94,13.39.4,50,0,54.87H93.84C94.72,304.3,95.29,269.88,93.84,252.17Z"/>
    <path d="M424.41,294.15l.15-28.2c0-3.72-1.39-4.88-4.81-4.7-10.71.57-17,.39-27.66,1.3-11.29.83-18.39,5.13-22.38,9.08a.44.44,0,0,1-.32.13l-93.06-1.88a.44.44,0,0,1-.29-.11c-2.15-2-6.22-5.15-9.49-6.21-3.9-1.11-7.34.29-7.62,4.51-.14-4.2-4.16-6.24-8.32-6.15a59.67,59.67,0,0,0-20.21,4c-5.45,2.06-7.52,5.24-10,8.31a.47.47,0,0,1-.37.17l-78.48-3.32a.4.4,0,0,1-.26-.1c-6.32-5.08-11.84-7.78-18.37-8.49a213.33,213.33,0,0,0-23.08-1c-2.65.05-5.17,1.77-5.17,4.18v28.05a.45.45,0,0,0,.45.44S424.41,294.39,424.41,294.15Z"/>
  </g>
  <g class="cushionLight">
    <path d="M266.55,263.56c3.27,1.06,7.34,4.21,9.49,6.21a.44.44,0,0,0,.29.11l93.06,1.88a.44.44,0,0,0,.32-.13c4-3.95,11.09-8.25,22.38-9.08,10.62-.91,17-.73,27.66-1.3,3.31-.17,4.72.91,4.81,4.34l0-4.32a4.53,4.53,0,0,0-4.53-4.55c-18-.89-35.42.33-53,1.91-29.34,2.65-59.28,1.93-89-1.18-3.58-.38-6.8-1.06-11.26-.73-6.62.87-7.95,4.71-7.87,11.35C259.21,263.85,262.65,262.45,266.55,263.56Z"/>
    <path d="M99.89,261.52a213.33,213.33,0,0,1,23.08,1c6.53.71,12.05,3.41,18.37,8.49a.4.4,0,0,0,.26.1l78.48,3.32a.47.47,0,0,0,.37-.17c2.43-3.07,4.5-6.25,10-8.31a59.67,59.67,0,0,1,20.21-4c4.16-.09,8.18,1.95,8.32,6.15-.15-7.07-1.26-11.3-8-11.35-9.44-.3-18.24.07-26.11,2.13-27.88,7.31-58.17,4.91-86.51.19a177.28,177.28,0,0,0-39.06-2.32,4.56,4.56,0,0,0-4.56,4.56v4.42C94.72,263.29,97.24,261.57,99.89,261.52Z"/>
  </g>
  <line class="cushionBorderLine" x1="258.93" y1="186.83" x2="258.93" y2="294.19"/>
  <g class="bennett">
    <path class="bennettShoe" d="M340.85,315.23c4.19,6.38,4.91,15.88,3.34,19-2.86,5.25-19.26,10.27-32.89,8-5.4-1-6.69-4.52-7.57-8.47-4.47,1.92-9.08,2.68-12.27-.28-6.52-6.23-6.44-13.63-.7-21.42,2.61-3.6,4.48-6.28,8.37-9.38C318.13,285,331.34,292.2,340.85,315.23Z"/>
    <path class="bennettJeans" d="M375.37,248.52c3.14,20.92-7.19,36-30.09,32.82a204.1,204.1,0,0,1-2.7,34.58c-4.26,2.47-12.79,3.14-18.18,1.12-.55-7.36-4.16-13.61-9.88-19.09-6.17,5.88-14.13,8.57-23.35,9-9.59-14-17.24-27.39-20.66-39.52-2.24-13.47,5.39-22,18-22.68C322.66,229.61,350.39,234.74,375.37,248.52Zm-61.09,21.8a15.29,15.29,0,0,1-7.35,2.92,86.42,86.42,0,0,1,5.72,14.94C312.49,280.12,312.55,274.84,314.28,270.32Z"/>
    <path class="bennettSleeves" d="M347.4,155.24c11.73,2.3,20.23,8.2,25.41,17.8,6.09,10.92,16.88,42.72,16.88,42.72,4.51,10.65,1.5,15.13-4.38,18.21-6.87,2.94-11.26-2.05-13-6.73C367,210.76,358.91,199.59,357,186L305,196.15A31.79,31.79,0,0,0,294,207.48a16.86,16.86,0,0,0-1.55,6.21c-1,6.28-9.29,9.16-15.44,5.4-3.89-6-3.2-10.73.25-17,8.08-14.28,14.58-27.5,22.8-35.68,3.53-3.54,8.27-6,14-7.57Z"/>
    <path class="shirtWhite" d="M357,186a50.36,50.36,0,0,1-15.41-19.72c-8.58,2.54-17,3.32-25.13.88a129.12,129.12,0,0,0-11.31,18.81c-1.33,12,1.18,42.73,3.23,71.26,9-1.06,19.89-4,31.59-7.79,12.49-4.26,25.41-4.55,35.41-.88C373.21,227.25,363.47,208.26,357,186Z"/>
    <g class="banjo">
      <polygon class="banjoNeck" points="432.21 190.97 435.32 206.84 437.76 205.89 435.15 192.03 432.21 190.97"/>
      <path class="banjoSide" d="M315.81,260.2l8.32-2.15c13.71-3.09,21.87-18.62,18.25-34.68S324.71,196.8,311,199.9L302.68,202Z"/>
      <polygon class="banjoHeadstock" points="409.42 199.96 432.21 190.97 435.32 206.84 411.76 209 409.42 199.96"/>
      <polygon class="banjoFretboard" points="332.6 220.71 409.42 199.96 411.76 209 334.85 231.12 332.6 220.71"/>
      <ellipse class="banjoHead" cx="309.25" cy="231.12" rx="25.43" ry="29.81" transform="translate(-43.31 73.78) rotate(-12.72)"/>
    </g>
    <g class="skinEastAsian">
      <path d="M348.31,140.1c-1.74,4.2-2.16,9.46-1.38,15.35-7.18,6.59-24.48,10.12-32.37,3.53a8.77,8.77,0,0,0-.11-2.59c-12.79-4.62-20.95-17.18-20-29.89a92,92,0,0,0,.23-15.07,130.9,130.9,0,0,1,.24-29.3h70.15C370.25,112.52,364,131.3,348.31,140.1Z"/>
      <path d="M290.41,212.19c-3.89-2.26-12.3,1.13-13.43,5.14,3.77,5,6.28,6.4,9.67,10.17,2,1.62,3.19,5.07,3.76,8.15.75,3.39,2.89,6.15,6.4,8.54,3.31,2.65,7.88,2.83,12.3,1.38,6-2.23,10.54-7.91,9.91-12.8-1-5-4.73-6.29-9.91-5.65,4.62-3.71,6.9-7.78,5.77-11.29-.5-2.14-4-3.14-6.78-1s-6.4,5.4-10.66,3.77C294.81,217.56,292.56,215.07,290.41,212.19Z"/>
      <path d="M379,218.42a9.83,9.83,0,0,0-3,6c-.48,4.34,3.73,9.57,7.32,8,4.61-2,8.55-2.31,14.11-2.31,7.26-.2,12.95-4.68,13.8-11.43.26-4.95-1.12-9.46-5-12-4-2.23-7.49-1.25-11.53.89-3.81,1.93-7.6,5-7.78,8.59Z"/>
    </g>
  </g>
  <g class="eyeBlob">
    <ellipse cx="321.95" cy="116.85" rx="2.51" ry="5.03" transform="translate(-3.88 11.31) rotate(-2)"/>
    <ellipse cx="304.04" cy="116.1" rx="2.51" ry="5.03" transform="translate(-3.87 10.68) rotate(-2)"/>
  </g>
  <g class="liz">
    <path class="lizShoe" d="M213,300.48a64.87,64.87,0,0,1,11.37,19.6c2.21,6,2.36,11-.93,15.51-4.2,4.82-10.72,6.12-16.12,2.29-5.13,3.55-12.57,5.65-18.75,2.53-7.2-3.57-16.89-12.15-20.55-22-2.51-7.33.54-12.89,5.64-17.8Z"/>
    <path class="lizJeans" d="M201.06,240.8a56.81,56.81,0,0,1,18.38,15.49A26.48,26.48,0,0,1,224.08,273c-1,9-4.21,18.7-9.43,29.43-2.61,4.64-12.17,6.23-18.55,2.32-3.62,5.65-13.62,6.66-19.28,2.17-3.62-2.75-4.63-7.1-5.79-13.33a81.9,81.9,0,0,1-1.42-14.06c-10.16,2.8-21.53-1.05-27.4-5.16-10.45-7.18-11.22-17.26-6.41-28.76C155.83,237.92,177.69,236.69,201.06,240.8Z"/>
    <path class="lizShirt" d="M182.4,168.36a26,26,0,0,1,13.35,4.88c4.09,3.32,6.43,8.24,7.77,12.58a14.8,14.8,0,0,1-2.46,6.61c3.3,6.62,5,13.43,1.66,21.17-3.32,7-3.83,11.78-3,19.79a41.3,41.3,0,0,0,1.33,7.41,116.69,116.69,0,0,1-38.32,3,74.83,74.83,0,0,0-28.49,3.12c2.86-17.64,2.67-37.84-.41-59.49l-1.76-2A51.69,51.69,0,0,1,144.45,172a29.66,29.66,0,0,1,11.7-4.31Z"/>
  </g>
  <g class="clothesOverlapLine">
    <path d="M314.28,270.32c1.76-4.91,5.21-8.91,9.85-12.27"/>
    <path d="M324.4,317c-.93,4.78-9.77,12.48-20.67,16.75"/>
    <path d="M193.47,307.39c6.08,5.75,11.22,11.71,14.63,18,2.19,4.34,2.55,8.55-.8,12.46"/>
    <path d="M162.74,243.76c11.06,1.11,20.86,3.67,28.76,8.4,5.7,3.2,8.85,7.91,10.12,15.78,1.31,9.77-1.22,24.2-5.52,36.77"/>
    <path d="M312.65,288.18c1.35,4.16,3.13,8.86,1.87,9.77"/>
  </g>
  <g class="clothesFoldLine">
    <path d="M306.93,273.24c-1.31-2.76-2.3-5.49-4.25-8.23"/>
    <path d="M345.28,281.34a57.75,57.75,0,0,0,0-6"/>
    <path d="M292.77,207.08A9.46,9.46,0,0,0,286.6,205"/>
    <path d="M305.14,185.93q-.22-3.54-.15-5.83"/>
    <path d="M357,186c-.46-2.1-.87-4.05-1.25-5.86"/>
    <path d="M201.06,192.43a16.62,16.62,0,0,0-4.26-5.8"/>
    <path d="M169.61,279.49a46.53,46.53,0,0,1,.65-7.67"/>
  </g>
  <path class="hairBlackDark" d="M158.69,164.33c-7-.61-11.18.88-16.87,2.56a25.62,25.62,0,0,1-.43-27.08C150.05,146.29,156.46,154.43,158.69,164.33Z"/>
  <g class="skinIndian">
    <path d="M189.82,161.74a15.79,15.79,0,0,1-7.42,2.55,16.26,16.26,0,0,0,0,4.07,24.11,24.11,0,0,1-8.4,8,68.78,68.78,0,0,1-17.85-8.66c-1-6.42-4-12.36-8.27-18a10.37,10.37,0,0,1-7-.69c-15.88-4-16.64-23.33-14.15-48l71.09-.4C202.3,128.57,211.6,157.94,189.82,161.74Z"/>
    <path d="M152.56,195.38a140.61,140.61,0,0,0-8.42,24.55c5.41,2,10.68,5.61,15,6.6,2.43-4.69,5.54-7.52,11.57-8.85,4.28-.84,8.28.32,12.06,2.25,3.72-.08,7.48,2,8.27,5.33.56,2.74,1.07,4.34-.83,8-1.75,3.37-20.71,10.24-29.32,4.84-11.55,1.67-22.24.48-32.13-5.68-3.58-2.46-4.87-4.16-4.7-9.33a128.81,128.81,0,0,1,9.83-35.69A38.81,38.81,0,0,0,152.56,195.38Z"/>
    <path d="M229,249.65c-3.9-3.11-9.69-5.84-17.48-8.38-4-5.17-7.15-14.44-10.19-24.44-2.05,5.37-2.3,9.84-1.6,16.56a41.3,41.3,0,0,0,1.33,7.41,56.81,56.81,0,0,1,18.38,15.49,30.11,30.11,0,0,1,3.14,6.16,19.75,19.75,0,0,0,7.14-2.45C234.31,257.72,235,254.37,229,249.65Z"/>
  </g>
  <g class="skinOverlapLine">
    <path d="M314.45,156.39c8.67,1.91,14.76-1.18,20.19-6.16"/>
    <path d="M350,135.51a3.08,3.08,0,0,1-2.58-.81"/>
    <path d="M182.4,164.29c-7.07.48-12.86-.39-18.84-3.18"/>
    <path d="M147.88,149.72a4.61,4.61,0,0,0,1.9-.92"/>
    <path d="M144.14,219.93c-3.41-1.51-6.59-.62-9.59,2.11"/>
    <path d="M305.2,225.32c3.09,1.51,4.73,3.22,6.9,6.18"/>
    <path d="M386.94,216.14a8,8,0,0,0,1.62,5.18"/>
  </g>
  <g class="skinDisplayLine">
    <path d="M329.93,113.69c-3.14-3-6.44-4.41-10-3.09"/>
    <path d="M309.4,112.06c-3-2.63-5.86-3.69-8.55-2.18"/>
    <path d="M312.29,133.57c-7.32,1-9.12-6.54-2.18-8.85"/>
    <path d="M321,142.17a20.11,20.11,0,0,1-9.36,1.8"/>
    <path d="M192.24,122.38a15.44,15.44,0,0,1-9.69,2.73"/>
    <path d="M172.72,127.49a19.94,19.94,0,0,1-10.79,3.42"/>
    <path d="M182.34,132.55c6-2.1,11.18,6.62,2.65,8.94"/>
  </g>
  <path class="mouthBlob" d="M188.9,146.78a15.12,15.12,0,0,0-12,3.44c1.8,1.94,4.66,4,8.33,3A5.91,5.91,0,0,0,188.9,146.78Z"/>
  <g class="hairBlack">
    <path d="M348.28,140.13c12.43-4.82,19.72-14.89,23.2-28.33,3-11.64,1.89-21.93-4.74-31.53a38.82,38.82,0,0,0-26.68-16.72c.87-6.08,6.82-11.1,13.75-13.75-10.56.74-19.19,4.3-20.62,11.74-2.19-6.68-8.86-7.67-17-7.94,5.16,1.73,9.31,4.14,10.67,8.41-11.5,1.06-21,4.91-27.92,12.33-9.54,10.08-11.67,21-8.35,33.79,9.15-3.8,14-10.91,16.95-19.44,2.45,12.93,15.28,19.79,31.53,24.66,3.57,1.72,4.87,5.71,5.58,10.31,4.38-2.13,4.74-6.52,10.19-6.52,4.15.22,5.25,3.25,4.39,8.06-1.88,5-4.83,8.58-9.25,10.31A28.91,28.91,0,0,0,348.28,140.13Z"/>
    <path d="M145.8,85.17c2.12-5.8,8.1-8.16,16.22-8.62,12.52-.55,21.47,2.16,30.82,10.75,5.53,5.29,7.55,10.35,8.28,17.65,4,.62,4.55,5.12,1.31,7-.36,6.69.31,12.81,2.95,18.51,4.47,9.94,6.47,20.52-3,30.74-4.71,4.9-8.82,5.8-12.57.55,9.82-6.88,12.94-16.18,10.29-28.11-1.41-6.3-4.55-13.31-4.44-19.92-11.77,3.12-18.12,1.88-27.36-6-.15,11.29-7.34,17.36-18.75,19.07-1.68,3.23-.87,6.83-.73,9.68-3.35.23-3.47-3.94-6.07-4.39-3.06-.35-5.6,1.6-6.4,6.74-.61,4.62,1.25,7.43,4.53,10.23a20.36,20.36,0,0,0,4.41,13.3c2.65,3.23-.88,7.11-3.82,7.82-5.41,1.11-12.7.53-17.55-7.43a33.92,33.92,0,0,1-3.74-26.09c1.81-6.66,2.29-13.39,2.24-23.41C122.25,96.9,131.27,82.12,145.8,85.17Z"/>
  </g>
  <g class="hairOverlapLine">
    <path d="M339.11,113.35a27,27,0,0,0,10.7.2"/>
    <path d="M201.12,105a17.45,17.45,0,0,0-5.83-.18"/>
    <path d="M149.56,126.77c-6.95.83-9.15-3.9-3.54-7.42"/>
    <path d="M202.43,111.94c-1.69,1-4.62,1.4-6.76,1.77"/>
  </g>
</svg>
