<svg viewBox="0 0 1272.68 974.55">
    <path class="floor" d="M229.05,861.75C316.16,998,577.49,1010.81,696.91,894.07,784,991,1007.41,973.55,1065,863.16c77.88,14.78,138.5-24,173.41-82.18H57.84C91.55,841.44,155.37,883.34,229.05,861.75Z"/>
    <path class="wall" d="M1198.48,507.7c106.78-141.9-4.21-390.58-198.1-387.77C944.18,1,753.11-26.19,658.89,73.56,529.72-52.88,293.68-7.92,229.05,160.67,46.41,157.86-73,462.74,53.43,607.45,21.72,659,27.91,727.3,57.84,781H1238.42C1289.8,695.4,1285.48,567.93,1198.48,507.7Z"/>
    <path class="lampPole" d="M74,451.9H92.79Q92.71,508,94,564H75.24Q73.95,508,74,451.9Z"/>
    <path class="lampShade" d="M49.14,341.22a414.55,414.55,0,0,1,72.29,0q6.84,55.35,15,110.53h-106Q39.11,396.37,49.14,341.22Z"/>
    <path class="lampBase" d="M48.48,564c24.15-1.17,48.14-1.17,72.29,0,.26,10.19.4,15.28.72,25.47H49.2C48.88,579.32,48.73,574.23,48.48,564Z"/>
    <path class="nightstand" d="M53.43,607.45C18,665.07,29.9,743.65,69.4,799.31h75.44V582.51H35A193.07,193.07,0,0,0,53.43,607.45Z"/>
    <polygon class="skirt" points="1061.75 816.89 233.09 816.89 235.28 733.98 1059.53 733.98 1061.75 816.89"/>
    <path class="cushionFront" d="M1059.53,734c0-106.33.39-198.09.39-257.63,1.44-39.51-16.39-63.15-43.8-62.14Q858.35,419,697,414.44c-33.76-.41-51.42,17.83-51.13,51.13,1.57-31.75-11.07-52.28-51.14-51.13-102.16,2.69-210,3.23-314.79,1.25-33.87-.14-50.94,17.88-47.18,67.44L235.3,734Z"/>
    <path class="cushionTop" d="M1059.53,734l.41-82.29a11.32,11.32,0,0,0-11.32-11.39c-45-2.24-88.55.83-132.44,4.78-73.36,6.61-148.22,4.83-222.54-3-8.93-.93-17-2.64-28.14-1.82-16.55,2.19-19.88,11.78-19.67,28.38-.37-17.67-3.15-28.26-19.93-28.38-23.61-.76-45.61.18-65.27,5.33-69.71,18.26-145.43,12.28-216.28.47a444.12,444.12,0,0,0-97.65-5.8,11.41,11.41,0,0,0-11.4,11.4V734Z"/>
    <path class="cushionFront" d="M1059.54,733.87l.37-70.49c0-9.31-3.48-12.2-12-11.75-26.76,1.42-42.6,1-69.13,3.25-28.23,2.07-46,12.81-56,22.71a1.1,1.1,0,0,1-.79.32l-232.65-4.7a1.1,1.1,0,0,1-.73-.29c-5.38-5-15.56-12.86-23.73-15.52-9.74-2.79-18.34.72-19,11.28-.36-10.51-10.4-15.62-20.81-15.38-18,.18-34.74,4.13-50.53,10-13.61,5.14-18.79,13.1-24.86,20.77a1.12,1.12,0,0,1-.92.42L352.5,676.16a1.09,1.09,0,0,1-.65-.25c-15.81-12.7-29.6-19.46-45.92-21.22a533.4,533.4,0,0,0-57.69-2.4c-6.64.14-12.94,4.43-12.94,10.46v70.12a1.12,1.12,0,0,0,1.12,1.11S1059.53,734.49,1059.54,733.87Z"/>
    <line class="cushionBorderLine" x1="645.83" y1="465.57" x2="645.83" y2="733.98"/>
    <g class="armrest">
        <path d="M1127,571.34c-37.43,1.18-63.54,18.69-65.2,57.58-2.45,57.21-3.87,134.22,0,188h100.76c-1-12.13-2.36-103.68,0-137.17,16.38-4.79,26-15.24,27.94-34.72C1194.42,600.89,1171,570.17,1127,571.34Z"/>
        <path d="M233.09,628.92c-3.19-38.79-27.78-56.4-65.2-57.58-44.08-1.17-67.48,29.55-63.51,73.66,1.92,19.48,11.56,29.93,28,34.72,2.36,33.49,1,125,0,137.17H233.09C235.3,759.26,236.72,673.2,233.09,628.92Z"/>
    </g>
    <path class="bennettShoe" d="M850.62,786.58c10.47,15.94,12.29,39.71,8.36,47.58-7.15,13.12-48.16,25.66-82.24,20-13.5-2.54-16.72-11.32-18.92-21.18-11.17,4.8-22.7,6.69-30.67-.7-16.29-15.58-16.1-34.08-1.76-53.55,6.52-9,11.2-15.71,20.94-23.46C793.83,711.09,826.85,729,850.62,786.58Z"/>
    <path class="bennettJeans" d="M936.93,619.81c7.84,52.29-18,89.9-75.23,82,.58,26.94-2.12,56.06-6.74,86.44-10.66,6.17-32,7.86-45.46,2.81-1.37-18.41-10.41-34-24.7-47.71-15.44,14.69-35.32,21.41-58.38,22.45-24-35-43.09-68.47-51.64-98.79-5.61-33.68,13.47-55,44.91-56.69C805.14,572.52,874.48,585.34,936.93,619.81ZM784.2,674.3c-6.84,5.11-11.81,6-18.38,7.29a215,215,0,0,1,14.3,37.35C779.72,698.81,779.87,685.6,784.2,674.3Z"/>
    <path class="bennettSleeves" d="M867,386.6c29.32,5.76,50.57,20.5,63.53,44.5,15.22,27.3,42.19,106.79,42.19,106.79,11.27,26.63,3.75,37.83-11,45.54-17.16,7.35-28.14-5.13-32.57-16.82C916,525.4,895.79,497.48,891,463.4L761.11,488.86c-13.73,9-19.61,15.6-27.69,28.35a42.69,42.69,0,0,0-3.88,15.52C727,548.42,706.33,555.64,691,546.22c-9.73-15.06-8-26.81.62-42.38,20.2-35.71,36.45-68.77,57-89.22,8.81-8.85,20.67-15,35.1-18.93Z"/>
    <path class="bennettShirt" d="M891,463.4q-24.9-19-38.54-49.3c-21.44,6.35-42.49,8.3-62.82,2.2a323.47,323.47,0,0,0-28.28,47c-3.32,29.94,2.95,106.84,8.08,178.16,22.49-2.65,49.74-10.06,79-19.47,31.22-10.65,63.52-11.39,88.53-2.2C931.51,566.63,907.17,519.16,891,463.4Z"/>
    <g class="banjoSide">
        <polygon points="1079.04 475.92 1086.8 515.6 1092.89 513.22 1086.39 478.58 1079.04 475.92"/>
        <path d="M788,649l20.81-5.37c34.25-7.74,54.67-46.55,45.6-86.7S810.26,490.51,776,498.24l-20.81,5.37Z"/>
    </g>
    <polygon class="banjoHeadstock" points="1022.04 498.41 1079.04 475.92 1086.8 515.6 1027.9 520.99 1022.04 498.41"/>
    <polygon class="banjoNeck" points="830 550.28 1022.04 498.41 1027.9 520.99 835.63 576.3 830 550.28"/>
    <ellipse class="banjoHead" cx="771.61" cy="576.31" rx="63.58" ry="74.52" transform="translate(-107.98 184.09) rotate(-12.72)"/>
    <g class="skinEastAsian">
        <path d="M870.54,347.08c-4.48,10.81-5.56,24.35-3.54,39.52-18.48,17-63,26.06-83.32,9.09a21.86,21.86,0,0,0-.3-6.66c-32.91-11.89-53.93-44.24-51.51-77a238.47,238.47,0,0,0,.61-38.78,335.89,335.89,0,0,1,.6-75.45H913.66C927,276.08,910.89,324.43,870.54,347.08Z"/>
        <path d="M724.53,529c-9.73-5.65-30.75,2.82-33.57,12.86,9.41,12.55,15.68,16,24.15,25.41,5,4.06,8,12.69,9.42,20.4,1.88,8.47,7.21,15.37,16,21.33,8.28,6.64,19.71,7.09,30.74,3.45,15-5.58,26.35-19.76,24.79-32-2.51-12.44-11.83-15.72-24.79-14.12,11.55-9.28,17.26-19.45,14.43-28.23-1.25-5.34-10-7.85-16.94-2.51s-16,13.49-26.67,9.41C735.52,542.41,729.89,536.17,724.53,529Z"/>
        <path d="M946,544.56a24.6,24.6,0,0,0-7.48,15c-1.19,10.86,9.33,23.91,18.31,20,11.53-5.08,21.38-5.77,35.27-5.76,18.14-.51,32.39-11.7,34.5-28.59.66-12.37-2.79-23.64-12.46-30.08-10-5.6-18.71-3.14-28.82,2.2-9.5,4.84-19,12.56-19.44,21.48Z"/>
    </g>
    <g class="eye">
        <ellipse cx="802.68" cy="287.24" rx="6.47" ry="12.94" transform="translate(-9.54 28.19) rotate(-2)"/>
        <ellipse cx="756.58" cy="285.31" rx="6.47" ry="12.94" transform="translate(-9.5 26.58) rotate(-2)"/>
    </g>
    <path class="lizShoe" d="M531,749.71c12.42,15.09,22.19,31.3,28.43,49,5.51,15,5.89,27.53-2.33,38.77-10.51,12-26.79,15.3-40.31,5.74-12.81,8.86-31.42,14.1-46.85,6.3-18-8.9-42.23-30.35-51.39-54.94-6.27-18.31,1.36-32.22,14.09-44.49Z"/>
    <path class="skinIndian" d="M498.76,530.31C507.3,559.12,516,587,527.3,601.67c19.47,6.37,34,13.19,43.71,21,14.87,11.79,13.25,20.18,1.78,25.87-12,6.69-18.07,5.64-32.11,8.47C477.88,627.2,471.93,584,498.76,530.31Z"/>
    <path class="lizPants" d="M501.15,600.49c18.64,10.23,34.1,23,45.94,38.75,8.63,13,12.55,26.9,11.6,41.67-2.54,22.47-10.51,46.74-23.56,73.56-6.52,11.59-30.43,15.58-46.38,5.8-9.06,14.13-34.06,16.66-48.19,5.43-9.06-6.88-11.6-17.75-14.5-33.34-2.17-13.77-3.63-23.68-3.53-35.15-25.41,7-53.84-2.62-68.5-12.89-26.13-18-28-43.16-16-71.9C388.08,593.29,442.72,590.24,501.15,600.49Z"/>
    <path class="lizShirt" d="M454.51,419.4c12.88,1.18,24,5.28,33.37,12.2,10.23,8.29,16.07,20.6,19.41,31.46-.94,5.66-2.46,11.68-6.13,16.52,8.25,16.55,12.43,33.57,4.14,52.91-8.3,17.42-9.57,29.45-7.47,49.48.15,3.42,2,14.91,3.32,18.52a291.38,291.38,0,0,1-95.81,7.42c-25.56-1.94-50,.9-71.22,7.79,7.15-44.11,6.68-94.61-1-148.72l-4.39-5c8.95-13.33,18.85-24.6,30.92-33.38,7.92-5.42,17.88-8.81,29.26-10.8Z"/>
    <g class="clothesOverlapLine">
        <path d="M784.2,674.3c4.41-12.27,13-22.28,24.64-30.67"/>
        <path d="M809.5,791.1c-2.32,11.95-24.43,31.2-51.68,41.88"/>
        <path d="M482.16,767c15.23,14.38,28,29.27,36.59,45.07,5.47,10.87,6.38,21.38-2,31.17"/>
        <path d="M405.34,607.91c27.66,2.76,52.15,9.16,71.92,21,14.25,8,22.11,19.78,25.3,39.45,3.28,24.43-3.07,60.51-13.81,91.92"/>
        <path d="M780.12,718.94c3.38,10.41,7.84,22.16,4.68,24.45"/>
    </g>
    <g class="clothesFoldLine">
        <path d="M765.82,681.59c-3.28-6.9-5.75-13.71-10.62-20.57"/>
        <path d="M861.7,701.85a143.31,143.31,0,0,0,0-15.09"/>
        <path d="M730.42,516.21c-5.78-3.89-8.89-5.1-15.41-5.16"/>
        <path d="M761.34,463.32c-.36-5.89-.49-10.76-.36-14.57"/>
        <path d="M891,463.4c-1.15-5.26-2.18-10.12-3.12-14.65"/>
        <path d="M501.16,479.58q-4.57-9.54-10.67-14.49"/>
        <path d="M422.53,697.21a116.71,116.71,0,0,1,1.61-19.16"/>
    </g>
    <path class="hairBlackDark" d="M395.23,409.31c-17.42-1.51-28,2.22-42.17,6.4-13.9-22.47-13-47.16-1.09-67.69C373.63,364.22,389.66,384.57,395.23,409.31Z"/>
    <g class="skinIndian">
        <path d="M473.06,402.84c-6.25,3.76-12.44,6.15-18.55,6.39a39.68,39.68,0,0,0,0,10.17,60.57,60.57,0,0,1-21,20c-15-4.35-29.83-12.05-44.63-21.66-2.53-16-10-30.87-20.68-45a26.07,26.07,0,0,1-17.47-1.71C311,361,309.13,311.76,317.34,252H503.08C512.26,319.92,527.49,393.36,473.06,402.84Z"/>
        <path d="M379.9,486.94a352.05,352.05,0,0,0-21,61.37c13.51,4.91,26.69,14.05,37.39,16.5,6.06-11.72,13.83-18.78,28.91-22.11,10.71-2.11,20.7.8,30.14,5.61,9.31-.18,18.71,5,20.69,13.33,1.4,6.86,2.68,10.87-2.08,20-4.36,8.42-51.77,25.59-73.3,12.1-28.88,4.17-55.59,1.19-80.32-14.21-8.94-6.13-12.18-10.39-11.75-23.32A321.38,321.38,0,0,1,333.09,467C346.08,477.49,361.4,483.9,379.9,486.94Z"/>
    </g>
    <g class="skinOverlapLine">
        <path d="M783.38,389c22.32,4.91,38-3,52-15.86"/>
        <path d="M875,335.28a7.94,7.94,0,0,1-6.65-2.09"/>
        <path d="M454.51,409.23c-17.69,1.2-32.17-1-47.11-8"/>
        <path d="M368.2,372.8a11.61,11.61,0,0,0,4.75-2.31"/>
        <path d="M358.85,548.31c-8.52-3.77-16.46-1.53-24,5.29"/>
        <path d="M761.51,561.81c7.72,3.78,11.82,8.05,17.24,15.43"/>
        <path d="M965.85,538.84c-.29,4.48,1.16,8.78,4,12.95"/>
    </g>
    <g class="skinDisplayLine">
        <path d="M823.24,279.11c-8.09-7.6-16.59-11.36-25.73-7.95"/>
        <path d="M770.38,274.9c-7.68-6.76-15.07-9.48-22-5.61"/>
        <path d="M777.82,330.29c-18.83,2.64-23.46-16.85-5.62-22.8"/>
        <path d="M800.29,352.43a52,52,0,0,1-24.12,4.62"/>
        <path d="M483.12,307.52a37.33,37.33,0,0,1-23.46,6.61"/>
        <path d="M431.25,321.06a48.18,48.18,0,0,1-26.1,8.26"/>
        <path d="M469.24,334.61c4,12.89-17.17,22.8-28.4,9.25"/>
    </g>
    <path class="mouth" d="M473.2,364.33c-10.57-1-19.82,1.65-28.41,10.24,4.34,4.71,9.29,7.42,18.17,5C469.24,376.22,474.68,370.85,473.2,364.33Z"/>
    <g class="hairBlack">
        <path d="M870.46,347.15c32-12.4,50.77-38.33,59.73-72.9,7.79-30,4.88-56.46-12.21-81.18-16.78-24.1-39.73-38.35-68.66-43,2.23-15.68,17.54-28.58,35.4-35.4-27.2,1.89-49.41,11-53.1,30.21C826,127.65,808.83,125.1,788,124.4c13.27,4.46,23.95,10.67,27.46,21.67-29.6,2.73-54,12.64-71.87,31.74-24.56,25.94-30.06,54-21.51,87,23.56-9.79,36.11-28.09,43.64-50.05,6.31,33.29,39.35,50.95,81.18,63.47,9.18,4.43,12.53,14.72,14.34,26.55,11.29-5.49,12.21-16.78,26.25-16.78,10.68.58,13.5,8.36,11.29,20.75-4.83,12.79-12.42,22.08-23.81,26.55A74.71,74.71,0,0,0,870.46,347.15Z"/>
        <path d="M363,206.42c5.3-14.5,20.24-20.4,40.53-21.53,31.31-1.39,60.69,6.38,84.07,27.85,13.82,13.23,19.86,29.89,21.7,48.15,10.06,1.54,11.36,12.77,3.25,17.46-.89,16.71.78,32,7.4,46.27,11.17,24.85,16.17,51.32-7.49,76.86-11.77,12.24-30.06,14.5-39.41,1.36,24.55-17.2,37.34-40.43,30.72-70.28-3.52-15.73-7.37-31.27-7.11-47.78-29.41,7.79-52.28,4.71-75.39-15-.38,28.23-18.36,43.41-46.88,47.67-4.21,8.09-4.18,15.08-3.82,22.2-8.38.59-8.68-9.85-15.17-11-7.67-.88-14,4-16,16.85-1.54,11.56,3.12,18.57,11.32,25.59a50.82,50.82,0,0,0,11,33.22c6.61,8.09-2.21,17.79-9.56,19.56-13.53,2.79-31.76,1.32-43.89-18.57C296,385.64,293.54,361.09,299,340.06c4.53-16.65,5.73-33.45,5.58-58.51C304.12,240.74,326.67,198.8,363,206.42Z"/>
    </g>
    <g class="hairOverlapLine">
        <path d="M846.88,278.21c10,1.93,19.27,2.32,27.54.53"/>
        <path d="M509.31,260.89a43.31,43.31,0,0,0-14.59-.47"/>
        <path d="M374.4,317.42c-17.38,2.08-22.88-9.75-8.85-18.55"/>
        <path d="M512.56,278.35c-4.21,2.47-10.47,4.77-15.89,6.43"/>
    </g>
</svg>
