<svg viewBox="0 0 310.7 528.1">
  <path class="frameMediumFront" d="M24.07,26.91a2607.21,2607.21,0,0,1,262.57,0Q280,276.48,280.27,526.18l21.73-.12q-.15-260.37,8.19-520.64A2438.83,2438.83,0,0,0,.52,5.42Q9.1,266.42,8.7,527.6l21.74-.11Q30.55,277.17,24.07,26.91Z"/>
  <path class="doorMediumFront" d="M286.64,26.91a2607.21,2607.21,0,0,0-262.57,0q6.66,250.23,6.37,500.58l249.83-1.31Q280.16,276.51,286.64,26.91Z"/>
  <g class="edgeMedium">
    <path d="M66.31,280.75q89-.64,178.08,0,1-109.11,2.84-218.22-91.86-2.85-183.76,0Q65.35,171.64,66.31,280.75Z"/>
    <path d="M67.3,492.75q88.05,1.46,176.1,0,.09-88.15.71-176.31-88.76-.29-177.51,0Q67.22,404.6,67.3,492.75Z"/>
  </g>
  <path class="bronzeDarker" d="M253.57,315.82l17.63.07q.26-26.37.57-52.74c-5.9-.08-11.8-.14-17.71-.21Q253.79,289.39,253.57,315.82Z"/>
  <g class="bronzeMediumDark">
    <path d="M250.06,298.41c-.05,5.89,5.66,13.17,12.47,12.64,6.19-.48,12.64-5.87,12.72-12.47s-6.3-12.09-12.47-12.65C256,285.31,250.11,292.5,250.06,298.41Z"/>
    <path d="M256.61,275.43a6.17,6.17,0,1,0,6.24-6.08A6.15,6.15,0,0,0,256.61,275.43Z"/>
  </g>
  <g class="windowFront">
    <path d="M75.61,270.42q79.74-.6,159.48,0,.82-99.2,2.31-198.39-82.05-2.19-164.09,0Q74.79,171.23,75.61,270.42Z"/>
    <path d="M77,483.59q78.77,1.07,157.54,0,.1-78.82.57-157.65-79.34-.17-158.68,0Q76.86,404.76,77,483.59Z"/>
  </g>
</svg>
