<svg viewBox="0 0 717.41 1037.46">
  <path class="frameDarkFront" d="M716.39,42.81c-237.36-10.37-375-10.37-612.32,0C114.19,393.47,119.45,674.24,120.5,1025q25.14.32,50.29.58c-.85-334.18-4.95-598.35-12.75-932.44,201.42-7,303-7,504.37,0-7.8,334.09-11.9,598.26-12.75,932.44q25.14-.27,50.29-.58C701,674.24,706.27,393.47,716.39,42.81Z"/>
  <path class="knob" d="M45.87,537.48c2.47,13.93-11.95,24.33-24,25.94C9.5,561.36,1.27,550.28,1,538c.6-12.11,7.29-27.94,20-28.23C32.78,509.54,49.67,522.88,45.87,537.48Z"/>
  <path class="knobMount" d="M27.73,548.24l30.56-.34L58,524.4l-30.58.38C25,528.49,25.23,544.83,27.73,548.24Z"/>
  <path class="doorDarkSide" d="M171.44,90.23c-36.07-35.09-70.9-61.79-111-88.34,9,374.76,13.87,659.62,15,1034.48q52.19-4.42,104.35-9C179.07,691.66,176.37,425.93,171.44,90.23Z"/>
  <path class="doorDarkFront" d="M35.2,1035.81l40.24.56C74.33,661.51,69.5,376.65,60.46,1.89q-21,1.8-42,3.68C28.57,378.24,34,663,35.2,1035.81Z"/>
  <path class="faceplate" d="M37.37,577.56l29-.29q-.75-61-1.58-121.93-14.58.21-29.15.44Q36.55,516.67,37.37,577.56Z"/>
  <g class="bolt">
    <path d="M41.35,494.34l18.86-.25c-.11-7.95-.16-11.93-.27-19.87-7.55.1-11.33.15-18.88.27C41.18,482.43,41.24,486.4,41.35,494.34Z"/>
    <path d="M42.1,548.53l18.82-.21c-.12-9.76-.18-14.64-.31-24.4l-18.84.23C41.9,533.9,42,538.78,42.1,548.53Z"/>
  </g>
  <path class="escutcheon" d="M78.59,577.16l14.55-4.78q-.65-56.93-1.36-113.83l-14.71-3.39Q77.86,516.17,78.59,577.16Z"/>
  <path class="knobMount" d="M84.3,548.07l30.18-.29c-.1-9.77-.15-14.66-.26-24.44L84,523.65C81.63,527.5,81.83,544.51,84.3,548.07Z"/>
  <path class="knob" d="M91.08,537c2.11,12,9.59,31.52,25.53,26.49,12.86-2.42,21.1-14.19,21-26.93,1.29-13.67-8.79-25.46-21.47-29C99.27,503,92.26,524.35,91.08,537Z"/>
  <path class="lockSide" d="M87.23,498c-3.53,0-6.47-6.27-6.57-14.11s2.67-14.22,6.2-14.27l5.55-.07q.18,14.19.35,28.38Z"/>
  <path class="lockFront" d="M86.2,483.81c.1,7.84,3,14.16,6.56,14.11s6.31-6.42,6.21-14.26-3-14.16-6.56-14.12S86.1,476,86.2,483.81Z"/>
</svg>
