<svg viewBox="0 0 79.04 590.62">
  <path class="frameDarkSide" d="M1,55.22C27.42,33.48,45.7,20.34,78,1.75c-3.84,211.49-7,376.07-9.75,587.39-3.52-1.44-5.29-2.18-8.83-3.71,2-198.61,4.13-350.46,6.76-549.18A390.63,390.63,0,0,0,8,74c2.63,176,4.83,313.21,6.84,489.32-2.19-1.2-3.29-1.81-5.48-3C7,378.9,4.25,236.44,1,55.22Z"/>
  <path class="doorDarkSide" d="M8,74C29.1,58,41.81,49.29,66.19,36.25c-2.63,198.64-4.81,350.65-6.76,549.18-16.06-7.36-31.1-14.73-44.56-22.13C12.86,387.19,10.66,250,8,74Z"/>
  <path class="bronzeDarker" d="M58.42,340.32l-8.57-2.48.39-60.8c3.53-.73,5.29-1.09,8.82-1.8Q58.75,307.77,58.42,340.32Z"/>
  <g class="bronzeDark">
    <path d="M55,324.82l-17.85,0c0-5.23,0-7.84,0-13.06q9,0,17.94.05C56.53,313.84,56.45,322.91,55,324.82Z"/>
    <path d="M53.38,299.33c2.44,0,4.46-3.91,4.5-8.76s-1.91-8.82-4.37-8.85l-3.86,0q0,8.81-.11,17.61Z"/>
    <path d="M46.05,281.69l4.32,0c.54,3.87.82,5.81,1.36,9.68-.6,3.18-.9,4.77-1.49,8l-4.3,0Q46,290.52,46.05,281.69Z"/>
  </g>
  <g class="bronzeMediumDark">
    <path d="M51,319c.63,8.49-7,14.73-15,14.26-7.43-.63-12.49-7-12.62-14.28-.15-7.51,5.12-14.82,12.55-15.58C44.12,302.51,51.94,310.22,51,319Z"/>
    <path d="M50.38,281.82c.54,3.81.81,5.75,1.35,9.59-.59,3.12-.88,4.71-1.45,7.77,2.09-.69,3.72-4.29,3.76-8.65S52.49,282.53,50.38,281.82Z"/>
    <path d="M45.94,299.34l1.48-8c-.55-3.87-.82-5.81-1.37-9.69H44.61l-1.5,9.68,1.4,8Z"/>
  </g>
</svg>
