<svg viewBox="0 0 2432.65 484.05">
  <rect class="meadowNear" x="1" y="148.1" width="2430.65" height="334.95"/>
  <polygon class="fenceDark" points="2431.64 54.53 2372.3 30.03 2315.41 48.83 2260.81 25.44 2208.37 43.58 2157.97 21.2 2109.49 38.73 2062.83 17.28 2017.87 34.24 1974.54 13.64 1932.74 30.06 1892.39 10.25 1853.43 26.17 1815.77 7.09 1779.36 22.54 1744.13 4.14 1710.03 19.14 1677 1.38 1645 15.95 1645 422.42 2431.64 483.05 2431.64 54.53"/>
  <polygon class="fence" points="1645 422.49 1645 16.02 1611.58 1 1577.65 18.02 1543.18 2.78 1508.18 20.09 1472.62 4.62 1436.5 22.21 1399.79 6.52 1362.49 24.41 1324.59 8.47 1286.05 26.68 1246.88 10.5 1207.06 29.03 1166.56 12.59 1125.37 31.45 1083.47 14.75 1040.85 33.96 997.49 16.99 953.36 36.56 908.44 19.31 862.72 39.25 816.18 21.71 768.78 42.04 720.51 24.21 671.34 44.93 621.25 26.79 570.21 47.93 518.19 29.48 465.16 51.05 411.11 32.27 355.98 54.29 299.76 35.16 242.41 57.66 183.9 38.18 124.18 61.17 63.23 41.33 1 64.83 1 483.05 1645 422.49"/>
  <path class="bushCloser" d="M1619,270.42c-8.36-15.78-27.32-9.07-29.2,9.91-10.32-8.84-23.32-1.27-24.61,15.55.52-18.3-14.85-28.38-26.05-19.95,4.64-15.42-10.91-29.62-20.61-20.63,5.79-19.56-19.59-36.14-29.64-15.73-3.29-26.17-32.89-23.28-37.21-2.56-6.4-22.47-31.14-20.75-34.29,5.73-11.27-11-31,1.63-24.61,22.68-12.47-15.13-34.42-12.32-33.78,9.77-1.87-21.53-18.66-29.86-33-15.52,1.22-25.57-28.56-31.51-39.32-9.57,1.61-22.19-28.91-23.94-32.37-3.48-12.53-21.06-43.86-6.83-43.41,23.87-13.21-16.42-36.34-9.24-35,19.65-1.76-20.83-25.94-32.52-34.56-11.23-9.61-20.68-33.17-13.93-32.69,8.22-12.33-22.29-39.22-3.31-38.54,21.26-.67-20.22-18.44-24.47-27.18-11.67,2.47-30-37.45-36.92-43.57-11.09-12-14.08-32-7.33-36.3,10.58-16.68-11.09-38.18-.49-40.9,20.15-8.09-14.46-23.19-13.36-33.41,1,8-21-15.76-47.68-30-33.95,5.09-31.48-37.82-41.56-43.9-13.58C809.41,248,786,249.72,776.51,263c-18.83-23.88-46.88-10.64-52,16.51-15.35-11.18-32,3.05-23.61,24.84-19.64-10-42.8,8-40.89,37-1.87-13.44-14.28-18.17-23.62-10-1.15-28-28.67-38.06-47.43-20.4-12-24.81-38.37-22.25-48.48,4-12.32-9.8-30.28-1.58-32.89,15.69-13.36-12.61-32.51-3.7-38,17.18,6.53-29.75-19-44.81-37.83-33.9,1.55-33.81-45.47-36.69-54.38-7.1-8.73-17.18-29.06-13.6-32.62,4C323,282.61,290,296.78,284.64,327.38,265.46,312,243,323,240.55,348.2c-3.59-25.07-34.21-31.41-46.21-10.58,8.72-25.24-27.37-42.32-37.71-27.05-7.25-31.33-52.52-27.77-58.58,3.37-12.45-18.38-35.41-11-40.7,10.95-21.29-21.19-51.5-3.52-49.71,26.68A23,23,0,0,0,1,350V483.05H583.72L1645,422.49V280C1643.88,265.61,1626.35,253.39,1619,270.42Z"/>
  <path class="bushFurther" d="M2431.65,483.05V281.81a22.44,22.44,0,0,0-2.56,3.44c-17.87-31.34-44-18.43-48.7,13.49-13.92-15.22-28.81-.41-21.4,26.43-17.39-14.38-37.56,3.54-36,37.46-1.59-15.9-12.2-23.14-20.13-15.05-.92-32.31-23.82-47.26-39.16-29.64-9.6-29.3-30.49-29.45-38.42-1.6-9.5-12.27-23.19-5.44-25.2,13-10-15.34-24.19-8.08-28.26,13.58,4.83-31.05-13.73-50.06-27.17-40.62-.4-42.08-23.62-52.26-37.67-28.8-5.88-18.5-19.46-16.7-21.85.84-14.21-30.6-35.41-19.27-38.84,10.67-12-17.07-25.86-8.37-27.36,16,.49-25.07-17.52-41.06-27.67-24.52,5.19-23.49-6.62-38.64-18-29.19-6.08-30.74-27.44-34.77-36.65-10.72-6.79-17.9-19.18-12.69-22,7-11.24-20.86-27-7.08-26.07,20.17-7.77-6.65-16.1,2-14.6,19.28-8.59-9.75-18.55-.9-18.13,19.11-1-18.42-10.88-27.25-18.65-18.1-5.44-23.2-20.2-28.56-29-12.84-6-11.33-14.06-8.43-15.66,7.46-8.56-11.11-20.25-7.1-23.74,13.36.78-14.92-8.08-24.95-15.12-18.64-.43-27.18-13.37-36.37-22.79-24.85-2.8-24.34-25.65-29.57-28.67-1.52-7.84-21.37-25.28-4.23-20.62,20.38-5.65-16.58-19.87-8-17.5,12.55-4-12.35-17.36-12.84-19,.12V422.42l303.07,60.63Z"/>
</svg>
