<svg viewBox="0 0 646.96 564.84">
  <path class="sillDark" d="M2.56,561.66l21.52,2.17c207.29-16.57,414.51-34.09,621.79-50.75l-21.52-1.84q-310.8,5.29-621.58,11.41Q2.7,542.15,2.56,561.66Z"/>
  <path class="sill" d="M24,563.64q311-7,621.94-14.95-.09-17.73-.16-35.46Q335,518.53,24.2,524.58,24.13,544.11,24,563.64Z"/>
  <path class="frameFront" d="M618.44,511.34q-.59-237.87,7.07-475.64C417.73,18.06,209.51,6.1,1,1q9.87,260.63,8.87,521.48l33.35-.64Q44,278,36.44,34.27q280.17,7.08,559.67,28.81-6.18,224.31-5.61,448.74Z"/>
  <path class="paneStill" d="M36.44,34.27Q182.68,38,328.76,45.65q-.11,235.41-.07,470.81Q186,519.13,43.26,521.87,44,278,36.44,34.27ZM53.16,512q133.55-2.4,267.09-4.75,0-226.3-.11-452.63Q183.57,47.74,46.85,44.22,53.74,278,53.16,512Z"/>
  <path class="paneSliding" d="M328.76,45.65q133.77,7.18,267.35,17.43-6.18,224.31-5.61,448.74-130.9,2.25-261.81,4.64Q328.66,281,328.76,45.65ZM344.2,499.33q116-1.79,231.91-3.41Q575.89,287,581.05,78.1,462.9,69.6,344.59,63.35,344.16,281.35,344.2,499.33Z"/>
  <g class="windowClear">
    <path d="M576.11,495.92q-116,1.62-231.91,3.41,0-218,.39-436Q462.9,69.56,581.05,78.1,575.83,287,576.11,495.92Z"/>
    <path d="M320.25,507.22Q186.71,509.54,53.16,512q.5-233.91-6.31-467.75Q183.56,47.7,320.14,54.59,320.25,280.91,320.25,507.22Z"/>
  </g>
  <path class="blinds" d="M38.53,106.41q278.17,5.32,555.88,23.07.78-33.21,1.7-66.4Q316.66,41.75,36.44,34.27,37.57,70.33,38.53,106.41Z"/>
  <g class="blindsOverlapLine">
    <path d="M595.51,85.12q-278.82-20-558.34-26.9"/>
    <path d="M595.19,107.45q-278.21-18.72-557-25"/>
    <path d="M595.13,109.83Q317,91.25,38.24,85.06"/>
    <path d="M595.07,112.22Q317,93.77,38.31,87.65"/>
  </g>
  <path class="rail" d="M38.38,90.24Q316.95,96,595,114.6l-.35,14.89Q317,112.06,38.82,106.42C38.65,100,38.56,96.71,38.38,90.24Z"/>
</svg>
