<svg viewBox="0 0 646.57 564.87">
  <path class="sillDark" d="M2.53,561.66l20.79,2.21c207.29-16.57,414.51-34.09,621.79-50.75l-20.79-1.77q-310.8,5.25-621.58,11.3Q2.67,542.15,2.53,561.66Z"/>
  <path class="sill" d="M23.62,563.48q311-6.94,622-14.94-.11-17.73-.16-35.47-310.8,5.31-621.59,11.36Q23.74,544,23.62,563.48Z"/>
  <path class="frameFront" d="M618.41,511.45q-.57-237.94,7.11-475.79C417.74,18,209.52,6.08,1,1Q10.9,261.65,9.88,522.51l33.34-.63Q43.94,278,36.43,34.26,316.6,41.33,596.1,63.05q-6.2,224.38-5.63,448.86Z"/>
  <path class="paneStill" d="M36.43,34.26Q182.64,38,328.71,45.63q-.12,235.44-.1,470.89-142.7,2.64-285.39,5.36Q43.94,278,36.43,34.26ZM53.12,512q133.53-2.39,267.06-4.7,0-226.35-.09-452.71Q183.53,47.72,46.84,44.22,53.71,278,53.12,512Z"/>
  <path class="paneSliding" d="M328.71,45.63Q462.51,52.8,596.1,63.05q-6.2,224.38-5.63,448.86-130.94,2.23-261.86,4.61Q328.6,281.08,328.71,45.63Zm15.41,453.76q116-1.77,232-3.38-.23-209,5-417.94-118.18-8.49-236.5-14.74Q344.09,281.36,344.12,499.39Z"/>
  <g class="windowClear">
    <path d="M576.07,496q-116,1.61-232,3.38,0-218,.42-436.06Q462.86,69.54,581,78.07,575.8,287,576.07,496Z"/>
    <path d="M320.18,507.28q-133.53,2.3-267.06,4.7.51-233.91-6.28-467.76,136.68,3.47,273.25,10.35Q320.18,280.92,320.18,507.28Z"/>
  </g>
  <path class="blinds" d="M43.29,489.49q273.56-4.32,547.13-7.39,0-209.55,5.68-419Q316.66,41.72,36.43,34.26,43.52,261.81,43.29,489.49Z"/>
  <g class="blindsOverlapLine">
    <path d="M595.5,85.1q-278.82-20-558.34-26.89"/>
    <path d="M596.1,63.05Q316.66,41.72,36.43,34.26"/>
    <path d="M594.94,107.15Q316.7,88.42,37.85,82.17"/>
    <path d="M594.41,129.2Q316.73,111.76,38.5,106.12"/>
    <path d="M593.91,151.25q-277.17-16.16-554.8-21.18"/>
    <path d="M593.45,173.3Q316.76,158.43,39.68,154"/>
    <path d="M593.91,151.25q-277.17-16.16-554.8-21.18"/>
    <path d="M593,195.36Q316.78,181.77,40.2,178"/>
    <path d="M592.62,217.41Q316.8,205.11,40.68,201.94"/>
    <path d="M592.26,239.46q-275.46-11-551.13-13.56"/>
    <path d="M591.93,261.52q-275.11-9.75-550.4-11.66"/>
    <path d="M591.63,283.57q-274.8-8.46-549.74-9.75"/>
    <path d="M591.13,327.69q-274.29-5.93-548.65-5.95"/>
    <path d="M591.36,305.63q-274.51-7.2-549.16-7.85"/>
    <path d="M590.93,349.74q-274.08-4.64-548.21-4"/>
    <path d="M590.77,371.8q-273.91-3.37-547.86-2.14"/>
    <path d="M590.63,393.86q-273.78-2.1-547.56-.23"/>
    <path d="M590.53,415.92q-273.67-.84-547.34,1.67"/>
    <path d="M590.43,460q-273.58,1.69-547.13,5.48"/>
    <path d="M590.42,462.42q-273.57,1.84-547.12,5.69"/>
    <path d="M590.42,464.81q-273.57,2-547.12,5.89"/>
    <path d="M590.46,438q-273.6.43-547.2,3.58"/>
  </g>
  <path class="rail" d="M43.3,473.3q273.56-3.92,547.12-6.11V482.1q-273.57,3-547.13,7.39C43.3,483,43.3,479.77,43.3,473.3Z"/>
</svg>
