<svg viewBox="0 0 472.28 848.04">
  <path class="frameExterior" d="M398.93,49.33q3.85,374.12,6.63,748.25c.89.93,1.34,1.38,2.23,2.29q-2.6-366.86-6-733.69c21.24-17.39,43-31.6,65.76-41.68Q463.72,434.12,461,843.77c1.1.65,1.65,1,2.75,1.6Q467,423.45,471.27,1.54C446.07,12.58,422.13,29,398.93,49.33Z"/>
  <g class="gateDark">
    <path d="M20.63,30.78Q10.82,34.17,1,37.6,17,439.53,14.22,841.86q9.87,2.48,19.74,4.91Q36.54,438.68,20.63,30.78Z"/>
    <path d="M54.33,624.4c74.36-5.48,140.17-74.42,136-150.22,2.07-75.37-66.21-141.44-140.15-143.4Q53.35,477.57,54.33,624.4Z"/>
  </g>
  <path class="faceplate" d="M15.67,446.31l13.54-.3q.49,32.3.89,64.58l-13.53-.24Q16.14,478.33,15.67,446.31Z"/>
  <path class="bolt" d="M18.43,471l8.77,0,.2,13.9-8.77-.09Z"/>
  <path class="mesh" d="M398,782.53q-171.31,24.62-343.63,41Q56.06,438.3,41.9,53.27c115.61,6.89,230.94,17.26,346,30.29Q395.17,433,398,782.53Z"/>
  <g class="gateLight">
    <path d="M107.49,57.32q12.77,379.81,12.06,759.91c-6.43.66-9.65,1-16.08,1.62q.93-381.39-12.16-762.61C97.79,56.66,101,56.88,107.49,57.32Z"/>
    <path d="M170.15,62q11.47,374.17,11.66,748.57c-6.22.7-9.32,1.05-15.54,1.73q0-375.82-11.75-751.53C160.77,61.22,163.9,61.47,170.15,62Z"/>
    <path d="M230.73,67.16Q241,435.23,242,803.47l-15,1.82Q226.16,435.5,215.61,65.8Z"/>
    <path d="M289.34,72.8q9.12,361.58,10.85,723.29L285.66,798q-1.55-363.37-11-726.64Z"/>
    <path d="M346.08,78.81q8,354.78,10.43,709.64c-5.62.79-8.43,1.18-14.06,1.95q-2.24-356.61-10.54-713.14Z"/>
    <path d="M394.7,476.3Q223.87,481.78,53,486c-.09-6.78-.13-10.16-.23-16.94q170.88-3.64,341.74-8.16C394.57,467.08,394.62,470.15,394.7,476.3Z"/>
    <path d="M414.73,799.38C288.27,818.73,161.34,834.84,34,846.77q2.58-408.09-13.33-816c128.23,7.6,256.1,19.84,383.58,35.53Q411.67,432.81,414.73,799.38ZM387.91,83.56c-115.07-13-230.4-23.4-346-30.29Q56.06,438.22,54.39,823.51q172.32-16.05,343.63-41Q395.17,433,387.91,83.56Z"/>
  </g>
  <path class="escutcheon" d="M95.53,508.22q-31.2,1-62.4,1.86Q32.72,478,32.23,446q31.22-.53,62.41-1.08Q95.12,476.56,95.53,508.22Z"/>
  <path class="knobMountDark" d="M52.23,477.57a12.24,12.24,0,0,0,12.38,12.29,12.52,12.52,0,0,0,12-12.86,12.24,12.24,0,0,0-12.31-12.28A12.51,12.51,0,0,0,52.23,477.57Z"/>
  <path class="knobMountLight" d="M54.44,477.55a12.23,12.23,0,0,0,12.39,12.28,12.52,12.52,0,0,0,12-12.86,12.23,12.23,0,0,0-12.32-12.28A12.53,12.53,0,0,0,54.44,477.55Z"/>
  <path class="knobLight" d="M121.24,483.41a5.81,5.81,0,0,0,5.84-6,6.2,6.2,0,0,0-6.22-5.92q-21.17.3-42.32.56l-11.89-.59a5.8,5.8,0,0,0-5.9,6,6.21,6.21,0,0,0,6.29,5.9l11.89.66Q100.08,483.71,121.24,483.41Z"/>
  <path class="knobEdgeLine" d="M77.52,474.33c-.78,0-1.36,1.63-1.29,3.68s.76,3.71,1.53,3.71"/>
</svg>
