<svg viewBox="0 0 194.94 1210.22">
    <path class="gateFrame" d="M177.08,67.47q-7.31,536.67-12.14,1073.38l-5.55,2.94q4.46-526,10.76-1052C118.28,68.22,65.26,48.41,10,34.13Q20,620.06,26.59,1206c-2.75,1.1-4.12,1.65-6.86,2.73Q11.94,605,1,1.3C62.17,17,120.34,39.92,177.08,67.47Z"/>
    <g class="gateDark">
        <path d="M137.55,106.66q-3.24,511-5.37,1021.94l7-2.44q2.75-508.5,6.62-1017C142.49,108.14,140.84,107.64,137.55,106.66Z"/>
        <path d="M113.92,97.46q-1.08,520.26-1.7,1040.51l7.13-2.4q1.2-517.87,3-1035.75C119,98.86,117.31,98.39,113.92,97.46Z"/>
        <path d="M89.41,90.18q1.23,529.32,2.21,1058.64c2.92-1.54,4.37-2.32,7.29-3.88Q98.49,617.89,98.1,90.83C94.62,90.55,92.89,90.42,89.41,90.18Z"/>
        <path d="M64,80.31q3.73,538.1,6.41,1076.2c3-.9,4.48-1.36,7.46-2.28q-2.16-536-4.93-1071.94C69.32,81.48,67.53,81.08,64,80.31Z"/>
        <path d="M37.5,72.57q6.42,546.5,10.91,1093c3.05-.86,4.58-1.3,7.63-2.19Q52,618.85,46.7,74.3C43,73.58,41.18,73.24,37.5,72.57Z"/>
        <path d="M27.68,687.81q64.88-4,129.72-8.07l.2-22q-65.11,2.74-130.22,5.81Z"/>
    </g>
    <path class="mesh" d="M33.3,1172.46c41-16.06,81-34.07,120.48-53.45Q157.62,617.73,163,116.43C116.1,96.55,68.46,79.69,19.16,66.92Q27.53,619.67,33.3,1172.46Z"/>
    <g class="gateLight">
        <path d="M155.85,859.84c-21.75,2.5-28.12-36-31.47-51-10.13-45.4-12.75-91.27-13.25-137.72.62-47,3.37-93.53,14.25-139.1,4-16.85,10.7-54.6,33.89-54.35Q157.44,668.75,155.85,859.84Z"/>
        <path d="M10,34.13c55.22,14.28,108.24,34.09,160.11,57.7q-6.47,526-10.76,1052C116,1166.51,72,1187.55,26.59,1206Q19.65,620.07,10,34.13ZM33.3,1172.46c41-16.06,81-34.07,120.48-53.45Q157.62,617.73,163,116.43C116.1,96.55,68.46,79.69,19.16,66.92Q27.53,619.67,33.3,1172.46Z"/>
    </g>
    <path class="escutcheon" d="M143.69,711.49l19.65-1.77q.42-41.33.83-82.64c-8,.09-11.95.14-19.92.25Q144,669.41,143.69,711.49Z"/>
    <path class="knobMountDark" d="M153.72,685.35c-2.13.15-3.81-7.13-3.74-16.25s1.87-16.57,4-16.65l7.54,0q-.17,16.44-.32,32.88Z"/>
    <path class="knobMountLight" d="M165.22,668.72c-.09,9-1.88,16.49-4,16.63s-3.79-7.13-3.71-16.24,1.89-16.56,4-16.64S165.31,659.67,165.22,668.72Z"/>
    <path class="knobLight" d="M168.44,684.94c8.17-3.46,12.26-5.19,20.45-8.62,8.74-3.54,5.16-14.76-3.31-14.27L163.91,662C157.67,665.27,165.08,686.05,168.44,684.94Z"/>
    <path class="knobDark" d="M155.6,677.7c0,4.5,3.87,8.15,8.73,8.15s8.85-3.65,8.9-8.14-3.86-8.14-8.73-8.15S155.64,673.2,155.6,677.7Z"/>
    <path class="knobEdgeLine" d="M161.6,670c7.28-2,10.92-3,18.21-4.93"/>
</svg>
