<svg viewBox="0 0 310.7 528.75">
  <path class="frameFront" d="M.52,5.42q8.6,261.33,8.19,522.83H30.44q.12-250.69-6.37-501.34a2607.21,2607.21,0,0,1,262.57,0Q280,277.53,280.27,528.25H302q-.18-261.47,8.19-522.83A2438.83,2438.83,0,0,0,.52,5.42Z"/>
  <path class="doorFront" d="M286.64,26.91a2607.21,2607.21,0,0,0-262.57,0q6.66,250.62,6.37,501.34H280.27Q280.14,277.56,286.64,26.91Z"/>
  <g class="bronzeMediumDark">
    <path d="M250.06,298.41c-.05,5.89,5.66,13.17,12.47,12.64,6.19-.48,12.64-5.87,12.72-12.47s-6.3-12.09-12.47-12.65C256,285.31,250.11,292.5,250.06,298.41Z"/>
    <path d="M256.61,275.43a6.17,6.17,0,1,0,6.24-6.08A6.15,6.15,0,0,0,256.61,275.43Z"/>
  </g>
  <path class="bronzeDarker" d="M149.07,130.69a6.29,6.29,0,1,0,6.29-6.19A6.25,6.25,0,0,0,149.07,130.69Z"/>
  <path class="glassDarkest" d="M151.86,130.69a3.5,3.5,0,1,0,3.5-3.44A3.47,3.47,0,0,0,151.86,130.69Z"/>
</svg>
