<svg viewBox="0 0 965.55 867.61">
    <path class="paneStill" d="M903.56,814.48q-210.63,1.38-421.28,1.31,0-382.14,0-764.29,216,.16,431.82,7.62Q899,436.61,903.56,814.48ZM899.19,73.67q-201.77-6.56-403.64-6.94-.42,366.92-.3,733.84,197.09,0,394.17-1.06Q885.78,436.51,899.19,73.67Z"/>
    <path class="paneSliding" d="M482.28,815.79q-210.15,0-420.29-1.31Q66.28,436.72,51.47,59.12,266.8,51.71,482.26,51.5,482.29,433.64,482.28,815.79ZM457.76,78.93Q267.35,79.44,77,85.39,89.58,436.3,86.23,787.5q186.06.88,372.11.88Q458.54,433.66,457.76,78.93Z"/>
    <path class="frame" d="M903.56,814.48q-420.78,2.74-841.57,0Q66.28,436.72,51.47,59.12q431.21-14.83,862.61,0Q899,436.61,903.56,814.48ZM964.5,10.92Q483-8.92,1.05,10.92q20.64,426.33,13.24,853.3,468.47,4.77,937,0Q944.24,437.46,964.5,10.92Z"/>
    <g class="window">
        <path d="M86.23,787.5q186.06.88,372.11.88.2-354.72-.58-709.45Q267.35,79.44,77,85.39,89.58,436.3,86.23,787.5Z"/>
        <path d="M495.25,800.57q197.09,0,394.17-1.06-3.64-363,9.77-725.84-201.77-6.56-403.64-6.94Q495.13,433.65,495.25,800.57Z"/>
    </g>
</svg>
