<svg viewBox="0 0 594.69 540.79">
  <path class="sill" d="M3,538.17q294.36,3.26,588.75,0-.32-18.46-.56-36.94-293.8,2.2-587.63,0Q3.28,519.69,3,538.17Z"/>
  <path class="frameFront" d="M585,501.28q-3-247.17,8.62-494.18Q297.45-5.09,1.05,7.1,12.83,254,9.67,501.28l28.87.2Q41,269.07,32,36.76q265.25-9.13,530.61,0-9.14,232.25-6.5,464.72Z"/>
  <path class="paneStill" d="M553.5,45.77c-81.18-6-429.87-6-512.63,0q8.37,223.17,6,446.55c80,1.91,420.61,1.94,500.61,0Q545.26,269,553.5,45.77Zm2.7,455.77q-258.89,1.68-517.76,0Q41.08,269.13,32,36.82q265.29-9.13,530.71,0Q553.4,269.05,556.2,501.54Z"/>
  <path class="windowClear" d="M553.5,45.77c-81.18-6-429.87-6-512.63,0q8.37,223.17,6,446.55c80,1.91,420.61,1.94,500.61,0Q545.26,269,553.5,45.77Z"/>
  <path class="blinds" d="M34.51,105.51q262.8-7.47,525.67,0,1.13-34.38,2.47-68.75Q297.4,27.63,32,36.76,33.39,71.13,34.51,105.51Z"/>
  <g class="blindsOverlapLine">
    <path d="M561.77,59.58Q297.4,51,32.92,59.58"/>
    <path d="M561.19,82.69q-263.54-8-527.19,0"/>
    <path d="M561.11,85.16q-263.46-8-527,0"/>
    <path d="M561,87.62q-263.38-7.89-526.86,0"/>
  </g>
  <path class="rail" d="M34.26,90.08q263.3-7.83,526.68,0c-.21,6.17-.31,9.25-.51,15.42q-262.78-7.45-525.67,0C34.57,99.33,34.46,96.24,34.26,90.08Z"/>
</svg>
