<svg viewBox="0 0 848.87 762.78">
  <path class="blinds" d="M54.88,671.79q369.38,1.35,738.75,0-2.21-310,9.79-619.89-379.06-12.66-758.33,0Q57.24,361.7,54.88,671.79Z"/>
  <g class="blindsOverlapLine">
    <path d="M802.15,84.51q-377.8-11.9-755.79,0"/>
    <path d="M803.42,51.9q-379.06-12.66-758.33,0"/>
    <path d="M801,117.13q-376.65-11.14-753.43,0"/>
    <path d="M799.87,149.75q-375.55-10.4-751.23,0"/>
    <path d="M798.86,182.37q-374.55-9.65-749.21,0"/>
    <path d="M797.93,215q-373.63-8.9-747.35,0"/>
    <path d="M798.86,182.37q-374.55-9.65-749.21,0"/>
    <path d="M797.08,247.61q-372.78-8.15-745.66,0"/>
    <path d="M796.32,280.23q-372-7.39-744.14,0"/>
    <path d="M795.65,312.86q-371.37-6.66-742.79,0"/>
    <path d="M795.05,345.48q-370.77-5.93-741.6,0"/>
    <path d="M794.54,378.11q-370.27-5.19-740.58,0"/>
    <path d="M793.77,443.36q-369.51-3.71-739,0"/>
    <path d="M794.11,410.73q-369.84-4.44-739.72,0"/>
    <path d="M793.5,476Q424.26,473,55,476"/>
    <path d="M793.32,508.62q-369.06-2.25-738.14,0"/>
    <path d="M793.22,541.25q-369-1.53-737.94,0"/>
    <path d="M793.2,573.89q-368.94-.81-737.9,0"/>
    <path d="M793.4,639.16q-369.15.63-738.3,0"/>
    <path d="M793.42,642.68q-369.16.72-738.34,0"/>
    <path d="M793.45,646.21q-369.19.79-738.39,0"/>
    <path d="M793.26,606.52q-369-.09-738,0"/>
  </g>
  <path class="rail" d="M55,649.74q369.21.87,738.43,0c0,8.82.09,13.23.16,22q-369.37,1.35-738.75,0C55,663,55,658.56,55,649.74Z"/>
  <path class="paneStill" d="M790.42,64.87c-116-8.61-614.1-8.5-732.34,0Q70,383.7,66.67,702.8c114.27,2.72,600.88,2.77,715.16,0Q778.64,383.78,790.42,64.87ZM794.27,716q-369.82,2.4-739.66,0,3.78-332-9.25-663.89,379-13,758.15,0Q790.28,383.86,794.27,716Z"/>
  <path class="windowClear" d="M790.42,64.87c-116-8.61-614.1-8.5-732.34,0Q70,383.7,66.67,702.8c114.27,2.72,600.88,2.77,715.16,0Q778.64,383.78,790.42,64.87Z"/>
  <path class="frameExterior" d="M794.27,716q-369.82,2.4-739.66,0,3.78-332-9.25-663.89,379-13,758.15,0Q790.28,383.86,794.27,716ZM847.83,9.72Q424.59-7.72,1.05,9.72q18.13,374.7,11.64,750,411.74,4.2,823.5,0Q830,384.61,847.83,9.72Z"/>
</svg>
