<svg viewBox="0 0 1214 1259.44">
    <path class="frame" d="M1213,6.93Q607-4.94,1,6.93,12.65,630,1.45,1253.25l48.45.78q9.84-596.76.51-1193.62,556.56-9.13,1113.18,0-9.35,596.76.51,1193.62l48.45-.78Q1201.34,630.15,1213,6.93Z"/>
    <path class="doorFront" d="M1163.69,60.41q-556.6-9.13-1113.28,0Q59.76,657.19,49.9,1254q557.13,8.48,1114.31,0Q1154.36,657.27,1163.69,60.41Z"/>
    <path class="doorBorderLine" d="M607.2,55.12V1259.44"/>
    <g class="edge">
        <path d="M1080.32,148.75q-195.73-2.3-391.49-2.89-1,512.87.07,1025.72,195.92-.43,391.82-3Q1074.6,658.7,1080.32,148.75Z"/>
        <path d="M133.27,1168.61q195.9,2.54,391.83,3,1-512.86.06-1025.72-195.75.58-391.48,2.89Q139.4,658.66,133.27,1168.61Z"/>
    </g>
    <g class="window">
        <path d="M154.57,1143.45q175,2.07,349.94,2.53,1.2-488.93.07-977.84-174.84.59-349.68,2.47Q159.87,657,154.57,1143.45Z"/>
        <path d="M1059.43,1143.45q-175,2.07-349.94,2.53-1.2-488.93-.08-977.84,174.86.59,349.69,2.47Q1054.12,657,1059.43,1143.45Z"/>
    </g>
    <g class="ball">
        <path d="M549.32,912.3c0,10.08,7.51,18.26,16.79,18.27s16.8-8.17,16.8-18.25-7.51-18.27-16.78-18.27S549.33,902.21,549.32,912.3Z"/>
        <path d="M549.38,456.83c0,10.08,7.52,18.25,16.78,18.25s16.78-8.18,16.78-18.27-7.52-18.26-16.79-18.25S549.37,446.74,549.38,456.83Z"/>
        <path d="M664.67,912.3c0,10.08-7.5,18.26-16.78,18.27s-16.8-8.17-16.81-18.25,7.52-18.27,16.79-18.27S664.67,902.21,664.67,912.3Z"/>
        <path d="M664.62,456.83c0,10.08-7.52,18.25-16.79,18.25s-16.77-8.18-16.77-18.27,7.52-18.26,16.79-18.25S664.62,446.74,664.62,456.83Z"/>
    </g>
    <g class="handle">
        <path d="M556.12,898.35c3.5,1.82,15.54,1.82,19,0q.08-212.9,0-425.78c-4.72-3.27-15.17-2.85-19,0Q556.25,685.47,556.12,898.35Z"/>
        <path d="M657.87,898.35c-3.49,1.82-15.54,1.82-19,0q-.09-212.9,0-425.78c4.72-3.27,15.16-2.85,19,0Q657.74,685.47,657.87,898.35Z"/>
    </g>
</svg>
