<svg viewBox="0 0 812.08 906.11">
  <path class="frameMediumFront" d="M811.06,5.23q-405-8.46-810,0,7.85,449.91.3,899.88h32.4q6.6-430.59.33-861.24,372-6.51,744,0-6.3,430.61.33,861.24h32.4Q803.22,455.2,811.06,5.23Z"/>
  <path class="doorMediumFront" d="M778.1,43.87q-372-6.52-744.05,0,6.3,430.61-.33,861.24H778.43Q771.83,474.52,778.1,43.87Z"/>
  <path class="doorBorderLine" d="M406.18,40.08c0,289.91,0,575.12,0,865"/>
  <g class="edgeMedium">
    <path d="M722.35,107.69q-130.8-1.65-261.63-2.08-.64,370.38,0,740.75,130.93-.33,261.86-2.12Q718.52,476,722.35,107.69Z"/>
    <path d="M89.45,844.24q130.92,1.8,261.86,2.12.7-370.36.05-740.75-130.83.44-261.63,2.08Q93.57,476,89.45,844.24Z"/>
  </g>
  <g class="windowFront">
    <path d="M103.69,826.07q116.92,1.47,233.86,1.81.81-353.1.05-706.18-116.85.43-233.69,1.77Q107.26,474.77,103.69,826.07Z"/>
    <path d="M708.39,826.07q-116.92,1.47-233.87,1.81-.79-353.08,0-706.18,116.84.43,233.68,1.77Q704.83,474.77,708.39,826.07Z"/>
  </g>
  <g class="bronzeMediumDark">
    <path d="M367.1,656.54c0,7.28,5.42,13.19,12.12,13.2s12.13-5.9,12.13-13.19-5.43-13.19-12.12-13.19S367.1,649.26,367.1,656.54Z"/>
    <path d="M367.13,327.61c0,7.28,5.43,13.18,12.12,13.18s12.11-5.91,12.11-13.19-5.42-13.19-12.12-13.18S367.13,320.33,367.13,327.61Z"/>
    <path d="M445,656.54c0,7.28-5.42,13.19-12.12,13.2s-12.13-5.9-12.13-13.19,5.42-13.19,12.12-13.19S445,649.26,445,656.54Z"/>
    <path d="M445,327.61c0,7.28-5.43,13.18-12.12,13.18s-12.12-5.91-12.11-13.19,5.42-13.19,12.12-13.18S445,320.33,445,327.61Z"/>
  </g>
  <g class="bronzeDarker">
    <path d="M372,646.46c2.53,1.32,11.23,1.32,13.75,0q0-153.74,0-307.48c-3.41-2.36-10.95-2.06-13.74,0Q372.09,492.73,372,646.46Z"/>
    <path d="M440.07,646.46c-2.52,1.32-11.22,1.32-13.74,0q0-153.74,0-307.48c3.41-2.36,10.95-2.06,13.74,0Q440,492.73,440.07,646.46Z"/>
  </g>
</svg>
