<svg viewBox="0 0 1202.1 1341.42">
  <path class="frameMediumFront" d="M1201.08,7.27Q601.13-5.27,1,7.27q11.63,666.53.44,1333.15h48Q59.24,702.51,50,64.51q551-9.66,1102.18,0-9.32,637.92.5,1275.91h48Q1189.47,673.9,1201.08,7.27Z"/>
  <path class="doorMediumFront" d="M1152.25,64.52Q601.15,54.85,50,64.51q9.32,637.92-.5,1275.91H1152.74Q1143,702.51,1152.25,64.52Z"/>
  <path class="doorBorderLine" d="M601.25,58.89V1340.42"/>
  <g class="edgeMedium">
    <path d="M1069.66,159.05q-193.79-2.43-387.6-3.07-1,548.7.07,1097.41,194-.5,387.94-3.15Q1064,704.66,1069.66,159.05Z"/>
    <path d="M132,1250.24q194,2.67,387.94,3.15Q521,704.69,520,156q-193.81.65-387.6,3.07Q138.14,704.63,132,1250.24Z"/>
  </g>
  <g class="windowFront">
    <path d="M153.13,1223.32q173.22,2.17,346.46,2.68,1.19-523.09.07-1046.18-173.1.65-346.2,2.62Q158.41,702.87,153.13,1223.32Z"/>
    <path d="M1049,1223.32q-173.22,2.17-346.46,2.68-1.18-523.09-.07-1046.18,173.1.65,346.2,2.62Q1043.69,702.87,1049,1223.32Z"/>
  </g>
  <g class="ball">
    <path d="M543.36,972.17c0,10.79,8,19.54,17.95,19.55s18-8.74,18-19.53-8-19.54-18-19.55S543.36,961.38,543.36,972.17Z"/>
    <path d="M543.41,484.87c0,10.79,8,19.53,18,19.53s17.95-8.76,17.95-19.55-8-19.53-18-19.53S543.4,474.08,543.41,484.87Z"/>
    <path d="M658.74,972.17c0,10.79-8,19.54-18,19.55s-18-8.74-18-19.53,8-19.54,18-19.55S658.74,961.38,658.74,972.17Z"/>
    <path d="M658.69,484.87c0,10.79-8,19.53-18,19.53s-18-8.76-18-19.55,8-19.53,18-19.53S658.7,474.08,658.69,484.87Z"/>
  </g>
  <g class="handle">
    <path d="M550.63,957.24c3.74,2,16.62,2,20.36,0q.07-227.78,0-455.54c-5-3.49-16.22-3.05-20.35,0Q550.75,729.49,550.63,957.24Z"/>
    <path d="M651.47,957.24c-3.74,2-16.62,2-20.36,0q-.08-227.78,0-455.54c5-3.49,16.23-3.05,20.35,0Q651.36,729.49,651.47,957.24Z"/>
  </g>
</svg>
