<svg viewBox="0 0 812.96 1288.81">
  <path class="frameDarkFront" d="M752.62,60.63A5411,5411,0,0,0,1,62.61Q24.53,669.2,20.34,1276.4l8.73.37q22.07.62,44.14,1.16Q76.11,694.77,58.4,111.76a5826.49,5826.49,0,0,1,637-1.56q-16.86,584.28-14.06,1168.88,22.06-.46,44.12-1l8.75-.34Q731.28,669.08,752.62,60.63Z"/>
  <path class="doorDarkFront" d="M650.91,112q53-55.14,106.87-109.49Q743.52,645,741,1287.75q-52.44-3.42-104.87-7.07Q639.87,696.3,650.91,112Z"/>
  <path class="doorDarkSide" d="M781.51,1287.33l-40.51.42Q742.88,645,757.78,2.48,778,4,798.15,5.59C788.22,431.77,782.24,861,781.51,1287.33Z"/>
  <path class="brassDarker" d="M780.29,652.67l-28.64.13q.32-23.62.64-47.23l28.64-.07Q780.6,629.1,780.29,652.67Z"/>
  <path class="brassDarkest" d="M775.42,639.41l-18.56.07c.11-8,.16-11.93.27-19.88l18.56-.05C775.58,627.49,775.53,631.46,775.42,639.41Z"/>
  <g class="bronzeDarker">
    <path d="M786.21,660.18c-.05,3.57-.09,7.15-.14,10.72,17.2.93,16,26.31,15.83,37.9-.15,12,.4,36.76-16.75,38.12l-.12,10.7c23.7-2.47,26.6-29.77,26.91-48.9C812.23,690.75,810,661.32,786.21,660.18Z"/>
    <path d="M739.54,657.14l-14.39-2.08.72-52.54,14.43-1.68Q739.91,629,739.54,657.14Z"/>
  </g>
  <g class="bronzeDark">
    <path d="M797.72,615.26l-10.88-1.62q-.23,15.83-.44,31.65l10.93-1.73C806.62,642.11,807.51,616.64,797.72,615.26Z"/>
    <path d="M728.86,647.2c4.23,0,7.76-7.89,7.89-17.59s-3.18-17.55-7.41-17.54l-6.64,0-.48,35.14Z"/>
    <path d="M718.11,612.33l7.52,0c.89,7.67,1.34,11.51,2.24,19.19-1.09,6.32-1.63,9.49-2.72,15.82l-7.52,0Q717.86,629.83,718.11,612.33Z"/>
  </g>
  <g class="bronzeMediumDark">
    <path d="M725.78,613.6c.8,6.84,1.24,10.66,2.09,17.9-1,5.72-1.53,8.86-2.42,14.09,2.66-2.8,4.57-8.88,4.66-16S728.42,616.32,725.78,613.6Z"/>
    <path d="M717.63,647.35c1.09-6.33,1.63-9.5,2.72-15.83-.9-7.67-1.35-11.51-2.24-19.19H715.6c-1.11,7.69-1.66,11.53-2.77,19.22.92,6.32,1.38,9.49,2.29,15.81Z"/>
  </g>
</svg>
