<svg viewBox="0 0 672.36 1120.38">
    <g class="post">
        <path d="M65.68,1118.74q-24-.33-48-.69Q15.3,575.73,1,33.57q25.24-1.17,50.5-2.2Q63.92,575,65.68,1118.74Z"/>
        <path d="M654.69,1118.05l-48,.69Q608.7,575,620.83,31.37q25.26,1,50.5,2.2Q656.74,575.69,654.69,1118.05Z"/>
    </g>
    <path class="gateFront" d="M445.35,2.46c24.95-4.28,48.93,1.11,71.07,12.88,21.39,11.37,44.5,18.55,68.91,14.7q-10.85,544.48-12.39,1089.11Q445.41,1095.44,318.22,1070q-.15-499.12-.86-998.26C367.23,62.62,394.9,10.32,445.35,2.46Z"/>
    <g class="panel">
        <path d="M445,45.78c23.94-2.32,43.66,2.51,64.18,13.67,16.79,9.14,31.36,16.76,51.14,16.52q-3.49,201.6-5.82,403.24-108.41,1.16-216.78,3.67,0-187.53,0-375c18.56-2.63,33-18,46.16-29.79C401.17,62.51,421.5,49.45,445,45.78Z"/>
        <path d="M554.49,524.12q-108.4-.33-216.8.52,0,251.42,0,502.83,106.4,19.21,212.93,37.57Q551.59,794.58,554.49,524.12Z"/>
    </g>
    <path class="gateSide" d="M585.33,30Q603,33.8,620.69,37.61q-12.2,537.18-14,1074.53l-33.76,7Q574.71,574.56,585.33,30Z"/>
</svg>
