<svg viewBox="0 0 669.02 1259.11">
  <path class="gateFront" d="M334.51,1c58.74,3.11,116,12.37,172.36,29C559.65,45.49,613.08,56.22,668,61q-12.06,598.5-19.23,1197.08-314.26-1.59-628.52,0Q12.93,659.54,1,61C55.93,56.22,109.37,45.49,162.15,30,218.52,13.37,275.76,4.11,334.51,1Z"/>
  <g class="panel">
    <path d="M334.51,50.88C387.87,54.12,439.93,62.5,490.77,78.3c39.66,12.32,79.54,23.38,121,28.51q-3.69,223.4-6.86,446.79-270.42-3.61-540.86,0Q60.9,330.21,57.22,106.81c41.58-5.12,81.58-16.16,121.32-28.52C229.29,62.51,281.25,54.12,334.51,50.88Z"/>
    <path d="M605.44,603.37q-270.33-3.43-540.67,0,4,299.63,7.13,599.25,263.19-1.32,526.38,0Q601.44,903,605.44,603.37Z"/>
  </g>
</svg>
