<svg viewBox="0 0 457.68 332.9">
  <path class="sill" d="M2.07,331.43q226.76,1.95,453.54,0-.24-11.37-.44-22.75Q228.85,310,2.5,308.68,2.31,320,2.07,331.43Z"/>
  <path class="frameFront" d="M450.44,308.71q-2.2-152.32,6.71-304.55Q228.93-3.16.53,4.16q9.06,152.16,6.7,304.55l22.24.12q1.86-143.22-5-286.38,204.36-5.46,408.83,0-7,143.13-5,286.38Z"/>
  <path class="paneStill" d="M24.42,22.45q102.3-2.73,204.66-2.8,0,144.85,0,289.72-99.8,0-199.6-.54Q31.33,165.61,24.42,22.45ZM36.17,303.16q93.38.39,186.76.44,0-139.1-.15-278.18-95.67.15-191.3,2.55Q37.83,165.51,36.17,303.16Z"/>
  <path class="paneSliding" d="M229.08,19.65q102.12.08,204.17,2.8-7,143.13-5,286.38-99.57.51-199.14.54Q229.07,164.52,229.08,19.65ZM240.42,299q88.16,0,176.31-.37-1.37-133.12,4.41-266.19-90.19-2.18-180.45-2.37Q240.33,164.51,240.42,299Z"/>
  <g class="windowClear">
    <path d="M416.73,298.61q-88.16.31-176.31.37-.09-134.46.27-268.93,90.26.19,180.45,2.37Q415.31,165.46,416.73,298.61Z"/>
    <path d="M222.93,303.6q-93.39,0-186.76-.44Q37.73,165.53,31.48,28q95.63-2.4,191.3-2.55Q223,164.52,222.93,303.6Z"/>
  </g>
  <path class="blinds" d="M29.7,289.81q199.14.58,398.28,0-1.2-133.71,5.27-267.36Q228.89,17,24.42,22.45,31,156.07,29.7,289.81Z"/>
  <g class="blindsOverlapLine">
    <path d="M432.57,36.52q-203.69-5.13-407.47,0"/>
    <path d="M433.25,22.45Q228.89,17,24.42,22.45"/>
    <path d="M431.93,50.59q-203.05-4.81-406.19,0"/>
    <path d="M431.34,64.65q-202.47-4.47-405,0"/>
    <path d="M430.8,78.72q-201.93-4.16-403.92,0"/>
    <path d="M430.3,92.79Q228.86,89,27.38,92.79"/>
    <path d="M430.8,78.72q-201.93-4.16-403.92,0"/>
    <path d="M429.84,106.86q-201-3.51-402,0"/>
    <path d="M429.43,120.93q-200.58-3.2-401.18,0"/>
    <path d="M429.07,135q-200.22-2.87-400.46,0"/>
    <path d="M428.75,149.07q-199.9-2.55-399.82,0"/>
    <path d="M428.47,163.15q-199.62-2.24-399.26,0"/>
    <path d="M428.05,191.29q-199.2-1.6-398.43,0"/>
    <path d="M428.24,177.22q-199.39-1.92-398.8,0"/>
    <path d="M427.91,205.36q-199.07-1.28-398.14,0"/>
    <path d="M427.81,219.44q-199-1-397.95,0"/>
    <path d="M427.76,233.51q-198.92-.66-397.84,0"/>
    <path d="M427.75,247.59q-198.92-.36-397.82,0"/>
    <path d="M427.86,275.74q-199,.27-398,0"/>
    <path d="M427.87,277.26q-199,.3-398.06,0"/>
    <path d="M427.88,278.78q-199,.35-398.08,0"/>
    <path d="M427.78,261.66q-198.94,0-397.88,0"/>
  </g>
  <path class="rail" d="M29.78,280.3q199.07.38,398.11,0c0,3.81.05,5.71.09,9.51q-199.14.58-398.28,0C29.74,286,29.75,284.11,29.78,280.3Z"/>
</svg>
