<svg viewBox="0 0 457.58 329.13">
  <path class="blinds" d="M29.55,289.81q199.14.58,398.28,0-1.18-133.71,5.28-267.36Q228.74,17,24.27,22.45,30.83,156.07,29.55,289.81Z"/>
  <g class="blindsOverlapLine">
    <path d="M432.42,36.52Q228.74,31.39,25,36.52"/>
    <path d="M433.11,22.45Q228.74,17,24.27,22.45"/>
    <path d="M431.79,50.59q-203.05-4.81-406.19,0"/>
    <path d="M431.19,64.65q-202.45-4.47-405,0"/>
    <path d="M430.65,78.72q-201.93-4.16-403.92,0"/>
    <path d="M430.15,92.79Q228.72,89,27.23,92.79"/>
    <path d="M430.65,78.72q-201.93-4.16-403.92,0"/>
    <path d="M429.69,106.86q-201-3.51-402,0"/>
    <path d="M429.28,120.93q-200.56-3.18-401.18,0"/>
    <path d="M428.92,135q-200.22-2.87-400.46,0"/>
    <path d="M428.6,149.07q-199.91-2.55-399.82,0"/>
    <path d="M428.32,163.15q-199.62-2.24-399.26,0"/>
    <path d="M427.91,191.29q-199.21-1.6-398.43,0"/>
    <path d="M428.09,177.22q-199.39-1.92-398.8,0"/>
    <path d="M427.76,205.36q-199.06-1.28-398.14,0"/>
    <path d="M427.67,219.44q-199-1-398,0"/>
    <path d="M427.61,233.51q-198.92-.66-397.84,0"/>
    <path d="M427.6,247.59q-198.92-.36-397.82,0"/>
    <path d="M427.71,275.74q-199,.27-398,0"/>
    <path d="M427.72,277.26q-199,.3-398.06,0"/>
    <path d="M427.73,278.78q-199,.35-398.08,0"/>
    <path d="M427.63,261.66q-198.93,0-397.88,0"/>
  </g>
  <path class="rail" d="M29.64,280.3q199.05.38,398.1,0c0,3.81.05,5.71.09,9.51q-199.14.58-398.28,0C29.59,286,29.61,284.11,29.64,280.3Z"/>
  <path class="paneStill" d="M428.17,308.87q-99.81.51-199.62.49,0-144.86,0-289.72,102.33.06,204.61,2.89Q426,165.63,428.17,308.87ZM426.1,28.05q-95.6-2.49-191.26-2.63-.19,139.08-.14,278.17,93.39,0,186.77-.4Q419.75,165.6,426.1,28.05Z"/>
  <path class="paneSliding" d="M228.55,309.36q-99.57,0-199.14-.49,2-143.2-5-286.34,102-2.8,204.13-2.89Q228.55,164.51,228.55,309.36ZM216.94,30q-90.22.2-180.41,2.45,5.94,133,4.36,266.15,88.17.33,176.32.33Q217.3,164.51,216.94,30Z"/>
  <path class="frameFront" d="M428.17,308.87q-199.38,1-398.76,0,2-143.2-5-286.34,204.31-5.62,408.74,0Q426,165.63,428.17,308.87ZM457.05,4.26Q228.87-3.25.53,4.26q9.78,161.61,6.28,323.46,222,1.81,444,0Q447.46,165.95,457.05,4.26Z"/>
  <g class="windowClear">
    <path d="M40.89,298.64q88.17.33,176.32.33.09-134.46-.27-268.93-90.22.2-180.41,2.45Q42.47,165.51,40.89,298.64Z"/>
    <path d="M234.7,303.59q93.39,0,186.77-.4Q419.75,165.6,426.1,28.05q-95.6-2.49-191.26-2.63Q234.65,164.5,234.7,303.59Z"/>
  </g>
</svg>
