<svg viewBox="0 0 251.33 207.51">
  <g class="post">
    <path d="M247.57,206.92l-18.34,0c-.38-82.42.5-122.33,2.76-204.71q9.42.31,18.83.66C248.16,85,247.12,124.72,247.57,206.92Z"/>
    <path d="M22.11,206.94l-18.35,0C4.21,124.72,3.17,85,.52,2.89q9.4-.35,18.82-.66C21.6,84.61,22.49,124.52,22.11,206.94Z"/>
  </g>
  <g class="plankLight">
    <path d="M194.7,207l34.53,0c-.38-82.42.5-122.33,2.76-204.71q-17.72-.55-35.44-1C195.05,84,194.45,124.23,194.7,207Z"/>
    <path d="M91.15,207h34.52V.5q-17.73,0-35.45.19C91,83.63,91.27,124.06,91.15,207Z"/>
  </g>
  <g class="plankDark">
    <path d="M125.67,207h34.51c-.12-82.94.18-123.37.93-206.31Q143.4.52,125.67.5Z"/>
    <path d="M56.63,207l34.52,0C91.27,124.06,91,83.63,90.22.69Q72.51.9,54.78,1.27C56.29,84,56.88,124.23,56.63,207Z"/>
  </g>
  <g class="plankMedium">
    <path d="M160.18,207l34.52,0c-.25-82.75.35-123,1.85-205.71Q178.84.91,161.11.69C160.36,83.63,160.06,124.06,160.18,207Z"/>
    <path d="M22.11,206.94l34.52,0c.25-82.75-.34-123-1.85-205.71q-17.72.41-35.44,1C21.6,84.61,22.49,124.52,22.11,206.94Z"/>
  </g>
</svg>
