<svg viewBox="0 0 590.82 487.74">
  <g class="post">
    <path d="M582.16,486.53l-43.16.06c-.9-193.88,1.19-287.75,6.5-481.53q22.14.74,44.28,1.57C583.54,199.84,581.09,293.18,582.16,486.53Z"/>
    <path d="M51.81,486.59l-43.15-.06C9.72,293.18,7.27,199.84,1,6.63q22.14-.84,44.29-1.57C50.62,198.84,52.71,292.71,51.81,486.59Z"/>
  </g>
  <g class="plankLight">
    <path d="M457.8,486.67l81.2-.08c-.9-193.88,1.19-287.75,6.5-481.53q-41.67-1.3-83.35-2.25C458.6,197.4,457.2,292,457.8,486.67Z"/>
    <path d="M214.21,486.73h81.2V1Q253.73,1,212,1.45C213.81,196.54,214.51,291.63,214.21,486.73Z"/>
  </g>
  <g class="plankDark">
    <path d="M295.41,486.74H376.6c-.3-195.1.41-290.19,2.18-485.28Q337.1,1,295.41,1Z"/>
    <path d="M133,486.67q40.59,0,81.19.06c.3-195.1-.4-290.19-2.17-485.28q-41.7.5-83.37,1.36C132.21,197.4,133.61,292,133,486.67Z"/>
  </g>
  <g class="plankMedium">
    <path d="M376.6,486.73l81.2-.06c-.6-194.63.8-289.27,4.35-483.86Q420.47,2,378.78,1.45C377,196.54,376.3,291.63,376.6,486.73Z"/>
    <path d="M51.81,486.59l81.21.08c.59-194.63-.81-289.27-4.35-483.86Q87,3.76,45.32,5.06C50.62,198.84,52.71,292.71,51.81,486.59Z"/>
  </g>
  <g class="beam">
    <path d="M47.21,47.74q.84,36.33,1.58,72.68,246.6-5.76,493.24,0,.74-36.35,1.57-72.68Q295.44,40.95,47.21,47.74Z"/>
    <path d="M52,361.18q.08,36.35.05,72.7,243.34-.76,486.69,0,0-36.35,0-72.7Q295.41,359.42,52,361.18Z"/>
    <path d="M427.14,118.29,52,361.18q56.7-.4,113.4-.62L542,120.42Q484.58,119.07,427.14,118.29Z"/>
  </g>
  <g class="steelMedium">
    <path d="M26.76,111.9c8.74-.24,13.11-.35,21.85-.57q-.55-27.24-1.18-54.48c-8.79.24-13.18.37-22,.64Q26.15,84.69,26.76,111.9Z"/>
    <path d="M30.52,424.87l21.55-.07q0-27.27,0-54.53c-8.62.05-12.94.08-21.56.15Q30.54,397.65,30.52,424.87Z"/>
    <path d="M48.39,100.61Q83,94.39,117.7,88.33c-.07-4.65-.11-7-.18-11.62Q82.6,72,47.67,67.58,48.06,84.1,48.39,100.61Z"/>
    <path d="M52.08,414.06l68.44-11V391.41Q86.29,386.16,52.06,381,52.09,397.53,52.08,414.06Z"/>
  </g>
</svg>
