<svg viewBox="0 0 702.97 587.74">
    <g class="post">
        <path d="M692.85,586.53l-51.37.06q-1.61-290.82,7.73-581.53,26.37.74,52.72,1.57Q690.8,296.45,692.85,586.53Z"/>
        <path d="M61.49,586.59l-51.37-.06Q12,296.51,1,6.63,27.4,5.79,53.76,5.06,63.23,295.73,61.49,586.59Z"/>
    </g>
    <g class="plankLight">
        <path d="M544.81,586.68q48.33-.06,96.67-.09-1.61-290.82,7.73-581.53Q599.61,3.76,550,2.81,543.65,294.7,544.81,586.68Z"/>
        <path d="M254.83,586.73h96.66V1q-49.64,0-99.26.45Q255.4,294.08,254.83,586.73Z"/>
    </g>
    <g class="plankDark">
        <path d="M351.49,586.74h96.65q-.52-292.65,2.6-585.28Q401.1,1,351.49,1Z"/>
        <path d="M158.16,586.68q48.35,0,96.67.05.53-292.65-2.6-585.28-49.62.5-99.24,1.36Q159.32,294.7,158.16,586.68Z"/>
    </g>
    <g class="plankMedium">
        <path d="M448.14,586.73q48.33,0,96.67-.05-1.06-292,5.17-583.87Q500.36,2,450.74,1.45,447.58,294.08,448.14,586.73Z"/>
        <path d="M61.49,586.59q48.35,0,96.67.09,1.07-292-5.17-583.87-49.62.94-99.23,2.25Q63.23,295.73,61.49,586.59Z"/>
    </g>
</svg>
