<svg viewBox="0 0 657.12 549.42">
    <g class="post">
        <path d="M647.59,548.23l-48,0Q598.08,276.5,606.81,4.8q24.63.67,49.27,1.46Q645.67,277.13,647.59,548.23Z"/>
        <path d="M57.54,548.28l-48,0Q11.31,277.16,1,6.26,25.67,5.48,50.31,4.8,59.16,276.45,57.54,548.28Z"/>
    </g>
    <g class="plankLight">
        <path d="M509.23,548.36l90.35-.08Q598.08,276.5,606.81,4.8q-46.37-1.23-92.74-2.11Q508.16,275.48,509.23,548.36Z"/>
        <path d="M238.22,548.41h90.34V1q-46.38,0-92.76.42Q238.76,274.9,238.22,548.41Z"/>
    </g>
    <g class="plankDark">
        <path d="M328.56,548.42h90.33q-.48-273.49,2.43-547Q374.94,1,328.56,1Z"/>
        <path d="M147.89,548.36l90.33,0q.5-273.49-2.42-547-46.38.47-92.75,1.27Q149,275.48,147.89,548.36Z"/>
    </g>
    <g class="plankMedium">
        <path d="M418.89,548.41l90.34,0q-1-272.86,4.84-545.67-46.37-.81-92.75-1.27Q418.35,274.9,418.89,548.41Z"/>
        <path d="M57.54,548.28l90.35.08q1-272.86-4.84-545.67Q96.67,3.58,50.31,4.8,59.16,276.45,57.54,548.28Z"/>
    </g>
</svg>
