<svg viewBox="0 0 946.22 804.52">
  <path class="trimBlack" d="M927,65.86q-453.6-16.05-907.48,0,16.1,368.61,9.25,737.67h889Q911.15,434.64,927,65.86Z"/>
  <g class="trimYellow">
    <path d="M30.21,698.47q443,1.1,886.05,0-.5-52.74-.56-105.49-442.47-1.66-884.93,0Q30.71,645.72,30.21,698.47Z"/>
    <path d="M30.41,487.51q442.81-4.45,885.66,0,.43-52.72,1.3-105.45-444.11-7.29-888.27,0Q30,434.8,30.41,487.51Z"/>
    <path d="M26.86,276.64q446.33-10.17,892.76,0,1.38-52.71,3.2-105.41-449.49-13.08-899.16,0Q25.48,223.94,26.86,276.64Z"/>
  </g>
  <path class="steelMedium" d="M893.41,64.7q-420.06-13.77-840.34,0Q68,433.9,61.67,803.52H884.81Q878.74,434.06,893.41,64.7Z"/>
  <g class="shutterBorderLine">
    <path d="M884.14,406q-410.88-5.7-821.81,0"/>
    <path d="M884.56,377.48q-411.3-6.36-822.65,0"/>
    <path d="M883.49,462.9q-410.25-4.39-820.51,0"/>
    <path d="M883.79,434.35q-410.55-5.06-821.1,0"/>
    <path d="M883.09,519.78q-409.84-3.09-819.71,0"/>
    <path d="M883.26,491.22q-410-3.74-820,0"/>
    <path d="M882.94,576.66q-409.7-1.8-819.41,0"/>
    <path d="M883,548.1q-409.75-2.45-819.5,0"/>
    <path d="M883,633.55q-409.8-.52-819.61,0"/>
    <path d="M883,605q-409.73-1.17-819.45,0"/>
    <path d="M883.39,690.44q-410.16.73-820.31,0"/>
    <path d="M883.18,661.88q-409.93.11-819.89,0"/>
    <path d="M884,747.34q-410.75,2-821.49,0"/>
    <path d="M883.65,718.77q-410.41,1.37-820.83,0"/>
    <path d="M884.37,775.67q-411.12,2.63-822.26,0"/>
    <path d="M891.22,121.75q-417.9-12.4-836,0"/>
    <path d="M892.28,93.21Q473.33,80.13,54.2,93.2"/>
    <path d="M889.29,178.59q-416-11-832.1,0"/>
    <path d="M890.22,150.05q-416.91-11.72-834,0"/>
    <path d="M887.62,235.45q-414.33-9.69-828.76,0"/>
    <path d="M888.42,206.9q-415.12-10.36-830.37,0"/>
    <path d="M886.2,292.3q-412.92-8.34-825.93,0"/>
    <path d="M886.88,263.75q-413.59-9-827.28,0"/>
    <path d="M885,349.16q-411.78-7-823.61,0"/>
    <path d="M885.59,320.61q-412.32-7.68-824.71,0"/>
  </g>
  <path class="awning" d="M19.23,65.86c-22.45-8.39-25.13-46-2.61-56q456.33-17.64,913,0c22.52,10,19.84,47.65-2.62,56Q473.25,49.81,19.23,65.86Z"/>
</svg>
