<svg viewBox="0 0 672.76 1143.92">
    <path class="frame" d="M51.81,56.28q284.51-10.87,569.14,0-12.08,543.24-14,1086.64h39.34l7.7-.12Q656.66,575.83,671.74,9,336.52-7,1,9,16.47,575.8,18.74,1142.8l7.7.12H65.79Q63.63,599.54,51.81,56.28Z"/>
    <path class="doorFront" d="M621,56.28q-284.51-10.87-569.14,0,12.09,543.24,14,1086.64H607Q609.13,599.54,621,56.28Z"/>
    <path class="escutcheon" d="M550.18,681.35l38.36.27q.6-57,1.29-114.1-19.27-.24-38.56-.45Q550.68,624.2,550.18,681.35Z"/>
    <path class="knob" d="M542.55,643.72c-.11,12.82,12.43,28.47,27.14,27.38,13.36-1,27.52-12.59,27.69-26.91s-13.8-26.19-27.13-27.41C555.54,615.45,542.67,630.87,542.55,643.72Z"/>
    <path class="lockFront" d="M556.82,594.07a13.44,13.44,0,1,0,13.58-13.14A13.35,13.35,0,0,0,556.82,594.07Z"/>
    <path class="peepholeFrame" d="M322.73,281.88a13.67,13.67,0,1,0,13.67-13.35A13.51,13.51,0,0,0,322.73,281.88Z"/>
    <path class="peepholeGlass" d="M328.8,281.87a7.6,7.6,0,1,0,7.6-7.42A7.51,7.51,0,0,0,328.8,281.87Z"/>
</svg>
