<svg viewBox="0 0 719.68 1227.02">
  <path class="frameLightFront" d="M1,12.52Q21.07,619.06,20,1226H70.31Q70.72,644.1,55.62,62.33a5971,5971,0,0,1,608.44,0Q648.55,644,649.37,1226h50.34q-.53-606.87,18.94-1213.5A5593.63,5593.63,0,0,0,1,12.52Z"/>
  <path class="doorLightFront" d="M664.06,62.33a5971,5971,0,0,0-608.44,0Q71.13,644,70.31,1226H649.37Q649,644.1,664.06,62.33ZM174.87,606.6Q173,386.76,169.73,166.92q190.09-5.14,380.22,0-3.29,219.84-5.14,439.68Q359.85,605,174.87,606.6Z"/>
  <path class="bronzeMediumDark" d="M562.41,672.34c-.16,19.23,18.61,37,37.41,38,19.87,1,37.89-18.45,38.11-37.35s-17.49-38.66-37.38-38C581.72,635.55,562.56,653.05,562.41,672.34Z"/>
  <path class="windowFront" d="M174.87,606.6q185-1.56,369.94,0,1.86-219.84,5.14-439.68-190.1-5.13-380.22,0Q173,386.76,174.87,606.6Z"/>
  <path class="flatRedDark" d="M390.94,415.88q-.06,29.92-.11,59.85-31-.08-62,0-.06-29.93-.11-59.85-30.17.11-60.33.35l-.36-61.64q30.29-.27,60.57-.4l-.12-59.85q31.33-.09,62.68,0l-.12,59.85q30.29.12,60.57.4l-.36,61.64Q421.11,416,390.94,415.88Z"/>
</svg>
