<svg viewBox="0 0 310.55 527.52">
  <path class="frameLightFront" d="M24,26q131.3-5,262.65,0Q281,276.48,280.16,527h21.71Q303.09,265.59,310,4.2,155.34-3.19.51,4.2,7.64,265.56,8.69,527H30.4Q29.4,276.49,24,26Z"/>
  <path class="doorLightFront" d="M286.6,26Q155.3,21,24,26q5.57,250.47,6.45,501H280.16Q281.15,276.49,286.6,26Z"/>
  <g class="edgeLight">
    <path d="M136.7,315q-35.28.06-70.58.25.69,87.83,1,175.66,34.89.24,69.79.29Q136.85,403.12,136.7,315Z"/>
    <path d="M173.85,315q-.15,88.11-.21,176.2,34.89,0,69.78-.29.33-87.84,1-175.66Q209.15,315.08,173.85,315Z"/>
    <path d="M136.11,60.56q-36.44.22-72.85,1.1,1.59,108.71,2.56,217.4,35.4-.29,70.82-.36Q136.43,169.62,136.11,60.56Z"/>
    <path d="M174.45,60.56q-.33,109.07-.54,218.14,35.42.07,70.83.36,1-108.7,2.56-217.4Q210.88,60.79,174.45,60.56Z"/>
  </g>
  <g class="panelLight">
    <path d="M183,324.35q-.19,78.75-.29,157.52,25.86,0,51.7-.2.27-78.57.81-157.16Q209.1,324.4,183,324.35Z"/>
    <path d="M75.34,324.51q.54,78.58.82,157.17,25.85.13,51.69.19-.09-78.76-.28-157.52Q101.46,324.4,75.34,324.51Z"/>
  </g>
  <g class="windowFront">
    <path d="M75.17,269.19q26.13-.19,52.27-.29-.28-99.1-.73-198.21-26.8.23-53.62.79Q74.35,170.33,75.17,269.19Z"/>
    <path d="M183.14,268.9q26.15.09,52.27.29.83-98.86,2.08-197.71-26.81-.56-53.62-.79Q183.42,169.8,183.14,268.9Z"/>
  </g>
  <g class="bronzeDarker">
    <path d="M149.39,132.45a5.9,5.9,0,1,0,5.89-5.76A5.83,5.83,0,0,0,149.39,132.45Z"/>
    <path d="M253.94,314.48l17.71.12q.27-26.33.59-52.65l-17.79-.21Q254.18,288.11,253.94,314.48Z"/>
    <path d="M109.43,308.55q45.7-.12,91.41,0,0-11.64.1-23.29-45.81-.15-91.61,0Q109.39,296.91,109.43,308.55Z"/>
  </g>
  <path class="peepholeGlass" d="M152,132.45a3.28,3.28,0,1,0,3.27-3.2A3.23,3.23,0,0,0,152,132.45Z"/>
  <g class="bronzeMediumDark">
    <path d="M250.42,297.11c0,5.92,5.74,13.14,12.53,12.64,6.16-.46,12.7-5.82,12.77-12.42s-6.37-12.09-12.52-12.65C256.42,284.06,250.48,291.18,250.42,297.11Z"/>
    <path d="M257,274.2a6.2,6.2,0,1,0,6.26-6.07A6.16,6.16,0,0,0,257,274.2Z"/>
    <path d="M113.43,288c-2.26,5.78-.31,11.75-1.33,17.71q43-.12,86.07,0c-1-6,.94-11.93-1.33-17.71Q155.14,287.92,113.43,288Z"/>
  </g>
</svg>
