<svg viewBox="0 0 504.42 856.55">
  <path class="frameDarkFront" d="M39.07,42.4q213.09-8.13,426.28,0-9,406.52-10.46,813.15h35.24Q492.1,431.22,503.39,7,252.32-5,1,7,12.58,431.18,14.29,855.55H49.53Q47.91,448.93,39.07,42.4Z"/>
  <path class="doorDarkFront" d="M465.35,42.4q-213.09-8.13-426.28,0,9,406.52,10.46,813.15H454.89Q456.5,448.93,465.35,42.4ZM122.19,437.08q-1.32-160.44-3.37-320.89,133.38-2.75,266.78,0-2.06,160.44-3.37,320.89Q252.21,436.09,122.19,437.08Z"/>
  <g class="edgeDark">
    <path d="M222.06,511.45q-57.27.1-114.55.41,1.11,142.54,1.64,285.09,56.63.39,113.26.47Q222.29,654.44,222.06,511.45Z"/>
    <path d="M282.35,511.45q-.23,143-.34,286,56.63-.07,113.26-.47.53-142.56,1.64-285.09Q339.63,511.54,282.35,511.45Z"/>
    <path d="M118.83,116.93q133.37-2.75,266.76,0Q383.54,277,382.23,437.09q-130-1-260,0Q120.87,277,118.83,116.93ZM107,453.8q145.19-1.14,290.38,0,1.58-176.55,4.15-353.08-149.34-3.57-298.68,0Q105.45,277.26,107,453.8Z"/>
  </g>
  <g class="panelDark">
    <path d="M297.18,526.6q-.3,127.83-.46,255.67,42-.09,83.9-.32.45-127.55,1.32-255.09Q339.57,526.69,297.18,526.6Z"/>
    <path d="M122.48,526.86q.87,127.54,1.31,255.09,42,.24,83.9.32-.15-127.83-.45-255.67Q164.85,526.69,122.48,526.86Z"/>
  </g>
  <path class="bronzeDarker" d="M412.34,510.59l28.74.2q.45-42.74,1-85.46-14.43-.18-28.88-.34Q412.73,467.79,412.34,510.59Z"/>
  <g class="bronzeMediumDark">
    <path d="M406.63,482.4c-.09,9.6,9.31,21.32,20.33,20.51,10-.74,20.61-9.44,20.73-20.16s-10.33-19.62-20.32-20.53C416.36,461.22,406.72,472.77,406.63,482.4Z"/>
    <path d="M417.32,445.21a10.06,10.06,0,1,0,10.17-9.84A10,10,0,0,0,417.32,445.21Z"/>
  </g>
  <path class="windowClear" d="M122.19,437.08q130-1,260,0,1.32-160.44,3.37-320.89-133.4-2.75-266.78,0Q120.88,276.63,122.19,437.08Z"/>
</svg>
