<svg viewBox="0 0 231.23 493.39">
  <g class="food">
    <g class="cartonMedium">
      <polygon points="26.84 307.12 26.86 277.97 57.02 281.67 50 309.96 26.84 307.12"/>
      <polygon points="26.86 277.97 46.36 287.58 26.84 307.12 26.86 277.97"/>
      <polygon points="57.02 281.67 35.78 286.29 50 309.96 57.02 281.67"/>
      <polygon points="7.16 308.24 1.26 284.25 26.83 281.18 26.79 305.88 7.16 308.24"/>
      <polygon points="26.83 281.18 10.29 289.29 26.79 305.88 26.83 281.18"/>
      <polygon points="1.26 284.25 19.25 288.21 7.16 308.24 1.26 284.25"/>
    </g>
    <g class="takeoutBag">
      <path d="M45,239l1.32-2.6c3.24.19,6.41-.64,6.7,3.18.13,1.59,1.49,5.2-2.14,4.86a11.08,11.08,0,0,1-5-2.29Z"/>
      <path d="M20.13,229.93c-3,.52-6.3-.5-7.75,1-1.62,1.63-3.38,3.63-2.4,6.52,1.13,3.36,7.5,0,8.24-2.09Z"/>
      <path d="M22.56,231.29c.29,7.5,2.55,15.42,5.54,15.42a18.49,18.49,0,0,1,4.31.53c4.17,1.21,7.22-2.92,8.73-8L45,239c3.87,13.31,8,30.08,12.07,42.68.39,6.26,1.26,11.54.38,14.24-1.53,4.69,1.4,9.3,1.23,12.61-3.54.64-6.63,1.56-8.63,1.44a157,157,0,0,0-18.45,0c-5.33.34-10.64-1.05-14.93-.66-3.61.33-7.24-.86-10.23-1.07a20.05,20.05,0,0,0-5.9.38c-1-8.81,1.6-17.34.77-24.37,6.1-16.07,12-34.83,18.36-52.86Z"/>
    </g>
    <g class="bagOverlapLine">
      <path d="M22.56,231.29A66.7,66.7,0,0,0,18,241.41"/>
      <path d="M45.24,240c1.12.77,6,1.05,6,2.46,0,.7-2.51-.42-2.49-.5"/>
      <path d="M20.13,229.93c-2.05,2.47-5.19,1.1-7.39,4.73"/>
      <line x1="18.81" y1="249.13" x2="10.56" y2="266.98"/>
      <line x1="20.91" y1="254.55" x2="11.27" y2="272.49"/>
      <line x1="42.36" y1="248.54" x2="49.72" y2="269.1"/>
      <line x1="38.8" y1="253.59" x2="48.28" y2="274.85"/>
    </g>
  </g>
  <g class="skinBlack">
    <path d="M196.54,373.48c5.67,25.43-9.79,61-3.4,88.86-.55,15.28-26.67,22.32-23.92-3.8,6-18.9-5.33-55.68-4.64-83.69Z"/>
    <path d="M158.91,365.75c8.93,27.49-2.58,45.88,5.4,77,2.09,21.7-18.63,33-22.93,4.49,2.06-24.06-12.89-50.18-14.61-78.53Z"/>
    <path d="M168.9,69.65a51.11,51.11,0,0,0,2.88,28.94c-22.55,21.52-34.58,36.27-37.3-5.54"/>
  </g>
  <g class="soleLightTan">
    <path d="M113.89,478.72a3.68,3.68,0,0,0,.86,3.62c5,5.35,21.62,6.53,30.74.32,14.31-9.75,27.21-16.79,24.68-22.33Z"/>
    <path d="M145.25,486.73a2.64,2.64,0,0,0,0,3c2.28,2.6,19.58,4.95,27.52,2.12s20.2-4.86,21.45-8a7.32,7.32,0,0,0,.29-3.66Z"/>
  </g>
  <g class="khariShoe">
    <path d="M164.31,442.71c4,3.89,6.23,9.41,6.13,16.36-.07,4.6-9.73,8.05-17.95,15.73-17.74,16.58-37.87,7-38.6,3.92-3.64-15.22,17-5.61,23.6-29.36,1.44-5.15,10.49-4.86,15.42-2.22,3.86,2.07,1.43,8.45-1.16,14.68A34.54,34.54,0,0,0,164.31,442.71Z"/>
    <path d="M181.94,472.27c5.14-2.07,9.7-5.65,11.2-9.93a26.85,26.85,0,0,1,1.37,17.85c-4,5.41-13.2,5.82-18.69,8.13-9.82,4.11-28.33,1.73-30.57-1.59-3-11.19,15-9.9,19-24.39,1.75-6.48,8.86-6.86,15.94-5.8C186.84,457.54,183.32,465.67,181.94,472.27Z"/>
  </g>
  <path class="khariShorts" d="M200.21,232.46c1.29,3.13,4.91,5,3,10.94-1.7,5.37,3.12,13.77.78,26.56-1.36,7.45,1.88,17.55-2.73,30.67-3,8.52-1.14,15.11-3.13,26.37-6,33.67,3.52,36.72-1.17,42.38a13.28,13.28,0,0,1,1,7.42c-6.84,3.32-29.5,4.89-37.31,1a49.11,49.11,0,0,0-1.56-8.4c-6.25,3.71-28.72,5.08-35.55,1.95.25-6.6-3-14.5-1.95-23.63.56-5-3.72-14.26-3.52-22.07.37-14.89-5.08-33.6-4.1-54.89.37-8.18-2-19.08,1.36-30.07a19.52,19.52,0,0,0,1-6.84Z"/>
  <path class="khariShirt" d="M144.55,118.61c5-9.22,8.68-15.74,16.82-6.62-14.76,15.2-17.89,17.35-29.34-2.06C134.78,99.54,139.45,111,144.55,118.61Z"/>
  <path class="khariSweater" d="M226.79,166.51c5-5.91-1.38-5.54-2.76-13.71,4.37-4.2-3.19-7.28-4-10.69-3.32-13.54-8.2-26.07-13.45-33.33-4.86-6.71-18.87-5.91-27.64-9.7-31.48,24.16-30.09,37.75-50.24,4.25-8.53,5-15.95,3.19-23.75,20.67-1.51,3.39-2.75,10.87-4,12.7-4,5.79-3.9,13.71-7.42,21.38-.77,1.67-3.65,2.27-3.15,8.3-6.66,3.27-1.13,6.17-4,8.93-3.52-.72-3.9,1.89-5.79,4.53a8,8,0,0,0-6.29,5.28c-3.79.29-6.23,2.46-7.67,6-3.52-1.63-4.65,1.26-7.29,3-2.28-.18-4,1.46-5.16,5,4.07,2.85,8.68,8.82,9.49,15.46,3.47,2.18,5.91,1,8.28-3.37,3.15,3,6.63-1.08,11.16-3.14,5.12-2.33,9.86-4.26,12.32-7.3s7.3,1.64,18.49-19c-.25,12.33-4.89,25.9.5,32.07-1.52,4.53-1.49,8.33,2,10.49,10.71,3.94,64,3.94,83.79-.27,1.86-1.38,1.78-2.82.12-4.3,3.45-2.72,3.44-5.59,1.75-8.25l18.24-17.54C231.83,191.29,234.09,176.82,226.79,166.51Z"/>
  <g class="khariSweaterTrim">
    <path d="M159.48,112.05c-4.78,3.81-10.06,7.29-14.3,8.87-4.19-3.26-7.52-8.24-10.26-13.18-1,.79-1.87,2.68-3,4.62,3.73,6.09,8.5,12,13.12,15.11a57.34,57.34,0,0,0,17.59-11A43.45,43.45,0,0,1,159.48,112.05Z"/>
    <path d="M54.11,199.19c4.07,2.85,8.68,8.82,9.49,15.46-3.79,1.36-7.45,4.88-10,5.56C50.91,222.06,41,207.82,43.67,206,43.4,204.35,51.81,201.09,54.11,199.19Z"/>
    <path d="M200.14,224.14c-19.8,4.21-73.08,4.21-83.79.27-.94-.08-1.72,11.52-.78,11.61,14.61,6,82.53,3.71,86.06-1.3C200.3,231,201.36,228.07,200.14,224.14Z"/>
    <path d="M198.24,169.5c4.74,2.17,4.07,16.81-4.48,18.71C168.42,192,171.25,153,198.24,169.5Z"/>
  </g>
  <g class="khariCollar">
    <path d="M169.34,91.05c4-2.36,6.2,6,9.57,8,2,2.73-13.61,15.49-14.47,19.09-5.05-3.79-6.32-12.67-12.53-9.83C161.06,102.91,171.07,96.08,169.34,91.05Z"/>
    <path d="M138,108.29c-1.73-5.68-2-11.11.54-16.11-3.37.21-5.68,7.58-9.89,11.15-1.51,3.24.32,8.42.32,12.73C133.41,112.28,133.92,104.71,138,108.29Z"/>
  </g>
  <path class="khariHatMedium" d="M182.92,147.26c-35.28,1.88-34.12,50.46-3.76,60.17Z"/>
  <path class="khariHatLight" d="M208.89,194.08a6.24,6.24,0,0,1-5.73-1.56c-5,.93-8.33-.31-9.4-4.31-2.44-1.49-9.6-1.64-11.66-4.2-2.41-3,1.3-16.21,6-17.49,3-.81,6.51,2.44,10.17,3a3.61,3.61,0,0,1,3-1.33c1.82-6.51-4.64-10.55-8.94-21.61-3.54-.32-5.07-.14-9.35.7-11.85,2.31-29.82,40.5-3.76,60.17,16.09,12.14,38.4,1.55,41.09-13.38C216.57,194.47,211.75,196,208.89,194.08Z"/>
  <path class="hairBlack" d="M107.19,29.31c1.25-17.74,26.57-37.17,55.27-25.54,15.68,6.36,20.63,22.4,18.94,43.19C153.29,64.23,128.63,57.82,107.19,29.31Z"/>
  <g class="eye">
    <circle class="sclera" cx="128.3" cy="59.63" r="18.32"/>
    <g class="irisDarkBrown">
      <ellipse cx="134.15" cy="59.64" rx="2.85" ry="3.67" transform="translate(-8.35 24.31) rotate(-10.04)"/>
      <ellipse cx="112.86" cy="60.86" rx="2.21" ry="3.67" transform="translate(-8.88 20.62) rotate(-10.04)"/>
    </g>
    <g class="pupil">
      <ellipse cx="133.62" cy="59.73" rx="1.11" ry="1.43" transform="translate(-8.37 24.22) rotate(-10.04)"/>
      <ellipse cx="112.2" cy="60.97" rx="0.86" ry="1.43" transform="translate(-8.91 20.5) rotate(-10.04)"/>
    </g>
  </g>
  <g class="skinBlack">
    <path d="M45,206.13c1.69.14,8.4,9.82,8.26,13.14,0,5.1-3.72,11.79-7.18,13.55,2.3.81,2,2.73,0,5.69-1.78,2.57-5.77,2-5.77.07-1.43.61-4.81.34-5.49-1.15-2.3,1.21-5.42,1.15-6.7-.41-4.41.81-7-.28-5.9-4.47-3,1-5-1.56-3.79-3.12a38.62,38.62,0,0,0,3.93-4.87c1.35-4.95,5.69-9.76,10.29-12.8C37.88,208.24,41.77,205.22,45,206.13Z"/>
    <path d="M185.83,183.33c4.38-.42,7-12.91,4.57-13.93s-3.88-10.41-13.32-13.69c-4.18-1-8-3.45-11.68-6.84-3-1-3.57,5.36,1.48,8.7a47.21,47.21,0,0,0-8.92-1.19c-2.56,0-4.25,4.41-2.16,6-3.28-.44-3.86,5-1.63,6.38-1.94.3-2.35,5.24.29,6.33-1.34,1-.89,4.69,1.71,5.5,5,1.56,7.74,4.46,14.29,4.91C178.69,186.1,181.35,182.92,185.83,183.33Z"/>
    <path d="M107.19,29.31c9.69,3,31.55-1.33,42.86-3.26,1.3,12.4,1.78,13.76,10.58,19.81,1.78,1.21,2.23,2.21,2.51,5.79.83-.15,6.31-2,6.84-2.8,1.1-7,10.75-8,11.77-.4C183,57.51,178,60.1,176.82,63.53c-1.3,3.92-5.46,4.37-7.22,2.84.13,11.82-7.89,22.91-21.2,29.57-6.07,3-11.39,7.49-20,6.58-6.22-.66-7.15-6.36-9.79-9.51-12.76-15.24-8.08-29.3-10-33.81-1.11-2.62-2.08-5.05-1.94-10.87S105.25,39.79,107.19,29.31ZM131,59.87c4.81,3.5,9.45.33,12.54-2.23-2.19-.76-5.22-2.4-8.06-2.14A6.5,6.5,0,0,0,130.29,59C129.85,59.81,130.69,59.62,131,59.87Zm-11.84-.11c-1.43-1-2.51-2-4.24-2.46a5.92,5.92,0,0,0-4,.53,5.69,5.69,0,0,0,.22,4c4,2.16,6.68-1.15,7.27-1.28S119.63,60.06,119.19,59.76Z"/>
  </g>
  <g class="skinOverlapLine">
    <path d="M155.8,162.42a30.17,30.17,0,0,0,5.95,1.34"/>
    <path d="M154.17,168.8a23.77,23.77,0,0,0,6.2,1.68"/>
    <path d="M154.46,175.13a28.57,28.57,0,0,0,5.39,1.39"/>
    <path d="M166.88,157.57c2.58.65,4.85.89,6.54.35"/>
    <path d="M29.93,217.92c-3,2.84-5.55,4.06-7.65,6.64"/>
    <path d="M22.14,232.55c2.94-1,5.12-2.16,6.09-4.46,1.75-1.17,3.3-2.49,5.63-2.65"/>
    <path d="M28,237c4.87-1.69,7.54-4.55,8.46-7,.61-3.79-3.79-4-8.13-.06a6.41,6.41,0,0,1-1.81.36"/>
    <path d="M34.74,237.43c6.1-3.39,6-7.66,8.94-10.91.48-4.06-4.67-3.72-8.07.94"/>
    <path d="M40.23,238.58c4.94-2.44,5.48-5.83,6.7-8.6,1.09-2.17-1.49-3.93-3.25-3.46"/>
  </g>
  <g class="skinFoldLine">
    <path d="M47.1,216.6c-2.52,4.22-8.66,8.79-13.24,8.84"/>
    <path d="M171.43,51.88c3.57-12.3,13.49-3.18,6.08,6.86"/>
    <path d="M171.77,55c1.81,1.89-1.75,5,.39,5.62,1.9.59,1-3.22,2.77-4,3.81-1.8,2.26-6.91-.47-4.55"/>
  </g>
  <g class="clothesDisplayLine">
    <path d="M139.6,239.33c-3.3,8.63,1.5,14.24,1.14,20.87-.86,15.65,6.81,14.6,12,20.54"/>
    <path d="M150.49,239.61c-1.19,5.32-.46,10.93.69,17,1.38,7.25-1.28,12.36-9.91,11.69"/>
    <path d="M169.93,239.27c4.83,6.82,12.5,12.12,23,15.81"/>
    <path d="M115.36,240.67a12,12,0,0,0,4.83-3.33"/>
    <path d="M147.5,479.08c-.37,2.63,13.39,4,18.74,2.24a52.74,52.74,0,0,0,15.7-9.05"/>
    <path d="M151.75,461.82c-6,7-12.06,13.45-19.15,14.39-7.39,1-17.22-1.18-17.9-4.68"/>
  </g>
  <g class="clothesOverlapLine">
    <path d="M113.62,135c-1.3,11.95.61,32.19.23,46.82"/>
    <path d="M188.61,132c0,3.49,2.12,9.26,3.66,14.56"/>
    <path d="M201.21,168.17A5.87,5.87,0,0,1,205,170c1.51-2.4,3.64-1.32,6-.34,1.67.69,1.58-1.35,5.23.64"/>
    <path d="M152.74,280.74c.95,6.24,3.22,68.77,6.24,75-1.4,4.45-.76,9.63.14,13.63"/>
    <path d="M153,276c4.68-4.33,17.32-7.37,17.91-5.27s-16.74,3.75-18.21,10"/>
  </g>
  <g class="clothesBorderLine">
    <path d="M196.33,169c-.5-4.27-3.63-8.65-6.16-12.49-3.45-5.22-5.64-8.77-9.79-8.27"/>
    <path d="M168.51,194.08c3.54,2.07,10.93-4,18.08-7.86"/>
    <path d="M197.84,192.52c-2.47,9.07-5.51,20.12-14.92,17.29"/>
    <path d="M208.31,194.18c1,2.9,5.34,7.34,1.61,14.12"/>
  </g>
  <g class="clothesFoldLine">
    <path d="M59.27,194.18A7.58,7.58,0,0,1,63,196.65"/>
    <path d="M66.56,191.16c3.39,1.59,6.15,4.83,8.33,9.59"/>
    <path d="M71.88,211.28c1.4-3.46-3.49-7.91.5-6.43"/>
    <path d="M74.23,185.12a2.57,2.57,0,0,1,2.71,1.38"/>
    <path d="M80.52,179.84c4.51-.75,9.07,4.49,9.19,8.14"/>
    <path d="M86.31,175.31c9.55,2.3,16.39,14,17.64,12.67,2.41-2.64-1.48-5.93-4.78-7.86"/>
    <path d="M88.79,172.59c4-.45,14.94,4.45,18.36,10"/>
    <path d="M90.33,166.38c3.54.15,5.73,1.17,6.67,3"/>
    <path d="M95.4,160.06c2.32,2.41,6.32,4.06,11.63,5.12"/>
    <path d="M105,158.69c1.7,2,4.63,3.25,8.58,3.93"/>
    <path d="M102.93,140.22a23.85,23.85,0,0,0,8.09,9.92"/>
    <path d="M117.86,124.38c-2.74,3.65-6.38,8.66-4.24,10.65a6.15,6.15,0,0,1,3.21-3.81"/>
    <path d="M111.93,123c-.52,4.58-.39,8.1,1.23,9.19"/>
    <path d="M134.73,149.91a71.92,71.92,0,0,1-7.07,21.77"/>
    <path d="M135.07,166.78c-2,8.32-6.42,17.51-7.29,24.85"/>
    <path d="M114.35,213.92c3.05,1.88,8.18,8,4,7"/>
    <path d="M116.61,207.7a31.08,31.08,0,0,0,18.69,10.49"/>
    <path d="M164.48,214.31a66.6,66.6,0,0,0,15.9-6"/>
    <path d="M202,211.59c-12.91,6.71-34.11,8.28-17.81.79"/>
    <path d="M200.26,219.84a23.59,23.59,0,0,1-11.16,1.54"/>
    <path d="M179.87,134.07c2.74.14,5.09.82,6.72,2.5"/>
    <path d="M177.93,126.09c6,.34,13,10,6.5,6.61"/>
    <path d="M179.07,122.67c3.64,2.83,6.4,3.8,7,.11"/>
    <path d="M191,112.86c-3.76,6.84-2.39,13.11-2.43,19.14"/>
    <path d="M193.89,117.65c-2.16,3.37-3.78,7.08-3.31,12.08"/>
    <path d="M211.22,125.63c.49,4.21-.15,8.93-3.2,14.71"/>
    <path d="M220.9,149.11c-.45,4.11-8.2,8.44-14.93,8.67"/>
    <path d="M224,152.8c-1.64,1-2.48,1.62-.85,4.29"/>
    <path d="M207.23,165.07c-.16-2.25-3.42-1-4.22,1.6"/>
    <path d="M205,170c4.28,2.64,2.74,10.4,4.16,10.62s1.52-1.76,1.26-4"/>
    <path d="M203.16,192.52c3.5-1.35,4.75-7.15,6.23-5.56"/>
    <path d="M208.89,194.08a5.83,5.83,0,0,0,2.78-2.56"/>
    <path d="M224.67,186.27c1.93-7.29-1.56-13.18-8.44-16"/>
    <path d="M226.72,175.56c-2.65-4.34-6.44-7-11.86-7.18"/>
    <path d="M226.79,166.51c-4.75-4.06-11.24-1.78-11.24-3.72s6-1.25,9.12.57"/>
    <path d="M194.33,278c0,7,3.93,20,5.5,13.58"/>
    <path d="M146.22,280.54c-4.88-2.84-13.21-3.3-20.75-4.87"/>
    <path d="M140.25,282.27c-5.12-.46-10.9.22-17,1.42"/>
    <path d="M155,281c4.77-2.93,14.74-3.68,23.9-3.77"/>
    <path d="M184.88,293.82a59.79,59.79,0,0,0,10.42,24.35"/>
    <path d="M148.24,291.13a175.45,175.45,0,0,0-11,30.09"/>
    <path d="M123.7,345.73c3.38,3.28,11,12.9,1.16,6.93"/>
    <path d="M140.72,349c2.86,10.26,10.58,21.15,15.86,16.6"/>
    <path d="M158.41,353.89c-1.13,3.64-2.85,6.69-5.67,8.66"/>
    <path d="M197,369.38a20.09,20.09,0,0,1-5.63,4.32"/>
    <path d="M193.7,367.94a21.75,21.75,0,0,1-10.57,4.76"/>
    <path d="M160,360.43c3.49,1.7,5.1-1.77,6.77-5.07"/>
    <path d="M159,355.75a5.74,5.74,0,0,0,2.05,2.88"/>
  </g>
  <path class="lipMaleDark__noStroke" d="M121.82,83.37a11.87,11.87,0,0,0,5.35-.47c2,0,3.33.66,10,.59-4.07,2.66-3.57,6.47-11.36,6.92-6,.35-4.62-4.38-6.41-5.5C121,84.46,121,83.72,121.82,83.37Z"/>
  <path class="lipBorderLine" d="M137.22,83.49c-8.2.38-10.79,2-12.07,2-2.06,0-4.15-1-5.7-.6"/>
  <g class="lipEdgeLine">
    <path d="M127.17,82.9a11.87,11.87,0,0,1-5.35.47"/>
    <path d="M133.25,87.49c-4,3.9-11.66,4.16-12.55-.52"/>
  </g>
  <g class="noseLine">
    <path d="M130.94,72c1.49.42,1.92,3.7.24,4.76"/>
    <path d="M118.87,68.68c-3.07,5.95-3,8.4.34,9.52,5.1,1.71,5.75-1.76,9.83-1.42"/>
  </g>
  <g class="eyeFoldLine">
    <path d="M110.85,63.68c.7,1.26,3.76,1.86,5.6.6"/>
    <path d="M131.74,62.54c2.31,1.94,7.13,1.92,9.65-.85"/>
  </g>
  <g class="eyeCornerLine">
    <path d="M145.73,58a6.56,6.56,0,0,1-2.16-.36"/>
    <path d="M109.45,58.87a8.34,8.34,0,0,1,1.52-1"/>
    <path d="M111.19,61.83a10,10,0,0,1-.88-.48"/>
  </g>
  <g class="eyeCreaseLine">
    <path d="M130.31,55.58c2-3.41,6.86-3.61,11.34-.73"/>
    <path d="M110,56.58c.12-2.78,5.08-2.77,7.32-.56"/>
  </g>
  <g class="eyebrowBlack">
    <path d="M128.08,46.64c1.08,5.29,5.26,3.14,10.44,3,2.21,0,3.78,0,7.27,2,1,.56,2.13.06,1.7-.39C141.56,44.74,137.5,47.17,128.08,46.64Z"/>
    <path d="M106.89,52.82c.08.67.17,1.28.28,1.84a6.28,6.28,0,0,1,4-2.58c4.82-1.06,6.51.13,6.61-4.77C109.87,49.23,109.33,49.07,106.89,52.82Z"/>
  </g>
</svg>
