<svg viewBox="0 0 225.7 597.59">
  <g class="tomer">
    <path class="soleWhiteDark" d="M113.42,561.8c-5.84,8.31-14.6,10.63-22.6,13.18a233.6,233.6,0,0,0,27.37-.5c6.65-3,10.39-7.13,15.57-13.73C132.4,552.61,120.82,551.27,113.42,561.8Z"/>
    <g class="soleWhite">
      <path d="M113.18,557C107.51,565,98.8,568.52,91,571V575c8-2.55,16.76-4.87,22.6-13.18,7.41-10.53,19-9.19,20.34-1q-.54-4-1.19-7.53C129,547.87,119.6,547.85,113.18,557Z"/>
      <path d="M67.21,574.37c-10.39-1.41-19.37-.32-24.35-4.2a11.93,11.93,0,0,0,.32,4.65c.6,1.89,9.79,3.69,14.91,3.53,10.1-.32,24.53,4.52,33.51-1.44,1.12-.75,1.63-3.22,1.66-6.54C87.59,574.21,79.33,576,67.21,574.37Z"/>
    </g>
    <g class="tomerShoe">
      <path d="M113.18,557c6.42-9.13,15.85-9.11,19.54-3.76-3.95-21.18-11.24-27.54-29.42-8.29,0,6.19-8.84,16.46-12.33,17V571C98.8,568.52,107.51,565,113.18,557Z"/>
      <path d="M93.26,570.37a66.74,66.74,0,0,0-4.39-22.8H61.82c-6.23,18.34-18.11,11.53-19,22.6,5,3.88,14,2.79,24.35,4.2C79.33,576,87.59,574.21,93.26,570.37Z"/>
    </g>
    <g class="tomerPants">
      <path d="M126.09,536.89c-7.43-2.84-19.4,4.4-23.72,12.1-6.49-2.1-9.52-16-19-26.7C101.63,486.48,121.87,498.34,126.09,536.89Z"/>
      <path d="M92.2,507.19c1.17,17.29,8.56,20.79,1.17,29.93.73,4.51,13.76,6.79-5.05,14.77-6,1.53-26.26.43-29.35-1.17-6.42-3.3-4.74-9.55,0-13-15.75-8.94-.78-14.38-3.7-39.26Z"/>
    </g>
  </g>
  <g class="nestor">
    <g class="nestorBoot">
      <path d="M205.11,585.82c-.4-16.55-6-30.48-4.07-47.65l-26.4,1.47c-1.65,40.34-31.25,26.58-26,49.78C167.16,590.44,195.68,587.46,205.11,585.82Z"/>
      <path d="M156.73,540c1.23,11.69,10.1,21.8,11.77,35.07,0,0-38.31,26.77-51.54,16.73-2.33-21,17-9.34,14.27-42.92C137.86,538.08,146.52,535.81,156.73,540Z"/>
    </g>
    <g class="soleTan">
      <path d="M205.11,585.82c-9.43,1.64-27.36,0-32.3.63-7.06.82-5.65,4-24.13,3,.21.9.47,1.87.78,2.89,11.49,1.35,18.7,1.47,22.4-2l.09,4.12c1.1,2.32,31.9,2.32,32.88,0A71.3,71.3,0,0,0,205.11,585.82Z"/>
      <path d="M168.5,575.06c-3.78-8.17-23.73-3.6-33.93,10.2-6,8.16-12.16,8.62-17.61,6.69a4.24,4.24,0,0,0,.12,3.24c10.46,6.79,51.78-12.31,51.78-12.31A14.48,14.48,0,0,0,168.5,575.06Z"/>
    </g>
    <g class="soleTanDark">
      <path d="M138.27,592.64l-1-5.7c-4.89,9.65-17,10.8-20.16,8.25,2,2.63,15.47,2.22,30.77,2,1.67,0,4.48-1.84,6.06-3.45,0,0,6.6.17,7.91-.36,1.59-.26,7.12-7.73,7-10.46C166.92,574.89,146.88,579,138.27,592.64Z"/>
    </g>
    <g class="nestorPants">
      <path d="M151.9,510.7c.66,5.83,3.54,10.11,2.64,12.85,2.26,1.59,3.71,6,2.26,8.74,3.31,3.1,3.6,7.7.42,10.75-9.17-7.34-24.48.55-25.76,9.67-4.77-2.38-5.5-5.32-5.52-8.64,0-5.7-4.09-5.5-4.3-10.85-.35-8.66-4.57-14.44-7.88-22.12Z"/>
      <path d="M202.83,500.44c-2.24,19.8,2.43,23.54-2.24,34.56,2.62.56,3.55,5.74.56,6.82-8.2,3-24.49,2.61-27.67,1-7-3.52-2-9.62-2.59-15.87-2.43-4.24-2.7-14.32-2.8-24.84Z"/>
    </g>
  </g>
  <g class="horse">
    <path class="horseHair" d="M53.88,144.39C42.71,135,37.16,144,31.14,142.11c-2.64-.81-15.27,8.75-17,13.84-1.23,3.62-4,4.74-7.08,5.72-1.5.47-.25,3.73,2.81,4-.69,2.48.55,5.45,2,8.45Z"/>
    <path class="horseHead" d="M64.84,146.93c1.94-7.7.16-12.49-3.14-17.71-1-1.59-2.66-1.93-3.09-.62-2.36,7.21-5.54,7.77-7.58,16.41a32.16,32.16,0,0,0-17.55,2.28c-.55-8.31-3.76-14.28-10-19.21-1.44-1.13-3.92-.56-3.79,1.26,3.79,9.42-7.68,17.37,1.87,26.65-9.16,8.22-16,25.09-15.33,30.48.67,16-4.3,24.95-3.27,38.73.38,5.15-4.58,13-1.82,20.81,4.56,12.87,18.77,11.4,28.4,5.71l.18,19C81,264.11,83.52,214.77,64.84,146.93Z"/>
    <path class="horseBody" d="M79.94,233.61c-45.55,2.61-65,40.07-55.72,107.09l15.1,81.53c-.83,22.75-1.17,47.2-1.16,72.82,1.9,1.85,5.38,2.2,9.29,2.14,1.32,5,8,3.3,14.37,5.87-.21,7.09,10.27,4.55,19.31,4.79-.25,6.52,12.93,1.79,24.1,2.16.32,9.43,41,1.49,57.57,4.45,10.63,1.91,20.62,1.77,19.83-4.62,6.4,1,19.91,3.69,18.56-5.26,7.95-2.54,23.32-.68,23.62-7.45C226.14,426,226.47,359.6,214.42,322c-13.64-42.6-78.47-61.51-120.63-35.5Z"/>
    <g class="horseFoldLine">
      <path d="M47.45,497.19a353,353,0,0,0,1-37.82"/>
      <path d="M61.82,503.06c.89-21.59,1.34-44.87,1.51-69.21"/>
      <path d="M81.13,507.85a58.11,58.11,0,0,0,.21-9.14"/>
      <path d="M105.23,510c.62-22.84.52-49.32,0-77.65"/>
      <path d="M182.63,509.84c-.51-9-.41-19.2,0-30"/>
      <path d="M201.19,504.58c-.75-8.89-.76-18.54-.76-28.61"/>
    </g>
    <path class="horseOverlapLine" d="M29.49,251.72c0-13.2,0-26.69-1.43-30.48"/>
    <g class="horseHair">
      <path d="M181,311.08c-9.25-9.44-22.54,1.19-14.95,13.52,13.39,21.77-4.3,48.25,4.89,83.87,3.14,12.17-3.83,15,1,30.32,2.08,6.64,2,11.78-1,14.74-1.32,1.32,4.85,3.42,6.63-.31,1.46,6.26,6.25,13.84,14.66,19.12,1.83,1.15,3.59.87,2.91-1.19-4.57-13.85,10.24-26.65,11.53-35.54,1.41,1.46,4.75,1.34,4.54-.16-3.38-5.39,0-13.41-2.32-22.6C199.54,376.27,223.64,354.66,181,311.08Z"/>
      <path d="M48.65,161.46c3,8.13,8.07,7.24,9.59,15.3.81,4.29-.12,5.94-.21,7.2s4.23,1.37,5.56-1.73A34.75,34.75,0,0,1,64.7,196.1c-.49,4.23-2.21,16.87-2.21,16.87,7.84,10.1-1.15,13.47,3.88,22.63h0a74.1,74.1,0,0,1,13.57-2c35.44,7.88,28.49-24,11.81-65-5-9.1-11.4-16.18-22-17.48,3.74-1,3.48-5.35,1.84-5.22-8.48.69-23-9.18-36,4.95C37.77,156.58,46,154.3,48.65,161.46Z"/>
    </g>
    <path class="strapDark" d="M61.55,214c-10.49,33.82-25.65,56.49-38.62,56.43a28.3,28.3,0,0,1-5.12-.9c18.44.74,29.23-29.61,39-56.91Z"/>
    <g class="strapLight">
      <path d="M21.1,269.34h0c-6.13-5-8.6-15.79-9.31-25.67.06-1.61-2.89-1.74-3-.14,0,10.29,5.3,26,9,26A16.26,16.26,0,0,0,21.1,269.34Z"/>
      <path d="M47.15,144.65a30.91,30.91,0,0,0-5.63.35c-29.68,10.78-34.13,71.61-12,91.48l-.29-6.56C12.57,209.63,14.63,154.33,47.15,144.65Z"/>
      <path d="M16.25,186c1.29-10.33,4.5-20.25,9.61-27.91-12.65,16.89-18.21,43.74-17,73.32a20.09,20.09,0,0,0,3.5,4.24A176.43,176.43,0,0,1,16.25,186Z"/>
      <path d="M3.18,214.7a54.78,54.78,0,0,0-.27,10.5c6,20.22,15.58,21.92,26.57,20.73l0-6.23C17,241.25,7.16,237.43,3.18,214.7Z"/>
    </g>
  </g>
  <g class="amy">
    <path class="pants" d="M160.56,220.41a90.83,90.83,0,0,1,12.87,36.32c.94,7.09,7.54,18.12,8.44,28.71-26.79-14.23-61.91-15-88.08,1.05-10.83,8.27-14.16,11.37-18.68,13.3-4.25,1.82-6.64,7.43-10.16,6.23,1.26,2.89-.47,5.78-4.75,5.56l-29.95-4.34c.86-3.82.5-7.46,3-11.25-1.89-3.42,4-5.69,6.24-10.16,5.19-10.37,25.39-37.16,38.08-50,.06-3.83,2.12-4.85,5.29-4.33-.46-8.07,4.89-4.74,9.08-9.08C108.54,227.15,144.9,228.05,160.56,220.41Z"/>
    <path class="soleBlackDark" d="M39.6,425.79c-.35.92-3.37.7-5.49.58-5.11-.29-16.65-2.24-26-4.18C22.33,412.77,39.63,416.78,39.6,425.79Z"/>
    <path class="soleBlack" d="M40.87,419.3a7.6,7.6,0,0,1-1.27,6.49c-.15-1.41-16.63-4-26.39-2.77l.53-2.4c-6.39,4.41-15-1.32-12.63-5.71C15,405.71,38.62,408.68,40.87,419.3Z"/>
    <path class="boot" d="M28.92,306.92c2.26-5.2,32-.74,32.92,5-4.37,57.61-11.13,49.9-16.85,83-.75,4.3,2.4,13-4.12,24.38-5-5-21.74-6-30.13-1.58-3.69,1.92-8.16,1.82-9.63-2.81C.16,402.44,18.59,398,20.16,377.71,22.11,352.36,24,329.34,28.92,306.92Z"/>
    <path class="bootStrap" d="M13.23,393.37l-4.44,4.95a9.88,9.88,0,0,0,2.58,6.85c2.38,2.74,7.19-2,5-4.89A14,14,0,0,1,13.23,393.37Z"/>
    <path class="helmetVisorBottom" d="M66.15,36.46c-4,5,4.51,11.55,13,15.1C90.61,38.1,82.89,20.06,66.15,36.46Z"/>
    <path class="helmetFoam" d="M74.41,40.8c-.16,9.5,71,38.4,77.51,29.6C173.33,39.5,71.62,5.83,74.41,40.8Z"/>
    <g class="jacket">
      <path d="M97.77,134c-10.23-5.38-22-8.2-29.61-16.57-8-8.75-10.58-10.75-12.78-16-2-4.72-5.91-7.67-6.61-12.52-13-3.87,16.3-25.37,16.3-12.77,5.82,2.11,4.14,5.28,7,9.07,2.68,3.6,7.45,7.34,10.18,11.3,4,.28,6.28,2.1,8.22,5.45,5-3.44,6.95,5.39,32.06,2Z"/>
      <path d="M89.23,209.48c-1.31,5.68-.63,10.12,2.69,12.92,16.62,4.75,53,5.65,68.64-2a13.65,13.65,0,0,0,2.1-8.69c6.6-10.47-.76-15.44,0-24.31,3.72-12.71,3.53-25.4,1.72-38.08a11.73,11.73,0,0,0-.43-11.19c-2.54-16.32-8.94-32.43-15.42-33.54-11.29-1.93-28.58-2.64-38.74,7-7.17,6.8-9.41,12.75-16.22,25.94-7.25,14-8.54,19.25-5.56,27.05-3,4.53-6.85,9-8.82,14.84-2.89,1.89-4.17,4.72-3.66,8.61-2.44,2.1-4,4.68-3.66,8.17-5.07,2.08-4,12.33,5.79,17.21C78.94,214.08,83.76,213.23,89.23,209.48Z"/>
    </g>
    <g class="jacketTrim">
      <path d="M147.76,104.48c-2.17-4.62-1-9.58-4.11-9.84-18.81-1.63-32.34,4.27-33.86,17h0C119.73,102.18,136.47,102.64,147.76,104.48Z"/>
      <path d="M59.5,72.59c-1.92-4.39-3-9.32-4.67-11.18s-14.77,5.85-14.06,8.27c.53,1.79,4.38,6.33,6.66,11.24C50.22,77.26,55.45,73.61,59.5,72.59Z"/>
      <path d="M68.88,201.38c-.67.52-1.34.47-2.51,1.32-4.92,3.57,1.11,14,6.75,11.72,1.24-.51,2.83-1.45,3.95-1.29C71.39,210.07,68.85,205.18,68.88,201.38Z"/>
    </g>
    <path class="hairLightBrown" d="M147.2,64.65c27.88,20.79,12.22,25,20,38.28a9.45,9.45,0,0,1-6-5.84c1.36,11.5-9,16.6-7.41,24.56-1.82-1-3.13-2.75-4.06-5.25,0,5.06-2.59,10.13-6.06,15,3.92-12.69-4.3-10.59-5.67-30.22-.84-12,6.26-22.13,2.2-27.31C119.24,21.77,158.07,42.05,147.2,64.65Z"/>
    <g class="skinGallic">
      <path d="M140.21,73.84c-8.84-1.89-33.18,22-33.18,22,3.54.61,5.06,3.19,5.56,8.16,4.47-6.48,13.72-9.77,25.69-9.66C139.51,85.4,143.48,78,140.21,73.84Z"/>
      <path d="M135.2,75.4C150,65.22,152.41,54,145.73,48.47c-3.27-2.14-7.39-.44-10,4.79l-4.26-15.1c-18.22-7.4-43.37-3.93-51.2,3.42-1.59,3.12-1.14,3.91-1.42,6.41-.36,3.18-1.4,3.45,1.11,11.33-4.37,9.61.17,21,11.25,32.52,3.29,3.4,3.88,6.47,7,7.58C108.12,103.54,131.22,87.65,135.2,75.4Z"/>
      <path d="M54.83,61.41c11.77-19.33,4-19.29,5.21-22.22,2.35-6.16,2.11-6.73,2.27-11.84.23-7.38-2.92-9.64-3.4-12.15-1.52-3.12-7.31,2.44-3,9.77-.22,3.76-.53,6.84-2,10.06-2.33-3-4.67-5.25-7-3.11-1.83-2-5.64.62-5.65,4.87-3.88,2.15-2.58,5.51-4.53,7.87s-.61,3.65.65,3.9c-1.39,3.35-1.76,5.87.36,6.41-.94,4.91-.1,11.31,3.91,13C44.28,64.85,53.43,59.86,54.83,61.41Z"/>
      <path d="M66.37,202.7c1.17-.85,1.84-.8,2.51-1.32v.06c0-2.43,1.05-4.42,3-5.21a9.46,9.46,0,0,1,.12-2.52c-5.22-2.46-6.54.36-8.54.14-4.69,0-3.58,2.49-5.53,3.58C55,198.77,56,200.82,54.39,202c-1.35,1.42-.57,3.61-.63,5.22,0,3.13,1.44,6.23,6,7.51,3.67,1,8.42,1.42,11.81.06C66.44,214.8,61.91,205.93,66.37,202.7Z"/>
    </g>
    <g class="peripheral">
      <path class="beltBlack" d="M166,230.46a81,81,0,0,0-5.41-10.05c-15.66,7.64-52,6.74-68.64,2l1.32,12.16C107.5,237.87,146.05,240.41,166,230.46Z"/>
      <polygon class="metalDark" points="172.07 224.96 164.61 227.96 161.12 219.51 164.85 214.97 172.07 224.96"/>
      <path class="metalLight" d="M168.75,225.56l2.53-.31a1.85,1.85,0,0,0,1.56-2.34l-2.15-7.68a1.87,1.87,0,0,0-2-1.34l-2.53.31a1.86,1.86,0,0,0-1.56,2.35l2.16,7.67A1.86,1.86,0,0,0,168.75,225.56Z"/>
      <g class="leatherDark">
        <path d="M147.32,221.69a3,3,0,0,0-2.15,3c-.21,6.83.22,13.92,3,17.23,1.37,1.24,4.37,1.22,6.78,1C155.13,229.5,153.37,220.6,147.32,221.69Z"/>
        <polygon points="104.29 233.15 97.44 238.85 93.6 251.71 99.58 250.62 104.75 233.3 104.29 233.15"/>
      </g>
      <g class="leatherLight">
        <path d="M111.52,250.24l6.74-17.82c.49-1.3-8.53-4.71-9-3.41l-6.74,17.82C101.78,248.74,110.8,252.15,111.52,250.24Z"/>
        <path d="M162.93,232c.74,3.67,1.56,7.69-.78,8.85a17.48,17.48,0,0,1-7.23,2.13c-3.35.14-5.54-9.2-5.54-14.52Z"/>
        <path d="M160.66,220c-1.72-.38-8.92.22-13.34,1.7,2.32.95,1.16,11,5.07,12.9,2.55,1.24,9.75.68,11.3-2.44C164.88,229.74,163.48,222.17,160.66,220Z"/>
        <path d="M141.36,227.1a27.23,27.23,0,0,1,.49,7.66c-.27,1.92-1.13,2.76-3.32,3.32a43,43,0,0,1-11.1.94c-2-.08-3.89-.54-4.32-2.81a23.6,23.6,0,0,1,.26-8.75Z"/>
        <path d="M142.15,224.1a117.85,117.85,0,0,1-19.66.62c-.15,5.23,3,8.41,10.67,8.12C139.54,232.59,142.42,229.47,142.15,224.1Z"/>
        <polygon points="97.44 238.85 85.53 234.47 81.78 247.03 93.6 251.71 97.44 238.85"/>
      </g>
      <path class="metalDark" d="M109.39,216.07l-5.1,17.08-6.85,5.7L101.28,226c-.89,1.69-3.35,1.2-4.11,1.1l6.22-10.74Z"/>
      <g class="metalMedium">
        <path d="M115.81,211.62c-.53,1.42,8.49,4.83,9,3.41C125.45,213.4,116.43,210,115.81,211.62Z"/>
        <polygon points="91.89 212.28 97.89 211.97 109.39 216.05 103.39 216.36 91.89 212.28"/>
      </g>
      <g class="metalLight">
        <path d="M112.3,223.49l-2.21,5.84c-.48,1.27,6.84,4,7.32,2.76l2.2-5.83A13.17,13.17,0,0,1,112.3,223.49Z"/>
        <path d="M103,248l-2.66,7c-.76,2,6.56,4.75,7.31,2.76l2.66-7A13.27,13.27,0,0,1,103,248Z"/>
        <polygon points="104.16 216.36 97.44 238.85 85.99 234.62 92.66 212.28 104.16 216.36"/>
      </g>
      <g class="metalLightest">
        <path d="M120.8,225.69l4-10.72c-.56,1.5-9.58-1.92-9-3.41l-4,10.72C111.05,224.21,120.07,227.62,120.8,225.69Z"/>
        <path d="M103.39,216.36l-2.76,9c-1.26,4.11-12.71,0-11.45-4.23l2.71-8.9Z"/>
      </g>
      <ellipse class="lightYellow" cx="120.37" cy="213.2" rx="0.6" ry="3.22" transform="translate(-121.63 250.39) rotate(-69.29)"/>
      <path class="lightGreen" d="M103,215c1.74-2.66-3-4.39-3.41-1.21C99.36,214.26,102.77,215.48,103,215Z"/>
      <path class="lightRed" d="M98.69,213.46c1.74-2.66-3-4.38-3.41-1.21C95.1,212.75,98.51,214,98.69,213.46Z"/>
      <path class="rubber" d="M120.63,173.69a2.24,2.24,0,0,0-2.2,3.84,356.63,356.63,0,0,0-13.87,37.4c-.18.51,1.91,1.25,2.09.75a343.23,343.23,0,0,1,13-37.67,2.24,2.24,0,0,0,1-4.32Z"/>
    </g>
    <path class="saddle" d="M172.15,281h0c-15.81-27.15-59.67-27.25-78.36,5.49C117.14,272.08,147.44,271.46,172.15,281Z"/>
    <g class="clothesDisplayLine">
      <path d="M189.18,543.9c1.12,14.92,2.92,28.71,1.82,42.68"/>
      <path d="M196.46,542.82c-1.54,21.21,2.36,29.61,3,43.59"/>
      <path d="M148.11,540.16a172.54,172.54,0,0,1,8.33,31.19"/>
      <path d="M154.75,541.49c1.95,10.13,5.17,22.13,8.41,29.82"/>
      <path d="M51.17,561.15A20,20,0,0,0,56,573.42"/>
      <path d="M92,558.64c-7.17-3.37-26.85,2.05-27.71,15.39"/>
      <path d="M93.63,560.51a15.83,15.83,0,0,1,4.49,7.92"/>
      <path d="M108.42,562.22c-3-10,6.09-22.78,16.72-21.81"/>
      <path d="M133,244.37c1.37,4.26,1.69,12.05.67,16.94"/>
    </g>
    <g class="clothesOverlapLine">
      <path d="M89.23,209.48c3.31-1.32,4.58-4.34,7-7.08,3.43-3.86,5.94-4.28,10-14.11,5.09-12.4,8.86-6.52,25.63-46.6"/>
      <path d="M88,164.61c1.07-1.79,1.32-5.56,3.51-7.12-1.37-2.39-.39-5.18,2.17-7,.47-4.24,4.23-12.66,8-21"/>
      <path d="M138.27,592.64c3.54.81,9.24,1,15.64,1.06"/>
    </g>
    <g class="clothesFoldLine">
      <path d="M121.8,516.67A25.25,25.25,0,0,0,143,525.33"/>
      <path d="M170.89,527c3.27,5.55,16.17,10.5,2.89,11.06"/>
      <path d="M198.42,525.39c-1.57,8.41-9.73,9-20.46,1.58"/>
      <path d="M200.59,535c-1.41,1.81-4,2.88-7.1,3.63"/>
      <path d="M125.94,544.07c.67-7.17,10.05-10,9-12.36-.79-1.81-5.95-.06-7.92,2.44"/>
      <path d="M156.8,532.29c-5.26-2.87-17,.31-22.15,6"/>
      <path d="M59,537.7c6.31,3.38,16.85,3.38,9.15,8.65"/>
      <path d="M61.23,517.7c2.16,20.27,25.54,24.59,31.08,9.46"/>
      <path d="M93.37,537.12c-5.12,2.34-10.25,7.61-3,7.2"/>
      <path d="M111.09,515.67c1.06,6.58-4.66,10.88-14.48,13.79"/>
      <path d="M118.73,527.56c-12.5.41-16.56,11.9-16.83,4.58"/>
      <path d="M96.61,541.22c3.86,1,3.86-2.11,7.73-1.36"/>
      <path d="M82.84,231.48a9.74,9.74,0,0,0,1.79,4.29"/>
      <path d="M77.55,235.81a11.72,11.72,0,0,0,1.64,5.4"/>
      <path d="M56.92,270.07c-5.69,13.31-8.55,25.45,9.9,28.7"/>
      <path d="M65,306c-4.85-1.72-9.45-6-15.61-7.58-5.16-1.32-11.65-5.75-12.86-4.46s.54,1.94,3.62,2.31"/>
      <path d="M56.72,306.81c-6.83-4.76-18.42-9.35-19.63-6.49-.84,2,1.76,2.79,6,3.63"/>
      <path d="M91.58,273.16a20.82,20.82,0,0,0,7.63,5.52"/>
      <path d="M84.63,270.82c2.43,4.11,7.91,8.57,12.61,10.36"/>
      <path d="M172.38,265.11a18.4,18.4,0,0,1-6.27,8.05"/>
      <path d="M65.07,76.23c-2.37-.43-4.36-.24-5.83.76"/>
      <path d="M52.45,91c2.43-5.89,15.37-12.3,5.25-10.63"/>
      <path d="M66.92,82.63c-5.38,3.31-8.91,8.58-8.2,18.31"/>
      <path d="M67.69,90.82c-5.25,5.77-1.92,11.66-1.92,17.68"/>
      <path d="M82.21,96.6c-2.64.89-4.71,2-5.55,4.22"/>
      <path d="M90.43,102.05c-9.93,3.89-11.43,14.72-12.88,13.5s-.64-4.87,4.62-10"/>
      <path d="M92.8,105.3c-7.14,2-9.54,7.16-4,17.8"/>
      <path d="M94.21,112c.17,5.49,2.09,9.75,6,12.62"/>
      <path d="M93.69,150.52c3.21-2.05,7.93-4.69,12.17-8.2"/>
      <path d="M91.52,157.49c1.07-1.47,3.12-2.34,5.38-3.64"/>
      <path d="M83.32,178.44c-.32,6.39-.19,12.42,3.71,15.5"/>
      <path d="M79.19,179.45c-1,3.17-1.45,6.07.16,7.83"/>
      <path d="M75.53,188.06c.78,1.86,1.78,3.23,3.18,3.71"/>
      <path d="M71.87,196.23a12.66,12.66,0,0,0,2.35,5.27"/>
      <path d="M107.91,184.72c-5,5.76-5.38,10.38-13.09,12.81"/>
      <path d="M129.31,143.73c3.45-6.92,8.07-2.56,2.3,2.3"/>
      <path d="M135.45,148.21c-2.54.13-4.48,1.8-7.4,2.31"/>
      <path d="M134.81,154.49c-2.18,1.56-6,.51-9.11,1.18"/>
      <path d="M164.38,149.33c-.79,1.8-1.7,3.21-2.92,3.62"/>
      <path d="M162.61,141.42c-.73,2.72-1.86,4.76-3.59,5.77"/>
      <path d="M129.05,191.25a45.08,45.08,0,0,1-16,7.94"/>
      <path d="M107.73,205.14c-1.28.3-2.58.58-3.92.84"/>
      <path d="M150.06,175.5c-7.77,14-20.7,24-40.09,29.09"/>
      <path d="M159.15,175c-6,16.29-15.69,29.65-32.66,37"/>
      <path d="M162.66,187.41q-7.83,21.06-29.77,34.46"/>
      <path d="M161.71,201.63c-.25,4.74-9.35,14.35-14.6,16.14"/>
      <path d="M162.66,211.72c-2.1,2.46-3.76,3.87-5.56,4.38"/>
    </g>
    <g class="skinOverlapLine">
      <path d="M46.79,31.92c1.09,1.51.49,3.17,1.66,6.38,1.29,3.56-.41,6,.73,9.88"/>
      <path d="M41.14,36.79a9,9,0,0,0,.82,5.4c-1.3,7.8-2.68,6.6-4.34,12.78"/>
      <path d="M37.26,48.56c1.19.35,2.35-.19,3.48-1.27"/>
      <path d="M53.82,35c-2.45,3.59-2,5.21-4.9,7.48"/>
    </g>
    <g class="skinFoldLine">
      <path d="M139.06,55.31c-.58-8.91,13.86-5.85,5.48,7.3"/>
      <path d="M139.47,56.78c2.94,1.77-2.89,6.86.37,7.29,1.44.2.4-3,2.08-4.16,5.22-3.67-.5-6.4-.84-5.13"/>
    </g>
    <path class="lipFemaleMedium__noStroke" d="M110.9,77c-5.11,15.42-20.12,16.77-17.74,2.62C98.33,81.8,104.45,80.07,110.9,77Z"/>
    <path class="lipFemaleMedium" d="M110.9,77c-5.34.71-8.31-2-11.52-1.09-6.32,2.79-6.67.84-7.74,2.66-.65,1.1.32,1.57-.85,3.36a5.94,5.94,0,0,0,2.37-2.31C98.14,81.9,104.37,80,110.9,77Z"/>
    <path class="lipEdgeLine" d="M108.68,81.93c-5,8.41-13.16,9.85-15.27,3.84"/>
    <path class="mouthInner" d="M95.55,84.82c4.57,2,10.68-2.35,14.71-7.06C106.79,81.67,100.1,85.25,95.55,84.82Z"/>
    <path class="gum" d="M110.9,77c-3.38,4.41-11.24,8.69-16.06,7.73-1-.86-1.67-3.45-1.68-5.11,4.93.33,6.41-2.14,9.22-2C105.31,78.12,108.17,77.41,110.9,77Z"/>
    <path class="teeth" d="M93.33,81.29a6.22,6.22,0,0,0,1.51,3.43c4.82,1,12.68-3.32,16.06-7.73C105.39,79.19,97.17,81.35,93.33,81.29Z"/>
    <g class="cheekLine">
      <path d="M89.6,73.19a10.6,10.6,0,0,0-1,4.93"/>
      <path d="M100.73,67.71c2.39.11,3.31,2.64,6.06,4.61s5.58,2.32,6.66,4.61"/>
      <path d="M97,93c1.82-1.33,5.53-2,8.27-1.5"/>
    </g>
    <g class="noseLine">
      <path d="M90.79,58.4c0,1.48-1.21,5.19-2.05,8.51s-2.16,5.79,3.42,7.24"/>
      <path d="M100.73,67.71c1.19.25,1.89,2.54.25,4"/>
      <path d="M98.66,71.84c-1.22-1.16-3.38.5-3.85,1.3"/>
    </g>
    <g class="eyebrowLightBrown">
      <path d="M95.91,47.23c2.74,2.71,5.74-5.19,18.15-1.07C107.24,40.92,95.41,44.91,95.91,47.23Z"/>
      <path d="M87,48.82c-.28-1.25-4.72-.87-8.57,2a8.5,8.5,0,0,0-.06,1.56C83.15,49.46,86.54,51.79,87,48.82Z"/>
    </g>
    <g class="glassesLens">
      <path d="M95.84,55c-.59-5.55,11.9-8.78,17.17-7.28,4.51,1.29,5,9.42,3.18,13.11-2.11,4.33-10.81,5.32-13.71,4.15C98.43,63.3,96.33,59.66,95.84,55Z"/>
      <path d="M88.74,66.91c.84-3.32,2-7,2.05-8.5a18.07,18.07,0,0,0-.53-2.27c-1.58-5.26-13.2-3.07-16.76.18-3,2.69-.45,9.48,2,12.14C78.61,71.8,86.88,69.75,88.74,66.91Z"/>
    </g>
    <g class="glassesFrame">
      <path d="M95.84,55c-.1-.47-5.67.71-5.58,1.18a3.12,3.12,0,0,0-.17-.46c-.1-.47,5.63-1.69,5.73-1.22A2.79,2.79,0,0,0,95.84,55Z"/>
      <path d="M97.16,51.61a5.64,5.64,0,0,1,.5-.47c-.52-.35-10.25,1.79-10.43,2.28a6.37,6.37,0,0,1,.61.23,58,58,0,0,1,9.32-2Z"/>
    </g>
    <path class="helmetStrap" d="M145.73,48.47c2.25,1.85,3.19,4.33,3.29,7.85.13,5.64-4.32,8.16-5.38,10.59-1.52,3.56-6.28,4.28-7.71,1.4a152.4,152.4,0,0,0-1-23.77C140.37,42.72,144.8,44.77,145.73,48.47Zm2.76,3.21c-2.29-8.32-8.09-11.41-17.93-8.46,2.35,13.18,1.91,33-1.58,41.85,1.51-1.63,4.81-5.42,6.22-9.67h0C143.39,76.41,152.55,57.76,148.49,51.68Z"/>
    <path class="helmetTop" d="M91.1,7c36.19-21.62,80,11.69,66.16,53.47C146.16,26.51,105.16,20,91.1,7Z"/>
    <path class="helmetTrim" d="M152.91,69.19a32,32,0,0,0,4.35-8.68C157.6,45.3,137,33.33,135,28.81,126.24,8.9,110.65-2,91.1,7,80.92,12.54,72.58,29.2,74.41,40.8c-1.59-6.61,21.31-15.57,43.32-9.23C136.9,37.09,156,51.92,152.36,68.72Z"/>
    <path class="helmetVisorTop" d="M66.15,36.46c2.63-3.69,14.11-13.39,17.21-15,13.69-6.75,26.92-2.14,36.15,5.34,9,7.32,18.26,13.63,24.14,19.21-18.66-2.12-20.77-7.11-32.06-11.83C98.22,28.56,81.88,24.06,66.15,36.46Z"/>
  </g>
</svg>
