<svg viewBox="0 0 400 400">
  <path class="medium" d="M224.88,306.61c2.14-33.89,28-68.06,46.67-81.84a23.08,23.08,0,0,1,4.2-10.75c-3.86,3.92-13.19,4.91-22.79,3.88a225.31,225.31,0,0,0-28.76,26.68c.07-11.64-.06-24.15-.92-37.54-9.05,10.56-35.33,12.85-49,6.1,2.61,18.06,4,33.33,3.71,48.9-11.6-17.69-28.18-29.43-45.74-37.84a23.33,23.33,0,0,1-8.13,12.29c22.45,17.95,50.71,64.9,42.49,95.25-8.53,17.34-22.3,44.33-42.77,51.83,52.13,0,76.78,1.31,85.55,16.43-3-23.28,45-9.49,64.16-16.43C238.11,371.8,227.7,334.29,224.88,306.61Z"/>
  <path class="light" d="M232,29.14c.7-18.47-37.1-20.64-40.84-8.56C190-12.28,109-4.54,125,34.92c-29-8.14-54.62,16.18-42.77,32.31C53,62.55,32.82,91.17,46.53,107.55,9.79,105.66-14.89,142.2,12,168.66c-25.77,17-8.77,65.52,39.49,56.7,4.38,31.5,93.77,29,80.06-15.75,7.13,9.45,31.26,6.3,35.1-3.78,6.58,15.75,51,14.49,58.67-1.89,0,12,41.13,19.53,50.45,10.08-17,25.2,20.84,40.32,40,25.83,41.28,27.94,79.64-16.93,57-35.91,35.09-5.67,43.32-61.74-18.65-61.74,12.07-13.86-3.49-44.78-35.09-39.24,30-14.32,19.5-60.56-28-58.35C315.07,9.92,234.71-7.13,232,29.14Z"/>
</svg>
