<svg viewBox="0 0 400 400">
  <g class="medium">
    <circle cx="238.47" cy="151.99" r="62.78"/>
    <path d="M334.44,65.56a135.69,135.69,0,1,1-191.89,0A135.68,135.68,0,0,1,334.44,65.56ZM124.3,47.3a161.5,161.5,0,1,0,228.4,0A161.49,161.49,0,0,0,124.3,47.3Z"/>
  </g>
  <g class="dark">
    <path d="M238.47,119.79a32.21,32.21,0,0,0-10.26,1.68A17.61,17.61,0,1,1,208,141.74,31.88,31.88,0,0,0,206.27,152a32.2,32.2,0,1,0,32.2-32.2Z"/>
    <rect x="3.83" y="321.29" width="98.24" height="51.52" transform="translate(-229.9 139.09) rotate(-45)"/>
  </g>
  <g class="light">
    <rect x="79.96" y="276.35" width="52.7" height="34.67" transform="translate(-176.53 161.19) rotate(-45)"/>
    <path d="M142.55,65.56a135.69,135.69,0,1,0,191.89,0A135.7,135.7,0,0,0,142.55,65.56Zm-30,107.76q126.23-152.67,252,0c-80.58,77-162.6,90.46-231.21,0Z"/>
  </g>
</svg>
