<svg viewBox="0 0 400 400">
  <g class="medium">
    <polygon points="373.61 377.73 373.61 355.45 347.21 355.45 347.21 333.18 52.79 333.18 52.79 355.45 26.39 355.45 26.39 377.73 0 377.73 0 400 400 400 400 377.73 373.61 377.73"/>
    <rect x="42.91" y="116.56" width="314.18" height="37.15"/>
    <polygon points="391.45 116.56 8.54 116.56 200 0 391.45 116.56"/>
  </g>
  <g class="light">
    <polygon points="87.59 153.71 82.03 333.18 124.25 333.18 118.69 153.71 87.59 153.71"/>
    <polygon points="152.1 153.71 146.54 333.18 188.75 333.18 183.2 153.71 152.1 153.71"/>
    <polygon points="281.31 153.71 275.75 333.18 317.97 333.18 312.41 153.71 281.31 153.71"/>
    <polygon points="216.6 153.71 211.05 333.18 253.26 333.18 247.71 153.71 216.6 153.71"/>
    <polygon points="362.75 108.81 37.25 108.81 200 9.73 362.75 108.81"/>
  </g>
  <circle class="dark" cx="200" cy="65.6" r="25.14"/>
</svg>
