<svg viewBox="0 0 381.16 509.76">
  <g class="howie">
    <g class="sockWhite">
      <path d="m126.76,414.79c-3.72,5.25-5.61,10.7-4.7,16.45-8.95,27.22-46.75,3.29-28.53-16.84,5.59-3.07,11.8-5.09,15.33-10.57l17.9,10.96Z"/>
      <path d="m48.65,462.25c0,4.15.79,7.97,3.01,11.21-3.58,28.09-25.25,18.5-27.58,3.98,1.92-2.36,2.97-7.72,3.19-13.69l21.38-1.5Z"/>
    </g>
    <g class="soleLightTan">
      <path d="m139.15,465.82c.5,2.35-.28,4.23-2,5.7-7.91,6.77-19.39,2.07-24.4-4.11-19.19-23.63-28.66-21.29-33.02-33.77-.08-1.26.67-2.6,1.69-3.82l57.73,36Z"/>
      <path d="m83.13,497.95c1.74,1.55,2.14,4.6,1.24,5.44-6.45,6.06-18.69,7.68-31.09,4.59-13.73-3.43-27.2-2.41-31.79-7.46-.78-.86-.98-4.11.3-5.31l61.33,2.74Z"/>
    </g>
    <g class="gangbangerShoe">
      <path d="m105.91,441.41c-.61-12.72,15.33-15.92,17.34-9.76,2.67,8.2,9.09,15.32,16.55,23.7,4.27,4.79-.61,23.44-18.47,14.99-8.2-3.88-16.9-18.2-27.36-25.01-6.97-4.53-11.85-10.11-12.55-15.51,1.48-5.31,6.71-12.98,12.11-15.42-4.01,6.45,5.31,19.86,12.37,27.01Z"/>
      <path d="m40.01,489.49c-8.61-13.63,9.16-21.35,13.65-15.75,7.03,8.76,14.65,12.14,24.27,16.45,4.62,2.07,7.15,7.12,5.98,9.77-2.65,4.4-16.69,8.32-27.36,5.81-15.8-3.72-29.14-2.68-34.76-10.56-.85-6.04.19-11.95,2.29-17.77,2.34,5.87,7.84,9.76,15.93,12.05Z"/>
    </g>
    <path class="gangbangerShoeWet" d="m128.09,441.13c-1.58.28-3.23.84-5,3.8-2.17,3.61-7.01-.68-9.55,5.59-1.7,4.2-5.83.39-6.69,6.61,5.13,5.57,9.89,11.03,14.49,13.21,17.86,8.45,22.74-10.19,18.47-14.99-4.47-5.02-8.57-9.59-11.71-14.22Z"/>
    <path class="gangbangerPants" d="m98.63,239.45c3.66,3,9.84,1.52,8.4,6.61,2.45,2.29,7.18,1.26,8.99,10.29,22.94,19.56,57.93,56.16,55.06,75.71-1.3,11.73-15.88,46.71-28.42,77.72-6.14,9-20.56.55-30.25-11.99,14.86-49.28,6.53-50.05,12.47-57.74,1.75-2.27.9-4.64-1.3-5.48-6.66,1.68-2.31-5.77-4.17-6.52-6.08,2.16-19.29-7.56-27.64-17.73-13.82-5.21-24.77-18.77-28.68-16.69-9.28,4.95-6.78,51.63-9.39,82.91-2.27,27.29-1.3,44.62-4.43,76.69-2.61,11.21-24.25,8.6-32.07,1.04-.78-7.04,0-13.05-.78-19.05-4.07-31.21-3.21-57.3-7.32-77.46-5.01-24.57-1.95-30.3-5.25-53.46-5.43-38.07-5.92-56.56,7.04-77.37,8.49,8.32,40.08,14.45,75.34,14.19,2.61.26,7.05-3,12.4-1.7Z"/>
    <g class="gangbangerPantsInner">
      <path d="m144.33,408.72c-1.64.94-3.58,1.94-5.44,1.92-10.17-2.18-19.5-7.46-27.39-14.42-1.01-1.04-6.06,7.97-4.97,8.97,7.84,8.48,17.16,13.41,27.72,15.38,2.69-.52,4.72-1.87,6.43-3.04,1.36-.72,4.6-9.01,3.65-8.81Z"/>
      <path d="m51.02,452.2c-3.23,3-6.59,5.1-10.17,5.61-5.87.51-16.1-1.63-25.08-4.09-1.42-.4-1.61,10.32-.4,10.83,8.86,2.9,17.28,4.04,25.68,3.78,3.21-.63,6.37-2.57,9.51-5.26,1.31-1.41,1.31-11.42.46-10.86Z"/>
      <path d="m32.61,236.02c-9.37,10.83-13.36,24.46-13.12,40.3,2.3-15.53,6.55-29.1,13.12-40.3Z"/>
    </g>
    <path class="gangbangerWaistband" d="m98.63,239.45l-1.9-6.75c-10.66,6.75-72.04,1.18-82.48-11.34l-3.35,5.59c1.91,14.34,64.53,24.99,87.74,12.5Z"/>
    <path class="hairBlack" d="m140.65,35.48c10.93-26.42-33.15-43.26-59.73-31.32-17.67,7.94-26.25,46.78-13.54,63.12-7.52,6.14-9.98,30.78-3.61,47.83-.98-9.26,15.4-12.36,14.19-43.73,12.19,9.22,40.06-19.71,62.69-35.9Z"/>
    <path class="shirtWhite" d="m119.46,129.27c2.37,11.72.02,23.8-3.41,34.93.77,3.06.47,5.78-2.24,7.75-2.73,9.56-5.97,6.44-7.08,11.15-.6,2.53,2.44,6.04-4.35,11-.73,3.73,1.56,7.87-2.04,9.64-3.11,6.17,3.96,7.13-2.45,11.23-2.88,4.89,1.84,3.65-1.49,6.49-2.27,4.67,3.92,4.08-.68,8.29.6,1.1.99,2.1,1.01,2.94-12.03,23.8-72.14,23.07-82.48-11.34-.03-1.34.53-1.23,1.47-2.45-2.9-2.27,3.42-4.41,2.87-10.03-3.57-3.08,2.62-3.08,1.88-7.42-3.35-3.17,3.83-4.94,2.08-12.95-3.25-4.07.28-5.25,1.48-7.61-2.29-2.65.19-2.74.19-4.45,0-11.67,1-15.33,3.8-28.04l25.65-42.41c1.72-1.24,7.76-3.45,10.12-3.37l39.79-2.74c14.45-2.16,26.57,10.63,15.88,29.4Z"/>
  </g>
  <g class="willy">
    <g class="willyShoe">
      <path d="m242.16,494.21c.78-4.75.28-10.22-.76-16l-25.34-6.58c-5.79,5.63-11.77,10.23-17.41,13.8-4.33,2.74-10.59,3.88-14.57,7.14,2.91,15.94,55.35,16.45,58.09,1.63Z"/>
      <path d="m202.95,421.62c.58-3.53,4.24-6.36,7.46-10.68,4.1-5.48,6.32-13.94,8.17-23.08,21.01-4.01,23.22,10.76,13.79,37.14-11.1,12.56-21.49,17.57-29.42-3.38Z"/>
    </g>
    <g class="soleWhite">
      <path d="m242.16,494.21c.54,2.18-.54,6.43-1.63,7.74-5.67,4.36-19.97,4.17-28.88,5.78-10.9,1.96-22.51-1.58-28.55-6.76-3.05-2.62-.76-7.63.98-8.39,7.19-2.46,13.93,1.17,19.51,7.41,1.62,1.81,4.03,2.45,7.19,2.4,6.87-.11,15.44-1.31,23.54-3.16,3.3-.75,6.43-2.83,7.85-5.01Z"/>
      <path d="m202.95,421.62c3.92.98,12.53,7.74,16.24,11.99,4.19-.77,8.66-4.4,13.19-8.61-3.6,3.92-5.18,7.33-8.45,10.49-9.38,9.07-25.88.68-20.98-13.87Z"/>
    </g>
    <g class="shoelace">
      <path d="m219.22,418.07c3.92-4.25,6.36-9.11,7.65-14.46-4-1.53-7.6-3.36-10.68-5.6h0c-1.45,5.07-3.26,9.55-5.77,12.92,1.64,3.23,5.65,5.74,8.81,7.14Z"/>
      <path d="m222.63,480.91c-4.4-2.38-8.67-4.04-12.58-3.85l-.03.02c-3.84,3.23-7.69,6.02-11.39,8.35,2.99.03,7.57,1.86,10.52,4.72,5.19-2.64,9.69-5.71,13.47-9.24Z"/>
    </g>
    <path class="willyPants" d="m224.2,355.01c-4.3-4.42-3.03-9.6-8.72-10.74,8.34.63,6.7-4.3,7.82-7.26,18.26-3.96,25.65-14.78,30.28-16.39-3.84,2.34-2.34,4.84-4.84,11.69-4.9,13.39-9.72,21.37-12.95,34.07-5.15-3.66-4.9-11.62-11.6-11.37Zm.86-96.03c-2.77,3.29-8.82,5.05-10.21,9.1-.92,2.67-5.94,4.93-4.3,6.19-2.02,2.02-4.95,3.97-6.32,5.94-8.09,13.52-36.14,38.79-37.02,53.07-1.26,12.51,7.05,19.68,8.72,29.06.78,4.39,11.97,8.01,14.53,18.83,2.02,8.54,8.72,8.34,15.67,7.96,2.91,2.4,5.18,16.93,23.38,4.84.38,6.95-2.73,16.51-3.64,24.67-3.84,34.52-12.48,31.74-4.47,43.6-3.51-2.5-7.2-1.52-6.85,2,.4,3.95-.31,7.27-3.74,9.68,16.7-2,15.36,14.53,32.73,18.37.03-3.11,3.34-3.77,6.51-5.51,6.34-3.47,2.59-11.19-2.08-13.53,6.18-5.18,5.51-11.02,8.68-18.37,18.62-30.62,11.66-49.14,15.13-53.95,5.46-7.55.33-8.52.33-12.69,2.5-1.34,5.84,1,7.85-7.01,2.17-6.35,10.9-8.67,15.36-21.21,6.58-18.51,23.88-25.38,25.21-56.61,8.35-7.51-.17-15.53,1.9-23.54l-97.39-20.9Z"/>
    <path class="willyShirt" d="m220.67,207.78c-9.64-2.64-19.11-17.26-18.32-28.02,1.8-2.56,4.1-6.08,7.44-5.29,2.37-8.86,8.41-5.53,20.18-15.28,3.79-9.08,5.35-2.11,9.08-3.53,1.93-4.6,5.08-5.58,8.27-2.14,14.62-1.16,30.16-3.88,44.65-3.44,2.55-2.97,3.9-1.61,5.83-1.88,2.95-5.15,4.67-.48,8.04-1.69,2.95-3.22,4.09-.51,5.69-.75,3.89-2.04,7.11-1.41,9.59,2.26,9.88,1.19,15.7,8.78,18.47,8.78,4.02,0,1.41,1.42,5.43,2.41,1.48.57,3.1,1.43,5.73,2.88-11.39-1.14-15.68,17.58-16.32,30.73-7.15-.33-11.6,1.54-11.62,7.6,7.2,19.69,10.75,49.9,4.83,60.63-1.36,5.18,1.48,5.8.62,8.26-14.3,24.29-75.36,19.51-107.45-3.22-2.8-1.98-.58-6.5-1.71-8.62-2.2-4.12.3-5.16,3.04-8.01.16-11.09,1.96-18.21,5.76-27.5-2.47-5.06.86-7.15,2.22-9.86-.52-2.41-1.13-4.93-1.08-7.52-2.92,1.9-5.79,3.01-8.38,3.21Z"/>
  </g>
  <g class="clothesDisplayLine">
    <path d="m253.58,320.63c-.68-4.81-7.28-6.14-2.23-19.41,1.63-4.9-2.02-7.88,3.9-19.92"/>
    <path d="m139.8,455.35c2.78,5.14-2.05,9.79-7.11,10.34-11.24,1.24-17.75-15.99-26.79-24.29"/>
    <path d="m77.93,490.19c.87,2.62-6.7,5.94-15.36,5.94-6.16,0-15.75-4.17-22.56-6.64"/>
  </g>
  <g class="clothesOverlapLine">
    <path d="m235.79,366.38c-2.02,11.66-6.47,14.44-6.29,27.59"/>
    <path d="m211.65,409.1c1.25,2.63,5.32,5.19,9.16,7.12"/>
    <path d="m222.24,414.26c-4.25-2.08-8.03-4.26-9.61-6.91"/>
    <path d="m223.64,411.98c-4.26-1.92-8.03-3.97-10.12-6.47"/>
    <path d="m224.8,409.66c-4.23-1.67-7.96-3.61-10.43-6.2"/>
    <path d="m225.91,406.9c-4.02-1.28-7.66-3.25-10.69-5.78"/>
    <path d="m211.55,488.88c-2.83-2.73-6.42-4.3-10.62-4.94"/>
    <path d="m213.74,487.6c-3.26-2.6-6.85-4.39-10.96-4.94"/>
    <path d="m216.07,486.11c-3.25-2.53-6.98-4.28-11.43-4.79"/>
    <path d="m218.16,484.63c-3.5-2.63-7.31-4.38-11.64-4.73"/>
    <path d="m220.35,482.92c-3.58-2.42-7.48-4.19-12.08-4.39"/>
    <path d="m316.81,180.28c4.64,8.11,5.06,15.13,5.42,18.57"/>
    <path d="m229.06,204.58c-.01-7.78,1.96-15.2,4.93-22.43"/>
  </g>
  <g class="clothesFoldLine">
    <path d="m230.75,275.25c4.23,4.44,8.72,9.79,10.92,16.47"/>
    <path d="m225.87,285.77c9.6,6.41,16.94,14.54,21.41,24.84"/>
    <path d="m210.55,274.27c3.3,1.65,9.54,1.67,6.51,5.43"/>
    <path d="m209.38,288.97c11.45-1.6,31.14,13.28,22.44,12.94"/>
    <path d="m253.58,320.63c-7.79-2.34-19.92-12.08-38.7-13.79"/>
    <path d="m230.79,313.7c-9.17-.88-18.37-.76-27.59.34"/>
    <path d="m219.8,332.48c-5.21,4.71-10.97,6.56-17.4,4.81"/>
    <path d="m223.3,337.01c-2,.45-3.67,1.25-4.3,3.13"/>
    <path d="m215.48,344.27c-9.07-.69-22.58-4.93-23.38-2.18-1.03,3.56,12.36,8.93,19.69,8.13"/>
    <path d="m197.25,356.98c2.78,4.44,2.28,9.47.81,12.85"/>
    <path d="m202.31,367.85c1.6,4.81-8.44,16.9,11.2,13.85"/>
    <path d="m206.13,389.13c14.93-1.01,25.12-13.38,17.91-.44"/>
    <path d="m224.2,355.01c2.24,2,3.23,6.96.42,11.92"/>
    <path d="m320.54,303.43c-2.71,1.19-5.93,5.28-8.99,8.79"/>
    <path d="m307.91,322.63c-8.27,7.01-16.82,13.04-25.78,17.68"/>
    <path d="m255.03,325.28c7.11,3.64,17.01,25.54,6.78,19.34"/>
    <path d="m262.06,314.29c7.05-2.66,21.16-3.37,14.21-.61"/>
    <path d="m253.58,320.63c3.41-.98,6.59-1.12,9.5-.2"/>
    <path d="m263.39,329.62c5.21,5.21,14.51,6.44,21.26,3.07"/>
    <path d="m243.66,349.57c-1.11,7.58-1.16,14.59.62,20.63"/>
    <path d="m272.11,388.25c-3.84.85-4.14,2.43-2.35,6.94"/>
    <path d="m243.41,397.55c-2.3,13.19-7.08,24.69-15.54,33.69"/>
    <path d="m265.91,399.17c-1.6-11.23-15.17,6.22-23.25,20.63"/>
    <path d="m224.08,448.68c-1.67,11.47,10.3,5.22,25.92-11.49"/>
    <path d="m221.39,462.24c2.43,4.01,2.56,6.34-1.81,5.34"/>
    <path d="m247.97,473.26c-10.28-5.19-.21-9.66,6.25-16.38"/>
    <path d="m226.19,470.81c9.07,2.11,22.83,5.9,21.26,12.31"/>
    <path d="m258.99,307.24c5.62-4.5,15.04-6.6,15.95-4.7.66,1.38-15.95,4.7-21.36,18.09"/>
    <path d="m230.63,216.66c2.12,4.64,5.16,7.85,9.36,9.23"/>
    <path d="m222.15,249.46c1.05,6.93,3.69,10.83,9.03,9.59"/>
    <path d="m229.83,268.72c2.26-2.83,5.7-4.9,8.98-6.31"/>
    <path d="m272.15,264.05c8.07,3.85,15.34,8.06,21.16,12.96"/>
    <path d="m327.67,261.05c-2.36,4.67-5.97,8.81-11.35,12.18"/>
    <path d="m325.58,255.6c-10.66,11.07-36.87,17.14-50.15,4.43"/>
    <path d="m291.99,217.44c-8.11,8.15-17.15,12.92-27.39,15.14"/>
    <path d="m295.68,224.74c-7.54,3.94-14.27,8-22.63,10.46"/>
    <path d="m267.64,192.1c-7.46,5-15.4,11.64-22.63,14.51"/>
    <path d="m283.3,181.44c-10,9.84-21.85,19.24-28.78,26.08"/>
    <path d="m209.8,174.48c-.47,1.88-.54,3.45-1.12,4.42"/>
    <path d="m214.17,171.68c-.97,3.94-.61,8.09,1.31,12.46"/>
    <path d="m212.61,191.77c5.8,1.67,12.05,4.2,16.79,7.1"/>
    <path d="m221.01,189.56c2.51,2.03,6.56,2.41,9.84,1.8"/>
    <path d="m230.85,181.44c2.27-9.76,6.04-11.23,3.14.71"/>
    <path d="m238.85,173.65c-1.49,2.37-2.87,6.07-1.64,6.56,2.06.82,3.77-4.92,9.1-6.72"/>
    <path d="m248.12,177.26c-4.18,1.79-8.23,4.42-12.14,7.95"/>
    <path d="m229.98,159.2c-.86,3.22-1.28,6.55-1.21,10.02"/>
    <path d="m234.1,156.92c-1.28,2.99-2.03,5.9-2.05,8.69"/>
    <path d="m239.06,155.67c-.75,1.86-1.72,3.54-1.85,4.94"/>
    <path d="m247.33,153.53c-2.71.15-4.4,2.19-5.28,6.59"/>
    <path d="m297.82,148.21c-.85,1.62-1.47,3.26-1.72,4.94"/>
    <path d="m305.85,146.52c-3.39,4.67-5.15,13.63-8.61,22.54"/>
    <path d="m311.84,149.13c-2.54,7.22-2.13,11.23-3.79,10.75-.97-.28-1.29-3.99.27-10.59"/>
    <path d="m300.03,169.3c5.82-17.88,4.92-5.66,8.28,1.07"/>
    <path d="m313.39,154.54c-1.09,5.18-1.7,10.18-.9,14.68"/>
    <path d="m318.32,148.72c-1.86,2.89-3.14,9.65-1.89,10.17,1.8.74,1.15-4.51,3.12-6.31"/>
    <path d="m307.57,179.06c2.23,4.5,5.08,8.25,9.1,10.58"/>
    <path d="m309.29,187.01c3.09,2.35,5.58,4.97,7.63,7.79"/>
    <path d="m324.63,161.43c-3.85,8.77-3.94,22.47-2.62,22.96,2.26.85,1.72-8.12,7.54-15.99"/>
    <path d="m334.06,160.45c1.42-1.57,3.46-2.95,5.56-3.64"/>
    <path d="m340.21,159.63c-8.06,4.32-10.14,14.32-9.68,26.73"/>
    <path d="m326.89,184.96c1.6-9.15-.45-5-3.65,4.59"/>
    <path d="m13.57,235.18c-5,10.86-8.03,21.99-8.02,33.53"/>
    <path d="m17.74,322.6c4.12,14.37,9.26,27.29,16.46,37.23"/>
    <path d="m51.27,273.23c-6.41.12-12.94,2.55-19.54,6.17"/>
    <path d="m53.12,280.85c-7.2,3.21-13.56,9.27-19.54,16.66"/>
    <path d="m107.04,246.06c-4.85-2.34-9.48-1.21-13.18.23"/>
    <path d="m96.73,249.99c-4.99,1.83-8.96,4.1-11.52,6.99"/>
    <path d="m116.03,256.35c-5.31-8-14.97-4.71-19.5.02"/>
    <path d="m105.99,309.03c19.04,2.82,50.92,5.53,37.03,8.64"/>
    <path d="m159.88,329.8c7.09,2.86-11.52,26.13-25.3,48.14"/>
    <path d="m154.12,327.95c-.78,5.09-10.44,15-21.19,25.51"/>
    <path d="m119.42,328.05c8.99-4.62,18.66-7.3,7.76.32"/>
    <path d="m124.89,340.04c6.61-7.36,24.39-15.95,23.27-17.64-.97-1.47-13.64,6.19-24.57,12.17"/>
    <path d="m130.31,339.73c17.76-13.27,23.19-13.22,11.06.15"/>
    <path d="m113.8,171.95c-2.97,2.47-7.17,3.96-12.57,4.49"/>
    <path d="m112.21,168.8c-4.27,4.4-12.99,6.66-24.88,7.37"/>
    <path d="m98.18,192.49c-7.85,2.48-16.3,3.34-25.3,2.78"/>
    <path d="m102.38,194.11c-5.59,2.55-18.93,4.91-23.52,4.35"/>
    <path d="m98.31,201.94c-2.71,1.24-7.03,2.25-12.79,3.06"/>
    <path d="m100.34,203.75c-1.92.96-4.17,1.65-6.75,2.08"/>
    <path d="m96.09,212.35c-4.77,1.97-11.93,2.95-20.85,3.72"/>
    <path d="m96.4,221.47c-4.34,2.69-16.71,2.14-19.7,4.75-1.39,1.21,4.66,2.25,15.22,1.42"/>
    <path d="m95.72,229.76c-5.65,1.3-10.98,1.64-15.89.8"/>
    <path d="m97.89,214.98c-10.56,3.48-27.24,2.44-9.03,5.49"/>
    <path d="m15.72,218.9c2.01,1.35,5.22,1.79,9.07,2.7"/>
    <path d="m17.42,215.69c2.43,2.39,7.1,2.65,12.23,3.79"/>
    <path d="m35.63,223.06c4.49,1.46,9.1,2.39,13.87,2.72"/>
    <path d="m39.72,221.45c9.73,2.22,28.71,2.27,38.85.6"/>
    <path d="m18.58,208.87c5.25,3.69,12.04,1.52,17.86,4.03"/>
    <path d="m20.46,201.46c8.43,4.55,16.02,8.85,1.94,6.71"/>
    <path d="m24.68,200.72c5.41,2.88,7.11,7.28,12.69,8.46"/>
    <path d="m22.54,188.5c2.79,4.21,8.24,4.94,13.06,7.82"/>
    <path d="m29.17,190.31c-3.72-2.19-7.19-4.91-5.15-9.42,9.31,7.63,37.41,8.64,46.54,7.05"/>
    <path d="m31.45,181.85c10.25,4.06,29.41,5.36,42.59,3.33"/>
  </g>
  <g class="clothesEdgeLine">
    <path d="m147.54,388.62c-2.31,7.41-5.59,13.73-8.65,22.02-.88,3.55-2.34,6.89-4.64,9.94"/>
    <path d="m40.27,400.41c-.73,24.17-1.7,50.77.58,57.4.45,3.89.53,7.41.2,10.52"/>
  </g>
  <g class="eye">
    <g class="sclera">
      <circle cx="118.66" cy="57.59" r="18.95"/>
      <circle cx="260.12" cy="115.11" r="21.75"/>
    </g>
    <g class="irisBrown">
      <ellipse cx="111.23" cy="58.87" rx="3.74" ry="3.3" transform="translate(41.44 163.6) rotate(-84.21)"/>
      <ellipse cx="133.79" cy="61.16" rx="3.74" ry="3.3" transform="translate(59.44 188.09) rotate(-84.21)"/>
      <circle cx="270.61" cy="109.39" r="3.6"/>
      <circle cx="252.78" cy="120.05" r="3.6"/>
    </g>
    <g class="pupil">
      <ellipse cx="111.62" cy="58.99" rx="1.46" ry="1.28" transform="translate(41.66 164.09) rotate(-84.21)"/>
      <ellipse cx="134.17" cy="61.28" rx="1.46" ry="1.28" transform="translate(59.67 188.59) rotate(-84.21)"/>
      <circle cx="270.61" cy="109.39" r="1.4"/>
      <circle cx="252.78" cy="120.05" r="1.4"/>
    </g>
  </g>
  <path class="skinFilipino" d="m268.43,90.74c.13-1.68-1.24-4.24-2.5-4.96-4.57-2.65-5.88-4.65-8.47-5.49s-6.37.15-9.76-.16c0,0,6.39,12.31,20.73,10.61Z"/>
  <g class="skinLatino">
    <path d="m154.44,185.58c9.56,9.89,13.63,31.12,31.46,32.58,4.53.37,21.22-5.9,31.81-11.56-8.52-4.43-16.07-17.19-15.36-26.84-3.64,2.76-7.3,5.52-10.61,7.92-8.18-6.05-15.99-4.44-26.58-15.08-2.03-1.78-.69-4.74-4.47-11.8-.85-1.59,1.77-8.87.11-11.66-2.62-4.43-5.35-8.13-9.32-6.96-7.23-8.31-9.94-6.14-15.81-6.78-3.7,1.08-1.81,7.5,5.78,6.23.13.76.71,1.54,1.2,2.21-9.16-.96-8.52,2.92-13.06,5.6-2,1.18-.26,4.52,2.77,4.31-3.29,2.06-1.65,4.64-2.67,7.7.63,3.05,6.5,2.11,6.19-3.44,2.89,5.79-1.26,12.6,9.47,20.04-1.14-.17-1.86.24-2.45.01-4.32-1.62-11.1,1.1-7.87,5.27,4.25-.31,7.82,3.21,10.94,2.44,4.62-1.14,6.69.31,8.47-.21Z"/>
    <path d="m276.41,122.72c3.04,11.98,11.82,24.08,15.57,27.38,2.06,11.86-7.76,20.5-24.1,25.73-12.83-4.15-19.99-13.6-16.08-23.41"/>
    <path d="m322.23,198.85c5.25-1,11.09-3.68,16.33-7.57-1.44-.03-2.82-.11-3.99-.34.9-12.4,4.97-28.43,14.8-28.89,10.88,3.64,20.7,9.03,25.61,15.02,3.56,4.35,7.86,8.3,4.98,14.05-13.28,26.53-43.14,21.32-53.2,25.93-2.53.41-12.71,13.53-26.26,9.69-1.54-.44-1.95-1.1-3.17-1.7-3-1.47-4.06-2.87-3.17-5.64-2.1-.54-2.41-4.23-1.03-5.37-2.87-.58-3.77-1.83-3.49-4.5-1.69-.51-2.53-2.53-1.32-3.53,3.14-2.64,2.38-7.28,5.62-8.38,15.8-4.6,25.37,1.62,28.29,1.22Z"/>
    <path d="m298.51,284.79c5.9,1.68,16.11,3.65,24.7,2.8,3.66-4.15,3.25-8.91,1.79-14.01-5.52,6.03-17.19,10.25-26.49,11.21Z"/>
    <path d="m223.81,99.86c5.26-7.15,5.49-13.45,14.08-17.02,9.94-1.89,14.58,3.08,32.5,7.42,6.99,2.5,6.69,9.16,9.85,13.91,4.13,5.52,13.05,11.42,12.5,25.43,3.43,26.55-41.74,38.14-58.47,12.87-3.92,3.44-5.82-1.37-9.56-2.66-5.08-1.76-12.67-10.8-8.19-15.91-.79-8.15,3.83-14.94,7.29-24.04Zm35.83,18.11c-1.89.49-3.61.32-4.76.78-1.69,1.8-3.93,2.43-5.62,4.16,1.75-.12,3.82.08,5.97-1.07s2.36-2.03,4.03-3.12c.4-.26,1.33-.69.37-.75Zm9.95-5.08c2.74-2.13,6.57-.6,8.84-6.17-1.8-.65-3.12-1.16-5.43.09-2.37,1.28-3.23,3.84-4.6,5.98-.62.96.81.39,1.19.1Z"/>
  </g>
  <g class="eyebrowLightGray">
    <path d="m263.98,105.45c2.41,2.96,4.69-2.19,5.09-2.82.85-1.31,2.78-3.98,8.76-3.62-.11-.28-.22-.58-.33-.86-12.2-.79-11.96,6.47-13.52,7.3Z"/>
    <path d="m259.9,111.04c.93,4.28-6.13,3.52-9.19,4.34-6.94,1.87-6.8,5.5-8.34,4.79,6.22-10.38,12.22-7.12,17.53-9.13Z"/>
  </g>
  <path class="hairLightGray" d="m263.33,144.67c-1.39-5.51,1.16-8.35,7.03-9.67,4.54-1.02,5.81-1.85,8.94-5.07.89-.91,3.42-3.96,6.23,2.56,2.08,5.01,1.12,15.25-3.87,12.83-.9.65-1.68,1.37-2.67,1.57-.17,6.6-13.6,5.88-15.65-2.22Zm-46.78-20.7c1.24-1.49,4.67-1.35,6.79.1,10.23,5.2,11.56,20.44,14.39,26.64,4.19,9.15,13.43,9.71,16.62,14.35.52-1.5.1-3.46-1.12-5.34,7.01,4.3,11.3,1.59,17.15,6.18-.18-1.69-1.14-3.6-2.03-5.18,4.53,2.54,13.3-.17,17.92,1.89,3.71-5.3,5.17-10.81,4.55-16.41,1.21,1.29,2.15.59,3.68.89-2.19-4.49,1.92-8.38-1.73-17.42-.48,2.95-2.71,7.24-4.22,8.39-2.22-2.64-1.03-5.94-5.36-11.83-2.24-3.05-5.79,3.16-8.17,4.05-5.36,2-10.64,1.31-13.41,7.11-2.19,4.58,1.41,8.66.5,15.88-5.52.22-10.92-1.55-15.82-4.25.76-.07,2.18-.87,2.95-1.89-9.11-2.67-14.49-11.56-17.44-21.11s5.09-16.31-13.22-19.84c.6-2.15,2.21-6.99,2.75-8.25-3.25,3.87-7.27,3.73-9.08,11.12-1.24,5.07.53,12.68-1.87,15.81,2.03-.21,3.64-1.91,5-3.52.03.79.27,1.94,1.17,2.63Z"/>
  <g class="hairFoldLine">
    <path d="m221.32,109.59c-.75-.13-1.53-.22-2.35-.25"/>
    <path d="m262.12,153.28c-.16.97-.4,1.81-.82,2.37"/>
    <path d="m288.55,138.07c.38.45.84.98,1.31,1.27"/>
  </g>
  <g class="skinFilipino">
    <path d="m64.5,291.15c-1.13,2.51-3.9,4.53-2.14,7.86.86,2.11,3.92,3.49,6.6,2.51.42.82,1.21,1.36,2.33,1.63.69,3.39,3.21,4.53,5.03,3.77,1.48-.61,1.63-2.2,3.77-3.46,3.04.37,4.51-3.47,6.03-7.19,1.89,4.8,3.19,12.54,4.71,16.19.37,8.8,7.85,8.55,7.72,4.52-4.3-16.32-4.17-29.44-7.8-35.82-3.42-6.62-5.63-12.9-9.99-19.4-13.62-27.66-11.63-55.07-19.29-66.56.89-6.03-1.13-20-1.42-32.34,16.03-16.03,10.5-57.02-6.38-56.88-10.92,5.67-23.55,2.55-23.83,34.33-.86,2.95-1.26,5.85-1.82,8.09.16,3.45,1.44,6.74,2.95,8.51.71,21.56,6.61,33.34,6.38,36.88-1.7,26.67,14.86,48.62,28.34,74.16.96,1.43-4.71,9.74-1.19,23.2Z"/>
    <path d="m240.93,79.13c-4.36,1.56-9.47.97-13.68,4.89-4.22,3.51-10.44,4.01-15.58,11.17-7.84,13.92-26.98,6.03-37.37,14.85-13.13-.2-23.49-4.34-32.43-6.29-10.64-2.32-19.93-7.2-33.72-4.51,12.35,8.43,5.29,20.78,11.37,29.6,20.76,4.36,47.42,11.8,61.92,8.04,15.09-3.92,28.66-10.92,35.71-22.29,2.5,5.83,3.56,2.35,7.69,7.11,5.85-1.24,2.22-9.37-.87-10.85.27-9.21,5.73-15.76,9.35-16.48.8-.16,2.33-1.13,4.5,2.33,4.99,8.69,10.22,3.3,9.42,1.53-3.54-4.27-3.14-8.13-7.89-11.51,2.5,0,4.59-3.02,9.98,2.01,2.98,6.52,8.79,6.24,9.66,2.82-2.41-2.66-3.02-6.64-5.53-8.31-3.99-2.66-6.89-6.13-12.53-4.11Z"/>
    <path d="m77.54,66.7c-.3,18.32-4.9,32.14-13.75,35.92,9.19,2.46,12.71,12.41,16.47,20.58,5.49,11.96,19.6,10.59,26.63,1.38,3.73-4.89,6.7-20.01-3.3-24.71"/>
    <path d="m77.96,71.38c-5.71,2.48-7.31-2.81-9.63-6.52-4.79-7.63-3.67-15.98,1.08-18.16,3.41-1.57,6.89-.09,8.45,4.66,1.22.04,1.94.37,1.96,1.07-.78,7.85,1.52,16.14,4.6,18.96-.68-8.92-.24-14.14,1.28-19.63,1.18-4.26,5.1-7.31,8.87-11.86,1.78-1.9,2.01-8.4,2.52-14.1,7.69-2.34,24.81-.12,28.2,4.38,3.54-2.11,10.95-2.81,13.9-1.2,2.46,4.75,1,10.66,1.51,16.43.29,3.26,1.6,7.36-.87,10.16-3.63,5.51.42,14.15-3.75,22.6-2.63,5.34-5.29,14.79-9.77,19.25-2.38,2.36-3.86,5.42-6.76,7.06-4.27,2.41-11.66,1.51-15.63-.94-7.24-4.46-16.02-8.53-21.05-14.23m32.76-31.3c-1.35-2.41-3.32-4.05-5.85-4.31-4.09-.43-5.99.9-8,1.91,3.44,2.26,6.19,5.5,13.12,3.16.44-.15,1.22.13.73-.76Zm13.24,2.13c.69.09,3.47,2.5,6.77.82.51-.88.75-2.11.6-3.12-.36-.81-1.6-1.09-2.4-1.11-2.35-.05-3.92,1.29-5.7,2.59-.46.33-.05.72.72.82Z"/>
  </g>
  <g class="eyebrowBlack">
    <path d="m130.31,52.47c.54,3.23,5.94.25,10.65,1.09.42-1.31.4-2.75.25-4.18-2.57-.13-4.92,2.11-10.91,3.09Z"/>
    <path d="m119.24,51.07c-1.24,5.08-12.62-3.84-18.34-2.38-1.42.36-2.13-1.46-1.61-1.85,9.32-5.46,11.11,1.77,19.95,4.22Z"/>
  </g>
  <g class="skinOverlapLine">
    <path d="m59.09,138.08c-2.07,7.05.45,14.16.96,24.79"/>
    <path d="m87.46,291.97c-.51,1.82-.96,3.28-1.34,4.31"/>
    <path d="m80.09,303.47c-1.93.09-3.72-.41-4.54-1.15"/>
    <path d="m81.09,292.12c-2.44,4.17-3.77,12.54-9.8,11.03"/>
    <path d="m74,293.85c-1.11,3.15-3.76,7.31-5.04,7.67"/>
    <path d="m64.5,291.15c.5,2.26,1.87,2.39.32,5.67"/>
    <path d="m215.54,101.22c-1.52,5.67,1.24,8.76,1.61,13.37"/>
    <path d="m239.36,86.72c-2.14-1.72-5.95-.04-7.63-.22"/>
    <path d="m29.83,140.32c-.1,6.44.2,12.12,1.13,16.6"/>
    <path d="m191.75,187.68c2.39,1.81,4.19,6.47,3.85,11.37"/>
    <path d="m338.56,191.28c3.85-3.02,9.33-10.1,20.7-13.86"/>
    <path d="m301.54,221.5c-2.01.06-4.54-.76-7.37-2.09"/>
    <path d="m300.84,215c-2.35.4-4.99-.27-7.7-.97"/>
    <path d="m300.03,207.39c-2.15,1.07-9.66-2.36-10.39,2.15"/>
    <path d="m304.86,198.48c-4.45,1.77-10.98.07-12.57,2.31-1.07,1.5-1.86,5.25.07,6.4"/>
    <path d="m132.36,153.77c2.35-.16,4.35-1.84,4.91-3.75,1.02.61,2.12.91,3.33.85-.22,1.67.19,3.54,1.02,5.54"/>
    <path d="m151.47,142.19c-1.67.89-4.05.29-5.71.82-1.86,3.12,1.86,7.04,7.11,5.18.04,1.86.38,3.17,1.8,4.3-1.08,1.44-1.17,3.4-1.33,5.45"/>
    <path d="m142.65,143.85c.91,1.12,2.12,2.48,3.58,3.21"/>
    <path d="m147.36,155.56c-.53-3.65-.59-5.88-.18-7.71"/>
    <path d="m150.57,176.47c-1.99.03-2.33,2.33-5.22,1.6"/>
  </g>
  <g class="skinFoldLine">
    <path d="m174.39,110.47c-2.21,2.9-3.55,8.41-2.06,13.19"/>
    <path d="m120.44,121.86c-.95,2.85-.87,5.05-.83,7.42"/>
    <path d="m137.52,155.06c-.09,1.24-.57,2.27-1.64,2.97-.08-.75-.16-1.55-1.17-2.16"/>
    <path d="m154.8,168.24c-3.74,1.23-6.43,4.16-7.44,9.81"/>
    <path d="m159.77,181.36c-.18,2.23-2.66,2.81-5.33,4.23"/>
    <path d="m75.91,53.52c-3.04-10.03-13.45-1.75-6.57,8.14"/>
    <path d="m75.69,57.94c-2.69,1.7,1.89,6.4-.02,7.04s-1.26-3.2-3.38-4.4c-3.11-1.76-1.26-6.36,1.52-5.21"/>
    <path d="m223.57,127.97c-8.46-6.05-8.67,4.74,2.27,10.1"/>
    <path d="m226.43,131.2c-1.58,2.68,4.45,4.39,3.01,5.93-1.16,1.23-.97-1.82-4.25-2.28-3.28-.46-4.77-6.25-1.09-4.03"/>
    <path d="m223.34,124.08c.96.8,1.64,1.41,2.13,2.39"/>
  </g>
  <g class="skinEdgeLine">
    <path d="m305.6,203.06c1.58,2.17-.98,3.54,1.18,6.69,1.78,2.59-1.53,4.24-.14,6.5,1.67,2.72-1.23,3.41-.14,5.48"/>
    <path d="m226.66,86.33c-.86,1.19-2.17.23-3.02,3.23"/>
  </g>
  <g class="lipMaleBrown__noStroke">
    <path d="m277.26,132.78c-1.19,1.28-2.7,1.98-4.46,2.22-1.23.88-5.67.81-7.84,8.19,2.75-.12,8.65,6.7,15.44,1.2,10.81-8.76-1.1-11.5,1.61-13.04-1.4-1.18-3.81,1.06-4.74,1.44Z"/>
    <path d="m122.54,87.85c2.13-.87,2.79-1.73-.04-2.56-1.74.63-2.55.7-4.62-.37-4.25-.05-8.12,1.06-10.01,4,.68,3.02,2.45,7.97,11.49,7.22,9.36-.78,3.5-7.28,3.19-8.28Z"/>
  </g>
  <g class="mouthInner">
    <path d="m281.41,138.02c2.07-.73,1.9-2.62,1.26-3.52-.79-1.1-2.36-1.96-2.25-2.97-1.93.75-2.86,2.9-4.86,3.73-3.44,1.43-7.28.16-10.23,6.92,8.2,3.97,10.28-2.12,16.07-4.16Z"/>
    <path d="m110.48,87.2c-.95.61-3.58,1.69-1.34,2.86,4.99,2.61,7.51.86,11.44,1.33.29-.58.27-1.04.24-1.62-3.3.49-8.41-.97-10.34-2.58Z"/>
  </g>
  <path class="tongue" d="m277.22,135.14c-5.36,1.55-8.64,3.04-10.31,4.25-.43.59-.86,1.29-1.27,2.13.98,1.34,7.47.59,14.9-4.46.16-1.26-2.23-2.26-3.32-1.92Z"/>
  <g class="teeth">
    <path d="m275.58,135.27c-3.09,1.28-6.49.39-9.29,5.07,5.65.58,13.03-2.09,11.62-6.84-.68.69-1.39,1.38-2.33,1.77Z"/>
    <path d="m280.63,134.38c-.11,4.35-9.88,7.79-14.4,6.05-.3.52-.6,1.1-.89,1.76,8.2,3.97,10.28-2.12,16.07-4.16.35-.13.64-.28.87-.47-.05-1.78-1.32-3.48-1.65-3.17Z"/>
    <path d="m110.51,87.17s-.02.01-.03.02c1.92,1.61,7.04,3.07,10.34,2.58,1.62-.29,1.51-1.56,1.81-2.79-5.62,2.05-6.61-3.47-12.11.19Z"/>
  </g>
  <g class="lipOverlapLine">
    <path d="m280.43,131.53c.72-.28,1.4-.28,2.6-.06"/>
    <path d="m264.66,143.95c.22-.64.45-1.23.68-1.76"/>
    <path d="m120.58,91.39c.81.12,1.59.28,2.17.61"/>
    <path d="m122.63,86.99c.27-.1.51-.24.73-.4"/>
    <path d="m124.23,88.44c-.75-.14-1.4-.35-1.75-.73"/>
  </g>
  <g class="lipEdgeLine">
    <path d="m283.68,140.19c-1.15,4.27-7.39,6.98-10.44,6.25"/>
    <path d="m277.26,132.78c-1.19,1.28-2.7,1.98-4.46,2.22"/>
    <path d="m122.5,85.29c-1.74.63-2.55.7-4.62-.37"/>
    <path d="m124.58,91.08c2.07,6.17-10.35,6.33-14.65,2.46"/>
  </g>
  <g class="cheekLine">
    <path d="m260.9,141.13c-.59-3.81.6-5.16,1.33-8.09.51-2.06,2.06-4.39,2.98-5.45"/>
    <path d="m283.68,126.93c-2.5-5.33-5.26-4.17-6.94-5.22"/>
  </g>
  <g class="smileLine">
    <path d="m126.7,79.36c.61,1.61,1.04,2.84.71,4.8"/>
    <path d="m110.7,75.67c-3.47,2.16-6.09,5.78-7.8,10.19"/>
  </g>
  <g class="noseLine">
    <path d="m267.74,131.89c-2.57-.02-3.27-3.17-2.52-4.3"/>
    <path d="m274.42,119.18c1.07,2.81,6.34,3.58,4.02,7.16-.27,1.42-1.47,2.89-3.03,3.58-4.28,1.9-5.3-.44-7.33,1.41"/>
    <path d="m114.05,73.61c-1.35.69-1.8,4.09-.37,5.06"/>
    <path d="m120.91,78.92c-1.45-.99-3.56-1.56-4.55-.49"/>
    <path d="m125.72,62.44c2.32,6.3.74,8.02,1.55,10.58,1.75,5.53-.46,8.6-6.98,6.9"/>
  </g>
  <g class="eyeFoldLine">
    <path d="m278.81,110.24c-.18,2.69-2.96,4.89-6.22,5.36"/>
    <path d="m260.54,122.23c-1.44,2.38-4.09,4.41-7.06,3.92"/>
    <path d="m136.83,60.43c.02,3.85-4.04,4.88-7.9,2.78"/>
    <path d="m113.52,60.99c-2.63,1.75-6.03,1.87-8.33.52"/>
  </g>
  <g class="eyeCornerLine">
    <path d="m278.43,106.72c.39.07,1.15.12,1.5-.04"/>
    <path d="m245.51,124.34c1.28-.23,2.43-.51,3.75-1.43"/>
    <path d="m100.52,55.7c.74.03.87.03,1.27-.11"/>
  </g>
  <g class="eyeCreaseLine">
    <path d="m257.6,117.24c-.99.3-1.73.57-2.72,1.51"/>
    <path d="m277.77,105.16c-4.53-2.34-7.89,3.15-9.25,5.63"/>
    <path d="m116.2,56.08c-2.3-3.23-7.25-5.43-13.23-2.23"/>
    <path d="m137.22,57.59c-1.66-1.46-4.42-2.37-8.46-.08"/>
  </g>
</svg>