<svg viewBox="0 0 150.59 424.38">
  <g class="sari">
    <path d="M128.41,188.19c7,13.91,11.87,37.4,10.66,54.29C138,258,139,272,136.8,288.53c-1.83,13.85.86,26.93-1.35,53.08,2,5.63,1.72,9.49,2.21,12.67.4,2.62,2,5.43,2.62,12.67C144.7,412-24,384.24,14.8,325.33c4.43-1.81,9.23-5.56,15.08-7.44,5.63-1.81,11.81-12.77,22.32-18.9a121.1,121.1,0,0,1,7.44-28.16c-7.64-17.89-11.26-54.49.71-70.57C87,207.2,109.72,203.37,128.41,188.19Z"/>
    <path d="M108.86,112.72c-.76-3.86,8.06-16.8,11.42-18C105.91,82,97.73,81.43,88.81,85.89l-38,12.38c-8.94,6.91-22.14,12.84-13.6,28.16,2.69,4.82,5.15,11.66,10.71,21.15,1.87,3.19,3.44,7.36,5.25,10.86,11.32,8,56.58-4.87,65.26-15.31a57,57,0,0,0-2-9.51C119.82,122.87,113.38,117.56,108.86,112.72Z"/>
  </g>
  <g class="sariTrim">
    <path d="M140.28,367a19.16,19.16,0,0,1-5.22,3.93c.31,2.19.88,4.08,1.22,5.79-5,3.77-13.74,5.79-21.25,5.8-4.34,0-10.46,6.16-25.3-.52-3.16,3.49-22.59.65-27.73-2.17-3-2.5-20.73-3.62-28-12.91-6.09-2.86-13.38-8.36-16.36-13.4l2.85-1.6c-4.69-2.66-9.48-10.51-9.14-15.71l2.26-1.32C13,332,13.36,329,14.8,325.33a109.47,109.47,0,0,0-10.53,5.33c-2.28,1.24-3.16,7-1.9,10.47-5.93,5.51,2.06,13.5,5.92,19.42,0,9.64,16.53,16,17.36,17.22,10.86,15.43,28.15,12.14,32.23,14.74,17.5,11.16,29.35,2.21,32.1,3.45,13.93,6.27,24.52-1.38,27.14-.83,12.43,2.62,23.28-3.86,22.7-7.26l-1.07-3.49c3.56-1.63,6-5,5.44-6.12A58.57,58.57,0,0,1,140.28,367Z"/>
    <path d="M53.15,158.44a25.2,25.2,0,0,0,2.21,3.65c7.19,8.82,61.83-7.65,63.32-15.37,0-1.19-.13-2.39-.27-3.59C109.73,153.57,64.47,166.44,53.15,158.44Z"/>
    <path d="M50.61,132.49c-6.57-6.92,1.29-21.58,9.74-19.71a15.84,15.84,0,0,1,3.35,1.88c5,3.25-4,21.59-9.49,19.43A19.69,19.69,0,0,1,50.61,132.49Z"/>
    <path d="M108.86,112.72a37.55,37.55,0,0,0,4.14,3.54c4,2.79,15.53-15.42,11.94-18.1a35,35,0,0,0-4.66-3.42"/>
  </g>
  <g class="clothesOverlapLine">
    <path d="M116.38,133.62c-2.37,4.94-8.06,8.78-13.42,8.55"/>
    <path d="M83.43,147.31c-5,7.65-20.55,8.91-26.6-.34"/>
    <path d="M43.7,130.87a24.73,24.73,0,0,1,6.91,1.62"/>
    <path d="M60.35,112.78c-4.21-2.35-7.18-5.2-14.14-4.75"/>
  </g>
  <g class="clothesFoldLine">
    <path d="M60.75,252.66a90,90,0,0,0-1.11,18.17"/>
    <path d="M52.2,299c8.81-7.3,14.86-7,22.58-35.69"/>
    <path d="M133.16,347.88c.1,13.18,1.67,26.92,5.59,36.5"/>
    <path d="M2.37,341.13c5.51-2.54,14.91-9,21.46-11.51,4.77-1.8,6.35-6.05,24.59-13.46,2.46-1,6.65-5.32,14.12-9.47,8.84-6.33,13-12.13,19.28-22.43"/>
    <path d="M78.66,304.53c-7,8.81-16.12,14.62-22.1,21.43-5.12,5.84-21.6,11.47-28.24,20.11-4.09,5.31-12,6.31-20,14.48"/>
    <path d="M25.65,377.77c6.49-9.44,12.71-15.5,14.32-18.87,2.64-5.52,6.62-8.89,9.12-12.17"/>
    <path d="M68.65,336.43A175.61,175.61,0,0,0,56.89,357"/>
    <path d="M58.89,388.6c2.42-9.61,9.8-21.93,15.12-35.22"/>
    <path d="M106.91,297.55c-.17,11.47-3.48,15.44-3.83,21.27-1,16.95-5.47,19.72-6.14,29.57-.59,8.64-5.15,17.18-6.32,22.43-.9,4.06-.54,11.76-1.49,16.62"/>
    <path d="M118.7,310.51c.93,13.87-2.36,19-2,23.26.87,10.09-2.21,16-1,21.77,1.76,8.39-1.49,20.27-.66,35.22"/>
    <path d="M98.2,252.81c-.19,27.56-4.1,30.52-4,37.37.24,10.93-7.21,26.45-12.39,43.1"/>
    <path d="M110.72,233.2c1.48,13.13,2.59,24.6,1.29,33.3"/>
    <path d="M127.18,248.18c-1.11,21.65-.4,39.46-3.15,51.06"/>
    <path d="M137.59,281.14c.2-7.68-.79-13-.79-21.67"/>
    <path d="M61.4,206.9a74.26,74.26,0,0,0-4,26.3"/>
    <path d="M66.78,208.15a45.46,45.46,0,0,0-2.13,12.65"/>
    <path d="M81.82,212c-.65,5.35,0,13.62,0,20.08"/>
    <path d="M116.65,206.9a126.65,126.65,0,0,1,3.68,23.52"/>
    <path d="M125.91,196.7a68.23,68.23,0,0,1,5.89,22"/>
    <path d="M99.53,94.4c.19,3.46.58,6.48,1.56,8.18.83-1.42.47-3.58,1-5"/>
    <path d="M46.5,105.82a7.9,7.9,0,0,1,6.78,3.11,16.05,16.05,0,0,0-5.49-6.35"/>
  </g>
  <g class="clothingGold">
    <path d="M127.25,184.44c3.78,2.7,3.77,10.73-1.48,9.32,1.21,4.46-2.44,10.26-7.16,7.56.81,4.73-4.73,9.46-8.78,6.35.4,7-10.4,8.51-12,1.76-.54,4.59-10.13,6.48-12.16.13-2.7,4.05-9.73,3.11-11.08-1.48-2.29,2.83-8,2.29-8.64-1.89-5.4,3.37-10.13-2.57-6.08-9.59C79.17,203.62,120.63,195.25,127.25,184.44Z"/>
    <path d="M84.73,102.33C96.83,90,86.12,78.26,67.42,83.84c-22,6.56-18.76,25.33,2.69,24.76C75.55,120.7,90,112.57,84.73,102.33Z"/>
  </g>
  <g class="eye">
    <circle class="sclera" cx="52.93" cy="48.41" r="20.07"/>
    <g class="irisBrown">
      <ellipse cx="63.32" cy="48.27" rx="3.4" ry="3.23" transform="translate(11.2 108.46) rotate(-86.43)"/>
      <ellipse cx="39.88" cy="46.93" rx="3.4" ry="3.23" transform="translate(-9.45 83.81) rotate(-86.43)"/>
    </g>
    <g class="pupil">
      <ellipse cx="63.1" cy="48.18" rx="1.32" ry="1.26" transform="translate(11.08 108.15) rotate(-86.43)"/>
      <ellipse cx="39.65" cy="46.85" rx="1.32" ry="1.26" transform="translate(-9.57 83.5) rotate(-86.43)"/>
    </g>
  </g>
  <g class="skinLatino">
    <path d="M88.81,85.89c-.41,0-.89.13-1.41.23,3.74,3.75,3.51,9.89-2.67,16.21,5.24,10.24-9.18,18.37-14.62,6.27-11.77.31-18.06-5.2-17.7-11.33h0a13.19,13.19,0,0,0-1.62,1c.05,8.37,21.48,24.59,35.66,23.7C95.16,108.12,95.6,93.27,88.81,85.89Z"/>
    <path d="M61,178.24c-.71,6.59-.73,11.55-.86,18.46,19.24,6.76,59.66-1.34,66.87-11.93-1.93-8-5.54-14.13-7.12-21-1.27-5.51-.71-10.16-1.7-16-5.42,7.81-53,21.91-62.12,15C57.72,169.35,61.55,173.37,61,178.24Z"/>
    <path d="M82.79,67c-3.9,7.64-.88,16.6.52,18.86,11.32,8.75-24,23.15-28,8.8.32-3.34-2.32-12.89-7.78-16.85"/>
    <path d="M127.38,96.32c7.77,6.94,24.36,11.73,22.87,27.14-.7,6.27-8.88,7.59-16.41,4.67-5.64-2.18-12.33-7.95-20-12.36-1.32-4,2.23-10,5.62-11.65-.18-.42-1.39-2-1.85-2.61l-10.23-28.9a4.77,4.77,0,0,1,3.49-2.56l10.07-7.83c.18-3.23,2.8-5.43,4.48-3.51.61.47-.3,2.34.25,3.44.66-.13,1.62,0,1.86.73.24,1.85-.7,3.24-.46,5.39.6-.2,1.49-.1,1.63.74,1.08,4.12-.6,8.17-.78,12.82S129.12,89.66,127.38,96.32Z"/>
    <path d="M118.22,102.33c-17.06,13.71-24.71,33.61-45.94,36-2.87.32-12.06-1.86-17.62-4.66-5.9-3.78-2.31-19.56,7.78-19,5.63,2,7.37,3.61,8.22,3.32,11.84-5.81,18.77-4.21,36.11-20.31A23.69,23.69,0,0,1,104,83.88c.28-4.47,1-8.84-.22-10.78-.17-2.55,4.48-2.66,5.28,1.42.68-3.34,1.65-6.59,2.08-9.64.28-2,1-3.69,1.2-4.83.12-1,3-1.12,3.58.81.36-1.4-.06-2.21.68-2.78,2.32-1.53,4.45.27,4.44,3.06,2.46.4,2.76,2.33,2.06,5.84,2.88.59,2.74,5.14,1.93,8.56-.61,2.61,0,6-.8,10.69C124.34,93,123.87,99.28,118.22,102.33Z"/>
    <path d="M138.79,413.06c-9.1-1.84-9.34-10.55-14-17.38a28.49,28.49,0,0,1-7.65-.55c-1.87-.39-7.81,3.4-16.14,3.31-3.66,10.93,6.42,9.15,12.45,17.49,3.36,4.63,11,11.81,16.85,6.07a2.91,2.91,0,0,0,4.1-1.08,2,2,0,0,0,3-1.19,2.1,2.1,0,0,0,2-2.57C140.62,416.72,140.49,413.41,138.79,413.06Z"/>
    <path d="M26.25,398.81c-.43-2.35.42-11.29,2.53-17.25a30.07,30.07,0,0,1-3.13-3.79C25,376.86,16,373.2,11.18,367.5c-4.87,3.65-9,7.51-7.6,13C5.2,391,1.76,392.66,4.73,399.68a6.63,6.63,0,0,1-.19,4.12c-.92,2.47,1.73,4.65,3.57,2.63a2.2,2.2,0,0,0,3.3,2.83c-.34,2.13,3.57,3.11,4.72,1.69-.07,2.64,4.93,2.64,6.28-1.14,2.12,2.64,8.54,3,8.85-2.79C31.32,405.94,27.27,404.27,26.25,398.81Z"/>
    <path d="M98,56.51c-1,4-1.37,6-4.09,10.11-2.33,3.56-5.23,6.91-8.36,3.84-8.41,16.92-20.37,16.23-27.2,19.59-4.26,2.1-14.31,1.94-17.49-2.56-5.73-8.11-15-11.84-9.46-36.9,1-4.72-.4-9,1.9-15.71C28.12,2.32,111.43,20.59,98,56.51ZM58.58,49.16a29.87,29.87,0,0,0,4.78.8c2.13.17,2.75-.38,7,0-1.57-1.32-3.25-3.32-6.55-3.71a7,7,0,0,0-6.14,2.34C57,49.34,58.13,49.13,58.58,49.16ZM44.91,47.79c-1.79-1.62-2.58-2.57-5-2.71s-4.22,1.36-5.37,2.52a12,12,0,0,0,4.27,1.07c2,.14,3.35-.38,5.2-.28C44.47,48.41,45.71,48.51,44.91,47.79Z"/>
  </g>
  <g class="skinDisplayLine">
    <path d="M130.07,418.08a5.69,5.69,0,0,0-5,1.37"/>
    <path d="M133.31,419.6a5.3,5.3,0,0,0-1.63.29"/>
    <path d="M31.26,407c-1,.56-2.72.51-5.1,0"/>
    <path d="M20.06,410.67a4.5,4.5,0,0,0-2.6-.4"/>
    <path d="M15.11,409.56a3.11,3.11,0,0,0-2.38-.52"/>
    <path d="M10.71,407.78a4.62,4.62,0,0,0-1.55-.56"/>
    <path d="M97.66,173.3c2.2,4.89-2.08,5-1.29.25"/>
  </g>
  <g class="skinOverlapLine">
    <path d="M124.32,414.93c3.93,3.49,5.27,2.54,5.75,3.15a2.74,2.74,0,0,1,.21,3.92"/>
    <path d="M132.23,416.18c1.55.87,2.25,2.47,2.15,4.74"/>
    <path d="M134.26,414.71c1.07,1.43,3.41,1.25,3.1,5"/>
    <path d="M137.54,414.24c1.15.47,1.62,1.59,1.84,2.92"/>
    <path d="M9.78,401.81c0,1.88-1.11,3.22-1.67,4.62"/>
    <path d="M13.1,403.64c.27,1.75-1.1,3.61-1.69,5.62"/>
    <path d="M17.43,405.25c.23,1.38-.78,3.38-1.3,5.7"/>
    <path d="M22.14,404c0,1.61,1.33,2.78.27,5.84"/>
    <path d="M119.42,104.12c4.54,6,4.2,13.16,11.62,19.67"/>
    <path d="M105.44,84.61c.68-4.25,2.67-5.89,3.58-10.09"/>
    <path d="M115.88,60.86c-.74,3.85-2.8,6.18-3.87,17.63"/>
    <path d="M121,61.14c-1.17-.17-1.74.31-1.83,1.19-1.42,5.66-3.38,12.78-3.78,17.13"/>
    <path d="M123.06,67c-1.53-.33-1.61,2.34-2.12,4.44A58,58,0,0,0,119,81.07"/>
    <path d="M125.63,62.15a3.53,3.53,0,0,0-2.27,1.52"/>
    <path d="M127,68.27a3.7,3.7,0,0,0-1.79,1.07"/>
  </g>
  <g class="skinFoldLine">
    <path d="M127.38,96.32a12.57,12.57,0,0,1-2.93,4.75"/>
    <path d="M91.62,55.67c2.83-7.7,7.25,1.49,1.61,8.18"/>
    <path d="M88.71,57.65c3.37.89-2.45,6.78-.39,7.42.94.3,1-2.12,3.17-3.74,3.1-2.35,1.68-5.55.38-4.71"/>
  </g>
  <path class="skinCreaseLine" d="M66.4,128.77a5.32,5.32,0,0,0,1.45,4.88"/>
  <path class="lipFemaleMedium__noStroke" d="M40.48,69.56c.55,2,.56,2.78.92,4C43.66,80.9,52.86,80.61,57.92,75c1.37-1.53,1.58-3.1,2.33-4.35Z"/>
  <path class="lipFemaleMedium" d="M40.48,69.56c1.88-.6,2.22-2.2,5.22-1.84,1.89.22,2.88-.23,5,0,4.08.41,4.92,2,9.55,2.92Z"/>
  <g class="lipOverlapLine">
    <path d="M40.48,69.86a1.15,1.15,0,0,1-1-.32"/>
    <path d="M60.25,70.62a1.51,1.51,0,0,0,1.1-.58"/>
  </g>
  <path class="lipEdgeLine" d="M41.4,73.54c2.28,7.35,11.27,7.15,16.52,1.43"/>
  <path class="mouthInner" d="M40.48,69.56c2.47,3,4,5,8.48,5.17a17.09,17.09,0,0,0,11.29-4.11c-2.43,0-6.84-1.89-10.58-1.63a19.35,19.35,0,0,1-4.83,0C43,68.66,41.91,69.78,40.48,69.56Z"/>
  <path class="teeth" d="M49.67,69a19.35,19.35,0,0,1-4.83,0,4.51,4.51,0,0,0-2.24.22,6.14,6.14,0,0,0,0,2.83l.68.65a64,64,0,0,0,13.16.38,18.46,18.46,0,0,0,3.81-2.45C57.82,70.66,53.41,68.73,49.67,69Z"/>
  <g class="cheekLine">
    <path d="M41.47,61.52c-3.83,3.8-3.89,6.5-3.89,8.67"/>
    <path d="M56.2,59.72c1.18.66,1.73,2,3.23,3.76,1.86,2.21,4.47,3.84,4.43,7.52"/>
  </g>
  <g class="noseLine">
    <path d="M43,56.82c-1,2.29-3,3.76-.45,6.29"/>
    <path d="M56.2,59.72c.73.45,1,3.39-.94,4.25"/>
    <path d="M52.6,63.32c-3-1.27-3.07-.37-4.66,0"/>
    <path d="M42.75,61.72a3.55,3.55,0,0,0,2.33,1.52"/>
  </g>
  <g class="eyeFoldLine">
    <path d="M35.37,50.21c1.8,1.76,5.8,1.6,8,.37"/>
    <path d="M58.75,51.4c1.88,1.23,6.33,2,8.87.45"/>
  </g>
  <g class="eyeCornerLine">
    <path d="M34.55,47.6a2,2,0,0,1-1.22.56"/>
    <path d="M72,50.77A4,4,0,0,1,70.38,50"/>
  </g>
  <g class="eyeCreaseLine">
    <path d="M43.83,44.94c-4.56-4.24-8.31-.26-9,.7"/>
    <path d="M70.15,48c-2.94-4.5-9.15-5.28-11.65-1.72"/>
  </g>
  <g class="eyebrowDarkBrown">
    <path d="M57,37.44c2.37,6.73,7.82-1.39,18.3,7.39C68,36.29,60.09,38.17,57,37.44Z"/>
    <path d="M46,37.26c-3,5.66-7.12-.21-13.84,3C37.58,35.91,43.22,37.39,46,37.26Z"/>
  </g>
  <path class="hairBlack" d="M88.49,12.87C87.36,2.36,69.31-.63,58.81.46,42.94,2.11,40.06,11.67,33.61,10.94c-1.22-.14-1.45,2.67-.17,3.67-2,4.66-4,6.19-4.72,6.49-2.22,1-1.11,4.28,2.17,6.34.11,2.77.61,5.61,2.44,7.44a46.27,46.27,0,0,1,2.72-9,7.89,7.89,0,0,0,4.72-2.28,10.48,10.48,0,0,0,9.17-.55c5.11,4.83,16.22,4.11,20.6-1.5.39,5.66,4.56,9.38,10.34,12.55C79.65,40,86.61,45.05,82.8,54.56c-1.25,2.64,2.66,1.89,4.41-1.37-.8,3.3,3.44,3.3,4.69-1.91-.42,4.29,2.78,2.52,4-1.27,1.62.87,2.71,4.42,2.16,6.5,4.25-5.84,7.65-19.37,5.79-26.19,1.94-.35,2.75-3.58,1.83-3.88C98.53,24.11,98.44,11.47,88.49,12.87Z"/>
  <g class="hairFoldLine">
    <path d="M80.88,34.1a13.43,13.43,0,0,0,4.38,1.39"/>
    <path d="M36.05,25.88a8.3,8.3,0,0,1-4.52-.77"/>
    <path d="M40.77,23.6a5.25,5.25,0,0,1-2.33-1.55"/>
    <path d="M49.94,23.05a22.14,22.14,0,0,1-2.56-2.3"/>
  </g>
  <path class="catherineGlasses" d="M52,42c7.54-2.91,16.7-2.38,24.22.24,1,.34.9,4.47-.74,4.63-.79,4.27-2.31,9.5-4.39,10.73-4.4,2.61-13.91,1.21-15.74-1S52.18,51,51.42,46.18c-.13-.86-3-1-3.28-.19-1.69,4.55-3.41,7.9-5.41,9.75s-11.51,2.1-15.34-1c-1.8-1.45-2.49-6.7-2.62-10.93-1.52-.33-1-4.33,0-4.56,7.55-1.73,16.49-1.29,23.44,2.46A8.55,8.55,0,0,0,52,42Zm-24.8-.44c-1.35,1.51-1.1,9.38,1,11.89,1.89,2.29,10.85,3.08,13.68,1.08,2-1.41,5.86-8.71,4.29-11C43.19,39.25,29.07,39.44,27.22,41.51ZM53.75,44c-1.9,2,.86,9.79,2.65,11.44,2.55,2.36,11.79,2.74,14.08.68,2.54-2.28,4-10.23,2.84-11.91C71.73,41.86,57.38,40.05,53.75,44Z"/>
</svg>
