<svg viewBox="0 0 728.26 2174.44">
  <path class="catherineShorts" d="M606.52,1279.86c27.84,64.57,33.11,201.66-43.39,227.41-82.07,3.3-175.39,13.19-195.4,3s-27.27,10.6-58.32,0L110.22,1403.51c-18.18-6.82,3.79-106.79,21.21-125.73Z"/>
  <g class="soleWhite">
    <path d="M642.18,1941.57c58,37.86-27.1,170.15-96,130.73Z"/>
    <path d="M438.21,2111.69c0,25.93-14.28,54.17-38.16,58.89-43.56,8.62-96.2-2.64-121-28.07-15.9-16.25-13.81-51.07-2.57-67.22Z"/>
  </g>
  <g class="catherineShoe">
    <path d="M456.3,1817c30-10.5,51.72,5.22,81.7,19,23.6,10.82,40.61,29.81,53.82,56.81,10.23,20.9,34,30.35,50.36,48.81,16.54,18.63,3.05,62.86-9.47,69.76-7.41,4.1-46.86,24.46-51.31,61.13-33.12,12.48-54.93-7.81-78.75-50.77-47.85-86.28-83.47-46.74-97.66-118C396,1858.56,419.81,1829.78,456.3,1817Z"/>
    <path d="M401.14,1919.47c56.5,11,54.53,60.29,50.17,93.62-4.33,33.14-14.69,63.86-13.1,98.6,1.14,25-39.88,41.19-53.39,30.69-21.9-17-59.32-25.08-81.26-14.93-15.64,7.23-35.89-32.87-25.75-56,6.89-15.74,12.13-24,30.8-91.06C317.76,1947.52,334.5,1906.43,401.14,1919.47Z"/>
  </g>
  <g class="catherineShoeStripe">
    <path d="M505.28,2026.38h0c9.88-40.59,63-97.68,101.15-115.19-5.91-5.33-11.07-11.2-14.61-18.43-6.24-12.75-13.34-23.69-21.57-32.86-31.74,49.78-69.47,102.73-91.95,126.34h0q2.16,2.44,4.37,5.19h0c.43.53.86,1.08,1.29,1.63l.46.58c1.23,1.59,2.47,3.24,3.72,5,.28.38.55.77.83,1.16l1,1.37,1.14,1.65,1,1.53,1.4,2.12c.24.38.48.76.73,1.14l1.34,2.1c.19.32.39.63.59,1,.63,1,1.26,2,1.89,3.1l.49.82,1.54,2.62.57,1c.66,1.15,1.32,2.32,2,3.52l1.69,3C504.66,2025.27,505,2025.83,505.28,2026.38Z"/>
    <path d="M439.38,2082.54c2.37-20.57,7.38-40.3,10.66-60.74-23.7-14.32-112.94-34.73-144.63-30.06-8.11,28.56-13.41,44.82-17.5,55.81C332.91,2015.66,417.92,2042.78,439.38,2082.54Z"/>
  </g>
  <g class="shoelace">
    <path d="M522.08,1903.69c-25.91,17.94-42.35,46.35-42.35,60.3,12.77,8.64,29.62,31.5,46.74,55.32,6.58-17.44,20.53-37.88,45.95-57.81C556.3,1939.54,538,1917.26,522.08,1903.69Z"/>
    <path d="M400.82,2083.32c-16.06-10.5-63.95-22.59-86-17.11,7.61-26.29,14.93-54.4,19.84-75.2,18.84-3.69,68.49,9,81.67,19.69C411.89,2032.06,404.07,2056.41,400.82,2083.32Z"/>
  </g>
  <g class="sockWhite">
    <path d="M466.77,1818c25.41,9,33.92,28.2,40.36,55.32-36.37-8-66.77,42.85-58.8,62.79L391,1894.72Z"/>
    <path d="M453.48,1895.44c-19.87,11.06-83.39-5.73-96.33-24.74-4.47,5.35-6.24,39.3-13.91,65.56-4.15,14.17-3.09,23.5-1.9,30.49,24.22-17.56,67.74-1.36,82.72,19.3,5.31-11.19,8.31-17.91,12-30.89C444.16,1927.15,455.27,1901.48,453.48,1895.44Z"/>
  </g>
  <path class="catherineShirt" d="M254.56,624.3H462c64,33.27,174.79,44.22,190.9,95.14C677.8,798,704.38,833.3,705.68,861.92c-25,19.66-102.88,47.39-126.65,49.45.3,54.48-2,81.5-8.2,112.9,6.56,13.35,8.72,30.11,3.92,52.23,17.15,50.1,29.12,135.76,31.77,203.36l-475.09-2.08c-1.16-75.7,1.92-144.75,25.48-181.79-14-15.62-11.58-33.36,0-52.27-8.17-26.67-9.67-86.4-8.6-135.47-29.87-6.4-108.74-19.2-119.41-32,19.2-62.93,29-139.42,60.61-170.8C126,669.25,217.81,658.93,254.56,624.3Z"/>
  <g class="clothesOverlapLine">
    <path d="M146.89,830.3c-10,6.35,8.66,5.33,1.42,78"/>
    <path d="M570.54,824.3q9.13,38.06,8.49,87.07"/>
    <path d="M530.5,1911.4c-18,16.84-33.35,35.76-42.95,59.08"/>
    <path d="M539.22,1920.37c-18.82,18.81-34.38,38.26-43.24,59.06"/>
    <path d="M548.28,1930.63c-18.71,18.45-34.52,37.75-43.93,58.92"/>
    <path d="M557.25,1941.57c-19.51,18-35.78,37-45,58.24"/>
    <path d="M564.92,1951.46c-20.27,16.86-36.47,35.71-45.53,58"/>
    <path d="M507.13,1873.3c-.79,10.8,6.12,20.71,15,30.39"/>
    <path d="M448.33,1936.09c5.73,13.9,20.5,19.33,31.4,27.9"/>
    <path d="M403,2069.13a231.66,231.66,0,0,0-84-17.52"/>
    <path d="M405.42,2056.73a295.23,295.23,0,0,0-82.94-17.86"/>
    <path d="M408.14,2044.88a252.59,252.59,0,0,0-82.41-18.19"/>
    <path d="M411,2033.13c-29.14-12.05-55.35-18.19-82.27-18.17"/>
    <path d="M413.85,2021.69c-28-13.67-54.94-19.58-82.11-18.55"/>
    <path d="M424.06,1986.05c2.74,10.18-5.72,17.3-7.72,24.65"/>
    <path d="M341.34,1966.75c-3.57,4.22-5.79,18.35-6.67,24.26"/>
    <path d="M370.76,1495.15c-13.63-43.17-4.55-84.83,16.43-124.48"/>
    <path d="M343.69,1493.74c14.95-81.15-14.59-103.11-7-109.62"/>
  </g>
  <g class="clothesFoldLine">
    <path d="M68.05,792.37c-2.14,29.74,7.25,54,31.72,71.21"/>
    <path d="M129.09,742.7c1.31,30,5.76,56.74,14.36,79"/>
    <path d="M156.62,781.6c-1.31,20.06-4.32,36.73-9.73,48.7,6.14-1.43,13.35-4.31,22.89-13.4"/>
    <path d="M540.8,777.41c16.94,7.89,26.19,24.26,29.74,46.89,11-33.67,24-61.12,38.49-84"/>
    <path d="M585.69,754.07c-13.77,28.72-10.06,41.49-29.92,19.75"/>
    <path d="M193.12,825.28c-19.29,6.63-38.9,16.76-35.31,23.34"/>
    <path d="M525.84,810.92c14.73,8.1,25.65,18.5,32.92,31.12"/>
    <path d="M587.48,818.1c-3.66,11-8.3,17.9-13.76,21.44"/>
    <path d="M607.83,816.31c-11.27,15.32-22.15,26.17-32.62,32.31"/>
    <path d="M419.32,886.92c-45.32,10.81-88.14,14.52-127.46,8.38"/>
    <path d="M370.25,919.83c-32.39,2.76-62.6,4-84.37-.6"/>
    <path d="M205.69,975.49c6.15,36.28,10.07,72.3,9,107.71"/>
    <path d="M232.62,943.17c2,95.09,24.1,162.13,77.19,186.11"/>
    <path d="M156.91,1043.72q5.26,12.88,14.67,19.74"/>
    <path d="M156.91,1096c18,27.13,45.46,43.09,78.1,53"/>
    <path d="M487,916.84c-11.41,65.93-25.13,126-52.07,152.6"/>
    <path d="M492.93,1024.56c-17.35,74.2-58.11,137.22-117.29,150.8"/>
    <path d="M570.83,1024.27c-3.22,16.18-7.44,32-19.85,45.17"/>
    <path d="M574.75,1076.5c-17.86,42.73-45.59,77.86-87.8,101.85"/>
    <path d="M558.76,1153.82c-13.27,18.39-30.57,35.69-55.66,50.86"/>
    <path d="M368.49,1398.2c-18.94,31.06-22-28-31.81-14.08"/>
    <path d="M356.37,1488.33c-1.37,9.32-3.73,17.68-11.11,21.27"/>
  </g>
  <g class="book">
    <path class="paperStackDark" d="M591.57,1379.43c-70.33-44.79-159.44-53.79-210.52-3.12-22.81-19.09-45.28-17.63-67.47,0-54.72-61.92-147-47.52-218.64-6.54C163.91,1189.9,556.82,1215.73,591.57,1379.43Z"/>
    <path class="paperStackLight" d="M537.93,1230.12a153.63,153.63,0,0,1,39.27,33c3.36,33.08,10.42,73.07,14.37,116.31a686.94,686.94,0,0,0-43.92-60.23c-131.66-78.44-270.89-81.09-407.93-.7a514.13,514.13,0,0,0-44.78,51.27c4-43.45,13-79.21,21.37-112.77,10.14-9.8,21.38-20.38,36.46-31.49C283.34,1256,410.35,1256.66,537.93,1230.12Z"/>
    <path class="bookPageLight" d="M346.26,1245.41c35.18-55.79,114.62-46.39,191.67-15.29,2.33,28.94,6.72,58.67,9.72,89.08-84-32.72-168.09-40.29-202.39,25-36.3-61.64-132.13-60.52-205.54-25.75,3.7-33.31,10.58-64.18,13.05-93C217.38,1200.9,303,1191.53,346.26,1245.41Z"/>
    <line class="paperCreaseLine" x1="346.26" y1="1245.41" x2="345.26" y2="1344.25"/>
  </g>
  <g class="eye">
    <rect class="sclera" x="223.35" y="294.84" width="283.13" height="71.94"/>
    <g class="irisBrown">
      <ellipse cx="433.94" cy="323.38" rx="20.51" ry="21.7"/>
      <ellipse cx="270.79" cy="322.38" rx="17.77" ry="21.7"/>
    </g>
    <g class="pupil">
      <ellipse cx="431.98" cy="322.89" rx="7.97" ry="8.44"/>
      <ellipse cx="267.63" cy="321.89" rx="6.91" ry="8.44"/>
    </g>
  </g>
  <g class="skinHapa">
    <path d="M466.47,496.42c-21,48.16-24.69,114.06-4.44,127.88-15,53.53-181.38,59.93-207.47,0,15.6-16.29,20.54-66.85-9.09-136"/>
    <path d="M159.32,1161.51c-14.91-23.26-20.46-50.07-31.84-64.73,0-29.2,12.63-79,21.31-120.13-.92-22.32-1-46.43-.48-68.4C124.49,903.14,69.5,894,42.8,884c-16.22,62.9-26.68,134.23-36.09,169-30,138.41,67.15,158.09,90,167.7.71,21.3,5.65,36.93,14.05,53.57,4.64,14.28,26.63,13.38,33.33,1.59,3.06,9,29.51,11.63,34.27-3.18,3.18,11.11,23.44,9.31,33.92.59,14.81,5.82,29.57,1.53,34.86-9.58,29.1,22.22,54.49,3.17,42.85-14.29-13.22-10.58-23.12-24-34.91-22.75.53-11.11-3-28.39-9.53-37.56-11.64-16.4-21.79-28.57-37-28.57C187.36,1160.45,181,1141.4,159.32,1161.51Z"/>
    <path d="M537.93,1230.12c15.18,8.75,28,20.05,39.27,33l10.21,78.82c9.58-3.61,19-11.86,27.33-18.82,9.78-8.2,27.39-15.22,26.1-28.29,1.79-21.92-6.19-57.16,1.79-61,52.68-27.61,96.55-90.79,81.71-149.1C713,1040,704.87,958.13,690.81,871.42c-32.77,18.07-91.66,38.21-111.78,40,.11,19.81-.13,36-.78,50,7.13,55.11,19,104.55,22.33,147.81-13.9,23.09-9.13,42.16-13.3,56.47-23.65,21.6-47.37,21-71.85,35.06-29.53,16.94-40.39,33-52.55,43.86.47,15.26,30.4,21.28,50.81-5.65,6.08-2.6,15.44-3.38,24.24-8.85"/>
    <path d="M591.57,1379.43c-60.51-38.54-134.94-50.58-187.07-20.91-23.32,46.52-10.72,88.52-21.78,133.76-22.12,90.47-7.2,261-24.37,380,14.91,17.94,73.16,33.22,93.79,23.83,37.67-134.1,90-240.95,103.15-372.54C594.51,1481,603.92,1432,591.57,1379.43Z"/>
    <path d="M317.59,1373.31c-1.34.94-2.67,1.94-4,3-46.76-52.92-121-50.09-186.28-22.57-.33.43-.67.84-1,1.28-48.42,64.86-6.13,124.78,23.26,184.7,24.66,50.26,128.09,197.12,212,306.1,6.62-64.54,6.11-140.16,7.8-209.08-14.18-36.84-19.62-92.14-47.24-139.41C341.19,1464,341.3,1413.8,317.59,1373.31Z"/>
    <path d="M556.8,310.23c21.19,2,32.42,50.24,9.59,102.92-7.51,17.34-9.56,40.87-36.8,37.57C489.71,555.34,430.51,568.33,406.82,586c-27.38,20.38-87.62,20.71-113.81-1.2-38.61-32.31-85.95-58.59-104.8-131.53C164.58,448,164.76,435.76,154,407.08c-18.67-49.77-5-84.5,4.74-89C153.92-16.6,552-24.45,556.8,310.23ZM415.72,341.39a80.38,80.38,0,0,0,32.73,7.46c18.91.35,28.81-7.29,38.46-15.1-11-8-17.58-16.33-34.25-17.18-20.7-1.06-35.11,6.07-43.91,20.18C405.4,342.12,413.07,340.15,415.72,341.39Zm-96.92-6.05c-25.94-29.58-62.68-10.69-73.37,1.14,15.55,1.18,19.42,2.9,35.59,3.35,9.11.26,18.9-1.05,30.21-2.23C314.13,337.29,323.41,340.6,318.8,335.34Z"/>
  </g>
  <g class="skinOverlapLine">
    <path d="M159.32,1161.51c-15.35,14.28-25.4-5.29-40.8,26.63-5.11,10.59-22.16,8.82-21.81,32.49"/>
    <path d="M255.08,1226.58c.62,15.32-.68,20.54-7.94,37"/>
    <path d="M201.89,1182.89c14,23.27,15.19,29.68,16.37,47.62,1.23,18.57-1.4,33.23-6,42.69"/>
    <path d="M162.74,1193.33c11.09,22.19,20.86,58.36,15.62,79.28"/>
    <path d="M127.48,1212.54c.32,20.88,13.7,53.83,16.61,63.25"/>
    <path d="M622.89,1291.58c-10.31,9.12-26.87,25.32-38,31.44"/>
    <path d="M322.15,1497.33c-11.22-19.16-30-44.31-46.75-59.4"/>
    <path d="M555.29,1523.57c2.82-18.57,2.85-36.68,1.66-59.65"/>
    <path d="M545.87,358.47c-4.74,24.19-6.11,58.95-16.28,92.25"/>
    <path d="M179.37,357.9c3.31,28.05,1.88,48.4,8.84,95.34"/>
  </g>
  <g class="skinFoldLine">
    <path d="M600.58,1109.23c11.6-19,59-40.49,80.52-31.88"/>
    <path d="M127.48,1096.78c-20.14-22.87-54.6-34.07-79.58-28"/>
    <path d="M587.28,1165.7A59.65,59.65,0,0,0,603.14,1146"/>
    <path d="M560.15,339.73c7,7.84,11.63,25.35-.82,58.79"/>
    <path d="M539,406.38c8.87,5.37,8.06-15.09,12.48-19.67,9.55-9.88,4.38-31.7-1.1-31.4"/>
    <path d="M158.07,342.08c-4.75,7.07-5.74,34.2,3.51,55.18"/>
    <path d="M183.3,410.77c-8.78-2.59-7.13-24.67-10.26-28.4-8.75-10.39-5.49-26.05-.7-30.84"/>
  </g>
  <g class="skinEdgeLine">
    <path d="M244.79,1248.92a43.57,43.57,0,0,1-20.19,2.56"/>
    <path d="M240.28,1192.25a62.72,62.72,0,0,0-22.44,2.6"/>
    <path d="M210.68,1255.35c-8.77,3-16.92,4.79-23.42,3.25"/>
    <path d="M201.58,1193.22c-8.33-1.07-20.5.65-26.35,5.21"/>
    <path d="M163.24,1214.44c-7.8-1-21.79,4.23-27,8.13"/>
    <path d="M122.88,1229.68c-6.5.32-15.61,3.25-18.86,6.18"/>
  </g>
  <path class="lipFemaleMedium__noStroke" d="M299.17,499.47c7.22,45.54,71.28,52.87,94.43,18.08,8.45-12.69,6.44-24.87,13.12-31.49a29.79,29.79,0,0,1-5.35-.63c-41.16,17.43-71.2,10.46-101.79-20.57,1.67,14.67-2,24.63-.41,34.61"/>
  <path class="lipEdgeLine" d="M299.17,499.47c7.22,45.54,71.28,52.87,94.43,18.08"/>
  <path class="lipFemaleMedium" d="M299.58,464.86c61.61,48.13,62,19.23,111.79,20.81-22.52-2.54-23.78-12.23-49.78-8.47-6.87,1-12.39-.49-21.21-3.85C327,468.26,309.48,469.07,299.58,464.86Z"/>
  <g class="lipOverlapLine">
    <path d="M401.37,485.43a24.56,24.56,0,0,0,20-4"/>
    <path d="M299.58,464.86a18.38,18.38,0,0,0-11.05-2.7"/>
  </g>
  <path class="mouthInner" d="M299.58,464.86c13.44,19.73,15.28,41.28,44,46.65,22.72,4.24,33.57-11,57.77-26.08-17.33-3.83-26.18-5.55-43,1.41-7.61,3.15-14.3-4.29-24.16-8.37C322.41,473.58,313.72,473.13,299.58,464.86Z"/>
  <path class="teeth" d="M358.36,486.84c-7.61,3.15-14.3-4.29-24.16-8.37-11.79-4.89-20.48-5.34-34.62-13.61,5.7,8.37,9.54,17.07,13.7,24.72C332.69,502,356.72,508,378,501.56c6.61-4.68,14.27-10.41,23.42-16.13C384,481.6,375.19,479.88,358.36,486.84Z"/>
  <g class="cheekLine">
    <path d="M396.09,417.1c12,4.25,35.78,35.33,40.44,54.08"/>
    <path d="M323.47,415.09c-9.1,4.26-12.25,17.07-27.28,24.91C278.43,449.27,272.53,458.05,271,472"/>
  </g>
  <g class="noseLine">
    <path d="M396.09,417.1c10,4.25,13.52,20.86,1.93,30.52"/>
    <path d="M323.47,415.09c-8.77,6.39-11.69,22.13-1.63,30.39"/>
    <path d="M328.28,440.61c13.35.83,26.1,24.39,60.09,4.3"/>
  </g>
  <g class="eyeFoldLine">
    <path d="M469.74,361.75C457,372.18,435,367.93,424.17,361"/>
    <path d="M303.66,356.07c-16.58,11.17-43.65,8.11-54.46-.39"/>
  </g>
  <g class="eyeCornerLine">
    <path d="M245.43,336.48a29.08,29.08,0,0,1-15.77,2.27"/>
    <path d="M501.56,336.53a36.37,36.37,0,0,1-14.65-2.78"/>
  </g>
  <g class="eyeCreaseLine">
    <path d="M411.81,322.74c25.49-27.43,56-18.54,71.45-1.93"/>
    <path d="M241.86,325.94c19.7-27,57.55-21.63,74.16-1.93"/>
  </g>
  <g class="eyebrowDarkBrown">
    <path d="M335.51,270c-27.16,33-47.32-26.29-120.33,25.7C245,262.39,309.52,252.75,335.51,270Z"/>
    <path d="M397.57,262.91c15.34,36.28,64.27-17.17,116.58,32.55C488.24,259.19,418.46,251,397.57,262.91Z"/>
  </g>
  <path class="hairBlack" d="M541.54,351.87c6.42-83.09-13.4-68.4-15.7-127.16-26.75-12.83-37.85-37.64-40.15-69.31-37.42,43.78-83.3,52.79-136.55,20.65-26.71,14.95-55.51,14.58-86.3-.45-12,16.62-32.55,23.79-62.89,20.19,5.05,70.7-19.89,90.44-15.3,154.7.27,16.06-14.23,5.05-19.74-15.15-17,43.16-39.78-126.69-26.47-141.38-11.86-1.38-18-23.08-10.56-27.55,27.54-16.52,23.41-30.75,49.12-60.59-9.66-4.19-20.92-28.33-9.64-31.67C216.94,59.46,244,7.13,326.65,2.08,395.72-2.15,484.1,3,513,74.61,552.5,58.08,557.3,109,595.86,116.84c6.16,1.24,5.91,25-9.36,32.29,32.78,105.88-22,228-23.88,181.13C559.87,350.46,540.16,369.31,541.54,351.87Z"/>
  <g class="hairFoldLine">
    <path d="M200,195.79a67.45,67.45,0,0,1-22.1-4.92"/>
    <path d="M262.84,175.6a44,44,0,0,1-13.2-7.89"/>
    <path d="M349.14,176.05a79.6,79.6,0,0,1-12.66-7.57"/>
    <path d="M525.84,224.71a70.65,70.65,0,0,0,20,7.07"/>
  </g>
  <path class="catherineGlasses" d="M377,303.13c54.83-21.15,122.89-20.23,179.44-5.27,7.37,1.95,8.65,28.77-3.22,30.24-3.76,27.95-12.45,62.41-27.13,71.09-31.23,18.45-102.41,12.48-117.1-1.41-13.88-13.12-26.5-35.51-34.45-66.68-1.44-5.64-23-5.45-24.75-.3-10.46,30.43-21.86,53.05-36.05,65.84-15,13.53-86.32,17.79-117.1-1.41-14.47-9-22.33-43.69-25.42-71.72-11.83-1.75-9.9-28.53-2.49-30.31C225.67,279.6,293.85,280,348,302.79,353.13,304.92,372.42,304.91,377,303.13ZM188.9,307.38c-9.56,10.38-3.84,62.57,13.35,78.61,15.56,14.52,84.12,16.75,104.56,2.66,14.4-9.92,39.94-59.18,27-73.51C309.29,287.86,202.06,293.11,188.9,307.38Zm202,8.45c-13.24,14,11.11,63.87,25.26,74.13,20.1,14.58,88.69,14,104.6-.14,17.57-15.63,24.54-67.67,15.23-78.27C523.21,297,416.13,289.15,390.93,315.83Z"/>
</svg>
