<svg viewBox="0 0 112.37 335.13">
  <path class="catherineShorts" d="M93.52,197.24c4.29,9.95,5.1,31.06-6.68,35-12.64.51-27,2-30.1.47s-4.2,1.63-9,0L17.07,216.29c-2.8-1,.59-16.45,3.27-19.37Z"/>
  <g class="soleWhite">
    <path d="M99,299.17c8.94,5.83-4.17,26.21-14.79,20.14Z"/>
    <path d="M67.6,325.37c0,4-2.2,8.35-5.88,9.07-6.71,1.33-14.82-.4-18.65-4.32-2.45-2.5-2.12-7.87-.39-10.35Z"/>
  </g>
  <g class="catherineShoe">
    <path d="M70.38,280c4.62-1.62,8,.8,12.59,2.92,3.63,1.67,6.25,4.59,8.29,8.75,1.57,3.22,5.23,4.67,7.75,7.52s.47,9.68-1.45,10.74c-1.15.63-7.22,3.77-7.91,9.42-5.1,1.92-8.46-1.2-12.13-7.82-7.37-13.29-12.85-7.2-15-18.18C61.09,286.38,64.76,282,70.38,280Z"/>
    <path d="M61.89,295.76c8.7,1.71,8.39,9.29,7.72,14.42s-2.26,9.84-2,15.19c.17,3.85-6.15,6.35-8.23,4.73-3.37-2.62-9.14-3.86-12.52-2.3-2.4,1.11-5.52-5.06-4-8.63,1.06-2.42,1.87-3.7,4.74-14C49,300.08,51.62,293.75,61.89,295.76Z"/>
  </g>
  <g class="catherineShoeStripe">
    <path d="M77.93,312.23h0c1.52-6.25,9.7-15,15.58-17.74a9.4,9.4,0,0,1-2.25-2.84,22,22,0,0,0-3.32-5.06c-4.89,7.66-10.71,15.82-14.17,19.46h0c.22.25.45.52.67.8h0c.06.08.13.16.19.25l.07.09.58.76.13.18.14.21.18.26.16.24.21.32.12.18c.07.1.13.21.2.32l.09.15c.1.15.2.31.29.47l.08.13.24.4.09.16q.15.25.3.54c.09.16.18.31.26.47Z"/>
    <path d="M67.78,320.88c.36-3.17,1.13-6.21,1.64-9.35-3.65-2.21-17.4-5.35-22.28-4.63-1.25,4.4-2.07,6.9-2.7,8.59C51.38,310.58,64.47,314.76,67.78,320.88Z"/>
  </g>
  <g class="shoelace">
    <path d="M80.52,293.33c-4,2.77-6.53,7.14-6.53,9.29,2,1.33,4.56,4.85,7.2,8.52a21.17,21.17,0,0,1,7.08-8.9A56.41,56.41,0,0,0,80.52,293.33Z"/>
    <path d="M61.84,321c-2.48-1.62-9.85-3.48-13.25-2.63,1.17-4.05,2.3-8.38,3.06-11.59,2.9-.57,10.55,1.39,12.58,3C63.54,313.11,62.34,316.86,61.84,321Z"/>
  </g>
  <g class="sockWhite">
    <path d="M72,280.13c3.91,1.38,5.22,4.34,6.21,8.52-5.6-1.23-10.28,6.6-9,9.67L60.33,292Z"/>
    <path d="M70,292.06c-3.06,1.71-12.85-.88-14.84-3.81-.69.83-1,6.06-2.14,10.1a9.54,9.54,0,0,0-.29,4.7c3.72-2.71,10.43-.21,12.74,3a26.78,26.78,0,0,0,1.85-4.76C68.51,297,70.22,293,70,292.06Z"/>
  </g>
  <path class="catherineShirt" d="M39.31,96.26h32c9.85,5.12,26.92,6.81,29.4,14.66,3.83,12.1,7.93,17.53,8.13,21.94-3.86,3-15.85,7.3-19.51,7.62,0,8.39-.32,12.55-1.27,17.39a11.91,11.91,0,0,1,.61,8c2.64,7.71,4.48,20.91,4.89,31.32l-73.18-.32c-.18-11.66.3-22.3,3.93-28-2.16-2.41-1.79-5.14,0-8C23,156.76,22.78,147.56,22.94,140c-4.6-1-16.75-3-18.39-4.93,3-9.7,4.46-21.48,9.33-26.31C19.5,103.18,33.65,101.59,39.31,96.26Z"/>
  <g class="clothesOverlapLine">
    <path d="M22.72,128c-1.54,1,1.34.82.22,12"/>
    <path d="M88,127.07a54.84,54.84,0,0,1,1.31,13.41"/>
    <path d="M81.81,294.52a25.9,25.9,0,0,0-6.61,9.1"/>
    <path d="M83.15,295.9A30.19,30.19,0,0,0,76.5,305"/>
    <path d="M84.55,297.48a31,31,0,0,0-6.77,9.08"/>
    <path d="M85.93,299.17a27.57,27.57,0,0,0-6.93,9"/>
    <path d="M87.11,300.69a23.32,23.32,0,0,0-7,8.94"/>
    <path d="M78.21,288.65c-.12,1.67,1,3.19,2.31,4.68"/>
    <path d="M69.16,298.32c.88,2.14,3.15,3,4.83,4.3"/>
    <path d="M62.17,318.82a35.67,35.67,0,0,0-12.94-2.7"/>
    <path d="M62.54,316.91a45,45,0,0,0-12.77-2.75"/>
    <path d="M63,315.08a39,39,0,0,0-12.69-2.8"/>
    <path d="M63.41,313.27a32.51,32.51,0,0,0-12.67-2.8"/>
    <path d="M63.84,311.51a26,26,0,0,0-12.64-2.86"/>
    <path d="M65.42,306c.42,1.57-.88,2.66-1.19,3.8"/>
    <path d="M52.68,303.05c-.56.65-.9,2.82-1,3.73"/>
    <path d="M57.21,230.4c-2.1-6.65-.7-13.06,2.53-19.17"/>
    <path d="M53,230.19c2.3-12.5-2.25-15.89-1.08-16.89"/>
  </g>
  <g class="clothesFoldLine">
    <path d="M10.58,122.15c-.33,4.58,1.12,8.32,4.88,11"/>
    <path d="M20,114.5a38.85,38.85,0,0,0,2.21,12.17"/>
    <path d="M24.22,120.49a22.25,22.25,0,0,1-1.5,7.5,7.24,7.24,0,0,0,3.53-2.06"/>
    <path d="M83.4,119.84c2.61,1.22,4,3.74,4.58,7.23a56.45,56.45,0,0,1,5.93-12.94"/>
    <path d="M90.31,116.25c-2.12,4.42-1.55,6.39-4.61,3"/>
    <path d="M29.84,127.22c-3,1-6,2.58-5.44,3.59"/>
    <path d="M81.09,125a12.65,12.65,0,0,1,5.07,4.79"/>
    <path d="M90.59,126.11a6,6,0,0,1-2.12,3.31"/>
    <path d="M93.72,125.84a17.93,17.93,0,0,1-5,5"/>
    <path d="M64.69,136.71c-7,1.67-13.58,2.24-19.64,1.29"/>
    <path d="M57.13,141.78c-5,.43-9.65.62-13-.09"/>
    <path d="M31.78,150.36A83.71,83.71,0,0,1,33.16,167"/>
    <path d="M35.93,145.38c.3,14.65,3.71,25,11.89,28.67"/>
    <path d="M24.27,160.87a6.92,6.92,0,0,0,2.25,3"/>
    <path d="M24.27,168.92c2.76,4.18,7,6.63,12,8.17"/>
    <path d="M75.1,141.32c-1.75,10.16-3.87,19.42-8,23.51"/>
    <path d="M76,157.91c-2.68,11.43-9,21.14-18.07,23.23"/>
    <path d="M88,157.87c-.49,2.49-1.14,4.94-3,7"/>
    <path d="M88.63,165.92A31.08,31.08,0,0,1,75.1,181.6"/>
    <path d="M86.16,177.83a28.32,28.32,0,0,1-8.57,7.83"/>
    <path d="M56.86,215.47c-2.92,4.78-3.39-4.32-4.9-2.17"/>
    <path d="M55,229.35c-.21,1.44-.58,2.73-1.71,3.28"/>
  </g>
  <g class="book">
    <path class="paperStackDark" d="M91.22,212.58c-10.83-6.9-24.56-8.29-32.43-.48-3.51-2.94-7-2.72-10.39,0-8.43-9.54-22.65-7.32-33.68-1C25.34,183.38,85.87,187.36,91.22,212.58Z"/>
    <path class="paperStackLight" d="M83,189.58A23.72,23.72,0,0,1,89,194.66c.51,5.1,1.6,11.26,2.21,17.92a107,107,0,0,0-6.77-9.28c-20.28-12.08-41.72-12.49-62.83-.11a78.67,78.67,0,0,0-6.9,7.9A111.66,111.66,0,0,1,18,193.72a53,53,0,0,1,5.62-4.85A135.39,135.39,0,0,0,83,189.58Z"/>
    <path class="bookPageLight" d="M53.43,191.93c5.42-8.59,17.66-7.14,29.53-2.35.36,4.46,1,9,1.49,13.72-12.94-5-25.89-6.21-31.17,3.86-5.59-9.5-20.35-9.32-31.66-4,.57-5.13,1.63-9.88,2-14.32C33.58,185.08,46.76,183.63,53.43,191.93Z"/>
    <line class="paperCreaseLine" x1="53.43" y1="191.93" x2="53.28" y2="207.16"/>
  </g>
  <g class="eye">
    <rect class="sclera" x="34.5" y="45.51" width="43.61" height="11.08"/>
    <g class="irisBrown">
      <ellipse cx="66.94" cy="49.91" rx="3.16" ry="3.34"/>
      <ellipse cx="41.81" cy="49.75" rx="2.74" ry="3.34"/>
    </g>
    <g class="pupil">
      <ellipse cx="66.64" cy="49.83" rx="1.23" ry="1.3"/>
      <ellipse cx="41.32" cy="49.68" rx="1.06" ry="1.3"/>
    </g>
  </g>
  <g class="skinLatino">
    <path d="M72,76.56c-3.23,7.42-3.8,17.57-.68,19.7-2.31,8.25-27.94,9.23-32,0,2.4-2.51,3.16-10.3-1.4-21"/>
    <path d="M24.64,179c-2.3-3.58-3.16-7.71-4.91-10,0-4.5,1.95-12.17,3.28-18.5-.14-3.44-.14-7.16-.07-10.54-3.67-.79-12.14-2.2-16.25-3.74-2.5,9.69-4.11,20.68-5.56,26C-3.5,183.61,11.47,186.64,15,188.12a18.41,18.41,0,0,0,2.17,8.25c.71,2.2,4.1,2.06,5.13.24.47,1.39,4.55,1.8,5.28-.49.49,1.72,3.61,1.44,5.22.09,2.29.9,4.56.24,5.37-1.47,4.49,3.42,8.4.49,6.61-2.2-2-1.63-3.57-3.7-5.38-3.51a10.79,10.79,0,0,0-1.47-5.78c-1.79-2.53-3.36-4.4-5.7-4.4C29,178.85,28,175.91,24.64,179Z"/>
    <path d="M83,189.58A24.09,24.09,0,0,1,89,194.66l1.57,12.14a16.1,16.1,0,0,0,4.21-2.9c1.5-1.26,4.22-2.34,4-4.35.27-3.38-1-8.81.27-9.4,8.12-4.25,14.88-14,12.59-23-1.75-6.89-3-19.51-5.16-32.86-5.05,2.78-14.12,5.88-17.22,6.15,0,3.05,0,5.54-.12,7.71,1.1,8.49,2.92,16.1,3.44,22.77-2.14,3.55-1.41,6.49-2,8.7-3.65,3.32-7.3,3.23-11.07,5.4-4.55,2.61-6.22,5.08-8.09,6.75.07,2.35,4.68,3.28,7.82-.87A19.4,19.4,0,0,0,83,189.58"/>
    <path d="M91.22,212.58c-9.32-5.94-20.79-7.79-28.82-3.22-3.59,7.16-1.65,13.63-3.35,20.6-3.41,13.94-1.11,40.21-3.76,58.53,2.3,2.77,11.27,5.12,14.45,3.68,5.8-20.66,13.86-37.12,15.89-57.39C91.67,228.23,93.12,220.68,91.22,212.58Z"/>
    <path d="M49,211.63c-.21.15-.42.3-.62.47-7.2-8.15-18.64-7.72-28.69-3.48l-.16.2c-7.46,10-.94,19.22,3.58,28.45,3.8,7.74,19.74,30.36,32.66,47.15,1-9.94.94-21.59,1.2-32.21-2.18-5.67-3-14.19-7.27-21.47C52.65,225.61,52.67,217.87,49,211.63Z"/>
    <path d="M85.86,47.88c3.27.31,5,7.74,1.48,15.86-1.16,2.67-1.47,6.29-5.67,5.78C75.53,85.64,66.41,87.64,62.76,90.36c-4.22,3.14-13.5,3.19-17.53-.19-5.95-5-13.24-9-16.14-20.26-3.64-.8-3.62-2.69-5.27-7.11-2.88-7.67-.77-13,.73-13.71C23.8-2.46,85.12-3.67,85.86,47.88Zm-21.73,4.8a12.45,12.45,0,0,0,5,1.15A8.22,8.22,0,0,0,75.1,51.5c-1.7-1.22-2.71-2.51-5.28-2.64-3.19-.16-5.41.93-6.76,3.11C62.54,52.79,63.72,52.49,64.13,52.68ZM49.2,51.75c-4-4.56-9.65-1.65-11.3.18,2.4.18,3,.44,5.48.51A37.3,37.3,0,0,0,48,52.1C48.48,52.05,49.91,52.56,49.2,51.75Z"/>
  </g>
  <g class="skinOverlapLine">
    <path d="M24.64,179c-2.37,2.2-3.92-.81-6.29,4.1-.79,1.63-3.41,1.36-3.36,5"/>
    <path d="M39.39,189a10.12,10.12,0,0,1-1.23,5.71"/>
    <path d="M31.19,182.3c2.16,3.59,2.34,4.58,2.53,7.34a13.53,13.53,0,0,1-.93,6.57"/>
    <path d="M25.16,183.91c1.71,3.42,3.22,9,2.41,12.21"/>
    <path d="M19.73,186.87c.05,3.22,2.11,8.29,2.56,9.74"/>
    <path d="M96,199.05c-1.58,1.4-4.14,3.9-5.84,4.84"/>
    <path d="M49.72,230.74a42.93,42.93,0,0,0-7.2-9.15"/>
    <path d="M85.63,234.78a44.08,44.08,0,0,0,.26-9.19"/>
    <path d="M84.18,55.31c-.73,3.73-.94,9.08-2.51,14.21"/>
    <path d="M27.73,55.23c.5,4.32.29,7.45,1.36,14.68"/>
  </g>
  <g class="skinFoldLine">
    <path d="M92.61,171c1.78-2.92,9.08-6.24,12.4-4.91"/>
    <path d="M19.73,169c-3.1-3.52-8.41-5.25-12.26-4.32"/>
    <path d="M90.56,179.66a9.33,9.33,0,0,0,2.44-3"/>
    <path d="M86.38,52.43c1.08,1.2,1.79,3.9-.13,9"/>
    <path d="M83.12,62.69c1.37.83,1.25-2.32,1.93-3,1.47-1.52.67-4.88-.17-4.83"/>
    <path d="M24.44,52.79c-.73,1.09-.88,5.27.55,8.5"/>
    <path d="M28.33,63.37C27,63,27.23,59.57,26.75,59a4,4,0,0,1-.11-4.76"/>
  </g>
  <g class="skinEdgeLine">
    <path d="M37.8,192.47a6.75,6.75,0,0,1-3.11.4"/>
    <path d="M37.11,183.74a9.86,9.86,0,0,0-3.46.41"/>
    <path d="M32.55,193.47a7,7,0,0,1-3.61.5"/>
    <path d="M31.15,183.9a6.31,6.31,0,0,0-4.06.8"/>
    <path d="M25.24,187.16a7.62,7.62,0,0,0-4.16,1.26"/>
    <path d="M19,189.51a5.85,5.85,0,0,0-2.9,1"/>
  </g>
  <path class="lipFemaleMedium__noStroke" d="M46.18,77c1.11,7,11,8.15,14.55,2.79,1.3-2,1-3.83,2-4.85a5.19,5.19,0,0,1-.83-.1c-6.34,2.68-11,1.61-15.68-3.17.26,2.26-.3,3.79-.06,5.33"/>
  <path class="lipEdgeLine" d="M46.18,77c1.11,7,11,8.15,14.55,2.79"/>
  <path class="lipFemaleMedium" d="M46.24,71.7c9.49,7.41,9.55,3,17.22,3.21C60,74.52,59.8,73,55.79,73.6A6,6,0,0,1,52.53,73C50.47,72.22,47.77,72.35,46.24,71.7Z"/>
  <g class="lipOverlapLine">
    <path d="M61.92,74.87A3.76,3.76,0,0,0,65,74.25"/>
    <path d="M46.24,71.7a2.82,2.82,0,0,0-1.7-.41"/>
  </g>
  <path class="mouthInner" d="M46.24,71.7c2.07,3,2.36,6.36,6.78,7.19,3.5.65,5.17-1.69,8.9-4-2.67-.59-4-.86-6.62.22-1.18.48-2.21-.66-3.72-1.29C49.76,73,48.42,73,46.24,71.7Z"/>
  <path class="teeth" d="M55.3,75.09c-1.18.48-2.21-.66-3.72-1.29-1.82-.76-3.16-.83-5.34-2.1a40.33,40.33,0,0,1,2.11,3.81c3,1.91,6.69,2.84,10,1.84,1-.72,2.2-1.6,3.61-2.48C59.25,74.28,57.89,74,55.3,75.09Z"/>
  <g class="cheekLine">
    <path d="M61.11,64.34c1.84.66,5.51,5.45,6.23,8.33"/>
    <path d="M49.92,64c-1.4.66-1.89,2.63-4.2,3.84-2.74,1.43-3.64,2.78-3.88,4.92"/>
  </g>
  <g class="noseLine">
    <path d="M61.11,64.34a2.82,2.82,0,0,1,.3,4.71"/>
    <path d="M49.92,64a3.07,3.07,0,0,0-.25,4.69"/>
    <path d="M50.66,68c2.06.12,4,3.75,9.26.66"/>
  </g>
  <g class="eyeFoldLine">
    <path d="M72.45,55.82c-2,1.6-5.35,1-7-.12"/>
    <path d="M46.87,54.94c-2.55,1.72-6.72,1.25-8.39-.06"/>
  </g>
  <g class="eyeCornerLine">
    <path d="M37.9,51.93a4.57,4.57,0,0,1-2.43.35"/>
    <path d="M77.35,51.93a5.47,5.47,0,0,1-2.25-.43"/>
  </g>
  <g class="eyeCreaseLine">
    <path d="M63.53,49.81c3.93-4.23,8.63-2.86,11-.3"/>
    <path d="M37.35,50.3c3-4.16,8.87-3.33,11.42-.3"/>
  </g>
  <g class="eyebrowDarkBrown">
    <path d="M51.78,41.68c-4.19,5.09-7.29-4-18.54,4C37.83,40.51,47.77,39,51.78,41.68Z"/>
    <path d="M61.34,40.59c2.36,5.59,9.9-2.64,18,5C75.3,40,64.55,38.76,61.34,40.59Z"/>
  </g>
  <path class="hairBlack" d="M83.51,54.3c1-12.8-2.06-10.54-2.42-19.59-4.12-2-5.83-5.8-6.18-10.68-5.76,6.75-12.83,8.13-21,3.18-4.12,2.31-8.55,2.25-13.3-.07-1.84,2.56-5,3.67-9.68,3.12.77,10.88-3.07,13.93-2.36,23.82,0,2.48-2.19.78-3-2.33C22.88,58.4,19.37,32.24,21.42,30c-1.83-.21-2.77-3.55-1.63-4.24C24,23.18,23.4,21,27.36,16.4c-1.49-.65-3.22-4.37-1.48-4.88C33.51,9.25,37.68,1.19,50.41.42,61.05-.23,74.67.56,79.12,11.59c6.08-2.55,6.82,5.3,12.76,6.5,1,.19.91,3.85-1.44,5,5,16.31-3.4,35.11-3.68,27.9C86.34,54.08,83.3,57,83.51,54.3Z"/>
  <g class="hairFoldLine">
    <path d="M30.9,30.26a10.51,10.51,0,0,1-3.41-.76"/>
    <path d="M40.58,27.14a6.7,6.7,0,0,1-2-1.21"/>
    <path d="M53.88,27.21a11.82,11.82,0,0,1-2-1.16"/>
    <path d="M81.09,34.71a11,11,0,0,0,3.09,1.09"/>
  </g>
  <path class="catherineGlasses" d="M58.17,46.79c8.45-3.26,18.93-3.12,27.64-.81,1.14.3,1.34,4.43-.49,4.66-.58,4.3-1.92,9.61-4.18,11-4.81,2.84-15.78,1.92-18-.22S59,55.9,57.79,51.1c-.22-.87-3.54-.84-3.81-.05-1.61,4.69-3.36,8.17-5.55,10.14s-13.3,2.74-18-.21c-2.23-1.39-3.44-6.73-3.91-11-1.83-.27-1.53-4.4-.39-4.67,8.77-2.1,19.27-2,27.62,1.48A11.18,11.18,0,0,0,58.17,46.79Zm-29,.65c-1.47,1.6-.59,9.64,2.06,12.11,2.4,2.24,13,2.58,16.11.41,2.21-1.53,6.15-9.11,4.16-11.32C47.74,44.44,31.22,45.25,29.19,47.44Zm31.12,1.3c-2,2.16,1.71,9.84,3.89,11.42,3.1,2.25,13.67,2.16,16.12,0,2.7-2.4,3.78-10.42,2.34-12C80.69,45.84,64.2,44.63,60.31,48.74Z"/>
</svg>
