<svg viewBox="0 0 276.25 283.6">
    <g class="globe">
        <path d="M189.38,1a85.86,85.86,0,0,1,85.87,85.87c0,47.42-38.44,77.37-85.87,77.37s-85.86-30-85.86-77.37A85.86,85.86,0,0,1,189.38,1Z"/>
        <path d="M105.29,57.29A104.29,104.29,0,0,1,209.58,161.58c0,57.6-46.69,94-104.29,94S1,219.18,1,161.58A104.29,104.29,0,0,1,105.29,57.29Z"/>
    </g>
    <g class="snowSide">
        <path d="M125,215.51c-40,7.07-61.12-15.29-111-6,17.77,29.09,52,46.05,91.32,46.05,37.85,0,71-15.72,89.27-42.83C169.86,208.76,145.88,211.83,125,215.51Z"/>
        <path d="M204.88,130.52a109.75,109.75,0,0,1,4.74,31.84c22.58-4.59,41.63-16.06,53.26-33.38C241.49,124.36,223.34,127.25,204.88,130.52Z"/>
    </g>
    <g class="base">
        <path d="M18.41,272.1c-.11-18.75.79-36.79,11.41-42.18,24.81,6.41,126.14,6.41,150.94,0,10.63,5.39,11.53,23.43,11.42,42.18C192.18,286.1,18.41,286.1,18.41,272.1Z"/>
        <path d="M251.52,143.13c-7.67,2-24.22,3.22-43,3.71,1.37,7,1.86,26.36-2.07,39.44,29.25-.77,54.45-3.58,54.45-8.42C261,162.43,260.27,147.57,251.52,143.13Z"/>
    </g>
    <g class="reflectionOuter">
        <path d="M142.87,81.44c-8.5,6.26-5.59,23.57,5.88,39.12s27.14,23.45,35.64,17.19,6.6-24.32-4.87-39.87S151.37,75.17,142.87,81.44Z"/>
        <path d="M220.32,20.88c-7,5.16-4.6,19.42,4.84,32.22s22.35,19.31,29.34,14.15,5.44-20-4-32.83S227.32,15.72,220.32,20.88Z"/>
    </g>
</svg>
