<svg viewBox="0 0 216.83 286.85">
    <g class="lyricEar">
        <path d="M15.07,51.77C51.72-20.76,164.7-9.41,198.18,47c35,59.05,16.36,130-42.57,164.88-26.54,15.7-11,64.21-75.93,73.48-32.48,4.64-75.82-23.69-78.6-60-1.88-24.5,29.6-27,33.05-2.63C36.76,241.23,59.3,258.59,84,252.61c29.89-7.25,19-45.67,56.44-68,40.38-24.1,56.11-68.68,32.52-114.37s-102.21-51-129.21-4.49C31.75,86.33,4.86,72,15.07,51.77Z"/>
        <path d="M50.85,109.69c6.87-36.45,42.87-55.45,72.7-47.41,25.28,6.82,42.35,31.56,30,64.87-7.82,21.09-37.74,10-31-7.17C136.13,85.45,94.43,81.8,86,108.32c16.28,15.41,43.74,50.12,13,80.57-13.85,13.71-39.82,11.56-49.5-5.12-10.21-17.58,4.63-42,26.19-43C71.65,127.28,60.54,118.4,50.85,109.69Z"/>
    </g>
</svg>
