<svg viewBox="0 0 247.01 338.27">
    <path class="cover" d="M28.92,6,19.61,19.51c-2.05,2.41-3,4.3-3,6.39.05-5.48-15.56-5.61-15.61-.14V311.57c0,5.69,15.61,5.69,15.61,0,2.47,3.32,5.46,5,12.73,5H246V63.15H49.74V12.43C49.74,1.23,35.27-3.27,28.92,6Z"/>
    <polygon class="bookPageLight" points="228.5 270.37 228.5 37.33 49.73 37.33 49.73 236.34 26.9 270.17 228.5 270.37"/>
    <path class="paperStackLight" d="M228.5,265.37v33.39H34.27c-13.52,0-13.52-33.39,0-33.39Z"/>
    <polygon class="bookmark" points="90.4 286.24 37.11 286.24 37.11 336.27 63.75 316.27 90.4 336.27 90.4 286.24"/>
</svg>
