<svg viewBox="0 0 156.24 331.99">
    <path class="clef" d="M121.24,162.83c-13.51-3.91-25.65-3.53-35.93.12-1.91-7.43-3.73-14.66-5.41-21.67,31.07-34.23,56.54-76,10.31-140C43.72,26.77,46,66.81,58.85,119,32.45,142.54-.54,163.92,1.06,207.51c1.72,47.11,32.89,79.9,90.52,71.92q.27,6.18.3,12.47C55.41,289,60.65,331,83.12,331c23.31,0,32.93-15.1,27.12-55.35C160.78,262.29,174.57,178.29,121.24,162.83ZM85.45,36.34c11.36,31.46,2.64,51.88-12.81,69.15C68.17,75.77,69.94,52,85.45,36.34ZM34.07,233.15c-17.14-28.35,7.49-51.83,34-79.35q2.16,7.89,4.36,16.07C59,180,50.8,197.25,49.92,217.3a59,59,0,0,1,29-22.27,490.67,490.67,0,0,1,10.91,60.81C70.56,260.61,46.8,254.2,34.07,233.15Zm71.57,15.33c-3.74-19.41-8.22-38.11-12.73-55.9,13.84.06,25.23,8.14,26.39,26A33.44,33.44,0,0,1,105.64,248.48Z"/>
</svg>
