<svg viewBox="0 0 1875.2 2257.69">
  <g class="ghostTail">
    <path d="M1505.19,1273.54c114.41,100.52,215.34,200,241.77,293.69,22.42,151.16-123.58,249.2-295.31,339.13,28.4,113.32,30.6,212.24-37.32,272.6-69.78-152.53-285.58-112-209.32-355.35Q1087.38,1306.47,1505.19,1273.54Z"/>
    <path d="M1315.49,1344.49c102.81,54.91,152.08,205.75,188.32,379.92,12.62.79,22,14.58,19.29,24.37,71.85,22.62,121.81,123.08,177.71,213.25,9.8-6.69,23.92.17,29.45,11.17,170.6,30.89,90.22,185,143.17,283.31-116.58-11.27-228.16-42.32-262-141.15-129-80.22-266-110.68-375.72-237.61-17.86-20.68-160.44-106.63-261-322.92C991,1355.28,1120.75,1306.63,1315.49,1344.49Z"/>
  </g>
  <path class="chineseRed" d="M1349.64,1062c1.62,14.39,18,7.15,21.91,44.47,31.1,26.43,76.19,115.06,108.27,135.54L902.65,1488.94c-6.89-41.17-6.89-91.7-24.32-163.72Z"/>
  <g class="chinesePink">
    <path d="M996.36,971.09c35.7-14.34,74.18-26,112.61-30.81,16.38,142.36,118.76,274.26,232.37,404.79,48.38,72-220.94,268.47-307.42,206.42,5,39.92-10.16,55-50.13,39.45-44.62-87-81.12-175.38-105.46-265.72C681.6,1170.85,774.08,1061,996.36,971.09Z"/>
    <path d="M978.11,1056.05c25.29-21.78,27.06-68.81,18.25-85-5.59-6.4-10.44-8.84-15.52-12.36-7.88,47.61-44.6,80.65-57.54,107.38C938.88,1064.22,958.28,1061.57,978.11,1056.05Z"/>
  </g>
  <g class="chineseTrim">
    <path d="M959.66,1542q-18.43-39-34.43-78.33h0c-12.41,9.7-20.36,18.32-22.57,25.24,1,31.14,13.72,58.27,30.33,92.53C931.82,1573.37,940.3,1559.43,959.66,1542Z"/>
    <path d="M1479.82,1242c-55.56,7-106.89,52.13-169.75,66.67,11.47,14.63,39.83,43.39,44.47,55.71a31.84,31.84,0,0,1,.48,13.27c88.47-21.83,110.69-72.29,200.57-70.25C1532.44,1283.43,1507.44,1261.36,1479.82,1242Z"/>
    <path d="M1030.42,1539.21c15.18,56.28,29.54,63-39.46,69.32-3.48-6.25-5.17-11.35-7.17-17.59,13.7-.84,36.53-2.3,38.49-6.71,3.83-8.64-5.88-32.3-13.71-63.13Z"/>
    <path d="M1341.34,1345.07c17.79,68-207.42,229.07-266.11,211-52.71-19.62-118.08-120.25-186.93-289.27-9.73-33,1.91-87.56,21.62-121.61l-19.27,0c-15.09,29.7-29.89,70.63-23.82,115.65C922,1401,998.13,1547.69,1070.36,1574.33c62.64,23.1,302.1-143.91,284.18-209.93C1351.75,1358,1346.35,1350.82,1341.34,1345.07Z"/>
    <path d="M966.31,945.11a85.53,85.53,0,0,1,14.53,13.62c9.1,52.54-38.69,84.09-57.54,107.38l-25.33,3C920.55,1041.44,988.34,996.45,966.31,945.11Z"/>
    <path d="M1111,1010.78c4.86-1.84,11.18-2.88,20-2.41-4.54-19.73-5.73-52.57-2.5-68.68-4.52-1.1-14.83,0-19.32.57C1106.08,952.9,1108,990.14,1111,1010.78Z"/>
  </g>
  <g class="chineseTie">
    <path d="M839.88,1196.47a373.57,373.57,0,0,1,73.66,19.47c3.31.87,6.1-9.66,2.78-10.53a407.38,407.38,0,0,1-73.65-19.47C838.18,1184.75,835.4,1195.28,839.88,1196.47Z"/>
    <circle cx="878.12" cy="1200.82" r="11.35"/>
  </g>
  <path class="chineseRed" d="M1128.49,939.69c18.57,1.77,45.06,19.9,55,36.63-21.92,3.37-27.24,34-52.5,32-33.88-1.81-30.94,18.51-49.35,21.7-28-8.34-55.07,21.06-103.53,26C1009.74,1202.23,1080,1312.2,1180.53,1387c46.73-48.37,111.63-138.91,145.54-240,46.46-138.49,19.29-193.12,30.55-334.88,4.46-56.06,14.81-67.7-5.53-164.51-12.31-63.34-97.86-84.36-128.18-87.47-18.38-1.88-14.78-24.1-38.24-7.26-21.4-21.09-27.05,2.09-46.5,4.15-18.41,1.95-54.27-14.14-68.07,4.12L837.76,583.34,691.08,881c-103.24,234.26-85.89,244.37-93.68,264.6-15.23,39.59-13.74,82-6.3,114.17,8.31,219.15,63.29,238.43,98.58,329C759.29,1519,810,1394.54,851.37,1243.3c-49.8-60.61-35.06-17.13-60.75-43.2-16.27-37.41-67.84-68.59-102.6-73.43L980.84,958.73c7,4.36,12.45,8.51,15.52,12.36,46.86-19.78,116.13-34.65,132.13-31.4"/>
  <g class="clothesOverlapLine">
    <path d="M1200.07,709.43c-7.67,48.72,2,71.91.86,113.36-1.15,43.4-14.92,96.6-4.71,141.5-3.76,6.3-8,10.27-12.73,12"/>
    <path d="M1191.9,1043.4c-15.69-17.27-34.69-30.53-60.91-35,30.74,7.42,110.21-28.86,153.41,92.08"/>
  </g>
  <g class="clothesFoldLine">
    <path d="M1184.67,552.83c-7.15,6.89-10,18.92-5.67,39.66"/>
    <path d="M1159.14,561.39c-3.46,35.42,12.95,67.38,18.14,116.62"/>
    <path d="M1166.91,707.38a168.58,168.58,0,0,0,31,60.48c4.24-25.37,12.51-45.69,26.83-58.43"/>
    <path d="M1199.74,651.23c8.75.7-9.09,29.31.33,58.2,20-31,61.08-50,33.36-48.7"/>
    <path d="M1139.23,1037.59c27.11,16.6,51.17,61.61,38.15,68-26.12,12.86-47.27-52.67-95.74-75.53"/>
    <path d="M1120,1207.56c26.12,38.12,61.18,57.43,107,54"/>
    <path d="M1371.55,1106.48c.31,5.64-1,10.37-6.33,12.9"/>
    <path d="M723,1439.63c-27.13,13.84-53.24,6.53-78.53-18"/>
    <path d="M682.62,1326.45c-1.75,118.44,28.08-70.19,128.09-117.63"/>
    <path d="M1595.29,1706c-16.93,23.87-52.07,32.37-73.13,32.37"/>
    <path d="M1503.81,1724.41c.43,17.73-19.82,38-46.82,49.5"/>
    <path d="M1523.1,1748.78c-3.38,15.81-11,28-23.51,42.27"/>
    <path d="M1700.81,1962c4.21,13,6.64,26.46,2.73,41.17"/>
    <path d="M1730.26,1973.2c5.83,12.6,7.48,23.76,6.07,33.86"/>
    <path d="M1611.45,2115.36c33.27,11.76,79.56-9.46,101.74-47.55"/>
  </g>
  <g class="clothesCreaseLine">
    <path d="M1494.41,1424.89c-26,8.44-51.41,18.79-76.82,30.25"/>
    <path d="M1551.68,1428.79c-4-1.4-125.33,46.38-123.12,47.88"/>
    <path d="M1293.24,1565.07a557.73,557.73,0,0,1-87.91,66.69"/>
    <path d="M1245.49,1634.79a975.09,975.09,0,0,1-93.21,61.39"/>
    <path d="M1314.46,1714.36a695.44,695.44,0,0,1-90.18,65.18"/>
    <path d="M1384.94,1693.9a802.9,802.9,0,0,1-99.28,72"/>
  </g>
  <path class="skinBlack" d="M754,978.09c3.88,109.95,143.94,91,143.94,91,22.58-27.63,90.37-72.62,68.34-124L953.19,910"/>
  <g class="hairDarkGray">
    <path d="M748.07,520.56c-7.13,41.31,16.52,58.77,66.52,55.82C842.73,321,717,326,748.07,520.56Z"/>
    <path d="M958.07,74.83c75.71-3.93,201,127.8,162,240.62L788.35,398.13c-23.12,33.59-65.37,27.52-88.16,6.19-32.71-40-56.25-187.79,26.25-269.52-36.59-49-1.39-102.19,83.21-125.18C907.86-17.07,973.26,22,958.07,74.83Z"/>
  </g>
  <g class="hairOverlapLine">
    <path d="M978.53,249C973.92,169.89,908.4,99.39,876.85,89.51"/>
    <path d="M768.3,374.76c16.72-1.51,28.88-6.83,42.49-14.8"/>
    <path d="M958.07,74.83C936,86.47,904.28,79.36,828.38,100.91c-62,17.61-81,32.36-101.94,33.89"/>
  </g>
  <g class="eye">
    <circle class="sclera" cx="927.95" cy="447.79" r="57.53"/>
    <ellipse class="irisDarkBrown" cx="941.73" cy="457.59" rx="19.04" ry="21.26" transform="translate(-37.44 86.83) rotate(-5.18)"/>
    <ellipse class="pupil" cx="944.26" cy="458.35" rx="7.4" ry="8.27" transform="translate(-37.5 87.06) rotate(-5.18)"/>
  </g>
  <path class="skinGhostLight" d="M880.11,1159c27.28-2.38,63.71-1.7,92.56.59-21-48.42-37.23-85.42-61.93-91.92q-21.65,2.64-30.73,2.65c-12.49-.13-28.06-32.6-65.39-44.15-29.82-9.23-51.83-4.26-72.72-12.42-8.93-3.2-15.32,7.09-11.41,17-31.24,8.83-43.85,21.44-46.86,28.76-18.26,9.62-28.11,18.68-25.56,40.47-8.17,6-11.5,20.65-6.89,31-12.21,14.58-14.13,27.3-9.4,41.88,13.26-14,47.52-26,70.08-24.09,20.49,3.16,32.71,29.19,80.46,32.72C844.16,1185.25,862.84,1159.17,880.11,1159Z"/>
  <g class="skinEastAsian">
    <path d="M1070.1,561.1c69.89,75.84,46.1,159.12,22.3,258.76C1007.64,754.43,914,689,918.41,573"/>
    <path d="M789.49,522.59c-26.65,19.26-42.86-.62-52-18.55-7.62-15-50.45-45.29-36.81-99.77,18.18,16.42,39.56,19.56,55.23,16.38C770,450.84,774.58,488.43,789.49,522.59Z"/>
  </g>
  <path class="hairBlack" d="M542,648.82c-25.3,33.52-29.24,76.34-67.42,103.54C400.35,815,409.3,900.09,441.66,853c-3,79.91,60,161.07,56,100.88,32.92,37.94,85.23,72,75.89,30.8,39.41,35.75,111.89,41.49,81.88,12.38,15.71,3.67,30,5.53,41.26,3.56C840.85,937.23,686.14,585.42,542,648.82Z"/>
  <g class="skinGhostDark">
    <path d="M723.25,1152.85a34.7,34.7,0,0,0-11.39-4.14c-19.85-1.65-48.76,7.38-64.45,19.14-49.23,55.3-84,111.86-113.35,119-92.75,22.61-169.22,78.76-276.81,92.56-29.53-41.63-80.5-48.85-108-76.25-27.66-9.83-22.21,43,17.15,52.15,14.29,14.83,19.31,24.66,19.49,30.29-46.1,12.91-57-5.67-104-11.06-37.49-4.3-46.38,3.3-66.38,9.22-21.51,9.22-6.14,35.65,37,22.58,30.12,3.69,54.62,11.21,75.76,25.52-24-.62-41.32-3.2-63.54,1.46-22.51,4.72-42.5,21.74-59.7,28.5C-9,1476.59,15,1497.48,48.77,1476c28.67-9.74,57.7-13.9,86.21-4.84-24.82,5.69-46.78,11.13-64.08,20.21-24.58,12.91-20.28,20.9-35.65,30.12-8.22,20.75,17.83,29.5,46.71.61,14.14-8,38.43-12.29,64.86-16.6-53.48,25.2-56.47,44.34-66.3,53.56-3.77,17.74,22,27.58,41.1-4.38,16-14.44,39.09-21.91,64.53-27.05,51,3.69,101.1-24.3,112.49-66.77,84.6-35.87,234.73-7.79,309-76.48,36.79-34,82.24-93.08,165.21-174.67C761,1189.56,743.17,1169.93,723.25,1152.85Z"/>
    <path d="M1451,1213.37c-65.6,47.36-127.62,78.69-178.51,49.84,20.8-35.57,39.78-75,53.61-116.26,17.33,3.61,39.74,7.63,60.64,6.5-15-27.4,6.78-59.07,16.12-81,16.59-38.86,32.91-40.76,46-60.14,4.89-7.16,14.42-8.42,19.22-2.4,12.21-11.87,21.67-27.24,34.48-35.57,22.6-14.69,37.92-12.32,61.14-19.43,24.92.91,10.65,35-23.22,38.87-35.55,17.53-33.65,35.07-50.79,58.56,24.72-17.81,39.7-37.6,63.58-46.72,24.1-9.19,42.52-6.63,66.69-8.53,26.07-3.31,13.75,38.39-28,33.18-37.91,6-46.78,28.84-71.08,48.39,10.08-2,29-17.24,50.84-25.3,19.26-7.12,35.41-2.24,54.84-7.45,26-1,11.3,37-20.92,34.6-36.5,4.26-44.82,22.74-70.35,38.28,18.89-6.53,44.75-15.54,80.77-17,24.17,1.42,17.58,28.64-17.06,31.28-23.8,5.88-43.87,9.48-54.1,20.11C1520.81,1197.85,1478.39,1224.16,1451,1213.37Z"/>
    <path d="M1128.49,939.69c-3,19.74-2.34,42.52,2.5,68.68,25.26,2,30.58-28.68,52.5-32C1173.55,959.59,1147.06,941.46,1128.49,939.69Z"/>
    <path d="M712.09,1022.68c30.86,27.26,67,6.48,95.65-8.46,45.24-23.6,112.29-65.68,103-154.67C873.17,627.94,626.84,600,598.28,759.75c7.54,28.64-6.29,30.36,14,50.07,5.69,5.55-5.52,24.45,10.06,28.23-6.69,9.4,1,8.43,1.07,12.77C626.18,965.35,683.74,997.64,712.09,1022.68Z"/>
  </g>
  <g class="head49__edited">
    <path class="lipFemaleDark__noStroke" d="M695.49,940.06c17.65,57.55,32.84,44,47.52,39.85,13.56-3.86,46.37-4,43.07-52Z"/>
    <path class="lipFemaleDark" d="M695.49,940.06c-12.16-7.32-16.31-22.87,1.16-23.34,28.19-.75,37-39.3,86.2,5.44Z"/>
    <g class="eyebrowBlack">
      <path d="M700,768c27.18,2.78,61.27-49.62,96.28-26.08C764.72,739.78,732.49,789.45,700,768Z"/>
      <path d="M601,793.15c.73,3.44,2.49,7,6.41,11.56,18-3.3,37-4.2,47.1-22.69C634.2,791.32,617.66,785,601,793.15Z"/>
    </g>
  </g>
  <path class="hairBlack" d="M596.87,738.71c-33.31,44.08,37.42,21.24,38.91-38.29,11.44,43.63,79.14,52.46,66.17,24.9,44.7,11.38,94.62,6.17,75.58-13.51a94.15,94.15,0,0,0,46.86,12.7c32.61,54.13,42.68,135.22,29.86,190.3-3.22,13.84,8.33,23.35,17.7,2.55.77,46.89-14.61,83.41-32,128.59-18.21,47.37,95.19,1.08,125.72-64.13-2.88,55.52,78.77-21.24,91-88.51,22.91,50.51,60.31-53.57,23.28-148.09-17.78-45.39-63.3-79.36-77.69-115.24L789.49,522.59c-19.31,13.95-33.14,7.36-42.77-4.15-16,5.87-29.77,16.08-38.51,32.37-54.66-32.23-97.18,37.7-101.55,42.59-18.85,21.08-47.33,32.43-64.69,55.42"/>
  <g class="skinGhostLight">
    <path d="M942.08,1471.21c-17.83-23.3-53.23-50.89-67.63-90-4.4-12.19-21.4-19.2-36.69-25.07,13-40.28,32.35-71.92,69.92-77.07,15.64,12.64,83.44-16.79,90.45-13.11l159.72,144c45.62-1.18,67.52,40.79,36.49,42.62-14.59-3-28.74,1-46.22-2.37-31.63-6.08-43.19-11-79-41.27,34.7,38,28.81,42.55,72,68.08,38.63,2.62,70.7,39.94,30.12,49.1-15.72-6.54-28.92-4.43-44.52-12.44-48.44-24.87-52.37-26.84-90.34-60.88,9.82,28.8,23.68,51.54,43.86,64.81,36.66,11.79,39.94,50.41,9.82,47.13-17-6.54-25-7.6-39.93-17.67-22.26-15.06-38.62-34.7-58.26-69.39,3.61,21.74,7.87,36.33,19.48,48.76,46.48,30.77,6.86,61.06-1,45.35-9.82-13.75-26.41-15.65-35.56-28.58C946.78,1503.75,961.38,1493.41,942.08,1471.21Z"/>
    <path d="M1118.6,589.63c-10.52,11-15.36,61.14-76.39,75.73-31.47,7.53-54.57-3.73-74.7-4.79-71.19-3.75-151.88-49.65-178-138-14.91-34.16-19.53-71.75-33.58-101.94a45.91,45.91,0,0,0,10.24-3.31c5.67,18.38,11.46,47.64,32.89,55.53-7-23.43-14.93-53-10.2-74.78,5.33-7,15.09-16.86,22.43-38.18,48.94-25.53,87.42-89.83,167.75-111,35-6.86,103.12,0,127.85,16.47,10.31,29.54,18.83,42.59,24.41,69.22,4.36,20.8-5.83,32.31,8.36,73.5C1165.79,484,1150.19,556.72,1118.6,589.63ZM969,444c-11.45-3-18.15-7.7-22.95-6.3-12.1,3.5-31.17,18.08-51,23.24,10.06,5.16,23,4.07,37.95-.57,11.63-3.6,18-10.25,31.87-11.83C967.25,448.3,974.5,445.46,969,444Z"/>
  </g>
  <g class="skinOverlapLine">
    <path d="M785.55,1032.48c-4.74.54-9.11-.27-14-1.3"/>
    <path d="M683.63,1059.5c13.43-8,28.09-14.43,41.63-16.39"/>
    <path d="M658.07,1100c11-12.45,37.64-26.52,62.46-30.85"/>
    <path d="M651.18,1130.92c10.64-11,38.62-24,55.56-23.64"/>
    <path d="M1468.08,1010c9,13.07,1.92,45.72-20.39,54.42-10.08,13-9.79,26.66-6.52,38.09"/>
  </g>
  <g class="skinFoldLine">
    <path d="M185.92,1385.62c4.55,8.14,7.56,11.58,17,15"/>
    <path d="M298.64,1460.83c1.2-13.89-.61-24-6.67-34.88-6.45-11.57-4.43-22.17-21.08-35.2"/>
    <path d="M1451,1213.37c-13.89-3.72-27.45-14.21-33.25-25.39-3.63-7-13.65-9.93-19.86-19.45"/>
    <path d="M713.45,413.83c-7.54,12.78-7,40,16,66.74"/>
    <path d="M744,428.73a71.83,71.83,0,0,0-2.87-7"/>
    <path d="M753,452c-12.15,8.62,18.54,28.7,8.07,36-6.94,4.82-4.63-9-20.25-17.71-14.89-8.28-17.59-38.1-5.44-33.49"/>
  </g>
  <g class="skinCreaseLIne">
    <path d="M178.62,1410.05c13,44.47,51.59,56.93,88.95,52.18"/>
    <path d="M164.39,1446.22c20.2,4.14,35.58,37.36,36.17,64.64"/>
    <path d="M1465.65,1074.17c10.88,20.68,17.41,75.08-20.13,112.62"/>
    <path d="M1490.67,1082.88c-10.88,28.83,1.64,58.76,22.85,82.15"/>
  </g>
  <path class="skinEdgeLine" d="M965.93,1457.21c9-2.31,18.39-1.53,25-11.39,10.62-15.83,27.12-7,33.69-26.71,7-21.06,24.3-13.23,30.65-31.22"/>
  <g class="chineseRedDark">
    <path d="M959.66,1542c-19.36,17.4-27.84,31.34-26.68,39.44-1,5,22.95,1.76,44-4Q968.09,1559.82,959.66,1542Z"/>
    <path d="M874.45,1381.25c-4.4-12.19-21.4-19.2-36.69-25.07-15,46.77-21.43,105.17-37.55,147.25-18.5,48.3-76.84,113.69-65.26,137.9,24.1,6.16,74-43.75,96-141.57,6-26.58,28.85-65.25,50.6-103A121,121,0,0,1,874.45,1381.25Z"/>
    <path d="M972.67,1159.55c-12.35-1-26.1-1.67-39.92-1.94,22,39,51.17,84.17,72.84,121.57,61.89,106.8,84.84,167.68,108.32,160C1180.93,1385.83,972.67,1159.55,972.67,1159.55Z"/>
  </g>
  <g class="chineseTrim">
    <path d="M723.25,1152.85c19.92,17.08,37.71,36.71,49.58,56.83,4.3-3.66,10-7.83,17.79-9.58a86.87,86.87,0,0,0-12.87-20.62C749.69,1174,736.39,1160,723.25,1152.85Z"/>
    <path d="M914.66,1278.45c-4.91-11-42.87-22.4-65-37.13-56.85,11.58-63.16,137.9-99,230.53-18.15,47-67.37,100-61.06,116.84,10.19,28.41,24.85,42.09,45.27,52.64-11.58-24.21,46.76-89.6,65.26-137.9C831.05,1422.93,826.24,1282.66,914.66,1278.45Z"/>
    <path d="M910.74,1067.63c16.85-2.11,41.76-4.45,67.37-11.58,43.16,19,73.21,120.7,108.43,185.27,31.58,57.89,100,113.68,92.63,148.42-24.76,24.92-47.3,43.61-65.26,49.48,26.43-41.26-46.32-99-93.69-181.06C968.61,1168.7,950.74,1078.16,910.74,1067.63Z"/>
    <path d="M1118.33,589.92c-4,4.46-7.24,14.57-13.21,26.16,22.63,58.38,7,121.86-10.36,193.93,3.09,37.27-3,69.71-12.08,85.77-.37,15.9-.08,32.09.21,48.8,8.68-1.75,37.92-7,45.6-4.89,12.15,1.16,27.7,9.33,39.77,19.52C1147.91,810,1157.66,665.81,1118.33,589.92Z"/>
    <path d="M1082.69,895.78c-7.83,13.88-17.85,15.55-26-2.47a117.14,117.14,0,0,1-3,12.45q14.11,9.16,28.9,17.7C1082.47,914.1,1082.47,904.89,1082.69,895.78Z"/>
  </g>
  <g class="head49">
    <path class="lipFemaleMedium__noStroke" d="M972.52,600.36c6.38,8.66,21.8,10.22,42.8,13,51.63,6.75,81.51-33.32,69.95-70.5C1077.57,564.19,1007.47,595,972.52,600.36Z"/>
    <path class="lipFemaleMedium" d="M1085.27,542.83c2.8-1.28,6.31-1.69,10.1-1.76-9.62-7.14-34.38,1.15-45.13,19.47-2.64,4.5-13.52-6.71-41.58,4-15.91,6.08-39.29,20.92-36.14,35.8C1008.05,594.61,1077.24,564.25,1085.27,542.83Z"/>
    <g class="eyebrowDarkGray">
      <path d="M1038.82,398.82c8.18,5.73,20.87-3.46,39.93-22.86,23-23.45,43.86-15.89,41.92-25.21C1068.63,336.84,1055.66,391.22,1038.82,398.82Z"/>
      <path d="M972,407.68c5.6,13.38-24.79,14.54-54.51,15.17-36.82.78-50.86,20.54-55.44,17.08C888.36,387.55,943.59,412.09,972,407.68Z"/>
    </g>
  </g>
  <path class="lipOverlapLine" d="M687.22,905c-.05,7.56-4.14,15.29-2.28,20.31"/>
  <g class="lipEdgeLine">
    <path d="M716,980.47c9.45,7.66,18.32,1.91,27-.56,9.25-2.63,27.44-3.55,37-19.07"/>
    <path d="M1015.32,613.33c34.28,4.48,59-11.67,68.31-33.92"/>
  </g>
  <g class="mouthInner">
    <path d="M695,940.21c7.28,12.64,10.84,31.51,27.74,22.15,32-17.7,46.83-5,59.9-23.91,10-14.41-5.85-20.93-19.28-27.75-22.41-11.36-42.83,13.11-64.69,13.9C693,924.8,690.28,932,695,940.21Z"/>
    <path d="M1025.34,588.09c-24.95,18.34-51.27,18.5-52.82,12.27-3.31-13.32,24-29.59,49.15-28.29,42.94,2.21,47.33-21.42,63.6-29.24C1084.31,578,1052.56,568.09,1025.34,588.09Z"/>
  </g>
  <path class="tongue" d="M763.39,910.7c-12.61-6.39-24.6-1.43-36.56,4.26-9.81,15.34-15.28,29.13-12.09,43.5,8.92-4.87,45.48-17,67.93-20C792.66,924,776.82,917.52,763.39,910.7Z"/>
  <g class="teeth">
    <path d="M702.72,934.34c15.77,2.66,45.78-10,60.67-23.64-22.41-11.36-42.83,13.11-64.69,13.9C698.82,927.84,701,933.43,702.72,934.34Z"/>
    <path d="M713.51,959.21a12.72,12.72,0,0,0,.41,5.64c2.49.16,5.39-.58,8.85-2.49,32-17.7,46.83-5,59.9-23.91C759,941.65,719.53,955,713.51,959.21Z"/>
    <path d="M1021.67,572.07c-14.16-.74-29,4.1-38.69,10.85,14.41,5.37,30.79,6.08,45.91,2.74,9-5.73,18.29-8.61,26.7-11.26,9.22-6.29,16.52-14.67,20.48-24.89C1065.42,559.49,1055.54,573.81,1021.67,572.07Z"/>
  </g>
  <g class="smileLine">
    <path d="M992.81,393.18c.92,12.56-.68,23.74-6.56,32.58"/>
    <path d="M1031.49,388.4c-.48,8.75,1.57,16.25,8.51,21.35"/>
  </g>
  <g class="cheekLine">
    <path d="M1072.52,491.41c5,6,27.51.8,35.76,39"/>
    <path d="M986.8,517.48c-4.77,3.85-7.43,19.83-17.59,31-15.68,17.25-20.27,43.11-20.54,55.22"/>
  </g>
  <g class="noseLine">
    <path d="M673.91,842.4c2.89,13-26.87,43.1,4.57,53"/>
    <path d="M732.64,853.29c5.42.69,13.4,17,4.3,25.92"/>
    <path d="M688.64,893.91c-4.48-.29-9.62-1.6-11.35-4"/>
    <path d="M725.05,878.58c-3.8-15.11-11.39,5.55-20.86,10.25"/>
    <path d="M1061.54,477.67c3.66,9.12,23,16.83,10.1,35-9,12.7-4.86,15.89-20.92,23-16.84,7.47-23.92-.34-34.85,1.58-22.34,3.91-34-17.1-27.19-28.75"/>
  </g>
  <g class="eyeLashLine">
    <path d="M622.29,838.05c18.71-17.91,36-14.66,41.53-21.06"/>
    <path d="M796.29,781.26c-14.35,5.12-34.86,1.8-51.17,6.24-19.79,5.39-26.11,17.55-30.73,4.78"/>
    <path d="M1118.35,386.8c-20.75,26.41-39.94,9.16-67.12,37.48"/>
  </g>
  <g class="eyeFoldLine">
    <path d="M622,848.11c10.53,5.91,27.14-5.59,32.75-12.15"/>
    <path d="M727.17,808.26c10.79,4.87,33.89-2.9,41.59-11.69"/>
    <path d="M1108.63,413.33a44.51,44.51,0,0,1-35.43,19.15"/>
    <path d="M958.36,466.21c-7.53,10.77-32.46,20.91-47.55,14.4"/>
  </g>
  <path class="eyeCornerLine" d="M874,468.3c7.94.95,15.34-5.72,21.06-7.34"/>
</svg>
