<svg id="presence" xmlns="http://www.w3.org/2000/svg" viewBox="0 0 1562.99 1671.85">
  <defs>
    <style>
      .cls-1 {
        fill: none;
      }

      .cls-1, .cls-10, .cls-11, .cls-12, .cls-13, .cls-2, .cls-3, .cls-4, .cls-5, .cls-6, .cls-7, .cls-8, .cls-9 {
        stroke: #000;
        stroke-miterlimit: 10;
        stroke-width: 2px;
      }

      .cls-2 {
        fill: #664530;
      }

      .cls-3 {
        fill: #805d49;
      }

      .cls-4 {
        fill: #a39670;
      }

      .cls-5 {
        fill: #b0a279;
      }

      .cls-6 {
        fill: #916a53;
      }

      .cls-7 {
        fill: #ad5445;
      }

      .cls-8 {
        fill: #db9855;
      }

      .cls-9 {
        fill: #c7c7b1;
      }

      .cls-10 {
        fill: #b0b097;
      }

      .cls-11 {
        fill: #babaa6;
      }

      .cls-12 {
        fill: #a8a36f;
      }

      .cls-13 {
        fill: #bdb77d;
      }
    </style>
  </defs>
  <title>eating</title>
  <g id="jacob">
    <path id="jacobSoleBottom" class="cls-1" d="M1239.63,1483.79c2.45,57.72,163.94,108.29,216.75,81.28C1457.61,1520.63,1331.73,1549.49,1239.63,1483.79Z"/>
    <g id="jacobSoleSide">
      <path class="cls-1" d="M1469.27,1491.16c-35.72-36.41-145.63-46.38-264.78-53.05q15.32,20.91,35.14,45.68c92.1,65.7,218,36.84,216.75,81.28C1485.11,1550.37,1481.12,1512.05,1469.27,1491.16Z"/>
      <path class="cls-1" d="M1338.49,1585.1l-279.75-30.71a158.49,158.49,0,0,0,6.5,50.36c3.68,12,20.27,28.25,56.5,39.3,27.67,8.44,50.07,17.72,70.61,18.42C1285.09,1665.62,1359.28,1639.78,1338.49,1585.1Z"/>
    </g>
    <g id="jacobShoe">
      <path class="cls-1" d="M1419.54,1511.42c11.66-17.19,35-30.7,49.73-20.26-25.78-49.13-135.08-35-180.52-176.84-108.68-27.92-213.4-52.44-84.26,123.79C1277.81,1489.06,1403,1518.26,1419.54,1511.42Z"/>
      <path class="cls-1" d="M1123.58,1614c24,9.7,58.33,24.56,71.84,16.58,25.17-35,92.72-47.89,122.8-14.74,14.42-3.06,20.12-14.28,20.27-30.7-8.64-22.7-27.67-37-43.6-52.19-27.63-26.4-46.67-82.89-74.91-113l-121.58,9.21c-21,34.32-38.54,80-39.66,125.25C1075.68,1583.62,1097.84,1603.57,1123.58,1614Z"/>
    </g>
    <path id="jacobShoelace" class="cls-1" d="M1270.94,1540.89c-13.69-21-25.49-41.59-34.38-61.4-35.25-4.7-69.58.63-103.16,14.12,16.46,20.41,31.82,40.7,45.44,60.79C1206.38,1539.63,1237.44,1536.3,1270.94,1540.89Z"/>
    <path id="adidasLogo" class="cls-1" d="M1080.35,1583.8a121.54,121.54,0,0,0,42.35,29.78c8.53-22.71,19.13-42.81,32.19-59.79-15.7-12.86-29.65-25.57-41.14-38.07C1099.28,1533.21,1088.3,1556.15,1080.35,1583.8Z"/>
    <g id="clothesOverlapLine">
      <path class="cls-1" d="M1261.76,1526.37c-33.76-1.19-64.9,2.91-92.3,14.54"/>
      <path class="cls-1" d="M1255.38,1515.72c-35.67-1.64-67.19,2.81-94.37,13.54"/>
      <path class="cls-1" d="M1248.45,1503.4c-34.23-.32-66.16,4.4-96.23,14.16"/>
      <path class="cls-1" d="M1242.18,1491.35c-36.27-1.13-69.29,3.83-98.74,14.87"/>
    </g>
    <g id="clothesDisplayLine">
      <path class="cls-1" d="M1125.92,1528.17c-16,21-25.71,39.86-33.53,67"/>
      <path class="cls-1" d="M1141.11,1542.13c-15.6,19.74-25.7,37.55-35,63"/>
    </g>
    <g id="jacobPants">
      <path class="cls-1" d="M681.23,858c141-55.52,333.4-95.26,398.39-64.3,44.07,15.29,46.83,69.13,55,102,12.53,19.61,38.76,38.94,17.18,85.95,18.17,79.54,22.27,192.51,30.94,270.44,2,17.91,40.34,56.68,10.32,90.53,18.28,24.13,47,40.51,30,71.76,17.25.69,10.73,22.08,21.09,31.75,0,0-8.48,3.18-17,2.62-26.2-25.4-87-14.36-107,20.16-18.64-4.14-34.52,5.52-46.94-2.76-11.74-35.9,9-65.78-20.71-89.74-24.85-20-5.81-65.4-46.25-178.78-14.66-41.12-31.75-87.66-42.1-154.62-16.73,12.1-38.22,18-55.48,27.64-23.56-36.94-51.8-76.59-83.33-118.13Z"/>
      <path class="cls-1" d="M968.51,791.94c65-15.13,118.42-85.28,161.94-65.7,14.35-7.29,26-2.48,35.14,13.75,149.64,16,288.83-38.82,349.87,22.15,33.34,33.31,63.76,62.93,35.14,112.3,8.23,48.63-26.77,65.69-45.07,103.89-35.5,74.08-92.07,149.28-142.85,219.24-35,48.29-16.29,99.4-59.58,106.18-.13,11.26-3,19.74-9.52,24.43-9.13-5-16.64.2-22.64,14.68-23.42-21.85-84.31-31.73-137.54-57.79,22.64-80.44,63-107.6,70.23-126.33,26.77-69,52.68-118.4,103.4-203.38-53.65,26.72-112.47,45.89-162.25,53.82Z"/>
    </g>
    <g id="clothesOverlapLine-2" data-name="clothesOverlapLine">
      <path class="cls-1" d="M962.7,981.52c-5.32,16.84-.7,44.23,1.54,61.51"/>
      <path class="cls-1" d="M1031.43,911.62c-17.08,28.49-36.05,55.31-68.73,69.9-43.91-75.77-4.21-130.72-17-134.54-11.13-3.33-19,20.93-25,60.23"/>
    </g>
    <g id="clothesFoldLine">
      <path class="cls-1" d="M967.27,950.8c-3.91-52.4,41.63-102.35,50-94,8.87,8.85-24.53,26.91-24.53,66.58"/>
      <path class="cls-1" d="M1057.58,1325.87c-8.06,46.43,105.78,34.5,117.13-5.45"/>
      <path class="cls-1" d="M1193.07,1342.64c-25.62,26.36-73.29,31.81-39.24,35.89,24.8,3,45.4,16.8,54,4.09"/>
      <path class="cls-1" d="M1079.37,1378.53c39.05,30,82.72,9.88,85.36,24.06,3.34,18-63.11,24.07-69,39.05"/>
      <path class="cls-1" d="M1130.45,726.24c-14.86,7.93-31,25.16-47.83,47.08"/>
      <path class="cls-1" d="M1165.59,740c-20.44-5.31-37.1,6.42-51.6,27.87"/>
      <path class="cls-1" d="M1391.58,783.55c-35.47,17.05-76.08,56.09-92.76,122.76"/>
      <path class="cls-1" d="M1455.69,790.37c21.6,6.07-40.24,40.92-94.12,83.89,15-27.29,41-48.23,36.14-62.07"/>
      <path class="cls-1" d="M1339.74,842.88c20.64-20.83,31.33-28.81,35.17-27.92,11.49,2.68-62.45,73.62-67.88,140.4"/>
      <path class="cls-1" d="M1427.72,872.21c-40.86.55-75.51,17.89-100.25,62.06"/>
      <path class="cls-1" d="M1550.6,874.44c0-11.86-4.17-22.78-11.71-32.92"/>
      <path class="cls-1" d="M1187,1224.14c43.06,9.67,81.42-7.56,117.31-38.88"/>
      <path class="cls-1" d="M1326.78,1193.44c-27.28,34.11-75.7,52.52-17.73,84.58"/>
      <path class="cls-1" d="M1275,1285.52c-34.1-50.47-52.52-23.19-85.25-38.2"/>
      <path class="cls-1" d="M1303.1,1303.75a76.25,76.25,0,0,1-32.92-1.86"/>
      <path class="cls-1" d="M1199,1289.05q17.8.09,35.6,9.58"/>
    </g>
    <g id="skinWhite">
      <path class="cls-1" d="M633,33.44l6.28,86.73c52.35,69,189.61,59,202.44-5.85L815.89,55.9"/>
      <path class="cls-1" d="M1197.11,573.51c-23.15-2.18-39.79-26.78-62.95-39.8-20.26-62.22-46.63-118-59.94-176.24-106.71-10.35-102.13,127.76,22.91,313.76,21.11,19.49,79.72,20.93,105.77,6.46"/>
      <path class="cls-1" d="M522.66,629.94c-6.4-11-5-25.87-12.13-45.49,31.1-58.6,32.51-110.64,55.14-167.17C452.85,305.8,413.53,422.79,445.86,678.44"/>
    </g>
    <g id="skinFoldLine">
      <path class="cls-1" d="M1134.16,533.71c-17.43-2.1-43,6.72-47.43,21.72"/>
      <path class="cls-1" d="M510.53,584.45c-5.64-4.49-16-8.23-22-9.37"/>
    </g>
    <path id="jacobShirt" class="cls-1" d="M870.57,129.72c53.62,16,115.58,1.12,151.14,44.8,22.94,28.19,56.87,144.79,42.6,148.87l-32.07,47.55c15.4,40.85,13.3,119.57,24.21,138.68,23,40.35,12.31,76.28,20.87,111,8.91,36.13,33.92,64.13,29.22,102.21C1038.7,839.6,870.3,858.84,681.23,858c-21.77-30-3-68.9-8.91-97-6.65-31.44-18.32-43.53-23.88-81.76-10.66-73.3-61.17-159.33-76.15-267.13-115.49-64-82.88-220.52,39.82-266.7"/>
    <g id="jacobShirtTrim">
      <path class="cls-1" d="M1021.05,336.65c15.24-2.76,28.85-8.23,43.26-13.26,5.61-2,15.15,31.29,9.91,34.08-10.09,5.35-29.79,12.83-42,13.47C1026.46,358.75,1026.13,347.78,1021.05,336.65Z"/>
      <path class="cls-1" d="M639.26,120.17c52.35,69,189.61,59,202.44-5.85,1.55-2.89,30.42,12.51,28.87,15.4-10.26,82.12-174.63,103.57-258.46,15.68C610.49,143.67,637.64,118.44,639.26,120.17Z"/>
      <path class="cls-1" d="M580.29,382.32c5.35,4-9,38.5-14.62,35-15.06-9.45-40-21.95-52-23.51l6.77-38.61C539.68,358.89,568.31,373.47,580.29,382.32Z"/>
    </g>
    <g id="clothesOverlapLine-3" data-name="clothesOverlapLine">
      <path class="cls-1" d="M995.83,277.72q19.41,30.18,25.22,58.93"/>
      <path class="cls-1" d="M591.28,280.62c24.65,11.6,6.53,94.25-11,101.7"/>
    </g>
    <g id="clothesFoldLine-2" data-name="clothesFoldLine">
      <path class="cls-1" d="M1080.58,672.67c4.31,20.5-28.59,34-60.41,55"/>
      <path class="cls-1" d="M631.27,556.71c52.32,19.95,127.91,21.5,161.82,37.75"/>
      <path class="cls-1" d="M724.58,564.8c31,9.09,72.38,8.87,118.67,4.31"/>
      <path class="cls-1" d="M854.58,777.85a241.53,241.53,0,0,1-45.71,0"/>
      <path class="cls-1" d="M831.72,761.71a125.15,125.15,0,0,0,51.5,2.12"/>
      <path class="cls-1" d="M1032.57,640.85C966.23,677,840,678.07,725.66,692.09"/>
      <path class="cls-1" d="M723.51,672.67c144.55-9.17,202.8-8.63,251.35-73.35,26.3-35.07-41,0-99.79,1.08"/>
      <path class="cls-1" d="M1041.74,559.94C970,626.83,882.08,681.84,1052,619.81"/>
      <path class="cls-1" d="M1042.28,531.89c-36.86,22.48-78.34,40.34-128.91,49.09"/>
      <path class="cls-1" d="M1014.23,406.76c-62.63,24.6-127.74,38.42-195.79,39.37"/>
      <path class="cls-1" d="M998.59,435.35c-94.39,17.26-198,35.59-306.37,29.12"/>
      <path class="cls-1" d="M1001.83,227.68c1.62,20.5,8.64,42.32,3.77,50.7"/>
      <path class="cls-1" d="M977,205c12.6,22.36,19.76,46.33,18.81,72.69"/>
      <path class="cls-1" d="M943.57,218.51c12.58,20.37,29.15,27.05,39.92,42.61"/>
      <path class="cls-1" d="M950.59,242.79c10.24,12.94,32.36,20.49,36.14,34.52"/>
      <path class="cls-1" d="M571.4,278.38c10.65,11.39,19.19,23.62,21.58,38.3"/>
      <path class="cls-1" d="M609.16,247.1c8.63,17.26,6.33,38.82-6.2,57.69"/>
      <path class="cls-1" d="M634,233.62c-2.42,32.3-9.77,63.08-30.66,89.69"/>
      <path class="cls-1" d="M653.93,293.49c-14.93,18-31.62,33.72-52.95,43.16"/>
      <path class="cls-1" d="M659.32,310.75c-15.11,15.7-42.61,30.74-59.64,32.29"/>
    </g>
  </g>
  <g id="bottle">
    <g id="labelReverse">
      <path class="cls-2" d="M1321.58,722.48c-.2-6.11-35.84-11.39-70.21-8.76l-5.07-154.09c34.36-3,70,2,70.17,7.34Z"/>
      <path class="cls-2" d="M1281.86,471.39q-2.05-13.59-4-27.32c-4.23-2.08-17-2.94-25.39-2.78l9.62,34.11C1267.38,473,1277.32,470.65,1281.86,471.39Z"/>
    </g>
    <ellipse id="bottleBottom" class="cls-3" cx="1262.14" cy="767.35" rx="53.17" ry="11.89" transform="translate(-24.55 41.91) rotate(-1.88)"/>
    <path id="beerSide" class="cls-4" d="M1320.33,683.94c0,6.16-27.28,11.15-60.93,11.15s-60.92-5-60.92-11.15h0l2.58,78.33c.7,25.42,122.68,21.41,121.71-4l-2.45-74.33Z"/>
    <ellipse id="beerTop" class="cls-5" cx="1259.4" cy="683.94" rx="60.92" ry="11.15"/>
    <path id="bottleSide" class="cls-6" d="M1300.19,517.56c-6.48-5.74-12.91-13.45-15.57-28.28q-6.9-43.32-12.37-88.43c3.37-1.14,5.35-2.47,5.3-3.85l-.51-15.58c-.11-3.4-12.55-5.76-27.77-5.26s-27.48,3.67-27.37,7.07l.52,15.58c0,1.38,2.1,2.58,5.54,3.5q-2.51,45.36-6.53,89.05c-1.68,15-7.6,23.09-13.69,29.24-10.65,9.93-14,19.45-13.3,40.78l6.61,200.89c.7,25.42,122.68,21.41,121.71-4l-6.61-200.89C1315.45,536,1311.48,526.77,1300.19,517.56Z"/>
    <path id="bottleCreaseLine" class="cls-1" d="M1272.25,400.85a112.1,112.1,0,0,1-44.29,1.46"/>
    <path id="bottleOverlapLine" class="cls-1" d="M1265.73,381.71a147.47,147.47,0,0,1-32.9,1.09"/>
    <g id="label">
      <path class="cls-7" d="M1321.58,722.48c.19,5.68-23.18,11.13-53.46,12.76h0L1263,578.32c30.28-1.55,53.67-6.4,53.51-11.35Z"/>
      <path class="cls-7" d="M1278.58,448.94c-3.24.1-9.54-1.24-15.53-3l-7.65,34.69c9.66-.46,23-4.18,26.8-7Q1280.33,461.35,1278.58,448.94Z"/>
    </g>
  </g>
  <g id="mara">
    <g id="skinWhite-2" data-name="skinWhite">
      <path class="cls-1" d="M442.47,1135.46c56.07-7.48,167-41.63,266.64-81.5C747.73,1252.07,917.19,1262,1043,1472.52c147.58,31.39,275.17-27.61,226.31-88.51-68,.5-148-13-171-36.87-65.87-68.41-183.62-282-272.89-394.6Z"/>
      <path class="cls-1" d="M482.69,846.71c99.16-3.25,190.92-3,286.05,15.62,55.22,10.84,86.06,76.07,58.88,155.45-35.07,102.42-112.8,280.49-164.46,433.79-14.4,50.82,44,65.21,96.55,129.44-14.59,91.08-138.9,16.24-232.06-88.79,79.61-139.74,46.58-279.49,90.62-430.25-53.36,22-127,61-191.41,86.39Z"/>
    </g>
    <path id="skinOverlapLine" class="cls-1" d="M618.27,1062c12.29-44.78,35.18-78.34,64.26-90.35"/>
    <path id="maraSole" class="cls-1" d="M499.24,1645.06c-.91-15.81-7.8-42-5.08-57.74,34.64-18.9,59.34,8,105.39,36.57l-3.34,35.84C558.27,1662.73,498.81,1659,499.24,1645.06Z"/>
    <g id="maraShoe">
      <path class="cls-1" d="M1267.6,1377.24c-13.57,13-1.53,33.11-.42,41.77-97.12,43.76-206.13,58.9-234.93,44.88-6.54,22.26,8,90.18,31.58,101.6,19.4,9.4,140.69-68.89,181.83-78.6,55-13,122.18-55.4,121.65-91.61C1344.83,1346.28,1306.07,1374.07,1267.6,1377.24Z"/>
      <path class="cls-1" d="M766.07,1572.55c-18.79,1.07-29.23,31.72-34,39-102.21-30-189.16-99.15-201.9-128.54-14.85,8.17-46.45,80.28-36,104.3,8.6,19.76,142.75,43.53,180.28,63,50.19,26,143,28.61,166.2.78C855.48,1599.22,797.34,1595.18,766.07,1572.55Z"/>
    </g>
    <path id="maraStrap" class="cls-1" d="M637.28,1571.51c17.49-23,43.31-52.66,60.75-63a188.34,188.34,0,0,1-21.47-23.36c-18.91,12.15-48,45.39-66.47,70.19C618.66,1560.82,627.75,1566.24,637.28,1571.51Z"/>
    <g id="skinWhite-3" data-name="skinWhite">
      <path class="cls-1" d="M475.75,278.94c-10.8,37.47-22.32,68.79-34.37,95.69-17.58,95.71-21.63,184.6-.93,261,96.62-78,69.67-236,105-329.79"/>
      <path class="cls-1" d="M334.55,110.79c-21.37,88.26,32.51,114.27,64.1,181.44L148.83,232.71c17.57-56,43.58-110.77,12.92-232.47"/>
    </g>
    <path id="watchBand" class="cls-8" d="M544.42,328.46c-29.76-8.79-53.85-16.53-84.35-26.81-5.77-1.78-14,25-8.26,26.73C482.1,339.62,506.44,346,535.7,354.7,542,356.57,550.65,330.53,544.42,328.46Z"/>
    <path id="maraDress" class="cls-1" d="M441.81,546.84c-6.46,65.65,22,98,7.76,197.53l77.58,80.17c-72.41,47.84-2.58,284.46-103.44,415.06-125.42-54.31-288.41-61.49-349.11-164.22-84-142.23,48.47-336.21,34.91-576.68-5.91-104.85,2.4-197.28,39.32-266,83.42-90.52,169.44-25.65,194,21.17,12.08,23,35.08,31.78,57,28.21C461.14,401.75,561.89,420.36,441.81,546.84Z"/>
    <g id="clothesDisplayLine-2" data-name="clothesDisplayLine">
      <path class="cls-1" d="M443.14,598.26c-24.6,16.81-297.43,22-335.85,0"/>
    </g>
    <g id="clothesFoldLine-3" data-name="clothesFoldLine">
      <path class="cls-1" d="M410.62,636.9c8.76-24.1,22.64-21.18,21.18,8"/>
      <path class="cls-1" d="M317.12,647.86c21.91-37.25,32.87-11,22.64,30.68"/>
      <path class="cls-1" d="M358,630.33a92.42,92.42,0,0,0,.74,28.49"/>
      <path class="cls-1" d="M202.44,627.41c-3.21,12.06-4.85,24-3.66,35.79"/>
      <path class="cls-1" d="M212.66,652.24c13.88-46.75,32.14-25.56,28.49,10.23"/>
      <path class="cls-1" d="M222.89,814.4C178.06,833.22,139,861.47,110.4,907.17"/>
      <path class="cls-1" d="M232.39,831.94c-21.19,21.91-71.59,40.9-48.95,66.47,21.25,24,67.21-76,122.72-79.62"/>
      <path class="cls-1" d="M330.27,830.47c-108.11,51.14-112.49,192.85-192.84,157.78"/>
      <path class="cls-1" d="M338.3,834.13c-25.65,19.66-46.94,41.24-54.78,68.66"/>
      <path class="cls-1" d="M304,1092.71c-42.37,22.64-112.49,30.68-136.6,11.69"/>
      <path class="cls-1" d="M428.15,1096.36c-77.43,17.53-246.26,40.27-146.09,70.13"/>
      <path class="cls-1" d="M383,550.35c-13.55,17.7-28.69,32.3-46.18,42.32"/>
      <path class="cls-1" d="M405.29,552.65c-3.67,13.4-8.65,24.68-15.39,33.1"/>
    </g>
    <path id="skinWhite-4" data-name="skinWhite" class="cls-1" d="M278.41,812C163.11,789.6,19.24,735.54,3.89,679.42-17.56,601,85.56,443.72,139.64,321.28c11.22-91.83,83.89-139.08,138.77-99,53,38.78,46.81,110.44-16.33,186.73C231,446.56,191.68,533.51,135.56,620.24c68.36,52,135.55,112.59,210.19,138.77"/>
    <path id="maraNecklace" class="cls-1" d="M375.58,252.75c-46,6.62-86.17-120.18-216.47-51.64-4.52,2.25-10.28-7.91,4.53-14.86,117.16-55,165.74,44.66,202.93,53.47C382,243.37,375.58,252.75,375.58,252.75Z"/>
  </g>
  <g id="food">
    <g id="containerLight">
      <polygon class="cls-9" points="465.38 761.36 438.98 775.63 679.55 782.31 674.7 767.37 465.38 761.36"/>
      <polygon class="cls-9" points="846.64 645.94 876.53 643.19 679.55 782.31 674.7 767.37 846.64 645.94"/>
    </g>
    <g id="containerDark">
      <path class="cls-10" d="M440.12,775.66,453,792.5s12.46,31.65,16.89,41.08c5.12,10.89,13,14.26,27.41,14.66l121.05,3.37c14.43.4,22.46-2.54,28.18-13.13,4.95-9.17,19.14-40.07,19.14-40.07l13.84-16.1Z"/>
      <path class="cls-10" d="M875.6,643.85,874.17,665s7.16,33.25,8.69,43.55c1.77,11.91-2.9,19.07-14.69,27.4l-98.92,69.85c-11.79,8.33-20.1,10.34-30.73,4.69-9.2-4.89-38.14-22.76-38.14-22.76l-20.83-5.45Z"/>
    </g>
    <g id="containerMedium">
      <polygon class="cls-11" points="674.7 767.37 667.13 781.97 679.55 782.31 674.7 767.37"/>
      <polygon class="cls-11" points="465.38 761.36 470.36 776.5 438.98 775.63 465.38 761.36"/>
      <polygon class="cls-11" points="674.7 767.37 689.3 775.44 679.55 782.31 674.7 767.37"/>
      <polygon class="cls-11" points="846.64 645.94 850.89 661.3 876.53 643.19 846.64 645.94"/>
    </g>
    <g id="containerCreaseLine">
      <line class="cls-1" x1="453.04" y1="792.5" x2="665.71" y2="798.41"/>
      <line class="cls-1" x1="874.17" y1="665.03" x2="700.38" y2="787.76"/>
    </g>
    <g id="nuggetDark">
      <path class="cls-12" d="M524.47,118.74c-6.48,10.79-21.82,7.66-48.34-8.24C441.9,90,438.65,77.41,443.55,68.91l6.7-10.45,80.92,50.84Z"/>
      <path class="cls-12" d="M625.77,780.82c2.3-35.37-66.51-38.73-66.51-1.85Z"/>
    </g>
    <path id="nuggetLight" class="cls-13" d="M450.25,58.46c-4.9,8.51,13.5,25.87,35.59,38.6s40.54,20.55,45.33,12.24c4.93-8.55-8.19-23.77-30.29-36.5S455,50.3,450.25,58.46Z"/>
  </g>
</svg>
