<svg viewBox="0 0 1756.37 2405.07">
    <g class="jacob">
        <path class="soleWhiteDark" d="M1383.8,2203.91c-28.89,61.53,168.6,110.57,212.94,85.8C1598,2245.27,1475.91,2269.61,1383.8,2203.91Z"/>
        <g class="soleWhite">
            <path d="M1609.64,2215.79c-35.73-36.4-125.64-46.37-244.79-53,10.22,13.94,5.7,24.61,19,41.16,92.11,65.7,214.17,41.36,212.94,85.8C1625.47,2275,1621.49,2236.69,1609.64,2215.79Z"/>
            <path d="M1480.05,2326.45l-279.74-30.71a158.28,158.28,0,0,0,6.5,50.36c3.68,12,20.26,28.24,56.49,39.29,27.68,8.45,50.08,17.73,70.62,18.42C1426.65,2407,1500.84,2381.13,1480.05,2326.45Z"/>
        </g>
        <path class="jacobShoe" d="M1559.9,2236.06c11.67-17.2,35-30.7,49.74-20.27-25.79-49.12-115.09-35-160.53-176.84-108.68-27.91-213.39-52.43-84.26,123.8C1438.17,2213.7,1543.36,2242.9,1559.9,2236.06Z"/>
        <path class="jacobPants" d="M1090.68,1450.69c72.81-16.94,132.62-95.51,181.38-73.58,16.06-8.17,29.12-2.79,39.35,15.4,167.59,17.87,323.48-43.48,391.85,24.81,37.34,37.3,71.42,70.47,39.36,125.77,9.22,54.47-30,73.57-50.48,116.35-39.76,83-103.12,167.2-160,245.55-39.26,54.09-18.25,111.34-66.74,118.93-.13,12.61-3.31,22.11-10.66,27.36-10.22-5.56-18.63.22-25.35,16.44-26.23-24.47-94.43-35.53-154-64.72,25.35-90.1,70.51-120.51,78.65-141.49,30-77.28,59-132.61,115.81-227.78-60.09,29.91-126,51.39-181.72,60.27Z"/>
        <g class="skinGallic">
            <path d="M524.5,967.37c187.56-14.52,75.83,135.75,75.83,135.75S524.5,1043.17,524.5,967.37Z"/>
            <path d="M1572.9,1348.23l-5.11-154.8c-68.08,26.43-64-.82-121.18,19.69-54.5,4-107.21-27.81-170.4-51.64-22.69-69.69-52.23-132.16-67.14-197.4-119.51-11.59-114.38,143.1,25.67,351.42,77.64,37,146,4.08,199.19,14.79C1438.16,1335.42,1463.55,1389.42,1572.9,1348.23Z"/>
        </g>
        <path class="jacobShirt" d="M1244.78,1374.08l.49-.8c5.26-42.66-22.75-74-32.73-114.48-9.58-38.87,2.41-79.12-23.37-124.31-12.21-21.4-9.87-109.57-27.12-155.32L1198,925.91c16-4.57-22-135.15-47.72-166.73C1110.44,710.26,1041,726.89,981,709c-73.37,65.47-167.36,77.76-289.48,17.56-56.78,16.16-97.08,38.94-113.19,66.63-21.15,36.37-56.4,127.57-51.81,151.32l120.4,80.75c16.78,120.74,73.36,217.09,85.29,299.19,6.22,42.81,19.3,56.35,26.75,91.57,6.67,31.53-14.4,75.11,10,108.69,111.48-43.88,251.57-79,350-83.61C1166.68,1420.17,1208.44,1380.19,1244.78,1374.08Z"/>
        <g class="jacobShirtTrim">
            <path d="M1149.52,940.77c17.07-3.1,32.32-9.22,48.46-14.86,6.27-2.19,17,35.06,11.09,38.17-11.3,6-33.36,14.37-47,15.09C1155.59,965.52,1155.22,953.23,1149.52,940.77Z"/>
            <path d="M721.92,698.31c58.63,77.27,212.36,66,226.73-6.55,1.73-3.24,34.07,14,32.34,17.25-11.5,92-195.59,116-289.48,17.56C689.69,724.62,720.1,696.37,721.92,698.31Z"/>
            <path d="M655.87,988.91c6,4.44-8.1,40-14.94,37-19.38-8.48-109-37.87-124-41.19-7-2.84,2.51-41.11,9.58-40.24C549.65,950.26,642.46,979,655.87,988.91Z"/>
        </g>
    </g>
    <g class="mara">
        <path class="nuggetLight" d="M609.14,756.43c-4.9,8.51,13.49,25.86,35.59,38.6s40.54,20.55,45.33,12.23c4.93-8.54-8.19-23.76-30.29-36.5S613.84,748.27,609.14,756.43Z"/>
        <g class="skinAshkenazi">
            <path d="M581.36,1848.43c56.07-7.48,167-41.63,266.64-81.5C886.62,1965,1056.08,1975,1181.86,2185.49c147.58,31.39,275.17-27.62,226.31-88.51-68.05.5-148-13-171-36.87-65.87-68.41-183.62-282-272.89-394.61Z"/>
            <path d="M621.58,1559.68c99.16-3.25,190.92-3,286,15.62,55.22,10.84,86.06,76.07,58.88,155.44-35.07,102.43-112.8,280.5-164.46,433.8-14.4,50.81,44,65.21,96.55,129.44-14.59,91.08-138.9,16.23-232.06-88.79,79.61-139.75,46.58-279.49,90.62-430.25-53.19,20.94-114,56.49-191.41,86.39Z"/>
            <path d="M473.43,823.76C452.07,912,506,938,537.53,1005.2L287.71,945.68c17.58-56,43.59-110.77,12.93-232.47"/>
            <path d="M704.31,1003.85c-44.43,106.28-9.69,282.84-115.81,375.12-20.7-76.44-17.44-192.62.14-288.33,12.05-26.9,35.2-76.27,46-113.73C620,950,620.76,911.16,623.83,874.33c2.31-27.66-.33-49.39,3.88-70.43a164.8,164.8,0,0,0,32,16.82,47.8,47.8,0,0,0,0,19.22c17.24-17.54,21.06-29.67,54.57-12.25-7.34-21.89,8-28.27-23.2-41.67-23.39,10.85-48-3.51-33-17.87,15-3.83,25-19.62,34.93-17.8,27.94,5.33,45.59,16.9,49.35,24,7.22,13.71,3.29,36.94,7,48.65C753.5,845,773.2,849.5,772,871.66c-2.46,11.08,4.35,19.69-6.56,41.86C725.6,994.37,717,979.59,704.31,1003.85Z"/>
        </g>
        <path class="soleTan" d="M638.13,2358c-.91-15.82-7.8-42-5.08-57.75,34.63-18.89,59.34,8,105.38,36.58l-3.33,35.83C697.16,2375.69,637.7,2372,638.13,2358Z"/>
        <g class="maraShoe">
            <path d="M1406.49,2090.21c-13.57,13.05-1.53,33.11-.42,41.76-97.12,43.77-206.14,58.9-234.94,44.89-6.53,22.26,8,90.17,31.59,101.6,19.4,9.4,140.69-68.9,181.83-78.6,55-13,122.18-55.4,121.65-91.61C1483.72,2059.24,1445,2087,1406.49,2090.21Z"/>
            <path d="M905,2285.51c-18.79,1.07-29.23,31.73-34,39-102.21-30-189.16-99.16-201.9-128.54-14.85,8.17-46.45,80.28-36,104.29,8.6,19.77,142.74,43.54,180.28,63,50.19,26,143,28.61,166.2.78C994.37,2312.19,936.23,2308.15,905,2285.51Z"/>
        </g>
        <path class="maraStrap" d="M776.16,2284.48c17.5-22.95,43.31-52.66,60.76-63a188.34,188.34,0,0,1-21.47-23.36c-18.91,12.15-48,45.39-66.47,70.19C757.55,2273.79,766.64,2279.21,776.16,2284.48Z"/>
        <path class="maraWatchBand" d="M703.31,1026.43c-29.76-8.8-53.85-16.53-84.35-26.81-5.77-1.78-14,24.95-8.26,26.73,30.29,11.24,54.63,17.61,83.89,26.32C700.88,1054.54,709.54,1028.5,703.31,1026.43Z"/>
        <path class="maraDress" d="M580.7,1259.81c-6.46,65.65,22,98,7.76,197.53L666,1537.51c-72.41,47.84-2.59,284.46-103.44,415.05-125.42-54.3-288.41-61.49-349.11-164.21-84.05-142.23,48.47-336.21,34.91-576.68-5.91-104.85,2.4-197.29,39.31-266,83.43-90.52,169.45-25.65,194,21.17,12.08,23,35.07,31.78,57,28.21C600,1114.71,700.78,1133.33,580.7,1259.81Z"/>
        <path class="clothingGold" d="M514.47,965.72c-46,6.62-86.17-120.18-216.47-51.64-4.52,2.25-10.29-7.91,4.52-14.86,117.16-55,165.75,44.66,202.93,53.46C520.91,956.34,514.47,965.72,514.47,965.72Z"/>
    </g>
    <path class="jacobShoe" d="M1265.14,2355.31c24,9.7,58.34,24.56,71.85,16.57,25.17-35,92.71-47.89,122.8-14.73,14.42-3.07,20.12-14.29,20.26-30.7-8.63-22.71-27.67-37-43.59-52.2-38.78-37.05-55.56-92.37-74.91-113L1240,2170.48c-21,34.32-38.55,80.05-39.66,125.26C1217.25,2325,1239.41,2344.91,1265.14,2355.31Z"/>
    <path class="shoelace" d="M1412.51,2282.24c-13.69-21-25.49-41.6-34.38-61.41-35.26-4.69-69.58.64-103.16,14.13,16.46,20.4,31.82,40.69,45.44,60.79C1347.94,2281,1379,2277.65,1412.51,2282.24Z"/>
    <path class="shoeLogo" d="M1221.92,2325.14a121.7,121.7,0,0,0,42.35,29.79c8.53-22.71,19.13-42.81,32.19-59.8-15.7-12.86-29.66-25.57-41.14-38.07C1240.84,2274.56,1229.87,2297.5,1221.92,2325.14Z"/>
    <path class="jacobPants" d="M1375.8,2147.84c19-35-13.14-53.34-33.62-80.36,33.62-37.92-9.31-81.33-11.55-101.4-9.72-87.28-14.31-213.81-34.65-302.89,24.16-52.65-5.22-74.3-19.25-96.26-9.16-36.79-12.25-97.1-61.61-114.23-69.93-33.3-271.53,6.47-427.34,64.79-15.55,11.65-25,25.83-29.36,41.49,49.85,1.77,99.06,6.48,149.21,16.32,43.14,8.47,71.39,50.12,68.74,105.79,17.57,23.22,36.06,49.76,54.9,77.86,17.8-8.68,38.25-15.19,54.62-27,11.6,75,30.74,127.12,47.16,173.17,45.29,127,24,177.81,51.8,200.23,33.3,26.83,10.05,60.3,23.19,100.5,13.92,9.28,31.7-1.54,52.57,3.1,22.42-38.66,84.65-43.79,108.8-14.58,7.51,1.2,25.84-3.8,30-10.94C1387.83,2172.58,1395.13,2148.62,1375.8,2147.84Z"/>
    <g class="food">
        <g class="containerLight">
            <polygon points="604.27 1474.33 577.87 1488.6 818.44 1495.28 813.59 1480.34 604.27 1474.33"/>
            <polygon points="985.53 1358.91 1015.42 1356.16 818.44 1495.28 813.59 1480.34 985.53 1358.91"/>
        </g>
        <g class="containerDark">
            <path d="M579,1488.63l12.92,16.84s12.45,31.64,16.89,41.07c5.12,10.9,13,14.27,27.41,14.67l121,3.37c14.43.4,22.46-2.54,28.18-13.13,4.95-9.17,19.14-40.07,19.14-40.07l13.84-16.1Z"/>
            <path d="M1014.49,1356.82l-1.44,21.18s7.17,33.24,8.7,43.55c1.77,11.91-2.9,19.07-14.69,27.4l-98.92,69.85c-11.79,8.33-20.1,10.34-30.73,4.69-9.2-4.9-38.14-22.76-38.14-22.76l-20.83-5.45Z"/>
        </g>
        <g class="containerMedium">
            <polygon points="813.59 1480.34 806.02 1494.94 818.44 1495.28 813.59 1480.34"/>
            <polygon points="604.27 1474.33 609.25 1489.47 577.87 1488.6 604.27 1474.33"/>
            <polygon points="813.59 1480.34 828.19 1488.4 818.44 1495.28 813.59 1480.34"/>
            <polygon points="985.53 1358.91 989.77 1374.27 1015.42 1356.16 985.53 1358.91"/>
        </g>
        <g class="containerCreaseLine">
            <line x1="591.93" y1="1505.47" x2="804.6" y2="1511.38"/>
            <line x1="1013.05" y1="1378" x2="839.27" y2="1500.73"/>
        </g>
        <g class="nuggetDark">
            <path d="M769.71,1493.87c-9.69-59-78.44-48.13-79.7-2.16Z"/>
            <path d="M644.73,795c-22.1-12.74-40.49-30.09-35.59-38.6l-6.7,10.44c-4.91,8.51-1.65,21.08,32.58,41.6,26.52,15.89,41.86,19,48.34,8.24l6.06-8.54C683.78,814.94,665.94,807.25,644.73,795Z"/>
        </g>
    </g>
    <g class="clothesDisplayLine">
        <path d="M1267.48,2269.51c-16,21-25.71,39.86-33.53,67"/>
        <path d="M1282.68,2283.47c-15.61,19.74-25.7,37.56-35,63"/>
        <path d="M582,1311.23c-24.6,16.81-297.43,22-335.85,0"/>
    </g>
    <g class="clothesOverlapLine">
        <path d="M1121.28,874.76q21.73,33.81,28.24,66"/>
        <path d="M1084.17,1663c-6,18.87-.78,49.54,1.72,68.9"/>
        <path d="M1161.14,1584.74c-19.12,31.91-40.37,61.94-77,78.28-49.17-84.87-4.71-146.41-19-150.68-12.47-3.73-21.26,23.44-28,67.46"/>
        <path d="M1403.33,2267.72c-33.76-1.19-64.9,2.9-92.31,14.53"/>
        <path d="M1397,2257.06q-53.51-2.46-94.38,13.54"/>
        <path d="M1390,2244.74c-34.23-.32-66.16,4.41-96.24,14.16"/>
        <path d="M1383.75,2232.7c-36.27-1.14-69.3,3.82-98.75,14.86"/>
    </g>
    <g class="clothesFoldLine">
        <path d="M1216.19,1317.11c4.84,23-32,38.06-67.66,61.62"/>
        <path d="M713,1187.23c58.6,22.35,143.26,24.09,181.23,42.29"/>
        <path d="M817.48,1196.29c34.67,10.18,81.06,9.94,132.91,4.83"/>
        <path d="M891.87,1331.18c-24.51,2.28-49.08,4.73-73.18,7.68"/>
        <path d="M1162.43,1281.47c-41.76,22.75-104.7,33.09-174.56,40.58"/>
        <path d="M985.46,1301.91c49.9-9.68,82.73-27.48,112.33-67,29.46-39.27-45.91,0-111.76,1.21"/>
        <path d="M816.27,1317.11c40.48-2.56,74.91-4.45,104.65-7"/>
        <path d="M1172.7,1190.85c-80.35,74.91-178.82,136.53,11.48,67.06"/>
        <path d="M1173.3,1159.44c-41.29,25.17-87.74,45.17-144.38,55"/>
        <path d="M1141.89,1019.29c-70.15,27.56-143.08,43-219.29,44.1"/>
        <path d="M1124.37,1051.31c-105.72,19.33-221.71,39.87-343.13,32.62"/>
        <path d="M1128,818.72c1.82,23,9.68,47.4,4.23,56.79"/>
        <path d="M1100.21,793.35c14.11,25,22.13,51.89,21.07,81.41"/>
        <path d="M1062.75,808.45c14.08,22.81,32.64,30.3,44.71,47.73"/>
        <path d="M1070.6,835.64c11.48,14.5,36.25,23,40.48,38.66"/>
        <path d="M1089.29,1628.61c-4.38-58.68,46.62-114.63,56-105.28,9.94,9.91-27.47,30.14-27.47,74.57"/>
        <path d="M1190.44,2048.69c-9,52,118.47,38.64,131.19-6.1"/>
        <path d="M1342.18,2067.48c-28.69,29.52-82.08,35.62-43.94,40.19,27.77,3.34,50.84,18.82,60.51,4.58"/>
        <path d="M1214.85,2107.67c43.73,33.56,92.64,11.07,95.59,26.95,3.75,20.16-70.68,27-77.29,43.73"/>
        <path d="M1272.06,1377.11c-16.65,8.88-34.75,28.18-53.58,52.72"/>
        <path d="M1311.41,1392.51c-22.89-5.94-41.55,7.18-57.79,31.21"/>
        <path d="M1564.51,1441.29c-39.72,19.1-85.2,62.82-103.88,137.5"/>
        <path d="M1636.32,1448.93c24.2,6.8-45.07,45.83-105.42,94,16.81-30.56,45.95-54,40.49-69.52"/>
        <path d="M1506.46,1507.75c23.11-23.33,35.09-32.28,39.38-31.28,12.88,3-69.94,82.46-76,157.26"/>
        <path d="M1605,1540.59c-45.77.61-84.58,20-112.29,69.52"/>
        <path d="M1742.62,1543.09c0-13.29-4.68-25.51-13.11-36.87"/>
        <path d="M1335.35,1934.75c48.23,10.83,91.19-8.46,131.39-43.54"/>
        <path d="M1492,1900.38c-30.56,38.19-84.79,58.81-19.87,94.72"/>
        <path d="M1433.89,2003.5c-38.19-56.53-58.82-26-95.48-42.78"/>
        <path d="M1465.41,2023.92c-13.79,2-41.07-2.65-36.87,9.82"/>
        <path d="M1348.83,2007.46q19.93.09,39.87,10.73"/>
        <path d="M549.51,1349.87c8.76-24.1,22.64-21.18,21.18,8"/>
        <path d="M456,1360.83c21.91-37.26,32.87-11,22.64,30.68"/>
        <path d="M496.91,1343.3a92.66,92.66,0,0,0,.73,28.48"/>
        <path d="M341.33,1340.37c-3.21,12.07-4.85,24-3.66,35.8"/>
        <path d="M351.55,1365.21c13.88-46.75,32.14-25.57,28.49,10.23"/>
        <path d="M361.78,1527.37c-44.83,18.81-83.94,47.07-112.49,92.77"/>
        <path d="M371.27,1544.9c-21.18,21.92-71.58,40.91-48.94,66.48,21.25,24,67.21-76,122.72-79.62"/>
        <path d="M469.16,1543.44c-108.11,51.13-112.49,192.84-192.85,157.78"/>
        <path d="M477.19,1547.09c-25.65,19.67-46.94,41.24-54.78,68.67"/>
        <path d="M442.86,1805.68c-42.37,22.64-112.49,30.68-136.6,11.68"/>
        <path d="M567,1809.33c-77.43,17.53-246.26,40.27-146.09,70.12"/>
        <path d="M521.86,1263.31c-13.55,17.71-28.69,32.31-46.18,42.33"/>
        <path d="M544.18,1265.62c-3.67,13.39-8.65,24.67-15.4,33.1"/>
        <path d="M1375.8,2147.84c-18.8,15-22.78,20.06-1.87,23.18"/>
    </g>
    <g class="bottle">
        <g class="labelReverse">
            <path d="M1573.32,1360.85c-.2-6.11-35.84-11.39-70.22-8.77L1498,1198c34.37-3,70,2,70.17,7.34Z"/>
            <path d="M1533.59,1109.75q-2.05-13.57-4-27.32c-4.24-2.08-17-2.93-25.39-2.78l9.62,34.12C1519.11,1111.35,1529.06,1109,1533.59,1109.75Z"/>
        </g>
        <ellipse class="bottleBottom" cx="1513.87" cy="1405.72" rx="53.17" ry="11.89" transform="translate(-45.4 50.53) rotate(-1.88)"/>
        <path class="beerSide" d="M1572.06,1322.31c0,6.15-27.27,11.14-60.92,11.14s-60.93-5-60.93-11.14h0l2.57,78.33c.7,25.42,122.68,21.41,121.71-4l-2.44-74.33Z"/>
        <ellipse class="beerTop" cx="1511.14" cy="1322.31" rx="60.92" ry="11.15"/>
        <path class="bottleSide" d="M1551.93,1155.93c-6.48-5.75-12.91-13.45-15.58-28.28q-6.9-43.32-12.36-88.43c3.37-1.14,5.34-2.48,5.3-3.85l-.52-15.58c-.11-3.41-12.54-5.76-27.77-5.26s-27.47,3.67-27.36,7.07l.51,15.58c0,1.38,2.1,2.58,5.54,3.49q-2.51,45.36-6.53,89.06c-1.68,15-7.59,23.08-13.68,29.24-10.65,9.93-14,19.44-13.31,40.78l6.61,200.89c.7,25.42,122.68,21.41,121.71-4l-6.6-200.89C1567.18,1174.41,1563.21,1165.13,1551.93,1155.93Z"/>
        <path class="bottleCreaseLine" d="M1524,1039.22a112.14,112.14,0,0,1-44.3,1.45"/>
        <path class="bottleOverlapLine" d="M1517.47,1020.08a147,147,0,0,1-32.91,1.08"/>
        <g class="label">
            <path d="M1573.32,1360.85c.18,5.68-23.19,11.13-53.46,12.76h0l-5.16-156.92c30.27-1.55,53.66-6.4,53.5-11.34Z"/>
            <path d="M1530.31,1087.31c-3.24.09-9.54-1.24-15.53-3l-7.65,34.68c9.67-.46,23-4.18,26.8-7Q1532.07,1099.7,1530.31,1087.31Z"/>
        </g>
    </g>
    <path class="hairMediumBrown" d="M1041.46,254.81c46.3-51.62-1.35-83.62-6.59-95.6-13.53-30.91,4.77-96.41-72.22-95.2,5.3-7.58,7.09-16,5.94-25.25-53.66,32.59-94.5-63.26-216-4,3.87-11.2,2.7-22-1.84-32.6C699.57,81.48,606.33-.67,584.65,111.46c-89.73,34.38-36.87,91-114.27,127.51,5,14.3,13.56,23.36,26.13,26.63-38.68,63.22,27.41,147.06-34.39,186.53,7.4,17.52,20.73,28.91,43.25,30.84,7.29,56,76.58,69.27,34.82,104.22,16.19,10,32.91,10.86,50.32-.09,8.48,39.31,58.34,39.46,64.91,71.42,14.22-2.47,24.63-9.46,31.91-20.17,38.29,16.08,75.15,11.48,111-7.3l243.11-376.24"/>
    <g class="eye">
        <g class="sclera">
            <circle cx="937.3" cy="366.7" r="108.63"/>
            <circle cx="549.2" cy="567.31" r="36.41"/>
        </g>
        <path class="irisGreen" d="M565.39,589c2.62-.09,8.58-10.18,8.16-22.35s-7.09-21.82-9.72-21.72A116.52,116.52,0,0,0,565.39,589Z"/>
        <g class="irisHazel">
            <ellipse cx="891.46" cy="379.13" rx="20.98" ry="24.3" transform="translate(-27.75 73.36) rotate(-4.64)"/>
            <ellipse cx="1026.84" cy="368.14" rx="16.91" ry="24.3" transform="translate(-26.42 84.28) rotate(-4.64)"/>
        </g>
        <g class="pupil">
            <ellipse cx="894.15" cy="378.91" rx="8.16" ry="9.45" transform="translate(-27.72 73.58) rotate(-4.64)"/>
            <ellipse cx="1030.09" cy="367.87" rx="6.58" ry="9.45" transform="translate(-26.38 84.54) rotate(-4.64)"/>
            <path d="M570.69,575.35c2.11-.08,3-4,2.86-8.68s-1.36-8.53-3.46-8.46A62.32,62.32,0,0,0,570.69,575.35Z"/>
        </g>
    </g>
    <g class="skinGallic">
        <path d="M1446.61,1213.12c-32.34,10.94-38.88,48.78-17,59.05,9.66,4.52,20,17,27.68,16.84,23.29-.34,16.31-50.45-10-54.72Z"/>
        <path d="M1567.79,1193.43l.67,19.69c-18.36,15-24.78,41.55-5.52,45.56-4,4.43-4.68,6.75-4.69,10.84-33.7,12.06-38.9,42.38-20.45,47.19-20.82,13.37-10.5,44,12.76,37.23-7.15,11.89-2.54,30.55,12.64,29.21,11.43-1,24.24-5,30.3-9.06,10.22-6.88,12.22-29.93-.16-35.8,20.12-11.9,21.47-37.77,7.07-48,16.06-16.06,13.54-40-3.93-47.22C1620.25,1207.73,1594.37,1186.74,1567.79,1193.43Z"/>
        <path d="M560.12,1419.6c-8.09-36.18,15.21-32.68,20.66-45.57,13.53-32,30.23-13.09,35.64-32,14.9-28.43,35.2-5.87,55.05-11.28,10.35-2.82,13.1-14.6,42.42,2.71,37.45,22.11,23,87.54,65.43,120,10,7.52-1.54,21.29-18.69,16.74a39.36,39.36,0,0,0-16-13.51c3.31,11.64,6.8,30.77,2.44,36.63l-31.47-.88c-4.56-3.27-8.61-22.32-14.15-34.87-3.33,15-34.49,20.18-43.74,5-5.43,13-33.69,14.79-41.76,2C586.79,1486.21,570.8,1457.55,560.12,1419.6Z"/>
        <path d="M680.72,498.5c33.89,56.78,52.11,153,41.2,199.81,58.63,77.27,212.36,66,226.73-6.55-15.34-9.93-18.69-44.58-14-75.88"/>
        <path d="M695.38,514c-44,20.38-48.91-15.08-74.43-34.86C657.54,454,679.86,425,689.35,392.4c17.4,16.31,31.55,10.4,23.26-7.64-17-37,25.75-63.94,45.95-109.69,111.21,9.11,129.55-64.52,177.58-112.93,37.17-18.17,66.2-23.65,78.59-3.2,23.74,40.24,22.5,103.9,39,139.58,5.47,11.78-1.78,23.53-5.3,38.92-1,5.58,5.22,13.84-1.63,23.87,4.36,5.42,4.62,12.32.85,20.67,53.64,124.55-21.94,202.28-32.75,244.75-13.58,53.35-86.38,58.37-148.22,28.41-17.25-8.36-77.16-15.69-124.13-62.14M912.77,373.63c-23.36-17.57-49.82-2.71-69.38,5,16.25,5.36,41.89,8.38,63-.94C909,376.51,917.94,377.52,912.77,373.63Zm129.52-13.21c-6.94-10.95-34.37-1.54-44.11,4.5C1005.2,363.05,1037.35,377.5,1042.29,360.42Z"/>
    </g>
    <g class="skinAshkenazi">
        <path d="M567.45,1441.49c-51.38-8.73-70.8,30.68-92,25.22-74.34-24.55-132.69-81.47-201-133.5C330.57,1246.48,369.91,1159.53,401,1122c63.14-76.3,69.38-148,16.32-186.73-54.87-40.1-127.54,7.15-138.76,99-54.08,122.44-157.2,279.7-135.75,358.14C158.13,1448.51,302,1502.56,417.29,1525c64.56,12.85,67.85,52.34,137,41.37,8.23-2.74,24.24,12.36,40-.86,10.64,11.21,30.18,8.34,35.63.31,15.47,19.55,33.37,8.75,37.29-2.24,5.72-13.25-30.44-39.69-48-73.84l20.51.57C621.05,1473.81,611.41,1449,567.45,1441.49Z"/>
        <path d="M578.78,440c35,100,2.66,102.69,15.14,132.81,21.15,51,58.89,68.45,49.28,98.05-5.89,11.42-25.14,15.3-35.28,7.34-3.11.8-8.24,2.92-11.62,3.86,3.72,19.84,16.47,21.44,21.43,31.32-1.11,7.59-8,17.46-12,17.18-17.91-3.14-34.28,1.94-42.22,2.68.63,10.52,52.11,12.42,34.39,42.43-34.87,15.26,6.86,52.57-34.48,75.65-15.72,8.77-45-7.71-70.05-16-45.3-15-135.6-35.24-146-155.52C342.09,530.06,393.39,267.23,578.78,440ZM571.7,556.17c-13.76,3.81-21.84,7.75-32.6,14.35,12.93,2.24,22.48,5.77,32.42,7.23C574.46,573.08,574.05,561.56,571.7,556.17Z"/>
    </g>
    <g class="skinOverlapLine">
        <path d="M1596.48,1243.06c-7.85,6.71-21.4,18.92-33.54,15.62"/>
        <path d="M1600.41,1290.28c-27.37,25.21-42.92,23-62.61,26.43"/>
        <path d="M1593.34,1338.29c-14.17,9-31.8,14.26-42.78,15.65"/>
        <path d="M596.66,1410.67c6.25,14.07,12.11,41.66,19.32,53.85"/>
        <path d="M635,1391.36c8.2,24.62,14.38,50.81,22.7,71.21"/>
        <path d="M675.12,1373.53c10.94,25.41,16.52,56.92,26.36,84"/>
        <path d="M719.39,1358.13c10.57,28.27,13.39,59.65,25.27,98.54"/>
        <path d="M600.33,1533.76c8.62,8.92,19.71,21.25,29.59,32.07"/>
        <path d="M594.29,1565.52a44.7,44.7,0,0,1-6-6"/>
        <path d="M742.69,843.62a202.08,202.08,0,0,0-28.39-15.93"/>
        <path d="M727.64,891.47C690.38,884,678.42,869.59,663,900.7c-15.72,31.8-5.81,22.91,16.41,45.13,9.23,8.2,22.22-14.36,8.89-24.61,7,4.58,14.15,7.16,21.54,6.83"/>
        <path d="M735.16,866.52c-42.73-13.33-45.8-33.84-77.25,9.23-10.15,13.89-19.83,30.77-1.73,41"/>
        <path d="M659.73,839.94c-26.09,25.55-13.45,33.07-9.84,48.38"/>
        <path d="M757.16,1774.94c12.29-44.79,35.18-78.34,64.26-90.35"/>
    </g>
    <g class="skinFoldLine">
        <path d="M1276.21,1161.48c-19.53-2.36-48.18,7.52-53.12,24.32"/>
        <path d="M619.22,1489.75c-4.23-7.88-14.5-17.17-30.39-20.81"/>
        <path d="M673.39,919.9c2.93,2,10.45,2.33,14.94,1.32-.28-2.12-3.21-7.45-.28-15.45"/>
        <path d="M691.1,786c3.44-1.66,5.8-3.55,9.11-7.33"/>
        <path d="M1433.93,1330.29a45.52,45.52,0,0,1-8.13-24.57"/>
        <path d="M659.78,445.25c19.24,20.9,6.3,42.8-10.38,10.89"/>
    </g>
    <g class="head54__edited">
        <path class="lipMaleMedium__noStroke" d="M994.73,521.46c-11.06,6-29.24,7.46-43.15,4.87-19.28,4.8-48.62,3.28-65.9,16.94,24,4.6,21,55.34,78.15,48.8,62.85-11.28,13.09-63.39,40-64.91C999.58,525.49,996.16,524,994.73,521.46Z"/>
        <path class="mouthInner" d="M895.71,539s-.8.22-3.77,1.39c36.78,34.39,95.39,30.64,96.3,10.32C968.86,566.4,915.27,555.57,895.71,539Z"/>
        <path class="teeth" d="M990.71,530.13c-24.47,11.22-57.05-4.27-95,8.88,19.56,16.56,73.15,27.39,92.53,11.71l.44-.21C992,548.5,992,536.25,990.71,530.13Z"/>
        <g class="eyeFoldLine">
            <path d="M1047.7,382c-4.31,6.67-19.7,10.44-31,6.39"/>
            <path d="M908.91,395.56c-13.45,9.63-32.19,12.58-49.61,8.3"/>
        </g>
        <g class="eyebrowMediumBrown">
            <path d="M932.22,304.93c-20.9,32.06-70.43,5.35-126.46,41C856.66,291.54,890.79,311.18,932.22,304.93Z"/>
            <path d="M1054.39,300c-21.56-5.07-39.74,4.74-58.41,2.33,12.42,16.61,28.62,9.82,57.73,17.25C1055.7,312.62,1056.76,306.29,1054.39,300Z"/>
        </g>
    </g>
    <g class="head49">
        <g class="lipFemaleMedium">
            <path d="M563.54,733.22c7.94-.74,24.31-5.82,42.22-2.68,4,.28,10.86-9.59,12-17.18C597.57,712.8,584.81,724.76,563.54,733.22Z"/>
            <path d="M563.54,733.22c-2,2.51,11.93,33.33,34.39,42.43C615.65,745.64,564.17,743.74,563.54,733.22Z"/>
        </g>
        <path class="eyebrowRed" d="M587.31,499.84c-.68,24.16-16.84,18.6-41,22.52-36.18,5.87-37.92,21.64-44.67,15C525.74,502.78,566.11,507.1,587.31,499.84Z"/>
        <path class="hairRed" d="M604,480.24c45.39-31-30.69-147.8-68.78-149.53l-53.11-28.1c-25.17-82.12-278.52-79.23-369.36,28.25C67,385,51.41,462.88,22.17,518.85-44.93,647.29,68.73,754.18,71,799.21c1.58,31.07-34.25,61.47-63.88,35.32,14.71,33.55,58.51,60,97.1,54.19-9.44,9-23.41,15.48-34.48,16.75,28.85,26.88,112,21.1,134.91,2.67,39.7,33.25,111.9,14.29,134.09-17.67,78.9-7,102.81-78.73,92.94-158.35-8.09-65.3-34.55-122.88-31-200.83,33.06-46.69,68-49.32,58.48-128.19C513,393,580.74,491.53,604,480.24Z"/>
        <path class="maraHeadband" d="M535.17,330.71c-19.19-21-59.88-37.09-87.54-36.57-33.06,17.31-43.47,88.24-45.93,175.5C455.15,402.72,502,358.63,535.17,330.71Z"/>
    </g>
    <g class="lipOverlapLine">
        <path d="M891.94,540.4a102.77,102.77,0,0,0-14.6,7.17"/>
        <path d="M1006.82,527.67c-5.27-1.28-10.26-.64-16.11,2.46"/>
    </g>
    <g class="lipEdgeLine">
        <path d="M994.73,521.46c-11.06,6-29.24,7.46-43.15,4.87"/>
        <path d="M996,572.19c-6,19.41-48.87,29.6-75,9.41"/>
    </g>
    <g class="cheekLine">
        <path d="M577.74,631.18c18.64,46.22-15.28,48.87-34.8,107"/>
        <path d="M1007.73,481.77c4.4,5.32,7,13.51,9,20.25"/>
        <path d="M928.77,461.57c-8.77,10.4-25.88,23-39.87,37.88s-23.62,30.76-24.47,42.74"/>
    </g>
    <g class="noseLine">
        <path d="M615,677.16c-12.25-.42-25.87,13.36-39.37,1.38"/>
        <path d="M928.77,461.57c-7.93,10-6.27,24.49,3.09,30.86"/>
        <path d="M989.2,418.87c15.79,34.12,40.19,52.43,11.47,67.52-19.39,10.19-33.1-6.93-49.33,1.68"/>
    </g>
    <g class="eyeLidLine">
        <path d="M571.7,556.17c10.47-3.06,7-15.25,3.44-22.39"/>
        <path d="M571.52,577.75c9.71,5.31,5.56,12.36-2.06,18.67"/>
    </g>
    <g class="eyeCornerLine">
        <path d="M821.07,382.89a57.5,57.5,0,0,0,22.32-4.3"/>
        <path d="M984.3,371.29a62.46,62.46,0,0,1,13.88-6.37"/>
        <path d="M539.1,570.52c-5.91,3.12-12.84,6.47-21.56,6.36"/>
    </g>
    <g class="eyeCreaseLine">
        <path d="M912.83,363.68c-19.12-21-48.43-13.84-65.74.85"/>
        <path d="M1050.11,350.17c-15.77-9.83-39.82-6.76-57.48,7.29"/>
        <path d="M534.25,562.6c12.56-14.54,36.33-16.83,43.68-21.93"/>
    </g>
    <g class="hairOverlapLine">
        <path d="M936.14,162.14c16.45-20.57,34.83-33.51,55.27-38.32"/>
        <path d="M758.56,275.07c-18.21-3.87-33.53-10-46.4-18"/>
        <path d="M621,479.15c-9.66,6.12-19,10.54-27.87,12.84"/>
        <path d="M352.21,874c-14,6.52-32,7.69-52,2.34,4.75,6.84,24,13.68,38.57,14.17"/>
        <path d="M401.7,469.64c-2.65,18.65-.26,43.35-1,61.65"/>
    </g>
    <path class="hairEdgeLine" d="M962.65,64C884.92,79.18,851.1,222.47,769.51,197.39"/>
</svg>
