<svg viewBox="0 0 638.34 2136.93">
  <g class="anitaDress">
    <path d="M583.41,966.79c37.92,89,52.58,238.69,51,372.61-.83,69.82,1.46,77.74,3,146.14.18,8-34.56,9.44-53.08,10.17-12.61,15.32-382.09,6.3-410-7.94-7.52-5.25-18.89.23-20.37-8.06-6.13-34.27,8.75-78.67,9.7-139.39.88-57.06,6.86-71.39,10.74-133.54,4.73-75.8,15.1-170,35.39-215.75C266.1,1048,520.28,1040.89,583.41,966.79Z"/>
    <path d="M579.62,927.52c8-7.81,17.22-56,2.28-77.35,10.65-42.57-3.54-12.73-4.25-46.79-2.16-103.6,48.57-263.49-36.9-286-38.3-8.65-61.16-22-86.56-21.28L252.67,508.21c-23.41,14.9-41.86,12.06-67.8,29.09-36.5,50.38-20.06,93.31-23,146.17-5.67,101.46,17.26,92,14.9,116.94,0,40.44,7.38,44.55,12.77,71.05s-2.12,52.51,19.9,80.86C275,1018.74,542.43,996.6,579.62,927.52Z"/>
  </g>
  <path class="anitaBelt" d="M209.72,991c56.38,56.94,310.56,49.86,373.69-24.24-3.87-11.17-4.82-24.49-3.79-39.27-37.19,69.08-304.66,91.22-370.2,24.8C211.86,968.3,212.85,982.38,209.72,991Z"/>
  <g class="hairBlack">
    <path d="M57.59,268.81c-22-56.16-9.88-129.65,18.63-162.11,73.9-105.54,293.5-157.22,380.06-34,44.46,63.3,46.32,237.92-26,276.56C105,295.5,100.38,277.26,57.59,268.81Z"/>
    <path d="M533.54,437.28c76.82-77.2,67-369.65-30.63-408.86-28.25-11.34-52.1-5.43-73.38,20.52l20.59,25.58c27.74-13.32,42,5.09,36.31,57.59C461.29,364.71,538.08,353.45,533.54,437.28Z"/>
  </g>
  <path class="hairOverlapLine" d="M307.71,246.15c15.58-3.7,31.55-9.81,39.85-15.09,3.81-7.85-11.18-57.19-23.34-83.84"/>
  <g class="anitaBarrette">
    <path d="M443.73,47.45c4,1.73,7.63,17.89,5.65,21.73-1.14,2.22-16,6.43-18.23,5.27-2.39-1.27-7.42-17.21-6.31-19.68C426.15,51.86,440.8,46.18,443.73,47.45Z"/>
    <path d="M449.38,69.18c-1.14,2.22-16,6.43-18.23,5.27-3,.35-4.95,23-3,25.32,3.46,4,28.91-.68,31-5.3C460.29,92,452,68.44,449.38,69.18Z"/>
    <path d="M424.84,54.77c1.31-2.91,16-8.59,18.89-7.32,4.34-.84,4.22-28.95.26-30.92-8.87-4.4-31,11.1-32.7,18C410.72,36.92,422.72,55.91,424.84,54.77Z"/>
  </g>
  <g class="clothesFoldLine">
    <path d="M584.26,1495.71c.57-42.8,2.66-100.85,15.53-141.16"/>
    <path d="M174.26,1487.77c1.81-22.56,2.15-43.41-5.69-75.49"/>
    <path d="M527.8,1201.3c-49.89,165.37-181.66,300.42-287.95,101.22"/>
    <path d="M535.64,1130c48.65-41.85-34.92-34.21-101.92,11.4"/>
    <path d="M266.22,1088c-13.67,13,23.91,29.46,67.71,46.32"/>
    <path d="M221.31,1123.62c-5-49.18,39.21-3.56,69.86,9.27"/>
    <path d="M414.46,1026.65c1.38,17,2,34.71,2.15,52.87"/>
    <path d="M433.72,1024.65c1.59,12.19,2.8,23.19,3.56,32.77"/>
    <path d="M553.14,990.55c8,14.6,12.37,32.13,14.58,51.5"/>
    <path d="M567.72,981.19a63.15,63.15,0,0,1,12.12,28.48"/>
    <path d="M240.1,1009.67c-4.29,8.25-6.89,15.67-7.38,22.09"/>
    <path d="M220.93,1000c-6.74,11.85-9.73,23-11.51,35.38"/>
    <path d="M581.9,850.17q-5.29,15.74-11.78,18.74"/>
    <path d="M488.28,841.48c-1.62,25.7-6.24,40.22-21.23,67.47"/>
    <path d="M472.66,822.3c-5.61,27.57-8.85,36-18.47,47.14"/>
    <path d="M207.3,765.27c13.06,41.23,22.47,74.93,41.23,94.89"/>
    <path d="M212.8,827c5,25,10.73,53.92,26.8,70.28"/>
    <path d="M207.3,925.25c1.11,13.46,4.78,25.5,12.18,35.52"/>
    <path d="M246.67,939.6c1.94,17,5.2,31.25,11.5,39.1"/>
    <path d="M262.48,953.29c-3-19.16,21.59-8.21,9.36,29.16"/>
    <path d="M380.15,950.85q-1.83,23.88,3.65,41"/>
    <path d="M396.41,966.79a56.74,56.74,0,0,0,2.29,24.38"/>
    <path d="M570.5,904.93a93.5,93.5,0,0,1-7,40.75"/>
    <path d="M550.18,906.25c-23-4.86-1.34,28.3-12.92,54.9"/>
    <path d="M444,90.79c4.69,4.88,4.19-6.57.48-18.93"/>
    <path d="M431.73,31.38c5.39-12.87,8.91.79,7.39,16.41"/>
    <path d="M436.56,85.08c2.89-2.11,1.74-6.61.6-11.11"/>
    <path d="M425.61,38.12c2.94,1.16,5.54,7,6,12.29"/>
  </g>
  <g class="eye">
    <rect class="sclera" x="94.21" y="302.83" width="178.91" height="43.98"/>
    <g class="irisDarkBrown">
      <ellipse cx="126.13" cy="330.83" rx="19.87" ry="20.4" transform="translate(-29.13 12.63) rotate(-5.14)"/>
      <ellipse cx="247.13" cy="319.94" rx="19.87" ry="20.4" transform="translate(-27.67 23.43) rotate(-5.14)"/>
    </g>
    <g class="pupil">
      <ellipse cx="126.13" cy="330.83" rx="7.73" ry="7.93" transform="translate(-29.13 12.63) rotate(-5.14)"/>
      <ellipse cx="247.13" cy="319.94" rx="7.73" ry="7.93" transform="translate(-27.67 23.43) rotate(-5.14)"/>
    </g>
  </g>
  <g class="skinEastAsian">
    <path d="M562.48,1587.91c-5.36-20.12,0-56.59,6.42-88.11-31.55,4-106.21,4.68-182.33,3.06,7.12,54.55,20.33,93.2,25.77,142.94,14.1,128.91,60.07,261.48,40.06,327.92-8.77,29.12-28.31,50.86-52.2,68.78,66.07,65.63,194.9-8.57,174.36-72.53C531.5,1888,603.67,1742.35,562.48,1587.91Z"/>
    <path d="M336.62,1599.33c-3.73-22.37,3.95-60.16,14.31-97.4-81.91-2.5-157.86-7.44-174.81-13.39,3.17,40.79,7.49,73.94,6.27,101.63-6,136.23,47.53,283.17,38.91,332.84-6.33,36.44,2.66,53.85-44.48,120.27,40.11,85.61,188.57,16,148.45-69.56-6.61-21.46,5.24-30.94-1.88-57.29C312.87,1877.5,358.14,1728.37,336.62,1599.33Z"/>
    <path d="M399.9,348.13c-10.73,78.33,4.29,137.34,54.29,148-52,43.74-42.88,66.14-71.71,89.44-61.78,49.9-171.39,23.48-129.81-77.38"/>
    <path d="M161,709.74a307.27,307.27,0,0,0,1.88,41.88C146,773.34,134,793.24,120.32,805.21,84.14,837-3.45,828.7,6.7,744.28c-14.47-21.42,1.72-41.8,14.21-74C28.21,651.5,37.47,631,65.05,627.1c16.19-10.79,26.53-30.12,43.16-19.78,2.41-3.1,6.48-5.22,13-5.84,9.44-21.58,37.38-52.14,61.36-61-17.46,25.5-21.58,49.17-21.93,73.3,3.55-6.82,11.55-4.4,16.41-1.68,5.44-13,21.19-4.86,29.59-4.42,9-7,32.9,3.35,42.86,8.18,33-.38,47.31,16.09,65.12,32.52,29.87,27.55,34.4,74.06,40.75,74.47,54,8.25,107.28-11.57,147-12.67-1.81-13.82-1.59-33.16,0-58-18.24-92.3-.43-128,38.72-130.13,79.56,5.45,67.11,108.47,76.8,156.15,8.58,42.24,16.64,119.49-3.81,137.75-59,52.68-190.18-15.87-301.9-34.92C265,790,216.57,773.72,198.39,741.56c-12.24-21.65-18.71-20.53-28-41.51C167.42,704.45,162.71,708.17,161,709.74Zm.07-76.16c.55,9.15.71,18.11,1.08,26.72,6.69-5.07,18.24.71,18.59,10.37,18.79,1.79,23.26,29.27,39.35,36.14-15.55-25.49-10.12-39.22-31.56-58C178.73,647.74,167.32,641.49,161,633.58Z"/>
    <path d="M363.33,444.22c-17.92,26.42-43.28,47.47-74.69,62.32C258.5,520.78,246.75,536.16,209,536c-36.62-.17-32.93-19-54.16-36.1C94.77,451.59,92,389.4,94.1,355.79c.19-6.77-13.72-14.59-.37-21.84C80.94,328.25,85,319.26,81,314.27c-6.92-8.51-8.9-23-8.4-42.71a161.71,161.71,0,0,1,2-44.71c2.24,16.64,5.16,33,9.38,43.07,10,1.16,30.39.54,40.31-1.85a75.3,75.3,0,0,1,5.51-34.78,167.12,167.12,0,0,0,6.59,34c9.54,1.11,26.69-.43,37.53-2.2a306.78,306.78,0,0,1,3.08-70.61c.9,23.68,5.33,46.88,15.27,69.36,10.31,1,44.12-3.19,58.62-8a84.59,84.59,0,0,1-.54-32.17c3.56,10.71,7,22.62,10.89,30.46,11.73-.67,32-4.06,46.54-7.93,42.64,24.07,60.58,49.89,51.67,85.15,29.32-19.15,17.05-42,29.77-44.73-.39-39.26,50.6-44.63,56.94-4.73,7.61,36.23-12.15,49.58-15.77,67.43-2.89,18.84-17.81,37-39.24,23.08m-182.88-43c27.07,9.91,48.08.05,59.72-16-15.15-3.15-28.88-8.26-41.7-7.56-13.6.75-20.31,6.78-23.33,19.63C201.57,331,205.83,328.46,208.2,329.33Zm-69.45,1.12c-4.93-6.31-11.49-13.8-20.48-13-10.1.89-15.73,6.46-22,9.06-.52,3.6-.47,9,.82,11.87,23.06,14.2,32.26-2.89,38.22-3.2C138.7,335,140.71,333,138.75,330.45Z"/>
  </g>
  <g class="head49__edited">
    <path class="lipFemaleMedium__noStroke" d="M163.85,463.61c7.25,2.18,2,7.85,5.77,15.3,10.35,20.18,35,20,52.56.87,4.59-5,5.94-9.84,15.65-15.88a56.83,56.83,0,0,1-12.64-.43l-53.61-1.22A19.39,19.39,0,0,1,163.85,463.61Z"/>
    <path class="lipFemaleMedium" d="M163.85,463.61c7.82-7.64-9.58-17.8-1.69-23.63,4.76-3.52,9,4.24,31.91-3.82,11.9-4.17,18.72,21.89,43.76,27.74-5.07.19-9.76.23-12.64-.43l-53.61-1.22A19.17,19.17,0,0,1,163.85,463.61Z"/>
    <path class="lipOverlapLine" d="M167.23,450.13c2.09,2.87,5.27,4.67,9.49,5.45"/>
    <path class="lipEdgeLine" d="M169.62,478.91c10.35,20.18,35,20,52.56.87"/>
    <path class="mouthInner" d="M171.58,462.25a15.15,15.15,0,0,0,5.14-6.67c7.12.72,13.15-1.84,18.49-6.47,10.72,3.69,17.44,11.15,30,14.36C202,473.37,182.15,476.92,171.58,462.25Z"/>
    <path class="teeth" d="M210.25,456.9c-4.86-2.86-9.4-5.85-15-7.79-5.34,4.63-11.37,7.19-18.49,6.47a16.47,16.47,0,0,1-2,3.52c2.53,8.63,10.2,7.53,17.83,7.27C200.49,466.11,208.51,466.22,210.25,456.9Z"/>
    <g class="noseLine">
      <path d="M212.9,403.88c10.46-6.83,4.65-22.25-1.63-25.83"/>
      <path d="M148.15,407.92c24.45,23.61,42.81-7.18,50.63-3.12"/>
      <path d="M149.47,372.53c-1.7,11.92-17,22.31-1.6,40"/>
    </g>
    <g class="eyeFoldLine">
      <path d="M103.73,356.9c9.77,4.66,23,1.05,27.71-3.88"/>
      <path d="M217.82,347c17,7.48,34,.07,43.29-7.7"/>
    </g>
    <g class="eyeCornerLine">
      <path d="M277.77,313.29a24.73,24.73,0,0,1-9.85,0"/>
      <path d="M96.31,326.5a16.71,16.71,0,0,1-5.37,2.32"/>
    </g>
    <g class="eyebrowBlack">
      <path d="M183.67,284.08c25.45-2.58,66.08-37.76,104.42,8.71C237.94,267.52,202.71,301.05,183.67,284.08Z"/>
      <path d="M72.77,286.66a79.29,79.29,0,0,0,2.17,14.77c25.81-5.4,46.92,3.92,54.6-12.19C108.53,290.68,94.13,278.93,72.77,286.66Z"/>
    </g>
  </g>
  <g class="skinOverlapLine">
    <path d="M120.32,805.21c12.87-15.91,12.08-39.24,4.81-48.93"/>
    <path d="M160.68,613.82a18.17,18.17,0,0,0,.36,19.76"/>
    <path d="M177.09,612.14c-6,13.33,11.45,26.84,25.84,29,6.75,11.42,18.74,19.86,23,29.12"/>
    <path d="M206.68,607.72C198,616,205.3,639.52,230,639.52c7.91,12,17,15,26.75,32.11"/>
    <path d="M249.54,615.9c-11.35,6.59-8.91,27.22,20.42,30.21,5.16,10.59,15.47,16.8,22.81,29.56"/>
    <path d="M180.71,670.67c-14-.89-22.65,9.71-10.35,29.38"/>
    <path d="M162.12,660.3c-20.15,12.41-18.34,24.51-36.54,36.44-2.92-23.13,9-30.21,15.85-56.55,22-20.69,12.94-38.21-4.45-32.77-.7-3.1-5.42-6.33-15.73-5.94"/>
    <path d="M161,709.74c-18.32,20.56-23.26,44.51-60.21,62.9-36,17.94-81.74,4.54-94.06-28.36"/>
    <path d="M137,607.42c4,6.84-4.18,22-15.62,28-3.49,15.18-17,28.56-20.43,38.76"/>
    <path d="M108.21,607.32c6.17,7.81.21,23.13-14,28.85-2.56,11.47-15.06,26.53-19,38.47"/>
    <path d="M65.05,627.1c15.85-3.42,14.33,21.46-5.32,24.94C55,663.24,47.29,667.72,48,680.16"/>
  </g>
  <g class="skinFoldLine">
    <path d="M502.45,710.22c9.3-.88,22.39-1.28,35.95,1.55"/>
    <path d="M220.06,706.81c2.35,3.26,5.42,7.59,9.4,10.85"/>
    <path d="M232.2,671.25c-4-1.48-8.34-1.38-10.39-.37"/>
    <path d="M262.18,673.16c-3.9-2-7.11-2-10.48-.4"/>
    <path d="M298.49,678.15c-3.56-2.31-6.9-3.38-9.77-2"/>
    <path d="M312.26,781.09c13.16-2,14.8-7.18,28.48-15,5.72-3.25,12.43-11.16,11.52-17.53"/>
    <path d="M125.58,696.74c.26,2.93-1.87,9.58-4.79,12.77"/>
    <path d="M52.66,681.06c-3.31-1.84-6.69-.89-10.11,2.13"/>
    <path d="M80.33,675.74c-4-2.18-7.35-1.43-10.11,1.6"/>
    <path d="M105.6,675.21c-3.3-1.7-6.91-1.59-10.91.8"/>
    <path d="M396.53,294.87c15.9-53.14,56.63-16.72,34.17,28.18"/>
    <path d="M400.62,308.6c17.8,12.27-8.84,33.41,4.68,35,9.06,1.09,1.84-13.5,13.09-24,12.52-11.74,4.61-34.64-6.84-23"/>
  </g>
  <g class="skinCreaseLine">
    <path d="M289.18,1595.89c-12.34,8-42.38,9.12-54.72,2.15"/>
    <path d="M498.4,1593.75c-17.16,7-41.31,6.43-57.94-1.61"/>
    <path d="M229.45,697.21c31.84,8.64,55,31.84,60.49,59.59"/>
    <path d="M315,708.58c-24.56,1.37-64.13-1.36-75.51-26.83"/>
    <path d="M102,704.18C74.64,711,50,726,46.33,762.89"/>
    <path d="M83.86,687.84C76,706.6,53.6,715.08,19.7,716.73"/>
  </g>
  <g class="soleLightTan">
    <path d="M335.2,2069.74c2.16,11.07-1.38,27.91-6.4,34.67-27.18,36.63-134.28,28.43-151.24,4.35-5.95-8.46-5.18-14.54-5.18-25.78Z"/>
    <path d="M589.85,2060.87c2.1,6.74,1.18,17.54-4.52,23.08-16.46,16-46.32,24.19-73.27,37.23-48,23.23-117.69,15.88-134-.4-5.33-5.32-7.89-12.22-6.37-18.56Z"/>
  </g>
  <g class="anitaShoe">
    <path d="M574.56,1970c17,26,25.26,59.27,15.29,90.9-7.43,17.36-51.17,34.51-86.77,50.86-40.49,18.59-123.07,9.22-131.4-9.51-7.43-16.11,14-56.27,28.52-59.72,48.14-11.44,64.14,23.78,85.75,13.79,19.9-9.2,28.29-24.76,27.05-46.24C543.57,2019.14,576.63,2002.61,574.56,1970Z"/>
    <path d="M440.69,1991.87c-7,2.89-17.73,19.83-19,26.85,35.3-7.56,63.49-1,88.39,21.08,17.3,15.34,32.47-8.06,17.35-23.55C506.84,1995.12,466.72,1986.5,440.69,1991.87Z"/>
    <path d="M325.27,1973.72c18.15,33.7,10.17,51,11.24,77.77,2,49.7-35.84,63.52-81.24,64.27-78.64,1.29-99.63-39.2-78.45-72.48,35.86-16.85,78.58-17.47,119.93-2.59,16.41,5.91,23-12.76,8.65-22.65-26.36-18.15-81.24-24-115.81-2.84-3.61-2.64,5.93-24.89,14.7-29.82,23.76-13.82,79.07-10.37,111,9.08C322.3,1998.69,326,1985.57,325.27,1973.72Z"/>
  </g>
</svg>
