<svg class="atticCouch" 
    xmlns="http://www.w3.org/2000/svg" viewBox="0 0 2272.34 775.92">
    <g class="cushion">
        <path d="M1141.79,774.92H2259.53c22.8-3.5,6.17-48.71,2.8-66.5-11-58,3-122,4.5-245.48,5.5-168.52-14.5-290.52-15.43-329.27.93-32.25,6.36-61.78,12.91-93.37,7-33.88-9-42.88-41.56-38.12,0,0-74.35,13.5-109.51,14.89-159.91,6.35-156.91-9.65-405.22-4.48-134.17,2.79-202.24,8.68-324.69,18.83-192.69,16-235-42.75-245.79,16.16C1112-17.1,1096.68,40.5,958.33,28.42c-126-11-259-8-392-6.83-295,2.58-285,12.83-434,9.83-43.1-.87-102-13-102-13-32.58-4.76-30.66,15.5-28,58,2,32,3,37,7.66,66.25C17.33,228.42-.75,311.52,2.56,462.94,1.33,542.42,19,649.49,12.06,708.42c-2.1,18-20,63,2.81,66.5Z"/>
        <path d="M1141.79,774.92H2259.53c22.8-3.5,6.17-48.71,2.8-66.5-11-58,3-122,4.5-245.48,5.5-168.52-14.5-290.52-15.43-329.27.93-32.25,6.36-61.78,12.91-93.37,7-33.88-9-42.88-41.56-38.12,0,0-74.35,13.5-109.51,14.89-159.91,6.35-156.91-9.65-405.22-4.48-134.17,2.79-202.24,8.68-324.69,18.83-192.69,16-235-42.75-245.79,16.16C1112-17.1,1096.68,40.5,958.33,28.42c-126-11-259-8-392-6.83-295,2.58-285,12.83-434,9.83-43.1-.87-102-13-102-13-32.58-4.76-30.66,15.5-28,58,2,32,3,37,7.66,66.25C17.33,228.42-.75,311.52,2.56,462.94,1.33,542.42,19,649.49,12.06,708.42c-2.1,18-20,63,2.81,66.5Z"/>
    </g>
    <g class="cushionBorderLine">
        <path d="M1137.33,47.42c4,335-5,395-1,728"/>
    </g>
    <g class="buttonCreaseLine">
        <path d="M2042.44,452.14c-20-19.44-40-39.55-64-57.53-17.1-17.31-34.12-31.66-49.14-44.19"/>
        <path d="M1470.33,442.42c-14.29-15.68-32.35-31.1-53-47.82-14.31-20.55-35.88-38.39-59-53.18"/>
        <path d="M915.33,446.42c-18.19-20.27-35.42-38.33-58.13-51.74C845.78,381,831.4,369,815.33,357.42"/>
        <path d="M343.33,439.42c-16.73-16.83-32.95-32.35-50-44.71-13.65-17.94-32.21-33.5-54-48.29"/>
        <path d="M2040.33,338.42c-25.31,17.67-46.62,35.6-61.86,56.19-24.11,18-42.33,36.42-58.14,52.81"/>
        <path d="M1466.33,350.42c-19.67,13.45-36.14,28.28-49,44.18-25.8,17-45.33,37.35-62,55.82"/>
        <path d="M914.33,343.42c-22.8,16-42.23,32.69-57.13,51.26-18.43,15-34.68,30.44-49.87,44.74"/>
        <path d="M340.33,352.42a527.88,527.88,0,0,0-47,42.29,474.31,474.31,0,0,0-63,56.71"/>
    </g>
    <g class="button">
        <circle cx="1978.33" cy="394.42" r="23"/>
        <circle cx="1417.33" cy="394.42" r="23"/>
        <circle cx="857.33" cy="394.42" r="23"/>
        <circle cx="293.33" cy="394.42" r="23"/>
    </g>
</svg>
