<svg viewBox="0 0 569.59 210.48">
  <g class="cushion">
    <path d="M286.2,209.48H565.63c5.7-.87,1.55-12.18.7-16.62-2.75-14.5.75-38,1.13-68.88,1.37-42.12-3.63-80.12-3.86-89.81.23-8.06,1.59-15.45,3.23-23.34,1.75-8.47-2.25-10.72-10.39-9.53,0,0-18.59,3.37-27.38,3.72-40,1.59-39.23-2.41-101.3-1.12-33.55.69-50.57,2.17-81.18,4.71-48.17,4-58.76-10.69-61.44,4-6.39-16.18-10.22-1.78-44.81-4.79-31.5-2.75-64.75-2-98-1.71C68.58,6.79,71.08,9.36,33.83,8.61,23.06,8.39,8.33,5.36,8.33,5.36c-8.14-1.2-7.66,3.87-7,14.5A124.39,124.39,0,0,0,3.25,36.42C5.08,57.86.56,86.13,1.39,124c-.31,19.88,4.1,54.14,2.38,68.88-.53,4.49-5,15.75.7,16.62Z"/>
    <path d="M286.2,209.48H565.63c5.7-.87,1.55-12.18.7-16.62-2.75-14.5.75-38,1.13-68.88,1.37-42.12-3.63-80.12-3.86-89.81.23-8.06,1.59-15.45,3.23-23.34,1.75-8.47-2.25-10.72-10.39-9.53,0,0-18.59,3.37-27.38,3.72-40,1.59-39.23-2.41-101.3-1.12-33.55.69-50.57,2.17-81.18,4.71-48.17,4-58.76-10.69-61.44,4-6.39-16.18-10.22-1.78-44.81-4.79-31.5-2.75-64.75-2-98-1.71C68.58,6.79,71.08,9.36,33.83,8.61,23.06,8.39,8.33,5.36,8.33,5.36c-8.14-1.2-7.66,3.87-7,14.5A124.39,124.39,0,0,0,3.25,36.42C5.08,57.86.56,86.13,1.39,124c-.31,19.88,4.1,54.14,2.38,68.88-.53,4.49-5,15.75.7,16.62Z"/>
  </g>
  <path class="cushionBorderLine" d="M285.08,12.61c1,83.75-1.25,113.75-.25,197"/>
</svg>
