<svg viewBox="0 0 568.39 249.03">
  <path class="suds" d="M536.4,66.33c1.2-12.6-15.3-21.3-26.1-13.5-2.7-9-19.8-11.4-24.3-1.2-6.3-9.6-23.7-7.8-25.8,3-7.2-7.8-25.8-3-26.1,9-.6-11.7-16.8-17.4-25.8-9-3-6.6-13.5-8.1-18.6-2.7-3.92-10-20.35-12-26.4-1.8-5.23-11.44-23.61-11.87-29.4-.6-4.2-4.5-15.74-3.1-17.4,3.3-2.93-8.59-21.08-8.79-24.3.6-4.2-3.9-13.2-1.5-14.1,4.8-3-7.5-15.3-9-19.2-3-6.6-14.7-26.7-15.6-35.7-2.4-5.7-8.1-20.4-9-26.1-.3-.6-6-12-9.3-16.2-4.8-5.4-13.8-27.9-18-37.2-3-10.5-7.5-26.1-3.6-30.3,8.7-4.2-6.9-17.4-7.2-22.5.6-6-8.7-23.7-7.5-28.8,1.8-12.6-11.1-26.7,8.1-20.4,18.9Z"/>
  <path class="steelMedium" d="M67.8,29.43c.62-.5.87-8.18,0-8.1-3.9,1.2-17.4,1.8-21.9.9-.82-.24-.95,7.62-.3,7.8C50.1,31.53,64.24,30.8,67.8,29.43Z"/>
  <g class="steelLight">
    <path d="M48.17,22.54c-.2-8.73-15.24-7.92-16.23,4.34-.31,1-.44,30-.44,30l-17.25-.6s.11-24.29.61-30.15c3.08-36.5,53.88-29,50.85-4.29A79.92,79.92,0,0,1,48.17,22.54Z"/>
    <path d="M38.73,44.8c1.48,3.23.55,8.29-.41,11.54l-18.64-.82A18.09,18.09,0,0,1,20.51,44Z"/>
  </g>
  <path class="oakLightest" d="M36.92,47C41,48.62,50,48.43,49.86,43.64s-9-6-12-3.74c-3.23-5.81-13-5.43-15.56-.35-3.23-2.91-13.42-3.92-13.87,3.09-.28,4.3,7.14,7.35,13.25,3.18C24.05,49.83,34.47,49.76,36.92,47Z"/>
  <path class="porcelainMedium" d="M555.9,67.53c-3.56,73.85-1.08,132.88-51,138.9-99.6,12-353.4,15.6-436.2,1.5-45.83-7.8-50.1-62.1-55.8-138Z"/>
  <path class="basinLightLine" d="M532.5,105c-1.8,38.1-3.1,67-22.8,73.5"/>
  <path class="porcelainLight" d="M557.1,50.73c-190.5,5.7-374,11-546.9,1.8C-1.24,51.92-2.43,71.33,9,72c172.2,10.5,355.8,7.8,549.9-1.8C571.36,69.61,569.57,50.36,557.1,50.73Z"/>
  <g class="porcelainDark">
    <path d="M519.6,246.78c12.65,3.93,15.63-16.93,2.84-19.77-8.83-2,1.33-19.35-5.86-27.91-5-5.92-25.25-4.87-27.59,4.17-2.6,10,11.95,19.59,8.81,28.47-9.2,13.8,3.49,18.9,10.4,15C512,248.49,516.71,248.38,519.6,246.78Z"/>
    <path d="M85.79,202.53c1.44,5.73-5.35,18.29-10.24,22.49-3.29,2.83,3.39,3.95,4.42,10.65,1.65,10.79-6.06,14.78-14.13,10.82-2.74,1.93-9.59,2-12.14.14C42.79,250.18,42.62,232,54.32,225c5.35-3.17-1.24-15.13,3.4-25.51C62,190.07,83.37,192.9,85.79,202.53Z"/>
  </g>
  <g class="clawCreaseLine">
    <path d="M54.9,234.48c-2.6,3.55-3.38,8.63-1,12.15"/>
    <path d="M508.29,234.1c1.2,2.91,1.48,8.28-.09,12.68"/>
    <path d="M519.46,233.68c2.67,3.25,3.09,8.67.14,13.1"/>
    <path d="M66.21,235.34c-1.43,4.51-1.9,7.78-.21,11.44"/>
  </g>
</svg>
