<svg viewBox="0 0 245.87 173.31">
  <g class="oakMedium">
    <path d="M237.07,154.44l-3.84-1.95c-1.14-37.73-1.31-75.64-.53-113.39q.17-7.89.39-15.77l6.57.11"/>
    <path d="M24.9,10.18C16.8,7.07,8.67,4.56.53,1.53Q1,13.38,1.39,25.25c1.31,43.06,1.23,88-.25,131,7.81,5.93,15.61,10.2,23.4,16.12C32.17,118.08,33.11,63.52,24.9,10.18Z"/>
    <path d="M117.76,164.82l-3.83-2.9c0-7.73,0-15.33.06-23.07h5.45"/>
  </g>
  <path class="oakLight" d="M121.4,138.28q-.06-49-.16-97.94Q181,37,240.32,34.48q.36-14.29.9-28.58Q215.68,6.53,190,7.38,109.66,10.07,28.4,14.8q1.76,65.28.27,130.59Q75.22,142.12,121.4,138.28Z"/>
  <g class="oakDark">
    <path d="M237.32,9.16q-55.68,1.59-111.78,4.21c0,50.32,0,100.5,0,150.82l-7.78.63c0-7.2,0-14.27,0-21.47q-42.23,3.1-84.73,5.77c-.18,7.37-.38,15.29-.61,22.65-2.64.17-5.27.48-7.91.65,1.84-53.85,2-108.44.36-162.3Q59.75,8,94.43,6.25,152.6,3.31,210.3,1.48q17.55-.54,35-1-.42,10-.75,20c-1.44,44.32-1.41,88.85.11,133.17l-7.64.75C235.53,106.06,235.61,57.51,237.32,9.16ZM117.77,13.74Q75.5,15.75,33,18.25q.33,13.67.53,27.32,42.29-2.62,84.3-5Q117.79,27.16,117.77,13.74ZM33.62,54.17q.2,17.31.18,34.64,42.15-2.69,84-5.41,0-17.09,0-34.19Q75.85,51.58,33.62,54.17ZM117.83,92q-41.89,2.71-84,5.37-.11,21.56-.54,43.1,42.44-2.69,84.56-5.8Q117.83,113.38,117.83,92Z"/>
    <path d="M73.15,68.77C73,71,74,73,75.76,73.11s3.2-1.6,3.34-3.87S78,65,76.27,64.89,73.29,66.5,73.15,68.77Z"/>
    <path d="M73.15,115.71C73,118,74,119.91,75.76,120s3.2-1.6,3.34-3.87S78,112,76.27,111.82,73.29,113.44,73.15,115.71Z"/>
    <path d="M73.15,29.38c-.14,2.27.85,4.2,2.61,4.34s3.2-1.59,3.34-3.86S78,25.64,76.27,25.5,73.29,27.11,73.15,29.38Z"/>
    <path d="M150.42,25.31c-.14,2.26.85,4.18,2.59,4.32s3.17-1.58,3.31-3.84-1-4.2-2.8-4.34S150.56,23.05,150.42,25.31Z"/>
    <path d="M208.64,22.74c-.14,2.25.84,4.16,2.58,4.31s3.14-1.58,3.28-3.83-1.05-4.19-2.78-4.33S208.78,20.48,208.64,22.74Z"/>
  </g>
  <g class="oakMediumDark">
    <path d="M74.63,68.89c-.16,2.65,1,4.91,3.06,5.07s3.73-1.86,3.9-4.52-1.25-4.93-3.3-5.09S74.8,66.24,74.63,68.89Z"/>
    <path d="M74.63,115.83c-.16,2.65,1,4.9,3.06,5.06s3.73-1.88,3.9-4.53-1.25-4.93-3.3-5.08S74.8,113.17,74.63,115.83Z"/>
    <path d="M74.63,29.5c-.16,2.65,1,4.91,3.06,5.08s3.73-1.86,3.9-4.52-1.25-4.93-3.3-5.09S74.8,26.84,74.63,29.5Z"/>
    <path d="M151.89,25.43c-.16,2.64,1,4.89,3,5.06s3.71-1.85,3.87-4.49-1.23-4.91-3.27-5.08S152.06,22.79,151.89,25.43Z"/>
    <path d="M210.11,22.86c-.17,2.63,1,4.87,3,5s3.68-1.85,3.85-4.48-1.23-4.89-3.26-5.06S210.27,20.22,210.11,22.86Z"/>
  </g>
</svg>
