<svg viewBox="0 0 438.86 386.62">
  <g class="oakMedium">
    <path d="M167.5,378.47c-.36,10.26-33,9.12-32.66-1.14l3.9-316.22,46.17,1.61Z"/>
    <path d="M401.21,353.35c.36,10.26-32.3,11.4-32.65,1.14L351.14,38.74l46.17-1.61Z"/>
    <path d="M41.17,52.65,37.71,332.7C37.35,343,70,344.1,70.37,333.84L85,69.54Q62.46,61.3,41.17,52.65Z"/>
  </g>
  <path class="cushionLight" d="M5.93,37.49c36.71,16.7,77.26,32,120.16,46.49V43.63C83.77,31.14,43.32,17.26,5.93,1.09-1-1-.24,35.07,5.93,37.49Z"/>
  <path class="cushion" d="M126.09,84c78.32,19.49,233.5,6.92,306.21-21.42,7.32-2.8,7.52-42.33,0-40.34C349.16,39,213,49.12,126.09,43.63,123.41,43.4,123.77,83.35,126.09,84Z"/>
</svg>
