<svg viewBox="0 0 4863.29 966.11">
    <rect class="meadowNear" x="1" y="295.2" width="4861.29" height="669.91"/>
    <polygon class="fenceDark" points="4862.29 108.06 4743.6 59.07 4629.81 96.66 4520.61 49.88 4415.74 86.16 4314.95 41.4 4217.99 76.46 4124.65 33.56 4034.75 67.47 3948.08 26.28 3864.48 59.12 3783.79 19.51 3705.85 51.34 3630.54 13.19 3557.72 44.08 3487.26 7.29 3419.06 37.28 3353.01 1.75 3289 30.9 3289 843.84 3895.13 965.11 4862.29 965.11 4862.29 108.06"/>
    <polygon class="fence" points="3289 843.99 3289 31.05 3222.16 1 3154.29 35.05 3085.36 4.56 3015.36 39.17 2944.24 8.24 2871.99 43.43 2798.58 12.03 2723.99 47.82 2648.17 15.95 2571.11 52.36 2492.76 20 2413.11 57.05 2332.11 24.18 2249.74 61.9 2165.95 28.51 2080.7 66.92 1993.97 32.99 1905.71 72.12 1815.89 37.63 1724.45 77.5 1631.35 42.43 1536.56 83.08 1440.02 47.41 1341.68 88.86 1241.5 52.58 1139.41 94.87 1035.38 57.95 929.33 101.1 821.21 63.53 710.97 107.59 598.52 69.33 483.82 114.33 366.79 75.36 247.36 121.35 125.46 81.65 1 128.66 1 965.11 1166.45 965.11 3289 843.99"/>
</svg>
