<svg viewBox="0 0 1768.06 1237.7">
    <g class="frameDark">
        <path d="M1707.28,1110.34q-13.83-7-27.65-14-12.35-408.25-3.82-816.91,1.18-56.91,2.78-113.8l47.39.85"/>
        <path d="M176.87,70.76Q89.17,37.16,1.06,4.33,4.69,89.88,7.29,175.46,21.47,641.38,5.44,1107.6,90,1171.77,174.27,1235.88C229.25,844.07,236,455.51,176.87,70.76Z"/>
        <path d="M846.65,1187.22q-13.8-10.44-27.59-20.9.24-83.7.42-167.42l39.28-.09"/>
    </g>
    <path class="drawerLight" d="M872.91,994.79q-.4-353.25-1.13-706.51Q1303.07,264.4,1730.72,246q2.6-103.09,6.51-206.13Q1552.92,44.39,1368,50.56,788.3,69.91,202.11,104.05,214.76,575,204,1046.1,539.76,1022.43,872.91,994.79Z"/>
    <path class="frameLight" d="M1709.06,63.42Q1307.51,74.82,902.79,93.8q-.28,544.42,0,1088.85-28.06,2.3-56.16,4.57.15-77.92.25-155.87Q542.36,1053.74,235.67,1073q-1.89,79.71-4.37,159.4-28.52,1.86-57,3.69,19.91-582.67,2.6-1165.73Q428.2,55.15,678.36,42.41,1098,21.17,1514.18,8,1640.75,4.08,1767,1q-3.06,72-5.41,144.14-15.6,479.6.79,959.65-27.54,2.7-55.11,5.38Q1690.65,587,1709.06,63.42Zm-862.31,33Q541.82,111,235.09,129q2.4,98.52,3.87,197,304.95-18.92,608.06-36Q846.92,193.24,846.75,96.43Zm-607,291.63Q241.15,513,241,637.94q304.05-19.32,606.15-39,0-123.33-.11-246.65Q544.35,369.34,239.77,388.06ZM847.19,661.22Q545,680.87,240.87,700q-.75,155.44-3.84,310.88,306-19.39,610-41.82Q847.16,815.13,847.19,661.22Z"/>
    <g class="mount">
        <path d="M524.88,493.4c-1,16.38,6.14,30.29,18.84,31.29s23-11.51,24.07-27.88-7.68-30.4-20.37-31.41S525.9,477,524.88,493.4Z"/>
        <path d="M524.88,832c-1,16.37,6.14,30.27,18.84,31.24s23-11.58,24.07-28-7.68-30.38-20.37-31.36S525.9,815.62,524.88,832Z"/>
        <path d="M524.88,209.23c-1,16.37,6.14,30.3,18.84,31.33s23-11.46,24.07-27.83-7.68-30.42-20.37-31.46S525.9,192.85,524.88,209.23Z"/>
        <path d="M1082.28,179.89c-1,16.3,6.09,30.17,18.68,31.2s22.85-11.41,23.86-27.7-7.61-30.29-20.19-31.33S1083.29,163.59,1082.28,179.89Z"/>
        <path d="M1502.25,161.32c-1,16.25,6,30.07,18.55,31.1s22.7-11.36,23.71-27.61-7.56-30.19-20.06-31.22S1503.25,145.07,1502.25,161.32Z"/>
    </g>
    <g class="handle">
        <path d="M535.58,494.25c-1.19,19.15,7.19,35.42,22,36.59s26.95-13.46,28.14-32.61-9-35.54-23.81-36.73S536.77,475.1,535.58,494.25Z"/>
        <path d="M535.58,832.82c-1.19,19.15,7.19,35.39,22,36.53s26.95-13.54,28.14-32.68-9-35.53-23.81-36.67S536.77,813.66,535.58,832.82Z"/>
        <path d="M535.58,210.1c-1.19,19.15,7.19,35.43,22,36.64s26.95-13.4,28.14-32.55-9-35.56-23.81-36.78S536.77,191,535.58,210.1Z"/>
        <path d="M1092.89,180.76c-1.18,19.07,7.13,35.28,21.84,36.49s26.71-13.34,27.9-32.4-8.9-35.42-23.61-36.63S1094.07,161.7,1092.89,180.76Z"/>
        <path d="M1512.79,162.19c-1.18,19,7.08,35.17,21.7,36.37s26.53-13.29,27.71-32.29-8.84-35.3-23.46-36.51S1514,143.19,1512.79,162.19Z"/>
    </g>
</svg>
