<svg viewBox="0 0 3235.05 1137.61">
  <rect class="shadow" x="75.55" y="770.61" width="3050.91" height="366"/>
  <g class="mapleDarkest">
    <path d="M3097.45,1136.61a11239.43,11239.43,0,0,1,.17-1133.22Q3064.5,2.19,3031.36,1q-27.46,567.42-.1,1135.58Z"/>
    <path d="M137.23,1136.61h66.19q14.84-308.14,13.89-616.75-32.82.95-65.62,1.94Q152.7,829.36,137.23,1136.61Z"/>
  </g>
  <g class="mapleDark">
    <path d="M3233.62,1136.61a10262.85,10262.85,0,0,1,.38-1128Q3146.61,5.11,3059.21,2q-28,566.92-.13,1134.6Z"/>
    <path d="M1.06,1136.61H175.6q15.09-307.72,14.13-615.95-86.53,2.57-173.06,5.4Q17.76,831.54,1.06,1136.61Z"/>
  </g>
  <path class="oakMedium" d="M196.79,852.17q841.46-21.48,1683.28-17.58,238.1,1.14,476.17,4.31,340.34,4.53,680.7,13.25-3.34-141.35-3.51-282.72-340.68-9.7-681.47-14.82-237.18-3.52-474.45-4.77-838.69-4.43-1677.21,19.62Q200.14,710.84,196.79,852.17Z"/>
</svg>
