<svg class="presence" xmlns="http://www.w3.org/2000/svg" viewBox="0 0 139.7 286.1">
  <rect class="shadow" x="10.1" y="248.19" width="119.62" height="36.91"/>
  <polygon class="steelDark" points="25.41 285.1 26.9 266.29 112.8 266.29 114.29 285.1 129.6 285.1 129.72 248.19 9.98 248.19 10.1 285.1 25.41 285.1"/>
  <path class="oakDark" d="M1,2C50.08.67,89.62.67,138.68,2c-1.2,58-2,188.32-2.53,246.36-47.37.2-85.23.2-132.6,0C3.05,190.32,2.22,60,1,2Z"/>
  <g class="oakMedium">
    <rect x="9.78" y="11.84" width="120.15" height="90.16"/>
    <rect x="10.88" y="111.4" width="117.93" height="127.63"/>
  </g>
  <g class="oakLight">
    <polygon points="11.88 107.99 127.81 107.99 128.81 111.4 10.88 111.4 11.88 107.99"/>
    <polygon points="10.78 8.43 128.93 8.43 129.93 11.84 9.78 11.84 10.78 8.43"/>
  </g>
</svg>
