<svg viewBox="0 0 186.28 136.06">
  <rect class="shadow" x="7.91" y="107.17" width="170.45" height="28.39"/>
  <path class="oakDarker" d="M4.65,15.6q2.91,60,3.26,120H20.28c.25-4.41.46-9.34.77-12.56q72.09-1,144.18,0c.31,3.22.52,8.15.77,12.56h12.37q.39-60,3.26-120Q93.13,12.27,4.65,15.6Z"/>
  <g class="oakMedium">
    <path d="M94.83,20.69q39.19.16,78.36,1.45l1.25,2.28q-39.8-1.3-79.61-1.48Z"/>
    <path d="M13.09,22.14q39.17-1.29,78.36-1.45v2.25q-39.82.16-79.62,1.48C12.34,23.51,12.59,23.06,13.09,22.14Z"/>
  </g>
  <g class="oakMediumDark">
    <path d="M1.26,15.74q91.88-3.6,183.76,0c.28-5.32.42-8,.73-13.31Q93.14-1.43.53,2.43C.84,7.76,1,10.42,1.26,15.74Z"/>
    <path d="M94.83,22.94q39.83.16,79.61,1.48Q172.71,66.2,172.09,108q-38.65-.72-77.31-.83Q94.8,65.07,94.83,22.94Z"/>
    <path d="M11.83,24.42q39.81-1.3,79.62-1.48,0,42.12,0,84.23-38.65.12-77.31.83Q13.56,66.19,11.83,24.42Z"/>
  </g>
  <g class="oakDarkest">
    <circle cx="83.66" cy="66.49" r="3.85"/>
    <circle cx="102.61" cy="66.49" r="3.85"/>
  </g>
</svg>
