<svg class="captainBed" 
    xmlns="http://www.w3.org/2000/svg" viewBox="0 0 2858 1979.49">
    <path class="panelFront" d="M1769.48,1908.53q504.18-82.14,1008.68-162.46-29.89-693.71,1.74-1388.1Q2273.46,425,1766.5,488.12,1759.82,1198.33,1769.48,1908.53Z"/>
    <path class="panelSide" d="M2777.17,1723.09l-66.12-19.54Q2686,1051,2712.71,398l49.88-.46Q2742.16,1060.33,2777.17,1723.09Z"/>
    <path class="panelTop" d="M2791.2,1727.21l-80.15-23.66,0-.43q-446.4,70.83-892.67,142.45.36,23.64.72,47.27Q2305,1809.31,2791.2,1727.21Z"/>
    <path class="frameTop" d="M2826.77,375.48q4.3-90.44,9.59-180.83a68.7,68.7,0,0,1-38.13-35.16l-42,.52A82,82,0,0,1,2714,196.12l-.12.07Q2235.15,244.78,1756,289.24V289a64.2,64.2,0,0,1-20-24.2l-41.78.1a72.16,72.16,0,0,1-23.49,26.46h0q-185.67-9.44-371.32-19.38-581.49-31.23-1162.7-68.37h0C123,196.91,111.81,185,104.11,172l-41.94-.51c-6.85,16.34-22,28.77-38.13,35.17Q29.53,302,33.93,397.49q827.16,1.44,1654.32-6.31,233.85-2.25,467.69-5.31Q2491.36,381.49,2826.77,375.48Z"/>
    <path class="frameFront" d="M1715.69,1974.37q-86.16-14.19-172.34-28.29-398.8-65.2-798-128.58Q390.3,1761,35.1,1705.07q26.57-630.4.25-1261.43-5-117.57-11.8-235.17,332.05,21.9,664.24,41.76,401.88,24,804,45.31,111,5.9,222.08,11.59-1.3,124.44-2.2,248.88-3.14,442.46-.89,885,1.37,266.84,4.7,533.7Z"/>
    <path class="frameSide" d="M1715.44,1974.73q-3.32-266.84-4.7-533.7-2.25-442.47.89-885,.88-124.42,2.2-248.88c0,.15,0,.22,0,.37q478.55-46.14,956.69-96.1,82.88-8.68,165.76-17.52-6.72,114.44-11.77,228.94-16.78,384.87-13.61,770.58,2.45,299.67,17,599.31l-185.18,29.89q-463.74,74.91-927.29,151.14C1715.43,1974.14,1715.44,1974.34,1715.44,1974.73ZM1815,576.34q-.94,102.15-1.51,204.32-3,540.54,5.09,1081.22,409.77-67.45,819.72-133.77l100.76-16.34q-20.6-514.17-8.18-1028.87,2.51-102.64,6.36-205.35l-17.48,1.93q-79.25,8.75-158.5,17.39Q2188.26,537.55,1815,576.34Z"/>
    <g class="drawerSide">
        <path d="M1021.57,1418.77l39.28,5.33q-1.12,172.2-3.27,344.38c-12.55,5.13-26.59,3.66-39.56,1.18"/>
        <path d="M1578.39,575.9l41.39,2.93q-.81,181.73-1,363.47c-13.78,3.39-28.08-.57-40.92-5.6"/>
        <path d="M1022.45,878.5c10.35,4.35,26,13,39.21,6.3,2-1-1.61-279.07-2.25-346.39l-39.51-2.91"/>
        <path d="M1023.05,1316.91c12.24,4,25.78,6.76,38.37,2.64q.74-169.41.48-338.81l-39.22-4.29"/>
        <path d="M1578.18,1390c13.2,3.63,27.66,6.06,41,1.49q-.53-175.08-.48-350.16l-41.16-4.48"/>
        <path d="M1579.1,1857.85c14,2.66,29.12,3.38,42.42-2.55q-1.29-177.45-2-354.91l-41.36-5.69"/>
        <path d="M460.7,513l41.08-16.22q12.39,480.18,4.32,960.57-1.91,111.5-4.92,223c-13.07,5.67-27.84,4.79-41.55,2.39Q475.94,1098,460.7,513Z"/>
    </g>
    <g class="drawerTop">
        <path d="M1020.16,555.49l39.25-16.92q-228.35-16.83-456.63-34.45l-46.14,15.7"/>
        <path d="M1578.57,596.12l41.22-17.65q-230.2-16.26-460.4-32.72L1114,561.34"/>
        <path d="M1023.61,1000.84l38.29-20.44q-229.7-25.06-459.4-50.07l-41.6,18.6"/>
        <path d="M1577.81,1061.34l40.85-19.5q-231-25.14-462-50.76l-40.41,18.1"/>
        <path d="M1021.49,1446.66l39.36-22.45q-230-31.23-460.07-62.42L559.12,1384"/>
        <path d="M1577.6,1523.22l41.91-23q-231.6-31.85-463.26-63.2-20.67,11-41.35,22"/>
        <path d="M460.7,513l41.08-16.22s.09,3.59,0-.4q-182.23-14.08-364.42-28.65L92.29,482.94Q276.48,498.17,460.7,513Z"/>
    </g>
    <g class="drawerFront">
        <path d="M1578.31,596.31q-232.23-16.68-464.43-33.89,1.26,163.08,1.74,326.15,231,24.38,461.94,48.55Q1577.74,766.72,1578.31,596.31Z"/>
        <path d="M559.08,1383.78q231.15,31.41,462.28,62.9-1.25,161.44-3.47,322.87-232.51-36.19-465.08-72Q557,1540.69,559.08,1383.78Z"/>
        <path d="M1022.72,1000.37q.19,158.73-.56,317.48-230.34-30-460.69-59.87l-1-.13q1.13-154.27.39-308.56Q791.76,975,1022.72,1000.37Z"/>
        <path d="M554.69,520q232.69,18,465.42,35.46,1.64,161.63,2.29,323.27-231.25-24.47-462.49-49.29Q558.28,674.68,554.69,520Z"/>
        <path d="M1114.72,1459.43q231.78,31.68,463.52,63.66.55,167.37,1.51,334.74-233.85-37.12-467.8-73.62Q1113.74,1621.82,1114.72,1459.43Z"/>
        <path d="M1577.86,1390.39Q1346.64,1360,1115.36,1330q.63-159.67.49-319.36,230.82,25.38,461.64,50.66Q1577.51,1225.84,1577.86,1390.39Z"/>
        <path d="M92.31,483.3q184.19,14.91,368.4,29.35,15.06,585.13-1.46,1170.47Q276.39,1655,93.51,1626.9q2.3-64.86,4.11-129.73Q111.53,990.52,92.31,483.3Z"/>
    </g>
    <g class="mount">
        <path d="M789.36,725.79c11,2,25.16-15,25-28.22-.15-13.42-14.23-30-25.67-28.33C774.53,671.34,776.33,723.4,789.36,725.79Z"/>
        <path d="M791.1,1160.33c11.19,1.92,25.27-15,25.31-28.29s-14-30.07-25.2-28.26C777.6,1106,777.62,1158,791.1,1160.33Z"/>
        <path d="M414.83,1115.82c11.31,1.87,25.25-15.12,25.28-28.38s-13.51-29.89-25.24-28.36C400.55,1061,401.62,1113.64,414.83,1115.82Z"/>
        <path d="M786.87,1598.84c11.29,1.87,25.61-15,25.85-28.36s-13.73-30-25-28.19C774.24,1544.5,773.1,1596.55,786.87,1598.84Z"/>
        <path d="M1342.82,777c11.08,2,25.27-15,25.27-28.21s-14-29.94-25.34-28.22C1328.72,722.72,1329.65,774.67,1342.82,777Z"/>
        <path d="M1343,1226.47c11.18,1.92,25.24-15,25.26-28.21s-14-30-25.23-28.21C1329.34,1172.23,1329.46,1224.16,1343,1226.47Z"/>
        <path d="M1342.22,1680.87c11.26,1.89,25.48-14.89,25.52-28.23s-14.09-30-25.38-28.2C1328.62,1626.62,1328.57,1678.57,1342.22,1680.87Z"/>
    </g>
    <g class="handle">
        <path d="M740.15,699.18c.68,17.55,16.89,35.73,34.74,36,18.72.23,29.76-20.94,29.14-37.4-.6-15.87-13.21-37.44-31.84-36C754.45,663.09,739.47,681.73,740.15,699.18Z"/>
        <path d="M742.41,1133.87c.39,17.47,16.36,35.71,34.13,35.84,18.72.14,30-21,29.57-37.48-.38-15.73-12.66-37.45-31.24-35.92C757.11,1097.78,742,1116.39,742.41,1133.87Z"/>
        <path d="M366.12,1089.26c.41,17.48,16.32,35.84,34.16,36,18.76.14,29.94-21.07,29.53-37.6-.39-15.75-12.66-37.57-31.29-36.05C380.71,1053,365.71,1071.77,366.12,1089.26Z"/>
        <path d="M738.25,1572.54c.1,17.48,16.09,35.68,33.83,35.73,18.78,0,30.44-20.85,30.27-37.57-.16-15.72-12.34-37.45-30.92-35.83C753.62,1536.43,738.14,1554.91,738.25,1572.54Z"/>
        <path d="M1293.92,750.59c.48,17.5,16.58,35.23,34.36,35.79,18.62.59,29.89-21.64,29.48-37.38s-12.85-37.36-31.42-35.85C1308.62,714.58,1293.44,733.1,1293.92,750.59Z"/>
        <path d="M1294.21,1200.06c.41,17.47,16.44,35.22,34.21,35.77,18.61.58,29.88-21.65,29.5-37.39s-12.72-37.37-31.27-35.84C1308.92,1164.05,1293.79,1182.59,1294.21,1200.06Z"/>
        <path d="M1293.13,1654.48c.36,17.57,16.62,35.22,34.4,35.75,18.66.56,30.18-21.53,29.82-37.4s-12.85-37.37-31.44-35.83C1308.16,1618.46,1292.77,1636.91,1293.13,1654.48Z"/>
    </g>
    <g class="ball">
        <circle cx="81.5" cy="93.5" r="80"/>
        <circle cx="1715.5" cy="187.5" r="80"/>
        <circle cx="2776.5" cy="81.5" r="80"/>
    </g>
</svg>
