<svg viewBox="0 0 570.39 483.74">
  <path class="shadow" d="M452.06,92.73c4.61,2.47,9.3,4.8,13.8,7.45,4.33,2.56,8,5.86,10.26,10.56a26.62,26.62,0,0,0,2.07,3.17c3.32-3.75,8.46-4.82,12.13-8.11-4.15-5.47-5.71-11.47-6.48-17.87-1-8.13-.91-16.29-1.35-24.43-.37-6.82,1.61-13.14,3.81-19.43,3.08-8.78,10-13.95,17.66-18.15a22.28,22.28,0,0,1,11-2.39,29.15,29.15,0,0,1,13,2.95c7.71,3.78,13.25,9.4,15.09,18.18.61,2.89,1.48,5.74,2.14,8.63.84,3.69.73,7.45.9,11.2a105.79,105.79,0,0,0,.86,11.63,61.91,61.91,0,0,1,.58,17.4c-.6,4.69-1.4,9.43-4.32,13.44-1.06,1.46-.86,2.06.79,2.78,3.46,1.51,7,2.88,10.4,4.44s6.68,3.14,8.83,6.38a36.42,36.42,0,0,1,6.38,20.23c0,100.12.94,342.45-.58,342.45-33,0-412.44,0-566.9,0-2.4,0-1.4-242.3-1.4-342.22,0-3.29,2.56-6.16,4-9,2.81-5.56,8.14-8,13.2-10.84a145.26,145.26,0,0,0,13.43-8,8.17,8.17,0,0,0,3.21-3.8c0-.08.13-.18.2-.18s.13.12.2.18l-.4-.2c-1.74-1.35-3.81-2.13-5.65-3.35-4.5-3-5.64-7.71-3.83-12.42a28.48,28.48,0,0,0,2.09-10.06c0-3.24.34-6.55-.2-9.82a7.27,7.27,0,0,1,0-2.79,61.56,61.56,0,0,0,1.35-7.22,36,36,0,0,1,7-17.84,30.23,30.23,0,0,1,12-9.38c7.4-3.42,14.83-4.6,22.85-1.69,8.81,3.18,14.37,9.1,17,17.91a56.94,56.94,0,0,1,2.32,14c.15,4,.27,8,.19,12-.09,4.71.14,9.24,1.93,13.62a8.08,8.08,0,0,1-.22,6.4A19,19,0,0,1,81,108.78c-.62.26-1.38.39-1.66,1.36-.68,2.33-.79,4.49.63,6.63,2,3,4.91,5,7.82,7l.2-.8c.77-.55.51-1.5.73-2.23,1.5-4.84,4.11-9.1,6.68-13.39a23.21,23.21,0,0,1,11.81-10c5.3-2.07,10.71-3.88,15.82-6.41a7,7,0,0,0,2.64-9.82c-1.89-3.15-4.29-5.95-6-9.19a35.84,35.84,0,0,1-4.67-14,71.23,71.23,0,0,1,.21-13.61c.73-6.55,1.29-13.14,3.34-19.4,2.48-7.57,5.8-14.75,12.76-19.43A24.85,24.85,0,0,1,139.5,1.5a43.67,43.67,0,0,1,17.2-.28,19.64,19.64,0,0,1,11.2,6c3.76,4,6.35,8.82,8.64,13.8,3,6.43,3.83,13.25,4,20.23.19,8.21-.14,16.31-2.72,24.25a28.45,28.45,0,0,1-5.46,10.22c-2.07,2.37-4.56,4.43-5.67,7.57-.7,2-1,3.94-.12,5.8a12.49,12.49,0,0,0,4.95,5.24c5.49,3.3,11,6.66,16.43,10a2.48,2.48,0,0,0,2.43.27c5-1.7,10.11-3.16,15.19-4.67a13.32,13.32,0,0,0,8.09-6.17,7.92,7.92,0,0,0-.13-9,43,43,0,0,1-5.73-13.66c-.64-2.75-.46-5.6-.69-8.4-.45-5.44.43-10.72,1.28-16,.56-3.54,1.8-6.93,2.55-10.42a35,35,0,0,1,2.55-7.95,25,25,0,0,1,7.7-9.47A29.86,29.86,0,0,1,230,13.92a37.75,37.75,0,0,1,10.45-1.83A23,23,0,0,1,249,13.65a32.4,32.4,0,0,1,13.21,9.81,24.83,24.83,0,0,1,4.08,6.37,65.36,65.36,0,0,1,4.1,14.25,42.24,42.24,0,0,1,.93,9.6c-.23,3.73-.05,7.49-.8,11.24a55.13,55.13,0,0,1-2.78,9.35c-1.7,4.32-5,7.72-8,11.22-1.94,2.27-2.85,5.93-1.55,8.64a18.76,18.76,0,0,0,6.43,7.56c4.62,3.1,9.76,5.39,14.21,8.83a52.2,52.2,0,0,1,9.41,9,57.22,57.22,0,0,1,5.58,8.64c3.74-1.64,7.09-3.53,9.5-6.69-.38-.4-.33-.84-.68-1.14a25.49,25.49,0,0,1-6.55-9.23,45.19,45.19,0,0,1-2.89-11.18,73.18,73.18,0,0,1-1-8.61c-.1-2.87.08-5.74-.17-8.61a74.06,74.06,0,0,1-.39-9.41c.18-4.41,0-8.85,1-13.22.59-2.84,1-5.72,2.2-8.41a61.62,61.62,0,0,1,7.54-12.07,18.8,18.8,0,0,1,9.91-6.89c7.3-2.11,14.67-1.5,22,.11,4.53,1,8,3.82,10.7,7.12A42,42,0,0,1,353,55.48c1.7,6,2,12.3,3.15,18.43A78.77,78.77,0,0,1,357,92.13c-.36,7.4-2.11,14.26-6.37,20.47-1.26,1.84-3.2,2.83-4.56,4.5a15,15,0,0,0,8.31,6.64,44.62,44.62,0,0,1,7.78,3c.14-1.81.95-3.24,1.43-4.77a46.67,46.67,0,0,1,17.33-23.88c4.43-3.29,9.94-5.25,15.32-6.89a25.94,25.94,0,0,0,10-5.45c2.3-2,2.57-4.34,1.59-7a10.67,10.67,0,0,0-2.58-3.63,43.51,43.51,0,0,1-7.64-10c-3-6-4-12.38-4.27-19a71.91,71.91,0,0,1,1.57-16.6,33.79,33.79,0,0,1,5.94-13C406.83,8.05,414.78,3,425.43,3c1.18,0,2.23.51,3.4.45a19.16,19.16,0,0,1,9,2.18c6.06,2.85,10.22,7.55,13.22,13.42,1.5,2.93,3.36,5.8,3.9,9,.63,3.8,1.62,7.54,1.91,11.4a45,45,0,0,1,.29,8.22c-.28,2.64-1,5.2-1.21,7.8-.24,3.29-1.6,6.2-2.61,9.17a23.7,23.7,0,0,1-8.69,11.46,10.5,10.5,0,0,0-2.8,2.8c-1.84,3-1.57,5.14.78,8a18.81,18.81,0,0,0,8.22,5.4Z"/>
</svg>
