<svg viewBox="0 0 1691.77 904.35">
  <g class="ironDark">
    <path d="M171.15,870.55a5.13,5.13,0,0,0,.48-1.5c0-19.36,1-38.68,2-58,.5-9.66.32-19.33.88-29,1-16.79.43-33.65,1-50.5,1.08-34.31-.13-68.65,1-103,.81-23.48.09-47-.67-70.5-1.12-34.82.11-69.66-.86-104.51-.74-26.8-1.31-53.65-1.29-80.49v-12l49-.5c0,3,0,6,0,9-.35,25.68.89,51.34,1.34,77,.26,15.16-.27,30.37.76,45.49,1.84,27-.3,54.05,1.08,81,1.45,28.52,1.29,57,.54,85.5-.84,31.69.2,63.36-.93,95-.45,12.68.12,25.4-1,38-.95,10.87.16,21.75-1,32.5-.88,8.21.2,16.46-1,24.49-1.11,7.37.1,14.76-1.3,22Z"/>
    <path d="M1469.65,873.55c-.46-9.16,0-18.31-.77-27.52-1.28-14.59-.68-29.32-1-44-1-49.32.13-98.66-.62-148-.25-16.15-.11-32.33.08-48.5.44-37.33.65-74.67,1.32-112,.25-13.83,0-27.65.65-41.51.7-14.79,1.42-29.65,1.26-44.49-.14-13.35,1.78-26.64,1.08-40a14.28,14.28,0,0,1,.47-3h48.5c0,5.83-.13,11.67,0,17.5.69,26.18-.29,52.36-1.29,78.49-1,25.36-.28,50.68-.71,76-1.44,84.66-1.45,169.34-.76,254,.23,28,.37,56,.74,84Z"/>
  </g>
  <g class="ironMedium">
    <path d="M223.65,857.05c6.88,8.5,16.13,14.51,23.53,22.48,4.49,4.84,9,9.53,7,17-1.19,4.54-3.28,6.47-8,6.47-31.33,0-62.67-.12-94,.12-7.82.07-12.09-7.1-7.53-15.12,3-5.26,7.41-9.35,11.68-13.32,5-4.66,10.47-8.92,14.73-14.26,2.54-3.2,5.5-3.27,8.61-2.82a136,136,0,0,0,29,.61c4.83-.35,9.63-1.25,14.49-1.19Z"/>
    <path d="M1541.15,901.55c6.42-4.84,7.36-11.92,2.51-18-7.42-9.3-17.52-15.79-25.48-24.52-.87-1-1.81-.54-2.52-.41-15,2.95-30,3.93-45,.49a3.61,3.61,0,0,0-2.93.51c-8.09,8.9-17.43,16.72-24.37,26.58-2.16,3.08-4,7.37-1.29,11.92a11,11,0,0,0,10.1,5.24c28.33-.77,56.67,0,85-.29,1.13,0,2.28.18,3-1Z"/>
  </g>
  <path class="tube" d="M1407.15,374.05c-8.25,3-12.85,10-16.31,17.09-7.15,14.73-6.94,30.22-1.07,45.37,2.57,6.63,7.13,12.3,11.36,18.05,9.18,12.46,19.08,24.52,25,39,8.66,21.32,13,42.65,6.48,66.09-5.62,20.16-17.36,33.39-35.48,41.74-7.41,3.42-15.74,4.29-23.94,4.61-4.83.19-9.67,0-14.5,0-1.22,0-2.71.44-3-1.49l1.5-25a49.36,49.36,0,0,0,28.93-2.17c8.73-3.46,16.79-8.86,20.37-18.72,3.2-7.61,5.2-12.61,4.65-23.12,1.37-8.93-1.52-17.38-5.42-25.5-6.22-12.94-15.18-24.1-23-36-6.51-9.89-15-18.58-19-30-2-5.77-5.64-11.06-5.53-17.49.09-5.34.51-10.69.76-16,.65-14.37,6.1-26.6,14.23-38Z"/>
  <g class="disposalInner">
    <path d="M1203.65,673.55c-.2,9.1.07,18.12,2.46,27,2.89,10.68,9.81,16.24,20.51,18.61,19.79,4.37,39.64,3.47,59.53,1.83,14.85-1.22,25.07-8.69,28.93-23.47a66.25,66.25,0,0,0,1.57-20Z"/>
    <path d="M1333.65,490.55c.17-7.67.83-15.36.36-23-.46-7.33-2.13-14.5-7.82-20.05a17.25,17.25,0,0,0-12.54-4.79c-39.5.85-79,0-118.5.32-14.93.1-23.5,8.58-23.5,23.51v27Z"/>
  </g>
  <path class="disposalOuter" d="M1154.65,685.05a314.21,314.21,0,0,0,52,5.24c18.17.47,36.4,2.11,54.5,1.43,18.84-.7,37.76.75,56.49-1.35,14.17-1.6,28.4-2.75,42.52-4.84,8-1.18,8.81-1.94,8.42-10-.53-11-1.67-22-2.39-33-.48-7.32-.76-14.66-1-22s-.54-14.67-.48-22c.19-25,1.83-50,3.46-75a4.17,4.17,0,0,0,0-.5c-.86-11.75,1.35-23.33,2.15-35,.24-3.49-.9-3.94-3.65-4-24.33-.78-48.63-2.23-73-2-13.33.09-26.69-1.26-40-.77-18.18.67-36.37.19-54.5,1.05-13.52.63-27,.21-40.5,1-5.48.3-11,.73-16.68.84-.9,3.31,0,6.16.21,9,2,29.31,2,58.68,1.23,88-.53,20-2.46,40-2.93,60-.28,11.5-.38,23.12-2.78,34.51-.72,3.43.07,6.09,4.41,7.13,4,1,7.89,2.42,12,2.86Z"/>
  <path class="pipe" d="M1280.65,369.55v97l-52,1v-100Z"/>
  <path class="metalMedium" d="M1651.65,22.55c0,90,.15,180-.1,270-.07,23-7.52,43.21-24.74,59.67-9.45,9-19.61,15.93-32.16,19.33-7.72,2.09-15.33,4.48-23.5,4.56-23.34.22-46.65,1.64-70,2.19-9.15.21-18.37.14-27.5.82-23.81,1.78-47.71,1.17-71.51,2.92-1,.08-2,0-3,0-34.83.67-69.69.83-104.49,2.23-15.34.62-30.7,0-46,1.27-12.82,1.06-25.68-.06-38.5.57-21,1-42,.39-63,1.08-20.18.66-40.36.25-60.5,1-25.84.94-51.68.42-77.51,1-12.67.28-25.34.05-38,.37-41.33,1-82.67.38-124,.46-67.33.12-134.67.36-202-.14-24.66-.19-49.35-.2-74-1-22.35-.73-44.69-.13-67-1-22-.82-44-.21-66-1.06-13.68-.52-27.35-.28-41-.87-25.32-1.1-50.66-1.43-76-2.08-26-.67-52-1.42-78-2.1-9.32-.24-18.76.22-28-.94-8.71-1.1-17.42.15-26-.95-9.19-1.18-18.44.1-27.49-1.05-8.39-1.07-16.74,0-25-.89-12.85-1.33-25.85-1-38.53-4.33C80.36,369,65.44,359.86,54.31,345.43c-6.78-8.79-10.07-19.56-12.69-30.37a78.32,78.32,0,0,1-2-18.51q.1-135.49,0-271Z"/>
  <path class="metalLight" d="M1646.15,1.05c-1.46,1.37-3.28,1-5,1-5.67,0-11.34.12-17,0-16.52-.37-33,.9-49.49,1.24-20.84.44-41.67,1.25-62.5,1.92-27.67.9-55.35,1.17-83,2.13-16.84.59-33.68.43-50.51,1.1-25.15,1-50.36.55-75.49,1.81-20,1-40,0-60,.94-24.84,1.19-49.69.18-74.5,1-21.84.75-43.7.15-65.5,1-25.85,1-51.67.61-77.51.83-24.17.21-48.33.28-72.5.52-111.5,1.13-223,.5-334.5.28-30.49-.06-61-.14-91.49-.95-25.68-.69-51.36-.19-77-1-20.34-.64-40.69-.21-61-1-17.51-.67-35-.42-52.5-1-10.84-.35-21.67-.78-32.51-.89C272,9.69,239.83,8.4,207.65,7.87c-23.49-.39-47-1.35-70.5-2-21.83-.58-43.66-1.34-65.49-2.11-9.17-.32-18.4.1-27.49-.9a123.58,123.58,0,0,0-18.52-.76c-7.21.28-13.93,2.2-19,7.91C1.09,16.27-1,29.49,3.23,36.5s11.87,9.12,19.43,9.4c11.49.44,23,1,34.48,1.44,8.67.32,17.43-.23,26,.91,8.05,1.06,16.09-.12,24,.94,8.7,1.16,17.44-.08,26,1.06,8.05,1.06,16.09-.11,24,.94,8.53,1.13,17.11-.08,25.5,1,10,1.34,20.05,0,30,.9,13.67,1.19,27.4.06,41,1.15,12.21,1,24.41-.24,36.51.92,12.85,1.23,25.74-.17,38.49,1,11.54,1.1,23,.2,34.52.83C398,59,432.81,58.6,467.65,59.33c15.33.32,30.67.44,46,.7,30.33.5,60.69.45,91,1.26,50.68,1.37,101.34.4,152,.69q80.25.47,160.5,0c51.17-.27,102.33-.8,153.5-1.23,19.15-.17,38.37.31,57.49-.88s38.38.19,57.5-1c19.52-1.21,39,.2,58.5-1,16.52-1,33.06.19,49.5-1,13-1,26.07.22,39-1,12.54-1.16,25.07.17,37.51-1,13.19-1.2,26.41.18,39.49-1,12.21-1.13,24.4.17,36.51-.93,13.51-1.23,27.07.1,40.49-1.08,10.38-.91,20.75.19,31-1,10-1.12,20.1.18,30-1,9.21-1.12,18.41.12,27.51-.92,10.51-1.19,21.08,0,31.49-1.09,9.38-1,18.76.2,28-.94,10.53-1.29,21-.18,31.51-.93,9.41-.69,18.36-3.43,22.38-13,4.31-10.25,2.81-23.21-7.9-29.4-4.26-2.47-9.22-2.36-14-2.5-6.66-.19-13.33-.05-20-.05Z"/>
  <path class="panelOuter" d="M1578.15,319.55c-1.14-36.32-2.36-72.64-2-109,.18-21-.48-42,.19-63,.55-17,2.52-34,3.82-51a48,48,0,0,0,0-6c-.17-3.77-2.21-6-6-6-15.83.14-31.68-.65-47.49.59-1.65.13-3.35.33-5,.34-15.83.06-31.72-.8-47.48.29-13.19.9-26.39-.18-39.52,1.22-4,.43-5.82,2.46-6.05,6.52-.5,9.17-1.3,18.3-1.56,27.5-1,38-1.07,76-.79,114,.12,16.16.88,32.32,1,48.5.08,10.51,1.11,21,1.93,31.5.67,8.63,2.88,10.5,11.46,10.5,9.67,0,19.36.48,29-.09,34-2,68-.31,102-.91,3.17-.05,6.33-.12,6.5-4.5Z"/>
  <path class="panelInner" d="M1558.65,103.05c-8,0-16,0-24,0-23.34-.15-46.65,1.43-70,1.24-5.59,0-11.32.64-17.18.8-1.78,2.68-1.75,5.81-1.85,9-.79,27-.56,54-1.16,81-.6,27.68.73,55.33.45,83-.08,7.43.49,15,.8,22.5.07,1.86.87,3.69,1.37,5.69,37.07-.39,74.06-1.95,111.57-1,0-4.34.29-8-.05-11.68-2-22-.38-44-1-66-.13-5-1.13-10-.89-15,1.14-23.67.38-47.35,1.14-71,.38-11.65.59-23.37,1.74-35,.09-1,.58-2.14-.46-3Z"/>
  <path class="buttonStop" d="M1496.15,127.05c-5.9,1.61-11.74,3.41-16.49,7.51-9.35,8.05-13.72,18.52-11.8,30.46,2.15,13.29,10.4,23.1,23.35,26.82,18.55,5.33,36.74-5.6,41.55-24.26,4.55-17.64-8.39-37.13-25.58-39.74-3.56-.54-7-.38-10.53-.79Z"/>
  <path class="buttonGo" d="M1496.15,219.05c-5.9,1.61-11.74,3.41-16.49,7.51-9.35,8.05-13.72,18.52-11.8,30.46,2.15,13.29,10.4,23.1,23.35,26.82,18.55,5.33,36.74-5.6,41.55-24.26,4.55-17.64-8.39-37.13-25.58-39.74-3.56-.54-7-.38-10.53-.79Z"/>
</svg>
