<svg viewBox="0 0 2252.72 975.56">
  <g class="wire">
    <path d="M1.74,5.49c330.8,313.76,645.12,644.07,964.51,969.26,322.27-323,636.48-654.07,964.49-971.37Q2086,165.65,2242.28,327C2028,539.45,1819.11,757.22,1609.21,974,1284.06,653.46,969.9,322.05,644.74,1.56c-209.9,216.74-418.75,434.52-633,647Q168.39,809.63,323.3,972.4C651.26,655.08,965.45,324,1287.74,1c319.38,325.1,633.68,655.32,964.42,969"/>
    <path d="M2241,455.87C2093.35,306,1947.82,154.14,1802.15,2.41c-326.88,318.68-641.07,650-964.49,972.12C562.46,692.7,290.24,407.86,6.92,134.1Q68.74,69.38,130.34,4.45c329.68,315.27,643.95,646,964.5,970.39C1416,650.92,1730.21,320.14,2059.33,4.23q92.76,97.38,185.87,194.41C1985.13,452.05,1734,714.31,1480.62,974.37c-324-321.6-638.18-653-964.48-972.28-167,173.34-333.64,347-503.23,517.83,147.66,149.78,293.25,301.56,439,453.2,326.84-318.71,641-650,964.45-972.12,275.16,281.87,547.3,566.76,830.55,840.59q-61.76,64.65-123.32,129.49C1793.93,655.87,1479.68,325.25,1159.14.93,838,324.83,523.79,655.61,194.7,971.55Q102,874.19,9,777.14C269,523.63,520,261.28,773.34,1.15c324,321.59,638.18,653,964.46,972.28C1904.76,800.17,2071.38,626.58,2241,455.87Z"/>
    <path d="M2241.35,391.44C2115.48,262.76,1991,132.75,1866.45,2.76,1539,320.79,1224.81,652,902,974.66,604.73,671.14,311.44,363.65,4.53,69.8Q35.31,37.4,66,5c330.24,314.52,644.54,645,964.5,969.85C1352.24,651.25,1666.47,320.23,1995,3.55q123.86,129.9,248.31,259.2c-237,233-466.94,473-698.44,711.43C1220.34,653.12,906.17,321.72,580.44,1.81,392.22,197,204.63,392.85,13,584.7,138.76,713.19,263.17,843,387.59,972.78,715,654.71,1029.17,323.47,1352,.87c297.18,303.55,590.4,611.09,897.23,905q-30.72,32.32-61.4,64.69C1857.67,656.11,1543.4,325.68,1223.44,1,901.73,324.42,587.52,655.35,259,972Q135.08,842.12,10.54,712.84c237-233.07,467-473.07,698.5-711.5,324.59,321.05,638.75,652.45,964.46,972.37C1861.85,778.71,2049.57,583.08,2241.35,391.44Z"/>
    <path d="M12.91,455.62C160.54,305.84,306.12,154.05,451.84,2.41c326.87,318.68,641.05,650,964.48,972.12,275.16-281.85,547.33-566.7,830.63-840.46Q2185.2,69.36,2123.64,4.46c-329.69,315.26-644,646-964.5,970.38C838,650.84,523.77,320,194.64,4Q102,101.36,8.91,198.4c260,253.49,511.14,515.83,764.46,776,324-321.52,638.16-652.81,964.47-972,167,173.34,333.55,347,503.11,517.82-147.61,149.69-293.17,301.39-438.85,453-326.85-318.7-641-650-964.46-972.13C562.44,282.81,290.26,567.66,7,841.44q61.81,64.72,123.43,129.64C460.05,655.87,774.29,325.24,1094.84.93c321.12,323.9,635.35,654.69,964.44,970.62Q2151.91,874.11,2244.9,777c-260-253.46-511-515.77-764.26-775.86-324,321.58-638.18,653-964.46,972.28C349.18,800.09,182.52,626.41,12.91,455.62Z"/>
    <path d="M2249.33,69.88C1942.46,363.7,1649.21,671.16,1352,974.66,1029.16,652,715,320.8,387.54,2.75,263,132.7,138.42,262.67,12.5,391.32c191.83,191.68,379.58,387.36,568,582.4C906.19,653.79,1220.35,322.38,1544.94,1.34c231.5,238.5,461.43,478.56,698.38,711.68Q2118.64,842,1995,972C1666.45,655.27,1352.25,324.26,1030.54.71,709.94,326,395.06,657,64.17,972Q34.41,938.85,4.6,905.75C311.46,611.87,604.72,304.37,901.94.87c322.86,322.61,637,653.84,964.45,971.9,124.54-129.87,249.06-259.76,375-388.33-191.76-191.76-379.46-387.51-567.8-582.63-325.74,319.9-639.9,651.3-964.47,972.38C477.52,735.74,247.53,495.75,10.5,262.71Q135.23,133.6,258.94,3.54c328.56,316.7,642.79,647.71,964.49,971.27,320-324.74,634.26-655.17,964.5-969.6q30.69,32.36,61.4,64.67"/>
    <path d="M2252.24,5.5c-330.81,313.75-645.13,644.05-964.52,969.25C965.45,651.65,651.24,320.51,323.24,3.13Q167.95,165.54,11.7,327C226,539.45,434.87,757.23,644.77,974,969.91,653.54,1284.08,322.21,1609.24,1.81c209.86,216.72,418.67,434.49,632.89,646.92q-156.59,161-311.44,323.66C1602.72,655,1288.53,323.86,966.24.77,646.38,326.43,331.63,657.25.34,971.45"/>
  </g>
  <g class="steelMedium">
    <path d="M2180.61,971.81l-34.21.27Q2127.53,529.24,2143.2,86l34.11.23Q2161.11,528.91,2180.61,971.81Z"/>
    <path d="M108,972.09l-34.21-.27q19.47-442.61,3.3-885.65l34.11-.23Q126.84,528.93,108,972.09Z"/>
    <path d="M2250.17,49.55q-268.92-2.09-537.86-3.19Q858,42.9,3.69,49.55,3,32.44,2.19,15.33,857.63,8.21,1713.1,11.9q269.28,1.18,538.57,3.44Q2250.9,32.44,2250.17,49.55Z"/>
  </g>
  <g class="steelDark">
    <path d="M101.14,49.08q-.72-18-1.49-36.06c-.4-9.37-17.28-9.23-16.87.14q.78,18,1.51,36.05l-15,.11q.75,18.45,1.44,36.9l46.73-.32q-.66-18.47-1.38-36.93Z"/>
    <path d="M2170.1,49.22q.72-18,1.51-36c.41-9.37-16.48-9.51-16.88-.14q-.78,18-1.49,36.06l-15-.11q-.72,18.46-1.38,36.93l46.73.32q.69-18.45,1.44-36.9Z"/>
  </g>
</svg>
