<svg viewBox="0 0 145.39 143.12">
  <path class="marbleDark" d="M.9,19.35C.76,16.9.68,15.67.53,13.21q31.54-.36,63.06.43l0,7.05Q32.27,19.47.9,19.35Z"/>
  <path class="marbleDarkest" d="M63.64,20.69l0-7Q104.06,5.93,144.85.57c-.15,2.15-.22,3.23-.36,5.38Q103.81,12.15,63.64,20.69Z"/>
  <g class="rubberDarker">
    <path d="M135.94,119l-3.05-.31c-2.13-.28-3.62-3.25-3.32-6.63s2.29-5.89,4.42-5.6l3,.29C136.56,111.63,136.35,114.08,135.94,119Z"/>
    <path d="M69,142.57l-3.21-.32c-2.25-.29-3.82-3.44-3.53-7.05s2.36-6.3,4.61-6l3.15.28C69.64,134.71,69.44,137.33,69,142.57Z"/>
    <path d="M12.09,136.62l-3.21-.33c-2.25-.29-3.81-3.4-3.51-6.95s2.35-6.2,4.6-5.92l3.15.27C12.72,128.86,12.52,131.45,12.09,136.62Z"/>
  </g>
  <g class="rubberDark">
    <path d="M140.32,113.34c-.3,3.37-2.27,5.87-4.4,5.6s-3.63-3.25-3.32-6.62,2.29-5.88,4.42-5.59S140.63,110,140.32,113.34Z"/>
    <path d="M73.61,136.51c-.3,3.61-2.36,6.3-4.61,6s-3.82-3.45-3.52-7.06,2.36-6.29,4.6-6S73.9,132.9,73.61,136.51Z"/>
    <path d="M16.68,130.65c-.3,3.56-2.37,6.21-4.62,5.92s-3.81-3.4-3.51-6.95,2.36-6.21,4.6-5.93S17,127.08,16.68,130.65Z"/>
  </g>
  <g class="steelDark">
    <path d="M138.58,113.11c-.17,1.85-1.25,3.23-2.42,3.08s-2-1.79-1.82-3.64,1.25-3.23,2.42-3.08S138.75,111.26,138.58,113.11Z"/>
    <path d="M71.78,136.28c-.17,2-1.3,3.46-2.53,3.3s-2.11-1.89-1.94-3.87,1.29-3.46,2.53-3.31S71.94,134.3,71.78,136.28Z"/>
    <path d="M14.85,130.41c-.16,2-1.3,3.42-2.54,3.26s-2.09-1.87-1.93-3.82,1.3-3.42,2.53-3.26S15,128.46,14.85,130.41Z"/>
  </g>
  <path class="chromeMediumDark" d="M73.85,95.4l7.53-2.34q29.37,2.58,58.73,5.41L131.74,101q-12.3-1.25-24.59-2.46-30.95,8.93-61.8,18.14l28.7,2.66-10,3.26q-30-2.76-60.06-5.42L14,113.94c8.52.73,12.79,1.1,21.31,1.87Q66.61,106.66,98,97.67,85.91,96.5,73.85,95.4Z"/>
  <g class="chromeMedium">
    <path d="M4,124.81c0-3.08,0-4.62,0-7.7Q34,119.8,64,122.63v8.63Q34,128,4,124.81Z"/>
    <path d="M107.15,98.57q.43-43.5,1.66-87c-3.88.71-5.82,1.08-9.69,1.84Q98.26,55.55,98,97.67Z"/>
    <path d="M73.85,102.09V95.4q12,1.09,24.1,2.27c-7.12,2-10.67,3-17.76,5.06Z"/>
    <path d="M131.74,101q-12.3-1.25-24.59-2.46c0,2.79,0,4.18,0,7l24.56,2.64C131.69,105.32,131.71,103.89,131.74,101Z"/>
  </g>
  <g class="chromeDark">
    <path d="M74.05,127.79v-8.42l-10,3.26v8.63Z"/>
    <path d="M140.11,98.47,131.74,101c0,2.86-.05,4.29-.07,7.15,3.34-1.12,5-1.67,8.35-2.77C140.05,102.63,140.07,101.24,140.11,98.47Z"/>
    <path d="M107.15,98.57l7-2q.56-43.14,2-86.25c-3,.48-4.42.73-7.36,1.23Q107.58,55.08,107.15,98.57Z"/>
    <path d="M107.11,105.54c0-2.79,0-4.18,0-7q-30.95,8.93-61.8,18.14l20.4,1.88Q86.42,112,107.11,105.54Z"/>
  </g>
</svg>
