<svg viewBox="0 0 139.45 205.33">
  <rect class="shadow" x="9.43" y="169.82" width="120.71" height="34.51"/>
  <path class="mapleDarker" d="M137.79,25c-48.73-1.52-87.4-1.52-136.12,0C1.43,15.9,1.3,11.38,1,2.33,50.18.56,89.27.56,138.42,2.33,138.15,11.38,138,15.9,137.79,25Z"/>
  <path class="mapleMediumDark" d="M135.05,24.85c-46.9-1.4-83.75-1.4-130.64,0q1.71,72.48,2.25,145c45.38.05,80.75.05,126.13,0Q133.35,97.33,135.05,24.85Z"/>
  <path class="ironDarker" d="M23.74,204.33c.49-4.75.83-12,1.39-17.58,33.07.09,56.13.09,89.19,0,.57,5.56.9,12.83,1.39,17.58H130c0-10.17.06-24.34.11-34.51-43.61.05-77.22.05-120.82,0,0,10.17.08,24.34.11,34.51Z"/>
</svg>
