<svg viewBox="0 0 1556.71 1038.14">
  <rect class="ocean" x="0.5" y="0.5" width="1555.71" height="1037.14"/>
  <g class="wave">
    <path d="M1556.21,598.13c-89.19-51.32-156.53-34.46-188-17.62-37.16,19.85-87,18.34-120.86,0-35.87-19.45-66.87-22.42-111.61,0-49.51,24.81-90.45,24-130.84,0-37.48-22.24-84.16-24.41-120,0-46,31.36-105.28,29.15-154.92,0-56.3-33.06-131.33-32-185.12,0-45.55,27.08-101.57,20.74-141.7,0-33.25-17.18-72.9-16.69-103.77,0-55.81,30.16-88.85,25.21-145.69,0C98,555.81,49.64,555.43.5,583.7V713.57c23.59-1.69,47.27-9.27,70.43-21.15,55.43-28.43,130.51-16.55,162.19,0a129.52,129.52,0,0,0,120.86,0c46.19-24.41,79.18-22.42,123.92,0,49.51,24.81,99.74,22,141.21,0,39.46-21,79.44-23,121.93,0,47.73,25.8,111.44,29.15,161.09,0,56.3-33.06,110.28-25.59,154.32,0,45.82,26.62,107.73,20.74,147.86,0,33.25-17.18,72.9-16.69,103.77,0,55.81,30.16,101.17,25.21,158,0,32.45-14.4,61.37-21.1,90.12-18.89Z"/>
    <path d="M1556.21,788.09c-45.21-6.77-95,2.62-137.14,24.35-51.92,26.76-81.9,30.91-134.4,0-69.71-41.05-119.5-32.75-176.48,0-30.42,17.48-82.83,17.18-116.08,0-40.13-20.74-89.73-26.62-135.55,0-44,25.58-98,33-154.32,0-49.65-29.15-102.75-31.36-148.77,0-35.83,24.41-94.82,22.23-132.3,0-40.4-24-93.65-24.81-143.16,0-44.74,22.41-77.68,24.3-123.92,0C123.52,796.37,61.8,785.23.5,830.6V940.77C62.74,905.32,129.87,904,185.67,934.2c30.87,16.68,69.75,15.6,103.77,0,56-25.68,114.36-26.62,160.18,0,44,25.59,98,33,154.32,0,49.65-29.15,115.06-31.36,161.09,0,35.83,24.41,82.5,22.23,120,0,40.4-24,81.33-24.81,130.85,0,44.73,22.42,77.67,24.3,123.92,0,30.57-16.07,66.24-14.58,90.07,0,30.48,18.65,75,30.95,131.4,0,47.18-25.89,97.13-31.26,146.41,0a133.19,133.19,0,0,0,48.55,18.36Z"/>
    <path d="M1556.21,340.31c-43.28,29.95-113.32,32.26-169,7.56-56.84-25.21-89.88-30.16-145.69,0-30.87,16.68-70.52,17.18-103.77,0-40.13-20.74-102-26.62-147.86,0-44,25.59-97.4,32-154.32,0-59.48-33.42-121-33.2-173.4,0-36.62,23.21-82.51,22.23-120,0-40.39-24-81.33-24.81-130.84,0-44.74,22.42-77.73,24.41-123.92,0a129.55,129.55,0,0,0-120.86,0C126,369,61,364,.5,332.93V477.48c80.26-51.61,170.32-47.86,226.12-17.7,30.87,16.68,70.52,17.18,103.77,0,40.13-20.74,102-26.62,147.86,0,44,25.58,98,33.07,154.33,0,48-28.19,99.95-36.19,173.4,0,38.89,19.16,82.5,22.23,120,0,40.39-24,81.33-24.81,130.85,0,44.73,22.42,78.48,25.78,123.91,0,33.47-19,71.39-19.86,108.55,0,31.52,16.84,75,31,131.4,0,43.72-24,89.81-30.36,135.54-6.3Z"/>
    <path d="M1556.21,109.87c-46.66,25.84-93.75,19.71-138.37-4.77-56.43-30.95-100.92-18.65-131.4,0-23.83,14.58-59.5,16.07-90.07,0-46.25-24.3-79.19-22.42-123.92,0-49.52,24.81-90.45,24-130.85,0-37.48-22.23-84.15-24.41-120,0-46,31.36-123.76,29.15-173.4,0-56.3-33-110.28-25.59-154.33,0-45.82,26.62-107.73,20.74-147.86,0-33.25-17.18-72.9-16.68-103.77,0C186.46,135.26,85.53,138.9.5,86V216.39C46.74,200.63,84,215,108.29,226.86c36.68,17.83,71.82,16.07,102.39,0,46.24-24.3,79.18-22.41,123.92,0,49.51,24.81,90.45,24,130.84,0,37.48-22.23,85.23-26.76,130.36,0,47.9,28.41,113.38,29.15,163,0,56.3-33.05,110.28-25.58,154.32,0,45.82,26.62,107.73,20.74,147.86,0,33.25-17.18,72.9-16.68,103.77,0,55.81,30.16,101.17,25.21,158,0,55.69-24.7,101-26.76,152.87,0a240.82,240.82,0,0,0,80.55,24.85Z"/>
  </g>
</svg>
