<svg viewBox="0 0 1297.43 865.28">
  <rect class="ocean" x="0.5" y="0.5" width="1296.43" height="864.28"/>
  <g class="wave">
    <path d="M1296.93,498.52c-74.33-42.76-130.45-28.71-156.72-14.68-31,16.55-72.53,15.29-100.71,0-29.89-16.21-55.73-18.68-93,0-41.26,20.68-75.37,20-109,0-31.24-18.53-70.13-20.34-100,0-38.36,26.13-87.73,24.29-129.11,0-46.91-27.54-109.43-26.65-154.26,0-38,22.57-84.64,17.28-118.09,0-27.7-14.32-60.74-13.9-86.47,0-46.5,25.13-74,21-121.41,0C81.73,463.26,41.45,462.94.5,486.5V594.73c19.66-1.42,39.39-7.73,58.69-17.63,46.19-23.69,108.76-13.79,135.16,0a107.93,107.93,0,0,0,100.71,0c38.5-20.34,66-18.68,103.27,0,41.26,20.67,83.12,18.37,117.68,0,32.88-17.48,66.2-19.15,101.61,0,39.77,21.5,92.86,24.29,134.24,0,46.91-27.55,91.9-21.32,128.6,0,38.18,22.18,89.78,17.28,123.22,0,27.71-14.32,60.75-13.91,86.47,0,46.5,25.13,84.3,21,131.67,0,27-12,51.15-17.58,75.11-15.75Z"/>
    <path d="M1296.93,656.82c-37.68-5.63-79.17,2.19-114.29,20.29-43.26,22.31-68.25,25.76-112,0-58.09-34.2-99.58-27.29-147.06,0-25.36,14.58-69,14.32-96.74,0-33.44-17.28-74.77-22.18-113,0-36.7,21.33-81.68,27.55-128.6,0-41.37-24.29-85.62-26.13-124,0-29.86,20.35-79,18.53-110.26,0-33.66-20-78-20.67-119.29,0-37.29,18.69-64.73,20.26-103.27,0C103,663.73,51.59,654.44.5,692.25v91.81c51.86-29.55,107.81-30.61,154.31-5.48,25.73,13.91,58.12,13,86.47,0,46.66-21.4,95.3-22.18,133.49,0,36.7,21.33,81.68,27.55,128.6,0,41.37-24.29,95.88-26.13,134.23,0,29.86,20.35,68.76,18.53,100,0,33.66-20,67.78-20.67,109,0,37.28,18.68,64.73,20.26,103.27,0,25.47-13.39,55.2-12.15,75.06,0,25.4,15.55,62.47,25.8,109.49,0,39.33-21.57,81-26.05,122,0a110.85,110.85,0,0,0,40.46,15.3Z"/>
    <path d="M1296.93,283.67c-36.07,25-94.44,26.89-140.85,6.3-47.36-21-74.9-25.13-121.4,0-25.73,13.91-58.77,14.32-86.48,0-33.44-17.28-85-22.18-123.22,0-36.7,21.33-81.17,26.65-128.6,0-49.56-27.84-100.85-27.66-144.5,0-30.52,19.34-68.76,18.53-100,0-33.66-20-67.77-20.67-109,0-37.29,18.69-64.78,20.34-103.27,0a108,108,0,0,0-100.72,0c-33.79,17.64-88,13.42-138.37-12.45V398c66.88-43,141.93-39.88,188.43-14.75,25.73,13.91,58.77,14.32,86.48,0,33.44-17.28,85-22.18,123.22,0,36.7,21.32,81.69,27.56,128.6,0,40-23.49,83.29-30.15,144.5,0,32.41,16,68.76,18.53,100,0,33.66-20,67.77-20.67,109,0,37.29,18.68,65.41,21.49,103.27,0,27.89-15.82,59.49-16.55,90.46,0,26.26,14,62.47,25.8,109.49,0,36.44-20,74.84-25.29,113-5.25Z"/>
    <path d="M1296.93,91.64c-38.89,21.53-78.13,16.43-115.32-4-47-25.8-84.09-15.55-109.5,0-19.85,12.15-49.58,13.39-75.06,0-38.53-20.26-66-18.68-103.26,0-41.26,20.67-75.38,20-109,0-31.23-18.53-70.13-20.35-100,0-38.35,26.13-103.12,24.29-144.5,0-46.91-27.55-91.9-21.33-128.6,0-38.18,22.18-89.78,17.28-123.22,0-27.71-14.32-60.75-13.91-86.47,0C155.46,112.8,71.36,115.83.5,71.76V180.41c38.53-13.13,69.55-1.13,89.82,8.73,30.57,14.85,59.85,13.38,85.33,0,38.54-20.26,66-18.69,103.26,0,41.27,20.67,75.38,20,109,0,31.23-18.53,71-22.3,108.63,0,39.92,23.67,94.49,24.29,135.86,0,46.92-27.55,91.9-21.33,128.6,0,38.18,22.18,89.78,17.28,123.22,0,27.71-14.32,60.75-13.91,86.48,0,46.5,25.13,84.3,21,131.67,0,46.4-20.59,84.13-22.31,127.39,0a201.07,201.07,0,0,0,67.13,20.7Z"/>
  </g>
</svg>
