<svg viewBox="0 0 2106.1 1404.73">
  <rect class="ocean" x="1" y="1" width="2104.1" height="1402.73"/>
  <g class="wave">
    <path d="M2105.1,809.29c-120.63-69.41-211.72-46.61-254.34-23.83-50.26,26.86-117.72,24.81-163.47,0-48.51-26.31-90.44-30.32-150.94,0-67,33.56-122.34,32.41-177,0-50.69-30.07-113.82-33-162.28,0-62.25,42.41-142.39,39.42-209.54,0-76.14-44.7-177.62-43.25-250.36,0-61.61,36.63-137.38,28-191.66,0-45-23.24-98.59-22.57-140.35,0-75.47,40.79-120.16,34.1-197,0C132.83,752.05,67.46,751.55,1,789.78V965.43c31.91-2.29,63.93-12.55,95.25-28.61,75-38.45,176.52-22.38,219.36,0a175.2,175.2,0,0,0,163.47,0c62.47-33,107.09-30.32,167.6,0,67,33.56,134.9,29.81,191,0,53.37-28.37,107.44-31.07,164.91,0,64.55,34.89,150.72,39.42,217.87,0,76.15-44.71,149.15-34.61,208.72,0,62,36,145.71,28,200,0,45-23.24,98.59-22.57,140.34,0,75.48,40.79,136.83,34.1,213.71,0,43.89-19.47,83-28.54,121.89-25.55Z"/>
    <path d="M2105.1,1066.21c-61.15-9.15-128.49,3.55-185.49,32.93-70.21,36.21-110.77,41.81-181.77,0-94.29-55.51-161.62-44.29-238.69,0-41.15,23.66-112,23.24-157,0-54.28-28-121.36-36-183.33,0-59.57,34.61-132.58,44.71-208.72,0-67.15-39.42-139-42.41-201.21,0-48.46,33-128.25,30.08-178.94,0-54.63-32.4-126.65-33.55-193.62,0-60.51,30.32-105.06,32.87-167.6,0-41.35-21.72-124.82-36.8-207.73,24.57v149c84.18-48,175-49.67,250.44-8.88,41.76,22.56,94.34,21.1,140.35,0,75.73-34.73,154.67-36,216.64,0,59.57,34.61,132.58,44.7,208.73,0,67.14-39.43,155.61-42.41,217.86,0,48.46,33,111.59,30.07,162.28,0,54.63-32.41,110-33.56,177,0,60.51,30.32,105,32.87,167.6,0,41.35-21.73,89.6-19.72,121.82,0,41.23,25.23,101.41,41.87,177.72,0,63.82-35,131.37-42.28,198,0,20.49,13,43,20.87,65.66,24.83Z"/>
    <path d="M2105.1,460.59c-58.54,40.51-153.27,43.63-228.59,10.23-76.88-34.1-121.57-40.8-197,0-41.76,22.56-95.38,23.23-140.35,0-54.28-28.05-138-36-200,0-59.57,34.6-131.74,43.24-208.73,0-80.44-45.2-163.67-44.91-234.52,0-49.53,31.38-111.59,30.07-162.28,0-54.63-32.41-110-33.56-177,0-60.51,30.32-105.13,33-167.6,0a175.21,175.21,0,0,0-163.46,0C170.74,499.43,82.76,492.59,1,450.61v195.5c108.55-69.79,230.35-64.73,305.83-23.94,41.75,22.57,95.37,23.24,140.34,0,54.28-28,138-36,200,0,59.57,34.61,132.59,44.73,208.72,0,64.9-38.12,135.19-48.93,234.53,0,52.6,25.92,111.59,30.07,162.28,0,54.63-32.4,110-33.55,177,0,60.51,30.32,106.15,34.88,167.6,0,45.27-25.68,96.55-26.85,146.81,0,42.63,22.78,101.41,41.87,177.72,0,59.13-32.44,121.47-41,183.32-8.52Z"/>
    <path d="M2105.1,148.92c-63.11,35-126.8,26.66-187.15-6.45-76.32-41.86-136.49-25.22-177.72,0-32.22,19.72-80.48,21.73-121.82,0-62.55-32.87-107.09-30.32-167.6,0-67,33.56-122.34,32.41-177,0-50.69-30.07-113.82-33-162.28,0-62.25,42.41-167.38,39.43-234.52,0-76.15-44.7-149.16-34.6-208.73,0-62,36-145.7,28.05-200,0-45-23.24-98.59-22.56-140.35,0-75.47,40.79-212,45.71-327-25.81V293c62.53-21.31,112.87-1.83,145.79,14.17,49.6,24.11,97.13,21.73,138.48,0,62.54-32.87,107.09-30.32,167.6,0,67,33.55,122.33,32.4,177,0,50.69-30.07,115.27-36.2,176.31,0,64.79,38.41,153.35,39.42,220.5,0,76.14-44.71,149.15-34.61,208.72,0,62,36,145.71,28,200,0,45-23.24,98.6-22.57,140.35,0,75.48,40.79,136.83,34.09,213.7,0,75.32-33.41,136.55-36.21,206.76,0a326,326,0,0,0,108.95,33.6Z"/>
  </g>
</svg>
