<svg viewBox="0 0 1172.53 328.13">
  <path class="rockDark" d="M.5,327.63C.5,213.4,61,122.27,117.69,101.39,195,72.92,241.9,35.21,310.67,50c81.49,17.52,110.07,69.85,145.65,71,23.15.74,65.07-48.06,92.05-50.65,82.67-7.92,99.42,38.17,134.2,35.12C809,94.36,773.14,18.58,913.62.83c35.68-4.5,146.4,37.71,176.71,79.48,49.5,68.21,81.7,247.32,81.7,247.32Z"/>
  <g class="rockCreaseLine">
    <path d="M408.74,201.57c-1.92-.64-3.27-2.19-4.92-3.24a75.85,75.85,0,0,0-10.43-5.41,78.65,78.65,0,0,0-11.47-4.38,25.57,25.57,0,0,0-14,.06c-6.83,2.09-13.35,5-20.15,7.19a101.51,101.51,0,0,1-11.41,2.46,66,66,0,0,1-9.46.93,43.68,43.68,0,0,1-10.16-.8c-4.26-.81-8.4-2.12-12.6-3.21A81.56,81.56,0,0,0,291,192.38a11.72,11.72,0,0,0-4.78.56c-3.4,1.2-7,1.75-10.21,3.6s-6.39,3.33-9.2,5.61c-.49.39-1.2.68-1.31,1.45"/>
    <path d="M985.64,183.09a50.91,50.91,0,0,0-17.54-7.29c-4-.93-7.83-1.19-11.65.13a49.84,49.84,0,0,0-7.21,3.3C944.58,181.7,940,184.36,935,186a28.81,28.81,0,0,1-12.18,1.16,144.2,144.2,0,0,1-15.71-2.76c-4.23-1-8.49-1.91-12.74-2.82a43,43,0,0,0-17.58-.54,104.61,104.61,0,0,0-12.21,3.14,1.76,1.76,0,0,0-1.28,1"/>
    <path d="M414.29,262.57c-2.38-.69-4.58-1.84-7-2.45a25.81,25.81,0,0,0-12.77-.14c-4,1-7.24,3.39-10.91,5-2.88,1.24-5.66,2.8-8.87,3.16a27.42,27.42,0,0,1-7.57,0c-5.84-1-11.27-3.65-17.2-4.19-3.37-.31-6.78-1.06-10.16-.37-2.93.61-5.8,1.57-8.69,2.37"/>
    <path d="M906,236.32a18.25,18.25,0,0,1-5.15-1.54,23.88,23.88,0,0,0-6.86-1.23c-5.76-.47-10.91,1.71-16.08,3.72-4.78,1.86-9.44,4.08-14.26,5.85s-9.77,1.54-14.77.64a47.87,47.87,0,0,1-8.5-2.82,40.2,40.2,0,0,0-7.78-1.77,37.59,37.59,0,0,0-9.59-.81,113.2,113.2,0,0,0-13.53,1.71c-7.47,1.61-14.37,4.61-21.41,7.34a5,5,0,0,0-2,1.48"/>
    <path d="M701.53,223.94A42,42,0,0,0,692.1,221c-5.25-1.22-10.41-.53-15.52.91a53.34,53.34,0,0,1-10.91,2.15c-5.42.33-10.84.59-16.11-1.69-4-1.75-8.41-2.67-12.91-1.22-3.28,1.07-6.43,2.43-9.59,3.75a4.81,4.81,0,0,1-1.31.53"/>
    <path d="M376.21,141.68a18.61,18.61,0,0,0-12.44,2.12,14.15,14.15,0,0,1-12.92.56,15.78,15.78,0,0,0-9.21-1.21c-.39.06-.67.13-.73.57"/>
    <path d="M901.72,130.59a12.37,12.37,0,0,0-7.58-.57c-3.17.66-6,2.3-9,3.23a18.35,18.35,0,0,1-11.12,0,24.42,24.42,0,0,0-5.72-1.17,10.77,10.77,0,0,0-4.06.76"/>
  </g>
  <g class="buddha">
    <g class="copperDarkest">
      <path d="M131.66,283.09a6.77,6.77,0,0,1-.5-1.32,10.76,10.76,0,0,1-.11-8.32c.67-1.81,2-3.1,2.83-4.78l52.31-.56a4.62,4.62,0,0,1,3.17,2.58c2.19,3.92,1.48,7.78,0,11.66Z"/>
      <path d="M169.56,199.35c1.34-2.68.94-5.82.13-8.48a6.29,6.29,0,0,0-3.67-4.4c-.92-.32-.67-.82-.71-1.35-.14-1.94-.8-3-2.6-3.47s-3.5-.71-5,.71c-.26.24-.58.64-.54.91.32,1.83-1,2.2-2.2,3-4,2.69-5.07,6.81-4.61,11.38.05.58-.21,1.4.61,1.91a12.06,12.06,0,0,0,4.1-7.82c3.47,3.44,7,2.24,10.5.51.75,2.55,1.46,5.45,3.77,7.07Z"/>
    </g>
    <path class="copperDarker" d="M140.54,238c-.37,4.75-.76,9.49-1.1,14.24a2,2,0,0,1-.78,1.45c-2.42,1.88-4,4.51-6,6.72a7.47,7.47,0,0,0,.83,10.74,3.92,3.92,0,0,0,2.27.75c2,.09,4.07.67,6.1.12l18.67-.74c.82,1.33,2.23.69,3.33.87a55.91,55.91,0,0,0,14,0,35,35,0,0,0,10.53-2.4,3.22,3.22,0,0,0,1.68-2.2,8.58,8.58,0,0,0-2.62-9.21c-3.17-2.46-6.5-4.73-9.78-7-.5-.36-1-.65-1.15-1.34a40.5,40.5,0,0,0,5.11-5.28,7.61,7.61,0,0,0,1.33-5.95,103.47,103.47,0,0,0-2.26-12.05c-.78-2.73-1.79-5.11-4.31-6.64-1.63-1-3.19-2.12-4.82-3.13a3.4,3.4,0,0,0-3.87,0,4.14,4.14,0,0,1-2.22.92"/>
    <path class="copperDark" d="M181.21,260.71a23.19,23.19,0,0,0-3.51-1.32,7.34,7.34,0,0,1-4.28-2.91,13.16,13.16,0,0,0-1.65-1.86,1.12,1.12,0,0,0-.92-.37l.55-.18,2.23-2.4c-1.28-2.18-5.3-3.16-7.19-1.64a2.08,2.08,0,0,1-2.45.56c-.72-.31-1.45.31-2,.73a9,9,0,0,1-7.42,1.63c-2.63-.44-3.23-.27-4.1,1.38a6.36,6.36,0,0,0,3.18,2.7c2.3.68,3.2,2.77,4,4.65a8.49,8.49,0,0,1,1.11,4c-1.83,1.87-4.46,2.17-6.93,2.83a1.87,1.87,0,0,1-1.48-.36l-.37-.18a11.85,11.85,0,0,0-.77-2.76c-2.11-3.82-2.09-8.09-2.49-12.22a67.34,67.34,0,0,1,.06-10.72,2.77,2.77,0,0,1,1.37-2.38,47.59,47.59,0,0,0,8.41-7.12,92.59,92.59,0,0,0,11.52-14,3.34,3.34,0,0,0,.76-2c-.69-.52-1.39-1-2-1.53a8.58,8.58,0,0,1-1.11-1.29,2.62,2.62,0,0,1,.37-3.69,7.09,7.09,0,0,0,2.15-2.8,4.5,4.5,0,0,1,1.52-2c1.55-1.3,1.84-5-.35-6.08-2.31-1.62-3-4.52-3.77-7.07-3.53,1.73-7,2.93-10.5-.51a12.06,12.06,0,0,1-4.1,7.82c-1,.93-1.71,3.75,1.34,5.89a2,2,0,0,1,.72,1.45,4,4,0,0,0,1,2.2,4.31,4.31,0,0,1-.2,5.94c-1.93,2.27-4.52,3.45-7.22,4.41a8.75,8.75,0,0,0-5.13,5c-2.11,4.8-2.36,10-2.93,15.13-.6,5.43.8,10.6,1.1,15.9a21.24,21.24,0,0,0,1.43,5,8.67,8.67,0,0,1,.19,5.19c-.91,3.25.35,6.2,1.69,9,.75,1.6,2.4,1.78,4,1.68s2-1.58,2.16-2.78c.22-1.68.91-2,2.46-1.68,3.4.72,6.79.16,10.16-.34.87-.13,1.19-.69,1.52-1.47a16.66,16.66,0,0,1,2.9-4.83,4.42,4.42,0,0,1,3-1.5,33.59,33.59,0,0,1,10.16.07c1.36.27,2.62,1.1,4.27.47A4,4,0,0,0,181.21,260.71Z"/>
    <g class="buddhaOverlapLine">
      <path d="M173.07,230.22c-.47,1.86.3,3.61.66,5.34a9.55,9.55,0,0,0,.7,2.86,3.26,3.26,0,0,1-.58,3.29c-1.42,1.91-3.14,3.53-4.66,5.33-.46.54-1.14.89-1.3,1.67"/>
      <path d="M155.14,257.76a22.08,22.08,0,0,0-8.5,1.11"/>
      <path d="M176.58,249.63c-1.14.54-1.56,2-3,2.22"/>
      <path d="M170.3,254.44c-1.05.67-1,1-2,1.66-4.28,2.63-8.83,2.52-13.49,1.29"/>
      <path d="M154.58,209.89c2.22,2,3.44,2.37,6.11,2.07,1.64-.19,3.34,0,4.61-1.33"/>
      <path d="M148.3,229.48q-.74,5.55-1.48,11.09"/>
      <path d="M167.71,264.05c-3.07.16-6.07-.5-8.69,1.29"/>
      <path d="M152,201.39c-.29,1.8.14,2.33.37,4.06"/>
      <path d="M169.37,201.39c-.25,1.6-.12,2.83-.37,4.43"/>
      <path d="M149.78,267.19c.5,1.73-.55,3.45-.37,5.18"/>
    </g>
  </g>
  <g class="seaweed">
    <path d="M552.55,289.19c-2.95-1.75-4-4.56-4.44-7.77s.85-5.47,2.95-7.59c1.32-1.33,2.77-2.74,2.55-4.79a24.86,24.86,0,0,1,.21-5.18c.25-2.66.11-5-2.31-7.1-4.13-3.6-2.93-9.62.19-12.4a6.49,6.49,0,0,0,2.14-5.27c0-1,.12-2,.15-3,.09-3,.49-6.06-2.18-8.32-.26-.23-.6-.45-.72-.75-.63-1.59-1.28-3-.89-5a9.76,9.76,0,0,1,3.27-5.52,3.43,3.43,0,0,0,1.51-2.4c.16-2.71.34-5.44.77-8.12a2.69,2.69,0,0,0-1-3c-2.66-2-2.82-6.2-1.14-8.7a28.46,28.46,0,0,1,3-3.31c.39-.43.87-.73,1-1.47.25-1.8,1-3.58,1-5.36,0-1.45.93-3.18-.47-4.42-2.27-2-2.18-6.22.25-7.7a16.94,16.94,0,0,0,5.33-5.43,4.89,4.89,0,0,1,1.83-2.05,20.5,20.5,0,0,1,0,3.51,4.52,4.52,0,0,0,1.24,3.74c2.18,2.37,1.6,9-3.1,9.59-1.07.14-1.52.81-1.52,2,0,1.66-.35,3.32-.5,5a2,2,0,0,0,.87,1.89c2.15,1.78,3.83,3.89,3.57,7a8.5,8.5,0,0,1-4.68,7c-1.08.61-1.52,1.12-1.46,2.29a14.49,14.49,0,0,1-.14,3.15c-.45,2.78-.19,5.09,2.3,7.3,4,3.59,3,9.73-1.61,12.43-1.65,1-2.46,1.95-2.05,3.93a9.32,9.32,0,0,1-.16,3.32,5.22,5.22,0,0,0,2.21,5.4,9.41,9.41,0,0,1,3.6,4.75c1.18,4.2.07,7.64-3.26,10.11a5.52,5.52,0,0,0-2.56,5.44c.15,2,0,3.94,0,5.91a3.34,3.34,0,0,0,1.1,2.23c1,1.14,2,2.32,3,3.5,1.95,2.36,1.69,5,1.15,7.77-.6,3.08-2.66,4.86-5,6.46Z"/>
    <path d="M569.93,287.71c-.8.06-1-.75-1.07-1.12-1.27-4.81.21-9,4.4-11.25,1.14-.6,2.5-1.14,2.69-2.43a25.74,25.74,0,0,1,.86-3.86,4.09,4.09,0,0,0-1.32-4.65,6.42,6.42,0,0,1-2.4-3.5,9.85,9.85,0,0,1,4.11-10.25,6.5,6.5,0,0,0,2.67-4.36,26.84,26.84,0,0,0,.23-3.5c.16-1.72-.16-3.1-1.83-4.1s-2.47-3.07-2.95-5c-.69-2.74.64-4.89,2.77-6.41a2.7,2.7,0,0,0,1.23-3c-.32-1.66-.53-3.32-.72-5-.22-1.87-.83-3.42-2.93-4.12a4.47,4.47,0,0,1-3-3.84c-.1-2.37.26-4.86,2.29-6.66a5.28,5.28,0,0,0,1.87-4.42c-.12-2.53-.19-5.06-.17-7.58a2.93,2.93,0,0,0-1-2.41,5.42,5.42,0,0,1-1.68-2.76c-.56-2.11.5-3.72,1.7-5.16a49.3,49.3,0,0,1,4.78-4.83,6,6,0,0,0,2,4.13c2.48,2.52,1.52,8.86-1.79,9.72a1.11,1.11,0,0,0-.92,1.31c.06,2.71.08,5.42.21,8.13.05,1.07,1.14,1.53,1.85,2,4.94,3.17,3.89,8.62,1,12-1.09,1.31-.6,2.62-.65,3.92a28,28,0,0,0,.33,4.07,3.58,3.58,0,0,0,2,3.26A5.4,5.4,0,0,1,588,229.3a9.65,9.65,0,0,1,.13,5.53,5.25,5.25,0,0,1-2.71,3.9,3.19,3.19,0,0,0-1.92,3.32c0,1.53-.61,3-.33,4.63a9.73,9.73,0,0,0,2.44,4.61c3.79,4.51,2.07,9.8-1.54,12.88a17.39,17.39,0,0,1-2.34,1.75,2.56,2.56,0,0,0-1.13,1.27c-.83,2.14-.95,4.44-1.47,6.66-.11.48.31.79.56,1.09,3.32,4,2.47,10.74-1.85,13.52-.17.11-.25.36-.38.54Z"/>
  </g>
  <g class="kelpBack">
    <path d="M982.31,279.57a17.93,17.93,0,0,1-5-13.49,25.6,25.6,0,0,0,0-2.77c-.42-6.75-3.17-12.67-6.66-18.29a15.39,15.39,0,0,1-2.34-8.51c0-1.48.06-3,.15-4.44a32.25,32.25,0,0,1,.38-4.06c.65-3.62,1.65-7.18,2.43-10.76a31,31,0,0,0,.92-9.21,49.42,49.42,0,0,0-2.46-12.19,45.79,45.79,0,0,1-2.57-13.13c-.21-4.71,1.3-9.22,1.64-13.87.2-2.63,1.56-5.06,1.31-7.76l.37,2.77c.89,3,1.66,6.09,2.71,9.08.88,2.53,2.26,4.81,3,7.37a40.71,40.71,0,0,1,1.52,7.21c.44,3.69.53,7.4.94,11.08a14.83,14.83,0,0,1-.38,5.16c-.84,3.32-.36,6.72-1.13,10a35.05,35.05,0,0,0-.82,5.35,32.92,32.92,0,0,0,.9,9.63c.86,4,2.77,7.59,4.4,11.3,1,2.36,2.34,4.65,2.81,7.33.25,1.38,1.28,2.74,1.54,4.27l4.62,7.77c-.12-.82.38-1.39.73-2,2.27-4.3,3.52-8.79,2.4-13.67-1.63-7.11-.33-13.86,2.2-20.53,1.25-3.3,2.66-6.59,3-10.16.13-1.59.05-3.22.12-4.8a29.48,29.48,0,0,0-.32-6.1,61.5,61.5,0,0,1-1.06-9.06,53.36,53.36,0,0,1,.34-7.58,34.7,34.7,0,0,1,2.55-9.82c1.24-2.81,3.6-4.85,4.74-7.72.64-1.59.51-3.35,1.42-4.83l.37.74a11.64,11.64,0,0,1,1.43,5.18,45.07,45.07,0,0,1,0,13.12,33.93,33.93,0,0,1-2.76,8.13,26.24,26.24,0,0,0-1.8,15.53c.54,3.1,1.57,6.13,1.95,9.25a100,100,0,0,1,1.12,12.75c0,6.9-2.24,13-4.74,19.23a55,55,0,0,0-3.24,11.62c-.67,4-.19,7.91-.46,11.85a54.77,54.77,0,0,1-1.56,7.93c-.06.29-.12,1.11-.86,1.12Z"/>
    <path d="M211.88,284.94c-1-2-1.91-4.1-3-6.1a28.42,28.42,0,0,1-2.87-17.55,74.1,74.1,0,0,0,.65-10.92,23.85,23.85,0,0,0-3.31-11.65,35.23,35.23,0,0,1-3.18-6.46c-1.59-4.86-1.06-9.73-.32-14.6.8-5.24,3.22-10,4.78-15,.61-2,1.18-3.93,1.65-5.92.67-2.79.4-5.68.85-8.5l.28.56a4.62,4.62,0,0,1,1.64,2.41c.51,1.41,1,2.83,1.56,4.22a48.22,48.22,0,0,1,2.85,15.18,56,56,0,0,1-3.1,19.4c-1,3-1.57,6-.5,9.05a37.15,37.15,0,0,0,4.4,8.51,8.68,8.68,0,0,1,1.65,3.33Z"/>
    <path d="M229.26,272.74a4.68,4.68,0,0,1,.38-.92,32.83,32.83,0,0,0,5.11-14.43c.29-3.24.68-6.63-.2-9.77-2-7.18-.3-13.72,2.66-20.17,1.91-4.16,4.55-8,5.56-12.57.09-.4.48-.74.72-1.11l.19-1.11a52.89,52.89,0,0,0,2.07,6.27c3.18,6.75,2.91,13.77,2,20.91-.71,5.65-3.59,10.51-5.58,15.7-1.21,3.14-2.53,6.29-2.85,9.63a39.45,39.45,0,0,0,.43,8.31c.59,5.15,1.88,10.2.86,15.54a35.47,35.47,0,0,1-10.43,19.21c-1.48,1.45-2.85,3-4.81,3.88Z"/>
  </g>
  <g class="kelpFront">
    <path d="M990.44,280.87a4,4,0,0,1,.2-.92c2.08-4.46,2.36-9.29,2.51-14.06s-.87-9.56-2-14.22c-1-4-.53-7.95.28-11.83.93-4.42,2.37-8.74,3.42-13.14a17,17,0,0,0,.37-5c-.32-5-2.06-9.6-3.71-14.22-1.8-5.06-2.37-10-.54-15.18,1.34-3.77,2.87-7.47,3.56-11.45,1.1-6.26-.14-12.29-1.67-18.3-1.22-4.79-2.39-9.59-2-14.6a1.91,1.91,0,0,0-.37-1.67s-.42-.06-1,1.45c-1.9,4.94-3.37,10-5.08,15a63.51,63.51,0,0,0-1.61,7.73c-1,4.94.28,9.46,1.42,14.07a34.77,34.77,0,0,1,.11,16.81,95.18,95.18,0,0,0-3,20.72A19.89,19.89,0,0,0,983,230c1,2.36,2.32,4.6,2.59,7.21.5,4.78.25,9.41-2,13.89a23.47,23.47,0,0,0-2.41,10.32,50.16,50.16,0,0,1-.36,5.55c-.37,2.9.63,5.7,1.29,8.49a34.19,34.19,0,0,0,2,5Z"/>
    <path d="M223.35,170.89l.36.55c1,1.44,1.13,3.22,1.59,4.83.93,3.23,2.22,6.32,3.08,9.58,1.09,4.11,2.27,8.17,3,12.38a43.85,43.85,0,0,1,.7,7,33.8,33.8,0,0,1-2.75,12.95c-1.5,3.72-3.5,7.22-4.66,11.08-1.9,6.34-2.4,12.72,0,19,.93,2.4,1.86,4.84,2.63,7.26,2.08,6.46,4,13.06,3.92,19.93s-1.55,13.66-5.51,19.57c-.3.44-.24.93-.53,1.32l-2.58-3.33a28.1,28.1,0,0,0,1.27-3.33c1.34-5.64.09-10.87-2.55-15.9-2.14-4.08-4.94-7.78-6.18-12.36-1.29-4.81-2-9.59-.65-14.43,1.71-6.27,3.93-12.43,4.89-18.87a46,46,0,0,0-.47-14.23,103.79,103.79,0,0,1-1.43-10.35c-.27-4.65,1-9.16,2-13.67s2.25-8.81,2.88-13.32c.24-1.71-.07-3.49.6-5.17C223,171.44,223.25,169.1,223.35,170.89Z"/>
  </g>
  <path class="tubeWormBack" d="M623.9,327.26h22.92l2.4-40.85a55.1,55.1,0,0,0,.83-9.8c-.21-4.2-2.18-5.41-5.46-6a27.46,27.46,0,0,0-9.78-.27,30.87,30.87,0,0,0-5.55,1.3c-2.54,1-3.19,3.21-3.48,5.55-.23,1.95-.16,3.93-.22,5.91Z"/>
  <g class="tubeWormPlume">
    <path d="M630.37,273.11c-.81-.94-1.18-2.2-1.91-3.1-3-3.71-3-7.77-2-12.06.66-2.68,1.41-5.34.74-8.14l.55.37c2.5,1.32,3.93,3.88,6.27,5.39.23.14.26.59.39.9L633.7,255c.49-.4.34-1,.37-1.48a23.33,23.33,0,0,1,2.77-9.79l.37-.56c-.33,2.06.93,3.7,1.74,5.32a18.77,18.77,0,0,1,1.77,9.47l.19-1.3c.72-.22.81-.9,1.12-1.46,1.2-2.16,1.86-4.64,3.87-6.3l.37-.37a30.57,30.57,0,0,0,.69,9.81c.83,4.25.72,8.48-1.61,12.37-.29.47-.43,1.06-1.12,1.11Z"/>
    <path d="M651.07,285.67c-.16-1.79-.7-3.51-.83-5.35-.23-3.41.91-6.3,2.27-9.27,1.22-2.66,3.33-4.8,4.26-7.57a9.93,9.93,0,0,1,2.62-3.87,5.33,5.33,0,0,1,.17,1.11c-.15,3.77.66,7.5.38,11.28a.89.89,0,0,0,.37.92v2c0-1.25.8-2.08,1.49-2.95a17.63,17.63,0,0,1,6.65-5.55s.49-.79.22.38a77.46,77.46,0,0,1-3.41,11.62,18.77,18.77,0,0,1-6.24,8Z"/>
    <path d="M626.12,282.9a2.53,2.53,0,0,0,.73-.38c3.59-3.7,4.77-8.34,5.2-13.29.17-1.94-.12-4,1.09-5.74l-.37.19a.84.84,0,0,0-1.12.17c-1.61,1.53-3.28,3-4.94,4.52a1.78,1.78,0,0,1-.22-.44,15.59,15.59,0,0,0-3.53-8.3c-.34-.41,0-.63,0-.94l-.19,1.29a38,38,0,0,1-3.82,8.64c-.94-1.18-1.74-2.11-2.45-3.1a5.18,5.18,0,0,0-3.34-2.4,17,17,0,0,1,.19,5.55A17.91,17.91,0,0,0,616.53,282a6.79,6.79,0,0,1,.53,1.13Z"/>
  </g>
  <g class="tubeWormFront">
    <path d="M649.78,282.72c-4,1.24-5.3,4.29-6,8.12-1.23,6.94-1.86,14-2.95,20.92-.58,3.7-1,7.73.78,11.44.46,1,.87,2,1.3,2.95a1.89,1.89,0,0,0,2,1.13c3.58,0,7.15-.06,10.72,0,2.5,0,3.41-1.92,4.39-3.56a25,25,0,0,0,2.89-8.83c.78-4.48.26-8.87,0-13.32a29.15,29.15,0,0,1,1-8.69c.84-3.46-.14-5.25-3.29-7A30.23,30.23,0,0,0,650,282.53Z"/>
    <path d="M611.33,303.42c.06-2,0-4.07.2-6.1.34-4.67.12-9.37,1.94-13.9,1.13-2.81,3.29-3.27,5.63-3.42a36.32,36.32,0,0,1,9.77.59c2.19.45,3.51,2.4,4.27,4.53,1,2.81,1.16,5.75,1.54,8.68.47,3.63,1,7.25,1.29,10.91.47,5.88.19,11.64-1.94,17.18a13.65,13.65,0,0,1-3.26,4.48,3.35,3.35,0,0,1-2.62.9c-3.57,0-7.17-.26-10.71.07-3.19.29-4.92-1.95-6.1-4.88a4.79,4.79,0,0,1-.19-.93Z"/>
  </g>
  <path class="urchinFront" d="M731.94,306.8a57.55,57.55,0,0,0,4.12-10.05,12.57,12.57,0,0,0,.56-7,3,3,0,0,0-3.29-2.65c-1.9-.05-2.8,1.49-4.25,2.09a1.23,1.23,0,0,1-.34-1.29,50.84,50.84,0,0,0,1.28-6.1,47.49,47.49,0,0,0,.7-11.84,16.69,16.69,0,0,0-1.07-5,3.28,3.28,0,0,0-4.63-1.45c-2.31,1.62-3.79,4-5.37,6.27l-.19-.74c.25-2.9.64-5.79.7-8.69a16.19,16.19,0,0,0-1.48-7.74c-1.52-3-4-2.6-5.64-.72-2.65,3-4.85,8.46-4.85,8.46-1.71-2-1.19-4.55-1.62-6.85a16.41,16.41,0,0,0-1.76-4.95c-.89-1.64-3.95-1.62-5.29,0a21.77,21.77,0,0,0-4.11,7.55c-1.6,5.11-1.65,10.5-3.07,15.64-.16.6-.23-.1-.23-.1-.87-1.36-1.83-2.66-2.56-4.08s-1.76-2.17-3.16-1.78a4,4,0,0,0-3,3.26A29.29,29.29,0,0,0,684,282a2.76,2.76,0,0,1,0,1.86,5.32,5.32,0,0,1-1.32-.7c-2.43-1.82-4.77-.72-5.34,2.36-.64,3.5-.14,6.9.5,10.36.71,3.86,2.47,10.53,2.47,10.53-1,.12-1-.82-1.51-1.27-1-.88-2-2.2-3.46-1.63a4.11,4.11,0,0,0-2.65,3.63c-.52,4.59.84,8.63,3,12.6a44.23,44.23,0,0,0,4.85,6.63,2.57,2.57,0,0,0,2.22.93q21.81,0,43.62,0a3.81,3.81,0,0,0,2.57-1,41.59,41.59,0,0,0,7.81-8.09,17.74,17.74,0,0,0,2.49-6.32,3.92,3.92,0,0,0-5.3-4.27c-.69.27-1.32,1-2.21.59C731.66,308.23,731.26,308,731.94,306.8Z"/>
  <path class="coralBrain" d="M796.54,286.23a18.37,18.37,0,0,1-4.61-2.6,9.53,9.53,0,0,0-10.77-.82c-2.48,1.25-5.17,2.26-8.31,1.11s-6,.11-8.48,2.11a4.28,4.28,0,0,0-1.06,1.88,9.84,9.84,0,0,1-6.69,5.54c-2.73.83-4.44,3-6.31,5-2.49,2.64-3.14,5.82-3.12,9.26a15.88,15.88,0,0,1-2.38,9.08c-1.87,2.89-1.44,6.85.92,8.82a8.9,8.9,0,0,0,5.9,1.69h79.66a11.32,11.32,0,0,0,6.15-2c1.17-.73,1.17-1.77,1.59-2.68,1.55-3.36.8-6.64-.75-9.76a4.23,4.23,0,0,0-2.17-1.71c-1.29-.57-1.75-1.41-1.16-3a12.27,12.27,0,0,0-2.17-12.93c-1.36-1.66-3.43-2-5.2-2.91a20,20,0,0,1-6-4.06c-2.59-2.74-5.7-4.7-9.75-4.5a9.48,9.48,0,0,0-3,.75c-2.68,1-5.55,1.33-8.32,2a13.53,13.53,0,0,1-3.69-.13Z"/>
  <path class="coralBrainCavity" d="M805.05,313.59c1.51.16,2.52-.71,3.51-1.66,2.12-2,3.72-2.08,5.71,0,2.56,2.67,5.27,2.91,7.48-.53a16.42,16.42,0,0,0,2.34-4.11c.81-2.76-.28-5.64-3-6.37-2.17-.59-3.4-2-4.75-3.45a8.07,8.07,0,0,0-6.5-2.77c-3.26.12-6.52-.25-9.8-.21a13.79,13.79,0,0,0-8.49,3.2,32.5,32.5,0,0,0-6.65,7.2,12.53,12.53,0,0,1-8.34,5.68,16,16,0,0,1-5.92-.08c-4.11-.86-4.74-4.94-1.66-7.47,1.94-1.6,4-2.32,6.28-1.06a4,4,0,0,0,3.5-.11,7.39,7.39,0,0,0,4.05-4.19c.8-1.77-.24-3.31-2.55-4-.92-.28-1.91-.75-3-.07a3,3,0,0,1-2.73,0c-2.79-1.19-5-.08-7,1.57a26.56,26.56,0,0,1-5.93,3.7c-2.74,1.22-4.21,3.79-5.92,6.07a11.16,11.16,0,0,0-1.89,4.43c-.49,2.3.44,3.94,2.07,5.36,1.91,1.68,4.31,2.33,6.66,2.92,3.83,1,7.63,2.11,11.64,2.29,2.77.12,5.23-.27,7.42-2.21,1.62-1.44,3.56-2.35,5.89-1.54,1,.35,1.91.62,2,1.87s.35,2.72-.6,3.65a15.41,15.41,0,0,1-3.82,2.67,3,3,0,0,1-1.68.33c-2.09-.21-2.83.16-3.91,2.09.33.65,1,.5,1.51.5h44a7.34,7.34,0,0,0,4.56-2.11c1.45-1.19,2.91-2.63,3.21-4.73a4.12,4.12,0,0,0-3-4.47c-2.44-.78-3.85-1-5.48,1.19a10.64,10.64,0,0,1-6.55,4.13c-2,.42-3.89-.45-5.72-1.23a7.21,7.21,0,0,1-.92-.55c-1.8-1.08-2.52-1.16-3.66.4-1.66,2.28-4.16,2.84-6.53,3.6a3.25,3.25,0,0,1-3.49-.86c-.59-.67-1-1.2-.24-2.25,1.45-2.05,1-3.13-1-4.79-.86-.69-2-1-2.64-2-1.19-1.8-.12-3.33.45-4.81a7.94,7.94,0,0,1,6.8-5.19,2.26,2.26,0,0,1,2.59,1.29c.47,1,0,1.64-.75,2.21-1.61,1.32-1,3.25.57,4.8a19.36,19.36,0,0,0,1.65,1.31Z"/>
  <g class="coralBrainFoldLine">
    <path d="M746.82,311.18c-.48,4.47,1.52,7.68,5.19,10a20.37,20.37,0,0,0,2.55,1.55,1.29,1.29,0,0,1,.58,2.17"/>
    <path d="M832.59,303.42c-1.29,3.07-1,4.37,1.48,6.47"/>
  </g>
  <path class="frondBack" d="M849,327.26h11.37a26.35,26.35,0,0,1-.47-6.84,24.58,24.58,0,0,1,6.4-17.06c2.24-2.53,5.07-4.45,6.93-7.32a24.23,24.23,0,0,0,2.07-3.69,2,2,0,0,0-.6-2.8,2.4,2.4,0,0,0-3.14,0c-1.25.88-2.17,2.2-3.89,2.41s-2.6-.26-2.57-2.05a18,18,0,0,1,3-9.05c1.86-3.08,4.17-5.89,5.88-9.07a14.91,14.91,0,0,0,.75-1.85c.4-1,.38-2.14-.58-2.72a2.55,2.55,0,0,0-2.94.31c-1.08.83-1.37,2.18-2.21,3.15-.54.63-1.1,1.24-1.52,1.71-1-.08-1.26-.47-1.26-1.15A17.14,17.14,0,0,1,867,267c1-3.87,2.54-7.53,3.82-11.29.55-1.59,1.26-3.38.09-5.17-1-1.57-1.85-1.81-3.36-.93a7.76,7.76,0,0,0-3.27,4.47,86.55,86.55,0,0,0-2.41,8.5c-.25,1.07-.62,1.85-1.7,2s-1.59-.73-2.27-1.41c-.49-.49-.15-1.08-.64-1.57s-1-1.37-1.89-1.22a2.27,2.27,0,0,0-1.93,1.6c-1,2.44-.54,4.73.09,7,.28,1,.72,2,1.09,3Z"/>
  <path class="frondFront" d="M849,271.81a51.89,51.89,0,0,0-4.24-14.42c-1.32-2.75-2.87-5.27-5.75-6.64-.94-.45-1.95-1.05-2.94-.18a2.77,2.77,0,0,0-.55,3.49,7.76,7.76,0,0,0,1.3,2.21,28.1,28.1,0,0,1,6.83,14.06,5.05,5.05,0,0,1-.5,3.89c-1.66-.18-2.38-1.42-3-2.61a4.14,4.14,0,0,0-1.71-2c-1-.52-2.16-1.06-3.12,0a3,3,0,0,0-.43,3.51c.75,1.8,2.16,3,3.37,4.42,2.81,3.21,5.37,6.56,6.68,10.71.32,1,1,2,1.43,3s1,2-.18,2.73a1.85,1.85,0,0,1-2.72-.91,7.28,7.28,0,0,0-2.65-2.53,2.69,2.69,0,0,0-3.29,0c-1.22,1-1,2.31-.36,3.48,1.28,2.2,2.75,4.29,4,6.49a41.86,41.86,0,0,1,4.67,14,45.37,45.37,0,0,1,.32,10.73,11.68,11.68,0,0,1-.38,1.78c1.34.51,2.74.15,4.09.25.62,0,.88-.31.93-.92.54-6.73,4.36-12.2,7-18.11a62,62,0,0,0,2.72-7c.22-.69.69-1.65-.34-2.2a2.34,2.34,0,0,0-2.56.39c-1.11.86-1.42,2.29-2,3.49s-1.38,2.16-2.9,1.63c-1.34-2.82.27-5.44.77-8.09.59-3.15,2.13-6.12,2.8-9.27,1-4.76,2.71-9.42,2.47-14.4a19.82,19.82,0,0,0-.33-2.42,2.25,2.25,0,0,0-2.45-2.16,2.94,2.94,0,0,0-2.61,2,10.37,10.37,0,0,0-.5,3.34,2.4,2.4,0,0,1-1.52,2.34c-.78.23-2,.38-2-1.05,0-1-.9-1.77-.4-2.77Z"/>
  <path class="coralTube" d="M929.26,287.89c-.9-2.63-1.14-5.49.44-7.71,4.29-6,6.88-12.74,9.17-19.64l-10.16-3.33a13.6,13.6,0,0,1-3.34,8.13,2.87,2.87,0,0,1-2.21,1.27c-1.19,0-1.73-1.15-1.48-2.93.69-4.77,2.47-9.28,2.53-14.23,0-4.7.56-9.38-.31-14L912.81,238a7.11,7.11,0,0,1,.34,3.7c-.34,2.9-.8,5.8-1.29,8.69-.15.9-.4,2-1.46,2.16a2.59,2.59,0,0,1-2.39-1.42c-1.39-2.22-2.57-4.51-2.59-7.21L896.54,247c-1.18,2.44-.32,4.91.28,7.19.75,2.83,1.15,5.75,2.1,8.53.68,2,1.08,4.08,1.7,6.09a4.59,4.59,0,0,1-1,5.08c-2.81-1.12-5.24-2.45-6.21-5.45a.94.94,0,0,0-1.11-.74l-7.58,3.89c-.35,2.64,1.1,4.83,2.13,7a28.32,28.32,0,0,0,4.74,7.23,36.94,36.94,0,0,0,5.93,5.33c3.65,2.46,5.08,5.88,5.32,10Z"/>
  <g class="coralTubeCavity">
    <path d="M896.54,246.67c1.16,1.52,2.64.59,3.87.31,2-.43,4.08-.92,4.93-3.38-2.23-1.23-4.26-.24-6.19.54-1.15.46-2.71.77-2.79,2.53Z"/>
    <path d="M930.18,256.1c-1.45,1.17-1.49,1.33-.17,2.21a16.12,16.12,0,0,0,7,2.34c.34.05,1.23.23,1.45-.49a1.59,1.59,0,0,0-.54-1.65c-2.13-2-4.81-2.36-7.57-2.41Z"/>
    <path d="M919.65,234.84c-1.72.45-3.57.21-5.21,1.24a2.79,2.79,0,0,0-1.31,1.69c3.7,2.11,9.51,1.12,11-1.88a6.77,6.77,0,0,0-4.29-1Z"/>
    <path d="M890.07,267.37c-2,.81-4.16,1.26-5.38,3.32a1.75,1.75,0,0,0-.16.75c2.82,1.49,7.68-.83,8.13-3.86a7,7,0,0,0-2.4-.21Z"/>
  </g>
  <g class="rockMediumDark">
    <path d="M555.51,327.45h48.43a4.39,4.39,0,0,0,2.78-.73c1.38-1,3.32-.9,4.6-2.07,3.07-2.82,4.51-6.52,5.15-10.53a17.25,17.25,0,0,0,.12-5.92,11.34,11.34,0,0,0-2.85-5.72,63.41,63.41,0,0,0-12.24-10.3,29.22,29.22,0,0,0-13.27-4.7c-7.44-.82-14.91-.75-22.37-.85a75.11,75.11,0,0,0-12.19.59c-7.92,1.2-14.21,4.85-16.84,13C536.66,300.79,555.51,327.45,555.51,327.45Z"/>
    <path d="M208,327.45c15.47,0,30.93-.08,46.4.05A7.22,7.22,0,0,0,261,317.05c-2.1-4.16-4.81-7.34-9.15-9a16.85,16.85,0,0,0-9.25-1,59.77,59.77,0,0,1-16.25.55,2.77,2.77,0,0,0-1.67.23Z"/>
    <path d="M913.36,296c-2.41-1.09-5-1-7.58-1.27a43.81,43.81,0,0,0-15.68,1.35c-3.07.83-5.29,3.29-7.43,5.64-1.2,1.32-2.54,2.53-3.67,3.9-2,2.45-1.47,5.42-1,8.11a21.13,21.13,0,0,0,4,8.71c1.62,2.29,4.18,3.34,6.32,4.95.31.23,1,0,1.45,0H927Z"/>
  </g>
  <g class="rockMedium">
    <path d="M993.77,276.43c-3.14.36-6.32.23-9.43.92a60.47,60.47,0,0,0-7.76,1.87c-3.16,1.15-6.43.69-9.61.48-5.87-.4-11.72-1.05-17.56-1.83a51.43,51.43,0,0,0-13.12.07,28.22,28.22,0,0,0-8.49,2.78c-3.52,1.66-7.1,3.32-9.81,6.25-3,3.31-6.29,6.47-9,10-2.16,2.87-4,6.33-3.15,10.09,1.53,7.11,4.76,13.32,10.62,18a9.91,9.91,0,0,0,6.51,2.39c30.37-.05,60.75-.1,91.12,0a14.94,14.94,0,0,0,10.45-4c3.07-2.8,6.36-5.48,8.77-9a31.81,31.81,0,0,0,1.89-3.49c1.33-2.53.56-5-.08-7.4a45.68,45.68,0,0,0-4.57-10.93,19.2,19.2,0,0,0-7-7.4,77.31,77.31,0,0,0-12.78-6.05c-5.41-1.94-11-3.29-16.8-2.81Z"/>
    <path d="M185.82,278.1c-2.22.12-4.43.29-6.65.35-3.91.11-7.77.67-11.65,1.09-3.56.38-7.12,1.18-10.71.74-2.54-.3-5-1.2-7.59-1.3a36.84,36.84,0,0,0-4.07,0c-2.39.16-4.79-.13-7.21,0a81.14,81.14,0,0,0-10.34.85c-8.06,1.36-15.72,3.82-22,9.4a28.16,28.16,0,0,0-9.19,15.71c-1,5.1.73,9.62,4.18,13.49a34.21,34.21,0,0,1,3.88,5.17,8,8,0,0,0,7.22,3.81c33.58.1,67.16.06,100.74.08a9.82,9.82,0,0,0,8.09-4.11,30.08,30.08,0,0,1,3.2-3.46,20.2,20.2,0,0,0,5.68-9.27c1.24-4.53,1.31-9.11-.73-13.47a25,25,0,0,0-5-6.48,45.7,45.7,0,0,0-16.84-11.23,24.1,24.1,0,0,0-8.29-1.34c-4.19,0-8.38,0-12.57,0Z"/>
    <path d="M538.32,299c-2.83.58-5.73.8-8.51,1.65a15.83,15.83,0,0,0-7.37,5.21,17,17,0,0,0-3,4.59c-1.49,3.59,0,6.69,1.38,9.79.51,1.15,1.4,2.18,2,3.35,1.36,2.76,3.78,3.83,6.66,3.86,8.74.06,17.5.12,26.24-.05a6.66,6.66,0,0,0,5.82-3.2c2-3,3.63-6.05,4.2-9.67a7.17,7.17,0,0,0-1-5.13,22.48,22.48,0,0,0-16.19-9.89c-3.34-.46-6.68-.06-10-.51Z"/>
  </g>
  <path class="buddhaCreaseLine" d="M492.73,149.92a14.66,14.66,0,0,0-7.76-5.36,36.58,36.58,0,0,0-15.71-.88c-2.94.46-5.93,1-8.32,3.1"/>
</svg>
