<svg class="presence" xmlns="http://www.w3.org/2000/svg" viewBox="0 0 3171 886.9">
  <path class="rockDark" d="M1,885.9c0-309,163.67-555.51,317-612,209-77,336-179,522-139,220.43,47.4,297.74,188.93,394,192,62.61,2,176-130,249-137,223.62-21.45,268.93,103.25,363,95,342-30,245-235,625-283,96.5-12.19,396,102,478,215,133.88,184.49,221,669,221,669Z"/>
  <g class="rockCreaseLine">
    <path d="M1105.3,544.9c-5.2-1.73-8.85-5.93-13.33-8.78a203.36,203.36,0,0,0-28.21-14.63c-10.16-4.42-20.38-9.07-31-11.84-12.41-3.22-25.22-3.72-38,.17-18.49,5.64-36.13,13.62-54.52,19.43-10,3.16-20.51,4.7-30.86,6.66a179.13,179.13,0,0,1-25.59,2.53,118.59,118.59,0,0,1-27.48-2.17c-11.51-2.18-22.73-5.75-34.07-8.68-11.69-3-23.38-6.48-35.47-7.55a31.62,31.62,0,0,0-12.93,1.51c-9.2,3.24-19,4.74-27.62,9.73-8.43,4.86-17.28,9-24.89,15.18-1.32,1.07-3.26,1.83-3.54,3.94"/>
    <path d="M2665.8,494.9c-14.43-9.92-30.45-15.72-47.45-19.71-10.77-2.53-21.18-3.22-31.51.34a136.07,136.07,0,0,0-19.51,8.93c-12.59,6.69-25,13.89-38.6,18.24a77.59,77.59,0,0,1-32.93,3.13,388,388,0,0,1-42.5-7.47c-11.46-2.7-23-5.17-34.47-7.61-15.85-3.37-31.5-4.65-47.56-1.48a282.88,282.88,0,0,0-33,8.51c-1.68.55-2.8,1.07-3.46,2.62"/>
    <path d="M1120.3,709.9c-6.44-1.87-12.4-5-19-6.64a70.13,70.13,0,0,0-34.54-.38c-10.71,2.61-19.58,9.19-29.51,13.48-7.8,3.36-15.31,7.59-24,8.55a74.78,74.78,0,0,1-20.49-.07c-15.79-2.62-30.49-9.89-46.52-11.35-9.12-.83-18.34-2.87-27.47-1-7.94,1.64-15.69,4.22-23.52,6.39"/>
    <path d="M2450.3,638.9c-5-.35-9.46-2.48-13.94-4.18-6.08-2.32-12.27-2.83-18.56-3.33-15.57-1.25-29.51,4.64-43.48,10.07-13,5-25.53,11-38.57,15.81s-26.44,4.2-40,1.74c-8.09-1.46-15.43-4.76-23-7.63-6.79-2.6-14-3.6-21-4.77-8.53-1.41-17.19-3-26-2.2-12.24,1.13-24.39,2-36.58,4.63-20.21,4.36-38.89,12.46-57.93,19.85a13.52,13.52,0,0,0-5.49,4"/>
    <path d="M1897.3,605.4c-8.08-4-16.82-5.95-25.51-8-14.21-3.31-28.16-1.45-42,2.45-9.68,2.72-19.54,5.2-29.51,5.81-14.65.91-29.3,1.6-43.58-4.57-11-4.72-22.74-7.22-34.92-3.28-8.86,2.88-17.38,6.56-26,10.14-1.16.49-2.21,1.29-3.53,1.42"/>
    <path d="M1017.3,382.9c-11.93-2.25-22.71.06-33.65,5.72s-22.7,7.13-35,1.51a42.88,42.88,0,0,0-24.9-3.27c-1.07.18-1.83.37-2,1.54"/>
    <path d="M2438.8,352.9c-6.67-2.84-13.47-3-20.51-1.55-8.57,1.77-16.11,6.23-24.44,8.73a49.46,49.46,0,0,1-30.09-.07,65.93,65.93,0,0,0-15.46-3.16c-3.9-.26-7.43.89-11,2"/>
  </g>
  <g class="buddha">
    <g class="copperDarkest">
      <path d="M355.8,765.4c-.77-1.06-.85-2.39-1.37-3.56-3.25-7.39-3.09-14.79-.28-22.5,1.79-4.91,5.51-8.4,7.65-12.94l141.5-1.5c4.08.82,6.55,3.38,8.56,7,5.93,10.6,4,21-.06,31.54Z"/>
      <path d="M458.3,538.9c3.64-7.26,2.56-15.75.36-23-1.56-5.11-4.54-10-9.92-11.88-2.49-.89-1.83-2.23-1.93-3.66-.37-5.26-2.15-8.23-7-9.39-4.55-1.08-9.46-1.91-13.45,1.91-.68.65-1.56,1.74-1.44,2.46.87,5-2.62,6-6,8.2-10.86,7.28-13.71,18.42-12.48,30.8.16,1.56-.56,3.77,1.67,5.16,6.11-5.32,9.81-12.06,11.07-21.16,9.39,9.32,18.87,6.07,28.41,1.39,2,6.89,4,14.74,10.21,19.13Z"/>
    </g>
    <path class="copperDarker" d="M379.8,643.4c-1,12.83-2,25.66-3,38.5a5.57,5.57,0,0,1-2.11,3.92c-6.55,5.08-10.79,12.2-16.31,18.19-8,8.63-6.24,22.48,2.24,29.06a10.77,10.77,0,0,0,6.15,2c5.47.23,11,1.8,16.49.31l50.5-2c2.22,3.61,6,1.87,9,2.36,12.61,2.06,25.33,1.22,38,.07,9.75-.89,19.39-2.63,28.49-6.48,2.5-1.05,3.71-3.39,4.54-6,3.06-9.43-.44-19.78-7.08-24.93-8.59-6.64-17.59-12.77-26.47-19-1.35-1-2.69-1.75-3.12-3.61,4.9-4.52,9.78-8.89,13.82-14.29,3.83-5.12,4.46-10.73,3.61-16.1-1.72-10.89-3.07-21.87-6.12-32.58-2.11-7.4-4.83-13.83-11.65-18-4.42-2.69-8.63-5.72-13-8.45a9.21,9.21,0,0,0-10.48,0c-1.86,1.19-3.65,2.49-6,2.49"/>
    <path class="copperDark" d="M489.82,704.86a62,62,0,0,0-9.49-3.57c-4.54-1.43-8.82-3.54-11.59-7.86a35.15,35.15,0,0,0-4.46-5,3,3,0,0,0-2.47-1l1.49-.49q3-3.25,6-6.49c-3.45-5.89-14.34-8.55-19.45-4.43-2.17,1.75-3.78,2.73-6.61,1.52-1.95-.84-3.94.84-5.4,2-6,4.7-12.81,5.62-20.05,4.41s-8.75-.74-11.11,3.72c2.31,3,4.53,6.12,8.6,7.32,6.22,1.84,8.65,7.49,10.74,12.58,1.33,3.24,3.33,6.59,3,10.7-4.95,5.07-12.07,5.88-18.76,7.66a5.07,5.07,0,0,1-4-1l-1-.5c-.67-2.5-.87-5.26-2.08-7.46-5.73-10.34-5.66-21.88-6.75-33.06-.94-9.59-.43-19.31.16-29a7.52,7.52,0,0,1,3.7-6.44,128.15,128.15,0,0,0,22.75-19.26c11.24-11.82,22.37-23.92,31.18-37.82,1-1.63,2.17-3.35,2.05-5.36-1.88-1.4-3.78-2.66-5.49-4.15a22.25,22.25,0,0,1-3-3.47,7.1,7.1,0,0,1,1-10c2.45-2.16,4.79-4.61,5.83-7.57a12.11,12.11,0,0,1,4.12-5.49c4.19-3.52,5-13.55-.95-16.45-6.26-4.39-8.18-12.24-10.21-19.13-9.54,4.68-19,7.93-28.41-1.39-1.26,9.1-5,15.84-11.07,21.16-2.77,2.52-4.64,10.15,3.63,15.94a5.61,5.61,0,0,1,1.95,3.92c.08,2.46,1.43,4.25,2.67,6,4.08,5.56,3.94,10.79-.54,16.06-5.23,6.14-12.24,9.35-19.55,11.93-6.84,2.41-11.16,7.47-13.86,13.61-5.7,13-6.39,27-7.93,40.91-1.62,14.71,2.17,28.69,3,43,.26,4.56,2.42,9,3.86,13.5a23.52,23.52,0,0,1,.53,14c-2.47,8.81.92,16.77,4.55,24.44,2.05,4.32,6.5,4.81,10.9,4.55,4.8-.28,5.42-4.3,5.84-7.52.6-4.56,2.47-5.45,6.67-4.55,9.19,1.95,18.36.44,27.49-.93,2.34-.35,3.2-1.86,4.09-4a45.44,45.44,0,0,1,7.87-13.08,11.85,11.85,0,0,1,8-4.06c9.2-1,18.39-1.57,27.49.21,3.68.72,7.08,3,11.54,1.26A10.81,10.81,0,0,0,489.82,704.86Z"/>
    <g class="buddhaOverlapLine">
      <path d="M467.8,622.4c-1.27,5,.8,9.75,1.77,14.44.51,2.41.52,5.13,1.92,7.72,1.25,2.31.63,5.94-1.58,8.92-3.84,5.17-8.5,9.54-12.61,14.42-1.23,1.45-3.09,2.41-3.5,4.5"/>
      <path d="M419.3,696.9c-7.89-.72-15.51.7-23,3"/>
      <path d="M477.3,674.9c-3.08,1.45-4.21,5.5-8,6"/>
      <path d="M460.3,687.9c-2.84,1.83-2.64,2.72-5.51,4.49-11.58,7.13-23.9,6.83-36.49,3.51"/>
      <path d="M417.8,567.4c6,5.5,9.29,6.42,16.51,5.6,4.44-.51,9,.12,12.49-3.6"/>
      <path d="M400.8,620.4q-2,15-4,30"/>
      <path d="M453.3,713.9c-8.31.44-16.41-1.35-23.5,3.5"/>
      <path d="M410.8,544.4c-.78,4.87.39,6.32,1,11"/>
      <path d="M457.8,544.4c-.67,4.33-.34,7.66-1,12"/>
      <path d="M404.8,722.4c1.34,4.66-1.48,9.33-1,14"/>
    </g>
  </g>
  <g class="seaweed">
    <path d="M1494.3,781.9c-8-4.72-10.86-12.34-12-21-1.12-8.36,2.31-14.8,8-20.54,3.56-3.59,7.51-7.42,6.9-13-.53-4.79.14-9.34.58-14,.67-7.2.3-13.52-6.25-19.22-11.17-9.73-7.93-26,.51-33.54,4.78-4.27,5.62-8.79,5.8-14.23.08-2.68.3-5.36.38-8,.25-8,1.34-16.38-5.88-22.5-.71-.61-1.63-1.21-2-2-1.72-4.32-3.47-8.19-2.41-13.55,1.27-6.45,4.42-10.83,8.84-15,1.92-1.77,3.92-3.34,4.09-6.48a215,215,0,0,1,2.08-22c.56-3.51.15-5.92-2.64-8-7.2-5.42-7.63-16.78-3.08-23.53,2.29-3.41,5.32-6,8-9,1.06-1.15,2.35-2,2.62-4,.68-4.88,2.73-9.7,2.63-14.51-.08-3.92,2.52-8.6-1.28-12-6.13-5.42-5.88-16.8.69-20.8,6.28-3.83,10.51-8.9,14.4-14.71,1.37-2,2.5-4.42,5-5.53a53.34,53.34,0,0,1,0,9.5,12.29,12.29,0,0,0,3.37,10.1c5.9,6.41,4.34,24.3-8.38,25.95-2.91.37-4.12,2.19-4.13,5.45,0,4.5-.92,9-1.35,13.5-.2,2.1.47,3.53,2.37,5.12,5.8,4.82,10.36,10.51,9.64,18.88-.75,8.67-5.46,14.82-12.64,18.81-2.94,1.64-4.11,3-4,6.19a39.92,39.92,0,0,1-.38,8.51c-1.22,7.54-.52,13.78,6.21,19.74,11,9.73,8.15,26.32-4.34,33.63-4.47,2.62-6.66,5.28-5.57,10.64.59,2.85.1,6-.43,9-1.13,6.25,1.12,10.66,6,14.61,4.16,3.4,8.1,7,9.75,12.85,3.2,11.37.17,20.67-8.82,27.34-5.46,4-7.43,8.31-6.93,14.71.42,5.3.1,10.66.08,16,0,2.51,1.41,4.25,3,6,2.76,3.09,5.38,6.29,8,9.48,5.29,6.38,4.58,13.49,3.12,21-1.62,8.34-7.18,13.13-13.61,17.48Z"/>
    <path d="M1541.3,777.9c-2.17.16-2.61-2-2.88-3-3.43-13,.55-24.39,11.9-30.42,3.07-1.63,6.75-3.08,7.27-6.57a68.37,68.37,0,0,1,2.33-10.43c1.65-5.24.23-9-3.58-12.59-2.83-2.63-5.82-5.43-6.5-9.46-1.9-11.45,1.89-21.25,11.14-27.72,4.67-3.27,6.14-7.2,7.21-11.8.71-3,.34-6.32.63-9.47.43-4.67-.42-8.39-5-11.11-4.85-2.9-6.66-8.29-8-13.42-1.88-7.43,1.73-13.24,7.49-17.34a7.35,7.35,0,0,0,3.31-8.12c-.85-4.48-1.42-9-2-13.51-.59-5.06-2.24-9.23-7.91-11.14-4.64-1.56-8.06-5.93-8.25-10.38-.26-6.4.69-13.14,6.18-18a14.33,14.33,0,0,0,5.07-12c-.34-6.82-.52-13.66-.47-20.49,0-2.67-.59-4.76-2.57-6.51a14.76,14.76,0,0,1-4.54-7.48c-1.51-5.71,1.34-10.05,4.6-14a131.73,131.73,0,0,1,12.94-13.05c.2,4.48,2,7.78,5.33,11.16,6.69,6.83,4.11,24-4.85,26.29-2.09.54-2.53,1.75-2.48,3.55.16,7.33.2,14.67.56,22,.14,2.89,3.08,4.15,5,5.39,13.35,8.57,10.51,23.31,2.81,32.52-3,3.53-1.63,7.08-1.78,10.6s.54,7.33.9,11c.38,3.87,2,7.51,5.56,8.83,4.54,1.7,7.74,4.21,9.43,8.67,1.87,4.93,1.42,10.08.36,15-.93,4.28-2.9,8.39-7.35,10.55-3.71,1.81-5.29,4.57-5.17,9,.1,4.12-1.66,8.17-.9,12.51.86,5,3.52,8.82,6.59,12.47,10.26,12.19,5.61,26.53-4.16,34.86a47.14,47.14,0,0,1-6.33,4.72,7,7,0,0,0-3,3.43c-2.26,5.8-2.57,12-4,18-.3,1.31.84,2.14,1.52,3,9,10.85,6.68,29-5,36.55-.46.3-.68,1-1,1.48Z"/>
  </g>
  <g class="kelpBack">
    <path d="M2656.8,755.9a48.5,48.5,0,0,1-13.52-36.5,69.49,69.49,0,0,0,0-7.5c-1.14-18.26-8.58-34.26-18-49.47a41.7,41.7,0,0,1-6.32-23c.06-4,.17-8,.39-12a91.43,91.43,0,0,1,1-11c1.76-9.8,4.48-19.41,6.59-29.09,1.74-8,3.19-16.39,2.48-24.93a133.86,133.86,0,0,0-6.66-33,124,124,0,0,1-7-35.51c-.57-12.74,3.53-24.94,4.45-37.51.52-7.12,4.2-13.69,3.54-21l1,7.5c2.4,8.19,4.49,16.46,7.32,24.56,2.38,6.82,6.13,13,8.23,19.92a112,112,0,0,1,4.12,19.5c1.18,10,1.43,20,2.53,30a39.88,39.88,0,0,1-1,13.94c-2.25,9-.95,18.19-3.05,27.11a96.41,96.41,0,0,0-2.22,14.47c-.68,8.87.59,17.38,2.44,26,2.33,11,7.49,20.53,11.9,30.58,2.8,6.38,6.34,12.58,7.62,19.82.66,3.73,3.45,7.42,4.15,11.57l12.5,21c-.33-2.2,1-3.75,2-5.52,6.16-11.61,9.55-23.78,6.51-37-4.42-19.22-.89-37.49,5.95-55.53,3.38-8.92,7.2-17.82,8-27.48.36-4.3.15-8.7.32-13a79.45,79.45,0,0,0-.85-16.5c-1.37-8.14-2.74-16.25-2.87-24.51a142.13,142.13,0,0,1,.93-20.51c1.17-9.17,3.08-18,6.88-26.57,3.36-7.6,9.74-13.1,12.83-20.86,1.72-4.3,1.39-9.07,3.84-13.06l1,2c2.8,4.24,3.27,9.26,3.87,14,1.48,11.79,2,23.7,0,35.47-1.29,7.64-4.28,14.93-7.46,22-6.09,13.54-7.34,27.6-4.86,42,1.44,8.4,4.24,16.6,5.27,25,1.39,11.42,3.08,22.76,3,34.48-.07,18.65-6.09,35.28-12.85,52a150.6,150.6,0,0,0-8.76,31.45c-1.82,10.73-.5,21.38-1.23,32-.51,7.34-2.66,14.34-4.22,21.46-.16.77-.33,3-2.32,3Z"/>
    <path d="M572.8,770.4c-2.67-5.5-5.19-11.08-8-16.49-7.89-15-10-31.07-7.75-47.48a199.13,199.13,0,0,0,1.75-29.53c-.11-11.29-3.41-21.72-9-31.51-3.2-5.65-6.54-11.18-8.59-17.47-4.31-13.14-2.88-26.34-.86-39.51,2.16-14.15,8.69-27,12.91-40.52,1.65-5.29,3.2-10.62,4.48-16,1.81-7.54,1.08-15.37,2.3-23l.75,1.5c2.33,1.58,3.54,4,4.43,6.52,1.38,3.82,2.79,7.65,4.22,11.42,5,13.28,7.15,27.08,7.72,41.06.73,18-2.94,35.42-8.39,52.49-2.58,8.07-4.23,16.33-1.36,24.46a99.83,99.83,0,0,0,11.92,23c1.93,2.83,3.82,5.6,4.46,9Z"/>
    <path d="M619.8,737.4a15.63,15.63,0,0,1,1-2.49c7.47-12,12.56-25,13.83-39,.79-8.76,1.84-17.94-.54-26.43-5.42-19.41-.81-37.11,7.2-54.55,5.16-11.26,12.3-21.64,15.05-34,.25-1.1,1.28-2,1.95-3l.5-3c1.83,5.66,3.09,11.6,5.6,17,8.6,18.27,7.87,37.26,5.44,56.55-1.93,15.3-9.72,28.45-15.1,42.47-3.27,8.51-6.83,17-7.71,26-.72,7.39.29,15,1.16,22.49,1.6,13.93,5.08,27.58,2.34,42C646.62,802,637,819,622.31,833.41c-4,3.92-7.71,8.19-13,10.49Z"/>
  </g>
  <g class="kelpFront">
    <path d="M2678.8,759.4a10.59,10.59,0,0,1,.52-2.49c5.62-12.07,6.39-25.12,6.81-38s-2.36-25.86-5.46-38.46c-2.66-10.87-1.44-21.51.78-32,2.52-12,6.39-23.65,9.23-35.56a45.78,45.78,0,0,0,1-13.47c-.89-13.41-5.6-26-10-38.46-4.87-13.69-6.41-27.07-1.46-41.08,3.61-10.17,7.76-20.2,9.63-31,3-16.94-.4-33.24-4.53-49.5-3.3-13-6.47-25.94-5.52-39.5.1-1.56.34-3.22-1-4.5,0,0-1.15-.17-2.72,3.91-5.13,13.37-9.11,27.09-13.74,40.6-2.32,6.78-2.9,14-4.35,20.92-2.77,13.34.75,25.59,3.83,38.06a93.88,93.88,0,0,1,.3,45.46c-4.58,18.47-7.68,37.1-8.13,56-.17,7.29,1.92,14.6,4.79,21.5,2.65,6.38,6.26,12.46,7,19.5,1.36,13,.69,25.47-5.32,37.57a63.35,63.35,0,0,0-6.52,27.92,133,133,0,0,1-1,15c-1,7.83,1.72,15.41,3.48,22.94,1.1,4.68,3.53,9,5.37,13.54Z"/>
    <path d="M603.8,461.9l1,1.5c2.79,3.88,3,8.71,4.29,13.06,2.5,8.73,6,17.1,8.34,25.9,2.94,11.12,6.13,22.12,8,33.51a118,118,0,0,1,1.91,19c0,12.25-2.88,23.73-7.45,35-4.06,10-9.46,19.54-12.59,30-5.16,17.15-6.5,34.41.1,51.45,2.51,6.5,5,13.08,7.12,19.63,5.62,17.49,10.86,35.34,10.6,53.91-.26,18.81-4.21,37-14.92,53-.81,1.2-.65,2.5-1.41,3.56l-7-9c1.16-3,2.7-5.92,3.43-9,3.63-15.25.26-29.39-6.89-43-5.79-11-13.36-21-16.7-33.44-3.51-13-5.32-25.94-1.76-39,4.61-17,10.63-33.64,13.23-51,1.9-12.75.79-25.69-1.28-38.48-1.5-9.3-3.34-18.62-3.88-28-.71-12.58,2.75-24.8,5.43-37,2.65-12,6.11-23.85,7.82-36,.64-4.63-.2-9.46,1.6-14C602.8,463.4,603.54,457.06,603.8,461.9Z"/>
  </g>
  <path class="tubeWormBack" d="M1687.3,884.9h62l6.5-110.5c1.13-8.8,2.67-17.46,2.23-26.51-.55-11.39-5.89-14.65-14.77-16.28-8.65-1.58-17.6-2.29-26.46-.72-5.07.9-10.17,1.7-15,3.53-6.87,2.6-8.64,8.68-9.41,15-.64,5.27-.43,10.65-.59,16Z"/>
  <g class="tubeWormPlume">
    <path d="M1704.8,738.4c-2.2-2.52-3.21-5.93-5.16-8.38-8-10-8.19-21-5.34-32.62,1.78-7.24,3.82-14.44,2-22l1.5,1c6.75,3.56,10.63,10.47,17,14.55.61.4.7,1.61,1,2.45l-2-4c1.33-1.09.93-2.6,1-4a63.15,63.15,0,0,1,7.5-26.5l1-1.5c-.88,5.57,2.5,10,4.7,14.39,4.13,8.24,5.18,16.71,4.8,25.61l.5-3.5c2-.62,2.21-2.45,3-4,3.23-5.83,5-12.56,10.45-17l1-1c-1.15,9,.18,17.7,1.89,26.52,2.22,11.52,1.93,23-4.38,33.48-.76,1.27-1.16,2.85-3,3Z"/>
    <path d="M1760.8,772.4c-.45-4.87-1.9-9.52-2.24-14.49-.64-9.22,2.44-17,6.12-25.07,3.29-7.19,9-13,11.52-20.48a26.89,26.89,0,0,1,7.1-10.46,15.59,15.59,0,0,1,.47,3c-.42,10.19,1.76,20.3,1,30.5a2.39,2.39,0,0,0,1,2.5v5.5c-.13-3.4,2.15-5.64,4-8,5-6.2,10.49-11.8,18-15,0,0,1.32-2.15.59,1-2.47,10.66-5.1,21.31-9.22,31.43a50.81,50.81,0,0,1-16.87,21.55Z"/>
    <path d="M1693.3,764.9a7.22,7.22,0,0,0,2-1c9.73-10,12.92-22.55,14.09-36,.45-5.23-.35-10.78,2.94-15.5l-1,.5a2.3,2.3,0,0,0-3,.45c-4.35,4.16-8.87,8.14-13.37,12.23a4.93,4.93,0,0,1-.57-1.19,42.34,42.34,0,0,0-9.56-22.46c-.91-1.1,0-1.7,0-2.53l-.5,3.5A103.2,103.2,0,0,1,1674,726.25c-2.54-3.18-4.71-5.7-6.65-8.37-2.31-3.19-5-5.81-9-6.48a45.26,45.26,0,0,1,.5,15c-2.23,13.19,1.32,25,8.56,36a19.1,19.1,0,0,1,1.44,3Z"/>
  </g>
  <g class="tubeWormFront">
    <path d="M1757.3,764.4c-10.8,3.35-14.33,11.62-16.16,22-3.32,18.77-5,37.76-8,56.59-1.57,10-2.63,20.91,2.1,30.94,1.24,2.63,2.34,5.33,3.51,8,1,2.42,2.92,3.08,5.5,3.05,9.66-.13,19.33-.17,29,0,6.75.1,9.22-5.2,11.87-9.62,4.37-7.28,6.34-15.43,7.82-23.89,2.11-12.13.71-24,0-36-.5-7.88.91-15.76,2.8-23.51,2.29-9.36-.38-14.2-8.91-19-9.07-5.14-18.89-7.47-29-8.94Z"/>
    <path d="M1653.3,820.4c.16-5.5.13-11,.54-16.5.93-12.62.32-25.34,5.24-37.59,3.05-7.61,8.9-8.85,15.23-9.27a98,98,0,0,1,26.44,1.6c5.91,1.23,9.49,6.49,11.53,12.26,2.68,7.59,3.14,15.56,4.17,23.48,1.27,9.82,2.7,19.6,3.49,29.51,1.27,15.91.52,31.48-5.25,46.47-1.79,4.66-5.21,8.5-8.82,12.11-2.13,2.12-4.43,2.44-7.07,2.43-9.67,0-19.4-.68-29,.2-8.62.79-13.31-5.27-16.49-13.21a13,13,0,0,1-.52-2.49Z"/>
  </g>
  <path class="urchinFront" d="M1979.54,829.53c4.78-8.69,8.13-17.86,11.15-27.17,2-6.08,3.14-12.56,1.52-18.94-1.24-4.84-3.39-7-8.91-7.17-5.12-.14-7.57,4-11.5,5.65a3.34,3.34,0,0,1-.91-3.48,136.75,136.75,0,0,0,3.46-16.51c1.7-10.63,2.87-21.26,1.91-32a45.94,45.94,0,0,0-2.91-13.53c-1.86-4.5-8.35-6.83-12.51-3.92-6.25,4.38-10.27,10.8-14.54,16.95l-.5-2c.66-7.84,1.73-15.66,1.88-23.51.13-7.16-.71-14.5-4-20.93-4.12-8-10.75-7-15.26-2-7.17,8.06-13.11,22.9-13.11,22.9-4.63-5.41-3.23-12.3-4.38-18.53a45.3,45.3,0,0,0-4.75-13.4c-2.41-4.43-10.71-4.37-14.32,0a58.93,58.93,0,0,0-11.13,20.43c-4.32,13.82-4.45,28.42-8.29,42.31-.45,1.62-.63-.28-.63-.28-2.34-3.67-4.94-7.2-6.93-11-1.9-3.67-4.75-5.85-8.53-4.8a10.68,10.68,0,0,0-8.13,8.82c-2.28,11.85-1.3,23.46,1.63,35a7.43,7.43,0,0,1,0,5,14.23,14.23,0,0,1-3.59-1.89c-6.57-4.92-12.89-2-14.43,6.38-1.74,9.47-.39,18.66,1.34,28,1.92,10.42,6.68,28.47,6.68,28.47-2.65.33-2.76-2.22-4.07-3.43-2.63-2.39-5.44-5.94-9.37-4.4s-6.62,4.82-7.18,9.81c-1.39,12.41,2.3,23.33,8,34.08,3.55,6.68,8.49,12.15,13.1,17.95,1.58,2,3.58,2.51,6,2.51q59,0,118,.05a10.32,10.32,0,0,0,6.94-2.64c7.7-6.64,15.38-13.28,21.13-21.88a48.19,48.19,0,0,0,6.74-17.09c1.54-7.37-6.28-14.66-14.35-11.55-1.86.72-3.57,2.67-6,1.59C1978.8,833.4,1977.72,832.85,1979.54,829.53Z"/>
  <path class="coralBrain" d="M2154.3,773.9a50.54,50.54,0,0,1-12.49-7c-9.29-6.69-18.53-7.58-29.14-2.22-6.7,3.38-14,6.1-22.47,3-8.22-3-16.12.28-22.93,5.71-1.7,1.35-2.12,3.37-2.87,5.07-3.57,8.1-9.89,12.52-18.09,15-7.38,2.22-12,8-17.08,13.4-6.74,7.15-8.48,15.75-8.43,25.06,0,8.75-1.52,17-6.43,24.54-5.07,7.82-3.92,18.54,2.49,23.88,4.48,3.74,10.19,4.57,15.94,4.57h184.5c10.33,0,20.66,0,31,0,6.13,0,11.38-2,16.63-5.29,3.16-2,3.15-4.78,4.29-7.25,4.19-9.09,2.17-18-2-26.41-1.07-2.15-3.46-3.53-5.87-4.61-3.49-1.55-4.74-3.82-3.13-8,4.9-12.69,2.75-24.42-5.88-35-3.67-4.49-9.26-5.54-14.06-7.89-5.94-2.91-11.39-6-16.08-11-7-7.39-15.44-12.7-26.38-12.16a25.85,25.85,0,0,0-8,2c-7.26,2.8-15,3.61-22.53,5.38-3.12.73-6.63-.19-10-.35Z"/>
  <path class="coralBrainCavity" d="M2177.3,847.9c4.08.44,6.82-1.9,9.51-4.49,5.72-5.49,10.07-5.61,15.45,0,6.91,7.24,14.25,7.89,20.21-1.42,2.32-3.63,5.09-6.89,6.33-11.11,2.21-7.48-.73-15.26-8.07-17.24-5.87-1.58-9.22-5.53-12.86-9.34-4.89-5.11-10.39-7.78-17.58-7.49-8.82.34-17.64-.68-26.5-.57s-16.24,3.46-23,8.67a88.17,88.17,0,0,0-18,19.48c-5.59,8-12.82,13.77-22.54,15.36a43.44,43.44,0,0,1-16-.22c-11.11-2.32-12.83-13.37-4.51-20.2,5.26-4.32,10.77-6.29,17-2.87,3.43,1.9,6.73.66,9.47-.3,5.25-1.82,8.72-6.42,11-11.34s-.64-8.94-6.9-10.84c-2.49-.76-5.15-2-8-.18-2.26,1.46-5.33.79-7.39-.08-7.54-3.22-13.53-.23-19,4.23a70.39,70.39,0,0,1-16,10c-7.41,3.3-11.39,10.27-16,16.44a29.69,29.69,0,0,0-5.11,12c-1.32,6.23,1.19,10.66,5.59,14.51,5.17,4.53,11.67,6.29,18,7.9,10.36,2.62,20.64,5.69,31.47,6.18,7.5.34,14.17-.73,20.09-6,4.38-3.88,9.61-6.35,15.94-4.15,2.68.94,5.16,1.66,5.49,5.06s.93,7.34-1.63,9.88a41.79,41.79,0,0,1-10.34,7.2,7.89,7.89,0,0,1-4.54.89c-5.64-.57-7.65.44-10.58,5.67.89,1.75,2.58,1.35,4.08,1.35q59.49,0,119,0c5,0,8.94-2.95,12.33-5.72,3.93-3.21,7.87-7.09,8.69-12.79a11.18,11.18,0,0,0-8-12.09c-6.61-2.09-10.44-2.59-14.83,3.23a28.78,28.78,0,0,1-17.73,11.18c-5.29,1.12-10.51-1.23-15.46-3.34a21.88,21.88,0,0,1-2.5-1.48c-4.87-2.94-6.81-3.14-9.89,1.08-4.48,6.16-11.25,7.68-17.67,9.75a8.81,8.81,0,0,1-9.43-2.35c-1.59-1.8-2.69-3.23-.66-6.09,3.93-5.54,2.82-8.46-2.81-12.95-2.32-1.86-5.29-2.62-7.14-5.38-3.23-4.85-.33-9,1.23-13,3.19-8.19,9.57-12.9,18.37-14,3-.39,5.57.43,7,3.47,1.27,2.69-.13,4.44-2,6-4.35,3.57-2.76,8.77,1.53,13a51.52,51.52,0,0,0,4.48,3.53Z"/>
  <g class="coralBrainFoldLine">
    <path d="M2019.8,841.4c-1.3,12.09,4.12,20.75,14,26.94a55,55,0,0,0,6.91,4.19c2.32,1,3.68,3.21,1.56,5.87"/>
    <path d="M2251.8,820.4c-3.5,8.3-2.7,11.81,4,17.5"/>
  </g>
  <path class="frondBack" d="M2296.3,884.9h30.75c-1.7-6.48-1.21-12.5-1.25-18.5a66.43,66.43,0,0,1,17.31-46.17c6-6.83,13.71-12,18.74-19.8a65.66,65.66,0,0,0,5.59-10c1.41-3.3,1.14-5.43-1.62-7.59-2.94-2.3-5.78-1.86-8.5.06-3.38,2.38-5.88,6-10.52,6.53-4.84.61-7-.7-7-5.56.14-8.94,3.49-17,8-24.47,5-8.34,11.27-15.93,15.91-24.55a43.23,43.23,0,0,0,2-5c1.09-2.81,1-5.8-1.57-7.37s-5.4-1.1-7.94.84c-2.93,2.23-3.71,5.89-6,8.52-1.47,1.7-3,3.36-4.11,4.62-2.81-.2-3.41-1.27-3.41-3.11,0-4,1.05-7.71,2-11.51,2.61-10.48,6.88-20.38,10.35-30.55,1.46-4.31,3.4-9.14.24-14-2.78-4.25-5-4.9-9.1-2.52-4.79,2.79-7.18,7.36-8.84,12.1a231.27,231.27,0,0,0-6.51,23c-.69,2.9-1.68,5-4.62,5.41s-4.29-2-6.12-3.81c-1.33-1.32-.42-2.93-1.74-4.26-1.56-1.56-2.62-3.7-5.12-3.3s-4,1.5-5.22,4.35c-2.75,6.6-1.47,12.78.25,19.08.74,2.73,2,5.34,3,8Z"/>
  <path class="frondFront" d="M2296.3,734.9c-2.16-13.5-5.52-26.62-11.47-39-3.57-7.44-7.75-14.26-15.55-18-2.53-1.2-5.28-2.83-8-.49-3,2.65-3,6.07-1.48,9.45a21.34,21.34,0,0,0,3.51,6c10.11,10.79,15.55,23.77,18.49,38,.78,3.78.66,7.25-1.35,10.53-4.49-.49-6.46-3.84-8.08-7.08-1.15-2.31-2.39-4.27-4.63-5.41-2.77-1.42-5.83-2.87-8.43,0s-2.67,5.87-1.15,9.5c2,4.86,5.82,8.17,9.11,11.95,7.58,8.69,14.51,17.75,18.05,29,.89,2.8,2.75,5.29,3.89,8,1,2.49,2.62,5.44-.5,7.41s-5.86.18-7.35-2.48c-1.74-3.12-4.43-5.08-7.17-6.84s-6.06-2.38-8.9-.06c-3.3,2.69-2.82,6.26-1,9.42,3.46,5.95,7.42,11.61,10.9,17.56,6.88,11.74,10.24,24.66,12.62,38,1.72,9.68,1.47,19.32.88,29a33,33,0,0,1-1,4.81c3.61,1.39,7.4.42,11.07.68,1.66.12,2.38-.82,2.51-2.48,1.46-18.22,11.79-33,19-49a168.63,168.63,0,0,0,7.35-19c.59-1.86,1.87-4.46-.92-6-2.48-1.31-5-.42-6.92,1.06-3,2.32-3.83,6.2-5.53,9.43s-3.76,5.85-7.85,4.4c-3.63-7.62.72-14.71,2.07-21.87,1.6-8.53,5.77-16.56,7.59-25.08,2.74-12.87,7.31-25.49,6.68-39a52.71,52.71,0,0,0-.91-6.52c-.69-4-2.93-6-6.61-5.87-3.28.12-5.64,2.15-7.06,5.36-1.31,2.94-1.07,6-1.36,9s-1.4,5.54-4.13,6.35c-2.09.62-5.48,1-5.36-2.85.09-2.64-2.45-4.78-1.09-7.5Z"/>
  <path class="coralTube" d="M2513.3,778.4c-2.43-7.13-3.08-14.87,1.19-20.86,11.6-16.27,18.62-34.46,24.81-53.14l-27.5-9c-.35,8.41-3.8,15.58-9,22-1.53,1.86-3.45,3.51-6,3.46-3.24-.06-4.69-3.12-4-7.94,1.85-12.89,6.67-25.09,6.83-38.5.14-12.71,1.53-25.37-.83-38l-30,7c1.4,3.22,1.3,6.69.92,10-.92,7.86-2.16,15.69-3.48,23.5-.41,2.44-1.11,5.5-4,5.85-2.64.32-5-1.49-6.47-3.85-3.74-6-6.94-12.18-7-19.49l-24,8.5c-3.2,6.58-.87,13.27.76,19.43,2,7.66,3.09,15.55,5.67,23.09,1.84,5.38,2.93,11,4.61,16.46,1.6,5.18,1.28,9.76-2.76,13.74-7.58-3-14.15-6.62-16.79-14.72a2.52,2.52,0,0,0-3-2l-20.5,10.5c-1,7.14,3,13.06,5.76,18.87,3.35,7,7.42,13.86,12.82,19.55,4.94,5.2,10.11,10.44,16,14.42,9.89,6.65,13.77,15.9,14.4,27.16Z"/>
  <g class="coralTubeCavity">
    <path d="M2424.8,666.9c3.14,4.09,7.13,1.57,10.46.84,5.31-1.18,11-2.49,13.33-9.17-6-3.31-11.52-.64-16.74,1.47-3.1,1.25-7.33,2.09-7.55,6.86Z"/>
    <path d="M2515.8,692.4c-3.94,3.16-4.06,3.6-.48,6,5.73,3.8,12.28,5.5,19,6.35.91.11,3.33.61,3.93-1.34a4.4,4.4,0,0,0-1.47-4.47c-5.75-5.49-13-6.37-20.48-6.51Z"/>
    <path d="M2487.3,634.9c-4.66,1.2-9.65.54-14.1,3.33a7.69,7.69,0,0,0-3.54,4.59c10,5.7,25.72,3,29.72-5.1a18.25,18.25,0,0,0-11.58-2.82Z"/>
    <path d="M2407.3,722.9c-5.34,2.19-11.26,3.4-14.56,9a5.06,5.06,0,0,0-.45,2c7.64,4,20.79-2.25,22-10.46-2.12-.79-4.32-.5-6.49-.54Z"/>
  </g>
  <g class="rockMediumDark">
    <path d="M1502.3,885.4q65.49,0,131,0c2.72,0,5.19-.27,7.53-2,3.73-2.72,9-2.41,12.43-5.59,8.31-7.63,12.21-17.64,13.93-28.47.83-5.23,1.37-10.49.34-16a30.77,30.77,0,0,0-7.72-15.47c-9.71-10.86-21.1-19.82-33.1-27.85a79.32,79.32,0,0,0-35.9-12.74c-20.14-2.2-40.34-2-60.52-2.28-11-.14-22.14-.06-33,1.59-21.43,3.26-38.43,13.12-45.56,35.29C1451.32,813.29,1502.3,885.4,1502.3,885.4Z"/>
    <path d="M562.3,885.4c41.83,0,83.66-.23,125.5.12,13.94.12,24.66-14.53,17.74-28.25-5.68-11.25-13-19.85-24.76-24.33a45.11,45.11,0,0,0-25-2.63c-14.54,2.73-29.27,2.76-44,1.47a7.6,7.6,0,0,0-4.51.62Z"/>
    <path d="M2470.3,800.4c-6.54-2.93-13.62-2.76-20.51-3.43a118.43,118.43,0,0,0-42.43,3.66c-8.3,2.24-14.31,8.91-20.08,15.25-3.25,3.58-6.87,6.83-9.94,10.56-5.44,6.61-4,14.65-2.79,21.92,1.4,8.56,5.61,16.36,10.71,23.56,4.39,6.2,11.33,9,17.1,13.39.85.64,2.6.09,3.94.09h101Z"/>
  </g>
  <g class="rockMedium">
    <path d="M2687.8,747.4c-8.49,1-17.1.61-25.51,2.47-7,1.55-14.19,2.6-21,5.06-8.56,3.11-17.39,1.87-26,1.29-15.88-1.06-31.72-2.84-47.5-4.93a139.27,139.27,0,0,0-35.51.18c-8.08,1-15.67,4.09-23,7.53-9.51,4.49-19.19,9-26.53,16.91-8.24,8.93-17,17.49-24.3,27.14-5.87,7.77-10.72,17.13-8.53,27.31,4.14,19.22,12.87,36,28.73,48.65,5.35,4.26,10.71,6.48,17.59,6.47,82.16-.13,164.33-.26,246.5.12a40.44,40.44,0,0,0,28.25-11c8.3-7.58,17.21-14.82,23.74-24.24a86.8,86.8,0,0,0,5.11-9.44c3.58-6.84,1.49-13.53-.23-20a123.72,123.72,0,0,0-12.35-29.55c-4.71-8.25-10.66-15.18-19-20A209.5,209.5,0,0,0,2733.76,755c-14.63-5.23-29.67-8.89-45.46-7.59Z"/>
    <path d="M502.3,751.9c-6,.33-12,.8-18,1-10.58.28-21,1.79-31.52,2.92-9.62,1-19.24,3.19-29,2-6.88-.83-13.47-3.25-20.51-3.54a98.63,98.63,0,0,0-11,0c-6.48.44-13-.35-19.5-.1-9.38.37-18.77.76-28,2.31-21.81,3.67-42.54,10.34-59.48,25.43-12.85,11.43-21.51,25.69-24.86,42.5-2.75,13.8,2,26,11.31,36.48a92.28,92.28,0,0,1,10.49,14c4.44,7.45,11.86,10.29,19.53,10.31,90.83.27,181.66.16,272.5.2,9.25,0,16.48-4.07,21.88-11.11a82.1,82.1,0,0,1,8.66-9.37,54.41,54.41,0,0,0,15.35-25.07c3.38-12.25,3.56-24.65-2-36.44-3.16-6.74-8.29-12.2-13.43-17.53a123.78,123.78,0,0,0-45.55-30.36c-7.07-2.68-14.79-3.56-22.44-3.62-11.34-.09-22.67,0-34,0Z"/>
    <path d="M1455.8,808.4c-7.66,1.56-15.48,2.16-23,4.45-8.24,2.52-14.51,7.76-19.93,14.09a46.72,46.72,0,0,0-8.15,12.41c-4,9.71,0,18.11,3.73,26.49,1.39,3.13,3.81,5.89,5.37,9.06,3.68,7.48,10.22,10.38,18,10.43,23.66.18,47.34.35,71-.13,6.12-.12,11.72-2.36,15.75-8.65,5.27-8.23,9.81-16.37,11.34-26.14a19.45,19.45,0,0,0-2.77-13.89c-10.49-15.34-25.15-24.19-43.8-26.76-9-1.25-18-.15-27-1.36Z"/>
  </g>
</svg>
