<svg class="phoneCallPanel" 
    xmlns="http://www.w3.org/2000/svg" viewBox="0 0 1817.15 1550.35">
    <path class="panel" d="M1726.17,240c-13-1-25.87-2.29-39-1-10,1-19.71,3.1-29.49,5.17a76.06,76.06,0,0,0-27.89,12.22c-8.7,6.07-17.43,12.17-23.74,21.25-5.84,8.42-8.88,17.31-6.1,27,1.55,5.45,6.65,9.22,12.28,11,3,.91,8,3.11,8,3.11-3,3.09-7.24,3.81-11,4.87a214.65,214.65,0,0,1-29,6.13,119.3,119.3,0,0,1-19,1.07c-7.34-.17-14.72-1.14-22-.86a112.56,112.56,0,0,1-29-2.86,244.82,244.82,0,0,1-38.6-12.18c-14-5.64-27.11-12.81-40-20.5-3.3-2-5-5.09-7.91-7.15-12.79-9.17-23.5-20.53-33.39-32.59-9.58-11.68-18.38-24.05-24.49-38-2.52-5.76-6.13-11-8-17-4.39-13.68-9.63-27.18-9.21-42,.07-2.55-.7-6.37-4.84-5.9a16.55,16.55,0,0,0-7.45,2.5c-9.36,6.63-20.39,9.65-30.66,14.2-11.81,5.23-24.56,7.69-37.38,9.86a328.48,328.48,0,0,1-43.53,4.26,274,274,0,0,1-33.51-1.24c-8.68-.75-17.37-1.15-26-2.6-9.94-1.67-20-2.61-30-4.15-3.41-.53-6.66-2.67-10-2.78-9.31-.32-17.89-4-27-5.34-5.15-.78-10.19-2.92-15.08-5.2-6.63-3.09-13.94-4.82-20.37-8.25-10.59-5.65-22-9.79-31.64-17.28-8.95-6.94-18.79-12.65-27.51-20-8.52-7.16-15.85-15.53-24.41-22.62-6.17-5.11-8.68-4.91-13.52,1.52-3.13,4.17-6,8.6-10,12-8.08,6.77-16.18,13.53-24.53,20-3.69,2.83-6.25,6.73-10.38,9.18a130.88,130.88,0,0,1-30,13.09,160.32,160.32,0,0,1-53.07,6.56c-10.41-.44-20.27-3.23-30.46-4.5-19.28-2.4-36.88-10.51-54-19.36a137.57,137.57,0,0,1-31.61-22.34c-4.71-4.47-10.3-8-14.88-12.62a209.76,209.76,0,0,1-34-45c-1.51-2.66-3.47-5-4.72-7.9-6.06-14.27-12-28.64-19.86-42.06V1c-2.87-.11-2.55,2-2.48,3.75.18,4.84.19,9.68.34,14.51a292.62,292.62,0,0,1-.66,36c-.79,8.64-1,17.37-2.22,26-1.79,12.57-4.92,24.82-8.37,37-3.57,12.66-9.79,24.14-15.33,35.87-3.27,6.91-8.56,12.94-13.32,19.07-10.34,13.29-21.71,25.5-35.28,35.76-5.81,4.39-10.92,9.78-17.14,13.82A304.72,304.72,0,0,1,519.77,242a254.72,254.72,0,0,1-33.64,13.69c-10.92,3.45-22.26,5.3-33.44,7.75-11.44,2.5-22.93,3.73-34.51,5.07a228.84,228.84,0,0,1-24,1.46c-6.92.07-14-.9-21-1.8a63.2,63.2,0,0,1-11.07-2.25c-4.21-1.33-8.09,3-8.47,8.34-1.25,17.1-1.84,34.26-4.6,51.23-.24,1.43-.53,2.86-.89,4.27-4.49,17.94-11,35.16-20.61,50.93-6,9.91-14,18.53-22,27-9,9.65-18.26,19.25-29.45,26.52-6.13,4-12.82,7.11-18.92,11.12-9,5.94-19.11,9.91-28.72,14.58-11,5.36-15.44,8.66-38.24,13.67A105.61,105.61,0,0,1,175,475.75l-36.32,2.5c2.68-3.91,7-5.92,10.58-8.85,4.83-4,7.86-15.89,5.51-23.19-4.14-12.78-13.06-20.93-24.11-27.48-16.89-10-35.59-14.45-54.5-18.56-21.3-4.63-42.82-6-64.52-6-5.18,0-11.87,3.6-10.46,3.84,16.55,2.84,31.15,10.78,45.82,18,10.89,5.38,20.82,13.25,27.51,23.79,5.92,9.32,5.71,15.55-4.86,21.93-6.17,3.73-18.51,7-18.51,7q7,5,14,10c10,7.1,20.06,14.07,28.47,23,11.55,12.32,22.18,25.44,29.94,40.51,5.75,11.16,9.2,23.19,12.32,35.4,2.61,10.24,2.25,20.34,1.69,30.55-.3,5.57-3.13,10.67-4.22,16-1.44,7.1-5.2,13.17-7.46,19.88-1.44,4.3-5.1,8-8.3,11.53-7.63,8.39-16.31,15.7-24.92,23.07-3.53,3-8,4-12,5.92-2.78,1.36-3.53,2.81-3.16,6.09a20.09,20.09,0,0,0,4.7,11c11.37,13.63,18.18,29.66,24.55,46,5,12.7,7.77,26,11.73,38.94,3.65,11.89,4.57,24.13,6.91,36.14,2.13,11,3.05,22.27,4.22,33.45.38,3.61-.4,7.33-.38,11,0,6.17,1,12.42.31,18.49-1.3,11.67-1.79,23.4-3.33,35.08-1.07,8.06-2.65,16.22-3,24.44-.11,2.84-1.33,5.34-2,8-3.14,13.27-8,26-11.91,39-3,9.82-6.51,19.42-10.27,28.91a137.18,137.18,0,0,1-17.37,31.06,29.28,29.28,0,0,0-2,3.49c-2.64,4.85-2.19,8.47,2.54,10.9,15.83,8.13,29.57,19.17,42.85,30.72a138.45,138.45,0,0,1,26,29.55c2.27,3.55,4.7,7,7.17,10.42,4.71,6.5,6.55,14.3,9.83,21.44,3.73,8.12,5.39,17,7.95,25.5,1.34,4.45,1.16,9.36,1.4,14a341.69,341.69,0,0,1-.11,38,99.67,99.67,0,0,1-9.76,37.44c-5.85,12.23-14.6,22.7-21.88,34.07s-16.92,20.46-25.19,30.85c-4.64,5.85-11.39,9.88-16.45,15.75,1.59,3.3,26.32-8.75,36.73-12.26a230.66,230.66,0,0,1,44.88-10.79c11.28-1.42,22.67-.9,34-.46,9.67.37,19.36.4,29,1.77,14.76,2.1,49.11,16.26,50.58,17.15,1.65,1,37.34,22.48,52.43,33.94,10.75,8.17,20.64,17.33,30.41,26.59,7,6.65,14,13.47,19.93,21,10.36,13.18,21.67,25.65,30.62,39.91,4.77,7.6,9.56,15.2,13.95,23A226.67,226.67,0,0,1,458,1516.81c3.23,7.63,7.61,14.74,9.74,22.91,2.25,8.63,4.08,9.53,13.38,9.53q429,0,858,.1c9.7,0,11-1.76,15.43-10.63,4.06-8.22,6.73-17.08,11.55-25,11.42-18.69,24.82-35.58,41.39-50.13,13.13-11.53,25.87-23.38,42.17-30.26,5.09-2.15,10.15-4.43,15.36-6.38,6.77-2.52,13.81-3.6,20.58-5.8,6.28-2.05,12.72-3.59,19.08-5.21a186.13,186.13,0,0,1,37.43-5.53c8.25-.39,16.35.19,24.51.23,2.83,0,5.7.46,6-4.88.2-3.8-.69-7.34-.56-11,.41-11.76,2.13-23.36,3.62-35a185.25,185.25,0,0,1,8.68-37.1c4.76-13.8,7.92-28.15,14.3-41.4,5.08-10.54,9.27-21.51,15.46-31.52,9.81-15.87,20.87-30.74,35.58-42.41,9-7.1,17.38-15,28.41-19.15,7.7-2.91,14.67-7.65,23-9a114,114,0,0,0,11.94-2.18c9.17-2.5,18.51-1.67,27.55-1.36,8.78.29,17.72-.22,26.53,1.48,8.39,1.62,17,1.35,25.53,2.87,8.18,1.46,23.45,2.23,23.45,2.23-1.26-.46.2-1.83-1-2.53-5.85-3.5-10.81-8.14-16.08-12.4-8.13-6.58-17.22-12.09-24.76-19.27-6.15-5.85-12.55-11.44-18.73-17.24-11.72-11-22.47-22.81-29.83-37.12a126.41,126.41,0,0,1-13.09-40.94c-.74-5.47-1.91-11.09-1.34-16.47,1-8.85-.53-17.69,1.07-26.57,1-5.55,1.23-11.53,2.59-16.87,2-7.87,3.27-16,6.55-23.63,2.79-6.47,4-13.66,7.23-19.89,9-17.46,21-32.45,37.84-43.1,5.28-3.34,5.44-5.12,1-9.94-11.81-12.8-23.34-25.83-33.44-40-2.65-3.73-5.66-7.39-7.39-11.54-3.55-8.48-7.73-16.66-10.87-25.36-2.72-7.51-7.54-14.26-9.75-22.09-1.11-4-2-8-3-12-4.53-17.4-9.53-34.72-8.49-53,.43-7.56-1.47-15-1.56-22.5-.08-6.83.14-13.67.21-20.49.2-19.17,2.54-38.19,8.49-56.46,3.65-11.19,6.89-22.69,13.84-32.56,3.59-5.1,7-10.35,10.53-15.47,1.34-1.92,1.55-3.63-.54-5a16.19,16.19,0,0,0-5-2.48c-12.91-2.92-24.17-9.39-34.93-16.64-11.61-7.82-20-18.78-27.56-30.42l-1-1a104.62,104.62,0,0,1-10.23-22.42c-4.7-15-9.22-30.08-11.64-45.6-3.08-19.73-.74-39.39,4.6-58.41a248.13,248.13,0,0,1,13.79-38.56c3.79-8.07,7.79-16.28,13.65-22.86,12.51-14,42.33-35.15,42.33-35.15a8.18,8.18,0,0,0-5-.45c-8.15,1.25-15.86-.32-23.52-3-7.19-2.53-10.58-7.48-9.45-15a22.59,22.59,0,0,1,5.87-12.09c3.8-4.19,8.57-6.91,13.17-9.8,6.69-4.21,13.18-8.73,20.36-12.25,8.09-4,17-5.38,25.06-9.37A18.93,18.93,0,0,0,1726.17,240Z"/>
</svg>
