<svg viewBox="0 0 638.11 205.85">
  <path class="mapleMedium" d="M2.73,28.5q316.31-6.21,632.64,0C636,18.84,636.3,14,637,4.35q-318-6.7-635.95,0C1.81,14,2.14,18.84,2.73,28.5Z"/>
  <path class="ironDark" d="M22,28.12q297-5.48,594.13,0c-.41,7.22-.6,10.83-.94,18.05Q319.07,41,22.93,46.17C22.59,39,22.4,35.34,22,28.12Z"/>
  <g class="ironMedium">
    <path d="M41.82,175.33l-17.6.18Q25.92,101.74,22,28.12l17.71-.33Q43.42,101.54,41.82,175.33Z"/>
    <path d="M613.89,175.51l-17.6-.18q-1.59-73.85,2.12-147.54l17.71.33Q612.17,101.8,613.89,175.51Z"/>
  </g>
  <g class="rubberMedium">
    <path d="M616.89,204.85c-.39-11.26-.76-23.77-1.09-29.32l-21.42-.22c-.06,5.58-.09,18.22-.09,29.54Z"/>
    <path d="M43.82,204.85c0-11.32,0-24-.09-29.54l-21.42.22c-.34,5.55-.7,18.06-1.09,29.32Z"/>
  </g>
</svg>
