<svg class="reattaInterior" 
    xmlns="http://www.w3.org/2000/svg" viewBox="0 0 1988.45 836.25">
    <path class="interior" d="M1729.24,621.74c24.83,1.3,49.6,3.35,74.5,3.67,18.53.23,37,0,55.49-1.24a346.47,346.47,0,0,0,62-10c13-3.35,25.43-8.76,36-17.43,5.77-4.75,9.15-11.42,12.54-18,7.4-14.26,8.21-30.2,11.47-45.5,3.12-14.66,3.23-29.68,5-44.5,1.94-16.12,1.06-32.33.88-48.49-.11-10.18-1.58-20.34-2.35-30.51-1.2-15.88-4.49-31.43-7.62-47-5.31-26.36-15.33-50.86-36.57-68.31s-43.24-34.31-65.79-50.25q-36.27-25.64-74.11-48.84c-20.62-12.62-41.69-24.55-63-36q-47.87-25.78-98-46.94c-24.49-10.3-49.11-20.41-74.41-28.71-17.33-5.68-34.43-12-52-17-24.73-7.06-49.32-14.59-74.51-20-14.07-3-27.93-7-42-9.84-15.74-3.14-31.65-5.4-47.48-8.12-17.09-2.93-34.28-5.07-51.5-7-10.66-1.19-21.26-2.83-32-3.61-14-1-28-2.12-42-3.08a206.78,206.78,0,0,0-24.52,0c-11.64.57-23.34-.26-35,.22-28.16,1.18-56.33,1.23-84.5,1.58-14.17.17-28.33.24-42.5.31q-35.25.18-70.5,0c-22.5-.08-45-.08-67.5-.56q-29.25-.63-58.5-1c-20.34-.24-40.67-.82-61-1.48-24-.78-48-1.43-72-2.21-12.34-.4-24.69-.16-37-.82-25.65-1.37-51.32-2.17-77-2.95-13-.4-26-.78-39-1.53-21.32-1.23-42.7-1-64-2.85-8.12-.69-16.32-.46-24.5-1-47-3-94-1.47-141-1.36-11.29,0-22.74-.21-34,1-8.55.9-17.08-.13-25.51.9C255.1,4.66,244.38,5,233.72,6c-9.62,1-19.32,1.55-29,2.17-9.26.6-18.33,2.4-27.5,3.58-8,1-16,2.28-24,3.48-11,1.64-22.15,2.68-33,5.15C105,23.89,89.56,27,74.76,32.3,59.57,37.76,44.23,42.92,30.23,51.23c-10.33,6.14-15.72,15.32-18.11,27-2.59,12.61-4.82,25.23-6.53,38-1.52,11.32-2.11,22.66-3,34-1.36,16.36-.55,32.68-.75,49C.55,297.58.9,833,2,835.24c1.45,0,1021.12,0,1529.29-.16,14.48,0,29.12-.58,43.47-3,6.51-1.09,13.21-1,19.54-3.32,15.75-5.73,32.09-9.3,46.67-18.76,23.36-15.16,40.38-35.7,53.58-59.4a229.26,229.26,0,0,0,23.79-63.85c3.84-17.88,7.93-35.66,9.11-54Z"/>
</svg>
