<svg class="presence" 
    xmlns="http://www.w3.org/2000/svg" viewBox="0 0 2939.5 836.71">
    <path class="interior" d="M2891.6,296.92c-55.33-48.21-126.65-94.09-202.88-135.11C2543.39,85.71,2386.64,37.28,2216.78,20.6c-159.51-16.89-295.52,1-438.51-2.89-175.78-4.75-220-24-472-13.74-499,9.74-1004,62.74-1232.83,143.21-29.26,10.43-57.92,21.17-60.86,45.07-10.76,74-15.84,143.33-7.23,201.64,8.4,59.23,29.92,101.82,75.34,118.83-17.42,117-.52,207.65,54.09,280.51,20,27.59,49.49,42.48,84.83,42.48H2490.3c39,0,70-3,101.65-23.23,56.81-38.7,82.56-104.7,88.32-188.27,66.36,6.7,130.46,4.59,192-7.63,22-3.87,38-13.87,48.53-35.38,18.5-49.49,25-144.56,7.4-216C2924.27,339.71,2914.27,318.71,2891.6,296.92Z"/>
</svg>
