<svg class="snowglobe"
    xmlns="http://www.w3.org/2000/svg" viewBox="0 0 1802 1965.75">
    <title>snowglobe</title>
    <path class="snow" d="M1629.12,1419.25c-21.34,11.32-43,22-65.79,30.47-9.57,3.56-19.06,7.6-28.67,11-9.09,3.24-18.58,5.64-27.85,8.47-12.56,3.84-25.57,5.74-38.1,9.66-5.6,1.76-11.64,2.07-17.46,3.14-10.67,2-21.26,4.77-32,5.82-18.13,1.77-36.23,4.06-54.48,4.79-12.83.52-25.62,2.49-38.5,2.34-11.17-.14-22.34-.91-33.5-.83-4.84,0-9.69-.17-14.5,0-15,.47-29.67-2.46-44.5-3.66-9.51-.78-19-1.8-28.5-3-22.54-2.85-45.3-3.93-67.53-9.36-17.36-4.23-35-7.39-52.47-11.13-13.68-2.92-27.3-6.17-41-8.93s-27.61-5.94-41.46-8.7c-18-3.61-36.22-5-54.52-6-11.84-.64-23.67-2.52-35.51-2.21-23.51.61-47.1.33-70.49,3.39-17.82,2.34-35.87,2.66-53.52,6.44-6.41,1.37-13,1.57-19.48,2.17-7.39.68-14.66,2.6-22,3.83-9.49,1.58-19.14,2.43-28.47,4.65-16.29,3.89-32.77,6.84-49.08,10.63-16.76,3.9-33.93,6-51,8.7-16.23,2.54-32.61,3.84-49,5-11.48.8-23,1.06-34.5,1.56l-.5,1c-1.92-2-2.21-2.16-4-2-12.15,1.14-24.34.56-36.5.37a165.15,165.15,0,0,1-24.48-2.5c-5.7-1-11.27.79-17.06-.7-12.41-3.2-25.48-2.18-38-5.51-8.11-2.16-16.75-2.33-24.93-4.3-8.84-2.12-17.81-3.66-26.56-6.27-11.38-3.38-23.41-5-34.34-9.4-10.38-4.17-21.06-7-31.68-10-12.49-3.58-25.29-6.18-37.9-9.36-13.22-3.33-26.68-4.35-40-6.41-14.58-2.25-29-1.11-43.53-.05l-1.82.17q6.06,8.33,12.31,16.5,25.49,33.3,54.07,63.94,23.19,24.87,48,48H1512.09l2.16-2a905.41,905.41,0,0,0,89.93-97.06c12.43-15.67,24.26-31.78,35.63-48.23Q1634.44,1416.44,1629.12,1419.25Z"/>
    <path class="globeInner" d="M901,40.25C425.62,40.25,40.25,425.62,40.25,901S425.62,1761.75,901,1761.75,1761.75,1376.38,1761.75,901,1376.38,40.25,901,40.25ZM901,1727c-456.19,0-826-369.81-826-826S444.81,75,901,75s826,369.81,826,826S1357.19,1727,901,1727Z"/>
    <path class="globeOuter" d="M901,1C403.94,1,1,403.94,1,901s402.94,900,900,900,900-402.94,900-900S1398.06,1,901,1Zm0,1760.75c-475.38,0-860.75-385.37-860.75-860.75S425.62,40.25,901,40.25,1761.75,425.62,1761.75,901,1376.38,1761.75,901,1761.75Z"/>
    <path class="reflectionOuter" d="M1397.75,277c-7.15,1.27-14.21,2.56-21,5.4-14.68,6.09-24.32,16.65-30.55,31.06-5,11.59-6.85,23.76-6.71,36a171.94,171.94,0,0,0,6.81,45.5c11.92,41.51,33.21,78.14,60.18,111.35,20.89,25.73,44.63,48.83,73.33,66.12,13.6,8.18,27.59,15.68,43,20,16.28,4.56,32.75,5.53,48.42-1.62s26-19.93,31.59-36.34c6.09-17.76,7.11-35.85,5.67-54.52-2.16-28.17-11.27-54.21-22.89-79.4-9.12-19.78-21.5-37.78-34.76-55.12a268,268,0,0,0-68.19-62.74c-21.14-13.64-44.38-23.15-69.86-25.66-4.78-.47-9.66-.07-14.49-.07Z"/>
    <path class="reflectionCentre" d="M1424.75,324c-7.42,1.42-14.51,3.53-20.52,8.47-8,6.55-11.92,15.24-14,25a69.77,69.77,0,0,0-1,15c.1,16.43,4.43,32,10.61,47a240.59,240.59,0,0,0,49,75.43c15.87,16.52,33.18,31.6,54.43,41,11.83,5.24,24.45,8.22,37.44,6,14.19-2.46,23.16-11.59,28-24.89,5.5-15.1,4.91-30.5,2-46a182,182,0,0,0-28-68c-20.92-31.46-46.79-57.27-82-72.47a77.87,77.87,0,0,0-35.49-6.52Z"/>
    <path class="reflectionInner" d="M1444.25,369c-8.7,4.27-11.61,10.39-10.56,20,2.41,22.21,13.24,40.72,25.63,58.44A135.12,135.12,0,0,0,1496.74,484a50.47,50.47,0,0,0,17,7.47c13.17,2.74,17.77-5.94,18.48-15,1.2-15.4-4.18-29.22-11-42.47-12.12-23.41-28-43.62-50.94-57.54-7.84-4.76-16-8.34-25.5-7.49Z"/>
    <path class="base" d="M262.25,1572.5A183.67,183.67,0,0,0,217.73,1612a323.43,323.43,0,0,0-30.7,44.18,289.81,289.81,0,0,0-17.33,34.57c-2.36,5.71-5.46,11.11-7.92,16.78A493.39,493.39,0,0,0,143.19,1759c-5.2,17-8.69,34.33-13,51.51-2.36,9.46-4.25,19-6.15,28.57-1.68,8.5-2.34,17.31-3.81,25.94-3.06,17.89-4.92,35.93-6.47,54-.92,10.66-1.65,21.34-2.54,32-.37,4.5-1.92,8.94-.4,13.75H1695.66c1.89-5.48-.14-10.61-.53-15.74-.66-8.67-1-17.37-1.7-26-.7-8.32-1.15-16.79-3-25.06-1.07-4.66-.46-9.69-1.2-14.46-1.79-11.7-4.62-23.28-5.78-35-2.16-21.78-8.93-42.56-12.87-64-2.07-11.23-6.63-22-9.74-33a345.72,345.72,0,0,0-20.66-53.93c-5.11-10.84-10.54-21.56-16.1-32.21a278.52,278.52,0,0,0-19-31.71c-15.56-22-32.33-43.16-55.8-57.65-1.73-1.07-3.34-2.32-5-3.49Z"/>
    <path class="rim" d="M1577.25,1556.5c-.35-12.42-4.64-23.54-13.74-31.74-4.24-3.82-10-7.34-17.34-5-4.91,1.54-10.62.8-15.93,1-8,.29-16,1-24,1.44-18,1.09-36,2.16-54,3q-18.26.79-36.5,2c-15.33,1-30.72,1-46,2.71-6.78.74-13.69.71-20.5.86-10.34.23-20.7.78-31,1.49-18,1.24-36.07.79-54,2.76a8.34,8.34,0,0,1-1,0c-16-.72-32,.57-48,1.24-22,.93-44.06.7-66,2.76-.33,0-.67,0-1,0-16.33.33-32.68.34-49,1.08-22.16,1-44.36.14-66.49,1.15-19.35.87-38.68.28-58,.78-87.49,2.26-175,.69-262.5.81-31,0-62-1.33-93-2.07-13.84-.32-27.71,0-41.5-.89-14.85-1-29.7-.18-44.5-1-22-1.18-44-2-66-3s-44-2.08-66-3c-15.33-.64-30.68-1.19-46-2.07-17.67-1-35.36-2.27-53-3.57-13.78-1-27.63-1.83-41.47-2.47-16.08-.75-28.73,12.15-29.64,27.22a58.3,58.3,0,0,0,1.26,18c2.57,10.08,10.2,15.7,19.37,19.53,8,3.35,16.65,2.8,25,3.37,20.82,1.44,41.67,2.6,62.5,4,13.62.92,27.34.5,41,1.17,23.66,1.17,47.36,1.17,71,2.88,9.48.69,19,.74,28.5,1.06,28.83,1,57.64,2.43,86.5,2.64,6.15,0,12.33.24,18.5.34,22,.38,44,.48,66,1.09,15.5.44,31,.61,46.5,1,82.49,2,165,.61,247.5.8,26,.05,52-.52,78-1q31.5-.57,63-.93c20.34-.22,40.67-.93,61-1.44,19.33-.49,38.67-.92,58-1.52,24.5-.75,49-1.64,73.5-2.48,14.5-.5,29-.76,43.5-1.56,21.49-1.19,43-1,64.51-2.86,7.13-.6,14.35-.69,21.5-.83,11-.22,22-.85,33-1.44,17-.92,34-1.29,51-2.63,8.62-.68,17.33-.65,26-1.16,10-.59,20-.91,30-1.55,13.92-.88,22.41-8.79,27-21.48,1.16-3.21,2.61-6.4,2-10Z"/>
</svg>
