<svg viewBox="0 0 1544.06 113.79">
  <path class="suspenders" d="M25.14,24.15C368.54,90,1175.61,90,1519,24.15V54.66c-343.39,65.88-1150.47,65.88-1493.86,0"/>
  <path class="cable" d="M25.14,19.15C368.53,85,1175.61,85,1519,19.15v5C1175.61,90,368.54,90,25.14,24.15"/>
  <path class="mapleDarker" d="M25.14,63.38c343.39,65.88,1150.47,65.88,1493.86,0V54.66c-343.39,65.88-1150.47,65.88-1493.86,0"/>
  <g class="oakDarker">
    <path d="M1519,66.43h24.06V3.24c0-3-24.06-3-24.06,0Z"/>
    <path d="M1,66.43H25.06V3.24c0-3-24.06-3-24.06,0Z"/>
  </g>
</svg>
