<svg viewBox="0 0 966.92 367.06">
  <g class="haze">
    <path d="M945,80.69c3.11-11.69-9.22-19.08-18.28-16,.44-11.08-10-15.7-18.82-10.28-3.85-17.13-22.64-17.74-29.89-4.07-8.15-8.13-21.71-4.74-24.65,5.18C842.17,49,828.61,54.83,825.86,68c1.52-12.2-9.26-22.06-23.12-20,8-13.17-4.62-23.34-16.26-20.6C786.41,8,765.77,4.62,755.37,15.74c-3.46-12-18.56-11.43-24.71-4.33-12-13.26-29.89-6.48-33.15,8.12-9.68-6.29-20.16,1.11-14.93,13C670.27,26.8,655.79,36,656.94,51.6c-1.15-7.24-8.85-10-14.65-5.83C641.62,30.8,624.67,25,613.16,34c-7.28-13.37-23.3-12.45-29.45,1.25-7.41-5.38-18.19-1.38-19.78,7.65-8-6.87-19.36-2.56-22.65,8.26,3.91-15.44-11.19-23.76-22.26-18.4C518.69,12,499.29,8,487.37,20.4c-5-9-16.73-7.47-18.8,1.52-12.41-14.84-31.21-8.06-34.27,7.48-10.8-8.15-23.43-2.91-24.81,9.83.46-13-16.18-20.44-25.66-11.22,4.86-12.61-6.23-20-17.06-14.45C361-2.47,340.32-3.7,331.3,9.63c-6.69-9.33-19-5.94-21.87,4.87C298.12,3.69,282.1,12,283,26.94c-8-3.22-16.63,2-15.07,11.5-8.95-4.86-19.42.68-19,11.81-1.06-10.2-11.53-14.52-19.85-8.89-5.86-12.71-21.88-14.87-31.55-5.39C190.91,29.88,182,32,180.18,41.25c-9.61-5.83-22.85-2.75-26.83,9.35.9-8.71-9.27-13.94-17.4-9.8-.5-15.85-15.59-20.47-26.7-13.12-8.92-14.44-26.48-13.2-34.41.9C62.13,18.17,48,26.49,49.5,42.22c-9.86-5.87-21.87.6-21.91,11.67C14.69,48.36.52,60.07.64,75L.5,366.56H966.42V92.38C966.63,79.79,953.38,74.55,945,80.69Z"/>
    <path d="M966.42,366.56V133.17c0-13.7-18.45-19.07-30.54-12.49,3.85-18.14-18.51-30.48-29.88-22.1,3.66-23.78-23.68-35.21-42.68-17.07.83-22.93-37.19-29.88-47.56-9.15C806,49.8,767,62,769.42,82.73c-12.81-12.81-35.37,2.44-26.67,20.44-15.91-15.48-43.84-3.07-43.08,18.84-2.31-21.39-23.51-30.19-41.64-16.5-5.15-26.1-36.7-37.48-57.53-12.57-3.48-15.08-23.13-17.67-31.56-2.55-20-20.81-52.6-14.08-53.15,20.77-18.58-9-43.93,5-37.37,30.88-5.52-18.15-24.66-25.39-38-13.86-2.66-15.15-20.76-21.88-33.2-12.84-10.32-23-37.22-24.55-49.43-2.11C342.3,96.7,310,107.86,308.85,133c-9.73-7-22.66-2.38-24.59,9.78,1.93-26.12-22.38-41.64-43-32,8.77-19.95-8.81-32.36-25.07-21.81-.74-22-35.46-35.9-55.66-13.63-10.31-11.92-35.66-13-41.47,7.28-17.46-18.69-52.11-13-52.23,19.53C53.09,95.78,29.63,101,35.61,127.64,17.83,125,.6,137.2.5,155.34V366.56Z"/>
  </g>
</svg>
