<svg viewBox="0 0 348.43 246.86">
  <path class="shadow" d="M138.21,199.24c-21.24,5.5-28.79-5.06-35.47-9.92-2.81-2.26-8-.75-10.34-6.33,16.59-3.69,35.14-16.2,35.18-30.69-9.92,10-22.27,14-36,14.55-1,.8,2.5,5.11.54,6.59a17.92,17.92,0,0,1-5.81,2.38c-2.37,1.1-4-5.7-4.4-7.74s-3.25-1.48-4-1.51c-2.38-.1-.87-4.53-1.94-8.84-10.14.43-23.28,8.6-29.33,8.62-13.63.06-19.18-12.71-16.85-19.3,7.36-20.8,31-27.44,33.7-29.05,16.36-9.65,4.93-20.44,12-27.61,5.25-7.71,20.34-11.16,19.7-13.53C91.74,64.14,97,61.72,99.07,60c5.82-4.74,12.08-1.29,17.78-6.38,10.47-6.56,55.54-62.41,96.83-51.83,21.45,5.5,29.32,22.54,20.7,35-2.29,3.33-13.25,20.39-13.59,37.35,7-2.51,17.7-5.47,23.62-3.46,11.65,4,6.31,15.61,3.24,16.69-10.45,3.68-10.56-6.9-7.92-8.39-8.25,0-20.54,15.72-17.39,19.46,4.83,4,6.12,10.71,2,15.77,14.85,14.13,104.89,14.78,123.54,132.09H77.72c-3-2-16.5-10.13-23.29-13.37-2.59,6-11.43,3.67-11.64-.11-.18,0-3.53-1.14-4.1.76-.22,3.45-12.4,3.56-10.35-2.16,0,0-4.53-1.08-5-.09-3.17,6.35-15,1.6-12.66-2.5,0,0-8.19-1.5-9.15-5.5C1.12,221.79-.13,217,.89,215c2.65-4.88,13.86-18.46,20.35-22.86,2.14-2.29,7.51,1.66,9.57,2.79,2.27,1.18,2.42-2.08,2.61-2.59,2-6.59,17.56-.12,11.52,6.68-3,1.83,3.92,4.69,4,2.16.3-8.52,16-.55,9.24,4.93-1.82,1.64,2.06,3.73,2.7,2,2.6-7.22,15.75-.1,9.61,4.86-1,.68-1.1.93-.23,1.73,5.29,5,40.3,22.08,41.57,22.35,7.29-14,13.54-7.91,19.36-4.89,3.24-22.86,6.84-22.49,6.47-27A24,24,0,0,1,138.21,199.24Z"/>
</svg>
