<svg viewBox="0 0 238.6 212.52">
  <path class="shadow" d="M132.9,122c14.69,7.26,36.12,5.24,44.74-.23,4.48-2.84-.92-7.7-.31-12,12.92-11.52,26.11-5.71,25.75-25.61-.27-15.46-21.53-23.33-49.28-15.74a31.08,31.08,0,0,1-6.36-11.7C145,49,137.51,53,126.46,45.7c-1.64-5.69-1.93-10.21-9.83-11.39-1.9-8.9-.38-13.46,2.69-15.85,5.62,13.71,21-6.71,4.76-9.43-12.67-2.12-15,13.07-16.53,25.08C97.89,28.86,81,5.61,45.56,1c-40-5.24-54,34.52-39.47,51.47,4.7,5.5,21.52,25.43,19.18,29.85C16.37,99,28.86,98.58,27.94,104.7,14.64,131.26,4.78,181.34,2.53,211.9c.39.18,144.46.1,216.09.12,2.21,0,4.67-2.85,5.35-6.92.64-3.57,1.88-2.08,3.66-5.27,4.45-8,1.13-11.33,1.13-11.33,2.36-1.61,4.23-7,2-11-1.28-2.32-5.07-3.68-8.27-5.15,0,0,2.56-7.09,4.25-10.34,5.57,5,10.67-8.54,3.7-8.77.33-1,1-2.57,1.3-3.55,5.71,5.13,9.43-9.11,2.74-8.87.85-3.12,2.83-5.42.85-8.5-1.55-2.41-13.23-15.14-16.64-13.9-3.58,1.3-6.67,1.07-6.68,5-5-6.63-9.62,10.46-1.73,8.35,0,1.39-.21,5.67-.21,5.67-5.32-6.21-9.19,11.73-.56,8.41-.42,9.83-3,15.21-5.61,19.75-8.5-3.69-16.09,7.89-17.17,9.11-2.84,3.82-6.34,7.78-6.75,11.68a10.92,10.92,0,0,1-12.43,9.6c-5.47-.66-8-6.77-15.89-24.21a32.7,32.7,0,0,0,18.83-15.48c1.87-3.67,3.7-1.73,4.94-7,.33-1.37.83-5.52-4.53-5.78-.57-4.43,1.94-6.54-3.47-6.64-7.18-.14-3.46,1.52-4.82,6.92C149,144,137,133.78,132.9,122Z"/>
</svg>
