<svg viewBox="0 0 1640.29 1140.56">
  <path class="shadow" d="M666.64,922.92c-7.16,1.5-14.4,2.74-21.48,4.56a149.71,149.71,0,0,1-25.53,3.79,70.71,70.71,0,0,1-26-2.88c-10.2-3.06-20.39-6.17-30.5-9.5-15.69-5.18-29.08-14.24-41-25.52-6.3-6-13.4-10.93-20-16.46s-14.81-6.31-22.53-8.39c-11.78-3.17-19.06-11.22-25.39-21,3.18-2.42,6.93-2.78,9.92-2.87,7.21-.22,13.45-3.33,19.92-5.49,4.17-1.39,8.36-2.9,12.57-4.29,8.09-2.67,14.68-8.39,22.54-11.39,9-3.42,16.59-9.21,24.24-14.43,13.38-9.15,27.15-17.89,38.91-29.48,10.33-10.19,19.47-21,26.27-33.71,5.75-10.75,9.65-22.13,10-34.48a14.91,14.91,0,0,0,0-3,20,20,0,0,0-1.26-3.21c-46,46.41-103.24,64.78-166.78,67.47-1.23,2.8.25,5,1.14,7.21,1.87,4.56,3.06,9.31,4.5,14a8,8,0,0,1-3.15,9.38c-8.13,5.53-17.49,8.61-26.94,11-5.25,1.33-8.87-1.71-11.45-8.39-3.48-9-6.88-18.06-9-27.51-.95-4.34-3.28-6.36-7.56-5.94-3.61.35-7-.51-10.49-1.12-3.64-.64-5.86-2.85-6.06-6.92-.36-7.51-1.06-15-1.41-22.5-.15-3.21-2.74-6.12.69-10.17-5.43.92-9.08,2-12.74,2.07-9.42.11-18.67,1.78-28,2.49-4.81.37-9.1,2.45-13.39,3.9-9.66,3.28-19.31,6.76-28.7,11-6.66,3-13.11,6.6-19.94,9.1-11.7,4.27-23.35,9-36,10.11-7.94.7-15.78-.46-23.48-2.06-12.12-2.52-23-7.4-32.1-16.35-13.27-13-22.44-28.24-25.2-46.61A48.15,48.15,0,0,1,164,680.88c4.16-10.83,7-22.32,13.79-31.84,4.89-6.89,9-14.24,14.52-20.87,10.94-13.17,24.45-23.32,37-34.49,5.53-4.91,11.61-10,19.24-12.37,4.86-1.52,8.52-5.48,12.91-8.09,6.25-3.71,12.88-6,19.63-8.28,13.84-4.62,26.59-11.31,39.15-18.75a100.24,100.24,0,0,0,20.56-16.05c11.58-11.81,21.07-25.43,23.32-42.72,1.35-10.36.7-20.62.2-31-.66-13.79,2-26.58,11.42-38.27a124.44,124.44,0,0,1,28.4-25.64c5-3.33,10.76-5.51,15.91-8.64a213,213,0,0,1,22-11.48c7.24-3.32,14.36-6.92,21.51-10.47,4.54-2.26,5.66-4.2,3.91-9-2.63-7.17-1.51-14.87-3.53-22-2.32-8.15.3-16.08.55-24,.21-6.81,4.42-13.28,9.55-18.54,7.51-7.7,15.54-14.73,25.56-18.88a76.75,76.75,0,0,1,17.46-5.08c12-1.86,24.24-2.58,35.45-7.62a82.53,82.53,0,0,0,15-9c13.54-10,25.37-21.84,37.19-33.79,8.45-8.55,18.19-15.81,27.37-23.64a19.94,19.94,0,0,0,2-1.52c9.66-10.87,21.26-19.72,31.54-30,13.09-13,27.76-24.27,41.74-36.29,11.69-10.05,24.24-19,35.88-29.06,8.91-7.71,19-14.19,28.91-20.59,14.25-9.17,29.3-17.06,43.82-25.79,12-7.22,23.92-14.56,36.69-20.14A377.13,377.13,0,0,1,911.12,7.35a189.6,189.6,0,0,1,49-6.34c19,.22,38.08,1,56.48,6.47,13.18,4,26.54,7.57,39,13.51A176,176,0,0,1,1099,49.58c8.44,7.69,14.67,16.4,20.07,25.91,6.17,10.88,8.77,22.86,10.37,35.4,2.87,22.36-5.44,41-16.78,59-3.69,5.87-7.87,11.42-11.82,17.12-3.37,4.85-5.23,10.71-8.2,15.87-5.86,10.15-11.29,20.51-16.45,31a48.75,48.75,0,0,0-4.66,13,42.18,42.18,0,0,1-3.68,10.37,120.26,120.26,0,0,0-7.94,21.71c-3.2,12.22-9.45,23.69-10.06,36.46-.43,9.12-1.54,18.32-.23,27.64,10.32-2.71,20.28-6.22,30.52-8.86a324.75,324.75,0,0,1,40.07-8.14c12.95-1.65,26.17-2.29,38.95,1,15.61,4,26.66,13.66,31.47,29.4,2.57,8.43,1.86,16.83-.22,25.53-2.56,10.74-8.81,18.08-17.76,23.37-11.16,6.58-22.52,7-32.58-2.8-4.16-4-8.21-7.85-9.31-13.63a25,25,0,0,1,4.42-19.5c.85-1.22,1.51-2.57,2.26-3.87-2.76-2.51-5.12-.34-7.21.47-9.14,3.55-17.66,8.46-25.92,13.6-5.62,3.5-10.23,8.69-15.09,13.33-10.56,10.08-18.84,22-27,34-2.59,3.82-4.78,7.93-7,12-3.81,6.89-4,12.41,1.61,16.83,10.78,8.55,15.53,20.53,19,32.76,2,7.14.59,15.38-1.26,22.87-1.54,6.23-3.81,12.34-8.24,17.48,7.13,6.72,15.93,9.92,24.39,13.46,23.75,9.95,48.36,17.59,72.47,26.56,10.77,4,21.73,7.51,32.48,11.57,17.22,6.51,34.44,13.06,51.49,20s33.69,15.61,50.6,23.26c14.65,6.63,28.07,15.42,41.63,23.66,12.69,7.71,25.27,16,37.44,24.82,13.25,9.56,26.94,18.55,39.26,29.31,6.67,5.82,13.52,11.45,20.07,17.41,8.21,7.45,16.65,14.82,23.39,23.58,10.34,13.45,23.28,24.62,32.75,38.82,4.6,6.91,9.66,13.57,14.69,20.23A169.77,169.77,0,0,1,1518.59,819c6.29,10.91,13.78,21,20.17,31.9,7.64,13,16.16,25.53,22.82,39.1,5.32,10.84,10.14,21.93,15,33s9.93,22.22,14.46,33.51c6.43,16,12.48,32.16,16.61,49,1.7,6.9,3.8,13.72,6,20.5q6.36,19.77,10.94,40c3.25,14.48,6.05,29.07,9.66,43.46a147.15,147.15,0,0,1,3.27,19.55c.37,3.32,3.09,6.42.88,10.49h-4.79q-617.75,0-1235.5.14c-7.49,0-13.83-1.44-20.05-5.56-13.69-9.1-28.67-16-42.91-24.14-9.35-5.35-18.33-11.34-27.55-16.93-10.73-6.51-21.44-13-32.33-19.28-8.32-4.78-17.22-7.93-25.66-12.23l1.5,2c-2.1,2.59-3.06,5.78-5.9,8.12-9.75,8.08-27.17,10.42-38.43,3.12-4.6-3-8.88-8-8.67-14.74l-1,2c-.83,0-1.67,0-2.5,0-5.63-.22-12.38-3.81-15,5,0,0-.38-.06-.47,0-6.93,6.88-15.67,8.93-25,9.5-6.65.41-12.89-.75-18.49-4.52-7.85-5.28-8.64-7.44-6-16l1-1c-6.16-.67-12.42-.91-18.46-2.18a4.69,4.69,0,0,0-5.37,2.26c-3.38,7-10.16,9.56-16.24,12.77a17.94,17.94,0,0,1-13.49,1.87c-5.26-1.38-10-4-15-5.44-9.27-2.63-13.51-8.4-15-17.27-.3-1.82-1-3.07-3.33-4.24-8.69-4.39-18.26-6.61-26.69-11.65-5.41-3.24-10-6.81-11.35-13.14-1.5-7.29-3.45-14.49-4.18-22-.56-5.8-1.3-12,1.34-16.88a191.58,191.58,0,0,1,16.34-24.57c10.16-13.36,21.55-25.71,32.84-38.13A494,494,0,0,1,97.25,873c4.19-3.57,9.38-5.19,15.46-2.26,9.81,4.75,19.37,10,28.9,15.2,5.34,2.94,9.18,1.51,10.52-4.56.56-2.49.69-5.12,1.57-7.48,3.18-8.57,11.49-12.33,22.94-12.17,10.56.16,19.33,4.41,27.44,10.23,11,7.89,12.13,21.83,3.06,31.91-.79.88-1.76,1.6-2.48,2.52-2.5,3.18-2.16,5.86,1.53,7.38a94.31,94.31,0,0,1,8.92,4.67,7.26,7.26,0,0,0,10.61-4.54c1-3.47.11-7.26,2.37-10.56,5.41-7.87,13.61-8.37,21.52-7.23,8.18,1.18,16,4.7,21.46,11.33,8,9.74,9,18.45-1.51,26.33-2.31,1.73-3.07,3.78-4.09,6.45,3.74,1.56,7.36,3.55,11.23,4.39,1.18.26,4.63,1.26,5.4-1.74,1-3.95,4.42-5.82,7.15-7.85,5.95-4.43,13-6.65,20.36-4.54a35.15,35.15,0,0,1,19.58,13.87c6.24,8.86,4.91,19.18-3.53,25.05-4.53,3.14-4.33,3.63-1.09,8,2.31,3.14,5.69,4.67,8.55,7,18.45,14.85,38.92,26.63,59.64,37.76,18.69,10,37.59,19.78,56.83,28.84,14.62,6.89,28.91,14.55,43,22.48a349.42,349.42,0,0,0,35.09,17.34c5.64,2.39,10.79,6,16.7,7.22.33-.71.52-1.2.78-1.66s.73-1,1-1.51c6-13.08,13.74-24.2,26.87-31.74,13.69-7.85,26.37-8,39.65-.26,6.64,3.87,13.33,7.68,20,11.51l.5,2.5c-1.73-2.34.79-4,1.13-6,1.91-11.35,3.13-22.8,5.8-34,3.22-13.58,5.77-27.28,10.43-40.53,3.56-10.13,7.49-20.07,11.52-30,1.73-4.25,4.92-8.42,3.57-13.44a41.55,41.55,0,0,1-.31-18.49c.83-4.53.79-9.38,3.36-13.52Z"/>
</svg>
