<svg viewBox="0 0 1613.08 1142.1">
  <path class="shadow" d="M639.58,922.6c-98.5,25.5-133.5-23.5-164.49-46-13-10.49-37-3.49-47.91-29.35,76.9-17.14,162.9-75.14,163.1-142.34-46,46.41-103.24,64.78-166.78,67.47C419.08,776.1,435.08,796.1,426,803c-8.13,5.53-17.49,8.61-26.94,11-11,5.12-18.33-26.45-20.4-35.9-1.57-10-15.07-6.83-18.57-7-11-.47-4-21-9-41-47,2-107.92,39.88-136,40-63.19.24-88.92-59-78.11-89.53,34.11-96.46,143.71-127.25,156.28-134.69,75.83-44.77,22.83-94.77,55.49-128,24.34-35.72,94.33-51.72,91.34-62.72-16-59,8.47-70.24,18-78,27-22,56-6,82.45-29.57C589.08,217.1,798.08-41.9,989.56,7.16c99.47,25.49,135.92,104.52,96,162.42-10.63,15.41-61.47,94.52-63,173.17,32.57-11.65,82.1-25.36,109.54-16,54,18.37,29.24,72.36,15,77.37-48.45,17.08-49-32-36.75-38.88-38.25-.12-95.25,72.88-80.62,90.22,22.37,18.66,28.37,49.66,9.52,73.11,68.85,65.55,486.35,68.55,572.85,612.55h-1253c-13.69-9.1-76.5-47-108-62-12,28-53,17-54-.5-.83,0-16.36-5.32-19,3.5-1,16-57.5,16.5-48-10,0,0-21-5-23.33-.42-14.67,29.42-69.67,7.42-58.67-11.58,0,0-38-7-42.42-25.52-1.78-7.44-7.58-29.48-2.84-38.85,12.26-22.63,64.26-85.63,94.37-106,9.89-10.62,34.83,7.69,44.36,12.94,10.53,5.44,11.21-9.68,12.09-12,9.44-30.52,81.44-.52,53.44,31-14,8.51,18.16,21.79,18.58,10,1.42-39.52,74.42-2.52,42.84,22.87-8.42,7.61,9.58,17.31,12.54,9.1,12-33.49,73-.49,44.56,22.53-4.53,3.14-5.08,4.3-1.09,8,24.57,23,186.89,102.36,192.8,103.61,33.77-64.66,62.77-36.66,89.77-22.66,15-106,31.73-104.28,30-125C636.08,938.1,639.58,922.6,639.58,922.6Z"/>
</svg>
