<svg viewBox="0 0 280.8 390.71">
  <path class="shadowLight" d="M106.27,111.16c0-1.94,4.1-.22,12.73-.65,2.16-.11,10.13,12.72,20.59,22.53,1,.76-.76,5.07-1.07,8-.33,1.61,6.78,7.22,8.29,7,1.94-.17,11.65-1.9,14.88-8.58-16.82-10.57-14.66-16.61-22.22-24.25-1.93-1.63-7.75-8.43-3.22-9.61,7.76-1.51,29.11-3.88,35.58-8.62-8.63.64-43.56-6.69-34-19.75.4-.37-2.69-7.43-17.36-8.5C98.44,67.06,104.76,47.33,109.85,46c-3.36-5.55,4.4-8.56,6.91-4.31,21.21-7.49,31.78,3.29,40,1.24,13.59-6.36,6.26-13.47,14.49-17,12.9-6,14.2,3.07,18.52.93,17.46-9.73,14.87-.24,26.62-1.54,7.54-.83,13,8.2,17.49,5.1,1.79-1.25,10.44-13.93,8.6-19.75C230.7,18,230.27-.33,239.54.53c22,2.05,3.82,37.11,3.09,38.17,12.22,5.61,10.07,9.49,16.54,12.39,4.81,1.94,8.11,5.39,8.43,10.57.19,3.13,9.9,5.29,12.7,12l-.21,316.58H130.64s-.49-156.28-1.84-157.86C83,217.69,70,183.4,61.19,180.73c-3-1.43-14.65,10-20.15,8.35-11.76-1.58-13.6-.33-14.86-3C23.46,180.38,12,170,9.17,164.28c-.8-1.37.27-7,0-8.74-12.42-2.76-10.48-18.07-.34-17.86,2.8-1.51-6.26-3.88-4.32-10.78,1.67-5.9,5.18-8.19,11.87-5.61,2.37-2.37-4.32-5,.21-11,5-6.6,12.38-1.74,12.51-1.63,2.37,2.27,6-3.55,10.14-7,1.94-1.74,6.89-.63,8.94-.45,4.63.42,7.23.66,8.62,2.18,2,2.41,5.08,6.24,6.23,7.46,1.31-1.17,3.16-4.24,4-4.42s5.45,5.74,8.27,8.15c.41-.11,2.61-6.68,3.42-6.68s5.8,6.82,6.41,7.69c1-3,2-6.59,2.65-6.39.76-.15,5.3,5.11,8,7.5,1-2.11,1.47-8.13,2.32-7.5,2,1.45,7.47,5.88,7.76,6.47C105.84,115.69,106.27,112.45,106.27,111.16Z"/>
</svg>
