<svg viewBox="0 0 211.56 157.37">
  <path class="cushion" d="M199.11,156.87h-187A11.66,11.66,0,0,1,.51,144.74Q3.18,78.88.52,12.63A11.64,11.64,0,0,1,12.49.52c61.6,1.82,124.56,1.8,186.59,0a11.64,11.64,0,0,1,12,12q-1.87,66.44-.31,132.48A11.64,11.64,0,0,1,199.11,156.87Z"/>
  <g class="cushionCreaseLine">
    <line x1="105.7" y1="1.97" x2="105.7" y2="156.68"/>
    <path d="M158,1.41c1.67,10.17,2.15,36.22-.92,51,4.09,17.76,4.25,35.21,0,52.31,3.63,16.48,3.14,40.85.92,52.13"/>
    <path d="M53.19,1.41c-1.66,10.17-3.13,36.6.93,51.21-4.09,17.75-4.25,35.2,0,52.31-2.95,15.15-3.13,40.66-.93,51.94"/>
    <path d="M210.14,52.8c-15.34-1.29-38.08-2-53-.55-15-1.48-37.62-1.82-51.42.18-16.18-1.85-36.94-2.22-51.54.37C40.08,51,16.79,51.51,1.82,52.8"/>
    <path d="M210.14,104.56c-15,2-39.19,2-52.87.2-14.6,2.2-37.52,2.94-51.6.37-16.18,1.85-36.94,2.38-51.54,0-14.23,1.48-40.29,1.83-52.31-.55"/>
  </g>
  <g class="mapleDarker">
    <circle cx="53.39" cy="52.43" r="4.25"/>
    <circle cx="105.89" cy="52.43" r="4.25"/>
    <circle cx="158.01" cy="52.43" r="4.25"/>
    <circle cx="53.39" cy="104.74" r="4.25"/>
    <circle cx="105.89" cy="104.74" r="4.25"/>
    <circle cx="158.01" cy="104.74" r="4.25"/>
  </g>
</svg>
