<svg class="waitingArmchair" 
    xmlns="http://www.w3.org/2000/svg" viewBox="0 0 1143.51 850.07">
    <path class="cushion" d="M1140.86,88.94c-1.41,9,.77,18.1-1.48,27a4.71,4.71,0,0,0,0,1.5c.73,11-.68,22-1.16,33-.71,16.51,0,33-1.07,49.49-1,15.37-.51,30.69-.74,46-.34,22.5-.59,45-1.25,67.49-1.66,57.18-.41,114.34-.62,171.51,0,15.65-.23,31.35.42,47,.66,16,.08,32,.43,48,.42,19.17.88,38.34,1.51,57.5.51,15.33,1.24,30.65,1.6,46,.43,18,1.16,36,1.42,54,.24,17.19,3.14,34.24,2.52,51.5-.49,13.6-5.62,25.27-14.16,35.42a73.25,73.25,0,0,1-19.35,16.18c-6.92,4-14.4,5.89-22.06,7.38-8.94,1.73-18,1-27,1q-499,0-998,0a58.19,58.19,0,0,1-41.3-16.63A43.62,43.62,0,0,1,7.22,806c-2.11-16.86-1.07-33.67-.92-50.52.23-25.67-.47-51.35.18-77,1.08-42,.48-84,1-126,.2-15.33,0-30.67.39-46,1-38,.62-76,.34-114s-.24-76-1.11-114c-.68-29.83-1.43-59.66-1.94-89.5-.29-17.33-1.27-34.67-2-52-.76-18.34-1.32-36.67-2-55a146.11,146.11,0,0,1,1.69-30,48.36,48.36,0,0,1,14-27.49C31.73,9.89,50.26,4.1,70.36,4.12c29,0,58,1.74,87,2.14,13.15.19,26.34.06,39.5.7,68.81,3.35,137.67,1,206.5,2.11,67.67,1.08,135.34,1.09,203,.65,28.66-.19,57.34-.24,86-.93,18.5-.44,37-.31,55.5-1,26-.93,52-.28,78-1,21.67-.62,43.34-.33,65-1,26-.75,52-1.36,78-2,25.33-.63,50.65-1.84,76-1.91,6.34,0,12.68-1,19-.87,18.57.44,35.93,5.29,50.91,16.54A53.44,53.44,0,0,1,1130.25,37c3.73,7.62,7.36,15.4,8.59,23.95,1.32,9.12,3.58,18.17,2,27.5Z"/>
    <g class="cushionCreaseLine">
        <path d="M849.36,579.44c3,7.2,2.91,15,4.47,22.51,3.63,17.48,8.21,73,8.49,83,.54,19,.51,73.66.12,82-1,20.88-2.6,41.7-4.63,62.49-.68,7-1.95,12-2.95,19"/>
        <path d="M570.36,581.94v266.5"/>
        <path d="M288.86,580.44c1.76,5.23-.46,10.34-.7,15.49-.54,11.86-2.07,23.68-3.31,35.51-4.08,38.91-4.65,78-3.73,117,.5,21.16.8,42.39,3,63.53,1,9.27,2.16,18.6,2.29,28,0,2.84.93,5.67,1.43,8.5"/>
        <path d="M1134.86,567.94c-11.28,1.62-49.32,4.2-58,4.48-27.66.89-55.33,2-83,2.4-19.33.27-38.69,0-58-1-20.2-1-40.34-3.24-60.51-4.8-2.12-.16-4.41-.7-6.5.44"/>
        <path d="M1134.86,282.94c-21.17-1-42.33-2.19-63.5-2.91-9.34-.32-18.67-.6-28-1-33.48-1.59-67-1.29-100.5-.92-16.34.18-32.69,1.43-49,2.76-8.36.69-16.66,1.71-25,2.61"/>
        <path d="M275.36,567.94c-11,1-22,2.68-33,3.76-30.8,3-61.63,3.8-92.53,4.41-18.19.37-36.34-.57-54.5-.88-14.65-.25-29.32-1.31-44-2-14-.61-28-2.51-42-3.84"/>
        <path d="M286.36,9.44c-1.33,13.33-3.11,23.64-3.87,37-.74,13-1.78,26-2.63,39-.81,12.33-1.56,24.67-2.62,37-.15,1.65-.7,36.35-.29,52,.46,17.4,2,34.71,4.16,52,1.9,15.36,5.55,30.31,8.25,45.47"/>
        <path d="M273.36,283.94c-12.57.17-24.94-2.2-37.49-2.79q-21.24-1-42.5-1.88c-17.68-.73-35.34-1.07-53-.76q-32.78.58-65.51,2.74c-18.7,1.23-37.3,3.42-56,4.79-3.32.25-6.63,1-10,.9"/>
        <path d="M851.86,8.44c2.71,17.39,3.31,35,4.58,52.49,2.52,34.8,5.08,69.62,3.72,104.5-.69,17.83-.76,35.7-2.53,53.54-1,9.6-1.61,19.3-2.34,29-.5,6.51-1.86,12.94-2,19.51"/>
        <path d="M570.36,10.44v260.5"/>
        <path d="M287.35,301.44c-2.65,16.83-5.9,33.6-7.81,50.52-1.71,15.08-2.63,30.27-3.45,45.46s-.83,30.36-.56,45.52c.24,13,1.55,26,2.61,39,.82,10,2.24,20,3.35,30a362.93,362.93,0,0,0,6.86,38.52"/>
        <path d="M850.36,300.44c2.77,5.33,2.82,11.32,3.88,17q3.35,17.9,5.54,36c1.52,12.46,2.05,25,3.69,37.47,1.45,11,1,22,1.59,33,.72,14.28-.52,28.66-1.26,43-.5,9.51-1.48,19-2.47,28.5a388.33,388.33,0,0,1-7.55,47.48c-.85,3.72-.12,8-3.42,11"/>
        <path d="M569.86,301.44c1.06,1.58.47,3.34.47,5q.06,123.26,0,246.5"/>
        <path d="M556.36,568.94c-8.35.83-16.68,2.08-25,2.84-13.68,1.26-27.24,3.51-41,4.23-17.66.91-35.3,2.1-53,2.64-18,.55-36-.25-54-.44-18.55-.2-37.06-2.46-55.49-4.81-7.53-.95-15-2.29-22.51-3.46"/>
        <path d="M836.86,568.44c-21.49,2-42.83,5.57-64.5,6.12-14.35.36-28.65,2.3-43,2.77-17.32.56-54,.11-55,.11-23,0-45.73-2.5-68.49-5.05-6.37-.71-12.68-1.95-19-2.95"/>
        <path d="M553.86,283.44c-21.68-1.61-43.21-5-65-5.56-23.83-.65-47.63-2.8-71.5-2.38-21,.37-42,.84-63,2.08-16.54,1-33,3.19-49.51,4.86"/>
        <path d="M834.36,282.94c-12-.89-24-1.83-36-3.33-4.59-.57-9.31-1-14-1.15-19.33-.72-38.71-.72-58-2.18-26.38-2-52.69,0-79,.43-19.53.29-39,3.06-58.51,4.73"/>
    </g>
    <g class="button">
        <circle cx="287.36" cy="283.94" r="23"/>
        <circle cx="571.36" cy="283.94" r="23"/>
        <circle cx="853.36" cy="283.94" r="23"/>
        <circle cx="287.36" cy="566.94" r="23"/>
        <circle cx="571.36" cy="566.94" r="23"/>
        <circle cx="853.36" cy="566.94" r="23"/>
    </g>
</svg>
