<svg viewBox="0 0 277.72 341.06">
  <g class="khari">
    <g class="khariSweater">
      <path d="M180.16,89.92c18.91,1.88,34.98,10.33,29.87,28.85-3.03,10.98,2.82,13.95-3.62,23.14,2.22,4.23,2.57,9.98,.04,14.51,1.03,2.06,1.03,3.9-.19,5.48,3.18,1.84,1.63,5.37,3.25,7.25,0,0,7.67,2.78,7.05,9.09l-15.12,11.81c-4.27-.93-7.78-2.5-9.54-5.57-3.25-1.31-6-2.99-7.18-5.86-2.4-.8-4.1-2.6-5.2-5.29-2.14,2.65,.31,5.73-1.7,7.09,1.07,2.49,.32,5.68,.09,9.35l-85.62,11.1c-4.37-1.35,2.21-11.4,1.38-17.29l1.12-79.44c16.62-29.01,21.56-33.04,55.7-21.9l29.66,7.68Z"/>
      <path d="M103.5,152.12c1.99,7.45,5.83,6.72,5.14,13.24,2.29,.99,3.71,2.61,4.55,4.65,14.63,12.06-15.22,30.05-21.05,9.09-5.43-6.09,3.43-16.68,11.37-26.98Z"/>
    </g>
    <path class="khariShirt" d="M178.18,103.29c-17.72,23.07-28.79,18.12-35.88-5.01l35.88,5.01Z"/>
    <g class="khariSweaterTrim">
      <path d="M175.25,105.02c-6.2,5.6-12.06,9.84-18.15,11.01-5.07-3.63-9.01-9.21-12.37-15.79-1.96,.01-3.9,.67-5.99,1.78,3.36,8.2,9.1,13.82,17.08,20.01,8.83-2.29,16.94-6.18,25.16-13.92-2.26-3.01-3.92-3.57-5.73-3.09Z"/>
      <path d="M121.42,183.22c-1.29-2.04-4.46-4.06-5.68-6.54-8.36-4.82-21.01,1.18-16.08,9.97l21.76-3.43Z"/>
      <path d="M215.89,176.15c-5.68-7.93-24.56-.58-15.86,9l15.86-9Z"/>
    </g>
    <g class="khariCollar">
      <path d="M184.11,113.14c-7.85-14.35-8.63-6.56-18.11-4.66,7.7-5.54,11.55-12.8,10.83-22.88,7.84,3.3,7.87,15.14,7.27,27.54Z"/>
      <path d="M152.6,81c-7.02,2.36-14.33,12.86-17.43,23.18,6.91-4.6,11.61-6.12,18.65,.65-7.49-7.75-8.43-15.66-1.22-23.83Z"/>
    </g>
    <g class="khariShorts">
      <path d="M204.13,227.08c21.75-5.01,33.38-14.04,34.84-18.54,1.51-4.61-2.7-5.49-4.18-11.14-1.37-5.26-9.79-15.45-44.62-9.1l13.96,38.79Z"/>
      <path d="M154.57,235.18c-28.73,0-62.27-11.53-62.27-34.3,5.35-5.45,36.68-9.59,54.67-12.49,4.41-2.5,8.44,.86,13.81-.15,7.05-1.32,18.22-.29,24.69-.44,12.2-.28,14.25,9.85,18.66,18.66,2,8.11-24.15,24.73-49.56,28.72Z"/>
    </g>
    <g class="eye">
      <circle class="sclera" cx="165.78" cy="51.61" r="23.45"/>
      <g class="irisDarkBrown">
        <ellipse cx="177.34" cy="57.16" rx="3.67" ry="3.5" transform="translate(46.04 189.36) rotate(-63.06)"/>
        <ellipse cx="152.88" cy="44.73" rx="3.67" ry="3.5" transform="translate(43.74 160.75) rotate(-63.06)"/>
      </g>
      <g class="pupil">
        <ellipse cx="177.12" cy="57.05" rx="1.43" ry="1.36" transform="translate(46.02 189.1) rotate(-63.06)"/>
        <ellipse cx="152.66" cy="44.62" rx="1.43" ry="1.36" transform="translate(43.72 160.5) rotate(-63.06)"/>
      </g>
    </g>
    <g class="skinBlack">
      <path d="M179.86,84.08c-2.36,13.99-6.03,24.66-20.23,25.79-13.29-10.13-16.07-19.52-8.44-31.78"/>
      <path d="M201.37,207.49c-2.36,.69-6.36,1.02-11.34,2.04-6.77,1.39-15.36,6.56-16.42,11.37,4.83,45.33,22.37,49.94,22.5,80.94-.17,20.87,20.38,12.59,23-2.23-9.87-25.82-9.25-65.16-17.74-92.12Z"/>
      <path d="M237.36,206.47c-2.66-1.06-7.56,.86-12.52,2.07-7.57,1.85-14.35,.81-16.82,6.74,.7,34.77,15.99,45.35,13.69,79.98,9.05,18.48,18.08,15.06,24.79,.41-3.99-6.17-4.47-66.8-9.14-89.2Z"/>
      <path d="M211.86,175.05c-4.89-.62-11.33,2.87-12.72,8.77-.39,3.26,.78,9.23,2.56,11.25,2.02,2.4,2.31,6.53,4.42,6.05,4.34-1.47,3.12-7.56,1.49-9.27-.61-.63-.95-2.06-.95-2.76,1.78-1.71,4.96-3.26,7.29-2.17,1.4,1.94-.47,6.75-.85,9.31-3.41,2.79-4.42,8.53,0,8.69,2.95-3.8,5.86-4.56,7.21-8.92-.18,1.22-.3,2.15-.31,2.56-3.26,5.04-2.33,9.15,2.02,8.53,1.55-.85,1.24-3.18,2.48-4.73,1.16,3.18,5.27,3.1,5.9-.47,1.29,.93,3.26,.39,4.11-1.47,2.87-10.47-1.4-9.39-3.65-12.64-1.09-4.73-3.05-3-3.66-6.59-.84-4.89-4.87-2.33-6.89-4.27-1.94-3.1-4.79-1.4-8.46-1.86Z"/>
      <path d="M159.33,11.86c25.82-21.92,71.11,31.44,45.29,53.36,5.17-5.19,10.54-.71,6.35,5.67-4.77,7.26-7.82,7.16-10.27,9.78-2.77,2.96-6.25,1.74-6.35-.75-9.54,11.9-20.48,14.74-26.83,15.25-6.8,.55-10.49,2.14-13.6,1.57-5.8-1.06-12.38-4.32-14.52-10.21-1.95-5.35-1.53-7.7-2.75-11.74-6.31-21,6.2-31.26,6.5-34.86,.32-3.82,5.29-14.39,8.92-19.62,1.8-1.5,4.43-4.75,7.26-8.45Zm.05,35.76c-2.34-3.43-7.18-6.02-10.33-5.62,1.61,3.61,5.84,4.35,9.22,5.64,.45,.17,1.75,.93,1.11-.02Zm14.25,7.73c2.92,2.25,6.62,4.55,10.16,4.4-3.32-3.98-6.54-5.58-10.8-5.3-1.14,.07,.26,.61,.64,.9Z"/>
    </g>
    <g class="soleLightTan">
      <path d="M276.92,317.39c.51,.76,.91,2.77,.07,3.29-8.75,5.43-29.08,6.85-39.84-.71l-17.02-14.4"/>
      <path d="M238.3,324.75c.57,1.12,.36,2.68-.55,3.39-6.06,4.76-26.6,4.65-30.28,1.15l-10.78-10.42,41.62,5.88Z"/>
    </g>
    <g class="khariShoe">
      <path d="M234.69,303.21c-1.5-3.86-1.55-8.81,1.26-9.68,5.14-1.59,12.06-2.59,13.49,0,11.07,20.15,28.85,10.78,27.48,23.86-.31,3-16.73,6.37-27.36,4.64-8.21-1.34-18.63-8.45-29.43-16.46l2.36-10.31c4.08,4.48,7.89,6.89,12.2,7.95Z"/>
      <path d="M196.11,301.84c.96,4.67,3.5,7.47,6.24,8.99-1.23-7-1.29-12.44,2.27-13.72,6.55-2.35,16.65-2.08,17.97,2.46,4.73,16.27,18.73,14.85,15.7,25.35-1.05,3.66-22.79,6.29-28.57,2.36-3.21-2.18-13.05-8.42-13.05-8.42-1.97-5.68-1.93-11.35-.57-17.03Z"/>
    </g>
  </g>
  <g class="liz">
    <g class="lizJeans">
      <path d="M57.92,203.53c9.2-7.66,20.96-6.26,34.84,2.58,23.82,4.4,49.59,11.84,60.4,21.19,1.57,1.56,5.21,.68,5.18,3.43,17.17,10.1,33.87,21.8,46.82,28.06l-10.28,15.34c-22.77-7.95-45.41-10.21-57.1-18.76l-79.86-51.83Z"/>
      <path d="M10.2,193c48.3,8.68,93.5,18.19,115.1,39.2,6.18,6.01,25.49,37.06,39.05,60.94l-16.34,11.17c-12.31-15.23-34.51-26.04-40.28-42.45-2.95-.87-1.23-2.72-1.86-3.48-2.61,1.95-3.8-.83-4.51-.92-2.46,2.21-3.72-.36-4.86-.46-71.22,1.04-107.19-12.95-86.31-63.99Z"/>
    </g>
    <g class="lizJeansCuff">
      <path d="M203.15,257.79c1.99-1.76,8,1.8,7.66,3.97l-11.97,15.96c-1.4,.9-5.91-2.4-5.28-4.05-.16-1.92,8.1-14.99,9.6-15.88Z"/>
      <path d="M163.25,291.19c1.77-.53,5.43,4.13,4.71,5.46,1.48,7.98-9.61,17.1-18.2,12.13-1.49,.22-4.67-5.32-3.64-6.7,2.66,.83,15.87-6.77,17.13-10.89Z"/>
    </g>
    <g class="soleLightTanDark">
      <path d="M259.38,267.99c1.05,1.71-12.37,14.39-24.47,19.48l-5.12,1.45c11.93-10.23,25.6-23.19,29.59-20.93Z"/>
      <path d="M232.12,291.88l5.09-1.6c-3.64,3.89-12.62,11.26-14.54,10.9-1.34-2.91,3.35-6.27,9.44-9.3Z"/>
    </g>
    <g class="soleLightTan">
      <polygon points="234.9 287.47 237.22 290.28 232.12 291.88 229.79 288.91 234.9 287.47"/>
      <path d="M212.03,321.74c.55,1.37,.87,4.05,.6,4.75-1.9,4.91-17.98,12.04-29.13,9.25-4.62,3.01-12.35,5.96-15.05,4.83-2.67-1.5-5.25-5.53-7.3-9.01l50.87-9.82Z"/>
      <path d="M257.82,264.97c.88,.58,1.56,1.74,1.56,3.02-5.43-.61-15.48,15.77-29.59,20.93l2.34,2.96c-3.8,2.53-9.67,8.08-9.44,9.3-3.37-.79-6.06-2.98-9.44-5.35,6.41-12.11,35.14-33.58,44.58-30.85Z"/>
    </g>
    <g class="lizShoe">
      <path d="M149.76,308.78c1.62,.68,3.96,.43,5.54-.73-1.04-5.28,8.83-5.35,12.65-11.4,2.46,3.81,6.16,7.39,9.69,9.09,6.56,3.17,10.52,6.76,16.26,8.85,6.71,2.45,13.92-.66,18.12,7.14,.36,5.74-17.1,13.52-28.09,11.05-9.56-2.15-18.77,.89-22.79-1.23-5.9-5.65-2.82-14.34-11.39-22.78Z"/>
      <path d="M202.44,269.93c-1.25-5.45,4.38-6.52,8.37-8.18,1.94,3.31,6.99,5.38,9.34,4.77,6.47-1.67,17.12,.09,18.32-1.05,6.21-5.86,17.82-5.88,19.35-.51-7.01,1.17-16.56,14.69-22.78,18.01-5.84,3.11-17.13,7.88-21.8,12.85-5.55-4.87-6.62-13.04-14.41-18.1,0-2.63,1.68-5.51,3.6-7.79Z"/>
    </g>
    <path class="lizShirt" d="M85.75,97.99c2.09,1.67,6.44,1.04,10.04,5.37,1.09,1.31,6.19,2.19,10.18,11.35,1.11,2.54,4.27,3.94,5.58,8.44,.67,2.89-6.31,.26-7.75,28.82,.16,5.89-3.45,11.96-8.43,13.97-.11,1.39-.68,2.36-1.82,2.81,.08,2.41-2.36,5.07-3.23,7.69-.13,6.08,2.41,12.24-2.73,19.03,2.06,1.19-.48,3,.43,5.18,.73,1.81,4.36,3.18,5.16,5.1-7.25,1.51-17.34-1.42-17.95-4.76-1.51,.12-3.4,.02-4.95-.15-1.05,2.23-2.41,4.12-4.06,5.78-9.74-3.92-18.99-2.71-28.32-4.66-9.79-2.05-18.37-8.29-29.09-7.21,.78-2.38,1.73-6.47,4.33-8.79-1.29-8.17,2.23-4.02,6.71-16.77-2.66-8.74,6.96,6.19,4.99-62.26-1.31-1.27,2.99-5.75,5.89-8.99-.21-2.19,1.24-3.02,3.54-3.17,3.35-7.52,30.46-2.81,51.49,3.23Z"/>
    <g class="lizShirtCollar">
      <path d="M80.56,112c3.61-.54,6.61-5.06,8.06-4.68,.89,.23,1.41,4.6,3.24,8.2-1.52-7.18,.06-11.33-3.9-17.56-2.88-4.54-25-9.17-25.48-7.54l3.68,18.62c2.63-2.93,4.55-10.02,7.83-8.45,4.89,1.44,6.57,11.42,6.57,11.42Z"/>
    </g>
  </g>
  <g class="clothesDisplayLine">
    <path d="M237.15,317.91c-2.62,3.17-18.05,5.01-24.34,2.27-3.08-1.34-7.95-5.95-10.45-9.35"/>
    <path d="M272.55,309.73c-4.26,3.07-17.48,4.75-21.17,3.63-5.36-1.63-11.13-5.84-16.68-10.15"/>
    <path d="M150.03,301.19c-.34,1.7,2.99,6.98,4.21,7.46"/>
    <path d="M147.33,302.07c-.15,1.36,2.77,6.58,3.98,7.07"/>
    <path d="M196.34,267.6c.21,1.39,3.46,4.17,4.88,3.93"/>
    <path d="M194.53,270.99c.19,1.45,3.64,3.96,4.88,3.86"/>
    <path d="M73.26,201.03c.66,2,1.2,3.87,1.01,5.91"/>
  </g>
  <g class="clothesOverlapLine">
    <path d="M189.97,130.92c-.81,5.44-2.83,11.65-5.49,15.85-.91,1.43,2.36,5.41-2.09,9.43-.26,1.83,3.05,5.76-3.05,9.95-1.66,2.97,2.79,4.02,.2,7.19"/>
    <path d="M116.63,109.9c-1.74,4.09-2.45,10.69-4.87,14.51"/>
    <path d="M159.63,109.87c-1.9,.23-3.6,1.59-4.18,4.88"/>
    <path d="M77.37,207.86c.73-.98,1.65-1.88,2.8-3.11"/>
    <path d="M155.3,308.05c.48,3.06,4.21,7.28,5.78,11.39"/>
    <path d="M202.44,269.93c.79,3.84,4.36,6.09,7.78,9.83"/>
    <path d="M85.99,138.08c-.92,12.56-7.44,21.55-11.23,33.15-3.03,9.27,2.94,19.99-3.14,29.74"/>
    <path d="M80.56,112c1.29,2.95,2.33,5.73,3.14,8.35"/>
    <path d="M96.25,123.25c1.42,.5,2.59,1.22,3.4,2.25"/>
    <path d="M83.34,198.3c-11.92,7.98-29.39-3.69-41.92-6.22-7.74-1.57-8.57,1.79,.9,4.26"/>
  </g>
  <g class="clothesFoldLine">
    <path d="M184,116.71c2.74,3.83,6.54,9.73,5.97,14.21,3.42,2.07,3.88-6.99,6.64-12.08"/>
    <path d="M118.22,103.07c2.89-4.29,5.21-.57-1.59,6.82,2.11,.12,6.39-2.92,10.93-4.5"/>
    <path d="M103.98,100.29c.63,4.81,1.99,9.08,4.55,12.49"/>
    <path d="M129.04,128.77c5.23,6.41,11.3,11.1,18.52,13.4"/>
    <path d="M126.15,134.4c3.62,2.78,7.28,5.25,11,7.28"/>
    <path d="M108.67,162.92c10.76,8.32,27.57,9.47,20.04,12.82"/>
    <path d="M124.08,150.35c13.85,8.26,28.97,8.59,22.16,11.09"/>
    <path d="M177.83,180.42c-2.89,1.94-10.83,1.12-9.34,4.09"/>
    <path d="M179.33,166.14c-9.02,5.72-30.93,3.49-45.9-2.05"/>
    <path d="M179.53,173.33c-13.93,6.8-31.02,1.14-31.55,3.99-.44,2.37,4.77,3,11.99,3.31"/>
    <path d="M182.38,156.19c-3.76,3.12-11.59,3.18-9.79,5.87"/>
    <path d="M182.78,150.28c-12.25,5.23-24.53,6.05-36.85,1.42"/>
    <path d="M193.93,116.17c-1.78-2.62-3.37,.23-2.83,5.99"/>
    <path d="M204.16,134.72c-2.35,5.04-6.06,7.79-11.69,7.26"/>
    <path d="M189.33,154.53c5.14-5.67,14.35-3.72,17.12,1.89-3.3-3.51-11.19-3.84-15.53-.74"/>
    <path d="M195.36,157.1c-3.13,.33-5.94,.98-7.71,2.66"/>
    <path d="M190.13,161.35c4.7-2.48,12.67-2.3,16.13,.55"/>
    <path d="M188.54,168.53c-2.83,1.51-5.26,5.91-3.81,10.1"/>
    <path d="M201.91,164.36c2.92,.18,6.14,1.39,6.95,3.51"/>
    <path d="M188.01,177.65c3.69-.32,1.33,3.37,3.9,6.83"/>
    <path d="M113.19,170.01c-3.64-1.97-7.35-2.35-10.78-.7"/>
    <path d="M108.64,165.37c-1.23-.52-3.16-.49-3.78-.23"/>
    <path d="M146.97,188.38c-4.86,2.45-7.58,4.9-12.15,6.43"/>
    <path d="M161.35,196.62c-5.42,2.88-11.08,8.07-16.89,14.9"/>
    <path d="M169.25,199.07c-2.8,9.35-8.24,18.97-16.38,28"/>
    <path d="M194.5,198.16c-1.9,3.72-4.97,6.96-9.45,9.63"/>
    <path d="M174.52,226.68c-6-7.36,.45-19.42,7.63-27.16"/>
    <path d="M169.61,223.86c-2.45-6.81-.46-17.26,1.36-17.17,1.18,.06-.57,5.6,0,7.63"/>
    <path d="M179.61,197.89c-3.54,2.63-4.1,7.65-5.81,7.08-2.1-.7-1.35-6.2-.45-10.45"/>
    <path d="M209.03,205.88c-1.35,2.4-1.89,4.8-.82,7.18"/>
    <path d="M208.99,195.04c.74-1.56,1.6-3.07,2.5-4.42"/>
    <path d="M206.86,215.69c-3.79-7.18,.06-9.15-.07-12.53-.03-.75,.05-1.58,.23-2.45"/>
    <path d="M31.93,200.24c-2.41,.99-5.09,2.23-6.67,3.17"/>
    <path d="M34.77,201.16c-3.66,1.5-7.55,3.48-10.47,5.31"/>
    <path d="M30.49,206.07c-6.33,3.75-12,8.26-16.81,13.75"/>
    <path d="M40.88,202.49c-5,3.12-9.69,6.62-13.2,10.18"/>
    <path d="M44.38,202.91c-5.72,3.61-10.91,7.87-14.77,12.65"/>
    <path d="M44.24,207.52c-6.67,5.46-12.87,12.07-18.33,20.51"/>
    <path d="M53.24,203.68c-5.64,4.73-10.51,10.27-14.39,16.22"/>
    <path d="M55.96,204.01c-6.63,6.24-12.62,13.02-16.46,19.51"/>
    <path d="M101.37,257.46c.09-2.26,1.32-4.59,2.46-6.92"/>
    <path d="M99.51,256.09c.78-3.54,2.15-7,3.92-9.73"/>
    <path d="M105.88,258.39c2.24-4.03,6.26-7.53,10.41-10.98"/>
    <path d="M104.15,256.89c1.53-2.62,3.31-4.72,5.23-6.51"/>
    <path d="M107.74,261.87c1.65-.22,6.39-3.37,9.6-4.17"/>
    <path d="M108.41,259.47c2.01-.39,5.71-3.06,8.52-3.86"/>
    <path d="M137.36,285.84c7.24,4.66,14.51,6.83,21.79,5.47"/>
    <path d="M191.72,265.42c-2.25-1.21-11.26-.64-14.23-.16"/>
    <path d="M158.34,230.73c-2.03,.53-3.7,1.81-4.98,3.88"/>
    <path d="M155.54,230.03c-1.75,.75-3.18,2.12-4.34,4.02"/>
    <path d="M139.05,238c-1.54,1.95-2.95,4.3-4.22,7.1"/>
    <path d="M136.56,238.16c-1.17,1.37-2.2,3.01-3.05,4.96"/>
    <path d="M30.73,97.94c2.03-.16,4.01,.6,5.95,2.13"/>
    <path d="M34.27,94.77c4.47,0,8.44,6.44,5.39-.39"/>
    <path d="M34.02,150.08c5.47-.16,11.46-.6,16.15-5.26"/>
    <path d="M52.23,146.83c-1.98,3.21-5.58,4.39-8.78,6.18"/>
    <path d="M26.33,176.31c.93-1.24,6.01-.65,9.75,.65"/>
    <path d="M19.85,169.19c3.12,9.17,13.58,13.13-1.16,10.85"/>
    <path d="M25.63,164.11c3.36,3.41,8.69,9.22,2,7.37"/>
    <path d="M20.1,184.65c3.14-.6,8.24,.7,9.75,4.12"/>
    <path d="M13.14,185.96c.56,1.99,3.47,2.63,1.43,3.78"/>
    <path d="M71.9,172.3c-2.95-.49-6.29-.33-9.21-.6"/>
    <path d="M71.57,170.13c-4.41-1.81-5.42-1.57-7.26-2.6"/>
    <path d="M77.64,155.39c-2.96-1.12-5.93-2.32-8.89-3.63"/>
    <path d="M77.26,157.29c-3.26-.35-6.44-.94-9.54-1.79"/>
    <path d="M82.95,140.76c-2.63-.14-5.35-.71-8.13-1.63"/>
    <path d="M82.36,138.38c-3.36-1.08-6.6-1.79-8.94-3.2"/>
    <path d="M81.43,136.21c-2.11-1.08-3.85-1.9-5.69-3.09"/>
    <path d="M98.11,110.45c-.39,4.42,.33,9.58,.64,14.15"/>
    <path d="M101.49,113.79c-1.56,3.54-2.44,7.34-1.85,11.71,.26-3.69,1.68-6.67,3.91-9.15"/>
    <path d="M88.85,140.76c-1.1-.18-2.14-.35-3.08-.51"/>
    <path d="M92.49,145.06c-2.75-1.36-5.36-2.6-6.99-2.98"/>
    <path d="M89.31,158.44c-2.34-.78-4.56-1.36-6.65-1.73"/>
    <path d="M88.52,161.46c-2.22-1.06-4.29-1.97-6.15-2.68"/>
    <path d="M81.63,174.72c-2.62-.52-5.09-1.14-7.29-1.93"/>
    <path d="M95.37,165.93c-2.3,.65-4.32,.58-6.1-.18"/>
    <path d="M93.55,168.75c-1.54,.54-2.96,.57-4.28,.19"/>
    <path d="M90.32,176.44c-.85,1.24-.97,2.82-1.59,4.02"/>
  </g>
  <path class="clothesEdgeLine" d="M88.62,107.32c.65-1.91,.47-4.42-.29-7.34"/>
  <path class="skinBlack" d="M129.83,191.79c-.91-4.36,3.73-6.39,4.95-4.1,.16,2.5,1.94,5.98-.3,7.01,1.57,.45,2.86,1.26,1.38,3.82-1.15,1.99-.89,4.73-4.54,5.33-3.25,1.97-1.87,7.32-13.22,6.43,4.7,.87,7.54,9.25,1.64,8.7-3.61-3.06-7.98-3.28-11.04-11.48-1.11-3.22-4.48-5.79-7.87-9.73-2.73,3.06-7.87,2.19-6.78-1.09,2.62-2.4,1.75-5.9,3.83-8.31,1.72-1.99,2.18-3.87,3.06-5.03,3.5-4.59,8.86-4.27,13.12-1.53,2.29,.93,5.09-1.16,10.17,1.84,3.25,1.92,3.04,6.74,5.6,8.15Z"/>
  <path class="hairBlackDark" d="M112.51,98.32c-5.83,.19-7.55-2.81-3.84-3.74-4.12-.52-7.86-3.45-9.83-4.94,26.33-65.15,57.34-48.91,13.67,8.68Z"/>
  <g class="hairBlack">
    <path d="M159.33,11.86c6.51,7.51,34.11,18.6,44.52,22.87-3.62,8.27-5.73,11.51-3.11,21.69,.69,2.7,.09,4.08-1.61,7.61,.78,.3,4.67,1.55,5.5,1.2,1.86-1.87,3.75-2.48,5.2-2.21h0c6.92-9.15,11.43-21.82,9.7-33.1-2.38-15.54-17.19-25.65-33.78-29.04-14.48-2.96-26.91,4.89-33.68,19.45,1.8-1.5,4.43-4.75,7.26-8.45Z"/>
    <path d="M123.22,53.82c-.17,7.71-1.83,18.4-5.52,25.04-1.29,2.31-.14,4.87,2.94,.86-3,11.36-8.07,18.6-14.46,24.17-5.42,4.74,4.75,6.34,13.16-.57-3.29,6.55,7.38,.48,11.68-7.33-3.23,8.34,16.9-6.47,9.66-30.13-2.07-6.76-3.79-10.34-4.79-20.09-1.09-10.55-6.38-13.86-7.54-18.23-2.41-9.11-23.62-24.99-40.38-18.73-7.02-7.61-16.53,3.17-24.79,8.69-11.56,7.74-13.04,21.83-16.24,26.25-12.12,16.73-7.12,41.68-3.01,33.12,2.63,15.58,10.72,22.43,9.8,12.12L123.22,53.82Z"/>
  </g>
  <g class="hairOverlapLine">
    <path d="M80.71,39.35c-3.67-.49-4.27-2.3-1.14-2.66"/>
    <path d="M123.22,53.82c3.55,1.1,3.78-.32,1.97-2.24"/>
  </g>
  <g class="skinIndian">
    <path d="M98.74,87.64c-3.87,.43-10.53,4.62-10.78,10.31-1.77,5.37-5.51,10.07-7.4,14.05-2.36-3.37-2.56-8.02-6.57-11.42-2.87-3.18-13.45-9.23-15.72-12.77,3.52-5.28,7.96-11.43,5.88-28.02"/>
    <path d="M66.22,62.42c-6.07,2.71-6.98-3.31-7.53-4.58-6.18-14.21,10.24-21.69,11.66-12.09,3.41,3.85,5.29,3.15,6.02-.51,1.27-4.88,2.02-4.66,4.35-5.89,3.47,.66,7.26-.43,10.8-2.91-5.21,3.7,12.21,5.08,16.02-3.34-2.44,11.43,5.85,16.31,3.94,10.61,2.4,3.93,7.56,8.46,11.74,10.1-1.28,7.63-3.82,9.9-4.47,13.55-2.1,11.75-8.41,22.5-19.22,25.85-3.32,1.03-6.54,3.82-12.08,2.17-4.53-1.34-5.37-3.45-7.78-5.45-7.57-6.3-10.29-10.53-12.27-16.34"/>
    <path d="M67.26,120.85c18.75,15.08,35.01,39.02,51.9,32.62,6.5-2.46,1.93-17.94-8.38-30.25-1.79-2-10.02,.07-11.14,2.29,.61,.9,.97,1.54,1.16,2.45-7.88-1.36-18.14-7.47-25.6-14.04-5.34-3.44-5.11-16.54-9.27-21.63-1.28-1.57-2.46-4.89-3.7-7.94-1.91-4.67-3.42-5.79-3.71-7.93-.05-1.17-1.6-1.9-2.46-1.7-.99-1.8-3.62-1.8-4.61,.2,2.19,21.16,2.14,46.16,15.8,45.95Z"/>
    <path d="M57.14,122.93c-18.88,15.02-31.3,38.34-50.2,34.76-5.42-1.03-6.72-6.47-6.69-12.74,.03-7.23,12.78-22.79,24.94-38.54,5.32,2.15,14.03,9.63,17.55,14.64,.69-.35,1.73-1.04,2.85-1.79,1.12-1.73-2.8-5.34-2.07-12.41,.36-3.53-.7-6.32-1.77-9.64-.39-1.43,2.1-1.88,3.1-.62-.9-9.24,.24-13.33,.52-18.05,0-.62,1.62-1.4,2.45-.4,0-.5,.14-1.53,.11-2.01-.09-1.5,2.98-2.46,4.25-.53,3.26,.13,3.91,4.06,3.26,6.6,2.6,.83,2.93,4.34,2.08,7.4,.78,3.58,.2,7.3,2.08,10.74,4.69,4.69,4.55,19.25-2.46,22.59Z"/>
  </g>
  <path class="lipMaleDark__noStroke" d="M152.69,69.82c1.36,1.3,3.56,2.21,5.17,2.46,1.28,1.61,5.41,3.66,9.46,5.71-6.02,2.69-8.32,9.37-16.98,5.88-7.87-3.18-2.93-11.97-4.13-16.84,2.71,1.45,4.72,2.68,6.48,2.8Z"/>
  <path class="lipFemaleBrown__noStroke" d="M103.64,81.54c-2.43,2.58-3.89,7.52-11.02,5.33s-5.62-7.88-6.43-11.43c4.48,1.42,14.6,2.61,17.46,6.09Z"/>
  <path class="lipFemaleBrown" d="M103.37,81.3c.25,.25,.56,.46,.9,.55-1.8-2.1-1.39-4.11-3.2-4.24-4.39-.32-5.7-2.59-7.23-2.58-1.93,.02-5.17,.92-8.33,0,.25,.25,.59,.43,.97,.51l16.89,5.77Z"/>
  <g class="mouthInner">
    <path d="M166.1,77.6l-18.83-6.92c-.18,3.97,1.59,5.1,2.86,7.91,.47,1.03,1.48,1.72,3.39,1.72,3.62,0,6.27,1.83,12.58-2.7Z"/>
    <path d="M103.37,81.3c-1.08-.95-2.33-2.7-3.65-2.73-3.94-.11-5.38-2.6-6.93-2.55-1.88,.06-4.1,.01-6.32-.49,2.93,6.39,11.51,11.05,16.89,5.77Z"/>
  </g>
  <path class="tongue" d="M88.33,75.81c-.62-.05-1.23-.14-1.85-.28,2.31,5.03,8.21,9.02,13.15,7.87,.04-.6,.02-1.15-.06-1.64-4,.32-8.87-1.96-11.24-5.96Z"/>
  <g class="teeth">
    <path d="M165.43,77.35c-2.33-.89-4.44-2.07-6.53-2.64-8.72-3.12-8.38-5.02-11.55-6.87-.23,.96-.27,1.9-.09,2.83h0c1.32,6.77,13.36,10.75,18.16,6.69Z"/>
    <path d="M92.8,76.02c-1.36,.04-2.86-.08-4.47-.21,3.08,5.18,10.19,7.42,14.55,5-.89-.99-2.04-2.2-3.15-2.23-3.94-.11-5.38-2.6-6.93-2.55Z"/>
  </g>
  <path class="gum" d="M164.01,76.77c-1.78-.77-3.45-1.6-5.1-2.06-8.2-2.93-8.39-4.79-11.01-6.54,2.11,4.69,9.94,8.48,16.12,8.6Z"/>
  <g class="lipOverlapLine">
    <path d="M147.36,67.84c-.92-.6-1.88-1.27-2.62-2.26"/>
    <path d="M169.09,78.36c-1.04-.16-2.03-.43-2.98-.76"/>
  </g>
  <g class="lipEdgeLine">
    <path d="M157.86,72.27c-1.61-.24-3.81-1.15-5.17-2.46"/>
    <path d="M158.32,83.79c-3.95,2.38-11.98,.13-12.27-5.69"/>
    <path d="M99.88,86.13c-3.01,2.58-10.67,1.07-12.7-3.76"/>
  </g>
  <g class="cheekLine">
    <path d="M106.47,74.85c.14,1.88,1.16,3.42-.48,7.45"/>
    <path d="M96.33,67.77c-3.74,.74-3.32,2.12-6.36,3.04-3.07,.93-4.4,1.39-5.88,3.06"/>
  </g>
  <g class="noseLine">
    <path d="M166.17,65.48c1.44,1.46,.74,4.72-1.82,5.26"/>
    <path d="M155.12,57.86c-1.91,2.09-5.05,2.1-3.73,5.99"/>
    <path d="M152.12,63.91c.76,.31,.04,2.47,3.51,4.23,2.78,1.41,4.61,.12,6.43,1.2"/>
    <path d="M95.36,71.8c-1.61-1.5-.68-3.42,.97-4.03"/>
    <path d="M107.22,57.82c-.87,8.34,3.24,16.37-1.93,17.49-4.29,.93-5.52-4.71-8.86-3.04"/>
  </g>
  <g class="eyeFoldLine">
    <path d="M181.99,62.1c-3.12,.35-7.12-2.55-8.39-4.27"/>
    <path d="M156.83,49.39c-3.3,0-8.01-2.62-8.42-4.36"/>
    <path d="M115.42,64.15c-1.59,.44-3.61-.46-4.61-2"/>
    <path d="M96.44,56.74c-2.2,.47-4.85-.6-6.79-2.42"/>
  </g>
  <g class="eyeLashline">
    <path d="M109.47,59.3c7.32-.23,7.66,4.06,9.65,3.91"/>
    <path d="M84.99,49.77c4.73,4.08,7.3-1.03,14.6,5.63"/>
  </g>
  <g class="eyeCornerLine">
    <path d="M149.05,42c-.66,0-1.39-.29-1.72-.45"/>
    <path d="M187.03,60.78c-1.13,.21-2.52-.41-3.23-1.03"/>
  </g>
  <g class="eyeCreaseLine">
    <path d="M174.46,52.69c5.47-1.73,9.45,2.98,9.91,5.19"/>
    <path d="M149.2,40.46c4.22-1.68,8.39,.69,9.77,4.27"/>
  </g>
  <g class="eyebrowBlack">
    <path d="M176.09,43.88c-2.24,5.29,3.77,5.48,9.37,7.75,.8,.32,1.57,.46,4.41,4.09,.73,1.08,2.16,1.83,1.95,1.18-2.94-8.62-4.34-7.11-15.73-13.02Z"/>
    <path d="M165.2,38.41c-3.15,4.57-5.15,.52-11-2.66-1.41-.77-2.61-.63-5.81-.6-1.14-.07-1.47-.95-.89-1.17,6.62-1.33,4.32-2.94,17.7,4.43Z"/>
    <path d="M85.79,45.95c5.82-2.28,14.82-.87,18.02,2.34,.87,.88-2.26,1.48-3.4,.75-5-3.21-9.13-4.24-14.62-3.09Z"/>
    <path d="M112.61,51.7c-1.24-.07,.8,2.93,2.14,3.16,3.64,.61,5.47,1.62,7.34,3.68,.1-.33,.2-.67,.29-1.03-2.89-3.43-7.12-5.67-9.77-5.81Z"/>
  </g>
  <g class="skinOverlapLine">
    <path d="M113.94,201.4c2.22,3.52,2.38,7.05,4.17,8.86"/>
    <path d="M131.33,203.84c2.31-5.03-5.17-6.35-7.95-.8-1.66,.77-3.07,1.13-3.98,.65"/>
    <path d="M134.49,194.69c-5.57-.41-2.52,6.52-8.81,2.92"/>
    <path d="M120.82,200.54c1.03,1.28,1.21,1.89,1.29,3.02"/>
    <path d="M129.83,191.79c.26,1.28,.93,1.06-.45,2.06"/>
    <path d="M100.84,197.76c1.76-1.46,2-4.5,4.5-6.25"/>
    <path d="M206.71,185.18c-.46,1.3-.35,2.47-.04,3.91"/>
    <path d="M212.28,182.57c1.41,.56,.85,2.12,1.68,4.35"/>
    <path d="M220.32,182.85c.49,4.73,2.61,5.15,0,13.14"/>
    <path d="M226.11,184.82c.85,4.02,3.39,7.27-1.6,17.53"/>
    <path d="M230.87,187.77c2.65,7.22-.1,10.53-.47,14.12"/>
    <path d="M42.74,121.05c-12.74,9.34-26.63,9.25-33.04,17.14"/>
    <path d="M100.8,127.95c5.26,.51,9.85,2.21,13.61,5.34"/>
    <path d="M53.14,98.57c-1.48-8.23-.04-12.65-.25-15.39-.05-.72,1.08-1.36,2.54-.98"/>
    <path d="M52.18,75.6c-1.15,.2-1.88,.55-1.71,1.55,.21,2.85-1.14,11.98-.34,20.76"/>
    <path d="M47.82,78.14c-.16,3.73-1.84,10.97-.38,19.27"/>
    <path d="M44.85,96.6c.1,3.57-.95,6.02-1.33,10.26"/>
    <path d="M65.09,92.89c-3.31-3.36-3.31-6.9-5.3-11.23-.63-1.65-3.16-.58-3.07,1.32"/>
    <path d="M60.2,101.04c.41-4.94-1.34-6.55-2.69-11.44"/>
    <path d="M56.07,74.7c-.96,.06-1.85,.85-2.1,1.49"/>
  </g>
  <g class="skinFoldLine">
    <path d="M102.14,191.19c.71,1.16,.94,2.32,.71,3.48"/>
    <path d="M115.03,200.92c-.88,.55-1.83,.6-2.87,.07"/>
    <path d="M121.58,199.88c-.52,.61-1.15,.97-2.06,.74"/>
    <path d="M203.76,68.6c6.59-6.38,9,.06,2.01,6.16"/>
    <path d="M202.82,70.61c.52,3.36-4.77,4.99-3.45,6.34,1.36,1.39,1.77-2.09,3.7-2.44,3.29-.61,4.99-5.29,2.52-4.75"/>
    <path d="M68.41,48.55c.71-6.61-12.63-5.17-7.32,7.57"/>
    <path d="M66.65,51.38c-1.65,1.34,1.28,5.73-1.66,6.07-1.08,.13-.13-2.44-1.31-3.55-3.09-2.9,1.19-6.52,1.93-4.44"/>
  </g>
  <g class="skinCreaseLine">
    <path d="M115.32,185.37c-.73,5.32-2.81,9.66-7.66,12.01"/>
    <path d="M124.16,189.5c-3.46,.44-8.99,2.58-7.73,8.84"/>
  </g>
</svg>