<svg viewBox="0 0 346.3 450.82">
  <path class="skinEastAsian" d="M47.91,62.55c.34,5.72,4.42,19.74,8.63,16.44C63,95.89,72.35,97.6,80.36,100.53c4.38,1.6,13,.27,16.4-3.22,5.63-5.74,13.72-9,15.32-27.93,5.84-.84,4.3-13.79,2.11-19.12Z"/>
  <path class="hairBlack" d="M40.85,60.48c1.49-.67,3.14-2.72,3.67-5.77,2.91,7.95,6.83,14.87,11.8,19.27,10,8.69,20.9.29,29.94,6.47,3.43-4.68,20.56-5.68,26.09-19.83,2.25-5.75.72-7.59,3.18-17,3.59-13.73-5.87-32-23.23-36.39a10,10,0,0,1,9.45-4.88c-6.38-2.82-10.51,1.17-13,4A11,11,0,0,0,77.49.39C80.58,1,84.4,3.61,84.85,6.3,63.22,4.21,41.73,18,40.22,34.5,38.86,49.39,43.41,50.71,40.85,60.48Z"/>
  <g class="soleWhiteDark">
    <path d="M72.87,435c-1.83,3,2.87,10.83,10.28,15.08,3.39.5,21.79.58,27.15.18C96.63,437.54,82.91,423.86,72.87,435Z"/>
    <path d="M228.09,346.06c-1.85,2.68-8.12.5-11.64,1.8-5.85,2.15-18.63-2.6-17.88-5.37C204.11,328.6,234,336,228.09,346.06Z"/>
  </g>
  <g class="soleWhite">
    <path d="M78,376.68c.67,1.68,1.14,4.8.45,5.84-1.44,1.93-18,5.13-25.19,4.57-7.84-.61-17.29.38-18.91-1.06-2.22-7.2,1.57-12.39,7.54-14"/>
    <path d="M110.48,435.66c2.89,3,6.49,6.13,4.19,13.38-14.65,7.68-27.12-24.19-41.8-14-.15-1.65.9-4.07,1.91-5.53C82.31,420.63,95.8,426.58,110.48,435.66Z"/>
    <path d="M276.93,429.8c-.57,1.85-.79,5.76-.11,6.59,2.55,5,6,4.67,8.06,8,5.77,9.34,31.59,5.95,33.77,3.27,1.38-4.19-2.16-10.3-5-11.21C304.05,428.6,285.7,423,276.93,429.8Z"/>
    <path d="M227.9,331.53a9.41,9.41,0,0,1,.19,14.53c1.44-4.22-12.8-9.72-17.62-9-6.53.9-9.23,2.73-11.9,5.47a11.32,11.32,0,0,1,.09-7.29C208.59,319.81,220.94,321.1,227.9,331.53Z"/>
  </g>
  <g class="bennettShoe">
    <path d="M67.46,348.71c1.15,8.19,9.43,17.19,10.49,28-6.48,3.68-14.87,5.49-25.05,5-5.91-.28-11.07.59-14.89.19-1-13.63,13-7.7,10.76-29.65Z"/>
    <path d="M105.41,412.4c-.29,8.87,1.08,16.69,5.07,23.26a14.2,14.2,0,0,1-.26,9.34c-8.71.54-20.28-23.76-35.44-15.52,4.11-9.23,9.55-15.69,11.63-22.16Z"/>
    <path d="M281.74,402.78c1.58,12.05-4.12,14.34-4.81,27,1.78,3.75,5.75,5.56,8.35,8.31,1.43,1.51,3.55,3.45,6.1,4,2.59-8.26,16.29-8.24,22.22-5.62-5.62-4.87-12.77-18.07-11.94-29.84C305.12,392,287.7,396.14,281.74,402.78Z"/>
    <path d="M231,305.43c-1.49,10.47-4.2,19.73-3,26.1-5.2-4.22-15.16-7-21.26-.67a19.38,19.38,0,0,0-8,4.34c4.38-12.28,9.49-17.84,13-33Z"/>
  </g>
  <g class="shoelace">
    <path d="M292.08,415.74A67.63,67.63,0,0,0,295,430.22c3.14-1.34,9.43-1.27,13.16-.41a46.51,46.51,0,0,1-5.74-13.94A22.72,22.72,0,0,0,292.08,415.74Z"/>
    <path d="M224.47,329.32a46.38,46.38,0,0,1,.54-10.09,21.78,21.78,0,0,0-12.18-4.43c-1.55,3.64-1.72,8-.93,12.86C216.06,326.44,220.74,327.43,224.47,329.32Z"/>
  </g>
  <path class="converseLogo" d="M284.11,429.63c3.69.77,4.37-10.55.77-11.47S280.34,428.85,284.11,429.63Z"/>
  <path class="shirtWhite" d="M209.69,211.34a9.27,9.27,0,0,1-.57,1.71c26.43,8.21,56.64,9.23,77.19-2,.54-.57-.29-1.63-.61-2.83C276.67,211.9,221.76,216.72,209.69,211.34Z"/>
  <path class="bennettJacketInner" d="M160.29,191.54c.88,1.22,20.7-7.34,19.63-9.07C176.56,182.17,163.44,187.31,160.29,191.54Z"/>
  <path class="bennettJacket" d="M208.43,94.46c0-1.72,42.82-2.28,42.85-.56,2.91-2.36,4.56-2.27,7.9-.68,4.17-1.53,3.95-5.28,21.3,4.12,2.22-.77,4.77-.2,7.57,1.33,5.59.23,8.84-1.28,15.26,1,1.71-.93.33-4.95,4.46-6-.12-2.93.88-5.14,3.17-6.54C315.56,81.59,315.11,72,319.5,71c-.39-4.89,3.65-8.07,6.14-13.38,2.36.32,16.88,7.48,18,10.38-10.48,22.19-15.76,45.82-24.35,52.92-6.47,5.35-32.17,3-40.72,5,2.25,4.22.85,6.76,1.38,9.59s2.45,4.48,1.61,7.39c-.33,2.79,1.57,1.71.3,8.27a6.8,6.8,0,0,0,.74,5.38c1.82,2.94.28,9.76,1.64,21.74,4.09,7.46,1.84,9.76,1.66,16.35-.11,4.06,1.72,7.13.87,13-3.79,3.82-68.23,9.78-78.16,3.15-.44-2.19,1.4-4.36,1.19-7.26-3.41-2.9.83-6.14.05-9.35-3.72-3.2-.11-8.44-1.09-12.48-5.63-5.09-.14-10.45-.82-14.16-7.1-4.91,1.86-9.25-3.08-18.56-2.16-3-1.94-7.1-3.23-10.43s-3.42-5.86-4.4-9.59c-11.6,5-15.05,14.65-30.33,17.06,5.85,1.47,2.11,13.19,5.33,19.45,4.63,2.58,3.49,10.64,7.68,17-3.36-.3-16.48,4.84-19.63,9.07a78.39,78.39,0,0,1-6-16.49c-6.11-8.09-13.14-28.33-13.18-32.22-.07-5.69,24.47-24.91,29.69-28.85,2-1.27,1.75-6.06,7.43-5.86,2.38-2.88,4.94-5.27,8.09-6.11,2.61-2,2-7.47,8.34-5.59,1.73-1.71,3.92-2,6.6-.82C203.85,94.72,204.41,91.24,208.43,94.46Z"/>
  <g class="bennettJeans">
    <path d="M315.42,317.57C314,291.58,303,258,293.75,228c-1.63-5.25.3-7.84-3.25-9.62.84-3.35-2.63-4.79-4.64-7.07-20.41,10.89-50.11,9.91-76.23,1.9a61,61,0,0,0,3.28,45.49l33.05.38c2.15-.81.88-2.45,4.14-2.57,9,1.77,19.66,43,26.47,53.07,2.19,3.88-1.94,8.54,3.06,10.29,2.82,1-3.65,3.84,1,6.94-2.8,2.6,1.32,5.7.6,7.91-2,13-2.22,29.59-2.5,47.13-.06,4.08-6.79,11.21.18,14.6,0,2.8-4.15,4.13.7,8.54-2.45,3.52,1.79,3.71,2.59,6.14,3.3-1.66,6.51-2.55,9.55-2.12,1.21-5.16,10.36-5.05,9.82.12,4-2.47,4.94-5.79,3.63-9.71,6.73-3.09,3.16-9.85,4.49-16.26,2.47-11.93,3.39-31.84,6.29-50.56C318.65,327.12,315.77,323.89,315.42,317.57Z"/>
    <path d="M140.26,235.91c-.19-3.94,1.17-6.3-2.33-12.6-8.85,4.39-23-.76-34.39-1.33-16.56-.84-34.24-2.33-46.47-10.52-2.82,3.59-5.56,6.67-6.22,10.73-2,1.31-3.17,3-2.81,5.27-7.36,7.75-15.12,25.48-23.28,43.7-2.29,5.11-5.22,6.45-2,10.59-1,3.58-1,6.76,1.77,8.92-3.65,4.41-.68,6.81.23,9.93C28.6,313.91,39.36,337.92,39.48,342c.25,8.55,6.11,4.52,4.85,9.3-2.62,8.08,16,5.84,24.55,2.37,1-3.61,7.17-6.78,1.4-11.13,4.19-5.19-2.49-7.11-4-11C63.05,323,61,306,57.65,297.23c-1.53-4.05.42-6.84-3.39-7.06-1.84-3.44,4.19-2.51.64-6.15,8-7.44,22.07-14.11,33.31-23.22a15.31,15.31,0,0,1,4.27.41c2.56,21.72,5.33,40.35,8.72,56.42,1,3.09-3.21,6.41.06,8.9,1.34,2.07-3.13,4.24,1.1,8.22-7,12.32-8.74,30.76-13.26,50.28-1.57,6.78-10,14.66-4,19.12-4.48,2.52-2.45,4.77-.24,6.94,6.34-1.39,15,.77,20.56,6.16,4.77-2.35,6.31-5.73,4.8-10.06,6-1.93,3.84-9.15,5.84-15.33,5.15-15.93,11.83-31.13,14.47-51.12,5.19-5.07.76-6.84.79-8.72,5.49-1.47,2.32-5.37,2.66-7.67,3.91-26.65,6-50.93,4.79-65.93a4.79,4.79,0,0,0,.07-5.8c3.24-3,.92-4.53,1.56-6.05C141.68,243.5,140.36,238.15,140.26,235.91Z"/>
    <path d="M250.63,239.25c-5.65,6-1.27,10.73-3.66,17.66-1.46,4.2,0,7.62-4.35,14.85-3.41,5.71-2.63,30-7.66,33.85,1.8,4-5.26,6.51-7.27,10.66a5.08,5.08,0,0,0-1.51-3c1.57-4.94-9.07-8.81-12.07-4.22-1.76.34-3.62,1.57-5.56,3.59-.82-4.74-8.42-8.82-3.66-12.3-6.18-4.1-1.11-9.46.15-13.78,3.83-13.23,5.55-29.41,8.7-46.33-.71-9-.54-19.92,6.76-24.45,12.15-7.54,24.46-9.36,27.68,4.11C249.73,226.38,256,233.6,250.63,239.25Z"/>
  </g>
  <path class="bennettJacketCollar" d="M254.48,107.83c-5.3-3.42-11.87-5.29-15.93-1.72-7.26-3.67-14.47,0-17.66,6.12-6.9-11.21-14.65-19.39-7.45-23.4,6.33-3.53,21.39-3,27.34-1.2C248.16,89.9,251.66,99,254.48,107.83Z"/>
  <path class="bennettHoodieInner" d="M66.94,87c11.82-9,28.88-9.77,43.24-2.52C95.41,88.49,81,89.59,66.94,87Z"/>
  <g class="bennettHoodie">
    <path d="M115.76,91.34c5.69,1.26,13.44,1.35,15.91,6.18,3-.32,7.92-1.07,9.74,3.31,8.46,2.51,13.11,8.25,15.72,9.94,12.47,8.09,33.28,21.88,35.17,29.62,1.44,5.87-10.9,19.06-20.88,22.92-2.57-6.41.54-9.39-3.16-11.49-1.71-1.62,1.56-3-1.35-5.83-.47-2.81-3.09-3.54-5.85-4.4-11.21-1.8-21.08-10.65-25.8-10,1.31,17.34-1.64,29.42-2.15,40.58-.31,2.49,2.41,6.91,1.38,12.17-.17,2.21.29,3.09,1.21,5.12,1.65,3.64-.39,7.13.42,8.94,1.42,3.17,4.72,9.1,1.08,14.29-.33,3.77,1.43,7.78,1.4,10.27-8.8,5-23.34-.38-35.06-1-16.66-.84-34.45-2.34-46.68-10.67,4.13-9.37-.57-30.1,2-33.67-7.39-7.57.12-10-1.08-13.87-2.75-1.75-1.92-4.92-2.23-10.7-.13-2.44-2.06-5.39-1.55-9.16.61-4.54-1.55-9-.25-13.31-1.91-.36-.25-2.64-3.69-4.62-.82,2.12-2.28,1.5-3.64,2.87-2.26,2.27-4.87,5.9-8.39,6.41-1.29,3.45-4.89,3.13-6.75,7.68-.85,2.11-2.09,3.17-6.12,2,1.78,1.82,4.82,2.28,4.11,4.48,2.88,1.84,2.87,6.46,5.44,8.1,3.08,2,4.94,3.79,6,6s7,1.19,7.66,8.4c4.51,5.05,5,4.24,6.16,6.18,1.84,3-8.76,10.73-11.75,8.86-1.58-1-1.9-3.07-5.75-5.75-3,1.1-5.21-.5-7-3.55C21.49,176.09,2.73,157.29.33,149.22c-1.26-10.55,12.31-23.92,24.5-31.86,7.39-4.82,8.08-15.15,18.93-18.34.2-3.3,2.11-3.64,4.75-2.72,0-2.63,3.09-3.84,5.16-3.26,1.6-5.94,6-.76,8.36-3.51Z"/>
    <path d="M118.45,88.13C114.29,78.63,99.84,85,89.66,86c-14.93,1.36-23.72-3.23-28.33,2.72-2.53,3.25,11,27,28.87,27.74C106.83,117.08,120.33,92.44,118.45,88.13Z"/>
  </g>
  <path class="zipperDisplayLine" d="M238.55,106.11c5.3,7.28,8.26,27.85,11.73,49.3,3.17,19.57,2.92,40.65,4.27,57.38"/>
  <g class="clothesDisplayLine">
    <path d="M38,381.89c-1.28-.07-3.4-.06-4.35-.56"/>
    <path d="M291.38,442.11c7.85,3.45,23.88,2.28,26.77-.29"/>
    <path d="M206.64,330.86c9.62-2.56,23.06,4.71,24.77,8.55"/>
    <path d="M110.22,445c1.71,0,3.45.06,5.18-1.3"/>
    <path d="M252.43,219.33c-2,6.65,4.75,11.14,2.37,16.34-2.53,5.55.26,10.14-1.84,13.48s-1.11,5.17-2.86,7.35"/>
    <path d="M260.18,218.77c-1,6.22,4.47,10.47,2.44,14.39s3.08,10.18-8.83,11.45"/>
    <path d="M101.37,227c-1.2,8.8-3.55,17.13-8,24.59"/>
  </g>
  <g class="clothesOverlapLine">
    <path d="M291.78,409c1.06.74.32,4.67.3,6.74"/>
    <path d="M303,418.13a34.45,34.45,0,0,0-10.67.07"/>
    <path d="M303.84,420.69a33.28,33.28,0,0,0-11.13,0"/>
    <path d="M304.75,423.07a32.21,32.21,0,0,0-11.58.07"/>
    <path d="M305.75,425.33a31.35,31.35,0,0,0-12,.27"/>
    <path d="M306.87,427.54a28.71,28.71,0,0,0-12.53.32"/>
    <path d="M224.66,321.6A30.26,30.26,0,0,0,212,317.3"/>
    <path d="M224.48,324a40.24,40.24,0,0,0-12.91-4.11"/>
    <path d="M224.42,326.35a35.18,35.18,0,0,0-13-4"/>
    <path d="M224.39,328.71a31.44,31.44,0,0,0-12.81-3.47"/>
    <path d="M212.83,314.8c.56-2.21,1.62-4.27,1.28-5.75"/>
    <path d="M225,319.23c.39-2.32,1.44-4.35,1.17-6"/>
    <path d="M213.74,240.23c2.16-5.81.6-6.94,3.14-12.29,1.89-4,5-5,9.48-11.57"/>
    <path d="M88.21,260.8a49.62,49.62,0,0,1-17.78-3.86"/>
    <path d="M119.75,261.77c-8.91,2-18,2.29-27.27-.56"/>
    <path d="M275.47,116.29c3,3.6,1.48,7.66,3.11,9.63"/>
    <path d="M220.48,171.45c-4.06,9.7-8,19.35-5.9,26.75"/>
    <path d="M278.85,167.83c1.39,4.16,4.23,8,5.4,10.46"/>
    <path d="M48.43,172c-1.46,3.49-8.47,8.17-11.34,9.29"/>
    <path d="M137.2,212.68c-11,2.13-26.77.16-39.75-1.56-12.15-1.61-23.7-.8-35.73-8"/>
  </g>
  <g class="clothesFoldLine">
    <path d="M290.5,218.37a22.42,22.42,0,0,0-6.07-1"/>
    <path d="M282.52,238.52a105.33,105.33,0,0,0-16.21,1.57"/>
    <path d="M288.35,239.18A86.12,86.12,0,0,0,267.17,244"/>
    <path d="M220.5,223.27c1.57-5.91-3.49-6-4.88,1.67"/>
    <path d="M249.81,235.22c-1.78-13.66-5.12-3.59-2.18,10.33"/>
    <path d="M222,226.83c9-10.76,6.53,1.13-2.52,26.2"/>
    <path d="M243.69,242.8c-2-4.85-1.52,6.72-.88,18"/>
    <path d="M219.58,275.1c-2.25,2.83-4.61,4.75-2.84,8.79,1.56,3.57,0,6.72-7.09,7.32"/>
    <path d="M229.47,274.94c-1,4.85-8.53,3.09-8.17,6.54s9.65,9.64,14.17,13.26"/>
    <path d="M235,305.61c-2.15-5.71-8.51-5.65-.73-5.3"/>
    <path d="M204.89,300.34c5.85-2.37,11.22-2,3-4.87"/>
    <path d="M227.53,308.68c5.1-2.68,1.57-5.53-6.62-6.7-3.72-.54-13.34-.5-8.63,5.22"/>
    <path d="M275.46,293.67c6.14,9.65,14,16.95,21,19.34"/>
    <path d="M312.13,328.91c-3-6.46-2.85,7.09-1.16,20.62"/>
    <path d="M284.89,319.1c9.75-1.44,11.79,1.7-.43,3.5"/>
    <path d="M282.17,329.46c12-6.13,14.35-5.09,4.74,4.86"/>
    <path d="M280.66,326.8c.77-.73,2.73-1.35,4.68-1.85"/>
    <path d="M305.53,392.71c-5.32,4.08-12.68,3.85-20.26-.76"/>
    <path d="M278.94,396.44c5.81,2.49,13.73,5,5.56,6.28"/>
    <path d="M305.23,399.41c-3.84,2.08-15.19.84-12.32,5.22"/>
    <path d="M279.64,405a43.3,43.3,0,0,0,6.5,1.52"/>
    <path d="M50.85,222.19c-1.15,4.25.5,8.26,2.89,12.21"/>
    <path d="M48,227.46c0,3.25.85,7.16,2.54,9.46"/>
    <path d="M138.84,252.62c-1.37,2-3.93,4-7.61,6"/>
    <path d="M136.64,251.08c-6.44,6.2-18.66,9.76-28.06,9.26"/>
    <path d="M138.77,258.42a4.28,4.28,0,0,1-3,2.06"/>
    <path d="M124.11,265.09c-7.29,1.1-14.27,1.59-20.15,0"/>
    <path d="M110.09,277.19c-10.74-12.77-13.63-12.33-5.5,6.69"/>
    <path d="M83.08,261.46c-5.29,1-10.21,1.35-14.36.4"/>
    <path d="M54,280.89a55.5,55.5,0,0,1-20.88-3.39"/>
    <path d="M22.75,281.75a15.87,15.87,0,0,0,5,2.25"/>
    <path d="M54.9,284c-5-.23-13.13-3-20.75-1.56"/>
    <path d="M54.26,290.17c-6.68-1.37-15.55,1.6-16,0-.56-1.88,8.9-4.17,15.53-2.95"/>
    <path d="M50,293.87c-6.74-.65-12.62,1.31-17.3,6.92"/>
    <path d="M24.52,290.67c5.5-4.74,13.82-4.62,14.16-5.59.42-1.17-4.61-.83-9.13.75"/>
    <path d="M65.57,334c.35,7-9.09,12.72-20.16,8.5"/>
    <path d="M43.74,348.72c5.18,2.75,11.06.66,11.62,1.4.91,1.23-1.2,2.16-5.32,3"/>
    <path d="M70.28,342.57c-5.34,4.82-10,4.67-9.82,5.52.08,1.05,5.72-.22,8.77-1.89"/>
    <path d="M130,323.94c-2.16,2.16-5.11,2.64-9,1"/>
    <path d="M102.94,316.58c1.46,4.51,5.17,6.62,10.27,7.25"/>
    <path d="M131.32,332c-3.47.36-12.84-3.37-14.21-.53-1,2,5.79.83,9.66,3.15"/>
    <path d="M101.26,326.53c2.79,1.77,15.69-.5,18.74,2,1.36,1.14-13.15.65-14.86,2.3"/>
    <path d="M124.92,338.62c-6.59-3.32-13.34-4.73-20.3-3.58"/>
    <path d="M111.52,394c-5.59,6.2-22.49,4.67-21.41-6.54"/>
    <path d="M110.22,407.19c-2-3.38-10.82-3.36-10.88-4.62-.08-1.72,6.29-1.49,10.26.79"/>
    <path d="M85.1,404.15c5.18.59,12.55-1.56,12.11,2.1"/>
    <path d="M213.75,107.06a30.87,30.87,0,0,0-1.23-8"/>
    <path d="M208.43,94.46a17.22,17.22,0,0,1,1.9,5.1"/>
    <path d="M205.59,95.56c-.66,2-2.07,2.15-4.34,0"/>
    <path d="M194.65,96.42c11.71,4,9.11,27.12,10,9.78"/>
    <path d="M186.31,102c6.28,1.92,16.23,8.81,8.52,1.41"/>
    <path d="M178.22,108.12c9.18.45,15.61,3.63,19.86,9"/>
    <path d="M175.53,113.53c5.32-1.3,11.13.23,17.22,3.4"/>
    <path d="M184.23,125.25c4,1.28,7.9,2.67,8.92,5.81"/>
    <path d="M181.23,126.81c3,1,5.65,2,7,3.39"/>
    <path d="M152.25,149.34c3.84,1.16,7.48,2.46,9.5,4.85"/>
    <path d="M160.58,159.29a26,26,0,0,0,11.66,6.15"/>
    <path d="M168.26,151.82c-9.31-3.13-12.65-4.92-1.24-3.41"/>
    <path d="M154.28,175.05c3.37,3.88,6.66,5.81,9.73,8"/>
    <path d="M230.84,122.16c-5,1.23-9.48,2.71-12.5,5"/>
    <path d="M220.08,121.1a54.93,54.93,0,0,0-11.41,7.2"/>
    <path d="M207.27,144.44a16.23,16.23,0,0,0,6.06,5.64"/>
    <path d="M204.87,149c2.49,3.56,8.06,4.13,4.38,7.76"/>
    <path d="M216.41,156c-2.54,3.22-7.39,4.67-3.63,9.95"/>
    <path d="M208,167.51c3,2.81,6.71,5.7,3.78,8-2.29,1.35-2.5,2.84-.7,4.45"/>
    <path d="M208.77,181.67c1.91,1.27,3.35,2.7,3.76,4.48"/>
    <path d="M209.86,194.15a10.93,10.93,0,0,0,3.11,2"/>
    <path d="M209.81,203.5c1,1,2.81,1.75,1.93,2.78"/>
    <path d="M269.49,213.47A125.41,125.41,0,0,1,246.26,215"/>
    <path d="M266.09,202.66c-8.24,1.81-16,2.84-22.87,2.33"/>
    <path d="M260.2,175.3A64.17,64.17,0,0,1,240,177.38"/>
    <path d="M266.34,166.09A60.51,60.51,0,0,1,250.12,172"/>
    <path d="M253.94,138.59a192.94,192.94,0,0,0-25.08,1.46"/>
    <path d="M265.43,132.69a120,120,0,0,0-26.38,1"/>
    <path d="M251.28,93.9A4.19,4.19,0,0,0,255.45,95"/>
    <path d="M259.18,93.22c6.22,3.36,8.88,12.67,10.19,12.88,1.84.29,1.18-3.37.27-7.24"/>
    <path d="M275,106a13.88,13.88,0,0,1,.44,10.31c-.76-2.5-4.61-2.75-2.08-4.57"/>
    <path d="M278.48,112.8c.24,2.94-.1,5.34-1.28,7"/>
    <path d="M280.48,97.34c5.92,2.65,9.56,7,10.74,13.2"/>
    <path d="M288.05,98.67c2.7,2,4.54,3.73,4.56,4.92"/>
    <path d="M304.37,105.77c2.94,3.77,4.35,8.2,1.69,14.41"/>
    <path d="M312.14,115.62a21.31,21.31,0,0,0-8.83-15.91c6.07,1.08,10.58,5.35,14.18,11.51"/>
    <path d="M307.77,93.69c2.86-.16,5.76,1.07,8.69,3"/>
    <path d="M314.05,88c-1.88,1.63-4.28,1.53-3.11-.82"/>
    <path d="M323.66,69c-1.65,1.39-3.1,2.24-4.16,2"/>
    <path d="M330.54,75.36a15,15,0,0,0-11.13,0"/>
    <path d="M73.31,101.76c5.23,1,9.29,3.46,11.66,8"/>
    <path d="M106.66,100.38a16.68,16.68,0,0,0-11.57,8.93"/>
    <path d="M106.91,92.05c-5.48-2.9-7.34,1.52-17.44,2.17-9.83.62-16.33-3-19.79-.24"/>
    <path d="M141.41,100.83c.64,1.46-.21,2.54,1.35,4.44"/>
    <path d="M131.67,97.52a3,3,0,0,1,.59,2.27"/>
    <path d="M126,116.15c3.72,3.82,6.14,7.67,6.22,11.57"/>
    <path d="M137.63,120.12c-.93,2.38-.48,4.94-.18,7.77"/>
    <path d="M129.83,114.38c2.45,3.75,4.6,11.86,5.43,17.2,1.19-6.81-.58-17.63-3.72-25.56"/>
    <path d="M144.18,129.38c8,5.81,17.94,9.07,29.65,10.15"/>
    <path d="M163.68,142.48c12.16,5.56,20.68-3.1,22.16-1.09,1.18,1.6-1.31,3.37-4.82,3.33"/>
    <path d="M184,146.94c-5.86,2.43-11.61,3.07-17.06-.95-4.63-2.19-12.47-1.26-18.3-3.09"/>
    <path d="M178.32,151.79c-4.34,0-8.46-1.31-10.15-3.28"/>
    <path d="M174.42,157.29c-1,.31-2.22.23-4.16-1"/>
    <path d="M120.9,151.34c-19.59,30.45-53.93,32.52-26,28"/>
    <path d="M99.16,126.24c-6.46,12.06-14.41,21.87-26.66,25.2"/>
    <path d="M78.22,144.88a36.56,36.56,0,0,1-12,5.66"/>
    <path d="M59.3,160.4a16.61,16.61,0,0,0,8.26,1.92"/>
    <path d="M57.81,163.77c2.78,1.6,6.23,2.08,9.88,2.2"/>
    <path d="M105.52,162c-13.37,12.27-28.09,16.41-44.69,9.24"/>
    <path d="M58.89,177.64c6.62,4.38,18.07,2.53,16.89,4.84"/>
    <path d="M106.57,185.17c-9.89,3.14-19.55,4.83-28.71,3.3"/>
    <path d="M59.32,184.17a22.85,22.85,0,0,0,8.45,1.21"/>
    <path d="M60.74,188.61a27.87,27.87,0,0,0,7.24,2"/>
    <path d="M61.42,192.94c8.1,4,18.5,5.65,29.74,6.52"/>
    <path d="M62,198.29c2,2.12,5.14,3.25,8.7,4"/>
    <path d="M42.69,166.4c2,.15-4.43,9.06-8.3,9.56"/>
    <path d="M28.2,170.09c6.11-2.87,2.73,2.33,1.86,7.62"/>
    <path d="M29.3,149.43c-2.45,2.18-9.45,3.63-15.12,7.79"/>
    <path d="M26,147.33a26.91,26.91,0,0,0-8.06,4.42"/>
    <path d="M7.62,152.27A32.23,32.23,0,0,1,25.19,145c-6.48-4.79-22.19-3.43-21.26-.18.87,3,9.14-2.19,15.66-1.38"/>
    <path d="M29.64,141.86a32.89,32.89,0,0,0-11.1-2.81"/>
    <path d="M38.06,135.26c-7.18,1.55-13.3,1.51-18.46,0"/>
    <path d="M39.15,132.12c-7.11,1.48-13.56-1.38-18.21-1.6"/>
    <path d="M31.36,121.54c4.44,3.77,13.16,7.61,16.13,6.57"/>
    <path d="M43.06,112.75a17.18,17.18,0,0,0,4.78,8.34"/>
    <path d="M43.76,99c.32,2.26.43,4.17-.86,3.79"/>
    <path d="M48.51,96.3c3.87,6.26,6.34,15.31,3.35,11.5"/>
    <path d="M53.67,93c5.12,4.9,3.95,10.23,1.08,4.3"/>
    <path d="M58.89,104.94a19.41,19.41,0,0,1,.73,7.92"/>
    <path d="M54.65,113c.4,5.26-.88,11-4.56,13,2.85-16-5.75-28.21-1.81-11.6"/>
    <path d="M51.94,127.62c2.81-.19,4.86-10.1,7.24-7.86"/>
    <path d="M53.78,130.6c.5.18,2.81.63,3.59,1.28"/>
  </g>
  <path class="braceletMedium" d="M196.62,228.31c2.17-4.84-10.34-12.94-9.92-20.56-1.31,7.78,10.12,14.59,6.91,21.56Z"/>
  <g class="eye">
    <path class="sclera" d="M252.9,50.42l-35.69,4.74,32.37-15.54C252,41.44,253.75,47,252.9,50.42Z"/>
    <g class="irisDarkBrown">
      <ellipse cx="240.09" cy="47.78" rx="1.93" ry="3.47" transform="matrix(0.96, -0.29, 0.29, 0.96, -3.44, 72.69)"/>
      <ellipse cx="251.21" cy="44.36" rx="1.24" ry="3.47" transform="translate(-1.94 75.8) rotate(-17.1)"/>
    </g>
    <g class="pupil">
      <ellipse cx="240.8" cy="47.56" rx="0.75" ry="1.35" transform="translate(-3.34 72.89) rotate(-17.1)"/>
      <ellipse cx="251.72" cy="44.2" rx="0.48" ry="1.35" transform="matrix(0.96, -0.29, 0.29, 0.96, -1.87, 75.95)"/>
    </g>
  </g>
  <g class="skinEastAsian">
    <path d="M242,74c-1.6,6.83-1.17,12.68,1,17.72,5.75,4.59-1.17,8.54-4.37,14.38-6-4.35-23.28-5.78-25.54-13.24-3.47-12.45-9.29-13.23-16.6-17.35"/>
    <path d="M343.27,29.84c-1.3-.23-1.71,2.21-3.21,4.42-1.09,1.61-.78,6.24-1.82,6.77-4.9-2.89-5-11-3.13-20.52,1.93-3.07,1.89-7.19.06-8.2-.35-2.61-2-3.35-3.39-2.76-.77.32-.79,2-1.4,3.41-.73-1.36-2.68-1.17-3-.09a50.48,50.48,0,0,1-2,8.15c-1.11,3.54-.64,6.77-1.69,11.13-2.12,11,1.28,17.05,2.47,25.61A69.66,69.66,0,0,1,337.11,63c1.73-9.27,9.57-6.09,7.56-19C343.94,39.19,349,30.78,343.27,29.84Z"/>
    <path d="M190.56,194.69c-1.65-4.72-6.54-6.82-11.46-12.21-3,.27-9.73,2.72-14.42,5.53,1.24,2.9-.33,8.26.49,13.27.5,3.11,3.13,8.5,5.56,7.78,1,2,3.9,1.66,5,.93.66,1.75,4.27,1.73,5.4.88.83,2.33,6.07,2.18,5.8-1.12,3.89,2,6.28-.89,3.77-3.62C189.94,205,192.12,199,190.56,194.69Z"/>
    <path d="M61.21,191.74c-.65-5.26-1.52-10-6.52-12.12-.95,3.18-7.89,8.06-11,7.66-.93,1.73-2.44,2.7-3.13,5.86-1.26-.54-3.3-.19-3.24,1.38.6,2.92-1.77,3.83,2.1,8.75-.14,3.59,1,4.65,2.42,6.34,1.17,1.43,3,3.16,5.34,1.77,1.25.8,2.23,2,3.28,2,3.54.18,9.35-5.71,10.39-7.19C62.31,204.49,61.92,197.57,61.21,191.74Z"/>
    <path d="M134.38,158.79c-.53,4.75-1.08,9.13-1.27,13.37-.3,2.44,2.3,6.73,1.43,11.84l3.23-1.78c-1,1.61,1.61,4.61,3.69,3.87,7.37-2.63,9.76-6.84,12.49-11.49-2.83-3.93-5.83-10.33-8.21-16.41C142.36,159.29,138.51,158.48,134.38,158.79Z"/>
    <path d="M213.17,78.41c-4.25,3.85-5.5.7-7.6.08-36-7.4,2.19-77.72,37.42-57.27,3.22,12.33,7.47,10.53,8.3,18.29.1.85,2.4,1.48.92,4.17-.14-.38-.29-.76-.47-1.13-.93-.82-2.58.32-3.69,2.23A11,11,0,0,0,249,47c1.83.25,4.24-.19,3.83-1.34,1.95.84.93,2.38,1.39,2.93,5.72,6.9,8.08,13.08,5.52,26.06-.86,4.39,4,11.08-4.28,14.8-6.69,3-12.43,1-21,.56a29.77,29.77,0,0,1-14.87-4.44m21.59-39.89c-5-.13-6.49,3.83-7.12,5.54,1.5.71,5.91.47,8.39-1.74A7.58,7.58,0,0,0,241.09,45.64Z"/>
  </g>
  <g class="skinOverlapLine">
    <path d="M330.38,13c-3.23,8.34-3.92,12.53-4.23,18.37"/>
    <path d="M335.17,12.31c-2.82-1.22-2.57,2.28-4.12,5.13-2,4.25-2.79,8.48-2.92,14.38"/>
    <path d="M169.17,202.25c.24,2.64,1,5.84,1.56,6.81"/>
    <path d="M174.05,201.28c.37,3.29.95,7.18,1.71,8.71"/>
    <path d="M179.41,199.84c1.14,2.19.72,8.4,1.75,11"/>
    <path d="M187.84,196.34c-.3,2.23-1.13,2.52-1.3,4.14-.28,2.63.45,7,.42,9.27"/>
    <path d="M54.32,198c-3.36,3.85-5.38,8.4-8,10.21-1.64,1.08-4.73-.4-3.93-2.87C43.84,201,46.76,198,48,194.43"/>
    <path d="M50.2,185.6c-3.73,3.64-5.89,8.35-3.83,12.2"/>
    <path d="M49,205.37a3,3,0,0,1,2.08,1.29A4.11,4.11,0,0,1,53.51,205c-1.46-1.93.33-3.77-1-4.64"/>
    <path d="M47.13,211.38a24.41,24.41,0,0,1-2.75-2.91"/>
    <path d="M45.2,199.73c-1.76-.33-3.47,1.94-2.43,4.52"/>
    <path d="M39.37,203.27c.21-3,1-4.1,1.22-6.06.65-2.24,4.55-.76,3.89,2.53"/>
    <path d="M40.51,193.14a2.74,2.74,0,0,1,1.52,3"/>
    <path d="M137.77,182.22c1.55-4.08,3.35-3.89,5.42-5.83,1.82-1.45,5.78,3.1.26,6.06"/>
    <path d="M140.67,178.22c1.05-2,3-2.4,2.63-4a3.52,3.52,0,0,0-5.39-1c-1.41,1.45-2.33,3.32-3.72,3.94"/>
    <path d="M137.91,173.22c.56-1.95-2.53-3.77-4.72-2.61,3.11-1.74,5.78,3.13,14.22,1.9"/>
    <path d="M56.54,79a43.28,43.28,0,0,1-1.65-6.37"/>
    <path d="M112.09,69.38a52,52,0,0,0-.15-7.76"/>
  </g>
  <g class="skinFoldLine">
    <path d="M51.05,206.66a2.68,2.68,0,0,1,.33,2.5"/>
    <path d="M205.19,65.85c-5.33-8.83-13.59,4.46-2.27,9.25"/>
    <path d="M206.16,68.41c-1.63,2.8,3.38,3.67,2.14,5.24-.86,1.08-1.53-1.25-4.48-1.51-4.3-.37-2.67-6-.08-4.39"/>
  </g>
  <path class="skinEdgeLine" d="M182.52,195c-3.88,1.69-5.41-1.51-8.22.93-2.3,2-3.34.34-4.76,1.65s-2.46.6-3.43,1.5"/>
  <path class="braceletDark" d="M186.61,204.63c2,3.69,1.9,7.13,2,10.73-.63-3.24-1.07-6.85-1.74-7.42Z"/>
  <path class="braceletLight" d="M188.63,215.36c-.07,6.13.89,11.07,5,13.95.77.86,3.15-.33,3-1C192.62,226.34,190,220.47,188.63,215.36Z"/>
  <path class="lipMaleMedium__noStroke" d="M255.43,79.16c-5.89,2.69-8.11-3.47-11.72-5.53,3.52-1.91,6.06-5.23,9.08-6.75a5.87,5.87,0,0,0,3.54-1.35c3.11.64-3.79,3.06-2.16,5.73C256,70.57,260.79,76.72,255.43,79.16Z"/>
  <path class="mouthInner" d="M254.18,71.26a7.36,7.36,0,0,1-.62.4,3.18,3.18,0,0,1,1.34,3c1.28-.88,1.35-2.21-.75-3.36Z"/>
  <path class="tongue" d="M252.91,71.38a29.88,29.88,0,0,0-6.23.44,21.49,21.49,0,0,1-3,1.81c2.95,1,5.55,2.11,7.73,2a6.83,6.83,0,0,0,3.45-1C254.89,72.93,254.31,71.79,252.91,71.38Z"/>
  <path class="teeth" d="M249.48,70c-.95.48-2.38,1.62-3.85,2.58,2,.71,6.47.3,8.54-1.27.72-.56.72-1.93.61-3.09C253.09,68.81,252.23,68.54,249.48,70Z"/>
  <path class="lipOverlapLine" d="M255.78,63.24c.39,1.34,1.84,1.6,1.32,2.94a4,4,0,0,1-2.32,2"/>
  <g class="lipEdgeLine">
    <path d="M252.79,66.88a5.87,5.87,0,0,0,3.54-1.35"/>
    <path d="M250.24,79.25c3.92,1.36,8.88-1,7.34-4.4"/>
  </g>
  <path class="cheekLine" d="M247.44,60.39c-1.4,2.37-1.1,2.57-2.62,6a14,14,0,0,0-.83,8.74"/>
  <g class="noseLine">
    <path d="M247.44,60.39c-1.06,1.49.22,3.8,2,3.19"/>
    <path d="M250.91,62.81c1.61-1.81,5.26-.87,6.44-2.41,4.12-5.42-8.67-8.13-9.66-17.44"/>
  </g>
  <g class="eyeFoldLine">
    <path d="M237.26,53.72a8.45,8.45,0,0,0,5.65-2.32"/>
    <path d="M252.16,49.44c.86-.32,1.53-.58,1.88-1.32"/>
  </g>
  <g class="eyeCornerLine">
    <path d="M232.64,53.1A6.13,6.13,0,0,0,234,51.18"/>
    <path d="M242.28,45.55a4.85,4.85,0,0,1-1.19.09"/>
    <path d="M242.36,49.44a3.38,3.38,0,0,0,.59-.67"/>
  </g>
  <path class="eyeCreaseLine" d="M240.89,44.39c-4.66-.35-7.26,3.61-8.43,5.73"/>
  <g class="eyebrowBlack">
    <path d="M241.14,36.69c-1.45,5.12-9.78,4.17-12.58,8.88C230.35,38.41,235.77,39.91,241.14,36.69Z"/>
    <path d="M250.17,35.27a12.7,12.7,0,0,1-3.08-.08c1.85,1.56,2.85,1.9,3.77,1.92A9.82,9.82,0,0,0,250.17,35.27Z"/>
  </g>
  <path class="hairBlack" d="M227.45,22.67c2,6.44,3.58,7.82,6.49,10a27.58,27.58,0,0,1-1.48-4.83c5.38,8.71,11.58,4.16,15.43,6.47-.12-1-.9-3-2.41-3.43a11.32,11.32,0,0,1,7,3.48c0-4.11-2.35-13.8-9.21-18.3a33.73,33.73,0,0,0,5.74-1c-10.34-3.28-13.27-12.23-35.83-8.47-8.33,1.39-25.06,8.55-30.06,17.52a13.77,13.77,0,0,1,2.74-10.59,13.82,13.82,0,0,0-5.36,13.36A7,7,0,0,0,172,32a5.19,5.19,0,0,1,7.34-1.56c-5.62,15.05,3.25,44.42,23.87,51.7.91-.47,2-2.37,2.36-3.68-4.78-2.36-9.06-3.3-10.48-11.12-1.1-6.05,7.09-10.23,10.31-4.58a21.21,21.21,0,0,0,6.84-3c-2-5.81-1.44-6.5,1.54-12.47,4.49-2.38,7.33-3.07,9.7-8.73a11.89,11.89,0,0,0,.24,5.38C224,40.82,232.2,36,227.45,22.67Z"/>
  <path class="hairOverlapLine" d="M213.78,47.3c-1.59.59-4.66,3.34-5.92,4.23a44.64,44.64,0,0,1,2.77-5.31"/>
</svg>
