<svg viewBox="0 0 346.3 450.82">
  <path class="skinEastAsian" d="M47.91,62.55c.34,5.72,4.42,19.74,8.62,16.44,6.46,16.9,15.81,18.61,23.82,21.54,4.38,1.6,12.98,.27,16.4-3.22,5.63-5.74,13.72-9,15.32-27.93,5.84-.84,4.3-13.79,2.11-19.12l-66.28,12.29Z"/>
  <path class="hairBlack" d="M40.85,60.48c1.49-.67,3.14-2.72,3.67-5.77,2.91,7.95,6.83,14.87,11.8,19.27,10.03,8.69,20.9,.29,29.94,6.47,3.43-4.68,20.56-5.68,26.09-19.82,2.25-5.75,.71-7.59,3.18-17.04,3.59-13.73-5.88-32.03-23.24-36.39,1.53-2.98,5.43-5.19,9.46-4.88-6.39-2.83-10.52,1.17-12.95,3.99-1.9-3.55-6.14-6.77-11.31-5.92,3.09,.63,6.91,3.22,7.36,5.91-21.63-2.09-43.12,11.68-44.63,28.2-1.36,14.89,3.19,16.21,.63,25.98Z"/>
  <g class="soleWhiteDark">
    <path d="M72.87,435.01c-1.82,3.04,2.87,10.82,10.28,15.08,3.4,.5,21.8,.58,27.15,.18-13.68-12.74-27.39-26.42-37.44-15.26Z"/>
    <path d="M228.09,346.06c-1.86,2.68-8.13,.51-11.64,1.8-5.85,2.15-18.63-2.6-17.88-5.36,5.54-13.89,35.42-6.45,29.52,3.57Z"/>
  </g>
  <g class="soleWhite">
    <path d="M77.95,376.68c.67,1.68,1.14,4.8,.45,5.84-1.44,1.93-18.01,5.12-25.19,4.57-7.84-.61-17.29,.38-18.92-1.06-2.22-7.2,1.57-12.39,7.54-14"/>
    <path d="M110.48,435.66c2.89,2.96,6.49,6.13,4.19,13.39-14.66,7.68-27.12-24.19-41.81-14.03-.15-1.65,.91-4.07,1.91-5.53,7.53-8.85,21.02-2.9,35.7,6.18Z"/>
    <path d="M276.93,429.8c-.57,1.86-.79,5.77-.12,6.6,2.55,4.96,5.98,4.66,8.06,8.04,5.77,9.34,31.59,5.95,33.77,3.27,1.38-4.19-2.16-10.29-5.04-11.21-9.56-7.89-27.91-13.47-36.67-6.69Z"/>
    <path d="M227.9,331.53c4.95,3.95,4.39,11.22,.19,14.52,1.44-4.22-12.8-9.71-17.63-9.04-6.52,.91-9.23,2.74-11.9,5.48-.85-2.13-.67-4.85,.09-7.3,9.93-15.39,22.28-14.09,29.24-3.66Z"/>
  </g>
  <g class="bennettShoe">
    <path d="M67.46,348.71c1.15,8.18,9.43,17.19,10.49,27.97-6.49,3.68-14.87,5.49-25.05,5.01-5.91-.27-11.07,.59-14.89,.2-1.03-13.63,12.96-7.7,10.76-29.65l18.69-3.53Z"/>
    <path d="M105.41,412.4c-.29,8.87,1.09,16.69,5.07,23.25,.92,3.26,.93,6.39-.26,9.35-8.72,.54-20.28-23.77-35.45-15.53,4.11-9.23,9.55-15.69,11.63-22.16l19,5.08Z"/>
    <path d="M281.74,402.78c1.57,12.06-4.12,14.35-4.81,27.02,1.78,3.75,5.74,5.56,8.35,8.32,1.43,1.51,3.55,3.44,6.1,4,2.59-8.26,16.28-8.23,22.22-5.62-5.62-4.87-12.77-18.07-11.94-29.84,3.46-14.66-13.96-10.51-19.92-3.88Z"/>
    <path d="M230.95,305.43c-1.48,10.47-4.2,19.72-3.05,26.1-5.2-4.22-15.17-7.04-21.26-.67-2.6,.6-5.26,2.03-7.99,4.33,4.38-12.28,9.49-17.84,13.03-32.98l19.26,3.21Z"/>
  </g>
  <g class="shoelace">
    <path d="M292.08,415.74c.38,4.73,1.43,9.57,2.95,14.48,3.14-1.34,9.43-1.27,13.16-.41-2.43-3.93-4.6-8.83-5.74-13.94-2.81-.82-7.63-.91-10.37-.13Z"/>
    <path d="M224.47,329.32c-.12-3.74-.02-7.2,.55-10.1-3.62-2.76-7.72-4.14-12.18-4.43-1.55,3.64-1.72,8-.94,12.86,4.16-1.22,8.85-.22,12.57,1.67Z"/>
  </g>
  <path class="converseLogo" d="M284.11,429.63c3.69,.76,4.37-10.56,.76-11.48-3.58-.91-4.54,10.69-.76,11.48Z"/>
  <path class="shirtWhite" d="M209.69,211.34c-.13,.56-.31,1.13-.57,1.71,26.44,8.21,56.65,9.23,77.19-1.99,.54-.56-.28-1.63-.61-2.83-9.03,3.67-63.94,8.49-76.01,3.11Z"/>
  <path class="bennettJacketInner" d="M160.29,191.54c.88,1.22,20.7-7.34,19.63-9.07-3.36-.3-16.47,4.84-19.63,9.07Z"/>
  <path class="bennettJacket" d="M208.43,94.46c-.02-1.72,42.83-2.29,42.85-.57,2.92-2.36,4.56-2.27,7.9-.68,4.17-1.53,3.95-5.28,21.3,4.12,2.22-.77,4.77-.2,7.56,1.33,5.59,.24,8.84-1.28,15.27,1.05,1.7-.93,.33-4.96,4.46-6.02-.12-2.93,.88-5.14,3.17-6.54,4.63-5.56,4.18-15.13,8.56-16.14-.39-4.89,3.65-8.08,6.14-13.38,2.36,.32,16.88,7.47,18.01,10.38-10.48,22.19-15.76,45.82-24.35,52.92-6.47,5.35-32.17,2.97-40.72,4.99,2.24,4.21,.84,6.76,1.38,9.58s2.45,4.48,1.61,7.39c-.33,2.79,1.57,1.71,.3,8.27-.39,2.02-.36,3.58,.75,5.37,1.81,2.94,.28,9.77,1.63,21.74,4.1,7.46,1.84,9.76,1.66,16.35-.11,4.06,1.72,7.13,.87,12.97-3.79,3.82-68.24,9.78-78.16,3.15-.44-2.19,1.4-4.36,1.18-7.26-3.4-2.9,.84-6.15,.06-9.36-3.72-3.2-.11-8.43-1.09-12.48-5.63-5.08-.14-10.45-.83-14.16-7.1-4.91,1.86-9.24-3.08-18.55-2.16-3.02-1.94-7.1-3.22-10.44s-3.42-5.86-4.41-9.59c-11.6,5.05-15.04,14.65-30.32,17.05,5.85,1.48,2.1,13.19,5.32,19.45,4.63,2.58,3.49,10.64,7.68,17.03-3.36-.3-16.47,4.84-19.63,9.07-2.56-5.03-4.52-10.56-6.01-16.49-6.11-8.09-13.14-28.33-13.19-32.22-.06-5.69,24.47-24.91,29.69-28.86,1.95-1.27,1.75-6.05,7.44-5.86,2.37-2.88,4.94-5.26,8.09-6.11,2.61-2.04,2.03-7.47,8.34-5.59,1.73-1.72,3.92-2.03,6.6-.83,2.6-.87,3.15-4.36,7.17-1.13Z"/>
  <g class="bennettJeans">
    <path d="M315.42,317.57c-1.45-25.99-12.39-59.61-21.67-89.58-1.62-5.25,.31-7.84-3.25-9.62,.84-3.35-2.62-4.79-4.64-7.07-20.4,10.89-50.11,9.91-76.23,1.9-4.24,12.82-4.46,29.84,3.28,45.49l33.05,.38c2.15-.82,.88-2.45,4.14-2.58,8.99,1.77,19.65,43.01,26.46,53.07,2.19,3.89-1.94,8.54,3.06,10.29,2.82,.99-3.65,3.84,1.03,6.94-2.8,2.6,1.32,5.7,.6,7.91-1.96,13.01-2.22,29.59-2.5,47.12-.06,4.09-6.79,11.22,.18,14.61,.03,2.79-4.14,4.13,.7,8.54-2.44,3.52,1.79,3.71,2.6,6.14,3.3-1.66,6.51-2.55,9.55-2.12,1.21-5.16,10.36-5.05,9.82,.12,4.04-2.47,4.94-5.79,3.63-9.71,6.73-3.09,3.16-9.85,4.49-16.26,2.47-11.94,3.39-31.84,6.29-50.56,2.64-5.47-.24-8.7-.6-15.02Z"/>
    <path d="M140.26,235.91c-.19-3.94,1.17-6.3-2.33-12.6-8.85,4.4-22.96-.75-34.38-1.33-16.56-.83-34.24-2.32-46.47-10.52-2.82,3.6-5.56,6.67-6.23,10.73-1.99,1.32-3.16,2.97-2.8,5.27-7.36,7.75-15.13,25.48-23.29,43.71-2.29,5.11-5.21,6.44-2.01,10.59-1.03,3.58-1,6.76,1.78,8.92-3.65,4.41-.68,6.81,.22,9.93,3.85,13.31,14.61,37.32,14.74,41.42,.25,8.55,6.11,4.52,4.85,9.3-2.62,8.09,16.02,5.84,24.55,2.38,.97-3.61,7.17-6.79,1.4-11.14,4.19-5.18-2.49-7.11-3.98-11-3.25-8.52-5.34-25.57-8.66-34.33-1.53-4.05,.42-6.84-3.39-7.06-1.84-3.45,4.19-2.52,.64-6.15,7.96-7.44,22.08-14.11,33.31-23.22,1.65,.05,2.87-.03,4.27,.41,2.55,21.72,5.33,40.35,8.72,56.41,.99,3.09-3.21,6.41,.06,8.9,1.34,2.07-3.13,4.24,1.1,8.23-6.95,12.32-8.74,30.76-13.26,50.28-1.57,6.77-9.97,14.66-3.99,19.12-4.48,2.51-2.45,4.76-.24,6.94,6.34-1.39,15.04,.77,20.57,6.16,4.77-2.36,6.31-5.73,4.8-10.06,6-1.93,3.83-9.15,5.83-15.33,5.15-15.93,11.84-31.13,14.47-51.12,5.2-5.07,.77-6.84,.79-8.72,5.49-1.47,2.32-5.37,2.66-7.67,3.91-26.65,5.99-50.93,4.8-65.93,1.34-1.45,1.33-4.27,.07-5.8,3.24-2.98,.92-4.53,1.56-6.05,1.28-3.07-.04-8.42-.14-10.66Z"/>
    <path d="M250.63,239.25c-5.65,5.99-1.27,10.73-3.66,17.66-1.46,4.21-.02,7.63-4.34,14.85-3.41,5.71-2.63,30-7.67,33.85,1.8,4.01-5.26,6.51-7.27,10.66-.16-1.26-.72-2.22-1.51-3,1.58-4.94-9.07-8.81-12.07-4.22-1.76,.34-3.62,1.57-5.56,3.59-.82-4.74-8.42-8.82-3.66-12.3-6.18-4.11-1.11-9.46,.15-13.79,3.84-13.23,5.55-29.41,8.71-46.33-.71-9.02-.54-19.91,6.75-24.44,12.15-7.55,24.46-9.36,27.68,4.11,1.55,6.49,7.79,13.71,2.45,19.36Z"/>
  </g>
  <path class="bennettJacketCollar" d="M254.48,107.83c-5.3-3.42-11.87-5.28-15.93-1.71-7.26-3.67-14.47-.04-17.67,6.11-6.89-11.21-14.64-19.39-7.45-23.4,6.33-3.53,21.4-3.02,27.35-1.19,7.38,2.27,10.87,11.37,13.7,20.19Z"/>
  <path class="bennettHoodieInner" d="M66.94,87.01c11.81-8.96,28.87-9.77,43.23-2.52-14.77,4-29.21,5.09-43.23,2.52Z"/>
  <g class="bennettHoodie">
    <path d="M115.76,91.34c5.69,1.27,13.43,1.36,15.9,6.18,3.03-.32,7.92-1.07,9.75,3.31,8.46,2.51,13.1,8.25,15.71,9.94,12.47,8.09,33.28,21.88,35.17,29.62,1.44,5.87-10.91,19.06-20.88,22.92-2.57-6.41,.54-9.39-3.15-11.49-1.72-1.62,1.55-3.04-1.35-5.83-.47-2.81-3.09-3.53-5.86-4.4-11.2-1.8-21.08-10.65-25.8-10.01,1.32,17.34-1.64,29.43-2.15,40.58-.31,2.49,2.41,6.91,1.38,12.17-.17,2.22,.3,3.09,1.22,5.13,1.64,3.64-.39,7.12,.42,8.94,1.42,3.17,4.72,9.1,1.08,14.29-.33,3.78,1.43,7.78,1.4,10.27-8.79,5.02-23.33-.38-35.05-.98-16.66-.84-34.45-2.34-46.69-10.66,4.13-9.37-.57-30.1,2.04-33.67-7.39-7.57,.12-9.98-1.08-13.87-2.75-1.75-1.92-4.92-2.23-10.7-.13-2.44-2.06-5.39-1.55-9.17,.61-4.54-1.55-9.03-.26-13.31-1.91-.36-.25-2.64-3.69-4.62-.82,2.12-2.28,1.5-3.64,2.87-2.26,2.28-4.87,5.91-8.39,6.41-1.29,3.45-4.89,3.13-6.74,7.68-.86,2.1-2.09,3.17-6.12,2.01,1.78,1.82,4.81,2.28,4.1,4.48,2.89,1.84,2.88,6.46,5.45,8.1,3.08,1.97,4.94,3.78,6.03,6.03s7.05,1.19,7.66,8.41c4.51,5.04,4.98,4.23,6.16,6.17,1.84,3.01-8.76,10.73-11.75,8.87-1.58-.99-1.9-3.07-5.75-5.75-2.99,1.1-5.21-.5-7.03-3.55-8.57-1.63-27.34-20.42-29.73-28.49-1.26-10.55,12.3-23.92,24.5-31.86,7.39-4.82,8.08-15.15,18.93-18.34,.2-3.3,2.11-3.64,4.74-2.71,.03-2.63,3.1-3.84,5.17-3.26,1.6-5.94,5.97-.76,8.36-3.5l53.73,1.8Z"/>
    <path d="M118.45,88.13c-4.16-9.5-18.61-3.1-28.79-2.16-14.92,1.37-23.72-3.22-28.33,2.72-2.53,3.26,11.03,27.03,28.88,27.74,16.63,.65,30.13-23.99,28.25-28.3Z"/>
  </g>
  <path class="zipperDisplayLine" d="M238.55,106.11c5.3,7.28,8.26,27.84,11.73,49.3,3.17,19.57,2.92,40.65,4.27,57.38"/>
  <g class="clothesDisplayLine">
    <path d="M38.01,381.89c-1.28-.08-3.41-.06-4.35-.56"/>
    <path d="M291.38,442.11c7.85,3.45,23.88,2.28,26.76-.29"/>
    <path d="M206.64,330.86c9.62-2.56,23.06,4.71,24.77,8.55"/>
    <path d="M110.22,445c1.7,.03,3.45,.05,5.18-1.3"/>
    <path d="M252.43,219.33c-1.96,6.65,4.74,11.14,2.37,16.34-2.53,5.55,.26,10.14-1.85,13.48-2.12,3.35-1.1,5.18-2.85,7.35"/>
    <path d="M260.18,218.77c-.98,6.22,4.47,10.47,2.45,14.39-1.99,3.87,3.07,10.18-8.83,11.45"/>
    <path d="M101.37,226.95c-1.2,8.8-3.54,17.13-7.96,24.6"/>
  </g>
  <g class="clothesOverlapLine">
    <path d="M291.78,409c1.06,.74,.32,4.67,.3,6.74"/>
    <path d="M303.01,418.13c-2.81-.56-7.46-.48-10.67,.07"/>
    <path d="M303.84,420.69c-3.14-.69-7.81-.52-11.12,.04"/>
    <path d="M304.75,423.07c-3.36-.73-8.04-.59-11.57,.07"/>
    <path d="M305.75,425.33c-3.57-.76-8.39-.52-12.01,.28"/>
    <path d="M306.87,427.54c-3.97-.83-9.15-.67-12.54,.33"/>
    <path d="M224.66,321.6c-4.17-2.46-8.39-3.9-12.65-4.3"/>
    <path d="M224.48,323.96c-4.2-2.14-8.5-3.51-12.91-4.11"/>
    <path d="M224.42,326.35c-4.22-2.24-8.55-3.54-12.98-3.99"/>
    <path d="M224.39,328.71c-4.34-2.13-8.64-3.35-12.81-3.47"/>
    <path d="M212.83,314.8c.56-2.21,1.62-4.27,1.28-5.75"/>
    <path d="M225.01,319.23c.39-2.31,1.44-4.35,1.16-5.96"/>
    <path d="M213.74,240.23c2.16-5.81,.59-6.94,3.13-12.28,1.89-3.98,4.99-5,9.49-11.57"/>
    <path d="M88.21,260.8c-6.61-.3-12.54-1.57-17.78-3.86"/>
    <path d="M119.75,261.77c-8.92,1.96-17.97,2.29-27.27-.56"/>
    <path d="M275.47,116.29c3,3.6,1.48,7.67,3.11,9.64"/>
    <path d="M220.48,171.45c-4.06,9.7-7.97,19.35-5.9,26.75"/>
    <path d="M278.85,167.83c1.39,4.16,4.22,7.97,5.4,10.46"/>
    <path d="M48.43,171.97c-1.45,3.48-8.47,8.17-11.34,9.29"/>
    <path d="M137.2,212.68c-11.05,2.13-26.76,.16-39.74-1.56-12.15-1.61-23.7-.8-35.73-8.03"/>
  </g>
  <g class="clothesFoldLine">
    <path d="M290.5,218.37c-2.07-.64-4.09-.99-6.07-1.04"/>
    <path d="M282.52,238.52c-5.51,.18-11.36,.61-16.21,1.57"/>
    <path d="M288.35,239.18c-7.08,.69-14.55,2.32-21.19,4.81"/>
    <path d="M220.5,223.27c1.57-5.91-3.49-5.98-4.88,1.67"/>
    <path d="M249.81,235.22c-1.78-13.65-5.12-3.59-2.19,10.33"/>
    <path d="M221.95,226.83c8.95-10.76,6.53,1.12-2.52,26.19"/>
    <path d="M243.69,242.8c-2.03-4.85-1.53,6.72-.88,18.02"/>
    <path d="M219.58,275.1c-2.24,2.83-4.6,4.75-2.83,8.79,1.56,3.57-.03,6.71-7.1,7.31"/>
    <path d="M229.47,274.94c-1.03,4.85-8.53,3.09-8.17,6.54s9.65,9.64,14.17,13.26"/>
    <path d="M234.96,305.61c-2.15-5.71-8.51-5.65-.73-5.3"/>
    <path d="M204.89,300.34c5.86-2.37,11.22-2.03,3.03-4.87"/>
    <path d="M227.53,308.68c5.1-2.68,1.57-5.52-6.61-6.7-3.73-.54-13.35-.49-8.63,5.22"/>
    <path d="M275.46,293.67c6.14,9.65,13.97,16.94,21.02,19.34"/>
    <path d="M312.13,328.91c-2.98-6.45-2.85,7.1-1.16,20.63"/>
    <path d="M284.89,319.1c9.75-1.44,11.79,1.7-.43,3.5"/>
    <path d="M282.17,329.46c11.99-6.12,14.35-5.08,4.74,4.86"/>
    <path d="M280.66,326.8c.77-.73,2.73-1.36,4.68-1.85"/>
    <path d="M305.53,392.71c-5.32,4.07-12.68,3.85-20.26-.76"/>
    <path d="M278.94,396.44c5.81,2.49,13.74,5,5.56,6.27"/>
    <path d="M305.23,399.41c-3.85,2.08-15.2,.84-12.32,5.22"/>
    <path d="M279.64,404.98c2,.72,4.66,1.19,6.5,1.52"/>
    <path d="M50.85,222.19c-1.14,4.26,.51,8.27,2.9,12.21"/>
    <path d="M48.04,227.46c.01,3.25,.85,7.17,2.53,9.47"/>
    <path d="M138.84,252.62c-1.38,2.04-3.93,4.04-7.62,6"/>
    <path d="M136.64,251.08c-6.44,6.2-18.66,9.76-28.06,9.27"/>
    <path d="M138.77,258.42c-.78,1.12-1.73,1.91-3.01,2.06"/>
    <path d="M124.11,265.09c-7.29,1.09-14.27,1.58-20.16-.05"/>
    <path d="M110.09,277.19c-10.74-12.78-13.63-12.33-5.5,6.68"/>
    <path d="M83.08,261.46c-5.29,.98-10.21,1.34-14.36,.4"/>
    <path d="M54.04,280.89c-6.53,.32-13.5-.85-20.88-3.39"/>
    <path d="M22.75,281.75c1.67,1.1,3.34,1.84,5.02,2.25"/>
    <path d="M54.9,284.02c-4.98-.23-13.12-2.99-20.74-1.56"/>
    <path d="M54.26,290.17c-6.68-1.37-15.55,1.59-16.02,.04-.56-1.88,8.9-4.17,15.53-2.95"/>
    <path d="M49.99,293.87c-6.73-.65-12.61,1.31-17.29,6.92"/>
    <path d="M24.52,290.67c5.5-4.74,13.81-4.62,14.16-5.59,.42-1.17-4.61-.83-9.14,.75"/>
    <path d="M65.57,333.99c.35,7.02-9.09,12.73-20.16,8.51"/>
    <path d="M43.74,348.72c5.18,2.75,11.07,.66,11.62,1.4,.91,1.23-1.19,2.16-5.32,2.98"/>
    <path d="M70.28,342.57c-5.34,4.82-10,4.67-9.82,5.53,.08,1.05,5.72-.22,8.77-1.89"/>
    <path d="M129.95,323.94c-2.15,2.16-5.1,2.64-9.04,1.03"/>
    <path d="M102.94,316.58c1.46,4.51,5.18,6.62,10.28,7.25"/>
    <path d="M131.32,332.02c-3.47,.35-12.84-3.37-14.2-.53-.96,2,5.79,.83,9.66,3.16"/>
    <path d="M101.26,326.53c2.79,1.77,15.69-.5,18.74,2.05,1.36,1.13-13.15,.65-14.86,2.29"/>
    <path d="M124.92,338.62c-6.59-3.31-13.34-4.72-20.3-3.57"/>
    <path d="M111.52,393.97c-5.59,6.21-22.49,4.67-21.41-6.53"/>
    <path d="M110.22,407.19c-2.05-3.38-10.82-3.36-10.88-4.63-.08-1.72,6.29-1.48,10.26,.79"/>
    <path d="M85.1,404.15c5.18,.59,12.55-1.56,12.11,2.1"/>
    <path d="M213.75,107.06c-.08-2.45-.36-5.12-1.23-7.99"/>
    <path d="M208.43,94.46c.99,1.88,1.67,3.6,1.91,5.09"/>
    <path d="M205.59,95.56c-.66,2.04-2.07,2.16-4.33,.04"/>
    <path d="M194.65,96.42c11.71,3.97,9.11,27.12,9.95,9.78"/>
    <path d="M186.31,102.01c6.28,1.92,16.23,8.81,8.52,1.41"/>
    <path d="M178.22,108.12c9.17,.45,15.61,3.63,19.86,8.98"/>
    <path d="M175.53,113.53c5.32-1.29,11.13,.23,17.22,3.4"/>
    <path d="M184.23,125.25c4.03,1.28,7.89,2.67,8.92,5.81"/>
    <path d="M181.23,126.81c3.01,.98,5.65,2.04,6.99,3.39"/>
    <path d="M152.25,149.34c3.84,1.16,7.48,2.45,9.5,4.85"/>
    <path d="M160.58,159.29c3.57,3.22,7.48,5.17,11.66,6.15"/>
    <path d="M168.26,151.82c-9.32-3.13-12.65-4.92-1.24-3.41"/>
    <path d="M154.28,175.05c3.37,3.88,6.66,5.82,9.72,8.04"/>
    <path d="M230.84,122.16c-4.99,1.23-9.48,2.71-12.5,4.96"/>
    <path d="M220.08,121.1c-4.28,2.1-8.16,4.44-11.41,7.2"/>
    <path d="M207.27,144.44c1.69,2.53,3.69,4.44,6.06,5.64"/>
    <path d="M204.87,148.95c2.49,3.56,8.06,4.13,4.39,7.76"/>
    <path d="M216.41,155.96c-2.55,3.22-7.39,4.67-3.63,9.95"/>
    <path d="M207.95,167.51c3,2.82,6.72,5.7,3.79,7.95-2.29,1.35-2.5,2.84-.7,4.45"/>
    <path d="M208.77,181.67c1.9,1.27,3.34,2.7,3.76,4.48"/>
    <path d="M209.86,194.15c.88,.85,1.93,1.51,3.11,2.03"/>
    <path d="M209.81,203.5c1.02,1,2.81,1.74,1.93,2.78"/>
    <path d="M269.49,213.47c-8.4,1.2-16.28,1.87-23.22,1.54"/>
    <path d="M266.09,202.66c-8.24,1.81-16.01,2.84-22.87,2.32"/>
    <path d="M260.2,175.3c-6.62,1.78-13.34,2.45-20.17,2.08"/>
    <path d="M266.34,166.09c-5.12,2.76-10.53,4.72-16.22,5.93"/>
    <path d="M253.94,138.59c-8.48-.06-16.83,.44-25.08,1.46"/>
    <path d="M265.43,132.69c-8.83-.67-17.62-.29-26.38,.98"/>
    <path d="M251.28,93.9c1.04,1.17,2.49,1.4,4.17,1.08"/>
    <path d="M259.18,93.22c6.22,3.36,8.87,12.67,10.19,12.88,1.84,.29,1.18-3.37,.27-7.24"/>
    <path d="M275.03,105.98c1.35,3.39,1.74,6.82,.44,10.31-.77-2.5-4.62-2.75-2.09-4.57"/>
    <path d="M278.48,112.8c.24,2.94-.1,5.34-1.27,6.97"/>
    <path d="M280.48,97.34c5.92,2.65,9.56,7.01,10.74,13.2"/>
    <path d="M288.05,98.67c2.71,1.99,4.55,3.73,4.56,4.92"/>
    <path d="M304.37,105.77c2.94,3.76,4.34,8.2,1.68,14.41"/>
    <path d="M312.14,115.62c-.58-6.75-3.62-11.99-8.83-15.9,6.07,1.08,10.58,5.35,14.18,11.51"/>
    <path d="M307.77,93.69c2.86-.16,5.76,1.07,8.69,3.04"/>
    <path d="M314.05,87.97c-1.89,1.63-4.29,1.53-3.12-.82"/>
    <path d="M323.66,68.97c-1.65,1.39-3.1,2.25-4.16,2.04"/>
    <path d="M330.54,75.36c-3.7-1.39-7.41-1.5-11.14-.04"/>
    <path d="M73.31,101.76c5.23,1,9.29,3.46,11.66,8.03"/>
    <path d="M106.66,100.38c-4.96,1.11-8.91,3.93-11.57,8.94"/>
    <path d="M106.91,92.05c-5.47-2.89-7.33,1.53-17.44,2.17-9.83,.63-16.33-3.02-19.79-.24"/>
    <path d="M141.41,100.83c.64,1.46-.21,2.54,1.35,4.44"/>
    <path d="M131.67,97.52c.51,.86,.8,1.65,.59,2.27"/>
    <path d="M125.97,116.15c3.72,3.83,6.14,7.68,6.22,11.58"/>
    <path d="M137.63,120.12c-.93,2.38-.48,4.94-.18,7.77"/>
    <path d="M129.83,114.38c2.45,3.76,4.6,11.87,5.43,17.2,1.19-6.81-.58-17.63-3.72-25.56"/>
    <path d="M144.18,129.38c7.96,5.81,17.94,9.07,29.65,10.14"/>
    <path d="M163.68,142.48c12.16,5.56,20.68-3.1,22.16-1.1,1.18,1.6-1.31,3.38-4.82,3.33"/>
    <path d="M183.97,146.94c-5.86,2.43-11.61,3.07-17.06-.95-4.63-2.19-12.47-1.26-18.3-3.09"/>
    <path d="M178.32,151.79c-4.34-.05-8.46-1.31-10.15-3.28"/>
    <path d="M174.42,157.29c-1,.3-2.22,.22-4.16-1.05"/>
    <path d="M120.9,151.34c-19.59,30.45-53.93,32.53-26.03,28.05"/>
    <path d="M99.16,126.24c-6.46,12.06-14.41,21.87-26.66,25.2"/>
    <path d="M78.22,144.88c-3.8,2.54-7.72,4.69-12,5.66"/>
    <path d="M59.3,160.4c2.69,1.49,5.46,1.91,8.26,1.92"/>
    <path d="M57.81,163.77c2.78,1.6,6.22,2.08,9.87,2.2"/>
    <path d="M105.52,161.95c-13.38,12.27-28.1,16.41-44.7,9.24"/>
    <path d="M58.89,177.64c6.61,4.38,18.07,2.53,16.88,4.83"/>
    <path d="M106.57,185.17c-9.89,3.14-19.55,4.84-28.71,3.3"/>
    <path d="M59.32,184.17c2.85,.98,5.66,1.31,8.45,1.21"/>
    <path d="M60.74,188.61c2.33,1.01,4.75,1.67,7.25,2.02"/>
    <path d="M61.42,192.94c8.1,3.96,18.5,5.65,29.74,6.52"/>
    <path d="M62,198.29c2.04,2.12,5.14,3.26,8.69,3.97"/>
    <path d="M42.69,166.4c1.95,.15-4.43,9.06-8.3,9.56"/>
    <path d="M28.2,170.09c6.11-2.87,2.73,2.33,1.87,7.62"/>
    <path d="M29.3,149.43c-2.45,2.18-9.45,3.63-15.11,7.79"/>
    <path d="M25.99,147.33c-2.97,1.03-5.65,2.49-8.06,4.41"/>
    <path d="M7.62,152.27c5.01-4.2,10.91-6.57,17.58-7.32-6.48-4.79-22.19-3.43-21.26-.18,.87,3.04,9.14-2.19,15.66-1.38"/>
    <path d="M29.64,141.86c-3.3-1.53-7.02-2.44-11.1-2.8"/>
    <path d="M38.06,135.26c-7.18,1.55-13.3,1.51-18.46,.03"/>
    <path d="M39.15,132.12c-7.1,1.48-13.55-1.38-18.2-1.6"/>
    <path d="M31.36,121.54c4.44,3.77,13.16,7.61,16.13,6.58"/>
    <path d="M43.06,112.75c.93,3.38,2.46,6.21,4.78,8.34"/>
    <path d="M43.76,99.02c.32,2.26,.43,4.17-.86,3.8"/>
    <path d="M48.51,96.3c3.88,6.26,6.35,15.31,3.36,11.5"/>
    <path d="M53.67,93.04c5.12,4.91,3.95,10.23,1.07,4.31"/>
    <path d="M58.89,104.94c.78,2.57,1.04,5.21,.73,7.92"/>
    <path d="M54.65,112.98c.4,5.25-.88,11-4.56,13,2.85-15.96-5.75-28.21-1.8-11.6"/>
    <path d="M51.94,127.62c2.81-.19,4.87-10.1,7.24-7.86"/>
    <path d="M53.78,130.6c.51,.18,2.81,.63,3.59,1.28"/>
  </g>
  <path class="braceletMedium" d="M196.62,228.31c2.17-4.84-10.34-12.94-9.92-20.56-1.31,7.78,10.11,14.59,6.91,21.56l3.02-1Z"/>
  <g class="eye">
    <path class="sclera" d="M252.9,50.42l-35.69,4.74,32.37-15.54c2.42,1.82,4.17,7.35,3.32,10.81Z"/>
    <g class="irisDarkBrown">
      <ellipse cx="240.09" cy="47.78" rx="1.93" ry="3.47" transform="translate(-3.44 72.69) rotate(-17.1)"/>
      <ellipse cx="251.21" cy="44.36" rx="1.24" ry="3.47" transform="translate(-1.94 75.8) rotate(-17.1)"/>
    </g>
    <g class="pupil">
      <ellipse cx="240.8" cy="47.56" rx=".75" ry="1.35" transform="translate(-3.34 72.89) rotate(-17.1)"/>
      <ellipse cx="251.72" cy="44.2" rx=".48" ry="1.35" transform="translate(-1.87 75.95) rotate(-17.1)"/>
    </g>
  </g>
  <g class="skinEastAsian">
    <path d="M241.95,74.01c-1.61,6.82-1.17,12.68,.97,17.72,5.75,4.59-1.17,8.55-4.37,14.39-5.95-4.35-23.28-5.78-25.55-13.24-3.47-12.46-9.29-13.24-16.59-17.35"/>
    <path d="M343.27,29.84c-1.3-.23-1.71,2.21-3.2,4.42-1.09,1.61-.78,6.24-1.82,6.77-4.9-2.88-4.99-10.96-3.14-20.52,1.94-3.07,1.9-7.18,.06-8.2-.35-2.61-1.96-3.35-3.39-2.76-.76,.32-.78,2-1.4,3.41-.73-1.35-2.68-1.17-3.01-.09-.11,1.6-1.11,5.41-1.96,8.15-1.11,3.54-.64,6.77-1.69,11.13-2.12,11.02,1.28,17.05,2.46,25.6,1.94,.57,6.81,2.84,10.93,5.21,1.73-9.26,9.58-6.09,7.57-19.04-.73-4.74,4.34-13.15-1.41-14.09Z"/>
    <path d="M190.56,194.69c-1.65-4.71-6.53-6.81-11.46-12.21-3.03,.27-9.73,2.72-14.42,5.53,1.24,2.9-.33,8.26,.49,13.27,.5,3.1,3.13,8.5,5.57,7.78,.97,2,3.9,1.66,5.03,.93,.66,1.75,4.27,1.73,5.4,.87,.83,2.33,6.07,2.19,5.8-1.11,3.89,2.04,6.29-.89,3.77-3.62-.79-1.13,1.39-7.13-.17-11.44Z"/>
    <path d="M61.21,191.74c-.65-5.26-1.52-9.99-6.51-12.12-.95,3.18-7.9,8.05-11.06,7.65-.93,1.73-2.44,2.7-3.12,5.87-1.26-.55-3.3-.2-3.24,1.38,.59,2.92-1.77,3.83,2.1,8.75-.14,3.59,1.04,4.66,2.42,6.34,1.17,1.43,2.96,3.16,5.34,1.77,1.25,.8,2.22,1.95,3.28,2,3.54,.18,9.35-5.71,10.39-7.19,1.51-1.71,1.13-8.63,.41-14.46Z"/>
    <path d="M134.38,158.79c-.53,4.75-1.08,9.12-1.27,13.36-.3,2.44,2.3,6.73,1.44,11.84l3.22-1.77c-1.04,1.6,1.61,4.61,3.69,3.87,7.37-2.64,9.76-6.84,12.49-11.49-2.83-3.93-5.83-10.32-8.21-16.4-3.38,1.1-7.23,.28-11.36,.6Z"/>
    <path d="M213.17,78.41c-4.25,3.85-5.5,.7-7.6,.08-36.05-7.4,2.19-77.71,37.42-57.26,3.22,12.33,7.47,10.53,8.31,18.28,.09,.86,2.4,1.49,.92,4.17-.14-.38-.29-.76-.47-1.13-.93-.82-2.58,.32-3.7,2.22,.26,.82,.55,1.57,.91,2.19,1.83,.25,4.23-.2,3.83-1.34,1.95,.84,.93,2.38,1.38,2.93,5.72,6.9,8.09,13.08,5.53,26.06-.86,4.39,3.96,11.08-4.28,14.8-6.7,3.02-12.43,.98-21.04,.56-5.88-.29-11.02-1.89-14.88-4.43m21.59-39.89c-5.03-.13-6.49,3.83-7.12,5.55,1.5,.71,5.91,.46,8.39-1.75-.1-1.28-.43-2.57-1.27-3.8Z"/>
  </g>
  <g class="skinOverlapLine">
    <path d="M330.38,12.96c-3.23,8.34-3.92,12.54-4.23,18.37"/>
    <path d="M335.17,12.31c-2.82-1.22-2.57,2.29-4.12,5.13-1.97,4.26-2.79,8.49-2.92,14.38"/>
    <path d="M169.17,202.25c.24,2.64,.96,5.84,1.56,6.81"/>
    <path d="M174.05,201.28c.37,3.29,.95,7.18,1.71,8.71"/>
    <path d="M179.41,199.84c1.14,2.19,.72,8.4,1.75,11.03"/>
    <path d="M187.84,196.34c-.3,2.22-1.13,2.52-1.3,4.14-.28,2.63,.45,6.96,.42,9.28"/>
    <path d="M54.32,197.98c-3.36,3.85-5.38,8.4-8.03,10.21-1.64,1.08-4.73-.39-3.94-2.87,1.49-4.29,4.4-7.28,5.63-10.89"/>
    <path d="M50.2,185.6c-3.73,3.63-5.89,8.35-3.83,12.2"/>
    <path d="M48.97,205.37c.84,.06,1.47,.57,2.08,1.29,.57-.86,1.41-1.41,2.46-1.69-1.46-1.93,.33-3.78-1.05-4.64"/>
    <path d="M47.13,211.38c-.96-1-1.96-1.78-2.75-2.91"/>
    <path d="M45.2,199.73c-1.76-.32-3.47,1.95-2.44,4.52"/>
    <path d="M39.37,203.27c.21-2.95,.95-4.1,1.22-6.06,.65-2.24,4.55-.76,3.9,2.53"/>
    <path d="M40.51,193.14c1.31,.68,1.66,1.77,1.51,3"/>
    <path d="M137.77,182.22c1.56-4.08,3.35-3.89,5.42-5.83,1.82-1.45,5.77,3.1,.25,6.06"/>
    <path d="M140.67,178.22c1.05-2.01,3.02-2.4,2.63-3.96-.29-1.15-3.07-2.98-5.39-1.05-1.41,1.46-2.33,3.33-3.72,3.94"/>
    <path d="M137.91,173.22c.56-1.94-2.53-3.77-4.72-2.61,3.1-1.74,5.78,3.13,14.22,1.9"/>
    <path d="M56.54,78.99c-.62-1.7-1.17-3.87-1.65-6.38"/>
    <path d="M112.09,69.38c.11-3.09,.1-5.83-.15-7.76"/>
  </g>
  <g class="skinFoldLine">
    <path d="M51.05,206.66c.42,.57,.73,1.73,.34,2.49"/>
    <path d="M205.19,65.85c-5.33-8.84-13.59,4.45-2.27,9.25"/>
    <path d="M206.16,68.41c-1.63,2.81,3.38,3.68,2.14,5.24-.86,1.08-1.53-1.25-4.48-1.51-4.31-.37-2.67-5.97-.08-4.39"/>
  </g>
  <path class="skinEdgeLine" d="M182.52,194.97c-3.88,1.69-5.41-1.5-8.22,.93-2.3,1.99-3.34,.34-4.76,1.64-1.48,1.36-2.46,.61-3.43,1.5"/>
  <path class="braceletDark" d="M186.61,204.63c1.98,3.68,1.9,7.13,2.03,10.72-.63-3.24-1.07-6.84-1.75-7.42l-.28-3.31Z"/>
  <path class="braceletLight" d="M188.63,215.36c-.07,6.13,.88,11.07,4.97,13.95,.78,.85,3.15-.34,3.02-1-4.01-1.97-6.66-7.84-7.99-12.95Z"/>
  <path class="lipMaleMedium__noStroke" d="M255.43,79.16c-5.89,2.68-8.11-3.47-11.72-5.54,3.52-1.91,6.06-5.23,9.08-6.75,1.47-.11,2.48-.5,3.54-1.35,3.11,.64-3.79,3.06-2.16,5.74,1.84-.69,6.62,5.46,1.26,7.9Z"/>
  <path class="mouthInner" d="M254.18,71.26c-.19,.14-.39,.28-.62,.4,.93,.54,1.33,1.57,1.33,2.98,1.29-.89,1.36-2.22-.75-3.36l.03-.02Z"/>
  <path class="tongue" d="M252.91,71.38c-2.65-.05-4.71,.13-6.23,.44-.96,.67-2,1.36-2.97,1.81,2.95,1.04,5.55,2.11,7.73,2,1.46-.08,2.68-.45,3.45-.98,0-1.71-.58-2.85-1.99-3.26Z"/>
  <path class="teeth" d="M249.48,69.95c-.95,.48-2.37,1.62-3.85,2.58,2.04,.71,6.47,.3,8.54-1.27,.72-.57,.72-1.93,.61-3.09-1.7,.64-2.55,.37-5.31,1.78Z"/>
  <path class="lipOverlapLine" d="M255.78,63.24c.39,1.34,1.84,1.6,1.32,2.94-.2,.51-1.05,1.58-2.32,1.99"/>
  <g class="lipEdgeLine">
    <path d="M252.79,66.88c1.47-.11,2.48-.5,3.54-1.35"/>
    <path d="M250.24,79.25c3.92,1.35,8.88-.96,7.34-4.4"/>
  </g>
  <path class="cheekLine" d="M247.44,60.39c-1.39,2.37-1.1,2.57-2.61,6.04-1.25,2.86-1.51,6.05-.84,8.74"/>
  <g class="noseLine">
    <path d="M247.44,60.39c-1.06,1.49,.22,3.8,1.99,3.19"/>
    <path d="M250.91,62.81c1.61-1.81,5.26-.87,6.44-2.42,4.12-5.41-8.67-8.13-9.66-17.43"/>
  </g>
  <g class="eyeFoldLine">
    <path d="M237.26,53.72c1.22,.12,4.21-.72,5.65-2.32"/>
    <path d="M252.16,49.44c.86-.32,1.53-.58,1.88-1.32"/>
  </g>
  <g class="eyeCornerLine">
    <path d="M232.64,53.1c.52-.44,.8-.96,1.33-1.92"/>
    <path d="M242.28,45.55c-.41,.11-.8,.09-1.2,.09"/>
    <path d="M242.36,49.44c.19-.15,.39-.37,.59-.66"/>
  </g>
  <path class="eyeCreaseLine" d="M240.89,44.39c-4.65-.36-7.26,3.61-8.43,5.73"/>
  <g class="eyebrowBlack">
    <path d="M241.14,36.69c-1.45,5.12-9.78,4.17-12.58,8.88,1.78-7.17,7.21-5.66,12.58-8.88Z"/>
    <path d="M250.17,35.27c-.78,.07-1.74,.11-3.09-.08,1.85,1.56,2.85,1.9,3.78,1.93-.19-.7-.42-1.3-.69-1.85Z"/>
  </g>
  <path class="hairBlack" d="M227.45,22.67c1.98,6.44,3.58,7.82,6.49,10.04-.63-1.33-.87-2.53-1.48-4.83,5.38,8.71,11.59,4.16,15.43,6.47-.12-.96-.9-2.95-2.4-3.43,2.18,.21,5.04,1.32,7,3.48,.03-4.12-2.35-13.8-9.21-18.3,.98-.24,3.23-.17,5.74-1-10.34-3.28-13.27-12.24-35.83-8.47-8.34,1.39-25.06,8.55-30.07,17.52-.69-3.59,.53-7.81,2.74-10.59-4.29,3.14-6.25,8.66-5.36,13.36-4.14-1.14-7.98,2.08-8.51,5.1,1.73-2.46,4.79-3.3,7.35-1.56-5.62,15.05,3.24,44.42,23.87,51.71,.91-.48,2.01-2.37,2.36-3.69-4.78-2.36-9.06-3.3-10.48-11.11-1.1-6.05,7.09-10.23,10.31-4.58,1.43-.16,5.23-1.82,6.84-3.02-1.99-5.8-1.44-6.5,1.53-12.47,4.49-2.38,7.33-3.08,9.7-8.74-.22,1.95-.32,3.91,.25,5.38,.27-3.13,8.48-7.98,3.73-21.28Z"/>
  <path class="hairOverlapLine" d="M213.78,47.3c-1.59,.58-4.66,3.33-5.92,4.23,.87-1.99,1.98-4.03,2.77-5.31"/>
</svg>