<svg viewBox="0 0 175.34 433.69">
  <g class="youngMomSock">
    <path d="M132.27,371.68c3.41,7.43,6.46,14.45,8.93,15.74-1.28,6.85-14.54,13-17.16,5.67-1.13-3.84-3.5-7.86-5.88-11.74Z"/>
    <path d="M105.7,388.3c0,7.06-1.39,15,.31,17.26-2.36,7.25-13.69,5.81-20.57.88,3.14-2.13,3.17-6.41,3.09-18.9Z"/>
  </g>
  <g class="soleLightTanDark">
    <polygon points="141.44 409.84 144.21 413.29 136.84 412.84 141.44 409.84"/>
    <polygon points="99.17 431.9 91.47 428.95 99.17 427.2 99.17 431.9"/>
  </g>
  <g class="soleLightTan">
    <path d="M150.9,401.21A15,15,0,0,1,153,407c-1.08,1.69-5,4.46-8.82,6.31l-2.77-3.45Z"/>
    <path d="M108.27,423.42a30.56,30.56,0,0,1-1,6.43c-1.09,1.36-5.32,2.1-8.07,2v-4.7Z"/>
  </g>
  <g class="youngMomShoe">
    <path d="M141.2,387.42c4.3,1.54,10.87,11.51,9.7,13.79-5.15,10-14.35,9.66-23.47,18-7.83,7.2-16.47,6.47-21.28,4.39,0-9.44,2.94-10.23,6.8-10.73C121,411.87,141.76,395.23,141.2,387.42Z"/>
    <path d="M106,405.56a26.87,26.87,0,0,1,2.26,17.86c-5,4.78-14.78,5.06-22.63,7.95-7,2.57-19.11,2.95-24.9,0-2.48-6.62,2-9.33,8.43-11.76C77.63,419.5,102.29,419.5,106,405.56Z"/>
  </g>
  <g class="youngMomShoeStripe">
    <path d="M137.69,412.39c-2.64-10.56,7.13-15.57,8.27-21.13h0a13.33,13.33,0,0,0-4.76-3.84c-2.55,5.06-7.61,7.49-12.94,8.47-.23-3.15-2.67-4-4.68-3.11-1.87,6.71-5.4,16.61-10.63,20.13,3.89,5.63,11.16-2.35,14.48,6.34C130.91,416.05,137.69,412.39,137.69,412.39Z"/>
    <path d="M108.17,411.53a27.35,27.35,0,0,0-2.16-6,8.71,8.71,0,0,1-9.78,3.7c-1.87-2.89-6.85-4.53-9.82-2.66,0,0-.62-1-1.2-.59-5.13,4.12-8.95,10.91-16,13.6.38,6.87,13.73-2.55,16.47,11.76a111.82,111.82,0,0,1,11.67-3.09C97.72,417.18,106.88,417.85,108.17,411.53Z"/>
  </g>
  <path class="youngMomPants" d="M131,208.63c-.14,9.54,3.41,8.12,1.58,14.66,2.19,17.81-6,28.83-11.62,58.77-2.14,11.38.44,13.24-5.15,18.49.29,3.3,1.65,7-1.85,10,2.57,3.36-.48,8-.52,13.6,6.64,9.21,13.53,30.05,22,47.68-2.42,4-17.58,11.86-21.92,11.75a87.83,87.83,0,0,0-3.3-8.45c-.3,4.21-1,9.23-1.33,14.64-9.69,3.47-12.84-1.06-22.58-.93.63-21.39.14-40.35-.88-63.93-15.17-29.57-21.34-102.61-19-115.31Z"/>
  <g class="youngMomShirt">
    <path d="M135.87,99.7c8.86,5.1,13.14,15.21,12.83,28.9,3.32,1.62,1.14,6.86,2.07,10.33l-20,9.89c-3.53,19.93,3.75,19.16-1.59,30.29,4.87,7.14-2.09,10.08,0,15-18.79,6.05-40-22.27-60.93-56.76a8.22,8.22,0,0,1-5.13-4.64C71.48,116.24,60.51,100.66,135.87,99.7Z"/>
    <path d="M117.77,87.21c3.27-.77,3.9,6.23,8.79,8.18-7.23,6.53-16.63,14.48-22.1,15.65C96.46,99.05,104.93,92.51,117.77,87.21Z"/>
  </g>
  <g class="clothesOverlapLine">
    <path d="M129.54,141.87c-2.21-.32-1-4-2.53-8.54"/>
    <path d="M113.42,324.19c1.35,13.73-1.8,30.58-3.17,51"/>
    <path d="M85.46,325c-1.81-21.86-2.52-49-2.76-78.35-.76-5.22-4.89-4.89-6.42-10.87"/>
    <path d="M128.26,395.89c-2.77.07-5.72,1.9-7.5,5.32"/>
    <path d="M96.23,409.26c-2.66-.94-7-1.16-9.38.64-1.07.81-4.57,4.92-7.52,7.24"/>
    <path d="M86.85,409.9a7.08,7.08,0,0,0-.44-3.3"/>
  </g>
  <g class="clothesFoldLine">
    <path d="M133.41,123.39a29.48,29.48,0,0,0,8,9.51"/>
    <path d="M137.82,126.24c4.06,4.41,11.75,8.13,10.8,4.76"/>
    <path d="M126.67,118c-2.48,4.5-.15,13.21-1.12,13.48-1.14.31-2.25-3.54-3.81-5.36"/>
    <path d="M129.43,123.05"/>
    <path d="M129.43,123.05A21.75,21.75,0,0,0,127,133.33c-1.09.92-3.19-1.12-4.75-1.21"/>
    <path d="M120.45,146.72c-1-5.79,3.89-3.54,2.17,3.9"/>
    <path d="M127.27,146a8.24,8.24,0,0,0-2,4.22"/>
    <path d="M127.79,172.73c-3.21,4.54-6.8,7.51-10.94,8.24"/>
    <path d="M126.67,189.32a3.69,3.69,0,0,0-1.73,3.36"/>
    <path d="M131,220.07c-1,1.45-5.33,2.08-11,2.35"/>
    <path d="M121.38,230.6C96.85,233,90.8,239.11,90,238.22c-1.12-1.28,2.48-3.2,5.6-4.71"/>
    <path d="M71.31,238.89a20.16,20.16,0,0,1,6.61,5.6"/>
    <path d="M85.54,244.72c4.59-.12,14.07-5.95,14.89-2.25.68,3-6.72,1.57-11.87,3.81"/>
    <path d="M94.16,247.29c-3.92.45-13.22,1.91-5.71,4"/>
    <path d="M113.65,284.71C108.28,296.58,97.3,311.48,91.36,310"/>
    <path d="M115.79,300.55A8.29,8.29,0,0,0,113,305.2"/>
    <path d="M113.94,310.59c-1.51,1.05-2.71,2.14-1.07,3.58"/>
    <path d="M104.91,362.45c-2.75,8.26-6.53,17.21-5,22.62"/>
  </g>
  <g class="skinNordic">
    <path d="M158.29,227.43c-2.35-20.27,2.57-40.08-3.82-57.45-2.34-6.34-1.89-16.33-4.54-30.64-3.29,1.77-16.61,4-20.39,2.53,1,15,5.79,25.66,5.46,30.47-1.08,15.83,8.44,31.9,11.77,58.32-4.76,8.81-2,19.41-5.36,29.17-.47,1.9,5.24,3.21,6.55-4.41.19-2.4,1.09-4,1.27-6.35,4.48,4.34,8.33,10.13,9,16.23-.78,7.33,4.32,7.69,4.88,4.88a82.45,82.45,0,0,0-.6-12.62,35.71,35.71,0,0,1,2.62,7.5c-.57,6.92,5,7.64,5,5.13-.29-.94.06-2.61-.11-3.89,1.83.66,3.77.44,3.63-1.86-.94-1.29-.57-3.4-1.11-4.83,2.2.22,3.13-.94,2.36-2.33-1.62-2-2.2-4.61-3.12-6-2.16-3.38-3.56-4-4.88-6.9C162.42,234.57,158.67,230.19,158.29,227.43Z"/>
    <path d="M32,207.05c4.88-8,21.63-16.09,31.24-27.28l5-42.46a9.16,9.16,0,0,1-3.8-2.47C61.35,139.23,56,153.08,53.18,156c-10.73,11.22-14.31,28.45-29.1,40.81-5.9,5.24-16.11,7.52-18.52,11.5-3.63,6-5.18,6.9-5.27,8.63-.18,2.36.13,6.9,3,8.45,2,1.06,4.06,3.18,5.15,1.72,3.56.12,6.16,2.24,7-.72,2.38-1.46,5.42-1.37,5.27-2.55,2.85.25,3.83-1.87,1.9-3.66C24.9,215.77,29.63,215.85,32,207.05Z"/>
    <path d="M117.82,78.18c-.24,4.15-.59,8.51,1,11C116,95,102.25,100,90.5,100.22a67.22,67.22,0,0,0-1-22.66"/>
    <path d="M82.19,68.92c2,8.51,12.79,14.84,22.64,17.55l31-38.81c10.05-58.8-80.25-21.61-67.76,14C69.91,67,79.15,77.48,82.19,68.92Z"/>
  </g>
  <g class="skinOverlapLine">
    <path d="M160.62,251.84c.28,1.92,1.18,3.34,1.86,5.72"/>
    <path d="M165,250c2,4,2.73,4.66,3.8,8.83,1,4,.58,5,1.19,7.46"/>
    <path d="M167.11,249.22c1.94,4.16,3.52,4.31,5.36,10.39"/>
    <path d="M28.48,207.94c-2.48,4.65-8.83,7.68-13.67,6.35a9.47,9.47,0,0,1-4.29,2.24c-1.7,5.44-8.29,6.47-7.87,3,2.48-3.33,1.52-6.05,9.44-11.49"/>
    <path d="M8.47,227.11c1.26-2.54-.23-4.58-2.34-5.85"/>
    <path d="M15.46,226.39c.46-1.93-2.2-4-4.9-3.47a3.87,3.87,0,0,0-2.07-1.58,6.1,6.1,0,0,0,3.82-3.53"/>
    <path d="M20.73,223.84c.18-2.46-3.48-4.08-5.8-2.25-3.25-.66-.09-1.25.29-3"/>
    <path d="M22.63,220.18a4.11,4.11,0,0,0-5.05.64"/>
  </g>
  <g class="skinFoldLine">
    <path d="M56.37,157a22.09,22.09,0,0,1,5.35,4.31"/>
    <path d="M149.63,172a36.45,36.45,0,0,0-8.92,2.68"/>
    <path d="M147.85,247.3a11.86,11.86,0,0,0,1.38,1.77"/>
    <path d="M11.21,220.82a2.34,2.34,0,0,1,2.28,0"/>
    <path d="M14.93,221.59a6.24,6.24,0,0,0-1.63,1.61"/>
    <path d="M13.15,218.05c1.14,1,2,0,3.9.87"/>
    <path d="M77,55.29c-4.77-8.92-11.36.87-3.76,7.72"/>
    <path d="M77.62,57.56c-2.71,1.61,2.6,5.13.81,6.5-1.07.82-1.1-1.8-4-3.21s-1.73-5.76-.12-5.08"/>
  </g>
  <g class="skinEdgeLine">
    <path d="M166.9,255.92a5,5,0,0,1-2.25,1.25"/>
    <path d="M161.19,257.82a4.34,4.34,0,0,1-2.43,1"/>
    <path d="M169.2,254.36a3.72,3.72,0,0,1-1.54,1"/>
    <path d="M170.66,252.13a1.63,1.63,0,0,1-1.22,1"/>
    <path d="M165.8,245.61c-.46.94-2.17.82-3.05,1.64s-2.33.5-3.4,1.17c-2.89,1.83-3.72.42-5.36,1.58"/>
  </g>
  <path class="skinCreaseLine" d="M21.3,216.21a4.56,4.56,0,0,1-2.08-1.79"/>
  <g class="hairBlonde">
    <path d="M67.36,59.67c-3.09,2-4.61,8.24-1.55,11.56-3.73-2.06-3.69-10.3-.46-14.59C67.11,57,67.91,58,67.36,59.67Z"/>
    <path d="M61.84,24.25c-3,1.5-5.22,4.73-5.58,9.53.9-2.58,2.21-4.14,3.88-4.75A32.53,32.53,0,0,1,61.84,24.25Z"/>
    <path d="M67.86,58.23c3,7,5.76,7.55,7.31,10,.89,1.41,5.47,4.15,7,.66-1,10.62-17.75,2-15.27-10.86-2-.23-2.6-2.72-1.74-3.23L65,53c-3.35-1.53-5.48-7.21-5.12-11.35.35-4-2.22-7.94,1.93-17.42,6.37-17.93,13.34-15.64,20-20C90.14-1.16,93.76,2.05,97.41.91c7.2-2.26,11.26,2,14.32,2L83.07,54.82A20.89,20.89,0,0,1,67.86,58.23Z"/>
  </g>
  <g class="mask280">
    <path class="skinAshkenazi" d="M138.08,32.55c-3.77,17.39,3.64,23.16.07,38-2.83,11.73-14.23,19.35-23.26,19.74-6.25.27-16.92-2.92-25-10C89.87,80.23,73.9-20.12,138.08,32.55Z"/>
    <g class="skinDisplayLine">
      <path d="M120.77,56.84c7.87-.8,8.43,9.82.56,10.53"/>
      <path d="M125.71,74.14A18.3,18.3,0,0,1,114.3,75.5"/>
      <path d="M112.77,45.35a8.09,8.09,0,0,0-6.66,2.14"/>
      <path d="M128.9,43.71a7.61,7.61,0,0,0-6.46,2.11"/>
    </g>
    <g class="blackDark__noStroke">
      <ellipse cx="111.3" cy="51.48" rx="2.34" ry="4.67" transform="translate(-3.18 7.53) rotate(-3.82)"/>
      <ellipse cx="127.24" cy="49.85" rx="2.34" ry="4.67" transform="translate(-3.04 8.59) rotate(-3.82)"/>
    </g>
    <path class="hairRed" d="M130.83,13.26c-2.09-1.8-7.32-5.19-7.57-7.71A14.05,14.05,0,0,0,118.37.79C110.9,3.53,90.73,6.22,82.71,6.24c-3.8,27.4-2.07,59.28,9.37,86.19a9.15,9.15,0,0,0,1.06-1.68c4.81-9.68,3.75-16-1.49-35.21,2.57-8.72,7.55-12.34,3.11-28.81,11.3-.49,27.93,22.32,44.37,12.82C145,34.12,139.67,14.4,130.83,13.26Z"/>
    <path class="hairOverlapLine" d="M85.63,35.68c1,8.31,4,12.84,6,19.86"/>
    <path class="maraHeadband" d="M130.83,13.26c-11.54-5.83-38.4,3-45.2,22.42C80.26,10.36,110.5-.24,123.26,5.55,126.38,6.47,131,11.24,130.83,13.26Z"/>
    <path class="maskBand" d="M65.18,54.83c4.41.68,11.31.36,17.09-.16L82,52.4c-5.72.66-12.52,1.11-17,.62Z"/>
  </g>
  <g class="baby">
    <path class="bonnet" d="M69.82,126.23c-6.9-8.86-5.48-20.28,1.72-28.91,1.73-2.08,2.36-5.25,5.34-6.08S83.26,87,87.35,88c5.44,1.42,10-.36,13.41,4.63,4.4,6.38,7.74,6.44,7.37,12.73-.29,4.88,1.4,5.5.83,8.85C106.35,134.52,85.13,137.46,69.82,126.23Z"/>
    <path class="babySock" d="M107.11,185.61c7.21,2.63,13.76,5.75,13.18,12-.83,8.86-9.63,15.12-9.6,25.13a19.21,19.21,0,0,0,5,11.93c4.19,4.65-2.88,7.08-9.76,1.71-2.08-1.63-3.24-2.9-6-3.83-4.39-1.45-5.29-3.9-3.11-6.85,6-8.15,2.64-15.59,7.67-24.88a7.61,7.61,0,0,1-2.66.67A37,37,0,0,0,107.11,185.61Z"/>
    <path class="harness" d="M130.52,197.31c.16-2.12.14-4.36-1.24-4.22-11.29.9-14-11.59-13.24-28.17,5.63.12,12.46-.54,17-2.82A131,131,0,0,1,130.31,149a41.1,41.1,0,0,1-14.4,1.87c-1.35-25,8.53-56.57,22.46-49,.3-1.55-1.49-3.18-3.31-3.53s-2.84-1.57-4.32-2.35c-5.71-3-11.53,1.52-16.28,9-5.2,8.18-11,20.56-15.2,22.91-3.45,1.91-23.28,1.86-29.44-1.56-9,12.47-3.49,31.7-8.57,49.41-2.74,9.54-.79,17.52,4.34,23.61a5.49,5.49,0,0,0-1,4.72,8.93,8.93,0,0,1,0,3.57c-.45,2.35.4,3.86,2.64,4.49a99.69,99.69,0,0,0,31.9,3.59c10.61-.54,20.38-3,30.61-4.67,2.51-.41,3.22-2,2.13-5.08A26.54,26.54,0,0,1,130.52,197.31Z"/>
    <path class="babyOverlapLine" d="M65.59,199.25c9.28,9.56,31.75,6.61,36.21,2.29"/>
    <g class="babyDisplayLine">
      <path d="M116,164.92c-2,0-3.24,0-4.66-.15-2-.24-1.06-13.69,1-14a24.28,24.28,0,0,1,3.49,0"/>
      <path d="M71.54,97.32c3.3-2.79,11.37-3.82,16.14-1.9,8.6,3.49,10.49,10.57,10.23,17.85-.2,5.66-2.39,13.21-9.44,15.79"/>
    </g>
    <g class="babyCreaseLine">
      <path d="M80.22,91.29a4.92,4.92,0,0,1-3.65,2.12"/>
      <path d="M85.85,90.2c-1.18,2.88,2.56,4.2,6.3,2.1"/>
      <path d="M98.21,96.14c-3,3.32-.3,5.78,4.62,5.12"/>
      <path d="M100.64,108.27c-1.64,3.15,1.37,5.54,5.14,5.41"/>
    </g>
  </g>
</svg>
