<svg viewBox="0 0 111.18 474.55">
  <g class="soleLightTan">
    <path d="M14.35,460.8c-.71,1.13-.18,5.13.77,6.15,2,2.1,6,2.12,10.17,1.72Z"/>
    <path d="M77.13,463.92c.57,1.66.76,3-.2,4.12-4.89,5.81-21.81,4.47-33.57,5.65-9.38.95-20.78,1.18-23.79-2.2-.85-.95-1.1-4.46-.61-5.64Z"/>
  </g>
  <g class="amyBoot">
    <path d="M55.82,408.71c-1.65-.26-16.48,2.24-17.71,3.47s4,23.47,3.11,25.9C40.66,439.7,22,448.45,15.77,455c-1.41,1.47-1.64,4.21-1.42,5.84.46,3.49,3.38,4.86,8.65,4.7C55.82,464.51,62.36,442.65,55.82,408.71Z"/>
    <path d="M78.6,414.82c-.57-1-29.52.82-29.75,1.32-1.14,2.5,1.63,21.43.33,28.09-.38,1.95-21.36,9.43-28.15,15.08-2.11,1.76-2.57,3.88-2.07,6.54.89,4.7,8.77,6.1,22.9,4.55,14.51-1.58,26.51.31,35.27-6.48,2.43-2.31,1.52-9.67.8-16.22C77.05,439.82,79.94,417.09,78.6,414.82Z"/>
  </g>
  <g class="amyHose">
    <path d="M27.9,365.1c3.31,13.33,10.11,29.81,15.2,45.53a109.76,109.76,0,0,1,11.49-1.89c-7.55-98-9.71-97.13-36.15-91.43,1.26,9.59,4.46,21.31,4.81,28.71C23.51,351.34,26.48,359.36,27.9,365.1Z"/>
    <path d="M53.79,415.57c5.8-.46,15.3-1,20.7-1,.5-15.07,8-41.9,2.49-60.81,1.07-1.22.85-2.5-.48-3.82,2.45-2.59-.82-3.61-1.2-6,2.36-1.74-1-4.63-1-7.28,0-4.12,2-11.37,4.5-18.72l-38.71,2c4.62,27.72,6,28.74,6.75,36.63C48.26,371.55,52.14,395.9,53.79,415.57Z"/>
  </g>
  <path class="amySkirt" d="M85,226.46c8.33,16.67,7.3,55.28,9.7,90.36,0,2.29-10.48,2.91-14.82,2.5-.24,2.39-13.81,3.61-15.94,2.39-1.07,2.29-8.39.48-10.37.46S38,323.85,37.69,321.1c-5.95-.15-15,1.36-19.21-1.22-2.14.92-11.59.44-11.59-1.23,2.59-35.53,3.81-75.92,8.08-92.23Z"/>
  <path class="amyShirt" d="M92.91,106.46c5.22,6,12.35,11.5,12.39,16.13,3.26,5.22,4.89,15.11,5.16,24.62l-22.33,7.55c7.32,18.78,8.62,34.87-4.13,44.67,1.09,2.72,4.27,6.92.87,11.09.11,4.35,4.71,8,.87,11.31,1.68,2.06.11,4,.87,5.65-16,5.43-58.37,6.63-72.72.76,1.09-3.26-.08-6.17,1.52-8.8-2-2.37-.32-6,.55-9.57a146.09,146.09,0,0,1,3.91-40C23.4,147.18,12.17,142,28.13,132,41,106.6,45.52,111.61,53,106.17"/>
  <g class="nirvanaLogo">
    <path class="nirvanaFace" d="M20.56,152.8c-4.89,11.62,1.16,29.41,14.1,33.07,11.62,3.29,14.07-12.25,15-20.37,1-8.5,4.26-23.66-3.68-29.86C36.71,128.39,23.55,145.7,20.56,152.8Z"/>
    <path class="tongue" d="M41.62,171.43h0c-.78,1.94-1.77,4-3.68,5h0c.73,1.35,4.3,6,5.61,3.2C44.7,177.2,43.3,173.54,41.62,171.43Z"/>
    <g class="nirvanaDisplayLine">
      <path d="M24.9,157.21A6.28,6.28,0,0,0,22,159.12"/>
      <path d="M46,167.5a8.29,8.29,0,0,0-2.09-3.05"/>
      <path d="M34.92,145.16a51.22,51.22,0,0,0-6.33,6"/>
      <path d="M32.66,151.58c-.53-2.3-1-4.59-1.58-6.89"/>
      <path d="M46.08,149.3a48.33,48.33,0,0,0-6.25,6.46"/>
      <path d="M44.22,156.38a17.78,17.78,0,0,1-1.54-8.12"/>
      <path d="M45.05,165.8c-.62,2.16-2.65,3.65-3.43,5.63-1.47,3.75-5.82,7.54-9.67,4.46-2.7-2.16-3.87-5.69-6.43-8s-2.43-6.62-2.16-9.9"/>
      <path d="M40.11,174.44a10.2,10.2,0,0,1,2.13,3.49"/>
    </g>
  </g>
  <g class="amyShirtTrim">
    <path d="M92.91,106.46c-1.33-1.17-2.43-2.54-3.54-2.94L57.2,104c-.93,0-3.25,1.59-4.24,2.21a33.18,33.18,0,0,0,1.29,12.12C66.79,112.83,82.78,106.38,92.91,106.46Z"/>
    <path d="M110.46,147.21c-8.73-1.39-20,3-27.1,2.84a22.13,22.13,0,0,0,.24,6.17c6.71.32,16.84-3.86,27.19-2.93A15.87,15.87,0,0,0,110.46,147.21Z"/>
  </g>
  <g class="clothesDisplayLine">
    <path d="M67.34,414.75c-.76,4.94,1.25,15.49.93,23.87-.45,12.14,2.75,17.18,2.38,28.73"/>
    <path d="M49.18,444.23C53.77,448.47,64,450,69.72,455"/>
    <path d="M70.41,460a33.29,33.29,0,0,0,7.89-8.88"/>
    <path d="M41.22,438.08a25.08,25.08,0,0,0,8.21,4.34"/>
  </g>
  <g class="clothesOverlapLine">
    <path d="M40.77,122.17c-4,5.28-8.25,7.22-12.64,9.86"/>
    <path d="M82.89,140.85c-.15,3.09.39,6.7.47,9.2"/>
    <path d="M66.73,167.05c-6,4.56-19.67,5.21-24.13-.42"/>
  </g>
  <g class="clothesFoldLine">
    <path d="M93.78,119c3.68,1.23,7.27,3.24,9.2,5.61"/>
    <path d="M97.55,118.12a18.69,18.69,0,0,1,7.75,4.47"/>
    <path d="M71.43,153a35,35,0,0,1,9.37.79"/>
    <path d="M75.81,150.63c2.45.27,5.61.62,7.44,1.41"/>
    <path d="M89.66,138.45A14.28,14.28,0,0,0,95.18,145"/>
    <path d="M71.25,137.4c4.84,1.56,9,3.35,11.61,5.61"/>
    <path d="M75.37,136.87a20,20,0,0,1,7.52,4c-.32-3.57-1.17-6.31-2.7-8"/>
    <path d="M83.65,134.33a13.76,13.76,0,0,1,.15,5.35"/>
    <path d="M28,149.89a45.43,45.43,0,0,0,11.57,3.68"/>
    <path d="M39.17,156.55a45.21,45.21,0,0,1-8.5-2.28"/>
    <path d="M84,199.28c-3.81,4.47-12.64,10.77-5.56,9.15"/>
    <path d="M84.87,210.52c-8.36,5.71-40.28,12.73-11.69,8.95"/>
    <path d="M85.74,221.83c-10.49,4.14-26.15,2.11-36.58,4.74"/>
    <path d="M69.23,207.82c-3.33,7.8-35.32,21.12-43.91,17.44"/>
    <path d="M15.41,219.44c2.29,3.1,7.6,3.9,3.86,4.59"/>
    <path d="M16,209.87c.25,2.24,1,3.19.07,4.7"/>
    <path d="M45.31,215c-10.17,5.75-19.92,10.11-26,2.55"/>
    <path d="M75.3,343.94a9.08,9.08,0,0,1-4.86,1.46"/>
    <path d="M76.5,349.91a21.41,21.41,0,0,1-7.13,2.21"/>
    <path d="M46.17,351.43a42.23,42.23,0,0,1-9.1,2.82"/>
    <path d="M46.63,354.25a17.55,17.55,0,0,1-3.7,1.12"/>
    <path d="M82,229c4.86,13.82-1.86,20.92-3.48,4.73"/>
    <path d="M74.05,230.41a265.05,265.05,0,0,1,1.75,26.9"/>
    <path d="M64.46,253.2c-.74,15.64-.87,37.53,2.24,44.13"/>
    <path d="M19.37,230.41A110,110,0,0,0,18,248"/>
    <path d="M27.84,242c.38-19.31-8.22-6-5.11,13.7"/>
    <path d="M31.45,261.17c-.26,16-.7,30.31-2.49,35.54"/>
    <path d="M18.48,319.88c.48-5.23,0-12.84.39-20.31"/>
    <path d="M37.93,309.91c-.62,4.61,0,8.1-.24,11.19"/>
    <path d="M53.87,304.05c.25,8.1-.72,14.21-.32,18.12"/>
    <path d="M63.92,321.71c-1.16-1-.21-6.07-1.08-8.31"/>
    <path d="M79.86,319.32c1.69-.83-.08-11.9.3-20.37"/>
  </g>
  <g class="eye">
    <path class="sclera" d="M31.79,68.28l30.83-13.1-34,2.26C28,60.51,29.52,66.65,31.79,68.28Z"/>
    <g class="irisHazel">
      <ellipse cx="48.74" cy="58.8" rx="2.38" ry="3.47" transform="translate(-13.26 14.2) rotate(-14.61)"/>
      <ellipse cx="31.08" cy="62.77" rx="1.9" ry="3.47" transform="translate(-14.83 9.87) rotate(-14.61)"/>
    </g>
    <g class="pupil">
      <ellipse cx="48.22" cy="58.94" rx="0.92" ry="1.35" transform="translate(-13.31 14.07) rotate(-14.61)"/>
      <ellipse cx="30.52" cy="62.91" rx="0.74" ry="1.35" transform="translate(-14.88 9.73) rotate(-14.61)"/>
    </g>
  </g>
  <g class="skinGallic">
    <path d="M93.65,63.76c-12,16.14-8.09,36.1-4.28,39.76a119.82,119.82,0,0,0-31.86,9.39,17.71,17.71,0,0,1-.31-9c2.45-7.56.68-26.62.68-26.62"/>
    <path d="M84.73,156.23c.45,10.7,1,18.72,2.48,22.92C82.56,195.6,88.77,190,84,199.28c11.32-.12,19.45-1.48,21.85-5.09,4.46-6.64,4-26.11,3.18-41C99.86,152.84,91,156.1,84.73,156.23Z"/>
    <path d="M77.28,81.41C72.9,89.9,66.42,92.72,60.42,96.75c-4.8,3.22-14.9,7-18.17-1-2.41-5.87-16.44-13.73-13.74-27.94.89-2.6-.88-2.47.73-4,.67.56,2.45-.5,5.09-.74.3,0,1,.27.9-.12a4.51,4.51,0,0,0-6.45-1c.1.45.19.89.31,1.3-1.89-.31-2-1.05-2.48-2.2-.63-1.38-2-1.71-1.75-5.61.17-3.1-1-8.41-.44-12.72-5-35.82,102.77,2.6,61.94,28.5-.49,1.07-4.22,2.33-5.66.25M45.82,60.47a12.27,12.27,0,0,1,4.48-2.2c2.12-.59,4.23-.41,5.42-.65-2.27-.45-6.28-2.42-10.5,2.75C44.65,61.06,45.37,60.77,45.82,60.47Z"/>
    <path d="M26.67,114.45c-7,24.56.47,39.24-5.87,49.12l-.93,6.3c-6.84,4.14-13,4.56-16.37-.58C-6.23,154.46,8.45,133.61,14,110.44c2.34-7.06,1.75-20.16,5.86-23,4.1-4,1.81-5.21,8.3-7.44,4.5-1.55,5.76.5,8.51,2.94.88.79.09,2.25-1.47,2.64a3,3,0,0,1,.14,1.47c2.84.41,4.2,2.09,4.16,4.65,4.89,1.39,4.2,3.81,3.12,6.73-.93,2.53-3.3,5.74-6.05,4.26C32,111.59,28.66,111.59,26.67,114.45Z"/>
  </g>
  <g class="skinOverlapLine">
    <path d="M24.75,86.71c3.76-2.87,8.39-6.23,10.46-1.12"/>
    <path d="M29.06,89.35a30.26,30.26,0,0,1,6.29-2.29"/>
    <path d="M33.7,93.18a11.12,11.12,0,0,1,5.81-1.47"/>
    <path d="M36.58,102.7c.47-1.46.79-2.89.23-4.09a6.48,6.48,0,0,0,4.71-.8"/>
  </g>
  <g class="skinFoldLine">
    <path d="M20.8,163.57a11.24,11.24,0,0,1-3.29,3.31"/>
    <path d="M82.05,58.32c.65-10,13.27-4.84,7.14,6.2"/>
    <path d="M83,60c3.58,1.73-1.73,6.19,1.09,6.49,1.45.16.79-1.93,3.21-4.45,2.67-2.78-1.68-5.88-2.51-4.06"/>
  </g>
  <path class="skinEdgeLine" d="M20.86,89.14c.38,1.56,2.76.18,3.33,2.36.89,3.38,3,.67,4.17,3.47A3.29,3.29,0,0,0,31,97"/>
  <path class="amyChoker" d="M60,97.06c-.53.33-1.1.66-1.72,1,0,.31,0,.62-.08.93,7.32,2.06,22.53,1.06,28.71-.56-.19-.68-.37-1.4-.53-2.16C80.53,97.8,66.6,98.7,60,97.06Z"/>
  <path class="lipFemaleMedium__noStroke" d="M45.5,83.16c-2.78,1.67-5.43.59-8,.62a7.78,7.78,0,0,1,1,1.78c2.38,4.21,8,4,12.35-1.31,1.35-1.66,1.53-2.93,3.49-4.23C52,81.46,48.69,81.24,45.5,83.16Z"/>
  <path class="lipFemaleMedium" d="M55.42,79.06c-2.29,2.56-6.15,1.83-9.92,4.1-2.78,1.67-5.43.59-8,.62,1.42-.6,1.1-1.49,2.42-1.61,3.25-.17,5.39-1.79,7.58-2.09C49.12,79.85,51.34,80.34,55.42,79.06Z"/>
  <path class="lipEdgeLine" d="M38.43,85.56c2.38,4.21,8,4,12.35-1.31"/>
  <g class="cheekLine">
    <path d="M36.27,78.37a12.26,12.26,0,0,0,.19,3.28"/>
    <path d="M46.16,71.48c1.05.12,1.71,1.79,4.65,2.67,2.52.75,5.68,1.22,7.63,2.22"/>
    <path d="M50.52,92.38a11.15,11.15,0,0,1-6.9,1"/>
  </g>
  <g class="noseLine">
    <path d="M36.35,61.45c1.89,4.67-1.23,9.4-1.49,13.41-.2,3.08,2.09,5.93,7.86,2.44"/>
    <path d="M46.16,71.48c1.39.62,2.46,3.45.92,4.71"/>
    <path d="M45.24,75.58c-1.25-.61-3.16.68-4.62,1.79"/>
  </g>
  <g class="eyeFoldLine">
    <path d="M29.69,67.1c.88,1.15,3.58.18,4.94-1.11"/>
    <path d="M47.54,62.25c1.67,1,5.25.56,7.53-1.56"/>
  </g>
  <g class="eyeCornerLine">
    <path d="M59,56.88c-1,1.37-2.46.83-3.26.74"/>
    <path d="M28.78,62a1.34,1.34,0,0,0-.44.8"/>
  </g>
  <g class="eyeCreaseLine">
    <path d="M33.36,60c-3.4-1.52-5.84.42-6.27,1.57"/>
    <path d="M56.52,56.32c-3.55-.71-7.66-2-10.71,2.5"/>
  </g>
  <g class="eyebrowLightBrown">
    <path d="M41.51,53.85c2,3.36,6.56-3.57,17.34-.46C52.67,48.77,42,51.46,41.51,53.85Z"/>
    <path d="M24.85,55.72a11,11,0,0,0,0,1.78c5.23-1.84,7.74,1.33,8.87-1.72C33.29,54.68,28.89,54,24.85,55.72Z"/>
  </g>
  <circle class="amyEarring" cx="83.96" cy="69.46" r="1.3"/>
  <g class="hairDyedRed">
    <path d="M64.12,4.14c-1.64-1.91-9-1.91-12.32.22-4.91-1.66-11.86.81-14.07,6.1-6.86,2.68-8.5,8-6.11,12.69C55.8,18.77,66.42,16.84,64.12,4.14Z"/>
    <path d="M80.29,55c-1.46.59,0,4.88-4.48,8C74.75,44.9,69.75,48.6,62.74,41.92c4.94,23.11-4.29,32.37,2.12,49.8-7.63-12.43.63-28.53-6.32-47.43-5.45-14.57-16.18-17-25.76-10.62a8,8,0,0,0-5.37.55c-1.68,2.19-2.58,4.88-3,8.56-3-4.81-1.84-9.82,1.39-12.65,2.62-4.91,11.45-13.63,22.89-15.7,18.89-8.17,40.21.48,47.85,14.85,7.84,14.73,9,38.28-6,43.31C95.82,79.9,87.42,84,94.85,90.5,84.63,83.27,96,78.07,86.36,71.28c2.71-4.08,5.34-4.14,6.43-12.35C93.85,51,83.33,45.67,80.29,55Z"/>
    <path d="M68.21,15.72C61.14,15,60.6,8.85,64.12,4.14c4-5.41,15.29-6.24,23.38,4.47C100.81,13.18,102.32,24,97.82,28.37S82.5,29.64,79.63,23.65C73.56,23.81,70.13,19.66,68.21,15.72Z"/>
  </g>
  <g class="hairOverlapLine">
    <path d="M68.21,15.72c6.63.61,10.23-12.94,20.3-6.47,10.79,7.21-.93,13.83-8.88,14.4"/>
    <path d="M62.74,41.92a23.43,23.43,0,0,0-2.81-8.23"/>
    <path d="M32.78,33.67c1.45-8,6.84-14,15.92-19.24"/>
    <path d="M28.75,28.89a4,4,0,0,0-2.94,1.24"/>
    <path d="M51.8,4.36a6.81,6.81,0,0,1,4,7.78"/>
    <path d="M37.73,10.46c.64,2.09,2.8,4.43,4.61,5.86"/>
  </g>
  <g class="hairFoldLine">
    <path d="M92.84,14.82c2.24.64,2.24,1.86,4,2.65"/>
    <path d="M81.78,7.67c-.7-1.58-4.54-4.43-7.54-4.26"/>
  </g>
</svg>
