<svg viewBox="0 0 226.81 578.31">
  <g class="sign">
    <rect class="signHandle" x="187.94" y="94.42" width="6.93" height="73.59" transform="translate(-2.75 4.11) rotate(-1.22)"/>
    <polygon class="paperMedium" points="226.56 102.64 160.25 90.41 158.64 15.3 224.38 0.25 226.56 102.64"/>
    <g class="signDisplayLine">
      <line x1="179.42" y1="28.11" x2="179.63" y2="37.73"/>
      <path d="M174.63,38.25l-.3-14.13c-.13-4.64,3-5.08,3.09-.52"/>
      <polyline points="167.97 51.22 170.81 60.43 174.01 51.44"/>
      <line x1="203.13" y1="50.32" x2="203.08" y2="61.23"/>
      <path d="M167.8,69.82l.26,12.54c.06,4.65,3.62,4.73,3.43.3"/>
      <path d="M212.34,80.08c-1.25-3.29-6.6-2.75-5.61,1.84.65,3,5.74,1.36,6.8,5.42,1.27,4.91-4.72,4.49-7.14,1.44"/>
      <line x1="170.5" y1="76.13" x2="166.43" y2="75.72"/>
      <path d="M199.08,71.89l0,13.87c0,5.4,4.9,5.6,4.66.42"/>
      <line x1="202.42" y1="78.2" x2="196.92" y2="77.85"/>
      <path d="M209.68,61.3l-.08-7.57c-.12-5.34-6.55-4.54-6.48-1"/>
      <path d="M198.64,61.56l-.17-7.62c0-5.38-5.94-4.49-5.7-.77"/>
      <path d="M184.4,30.28c-.09-4.22-4.17-3-4.92.36"/>
      <line x1="176.32" y1="29.68" x2="172.76" y2="30.01"/>
      <line x1="173.59" y1="75.84" x2="173.74" y2="85.91"/>
      <path d="M178.84,79.42c-.31-4.12-4.34-4.76-5.21-1.85"/>
      <path d="M189.57,50.7l.11,15.3c.11,5-6,5.24-6.2.2"/>
      <path d="M181.1,60.37c-.7,2.35-5.41,2.29-5.37-4.3,0-5.57,4.58-6.32,5.26-2.57.52,2.84-3.62,5.2-5.22,1.89"/>
      <path d="M192.13,35.11c-.95,2.27-5.88,2.81-6-3.85-.07-5.23,5.1-7.3,5.86-3.42.57,2.94-3.94,5.38-5.72,2.1"/>
      <path d="M200.77,34.09c-.71,2.58-6.15,3-6.46-4C194.05,24,200,22.84,200.44,27c.29,3-4.11,4.92-6.14,2.08"/>
      <path d="M186.55,86.32c-.89,2-5.67,2.11-5.64-5.09,0-5.69,4.82-5.86,5.53-1.94.55,3-3.79,4.35-5.48,1.25"/>
      <path d="M198.53,56.72c-.58-3.24-6.12-2-6,1.71.07,3,4.06,4.13,6.09.76"/>
      <path d="M195.26,88l-.17-7.48c0-5.28-5.74-5.1-5.51-1.43"/>
      <path d="M195.15,83.28c-.06-2.73-5.93-3.19-5.82,1.55.07,3.09,3.92,4.51,5.88,1.45"/>
      <path d="M189.59,53.38c-1-4-6.31-3.33-6.32,2.72,0,5.55,5.21,6.39,6.35,1.3"/>
    </g>
  </g>
  <g class="platter">
    <path class="platterDark" d="M10.6,254.45l2.2,3.38c2.2,3.46,17.92,6.38,37,6.71s34.88-2.05,37.23-5.43l2.25-3.21Z"/>
    <path class="platterMedium" d="M89.66,255c.07-3.82-17.63-7.22-39.53-7.6s-39.7,2.43-39.77,6.25c0,.86.86,1.69,2.47,2.47,2.32-3.38,18.13-5.77,37.24-5.44s34.84,3.25,37,6.71C88.75,256.67,89.65,255.87,89.66,255Z"/>
    <path class="platterLight" d="M50.07,250.69c-19.11-.33-34.92,2.06-37.24,5.44,5.59,2.73,20.06,4.84,37.06,5.13s31.54-1.33,37.22-3.86C84.91,253.94,69.19,251,50.07,250.69Z"/>
  </g>
  <g class="skinGallic">
    <path d="M94.28,242.6c1.62-5.35,3.36-11.22,5.2-16.71,1.12-3.33,2.06-7,3.11-10.63h0C96.55,224,88,228.81,94.28,242.6Z"/>
    <path d="M112.17,138.7c-1.51,5.87-7,9.67-.91,12.28Z"/>
    <path d="M112.3,113.43c-5.49,14.4.86,15.75.43,22.33-.32,4.69-4.87,10.64,1.38,23.21-1.31,2.62.49,3.63,1,4.29,3.38,5,3.24,9.27,5.38,11.26,5.44,5.06,23.24-1.21,39.56-10.36C158.25,124.77,136.45,112.31,112.3,113.43Z"/>
    <path d="M165.29,165c-1.61,4.58-3.77,19.14-2.41,21.18,4.41,4.24,8.33,3.54,12.81,12.76,1.68,3.46,2.63,8.62,5.18,13.88,3.68-5.56,4.75-13.75,5.26-22.06.36-4.68-2.43-7.28-3.18-10.74-1-4.41.18-6.34-1.12-10.26-.84-3.16,3.82-5.87,5.87-4,2.7,2.61,15.69-6.31,17.46,1.15.19,3.45,3.42,3.51,2.3,7.33-1.12,1.86.84,4-.74,6.15-1,1.49-.69,2.46-1.71,3.95-1.62,2.36-4.73,4-5.25,8-2.77,18.16,7.07,43.95-7.25,57-4.43,4.05-13.28.15-20.29-6-.8,7.5-5,18.39-6.4,27.62-6.13,39.23,4.44,36.82,5.89,56.31,1,5.91-1.36,14.41-4.34,23-2.74,10-7.33,49.53-15.14,82.43,25.83,18.66,15.31,55.32,36.51,76.21,20.94,11.53-10.71,66.42-19.31,60-4.12-1.57-3.92-5.53.15-8,3.53-2.18,3.1-6.91,2.33-11.62-2-12.16,1.7-24.93-.93-31-4.28-8.87-16.95-28-29.12-46.62-.77,19.52-10.68,47.86-6.5,55.6,13.16,21.53-25.4,55.6-39.89,47.94-3.25-4.43.37-7.11,4.49-7.81,3.05-.52,5-4.69,5.58-6.68,3.54-11.1,6.31-22.79,10.62-31.23,2.41-27.22-6-45.64-5-89.39-3.45-6.84-2.77-13.54-5.26-21.51-7.2-23.08-12.76-64.17-10.92-93.82,2.11-11.92-2.69-24.43,2.48-41.87-3.46,2.26-9.18,2.1-17.06.85C56.8,280,41.18,270.33,30.66,270.33c-8.13-.46-12.62.41-16.07-.39-6.77-1.57-5.75-5.42-7.64-8.72-3.51-1.71-3.61-3.77-5.74-5.35-2.51-1.49.24-5.26,4.33-3.61.39-3.54,8.17-7.24,10.53-6.37,1.47-1.31,3.62-1.62,5-.47,4.57-2,5,1.41,6.85,4.4,1.1,1.34-.24,3.07-2.13,2.29a3.73,3.73,0,0,1-4.79,0c-1.81,2.44-5.64,1.6-7.6-1-1.91.88-3.61,1.81-2.76,3.37l2.2,3.38c5.87,7.86,63.59,9.21,73.83,1.9.44,0,1-.05,1.53-.07,3.12-4.86,6.83-20.38,11.32-33.77,4-11.76,5.69-27.44,18.08-34,5.64-3,7.64-2.89,16.69-8.66,1.7-1.36,3.72-12.25,2.5-19.2"/>
  </g>
  <g class="cupcakes">
    <g class="cupYellow">
      <path d="M37.9,254.76c.24,1.85,9,2,9.28.16l.88-6.15-10.83-.18Z"/>
      <path d="M54.94,255.72c.24,1.84,9,2,9.29.15l.87-6.15-10.82-.18Z"/>
    </g>
    <path class="cupGreen" d="M64.44,257.76c.24,1.84,9,2,9.29.16l.87-6.16-10.82-.18Z"/>
    <g class="cupBlue">
      <path d="M45.54,258.74c.24,1.85,9,2,9.29.16l.87-6.15-10.82-.18Z"/>
      <path d="M27.5,257.34c.23,1.84,9,2,9.28.15l.87-6.15-10.82-.18Z"/>
    </g>
    <path class="vanilla" d="M48.06,248.77c1.79-.75,1-3.55-.85-3.69,1.1-3.57-3.32-1.6-4.6-4.33-.26,2.71-5.65.51-4.54,4-2.41.32-3,3.1-.84,3.81C38.86,249.12,46,249.65,48.06,248.77Z"/>
    <g class="strawberry">
      <path d="M65.1,249.72c1.79-.75,1.1-3.71-.85-3.69,1.21-3.62-3.65-2.3-3.89-4.8-1,2.23-6.11.92-5.24,4.5-2.13.52-2.84,2.65-.84,3.81C55.76,250.4,63,250.61,65.1,249.72Z"/>
      <path d="M37.65,251.34c1.79-.75,1.11-3.71-.84-3.69,1.2-3.62-4.14-2.17-4.78-4.74-.45,2.37-5.68,1.31-4.36,4.44-2.13.52-2.84,2.65-.84,3.81C28.31,252,35.56,252.23,37.65,251.34Z"/>
    </g>
    <path class="vanilla" d="M74.6,251.76c1.79-.75,1-3.55-.85-3.69,1.11-3.56-3.32-2.26-4-4.83-.45,2.37-6.29,1-5.17,4.53-2.41.32-3,3.1-.84,3.81C65.4,252.12,72.5,252.65,74.6,251.76Z"/>
    <path class="chocolate" d="M55.7,252.75c1.79-.75,1.25-3.38-.85-3.69,1.13-4.1-4.59-2.15-5.23-4.72-.45,2.37-5.22,1.29-3.9,4.42-2.34.46-3.11,2.57-.84,3.81C46.38,253.38,53.6,253.64,55.7,252.75Z"/>
    <g class="frostingCreaseLine">
      <path d="M47.21,245.08c-1,1.06-8.21,1-9.14-.3"/>
      <path d="M64.25,246c-1.12,1.16-8,1.16-9.13-.3"/>
      <path d="M54.85,249.06c-.56,1-8.39.77-9.13-.3"/>
      <path d="M73.75,248.07c-1,1.06-8.34.77-9.13-.3"/>
      <path d="M36.81,247.65c-1.13,1.16-8.93,1-9.14-.3"/>
    </g>
  </g>
  <g class="skinOverlapLine">
    <path d="M125.3,357.86c5.7,2.21,14.07,1.78,18.85-1.08"/>
    <path d="M159.5,354.57a17.09,17.09,0,0,1-13.6,1.84c-1,33.06-8.81,71-6.41,82.31a110.84,110.84,0,0,1,2.37,32.95"/>
    <path d="M168.75,346.19c-1.18,2.62-3.16,5.09-4.57,5.94"/>
    <path d="M125.71,222.72c-8,21.74-13.1,48.69-28.26,60.18"/>
    <path d="M180.87,212.8c3.21,6.64,7.81,13.2,8.11,19.61"/>
    <path d="M172.64,241.05a163.43,163.43,0,0,0,1.91-20.12"/>
    <path d="M16.07,245.89c1.64.57,1.79,2.63,4.23,4,1.38.78.7,1.83.66,2.22"/>
    <path d="M21,245.42c1.94,1.27,3.19,3.36,4.45,3.94s.84,1.78.27,2.75"/>
    <path d="M5.54,252.26c3.11,1.17,4.15,4.34,7.26,5.57"/>
    <path d="M7,261.22a15.6,15.6,0,0,1,4.82,4"/>
    <path d="M13.36,251.08a4.94,4.94,0,0,1-.67-1.34"/>
    <path d="M139.3,146.35c1.86,3.69,6.62,1.92,8-1.91.86-2.38,3-3.95,3.24-6.18"/>
  </g>
  <g class="skinFoldLine">
    <path d="M147.75,138.41a17.92,17.92,0,0,1-.94,1.93"/>
    <path d="M143.38,137.93c-.64,1.77-2.18,3.71-.5,4.28,1.3.44.56-1.72,2.11-4"/>
  </g>
  <path class="skinCreaseLine" d="M158.34,206.33a123.43,123.43,0,0,1-2.1,34.15"/>
  <g class="heel">
    <path d="M131.71,559a127.55,127.55,0,0,1,1.57,18c2.75.24,9.46.51,9.8-1.15-1.08-12.85,2-19.78,3.15-29.67C145.4,550.11,139.2,553.72,131.71,559Z"/>
    <path d="M195.79,537.42c3.06,5,8.57,12.59,11,18.11,2.63-.83,8.47-3.28,8.16-4.95-5.91-11.47-6.28-18.44-9-28C206.66,526.57,200.7,529.7,195.79,537.42Z"/>
  </g>
  <g class="shoeStrap">
    <path d="M105.1,574.61a5.73,5.73,0,0,0,6.92-3.48,34.12,34.12,0,0,1-7.72-8.48,9.48,9.48,0,0,1-4,4.14A20.81,20.81,0,0,0,105.1,574.61Z"/>
    <path d="M128.32,556.52a243,243,0,0,1-16.47-18l-1,2.88c3.85,4.52,10.19,11.66,15.28,16.86Z"/>
    <path d="M134.19,531.1a14.22,14.22,0,0,1,0-2.46c-5.39.12-13.76-.78-18.33-2.21l-.14,2.47C119.83,530.31,128.55,531.2,134.19,531.1Z"/>
    <path d="M177.61,565.19c2.06-.92,4.08-3.56,4.92-6a36.51,36.51,0,0,1-10.68-5.36A9,9,0,0,1,170.7,559C171.66,561.06,174.86,564,177.61,565.19Z"/>
    <path d="M189.11,512.91a20.37,20.37,0,0,1-.94-2.27c-5.12,2.22-13.9,5.82-18.4,6.22l1.11,2.33C175,519,183.79,515.21,189.11,512.91Z"/>
    <path d="M190.54,539.6a216.11,216.11,0,0,1-19.15-10.93l-.17,3.24c4.66,2.89,11.76,6.65,18.06,10.13C189.68,541.25,190.1,540.44,190.54,539.6Z"/>
  </g>
  <g class="shoe">
    <path d="M93.72,577.57c10.79.67,16.34,1.75,22.64-5.37,12.27-13.86,28.5-19.45,29.87-26.08,1.88-9.13-8.73-13-9.57-21.24-7.47,3.36,5.5,20.4-8.1,31.44a164.47,164.47,0,0,0-17.67,16c-3.37,3.55-10.32,2.1-17.35,2.1C92.18,574.41,92.12,577.47,93.72,577.57Z"/>
    <path d="M168.6,571.79c10.42-2.19,13.82-5.44,17.42-14.62,6.59-16.84,9.83-19.53,17.26-27.4,10.51-11.14-9.95-14.89-14.33-24.12-5.62,6,11.5,15.69,3.13,31.08a162.23,162.23,0,0,0-9.94,21.52c-1.76,4.57-5.64,8.92-14.17,10.56C166.64,569.06,167,572.12,168.6,571.79Z"/>
  </g>
  <g class="bikini">
    <path d="M166.42,307.48c2.72,6.45,5.67,13.54,5.2,19.79-1,13.74-11.13,24.94-19.54,27.91-3.64,1.28-5.74.92-7.93,1.6-7.83-23-27.81-34.26-49.49-32,0-4.71,1.06-8.4.37-11.9C110.28,308.11,157.33,304.33,166.42,307.48Z"/>
    <path d="M94.28,242.6c1.62-5.35,3.36-11.22,5.2-16.71a8.49,8.49,0,0,1-1.94-4.4C93,227.09,89.62,232.38,94.28,242.6Z"/>
  </g>
  <g class="bikiniStrap">
    <path d="M162.34,184.59c-8.66-.25-19.47-2.32-27.23-2.42-1,0-3,2-2.53,2.15,8.68-.2,20.1,2.25,31.2,2.65C164.25,186.85,163.06,184.61,162.34,184.59Z"/>
    <path d="M172.64,241.05c-14,1.52-44.67-.88-52.37-2.11l-.77,2.41c5.5,1.06,41.3,4,52.72,2C173.34,243.13,173.3,240.88,172.64,241.05Z"/>
    <path d="M152.79,244.17c-5.09,6.65-2.29,18.81-4.66,27.46-.12.69,3,1.27,3.17.58,1.79-9.25-1.91-20,2.7-27.17Z"/>
    <path d="M155.5,244.19c2.55,7.63,2.14,18.58,3.63,27.62.1.69-3.08,1.15-3.18.46-.82-9.59.3-19.29-1.69-27.25Z"/>
  </g>
  <g class="bikiniStrapDark">
    <path d="M153.33,245.21c-.45,6.79-5.57,14.43-2.36,18.18a4.91,4.91,0,0,0,2.82.83c-3.76-3.67,1.55-13.42,1.6-18.93A4,4,0,0,1,153.33,245.21Z"/>
    <path d="M154.46,245.38C155,252,148.19,260,156.66,259c-5-1.41.34-9.2-.3-14.17A3.3,3.3,0,0,1,154.46,245.38Z"/>
    <path d="M153.92,187.21c-3.44,3.31-8.93,5.49-3.92,8.65-2-1.39,2.71-5,5.61-8.11A2.59,2.59,0,0,1,153.92,187.21Z"/>
    <path d="M154.62,240.4a2.23,2.23,0,0,1,2.44.72C154.88,244.6,151.27,243.35,154.62,240.4Z"/>
  </g>
  <g class="bikiniStrap">
    <path d="M154.06,186.21c-1.08,6.49-1.66,12.59-2.62,16.66-.09.37,2.9.74,3,.36,1-4.6.42-11.11,1.08-16.83"/>
    <path d="M155.19,186.44c-.62,6.4.46,12.82-.16,19.33,0,.42,3,.41,3,0,.17-6.09-1.6-13.52-1.33-19.25"/>
    <path d="M153,264.15c5.15.71,7.58-3.37,6-8.61-1.08-3.53-2.43-6.09-3-10.5a3.12,3.12,0,0,1-1.56.34C154.43,252.89,161.1,261,153,264.15Z"/>
    <path d="M156.81,244.54a4.2,4.2,0,0,1-1.2.67c2.39,6,11.17,12.32-.38,13.89C171.33,258.48,158.21,249.56,156.81,244.54Z"/>
    <path d="M156.71,187.5a2.87,2.87,0,0,1-1.42.25c-1.15,3,1.23,8.5-5.11,8.22C159.32,199.43,155.87,190.47,156.71,187.5Z"/>
    <path d="M157.06,240.61c-.8,1.62-2.12,2.34-3.25,2.17a3.18,3.18,0,0,0,1.58,2.51C158.63,244.18,157.77,241.79,157.06,240.61Z"/>
    <path d="M155.23,240.16a2.93,2.93,0,0,0,.16,5.13C151.41,246.07,151,239.83,155.23,240.16Z"/>
  </g>
  <g class="clothesFoldLine">
    <path d="M158.72,310.58a161.09,161.09,0,0,0-20.42.35"/>
    <path d="M155.93,313.2a43.56,43.56,0,0,0-11.17.35"/>
  </g>
  <path class="lipFemaleMedium" d="M114.11,159c-1.31,2.62.49,3.63,1,4.29C116.58,162.63,114.94,160.61,114.11,159Z"/>
  <path class="eyeLashLine" d="M110.41,131.86a3.18,3.18,0,0,0,2,.7"/>
  <path class="eyebrowLightBrown" d="M110.13,125a14.78,14.78,0,0,0,.24,1.48,14.45,14.45,0,0,1,3.48,1A10,10,0,0,0,110.13,125Z"/>
  <g class="hairLightBrown">
    <path d="M189.15,132.34C193,143.21,205.06,168.8,199,175c2.38,3.58.59,13.11-4.93,15.81.65,4-4.69,10.11-10.8,10-3.05,5.43-10.54,5.61-16.24,1.61-6.47,2.5-12.76-2.26-14-9.33-12.91-6.62-1.16-27.58-1.9-54.94Z"/>
    <path d="M123.91,172.05c-4-9.33-1.74-18.15-.29-24.78,2.44-11.1-2.61-17.89-2.8-23.32a14.74,14.74,0,0,0,12.07,5c4.34,6.67,9.93,10.42,18.28,9.2,6.69,4.53,24.87,4.2,29.34-1.41,11.27,1.56,15.15-19.19,7-23.23,2.56-22.11-20.71-34.44-46-31.18-14.16,1.83-27.43,6-29.44,20.65-3.07,19,4.47,22,7.68,39.42C120.85,147.89,115.8,158.26,123.91,172.05Z"/>
  </g>
  <g class="hairOverlapLine">
    <path d="M187.55,113.54c-.59,3.1-1.38,6.57-3.4,9.13.76,3.77-.39,11.29-3.64,14.1"/>
    <path d="M184.15,122.67c-18.21-9.25-19.05,15.25-33,15.51"/>
    <path d="M132.89,129c12.44.56,15-21.1,38.47-6.44"/>
    <path d="M120.82,124a57.33,57.33,0,0,1,.78-17c3.16,2.43,16.47-6.48,31.65,11"/>
  </g>
</svg>
