<svg class="presence" 
  xmlns="http://www.w3.org/2000/svg" viewBox="0 0 1212.5 2926.85">
  <g class="soleWhite">
    <path d="M973.65,2848.93c6.88,12.45,8.53,26.54,3.35,42.78-18.35,15.88-114.1,29.16-147.65,22.71-11.83-2.27-26.38-9.14-40.07-10-13.34-.86-42-6.28-52.33-15.93-21.31-46,13.7-75.57,34.21-85.65Z"/>
    <path d="M249,2870c6.46,12.8,7.4,25,1.13,40.9-19.91,14.89-120,19.07-154.42,10.85-12.15-2.89-80.29-13.62-90.43-23.81-17.68-42.5,23.8-75.95,47.53-85.71Z"/>
  </g>
  <g class="bennettShoe">
    <path d="M933.83,2669.07c4.54,68.13,39.82,93.41,39.82,179.86-21.58,25.36-113.37,28.4-131.13,26.4-20.77-2.35-33.91-5.87-47.63-6.84-15.26-1.08-23.5-1.77-31.58-4.19-5.41-18.28.35-42.28,7.85-61.48,19-31.56,40.54-67.83,35.9-136.71Z"/>
    <path d="M243.87,2683.26c-17.19,86.09,16.06,119.33,5.12,186.69-23.78,24.18-119.17,21.36-137.48,18.42-21.42-3.45-69.32-10.37-77.57-13.22-4.6-18.54,3.52-42.51,18.86-63,53.06-32.6,74.43-85.52,74.29-138.09Z"/>
  </g>
  <path class="converseLogo" d="M815.92,2843.86c22.42,5.27,24.74-71,2-74.67C797.5,2765.89,794.44,2838.81,815.92,2843.86Z"/>
  <path class="bennettJeans" d="M838.79,1473.51c22.86,65.23,30.84,132.3,7.76,203.25,7.39,14.1,5.64,27.19-9.06,38.84,9.22,123.17,14.85,240.52,13,345.65-1.54,43.29,35.91,67.95,7.77,89.33,23.62,13.5,25.14,32.14,16.82,53.07,24.87,66.5,33.3,175.08,52.79,270.57,8.71,42.71,45.07,99.06,13.24,143.7,38.33,29.16,4,44-3.47,78.6-79.53,16.95-183.69-15.1-154.14-74.91-33.07-15.28-20.39-63.81-28.4-109.59-25-71.66-47.77-170.78-69.82-278.14-4.58-21.75-28.62-27.47-18.32-63-29.76-29.76-6.86-41.21-49.21-182-17.7-68.7-48.08-156.23-53.8-265-50.36,147.66-111,261.54-140.78,354.25-14.71,32.67-9.78,63.94-40.35,74.4q18.15,20.55-3.15,41.2C367,2290,330.88,2409.37,306.37,2514.31c-9.67,41.36,9.88,104.75-34.34,124.76,29.18,31.54-13.74,51.5-32.95,82.42-33.1,4.92-72.27.66-115.69-10-16.18-38-57.39-48.35-11.6-86.12-38.74-25.36-7.67-65.18-4.58-84.7,20.06-127,41.5-251.67,71-373.13-12.59-29.76,18.32-45.79,27.47-59.52-43.32-25.19,7.78-60.69,16-131.63,23.56-202.77,58.06-393.5,105.3-567.72Z"/>
  <g class="skinEastAsian">
    <path d="M880.41,490.89C830,550.64,764.84,600.2,689.94,617.88c-78.76,18.59-128.52-35-150.23-60.87-45.75-54.6-32.26-151.82-20.06-197.74C541.75,192.16,800,386,880.41,490.89Z"/>
    <path d="M839.2,521.18c-25.87,30.18-40.25,99.18-34.5,150.93L579,649.11c12.94-57.5,23.41-126.53,14.38-149.5"/>
    <path d="M274.72,250.81c45.47-6.3,66.44-46.58,88.22-46.25,30.69.46,28.66-50,3.67-50.72,14-6.62,18.55-23.57,20-45.3,1.33-20.13-28.07-23.8-41.31-32.62C330.08,69.37,326,49,286,58.86c-11.07,4.92-20.27-9.52-45.74,11.61-57.63,40-37,88.3-47.84,136.8C209.91,208.76,271.61,240.65,274.72,250.81Z"/>
    <path d="M950.26,1253.57c-31.2,19-61.28-17.89-100.54,31.53-19.86,26.79-31.21,48.39-26.68,68.05,5.55,24,2.71,43.37,26,35.31,0,16.41,15.93,28,36.69,19.3,10.27,19.69,25.55,23.23,54.51-.55,12.93-6.72,60.66-9.38,68.22-74.25C981.17,1339.05,932.48,1272.62,950.26,1253.57Z"/>
  </g>
  <path class="hairBlack" d="M489.17,230.31c10.53-4.79,21.74-10.11,33.27-27.13-8.72,57.81,2,94.61-.66,112-8.93,57.62,1.75,62.51,3.42,89,5-20.67,5.75-46.42,7.24-56.79,13.28-49,59.24-31.75,38.15,55.38,48.52,90.89,116.7,69,166.28,137.78,35.53-36.46,150.59-22,211-98.76,87.06-110.67,116.83-242.31,20.65-347.34,21.28-7.51,36.64-6.59,59.32,6C1010.36,76.35,981,72.83,960.14,79.67c-4.71-25.7-16.21-47.5-46.35-62.18C928.47,32,937,51,937,65,827.07-28.64,598.61-19.65,538.9,92.8,492,181.21,524.32,175,489.17,230.31Z"/>
  <g class="skinOverlapLine">
    <path d="M331.46,104.77c10.43,15.37,2,22.28,8.23,33.49,5.49,9.88,13.17,14.82,26.92,15.58"/>
    <path d="M849.07,1388.46c10.86-6,15.55-24.19,8.88-40.1,10.38-1.07,16.86-6.48,20.26-15.32,31.2,21.35,61,14.41,90.45-1.49"/>
    <path d="M910.33,1345.86c-12.25,14.14-8.4,19.77-54.33,36"/>
    <path d="M885.76,1407.76c31.5-13,32-20.85,41.38-30.74,10.22-19.42-12.94-30.36-28-17"/>
    <path d="M927.14,1377c19.25-6.49,29.46,14.8,13.13,30.19"/>
    <path d="M527.62,437.43C520,474,548.08,465.1,558.55,433.7c3.77-11.34,10-15.39,12-31"/>
  </g>
  <g class="skinFoldLine">
    <path d="M358.21,111.61c-9.18.9-17.46,7.87-21.09,13.48"/>
    <path d="M543,353.85c4.78-36.12,20.91,41.34-7,78.51"/>
    <path d="M547.14,361.15c-4.56,4.62-8.75,24.16-6.34,32.1,3.86,12.71-11.69,31.17-1.32,33.92"/>
  </g>
  <path class="bennettHoodieInner" d="M557.81,644.69c42.41-26.59,215.65-32.34,260.93,15.1,8.91,9.33,5.25,22.42,3.6,33.78Z"/>
  <g class="bennettHoodie">
    <path d="M928.29,975.51c-16.3,76.6-33.82,146.53-55.62,200-8.32,20.42,22.2,44.33-13.91,71.67,4.49,9.65,7,18.93-4.28,25.67,8.63,58.76,11.68,113.95-13.9,150.83,1.07,20.33,10.69,44.93,7.49,52.42-50.28,53.48-168.33,23.26-253.53,17.11-92.43-6.67-210.73-5.35-279.19-64.18-1.07-13.91,26.29-48.78,31-72.74-2.14-28.88-18.19-65.25,11.77-95.21-3.23-23.56,2.68-42.53,18.18-56.69-16-37.44,41.72-51.35,12.84-323.05C365.62,778.68,128.15,749.8,95,665.29,65,561.53,102.47,477,126,354c-20.33-29.95,15-16.05,9.63-31-14.84-22.14-.78-29.94,20.32-34.24,16.41-25.75,22.53-64.39,32.16-80.43,5.09-8.49,89.78,34.39,86.65,43.79-7.49,22.46-25.73,43.54-32.16,65.53,13.38,12.76,18,26.74,0,43.86,13.9,23.53-8.84,17.09-8.56,37.44.37,26.8,11.77,74.88,4.28,116.59,6.79,17.58,5.82,34.13,2.21,42.44,6.93,15.2,8,21.08,2.07,28.17,15.86-9.35,18.68,5.79,34.23,8.55,17.73,3.15,48.13-3.86,65.25,22.47,17.12,4.28,20.13,14.17,32.09,17.11C391.82,638.61,414,633,427.67,646c17.14-9,31.7-5.48,43.86,9.63,13.59-18.81,22.15-11.73,36.93,1.08l362.07,59.89c18.18,7.49,53.55,1.93,52.42,37.44,25.25,2.28,44.86,11.93,55.62,33.16,46.31,23.66,63.87,66.52,92,105.9,42.78,59.91,126.3,159.74,140.13,234.27,6.35,34.23-25,79.39-88.79,133.71-4.62,21.13-20.38,33.59-51.34,34.24-.11,16.55-11.29,19.83-31,12.83-10.76,6-17.06,14.34-23.67,20.74-24.45,23.7-85.14-54.43-65.61-75.36,8.16-8.75,23.18-3.71,29.38-19.19,4.15-28.37,21.63-35.71,40.65-40.65-8.89-24.42,10-16,12-27,3-16.92-11.19-26.84,16.89-51.06-30.17-12.81-50.06-29.84-46-56.69-22.49-6.67-37.85-23.91-47.06-50.28C941.82,1005.93,933.1,994,928.29,975.51Z"/>
    <path d="M508.46,656.75c58.59-46.74,125.48-1.47,186.7,8.87,79.47,13.41,181.77,1.47,185.19,53.83C877.91,740,841.79,757.66,803,789.26c-32.66,26.63-66,71.91-135,60.58C586.78,835.57,492.33,669.61,508.46,656.75Z"/>
  </g>
  <g class="clothesDisplayLine">
    <path d="M615.42,1516.22c2.35,61.47-1.64,119.38-21.09,168.64"/>
    <path d="M763.31,2864.3c-7.62-2.84-25.83-7.09-31.16-16.36"/>
    <path d="M33.94,2875.15c-8.55-2.06-21.54-1.56-31.44-10"/>
  </g>
  <g class="clothesOverlapLine">
    <path d="M979.64,1234.38c5.93,25.24,35.54,62.87,59.9,73.81"/>
    <path d="M840.58,1423.72c-77.55,36-188.82,34.43-284.88,11.21-71.28-17.22-167.31-33.62-209.33-78.6"/>
    <path d="M156,288.75c28.82,3.89,68.87,16.9,86.65,28.89"/>
    <path d="M371.08,1695.4c42.16,27.79,129.35,38.17,192.82,28.57,53.11-8,124.34,25.09,191.41-8.49"/>
  </g>
  <g class="clothesFoldLine">
    <path d="M135.64,323c17.62,11.29,50.17,12.16,38.29,33.76"/>
    <path d="M126,354c19.25,6.67,27.89,13.55,21,20.71"/>
    <path d="M197.3,328.88c16.18,13.49,35.95,16.18,45.31,32.62"/>
    <path d="M238.33,515.53c-30.25-16.48-77-9.59-105.74,14.68"/>
    <path d="M240.54,558c-34.88-19.75-89.08-3.5-115.14,27.06"/>
    <path d="M184.72,588.63c-23.43,7.3-43.94,18.93-58.42,39.54"/>
    <path d="M216.17,611.1c-21,20.64-33.92,43.28-29.66,70.1"/>
    <path d="M242.61,586.14c-90.25-.21-77.31,88.79-91.15,87-13.36-1.75-9.11-42.22,14.38-60.21"/>
    <path d="M342.09,617.16c-56.27-22.27-96.26,56.85-64.8,116.17"/>
    <path d="M374.18,634.27c-20.83,3-35.39,15.74-39.37,45.13"/>
    <path d="M427.67,646c-25.14,44.46-41.92,92.64-25.45,155.6"/>
    <path d="M471.53,655.67c-17.18,21-16.88,76.33-31.56,70.47-11.64-4.64-3.68-20.54,9.88-39.55"/>
    <path d="M799.48,720.75c-14.38-18-86.29,15.28-181.56-21.57"/>
    <path d="M584.67,737.82c34.19,18.35,57.28,42.85,65.61,75.5"/>
    <path d="M773.41,772.88c-32.71,8.67-61.7,22.87-81.79,50.33"/>
    <path d="M376.32,1204.43c7.34,8.5,19.46,15.73,34,22.32"/>
    <path d="M358.14,1261.12c21.35,23.1,50.64,38.41,85.42,48.32"/>
    <path d="M834.28,1389c-10.36,6.46-24,12.67-36.6,12.09"/>
    <path d="M824.64,1363.37C791.5,1372.72,758,1377.57,724,1376"/>
    <path d="M822,1343.65c-14,3.74-31.44,5.68-44.94,3.54"/>
    <path d="M822.84,1310.34c-64.55,2.45-121.91-4-168.07-24.27"/>
    <path d="M607.14,986.78c19.77,81.15,49.25,152.11,94.37,206.72"/>
    <path d="M654.77,1033.52c52.68,122.81,111.34,207.67,187,185.15"/>
    <path d="M858.76,1247.22c-8.51,1.28-15.7,1.58-20.64.21"/>
    <path d="M752.74,1244.73c29.66,24.27,80.89,41.34,14.38,30.56"/>
    <path d="M854.48,1272.89c-11.66,5.61-22.46,6.75-32.53,4.2"/>
    <path d="M721.28,923c30.8,51,66,90.54,107,115"/>
    <path d="M923,754.08c-18.32,45.76-14.75,116.69,11.34,48.46"/>
    <path d="M978.57,787.24c-11.88,8.45,8.75,30.57,3.36,47.65"/>
    <path d="M910.92,903.2q20.15,21.49,17.37,72.31c31.17-66,8.09-107,19.48-111,9.69-3.37,13.22,9.53,10.79,32.36"/>
    <path d="M915.42,862.75c9.85,17.19,15.36,33.46,15.28,48.54"/>
    <path d="M967.55,972.4c28.76,20.31,82.68,29.66,124,46.74"/>
    <path d="M956.11,1008.67c38.4,15,112.81,19.93,168.72,73.38"/>
    <path d="M1003.17,1059c15.61,6.93,42.57,6,74,24.9"/>
    <path d="M1049.17,1115.64c20.33,8.76,37.25,11.57,51.39,9.55"/>
    <path d="M1088,1140.47c-21.57,5.4-41.34-2.69-40.44-14.38"/>
    <path d="M1142.81,1157.55c-28.81,16.14-57.94,26.43-88.08,18"/>
    <path d="M1099.67,1212.37c-30.31,6.1-57.6,2.54-79.38-18.64-13.88,17.25-8.1,37.47,12.87,60"/>
    <path d="M1121.91,1261.12c-23.19,11.94-42.9,15.69-57.3,7"/>
    <path d="M786.59,1733.29c-49.73,19.34-98.53,26.23-145.35,6.35"/>
    <path d="M623,1756.32c20.36,10.47,39.51,30.69,58,56.39"/>
    <path d="M622.17,1792.06a983.73,983.73,0,0,0,38.13,124.7"/>
    <path d="M532.42,1744.41a259.59,259.59,0,0,1-105.63,7.94"/>
    <path d="M512.57,1785.71c-6.28-27.4-34.13,1.84-68.31,47.66"/>
    <path d="M832.65,2099.44c-34.3,40.82-81.21,56.76-154.08,21.45"/>
    <path d="M841.39,2195.55c-33.36,10.32-85.78,7.94-109.61,22.23"/>
    <path d="M373.57,2121.68C322.7,2125,276.68,2112.11,237,2078"/>
    <path d="M345,2195.55c-52.71-26.44-104.2-46.67-145.35-14.3"/>
    <path d="M858.21,2150.58c-27.94,14.78-83.54,11.61-84,19.58-.67,11.39,33.83,11.88,71.95-2.41"/>
    <path d="M666.91,2170.93c21.19,15.08,49.78,19.06,77.58,12.7"/>
    <path d="M205.64,2108c47.22,14.51,68.95,26.39-1.24,28.79"/>
    <path d="M382.77,2152.62c-27.46,2.42-88.28-31.18-94.18-13.47-4.77,14.3,45.27,17.48,81.81,34.95"/>
    <path d="M272.7,2587.91c-19.59,28.14-53.82,38.78-116.75,15.09"/>
    <path d="M111.79,2625.33c18,11,35.29,17.59,59.25,20.56"/>
    <path d="M272,2639.07c-37.45,10.79-104.52,10.48-12,23.5"/>
    <path d="M235.37,2685.6c-39.16,4.81-75.61,2-108.28-11.51"/>
    <path d="M925.58,2543.43c10.58,37.56-69.1,72.28-119.14,34.15"/>
    <path d="M941.06,2617.92c-27.39,28.76-60.83,7.44-59.16,18.44,2.1,13.84,29.38,16.68,47.65,7.94"/>
    <path d="M783.45,2621.61c29.35,16.33,104,7.6,40.47,21.89"/>
    <path d="M954.66,2659.24c-10.43,18.19-72,21.59-122,3.33"/>
  </g>
</svg>
