<svg class="presence" 
  xmlns="http://www.w3.org/2000/svg" viewBox="0 0 1080.1 1738.07">
  <g class="skinEastAsian">
    <path d="M297.26,434.83c2.5,45.93-12.81,100.13,56.66,180.23,31.15,35.91,64,74.86,154,48.2C617.68,630.79,651,543,689.45,463,503.8,277.38,297.26,153.14,297.26,434.83Z"/>
    <path d="M156.64,1096c-22.42-15.71-47-52.68-55.79-71-24,20.57-38.47-6.47-31.24-11.43,24.38-9.9,20.57-36.56,54.86-21,6.85-12.95-2.29-19,22.85-33.9,12.77-7.55,22.88-8.59,30.23,6.87C184,1029.64,174.25,1059.31,156.64,1096Z"/>
    <path d="M268.4,1304.59c-58-34-112.14-62.34-154.42-63.39-48.85-1.21-100.85,49.21-111.3,91.18-15.26,61.24,75.85,166.81,175.9,279.47l697.2,21.54C970,1539.2,1047.59,1385,1047,1321.64c-.38-42.27-41.24-97-84.52-98.79-57.18-2.43-118.62,22.94-183.32,60.37"/>
    <path d="M412.13,547.79c11.16,19,1.71,82.44-5.65,98.89-13.31,29.74-96.12,63.24-159.19,97.92-92.34,50.78-52.15,206.67-83.83,323.21-24.2,89-20.19,160.94,35.43,190.12,25,13.12,67.41-20.74,85.56-60.49-.87,26.78,1.73,39.75-2.6,55.3-10.82,39-25.92,89-17.15,133.15,94,92.63,477,69,526.86-10.62,4.48-89.69-27.49-87.1-26.63-177,.43-44.72,7.5-81.12,10.37-129.63,27.66,57,23.22,144,106.3,168.52,25.71,7.58,49.75-5,64.81-19,48.75-45.5,27.65-93.34,38-123.58,3.23-11.19,34.21-8.22,57.14-51.64,10,22,44.75,13.4,36.17-1.37-9.91-15.16,18.11-44.33-27.37-43.48-3.61-21.34,4.72-35.17-13.09-45.05-19.12-10.6-29.65,4.71-35.92,14.16,3-17-8.08-23.77-13.89-25-26.5-5.5-32.69,34.87-37.85,35.59-13.8,4.4-2.38-33.62-29.18-29.92-25.51,3.51-13.06,31.36-27.62,37.8-15.55-74.32-18.11-140.08-35.7-187.26-38.78-104-168.25-84.69-221.82-147.77-18.47-15.63-16.76-72.67-7-95.64"/>
  </g>
  <path class="hairBlack" d="M252.68,413c16.63-9.17,28.45-24.19,33.59-47.31-2.12,29.34,13.61,63.68,16.09,105.5,5.26-22.64,4-52-.48-84.68,9.86-59.9,64.7-49,52.05,44,64,64.57,162.35,13.19,223.3,80.42,32.92-35.12,120-18.1,168.6-105.56C814.47,281.78,758.78,103.25,632.35,60c11.89-23.47,40.38-24.75,67.3-18.2-21.82-21.08-64.31-20.58-90.33,9.07C594.28,21,569.37,7,531.78,1c25,7.43,41.57,25.11,53.62,48.25C462.34,15.73,297.32,60.08,260.63,186,227.37,300.17,287.53,339.9,252.68,413Z"/>
  <g class="skinOverlapLine">
    <path d="M184.1,1292c26.1,10.87,52.09,27.11,78,47.28"/>
    <path d="M879.78,1277a386,386,0,0,0-86.67,67.75"/>
    <path d="M124.47,992.66c6.2,3.34,12.41,14.28,20.43,19.16,5.15,3.14-3-10.2-3.29-28.54"/>
    <path d="M1041.58,1043c2.26-4,10.22-1.68,16.77-9.64"/>
    <path d="M1050.38,998.11c-12.62,2.91-18.5,10-20.58,7.59-2.28-2.67,2.81-9.36,8.89-24.34"/>
    <path d="M994.22,980.42c2.06-3.59,4.63-8.36,7.15-13.2"/>
    <path d="M892.83,985.71c19.76,116.84,67,118.52,50.66,191.49"/>
    <path d="M794.38,885.82c-3.94,36.59-13,58-13.51,87.82-.56,29.42-1.69,67-5.57,95"/>
    <path d="M267.61,883.23c10.44,71.34.87,201.84,16.84,314.21"/>
    <path d="M313.45,495c27.2,1.84,35.25-28.93,40.48-64.52"/>
  </g>
  <g class="skinFoldLine">
    <path d="M310.9,382.4c17.18-22.72,26.8,55.76,3.78,88.6"/>
    <path d="M321.07,393.17c-3.92,5.17-5,25.09-1.59,32.65,5.5,12.09-9.55,32.88,1.1,34.24"/>
  </g>
  <path class="skinCreaseLine" d="M529.73,977.63c-8.52,84.44,4.65,223.11-3.1,350.15"/>
  <path class="bennettUnderwear" d="M792.72,1353.75h-.78c.12,6.55,0,13.67-.38,21.51-20.63,26.53-144.63,50.28-249.26,48.92-71.16-.92-176.52,13.86-277.6-38.3a142,142,0,0,1-2.6-25.23h-.64c-72.4,27.49-122.26,147.43-90.59,224.95,1.52,10.21-14.19,28.05-10.73,44.52,35.12,34.3,72.36,51.73,111.3,72.17,124,65.06,235.32,11.59,289.43,24.57,115.13,27.61,226.74-.63,330.12-86.76,6-11.62.15-25.4-2.3-34.54C926.41,1491.41,892.49,1382.76,792.72,1353.75Z"/>
  <path class="bennettWaistband" d="M791.56,1375.27c10,20.1.93,33.68,18.75,57.24-62,48.23-193.15,54.68-230.12,52.83-99.8-5-216.29,12.25-329.93-39,12.59-21.12,9-50.09,14.44-60.48,101.08,52.16,206.44,37.38,277.6,38.3C646.93,1425.55,770.93,1401.8,791.56,1375.27Z"/>
  <g class="clothesOverlapLine">
    <path d="M888.69,1605.57c-8.19,14.29-19.49,25.32-33.09,34"/>
    <path d="M170.87,1585.61c9.15,22.49,41.38,46.94,23,52.07"/>
    <path d="M250.26,1446.37c-19.09,20.76-26.61,53.62-27.72,92.42"/>
    <path d="M810.31,1432.51c24.86,23.27,44.18,77.83,37.9,136.78"/>
  </g>
  <g class="clothesFoldLine">
    <path d="M815.86,1419.57c32.69,27.15,54.32,61,61.92,103.51"/>
    <path d="M859.3,1513.84c6.43,21.36,8.79,42.38,4.62,62.84"/>
    <path d="M254.35,1419.57q-35.06,11.34-54.9,66"/>
    <path d="M236.4,1446.37c-24,29.58-34,73-34,107.21"/>
    <path d="M562.63,1591.47a1100.35,1100.35,0,0,0-127.53,0"/>
    <path d="M624.55,1622.89c-46.9-.92-94.26,3.7-141.4,2.77"/>
    <path d="M798,1441c7.27,10.21,10.92,24.66,12.68,41.32"/>
    <path d="M785.2,1448.16c3.4,3.6,5,8.2,5.25,13.53"/>
    <path d="M573.19,1485a93.18,93.18,0,0,1,3.16,28.81"/>
    <path d="M559.52,1484.6c3.9,14.26,4.15,31.29,3.11,49.3"/>
    <path d="M476.4,1484.4a155.56,155.56,0,0,0-2.1,24.85"/>
    <path d="M264.9,1452.59a170.8,170.8,0,0,0-14.64,51.85"/>
    <path d="M278.27,1457.64a68.6,68.6,0,0,0-6,24.71"/>
  </g>
</svg>
