<svg class="presence" 
  xmlns="http://www.w3.org/2000/svg" viewBox="0 0 1425.4 1657.33">
  <path class="skinEastAsian" d="M491.11,779c-29.74,100.44-64.32,186.89-107.54,248.37,12.06-75.54,34.06-135.64,31.64-223.26-.43-32.75-23.27-37.49-29.3-62.92-5.17-37.49,3-47.85,6-73.1,2.64-22.3,24.95-27.22,34.06-35.22,3.36-32.07,20.43-36.47,36.63-37.27,27.15-1.36,26.72,18.9,30.59,43.46Z"/>
  <g class="violin">
    <path class="bowButton" d="M1176.58,653.06c-3.26-.55-7.33,23.27-4.07,23.83l47.52,6.84c3.84.59,7.53-23.17,3.69-23.77Z"/>
    <polygon class="bowHair" points="54.23 519.54 51.26 528.29 1071.76 680.03 1076.31 673.38 54.23 519.54"/>
    <path class="bowPadding" d="M1021.24,631.06c-3.59-.44-6.65,24.25-3.06,24.69l59.34,8.26c4.29.6,7.71-24,3.41-24.64Z"/>
    <path class="bowHead" d="M4.05,517.69c12.29,3.89,24.89,9,47.21,10.6l3-8.75C37,515.24,19.46,514.69,4.05,517.69Z"/>
    <g class="violinBow">
      <path d="M69,479.06c-33.61-5.77-37.93,28.81-65,38.63a116.45,116.45,0,0,1,50.18,1.85c4.34-14.18,13.14-21.42,26.16-19.34C301,547.14,658.45,601.9,1018.55,653c2.3.31,4.86-18.49,2.56-18.81C659.18,584.69,293.24,530.88,69,479.06Z"/>
      <path d="M1176.65,655.24q-46.74-6.29-94-12.69c.77,5-.59,14.65-2.72,19.1q46.66,6.57,93.15,13C1175.78,675.16,1179.32,655.72,1176.65,655.24Z"/>
    </g>
    <g class="violinLight">
      <path d="M388.26,748.43a46.77,46.77,0,0,1-2.35-7.23,161.62,161.62,0,0,1-1.67-21.91A87.39,87.39,0,0,0,366.07,751c-1.41-4.63-3.85-7.75-7.08-8.4-7.07-1.41-15.19,9.58-18.24,24.55-3.62,17.79.2,30.26,7.27,31.68C370.3,803.3,371.69,764.44,388.26,748.43Z"/>
      <ellipse cx="342.71" cy="767.32" rx="16.15" ry="7.62" transform="translate(-477.02 952.45) rotate(-78.66)"/>
      <path d="M499.5,622.35l-.08,46.1c22.83,7.27,50.1-43.84,213.93-23.05V583.14C618.26,552.88,503.06,607.81,499.5,622.35Z"/>
      <path d="M461.61,684.42l-.51-42c-13.84-3-40.84,9.84-42.14,27.51L417.32,709C424.31,709,456.12,693.68,461.61,684.42Z"/>
    </g>
    <g class="violinMedium">
      <path d="M461.1,642.41l38.32-.44.47,25,38.79,24.11a128.61,128.61,0,0,1-77.07-6.69Z"/>
      <path d="M355.79,753.21l-9.9-1.73c4.13.83,6.05,8.6,4.3,17.34s-6.53,15.17-10.65,14.34l9.89,1.73c4.13.82,8.9-5.6,10.66-14.34S359.91,754,355.79,753.21Z"/>
    </g>
    <g class="violinTrim">
      <path d="M725.55,577.24c-65.34-19.63-158.73-7.82-205.87,25.89-7.85,5.62-13.37-.29-20.31,7.93-3.79,4.49-2.82,10.24.13,11.29,7-8.17,12.47-2.27,20.34-7.86,47.23-33.57,140.66-45.1,205.95-25.27Z"/>
      <path d="M499.42,646.31c-15.54,1.76-29.26-4.32-38.32-3.9-4.82.22-8.5,3.39-9.38,6-.81,2.36-23.52,5.31-32.76,21.55-3.63,0-3.66-6.48-.89-11.16,9.53-16.07,32.81-19.15,33.61-21.52.87-2.58,4.54-5.75,9.37-6,9.06-.45,22.82,5.61,38.37,3.78Z"/>
      <path d="M417.84,723.54c-2.8-2.54-2.83-10.3-.47-14.35,8.33-14.25,33.77-16.8,34.66-19.14,1-2.54,4.75-5.86,9.58-5.63,12.08-1,35.68,13,61.72,0-1.41-5.07-11.69-5.36-23.58-4.78-2.88-.34-3.53-7.28-.33-11.18,6.83-8.31,13.28-1.85,21.38-7.1,48.61-31.53,142.44-39.09,206.83-16.5C614.16,685.53,507.5,716.58,417.84,723.54Z"/>
    </g>
    <g class="violinDark">
      <path d="M402,769.06c-5-6.39-10.29-12.38-13.74-20.63-16.57,16-18,54.87-40.24,50.4,11.48,3.1,21.54,5.08,32.72,1.37S395.28,782.14,402,769.06Z"/>
      <path d="M727.32,656.83C663,634.05,569.15,641.31,520.43,672.7c-8.11,5.23-16.92-.83-20.68,6.93-1.64,4.79,29.12.09,30.72,10.24.79,5-14.36,9.22-26.89,10.31-18.25,1.59-32.54-5.2-42.33-4.61-4.83-.24-8.63,3.07-9.6,5.61-.9,2.33-26.55,4.87-33.55,20.3-4.43,10.71,48.23,28,97.84,20.51Z"/>
    </g>
    <g class="shinyBlack">
      <path d="M354.07,742.11c5.37-.47,5.89-2.11,7.66-5.62l15.4,3.23c3.89.82,5.68-8.09,1.78-8.77l-13.77-2.23c1.24-4.63-.69-5.79-3.18-6.86-5.24-2.25-20-2.72-23.86-.77-4.77,2.42-7.06,11-5.31,13.71C334.35,737.22,350.71,742.4,354.07,742.11Z"/>
      <path d="M384.29,715.74l-9.83-1.6c2.72-8.53,1.32-11.42-1.18-12.49-5.23-2.26-19.38-2-23.25-.07-6.22,3.15-12,20.62-9.37,24.07,1.75,2.29,15.47,6.19,18.83,5.89,5.37-.46,8.56-2.17,11.57-9.62l13.3,2.79C384.23,721.5,384.21,718.53,384.29,715.74Z"/>
      <path d="M731.91,565.7c-1.68-7.28-15.34-7.79-30.7-7.2-32.34,1.25-55.28-9-85-9.6-25.58-.54-30.88,9.89-16,23.67,40.84-7.33,86.14-6.56,123,4C730.43,573.87,733,570.37,731.91,565.7Z"/>
    </g>
  </g>
  <g class="skinEastAsian">
    <path d="M1005.1,349.5c14.49,44.9,52.94,164.89-32.62,236.27-36.68,30.6-60.35,70.3-153.32,56.7C613.62,550.3,852.48,47.06,1005.1,349.5Z"/>
    <path d="M536.46,1252.62c-91-16.85-191.4-28.22-240.8-15.58-46.54,11.9-93.46,85.57-68.25,144.08,27.35,63.48,110.38,129.76,199.69,192.11l698.81-63.78c36.13-69.28,99.79-183.76,53.63-251.35-26.59-38.93-70-58.25-117.94-42.83Z"/>
    <path d="M541.53,1259.36"/>
    <path d="M907.12,544.72c-9.39,11.1-5.55,41.65-3.42,48.66,21.9,71.81,131.36,46.43,204,69.54a35.9,35.9,0,0,0,5.93-16.18l-22.28-3c-3-19.9-10.14-32-2.61-41.91-9.39,4.57-18.17,6.63-26.12,5.26-6.58,18.17-11.19,9.66-11.17,28.18l-30.21-4.2c-.84-.11-1.65,1.24-2.22,2.82-5.48-15.62-1.51-26.11,16.75-56.25,9.81-14.65,35.89-16.07,59.32-30.78,39.17-22.39,67.15-44.21,126.78-5.16,34.8,19.24,64.35,44.51,86.09,58.62,70.53,45.8,130.42,122,113.57,177.69-11.9,39.38-126.51,56.54-253.7,49.46-47.28-2.63-82.7,2.09-91.59,33.89-14.36,51.32-21,157.4-28.4,263.78-3.58,51.24,29.31,92.51,11.74,176-54.63,49.94-458.06,70.23-536.1,3.12,3.21-51.78,34.23-74,46.26-171.76,5.48-44.58-3.89-115.17-2.75-179.52-41,74.3-32.06,139.22-74.19,166.7-46.57,30.37-70.6,25.39-85.1,2.66-64.2-100.67,3.58-129.06,54-288.43C483.74,764,484.77,692.79,609.12,661.68c81.8-20.47,96.13-38.24,85.53-83-7.18-30.34-53.07-53.25-81.45-105.86m536.09,201.4c25,6,53.18,10.48,98.22,10.48-15.12-19-23.47-38.12-44.13-57.14C1190.19,652.47,1164.89,649.44,1149.29,674.18Z"/>
  </g>
  <path class="hairBlack" d="M1012,346.61c-12.09,30.78,8.73,55.36-7.07,78.07-1.77-23.48-16.49-62.6-14.15-90.18-11.42-44-60.2-39.08-38.39,37.38C919.67,483.13,805.66,472.66,761,530.33c-38.46-31.61-110.79,8.94-185.66-74.29C430.24,282.31,506.35,58.28,718,34.89,716.17,31.12,694.58,3,652.33,8.07c42.07-13,70.45-.38,83.31,24.58C744.9,7.51,776-7.17,802.48,5.84c-18.76-.55-38.69,5.21-42.12,24.58,58.89-12,215.07,4.51,260.9,132.37C1056,259.67,1012,346.61,1012,346.61Z"/>
  <g class="skinOverlapLine">
    <path d="M381.61,1283.16c40.4,12.07,87.27,31.2,122.76,50.18"/>
    <path d="M1326.05,696.22c-31.24-15.61-58.1-11.87-78.54-11.56"/>
    <path d="M567.72,828.65c-4.38,41-1.87,85-.73,124.29"/>
    <path d="M1107.7,662.92c14.54,4,25.25,7.89,41.59,11.26"/>
    <path d="M1085.67,586.22c8.68,24.94,31.21,21.43,28,60.52"/>
    <path d="M1174.47,605.53a152.52,152.52,0,0,1,28.91,22"/>
    <path d="M426,632.88c9.79-10.14,31.33-10.9,25.69,4.36"/>
    <path d="M1000.14,427.59c7.16,33.52-18.45,22.67-27.3-4.47-5.37-16.48-15.79-26.63-20.43-51.24"/>
  </g>
  <g class="skinFoldLine">
    <path d="M1048,601.71a34.84,34.84,0,0,0,14.64,5.37"/>
    <path d="M406.67,671.88c1.13,3.78,6.43,7.94,11.86,8.15"/>
    <path d="M983.84,340.35c-22.71-29-16.26,43.56,10.33,73.13"/>
    <path d="M970.11,350.32c3.66-3.86,11.16,2.22,12.52,8.6"/>
    <path d="M983,368.11c-4.62,5.81,12.7,21.6,2.07,32.41"/>
  </g>
  <path class="skinCreaseLine" d="M832.5,898.19c-3.49,102,3.49,217.18,0,310.51"/>
  <path class="bennettUnderwear" d="M1055.92,1312c76.62,22.93,105.1,189.65,52,237.9-10.09,54.75-53,54.75-88,76.28C899.61,1674.88,839,1636.64,808.31,1639c-17.12,1.31-135.52,44.27-275.46-10.15-47-18.27-78-24.19-114.71-43.7-7-8.58-8.33-35.39-3.91-51.5-22.63-107.69,39-206,107.69-201.33C737.83,1406.89,916.05,1400.59,1055.92,1312Z"/>
  <path class="bennettWaistband" d="M1059.58,1301.1c10.19,22.36,3.5,30.39,14.05,56.18-130.32,78-466.65,72.57-565.76,5.47,11.64-20.57,7.62-41.29,15.61-58.53C601.52,1371.33,1005,1351,1059.58,1301.1Z"/>
  <g class="clothesOverlapLine">
    <path d="M1107.91,1549.9c-18.11,17.54-39.16,25.19-56.38,46.24"/>
    <path d="M414.23,1533.64q12.66,29,40.22,47.19"/>
    <path d="M1063.55,1362.93c24.74,19.24,45.25,50.2,51.09,90.47"/>
    <path d="M507.87,1362.75c-13.61,36.58-16.83,72.3-7.83,107"/>
  </g>
  <g class="clothesFoldLine">
    <path d="M1073.63,1357.28c7.33,3.25,12,8.5,14.16,15.58"/>
    <path d="M1042.42,1372.86c10.67,10.14,13.34,27.15,14.43,45.52"/>
    <path d="M1032.32,1376.89a16.92,16.92,0,0,1,5.86,14.65"/>
    <path d="M861.89,1411.13a135.71,135.71,0,0,1,0,35.85"/>
    <path d="M783.12,1414.44c1.58,9.74,1.52,18,0,25"/>
    <path d="M766.77,1414.44a209.4,209.4,0,0,1,0,44.21"/>
    <path d="M542.36,1380.26c-4.11,19.08-5.87,40-5.55,62.64"/>
    <path d="M527.78,1374c-2.37,9-3.51,17.49-2.64,25.16"/>
    <path d="M490.7,1384c-17.51,34.43-21.92,102.33,2.92,156.42"/>
    <path d="M493,1371.69c-14.57,12.06-23.91,33.32-27.44,64.79"/>
    <path d="M1076.52,1391.64c29.67,44.65,33.73,95.71,4.06,155.19"/>
    <path d="M914,1575.27c-38.91,0-73.49,1.23-104.81,3.25"/>
    <path d="M871.77,1533c-69,.09-131.59,1.57-182,5.69"/>
  </g>
</svg>
