<svg id="presence" xmlns="http://www.w3.org/2000/svg" viewBox="0 0 770.26 2440.09">
  <defs>
    <style>
      .cls-1 {
        fill: none;
        stroke: #000;
        stroke-miterlimit: 10;
        stroke-width: 2px;
      }
    </style>
  </defs>
  <title>epilogue</title>
  <g id="skinEastAsian">
    <g id="skinEastAsian-2" data-name="skinEastAsian">
      <path class="cls-1" d="M283.26,2165.43c-2.48,32.29-3.57,66.37-1.3,102.15-36.67,16-72.91,11.39-110.74-8,1.45-37.18,2.26-71.9,1.24-95.24Z"/>
    </g>
    <path class="cls-1" d="M582.37,2174.15q-1.85,45.46-.72,93.13H469.1c1.13-34.11.69-66.6-2-96.73Z"/>
  </g>
  <g id="stephanieSole">
    <g id="stephanieSole-2" data-name="stephanieSole">
      <path class="cls-1" d="M308.17,2351.14c-1.06,17.9-4,36-15,51.85-14.11,20.28-85.62,14.22-117.85,21.44-53.12,11.9-162.22,4.32-151.92-38.23C35.64,2352.59,140.88,2355.69,308.17,2351.14Z"/>
    </g>
    <path class="cls-1" d="M609.22,2359.43c.78,19.05-5.44,39.84-12.94,50.07-32.07,43.78-173.47,30.92-192.17,12.6-16.44-16.1-18.63-35.6-11.39-55.72Z"/>
  </g>
  <g id="stephanieShoe">
    <g id="stephanieShoe-2" data-name="stephanieShoe">
      <path class="cls-1" d="M229.56,2259.19c17.52.83,37.88-2.74,53.64-9.39,15.87,7.85,29,77.5,25,101.34-45.29,55.17-80.49,36.5-134.91,48.36-29.72,6.48-59.67,4.77-68.72-2-18.42-23.94-71.69-25.14-81.16-11.27-2.84-45.75,34.89-48.84,58.81-62.57,14.2-8.14,35.08-37.14,55.44-70.74C155.62,2223.21,231.52,2219.8,229.56,2259.19Z"/>
    </g>
    <path class="cls-1" d="M556.29,2261.67c14.32-1.24,24.84-6.8,32.18-14.3,14.8,17,22.2,83,20.75,112.06-5.82,20.25-23.87,36.33-47.39,43.83-22.45,7.17-57.38,11.84-61.72,4.6-17.58-29.28-79-32-93.57-4.15-17.4-10.68-20.59-34.43-2.89-62.77a399.71,399.71,0,0,0,41.58-88.37,28.3,28.3,0,0,0,8.45,5.2C474.47,2216.18,544.59,2223.33,556.29,2261.67Z"/>
  </g>
  <g id="stephanieShoelace">
    <path class="cls-1" d="M157.48,2334.85c21.71-11.15,38.2-29.21,50.91-51.92-16.2-9.74-53.68-15.56-80-15.18-17.28,27-34.14,49-46.2,55.88C100.25,2319.52,145.48,2324.51,157.48,2334.85Z"/>
    <path class="cls-1" d="M550.63,2287.19c-4.06,21.24-12.19,42.24-25.4,58.41-26-10.13-81.55-14.9-101.75-4.07,13.12-20.21,22.38-39.58,25.32-57.55C482,2277,516,2278.64,550.63,2287.19Z"/>
  </g>
  <g id="clothesOverlapLine">
    <path class="cls-1" d="M172.54,2325.43A169.09,169.09,0,0,0,98,2309.59"/>
    <path class="cls-1" d="M184.11,2315.45Q151.7,2300.87,107,2298.6"/>
    <path class="cls-1" d="M193.11,2305.56q-36-17.29-79.09-16.46"/>
    <path class="cls-1" d="M200.91,2295.09c-24-10.86-50.39-16.66-79.24-17.07"/>
    <path class="cls-1" d="M208.39,2282.93c5.82-12.34,11.53-24.35,21.17-23.74"/>
    <path class="cls-1" d="M533.39,2334a233.91,233.91,0,0,0-100.74-7.61"/>
    <path class="cls-1" d="M538.94,2323.68c-33.91-9.32-67.54-12.43-100.84-7.77"/>
    <path class="cls-1" d="M543.06,2314.07c-34.41-11.11-68.08-14.8-100.85-7.43"/>
    <path class="cls-1" d="M547.31,2301.25c-34.79-10-68.72-13.3-101.18-5.77"/>
    <path class="cls-1" d="M556.29,2261.67c-6.59,2.85-3.41,13.52-5.66,25.52"/>
    <path class="cls-1" d="M453.68,2257.77A88.09,88.09,0,0,0,448.8,2284"/>
  </g>
  <path id="stephanieJeans" class="cls-1" d="M128.92,846.94l508.86,12c10.09,79,29.93,128.6,17.63,313.08-12.63,189.41-46.06,340.42-38.36,498.64,8.77,180-3.78,252.66-1.15,271.52,5.15,36.88,2.54,58.4-8.82,89.29,11,27.56-1.05,76.75-14.33,109.14l-134.49-3.31c-17.85-70.45-19.72-197.77-30.86-269-9.85-62.95-4.71-137.78-8.82-202.84-10-158.11-25.36-342.83-47.4-492.75-15.44,200.63-45.21,410.31-43,490.55,2,71.76,4.11,127.83-3.31,184.09-13.75,104.19,2.2,185.2-25.36,283.31l-140,4.41c-24.25-60.63-11.44-97.6-18.74-137.8-11.55-63.66.63-92.52-5.51-130.08-9.84-60.2-4.32-128.07-12.12-205-8.53-84.07-6-159.09-11-218.26C72.44,974.34,122.79,919.49,128.92,846.94Z"/>
  <g id="stephanieJeansInner">
    <path class="cls-1" d="M453.79,2124.92c-29.13-3.57-33,64.85-7.13,67.19,36.6,3.3,108.74,3.82,142.7-.38,33.24-4.11,27.69-60.74,16.06-63.27C559,2118.35,526.41,2133.81,453.79,2124.92Z"/>
    <path class="cls-1" d="M298.44,2120.16c21.95-1.06,19.89,62-2.05,63.24-42.16,2.34-90.33,8.73-141.68,2-20.84-2.74-21.51-60.24-4.76-62.25C194.55,2117.78,250.33,2122.49,298.44,2120.16Z"/>
  </g>
  <circle id="stephanieJeansButton" class="cls-1" cx="376.25" cy="920.78" r="16.62"/>
  <g id="skinEastAsian-3" data-name="skinEastAsian">
    <path class="cls-1" d="M429.92,1645.28c23.2-2,47.08-40.35,61.6-20.78,13.25-26.51,37.85,8.9,55.12-17.36,15.78,24.62,28.71,15.73,55.85,37.82-19,2.79-52.34,36.69-67.93,16.65-14.84,19.29-42.3-5.94-55.66,14.84C467.77,1654.93,442.53,1670.51,429.92,1645.28Z"/>
    <path class="cls-1" d="M308.23,1642.39c-23.59-.26-31.5-19-53-6.16-11.41-17.12-43.77,3.38-55.84-7.56-8.56,15.51-35.49.58-45.76,24.45,10-2.35,32.38,18.59,38.19,4.63,12.8,17.45,31.17-10.56,48.29,9.89C248.64,1651,287.9,1662.5,308.23,1642.39Z"/>
  </g>
  <g id="clothesDisplayLine">
    <path class="cls-1" d="M273.57,2120.82c7.85,4,8.66,59.52,0,64.1"/>
    <path class="cls-1" d="M287.75,2120.56c5.73,4.22,9.35,58,1.2,63.29"/>
    <path class="cls-1" d="M572.51,2124.89c7.53,6.89,6.63,63.5,0,68.37"/>
    <path class="cls-1" d="M585.77,2125.51c8.45,5.07,8.45,60.87,0,66.63"/>
    <path class="cls-1" d="M265.66,883.61C268.9,955.46,252.47,993.39,151,998.08"/>
    <path class="cls-1" d="M491.29,924.87c0,49.2,43.12,76.33,96.22,75.55"/>
    <path class="cls-1" d="M283.71,890.41c-.48,19.87-4.68,37.38-1.56,54.56"/>
    <path class="cls-1" d="M472.62,925a243.33,243.33,0,0,1-.69,28.53"/>
    <path class="cls-1" d="M346.16,909.05c10.15,53.89-10.78,69.9.81,117.15,6,24.63-4.52,53.62,2.34,80.44,6.35,24.78,6,56.33,21.87,66.13"/>
    <path class="cls-1" d="M408.92,920.6c7.44,17.5-7.7,38-2.59,64.2,4.35,22.36-3.77,43.1,0,71.07,5.27,39.15-14.68,60.66-57,50.77"/>
  </g>
  <g id="clothesFoldLine">
    <path class="cls-1" d="M487.36,1104.58c-34.79,13.83-65,28.35-85.86,44.26"/>
    <path class="cls-1" d="M554.64,1119.63c-39.54,4.75-74.26,13.83-100,31"/>
    <path class="cls-1" d="M323.6,1122.29c-20.23-9.15-39.28-16-56.65-19.48"/>
    <path class="cls-1" d="M307.67,1140.88c-54.67-11.51-106.9-17.5-155.8-15.94"/>
    <path class="cls-1" d="M309.44,1822.5c-11.23,77.17-24,147.26-46.92,172.61"/>
    <path class="cls-1" d="M166,2049.11q16.07,28.48,49.57,38.95"/>
    <path class="cls-1" d="M457.27,1950.85c-4.43,28.33,23,118.62,40.72,133.67"/>
    <path class="cls-1" d="M607.08,2031.5c-5.52,13.18-11.75,17.94-10.83,27.35"/>
    <path class="cls-1" d="M149.21,1835.77A105.21,105.21,0,0,0,137,1886.22"/>
    <path class="cls-1" d="M287.31,2101.34c-2.69,9.08-14.51,13.47-24.79,19.52"/>
    <path class="cls-1" d="M163.26,2091.25c15.53,3.61,21.68,20.19,34.4,29.25"/>
    <path class="cls-1" d="M586.86,2085.65c-13.3,18.16-27.59,34.06-46,40.49"/>
    <path class="cls-1" d="M474.7,2080.79c.15,16.13,9,38.13,16.45,46.9"/>
  </g>
  <g id="skinEastAsian-4" data-name="skinEastAsian">
    <path class="cls-1" d="M685.44,1000.56C668.5,877.14,632,767,633.2,665.39c.3-25.52,7.13-56.48,7.49-97.72L128.26,895.29c10.63-48.12,9.35-115.73,7.84-191.18C126.42,840.84,82.86,890.45,78,999.35l-76.23,2.42C17.52,886.82-16.7,730.11,15.1,614.57c14.25-51.78,6-148.83,21.92-259.87L222.77,118c61.71-11.26,72-59.58,71.39-115.74L482.52,1c2.87,44.2,4.65,89.43,40.79,103.17,117.36,54.22,206.86,37.14,217.37,159.49,24.62,286.77,8.89,315.81,15.37,350.4,31,142.07-2.85,278.8-4.8,398.3"/>
  </g>
  <g id="skinFoldLine">
    <path class="cls-1" d="M731.13,623.7c-28.21,1.63-52.92,4.85-71.12,10.73"/>
    <path class="cls-1" d="M111.23,634.43c-27.57-4-53.24-6.61-75.14-4"/>
  </g>
  <path id="stephanieUndershirt" class="cls-1" d="M613.68,306.47c-26.86-81.56-5.08-115.53-8-171.58.38-4.48-52.36-21-52.44-18-9.54,80.36-44,147.47-103.49,168.89C502.6,299.14,559.19,305.58,613.68,306.47Z"/>
  <path id="stephanieShirt" class="cls-1" d="M225.68,113.86c58.39,179.29,345.66,213.2,524.06,182.87,11.74,64.64,1.5,150.89,19,229.69,7.59,32.51-62.66,45.53-128,41.25-8.13,77.74-38.33,74.15-22.42,94.87,30.25,46.15-6,65.66,3.93,83.65,16.4,20.62,15.33,35.55,6.28,49.68-.63,44.51,26.69,43.57,14.74,58.34-.3,14.66,1.11,25.51,3.69,33.78-125.49,68.24-363.78,44.7-530-90.89,2.3-50,14.55-78.22,18.31-174.29,4-66.14-7.53-116.79-6.47-206.27C91.1,406.18,25.05,359.08,3.39,328.94c28.26-58.39,47.09-129,77.29-157.23C113.78,140.8,170.1,131.15,225.68,113.86Z"/>
  <g id="clothesOverlapLine-2" data-name="clothesOverlapLine">
    <path class="cls-1" d="M640.69,567.67c2.8-30.45,1.35-63.48-2.37-97.89"/>
    <path class="cls-1" d="M126,323.4c-2.37,23.39,2.81,59.11,2.8,93.14"/>
  </g>
  <g id="clothesFoldLine-2" data-name="clothesFoldLine">
    <path class="cls-1" d="M720.9,390.15c9.35,122.78-79.78,141.48,4.37,143.35"/>
    <path class="cls-1" d="M681,478.65c-13.08,29.6-26.09,53.47-38.85,58"/>
    <path class="cls-1" d="M636.76,387.66c23.25,15.58,23.25,67.93,1.56,82.12.31-29.15-37.78-57.69-24.62-71.53,12.07-12.69,32.21,27,24.57,41.14"/>
    <path class="cls-1" d="M488.42,448.74c-48.56,13.76-97.85,19.32-135.87,14.46"/>
    <path class="cls-1" d="M390.57,450c-47.26-.94-90.93-5.31-128.4-15.58"/>
    <path class="cls-1" d="M528.93,539.11c24.17,73.43,48.88,142,81,142.73"/>
    <path class="cls-1" d="M615.57,757.88c-3.64,13.68-44.25-10.59-79.78-45.5"/>
    <path class="cls-1" d="M467.23,628.86C489,767.23,590.64,800.26,441.05,804"/>
    <path class="cls-1" d="M628.48,795.87C528.31,852,311.42,821,465.36,848.88"/>
    <path class="cls-1" d="M628.66,846.39c-86.72,31.72-178.82,42.45-284.22,1.24"/>
    <path class="cls-1" d="M151.85,679.35c-.66,49.46,11.86,92.87,44.25,127.15"/>
    <path class="cls-1" d="M222.91,560.3c0,34.36,10,81.65,14.33,128.4"/>
    <path class="cls-1" d="M232.25,495.48c4.79,42.64,13.46,80.95,26.81,114.06"/>
    <path class="cls-1" d="M62.1,280.45c-.78,29.12-3.78,54.33-11.22,71.68"/>
    <path class="cls-1" d="M151.85,279.2c-2.86,28.34-6.62,53.13-14.33,62.33"/>
    <path class="cls-1" d="M125.67,251.16c-6.7,43.63,7.59,70.32.31,72.24-5.66,1.49-19.63-7.11-19.63-47.93"/>
  </g>
</svg>
