<svg viewBox="0 0 1003.45 3103.24">
  <path class="heel" d="M555.44,2841.55c-4.39,40.85,0,97.89-1,149.87,2.6,5,26.06,7.82,26.06,0Z"/>
  <g class="shoe">
    <path d="M250.18,2725.68c-55.8-3.49-84.32,39.14-79.33,102.87,5.32,68.06-42.17,182.73-8.72,234.51,31.41,48.62,109.57,46.34,147.46.87,37.71-45.26,4.7-124.95,14.05-224C331.33,2758.35,302.38,2728.94,250.18,2725.68Z"/>
    <path d="M739,2982.14c15.06,48.67,7.27,103.62-26.16,113.34-88.66,25.77-133.75-23.81-140.18-119.74-5.08-75.77-44.06-151.6,15.24-226.81Z"/>
  </g>
  <g class="eye">
    <circle class="sclera" cx="224.42" cy="428.45" r="108.69"/>
    <g class="irisDarkBrown">
      <ellipse cx="260.86" cy="423.26" rx="19.04" ry="22.05" transform="translate(-72.38 54.28) rotate(-10.44)"/>
      <ellipse cx="129.51" cy="443.97" rx="15.47" ry="22.05" transform="translate(-78.31 30.82) rotate(-10.44)"/>
    </g>
    <g class="pupil">
      <ellipse cx="258.63" cy="424.67" rx="7.4" ry="8.57" transform="matrix(0.98, -0.18, 0.18, 0.98, -72.68, 53.9)"/>
      <ellipse cx="125.8" cy="445.65" rx="6.02" ry="8.57" transform="translate(-78.68 30.18) rotate(-10.44)"/>
    </g>
  </g>
  <g class="skinEastAsian">
    <path d="M494.74,420c-39.52,85.44-17.92,182-2,199,41.24,37.08,114.48,30.53,158.35,43,60.93,8.95,110.35,87,182.4,139.95,62.34,45.85,167.88,133.6,168.82,167.65,3.69,133.06-92.6,206.3-175.29,346-13.35,17.09-27.75,90.67-50.93,114.22-11.49,9.66-34.64,9.28-67,13.9,94.26,411,3.71,682.33,17.93,807.45,29.34,258.34-12,273.46-26.28,447.08-1.12,13.61,5.46,27.9-3.77,56.73-5.91,18.46,27.27,145.21,42,227.25-20.12-15.12-129.81-14.62-153,13.91-40.17-204.72,5.41-207.58,3.18-260.34-1.55-36.83,8.41-30.39,4.83-60.17-15.92-132.5-41.52-151-38.62-357,1.07-75.77-69.34-285.52-107.92-620.32C409,2033,333.7,2210.43,339.54,2286c15.3,198.07-37.8,282.36-38.49,414.8-.08,15.42,7.07,32.23,4,45-3.82,15.76,9.32,51.19,9.13,95.79-2.52,41.66,1.4,86.38,4.73,136.73-26.87-19.84-128-20.71-154.6-5.41,6.09-70.94,30.13-152.95,28.9-188.94-.67-19.65,3.54-38.28,9-57.49,8.49-30.13-76.51-229.93-29.2-507.87,20.46-120.21-76.25-469.07,7.18-765.2-29.69-10.66-43.52-13.71-52.88-19.74-30.28-19.51-30.58-88.66-45-142.88-27.58-90.5-91.79-191.38-68.42-282.15C23,972.92,49,928.39,67.18,886.45,88,838.4,103.69,772.9,135,740.78c54.54-55.87,142.34-47.26,177.9-95.14M176.4,983.18c-7.58,21.6-16,39.57-25.41,52.78,17.61,67.83-8.59,143.45,11.73,230.68,5.84,13.76,33.1,5.62,57.37,16C226.66,1196.36,197.21,1063.84,176.4,983.18Zm575.93,292.75c52.87-66.92,55.19-206.08,101.45-276.46-60.6-30.62-114.68-99-169-136.53a1819,1819,0,0,1-13.51,365.45c-3.13,21.8-1.1,38.88,2.38,59.25C701.86,1278.7,747.05,1285.63,752.33,1275.93Z"/>
    <path d="M438.5,541.47c-19.88,53.2-63.23,75.2-104.75,105.5-46.34,33.52-84.47,17.68-114.4-11.21C195.53,615.54,101.75,579,99,456c-1-43.23-32.33-82.72-30.78-136.2C30.51,115.37,616.6,185.46,527.3,400.08,509.92,437,507.58,480.53,468,461.66M239.31,425.3c29.32,15.24,53.54-7.13,70.1-20.92-12.73-3.22-28.56-11.47-46.17-8.65-13.71,2.2-25,8.93-29.46,25.13C232.23,426.49,237,424.1,239.31,425.3Zm-77.67,8.52c-11-7.54-21.13-16.54-37.45-12.91-5.81,1.29-10.8,3.51-14.33,6.83-.63,4.36,1.6,16.73,4.91,20.66,25.83,9.37,37.32-10.55,44.79-9C162,439.9,164.31,435.65,161.64,433.82Z"/>
  </g>
  <g class="skinDisplayLine">
    <path d="M429.26,1317.06c-12.35,41.92,21.55,45.37,11.44,3.2"/>
  </g>
  <g class="skinOverlapLine">
    <path d="M160.44,860c10.17,23.7,15.69,57.52,14,93"/>
    <path d="M684.74,862.94c-29.88-22.85-58.87-54-40.47-3.29"/>
    <path d="M417,961.11c-8.92,31.17-5.81,73,13.33,95.67"/>
    <path d="M220.09,1282.67c-5,58.28-26.69,92.09-40,170.7"/>
    <path d="M673.61,1287.64c7.08,47.86,27,82.82,35.52,156"/>
  </g>
  <g class="skinFoldLine">
    <path d="M853.78,999.47c13.83-12.32,31.94-16.72,52.57-16.44"/>
    <path d="M62.41,1024.74C83.24,1042.89,129.62,1051,152,1036"/>
    <path d="M378.4,1063.27c8-6.94,13.42-15,15.57-29"/>
    <path d="M470.26,368.78c1-77.77,82.93-27.55,41,39.66"/>
    <path d="M481.86,383.5c13.57,10.38-8.78,33.21,3.41,36.79,9.72,2.86,5.37-15.44,16.5-27,21.63-22.39-7-42.51-15.4-30.28"/>
  </g>
  <g class="skinCreaseLine">
    <path d="M231,2238.35c19.34,7.73,40.32,9.25,62.77,5.23"/>
    <path d="M606.74,2241c22.19,6.15,44.57,5.74,67.13-.88"/>
  </g>
  <g class="skinEdgeLine">
    <path d="M132.62,1418.61c13.07,3.57,19,4.75,28.51-7.72,7.29-9.56,22,.6,30.85-11.89"/>
    <path d="M753,1423.1c-5.39-7.79-18,2.4-27-12.58-6.19-10.31-15.49,1.49-24.37-11"/>
  </g>
  <g class="shoeStrap">
    <path d="M572.69,2810.46c15.43,26.78,122.59,17.31,133.57,14.74,5-1,9.9,22.56,4.89,23.6-12.12-4.58-126.22-15.8-140.42,39.86C568.39,2858.54,569.35,2832.47,572.69,2810.46Z"/>
    <path d="M314.16,2841.55c-21-5.37-110-4.24-127.92-1-4.36-.74.22-27.74,4.59-27,9.94,11.14,105.18,12.4,121.84,0C316.88,2813.32,318.38,2841.32,314.16,2841.55Z"/>
  </g>
  <g class="bikini">
    <path d="M173.51,1480.61c-10.65,11.08-3.38,27.23-12,48,97.25,30.71,194,121.57,251.05,188.9,20.1,23.74,50.82,27.56,72.38.92C564.69,1620,626.55,1561.77,722.79,1504c-5.63-20.44.24-28.21-11.36-50.64C571.25,1553.19,340,1560.74,173.51,1480.61Z"/>
    <path d="M623.25,1067.09c21.32,3.11,48.67,4.41,62.9,3.12,5.48.26,6.1-13.21.62-13.47-14-.43-36.12-2.17-50.56-6.31Z"/>
    <path d="M558.37,874.2c-10.68-10-24.37-156.6-44-240.78-2.18-9.36-12.55-13.1-15-9.12C521.83,724.77,538,863.93,532.57,872c-24.89,96.72-84.77,198.16-134.17,196.1-53.08-2.21-124.33-100.16-151.13-172.51C239,873.3,271.34,714.64,292.75,665a62.81,62.81,0,0,1-11.64.78c-31.43,79.45-47.94,197.89-56,209.64C196.35,917.35,141.2,965.2,180.92,1046c22.12,45,118.69,47.92,168.08,36.12,17.65-3.19,30.43-.48,48.66-.73,18.39-.26,42.38-2.4,61.19,1.26,53.08,10.32,105,9.27,164.4-15.53C665.6,1035.78,627.24,930.4,558.37,874.2Z"/>
  </g>
  <path class="lipFemaleMedium__noStroke" d="M198.75,562.57c16.57,75.53,103.14,57.5,102.08-16.43C263.31,573.86,238.46,584,198.75,562.57Z"/>
  <path class="lipFemaleMedium" d="M306.36,541.51c-23,9-40.65,8.87-73.24,17.35-12.48,3.25-32.86.51-45.4,1,3.42.75,7.06,1.71,11,2.72,37.71,20.55,63.62,12.79,102.08-16.43C303.51,544.75,304.54,543.41,306.36,541.51Z"/>
  <path class="lipEdgeLine" d="M211.52,590.64c20.34,32,65.13,25.9,83.94-12.81"/>
  <path class="teeth" d="M198.75,562.57c22.35,50.16,88,18.66,102.08-16.43-24.33,5.06-47.55,20-65.94,22C217.49,570,208,564.45,198.75,562.57Z"/>
  <path class="gum" d="M198.75,562.57c9.18,1.86,18.74,7.42,36.14,5.56,18.39-2,41.61-16.93,65.94-22C269.35,566.63,222.85,587.53,198.75,562.57Z"/>
  <g class="cheekLine">
    <path d="M179.69,510.59c-7.47,5.7-6.46,16.65-10,25.38-3.34,8.31.9,16.43,4.82,22.66"/>
    <path d="M256.78,499.43c23,9.94,25.38,13,39.41,21,14.28,8.13,21.36,15.65,23.49,23.95"/>
  </g>
  <path class="noseLine" d="M179.69,510.59c-10,9.61-3.45,26,7.2,27.58,11.69,1.69,8.08,7.87,25.38,7.49,18.83-.42,23.66-14.48,34.58-16.41,18.32-3.22,20.74-19.15,9.93-29.82"/>
  <g class="eyeFoldLine">
    <path d="M117.85,459.37c14.9,8.84,32.12,2.16,39.82-3.22"/>
    <path d="M247.71,441.69c15.22,7.26,41.28,3.07,52.64-8.93"/>
  </g>
  <g class="eyeCornerLine">
    <path d="M323.31,404.8c-4.55,1.24-8.28.93-13.9-.42"/>
    <path d="M109.86,427.74a17.61,17.61,0,0,0-5.88,8.73"/>
    <path d="M114.77,448.4a18.26,18.26,0,0,0-5.18-2"/>
  </g>
  <g class="eyeCreaseLine">
    <path d="M161.64,433.82c-32.38-29-54.78-15.88-56.87-7.41"/>
    <path d="M309,395.33c-16.8-16.82-69.23-7.75-75.23,25.53"/>
  </g>
  <g class="eyebrowBlack">
    <path d="M206.28,364.7c20,25.8,59.17-26.65,117.48-1.32C268.1,326.64,237.92,362.68,206.28,364.7Z"/>
    <path d="M148.49,375C135,400.93,115,376.57,85,398.31c-1-2.66-1.94-5.34-2.91-8C102.38,370.13,129.65,382.66,148.49,375Z"/>
  </g>
  <path class="hairBlack" d="M540.59,318.08c2.57,31.46,2.22,51.46-13.29,82,29.55-77.95-48.2-121.17-68.66-58.63-23.44,2.69,16.62,60.61-21.07,115.45-6.5-177.3-85.35-88.59-118.14-232.76-32.93-13.1-131-1.07-155.77,28-34.41-11.61-72.8-2.9-90.31,22.84-5.76,12.24-7.67,30.32-5.17,44.85-27.89-38.67-16.51-89.69,7.7-120.24C120.29,66.94,291.52,19.09,418.51,67.51c102.62,43.57,98.22,107.74,153.35,163.24-9.88-.53-21.13-5.2-33.56-13.41,47,55.47,6.9,94.7,34.35,168C556.62,372.15,547,357,540.59,318.08Z"/>
  <path class="hairband" d="M498.08,312.14C472.5,39.74,159.69,46,75.88,199.58,154.89,88.43,434.94,41.46,478.23,315A29.27,29.27,0,0,1,498.08,312.14Z"/>
  <g class="hairbandEarOuter">
    <path d="M148.42,140C143.71,114.45-19.16,38.41,3.09,106.47,36.94,146.34,72,169.91,109.2,165A230.45,230.45,0,0,1,148.42,140Z"/>
    <path d="M286.56,112.9C280.92,92.39,334.86-3,376.39,1.13c58.59,5.85,50.5,113,20.55,158.28C365.65,132,327.18,116.63,286.56,112.9Z"/>
  </g>
  <g class="hairbandEarInner">
    <path d="M313.16,117.12C340.46,92.22,348.78-22.31,397,15.93c27.89,22.12,27.42,115.81-.05,143.48A189.39,189.39,0,0,0,313.16,117.12Z"/>
    <path d="M109.2,165C50.28,147.71,21.8,67.43,3.83,96.89-3,108.05,23.18,178.75,75.88,199.58,84.25,187.46,95.73,176,109.2,165Z"/>
  </g>
</svg>
