<svg viewBox="0 0 121.9 333.84">
  <path class="backpack" d="M78.69,81.42c7.09-.85,12.13.36,17.63,4.88,8.34,5.71,9.93,22.79,9.12,41.22-.52,11.85.38,23.53.81,30.8.7,11.85-2.31,19.84-11,21Z"/>
  <g class="soleWhite">
    <path d="M94.52,295.42c-1.69,6,.93,10.69,6.06,11.13,3.71.59,11.38-10.2,13.69-17,2.53-7.5,8.07-15.7,7.31-20a7,7,0,0,0-3.43-3Z"/>
    <path d="M75.87,322.89a4.81,4.81,0,0,1,.12,3.77c-7.39,4.42-14.92,4.13-22.1,5.31-7.77,1.28-14.59,3.09-19.63-.41-3.82-3.35.48-9.55,5.08-10.4Z"/>
  </g>
  <g class="estherShoe">
    <path d="M105.39,262.06a22.87,22.87,0,0,1,12.76,4.44c1.58,1.93-4.24,12.89-6.69,20.65a28.14,28.14,0,0,1-6,9.94c-3.91-1.49-7.48-2.24-10.9-1.67,2-5.9,1.88-11.41.58-18.39C94.67,267.33,99,262.59,105.39,262.06Z"/>
    <path d="M72.17,308.31c2.84,3.57,3.8,8.65,3.7,14.58-2.35,2.4-11.41,4.95-19.19,5.46-2.91.19-7.49,1.57-10.39,1.57.42-4.46-2.06-7.13-6.95-8.76,5.15-2.37,14.07-12.45,15-13.33C56.93,305.37,69.18,304.53,72.17,308.31Z"/>
  </g>
  <g class="estherShoeStrap">
    <path d="M102.08,277.52l.08,4.58A18.53,18.53,0,0,0,96,283.21c-1,.44-1.56-3.69-.56-4.19A17,17,0,0,1,102.08,277.52Z"/>
    <path d="M102.1,285.31l-.45,4.55a16.21,16.21,0,0,0-5.9.41c-1,.29-.69-3.9.32-4.16A25.31,25.31,0,0,1,102.1,285.31Z"/>
    <path d="M56.43,315.65A14.64,14.64,0,0,0,50,312.42c-.91-.25,2-3.41,3-3.17,2.64.61,4.77,1.35,6.7,3.31S58.5,317.56,56.43,315.65Z"/>
    <path d="M47.87,314.47a11.68,11.68,0,0,1,5.65,3.9c1.72,2.22-1.92,4.87-3.63,2.79a12.88,12.88,0,0,0-5.28-3.71C43.92,317.16,47.08,314.18,47.87,314.47Z"/>
  </g>
  <g class="sockWhite">
    <path d="M72.44,240.88c11.77,8.11,23,19.72,33.74,22,2,1.93.51,8.89-2.52,11.21-1.17.9-5.37-.2-7.78,2.16-9.42-6.18-21.34-10.36-32.81-14.78Z"/>
    <path d="M73.48,257.62c-6,2.27-18.31,2.6-23.19.24.84,16.2,7,32.92,5.75,49.95,3.52,0,6.39,3.39,8.08,3.52,3.82.31,7.34-1.21,7.14-2.66C66.57,291,75.25,275.38,73.48,257.62Z"/>
  </g>
  <g class="estherSockStripe">
    <path d="M51.67,269.8c.27,1.61.55,3.23.85,4.86,4.53,1.94,14.19,1.62,20.18-.17.24-1.61.45-3.22.63-4.85C67.3,271.76,56.25,272.1,51.67,269.8Z"/>
    <path d="M50.74,263.15c.18,1.65.41,3.3.66,5,4.74,2.33,16.17,2,22.09-.17.14-1.67.22-3.35.23-5.05C67.79,265.14,55.64,265.48,50.74,263.15Z"/>
    <path d="M76.42,243.75a29.63,29.63,0,0,1-3.61,9.1,55.21,55.21,0,0,1,.88,7.85c3.28-4.09,6.71-10.48,6.47-14.07C78.92,245.66,77.67,244.69,76.42,243.75Z"/>
  </g>
  <path class="estherShorts" d="M33.33,172.66c.19,4.14-2.95,7.27-.24,9.27a146.82,146.82,0,0,0,0,25.85c.43,1.42,9.56,3.27,11.27,2.27,2.43,3.85,26,4.72,31.93-4.28.35,4.19,2.34,6.84,6.73,7.12,6.36-3.58,8.42-26.11,5.85-39.17Z"/>
  <path class="estherShortsTrim" d="M82.33,176.87c-.92.13-1.93.25-3,.36-.13,8.44-1.53,18.28-5,25C69.8,210.83,48.32,211,43.88,207c-3.59.84-10-.85-11.05-2.53.08,1.11.16,2.22.26,3.33.43,1.42,9.56,3.27,11.27,2.27,2.43,3.85,26,4.72,31.93-4.28.35,4.19,2.34,6.84,6.73,7.12a7.29,7.29,0,0,0,2.49-2.65C73.47,209.85,82.17,193.35,82.33,176.87Z"/>
  <g class="estherJacket">
    <path d="M32.08,163.39c-.65,1.74-1.64,2.9-3.53,2.54.49-2.35-6.76-7.64-8.63-7.15-1-2.55.89-5.1,3-7.06.1-5.49,6.08-9.11,9.31-21.07Z"/>
    <path d="M88.8,86.84C91.89,92,96.34,92,95.61,97c4,3.87,4.71,12.85,6.35,19.09,3.1,11.83,6.21,13,3.84,18.26-1.13,2.51.59,2.29-.53,7.44-2.72,12.38,1.79,22.79-4,23.83-.47,2.64,2,6.43-1.51,8.41-2.32,3.88-65-5.71-67.43-8.94-2.88-3-2.07-11.89-.89-19.43.93-5.94-1-11.09.41-18.8C32,113,38,87.74,50.15,81.31Z"/>
  </g>
  <g class="estherJacketTrim">
    <path d="M87.58,164.79c-7.79,6-52.86,3.56-55.24.33.44,4-.41,8.24.32,9.14,3.88,4.86,53.06,4.63,55.05.91C89.66,170.81,83.16,170.87,87.58,164.79Z"/>
    <path d="M86.83,170.78c-.42,3.27-1.6,5.65-2.21,8.24-.73,3,12.63,6.15,13.47,3.15.59-2.12.47-5,1.68-8.11C95.43,175.31,88.68,172.67,86.83,170.78Z"/>
    <path d="M19.92,158.78c-1.11,2.18-6.21,7.53-6,8.17.73,2.21,9.07,8.39,10,6.27a33.39,33.39,0,0,1,4.58-7.29C29,163.58,21.79,158.29,19.92,158.78Z"/>
    <path d="M48.75,80.44c1.92-2.34,2.51-3.81,4.24-4.76,2.82-1.54,17.76-.85,22.63.46,2.36.63,2.68,3.06,4.63,6,1.27,1.9-19.45,6.13-26.12,4.52C51.08,85.14,47.93,81.44,48.75,80.44Z"/>
    <path d="M64,138.07l-1.83,1A108.63,108.63,0,0,0,73.83,158l1.71-1.11A104.4,104.4,0,0,1,64,138.07Z"/>
  </g>
  <g class="estherJacketStripe">
    <path d="M102.3,130.25c-.83-6.9-3.6-11.54-6-22-3.12-13.83-7.57-19.13-12.22-21.06a8.19,8.19,0,0,0-2.8.75c4.58,2,9.57,6.93,12.55,20.14,2.34,10.41,5.18,15.09,6,22,.66,5.44.22,12.64-.35,19-1,11.06,1.46,15.35-2.38,16.39-.58,3,3.26,1-.82,8.81h2.17c3.62-7.14-.54-5.63.43-8.6,3.83-1,2.1-6.38,2.89-16.81C102.32,142.54,103,135.69,102.3,130.25Z"/>
    <path d="M97.44,135.64c.88-7.61-3.5-14.25-5.7-24.7C89,97.86,84,91.57,79.48,89.17A10.48,10.48,0,0,0,78,90.76c4.23,2.87,8.79,8.79,11.3,20,2.41,10.76,6.65,19.28,5.76,24.8-1,1,.6,2-.36,13.05-1,11.69,1.9,17.3-2.39,24.94l1.91.49c3.82-7.14.91-6.41,1.3-8.75,3.19-1.3.59-5.45,1.62-16.89C98.16,136.78,96.25,136.61,97.44,135.64Z"/>
  </g>
  <path class="zipperDisplayLine" d="M54.13,86.62c-3.67,1-6.79,17.13-6.43,22.71.28,4.35-4.6,13-2.76,25.17.69,4.55-6.61,14.71-.58,33.16.17.9-.59,8.57.26,9.53"/>
  <g class="adidasLogo">
    <path class="clothWhiteMedium" d="M57.72,110.66c-3.76-3.66-2-5.34,1-2.66.42-6.49,2.88-6.36,2.51.15,3.77-2.26,4.27-.09,1.18,2.76C65.75,113.52,54.29,113.1,57.72,110.66Z"/>
  </g>
  <g class="clothesOverlapLine">
    <path d="M44.36,210.05c-1.28-4.44.54-5.57-1.54-7.91-3.77-4.24-4.2-9.09-3.13-12.42"/>
    <path d="M43.88,205.61C46.12,201.79,52,199,56.19,198"/>
    <path d="M79.69,109.33c0,3.49,2.41,6.41,3.48,9.49,1.18,3.39,1.8,7.58,3.73,9.5.84.72-.6,5.17,1.8,6.37.12,1.56-2,3-.48,5.29,1.68,10-3.25,23-.64,24.81"/>
  </g>
  <g class="clothesFoldLine">
    <path d="M33.09,181.93a12.6,12.6,0,0,0,3.3,1.27"/>
    <path d="M32.72,176.58c-.22,1.93,2.8,3.32,5.93,3.93"/>
    <path d="M61.93,180.16c-2.78,1.31-5.65,3-7.13,4.78"/>
    <path d="M62,183.46c-2.3,2-10.26,9.43-14.67,12.6"/>
    <path d="M70.26,199.79c-5.7,1-10.63,2.59-14,5.47"/>
    <path d="M37.44,201.09a11.47,11.47,0,0,1,3.21,3.39"/>
    <path d="M52.63,202.83c6.17-1.91,6.08-5.3,3.56-4.86"/>
    <path d="M51.43,110.84c-3.06,0-5.8-.09-8-.15"/>
    <path d="M49.34,114.42a87.54,87.54,0,0,1-9.47-.37"/>
    <path d="M49.79,136.27a66.71,66.71,0,0,1-9-.52"/>
    <path d="M49.57,139.85c-2.89-.2-5.54-.41-7.38-.67"/>
    <path d="M23,151.72c3.19-1.81,10.43-.24,3-2.48"/>
    <path d="M26.68,155.51a7.7,7.7,0,0,1,3.73,3.24"/>
    <path d="M37.86,161.4a60.78,60.78,0,0,0,12.23,1"/>
    <path d="M87.58,155.22c-2.52,3.94-18.78,7-3.64,6.62"/>
    <path d="M75.59,102.34c.58,3.79,1.9,6.19,4.1,7-.89-4.45.9-9.52-2.09-5.2"/>
    <path d="M87.2,129.93a10.6,10.6,0,0,1-4.25,2"/>
    <path d="M72.09,139.85a84.37,84.37,0,0,0,16.61-5.16c4.41,1.73,10,.05,10.08,1.73s-2.68,1.94-7.61,1.64"/>
    <path d="M102.58,158c-1.77,3.52-3.92,5.35-6.48,5.37"/>
    <path d="M101.28,165.65c-2.55.53-6.68-1.05-7.57,0-1,1.68,2.27,2.29,4.92,3"/>
    <path d="M87.58,164.79c2.17,2.24,8.81,4.53,1.06,4.43"/>
    <path d="M88.22,140A9.57,9.57,0,0,0,93,141.34"/>
    <path d="M95.61,97a5.58,5.58,0,0,0-1.75-1.47"/>
  </g>
  <g class="backpackAdjusterLight">
    <path d="M81.45,135.5l-4,1.53a84.07,84.07,0,0,0,10.1,18.19c.38-2.38.64-4.66.83-6.78A94.49,94.49,0,0,1,81.45,135.5Z"/>
    <path d="M81.43,81.81a6.93,6.93,0,0,1-.31-4.09c.66-3.23-3.38-3.78-7.18-2.71,2-1.68,5.33-2.81,8-1.78a4.25,4.25,0,0,1,2.94,4.68c-.35,1.91-2,3.28-1.81,4.59Z"/>
  </g>
  <g class="backpackStrap">
    <path d="M88.6,88c-8.07-3.43-15.86,4.28-13.21,19.22a138.19,138.19,0,0,0,6.68,20.11c1.07,2.23-1.11,5.25-.62,8.15.12.38-3.85,1.9-4,1.53-1.83-2.65-5.42-3.38-6.69-6.37-10.53-21.3-3.1-47.35,7.9-49.39C81.32,80.78,88.92,84.85,88.6,88Z"/>
    <path d="M48.55,81C44.49,82.22,41,86,38.13,91c-3.09,5.35-4.74,12.32-6.45,19.56-1.2,5-.91,10.29.18,16.35,2.15-10.32,8.39-37.62,16.76-45A3,3,0,0,1,48.55,81Z"/>
  </g>
  <g class="hairBlack">
    <path d="M89.52,33.51c.85-1.34,2.86-.27,2.47.88,1.8-.65,4.35,1.84,3,3.75a1.43,1.43,0,0,1,2,1.75c2.33-.49,4.08,2.5,1.7,4,2.08-.12,2.72,3.22.08,3.8a2.11,2.11,0,0,1-.71,3.46c2-.69,3.8,1.91,2.32,3.3,2.69.91,3.11,4.88,0,5.64.69,2.34-1.25,4-3.46,2.8a1.93,1.93,0,0,1-3.37.83c.55,2.08-2.83,3.13-4,2.06Z"/>
    <path d="M55.15,71a2.57,2.57,0,0,1-4,2.63,1.79,1.79,0,0,1-3.23.69,2.65,2.65,0,0,1-4.34,2.78c.31,1.27-1.43,2.21-2.62,1.55-.59,2.13-3.67,1.5-4.18-.33-.87,1.72-4.11.93-4.09-1.46-.87.68-1.9-.06-1.58-1.19-.62,1.75-3.31,2.4-4.33.83A2.58,2.58,0,0,1,22.08,75c-1.42,1.21-4.4-1.88-2.4-4-2.39-1.41-1.44-4.78.65-4.85-.94-.52-.66-2.5.58-2.79-2.33.72-4.61-2-3.11-3.71-2.14.41-3-2.26-1.59-2.88-2.28-1.3,0-5,1.76-4.18-1.11-3,2.91-5.16,5.14-3.2a1.86,1.86,0,0,1,.57-3.25c-2.72-.22-2.81-4.38-.39-4.42-.6-2,1.82-3.3,3.28-2.55-.34-2.95,3.35-4.3,5.1-2.95Z"/>
    <path d="M34.06,43.15c-1.64.22-2.26-2.32-1.15-3.24a1.51,1.51,0,0,1-1.15-2.65c-1.62-.08-1.53-1.89-.51-2.66a1.68,1.68,0,0,1-.33-3,2,2,0,0,1,0-3.64c-2-.9-1.09-4.55.34-4.81a2,2,0,0,1,1.09-3.49c-.92-1,.54-3.21,2.05-2.6l.69-1.28a1.9,1.9,0,0,1,1-3,2,2,0,0,1,2.46-2.41,1.56,1.56,0,0,1,2.06-1.93c-.24-1.83,1.94-3.65,3.29-2.39a2,2,0,0,1,3.57-.8l1.3-.55c-.6-1.77,2-3.33,3.37-1.84a1.34,1.34,0,0,1,2.41-.46,2,2,0,0,1,3.58-.68,1.36,1.36,0,0,1,2.34-.45,1.53,1.53,0,0,1,2.91.05c.85-1.38,3.38-.85,3.24.51l1.55,0c.58-2,3.83-1.19,3.68.58,1-1.27,2.88-.65,2.38,1,1.27-1.29,4,0,3.49,1.93,1.38-1.2,4.42,1.08,3.49,2.61,1.44-.58,3.1,1.09,2.37,2.39a2,2,0,0,1,1.4,3l.81,1.08A1.69,1.69,0,0,1,88,16.77c1.09.14,1.85,2.07.34,2.67C42.67,28.18,71,68.22,34.06,43.15Z"/>
  </g>
  <g class="eye">
    <path class="sclera" d="M51.49,42.26a19.26,19.26,0,0,0,38.52,0C90,31.63,82,22.9,71.38,22.9S51.49,31.63,51.49,42.26Z"/>
    <g class="irisDarkBrown">
      <ellipse cx="65.02" cy="43.9" rx="2.43" ry="3.04" transform="translate(-7.09 13) rotate(-10.83)"/>
      <ellipse cx="85.84" cy="39.31" rx="2.19" ry="3.04" transform="matrix(0.98, -0.19, 0.19, 0.98, -5.86, 16.83)"/>
    </g>
    <g class="pupil">
      <ellipse cx="65.5" cy="43.96" rx="0.95" ry="1.18" transform="translate(-7.09 13.09) rotate(-10.83)"/>
      <ellipse cx="86.42" cy="39.35" rx="0.85" ry="1.18" transform="translate(-5.86 16.94) rotate(-10.83)"/>
    </g>
  </g>
  <g class="skinBlack">
    <path d="M44.36,210.05c-1.31.76-7-.14-9.75-1.25.42,11.35,4.22,25.22,6.12,34.95,1.65,8.46,5.35,11.5,9.47,11.5.29-24.34.29-37.05-2.18-43.31C46.17,211.46,44.85,210.81,44.36,210.05Z"/>
    <path d="M81.67,212.71c-3.45-.7-5.07-3.21-5.38-6.94C70.91,214,50.72,214,45.44,211c.69,12.38,1.69,24,3.25,31.59.7,3.4-.81,8.23,1.51,12.13,0,1.11,0,2.17.09,3.17,4.88,2.36,17.21,2,23.19-.24a36.6,36.6,0,0,0-1.79-8.86C70.71,246.07,76.59,237,81.67,212.71Z"/>
    <path d="M78.71,61.14c-2.71,4.32-3.14,11-2.33,16,.34,1.45-17,5.32-22.25,9.5-2.76-9-.09-13.31-2.93-19.82"/>
    <path d="M84.66,179.65c-9.64,11.11-6.37,12.78-8.44,19.26-.33.91,1.06,1.15,2,.25-.65,3-1.69,4.66,3.17,5,.16,1.39,3.27,1.88,4.83.32a4.25,4.25,0,0,0,5.07-2.31c1.81.22,3.13.42,4.45-2.59,1.18-2.67,2.28-5.1,2.44-7.88.34-5.82.06-6.32-.34-9.11C96.12,184.7,85.63,182.31,84.66,179.65Z"/>
    <path d="M14.76,166.72c1.52-.72,8.63,3.49,8.71,6.1-2.61,9.07-8.62,8.18-10.07,12.9,1.16,1.74,2.1,5.73-.73,7,.12,2.44-1.45,4.07-3.41,3.41-.8,1.89-4.93,2.33-4.5-1.37-1.38,1.23-4.71,1-4-2.76.51-3.19-2.47-5,1.91-13.78C5.68,172.17,13.81,169.59,14.76,166.72Z"/>
    <path d="M41.68,44.07c1.37-.29.94-2.29.07-2.67a1.8,1.8,0,0,0,1.33-2.72c1.07.25,2-1.43,1.24-2.38,1.76.18,2.79-2.27,2-3.14,1.51.19,1.62-2.08.54-2.31,1.25-.18,1.06-2,.13-2.36,1.15-.69.33-2.55-.59-2.65a1.6,1.6,0,0,0-.46-2.77C50.16,22,41.11,16.9,34.42,17a7,7,0,0,1,1.79-2.55c4.14.34,10.45,3.36,13,6.08a1.73,1.73,0,0,0,2.85-1.07,1.22,1.22,0,0,0,2-.13c.78.68,2.8-.1,2.71-1.1.85.85,3.57,0,3.13-1-1.07-3.69-7.25-9.85-12.5-12a7.89,7.89,0,0,1,2.82-.88C54.61,5.83,60.82,12.43,62.2,17a1.17,1.17,0,0,0,2.18.16c0,1.6,2.56,2.58,3.63.3,1,2.05,4.2.4,3.56-.7,4.25.67-.8-11.88-4.93-14.9a8.26,8.26,0,0,1,3,.21c2.52,2.37,5,7.7,5.63,12.82.21.92,2.49.52,2.42-.59.94.8,2.54.21,2.46-.73.65.76,2.17.47,2.34-.32a1.43,1.43,0,0,0,2.54.11c1.4,1.45,6.62,11.52,5.41,23.24C90,40.32,99,54.58,88.73,69c-3.08,4.3-3.58,6.9-9.41,8.53-4.29,1.2-6.17,0-10.34-.8C59.77,75,49.52,72,45,58.84c-2.62,3.5-6.07.12-7.25-1.27-.94-1.1-7-3.73-6.44-11.43.92-5.83,7.89-5.47,8.91-.93C40.55,47,43.24,45.82,41.68,44.07Zm26.22-.73c-2-1.5-3.62-2.46-6.06-2.11a11.53,11.53,0,0,0-6.19,3.09c1.26,1.39,3.86,1.61,6.35,1.44a11.69,11.69,0,0,0,5.12-1.62C67.51,43.92,68.69,43.92,67.9,43.34Zm12.59-1.87c1.29-.22,2.51.3,4.4-.37a5.67,5.67,0,0,0,3.53-3.45,7.69,7.69,0,0,0-4.82-.51c-2.16.55-3,1.42-4.3,3.83C78.79,41.91,80.05,41.54,80.49,41.47Z"/>
  </g>
  <g class="skinOverlapLine">
    <path d="M80.81,192.47c-1.66,2.67-1.41,3.76-2.55,6.69"/>
    <path d="M83.91,198.31c-.4,1.78-1.73,5.25-2.48,5.83"/>
    <path d="M88.56,198.41a16.61,16.61,0,0,1-2.3,6.05"/>
    <path d="M93,197.47a20.76,20.76,0,0,1-1.68,4.68"/>
    <path d="M10.15,175.24c-4.24,4.58-2.2,5.6-6.38,9.24-.27,3.64,6,1.51,6.82-1.39a13.39,13.39,0,0,1,3.28-3.21c1.69.41,6.53-1.68,8-5.28"/>
    <path d="M4.76,194.72a5.57,5.57,0,0,0,.3-5.82,5.34,5.34,0,0,0,.62-2.5"/>
    <path d="M9.26,196.09c1.07-2.93-.11-5.57-1.45-6.29a14.57,14.57,0,0,0,.17-4"/>
    <path d="M12.67,192.68c-.16-1.6-1-3.69-2.12-4.17a9.62,9.62,0,0,0-.61-4.25"/>
  </g>
  <g class="skinFoldLine">
    <path d="M53.9,257.19a11.64,11.64,0,0,1-3.7-2.5"/>
    <path d="M39.7,47.94C34.83,40,29.94,50,37.13,54.3"/>
    <path d="M40.89,50c-2,1.88,2.92,3.15,1.12,4.57-1.22,1-1.24-1.41-2.7-1.76-3.5-.83-2.7-5-1.25-4"/>
  </g>
  <path class="skinEdge" d="M95.75,195.34c-1.19-.2-2.06,1.22-3.87.58s-2.7,1.2-4,.61c-3.07-1.39-3.41.24-5.39-.75"/>
  <path class="lipFemaleDark__noStroke" d="M72.06,65.77a13.87,13.87,0,0,0,2.19-1.2l6.8-2.1a5,5,0,0,0,2.06-.16c-.64,1.06-.23,1.44-.42,2.62-.6,3.66-5.14,5.65-8.87,2.15C73.06,66.37,73.06,65.81,72.06,65.77Z"/>
  <path class="lipFemaleDark" d="M70.15,66.29c3.81-2.15,4.06-5.45,7-5.38,1.29,0,1.95-1,3.33-.57S82.2,61.59,84.07,62a5.58,5.58,0,0,1-3,.5l-6.8,2.1A9.69,9.69,0,0,1,70.15,66.29Z"/>
  <path class="lipEdgeLine" d="M82.69,64.93c-.6,3.66-5.14,5.65-8.87,2.15"/>
  <path class="teeth" d="M74.25,64.57c3.09.68,5.34,0,6.8-2.1-2.08-.48-1.92.62-3.4.47S75.6,63.78,74.25,64.57Z"/>
  <g class="noseLine">
    <path d="M80.36,48.6c.46,1.77,3.49,2.42,1.87,5.58"/>
    <path d="M70.06,52.67c-.9.8-.77,3.43.65,4.09"/>
    <path d="M72.79,56.61c.72-1.44,5,2.07,8.6-2.64"/>
  </g>
  <g class="eyeFoldLine">
    <path d="M88.17,41.53a5.46,5.46,0,0,1-6,1.71"/>
    <path d="M66.86,46.14c-1.16,1.2-5.64,2.87-8.36,1.6"/>
  </g>
  <g class="eyeCornerLine">
    <path d="M88.42,37.65a1.63,1.63,0,0,0,1,.06"/>
    <path d="M54.46,44.9a2,2,0,0,0,1.19-.58"/>
  </g>
  <g class="eyeCreaseLine">
    <path d="M54.76,42.76c2.08-2.38,6.86-3.92,10.29-2.53"/>
    <path d="M78.88,38.92a6,6,0,0,1,8.62-2.83"/>
  </g>
  <g class="eyebrowBlack">
    <path d="M52.49,39.69c4.89-6.27,8.54-3.15,15.05-5.48C64.94,39.18,57.06,36,52.49,39.69Z"/>
    <path d="M77.26,32.3c4,.2,7.18-4.42,12.37.38C84.12,31,81,34.74,77.26,32.3Z"/>
  </g>
</svg>
