<svg viewBox="0 0 94.61 333.21">
  <g class="soleWhite">
    <path d="m49.1,323.98c-3.29,6.07.29,8.77,11.06,8.87,10.01.09,14.04-2.43,11.9-8.24-4.28-5.71-18.7-5.44-22.96-.62Z"/>
    <path d="m10.75,323.88c-3.19,3.87-1.18,7.85,4.66,8.74,8.91,1.35,21.82-1.57,22.87-3.27.68-1.01.74-2.67.35-4.45-7.28-5.18-22.12-6.44-27.88-1.02Z"/>
  </g>
  <g class="estherShoe">
    <path d="m53.26,309.02c-2.55,3.06-.79,9.21-4.16,14.96,4.53-3.58,19.17-2.84,22.96.62-2.37-4.68-.77-12.85-3.74-15.8-2.59-2.57-13.25-1.97-15.07.21Z"/>
    <path d="m35.13,309.19c3.21,4.07,3.71,10.85,3.5,15.71-3.1,2.27-4.01,1.56-7.72,3.06-2.91-8.23-17.35-6.69-20.16-4.09,6.51-5.8,5.12-10.52,8.84-14.65,2.44-2.71,13.58-2.53,15.55-.04Z"/>
  </g>
  <g class="estherShoeStrap">
    <path d="m54.36,311.7l-.46,3.13c4.52-1.16,9.35-1.11,13.56-.23,1.47.31.94-2.74-.52-3.12-3.68-.96-8.03-1.06-12.58.22Z"/>
    <path d="m53.74,316.3l-.46,3.13c5.08-1.16,9.82-1,14.4-.18,1.51.27.99-2.84-.52-3.12-4.29-.77-8.53-1.1-13.43.16Z"/>
    <path d="m32.31,312.07l-1.65,3.03c-3.49-.92-7.98-1.07-11.6-.44-1.48.26-.32-2.74,1.13-3.12,3.68-.96,7.57-.76,12.11.52Z"/>
    <path d="m29.56,316.82l-1.79,2.89c-5.08-1.16-6.73-1.04-11.32-.22-1.51.27-.53-2.84.98-3.12,3.42-.63,7.84-.63,12.13.45Z"/>
  </g>
  <g class="sockWhite">
    <path d="m16.86,259.46c-.58,12.05,3.99,33,4.14,49.42.85.78,12.51.97,13.3.15.59-20.37,6.75-30.79,5.37-50.3-3.55,1.77-19.81,2.39-22.81.73Z"/>
    <path d="m48.7,258.74c-.32,14.4,4.39,32.37,5.61,50.14.46,1.02,12.98.94,13.41.04-.58-19.31,6.51-38.47,3.72-51.03-3.08,1.69-18.66,2.62-22.73.86Z"/>
  </g>
  <g class="estherSockStripe">
    <path d="m49.18,269.24c-.16-1.62-.29-3.22-.37-4.78,5.81,1.53,16.59,1.11,23.27-.59.03,1.63-.04,3.33-.17,5.09-6.07,1.53-17.15,1.79-22.73.28Z"/>
    <path d="m49.96,275.89c-.22-1.65-.42-3.27-.6-4.87,6.02,1.39,16.08,1.15,22.4-.33-.16,1.67-.37,3.39-.62,5.16-5.64,1.24-15.37,1.32-21.18.05Z"/>
    <path d="m39.87,264.5c0,1.75-.07,3.44-.18,5.07-5.8,1.47-16.62,1.66-22.47.22-.15-1.67-.26-3.27-.33-4.79,5.99,1.46,16.51,1.12,22.98-.5Z"/>
    <path d="m39.56,271.3c-.16,1.76-.37,3.46-.61,5.14-5.39,1.22-15.02,1.24-21.03,0-.19-1.66-.37-3.29-.53-4.87,6.18,1.35,16.07,1.17,22.17-.26Z"/>
  </g>
  <path class="skinBlack" d="m1.96,118.12c-1,7.65-1.09,19.33-1.53,24.24-1.19,13.35,3.68,26.05,5.9,41.62,1.95,7.14-3.42,13.29-.76,17.95,1.63,2.85,1.83,7.66,7.32,11.49,30.12-3.46,31.85-138.08-10.94-95.3Z"/>
  <path class="estherShorts" d="m44.27,207.87c-5.91,5.78-30.1.07-34.22-8.82.04-1.34.28-2.71.59-4.05-1.25-3.52.39-5.68.66-7.86-.78-2.91.06-12.27,1.6-15.73l65.23-.75c1.46,5.72,2.48,21.49,1.29,30.48-7.42,7.82-30.36,11.42-35.16,6.73Z"/>
  <path class="estherShortsTrim" d="m44.27,207.87c4.8,4.69,27.74,1.09,35.16-6.73.66,11.08-33.07,13.58-35.18,9.59-5.48,4.17-20.02.95-28.6-3.1-4.54-2.14-5.69-5.28-5.6-8.58,4.12,8.89,28.3,14.6,34.22,8.82Z"/>
  <g class="skinBlack">
    <path d="m77.49,205.69c-1.12,20.15-6.86,46.46-6.06,52.2-3.08,1.69-18.66,2.62-22.73.86-.15-6.17-2.21-13.03-2.32-19.05-.12-6.54-.59-16.76-1.07-28.14,5.12,2.26,25.74.62,32.19-5.86Z"/>
    <path d="m15.65,207.63c8.08,3.81,21.44,6.89,27.55,3.75,0,11.1-1.47,23.08-1.54,27.16-.13,8.29-2.21,15.56-1.99,20.19-3.55,1.77-19.81,2.39-22.81.73-.43-15.64-5.39-36.33-5.55-55.36.86,1.34,2.24,2.54,4.34,3.53Z"/>
    <path d="m75.6,211.4c-2.07-2.76-.46-6.37-1.61-13.39-.77-10.57,4.48-13.14,4.26-15.51,2.29-15.55-2.5-30.8-.1-40.77-.5-3.29-2.05-6.44-2.19-9.28-5.01-16.92-3.64-20.03,14.48-15.82,2.07,7.4,1.47,14.82,3.16,20.41,2.59,15.75-1.89,30.9-5.68,47.55-.11,4.02,5.03,13.39,3.58,18.3-.63,4.59-3.92,9.33-7.1,9.98-3.83,2.81-4.86,2.39-9.44,3.03-2.29.39-2.13-3.94.65-4.49Zm3.3-.9c2.68-2.33,1.75-4.66.99-9.15-1.11,3.73.23,7.58-.99,9.15Z"/>
  </g>
  <g class="hairBlack">
    <path d="m18,39.15c-1.45-.74-3.14.73-2.55,2.27-1.06-.11-1.93,1.1-1.19,2.21-1.4-1.45-4.17-.79-4.31,1.19-1.05-.72-2.63.61-1.57,1.94-2.12-1.01-3.24,3.34-1.11,3.77-1.86.9-1.64,3.98.99,4.27-1.53-.07-3.12,2.13-2.21,3.69-2.28-.41-3.5,2.79-1.59,4.61-1.8.69-1.7,4.3.64,3.77-.74,1.43,1.54,2.81,2.44,2.07-.85,1.43.88,2.39,2.25,1.84-1.91.87-1.46,3.37.61,3.06-1.22,1.22.09,4.07,2.21,3.44-.19,1.18,1.69,2.04,2.45,1.17.52,1.46,3.26,1.14,3.57-.31,1.3.85,2.91-.34,2.95-1.87.19,1.04,1.36,1.67,2.15.96.14,2.26,3.84,1.91,3.75.28,1.96,2.13,4.91-2.33,4.91-2.33l-14.39-36Z"/>
    <path d="m69.31,35.86c.82-2.47,6.85-2.36,6.86,1.23,1.19-1.43,3.86-.15,3.55,1.8,2.01-1,4.41,2.1,2.88,4.22,1.19.45,1.53,2.23.11,2.99,1.36-.9,3.61-.34,3.65,1.18,1.49-1.08,3.93,1.08,2.73,2.65,1.73-.22,3.98,2.94,1.12,4.47,1.3,1.03.98,3.98-.98,3.66,1.13,1.2.25,3.83-1.82,3.58,1.19.3,2.39,2.24,1.07,3.37,1.51.26,1.88,2.94.11,3.31,1.59.83.34,4.34-1.39,3.79.8,2.4-2.52,3.97-4.06,2.24-1.47,1.96-3.56,1.22-4.1-.35.23,1.48-.6,2.17-1.88,1.42,1.19,1.91-.99,4.12-2.78,3.37.41,1.96-3.24,2.7-4.06,1.12-.94,1.53-3.67.93-3.79-.64-1.35.93-2.51-.6-1.76-1.82-1.72.75-3.15-1.79-2.46-2.88-.6,1.01-2.49.91-2.78-.37-1.47,3.58-6.76-.79-6.76-.79l16.54-37.54Z"/>
    <path d="m71.08,38.58c1.11-.37,1.42-2.32.41-3.15,2.41-.42,2.11-4.63.46-5.04,1.65-.69,1.29-3.03-.28-3.48,1.73-.77,1.22-2.96-.17-3.31,1.34-.72.93-2.75-.39-3.09,1.32-1.04.2-3.07-1.12-2.69,1.17-1.2-.2-3.03-1.63-2.64,1.48-1.61-.3-4.16-2.13-3.81.66-1.36-1.48-2.99-2.93-2.37l-1.04-1.23c1.27-1.49-.11-4.47-3.25-3.66.17-1.22-2.02-1.84-2.72-.65-.26-2-3.36-2.36-4.17-.75l-1.36-.32c-.32-1.54-2.76-1.85-3.5-.52-.32-1.6-2.41-1.87-3.18-.62-.71-1.45-3.17-1.35-3.62.29-.7-1.31-2.92-.91-3.01.68-.38-.91-2.2-.71-2.04.53l-.96.06c-.71-1.64-3.54-.69-3.54.94-1.02-.95-4.05-.01-3.6,1.59-.65-1.06-2.67-.25-2.11,1.13-1.31-.85-3.8,1.04-3.01,2.59l-.28.81c-1.83-.94-4.32,2.02-3.04,3.12-1.39.09-2.19,2.5-1.25,3.59-1.44-.06-2.51,3.53-.56,4.38-1.9-.03-2.15,3.16-.08,3.57-1.88.45-1.45,3.52.03,3.51,17.89,17.89,49.48,33.76,54.08,10.53Z"/>
  </g>
  <path class="estherShirt" d="m62.66,81.71c7.87,2.2,21.62,3.54,23.79,10.17,2.33,7.09,4.7,14.32,4.33,22.05l-16.61,5.59c1.43,10.53,2.54,20.86,2.29,30.51-.11,4.25,2.23,7.05.25,11.38,1.26,1.73,1.65,3.42,1.11,5.07,1.32,1.64,1.96,3.93,1.61,7.17-10.14,2.84-64.43,5.56-67.39-.87-.25-2.23,1.62-3.4,1.85-6.43-.91-2.16.37-3.09,1.36-5.56-3.09-4.7-.73-7.5-1.11-12.86-.57-8.01-.99-18.43-.46-28.07l-11.92-4.85c-2.19-3.47-.32-9.09,2.42-19.65,2.65-10.18,11.83-9.62,20.65-12.75l37.82-.89Z"/>
  <g class="estherCollar">
    <path d="m42.01,89.84c-6.98-5.37-9.86,1.67-13.5,3.2-5.26-7.08-5.03-10.1-3.81-10.96,2.91-2.05,4.87-6.78,7.95-6.53l21.7-.15c3.35-.15,5.04,3.64,8.47,5.91,1.46,3.34-3.05,7-4.85,11.87-5.45-2.78-10.86-8.37-15.97-3.33Z"/>
    <path d="m13.72,116.24c-3.03.17-8.71-.32-11.95-1.25-.38-.02-.39,3.53-.02,3.55,2.99,1.03,9.34,1.4,11.93,1.31-.04-1.1-.02-2.41.04-3.61Z"/>
    <path d="m74.14,115.91c3.12.07,13.82-.77,16.65-1.98.38-.02.39,3.53.02,3.55-2.92,1.26-13.69,2.1-16.63,2.04.04-1.1.02-2.41-.04-3.61Z"/>
  </g>
  <g class="clothesOverlapLine">
    <path d="m13.72,116.24c.17-2.41,0-4.45.73-8.07"/>
    <path d="m74.14,115.91c-.07-2.29-.19-4.96-.92-7.19"/>
    <path d="m44.25,210.73c.26-1.24-.2-2.71,0-4.75"/>
  </g>
  <g class="clothesFoldLine">
    <path d="m24.26,131.38c-.77,6.95-2.36,13.38-4.81,19.25"/>
    <path d="m15.26,160.78c.99.98,2.78,1.71,1.27,2.77"/>
    <path d="m13.9,166.35c2.35,3.05,11.78,5.78,20.37,6.26"/>
    <path d="m18.13,155.82c2.92,5.03,7.47,9.35,15,12.36"/>
    <path d="m72.38,158.65c-4.65,4.58-10.95,7.39-18.3,9.06"/>
    <path d="m76.72,161.4c-1.31,2.03-2.83,3.62-4.81,4.23"/>
    <path d="m77.83,166.47c-2.24,4.25-14.98,6.51-26.49,6.33"/>
    <path d="m62.48,133.74c1.28,5.37,2.97,9.78,5.28,12.64"/>
    <path d="m56.34,127.32c1.04,7.14,2.4,13.49,4.25,18.59"/>
    <path d="m83.07,101.17c.72,4.22,1.59,7.58,3.91,10"/>
    <path d="m73.41,99.55c-.47,3.4-.49,6.89-.19,9.17-.92-1.21-1.77-3.81-2.55-6.24"/>
    <path d="m14.74,97.68c1.02,3.04-.28,6.25-.28,10.49-1.23-2.36-1.68-4.52-2.74-6.25"/>
    <path d="m66.34,100.21c2.64,3.66,4.99,8.08,6.32,11.71"/>
    <path d="m19.26,102.6c-1.93,1.51-3.58,3.32-4.81,5.57"/>
    <path d="m18.91,105.87c-1.68,1.36-3.11,2.91-4.14,4.73"/>
    <path d="m61.26,179.64c-4.49,4.93-9.45,9.1-11.24,13.83"/>
    <path d="m67.83,197.53c-8.04.26-14.87,7.61-18.5,8.21"/>
    <path d="m72.06,200.38c-4.06-.09-10.11,1.38-13.05,3.28"/>
    <path d="m10.64,195c1.17,1.75,6.45.98,11.63,4.26"/>
    <path d="m42.76,206.61c-5.7-1.3-10.69-8.56-12.19-7.09-.97.95,0,2.07,2.25,3.37"/>
    <path d="m18.04,187.59c6.06-.13,12.59.31,19.45,1.12"/>
  </g>
  <g class="eye">
    <circle class="sclera" cx="37.99" cy="41.95" r="19.64"/>
    <g class="irisDarkBrown">
      <circle cx="26.89" cy="40.94" r="3.14"/>
      <circle cx="49.69" cy="40.94" r="3.14"/>
    </g>
    <g class="pupil">
      <circle cx="26.89" cy="40.94" r="1.22"/>
      <circle cx="49.69" cy="40.94" r="1.22"/>
    </g>
  </g>
  <g class="skinBlack">
    <path d="m28.75,65.18c2.57,5.3,2.73,9.99,1.71,12.92-.39,5.59,8.29,6.36,11.55,11.73,2.32-4.91,14.41-4.91,15.29-11.85-.85-7-.51-13.31,2.35-18.14"/>
    <path d="m73.66,40.56c1.45,7.64-2.48,10.14-3.62,12.09-1.06,1.81-2.32,5.53-5.72,3.28-2.49,7.51-6.04,12.61-12.7,16.48s-8.37,5.78-13.7,5.57-7.47-3.78-11.16-6.8c-13.35-10.93-8.89-27.85-9.48-31.44-1.64-9.95.95-15.52,2.5-20.12,2.4-1.04.56-4.99.99-8.39.63-.91.54-1.62,1.41-2.15-.03,4.47-.46,11.17,2.89,7.73.48,1.64,2.5,1.08,2.86-.01.73,1.41,2.75.4,2.75-.64-.17-3.63,1.64-10.64,2.7-13.15.83-.17,1.29-.24,2.01-.23-1.07,3.49-5.26,17.41-.14,13.93-.04,1.63,2,1.9,3.08.47.59,1.45,3.05.86,3.41-.73.45,1.45,3.28.89,3.42-.65.33-5.21,2.77-11.56,4.83-13.43.9.02,1.29.15,2.11.36-3.36,4.45-8.09,16.79-2,13.15-.13,1.21,2.48,2.32,3.41.73.68,1.03,2.52,1.4,2.91.14,1.08-3.52,3.01-6.51,5.45-9.14.68.27.96.71,1.42,1.41-3.14,3.77-8.4,11.03-2.09,10.77-1.27.95-1.77,3.27.32,3.77-1.14.5-1.32,2.95.23,3.27-1.09.64-1,3,.59,3.18-.73,1.18,0,3.41,1.55,3.27-.52.71-.7,2.7.95,2.82-1.23.68-1.59,3.59.18,3.91-2.5,2.95,2.23,5.27,2.45,1.5-.73-3.47,4.68-6.45,6.18-.95Zm-29.26,1.61c1.5.25,2.45.66,4.75.62,2.11-.04,4.31-.74,5.58-1.73-1.88-1.1-3.01-1.98-5.37-2.08-2.38-.1-4.2.7-5.85,2.55-.64.72.46.57.89.64Zm-13.08-.35c-1.68-2.11-3.25-2.91-5.55-2.74-2.1.15-3.21,1.12-4.65,1.98,1.23,1.33,3.04,1.8,5,1.86,1.39.04,2.8-.42,4.16-.6.43-.06,1.7.34,1.04-.49Z"/>
  </g>
  <g class="skinOverlapLine">
    <path d="m75.6,211.4c.97.56,2.72.15,3.3-.9"/>
    <path d="m87.72,205.99c-.57,2.67-1.84,5.35-3.33,6.86"/>
    <path d="m86.44,203.67c2.65-2.03,3.96,0,5.29-2.32"/>
  </g>
  <g class="skinFoldLine">
    <path d="m6.95,140.33c2.32-.17,5.15.34,6.8,1.1"/>
    <path d="m78.14,141.72c1.55-.56,4.05-1.04,5.2-1.28"/>
    <path d="m68.38,43.42c1.71-7.39,6.08.12,2.31,5.65"/>
    <path d="m66.92,46.96c1.92,1.54-1.98,4.7-.18,4.87.87.09.42-2.08,1.8-3.29,2.24-1.98,1.8-4.48.4-3.69"/>
  </g>
  <g class="skinCreaseLine">
    <path d="m22.29,254.29c3.22.76,6.36.68,9.41-.37"/>
    <path d="m54.05,253.68c3.53,1.16,7.12.95,10.75-.49"/>
  </g>
  <g class="lacosteLogo">
    <path class="clothWhiteMedium" d="m53.42,106.43c-5.97,3.93.05,3.82,4.09,3.55,1.35-3.44-7.48.05-4.09-3.55Z"/>
  </g>
  <path class="lipFemaleDark__noStroke" d="m47.04,61.32c-1.59,1.86-1.46,3.27-3.29,5.12-3.34,3.39-9.54,3.17-12.04-.39-1.21-1.73-1.07-2.76-2.25-4.42,5.45,1.9,11.32,1.62,17.58-.31Z"/>
  <path class="lipFemaleDark" d="m29.86,61.73c-.66-.13-1.17-.34-1.59-.7,1.76.35,3.4-.08,4.98-.77,2.04-.9,3.04.38,4.63-.18,3.63-1.28,5.92,1.62,10.33.95-.72.21-1.41.36-2.04.45-5.22,1.87-10.66,1.9-16.32.26Z"/>
  <path class="lipEdgeLine" d="m43.75,66.45c-3.34,3.39-9.54,3.17-12.04-.39"/>
  <path class="mouthInner" d="m46.18,61.48c-2.32.51-5.65-.12-9.21-.12-2.89,0-3.96.53-7.11.38,2.37,2,4.15,3.71,7.86,3.66,4-.06,5.9-1.65,8.45-3.92Z"/>
  <path class="teeth" d="m31.06,61.75c2.27-.04,3.42-.4,5.92-.4,2.66,0,5.15.29,7.25.29-2.5,3.22-10.42,3.29-13.16.1Z"/>
  <g class="noseLine">
    <path d="m31.42,50.46c-.1,1.67-2.76,2.91-.1,5.13"/>
    <path d="m43.34,51.79c1.08.5,1.46,3.09-.42,3.93"/>
    <path d="m40.85,55.56c-1.14-.94-4.79,3.02-8.59-.42"/>
  </g>
  <g class="eyeFoldLine">
    <path d="m22.91,44.35c1.34,1.05,4.6,1.01,6.32.12"/>
    <path d="m45.3,44.53c1.36.96,5.71.9,7.81-.21"/>
  </g>
  <g class="eyeCornerLine">
    <path d="m21.13,41.05c-.5.31-1.08.44-1.7.27"/>
    <path d="m57.22,41.45c-.75.3-1.93,0-2.49-.39"/>
  </g>
  <g class="eyeCreaseLine">
    <path d="m54.98,39.69c-2.21-2.39-7.49-4.06-10.77-.1"/>
    <path d="m30.68,39.01c-1.72-1.35-5.62-2.71-8.69.05"/>
  </g>
  <g class="eyebrowBlack">
    <path d="m57.84,36.32c-5.41-5.66-9.31-1.89-15.94-2.31,3.6,3.77,10.87-1.01,15.94,2.31Z"/>
    <path d="m32.38,33.82c-3.89.95-10.16-3.04-13.99,2.37,5.09-2.69,10.83,1.28,13.99-2.37Z"/>
  </g>
</svg>