<svg viewBox="0 0 178.41 328.89">
  <circle class="hairBlackDark" cx="78.83" cy="59.93" r="10.01"/>
  <g class="soleWhite">
    <path d="M11.55,303.17C5,301.7.43,302.57.26,308.1c-.42,4,11.61,11.63,19.08,13.71,8.2,2.28,17.32,7.76,21.89,6.69a7.63,7.63,0,0,0,3.05-3.86Z"/>
    <path d="M151.18,308.19c-1.74,6.44-1.06,11.09,4.46,11.49,4,.59,12.27-10.94,14.66-18.32,2.62-8.09,8.65-17.8,7.78-22.41a7.66,7.66,0,0,0-3.73-3.21Z"/>
  </g>
  <g class="estherShoe">
    <path d="M49.22,310.42c0,4.85-2,9.62-4.94,14.22-2,1.8-14.09-3.81-22.56-6a30.26,30.26,0,0,1-11-5.91c1.37-4.28,1.66-5.95.85-9.58,5.82,1,12.39-.75,19.81-2.56C41.75,299.6,48.27,303.58,49.22,310.42Z"/>
    <path d="M160.18,270.86a26.25,26.25,0,0,1,14.17,4.88c1.62,1.94-4.47,14.42-7.1,23.12-1.28,4.24-4.22,8-6.53,10.59-4.22-1.55-5.87-1.91-9.54-1.26,1.27-5.77-.06-12.24-1.55-19.73C149.06,278,153.31,271.52,160.18,270.86Z"/>
  </g>
  <g class="estherShoeStrap">
    <path d="M32.21,307,27.4,308a15.8,15.8,0,0,0-2.49-5.64c-.69-1,3.54-2.43,4.29-1.49A15.15,15.15,0,0,1,32.21,307Z"/>
    <path d="M24,308.49l-4.89.49a14.93,14.93,0,0,0-1.7-5.63c-.51-1,4-1.56,4.46-.56A23.84,23.84,0,0,1,24,308.49Z"/>
    <path d="M158.18,292.67c-2.81.52-5.12.87-7.24,2.51-.8.62-1.64-3.93-.78-4.67,2.23-1.88,4.52-2.24,7.45-2.65S161.15,292.11,158.18,292.67Z"/>
    <path d="M151.31,298.32a13.67,13.67,0,0,1,6.81-1.53c3-.05,3,4.79.07,4.92a14.62,14.62,0,0,0-6.5,1.42C151,303.49,150.5,298.74,151.31,298.32Z"/>
  </g>
  <g class="sockWhite">
    <path d="M33.33,301.09c3.74,1,3.74,4,4.39,4.8,2,2.54,9,3.65,9.76,3,2.11-15.79,17.12-23.74,21.3-46.47-5.29-.08-18.46-3.66-23.66-7.14C41.16,270.85,38.1,289.51,33.33,301.09Z"/>
    <path d="M159.49,271.57c-21.84-9.7-29.53-26.21-43-28.13-1.35,6.58-7.23,20.34-10.81,22.25,18.34,6.21,38.17,12.87,44.89,18.69,1-2.44,5.43-2.15,6.26-3.13C159.13,278.59,160.5,272.3,159.49,271.57Z"/>
  </g>
  <g class="estherSockStripe">
    <path d="M42.84,264.86c4.9,3.39,17.59,6.91,23.28,7.21q.85-2.28,1.55-4.81C62.3,267.15,49,263.53,44,260,43.58,261.63,43.21,263.24,42.84,264.86Z"/>
    <path d="M41.4,271.33c5.41,3.19,16.74,6.35,22.09,6.7q1-2,2-4.29c-5.37-.23-17.76-3.69-23-7.07C42.09,268.22,41.74,269.78,41.4,271.33Z"/>
    <path d="M110.74,267.4l4.9,1.67c3.87-3.92,9.37-15.84,9.78-22.06a27,27,0,0,0-4.46-2.36C120.7,251,114.68,263.91,110.74,267.4Z"/>
    <path d="M122,271.29c3.91-4,8.5-13.34,9.2-19.88-1.44-1.22-2.85-2.35-4.26-3.36-.29,6.45-5.71,17.58-9.58,21.62Z"/>
  </g>
  <g class="estherShorts">
    <path d="M64.61,194.25c-2,4.11-1.61,7.12-4.31,9.07.42,2.23,6,5.6,9.61,6.11Z"/>
    <path d="M106.64,162.55c1.76,3,4.85,4.29,4.62,6.75,3.52,8.3,7.84,20.3,3.38,39.65-3.11,2.06-16.41-.64-22.4-5.52-4,6-14.66,9.53-22.22,9.07C66.67,210,68.09,205.05,65.8,201c-4-7.13-2.7-15.24-4.54-25Z"/>
  </g>
  <g class="estherShortsTrim">
    <path d="M67.27,205.82a14.73,14.73,0,0,1-5.35-4.3,5.61,5.61,0,0,1-1.62,1.8c.35,1.84,4.18,4.44,7.54,5.59C67.59,207.94,67.44,206.9,67.27,205.82Z"/>
    <path d="M93.33,200.37c1.57-9.91.33-19.66-2.51-29.32-1,.33-2.06.67-3.11,1,3.12,8.23,4.72,25.06,1.7,29.91C86,207.38,74.15,210.58,68,209.49a5.69,5.69,0,0,0,2,3c7.56.46,18.22-3,22.22-9.07,6,4.88,19.29,7.58,22.4,5.52.22-1,.42-1.93.61-2.86C107.15,207.42,98.51,204.21,93.33,200.37Z"/>
  </g>
  <path class="estherShirt" d="M82.64,74.51c15.54,15.36,18.81,42.54,19.69,57,.33,5.42,4.66,6.92.88,14.48,1,9.69,8.43,5.53,4.91,13-1.51,3.78,1.64,3,.38,4.91-6.22,4.15-38.52,14.6-47.71,14-1.87-1.53-.12-5.66-1.13-7.93-4.91-3.15-4.8-18.38-5.79-28.7-1.69-17.59-4.41-37.87,4.06-57.09Z"/>
  <g class="lacosteLogo">
    <path class="clothWhiteMedium" d="M54.39,104.59c-3.53,4.22,0,4.1,2.41,3.82C57.6,104.7,52.38,108.46,54.39,104.59Z"/>
  </g>
  <g class="estherCollar">
    <path d="M57.17,80.92c-1.27,1.85-.3,6.73.1,9.74C65.9,79.12,80.45,80,84.06,75.1c.69-.55-3-6.57-3.71-6C74.68,70.44,62.59,76.81,57.17,80.92Z"/>
    <path d="M89.59,108.24c-4.46,2.06-14.34,6-18.87,7.51-.44.2.87,3.7,1.31,3.5a162.74,162.74,0,0,0,18.82-7.5C91.3,111.21,90.08,108,89.59,108.24Z"/>
  </g>
  <g class="clothesOverlapLine">
    <path d="M87.46,98.89c.53,4.33,3.72,6.61,2.13,9.35"/>
    <path d="M60.54,100.05c1.69,2.85,4.12,3.91,5.07,5.92,3,4.43,2.53,9.39,5.11,9.78"/>
  </g>
  <g class="clothesFoldLine">
    <path d="M85.45,93.45c1.07.89,1.58,3.08,2,5.44,1.58-5.12-.26-9.58-3.16-13.83"/>
    <path d="M72.3,100a21.55,21.55,0,0,1-.74,11.26"/>
    <path d="M63.18,96.08A19.3,19.3,0,0,0,65.61,106a8.08,8.08,0,0,0-4.9-.11"/>
    <path d="M94.49,148.65a37.61,37.61,0,0,1-10.44,7.81"/>
    <path d="M103.21,146a26.61,26.61,0,0,1-9.87,8.57"/>
    <path d="M103.86,155.72A65.44,65.44,0,0,1,83,166.57"/>
    <path d="M108.12,159c-1.15,2-5,3.09-7.71,5.63"/>
    <path d="M59.66,169.91c3,2.16,10.73.58,5.33,3.56"/>
    <path d="M67.78,200.35c2.41-6,9.25-9.54,5.92-4"/>
    <path d="M74.56,199.31a12.94,12.94,0,0,0-5.29,4.08"/>
    <path d="M111.26,169.3c-.19,1-3,2.65-6.75,3.28"/>
  </g>
  <g class="hairBlack">
    <path d="M33.67,18.14a1.31,1.31,0,0,1,.75-2.36c-.89-1.71.48-3.33,2-2.81l1.08-1.81c-1-1.53.63-2.73,1.95-2.12A1.87,1.87,0,0,1,42,6.46a1.52,1.52,0,0,1,2.57-1.22,1.94,1.94,0,0,1,3.33-1.17c-.31-1.6,3-2.79,4-1.28A1.58,1.58,0,0,1,54.75,2C54.93.87,57.5.64,57.92,1.78,58.29.23,60.78.14,61.18,1.5c1-1.74,4.52-1.62,5.09.08C66.76.08,69.54.39,70,1.87c.48-.84,2.26-.55,2.23.49.72-1.41,4-.56,3.65,1,1-1,3.16-.17,3.14,1.25a1.22,1.22,0,0,1,2.12.95c1.11-1.08,3.65,0,3.28,1.81.82-.45,2.31.31,1.86,1.48,1.57-.76,3.53,1.6,2.65,2.9,2.13-.87,4.54,2.15,3.12,4,1.57-.38,3.18,2.29,1.79,3.3,1.3,0,2.27,2.55.66,3.59a1,1,0,0,1,.37,2c1.13.22,1.9,2.32.44,3,1.36-.09,2,2.56-.06,3.12,1.61-.08,1.83,2.88-.12,3.24,5.16,6.86-21,28.2-19.08,17.56C64.26,52.8,35.09,30.85,33.67,18.14Z"/>
    <path d="M101.34,33.16c1.72-2.33,6-1.44,5.88,1.56a2.57,2.57,0,0,1,1.61,4.79,1.68,1.68,0,0,1,1.88,2.41c2-1.59,5.23,0,4.88,2.21a1.79,1.79,0,0,1,2.11,2.65c2,0,2.86,4.2-.08,4.71,1.6,1.08,1.28,4-.87,4.21a3.07,3.07,0,0,1,1.5,5.2c1.62.2,1.47,3.6-.64,3.08,1,1.86-1.68,3.72-3.4,2.6.1,2-2.71,3-4,1.66a1.57,1.57,0,0,1-2.36,1.67,2.48,2.48,0,0,1-2.26,3.88c.83,2-3.36,4.31-5,2.38-.6,1.92-4.45,1.89-4.34-.39-1.9,1.23-3.81-.54-3.11-2.6-.7,1.68-4.93,2-5.32-.08-1.79,1.64-5.45.19-5.09-2.32-2,.79-3.35-2.45-2.31-3.84-1.82-.46-1.17-3.5.56-3.42-1.08-1.07-.22-2.23,1.14-2.41-1.86-.22-2.89-1.32-1.85-2.75a2,2,0,0,1-1.43-3.74c-2-1.3-.85-4.5,1.2-4.06-1.27-2,.93-5.15,3.2-4.69-1.87-.58-1.81-3.44-.28-4.26-1.82-3.86,2.69-6,4.29-4.66-.11-1.66,2.41-2.25,3.13-1.08.84-1.84,4.12-1.75,4.66.22-.39-1.34,1.54-2.12,2.46-1.42C97.2,32.52,100.22,31.65,101.34,33.16Z"/>
  </g>
  <g class="hairOverlapLine">
    <path d="M78.36,16.26c3.9,1.89,9.19,7.73,11.45,13.32"/>
    <path d="M79.77,9.51c3.73,2.06,7.81,6.32,9.14,9.7"/>
  </g>
  <g class="eye">
    <circle class="sclera" cx="40.29" cy="45.15" r="5.76"/>
    <path class="irisDarkBrown" d="M36.71,48.44c-.35,0-1.34-1.27-1.53-3s.48-3.21.83-3.25A17.83,17.83,0,0,1,36.71,48.44Z"/>
    <path class="pupil" d="M35.73,46.61c-.28,0-.48-.49-.55-1.17s0-1.22.28-1.26A9.49,9.49,0,0,1,35.73,46.61Z"/>
  </g>
  <g class="skinBlack">
    <path d="M70,212.5a6.16,6.16,0,0,1-2.18-3.59,17.37,17.37,0,0,1-6.7-4.12C54,220.4,51.43,234.5,49,240c-3.47,8-2.28,9.23-2.61,10.41-.45,1.59-.89,3.23-1.31,4.9,5.2,3.48,18.37,7.06,23.66,7.14q.52-2.81.8-5.94c.18-2.05,7.61-11.65,12.45-18-1.72-9.7-3.4-19.44-7.11-26.18A26.48,26.48,0,0,1,70,212.5Z"/>
    <path d="M110.47,209.63c-5.34-.17-13.79-2.59-18.23-6.2-3.77,5.7-13.45,9.12-20.88,9.11,11.44,27.55,18,48.63,34.34,53.15,3.58-1.91,9.46-15.67,10.81-22.25a19.25,19.25,0,0,0-2.66-.19C112.33,243.21,110.34,223.44,110.47,209.63Z"/>
    <path d="M76.68,54.2C76,53.83,75.75,53,76,51.49L41.47,60.31C47.3,62.52,57.12,74.1,57.58,80.62c5.42-4,16.5-9.82,22.22-11.4C76.69,64.19,75.62,59,76.68,54.2Z"/>
    <path d="M40.74,120.55c16.1,9.42,28,26.2,41.56,25.17,2-.15,6.84.06,8.4-2.31,5.14-7.85,3.75-19.24-.09-31.55a162.52,162.52,0,0,1-18.29,7.3,17.6,17.6,0,0,0,2.19,4.3c-8.13-2.83-11.64-1-26.54-12-1.64-1.12.42-3.64.55-10.5.08-4.43,1.84-5.71,5.15-9.58,2.25-3.47-4.84-4-7.26,1.2-1.94,2-2.67,3.36-4.1,4.19C38.19,95,35.21,92,32.22,95.16c-1.44,2.1-3,1.46-3.46,4.28-.89,1.93-3.63,1.15-3.06,5.34.08,3.06-1.54,3-.16,6.11C31.18,119.76,36.66,118.31,40.74,120.55Z"/>
    <path d="M59.66,169.91c-2.61-1.67-3.8-6.76-4.49-12.72-5.6,2.7-10.58.2-14.3,10.15-2.44,2.94-6.62,3.9-3,6.19.2,3.54,4.38,4.77,6.52,4,.33.94,2,1.63,4.21.9,1.47,1.89,2.89,1.32,4.07,1.16a5.7,5.7,0,0,0,3.62-1.6c1.1,0,2.89.42,3.91-1C59.4,175.05,60.51,171.82,59.66,169.91Z"/>
    <path d="M36.45,13a12.5,12.5,0,0,1,3-3.93c11.37-7,32.21-5.51,40.29.47C67.29,3.14,45.67,4.47,36.45,13Z"/>
    <path d="M64.61,64.07C63.29,68.62,56.82,73,52,75.23c-5.07,2.35-5.92,3-8.32,2.56-4.9-.89-2.81-4.85-6-5.67a1.73,1.73,0,0,1-1.23-2.34c.7-1.15,4.25-2,4-2.67s-2.7-1.54-5.78-1.85a3.78,3.78,0,0,1-1.46-2.68A4.87,4.87,0,0,0,34,59.05c-4.68,1-6-1.9-4.54-4.2,1.86-3,4.76-7.31,3.51-10-3.49-7.53-2.43-21.34.73-26.68a1.26,1.26,0,0,0,2.22-.8c.3,1.64,3,1.41,3.26-.3,9.85-5.92,31.5-5.87,39.21-.78-8.92-4.5-28-2.73-34.41.93-.61.8,1,1.9,2.28,1.12-1,.79-.95,2.86.79,2.8-1,.12-1.58,1.95-.64,2.56A1.7,1.7,0,0,0,46.59,27c-.84.82,0,3.19,1.49,3.16a1.52,1.52,0,0,0,2.15,2c-.63,2.11,2.24,4.1,3.41,2.48a1.81,1.81,0,0,0,3,1.79c-.81,1,1.37,2.69,2.72,2.2-1.19,1.26-.07,3.51,1.56,2.92C60.56,43.72,64.27,44.92,65,43c3.24,1.48,2-1.58,3.51-2,3.69-7.85,11.73-3.47,11.13,3.26-.52,5.71-4.21,7.37-5.09,8.44-1.91,2.17-2.23,3.82-6.09,2.58M36.11,48c1.28-.61,3.61-2,5.19-2.94a41.65,41.65,0,0,0-5.76-2.42A5.93,5.93,0,0,0,36.11,48Z"/>
  </g>
  <g class="skinOverlapLine">
    <path d="M36.24,96.81c2.13-.84,4,2.41,6.07,0"/>
    <path d="M40.87,167.34c1.68-1.73,4-4.47,6.13-4.54"/>
    <path d="M37.82,173.53a6.13,6.13,0,0,0,7-2.5,18.64,18.64,0,0,1,2.33-1.92c2.64.75,6,.26,10-1.1"/>
    <path d="M44.34,177.5c2-.64,2.25-1.67,3.69-2.83,1.58-1.72-1.64-3.64-4.3-2.39"/>
    <path d="M48.55,178.4c5.93-2.68,3.81-6.68-.13-4.93"/>
    <path d="M56.24,178c1.06-1.86-.42-4.1-4-3"/>
    <path d="M55.54,175c1-1.38,3.94-1.38,4.34-.35"/>
  </g>
  <g class="skinFoldLine">
    <path d="M69.6,43.32c2.06-9.08,13.39-1.38,5.06,6.24"/>
    <path d="M69.86,45.52c2,.86-1.7,4.58.36,4.87,1.25.18.62-1.84,2.66-2.71,3.31-1.4,1-6.13-.89-4.23"/>
  </g>
  <g class="lipFemaleDark">
    <path d="M40.43,67.31c-.28.69-3.32,1.43-4,2.47a1.73,1.73,0,0,0,1.23,2.34C39.78,70.42,40.38,69.07,40.43,67.31Z"/>
    <path d="M34.66,65.26c2.77.27,5.07.94,5.64,1.63C39,65,36.09,63.6,33.2,62.58h0A3.78,3.78,0,0,0,34.66,65.26Z"/>
  </g>
  <path class="noseLine" d="M33.08,59.1c1.28-.39,1,.56,2.64-.09s1.09-3.11-.14-3.56"/>
  <g class="eyeLidLine">
    <path d="M35.54,42.65c-1.71-.67-.23-3-.23-3"/>
    <path d="M36.11,48c-.57.44-.71,1.33.61,2.16"/>
  </g>
  <path class="eyeCornerLine" d="M41.3,45.07a2.05,2.05,0,0,0,1.56-.13"/>
  <path class="eyeCreaseLine" d="M40.4,43.52a11.33,11.33,0,0,0-5.57-2.78"/>
  <path class="eyebrowBlack" d="M32.24,36.7c3.51.88,7.69-2.71,12.49,2.48C39.18,36.68,35.39,40,32.24,36.7Z"/>
</svg>
