<svg viewBox="0 0 125.37 351.73">
  <g class="soleLightTan">
    <path d="m115.49,346.03c.19,1,.46,2.42.02,2.96-2.87,3.53-13.56,2.3-24.41,2.2-8.23-.08-18.26.86-21.66-3.27-.48-.59-.65-2.02.09-3.45l45.96,1.56Z"/>
    <path d="m34.08,348.42c-.84.89-1.61,1.62-2.81,1.37-6.73-1.41-12.08-9.22-18.67-16.01-5.12-5.28-12.58-11.15-12.34-16.13.22-.78.72-1.22,2.04-2.22l31.78,32.99Z"/>
  </g>
  <g class="boot">
    <path d="m71.4,316.56c.86-1.6,18.21-1.38,20.08.64.87.94-.69,8.38.09,10.33,4.84,12.15,24.73,7.3,23.93,18.66-3.48,4.41-15.19,2.67-27.23,2.83-10.83.14-21.79.39-18.55-10.22,3.34-10.94.74-20.47,1.69-22.23Z"/>
    <path d="m21.26,297.64c1.44-.33,13.8,10.27,14.21,12.26.24,1.18-4.77,4.64-6.66,8.06-4.28,7.77,17.87,23.42,5.27,30.47-7.29-.32-13.1-9.56-20.01-16.36-9-8.86-17.24-15.17-7.49-21.09,11.16-6.76,12-12.71,14.68-13.33Z"/>
  </g>
  <g class="skinBlack">
    <path d="m94.71,243.78c-1,10.63.3,17.94-1.38,25.23-2.08,9.03-2.56,29.23-4.1,48.14,0,1.23-15.5,1.23-15.5,0-1.63-16.77-7.5-29.85-4.39-46.63-6.76,9.49-23.26,23.09-36.1,38.14-.74.9-11.68-8.3-10.94-9.2,9.51-15.62,13.07-32.43,27.29-39.91.52-4.49.21-11.01-.27-17.97l45.39,2.19Z"/>
    <path d="m19.32,192c-3.15,1.19-6.75,3.48-10.03,5.83-1.58,1.15-.49,3.49,1.47,2.84,3.77-1.53,7.79-4.07,9.99-4.26-2.04,3-6.12,6.17-10.55,10.1-2.02,1.75-.04,4.7,3.24,2.14,23.96-12.73,29.03-21.38,5.87-16.65Z"/>
  </g>
  <path class="skirt" d="m97.59,193.48c1.83,10.36,4.7,20.28,5.29,26.18.73,7.27,5.67,24.46,5.67,24.46-3.58,1.78-10.76,2.28-12.33,3.87-12.25,1.44-14.6-1.36-15.13,1.94-10.33-.41-13.4-2.37-13.88,1-8.57-2.92-14.35-4.93-14.99-.26-8.06-2.54-10.58-4.72-12.49-1.91-2.74-1.32-5.32-3.59-6.52-4.41-1.15-.08-1.96.73-3.61.83,2.39-11.18,8.64-40.1,13.63-52.17l54.35.48Z"/>
  <path class="jacket" d="m102.71,145.47c1.45,8.01-.55,10.84-.35,16.23.13,3.47,2.95,6.04.62,16.9-.11,5.58,3.36,11.43,2.02,15.6-10.47,4.11-15.59,2.08-24.48,2.44-9.47.39-18.76,2.95-30.61-.96,1.84-36.51,4.25-70.64,8.08-98.91,21.95-2.61,37.51,17.2,44.72,48.69Z"/>
  <g class="lapel">
    <path d="m85.45,162.44c.05-.46,3.2,3.33,3.09,3.77-.96,3.84-8.76,18.01-11.61,20.41-.69.58-3.71-2.87-3-3.43,1.89-1.49,11.25-18.42,11.52-20.75Z"/>
    <path d="m57.78,97.7c-.95-.32,1.53-7.27,2.53-7.19,13.17,1.01,23.84,5.33,29.42,13.86,6.84,10.45,10.93,27.46,12.98,41.1-4.19-12.51-10.62-23.05-13.98-29.18-7.53-13.73-16.89-18.04-30.95-18.59Z"/>
  </g>
  <g class="clothingPearl">
    <ellipse cx="99.65" cy="151.49" rx="1.54" ry="3.66"/>
    <ellipse cx="100.04" cy="171.07" rx="1.54" ry="3.66"/>
  </g>
  <g class="backpack">
    <g class="backpackAdjusterDark">
      <path d="m68.77,159.01c-1.54,10.08-2.17,20.49-2.06,31.18-1.68.1-3.88.03-5.34-.33.3-9.07.88-18.29,2.56-24.58l4.84-6.26Z"/>
      <path d="m51.72,87.78c-1.03,0-1.88.46-2.51,1.2,4.08,1.64,6.29,6.61,6.48,10.68.47.38.92.89,1.33,1.57.7-4.97-1.19-11.18-5.3-13.46Z"/>
    </g>
    <g class="backpackAdjusterLight">
      <path d="m70.86,155.99c-7.89,11.89-20.66,24.87-31.9,34.2,11.26-13.23,22.64-27.44,27.95-36.73.67-.01,3.95,2.53,3.95,2.53Z"/>
      <path d="m57.02,101.24c-2.71-4.46-6.89-1.43-8.4-5.08-1.61-3.88-.14-8.38,3.11-8.38-1.69-.96-4.44-.62-5.6-.34-3.53,2.41-3.53,7.23-1.45,9.93,2.39,3.09,8.54-.66,10.76,3.91l1.58-.03Z"/>
    </g>
    <path class="backpackStrap" d="m67.46,154.67c1.05,1.27,3.79,1.83,4.87.73,18.99-19.48,21.78-49.64,7.39-58.15-7.1-4.2-16.19-2.61-22.7,3.99,1.36,3.47.26,7.37.92,13.5,0,0,6.22,37.34,9.52,39.94Z"/>
    <path class="backpackLeatherDark" d="m18.13,160.15c.16,5.96-.93,19.93.62,30.67.28,2.66,5.71,3.02,9.92,2.18l-1.85-33.34c-3.17-.28-6.18.93-8.69.49Z"/>
    <path class="backpackDark" d="m27.88,135.81c-1.81-.33-3.28.14-4.5.85-3.18,0-4.32,1.78-4.5,3.19-.74,5.73-1.2,12.47-.76,20.31,2.51.43,5.51-.77,8.69-.49,2.85-6.73,2.86-14.75,1.07-23.85Z"/>
    <path class="backpackLeatherLight" d="m27.25,153.22c-1.43,19.77-1.73,41.92,4.16,42.2,9.78,2.03,13.41-24.64,19.06-41.92-11.26-1.47-20.6,1.2-23.21-.27Z"/>
    <path class="backpackLight" d="m57.02,101.24c-2.46-.12-4.86.54-7.22,2.08-3.92-.68-8.79,1.54-13.08,2.41-1.66-.41-4,.46-4.73,1.11-3.8,3.38-3.88,25.5-4.74,46.38,2.62,1.48,11.95-1.19,23.21.27l7.48-38.76c-.67-6.12.44-10.03-.92-13.5Z"/>
    <g class="backpackOverlapLine">
      <path d="m41.3,104.52c-1.71,4.99-2.88,29.3-2.45,48.63"/>
      <path d="m23.39,136.66c0,6.93-1.17,15.49-.31,23.18"/>
    </g>
    <g class="backpackCreaseLine">
      <path d="m36.72,105.73c-1.32.95-2.22,3.23-2.23,6.54"/>
      <path d="m49.8,103.31c-.32,1.11-.37,3.15-.28,5.68"/>
    </g>
  </g>
  <path class="jacket" d="m51.81,136.27c-.77-7.03,4.88-13.78,6.26-22.49,3.29-20.65,29.9-18.15,24.16,5.24-1.12,4.58-3.67,10.15-8.69,19.43-5.88,10.86-4.23,16.65-8.56,16.87.68,2.34-.26,5.88-2.56,6.65,1.41,3.32-1.19,3.15-1.79,5.75-.43,1.84-6.77,22.24-10.99,30.93-.64,2.04-18.79-5.24-17.89-7.16,1.02-4.86,3.91-10.56,6.77-15.34-.89-8.82,3.4-12.3,5.37-18.53,2.27-7.19,2.56-15.98,7.92-21.34Z"/>
  <g class="skinBlack">
    <path d="m61.81,90.64c9.32.91,17.3,3.54,22.98,8.24.18-6.65,3.69-15.26,6.95-17.05l-40.51-49.15c-3.4,43.79,17.32,37.96,10.59,57.96Z"/>
    <path d="m32.66,192.78c-3.87,2.37-6.8,6.97-9.9,9.56-2.09,1.66-4.92,2.4-9.23,5.6-1.66,1.11-.43,4,1.91,2.89,3.02-1.35,6.83-3.42,8.91-3.81-1.58,3.53-6.26,6.51-9.4,11.94-1.26,2.24,1.39,3.9,3,2.57,3.72-4.07,7.22-7.67,10.18-10.09-1.11,2.96-5.29,8.5-7.88,14.41-.68,2.21,2.09,3.44,3.61,1.9,3.65-4.49,5.75-9.67,9.3-13.07-1.74,4.47-2.43,8.58-3.91,13.26-.81,3.46,3.07,4.26,4.11,1.67,1.92-6.26,5.23-12.87,8.26-19.61.79,1.94,1.65,2.5,2.84,5.46,1.83,4.98,5.46,4.86,5.64,2.82-2.55-5.44-1.98-14.31-3.13-19.5-4.08-.86-11.64-3.98-14.3-5.99Z"/>
    <path d="m73.86,76.84c-3.85,1.27-5.42-.39-6.87-2.78-3.27-2.82-4.14-6.19-5.73-9.61C43.02,25.1,80.11,1.83,111.54,43.11c1.81,4.7.66,12.35-4.16,20.26-1.81,2.96-.18,7,2.1,11.66.8,1.63-1.12,3.99-4.49,3.87-.64,1.43-.51,2.1-.11,3.38.15,1.19-1.86,2.8-2.74,3.02.66.56.35,1.57-.94,3.15-3.59-.74-1.27,6.46-7.99,5.76-1.89-.2-3.17-.86-6.13-2.21-5.63-2.57-9.58-6-11.41-9.39"/>
  </g>
  <g class="skinOverlapLine">
    <path d="m69.34,270.52c5.79-6.51,10.57-14.42,13.44-22.28"/>
    <path d="m70.13,58.32c-.58-.12-1.6-.1-2.16-.01"/>
  </g>
  <g class="skinFoldLine">
    <path d="m73.38,65.02c-1.97-9.16-13.67-2.13-5.07,6.21"/>
    <path d="m72.71,67.23c-2,.88,1.74,4.57-.32,4.88-1.25.19-.63-1.84-2.68-2.69-3.32-1.37-.89-6.32,1.01-4.45"/>
  </g>
  <path class="lipFemaleDark" d="m102.14,85.3c.88-.23,2.88-1.84,2.74-3.02-1.71.95-3.92,1.83-6.89,1.79.39,1.18.83,3.01,3.21,4.39,1.29-1.58,1.6-2.59.94-3.15Z"/>
  <path class="lipOverlapLine" d="m97.99,84.07c1.83.86,3.05,1.26,4.15,1.23"/>
  <path class="noseLine" d="m101.33,75.39c-.83.87-1.03,2.51.04,3.41,1.38,1.16,2.92-1.19,4.97-.67"/>
  <path class="eyeLidLine" d="m104.04,68.28c.59-.48,1.13-1.29.5-1.76,1.37-1.12.61-3.22.33-3.77"/>
  <path class="eyeLashLine" d="m97.7,64.82c1.37.2,2.21.88,6.84,1.7"/>
  <path class="eyebrowBlack" d="m108.82,58.25c-3.5.91-7.44-3.54-12.4,1.88,5.6-2.72,9.46,1.73,12.4-1.88Z"/>
  <path class="hairBlack" d="m66.99,74.07c-5.27-5.52-5.02-14.94.98-15.76-4.62-8.4-5.99-13.39-8.46-21.87.37-.48.71-.95,1-1.4,2.64,9.26,4.64,14.76,9.62,23.27,1.93.45,3.36,1.54,3.85,3.86,1.68,1.18,2.87,5.05,4.75,1.5,1.87.05,2.78-2.45,2.02-3.47.9-.76,1.08-2.21-.49-4.66-3.86-6.04-10.02-13.78-16.73-23.39.4-.18.81-.39,1.2-.62,7.03,9.81,13.55,17.13,17.23,22.45,1.13,1.63,2.92,2.23,4.08.93,1.05,1.05,2.75-.15,2.39-1.55,1.75.54,2.49-1.76,1.79-2.7,1.05-.46.76-1.84-.53-3.23-2.98-3.21-10.73-8.58-19.1-16.68.53,0,1.08-.02,1.65-.07,6.83,5.78,12.72,9.12,19.56,15.96,2.28.96,4.28-2.37,2.95-4.02-15.76-59.65-71.22-.45-33.12,35.45.75.82,2.09-.18,1.31-.96,1.84.24,1.19-1.23.69-1.9-8.49-11.31-8.88-25.01-9.23-33.68.39-.3.81-.63,1.21-.99.25,12.76,4.08,28.39,11.38,33.51"/>
  <path class="hairDyedRed" d="m78.11,28.93c-.02,1.98,3.09,2.1,3.1-.09.68,2.32,2.85,1.16,3.95-.75-.79,1.59,1.39,3.37,3.34,2.68-1.46.58-1.71,2.59,0,3.02-1.42,1.23-.52,4.28,1.6,3.49-2.16,1.31.7,4.94,2.25,3.76-.5,2.99,3.96,2.95,3.63.69,1.86.41,2.68-1.02,2.64-2.92.89,1.52,2.63,1.65,3.74.34-.92,1.76.51,4.42,2.3,3.7-1.38,1.9,1.28,3.27,2.52,1.69.44,1.79,2.8.99,3.67-.22-.92,1.6,1.56,4.63,3.35,3.03-.41,1.4,2.14,2.83,2.8,1.86,1.71,1.93,3.66-.91,2.18-1.78,2.3-1.13,1.21-4.93-1.23-4.58,1.29-.59,1.22-2.21.14-2.79,1.58.58,2.66-.92,2.36-2.01,1.18,1.37,4.39-.45,3.06-2.19,2.95-.94,1.36-4.63-1.04-3.85,1.7-.21,1.32-2.02.11-2.38,3.45-1.04-.11-4.91-2.1-2.13.28-1.42-1.05-2.27-2.48-1.66,2.16-.87,1.73-3.45-.16-3.2,2-1.31-1.06-4.61-2.73-2.29-1.1-2.82-4.48-1.45-4.8.54.07-1.59-1.08-2.49-2.28-2.19,1.95-1.05,1.5-2.71.07-3.14,2.18.15,1.98-2.12.39-2.63,1.85-.85-.51-3.58-1.6-1.6.19-1.29-1.68-2.21-2.69-1.58.19-2.33-3.91-3.11-4.89-.61-.45-.96-1.98-1.1-3.08.23,1.16-1.48.97-2.56-.65-2.87,1.88-.27,2.11-2.47.49-2.85,1.51-1.61-.75-3.25-2.33-1.64-1.22-1.17-3.46-.15-2.54,1.79-.91-.48-2.08.22-2.54,1.34,1.51-3.7-2.18-5.12-3.2-3.77-.13-1.73-2.81-1.43-2.35.4-.73-1.18-2.67-.45-2.98.74.27-1.82-2.06-2.42-2.48-.86-1.13-1.15-3.4.74-1.54,2.49-.99.41-1.41,2.05-.24,2.83-1.33-.77-2.33-.08-2.67,1.17.39-1.78-.85-2.84-2.46-1.82.8-2.25-1.7-3.08-2.84-1.13-.61-1.14-1.91-.56-2.36.56.8-3.35-5.28-2.58-3.59.33-1.36-.49-2.12.89-1.43,2.7-1.02-2.35-3.68-2.75-5.02-.56-1.11-1.31-3.71.24-2.01,2.33-1.01-.15-1.91.68-1.82,2.16-.18-1.28-.86-1.99-2.1-1.47.64-2.43-3.76-2.99-3.46-.41-.82-2.07-5.16-1.22-4.13,1.73-1.86-.61-4.1,2.59-1.77,3.51-1.24.59-1.52,1.96-.11,3.04-1.27-1.11-3.12-.78-3.5.44-1.95-3.14-6.56,2.09-2.89,4.07-3.05.11-3.91,5.12-.12,5.75-.99,1.89,1.21,3.51,3.29,2.37-1.5.84-1.97,2.74-.29,3.68-1.79-.54-3.56.46-2.87,2.09-2.2-.45-3.1,2.71-.82,3.43-1.59.87-2.63,2.09-1.34,3.78-2.28-1.5-5.53,2.94-3.57,4.9-2.01-.79-3.66,2.59-.88,3.18-.82,2.05,1.31,3.47,3.27,1.62-1.47,1.14-1.52,3.64.38,4.02-1.41.22-2.39,1.65-1.68,2.57-3.02,1.97.94,5.37,2.25,2.18.07,1.18,1.74,1.22,2.7.46-.6,1.12-.88,2.14-.48,2.96-2.82.97.03,5.02,2.07,2.1-.31,1.01.92,1.71,2.06,1.51-1.7.33-2.59,2.88-1.39,3.22-1.13,1.76,1.78,3.87,2.89,1.98.57,1.72,2.53,1.22,3.32-.45-.03,3.01,3.21,3.69,4.08,1.57-.28,2.82,2.77,4.75,5.37,3.7-.9,1.89,1.29,3.46,2.64,1.38-.05,2.4,2.7,2.02,2.75.06,1.36.56,2.33-.87,1.21-1.99,1.3-1.06.88-2.77-.79-2.95.87-.78.62-1.49-.9-2.11,2.14.56,3.5-1.52,2.36-2.86,2.89-1.4.98-4.41-1.26-2.9,1.32-1.81-.74-3.73-2.06-2.65.54-1.32-.64-2.65-2.21-2.16,1.77-1.32,1.66-3.49-.64-3.15,1.91-1.27-.01-3.37-1.1-2.82,1.21-1.36.25-2.98-1.02-2.95,1.53-.75,1.65-2.76.3-3.32,2.33-.36,2.37-3.73.9-4.4,2.25,1.29,3.14-2.14,1.43-2.68,1.8-.69,1.43-3.16-.03-3.51,4.91-11.46,13.19-15.32,24.53-12.33Z"/>
  <g class="bow">
    <path d="m66.88,29.62c.04,1.05-4.51,3.3-5.44,3.19-1.03-.13-3.23-4.66-3.11-5.52-.04-1.14,4.36-3.51,5.5-3.27,1.05.32,2.99,4.27,3.04,5.6Z"/>
    <path d="m72.25,14.19c-1.97-.07-8.84,6.2-8.42,9.84,1.05.32,2.99,4.27,3.04,5.6,1.37,2.56,13.17.27,13.45-1.75.62-4.53-4.88-13.57-8.08-13.69Z"/>
    <path d="m58.34,27.3h0c-3.68-3.93-13.32.38-13.83,1.23-1.32,2.16,5.44,14.24,7.8,14.12,1.92-.09,9.04-7.22,9.14-9.84-1.03-.13-3.23-4.66-3.11-5.52Z"/>
  </g>
  <g class="clothesOverlapLine">
    <path d="m96.22,247.98c-1.67-18.46-4.63-38.98-4.81-46.66"/>
    <path d="m81.1,249.92c.3-13.03-.9-31.88-.9-47.71"/>
    <path d="m67.22,250.92c-.43-15.76.31-33.47,1.11-48.62"/>
    <path d="m52.23,250.66c1.01-15.91,2.75-32.38,4.86-48.75"/>
    <path d="m39.74,248.75c3.36-10.32,4.36-21.87,6.01-30.86"/>
    <path d="m33.22,244.34c2.29-8.49,5.21-24.66,8.64-33.79"/>
  </g>
  <g class="clothesFoldLine">
    <path d="m102.98,178.6c-1.61,3.86-3.45,7.09-5.66,9.24"/>
    <path d="m96.43,182.23c-2.49,4.16-6.26,7.65-11.85,10.19"/>
    <path d="m56.31,147.58c2.23,2.62,4.8,4.36,7.77,5.1"/>
    <path d="m62.41,161.96c-1.78.4-3.69-.75-5.47-.37"/>
    <path d="m64.97,155.31c-2.17.42-8.01-1.06-2.8,2.97"/>
    <path d="m64.33,129.24c-4.18,6.06-8.67,11.49-12.99,10.57"/>
    <path d="m72.87,123.89c-2.15,4.38-4.85,8.82-8.66,13.37"/>
    <path d="m51.81,136.27c.04.67-.06,2,1.44,1.8"/>
    <path d="m54.27,35.06c-1.3,1.18-.67,2.11.1,1.87,2.29-.72,3.12-3.07,5.61-5.69"/>
    <path d="m72.44,27.52c3.52-3.6-2.75-2.06-6.07.3"/>
    <path d="m51.81,31.16c-2.01,2.29,2.14,2.18,7.04-2.11"/>
    <path d="m68.91,21.61c2.03-2.16,3.3-1.68,3.16-1.02-.55,2.57-4.04,3.45-6.41,5.71"/>
  </g>
</svg>