<svg viewBox="0 0 220.05 255.48">
  <path class="skinEastAsian" d="M76.04,120.09c-4.58,15.47-9.91,28.79-16.57,38.26,1.86-11.64,5.25-20.89,4.87-34.39-.07-5.04-3.58-5.78-4.51-9.69-.8-5.78,.47-7.37,.93-11.26,.41-3.44,3.84-4.19,5.25-5.42,.52-4.94,3.15-5.62,5.64-5.74,4.18-.21,4.11,2.91,4.71,6.7l-.32,21.56Z"/>
  <g class="violin">
    <path class="bowButton" d="M181.62,100.69c-.5-.09-1.13,3.58-.63,3.67l7.32,1.05c.59,.09,1.16-3.57,.57-3.66l-7.26-1.06Z"/>
    <polygon class="bowHair" points="8.74 80.12 8.28 81.47 165.48 104.84 166.18 103.82 8.74 80.12"/>
    <path class="bowPadding" d="M157.7,97.3c-.55-.07-1.02,3.73-.47,3.8l9.14,1.27c.66,.09,1.19-3.7,.53-3.8l-9.2-1.28Z"/>
    <path class="bowHead" d="M1.01,79.84c1.89,.6,3.84,1.38,7.27,1.63l.46-1.35c-2.65-.66-5.36-.75-7.73-.28Z"/>
    <g class="violinBow">
      <path d="M11.02,73.89c-5.18-.89-5.84,4.44-10.01,5.95,1.89-.36,4.78-.51,7.73,.28,.67-2.18,2.02-3.3,4.03-2.98,33.98,7.23,89.04,15.67,144.51,23.53,.35,.05,.75-2.85,.4-2.9-55.75-7.62-112.12-15.91-146.66-23.89Z"/>
      <path d="M181.64,101.03c-4.8-.65-9.63-1.3-14.47-1.95,.12,.77-.09,2.26-.42,2.94,4.79,.67,9.58,1.34,14.35,2.01,.41,.07,.95-2.92,.54-2.99Z"/>
    </g>
    <g class="violinLight">
      <path d="M60.19,115.38c-.14-.34-.27-.71-.36-1.11-.18-1.32-.26-2.42-.26-3.38-1.64,1.78-2.48,3.85-2.8,4.88-.22-.71-.59-1.19-1.09-1.29-1.09-.22-2.34,1.48-2.81,3.78-.56,2.74,.03,4.66,1.12,4.88,3.43,.69,3.65-5.3,6.2-7.76Z"/>
      <ellipse cx="53.18" cy="118.29" rx="2.49" ry="1.17" transform="translate(-73.26 147.17) rotate(-78.66)"/>
      <path d="M77.33,95.96v7.1c3.5,1.12,7.71-6.75,32.94-3.55v-9.59c-14.65-4.66-32.39,3.8-32.94,6.04Z"/>
      <path d="M71.49,105.52l-.08-6.47c-2.13-.46-6.29,1.52-6.49,4.24l-.25,6.02c1.08,0,5.98-2.36,6.82-3.79Z"/>
    </g>
    <g class="violinMedium">
      <path d="M71.41,99.05l5.9-.07,.07,3.85,5.98,3.71c-4.07,.87-8.03,.54-11.87-1.03l-.08-6.47Z"/>
      <path d="M55.19,116.12l-1.52-.27c.64,.13,.93,1.32,.66,2.67-.27,1.35-1,2.34-1.64,2.21l1.52,.27c.64,.13,1.37-.86,1.64-2.21,.27-1.35-.03-2.54-.66-2.67Z"/>
    </g>
    <g class="violinTrim">
      <path d="M112.15,89.01c-10.07-3.02-24.45-1.2-31.71,3.99-1.21,.87-2.06-.05-3.13,1.22-.58,.69-.43,1.58,.02,1.74,1.08-1.26,1.92-.35,3.13-1.21,7.28-5.17,21.67-6.95,31.72-3.89l-.04-1.85Z"/>
      <path d="M77.32,99.65c-2.39,.27-4.51-.67-5.9-.6-.74,.03-1.31,.52-1.45,.92-.12,.36-3.62,.82-5.05,3.32-.56,0-.56-1-.14-1.72,1.47-2.48,5.05-2.95,5.18-3.31,.13-.4,.7-.89,1.44-.92,1.4-.07,3.51,.86,5.91,.58v1.74Z"/>
      <path d="M64.75,111.55c-.43-.39-.44-1.59-.07-2.21,1.28-2.19,5.2-2.59,5.34-2.95,.15-.39,.73-.9,1.48-.87,1.86-.16,5.5,2,9.51,0-.22-.78-1.8-.83-3.63-.74-.44-.05-.54-1.12-.05-1.72,1.05-1.28,2.04-.29,3.29-1.09,7.49-4.86,21.94-6.02,31.86-2.54-17.48,6.27-33.91,11.05-47.72,12.12Z"/>
    </g>
    <g class="violinDark">
      <path d="M62.31,118.56c-.77-.98-1.58-1.91-2.12-3.18-2.55,2.47-2.77,8.45-6.2,7.76,1.77,.48,3.32,.78,5.04,.21,1.73-.57,2.24-2.78,3.27-4.8Z"/>
      <path d="M112.42,101.27c-9.91-3.51-24.36-2.39-31.87,2.44-1.25,.81-2.61-.13-3.19,1.07-.25,.74,4.48,.01,4.73,1.58,.12,.77-2.21,1.42-4.14,1.59-2.81,.24-5.01-.8-6.52-.71-.74-.04-1.33,.47-1.48,.86-.14,.36-4.09,.75-5.17,3.13-.68,1.65,7.43,4.32,15.07,3.16l32.56-13.12Z"/>
    </g>
    <g class="shinyBlack">
      <path d="M54.93,114.41c.83-.07,.91-.32,1.18-.87l2.37,.5c.6,.13,.87-1.25,.27-1.35l-2.12-.34c.19-.71-.11-.89-.49-1.06-.81-.35-3.08-.42-3.67-.12-.73,.37-1.09,1.69-.82,2.11,.24,.37,2.76,1.17,3.28,1.13Z"/>
      <path d="M59.58,110.35l-1.51-.25c.42-1.31,.2-1.76-.18-1.93-.81-.35-2.99-.31-3.58,0-.96,.48-1.85,3.18-1.44,3.71,.27,.35,2.38,.95,2.9,.91,.83-.07,1.32-.33,1.78-1.48l2.05,.43c-.02-.49-.02-.95-.01-1.38Z"/>
      <path d="M113.13,87.23c-.26-1.12-2.36-1.2-4.73-1.11-4.98,.19-8.51-1.38-13.09-1.48-3.94-.08-4.76,1.52-2.47,3.65,6.29-1.13,13.27-1.01,18.95,.61,1.12-.41,1.51-.95,1.35-1.67Z"/>
    </g>
  </g>
  <g class="skinEastAsian">
    <path d="M155.21,53.93c2.23,6.92,8.15,25.4-5.02,36.39-5.65,4.71-9.3,10.83-23.62,8.73-31.66-14.2,5.13-91.71,28.64-45.13Z"/>
    <path d="M83.02,193.04c-14.02-2.6-29.48-4.35-37.09-2.4-7.17,1.83-14.4,13.18-10.51,22.19,4.21,9.78,17,19.99,30.76,29.59l107.64-9.82c5.57-10.67,15.37-28.31,8.26-38.72-4.1-6-10.78-8.97-18.17-6.6l-80.89,5.75Z"/>
    <path d="M140.12,84c-1.45,1.71-.85,6.42-.53,7.49,3.37,11.06,20.23,7.15,31.42,10.71,.56-.87,.84-1.7,.91-2.49l-3.43-.46c-.47-3.06-1.56-4.92-.4-6.46-1.45,.7-2.8,1.02-4.02,.81-1.01,2.8-1.72,1.49-1.72,4.34l-4.65-.65c-.13-.02-.25,.19-.34,.43-.84-2.41-.23-4.02,2.58-8.67,1.51-2.26,5.53-2.47,9.14-4.74,6.03-3.45,10.34-6.81,19.53-.79,5.36,2.96,9.91,6.85,13.26,9.03,10.86,7.05,20.09,18.79,17.49,27.37-1.83,6.07-19.49,8.71-39.08,7.62-7.28-.41-12.74,.32-14.11,5.22-2.21,7.91-3.23,24.25-4.37,40.63-.55,7.89,4.51,14.25,1.81,27.11-8.41,7.69-70.56,10.82-82.58,.48,.49-7.98,5.27-11.4,7.12-26.46,.84-6.87-.6-17.74-.42-27.65-6.31,11.44-4.94,21.44-11.43,25.68-7.17,4.68-10.88,3.91-13.11,.41-9.89-15.51,.55-19.88,8.31-44.43,3.4-10.76,3.56-21.73,22.71-26.52,12.6-3.15,14.81-5.89,13.17-12.79-1.11-4.67-8.17-8.2-12.55-16.31m82.58,31.02c3.86,.92,8.19,1.61,15.13,1.61-2.33-2.92-3.61-5.87-6.8-8.8-2.03,3.84-5.93,3.38-8.33,7.19Z"/>
  </g>
  <path class="hairBlack" d="M156.28,53.49c-1.86,4.74,1.35,8.53-1.09,12.03-.27-3.62-2.54-9.64-2.18-13.89-1.76-6.78-9.27-6.02-5.91,5.76-5.04,17.14-22.61,15.52-29.49,24.41-5.92-4.87-17.07,1.38-28.6-11.44-22.34-26.76-10.62-61.27,21.98-64.87-.28-.58-3.61-4.91-10.11-4.13,6.48-2,10.85-.06,12.83,3.79,1.43-3.87,6.22-6.13,10.29-4.13-2.89-.08-5.96,.8-6.49,3.79,9.07-1.85,33.13,.69,40.19,20.39,5.35,14.92-1.42,28.31-1.42,28.31Z"/>
  <g class="skinOverlapLine">
    <path d="M59.17,197.75c6.22,1.86,13.44,4.81,18.91,7.73"/>
    <path d="M204.65,107.34c-4.81-2.41-8.95-1.83-12.1-1.78"/>
    <path d="M87.84,127.74c-.68,6.32-.29,13.09-.11,19.15"/>
    <path d="M171.01,102.21c2.24,.62,3.89,1.22,6.41,1.74"/>
    <path d="M167.62,90.4c1.34,3.84,4.81,3.3,4.31,9.32"/>
    <path d="M181.3,93.37c1.65,.98,3.14,2.1,4.45,3.39"/>
    <path d="M66.01,97.58c1.51-1.56,4.83-1.68,3.96,.67"/>
    <path d="M154.45,65.96c1.1,5.16-2.84,3.49-4.21-.69-.83-2.54-2.43-4.1-3.15-7.89"/>
  </g>
  <g class="skinFoldLine">
    <path d="M161.81,92.78c.66,.44,1.42,.71,2.26,.83"/>
    <path d="M63.03,103.59c.17,.58,.99,1.22,1.83,1.25"/>
    <path d="M151.93,52.52c-3.5-4.46-2.5,6.71,1.59,11.26"/>
    <path d="M149.82,54.06c.56-.59,1.72,.34,1.93,1.33"/>
    <path d="M151.81,56.8c-.71,.9,1.96,3.33,.32,4.99"/>
  </g>
  <path class="skinCreaseLine" d="M128.62,138.45c-.54,15.72,.54,33.45,0,47.83"/>
  <path class="futureBennettUnderwear" d="M163.04,202.19c11.8,3.53,16.19,29.21,8.01,36.65-1.55,8.43-8.17,8.43-13.56,11.75-18.53,7.5-27.86,1.61-32.59,1.97-2.64,.2-20.87,6.82-42.43-1.56-7.24-2.82-12.02-3.73-17.67-6.73-1.08-1.32-1.28-5.45-.6-7.93-3.49-16.59,6.01-31.73,16.59-31.01,33.26,11.49,60.71,10.52,82.26-3.13Z"/>
  <path class="futureBennettWaistband" d="M163.6,200.51c1.57,3.44,.54,4.68,2.16,8.65-20.07,12.02-71.88,11.18-87.15,.84,1.79-3.17,1.17-6.36,2.4-9.02,12.02,10.34,74.16,7.21,82.58-.48Z"/>
  <g class="clothesOverlapLine">
    <path d="M171.05,238.84c-2.79,2.7-6.03,3.88-8.69,7.12"/>
    <path d="M64.2,236.33c1.3,2.97,3.37,5.39,6.19,7.27"/>
    <path d="M164.21,210.04c3.81,2.96,6.97,7.73,7.87,13.94"/>
    <path d="M78.62,210.01c-2.1,5.64-2.59,11.14-1.21,16.48"/>
  </g>
  <g class="clothesFoldLine">
    <path d="M165.77,209.17c1.13,.5,1.85,1.31,2.18,2.4"/>
    <path d="M160.96,211.57c1.64,1.56,2.05,4.18,2.22,7.01"/>
    <path d="M159.4,212.19c.71,.64,.97,1.41,.9,2.26"/>
    <path d="M133.15,217.46c.25,1.79,.24,3.63,0,5.52"/>
    <path d="M121.02,217.97c.24,1.5,.24,2.77,0,3.84"/>
    <path d="M118.5,217.97c.25,2.27,.23,4.54,0,6.81"/>
    <path d="M83.93,212.71c-.63,2.94-.91,6.17-.86,9.65"/>
    <path d="M81.69,211.73c-.37,1.39-.54,2.69-.41,3.88"/>
    <path d="M75.97,213.27c-2.7,5.3-3.38,15.76,.45,24.09"/>
    <path d="M76.33,211.39c-2.24,1.86-3.68,5.13-4.23,9.98"/>
    <path d="M166.21,214.46c4.57,6.88,5.2,14.74,.63,23.9"/>
    <path d="M141.18,242.74c-5.99,0-11.32,.19-16.14,.5"/>
    <path d="M134.67,236.24c-10.63,.01-20.27,.24-28.03,.88"/>
  </g>
</svg>