<svg viewBox="0 0 186.96 451.03">
  <g class="soleWhite">
    <path d="M150.07,438.93a8,8,0,0,1,.52,6.59C147.76,448,133,450,127.85,449c-1.83-.35-4.07-1.41-6.18-1.54s-6.47-1-8.06-2.46c-3.28-7.08,2.11-11.64,5.27-13.19Z"/>
    <path d="M38.45,442.17a7.07,7.07,0,0,1,.17,6.3c-3.06,2.29-18.48,2.94-23.78,1.67C13,449.7,2.47,448,.91,446.48c-2.73-6.55,3.66-11.7,7.32-13.21Z"/>
  </g>
  <g class="bennettShoe">
    <path d="M143.94,411.23c.7,10.49,6.13,14.39,6.13,27.7-3.32,3.91-17.46,4.38-20.2,4.07-3.2-.36-5.22-.9-7.33-1.05a22.86,22.86,0,0,1-4.87-.65c-.83-2.81.06-6.51,1.21-9.47,2.93-4.86,6.25-10.45,5.53-21.06Z"/>
    <path d="M37.66,413.42c-2.65,13.26,2.47,18.38.79,28.75-3.66,3.73-18.36,3.29-21.18,2.84-3.3-.53-10.68-1.6-11.95-2-.71-2.85.55-6.55,2.91-9.7,8.17-5,11.46-13.17,11.44-21.27Z"/>
  </g>
  <path class="converseLogo" d="M125.78,438.15c3.45.81,3.81-10.93.3-11.5C122.94,426.14,122.47,437.37,125.78,438.15Z"/>
  <path class="bennettJeans" d="M129.3,227.07c3.52,10.05,4.75,20.38,1.2,31.31,1.13,2.17.86,4.18-1.4,6,1.42,19,2.29,37.05,2,53.24-.23,6.67,5.54,10.47,1.2,13.76,3.64,2.08,3.87,4.95,2.59,8.18,3.83,10.24,5.13,27,8.13,41.67,1.35,6.58,7,15.26,2,22.14,5.91,4.49.62,6.78-.53,12.11-12.25,2.61-28.3-2.33-23.74-11.54-5.1-2.36-3.15-9.83-4.38-16.88-3.86-11-7.36-26.31-10.75-42.85-.71-3.35-4.41-4.23-2.83-9.69-4.58-4.59-1-6.35-7.58-28-2.72-10.58-7.4-24.06-8.28-40.81-7.76,22.74-17.11,40.29-21.69,54.57-2.26,5-1.51,9.85-6.21,11.46q2.79,3.17-.49,6.34c-1.94,14.81-7.51,33.21-11.28,49.37-1.49,6.37,1.52,16.14-5.29,19.22,4.49,4.86-2.12,7.93-5.08,12.69-5.1.76-11.13.11-17.82-1.54-2.49-5.86-8.84-7.45-1.78-13.27-6-3.91-1.19-10-.71-13.05C19.7,371.88,23,352.68,27.54,334c-1.94-4.59,2.82-7.05,4.23-9.17-6.67-3.88,1.2-9.35,2.47-20.28,3.63-31.23,8.94-60.61,16.22-87.44Z"/>
  <g class="skinEastAsian">
    <path d="M135.71,75.71c-7.76,9.2-17.8,16.84-29.34,19.56-12.13,2.86-19.8-5.38-23.14-9.37-7-8.42-5-23.39-3.09-30.46C83.55,29.7,123.32,59.55,135.71,75.71Z"/>
    <path d="M129.36,80.38c-4,4.65-6.2,15.27-5.31,23.24l-34.76-3.54c2-8.85,3.6-19.49,2.21-23"/>
    <path d="M42.41,38.73c7-1,10.24-7.18,13.59-7.13,4.73.08,4.42-7.69.57-7.81,2.15-1,2.86-3.63,3.08-7,.2-3.1-4.33-3.66-6.37-5-2.34-1-3-4.15-9.13-2.63-1.7.76-3.12-1.46-7,1.79-8.88,6.16-5.7,13.6-7.37,21.07C32.43,32.25,41.93,37.17,42.41,38.73Z"/>
    <path d="M146.47,193.19c-4.81,2.93-9.44-2.75-15.49,4.86-3.06,4.12-4.8,7.45-4.11,10.48.86,3.7.42,6.68,4,5.44,0,2.53,2.46,4.31,5.65,3,1.59,3,3.94,3.58,8.4-.08,2-1,9.35-1.45,10.51-11.44C151.23,206.36,143.73,196.12,146.47,193.19Z"/>
  </g>
  <path class="hairBlack" d="M75.45,35.57a10.67,10.67,0,0,0,5.12-4.18c-1.34,8.91.31,14.58-.1,17.25-1.38,8.87.27,9.63.53,13.71a75.56,75.56,0,0,0,1.11-8.75c2-7.54,9.13-4.89,5.88,8.53,7.47,14,18,10.63,25.61,21.23,5.47-5.62,23.2-3.39,32.5-15.22,13.41-17,18-37.32,3.18-53.5,3.28-1.16,5.65-1,9.14.92A9.29,9.29,0,0,0,148,12.37a12.16,12.16,0,0,0-7.14-9.58c2.26,2.23,3.58,5.16,3.58,7.32C127.5-4.32,92.3-2.93,83.11,14.39,75.87,28,80.86,27.05,75.45,35.57Z"/>
  <g class="skinOverlapLine">
    <path d="M51.15,16.23c1.61,2.37.31,3.44,1.27,5.16a4.46,4.46,0,0,0,4.15,2.4"/>
    <path d="M130.88,214c1.68-.93,2.4-3.73,1.37-6.18a3.47,3.47,0,0,0,3.12-2.36c4.81,3.29,9.4,2.22,13.93-.23"/>
    <path d="M140.32,207.41c-1.89,2.18-1.29,3-8.37,5.54"/>
    <path d="M136.53,216.94c4.86-2,4.93-3.21,6.38-4.73,1.57-3-2-4.68-4.32-2.62"/>
    <path d="M142.91,212.21c3-1,4.54,2.28,2,4.65"/>
    <path d="M81.37,67.48c-1.18,5.63,3.15,4.26,4.76-.58.58-1.75,1.54-2.37,1.86-4.77"/>
  </g>
  <g class="skinFoldLine">
    <path d="M55.27,17.29A4.79,4.79,0,0,0,52,19.36"/>
    <path d="M83.74,54.6C84.47,49,87,61,82.66,66.7"/>
    <path d="M84.37,55.73a7.56,7.56,0,0,0-1,4.94c.59,2-1.8,4.8-.2,5.22"/>
  </g>
  <path class="bennettHoodieInner" d="M86,99.4c6.53-4.09,33.22-5,40.19,2.33,1.37,1.43.81,3.45.56,5.2Z"/>
  <g class="bennettHoodie">
    <path d="M143.09,150.36c-2.51,11.8-5.21,22.57-8.57,30.81-1.28,3.15,3.42,6.83-2.14,11,.69,1.49,1.07,2.92-.66,4,1.33,9.05,1.8,17.55-2.14,23.23.16,3.13,1.64,6.92,1.15,8.07-7.75,8.24-25.93,3.59-39,2.64-14.24-1-32.46-.82-43-9.89-.16-2.14,4-7.51,4.78-11.2-.33-4.45-2.8-10.05,1.81-14.67-.5-3.62.42-6.55,2.8-8.73-2.47-5.77,6.43-7.91,2-49.76-3.62-15.82-40.2-20.27-45.31-33.28-4.62-16,1.15-29,4.78-47.95C16.38,50,21.81,52.15,21,49.85c-2.29-3.41-.12-4.61,3.13-5.28,2.53-4,3.47-9.91,4.95-12.39.79-1.3,13.83,5.3,13.35,6.75-1.15,3.46-4,6.71-5,10.09,2.06,2,2.77,4.12,0,6.76,2.14,3.62-1.37,2.63-1.32,5.77.06,4.12,1.81,11.53.66,18A9.44,9.44,0,0,1,37.15,86c1.07,2.35,1.23,3.25.32,4.34,2.44-1.44,2.87.89,5.27,1.32,2.73.48,7.41-.6,10,3.46,2.64.66,3.1,2.18,4.94,2.64,2.72.66,6.14-.19,8.24,1.81,2.64-1.38,4.89-.85,6.76,1.48,2.09-2.89,3.41-1.8,5.69.17l55.77,9.22c2.8,1.16,8.25.3,8.07,5.77,3.89.35,6.91,1.84,8.57,5.11C158,125,160.67,131.61,165,137.67c6.59,9.23,19.46,24.61,21.59,36.09,1,5.27-3.86,12.23-13.68,20.59-.71,3.26-3.14,5.18-7.91,5.28,0,2.55-1.74,3.05-4.78,2a16.49,16.49,0,0,0-3.64,3.2c-3.77,3.65-13.12-8.39-10.11-11.61,1.26-1.35,3.57-.57,4.53-2.95.63-4.38,3.33-5.51,6.26-6.27-1.37-3.76,1.54-2.47,1.84-4.16.47-2.61-1.72-4.13,2.61-7.86-4.65-2-7.71-4.6-7.09-8.74-3.46-1-5.83-3.68-7.25-7.74C145.17,155.05,143.83,153.2,143.09,150.36Z"/>
    <path d="M78.42,101.26c9-7.2,19.33-.23,28.76,1.36,12.24,2.07,28,.23,28.52,8.3-.37,3.16-5.94,5.88-11.91,10.75-5,4.1-10.17,11.08-20.79,9.33C90.48,128.8,75.93,103.24,78.42,101.26Z"/>
  </g>
  <g class="clothesDisplayLine">
    <path d="M94.89,233.65c.37,9.47-.25,18.39-3.25,26"/>
    <path d="M117.67,441.3c-1.17-.44-4-1.09-4.8-2.52"/>
    <path d="M5.32,443C4,442.66,2,442.73.48,441.44"/>
  </g>
  <g class="clothesOverlapLine">
    <path d="M151,190.24c.91,3.88,5.47,9.68,9.22,11.36"/>
    <path d="M129.58,219.4c-12,5.55-29.09,5.3-43.89,1.73-11-2.66-25.77-5.18-32.24-12.11"/>
    <path d="M24.12,44.57c4.44.6,10.61,2.61,13.35,4.45"/>
    <path d="M57.26,261.25c6.49,4.28,19.92,5.88,29.7,4.4,8.18-1.24,19.15,3.86,29.48-1.31"/>
  </g>
  <g class="clothesFoldLine">
    <path d="M21,49.85c2.71,1.74,7.73,1.87,5.9,5.2"/>
    <path d="M19.51,54.63c3,1,4.29,2.08,3.22,3.19"/>
    <path d="M30.49,50.76c2.49,2.07,5.54,2.49,7,5"/>
    <path d="M36.81,79.51C32.15,77,25,78,20.52,81.77"/>
    <path d="M37.15,86c-5.38-3-13.72-.53-17.74,4.17"/>
    <path d="M28.55,90.77a16.34,16.34,0,0,0-9,6.09"/>
    <path d="M33.39,94.23c-3.24,3.18-5.22,6.66-4.56,10.8"/>
    <path d="M37.47,90.38c-13.9,0-11.91,13.68-14,13.4S22,97.28,25.64,94.5"/>
    <path d="M52.79,95.16c-8.67-3.43-14.83,8.76-10,17.9"/>
    <path d="M57.73,97.8c-3.21.45-5.45,2.42-6.06,7"/>
    <path d="M66,99.61c-3.87,6.85-6.45,14.27-3.92,24"/>
    <path d="M72.73,101.09c-2.65,3.24-2.6,11.76-4.86,10.86-1.8-.72-.57-3.17,1.52-6.09"/>
    <path d="M123.24,111.12c-2.21-2.77-13.29,2.35-28-3.33"/>
    <path d="M90.16,113.75c5.26,2.82,8.82,6.6,10.1,11.63"/>
    <path d="M119.23,119.15c-5,1.33-9.51,3.52-12.6,7.75"/>
    <path d="M58.06,185.62a15.41,15.41,0,0,0,5.24,3.44"/>
    <path d="M55.26,194.35c3.29,3.56,7.8,5.92,13.16,7.45"/>
    <path d="M128.61,214.06a10.6,10.6,0,0,1-5.64,1.86"/>
    <path d="M127.12,210.1A48.35,48.35,0,0,1,111.61,212"/>
    <path d="M126.71,207.07a18.25,18.25,0,0,1-6.93.54"/>
    <path d="M126.84,201.94c-9.94.37-18.78-.62-25.89-3.74"/>
    <path d="M93.62,152.1c3,12.49,7.58,23.43,14.53,31.84"/>
    <path d="M101,159.3c8.12,18.91,17.15,32,28.8,28.51"/>
    <path d="M132.38,192.21a8.07,8.07,0,0,1-3.18,0"/>
    <path d="M116.05,191.83c4.56,3.74,12.45,6.37,2.21,4.71"/>
    <path d="M131.72,196.17a7.18,7.18,0,0,1-5,.64"/>
    <path d="M111.2,142.27c4.74,7.85,10.16,13.94,16.47,17.72"/>
    <path d="M142.26,116.25c-2.82,7-2.27,18,1.75,7.47"/>
    <path d="M150.83,121.36c-1.83,1.3,1.35,4.71.52,7.34"/>
    <path d="M140.41,139.22q3.1,3.32,2.68,11.14c4.8-10.17,1.24-16.48,3-17.09,1.49-.52,2,1.47,1.66,5"/>
    <path d="M141.1,133a15.22,15.22,0,0,1,2.36,7.48"/>
    <path d="M149.13,149.88c4.43,3.13,12.74,4.57,19.11,7.2"/>
    <path d="M147.37,155.47c5.92,2.3,17.38,3.07,26,11.3"/>
    <path d="M154.62,163.21c2.4,1.07,6.56.93,11.4,3.84"/>
    <path d="M161.71,172a15,15,0,0,0,7.91,1.47"/>
    <path d="M167.68,175.77c-3.32.83-6.36-.42-6.23-2.22"/>
    <path d="M176.13,178.4c-4.44,2.49-8.92,4.07-13.57,2.77"/>
    <path d="M169.48,186.85c-4.66.93-8.87.39-12.22-2.88-2.14,2.66-1.25,5.77,2,9.24"/>
    <path d="M172.91,194.35c-3.57,1.84-6.61,2.42-8.83,1.08"/>
    <path d="M121.26,267.08c-7.66,3-15.18,4.05-22.39,1"/>
    <path d="M96.06,270.63c3.13,1.62,6.08,4.73,8.93,8.69"/>
    <path d="M95.93,276.14a152.71,152.71,0,0,0,5.88,19.21"/>
    <path d="M82.11,268.8A40.07,40.07,0,0,1,65.84,270"/>
    <path d="M79.05,275.16c-1-4.22-5.26.28-10.52,7.34"/>
    <path d="M128.35,323.49c-5.28,6.28-12.51,8.74-23.73,3.3"/>
    <path d="M129.7,338.29c-5.14,1.59-13.21,1.22-16.88,3.42"/>
    <path d="M57.64,326.91c-7.84.52-14.93-1.47-21-6.73"/>
    <path d="M53.24,338.29c-8.12-4.07-16.06-7.19-22.39-2.2"/>
    <path d="M132.29,331.36c-4.3,2.28-12.87,1.79-12.94,3-.1,1.75,5.21,1.83,11.08-.37"/>
    <path d="M102.82,334.5a14.92,14.92,0,0,0,12,1.95"/>
    <path d="M31.77,324.8c7.28,2.24,10.62,4.07-.19,4.44"/>
    <path d="M59.06,331.68c-4.23.37-13.6-4.81-14.51-2.08-.74,2.2,7,2.69,12.6,5.39"/>
    <path d="M42.1,398.73c-3,4.33-8.29,6-18,2.32"/>
    <path d="M17.32,404.49a21.29,21.29,0,0,0,9.12,3.17"/>
    <path d="M42,406.61c-5.77,1.66-16.1,1.61-1.86,3.62"/>
    <path d="M36.35,413.78c-6,.74-11.65.3-16.68-1.78"/>
    <path d="M142.67,391.88c1.63,5.78-10.65,11.13-18.35,5.26"/>
    <path d="M145.05,403.35c-4.22,4.43-9.37,1.15-9.11,2.84.32,2.13,4.53,2.57,7.34,1.22"/>
    <path d="M120.78,403.92c4.52,2.51,16,1.17,6.23,3.37"/>
    <path d="M147.15,409.71c-1.61,2.81-11.09,3.33-18.8.52"/>
  </g>
</svg>
