<svg viewBox="0 0 285.36 414.22">
  <g class="hat">
    <path class="hatLight" d="M55.11,196.12C74,181,58.72,141.18,34.82,143.29,48.73,156.82,55.71,174.3,55.11,196.12Z"/>
    <path class="hatRibbon" d="M39.31,143.39c13.83,7.35,25.24,33.62,19,49.53a22,22,0,0,1-3.21,3.2L34.82,143.29A21,21,0,0,1,39.31,143.39Z"/>
    <path class="flowerPetal" d="M38.24,145.71c1.82,1.61,7.23,2.14,7.87.92,2,.73,5.09,1.22,5.67.05.48-1-1-2.65-2.92-3.34.11-1.91-2.71-3.24-4.67-3-.55-1.52-3.94-2.65-5.41-1.71-1.51-1.42-4.72-1.48-5.67-.15-2.61-.73-5.56.26-5.35,1.5Z"/>
    <path class="flowerPollen" d="M35.32,141.05c-.32,1.29,9.06,3.57,9.38,2.28C45.42,140.36,36,138.07,35.32,141.05Z"/>
    <ellipse class="hatDark" cx="28.52" cy="175.22" rx="26.12" ry="37.83" transform="translate(-66.89 25.51) rotate(-23.26)"/>
    <ellipse class="hatInner" cx="30.71" cy="177.87" rx="20.59" ry="30.53" transform="translate(-67.76 26.59) rotate(-23.26)"/>
    <g class="hatFrame">
      <path d="M25.49,148.69c-5.11,7-5.81,18.6-1,29.73,5.5,12.81,16.46,20.78,26.09,19.77l-.36.69c-9.68,1.78-21.19-6.39-26.93-19.76-5-11.61-4.15-23.69,1.37-30.46Z"/>
      <path d="M20.45,199c11.46-8.12,21.89-18.38,29.16-29.32l.26.61C44.07,181,33.72,191.76,22,200.52Z"/>
      <path d="M48,166.32c-15.25,2.22-31.13,7.62-38.45,13.1l-.49-2.17C19.47,170.87,32.94,167.1,47.83,166Z"/>
      <path d="M37.38,153.55c-6.17-1.54-14.44-1.13-25.63,2.38a17.74,17.74,0,0,1,1.5-2.06c8.61-2.41,15.76-3.12,21.67-2A25.31,25.31,0,0,1,37.38,153.55Z"/>
    </g>
    <g class="flowerOverlapLine">
      <path d="M48.86,143.34a6,6,0,0,0-4.16,0"/>
      <path d="M44.19,140.38a2.78,2.78,0,0,0-1.46.37"/>
      <path d="M38.78,138.67c0,.41.13.67.19,1"/>
      <path d="M33.11,138.52A4.68,4.68,0,0,1,36,140.17"/>
      <path d="M46.11,146.63c.67-1.08-.54-2.4-2.23-2.93"/>
      <path d="M35.35,141.27a4.67,4.67,0,0,0-4.09.1"/>
      <path d="M39.37,143.06a2.19,2.19,0,0,0-1.83,2.11"/>
    </g>
  </g>
  <path class="skirtInner" d="M228.78,269.48c-7.24-1.58-15.57,4.37-23.44,9.91C211.76,280.15,229.38,275.29,228.78,269.48Z"/>
  <path class="skirt" d="M146,111.37c3.76,2.43,13.87,26.91,18.06,36.4,2.09,4.74,6.14,4,6,8.57,1.82,3,6.17,2.27,4.87,6.52,34.52,23.37,27.73,63.31,53.85,106.62-13.14-2.87-29.82,19-40.95,18.36-15-.91-35.38,1-46-6.4-17.91-12.51-37.07-14.32-49.21-31,13.39-10.91,23.93-22.24,31.51-33.7.75-1.13,1.61-6.76,4.89-4.72a1.72,1.72,0,0,1,1.35-2.36c-2.37-2-1-4.36-1.18-6.57-6.09-5.25-13.23-13.92-18.29-22.27L99.22,159.55C79.56,147,92,136.71,94.16,117.46c5.94-36.7,24.18-42.89,51.82-6.09"/>
  <g class="necklaceDisplayLine">
    <path d="M121.09,80.4C90,96.44,96.64,118.09,98,134.9c2.86,36.23,2.33,80.06-6.35,78.51-7.79-1.4,15.06-29.62,7.9-46.1"/>
    <path d="M98,134.9c3.05,22.36-7.47,59.91-13.19,57.9-5.54-2,16.24-20.15,12.49-33.11"/>
  </g>
  <g class="glove">
    <path d="M68.56,158.85c9.39,3,8.49-2.27,10.84,1.55,11.46,1.24,11-2.65,12.9-.11,5.94-.79,11.52-1.35,15.8-1,.42-1,1.37-1.24,2.68-1,.21-1.86-.65-2.56-.57-3.41,0-1.85,23.06-.74,23,.93-.15,7.95-1.11,22.48-6.86,23.75-22,4.83-39.52-3.16-60.91-7.54-4.46-1-9.69,4.33-18.47-.06-3,3.34-8.67,2.61-7.73-1.78a3.13,3.13,0,0,1-.94-4.49c-1.78-.84-1.88-3.66-.63-5.33-1.15-5.44,6.17-9.2,11.6-11.71C55.46,146.19,65.28,157.48,68.56,158.85Z"/>
    <path d="M164,147.77c1.55,3.51,4.17,4,5.38,5.92,6.3-8.95,11.55-19.11,12.42-25.81.79-6.14-8.57-9.5-14.12-14.49-1.28-.82-8.87,12.8-11.23,17.12C159.45,137.08,162.27,143.76,164,147.77Z"/>
  </g>
  <g class="clothesOverlapLine">
    <path d="M37.69,160.3a35.35,35.35,0,0,1,7.11-4.81"/>
    <path d="M38.32,165.63a16.22,16.22,0,0,1,6.11-5"/>
    <path d="M39.26,170.12a11.63,11.63,0,0,1,4.36-4.07"/>
    <path d="M47,171.9a6.5,6.5,0,0,1-1.68-1.29"/>
  </g>
  <g class="clothesFoldLine">
    <path d="M211.13,254.34c-2.15,10.26-6.38,19.15-16.62,24"/>
    <path d="M166.1,219.48c-6,12.59-24.2,17-38.89,5.65"/>
    <path d="M129,212c1.11,2.33,3.69,4.27,6.93,6"/>
    <path d="M130.37,209.65c2.1,1.9,6,3.2,9.84,5.83"/>
    <path d="M129.19,203.08c2.06,1.5,5.25,5.82,19.41,2.19"/>
    <path d="M174.93,162.86c-.57,1.39-2.24,3.14-5,5.23"/>
    <path d="M167.08,128.18a19.93,19.93,0,0,1-9.7,4.14c4.38,1.26,9.68.61,15.7-1.49"/>
    <path d="M159.34,134.07a12.34,12.34,0,0,0,6.76,2.5"/>
    <path d="M170.79,139.74a19.76,19.76,0,0,1-7.63-1.31"/>
    <path d="M170.06,156.34c-5.59,8.24-13.25,11.42-11.92,12.93s7.42-2.07,10.69-6.32"/>
    <path d="M149.86,160.22c-4.64,2.49-8.93,4.18-12.53,4.36"/>
    <path d="M144.2,166.33a33.11,33.11,0,0,1-12.2,3.29"/>
    <path d="M119.24,164a33.15,33.15,0,0,0,9.15,4.36"/>
    <path d="M110.78,158.23c1.93,3.67,7.37,8,13.14,11.15"/>
    <path d="M110,159.57c3.49,8.72,13.74,19.07,11.34,13.41"/>
    <path d="M108.1,159.26c.13,3,2,8.7,4.38,11.43"/>
    <path d="M92.3,160.29a18.94,18.94,0,0,0,3.4,6.8"/>
    <path d="M91,163.17a29.5,29.5,0,0,0,5.23,9.48"/>
    <path d="M79.4,160.4a19.89,19.89,0,0,0,4.42,8.32"/>
    <path d="M77.06,160.66a19.94,19.94,0,0,0,2.84,6.65"/>
  </g>
  <path class="teeth" d="M66.44,76.84c7.06-.79,9.31,1.83,1,3.62A11.88,11.88,0,0,1,66.44,76.84Z"/>
  <g class="eye">
    <circle class="sclera" cx="68.5" cy="51.59" r="5.82"/>
    <path class="irisDarkBrown" d="M66.27,55.48c-.38.05-1.46-1.35-1.69-3.21s.48-3.49.86-3.53A19.48,19.48,0,0,1,66.27,55.48Z"/>
    <path class="pupil" d="M65.19,53.52c-.3,0-.52-.53-.61-1.25s0-1.33.29-1.37A10.5,10.5,0,0,1,65.19,53.52Z"/>
  </g>
  <g class="skinEastAsian">
    <path d="M158.5,345.64c-26.15-15.31-22-49-39.37-67.07l8-5.47c-11.24-5.37-22.08-9.27-30.52-18C90.2,264.64,84.45,274,87,280.8c7.79,21,35.48,50.49,47.44,66.37,5,6.59,1.77,12.48-1.83,26.66-.75,3-2.6,8.75-4.15,10.21C128.8,402.8,182.23,355.54,158.5,345.64Z"/>
    <path d="M269.06,361.77c-24.48-14.57-28.24-43.56-58.45-61.81L207,278.25c-7,4.91-13.72,9.92-19.13,9.59s-11.76-.28-18-.46c5.67,11.28,10.12,22.15,16,27.5,13.84,17.69,47,37.43,62,55.8,3.76,4.29,2.57,11.14,2.76,19.75a28.67,28.67,0,0,1-1.73,10.28C260.15,424.7,289.22,369.83,269.06,361.77Z"/>
    <path d="M74.71,64.8c10.67,9.08,19.81,20,19.42,26.42-.77,12.56,1.82,16,0,26.24,4.27-7,2.14-23.64,17.37-28.62C126,84.12,132.89,102.65,146,111.37c-16.78-33.74-30-21.67-30.63-58.28"/>
    <path d="M105.77,122.43c-7.94-10.66-6.15-28.95,6.91-31.89,12.23-2.75,28.39,21.52,18.91,34,.74,11.72,1.26,22.73,1,31.12-2.94,1.07-20.74.39-21.67-.84C108.32,143.55,108.37,133.18,105.77,122.43Z"/>
    <path d="M156.63,130.83c4.71-5.44,9.33-12.27,10.69-17-11.94-8.85-24-15.3-33.82-21.46,3.35,3.64,7.73,9.5,12.48,19C148.18,112.79,152.55,121.75,156.63,130.83Z"/>
    <path d="M101.56,73.06c-2.66,6.33-9,11.93-15.48,15.85-3.7,2.23-8.28,5.67-10.85,5.2-8.24-1.54-3.06-8.77-8.4-10-3.2-3.87,1.4-5.56,4.55-5.38a8.82,8.82,0,0,0-.6-1.32c-1.2-.08-3.17,0-4.37,0-1.83,0-4.1-.63-3.77-2.35,1.34-1.13,2.62-2.94,2-4.75-3.22-.43-7.12,1.59-7.64-2.66-.3-2.43,4.61-10.22,5-14.13.39-4.15-3.92-7-1.77-24.35C57.32,5.83,101.63,55.6,102.77,65M65.54,54.65c1.31-.4,4-1.83,5.82-2.39-1.79-1.07-4.66-1.71-6.58-2.36A6,6,0,0,0,65.54,54.65Z"/>
  </g>
  <g class="skinOverlapLine">
    <path d="M131,111.74a65.51,65.51,0,0,1,.63,12.81"/>
    <path d="M103.61,115.32c.9,4,2,5.05,2.16,7.11"/>
    <path class="skinFoldLine" d="M119.13,278.57a9.63,9.63,0,0,1-4.08,1.56"/>
  </g>
  <g class="soleLightTan">
    <path d="M281.73,369.9c1.54.43,3.38,1.76,3.38,3.39,0,3.37-4.8,11.59-9.76,18.08l-1.84-1.31Z"/>
    <path d="M169.45,356.48c1.4.79,2.86,2.52,2.47,4.11-.82,3.27-7.61,9.48-14,14.58l-1.78-1.72Z"/>
  </g>
  <g class="shoe">
    <path d="M267.64,360.48c2.23,6.24,4.84,19.29,5,26.93-2.65,4.2-5.55,9-7.61,13.18a35.76,35.76,0,0,1-16-1.08c-4.92,4.06-12.28,8.38-9.8,11.87,5.29,7.43,24.31-2.79,27.75-9.93,5.48-11.35,12.76-19.1,15-27.1C284.06,367.13,274,362.86,267.64,360.48Z"/>
    <path d="M157.59,344.09A103.44,103.44,0,0,1,156,370.67c-3.58,3.44-7.42,7-11.32,11.11a54,54,0,0,1-16.23,1c-3.13,5.35-11.42,11.23-8.85,14.65,4.24,5.61,18.12-2.21,24.1-11,7.45-10.89,21.2-18.92,25-25.56S163.15,347.93,157.59,344.09Z"/>
  </g>
  <g class="shoeStrap">
    <path d="M249.38,375.05c4.05-2.62,11.43-10.6,14.06-16.5a1.61,1.61,0,1,1,2.87,1.47A54.49,54.49,0,0,1,250,378.4,11.59,11.59,0,0,0,249.38,375.05Z"/>
    <path d="M136.36,353.84c4.56-1.57,13.64-7.53,17.62-12.63a1.61,1.61,0,1,1,2.42,2.13,53.81,53.81,0,0,1-20.15,13.92A11.93,11.93,0,0,0,136.36,353.84Z"/>
  </g>
  <g class="lipFemaleMedium">
    <path d="M71.38,78.74c-1.68,2.1-2.58,3.81-4.55,5.38C63.63,80.25,68.23,78.56,71.38,78.74Z"/>
    <path d="M66.41,77.38c-1.83,0-4.1-.63-3.77-2.35,2.58.22,4.6,1.9,8.14,2.39C69.58,77.34,67.61,77.39,66.41,77.38Z"/>
  </g>
  <path class="cheekLine" d="M66.08,64.61c.19,7.8,2.67,7.28,6.24,16.15"/>
  <path class="noseLine" d="M61.66,69.75c1.16-.13,3.2,1.2,5.19.16"/>
  <g class="eyeLidLine">
    <path d="M64.78,49.9c-1.59-.82-1.54-1.28-1.35-2.71"/>
    <path d="M65.54,54.65c-.81.29-.84,1.27,0,2.31"/>
  </g>
  <path class="eyeCornerLine" d="M71.36,52.26a4.29,4.29,0,0,0,1.92.18"/>
  <path class="eyeCreaseLine" d="M69.27,50.08c-1.33-.68-4.44-1.49-6-2"/>
  <path class="eyebrowBlack" d="M61.34,42.83c2.06,3.74,7.46-.7,12.64,2.74C69,40.27,65,43.47,61.34,42.83Z"/>
  <path class="hairBlack" d="M62.48,25.07c-1.69,9.65-10.34,5.56-7.78,0,0,3,3,3,3.39-.67C62.24,5.72,80.38-.42,105.94.31c14.19.4,31.11,13.88,33.83,30.76,1.36,8.38,2.75,16.39,8.32,13.76-.92,3.67-3.42,6.65-8.23,8.59-1.1,4.29-3.5,7.12-7.84,7.78.1,6.83-13.49,4.47-6.56,8.67-6.75,2.08-11.91-.08-16.26-4.36-5.49,2.26-9.89-.84-11.58-4.83-2.31,6.19-11.22,3.69-9.33-1.63,3.43,4.65,8-3.1.1-10.88-9.27-3.24-14.56-6.43-13.65-14.74-3.28,2.7-6.82,1.35-7.85-1.82,3.07,1.52,4-1.68,2.61-3C67.4,26.57,64.53,29.3,62.48,25.07Z"/>
</svg>
