<svg viewBox="0 0 154.76 478.2">
  <path class="heel" d="M85.65,437.8c-.68,6.29,0,15.08-.16,23.09,.4,.77,4.01,1.2,4.01,0l-3.85-23.09Z"/>
  <g class="shoe">
    <path d="M38.63,419.95c-8.59-.54-12.99,6.03-12.22,15.85,.82,10.48-6.5,28.15-1.34,36.12,4.84,7.49,16.88,7.14,22.71,.13,5.81-6.97,.72-19.25,2.16-34.51,1.18-12.56-3.27-17.09-11.32-17.59Z"/>
    <path d="M113.93,459.45c2.32,7.5,1.12,15.96-4.03,17.46-13.66,3.97-20.6-3.67-21.59-18.44-.78-11.67-6.79-23.35,2.35-34.94l23.28,35.92Z"/>
  </g>
  <g class="eye">
    <circle class="sclera" cx="34.66" cy="66.09" r="16.74"/>
    <g class="irisDarkBrown">
      <ellipse cx="40.28" cy="65.29" rx="2.93" ry="3.4" transform="translate(-11.17 8.38) rotate(-10.44)"/>
      <ellipse cx="20.05" cy="68.48" rx="2.38" ry="3.4" transform="translate(-12.08 4.77) rotate(-10.44)"/>
    </g>
    <g class="pupil">
      <ellipse cx="39.93" cy="65.51" rx="1.14" ry="1.32" transform="translate(-11.21 8.32) rotate(-10.44)"/>
      <ellipse cx="19.47" cy="68.74" rx=".93" ry="1.32" transform="translate(-12.13 4.67) rotate(-10.44)"/>
    </g>
  </g>
  <path class="skinEastAsianBlood" d="M90.86,421.49c-.24-5.67,1.29-4.68,.74-9.27-2.45-20.41-6.4-23.26-5.95-55,.16-11.67-10.68-43.98-16.62-95.55-5.94,51.57-17.54,78.9-16.64,90.54,2.36,30.51-5.82,43.49-5.93,63.89-.01,2.38,1.09,4.96,.61,6.93-1.3,6.9-17.14,3.93-15.85-2.97,1.31-4.64-11.78-35.42-4.5-78.23,3.15-18.52-11.75-72.25,1.1-117.87-4.09-.96,2.07-27.25,6.16-26.29,1.01-13.3-3.52-33.71-6.73-46.13-1.17,3.33-2.46,6.09-3.91,8.13,2.71,10.45-1.32,22.1,1.81,35.53,1.81,6.05-10.58,9.76-12.39,3.71-4.25-13.94-14.14-29.48-10.54-43.46,1.42-5.5,5.41-12.35,8.22-18.82,3.21-7.4,5.62-17.49,10.45-22.44,8.4-8.61,21.92-7.28,27.4-14.65l27.7-4.12c6.35,5.71,17.63,4.7,24.39,6.62,9.39,1.38,17,13.4,28.1,21.56,9.6,7.06,25.86,20.58,26,25.82,.57,20.5-14.26,31.78-27,53.29-2.26,4.27-13.77-1.83-11.51-6.1,8.14-10.31,8.5-31.74,15.63-42.58-9.33-4.72-17.67-15.26-26.04-21.03,1.19,19.03,.5,37.79-2.08,56.29-.48,3.36-.17,5.99,.37,9.13,5.06-1.15,10.53,22.88,5.47,24.03,14.52,63.31,.57,105.1,2.76,124.38,4.52,39.79-1.84,42.12-4.05,68.87-.17,2.1,.84,4.3-.58,8.74-1.25,7.01-17.84,4.05-16.6-2.95Z"/>
  <g class="skinEastAsian">
    <path d="M90.86,421.49c.34,8.13-6.68,8.57-.49,40.1,3.57-4.4,20.46-4.47,23.56-2.14-2.27-12.64-7.39-32.16-6.47-35.01,.81-4.57-15.78-7.53-16.6-2.95Z"/>
    <path d="M31.23,420.07c-.83,2.96-1.48,5.83-1.38,8.85,.19,5.54-3.51,18.18-4.45,29.1,4.1-2.36,19.68-2.22,23.81,.83-.51-7.76-1.12-14.64-.73-21.06,.03-6.87-2-12.33-1.41-14.76,.8-4.27-15.05-7.24-15.85-2.97Z"/>
    <path d="M127.49,202.73c-2.06,2.63-4.28,13.97-7.85,17.59-1.77,1.49-5.34,1.43-10.32,2.14-1.32-11.27-4.38-16.66-5.47-24.03,4.35-1.38,11.31-.31,12.13-1.8,2.67-5.04,14.18,1.05,11.51,6.1Z"/>
    <path d="M25.16,195.2c.9,2.12,5.1,.87,8.84,2.47-.78,8.98-4.11,14.18-6.16,26.29-3.62-1.42-6.69-2.28-8.15-3.04-4.92-2.56-4.71-13.66-6.93-22.01-1.64-5.49,10.75-9.2,12.39-3.71Z"/>
    <path d="M44.07,102.05l32.24-37.27c-6.09,13.16-2.76,28.03-.3,30.65,1.76,15.27-26.66,23.19-31.94,6.62Z"/>
  </g>
  <g class="skinEastAsianBlood__noStroke">
    <path d="M107.46,424.45c-4.78,8.44-3.93-6.44-8.97,.49-2.72,3.75-4.44-7.82-7.63-3.45,.44-7.94,18.05-5.13,16.6,2.95Z"/>
    <path d="M47.08,423.04c-5.1,4.91-5.05-6.23-9.23,.49-2.19,3.52-3.67-7.01-6.61-3.46,1.24-6.59,15.92-5.12,15.85,2.97Z"/>
    <path d="M115.98,196.63c6.49-3.65,0,6.13,7.28,2.39,7.3-3.75-.33,6.77,4.23,3.7,4.05-7.64-7.46-13.74-11.51-6.1Z"/>
    <path d="M12.77,198.92c1.64-3.37,4.14,2.3,5.19-1.32,3.2-11,4.11,1,7.2-2.39-2.89-9.66-15.29-5.95-12.39,3.71Z"/>
    <path d="M76,95.43c-2.04,11.54-4.6,2.64-10.19,10.18-4.35,5.87-8.9-4.36-13.5-.17-4.52,4.13-5.78,.38-8.25-3.39,3.69,19.14,38.3,6.96,31.94-6.62Z"/>
  </g>
  <path class="skinEastAsian" d="M67.64,83.5c-3.06,8.19-9.74,11.58-16.14,16.25-7.14,5.16-13.01,2.72-17.62-1.73-3.67-3.11-18.12-8.74-18.55-27.69-.15-6.66-4.98-12.74-4.74-20.98-5.8-31.49,84.48-20.7,70.72,12.36-2.68,5.69-3.04,12.39-9.13,9.49m-35.23-5.6c4.52,2.35,8.25-1.1,10.8-3.22-1.96-.5-4.4-1.77-7.11-1.33-2.11,.34-3.85,1.38-4.54,3.87-.24,.87,.5,.5,.85,.68Zm-11.96,1.31c-1.69-1.16-3.25-2.55-5.77-1.99-.9,.2-1.66,.54-2.21,1.05-.1,.67,.25,2.58,.76,3.18,3.98,1.44,5.75-1.63,6.9-1.39,.37,.08,.73-.58,.32-.86Z"/>
  <g class="skinDisplayLine">
    <path d="M66.22,202.97c-1.9,6.46,3.32,6.99,1.76,.49"/>
  </g>
  <g class="skinOverlapLine">
    <path d="M25.41,134.96c1,4.16,1.37,6.4,1.56,11.93"/>
    <path d="M105.57,133.02c-4.6-3.52-9.07-8.31-6.23-.51"/>
    <path d="M64.33,148.14c-1.37,4.8-.89,11.25,2.05,14.74"/>
  </g>
  <g class="skinFoldLine">
    <path d="M131.61,154.05c2.13-1.9,4.92-2.58,8.1-2.53"/>
    <path d="M9.71,157.94c3.21,2.8,10.35,4.04,13.8,1.73"/>
    <path d="M58.38,163.88c1.24-1.07,2.07-2.31,2.4-4.47"/>
    <path d="M72.53,56.9c.15-11.98,12.77-4.24,6.32,6.11"/>
    <path d="M74.32,59.17c2.09,1.6-1.35,5.11,.52,5.67,1.5,.44,.83-2.38,2.54-4.15,3.33-3.45-1.09-6.55-2.37-4.66"/>
  </g>
  <g class="skinCreaseLine">
    <path d="M35.68,344.88c2.98,1.19,6.21,1.43,9.67,.81"/>
    <path d="M93.56,345.29c3.42,.95,6.87,.89,10.34-.13"/>
  </g>
  <g class="skinEdgeLine">
    <path d="M20.52,218.61c2.01,.55,2.93,.73,4.39-1.19,1.12-1.47,3.38,.09,4.75-1.83"/>
    <path d="M116.08,219.31c-.83-1.2-2.77,.37-4.15-1.94-.95-1.59-2.39,.23-3.75-1.69"/>
  </g>
  <g class="shoeStrap">
    <path d="M88.31,433.01c2.38,4.12,18.88,2.67,20.57,2.27,.77-.16,1.53,3.47,.75,3.63-1.87-.7-19.44-2.43-21.63,6.14-.36-4.64-.21-8.66,.3-12.05Z"/>
    <path d="M48.49,437.8c-3.23-.83-16.94-.65-19.7-.15-.67-.11,.03-4.27,.71-4.16,1.53,1.72,16.2,1.91,18.77,0,.65-.03,.88,4.28,.23,4.31Z"/>
  </g>
  <g class="bikini">
    <path d="M26.82,228.16c-1.64,1.71-.52,4.19-1.84,7.39,14.98,4.73,29.89,18.73,38.67,29.1,3.1,3.66,7.83,4.25,11.15,.14,12.28-15.17,21.81-24.13,36.63-33.03-.87-3.15,.04-4.35-1.75-7.8-21.59,15.38-57.22,16.54-82.86,4.2Z"/>
    <path d="M96.1,164.47c3.28,.48,7.5,.68,9.69,.48,.84,.04,.94-2.04,.1-2.07-2.15-.07-5.56-.33-7.79-.97l-2,2.57Z"/>
    <path d="M86.11,134.75c-1.65-1.54-3.75-24.12-6.78-37.09-.34-1.44-1.93-2.02-2.31-1.41,3.46,15.48,5.95,36.91,5.11,38.15-3.83,14.9-13.06,30.52-20.67,30.21-8.18-.34-19.15-15.43-23.28-26.57-1.27-3.43,3.71-27.87,7.01-35.51-.62,.11-1.21,.12-1.79,.12-4.84,12.24-7.38,30.48-8.63,32.29-4.43,6.46-12.93,13.83-6.81,26.27,3.41,6.93,18.28,7.38,25.89,5.56,2.72-.49,4.69-.07,7.49-.11,2.83-.04,6.53-.37,9.43,.19,8.18,1.59,16.18,1.43,25.32-2.39,6.52-4.82,.61-21.06-9.99-29.71Z"/>
  </g>
  <path class="lipFemaleMedium__noStroke" d="M30.71,86.75c2.55,11.63,15.89,8.86,15.72-2.53-5.78,4.27-9.61,5.83-15.72,2.53Z"/>
  <path class="lipFemaleMedium" d="M47.29,83.51c-3.55,1.38-6.26,1.37-11.28,2.67-1.92,.5-5.06,.08-6.99,.15,.53,.11,1.09,.26,1.7,.42,5.81,3.16,9.8,1.97,15.72-2.53,.41-.21,.57-.42,.85-.71Z"/>
  <path class="lipEdgeLine" d="M32.68,91.08c3.13,4.92,10.03,3.99,12.93-1.97"/>
  <path class="teeth" d="M30.71,86.75c3.44,7.73,13.56,2.87,15.72-2.53-3.75,.78-7.32,3.08-10.16,3.39-2.68,.29-4.15-.57-5.57-.86Z"/>
  <path class="gum" d="M30.71,86.75c1.41,.29,2.89,1.14,5.57,.86,2.83-.3,6.41-2.61,10.16-3.39-4.85,3.16-12.01,6.38-15.72,2.53Z"/>
  <g class="cheekLine">
    <path d="M27.78,78.74c-1.15,.88-.99,2.56-1.53,3.91s.14,2.53,.74,3.49"/>
    <path d="M39.65,77.03c3.55,1.53,3.91,2.01,6.07,3.24s3.29,2.41,3.62,3.69"/>
  </g>
  <path class="noseLine" d="M27.78,78.74c-1.54,1.48-.53,4.01,1.11,4.25,1.8,.26,1.24,1.21,3.91,1.15,2.9-.06,3.64-2.23,5.33-2.53,2.82-.5,3.19-2.95,1.53-4.59"/>
  <g class="eyeFoldLine">
    <path d="M18.25,70.86c2.29,1.36,4.95,.33,6.13-.5"/>
    <path d="M38.25,68.13c2.34,1.12,6.36,.47,8.11-1.38"/>
  </g>
  <g class="eyeCornerLine">
    <path d="M49.9,62.45c-.7,.19-1.28,.14-2.14-.07"/>
    <path d="M17.02,65.98c-.37,.29-.71,.73-.91,1.34"/>
    <path d="M17.78,69.17c-.29-.15-.56-.26-.8-.3"/>
  </g>
  <g class="eyeCreaseLine">
    <path d="M24.99,66.92c-4.99-4.47-8.44-2.45-8.76-1.14"/>
    <path d="M47.69,60.99c-2.59-2.59-10.66-1.19-11.59,3.93"/>
  </g>
  <g class="eyebrowBlack">
    <path d="M31.87,56.27c3.08,3.97,9.11-4.11,18.1-.2-8.57-5.66-13.22-.11-18.1,.2Z"/>
    <path d="M22.97,57.86c-2.09,4-5.16,.24-9.78,3.59-.15-.41-.3-.82-.45-1.24,3.13-3.1,7.33-1.17,10.23-2.35Z"/>
  </g>
  <path class="hairBlack" d="M83.37,49.09c.4,4.85,.34,7.93-2.05,12.63,4.55-12.01-7.42-18.66-10.57-9.03-3.61,.41,2.56,9.34-3.25,17.78-1-27.31-13.15-13.65-18.2-35.85-5.07-2.02-20.17-.16-24,4.31-5.3-1.79-11.21-.45-13.91,3.52-.89,1.89-1.18,4.67-.8,6.91-4.3-5.96-2.54-13.82,1.19-18.52C18.62,10.41,45,3.04,64.56,10.49c15.81,6.71,15.13,16.6,23.62,25.15-1.52-.08-3.26-.8-5.17-2.07,7.24,8.54,1.06,14.59,5.29,25.88-2.47-2.04-3.96-4.37-4.94-10.36Z"/>
  <path class="hairband" d="M76.82,48.18C72.88,6.22,24.69,7.17,11.78,30.84c12.17-17.12,55.31-24.36,61.98,17.78,.98-.5,1.99-.67,3.06-.45Z"/>
  <g class="hairbandEarOuter">
    <path d="M22.96,21.66c-.73-3.94-25.81-15.65-22.39-5.17,5.21,6.14,10.62,9.77,16.34,9.02,1.81-1.45,3.84-2.72,6.04-3.85Z"/>
    <path d="M44.24,17.49c-.87-3.16,7.44-17.86,13.84-17.22,9.03,.9,7.78,17.4,3.17,24.38-4.82-4.23-10.75-6.59-17-7.16Z"/>
  </g>
  <g class="hairbandEarInner">
    <path d="M48.33,18.14c4.21-3.84,5.49-21.48,12.91-15.59,4.3,3.41,4.22,17.84,0,22.1-3.82-3.34-8.3-5.49-12.9-6.51Z"/>
    <path d="M16.92,25.51C7.84,22.85,3.45,10.48,.69,15.02c-1.05,1.72,2.98,12.61,11.1,15.82,1.29-1.87,3.06-3.63,5.13-5.32Z"/>
  </g>
</svg>