<svg id="presence" xmlns="http://www.w3.org/2000/svg" viewBox="0 0 1017.79 1758.7">
  <defs>
    <style>
      .cls-1 {
        fill: none;
        stroke: #000;
        stroke-miterlimit: 10;
        stroke-width: 2px;
      }
    </style>
  </defs>
  <title>popularGirl</title>
  <path id="soleBottom" class="cls-1" d="M514,1736.44c-14.64,8.73-106.89,6.43-116.79,0C427.4,1565.28,573,1461,559.2,1603.32c-.7,9.33-15.05,28.36-20.38,41.13C522.07,1684.57,542.38,1719.48,514,1736.44Z"/>
  <g id="soleSide">
    <path class="cls-1" d="M745,1712.48c1.31,9.78-3,24.87-8.43,31.37-14.77,17.72-84.46,16.29-104.28,7.63-29.34-12.84-65.71-12-76.21-28.8-8.64-13.84-8.05-26.51-3.82-38.11Z"/>
    <path class="cls-1" d="M397.16,1736.44c-3.15-10.06-3.44-23.63-1.05-30.44C423.8,1535.5,523.06,1476.59,560,1562.56c4.8,9.59,2,28.82-.82,40.76,8.25-37.27-61.73-47.5-87.81-23.75C429.14,1618.06,439.4,1684.57,397.16,1736.44Z"/>
  </g>
  <g id="shoe">
    <path class="cls-1" d="M734.93,1624.11c7.05,14.28,16.61,68.65,10.09,88.37-3.77,11.44-67.93,32.31-113.1,16.06-33.48-12.06-74.55-8-79.64-44,6.78-37.26,50.46-26.67,64.83-64.62,4-10.61,5.34-19.85,17.54-23.72C669,1585.32,719.11,1592.06,734.93,1624.11Z"/>
    <path class="cls-1" d="M560,1562.56c-.84-23.29-25.77-60.59-36.43-65.83-12.53-27-90.88-27.55-98.62,2.64-5.09,19.88-19.83,57.48-18.17,89.32,4.11,78.73-12.28,65-10.69,117.31,20.07-18.81,31.2-116.69,61.42-144.58C483.22,1537.7,545.92,1536.35,560,1562.56Z"/>
  </g>
  <g id="skinWhite">
    <path class="cls-1" d="M763.73,1119.18c-.71,41.46-4.65,81.7.57,112,12.82,74.23-24.26,195.79-35.74,329-.52,11.73-93.81,7.71-93.29-4,4.59-91.87-36.32-214.74-27.43-325,2.31-28.68-11.77-74.07-11.77-112.53Z"/>
    <path class="cls-1" d="M496,1097.83c-10.07,19.16-18.19,38.19-22.85,57,48,75.74,5.56,167.46,39.13,288.37l-92.16,16c-22-62.54-92.57-182.89-100.53-237.64-6.86-47.11-4.4-103.2.69-161.9Z"/>
  </g>
  <g id="skinOverlapLine">
    <path class="cls-1" d="M473.14,1154.8c-24-34.19-81.22-34.19-114.71-4.51"/>
  </g>
  <path id="skinCreaseLine" class="cls-1" d="M729.61,1176.47c-23.3-4-46.78-3.58-70.45,0"/>
  <g id="sock">
    <path class="cls-1" d="M731.35,1554.62c-2.18,27-6.4,54.42-5.59,75.41-4,19.24-84.9,14.6-97.78-1.63,3.27-17.61,3.91-50.2,4.91-78.31C652.7,1560.48,716,1563.53,731.35,1554.62Z"/>
    <path class="cls-1" d="M433.31,1513.84c22.46-30.14,78.66-23.06,95.72-12.93-9.06-27.24-12-57.39-15.33-62-13.66-22.63-89.79-11.44-96.62,20C422.78,1476.26,429.27,1492.76,433.31,1513.84Z"/>
  </g>
  <g id="shoeStripe">
    <path class="cls-1" d="M426.54,1625.54c8.25-26.44,17.8-52,31-64.12,25.69-23.72,88.39-25.07,102.49,1.14-.38-10.45-5.6-23.71-12.21-35.63C496.44,1487.91,418.07,1528.12,426.54,1625.54Z"/>
    <path class="cls-1" d="M630.45,1728l1.47.52c45.17,16.25,109.33-4.62,113.1-16.06,3.06-9.24,2.58-26.11.48-42.88C701.84,1662.34,653.13,1684,630.45,1728Z"/>
  </g>
  <path id="shorts" class="cls-1" d="M811.09,665.39c13,59,12.1,123.32-3.76,182.53,7,7.93,2.53,20.82-7.05,28.88-5.68,63.05-14.65,126.8-26.42,191.14-12.33,13.22-165.84,15-187-5.28-5.74-58.55-7.9-114.76-5.93-168.25-15.49,29.22-37.88,96-62.54,154.16-22.9,12.33-164.72-4.41-192-43.17C331.83,926.75,341,851.1,354.57,779c-7.9-14.89-4.5-24.13,6.16-26.42,1.06-22.7,17.62-59,25.31-96.9Z"/>
  <g id="shortsInner">
    <path class="cls-1" d="M773.86,1067.94c6.56.65-.47,55.2-5.93,58.91C743,1143.78,617,1140,587.35,1124c-4.16-2.25-5.2-61.28-.47-61.31Z"/>
    <path class="cls-1" d="M518.41,1048.57l-192-43.17c-6.4-1.5-12.66,51.76-10.66,58,9.43,29.49,163.15,59.81,184.17,39.33C502.8,1099.9,522.29,1049.82,518.41,1048.57Z"/>
  </g>
  <g id="clothesDisplayLine">
    <path class="cls-1" d="M626.31,703A415.27,415.27,0,0,1,604,828.66"/>
    <path class="cls-1" d="M610.46,1071.7c-5.18,5.24-5.87,54.47,0,59.45"/>
    <path class="cls-1" d="M339.91,1017.84c-10,2-17.26,52.56-10.67,59"/>
  </g>
  <g id="clothesOverlapLine">
    <path class="cls-1" d="M581,894.41c1.28-6.48,9.17-14.37,17.83-20.1"/>
    <path class="cls-1" d="M466.11,864.49c66.5,28.78,122.09,5.62,132.67,9.82,34.72,13.78,68.56,14.38,101.61,1.31"/>
  </g>
  <g id="clothesFoldLine">
    <path class="cls-1" d="M700.39,875.62c25.11-12.12,19.15,14-40.07,19.64"/>
    <path class="cls-1" d="M428.39,869.45c31.88,14.26,64.07,21.91,96.61,22.17"/>
    <path class="cls-1" d="M593.49,900.55c6,22.21,16.49,44.74,30.11,67.5"/>
    <path class="cls-1" d="M559.41,901.88c-20.11,18.92-36.82,40-49.63,63.52"/>
    <path class="cls-1" d="M718.55,910.15c-37.34,5.91-72.74,3.78-104.55-13.24"/>
    <path class="cls-1" d="M360.73,752.6q5.44,31,32.16,48.51"/>
    <path class="cls-1" d="M354.57,779a63,63,0,0,0,12,20.14"/>
    <path class="cls-1" d="M807.33,847.92c-8.57,13.3-22.74,22.18-43.69,25.69"/>
    <path class="cls-1" d="M800.28,876.8c-5,5-11.86,8.91-21.56,10.92"/>
  </g>
  <path id="sweater" class="cls-1" d="M494.29,1C387.85,19,355.55,102.2,315.61,158.17,293.4,189.3,248.75,207,260.42,233.94c-19-3-35.93.16-46.77,21.52-19.55,6.85-45.51-1.32-53.33,38.35-11.73,12.89-33.38,14.87-37.26,24.14-12.14,29,10,101.58,53.56,100,8-.29,24.69-13.3,43.25-20.63,22.26.51,31.62-8.07,36.49-19.83,32.13-.6,31.12-9.14,42.85-20.24,9-8.51,18.18-11.21,25-25,30.65-2.87,44.42-32.9,78-58.91C403.24,362.8,385.93,446,387.28,518.5c-6.64,29.88-20.32,62.23.6,94-1.47,20-12.53,42.59-7.74,50,23.1,48.85,389,53.66,436.8,13.69,1.2-7.63-4.82-30.49-1.19-52.37,5.67-23.59,3.78-44-2.38-62.49,26.92-36.65,2.85-52.39,3.33-130.27.21-33.07,8.17-67.79,9.76-137.52,25.82,27.42,27.26,67.8,50.58,82.72-7.92,11.3-11,23.06-4.76,35.7-.29,22.46-7.75,36.11-5.95,44.64,6.71,31.65,81.21,50.82,102.95,33.92,9.06-7,11.85-27.73,24.4-47C1019.12,425.19,1019.62,405,1008,384c24.8-27.63-10.27-52.84-12.49-64.86,14-32.24-14.75-35.92-20.24-50,5.49-34.61-24.75-35.35-33.32-53C893,157.83,866.84,53.64,787.19,30Z"/>
  <g id="skinWhite-2" data-name="skinWhite">
    <path class="cls-1" d="M.21,440.43c53-11.22,125.53-7.31,161.06-25.17-30.4-12.11-46-62.27-40.36-90.14-36.06,16.05-77.42,44.23-101,38.1"/>
    <path class="cls-1" d="M892.69,592.73c15.64-40.1,49.29-66.33,66.18-97.51-26.83,6.69-78.45-8.43-90.47-32.75-6.77,28-8.4,56.92-24.7,82.33"/>
  </g>
  <g id="clothesOverlapLine-2" data-name="clothesOverlapLine">
    <path class="cls-1" d="M469.87,181c-28.21,29.92-44.17,69.58-67.71,92.32"/>
    <path class="cls-1" d="M826.46,293.55c1.87-9.45,2.2-23.94.77-44.16"/>
    <path class="cls-1" d="M872.28,412c17.91,33.46,93.51,48.76,121.4,31.54"/>
    <path class="cls-1" d="M815.75,623.83c-36.26,34.9-386.37,43-427.87-11.31"/>
    <path class="cls-1" d="M160.32,293.81c-9,34.62,25.16,94.92,59.55,103.48"/>
  </g>
  <g id="clothesFoldLine-2" data-name="clothesFoldLine">
    <path class="cls-1" d="M926.66,226.21c1.34,23.23-.08,45.61-9.27,65.62"/>
    <path class="cls-1" d="M841.07,314.27c15.29,17.62,34.17,21.23,54.2,20.35"/>
    <path class="cls-1" d="M975.23,269.15c-9.34,34.09-52.14,51.21-25,50.5"/>
    <path class="cls-1" d="M995.47,319.14c-28.16,44.73-97.5,42.43-63.82,54.71"/>
    <path class="cls-1" d="M877,376.27c23.94,16.84,57.38,11.91,45.34,29-6.56,9.29-20.69-8.56-33.52-14.27"/>
    <path class="cls-1" d="M1008,384c-7.57,4.82-12.13,11.07-10,20.52"/>
    <path class="cls-1" d="M740.5,343.9c2.92,36.63,14.26,76.31,20.68,101.28"/>
    <path class="cls-1" d="M712.68,406c8.31,44.32,12.4,83.42,8.56,112.69"/>
    <path class="cls-1" d="M784.72,537.9C755.3,570.77,718.61,593.4,672,602.09"/>
    <path class="cls-1" d="M813.37,561.34c-6.54,7.94-14.94,11-15.81,14.36"/>
    <path class="cls-1" d="M387.28,518.5c6.05,33.57,21.81,53.78,45.09,63.62"/>
    <path class="cls-1" d="M548.63,317.51c-7.88,70.55-17.56,127.84-30.67,159.77"/>
    <path class="cls-1" d="M565,423.78c-4.8,31.2-5,62.13.71,92.72"/>
    <path class="cls-1" d="M183.45,300.39c10.75,38.86,44.22,73.46,72.91,77.07"/>
    <path class="cls-1" d="M213.65,255.46c4,60.62,46,76.91,41.12,86.3-2.51,4.8-19.25,2.14-42.08-27.82"/>
    <path class="cls-1" d="M260.42,233.94c-1.37,32.21,42.51,59.18-10.64,40.06"/>
    <path class="cls-1" d="M283.3,247.61c7.14,17.12,49.22,37.8,72,37.09"/>
    <path class="cls-1" d="M324.2,332.23c-21.86-1.45-40.45-7.36-55.88-17.58"/>
  </g>
</svg>
