<svg viewBox="0 0 1213.27 2535.71">
    <path class="soleWhiteDark" d="M671.71,2511.86c-15.74,9.38-114.91,6.91-125.55,0,32.51-184,189.07-296.11,174.19-143.11-.75,10-16.18,30.49-21.91,44.22C680.44,2456.1,702.28,2493.63,671.71,2511.86Z"/>
    <g class="soleWhite">
        <path d="M920.11,2486.1c1.41,10.51-3.23,26.73-9.06,33.72-15.88,19-90.8,17.51-112.1,8.2-31.55-13.8-70.64-12.85-81.93-30.95-9.29-14.88-8.65-28.5-4.1-41Z"/>
        <path d="M546.16,2511.86c-3.39-10.83-3.7-25.4-1.13-32.73,29.76-183.29,136.47-246.61,176.2-154.2,5.16,10.32,2.14,31-.88,43.82,8.87-40.07-66.36-51.06-94.39-25.53C580.53,2384.6,591.57,2456.1,546.16,2511.86Z"/>
    </g>
    <g class="shoe">
        <path d="M909.27,2391.1c7.57,15.35,17.85,73.79,10.84,95-4.05,12.29-73,34.74-121.59,17.26-36-13-80.14-8.57-85.6-47.26,7.28-40.06,54.24-28.68,69.69-69.47,4.32-11.4,5.74-21.34,18.86-25.5C838.43,2349.4,892.26,2356.64,909.27,2391.1Z"/>
        <path d="M721.23,2324.93c-.9-25-27.7-65.13-39.16-70.76-13.46-29.05-97.69-29.62-106,2.84-5.48,21.37-21.32,61.79-19.54,96,4.42,84.63-13.19,69.86-11.49,126.1,21.57-20.21,33.54-125.44,66-155.43C638.68,2298.21,706.08,2296.75,721.23,2324.93Z"/>
    </g>
    <g class="sockWhite">
        <path d="M905.41,2316.4c-2.34,29-6.88,58.5-6,81.07-4.28,20.68-91.26,15.68-105.11-1.76,3.51-18.92,4.21-54,5.28-84.19C820.86,2322.7,888.92,2326,905.41,2316.4Z"/>
        <path d="M585,2272.56c24.15-32.4,84.56-24.79,102.9-13.9-9.74-29.28-12.89-61.7-16.48-66.61-14.68-24.33-96.53-12.3-103.87,21.47C573.7,2232.16,580.68,2249.9,585,2272.56Z"/>
    </g>
    <g class="shoeStripe">
        <path d="M577.74,2392.64c8.87-28.43,19.14-55.85,33.32-68.94,27.62-25.49,95-26.95,110.17,1.23-.4-11.23-6-25.48-13.12-38.3C652.89,2244.68,568.64,2287.91,577.74,2392.64Z"/>
        <path d="M797,2502.8l1.57.56c48.56,17.48,117.54-5,121.59-17.26,3.29-9.94,2.77-28.07.52-46.1C873.69,2432.2,821.32,2455.43,797,2502.8Z"/>
    </g>
    <g class="shortsInner">
        <path d="M951.11,1793.22c7.06.7-.5,59.34-6.37,63.32-26.79,18.2-162.27,14.1-194.12-3.09-4.47-2.42-5.6-65.87-.51-65.91Z"/>
        <path d="M676.5,1772.39,470.07,1726c-6.88-1.62-13.61,55.64-11.46,62.37,10.14,31.7,175.39,64.29,198,42.27C659.73,1827.58,680.67,1773.74,676.5,1772.39Z"/>
    </g>
    <path class="shorts" d="M991.14,1360.48c14,63.44,13,132.57-4,196.22,7.58,8.52,2.72,22.38-7.57,31-6.11,67.78-15.76,136.31-28.41,205.48-13.26,14.21-178.28,16.1-201-5.68-6.17-63-8.5-123.37-6.38-180.86-16.64,31.4-40.71,103.21-67.23,165.71-24.62,13.26-177.07-4.74-206.43-46.4,5.86-84.56,15.71-165.88,30.3-243.36-8.49-16-4.83-25.94,6.63-28.41,1.13-24.4,18.94-63.44,27.21-104.16Z"/>
    <g class="skinAshkenazi">
        <path d="M118.53,1116.38c52.75-7.8,135.85-5.59,174-24.79-32.68-13-49.49-66.94-43.39-96.91-31,13.79-65.56,35.89-91.15,40.86.4-39.32-17-43.91-29.42-75.1-6.87-20.18-34.39,4.13-21.55,30.73-12.37-21.55-47-35.81-70.25-74.35-11.37-14.82-27.67,0-24.22,9.88,4.45,12.35,5.44,24.71,18.34,42-14,3.45-32,21.33-16.06,39-10.59,6.72-21,24.13-7.33,35.78C2.37,1045.91-4,1062,13.47,1075.78,41.69,1098,41.49,1122.31,118.53,1116.38Z"/>
        <path d="M981.34,1245.08c16.54-6.77,33.34-6.45,45.86-18.8,17.53-27.32,18.26-53.79,25.54-83.94,12.93,26.14,68.42,42.39,97.26,35.21-18.16,33.51-62.65,76.17-74.68,104-6.39,23.68-29.32,62-100,83C898.26,1383,905.78,1274.4,981.34,1245.08Z"/>
        <path d="M940,1859.09c-32.21,13.92-138.66,11.32-179.71-1.74,2,39.09,14.67,82.84,12.38,111.31-9.39,116.44,32.9,246,29.69,344.16,22.73,9.63,81.29,12.5,100.5,4.81,12.8-141.35,51.63-270.05,38-349C935.68,1938.76,938.83,1899.8,940,1859.09Z"/>
        <path d="M627.84,1886.6c4.21-17,11-34.1,19.53-51.36-38.52,10.76-159.85-13.89-184.74-40.55-4.85,59.3-6.83,115.77.13,163.61,8.36,57.48,80.88,182.2,106.32,250.63,12.39-28.06,77.93-38.55,98.45-21.35C635.9,2062,678.18,1966.12,627.84,1886.6Z"/>
        <path d="M612.34,432c-3,35-2.32,66.79,12.56,86.55C625,489.1,618.74,464.57,612.34,432Z"/>
    </g>
    <path class="sweater" d="M998.48,1303.75c-.58,3.93-1.35,7.94-2.34,12-3.9,23.52,2.58,48.09,1.28,56.29-51.42,43-444.73,37.8-469.56-14.71-5.15-8,6.74-32.25,8.32-53.74-22.48-34.18-7.78-69-.64-101.08-1.46-78,17.15-167.37,16-263.56-36,28-50.86,60.25-83.8,63.33-7.32,14.81-17.19,17.71-26.87,26.87-12.61,11.92-11.52,21.11-46.06,21.75-5.23,12.64-15.3,21.87-39.23,21.31-19.95,7.89-37.91,21.87-46.49,22.19-46.85,1.72-70.62-76.32-57.58-107.47,4.17-10,27.45-12.09,40.06-26,8.4-42.65,36.31-33.86,57.32-41.23,11.66-23,29.85-26.39,50.28-23.13-12.54-29,35.46-48,59.34-81.46C501.43,755,536.15,665.65,650.57,646.27l314.88,31.19c85.62,25.38,113.68,137.39,166.32,200.12,9.21,18.94,41.72,19.73,35.82,56.94,5.9,15.12,36.82,19.08,21.75,53.74,2.38,12.92,40.09,40,13.44,69.73,12.53,22.61,12,44.27-15.36,64-13.5,20.73-16.5,43-26.23,50.54-23.37,18.17-103.46-2.44-110.67-36.47-1.94-9.16,6.08-23.83,6.4-48-6.7-13.59-3.4-26.23,5.11-38.38-25.07-16-26.62-59.45-54.37-88.92-1.71,75-10.27,112.28-10.49,147.83-.52,83.72,25.36,100.64-3.59,140q1.75,5.25,3,10.68c-57,19.23-39.73,29.38-60.4,48.93-6,21.43,28.94,19.17,45.49-8.65A28.78,28.78,0,0,0,998.48,1303.75Z"/>
    <g class="clothesDisplayLine">
        <path d="M792.5,1400.93a446.45,446.45,0,0,1-24,135.06"/>
        <path d="M775.45,1797.26c-5.56,5.63-6.3,58.55,0,63.91"/>
        <path d="M484.62,1739.36c-10.78,2.1-18.55,56.5-11.47,63.45"/>
    </g>
    <g class="clothesOverlapLine">
        <path d="M624.32,839.76C594,871.92,576.84,914.55,551.53,939"/>
        <path d="M1007.66,960.75c.42-10.28,1.33-26.23,0-44.92"/>
        <path d="M1056.92,1088.05c19.24,36,100.51,52.42,130.5,33.91"/>
        <path d="M996.14,1315.8c-39,37.52-415.34,46.22-460-12.16"/>
        <path d="M291.56,961c-9.72,37.21,27.05,102,64,111.23"/>
        <path d="M743.73,1606.68c1.38-7,9.86-15.46,19.17-21.61"/>
        <path d="M620.28,1574.51c71.49,30.94,131.24,6,142.62,10.56,37.33,14.81,73.71,15.45,109.23,1.4"/>
    </g>
    <g class="clothesFoldLine">
        <path d="M1115.37,888.36c1.44,25-.09,49-10,70.54"/>
        <path d="M1023.36,983c16.44,18.94,36.74,22.83,58.27,21.88"/>
        <path d="M1167.59,934.52c-10,36.65-56,55.05-26.92,54.28"/>
        <path d="M1189.34,988.26c-30.27,48.08-104.81,45.61-68.6,58.81"/>
        <path d="M1062,1049.67c25.74,18.11,61.69,12.8,48.74,31.14-7,10-22.24-9.2-36-15.33"/>
        <path d="M1202.78,1058c-8.15,5.17-13,11.9-10.73,22"/>
        <path d="M915.25,1014.87c3.14,39.39,15.33,82,22.23,108.88"/>
        <path d="M885.35,1081.58c8.92,47.64,13.33,89.68,9.2,121.14"/>
        <path d="M962.79,1223.43c-31.63,35.33-71.07,59.65-121.15,69"/>
        <path d="M993.58,1248.62c-7,8.54-16.05,11.81-17,15.44"/>
        <path d="M535.54,1202.56c6.5,36.1,23.44,57.82,48.47,68.4"/>
        <path d="M709,986.5c-8.47,75.85-18.88,137.44-33,171.75"/>
        <path d="M726.63,1100.75c-5.16,33.54-5.37,66.79.77,99.67"/>
        <path d="M316.42,968.1c11.55,41.77,47.54,79,78.38,82.85"/>
        <path d="M348.88,919.8c4.34,65.17,49.51,82.68,44.21,92.77-2.7,5.16-20.7,2.3-45.23-29.9"/>
        <path d="M399.16,896.67c-1.47,34.62,45.7,63.61-11.43,43.06"/>
        <path d="M423.76,911.36c7.67,18.4,52.91,40.64,77.45,39.87"/>
        <path d="M467.73,1002.33c-23.51-1.56-43.49-7.91-60.07-18.9"/>
        <path d="M872.13,1586.47c27-13,20.59,15.07-43.07,21.11"/>
        <path d="M579.74,1579.84c34.26,15.33,68.87,23.56,103.85,23.83"/>
        <path d="M757.21,1613.27c6.43,23.88,17.73,48.1,32.37,72.56"/>
        <path d="M720.58,1614.7C699,1635,681,1657.69,667.23,1683"/>
        <path d="M891.66,1623.59c-40.14,6.36-78.2,4.07-112.4-14.23"/>
        <path d="M507,1454.22q5.85,33.32,34.57,52.16"/>
        <path d="M500.37,1482.63a67.93,67.93,0,0,0,13,21.65"/>
        <path d="M987.09,1556.7c-9.21,14.3-24.44,23.84-47,27.61"/>
        <path d="M979.52,1587.74c-5.42,5.41-12.75,9.58-23.18,11.74"/>
    </g>
    <g class="skinOverlapLine">
        <path d="M627.84,1886.6c-25.85-36.76-87.31-36.76-123.32-4.85"/>
        <path d="M107.07,991.17c4.79,7.43,17.9,10.7,23.87,20.54"/>
        <path d="M30.94,968.7c8.89,10.94,12,20.07,19.07,21.64"/>
        <path d="M14.88,1007.68c3.38,3.85,7.67,9.08,11.37,12.16"/>
        <path d="M7.55,1043.46c3,2.47,4.09,3.26,5.66,6.13"/>
        <path d="M998.48,1303.75c14.06,17.26,47.89,4.1,65.56-22.21"/>
    </g>
    <g class="skinFoldLine">
        <path d="M981.72,1299.58c-2.05-2.35-3-5.95-2.88-9.53"/>
        <path d="M996.63,1259.3c2.94-.75,6-2.41,9.57-4.62"/>
    </g>
    <path class="skinCreaseLine" d="M903.54,1909.89c-25-4.27-50.29-3.85-75.73,0"/>
    <g class="head49">
        <path class="hairLightBrown" d="M624.79,524.55c2-60.75-23.64-98-25.55-217.74C587.51,294,578,277.05,570.63,256.27c5.25,21,0,23.84,3.34,39.1-10.49-35.28-29.56-32.9-15.69-131.22-7,8.12-12.41,18.25-15.71,31C543,144.71,565.35,95,597.63,81c9.72-37.35,50.72-56.43,84.93-50.36C698.89,8.34,728.19,6.76,762,15.84L733.39,1.51c50.37-6,96.17,43,130.15,56.47,35.64,14.16,117.3,36.5,157.4,148.57,33.15,92.65,18,155.86,25.14,260.91,5.6,82.62,9.37,458.41-52.51,478.72-20.85,30.39-60.76,49.8-97,56.34-33.24,29.55-103.43,19.39-139.45-3.7-35.09,3.7-81.18-28.63-87.65-61.81C602.1,915.71,622.72,586,624.79,524.55Z"/>
    </g>
</svg>
