<svg viewBox="0 0 187.08 390.78">
  <path class="soleWhiteDark" d="M103.56,387c-2.42,1.45-17.7,1.07-19.34,0,5-28.34,29.13-45.61,26.84-22-.12,1.54-2.5,4.7-3.38,6.81C104.91,378.42,108.27,384.2,103.56,387Z"/>
  <g class="soleWhite">
    <path d="M141.83,383.05a8.18,8.18,0,0,1-1.4,5.19c-2.45,2.93-14,2.7-17.27,1.26-4.86-2.12-10.88-2-12.62-4.77a6.8,6.8,0,0,1-.63-6.31Z"/>
    <path d="M84.22,387a9.51,9.51,0,0,1-.17-5c4.59-28.23,21-38,27.14-23.75.8,1.59.33,4.77-.13,6.75,1.36-6.17-10.23-7.87-14.54-3.93C89.52,367.41,91.22,378.42,84.22,387Z"/>
  </g>
  <g class="shoe">
    <path d="M140.16,368.41c1.16,2.37,2.75,11.37,1.67,14.64-.63,1.89-11.25,5.35-18.73,2.65-5.55-2-12.35-1.32-13.19-7.28,1.12-6.17,8.36-4.41,10.74-10.7.66-1.75.88-3.28,2.9-3.93C129.24,362,137.54,363.1,140.16,368.41Z"/>
    <path d="M111.19,358.22c-.14-3.86-4.27-10-6-10.9-2.07-4.47-15-4.56-16.33.44-.84,3.29-3.28,9.51-3,14.79.68,13-2,10.76-1.77,19.42,3.32-3.11,5.17-19.32,10.17-23.94C98.48,354.1,108.86,353.88,111.19,358.22Z"/>
  </g>
  <g class="sockWhite">
    <path d="M139.56,356.9c-.36,4.47-1.06,9-.92,12.49-.66,3.19-14.06,2.42-16.19-.27.54-2.91.64-8.31.81-13C126.54,357.88,137,358.38,139.56,356.9Z"/>
    <path d="M90.21,350.15c3.72-5,13-3.82,15.85-2.14-1.5-4.51-2-9.5-2.54-10.26-2.26-3.75-14.87-1.89-16,3.31A67.37,67.37,0,0,1,90.21,350.15Z"/>
  </g>
  <g class="shoeStripe">
    <path d="M89.09,368.65c1.37-4.38,3-8.6,5.13-10.62,4.26-3.93,14.64-4.15,17,.19a14.56,14.56,0,0,0-2-5.9C100.66,345.86,87.69,352.52,89.09,368.65Z"/>
    <path d="M122.85,385.62l.25.08c7.48,2.7,18.1-.76,18.73-2.65.5-1.54.42-4.33.08-7.11A18.35,18.35,0,0,0,122.85,385.62Z"/>
  </g>
  <g class="shortsInner">
    <path d="M146.6,276.32c1.09.1-.08,9.14-1,9.75-4.13,2.8-25,2.17-29.9-.48-.69-.37-.86-10.14-.08-10.15Z"/>
    <path d="M104.3,273.11,72.5,266c-1.06-.25-2.09,8.57-1.76,9.61,1.56,4.88,27,9.9,30.49,6.51C101.72,281.61,104.94,273.32,104.3,273.11Z"/>
  </g>
  <path class="shorts" d="M152.77,209.66a64.63,64.63,0,0,1-.63,30.22c1.17,1.32.42,3.45-1.16,4.78-.94,10.45-2.43,21-4.38,31.66-2,2.18-27.46,2.48-31-.88a207.35,207.35,0,0,1-1-27.86c-2.57,4.84-6.27,15.9-10.36,25.53-3.79,2-27.27-.73-31.8-7.15a325.32,325.32,0,0,1,4.67-37.49c-1.31-2.46-.74-4,1-4.37.18-3.76,2.92-9.77,4.19-16Z"/>
  <g class="skinAshkenazi">
    <path d="M18.35,172.06c8.13-1.2,20.93-.86,26.81-3.82-5-2-7.62-10.31-6.68-14.93-4.77,2.13-10.1,5.53-14,6.3.06-6.06-2.62-6.77-4.53-11.57-1.06-3.11-5.3.63-3.32,4.73-1.91-3.32-7.25-5.51-10.82-11.45A2.05,2.05,0,0,0,2,142.84c.68,1.9.83,3.81,2.82,6.47-2.15.53-4.93,3.29-2.47,6-1.63,1-3.24,3.71-1.13,5.51-.8.37-1.78,2.86.91,5C6.52,169.23,6.49,173,18.35,172.06Z"/>
    <path d="M151.26,191.88c2.55-1,5.13-1,7.06-2.89,2.7-4.21,2.81-8.29,3.94-12.93,2,4,10.53,6.53,15,5.42-2.8,5.16-9.65,11.73-11.51,16-1,3.65-4.51,9.55-15.4,12.79C138.46,213.13,139.62,196.4,151.26,191.88Z"/>
    <path d="M144.89,286.46c-5,2.15-21.36,1.75-27.69-.27.31,6,2.26,12.77,1.91,17.15-1.45,17.94,5.07,37.89,4.57,53,3.5,1.49,12.52,1.93,15.48.74,2-21.77,8-41.59,5.86-53.75C144.22,298.74,144.71,292.73,144.89,286.46Z"/>
    <path d="M96.81,290.7a39.89,39.89,0,0,1,3-7.91c-5.93,1.66-24.62-2.14-28.45-6.25-.75,9.14-1,17.84,0,25.21,1.29,8.85,12.46,28.06,16.37,38.6,1.91-4.32,12-5.94,15.17-3.29C98.05,317.73,104.56,303,96.81,290.7Z"/>
    <path d="M94.42,66.64C94,72,94.06,76.93,96.35,80,96.37,75.43,95.4,71.66,94.42,66.64Z"/>
  </g>
  <path class="sweater" d="M153.9,200.92c-.09.61-.21,1.22-.36,1.86-.6,3.62.39,7.4.19,8.67-7.92,6.62-68.5,5.82-72.32-2.27-.8-1.22,1-5,1.28-8.28-3.47-5.26-1.2-10.62-.1-15.57-.23-12,2.64-25.78,2.46-40.59-5.55,4.3-7.83,9.28-12.91,9.75-1.12,2.28-2.65,2.73-4.14,4.14-1.94,1.84-1.77,3.25-7.09,3.35-.81,2-2.36,3.37-6,3.28-3.08,1.22-5.84,3.37-7.17,3.42-7.21.27-10.87-11.76-8.86-16.55.64-1.54,4.22-1.87,6.17-4,1.29-6.57,5.59-5.22,8.83-6.35,1.79-3.54,4.59-4.07,7.74-3.56-1.93-4.47,5.46-7.4,9.14-12.55,6.61-9.27,12-23,29.59-26l48.5,4.81c13.19,3.91,17.51,21.16,25.62,30.83,1.42,2.91,6.43,3,5.52,8.77.91,2.32,5.67,2.94,3.35,8.27.36,2,6.17,6.17,2.07,10.74,1.93,3.49,1.84,6.82-2.37,9.86-2.08,3.19-2.54,6.62-4,7.78-3.6,2.8-15.94-.37-17.05-5.61-.3-1.42.94-3.68,1-7.39-1-2.1-.52-4,.79-5.92-3.86-2.47-4.1-9.15-8.38-13.69-.26,11.54-1.58,17.29-1.61,22.77-.08,12.89,3.9,15.5-.56,21.57.18.54.34,1.09.47,1.64-8.78,3-6.12,4.53-9.3,7.54-.93,3.3,4.46,2.95,7-1.33A4.44,4.44,0,0,0,153.9,200.92Z"/>
  <g class="clothesDisplayLine">
    <path d="M122.17,215.89a68.67,68.67,0,0,1-3.69,20.8"/>
    <path d="M119.54,276.94c-.85.87-1,9,0,9.84"/>
    <path d="M74.74,268c-1.66.32-2.85,8.7-1.76,9.77"/>
  </g>
  <g class="clothesOverlapLine">
    <path d="M96.26,129.45c-4.67,5-7.31,11.52-11.21,15.29"/>
    <path d="M155.31,148.09a56,56,0,0,0,0-6.92"/>
    <path d="M162.9,167.7c3,5.54,15.48,8.07,20.1,5.22"/>
    <path d="M153.54,202.78c-6,5.78-64,7.12-70.85-1.88"/>
    <path d="M45,148.13c-1.5,5.73,4.16,15.72,9.86,17.13"/>
    <path d="M114.66,247.58c.21-1.07,1.52-2.38,3-3.33"/>
    <path d="M95.64,242.63c11,4.76,20.22.93,22,1.62a22.07,22.07,0,0,0,16.83.22"/>
  </g>
  <g class="clothesFoldLine">
    <path d="M171.9,136.93c.22,3.85,0,7.56-1.53,10.87"/>
    <path d="M157.73,151.52c2.53,2.91,5.66,3.51,9,3.37"/>
    <path d="M180,144.05c-1.55,5.64-8.64,8.48-4.15,8.36"/>
    <path d="M183.3,152.32c-4.66,7.41-16.15,7-10.57,9.06"/>
    <path d="M163.69,161.78c4,2.79,9.5,2,7.5,4.8-1.08,1.54-3.42-1.42-5.55-2.36"/>
    <path d="M185.37,163.06a3,3,0,0,0-1.66,3.4"/>
    <path d="M141.08,156.42c.48,6.07,2.36,12.64,3.42,16.77"/>
    <path d="M136.47,166.7c1.38,7.34,2.05,13.81,1.42,18.66"/>
    <path d="M148.4,188.55a32.4,32.4,0,0,1-18.66,10.63"/>
    <path d="M153.14,192.43c-1.08,1.31-2.47,1.82-2.61,2.38"/>
    <path d="M82.59,185.33c1,5.56,3.61,8.91,7.47,10.54"/>
    <path d="M109.31,152.05c-1.31,11.69-2.91,21.17-5.08,26.46"/>
    <path d="M112,169.65a45.7,45.7,0,0,0,.12,15.35"/>
    <path d="M48.84,149.22c1.78,6.43,7.32,12.16,12.07,12.76"/>
    <path d="M53.84,141.78c.67,10,7.62,12.73,6.81,14.29-.42.79-3.19.35-7-4.61"/>
    <path d="M61.58,138.22c-.22,5.33,7,9.79-1.76,6.63"/>
    <path d="M65.37,140.48c1.18,2.83,8.15,6.26,11.93,6.14"/>
    <path d="M72.14,154.49a18.67,18.67,0,0,1-9.25-2.91"/>
    <path d="M134.44,244.47c4.15-2,3.17,2.32-6.64,3.25"/>
    <path d="M89.4,243.45a39.63,39.63,0,0,0,16,3.67"/>
    <path d="M116.73,248.6a44.42,44.42,0,0,0,5,11.17"/>
    <path d="M111.09,248.82a41.88,41.88,0,0,0-8.22,10.52"/>
    <path d="M137.44,250.19c-6.18,1-12,.62-17.31-2.19"/>
    <path d="M78.19,224.1a11.65,11.65,0,0,0,5.33,8"/>
    <path d="M77.17,228.47a10.39,10.39,0,0,0,2,3.34"/>
    <path d="M152.14,239.88c-1.42,2.21-3.76,3.68-7.23,4.26"/>
    <path d="M151,244.66a6.79,6.79,0,0,1-3.57,1.81"/>
  </g>
  <g class="skinOverlapLine">
    <path d="M96.81,290.7c-4-5.66-13.45-5.66-19-.75"/>
    <path d="M16.59,152.77c.74,1.15,2.76,1.65,3.67,3.17"/>
    <path d="M4.86,149.31c1.37,1.69,1.85,3.09,2.94,3.33"/>
    <path d="M2.39,155.32a19.6,19.6,0,0,0,1.75,1.87"/>
    <path d="M1.26,160.83a2.73,2.73,0,0,1,.87.94"/>
    <path d="M153.9,200.92c2.16,2.66,7.38.63,10.1-3.42"/>
  </g>
  <g class="skinFoldLine">
    <path d="M151.32,200.28a2.19,2.19,0,0,1-.45-1.47"/>
    <path d="M153.61,194.07a5.6,5.6,0,0,0,1.48-.71"/>
  </g>
  <path class="skinCreaseLine" d="M139.27,294.29a36.2,36.2,0,0,0-11.66,0"/>
  <path class="hairLightBrown" d="M96.34,80.9c.31-9.36-3.65-15.11-3.94-33.54A22.7,22.7,0,0,1,88,39.57c.81,3.23,0,3.67.52,6-1.62-5.43-4.56-5.06-2.42-20.21a11.62,11.62,0,0,0-2.42,4.77c.06-7.76,3.51-15.42,8.48-17.58,1.5-5.75,7.82-8.69,13.09-7.76,2.51-3.43,7-3.67,12.24-2.27L113.06.33C120.82-.6,127.88,7,133.11,9c5.49,2.18,18.07,5.62,24.25,22.88,5.1,14.27,2.77,24,3.87,40.19.86,12.73,1.44,70.61-8.09,73.74-3.21,4.68-9.36,7.67-14.93,8.68-5.12,4.55-15.94,3-21.48-.57-5.41.57-12.51-4.41-13.5-9.52C92.84,141.15,96,90.35,96.34,80.9Z"/>
</svg>
