<svg viewBox="0 0 178.38 93.28">
  <g class="sockWhite">
    <path d="M138.93,15.26c-2.2-5.95-2.71-10.53,1.38-12.31,8-3.48,15.46-1,19.3,5.05,1.55,2.42,3.33,11.35,3.37,18.6Z"/>
    <path d="M105.15,14C105,5.22,102.87.47,98.15.47,87.26.47,83.05,4.19,82.43,12Z"/>
  </g>
  <path class="skinIndian" d="M48.08,30.14C42.21,11.6,70.69,1.84,89.44,8.88Z"/>
  <path class="skinEastAsian" d="M175.38,65.33c9.56,16.18-6,26.47-43.51,26.47-82.48,0-79.15-68.74-79.15-68.74,2.21-3.3,6-18,9.59-19.18C69.69,2,75.36-.91,78.15.74a30.35,30.35,0,0,1,8.53,7.45C125.26,30.38,166.25,52.65,175.38,65.33ZM79.74,11A11.84,11.84,0,0,1,76.8,8.54a15.29,15.29,0,0,1-6.28,2.1c.51.48.78,1,.5,1.49C72.87,11.33,77.42,9.6,79.74,11Z"/>
  <path class="skinIndian" d="M110.67,33.16,128,20.29c-10.08-7.08-15.24-6.29-20-8-4.19-1.54-9.51-4.61-16.18-4.6-7.38,0-11.07,2.84-17.44,6.39-8.19,4.56-18.79,9.72-26.34,19C48,57.72,110.64,57.81,110.67,33.16Z"/>
  <path class="skinOverlapLine" d="M65.5,4.75c1.87.6,10.43-2.14,12.37-1.64,2.72.71,4.09,2.73,7,5.57"/>
  <g class="skinFoldLine">
    <path d="M67.55,13.3A7.75,7.75,0,0,0,71,12.13"/>
    <path d="M76.8,8.54A1.35,1.35,0,0,0,77,7.3"/>
    <path d="M70.52,10.64A2,2,0,0,1,68.86,10"/>
    <path d="M109.56,17.24c.74,3.05-.41,8.87-2.72,11.3"/>
  </g>
  <g class="hairBlack">
    <path d="M93.65,88.12c9.81,1,15.31-4.71,9.31-5.59-3.23-.47-3.86.85-10.53-2.84,5.66-1.25,7.46-11.1,5.77-13.24,7.32-3.4,5.29-28.22-.52-24.35C96,32.44,87.37,26.06,87,29.91,81.73,24.53,69.53,17.84,68.86,22c-19.56-6-27.92,2.15-34.27,2.7-13.37,1.15-15.23,10.5-19.73,14.69C7.68,46.09,5.67,55.12,4.67,62.31-.68,64-2.86,76,8,84c-10,6.85,22.84,9.44,48.81,8.52C66.35,92.23,97.11,95.57,93.65,88.12Z"/>
    <path d="M98.57,35.42c-2.67,34.87,15.23,62.72,45,56.21,31.73-6.95,32.08-42.26,15.92-69.58-.95-3.54-2.26-7.51-6.18-8.32,1.5-.6,3.39,0,4.24-1-5.27-.87-9.11-5.74-12.92-1C138.11.28,128.47,6.94,121.15,3.31a9.75,9.75,0,0,0,4.08,4.31c-11.72-3.54-14.43,7.8-23.92,8.36,1.58.8,4.06,1.15,5.58,1.67C94.68,22.92,99.55,32.19,96,37Z"/>
  </g>
  <g class="hairOverlapLine">
    <path d="M92.43,79.69A20.38,20.38,0,0,1,84.24,86"/>
    <path d="M98.57,35.42a22.31,22.31,0,0,1,.66-2.26"/>
    <path d="M159.45,22.05a5.78,5.78,0,0,0-2.2-2.08"/>
    <path d="M153.32,63.54c2.64,1.39,5,.26,7.32-1.56a5.83,5.83,0,0,1-7.86,4.14c-2.82,4.21-7.42,4.45-11.47,3.13,4.62-.21,8.28-1.41,9.43-4.93"/>
  </g>
</svg>
