<svg viewBox="0 0 481.23 352.2">
  <g class="bennett">
    <path class="bennettWaistband" d="M333,206.33c.72-4.81-1.06-4.52-1.39-8.58C261.38,193.78,270.53,219.65,333,206.33Z"/>
    <g class="bennettUnderwearInner">
      <path d="M280.49,257.74c-8.8-.77-16.2-6.23-15.74-14.08C273.07,247.37,279.36,251.74,280.49,257.74Z"/>
      <path d="M334.94,256.94c-19.58-8.36-2.95-5.82,11.26-3C344.8,256.26,337.75,257.7,334.94,256.94Z"/>
    </g>
    <path class="bennettUnderwear" d="M306.05,253a68.49,68.49,0,0,0,15.09.78c3-.16,8.18.86,13.8,3.14-18-7.22,9.77-47.95,21.59-41.2-3.52-4.37-11-3.83-16.22-6.88-.45-2.89-5.4-1.52-7.29-2.53-5.43,1.27-15.8.1-19.84,1.95-26.78-6.13-44.31,13.12-52.72,37.62,2.68,5.53,11.89,12.09,20,11.84-7.38-1.62-13.08-3.38-15.74-14.08Z"/>
    <g class="sockWhite">
      <path d="M443.63,315.77c-6.44-5.59-9.63-16.26-14.12-20.67-3.89,1.75-14.16,8.83-16.24,11.78,3.06,5.92,11.26,13.77,17.8,25.47,2.36,4.22,3.7,11.53,10.89,9.73,9.34-2.35,16.77,2.68,23.44-.51,13.31-6.37,20.23-19.45,12.06-21.71-3.54-1-8.47,3.59-14.08,2.08C455.54,319.83,448.3,319.82,443.63,315.77Z"/>
      <path d="M319.29,293.13c-2.49.08-17.11,6.11-18.61,8.12,3.36,7.42,8.17,12.86,10.07,19.94,1,3.66,2.54,7.56,3.24,10.9,1.58,7.64,1.74,18.51,5.49,19.46,9.21,2.33,26.55-5.91,27.28-11.66.93-7.27-4.6-7-6.42-8.83-5.91-6.07-8.16-11-13.35-17.39C323.8,309.75,322.05,299.07,319.29,293.13Z"/>
    </g>
    <g class="skinEastAsian">
      <path d="M300.84,53.76c-.79-1.47-2.64-1.82-4-3.43.76-.76,1.52-1.53,2.27-2.31a9.34,9.34,0,0,0,2.64-4.48c.57-2,1.43-4,2.95-5.22l3.89-3.14c3.76-.25,7.19-1.88,10.13,1.52,1.92,2.22-1.3,7.24,2.64,11.73L316,52.61a9.87,9.87,0,0,1-5.76,1.67,9.37,9.37,0,0,0-5,1.55q-2.34,1.39-4.63,2.86A9.11,9.11,0,0,1,300.84,53.76Zm10.69-13.17c.33,1,.56,2.62,1,3.76a12.75,12.75,0,0,1,.8-3.87A3.65,3.65,0,0,1,311.53,40.59Zm-6.65,2.33c.41.47.72,1.27,1.48,2.19a42.78,42.78,0,0,1-1.31-4.31A6.81,6.81,0,0,1,304.88,42.92Z"/>
      <path d="M227.87,116.37c11-17.23,19.62-13.82,25-18.64,3.72-2.73-.13-13.54-10.57-15.06-.07-15.3,39.11-15.48,39.18-.17,1.55,4.42,4,9.35,10.82,9,9.2-1.26,9.22-1.6,22.43-.93C322.31,91,326,88.85,336,89.14c-8.88-10-8.84-14.58-17.61-19.47-2.57-2.12,5-11.28,7.58-9.16C335,70,354.55,74,367.2,91.53c3.19,4.42-.38,7.78-5.4,11.3-19.82,13.91-50,7.51-49.24,14.38,6.71,21.14,12.19,41,16,59.05,1.69,8.06,2.76,12.81,3.11,21.49-5.4.06-23.58,4-71.25,1.07-5.82-26.51-18.75-54.78-20.11-65.19"/>
      <path d="M414,306.61c3.74-1.62,12-7.37,14.86-10.63-16.16-31-34.14-54.52-37.4-59.62-5.45-8.54-25.81-15.56-34.92-20.62a16,16,0,0,0-16.17.51c-9.53,5.59-15.39,28.35-9.68,37.32,18.38,3.05,27,1.36,40.83,4.15C376.94,273.79,398.42,289.52,414,306.61Z"/>
      <path d="M318.8,293.46c-3.72-19.71-9.2-39.44-14.37-50.74-6.27-13.71-.12-23.9-21.82-24.41l-17.86,25.35c2,8.05,8.93,11.94,13.29,11.58,2.92,16,14.12,30.68,23.37,45.81A98.86,98.86,0,0,0,318.8,293.46Z"/>
      <path d="M249.68,79.07c-1.71,3.77-4.54,3.6-6,2.76-38.28,1.19-23.85-76,29.56-61.23C277,30.62,283.46,31,283.9,34.91c.23.94,1.46.88,1.37,3.28,1.41.79.9,1.75,1.51,2.27,4.85,4.47,11.8,14,11.32,26.69-.18,4.92,1.47,10.36-2.94,13.77-6.26,4.85-8,4.19-18.05,6.16a32.18,32.18,0,0,1-19-2.12"/>
    </g>
    <g class="nippleEastAsian">
      <ellipse cx="266.62" cy="141.71" rx="2.34" ry="1.34" transform="translate(-30.96 90.61) rotate(-18.25)"/>
      <ellipse cx="305.72" cy="133.26" rx="2.34" ry="1.34" transform="translate(-21.03 66.52) rotate(-12.01)"/>
    </g>
  </g>
  <g class="guitar">
    <path class="bodyDark" d="M285,151.49a160,160,0,0,0-25.17,2.81c-4.81,2.36-9,6.5-12.83,11.6l-9-.24c-11.18.5-24.8,2.39-32.62,5-4.79,2-13.64,7-17,17.61a54.23,54.23,0,0,0-2.15,26.63c1.58,9.67,5.91,22.46,14.57,32.24,5.6,6.32,9.63,6.53,15.42,7.87a137.11,137.11,0,0,0,26.27.88Z"/>
    <path class="bodyLight" d="M305,174.52c3.11,9.16,4.92,12.43,4,24.36-.78,10.26-9.48,18.27-20.68,20.44-4.61.9-7.79,3.21-9.7,6.65-7.69,13.85-15,22.4-25.55,27.16-9.81,4.44-22.45,4.79-32.8-6-6.83-7.15-15-26.19-16.18-35.93-1.86-15.34,1.59-26.3,12.56-37.21,6.47-6.43,18.64-10.21,33.86-7.59,5.8,1,10.44.16,14.2-3.76,12-12.51,22-14.17,29.43-6.88C298.09,159.58,301.69,164.68,305,174.52Z"/>
    <path class="bodyDark" d="M397.3,103l-2.44-.86a4.19,4.19,0,0,0-4.32,1.17c-4.43,4.81-9,9.61-14.5,13.57a2.4,2.4,0,0,0-1,1.78c-.17,2.37-.42,4.95-2.1,6.14l-71.13,41.76.55,1.16-19.93,11.5,5.89,14.58,2.1.54C348.86,156.82,381.89,127.17,397.3,103Z"/>
    <polygon class="fretboard" points="284.54 179.72 290.43 194.37 377.66 137.04 373.29 126.39 284.54 179.72"/>
    <polygon class="bridgeNut" points="377.85 137.52 373.29 126.39 375.1 125.29 379.67 136.42 377.85 137.52"/>
    <path class="headstock" d="M375.23,125.61a10.65,10.65,0,0,0,2.23-5.64,2.87,2.87,0,0,1,1.1-1.93,115.51,115.51,0,0,0,15.32-14.17,3.16,3.16,0,0,1,5.1.58c1.75,3.17,2.25,7.42,2.66,11.67a5.24,5.24,0,0,1-2.31,4.84,100.05,100.05,0,0,0-15.45,13,3.07,3.07,0,0,1-2,.88,7.27,7.27,0,0,0-2.56.71Z"/>
    <g class="tuningKey">
      <path d="M384.43,120c-.15-.36-.48-.33-.8-.3-.19-1-1-1.15-1.58-.69a1.88,1.88,0,0,0-.49,2c.27.67,1.05.95,1.73.11.26.18.55.35.84.1A1.15,1.15,0,0,0,384.43,120Z"/>
      <path d="M390,115c-.15-.37-.48-.34-.8-.3-.19-1-1-1.16-1.58-.7a1.9,1.9,0,0,0-.49,2c.27.67,1.05,1,1.73.11.26.17.55.34.84.1A1.15,1.15,0,0,0,390,115Z"/>
      <path d="M395.58,110.11c-.15-.36-.48-.33-.81-.3-.18-1-1-1.15-1.57-.69a1.88,1.88,0,0,0-.5,2c.27.67,1.05.95,1.73.11.26.17.55.35.84.1A1.17,1.17,0,0,0,395.58,110.11Z"/>
      <path d="M398.47,118.41c-.15-.37-.48-.34-.81-.3-.18-1-1-1.16-1.57-.7a1.9,1.9,0,0,0-.5,2c.27.67,1.05,1,1.73.11.26.17.55.34.84.1A1.17,1.17,0,0,0,398.47,118.41Z"/>
      <path d="M392.88,123c-.15-.36-.48-.33-.81-.3-.18-1-1-1.15-1.57-.69a1.88,1.88,0,0,0-.5,2c.28.67,1.05,1,1.73.11.27.17.55.35.85.1A1.16,1.16,0,0,0,392.88,123Z"/>
      <path d="M387.08,127.6c-.15-.37-.48-.34-.81-.3-.18-1-1-1.16-1.57-.7a1.9,1.9,0,0,0-.5,2c.28.66,1.05.94,1.74.1.26.18.54.35.84.1A1.15,1.15,0,0,0,387.08,127.6Z"/>
      <path d="M383.88,134a3,3,0,0,1-1.43.79,4.25,4.25,0,0,0,.81,1.58,8.93,8.93,0,0,0,4-1.84,5.59,5.59,0,0,0-.8-3.05C385.62,132.25,384.76,133.08,383.88,134Z"/>
      <path d="M389.12,129a4.93,4.93,0,0,0,1,2.32c.27.16,1.71-.59,1.92-.94a5.6,5.6,0,0,0-.87-3.16C390.48,127.76,389.8,128.36,389.12,129Z"/>
      <path d="M397.78,122c-1.43,1-2.81,2-4.17,3.12a4.85,4.85,0,0,0,1,2.3,12,12,0,0,0,4.63-2.16,5.41,5.41,0,0,0-1-3.33A1.52,1.52,0,0,0,397.78,122Z"/>
      <path d="M388,104.22a.33.33,0,0,0,.15,0l.35,1.32,1.15-1.23-.31-.68a.46.46,0,0,0,.14-.19,5.07,5.07,0,0,0-1.24-3.17,2.06,2.06,0,0,0-1.46.84A4.3,4.3,0,0,0,388,104.22Z"/>
      <path d="M381.28,110.18a7,7,0,0,0,1.68-.63l.35,1.26,1.17-1.14-.34-.73a7.7,7.7,0,0,0,1.74-1.22,5.07,5.07,0,0,0-1.24-3.17,12.91,12.91,0,0,0-4.58,2.55A4.29,4.29,0,0,0,381.28,110.18Z"/>
      <path d="M376.07,114.93a4,4,0,0,0,1.36-.42l.33,1.11,1.21-1-.36-.75a4.11,4.11,0,0,0,1.25-1,5.06,5.06,0,0,0-1.24-3.16,7,7,0,0,0-3.77,2A4.34,4.34,0,0,0,376.07,114.93Z"/>
    </g>
    <ellipse class="resonator" cx="248.03" cy="207.59" rx="30.11" ry="38.51" transform="translate(-16.84 21.96) rotate(-4.9)"/>
    <g class="soundhole">
      <ellipse cx="289.84" cy="205.53" rx="5.54" ry="7.08" transform="translate(-16.51 25.53) rotate(-4.9)"/>
      <ellipse cx="275.7" cy="170.07" rx="5.54" ry="7.08" transform="translate(-13.53 24.19) rotate(-4.9)"/>
    </g>
    <path class="latch" d="M230.52,224.16c.4-3.83-.76-7.11-3.66-9.22-2.46-1.78-4.8-.1-5.84,2.22a11.7,11.7,0,0,1-11.21,7.37c-3.4,0-5.3.76-6.11,3.2a8.07,8.07,0,0,0,3.76,8.92c2.82,1.49,5.19.58,6.79-1.76,3-4.33,6.6-6.79,11.51-6.58C228.21,228.41,230.18,227.44,230.52,224.16Z"/>
    <ellipse class="pegPin" cx="205.53" cy="232.55" rx="1.8" ry="2.3" transform="translate(-60.82 73.24) rotate(-17.65)"/>
    <g class="resonatorLightLine">
      <path d="M270.58,226.81c-4-6.32-11-8.62-16.77-5.05s-8.44,11.84-6.75,19.62"/>
      <path d="M267.28,231.31c-2.51-4.59-7.28-6.37-11.2-3.95s-5.61,8.21-4.13,13.44"/>
      <path d="M263.81,234.77c-1.17-2.48-3.63-3.49-5.63-2.25s-2.82,4.27-1.9,6.92"/>
      <path d="M248.93,173.51c1.69,7.77-1,16-6.75,19.62s-12.74,1.27-16.77-5"/>
      <path d="M244,174.08c1.49,5.23-.21,11-4.13,13.45s-8.68.64-11.19-4"/>
      <path d="M239.71,175.45c.91,2.64.1,5.68-1.9,6.92s-4.46.23-5.63-2.25"/>
      <path d="M262.19,179.69c-4.8,4.88-6.31,13.67-3.26,21.18s9.66,11.27,15.7,9.45"/>
      <path d="M265.86,184.09c-3.5,3-4.69,9-2.62,14.12s6.68,7.5,10.73,5.84"/>
      <path d="M268.73,188.67c-1.9,1.38-2.59,4.48-1.53,7.08s3.48,3.78,5.51,2.72"/>
      <path d="M221.24,205.05c6-1.83,12.65,1.94,15.7,9.44s1.54,16.3-3.26,21.19"/>
      <path d="M221.9,211.32c4-1.67,8.67.74,10.74,5.84s.87,11.11-2.63,14.11"/>
      <path d="M246.34,202.52c-4.28,2.89-9.76,2.75-16.39-.3"/>
      <path d="M255.14,186.62a34.26,34.26,0,0,1-5,12.14"/>
      <path d="M250.36,212.3c-4.46,2.51-7.65,8-9.64,16.43"/>
      <path d="M265.91,213.13q-6-2.74-10.6-2.33"/>
      <path d="M223.27,218.93A22.12,22.12,0,0,1,211.34,227"/>
      <path d="M226.18,225.33c-4.74,1.1-9.48,3.22-12.37,6.37"/>
      <path d="M225.19,216.49c2.5,2,3.49,4.83,3.11,8.48"/>
    </g>
    <g class="resonatorDisplayLine">
      <path d="M241.92,198.53c2,1.56,3.82,2.21,4.63,4.49l4.17,10.16a15,15,0,0,1,.6,5.93"/>
      <path d="M246.61,195.83c2,1.56,3.66,2.36,4.47,4.64l4.17,10.16a14.4,14.4,0,0,1,.76,5.77"/>
    </g>
  </g>
  <g class="skinIndian">
    <path d="M213.53,145.29c-38.7,33.65-130.91-21.84-86.73-59.52.34,3.16,1,5.85,2.64,7.36,4.16,4.71,4.61,11.94,10.83,17.66,8,7.35,11.86,15.61,21.21,18.26,11.35,3.21,25.51,15,32.32,15.42"/>
    <path d="M130.31,103c4.13,10.23,2.12,9.86,9.2,19.63,9,12.4.81,24.78-12.29,25.76C94.18,156,119.8,124.45,130.31,103Z"/>
  </g>
  <path class="skinEastAsian" d="M240.27,133.63c-17.25,22-16.71,15.33-30.74,31.42-6.79,7.79-15.36,5.25-25.08,2.77-10.93-2.78-24.82-7.68-39.5-12.47-13.24-1-10.62-10.72-13.07-16.67-1.36-4-2.59-8.41.14-9.23,4.6-1,3.45,7,5.94,9.24,4-2.5,1.19-8,3.65-13.77a4.15,4.15,0,0,1-2.59-.66c-3,1.71-6.89.94-6.31-2.43,2.35-.49,2.3-1.55,4.62-2.34a34.59,34.59,0,0,1-3-5.33,2.68,2.68,0,0,1,1.87-1.94c3,3.09,7.14,3.14,8.93,7.92,3.18,1.15,1.6,4.59,1.66,9.43,4.06,3.79,1.49,15.15,3.92,15.91,22.41,6.09,26.92,2.58,45,5.63,1.24-.09,4-3.52,8.28-8,8-8.3,20.15-20.72,24-26.71"/>
  <path class="hairBlackDark" d="M163.34,79.79c3.27-15.85-13.16-18.44-12.77-.22C155.56,79.28,157.47,81.86,163.34,79.79Z"/>
  <g class="eye">
    <circle class="sclera" cx="150.26" cy="49.48" r="6.82"/>
    <path class="irisDarkBrown" d="M153,53c.36,0,1.42-1.33,1.64-3.15s-.49-3.41-.86-3.45A18.87,18.87,0,0,0,153,53Z"/>
    <path class="pupil" d="M154.07,51.08c.3,0,.51-.52.6-1.23s0-1.3-.29-1.34A10.1,10.1,0,0,0,154.07,51.08Z"/>
  </g>
  <g class="skinIndian">
    <path d="M157.35,166.21c3.39.57,9.58,6.63,14.25,4.2,6.61-3.43,10.5,4.05,15-2-7.09-2.44-9.4-5.68-13.54-10.58-1.7-2-5-4.13-.32-7.72,5-.11,5.88-5.12,2.87-4.69-2.65,1.13-3.72-.11-5,.27-3.36,1-2.63,2.57-6,3.3-5,1.06-8.45.68-11.26,5.61-13.34,2-24.84-6.78-37.86-11,3.25-7.13,4.94-13.84,7.57-19,4.72-9.19,10-15.48,8.05-25.46-2.87-6.2-4-18.21,8.68-19L105.79,37.81c1.32,10.48,3.32,42.84,1.33,43.72-21,14.42-33.3,46.41-51.14,73-1.66,2.47-7.61,6.22-10.74,7.73-11.56,5.58-24.75,29.22-8.48,43.42a29.23,29.23,0,0,0,9.74,10,8.47,8.47,0,0,0-4.37-.1c-2.26-1.91-3.65-5.54-7-6-3.92-.6-11.06,6.56-17.5,10-3.26,1.73-6.14,3.44-7.86,5.29-2.18,1.08-3-.49-4.33-.39a1.74,1.74,0,0,0-1.16,3c-2.21.14-3.14,2.58-2.17,3.43-2.18.6-2.59,3.88-.68,4.54-1.56,1.66-.1,5,2.47,4.28-.66,2.59,1.47,4.38,4.26,3.3,4.3-1.39,5.64-3.87,9-5.06,1.84-.65,4-1.87,6.51-3-3.4,2-6.26,5.32-6.19,7.75-4.6-.83-9.29,3.11-7.62,7a2.47,2.47,0,0,0,3.3,1.46c.06,1.16,2.05,2.34,3.51,1.44.31.86,2.06,1.2,2.86.65.29.82,2.31,1.07,3,.44,3.36,2.5,7.57-2.4,11.32-3.9,5.28-2.11,11.63-8.21,17-8.57,11.87-.8,37.13,17.31,70.51,15.14,6.3-.41,14.93-11.83,13.82-17.89-1.76-9.7-21.86-33.89-38.67-47.78,7.61-6.31,13.22-15.42,17.87-26.22,10.15,1.36,27-.83,42.92,1.77"/>
    <path d="M193.8,144.47c2.25-.43,1.83-2.67,6.71-4.64,3.21-1.29,2.73-4.5,6.77-2.91,2.32.9.9,3.22,1.52,5.26,1.08,2.59-3.86,2.81-4.9.9-4.48,4.79-7.39,8.14-8.28,8"/>
    <path d="M221.37,154.94c1.06,1.75,1.12,4-.29,5.13-.58.48-1.88,1.36-2.78,1.07-.77,0,.18,4.24-4.3,3.5.62,2-2.55,5.54-5.34,1.34-.71-1.37,1.05-3.49,2.85-3.16-2-2.74-.81-5.58,2.08-5.46-.93-2.61,3.3-4.52,5.44-2l1.6-1.34c-1.9-3.53,2.33-5.13,5.53-2.25C227.72,153.27,225.4,158.35,221.37,154.94Z"/>
    <path d="M120.4,58.91c-2.59,2.53-6.29.84-6.86-.67a17.26,17.26,0,0,0-3.1-4.77c-30.54-6.64,16-34.57,53.45-26.41,0,0,4.68,46.83-2.86,43.5-2.39.43-2.76-1-4.43-.73a6.41,6.41,0,0,0-.54,3c1.24,2.16-2.36,3.48-3.83,3.39,1.59,1.55,2.77,4.51.45,4.83-3.2,2.24-1.38,5.23-5,7.29-4.27,2.46-8-1.1-10.65-2.59C128.64,81,124.79,77.66,122,69.93m32.65-21.2c-2.22-.68-4.33.15-5.83.46a19,19,0,0,1,5.15,2.67A4.24,4.24,0,0,0,154.6,48.73Z"/>
  </g>
  <path class="lipMaleMedium__noStroke" d="M280.7,61.31c.53-1.1,1.48-2.73,2.48-2.66,3.09.21,2.54-3.2,5.19.05,1.77,1.94.63,3.41,2.21,5.32.7,1.42,4.68,5.39.36,8.12-6,3.81-7.8-1-10.11-2.81C281.28,66,280.05,63.82,280.7,61.31Z"/>
  <path class="mouthInner" d="M290.51,64.06a11.26,11.26,0,0,1-2.45-2.25,7.1,7.1,0,0,1-1.76,1.41A6.25,6.25,0,0,1,290.16,67C290.84,65.67,290.84,64.26,290.51,64.06Z"/>
  <path class="tongue" d="M285.06,62.86a20.79,20.79,0,0,0-2.16,1.52,31.9,31.9,0,0,1-1.42,4.53c-.42,1.31,4.08.74,5.64.44a4.23,4.23,0,0,0,3-2.35A6.51,6.51,0,0,0,285.06,62.86Z"/>
  <path class="lipFemaleBrown" d="M154.47,72.28c-.95-.73-4.7.56-6.53,2-.13.33-.24.68-.36,1.06,2.24,1.46,2,4.66,5.1,5.74,2.32-.32,1.14-3.28-.45-4.83,1.47.09,5.07-1.23,3.83-3.39C155.5,72.4,155.22,72.86,154.47,72.28Z"/>
  <g class="teeth">
    <path d="M288.06,61.81a15.39,15.39,0,0,0-1.66-1.67c-.81,2-2.78.6-3,1.63-.16.83-.32,1.8-.61,3A12.11,12.11,0,0,0,288.06,61.81Z"/>
    <path d="M147.94,74.25a14,14,0,0,1,3.51-.81,2.13,2.13,0,0,1-.76,1.87,7.17,7.17,0,0,0-3-.28C147.76,74.76,147.84,74.5,147.94,74.25Z"/>
  </g>
  <path class="lipOverlapLine" d="M286.65,59.28a3.24,3.24,0,0,1-.25.86"/>
  <g class="lipEdgeLine">
    <path d="M280.7,61.31c.53-1.1,1.48-2.73,2.48-2.66,3.09.21,2.54-3.2,5.19.05"/>
    <path d="M284,72.3c4.06,2.9,11.63-1,7.73-6.44"/>
    <path d="M151.45,73.44a4.55,4.55,0,0,1,1.94.41c.59.13.85-.06,1.41.28"/>
    <path d="M150.69,75.31a3.9,3.9,0,0,1,1.54.91"/>
  </g>
  <path class="cheekLine" d="M147.4,76c1.85-7.61,8.49-8.91,6.15-17.64"/>
  <g class="noseLine">
    <path d="M281.32,46.31c1.62,1.58,7.52,2.39,4.21,7.58"/>
    <path d="M274.19,54.19a2.67,2.67,0,0,0,2.94,3.31"/>
    <path d="M277.86,55.7c.18-2.51,2.54-.82,3.39-.5"/>
    <path d="M285.31,51.45a4.52,4.52,0,0,1-1.26,2.87"/>
    <path d="M154.5,68a1.8,1.8,0,0,1-2-1.23"/>
    <path d="M158.92,67.83a5,5,0,0,0-4.43-.43"/>
  </g>
  <g class="eyeFoldLine">
    <path d="M286.45,39.89c-.57,1-2.74,1.82-4.42,2.1"/>
    <path d="M267.31,46a10.59,10.59,0,0,1-7.47,2.86"/>
  </g>
  <g class="eyeLashLine">
    <path d="M277.94,40.14c1.33.2,2.73-2.67,7.33-2"/>
    <path d="M255,48.74c2.28-.36,2.86-2.17,6.44-3.63s4.22-.67,6.36-1.63"/>
  </g>
  <g class="eyeLidLine">
    <path d="M154.6,48.73c2-.12.83-3,.83-3"/>
    <path d="M153.92,51.86c.93.45.73,4-2.89,1.44"/>
  </g>
  <g class="eyeCreaseLine">
    <path d="M148.77,49.19a8.25,8.25,0,0,1-2.47,0"/>
    <path d="M148.74,47.47a11.47,11.47,0,0,1,7-.07"/>
  </g>
  <g class="eyebrowBlack">
    <path d="M267.41,36.6c-1.36,5.27-11.72,1.24-16.31,7.57C255.7,34.59,263.49,39.33,267.41,36.6Z"/>
    <path d="M282.67,32.55c-3.87-.37-5.79,2.45-8.14,2.83,2.8,1.42,4.55-1.3,9.27-1A4.37,4.37,0,0,0,282.67,32.55Z"/>
    <path d="M146.89,43.36c5-3.41,9.27-1.36,12.17-2,.64-.14,0,2.52-1.75,2.11C153.1,42.49,150.14,41.82,146.89,43.36Z"/>
  </g>
  <g class="hairBlack">
    <path d="M237.48,65.7c1.14-.89,2.9-3.82,3.84-5.37-2.32-3.57-3.29-2.85-2.68-9.24,3.2-3,8.87-8.88,8.54-15.15.75,1.39.62,3.35,1.64,4.81.33-3.42,3.94-6-2.83-17.8,9.49,13.6,19.61,4.51,26.39,7.6-1.21-.93-2.18-2.79-4.11-3.42,6.76,2.56,9.37-.87,13.27,1.52-2.33-5.48-4.73-11-13.28-12.47A8.77,8.77,0,0,0,273,13.87c-10.13.18-16.38-10-38.46.88-7.77,3.84-16.05,13.32-18.1,20.16-2.15-3.07-2.12-6.47-.76-9.75C212.75,29,212,34,214.12,37c-3.1-1.8-7.28,1.77-7.14,5.09,1.76-2.86,4.88-3.89,7.08-1.83-5.26,17.33,11.6,42.36,28.63,43.62a2.39,2.39,0,0,0,1-2.09c-5.25-1.93-10.29-.37-13.78-8C226.87,67.28,233,62.11,237.48,65.7Z"/>
    <path d="M167.35,45.69c-.7-13.37,4.64-17-9.89-33.54C148.84,2.34,122.61-3.79,117,3.36,108.58.18,103.68,6.53,97.47,12c-8.66,7.63-14,15.93-14.85,28.72-1,15.67-5.4,15.24-3.4,26.7S94.59,88.56,93.85,80C99.07,90.21,111.71,91.94,107,86.7c9.45,8.15,20,6.81,14.41,1-10.27-12.82-12.38-24.28-11-34.25-8.38-11.9,8.46-23.45,12.12-10,2.09,3.68,6.94,6.16,7.4,2.55.68-5.37.84-4.9,3.38-7.15,6.16,1.07,7.89-.65,12.72-2.1-5.18,5.88,9.94,2.63,12.72-8.53-.77,4.1-.57,9.16,1.85,12.51.64,7.75-4.29,10-2.25,14.55C160.7,60.46,165,68.86,161,70.56c1.15,4.29-.16,9.27-2.36,16.44-2.33,7.57,10-1.31,10.32-13.89,2.63,2.7,4.93-2,2.32-10.7C169.39,56,167.7,52.37,167.35,45.69Z"/>
  </g>
  <g class="hairOverlapLine">
    <path d="M238.64,51.09c-1.21,1.22-2.62,2.26-3.58,3.46.56-1.93,1.31-4,1.72-5.47"/>
    <path d="M160.63,40.7c2.1,2,2.91-.19,3.08-2.25"/>
    <path d="M133.34,38.82c-3.39-.65-2.4-2.38.07-3.17"/>
  </g>
  <g class="bottle">
    <path class="labelReverse" d="M315.49,53c.75-.36,1-2.55-2.63-7.14l18.28-14.44c3.82,4.82,3.61,6.49,3.14,6.91Z"/>
    <path class="beerTop" d="M302.38,41.63c0,.43,5.59,1.13,12.53,1.58s13,.5,13,.06S322,42.11,315,41.66,302.39,41.2,302.38,41.63Z"/>
    <path class="beerSide" d="M327.9,43.29c-.19.41-6.08.37-13-.08s-12.55-1.15-12.53-1.58h0a16.53,16.53,0,0,0-.65,1.91A9.34,9.34,0,0,1,299.09,48c-3.38,3.51-6.92,6.87-10.57,10.09-.68-.49-1-.1-1.78.49a2.26,2.26,0,0,0-.68,1.8c.11,1.5,2.46,4.69,4.13,5.19a2.37,2.37,0,0,0,2-.15c.75-.59,1.2-.84.88-1.62q6-4.23,12.24-8a9.37,9.37,0,0,1,5-1.55A9.87,9.87,0,0,0,316,52.61l11.93-9.32Z"/>
    <path class="bottleSide" d="M286.06,60.4a2,2,0,0,1,.68-1.8c.75-.59,1.1-1,1.78-.49,3.65-3.22,7.19-6.58,10.57-10.09a9.34,9.34,0,0,0,2.64-4.48c.57-2,1.43-4,2.95-5.22l19.87-16a2.5,2.5,0,0,1,2.65-.24c3.42,1.1,9.6,8.94,9.77,12.43a2.44,2.44,0,0,1-.86,2.4L316,52.61a9.87,9.87,0,0,1-5.76,1.67,9.37,9.37,0,0,0-5,1.55q-6.28,3.75-12.24,8c.32.78-.13,1-.88,1.62a2.41,2.41,0,0,1-2,.15C288.59,65.12,286.27,62.11,286.06,60.4Z"/>
    <path class="bottleBottom" d="M326.36,22.52c1-.8,3.56.76,6.8,4.85s4.18,7,3.17,7.74-4.05-1.39-6.8-4.86S325.36,23.32,326.36,22.52Z"/>
    <path class="bottleCreaseLine" d="M293,63.82c-1.95-.23-4.83-3.9-4.51-5.71"/>
    <g class="labelSecondary">
      <path d="M294.13,58.26a10.87,10.87,0,0,1-2.78-2.7q2.49-2.28,4.88-4.65a2.42,2.42,0,0,1,1,.68,5.26,5.26,0,0,1,1,3.42C298.13,55.87,295,58.47,294.13,58.26Z"/>
      <path d="M334.28,38.3c-.22.19-1.1.09-2.24-.89L313.21,52.16c1.1.86,2,1,2.28.81Z"/>
    </g>
    <path class="labelMain" d="M323,23.58l-18.3,14.74a6.25,6.25,0,0,0-1.3,1.41c3.61,4,8.94,3.15,14.21-1s8.8-10.35,5.39-15.12Z"/>
  </g>
  <g class="skinEastAsian">
    <path d="M318.36,69.67c-7,3.31-9.59,1.09-14.13,0-5.18-1.27-6.89-3.2-9.28-4.82-2.09-1.41-2.79-4.75-5-6.09.22-4,6.45-2.15,7.93,1.72,1.34.91,2.91,1.65,2.72-1.77q2.3-1.47,4.63-2.86a9.37,9.37,0,0,1,5-1.55A9.87,9.87,0,0,0,316,52.61l5.35-4.18c2.05,3.12,4.62,9.37,4.6,12.08"/>
    <path d="M308.59,35.15c-8-1.57-9.71,1.23-9.29,4.05-2.48,1.35-4.6,1.6-4.57,5.37-7.31,5.34-2.7,9.25-2.88,10.57,2,2.7,6.08-.57,4.35-4.31,6.46,0,3.7-5.89,5.33-5.82,4.27.42,3.72-4.23,3.15-6.69Z"/>
  </g>
  <path class="clothesDisplayLine" d="M306.09,209.61c2.45,3.57,1.48,12.21,2.56,15.36.74,2.14-.07,7.47-2.27,12.74"/>
  <g class="clothesOverlapLine">
    <path d="M344.42,333.33c-3.49-1.21-6.46,1.3-9.63,3.29s-10.12,2.38-12.45,5.83"/>
    <path d="M471.65,320.94a17.46,17.46,0,0,0-4.54,4.09"/>
    <path d="M317.58,224.49c-3.95,5.81-5,13.24-10.41,19.91"/>
    <path d="M336.43,206.84c-4.83.63-12.5,3.93-15.86,11.4"/>
  </g>
  <g class="clothesFoldLine">
    <path d="M340.31,208.86c-4-1-12.13,2.08-14.11,7.79"/>
    <path d="M318.84,215a28.43,28.43,0,0,0-6.5,6.73"/>
    <path d="M324.2,241.91a21.82,21.82,0,0,1-9.51,8.36"/>
    <path d="M304.4,226.37a14.43,14.43,0,0,0-9.49-5.64"/>
    <path d="M313.18,208.28a7.72,7.72,0,0,1,.33,3.49"/>
  </g>
  <g class="skinOverlapLine">
    <path d="M272.7,246.51c.72.69,2.15.93,3.09,1.31.76.31,1.44,4,2.25,7.42"/>
    <path d="M371.51,257.72a14.91,14.91,0,0,1-.68-2.94"/>
    <path d="M351.06,97.22c-5.36.61-12.07-3.57-15.09-8.08"/>
    <path d="M314.71,110.48c-2.06,2.31-2.78,5.36-2.15,6.73"/>
    <path d="M242.72,131.41c-.94.29-1.68,1.31-2.45,2.22"/>
    <path d="M145.09,120.14c-2.7-.69-6.1-1.41-7.76-.65"/>
    <path d="M299.3,39.2c.37,2.31-.9,5.23,2.23,5.81"/>
    <path d="M296.2,50.83c-1.71-.08-1.23-3.88-1.47-6.26"/>
    <path d="M36.76,205.72c-7.59-16.06,3-38.95,19.16-40.55"/>
    <path d="M96.56,190.66a25.85,25.85,0,0,0-16.16-6"/>
    <path d="M51,166.36a30.5,30.5,0,0,0,1-3"/>
    <path d="M42.13,215.63c-3.94,1.05-5.79,12.93-18.46,19.29"/>
    <path d="M48.9,217.28c1.1,3.15-1.2,6.6-4.25,10.09C41,231.58,34.86,244,29.3,246.71c-2.92,1.4-10.72-.19-11.82-4"/>
    <path d="M37.25,210.41c3.54,5.38-10.2,11-16.78,15.85-2.75,2-5.73,7-8,7.17-5,.48-4.08-6.21-2.69-8.6"/>
    <path d="M7.3,228c-1.13.15-1.72-.51-3-.57"/>
    <path d="M7.18,231c-2,.24-3.39-.85-5-.13"/>
    <path d="M7.32,233.1c-2.35,1.43-3.61.29-5.85,2.34"/>
    <path d="M10.87,235.37c-2.5-1.3-6,1.28-6.93,4.35"/>
    <path d="M22.54,253.66a3.77,3.77,0,0,1,4.67-4.78"/>
    <path d="M19.53,253.22c-1.13-2,1.79-5.34,4.18-5.24"/>
    <path d="M16.67,252.57c-1.25-3,2.41-5.92,4.48-4.64"/>
    <path d="M13.16,251.13c-.8-2.58,3.47-5.29,5.69-3.25"/>
    <path d="M16.19,243.43a2.43,2.43,0,0,1,1.35,3.79"/>
    <path d="M114.43,164.44c-9.71-1.84-20.52-8-20.52-13.19,0-6.44,6.91-31.71,13.12-45.94"/>
    <path d="M214,164.64a6.17,6.17,0,0,1-2.49-1.82"/>
    <path d="M213.59,157.36c1.11,1.5,3.58,3.95,4.71,3.78"/>
    <path d="M220.63,154a5.91,5.91,0,0,0,.74.9"/>
    <path d="M203.9,143.08a4.23,4.23,0,0,1-.79-2.75"/>
    <path d="M173.4,167.62a27.53,27.53,0,0,0,5.54,2.49"/>
    <path d="M46.17,215.49c10.12,7.11,13.13,5,29.23,14.49,7.11,4.16,16.2,7.12,27.47,11.57,5.87,2.32,7.43,5.34,9.63,7.57"/>
    <path d="M75.4,230c-9.69-3.79-20-2.89-24.09-11.34"/>
  </g>
  <g class="skinFoldLine">
    <path d="M138,138.69a4.09,4.09,0,0,0,2,1.74"/>
    <path d="M139,124.26a1.76,1.76,0,0,1-.61-.93"/>
    <path d="M303.2,61.89c-1.63.2-2.46-.33-3.84-.7"/>
    <path d="M238.35,68.94c-8.8-6.3-9.61,9.42.66,9.22"/>
    <path d="M240,71.08c-.8,3.15,5.15,3,4,4.64s-1.5-1.27-4.61-.22c-3.83,1.3-4.64-5.47-2.23-4.59"/>
    <path d="M119.81,44.73c1-9.29-15.67-3.52-6.84,7.79"/>
    <path d="M119.68,48.5c-2.4,1.35,1.81,5.16-1.12,5.85-1.54.37-.14-2.17-2.5-3.55-4.36-2.56-.2-9,1.84-5.43"/>
  </g>
  <g class="skinCreaseLine">
    <path d="M316,62.84c-2.88-3.85-8.19-6-11.75-6.38"/>
    <path d="M94.38,99.17c-8.23,9.42-15.94,27.29-24.27,42"/>
    <path d="M156.63,129.85a18.16,18.16,0,0,1-3.42,8.7"/>
  </g>
</svg>
