<svg viewBox="0 0 301.66 460.66">
  <g class="eye">
    <g class="sclera">
      <circle cx="158.13" cy="64.9" r="16.54"/>
      <circle cx="237.6" cy="79.67" r="13.48"/>
    </g>
    <g class="irisDarkBrown">
      <ellipse cx="152.49" cy="62.39" rx="3.32" ry="3.22" transform="translate(55.68 195.71) rotate(-76.27)"/>
      <ellipse cx="171.35" cy="67.58" rx="3.32" ry="3.22" transform="translate(65.03 217.98) rotate(-76.27)"/>
      <ellipse cx="243.42" cy="80.78" rx="3.33" ry="2.28" transform="translate(123.21 307.34) rotate(-80.41)"/>
      <ellipse cx="226.53" cy="77.47" rx="3.33" ry="1.85" transform="translate(112.4 287.93) rotate(-80.41)"/>
    </g>
    <g class="pupil">
      <ellipse cx="152.75" cy="62.61" rx="1.29" ry="1.25" transform="translate(55.67 196.13) rotate(-76.27)"/>
      <ellipse cx="171.61" cy="67.8" rx="1.29" ry="1.25" transform="translate(65.01 218.41) rotate(-76.27)"/>
      <ellipse cx="242.91" cy="80.7" rx="1.29" ry=".89" transform="translate(122.87 306.77) rotate(-80.41)"/>
      <ellipse cx="225.97" cy="77.38" rx="1.29" ry=".72" transform="translate(112.02 287.3) rotate(-80.41)"/>
    </g>
  </g>
  <g class="bennett">
    <g class="bag">
      <path class="bagDark" d="M73.11,221.54c-4.01,.61-6.9,3.26-7.37,7.14-1.22,9.98-2.77,29.02-3.31,40.08-.24,4.82-.26,7.85,3.43,9.1l7.25-56.32Z"/>
      <path class="bagLight" d="M82.07,286.39c-6.4-.21-8.24-.53-11.94-1.71-4.85-1.56-4.33-3.76-4.4-8.42-.2-12.43,1.25-37.32,2.58-49.69,.39-3.59,2.95-4.88,7.18-5.51,3.35-.5,6-.41,10.31,.16l-3.72,65.17Z"/>
      <path class="bagMedium" d="M85.79,221.23c-3.69,.22-11.4,1.86-11.77,6.52-1.03,12.9-1.23,38.46-.17,51.75,.6,7.46,6.09,8.15,24,5.65l-12.06-63.91Z"/>
    </g>
    <g class="soleWhite">
      <path d="M112.89,446.39c-.55,1.86-.72,5.16-.04,5.98,1.21,1.68,9.15,4.02,10.36,4.83,6.46,4.32,25.95,4.68,34.6-1.37,1.35-4.82-2.31-12.01-7.23-12.64-9.65-7.77-29-3.67-37.69,3.21Z"/>
      <path d="M57.23,342.72c-2.26,.31-4.26,1.11-5.4,2.67-4.46,6.1-1.76,19.26-2.66,29.54-.71,8.19-.45,16.98,3.65,20.43,6.2,5.21,23.07,4.61,22.66-8.58l-18.25-44.06Z"/>
    </g>
    <g class="bennettShoe">
      <path d="M115.89,418.79c1.72,12.04-2.05,16.85-3,27.6,2.14,3.2,8.52,3.9,11.32,5.19,1.89,.87,5.13,1.61,7.7,2.13,1.02-8.46,13.87-11.42,18.67-10.54-6.38-4.95-14.17-19.09-13.48-29.47-3.67-7.17-14.49,.4-21.21,5.08Z"/>
      <path d="M83.24,350.18c-4.27,5.55-6.68,11.05-7.19,16.36-.68,7.12-1.53,13.79-.57,20.23-2.36-4.25-16.64-4.82-23.54-1.99-.08-8.66,.68-15.79,.47-21.84-.28-8.41-.47-17.02,4.82-20.23,2.58-1.45,5.91-2.73,9.45-3.97l16.55,11.44Z"/>
    </g>
    <g class="shoelace">
      <path d="M127.98,425.9c.44,4.72,2.74,10.28,5.11,14.62,3.12-1.37,8.58-2.41,12.32-1.6-2.71-3.85-5.95-9.07-7.21-14.01-2.45-.38-7.8,.05-10.22,.99Z"/>
      <path d="M75.54,361.75c-3.45-.6-7.27-1.6-10.92-3-2.03,5.37-2.71,11.01-2.77,17.33,2.71-.2,7.35,.49,9.89,1.35,.7-5.68,1.79-10.45,3.8-15.68Z"/>
    </g>
    <path class="converseLogo" d="M120.62,443.74c4.6,.6,4.35-10.97,.06-11.5-3.19-.4-4.7,10.9-.06,11.5Z"/>
    <path class="bennettJeans" d="M154.51,224.8c3.57,28.76,2.29,59.2-2.48,91.69-1.15,7.84,2.53,17.1-4.72,21.12,.51,3.47,3.83,6.53-.25,10.19-.17,30.09-7.3,48.55-6.25,54.76-.25,4.03,2.7,9.13-2.11,13.06,.83,2.12,.19,3.33-2.01,3.59-.86-4.27-8.49-2.79-9.8,1.41-2.73,2.76-7.72,2.31-10.57,5.29,.15-6.09-4.82-9.06,0-11.75-5.78-8.5-1.56-13.57-1.27-15.94,.86-6.85-.08-42.19,3.67-53.01-1.33-2.66-1.06-7.84,.66-9.57-1.15-.8-1.41-2.33-1.06-4.38-10.36,7.71-22.82,12.74-22.32,16.34-1.58,5.53-8.47,7.36-17.84,7.47,2.3-4.28-6.34-7.2-10.75-4.04-3.6-1.44-3.29-7.28-5.57-10.47,3.34-2.53,6.06-7.91,10.67-3.32-4.06-11.29,10.61-10.89,25.62-25.91-1.86-1.33-.13-4.92,2.79-5.05-1.46-.66-.8-2.66,.66-2.39-6.64-13.02-19.47-25.45-22.85-46.37-2.14-13.24-.17-25.77,4.12-37.73l71.66,5.01Z"/>
    <g class="bennettJacket">
      <path d="M80.21,109.47c1.27-1.66,1.74-6.56,5.98-7.12,1.83-5.82,11.32-8.63,16.29-6.07,2.42,1.24,3.9-2.15,6.96-.45l38.78,5.74c8.9,6.1,22.27,12.8,21.5,20.57,2.28,7.4,1.96,15.73,4.02,29.13,1.99,12.95,5.57,26.54,5.28,34.08-.4,10.53-12.5,25.9-22.32,30.6,.16,.8,.13,1.44-.02,1.99-8.77-.26-44.26,1.89-74.15-3.56,1.93-16.6,.72-34.61,2.99-41.56-3.21-6.91,.55-7.12,.01-11.34-.65-5.05-5.38-6.86-.44-16.55-.07-2.55,.35-5.06,1-7.54"/>
      <path d="M95.94,129.63c-2.94,7.34-9.56,15.56-10.74,17.63-5.5,9.64-5.6,17.59-11.55,17.3,2.35,5.1-2.58,10.91-15.68,29.74-4.23,6.08-9.19,14.92-16.12,22.14-3.85,.5-17.22-10.48-17.58-13.75,9.63-10.35,16.46-30.54,29.91-48.17,2.26-2.31-.3-6.33,5.71-8.46,6.18-11.88,11.38-23.45,20.32-36.58"/>
    </g>
    <g class="zipperDisplayLine">
      <path d="M133.79,111.28c.35,7.75,.2,14.35-.54,19.6"/>
      <path d="M134.07,148.92c1.65,8.98-1.98,14.46-1.29,22.22,.98,11.12,2.78,20.43-.82,36.13"/>
    </g>
    <g class="bennettHoodie">
      <path d="M133.79,111.28c5.97-.87,12.16-6.44,17.34-8.16,.03-1.5-.32-2.84-2.18-3.58l-35.77-11.59c-3.62-.42-8.44,4.01-10.7,8.32,2.4,1.12,5.56-.24,7.34,2.14,5.55,7.45,18.15,10.94,23.97,12.86Z"/>
      <path d="M24.97,204.24c-2.23,2.49-4.02,3.23-4.34,4.23-.8,2.45,10.76,10.96,13.02,9.71,.87-.48,.74-1.52,2.53-4.03-4.28-2.69-9.36-7.14-11.2-9.91Z"/>
      <path d="M155.32,217.91h0c-10.63-.06-44.26,1.66-72.78-3.54-.05,3.3-2.29,8.67-1.57,9.8,11.28,.17,35.12,4.94,74.66,3.3,.82-.96-.77-6.76-.31-9.57Z"/>
    </g>
    <path class="bennettHoodieInner" d="M118.89,99.98c-2.9-2.56-7.43-9.15-6.14-10.24,8.48-15.15,34.64-1.36,34.27,9.52l-28.13,.72Z"/>
    <path class="bagStrapLight" d="M160.68,109.7c-8.93,18.87-55.28,75.85-84.46,114.48-1.54-.68-4.42-1.4-5.58-1.6,31.57-45.56,70.21-102.09,80.49-119.46,2.56,.35,8.28,4.85,9.55,6.57Z"/>
    <g class="hoodieLace">
      <path d="M125.72,136.81l.41,5.96c.03,.32,1.38,.2,1.35-.12l-.41-5.98-1.35,.15Z"/>
      <path d="M126.58,109.2c-1.06,11.4-2.39,15.85-1.2,27.4,.06,.65,1.96,.38,1.96-.21-1.18-10.39,.32-17.21,1.24-27.23l-2,.04Z"/>
      <circle cx="127.63" cy="108.33" r="1.74"/>
      <path d="M138.69,135l-.83,5.91c-.04,.32,1.31,.48,1.35,.16l.83-5.94-1.35-.13Z"/>
      <path d="M138.34,110.08c-.71,10.36,2.01,12.7,.17,24.63-.16,.65,1.71,.95,1.87,.3,1.99-12.02-1.23-14.93-.3-24.86l-1.74-.08Z"/>
      <circle cx="139.17" cy="109.15" r="1.74"/>
    </g>
    <g class="skinEastAsian">
      <path d="M149.06,89.71c-.96,3.39-1.94,7.08-2.04,9.55-1.62,8.2-12.75,6.88-13.24,12.03,.18-4.33-13.13-5.43-19.97-17.69,2.28-4.45,5.44-19.11,4.55-32.65"/>
      <path d="M20.61,208.55c-3.72,.99-8.11,.55-9.71,1.84-2.59,2.11-4.74,4.94-5.39,7.59-1.27,2.65-4.45,5.06-5.17,7.53-.59,2.02,1.82,5.46,3.97,4.59-1.02,3.31,2.05,6.48,4.79,4.91-.05,1.97,3.77,4.33,5.7,2.66,4.89,3.7,7.19-1.67,8.25-2.86,3.58-4.21,9.42-8.07,9.98-16.51-3.2-.06-12.92-7.39-12.42-9.75Z"/>
      <path d="M155.53,198.39c-3.56-.12-3.37-1.08-7.92-2.02-3.05-.63-3.78-1.6-5.84-2.11-2.79-.7-2.3-2.63-3.74-2.63-3.19,1.16-3.47,6.51,1.35,9.47-1.62,2.67-3.36,2.05-5.9,6.49-1.2-.5-3.38-.73-4.97-.56-2.74-1.68-6.78,0-6.56,3.12-.51,.22-6.59-2.26-6.83,2.94-3.04,1.01-4.9,3.39-3.3,6.69,.76,.93,3.06-1.19,4.73-1.41-.52,1.48-.4,2.68,.69,3.45,.84,.45,1.8-1.27,3.61-1.71,2.7-.65,6.84-1.52,9.65-3.04,17.07,2.3,21.13-3.75,25.84-3.5,5.99-.5,5.67-15.57-.82-15.18Z"/>
      <path d="M119.21,69.33c-4.06,1.37-5.6-.25-6.43-2.55-.72-3.78-6.35-9.82-2.07-17.52,2.37-23.58,57.92-32.36,71.57-8.38-6.36,13.27,.13,13.43-6.42,25.71-3.82,5.86-.46,20.6-16.65,30.92-4.3,2.74-6.53,6.34-12.22,5.37-8.22-1.41-9.25-3.13-16.45-8.84-4.73-3.75-7.96-8.58-9.51-13.24m34.32-17.06c-.82-2.61-2.28-3.44-4.4-3.91-2.72-.6-5.8,.28-7.86,.93,2.49,2.33,5.69,4.49,11.35,3.65,.41-.06,1.19,.22,.91-.68Zm10.56,4.11c.73,.18,2.94,2.71,6.57,2.08,.56-.61,1.03-2.58,.98-3.29-1.96-2.32-6.47-1.15-8.06,.35-.38,.36,.05,.74,.51,.86Z"/>
    </g>
  </g>
  <g class="liz">
    <g class="lizJeans">
      <path d="M205.44,296.36c.19,11.97,1.38,23.66,4.37,35.96,1,4.12-.41,7.99,1.64,13.04-1.69,.65-1.82,3.26,.14,3.9,1.87,6.47,1.64,11.07,1.91,15.58,1.2,19.81,5.21,33.51,7.09,50.02h18.07c-.16-22.17,10.5-42.42,3.8-65.88-.96-85.41-.81-58.07-37.02-52.62Z"/>
      <path d="M277.26,298.67l-42.23,1.51c-1.01,14.42-1.51,31.77,1.13,41.1,2.91,10.27,2.02,16.77,8.95,35.55,2.98,8.08,7.35,16.94,9.96,23.95,7.61,2.04,14.06,.8,19.04-4.66-2.9-21.18,2.44-40.79-6.64-56.05,2.02-3.15-.8-2.58-2.06-5.48,2.27-2.9-1.24-3.21-.13-5.29,4.53-8.48,8.8-18.75,11.98-30.64Z"/>
    </g>
    <g class="lizJeansCuff">
      <path d="M273.61,391.6c1.65,.58,2.69,6.33,1.36,7.4,2.3,10.44-14.13,14.61-17.92,6.86-2.13-.09-4.71-6.86-3.33-8.54,5.37,5.44,18.84,.34,19.9-5.73Z"/>
      <path d="M238.69,412.31c-3.13,2.23-14.98,2.05-18.31,.8-1.61,.7-1.08,7.31,.44,7.22,6.68,3.92,12.77,4.14,18.3,.87,1.77-.09,1.33-8.98-.43-8.89Z"/>
    </g>
    <path class="soleLightTanDark" d="M224.96,455.79l4.32,.71v-3.31c-1.42,.9-2.85,1.79-4.32,2.6Z"/>
    <g class="soleLightTan">
      <path d="M284.09,415.89c.84,2.46,1.27,5.17,1.41,7.2-.16,3.89-1.96,6.3-4.22,7.13-1.55,6.54,.28,11.75-1.9,16.35-3.81,8.03-16.65,9.63-21.23,5.05-1.01-1.01-1.66-2.5-1.8-4.14l27.74-31.59Z"/>
      <path d="M241.3,444.04c.1,1.86-1.05,8.4-1.48,9.59-.41,1.11-6.59,2.52-10.54,2.88v-3.31c-5.11,3.22-10.32,6.33-16.9,6.45-4.8,.09-9.17-.65-12.83-2.7-.4-.44-.68-2.07-.28-2.94l42.04-9.96Z"/>
    </g>
    <g class="lizShoe">
      <path d="M274.96,399c2.15,6.43,8.64,8.99,9.13,16.89,.42,6.77-3.73,5.44-4.35,24.86-.37,11.42-20.35,15.19-23.39,6.73-1.49-4.15,1.52-8.21,1.67-11.36,.3-5.96,.91-10.65,.31-15.4-.73-5.78,.63-7.5-1.3-14.86,9.36,6.1,13.98-4.89,15.51-1.03,1.56-.77,2.28-3.92,2.41-5.83Z"/>
      <path d="M233.47,422.08c1.88-.54,3.54-1.05,5.49-.87,.52,10.28,3.49,15.69,2.18,22.83-3.22,3.49-10.19,5.02-15.51,8.54-9.76,6.45-22.92,4.79-26.53,1.42-.13-6.3,6.11-6.46,9.32-9.46,4.19-3.9,6.32-8.47,9.28-14.01,1.5-2.8,2.4-6.27,2.96-10.2,4.1,0,10.37-1.12,12.81,1.74Z"/>
    </g>
    <g class="lizCoat">
      <path d="M200.05,162.23c-5.93,1.15-3.77,4.7-6.35,5.66-1.03-.84-2.06-2.04-3.31-1.71-1.37-.98-1.96-2.31-4.67-2.82-.93-1.29-2.2-4.17-11.48-9.07,1.81,10.16,4.02,20.54,4.67,27.63,3.82,4.13,8.45,7.57,12.44,9.03s11.32-2.59,17.87-7.29l10.42-42.66c-7.54,6.8-13.7,13.82-19.6,21.23Z"/>
      <path d="M292.39,149.42c3.19,8.98,4.34,22.86,5.78,34.68,2.59,21.26,1.26,27.17,2.03,41.41,.55,10.17-1.85,22.59-2.03,38.3-.49,2.03-10.75,2.94-14.65,2.26-1.16,26.85,1.09,31.75-.82,34.13-1.96,1.98-30.5,3.43-34.8,2.75-8.57-59.52-15.05-136.34-15.05-136.34,0,0,11.67-20.04,11.67-29.53,0-4.94,25.58-14.16,25.58-14.16,12.66,7.76,20.89,16.43,22.29,26.5Z"/>
      <path d="M247.93,194c5.44,37.08,.57,72.68-.2,109.88-13.11,1.16-47.42-3.97-48.58-6.28,.58-29.57,3.91-59.01,11.37-75.25-.39-16.58-.19-27.37-2.62-37.78-5.6-16.58-1.47-22.56,7.84-36.73,5.14-7.83,12.97-18.89,21.91-26.56-1.52,3.03-1.81,8.87-2.45,14.45-13.88,36.3,4.99,38.36,12.73,58.28Z"/>
    </g>
    <path class="lizUndershirt" d="M235.2,135.72c-14.27,23.61,.99,42.37,9.32,1.36l-9.32-1.36Z"/>
    <g class="clothingPearl">
      <ellipse cx="225.99" cy="237.23" rx="3.61" ry="2.76" transform="translate(-26.53 445.99) rotate(-85.97)"/>
      <ellipse cx="226.63" cy="211.21" rx="2.76" ry="3.61" transform="translate(-14.08 16.2) rotate(-3.97)"/>
      <ellipse cx="242.19" cy="211.35" rx="2.76" ry="3.61" transform="translate(-14.05 17.27) rotate(-3.97)"/>
      <ellipse cx="223.91" cy="186.17" rx="2.76" ry="3.61" transform="translate(-41.9 67.25) rotate(-15.64)"/>
      <ellipse cx="239.52" cy="185.99" rx="2.76" ry="3.61" transform="translate(-41.27 71.45) rotate(-15.64)"/>
      <ellipse cx="242.22" cy="237.82" rx="3.61" ry="2.76" transform="translate(-12.03 462.72) rotate(-85.97)"/>
      <ellipse cx="241.61" cy="261.89" rx="3.61" ry="2.76" transform="translate(-36.61 484.49) rotate(-85.97)"/>
      <ellipse cx="224.31" cy="260.84" rx="3.61" ry="2.76" transform="translate(-51.65 466.26) rotate(-85.97)"/>
    </g>
    <path class="lizCoatBelt" d="M277.98,209.74c-11.71,1.69-57.45,1.69-67.73-.42-1.32-.2-.97,12.72,.27,13.02,8.01,2.49,56.55,2.4,67.94,.92,1.1-7.15-2.18-10.79-.47-13.53Z"/>
    <path class="clothingBrass" d="M226.71,209.21c.76-.5,11.83-.5,13.16,.3,1.16,.89,1.37,15.02,.49,16.26-.7,.56-11.87,.38-13.01-.3-.8-.67-1.43-15.43-.64-16.26Zm12.15,1.72c-3.85-.04-7.61-.13-11.1-.24-.23,2.18,.08,10.65,.65,13.31,3.42,.13,7.11,.21,10.89,.26,.3-2.67,.17-11.11-.44-13.33Z"/>
    <g class="backpack">
      <path class="backpackMedium" d="M269.94,122.92c-.6,1.05-1.39,2.03-2.35,2.96,5.46-.89,15.5,6.16,15,9.93,4.97,2.69,8.74,9.04,9.65,13.61-1.4-14.03-9.46-23.22-22.29-26.5Z"/>
      <path class="backpackAdjusterLight" d="M277.98,209.74c-1.38-3.51-2.74-7.01-4.49-10.6-.69,.99-1.77,1.57-2.95,1.66,2.43,4.75,5.11,11.59,8.12,18.29,.05-1.86,.13-3.64,.26-5.33-.8-1.24-1.1-2.58-.94-4.02Z"/>
      <g class="backpackStrap">
        <path d="M267.59,125.88c5.46-.89,15.5,6.16,15,9.93-13.91-7.75-17.09,29.77-8.62,58.87,1.88,6.46-6.08,8.78-8.61,2.22-10.73-27.79-11.67-59.2,2.23-71.02Z"/>
        <path d="M233.66,124.98c-6.82,3.21-15.69,14.5-17.92,22.86,4.36-6.64,10.66-15.6,17.92-22.86Z"/>
      </g>
    </g>
    <g class="lizCoatLapel">
      <path d="M223.5,144.27c3.36-6.9,10.26-12.58,11.7-8.55,.63-5.58,.93-11.42,2.45-14.45-6.44,1.41-11,10.88-14.14,22.99Z"/>
      <path d="M270.1,122.92c1.41,2.82-8.41,13.43-12.64,25-6.26-8.13-11.14-16.43-12.94-10.84,.31-5.13,22.21-16.48,21.23-19.75,1.72,.16,2.75,4.78,4.35,5.59Z"/>
      <path d="M229.72,169.72c6.64-7.24,16.64-13.42,28.78-18.93-4.7-3.61-10.16-7.95-13.98-13.71-4.58,7.99-9.42,12.34-13.47,18.21-1.41,1.68-1.66,6.69-1.33,14.43Z"/>
      <path d="M218,154.47c2.48,23.07,22.01,21.68,29.93,39.53h0c-2.33-15.93-14.04-19.66-16.29-31.34-2.3-11.91,2.44-17.06,3.56-26.94-2.64,5.55-11.57,11.73-17.2,18.75Z"/>
    </g>
    <g class="skinIndian">
      <path d="M265.75,117.33c14.25-27.31,2.72-26.9-28.06-7.29,1.14,4.4,.78,8.41-.04,11.24-1.52,3.03-1.87,8.86-2.45,14.45-.26,2.55,7.87,3.76,9.32,1.36,.31-5.13,22.21-16.48,21.23-19.75Z"/>
      <path d="M296.12,265.12c2.06,3.2,3.7,8.53,3.17,13.52-.33,3.12-1.5,8.03-3.99,8.36-.46,2.63-1.54,4.42-4.25,4.01-1.12,1.7-3.83,2.32-5.92,1.2-2.68,4.75-6.69,2.16-8.19,.8-.88-1.52,.72-3.93,2.32-3.37,.52-1.94-.07-3.41-.24-5.29,.48,3.15-4.25,4.49-4.97,2.48,.56-3.37-.53-6.58-.07-11.06,.55-5.45,3.04-6.25,3.74-12.09,4.59,1.83,12.84,2.8,18.39,1.44Z"/>
      <path d="M161.68,148.29c4.56,.76,5.91,5.26,2.58,6.79,3.2,.95,3.7,6.06-1.01,6.11,1.64,1.95-.22,5.9-4.66,5.35,.84-9.67,2.28-8.41,3.09-18.25Z"/>
      <path d="M265.53,104.59c-6.26,9.37-14.05,11.9-23.73,13.14-6.11,.78-8.78,1.55-12.57,.23-8.05-2.78-4.72-5.56-7.5-11.2-4.33-8.78-1.35-19.94,1.7-25.95,.6-1.18-.85-1.76,.96-3.55-.38-.96-.25-1.72,.8-2.98,.7-.83,.31-2.16,.52-3.4-4.13-39.66,74.38-6.36,39.83,33.71Zm-24.13-23c1.03,.29,2.07,.78,4.11,1.09s3.42,.59,5.07-.12c-1.61-1.62-3.26-2.75-5.07-3.09-.74-.14-3.09-.68-4.94,1.45-.63,.72,.41,.55,.83,.67Zm-10.74-2.62c-1.46-2.78-5.29-3.6-6.28-1.71-.05,1.48,3.26,2.19,5.32,1.98,.35-.04,1.18,.25,.96-.27Z"/>
    </g>
  </g>
  <g class="clothesDisplayLine">
    <path d="M234.77,413.59c.67,.93,1.1,6.96,.43,8.05"/>
    <path d="M237.21,413.02c.67,1.46,1.18,6.58,.39,8.18"/>
    <path d="M270.93,395.71c.93,.79,2.82,6.47,2.48,8.36"/>
    <path d="M272.35,394.24c.89,.76,2.48,5.9,2.19,7.27"/>
    <path d="M112.57,226.88c-2.64,4.93-8.6,7.57-18.89,6.12"/>
    <path d="M143.18,227.82c1.42,3.48,4.98,5.25,9.66,5.87"/>
    <path d="M124.94,227.55c2.76,5.17-.93,7.09,.82,10.79,1.77,3.76-.97,6.96-.27,11.42,.64,4.06-.09,8-2.99,10.88,11.19-.91,10.85-8.5,10.5-11.78-.61-5.78,2.38-5.39,.34-11.9-.86-2.76,2.3-3.33-.12-9.19"/>
    <path d="M131.91,453.72c6.93,2.21,22.6-.74,25.38-4.04"/>
    <path d="M51.94,384.79c-.07,7.36,2.72,12.32,10.73,13.62"/>
  </g>
  <g class="clothesOverlapLine">
    <path d="M121.1,256.63c6.95,19.43,15.71,51.64,11.73,61.4-1.66,4.08-6.7,8.47-14.51,13.22"/>
    <path d="M72.08,374.94c-3.37-.87-6.75-1.43-10.16-1.7"/>
    <path d="M72.51,372.4c-3.33-.75-6.81-1.37-10.42-1.94"/>
    <line x1="73.1" y1="369.63" x2="62.44" y2="367.36"/>
    <path d="M73.74,367.13c-3.65-.68-7.25-1.54-10.81-2.57"/>
    <path d="M74.55,364.49c-3.73-.57-7.37-1.49-10.92-2.77"/>
    <path d="M67.41,351.02c-.14,1.94-2.07,4.48-2.8,7.73"/>
    <path d="M78.16,355.06c-.08,1.86-1.7,4.12-2.63,6.69"/>
    <path d="M126.89,420.61c1.02,1.43,.86,2.62,1.09,5.29"/>
    <path d="M138.97,427.37c-3.18-.28-7.68,.2-10.6,1.06"/>
    <path d="M139.92,429.65c-3.27-.49-7.91,.24-10.94,1.19"/>
    <path d="M141.08,431.99c-3.44-.5-8.33,.13-11.38,1.06"/>
    <path d="M142.26,434.1c-3.64-.7-8.22,.03-11.69,1.19"/>
    <path d="M143.62,436.29c-3.71-.67-8.78,.29-11.89,1.59"/>
    <path d="M136.69,419.2c-.05,2.1,.88,3.61,1.5,5.71"/>
    <path d="M272.55,404.83c1.35,4.06,3.88,5.78,5.4,10.64"/>
    <path d="M233.47,422.08c1.46,2.02,1.19,7.68,.65,12.54"/>
    <path d="M149.27,196.77c3.47-2.73,4.37-7.55,8.34-13.3,.05-9.72,1.27-21.88,2.26-24.97,1.55-4.86,2.28-12.5,2.21-21.28"/>
    <path d="M156.71,215.94c-1.77,.6-3.69,.13-5.46-1"/>
    <path d="M172.79,182.1c-1.91-4.72-14.15-5.99-15.18,1.38,3.19-3.83,12.62-3.13,15.87,1.52"/>
    <path d="M110.34,185.04c-3.16,7.79-6.77,15.24-11.64,21.72"/>
    <path d="M271.85,160.57c-.96,3.22,.14,9.59,1.03,14.18,3.86,19.87,2.4,27.2,6.91,29.48,.51,2.61-1.63,3.27-1.8,5.51"/>
    <path d="M278.46,223.27c-.39,30.94-3.04,40.24-.73,40.41"/>
  </g>
  <g class="clothesFoldLine">
    <path d="M265.41,334.6c-1.51,1.92-4.24,3.64-8.42,5.01"/>
    <path d="M267.47,340.08c-5.91,5.66-13.53,7.98-23.35,6.5"/>
    <path d="M211.59,349.26c2.87,1,6.44,1.2,10.23,1.16"/>
    <path d="M232.23,355.91c-2.65,.88-10.42,1.47-12.18,.79"/>
    <path d="M230.17,354.05c-4.81,.79-11.89,.88-14.64-.2"/>
    <path d="M263.38,333.03c-2.13,2.22-4.97,4.02-9.24,5.01"/>
    <path d="M264.75,338.82c-3.8,4.21-9.59,6.35-17.98,5.8"/>
    <path d="M212.19,347.08c4.01,1.58,9.38,1.68,15.23,1.28"/>
    <path d="M261.51,384.51c2.43,4.11,5.23,7.02,8.76,7.53"/>
    <path d="M120.07,253.18c-8.16-2.83-14.81-3.92-15-.52-.07,1.2,7.42,.17,12.94,2.07"/>
    <path d="M146.63,252.66c-3.94-.46-7.85,.16-11.73,2.07"/>
    <path d="M135.07,258.01c3.5,.92,6.66,2.75,9.49,5.52"/>
    <path d="M116.79,299.57c-1.58,2.5-8.97-1.9-15.52-8.11"/>
    <path d="M100.92,306.27c4.32,3.82,11.08,5.57,9.47,6.93-1.33,1.12-4.23-.75-6.88-3.62"/>
    <path d="M101.58,303.88c6.93,1.04,14.35,5.66,14.17,2.94s-3.88-3.09-9.49-2.93"/>
    <path d="M109.72,319.06c-3.79-3.51-8.73-3.45-14.83,.17"/>
    <path d="M146.11,333.2c-4.71,2.65-10.65,2.98-18.97-1.21"/>
    <path d="M147.3,337.6c-4.3-.09-4.94,1.43-1.19,5.43"/>
    <path d="M119.39,335.63c11.03,4.64,18.28,1.68,19.14,4.64,.8,2.77-4.06,2.81-12.25,1.45"/>
    <path d="M141.97,347.69c-7.07-2.93-11.21,.34-19.14-.52"/>
    <path d="M90.4,348.73c-6.13,.92-10.11-1-11.21-6.73"/>
    <path d="M72.51,337.23c.61,2.68,1.85,5.02,3.4,7.19"/>
    <path d="M90.4,353.2c-12.07,2.6-18.78-9.78-20.35-8.79-1.51,.95,.29,2.77,2.46,4.39"/>
    <path d="M137.34,407.91c-1.77,3.82-8.62,5.17-15.87-1.9"/>
    <path d="M138.7,415.61c-1.35,.9-3.11,1.01-5.33,.23"/>
    <path d="M116.32,414.15c3.6,.31,8.53,2.67,9.64,1,1.41-2.12-6.55-.52-10.52-5.35"/>
    <path d="M162.26,125.69c.73,3.7,.81,7.52-.19,11.53,1.72-1.3,2.53-3.66,2.81-6.63"/>
    <path d="M170.97,172.3c-3.24,2.28-6.88,3.99-9.75,3.49"/>
    <path d="M171.16,192.17c-3.47,2.24-7.2,3.36-11.34,2.63"/>
    <path d="M156.82,176.2c-1.42,3.9-3.82,7.58-8.8,10.71"/>
    <path d="M153.01,178.11c-4.72,6.17-15.88,11.43-27.86,9.44"/>
    <path d="M145.48,167.67c-7.47,2.03-14.5,2.91-20.87,2.09"/>
    <path d="M105.88,210.61c3.27,.82,6.75,1.28,9.45,1.3"/>
    <path d="M85.53,172.82c.16,.91,2.75,3.63,2.7,3.14"/>
    <path d="M87.41,169.75c-.05,2.75,2.07,5.29,5.72,7.68"/>
    <path d="M85.2,147.25c.39,7.92,1.63,12.38,5.68,15.84"/>
    <path d="M100.76,142.16c4.15,5.16,10.94,8.71,16.25,12.85"/>
    <path d="M103.31,135.47c2.21,4.47,7.01,7.86,9.77,10.84"/>
    <path d="M88.35,107.97c-2.16-.49-4.23-.71-5.95,.11"/>
    <path d="M86.19,102.36c3.54,.52,9.98,3.05,11.19,.94,1.39-2.42-1.55-3.4-6.8-2.55"/>
    <path d="M63.41,154.28c1.54,2.65,6.61,5.28,10.02,5.63"/>
    <path d="M73.65,164.55c-2.55-.99-4.28-.96-4.43,1.1"/>
    <path d="M185.71,163.37c.78,1.72,.51,4.39,3.1,5.53"/>
    <path d="M190.39,166.19c1.41,1.01,1.85,3.01,.99,4.88"/>
    <path d="M193.7,167.89c3.73,2.78,3.83,10.04,2.07,13.89"/>
    <path d="M200.05,162.23c1.7,.96,2.02,1.95,2.52,2.99"/>
    <path d="M196.1,167.85c4.45,3.53,6.09,9.2,4.06,13.82"/>
    <path d="M213.1,206.35c2.34-3.4,2.49-.67,2.09,3.63"/>
    <path d="M217.7,203.06c-.09,1.79-.06,3.98,.3,7.15"/>
    <path d="M210.69,229.71c1.97,1.32,2.06-5,3.54-6.67"/>
    <path d="M215.36,227.43c-.27-1.72,.05-3.11,.98-4.16"/>
    <path d="M255.43,206.63c-.59,1.28-.73,2.71-.44,4.27"/>
    <path d="M264.86,204.04c-.63,2.26-.88,4.47-.7,6.63"/>
    <path d="M269.25,205.47c-1.74-.75-2.13,1.66-2.08,5.09"/>
    <path d="M269.25,223.92c.28,1.77,.3,2.98,0,3.51"/>
    <path d="M272.65,223.75c.67,2.3,.88,4.5,.66,6.61"/>
    <path d="M282.74,200.32c2.63,3.29,6.14,5.48,11.19,4.17"/>
    <path d="M279.79,204.23c3.5,2.99,10.28,1.93,2.4,7.93"/>
    <path d="M295.24,208.21c-7.46,2.3-8.01,5.81-10.75,7.02"/>
    <path d="M293.92,252.49c.22-2.5,1.33-4.29,1.32-6.88"/>
    <path d="M276.26,144.01c-3.2,3.77-5.38,12.12-4.41,16.56,1.55-3.29,3.49-7.98,7.84-10.72"/>
  </g>
  <g class="clothesBorderLine">
    <path d="M183.46,160.22c2.39,4.57-1.53,15.98-4.89,18.93"/>
    <path d="M277.35,250.69c2.97,1.95,17.57,2.8,21.38,.77"/>
  </g>
  <g class="skinOverlapLine">
    <path d="M5.51,217.99c-.3,2.53,1.88,5.7,1.94,8.65,1.24,2.18,8.87-.42,5.15-7.42,1.15-.24,2.26-.48,2.75-1.36"/>
    <path d="M4.31,230.1c1.35-.63,3.17-1.83,3.75-2.92"/>
    <path d="M9.1,235.01c6.09-2.8,6.84-6.76,7.55-8.09-.12-1.62-1.98-2.92-3.59-1.92"/>
    <path d="M14.8,237.67c3.92-3.99,3.92-5.85,4.81-7.29,1.05-1.69-1.25-4.35-2.96-3.47"/>
    <path d="M19.61,230.38c1.75-1.08,4.09,.49,3.1,2.43-.73,1.57-1.27,3.6-2.88,5.02"/>
    <path d="M1.9,223.85c1.14-1.3,2.6-2.59,4.03-2.9"/>
    <path d="M139.38,201.1c2.22,1.39,4.2,.81,6.97,3.71"/>
    <path d="M139.86,212.87c-3.93,2.32-7.28,3.18-9.36,4.21"/>
    <path d="M115.12,213.09c1.19-.48,2.44-.63,3.77-.34,4.76-2.36,8.19-1.36,14.59-5.16-3.84,3.3-7.68,4.08-11.53,6.73-2.69,.12-4.63,1.86-5.39,4.06"/>
    <path d="M121.95,210.14c.91-.16,4.02-.15,5.01,.22"/>
    <path d="M277.65,274.05c-1.24,5.2,1.1,7.05,1.38,10.29"/>
    <path d="M286.02,285.85c.06,1.48-.25,5.06-.89,6.35"/>
    <path d="M291.94,284.74c-.06,2.4-.25,4.75-.89,6.26"/>
    <path d="M295.64,283.17c.02,.83-.18,2.74-.34,3.82"/>
    <path d="M164.26,155.08c-1.46-.45-2.45-.54-3.37-.78"/>
    <path d="M163.25,161.19c-1.12,0-3.85-.64-3.85-.64"/>
  </g>
  <g class="skinFoldLine">
    <path d="M119.98,54.65c.46-11.73-13.77-5.77-7.69,5.75"/>
    <path d="M119.78,57.79c-3.99-.22,.18,4.88-2.29,5.42-1.4,.3-.27-2.56-2.75-4.89-3.37-3.17,1.56-6.56,2.61-4.11"/>
  </g>
  <path class="skinEdgeLine" d="M297.68,279.92c-2.63,0-2.37,1.77-4.92,2.02-1.73,.16-2.63,1.5-4.77,1.2-3.33-.46-3.05,.56-4.77,.37"/>
  <path class="skinCreaseLine" d="M13.3,220.86c3.29,2.3,7.51,4.5,11.78,1.16"/>
  <path class="lipMaleMedium__noStroke" d="M152.02,87.43c1.61,1.08,3.4,.97,4.68,.64,.38,1.02,1.52,.73,2.16,1.51-1.2,.63-1.77,4.03-7.22,3.41-6.31-.72-5.86-4.95-7.2-6.01,2.01-.53,4.63,1.72,7.58,.46Z"/>
  <path class="lipFemaleBrown__noStroke" d="M226.12,101.4c1.32,1.48-1.67,4.97,4.09,6.34,5.55,1.33,6.24-2.18,8.26-3.64-8.08-2.94-9.37-2.15-12.35-2.7Z"/>
  <path class="lipFemaleBrown" d="M225.32,101.18c2.56,.17-.58-3.05,1.56-2.32,3.85,1.31,5.14,.38,6.98,1.72,2.18,1.58,3.58,3.18,6.33,3.69-.8,.21-2.52-.36-3.07-.65l-9.34-2.09c-.84,.17-1.62-.11-2.46-.34Z"/>
  <path class="teeth" d="M227.78,101.52c.37-.16,.68-.34,1-.63,2.57,.81,3.71,.1,5.18,1.06,.98,.64,1.61,.95,3.04,1.62-4.64,1.67-8.72,.73-9.22-2.05Z"/>
  <path class="lipBorderLine" d="M143.68,86.99c1.75-.26,2.55,.57,3.17,.86,3.62,1.69,4.08,.53,5.21,1.33,1.17,.84,2.16,.74,3.21,.28,1.11,.68,2.72-.48,4.15,.38"/>
  <g class="lipEdgeLine">
    <path d="M152.02,87.43c1.61,1.08,3.4,.97,4.68,.64"/>
    <path d="M147.47,91.3c2.4,1.96,6.06,2.12,8.03,1.32"/>
    <path d="M226.5,105.02c-.09,2.27,5.9,3.88,8.69,2.4"/>
    <path d="M228.91,100.91c-.65-.19-1.22-.49-1.5-.75"/>
  </g>
  <g class="cheekLine">
    <path d="M162.35,83.45c.31,.9,.22,1.98,.02,2.76"/>
    <path d="M151.57,77.01c-1.81,.5-4.99,4.03-8.65,5.97"/>
    <path d="M226.06,94.13c-.8,.89-.92,1.68-1.34,3.19"/>
    <path d="M238.48,93.52c.94,.84,.44,1.87,2.18,4.39,1.6,2.32,1.87,4,1.89,6.17"/>
  </g>
  <g class="noseLine">
    <path d="M163.3,74.68c-.45,4.35,2.46,6.75-1.17,8.91"/>
    <path d="M151.57,77.01c-1.22,.46-2.04,2.82-.57,3.99"/>
    <path d="M152.52,80.9c2.18,.56,2.96,2.54,5.07,3.05,3.06,.75,4.04-.49,4.63-.95"/>
    <path d="M236.94,97.32c2.13-.32,2.35-2.73,1.54-3.8"/>
    <path d="M232.17,82.63c-3.58,5.77-6.68,8.75-6.12,11.5,.43,2.1,3.24,3.29,4.96,2.5s3.36-1.02,4.26,.07"/>
  </g>
  <path class="eyeLidLine" d="M174.98,65.3c-.09,1,.42,2.7-1.78,2.99"/>
  <g class="eyeFoldLine">
    <path d="M171.76,72.01c-1.4,.77-3.92-.05-4.95-1.61"/>
    <path d="M152.13,66.39c-2.12,1.33-6.16,0-7.59-1.96"/>
    <path d="M223.49,79.55c.97,1.41,3.79,2.54,5.75,1.94"/>
    <path d="M241.42,83.82c1.74,1.41,4.82,2,7.29,1.23"/>
  </g>
  <g class="eyeCornerLine">
    <path d="M140.54,61.2c.88,0,1.51-.18,2.54-.43"/>
    <path d="M173.44,66.64c.32,.34,.44,.6,.53,.79"/>
    <path d="M172.46,69.94c.3-.14,.59-.25,.83-.28"/>
    <path d="M254.08,83.84c-1.24,.2-2.78-.52-3.51-1.27"/>
  </g>
  <g class="eyeCreaseLine">
    <path d="M144.91,58.38c1.9-.35,8.14-1.14,10.21,2.39"/>
    <path d="M231.36,76.98c-2.35-3.9-5.81-2.62-7.1-1.16"/>
    <path d="M251.66,81.9c-2.56-3.41-6.46-6.05-10.34-3.17"/>
  </g>
  <g class="eyebrowBlack">
    <path d="M159.88,54.36c-4.59,3.65-11.14-3.23-18.77-.1,6.85-5.85,11.29-.64,18.77,.1Z"/>
    <path d="M178.17,61.24c-3.11-3.79-6.82-2.6-10.05-4.8,1.42,4.24,5.48,2.97,9.46,6.46,.23-.58,.42-1.14,.58-1.66Z"/>
    <path d="M232.92,69.73c-2.3,.04-4.37-.68-7.31,.09,.02,.29,.04,.57,.07,.87,1.44-.05,2.98,.18,4.73,.72,2.05,.64,4.14-1.7,2.51-1.68Z"/>
    <path d="M255.4,78.65c-4.31-6.37-11.22-6.16-14.38-7.57-.81-.36-.67,2.39,1.75,2.67,5.12,.59,7.59,.59,12.64,4.9Z"/>
  </g>
  <g class="hairBlack">
    <path d="M152.76,39.93c-2.51,12.17,9.42,11.51,13.13,17.08,.03-1.6-.85-3.51-1.74-5.41,3.54,5.49,15.06,4.31,17.03,11.34,3.17-4.06,8-15.94,5.36-22.14,1.02,1.26,2.19,2.05,4.33,2.5-6.01-8.13-7.35-27.18-31.71-34.48-8.58-2.57-17.62-2.73-24.03-.34,.96-4.21,3.68-6.86,7.13-8.16-5.59,.24-9.82,4.45-10.82,8.79-.55-2.88-5.25-4.8-9-2.36,4.01-.18,6.43,.82,5.95,4.37-17.52,7.47-19.45,33.96-17.67,38.15,2.63-5.65,12.79-3.82,11.18,3.31,1.34,.78,4.23,1.39,6.2,1.81,1.52-4.23,.39-5.86,3.65-7.11,2.23,.83,8.28,3.1,12.9,.32-1.3,2.07-1.19,1.87-2.59,3.8,2.66-.7,8.42-1.94,10.7-11.46Z"/>
    <path d="M259.55,77.44c1.49,6.07,1.07,19.6-1.72,26.12-1.7,3.98,1.14,5.76,3.43,2.17-3.21,11.87-9.65,17.62-12.04,21.24-3.57,5.42,8.13,6.97,20.24,.48-2.79,5.8,5.82,3.26,14.37-3.54-2.4,4.75,4.24,6.33,13.42-7.83,7.57-11.67,2.53-22.01,2.21-32.96-.59-20.31-4.89-19.37-9.12-26.54-5-8.48-20.32-20.04-30.14-14.27-3.66-6.57-20.05-2.91-26.04,3.64-5.97,6.52-13.64,13.1-8.47,24.91,.18-1.04,1.19-2,2.11-3.3,4.73-.97,6.14-5.14,7.86-9.58-2.88,10.04,11.3,17.06,8.86,9.88,3.18,5.17,12.84,9.99,9.43,4.22,1.91,2.44,3.24,3.82,5.59,5.34Z"/>
  </g>
  <g class="hairOverlapLine">
    <path d="M131.74,47.27c-1.61-.55-3.23-1.44-4.83-1.32,1.86-.94,4.08-1.33,5.73-1.6"/>
    <path d="M227.81,67.59c-1.6,.27-2.1-1.22-.71-2.81"/>
    <path d="M259.55,77.44c7.69,4.09,8,1.91,6.39-.16"/>
  </g>
</svg>