<svg viewBox="0 0 184.91 457.88">
  <circle class="hairBlackDark" cx="39.92" cy="163.37" r="15.22"/>
  <g class="eye">
    <g class="sclera">
      <circle cx="114.29" cy="64.62" r="6.37"/>
      <circle cx="72.32" cy="129.33" r="6.82"/>
    </g>
    <g class="irisDarkBrown">
      <path d="M112.79,69.56c-.34,.18-1.89-.74-2.8-2.43s-.83-3.49-.49-3.67c1.46,1.84,2.56,3.87,3.29,6.1Z"/>
      <path d="M76.97,130.09c.32-.18,.38-1.91-.51-3.52-.89-1.61-2.39-2.48-2.71-2.3,.73,2.13,1.81,4.07,3.23,5.82Z"/>
    </g>
    <g class="pupil">
      <path d="M111.04,68.1c-.27,.15-.69-.31-1.05-.97s-.5-1.26-.23-1.41c.53,.74,.96,1.53,1.28,2.37Z"/>
      <path d="M76.7,127.92c.26-.14,.11-.72-.24-1.35s-.76-1.06-1.02-.92c.32,.81,.74,1.56,1.26,2.26Z"/>
    </g>
  </g>
  <g class="condom">
    <path class="condomRing" d="M113.67,252.26c.18,1.06,2.06,.9,1.88-.16-.51-3.39-.8-6.75-.87-10.18,0-1.15-1.89-.98-1.88,.16,.07,3.43,.36,6.79,.87,10.18Z"/>
    <path class="condomBag" d="M112.95,242.08c-20.89-1.88-19.99,1.66,.87,10.18h0c-.51-3.39-.8-6.75-.87-10.18Z"/>
  </g>
  <g class="skinEastAsian">
    <path d="M82.84,131.83c11.65,6.56,21.41,10.67,30.29,16.54,4.79-7.26,15.91-15.29,22.4-23.17l-6.64,36.3c-7.81,5.99-14.96,10.7-18.69,8.81-14.71-6.18-21.56-17.32-30.94-26"/>
    <path d="M121.2,77.46c11.41,2.09,21.14,23.32,19.59,26.54-3.96,7.16-7.85,20.42-10.51,30.7-1.36,5.28-3.19,8.19-1.87,15.31,.85,4.59-5.18,30.27-6.79,46.16-1.46,14.39-3.28,17.3-6.94,45.75-.12,30.68,2.91,76.37,8.93,107.8l7.53,17.13c1.98,12.82,5.45,29.1,6.53,43.32l19.99,.06c1.77-24.44,6.53-47.35-.62-68.97-.8-2.42,6.23-71.11,7.33-72.76,19.02-28.52,7.41-37.76,8.43-56.64,.83-15.25,28.32-73.94-3.32-119.07-3.5-5-12.49-16.92-.82-35.47"/>
    <path class="sockWhite" d="M158.35,409.14c-4.96-1.46-17.91-.64-21.39-.15-.35,4.84,2.41,12.09-1.39,20.84-2.4,5.52-7.65,6.84-13.45,11.48-4.01,3.21-9.4,5.11-14.49,6.38-7.33,1.83-7.05,10.44,1.62,9.62,4.77-.45,11.02,1.16,17.86-.35,11.62-2.56,28.1,1.55,31.46-2.51,3.89-4.7-.16-13.83-.74-21.72-.89-12.28,.7-16.58,.52-23.59Z"/>
  </g>
  <path class="nippleEastAsian" d="M128.56,141.9c-.09-.01-.17-.02-.26-.03-.16,.84-.28,1.71-.32,2.65,.05,.01,.1,.02,.16,.03,1.28,.2,2.41-.22,2.52-.95,.12-.73-.82-1.49-2.1-1.69Z"/>
  <path class="sockWhite" d="M132.86,422.91c-.22,1.96-.71,4-1.62,6.09-2.4,5.52-6.97,6.94-12.86,11.47-4.5,3.46-7.41,4.74-12.5,6.01,0,9.19,40.12-10.44,26.99-23.57Z"/>
  <g class="teeth">
    <path d="M116.58,89.88c3.63-1.65,5.13,1.66,1.51,3.31-.65-1.08-1.15-2.19-1.51-3.31Z"/>
    <path d="M85.1,150.23c.32,.73,.74,2.6,.53,2.94-.69,.67-3.28,1.31-4.51,1.45-2.25-3.6,2.44-4.96,3.98-4.39Z"/>
  </g>
  <g class="skinIndian">
    <path d="M180.91,445.61c1.14-2.13-.65-3.57-2.84-4.61-5.77-2.74-12.75-10.07-20.5-16.61-.04,2.35,.03,5.06,.26,8.34,.5,6.88,3.64,14.69,1.87,19.7,4.19,3.4,11.85,6.77,15.38,1.78,2.21,.18,3.72-.98,3.38-2.99,1.32,.06,2.3-1.18,2.07-2.38,1.2-.67,1.38-2.45,.38-3.22Z"/>
    <path d="M133.32,424.3c.82,2.5-.98,6.05-.47,9.43,1.1-1.07,2.03-2.31,2.72-3.89,3.8-8.75,1.04-16,1.39-20.84,.18-.03,.38-.05,.61-.08-1.19-13.92-4.52-29.62-6.43-42.07-4.14-9.42-7.38-16.85-9.07-20.62l-72.52-7.41c17.46,10.32,35.22,22.59,52.88,25.94-1.02,19.42,25.94,42.83,30.91,59.55Z"/>
    <path d="M74.7,159.58c-6.18,3.94-5.1,10.75-3.38,16.32,2.25,7.3,6.44,6.42,10.99,14.11,2.85,4.81,13.47-3.73,21.87,9.31,7.8,12.11-.72,28.35-16.87,34.09,1.21,23.46-1.7,50.47-11.06,60.6,19.78,11.96,38.49,27.67,52.93,43.46,3.48,3.8,4.53,8.99,1.15,16.99-10.46,23.97-38.19,54.55-40.17,64.66-1.05,5.37,3.03,11.64,5.69,18.85,3.27,8.87,8.83,6.65,11.78,9.72l-3.13,8.84c-5.43,2.05-6.76-2.49-9.09-2.39-6.88,.3-13.79-10.53-23.67-15.87-5.91-3.19-10.34-6.31-11.58-10.73,.16-9.22,10.35-9.25,17.11-23.85,9.17-19.8,10.4-39.98,20.04-51.17-18.38-1.73-38.49-10.44-61.32-16.38-27.21-7.08-36.48-33.76-14.79-61.51,14.16-18.11-.3-61.13,21.2-97.74,.89-.91,.08-6.75-1.57-13.16-1.56-6.06-6.65-11.91-14.25-14.59"/>
    <path d="M80.28,243.32c-7.31,8.75-2.1,20.34,4.56,13.85l-4.56-13.85Z"/>
    <path d="M83.9,242.39c-6.83,4.26-2.18,24.28,7.65,16.36l-7.65-16.36Z"/>
    <path d="M88.26,243.78c-6.5,3.51-.85,21.73,9.22,14.97l-9.22-14.97Z"/>
    <path d="M69.78,204.6c-6.68,12.55-10.14,26.06-15.05,33.31,10.09-.09,15.62,2.85,32.94,.66,4.13-.52,6.69-1.38,12.08-1.59,3-.12,5.54,1.3,7.81,.92,1.69-.28,2.29,.74,5.09-.35,3.67,.26,.86,6.55-5.48,5.38,3.41,3.24,6.57,9.05,9.91,11.86-.06,4.05,.22,8.06,.29,12.06-1.24,.23-4.34-.22-4.34-.35s-6.91,3.74-10.5-2.02c0,4.04-2.98,4.93-5.46,3.56-3.31-1.83-1.68-5.88-3.39-8.58-1.9-2.84-5.36-4.17-5.85-8.43-12.36,1.48-26.02,8.75-44.41,7.34-7.9-.61-11.17-5.19-11.8-7.09-2.68-8.03,6.94-28.8,14.23-54.81"/>
    <path d="M49.26,153.78c-4.77,5.48-7.78,.49-10-.44-16.41-8.07-2.79-24.91,3.52-14.64,6.01,1.91,10.41,1.77,9.1-1.62-1.96-5.05-.6-5.97,.57-9.16,5.92-1.99,8.53-4.13,11.54-8.84-2.41,9.6,7.94,.74,6.68-11.41,1.06,4.68,4.08,8.7,6.11,9.51,3.68,7.44,.57,9.33,5.28,13.3,5.36,4.53,12.2,11.25,7.03,13.13-1.39,.5-2.73-.49-4.57,.94,.66,1.44,1.74,1.19,2.71,2.24,.58,2.22-.18,3.07-2.13,3.43-1.43,.27-2.76,1.58-4.02,1.94-.05,1.04-.02,2.09,.11,3.14,6.62,.24,8.83,1.72,6.49,4.19-2.51,3.85,1.66,4.05-.22,7.72-2.32,4.54-8.27,2.03-11.31,1.8-9.11-.7-16.11-1.66-21.95-7.38m21.77-35.81c-2.29,1.35-3.5,3.52-4.38,4.63,2.14-.42,4.22-.18,5.62-.15,.19-.63-.26-3.44-1.24-4.48Z"/>
  </g>
  <g class="lipFemaleBrown">
    <path d="M81.12,151.57c-.01,.2-.02,.41-.03,.61,1.25-.36,2.58-1.68,4.02-1.94,1.95-.36,2.71-1.22,2.13-3.43-1.82,2.03-4.15,3.3-6.11,4.77Z"/>
    <path d="M81.2,155.32c1.41,1.69,4.23,3.34,6.49,4.19,2.34-2.47,.13-3.95-6.49-4.19Z"/>
  </g>
  <g class="skinEastAsian">
    <path d="M144.69,126.28c3.95,7.78,2.46,29.42,6.2,47.61-7.77,1.89-23.47,17.1-40.95,22.06-4.76,1.91-10.25,1.23-14.93,6.33-2.47,2.69-6.13,3.53-7.97,6.82-1.54,2.77-4.45,3.91-3.76,4.91,2.15,3.53,6.9,1.69,9.2-1.46,0,0,3.83-3.6,4.14,.08,.19,5.34-.92,10.96-3.79,12.95-1.67,1.15-3.76,2.19-6.03,3.85-4.59,1.43-5.68,5.88-3.09,7.81,.99,.59,1.88-1.06,3-1.59,2.63,1.55,4.07,1.62,5.97,1.41,2.48-.28,6.03-1.37,8.23-2.53,2.44-1.29,3.25-5.75,5.15-7.41,3.31-2.88,4.22-13.79,8.32-18.05,9.55-8.66,42.47-6.37,56.34-22.74,3.84-4.53-.6-43.28-.47-61.08"/>
    <path d="M149.99,79.86c-.89,5.73-3.8,10.55-8.64,15.46-4.82,4.89-11.54,8.76-13.84,9.56-9.09,3.15-4.8-7.37-11.51-7.77-1.99-3.19,3.46-5.38,3.46-5.37-.44-.58-.87-1.18-1.28-1.8-3.15,.99-2.87,1.51-3.81,1.41-.89-.09-1.63-.56-2.32-1.96,.23-.97,.7-3.44,.27-5.15-1.77-.12-6.87,4.51-7.47-1.46-.28-2.78,4.51-13.88,1.63-17.49-5.89-7.37-3.06-18.83-5.78-29.02,19.26-37.03,88.7,2.72,57.07,29.41-1.43,3.21-3.71,7.31-8,4.44m-39.26-2.2c1.51-.69,3.01-1.32,4.85-2.45-2.32-.54-4.33-1.44-6.07-1.66-.23,.97,.41,3.36,1.22,4.11Z"/>
  </g>
  <path class="sockWhite" d="M158.35,409.14c-4.96-1.46-17.91-.64-21.39-.15-.35,4.84,2.41,12.09-1.39,20.84-2.4,5.52-7.65,6.84-13.45,11.48-4.01,3.21-9.4,5.11-14.49,6.38-7.33,1.83-7.05,10.44,1.62,9.62,4.77-.45,11.02,1.16,17.86-.35,11.62-2.56,28.1,1.55,31.46-2.51,3.89-4.7-.16-13.83-.74-21.72-.89-12.28,.7-16.58,.52-23.59Z"/>
  <g class="lipMaleMedium__noStroke">
    <path d="M114.36,91.35c.94,.09,.66-.42,3.81-1.41-2.4,.07-3.96,1.06-6.13-.55,.69,1.4,1.43,1.87,2.32,1.96Z"/>
    <path d="M119.46,91.73s-5.45,2.18-3.46,5.37c2.04-1.77,1.74-3.39,3.46-5.37Z"/>
  </g>
  <path class="lipEdgeLine" d="M118.05,94.36c-.8,.96-1.15,1.98-2.05,2.74"/>
  <g class="cheekLine">
    <path d="M120.41,92.97c-.9-1.15-2.35-3.05-3.15-4.53"/>
    <path d="M81.59,157.45c-1.91-7.63,2.27-12.01-1.35-17.85"/>
  </g>
  <g class="noseLine">
    <path d="M108.96,84.75c2.18-.91,3.38-.24,4.9-.67,1.45-.41,1.7-2.41,.33-3.44"/>
    <path d="M86.78,142.55c-2.05,.65-2.54,2.34-5.01,2.31"/>
  </g>
  <g class="eyeLidLine">
    <path d="M109.27,63.8c-2.07-.45-1.28-2-1.28-2"/>
    <path d="M110.49,67.92c-1.12,.85,.04,1.91,1.2,2.29"/>
    <path d="M75.98,125.84c1.83-.91,.4-1.96-.76-2.32"/>
    <path d="M77.22,130.32c1.51-.06,2.61,2.13-.28,2.55"/>
  </g>
  <g class="eyeCornerLine">
    <path d="M115.34,65.47c.54,.06,1.01-.04,1.39-.04"/>
    <path d="M71.6,130.47c-.59,.41-2.22,1.47-2.59,1.5"/>
  </g>
  <path class="eyeCreaseLine" d="M71.74,128.49c1.23-1.88,2.64-3.55,4.83-4.18"/>
  <g class="eyebrowBlack">
    <path d="M105.26,58.55c4.1,2.9,6.2-.67,11.35,.45-4.3-3.5-6.75-.17-11.35-.45Z"/>
    <path d="M65.41,127.99c2.15-5.62,7.96-7.65,10.01-9.78,.46-.48,1.11,2.17-.54,2.8-4.06,1.54-7.65,3.87-9.46,6.98Z"/>
  </g>
  <g class="hairBlack">
    <path d="M37.02,152.46l.31-.2c-13.34-8.38-.6-23.41,5.44-13.57,6.01,1.91,10.41,1.77,9.1-1.62-1.96-5.05-.6-5.97,.57-9.16,5.92-1.99,8.53-4.13,11.54-8.84-2.41,9.6,7.94,.74,6.68-11.41,1.06,4.68,4.08,8.7,6.11,9.51,1.39,2.82,1.81,4.84,2.05,6.48,3.35-6.18,3.06-19.8-9.93-26.88-15.22-13.91-47.64-3.85-50.11,7.28-8.77-.31-9.55,10.42-13.1,14.74-4.36,5.32-6.89,11.88-4.56,24.12,1.31,6.88-3.58,20.02,3.87,31.48,4.31,6.63,12.88,17.26,12.4,9.27,9.55,7.35,18.53,7.22,14.96,2.44,16.79,9.51,21.13,5.26,15.87-.8-9.84-11.33-12.23-23.83-11.21-32.87Z"/>
    <path d="M97.83,39.49c-1.19,1.5-2.24,3.27-3.89,4.49,2.55-6.03-1.28-16.81,19.11-29.47,6.48-4.02,20.11-8.42,31-7.52-.83-2.46-3.03-5.57-7.46-6.71,5.01-.32,9.72,2.92,11.61,6.82,1.45-2.86,4.82-6.22,9.23-4.49-3.5,.75-5.81,2.7-6.4,5.41,22.3,6.09,36.77,37.6,15.06,60.34-3.18,.16-5.59-1.03-8.33-2.67,3.03-5.13,5.7-10.93,.99-15.84-4.46-4.65-13.18-2.7-11.63,4.87-2.66,1.3-6.87,2.76-9.28,3.06-2.09-4.91-1.2-4.05-6.49-7.26-5.68,.34-12.67,5.75-20.65,1.86,1.2,1.23,3.38,2.78,4.56,4.3-7.69-3.53-19.8-1.17-17.43-17.19Z"/>
  </g>
  <g class="hairOverlapLine">
    <path d="M131.35,50.52c1.43-.27,4.02-.21,5.6-.3-1.9-.73-3.29-1.2-5.15-2.01"/>
    <path d="M76.79,117.19c2.05,.16,2.55-1.16,1.98-3.14"/>
    <path d="M52.45,127.93c-4.15,1.49-4.35-.21-2.11-2.21"/>
  </g>
  <g class="skinDisplayLine">
    <path d="M167.37,451.21c1.13,0,2.65-1.33,3-1.12,.95,.55,1.76,.75,2.62,1.2,.92,.48-.99,2.46-3.32,2.05"/>
    <path d="M176.98,450.51c-.47,.47-1.05,.81-1.76,1.02"/>
    <path d="M179.22,448.09c-.29,.61-.75,.99-1.4,1.15"/>
  </g>
  <g class="skinOverlapLine">
    <path d="M175.81,442.21c2.31,1.64,3.6,1.24,5.1,3.4"/>
    <path d="M174.21,443.45c3.86,3.29,3.91,.84,6.31,5.38"/>
    <path d="M171.99,445.63c2.35,1.91,4.8,2.35,6.46,5.59"/>
    <path d="M167.99,447.62c3.33,3.64,8.39,2.35,7.08,6.58"/>
    <path d="M102.43,452.67c-.74-2.54-3.14-2.16-5.09-3.41"/>
    <path d="M103.32,450.39c-1.17-1.58-2.18-1-3.43-1.87"/>
    <path d="M104.86,448.9c-.75-.72-1.84-.64-2.8-1.13"/>
    <path d="M106.18,448.18c-.77-.78-1.52-.87-2.31-1.12"/>
    <path d="M76.25,294c-7.81-3.62-19.49-1.46-26.96,4.21"/>
    <path d="M54.73,237.91c-2.47-.14-4.74-.11-6.86,.04"/>
    <path d="M86.7,235.64c2.87-1.67,5.4-2,7.93-3.55,4.55-2.78,4.5-3.8,7.08-6.94"/>
    <path d="M97.31,352.52c3.78-4.24,8.68-6.38,12.68-6.43"/>
    <path d="M109.19,255.87c2.61,2.29,4.12,5.42,8.06,6.99"/>
    <path d="M104.94,259.79c2.48,2.61,4.31,6.14,8.08,6.72"/>
    <path d="M102.52,264.48c-.65-1.1-1.24-1.69-2.09-2.28,.26,1.24,.32,2.22-.07,3.2"/>
    <path d="M107.16,242.94c-1.55-1.46-3.25-2.6-5.16-3.28"/>
    <path d="M100.43,262.21c-.72-.59-1.47-.78-2.09-.65"/>
    <path d="M117.08,252.55c0,55.28,12.23,78.81,12.1,84.92"/>
    <path d="M131.13,366.84c-.64-4.17-1.13-7.98-1.32-11.23"/>
  </g>
  <g class="skinFoldLine">
    <path d="M148.4,55.72c.23-10.98,16.52-5.07,8.27,6.73"/>
    <path d="M149.71,58.1c3.72,1.3-.1,6.23,2.08,6.31,1.37,.05-.12-2.01,2.65-3.82,3.82-2.49-.6-6.76-2.98-4.88"/>
    <path d="M41.38,141.46c-3.46-9.51-14.3,3.78-2.27,9.5"/>
    <path d="M43.38,144.16c-1.47,2.33,4.51,4.09,2.26,6.09-1.18,1.05-1.63-2.18-4.37-2.28-5.05-.18-4.39-7.3-.89-5.14"/>
  </g>
  <path class="skinEdgeLine" d="M109.26,251.36c-3.92,2.16-2.61,3.72-5.88,4.9-2.38,.86-1.74,2.05-4.13,2.75-1.95,.58-2.02,.9-2.87,1.3"/>
</svg>