<svg viewBox="0 0 444.42 177.54">
  <g class="hairBlack">
    <path d="M42.07,104.72c1-4.18-1.73-4.27-2.72-2.33-9.25,0-11,1.33-21.51,14.68-8.87,11.24-6.77,34.38,1.48,41.24.27,16.76,23.08,18.13,27.86,18.79,8.06,1.11,13.32-3,19.24-2.94,15.6.15,26.24-1,20.44-5.41C107.9,158.77,49.5,179.08,42.07,104.72Z"/>
    <path d="M95.3,58.4a7.49,7.49,0,0,0,4.57.66c6.66-16.3,2.9-30.52-4.81-40.71C85.19,5.3,68.2.43,50,8.7c-.43-2.85,1.13-5.44,3.56-7.93a11.35,11.35,0,0,0-6.86,9.11C43.91,7.36,40,8,38.93,11.28c2-1.85,3.66-1.81,5.12.27-28,16-18.22,33.81-21.22,40.65,1.94-1,2.9-3.14,3.8-4.24C27.25,55.66,76.61,71.71,95.3,58.4Z"/>
  </g>
  <g class="hairOverlapLine">
    <path d="M39.35,102.39a6.2,6.2,0,0,0-.49,1.27"/>
    <path d="M69.32,44.84a23.35,23.35,0,0,1,5.42-1,30.89,30.89,0,0,0-5.22-1.49"/>
    <path d="M29.18,48.13a18.68,18.68,0,0,1-2.07-5.8"/>
  </g>
  <g class="eye">
    <path class="sclera" d="M55.57,104.63c-7.5,42.87-13.17,42.53-6.48,0A6.75,6.75,0,0,1,55.57,104.63Z"/>
    <g class="irisDarkBrown">
      <ellipse cx="51.28" cy="106.46" rx="3.33" ry="2.6" transform="matrix(1, -0.02, 0.02, 1, -1.94, 0.96)"/>
      <ellipse cx="49.4" cy="123.06" rx="3.33" ry="2.78" transform="matrix(1, -0.02, 0.02, 1, -2.24, 0.92)"/>
    </g>
    <g class="pupil">
      <ellipse cx="51.28" cy="106.16" rx="1.29" ry="1.01" transform="matrix(1, -0.02, 0.02, 1, -1.93, 0.96)"/>
      <ellipse cx="49.39" cy="122.76" rx="1.29" ry="1.08" transform="translate(-2.24 0.92) rotate(-1.05)"/>
    </g>
  </g>
  <g class="skinEastAsian">
    <path d="M266.41,134.26c19.52,13.07,36.9,28.78,47.91,26.2,9.93-2.33,46.23-14.65,71.26-25.11-.23-11.52-3.76-19.28-12.47-21.18-19.58,1.46-43.26,1.34-57.09,14.94-17.35-15.84-32.44-31.5-41.12-47C261.37,58,242.1,46.63,215.06,62.72c-11.13,4.88-30.32,2.77-45.47-2-40.35,66.13-22.85,82.1,42,53.59Z"/>
    <path d="M96.46,83.87l7.48,26.28a159,159,0,0,1-18.17,17.29l-9.87-17.7C80,105.58,91.15,89.8,96.46,83.87Z"/>
  </g>
  <g class="skinIndian">
    <path d="M102.67,123.9c-3.33.76-11.75,3.58-19.12-.27L62.6,156.7C95.63,164.74,116.29,147.51,102.67,123.9Z"/>
    <path d="M173.57,68.76c-3.3,6.25-3.29,16.71-8,26.6-2.51,5.3-7.73,10.33-13.56,15.32,6.45-.58,15.24.64,17.93,5,14.59-1.19,29.71-5.15,41.66-1.43,20.89-15,42.22-26.93,63.94-34.21,6.72-2.26,13,.23,18.53,4.73,23.64,19.28,48.13,50.53,61.54,54.85,8.22,2.65,13.84,6.94,25.57,5.45,4.83-.61,8.87-2.63,10-1.83,3,2.13,2.29,6.33-1.35,7.52,2.63.85,4.1,3.07,1.14,4.9,1.06,1.28-.76,3.78-2.4,3.25.45,1.38-.94,3.12-2.26,2.88.45,1.68-1.75,4-5.39,2.85-2.62-.94-3.71.88-5.5,1.15-6.13,1-10.24-2.52-28.18-.24-11.46,1.45-10.19-7.7-11.86-12.15-6-16.07-39.15-20.26-53.31-37-8.27,14.82-17.74,23.36-26.58,35.52-12.07,16.59-37.46,15.62-52.62,11.11-14.21-4.23-40.71,6.14-77.18-1.92-23.61-5.3-33.73-20.5-23.71-39.3l54-64.2c-1.84-.54-2.06-1.95-1.74-3.29a3.57,3.57,0,0,1,4.57-2.71c2.17.6,7.67-5.39,11.37-3.13,2.41.82,4.82-1.51,6.74,2.62,1.46,2.78,4.07,1.7,4.49,5.3.56,3,3.94,1.16,4.24,4.88-.26,2-1.09,2.59-3.44,2.18Z"/>
    <path d="M215.06,62.72c15.12-9,27.8-9.4,38.41-3.79-2.53-3.69-2.1-5.79-7.17-8.63-4.25-2.38-5.22-1.48-7-1.94-2.33-1.88-6.6-1.27-8.78-1.51-9.47-1-12.63,3.87-19.72,9.85-4.25,3.63-8.42,5.81-13.94,8.78C203.61,65.61,210,65,215.06,62.72Z"/>
    <path d="M70.25,151.81c4.63,4.3-1.9,8.28-2.76,9.29L45.71,147.91c-1.35-4-4.76-9.35-8.57-13.28,7.21,4.31,1.07-7.95-8.07-11.1,4.94.37,15-10.4,7.19-7.21,3.11-2.4,5.16-8.72,5.81-11.6h0c2-1.72,4.33-1,5.57-1.29,3.07-.82,3.4-.5,3.93.35-1.46,0-2.8,1.79-1,5.93.57,1.34.56-.21.61-.42.71-2.77,2.18-5.24.84-5.5.72-1.57,1.42-.79,2.17-1A31.76,31.76,0,0,1,81,106c3.19,1.95,7.42,1,9,8.83,1.24,6.35-1.13,10.29-2.46,14.61-1,3.31-4.14,12.92-9.33,16.8m-28.35-27a8,8,0,0,0-2.1,4.76,9.34,9.34,0,0,0,2.2,6.31c-.73-2,.41-5.07.47-7.49.05-1.65-.13-2.34,0-3C50.48,119.42,50.41,118.58,49.84,119.27Z"/>
  </g>
  <g class="sockWhite">
    <path d="M378.32,117.92c-1.54.22-3.05.48-4.59.55a10.83,10.83,0,0,0-2.33-4.73c4-1,8,.14,14.07-4.38,7.09-5.31,14.38-15.41,19.27-12.07a12.6,12.6,0,0,1,4.51,5.26C406.88,114.38,397.51,120.3,378.32,117.92Z"/>
    <path d="M409.25,102.55c-4.68,1.67-10,5.89-15.61,10.23s-12.48,3.68-15.32,5.14a70.54,70.54,0,0,1,6.7,18.25c7.14-1.6,16.29-7.27,23.51-3.09,16.81,9.74,34.46,17,35.59,10.91.75-4-7.11-5.38-10.89-11.33-2.37-3.72-6.33-7.73-8.76-12.49C420,111.46,416.06,99.67,409.25,102.55Z"/>
  </g>
  <path class="lipFemaleBrown__noStroke" d="M73,108.79c2.45.76,6.54-.55,7.32,5.12.88,6.41-4.22,5.29-6.82,8.42C73.91,117.7,71.45,112.77,73,108.79Z"/>
  <path class="lipFemaleBrown" d="M72.83,109.16a2.31,2.31,0,0,0,.27-1.06c-1.15,2.5-3.83.06-3.38,2.54.74,4.12-.88,3.18-.47,4.59.65,2.25,4.33,4.15,3.75,7.82a1.51,1.51,0,0,0,.54-1.22Z"/>
  <g class="skinEastAsian">
    <path d="M156,57.69c-12.33-2.13-27.13-2.62-47.86,3-3,.58-9.05,2.18-9.81-1.51a6.59,6.59,0,0,1-3-.76c-16.8.31-23.09,32-23.09,32,6.25-2.66,20.53-1.61,25.42.89-2,10.43,2,17.74,4.38,30.62,1.38,7.54,0,13.23,3,23.34-11.32,1.19-21.14,8.18-39.17,8.09-1.14-.27-9.1-8.86-14.8-8.76-5.45-.22-7-1.44-10-1.2-2.6.21-4-.85-4.4-.48C35,144.48,36,147,40.7,148.49c-4.29-.1-8.74.73-12.52.64-5.93-.14-6.45,2.56-5,5-2.5.94-2.44,4.27.9,4.86a23,23,0,0,0,4.17.9c-.94,2.13.17,4.72,4.81,5-1.24,3.52,6.35,4.88,13.51,5.17,14.24.58,12-4,17.73-4,10.31-.64,29.43,2.7,46.19,1.09,5.6-.54,13.29-.35,15.2-9.24,2.17-10-1.8-30.71-1.88-52.46,6.27-3.28,11.6-9.35,18-17.41,7.45-9.37,17.05-13.42,19.09-24.23C158.46,61.37,158.11,58.49,156,57.69Z"/>
    <path d="M13.44,126.18c-2.24-.74-4.72,2.47-4.67,5.94-2.87,1-7.09.74-8,2.36-.92,2.09-.83,5.24,2.53,5.58-1.31.9-1.23,4.11-.3,4.87s2.49.72,4.46,1c-1.49,1.29-.93,5.49,2.28,5.35-1.35,2.9,1.31,5.07,5.47,3.1,1.85-.65,2-3.4.31-4,2.08-1.21,1.42-4.5-2.54-4.78A42.85,42.85,0,0,1,13.44,126.18Z"/>
    <path d="M89.75,63.53c4.9,1.27,4.8-2.78,5.55-5.13,1.46-6.66,3.36-9.18-.07-14.85-3.26-5.42-12.06-3.38-11,4a35.2,35.2,0,0,1-6.78,4c-2.26-4.83-2-4.27-8.13-6.76-4.84,1.15-12.15,5.23-18.09,4.7,1.24.91,3.61,1.07,4.85,2.14-7-.69-11.76,6.17-19.95.55a12.6,12.6,0,0,1,3.72,4.3c-4.2-3-8.1-2.84-10.67-8.4.17,1.18.32,2.31.47,3.35.65,4.4,2.75,4.34,3.63,6.94.62,1.81.14,3.45,3.28,6.41,1,.94-.23,3.27,1.53,4.5-.49,1.61,1.27,2,1.34,2.77.71,7.25,7.2,17.56,16.52,23.47.17,1.79,1.56,3,3.69,3,1.58,2.5,2.44,5.94,9.06,4.13,7.08-1.94,7.07-5,13-11.29,4.73-5,8.7-11.64,10-18.8"/>
  </g>
  <path class="lipMaleMedium__noStroke" d="M59.64,98.53c7.93-2.27,4.39-8,4.41-10.21-3.62-3.83-7.14-4.46-10.14-4.19a4.09,4.09,0,0,1-3.43,1.44c-1.87.48-.29,1.85,2.47,1C58.57,88.74,52.62,98.61,59.64,98.53Z"/>
  <g class="mouthInner">
    <path d="M72.06,110.34a4.11,4.11,0,0,1,1.9.57,2.89,2.89,0,0,1,.57,1,7.33,7.33,0,0,1,1.57-.66,6.07,6.07,0,0,0-3.27-2.06A2.17,2.17,0,0,1,72.06,110.34Z"/>
    <path d="M59.25,94.12c3.64-1.26,6-4.88,3.83-6.53-7.07-5.47-8-1.71-10.19-1C55.71,89.76,56.52,95.06,59.25,94.12Z"/>
  </g>
  <g class="tongue">
    <path d="M74.53,111.88c.71,1.92-.17,4.15-1.78,7.35a7.64,7.64,0,0,1,.79,2.6c1.54-3.49,3.45-4.31,3.4-7.84a4.18,4.18,0,0,0-.84-2.77A7.33,7.33,0,0,0,74.53,111.88Z"/>
    <path d="M58.89,85.06A9.47,9.47,0,0,0,60.8,93.4c2.69-1.58,4.1-4.4,2.28-5.81A17,17,0,0,0,58.89,85.06Z"/>
  </g>
  <g class="teeth">
    <path d="M71.37,111.49c.34,3.08-.72,2-.38,3.45a28.07,28.07,0,0,0,1.76,4.29c1.94-3.84,2.64-6.8,1.21-8.32a4.11,4.11,0,0,0-1.9-.57C71.64,110.58,71.26,110.57,71.37,111.49Z"/>
    <path d="M59.52,85.32c-3.94-1.82-4.9.7-6.63,1.27a10.11,10.11,0,0,1,.8,1A8.57,8.57,0,0,0,59.52,85.32Z"/>
  </g>
  <path class="lipOverlapLine" d="M49.42,84.62c.37,1.2-.12,1.63.62,2a3.22,3.22,0,0,0,2.85,0"/>
  <g class="lipEdgeLine">
    <path d="M78.75,110c2.74,2.34,2.14,6.6-.54,8.84"/>
    <path d="M53.91,84.13a4.09,4.09,0,0,1-3.43,1.44"/>
    <path d="M64.56,94.67a6.48,6.48,0,0,1-4.92,3.86"/>
    <path d="M55.82,94A11.56,11.56,0,0,0,56,95.57"/>
  </g>
  <g class="cheekLine">
    <path d="M65.25,108.47a8.37,8.37,0,0,1,2.33-.69"/>
    <path d="M61.87,119.11c1.83,2,4,1.64,6.36,3.68,2,1.71,3.75,3,5.92,3"/>
    <path d="M55.3,75.05c1.49-.25,4,2.56,6.43,4.75"/>
  </g>
  <g class="noseLine">
    <path d="M65.88,118.19c-.59,1.47-2.56,1.79-4,.92"/>
    <path d="M64.64,111.11c-.29,1.42-.71,3.42,1.35,4.68"/>
    <path d="M51.78,112.21c6.89-3.22,9.84-8.4,13.47-3.74a6.55,6.55,0,0,1,.83,4.34"/>
    <path d="M55.3,75.05c2.65,1.36,1.26,4.26-.69,4.68-2.48.54-3.27,3-6.56,3.46-3.86.5-2.48-4.58-3-9.85"/>
  </g>
  <g class="eyeFoldLine">
    <path d="M53.69,102.81c.88,1,.71,4.27-.28,5.78"/>
    <path d="M52,120.65a11.31,11.31,0,0,1,0,6.67"/>
    <path d="M39.26,71.72c.9.61,2.9-.25,3.67-1"/>
    <path d="M53.61,65.69c1.66.54,4.54-.46,6-2.3"/>
  </g>
  <g class="eyeLashLine">
    <path d="M38.09,69.33a9.73,9.73,0,0,1,5.11-1.82"/>
    <path d="M62.38,58.71c-4,3.66-8.57,1.75-11.55,5.19"/>
  </g>
  <path class="eyeCornerLine" d="M50.48,133.19a4.18,4.18,0,0,0-.54-2.85"/>
  <g class="eyeCreaseLine">
    <path d="M48.92,109.66c-1.3-2.65,0-6.84,1.85-6.58"/>
    <path d="M48.45,131.8c-1.37-3.47-4.67-7.87-.05-12.53"/>
  </g>
  <g class="eyebrowBlack">
    <path d="M42.23,109c-.83,1.41,2.49.77,2.69-1.37a9,9,0,0,1,1.39-4.11c-.36,0-.75,0-1.15,0C43.82,105.58,43.19,107.36,42.23,109Z"/>
    <path d="M44.79,133.52c-5.21-8.22-3.14-12.62-4-16.47-.18-.86,2.65.48,2.1,2.85C41.65,125.33,42.68,128.13,44.79,133.52Z"/>
    <path d="M45,56.76c5.83,3.42,10.39-3.4,16.67-2.25C56.28,50.8,51.8,56.28,45,56.76Z"/>
    <path d="M38.74,59.37a10.12,10.12,0,0,1-4.26,2.94,9.39,9.39,0,0,0,1.19,1.61C37.44,63.14,38.87,62.13,38.74,59.37Z"/>
  </g>
  <g class="skinDisplayLine">
    <path d="M391.05,143.84a3.81,3.81,0,0,1-1.81,3.68"/>
    <path d="M390.36,152.07a2.8,2.8,0,0,1-.8,1.66"/>
    <path d="M389.1,155.4A2.44,2.44,0,0,1,388,157"/>
    <path d="M386.78,158.53a2.28,2.28,0,0,1-1.13,1.45"/>
    <path d="M384.52,161.46a3.2,3.2,0,0,1-1.46,1.52"/>
  </g>
  <g class="skinOverlapLine">
    <path d="M125,98.06a21.74,21.74,0,0,0-1.23,7.28"/>
    <path d="M99.28,81.85c.06,3.54-1.13,6.48-1.65,9.42"/>
    <path d="M52.87,149.16c-4.17-1.92-8.92-.65-12.17-.67"/>
    <path d="M23.15,154.1c2.62,0,5.53,1.22,16.12.31"/>
    <path d="M28.22,159.86a28.24,28.24,0,0,0,11-.5"/>
    <path d="M33,164.82a24.53,24.53,0,0,0,7.29-.47"/>
    <path d="M3.28,140.06c3.9.48,3.53-4.13,1.72-5.11"/>
    <path d="M9.72,151.24a10.56,10.56,0,0,0,5.78-.93"/>
    <path d="M13,145.53c-2,.16-3.49.12-5.52.36,3.32-.3,2.51-5.26-1.09-5.7"/>
    <path d="M8.77,132.12a2.61,2.61,0,0,0,2.4,2"/>
    <path d="M6.14,138.61c1.3-.05,3,.34,4.76.26"/>
    <path d="M12,144.85a22.09,22.09,0,0,0-2.88.15"/>
    <path d="M239.3,48.36c3.1,2.8,7.15,3.22,8.81,8.31"/>
    <path d="M219.6,52.66c6.67-5.62,8.06-1.13,13.18-1.42,3.68,1.63-1,6.91-5.94,4.37l-3.19,2.8"/>
    <path d="M238.87,55.23c-1.51-.94-3-2.4-4.78-2.06"/>
    <path d="M226.84,55.61a8.37,8.37,0,0,1-1.61-.94"/>
    <path d="M383.21,149.45c4.29-.85,5.2.84,6.65,1.36"/>
    <path d="M382.77,152.55c3.32.76,5.85.39,8.23,3.16"/>
    <path d="M380.84,155.56c2.93.66,5.51-.05,7.76,3.4"/>
    <path d="M378.09,159c3,.77,6.06-.45,8.25,2.86"/>
    <path d="M170,115.73c0,1.21-1.15,2.59-3.47,4.14"/>
    <path d="M152,110.68c-10.44,7.74-16.52,15.2-26.59,23.87"/>
    <path d="M373.73,118.47c-13.58,1.15-28.52,1.2-38.61,5.7"/>
    <path d="M282.1,116.48a13.49,13.49,0,0,1-1.8-2.77"/>
  </g>
  <g class="skinFoldLine">
    <path d="M86.37,48.42c-.32-10,11.68-5.42,7.88,5.62"/>
    <path d="M87.78,51c3.09,1,.77,6.72,3,6.19,1.34-.32-.69-2.69,1.08-4.69,2.57-2.93-1.29-6.44-2.63-4.43"/>
  </g>
  <g class="skinEdgeLine">
    <path d="M31.24,155.94a5,5,0,0,0,0,3.3"/>
    <path d="M31.62,161.21a3.8,3.8,0,0,0,.13,2.54"/>
    <path d="M31.77,150.44a5.69,5.69,0,0,0-.16,3.34"/>
  </g>
  <path class="skinCreaseLine" d="M147.26,94.34c2.73.6,5.17,3.3,5.1,5.85"/>
</svg>
