<svg viewBox="0 0 315.84 288.59">
  <path class="hairBlackDark" d="M194.93,118.9c6.8-22.2,2.85-19.59-9.66,2.37C187.63,123.52,192.8,121.8,194.93,118.9Z"/>
  <g class="eye">
    <g class="sclera">
      <circle cx="172.78" cy="97.24" r="20.72"/>
      <path d="M112.4,53.51c1.8-9.72-37.3-16.94-39.1-7.23C71.61,55.46,110.71,62.68,112.4,53.51Z"/>
    </g>
    <g class="irisDarkBrown">
      <ellipse cx="105.19" cy="51.49" rx="3.43" ry="3.22" transform="translate(42.36 150.32) rotate(-83.64)"/>
      <ellipse cx="82.7" cy="47.82" rx="3.43" ry="3.22" transform="translate(26.01 124.71) rotate(-83.64)"/>
      <ellipse cx="180.86" cy="84.81" rx="3.03" ry="3.26" transform="translate(-12.63 35.15) rotate(-10.73)"/>
      <ellipse cx="156.56" cy="89.41" rx="3.03" ry="3.26" transform="matrix(0.98, -0.19, 0.19, 0.98, -13.91, 30.7)"/>
    </g>
    <g class="pupil">
      <ellipse cx="105.49" cy="51.6" rx="1.33" ry="1.25" transform="translate(42.52 150.71) rotate(-83.64)"/>
      <ellipse cx="83" cy="47.93" rx="1.33" ry="1.25" transform="translate(26.17 125.1) rotate(-83.64)"/>
      <ellipse cx="180.86" cy="84.81" rx="1.18" ry="1.27" transform="translate(-12.63 35.15) rotate(-10.73)"/>
      <ellipse cx="156.56" cy="89.41" rx="1.18" ry="1.27" transform="translate(-13.91 30.7) rotate(-10.73)"/>
    </g>
  </g>
  <g class="liz">
    <g class="sari">
      <path d="M280.7,279c5.45-.22,7.7-4.21,7.7-6.87,7.36-3.51,4.38-11.87-2.31-12.41a27,27,0,0,0-13.73-13.85,77.34,77.34,0,0,0-9.76-12.16c-.89-.83,2.18-5.26-4.86-5.31a92.74,92.74,0,0,0-9.23-9c-1.54-1.15-1.65-7.8-7.36-6.81-5.85-7.48-12-12.94-18.79-14.62.74,35.53-34.94,53.4-73,36a17,17,0,0,0,.22,7.91c-4.81.33-17.42,8.63-28.54,15.14C104.64,289.43,263.18,285.82,280.7,279Z"/>
      <path d="M215.33,183.59l10.72-40.07c-5.13-7.87-10.12-19-17.58-20.69-9.43-2.2-21.6,1.93-24.88,2.77l-32.43,5.92c-15,6.68-24.91,18.42-27.66,37.12l21.84,24.62C156.68,214.8,213.09,199.24,215.33,183.59Z"/>
    </g>
    <g class="sariTrim">
      <path d="M280.7,279c-7.77.31-7.84,1.65-15.11,1.15-9-.62-15.82,3.75-29.49.33-14.46-3.61-23.5,3.14-33.3-.44-17.12-6.24-26.45,1.9-38.24-2.52-9.86-3.7-16.67-3.35-21.51-1.7-3.4-4-6.4-9.72-11.08-11.3-4.49-1.52-7.76-4.48-10.89-7.47l-11.75,4.36c3.13,5.53,6,9.93,9.78,11.84-2.41-3.92-2.07-5.32.1-3.37,4,2.82,9.89,11.54,13.75,10.55,17.42-4.44,30,9.92,42.24,4.72,15.49-6.6,28.55,6.31,40.71,1.92C241.2,278,248.09,299.81,280.7,279Z"/>
      <path d="M145.34,193.26c1.71,29.93,81.08,7.34,70-9.67C213.09,199.24,156.68,214.8,145.34,193.26Z"/>
      <path d="M212,156.48c-.73-1.1-1.75-2.57-2.84-4.26.22-4.7,12.83-11,16.94-8.7a16,16,0,0,1,2.87,4.34C230.13,150.24,213.16,158.87,212,156.48Z"/>
      <path d="M146.87,169.39a14.56,14.56,0,0,1-.06,5.44c-.05,2.36-23.43,1.86-23.38-.5a19,19,0,0,1,.07-5.69C124.79,166,144.16,166.17,146.87,169.39Z"/>
    </g>
    <g class="clothingGold">
      <path d="M219.18,195.32c3.55,0,7.71,4.78,4.38,6.64,4.37,1.56,5,8.61.8,8.5,4.54,3.08,3.2,10-1.2,10.62,4.18,5.45.17,11.1-5.31,10,3,7.05-6.41,14-13.68,8.23.52,6.79-8.07,11.1-12.51,5-.26,6.94-11.92,8.42-13.25,1.72-3.42,4.63-11.36,3.59-12.35-2.92-3.92,3.91-10.67.57-10.49-4.51-4.64,4-10.58-3.54-6.15-8.12C176.4,250.15,221.87,227.1,219.18,195.32Z"/>
      <path d="M186.83,146.59c4.83,9.76-11.49,16.93-16.11,5.4-24.12-2.1-28.73-26.64-5.45-29.89C182.21,119.74,198.52,131,186.83,146.59Z"/>
    </g>
    <g class="skinIndian">
      <path d="M314.42,245.72a4.73,4.73,0,0,0,.26-5.9c-2.19-3.27-6.85-4.43-11.39-6.16-4.74-1.81-25.13-.65-31.8-2.36-4.11-1.05-7.09-.11-8.6,2.71a78.45,78.45,0,0,1,9.47,11.88,26.35,26.35,0,0,1,9,6.49c6.7,1.32,13.33,2.34,17.84,4.14a6.11,6.11,0,0,0,6.07-.91c3,.53,5.29-.06,5.48-1.87,1.9-.6,2.12-1.79,1.61-3C315.86,250.12,316.28,247.24,314.42,245.72Z"/>
      <path d="M184.78,126c6.33,4.37,8.65,11.8,2.05,20.59,4.83,9.76-11.49,16.93-16.11,5.4-11.91-1-19.06-7.54-20.45-14.26.56,14.78,18.42,32.49,40.77,40.51C198.78,152.58,195.63,130.33,184.78,126Z"/>
      <path d="M219.24,196.28A36,36,0,0,1,217,192.9c-.79-1.48-.23-3.25-.68-4.92-2.45,14.33-55.74,29.09-68.34,12.68,3.33,13,.29,19.9,1.82,30.09C176.53,249.74,221,227.42,219.24,196.28Z"/>
      <path d="M207,181.79c7.8,3.33,15.35,8.45,24,6.27,3.07-.77,9.92-3.18,10.36-8.57,1.12-13.41-6.78-21.75-12.79-31.48-5.12-1.79-16.4,3.74-16.66,8.47,1.77,3.45,4.45,7,4.76,12.9a12.66,12.66,0,0,1-6.27,1.15c-1.89-3.85-3.4-2.93-4.11-4.34-1.56-3.09-2.92-2.05-4-4.15-2-3.8-5.58-.82-7.23-1.36-1.15-.38-2.41-.9-4.18-1.58-3.8-1.44-5.54,2-6.47,3.53a8.91,8.91,0,0,0-1.46,4.64c-3.87-.42-2.72,4.67,1.7,8.48a10.43,10.43,0,0,0,11.68,5.15C198.52,180.23,201.18,185.5,207,181.79Z"/>
      <path d="M153.48,223.22c-.69,4.65-2.22,6.78,0,9.57,1.77,2.22,1.95,4.93,6.75,6.05,5.34,1.24,5.8,1.58,10.54-.84,2,.95,5-1.46,6.23-3.07,2.44-.52,3.54-2.18,4.55-3.9,3.07-2.79,3.29-4.93.93-6.95-.93-.79-3-2.52-5.41,0-2-4.52-5.32-6-7.41-5.87C159.05,214,154.76,202,146,196.52c-.59-.87,1.52-5.53.31-21.75-5-3-20.44-2.71-22.06-.47-.19,34.43-.19,40,20.6,45.38A24,24,0,0,1,153.48,223.22Z"/>
    </g>
    <g class="cymbal">
      <ellipse class="cymbalInner" cx="165.91" cy="224.84" rx="2.64" ry="10.54" transform="translate(-68.4 377.09) rotate(-86.59)"/>
      <ellipse class="cymbalCentre" cx="166.4" cy="225.52" rx="1.12" ry="3.82" transform="translate(-68.61 378.22) rotate(-86.59)"/>
      <g class="cymbalOuter">
        <path d="M192.49,181.85l-5.19-4.39c.9-2.93-5.76-5.78-7.28-3.32l-6.72-1c-.3.66,3.75,3.15,9,5.57S192.19,182.51,192.49,181.85Z"/>
        <path d="M162.49,227.15h0c.41,2.38,6.93,2.69,7.63.35h0A42.35,42.35,0,0,1,162.49,227.15Z"/>
      </g>
      <path class="cymbalBand" d="M181.23,161.72a1,1,0,0,0-1,.55,20.26,20.26,0,0,1,2.69,5A33.33,33.33,0,0,0,181.23,161.72Z"/>
    </g>
  </g>
  <g class="bennett">
    <path class="sockWhite" d="M64.87,237.18c17.28-6.9,22.85,26.63,35.94,28.54,4.94-1.56,7.93,1.62,6.62,5.76-2.78,8.83-14.62,14.86-21.49,14.53-8.78-.41-9.72-10.14-15.13-14.61-8.43,4.38-9.38,7.46-11.61,8.08-5.17,1.43-6.76-.65-11.26-.09C34.76,281,27,260,34,252.23c7.78-8.63,9.8,2.4,22.78,2.15A87.73,87.73,0,0,0,49.4,249Z"/>
    <path class="bennettKurta" d="M84.3,264.69c8.64-2,7.62,2.68,13.39-1.05,18.43,2.26,31.65-11,37-13.23,8.56-3.59,12.33-8.37,13.92-19.07,1.55-10.41-6-17.84-17.05-18.94C90.75,191.81,55,206,55,206c-6.9-7.36-11-3.38-14.85-5.9-4.51-2.92-7.48-2-11.4-3.31C19.81,193.78,7.15,201.6,8.15,213c.17,2-1.59,3.71,1.72,9.68.93,1.32-.66,5.83,6.63,6.36-.14,4.8,2.62,6.24,6.5,7.42C26.57,252,43.07,244.1,43.81,247.2s6.1,2,10.69,5.37l13.8-11.13a20.48,20.48,0,0,0,7.06,6.75,33.5,33.5,0,0,0,4-2.63C86.88,249.06,86.14,259.37,84.3,264.69Z"/>
    <g class="skinEastAsian">
      <path d="M48.6,139.42c-1.17,4.38-2.13,8.48-2.92,11.85A15.67,15.67,0,0,1,58.62,157c10.75-10.75,16-41.73,16-56.12C71.33,98,49.09,132.29,48.6,139.42Z"/>
      <path d="M79.39,82.48c3.62,3.11,3.76,9.88,3.11,19.23L59.44,150.77c-1.48,7.48-.53,11-1.72,18.69-1.31,8.47-1.31,23-1.1,34.71,14.19,8.26,51.66,9.43,71.34,3.6-2.21-5.05-.58-19.41-2.45-33.18-.5-35.4.79-76-12.78-73.67-1.61-5.82-.35-19.94,6.35-26.63"/>
    </g>
    <ellipse class="nippleEastAsian" cx="109.7" cy="145.8" rx="2.34" ry="1.34" transform="translate(-5.58 4.37) rotate(-2.23)"/>
    <g class="clothingGold">
      <path d="M55,206c3.64,2.55,4.94,5.25,7.24,7.82,6.2,3,13.09,8.41,19.48,15.8,3.4,3.93,8.79,2.8,13-2.3,6.09-7.32,17.5-14.15,25.33-14.28,5-.08,6.4-1.44,11.51-.68a29.91,29.91,0,0,1-3.58-4.63c-19.68,5.83-57.15,4.66-71.34-3.6A12.59,12.59,0,0,1,55,206Z"/>
      <path d="M75,118.19c2.16,8.48,9.16,18.28,17.59,19.7,8.71,1.11,16.66-8.42,21.81-19.44,1.09,3.38-8.77,22.49-21.43,21.44C84.12,139.15,73.07,125.24,75,118.19Z"/>
      <path d="M81.38,102.38c4.5,15.65,25.12,14.09,36.53-2.73,2.62.77,4.82,3.48,8,4.37-7.59,8.8-17.56,15.89-23.43,17.33-1,11-17.87,9.49-16.85-1.55-3-1.11-6.52-5-7.18-7.53Z"/>
    </g>
    <g class="sariTrim">
      <path d="M79.32,245.56c4.83,2,6.57,12.19,5,19.13l6.15-.29c3.4-10.76.1-19.82-6.88-23a48.67,48.67,0,0,1-4.25,4.16"/>
      <path d="M68.3,241.44c-.8-1.63-1.94-3.33-2.3-5.29-5.86,3.18-9.47,10.16-16.85,14,1.81.75,3.6,1.55,5.35,2.41C61.16,249.24,64.08,244.86,68.3,241.44Z"/>
      <path d="M120,129.18c-.54,3.11-1,6-1.35,8.33s20.11,8.94,22.25,4.08A35,35,0,0,0,143,134.7C139.31,127.86,126.07,124.11,120,129.18Z"/>
    </g>
    <g class="garland">
      <path d="M74.85,201.1c-.42-14.1.68-33.89.73-50.78.07-25.29,4-39.59,6.92-48.61.24-3.07.3-5.81.31-8.46a13.06,13.06,0,0,1-3.34-1.15c-13.37,8.93-13,57.55-12.89,83,.07,15.55-1.7,26.61.8,42.57a67.18,67.18,0,0,0,4.27,16.25c1.73,4.74,1.3,9.78,4.66,13.69a26.81,26.81,0,0,0,6.82-5.75c-1.94-3.22-1.83-6.43-3.51-11.07S75.52,223,74.85,201.1Z"/>
      <path d="M112.3,91.45c18.28-.67,6.72,36.87,6,49.08-3,52,3,66.5-11.85,83.78-8.9,1.71-6.53,10.23-16.28,11.6,3.31-15.35,19.62-15.77,18.69-53.52-2.6-35.93,9.81-82.43,3.86-81.47A27.82,27.82,0,0,1,112.3,91.45Z"/>
    </g>
    <g class="garlandFlower">
      <path d="M76.38,95.15a23.19,23.19,0,0,0-2.11,3.57,46.18,46.18,0,0,1,8.29,2c.1-1.41.16-2.67.2-4A40.74,40.74,0,0,0,76.38,95.15Z"/>
      <path d="M77.8,120.81c.22-1.31.44-2.56.68-3.76a35.34,35.34,0,0,0-9-1.32c-.21,1.24-.4,2.51-.58,3.8A44,44,0,0,1,77.8,120.81Z"/>
      <path d="M75.3,167.06l.09-3.79a35,35,0,0,0-8.83-.21v3.82A34,34,0,0,1,75.3,167.06Z"/>
      <path d="M74.81,187.12c0-1.26,0-2.53.07-3.82a42.76,42.76,0,0,0-8.41.08c0,1.31-.08,2.59-.13,3.85A54,54,0,0,1,74.81,187.12Z"/>
      <path d="M71.42,233.26A27,27,0,0,1,79.33,230c-.36-.94-.75-1.87-1.15-3a36.22,36.22,0,0,0-7.86,3.16C70.64,231.12,71,232.13,71.42,233.26Z"/>
      <path d="M99.21,229.42a16.29,16.29,0,0,1,1.93-2.39,15.71,15.71,0,0,0-5.15-2.5c-.63.84-1.25,1.67-1.83,2.52A18.05,18.05,0,0,1,99.21,229.42Z"/>
      <path d="M108.89,183.62c0,1.31,0,2.57,0,3.79a56.79,56.79,0,0,1,8.2.2c0-1.23,0-2.5.07-3.82A60.1,60.1,0,0,0,108.89,183.62Z"/>
      <path d="M121.46,120a30.15,30.15,0,0,0-8.29-1c-.13,1.07-.27,2.17-.42,3.31a30.09,30.09,0,0,1,8.23.86C121.14,122.16,121.31,121.09,121.46,120Z"/>
    </g>
    <g class="sash">
      <path d="M143.27,118.45c0-1.29.44-5.94-6.14-7.76-.46-2.93-2-4.34-4.65-4.08a5.23,5.23,0,0,0-4.36-2.66,14,14,0,0,1-5.91-2.33c1.14,7.81-.71,18.72-2.24,27.56,6.1-5.07,19.34-1.32,23,5.52,1.11-5.32,1.31-10.43,1.84-12.12C145.75,119.54,143.27,120.11,143.27,118.45Z"/>
      <path d="M57.72,169.46c.82-5.22.63-8.54.9-12.51-4.48-5.77-13.83-7.41-17.64-3.85a7,7,0,0,0-6.21,3.16c2,.72,5.16-.64,5.16-.64,8.5,3.89,10,21.29,16.69,28.89A126.48,126.48,0,0,1,57.72,169.46Z"/>
      <path d="M28.7,196.83c3.92,1.34,6.89.39,11.4,3.31,2.24,1.45,4.55.74,7.43,1.3-.19-10.45-.79-20.68-.7-28.37-6.64-1.32-11.3-3.83-16.84-4.59-.63,7.3-1,18.52-1.57,28.26C28.51,196.77,28.61,196.79,28.7,196.83Z"/>
    </g>
  </g>
  <g class="hairBlack">
    <path d="M160.38,123c-19.06-24.78-10.33-36.24,2.49-42.26,13.56-6.36,31.82-5.86,31.59,20.6,1.58,8.17.28,15.1-5.59,25-4,6.81,4.86,5.32,8.88-1.4-.55,6.06,8.2-.46,11-12.12,2.44,7.81,5.33-10.06-3.84-26-4.73-8.24-3.19-13.52-7.24-21.81-2.65-5.44-4.87-7.53-7.24-11-7.1-10.4-29.52-15.78-41.12-6.63-17.8-1.93-20.9,16.1-25.79,21.85-7.45,8.76-4.79,20.38-7.05,26-6.52,16.17,2.87,34.47,3.33,25,10.75,15.86,22.25,14,15.94,7.55,15.38,7.52,20.38,3.14,15.83.85C159.11,128.44,165.36,125.19,160.38,123Z"/>
    <path d="M73.76,37.25a12.88,12.88,0,0,1-3.64,1.57c6.27-5.93-4.07-6,7.49-19.15a19.19,19.19,0,0,1-4.69.39c7.39-3.61,5-9.89,20.93-14A4.46,4.46,0,0,0,88.79,4a4.79,4.79,0,0,1,7.13,1c.81-3.55,5.46-5.05,9.84-4.62-3.63.33-7.27,3.07-7.42,5.29,5.64-.48,23.17-.67,36.18,12.69C149.84,34,143.39,55.93,137,64.13,107.09,58.16,129.17,45.08,73.76,37.25Z"/>
  </g>
  <path class="skinEastAsian" d="M127.26,59.86c-1.61-.82-4.49-2-5.8-2.82,1.05-4.12,2.81-3.57-.27-10.8-6.74-3.5-7.13-6.69-10.69-10.27,1.07,1,1.76,3.46,1.84,5.51-8.13-7.09-13.31-1.74-20.6-8.56a11.16,11.16,0,0,1,2.77,5.59c-2.81-3.86-15.62-3.82-10.83-17-3.05,7.23-5.44,13.6-11,16.39-1.24,4.94.51,6.1-1.65,11-.6,1.36-7.07,20.45.22,32.49,3.1,5.11,4.36,10.15,11,11.76,5.25,1.27,8.33.37,15.17-.79,9.64-1.62,19.06-4.87,24.48-14.41a4.53,4.53,0,0,0,7,.19c2.21-2.93,7.66-4.32,8.15-14C137.21,59.2,130.42,55.54,127.26,59.86ZM84.19,48.61c-1.31-.43-4.43,1-8.49-1a4.18,4.18,0,0,1,.53-2.8c5.15-1.74,7.33,1.29,8.85,3.09C85.43,48.28,84.92,48.86,84.19,48.61ZM102,52c-1.32-.36-2.75-1.29-4.7-1.55-.55-.06-1.28-.08-.74-.85,2.12-1.53,3.7-2.58,6.38-2.16,3.32.41,4.93,2.8,6.31,4.54A11.45,11.45,0,0,1,102,52Z"/>
  <path class="lipMaleMedium__noStroke" d="M93.58,76.3c-3.23-2.09-4-5.27-6.23-6.38a5.29,5.29,0,0,1-5.1-.69c-2.06,1.24.2,3-2.86,5,1.1,2.46-.6,5.63,4.75,6.73C90.19,82.23,90.75,78.67,93.58,76.3Z"/>
  <g class="skinIndian">
    <path d="M183.12,111.52c-2.13,3-1,11.35.61,15.82,10.49,17.73-27.79,25.18-30.2,3.89,1.1-4.54.47-13.19-2.47-16.86"/>
    <path d="M142.85,109.41c-3.62,4.26-6.21-1.43-7.14-2.33-10.12-9.88-2.25-23,2.07-13.55,2.44,3.39,4.36,2.42,3.4-.56-1.28-4,.94-7.23,1.44-9.69,4-1.14,9.63-3.32,12.69-7-2.2,6.81,6.9,1.35,5.44-9,1.81,13.34,25.52,9.07,17.07,5.69a27.07,27.07,0,0,0,12.7.36c2.59,6.84,1.24,10.06,2.61,13.93,4.29,12.14,2.8,25.4-3.76,32.64-3.73,4.1-3.92,6.71-10.38,8.32-4.72,1.17-6.08-.13-9.92-.69C155.1,125.43,147.77,119.5,142.85,109.41Zm36.61-22.32c1-.09,2.19.46,4.17,0a8.79,8.79,0,0,0,5-2.81c-2-.94-2.94-2-5.8-1.47a7.5,7.5,0,0,0-5,4.11C177.49,87.8,179,87.12,179.46,87.09ZM165.28,89c-2.64-1.76-4.26-2.46-6.93-1.7-2.48.71-4.16,3-5.12,4a14.92,14.92,0,0,0,6.34.32c2.12-.4,3-1.37,4.26-1.74C164.25,89.68,166.14,89.55,165.28,89Z"/>
  </g>
  <path class="lipFemaleBrown__noStroke" d="M166.35,112.85c2.74,2.6,5.8,6.91,11.16,5.54s6.09-4.79,6.7-9Z"/>
  <path class="lipFemaleBrown" d="M185.45,108.77c-1.82.74-4-1.3-5.12-1.1-1.94.34-2.33,1.62-7,1.31-2.18-.15-2.75,2.37-7.49,3.92C172.72,112.29,182.66,110.41,185.45,108.77Z"/>
  <g class="mouthInner">
    <path d="M91,74.65c-3.13,1-7.17.56-9.59-1.44a3.56,3.56,0,0,1-.42.22c4.23,6.37,8.83,3,11.09,2A8.13,8.13,0,0,1,91,74.65Z"/>
    <path d="M183.05,109.35l-14.63,3h0a12.68,12.68,0,0,1-1.7.49c5.47,4.06,14.7,1.88,17.22-3.39A5.12,5.12,0,0,1,183.05,109.35Z"/>
  </g>
  <g class="teeth">
    <path d="M91,74.65c-1.25-1.15-2.07-2.52-2.94-2.82-1.09-.38-2.34,1.58-4.5-.21a8.51,8.51,0,0,1-2.15,1.59C83.83,75.21,87.87,75.64,91,74.65Z"/>
    <path d="M183.05,109.35c-1-.12-2-.51-2.91-.52-2.22,0-1.71,1.77-7.4,1.5-1.43-.06-2.09,1.16-4.32,2C173.34,115.37,180.92,113.13,183.05,109.35Z"/>
  </g>
  <g class="lipOverlapLine">
    <path d="M94.18,75.87a2.24,2.24,0,0,1-2.1-.39"/>
    <path d="M83.56,71.62a5.53,5.53,0,0,1-1.09-1"/>
    <path d="M81,73.43a2.39,2.39,0,0,1-2.36.26"/>
  </g>
  <g class="lipEdgeLine">
    <path d="M87.35,69.92a5.29,5.29,0,0,1-5.1-.69"/>
    <path d="M90.35,79.82c-4.4,3.21-11.92.3-10.21-3.74"/>
    <path d="M171,117.3c4,3.23,9.88.4,11.5-2.31"/>
  </g>
  <g class="cheekLine">
    <path d="M80.93,64.28a6.27,6.27,0,0,0-2.39,2.63"/>
    <path d="M94,62.89c1,.68,1.25,2,1.89,3,1.06,1.66,2.19,2.87,2.35,4.22"/>
    <path d="M181.19,99.3c3,1,1.66,4,4.7,5.51"/>
    <path d="M168.46,101.33c-2,1.77-1.43,3.47-2.94,5.64-1.83,2.64-3,3-3.12,5.86"/>
  </g>
  <g class="noseLine">
    <path d="M84.05,57.82c-1,2.83-5.67,3.71-2.31,7.61"/>
    <path d="M94,62.89c1,.63,1,4-.9,4.73"/>
    <path d="M91.4,66.3c-1.18-1.67-1.33-.56-3.89-.17"/>
    <path d="M81.79,64a2.45,2.45,0,0,0,2,1.69"/>
    <path d="M170.73,104.91c3-.38,3.63,1.82,6.28,1.28s2.5-2,3.58-2.72c.93-.6,2.71-2.5.14-4.59-1-.65-3-4-4.1-6.7"/>
    <path d="M168.46,101.33c-1.1,2.13-.79,5,3.53,4.28"/>
  </g>
  <path class="eyeLidLine" d="M75.7,47.57c-1.6-.52-1.85,1.58-1.85,1.58"/>
  <g class="eyeFoldLine">
    <path d="M77.21,50.57a8.27,8.27,0,0,0,5.64.52"/>
    <path d="M98.38,53.3c1.08,1,5,2.62,7.61,1.77"/>
    <path d="M188.25,87.59A8.92,8.92,0,0,1,180.53,89"/>
    <path d="M163.55,92.24c-1,1.3-5.32,2.62-7.91,1.37"/>
  </g>
  <g class="eyeCornerLine">
    <path d="M110.74,53.23A6.93,6.93,0,0,1,109.27,52"/>
    <path d="M76.23,44.77a9.41,9.41,0,0,0-1.31.65"/>
    <path d="M153.23,91.22a3.53,3.53,0,0,1-2.18.94"/>
    <path d="M190.25,84.57c-.73.3-.9,0-1.59-.24"/>
  </g>
  <g class="eyeCreaseLine">
    <path d="M84.46,45.36c-2.95-4.12-8.1-2.69-8.81-1.2"/>
    <path d="M177.9,84.5a7.7,7.7,0,0,1,10.45-2"/>
    <path d="M152.88,89.33C156.78,84.57,162,85,164.62,87"/>
  </g>
  <g class="eyebrowBlack">
    <path d="M96.3,38c2.62,5.52,11.84,1.77,18.67,8.41C111.1,37.37,103.36,40.26,96.3,38Z"/>
    <path d="M72.4,39.26c7.08-2.23,11.19,2,14.26-3.27-4.61,1.8-8.8-1-14,1.91C72.57,38.39,72.47,38.84,72.4,39.26Z"/>
    <path d="M149.62,85.38c3.79-4.43,11.87-6.93,15.92-5.69,1.1.34-1.21,2.21-2.47,2.1C157.54,81.35,153.64,82,149.62,85.38Z"/>
    <path d="M190.19,77.26c-5.16-2.9-11.88-1.33-14.51,1-.87.77,2.45,1.43,3.49.7C183.37,76,184.67,76.33,190.19,77.26Z"/>
  </g>
  <g class="hairOverlapLine">
    <path d="M121.19,46.24a17.71,17.71,0,0,1,6.15,4.45,13.91,13.91,0,0,0-1.5-4.46"/>
    <path d="M142.62,83.28c-3.3.8-3.81-1.1-1.49-2.29"/>
    <path d="M190.52,73.27c4.9-1,4.68-3,.72-3.19"/>
  </g>
  <g class="recorder">
    <path class="recorderBrass" d="M9,180.66a129.61,129.61,0,0,1,7.9-12.85c.11-.17-.64-.63-.75-.46a46.57,46.57,0,0,0-7.9,12.85Z"/>
    <path class="recorderPadding" d="M16.75,168.07c-.49.69-1,1.39-1.43,2.09l.67.46,1.42-2.1Z"/>
    <g class="recorderLight">
      <path d="M.34,192.18c-.49-.85,1.18-3.32,2.17-3.54,3.09-.68,5.48-1.92,9-6.06.44-.66,4.65,2.19,4.21,2.85-2.54,4.81-2.8,7.49-2.29,10.61.17,1-1.5,3.47-2.48,3.34"/>
      <path d="M13.74,176.11,12,175l-3.33,5.41,2.25,1.38A25,25,0,0,1,13.74,176.11Z"/>
      <path d="M84.28,88.42c.79-1.34-7.12-6.69-8-5.4l-1.34,2c1.61.81-.88,4.93-2.93,4.45l-52.5,79.64h0c1.62.17,5,2.41,5.72,3.86h0Z"/>
      <path d="M68.68,111l.09-.28h0c.48-.76-6.93-5.77-7.41-5h0l-.1.08-.14.11A23.9,23.9,0,0,0,52,119.77a24,24,0,0,1,7,4.74C64.17,120.64,66.81,117.1,68.68,111Z"/>
      <path d="M87.16,71.9c-.87.3-1.9,1-3.37-.11a15.53,15.53,0,0,0-6.29,9.09c2.3.14,7.33,3.54,8.3,5.62a7.82,7.82,0,0,0,3.43-2.86,21.34,21.34,0,0,1,.93-9.34A6.73,6.73,0,0,0,87.16,71.9Z"/>
    </g>
    <g class="recorderTrim">
      <path d="M59,124.51a24,24,0,0,0-7-4.74c-1.58-.57-2.66,1.06-1.44,2.19l.17-.26c.37-.59,7.32,4.12,6.95,4.71l-.17.25C59.06,127.34,60.09,125.74,59,124.51Z"/>
      <path d="M85.8,86.5c-1-2.08-6-5.48-8.3-5.62-1.68-.1-2.62,1.27-1.39,2.4l.17-.26c.88-1.3,8.88,4.12,8,5.42l-.17.25C85.64,89.37,86.5,88,85.8,86.5Z"/>
      <path d="M61.12,105.87l.24-.19h0c.48-.75,7.89,4.26,7.41,5h0l-.09.28c1.5.59,2.36-.88,1.41-2.18a19.84,19.84,0,0,0-7.46-5C61,103.33,60,104.75,61.12,105.87Z"/>
      <path d="M19,169.19c-1.51.52-8.55,11.63-8.14,12.95a2.06,2.06,0,0,0,.44.69l.22-.25c.44-.66,4.65,2.19,4.21,2.85-.06.1-.11.2-.16.3a2.05,2.05,0,0,0,.81.14c1.45-.12,9-11,9-12.36S20.4,168.7,19,169.19Z"/>
    </g>
    <g class="recorderDark">
      <ellipse cx="5.98" cy="195.28" rx="1.91" ry="6.76" transform="matrix(0.56, -0.83, 0.83, 0.56, -159.07, 90.75)"/>
      <path d="M76.83,90.51,79.21,87l-4.27-1.36c-1,1.86-2.06,3.38-2.93,3.87C71.72,91.33,75.63,92.14,76.83,90.51Z"/>
    </g>
    <g class="recorderInner">
      <ellipse cx="27.52" cy="160.38" rx="1.24" ry="0.66" transform="translate(-120.67 93.15) rotate(-55.86)"/>
      <ellipse cx="37.36" cy="145.44" rx="1.24" ry="0.66" transform="translate(-103.98 94.74) rotate(-55.86)"/>
      <ellipse cx="5.9" cy="195.41" rx="0.85" ry="3" transform="translate(-159.22 90.73) rotate(-55.9)"/>
      <path d="M74.94,85.64a.73.73,0,0,1,0-.58c.43-.65,3,.65,4.27,1.94Z"/>
    </g>
  </g>
  <g class="skinEastAsian">
    <path d="M44.47,145.35c2.89-1.11,6.55-.52,8.84-1.7-4.07-1.52-6.5-2.61-9.3-2.71-4.9,1.84-7.2-1.86-5.35-3,1.62-.18,3.4-1.94,6.16-2.08,5.28-.19,8.62,1.66,11.81,1.62-2.68-5-4.68-3.71-8.1-4.45-3.52,3.38-8.76.56-6.53-2.08,2.31-.14,4.12-2,6.94-2.55-2.4.14-3.61-2.41-2.31-3.24,2.68-.33,2.85-1.49,5.32-2.27,2-.65,7.35-.05,8.29.38,3.9,1.81,7,5.5,8.36,6.42,6.25,5,8.62,14.53,9.61,14.6,16.47,13.29,27.8,12.38,35.05,15.25a136.18,136.18,0,0,1,6.8-24.31c2.72-5.9,19-2.12,20.39,5.58-3.63,11-6.5,30.67-16.32,38.67-3.84,3.13-6.34,7.25-19,1.36-10.68-5-21.35-17.77-35.85-26.69-1-1-4,1.84-14.66-3.71-4.62-1.78-10-.68-13-.89l2.91-4.18"/>
    <path d="M30,153.19c1.36,3.25,6.4,2,5-5.18a26.07,26.07,0,0,0-.69-4.51c-.36-1.65-4.25-2.73-6,.49-.63,1.16-.38,4.44-1.23,5.08-2.7.37-2.29-5-3.34-5.94s-4.19-.74-4.66,1.33c-.45,1.92-.26,4,.85,7.76.23,1,.54,1.88-.05,2.47-.86-1.91-5.26-.43-4.51,2.54-2.85-1.14-4.67-.32-5.64,2.07-.53,1.31.31,2.54.23,4.71.32,2,4.82,1.54,5.11-1.88a12,12,0,0,0,5,6.15l.71-1.08c2.39,2.59,6.25-.73,3.35-5.09Z"/>
    <path d="M50.87,173.67c-9.52-1-15.27-4.73-22.36-5.4l4.31-6.2c-1.69-2.67,1.42-6.73,4.12-5.91l.65-.93a3.8,3.8,0,0,1,1.06.73c.42-.1.84-.22,1.28-.34C45.71,158.15,48.55,168,50.87,173.67Z"/>
  </g>
  <g class="clothesOverlapLine">
    <path d="M100.81,265.72c-2.66.95-6.33,3.77-7.65,6.11"/>
    <path d="M56.79,254.38c6.37.25,13.42-2.76,18.57-6.19"/>
    <path d="M84.3,264.69a115.32,115.32,0,0,0-13.49,6.71"/>
    <path d="M34.77,203c3.14,0,5.19,4.09,8.49,4,8.09-.1,7.35,7.44,9.92,8.36,8,2.85,3.78,9.95,8.62,12,3.76,1.6,5.22,4.46,4.2,8.71"/>
    <path d="M90.18,235.91c-4.86.42-5.46,1.89-6.61,5.49"/>
    <path d="M129.34,217.6c-15-4.34-15.19,5.22-22.88,6.71"/>
    <path d="M62.19,213.86c2.69,3.88,3,8,5,12.57"/>
    <path d="M97.69,263.64c2.45-4.65,6.63-7,12.14-5.18,6.19,2.06,10.22-.07,13.86-4.9,8.16,0,14.19-6.08,19.15-15.22"/>
    <path d="M16.5,229c.57-3.71-.8-6.86-2.77-9.85"/>
    <path d="M149.62,241.93c1.85,10.52,13.72,18.81,25.87,22.12"/>
    <path d="M206.91,146.49a11.4,11.4,0,0,0,2.2,5.73"/>
    <path d="M146.54,159.15a41,41,0,0,1,.33,10.24,30,30,0,0,0,6.66,7.9"/>
  </g>
  <g class="clothesFoldLine">
    <path d="M50.06,205.69a23.56,23.56,0,0,1,9.08,11.54"/>
    <path d="M47.36,212.57c-6.37-.53-11.84,2-16.45,7.48"/>
    <path d="M53.13,219.44c-7,1-19.76,18.53-31.05,11"/>
    <path d="M55.09,231.1C47,236.86,35.21,244,30.55,240.79c-2.27-1.55-3.44-3.8-7.55-4.33"/>
    <path d="M58.43,239.72c-4.54,3.06-9.69,8-11.41,3.19"/>
    <path d="M136.33,228.64q-5.22-7.86-19-6.87"/>
    <path d="M106.46,224.31s5.23-1.47,8.89.28"/>
    <path d="M129.83,239c-.91,5.42-2.67,10.43-6.14,14.61"/>
    <path d="M90.18,235.91c5.87-1,12.34-.4,15.11,4.15"/>
    <path d="M88.23,241.53c9.35-2.57,14.11,1.23,9.57,12.88"/>
    <path d="M104.55,229.75c3.31-2.95,9.45-1.72,14.11.36,5.89,2.64,6,20.6-7,23.2"/>
    <path d="M52.08,154.78a22.63,22.63,0,0,1,6.29,8.08"/>
    <path d="M56.33,165.28c-2.12-2.12-4.6-12-12.39-12.62"/>
    <path d="M41,153.1c11,.15,13,18.2,16.22,20.76"/>
    <path d="M46.06,158.91c4.49,5.19,7,16.88,10.71,21.37"/>
    <path d="M32.63,169c.15,7.65-.51,18-.51,28.62"/>
    <path d="M35.5,169.76c-.19,9.64,0,19.13.56,28.54"/>
    <path d="M39.37,171c-.36,6,.36,15.13.24,23.73"/>
    <path d="M43,180.85c.11,7.43-.24,14,0,20.23"/>
    <path d="M241.15,212.6a24,24,0,0,0-7.91,2.2"/>
    <path d="M257.74,228.42c-4,1.13-9.25,5.28-12.37,8.76"/>
    <path d="M257.12,233.55a47.53,47.53,0,0,0-13.5,10.51"/>
    <path d="M272.36,245.89c3.23,4.69,5.26,9.07,5.77,13.05"/>
    <path d="M286.09,259.74c.24,1.55-.58,3.24-3.33,5.2"/>
    <path d="M275,257.56c.75,10,12.26,7,13.4,14.59"/>
    <path d="M117.6,269.07c24.78-11.56,27.69,2.22,45.25-3.2s44.69,1.42,22.75,7.2c8,2.62,11.75.37,16.88,2.37-11.13-5.12,6.17-7.8,19.88-4.12,8.91,2.39,10.13-4.75,20.51-2.13,19.55,4.95,31.48-2.06,24.63-12.75"/>
    <path d="M276.84,269.84c5.21.82,6.91,5.79-1.94,5.27-5.28-.3-7.1,1.17-15.55,1.17-6.61,0-14.77-3.21-20.5.1"/>
    <path d="M209.18,274.63c5.17.55,7.88,2.06,4.29,3.95"/>
    <path d="M133,280.45c7.92-4.61,23.43-9.89,36-9.45"/>
    <path d="M186.19,269.46c-4,1.35-8.64,2.5-5.94,6.05"/>
    <path d="M132,258c4-2.75,4.07-5.72,7.45-10"/>
    <path d="M134.39,260.77c10.56-4.18,15.84,4.51,25.85,1.32"/>
    <path d="M147.26,244.16c1.21,9.79,6.78,14.38,2.31,13.64-5.94-1-7.81-5.06-4.51-9"/>
    <path d="M284.83,267.36c2.69-1.41,3.49-3.15,3.57-5"/>
    <path d="M214,185c-4.87,8.62-15.27,9.66-24.72,11.68-8.44,1.8-26.78,14.05-41.68-4.33"/>
    <path d="M148.22,175.66a31.25,31.25,0,0,0,7.13,5.5"/>
    <path d="M141.48,154.29a13.27,13.27,0,0,1,3.72,5.81"/>
    <path d="M140.94,149a32.92,32.92,0,0,1,5.6,10.2,69,69,0,0,0-2.58-13"/>
    <path d="M193.29,187.82c-4.72,1.08-9.85,2.88-14.25,3.48"/>
    <path d="M199.33,188.44c-5.27,1.08-11.07,2.94-15.33,3.87"/>
    <path d="M204.05,134.77a15.82,15.82,0,0,0,.62,5.66"/>
    <path d="M209.24,129.43a43.06,43.06,0,0,0-2.33,17.06,34,34,0,0,1,6-11.72"/>
  </g>
  <g class="skinDisplayLine">
    <path d="M309.47,244.22c.89.23,1.77,1,2.46.9,1-.12,1.95-2.45,1.62-3.84-.17-.51-1.88-1.28-2.84-1.46"/>
    <path d="M313.18,247.45a3.36,3.36,0,0,1-.5,2.41"/>
    <path d="M192.85,212c4.58.6-2.72,4.7-1.65,1.59"/>
    <path d="M88.66,193.87c1.41,3.86-3.44,4.88-1.77-1.34"/>
  </g>
  <g class="skinOverlapLine">
    <path d="M314.42,245.72a4.48,4.48,0,0,1-3.72.11c-1.41-.86-4.15-1.44-6.57-2.77"/>
    <path d="M312.32,250.71c-2.32.32-5-1.71-8.42-2.52"/>
    <path d="M310.71,253.74c-2.84.79-5.89-2.26-8.89-2.49"/>
    <path d="M305.23,255.61c-1.51-.08-2.83-1.14-4.16-1.14"/>
    <path d="M153.48,223.22c.62-6.41,8.57-8.46,12.85-5,.75.49,1.92.1,3.35.05"/>
    <path d="M155.38,228.64c2.79,5.67,5.94,3.58,9.69,5.19,3.45.16,3.39-3.54.84-4.73"/>
    <path d="M170.79,238c4.35-4.17.33-7.6-.68-10.5"/>
    <path d="M177,234.93c1.57-3-.86-5.43-2.69-8"/>
    <path d="M181.57,231c.2-1,.63-1.57-1.9-5-1.15-1.57-2.75-2.48-4.15-1.71"/>
    <path d="M202.52,169.45c-3,3-7.1,3.79-6.21,8.62a2.72,2.72,0,0,0,4.7-.14c.89-1.31,3-1.86,4.48-3.44"/>
    <path d="M198.31,165.66c-2.75,3-5.47,3.06-6.44,6.77-1.21,4.61.51,6.47,4.44,5.64"/>
    <path d="M192.8,163.52c-3.93,3.45-6.28,2.83-5.93,8.78.12,2,1.38,6.25,5.51,5.22"/>
    <path d="M183,167.27c0,3.35-.44,6.32,4.14,6.44"/>
    <path d="M38.65,156c3.15,2.11,3.61,10.28-3.41,11.46"/>
    <path d="M36.94,156.16c1.27.35,2.36,2.52,1,5.18"/>
    <path d="M32.82,162.07a3.88,3.88,0,0,0,3.77,2"/>
    <path d="M28.81,145A23.74,23.74,0,0,0,30,153.19"/>
    <path d="M15.38,157.23c2,5.88,4.2,8.76,5.42,10"/>
    <path d="M19.89,154.69c2.57,3.54,2.72,5.73,4.26,7.42"/>
    <path d="M24.66,148c.87,3.37,1.32,7.22-2.05,7.37-1.32.19-2.05-2.1-2.67-3.18"/>
    <path d="M48.94,128.38a10.61,10.61,0,0,1,6-.48c4.09.83,5,3,7,4.34"/>
  </g>
  <g class="skinFoldLine">
    <path d="M15.08,162.13a4,4,0,0,0-.23-2.1"/>
    <path d="M113.26,159.52a16.17,16.17,0,0,1,7.89,6.63"/>
    <path d="M216.71,169.38c3.11-1.57,6.88-3.54,13.41-1.55"/>
    <path d="M146,196.52a16.35,16.35,0,0,0-9.69.5"/>
    <path d="M166.33,218.2a5.52,5.52,0,0,1,1.79,2.78"/>
    <path d="M164.07,235.76a4.64,4.64,0,0,1,2.33-2.1,2.15,2.15,0,0,0,.56,1.72"/>
    <path d="M206.56,177.05a3.63,3.63,0,0,1-3.27-.91"/>
    <path d="M127.31,63.78c4.83-8,12.61,1.08,3.87,9.14"/>
    <path d="M127.11,66.27c2.13,2.45-3,5.43-1.49,6.73,1,.9,1.06-1.92,4.19-2.9,3.66-1.15,3.16-7-.36-4.89"/>
    <path d="M137.13,96.38c-3.7-7.2-6.25,3.31-.71,8"/>
    <path d="M138.49,100c-1.15,1.92,3.39,5.34,1.44,5.71-.9.17-.94-2.09-2.18-2.85-2.15-1.31-3.14-6-1.06-4.73"/>
  </g>
  <g class="skinEdgeLine">
    <path d="M188.18,168.81a6.69,6.69,0,0,0,3.11,1.28"/>
    <path d="M193,172a4.44,4.44,0,0,0,2.57,1.22"/>
  </g>
  <path class="skinCreaseLine" d="M268.77,236.9a6.13,6.13,0,0,1,6.22.46"/>
</svg>
