<svg viewBox="0 0 104.97 104.97">
  <rect class="skyMedium" x="0.5" y="0.5" width="103.97" height="103.97"/>
  <g class="foliageNearest">
    <path d="M66.21,99.44v-11a1.92,1.92,0,0,1,.1-.92,13.45,13.45,0,0,1,1.33-2.22A4.2,4.2,0,0,1,70,83.68a5.83,5.83,0,0,1,2.31.23.76.76,0,0,0,.09-.18,2.45,2.45,0,0,1,2.22-2.08c.36-.06.7.19,1.06,0A4.06,4.06,0,0,1,76,80a5.08,5.08,0,0,1,5.11-3.14c.61-.15,10.24,21.46,10.46,21.94Z"/>
    <path d="M6.23,55.31c1.19-3.05,7-2.06,7.29,1.32a1.8,1.8,0,0,1,2.69,1.82c1.94-2.17,6.05-.55,5.48,2.45C24.12,60.25,26,63,25.15,65c-.09.22-18.87,8.48-19,8.73Z"/>
  </g>
  <g class="treeCloser">
    <path d="M33.17,6.65a3.05,3.05,0,0,0-.41-.05H7.06a.42.42,0,0,0-.37.08V41.77c0,.28,0,.5.32.65,1.5.72,3,1.19,4.59.29.25-.15.33-.39.55-.53l.09-.09a3.54,3.54,0,0,0,3.73.4,3.36,3.36,0,0,0,2.14-2.8c0-.3.06-.59.09-.88l0,.09a3.29,3.29,0,0,1,.42.22,4.1,4.1,0,0,0,1.71.48,2.59,2.59,0,0,0,2-1l0-.27c0,.09-.08.16,0,.28a4.12,4.12,0,0,0,3.93,1.67,5.8,5.8,0,0,0,2.27-.64,4.54,4.54,0,0,0,2.11-2.15c.67-1.6,1.23-3.23,1.86-4.85.76-1.93,1.55-3.84,2.31-5.77.84-2.17,1.66-4.35,2.5-6.52.58-1.5,1.17-3,1.75-4.48Z"/>
    <path d="M61.41,41.77c-.71,2.14-1.41,4.28-2.13,6.42-.89,2.64-1.79,5.27-2.68,7.9-.51,1.49-1,3-1.5,4.48a1,1,0,0,0,.17,1.11A4.11,4.11,0,0,0,58,63.27a2.43,2.43,0,0,0,2.17-.81c.06-.06.09-.15.19-.18V62.1c.2.42.36.85.88,1,.27.08.5.28.78.36a2.79,2.79,0,0,0,3-.65s0-.06,0-.09V63c.13.31.15.65.26,1a4.39,4.39,0,0,0,2,2.26,5.54,5.54,0,0,0,4,.76,4.71,4.71,0,0,0,2.46-1.22,3.94,3.94,0,0,0,1-1.25l12.52-5.91A4.44,4.44,0,0,0,90.1,59a4.89,4.89,0,0,0,3.56-3.15A3.38,3.38,0,0,0,94,54.24a3.7,3.7,0,0,0-1.44-2.77c-.14-.11-.22-.13-.33,0l.28-.09a3.46,3.46,0,0,0,1.29-3.47c-.07-.37-.15-.77-.65-.83l.42.19c.18-.27.47-.16.69-.17a3.4,3.4,0,0,0,2.47-1.16,5.63,5.63,0,0,0,1.4-3.07,8,8,0,0,0,0-1.29V6.6H40.84Z"/>
  </g>
  <path class="treeTrunk" d="M36.27,23.47c-.1-.33-.44-.37-.66-.55A19.39,19.39,0,0,0,32.77,21c-.53-.31-1.06-.6-1.58-.91-1-.57-2-1-3-1.53s-1.76-.71-2.6-1.18A12.07,12.07,0,0,0,24,16.7a29.26,29.26,0,0,0-3.18-1c-1.7-.46-3.44-.77-5.13-1.29-.66-.2-1.36-.29-2-.45a28.34,28.34,0,0,0-3.42-.56,30,30,0,0,0-3.42-.2l-.28-2.45a14.39,14.39,0,0,1,1.85-.08,48.65,48.65,0,0,1,6.38.47c.86.17,1.76.19,2.63.34,1.56.26,3.14.44,4.67.83.84.21,1.7.3,2.54.49,1.6.38,3.17.89,4.76,1.31.74.2,1.43.49,2.13.75s1.38.51,2.08.74c.91.29,1.79.7,2.72.93l-.14-.1a1,1,0,0,0-.18-.69c-1-1.68-2.16-3.31-3.34-4.89q-1.16-1.57-2.46-3c-.3-.33-.77-.58-.85-1.09l13.35-.23a12.53,12.53,0,0,1,2.49,2.22c1,1,2,2.12,3,3.18s2,2.06,2.86,3.2c.15.18.36.28.52.44,1.47,1.51,2.65,3.27,4.06,4.82s2.44,3,3.67,4.46c.75.9,1.54,1.76,2.29,2.66,1.35,1.59,2.7,3.18,4.07,4.75,1.21,1.4,2.47,2.75,3.64,4.17s2.15,2.55,3.12,3.91c.68.94,1.53,1.77,2.29,2.65.61.7,1.2,1.42,1.81,2.12.46.52,1,1,1.42,1.53,1,1.24,2.22,2.26,3.21,3.5s1.92,2.23,2.9,3.34,1.87,2.2,2.84,3.26a25.91,25.91,0,0,0,2,2.1,8.12,8.12,0,0,1,.61.69c1.26,1.4,2.58,2.75,3.77,4.22,1,1.3,2.11,2.58,3.13,3.9.55.73,1.08,1.47,1.64,2.19l.14,28.28H87.47c-.22-.8-.42-1.56-.65-2.31-.62-2-1.31-4-2-5.92-.39-1.05-.83-2.08-1.15-3.14a60.87,60.87,0,0,0-2.23-6.33c-.34-.8-.74-1.57-1.1-2.36-.67-1.42-1.32-2.84-2-4.25-.2-.43-.48-.82-.68-1.25a34.54,34.54,0,0,0-1.75-3.29,10.65,10.65,0,0,1-.65-1,25.88,25.88,0,0,0-1.4-2.59c-.52-.9-1.07-1.79-1.61-2.68l-1.53-2.49c-.78-1.28-1.53-2.58-2.36-3.83-1-1.48-2-2.92-3-4.36s-2.24-3.06-3.38-4.57c-.82-1.08-1.77-2.06-2.58-3.15-.26-.35-.68-.56-.8-1Z"/>
  <path class="skinGallic" d="M54,83.45A1,1,0,0,0,54,83V69.45a.66.66,0,0,0-.26-.62A3.31,3.31,0,0,1,52.45,67a9.28,9.28,0,0,1-.1-1.06c0-.22.17-.27.28-.36a21.14,21.14,0,0,0,4-4.51,12.67,12.67,0,0,0,1.69-3.72,23.59,23.59,0,0,0,.94-3.79c0-.29,0-.69.27-.87a4.16,4.16,0,0,0,1.61-2.23,5.73,5.73,0,0,0,.39-2.26,17.29,17.29,0,0,0-.1-2.69,2.64,2.64,0,0,0-.29-.83,2.21,2.21,0,0,1-.29-1.11q0-7.24,0-14.51v-.48H31.16V41.67c-.4.17-.76,0-1.08.15A1.78,1.78,0,0,0,29.21,43a10.49,10.49,0,0,0-.57,2.4,20,20,0,0,0-.16,3.28,4.91,4.91,0,0,0,1.82,3.93,5.18,5.18,0,0,0,.84.64c.27.16.26.47.31.7a10.58,10.58,0,0,1,0,2.45c0,.51-.14,1-.15,1.52A10.54,10.54,0,0,1,31,59.83a10.68,10.68,0,0,1-.78,2.54,1,1,0,0,0,0,.47V83.63Z"/>
  <g class="skinOverlapLine">
    <path d="M33.59,57.11a4.06,4.06,0,0,0,.61,1.94c.27.63.66,1.21.9,1.85A8.5,8.5,0,0,0,36.47,63a10.11,10.11,0,0,0,2.61,2.48,12.49,12.49,0,0,0,3.7,1.67,14.78,14.78,0,0,0,3.1.39,10,10,0,0,0,3.6-.42,8.1,8.1,0,0,0,3.1-1.52"/>
    <path d="M60.07,45.74c-.16,1.23-.39,2.46-.44,3.7,0,.72-.15,1.44-.11,2.17a3.35,3.35,0,0,1-.15,1.06"/>
  </g>
  <g class="whiteMediumDark">
    <rect x="33.96" y="77.86" width="19.22" height="22.37"/>
  </g>
  <path class="flatIndigoMedium" d="M49,98.33a2.52,2.52,0,0,1,0-1.25c0-1.19-.21-2.37-.2-3.56a16.69,16.69,0,0,0-.18-2.12c-.13-1-.29-2-.46-3.05s-.38-2-.55-3a1.77,1.77,0,0,1,.22-1.63A13.47,13.47,0,0,0,50.41,79l-2.08-2.72c-.8.12-1.6.3-2.41.35a11.32,11.32,0,0,1-2.4,0l-2.45,2.81a5.33,5.33,0,0,0,.7,1.85c.49.86,1,1.7,1.52,2.54a2.4,2.4,0,0,0,.27.28c-.23.77-.49,1.53-.67,2.31-.13.53-.32,1-.43,1.57-.35,1.72-.67,3.44-.88,5.18-.14,1.09-.27,2.18-.35,3.28,0,.66-.12,1.33-.2,2a1.87,1.87,0,0,0,0,.32Z"/>
  <path class="tieCreaseLine" d="M43.52,84a4.29,4.29,0,0,0,3.52.23,1.42,1.42,0,0,1,.36,0"/>
  <g class="whiteMedium">
    <path d="M30.26,62.84c3.25,4.74,10.56,11,15.44,13.6-1.67,3-7.44,7.85-11.7,8.44Z"/>
    <path d="M53.64,68.89a4.21,4.21,0,0,1-.88,1.52A23.34,23.34,0,0,1,51,72.72a33,33,0,0,1-3.66,3.33s-.08.24-.08.24c.18.27.36.27.55.55a16.54,16.54,0,0,1,2.18,3c.31.55.76,1,1,1.59a29.13,29.13,0,0,1,1.84,3.22,2.57,2.57,0,0,0,.53,1Z"/>
  </g>
  <g class="flatRedMediumDark">
    <path d="M27.76,63.25c-.4.37-1,.37-1.43.64a27.94,27.94,0,0,1-3,1.16c-1.34.58-2.7,1.13-4.06,1.66-.95.37-1.93.66-2.86,1-1.69.69-3.43,1.27-5,2.12-1,.55-2.1,1-3.16,1.5a10.63,10.63,0,0,1-1.84.76.32.32,0,0,0-.27.38V98.14c0,.51,0,.51.51.51H36.22a1,1,0,0,0,.46,0Z"/>
    <path d="M51.84,98.47H68.39a6.33,6.33,0,0,0,0-2.13c-.11-1.28-.27-2.55-.4-3.83-.15-1.53-.31-3.06-.57-4.58-.21-1.18-.48-2.34-.66-3.51a18.34,18.34,0,0,1-.2-2.77,25,25,0,0,0-.26-3.56,2.6,2.6,0,0,0-.85-1.38,24.07,24.07,0,0,0-3.87-3.25c-.68-.48-1.27-1.08-1.95-1.56-1.06-.74-2.07-1.56-3.19-2.22-.27-.16-.4-.52-.78-.51Z"/>
  </g>
  <g class="flatRedMedium">
    <path d="M53.5,97.87a30.86,30.86,0,0,0,2-4.16c.24-.64.58-1.25.76-1.9s.6-1.45.76-2.22c.25-1.19.67-2.33,1-3.51.36-1.43.73-2.85,1-4.29.13-.57.15-1.15.29-1.72a.7.7,0,0,0-.22-.64,9.55,9.55,0,0,0-1.94-1.53c-.48-.32-.94-.65-1.48-1a10.25,10.25,0,0,0,1.9-1.09,1.48,1.48,0,0,0,.6-1.86,15.26,15.26,0,0,0-2.64-5,5.83,5.83,0,0,0-2.92-2,.52.52,0,0,0,0,.51,10.23,10.23,0,0,1,.54,3.33c0,1.17.06,2.35,0,3.51s0,2-.07,3-.07,1.91-.11,2.87c-.07,1.36-.24,2.71-.41,4.06-.14,1.11-.23,2.23-.43,3.33-.24,1.31-.33,2.65-.48,4-.09.77-.14,1.55-.29,2.3-.25,1.23-.56,2.44-.89,3.65-.05.18,0,.42-.16.56Z"/>
    <path d="M39.5,98.14a1.76,1.76,0,0,0-.19-.78A34.88,34.88,0,0,1,38.15,93c-.16-.8-.44-1.56-.58-2.36-.27-1.57-.81-3.07-1.16-4.61-.48-2.12-1.13-4.19-1.67-6.29-.35-1.35-.79-2.67-1.15-4-.23-.9-.43-1.81-.59-2.73a9.92,9.92,0,0,0-.31-1.1c-.43-1.29-.73-2.61-1-3.93s-.69-2.76-.9-4.17a6.29,6.29,0,0,1-.18-2.17c.07-.34-.26-.31-.45-.26a7.45,7.45,0,0,0-1.2.35c-.65.29-1.32.51-1.94.84a4.36,4.36,0,0,0-2.46,3c-.2,1-.45,2-.68,2.92A20.7,20.7,0,0,0,23.38,72c0,.14,0,.28,0,.41a.64.64,0,0,0,.41.8A12.79,12.79,0,0,0,26,74l2.42.77c-1.32,1-2.58,1.94-3.86,2.88a4.23,4.23,0,0,0-.41.33,1,1,0,0,0-.32,1.25c.66,1.7,1.43,3.36,2.16,5,.65,1.5,1.45,2.93,2,4.47a11.94,11.94,0,0,1,.61,1.44c.28,1.26,1,2.33,1.39,3.55a22.9,22.9,0,0,0,1.3,3c.21.44.41.89.61,1.33Z"/>
  </g>
  <path class="hairDarkBrown" d="M35.57,32.11a.67.67,0,0,1,.14.09,3.47,3.47,0,0,0,2.87,1,4.68,4.68,0,0,0,2.26-.84A4,4,0,0,1,45,32.16a9.54,9.54,0,0,0,2.68.91A8.31,8.31,0,0,0,50.45,33a8.61,8.61,0,0,0,2.36-.83A23.69,23.69,0,0,0,55,30.68l.09-.28c-.09.17,0,.25.14.33a7.16,7.16,0,0,1,3.57,3.4A17.56,17.56,0,0,1,60.11,38a11.06,11.06,0,0,1,.17,3.14,13.92,13.92,0,0,1-.43,3,5.1,5.1,0,0,0-.11,1.11.32.32,0,0,0,.23.38c.22.09.32,0,.41-.15a1.23,1.23,0,0,0,.19-.42,4.56,4.56,0,0,1,.85-1.24,1.69,1.69,0,0,0,.4-1.07,1.54,1.54,0,0,1,.47-1,12.36,12.36,0,0,0,1-1.67,1.91,1.91,0,0,0,.13-1.2,1.7,1.7,0,0,1,.18-1.12,4.69,4.69,0,0,0,.67-2.26,5.75,5.75,0,0,0,0-.83,1.38,1.38,0,0,0-.42-.88c-.35-.33-.69-.67-1-1a1.09,1.09,0,0,1-.25-1.35,3.93,3.93,0,0,0,.23-2.45,3.53,3.53,0,0,0-2.21-2.62,3,3,0,0,0-.87-.19,3.59,3.59,0,0,1-1.81-1,23.13,23.13,0,0,0-2.66-1.93,20.92,20.92,0,0,0-3.07-1.62A11,11,0,0,0,49.67,21,16.31,16.31,0,0,0,48,20.66a11.56,11.56,0,0,0-2.12.05,10.1,10.1,0,0,0-2.74.89,2.94,2.94,0,0,1-1.56,0c-.47-.07-1-.1-1.43-.14a10,10,0,0,0-3.7.21,9,9,0,0,0-1.66.79,7.43,7.43,0,0,0-2.31,1.94,3,3,0,0,1-.33.27,3.09,3.09,0,0,0-1,2.5,5,5,0,0,0,.19.86c-.5.09-.74.5-1,.86A8.66,8.66,0,0,0,29,32.61a20.7,20.7,0,0,0-.21,2.59,10.46,10.46,0,0,0,.48,2.6,24.9,24.9,0,0,0,1,2.66,3,3,0,0,0,1,1.61c.52.38.54,1.1.57,1.73,0,.3-.08.63.2.88.2,0,.27-.16.32-.37a16.7,16.7,0,0,0,.33-2.82,8.28,8.28,0,0,1,.39-1.76c.21-.76.38-1.53.52-2.31a3.89,3.89,0,0,1,.91-1.81,4.14,4.14,0,0,0,1.31-3s0-.06,0-.09Z"/>
  <path class="hairOverlapLine" d="M34,29.29a5.7,5.7,0,0,0,1.38,2.54c.08.1.23.16.19.32"/>
  <path class="whiteMediumLight" d="M44.31,7.25c5.73,0,11.46,0,17.19.07,6.3.12,12.6-.07,18.9.11,1.72.05,3.45,0,5.18.07,2.24.13,4.49,0,6.74.1,1.54.08,3.08,0,4.62,0,.56,0,.59,0,.6.6,0,2.08-.05,4.16.08,6.24s0,4.18.09,6.28c.13,2.31,0,4.62.08,6.93.13,7-.05,13.93.11,20.89,0,2.49,0,5-.05,7.49-.11,6.53,0,13.06-.12,19.59-.06,2.35,0,4.71-.08,7.07s0,4.74-.09,7.12c-.09,2.53,0,5.08-.11,7.62a1.3,1.3,0,0,1,0,.19l-2-.08c-3-.1-6,0-8.92-.09s-6,0-9-.09c-6.42-.14-12.84,0-19.27-.09s-13-.09-19.54,0c-5.89.13-11.77-.09-17.66.11-2.51.08-5-.06-7.53.07-1.87.1-3.76,0-5.64,0-.12,0-.27.06-.37-.1a.5.5,0,0,0,.1-.36c0-2.16,0-4.31.08-6.47.1-1.72,0-3.45.08-5.18.13-2,0-3.94.09-5.91.14-3.31,0-6.62.09-9.94.11-4.85,0-9.7.11-14.55.09-6,0-11.89-.09-17.84,0-3.68.11-7.36-.08-11-.08-1.54,0-3.08-.08-4.63s0-3-.09-4.48c-.1-1.83,0-3.66-.1-5.5,0-1,0-1.94,0-2.91a1,1,0,0,0-.07-.51c-.14-.3,0-.5.4-.5,2.43,0,4.87,0,7.3-.09,1.73-.08,3.45,0,5.18-.08,2.12-.13,4.25,0,6.37-.08,5.55-.08,11.09,0,16.64,0a3.3,3.3,0,0,0,.83-.09ZM.5,104.47h104V.5H.5Z"/>
  <path class="flatAmberMedium" d="M74.72,13.48c.2,5.44.13,15.8-.17,20.85,4.47-.19,21.85,0,26.79.18.35-4.61.21-16.5,0-20.93C96.75,13.36,79.37,13.36,74.72,13.48Z"/>
</svg>
