<svg viewBox="0 0 104.97 104.97">
  <rect class="frame" x="0.5" y="0.5" width="103.97" height="103.97"/>
  <path class="street" d="M.59,67.22v37.14H104.36V66.81C88,66.76,18.07,66.82.59,67.22Z"/>
  <g class="buildingRearFront">
    <path d="M61.27,49.81c-.19-.39-.66-.34-.91-.61l-4.59,2.27a.83.83,0,0,0-.57.88c.06,1.26,0,2.53,0,3.79,0,2.57-.1,5.14-.14,7.71,0,1.08-.05,2.16-.07,3.24a1.55,1.55,0,0,1-.07.6c1.25.41,2.48.81,3.72,1.19a2.3,2.3,0,0,1,.42.2.6.6,0,0,0,.74,0,3.76,3.76,0,0,1,.55-.32Z"/>
    <path d="M40.66,52c.12-.07.24-.16.37-.22s.33-.43.49-.35.62.15.85.39c.39.4,1,.42,1.43.64a9.67,9.67,0,0,0,1.8.8.49.49,0,0,1,.37.59c-.13,1.6-.08,3.21-.13,4.81a59.78,59.78,0,0,0,0,6.42c.05.68,0,1.36,0,2,0,.2-.1.28-.27.37-1.12.6-2.24,1.21-3.33,1.85a1.21,1.21,0,0,1-1.54,0,1.65,1.65,0,0,0-.45-.19Z"/>
  </g>
  <g class="buildingRearSide">
    <path d="M66.81,49c-1.26-.05-2.53.06-3.79.13a9.36,9.36,0,0,0-2.72.22V54.1c0,2-.19,3.91-.22,5.87,0,.85,0,1.7-.07,2.54-.12,1.47,0,2.94-.2,4.39a8.69,8.69,0,0,1-.23,2.29c1.5-.09,2.89.08,4.28-.1a12.35,12.35,0,0,1,1.61,0A1.25,1.25,0,0,0,66,69Z"/>
    <path d="M37.7,69.72a25,25,0,0,0,3.85-.13c0-6-.26-12.08,0-18.17H37.51Z"/>
  </g>
  <g class="buildingMiddleFront">
    <path d="M73.65,37.93a5.63,5.63,0,0,1-.86-.58.51.51,0,0,0-.65,0,32.17,32.17,0,0,1-3.16,2c-1.3.81-2.54,1.72-3.87,2.47a.44.44,0,0,0-.19.27,1.35,1.35,0,0,1,.09.33c-.05,1.34.13,2.68.08,4-.15,3.68,0,7.36-.1,11,0,.88,0,1.76-.09,2.63s0,1.64-.09,2.45,0,1.89-.1,2.82c-.07.68,0,1.36-.07,2-.08,1-.19,1.94-.27,2.91a2.3,2.3,0,0,0,0,.35c1.87.65,3.72,1.34,5.61,1.91a3.77,3.77,0,0,0,1.2.36c.46,0,.8-.4,1.2-.59l.23-.09Z"/>
    <path d="M32.25,36.91a1.64,1.64,0,0,0,.83-.65c1.92,1.1,3.82,2.15,5.75,3.15a1.27,1.27,0,0,1,0,.32c-.05.87-.13,1.73-.26,2.59a8.78,8.78,0,0,0-.09,1c0,1-.18,2-.22,2.95-.07,1.61-.15,3.21-.28,4.81s-.11,3.2-.17,4.81c-.09,2.26-.08,4.52-.08,6.79,0,.93.07,1.85.11,2.77,0,1.31.1,2.62.19,3.93a8.42,8.42,0,0,0,.15,1.94c.07.23-.14.33-.32.42-1.37.68-2.63,1.56-4,2.21-.25.12-.48.3-.73.44a1,1,0,0,1-1.3-.3Z"/>
  </g>
  <g class="buildingMiddleSide">
    <path d="M81.6,37.19h-9c-.12.41.07.75.06,1.11,0,.89,0,1.79,0,2.68-.05,1.4.16,2.81.07,4.2-.09,1.59,0,3.18-.09,4.76-.08,1.19,0,2.38-.07,3.56,0,1.56-.14,3.12-.27,4.67,0,.55,0,1.11-.08,1.67,0,.9-.11,1.81-.13,2.72,0,1.17-.12,2.34-.19,3.51,0,1-.17,1.94-.27,2.91s-.18,2-.28,3c0,.33-.06.65-.08,1,3,.06,5.9-.16,8.83-.08Z"/>
    <path d="M30,74.67h2.78a17.65,17.65,0,0,1-.19-2.31c0-.08,0-.16,0-.23a17.93,17.93,0,0,0-.11-2.54c-.1-1.84,0-3.67-.09-5.5-.16-3.05-.1-6.11,0-9.15,0-1.79,0-3.58.08-5.36.05-.79,0-1.58.08-2.36.12-1.43.14-2.87.2-4.3s.11-3,.2-4.48A6.41,6.41,0,0,1,33,36.59c0-.08,0-.18,0-.28a4.51,4.51,0,0,0-1,0l-2-.05Z"/>
  </g>
  <g class="buildingNearFront">
    <path d="M91.21,15.06C86,15,85.94,15,85.85,14.92c-.56-.38-.74-.36-1.3,0-.84.61-1.59,1.33-2.39,2-1,.84-2,1.66-3.07,2.43a.72.72,0,0,0-.29.84,3.59,3.59,0,0,1,.07.65c.07,1.33.13,2.65.28,4a1.21,1.21,0,0,1,0,.19,32.56,32.56,0,0,0,.11,3.42c.06,1.41.11,2.83.18,4.25.15,2.68.11,5.36.19,8,.11,3.42.08,6.84.06,10.26,0,2.2,0,4.4-.09,6.61,0,1.67-.13,3.35-.19,5q-.07,2.26-.18,4.53c-.07,1.46-.18,2.93-.28,4.39q-.08,1.37-.18,2.73l-.09.92a.52.52,0,0,0,.42.6c1.91.65,3.83,1.29,5.73,2a.44.44,0,0,0,.56-.09c.22-.22.51-.35,5.78-.61Z"/>
    <path d="M23.84,24.58a1.33,1.33,0,0,0,.55-.42.82.82,0,0,1,1.29,0,13.85,13.85,0,0,0,1.81,1.2c1.31.86,2.66,1.65,3.93,2.57a2.43,2.43,0,0,0,1,.58,3.43,3.43,0,0,1-.07,1.46c-.07.63-.15,1.27-.24,1.9S32,33.28,31.84,34c-.05.31-.06.62-.09.93-.09,1.15-.23,2.3-.3,3.46s-.18,2.1-.28,3.14-.19,2.22-.28,3.33c-.05.54,0,1.08-.08,1.62-.1,1.32-.13,2.65-.2,4-.05,1.08-.15,2.16-.16,3.24,0,2.43,0,4.87,0,7.3,0,.94,0,1.88,0,2.82.1,1.41.1,2.84.25,4.25.07.67.05,1.36.09,2,.05,1.06.17,2.1.28,3.15.06.66.12,1.32.19,2,0,.39-.35.51-.6.64-1,.51-2,1.09-2.94,1.69s-2.05,1-3,1.75a1,1,0,0,1-1.21,0A2.35,2.35,0,0,0,23,79Z"/>
  </g>
  <g class="buildingNearSide">
    <path d="M24.39,23.7H17.74c-1.5,0-3,0-4.49.1-1.12.07-2.25.08-3.37.18s-2.1.1-3.14.19c-1.19.09-2.37.27-3.56.35-.79.05-1.56.2-2.36.21H.59V79.68c5.76-.12,11.52,0,17.29-.08,2.06,0,4.12,0,6.19,0,.07,0,.17,0,.27-.09a3.79,3.79,0,0,0-.12-1.24c-.07-.4-.09-.81-.12-1.21-.11-1.21-.28-2.42-.33-3.65,0-1-.11-1.91-.18-2.86-.11-1.46-.1-2.93-.19-4.39-.13-2.14,0-4.28-.09-6.42,0-.86,0-1.7,0-2.55-.05-2.37.1-4.74.11-7.11,0-.91,0-1.82.07-2.73.09-1.26.13-2.52.19-3.79s.13-2.49.19-3.74c.05-1.09.1-2.19.18-3.28s.13-1.91.19-2.87.12-1.91.18-2.86.12-2,.19-3c.09-1.3.21-2.59.26-3.89a1.25,1.25,0,0,0,0-.18Z"/>
    <path d="M104.36,15.1h-.12c-1.46,0-2.92-.08-4.39-.12-.95,0-1.91,0-2.86-.08s-2.16,0-3.24-.09-2.22,0-3.32-.09c-1.47-.14-2.93,0-4.39-.08l-.56-.05,0,.05c0,1,.18,2.07.26,3.1.06.78.13,1.57.21,2.35s.1,1.49.25,2.22a6.36,6.36,0,0,1,.09,1c.08,1,.15,2.1.22,3.14.09,1.24.09,2.47.25,3.7.07.55,0,1.11.09,1.67.09.78,0,1.57.12,2.35.14,1.26,0,2.53.09,3.79.13,1.42,0,2.84.09,4.25a61.85,61.85,0,0,1,.06,6.24c-.06,2,0,3.95-.08,5.92-.06,1.47-.12,2.95-.19,4.43-.05,1.2-.13,2.4-.18,3.61s-.13,2.18-.19,3.28-.19,2.31-.28,3.46c0,.68-.08,1.36-.18,2s-.12,1.58-.25,2.37c-.06.42-.06.86-.11,1.29-.1,1-.19,2.06-.3,3.14,6.3-.17,12.63-.07,19-.09Z"/>
  </g>
  <path class="skinBlack" d="M62.15,101.84c1.07-.94,2.15-1.87,3.15-2.9a19.82,19.82,0,0,0,2.58-3.06A21.7,21.7,0,0,0,70,91.67a3.75,3.75,0,0,0-.16-3.14c-.12-.2-.25-.4-.38-.6a4.21,4.21,0,0,1-.55-2.22c0-1.71.16-3.42.26-5.13a3.68,3.68,0,0,1,1.14-2.16,25.28,25.28,0,0,0,2.52-3.57c.69-1.2,1.36-2.41,2-3.65a12.38,12.38,0,0,0,1.25-4c0-.18.22-.3,0-.57a5.68,5.68,0,0,0,1.74-.13,3.43,3.43,0,0,0,1.79-1,11.12,11.12,0,0,0,2.32-3c.44-.91.9-1.81,1.27-2.76a.22.22,0,0,1-.06-.07c.14-.47.32-1,.45-1.51a20.89,20.89,0,0,0,.42-3,15.72,15.72,0,0,0,0-2.91,7.65,7.65,0,0,0-.32-1.81A13.51,13.51,0,0,0,83.36,49,5.23,5.23,0,0,0,82,46.94a2,2,0,0,0-.71-.37,3.59,3.59,0,0,1-1.05,1.48,4.36,4.36,0,0,1-1.39.82c-.3.06-.38.27-.45.48a2,2,0,0,1-1.76,1.42c-.35,0-.62.31-1,.33l-.09.19a2,2,0,0,0-.27-2A1.31,1.31,0,0,1,75,47.58c.07-.1,0-.22-.13-.32a2.54,2.54,0,0,1-.46-2.72l-.1.18a6.28,6.28,0,0,1-1.49-1,4.73,4.73,0,0,1-1.37-2.56,3.61,3.61,0,0,1,.5-2.82.31.31,0,0,0,.08-.35,8.82,8.82,0,0,1-1.64-1.12,3.13,3.13,0,0,1-.69-4.21,1.43,1.43,0,0,0,.23-.59c-2.3-1.17-2.32-2.79-1.64-4.12a7,7,0,0,1-1.65-.18,2.75,2.75,0,0,1-2-1.26,1,1,0,0,1-.15-.92l-.14.19a4.67,4.67,0,0,1-1.48-.23,2.33,2.33,0,0,1-1.44-1.79c-.4-.09-.79.13-1.19.13a3.23,3.23,0,0,1-3.11-1.48,3,3,0,0,1-.34-.56l0,.32a5,5,0,0,1-1.2,1.53,1.77,1.77,0,0,1-.89.39,5.7,5.7,0,0,1-1.8.13c-.26,0-.42-.29-.73-.3a2.26,2.26,0,0,1-1.11,1.17,2,2,0,0,1-2.63-.84.83.83,0,0,1-.05-.32l0,.28a3.28,3.28,0,0,1-.37.45,4.24,4.24,0,0,1-4.11.78,2.93,2.93,0,0,1-2.36-2.62l-.09.09a4.93,4.93,0,0,1-1.85.57,3.21,3.21,0,0,1-2.35-.81,2.9,2.9,0,0,1-1-1.27l0,.22a3.54,3.54,0,0,1-1.94,1.71,4.54,4.54,0,0,1-2.82.13,6.75,6.75,0,0,1-.68-.19c-.28.21-.2.54-.28.8a4.74,4.74,0,0,1-3.48,3.42,1.08,1.08,0,0,1-.18,0l-.28.18a.68.68,0,0,1,0,.83c-.45,1-.83,1.19-1.94,1.07,0,0-.08.07-.16.13a2.45,2.45,0,0,1-.2,2.5,4.29,4.29,0,0,1-2.1,1.93,2.52,2.52,0,0,1,.28,1.9,2.57,2.57,0,0,1-1.34,1.74A4.15,4.15,0,0,1,22,40.2,4.86,4.86,0,0,1,21,43.1a.52.52,0,0,0-.09.65,6.59,6.59,0,0,1,.5,2.18,4.63,4.63,0,0,1-.49,2.91A2,2,0,0,0,20.8,50a.46.46,0,0,1-.06.37l0,.11a.16.16,0,0,0,0-.06,3.66,3.66,0,0,0-1.8-1,1.17,1.17,0,0,1-.5-.24A7.31,7.31,0,0,0,18.23,51c0,.54,0,1.08,0,1.62a28.26,28.26,0,0,0,.06,2.91l0,.28A21.45,21.45,0,0,0,18.82,59a23.39,23.39,0,0,0,.89,3,4.61,4.61,0,0,0,1.91,2.64c.14.08.13.17.14.28a23.68,23.68,0,0,0,.53,3.75c.26,1.24.6,2.44,1,3.65a21.76,21.76,0,0,0,1.5,3.59,16.4,16.4,0,0,0,3,4.26l2.51,2.48c.52.49,1.11.92,1.66,1.39a.89.89,0,0,1,.36.8c0,.92,0,1.85,0,2.77a3.92,3.92,0,0,1-.14,1.14,1.33,1.33,0,0,1,0,.2c0,.46,0,.93-.05,1.39a8.26,8.26,0,0,1-.32,2,4.12,4.12,0,0,0,.44,3.77,16.31,16.31,0,0,0,2.89,3.67,5.21,5.21,0,0,1,.59.56,21.08,21.08,0,0,0,3.11,2.94l1.34,1.1H59a2.24,2.24,0,0,0,.34-.27C60.26,103.3,61.25,102.63,62.15,101.84Z"/>
  <g class="skinOverlapLine">
    <path d="M69.4,79.61a20.74,20.74,0,0,1-2.11,1.74A18.15,18.15,0,0,1,65,82.92c-.93.52-1.9,1-2.85,1.5a17.58,17.58,0,0,0-1.62.82,5.22,5.22,0,0,1-1.11.47c-.8.31-1.53.79-2.35,1.07s-1.85.61-2.71,1a13.26,13.26,0,0,1-2.84.92,19.51,19.51,0,0,1-2.31.37c-1,.09-2,.24-3,.23a32.65,32.65,0,0,1-4.62-.42,17.15,17.15,0,0,1-4.37-1.26,13.34,13.34,0,0,1-4.08-2.69c-.3-.3-.73-.44-1-.79"/>
    <path d="M20.83,50.55c-.12.92.08,1.66,0,2.58a24.27,24.27,0,0,0,0,3.19c.11,1.2.12,2.41.29,3.61.09.65.1,1.32.14,2,.06.87.19,1.73.33,2.59"/>
    <path d="M75,65.47a2.58,2.58,0,0,0,1,1.11"/>
  </g>
  <g class="shirt">
    <path d="M32.15,90.29c0-.46,0-.93.05-1.39,0-.21,0-.37-.32-.34a13.61,13.61,0,0,0-2.22.43,13.4,13.4,0,0,0-2.44.8c-1.06.48-2.14.9-3.16,1.46-1.22.66-2.43,1.36-3.63,2.07a27.78,27.78,0,0,0-3.49,2.22c-.66.54-1.45.9-2.12,1.45-1,.86-2.07,1.74-3.1,2.62a16.42,16.42,0,0,0-3.2,3.86c-.19.31-.42.6-.64.89H40.2l-1.34-1.1a21.08,21.08,0,0,1-3.11-2.94,5.21,5.21,0,0,0-.59-.56,16.31,16.31,0,0,1-2.89-3.67,4.12,4.12,0,0,1-.44-3.77A8.26,8.26,0,0,0,32.15,90.29Z"/>
    <path d="M89.79,99.52a49.85,49.85,0,0,0-5.3-3.71c-.86-.6-1.86-1-2.74-1.61-1.31-.88-2.69-1.63-4-2.42s-2.5-1.42-3.82-2c-1.06-.48-2.09-1-3.19-1.41a1,1,0,0,1-.33-.23c-.27-.23-.49-.15-.69.1A3.74,3.74,0,0,1,70,91.67a21.7,21.7,0,0,1-2.15,4.21,19.82,19.82,0,0,1-2.58,3.06c-1,1-2.08,2-3.15,2.9-.9.79-1.89,1.46-2.79,2.25a2.24,2.24,0,0,1-.34.27H95.51c-.84-.73-1.7-1.43-2.48-2.21C92,101.16,90.83,100.44,89.79,99.52Z"/>
  </g>
  <path class="hairBlack" d="M56.88,22.17a5,5,0,0,1-1.2,1.53,1.77,1.77,0,0,1-.89.39,5.7,5.7,0,0,1-1.8.13c-.26,0-.42-.29-.73-.3a2.26,2.26,0,0,1-1.11,1.17,2,2,0,0,1-2.63-.84.83.83,0,0,1-.05-.32l0,.28a3.28,3.28,0,0,1-.37.45,4.24,4.24,0,0,1-4.11.78,2.93,2.93,0,0,1-2.36-2.62l-.09.09a4.93,4.93,0,0,1-1.85.57,3.21,3.21,0,0,1-2.35-.81,2.92,2.92,0,0,1-1.07-1.33.27.27,0,0,1,0-.09l.05.37a3.54,3.54,0,0,1-1.94,1.71,4.54,4.54,0,0,1-2.82.13,6.75,6.75,0,0,1-.68-.19c-.28.21-.2.54-.28.8a4.74,4.74,0,0,1-3.48,3.42,1.08,1.08,0,0,1-.18,0l-.28.18a.68.68,0,0,1,0,.83c-.45,1-.83,1.19-1.94,1.07,0,0-.08.07-.16.13a2.45,2.45,0,0,1-.2,2.5,4.29,4.29,0,0,1-2.1,1.93,2.52,2.52,0,0,1,.28,1.9,2.57,2.57,0,0,1-1.34,1.74A4.15,4.15,0,0,1,22,40.2,4.86,4.86,0,0,1,21,43.1a.52.52,0,0,0-.09.65,6.59,6.59,0,0,1,.5,2.18,4.63,4.63,0,0,1-.49,2.91A2,2,0,0,0,20.8,50a.46.46,0,0,1-.06.37l.05.19s0-.11-.05-.14a3.66,3.66,0,0,0-1.8-1,1,1,0,0,1-.83-1c0-.44.16-.68.63-.87l.06.18-.23-.18a3.3,3.3,0,0,0-.51-.61,2.37,2.37,0,0,1-.12-3.11c-1.26-1.16-2.43-2.41-2.44-4.23a5.36,5.36,0,0,1,1.58-4.43,3,3,0,0,1-1.45-2.59,2.76,2.76,0,0,1,1.5-2.5,7.08,7.08,0,0,1-1-2.64,4.21,4.21,0,0,1,.28-1.89,4.26,4.26,0,0,1,1.75-2.68,2,2,0,0,1,1.62-.37l-.14-.14A3,3,0,0,1,18.89,20a5.55,5.55,0,0,0,.15-.73A3.13,3.13,0,0,1,20.13,17a8.06,8.06,0,0,1,.93-.73,2.77,2.77,0,0,1,1.57-.51.75.75,0,0,0,.51-.1,2.66,2.66,0,0,1,0-2.07,3.31,3.31,0,0,1,2.94-1.84c-.11-3.06,3.39-6.34,7-4.63a2.18,2.18,0,0,1,1.67-2.3,2.78,2.78,0,0,1,2.81.74c.61-1.59,1.46-2.83,3.28-3a4.91,4.91,0,0,1,4.08,1,.64.64,0,0,0,.27-.27A2.78,2.78,0,0,1,46.35,2,4.87,4.87,0,0,1,50,1.26a3.51,3.51,0,0,1,2.44,1.32l.05-.14a2.48,2.48,0,0,1,2.4-.86,2.6,2.6,0,0,1,2.24,1.3,4.63,4.63,0,0,1,2-1,4.19,4.19,0,0,1,3.23.79A4,4,0,0,1,63.72,4.8l0,.09a3.17,3.17,0,0,1,1.52-.71,2.14,2.14,0,0,1,2,.44,2.09,2.09,0,0,1,.88,1.56.26.26,0,0,0,.1.19c2.86-1.08,6.12.47,6.1,4.17a4.69,4.69,0,0,1,4.34.74c1.47,1,1.67,2.62,1.74,4.29a2.8,2.8,0,0,1,2.78.61A2.7,2.7,0,0,1,84.16,19a3,3,0,0,1,2.11.63,3.26,3.26,0,0,1,1.42,2.59,4.65,4.65,0,0,1-.43,2.64,5.32,5.32,0,0,1-.35.82l-.41.05c.14.07.26-.1.42,0,.52.32,1.28.3,1.56,1a1.92,1.92,0,0,1-.5,2.59c.18.25.51.22.74.41A3.64,3.64,0,0,1,90,32.94a5,5,0,0,1-1,2.54l-.19.09c.18.26.51.29.74.46a1.3,1.3,0,0,1,.5,1.53c-.06.2,0,.42-.13.6l-.46.58a3.72,3.72,0,0,1,1.8,3.67A3.93,3.93,0,0,1,88.87,46a1.92,1.92,0,0,1,.81,2.19A2.35,2.35,0,0,1,88,50a5.21,5.21,0,0,1,1.13,1.26,2.47,2.47,0,0,1,.08,2.17,3.33,3.33,0,0,1-2.11,2.14,1.83,1.83,0,0,1-.88.1c-.43-.06-.32.21-.27.35a2.07,2.07,0,0,1-.07,1.39,3.72,3.72,0,0,1-2.44,2.35c-.05,0-.14,0-.22-.1.14-.47.32-1,.45-1.51a20.89,20.89,0,0,0,.42-3,15.72,15.72,0,0,0,0-2.91,7.65,7.65,0,0,0-.32-1.81A13.51,13.51,0,0,0,83.36,49,5.23,5.23,0,0,0,82,46.94a2,2,0,0,0-.71-.37,3.59,3.59,0,0,1-1.05,1.48,4.36,4.36,0,0,1-1.39.82c-.3.06-.38.27-.45.48a2,2,0,0,1-1.76,1.42c-.35,0-.62.31-1,.33l-.09.19a2,2,0,0,0-.27-2A1.31,1.31,0,0,1,75,47.58c.07-.1,0-.22-.13-.32a2.54,2.54,0,0,1-.46-2.72l-.1.18a6.28,6.28,0,0,1-1.49-1,4.73,4.73,0,0,1-1.37-2.56,3.61,3.61,0,0,1,.5-2.82.31.31,0,0,0,.08-.35,8.82,8.82,0,0,1-1.64-1.12,3.13,3.13,0,0,1-.69-4.21,1.43,1.43,0,0,0,.23-.59c-2.3-1.17-2.32-2.79-1.64-4.12a7,7,0,0,1-1.65-.18,2.75,2.75,0,0,1-2-1.26,1,1,0,0,1-.15-.92l-.14.19a4.67,4.67,0,0,1-1.48-.23,2.33,2.33,0,0,1-1.44-1.79c-.4-.09-.79.13-1.19.13a3.23,3.23,0,0,1-3.11-1.48c-.17-.28-.43-.51-.36-.88Z"/>
</svg>
