<svg viewBox="0 0 117.04 211.49">
  <g class="skinEastAsian">
    <path d="M93.75,74.27C93.94,74.5,99,44,99.68,36.63c.57-5.88-6-7-5-18.19.36-3.84,3.11-9.71,5.56-15.38C101.58,0,104.52.15,107.7,1.13c2.9.89,4,3.1,5.51,5.44,9.32,14.35-3.91,23.73-3.58,31.2.55,12.79,3,28.27,2.28,40.06Z"/>
    <path d="M74.8,48.44c.17,4.69,2.13,6.14,2.27,12.13.29,12.94-4.78,21.62-15.69,24.58a21.4,21.4,0,0,0,1,8.9c-9.9,3.94-19.37,4.58-28.14,0,1.31-4.65.74-8.72-.58-13.34Z"/>
  </g>
  <g class="skinOverlapLine">
    <path d="M65.1,70.27a5.14,5.14,0,0,0,4,2.18"/>
    <path d="M61.38,85.15a12.11,12.11,0,0,1,.65-3"/>
  </g>
  <path class="hairBlack" d="M72.44,59.84a6.91,6.91,0,0,0,2.69-3,38.08,38.08,0,0,1-.3-8.37c4.53-13.12,2-23.58-7.7-29.69C49.92,8,20.58,13.19,15.5,36.21c-8.58,38.9,17,44,25.09,49.53,5.76-3.59,17.66-1.11,24.51-15.47C61.38,63.32,66.72,55.07,72.44,59.84Z"/>
  <g class="hairOverlapLine">
    <path d="M74.8,48.44a11.42,11.42,0,0,1-3.55,4.2"/>
    <path d="M43.75,53.45A33.09,33.09,0,0,0,29.68,38.9a27.81,27.81,0,0,1,19.57,9.38,32.36,32.36,0,0,1,16.5-5.34c-4.53,2.59-8.09,5.82-9.71,9.54"/>
  </g>
  <path class="bennettSleeves" d="M92.92,73.67c-.81,1.29-.81,3.72-1.29,5.34-4.77,2.66-8.42,6.59-10.19,6.79A60.07,60.07,0,0,0,63,92c-6.63,4.69-23.78,5.66-29.76,0-8.41,6.14-19.41,7.11-23.62,13.91C3.8,113.13-.57,137.4.73,156.8c.32,9.06,6.79,17,11.32,14.07l69.06-41.72,0-.58.12.25c2.27-19.24,21.77-23.94,29.44-39.62,2.16-4.42,1.94-8.09,2.43-12C111,72.86,97.29,70,92.92,73.67Z"/>
  <path class="shirtWhite" d="M81.27,128.82c-1.45,24.91-.48,54.35,2.11,75.53.51,4.19-1.15,6.51-5.83,6.64H17.23a5.71,5.71,0,0,1-5.18-6.31,281.15,281.15,0,0,0,.16-34.13l.65-40.76A227,227,0,0,1,33.4,99.71c7.33,2.74,15.37,3,23.94,1.29C59.76,112.65,72.38,124.78,81.27,128.82Z"/>
  <path class="clothesOverlapLine" d="M12.86,129.79A71,71,0,0,1,13,118.54"/>
</svg>
