<svg viewBox="0 0 236.65 368.15">
  <path class="bennettShoe" d="M114.71,320.82c-3.55,3.63-10.34,7.4-9.8,14l40.82-8.16a14,14,0,0,0-1.33-5.85Z"/>
  <path class="soleWhiteDark" d="M110.61,340c-1.7.57-3.76.34-4.16-.2-1.67-3.28.68-3.82,4-3.69Z"/>
  <path class="soleWhite" d="M145.73,326.67c.57.95.61,4.62-1.08,5.39L110.45,337c-1.7.71-3.85,1.54-4,2.77a5.26,5.26,0,0,1-1.54-4.93c.31-1.69,5.9-3,14.17-7.54C126.63,323.13,144.38,324.42,145.73,326.67Z"/>
  <path class="metalDark" d="M112.49,320.82l.15,19.72a8.84,8.84,0,0,0,3.26-.12,3.53,3.53,0,0,0,2.1-3.28l-.82-16.32Z"/>
  <g class="metalLight">
    <path d="M84.88,184.19H44.53l-7.25-3.76a11.55,11.55,0,0,1-.25,8.22l5.65,2.93h19.1v7.7h7.08v-7.7H85.65Z"/>
    <path d="M109.91,320.82l1,18c.15,3.08,4.31,1.69,4.31-1.7l-.82-16.32Z"/>
  </g>
  <g class="rubberDark">
    <path d="M59.93,320.81V321a166.72,166.72,0,0,1-1.25,23.22A10.75,10.75,0,0,0,63,345c10.69-.11,14.25-9.67,15.44-24.18H59.93Z"/>
    <path d="M212.27,274.3c15.08,1.38,20,22.64,19.87,46.67-.15,23.88-3.08,46.32-19.87,46.67-14.79.31-20.66-16.94-21-46.67C191,289.55,198.87,273.06,212.27,274.3Zm-6.78,46.52c0,13.69,2.42,24.8,5.4,24.8s4.46-11.11,4.46-24.8-1.49-24.8-4.46-24.8S205.49,307.12,205.49,320.82Z"/>
    <path d="M26.81,321c-.15,21.56,2.47,46.21,16.33,46.67,13.24.44,16.94-20.32,16.79-46.67-.15-27.42-5.08-45.75-16.79-46.67C31.61,273.39,27.1,281.38,26.81,321Z"/>
    <polygon points="145.55 338.76 131.16 343.89 110.81 344.38 122.72 339.09 145.55 338.76"/>
  </g>
  <polygon class="rubberMediumDark" points="122.22 330.98 110.48 336.94 110.81 344.38 122.72 339.09 122.22 330.98"/>
  <g class="rubberMedium">
    <polygon points="122.72 339.09 145.55 338.76 145.06 330.98 122.22 330.98 122.72 339.09"/>
    <path d="M35,190.19H3.4c-3.87,0-3.87-11.86,0-11.86H35C38.89,178.33,38.89,190.19,35,190.19Z"/>
  </g>
  <path class="bennettJeans" d="M97.05,206.52C90.37,202.11,82,195.34,79.27,190,66,195.79,51.77,201.59,51,207Z"/>
  <path class="shirtWhite" d="M78.72,188.65c1.61,4.82,8.8,11.16,15.41,15.87h58.39c0-34.26-4.25-74.07-12.65-90.42C118,81.91,86.41,91.63,72.71,138c3,14.66,5.65,28.38,6.17,38.81C79.18,182,77.83,186,78.72,188.65Z"/>
  <path class="bennettSleeves" d="M117.39,91.15c10.47,1,18.48,13.4,22.48,22.95-8-7.55-16.3-14.07-23.41-16.79a56.4,56.4,0,0,1-14.94,2.46C98.59,114,90.74,125.5,77.64,128.42c-3.25,12-8.22,28.82-12.63,35.13-3.65,5.22-7.09,10.73-11.24,11.39-4.48.72-10.74-4-12.32-10.32A4.94,4.94,0,0,1,43,159.23a34.46,34.46,0,0,0,7.24-10.63c3.76-9.11,5.2-20,8.47-32.34,2.15-8.17,4.8-14.63,12.47-18.8A49,49,0,0,1,86,92.38C96.34,95.24,107.49,94.24,117.39,91.15Z"/>
  <g class="skinEastAsian">
    <path d="M68.25,63.73C67,73.59,71.33,89.3,86,92.38c9.53,2.62,19.87,2,29-.52-2.29-7.7-.37-15,4.59-22L67.17,43.09C67,51.1,69.33,55.09,68.25,63.73Z"/>
    <path d="M52,175c-4.15-.51-9-4.67-10.48-10.1l-8.69,8.08c-6.62-4.16-22-1.56-22.34,4.93-.13,2.77,2.62,5.85,4.78,7.39a14.4,14.4,0,0,0,6.53,2.49c-2.09,2.08-1.25,4.54,1.48,4.6,4.23.09,7.39-2.93,9.24-6C34.26,183.43,43.45,181,52,175Z"/>
  </g>
  <g class="skinOverlapLine">
    <path d="M81.19,66.66c-1.39,2.92-3.33,4.56-4.93,2.92"/>
    <path d="M86,92.38c.46-2.77.62-6.78-.31-9.24"/>
    <path d="M32.82,172.94c-2.31,2-4.62,4.31-5.39,4.62"/>
    <path d="M21.73,187.73a14.32,14.32,0,0,0,6.47-1.08"/>
  </g>
  <path class="hairBlack" d="M120.93,17.83c4.8-3.17,10.78-3,17.4-.93-5.62,1.22-11.13,3.15-13.55,6.63,11.86,10,10.09,33.63-2.31,45.28-7.23,6.79-14.33,5.55-17.25,8.78-4.78-5.08-18.33-1.85-24-10.93,4.16-10.79-2.47-17.56-6.63-11.25l-2.46-.15A15.29,15.29,0,0,0,71,48.94c-5.48-2.3-7.17-6.46-6.31-11.86C68.24,14.64,97.05,8,111.84,16.29c-1-5.93-5.18-11-10.94-15.25C110,3.18,116.73,8.75,120.93,17.83Z"/>
  <path class="hairOverlapLine" d="M71,48.94a26.7,26.7,0,0,0,4.62,1.7"/>
  <path class="fur" d="M128.48,193.43c1.93,4.17-3.27,7-5.88,11.09h37.26c-.58-2.53-2-5.34-1.35-7.09,3.85-2.31,7.52-6.32,8.32-9.39.89-3.4-2-7.25-2.77-11.25-.57-2.88-1.22-5.48-3.08-7.55,1.69-3.69,1.37-10.68-.46-11.7-2.4-1.34-7.81,3.43-10.33,7.39a39.51,39.51,0,0,0-12.32.93c-1.51-3.06-6-7.65-7.55-7.24-3.29.87-4.26,6.79-3.54,12.16C127.32,174.8,123.06,181.73,128.48,193.43Z"/>
  <path class="rickshawDark" d="M58.3,298a153.2,153.2,0,0,1,1.63,22.8H195.51a13.78,13.78,0,0,0,13.77-13.69l.06-9.11Z"/>
  <path class="rickshawLight" d="M33,278.3c1,1.36.88,4.46.93,6.63.17,8.47,7,13.09,14.65,13.09H220.78a15.37,15.37,0,0,0,15.37-15.36V219.88a15.37,15.37,0,0,0-15.37-15.36H55A15.36,15.36,0,0,0,39.6,219.88V255.2H37.09a15.36,15.36,0,0,0-15.36,15.36v11.29c-.15,4.46,3.85,6.16,7.57,5.54C29.89,284.46,31.43,280.15,33,278.3Z"/>
  <g class="rickshawOverlapLine">
    <path d="M212.1,345.18a6.49,6.49,0,0,1-3.09,2.94,3.73,3.73,0,0,1-3.73-.09,4.59,4.59,0,0,1-1.38-1.25"/>
    <path d="M37.19,348a1.68,1.68,0,0,0,2.09.3c.85-.47,1.09-1.58,1.4-2.41,1.38-6.87,1.38-10.94,1.38-24.89s-.67-25-1.69-25"/>
    <path d="M33,278.3c-.77-2.62-2.61-4.62-5.23-4.16"/>
  </g>
  <g class="light">
    <path d="M61.16,268.14h17.1c11.46,0,11.46,17.4,0,17.4H61.16C49.66,285.54,49.66,268.14,61.16,268.14Z"/>
    <path d="M199.18,268.14h17.1c11.46,0,11.46,17.4,0,17.4h-17.1C187.68,285.54,187.68,268.14,199.18,268.14Z"/>
  </g>
</svg>
