<svg viewBox="0 0 218.19 290.59">
  <rect class="frame" x="0.5" y="0.5" width="217.19" height="289.59"/>
  <path class="pants" d="M148.09,253c-.06-.29-.06-.56-.33-.77-2.7-2.07-5.42-4.12-8.08-6.24q-6.83-5.44-13.71-10.78c-4.22-3.28-8.38-6.62-12.56-9.93L53.8,276.3a7.21,7.21,0,0,0,.19,2.54,36.18,36.18,0,0,1,.5,5.78,37.1,37.1,0,0,0,.4,3.93c0,.51.15,1,.25,1.54h88.22c.77-2.41,1.45-4.83,2-7.31.39-1.82.67-3.65,1-5.48.09-.61.25-1.23.29-1.85.09-1.32.45-2.59.5-3.92,0-1.06.31-2.11.43-3.16.18-1.62.34-3.23.46-4.85s.28-3.29.3-4.93-.08-3.39-.14-5.09A3.5,3.5,0,0,0,148.09,253Z"/>
  <path class="pantsOverlapLine" d="M111.1,242.72c-.14,2.65.24,5.28.26,7.93,0,3.17.34,6.32.63,9.48.19,2.07.43,4.15.42,6.24,0,4.05,0,8.11-.1,12.16-.07,2.73-.33,5.45-.52,8.17a23.87,23.87,0,0,1-.23,3.16"/>
  <path class="skinAshkenazi" d="M121.57,58.19a13.41,13.41,0,0,0,2.36,4.56c1.52,2.07,3.43,3.77,5,5.74a57.39,57.39,0,0,1,4.69,6.18,3.15,3.15,0,0,1-.08,3.85A7.7,7.7,0,0,1,130,81.37a1.06,1.06,0,0,0-.64,1c-.27,2.15-.4,4.31-.56,6.47-.1,1.34-.27,2.67-.42,4a27.58,27.58,0,0,1-1.25,5.85,8,8,0,0,1-5.13,5.2,32.43,32.43,0,0,1-3.33,1.1c-.53.56-10.95,12.37-12.54,14.12l-29,.07c0-5.67-.08-17.6.15-17.87a7.67,7.67,0,0,0,1.27-2.52c.93-2.71-.67-5.59-2.53-6.9a.81.81,0,0,1-.43-.82V58.8Z"/>
  <path class="hairDarkBrown" d="M92.77,62.65A16.45,16.45,0,0,1,93.09,65a18.47,18.47,0,0,1-.55,3.55,14.29,14.29,0,0,0-.17,5c.07.31,0,.54-.44.72a40.58,40.58,0,0,1-4.17,1.5c-.4.1-.75.32-1.14.44-.56.17-.7,0-.87-.43a4.52,4.52,0,0,0-2.85-2.91c-1.91-.62-3.39.12-4.54,1.75a8.11,8.11,0,0,0-1.3,5,9.35,9.35,0,0,0,.87,4,8.79,8.79,0,0,0,2.28,2.63q1.19,1.07,2.31,2.16a1.13,1.13,0,0,1,.31,1.38c-1.07,2-2.12,4-4,5.32-.8.58-.76.55-1.55,0A25.1,25.1,0,0,1,73.14,91a14,14,0,0,1-1.25-1.3C71,88.48,70,87.41,69.2,86.14a12.75,12.75,0,0,1-.9-1.86c-.55-1.36-1.41-2.55-2-3.91A16.42,16.42,0,0,1,64.94,76a8,8,0,0,1,0-2.24Z"/>
  <path class="hat" d="M112.72,40.93A8.22,8.22,0,0,0,111,37.71c-1.19-1.78-2.47-3.49-3.68-5.25A12.41,12.41,0,0,0,102,27.93a5.68,5.68,0,0,0-2.92-.38,13.38,13.38,0,0,0-3,.74A20.62,20.62,0,0,0,90.31,32a1.49,1.49,0,0,1-1.16.38,21,21,0,0,0-4.62.24A18.38,18.38,0,0,0,80.21,34a52,52,0,0,0-11.55,6.63,50.82,50.82,0,0,0-5.24,4.24A18.19,18.19,0,0,0,60,49.72a14.34,14.34,0,0,0-1.73,4.61,19.9,19.9,0,0,0,0,3.7A24.58,24.58,0,0,0,60,65.73c.38,1,.82,2,1.23,2.93Z"/>
  <path class="band" d="M119.57,51.25a1.54,1.54,0,0,0-.1-1.83c-1-1.58-2.2-3.08-3.28-4.64-.93-1.32-1.82-2.66-2.69-4a7.8,7.8,0,0,0-.71-.84,61.66,61.66,0,0,0-9.55,3.68c-2.13.92-4.17,2-6.23,3s-3.81,2-5.7,3.07c-2.58,1.4-5.15,2.8-7.7,4.24-1.29.72-2.51,1.55-3.78,2.3-1.48.86-3,1.65-4.46,2.55a79,79,0,0,0-6.87,4.45c-.88.68-1.89,1.18-2.75,1.87-1.19,1-2.56,1.62-3.71,2.61l-.08.07c-1.12.75-1.14.76-.54,1.93s1.3,2.41,1.92,3.62a13.9,13.9,0,0,0,1.08,2.23Z"/>
  <path class="hat" d="M140,53.26c-.36,1.39-1.6,1.73-2.71,2.13s-2.35.72-3.53,1.08c-1.42.44-2.88.73-4.31,1.1-2.21.58-4.41,1.2-6.63,1.76a33.87,33.87,0,0,1-3.85.84c-1.61.21-3.15.7-4.77.89-2,.24-4,.73-5.93.95s-3.81.4-5.7.65c-1.28.16-2.53.46-3.79.71-1.59.32-3.19.66-4.76,1.07A47.49,47.49,0,0,0,89.07,66c-2.92,1.13-5.75,2.43-8.64,3.61a51.26,51.26,0,0,0-4.82,2.21c-2.14,1.13-4.39,2-6.49,3.19-.68.39-1.44.62-2.15,1A6.55,6.55,0,0,0,65.13,77a4,4,0,0,0,.32,1.33c.45.71,0,1-.49,1.17a41.26,41.26,0,0,1-5.08,1.77c-.74.19-1.48.38-2.23.53a1.64,1.64,0,0,1-1.16-.22.78.78,0,0,1-.3-1.23,10.43,10.43,0,0,1,3-2.91c1.25-.87,2.5-1.73,3.83-2.5,1.83-1.07,3.74-2,5.63-2.91,2.3-1.15,4.58-2.36,7-3.36,1.92-.8,3.79-1.72,5.74-2.48,1.74-.67,3.4-1.6,5.1-2.4,1.36-.63,2.73-1.23,4.08-1.85,1-.45,1.93-1,2.94-1.37,1.65-.65,3.24-1.44,4.86-2.13,2.25-.94,4.4-2.11,6.68-3,2-.78,4-1.71,5.93-2.6,2.21-1,4.42-2,6.71-2.75.49-.17,1-.36,1.46-.55a6.15,6.15,0,0,1,3.84.16c1.59.41,3.12,1,4.71,1.43a33.44,33.44,0,0,0,4.46.73c2,.23,4.07,0,6.09.22A2.07,2.07,0,0,1,140,53.18Z"/>
  <g class="hatFoldLine">
    <path d="M92.68,36.37c1.93,1.18,2.44,3.33.51,5.19A22.94,22.94,0,0,1,86,46c-1.38.58-2.86.88-4.25,1.41a2.46,2.46,0,0,1-.86,0"/>
    <path d="M97,32.23a5,5,0,0,0-4.77-.46,9.42,9.42,0,0,1-3.24.62"/>
  </g>
  <path class="shirt" d="M81.45,116.18c5.9,0,11.81-.09,17.71.08a2.32,2.32,0,0,1,1.69.54c.54-.74,1.36-.79,2.15-1a12.8,12.8,0,0,1,4.25-.66c3.77,0,11.83,0,12.13,0v45.29H96.7Z"/>
  <path class="shirtBorderLine" d="M100.93,116.8a11.62,11.62,0,0,1,1.68,3.54c.37,1.61.65,3.23.93,4.85.18,1,.29,2,.39,3.08.17,1.7.28,3.4.48,5.08.22,1.92.56,3.81.86,5.71.35,2.25.69,4.5.92,6.77a30.42,30.42,0,0,0,.42,3.61c.52,2.34.31,4.68.42,7"/>
  <g class="collar">
    <path d="M78.21,104.78a26.16,26.16,0,0,1,2.37,2.1,39.82,39.82,0,0,0,6.18,3.68c1.79,1,3.61,1.83,5.47,2.61s3.85,1.54,5.77,2.33a1.81,1.81,0,0,1,.88.62c-1.85.77-2.65,2.51-3.44,4.09-.69,1.39-1.32,2.84-1.94,4.27-.72,1.67-1.23,3.4-1.79,5.11a12.51,12.51,0,0,0-.95,3.46Z"/>
    <path d="M116.8,118.26c-.39,1.28-.68,2.6-1.18,3.84a39.42,39.42,0,0,1-3,6.1,1.4,1.4,0,0,1-.48.54c-.21.12-.08,0-.08,0-.25-.79-.48-1.6-.77-2.38a30.52,30.52,0,0,0-2.66-5.52,17.24,17.24,0,0,0-3-4.11,7.34,7.34,0,0,0-2.46-1.23c0-.53.56-.45.85-.6a57.33,57.33,0,0,0,4.92-3A7,7,0,0,0,112,108a15.42,15.42,0,0,1,.78-1.76Z"/>
  </g>
  <path class="suitInner" d="M175.64,199.36l8,8.63c1,1.12,2,2.26,3.08,3.38.56.62,1.1,1.27,1.7,1.85a3.28,3.28,0,0,0,3.93.33c2.3-1.26,3.76-3.27,5.25-5.32a20.2,20.2,0,0,0,2.56-5.08,15.57,15.57,0,0,0,.88-3.17c0-.13.07-.28-.07-.39Z"/>
  <path class="cuff" d="M184.5,183.8c1.13,0,2.25.23,3.38.34,1.34.13,2.67.3,4,.43l1.92,17.49a1,1,0,0,1-.92,1.06,9.87,9.87,0,0,1-2.31.12c-1-.08-2-.22-3-.33a17.28,17.28,0,0,1-3.92-.73c-.46-.16-1.15.1-1.4-.59Z"/>
  <g class="suit">
    <path d="M160.39,172.63a17,17,0,0,0-1.54-3.15,12,12,0,0,1-1.55-3.24,20.76,20.76,0,0,0-.54-2.46c-.45-1.47-.92-2.94-1.47-4.39-.37-1-.6-2-1-3-.85-2-1.48-4.14-2.5-6.1a23.75,23.75,0,0,1-1.46-3.54,12.5,12.5,0,0,1-.33-2.3,32.72,32.72,0,0,0-1.25-6.54c-.79-2.43-1.45-4.88-2.16-7.32s-1.35-5.2-2.08-7.78c-.27-1-.34-1.93-.66-2.86A10.59,10.59,0,0,0,139.9,115a17.26,17.26,0,0,0-4.55-2.45,41.72,41.72,0,0,1-7.92-4.41,27.45,27.45,0,0,0-4.55-2.16,17,17,0,0,0-2.62-.85c-.85-.2-1.18-.13-1.68.55-.1.13,6.38,79.63,6.38,79.63Z"/>
    <path d="M175.48,181.88c.47.45,1.09.29,1.62.36a62.44,62.44,0,0,0,6.24.5c1.62,0,3.18.38,4.77.47a9.22,9.22,0,0,1,1.85.44s-3.25,2.81-4,5.23c-.33,1.05-.78,2.06-1,3.16a18.5,18.5,0,0,0-.41,2.62,30.92,30.92,0,0,0,.11,5.93,29.22,29.22,0,0,0,1.26,5.16,14,14,0,0,0,1.51,4.17,9.67,9.67,0,0,0,1,1.54,21.15,21.15,0,0,0,2.26,2.53,5.41,5.41,0,0,1-3.31,0c-1.27-.36-2.58-.48-3.86-.81-1-.28-2.12-.46-3.15-.78a49.49,49.49,0,0,0-7.7-1.62c-1.63-.23-3.25-.46-4.85-.77-2.08-.41-4.14-.85-6.17-1.46a79.61,79.61,0,0,0-8.39-1.62,55.58,55.58,0,0,1-7.85-2c-.32-.1-.66,0-.93-.2,0,0,.75,4.31,1.19,6.31.33,1.51.31,3,.49,4.55.34,2.77.57,5.55,1,8.32s.57,5.36,1.14,8c.34,1.59.71,3.17,1,4.78.14.81.17,1.64.32,2.46a42.21,42.21,0,0,1,.67,6.24c.06,2.24.29,4.51-.63,6.71a6.81,6.81,0,0,1-2.43,2.74,29.28,29.28,0,0,1-7.06,3.51,54.5,54.5,0,0,1-6,1.69c-1.31.36-2.7.54-4.06.77-1.8.3-3.59.55-5.4.74a11.36,11.36,0,0,1-3.77,0c-.78-.18-1.16-.4-1.3-1.17a45.62,45.62,0,0,1-1.09-6.46c-.06-1.47-.19-2.93-.27-4.39s-.17-2.78-.33-4.16a52,52,0,0,1-.17-6.24V190.67Z"/>
    <path d="M110.79,240.87a34.88,34.88,0,0,1-.42,3.54c-.13,1.44-.31,2.88-.52,4.32-.34,2.4-.57,4.82-.83,7.24a18,18,0,0,1-.83,4.47,3.5,3.5,0,0,1-2.4,2.31,21.73,21.73,0,0,1-6.55.91c-2,0-4.06,0-6.09-.08a39.68,39.68,0,0,1-5.09-.34c-1.6-.28-3.25-.3-4.85-.71-.18,0-.31-.25-.53-.17L82.6,240.8Z"/>
  </g>
  <path class="lapel" d="M117.41,159.54a7.91,7.91,0,0,0,.37-2.85c-.12-2,0-4,0-6,0-3.44,0-6.88-.22-10.32-.14-2.2-.14-4.41-.25-6.62-.12-2.49-.19-5-.49-7.47-.22-1.85-.4-3.71-.74-5.54a33.77,33.77,0,0,0-.93-4.47c-.89-2.67-1.51-5.44-2.9-8-.49-.88.64-2.7,1.68-2.83,1.38-.16,3-.14,4.3-.43a1.69,1.69,0,0,1,2.07.82c1.16,1.79,2.39,3.51,3.63,5.24s2.21,3.45,3.26,5.22a29,29,0,0,1,2,4.14,12,12,0,0,0-5.44,1.49s1.61.67,2.45,1.09c1.69.84,3.47,1.52,4.73,3a1.52,1.52,0,0,1,.35.86,78.12,78.12,0,0,1,.47,7.94,84.3,84.3,0,0,1-.25,8.85,56,56,0,0,1-.8,6.17c-.31,1.44-.42,2.92-.65,4.38-.14.91-.39,1.8-.52,2.7-.21,1.42-.48,2.83-.78,4.24a41.58,41.58,0,0,1-2.23,7.7Z"/>
  <path class="endPin" d="M15.21,240.1a3.11,3.11,0,0,0-3.41,3.32A3.75,3.75,0,0,0,15.67,247,2.6,2.6,0,0,0,17.91,245Z"/>
  <path class="guitarTrim" d="M100.22,159.52a26.49,26.49,0,0,1,2.63-1.53,20.37,20.37,0,0,1,5.94-1.83,17.6,17.6,0,0,1,4.7-.16,11.77,11.77,0,0,1,2.53.34,20.65,20.65,0,0,1,5.72,2.65,15.26,15.26,0,0,1,4,3.86,30.47,30.47,0,0,1,1.86,3.7,19.3,19.3,0,0,1,1,3.63,31.3,31.3,0,0,1,.51,5.3,3.51,3.51,0,0,0,.52,1.92,8.57,8.57,0,0,0,1.86,2,26.92,26.92,0,0,0,4.6,2.65l-10.48,22.88a1.2,1.2,0,0,0-.68.54,18,18,0,0,0-2.68,6.22,15.79,15.79,0,0,0,.18,5.62,8.43,8.43,0,0,0,1.51,3.08c1.54,2.12,3.85,3.21,6.23,4.08a11.64,11.64,0,0,1,4.92,2.94,5.62,5.62,0,0,1,.69,6.16,14.38,14.38,0,0,1-2.55,3,13,13,0,0,1-3.37,2.27,32.89,32.89,0,0,1-5.25,1.89c-1.14.32-2.3.54-3.46.77-1.49.31-3,.65-4.47.84-1.82.23-3.65.32-5.47.48a15.62,15.62,0,0,0-5.68,1.49,22.37,22.37,0,0,0-6.82,5.11c-1.92,2.14-3.73,4.37-5.72,6.45-1.49,1.55-2.84,3.27-4.3,4.86a53.07,53.07,0,0,1-5.34,5.37c-2.08,1.71-4,3.61-6.18,5.21a49.88,49.88,0,0,1-9.09,5.77,15.6,15.6,0,0,1-3.77,1.25c-1.54.24-3.07.53-4.62.7a11.41,11.41,0,0,1-4.84-.45,36.55,36.55,0,0,1-5.09-2.35c-1.82-.92-3.58-2-5.4-2.9-2.61-1.34-5.13-2.83-7.77-4.1a81,81,0,0,1-7.16-4,13.23,13.23,0,0,1-3.78-2.91,45.79,45.79,0,0,1-3.58-5.87c-1.06-1.89-1.88-3.91-2.88-5.84-.86-1.66-1.62-3.38-2.4-5.08-1.34-2.92-2.69-5.84-4-8.78-.85-1.92-1.59-3.88-2.35-5.84s-1.48-4.25-2.13-6.4a36.52,36.52,0,0,1-1.16-5.78c-.13-1.05-.27-2.09-.31-3.16,0-1.36,0-2.72,0-4.08a21.28,21.28,0,0,1,.39-3.84,25.88,25.88,0,0,1,1.15-3.56,34.4,34.4,0,0,1,3.65-7.85l32.2-31S100.12,159.59,100.22,159.52Z"/>
  <path class="guitarBody" d="M52.1,183a17.19,17.19,0,0,1,4.39-.59,41.63,41.63,0,0,1,5.24.08,43.92,43.92,0,0,0,5.85,0,21.43,21.43,0,0,0,3.47-.55,20.9,20.9,0,0,0,4.77-1.77,31,31,0,0,0,3.38-1.64q2.77-1.8,5.39-3.84c3.72-2.88,7.39-5.82,11.18-8.61a37,37,0,0,1,6.78-4.38c2.15-1,4.21-2,6.7-2.08a35.67,35.67,0,0,1,4.85.07,15.13,15.13,0,0,1,4.25,1.05c3.49,1.54,5.2,4.38,6.06,7.88.4,1.65.64,3.34.93,5,.13.76.22,1.54.31,2.31a7.32,7.32,0,0,0,1.29,3.48,10.66,10.66,0,0,0,2.51,2.42,8.33,8.33,0,0,0,2.67,1.64L120.88,206.6c-.29,1-1.08,1.73-1.24,2.77a26.86,26.86,0,0,0-.64,4.39,14.56,14.56,0,0,0,.21,3.31,12.71,12.71,0,0,0,1.42,3.71,12.33,12.33,0,0,0,3.73,4.28,18.71,18.71,0,0,0,4.76,1.95,7.26,7.26,0,0,1,3.15,1.86,3.67,3.67,0,0,1,0,4.69,10.08,10.08,0,0,1-4.32,3,25,25,0,0,1-6.39,1.83c-1.76.28-3.53.57-5.31.75s-3.66.29-5.47.61a23,23,0,0,0-6.68,1.94,26.56,26.56,0,0,0-6.49,4.43,107.6,107.6,0,0,0-7.84,8.56c-2.12,2.55-4.33,5-6.58,7.45-.86.93-1.93,1.66-2.82,2.56a32.45,32.45,0,0,1-3.87,3.45,43.77,43.77,0,0,1-6.32,4.14,31.12,31.12,0,0,1-7.15,3c-.95.21-1.91.3-2.85.52a5,5,0,0,1-2.24.16,21.83,21.83,0,0,1-5.24-1.75c-2.16-1.08-4.39-2-6.46-3.26-3.43-2.06-7-3.92-10.48-5.84-1.49-.82-2.86-1.83-4.32-2.69a26.65,26.65,0,0,1-2.85-2.08,12.15,12.15,0,0,1-2.82-3.8c-1.05-1.86-2-3.78-2.94-5.7-1.11-2.25-2.07-4.58-3.19-6.83-1.21-2.42-2.25-4.91-3.4-7.35A47,47,0,0,1,14,231c-.64-2-1.49-4-2.14-6a35.67,35.67,0,0,1-1.62-8.56,47.76,47.76,0,0,1-.09-4.93,11.32,11.32,0,0,1,.41-2.93c.31-1,.43-2.13.84-3.17a29.34,29.34,0,0,1,3-6,3.21,3.21,0,0,0,.22-.46Z"/>
  <path class="fretboard" d="M217.69,152.15l-.15-5.47c-1.49.8-3.08,1.34-4.63,2-2,.86-4,1.7-6.08,2.54-2.28,1-4.57,1.91-6.85,2.85-2,.83-4,1.63-6,2.47-2.29,1-4.57,2-6.86,2.92-2,.83-3.94,1.68-5.93,2.46-3.3,1.29-6.56,2.71-9.84,4.05-2.94,1.19-5.86,2.44-8.79,3.67L151,174.43l-8.79,3.67c-2.86,1.2-5.75,2.37-8.61,3.58s-5.77,2.41-8.65,3.65c-3.59,1.55-7.23,3-10.85,4.48-.86.35-.9.62-.55,1.54,1.11,3,2.41,5.84,3.59,8.77.9,2.25,1.86,4.48,2.82,6.71.48,1.1.73,1.14,1.85.62,3.48-1.61,7-3.18,10.47-4.78,2.26-1,4.51-2.12,6.78-3.15,3.33-1.53,6.67-3,10-4.55,2.26-1,4.51-2.12,6.78-3.15,3.33-1.53,6.67-3,10-4.55,2.26-1,4.51-2.12,6.78-3.16,3.33-1.52,6.67-3,10-4.55,2.26-1,4.51-2.11,6.78-3.15,3.33-1.52,6.67-3,10-4.55,2.26-1,4.51-2.11,6.78-3.15,3.33-1.53,6.68-3,10-4.56a6.11,6.11,0,0,0,1.47-.73Z"/>
  <path class="bridge" d="M52.1,202.67c.57,1.26,1.16,2.5,1.69,3.78,1.37,3.31,3,6.54,4.34,9.84.73,1.72,1.54,3.39,2.3,5.09,1.24,2.77,2.49,5.54,3.72,8.31.79,1.81,1.62,3.61,2.43,5.41,1.2,2.66,2.44,5.3,3.57,8a20.85,20.85,0,0,0,1.14,2.39c.29.51.11.92-.33,1.06a14.27,14.27,0,0,1-4.15,1.17,4.89,4.89,0,0,1-3.3-1.24,18,18,0,0,1-3.25-4.06,17,17,0,0,0-3.74-4.52,32.24,32.24,0,0,1-6.87-8.2,26.6,26.6,0,0,1-2.36-5.78,18.44,18.44,0,0,1-.63-6.53,21.71,21.71,0,0,0,.36-3.94,9.3,9.3,0,0,0-.77-3.85Z"/>
  <g class="skinAshkenazi">
    <path d="M195.59,163.24a1.88,1.88,0,0,0-.23-1.16,7.78,7.78,0,0,1-.63-3.85,2.37,2.37,0,0,1,3.78-1.54,7.36,7.36,0,0,1,.77.7,36.79,36.79,0,0,1,5.09,7.39,33.94,33.94,0,0,1,2,5.54,4.88,4.88,0,0,0,.6,1.78,1.45,1.45,0,0,0,.36-.85,24,24,0,0,0-.37-6.16c-.32-1.53-.71-3.05-1.15-4.54a19.19,19.19,0,0,0-1.83-4.48,4.86,4.86,0,0,1-.4-4.39,2,2,0,0,1,3.25-1.08,9,9,0,0,1,2.76,3.71c.91,1.81,1.9,3.6,2.67,5.47a34,34,0,0,1,1.55,4.93A52.63,52.63,0,0,1,215,171a19.68,19.68,0,0,1,.17,3.61c-.05.62.06,1.29,0,1.93a28,28,0,0,1-1,6,68.08,68.08,0,0,1-2.54,6.63,23.49,23.49,0,0,1-4.71,7.32,15,15,0,0,1-3.25,2.91,19.54,19.54,0,0,1-6.47,2.45,22.3,22.3,0,0,1-4,.58,1,1,0,0,1-.77-.25,14.12,14.12,0,0,1-4.8-8.71,11.23,11.23,0,0,1,.08-3.84,4.52,4.52,0,0,1,1.63-2.64,3.15,3.15,0,0,0,.48-.73c-.35-1.11-.81-2.49-1.24-3.88a23.93,23.93,0,0,1-1-5.86c-.05-1,.05-2,.09-3a13.42,13.42,0,0,1,.11-2.38c.35-1.55.69-3.15,2.5-3.8.46-.16.22-.68.17-1.06a6.4,6.4,0,0,1,.13-3.16A2.52,2.52,0,0,1,194,162,10.65,10.65,0,0,1,195.59,163.24Z"/>
    <path d="M61.27,203.37c1.45.46,2.95.78,4.39,1.29a7.73,7.73,0,0,1,4.24,3.71,23.41,23.41,0,0,0,5.48,6.53c.54.45,1.31.62,1.9,1a7,7,0,0,1,2,2.31A5.46,5.46,0,0,0,83.83,221a3.71,3.71,0,0,0,3.53-2.7,1.81,1.81,0,0,1,.32-.61c1.75,1.35,2.57,1.23,4.31.46a4.32,4.32,0,0,0,2.42-2.68,3.63,3.63,0,0,0,.21-1,2.09,2.09,0,0,1,.93.28,3.51,3.51,0,0,0,3.28.15,4.57,4.57,0,0,0,2.18-5.21,3.63,3.63,0,0,0,2.07-.78,4,4,0,0,0,.87-5,11.55,11.55,0,0,0-2.63-2.91c.82-.57,1.77-.71,2.54-1.24a6.69,6.69,0,0,0,3.17-4,1.17,1.17,0,0,0-.33-1.23,2.71,2.71,0,0,0-3-.72,9,9,0,0,1-6.31-.28,19.61,19.61,0,0,1-4.7-2.85,15.2,15.2,0,0,0-7.4-3.06,13.5,13.5,0,0,0-4.61.21,17.44,17.44,0,0,1-6.4.15,38.54,38.54,0,0,1-7.62-1.54Z"/>
  </g>
  <g class="skinOverlapLine">
    <path d="M190.58,167.09c.31,1.46.56,1.8.8,2.84a28.85,28.85,0,0,0,.76,3.08c.59,1.61,1,3.29,1.65,4.87.31.72.53,1.41.8,2.15"/>
    <path d="M195.66,163.32a21.86,21.86,0,0,1,1.73,3.56,29.2,29.2,0,0,1,2.66,8.22c.08.46.16.92.23,1.39"/>
    <path d="M93.31,203.21c1.23,1,2.62,1.94,3.84,3,.81.7,1.76,1.43,2.55,2.15.28.27,1,.84,1.15,1.23"/>
    <path d="M82.83,88.76c.54.93.85,1.23,1.06,1.63a7.16,7.16,0,0,0,1.66,1.34,4.16,4.16,0,0,0,2.83.42"/>
    <path d="M89.46,208.91c.87.9,1.86,2,2.78,2.84s1.69,1.85,2.45,2.71"/>
    <path d="M189.89,186.42c.38,1.08.36,1.23.6,1.86.46,1.24,1.1,2.4,1.63,3.61"/>
    <path d="M96.31,197.43c.77.54.79.56,1.16.84,1.27.95,2.56,1.86,3.84,2.79"/>
    <path d="M84.06,213.22a18.88,18.88,0,0,0,1.61,1.87,15.55,15.55,0,0,1,1.25,1.52c.26.3.46.62.76,1"/>
    <path d="M207.06,172.1a11.22,11.22,0,0,0,.16,2.08"/>
  </g>
  <path class="cuff" d="M51.72,203.83a25,25,0,0,0,7,2.31,19.38,19.38,0,0,0,2.16.32c1,.06,1.12,0,1.3-.94.22-1.12.34-2.26.56-3.39.35-1.84.79-3.66,1.29-5.47a65.49,65.49,0,0,1,3.09-9.24,2.5,2.5,0,0,0,.15-.38c.27-.75.15-1-.61-1.23a70.82,70.82,0,0,0-8-1.69,9.2,9.2,0,0,0-1.39,0Z"/>
  <path class="suit" d="M70.89,104.55a10.71,10.71,0,0,1-3.23,1.22c-2.61.78-5.24,1.49-7.79,2.45-1.47.55-3,1.06-4.45,1.59a43.47,43.47,0,0,0-4.22,1.94c-1.68.8-3.45,1.36-5.11,2.2a44.52,44.52,0,0,0-7.76,4.79,4.23,4.23,0,0,0-1.25,2.06,7.71,7.71,0,0,0-.32,3.24,5.78,5.78,0,0,1-1.13,3.77,44.4,44.4,0,0,1-4,4.85c-2.47,3-5.07,5.84-7.43,8.89A18.82,18.82,0,0,0,21,148.44a18.58,18.58,0,0,1-1.9,5.4,80.47,80.47,0,0,1-4.91,7.63,42.42,42.42,0,0,0-3.85,5.63c-.9,1.64-1.69,3.33-2.55,5-1.2,2.32-2.36,4.65-3.48,7-.38.8-.54,1.67-.92,2.46a14.55,14.55,0,0,0-1,3.86,6.68,6.68,0,0,0,.61,3.38,14.19,14.19,0,0,0,3.21,4.95,35,35,0,0,0,6.79,5.39,49,49,0,0,0,4.85,2.46,7.89,7.89,0,0,1,.92.46c1.74,1.08,3.73,1.58,5.55,2.46,1.65.81,3.44,1.25,5.14,1.9s3.5.91,5.18,1.58a54.34,54.34,0,0,0,6.32,2c2.23.59,4.43,1.26,6.69,1.74,1,.21,1.93.67,2.94.89,1.24.28,1.86-.09,1.87-1.61,0-1.29.26-2.56.25-3.85a17,17,0,0,1,.32-3.62c.33-1.54.51-3.09.85-4.63.27-1.27.58-2.55.83-3.84a8.61,8.61,0,0,1,.57-1.55c.32-.81.57-1.66.94-2.45.87-1.87,1.56-3.85,3.13-5.34a9.15,9.15,0,0,1,2.41-1.23c.11-.06-.08-.06-.08-.06a1.87,1.87,0,0,0-1.24-.77c-1.54-.44-3.11-.8-4.61-1.33-2.19-.78-4.37-1.59-6.49-2.57a3.08,3.08,0,0,1-.91-.65,5.06,5.06,0,0,1,.85-.22,64.76,64.76,0,0,1,8.47.14c2,.12,4,.24,5.93.21a31.7,31.7,0,0,0,5.39-.56,43.86,43.86,0,0,0,5.08-1.41c3.2-1,5.82-3,8.52-4.83a80.48,80.48,0,0,0,6.85-5.14,4.26,4.26,0,0,0,1.5-2.66Z"/>
  <g class="suitFoldLine">
    <path d="M33.77,166.25a10.38,10.38,0,0,1,4.94,2.14c1.49,1.29,1.76,4.55,1,6.25"/>
    <path d="M141.13,138.44a17.76,17.76,0,0,1-2.31,5.39"/>
    <path d="M60.73,152.84c-.93,1.7-2.87,3.9-4.78,4.54a2.43,2.43,0,0,1-.54.08"/>
  </g>
  <g class="suitOverlapLine">
    <path d="M138.67,125.5c-.13,1.13-.25,2.26-.39,3.39-.23,1.84-.4,3.69-.56,5.54-.07.82-.25,3.5-.25,4,0,1.62-.18,3.24-.14,4.85a22.84,22.84,0,0,0,.18,2.85c.21,1.43.39,2.87.53,4.31.12,1.23.45,2.41.67,3.62.29,1.59.69,3.18.95,4.78.29,1.82.65,3.62.8,5.47.12,1.56.28,3.12.39,4.69.06.8.12,1.59.13,2.39a67.07,67.07,0,0,1,0,7.09"/>
    <path d="M55.8,148a4.34,4.34,0,0,1,.33,1.85,10.84,10.84,0,0,1-1,4.46,32,32,0,0,1-2.33,4.6c-.93,1.41-1.9,2.81-2.89,4.19C48.47,165,47.05,167,45.73,169a7.67,7.67,0,0,0-.93,2.38,10.11,10.11,0,0,1-2.71,4.54"/>
    <path d="M143.14,197.59c.7,2.61,1.33,7,1.38,7.08"/>
    <path d="M48.33,179.18a5.61,5.61,0,0,1-1.92-.93,37.63,37.63,0,0,0-7.25-3.59,20,20,0,0,0-4.93-.87,22.3,22.3,0,0,0-6.15.64A23.05,23.05,0,0,0,22,176.82a4.19,4.19,0,0,0-1.17.74"/>
  </g>
  <path class="lapel" d="M76.2,124.37a8.59,8.59,0,0,0-3.53.21c-1.08.22-2.15.46-3.3.71,0-1-.22-1.83-.28-2.71-.13-2.06-.12-4.11-.14-6.17,0-1.26-.07-2.52-.1-3.77a30.49,30.49,0,0,1,.52-7.08,2.25,2.25,0,0,1,.73-1.26c.71-.64,1.44-1.24,2.19-1.82,1.33-1,2.7-2,4.08-3a2.06,2.06,0,0,1,1.92-.17l-.31.77a6.46,6.46,0,0,0,.52,2.78,36,36,0,0,0,2.4,5.47c.87,1.58,1.73,3.16,2.54,4.77,1,2,2,4.05,2.93,6.09.69,1.47,1.42,2.94,2,4.47s1.08,2.89,1.7,4.31,1,2.67,1.48,4,1,2.51,1.46,3.77c.57,1.5,1.32,2.93,1.77,4.47.58,1.94,1.08,3.9,1.64,5.85s1.13,3.63,1.6,5.47c.38,1.47.85,2.92,1.22,4.39a16.93,16.93,0,0,1,.85,3.58c-3.58,1.74-6.49,4.38-9.6,6.87-.51-1.14-1.16-2.19-1.75-3.27C87.05,160,85.21,157,83.45,154c-1.09-1.89-2.26-3.75-3.45-5.58s-2.31-3.58-3.45-5.37q-3-4.68-6-9.29a17.71,17.71,0,0,1-1.22-2.32.87.87,0,0,1,.08-1A20.89,20.89,0,0,1,71,128.57a42,42,0,0,1,5.09-3.92S76.52,124.43,76.2,124.37Z"/>
</svg>
