<svg viewBox="0 0 165.58 506.84">
  <g class="soleTan">
    <path d="m133.39,490.13c.2,2.14-.16,4.18-1.41,6.06-3.07,3.2-11.58,6.29-19.26,7.29l-1.1-1.47c-17.72,7.21-42.3,5.52-45.53-2.47l67.3-9.41Z"/>
    <path d="m67.76,487.18c.21,1.06.02,2.33-.47,3.45-2.64,3.02-15.39,6.41-23.11,4.7l-.78-1.5c-15,3.91-36.94,9.74-41.64-4.41l65.99-2.24Z"/>
  </g>
  <g class="wadeShoe">
    <path d="m101.8,502.1c9.86-2.7,23.54-2.92,31.59-11.97-.27-6.34-1.48-10.77-4.73-16.1-17.51-8.92-29.65-10.74-32.38-.08-11.93,19.56-32.78,12.58-30.19,25.59,6.73,4.73,24.29,5.69,35.71,2.56Z"/>
    <path d="m33.09,493.47c14.07-3.77,21.25,1.56,34.67-6.28.62-6.26.45-10.31-1.58-15.51-19.35-11.72-30.77-14.65-31.24-5.44-11.85,15.58-34.65,10.06-33.18,23.18,5.12,6.24,16.91,7.91,31.33,4.04Z"/>
  </g>
  <path class="wadePants" d="m53.41,275.46c-7.18,39.96-7.7,62.29-9.46,73.23-1.34,8.37-5.22,11.09-.82,17.62-2.12,78.62-8.81,70.79-3.7,77.51,1.31,12.64-6.94,16.73-4.49,22.42,1.24-2.89,5.68-3.15,9.26-1.47,1.83.86,1.18,2.5.09,5.63,1.52,2.45,18.4,2.98,21.89,1.27,4.63-2.27-.75-6.76,2.05-9.97s.23-10.77.54-17.3c9.01-10.15.2-28.61,7.61-55.88,5.68,16.45,10.54,38.36,15.8,63.35,2.01,9.53-2.52,12.31,5.37,14.97.37,1.73-1.49,4.28-1.26,7.11,1.43-3.75,3.84-3.52,7.65-2.13,2.84,1.04,2.91,2.63,1.94,4.18,2.73,1.11,5.44,3.27,8.35,3.84,5.5,1.06,9.3-3.97,15.84-5.84.96-1.72-3.29-2.18-1.1-5.53,1.04-5.47-4.6-6.99-4.13-11.67,6.37-10.83-2.89-5.38-7.07-49.34-.48-5.09-3.2-18.02-5.09-21.98-1.29-2.71,4-7.63-2.9-10.77,8.17-13.57.77-15.43,1.01-19.07,1.53-22.84,2.61-54.18,6.43-63.16,7.71-18.12,11.35-36.34,2.81-55.42-14.92,7.57-58.55,13.93-69.84,9.46,1.57,18.99-2.34,23.88,3.2,28.94Z"/>
  <g class="beltTan">
    <path d="m64.29,250.46c.05,2.21.54,6.16,1.14,8.66,9.29-.24,20.8-1.46,31.28-3.29-.05-2.58-.83-6.69-1.59-8.87-10.56,2-21.94,3.32-30.82,3.5Z"/>
    <path d="m121,239.35c-4.92,2.58-13.14,4.99-22.31,6.9.77,2.16,1.56,6.32,1.61,8.93,10.38-2,19.29-4.57,23.33-7.33,1.15-.75-1.41-8.7-2.64-8.49Z"/>
    <path d="m50.38,249l.21,9.15c2.66.7,6.69,1.02,11.51,1.02-.6-2.46-1.11-6.44-1.16-8.69-4.71-.07-8.45-.53-10.56-1.48Z"/>
  </g>
  <path class="clothingBrass" d="m53.02,260.66c-.3,1.36-3.09.47-3.42-1.01-.28-1.28-.3-10.57-.05-11.8.2-1.01,3.2-.1,3.43,1.09s.32,10.43.04,11.72Z"/>
  <path class="skinGallic" d="m14.12,40.63c3.11,9.41-1.69,12.83-2.64,18.85,11.6,8.4,22.36,11.84,31.42,5.24,1.33-2.82,2.48-7.11,2.53-9.36-5.61-12.24-18.17-13.93-31.31-14.73Z"/>
  <g class="bottle">
    <path class="labelReverse" d="m12.57,40.11c.44.14.53,1.25.32,2.93l22.68,7.27c.25-1.67.22-2.76-.17-2.89l-22.82-7.31Z"/>
    <ellipse class="bottleBottom" cx="3.42" cy="47.02" rx="8.19" ry="1.83" transform="translate(-42.4 35.93) rotate(-72.23)"/>
    <path class="beerSide" d="m61.1,61.01l-2.29-.73c-.2-.06-.48.17-.79.62-4.3-1.8-8.5-3.65-12.59-5.55-1.61-.79-2.5-1.73-3.08-2.67-.02.58-8.85,1.05-20.65,1.05s-21.06-.45-21.44-1.01c-.08,1.87.25,3.26,1.2,3.55l29.49,9.42c3.13,1,4.68.9,6.6-.26,1.17-.64,2.62-1.18,4.91-.8,4.43.82,8.92,1.75,13.47,2.77,0,.55.08.9.28.97l2.29.73c.5.16,1.48-1.52,2.2-3.76.71-2.24.89-4.18.39-4.34Z"/>
    <path class="beerTop" d="m.25,52.69c0,.58,9.63,1.05,21.45,1.05s20.65-.47,20.65-1.05-8.84-1.05-20.65-1.05-21.45.47-21.45,1.05Z"/>
    <path class="bottleSide" d="m41.9,51.86c.58,1.2,1.45,2.48,3.54,3.5,4.09,1.89,8.28,3.74,12.59,5.55.31-.45.59-.69.79-.62l2.29.73c.5.16.33,2.1-.39,4.34s-1.7,3.92-2.2,3.76l-2.29-.73c-.2-.06-.29-.42-.28-.97-4.55-1.02-9.04-1.95-13.47-2.77-2.29-.38-3.74.16-4.91.8-1.92,1.16-3.47,1.26-6.6.26L1.47,56.28c-3.74-1.17,1.98-19.08,5.71-17.87l29.49,9.42c3.13,1,4.34,1.98,5.23,4.04Z"/>
    <path class="bottleCreaseLine" d="m58.02,60.9c-1.13,2.04-1.82,4.21-2.08,6.5"/>
    <path class="bottleOverlapLine" d="m60.22,62.54c-.7,1.53-1.23,3.14-1.58,4.82"/>
    <g class="label">
      <path d="m12.57,40.11c-.9-.29-2.91,3.48-4.49,8.41-.8,2.5-1.34,4.82-1.56,6.53h0s22.97,7.36,22.97,7.36c.26-1.7.82-4.02,1.62-6.51,1.58-4.93,3.5-8.73,4.28-8.48l-22.82-7.31Z"/>
      <path d="m51.31,58.02c-.71,1.06-1.41,2.29-1.99,3.63-.16,1.44-.22,2.9-.19,4.3-1.67-.34-3.33-.67-4.98-.98.51-1.28,1.12-2.31,1.9-3.46.17-1.94.46-3.7.84-5.47,1.46.67,2.93,1.33,4.42,1.99Z"/>
    </g>
  </g>
  <g class="wadeShirt">
    <path d="m65.34,116.29c-2.12.78-6.76-2.29-11.44,2.94-2.62,2.27-8.84-.79-9.75,4.1-1.66-.36-3.36-.36-5.13.12h0c1.39,3.93.97,22.18-.17,26.87,4.09-.52,6.14-2.22,10.11-1.57,5.35.89,8.24-2.58,11.58-2.26l19.16-34.04c-5.56.54-10.26,1.67-14.36,3.84Z"/>
    <path d="m50.2,246.53c11.29,4.47,54.92-1.89,69.84-9.46,2.09-8.98-4.52-17.97-3.03-24.58,4.49-5.62.87-10.74,1.37-12.61,4.12-3,0-8.86,2.22-12.49,11.19-.27,20.92-1.89,28.61-5.42-.95-1.3-1.49-3.07-1.62-5.31,2.37-3.99-2.37-12.86-3-15.73-2.5-9.74-3.27-20.35-6.37-24.72.57-3.61-.24-7.05-3.13-10.22-4.23-6.38-8.52-13.92-14.15-15.4l-40.59.39c-8.16,7.25-9.45,14.44-14.91,23.48-6.87,11.36-11.42,28.87-13.61,45.44-1.25,12.48-5.74,23.72-5.24,36.45.45,11.51,1,22.23,3.6,30.17Z"/>
  </g>
  <g class="wadeShirtInner">
    <path d="m149.22,181.96c2.01,2.88,1.12,8.68,2.6,14.4-1.64,3.8-26.18,7.13-28.03,5.9-1.42-.95.41-3.39-.41-4.72-2.16-2.87.92-4.31-.21-5.85-2.36-.17-3.28-1.56-2.57-4.31,11.19-.27,20.92-1.89,28.61-5.42Z"/>
    <path d="m82.04,110.35c.11-1.16.16-1.67.29-2.98-3.25,1.73-4.85,1.94-6.49,3.49-.91.66-2.19,4.2-2.36,8.08,1.89-3.38,4.64-5.43,6.93-7.77.84,3.07,1.82,8.43,1.52,13.63,7.9-6.57,26.17-13.58,39.02-14.2.14-2.82-1.12-8.23-3.31-9.38-1.64-1.31-23.87,4.85-35.6,9.14"/>
    <path d="m39.02,123.45c-.88-1.51-3.06-.93-4.16.31-.36-.28-.76-.49-1.2-.63-5.82.51-16.81,16.24-12.1,26.5.32,2.63,15.99,3.13,16.96,1.63,1.39-2.14,2.02-23.51.5-27.8Z"/>
  </g>
  <g class="clothesDisplayLine">
    <path d="m75.03,153.01c5.89,1.47,14.18,1.85,22.97,2.53"/>
  </g>
  <g class="clothesOverlapLine">
    <path d="m109.25,147.4c-.49,6.04,4.85,10.91,4.63,16.82-.13,3.51,2.97,5.17,2.42,11.09-.4,4.37,3.95,7.26,4.31,12.07"/>
    <path d="m53.41,275.46c6.4,8.57.7,11.3,7.23,15.7-4.13,6.13,1.15,5.96,2,15.15.79,8.58,2.92,27.07,6.98,45.98,2.74,12.77.85,21.63,6.3,28.1-1.06,2.5-.68,5.96.45,8.13"/>
    <path d="m105.88,476c-1.15,2.21-2.45,4.32-3.89,6.33"/>
    <path d="m44.29,470.4c-.42,1.25-1.74,3.24-3.14,4.75"/>
  </g>
  <g class="clothesFoldLine">
    <path d="m30.49,129.65c-.49,7.53-1.04,14.8-3.13,13.77"/>
    <path d="m34.85,123.76c2.68,10.61-1.54,26.26-2.14,12.16"/>
    <path d="m44.15,123.33c-.3,2.32-.53,4.75-2.75,3.88"/>
    <path d="m42.37,141.91c1.46-5.47,3.47-1.87,5.59,3.59"/>
    <path d="m51.61,125.07c-6.52,4.47-3.91,11.65,2.9,20.08"/>
    <path d="m60.79,117.9c2.3,2.09,5.07,3.63,8.28,4.69"/>
    <path d="m61.41,128.25c-3.88-4.83-3.52,3.59,1.17,9.04"/>
    <path d="m132.79,130.45c2.04,3.89,3.74,3.23,5.44,5.76"/>
    <path d="m144.51,170.77c-1.11,6.21-15.22.37-21.8,1.11"/>
    <path d="m147.6,176.66c-1.61,2.46-5.51,4.1-2.64,5.05"/>
    <path d="m120.57,175.35c4.14,1.55,21.47,1.69,20.03,3.99-2.14,3.4-10.42,6.65-18.03,2"/>
    <path d="m123.17,191.69c10.26-.46,21.19-3.56,10.18,2.13"/>
    <path d="m124.56,197.52c5.68.3,12.04-.87,18.77-2.88"/>
    <path d="m68.33,166.93c8.79,3.99,26.77,8.2,5.39,17.14"/>
    <path d="m82.96,169.66c8.4,6.6,18.86,8.74,30.37,8.65"/>
    <path d="m75.72,186.88c11.29-4.93,24.34-6.33,38.65-5.17"/>
    <path d="m83.63,207.72c10.71-5.02,17.51-3.1,4.73,5.69"/>
    <path d="m116.88,194.12c-8.45,4.41-16.78,8.6-21.36,6.13"/>
    <path d="m118.39,199.88c-19.98,6.29-30.62,19.81-5.35,7.47"/>
    <path d="m117.01,212.48c-5.38,5.06-19.65,9.49-3.91,14.59"/>
    <path d="m113.26,231.14c-6.75-1.79-13.92,3.83-21.36,13.88"/>
    <path d="m86.21,223.31c19.73-14.04,21.01,3.1-.27,22.24"/>
    <path d="m54.36,243.78c4.58-4.06,8.05-3.81,3.47,3.55"/>
    <path d="m62.86,242.37c-.67,1.92-2.26,4.27-2.22,5.62"/>
    <path d="m76.61,237.57c-2.9,3.8-5.96,7.34-9.38,10.32"/>
    <path d="m76.61,242c-1.65,1.81-3.25,3.63-4.36,5.58"/>
    <path d="m120.32,134.31c-2.97,3.12-13.13,23.67-5.12,14.81"/>
    <path d="m117.66,131.17c-3.69,4.98-8.39,21.23-6.21,5.26"/>
    <path d="m109.47,128.51c-1.34,6.91-1.99,13.48-.22,18.89-2.87-1.27-5.38-3.46-7.22-7.35"/>
    <path d="m105.44,133.77c.18,4.6.86,8.53,3.05,10.45"/>
    <path d="m60.64,291.16c1.12.98,5.48-.11,2.75,3.7"/>
    <path d="m90.45,344.26c5.08,10.35,12.42,20.63,19.61,17.61"/>
    <path d="m43.13,366.31c2.68,2.94,4.54,5.54,5.01,7.54"/>
    <path d="m44.87,362.78c.03,3.46,7.81,6.17,12.17,10.71"/>
    <path d="m75.93,380.39c4.35,4.9,11.58,7.67,7.08,10.35"/>
    <path d="m109.79,374.72c-4.1-1.49-4.92-3.51-.99-6.31"/>
    <path d="m106.98,378.21c4.32,4.23-.7,5.51-9.99,5.45"/>
    <path d="m110.79,434.33c4.88,7.29,9.73,14.38,13.44,15.07"/>
    <path d="m124.84,456.8c-2.98,3.31-9.61,5-4.43,7.13"/>
    <path d="m97.72,446.68c3.45,7.63,13.37,17.21,1.63,14.71"/>
    <path d="m97.55,466.84c4.87,2.6,15.9,1.29,16.33,4.17.32,2.16-2.54,2.72-6.36.73"/>
    <path d="m41.24,440.87c4.17.73,6.65,1.99,5.63,4.36"/>
    <path d="m68.77,444.4c-2.06,1.88-3.88,2.65-5.56,2.82"/>
    <path d="m41.42,450.13c3.27,10.71,14.82,12.81,13.1,14.92-1.65,2.03-10.02-1.12-13.83-5.84"/>
    <path d="m61.63,464.78c-5.5.6,1.58-3.58,4.3-6.66"/>
  </g>
  <g class="eye">
    <circle class="sclera" cx="82.6" cy="46.04" r="5.43"/>
    <path class="irisGreen" d="m79.71,48.87c-.35-.21-.32-2.13.75-3.85,1.07-1.73,2.76-2.61,3.11-2.4-.92,2.31-2.2,4.4-3.86,6.25Z"/>
    <path class="pupil" d="m80.13,46.48c-.28-.17-.08-.8.33-1.47s.89-1.13,1.17-.96c-.4.87-.9,1.69-1.5,2.43Z"/>
  </g>
  <g class="skinGallic">
    <path d="m23.39,36.96c-2.01-.31-3.48.7-3.98,2.06h0c-1.29-.67-1.71-2.04-2.93-2.12-1.99-.06-2.84,1.17-2.51,3.73l10.22,3.26,3.59-3.5c-2.11-1.38-2.8-3.19-4.39-3.44Z"/>
    <path d="m45.28,55.36c-1.26-3.37-.54-7.17-1.78-8.78-1.54-2.57-3.84-2.76-6.39-2.15.04-1.83-1.07-3.25-2.87-4.63-2.14-1.65-4.43-.39-7.11.91-1.63,1.04-2.09,2.48-3.78,4.04-1.24,2.54,3.2,4.83,7.31,1.2l2.4.77c-.91,1.15-1.68,1.75-2.37,2.34-1.9,3.12,2.92,5.99,6.97,1.66.95.17,1.99-.05,3.09-.51,1.27,1.35.92,3.35,4.52,5.16Z"/>
    <path d="m32.02,66.04c1.1-1.39,2.94-2.83,4.61-4.04-2.25-3.75-1.33-9.29,3-8.77.92.46,1.22,3.58,2.16,4.7,1.51,1.79,2.51,3.38,1.53,5.45-1.7,3.6-1.61,5.88-3.67,7.73-2.96,2.66-3.7,4.79-8.99,5.71-2.19,23.91,2.49,35.47,2.83,45.97.15,4.52-4.52,8.46-7.44,10.5-.91,5.22-2.53,10.69-4.67,16.33-5.01-.45-9.92-.95-11.37-4.23-8.02-18.08,2.68-43.16,4.43-70.86.28-1.93-4.54-7.16-3.12-15.07l20.69,6.57Z"/>
    <path d="m126.65,300.59c3.04.29,4.27-1.47,5.85-5.68,3.32-8.9.08-23.52,2.05-27.77,4.23-18.08,15.59-40.82,15.88-57.59.08-4.61.34-7.85-.5-11.72-5.49,2.88-21.74,5.12-25.58,4.63-.97,21.97.4,40.89-5.2,60.78-1.67,5.78-7.25,7.84-11.95,18.63-2.66,4.41-1.97,6.4-3.41,9.91-1.6,3.91-3.59,6.87-2.06,7.92-2.53,2.62,1.01,3.11,2.33,4.88,1.92,2.57,5.13,2.61,7.77,1.25,2.6,1.37,5.08,1.03,7.19-1,3.89,1.55,6.17-1.6,7.62-4.23Z"/>
    <path d="m71.29,82.63c8.54,2.96,14.24,12.45,10.6,27.73,10.15-3.72,28.31-8.83,33.92-9.29-.85-3.37.59-8.87,2.84-10.42,5.13-26.6-18.09-17.07-47.36-8.02Z"/>
    <path d="m95.66,87.67c-4.63,5.11-14.55,4.98-19.91,4.16-4.92-.75-9.79-1.4-15.67-4.18-4.07-1.92-6.25-5.52-3.35-8.66,3.61-3.92,4.37-5.48,2.29-7.54.48-3.85,4.53-3.13,7.43-1.51-2.55-2.6-4.99-6.27-4.07-7.63s4.03-3.51,3.1-4.75c-1.82-2.44-5.24-3.86-3.95-6.82,1.11-2.54,14.74-6.08,15.8-7.47,1.77-2.33.79-6.03,2.53-8.69,2.46-3.77,7.76-10,11.85-12.76,12.53-28.88,64.6,58.98,22.34,57.89-4.55.79-8.12,3.63-11.6-.41m-22.41-33.39c1.64.66,3.56,1.34,5.6,2-1.83-1.23-3.52-2.38-4.9-3.32-.21.23-.68.95-.7,1.31Z"/>
  </g>
  <g class="skinOverlapLine">
    <path d="m126.8,300.59c.75-1.69,1.69-3.95,1.95-5.71"/>
    <path d="m119.19,304.82c1.81-2.38,2.99-5.05,3.73-7.93"/>
    <path d="m112,305.82c1.53-1.11,3.63-5.48,4.26-8.62"/>
    <path d="m109.29,284.84c-2.64,9.23,1.13,7.59-2.32,13.81-1.74,3.13-4.59,1.76-5.08,1.05"/>
    <path d="m19.56,39.01c-.4,1.46.14,2.72,1.43,3.81"/>
    <path d="m37.27,44.43c-1.46.62-3.25,1.55-4.05,2.3"/>
  </g>
  <g class="skinFoldLine">
    <path d="m114.17,68.34c9.69-8.42,13.82,9.63-2.23,9.12"/>
    <path d="m112.3,70.08c1.6,2.22-2.11,2.55-3.27,3.92-1.05,1.25.52,1.7,1.51.94.77-.59,2.08-1.33,3.81-.91,2.88.7,5.37-3.42,2.05-4.38"/>
  </g>
  <path class="skinCreaseLine" d="m27.52,77.08c-6.41-.36-5.85-2-9.96-2.64-1.26-.19-2.35-.51-3.27-1.37"/>
  <path class="lipMaleLight__noStroke" d="m67.12,70.33c-2.26-2.58-4.04-5.71-4.74-8.02-.92,1.36,1.52,5.03,4.07,7.63-2.9-1.62-6.95-2.34-7.43,1.51,4.43,1.64,6.64-.79,8.1-1.11Z"/>
  <path class="lipEdgeLine" d="m59.02,71.45c.73.47,2.43.61,3.84.6"/>
  <g class="noseLine">
    <path d="m72.98,55.67c.72,1.74-1.16,4.68-3.93,3.69"/>
    <path d="m68.66,58.01c-.94-1.59-2.21-2.72-3.88-3.26"/>
  </g>
  <g class="eyeLidLine">
    <path d="m80.75,44.6c-1.84-1.04.48-2.91,2.93-4.2"/>
    <path d="m80.05,45.91c-1.9-.59-2.54,1.5-.98,2.84"/>
  </g>
  <path class="eyeCornerLine" d="m85.65,47.92c.46.29.9.56,1.35.78"/>
  <path class="eyeCreaseLine" d="m84.6,45.79c-1.25-1.16-2.84-2.37-4.09-3.14"/>
  <path class="eyebrowSandy" d="m82.63,33.14c-1.04,2.68.91,4.28,4.31,6.16,1.03.52,2.33,2.79,3.7,5.05.22.42,1.63-.15,1.42-.57-2.19-8.31-5.61-6.87-9.43-10.64Z"/>
  <path class="hairSandy" d="m106.74,60.37c2.68,2.05,3.48,3,7.13,4.86,13.11-7.57,17.13,12.2.19,14.47.13,4.6,2.4,7.94,4.59,10.94,14.14,1.94,28.56-7.64,34.42-21.39.24.43.41.98.52,1.61,1.23-2.54,2.05-5.65,2.68-9.04.75.71,1.3,2,1.54,3.25,1.2-3.15.91-6.65-.36-10.1,1.72.49,2.82,1.77,3.37,3.71.64-3.61.05-6.85-1.97-9.65,2.33-2.1,4.25-4.8,5.95-7.8-2,1.43-3.93,1.84-5.76.84,1.65-2.63,2.13-5.56,1.89-8.68-.87,1.51-1.76,2.7-2.71,3-.82-3.44-.43-6.49,1.35-10.02-2.05.74-3.83,1.43-5.44,3.1.28-4.48-2.1-8.31-1.37-13.6-1.63,1.62-2.64,4.72-3.81,4.1-.92-3.84-2.82-7.21-5.55-10.16.57,1.88,1.07,4-.03,4.87-2.83-4.67-7.45-7.42-8.36-12.61-.99,2.18-1.69,4.3-1.92,6.32-3.1-3.78-6.31-6.77-9.76-7.94.78,1.43,1.25,2.81,1.15,4.11-2.49-.38-3.5-3.46-8.07-4.14,1.04,1.66,1.88,3.21,2.14,4.44-4.21-2.6-8.77-3.61-13.75-2.75,1.74.79,3.23,1.83,4.39,3.21-4.1-.98-8.08-1.19-11.89-.26,1.13.63,2.09,1.43,2.81,2.45-3.39.72-6.52,2.08-9.34,4.22,2.12-.08,3.97.11,5.35.75-4.92,2.87-6.74,6.7-4.1,11.92.2-2,.9-3.63,2.29-4.75.9,3.84,3.56,6.1,7.23,7.44-1.01-1.54-1.82-2.8-2.04-4.23,2.73,3.42,9.21,1.37,12.14,5.09-13.46,16.54,3.54,21.38-4.91,32.43Z"/>
</svg>