<svg class="presence" 
  xmlns="http://www.w3.org/2000/svg" viewBox="0 0 2783.58 1357.4">
  <path class="bennettUndershirt" d="M2263.53,620.51c48.42,81.22,129.18,113.1,56.92,265.07-151.26,32.14-349.44-82.51-559-232.73a446.8,446.8,0,0,1,80.76-61.64s-25.88,8.69-34,12.75c-14.58,7.29-90.3-111.23-75.46-118,68.85-31.23,121.15-71.2,183.85-66.95,31.78,2.15,120.09,42.51,178.38,70.87Z"/>
  <path class="miriamNightie" d="M1579.71,1215c25,17.2,48.87-2.79,57.06,4.27,38.92,33.32,78.47-2.85,107.91,14.82,35.73,21.43,46.28-4.21,66.34,1.41,11.91,7.84,27.89,7.84,42.71,0C3024.23,982,1102.41,141.23,1579.71,1215Z"/>
  <g class="blanket">
    <g class="bennettBlanket">
      <path d="M222.27,960c21.94-148.31,137.1-120.59,170.57-146.2,90-68.9,135.68-79.36,263.46-48.73,78.49-72.83,165.94-34.65,194.93-36.55,50.7-3.33,95.4-61.77,198-19.8,71.84-38,187.32-72.23,265-77.67,33.82-75,155.67,20.57,236,0C1556.13,934.35,1048.31,1015.85,222.27,960Z"/>
      <path d="M1388.88,688.57c25.59-64.57,87.44,18.46,182.34-8.07,24.12,160.82-16.52,303.09-16.52,398.45,0,72.52,26.93,165.43,78.12,185.29-18.86.2-37.7-4.62-56.52-15.81-31.14,7.57-60,11.61-78-1.7-26.52-13.21-38.43-5-59.31,5.93-50,26.27-164.93,10.1-204.19-24.57-35.09-17.44-50.53-11-68.62,9.32-20.34,22.88-56.71,12.74-75.41,9.32-60.16-11-167,61-351.61,5.93-180.88-54-249.09,38.13-351.61-16.1L119,1259.44c-41.52-.85-71.17-29.65-118.62-15.25,44.61-19.54,82.16-43.27,108.45-73.71-2.54-38.13,28-62.7,56.77-88.12-11.87-44-6.78-89.81,60.15-138.95C313,862.08,404.54,817.17,469.78,835c27.17,7.42,14.4,23.73,100.82,44.91,138.11-119.46,245.71,0,338.06-13.56,36.2-47.27,71.42-66.33,105.06-39.82,10.69-39.18,71.08-34.9,94.89-55.92C1193.48,695.67,1323,661.28,1388.88,688.57Z"/>
    </g>
    <g class="bennettBlanketInner">
      <path d="M119,1259.44c62.43,11,93.07-5.85,134.47-8.57,56-3.68,92.16,2,134.11-14.31C232.55,1137.26,224.17,1238.63,119,1259.44Z"/>
      <path d="M1234.85,1228.09c-29.62-.22-55.65,15.69-84.29,20.16,43-27.67-13.5-49.65,7.29-70.69C1188.36,1146.68,1211.89,1207.71,1234.85,1228.09Z"/>
      <path d="M1430.27,1256.59c37.65-31.85-19.62-59.47,10.09-81.36,48-23.11,32.18,50.07,58,71.5C1471.83,1243.89,1449.66,1255,1430.27,1256.59Z"/>
      <path d="M1515.16,1254h0c16.93,3.58,38.44-.06,61.14-5.57C1551.43,1225,1536.39,1248.25,1515.16,1254Z"/>
    </g>
    <g class="blanketFoldLine">
      <path d="M1314.19,631c23.47,10.59,41.66,27.92,54.87,51.57"/>
      <path d="M1049.2,708.67c-39.33,18.5-61.5,44.09-91.75,49.33"/>
      <path d="M976,734.11c-23.9,8.48-52.42,33.14-24.67,55.5"/>
      <path d="M656.3,765c-25.7,22.28-52,49.45-73.49,72.38"/>
      <path d="M108.85,1170.48c2.66,13.54,19.47,13.54,5.81,32.46"/>
      <path d="M165.62,1082.36c5.28,10.35,7.84,20,4.74,28.1"/>
      <path d="M416.26,1103.1c-92.47,82-261.66,58.85-260.61,12.62"/>
      <path d="M570.6,879.87C511.89,932.86,449.89,977,369,997"/>
      <path d="M753.59,1031.65c-51.49,97.73,211.23,59.9,330,184.95"/>
      <path d="M908.66,866.31c-43.67,56-48.93,117-106.73,180"/>
      <path d="M1013.72,826.49c-21.58,90.61-69.92,142.1-46.8,47.52"/>
      <path d="M867.64,938.42c-188.66,63.8-177.1,86.92-266.42,186.75"/>
      <path d="M1388.88,688.57c-15.27,79.31,54.09,214.87-104.6,416.64-50.69,64.45,100.89,87.22,51.5,110.34"/>
      <path d="M1320,1123.07c2.73-22.11,126.85-30.8,175.5-11.56"/>
      <path d="M1374.66,1225c44.9-29.91,12.74-81-10.77-120.38"/>
    </g>
  </g>
  <path class="clothesOverlapLine" d="M1892.05,561.23a477.72,477.72,0,0,0-49.83,30"/>
  <g class="clothesFoldLine">
    <path d="M1818,765.86c-37.35,17.59-90.62,78.78-119.68,138.72"/>
    <path d="M1791,816.14c-30.23,41.7-56.5,85.77-71.68,133.33"/>
    <path d="M1797.62,904.54c-20.73,29.69-43,55.82-72.62,72.41"/>
    <path d="M1625.06,1132.8c-18.77,27.25-44.64,53.23-49.65,49-4.38-3.66,15.78-29.73,14.62-43.57"/>
    <path d="M1689.85,1112.22c-42.65,45-77.67,79.26-106.55,99.29"/>
    <path d="M1715.88,1151.57c-25.31,27-57.52,58.13-74.47,59.94"/>
    <path d="M1769.77,1129.77c-26,25.43-45.12,64-72.66,79.32"/>
    <path d="M1871.49,1055.91c-10.29,46.2-64.79,90.82-124.12,151.36"/>
    <path d="M1848.48,1197c86.58-80.53-41.78-36.33-72.66,26.64"/>
    <path d="M1933.85,1152.78c11.26-42.48-35.72-2.42-62.36,61.47"/>
    <path d="M1811,1235.46c-5.48-1.55-5-11.84-16.43-16.08"/>
    <path d="M1966.54,1143.7a45.71,45.71,0,0,0,15.89,24"/>
    <path d="M2012.06,1113.09a361.88,361.88,0,0,1-7.41,48.58"/>
    <path d="M2040.54,1129.77c-3.34,10.48-11.81,18.74-17.84,28.13"/>
    <path d="M1895.82,824.1c-43,111.63-148.42,190.87-176,207.39"/>
    <path d="M1881.3,896.69c-35.14,65.59-97.61,121.64-151.68,173.71"/>
    <path d="M1915.85,911.2c-2.16,46.37,2.5,94.62-2,141.17"/>
    <path d="M1942.38,839.12c-12,69.48-1,148.68,3,222.27"/>
    <path d="M1962.9,877.16c6.48,40.72,18.33,78.34,38.55,111.14"/>
    <path d="M1927.62,460.21c-11.16,63.39-39.94,121.12-41.16,38.65"/>
    <path d="M1943.68,494.85c-15.92,27.92-32,54.95-51.63,66.38,32.44,1.44,84.24-8.28,139-19.7"/>
    <path d="M1998.4,532.5c-31.91,8.1-55.41,15-76.8,16.06"/>
    <path d="M2200.21,780c5.48,18.81,8.24,38.63,4.78,56.39"/>
    <path d="M2217.78,742.33c4.48,33.84,4.55,68.25-8.33,102.42"/>
    <path d="M2246.89,710.21c-21.58,40.16-11.54,65.76-17.07,106.42-1.46,10.76,23.6-8.53,33.14-29.62"/>
    <path d="M1874.14,763.91c-13.69,10.08-30.23,25.84-38.86,40.33-14,22.2-25.55,5.24-3.15-19"/>
  </g>
  <g class="eye">
    <path class="sclera" d="M2074,295.18c0,59.28,52.06,106.35,111.35,106.35s103.35-47.07,103.35-106.35a107.35,107.35,0,1,0-214.7,0Z"/>
    <g class="irisDarkBrown">
      <ellipse cx="2222.13" cy="309.26" rx="21.74" ry="19.42" transform="translate(1200.99 2306.95) rotate(-70.85)"/>
      <ellipse cx="2102.16" cy="267.59" rx="21.74" ry="19.42" transform="translate(1159.74 2165.62) rotate(-70.85)"/>
    </g>
    <g class="pupil">
      <ellipse cx="2220.08" cy="307.52" rx="8.46" ry="7.55" transform="translate(1201.26 2303.85) rotate(-70.85)"/>
      <ellipse cx="2100.11" cy="265.86" rx="8.46" ry="7.55" transform="translate(1160 2162.53) rotate(-70.85)"/>
    </g>
  </g>
  <g class="skinEastAsian">
    <path d="M2377.43,488.08c-23.35,1.17-89.3,60.44-113.9,132.43-20.09,125-265.64-73.66-168.54-130.59"/>
    <path d="M1565.5,899l79.56,153.94c10.74,24.64,21.41,28.19,34.56,22.86,26.66,10,42.3-39.1,45.54-76.26,4.33-66.39-33.92-88-48.35-147.22-11.44-61-17.6-111.39-19.13-173.82,52.82-28.17,99.48-42.26,148.3-79.4.73-19-50.29-107.15-66.33-110.07C1645.24,524.82,1523.43,588.29,1512,627,1487.77,708.43,1522.86,803.82,1565.5,899Z"/>
    <path d="M2282.59,547.31c-39.09,16.76-84.5,21.4-124,18.42-46-3.48-58,5.41-106.59-28.74-19.1-13.42-21-25-33.87-71.39-30.06-108,52.54-190.74,57.81-210.78,22.68-86.3,65.88-72.72,97.12-157.19,204.93-56.24,402.72,254.06,297.2,362-26.44,53.2-66.16,47.66-83.05,57.8-14.06,8.43-37.9,4.8-41.55-17.11M2198.85,312.14c23.37,27.18,49.81,25.69,73,21.46-5.07-12.6-17.55-31.77-35.08-37.05-16.13-5.36-27.22-1.37-40.64,8.86C2191.93,309.62,2197.14,310.1,2198.85,312.14ZM2139,283.39c-7-12.46-11.12-35.13-44.16-31.17-2.76,3.54-9.09,15.84-8.13,21,14.48,21.91,41.36,11.37,47.1,14.17C2137.78,289.34,2140.57,286.23,2139,283.39Z"/>
  </g>
  <path class="hairBlonde" d="M2594.69,1109.33c37.7,22.8,119,12.55,145-30.83,35.09-37.89,57.44-109.29,31.71-159.85,16.07-63.66-14.17-132.68-69.53-179.48-48.26-40.79-107.44-57.93-208.51-37.56-69.66,9.81-134.39-1.44-182.6,53.73C2265.23,795,2265,808.1,2159.08,857.76Z"/>
  <g class="skinNordic">
    <path d="M2397.78,1048.09c-42.3-13.58-134.65,0-154.18,19.89-20.92,19.89,38.49,96-43.25,175,15.38-1.19,32.5-2.62,52.76-5.46,20.22-6.27,18.84-27.75,56.1-35.14,14-2.78,44.34,2.46,70.85-1.88,6.48-5.92,10.74-.59,15.82.41-2.31-8.69,4.78-27.48,16.48-15.78,9.23,9.55,19.08,4.94,28.32,20,9.07,14.79,13.86,58.19,5.86,64-2.78,28.64-38.19,43.11-68.36,63.74-18.17,13.24-85-19.4-127.08-17.5-147.44-.79-314.8,101.8-416.06-14.71-29.66-34.13-3.41-66.28,29.53-82.68,59-29.36,131-63.57,200-64,128.88-108.51-8.64-105.52-17.61-192.22-6.74-65.07,121.58-88.7-39.66-205.3-39.07-21.92-96.88-19.93-132.59,7.48-11.4-14.91-30.41-13.6-56.12,1.95-15.21-12-35.08-10.18-57.26-1.48-23,53.8-88.39,93.46-103.13,148.51-2.18,9.51,4.81,35.27,3.33,82.09-.56,17.94-12.18,39.91-10.46,59.78,1.18,13.71-6.17,29.47-3.09,41.12.69,13.36-38,4.23-31.07-31.52,1.35-7,.33-14.23.88-20.21-11.9,25.36-9.45,45.3-12.83,62,17,17.4,2.23,44.16-10.26,35.69-11.59-11.6-22.3-9.37-23.64-31.68-14.49-1.11-23.67-8.13-27.21-21.41-17.4,2.23-26.77-7.58-35.69-38.36-25.92-3.78-18.69-53-6.14-83,20.86-49.86,58.78-74.5,73.65-107.17,31.84-79.48,41.1-187.5,126.75-221.45,26.37-10.46,128.85,2.31,234.56,24.69,77.88,16.48,172.84,8.48,227.62,67.9,24.41,26.47,30.87,118.82,58.84,125.59,33.55,15.54,82.53,7.38,158,5.34m-6.44,409.91c7.54-5.59,11.43-9.26,21.59-12.34a41.9,41.9,0,0,1-8.62-15.09c-7.16-.23-12.35-2.48-16-5.71-8.18,3.54-19.84,0-22.15,4.1C2345.73,1254.7,2369.41,1261.84,2375.06,1272.29Z"/>
    <path d="M2435.52,717.16c-52.49,2.55-57.88,40.32-76.58,54.31-11.61,8.68-12.7,35.89-.73,47.6-49.16,31.39-75.69,70.44-86.27,131.71-7.52,43.51-10.93,51.29-4.57,78.69,8.41,36.18,22.29,36.29,51.73,62.11,69.74,61.17,175.28,38.62,184.11,35.2,39-15.14,62.23,11.71,177.26-51.8,30.44-32.87,47.53-63,28.61-111.81,19.82-56.41-6.63-99.53-64.27-129.35-38-19.67-87.41-5-140.92-40.84-21.85-2.58-43.23.81-64.23,8.78,5.12-21.66,52.41-20.54,30.12-37.38C2479.45,744.71,2470.81,722.06,2435.52,717.16Z"/>
  </g>
  <g class="miriamNightieLace">
    <path d="M2239.25,1090c-12.91-4.67-53.79-7.91-93.87-8.76a24.54,24.54,0,0,1,1.93,14c36.55-.49,77.07,2.58,94,9Z"/>
    <path d="M2125.42,838.48c24.77-6.05,53.07-12.36,75.27-12.46l-4.56-13.27c-19.27-.32-46.9,5-77.4,13.09A19.87,19.87,0,0,1,2125.42,838.48Z"/>
    <path d="M2006.73,756.44c22.44,22.26,29,41.44,34.53,51.78,4.35,8.22,24.63,23.22,32.88,41.55-5.83,27.6-17.19,37.66-26.18,56.57-9.82,20.65-12.5,39.16-31,59.54,18.47,18.3,20,40.16,28.22,46.86,10.16,8.22,24.84,31,27.69,39.91,2.91,9.15,20.14,19.07,28.72,39.75-1.9,13.5-16.36,30-23.13,37.73-5.76,6.58-8.68,17.33-14.48,23.82,15.49-.74,30.18-.38,43.6,1.71,6-3.28,8.26-10.33,8.11-19.75,12.09,1.2,15.13-7.81,15-20.41,21.77-9.53,23.13-36.74.68-48.3-.3-17.17-7.72-27-23.13-28.57,1.1-16.78-5.58-27.65-21.77-31.3,1.86-16.08-5.28-26.6-18.4-29,10.71-8.25,7.25-25.45,0-30.85,12.56-2.72,18.08-11.31,15.64-26.53,12.8-4.44,18.12-13.44,15.65-27.21,14.63-5.43,19.1-16.5,15.65-32,17.68-15,12.24-38.77-9.53-41.49-7.31-10.34-16.15-16.82-28.57-14.29-1.36-12.38-8.81-20.37-24.49-22.45C2041.87,765.89,2025.63,758.7,2006.73,756.44Z"/>
  </g>
  <g class="skinOverlapLine">
    <path d="M1689.22,990.14c-1.07,22.39,1.42,37.32,1.06,53.67-.27,12.46-2.49,26-10.66,32"/>
    <path d="M1517.92,992.88c-6,20.68-15.23,43.4-9.74,57.58"/>
    <path d="M1552.08,998.42c-13.19,41.71-19.19,51.47-8.21,90.4"/>
    <path d="M1588.86,1003.9c-12.84,45.63-21.39,68.09-17.78,106.33"/>
    <path d="M1642.62,998.9c-4.28,14.26-18.56,22.65-24.81,45.31"/>
    <path d="M2395.88,1200.9c8.78,4.24,18.83,1,26.64,9.17,11,11.5,21.83,33.36,24,59.11"/>
    <path d="M2372.07,1239.15c-10.81-9.69-7.29-28.16.57-27.24,23.71,12.32,38.49-1.54,52.2,28.46,16.61,36.35-.55,34.54-24.8,60.84"/>
    <path d="M2380.06,1200.49c-3.56,4.41-5.25,8.67-4.69,12.74"/>
    <path d="M1601.6,610.55c31.5,10.94,50.59,30.38,54.15,59.9"/>
    <path d="M1760.77,764.39a124.63,124.63,0,0,0,7-40"/>
    <path d="M2107.61,1155.66c20.27,3.93,37.85,13.17,53.41,26.37"/>
    <path d="M2200.35,1243c-152.12,11.65-229.18-63.73-307.35-26.32"/>
    <path d="M2044.89,773.56c9,1.21,20.37,7,30.18,6.52"/>
  </g>
  <g class="skinFoldLine">
    <path d="M2253,1263c28.55-62.73,110.66,27.14,122,9.31"/>
    <path d="M2338.61,1232.6c5.69,3.83,9.23,10.14,11.8,17.1"/>
    <path d="M2414.73,429.26c49.27-29.76,69.48,46.12-3.94,67"/>
    <path d="M2402.89,445.44c9.94,18.6-29.71,23-22.11,35.22,4.74,7.61,13.7-9.85,30.94-6.19,31.75,6.74,30.77-31.74,13.33-27.82"/>
    <path d="M2448.28,766.78c27.91-25.08-30.65-53.78-60.38-7.07"/>
    <path d="M2420,782c-15.56-13.59-25.07,22.85-33.33,13.19-5.7-6.67,8.29-9.65,10.53-20.34,5.09-24.34,37.86-23.57,34.05-6.49"/>
  </g>
  <g class="skinEdgeLine">
    <path d="M1681.36,1043.24c-4.62,3.56-17.41,4.27-22.39,2.14"/>
    <path d="M1712.29,1037.2c-3.55,3.2-12.43,5.77-17.06,3.91"/>
    <path d="M1662.73,964.28c16.12-4.09,21.12,12.13,40,2.18"/>
    <path d="M1601.89,1065.62a45.63,45.63,0,0,1-23.11-4.3"/>
    <path d="M1544.31,1051.86a64.42,64.42,0,0,0,24.24,5.13"/>
    <path d="M1532.05,1042.73c-7.42.86-15.12-.57-20.25-3.71"/>
  </g>
  <path class="lipMaleMedium__noStroke" d="M2093.6,477.75c41.66,18.16,52.19-3.64,78.25,1,4.85-35.22-24.9-45.18-46.12-60.51-14.6,0-26.33-2.51-36.13-11.88-3.45,5.73-17,4.35-24.62,14.15C2071.4,428,2048.17,458,2093.6,477.75Z"/>
  <g class="eyebrowBlack">
    <path d="M2204.8,239.22c12.34,39.53,72.54,36.33,96.9,69.86C2291.06,260.49,2242,267.09,2204.8,239.22Z"/>
    <path d="M2159.85,224.1c-30.18-5.21-40.78-20.39-64.87-16.38-1.88,3.15-3.9,6.83-5.65,10.44C2122.65,219,2135.13,240.2,2159.85,224.1Z"/>
  </g>
  <path class="hairBlack" d="M2298.89,244c6.08,11.91,13.17,23.27,12.73,35.41-28-40.7-114.81-41.58-119.2-100.59-4.26,8.85-2.27,27.18-.91,37.11-31.92-39-20.34-61.91,0-97.41-27.74,48.62-65.75,64.38-100.75,65.91,32.27-21.4,13.63-62.81,76-97.55-11.9.87-27.14-2.53-35.36-10.29,49.07-4,66.86-50.67,150-47.62,2.86-10.18-8.11-24.66-21.38-26.49,18.59-6.65,37.25,11,40.35,27.92,10.49-15.78,37.15-31.08,67.52-27.4-21.27,1.75-36.27,14.74-42.75,30.44,68,9.47,191.56,82.06,216.43,165.66,44,148-31.69,221.24-71.27,260.54,15.85-28.82-22-75.16-55.44-46.26-11.92-5.73-38-25.52-46.23-32.74,18.54-30.51,5.45-28.3-8.67-84.85C2327.23,270.28,2319.74,275.43,2298.89,244Z"/>
  <path class="lipFemaleLight__noStroke" d="M2358.07,968.42c-.28,8-.23,11.83-4.16,17.81-14.43,22-8.39,56,6.78,71.87,3.4,3.56,7.4,5.23,10.37,11.59.51-5.72,2.33-10.9,3.47-15.33C2380.76,1030.14,2373.46,991.44,2358.07,968.42Z"/>
  <path class="lipFemaleLight" d="M2374.53,1054.36c-1.14,4.43-3,9.61-3.47,15.33,11.69-14,32.87-16.62,39.59-27.81,5.6-9.32-2-15.8.09-33.76,1.82-15.48-30.95-21.62-52.67-39.7C2373.46,991.44,2380.76,1030.14,2374.53,1054.36Z"/>
  <g class="eyebrowBlonde">
    <path d="M2582.87,960.57c-28.47-15.17,3.41-73-45.21-116.77C2598,891.33,2576.58,927.44,2582.87,960.57Z"/>
    <path d="M2590.09,1028.3c-23.64,15.37,8.58,49-18,89.43,1.64-.27,4.39-.83,6.38-1.19C2609.1,1084.94,2589.1,1056.17,2590.09,1028.3Z"/>
  </g>
  <g class="mouthInner">
    <path d="M2119.62,455.68c24.16,16,52,30.17,51.66,17.19-.77-33.7-30.09-39.73-59.66-45.17-19-3.49-26.73-20-46.64-7.21C2067.12,452.41,2087.17,434.18,2119.62,455.68Z"/>
    <path d="M2374.53,1054.36c6.62-8.11,16.61-7.08,19.79-15s-3-10.51-.74-27.41c1.52-11.51-15.39-17.1-26.88-27C2375.94,1007.2,2379.44,1035.27,2374.53,1054.36Z"/>
  </g>
  <g class="teeth">
    <path d="M2166.84,454.19c-9.39-17.67-32.22-22.26-55.22-26.49-12.1-2.23-19.64-9.75-28.68-11.59-2.61,6.22-4.12,12-.81,15.76C2099.64,452,2134.06,458.24,2166.84,454.19Z"/>
    <path d="M2168.6,458.07c-8.26,4.68-24.53,6.72-39.53,3.65,21.41,13.16,42.47,22.45,42.21,11.15A44.2,44.2,0,0,0,2168.6,458.07Z"/>
    <path d="M2384.46,997.39c-2.58,13.9-.71,35.12,3.89,48.08,2.59-1.42,4.77-3.14,6-6.15,3.2-8-3-10.51-.74-27.41C2394.36,1006,2390.22,1001.6,2384.46,997.39Z"/>
  </g>
  <path class="lipOverlapLine" d="M2065,420.49a38,38,0,0,0-7.35,6.51"/>
  <g class="lipEdgeLine">
    <path d="M2353.91,986.23c-14.43,22-8.39,56,6.78,71.87"/>
    <path d="M2125.73,418.22c-14.6,0-26.33-2.51-36.13-11.88"/>
    <path d="M2131.07,483.12c-17.64,4.93-25.69-1.39-37.13-6.48-10.39-4.63-20.82-5-24.68-18.74"/>
  </g>
  <g class="cheekLine">
    <path d="M2086.58,367.06c-16.27,7.71-41.25,27.11-51,65.17"/>
    <path d="M2176,385.31c8.86,19.9,32.62,53.38,23.46,108"/>
  </g>
  <g class="noseLine">
    <path d="M2109.09,340.72c-7.86,9.53-33.63,11.09-17.17,42.39"/>
    <path d="M2176,385.31c1.47,7.87-1.93,20.7-13.49,23.7"/>
    <path d="M2149.48,401c-4.27-9.9-18.86-7.25-25.68-5.77"/>
    <path d="M2094,370.15c1.38,7,3.84,11.15,10.32,16.28"/>
    <path d="M2479.21,1051c-9.4,3.74-19.35,17.6-35.55-1.35"/>
    <path d="M2467.62,978.74c-4-6.61-25.42-8.43-30.7,5.76"/>
    <path d="M2447.18,991.29c10.75,6.2-3.83,9.94-5.43,15.29"/>
    <path d="M2454.32,1047.44c8.53-4.19-8.45-5.09-11.69-17"/>
  </g>
  <g class="eyeCornerLine">
    <path d="M2279.88,343c-2.34-2.39-6-5.65-8-9.39"/>
    <path d="M2094.82,252.22c-2.72.44-7.07-.26-9.6-.78"/>
  </g>
  <path class="eyeCreaseLine" d="M2091.86,244.62c15-8.82,36.13-1.12,47,17"/>
  <path class="eyeLidLine" d="M2086.69,273.23c-8.87-6.39-13.75,7.71-13.75,7.71"/>
  <g class="eyeLashLine">
    <path d="M2516.25,864.8c-4.89,15.36,28.36,52.79,15.52,95.61"/>
    <path d="M2539.46,1032.92c19.34,45.91-.3,65,3.35,74.68"/>
  </g>
  <g class="eyeFoldLine">
    <path d="M2244.34,348.38c-10.51,2.4-35.44-3.9-44.87-20.14"/>
    <path d="M2118.49,300.12c-18.11,3.39-32.6-5-38.75-15.56"/>
    <path d="M2515.59,948.42c-9.78-11.48-11.81-37.09-7.06-51.7"/>
    <path d="M2531.2,1095c-9.79-11.47-9.55-34.38-4.8-49"/>
  </g>
  <g class="hairOverlapLine">
    <path d="M2397.58,305.24c6.56,16.58,5.43,21,6,29.51-4.32-7.14-31-31.84-43.66-39"/>
    <path d="M2695.86,1085.22c23.94-30.82,33.81-64.45,19.6-102.89"/>
    <path d="M2503.89,793a165.3,165.3,0,0,1-29.49-24.16"/>
  </g>
  <g class="hairEdgeLine">
    <path d="M2752.92,963.73c20.07,37.87,6.34,79.51-13.18,114.77"/>
    <path d="M2751.09,944.32c30.3-63.63-10.42-120.53-75.28-150.14-36-16.41-61.25-7.46-118.76-14"/>
  </g>
</svg>
