<svg class="presence" 
    xmlns="http://www.w3.org/2000/svg" viewBox="0 0 1705.17 2126.29">
    <g class="bennett">
        <path class="bennettJeans" d="M1120.45,1631.42c-27.26,12.14-42,27-27.3,48.16-19.43,10.07-21.88,45.18.17,47.63-4.56,12.71,4.08,26.13,23.68,28.58-17.15,25.31,4.18,56,34.29,55.52,1.45,16.33,10.65,23.08,26.13,22-5.71,19,.66,33.4,17.15,44.1,2.45,14.69-1.73,37.42,22,40.82,9.83,1.41-9,25.32,15.51,31.85-.82,28.58,18.78,33.48,33.48,41.64-9.8,54.71,43.28,75.12,71,133.1l312.74-185.36c-31-37.56-53.9-106.15-77.58-147,3.27-20.41-4.64-27.48-17.14-34.29,8.16-14.64-4.9-32.66-21.23-37.56,17.76-17.55,13.06-45.73-10.62-44.91,7.58-13,3.55-24.74-13.06-35.11,18.56-22.74,5.57-39.13-23.68-52.26Z"/>
        <path class="skinEastAsian" d="M458.67,998.5l546.39,79.93c301.61,260.41,388.32,357,425.51,440.82-74.72,62.5-182.37,109.61-306.65,148.56-20.12-40.9-7.73-49.32-22-57.66-151.63-89-430.39-175.11-501.85-369.37C567.6,1152.4,506.33,1108.87,458.67,998.5Z"/>
        <path class="bennettUnderwear" d="M1205.15,1687.73c96.14-88.25,92.16-121.48,79.24-150.78,13.6-17.34,42.44,45.81,163.38,17.12C1455.37,1678.22,1348.84,1752.53,1205.15,1687.73Z"/>
        <path class="bennettWaistband" d="M1430.57,1519.25c-54.84,52.41-107.58,55.06-181.93,93.65-44.27,23-107.48,30.42-124.72,54.91,13.6-.71,25.08,7.36,42.08,14.16,54.24,21.7,116.68-3.78,173.9-38.65C1411.78,1599.5,1487.94,1592.62,1430.57,1519.25Z"/>
        <path class="bennettJeansInner" d="M1123.92,1667.81c32.78,1.19,79.43,60,140.94,112.06,18.26,15.55,40.28,51.37,61.52,56.78,9.46-18.25,7.19-54.05,18.25-79.77,12.08-28.08,37.53-45.27,42.91-67.6,20.63-11.49,40.91,5.41,52.41,6.76,20.41,2.41,33.8,4.74,57.46,19.61,6.08-88.56-18.93-204.15-66.84-196.4,21,29.4,15.46,65.93-16.31,116-9.76,15.36-27.72,41.23-26.72,54.07-45.61,2-69.27-10.81-100.37-6.08C1166.59,1701.55,1162.79,1665,1123.92,1667.81Z"/>
        <path class="bennettSleeves" d="M898,738.57C874.11,694,866.69,710,852.78,693.32c-20.89-25.1-36-53.69-62-82.08,1.75-28.92-40.45-38.58-69.15-86-40.72-67.21-103.88-48.82-191.73-69.08C500.59,492.55,400.92,522.15,330,527.47c-36.75,74.14-141,93.47-137.1,191.71,1.5,38,8.1,61.5,20,86.6,8.86,18.63,7.75,34.9,29.73,51.71C244,902.08,263.88,925,261.4,946c-2.58,22-3.46,41.83,23.27,36.2-3,65.52,11.66,113,73.68,117.63,48.55,3.58,98.75-146,57.86-160.73l454.58-189Z"/>
        <path class="shirtWhite" d="M870.79,750.11c-13.15-10.88-9.09-29.36-34.85-25.07-42.84-58.9-100.65-125-143.7-167.51q8.63-19.11-30.38-21.35c-26.58-4-29.86-17.11-56.66-16.43-15.41-1-24.71-10.8-36.19-17.11-10.47-5.76-21.47-5.52-28.33-16.2C520.75,514.76,420,551.63,359,553.6c1.22,13.57-8.09,15.76-15.76,21.23-1.64,42.72-9,85.53-7,131.54,20.81,21.91,12,30.7,11.5,35.6-.55,5.48,7.67,5.48,3.29,23,22.45,17.53,8.13,31.2,15.88,43.82,16.54,26.93,29,53.12,39.43,90.36,15.39,7,1.65,24.1,9.86,40l513.09,168.2c36.63-38.33,63-20,75.76-28.9C1070.62,1069.26,939.5,881.32,870.79,750.11Z"/>
        <g class="skinEastAsian">
            <path d="M613.74,857.33c6,5.7,10.65,10.23,16.36,12.2,9.7,2.32,6,20.19-3.67,22.68,7.73,12.07,1.56,32.15-15.73,30.07.15,25.25-26.19,29.81-51.63,7.65.38,20.59-26.4,29.66-61.2,8.35-13.5,25.73-31.72,31-36.91,36.91-14.34,19.62,20.91,73.25-61.95,112.1-87.15,40.87-96.53-99.71-57.55-130.06,21.66-16.86,51.78-14.21,71.45-28.41C422.33,882.6,441,875,450.06,851.53c6.69-28.21,31.55-21,42.07-28.69,9.09-2.39,12.06-23.75,45.18-8.14,9.93,5,21.75,5.22,43.13,17.49,13.45-7.6,17.46-4.43,26.27-8.84C625,814.23,637.9,845.65,613.74,857.33Z"/>
            <path d="M464.37,343.42c9.05,46.32,32.68,95.08,64.1,116.91-29.26,36.35-128.93,65.95-199.86,71.27-1.68-25.7-52.71-76-105-88.39"/>
            <path d="M498.88,333.21c-10.79,37.21-5.19,45.09-34.24,71.17-34.56,31-46.62,27.82-91.29,46-60.75,24.67-113.47,28.09-163.45.34C208.73,486,187.62,479,170,479.72c-19.69.79-75.93-16.12-79.64-54.65C1.28,260.27,85.51,7,331.56,72.8c27.79,29.27,51.77,21.77,74.73,67.72C418.69,165.33,530,225.72,498.88,333.21Z"/>
        </g>
    </g>
    <g class="miriam">
        <path class="miriamPantyhose" d="M1606,1215.59c-20-57.52-38.52-106.77-69.39-147.11-81.87-85.71-277.2,152.38-284.24,232,109.63,105.28,154.25,164.68,178.24,218.76,32.67,16.58,43.75,16.65,75.44,28.35L1704,1317.49C1664.46,1247.28,1608.46,1222.8,1606,1215.59Z"/>
        <path class="miriamPantyhoseDense" d="M1532,1057.9c-4.26-3.16,1.88-11.54-9.22-18.77-83.21-18.65-135.73,39.77-211,132.93-34.1,42.23-72,83-79.44,109.43q11.92,11.25,22.92,21.84c5.72-28.1,42.93-67.17,74.82-106.41,74.13-91.21,129.48-145,206.47-128.44C1538.89,1062.59,1534.67,1060.11,1532,1057.9Z"/>
        <path class="skinNordic" d="M731.07,845.59c549,538.67,553.32-237.06,201.4-114.85C847.27,740.14,792.4,776.73,731.07,845.59Z"/>
        <path class="miriamDress" d="M1481.42,928.59c5.16-10.74-.48-16.16-11-19.2,11.47-28.17-21.89-44.35-39.63-68.87,8.51-26.94-5.12-40.57-34.15-44.94.07-38.3-40.74-26.38-64.35-32l-240.66-43.46C968.85,688.36,806,743.84,773.15,848.94c-2.6,6.92,12,11.78,14.61,4.87,13.41-60,69.83-92.75,144.71-123.07,51.14-14.34,129,1.71,166.35,29.47-134.61,44.57-217.29,170.09-124.51,247.4-14.46-4.83-30.27-10.6-46.39-19.1,32.7,24.74,58.23,66.16,87.22,81.13a43.52,43.52,0,0,0-10.08,8.79c73.84,63.75,134.79,117.68,185.3,164,26.44-39,74.31-67.33,96.51-105.71,69.06-119.44,164.45-182.26,237-137.61C1487.54,950.8,1501.78,923.73,1481.42,928.59Z"/>
        <g class="skinNordic">
            <path d="M1286.87,1136.73c-22.2,38.38-70.07,66.71-96.51,105.71,15.48,14.2,42,39,42,39,7.49-26.42,45.34-67.2,79.44-109.43,75.23-93.16,127.75-151.58,211-132.93.59-12.61-2.91-30.77-6.85-44.42C1444.44,959.1,1353.43,1021.61,1286.87,1136.73Z"/>
            <path d="M987.62,1221.82c100.74-23.18,222.89-9.81,294.21-107,41-55.82-23.18-120.36-90-183.38,12.67-55.76,0-115.21-74.49-160.5-108.24,20.92-243.94,150.25-118.43,243.94,23.25,8.25,47.34,15,68.08,15.38,27.67,15.91,47.08,25.11,70.92,41.65-54.71,20.46-58.27,57.48-150.24,71.44-5.3-22.54-23.18-37-49.69-40.53-15.42,47-69.76,61.68-107.95,108.68,2.21,8.08,10.14,14.08,17.63,16.16,10.79,3,3.75,20.55,22.76,22C955.56,1256.31,962.17,1224.73,987.62,1221.82Z"/>
            <path d="M458.67,998.5c-57.93,52.15-93.27,131.49-79.3,168.74,9.47,25.27,89.79,47.37,191.38,13.51C537.59,1126.23,494.32,1081.07,458.67,998.5Z"/>
            <path d="M650,804c11.35-3.16,5.36-19.55,20.49-25.54,7.06-2.8,22.18-4.73,27.22,6,9.86-10,40.62-7.87,39.2,15.13,16.73-11.08,38.29,2.7,28.65,31.88-9.52,28.81-20.85,39.14-35.74,19.14-3,13.62-30.33,14.89-33.73-6.8-3.83,20.42-39,19.14-35.18-19.14.47-4.77-2-7.94-1.45-13.73l-6.94.63c2.65,11.19,0,14.82.32,25.54,0,17.66-28.39,24-33-21.75C617.74,794.52,643.42,787.55,650,804Z"/>
        </g>
    </g>
    <g class="clothesDisplayLine">
        <path d="M1335.89,1792.58c-27.54-16.19-23.8-27.08-41.73-40.75-29.84-22.75-68.05-26.75-103.72-52.72-23.39-17-43.77-30.39-66.52-31.3"/>
        <path d="M1450.72,1697.46c5-56.81,1.32-154-20.15-178.21"/>
    </g>
    <g class="clothesOverlapLine">
        <path d="M1330.1,1196.92c134,160.55,178.35,177.61,274.19,236.43"/>
        <path d="M1015.14,1069.64c36.18,15,67.67-3.07,98.35-13.24"/>
        <path d="M1374.07,1714c6,13,8.43,25.37,0,36.09,16.12,2,26.85,19.46,11.42,37.57,20.83,11.57,25.32,27.65,10.74,49,24,7.19,31.44,23,19.45,48.95,30.86,13.42,42.27,79.16,91.89,137"/>
    </g>
    <g class="clothesFoldLine">
        <path d="M1270.33,834.21c-7.37,46.45-21.28,87.4-42.37,122.29"/>
        <path d="M1238.55,895.36c-5.66,19.81-14.88,38.5-27.81,54.15"/>
        <path d="M1307.4,812.54c10.1,73.36-2.9,139.23-50.16,186"/>
        <path d="M1275.25,1022.69c74.06-89.76,49.34-200.68,70.67-202.44,18.08-1.5,5.87,48.55-15.89,108.81"/>
        <path d="M1396.67,795.58c-11.75,30.93-7.42,42.48,12.32,27.56"/>
        <path d="M1430.82,840.52c-36,22.67-77.2,59.17-70.46,69.28,7.48,11.22,27.45-36.11,83.78-38"/>
        <path d="M1470.45,909.39c-13.79-1-23.85,7.05-29.18,9.86"/>
        <path d="M1229.4,772.58c4.1,17.39,3.53,34,1.93,50.56"/>
        <path d="M1212.55,769.69c3.85,12.52,3.37,21.19,3.85,30.82"/>
        <path d="M1481.42,928.59c-73.18,10.41-138.17,47.32-191.26,123.54"/>
        <path d="M1348.33,942.06c20.5-16.7,66-41.33,79.44-39.48,31.7,4.36-51.33,24.81-103,77.51"/>
        <path d="M1470.84,952.75c-30,3.27-59.15,14.8-87.45,33.22"/>
        <path d="M1351.86,1008a462,462,0,0,0-57.16,70.43"/>
        <path d="M1520.24,1046.63c-66.39-11-109.11,23.51-161.44,83.52"/>
        <path d="M1532,1057.9c-20.54-4.74-48.51-3.92-64,2.79"/>
        <path d="M1336.39,1173.7c-39.84,47.17-85.73,102-89.36,121.72"/>
        <path d="M790.73,611.24c-2.17,11.34-5.12,20-9.41,24.1"/>
        <path d="M776.24,603.59c-2.88,12-6.43,23.1-11.89,31.75"/>
        <path d="M671.46,514.05c4.45,9.17,6.72,17.3,6.35,24.16"/>
        <path d="M829,740.12c-26.77,6.52-50.42,16.29-68.58,31.75"/>
        <path d="M835.94,725c-17.77,2-33.27,6.42-43.82,16.35"/>
        <path d="M692.24,557.53c-17.13-6.29-36.28-7.12-60.15,4.78"/>
        <path d="M661.86,536.18c-20.75,2-38,6.06-47.55,14.7"/>
        <path d="M605.2,519.75c-29,1.67-55.69,7.93-77.89,22.88"/>
        <path d="M469.53,585.17c-38.69,20.24-72.52,44.09-97.8,74.3"/>
        <path d="M442.22,616.29c-38.11,27.58-72.1,59.48-97.77,100.11"/>
        <path d="M348.24,554.69c-22.86,15.88-50.36,40-82.56,56.52"/>
        <path d="M343.27,574.83c-8.48,4.52-15.83,9.36-21.07,14.79"/>
        <path d="M689.88,637.24C648.8,645.07,611.45,655,581.29,669"/>
        <path d="M625.74,667.72c-43.32,10.87-84.7,29.3-124.46,54"/>
        <path d="M423.17,851.25c-10,9.25-17.83,19-22.43,29.48"/>
        <path d="M448.57,810.61q-27,22-53.07,55.38"/>
        <path d="M234.57,649.94c49.53,4.45,76.84,39.38,101.68,56.43"/>
        <path d="M265.68,680.43c81.92,41.91,102.24,79.37-34.29,7"/>
        <path d="M221.87,729.32c24.79,16.18,53.05,21.31,83.82,18.42"/>
        <path d="M240.28,772.5q53.47,3.42,105.42,26"/>
        <path d="M351,765c-17.18-.34-49.73-5.44-13.6,10.71"/>
        <path d="M280.92,853.79c33.66,23.49,88.91,26.67,125.43,45.36"/>
        <path d="M242.66,857.49q43,22.18,78.91,31.86"/>
        <path d="M273.3,961.74c15.5-12.07,18.5-4,11.37,20.49"/>
        <path d="M284.1,936.34c41.72-20.16,82.47-25.83,121.92-12.07"/>
        <path d="M295.53,992.86c8.89-41.28,50.17-59.06,85.09-55.88-59.05,2.54-79.81,39.09-74.29,108.58"/>
        <path d="M989.65,1050.13c-20.44-3.48-47.14,5.72-78.94,25.24"/>
        <path d="M1561.26,1844.68c-31,5.26-22.64,43-.67,91.91"/>
        <path d="M1571.81,1792.53c-5.63,8.31-7.61,17-1.16,26.66"/>
        <path d="M1554.67,1758.24c-6.16,12-31.67,23.77-16.22,31.43"/>
        <path d="M1533.44,1720.68c-19.81,20-69.73,51.92-37.93,54.9"/>
        <path d="M1522.82,1675.77c-8.16,7.07-13.88,14.37-1.14,23.34"/>
        <path d="M1509.76,1640.66a81.62,81.62,0,0,1-13,11.55"/>
        <path d="M1427.92,1692a108.38,108.38,0,0,1-34.38,22"/>
        <path d="M1458.62,1706.49c-13.74,11.76-30.16,19.91-49,24.82"/>
        <path d="M1386.17,1745.39c55.68,8.73,72.71-28.08,85.19-17.44,8.71,7.43-14.08,27.51-40.92,36.23"/>
        <path d="M1390.88,1779.31c22.79,19.75,59.67-4.66,64.38,5.67,3.68,8-6.58,15.34-27.34,20.88"/>
        <path d="M1401.33,1827.78c56.62,9.52,98.88-33.41,106.24-21.92,7.8,12.18-12.88,22.49-49,35.82"/>
        <path d="M1495.51,1899c-16.1-28.85-41.59-2.68-79.83-13.42-26.16,30.86-80.5,23.48-74.46,44.28"/>
        <path d="M1374.07,1750.09c-12,9-23.08,17.92-6,26.16"/>
        <path d="M1385.49,1787.66a157.58,157.58,0,0,1-37.56,20.8"/>
        <path d="M1396.23,1836.65c-12.08,15.41-45.59,26.72-23.48,33.52"/>
        <path d="M1437.82,1956c-39.69-19.08-95.26,9.39-42.93,112.71"/>
        <path d="M1265.61,1991.77c38.71-.17,66.22,22.64,28.65,34.71"/>
        <path d="M1232.13,1950.13c27.91-.8,62.92-25.14,62.13,1.22"/>
        <path d="M1373.42,1820.53c-21.44,16.49-49.1,29.83-82.52,40.25"/>
        <path d="M1194.57,1877.46c18.72,5.17,40.9-3,62.79-10"/>
        <path d="M1223.15,1907.42c47.63-6.7,98.77-45.67,105.32-34.21,8.43,14.75-20.09,32.16-73.12,51.3"/>
        <path d="M1093.32,1727.21c31.21,1.41,66.1-22.07,84.21-5.29,16,14.84-34.88,11.4-47.63,15.42"/>
        <path d="M1093.15,1679.58c9.85,5.74,19.66,11.47,7.9,19.53"/>
        <path d="M1325.12,1565.61c-10.67-3.09-17.35,1.41-20.8,12.07"/>
        <path d="M1117,1755.79c50.47,9.06,87.36-24.48,87.36-1"/>
        <path d="M1151.29,1811.31a317.58,317.58,0,0,0,121.64-23.65"/>
        <path d="M1177.42,1833.36c29.63-.08,70.55-12.83,56.46,18"/>
        <path d="M1294.27,1811.8c-41.3,25.63-33.6,30.22,16.85,16.48"/>
        <path d="M1239.47,1757.38c-46.51,37-109.25,14-100.18,30.28,4.27,7.66,11.51,7.81,21.39,2"/>
        <path d="M1123.92,1667.81a29.77,29.77,0,0,0-19.51-3.59"/>
        <path d="M1424.74,1617.44c-24.57,12.07-41.26,25.31-69.43,39.4"/>
        <path d="M1373.42,1667.81c-14.93,6.79-27,12.76-36.93,18.11"/>
        <path d="M1436.48,1640.07c-10.23.79-16.65,11.82-18.11,36.23"/>
        <path d="M1286.88,1703.8c16.53,7.16,15.55,14.1-4.7,20.8"/>
        <path d="M1326.46,1713.19c-25.38,8.78-21.45,19.53,1.34,31.53"/>
        <path d="M1191,1673.56c33.16-19.81.42-25.14-45.09-3"/>
    </g>
    <path class="skinEastAsian" d="M1078.4,719.8c21.2-20.81,49-32.81,76.22-14,2.81-19.21,23.93-33.87,36.21-20.8,4.16,4.43-2.4,9.2-2,16,3.43-.55,8.55-1,11.2-1.2-4-33.21,14-43.86,28.81-32.41,5.6,7.61-.19,10,5,30,3.6-1.33,7.34-.47,11-3.59.56-24.41,14.19-31.56,31.21-22,5.33,5.49.47,10.57,2.2,16.41,20.66-7,40.83,4.91,35.81,21.61-4.07,8.55-18,4-32.81,14.4-.61,7.11-1.67,10.8-3.47,14.75,7.18-.12,10.37,2.6,14.92,6.69,3-2.73,11.83-6.14,19.56-7.51,9.33-24.11,34.13-29.49,46.17-17.74,5.36,7.59-12,18.08-24.56,41.63-2.74,8.84-34.58,18.65-50.21,19.55-9,.53-14.71-6.81-23.82-13.36-10,12.46-44,2.68-46.52-5.74-29.22,5.85-29.4-14-39.9-18.26-12,16.94-34.71,8.94-41-8.41C1118.7,724.49,1098.92,731.31,1078.4,719.8Z"/>
    <g class="skinOverlapLine">
        <path d="M1286.87,1136.73c7.71,11.77,15.74,23.23,24.93,35.33"/>
        <path d="M466.61,1177.13c25.22-10.52,41.95-28.52,62.94-57"/>
        <path d="M1091.75,860.46c49.22,6.56,72.2,48.4,100,71"/>
        <path d="M1022.84,1000.74c9,10,24.87,19.82,44.1,29.53"/>
        <path d="M1137.86,1071.92c29.77,18.62,59.87,29.29,81.87,28.91"/>
        <path d="M736.9,799.54c.36,23.84-4.84,36.83-7.09,51"/>
        <path d="M697.7,784.41c4.22,19.48-1,47.54-1.62,59.35"/>
        <path d="M659.45,810.89c-.39-4.87-1.11-16.32,1.34-23.53"/>
        <path d="M650,804a25.87,25.87,0,0,1,2.52,7.56"/>
        <path d="M482.91,939.69c5.51.34,11.35-3.47,15-1.41"/>
        <path d="M476.37,896c17.22,5.51,31,4.48,46.49,12.06s32.72,17.56,36.21,21.92"/>
        <path d="M498.07,860.48c26.52,8.95,46.44,10.28,68.87,25.49,13.47,9.12,21.36,21.69,43.76,36.31"/>
        <path d="M519.42,835.34c16.87,5.17,41.67,6.89,67.88,23.15,14.14,8.78,28.58,25,39.13,33.72"/>
        <path d="M580.44,832.19c12.56,5.89,26.45,16,33.3,25.14"/>
        <path d="M1147.06,721.45c.18-5.54,3.22-12.69,7.56-15.66"/>
        <path d="M1188.83,701c-.39,8.65-1.68,23-15.4,43.22"/>
        <path d="M1190,739.51c5.35-16.34,13.77-29.17,10-39.72"/>
        <path d="M1233.85,697.38c6,12.55-4.41,62.41-20.52,65.09"/>
        <path d="M1278.26,688.19c.76,9.34,5,18.19,3,36"/>
        <path d="M1244.85,693.79c-.48,17.26,4.88,29.66-8.93,47.69"/>
        <path d="M1259.85,768.21A100.16,100.16,0,0,0,1277.79,739"/>
        <path d="M965.93,1231.57c128.2,95.53,284.16,226.18,318.46,305.38"/>
    </g>
    <path d="M142.64,420.58c-51.49-27.71-46.94,37,7.59,43.4"/>
    <path d="M150.69,428.76c-1.31,12.44,25.25,7.22,21.18,17.32-2.7,6.72-11.11-2.65-22.89,1.75-14.06,5.24-30.16-22.61-14.52-20.07"/>
    <g class="skinFoldLine">
        <path d="M408,943.05c2.12-3.13,3.7-8,4.91-14.23"/>
        <path d="M461,975.19c-5.22,3.4-13.44,4.2-20.87.75"/>
    </g>
    <g class="head50">
        <path class="lipMaleMedium__noStroke" d="M354.52,298.6c9.64-19.5,22-16.33,30-20.75,8.54-4.71,10.56-11.13,24-4.58,8.68,4.55,16.81,21.34,30.05,32.31,2.76,9.22-10.24,27.57-28.53,30.6-18.27,16.23-33.28,6.4-53,12.4C358.33,327.26,350.06,310.5,354.52,298.6Z"/>
        <path class="mouthInner" d="M359,337c-1.37,4.06-2.14,6.21-1,8.11,6.51,10.55,15.54-20.14,41.36-31.44,25.06-11,36.77-1.14,37.77-5.74.21-4.22-3.35-4.15-10.34-7.42C405.06,307.52,377.64,321.89,359,337Z"/>
        <path class="teeth" d="M426.8,300.5a56,56,0,0,1-7.88-4.52c-19.15-13.07-20.87,1.86-34.29,4.09-13.21,2.19-19.89,10-21.35,19.62A93.59,93.59,0,0,1,359,337C377.64,321.89,405.06,307.52,426.8,300.5Z"/>
        <g class="lipEdgeLine">
            <path d="M354.52,298.6c9.64-19.5,22-16.33,30-20.75,8.54-4.71,10.56-11.13,24-4.58"/>
            <path d="M384.33,345c11.4,2.72,15.76-4.11,25.7-8.85,9.76-4.66,13.83-1.72,22.9-13.66"/>
        </g>
        <g class="cheekLine">
            <path d="M394.94,232.55c11.2,8.65,22.18,9.34,33.78,24.73"/>
            <path d="M313.6,261.55c-4.25,21.15-10.51,53.36-3.4,65.9"/>
        </g>
        <g class="noseLine">
            <path d="M367.61,213.64c12.11,9.72,34.31,7.32,27.37,36.89"/>
            <path d="M313.6,261.55c-1.93,8.39,2.14,20.51,17.18,23.12"/>
            <path d="M338.13,274.74c-8.23-16.68,9.43-5.11,19.94-7"/>
            <path d="M386,243.33c-5.25-3.76-2.29,8.78-12.55,16.76"/>
        </g>
        <g class="eyeFoldLine">
            <path d="M392.55,180.7c-10.49,7-27.54,10.56-34.73,10.47"/>
            <path d="M263.57,239.37c-8.28,14.88-23.06,23.42-33,25.52"/>
        </g>
        <g class="eyeLashLine">
            <path d="M197.57,266.68c18.3-6,21.51-43.19,70.19-51.78"/>
            <path d="M329.83,184.91c47.37-41,65.95-15.57,81-20.15"/>
        </g>
        <g class="eyebrowBlack">
            <path d="M249.88,164.26c.88,33.08-62,37.28-82.38,85.85C177.07,188.66,219.54,193.27,249.88,164.26Z"/>
            <path d="M403.05,134.39c-1.61-2.86-3.22-5.48-4.84-7.9-44.37-19.88-61.4,7.75-96.57,13.53C330.7,152.71,354.21,124.13,403.05,134.39Z"/>
        </g>
        <path class="hairBlack" d="M406.29,140.52C419.6,81.3,369.17,45,326.1,22.58c-98.77-51.35-197.39,0-224,39.65-.4-13.31-3.66-25-8.21-35.89,4,36.52-27.62,38.44-6.66,81.85C2,122.27-1.47,229,12.81,307.38,3.25,317.37-.64,330.17,1.63,346c3.46-10,9.09-17.79,17-23.36-.75,25.41,34,79.24,71.77,102.4,1-23.69,23.42-37.23,39.6-28.2q9.72-16.92,11.34-39.22c-23.08-18.75-29.8-22.22-44-49.27,1-35.77,8.41-58.67-26.08-94.24C84.32,222.41,97,228.19,109.09,231,94.16,213.74,83,198,75.28,183.65,97.08,130.74,133,93.9,184.2,74.28c11.3,4.83,23.05,12.59,35.13,22.46a95.64,95.64,0,0,0-13.42-28.53c67.92,47.34,73.41,11,132,36.68-6.23-8.53-16.57-17-19.4-24.73a122.15,122.15,0,0,0,48.93,18.27C378.23,105.06,392.13,112.7,406.29,140.52Z"/>
        <g class="hairOverlapLine">
            <path d="M97.34,308.38c-.45,12.2-5.38,25.09-3.67,33.63-9.87-8.67-10.36-22.61-18.27-31.68"/>
            <path d="M75.28,183.65c-16.17-30.41-12.2-55.25,8.64-55.89"/>
            <path d="M108.09,69.45C127.18,53.83,152.37,55,184.2,74.28"/>
            <path d="M87.18,108.19c3.69,6.37,8.67,11.84,13.07,14.16"/>
            <path d="M367.41,98.43c9.53.4,17.95-.59,25-3.24"/>
        </g>
    </g>
    <g class="head49">
        <path class="skinNordic" d="M871.76,797.86C903,784,918.11,821.65,929,836.17c10.46,14,18,33.2,7.26,45.89,44,70.62,37.48,181.87,2.88,228-22.1,29.49-16.09,46.17-48.58,67.51.88,18.46-15.81,28.65-27.2,24.89-11.14-3.68-24.19-13.11-35.9-17.71a143.37,143.37,0,0,1-64.58,8c-40.94,11.86-118.58,11.8-158.24-9.62C235.25,912.16,619.58,542.88,871.76,797.86Z"/>
        <g class="skinFoldLine">
            <path d="M904.06,862.76c-27.81-8.69-24.63-88,14.79-23.64"/>
            <path d="M906,856c7.45-9.09,12.61,17.34,16.18,8.93,3-7.15-9.39-11.95-10-14.48-4.47-18.15-16.66-15.26-12.32-8.53"/>
        </g>
        <g class="noseLine">
            <path d="M762.83,1192.85c24.72-5.54,42.95-16.9,64.58-8"/>
            <path d="M889.71,1137.2c18.83,11.39.78,26.87.8,40.42"/>
        </g>
        <path class="eyeLashLine" d="M859,1151.55c5.33-12.25,17.35-11.78,27.62-27.61,13.28-20.48,8.68-30.17,13.15-39"/>
        <path class="eyebrowBlonde" d="M836.24,1160c35.06-23.09,31.8-43.54,61.43-83.89C860.7,1109.43,861.14,1140,836.24,1160Z"/>
    </g>
</svg>
