<svg viewBox="0 0 303.61 277.98">
  <g class="bennett">
    <path class="bennettJeans" d="M214,216.53c-3.36,3.14-4.77,6-1.57,8.39-2.33,2.43-.93,7.67,2.41,6.93,0,2.08,1.9,3.6,4.88,3-1.23,4.54,3.41,7.95,7.77,6.37,1,2.3,2.71,2.83,4.91,1.9.12,3.05,1.77,4.84,4.71,5.57,1.09,2,1.62,5.54,5.25,4.85,1.5-.29,0,4.13,3.85,3.86,1.31,4.2,4.41,3.94,7,4.39,1.31,8.46,10.07,8.78,17,15.84l33.06-39c-6.4-3.92-13.17-12.77-18.66-17.54-.54-3.13-2.05-3.77-4.21-4.14.46-2.54-2.35-4.51-5-4.41,1.71-3.44-.39-7.31-3.8-6,.46-2.27-.72-3.78-3.66-4.46,1.57-4.24-1.44-5.85-6.36-6.3Z"/>
    <path class="skinEastAsian" d="M110.61,175.18C228.8,66.24,250.13,191.15,249.86,189c-2.55,13.9-17.39,20.78-33.54,32.67-5-4.95-3.6-6.8-6.09-7.3-26.54-5.38-71.93-2.4-91.59-28.71A97.29,97.29,0,0,0,110.61,175.18Z"/>
    <path class="bennettUnderwear" d="M229.15,220.5c7.55-13.92,6.92-22.77,4-25.93.73-2.1,4.39,8.78,21.42-2C261.89,210.3,253.32,222.75,229.15,220.5Z"/>
    <path class="bennettWaistband" d="M249.86,189c-5.37,10.38-10.14,10.32-19.05,19.66-5.3,5.57-13.21,8.58-14.49,13,1.94-.78,4-.18,6.83,0,9,.45,15.89-5.16,22.48-13.1C253.91,198.54,261.89,196.81,249.86,189Z"/>
    <path class="bennettJeansInner" d="M216.32,221.66c4.83-1.46,13.65,6,25.21,10.51,3.44,1.35,8.44,5.47,11.8,5.19.47-3.13-1.65-8.23-1.33-12.53.36-4.7,3.2-8.47,2.87-12,2.43-2.7,3.92,1.21,5.66.83a17.85,17.85,0,0,1,9.36,0c-3.55-13.2-13.44-28.17-20-24.65,3.72,3.33,7.09,7.6,5,16.48-.66,2.72-.75,5.54,0,7.36-6.54,2.58-10.63,1.89-14.92,4.14C223.3,225.67,221.84,219.3,216.32,221.66Z"/>
    <path class="bennettSleeves" d="M147.91,94.49c-4.87-6.08-5.54-3.44-8.12-5.58-3.87-3.22-7-7.12-11.71-10.69-.54-4.43-7.21-4.7-12.89-11.07-8-9-17.1-4.48-31-5.07C80.8,68.41,66.54,75.69,56,78.49c-3.48,12.26-18.72,18.12-15.37,32.89a31,31,0,0,0,5.47,12.55c1.86,2.57,2.15,5.07,6,7,1.45,6.71,5.11,9.62,5.33,12.88s.65,6.43,4.54,4.83c1.39,10,4.29,16.46,13.84,15.7,17.66-1.41,10.22-25.19,4.87-25.93L144.11,97Z"/>
    <path class="shirtWhite" d="M138.13,94.19a229.64,229.64,0,0,0-26.47-21.33c.51-2.09-1.22-2.89-5.2-2.38-4.14.14-5-1.75-9-.9-2.36.29-4-.94-6-1.57-1.75-.58-3.41-.23-4.74-1.66C84.48,71.2,70.27,79.62,61.08,81.63c.57,2-.78,2.62-1.79,3.66,1,6.52,1,13.21,2.64,20.12,3.77,2.73,2.68,4.31,2.74,5.07s1.32.61,1.15,3.39c3.89,2,2.11,4.49,3.63,6.19A51.37,51.37,0,0,1,78,132.63c2.52.63,2.31,4.2,4.32,9.39,22.34,25.08,13.66,27,20.53,28,4.77.7-.52,7.47,6.56,6.25.76,5.17,3.88.54,6.8,7.53-3.12-12.66,50.76-50.52,56.4-45.56C181.49,135.28,138.13,94.19,138.13,94.19Z"/>
    <g class="skinEastAsian">
      <path d="M71.13,46.84c2.67,6.76,7.62,13.48,13,15.9-3.41,6.33-17.67,13.62-28.26,16.42-1-3.85-9-9.86-17.26-10.26"/>
      <path d="M78.05,45.43c-.58,5.94.49,7-3.18,11.74-4.36,5.67-6.28,5.52-12.54,9.53-8.5,5.44-15.69,5.54-24.13,3.13.81,5.38-2.58,4.92-5.23,5.52C30,76,21,75,19.37,69.31,1.25,46.86,5.74,6,44.86,9c5,3.65,8.45,1.85,13.22,8.16C60.66,20.57,79.75,28.27,78.05,45.43Z"/>
    </g>
  </g>
  <g class="miriam">
    <path class="miriamPantyhose" d="M266.14,158c-4.23-8.37-8.06-15.51-13.6-21-16.2-13-32.39,20.72-32,29.09,16.49,9.58,23.25,16.47,29.33,22.93,3.12-1.66,7.23.61,11.71,6.81l21-23.35C275.72,161.65,266.67,159.06,266.14,158Z"/>
    <path class="miriamPantyhoseDense" d="M251.62,135.45c-.72-.39,0-1.8-1.79-2.68-30.18-8.6-41.5,18.53-32.84,31.37,1.33.75,3,1.62,4.1,2.25.26-1,1.32-2.4,2.51-4.23C233.65,146.67,240.44,136,252.54,137,252.77,136,252.08,135.73,251.62,135.45Z"/>
    <path class="skinNordic" d="M126.73,112.91C214.6,191.71,225,64.31,158,86.7,151.23,89.28,134.69,101.14,126.73,112.91Z"/>
    <path class="miriamDress" d="M242.41,115.26c.57-1.74-.41-2.46-2.07-2.71,1.17-4.53-4.25-6.32-7.46-9.7.75-4.29-1.61-6.09-6.13-6.16-.78-5.85-6.22-12.88-9.94-13.25l-37.63-1.71c-20.56.3-43.08,13.63-46,30.35-.25,1.1,2.08,1.55,2.33.44-2.75-9,11.7-21.12,22.08-25.11,7.52-3.24,17.7-3.55,24-.08-20.18,9.7-29.67,35.41-14,45.73a40.53,40.53,0,0,1-13.36-2.48c-2.74,5.69,6.49,5.38,8.83,6.32,4.33,1.74,5,3,11.76,4.55,2.74,1.46,28.37,14.43,35.38,18.67,2.13-4.84,2.86-2,4.92-6.72,8.52-19.47,22-32.09,34-26.76C242.64,120,245.42,114.1,242.41,115.26Z"/>
    <g class="skinNordic">
      <path d="M93.09,129.26c-6.83,9.87-8.82,27.49-5.49,31.77,2.55,3.28,13.76,3.32,27.79-5.36A245.59,245.59,0,0,1,93.09,129.26Z"/>
      <path d="M220,158.59c9.63-14.86,16.75-27,29.84-25.82a24.37,24.37,0,0,0-2-6.64c-11.61-4-25.06,8.06-32.72,27.27-1.2,3-3.93,3.78-4.92,6.72,2.42,1.45,6.76,4,6.76,4A25.48,25.48,0,0,1,220,158.59Z"/>
      <path d="M175.53,162.77c-6.23,2.72-3.67,5.25-13.12,10-1.82.9-4.18-.37-6.4-.7-2.77-.4-4.47-1-5.38-2.45-4.09-1.08-.66-3.78-4.16-4.52,2.38-9,8.89-11.59,11-17.73,6.84-1.58,9.17,5.26,13.43,5.34,13.66-4.11,14.67-9.77,22.61-14-4-2-7.13-3-11.68-4.91a33.17,33.17,0,0,1-10.63-.34c-21.08-11.73-3.09-39.49,13-44.9,12.3,5.39,15.45,18.83,14.65,27.6,11.5,8.25,22.47,16.72,17.51,26.16C209.47,155.31,189.71,156.33,175.53,162.77Z"/>
    </g>
  </g>
  <g class="clothesDisplayLine">
    <path d="M252.52,230.47c-4.83-1-4.83-2.76-8.12-3.85-5.49-1.82-10.33-1.73-16.83-3.73-4.26-1.31-7.89-2.23-11.25-1.23"/>
    <path d="M262.17,213.33c-2.11-8.53-6.6-22-12.31-24.34"/>
  </g>
  <g class="clothesOverlapLine">
    <path d="M223.6,162.16c22.12,20.28,29.19,22.68,43,28.65"/>
    <path d="M174.85,141.45c5.83,1.55,10.11-2.49,14.59-4.67"/>
    <path d="M254.15,217.11c1.51,1.59,2.49,3.27,1.8,5.26,2.45-.52,4.89,1.49,3.55,4.9,3.61.64,5.07,2.76,4,6.6,3.86-.15,5.73,1.78,5.28,6.16,5.17.41,10.12,9.42,20.24,15.35"/>
  </g>
  <g class="clothesFoldLine">
    <path d="M208.25,105.17c-.17,7.25-.87,8.26-3.38,14"/>
    <path d="M205.19,110.56a18.92,18.92,0,0,1-3.09,7.91"/>
    <path d="M213.47,101.11c3,11,3,15.79-3.27,23.89"/>
    <path d="M213.44,128.32c9.47-15.22,2.84-26.12,6.06-26.83,2.73-.6,1.89,7.3-.19,16.94"/>
    <path d="M226.75,96.69c-1.16,5-.27,6.64,2.44,4"/>
    <path d="M232.88,102.85c-5,4.2-10.57,10.61-9.34,12s3.45-6.07,12-7.52"/>
    <path d="M240.34,112.55c-2.13.13-3.5,1.57-4.25,2.11"/>
    <path d="M201.28,86.92c1,2.57,1.23,10.21,1.33,12.76"/>
    <path d="M198.65,86.82c.84,1.83.95,8.25,1.22,9.71"/>
    <path d="M242.41,115.26c-10.09,3-19.27,7.51-26.09,17.25"/>
    <path d="M222.36,120c2.79-3,9.24-7.66,11.32-7.65,4.93,0-7.32,4.84-14.14,13.94"/>
    <path d="M241.29,119.17A30.74,30.74,0,0,0,228.62,126"/>
    <path d="M224.25,130c-2.44,1.62-5.16,3.09-6.69,6.4"/>
    <path d="M249.6,134c-10.36-.32-15.41,5.86-22.17,16.1"/>
    <path d="M251.62,135.45c-3.23-.3-7.49.4-9.71,1.74"/>
    <path d="M225.56,155.88c-2.13,3.5-4.35,6.18-5.81,9.77"/>
    <path d="M128.08,78.22a7.45,7.45,0,0,1-.74,3.92"/>
    <path d="M125.67,77.47a16.6,16.6,0,0,1-.9,5.14"/>
    <path d="M107.29,66.86a7.93,7.93,0,0,1,1.64,3.48"/>
    <path d="M111.66,72.86a11.05,11.05,0,0,0-9,2.41"/>
    <path d="M106.46,70.48c-3.09.89-5.59,2-6.79,3.56"/>
    <path d="M97.41,69.58c-4.35,1.07-8.21,2.77-11.15,5.66"/>
    <path d="M78.7,83.31C73.42,87.46,69,92,66,97.31"/>
    <path d="M75.44,88.79a56.46,56.46,0,0,0-12,17.91"/>
    <path d="M59.48,82.1c-3,3.05-6.5,7.48-10.91,10.88"/>
    <path d="M59.29,85.29a13.11,13.11,0,0,0-2.77,2.83"/>
    <path d="M113.54,85A72.93,72.93,0,0,0,98,92.86"/>
    <path d="M104.68,91.42a67.36,67.36,0,0,0-17.33,11.67"/>
    <path d="M79.17,124.91A14,14,0,0,0,76.6,130"/>
    <path d="M81.87,118a53.15,53.15,0,0,0-6.48,9.88"/>
    <path d="M44.94,99.72c7.63-.72,12.75,3.8,17,5.69"/>
    <path d="M50.51,103.46c13.59,4.05,17.72,9.15-5,2"/>
    <path d="M45.25,112.1a19.54,19.54,0,0,0,13.21.43"/>
    <path d="M49.25,118.12a48.07,48.07,0,0,1,16.7,1"/>
    <path d="M65.82,113.87c-2.62.43-7.69.57-1.76,2"/>
    <path d="M57.69,129.29c5.76,2.61,14.22,1.54,20.28,3.34"/>
    <path d="M52,130.93a61.71,61.71,0,0,0,12.85,2.6"/>
    <path d="M59.58,145.85c2-2.26,2.69-1.12,2.29,2.79"/>
    <path d="M60.5,141.7c5.75-4.22,11.76-6.23,18.12-5.25"/>
    <path d="M63.82,149.94c.18-6.5,5.93-10.35,11.31-10.85-8.87,2-11,8.16-8.2,18.53"/>
    <path d="M162.2,136.65c-2.65.51-6.1,3-7.79,4.68"/>
    <path d="M285.64,229.25c-4.25,2.31-1.14,7.39,4.5,13.42"/>
    <path d="M284.57,221.12a3.36,3.36,0,0,0,1.17,3.94"/>
    <path d="M280.36,217c-.3,2.06-3.43,5.05-.79,5.4"/>
    <path d="M275.39,212.57c-1.89,3.91-7.56,11.06-2.78,9.9"/>
    <path d="M271.59,206.56c-.83,1.44-1.3,2.79,1,3.46"/>
    <path d="M267.93,202.1a11.8,11.8,0,0,1-1.31,2.33"/>
    <path d="M258.58,213.68c-1,1.82.08,1-1.6,2.46"/>
    <path d="M263.78,214.25c-1.42,2.4-1.09,1.95-3.59,3.6"/>
    <path d="M257.48,221.08c8.55-1.52,6.88-5.27,9.23-4.34,1.64.65-.68,4.71-4.15,7.32"/>
    <path d="M259.86,225.78c4.31,1.74,7.23-2.15,8.43-.88.94,1-.05,1.73-1.7,2.9"/>
    <path d="M263.81,232.32c8.72-1.44,10.42-7.35,12.07-6s-1,3.82-3,5.2"/>
    <path d="M281.09,238c-3.78-3.4-6.19,1.69-12.3,2-2.27,5.8-10.55,7.45-8.63,10.17"/>
    <path d="M256,222.37c-1.3,1.9-2.46,3.76.43,4.11"/>
    <path d="M259.5,227.27a24.49,24.49,0,0,1-4.44,4.91"/>
    <path d="M263.51,233.87c-1,2.85-5.31,6.17-1.74,6.06"/>
    <path d="M275.54,249.18c-6.73-.79-12.48,4.9.31,17.34"/>
    <path d="M253.16,261.77c5.64-2,10.78,0,5.91,3.62"/>
    <path d="M246.2,257.38c4-1.51,7.91-6.81,9.12-2.93"/>
    <path d="M259.38,232.66a40.46,40.46,0,0,1-10,10"/>
    <path d="M237.1,248.67c3-.18,5.81-2.48,8.65-4.59"/>
    <path d="M242.76,251.61c6.6-3.36,11.18-10.37,12.71-9,2,1.72-.4,4.45-7.16,9.9"/>
    <path d="M214.83,231.85c4.62-1.36,8.52-6.52,12-5,3.08,1.36-4.51,3.41-6.16,4.63"/>
    <path d="M212.42,224.92c1.72.34,3.44.68,2.13,2.45"/>
    <path d="M239.59,197.94c-1.71.08-2.46,1.07-2.42,2.8"/>
    <path d="M219.71,234.83c7.8-1.21,11.5-7.94,12.68-4.52"/>
    <path d="M227.48,241.2c6.46-2.2,11-4.24,15.62-8.3"/>
    <path d="M232.39,243.1c4.31-1.49,9.64-5.39,9.13-.19"/>
    <path d="M247.41,235.35c-4.73,5.8-3.38,6.08,3.28,1.56"/>
    <path d="M236.71,230.16c-4.93,7.72-14.3,6.27-12.16,8.19,1,.91,2.07.56,3.22-.77"/>
    <path d="M216.32,221.66a4.61,4.61,0,0,0-3,.46"/>
    <path d="M254.39,203c-3,3-2.44,3.29-5.84,6.75"/>
    <path d="M251.74,210.41c-1.84,1.74-3.3,3.21-4.47,4.49"/>
    <path d="M257.23,205.68c-1.45.63-1.84,2.56-.83,6.19"/>
    <path d="M240.93,220c2.77.21,3,1.27.36,3.26"/>
    <path d="M247.17,219.37c-3.26,2.55-2.15,3.92,1.77,4.53"/>
    <path d="M226.38,219.14c3.84-4.54-1.2-3.68-6.72,1.83"/>
    <path d="M109.38,176.28a5,5,0,0,1,1.46-3.5"/>
  </g>
  <path class="lipMaleMedium__noStroke" d="M54.69,42.56c.91-3.23,2.87-3.1,4-4s1.28-2,3.5-1.37c1.44.45,3.15,2.76,5.46,4,.68,1.32-.78,4.46-3.46,5.44-2.31,3-4.86,1.9-7.68,3.36C56.07,46.79,54.35,44.48,54.69,42.56Z"/>
  <path class="mouthInner" d="M56.45,48.24c-.1.66-.15,1,.07,1.26,1.29,1.41,1.79-3.49,5.38-5.93s5.54-1.2,5.56-1.93-.62-.53-1.77-.83A35.6,35.6,0,0,0,56.45,48.24Z"/>
  <path class="teeth" d="M65.69,40.81a9.18,9.18,0,0,1-1.32-.46c-3.27-1.44-3.11.87-5.08,1.58a3.57,3.57,0,0,0-2.68,3.57,15.18,15.18,0,0,1-.16,2.74A35.6,35.6,0,0,1,65.69,40.81Z"/>
  <g class="lipEdgeLine">
    <path d="M54.69,42.56c.91-3.23,2.87-3.1,4-4s1.28-2,3.5-1.37"/>
    <path d="M60.51,48.75c1.8.09,2.27-1.07,3.64-2.06s2-.65,3.09-2.72"/>
  </g>
  <g class="eyebrowBlack">
    <path d="M35.06,25.15c1.07,5-8.34,7.39-10.06,15.32C24.72,30.9,31.28,30.4,35.06,25.15Z"/>
    <path d="M57.42,16.32c-.32-.39-.64-.74-1-1.06-7.28-1.76-9.08,2.9-14.24,4.77C47,21.13,49.73,16.14,57.42,16.32Z"/>
  </g>
  <path class="hairBlack" d="M58.08,17.16c.35-9.34-8.31-13.43-15.46-15.61C26.22-3.45,12.73,7.1,9.8,13.86A15.17,15.17,0,0,0,7.55,8.65c1.63,5.42-3.1,6.6,1.3,12.59C-3.66,25.76,0,42.2,4.32,53.67a6.75,6.75,0,0,0-.61,6.17,7.17,7.17,0,0,1,1.92-4c.6,3.87,7.38,11.05,13.74,13.49-.51-3.61,2.5-6.3,5.21-5.38a14.14,14.14,0,0,0,.61-6.26c-4-2.19-5.14-2.53-8-6.23-.86-5.44-1.51-9.29-7.74-13.71a19.48,19.48,0,0,0,6.21,1.49,34.31,34.31,0,0,1-5.87-5.81c1.68-8.77,5.73-15.46,13-20a22.09,22.09,0,0,1,5.81,2.38,14.67,14.67,0,0,0-2.84-3.95c11.62,5.26,11.43-.4,21,1.85-1.18-1.12-3-2.12-3.63-3.2A18.82,18.82,0,0,0,51,11.88,13.67,13.67,0,0,1,58.08,17.16Z"/>
  <g class="hairBlonde">
    <path d="M126.22,99.32c4.63-1.67,9.33-4.77,13.53-2.91A12,12,0,0,0,137,90.17c8.46-.15,17.9,6.62,18.39,15.38a16,16,0,0,0,4-6.78c4.86,7.16,3.66,18.94-5.23,26.6Z"/>
    <path d="M150.1,115.19c-2.49-10.63-9.95-18.69-18.34-15.66-15.1-3.12-32.29,5.54-41.64,19.51C86,125,85.76,143.43,93.34,156.41c3.79,8.88,8.82,11.42,17.51,15.21,3.51,5.7,17.15,2.95,15.1-1.13C148,165.58,158.42,150.76,150.1,115.19Z"/>
  </g>
  <g class="skinNordic">
    <path d="M106.09,101.4c1.47-1.07-.28-3.11,1.58-4.79.87-.78,3-1.88,4.26-.6.88-2,5.44-3.32,6.47.08,1.82-2.5,6-1.73,6.15,3s-2,6.67-4.43,4.75c.3,2.12-3.58,3.77-5.24.83.54,3.15-4.85,4.84-6.48-1.3l-.92.37c.22.52.57,1.52.8,2.28,1,2.55-2.81,5-5.94-1.36C100.93,101.77,104.26,99.38,106.09,101.4Z"/>
    <path d="M139.5,111c3.31-3.1,7.44,1.16,9.36,3.66,1.64,2.14,4.08,4.15,3,6.48,6.94,7.58,11.1,25.32,5.54,32.26-.7,2.64.89,6.09-3,9.18.67,2.58-1.23,4.74-3.08,4.67s-2.76-.72-4.69-.9c-2,1.71-5.23,2.07-8.4,2.12a19.91,19.91,0,0,1-12.36,2c-1-1.64-2.76-2.21-4.14-3.48,18.89,4.81,29.77-22.23,22.72-39.66,1.52-1.55,3.88-2,6.75-.58-2.23-3.54-5.35-2.61-6.73-5.14C140.42,120.25,137.05,113.29,139.5,111Z"/>
  </g>
  <path class="lipFemaleLight" d="M154.48,162.56c3.84-3.1,2.25-6.38,3-9.18-1.06,3.55.08,5.51-3.07,8.46A3.29,3.29,0,0,0,154.48,162.56Z"/>
  <path class="eyebrowBlonde" d="M143.72,162.37c4.2-4.91,2.85-7.8,5.51-15C145.18,153.84,146.55,158.35,143.72,162.37Z"/>
  <g class="hairOverlapLine">
    <path d="M17.15,51.44c.27,1.86-.11,4,.39,5.2-1.74-1-2.21-3.13-3.66-4.28"/>
    <path d="M9.75,33.41c-3.3-4.15-4-8.44-.85-9.12"/>
    <path d="M10.92,14.78c2.45-2.9,6.89-2.6,11.81-1.37"/>
    <path d="M8.85,21.24A5.82,5.82,0,0,0,11.22,23"/>
    <path d="M51,11.88a9.89,9.89,0,0,0,3.7-1.2"/>
    <path d="M144.53,127.35c-1.37-3.21-3.26-4.82-3.75-7.31"/>
  </g>
  <g class="hairEdgeLine">
    <path d="M122.73,161.31c12.67.81,20-14.64,18.19-26.71"/>
    <path d="M110.85,171.62c3.56.82,5.91-.47,4.26-2.56"/>
  </g>
  <g class="cheekLine">
    <path d="M59,31.42c1.94,1,3.62.79,5.81,2.79"/>
    <path d="M47.45,38.09c-.05,3.33-.09,8.38,1.34,10.08"/>
    <path d="M157.44,153.38c-1.71,3.31-4,2.48-4.93,3.06"/>
  </g>
  <g class="noseLine">
    <path d="M54.28,29.32c2.11,1.13,5.4.14,5.18,4.82"/>
    <path d="M47.45,38.09a3,3,0,0,0,3.25,3"/>
    <path d="M51.53,39.4c-1.71-2.29,1.29-1,2.83-1.62"/>
    <path d="M57.9,33.3c-.9-.42-.1,1.39-1.43,2.89"/>
    <path d="M138.31,168.45c3.42-1.88,4.82-2.5,8.4-2.12"/>
    <path d="M152.51,156.44c3.28.88,1.39,4.12,2,6.12"/>
  </g>
  <g class="eyeLashLine">
    <path d="M30,42.13c2.6-1.42,2-7.14,9.17-9.81"/>
    <path d="M47.75,26c6-7.54,9.55-4.21,11.7-5.33"/>
    <path d="M147.19,160.31c.26-2,2.06-2.49,2.9-5.27,1.09-3.6,0-4.83.28-6.34"/>
  </g>
  <g class="eyeFoldLine">
    <path d="M57.13,23.63a11.55,11.55,0,0,1-5,2.56"/>
    <path d="M39.25,36.14A8.24,8.24,0,0,1,35,40.93"/>
  </g>
  <g class="skinEastAsian">
    <path d="M177.08,81.53c2.81-3.61,6.88-5.59,11.42-3.28,0-3,3-5.66,5.1-3.91.72.59-.18,1.45,0,2.48.51-.16,1.29-.32,1.69-.41-1.29-5,1.23-7,3.73-5.54,1,1,.18,1.53,1.38,4.48.52-.28,1.11-.23,1.6-.78-.41-3.73,1.53-5.11,4.32-4,.93.73.29,1.61.67,2.46,3-1.49,6.34-.08,5.91,2.57-.45,1.39-2.66,1-4.71,2.87a6.31,6.31,0,0,1-.23,2.32,3,3,0,0,1,2.41.72A7.51,7.51,0,0,1,213.23,80c.93-3.87,4.6-5.2,6.68-3.65,1,1-1.46,3-2.9,6.86-.23,1.4-4.89,3.55-7.26,4-1.37.26-2.39-.74-3.91-1.55-1.27,2.1-6.67,1.31-7.22.07-4.34,1.49-4.78-1.53-6.47-2-1.49,2.84-5.11,2.08-6.43-.44C183.39,81.84,180.45,82.87,177.08,81.53Z"/>
    <path d="M105.31,117.15a7.35,7.35,0,0,0,2.94,1.1c1.54-.07,1.75,2.73.44,3.51,1.66,1.46,1.61,4.69-1,5.13,1.11,3.73-2.59,5.54-7.31,3.36.94,3-2.63,5.52-8.69,3.87-.89,4.38-3.36,5.94-3.87,7-1.29,5.48-.65,16.34-5,19.21-11.68,8.87-18.19-10-13.48-16.71,2.43-3.47,7-4.34,9.35-7.28-.6-7.24,1.83-9.18,2.16-13-.22-4.46,3.76-4.48,5-6.06,1.24-.74.76-4,6.33-3.15,1.68.31,3.44-.16,7.13.73,1.66-1.7,2.39-1.41,3.51-2.44C105.11,110.3,108.38,114.39,105.31,117.15Z"/>
  </g>
  <g class="skinOverlapLine">
    <path d="M215.15,153.4c1.42,1.63,3.19,3.53,4.84,5.19"/>
    <path d="M182.11,107.31c7.65,0,12,5.91,16.72,8.79"/>
    <path d="M174.46,130.14a23.7,23.7,0,0,0,7.34,3.6"/>
    <path d="M193.48,138.65c4.92,2.24,9.31,3.3,12.66,2.8"/>
    <path d="M118.4,96.09c1.33,3.42,1.28,5.57,1.72,7.75"/>
    <path d="M111.93,96c1.65,2.59,2.41,6.92,2.95,8.66"/>
    <path d="M108.4,103.37c-.44-1.37-1.61-3.78-1.65-5"/>
    <path d="M106.09,101.4a8,8,0,0,1,1.39,2.34"/>
    <path d="M89.51,135c.83-.19,1.53-1,2.15-.85"/>
    <path d="M86.66,128.78c2.78.08,4.77-.67,7.39-.22s5.6,1.19,6.3,1.69"/>
    <path d="M88.34,122.6c4.3.18,7.31-.48,11.28.8,2.38.77,4.09,2.29,8,3.49"/>
    <path d="M90.41,118c2.72,0,6.46-.77,11,.5,2.47.69,5.3,2.47,7.24,3.3"/>
    <path d="M99.3,114.87a15.09,15.09,0,0,1,6,2.28"/>
    <path d="M187.66,80.8a3.33,3.33,0,0,1,.84-2.55"/>
    <path d="M193.62,76.82a12,12,0,0,1-1.47,6.91"/>
    <path d="M194.59,82.68c.48-2.61,1.5-4.74.72-6.27"/>
    <path d="M200.42,75.35c1.17,1.79.6,9.61-1.8,10.35"/>
    <path d="M207,73c.31,1.41,1.14,2.68,1.2,5.44"/>
    <path d="M202,74.57c.29,2.65,1.36,4.43-.38,7.47"/>
    <path d="M205.84,85.63A15.53,15.53,0,0,0,208,80.79"/>
    <path d="M170.44,166.7c22.9,7.48,54.51,18.88,62.71,27.87"/>
    <path d="M157.61,131.18a6,6,0,0,1,2.38-2"/>
    <path d="M150.63,169.58c1,.15,4.15.8,5.81,1"/>
    <path d="M155.16,168a18.12,18.12,0,0,1-3.76-.79"/>
  </g>
  <g class="skinFoldLine">
    <path d="M78.57,138.69a6.3,6.3,0,0,0,.12-2.31"/>
    <path d="M87.79,141.16a3.42,3.42,0,0,1-3.05,1"/>
    <path d="M92.1,160.58a4,4,0,0,0,2.7-1.18"/>
    <path d="M27.16,67.16c-8.57-2.75-6.07,6.92,2.37,6.36"/>
    <path d="M28.61,68.17c.15,1.93,4,.39,3.7,2-.22,1.1-1.76-.09-3.42.91-2,1.19-5.2-2.58-2.76-2.63"/>
    <path d="M146.32,119.33c-4.48-.09-7.4-12,1.18-4.13"/>
    <path d="M146.31,118.25c.72-1.67,2.61,2,2.78.63.14-1.19-1.9-1.37-2.1-1.72-1.44-2.49-3.12-1.54-2.19-.73"/>
  </g>
  <path class="hairCreaseLine" d="M121.81,167c-3-.87-8.14-4.52-10.09-8.46"/>
</svg>
