<svg id="presence" xmlns="http://www.w3.org/2000/svg" viewBox="0 0 1745.99 2175.36">
  <defs>
    <style>
      .cls-1 {
        fill: none;
        stroke: #000;
        stroke-miterlimit: 10;
        stroke-width: 2px;
      }
    </style>
  </defs>
  <title>cowgirl</title>
  <g id="bennett">
    <path id="bennettJeans" class="cls-1" d="M1206.25,1386.78c-10.1,27.75-60.55,32-31.12,68.12,6.73,10.09,4.38,37.16,25.23,39.52C1183.54,1507,1197,1534,1218,1534c-14.3,26.07,5.89,54.66,31.11,48.77,3.69,20.31,17.49,23.24,38.69,13.46-16.82,26.07-3,45.33,35.32,46.25-12.61,19.34,15.14,42.89,35.32,33.64-7.85,17.16.06,30.32,23.55,39.53-12.62,51.3,47.93,42.05,101.75,132l260.7-233.79c-93.34-78.21-55.5-122.78-103.43-118.58,4.77-23-6.77-37-23.55-47.93,7.55-20.27-6.08-12.48-7.83-24-2-13.12,13.51-33.09-10.51-41.08,27.1-40.21,1.52-54.35-23.71-61.92Z"/>
    <path id="skinEastAsian" class="cls-1" d="M555.81,1115.09c29.52,36.55,29.54,117.41,113.86,161.66,157.59,82.69,358.46,102.61,546.83,122.29,19.77,2.07,23.88,13.07,37.14,23.31,123.48-34.85,213.37-89.13,252.44-161.07-64.65-162.45-468.89-293.4-705.68-324.72C696.84,975.87,611.34,1031.74,555.81,1115.09Z"/>
    <path id="skinOverlapLine" class="cls-1" d="M1396.28,1297.24c-32.29-66.28-186.19-121.51-324.7-170"/>
    <path id="bennettUnderwear" class="cls-1" d="M1350.33,1431c53.53-93.31,43.78-123,46-133.75,33.62-17.43,69.16,16.69,145.74-9.48C1527.41,1426.75,1440.5,1443.37,1350.33,1431Z"/>
    <path id="bennettWaistband" class="cls-1" d="M1253.64,1422.35c72.09-76.72,182.77-68,252.44-161.07,27.61-2.56,29.43,27.21,17.85,58.7-21.24,29.84-69.36,59.77-135.26,93.09C1326.46,1433.33,1278.72,1440.39,1253.64,1422.35Z"/>
    <g id="bennettJeansInner">
      <path id="bennettJeansInner-2" data-name="bennettJeansInner" class="cls-1" d="M1506.08,1261.28c30.72,9.89,3.39,100.67-31.56,152.09-24.24,1.3-69.78-14-129.91-.25-28.14,6.41-50.4,17-91,9.23,40.91,23.9,83.85,81.62,124.28,122.1,13.42,13.44,39.37,29.64,48.8,46.81,25.31-7.27,21.51-36.92,34.48-61.91,10.52-20.27,8-51.79,21.16-64.26,14.7-13.92,16.73-33.47,15.67-52.5,41.2,1.12,77.21-11.27,105.87,36.75-16.15-57.08-5.16-95-35.32-138.24-15.37-22-36.8-76.68-71.26-63.3Z"/>
      <path class="cls-1" d="M1208.92,1398.25c-8.47,10.77-23.76,16.31-19.39,28.5,6.27,17.48,41.72-19.18,64.11-4.4-13.26-10.24-17.37-21.24-37.14-23.31Z"/>
    </g>
    <g id="clothesDisplayLine">
      <path class="cls-1" d="M1456.45,1540.53c-51.49-25.28-61.82-45.91-102-73.24-32-21.74-39-3.2-70.63-22.22"/>
      <path class="cls-1" d="M1553.48,1413c9.79-45.7.24-41.8,1.48-66.25,1.75-34.54-15.2-41.53-13.56-55.09,1.75-14.43-2.4-23.37-6.87-32"/>
    </g>
    <g id="clothesOverlapLine">
      <path class="cls-1" d="M1487.7,1459.07c9.38,8.7,12.75,21.88,9,37.47,13.82.81,17.46,23.25,8.13,36.56,13.81,2.44,17.06,28.44,2.44,40.63,20.31,5.69,36.22,15.26,36.56,34.13,20.09,35.71,50.54,72.26,85.59,109.18"/>
      <path class="cls-1" d="M1474.52,1413.37c7.25.7,14.31-1.15,23.51-.78"/>
    </g>
    <g id="clothesFoldLine">
      <path class="cls-1" d="M1674.42,1592c-28.2-6.4-50.9,10.21-69,46.13"/>
      <path class="cls-1" d="M1641,1495.26c-11.81,19.41-22,36.57.31,57.15"/>
      <path class="cls-1" d="M1617.48,1447.33c-7.36,33.32-68.52,47.89-59.09,76.19,3.73,11.18,17.51-2.66,30.76-18.64"/>
      <path class="cls-1" d="M1576.57,1445.24c-18.58,18.8-38.64,35.15-62,46.13"/>
      <path class="cls-1" d="M1569.58,1417.27c-18.63,26-41.73,46.23-73.12,55.6"/>
      <path class="cls-1" d="M1509,1442.68c16.07-6,29.11-16.73,40.4-30.14"/>
      <path class="cls-1" d="M1582.16,1584c16.31-47-32.15,2-58.47-4.11"/>
      <path class="cls-1" d="M1543.8,1607.86c-3.11,27.49-23.15,40.54-.32,69.43"/>
      <path class="cls-1" d="M1575.17,1745.79c-50.79-51.26-124.88-75-126.28-7.92"/>
      <path class="cls-1" d="M1382,1715.6c15.75,3.19,30.43,6.9,19.35,22.73"/>
      <path class="cls-1" d="M1358.46,1676.07c41.5-19.75,84.84-13.69,42.9,20.33"/>
      <path class="cls-1" d="M1507.24,1573.73c-36.45,16.42-86.77,93.78-21.07,49"/>
      <path class="cls-1" d="M1323.14,1642.43c34.42-7.08,54.46-50.88,75.42-47.62,18.92,3-1.31,22.13-34,44.74"/>
      <path class="cls-1" d="M1287.82,1596.18c29.67-19.54,62.75-16.74,27.34,11.68"/>
      <path class="cls-1" d="M1496.67,1496.54a28.64,28.64,0,0,1-17,12.07"/>
      <path class="cls-1" d="M1488,1528.65c-7.63,10.19-24.7,15.37-35.22,23.76"/>
      <path class="cls-1" d="M1504.8,1533.1q-8.61,13.38-27.49,26.77"/>
      <path class="cls-1" d="M1175.13,1454.9c24.12,16,48.9,17.89,73.86,16"/>
      <path class="cls-1" d="M1200.36,1494.42c26.73,1.14,49.59-6,77.52-14.7"/>
      <path class="cls-1" d="M1218,1534c25.85,0,66.38-11.36,99.93-25.34"/>
      <path class="cls-1" d="M1249.13,1582.72c14.7-2,28.5-7.46,41.79-14.93"/>
      <path class="cls-1" d="M1377.92,1544.45c3.4,20.54-35.74,32.66-17.1,41.51"/>
      <path class="cls-1" d="M1323.14,1485q-40,20.44-87.47,27.36"/>
      <path class="cls-1" d="M1349.14,1513.81c-47,29.75-114.87,34.21-110,46.06,3.81,9.32,15.93-2.8,34.1-9.79"/>
      <path class="cls-1" d="M1440.5,1443.37c-24.69-.46-25.63,23.77.93,43.34"/>
      <path class="cls-1" d="M1387.38,1432.19c13,.47,28.89,28.89,7.46,39.14"/>
      <path class="cls-1" d="M1434.91,1308.24c-11.08,4.76-19.8,9.89-26.09,15.38"/>
      <path class="cls-1" d="M1502.52,1359.79a156.08,156.08,0,0,1-39.19,29.06"/>
      <path class="cls-1" d="M1543.48,1346.92c-11.65-30.29-17.24,36.34-32.15,46.13"/>
      <path class="cls-1" d="M1336.12,1399.57c34.49-21-22.36-7-50.79,21"/>
      <path class="cls-1" d="M1189.53,1426.75c10.9,28.65,46.75,18.67,78.45,26.78"/>
    </g>
    <path id="bennettShirt" class="cls-1" d="M724.76,984.89c-44.8,32.75-121.72,63-166.89,144.81-6.77-5.56-18-13.15-18.82-29.46-7.67-18.83-31.43-21.37-28.63-42.54,7.44-32.13-40.84-31.52-36-64.63-30.29-.1-27.86-38.55-49.08-57.27C-105.78,282.88,777.46-15.42,724.76,984.89Z"/>
    <path id="bennettSleeves" class="cls-1" d="M492.37,372.16c.3,48-84.23,103.13-149.3,85.72-14.83,36.49-36.87,61.72-50.88,88,.55,14.92-11.21,16.24-16,22.78,10.84,11.39,12.75,24.72,5.46,40,10.08,8.73,14.1,17.43,6.68,26.08,12.33,17.8,20.31,37.87,24.26,60,9.2,5.92,19.07,19.82,13.95,30.33,9.51,14,15.32,34,20,55.81,12.46,6.49,8.09,16.54,20.63,17.59,5.55-6.44,17.87,3.18,44.28-2.42,28-5.94,22.5,157-6.07,155.89-56.23,9.88-109.57,14.72-141.94-14-42.17-37.34-47.11-104.35-74.18-157.57-52.5-103.22-92.54-203.76-16.9-312.32Z"/>
    <g id="skinEastAsian-2" data-name="skinEastAsian">
      <path class="cls-1" d="M638,735.71c-83.13,55.1-179.39,57.41-228.12,64.77-37.48,5.65-34.8,146-6.77,147.89C515.19,929,599.29,838.17,679.52,819.81"/>
    </g>
    <g id="clothesFoldLine-2" data-name="clothesFoldLine">
      <path class="cls-1" d="M539.05,1100.24c50.47-79.16,100.41-120.77,77.78-113.69-30,9.39-57.62,45.45-86.37,82.79"/>
      <path class="cls-1" d="M535.23,956.77c-20.7,5.35-41.18,14.05-60.81,36.3"/>
      <path class="cls-1" d="M684.53,856.13c-32.48,13.52-62.63,28.31-88.38,45.5"/>
      <path class="cls-1" d="M700,912.39c-69.93,21.23-112.83,69.9-133.33,66.62-14.77-2.37,28.82-45.39,90.29-72.28"/>
      <path class="cls-1" d="M708.32,924.75c-38.77,32.13-80,65.09-72.45,82.57,5.79,13.46,35.28-29.09,69.34-43"/>
      <path class="cls-1" d="M343.44,897.23c-8.27-34.7,4-67.11,23.72-98.69-71.32,15.29-44.85,128.81-71.32,125.08-36.75-5.18-3.29-102.72,46.18-122"/>
      <path class="cls-1" d="M241.65,862.83c19.57-3.67,35.35-31.57,62.68-49.47"/>
      <path class="cls-1" d="M268.51,884.51c8.75-24.38,7.51-32.68-15.08-6.6"/>
      <path class="cls-1" d="M238.36,836.45c17.8,2.35,32.8,1,44.17-5.29"/>
      <path class="cls-1" d="M360.47,795.78c-45.31-22-88.66,38.78-133,20.87"/>
      <path class="cls-1" d="M216.68,762.46c21.92,14.18,61.09,19.5,101.78,24"/>
      <path class="cls-1" d="M346.53,781c-23-9.44-48-15.46-74.25-19.43"/>
      <path class="cls-1" d="M245,675.76c34.21,11.66,63.75,26.51,81.56,49.38"/>
      <path class="cls-1" d="M312.56,694.81c-32-27.85-70.4-39.74-113.79-39.31"/>
      <path class="cls-1" d="M196,588.58c34.87,18.85,67.79,17.89,92.35,46.18"/>
      <path class="cls-1" d="M281.62,608.68c-35.82-26.1-77.19-38.47-118.66-50.25"/>
      <path class="cls-1" d="M180.4,531.57c38.33,5.51,69.9,24.07,93.3,58.43"/>
      <path class="cls-1" d="M270.87,532c5.84,13.58,9,26.24,5.29,36.6-8.72-16.34-26.71-31.19-47.7-45.55"/>
      <path class="cls-1" d="M286.89,514.6c5.92,26.8,9.88,53.08-.95,75.4"/>
      <path class="cls-1" d="M292.74,601.78C308.62,577.47,317,546,319.88,509.42"/>
      <path class="cls-1" d="M289.45,617.36c34.2-25.48,55-73.86,90.27-107.94"/>
      <path class="cls-1" d="M291.22,630.09c21.59-11.82,42.39-41.64,64.47-55.64"/>
      <path class="cls-1" d="M305.47,668.15a110.54,110.54,0,0,0,55-7.94"/>
      <path class="cls-1" d="M310,682.94c68,9.78,140.05-16.23,213.9-59"/>
      <path class="cls-1" d="M340.5,757c25.67-2.76,52.58-12.22,80.22-25.63"/>
      <path class="cls-1" d="M344.31,771.24a108.66,108.66,0,0,0,45.78-11.6"/>
      <path class="cls-1" d="M453.23,503.77c19.33-9.23,36.36-19.2,50.42-30.16"/>
      <path class="cls-1" d="M464.54,634.76c28.27-14.6,58.54-27.75,80.85-44.76"/>
      <path class="cls-1" d="M617.58,689.93A592.35,592.35,0,0,1,505,752.57"/>
      <path class="cls-1" d="M623.93,709.11c-20.46,16.3-37.34,34.06-43.14,56.33"/>
      <path class="cls-1" d="M483.39,782.73c55.13-25.45,122.52-71.16,69.27-18.38"/>
    </g>
  </g>
  <g id="miriam">
    <path id="miriamPantyhose" class="cls-1" d="M704.07,1157.55c-45.81,150.47-76.7,330.17-44.78,384,100,168.45,381.69,281.82,379.13,364.71-3.22,104.14,18.64,108.64,4.5,190.28-3.73,21.5-54.72,54.39-11,76.32,14.33,7.19,54.46-11.86,83.84-35s37.5-79.54,57.94-112.37c42.29-67.92,103.52-123.11,65.39-149.78-100.47-70.27-128.51-88.14-170.21-134.73-102.68-114.69-135.45-192.24-225.23-276.48,86.36-162.66,143.63-297.68,243.7-345.77,33.67-15.22,73.21-30.85,107.46-26,52.88,7.47,98.21,29.79,130.21,42.34,86.84,38,138.34,57.67,172.33,112.76,5.47-2.36,12.87-2.87,18.34-.93-73.06-112-156-232.72-215.14-280.08Z"/>
    <path id="miriamPantyhoseDense" class="cls-1" d="M717.3,1119.65c-11.76,9.42-3.14,14.74-9.58,24.94-5.52,1.75-6.27,8.17-3.65,13,170.38,56.55,263.19,17.61,383.25-38.84,96.13-45.2,185.56-105,213.2-151.92-2.74-9.7-11.19-6.78-15.46-15.83.19-4.36-3-7.57-8-9.39l-139.43,126c-18.87,10.63-42.64,21.84-64.6,31.72Z"/>
    <path id="clothesEdgeLine" class="cls-1" d="M1226.13,1899.31c-16-7.28-89.83,86.67-117.18,192.88-12.38,48-68.42,56.77-72.79,72"/>
    <g id="skinWhite">
      <path class="cls-1" d="M.81,222.33C73,320.86,113,478.89,230.05,507.18,306.68,525.7,425.16,413.53,513.63,372c13.26,141.26,284.4,323.39,206.2,678.27-5.83,21.2-4.84,49.28-2.53,69.41,62,25.64,125,33.62,192.89,25.22,83.24,11.33,142.67-17.39,187.25-71.08,93.24-.76,127.63-86.36,179.6-132.22,12.06-40.37-16.34-93-87.7-126.28-320.53-141.51-163.28-490-328.68-635.37C778.29,123.8,736.89,62.16,739.13,0"/>
      <path class="cls-1" d="M69.09,170.63c31.22,75.11,160,150.25,179.52,197.08,56.56-33.2,109.24-52.71,171.33-114.43,47.13-46.84,94.57-83.34,163.15-86.16,13.31-7,14.63-33.34,12.78-64.78"/>
    </g>
    <g id="skinOverlapLine-2" data-name="skinOverlapLine">
      <path class="cls-1" d="M1097.44,1073.79c40.91-63.23,36.94-143.43,6.19-198.48"/>
      <path class="cls-1" d="M513.63,372a94.94,94.94,0,0,1,36.14-7.48"/>
    </g>
    <path id="skinCreaseLine" class="cls-1" d="M855.43,353.55c13.79,38.42,22.87,73.11,26.49,98.84"/>
    <path id="miriamDress" class="cls-1" d="M860.66,179.92C907.8,195.43,937,284.4,958.09,406.71c12.08,18.82,23.13,65,27.83,107.25,2,13.43,18.54,28.14,4.92,40.12-6.27,34.2,29.15,39.73,19.65,56.49,6.74,19.22,21.13,28.63,25.38,41.76,21.6,7.69,31.21,18.59,28.65,32.75,47.33,2.44,55.56,43,82.06,57.67,29.64,5.86,24,65.28,92.33,93.8-134.23-5.82-294.2,166.33-401.59,184-53.92,8.9-107.41-4.12-117.49,29.65-37.5-14.15-.41-45.15-4.09-71.23-22.89-12.66-.75-32-4.91-49.13-8-19.44-29.61-30-13.1-52.4-16.51-42.32-39.75-16.86-28.66-59.76-44.86-78.88-57.55-176-83.61-194-112.7-77.83-64.38-142.5-66.1-223.5,62.06,92.62,171.83,85.12,227.4,29.61-31.22-107.79-89-232.27-163.67-262.69-4.06-5.16,3-9.61,9.59-8.14,53.11,20.24,124.77,118.88,166.08,270.63C811,467.55,926.54,459.12,947.61,422,934.12,303.15,897.87,211.25,860.66,179.92Z"/>
    <path id="clothesOverlapLine-2" data-name="clothesOverlapLine" class="cls-1" d="M843.62,1464.48c-49-32.85-116.73-13.76-149.71,31.37"/>
    <g id="clothesFoldLine-3" data-name="clothesFoldLine">
      <path class="cls-1" d="M990.84,554.08c-29.46,16.59-68.25,28.09-116,34.7"/>
      <path class="cls-1" d="M1010.49,610.57c-10.26,8.26-27.61,13-48.89,17.71"/>
      <path class="cls-1" d="M1024.27,654.89c-25.76,2.58-64.39.86-104.75,17.17"/>
      <path class="cls-1" d="M1064.52,685.08c-39.84-6.82-89.16,3.15-140.7,17"/>
      <path class="cls-1" d="M1146.58,742.75c-59.8-12.92-129.18,4.87-200.44,22"/>
      <path class="cls-1" d="M1064.63,717.57c-47.39-17-106.83-7-172.58,17.17"/>
      <path class="cls-1" d="M968.46,601.66c-16.63,8.22-42.93,13.74-60.1,21.47"/>
      <path class="cls-1" d="M980.48,532.12C940.74,560.69,841.39,569,771,575.9"/>
      <path class="cls-1" d="M734.12,619.32q20.76-.92,42-3.92"/>
      <path class="cls-1" d="M654.22,614.54A363,363,0,0,0,693.13,619"/>
      <path class="cls-1" d="M625.89,627.42a184.19,184.19,0,0,0,55.81,9.44"/>
      <path class="cls-1" d="M697.73,877.48c202-155.62,309.37-56.88,401.24-91.22"/>
      <path class="cls-1" d="M1141.9,769.08c-54.09-17.17-102.17-2.57-148.54,3.44"/>
      <path class="cls-1" d="M686.85,842.06c6-7.62,19.69-15,36.06-22.32"/>
      <path class="cls-1" d="M720.33,898.73c44.72-37.16,116.4-69.52,181.16-68.69"/>
      <path class="cls-1" d="M1081.8,832.62c-77.69.06-200,27.81-257.58,56.67"/>
      <path class="cls-1" d="M1166.92,835.47c-92.47,19.51-160.33,96.7-224.8,113.66"/>
      <path class="cls-1" d="M919.22,974.58c-143.08,58.53-193.4,15.11-212.7,40.48"/>
      <path class="cls-1" d="M976.9,901.63c-40.45,13.25-74.64,35.63-109.42,52.59"/>
      <path class="cls-1" d="M715.74,979c14.2-30.38,61-41.75,105.08-44.3"/>
      <path class="cls-1" d="M766.53,922c-22.75,5-41.42,13.34-51.74,28.84"/>
      <path class="cls-1" d="M1134.21,824c-53.77,37.3-148.31,33-217.69,76.33"/>
      <path class="cls-1" d="M1285.06,951c-10.22,16.71-41.62,46.25-61.38,61.43"/>
      <path class="cls-1" d="M707.72,1144.59c29.32,13.25,81.67,24.67,120.21,26.57"/>
      <path class="cls-1" d="M726.59,1138.34c42.54,18,132.53,28.5,177.74,19.28"/>
    </g>
  </g>
</svg>
