<svg viewBox="0 0 2838.28 1684.35">
    <g class="blanket">
        <path class="bennettBlanket" d="M1429.45,1236.24c20.62,16.31,51.6,36.43,56.61,55.72,38.61-10.44,78.66,22.4,103,25.76,34.34,6.66,50.92,41.5,76.11,76.1,57.32,96-6.09,176.58,8.76,209.25,9.71,21.37,32.67,40.6,61.49,48.34-31.79,27.9-77.83.35-98.35,8.37-27.59,10.78-44.9,9.34-66.26-4.85-69.63-18.44-120.64,15.52-199.53,19.9-57.72,4.48-95.34-48-238.86-3.51-181.21-42.5-274.19,38.52-414.85-10.82-71.83-25.19-100,35.64-168.24,1.45-90.15.53-167.25,33.82-277.49,10.54-86.74-18.32-133.43,14.74-173.29-1.17C179,1648.62,182,1564.47,271,1588.69c33.74-36.1,122.56-98.36,201-148.83,95.14-76.36,129.47-192.45,175.4-249.4,42.5-52.69,101.9-62.59,164.44-93.18Z"/>
        <g class="bennettBlanketInner">
            <path d="M1371.32,1674.83c114.85.09,141.36-23.1,199.53-19.9-59.82-26.4-56.39-143.32-124.79-114.73C1394.47,1561.77,1482.86,1663.33,1371.32,1674.83Z"/>
            <path d="M593.11,1672.63c64.82-7.53,65.46-37.15,145.33-5.66C692.74,1673.34,641.56,1674.52,593.11,1672.63Z"/>
            <path d="M549.37,1662c-30-15.16-52.42-54.82-99.32-26.15-41.35,25.28-84.15,43.81-136.69,43.1C389.62,1691.42,467.62,1665.42,549.37,1662Z"/>
        </g>
        <g class="blanketFoldLine">
            <path d="M1650.39,1460.3c-11.53,50.72-76.08,51.49-79.92,115.27"/>
            <path d="M1559,1537.15c-15.06,30.69-6.56,56.91,26.89,78.38"/>
            <path d="M1446.06,1540.2c33-18.36,78.81-28.62,129-36.1"/>
            <path d="M1495.17,1503.34c-71.47-23.83-103.55-2.55-142.16,11.52-32.89,12-88.37-3.07-138.32,33"/>
            <path d="M1456.86,1494.07c37-9.62,69.81-38.38,66.74-49.9-3.84-14.4-25-2.81-49.18,24.95"/>
            <path d="M1292.3,1448.78c32.27-43.8,33-104.51,49.18-126.79,37.16-51.33,86.83-4.62,129.86,7.68"/>
            <path d="M1341.48,1322c-11.53-22.14-27.32-39-48.41-49.18"/>
            <path d="M1446.06,1319.77c6.75-17.08,22.21-23.14,40-27.81"/>
            <path d="M1475.19,1315.07c21.57,8.66,29.7,22.72,22.28,43"/>
            <path d="M1280,1416.5c-46.1,26.13-51.48,76.85,50.72,73"/>
            <path d="M1191.63,1380.39c17.68-30.74,65.35-47.11,50.72-69.16-9.59-14.46-25.08-.76-40,26.12"/>
            <path d="M662.23,1418.36c73.81-64.46,84.09-155.08,29-106.5"/>
            <path d="M796.76,1226.84c-42,15.89-91.55-1.86-136.39,71-47.41,77-91.56,42-17.75-43.91"/>
            <path d="M271,1588.69c-14.25,13.71-20.41,26.77-31.07,31.46"/>
            <path d="M258.65,1631.37c-31.77,16.81-66.33-1.87-28.63-20.29"/>
        </g>
    </g>
    <path class="miriamUnderwear" d="M2235,1371.59c51.55,123.76,65.65,244.37.22,297.86,148.77,51.31,279.33-46.2,279.77-182.67C2422.16,1485,2284.12,1453.73,2235,1371.59Z"/>
    <path d="M2186.74,1283c-186.32-64.34-407.34-145-466.13-106.23-34.71,22.9-97.92,71.42-179.86,122.06,18.75,7.46,35.67,17.18,48.35,18.93C1589.1,1317.72,2268,1366,2186.74,1283Z"/>
    <g class="eye">
        <g class="sclera">
            <circle cx="1858.18" cy="520.53" r="122.27"/>
            <circle cx="2344.22" cy="377.97" r="35.76"/>
        </g>
        <g class="irisDarkBrown">
            <ellipse cx="1775.54" cy="481.31" rx="21.69" ry="21.42" transform="translate(626.58 1918.01) rotate(-66.52)"/>
            <ellipse cx="1902.52" cy="540.84" rx="21.69" ry="21.42" transform="translate(648.37 2070.28) rotate(-66.52)"/>
        </g>
        <path class="irisBlue" d="M2331.17,402.91c-2.85.16-10.24-9.31-10.93-21.47s5.59-22.4,8.44-22.56A107.59,107.59,0,0,1,2331.17,402.91Z"/>
        <g class="pupil">
            <ellipse cx="1773.96" cy="481.17" rx="8.44" ry="8.33" transform="translate(625.76 1916.48) rotate(-66.52)"/>
            <ellipse cx="1900.94" cy="540.7" rx="8.44" ry="8.33" transform="translate(647.55 2068.75) rotate(-66.52)"/>
            <path d="M2324.14,389.81c-2.28.13-3.63-3.64-3.9-8.37s.66-8.62,2.94-8.75A57.54,57.54,0,0,1,2324.14,389.81Z"/>
        </g>
    </g>
    <g class="skinEastAsian">
        <path d="M1955.3,763.63c-44.68,3.43-113.83,62.33-142.12,113.31L1674.91,748.27Z"/>
        <path d="M1745.18,459.07c16.18-69.11,47.52-45.31,77.21-132.58,204.56-57.55,404,245,299.15,353.6-12.2,50.65-46.11,51.84-69.81,67.73-20.35,13.66-48.57,17.55-53.87-6.1-40.59,47-115.4,51.72-179.58,41.86-59.48-9.14-66.7-4.41-109.82-34.18-26.22-18.09-20.35-49.9-28.58-85.68C1655.13,556.07,1739.8,482,1745.18,459.07Zm135.1,78.46c21.29,23,45.91,32,77.89,29.4-7.77-11-25.16-38.36-41-45.71-12.34-5.72-27.16-3.14-38.86,9.48C1874.28,535,1878.53,535.64,1880.28,537.53Zm-61.66-35.35c-.83-14.92-3.41-27.55-18.17-34.63-9.45-4.52-26.14-5.22-31.74-4.26-3.46,3.35-8.12,13.58-8.91,19.79,14.17,22.85,47.78,18.35,53,21.46C1816.47,506.71,1818.8,505.43,1818.62,502.18Z"/>
    </g>
    <g class="head50">
        <path class="lipMaleMedium__noStroke" d="M1751.52,691.93c42.93,25.1,69.42.7,83.43-1.65,1.28-28.73-29.49-35-48.8-51.29-12.41-2-18.73-5.14-24.88-11.66-5.64,4.23-15.73-5.69-27.06.89C1743.94,642.07,1714,670,1751.52,691.93Z"/>
        <path class="mouthInner" d="M1833.52,688.57c-1.11-27.25-31.15-35.3-55.61-38.57-16.58-2.22-21.06-19.15-35.82-21.74C1731.41,661,1819.8,696.44,1833.52,688.57Z"/>
        <g class="eyebrowBlack">
            <path d="M1903,460.54c8.9,39.57,64.19,39.79,82.72,83.54C1989.73,493.66,1932.58,490.35,1903,460.54Z"/>
            <path d="M1762.18,418.09a84.71,84.71,0,0,0-6.42,10.57c47.5-4.74,63.13,32.75,93.21,13.92C1812.9,435.05,1796.23,409.85,1762.18,418.09Z"/>
        </g>
        <path class="hairBlack" d="M1990.39,469.64c3.64,12.75,2.7,23.29,2.34,35.43-24.66-49-84.65-42.83-101.54-83.51-2.63,12.7-1.93,20.51-.53,33.23-19.69-35.67-69.75-41.26-21.3-131.54-30.61,51.88-81.89,74.26-117.38,68.4,30.19-24.37,16-70.76,83.52-95.32-11.18.5-26.64-1.09-36.56-4.82,32.8-2.48,53.06-39.82,133.93-52-4.79-14.19-17.91-19.83-34-18.73,11.57-9.39,47.2-7.75,56.93,19,14.93-24.72,45.78-33.09,76.67-23.79-21,.3-49.54,7.68-53.78,26.87,68,9,207.81,79.17,232.19,193,28.95,135.24-70.68,240-89.38,244.3,5.18-22.55-23.25-62-54.42-38.05-8.73-3.8-24.36-16.94-29.26-24.25,23.78-33.28,26.61-29.39,16-77.86C2030.28,521.05,2003.48,508.42,1990.39,469.64Z"/>
    </g>
    <g class="bennettUndershirt">
        <path d="M1849.92,1089.38c3.26.57-4.3,43.54-7.56,43-46-11.19-95.92-19.93-148.66-26.88C1744.85,1026.32,1796.68,1001.46,1849.92,1089.38Z"/>
        <path d="M1797.11,1041.51c-83.25,92.51-202.94,158.39-298.69,174.76-30.53,5.23-22.68,21.45-69,20-33.09-1-70.88,36.73-119.4,14.93-33.38.38-67.39,21.8-89.55-2.8-68.56-6.9-101.19-256.23-71.82-378,12.84-22.31,19,11.5,36.24,4.65,5.11-10.53,11.09-13.12,18.22-5.13,10.52-33.56,28.31,2.44,41-12,12.93-18.49,26.07-13.4,39.19-11.81,59.26-43.67,124-87.43,175.32-114.86,50.62-27,52.75-51.35,133.5-58,41.41-20.59,69.55-11,87.25,22.39,20.51,13.84,53.37,27.25,45.55,50.18,29.82,14.31,50.93,62.84,45.57,74.17Z"/>
    </g>
    <g class="skinEastAsian">
        <path d="M2133.56,1623.13,1818.2,1262c0-43.13,12.31-82.57,18.38-131.08-36.68-8.7-75.78-15.88-116.76-21.87q-9.54,6.6-19.3,12.7c-6.9,48.21-5.88,107.87-1.65,172.17,17.16,85,120.72,159.58,195.66,249.78,31.87,41.08,2.94,81.73,96,107.53,29.14,8.08,52.77-8.21,105.92.78C2139.81,1659.87,2150.37,1633.56,2133.56,1623.13Z"/>
        <path d="M1147.75,874.4a385.23,385.23,0,0,1-46.29-3.53c-10.32,116.53.66,243.38,39.35,356.05,17.36,2.81,34.09,3.71,50,2.13C1143.79,1169.51,1124.46,977.67,1147.75,874.4Z"/>
        <path d="M492,1365.84C303.43,1339.21,275.27,1269,239.63,1261c-50.6-11.31-67.86,90.5-158.55,156.27-20.64,15-21.75,34-43,33.1-25.83-1.16-45.58,25-33.38,38.51-1.78,16.56,4.12,23.36,16,22.47-3.85,23.75,16,22.22,27.61,17.33,24.18-10.14,55.2-10,76.38-23.47,19.29-12.27,31.77-14.93,105.92-57.41,94.39-54.08,195.52,56.9,309.4,107.84,113.28,50.67,227.22,134.94,289.78,60.41,46.49-53.15,99.27-127.2,133.63-186L827.08,1145c-44.18,99.13-73.41,190.37-118.21,291.88C618.74,1369.13,533.94,1371.77,492,1365.84Z"/>
        <path d="M492,1359.84c23.74-24,50-4.41,72.1,10.13,134.4,95.51,309.31,67.47,405.73,84.63-48.28-94.76-111.66-173.79-142.73-319.59l309.26,33.29c52.55,158.35,90.85,309.48,78.39,434.89-9.29,131.44-218.82,76.63-384.9,2.86-95.68-43.42-226-109.67-289.78-60.41-44.29,31.45-73.18,35.94-105.28,51.35-38.51,15.41-69.32,44.29-87.94,31.1-8.77,2.56-15.56.86-20.54-6.71-7.83,4.19-14.4,4.27-19.9-2.56-30.17,12.83-30.65-31.74-3.49-45.65,16.17-8.29,28.81,4.21,42.29-12.48-4.49-34.67,54.28-51.64,76.39-84.66C456.78,1435.59,466.07,1386,492,1359.84Z"/>
    </g>
    <path class="bennettWaistband" d="M1049.53,857.68c26,2.24,34.41,9.93,61.7,10.33-11.2,64.34-8.59,146.16,5.4,224.15C1025.05,1044.23,982.19,951.66,1049.53,857.68Z"/>
    <path class="bennettUnderwear" d="M1148.18,1187.44c-26.15,12.89-86.53,30.4-129.27,40-18.13-24.44-24.26-48.55-41.67-68.88a564.12,564.12,0,0,0,1.92,78.76c-23.72,6.8-113.34,19.45-157.55,30.94-10.62-62.1-38.62-126.29-41.46-181.14C773,948.32,884.44,826.9,1049.53,857.68c-9,29.08-13.56,58.49-11.06,88.44,10,9.84,14.26,17.77,15.31,24.67,32.88,21.74,40.31,74.55,57.18,117.78,13.46,5.57,9.49,17.92,13.7,31.1C1140.68,1126.48,1134.68,1152.89,1148.18,1187.44Z"/>
    <g class="skinNordic">
        <path d="M2221.93,1341.94c-124.1-77.22-440.95-162.59-489.85-133.25-11.89,7.14-54,44.52-143,109,34.34,6.66,50.92,41.5,76.11,76.1,18.93,31.7,24.69,61.72,24.45,88.9,80.95-30.85,78.62-99.87,94.68-86.81,169.36,117.06,337.52,248.64,450.84,273.54C2305.83,1611.69,2283.76,1475.68,2221.93,1341.94Z"/>
        <path d="M2135.46,262.62c35.38,94.05,125.46,166.88,203.12,291.13,91.46,89.73,96.63,60.4,143.23,99.22L2351.52,777.22c-40.64-59.28-89.22-105.67-132-151.86-75.93-82-96.71-229.2-151.93-345.68-10.15-18.29-42.28-21.86-46.16-85.93-6.48,30.87-33.32,18.87-30.47,9.23,7.65-20.79-4.45-25.36,11.93-49.42-25.53,29.89-52.55,7.15-41.13-1.06,7.14-5,6.07-11.78,14.22-21.24-5.65-18.38,6.56-31.34,17.75-19.89,19.08-9.56,28-22.77,60.37-3.55-12.37-15.29-6.3-22.79-51.64-25.65-28,22.76-53.2,7.14-42.49-6.78,13.89-8.32,17.21-20.45,30.35-24.7,14.07-4.56,37.34-1,53,3.87-2.31-3.65-8.26-8-13-13.8-46.41-13.56-34.07-41.95-23.92-39.63,21.26,11.25,24.64-2.85,62.12,26.07,29.06,22.41,28.92,38.19,38.15,57.19,13.49,27,30.35,26,34.79,45.45C2154.93,188.78,2132.91,238.49,2135.46,262.62Z"/>
    </g>
    <path class="miriamNightie" d="M2370.37,745.34c-71.65,68-185.29,68.65-134.44,214.45-11.23,44.71-7.63,63-7.65,85,0,32.71-10.4,45.07,8.12,90.47-21.61,20-31.43,41.34-15.77,75.37l1.3,131.34c41.65,142.21,322,162,374.35,134.15-19.81-140.15,5.79-309.48,34.69-454.33C2566.3,998.35,2469.49,875.44,2370.37,745.34Z"/>
    <path class="skinEastAsian" d="M2227.91,1356.26c-78.47-38.35-61.66-81.67-77.67-87.94-123.72-50.55-265.89-109.14-314.55-174.93-38-51.41-133.13-94.87-209.49-231.3,1.93-8.65,96.74-46.38,138-46.38,155,127.37,170.29,179.24,198.23,196.53,53.35,33,122,121.06,237.78,175.6,29,12.44,68.59,9.59,100.67,23,42.59,17.74,59.92,42.77,83.67,52.4,14.77,7.06-1.28,28.24-23.75,19.26,44,41.14,53.81,72.67,72,91.79,8.14,17.2-25.33,35.29-51.57-10-6.47-9-12.29-15.59-19.36-20.36,22.62,32.58,24.79,60.62,36.55,79.17,8.14,14.48-38.91,33.93-46.6-22.62-5.7-5-10.86-20.53-22.86-31.61,21.69,30,20.77,52,25.39,62.58,8.31,16.61-27.15,35.53-41.92-13.85-11.11-22.92-27.21-44.91-41.07-62.3,19.35,30.35,22.77,53.38,27.84,66.3,3.69,12-32,24.22-39.77-17.61C2246.87,1388.38,2248.05,1375.78,2227.91,1356.26Z"/>
    <g class="teeth">
        <path d="M1777.91,650c-12.67-1.7-18.28-12-26.8-17.9-2.3,5.62-4.13,10.89-2.85,13.88,10.55,24.62,50.51,36.56,81.6,28.8C1821,658.38,1797.63,652.64,1777.91,650Z"/>
        <path d="M2332,527c1.09,10.55,0,25.28,10.34,21.72a37.21,37.21,0,0,0,2.6,11.52C2393.25,540,2370.19,520.18,2332,527Z"/>
    </g>
    <path class="teethOverlapLine" d="M2342.36,548.76c6.24-1.84,13.15-5.22,20.43-8.63"/>
    <g class="skinNordic">
        <path d="M2488,999.85c33.84,8.2,67.56,13.84,110.35,4h0c11.57,8.18,22.47,14.28,32.59,17.94,53.41-183.77-4.76-306.51,8.55-388.4l-161.73-19.45c-23.54,73.7-72.83,102.52-72.83,102.52Z"/>
        <path d="M1657,911.16l-8.37-12.25c5.56,0,25.44,0,33-1C1671.93,903,1663.13,908.58,1657,911.16Zm812.45-196.92c-48.42-16.89-92.24,51.52-92.24,51.52-61,39-133.95,75-209.51,114.89-102.28-12.79-178.32,32-299.79,1.06-23.24-46.81-36-43.23-52.63-63.82-16.92-20.91-13.28-61.79-60-43.3,21.88,44.71-45.69,80.42-125.35,86.22-54.72-10.64-55.29,25.09-41.11,27.93,13.69,1.35,27.87,10.82,53,10.17-16.25,20.51-14.3,31.58-8.38,41.34,6.57,10.82,15,11.32,33,8.65-1.16,10.06-3.24,18.36,3.37,26,5.58,6.43,10,9.68,23.65,8.52-1.22,8.12.75,12.12,8.37,18.66,8.89,7.64,21,8.8,43.4-7,20.79-14.64,34.21.7,88.85-31.32,106.55,21.31,244.14,78.85,348.56,43.69,70.91-23.88,159.43-50.08,251.06-102.29,21.21-12.32,44.57-23.77,66.34-24.83"/>
        <path d="M2439.83,616c-34.06,17.33-47.21,29.66-63.71,30.57-51.49,2.83-15.39-50.17-51.3-56.41-14.43-29.22,28.22-34.53,39.38-44.83a104.37,104.37,0,0,0-4.41-13.91c-12.27-2.9-30.25-1.61-39,.15-6.48,0-11.27-2.4-12.35-7.19,2.62-11.08,6.27-24.94,2.38-35.95-34.5,10.65-50.51-.88-42.74-19.64,14.4-34.75,45-69.17,29.54-101.54-14.4-30.13-6.39-106.67,6.39-162.06C2636,95.49,2771.74,506.3,2439.83,616ZM2326,399.85c8.87-3,22.85-11.22,36.62-19.22-11.39-7.65-27.09-15.81-38.89-18.12C2318.27,374.82,2319.56,390.79,2326,399.85Z"/>
    </g>
    <g class="skinOverlapLine">
        <path d="M2053.32,1605.66c23.15,5.32,30,1.52,42.73,2.29"/>
        <path d="M2327.87,1305.54c11.39,9.43,24.74,25.53,34,38.39"/>
        <path d="M2301.56,1334.78c10.21,9.42,19.64,24.74,27.43,34.09"/>
        <path d="M2318.62,1235.64c19.64,11.39,20.82,33,42.16,46.81"/>
        <path d="M2021.42,193.75c-1.05-14.15-12.79-30.75-15.6-36.36-5.33-10.63-19.53-5.37-29.85-26.13"/>
        <path d="M1993.72,111.37c11.33,8.1,20.15,4.62,31.62,13.08,7.28,5.36,14.56,20.3,23.75,29.11,21.44-29.11,10.83-80.17-5.79-99"/>
        <path d="M2053.48,146.55c-5.19-1.67-11-6.8-16.8-8.58"/>
        <path d="M1648.65,898.91c-2,0-4.45.06-6.83,0"/>
        <path d="M1666.44,948.9a143.54,143.54,0,0,0,32.44-11.61c-10.16,10.11-18.36,10.79-23.46,15.43"/>
        <path d="M1693.46,983.4a142.36,142.36,0,0,0,28.65-11.47"/>
        <path d="M1657,911.16c-4,2.45-9.16,4.23-12.31,6.86"/>
        <path d="M969.81,1454.6c51.32,4,98.77,42.56,118.11,81.58"/>
        <path d="M48,1456.56c-17.17,9-28.37-3.73-42.08,9.15"/>
        <path d="M53.76,1464.42c-14,15.17-42.16,0-49.06,24.46"/>
        <path d="M76,1464.78c-1.12,16-44.8,9.33-55.25,46.57"/>
        <path d="M306.39,1618.82c-10.4-18.69,8.83-35,23.25-30.52,6.61-.32,14.38-.8,17-4.81"/>
        <path d="M326.29,1621.38c-10-19,7.53-30.86,20.1-27.91,7-.69,11.7-3.37,13.21-7.39"/>
        <path d="M346.83,1628.09c-14.23-11.69-.18-32.4,11.66-30.55,6.63,1.22,12.21-6.23,15.9-12.57"/>
    </g>
    <g class="skinFoldLine">
        <path d="M2002.45,82.17a21.32,21.32,0,0,1-5.42-9.32"/>
        <path d="M2057.12,665.27c46.74-45.06,80.12,33.3,5.34,58.84"/>
        <path d="M2051.13,674.72c11.65,20.83-25,32.46-18.72,40.48,5.55,7,14.42-10.6,25.41-8.18,24.28,5.35,32.12-30.07,13.68-30.61"/>
    </g>
    <g class="skinCreaseLine">
        <path d="M2298.35,563.12c-19.36,10.53-31.68,18.62-44.6,34.56"/>
    </g>
    <g class="skinEdgeLine">
        <path d="M1884,1042.51c-14,9.42-23.63,20.76-20.83,37.5"/>
        <path d="M514.8,1363.39c-7.47,40.54-67.4,132-124.73,187.42-19.39,18.74-43.42,23.33-44.88,9.88"/>
        <path d="M217.51,1273.21c0,14.24-67.21,116.57-123.69,160.37-20.62,16-40.06,16-29.16.16"/>
        <path d="M2321.61,1279.34c-11,25.37-16.93,7.23-31.77,29.77-7.39,11.22-17.9,2.41-26.9,14.56-5.7,7.69-8.7,8.81-13.58,9.19"/>
    </g>
    <g class="miriamNightieLace">
        <path d="M2408,719.19a26,26,0,0,1,2.79,3.63c186.46-114,259,105.2,187.58,281,2.41,1.7,4.79,3.32,7.14,4.84C2677.05,842.22,2614.62,592.85,2408,719.19Z"/>
        <path d="M2405,716.43c-7.77-4.45-16.3,7.1-34.59,28.91,2.56,7.29,4.84,14.07,6.86,20.41C2389.84,757.67,2412.39,721.89,2405,716.43Z"/>
        <path d="M2463.59,967.82c4.24-13-1.71-31.32-16.11-31.83,4.33-15.92.07-25.51-13.78-30.84q-12.52,7.14-24.94,13.63c1.7,6.52,3.63,13.51,5.85,21.06,0,0,24.89,30.42,25.81,47l47.61,13C2490.53,984.67,2483.6,973.9,2463.59,967.82Z"/>
    </g>
    <path class="clothesOverlapLine" d="M1548.15,827.49c21.12,15.57,25.39,35.78,34,44.92"/>
    <g class="clothesFoldLine">
        <path d="M2422.08,1039.78a357.16,357.16,0,0,0,99.36,68.06"/>
        <path d="M2450.66,1090.14c27.84,22.42,62.59,41.2,101.41,57.85"/>
        <path d="M2307.61,965.26a358.25,358.25,0,0,0,43,94"/>
        <path d="M2456.11,1228.3c-83.28-64.28-141.8-148.34-174.45-253.08"/>
        <path d="M2247.85,1073.81c25.4,70.77,63.51,128.11,120.59,165.38"/>
        <path d="M2395.31,1320.74c12.81,7.74,25.48,14.88,37.66,21.2"/>
        <path d="M2229.47,1161.6c-.42,10.11,5.53,22.76,16,36.81"/>
        <path d="M2236.4,1135.23a134.52,134.52,0,0,0,23,35.9"/>
        <path d="M2437.05,1454.25c23.31-14.25-24.62-21.37-48-51.19"/>
        <path d="M2428,1390a363.46,363.46,0,0,0,87.29,57.4"/>
        <path d="M1592.17,673.25c-27.29,10.37-40.45,27.54-58.33,27.86"/>
        <path d="M1679.42,695.64c-17.84-7.81-34.9-12.7-50.21-10.89"/>
        <path d="M1725,745.82c-15.06-5.77-28.58-21.69-41-22.13"/>
        <path d="M1555.63,774.59c28.92,12.81,67.89,19.58,111.24,23.72"/>
        <path d="M1526.27,775.16c18.27,13,42.58,23.39,70.58,32.18"/>
        <path d="M1506.51,827.67c18.73,11.93,37.83,18.87,61.68,21.82"/>
        <path d="M1462.47,837.83c20.29,7.42,43.79,12.26,68.89,15.81"/>
        <path d="M1550,892c-9.39,46.77-14.27,92.36-3.39,133.81"/>
        <path d="M1566.36,973.34c5.07,99.45,42.43,147.33,118.57,133.26"/>
        <path d="M1638.07,964.31c.27,48.25,13,85.91,59.29,94.86"/>
        <path d="M1669.12,1000.45c13.18,30.06,37.79,46.22,72.84,49.68"/>
        <path d="M1391.89,1100.32c12.46,61,32.08,110.87,82.44,113.49"/>
        <path d="M1335.43,1059.1c-5.65,32.18,18.63,115.18,38.39,137.2"/>
        <path d="M1258.08,1149.44c-1.13,29.36,22.58,83,52,101.73"/>
        <path d="M1220.5,1248.37c-10.4-11.37-16.65-22.71-17.76-34"/>
        <path d="M1184.92,875.05c-11,27.76-17.42,71.14-21.7,122.1"/>
        <path d="M1184.67,967.79c-3.38,18.07-9,73.24-4,89.61"/>
        <path d="M1202.74,883.1c-3.73,29.37-3.49,56.65,2.83,80.74"/>
        <path d="M1244.16,858c-8,19.23-12.19,38.36-9.8,57.32"/>
        <path d="M1263.72,866.16c-8.37,39.4-7.39,79.31,2.26,119.7"/>
        <path d="M1163.78,875.19c-5.56,36.65-5.79,69.19,1.94,95.6"/>
        <path d="M2277,1430.89c4.45,14,7.81,27.13,9.48,39"/>
        <path d="M2300,1432.61c15.67,29.22,28.74,74.69,37.17,109.74"/>
        <path d="M2355.83,1458.33c30.08,43.06,33.16,92.93-9.19,37.21"/>
        <path d="M2382.09,1466.78c11.15,20.62,32,44.92,33.65,65.54"/>
        <path d="M819,1058.25q36,62.18,93.53,110.19"/>
        <path d="M830.79,1139.06c13.58,32.51,31.51,61,56.81,82.76"/>
        <path d="M1124.66,1119.67c-23.05-7.55-43.13-6.57-77.9-25.18"/>
        <path d="M955.67,1027.4c129.29,65.13,132.23,52.89,161,64.76"/>
        <path d="M1001.7,959.12c43.07,13.09,76.89,60.44,99.12,100.66"/>
        <path d="M902.29,938.06c57.3,37.71,122.52,75,157.69,105"/>
        <path d="M1053.78,970.79c-32.46-25.65-61-27.32-113.29-53.3"/>
        <path d="M1038.47,946.12c-10.81-8.06-18.65-9.53-26.48-15.4"/>
        <path d="M1044.91,874.31c-17.28-4.81-34.88-6.28-51-3.3"/>
        <path d="M1041.54,890a81.41,81.41,0,0,0-22.15-2.39"/>
    </g>
    <g class="head49__edited">
        <g class="hairBlonde">
            <path d="M2813.71,530.57c17.61-146.61-.69-327.6-110-407.72C2557,15.37,2445.67,87,2342.08,103.64c-79.14,13.88-100.15,114.57-51.8,192.28l.31.67c1.75-30,7-63.41,13.44-91.38,35.56,3.78,86.68,168.87,145.71,229.4,12,56.25,11.8,113.14-9.91,181.41l-.86.44c-22,42.59-46.33,92.87-57.54,145.92,10.27-8.93,33.57-36.25,87.73-48.75,24.49-9.64,20.55-40.27,61.16-87-23.5,128.34,112.17,144.63,66.84,323.14,117.59-5.66,179.93-77.92,193.22-177.74,14,14.72,29.41,23.06,46.41,24.19C2806.48,717.78,2802.72,622,2813.71,530.57Z"/>
            <path d="M2378.52,933.86a218.75,218.75,0,0,0,18.8,35.38A401.73,401.73,0,0,1,2404.5,921Q2391.44,927.73,2378.52,933.86Z"/>
        </g>
        <g class="lipFemaleLight">
            <path d="M2366.57,558.38a117.87,117.87,0,0,0-2.37-13c-11.16,10.3-53.81,15.61-39.38,44.83C2343.73,582.35,2356.17,570.93,2366.57,558.38Z"/>
            <path d="M2308.46,524.4c1.08,4.79,5.87,7.16,12.35,7.19,8.73-1.76,26.71-3.05,39-.15A83.26,83.26,0,0,0,2308.46,524.4Z"/>
        </g>
        <path class="eyebrowBlonde" d="M2296.55,339.59c17.26,21.49,39.08-18.25,90.89-5.39C2324,309.7,2318.54,340.76,2296.55,339.59Z"/>
    </g>
    <path class="lipOverlapLine" d="M1730.47,628.5a36.76,36.76,0,0,1,11.62-.24"/>
    <g class="lipEdgeLine">
        <path d="M1786.15,639c-12.41-2-18.73-5.14-24.88-11.66"/>
        <path d="M1791.66,702.13c-30,2-63-18.4-60-44"/>
    </g>
    <g class="cheekLine">
        <path d="M1760.1,578.88c-16.55,7.85-24.07,15.35-32.43,25.94"/>
        <path d="M1843.09,606.41c12.63,13.71,13.2,47.45,11.76,61.79"/>
        <path d="M2326.53,446.9c-4.55,54.82,38.92,56.67,41.07,124.91"/>
    </g>
    <g class="noseLine">
        <path d="M1786.89,556.19c-10.08,14.31-34.75,15-27.18,37.77"/>
        <path d="M1843.09,606.41c3.62,7.29-2.94,21.27-15.23,22.44"/>
        <path d="M1818.65,620.58c0-11.18-15.47-4.39-22.65-6.79"/>
        <path d="M1764.13,586.13c-.61,5.62,2.31,12.31,8.09,16.92"/>
        <path d="M2293.9,486.67c13.64-3.08,25.75,10.26,38.68-2.17"/>
    </g>
    <g class="eyeFoldLine">
        <path d="M1927,578.86c-14.07.59-36.21-9.23-41-19.66"/>
        <path d="M1789.32,514.58c-17.32-.82-29.56-8.17-35.54-21.54"/>
    </g>
    <g class="eyeLidLine">
        <path d="M2323.7,362.51c-13.66-1.35-5.82-14.17-5.82-14.17"/>
        <path d="M2326,399.85c-5.7,2.06-8,6.44-3.48,14.7"/>
    </g>
    <g class="eyeCornerLine">
        <path d="M1962.49,573a73.76,73.76,0,0,1-4.32-6.11"/>
        <path d="M1768.71,463.29a41.76,41.76,0,0,0-11.36,1.6"/>
        <path d="M1759.8,483.08c-2.15-2.84-4-4.69-5.71-7"/>
        <path d="M2362.59,380.63a53.84,53.84,0,0,0,9.11,3.52"/>
    </g>
    <g class="eyeCreaseLine">
        <path d="M1770.84,458c26.21-6.08,45.42,3.48,51.44,17.68"/>
        <path d="M2352.22,366.15a82,82,0,0,0-36.55-9.81"/>
    </g>
    <g class="hairOverlapLine">
        <path d="M2072.64,537.73c7.29,16.43,7,25,5,39.06-1.1-2-9.33-23.66-23.78-36.86"/>
        <path d="M2449.74,434.61c21.51,24.66,48,42.21,78.11,54.69"/>
        <path d="M2304,205.21c-10.82-7.91-21.72,2.27-21.44,24.26"/>
    </g>
    <path class="hairEdgeLine" d="M2312.88,138.78c82.44-14.22,94.3,212.84,169.49,273.66"/>
</svg>
