<svg viewBox="0 0 170.02 101.03">
  <path class="pillow" d="M157.66,59.14C141,85.31,121.05,90.51,109.05,96.65c-2.84,1.46-5.56,4.39-8.92,3.81-2-.34-9.6-5.79-14.28-7.18C35.68,78.36,26.55,64.76,10.37,58.06,4.28,55.53.3,54,.51,50.28.65,47.65,6.75,44.38,11.67,39,43.37,4.49,52.73,11.61,66,1.71c5.13-3.8,9.66,2.49,16.79,3.35,13.32,1.62,25.84,9.56,33.55,11.07,22.08,4.31,33.05,20.25,45.34,22.3,5.83,1,9.65,3.07,6.87,7C167.28,47.32,163.72,49.62,157.66,59.14Z"/>
  <path class="pillowDisplayLine" d="M102.32,94.65c15.61-15.23,21.15-13.38,44.89-34.81,7.73-6.66,8.2-8.27,16.45-14.87"/>
</svg>
