<svg viewBox="0 0 1160.62 3201.65">
  <g class="soleTan">
    <path d="M653.41,3075.18a305.37,305.37,0,0,0,1.24,36.31c2,20.74,18.64,30.22,36.05,54.77,27.95,39.41,181.2,30.83,205-6.79,3.33-5.91,3.09-20,3.33-34.8Z"/>
    <path d="M281.92,3126.8c-.12,8,.45,25.45,3.73,32.89,21.47,48.6,159.14,51.78,184.3,21,18.4-22.49,54.85-27.15,58-59.63.56-7.77.89-15.2,1.06-22.38Z"/>
  </g>
  <g class="nestorBoot">
    <path d="M695.91,3142.44c32.82,44.62,199.42,30.69,203.15-17.77.53-69.75-83.85-43.72-68.9-296.9l-146.1-.83c6.44,106.14-28.56,165.29-30.65,248.24C666.32,3123.86,678.9,3119.31,695.91,3142.44Z"/>
    <path d="M466.16,3159.28c18.09-21,49.46-28.8,62.89-60.58,2.16-95.76-28.07-144.6-18.16-274.87L373,2818.5c-2.13,262-89.72,221.48-91.06,308.3C303.76,3188.57,438.62,3191.25,466.16,3159.28Z"/>
  </g>
  <path class="nestorPants" d="M882.83,1573.49C892,1648,920.11,1667.57,900.51,1780c-23.59,135.26,3.1,344.28-32.06,419.45-16.35,35,14.38,83.63-13.06,162,13.06,87.55-15.52,256.51-3.92,320.14,4.32,23.71,9.14,51-19.6,69.26,9.14,19.6,20.9,45.73-2.62,58.8,16.24,9.43,21.54,32.54,5.23,40.51-31.62,15.44-130.75-3.92-159.5,2.61-1.79-14.51-20.28-29.53-2.53-39.2-24.82-16.74,0-40.12.74-48.6-15.9-34.53-3.23-82.53-9.25-128.07-10.17-76.85-4.24-155.81-14.66-223-2.62-16.84-23.92-37-3.86-66.35-15.43-37.8,1.27-79.63-8.49-147.35-15.71-109.08-13.49-192.07-37.66-325.36-31.71,159.4-1.52,201.16-32.24,266.67-21.31,136.84,7,133.62-16,173.81.44,26.62,11,49.6-8.62,72.63-6.36,43.92,23.74,123.1-10.46,271.42-5.88,25.52,22.29,51.77-13.54,131.1-7.12,15.75,14.43,42.88-4.31,62.16-39.72,12.84-113.59-59.74-148.92,2.57-4.52-29.16-29.68-27.3-10.92-60.39,10.69-18.85-14.71-23.63-11.56-107.92,3.93-105.27-9-219.15-2.57-299.34,2.75-34.09-39.68-74.73-16.06-135.54,16.33-42-17.7-208.77-15.78-351.38.46-34.14-18.91-52-10.56-96.35,6.87-36.47-19.56-68.74-3.5-111.78,9.5-25.44,6.07-71.3,17.63-116.91Z"/>
  <path class="nestorJacket" d="M759.51,713c-2.21-27.64,65-7.7,96.18-.11,113.87,27.75,114.15,110.41,162.88,167.62,25.43,29.85,26.48,59.67,45,80.12,31,34.28,47.53,66.82,73,116.08,62,71.64-16.47,249.6-52,306.23-17.32,27.63-22.53,62.14-45.33,59.7,1.51,61-34,16.68-42.33,65.23-5.19,30.24-113.69-52.29-114-80.38-.24-19.51,20.58-13.34,22.29-28.69-16.21-36.67,46.9-60.55,47.75-98.07-30.7-29,31.56-63.11,30.7-106.6-15.21-2.13-15.34-11.72-5.11-26.44-17.06-11.08-2.13-20.43-14.5-44.34-12.52-24.19-36.67-15.35-61.4-98.07-15.35,44.34,8,79.31-12.5,99.77-23.88,176.53-2,219.42-11.38,249.87-6.54,21.21,16.2,144.12,9.38,214-116,2.56-207.21,23.4-360.73,18.35-75.08-2.47-146.75-20.18-227.69-17.5,7.26-164.66,24.49-253.87-.85-509.34-7.1-18.25-10.14-48.66-7.1-84.14-20.27,51.7-45.66,67.25-64.88,97.32-15.95,24.94-6.08,37.51-40.55,67.92,9.94,12.06,12.75,24.64-2,38.53,29.4,27.37,23.64,71.2,34.47,101.37,11.83,33,33.69,49,27.37,91.24,16.22,0,13.54,9.91,19.26,19.27,6.08,9.92,12,7,9.87,26.56-2.46,22.75-92.76,80.85-114,74.89-30.88-8.64-21.81-59.48-58-84.22C79.81,1413.29,72,1357.3,46.37,1313.65c-36.55-62.26-53.51-138.12-41.6-174.37,24.34-74,76.41-129.72,100.4-169.3,47.64-78.62,102.39-212.89,162.2-231.14,73.14-22.32,123.68-51.71,135.85-24.33Z"/>
  <path class="nestorJacketDark" d="M714.33,704.48c-1.67-84.11-274.16-88.72-269.31,3Z"/>
  <g class="clothingSilver">
    <path d="M816.09,963.36Q716.39,983,620.83,1011.12c-3.73,1.25.3,15.33,4,14.09,57.89-16.48,124.7-33.47,194.59-47.61C822.07,977,818.72,962.74,816.09,963.36Z"/>
    <path d="M772,1212.53c-.76-1.76-12.85,3.42-12.09,5.18a1450.4,1450.4,0,0,1,84.63,205.41c1.12,2.87,14.36-2.31,13.24-5.18C833.27,1342.74,805.16,1275.59,772,1212.53Z"/>
    <path d="M419.8,1216.14c.86-1.88-12-7.21-12.82-5.33-26.43,70.12-49.47,139.63-68.51,208.41-1.15,3.45,11.94,7.48,13.09,4C370.89,1356.48,392.68,1286.6,419.8,1216.14Z"/>
  </g>
  <path class="nestorShirt" d="M714.33,704.48c-67-20.35-209.47-29.33-269.31,3C544.55,1021.82,632.1,949.15,714.33,704.48Z"/>
  <path class="zipperDisplayLine" d="M491,913.39c3.47,30.93,10.1,53.68,14.35,75.48"/>
  <g class="clothesDisplayLine">
    <path d="M582.91,1609.12c-7.52,26.9.71,71.18-2.11,112.16-2.94,42.69.65,80.21,8.48,114.12"/>
    <path d="M648.26,1607.21c-8.48,35.87,0,64.83-3.55,105.59-3.18,36.48,8.48,86.74-61.76,87.45"/>
    <path d="M473.5,3152c2.45-97.34-138.41-97.34-178.84-70.42"/>
    <path d="M408.42,2829.63c2.42,67.84-10.53,144.28-29.56,196.77-24.53,1.07-38,7.62-56.82,19.26"/>
    <path d="M438.2,2835.45c-1.81,78.62-14.91,151.92-26.18,194.18,55.6,9.34,73.93,58.14,82.89,106.56"/>
    <path d="M523.89,3019.45c-18.65,31.15-23,66.64-14.83,105.94"/>
    <path d="M663.42,2999c7,34.37,7.51,69.21,0,104.63"/>
    <path d="M748.14,2854.42c2.23,60.78,6.73,119,16.42,162.56-41.55,7-73.77,50.69-93.71,98.67"/>
    <path d="M776.14,2856c.79,55.78,6.84,110.67,19.68,160.22,22.44-.48,41.59,6.39,59.37,21.31"/>
    <path d="M882.72,3079.19c-65.39-33.53-180.42-20.69-194.48,54.12"/>
  </g>
  <g class="clothesOverlapLine">
    <path d="M902.57,1026.28c.84-16.06-14.69-18-11.77-37.41"/>
    <path d="M502.74,1019.54c.85,65.41,26.82,126.43,25.11,180.89-1.22,39.09,7.64,84.42,6.8,119.36-1.94,80.55,22.32,179.53,25.23,289.23"/>
    <path d="M881.09,742.38C808.31,715.21,779.2,724,759.51,714"/>
    <path d="M263.9,758.88c98-38.82,123.24-33,139.32-43.37"/>
    <path d="M744.83,1468.62c28.14,17.81,51.63,29,52.72,39.77-.07,11.25-21,23.07-42.51,44.77"/>
  </g>
  <g class="clothesFoldLine">
    <path d="M653.76,773.65A139.41,139.41,0,0,0,596.23,808"/>
    <path d="M875.82,983.49c.54-37.69-64.49-94.38-28-105,39.42-11.44,26.92,109.82,43,110.36,30.76,1,30.41-112,49.62-106,20.66,6.39,1.28,64.62-25.3,105.51"/>
    <path d="M847.29,814.45c38.76,35,34.94,107,45.22,108.2,16.08,1.93,19.38-39.29,13.46-66.75"/>
    <path d="M1062.09,980.79c12.79,16.91,21.1,35.2-3.23,63.53"/>
    <path d="M944.19,1050.24c8.08,29.61,73.79-14.18,77.52,5.38,2.15,11.31-32.84,38.76-2.15,50.61,13.93,5.37,59-35.73,61.91-20.46,3.85,20.27-54.91,54.37-87.75,57.06"/>
    <path d="M978.47,1168.69c30.32,9.13,139.92-66,153.06-31.78,8.09,21-42.39,27-98,29.61"/>
    <path d="M983.58,1195.13c75.81-9.77,99,15.53,18.75,26.84"/>
    <path d="M1122.38,1178.9c-38,4-74.86,8.37-26.38,41.45"/>
    <path d="M1054,1265.57c-25.09,16.27-49.42,28-71.6,26.92"/>
    <path d="M1047,1292c-57.6,19.92-10.23,51.14-6.46,77"/>
    <path d="M952.88,1301.73c19.84,20.37,51.27,30.12,40.84,61.28-13.73,41-65.16,14.43-64.6,40.91"/>
    <path d="M905.13,1399.8c5.58,7.69,8,14.84.3,20.27"/>
    <path d="M1017.4,1391.54c-18,12.71-37.38,21.84-59.21,24.23"/>
    <path d="M1039.21,1443.64c-8.74-2.75-15.34,0-19.65,8.73"/>
    <path d="M887.1,1040.71c-14.28,21.86-30.29,37.69-48.07,47.28"/>
    <path d="M878.43,1093.51c-2.49,18.28-11.7,34.7-29.15,48.86"/>
    <path d="M653.06,1157.34c-36.9,13-71.8,25.23-103.24,36.25"/>
    <path d="M761,1138.43c-75.65,37-163.91,52.8-215.92,93"/>
    <path d="M463.93,1250.33c-36.26,36.61-10.31,58.81,59.1,70.92"/>
    <path d="M449.74,1315c21.17,15,46.23,26.92,75.65,35.46"/>
    <path d="M576.62,1297.61c67,14.19,111.9,41.77,5.51,66.2"/>
    <path d="M660.94,1311c33.3,19,29.31,38.14-33.1,57.52"/>
    <path d="M757.08,1423.7a424.63,424.63,0,0,1-49.65,35.46"/>
    <path d="M311.05,1054.9a284.85,284.85,0,0,0,46.49,63.83"/>
    <path d="M371.73,1012.34c-18.45,20.77,3.45,41.19,42.55,61.47"/>
    <path d="M450.53,1001.31c-84,10.25-67,42.55,24.43,70.13"/>
    <path d="M160.14,952.41c-17.69,24.1-38,39.67-61,46"/>
    <path d="M198.67,1035.88c-56.08,17-74.14,43-13.92,87.76"/>
    <path d="M117.33,1090.46c51.41,33.29,57.58,48.62-35.31,24.62"/>
    <path d="M22.09,1177.14c21.5.4,49.23,7.5,62.07,21.41"/>
    <path d="M186.27,1162.58c-102.11-37.87-128.86,19.91-19.71,14.56"/>
    <path d="M144.09,1215.67c-49.23,37.46,0,39.6,30,55.65"/>
    <path d="M185.82,1289.51c-26.75,32.11-55.64,7.49-100.59,6.42"/>
    <path d="M246.08,1393.72c-12.93,1.91-22.37,8.47-27.42,20.9"/>
    <path d="M195.53,1307c-40.89,24.21-88.23,80.16,10.22,76.93"/>
    <path d="M85.78,1313.48c64.56,11.83,17.43,47.16,31.74,67.25s70.48,7.53,44.65,59.17"/>
    <path d="M230.55,919.29c-6,48.11,56.53,75.77,26.46,92.21"/>
    <path d="M256.41,899.45c16.84,146.12,47.5,61.33,14.43-71"/>
    <path d="M304.52,945.15c-.61-161.16,53.51-90.8,8.41,28.26"/>
    <path d="M349.62,943.34C335.18,968,310.78,990,312.33,1002.27"/>
    <path d="M298.8,1081.48c7.52,16.41,16.55,30.22,19.55,48.88"/>
    <path d="M490.82,1413.49c-26.4,21.08-54.42,37.89-88.05,39.81"/>
    <path d="M447.58,1467.79c70.05-64.84,69.35,22.17,10.17,107.29"/>
    <path d="M496.76,1556.5q14.16,33.39,36.78,1.09"/>
    <path d="M691.82,1556.5c12.06,26.64,24.83,23.36,38.1-1.77"/>
    <path d="M789.71,1464.93c-24.08-50.14-106.13,21-26.24,116.3"/>
    <path d="M815.83,1547.6c14.58,25.72,26.6,20.47,36.94-5.25"/>
    <path d="M760.88,1736.7c-37.3,20.29-66.78,42.41-86.6,66.79"/>
    <path d="M813,1821.1c-58,1.22-113.8,19.73-168.06,49.91"/>
    <path d="M553.19,1841.65c-37-42-81.59-75.85-132.83-102.75"/>
    <path d="M388.07,1751.38c24.21,23.49,56.86,44.57,56.51,71.92"/>
    <path d="M553.19,1879.81c-59.24-23.86-120.36-47-146-27.89"/>
    <path d="M338.9,1919.44c45.5,61.65,142.17,138.48,93.93,138"/>
    <path d="M839.41,2130.07c23.68,19.06-22,52.84-74.12,74.86"/>
    <path d="M567,2141.54c-6.5,9.81-15.44,16.71-23.38,28.89"/>
    <path d="M344,2295.2c-4.49,22.89,6.22,43.11,26.42,61.64"/>
    <path d="M855.39,2361.43c-5.85,18.3-21.85,30.64-29.92,50.45"/>
    <path d="M533.38,2337.76c-33.66,29.15-68.66,45.23-105.68,41.83"/>
    <path d="M510.63,2403.08c-14.83-5.78-59.2,14.55-99.81,31.56"/>
    <path d="M670.62,2321.62c28.91,31.26,71.18,42.34,124,37.42"/>
    <path d="M645.42,2347.58c18.59,25.41,53.82,26.14,67,60.64"/>
    <path d="M823.26,2718.54c-16.29,26.64-41.13,42.19-72.4,49.41"/>
    <path d="M831.87,2750.83c-14,7.31-19.37,25.92-48.24,45"/>
    <path d="M673.19,2765c5.26,9.35,13.28,15.85,16.52,25.5"/>
    <path d="M829.25,2809.63c-20.67,4.79-42.68,17.51-90.13,14.08"/>
    <path d="M672.45,2813.55c8.53,4.16,19.33,7.34,30.95,10.16"/>
    <path d="M442.66,2724.41c17.12,4.89,44.82-11.15,51.85,4.4,9.3,20.55-27.88,46-61.63,52.34"/>
    <path d="M380.53,2801.7c3.91,16.63,66-1.47,104.2,18.59"/>
    <path d="M481.8,2795.83c-33.27,4.4-56.26,12.72-81.72,13.59"/>
  </g>
  <g class="nestorJacketLight">
    <path d="M821.22,782.61c-28.67-10.54-54.34-16.06-73.83-11.16a250,250,0,0,1,64.38,84.13c-88.93,52.56-243.38,103-278,120.83-20.42,10.51-31.29,25.49-31,43.13-14.49-86.31,166.41-163.92,196.75-285.3,5.25-21,18.09-58.36-31.51-72.36l-.42-13.18C720.19,654.31,766.28,726.81,821.22,782.61Z"/>
    <path d="M360.45,841c42.83,33.26,108.43,63.76,179.75,93.57,10.91-12.23,23.44-24.62,36.61-37.35C515.92,833,401.86,701,489.41,659.54V643.2c-36.55,3.58-85.19,79.37-143,130.72,24.33-11.61,56-1.17,84.62-9.34C406.55,792.59,370.6,820,360.45,841Z"/>
    <path d="M883.34,1451.12c-164.52,33.22-453.5,25.48-580-1.2-4.35-.29-9.89,84.3-5.54,84.58,101.24,30.85,483.35,32.89,592.5-1.12C896.08,1533,889.17,1450.7,883.34,1451.12Z"/>
    <path d="M665.21,1467.08c-.94-.88-24.05-.16-23.11.72,3.54,3.27,7.65,91.6,4.36,95.12-1.4,1.49,21.49,1,22.88-.45C673.64,1557.9,669.81,1471.35,665.21,1467.08Z"/>
  </g>
  <g class="clothingBrass">
    <circle cx="769.28" cy="844.35" r="15.95"/>
    <circle cx="403.72" cy="834.86" r="15.95"/>
    <circle cx="552.87" cy="1110.6" r="15.95"/>
    <circle cx="674.27" cy="1111.56" r="15.95"/>
    <circle cx="665.74" cy="1263.69" r="15.95"/>
    <circle cx="569.56" cy="1262.36" r="15.95"/>
    <circle cx="584.85" cy="1404.25" r="15.95"/>
    <circle cx="662.08" cy="1402.95" r="15.95"/>
    <path d="M638.16,1557.92C638,1571.06,617.82,1574,597.6,1574c-19.12,0-34.83.1-42.1-16-2.18-4.85-3-76.61,0-85.4,6.58-19.4,25.34-16.11,42.12-16.33,26-.34,37.1,3.31,37,16.66-22.84-.17-44.3.67-63.66-.05-4.77,0-5.45,85.25-.69,85.29C591.55,1558.41,614.34,1558.23,638.16,1557.92Z"/>
    <path d="M593.78,1511h-29.3c-4.14,0-4.14,14.56,0,14.56H594C598.93,1525.44,598.69,1510.88,593.78,1511Z"/>
  </g>
  <g class="eye">
    <circle class="sclera" cx="622.41" cy="378.49" r="159.8"/>
    <g class="irisDarkBrown">
      <circle cx="540.48" cy="370.63" r="22.5"/>
      <circle cx="711.95" cy="370.63" r="22.5"/>
    </g>
    <g class="pupil">
      <circle cx="540.48" cy="370.63" r="8.75"/>
      <circle cx="711.95" cy="370.63" r="8.75"/>
    </g>
  </g>
  <g class="skinIndian">
    <path d="M693.09,569.06c-16.7,34.14-23.46,124.94,0,144.84-38.29,56-166,57-227.65,1.87,13.73-21.77,17.34-103,6.24-150.18"/>
    <path d="M172,1505.92c8.81-32.53,61.35-66.74,87.78-65.38,28.47.68,42.66,29.82,66.42,29.82,31.17,0,54.59,14.36,79.29,36.59,19.72,17.75-3.46,39.46-25.75,25.08-21-13.56-40.67-26.43-60.32-24.4,51.6,21.44,101.64,73.63,61,84.71-14.91,4.07-25.88-18.32-41.34-25.39,37.95,36.59,23.37,62.31-.77,54.18-13.48-4.54-29.72-40.31-81.91-57.25,8.6,22.51,17.87,35.28,36.31,45.44,23,12.66,13.86,43-10.2,33.85-35.88-13.61-51.77-41.94-64.06-55.57C182.94,1548.22,185.89,1522.54,172,1505.92Z"/>
    <path d="M883.86,1468.62c-14,9.66-47.38,34.2-61.6,45.83-17.08,14,3,37.73,22.83,27.11,22.45-12,35.57-16.08,47.57-33.64,6.72,25.78-6.87,49-40.22,76.2-20.16,14.37,3.71,38.66,25.29,24.53-13.53,12.19,4,33,15.81,25.21,1,13.58,29.72,16.77,46.94-6.68,54.82-74.66,15.49-99.65,46.86-134.06,1.68-14.89-71.15-68.11-86.84-60.83-6.48,7.41-15.48,10.62-18.67,15.21Z"/>
    <path d="M789.9,325.77c-6.63,50.22,14.47,88.43,1.69,154C769.5,593,708.87,635.66,685.07,663.08c-12.42,14.31-40.51,18.21-59.78,19.24-35.12,1.21-55.61-7-75.14-20.84-64-43-122.34-60.38-150.75-175.19-23.67,16.68-26.15-7.09-39.58-30.49-19.19-33.46-28-97.63,2.22-111.95C350.56,72.15,885.27-13.15,789.9,325.77Zm-201.43,49.8c-11.3-12.23-25.27-22.26-41.63-22.26-24.2,0-37.43,11.65-49.37,18.74,17.33,15.91,56.8,16.11,81.64,7.72C581.94,378.81,592.85,380.32,588.47,375.57Zm97.14,3.87c22.3,8.37,55.82,4.52,70-7.09-9.91-5.66-19.19-16.46-36.79-16.46-15.82,0-29.41,4.38-41,18.39C673.31,379.79,682.82,378.4,685.61,379.44Z"/>
  </g>
  <g class="skinOverlapLine">
    <path d="M285,1531.05c7.64,7.45,25.86,8.92,54,35.9"/>
    <path d="M319.4,1507.63c-8-4.37-17-5.43-22.35-9.16"/>
    <path d="M955.24,1557c-12.36,33.54-29,62.16-61.7,76.86"/>
    <path d="M933.9,1531.93c-9,33.89-22.73,64.65-56.17,76.72"/>
    <path d="M883.86,1468.62c11.2-9,38.86,12.83,8.8,39.3"/>
  </g>
  <g class="skinFoldLine">
    <path d="M374.77,391.71c-10.64-63.48-36-6.18-10.3,54.21"/>
    <path d="M382,420.19c-7.89,8.58,4.13,38-4.12,37.06-9.26-1-2.74-23.68-10.29-30.54-7.91-7.19-6.52-35.34,0-31.57"/>
  </g>
  <g class="skinCreaseLine">
    <path d="M653.82,628.83c-10.1-5.32-38.28-5.32-49.45,1.06"/>
    <path d="M630.42,665c.34,4.42-.74,10.91-4.25,13.83"/>
  </g>
  <path class="lipMaleBrown__noStroke" d="M653.19,539.41c-8.93,4.64-18.58,5-26.79.35-13,6.1-51.81,6.08-65.74,4.29,11.35,6.26,2.84,62.7,73.67,62.19,53.87-.38,47.8-52.26,59.59-59.33C679.51,545.68,663.45,542.06,653.19,539.41Z"/>
  <g class="lipEdgeLine">
    <path d="M653.19,539.41c-8.93,4.64-18.58,5-26.79.35"/>
    <path d="M673.72,589.21c-16.62,23.69-68,22.48-90.1,0"/>
  </g>
  <g class="lipCornerLine">
    <path d="M557.12,542.77a20,20,0,0,0,7.68,4.32"/>
    <path d="M681.59,549c4.12.25,8.93-.74,14.24-2.61"/>
  </g>
  <path class="teeth" d="M564.8,547.09c21.69,4.29,34.82,1.88,44.73,2.95,11.52,1.24,21.75,5.24,30.54,5.09,7.5-.54,13.18-3.76,20.62-5.09s12.86-.54,20.9-1.07C667.39,593.17,606.47,585.92,564.8,547.09Z"/>
  <path class="teethBorderLine" d="M675.84,560.9c-19.74,13.5-71,15.62-107.2-10.36"/>
  <g class="cheekLine">
    <path d="M544.63,534.27c20-24.11,33.09-54,45.66-58.76"/>
    <path d="M704.69,523.83c-4.22-13.49-9-25.67-16.22-32.37"/>
  </g>
  <g class="noseLine">
    <path d="M590.29,475.51c-10.79,10.13-8,28.15,2.8,34.16"/>
    <path d="M603.11,505.48c15.69-7,23.53,12.37,40.74,11.76,18.4-.64,23.23-15.08,32-13.27"/>
    <path d="M671.61,449c7.24,31.09,31.08,43.16,4.83,61.57"/>
  </g>
  <g class="eyeFoldLine">
    <path d="M513.61,402c12.58,3.55,41.55,2.07,59-8.71"/>
    <path d="M690.86,391.94c11.85,5.9,35.41,12.35,52.83,8.16"/>
  </g>
  <g class="eyeCornerLine">
    <path d="M755.63,372.35c3.47,2,10.14,6.39,13.23,5.8"/>
    <path d="M481,379.12c5.46-2.32,13.85-5.4,16.46-7.07"/>
  </g>
  <g class="eyeCreaseLine">
    <path d="M584.92,363.63c-31.95-35.82-72.61-6.13-89.39-.32"/>
    <path d="M765.31,370.09c-16.78-22.27-47.43-31.95-81.32-7.1"/>
  </g>
  <g class="eyebrowBlack">
    <path d="M607.14,311.75c10.41,1.54,2,11-13.11,16.59-16.58,6.16-54-17-122.23,5.39-16.69,5.47,12-36.63,32-40.87C538.32,285.56,573.2,306.73,607.14,311.75Z"/>
    <path d="M758.5,294.59c-32.59-7.37-58.07,12-90.34,15.39-9.9,1-2.79,10.5,11.17,16.81,14.91,6.74,49.37-14.47,109.52,10.11,1.66-3.73,3.42-15.84,1.75-19.4C783.36,307.18,772.66,297.79,758.5,294.59Z"/>
  </g>
  <path class="hairBlack" d="M791.65,183.34c17.48,21.41,26.21,100.93-1.75,142.43,7-76.46-7.86-65.54-2.62-133.26C739,172.56,682,174.6,626.49,199.07c-95-67-136.76,106.17-28.18,93.4C526.44,311.79,503,225,541.37,180.77c-24.69-2-58.13,4.46-86.59,11.3,7.32,87.46-10.87,69.92-33.61,138.14-12.35,27.29-12.35,97.46-3.9,164.38-27.94.65-21.39-36.64-21.44-66.92a384.29,384.29,0,0,0-3.9-52c-3.9-29.24-14.72-36.11-29.89-31.84-16.24-98.11-1.49-124.06,1.3-163.08,7-97.39,50.42-94.16,74.07-129.3,22.74-33.79,82-42.53,116.3-46.78,89-11,87.81,5.52,124.75,13C784.37,39.13,809.71,82.66,791.65,183.34Z"/>
  <path class="hairOverlapLine" d="M541.37,180.77c14.28-15,34.64-19.78,50.21-14.28"/>
</svg>
