<svg viewBox="0 0 1160.62 3208.5">
    <g class="soleTan">
        <path d="M653.41,3082a305.44,305.44,0,0,0,1.24,36.31c2,20.74,18.64,30.22,36.05,54.77,27.95,39.41,181.2,30.83,205-6.79,3.33-5.92,3.09-20,3.33-34.8Z"/>
        <path d="M281.92,3133.65c-.12,8,.45,25.45,3.73,32.88,21.47,48.6,159.14,51.78,184.3,21,18.4-22.5,54.85-27.16,58-59.64.56-7.76.89-15.19,1.06-22.37Z"/>
    </g>
    <g class="nestorBoot">
        <path d="M695.91,3149.29c32.82,44.62,199.42,30.69,203.15-17.77.53-69.75-83.85-43.72-68.9-296.9l-146.1-.83c6.44,106.14-28.56,165.29-30.65,248.24C666.32,3130.7,678.9,3126.15,695.91,3149.29Z"/>
        <path d="M466.16,3166.13c18.09-21,49.46-28.8,62.89-60.58,2.16-95.77-28.07-144.6-18.16-274.87L373,2825.35c-2.13,262-89.72,221.48-91.06,308.3C303.76,3195.42,438.62,3198.1,466.16,3166.13Z"/>
    </g>
    <path class="nestorPants" d="M882.83,1580.34c9.14,74.48,37.28,94.08,17.68,206.46-23.59,135.26,3.1,344.28-32.06,419.45-16.35,35,14.38,83.63-13.06,162,13.06,87.55-15.52,256.51-3.92,320.14,4.32,23.7,9.14,51-19.6,69.26,9.14,19.6,20.9,45.73-2.62,58.8,16.24,9.43,21.54,32.54,5.23,40.5-31.62,15.44-130.75-3.92-159.5,2.62-1.79-14.52-20.28-29.54-2.53-39.2-24.82-16.75,0-40.12.74-48.61-15.9-34.53-3.23-82.52-9.25-128.06-10.17-76.86-4.24-155.81-14.66-222.95-2.62-16.84-23.92-37-3.86-66.35-15.43-37.8,1.27-79.63-8.49-147.35C621.22,2098,623.44,2015,599.27,1881.72c-31.71,159.4-1.52,201.16-32.24,266.66-21.31,136.84,7,133.63-16,173.82.44,26.62,11,49.6-8.62,72.62-6.36,43.93,23.74,123.1-10.46,271.43-5.88,25.52,22.29,51.77-13.54,131.1-7.12,15.75,14.43,42.88-4.31,62.16-39.72,12.84-113.59-59.75-148.92,2.56-4.52-29.15-29.68-27.29-10.92-60.38,10.69-18.86-14.71-23.63-11.56-107.92,3.93-105.28-9-219.16-2.57-299.34,2.75-34.09-39.68-74.74-16.06-135.54,16.33-42-17.7-208.77-15.78-351.38.46-34.14-18.91-52-10.56-96.36,6.87-36.46-19.56-68.73-3.5-111.77,9.5-25.44,6.07-71.3,17.63-116.91Z"/>
    <path class="nestorJacket" d="M759.51,719.85c-2.21-27.64,65-7.7,96.18-.11,113.87,27.74,114.15,110.41,162.88,167.62,25.43,29.85,26.48,59.66,45,80.12,31,34.27,47.53,66.81,73,116.08,62,71.63-16.47,249.6-52,306.23-17.32,27.63-22.53,62.13-45.33,59.7,1.51,61-34,16.68-42.33,65.22-5.19,30.24-113.69-52.28-114-80.38-.24-19.5,20.58-13.34,22.29-28.69-16.21-36.66,46.9-60.54,47.75-98.07-30.7-29,31.56-63.1,30.7-106.59-15.21-2.13-15.34-11.73-5.11-26.44-17.06-11.09-2.13-20.43-14.5-44.34-12.52-24.2-36.67-15.35-61.4-98.07-15.35,44.34,8,79.3-12.5,99.77-23.88,176.53-2,219.42-11.38,249.87-6.54,21.21,16.2,144.12,9.38,214-116,2.55-207.21,23.4-360.73,18.35-75.08-2.48-146.75-20.19-227.69-17.5,7.26-164.66,24.49-253.87-.85-509.34-7.1-18.25-10.14-48.66-7.1-84.15-20.27,51.71-45.66,67.26-64.88,97.33-15.95,24.94-6.08,37.51-40.55,67.92,9.94,12,12.75,24.64-2,38.52,29.4,27.37,23.64,71.21,34.47,101.38,11.83,33,33.69,48.94,27.37,91.24,16.22,0,13.54,9.91,19.26,19.26,6.08,9.93,12,7,9.87,26.57-2.46,22.74-92.76,80.84-114,74.89-30.88-8.65-21.81-59.49-58-84.22C79.81,1420.14,72,1364.15,46.37,1320.5c-36.55-62.26-53.51-138.12-41.6-174.37,24.34-74,76.41-129.73,100.4-169.3,47.64-78.62,102.39-212.9,162.2-231.15,73.14-22.31,123.68-51.7,135.85-24.33Z"/>
    <path class="nestorJacketDark" d="M714.33,711.33c-1.67-84.12-274.16-88.72-269.31,3Z"/>
    <g class="clothingSilver">
        <path d="M816.09,970.2q-99.71,19.6-195.26,47.77c-3.73,1.24.3,15.33,4,14.08,57.89-16.47,124.7-33.46,194.59-47.6C822.07,983.83,818.72,969.58,816.09,970.2Z"/>
        <path d="M772,1219.38c-.76-1.76-12.85,3.42-12.09,5.18A1450.4,1450.4,0,0,1,844.53,1430c1.12,2.87,14.36-2.31,13.24-5.18C833.27,1349.59,805.16,1282.44,772,1219.38Z"/>
        <path d="M419.8,1223c.86-1.88-12-7.21-12.82-5.34-26.43,70.13-49.47,139.64-68.51,208.41-1.15,3.46,11.94,7.49,13.09,4C370.89,1363.33,392.68,1293.45,419.8,1223Z"/>
    </g>
    <path class="nestorShirt" d="M714.33,711.33C647.3,691,504.86,682,445,714.32,544.55,1028.67,632.1,956,714.33,711.33Z"/>
    <path class="zipperDisplayLine" d="M491,920.24c3.47,30.93,10.1,53.68,14.35,75.48"/>
    <g class="clothesDisplayLine">
        <path d="M582.91,1616c-7.52,26.91.71,71.18-2.11,112.17-2.94,42.69.65,80.21,8.48,114.12"/>
        <path d="M648.26,1614.06c-8.48,35.86,0,64.83-3.55,105.59-3.18,36.48,8.48,86.73-61.76,87.45"/>
        <path d="M473.5,3158.8c2.45-97.33-138.41-97.33-178.84-70.41"/>
        <path d="M408.42,2836.47c2.42,67.85-10.53,144.29-29.56,196.77-24.53,1.07-38,7.63-56.82,19.27"/>
        <path d="M438.2,2842.29c-1.81,78.63-14.91,151.93-26.18,194.19,55.6,9.33,73.93,58.14,82.89,106.55"/>
        <path d="M523.89,3026.29c-18.65,31.15-23,66.65-14.83,105.95"/>
        <path d="M663.42,3005.83c7,34.37,7.51,69.21,0,104.63"/>
        <path d="M748.14,2861.26c2.23,60.79,6.73,119,16.42,162.56-41.55,7-73.77,50.7-93.71,98.68"/>
        <path d="M776.14,2862.82c.79,55.78,6.84,110.67,19.68,160.22,22.44-.49,41.59,6.39,59.37,21.31"/>
        <path d="M882.72,3086c-65.39-33.53-180.42-20.69-194.48,54.12"/>
    </g>
    <g class="clothesOverlapLine">
        <path d="M902.57,1033.13c.84-16.06-14.69-18-11.77-37.41"/>
        <path d="M502.74,1026.39c.85,65.4,26.82,126.43,25.11,180.88-1.22,39.09,7.64,84.43,6.8,119.37-1.94,80.54,22.32,179.53,25.23,289.23"/>
        <path d="M881.09,749.23c-72.78-27.17-101.89-18.44-121.58-28.38"/>
        <path d="M263.9,765.73c98-38.82,123.24-33,139.32-43.38"/>
        <path d="M744.83,1475.47c28.14,17.81,51.63,29,52.72,39.76-.07,11.26-21,23.08-42.51,44.78"/>
    </g>
    <g class="clothesFoldLine">
        <path d="M653.76,780.49a139.63,139.63,0,0,0-57.53,34.3"/>
        <path d="M875.82,990.33c.54-37.68-64.49-94.37-28-105,39.42-11.45,26.92,109.82,43,110.36,30.76,1,30.41-112,49.62-106.06,20.66,6.4,1.28,64.62-25.3,105.52"/>
        <path d="M847.29,821.3c38.76,35,34.94,107,45.22,108.2,16.08,1.93,19.38-39.3,13.46-66.75"/>
        <path d="M1062.09,987.64c12.79,16.91,21.1,35.19-3.23,63.52"/>
        <path d="M944.19,1057.09c8.08,29.6,73.79-14.19,77.52,5.38,2.15,11.3-32.84,38.76-2.15,50.6,13.93,5.38,59-35.72,61.91-20.45,3.85,20.27-54.91,54.37-87.75,57.06"/>
        <path d="M978.47,1175.54c30.32,9.13,139.92-66,153.06-31.78,8.09,21-42.39,27-98,29.61"/>
        <path d="M983.58,1202c75.81-9.77,99,15.53,18.75,26.83"/>
        <path d="M1122.38,1185.75c-38,4-74.86,8.36-26.38,41.45"/>
        <path d="M1054,1272.42c-25.09,16.27-49.42,28-71.6,26.92"/>
        <path d="M1047,1298.8c-57.6,19.92-10.23,51.14-6.46,77"/>
        <path d="M952.88,1308.57c19.84,20.37,51.27,30.13,40.84,61.29-13.73,41-65.16,14.42-64.6,40.91"/>
        <path d="M905.13,1406.64c5.58,7.7,8,14.85.3,20.28"/>
        <path d="M1017.4,1398.39c-18,12.71-37.38,21.84-59.21,24.22"/>
        <path d="M1039.21,1450.49c-8.74-2.76-15.34,0-19.65,8.73"/>
        <path d="M887.1,1047.56c-14.28,21.86-30.29,37.69-48.07,47.28"/>
        <path d="M878.43,1100.36c-2.49,18.28-11.7,34.7-29.15,48.85"/>
        <path d="M653.06,1164.19c-36.9,13-71.8,25.23-103.24,36.25"/>
        <path d="M761,1145.27c-75.65,37-163.91,52.8-215.92,93"/>
        <path d="M463.93,1257.18c-36.26,36.61-10.31,58.8,59.1,70.92"/>
        <path d="M449.74,1321.79c21.17,15,46.23,26.93,75.65,35.47"/>
        <path d="M576.62,1304.46c67,14.18,111.9,41.76,5.51,66.19"/>
        <path d="M660.94,1317.85c33.3,19,29.31,38.15-33.1,57.53"/>
        <path d="M757.08,1430.54A422.29,422.29,0,0,1,707.43,1466"/>
        <path d="M311.05,1061.74a284.39,284.39,0,0,0,46.49,63.83"/>
        <path d="M371.73,1019.19c-18.45,20.76,3.45,41.19,42.55,61.47"/>
        <path d="M450.53,1008.16c-84,10.25-67,42.55,24.43,70.13"/>
        <path d="M160.14,959.26c-17.69,24.09-38,39.67-61,46"/>
        <path d="M198.67,1042.73c-56.08,17-74.14,43-13.92,87.75"/>
        <path d="M117.33,1097.31c51.41,33.29,57.58,48.61-35.31,24.61"/>
        <path d="M22.09,1184c21.5.4,49.23,7.49,62.07,21.4"/>
        <path d="M186.27,1169.43c-102.11-37.88-128.86,19.91-19.71,14.56"/>
        <path d="M144.09,1222.52c-49.23,37.45,0,39.59,30,55.65"/>
        <path d="M185.82,1296.36c-26.75,32.1-55.64,7.49-100.59,6.42"/>
        <path d="M246.08,1400.57c-12.93,1.91-22.37,8.47-27.42,20.9"/>
        <path d="M195.53,1313.87c-40.89,24.21-88.23,80.16,10.22,76.93"/>
        <path d="M85.78,1320.32c64.56,11.84,17.43,47.17,31.74,67.25s70.48,7.53,44.65,59.18"/>
        <path d="M230.55,926.14c-6,48.1,56.53,75.77,26.46,92.2"/>
        <path d="M256.41,906.29c16.84,146.13,47.5,61.34,14.43-70.95"/>
        <path d="M304.52,952c-.61-161.16,53.51-90.8,8.41,28.26"/>
        <path d="M349.62,950.19c-14.44,24.66-38.84,46.61-37.29,58.93"/>
        <path d="M298.8,1088.33c7.52,16.4,16.55,30.21,19.55,48.87"/>
        <path d="M490.82,1420.34c-26.4,21.08-54.42,37.89-88.05,39.81"/>
        <path d="M447.58,1474.63c70.05-64.83,69.35,22.18,10.17,107.29"/>
        <path d="M496.76,1563.34q14.16,33.4,36.78,1.09"/>
        <path d="M691.82,1563.34c12.06,26.65,24.83,23.37,38.1-1.76"/>
        <path d="M789.71,1471.78c-24.08-50.14-106.13,21-26.24,116.3"/>
        <path d="M815.83,1554.44c14.58,25.73,26.6,20.48,36.94-5.25"/>
        <path d="M760.88,1743.55c-37.3,20.29-66.78,42.4-86.6,66.78"/>
        <path d="M813,1828c-58,1.22-113.8,19.73-168.06,49.9"/>
        <path d="M553.19,1848.5c-37-42-81.59-75.86-132.83-102.75"/>
        <path d="M388.07,1758.23c24.21,23.48,56.86,44.56,56.51,71.92"/>
        <path d="M553.19,1886.66c-59.24-23.86-120.36-47-146-27.89"/>
        <path d="M338.9,1926.29c45.5,61.65,142.17,138.47,93.93,138"/>
        <path d="M839.41,2136.92c23.68,19.06-22,52.84-74.12,74.85"/>
        <path d="M567,2148.38c-6.5,9.82-15.44,16.71-23.38,28.9"/>
        <path d="M344,2302c-4.49,22.9,6.22,43.11,26.42,61.65"/>
        <path d="M855.39,2368.28c-5.85,18.3-21.85,30.64-29.92,50.45"/>
        <path d="M533.38,2344.61c-33.66,29.15-68.66,45.23-105.68,41.83"/>
        <path d="M510.63,2409.93c-14.83-5.78-59.2,14.55-99.81,31.55"/>
        <path d="M670.62,2328.46c28.91,31.27,71.18,42.35,124,37.43"/>
        <path d="M645.42,2354.43c18.59,25.41,53.82,26.14,67,60.63"/>
        <path d="M823.26,2725.38c-16.29,26.65-41.13,42.2-72.4,49.41"/>
        <path d="M831.87,2757.68c-14,7.31-19.37,25.92-48.24,45"/>
        <path d="M673.19,2771.79c5.26,9.36,13.28,15.86,16.52,25.51"/>
        <path d="M829.25,2816.48c-20.67,4.79-42.68,17.51-90.13,14.08"/>
        <path d="M672.45,2820.4c8.53,4.16,19.33,7.34,30.95,10.16"/>
        <path d="M442.66,2731.25c17.12,4.9,44.82-11.14,51.85,4.41,9.3,20.54-27.88,46-61.63,52.34"/>
        <path d="M380.53,2808.55c3.91,16.63,66-1.47,104.2,18.59"/>
        <path d="M481.8,2802.68c-33.27,4.4-56.26,12.72-81.72,13.58"/>
    </g>
    <g class="nestorJacketLight">
        <path d="M821.22,789.46c-28.67-10.55-54.34-16.06-73.83-11.16a249.81,249.81,0,0,1,64.38,84.13c-88.93,52.55-243.38,103-278,120.83-20.42,10.5-31.29,25.49-31,43.13-14.49-86.31,166.41-163.93,196.75-285.31,5.25-21,18.09-58.35-31.51-72.36l-.42-13.18C720.19,661.15,766.28,733.66,821.22,789.46Z"/>
        <path d="M360.45,847.87c42.83,33.27,108.43,63.77,179.75,93.58,10.91-12.23,23.44-24.63,36.61-37.35-60.89-64.27-174.95-196.21-87.4-237.71V650.05c-36.55,3.58-85.19,79.36-143,130.72,24.33-11.61,56-1.17,84.62-9.34C406.55,799.44,370.6,826.83,360.45,847.87Z"/>
        <path d="M883.34,1458c-164.52,33.22-453.5,25.48-580-1.21-4.35-.28-9.89,84.3-5.54,84.59,101.24,30.85,483.35,32.89,592.5-1.12C896.08,1539.81,889.17,1457.55,883.34,1458Z"/>
        <path d="M665.21,1473.92c-.94-.87-24.05-.15-23.11.72,3.54,3.28,7.65,91.61,4.36,95.12-1.4,1.5,21.49,1,22.88-.44C673.64,1564.74,669.81,1478.19,665.21,1473.92Z"/>
    </g>
    <g class="clothingBrass">
        <circle cx="769.28" cy="851.2" r="15.95"/>
        <circle cx="403.72" cy="841.71" r="15.95"/>
        <circle cx="552.87" cy="1117.44" r="15.95"/>
        <circle cx="674.27" cy="1118.41" r="15.95"/>
        <circle cx="665.74" cy="1270.53" r="15.95"/>
        <circle cx="569.56" cy="1269.21" r="15.95"/>
        <circle cx="584.85" cy="1411.1" r="15.95"/>
        <circle cx="662.08" cy="1409.8" r="15.95"/>
        <path d="M638.16,1564.77c-.18,13.14-20.34,16.07-40.56,16.12-19.12,0-34.83.1-42.1-16.06-2.18-4.84-3-76.6,0-85.39,6.58-19.41,25.34-16.11,42.12-16.33,26-.34,37.1,3.3,37,16.65-22.84-.17-44.3.67-63.66,0-4.77,0-5.45,85.26-.69,85.3C591.55,1565.26,614.34,1565.08,638.16,1564.77Z"/>
        <path d="M593.78,1517.81h-29.3c-4.14,0-4.14,14.56,0,14.56H594C598.93,1532.29,598.69,1517.73,593.78,1517.81Z"/>
    </g>
    <g class="eye">
        <circle class="sclera" cx="623.36" cy="386.07" r="163.01"/>
        <g class="irisDarkBrown">
            <circle cx="539.79" cy="378.06" r="22.95"/>
            <circle cx="714.7" cy="378.06" r="22.95"/>
        </g>
        <g class="pupil">
            <circle cx="539.79" cy="378.06" r="8.93"/>
            <circle cx="714.7" cy="378.06" r="8.93"/>
        </g>
    </g>
    <g class="skinIndian">
        <path d="M693.09,575.91c-16.7,34.14-23.46,124.94,0,144.84-38.29,56-166,57-227.65,1.87,13.73-21.77,17.34-103,6.24-150.18"/>
        <path d="M172,1512.77c8.81-32.53,61.35-66.74,87.78-65.39,28.47.68,42.66,29.82,66.42,29.82,31.17,0,54.59,14.37,79.29,36.6,19.72,17.75-3.46,39.46-25.75,25.07-21-13.55-40.67-26.43-60.32-24.39,51.6,21.44,101.64,73.62,61,84.71-14.91,4.07-25.88-18.32-41.34-25.4,37.95,36.6,23.37,62.32-.77,54.19-13.48-4.54-29.72-40.31-81.91-57.25,8.6,22.51,17.87,35.28,36.31,45.43,23,12.66,13.86,43-10.2,33.86-35.88-13.61-51.77-41.94-64.06-55.57C182.94,1555.06,185.89,1529.39,172,1512.77Z"/>
        <path d="M883.86,1475.47c-14,9.66-47.38,34.19-61.6,45.82-17.08,14,3,37.73,22.83,27.12,22.45-12,35.57-16.09,47.57-33.64,6.72,25.77-6.87,49-40.22,76.2-20.16,14.37,3.71,38.65,25.29,24.53-13.53,12.19,4,33,15.81,25.21,1,13.58,29.72,16.77,46.94-6.68,54.82-74.66,15.49-99.65,46.86-134.07,1.68-14.88-71.15-68.11-86.84-60.82-6.48,7.4-15.48,10.62-18.67,15.21Z"/>
        <path d="M794.22,332.3c-6.77,51.23,14.76,90.21,1.73,157-22.54,115.55-84.39,159.07-108.67,187C674.61,691,646,695,626.3,696c-35.83,1.23-56.73-7.12-76.66-21.27-65.3-43.9-124.79-61.59-153.78-178.7-24.14,17-26.67-7.24-40.36-31.11-19.59-34.13-28.54-99.59,2.26-114.2C346.05,73.58,891.5-13.44,794.22,332.3ZM588.74,383.1c-11.53-12.48-25.78-22.71-42.47-22.71-24.68,0-38.18,11.88-50.36,19.12,17.68,16.23,57.94,16.43,83.28,7.87C582.07,386.41,593.21,387.94,588.74,383.1Zm99.09,3.95c22.74,8.53,56.95,4.61,71.43-7.24C749.15,374,739.68,363,721.73,363c-16.14,0-30,4.47-41.8,18.76C675.29,387.4,685,386,687.83,387.05Z"/>
    </g>
    <g class="skinOverlapLine">
        <path d="M285,1537.9c7.64,7.45,25.86,8.92,54,35.89"/>
        <path d="M319.4,1514.48c-8-4.37-17-5.44-22.35-9.16"/>
        <path d="M955.24,1563.84c-12.36,33.55-29,62.17-61.7,76.87"/>
        <path d="M933.9,1538.77c-9,33.9-22.73,64.66-56.17,76.73"/>
        <path d="M883.86,1475.47c11.2-9,38.86,12.82,8.8,39.3"/>
    </g>
    <g class="skinFoldLine">
        <path d="M370.74,399.56c-10.85-64.75-36.75-6.3-10.5,55.3"/>
        <path d="M378.09,428.61c-8,8.75,4.21,38.74-4.2,37.8-9.45-1.05-2.8-24.15-10.5-31.15-8.07-7.33-6.65-36.05,0-32.2"/>
    </g>
    <g class="skinCreaseLine">
        <path d="M655.4,641.44c-10.3-5.42-39-5.42-50.44,1.09"/>
        <path d="M631.54,678.33c.34,4.5-.76,11.12-4.34,14.1"/>
    </g>
    <g class="head51">
        <path class="lipMaleBrown__noStroke" d="M654.76,550.23c-9.11,4.73-19,5.1-27.33.36-13.31,6.22-52.85,6.2-67.06,4.37,11.58,6.39,2.89,64,75.15,63.44,55-.39,48.76-53.31,60.78-60.52C681.61,556.63,665.22,552.93,654.76,550.23Z"/>
        <g class="lipEdgeLine">
            <path d="M654.76,550.23c-9.11,4.73-19,5.1-27.33.36"/>
            <path d="M675.7,601c-17,24.17-69.4,22.93-91.91,0"/>
        </g>
        <g class="lipCornerLine">
            <path d="M556.76,553.66a20.46,20.46,0,0,0,7.83,4.41"/>
            <path d="M683.73,560c4.2.26,9.11-.75,14.52-2.66"/>
        </g>
        <path class="teeth" d="M564.59,558.07c22.13,4.37,35.52,1.91,45.63,3,11.75,1.27,22.18,5.35,31.15,5.19,7.65-.54,13.45-3.83,21-5.19s13.12-.54,21.32-1.09C669.25,605.07,607.1,597.67,564.59,558.07Z"/>
        <path class="teethBorderLine" d="M677.86,572.16c-20.14,13.76-72.39,15.93-109.35-10.58"/>
        <g class="cheekLine">
            <path d="M544,545c20.37-24.59,33.75-55.05,46.57-59.93"/>
            <path d="M707.29,534.34c-4.3-13.77-9.19-26.19-16.54-33"/>
        </g>
        <g class="noseLine">
            <path d="M590.59,485.05c-11,10.33-8.16,28.72,2.86,34.84"/>
            <path d="M603.67,515.61c16-7.08,24,12.62,41.56,12,18.77-.66,23.7-15.39,32.63-13.55"/>
            <path d="M673.55,458.05c7.39,31.7,31.71,44,4.93,62.8"/>
        </g>
        <g class="eyeFoldLine">
            <path d="M512.37,410.09c12.84,3.62,42.39,2.11,60.24-8.89"/>
            <path d="M693.19,399.8c12.08,6,36.11,12.6,53.89,8.32"/>
        </g>
        <g class="eyeCornerLine">
            <path d="M759.26,379.81c3.54,2.1,10.34,6.53,13.5,5.92"/>
            <path d="M479.12,386.72c5.57-2.37,14.13-5.51,16.79-7.21"/>
        </g>
        <g class="eyeCreaseLine">
            <path d="M585.12,370.92c-32.59-36.54-74.07-6.25-91.18-.33"/>
            <path d="M769.14,377.5c-17.12-22.71-48.39-32.59-83-7.24"/>
        </g>
        <g class="eyebrowBlack">
            <path d="M607.78,318c10.62,1.57,2,11.18-13.37,16.91-16.92,6.3-55.06-17.3-124.68,5.51-17,5.58,12.19-37.37,32.64-41.7C537.58,291.28,573.17,312.88,607.78,318Z"/>
            <path d="M762.18,300.49C728.94,293,703,312.69,670,316.19c-10.1,1.07-2.85,10.71,11.39,17.15,15.21,6.87,50.37-14.77,111.73,10.31,1.69-3.8,3.48-16.16,1.78-19.79C787.55,313.33,776.63,303.75,762.18,300.49Z"/>
        </g>
        <path class="hairBlack" d="M796,187c17.83,21.84,26.74,103-1.78,145.3,7.13-78-8-66.86-2.68-135.94-49.27-20.35-107.41-18.27-164,6.69-96.95-68.38-139.5,108.3-28.74,95.28-73.32,19.71-97.19-68.88-58.09-113.95-25.18-2-59.3,4.56-88.33,11.53,7.47,89.22-11.09,71.32-34.29,140.91-12.59,27.84-12.59,99.42-4,167.69-28.5.66-21.82-37.38-21.87-68.27a394.49,394.49,0,0,0-4-53c-4-29.83-15-36.84-30.49-32.48-16.57-100.08-1.53-126.56,1.33-166.36,7.11-99.34,51.43-96,75.55-131.89C457.84,18,518.33,9.1,553.28,4.76,644.09-6.5,642.86,10.39,680.54,18,788.58,39.89,814.43,84.3,796,187Z"/>
        <path class="hairOverlapLine" d="M540.69,184.38c14.57-15.29,35.34-20.18,51.22-14.56"/>
    </g>
</svg>
