<svg viewBox="0 0 1241.43 3115.07">
    <g class="soleTan">
        <path d="M1223.3,2867.45l-357,189.06a94.08,94.08,0,0,0,3,15.15c64.38,33.73,174.29-9.7,256.9-96l8.54,11.4c14.28-2.33,112.1-76.78,105.26-92.73C1235,2884.75,1228.81,2876.44,1223.3,2867.45Z"/>
        <path d="M433.37,3087.35a119.39,119.39,0,0,0,1.57,14.25c6.14,14.83,170.82,20.46,262.81-6.11l.06,10.27c8.7,6.14,132,1.47,137.07-11.32a237.34,237.34,0,0,0,4.92-33.84Z"/>
    </g>
    <g class="nestorBoot">
        <path d="M1105.1,2972.92c24.88-25.4,71-37.16,118.2-105.47-42.25-68.88-94.27-122.27-114.68-182.32l-128.49,61.64c38.93,69.28,35.25,150.35-36.64,222.06-21.29,21.24-83.51,30.73-77.15,87.68C938,3089.17,1035.37,3044.15,1105.1,2972.92Z"/>
        <path d="M671.73,3084.72c65.55-14.08,127.4-3.75,168.07-24.12,5.42-73.74-23.3-133.22-2.36-218.3l-151.9-3.58c-11.94,93.51-115.78,167-147.8,171.38-34.48,4.75-107.71,6.41-104.37,77.25C493.17,3100,590.53,3102.16,671.73,3084.72Z"/>
    </g>
    <path class="nestorPants" d="M839.23,2863.53c13.84-4.54,12.77-18.48-.81-28.23,31-30-3.84-56.52,2.42-74.2,20-8.34,23.77-31.09,21-59.69-7.08-39,11.22-78.57,14.28-127.46,30.29,28.26,47.25,73.91,46.73,90-.69,21.31,4.56,46.53,38.88,51.58,4,14.13-16.09,43,11.08,49.42,28.36,6.69,143.57-48.17,147.44-67.62,8.75-44-20.21-40.38-35.36-56.53,11.78-23.33,11.86-42.47-5-55.52-31.3-16.16-95.71-275.82-165.36-308.12,5-15.15-6.43-34.26-24.78-33.95,6.6-38.74-19.48-51.77-1.58-82.63,34.74-59.91,40.79-261.26,62.7-320.54,22.21-18.17,4.41-31.75,14.13-44.42,27.05-35.25-8.24-40.81,4.21-64.08,55.35-103.49,59.39-222.61-14.31-309.86l-388.65,62c-11.11,44.42,23.59,77.1,18.17,114.07-11.1,75.72,14.13,89.85,22.21,137.3-.3,72.14,22.85,234.28,26.25,301.83-1,53.51,26.34,80,22.2,106-2.71,17.08,1.1,32.72,8.08,48.46,5,41.39-8.08,99.94,18.17,130.22,0,18.17-18.17,31.3,1,65.62,2,85.81,12.79,164.42,4,188.78-8.26,23-2,39.76,12.1,53.51-26.82,53,.25,58.27-22.32,99.83-10.17,18.73-16.49,34.82,8.25,57.72.91,26.57-26,51.64-15.58,66.87,7.37,10.82,31.91,8.31,50.39,1.84C754.87,2863.06,799.8,2876.45,839.23,2863.53Z"/>
    <g class="drumstick">
        <path d="M436.94,1728.74c-20.84.81-72.44,5.38-97.77,8.8l.74,19.08c25.51,1.62,77,2,98.16,1.2L1036,1734.63c21-.82,19.91-29.9-1.13-29.08Z"/>
        <path d="M486.26,1756.19c-20.51,3.79-70.92,15.71-95.5,22.72l3.47,18.79c25.48-2.06,76.48-9,97.31-12.89L1080,1676.1c20.71-3.82,15.43-32.44-5.28-28.61Z"/>
    </g>
    <g class="drumstickTip">
        <path d="M299.55,1748.63c.31,8,11.09,14.13,25.53,13.57s16.4-7.15,16.09-15.18-2.78-14.46-17.22-13.9S299.24,1740.6,299.55,1748.63Z"/>
        <path d="M353.14,1795.58c1.46,7.9,13,12.39,27.21,9.77s15.21-9.44,13.75-17.34-4.83-13.91-19-11.28S351.68,1787.67,353.14,1795.58Z"/>
    </g>
    <path class="nestorShirt" d="M763.05,638.14C920,804.26,947,1011.65,894.86,1244.19c20.06,65.9,84,73.18,54.44,133.24,10.5,14.84,15.7,32.83,17.19,53-55.87,40.12-298,81.67-424.08,67.34-14.33-91.69-12.44-232.16-22.93-308-9.9-71.68-28.2-162.42-21.49-227.81,8.34-81.25,32.37-156.42,60.18-227.8C605.24,722.74,679.64,648.34,763.05,638.14Z"/>
    <g class="clothesDisplayLine">
        <path d="M537.74,3010.1c25.57,20.25,37.46,50.24,40.75,86.35"/>
        <path d="M604.43,2971.23c3.7,41.49,50.69,63.63,57.71,115.44"/>
        <path d="M835.82,2980.82c-28.39,42.16-82.94,41.08-81.64,94.82"/>
        <path d="M943.49,2968.83c39-.08,60.51,33.51,70.42,72.5"/>
        <path d="M998.57,2879.88c4.35,62,50.26,50.09,89.71,109.23"/>
        <path d="M1180.49,2804.52c-5.81,45.51-38.22,89.8-14.83,124.46"/>
    </g>
    <g class="clothesOverlapLine">
        <path d="M786.05,814.37c33.15,36.12,78.37,120.51,58.48,126"/>
        <path d="M691,1008.42c-14.56,17.66-17.9-54.16-94.59-149.38"/>
        <path d="M889.68,2243.21c-17.92,44.37,10.84,138.89-13.59,330.74"/>
    </g>
    <g class="clothesFoldLine">
        <path d="M739,765.61c44.91,22.61,81.66,49.26,84.62,92.61"/>
        <path d="M739.65,746.28c31.81,15,59.79,31.83,70.62,56.64"/>
        <path d="M561.08,827.57c3.8,19.55,17.82,38.36,39.31,56.64"/>
        <path d="M688.34,1042.12c-28.62,7-56.07,6.73-82-3.34"/>
        <path d="M646.37,1070.77q-53.4-5.36-93.28-34.65"/>
        <path d="M622.38,933.51c-33.31-8-57.3-21.32-50-36,9.85-19.69,27.32,17.32,68.91,27.15"/>
        <path d="M593.06,1231.75c31.54,56.43,195,151.86,97.93,195.85"/>
        <path d="M655.3,1251.66c34.23,33.73,74.21,58.1,119.5,73.86"/>
        <path d="M949.3,1377.43c-6.09,13.66-21,20.29-27.61,35.23"/>
        <path d="M940.78,1348.76c-6.29,2.68-12.32,3-18,0"/>
        <path d="M1084.86,2640.8c-8,12.46-22.58,22.86-40.82,32.1"/>
        <path d="M961.7,2715.53c19.34,1.55,46.38-4.13,55.34,2.37"/>
        <path d="M980.22,2756.35c-20.45-22.09,49.91-9,100.63-51.54"/>
        <path d="M698.41,2629.48c9,10.2,20.27,19,32.4,27.15"/>
        <path d="M840.84,2761.1c-11.9,3.46-25.83,4.74-41.31,4.34"/>
        <path d="M684.34,2787c30.1,43,98,37.3,93.92,49.59-2.6,7.89-25.36,4.09-36,.82"/>
        <path d="M838.42,2835.3c-7.85,6.45-20.29,10.22-34.8,12.77"/>
        <path d="M827.34,2796.53q-36.33,5.73-67.9-14.73"/>
        <path d="M681.26,2321.57c18.46,27.45,107.63,80.62,34.82,60"/>
        <path d="M663.09,2191.35c16.17,17,35,15.31,44,24.31"/>
        <path d="M617.37,1688.12c23.13-3.16,46-10.14,68.7-20.14"/>
    </g>
    <g class="eye">
        <circle class="sclera" cx="383.21" cy="401.53" r="39.17"/>
        <path class="irisDarkBrown" d="M376.75,429c-2.49.54-10.66-8.19-13.37-20.57s1.09-23.73,3.58-24.27A130.16,130.16,0,0,1,376.75,429Z"/>
        <path class="pupil" d="M368.28,416.49c-2,.44-3.84-3.25-4.9-8.06s-.9-8.94,1.09-9.38A69.55,69.55,0,0,1,368.28,416.49Z"/>
    </g>
    <g class="skinIndian">
        <path d="M780.66,1534.6c20.74-158.78-9.39-267.24-3.36-333.51,1-10.74-53.74-113.73-86.27-192.67,33.55-40.81,65.81-36.63,84.08-43,17.25-6.06,32.31-27.14,69.42-25,39.15,91.84,83.36,208.84,85,233.51,7,103.72-23.45,241.08-48.92,364.86-13,65.11,7,85.07,3.48,135.91-1.84,26.88-15.81,56.87-30.28,81.26-10.43,17.59-26.83,35.41-48.44,29.85-10.46,12.69-38.26,9.84-39.51,3.78-13.19,8-33.83,5.24-39.75-4.46-22.27,8.79-46.19-13-43.51-35.59l27.08-5c4.19-6.94,7.76-20,9-31.26l-27.79,5.13c2.2-30,18.46-63.69,35.84-91.35C747.89,1593.41,770.41,1589.29,780.66,1534.6Z"/>
        <path d="M334.64,1446.63c58.11-36.93,139.56-71.21,195-104.94-2.71-57.43-4.84-113.14-10.2-151.94-68.82,65.15-159.16,130.76-225,166.27-21.52,8.6-38.71-22-95.55-24-45.61-1.53-70.91,21.91-109.32,34.3-14.77,4.76-6.89,26.68,21.52,29.26-43.9,25.83-92.58,47.6-101.82,58.26-14.15,16.33-1.64,32.74,17.46,31.27-21.27,9.54-28.35,22-25,31,4.74,12.52,14.64,17.21,30.13,12-7.48,7.12-8.52,15.19-.86,22.38,13.78,12.91,35.3.86,61.12-10.33-13.77,10.33-12.62,23.07-6,28.41,18.08,14.63,54.26-11.13,99.32-32.47,28.63-13.56,71.93-15,115-59.64C311.12,1465.54,310.37,1457.91,334.64,1446.63Z"/>
        <path d="M446.85,626.35C519.53,588.56,565.55,694,568,731c46-17.49,113.51-79.9,188.83-92-71.64-133,13.86-139.44,32-354.36"/>
        <path d="M609.77,577.26c-36.51,70-152.39,135.81-183.76,128.42-39.63-12.5-6.44-53.07-30.06-64.94-21.19-8.74-11.69-32.84,11.75-35.88l-25.54-20c-6.5.11-13,15.12-23.22-3.25,2.06-9.1,2.41-19.68.42-32.31-16.49,4.91-30.94,5.39-39.87-8.09-10-15.13,12-59.67,18.9-108.75,3.89-42.49-32.92-50-26.09-88.25,6.65-37.25-.36-74.34,9.07-110.47,83.1-158.47,541.38,46.55,370.08,194.07C673.15,447,669.51,475,632.66,463.57M368.4,420.43c7.34-2.74,22.42-11.5,31.75-18.07-8-3.15-20.7-8.33-36.75-9.17C360.89,400.73,363.88,414.43,368.4,420.43Z"/>
    </g>
    <g class="skinOverlapLine">
        <path d="M111.13,1395.61c11.82.38,26-4.23,35.67-11.33,15.27-2,28.18,1.07,41.09-2.61"/>
        <path d="M26.77,1485.14C47.24,1478.77,89.86,1453,131,1433.9"/>
        <path d="M31.93,1528.18c22.5-8.61,70.36-36,114.44-56.6"/>
        <path d="M92.19,1540.23c17.73-6.91,48.56-25.12,80.31-39.31"/>
        <path d="M735.05,1655c-8.73,21.7-14.08,41-16.34,58.22"/>
        <path d="M805.38,1785.78a67.75,67.75,0,0,0,13.91-20.33"/>
        <path d="M765.87,1789.56c9.93-9.8,16.1-19.25,20.13-28.49"/>
        <path d="M726.12,1785.1c7.74-4.32,17.94-19.65,20.13-27.54"/>
    </g>
    <g class="skinFoldLine">
        <path d="M146.8,1384.28c1.88-3.35,1.63-8.08-.72-14.15"/>
        <path d="M129.22,1427.84a17,17,0,0,0,5.51,11"/>
        <path d="M143.78,1464.81a32.28,32.28,0,0,0,6.49,12.64"/>
        <path d="M170.05,1496.23a14.62,14.62,0,0,0,6.81,8.43"/>
        <path d="M635,364c3.85-65.92,104.06-33.77,49.09,50"/>
        <path d="M638.94,382.27c19.26,8-6.49,40.57,7.16,41.74,12.53,1.08,3.11-14.08,19.84-22.82,22.5-11.74,4.74-51.89-16.3-35"/>
    </g>
    <g class="skinCreaseLine">
        <path d="M294.06,1386.78a124.91,124.91,0,0,1,17.64,42.63"/>
        <path d="M176.44,1409.31c21.94,19.1,49.72,24.83,81.11,22.3"/>
        <path d="M185.26,1440.19c15.45,7.87,26,19.54,31.85,34.79"/>
    </g>
    <g class="head51">
        <path class="lipMaleBrown__noStroke" d="M435.48,590.47l-6.63-17.29c-25.2,5.65-51,4.05-69.91,8.48,10.19,18.37,16.72,3.36,23.22,3.25l25.54,20c-23.44,3-32.94,27.14-11.75,35.88C416.2,635.9,429.6,611.72,435.48,590.47Z"/>
        <path class="tongue" d="M433.86,585.51c-7.15,5.07-21.07,12.54-31.18,16.85a25.39,25.39,0,0,0,.17,9,188.31,188.31,0,0,0,32.63-20.87Z"/>
        <path class="teeth" d="M382.16,584.91c.22,7,5,20.58,9.77,20.85,6,0,31.35-12.76,41.93-20.25a117.56,117.56,0,0,0-5-12.33C414.59,579.14,395.23,582.58,382.16,584.91Z"/>
        <g class="lipEdgeLine">
            <path d="M402.85,611.34c-2,1-4.59,1.09-6.74,1.85"/>
            <path d="M396,640.74c9.62-2.15,18.13-9.7,26.08-20"/>
        </g>
        <path class="cheekLine" d="M382.5,507.12c23.23,44.77,42.06,41,55.13,90.93"/>
        <path class="noseLine" d="M342,544.71c15.2-15,53.33,8.44,46.26-27.36"/>
        <g class="eyeLidLine">
            <path d="M363.4,393.19c-14.37-.36-7.17-9.5-8.34-21.84"/>
            <path d="M368.4,420.43c-10.12,8.36,2.94,19,16,14.56"/>
        </g>
        <path class="eyeCornerLine" d="M400.15,402.36a63.8,63.8,0,0,0,18.09,1.53"/>
        <path class="eyeCreaseLine" d="M395.16,394.19c-13-6.31-32.28-9.57-40.85-7.73"/>
        <path class="eyebrowBlack" d="M324.59,343.63c13.64-5,26.89-19.92,52.45-21.57,12.32-.79,38.7,19.7,39.21,30.15.47,9.78-19.87,3-33.35,1.87-23.75-1.89-35.26,10.62-45.57,7.7S314.18,347.48,324.59,343.63Z"/>
        <path class="hairBlack" d="M623.42,352.8c-36.77,6,1,97.35-4.82,116.72-5.56,18.62-27.67,19.64-53.83,23.6,3.8-28.26-1.29-53.71-3.85-84.3-3.29-39.45-6.55-74.14-19.93-80.84-71.24-53.62-84.94-24.07-97.13-126-35.58-9.93-106.52,9.22-122.49,31.82-23.62-13-31.77,48.27-9.88,92.06-23.57-24.18-28.7-91.77-13.26-101.67-48-38.42-40.52-144.93,8.41-183.09C344.05,11.91,380,26.91,444,6.82c43.55-13.67,78.55,1.08,112.36.65,66.58-.85,74.78,17.1,102.55,25.79,47.83,15,77.59,47.38,85.16,88,57.45,27,80.57,124.48,79,177.81-4,138.64-82.88,159.06-44.32,191-26.82,7.22-68.58-26.72-87.34-62.13,31.39-30.55,26.16-93.89-1.17-109.95C661.35,300.92,628.76,312.49,623.42,352.8Z"/>
        <g class="hairOverlapLine">
            <path d="M298.23,224.18a12.67,12.67,0,0,1,13-2.29"/>
            <path d="M744.07,121.22c-35.29-12-218.34,11.94-289.3,75.86"/>
        </g>
    </g>
</svg>
