<svg viewBox="0 0 1400.07 2999.41">
    <g class="soleTan">
        <path d="M824.16,2888.31a308.25,308.25,0,0,0,.28,33.2c1.63,11.42,102.26,43.51,106.61,35.36l3-7.43c112.34,92.28,261.45,28.12,265.47,15.75a35,35,0,0,0,1-19.67Z"/>
        <path d="M312,2707.81c2.2,14.27.58,28.49-2.92,41.81-9.42,35.9-45.67,64.54-85.38,104.25-23.08,23.07-15.84,53.81-66.82,92.29-54.16,40.89-141.34-23.28-153.94-70.26-3.24-12.11-3.26-30,7.62-38.7Z"/>
    </g>
    <g class="nestorBoot">
        <path d="M1200.48,2945.52c35.73-107.78-198.17-7.69-163.21-292l-135.69-20.65c-28.66,101.66-73.28,164-77.42,255.45,44.69,39.7,82,21.65,114,45.71C1038,3009.09,1173.65,2978.08,1200.48,2945.52Z"/>
        <path d="M357.73,2545.09c-31,58.75-42.61,105.68-45.78,162.72-2.72,49-57.66,91.25-91.84,140.26-22.36,32.06-27.3,96.91-100.09,95.74-47.47-.76-124.38-62.67-109.51-106.61,23.57-69.63,131.27-93.56,207.33-338.89Z"/>
    </g>
    <path class="nestorPants" d="M1158.55,1476.19c40.11,171.25,74.6,364.47,86.41,490.41,4,43.07,14,72,10.8,116.66-5.72,78.64,15.89,112.48-24.84,194.43-88.58,178.24-98.91,269.91-140.43,302.46-15.32,12,0,34.56-40,49.69,14.32,20.23,20.8,39.42-10.81,49.69-47.25,15.34-148.58-24.64-152-39.12-9.65-49.63,28.26-48.25,26.19-64.1,0-31.71,15.16-21.44,22.75-34.15-4.53-20.88,17.44-68.95,21.36-108.53,4-40,37.43-125.23,51.84-177.15,3.24-11.67-22.2-44,18.47-84.71-37.22-48.32-13.78-51.77-31-145.51-21.85-118.89-83.43-242.81-139.23-257.79-48.45-13-119.37,99.12-141.62,182.66-14.1,53-45.18,57.9-89.29,173.7C595.84,2207,577.29,2181,551.33,2242.7,456.21,2468.78,399.68,2495,393.48,2519.1c-2.81,11,1.38,33.77-30.33,37.22-32.39,35.84-107.49,19-147.5-31.71-37.35-47.28,21.33-65.18,24.81-84.09,7.92-43,26.44-43.17,35.84-80,26.81-104.81,88.32-193.5,93.06-215.74,7.43-34.92,23.43-48.94,39.29-76.51-11-46.87,25.16-67.62,37.91-125.45,43.65-198.08,111.66-392.89,159.22-595.54Z"/>
    <path class="nestorShirt" d="M725.45,1431.23c87.24,49.86,184.79,71.68,291.13,69.59,57-294.7,103.28-568.25,119.08-781.31L922,662.82C844.54,863.5,782.2,1134.34,725.45,1431.23Z"/>
    <g class="nestorJacket">
        <path d="M1304.11,964.79c-21.85,58.92-43.36,115.74-60.9,147.89,34.37,11.87-64.22,232.1-52.7,388.31-26.89,58.9-149.8,79.38-188.22,129.32,7.69-180.54-11.52-350.83-13.95-536.29-4-147.26,94.05-281.07,212.82-412.15Z"/>
        <path d="M898.43,1087C821.26,1213.41,759.74,1367,709.08,1539.4c-39.31-66.54-103.6-91.09-122.31-151.87,10.52-45.59,32.66-106.82,47.93-148.46,25.72-70.13,15.2-87.67,44.42-152C621.6,822,626.52,621.88,884,630.48,902.47,820.48,924.89,1006.18,898.43,1087Z"/>
    </g>
    <path class="clothingSilver" d="M1188.41,1185.19c-.34-2.13-10.17,3.34-9.86,5.47,6.79,46.13-.71,112.54,11.12,175.92.46,2.5,9.2-5.09,8.75-7.58C1186.55,1294.1,1194.59,1223.4,1188.41,1185.19Z"/>
    <g class="nestorJacketLight">
        <path d="M1206,1383.56c-51.76,48.68-159.89,44-163.93,114.79l-6.53,72.74c15.86-70.23,130.57-65.71,165.57-115.1C1211.21,1441.73,1215.14,1375,1206,1383.56Z"/>
        <path d="M631.29,1389a301.85,301.85,0,0,0,30.56-50c9.44-8-30.17-54.75-42.53-81-5.07-5.33-29,59-22.64,66.76C603.93,1345,623,1367.44,631.29,1389Z"/>
        <path d="M1061,1455.24l-12.27,10.7c17.54-3.28,23.9,58.12,14.19,68.4l14.28-9.14C1088.66,1513.63,1077.5,1452.28,1061,1455.24Z"/>
        <path d="M1276.91,793.25c-151.61,63.37-272.59,115-288.57,300.77-19-255.75,188.81-307.69,145.86-440.56l8-23C1195.77,642.23,1255.59,781.41,1276.91,793.25Z"/>
        <path d="M968.36,601.51c-49-12-101.9,46-157.85,84.91,22.19-5,43.58-7.87,63.94-8a755.1,755.1,0,0,0-70.93,53C881.44,911.2,911.42,1018.1,898.43,1087c58.94-110.89-43-442.57,61.94-460.55Z"/>
    </g>
    <g class="clothingBrass">
        <ellipse cx="1025.83" cy="1144.56" rx="17.26" ry="14.73" transform="translate(-504.35 1000.05) rotate(-42.74)"/>
        <ellipse cx="1110.95" cy="1129.86" rx="17.26" ry="14.73" transform="translate(-471.77 1053.91) rotate(-42.74)"/>
        <ellipse cx="1182.68" cy="799.89" rx="17.26" ry="14.73" transform="translate(-228.8 1014.97) rotate(-42.74)"/>
        <ellipse cx="837.26" cy="740.79" rx="17.26" ry="14.73" transform="translate(-280.41 764.87) rotate(-42.74)"/>
        <ellipse cx="1105.75" cy="1263.79" rx="17.26" ry="14.73" transform="translate(-564.05 1085.94) rotate(-42.74)"/>
        <ellipse cx="1032.33" cy="1281.09" rx="17.26" ry="14.73" transform="translate(-595.28 1040.71) rotate(-42.74)"/>
        <ellipse cx="1034.94" cy="1409.83" rx="17.26" ry="14.73" transform="translate(-681.95 1076.66) rotate(-42.74)"/>
        <ellipse cx="1099.25" cy="1392.52" rx="17.26" ry="14.73" transform="translate(-653.13 1115.71) rotate(-42.74)"/>
        <path d="M1107.58,1588.46c-20.66-17.83-48.69-38.64-66.95-47.41l-1.27,15.26c16.56,8.49,40.06,27.31,62.85,45.59C1109.32,1607.6,1118.73,1598.09,1107.58,1588.46Z"/>
        <path d="M1036.8,1509.72c9.85-4.4,56.13,36.47,60.36,46.4,3.33,7.79-.5,73.46-8.38,76.58-8.71,3.11-54.42-42.36-55.57-50.19C1030.22,1575,1032.87,1511.48,1036.8,1509.72Zm6.88,67c.78,5.28,30.64,37.18,36.51,35.08,5.32-2.11,5.7-44.46,3.45-49.71-2.85-6.7-33.19-33.87-37.54-32.34C1043.36,1530.68,1041.67,1571.65,1043.68,1576.69Z"/>
    </g>
    <g class="nestorJacket">
        <path d="M1136.93,1098.74c-44.36-1.55-127.41-35.27-183.55-68.38-29.06-17.14-67.35-35.18-87.82-56.87-31.14-33-74.3-40.85-94.68-67.45-6.1-28.29,57.25-132.66,69.88-131.84,27,10.7,60.38,36.13,80.22,56,18.42,18.48,53.27,13.68,88.54,43.19,17.15,14.35,39.18,5.26,51.11,17.28,8.48-8,19.39-5.85,31.67,2.16,5.38-5.82,13.25-6.63,23-3.6,43.91-12.24,51.82-66.22,113.76-81-12.59-26.27-28.55-48.35-48.95-64.93,18-5.79,47,22.64,70.94,24-34-37.46-29.61-56-49.93-85.47,26.63,12,52.67,24.1,79.89,33.8,2.82-23.33,56,11.47,84.73,46.65,29.1,35.64,16.91,113-4.23,149.88-26.39,46-62.67,73.19-98.16,106.7C1224.59,1055.54,1165.32,1099.73,1136.93,1098.74Z"/>
        <path d="M752,862.75c5.42,69.86-25.29,60.83-22.28,80.7,5.42,31.92-21.31,30.29-17.47,46.37,5,20.76-7.83,30.72-18.06,45.77,20.26,31-24.09,66.85-76.48,79.49-43.41,10.48-63.26-12.67-81.91-33.72-12.47-14.08-4-30.74-16.26-41.55-25.29-22.29-16.26-58.42,18.07-77.69,5.42-14.45-1.8-37.43,19.27-42.76-11.44-41.55,12.31-29.27,18.07-44.56,7.3-19.4-11.44-34.33,28.3-56Z"/>
        <path d="M661.85,1339c-48.18,100.16-150.3,160.59-244,227.28-3.71,2.63-40.06,52.83-38.56,56.63,1.12,2.82,42.31,14.15,47.2,10.44,98.92-75.09,206-145.19,221.49-215.49C652.22,1410,664.79,1339.57,661.85,1339Z"/>
    </g>
    <path class="zipperDisplayLine" d="M811.14,935.7c-20.34,34.08-28.87,126.7-45.6,171.45-38,101.53-77.69,288.69-93.51,384.82"/>
    <g class="clothesDisplayLine">
        <path d="M862,1485.05c-8.14,70.61-10.7,152.83-15.91,241.66"/>
        <path d="M930.55,1497c.83,48.44-8.55,109.58-12.22,149-2.67,28.62-35.78,41.21-69.38,36.42"/>
        <path d="M284.53,2520.62c-44.17,94.72-82.73,183.2-121.14,250.48,31.32,18,50.07,39.23,63.16,68.11"/>
        <path d="M261.16,2512.8c-33,89.19-76.63,171.21-125.66,245.31-19.78-8.68-37.13-10.24-58-5.72"/>
        <path d="M194.79,2898.59C187.13,2833.5,86,2781.87,43.46,2788"/>
        <path d="M314.3,2679.91c-22.59,29.21-36.68,64.07-42,104.71"/>
        <path d="M1156.05,2881c-68.11-11.82-136,17.63-143.66,89.66"/>
        <path d="M840.05,2803c27.83,30.06,40.5,66,30.44,110.67"/>
        <path d="M1003.44,2648.36c-18.55,79.62-14.52,142.79,32.45,191.3-39.2,26.1-70.51,61-89.49,100.28"/>
        <path d="M1026.62,2651.88c-17.08,66-12,130.21,35.24,181.73a69.22,69.22,0,0,1,10.11-2"/>
    </g>
    <g class="clothesOverlapLine">
        <path d="M1281.05,715.67c6.63,13.26,51.69,22.07,67.7,46.53"/>
    </g>
    <g class="clothesFoldLine">
        <path d="M1243.21,1112.68c.84,24.19-32.32,45.75-76.25,29.17"/>
        <path d="M671.26,1208.16q-17.82,33.54,25.7,82.07"/>
        <path d="M697,1196.56c-38.13,35.64,14.92,84.55,42.28,125.16"/>
        <path d="M670.44,1141c30.67-52.22,38.13-68.8,0-33.26"/>
        <path d="M753.33,1027.46c48.9,35.64,134.28,105.27,41.44,91.18"/>
        <path d="M823.79,1061.44c17.4,15.75,38.13,44.76,22.38,55.54"/>
        <path d="M537.64,962.12c14.26,75.28-23,82.74-12.27,26.38"/>
        <path d="M556.91,919.36c5.19,10.55,7.66,24.36,5.77,43.44"/>
        <path d="M602.46,877.42c6.64,37.3,51.08,49.58,45.59,61.34-5.8,12.44-65.48-10-77.91-39"/>
        <path d="M624.84,867.47c31.6,28.15,72.22,21.69,108.59,20.73"/>
        <path d="M725.14,913.89c-24.86,2.49-71.75-16.1-75.43-5.8-4.14,11.61,31.35,29.89,67.15,43.11"/>
        <path d="M689.5,974.41c-48.08,7.46-124.55-12.74-102,24.86,20,33.3,45.59,67.15,84.55,19.9"/>
        <path d="M694.22,1035.59c-13,16.73-37.78,24.1-27.93,35"/>
        <path d="M949,748.94c19.09,12.75,31.88,27.64,33.16,46.42"/>
        <path d="M1083.24,779.61a109.76,109.76,0,0,0-44.76,34"/>
        <path d="M842,869.13c14.92,21.55,14,45.77,44.76,47.25,54.66,2.63,65.49-4.14,111.91,69.63"/>
        <path d="M913.31,941.25c40.62-14.92,67.14,92,118.54,72.11"/>
        <path d="M938.18,1190.75c-47.17,15.93-5.57,29,54.51,41.42"/>
        <path d="M831.36,1211.46c32.86,15,68.65,25.47,106.82,32.35"/>
        <path d="M866.06,1355.71c42.11,17.48,86.92,27.53,134.09,31.12"/>
        <path d="M772.1,1350.69c109.75,25.87,247.72,94.47,102.61,68.28"/>
        <path d="M814.43,1431.92c58.49,22.28,121.66,33.83,188.66,36.61"/>
        <path d="M1060.63,890.71c9.95,12.52,9.59,36.24-2,72.11"/>
        <path d="M1079,921.5c7.52,14.15,6.71,37-.75,66.86"/>
        <path d="M1092.3,892.87c31.74,47.41,6.21,114.94,36.24,106.75,41.32-11.26,12-77.37-27-102.16"/>
        <path d="M1205.17,982.35c-39.07-42.07-29.3,6.76-40.57,51.08"/>
        <path d="M1115.34,889.27c24.88,3.86,50.76,26.22,67.29,54.77"/>
        <path d="M1214.18,962.82c33.19-5.17-.75-64.61-68-60"/>
        <path d="M1217.94,860.65c59.34-9.76,48.07,16.53-45.83,27.05"/>
        <path d="M1302.82,884.69c-33.8,10.52-83.31,3.95-41.31,45.07"/>
        <path d="M1291.55,782.53c45.83-15.77,1.51-22.53-44.32,9.77"/>
        <path d="M1320.1,799.06c-28.38-1.19-55.22,2-79.63,12"/>
        <path d="M1354.65,802.81c33,31.55-88.64-2.25-171.27,36.81"/>
        <path d="M818.55,1649.6c-62.39-24.94-123.09-48.36-181.68-69.88"/>
        <path d="M794.27,1732.71c36.65-44-67.66,5.88-169.9,11"/>
        <path d="M1018.61,1690.05c-53-2.17-106.57-4.48-41.19,20.59"/>
        <path d="M956.82,1645.92c23.85-7.13,56.81-9.47,92.68-10.3"/>
        <path d="M1008.44,1930.88c24.14,44.62,67.85,93.66,118.52,150.29"/>
        <path d="M1010.88,1967.54c10.71,17.57,21.41,33.19,33,46.43"/>
        <path d="M1155.51,2207.54c-41.81-39.27-117-84.47-110.22-62.08"/>
        <path d="M1028.31,2171.77c7.72,8.27,11.61,16.59,8.74,25"/>
        <path d="M1101.66,2230.34c-33.57,3.17-79.81-26-72.21,17.11"/>
        <path d="M1050.53,2629.84c-10.31,2.75-25.55-.56-35.65-5.49"/>
        <path d="M988.91,2548.34c19.64,10.13,34.21,42.44,72.21,31"/>
        <path d="M956,2594.58c45.34,24.19,15.84,34.84-31,19.64"/>
        <path d="M247.14,2446.35c12.67,48.78,67.92,66.06,60.81,76-6.27,8.78-34.21-3.81-46.24-13.94"/>
        <path d="M384.6,2469.16c-25.34,12.66-67.74,2.33-48.14,22.8"/>
        <path d="M363.15,2556.32c-24.79-.38-48,6.56-60.9.25"/>
        <path d="M203.26,2498.31c4.6,19.62,27.6,29.74,43.88,34.19"/>
        <path d="M408.65,2068.31c7.87,26.94,25.51,45.9,50.75,58.66"/>
        <path d="M533,2082.1c37.85,28-35.76,45.57-83.43,2.1"/>
        <path d="M415.93,2129.77c22.44,41.36,89.86,49.41,84.13,62.39-5.57,12.6-52.58,11.92-76.42,2.81"/>
        <path d="M521.09,2225.11c-34.35,8.42-68.7-10.51-101-9.81"/>
    </g>
    <g class="skinIndian">
        <path d="M1191.88,553.8c-24,25.37-48.61,126.89-56.22,165.71-23.45,25-33.24,26.93-56.45,32s-51,22-75.39-1.16c-25.55-24.32-66.73-26.09-81.85-87.58"/>
        <path d="M837.67,775.34C796,744.42,807,661.83,731.2,658.57c-64.72-2.79-93.11-38-108.19-16.81-12.34,17.29-6.9,28.3,20.71,50.93C623,690.62,603,677,594,706.64c-3.64,19.27,19.32,26.92,38.44,39-16.78-2.42-41.2-7.29-43.27,19.71-1.43,18.63,22.92,23.71,44.86,29.3-18.06-2.37-27.79-3.76-34.34-1.07-15.19,6.21-15.44,27.92-.86,35.58,19.24,10.11,31.94,5.36,70.61,22.67C716.73,873,743,864.94,777.76,872.59,792.38,835,824.94,783.58,837.67,775.34Z"/>
        <path d="M1329.44,443.44c9.28,29.13-16,79.16-62.5,100.3-13.06,4.94-34.76,34.72-51.52,2.39-74.6,111.63-143.59,101.9-226.24,130.16-29.44,7-53.45,4.46-67.89-14.86-46.18-7-40.38-54.14-54.14-79-69.88-126.46,15.93-224.79,13.12-256.66-3.16-35.91,26.5-72.82,37.29-110.79C930.77,40.59,1428.13,242.22,1329.44,443.44Z"/>
        <path d="M592.27,520.62c1.74,22.81,22.37,46.5,33.6,71,14.63,32,41.85,34,36.66,52.51.58,17.89,82.51,47.63,96.56,38.08,9.61-21,24.62-16.15,46-39.23,29.38-31.77,32.31-84.25,56-101,31-20.21,42.14-46.35,47.32-76.68,4.33-25.36-26.51-28.73-32.79-10.28C865.05,486,851.64,498.18,820,509a303.38,303.38,0,0,0,57.72-129c4.22-22.14-31.71-33.49-38.66-12.05-17.32,53.48-33.89,88.13-56.49,112.23,6.2-39.57,21.17-80.36,36.4-127.31,9-27.85-32.61-39.63-42.18-17.31-18.08,42.18-29.38,85.87-40,131.92,2-41.55,8.84-73.37,13.65-115.11,3-26.24-29.38-32.63-38.15-10.31-9.4,23.9-15,55.39-19,103.16-3.15,37.28-12.52,69.52-42.44,77.17-23.65-2.78-14.86-64.81-59.3-64.81C568.14,459.78,590.47,490.54,592.27,520.62Z"/>
    </g>
    <g class="skinFoldLine">
        <path d="M1260.47,469c62.12-63.85,78.53,24.45,6.71,58.45"/>
        <path d="M1262.73,485.36c8,10-28,30.76-19.87,37.42s13.21-15.42,25.52-17.15c25.33-3.56,36.22-36.63,11.69-30"/>
    </g>
    <g class="head51">
        <path class="lipMaleBrown__noStroke" d="M930.1,553.15c5.85,6.74,14.22,9.08,21,9.6,10.82,9.54,53,9.07,63.51,15.64-13.21.64-27,72.49-94.94,37.66-44.34-22.72-16.72-80.16-24.34-91.93C904.42,525.75,917.77,550.27,930.1,553.15Z"/>
        <g class="lipEdgeLine">
            <path d="M930.1,553.15c5.85,6.74,14.22,9.08,21,9.6"/>
            <path d="M976.92,619.14c-31.43,18.52-86.66-7.73-83.12-47.11"/>
        </g>
        <g class="lipCornerLine">
            <path d="M1026,577.55c-6.92,1.82-15.59-.46-23.14-.08"/>
            <path d="M907.17,538.72c-5.38-8.42-11.48-13.57-13.88-24.8"/>
        </g>
        <path class="teeth" d="M1002.83,577.47c-28,36.95-100.71,22.33-95.66-38.75,10.6,9.92,19.86,23.48,30.59,30.46,9.86,3.12,22.19,3,30.12,4.65C978.66,576.08,988,578.38,1002.83,577.47Z"/>
        <path class="teethBorderLine" d="M907.3,551.68c15.9,31.88,65.1,45,90.47,31.47"/>
        <g class="cheekLine">
            <path d="M912.65,483.12a23.27,23.27,0,0,0-9.17,3"/>
            <path d="M1007.48,514.89c9.17,3.51,11,13.05,17.49,24.92,7.3,13.28,16.2,25.52,17.51,42.19"/>
        </g>
        <path class="noseLine" d="M1007.48,514.89c5.59,7.8,2.72,33.88-36.59,28.58-8.1-1.1-44.35,13.11-55-23.91-2.63-9.18-12-14.6-5.73-31.12,5.6-14.72,19.86-20.78,32.14-39.6"/>
        <g class="eyeFoldLine">
            <path d="M1103.18,477.5c-17.42,2.31-46.85-12.13-59.23-24.12"/>
            <path d="M936.59,406.65c-18-1.45-32.55-7.08-41.14-16.73"/>
        </g>
        <g class="eyeLashLine">
            <path d="M1021.67,441.46c42.36-4.88,64.81,27.84,106.74,18.8"/>
            <path d="M885.45,352.94C900.82,393.05,938.83,389,953,403.35"/>
        </g>
        <g class="eyebrowBlack">
            <path d="M1029.25,412.22c-10.73-.35-3.63,11.7,11.59,17.88,26,10.57,65.64-10.35,106.23,9.12,16.15,7.75-.5-26.42-20.39-32.86C1096.21,396.49,1079,413.87,1029.25,412.22Z"/>
            <path d="M958,376.15c-30.54-38-30-61.62-47.54-74.6-6.79-5-16.73-6.19-26.38-5.89-2.94,3.16-6.73,19.51-4.07,23.54,36,10.83,43.59,51.37,59.77,59.27C952.15,384.5,964.39,384.06,958,376.15Z"/>
        </g>
        <path class="hairBlack" d="M1267.91,443.22c-29.58.71-44,74-60.47,106-9.21,17.86-23.67,21.09-40.71,20.54,33.17-52.8,64.37-129.9,59.83-146.55-14.91-54.71-37.09-42.74-4.18-128.9-45.85-39.59-110.51-59.42-175.46-45.58-37.49-103.55-157.06,23.71-61.74,82.41-66.9-23.47-53.5-117.49,13.89-139.48-14.38-15.85-36.63-23.79-54.33-21.57-10.15,9-21.47,27.89-27.18,44.83-4.43-17.54,5.13-38,19-53.53-19.43-58.85,13.82-127.71,71-145.87,33.62-10.67,71.77-21.4,109.81-9,28.65,9.35,74.68,3.39,113.41,25,34.66,19.32,86.07,33.53,106,67.74,27.32,47,95.55,91,43,171.72,24.53,17.74,2.46,117.8-50.29,172.42C1320.31,421.82,1292.33,416.41,1267.91,443.22Z"/>
        <g class="hairOverlapLine">
            <path d="M1230.22,283.85c64.26-27.38,120.64-26,149.51-12.83"/>
            <path d="M999.07,191.69c6.38-2,14.58-1.54,19.81,1"/>
        </g>
    </g>
</svg>
