<svg viewBox="0 0 1857.6 3733.55">
  <g class="tetherballPole">
    <path class="poleLight" d="M286.58,3552.62c0,44.93,179.31,81.35,400.49,81.35s400.49-36.42,400.49-81.35-218.1-70.35-400.49-70.35C513.61,3482.27,286.58,3507.69,286.58,3552.62Z"/>
    <g class="pole">
      <path d="M687.07,3634c-221.18,0-400.49-36.42-400.49-81.35v63.94c0,44.92,179.31,81.35,400.49,81.35s400.49-36.43,400.49-81.35v-63.94C1087.56,3597.55,908.26,3634,687.07,3634Z"/>
      <path d="M721.71,4.91c-7.84-4.7-60.7-5.7-69.28,0V3558.12c7.28,7.22,61.83,7.68,69.28,0Z"/>
    </g>
  </g>
  <g class="soleWhite">
    <path d="M1596.15,3568.31c-34.2,3.16-73.92,37-62.07,75.32,23,43.93,126.93,19.52,170.86,32.08,75.32,22.31,150.31-15.74,151.31-44a235,235,0,0,0,.06-24.45Z"/>
    <path d="M978.26,3632.77c-50.7,11.24-78.11,39.45-60.67,75.71,27.2,34.18,117.26,16.61,187.6,23.35,55.88,5.36,136.82-20.57,138-35.93a284.83,284.83,0,0,0,.9-28.75Z"/>
    <path d="M840.67,3228a101.18,101.18,0,0,1,7.41,43.08c-3.55,24.45-43.6,66.13-62.57,118.24-25.85,62.63-117.57,56.8-152.08,27.8-11.77-11.9-3.26-59.46,15.15-73.81Z"/>
    <path d="M592.19,3356.05c-18.82-65-160.9-57.82-170,12.61C422.16,3462.72,610.57,3447,592.19,3356.05Z"/>
  </g>
  <g class="brad">
    <g class="sockWhite">
      <path d="M1688.9,3506.24c-5.29-21-14.05-38.56-16.07-57.42,22.9,10.1,101.05-12.8,112.5-27.62,7.17,18.05,10.78,45.81,18,71.79C1811.6,3532.35,1707.86,3554.58,1688.9,3506.24Z"/>
      <path d="M1087.05,3565.52c-1.25-23-6.25-51.93-5.87-80.71,53.41-7.82,86.65.1,116.73-9,2.49,16.09,1.22,49.29,4.21,77.21C1173.13,3601.4,1139.37,3627.27,1087.05,3565.52Z"/>
    </g>
    <g class="bradShoe">
      <path d="M1563.11,3637.22c39.91,13.65,87.38,4.63,146.28,13.06,67.25,9.63,118.4-14,146.92-43.05-2.44-46.25-20.19-79.54-53-114.24-8.37,34.17-95.55,40.45-114.38,13.25-18.12,32.25-47.42,57.88-92.75,62.07C1573.18,3586.67,1560.14,3608.86,1563.11,3637.22Z"/>
      <path d="M941,3692.38c42.6,19.11,96.68,8.16,144.74,10.89,74.52,4.23,113-1.83,158.36-36.12-1-46.61-14.62-84.68-42-114.18-14.64,11.85-87.87,20.92-115.07,12.55l-1.39-16c-30.59,37.82-65.6,74-107.4,83.29C954.15,3644.86,937.7,3667.32,941,3692.38Z"/>
    </g>
    <path class="bradShorts" d="M1579.05,2514.65c31,27.8-2.21,60.41,12.79,91.68,12.44,26,13,50.33-8.17,69.9-7.74,7.14,26.92,23.73,3.69,52.63,19.91,78.48,32.13,241.73,58.17,316.71-9.23,24-175.44,88.64-235.45,66.48-19.39-96-48.34-186.28-61.87-269.61-23.64,69.71-48,174.51-72,263.15-24,27.7-217.91,8.31-252.07-48.94,44.32-196.67,86.34-393.21,125.57-536.46Z"/>
    <path class="bradShirt" d="M1572,2491.71c5.78-17.66,1.43-31.71-11.83-42.6,28.12-21.26,3.4-40,10.65-60.36,18-50.68-12.64-64.93-12.31-97.54.92-91-15.44-94.49-17.46-147.95-3.68-97.41-18.38-175.52-46.87-270.17-18-59.75-41.84-71.67-79.94-97.35-22.8,37.1-129.29,41.49-198.08,10.65-41.27,34.32-93.07,34.55-107.93,101.41-17.15,77.2-5.17,179.77-11.65,272.36-.52,7.51,9.53,12.35,18.24,14.85l39.36,153c5.51,48.7-27.57,66.16,0,96.48-9.33,24.67-15.24,46.53-8.21,57.79-7.73,19.08-11.09,37.34-8.28,54.44,40.23,30.77,131.36,33.13,230.77,32,96.68-1.15,166.48,1.13,223.66-42.6C1578.62,2514.6,1587.77,2496.76,1572,2491.71Z"/>
    <g class="quiksilverLogo">
      <g class="quiksilverMountain">
        <path d="M1517.26,2074.88a372.61,372.61,0,0,1-97.31,24.33c-11.56,1.45-18.67-7.22-25.09-15.63q32.66-43.8,63.39-89.13C1477.1,2022,1496.61,2048.88,1517.26,2074.88Z"/>
        <path d="M1439.28,1965.81c-25.75-31.86-55.51-10.84-74.61,18.53-7.16,11-20.06,23.71-33.37,23.11L1327,2139.33c72.88,4.55,143.1-6.47,209.29-41.52-4.1-4.76-6.19-7.23-10.43-12.35,4.24,5.12,6.33,7.59,10.43,12.35-4.1-4.76-6.19-7.23-10.43-12.35-35.85,16.41-72.26,26.16-110.83,31-31.74,3.22-41.62-49.06-40.09-73,1.67-26.15,12.92-71.48,44.72-70,12.15.58,24.24,5.77,33.88,14C1448,1979.12,1445.1,1974.79,1439.28,1965.81Z"/>
      </g>
      <path class="clothWhiteMedium" d="M1457.65,2013.17q10,14.53,20.38,28.78c-5,1.06-7.54,1.54-12.71,2.41-4.51,8.53-9.28,18.35-8.73,1.36.52-16-3.89-9.21-9.23,1.17-5.27.59-7.95.84-13.39,1.24Q1445.93,2030.73,1457.65,2013.17Z"/>
    </g>
    <circle class="tetherball" cx="829.4" cy="2190.1" r="203.68"/>
    <path class="hairSandy" d="M1166.78,1328.91c-6.7-44.44,13.7-66.22,45.68-96.1,48.31-45.12,45.08-62.77,33.79-88.32,55.58-11.89,140.09,86.66,131.88,16.33,52.89,9,101.84,102.33,111,51.21,26.68,19.83,46,68.45,49.75,104.83,1.71,15,60.38,54.57,28,211.85-16.29,79.09-93.1,162.45-131,140.12C1330.53,1533.85,1307.87,1507.52,1166.78,1328.91Z"/>
    <path class="hairEdgeLine" d="M1243,1243.53c-5.44,22-26.63,37.6-13,86.66"/>
  </g>
  <g class="bennett">
    <g class="bennettShoe">
      <path d="M795.31,3088.51c3.26,57.26,30.59,66,45.36,139.5,5.64,25.2-46.48,79.52-70.32,140.65-21.29-35.33-107.79-39.51-121.77-25.34,18.17-33.38,23.89-65.81,29.67-105.57,6.22-42.78,8.49-85.94,1.88-130.47Z"/>
      <path d="M536.88,3099c-1.61,72,47,86.54,44.67,159.38-1.46,44.82,10.64,61.85,10.64,97.71-18.26-37.24-155-25-170,12.61-7-31.89,10.47-78,7.62-121.24-1.69-25.63,16.3-83.2,10.47-143.26Z"/>
    </g>
    <g class="shoelace">
      <path d="M535,3295.6c-16.7-4.95-62-2.48-78.44,6.73-.89-34.33-6.19-65.45-4.64-96.27,14.72,3.21,63.2-.68,79.78-5.54C531.38,3228.59,536.38,3260.57,535,3295.6Z"/>
      <path d="M681.92,3207.37q-1.44,15.24-3.67,30.38c-3,20.47-5.94,39-10.59,56.72,17.23-3.56,50.16-2.51,68,3.25,10.83-28.32,15.7-58.76,15.68-90.93C731.93,3201.69,699.45,3204.45,681.92,3207.37Z"/>
    </g>
    <path class="converseLogo" d="M574.72,3248.86c5-9.81-13.78-65.37-18.16-55.29C549,3211,570.23,3257.75,574.72,3248.86Z"/>
    <path class="bennettJeans" d="M815.4,2181.27c37.84,149.17-2.69,308.42-32.43,465.57-5.75,30.42,13.95,62-11.89,77.83,17.06,17.62,3.3,42.3,6.49,62.7,7.59,48.57,11.43,116.51,18.38,189.17,3.63,38.05,38.08,68.54,10.81,93,35.67,17.3,8.64,40,1.44,71.18-13.5,15.41-40.09,9.05-59.84,17.7-2.74-32.43-66.31-26.81-64.24,6.25-4.42-30.9-38.39-46.47-20-76.12-37.56-3.85-18.16-69.86-33.51-131.43-13.71-55-17.28-111.38-34.59-157.82-13.54-36.32,5.41-49.44,0-60.53-20.1-12.23-9.9-51.58-18.38-100.53-18.49,57.69-.64,96-16.22,105.93,14.5,27.56-12,36.35-7.56,58.37,8.88,44.51,1.27,114.89,5.4,191.34,1.79,33,37.56,76.22,3.25,105.93,27.92,22.72,2.83,40.88-12.79,59.37-9-5.52-13.78,1.83-22.79-5.11-4.4-35-77.91-30.68-78.13,7.38-15.35-19.46-49.08-32-26.82-74.61-26.59-20.53-11.78-57.71-13-84.32-3-66.77-24.77-158.64-17.3-201.06-.91-21-12.58-42.12,11.89-51.88-42-16.48-22.78-47.84-25.94-80-18.87-191.67-26.68-377.27,7.57-513.13Z"/>
    <path class="shirtWhite" d="M853.87,1833.28c1,55.88-11.29,104.08-15.52,145.91-2.82,27.86,7.2,43.14-8.28,61.06,6.59,22.26,8.29,43-2.07,60,6.11,21.74,6.28,40.31-3.1,53.82,3.35,9.61-8.28,21.73-2.07,35.18-85.89,6.21-158.33,67.26-251.47,64.16-141.72-4.73-145.9-64.16-193.51-82.79,6.21-19.66-3.34-32.54,9.32-38.29-6.21-14.58-6.13-26.39,3.1-34.14-23.8-38.29,18.63-43.47,12.6-103.64C342.67,1358.3,841.45,1450.4,853.87,1833.28Z"/>
    <path class="bennettSleeves" d="M553.11,1553.77c33.71,30.46,120.41,41.2,172.53,23.36q16.41,58.5,47.46,105.47c-20.56,65.05-49.71,153.28-63.28,171-14.69,11.57-24.06,25.26-23.36,42.94,1.18,11.27-17.55.7-26.75,33.69-2.94,10.52-22.25,25.32-25.08,37.81-5.35,23.58,89.61,96.21,107.58,80,61-54.92,56.67-75.3,67.28-86.56,23.09-24.5,23.61-75.78,42.8-107.23,13.77-22.59,15.44-42.75,12.81-73.63,40.89-3.1,38.7-60.27,45.5-93.63,7.83-38.49,26.83-85.15-4.93-122.63-36.52-43.08-97.12-50.77-153.56-83l-173-5.37C530,1502.9,461.76,1502.9,435.07,1545c-22.29,35.19-33.1,78-32.2,120.54-7,23.14-4.16,62.92-5.56,102.81-.87,24.9-8.45,48.93-5.58,71.81-15.2.56-21.19,16.74-32.78,29.47-9.29,10.2-20.95,16.22-32.86,29.15-16.51,17.91,53.58,136,76.78,95.77l2.48-82.56c7.36-86.29,24.95-172,42.93-258,9.79-21.43,27.88-32.66,44.17-48.28C511.05,1587.88,528.51,1570.42,553.11,1553.77Z"/>
    <g class="rope">
      <path d="M405.35,1912C415,2087.68,494.06,2279.32,565,2339.92a31.29,31.29,0,0,0,8,15.3,13.53,13.53,0,0,0-2.31,5.73C467.4,2304.85,372.1,1973.47,405.35,1912Z"/>
      <path d="M576.46,1429.05c21.57,91,192.26,271.66,295,350.62,2.54,3.55-1.26,11.91-5.58,12.25C728.1,1688.15,539.42,1461.48,576.46,1429.05Z"/>
      <polygon points="652.43 366.04 578.19 1463.62 589.82 1464.61 652.43 528.29 652.43 366.04"/>
    </g>
  </g>
  <g class="eye">
    <g class="sclera">
      <circle cx="1214.35" cy="1500.43" r="104.28"/>
      <circle cx="608.26" cy="1273.59" r="105.27"/>
    </g>
    <g class="irisBlue">
      <ellipse cx="1244.08" cy="1513.92" rx="20.4" ry="15.8" transform="translate(-532.82 2339.94) rotate(-75.52)"/>
      <ellipse cx="1127.72" cy="1482.23" rx="20.4" ry="12.07" transform="translate(-589.4 2203.51) rotate(-75.52)"/>
    </g>
    <g class="irisDarkBrown">
      <ellipse cx="661.75" cy="1280.49" rx="20.4" ry="17.61" transform="translate(-777.84 1352.2) rotate(-65.52)"/>
      <ellipse cx="548.39" cy="1231.88" rx="20.4" ry="15.41" transform="translate(-799.99 1220.56) rotate(-65.52)"/>
    </g>
    <g class="pupil">
      <ellipse cx="1241.19" cy="1513.17" rx="7.93" ry="6.14" transform="translate(-534.27 2336.58) rotate(-75.52)"/>
      <ellipse cx="1124.68" cy="1481.44" rx="7.93" ry="4.69" transform="translate(-590.92 2199.98) rotate(-75.52)"/>
      <ellipse cx="659.69" cy="1279.55" rx="7.93" ry="6.85" transform="translate(-778.19 1349.77) rotate(-65.52)"/>
      <ellipse cx="545.7" cy="1230.65" rx="7.93" ry="5.99" transform="translate(-800.45 1217.38) rotate(-65.52)"/>
    </g>
  </g>
  <g class="skinNordic">
    <path d="M1641.53,3051c-18.63,18.36-93.18,49.57-156.56,61.13,41.49,108.65,140.6,221.63,196,338.73,26.09,3.29,80.2-12.16,99.11-25C1724.17,3315,1743.9,3124.3,1641.53,3051Z"/>
    <path d="M1209,3118c-63.13-1.46-150.6-20.41-179.93-54.55-5.91,123.5,33.93,268.41,56,420.86,46.21-6.23,77.09-.87,104.25-6.35C1173.17,3368.78,1245.07,3229.57,1209,3118Z"/>
    <path d="M1455.32,1604.8c-30.84,36.45-55.72,139.3-41.12,170.94-22.8,37.1-129.29,41.49-198.08,10.65,12.21-38,11.84-105.78-17.22-145.67"/>
    <path d="M1131.63,2179.42q-9.29-2.09-16.85-4.41c-27.52,5.51-54,17.65-82,25.55a203.22,203.22,0,0,1-11,56.39C1079.46,2249.94,1153.33,2220.91,1131.63,2179.42Z"/>
    <path d="M1131.63,2179.42c-.91,4.77-1.56,10.59-2,15.36-58.7,10.54-112.24,44.58-179.22,33.29-22.51-60.78-38.32-47.1-84.09-117.64-11.26-24-44.27,6-12.76,42.77,6.21,10.4,10.27,21.18,5.3,32.1-5.44,8.39-27.23,7.68-40.29,9.5,10.56,47.52,13.45,95.25,11.55,143.3,68.79,1,76-24.48,109.1-24.4,106.87,9.78,245.87,54.86,307.82-4.52,18.07-17.31,15.06-80.53,19.57-131A408.06,408.06,0,0,1,1131.63,2179.42Z"/>
    <path d="M1335.59,1718.1c-52.55,29.22-102.52,26.57-131,31.64-37.85,6.73-100-4.6-100.36-40.92-.35-33.36-48.89-112.31-1.46-205.63,5.3-10.44-4.71-12.6,8.64-23.14-10.11-13,6.66-24.56,6-35.16-1.41-23.21,34.73-89.56,49.35-116,15.1-9.55,45.71,1.45,66.56,17.13,50.74-8.34,113.35,3.58,161.07,40.2-49.12,101.73,37.12,103.56,5,167,12.45,7.45,21.26,11.81,38.68,16.52,26.62-29.77,77.57-8.2,60.35,41.71-7.85,22.75-25.75,38.3-45.4,47.25-18.36,8.37-28.7,26.36-51.88,1.69m-173.29-146.6c8.32,1.93,16.54,7.88,24.88,10,13.29,3.37,25.36,3.63,34.06-3.58-7.83-5.3-21.53-15.74-36.07-18.15-9.08-1.5-20,1.78-26.87,7.1C1219.42,1512.67,1225.61,1513.32,1227.9,1513.85ZM1156,1487c-12.33-9.7-15.5-13.35-24.9-15.71a19.4,19.4,0,0,0-15.25,2,35.44,35.44,0,0,0-1.84,9.5c11.14,10.39,22.48,2.88,38,7.85C1154.23,1491.25,1161,1490.88,1156,1487Z"/>
  </g>
  <g class="skinEastAsian">
    <path d="M218.25,2027.12c47.72-4.31,123-9.58,175.94-28.42,18.92-25.36-6.45-116.68-59.86-100.81-44.8,25.45-84.46,52.33-124.23,50.91-22.31-.19-25.62-49.22-64-75.06-35.21-23.67-51.54-60.82-67.45-84-19.34-12.72-28.62,14.44-21.33,35-10.6-8.61-19.34-11-31.27-22.92-11.93-6.63-26.77,12.46-18.16,27-13.91,9.94-6.23,34.32,19.61,45.58-12.58,13.26,2.65,29.82,24.52,31.14,18.57,13.86,29.15,71.56,69.56,104.69C153.34,2064.55,192.43,2027.32,218.25,2027.12Z"/>
    <path d="M477.9,2164.67c78.41-76.37,113-134.41,158.85-194.49,25.46-17.31,106.92,40.73,103.86,75.35-38.69,43.79-121.17,93.68-190.41,160.89-11.75,14.87,17.67,64.42-15.36,134.1,6.71,7.74,10.32,15.48,10.16,31.18-.12,11-3.45,20.43-20,19.92-1,9.29-6.19,20.13-23.65,21.67-.75,4.37-7.95,7.93-16.6,10.33-21.16,20.64-41.45,1.86-54.14-5.68-24.31-14.45-24.31-30.45-21.7-72.26C409.45,2273.42,447.62,2187.23,477.9,2164.67Z"/>
    <path d="M576.46,1429.05c7.83,33.08,35.37,78,72.16,125.54,60.62,4.67,127.75-12.7,109.3-53.82-5.87-39.57,8.18-97.61,31.86-124.45Z"/>
    <path d="M577.19,1464.62c-1.34,7-6,13.76-9.68,20.88-22.61,35.83,16.21,58.25,63.24,66.38C605.23,1517.81,586.06,1487.21,577.19,1464.62Z"/>
    <path d="M525.91,1192.62c10.64-75.39,66-66.58,84.13-147.62,190.63-70.43,379.8,247.3,254.73,343-28.86,24-37.3,17.63-51.75,28.8-11.44,8.84-29.83,6.33-32.2-6.46-47.75,56.56-128.27,77.31-177.36,71.63-40.17-4.65-50.61-1.21-84.71-22.2-25.4-15.63-17.55-30.47-33.35-69.06C452.47,1310.21,522.85,1214.28,525.91,1192.62Zm122,81.72c15.15,16.86,31.67,16.26,54.86,20.08-10.86-9.82-20-19.65-30-25.2-12.67-7.07-19.15-3.2-27.57-.92C638.15,1270.24,646.36,1272.57,648,1274.34Zm-65.25-31.28c-4.28-10.18-4.27-17-20.83-23.18-7.53-2.81-17.7-3.34-22.91-3.37a14.7,14.7,0,0,0-2.85,5.91c13.14,22.22,34.43,17.95,41.51,22.62C581.09,1247.33,583.94,1246,582.7,1243.06Z"/>
  </g>
  <g class="clothesDisplayLine">
    <path d="M685.92,2230.12c28.34,22.94,68.19,26.31,112.24,20.88"/>
    <path d="M770.35,3368.66c-18.6,48.18-116.26,50.67-140.32,9.84"/>
    <path d="M592.19,3356.05c-17.92,48.85-140.28,67.67-170,12.61"/>
  </g>
  <g class="clothesOverlapLine">
    <path d="M1239.37,1927.05c30.7,33.22,43.61,187.27,43.61,239.73,0,5.93-11.86,11.26-16.32,11.44"/>
    <path d="M1348.21,2842.44c6.91-25.8,17-47.66,22-69.91,3.84-17,26.19-31.76,34.61-48.86"/>
    <path d="M573,2374.17c-4.86,67.3-1.45,184,4.64,264"/>
    <path d="M750.73,3225.71c-25.69-2.09-49.67-2-71,1.45"/>
    <path d="M748.65,3246.42c-25.29-2.67-49.33-3-71.68,0"/>
    <path d="M745.29,3265.25c-24.84-3.07-48.69-3.64-71.22-.85"/>
    <path d="M741.08,3281.59c-25.24-4.91-48.83-6.71-69.65-3.31"/>
    <path d="M532.08,3218.65c-25.94,3.57-52.79,5.87-80.45,7.06"/>
    <line x1="533.24" y1="3237.95" x2="452.75" y2="3245.22"/>
    <path d="M534.4,3256.17a689.08,689.08,0,0,0-80.24,7.25"/>
    <path d="M535.15,3275.22c-28-2-54.66-.24-79.6,6.37"/>
    <path d="M748.36,3158.38c-3.07,18.9,6.2,28.18,2.94,48.41"/>
    <path d="M526.88,3154c-3,8,4.3,26.79,4.81,46.49"/>
    <path d="M448.75,3161.41c-1.54,15.17,3.51,24.19,3.16,44.65"/>
  </g>
  <g class="clothesFoldLine">
    <path d="M1124.37,1932.43c-4.61,53.41,7.77,199.63,38.1,206.22"/>
    <path d="M1241.09,1914.62c22.42,21.11,21.76,52.1,27,54.74,4.75,2.37,5.93-47.48-12.53-67.93"/>
    <path d="M1285.93,1912.64c2.25,27.35-1.27,56-11.87,86.39"/>
    <path d="M1333.33,1917.26c-3.71,62.51-8.25,124.09-29,167.5"/>
    <path d="M1364.41,1995.73c-2.64,106.83-12.76,204.17-6.6,281.58"/>
    <path d="M1481.79,2031.34c8.79,60.53,20.46,116.87,36.92,166.18"/>
    <path d="M1554.32,2338c-20.44,50.78-151,58.69-213.65,15.83"/>
    <path d="M1175.81,2389.42c16.9,21.14,35.13,37.76,55.39,47.48"/>
    <path d="M1154.14,2424.45c53.32,47.39,137.95,62.54,133.77,69.82s-29.67,2.63-48.8-5.28"/>
    <path d="M1145.93,2482.24c20.24,45.92,83.53,60.65,157.81,67.42"/>
    <path d="M1549.71,2423.05c-20,10.73-40.54,17.15-62,16.48"/>
    <path d="M1560.13,2449.11c-54,30-160-1.78-158.14,13.5,1.43,11.9,31,15.83,61.33,11.87"/>
    <path d="M1551.69,2461.29c-70.56,48.14-191.9,50.12-277.63-9.23"/>
    <path d="M1572,2491.71c-59.18,37.51-245.8,54.65-318.34,21"/>
    <path d="M1257.9,2824.21c-50.46,89.74-110.9,159.3-190.13,190.85"/>
    <path d="M1420,2947.62c42.14,49.12,85.94,88,133.45,104"/>
    <path d="M1368.39,2748.16c-66-1.43-132.73-33.72-100.45-43"/>
    <path d="M1349,2775.43c-20.94,14.82-40,33.39-57.39,55.24"/>
    <path d="M1587.36,2728.86c-13.07,12.13-40.42,23.18-66.87,32.94"/>
    <path d="M1392.79,2740.37c57.31,12.61,115.58-16.6,116.93-8s-30.06,20.23-58.46,23.68"/>
    <path d="M1384.79,2772c27,11.31,82.83,9.49,109.47-1.46"/>
    <path d="M1558.84,2775.6c-47.07,32.84-135,20.42-135.37,31-.43,12.4,37.22,14.23,72.25,12"/>
    <path d="M597,2339.92c20.26,13.06,44.68,19.35,71.43,21.86"/>
    <path d="M573,2355.22C591.9,2372,653.4,2413,699,2432.48"/>
    <path d="M648.75,2466c-32.07-48.1-91.1-88.91-75.8-110.78-19.35-20.63-.77-50.92-5.14-101.93"/>
    <path d="M557.65,2377.09c-7,20.4-29.16,40.08-44.46,66.32"/>
    <path d="M602.11,2297.65c-21,1.37-40.05,1.2-56.12-1.46"/>
    <path d="M748.6,2671.11c-17.49,40.09-91.1,50.29-129.73,17.49"/>
    <path d="M543.07,2693.71c-19.68,29.88-86,43.72-123.9,9.47"/>
    <path d="M771.08,2724.67c-15,5.39-25,12.44-13.73,26.61"/>
    <path d="M742.77,2786.27c-20.41-43-48.83-28.43-36.44,32.06"/>
    <path d="M596,2738.73c12.2,6.05,16.92,14.23,12.7,24.94"/>
    <path d="M626.89,2776.79c-11,6.74-17.19,17.92-15.31,36.44"/>
    <path d="M561.37,2744.13c-15.38,10.8-60.57,18.08-16.11,23.19"/>
    <path d="M403.55,2749.54c20.72,7.57,52.13,7.52,23.64,19.23"/>
    <path d="M515.38,2787.72c-22.26,2.64-58.06,6.08-38.63,28.43,43.73,50.29-32.07,27,2.91,64.86"/>
    <path d="M433,2793.55c83.08,72.89-10.93,33.53,21.86,79.45"/>
    <path d="M548.17,3034.07c-14.57,47.37-72.15,58.3-113,18.95"/>
    <path d="M806.76,3069.5c-26.09,25.06-95.33,22.14-56.7,46.2"/>
    <path d="M664.07,3088.51c21.85,9,50.55,5.55,26.95,28.64"/>
    <path d="M562.46,3099.77c-17.93,12.28-55.29,13.08-15.75,30.5"/>
    <path d="M421.93,3086.8c16.19,11.4,50.78,16.91,26.39,31.08"/>
    <path d="M696.85,2971.39c11.66,34.25-13.45,49.8-7.28,65.59,7.44,19.07-.05,27.57-22.6,12.39"/>
    <path d="M693.94,2900.69c10.2,52.48,40.81,67.78,20.41,121-15.77,41.1,68.5,55.39,66.32-6.56"/>
    <path d="M402.87,1665.55c3.36,11,7.8,19.73,13.62,25.56"/>
    <path d="M418.22,1656.11c6.07,17.32,13,31.46,21.4,39.63"/>
    <path d="M391.73,1840.17c8,.16,15.17,2,21,6.49"/>
    <path d="M376.9,1863.27c14.26,2.21,25.4,7.78,31.39,18.92"/>
    <path d="M421.66,1904c5.35,24.82,14.49,45.24,29.26,59.11"/>
    <path d="M444,1993c-18.47-13.9-30.36-43.24-38.69-81"/>
    <path d="M426.25,2003.29q42,36.9,94.68,49.92"/>
    <path d="M421.66,2025.67c38.36,31,82.68,49.18,132.66,55.06"/>
    <path d="M390.27,2098.2c10.16,15.08,23.42,26.46,38.27,35.93"/>
    <path d="M387.17,2132.34c10.22,18.47,26.19,31.45,46,40.81"/>
    <path d="M552.5,2211.6c39.32,12.2,85.52,1,134.28-18.94"/>
    <path d="M824.9,2154.08c-11.5,10.57-36.21,19-69.26,26"/>
    <path d="M828,2100.26c-22.12,29.4-81,31.57-130.32,39.6"/>
    <path d="M830.07,2040.25c-25.08,25.59-80.17,55.43-20.49,45.67"/>
    <path d="M493.39,1913.19c38.35,14.1,82.3,19.39,130.26,18.37"/>
    <path d="M531.26,1902.29c39.17,12.51,85.89,14.37,137.22,9.71"/>
    <path d="M633.41,1778.91c-19.51-5.73-41.32,3.45-121.66-22.38"/>
    <path d="M556.51,1785.23c35.5,10.84,74.77,14.17,115.92,13.77"/>
    <path d="M709.73,1684.23c22.15,3.93,40.72,12.08,54.66,25.67"/>
    <path d="M849.75,1574.62c-40.38,22.46-64.27,60.83-76.65,108q19.46-36.61,47.38-51.17"/>
    <path d="M767.69,1613.65c35.58-58,.57,15.49,5.41,68.95"/>
    <path d="M880.74,1658.41c-29.41,19.39-74,23.52-106.85,32.7"/>
    <path d="M834.83,1697.43a170.9,170.9,0,0,0-51,3.72"/>
    <path d="M854.91,1742.76q-11.71,7.08-20.08,6.48"/>
    <path d="M877.87,1739.89c-9.26,10.43-19,18.5-30.24,20.45"/>
    <path d="M844,1822.53c6.94-9.24,6.47-25.9,3.62-44.92"/>
    <path d="M821.06,1851.79c-35,23-84.36,1.72-110.18,9.18"/>
    <path d="M747.6,1911.47c76.9,48.21,16.07-40.74-42.46-23.52"/>
    <path d="M738.42,1954.51c-17.79-15.49-43.84-25.83-68.86-25.82"/>
    <path d="M802.69,2031.41c-14.49,12.1-28.86,21.33-43,26.39"/>
    <path d="M441.69,1574.33c-8,30.43-5.43,56.86,6.59,79.66,5.12-28,24.45-41.81,22.68-60"/>
    <path d="M478.94,1648.82c-11.71,3.32-21.94,8.17-28.73,16.5"/>
    <path d="M498.1,1624.34c-19.16,4.26-37.64,15.41-49.82,29.65"/>
  </g>
  <g class="skinOverlapLine">
    <path d="M534.84,2340.52c-1.55,15-3.1,25.29,4.65,26.32"/>
    <path d="M489.94,2347.75c13.93,25.29,2.06,39.74,35.09,43.87"/>
    <path d="M457.34,2346.23c9.09,14,7.44,32.45,13.47,47.91,2.76,7.07,16.55,13.48,30.57,19.15"/>
    <path d="M428,2344.65c6.2,25,.58,41.76,8.78,55.74,8.77,15,33,21.16,48,23.23"/>
    <path d="M160,1967.16c-31.19-48.64-44.73-41-67.07-59.63-20.87-17.57-33.32,32.22,8.11,45,19.35,27.45,12.4,43.19,20.53,57.65"/>
    <path d="M57.27,1824.71c3.77,12.52,10.72,19.11,18,22.77,14.28,31.86,35.83,48.1,36.55,72.25"/>
    <path d="M7.84,1828.82c7.06,14.63,19.51,23.79,35.25,25.62,39.55,22,28.93,21.24,43.58,49.38"/>
    <path d="M27.45,1874.4c27.83,5.83,33.11,21.32,49.86,33"/>
  </g>
  <g class="skinFoldLine">
    <path d="M1444.3,1582.67c39.85-40.34,70.48,25.19,15.24,55.11"/>
    <path d="M1439.36,1600.29c12.18,18.67-20.65,26.31-13.07,35.18,7.76,9.08,10.34-10.87,22.06-11.14,25.39-.59,20.93-36.31,3.92-27.95"/>
    <path d="M837,1340.19c39.17-38,53.2,23.83,10.36,48.45"/>
    <path d="M829,1354.16c18.68,10.36-28.54,26.29-19.2,36.16,8,8.48,7.33-8.38,23.19-9.75,29.37-2.54,24.81-39.76,11.22-32.38"/>
  </g>
  <path class="lipMaleLight__noStroke" d="M1129.82,1615.39c7.35,5.31,16.61,7.42,26.89,7.79,18,4.06,45.38,20.54,61.49,20.54-18.12,11.57-25,57.72-73.34,44.13-46.49-13.09-7.52-54.57-7.52-54.57C1120.92,1622.51,1112.18,1610.21,1129.82,1615.39Z"/>
  <g class="eyebrowSandy">
    <path d="M1320.38,1497.88c-23.22-27.13-80.38-37.84-102.7-31.66C1222.65,1492,1254.35,1453.72,1320.38,1497.88Z"/>
    <path d="M1163.59,1449.79c-6.65-7.18-22.32-14.39-45-15.45-.31,1.46-.57,2.86-.76,4.19C1147.66,1444.65,1158.94,1463.42,1163.59,1449.79Z"/>
  </g>
  <path class="lipMaleMedium__noStroke" d="M544.69,1358.71c5,6.44,16.55,13.06,31.41,11.44,9.52,9.26,32,12.83,42.75,28.08-16.17,3.73-24.81,37.55-70.15,21.62-48.16-16.91-6-47.43-23.56-65.73C532.18,1359.44,539.23,1358,544.69,1358.71Z"/>
  <g class="eyebrowBlack">
    <path d="M739.08,1280.69c-12.38-47-42.85-33.4-83.09-58.16C663.7,1254.22,717.42,1244.4,739.08,1280.69Z"/>
    <path d="M530.54,1172.15c-.83,2.56-1.6,5.24-2.28,8.06,40.72-2.07,49.35,17.33,74.23,6.17C581.4,1183.42,560.77,1164.78,530.54,1172.15Z"/>
  </g>
  <path class="hairBlack" d="M710.49,1207.11c6.86,10.33,11.35,25.2,12.23,36.42-27.1-32.26-112.46-20.61-100.74-102.1-4.42,9.7-11.59,28.57-9.29,37.56-19.13-27.46-6.1-73.38,9.3-102.77-29,54.34-71.36,66.73-101.83,68.48,27.44-23.11,13.55-76.68,68.17-114.3-10.86,2.06-34.56-2.34-42.94-8.61,46.21-2,84.86-45,170.23-50.39,1.56-9.67-15.4-26.35-36.07-27.46,28.62-12.71,54.44,9,55.87,25,10.08-20.32,36-38,64.5-39.55-19.83,8-40.72,30.16-43.77,43.79,87.78,15.25,155.29,67,191.12,151.56,42.59,100.45-45.23,240.62-82.5,263.21,43.09-39.71,12-98.38-36.78-62.41-9.24-.3-26-5.75-35.06-10.67,13-23.55,8.59-29.9-2-59.16C761.16,1240.32,742.71,1262.34,710.49,1207.11Z"/>
  <path class="hairOverlapLine" d="M806.48,1244.83c11.71,14.77,11.52,19.57,14.54,28.1-5-3.35-21.34-14-30-17.2"/>
  <g class="mouthInner">
    <path d="M1141.38,1662.3a40.46,40.46,0,0,1,4.75-14.33,43.5,43.5,0,0,1-11.87-6.28,12.51,12.51,0,0,1-1.55-2.17,12.75,12.75,0,0,0,1.57,2.19c-1.27,9.07,1.72,16.41,7.65,21C1141.75,1662.61,1141.56,1662.46,1141.38,1662.3Z"/>
    <path d="M537,1388.05c14.12,3,26.11,9.09,38.9,18.45,8,5.83,26.51-2,37.78-12.13-23.38-14.68-52.92-14.93-59.94-18.13s-12.73-11.49-20-14.8C531.24,1370.93,531,1386.78,537,1388.05Z"/>
  </g>
  <path class="tongue" d="M1185.42,1637.49c-9.24.38-21.33,2.44-36.56,6.9-3.46,3.12-6.78,11.69-7.48,17.91,12.48,10.46,39.06,8.26,66.22-16.74C1200.43,1643.56,1193.21,1640.29,1185.42,1637.49Z"/>
  <g class="teeth">
    <path d="M1199.79,1643c-9.66-3.57-19.73-8.28-31.45-10-18.12-2.68-23.95-3.13-37.94-10.33-1.57,8.68,1,15.92,3.86,19C1149.07,1653.11,1179,1656,1199.79,1643Z"/>
    <path d="M607.69,1391c-22.18-11.34-47.51-11.8-53.94-14.73s-11.61-9.94-18-13.72C535.68,1388.63,578.82,1402,607.69,1391Z"/>
    <path d="M565.33,1399.44c3.51,2.1,7,4.45,10.58,7.06,6.45,4.71,19.79.51,30.63-6.64C593.67,1403.27,577.9,1402.67,565.33,1399.44Z"/>
  </g>
  <g class="lipOverlapLine">
    <path d="M1117.67,1606.36c.13,7.34,8.88,14.19,12.73,16.28"/>
    <path d="M1207.6,1645.56a20.42,20.42,0,0,0,14.69-4.44"/>
    <path d="M621.87,1400.8a33.84,33.84,0,0,0-8.18-6.43"/>
    <path d="M524.17,1342.21c-4,10.23,1,14.79,9.56,19.23"/>
  </g>
  <g class="lipEdgeLine">
    <path d="M1129.82,1615.39c7.35,5.31,16.61,7.42,26.89,7.79"/>
    <path d="M1185.28,1681.29c-23.51,18.45-68,8.46-62.18-24.15"/>
    <path d="M576.1,1370.15c-14.86,1.62-26.45-5-31.41-11.44"/>
    <path d="M579.64,1423.92c-26.12,3.45-54.4-13.51-53.82-22.86"/>
  </g>
  <g class="noseLine">
    <path d="M1203.14,1603.52c10.22-5.65,11.3-19.65,5.88-24.44"/>
    <path d="M1157.19,1598.31c9.56,1.28,20.16-9.21,30.6,1.74"/>
    <path d="M1130.6,1579.09c3.27,6.8,6.5,10.32,10.48,13.47"/>
    <path d="M1136.56,1556.84c-10.09,8.87-14.09,20.13-4.85,29.93"/>
    <path d="M601,1356.53c13.42-3.39,15.28-20.73,11.59-27"/>
    <path d="M578.1,1273.5c-6.59,15.88-55.26,30.48-37.31,52.9,17.26,29.9,37.53,10,51.06,24.94"/>
  </g>
  <g class="eyeFoldLine">
    <path d="M1113.23,1501.49c4.79,4.91,20.09,8.72,30.61,7.61"/>
    <path d="M1229.3,1532.19c10.37,11.61,33.54,14.87,41.17,11.87"/>
    <path d="M687.61,1306.4c-18.52,3.44-33.63-9.76-39.44-16.94"/>
    <path d="M567.8,1255.17c-14.56,2.19-29.68-7.07-32.72-14.55"/>
  </g>
  <g class="eyeCornerLine">
    <path d="M1305.76,1527.21c-9.44-.82-14.34-4-18.92-7"/>
    <path d="M1115.84,1473.2a17.15,17.15,0,0,0-4.71,3.16"/>
    <path d="M715.77,1301.79a31.51,31.51,0,0,1-13-7.37"/>
    <path d="M539,1216.51c-2.61.08-5.89,0-7.68-.73"/>
  </g>
  <g class="eyeCreaseLine">
    <path d="M1282.47,1504.58c-12-8.78-37.63-22-53.82-6.81"/>
    <path d="M1153,1473.65c-11-14.37-33.3-20-44.75-5.19"/>
    <path d="M534.74,1208.58c8.1-1.4,35.8-3.38,46.75,16.53"/>
  </g>
</svg>
