<svg viewBox="0 0 171.74 489.27">
  <g class="bottle">
    <path class="bottleSide" d="M162.74,234.14a28.81,28.81,0,0,1,2.08-5.7c.65.24,1.27-1.32.63-1.58a4.92,4.92,0,0,1,1-2.49c.69.27,1.24-1.15.63-1.58a25.28,25.28,0,0,0-7.41-2.93c-.69-.1-1.2,1.35-.63,1.58a5,5,0,0,1-1,2.49c-.63-.25-1.25,1.32-.63,1.58a35.63,35.63,0,0,1-2.39,5.58Z"/>
    <g class="bottleCreaseLine">
      <path d="M166.43,224.37a28.58,28.58,0,0,0-6.32-2.63"/>
      <path d="M164.82,228.44a38.4,38.4,0,0,0-6.34-2.6"/>
    </g>
    <path class="bag" d="M124,284.76c-.67,1.81,3.57,7.05,7.7,8.8,2.45,1,9.47,5.76,18.47,6.35,2.64.17,3-2.59,4.27-2.78,2.32-.34,3.65-1.68,3.69-3.57.19-8.31,2.85-15.57,3.58-24.36,3.74-8.8.15-32.58,5.21-37.26-2-1.13-4.95-1.32-4.3-2.71-2.1-.7-5.43,0-4.54-1.64-1.51-.45-1.83-1.06-4-1.37-1.46,6.25-11.38,17.71-14,23.57-2.44,5.39-5,9.93-5.66,14.18C132.63,275.19,127.59,275.19,124,284.76Z"/>
    <g class="bagOverlapLine">
      <path d="M161.73,269.2A30.38,30.38,0,0,0,158.21,281"/>
      <path d="M162.64,229.23c-3.65,4.83-5.11,12.59-8.88,20.07"/>
      <path d="M158.1,227.59c-4.52,5.19-2.19,10.35-11.94,24.73-1.95,2.87-5.13,6.32-7.14,11.59"/>
      <path d="M166.94,231.94c-7.23,5.81-6.35,28-23.76,49.46"/>
      <path d="M152.93,291.8a8.34,8.34,0,0,1-3.8,5.63"/>
      <path d="M133.39,276.41c.26,5.36-1.21,9.08-6.32,9.69"/>
    </g>
  </g>
  <path class="anaJeans" d="M27.56,225.93c24.2,7.81,71.29,5.53,79.9,3.22-.77,24.39,5.32,21,1.66,25.51,2.66,1.1.42,4,.87,7,4.68,31.44,6.57,68.2,2.83,87.77-1.91,10-36.74,53-64.69,84.89C36.74,375.55,43.49,366,40.8,360.8c-1.46-2.82,2-5.42.15-6.09-2.77-1-.65-4.27-1.16-7.11-3.34-18.43-6.53-40.25-9.58-59.55-3.34-1.59-1.19-3.94-2.18-6.67C23.39,268.61,29.19,250.47,27.56,225.93Z"/>
  <g class="beltTan">
    <path d="M71.77,234.4c-12.75,0-24.94-.8-31.5-3-.44,0-.88,10.26-.44,10.28,4.27,2.16,17.72,3.07,32.19,3A58.53,58.53,0,0,0,71.77,234.4Z"/>
    <path d="M102.05,232.87c-7.52.8-17.08,1.37-26.6,1.5a71.57,71.57,0,0,1,.45,10.29c9.53-.17,19.18-.75,26.69-1.67A46.67,46.67,0,0,0,102.05,232.87Z"/>
    <path d="M108,232.12l-2.66.36a71,71,0,0,1,.67,10.05c1-.15,1.9-.31,2.77-.47S108.94,232,108,232.12Z"/>
  </g>
  <ellipse class="clothingBrass" cx="90.32" cy="239.39" rx="10.06" ry="7.77" transform="translate(-10.17 4.09) rotate(-2.45)"/>
  <g class="soleTan">
    <path d="M31.1,449.08l-3.49,3.62c-3.17-1.51-10.89-7-10-8.62,1.48-2.78,2.39-7.84,4.69-11Z"/>
    <path d="M62.94,482.77l-1.75,4.75c-3.66.49-13,.58-12.83-1.21.26-2.95-1.15-6.9-.77-10.24Z"/>
  </g>
  <g class="anaBoot">
    <path d="M41.89,407.67c-5.1,7.89-10.7,15.23-16.81,20.8-6.74,6.13-1.25,15.56,6,20.61C39,454.52,41.57,462.37,47,467.67,49.22,439.19,44.43,425.65,41.89,407.67Z"/>
    <path d="M75.61,397.84c-1.73,22.5-3.4,52.54-.51,57.64,1.26,2.23,2.59,1.26,11.71,11.67s15.55,4.11,20.33,9c2.1,2.16,2.8,9.39-1.16,10.95-15.15,6-32.18-4.1-46.84-4.72-9.3-.39-13-4.52-12.23-13.59,2.8-33.53-4-46.58-6-69.45C47.28,386.93,67.33,388.37,75.61,397.84Z"/>
    <path d="M89.92,388.84c-.41-7-6.7-14.4-14.39-17.71-.8,8.1-2.73,31.54-.58,35.8C79.76,400.81,85,394.5,89.92,388.84Z"/>
  </g>
  <g class="anaBootLeg">
    <path d="M41.89,407.67a135.05,135.05,0,0,1-8.28,11.59c-.6,6.07,5.45,14.55,12.9,16.68C45.29,425.78,43.26,417.37,41.89,407.67Z"/>
    <path d="M41.72,406.42c2.17,16.27,6.32,28.63,5.81,50.94,8.07,6.65,25.18,5.45,27.57-1.88-2.58-4.56-1.52-29.1,0-50.34C64,392.93,49,394.52,41.72,406.42Z"/>
    <path d="M86.55,392.75C84.05,386,80.18,380.64,75,377.52c-.71,6.65-1.91,25.73,0,29.41C78.68,402.19,82.65,397.33,86.55,392.75Z"/>
  </g>
  <g class="anaBootStrap">
    <polygon points="57.65 389.24 51.12 390.05 52.47 408.4 58.52 407.72 57.65 389.24"/>
    <path d="M75.18,375.47c-.3,3.43-.65,7.11-.89,11.06l9.12-11.4-5.15-3.73Z"/>
  </g>
  <path class="anaJacketInner" d="M134.54,221.76c-1.45-.53-16.47,13-16.8,15C119,238.19,135.81,223.18,134.54,221.76Z"/>
  <path class="anaShirt" d="M106.75,229.32c.61-13.23-4.21-126.25-26.86-130.08C46.65,109.91,30,180,28.41,226.19,52.23,233.5,96.65,231.54,106.75,229.32Z"/>
  <path class="anaShirtOrnament" d="M99,137.58a133.46,133.46,0,0,1-22.61.49C52.1,93.94,97.74,79.21,99,137.58Z"/>
  <g class="anaShirtTrim">
    <path d="M138.54,226.35c-1.13-1.63-2.85-2.54-4.63-4.44-2.25,1-9,6.92-13.07,11,2.66,2.47,5.13,5.53,6.53,6.29C128.34,240.31,139.77,227.62,138.54,226.35Z"/>
    <path d="M24.44,244.79c.95,2.3,1,4,1.62,4.65a76.31,76.31,0,0,0,14.49-5.79c0-.8-1.11-2.61-2.19-5.07C36.26,240.06,29.62,243.05,24.44,244.79Z"/>
    <path d="M71.73,102.94c5.3,8.08,9.56,16.8,11,27.31,1.34,9.42,8.81,21.15,4.51,33.29-3.14,8.89-.09,11.64-3,22.87-2,8,1.59,16.14.47,22.72-1.89,11,2.09,10.65-1.1,22.11,2.62-.06,5.25-.19,7.87-.32,2.65-12.36-1.94-11.29,0-21.89,1.08-5.83-2.35-16.59-.62-22.75,2.93-10.49,0-14,2.81-22.34,3.82-11.44-4-28.83-5.52-33.84C84.67,118.25,79.31,109.17,71.73,102.94Z"/>
  </g>
  <path class="anaShirtCollar" d="M49.33,98.65l18.58,16.92c2.82-3.19,3.69-7.91,6.13-9.16,4.17-1,6.19,4.35,7.9,9.52,4.3-6.5,1.82-14.1,7.31-5-3.39-14.75-6.7-24.86-33.92-21.21C49.82,90.43,50.55,96.56,49.33,98.65Z"/>
  <g class="anaJacket">
    <path d="M106.28,184.64c3.86,3.61,8.52,12,11.5,16,2.47,3.32,5.71,5.62,7.66,9.16,3.11,5.64,5,6.34,9.17,12-1-1.11-17.83,14-16.83,15.17a87.2,87.2,0,0,0-11.33-14.17Z"/>
    <path d="M90,119.56,88,99c14,12.38,14.71,8.3,15.43,31.7,4.84,10,10.43,17,5.8,33.86-.69,7.61,1.9,11.61.22,23.48-1.81,12.87,1.14,11.85.46,19.81-1,8.74.23,12.38-.11,17.08-.18,1.5-7.39,2.07-9.62,3.56-2.78-13.38-.37-18.4-1.84-29-1.12-8-1.09-17.51-.57-32.69C100.77,143.15,94.64,136.13,90,119.56Z"/>
    <path d="M32.79,164.08c-5.6,11.7-4.29,18.37-7.84,20.28,3.23,2-.14,2.5.87,4.11,1.87,3,1.24,10.7,3.48,17.3.87-3.86.54-7.28,1.62-9.58,2-4.27-1.62-9.46,1-16.06C34.87,172.41,31.76,170,32.79,164.08Zm42.93-46.67c8.72,20.41,4.73,44.3,4.26,56.05-.17,4-.42,12.17-1.64,18.12-2.24,10.95-1.25,22-2.62,36.59-15.75-1.35-31.11-.69-41.74-5,1.76,3.21,2.17,9.19,4.72,15.12-2.43,2-17.36,8.38-20.41,7.74-12-28.73-12.76-41.3-15.69-47.62-3-6.56.94-5.75-1.51-7.94-2.28-2,.76-6.42,1.13-9.64,1.57-13.31,7.29-30.37,11-42.06,2.25-7,2.49-12.07,5.61-17.47.42-6.88,3.78-11.66,9.26-14.93,1.68-2.82,5.72-3.48,8.4-5.55,7.59-5.85,10.16-2.87,14-9C57.89,103.29,69.49,109.7,75.72,117.41Z"/>
  </g>
  <g class="anaJacketCollar">
    <path d="M75.72,117.41c-7.13-6.76-8-4.51-13.87-11.16-1-1.24-3.11,2.25-6.56,3.7-3.73,1.57-4,1.15-6,2.75-.5-9.88-6.37-16.81-4.72-17.51,2.67-1.14,6.59-6.64,8.95-6.59C51,96.89,74,111.75,75.72,117.41Z"/>
    <path d="M85.64,100.66,83.12,90.24C87,93.09,92.85,109.75,99,117c-4.47-3.71-4.38-5.66-5.18-5.4-1.11.37-2.16,4.91-3.82,7.94-1.92-8.85-1.59-16.61-4.36-18.9"/>
    <path d="M68.69,146.78c-.3.65-9.23,5.14-11.23,4.92-.89-.1-11.5-4-11.77-4.71-.21-.53-.5-7-.1-7.4.22-.23,22.78-.23,23,0C69.24,140.22,68.88,146.38,68.69,146.78Z"/>
    <path d="M107.78,139.35a8,8,0,0,0-1.2.19c-.36.44.48,5.78.74,6.29a15.38,15.38,0,0,0,3.23,2A34.39,34.39,0,0,0,107.78,139.35Z"/>
  </g>
  <g class="clothingSilver">
    <circle cx="57.71" cy="146.61" r="2.31"/>
    <ellipse cx="102.2" cy="145.31" rx="1.82" ry="2.31" transform="translate(-22.12 18.41) rotate(-9.29)"/>
    <ellipse cx="102.1" cy="165.59" rx="1.82" ry="2.31"/>
    <ellipse cx="101.9" cy="183.61" rx="2.31" ry="1.82" transform="matrix(0.07, -1, 1, 0.07, -88.42, 272.36)"/>
    <ellipse cx="19.4" cy="239.19" rx="1.82" ry="2.31" transform="translate(-72.99 17.71) rotate(-18.01)"/>
    <ellipse cx="102.71" cy="204.37" rx="1.82" ry="2.31" transform="translate(-20.53 11.68) rotate(-5.92)"/>
    <ellipse cx="103.73" cy="222.46" rx="1.82" ry="2.31"/>
  </g>
  <g class="clothesDisplayLine">
    <path d="M126.18,211.08c-3.41-.05-13,7.82-16.35,13.83"/>
    <path d="M13.11,232.87c4.59-.76,16.05-6.27,21.56-8.1"/>
    <path d="M106.58,139.54a56.42,56.42,0,0,1-8.83,0"/>
    <path d="M68.6,139.59c3.74.16,7.83.17,12.31,0"/>
    <path d="M45.59,139.59a21.27,21.27,0,0,1-3.33,0"/>
    <path d="M68.6,114.44c6.54,20.53,5.21,51.51,0,84.82-1.44,9.23-.71,17.71-2.13,28.29"/>
    <path d="M109.54,215.66c-1.47,1.43-7.33,2.19-10.66,3"/>
    <path d="M76.35,219c-12.74-1.09-28.09-.73-44.32-5.67"/>
    <path d="M70.82,247.24c-1,5.85-6,10-16.35,12"/>
    <path d="M105.06,246.25c.24,3.53,1.19,6.17,3.8,6.77"/>
    <path d="M89.22,247.13c-1.65,8.85,2.44,15.33-5,25.75"/>
  </g>
  <g class="clothesOverlapLine">
    <path d="M32.79,164.08a115.69,115.69,0,0,0,7.79-24.85"/>
    <path d="M29.3,205.77c3.65,5.72,2.44,10.81,4.68,17.44"/>
    <path d="M100,122c.64,3.49,2,5.75,3.44,8.67"/>
    <path d="M84.2,272.88c-2.72,18.61-4.38,49-7.48,74.61-.43,3.59,3,7.49-.42,9.72,1.69,4.79.14,4.51-.56,4.93C76,370.82,73.91,383,74,396.24"/>
  </g>
  <g class="clothesFoldLine">
    <path d="M120.33,206.49c-1.35,1.52-3.75,2.1-7.23,1.73"/>
    <path d="M109.26,164.54c-.34,4.27-1.65,6.78-2.28,9.29"/>
    <path d="M87.67,213.09a21.69,21.69,0,0,0-7.38,0"/>
    <path d="M93.32,188.44a28.91,28.91,0,0,1-6,0"/>
    <path d="M96.62,223.45c-.31,3.25-.78,6-1.79,7.26"/>
    <path d="M78.72,228a6,6,0,0,0,.38,3.23"/>
    <path d="M48.25,186.87c-4.72,7.33-9.46,14.09-14.44,14.91"/>
    <path d="M43.7,171c-2.48,5.23-5.48,9.23-10.2,9.11"/>
    <path d="M42.26,139.58c5.45-10.46-1.49-12-1.68-.35"/>
    <path d="M31.7,105.6c7.43,1.23,11.47,7.49,10.86,20.66"/>
    <path d="M22.64,115.29c-.35,2.55-2.55,4-3.78,6"/>
    <path d="M26.26,143.93c-1.58,8.48-4,16.09-7.77,22.15"/>
    <path d="M34.25,132c-2.55,5.43-7.24,27.25-4.79,30.56"/>
    <path d="M8.59,175.66c10.86,1.39,6.49,2.35-4.15,5.75"/>
    <path d="M4.44,189.4c7.66-3.2,14.26-3.09,14.58-1.7s-8.62,2.55-12.24,5.21"/>
    <path d="M25,184.36c-7.2-1.46-16.26,1-16-.5.32-2.13,6.81-3.41,12.78-3.94"/>
    <path d="M29.35,211.65c-2.82,5.29-7.43,4.17-13.52-2.23"/>
    <path d="M109.12,254.66a3.1,3.1,0,0,1-2.59.93"/>
    <path d="M97.64,275.48c-4.1.59-7.91.41-10.29.79"/>
    <path d="M86.65,280.17a79.23,79.23,0,0,0,9.49,3.8"/>
    <path d="M78.55,275.68c-4.23.52-9.09.39-13.59.59"/>
    <path d="M76.35,280.87c-3.95,1.61-9.39,2.5-13.78,4"/>
    <path d="M30.21,288.05a5.21,5.21,0,0,0,3-.38"/>
    <path d="M83,336.6a29.45,29.45,0,0,0,14.79,5.69"/>
    <path d="M77.5,340.69c5,3.3,13.86,2.67,13.84,4.1s-3.09,1.22-7.3,0"/>
    <path d="M92.84,349.29c-3.6-.31-7.59.7-11.89.5"/>
    <path d="M54.17,350.49a48,48,0,0,0,18.49,3"/>
    <path d="M76.3,357.21a23.06,23.06,0,0,1-9.94.07"/>
    <path d="M75.74,362.14a20.76,20.76,0,0,1-7.68,1"/>
    <path d="M71.26,360.58c-7.2.1-15.18-1.56-21.48-1.4"/>
  </g>
  <g class="clothesEdgeLine">
    <path d="M61.85,106.25a31.77,31.77,0,0,1-6.73-8.78"/>
    <path d="M93.82,111.62a27.7,27.7,0,0,0-2.29-5.29"/>
  </g>
  <g class="eye">
    <path class="sclera" d="M108.68,58,67.47,50.75l41.21-4.48C111.13,50.21,111.57,54.13,108.68,58Z"/>
    <g class="irisAmber">
      <ellipse cx="93.42" cy="52.32" rx="2.47" ry="3.6"/>
      <ellipse cx="108.58" cy="52.32" rx="2.09" ry="3.6"/>
    </g>
    <g class="pupil">
      <ellipse cx="93.98" cy="52.32" rx="0.96" ry="1.4"/>
      <ellipse cx="109.21" cy="52.32" rx="0.81" ry="1.4"/>
    </g>
  </g>
  <g class="skinAshkenazi">
    <path d="M92.18,72.05c-6.58,4.65-8.67,14.44-6.56,27.54,0,5.49-2.47,11.07-3.52,15.86-3.49-5.3-5.91-8.82-7.9-9.52C63,103.19,54.7,95.5,54.56,92.32c.41-5.56-.45-17.78-3.78-25.57"/>
    <path d="M137.61,226.51c-2.72.67-10,9.06-9.81,11.92,3.92,3.25,3.92,8.23,12.32,11.36a57.32,57.32,0,0,1,4.82-7.81,6.81,6.81,0,0,0,3.47-3.33,5.73,5.73,0,0,1,1.9,1.51c4.13,5.69,9.48,2.24,8.36.2-3.4-3.55-3-5.37-7.64-7.49a30.9,30.9,0,0,0,2.86-5.79C147.35,225.67,142.44,228,137.61,226.51Z"/>
    <path d="M166.22,232.83c2.1,1.75,3.62,4.78,2.41,7.06,1.86.57,2.57,4.86,1.64,6.72,1.62,2.13,1.65,4.85-.07,8.22,1,2.48-.48,4.65.45,7.08.22,2.59-4.67,3-5.6-1.86-3.21,0-3.86-3.74-2.28-6-2.93.45-3.65-4-.65-6.67-4.45.81-3.64-5.94,1.29-8.24C163.24,238,164.6,235.65,166.22,232.83Z"/>
    <path d="M53.11,261.84c-.46-9.45-5.24-9.23-12.66-18.13a78,78,0,0,1-14.3,5.71c-.22,4.08-1.6,9.78,2.7,15.88-1.59,1.73-.1,7.52,2,7.89-2,2.08,1.21,2.09,3,3.2.15,3.92,3,.81,5.72,1-1.19,2.08,1.05,4.82,2.76,3.11,2.74-2.37,5.25-1.48,8-5.57C53.71,269.6,53.45,269,53.11,261.84Z"/>
    <path d="M57,69.49c-5.28,3.67-8.24-1.16-9.53-2.9C-6.38,23.3,110.68-12.66,110.75,34c.73,4.46,2,7.26.7,11.27-.86,1.54,1.81,3.91-.78,6.64a9.39,9.39,0,0,0-.12-1.08c-1.85-2-3.72-.59-6.09,1.44-.21.24.05.42.66.25a13.26,13.26,0,0,1,3.15-.35c1.22.06,2.16.43,2.4-.14a1.85,1.85,0,0,1-.23,2.83c2.81,4.95,4.78,15.71-1.15,24.3C103,88.32,104,95.45,98.11,97.91c-8.1,3.39-12.77-2.79-17.62-4.34-6.37-2-14-7.35-18.9-13.95M96.24,51.87c-1.42-2-4.15-2.28-5.58-2.26-2.55,0-4.31,1.31-6.16,2.44,1.58.49,2.82.29,5.77.1a31.59,31.59,0,0,1,5.24.35C95.92,52.54,96.79,52.63,96.24,51.87Z"/>
  </g>
  <g class="skinOverlapLine">
    <path d="M30.9,273.19c6.08.89,5.71-2.37,6-7.87"/>
    <path d="M42.77,263.54c.67,8.46-.64,9.53-3.63,11.43-2.82,1.78-3.27,1.78-5.2,1.42"/>
    <path d="M39.66,277.42c3.48-.22,5.55-2.29,7-4.47,1.82-2.78,2.81-4,2-11"/>
    <path d="M28.85,265.3a4.76,4.76,0,0,0,1.9,1.58"/>
    <path d="M30.94,265.7a6.74,6.74,0,0,0-.1,3.28"/>
    <path d="M168.63,239.89c-2.11,5.86-3.58,5.08-6.51,7.46"/>
    <path d="M170.27,246.61c-2.07,6.43-4.72,5.58-7.5,7.41"/>
    <path d="M170.2,254.83c-1.21,1.64-2.63,1.78-3.55,4.17a1.84,1.84,0,0,1-1.6,1.05"/>
    <path d="M148.41,238.65c-1.23-.6-2.25-1.54-3.31-1.79"/>
    <path d="M151,232.87a10,10,0,0,1-1.77-1.19"/>
    <path d="M136.73,240.83a10.29,10.29,0,0,0,8.21,1.15"/>
  </g>
  <g class="skinFoldLine">
    <path d="M53.28,55.25c-3.29-10.88-15.46-2.19-6.18,8"/>
    <path d="M52.76,57.7c-2.16,1.82,2.77,5.53.39,6.51-1.09.45-1.22-2.64-3.74-3.48-4-1.34-1.35-8,1.36-4.57"/>
  </g>
  <path class="lipFemaleMedium__noStroke" d="M88.84,78.57c1.86,11.35,12.52,14,14.33,5.91.36-1.61-.53-3.37-.11-6.15Z"/>
  <path class="lipFemaleMedium" d="M88.84,78.57c-.6-1.89,1.64-2.69,3.62-3.75,3.67-2,8.7-3,9.45-.91,2.1-1.64,4.2-.6,4.25,1.07,0,1.12-.9,2.46-3.1,3.35Z"/>
  <path class="lipEdgeLine" d="M90.29,83.25c3.52,7.24,11.35,8.08,12.88,1.23"/>
  <path class="mouthInner" d="M99.42,78.66a8.22,8.22,0,0,1,.91,6c2.67-1.5,1.94-4.47,2.73-6.34A17.54,17.54,0,0,1,99.42,78.66Z"/>
  <path class="tongue" d="M90.78,76.45c-1,.27-2.35,1.11-1.94,2.12.22,1.14,2.75,3.46,4.44,4.84,2.1,1.72,5.34,2.29,7,1.26.63-2.13-.13-5.67-1.5-6.62Z"/>
  <path class="teeth" d="M90.78,76.45c1.88-.56,5.55-2.21,9.6-1.64,2.15.3,2.68-.21,4.59.06-.26,2-.91,3.25-1.91,3.46C99.2,79.14,93.69,78.43,90.78,76.45Z"/>
  <g class="cheekLine">
    <path d="M85.76,75.21c.92-2.58,3.5-3.87,5.6-6.19,1.43-1.57,3.61-3.92,4.86-4.56"/>
    <path d="M108.91,73a9.59,9.59,0,0,0-.79-4.6"/>
  </g>
  <g class="noseLine">
    <path d="M96.22,64.46c-1,.7-1.75,3.68,1,4.33,1.7.42,3.8-1.72,6.06-.48"/>
    <path d="M105.93,58c.84,1.3,1.61,3.28,2.61,5,1.76,3.1.72,7.33-5.69,6.12"/>
  </g>
  <g class="eyeFoldLine">
    <path d="M110.44,54.88a3,3,0,0,1-1.53.37"/>
    <path d="M94.25,54.64A7.79,7.79,0,0,1,86.4,55"/>
  </g>
  <g class="eyeCornerLine">
    <path d="M82,53.18a6.67,6.67,0,0,0,2.55-1.13"/>
  </g>
  <g class="eyeCreaseLine">
    <path d="M94.92,49.49c-2.86-2.16-6.74-2-10.27.47"/>
    <path d="M111.74,50.08c-1-1.45-3.53-2.47-6.77.49"/>
  </g>
  <g class="eyebrowDarkBrown">
    <path d="M98.44,39.67c-10.42.23-13.19-1.92-20.26,6,.28,1.61,4.13-4.7,12.5-3.29C96,43.29,97.42,42.89,98.44,39.67Z"/>
    <path d="M104.94,39.76c.67,4.46,4.73,2.87,7,3.23a13.23,13.23,0,0,0,0-2.8C109.19,39.53,106.94,40.21,104.94,39.76Z"/>
  </g>
  <g class="hairDarkBrown">
    <path d="M108.93,79.7a44.81,44.81,0,0,0-4.55,9.13c2.94,2.09,6.63,4,9.53,4.41C111.8,89.44,109.54,84.15,108.93,79.7Z"/>
    <path d="M52.18,84.43C49.35,78.05,47.55,73,47.42,66.59c-5.73-4.83-7.15-11.27-5.28-15.26,3.36-7.19,11.41-4.07,12.36,1.28,3.67-1.16-3,19.33,18.75,34.91-16.27-20.9-11-38.22-9.4-40.87,7.79-13,11.11-11.5,14.64-25.3C87.14,24.46,100.36,31.49,110,31a9,9,0,0,1,.73,3C118,16.11,92.43-3.33,61.53.81,33.86,4.52,24.42,23.91,23.78,35.73a27.13,27.13,0,0,1,6.28-6.28c-6.41,7-3,29,8,42.59-.86-2.16-.63-5.77-.34-8.09A52.78,52.78,0,0,0,52.18,84.43Z"/>
  </g>
  <g class="hairOverlapLine">
    <path d="M78.49,21.35c-.61-3.3-4.71-7.68-7.14-8.62"/>
  </g>
</svg>
