<svg viewBox="0 0 257.18 497.13">
  <path class="anaJeans" d="M86,254.62c14.44,7.58,76.87,11.36,82.59,1,.85,14.19,4.12,13.1,2.4,16.2,3.36.42,1.56,2.72,2.52,4.45,16.45,22.61,39.19,62.37,41.9,72.7,5.17,9.57,4.85,32.42,7,50.64-3.35,10.75-14.82,9.25-30.58,1.29-5.06-10.2-8.08-20.67-7.83-31.6-2.8-2.34-2.21-4.79-1.22-6.26-3.78-.09-1.39-4.47-5.18-8.3-25.24-25.44-36.66-42.06-46.95-45.19-4.93,11.74-7.81,51.43-13.34,68.06-4.17,12.55-20.83,29.8-33.75,48.31L59.71,403a78.71,78.71,0,0,1,16.47-21.37c2.34-2.16,1.1-7,5-6.67-3.68-3.16,3.07-5.49,2.18-10.21-2.4-18.61-3.47-39.83-3.81-62.47.26-2-3-4.1-.27-6.81C77.77,280.05,81.45,267.09,86,254.62Z"/>
  <g class="beltTan">
    <path d="M84.72,257.26c-.87-.57-3.46,8.82-2.66,9.24a19.94,19.94,0,0,0,2.76,1.59,80.22,80.22,0,0,1,2.25-9.39A12.11,12.11,0,0,1,84.72,257.26Z"/>
    <path d="M117.37,264.92c-10.78-.94-20.55-2.66-26.9-4.84a59.75,59.75,0,0,0-2,9.5c6.88,2.33,17.11,4,28.26,4.86A61.13,61.13,0,0,0,117.37,264.92Z"/>
    <path d="M154.31,264.54c-9.6,1.38-21.75,1.47-33.27.66a80.32,80.32,0,0,1-.42,9.49,186.4,186.4,0,0,0,33.94-.79A48.33,48.33,0,0,0,154.31,264.54Z"/>
    <path d="M169.67,259.61c-2.61,2-6.7,3.4-11.93,4.39a71,71,0,0,1,.38,9.37c5.78-1,10.12-2.47,12.47-4.45C171.6,268.45,170.64,259.31,169.67,259.61Z"/>
  </g>
  <ellipse class="clothingBrass" cx="137.81" cy="270.47" rx="13.36" ry="7.77"/>
  <g class="soleTanDark">
    <polygon points="213.37 490.98 211.93 482.63 219.75 481.46 220.61 489.09 213.37 490.98"/>
    <polygon points="28.53 488.07 28.72 479 35.52 487.55 28.53 488.07"/>
  </g>
  <g class="soleTan">
    <path d="M200.36,479.22c.13,3.33,2.6,6.61,3.85,10.91.63,1.66,6,1.48,9.16.85l-1.44-8.35Z"/>
    <path d="M20.3,474.11c-.24,3.69,1.61,6.33,2.13,10.79.34,1.74,2.9,3.27,6.1,3.17l.19-9.07Z"/>
  </g>
  <g class="anaBoot">
    <path d="M189.68,402c5.69-10.28,19.17-8.48,29.44-.14,2.77-3.4,4.35-5.58,4.08-10.48,3.12,18.89.34,39.34,3.56,67.29,10.14,7.77,11.81,15.69,26,19.44,5.52,1.46,6.19,11.33-1.83,12.95-7.12,1.44-13.43,2-18.7.49-7.33-2.11-13.85-6.11-20.33-6.89-8.79-1.07-14-3.27-12.59-11C203,452.62,196.76,423.93,189.68,402Z"/>
    <path d="M57.08,401.75c10.62-2,22.83,11.64,26.28,22.83,3-1.29,4.74-4.45,8.58-8.11-9.3,16.73-28.4,26.37-40.61,48.2,2.39,2.47,5.08,15.57,11.53,17.73,2.53.85,10.29,4.29,6,10.39-4,5.73-26,5.27-30.17-.35-4.5-6.15-12.75-9.65-17-14.59-5.79-6.7.52-16.45,4.86-23C37,439.06,45.16,422.43,57.08,401.75Z"/>
  </g>
  <g class="anaBootLeg">
    <path d="M219.52,408.45c-11.74-7.8-22.14-10.17-28.36-1.73,5.16,17,9.5,37.19,9.24,54.61,8.8,1.91,15.37-.73,20.17-7.93,1.83,2.29,3.79,3.09,6.19,5.26-2.55-22.17-1.34-39.61-2.28-55.3A14.34,14.34,0,0,1,219.52,408.45Z"/>
    <path d="M78.56,430.54c-4-13.6-12-22-24.48-23.54-10.35,18.29-18,33.42-27.58,47.86,2.44,7,13.33,9.33,21.34,4.38.67,2.26,2.5,3.59,3.49,5.43,8.68-15.51,20.83-24.87,30.48-35A5.66,5.66,0,0,1,78.56,430.54Z"/>
  </g>
  <g class="anaBootStrap">
    <polygon points="200.82 393.93 195.42 395.14 198.37 413.46 203.26 412.26 200.82 393.93"/>
    <polygon points="68.51 403.64 63.82 401.57 53.58 416.76 57.99 418.86 68.51 403.64"/>
  </g>
  <path class="anaShirt" d="M168.22,256.09c-3-6.95,11.72-85.65-39.26-126.38C107.42,153.78,86.93,241,86.32,254.8,101.14,262.14,160.81,265.77,168.22,256.09Z"/>
  <g class="anaShirtCollar">
    <path d="M150.88,174.29A16.54,16.54,0,0,0,147,175c-.37.44.29,4.81.54,5.33s3.88,1.62,7,2.54C153.37,179.79,152.13,177,150.88,174.29Z"/>
    <path d="M125.05,176c-.27-.23-4.14-.14-8.72.09a56.27,56.27,0,0,0-1.22,10c3.94-1.31,10.17-4.09,10.36-4.58S125.72,176.63,125.05,176Z"/>
  </g>
  <path class="anaShirtOrnament" d="M148.59,162.54c-2.78,3.36-26.52,5.87-33.71,3.32C111.28,125.49,145,122.17,148.59,162.54Z"/>
  <g class="anaJacket">
    <path d="M138.94,147.29c5.18,19.36,21.13,33.27,23.17,72.39.55,10.38,3.63,18.06,2.46,26.59,6.27-2.05,12.52-6.88,12.27-8.46.67-7.34-1.44-14.61-1.64-21.81-.32-11.36-.31-21.34-1.77-29.72-1.5-8.59,2.32-8.72-4.64-36.67Z"/>
    <path d="M121.14,142.9c.61,6.69-1.2,10.24-1.67,16.53-.78,10.37-4.24,16.44-4.38,27.56-.13,9.7-2.25,11.68-2,25.44.25,11.65-1.06,21.07-4.19,35.89-9.58-3.87-20.35,0-29.46-10.61,1.33-6.12,4-11.9,4.64-18.24.9-8.6.8-17.8,2.38-28.14,1.09-7.19-1-15.34-1.21-23.49-.11-3.71-14.66,5.19-26.14,11.58s-24.81,12.14-29,6.36c-10.53-14.36,3.47-29.32,13.83-58.94,1-2.21,22.6,7.92,21.58,10.13,1.61-2.21,3.94-2.77,6.78-2.47C91.22,107.85,106.62,120.46,121.14,142.9Z"/>
    <path d="M114.6,118.2c2.68-.26,8.48,1.92,14.36,2.74,9.85-7,16.6-6.18,22.24-2.46,8.17-4.34,12.7-.69,16,5.22,5.48,3.19,9.66,6.76,10.62,11.79.9,4.66.89,7.6-1.47,11.44-3.1,5.07-7.76,4.21-11.28,6.54-6.24,4.14-15-1-23.87-3.76-17.33-5.88-26.81-6.28-31.22-8.17C107.8,140.59,112.22,118.42,114.6,118.2Z"/>
  </g>
  <g class="anaJacketInner">
    <path d="M43.94,126.84C44.42,129.39,62.86,139,65.52,137,66.54,134.76,45,124.63,43.94,126.84Z"/>
    <path d="M110,141.38c2-.1,6.91-22.41,4.6-23.34C112.22,118.27,107.8,140.44,110,141.38Z"/>
  </g>
  <g class="anaJacketCollar">
    <path d="M171.14,169.17a11.15,11.15,0,0,0,1.39-1.3c-.4-2.89-1-6.43-2-10.9-3.19,1.44-11.2,5.89-11.34,6.29a39.78,39.78,0,0,0,2.82,7C162.44,170.51,170.69,169.42,171.14,169.17Z"/>
    <path d="M104.41,169.62c-2.09-.3-16.33-1.4-19.1-1.59.09,2.87.4,5.73.72,8.56a72.42,72.42,0,0,0,8.14,4c1.79.32,9.75-3.49,10.07-4.12C104.32,176.31,105.31,169.74,104.41,169.62Z"/>
    <path d="M110.28,131,92.73,126.2c4.15,4.75,7.22,11.51,9.8,19.21a50.58,50.58,0,0,1,6.89-7.44A55.27,55.27,0,0,1,110.28,131Z"/>
  </g>
  <g class="clothingSilver">
    <ellipse cx="57.43" cy="143.02" rx="2.31" ry="2.19" transform="translate(-96.63 147.4) rotate(-69.75)"/>
    <ellipse cx="155.32" cy="170.28" rx="1.82" ry="2.31" transform="translate(-36.14 41.97) rotate(-13.8)"/>
    <ellipse cx="169.5" cy="164.73" rx="1.54" ry="2.31" transform="translate(-34.4 45.19) rotate(-13.8)"/>
    <ellipse cx="160.61" cy="187.42" rx="1.82" ry="2.31" transform="translate(-41.33 45.5) rotate(-14.31)"/>
    <ellipse cx="164.91" cy="205.07" rx="1.8" ry="2.31" transform="translate(-27.5 25.56) rotate(-8.18)"/>
    <ellipse cx="167.06" cy="222.72" rx="1.66" ry="2.31" transform="matrix(0.99, -0.14, 0.14, 0.99, -29.99, 26.04)"/>
    <ellipse cx="168.56" cy="239.75" rx="1.68" ry="2.31" transform="translate(-20.38 15.71) rotate(-5.03)"/>
    <ellipse cx="118.61" cy="138.53" rx="2.31" ry="2.21" transform="translate(-41.31 226.19) rotate(-78.16)"/>
    <ellipse cx="95.06" cy="175.05" rx="2.31" ry="2.21" transform="translate(-95.78 232.17) rotate(-78.16)"/>
  </g>
  <g class="anaShirtTrim">
    <path d="M142.91,199.69c.93-16.59-4.11-25.52-5.55-38.46-.78-7.11-1.73-9.44-3.68-13.9-2.55-.74-4.88-1.35-7-1.87a63.17,63.17,0,0,1,3.87,17c1.43,12.94,6.32,21.87,5.39,38.46-.9,16,3.59,25.51-.54,61,2.4,0,4.82,0,7.26-.07C147.15,228.91,142,215.68,142.91,199.69Z"/>
    <path d="M47,121.51c-1,.57-.81,2.72-2.22,6.49,2.56,2.39,10.21,6.53,15.54,8.34,2.26-8.87,3-8.55,2.89-10.54C63.13,123.44,49.05,120.28,47,121.51Z"/>
    <path d="M102.3,132.57c1.65,1,6,1.7,10.18,3.38,1.68-5.81,3.23-14.55,2.58-17.17-3.49-1.12-7.2-2.54-8.76-2.72C103.4,115.73,99.8,131.07,102.3,132.57Z"/>
  </g>
  <g class="clothesDisplayLine">
    <path d="M123.62,144.75c3.06-5,5.9-18.27,5.34-23.81"/>
    <path d="M58.73,149.58c-5.61-.3-17.24-6.54-19.84-9.79"/>
    <path d="M159.18,163.26c-3.49,1.83-7.9,2.3-11.57,4.33"/>
    <path d="M104.41,169.62c3.79.84,7.46.23,13.25.67"/>
    <path d="M113.18,142.53c.13,10.83-3.32,24.18-5.94,44.64-2.33,18.17.16,31-5.78,59.1"/>
    <path d="M164.38,236.33c2.76-.26,7.35-3.37,12.21-7.49"/>
    <path d="M110.66,239.75c-9.82-4-19.18.92-28.75-10.58"/>
    <path d="M139.37,278.19c.63,8.42-1.9,17.27-4.71,25.18"/>
    <path d="M172.22,278.74c-3.61-1.61-10.32.8-13.52-2.21"/>
    <path d="M115.43,277.33c-2.28,6.36-9.05,10.08-24.24,8.82"/>
  </g>
  <g class="clothesOverlapLine">
    <path d="M169.24,133.75c-6.38-8.42-13.29-7.14-21.05-9.06-6.09-1.5-11.49-3.83-19.23-3.75"/>
    <path d="M65.52,137c-2.19,3.67-4.23,10.69-6.79,12.61,0,4.73-3.19,11.23-4.21,17.35"/>
  </g>
  <g class="clothesFoldLine">
    <path d="M146.27,119.88c-1,4.48,2.54-.49,4.93-1.4"/>
    <path d="M160.08,121c-3.29-.07-6.3.71-8.72,3.27"/>
    <path d="M154.3,124.76a15.12,15.12,0,0,1,12.92-1.06"/>
    <path d="M173.65,132.36c-3.88-5.09-10.9-7.4-15.42-5.84"/>
    <path d="M126.64,157.44c4.31.09,9.22-1.14,14.59-3.34"/>
    <path d="M134.63,161.2a22.67,22.67,0,0,1-5.57,1"/>
    <path d="M155,183.9c-3.4.79-7.43.63-11,1.17"/>
    <path d="M156.21,187.42c-2.44.67-5.73.88-8.28,1.52"/>
    <path d="M132,184.53a54.62,54.62,0,0,1-9.8,1.8"/>
    <path d="M136.21,189c-4.29-.05-8.6.55-11.54,0"/>
    <path d="M119.51,201.17C119.22,206,121,219.09,122,223"/>
    <path d="M115.94,216.12c2.17,8.06,2.74,19.5,5.48,32.43"/>
    <path d="M153.26,201.33c0,8.12-1.66,19.4-2.94,30.57"/>
    <path d="M158.75,215.73c-2.41,7.13-3.14,19.59-4.9,31.64"/>
    <path d="M160.61,235.72c-1.45,5-1.57,11.16-2.25,17"/>
    <path d="M91.15,251.39c1-4.9,1,2,2.78,6"/>
    <path d="M100.36,252.27c.28,1.24-.59,3.92.31,6.57"/>
    <path d="M127.27,256.19c.23,1.54-.75,3.53-.6,5.49"/>
    <path d="M148.75,257.39a9.46,9.46,0,0,1-.78,4.24"/>
    <path d="M161.1,257.23a7.41,7.41,0,0,1-.49,2.63"/>
    <path d="M98.2,192.71c-2.69,4.44-5.46,7.95-8.32,10"/>
    <path d="M72.3,134.5c2.59.9,4,2,4.74-1.75"/>
    <path d="M72.54,158a73.8,73.8,0,0,0,7.71.31"/>
    <path d="M63.6,161.35c4.24,1.63,11.67,1.3,18.33,3.43"/>
    <path d="M75.13,167.46a29.32,29.32,0,0,0-5.21-1.79"/>
    <path d="M55.72,161.88a12.27,12.27,0,0,1,2.12,11.69"/>
    <path d="M50.7,179.88c3.15-4.44,4.47-8.76,3.82-12.95-2.66,10.69-13.22,16.93-14.39,15.77-2.73-2.68,7-5.77,9.74-11.67"/>
    <path d="M67.79,138.7c6.8,8.85,7.48,15.58-3.91,4.25"/>
    <path d="M62.86,482.4a37.66,37.66,0,0,0-14.36.15"/>
    <path d="M169,280.17c-6.91,2.36-12.48,6.06-16.51,11.31"/>
    <path d="M159.59,281.06c-7.91,6-14.58,12.27-18.8,19.19"/>
    <path d="M125.79,302.15c-6.08-.92-12.51-1.58-19.18-2"/>
    <path d="M126.18,305.58q-9,2.52-17.41,5.21"/>
    <path d="M79.31,295.49c1.89,2.1,4.81,3,8.12,3.49"/>
    <path d="M78.91,300a6.18,6.18,0,0,0,3.18,2.29"/>
    <path d="M200.12,358.31a40.43,40.43,0,0,1-16.39-.38"/>
    <path d="M198.09,365.42c-3.85,2.09-6.85,4.76-8.26,8.51"/>
    <path d="M182.75,363c4.19,1,9.17-.93,9.62.26.54,1.45-2.48,2.51-8.26,2.8"/>
    <path d="M184,369.26c2.05,1,3.79,1.17,2.17,2.64"/>
    <path d="M84.76,370.76a15.52,15.52,0,0,0,2.16,8.51"/>
    <path d="M81.21,375c2.59,2.14,4.45,3.95.12,2.89"/>
    <path d="M90.73,385.12c-3.32-2.59-6.78-3.72-10.42-2.93"/>
  </g>
  <g class="weapon">
    <g class="gasketLight">
      <path d="M14.17,13.15c-.65-1.23,1.14-3.46,4-5s5.71-1.75,6.36-.52l1.12,2.1-10.35,5.5Z"/>
      <path d="M84.19,145c-.66-1.23,1.13-3.46,4-5s5.71-1.75,6.36-.52l1.11,2.1-10.35,5.5Z"/>
      <path d="M3.49,1.59C4.78,1.07,6.8,3.1,8,6.1S9.1,12,7.81,12.48l-2.21.88L1.28,2.46Z"/>
      <path d="M102.42,142.73c1.3-.52,3.31,1.51,4.5,4.52s1.11,5.86-.18,6.37l-2.21.88-4.32-10.9Z"/>
      <path d="M82.46,150.64c1.3-.52,3.32,1.51,4.51,4.52s1.11,5.86-.19,6.37l-2.21.88-4.32-10.9Z"/>
    </g>
    <g class="gasketMedium">
      <ellipse cx="20.46" cy="12.5" rx="5.86" ry="2.52" transform="translate(-3.47 11.06) rotate(-27.97)"/>
      <ellipse cx="90.48" cy="144.33" rx="5.86" ry="2.52" transform="translate(-57.13 59.3) rotate(-27.97)"/>
      <ellipse cx="3.44" cy="7.91" rx="2.52" ry="5.86" transform="translate(-2.67 1.82) rotate(-21.62)"/>
      <ellipse cx="102.37" cy="149.05" rx="2.52" ry="5.86" transform="translate(-47.72 48.21) rotate(-21.62)"/>
      <ellipse cx="82.41" cy="156.96" rx="2.52" ry="5.86" transform="translate(-52.04 41.41) rotate(-21.62)"/>
    </g>
    <g class="gasketDark">
      <ellipse cx="3.3" cy="7.97" rx="1.76" ry="4.08" transform="translate(-2.7 1.77) rotate(-21.62)"/>
      <ellipse cx="82.27" cy="157.02" rx="1.76" ry="4.08" transform="translate(-52.07 41.36) rotate(-21.62)"/>
    </g>
    <g class="joint">
      <path d="M14.9,10.71h0a10.93,10.93,0,0,1,3.26-2.54A10.86,10.86,0,0,1,22.1,6.89h0L21,4.86a8.68,8.68,0,0,0-10.87-4L5.83,2.58h0A10.81,10.81,0,0,1,8,6.1a10.83,10.83,0,0,1,.84,4.06h0l2.8-1.11A2.48,2.48,0,0,1,14.9,10.71Z"/>
      <path d="M103.86,148.46c-.83-2.09-2.23-3.5-3.14-3.14L96.51,147l-2.36-4.44c-.45-.85-2.43-.69-4.42.37s-3.23,2.6-2.78,3.46L88.88,150l-4.08,1.62h0A11.1,11.1,0,0,1,87,155.16a11,11,0,0,1,.84,4.05h0l15.92-6.31C104.63,152.54,104.69,150.55,103.86,148.46Z"/>
    </g>
    <path class="pipe" d="M84.91,142.54a12,12,0,0,1,7.2-3.82h0l-68-128c-.46-.86-2.44-.69-4.43.36s-3.23,2.61-2.78,3.46l68,128Z"/>
  </g>
  <g class="eye">
    <circle class="sclera" cx="133.66" cy="70.49" r="20.52"/>
    <g class="irisAmber">
      <ellipse cx="125.38" cy="70.9" rx="3.11" ry="3.6" transform="translate(-5.27 10.25) rotate(-4.59)"/>
      <ellipse cx="149.25" cy="68.98" rx="2.92" ry="3.6" transform="translate(-5.04 12.15) rotate(-4.59)"/>
    </g>
    <g class="pupil">
      <ellipse cx="125.78" cy="70.87" rx="1.21" ry="1.4" transform="translate(-5.26 10.28) rotate(-4.59)"/>
      <ellipse cx="149.71" cy="68.95" rx="1.14" ry="1.4" transform="translate(-5.03 12.19) rotate(-4.59)"/>
    </g>
  </g>
  <g class="skinAshkenazi">
    <path d="M97,91.39c3.85,10,4.79,17.22,4.59,23a13.91,13.91,0,0,0,4,1.87,1.06,1.06,0,0,1,.73-.22c1.43.16,4.64,1.36,7.84,2.42a.78.78,0,0,1,.46-.28c2.68-.26,8.48,1.92,14.36,2.74,4.14-3,7.73-4.52,10.92-5.06Z"/>
    <path d="M62.27,120.67a22.91,22.91,0,0,0-1.13,4.66c-2.22.39-13.88-2.81-13.66-3.57,3.23-5.07,2.73-9.93,4.45-17.88.86-4,3.36-6.8,3.92-8.7,1.8-6.19,5.07-4.62,9.17-5.65,9.25-2.35,9,1.42,10,3.14,3.06.32,3.8,1.74,4.78,3.53,4,.79,3.45,4.39,1.89,5.33,1.11,1.57,1.37,2.55,1.17,3.69C70.35,121.13,63.76,118.23,62.27,120.67Z"/>
    <path d="M78,104c3.73-1.63,9.4,1.8,11.9,3,13.84,6.92,8.66,7,16.37,9.46,1.66.65-2,13.48-3.4,13.73-2.23-1-4.65-2.64-5.55-1.81-6.56,2.57-12.51,2.46-17.89-2.58a6.33,6.33,0,0,1-2.59,1.53l2.22,4.19c-4.68.18-6.44-.6-6.79-4.38-.39,2.51-4.91,3.42-5.2,0-.24-2.79-2-4.37-.72-6.64A2.59,2.59,0,0,1,65.8,117C63.47,114,74.07,105.7,78,104Z"/>
    <path d="M99.35,95.55c-1,2.68-4,2.68-5.6.75C25.5,50.86,144.28,19,153.65,53.71c3.2,8.34,1.71,11.13,1.47,16.08-.24,4.15,8.8,17.33-4,34.41-3.17,4.23-2.22,10.36-8.41,13.55-8.24,4.24-13.81,0-18.77-1.21a38.94,38.94,0,0,1-18-10m23.78-36.69a7.31,7.31,0,0,0-6.29-1.79c-2.58.3-4.48,1.88-6.45,3.21a40.28,40.28,0,0,0,6,.21c2.1-.15,3.74-.91,6.06-.78C129.55,70.74,130.47,70.56,129.71,69.86Zm13.23-.38c2.2-.61,6.73.57,9.63-1.54a4.78,4.78,0,0,0-4.43-2,13,13,0,0,0-6.31,3C140.91,69.64,142.48,69.61,142.94,69.48Z"/>
  </g>
  <g class="skinOverlapLine">
    <path d="M75.64,118.8c-2,3-3.61,6.58-3.34,8.4-2.54-1.12-3.65-2-3.65-3.33,0-2.51,3.11-6.18,5.44-10.31"/>
    <path d="M66.38,120.61A5.09,5.09,0,0,0,69,122.16"/>
    <path d="M65.8,117c.76-1.69,5.12-5.6,8.56-8"/>
    <path d="M75.05,92.67a55.89,55.89,0,0,0-10-.07"/>
    <path d="M67.92,97.06c3.84-.07,13.39-2.06,13.8,4.47-2-1.41-6.7-.81-10,.08"/>
    <path d="M79.83,96.2a1.66,1.66,0,0,1,0,1.82"/>
  </g>
  <path class="skinEdgeLine" d="M60.26,92.52c0,2.32,2.07-.66,2.65,4.39.21,1.81,2.82,1.49,2.9,4.63s1.9,2.32,2.73,4.64"/>
  <g class="skinFoldLine">
    <path d="M93.24,81.36c-4.09-6.76-10.4,1.13-2.34,8.9"/>
    <path d="M93.86,84.81c-2,2,3.65,5.32,1.68,6.22-.92.41-1.14-2.52-3-2.67-2.22-.18-3.07-5.71-.46-5.09"/>
  </g>
  <path class="lipFemaleMedium__noStroke" d="M127.48,97.68c1.42,2.44,1.71,4.28,2.51,5.95,4.33,9.15,15.34,6.45,15.19-1.17-.05-2.27-2.78-5.16-.56-7.6Z"/>
  <path class="lipFemaleMedium" d="M144.62,94.86c2.22-.75,1.89-1.78.43-2.57-1.74-1-3.67-1.74-5.19.17-2.53-2.85-13.18,3.36-12.38,5.22Z"/>
  <path class="lipEdgeLine" d="M130,103.63c4.33,9.15,15.34,6.45,15.19-1.17"/>
  <path class="mouthInner" d="M144.1,96.36a6.23,6.23,0,0,1-2,.92,7.67,7.67,0,0,1,.86,6.34C145,101.07,143.66,98.25,144.1,96.36Z"/>
  <path class="tongue" d="M141,96.37a23.72,23.72,0,0,0-8.72-1.88c-2.18.57-4,1.65-4.77,3.19,3.39,4.73,6.27,8.93,11.91,7.69a6.78,6.78,0,0,0,3.54-1.75C143.89,101.09,142.74,97,141,96.37Z"/>
  <path class="teeth" d="M144.57,93.22c-2.15-.06-3.59,1.29-6.39.93a13.75,13.75,0,0,0-8.86,1.59c4.71,2.12,11.88,2.76,14.78.62C144.69,95.87,144.62,94.53,144.57,93.22Z"/>
  <g class="cheekLine">
    <path d="M145.35,83.47c1.15,1.93,5.72,4.21,3,12.06"/>
    <path d="M131.8,83.32c-2.12,1.78-9.49,5.81-8.26,17.6"/>
  </g>
  <g class="noseLine">
    <path d="M142.64,78.23c.81,3.83,4.93,5.24,1.73,8.94"/>
    <path d="M131.8,83.32c-1,1.11-1.39,3.89.37,4.53"/>
    <path d="M133.55,86.91c1.72-1.51,6.7,4.13,10.78-1.48"/>
  </g>
  <g class="eyeFoldLine">
    <path d="M151.22,71.34c-1.66,1.43-5.47,1.56-7.24.65"/>
    <path d="M127.82,73.42a11,11,0,0,1-9,.79"/>
  </g>
  <g class="eyeCornerLine">
    <path d="M152.57,67.94c.36.19.77.68,1.16.63"/>
    <path d="M113.68,72.05a6.09,6.09,0,0,0,3.29-.77"/>
  </g>
  <g class="eyeCreaseLine">
    <path d="M143.68,66.56c3.93-3.65,7.13-2,8.51-1"/>
    <path d="M117.16,69.65c2.39-3.26,7.55-4.42,11.92-1.64"/>
  </g>
  <g class="eyebrowDarkBrown">
    <path d="M141.08,61.18c5,6.37,7.95-3.6,14.5,0,0-.4-.09-.81-.16-1.24C149.85,56.63,146.23,60.57,141.08,61.18Z"/>
    <path d="M133.5,62.8c-8.85-.5-12.91-4.72-20.46,2.08.41,1.59,3.77-3.46,12.62-.38C131,66.35,131.94,65.52,133.5,62.8Z"/>
  </g>
  <g class="hairDarkBrown">
    <path d="M157.31,91A31.87,31.87,0,0,1,153,101.55c3.84,2,9.73,1.79,14.62-.94C163.33,99.48,160,95.93,157.31,91Z"/>
    <path d="M98.45,104.62c-1.73-2.08-4.34-6.22-4.7-8.32-3.17-4.43-6.21-5.17-8-12.12-2.35-9.07,5.63-11.53,8.24-5.93,4.32-2-1,15.3,19.65,29.94C97.86,91.33,98.71,71,102.38,65.94c4.57-6.32,7.18-6.95,10.85-23.33,18.81,6.66,29.51,6.31,40.42,11.1,2.7-.65.75-6.69-1.07-9.67-1.06-20-29.69-26.25-50.93-20.52C70.26,32,65.27,56.69,67,69.55c1.59-2.44,3.6-7.21,5.67-9-4.32,7.94-1.9,25.22,10.53,37.66a16.22,16.22,0,0,1-1.57-7.1A41.68,41.68,0,0,0,98.45,104.62Z"/>
  </g>
  <g class="hairOverlapLine">
    <path d="M113.23,42.61c-.87-3.24-3.33-6.09-5.82-6.84"/>
    <path d="M152.58,44a21.45,21.45,0,0,0-4.74-5.66"/>
  </g>
</svg>
