<svg viewBox="0 0 930.5 3362.06">
  <g class="soleWhite">
    <path d="M94,3297.84c-3.13,10-2.73,21.29,2,34,12.29,18.76,130,40.75,186.94,22.29,35.5-11.52,108-8.06,126.78-38.46a291.74,291.74,0,0,0,4.74-33.86Z"/>
    <path d="M535.35,3285.68c-.21,16.38,1.26,29.08,4.38,35.12,41.4,64.69,236.74,32.35,253.56,9.06,4-6,6.54-19.33,2.58-33Z"/>
  </g>
  <g class="howieShoe">
    <path d="M380,3131.93l-124.19.64c-34.93,44.64-59.51,100.91-111.26,121.61-26,10.39-44.56,24.72-50.49,43.66,31.08,19.32,118.88,35.17,181.15,21.67,44.7-9.69,104.63-6.2,139.29-37.74C418.74,3227.82,406.58,3178,380,3131.93Z"/>
    <path d="M780.35,3272.94c-51.9-44.28-36.87-73.74-62.09-124.19l-154,.64c-19,40.66-28.48,98.36-29,136.29,15.17,12.44,40.8,24.79,59.36,30.13,49.18,14.14,171.39,1.72,201.16-19A49,49,0,0,0,780.35,3272.94Z"/>
  </g>
  <path class="howiePants" d="M179.8,1620.09c-38.9,210.84,8.19,537.36,1.61,723-2.57,72.6,17.63,108.89,3.22,159.41-16,56.19,32.09,66.77,4.83,407.38-4.83,60.38,5.69,113.55,43.48,146.52-28.58,26.39-52.16,73.51,5.62,99.91,23-21.67,65.54-12.65,80,6.87,34.95,8,56.34-19.7,77.24.71,28.11-11,36.87-40.22,25.52-73.67,46.69-41.87,10.4-82.23,4.83-117.55-9.19-58.21,4.46-167.6-1.61-286.61-9.25-181.32,13.77-185.43,14.49-267.29,1.61-183.56,32.2-378.39,38.65-458.9,17.49,201.33,46.89,439.62,36.07,492.43-21.19,103.42,20.28,106.56,12,298.79-11,118.53,27.62,193.62,8.53,249.27-26.68,77.82,46.5,97.91,12,172.44,47,11.08,59.67.67,102.45-1.52,32.75-1.68,50.39,13.44,92.18-3.6-7.86-12.82-9-29.05-5.12-47.81,46.1-39.27,31.81-65.66,13.66-124.64-27.32-88.78,45.86-126.27,8.53-261.22-28.4-102.67,34.15-210,5.13-310.73-18.66-64.74,39.27-331.22,18.48-619.76-5-69.1.3-121.22-23.61-174.15Z"/>
  <g class="hairBlack">
    <path d="M658.93,517.64l10.39-140.1c89.61-261.08-63.73-376-268-344.06-157.74,24.69-225.59,149.28-197.91,312l5,124.25c-75.58,121,42.81,164.33-39.2,236.52,66.35,46.49,222.81,20.51,304-28.16,74.8,41.84,152,70.91,240.58,33.36C635.29,683.11,749.63,591.29,658.93,517.64Z"/>
    <path d="M401.36,33.48c35.5-5.56,69.46-6.67,100.87-3.35C475.4-12.75,400.58-6.42,383.15,36.86Q392,34.94,401.36,33.48Z"/>
  </g>
  <path class="howieShirt" d="M592,711.87l-250.2-1.09-2.95,951.08c81.94,19.18,160.8,20.61,235.6-1.34Z"/>
  <g class="howieLongSleeve">
    <path d="M575.53,791.45l35.1-80.83c94.15,46,193.24,60.12,238.76,98.49,58.38,49.21,41.8,104.45,50.81,159.84,9.13,56.21,23.51,108.12,3.71,175,6.4,44.8,22.68,89.54,16.11,126.15-4.21,23.47,16.63,44.6-2,70.2-13.59,18.63,3.16,22.55-2.56,55-16.2,91.84,18,103.53,3.36,135-27.53,59.35,49.38,47.7-17.35,154.88-4.3,38,1.33,79.64-8.66,105.32-6.08,15.43-102.43,10.32-101.44-6.09.45-32.36,7.23-70.66,7.44-97.12-28.28-7.82-17.42-43-30.92-91.57,6.82,41,3.28,81.19,10.3,107.11,1.29,11.79-18,19.81-44.72,37.35-36.17,23.77-22.73,51.95-155.29,65.82-18-139.7-44.31-369.11-38.34-460.1,3.51-53.43-17.46-136.92-8.76-207.06,4.21-34-4.72-88.53,1.92-134.27C536.48,980.3,533.75,880,575.53,791.45Z"/>
    <path d="M354.25,784.38C381.31,842,391.57,924.26,393,1030.08c2.11,159.61-4.18,272.92-3.38,317.35,2.09,116.14-33.27,282.85-35.45,444-68.81,3.92-100.15-11.76-137.95-48.63-13.61-13.28-25.82-4.61-50.81-33.31,4.71-23.85,1-51.51,6.73-86.66-14,28.69-11.45,64.45-23.91,71.72,2.76,37.7.11,72.44-2.24,103.84-.71,9.44-103.24,4.44-102.59-5,2-29.25-6-60.74-3.49-101.83C.46,1615.53,30,1594.33,24.19,1572c-8.15-19.44-4.81-42.24-6.22-62.48s-9.37-38.42-5.53-59.93c7.33-41,.16-89.18,5.53-118-25.81-40.57,19.36-41.49,5.53-54.4C10.6,1255.06,26.27,1232,30,1197.9c3.2-29.62-8.3-54.4,7.37-91.27-8.29-45.18,6.34-51.72,5.53-76.52C41,973,49.44,986.31,52.08,950.82,56.69,889.05,75,821.76,108.32,795c55.49-44.5,141.06-51.62,213.89-89.42Z"/>
  </g>
  <g class="howieCollar">
    <path d="M569.24,1068.19c-1.39-2.79-3.11-30.54,0-30.54,0-.64,180.87-5.07,180.88-4.42,2.54,0,2.82,29.72,1.44,31.86-5.8,9-73.81,39.62-87.18,40.14C647.59,1105.89,572.46,1074.64,569.24,1068.19Z"/>
    <path d="M196.18,1064.19c-1.54-3.35-.77-32,2.92-31.79,43,2.29,129.19,2.57,172.25,3.5,3.59.08,1.07,29.57-1.17,32.37-6.11,7.66-79.17,36.81-90.43,37.7C266.91,1107,199.55,1071.54,196.18,1064.19Z"/>
    <path d="M351.18,665C300,693.3,295.79,760.55,312.11,859.27c6.67-45.08,22.45-105.95,42.14-74.89-7.15-12.74-12.9-43.54-12.48-73.6L592,711.87a155.16,155.16,0,0,1-16.44,79.58c20.65-36.54,45.28,15.88,50,70.69,11.12-45.27,2.19-59.58,3.18-87.37,1.59-44.49-27.77-100.54-61.26-116.11C522.83,637.89,406.69,634.41,351.18,665Z"/>
  </g>
  <g class="clothesDisplayLine">
    <path d="M457.15,1676.61c-7.45,37.88-1.11,81.49-3.74,119.53-4.35,62.72-1.24,123.58,21.75,145.31"/>
    <path d="M531,1670.59c-6.14,36.7-1.56,90.8-3.24,138.59-1.24,35.14-27.88,53.21-75.52,53.77"/>
    <path d="M168.26,3241.1c41.53,24.35,138.27-8.52,140.59,73.12"/>
    <path d="M409.7,3208c-33.73,14.44-56.88,56.1-53.67,99.49"/>
    <path d="M767,3260.43c-18-15.35-58.8-21.21-100.45-19.33-57.32,2.59-94.55,10.07-113.55,56.55"/>
  </g>
  <g class="clothesOverlapLine">
    <path d="M781.77,993c-6.29,38.6-4.15,213.4-20.23,316.34,9.21,63.15,4.76,126.82-9.66,190.88,10,23.64,9.66,68.63,16,95.48"/>
    <path d="M172.11,1622.79c-3.93-18-2-34.54,6.06-49.68-5.62-42.91-1.46-95.27,7.51-152.27-6.74-59.76-5.81-114.89,3.22-165.14-15-37.54-19-181.32-9.65-267"/>
    <path d="M208.42,3251.42c36.55-16.12,46.24-68.83,62.93-82.72,11-10.12,27.42-10.8,47.22-5.55"/>
    <path d="M238.56,3156.28c14.67-2.85,32.79,3.64,32.79,12.42"/>
    <path d="M666.59,3241.1c-5.86-21.14-11-61.17-10.69-70"/>
  </g>
  <g class="clothesBorderLine">
    <path d="M584.45,770c-50.9,51.89-184.88,59-234.84,3"/>
    <path d="M798.77,1687.24c19,7.76,80.54,9.7,102.66-2.11"/>
    <path d="M148.2,1694.51c-23,9-91.81,5.5-108.32-3"/>
  </g>
  <g class="clothesFoldLine">
    <path d="M751.88,1500.19c-9.72,36-36.76,59.91-49.38,99.56"/>
    <path d="M723.23,1488.91c-25.75,35.26-54.6,60.43-90.12,64"/>
    <path d="M574.53,1267.22c21.13,52.59,51,87.22,94.63,93.72"/>
    <path d="M677.27,1406.9c35.21-29.61,63.67-62,84.27-97.59,14,8.78,24.72,17.83,8.55,29.1"/>
    <path d="M770.2,1227.51c-4.84,29-22.64,46.92-30.75,71.25"/>
    <path d="M758.37,886.92c-9.89,35.83-.76,119.33,17.13,59.47"/>
    <path d="M844.89,886.92c-9.29,25.17-19.59,46.54-33.35,55"/>
    <path d="M855.7,910.35c-28.84,45.06-51.38,95.77-76.7,116.2"/>
    <path d="M796.22,918.46c-2,29.56-6.45,55-14.45,74.51"/>
    <path d="M889.05,1117.62c-11.82,31.24-33.07,55.2-65.79,70.29"/>
    <path d="M903.91,1143.9c-7.15,19.33-16,36.22-27.48,49.42"/>
    <path d="M875.53,1300.56c26.19,31-7.19,31.34-82.91,9.91"/>
    <path d="M880.94,1342.92c-91-7.21-146,22.53-9,23.43"/>
    <path d="M773.69,1551.09c16.23,24.33,44.44,29.11,22.53,64.88"/>
    <path d="M793.52,1451.06c32.33,36,68.83,57.49,111.75,56.77"/>
    <path d="M778.2,1388.88c10.52,7.47,14.69,14.49,8.11,20.72"/>
    <path d="M781.81,1525.86c23.22,28.45,50.26,44.78,82.9,43.25"/>
    <path d="M910.68,1591.64c-3.22,25.8-17.51,43.8-50.47,48.67"/>
    <path d="M468.19,1134.74a602.83,602.83,0,0,0-74.83-17.12"/>
    <path d="M507.85,1158.17c-38.54-12.55-69.66-18.06-89.22-12.61"/>
    <path d="M469.09,1554.69c-31.91,8.68-64.06,10.93-96.5,5.4"/>
    <path d="M540.29,1547.48c-24.36,35.18-78.63,48.34-157.71,43.26"/>
    <path d="M555.78,1616a558.29,558.29,0,0,1-104,4.12"/>
    <path d="M188.9,1255.7c25.16,45.76,76.53,80,121.59,152.1"/>
    <path d="M357.35,1205.94c-24.22,50.14-55.89,86.25-118.06,64.88"/>
    <path d="M343.83,1283.44c-20.49,22.7-35,47.57-10.81,86.51"/>
    <path d="M185.68,1420.84c6.2,21.5,13.33,36.75,21.17,47.34"/>
    <path d="M178.17,1573.11c4.24,26,19.67,52.78,27.78,73.51"/>
    <path d="M188.83,832.85c8.11,21.62,7.54,93.08,18.92,82.9"/>
    <path d="M155.48,826.54C179,868,186.73,922.2,179.25,988.68"/>
    <path d="M121.24,895c5.32-14.68,33.34,9.91,45.06,47.76"/>
    <path d="M68.07,993.26c17.4,29.54,54.07,40.55,89.21,59.47"/>
    <path d="M51.85,1094.19c43.25,62.18,71.19,51.37,109,83.81"/>
    <path d="M37.33,1106.63c15.42,38.93,52.37,53.35,56.87,86.69"/>
    <path d="M151,1219.45c-69.39,25.24-146,50.47-14.42,56.78"/>
    <path d="M168.1,1305.07C57,1321.26-6.43,1335.2,139.26,1339.31"/>
    <path d="M167.2,1450.16c-28.1,25.06-55.55,46.34-75.7,25.23"/>
    <path d="M144.67,1497c-21.42,14.9-26,30.11,3.6,46"/>
    <path d="M66.27,1519.55c34.07,16.39,63.75,36.46,85.61,63.08"/>
    <path d="M24.19,1572c1.58,20.73,10.58,32.29,26.76,35"/>
    <path d="M45.54,1637.6c29.74,0,64.6,6.48,90.12-5.4"/>
    <path d="M139.26,1655.63c-27.85,1.66-51.11,10.47-69.39,27"/>
    <path d="M513.65,1941.16c18.24,17.69,32.81,44.85,44.87,78.51"/>
    <path d="M438,1938.36c-14.35,20.23-25.95,44.9-35.52,72.9"/>
    <path d="M603.38,1908.45c-26.26-5.76-50-8.2-67.3-1.87"/>
    <path d="M423.93,1897.24c-23.06-3.28-45.46-1-67.3,5.6"/>
    <path d="M691.23,2306.61c8.29,46.68,21.68,88.15,43.93,120.57"/>
    <path d="M299.62,2387.92c-10.83,31.85-30.24,56.82-60.75,72.9"/>
    <path d="M739.84,2826.27c-19.79,54.61-93.47,25.23-141.14-28"/>
    <path d="M755.06,2890.31c-20.83,56.53-75,80.83-60.09,150.92"/>
    <path d="M299.62,2953.38c-61.06,7.48-95.33,41.12-46.39,73.83"/>
    <path d="M304.29,2998.24c73.84,10.28,158,68.23,32.72,73.84"/>
    <path d="M232.94,3056.37c22,20.06,22,45.62-10.89,40"/>
    <path d="M421.33,3090.19c-33.85,22.08-100.89,11.8-152.55,35.16"/>
    <path d="M405.23,3131.89c-32.26-12.13-70.09,9.35-106.54,5.61"/>
    <path d="M710.86,3131.89c-57,32.72-95.33-19.62-132.72,1.87"/>
    <path d="M693.1,3109.46c38.32-12.15,48.7-22.69,44.87-31.78-8.13-19.24-44.41,12.46-91.6,5.61-32.53-4.72-75.74-52.19-80.38-34.58s13.09,52.34,61.69,57"/>
    <path d="M354,2538c24.06,18.86,41.91,42.07,41.14,78.36"/>
  </g>
  <g class="eye">
    <rect class="sclera" x="336.57" y="338.44" width="305.99" height="79.28"/>
    <g class="irisBrown">
      <ellipse cx="399.83" cy="374.18" rx="23.68" ry="24.3"/>
      <ellipse cx="580.79" cy="374.18" rx="23.68" ry="24.3"/>
    </g>
    <g class="pupil">
      <ellipse cx="399.83" cy="374.18" rx="9.21" ry="9.45"/>
      <ellipse cx="580.79" cy="374.18" rx="9.21" ry="9.45"/>
    </g>
  </g>
  <g class="skinFilipino">
    <path d="M579.24,609.49c-6.13,46.22-6.13,92.26,12.73,102.38-23,79-227.16,88.89-250.2-1.09,17.74-9,17.74-67,15-109.39"/>
    <path d="M889.18,1794c-15.59,9-73.79,6.68-92.22-3-2.3,15.94-7.59,29.71-13.49,43.86,3.28,61.45,3.19,121.6,1.28,178.66,28.5-3.24,13.24-68.68,23.91-92.77,20.63,42.52,28.83,54.56,28.8,70.68-3.36,12.13-4.29,50.47-10.38,55.8-30.5,29.2-28.55,61.65-2.59,55.81,4.54-7.79,21.11-11.44,38-32.85,28.55-10.38,42.48-39.83,43.78-62.54,12.32-14.27,21.42-65.76,17.52-85.65C920.08,1903.25,905,1864.19,889.18,1794Z"/>
    <path d="M49,1797.15c-16.79,65-40.81,101.17-44.35,119.21-3.91,19.89-10.22,88.14,15.61,98.27,3.93,19.25,11.9,20.33,36.26,37,11.79,28.36,20.27,33.26,31.73,50.61,15.79,13.79,40.25-16.73,11.33-52.88-6.09-5.33-8-35.47-11.33-47.59,0-16.12.52-45.11,21.15-87.63,5.78,11.44,7.37,30.78,5.06,43.87-4.78,27.09,3.24,47.34,28.88,48.11,12.7.39,6.52-21.86,15.21-67.52,5.92-68-8.28-99.28-15.46-137.93C129.09,1805.8,67.93,1803.17,49,1797.15Z"/>
    <path d="M256.34,509.66c-27.61,14.16-33.35-17.26-47.91-40-29.06-45.32-30.14-102.66-14-118.18,15.33-14.73,37.91-9.52,44.56,17.7,5.07.8,10.41,3.27,10.92,6.55,8,8.8-.51,97.25,27.09,161.64-9.45-68.75-13-125-11.63-179.08.36-14.52,21-66.71,38.28-98.33,9.89-16.1,4.54-48.65,6.55-74.26,53.16-17.94,142.07-19,185.23,3.06C540.85,166.33,619.24,170,658.84,187c-6.57,61,18.83,100.15,8.55,170.33,3.73,34.62,5.6,68.31,0,99.82-5.82,32.77-7.86,109.09-42.6,143.06-32.41,31.71-53.08,41.86-82,61.14-37.85,25.2-90.94,16.55-106.81,9.41-36.29-16.33-69.65-26.46-98.35-43.19C282.81,595.67,269.74,571.72,256.34,509.66ZM549.11,384.22c24.29,9.81,60.19,4.88,75.75-13.82-10-8.39-20.69-15.23-39.51-15.8-20.66-.63-32.76,7.78-43.92,24C537.47,384.32,546.13,383,549.11,384.22ZM444,377.15c-10.78-17.28-26.56-25.4-46.78-24-21.69,1.5-29.53,9.66-39.44,16.27,21.77,28,54.57,18.56,77.46,12.84C438.33,381.48,448.06,383.7,444,377.15Z"/>
  </g>
  <g class="skinOverlapLine">
    <path d="M20.25,2014.63c-7-21.55-.24-56-5-66.73"/>
    <path d="M46.4,1948.75c5.92,15.33-12.29,56.46,10.11,102.9"/>
    <path d="M906.25,2007.67c7.82-31.45,1.13-55.52,6.47-67.19"/>
    <path d="M885.21,1945c-7.55,20.42,17.4,52.11-22.74,125.2"/>
  </g>
  <g class="skinFoldLine">
    <path d="M814.92,1903.75a47.19,47.19,0,0,0-6.26,17"/>
    <path d="M104,1900.14c.61,4.65,3.75,9.93,5.35,14"/>
    <path d="M233.38,399.4c-17.89-71.83-47-16.81-31.65,17.81"/>
    <path d="M233.88,422.16c-5.44,9.4,10.88,29.18,2.47,36.11-6.61,5.44-10.83-18.88-18.3-25.23-11-9.34-9.66-44.73,0-39.08"/>
  </g>
  <g class="head54">
    <path class="lipMaleBrown__noStroke" d="M480.55,552.27c10.18,4.82,17.2,4.36,26.79-.27,10.81,7.07,32.36,5.3,54.53-.6-24.53,19.3-25.06,45.45-71.95,44.84-41.53-.54-49.09-26.12-76.58-41.39C440.52,559.2,462.92,560.82,480.55,552.27Z"/>
    <path class="lipBorderLine" d="M408.49,552.27c38.31,20.62,122.69,20.62,158.32-4"/>
    <g class="lipEdgeLine">
      <path d="M480.55,552.27c10.18,4.82,17.2,4.36,26.79-.27"/>
      <path d="M453.77,584.68c20.36,15,53.57,16.34,76.88-1.61"/>
    </g>
    <g class="smileLine">
      <path d="M573.52,522.8c10.1,1.4,23,15.43,15.71,29.74"/>
      <path d="M406.27,519.15c-12.09,7.11-27.78,16.55-18.8,37.88"/>
    </g>
    <g class="noseLine">
      <path d="M449.77,476.77c-8.25,5.36-9.83,25,1.4,31.71"/>
      <path d="M529.46,504.28c-37.73,24.38-56.19-5.87-67.63-1.41"/>
      <path d="M537.32,477.9c9,9.82,7.56,27.63-7.54,33.93"/>
    </g>
    <g class="eyeFoldLine">
      <path d="M615.61,397.08C602.7,409.71,573,409.15,560.05,401"/>
      <path d="M428.72,399c-17.12,13.47-45.46,10.11-63.42-1.12"/>
    </g>
    <g class="eyeCornerLine">
      <path d="M357.75,369.42c-2.64,1.78-10.18,6.05-12.69,6.1"/>
      <path d="M637.1,376.84c-3.92-.36-9.41-3.71-12.24-6.44"/>
    </g>
    <g class="eyeCreaseLine">
      <path d="M444,377.15c-9.48-52.95-76.71-37.32-92.7-18.8"/>
      <path d="M630.2,358.35c-31.43-19.92-79.69-23.27-88.77,20.22"/>
    </g>
    <g class="eyebrowBlack">
      <path d="M531.69,305.69c-4.9,29.4,76.94,6.37,100.47,19.11,8.36,4.53,19.27-3.88,15.68-5.39C607.16,268.93,595.24,301.19,531.69,305.69Z"/>
      <path d="M451,303.44c5.81,31.66-87.71,8.75-111.24,21.49-8.37,4.53-16.65-5.46-13.07-7C371.26,274,388.8,297.05,451,303.44Z"/>
    </g>
  </g>
</svg>
