<svg id="presence" xmlns="http://www.w3.org/2000/svg" viewBox="0 0 920.58 2735.01">
  <defs>
    <style>
      .cls-1 {
        fill: none;
      }

      .cls-1, .cls-2, .cls-3, .cls-4, .cls-5 {
        stroke: #000;
        stroke-miterlimit: 10;
        stroke-width: 2px;
      }

      .cls-2 {
        fill: #abc2c0;
      }

      .cls-3 {
        fill: #91a69e;
      }

      .cls-4 {
        fill: #869992;
      }

      .cls-5 {
        fill: #b7d0ce;
      }
    </style>
  </defs>
  <title>steamTunnel</title>
  <g id="howieSole">
    <path class="cls-1" d="M905.15,2606.4l-410.1,70.32a103.58,103.58,0,0,0,19.71,42c11,14,77.24,5.2,124.1,11.28,45.71,5.92,93,4.6,136.25.13,69.45-7.17,117.88-30.41,143.66-81.71C922.17,2635.75,914.36,2617.43,905.15,2606.4Z"/>
    <path class="cls-1" d="M4.57,2522.51A154.62,154.62,0,0,0,1,2558.2c.44,37.35,118.37,58.9,199.6,114.55,60.36,41.36,150.89,36,215.09-6.94,6-14.33,6.17-28.77-3.34-42.52Z"/>
  </g>
  <g id="howieShoe">
    <path class="cls-1" d="M905.15,2606.4c-16.17-19.36-146.53-10-246.33-88.12l-160.55,36.45c-1.26,38-12.26,82.08-3.22,122,50.89,18.55,129.89,14.1,185.47,20.33C781.19,2708.33,890.35,2669.14,905.15,2606.4Z"/>
    <path class="cls-1" d="M226.65,2642.38c70.72,38.69,132.24,12.25,185.71-19.09-36.72-53.12-117.16-8.68-193.52-193.53l-139.72-24.3c-27.19,37.92-63.22,66.39-74.55,117.05C45.35,2572.48,134.93,2592.21,226.65,2642.38Z"/>
  </g>
  <g id="clothesOverlapLine">
    <path class="cls-1" d="M293.79,2586.25c-31.22-18.52-60.05-55.37-85.32-99.68-10.44-18.29-27-25.38-49.32-25.38"/>
    <path class="cls-1" d="M210.45,2459.47c-3.35,4.06-7.56,10.68-2,27.1"/>
    <path class="cls-1" d="M797.34,2611.78c-49.47-13.08-92.2-31.07-124.93-49.57-14.72-8.32-41-7-56.6,1"/>
    <path class="cls-1" d="M680.37,2533.56q-21.55,14.33-8,28.65"/>
  </g>
  <g id="clothesDisplayLine">
    <path class="cls-1" d="M41.11,2452.52c13.65,28.91,26.57,70,16.14,110.69"/>
    <path class="cls-1" d="M493.6,2606.4c34,8.73,56.61,41.33,61.8,82.67"/>
    <path class="cls-1" d="M323.51,2571.94c-75.17,50.32-127.77-25.14-159.41,39.84"/>
    <path class="cls-1" d="M812.43,2584.17c-3,63.56-146.35,35-159.48,110.62"/>
  </g>
  <path id="howiePants" class="cls-1" d="M352.91,2240.87c-71.94,114.36.63,171.05-96.09,181.15-11.69,8.67-18.95,18.73-12.6,33.08-84.4,13.44-153.28,7.41-201.63-36.23-44.47-51.39,16.17-49.37,28.35-64.59-27.28-37.55-1.48-71.78,34.23-112.84,54.47-62.62,54-165.9,137.47-276.23,25.88-34.2,22.24-78.19,41-99.24-22.77-14.61-.76-56.63-20.48-108.69-29.67-78.31-77.89-149.67-80.34-228.41-3.57-115.32-85.06-277.23-52-497.76H668c26.11,116.38,9.88,151.58,12.6,181.15,11,119.47-51.91,282-74,466.26-10.39,86.58-33.48,169.87-71.1,249.9-8.59,57.5,54,216.56,60.54,309.08,12.12,170.57,112.56,158.59,63.57,242.51,8.19,37.43,47.93,24.71,20.85,53.55-27.5-7.64-61.41,7.72-64.56,29.65-54.08,48-100.19,15.7-123.52,30.13-6.48-46.59-83.15-27.71-50.71-113.82C361.37,2471.85,419.75,2411.11,352.91,2240.87Z"/>
  <g id="clothesDisplayLine-2" data-name="clothesDisplayLine">
    <path class="cls-1" d="M501.16,1088.82c8,30.44-11.2,67.56-7.86,102.22,1.62,39.25-1.61,81.88-26,106.63"/>
    <path class="cls-1" d="M556,1087.73c8.72,26.52-15.51,60.09-8.75,104,7.5,49.19-14,72.48-61,73"/>
    <path class="cls-1" d="M676.55,1165.4a57.63,57.63,0,0,1-32.38-24.64"/>
    <path class="cls-1" d="M365.26,1146.57c-18.87,13.4-39.63,23.53-65.93,24.07"/>
  </g>
  <g id="clothesOverlapLine-2" data-name="clothesOverlapLine">
    <path class="cls-1" d="M283.6,1866c42.41,23.88-7.85,49.79,18.85,70.21,15.47,2.22,30.63,268.6,50.46,304.69"/>
    <path class="cls-1" d="M462.42,1328.89c30.36,175,10.71,335.75,53.57,441.13,7.15,33.93,36.07,87.45,19.42,158.4"/>
  </g>
  <g id="clothesFoldLine">
    <path class="cls-1" d="M467.3,1297.67c-9,9.12-71-40-75.31-23.32-4,15.32,82,12.66,70.43,54.54"/>
    <path class="cls-1" d="M446,1326.33c-20.31-.83-40,7.8-59.32,22.66"/>
    <path class="cls-1" d="M613.41,1253.06c-29.53,20.46-59.77,36.57-91.31,44.61"/>
    <path class="cls-1" d="M503.27,1326.28c21.8,6.39,41.43,20.73,59.06,42.37"/>
    <path class="cls-1" d="M513.67,1283.06c-13.64,15.32-27.39,27.39-41.36,33.25"/>
    <path class="cls-1" d="M430.15,1603.38c4.05,98.93,86.67,147.7,97,204.45"/>
    <path class="cls-1" d="M499.08,1899.36c-45,21-82.34,54.41-112.72,98.93"/>
    <path class="cls-1" d="M439.83,2443.05c-32.13-25.32,29.21-61.35,74-74"/>
    <path class="cls-1" d="M574.2,2416.76c51.6,9.73,90.09,15.74,50.63,53.55"/>
    <path class="cls-1" d="M441.58,2479.52c33.31,7.34,83.94-3.54,96.59,17.08,6.07,9.88-23.34,14.74-57.44,17.52"/>
    <path class="cls-1" d="M659.52,2480c-26.9,30.22-110.64,58.45-160.29,54.56"/>
    <path class="cls-1" d="M325.08,2300.93c-6.83,21.38-41.48,33.07-64.4,54.49"/>
    <path class="cls-1" d="M70.94,2354.28c15.33,24.33,37.86,41.14,67.92,48.66"/>
    <path class="cls-1" d="M92.7,2354.28c-4.93-26.29,12.2-34.54,30.59-18.44,41.48,36.33,76.36,59.91,95,57.44,28.76-3.83,75.48-13.34,59,6.44"/>
    <path class="cls-1" d="M186.29,2436.75c-58.71,2.69-90.37-33.81-129.56-37"/>
    <path class="cls-1" d="M256.82,2422c-12.81,1.63-27.25-5.26-42.82-5.26"/>
  </g>
  <path id="howieShirt" class="cls-1" d="M328,156.23l219.17,12.08c86,212.78,93.48,543,82,901.69-53.48,19.87-109.6,25.52-169.12,13Z"/>
  <g id="skinLatino">
    <path class="cls-1" d="M544.07,49.09l3.08,119.22c-37.1,34.51-134.6,31.92-219.17-12.08L335.75.05"/>
  </g>
  <g id="howieLongSleeve">
    <path class="cls-1" d="M555.35,245.76c-2.79-86.64,1.2-151.6,30.47-135.74,76.36,34.18,170.67,51.87,202.83,133,19.44,49,7,95.48,8.26,134.48s13,60.21-3.37,99.36C783.88,499.93,818,564.88,791,588c11.35,12.8,4.9,27.6,7.58,41.27,3.39,17.33,15.16,24.42-2.53,53,14.32,20.21-8.42,23.58-1.68,31.16,10.17,11.44,21.89,26.1,4.21,41.26C798.9,793.32,808.73,835,807,876c44.94,51.51-14.82,68,18.52,277.9-48-11.1-97.86-3.56-143.54,22.34q2.38-36.48-.78-65.28c-18.38,18.8-36.74,31.73-55.05,38.27-11.28-56.61-11.7-115.43-23.2-168.19C579.87,875,588.3,698.21,568.06,508.83,558.67,420.88,564.54,351.81,555.35,245.76Z"/>
    <path class="cls-1" d="M415.14,151.46,297.49,106.07c-80,44.71-182,59.71-184.35,126C100.36,246,93.75,260.17,94.61,274.67,69.85,312,71.45,376.88,40.88,465.51,14.42,531,21.94,574.55,20.43,629c-2,72-18,127.06-11,149.63C14.13,794,.17,833,10.31,859.22c16.76,43.31,20.23,109.31,43.54,122.29-23.62,25.5,21.6,76.69,47.25,134.32,5.45,33.88,15.43,62.48,29.64,86.16,7.74-38.74,65.77-47.75,112.1-44.4-12.21-29.34-21.17-57.23-25.94-87.86,53.64-11.53,106.67,83.51,257.53,78.53,5.21-55,29.62-98.83,32.2-138.31l-22.35-30.82c25.43-45.46,9.69-67.18,13.1-104,3.76-40.67,16.27-83.84,7.71-128.68-14.65-76.72,18.57-269.49-11.44-390.55-10.51-42.39,1-74-37-127.06C420.75,178.76,433.62,181.79,415.14,151.46Z"/>
  </g>
  <path id="howieLongSleeveInner" class="cls-1" d="M484.28,979.13c-36.9,36.59-18.55,48.63,22.35,30.82C505.75,997.48,492.1,990.49,484.28,979.13Z"/>
  <g id="howieCollar">
    <path class="cls-1" d="M415.14,151.46c-19.42,5.31-34.28,45.06-48.21,91.79-25.61-53.87-59.94-64.76-70.64-102.44C286,104.49,307.7,55.52,333.19,51.59,327,116.06,399.61,127.57,415.14,151.46Z"/>
    <path class="cls-1" d="M616,191.15c-37.89-98.71-58.73-84.71-60.62,54.61-9.84-54.8-8.65-118.28-11-185.74C574.33,67.93,604.62,131.88,616,191.15Z"/>
    <path class="cls-1" d="M579,401.09c2.38-2.84,126.05-17.89,128.85-15.46,3.31,2.88,2.89,35.2.73,39-2,3.54-47.31,30.54-56,32.4-10.31,2.2-68.7-13.69-71.42-16.94C578.35,436.67,576.14,404.53,579,401.09Z"/>
    <path class="cls-1" d="M463.43,410.66c-2.11-1.81-155.72,10.42-157.56,12.52-3.69,4.21-1.34,36.89,2.21,41.23s69.95,22.82,82.46,21.35c11-1.29,74.18-33.21,75.84-36.08C468.74,445.61,467,413.72,463.43,410.66Z"/>
  </g>
  <g id="clothesOverlapLine-3" data-name="clothesOverlapLine">
    <path class="cls-1" d="M723.46,368.53c5.7,75.57-1.49,150.05-30.77,222.66,14.18,47.84,0,124.91-1.81,203.65-4.53,29.87,24.06,211,15,266.21-4.43,20.4-8.48,37.38-24.67,49.9"/>
    <path class="cls-1" d="M216.9,1069.73c4.22-22.07-3.53-32-6.65-48.6-3-15.9,17.2-33.49-8.14-52.5,26.94-29.2-8.15-27.15-22.63-169.26,25.34-38-10-40.73-3.62-67,32.91-6.26,8.64-30.85,12.67-51.59a607.32,607.32,0,0,0,10.86-102.28c.45-19,27.16-28.06,7.24-60.65,24.44-13.57,20.16-37,25.35-62.45,5.72-28.07,26.25-58.83,12.67-95"/>
  </g>
  <g id="clothesFoldLine-2" data-name="clothesFoldLine">
    <path class="cls-1" d="M713,258.5c5.58,29.6,9.6,57.51-.69,69.95"/>
    <path class="cls-1" d="M737.64,275.64c2.05,26.75-8.25,88.56-14.18,92.89,6.66.23,14.2-7.91,22.41-22.25"/>
    <path class="cls-1" d="M758.9,444.35c-12.28-.64-24.12.64-34.83,6.86"/>
    <path class="cls-1" d="M692.69,591.19c-15.64,17.7-22.75,40.53-13.35,73.29"/>
    <path class="cls-1" d="M791,588c-8.77,10-34.87,3.11-38.3,12.71"/>
    <path class="cls-1" d="M765.75,659c-18.06-1.37-35-.1-50.74,4.12"/>
    <path class="cls-1" d="M796.07,682.31c-6.31,6.17-47.46-13-99.12,12.33"/>
    <path class="cls-1" d="M696.09,707c18.23,14.43,70.46,2.5,82,16.49"/>
    <path class="cls-1" d="M764.38,742.66c5.09-12.86-25.37-11.66-39.09-13"/>
    <path class="cls-1" d="M798.6,754.73c-12.27,5.76-41.76-2.47-28.05,21.53"/>
    <path class="cls-1" d="M807,876c-2.76,32-7.49,60.91-37.15,51.14"/>
    <path class="cls-1" d="M802.78,981.31c-13.65,6.34-27.16,9.88-40.46,8.92"/>
    <path class="cls-1" d="M798,1025.89c-13.19-22.66-46.63-13.72-72.69-18.52"/>
    <path class="cls-1" d="M627.23,973.08c11,32.92,28.11,67.89,49.37,72"/>
    <path class="cls-1" d="M565.51,939.48c-10.47,4.88-21.32,8-32.92,7.54"/>
    <path class="cls-1" d="M600.66,969.62c-23.44,11.7-46.22,19.59-68.07,22.14"/>
    <path class="cls-1" d="M610.41,1025.89c-21.25,3.5-41.77,3.8-61.36,0"/>
    <path class="cls-1" d="M565.14,475.87c-15.85,10.84-31.53,18.59-46.95,22"/>
    <path class="cls-1" d="M506.44,522.54c13.33-4.87,26.17-8.57,37.91-9.62"/>
    <path class="cls-1" d="M293.25,583.56c24.37,71.68,53.48,137.32,88.47,195.45"/>
    <path class="cls-1" d="M213.74,543.58c30.52,57.65,69.22,125.7,111.74,186"/>
    <path class="cls-1" d="M425.73,991.27c11.73,1.82,25.94,18.16,42.91,25.36"/>
    <path class="cls-1" d="M461.31,943.27c-12.05,17.09-25,29.88-39.14,37.42"/>
    <path class="cls-1" d="M440.31,867.88c1.55,14.26-12.75,89.72-23.37,105.43"/>
    <path class="cls-1" d="M391.57,936.82c-1.57-56.11,34.56-27.86,10.15,24.4"/>
    <path class="cls-1" d="M328,867.88c22.68,32.86,37.22,67.35,55.41,87.47"/>
    <path class="cls-1" d="M261.32,829.11C297.37,904,325,909.2,363.69,962.47"/>
    <path class="cls-1" d="M287.53,944.54C311,959,340.06,965.29,354.8,979.13"/>
    <path class="cls-1" d="M318.77,1016.63c10.83-10.89,22-18.29,33.87-18"/>
    <path class="cls-1" d="M113.14,232.06c7.11,10.55,8.48,21.45-4.6,33.21"/>
    <path class="cls-1" d="M196.57,364.3c-26.41-46.21,21.27-44.75,34.48,24.94"/>
    <path class="cls-1" d="M278.73,324c-3.65,26.67-13,51.84-30.59,74.86"/>
    <path class="cls-1" d="M244.65,360.38c0-24.94-40-75.31-19.47-81.17,17.16-4.91,32.09,58.68,19.47,81.17"/>
    <path class="cls-1" d="M196.57,491.21a155.11,155.11,0,0,1-84.36,2.94"/>
    <path class="cls-1" d="M206.63,517.87c-13.73,3.42-32.8,7.09-37.2,15.89"/>
    <path class="cls-1" d="M38.12,489.75c-2,39.6,12.13,67.49,37.41,87.29"/>
    <path class="cls-1" d="M177.5,633.53c-24.5,31-60.59,49.58-117.38,46.21"/>
    <path class="cls-1" d="M50.59,709.09c85,1.9,121.28,11.47,2.2,45.48"/>
    <path class="cls-1" d="M175.86,732.39c-29.91,3.11-52.47,16-2,29.52"/>
    <path class="cls-1" d="M56.46,770.71c42.12-2.05,81.1,1,112.23,16.87"/>
    <path class="cls-1" d="M116.61,816.19C81.05,820.06,49.29,828,30.78,849.94"/>
    <path class="cls-1" d="M185.57,937.23C142,973,98.3,1000.39,53.85,981.51"/>
  </g>
  <g id="clothesBorderLine">
    <path class="cls-1" d="M101.1,1115.83c17.21-31.44,74.77-57.3,115.8-46.1"/>
    <path class="cls-1" d="M815.32,1055.14c-28.67-7.83-80.38-5.39-109.43,5.91"/>
    <path class="cls-1" d="M456.63,228.81c34.19,3.46,77.08-4.52,93.38-23.55"/>
  </g>
  <g id="weapon">
    <g id="gasketLight">
      <path class="cls-2" d="M305.94,1048.59c7-10.48,26.24-10,42.94.93s24.65,28.4,17.74,39l-6.5,9.91-60.79-40Z"/>
      <path class="cls-2" d="M393.63,1093c-7.2-4.73-4-22.36,7-39.27s25.62-26.57,32.75-21.88l12.15,8-39.63,61.24Z"/>
      <path class="cls-2" d="M363.69,962.47c6.82-10.17,25.66-9.61,42.11,1.2s24.37,27.85,17.66,38.09l-6.3,9.61L357.29,972Z"/>
    </g>
    <g id="gasketMedium">
      <path class="cls-3" d="M299.33,1058.43c-7.07,10.55.82,28.11,17.66,39.18s36.16,11.4,43.13.77-1-28.06-17.74-39.05S306.39,1047.91,299.33,1058.43Z"/>
      <path class="cls-3" d="M100.49,1375.79c-5.46,8.18.12,21.4,12.47,29.52s26.76,8,32.17-.18-.22-21.37-12.52-29.45S105.94,1367.64,100.49,1375.79Z"/>
      <path class="cls-3" d="M405.92,1101.09c7.2,4.74,21.95-5.27,32.89-22.25s13.87-34.3,6.74-39-21.73,5.1-32.68,21.93S398.71,1096.36,405.92,1101.09Z"/>
      <path class="cls-3" d="M357.29,972c-6.87,10.24,1,27.4,17.58,38.3s35.53,11.36,42.29,1S416,984,399.49,973.19,364.13,961.82,357.29,972Z"/>
    </g>
    <g id="gasketDark">
      <path class="cls-4" d="M106.68,1381.16c-3.79,5.69.09,14.89,8.68,20.53s18.61,5.59,22.38-.12-.14-14.87-8.7-20.5S110.47,1375.48,106.68,1381.16Z"/>
      <path class="cls-4" d="M412.8,1092.21c5,3.29,15.25-3.65,22.86-15.45s9.67-23.89,4.71-27.15-15.15,3.56-22.76,15.29S407.79,1088.92,412.8,1092.21Z"/>
    </g>
    <path id="joint" class="cls-2" d="M400.65,1053.75c5.27-8,11.37-14.48,17.07-18.49l-20.48-13.46,10.06-15.28c4.7-7.15-.8-19-12.28-26.58s-24.63-7.91-29.38-.8L324.28,1041c7.65.28,16.42,3.12,24.6,8.5s14.25,12.29,17.51,19.19l2.89-4.39L390.07,1078l.32-.49C391.73,1070.45,395.25,1062,400.65,1053.75Z"/>
    <path id="pipe" class="cls-5" d="M132.61,1375.68c11.93,7.84,17.57,20.48,13,28.71L350.1,1093.47c4.84-7.36-.68-19.53-12.34-27.19s-25.06-7.94-30-.61L100.49,1375.79C105.94,1367.64,120.32,1367.6,132.61,1375.68Z"/>
  </g>
</svg>
