<svg id="presence" xmlns="http://www.w3.org/2000/svg" viewBox="0 0 833.71 2757.24">
  <defs>
    <style>
      .cls-1 {
        fill: none;
        stroke: #000;
        stroke-miterlimit: 10;
        stroke-width: 2px;
      }
    </style>
  </defs>
  <title>usherLooking</title>
  <g id="sole">
    <path class="cls-1" d="M313.5,2637.59c-44.37,13.71-85.71,28.56-113.57,43.38-33.21,17.66-78.48,18.48-98,17.55-36-1.72-77.5-13.7-92.61-26.38C.6,2664.81-3.32,2640,7.89,2630.76,226.79,2571.58,356.34,2559.31,313.5,2637.59Z"/>
    <path class="cls-1" d="M540.15,2660c6,14,8.78,41.95,4.39,46.82-12.71,20-30.28,35.36-54.59,41.41-62,15.4-132.09,6.36-169.14-7.85-25-9.61-34.6-37-24.37-72.06Z"/>
  </g>
  <g id="shoe">
    <path class="cls-1" d="M184.79,2466.63c-35.8,42.4-77.24,94.56-116.21,100.82-43.1,6.93-74.65,49.25-60.8,75.42,13.64,25.76,84.66,31.87,129.3,31.1,37.43-.65,72.74-29.39,128.53-41.64,28.1-6.18,51.78-20.21,73.11-37.94C322.14,2510.26,272.85,2465.26,184.79,2466.63Z"/>
    <path class="cls-1" d="M518.44,2539.58c5.76,53.27,33.92,101,27,128.86-7.53,30.46-24,51.16-56.12,57.16-59.81,11.17-131.38,2.16-159.09-5.54-36.94-10.26-43.1-45.63-30-74.11,19.33-42.07,21.64-87.32,38.41-123Z"/>
  </g>
  <g id="clothesOverlapLine">
    <path class="cls-1" d="M68.58,2567.45c26.11-7.11,73.2-3.19,94.91,7.39"/>
    <path class="cls-1" d="M490.37,2648.63c-33.35-30.09-119-34.67-157.62-14.39"/>
  </g>
  <path id="usherPants" class="cls-1" d="M120.29,980.62c-.55,120.7-35.06,190.07-35.6,283.12-1.35,231.85,75.6,625.45,75.49,679.39-.14,64.72,15.67,133.59,20.57,194.11,10.93,135.29-13.83,249.38,14.48,265.56a119.15,119.15,0,0,1-.09,37.55c-17.58,1-13,42.87-44.4,56.65,38.67-8.71,104.88,19.91,158.46,42.87-2.83,16.88-2.7,32,3.06,43.64,64.31-51.29,221.24-15.31,227.36,18.37-9.18-65.83,34.66-104.43,3.89-153,19.1-171.87,14.43-342.86,13.92-510.29-.87-281.51,105-653.49,75.2-980.24C553.54,986.9,213.83,995.27,120.29,980.62Z"/>
  <g id="usherBelt">
    <path class="cls-1" d="M150.85,997.76c-13.46-.9-25-2-34-3.42-5-.34-9.06,58.94-4.07,59.28,9.15,2,21.7,3.52,36.88,4.66C148.12,1042.48,148.67,1010.7,150.85,997.76Z"/>
    <path class="cls-1" d="M356.83,1058.23c-2.42-15.14-3.73-46.38-2.43-60.09-71.53,2.7-140.21,2.9-189.07.46-2.12,13.71-2.59,45.5-1,60.62C213.93,1061.89,284.66,1061.2,356.83,1058.23Z"/>
    <path class="cls-1" d="M560.62,984.65C504.44,991.72,436,994.72,369,997.56c-1.28,13.9,0,45.07,2.48,60,71.43-3.23,143-6.6,195.61-13.06C566.85,1026.66,563.79,996.83,560.62,984.65Z"/>
    <path class="cls-1" d="M636.87,971.83c-17.2,4-38.11,7.64-61.57,10.88,3.17,12.53,6.18,42.31,6.34,59.94,26.61-3.62,47.09-7.54,58.33-11.58C645,1030.72,641.84,971.48,636.87,971.83Z"/>
  </g>
  <path id="usherBeltBuckle" class="cls-1" d="M296,989.88c6.58,6.29,9.65,74.48,1.94,80.82s-105.68,4.65-112,0c-6.56-4.84-11.63-75.14-3.06-81.35C189.26,984.69,288.62,982.87,296,989.88Zm-99.82,13.2c-6.58,4.2-2.68,51.71,2.36,55,4.86,3.15,80.08,4.35,86.1,0s3.56-50.37-1.49-54.62C277.46,998.7,201.08,999.93,196.13,1003.08Z"/>
  <g id="clothesDisplayLine">
    <path class="cls-1" d="M224.44,1102.42c7.53,61.88-1.67,232.44,67.2,242.87"/>
    <path class="cls-1" d="M477.33,1070.89a423,423,0,0,1,64.07,97.73"/>
  </g>
  <g id="clothesOverlapLine-2" data-name="clothesOverlapLine">
    <path class="cls-1" d="M291.64,1345.29c0,114.42,14.77,295.59,10.9,355.52-6.85,106,46.31,638.83,6.66,839.06"/>
  </g>
  <g id="clothesFoldLine">
    <path class="cls-1" d="M226.83,1296.35c-32.77-31.51-79.3-59.21-92-29"/>
    <path class="cls-1" d="M307.49,1288.79c56.42-65.74,120.67-89.06,192.85-69.33"/>
    <path class="cls-1" d="M316.32,1306.43c39.07-18.9,83.18-18.9,44.11,17.65"/>
    <path class="cls-1" d="M248.25,1339.2c-39.37-6.94-67.37-2.29-63,35.3"/>
    <path class="cls-1" d="M541.93,1747.58c-9.82,72.17-20,143.78-76.88,161.33"/>
    <path class="cls-1" d="M202.88,1916.47c41.77,26.86,69.24,1.26,92-41.59"/>
    <path class="cls-1" d="M518,2474.84c-61.76,47.89-158.81,76.88-173.93,27.73"/>
    <path class="cls-1" d="M543.51,2448.9c1.76,28.65-8.73,50.07-28,66.27"/>
    <path class="cls-1" d="M195.23,2402.8c29.08,14.06,50.5,38-.09,37.55"/>
    <path class="cls-1" d="M302.45,2394.17c-35.29,79.41-80.66,42.85-102.09,78.15"/>
  </g>
  <path id="usherShirt" class="cls-1" d="M796.68,424.71c-8.94-45.26-17.42-114-32.47-137.78-11.29-19.77-7.12-45.93-33.25-76C690.4,164.21,624.1,142,562.21,127,353.67,76.44,118.86,95.3,107,233.87c-7.87,91.8-25.34,195.59,0,220.93C95.1,512.6,105,591.63,99.86,653.55c-7.74,92.42-30.89,152,13.46,190-31.68,26.13-29.3,121.95,7,137,93.54,14.65,433.25,6.28,512.34-22.25,42.79-119,24.91-200.11,22.31-261.27-2.17-51.09,23-63.34-7.75-133L813.1,530.54C827.56,475.39,804.5,464.27,796.68,424.71Z"/>
  <g id="usherShirtInner">
    <path class="cls-1" d="M647.19,564.15c42.42,8.93,135.76-8.49,165.91-33.61,4.11-3.42,10.78,34.3,6.7,37.75-19.54,16.52-120.14,42.75-163.68,32.5C651.37,599.67,642.41,563.14,647.19,564.15Z"/>
    <path class="cls-1" d="M341.34,240.83c28.21-29,35.24-18.12,63-29.68,21.76-9.06,58.56,32.44,73,54.22,28.93-27.07,35.18-46.75,53.19-70,28.93-37.32,40-64.8,27.06-75.58-29-24.17-27.81-45.46-53-56.69-60.58-27-150.85-24.78-195.21-6.76-40.91,18.89-70,84.91-72.78,177.29,26.08-25.66,47.48-40.92,60.9-36.73S312.53,217.48,341.34,240.83Z"/>
  </g>
  <g id="clothesOverlapLine-3" data-name="clothesOverlapLine">
    <path class="cls-1" d="M599.66,388.7c-3,22.23,15.15,59.61,22.22,95,5.44,27.19,2,61.63,25.31,80.48"/>
    <path class="cls-1" d="M107,454.8c7.58-50,21.86-107.52,40.05-150"/>
    <path class="cls-1" d="M341.34,240.83c-14.6,24.53-22.93,51.3-22.56,81.19"/>
  </g>
  <g id="clothesFoldLine-2" data-name="clothesFoldLine">
    <path class="cls-1" d="M752.22,455.38c-4.92,28.4-13,55.32-28.29,78.81"/>
    <path class="cls-1" d="M732,322c0,80.83-18.19,194-70.72,200"/>
    <path class="cls-1" d="M591.57,269.48c-6.89,39.9-13,81.23-5,124.27"/>
    <path class="cls-1" d="M558.23,313.94c1,45.46,12.17,70.72,22.27,98"/>
    <path class="cls-1" d="M487.51,349.3C503,377.35,526.53,398,555.2,414"/>
    <path class="cls-1" d="M489.53,393.75c42.36,17.21,95,50.52,118.21,80.83"/>
    <path class="cls-1" d="M183.4,184.61c-19.05,30.73-32.21,65-34.35,106.09"/>
    <path class="cls-1" d="M196.53,256.35c-18.68,25.2-33.47,51.6-42.43,79.81"/>
    <path class="cls-1" d="M133.89,270.69c-.94,23.78.21,43.72,2.83,60.93"/>
    <path class="cls-1" d="M343.72,537.62c26.59,28.21,71.2,48.76,119.52,67.73"/>
    <path class="cls-1" d="M266.69,509.74c28.43,38.76,69.92,71.3,117.53,100.92"/>
    <path class="cls-1" d="M621.93,765.38c-43.16,60.42-147,112.9-237,101.59"/>
    <path class="cls-1" d="M640.51,836.49c-27.21,35.79-89.62,56.38-35.84,77.63"/>
    <path class="cls-1" d="M537.61,907.48c-15.94-31.21-82.47-6.83-87,13.94-3.32,15.27,60.43,46.48,104.91,31.87"/>
    <path class="cls-1" d="M395.51,961.92c22.5-11.51,41.82,1.61,60.44,20.17"/>
    <path class="cls-1" d="M143.19,788.62C248.1,935.36,413.37,963.28,370.94,899.51"/>
    <path class="cls-1" d="M113.32,843.59c28.54,24.71,71.18,34.71,47.13,53.93"/>
    <path class="cls-1" d="M112,884.9c12.85,53.37,65.43,75.59,139.44,81"/>
  </g>
  <polygon id="labelSide" class="cls-1" points="519.52 423.01 527.43 424.72 519 482.21 511.27 481.69 519.52 423.01"/>
  <rect id="labelFront" class="cls-1" x="358.87" y="411.77" width="157.29" height="59.26" transform="translate(65.74 -56.63) rotate(8.01)"/>
  <g id="skinLatino">
    <path class="cls-1" d="M505.4,21.55l-.95,49.06c-6.7,95.21-108.3,77.24-163.11,170.22C325.2,180.29,271.11,113.46,298.83,77L315.74.22"/>
    <path class="cls-1" d="M819.8,568.29c-19.48,16.47-119.53,42.59-163.28,32.58,3.6,18.92,17.09,68.69,15.43,74.91-35.41,132.14-39.69,295.92-92.82,405.93l108.83,23C752,951.51,818.52,811,832.09,686.22,834.81,661.22,828.18,615.72,819.8,568.29Z"/>
  </g>
  <path id="usherWatchBand" class="cls-1" d="M592.07,1048c37.86,11.53,59.28,19.7,103.18,41.57,7.61,5,27-40.13,18.43-46.24-34.26-18.44-78.77-35.87-104.68-41.16C597.83,1000.06,582.85,1044,592.07,1048Z"/>
  <path id="usherWatchSide" class="cls-1" d="M647.83,1088c-15.26-5.31-21.45-27.39-13.82-49.31s26.18-35.4,41.45-30.09l10.32,3.6-27.63,79.39Z"/>
  <ellipse id="usherWatchFace" class="cls-1" cx="671.97" cy="1051.87" rx="42.03" ry="29.26" transform="translate(-542.31 1340.85) rotate(-70.81)"/>
</svg>
