<svg viewBox="0 0 383.16 509.76">
  <g class="howie">
    <g class="sockWhite">
      <path d="M126.76,414.79c-3.72,5.25-5.61,10.7-4.7,16.45-9,27.22-46.75,3.29-28.52-16.84,5.59-3.08,11.79-5.1,15.32-10.57Z"/>
      <path d="M48.65,462.25a19.33,19.33,0,0,0,3,11.21c-3.58,28.08-25.25,18.5-27.58,4,1.92-2.35,3-7.72,3.19-13.68Z"/>
    </g>
    <g class="soleLightTan">
      <path d="M139.15,465.82a5.54,5.54,0,0,1-2,5.7c-7.91,6.77-19.38,2.07-24.4-4.11-19.19-23.63-28.66-21.28-33-33.77a5.82,5.82,0,0,1,1.7-3.82Z"/>
      <path d="M83.13,498c1.74,1.55,2.14,4.6,1.24,5.44-6.45,6.07-18.69,7.69-31.09,4.59-13.72-3.43-27.2-2.41-31.78-7.46-.78-.86-1-4.11.3-5.31Z"/>
    </g>
    <g class="gangbangerShoe">
      <path d="M105.91,441.41c-.61-12.72,15.33-15.92,17.34-9.76,2.67,8.2,9.09,15.32,16.55,23.7,4.27,4.79-.61,23.44-18.47,15-8.21-3.88-16.9-18.2-27.36-25-7-4.53-11.85-10.11-12.54-15.51,1.48-5.31,6.7-13,12.11-15.42C89.53,420.85,98.85,434.26,105.91,441.41Z"/>
      <path d="M40,489.49c-8.61-13.63,9.16-21.35,13.65-15.75,7,8.76,14.66,12.14,24.27,16.45,4.62,2.07,7.16,7.13,6,9.77-2.65,4.4-16.69,8.32-27.37,5.81-15.8-3.72-29.14-2.69-34.75-10.56a36.83,36.83,0,0,1,2.28-17.78C26.42,483.3,31.93,487.2,40,489.49Z"/>
    </g>
    <path class="gangbangerShoeWet" d="M128.09,441.13c-1.59.28-3.23.83-5,3.8-2.16,3.61-7-.68-9.55,5.58-1.7,4.2-5.83.39-6.69,6.61,5.14,5.58,9.89,11,14.49,13.21,17.86,8.46,22.74-10.19,18.47-15A146.26,146.26,0,0,1,128.09,441.13Z"/>
    <path class="gangbangerPants" d="M98.63,239.45c3.66,3,9.84,1.52,8.41,6.61,2.45,2.28,7.18,1.25,9,10.29C139,275.9,174,312.5,171.09,332.06c-1.31,11.73-15.88,46.7-28.42,77.72-6.14,9-20.56.55-30.25-12,14.86-49.28,6.53-50,12.47-57.74,1.76-2.27.91-4.64-1.3-5.47-6.66,1.68-2.32-5.77-4.17-6.52-6.09,2.16-19.3-7.56-27.64-17.73C78,305.1,67,291.55,63.1,293.63c-9.29,4.95-6.78,51.63-9.39,82.92-2.27,27.28-1.3,44.62-4.43,76.69-2.61,11.21-24.25,8.6-32.07,1-.79-7,0-13-.79-19-4.07-31.21-3.21-57.3-7.32-77.46-5-24.57-1.95-30.3-5.25-53.46-5.43-38.07-5.92-56.56,7-77.37,8.49,8.32,40.09,14.45,75.34,14.19C88.84,241.4,93.28,238.14,98.63,239.45Z"/>
    <g class="gangbangerPantsInner">
      <path d="M144.33,408.72c-1.65.93-3.58,1.93-5.44,1.91-10.17-2.17-19.5-7.45-27.39-14.41-1-1-6.06,8-5,9a49.09,49.09,0,0,0,27.72,15.39,17,17,0,0,0,6.43-3.05C142,416.81,145.28,408.52,144.33,408.72Z"/>
      <path d="M51,452.2c-3.24,3-6.6,5.09-10.17,5.61-5.87.5-16.1-1.64-25.08-4.1-1.42-.4-1.62,10.33-.4,10.83a73.66,73.66,0,0,0,25.68,3.78c3.21-.62,6.37-2.57,9.5-5.26C51.87,461.65,51.87,451.64,51,452.2Z"/>
      <path d="M32.61,236c-9.37,10.83-13.36,24.46-13.13,40.3C21.78,260.79,26,247.22,32.61,236Z"/>
    </g>
    <path class="gangbangerWaistband" d="M98.63,239.45l-1.9-6.75c-10.65,6.75-72,1.18-82.48-11.34L10.89,227C12.8,241.29,75.42,251.94,98.63,239.45Z"/>
    <path class="hairBlack" d="M140.65,35.48C151.58,9.06,107.5-7.78,80.92,4.16,63.24,12.1,54.67,50.94,67.38,67.28c-7.52,6.13-10,30.77-3.61,47.83-1-9.27,15.4-12.36,14.19-43.73C90.15,80.6,118,51.67,140.65,35.48Z"/>
    <path class="shirtWhite" d="M119.46,129.27c2.37,11.73,0,23.81-3.41,34.93.76,3.06.47,5.79-2.25,7.75-2.73,9.56-6,6.44-7.08,11.16-.59,2.53,2.44,6-4.34,11-.73,3.73,1.56,7.87-2,9.64-3.11,6.17,4,7.14-2.45,11.23-2.87,4.89,1.84,3.65-1.49,6.49-2.27,4.68,3.92,4.09-.68,8.29a7,7,0,0,1,1,2.94c-12,23.8-72.14,23.06-82.48-11.34,0-1.35.53-1.23,1.47-2.46-2.91-2.27,3.42-4.41,2.86-10-3.57-3.07,2.62-3.07,1.88-7.41-3.35-3.17,3.84-5,2.08-13-3.25-4.07.28-5.25,1.48-7.61-2.29-2.65.19-2.75.19-4.45,0-11.67,1-15.33,3.8-28L53.67,106c1.71-1.24,7.75-3.45,10.12-3.38l39.79-2.74C118,97.71,130.14,110.5,119.46,129.27Z"/>
  </g>
  <g class="willy">
    <g class="willyShoe">
      <path d="M244.16,494.21c.78-4.75.28-10.23-.76-16l-25.35-6.57a108.32,108.32,0,0,1-17.41,13.8c-4.33,2.74-10.59,3.88-14.57,7.14C189,508.51,241.42,509,244.16,494.21Z"/>
      <path d="M205,421.62c.58-3.53,4.23-6.36,7.46-10.68,4.1-5.49,6.32-13.95,8.17-23.08,21-4,23.22,10.75,13.79,37.14C223.27,437.56,212.88,442.56,205,421.62Z"/>
    </g>
    <g class="soleWhite">
      <path d="M244.16,494.21a12,12,0,0,1-1.64,7.73c-5.66,4.36-20,4.18-28.88,5.78-10.89,2-22.51-1.58-28.55-6.76-3.05-2.61-.76-7.63,1-8.39,7.19-2.46,13.93,1.17,19.51,7.41,1.62,1.81,4,2.45,7.19,2.4a120.41,120.41,0,0,0,23.54-3.16A13.4,13.4,0,0,0,244.16,494.21Z"/>
      <path d="M205,421.62c3.92,1,12.53,7.73,16.23,12,4.19-.77,8.66-4.39,13.19-8.6-3.6,3.92-5.18,7.32-8.45,10.48C216.54,444.55,200,436.17,205,421.62Z"/>
    </g>
    <g class="shoelace">
      <path d="M221.22,418.07a32,32,0,0,0,7.64-14.45,46.44,46.44,0,0,1-10.68-5.6h0c-1.45,5.07-3.26,9.55-5.77,12.92C214,414.16,218.06,416.67,221.22,418.07Z"/>
      <path d="M224.63,480.91c-4.4-2.38-8.67-4-12.58-3.86l0,0a104.85,104.85,0,0,1-11.39,8.36c3,0,7.57,1.86,10.52,4.72A58.09,58.09,0,0,0,224.63,480.91Z"/>
    </g>
    <path class="willyPants" d="M226.2,355c-4.3-4.42-3-9.6-8.72-10.74,8.34.63,6.69-4.29,7.82-7.26,12.15-5,33.14-25.13,30.28-16.38-3.84,2.34-2.34,4.84-4.84,11.69-4.9,13.39-9.73,21.37-13,34.06C232.64,362.72,232.89,354.76,226.2,355Zm.85-96c-2.77,3.29-8.81,5.06-10.2,9.1-.92,2.67-5.94,4.93-4.3,6.19-2,2-5,4-6.32,5.94-8.08,13.52-36.13,38.79-37,53.07-1.26,12.51,7,19.68,8.72,29.06.78,4.39,12,8,14.53,18.83,2,8.54,8.72,8.34,15.67,8,2.9,2.4,5.18,16.93,23.37,4.84.38,6.95-2.73,16.52-3.64,24.67-3.83,34.53-12.48,31.75-4.47,43.6-3.5-2.5-7.2-1.52-6.84,2,.39,3.95-.32,7.27-3.74,9.68,16.7-2,15.36,14.53,32.73,18.37,0-3.11,3.33-3.77,6.51-5.51,6.34-3.47,2.59-11.19-2.08-13.53,6.17-5.17,5.51-11,8.68-18.36,18.62-30.62,11.66-49.14,15.13-54,5.46-7.55.33-8.51.33-12.69,2.51-1.33,5.85,1,7.85-7,2.17-6.34,10.9-8.66,15.36-21.2,6.59-18.51,23.88-25.39,25.22-56.61,8.35-7.51-.17-15.53,1.9-23.54Z"/>
    <path class="willyShirt" d="M222.67,207.78c-9.64-2.63-19.11-17.26-18.31-28,1.79-2.56,4.1-6.09,7.44-5.29,2.37-8.86,8.41-5.53,20.18-15.28,3.79-9.09,5.35-2.12,9.08-3.53,1.93-4.6,5.08-5.57,8.27-2.14,14.63-1.16,30.17-3.88,44.65-3.44,2.55-3,3.91-1.61,5.84-1.88,2.95-5.15,4.67-.47,8-1.69,2.95-3.22,4.09-.51,5.7-.75,3.88-2,7.11-1.41,9.59,2.25,9.89,1.19,15.7,8.79,18.48,8.79,4,0,1.41,1.42,5.43,2.41a50.66,50.66,0,0,1,5.73,2.87c-11.39-1.14-15.68,17.58-16.32,30.73-7.16-.33-11.61,1.54-11.62,7.6,7.2,19.69,10.75,49.91,4.83,60.63-1.36,5.18,1.48,5.8.62,8.26-14.31,24.29-75.37,19.51-107.46-3.22-2.79-2-.58-6.5-1.71-8.62-2.2-4.12.3-5.16,3-8,.16-11.09,2-18.21,5.77-27.5-2.47-5.05.86-7.15,2.22-9.86a32.73,32.73,0,0,1-1.08-7.52A18.41,18.41,0,0,1,222.67,207.78Z"/>
  </g>
  <g class="clothesDisplayLine">
    <path d="M254.79,318.45c.1-3.37-3.91-5.89,0-17.38,1.63-4.9-3.46-7.72,2.46-19.77"/>
    <path d="M139.8,455.35c2.78,5.14-2.05,9.78-7.1,10.34-11.24,1.25-17.76-16-26.79-24.28"/>
    <path d="M77.93,490.19c.88,2.62-6.7,5.94-15.36,5.94-6.15,0-15.75-4.17-22.56-6.64"/>
  </g>
  <g class="clothesOverlapLine">
    <path d="M237.79,366.38c-2,11.66-6.47,14.44-6.29,27.59"/>
    <path d="M213.65,409.1c1.25,2.63,5.32,5.19,9.15,7.12"/>
    <path d="M224.24,414.26c-4.25-2.09-8-4.27-9.61-6.91"/>
    <path d="M225.64,412c-4.26-1.92-8-4-10.12-6.47"/>
    <path d="M226.8,409.66c-4.23-1.67-8-3.61-10.42-6.21"/>
    <path d="M227.91,406.9a31.89,31.89,0,0,1-10.69-5.78"/>
    <path d="M213.55,488.88a19,19,0,0,0-10.63-4.94"/>
    <path d="M215.74,487.6a22.13,22.13,0,0,0-11-4.94"/>
    <path d="M218.07,486.11a22.43,22.43,0,0,0-11.43-4.79"/>
    <path d="M220.16,484.63a22.16,22.16,0,0,0-11.64-4.73"/>
    <path d="M222.35,482.92a23,23,0,0,0-12.09-4.39"/>
    <path d="M318.81,180.28a42.82,42.82,0,0,1,5.42,18.57"/>
    <path d="M231.06,204.58c0-7.78,2-15.2,4.93-22.43"/>
  </g>
  <g class="clothesFoldLine">
    <path d="M232.75,275.25c4.23,4.44,8.72,9.79,10.92,16.47"/>
    <path d="M227.87,285.77c9.61,6.41,16.94,14.54,21.41,24.84"/>
    <path d="M212.55,274.27c3.3,1.65,9.54,1.67,6.51,5.43"/>
    <path d="M211.38,289c11.45-1.6,31.14,13.28,22.44,12.94"/>
    <path d="M253.52,318.9c-7.79-2.34-17.87-10.35-36.64-12.07"/>
    <path d="M232.79,313.7a128,128,0,0,0-27.59.35"/>
    <path d="M221.8,332.48c-5.21,4.71-11,6.56-17.4,4.81"/>
    <path d="M225.3,337c-2,.46-3.67,1.25-4.3,3.14"/>
    <path d="M217.48,344.27c-9.07-.69-22.58-4.93-23.38-2.18-1,3.57,12.36,8.93,19.69,8.13"/>
    <path d="M199.25,357a14,14,0,0,1,.81,12.85"/>
    <path d="M204.31,367.85c1.6,4.81-8.45,16.9,11.2,13.85"/>
    <path d="M208.13,389.13c14.93-1,25.12-13.38,17.91-.44"/>
    <path d="M226.2,355c2.23,2,3.22,7,.42,11.92"/>
    <path d="M322.54,303.43c-2.71,1.19-5.93,5.28-9,8.79"/>
    <path d="M309.91,322.63a139.53,139.53,0,0,1-25.78,17.69"/>
    <path d="M257,325.28c7.1,3.63,17,25.54,6.77,19.34"/>
    <path d="M264.06,314.29c7.05-2.65,21.16-3.37,14.21-.61"/>
    <path d="M255.58,320.63a16.26,16.26,0,0,1,9.5-.2"/>
    <path d="M265.39,329.62c5.21,5.22,14.51,6.44,21.26,3.07"/>
    <path d="M245.66,349.57c-1.11,7.58-1.16,14.59.62,20.64"/>
    <path d="M274.11,388.25c-3.83.85-4.13,2.44-2.34,6.94"/>
    <path d="M245.41,397.55c-2.3,13.2-7.08,24.7-15.53,33.69"/>
    <path d="M267.91,399.17c-1.6-11.23-15.16,6.22-23.24,20.64"/>
    <path d="M226.08,448.68c-1.67,11.47,10.3,5.22,25.92-11.49"/>
    <path d="M223.39,462.24c2.43,4,2.57,6.34-1.81,5.34"/>
    <path d="M250,473.26c-10.28-5.18-.22-9.66,6.25-16.37"/>
    <path d="M228.19,470.81c9.08,2.11,22.83,5.9,21.26,12.31"/>
    <path d="M261,307.24c5.62-4.5,15-6.6,15.95-4.7.66,1.38-15.13,3.27-22.15,15.91"/>
    <path d="M232.63,216.66c2.12,4.64,5.16,7.85,9.36,9.23"/>
    <path d="M224.15,249.46c1,6.93,3.69,10.84,9,9.59"/>
    <path d="M231.83,268.72a23.37,23.37,0,0,1,9-6.31"/>
    <path d="M274.15,264.05c8.06,3.85,15.34,8.06,21.15,13"/>
    <path d="M329.67,261.05a30.31,30.31,0,0,1-11.36,12.18"/>
    <path d="M327.58,255.6c-10.66,11.07-36.87,17.14-50.15,4.43"/>
    <path d="M294,217.44a53.77,53.77,0,0,1-27.39,15.14"/>
    <path d="M297.68,224.74c-7.54,3.93-14.27,8-22.63,10.46"/>
    <path d="M269.64,192.1c-7.46,5-15.41,11.64-22.64,14.51"/>
    <path d="M285.3,181.44c-10,9.84-21.85,19.24-28.78,26.08"/>
    <path d="M211.8,174.48c-.47,1.87-.54,3.45-1.12,4.42"/>
    <path d="M216.17,171.68a19,19,0,0,0,1.31,12.46"/>
    <path d="M214.61,191.77a71.92,71.92,0,0,1,16.79,7.1"/>
    <path d="M223,189.56c2.51,2,6.56,2.41,9.84,1.81"/>
    <path d="M232.85,181.44c2.26-9.76,6-11.24,3.14.71"/>
    <path d="M240.85,173.65c-1.49,2.37-2.87,6.07-1.64,6.56,2.06.82,3.78-4.92,9.11-6.73"/>
    <path d="M250.12,177.26a43.79,43.79,0,0,0-12.14,8"/>
    <path d="M232,159.2a35.79,35.79,0,0,0-1.21,10"/>
    <path d="M236.1,156.92a22.51,22.51,0,0,0-2,8.69"/>
    <path d="M241.06,155.67c-.75,1.86-1.72,3.54-1.85,4.94"/>
    <path d="M249.33,153.53c-2.7.14-4.4,2.19-5.28,6.59"/>
    <path d="M299.82,148.21a15.94,15.94,0,0,0-1.73,4.94"/>
    <path d="M307.85,146.52c-3.39,4.67-5.14,13.63-8.61,22.54"/>
    <path d="M313.84,149.13c-2.55,7.22-2.14,11.23-3.8,10.75-1-.28-1.29-4,.27-10.59"/>
    <path d="M302,169.3c5.82-17.87,4.92-5.66,8.28,1.07"/>
    <path d="M315.39,154.54c-1.09,5.18-1.69,10.19-.9,14.68"/>
    <path d="M320.32,148.72c-1.87,2.89-3.15,9.65-1.89,10.17,1.8.74,1.15-4.51,3.12-6.32"/>
    <path d="M309.57,179.06c2.24,4.5,5.09,8.25,9.11,10.58"/>
    <path d="M311.29,187a37.14,37.14,0,0,1,7.63,7.79"/>
    <path d="M326.63,161.43c-3.85,8.77-3.94,22.47-2.62,23,2.26.85,1.72-8.12,7.54-16"/>
    <path d="M336.06,160.45a13.39,13.39,0,0,1,5.56-3.64"/>
    <path d="M342.21,159.63c-8.06,4.31-10.14,14.32-9.68,26.73"/>
    <path d="M328.89,185c1.59-9.14-.46-5-3.65,4.6"/>
    <path d="M13.57,235.18c-5,10.86-8,22-8,33.53"/>
    <path d="M17.74,322.6C21.86,337,27,349.9,34.2,359.84"/>
    <path d="M51.27,273.23c-6.41.12-12.94,2.56-19.54,6.18"/>
    <path d="M53.12,280.85c-7.2,3.21-13.56,9.27-19.54,16.66"/>
    <path d="M107,246.06c-4.86-2.34-9.49-1.21-13.19.23"/>
    <path d="M96.73,250c-5,1.83-9,4.1-11.52,7"/>
    <path d="M116,256.35c-5.31-8-15-4.72-19.5,0"/>
    <path d="M106,309c19,2.82,50.92,5.53,37,8.64"/>
    <path d="M159.88,329.8c7.09,2.86-11.51,26.13-25.3,48.14"/>
    <path d="M154.12,328c-.78,5.09-10.44,15-21.18,25.51"/>
    <path d="M119.42,328.05c9-4.62,18.66-7.3,7.76.31"/>
    <path d="M124.89,340c6.61-7.36,24.39-16,23.27-17.64-1-1.47-13.64,6.19-24.57,12.17"/>
    <path d="M130.31,339.73c17.77-13.27,23.2-13.22,11.06.15"/>
    <path d="M113.8,172c-3,2.47-7.17,4-12.57,4.49"/>
    <path d="M112.21,168.8c-4.27,4.4-13,6.65-24.88,7.37"/>
    <path d="M98.18,192.49a69.18,69.18,0,0,1-25.3,2.78"/>
    <path d="M102.38,194.11c-5.59,2.55-18.94,4.91-23.52,4.35"/>
    <path d="M98.31,201.94c-2.71,1.24-7,2.25-12.78,3.06"/>
    <path d="M100.34,203.75a23.48,23.48,0,0,1-6.75,2.08"/>
    <path d="M96.09,212.35c-4.77,2-11.93,3-20.85,3.72"/>
    <path d="M96.4,221.47c-4.34,2.7-16.71,2.14-19.7,4.76-1.39,1.21,4.66,2.25,15.22,1.41"/>
    <path d="M95.72,229.76a40.32,40.32,0,0,1-15.89.8"/>
    <path d="M97.89,215c-10.56,3.49-27.23,2.44-9,5.5"/>
    <path d="M15.72,218.9c2,1.35,5.22,1.79,9.07,2.7"/>
    <path d="M17.42,215.69c2.43,2.38,7.1,2.65,12.23,3.78"/>
    <path d="M35.63,223.06a58,58,0,0,0,13.87,2.72"/>
    <path d="M39.72,221.45c9.73,2.23,28.71,2.27,38.86.6"/>
    <path d="M18.58,208.87c5.26,3.69,12,1.52,17.86,4"/>
    <path d="M20.46,201.46c8.44,4.55,16,8.85,1.94,6.7"/>
    <path d="M24.68,200.72c5.42,2.87,7.11,7.27,12.69,8.46"/>
    <path d="M22.54,188.5c2.79,4.21,8.24,4.94,13.06,7.82"/>
    <path d="M29.17,190.31c-3.72-2.19-7.19-4.9-5.15-9.42,9.31,7.62,37.42,8.64,46.54,7"/>
    <path d="M31.45,181.85c10.24,4.06,29.41,5.36,42.59,3.33"/>
  </g>
  <g class="clothesEdgeLine">
    <path d="M147.54,388.62c-2.31,7.41-5.59,13.73-8.65,22a27,27,0,0,1-4.64,9.95"/>
    <path d="M40.27,400.41c-.73,24.17-1.7,50.77.58,57.4a48.13,48.13,0,0,1,.2,10.51"/>
  </g>
  <g class="eye">
    <g class="sclera">
      <circle cx="118.66" cy="57.59" r="18.95"/>
      <circle cx="265.41" cy="112.67" r="21.75"/>
    </g>
    <g class="irisBrown">
      <ellipse cx="111.23" cy="58.87" rx="3.74" ry="3.3" transform="translate(41.44 163.6) rotate(-84.21)"/>
      <ellipse cx="133.79" cy="61.16" rx="3.74" ry="3.3" transform="translate(59.44 188.09) rotate(-84.21)"/>
      <circle cx="275.1" cy="106.43" r="3.6"/>
      <circle cx="253.57" cy="118.41" r="3.6"/>
    </g>
    <g class="pupil">
      <ellipse cx="111.62" cy="58.99" rx="1.46" ry="1.28" transform="translate(41.66 164.09) rotate(-84.21)"/>
      <ellipse cx="134.17" cy="61.28" rx="1.46" ry="1.28" transform="translate(59.67 188.59) rotate(-84.21)"/>
      <circle cx="275.1" cy="106.43" r="1.4"/>
      <circle cx="253.57" cy="118.41" r="1.4"/>
    </g>
  </g>
  <g class="skinLatino">
    <path d="M156.44,185.58c9.56,9.89,13.63,31.13,31.46,32.59,4.53.37,21.22-5.91,31.81-11.57-8.52-4.42-16.06-17.18-15.35-26.83-3.65,2.76-7.3,5.52-10.61,7.91-8.18-6-16-4.44-26.59-15.07-2-1.78-.69-4.74-4.47-11.81-.85-1.59,1.77-8.86.11-11.65-2.62-4.43-5.35-8.13-9.33-7-7.22-8.31-9.94-6.14-15.81-6.78-3.7,1.09-1.81,7.5,5.78,6.24a6,6,0,0,0,1.21,2.2c-9.16-1-8.53,2.93-13.07,5.61-2,1.18-.25,4.52,2.78,4.31-3.3,2.06-1.65,4.64-2.67,7.7.63,3.05,6.5,2.11,6.19-3.44,2.89,5.79-1.26,12.6,9.47,20-1.14-.17-1.86.24-2.45,0-4.32-1.62-11.1,1.1-7.87,5.27,4.25-.31,7.82,3.21,10.94,2.44C152.59,184.66,154.66,186.11,156.44,185.58Z"/>
    <path d="M278.41,122.72c3,12,11.82,24.07,15.57,27.37,2.06,11.86-7.76,20.5-24.1,25.73-12.83-4.15-20-13.6-16.08-23.42"/>
    <path d="M324.23,198.85a41.45,41.45,0,0,0,16.33-7.57,23,23,0,0,1-4-.34c.9-12.4,5-28.43,14.8-28.89,10.88,3.64,20.7,9,25.61,15,3.56,4.35,7.86,8.31,5,14.06-13.27,26.52-43.14,21.32-53.19,25.92-2.53.42-12.72,13.53-26.26,9.7-1.54-.44-1.95-1.11-3.17-1.71-3-1.47-4.06-2.87-3.17-5.64-2.1-.54-2.41-4.23-1-5.37-2.87-.58-3.77-1.83-3.5-4.49C290,209,289.12,207,290.32,206c3.14-2.64,2.38-7.28,5.62-8.38C311.73,193,321.31,199.26,324.23,198.85Z"/>
    <path d="M300.51,284.79c5.9,1.68,16.12,3.65,24.7,2.8,3.65-4.15,3.25-8.91,1.79-14C321.48,279.61,309.81,283.82,300.51,284.79Z"/>
    <path d="M222.1,96.24c5.26-7.14,7.7-12.89,16.28-16.46,16.82-6.52,20.78,2.93,36.08,8,7,2.49,7.11,8.65,10.27,13.4,4.12,5.52,9.92,13.26,9.38,27.27,3.43,26.55-42.32,37.65-59,12.38-3.92,3.44-5.83-1.37-9.56-2.66-5.08-1.76-12.67-10.8-8.19-15.91C216.53,114.13,218.64,105.34,222.1,96.24Zm38.34,20.1c-1.89.49-3.61.31-4.76.77-1.7,1.8-3.93,2.43-5.62,4.16,1.75-.12,3.81.08,6-1.06s2.36-2,4-3.13C260.47,116.82,261.4,116.39,260.44,116.34Zm13.64-6.41c2.74-2.14,6.57-.6,8.84-6.17-1.8-.65-3.12-1.16-5.43.09s-3.23,3.84-4.6,6C272.27,110.8,273.7,110.22,274.08,109.93Z"/>
  </g>
  <g class="eyebrowLightGray">
    <path d="M268.47,102.49c2.41,3,4.69-2.19,5.09-2.82.85-1.31,2.62-4,8.61-3.6l-.39-.86C269.58,94.42,270,101.67,268.47,102.49Z"/>
    <path d="M260.7,109.4c.92,4.28-6.13,3.52-9.19,4.35-6.94,1.86-6.8,5.49-8.34,4.78C249.39,108.15,255.39,111.41,260.7,109.4Z"/>
  </g>
  <path class="hairLightGray" d="M264.7,143.55c-1.39-5.51,1.16-8.36,7-9.67,4.54-1,5.81-1.85,8.94-5.07.89-.92,3.42-4,6.23,2.56,2.08,5,1.12,15.25-3.87,12.83a7.28,7.28,0,0,1-2.67,1.56C280.19,152.37,266.75,151.64,264.7,143.55Zm-47.35-21.19c1.23-1.48,4.67-1.35,6.79.11,10.23,5.2,12.13,20.92,15,27.12,4.18,9.15,13.42,9.71,16.62,14.35a6.36,6.36,0,0,0-1.13-5.34c7,4.3,11.31,1.59,17.15,6.18a14.46,14.46,0,0,0-2-5.18c4.54,2.54,13.3-.17,17.92,1.89a23.5,23.5,0,0,0,4.55-16.41,8,8,0,0,0,4.24,2.44c-2.19-4.49,1.36-9.93-2.29-19-.48,3-2.71,7.24-4.22,8.4-2.22-2.64-1-5.95-5.36-11.83-2.24-3.05-5.78,3.16-8.16,4-5.36,2-10.65,1.32-13.42,7.11-2.19,4.58,1.41,8.65.51,15.88a30.51,30.51,0,0,1-15.82-4.25,5.27,5.27,0,0,0,3-1.89c-9.12-2.67-15.07-12.05-18-21.6-2.81-9.1,5.09-16.31-13.22-19.85.6-2.15,2.21-7,2.75-8.25-3.24,3.87-7.27,3.73-9.08,11.12-1.24,5.07-.69,8.72-3.1,11.85,2-.22,3.64-1.91,5-3.52C214.9,119.18,215.76,121,217.35,122.36Z"/>
  <g class="hairFoldLine">
    <path d="M219.38,104.57a17.44,17.44,0,0,0-2.35-.25"/>
    <path d="M263.49,152.16a5.55,5.55,0,0,1-.82,2.37"/>
    <path d="M289.92,137a6.54,6.54,0,0,0,1.31,1.27"/>
  </g>
  <g class="skinFilipino">
    <path d="M64.5,291.15c-1.13,2.51-3.9,4.52-2.14,7.86.87,2.11,3.92,3.48,6.6,2.51a3.31,3.31,0,0,0,2.33,1.63c.69,3.4,3.2,4.53,5,3.78,1.48-.62,1.63-2.2,3.77-3.46,3,.37,4.51-3.47,6-7.19,1.89,4.8,2.46,9.26,4,12.91.37,8.8,7.85,8.55,7.72,4.52-4.3-16.32-3.43-26.16-7.06-32.54-3.42-6.62-5.62-12.9-10-19.4-13.62-27.66-11.63-55.07-19.29-66.56.89-6-1.14-20-1.42-32.34,16-16,10.5-57-6.38-56.88-10.93,5.67-23.55,2.55-23.84,34.33-.86,3-1.26,5.84-1.82,8.08a15,15,0,0,0,3,8.51c.71,21.56,6.61,33.34,6.38,36.88-1.7,26.67,14.87,48.63,28.34,74.16C66.65,269.38,61,277.69,64.5,291.15Z"/>
    <path d="M264.84,83.64c.13-1.68-1.77-3.34-3-4.17-4.31-3-5.75-5.16-8.4-5.8s-3.9-.8-7.91,1.11c-2.5-2-5.14-2.86-8.2-1.41-4,2.31-9.84,1.71-14.05,5.62-4.22,3.52-10.44,4-15.58,11.18-7.84,13.92-23.11,11.48-33.5,20.3-13.13-.2-23.48-4.34-32.43-6.29-10.63-2.32-19.93-7.2-33.71-4.51,12.35,8.43,5.29,20.78,11.37,29.6,20.75,4.36,47.42,11.81,61.91,8,15.1-3.92,24.79-16.37,31.85-27.74,2.49,5.83,3.56,2.36,7.68,7.12,5.85-1.24,2.22-9.38-.87-10.85.27-9.21,5.73-15.76,9.35-16.49.81-.16,2.33-1.13,4.5,2.33,5,8.7,10.23,3.3,9.42,1.53-3.54-4.26-3.14-8.13-7.89-11.51,2.5,0,4.19-3.46,10,2,3,6.52,8.79,6.24,9.66,2.82-2.42-2.66-2.86-6.68-5.56-8C255.16,77.46,264.84,83.64,264.84,83.64Z"/>
    <path d="M77.54,66.7c-.3,18.32-4.9,32.13-13.75,35.91C73,105.07,76.5,115,80.25,123.2c5.49,12,19.6,10.58,26.63,1.38,3.74-4.89,6.7-20-3.3-24.71"/>
    <path d="M78,71.38c-5.71,2.48-7.31-2.82-9.63-6.52-4.79-7.64-3.67-16,1.08-18.17,3.41-1.56,6.89-.08,8.44,4.67,1.22,0,1.94.36,2,1.07-.78,7.84,1.52,16.14,4.61,18.95-.69-8.92-.25-14.14,1.28-19.63,1.18-4.26,5.09-7.3,8.87-11.86,1.78-1.9,2-8.39,2.52-14.1,7.69-2.34,24.8-.13,28.19,4.38,3.55-2.11,11-2.81,13.91-1.2,2.45,4.75,1,10.66,1.51,16.42.29,3.26,1.61,7.36-.86,10.17-3.63,5.51.41,14.14-3.75,22.59-2.63,5.35-5.29,14.79-9.78,19.26-2.37,2.36-3.85,5.41-6.76,7-4.27,2.41-11.66,1.51-15.63-.94-7.24-4.46-16-8.53-21-14.23M115.63,58a7.71,7.71,0,0,0-5.85-4.31c-4.08-.43-6,.9-8,1.92,3.43,2.25,6.19,5.5,13.11,3.15C115.34,58.6,116.12,58.87,115.63,58Zm13.24,2.14c.69.09,3.47,2.5,6.77.82a5.06,5.06,0,0,0,.61-3.12c-.37-.81-1.61-1.09-2.4-1.11-2.35-.05-3.91,1.29-5.7,2.59C127.69,59.63,128.1,60,128.87,60.12Z"/>
  </g>
  <g class="eyebrowBlack">
    <path d="M130.31,52.47c.54,3.23,5.94.25,10.65,1.09a10.25,10.25,0,0,0,.25-4.18C138.65,49.25,136.3,51.48,130.31,52.47Z"/>
    <path d="M119.24,51.07c-1.24,5.08-12.62-3.84-18.34-2.38-1.42.36-2.13-1.46-1.61-1.85C108.61,41.38,110.4,48.61,119.24,51.07Z"/>
  </g>
  <g class="skinOverlapLine">
    <path d="M59.09,138.08c-2.07,7,.45,14.17,1,24.79"/>
    <path d="M87.46,292c-.51,1.82-1,3.28-1.34,4.31"/>
    <path d="M80.09,303.47a6.87,6.87,0,0,1-4.54-1.15"/>
    <path d="M81.09,292.12c-2.44,4.17-3.77,12.55-9.8,11"/>
    <path d="M74,293.85c-1.11,3.15-3.76,7.31-5,7.67"/>
    <path d="M64.5,291.15c.5,2.26,1.87,2.39.32,5.67"/>
    <path d="M211.6,96.2c-1.51,5.67,1.24,8.76,1.62,13.37"/>
    <path d="M235.41,81.7c-2.13-1.72-5.94,0-7.62-.22"/>
    <path d="M249.5,78.56c-1.11-1-2.32-2.42-3.94-3.78"/>
    <path d="M29.83,140.32A78.31,78.31,0,0,0,31,156.91"/>
    <path d="M193.75,187.68c2.39,1.82,4.19,6.47,3.84,11.37"/>
    <path d="M340.56,191.28c3.85-3,9.33-10.1,20.7-13.86"/>
    <path d="M303.54,221.5c-2,.06-4.55-.76-7.37-2.1"/>
    <path d="M302.84,215c-2.35.4-5-.26-7.7-1"/>
    <path d="M302,207.39c-2.14,1.07-9.65-2.36-10.39,2.15"/>
    <path d="M306.86,198.48c-4.45,1.77-11,.07-12.57,2.31-1.07,1.5-1.86,5.25.07,6.4"/>
    <path d="M134.36,153.77a5.58,5.58,0,0,0,4.9-3.74,5.86,5.86,0,0,0,3.33.85,11,11,0,0,0,1,5.54"/>
    <path d="M153.47,142.19c-1.67.89-4.05.29-5.71.82-1.86,3.12,1.86,7,7.11,5.18,0,1.86.38,3.17,1.8,4.3-1.08,1.44-1.17,3.4-1.33,5.44"/>
    <path d="M144.65,143.85a11.59,11.59,0,0,0,3.58,3.21"/>
    <path d="M149.36,155.56c-.53-3.65-.59-5.88-.18-7.71"/>
    <path d="M152.57,176.47c-2,0-2.33,2.33-5.22,1.59"/>
  </g>
  <g class="skinFoldLine">
    <path d="M174.39,110.47a15.72,15.72,0,0,0-2.06,13.19"/>
    <path d="M120.44,121.86a20.26,20.26,0,0,0-.83,7.41"/>
    <path d="M139.52,155.06a3.66,3.66,0,0,1-1.64,3,2.44,2.44,0,0,0-1.17-2.17"/>
    <path d="M156.8,168.24c-3.74,1.23-6.43,4.16-7.44,9.81"/>
    <path d="M161.77,181.36c-.17,2.23-2.66,2.81-5.33,4.22"/>
    <path d="M75.91,53.52c-3-10-13.45-1.75-6.57,8.14"/>
    <path d="M75.69,57.94c-2.68,1.7,1.89,6.4,0,7s-1.26-3.2-3.38-4.4c-3.12-1.76-1.26-6.36,1.52-5.2"/>
    <path d="M224.37,126.36c-8.47-6.06-8.68,4.74,2.26,10.1"/>
    <path d="M227.23,129.59c-1.58,2.68,4.45,4.39,3,5.92-1.16,1.23-1-1.82-4.25-2.28s-4.77-6.25-1.09-4"/>
    <path d="M224.14,122.47a7.14,7.14,0,0,1,2.13,2.39"/>
  </g>
  <g class="skinEdgeLine">
    <path d="M307.6,203.06c1.58,2.16-1,3.54,1.18,6.69,1.78,2.59-1.52,4.25-.14,6.51,1.68,2.72-1.22,3.41-.14,5.47"/>
    <path d="M222.72,81.31c-.86,1.19-2.18.23-3,3.23"/>
  </g>
  <g class="lipMaleBrown__noStroke">
    <path d="M278.63,131.65a7.27,7.27,0,0,1-4.46,2.23c-1.23.87-5.67.81-7.84,8.18,2.75-.12,8.64,6.7,15.44,1.2,10.8-8.76-1.11-11.5,1.61-13C282,129,279.57,131.28,278.63,131.65Z"/>
    <path d="M122.54,87.85c2.13-.87,2.79-1.73,0-2.56-1.74.63-2.55.7-4.62-.38-4.25,0-8.13,1.06-10,4,.68,3,2.45,8,11.49,7.22C128.71,95.35,122.85,88.85,122.54,87.85Z"/>
  </g>
  <g class="mouthInner">
    <path d="M282.78,136.9a2.26,2.26,0,0,0,1.27-3.52c-.79-1.1-2.36-2-2.25-3-1.93.75-2.86,2.91-4.85,3.74-3.44,1.43-7.28.15-10.24,6.91C274.92,145,277,139,282.78,136.9Z"/>
    <path d="M110.48,87.2c-1,.61-3.58,1.69-1.34,2.86,5,2.6,7.51.85,11.44,1.33a3,3,0,0,0,.24-1.62C117.52,90.26,112.4,88.8,110.48,87.2Z"/>
  </g>
  <path class="tongue" d="M278.59,134c-5.36,1.55-8.63,3-10.31,4.25A13.31,13.31,0,0,0,267,140.4c1,1.34,7.47.6,14.9-4.45C282.08,134.69,279.69,133.69,278.59,134Z"/>
  <g class="teeth">
    <path d="M277,134.15c-3.09,1.28-6.49.39-9.29,5.07,5.65.58,13-2.1,11.61-6.84A7.24,7.24,0,0,1,277,134.15Z"/>
    <path d="M282,133.26c-.1,4.35-9.87,7.78-14.4,6.05a17.73,17.73,0,0,0-.89,1.75c8.21,4,10.28-2.11,16.07-4.16a3.15,3.15,0,0,0,.88-.47C283.61,134.65,282.34,133,282,133.26Z"/>
    <path d="M110.51,87.17l0,0c1.92,1.6,7,3.06,10.34,2.57,1.62-.29,1.51-1.56,1.81-2.78C117,89,116,83.52,110.51,87.17Z"/>
  </g>
  <g class="lipOverlapLine">
    <path d="M281.8,130.41a4.37,4.37,0,0,1,2.6,0"/>
    <path d="M266,142.83c.22-.65.45-1.23.68-1.77"/>
    <path d="M120.58,91.39a6.44,6.44,0,0,1,2.17.61"/>
    <path d="M122.63,87a4,4,0,0,0,.73-.4"/>
    <path d="M124.23,88.44a3.19,3.19,0,0,1-1.75-.73"/>
  </g>
  <g class="lipEdgeLine">
    <path d="M285.05,139.07c-1.15,4.27-7.39,7-10.45,6.24"/>
    <path d="M278.63,131.65a7.27,7.27,0,0,1-4.46,2.23"/>
    <path d="M122.5,85.29c-1.74.63-2.55.7-4.62-.38"/>
    <path d="M124.58,91.08c2.07,6.17-10.35,6.34-14.65,2.46"/>
  </g>
  <g class="cheekLine">
    <path d="M262.27,140c-.58-3.81.61-5.15,1.33-8.09a15.09,15.09,0,0,1,3-5.44"/>
    <path d="M285.05,125.81c-2.5-5.33-5.26-4.17-6.94-5.22"/>
  </g>
  <g class="smileLine">
    <path d="M126.7,79.36a8.21,8.21,0,0,1,.71,4.81"/>
    <path d="M110.7,75.67c-3.47,2.16-6.09,5.78-7.8,10.19"/>
  </g>
  <g class="noseLine">
    <path d="M269.11,130.77c-2.57,0-3.27-3.17-2.52-4.3"/>
    <path d="M275.79,118.06c1.07,2.82,6.35,3.58,4,7.16a5.32,5.32,0,0,1-3,3.58c-4.29,1.9-5.3-.45-7.33,1.41"/>
    <path d="M114.05,73.61c-1.35.69-1.8,4.09-.37,5.06"/>
    <path d="M120.91,78.92c-1.45-1-3.55-1.55-4.55-.48"/>
    <path d="M125.72,62.44c2.32,6.3.74,8,1.55,10.58,1.75,5.54-.46,8.61-7,6.9"/>
  </g>
  <g class="eyeFoldLine">
    <path d="M283.3,107.28c-.18,2.68-3,4.89-6.22,5.36"/>
    <path d="M261.33,120.6c-1.43,2.38-4.09,4.4-7.06,3.92"/>
    <path d="M136.83,60.43c0,3.84-4.05,4.87-7.9,2.78"/>
    <path d="M113.52,61a8.14,8.14,0,0,1-8.33.52"/>
  </g>
  <g class="eyeCornerLine">
    <path d="M282.92,103.76a3.29,3.29,0,0,0,1.5,0"/>
    <path d="M246.3,122.7a8.65,8.65,0,0,0,3.76-1.43"/>
    <path d="M100.52,55.7a2.84,2.84,0,0,0,1.27-.11"/>
  </g>
  <g class="eyeCreaseLine">
    <path d="M258.4,115.6a5.93,5.93,0,0,0-2.72,1.51"/>
    <path d="M282.26,102.2c-4.52-2.33-7.89,3.15-9.25,5.63"/>
    <path d="M116.2,56.08c-2.3-3.22-7.25-5.43-13.23-2.23"/>
    <path d="M137.22,57.59c-1.66-1.47-4.41-2.37-8.45-.09"/>
  </g>
</svg>
