<svg viewBox="0 0 330.34 499.39">
  <g class="strapCloth">
    <path d="M153.56,37.35c-1,14.63-2.62,25.23-4.64,32.67-3.4-5.71-.92-23.91-2.15-32.93A19.4,19.4,0,0,0,153.56,37.35Z"/>
    <path d="M45.94,40.19c-11.1,15-2.22,68.37,7.1,74.58C46.68,89.47,44.19,63.66,45.94,40.19Z"/>
  </g>
  <path class="hairDarkBrownDark" d="M119.84,117.67c-1.56,3-3.29,8.51-7,11.85,6.83.5,14.28-.39,14.83-3.6C133.72,119.44,128.67,111.93,119.84,117.67Z"/>
  <g class="bass">
    <path class="strapLeather" d="M152.41,25.11a47.25,47.25,0,0,1,1.15,12.24,19,19,0,0,1-6.79-.26,44.34,44.34,0,0,1,1.94-12.25Z"/>
    <path class="bodyLight" d="M151,25.53c-7.6.5-16.35.65-16.33,3.55-.46,2.35,7.81,2.06,15.32,1.86a5,5,0,0,0,.5-2.9l.37-.14A6,6,0,0,0,151,25.53Z"/>
    <path class="bodyDark" d="M172.6,26.57c-1.09,1-27.83-2.36-21.78,1.33L148,29c-4.46-.33-13.4-.48-13.37.11,0,.85,11.56,1,14.58,1.17,1.26.07,1,1.22-.78,1.25a178.92,178.92,0,0,1-28.1-1.65,191.92,191.92,0,0,0-23-1.76c-40.4-.62-59.17-3.77-60.37-5.9C53.46,11.4,154.06,16.16,172.6,26.57Z"/>
    <path class="bodyLight" d="M172.15,26.69c1.74.36,3-8.45.72-9.17-11.24-3.59-22.82-4.3-35.64-2.9a91.24,91.24,0,0,1-24.32-.45c-30.82-5-60.09-7.48-75.09-.92-2.69,1.23-1.9,9.83,0,9.27,17.31-4.28,41.35-2.42,64.73.43,11.12,1.36,23.61,3.25,34.18,1.91A107.07,107.07,0,0,1,172.15,26.69Z"/>
    <path class="neck" d="M281.53,31.05a5.29,5.29,0,0,1-4.15-2L174.1,20.91c0,2.64-.83,5.83-1.87,5.78-2.62.44-17.31-1.16-21.3-.31l116.4,8.09c3.19.28,8.52,3,11.26,3.55,16.28-.55,19-3.6,13.72-8.13A37.16,37.16,0,0,1,281.53,31.05Z"/>
    <path class="fretboard" d="M174.1,20.91,277.38,29l0-1.89L173.78,18.63A7.64,7.64,0,0,1,174.1,20.91Z"/>
    <path class="headstockDark" d="M292.39,34.7a33.79,33.79,0,0,1-7.12,1c-3.71.13-8.3.45-7.79,1.61s4.7.93,7.34.88l41.34-.72c2.37,0,4.34-1,3.85-2.18C328.69,31.44,304,32.06,292.39,34.7Z"/>
    <path class="headstockLight" d="M292.31,29.89l19.86.7c1.81-1.73,15.77-1.92,17.76,0l.08,4.74c-2-1.81-16.1-1.4-17.84,0l-19.78-.64Z"/>
    <polygon class="nut" points="277.35 27.14 275.83 27.01 275.8 25.68 277.33 25.8 277.35 27.14"/>
    <g class="silverDark">
      <path d="M282.8,37.54h6.43a0,0,0,0,1,0,0v1.7a.69.69,0,0,1-.69.69h-5.06a.69.69,0,0,1-.69-.69v-1.7A0,0,0,0,1,282.8,37.54Z" transform="translate(-0.63 4.97) rotate(-0.99)"/>
      <path d="M294.49,37.32h6.43a0,0,0,0,1,0,0V39a.69.69,0,0,1-.69.69h-5.06a.69.69,0,0,1-.69-.69v-1.7A0,0,0,0,1,294.49,37.32Z" transform="translate(-0.62 5.17) rotate(-0.99)"/>
      <path d="M306.18,37.11h6.43a0,0,0,0,1,0,0v1.7a.69.69,0,0,1-.69.69h-5.06a.69.69,0,0,1-.69-.69v-1.7a0,0,0,0,1,0,0Z" transform="translate(-0.62 5.38) rotate(-0.99)"/>
      <path d="M317.86,36.86h6.43a0,0,0,0,1,0,0v1.7a.69.69,0,0,1-.69.69h-5.06a.69.69,0,0,1-.69-.69v-1.7A0,0,0,0,1,317.86,36.86Z" transform="translate(-0.61 5.58) rotate(-0.99)"/>
    </g>
    <g class="silver">
      <path d="M107.61,13.34l-.06-3.54c0-.51-1.36-.89-3-.87s-3,.47-3,1l0,2.55C103.57,12.74,105.59,13,107.61,13.34Z"/>
      <path d="M96.33,11.75,96.27,8.4c0-.5-1.37-.89-3-.86s-3,.46-3,1l0,2.51Q93.28,11.37,96.33,11.75Z"/>
      <path d="M78.75,9.93,78.7,7c0-.51-1.37-.9-3-.87s-3,.46-3,1l0,2.45C74.69,9.65,76.7,9.77,78.75,9.93Z"/>
      <path d="M299.54,30.15l0-2.77c0-.29-.9-.51-2-.49s-2,.27-2,.56l0,2.56Z"/>
      <path d="M311.24,30.56l-.06-3.39c0-.29-.89-.51-2-.49s-2,.26-2,.55l0,3.19Z"/>
      <path d="M322.91,29.25l0-2.34c0-.29-.9-.51-2-.49s-2,.27-2,.56l0,2.3C320.24,29.22,321.6,29.21,322.91,29.25Z"/>
      <ellipse cx="300.93" cy="38.72" rx="4.87" ry="1.97" transform="translate(101.3 267.19) rotate(-56.19)"/>
      <ellipse cx="289.24" cy="38.83" rx="1.36" ry="4.6" transform="translate(5.68 107.82) rotate(-21.32)"/>
      <ellipse cx="312.62" cy="38.88" rx="1.12" ry="3.75" transform="translate(-0.52 73.29) rotate(-13.36)"/>
      <ellipse cx="324.3" cy="38.41" rx="4.7" ry="2.25" transform="translate(85.15 260.8) rotate(-49.67)"/>
      <path d="M287.86,30.74l-.05-3.15c0-.29-.9-.51-2-.49s-2,.27-2,.56l.06,3.43A32.83,32.83,0,0,0,287.86,30.74Z"/>
      <ellipse cx="73.84" cy="14.88" rx="3.19" ry="7.01" transform="translate(55.1 87.83) rotate(-86.98)"/>
    </g>
    <circle class="outputJack" cx="73.84" cy="14.88" r="1.72"/>
  </g>
  <path class="anaJeans" d="M104.45,240.61c.62,13.81,4.48,15,3.12,18.94-.31,5.94,3.29,5.81,1.81,9.45,8,26.69,12.67,57.33,14,88.45.34,8.33-5.66,21.61-9.65,35.12-10.47,8.67-21.14,5.58-32-10.29,7.59-19.55,2.16-22.85,7.08-24.83-4.53-2.5-2.13-8.71-4.25-13.63-6.92-16.11-12.35-33.62-18.26-45.66-2.7,31-3.09,64-6.82,77.94-1.18,4.39-1.28,14-1.8,22.39-10.31,15.08-20.79,16.28-31.51-2.83.64-9.91,3.27-18.55,2.44-23.54-.38-2.3-1.66-5.11-.64-7.46-2.65-2.22,0-6.14-.9-10.55-7.72-38.72-12.52-75.14-9-106-.51-1.93,1.55-10.42,3.86-13.38C37.67,244.13,97.61,246.06,104.45,240.61Z"/>
  <g class="beltTan">
    <path d="M48.21,244.28c-11.12-1.43-20.93-3.6-26.32-6.48-1-.33-3.43,8.27-2.45,8.6,4.91,3.35,15.34,5.63,27.85,7A63.92,63.92,0,0,0,48.21,244.28Z"/>
    <path d="M88.12,246.1a250.74,250.74,0,0,1-36.41-1.41,82,82,0,0,1-.74,9.07,289.85,289.85,0,0,0,36.63,1A50.26,50.26,0,0,0,88.12,246.1Z"/>
    <path d="M105,243.73c-2.87,1.07-7.68,1.8-13.62,2.19a77.2,77.2,0,0,1-.42,8.64c7.32-.45,12.87-1.28,15.11-2.44C107.19,252,106.12,243.59,105,243.73Z"/>
  </g>
  <ellipse class="clothingBrass" cx="69.81" cy="250.68" rx="7.77" ry="12.29" transform="translate(-183.19 311.54) rotate(-87.97)"/>
  <polygon class="soleTanDark" points="67.87 477.3 69.78 469.05 76.38 476.98 67.87 477.3"/>
  <path class="soleTan" d="M60.71,461.6c-1.17,3.12,0,5.88-.52,10.34-.07,1.77,4.64,3.69,7.68,5.36l1.91-8.25Z"/>
  <g class="anaBoot">
    <path d="M80.69,381.84c4.81-3.06,16.3,1.54,23.62,13.78a37.54,37.54,0,0,0,11.82-6.17C109.07,408.8,91,443.76,92.5,451.19c7.92,13.82,4.47,19,14.48,27.14,4.45,3.59,2.44,12.71-5.71,13.32s-17.57-2.42-20.54-7C77.1,479,76.13,476.16,65.14,469c-11.68-7.6-.38-17.87,2.08-25.8C72.54,426,74.49,407.39,80.69,381.84Z"/>
    <path d="M60.31,392.78c-5,6.31-10.9,12.13-17.3,14.47-5.67-2.49-13.87-9.71-17.52-14.73-3.26,19.94,2.8,47.45,1.58,70.2-2.45,7.87-1.56,12.81-5.31,22.66-2.08,5.44-.42,12.25,8,13.17,8.26.89,25.47,1.76,27.1-5.2,2-8.58-1.44-9.06-4.38-17.19-1.92-5.32-1.8-9-2.18-13.13C49.39,440,60.49,413.4,60.31,392.78Z"/>
  </g>
  <g class="anaBootLeg">
    <path d="M101.76,403.68C95.41,392.74,88,387,79.26,388c-5.11,22.46-7.15,39.48-12,55.26a18.64,18.64,0,0,1-.85,2.17c4.36,4.62,16.49,6.29,22.15.82.81,2.42,4,5,4,5-1.29-6.35,11.71-32.77,19.93-52.41A30.33,30.33,0,0,1,101.76,403.68Z"/>
    <path d="M59.85,401.19c-4,4.81-11.2,10.45-17.09,12.72-6.57-2.88-14.42-8.51-18.08-13.64-1.06,19,3.46,42.53,2.39,62.45,3.92.79,8-1.83,11.55-5.21,2.93,4.28,7.19,6.39,11.73,5.52C49.51,443,57.78,420.33,59.85,401.19Z"/>
  </g>
  <g class="anaBootStrap">
    <polygon points="89.04 381.04 84.39 380.07 79.72 397.87 83.84 398.79 89.04 381.04"/>
    <path d="M24.64,412.6a102.56,102.56,0,0,1,.85-20.08c-.81-.16-1.42-.09-1.56,1a110.93,110.93,0,0,0-.79,17.09A1.94,1.94,0,0,0,24.64,412.6Z"/>
    <path d="M60.47,391.65c-1-.1-1.65,1.31-2,3.44.64-.76,1.27-1.53,1.88-2.31a101.7,101.7,0,0,1-2.19,19.58s1.18.25,1.49-1.41a137.83,137.83,0,0,0,2-17.63C61.67,392.22,61.3,391.61,60.47,391.65Z"/>
  </g>
  <path class="anaShirt" d="M160.07,106c-3.43-.48-6.24,2.33-6.13,6-4.67,1-8.36,4.93-11.36,7.35-1.66,1.34-2.51-.87-4.49,3.57-1.66,3.69-5.88-2.65-8.28,5.62-1.64-3.31-6-3.08-6.1-.12-5.44-5.88-10.15,14.73-54.22-10.49-3.15-.76-3.15-7.1-9.15-3.6-2.47-8.93-5.7-4.2-7.54-5.35-1.69-1.06-3.34-4.73-5.32-4.21-.9-2.78-2.14-5-4.66-5.26-2.12-9.32-5.12-3.56-7.47-7C18,83.86,11,62.87,6.31,89.07c-3.76,6.29,4.57,13.08,5.88,15.07,11.68,17.72,27.58,28.79,30.63,37,2.62,7.06-4.65,21.82-9,46.9-3.32,19.25-6.41,34.22-12,46.7,15.82,9.39,75.76,11.32,82.6,5.87,1.26-3.24,3.82-7.22,2.2-10.28,2.23-1.9,1.68-5.87,1.47-8.94,3.3-4.81,5.33-10.81,6.74-17.4,11.46-6.6,12.71-17.22,12.31-29.79-.52-16.75,37-34.9,51.89-55Z"/>
  <path class="anaShirtOrnament" d="M119.34,128.06c4,4.51,7.12,13.09,9.89,22.95-10,4.69-7.22,18.14-34.74,20.8-32.34-9.51-25.77-21.31-34.16-29.68,4.89-9.87,9.28-19.12,9.16-24.22,2.41-2,6.3-1.65,6.1,2.28,3,3.17,4.89-2.91,8.21,3.06C111.18,132.24,116.29,126.66,119.34,128.06Z"/>
  <g class="anaShirtInner">
    <path d="M1.56,90.2c4.7-4.82,7.74-14.47,10.79-17.51,2.56-2.56,27.46,4.37,26.51,7.87,1,1.4-3.34,6.6-3,13.57.11,2.54-18.43,5.27-20.3,2.41C13.84,94,14.86,84.49,15.5,78,9,81.19,6.76,87,1.56,90.2Z"/>
    <path d="M182.75,118.13c4.71-3.8,7.79-15.71,5.63-18.18-3.18-3.65-25.29-9.82-25.31-6.7,0,4.76-4.31,4.68-1.85,7.58-1.54.71-2.82,3.7-1.15,5.15,7.33,5.11,10.06,11.16,19,13.23,1.28-.61,2.51-2.11,4.05-4.22C183.69,115.55,183.41,116.86,182.75,118.13Z"/>
  </g>
  <g class="anaShirtTrim">
    <path d="M107.28,154.55c-14.64,4.34-16.33,7.18-12.87,28.27C97.38,175.92,97.33,167.82,107.28,154.55Z"/>
    <path d="M94.49,171.66c1,11.6-.21,17.07-6.19,28-3,5.49-1.38,7.8-5.69,15.77-3.29,6.07-2.77,10.78-6.28,16.37-2.41,3.85-1.17,5.67-3.63,11.41a19.39,19.39,0,0,0-5.79-.12c2.61-5.53.7-6.68,4.16-12.81,4.18-7.4,3.06-11.46,6.45-16.71,3.92-6.07,2.26-8.93,6.08-15.34C95,179.05,91,163.13,85.84,148.67,92.09,149.94,95.87,157.11,94.49,171.66Z"/>
  </g>
  <g class="anaShirtCollar">
    <path d="M76.31,184.93c-.58.41-12.34-1.61-14-2.78-.73-.53-7.29-8.64-7.19-9.38.08-.56,2.14-4.4,2.68-4.56.87-.25,20.71,11,21,11.88S76.67,184.67,76.31,184.93Z"/>
    <path d="M123.06,185.87c-.43.72-9.37,5.69-10.2,5.75s-12.06-3.1-12.59-3.77-.41-4.51,0-5c.65-.75,22-2.73,22.75-2.08S123.48,185.17,123.06,185.87Z"/>
    <path d="M114.88,147.67c2.6,1.85,4.07,5.24,5,9.41.37-12.08-.6-21.94-3.7-28.24-4.05-7.3-26.93-12.51-32.35-5.59-6,8.27-11,20.17-12.64,29.55,2.23-3.33,7.87-4.87,9.51-5.48,1.84-.52,6.29,2.63,8.5,6.44l18.11.79C109.74,152.44,112.73,148.3,114.88,147.67Z"/>
  </g>
  <g class="clothingPearl">
    <circle cx="64.52" cy="178.99" r="1.82"/>
    <circle cx="112.65" cy="187.58" r="1.82"/>
  </g>
  <g class="clothesDisplayLine">
    <path d="M70.52,258.45c-.87,8.72,2.39,19.76-3.22,33.75"/>
    <path d="M45.74,254.94c-4.16,8.21-12.36,11.06-24.06,9.26"/>
    <path d="M90.31,256.84c4.39,2.83,1.42,8.63,18.26,9.62"/>
  </g>
  <path class="clothesOverlapLine" d="M187.24,102.78c.19,3-1.18,7.22-4.13,12.21"/>
  <g class="clothesFoldLine">
    <path d="M179.47,110.39c-6.16,1.32-20.4-6.36-18.58-7.77"/>
    <path d="M173.72,103.32c-5.26-1.21-12.53-4-11.22-5.35"/>
    <path d="M160.07,106c1.42,4.41,5.61,8.1,7.38,11.89,2.08,4.44,0,8.89-2.22,2"/>
    <path d="M153.94,112c2.43,6.78,3.07,14.65-.32,25"/>
    <path d="M139.17,123.22c2.83-2,8.31,24.57.71,25.76-4.75.75,1.11-7.07,2.62-12.32"/>
    <path d="M129.81,128.52c2.39,6.32,4.42,5.5,4.61.06"/>
    <path d="M134.42,124c2.73,3.35,4.85.63,4.55,5.68"/>
    <path d="M121.29,170.19a21.48,21.48,0,0,1-3.23,7.28"/>
    <path d="M127.05,160.6c-.78,5.14-3.33,10.2-4.75,16"/>
    <path d="M114.86,204c-1.55.34-2.15,1.56-3.06,2.36"/>
    <path d="M108.12,221.39a9.66,9.66,0,0,1-3.7,3.65"/>
    <path d="M106.65,230.33c-1.74.73-2.58,2-1.72,4.31"/>
    <path d="M99.27,203.73a87.21,87.21,0,0,0-10.3,9.7"/>
    <path d="M108.06,202c-9.26,9.5-17.82,18.84-25.56,28"/>
    <path d="M101.59,214.33a148.21,148.21,0,0,0-10.9,15.56"/>
    <path d="M103.11,194.54a52.7,52.7,0,0,0-10.81.5"/>
    <path d="M107.66,197.26c-5.91.15-11.59.5-17,1.11"/>
    <path d="M70.18,189.08a62.27,62.27,0,0,1,12,2.63"/>
    <path d="M85,196.35a198.22,198.22,0,0,0-20.81-5.15"/>
    <path d="M102.1,236.66c-2.27-.26-5.45,4.64-8,6.4"/>
    <path d="M91.09,238.88a11,11,0,0,1-2.94,4.58"/>
    <path d="M78.67,238.48a12.94,12.94,0,0,1-1.47,5.15"/>
    <path d="M58.13,237.31c-.23,2.28-.21,4.2.36,5.36"/>
    <path d="M32.89,234.68a8.72,8.72,0,0,0-.86,3.8"/>
    <path d="M31.53,226.13c-1.37,4.2-2.5,9.19-2.55,11.58"/>
    <path d="M57.14,183.77c-1.44,15.81-3,29.57-2.87,43"/>
    <path d="M50.67,203.9c-1.2,7.62-2.15,15.06-2.59,22.14"/>
    <path d="M52.4,154.59c.46,5.44,1.31,10.71,1.87,16.1"/>
    <path d="M48.8,160.91c.58,5.32,1.87,9.78,3.17,15.53"/>
    <path d="M60.34,114.31c1.27,4.35.89,10.34-1,17.85"/>
    <path d="M67,115.75c.9,2,.88,4.5,0,7.36"/>
    <path d="M46.5,136.33c.72-3.45,3-3-1.15,8.34"/>
    <path d="M55.42,112c1.45,3.77,1.77,8.51.57,14.52"/>
    <path d="M47.48,104.75c1.34,5.67.89,13.47,2.62,22.67"/>
    <path d="M41.9,119.94a28.56,28.56,0,0,1,2.16,11.5"/>
    <path d="M42.82,99.49c.71,2.33.91,4.27.38,5.64"/>
    <path d="M38.74,95.65c1.76,5.51,0,14.11-1.44,24.44s5.47,14.8,2.59,1.72"/>
    <path d="M34.68,95.29c.9,9-10.89,16-5.86,8"/>
    <path d="M6.31,89.07c.66,1.69,5.26.11,1.67,4.28"/>
    <path d="M23.07,82.42c3.59,3.88,5.12,9.64,8.77,9.34"/>
    <path d="M75.59,120.19c-.25,6.65-4.2,14.77,2.19,6.65"/>
    <path d="M123.71,128.4a4.61,4.61,0,0,1,.47,3.47"/>
    <path d="M57.12,486.08c-2.18-3.5-6.26-4.38-10.54-4.38"/>
    <path d="M109.38,269c-3.22.58-8.94-.29-12.7.72"/>
    <path d="M107.57,259.55a12.79,12.79,0,0,1-6.22,1.25"/>
    <path d="M92.58,288.82c-7.42-.09-14.32-.07-19.53.29"/>
    <path d="M86.49,295.9c-4.84-2-9.46-3.29-13.58-3"/>
    <path d="M58.47,288.82q-9.09.06-18,1"/>
    <path d="M59.6,292.64a102.92,102.92,0,0,0-19.24,5"/>
    <path d="M92.58,354.06c3.79,3,9.61,4.82,16,6.37"/>
    <path d="M97.39,368.07a19.45,19.45,0,0,0-9.06,5.8"/>
    <path d="M88.74,357.45c4.68,1.7,10.59,1.88,10.34,4.11-.15,1.41-5-.43-9.33-1.42"/>
    <path d="M86.27,362.07c.54,1.39,3,2.12,5.74,2.74"/>
    <path d="M27.9,364.66c2.58,1.21,6.85,1.61,11.75,1.71"/>
    <path d="M56.49,369.48a78.93,78.93,0,0,1-19.1-.28"/>
    <path d="M54.09,373.3a105.19,105.19,0,0,1-21.51-.7"/>
  </g>
  <g class="clothesEdgeLine">
    <path d="M114.88,147.67a28.71,28.71,0,0,0,1.52-12.76"/>
    <path d="M80.67,147.32c-1-3.9-.72-9.44,0-13.95"/>
  </g>
  <g class="eye">
    <rect class="sclera" x="83.35" y="78.51" width="31.31" height="18.44"/>
    <g class="irisAmber">
      <ellipse cx="91.3" cy="83.08" rx="3.6" ry="3.51" transform="translate(-22.89 129.98) rotate(-64.63)"/>
      <ellipse cx="111.15" cy="93.38" rx="3.6" ry="3.51" transform="translate(-20.85 153.8) rotate(-64.63)"/>
    </g>
    <g class="pupil">
      <ellipse cx="91.3" cy="83.08" rx="1.4" ry="1.37" transform="translate(-22.89 129.98) rotate(-64.63)"/>
      <ellipse cx="111.15" cy="93.38" rx="1.4" ry="1.37" transform="translate(-20.85 153.8) rotate(-64.63)"/>
    </g>
  </g>
  <g class="skinAshkenazi">
    <path d="M53.69,30.16C45.61,42,42.83,63.39,38,80.17c-.92,2.25-12,1.43-14.94,2.25-4.94-5.74-11-7.57-10.42-9.12C20.81,55.7,32,43,38.75,30.64c2.53-5.12.5-12.39,1.78-17.21.86-4.6,5-12.21,7.92-11.56,3.4-1.7,6.42-2.19,7.6-.85C59.65.5,63.3.65,63.86,3.59c2.89.27,4.1,4.39,5,5.78-2.06,0-4.26-.12-6.71-.06A36.9,36.9,0,0,1,60,21.6c3-1.41,8.52.38,5.88,3.64-1.64,0-2.11.72-4,.75C58.11,26.05,58.59,29.2,53.69,30.16Z"/>
    <path d="M88.2,114c-1.39,7.07-4,12.16-5.5,16-1.57,11,2.45,15.51,6.47,23.76,1.44,2.94,4.79,10.62,5.32,17.9,1.91-8.19,9.16-13.48,12.79-17.11,4-5.18,8.45-17.63,8.41-23.05.58-5.87,5.15-12.73,9.93-16.68"/>
    <path d="M188.74,21.59c.85-2.56,2.93-4.54-3.18-7.48-1.79-.86-5-1.6-6.85-.19-.86-3-3.31-2.74-6.34-1.13-2.36-2-4.64-1.23-7.38,1.13A3.54,3.54,0,0,0,162.32,15a72.93,72.93,0,0,1,10.55,2.53c2.23.71,1.06,9.27-.64,9.17-1.7.28-8.41-.28-14-.49-2.39,8.31-2.46,11.05-.4,15.63,8.7,26.68,2.49,41.38,6,51.72,9.88,6,24.67,12.46,24.41,7.79-1.07-18.91-13.16-40.11-16.88-60.21C170.57,38.05,184.1,35.68,188.74,21.59Z"/>
    <path d="M132.42,118c-3.83,2-6.32,4.52-9.2.69-6.27,8.23-17.37,11.61-28.3,9.88-5-.79-11.44,1-17.36-4.94-4.27-4.26-1.91-6.54-4.07-13.88C68,91.18,82.78,80,83.69,76.3c1-4,1.65-7.21,6.63-13.44C106.84,28,141.86,98,132.42,118Zm-28.21-26c1.19.6,1.69,1.28,3.2,2.06,2.78,1.45,5,1.53,6.71,2.2-1.41-1.82-4.69-6.71-10.19-5C103,91.46,103.79,91.7,104.21,91.91Zm-12-6.86c-.45-2.24-.75-3.73-3-5a5.47,5.47,0,0,0-5.42-.29,5.77,5.77,0,0,0,2.94,3.54c1.19.76,2.67,1,4.18,1.75C91.37,85.33,92.47,86.17,92.25,85.05Z"/>
  </g>
  <g class="skinOverlapLine">
    <path d="M54.86,10.69c2.16-3.65.31-7,9-7.1"/>
    <path d="M49.55,9.51C52,4.88,51.4,1.67,56.05,1"/>
    <path d="M44.73,8.9c1.42-3,1.91-6.12,3.72-7"/>
    <path d="M60,21.6a15.79,15.79,0,0,1-6.35,8.56"/>
    <path d="M178.71,13.92c.89,2.12,2.29,5.22,3.69,8.24"/>
    <path d="M172.37,12.79a88.67,88.67,0,0,1,4.87,8.49"/>
    <path d="M165,13.92A3.58,3.58,0,0,1,167.27,16"/>
  </g>
  <g class="skinFoldLine">
    <path d="M64.88,8.07c-1.18,1.44-2.11,1.67-3.53.28"/>
    <path d="M184.25,17.59a6.43,6.43,0,0,0-3.06,1.93"/>
    <path d="M130.66,110.26c1.17,2.57-5.13,3.89-3.6,5.43.71.72,2.32-2,4.09-1.46"/>
  </g>
  <path class="lipFemaleMedium__noStroke" d="M86.08,110.74c-2.25-1.23-3.42-3.87-4.81-4.93a15.93,15.93,0,0,1,.45,3.44c.57,5.64,5.44,7.86,10.94,5.52a11.22,11.22,0,0,1,3.26-.83C92.54,112.24,88.94,112.3,86.08,110.74Z"/>
  <path class="lipFemaleMedium" d="M98,115.4c-3.52-3.49-6.52-7.2-11.36-6.25-1.1.21-2-4.79-7.06-3.83,2.68-.25,3.47,3.78,6.48,5.42C89.64,112.69,94,111.94,98,115.4Z"/>
  <path class="lipEdgeLine" d="M81.72,109.25c.57,5.64,5.44,7.86,10.94,5.52"/>
  <g class="cheekLine">
    <path d="M84.23,98.85c-1.39.62-4.23,2.37-5.32,4.67"/>
    <path d="M97.38,101.41c1,1,1.53,4.2,2.52,7.15s2.14,6.26-.11,9.48"/>
  </g>
  <g class="noseLine">
    <path d="M89.11,94.11c-2.16,2.17-6,2.17-4.58,6.23"/>
    <path d="M97.38,101.41c.8,1,0,4.39-2.77,4.52"/>
    <path d="M93.61,104.33c-1.16-1.93-6.36,1.5-8.5-4.16"/>
  </g>
  <g class="eyeFoldLine">
    <path d="M83.09,83.87c.81,1.61,3.7,3.42,5.68,3.19"/>
    <path d="M103.83,94.86c.93,1.82,4.78,3.78,6.93,3.1"/>
  </g>
  <g class="eyeCornerLine">
    <path d="M83.83,79.81c-.39.15-.75.44-1,.41"/>
    <path d="M117.38,98.71a11.07,11.07,0,0,1-3.26-2.54"/>
  </g>
  <g class="eyeCreaseLine">
    <path d="M92.4,83c-1.73-5.2-6.33-4.57-7.33-4.2"/>
    <path d="M114.1,95.27c-1-2.92-4.95-6.74-8.71-4.76"/>
  </g>
  <g class="eyebrowDarkBrown">
    <path d="M103.87,81.24c5.68,2.23,13.33,1.73,16.46,11.3-.89,1.23-2-5.56-10-6.74C104.9,85,104.22,84.38,103.87,81.24Z"/>
    <path d="M96.47,76.63c-5-4-4.17-6.59-11.24-5.54-.13.32-.25.63-.36.94C93.56,71.11,90.81,80.28,96.47,76.63Z"/>
  </g>
  <path class="hairDarkBrown" d="M90.23,63.06c5.86-23.67,31.56-21.28,45.59-14.63,33.75,16,38.77,45,36.37,52.55-.7-3.24-3.59-7.81-5.18-9.63,1,7.07,2.13,22.07-7.61,35.81.82-2.55.08-6.7-.31-8.54-2.25,5-8.07,16.77-18.57,23.76a22.56,22.56,0,0,0,2.64-7.92c-5.33,6-19.56,11.71-27.49,13.62,7-6.34,18.17-28.51,16-45.88-1.92,2.52-4.54,5.43-7.71,6.56,3.92-8.44,4.08-11.64,5-15.62-5.68-3.38-27.45-28.06-30.24-38.71C94.46,58.06,93.68,58,90.23,63.06Z"/>
  <g class="hairOverlapLine">
    <path d="M108.6,48.11c-3.9.39-8.6,2.69-9.83,6.32"/>
    <path d="M129,93.14a71.91,71.91,0,0,0,1.32-17.93"/>
  </g>
</svg>
