<svg viewBox="0 0 342.84 339.96">
  <g class="bassCase">
    <path class="caseLight" d="M342.59,309.36c0,3.45-2.8,6.24-6.24,6.24H6.86c-3.45,0-6.24-2.8-6.24-6.24l-.36-10.46H342.56l.03,10.46Z"/>
    <g class="brassMediumDark">
      <path d="M296.14,302.87c0-.56,.46-1.02,1.02-1.02h4.4c.56,0,1.02,.46,1.02,1.02v7.83c0,1.04-6.44,1.04-6.44,0v-7.83Zm-1.86,8.36c0,2.75,10.15,2.73,10.15,0v-8.72c0-1.5-1.22-2.72-2.72-2.72h-4.72c-1.5,0-2.72,1.22-2.72,2.72v8.72Z"/>
      <path d="M222.24,302.87c0-.56,.46-1.02,1.02-1.02h4.4c.56,0,1.02,.46,1.02,1.02v7.83c0,1.04-6.44,1.04-6.44,0v-7.83Zm-1.86,8.36c0,2.75,10.15,2.73,10.15,0v-8.72c0-1.5-1.22-2.72-2.72-2.72h-4.72c-1.5,0-2.72,1.22-2.72,2.72v8.72Z"/>
      <path d="M98.41,302.87c0-.56,.46-1.02,1.02-1.02h4.4c.56,0,1.02,.46,1.02,1.02v7.83c0,1.04-6.44,1.04-6.44,0v-7.83Zm-1.86,8.36c0,2.75,10.15,2.73,10.15,0v-8.72c0-1.5-1.22-2.72-2.72-2.72h-4.72c-1.5,0-2.72,1.22-2.72,2.72v8.72Z"/>
      <path d="M28.57,302.52c0-1.5,1.22-2.72,2.72-2.72h4.72c1.5,0,2.72,1.22,2.72,2.72v8.72c0,2.73-10.15,2.75-10.15,0v-8.72Zm1.86,8.19c0,1.04,6.44,1.04,6.44,0v-7.83c0-.56-.46-1.02-1.02-1.02h-4.4c-.56,0-1.02,.46-1.02,1.02v7.83Z"/>
      <rect x="13.85" y="182.1" width="313.76" height="103.92" rx="11.27" ry="11.27"/>
      <path d="M.26,294.32c-.03,.55,.71,.93,1.39,.93H341.19c.65,0,1.32-.42,1.37-.93v4.57c-.04,.51-.72,.93-1.37,.93H1.65c-.68,0-1.43-.38-1.39-.93v-4.57Z"/>
    </g>
    <g class="brassMedium">
      <path d="M304.93,305.59c0,2.43-11.13,2.43-11.13,0v-10.34h11.13v10.34Z"/>
      <path d="M231.03,305.59c0,2.43-11.13,2.43-11.13,0v-10.34h11.13v10.34Z"/>
      <path d="M216.17,300.51c0,2.43-11.13,2.43-11.13,0v-5.26h11.13v5.26Z"/>
      <path d="M185.21,294.34c0,2.43-11.13,2.43-11.13,0v-5.26h11.13v5.26Z"/>
      <path d="M107.2,305.59c0,2.43-11.13,2.43-11.13,0v-10.34h11.13v10.34Z"/>
      <path d="M39.21,305.59c0,2.43-11.13,2.43-11.13,0v-10.34h11.13v10.34Z"/>
      <path d="M341.67,293.3l-9.87-5.12c-2.75-1.43-5.8-2.17-8.9-2.17H19.01c-3.38,0-6.7,.89-9.64,2.57l-8.24,4.74c-1.74,1.02-.54,1.93,.51,1.93H341.19c1.08,0,2.21-1.14,.48-1.95Z"/>
    </g>
    <g class="brassMediumLight">
      <path d="M302.19,303.11c0,.48-5.66,.48-5.66,0v-7.86h5.66v7.86Z"/>
      <path d="M228.29,303.11c0,.48-5.66,.48-5.66,0v-7.86h5.66v7.86Z"/>
      <path d="M104.46,303.11c0,.48-5.66,.48-5.66,0v-7.86h5.66v7.86Z"/>
      <path d="M36.48,303.11c0,.48-5.66,.48-5.66,0v-7.86h5.66v7.86Z"/>
      <path d="M215.24,180.08h9.36v.53c0,.82-.67,1.49-1.49,1.49h-6.39c-.82,0-1.49-.67-1.49-1.49v-.53h0Z" transform="translate(439.84 362.17) rotate(-180)"/>
      <path d="M277.95,180.08h9.36v.53c0,.82-.67,1.49-1.49,1.49h-6.39c-.82,0-1.49-.67-1.49-1.49v-.53h0Z" transform="translate(565.26 362.17) rotate(-180)"/>
    </g>
    <g class="liningLight">
      <path d="M322.57,286.77H19.18c-.86,0-1.72,.07-2.57,.21,.83,1.75,1.15,3.98,1.15,7.51H323.4c0-3.55,.4-5.77,1.42-7.55-.73-.11-1.48-.16-2.24-.16Z"/>
      <path d="M25.96,183.55H315.19c5.96,0,10.81,4.84,10.81,10.81v79.71c0,5.79-4.7,10.5-10.5,10.5H26.27c-5.96,0-10.81-4.84-10.81-10.81v-79.71c0-5.79,4.7-10.5,10.5-10.5Z"/>
    </g>
    <g class="liningMedium">
      <path d="M17.2,286.9c-2.13,.26-4.19,.95-6.07,2.03l-7.5,4.42c-1.45,.85-.76,1.15,.12,1.15h14c0-3.53-.32-5.76-1.15-7.51,.2-.03,.39-.06,.59-.08Z"/>
      <path d="M338.71,293.32l-8.86-4.74c-1.62-.84-3.29-1.4-5.04-1.65-1.02,1.78-1.42,4.01-1.42,7.55h15.69c.9,0,1.08-.49-.37-1.17Z"/>
      <path d="M201.91,222.01c6.39,2.23,4.15,8.44-2.32,8.98l-117.65,11.2c-3.45,.09-6.69-2.83-8.64-6.86-1.52-3.14-5.72-4.72-9.09-3.79l-38.69,10.78c-3.16,.87-5.35,3.75-5.35,7.02v14.68c0,4.02,3.26,7.29,7.29,7.29h42.01c2.83,0,5.4-1.64,6.6-4.21,1.5-3.2,3.55-5.72,7.16-6.26l128.26-7.76c9.76-.65,10.66,8.56,1.86,9.51-9.34,.97-11.3,11.07-6.51,15.11,7.24,6.07,20.35,5.56,32.84,.31,10.96-4.36,21.54-3.84,32.46,1.1,12.98,6.14,25.5,5.96,37.8-2.17,8.71-6.71,12.43-16.11,12.62-27.53,.38-13.75-1.36-27.16-5.5-41.25-7.66-23.4-31.37-27.08-55.74-14.85-12.72,7.07-25.9,10.53-37.04,7.15-13.36-4.39-25.21-5.59-33.55-.18-6.5,4.17-5.54,13.68-.37,17.17,3.46,2.56,7.03,2.79,11.53,4.56Z"/>
    </g>
    <path class="liningDark" d="M206.4,220.48c4.78,3.13,4.1,11.84-4.08,13.37l-121.52,11.66c-3.51,.26-7.33-3-9.62-7.15-1.42-2.56-4.42-3.81-7.24-3.03l-35.89,9.93c-2.74,.76-4.49,2.8-4.49,5.65v11.16c0,3.52,2.09,6.06,5.61,6.03l39.07-.25c2.31-.01,4.12-1.29,5.23-3.32,1.88-3.44,5.28-6.57,8.26-6.72l131.79-8.01c10.09-.9,13.79,13.86,1.76,15.94-9.8,1.34-8.44,8.03-4.74,10.31,7.73,4.85,18.77,2.79,30.54-2.15,10.33-4.11,20.55-3.27,30.85,1.38,12.23,5.78,23.93,7.01,35.52-.66,8.21-6.32,11.42-15.28,11.59-26.05,.36-12.95-1.28-25.59-5.18-38.86-7.22-22.05-28.88-24.61-51.84-13.09-11.98,6.66-27.3,10.58-37.79,7.39-12.59-4.14-22.31-5.8-30.29-1.73-6.08,3.34-5.53,9.5-.65,12.78,3.26,2.41,9.49,2.9,13.12,5.4Z"/>
    <g class="dullOrangeDarkest">
      <polygon points="327.61 221.59 339.39 292.12 337.9 291.35 327.61 229.74 327.61 221.59"/>
      <polygon points="13.85 221.59 3.23 292.12 4.57 291.35 13.85 229.74 13.85 221.59"/>
    </g>
    <path class="oakDarker" d="M177.05,303.8c.88,2.59,2.98,4.39,7.1,3.84,3.74,1.59,18.52,1.64,22.16,0,4.29,.55,6.44-1.43,7.09-3.84,.4-1.42,.69-4.64,.36-6.55-.11-.64-.67-1.1-1.31-1.1h-3.49c-.75,0-1.36,.62-1.33,1.37,.06,2.21,.11,5.17-1.34,4.94-3.43-1.44-18.57-1.37-22.11,0-1.61,.19-1.58-2.76-1.53-4.96,.02-.75-.59-1.36-1.33-1.36h-3.27c-.65,0-1.21,.47-1.32,1.11-.33,1.95-.16,5.27,.33,6.54Z"/>
    <g class="caseEdgeLine">
      <path d="M184.15,301.48c-.24-1.72-.23-3.45,.02-5.17"/>
      <path d="M206.31,307.64c.21-1.72,.2-3.45-.03-5.17"/>
    </g>
  </g>
  <g class="bass">
    <polygon class="fretboard" points="246.47 258.68 247.24 256.71 89.03 191.2 88.16 193.06 246.47 258.68"/>
    <path class="neck" d="M202.86,246.69l-106.83-45.04c-3.32-1.32-13.91-4.62-20.49-6.45l1.9-4.35,8.02,2.67c1.89,.52,2.54,.49,3.86,.02l115.72,47.96-2.17,5.2Z"/>
    <g class="pickupSide">
      <polygon points="275.6 271.44 276.91 268.29 284.15 271.32 282.92 274.37 275.6 271.44"/>
      <polygon points="268.65 268.08 269.99 264.94 277.2 268.02 275.95 271.06 268.65 268.08"/>
    </g>
    <path class="bodyLight" d="M329.23,294.49c.11-.88,.02-1.5-.37-1.68l-123.81-51.33c-1.8-.75-6.6,10.72-4.79,11.47l101.09,41.53h27.89Z"/>
    <g class="bodyDark">
      <path d="M217.85,260.19c.73,.3,1.51,.44,2.3,.4l11.51-.51c.84-.04,1.67,.11,2.44,.43l41.94,17.33c.8,.33,1.51,.83,2.08,1.48l7.13,7.98c.55,.61,1.22,1.09,1.98,1.4l-69.39-28.51Z"/>
      <path d="M282.48,273.59c.67,.28,1.27,.7,1.76,1.23l7.42,8.06c.55,.6,1.23,1.07,1.98,1.38l20.77,8.52c.77,.32,1.61,.46,2.44,.41l10.09-.6c.76-.05,1.21-.05,1.92,.25l-46.38-19.22Z"/>
    </g>
    <polygon class="headstockDark" points="77.44 190.84 75.55 195.2 22.41 169.8 24.98 164.76 77.44 190.84"/>
    <g class="silverDark">
      <path d="M29.55,173.21l-.6,1.24c-.16,.34-.02,.75,.32,.92l4.56,2.18c.34,.16,.75,.02,.92-.32l.61-1.25-5.8-2.77Z"/>
      <path d="M41.07,178.72l-.61,1.26c-.16,.34-.02,.75,.32,.92l4.56,2.18c.34,.16,.75,.02,.92-.32l.61-1.26-5.8-2.77Z"/>
      <path d="M52.6,184.23l-.62,1.27c-.16,.34-.02,.75,.32,.92l4.56,2.18c.34,.16,.75,.02,.92-.32l.62-1.27-5.8-2.77Z"/>
      <path d="M64.13,189.74l-.62,1.27c-.16,.34-.02,.75,.32,.92l4.56,2.18c.34,.16,.75,.02,.92-.32l.62-1.27-5.8-2.77Z"/>
    </g>
    <g class="silver">
      <rect x="29.27" y="168.47" width=".86" height="10.74" transform="translate(13.97 -1.82) rotate(4.58)"/>
      <rect x="40.78" y="173.99" width=".86" height="10.74" transform="translate(143.16 26.14) rotate(46.58)"/>
      <rect x="52.31" y="179.51" width=".86" height="10.74" transform="translate(-74.26 40.54) rotate(-25.42)"/>
      <rect x="63.85" y="185.01" width=".86" height="10.74" transform="translate(109.21 -5.47) rotate(31.58)"/>
      <path d="M71.18,187.73l2.12-4.24c.13-.26-.57-.86-1.56-1.33s-1.89-.64-2.02-.38l-2.09,4.19,3.55,1.77Z"/>
      <path d="M59.74,182.04l2.13-4.27c.13-.26-.57-.86-1.56-1.33-.99-.47-1.89-.64-2.02-.38l-2.11,4.21,3.55,1.77Z"/>
      <path d="M48.3,176.36l2.15-4.3c.13-.26-.57-.86-1.56-1.33-.99-.47-1.89-.64-2.02-.38l-2.12,4.24,3.55,1.77Z"/>
      <path d="M36.86,170.67l2.16-4.32c.13-.26-.57-.86-1.56-1.33-.99-.47-1.89-.64-2.02-.38l-2.14,4.27,3.55,1.77Z"/>
      <path d="M315.69,287.35l1.75-4.07c.16-.39-.91-1.2-2.38-1.8-1.48-.6-2.8-.78-2.96-.39l-1.74,4.04,5.34,2.21Z"/>
      <path d="M303.54,282.32l1.81-4.21c.16-.39-.91-1.2-2.38-1.8-1.48-.6-2.8-.78-2.96-.39l-1.8,4.18,5.34,2.21Z"/>
    </g>
  </g>
  <path class="anaJeans" d="M196.76,214.95c6.69,19.56,5.38,47.8,1.42,76.78h-31.44c-4.05-12.18-7.48-17.41-9.43-26.92-8.48-1.64-29,6.52-45.76-12.99-9.71-11.3-7.75-43.68,1.06-46.61l84.16,9.74Z"/>
  <g class="beltTan">
    <path d="M196.47,220.32c-6.78,8.74-23.47,13.73-40.76,14.31,0,2.2,.01,5.24,.02,7.37,17.29-.59,34.14-5.44,42.04-14.29,.64-.82-.65-8.04-1.3-7.39Z"/>
    <path d="M109.18,219.54c-.75-.36-2.24,6.56-1.58,7.49,7.73,9.97,25.84,14.98,44.18,15.04,.02-2.1,.03-5.14,.05-7.37-17.84-.08-35.14-4.88-42.65-15.15Z"/>
  </g>
  <g class="anaBootLeg">
    <path d="M179.44,312.74c-14.11-3.79-20.29-37.32-2.22-41.86,17.7-4.45,25.14,16.78,20.52,36.62l-18.31,5.25Z"/>
    <path d="M144.01,265.1c-8.69,.3-19.44-.66-29.28-9.94,2.06,16.23,5.27,30.77,4.15,44.75,5.29,3.24,21.73,2.27,25.52-.92-1.06-10.36-1.07-21.78-.39-33.89Z"/>
  </g>
  <g class="anaBoot">
    <path d="M132.34,292.59c-3.33,5.14-9.75,7.55-13.45,7.31-.14,1.8-.36,3.59-.66,5.38-4.26,3.39-5.4,7.79-3.15,14.75,1.67,2.85,26.2,4.91,28.34,.01,3.03-5.54,2.45-17.66,.98-21.06-.04-.08-7.92,.09-12.07-6.4Z"/>
    <path d="M176.99,272.16c5.58,1.63,12.86,0,17.38,9.35,3.02,6.24,3.68,15.64,3.38,25.98l-18.31,5.25c-4.72-8.24-8.1-16.29-9.45-23.79-1.68-9.34,4.66-13.53,7-16.79Z"/>
  </g>
  <g class="soleTan">
    <path d="M145.02,315.09c-2.26,3.76-23.74,4.37-26.99,.02,.91,4.32,3.57,6.27,4.64,10.25,0,1.51,17.91,1.2,17.91-.31,1.14-3.98,3.75-6.78,4.44-9.96Z"/>
    <path d="M174.71,298.43c-4.91-9.54-5.24-20.56,2.86-23.46,8.47-3.03,15.28,4.86,17.07,16.9l-19.93,6.56Z"/>
  </g>
  <g class="soleTanDark">
    <path d="M175.9,298.04c-3.37-9.36-1.24-13.75,2.96-15.26,4.34-1.56,10.66-1.75,12.91,10.04l-15.87,5.22Z"/>
    <path d="M194.64,291.87c5.18,12.65,13.53,25.34,12.98,35.98-.48,9.22-17.45,16.43-24.7,8.36-6.52-7.27-3.5-24.89-7.84-37.9l19.55-6.43Z"/>
  </g>
  <g class="skinAshkenazi">
    <path d="M189.63,59.34c-1.74,5.56-1.8,12.63-7.74,13.52-5.52,17.24-14.31,20.9-19.84,25.26-4.01,3.16-14.09,2.88-17.99,0-6.93-5.11-16.88-9.17-20.89-25.01-4.99-24.13,61.48-37.9,66.47-13.77Z"/>
    <path d="M169.37,81.68c-1.17,4.5-1.67,12.63-.65,16.26h-32.28c.78-4.63,.78-12.46-.38-16.12"/>
    <path d="M255.7,246.22c-4.79-4.94-4.03-8.67-11.15-15.28-7.46-5.35-17.09-29.87-23.11-33.77l-20.6,9.86c7.22,12.3,23.07,18.93,32.99,29.25-6.68,4.29-4.87,8.84-10.13,8.7-.94-.03-1.15,.75-.81,1.65l6.01,2.49c3.87-.27,3.01-5.09,10.78-4.91,2.01,3.15,7.65,6.73,11.68,7.56,1.98,2.78,2.05,6.77,3.93,10.55l8.97,3.72c1.41,.19,3.06-.51,2.53-1.65-1.9-3.52-1.75-6.92-3.63-10.34-1.76-3.19-4.12-4.94-7.47-7.83Z"/>
    <path d="M104.17,197.79c2.08-2.91,5.16-5.84,6.94-8.8-6.88,5.05-19.7,1.22-22.28-8.93-.9,2.82-.83,5.48-.52,7.86-2.91-2.12-6.88,.72-4.94,5.51,.81,2.03-1.81,10.34,2.68,11.04,2.78-.1,2.02,4.7,6.21,3.75,2.54-.58,2.89,1.67,5.41,.78,1.68-.72,2.54-.03,3.73-.78,3.56-2.26,7.03-7.81,2.78-10.42Z"/>
  </g>
  <path class="hairDarkBrown" d="M190.35,28.9c1.77,1.79,3.12,3.81,4.11,6.04C194.22,18.38,175.68,0,152.48,.25c-22.22,.23-35.64,11.23-42.18,35.13-5.5,20.12,1.68,49.85,12.37,66.63-2.22-7.16-2.39-14.47-2.34-21.15,1.49,2.79,2.77,5.63,4.63,7.01-1-7.44-1.05-14.17,0-19.58,.88,3.08,2.09,5.78,4.11,8.1-.47-2.24-.54-4.6-.36-7.01,7.73,4.83,20.55,3.38,23.33,8.46,6.16-5.68,21.63,.12,30.82-16.19,.36,3.02-.48,5.2-2.05,7.37,12.09-7.37,14.78-23.81,9.55-40.12Z"/>
  <path class="hairOverlapLine" d="M128.71,69.38c-.02-2.45,.28-4.96,.82-7.51"/>
  <g class="skinOverlapLine">
    <path d="M89.06,195.56c.45-1.87-.35-4.52-.75-7.64"/>
    <path d="M102.68,200.28c.38-.83,.89-1.66,1.49-2.5"/>
    <path d="M237.91,240.88c.5,1.18,.8,2.14,1.78,3.33"/>
    <path d="M251.36,251.77c7.6,3.59,5.92,10.39,7.82,12.16"/>
    <path d="M255.7,246.22c2.12,3.45,4.06,4.72,5.6,7.92,1.41,2.94,1.11,7.26,2.64,9.79,.34,.49-.45,1.57-1.51,1.34"/>
    <path d="M181.88,72.86c.33-1.39,.5-2.98,.44-4.85"/>
  </g>
  <path class="anaShirt" d="M113.82,192.59c-1.47,1.8-.3,5.19-.57,7.49s-2.09,2.37-.64,5.13c-.51,3.69-1.21,6.94-2.34,9.17,.43,19.4,73.44,26.28,86.5,.57-.01-6.53-1.5-6.01-2.86-9.19-.8-1.87,.76-2.8-.8-7.71,1.28,2.43,4.37,5.65,7.73,8.98l20.6-9.86c-1.73-6.63-3.79-12.61-6.77-16.78,2.55-9.42,.31-12.53-1.33-18.04-.94-3.17,1.07-6.84-1.61-9.48,.9-2.67-1.8-5.21-2.06-8.98-3.06-25.05-6.57-24.87-10.6-27.85l-89.15-2.18c-7.41,1.95-11.3,9.27-11.92,18.46-.42,6.16-2.96,5.45-2.47,14.19-9.05,11.97,.41,12.95-3.18,22.65-9.01,12.04,5.11,27.14,20.24,18.48-.54,2.06-.11,3.69,1.23,4.93Z"/>
  <g class="anaShirtOrnament">
    <path d="M174.96,104.3c-6.64-1.87-34.71-3.29-42.79-.62-6.8,3.26-16.69,6.47-22.25,10.19-.83,.06,.58,13.67,1.41,13.61,14.69,1.87,14.55,5.49,21.12,8.68,6.88,3.34,15.88-1.56,19.56,9.07,2.69-10.63,14.89-5.42,20.7-8.26,7.74-3.78,11.62-8.16,24.24-7.59,.99-1.84,.85-9.87,2.11-13.34-6.51-6.17-16.86-7.81-24.11-11.75Z"/>
  </g>
  <g class="anaShirtInner">
    <path d="M209.94,201.77c.41-4.67-.2-13.26,.57-13.22,.67-1.05,5.61-2.19,8.06-4.41,1.07-.34,1.96,7.16,4.59,12.59,.79,1.23-3.42,6.66-12.03,9.6,2.78,2.67-5.68,2.79-10.33,2.3-1.52-.38-4.38-4.28-6.22-6.73-.72-.78,7.18-7.44,8.16-7.2,1.16-.5,4.25,4.89,7.2,7.08Z"/>
    <path d="M113.59,181.5c.19,2.58-.12,4.66-1.01,6.16-6.47,7.08-21.63,3.16-23.93-8.34-.58-3.76,.18-10.19,3.69-10.14-1.66,4.09-1.53,8.93,3.52,12.19,1.22,.79,1.43,5.07,3.96,7.66,2.87-1.3,3.96-4.03,5.32-5.12,1.16-.82,4.98,.82,8.44-2.41Z"/>
  </g>
  <g class="anaShirtCollar">
    <path d="M174.96,104.3c-6.64-1.87-34.71-3.29-42.79-.62,1.56-2.95,2.73-7.72,3.69-8.34,4.11-2.69,27.93-2.98,34.02,.71,.67,.4,2.55,5.1,5.08,8.25Z"/>
  </g>
  <g class="clothesDisplayLine">
    <path d="M154.16,264.57c-.54-2.31-1-9.11-.88-13.47"/>
  </g>
  <g class="clothesOverlapLine">
    <path d="M197.08,140.85c.28,25.05-6.76,43.49-3.98,57.2-.41,4.07-1.23,8.64-5.43,11.28"/>
    <path d="M110.95,140.99c-.28,5.77,.67,7.19,.56,11.96-.42,18.72,1.55,23.08,2.08,28.55"/>
    <path d="M202.74,194.7c-2.83,1.59,2.98,7.67,8.4,11.64"/>
    <path d="M209.94,201.77s-.19,2.29-.27,3.43"/>
    <path d="M157.31,264.81c9.91,.31,32.11,5.8,40.11-24.4"/>
    <path d="M110.27,214.38c-2.75,3.11-5.15,10.75-4.78,20.42"/>
    <path d="M118.23,305.29c-.67,3.13-.94,7.04-.2,9.67"/>
  </g>
  <g class="clothesFoldLine">
    <path d="M193.91,205.76c1.1,3.1,.88,6.61-2.35,11.02"/>
    <path d="M189.23,204.05c-1.09,2.45-3.25,4.5-7.14,5.9"/>
    <path d="M181.25,227.25c.66-1,1.04-2.59,1.2-4.62"/>
    <line x1="176.36" y1="228.86" x2="176.82" y2="225.78"/>
    <path d="M160.16,231.49c2.53-3.17,2.16-8.85,3.93-4.84"/>
    <path d="M157.31,231.63c.37-.84,.62-1.87,.66-3.23"/>
    <path d="M134.36,229.86c-.64-1.02-.92-2.09-.86-3.21"/>
    <path d="M130.44,228.98c-1.76-7.75-5.95-10.46-3.94-4.04"/>
    <path d="M116.73,223.48c-1.32-2.04-1.76-4.27-1.32-6.7"/>
    <path d="M112.61,205.21c1.53,1.88,3.71,3.43,6.38,4.75"/>
    <path d="M116.36,204.62c1.5,1.91,4.1,3.23,7.34,4.2"/>
    <path d="M113.82,192.59c1.76,1.46,4.19,2.08,5.25,3.56"/>
    <path d="M94.77,174.9c1.1,2.16,1.46,4.31,1.1,6.47"/>
    <path d="M112.77,176.13c-4.39,1.9-8.91,.32-9.61,2.45"/>
    <path d="M111.49,161.24c-.98,3.43-2.85,6.2-2.81,9.64"/>
    <path d="M111.08,146.5c-2.67-4.81-6.81-6.42-7.91-10.58"/>
    <path d="M192.48,189.32c1.42-.57-.24,3.41,4.13,5.04"/>
    <path d="M192.78,184.52c1.03,.61,1.31,1.71,2.34,2.18"/>
    <path d="M214.67,180.39c-.41,1.58-1.02,3.08-1.9,4.74"/>
    <path d="M212.16,177.7c-.62,3.84-2.15,7.95-6.12,12.76"/>
    <path d="M203.16,143.7c2.8,4.2,6.94,9.11,6.91,6.12"/>
    <path d="M206.05,153.49c2.8,2.88,6.03,3.93,5.68-.61"/>
    <path d="M199.14,140.46c3.85-8.04-1.4-7.95-2.06,.38"/>
    <path d="M104.83,135.92c.17-7.34,2.36,2.45,6.13,5.07-.72-2.22,0-4.63-.87-5.42"/>
    <path d="M95.53,146.53c-2.68,10.9,2.13,18.41,10.96,15.01"/>
    <path d="M95.21,165.73c.6-2.57-1.92-2.88-3.22-6.65"/>
    <path d="M105.15,183.91c-1.44-.66-2.86,.32-4.26,2.36"/>
    <path d="M196.35,251.55c-1.67,3.54-5.97,7.96-9.57,7.79"/>
  </g>
</svg>