<svg viewBox="0 0 145.85 492.58">
  <path class="anaJeans" d="M118.86,215.81c3,8,4.76,17.77,5,28.76.07,3.05,4.35,5.23.65,7.4,3.25,2.88,0,7.19.87,23.31,1,19.47,0,39.44-1.52,59.69-.36,4.8,2,10.6.21,13.73a308.79,308.79,0,0,1,2.84,42.91c-5.27,16.65-16.56,13.81-31.59-1.09-2.36-9.38-1.21-27-3.27-34.63-2.26-8.42-4-18.4-5.66-29-.61,12-2.14,24-1.31,32.9,1,10.37,2.18,15,.22,29.19-11.18,8.92-21.83,12.25-30.94-.44-.21-10.24-2-28.32-.87-33.11-3-1.66-1.39-4.82-2-7-4.94-18.71-10-51.62-11-69.43-.75-15-5.12-24.58-1.57-33.8-.07-13.12,1.27-22.45,3.45-24.86C52.85,226.7,107.53,223.87,118.86,215.81Z"/>
  <g class="beltTan">
    <path d="M83.71,226.66a169.55,169.55,0,0,1-29,.07,59.64,59.64,0,0,0-.24,9.89,203,203,0,0,0,29.83-.17A69.72,69.72,0,0,1,83.71,226.66Z"/>
    <path d="M117,220.24c-6.66,2.75-17.78,4.92-29.75,6.1a46.65,46.65,0,0,0,.62,9.82c13-1.14,25.07-3.28,31.5-6A37.22,37.22,0,0,0,117,220.24Z"/>
    <path d="M51.06,226.31a46.64,46.64,0,0,1-10.84-2.63c-.54-.07-1.92,9.65-1.38,9.72,2.67,1.3,6.75,2.23,11.72,2.83A76.82,76.82,0,0,1,51.06,226.31Z"/>
  </g>
  <ellipse class="clothingBrass" cx="67.81" cy="232.72" rx="11.39" ry="7.77" transform="translate(-8.56 2.67) rotate(-2.12)"/>
  <polygon class="soleTanDark" points="68.62 483.52 68.95 475.05 61.05 474.91 61.19 482.59 68.62 483.52"/>
  <g class="soleTan">
    <path d="M80,470.16c.3,3.32-1.72,6.89-2.41,11.32-.4,1.73-5.77,2.25-9,2l.33-8.47Z"/>
    <path d="M102.33,471.48c-1.68,4.27,1,9,1.13,12.35,2.48,2.43,6.6,2.22,8.2,1.7Z"/>
  </g>
  <g class="anaBoot">
    <path d="M87.3,388.65c-3.51-4.5-15.69-5.52-26,4.43a33.21,33.21,0,0,1-8.1-9.33c.17,20.6,5,61.59,1.75,67.32-9.07,8.87-9.06,16.58-22.92,21.4-5.4,1.88-5.65,10.35,2.18,12.74a24.7,24.7,0,0,0,19-1.91c4.29-2.55,8.75-6,19.36-7.85,9.8-1.73,9-7.49,8.84-15.94C81.05,441.12,84.78,415,87.3,388.65Z"/>
    <path d="M93.84,387.38c7.34,1.81,19.09,8.34,23.72,12.37,4.29-3.66,9.11-9.68,11.06-15.22-.66,28.81-4.64,54.68-3,69.69,4,5.55,5.38,18.95,11.79,24.84,4.36,4,2,12.1-6.44,12.89-7.87.73-23.26,1.1-24.5-5.65-1.6-8.66-4-10.24-5.06-15.89s1-13.35,1.1-17.45C102,429.93,95,408,93.84,387.38Z"/>
  </g>
  <g class="anaBootLeg">
    <path d="M61.3,400.12a35.09,35.09,0,0,1-7.82-7.72c1,21.72,4.34,53.66,1.49,58.67,1.24-1.24,2.57-1.57,4-3.23,5.36,6.7,13.29,8.86,22.44,8.86,0-16.9,3-39.52,5.35-62.73C78.06,389,67.89,393.31,61.3,400.12Z"/>
    <path d="M128.31,393.59a33.67,33.67,0,0,1-10.67,12.5c-8.11-5.86-16.18-10.89-23.3-12.53,2,18.79,7.75,38.66,8.19,59.4,0,.84-.13,1.84-.27,2.94,5.58-.47,10.11-2.48,13.74-6.81,2.62,3.55,6.45,4.26,9.64,5.13C124.15,440.8,127.18,418.7,128.31,393.59Z"/>
  </g>
  <g class="anaBootStrap">
    <polygon points="78.71 384.61 83.42 385.38 81.88 403.87 77.67 403.07 78.71 384.61"/>
    <path d="M93.84,387.38c.43.1.88.23,1.34.37-.38-1-.89-1.55-1.55-1.49-.83,0-1.2.56-1.11,1.67.45,5.31,1.06,11,2.09,17,.3,1.66,1.52,1.39,1.52,1.39A174.61,174.61,0,0,1,93.84,387.38Z"/>
    <path d="M127.7,404.59s1.31,0,1.5-1.74c.58-5.73.81-17.09.81-17.09,0-1.11-.57-1.32-1.39-1.23C128.46,391.42,127.7,404.59,127.7,404.59Z"/>
  </g>
  <g class="anaShirt">
    <path d="M31.71,212.69c3.82,2.31,8.75,3.17,12.47,5.11l-1-47.64a165.23,165.23,0,0,0-7.28,24.38c-5.89,5.18-3.07,7.37-3.4,11.28C32.25,208.49,30.3,207.27,31.71,212.69Z"/>
    <path d="M42.59,179.23c-1.21,10.5-4.27,17.21.23,27.32,0,3.12-2.42,6.33-.43,13.84,10.46,6.31,65.14,3.48,76.47-4.58,4.14-5.18.38-5,.19-7.09,1.62-3.25-1.89-9.45-3-16.22,3.33-5.33-.64-6.46-.84-10.69,4.43-3.86,1.9-7.49,1.1-11.15,0-63.65,7.41-50.14-67.34-50.14-6,11.2-15,19.24-6.86,39.15C40.51,172.24,43.15,174.32,42.59,179.23Z"/>
    <path d="M134.18,122.41c.21-20.8-22-16.47-26.36.41.21,7.83-1.65,12-3.91,15-3.22.76,0,1.66-1.65,4.73-1.46,2.77-1.36-3.47-3.91-1.85-1.39-3.43-5.2-4.2-7.89-6.3-2.51-2-3.27-4.49-7.76-5.85C85.16,131,72.45,143.79,70,141.41c4.73,9.09,11,13.37,17,19,6.39,6.06,13,13.73,21,14.58,7.13.76,19-13.83,23.84-38.1C133,130.93,138.79,125.93,134.18,122.41Z"/>
  </g>
  <path class="anaShirtOrnament" d="M126.13,108.68c-3.25-3.51-5.38-3-20.59-11.68l-38.29-.14c-9.52,5.43-15.54,16-18.23,23.66,59.92,15.15,31.68-.41,58.8,2.3C110.4,112.74,119.37,107.14,126.13,108.68Z"/>
  <g class="anaShirtTrim">
    <path d="M92.57,101.81c-7.63,7.52-13.38,16.61-16.94,21.72C73.31,106.28,83.59,95.17,92.57,101.81Z"/>
    <path d="M68.52,187.6c.6-9.48-2.61-13.48-1.42-28.36.39-5-1.47-10.65,1.41-19.54-1.43-1.58-2.79-2.88-4-4.21-4.58,10.82-2.46,16.56-3.2,24.13-1.41,14.3,1.35,17.56,1.2,27.18-.2,13.28-4.16,21.94,1.61,37,2.06.05,4.33.08,6.78,0C65.76,207.73,67.72,200.28,68.52,187.6Z"/>
    <path d="M82.7,128.59C85.16,131,72.45,143.79,70,141.41c-3.29-4-6.29-6.13-8.44-9.71-2-3.31,9.61-14.87,12.56-12.36C77.42,122.17,78.81,125.72,82.7,128.59Z"/>
    <path d="M42.39,220.39a23.36,23.36,0,0,1-.68-3.69c-3.27-1.26-7-2.18-10-4-1.38,4.15-6.32,11.16-6.23,13.42-.27.57,10.14,5.52,13.89,6.81C39.92,226.41,41,222,42.39,220.39Z"/>
  </g>
  <g class="anaShirtCollar">
    <path d="M56.4,141.49c-.31.61-8.16,3.66-9.42,3.32-.56-.16-6.57-4.36-6.63-5.06a23.16,23.16,0,0,1,1.15-5.11c.53-.59,15.64.93,16,1.59S56.59,141.11,56.4,141.49Z"/>
    <path d="M89.06,100.75c3.64,1.66,5,6.62,6.28,12.12,5.18-6.26,13.61-13.94,11.62-16-1.72-1.77-2.87-7.48-4.29-8.31C96,84.64,75.24,83.08,66.5,95.26c-2.94,4.11-3,6.86-3.51,11.8,1.08-4.28,2.13-9.56,3.25-9.65,2.5,2.86,4,10.36,7.39,17.16C77.64,106.41,83.63,102.07,89.06,100.75Z"/>
  </g>
  <g class="clothingPearl">
    <circle cx="48.2" cy="141.02" r="1.82"/>
  </g>
  <g class="clothesDisplayLine">
    <path d="M65.42,240.37c-.63,8.7,2.26,13.16,2.81,16.93,1.35,9.33,4.91,10.31,7.61,18.9"/>
    <path d="M49.94,238.76a12.57,12.57,0,0,1-11,6.49"/>
    <path d="M88.54,239.62c4.5,7.09,17,8.47,27.43,6.14"/>
  </g>
  <g class="clothesOverlapLine">
    <path d="M86.4,326.91c-7.27-26.05-7.64-44.32-10.56-50.71"/>
  </g>
  <g class="clothesFoldLine">
    <path d="M35.87,194.54a5.12,5.12,0,0,0-.45,3.28"/>
    <path d="M36.29,199.48c.59,1.36,3.32,3.16,5.22,3.48"/>
    <path d="M42.82,206.55c1.16,1.78,3.41,2.37,3.2,3.63"/>
    <path d="M45.54,216.12a13.68,13.68,0,0,0,1.68,6"/>
    <path d="M55.66,219.62a6.26,6.26,0,0,0,1.56,3.85"/>
    <path d="M42.16,159.67c1.46,3.21,1.75,6.13,4.28,11"/>
    <path d="M47.41,157.14C48,162.52,50,167,50.53,172.23"/>
    <path d="M83.49,162.2q-.45,10.25-1.85,21.9"/>
    <path d="M89.62,168.92a213.14,213.14,0,0,1-4.28,25.59"/>
    <path d="M77.75,215.44A29.32,29.32,0,0,0,79,223.56"/>
    <path d="M81.64,219.62a8.5,8.5,0,0,0,.39,3.77"/>
    <path d="M104.41,215.81a26.61,26.61,0,0,1,1.62,4.52"/>
    <path d="M114.24,213.2c-4.55-2.62-5.35,2.24-1.57,5.4"/>
    <path d="M113.76,206.58c-.11,3.15,1.69,4.8,4.86,5.35"/>
    <path d="M119.05,208.72a3.83,3.83,0,0,1-1.5,1.56"/>
    <path d="M116.1,192.5c-1.95,2.4-7,.1-8.38,2.89"/>
    <path d="M115.26,181.81c-2.67,3.17-7.48,2.34-3.35,6.86"/>
    <path d="M88.84,140c-2-3.42-6-3.12-8.58-5.51"/>
    <path d="M83.69,140.31A11.73,11.73,0,0,1,88.84,145"/>
    <path d="M98.19,130.28c-1.45,2.62-3.7,4.48-4.67,6"/>
    <path d="M103.44,133.4c1.08-4.06-4.86.78-7,4.77"/>
    <path d="M112.1,119.38a17,17,0,0,0-4.4,7.87"/>
    <path d="M129,116.17c-8.15-.46-15.76,4.77-21.78,14.11"/>
    <path d="M124.46,119.58A26,26,0,0,0,111,127.66"/>
    <path d="M134.18,122.41c.49,5.06-3.7,8.93-15,11"/>
    <path d="M122.51,139.82c-5.44.16-12-3-18.6-2"/>
    <path d="M111.71,141c-2.54-.52-5.81-1.13-7.88-.57"/>
    <path d="M98.35,140.74c1.66,4.06-1.92,11.63,2.07,21.95"/>
    <path d="M100.94,142.64a16.85,16.85,0,0,1,2,7.3"/>
    <path d="M107.24,161.33c-2.24,16.13,9.75-7.91-5.44-18.14"/>
    <path d="M113.28,164.45c-2-8.65-1.07,2.47-3.21,5.51"/>
    <path d="M115.34,163.54c.33-10.21-4.18-18-11.61-20.66"/>
    <path d="M96.34,265.77A114.08,114.08,0,0,0,79.89,269"/>
    <path d="M67.37,269.2a104.66,104.66,0,0,0-16.2-.86"/>
    <path d="M68.47,273.25a161.59,161.59,0,0,0-19.27,2.58"/>
    <path d="M80.87,272.64a96.94,96.94,0,0,1,16.94,2.82"/>
    <path d="M120,350.82a75.77,75.77,0,0,1-18.28,1.72"/>
    <path d="M113,355.49a89.05,89.05,0,0,1-16.57.61"/>
    <path d="M120.52,358.07A79.27,79.27,0,0,1,103,359.54"/>
    <path d="M76.7,352.23c-4.91,1.35-18.05,1.23-22.83-.36"/>
    <path d="M53.5,355.45a52.64,52.64,0,0,0,15.71.78"/>
    <path d="M78.29,358.34a61.43,61.43,0,0,1-18.9.83"/>
  </g>
  <g class="eye">
    <rect class="sclera" x="54.15" y="42.64" width="32.02" height="19.37"/>
    <g class="irisAmber">
      <ellipse cx="77.94" cy="57.28" rx="3.6" ry="2.79" transform="translate(-7.92 101.81) rotate(-63.72)"/>
      <ellipse cx="57.54" cy="46.49" rx="3.6" ry="2.79" transform="translate(-9.61 77.5) rotate(-63.72)"/>
    </g>
    <g class="pupil">
      <ellipse cx="77.47" cy="57.04" rx="1.4" ry="1.09" transform="translate(-7.98 101.25) rotate(-63.72)"/>
      <ellipse cx="57.07" cy="46.25" rx="1.4" ry="1.09" transform="translate(-9.67 76.95) rotate(-63.72)"/>
    </g>
  </g>
  <g class="skinAshkenazi">
    <path d="M110.38,72.78s-17.18,25.69-21.32,28c-3.57,2-10.24,12.16-13.71,20-2.71-9.17-7.42-25.21-5.27-28.69"/>
    <path d="M44.89,243.75c-1.06-7.8-4.16-8.77-5.52-10.83a104.23,104.23,0,0,1-12.6-5.82c-.45,4.49-2.29,8.87.85,17.79,4,11.29,4.77,9.22,7,14.95A36.28,36.28,0,0,1,36.79,278c.12,1.65,2.19,2,3.71,1-1.12-17.57-5.13-24.38-1.56-33.71A13.9,13.9,0,0,0,44.89,243.75Z"/>
    <path d="M42.52,97.27c-2.89-.77-6-1.17-7.23-.88-4.95,1.26-6.32.24-9.56,1.53-2.22.84-.3,7.32,8,4.37,4.14.29,6.47,1.54,9.73,2.5-5-.43-8.26-1-8.85,2.52-.51,3.09,1,3.18,2.89,3.47-1.26.81-1.19,4.42,0,5.37,1.5,1.19,4.94,1,5.77,2,6.41,8.64,14.77,4.93,18.78,12.1,1.29,1.29,12.38-9.25,11.1-10.54-7.9-9.36-5.64-8.68-10.32-16.91-4.14-7.26-9.47-7.71-12.05-11.92-1-1.63-3,.37-3,2a23.27,23.27,0,0,0-8.87-3C35.08,89.25,33.27,89,28,91c-3,1.64-1.55,6.07,6.51,4.59C37.82,95.16,39.72,96.41,42.52,97.27Z"/>
    <path d="M102.92,77.41C97.36,88.06,85.11,91.16,75.66,91.76c-8.08.51-12.49,3.25-18.74-1.39-5.6-4.14-4.11-8.81-6-13.76-7-18.62,2.55-27.95,2.61-32.94s.55-7.09,2.52-15.26C64-11.22,121.2,8.54,102.92,77.41ZM74.49,56.15c1.33.55,2.76,2.16,3.89,2.8,3.09,1.75,5.15,1.74,6.89,1.33a13.93,13.93,0,0,0-5.64-4.62,9.64,9.64,0,0,0-5.48-.49C73.21,55.3,74.1,56,74.49,56.15ZM63.87,49.71c-1-2.06-2-3.9-4.09-4.89a12.65,12.65,0,0,0-4.06-1A2.69,2.69,0,0,0,55,45.46c2.33,3.53,6.65,3.69,7.92,4.59C63.48,50.44,64.09,50.18,63.87,49.71Z"/>
  </g>
  <g class="skinOverlapLine">
    <path d="M37.49,110.78a50.68,50.68,0,0,1,5.37.6"/>
    <path d="M47.84,92.9c3.7,1.76,5.93,3.79,9.65,4.87"/>
    <path d="M42.52,97.27c2.17.68,3.77,1.35,5.73,1.84"/>
  </g>
  <path class="skinEdgeLine" d="M52.72,99.11c-1.23,2.52-3.95,1.56-4.62,5.62-.43,2.58-1.93,2-1.89,5.25,0,2.1-1.58,3.6-1.21,5.31"/>
  <g class="cigarette">
    <path class="cigaretteFilter" d="M36.51,95.54l-4,2.81A1.36,1.36,0,0,0,31,96.21l.5-.35a8,8,0,0,0,3-.7A10.07,10.07,0,0,0,36.51,95.54Z"/>
    <path class="cigaretteBody" d="M31,96.21l-3.48,2.46L29,100.81l3.54-2.46A1.36,1.36,0,0,0,31,96.21Z"/>
    <path class="cigaretteEmber" d="M27.53,98.67c1.22-.64,2.66,1.15,1.45,2.14C27.88,101.6,26.46,99.54,27.53,98.67Z"/>
    <path class="smokeLight" d="M24.55,97.73a22.17,22.17,0,0,1-14.08-7.45c-2.46-3.15-2.7-5.19-4.3-9.09A13.57,13.57,0,0,0,.25,75a22.7,22.7,0,0,1,9.3,6.1c3.16,3.76,2.44,5.71,5.1,9.21C17.41,94,19,95.36,24.55,97.73Z"/>
  </g>
  <path class="lipFemaleMedium__noStroke" d="M65,78c-3.26-1.2-5.79-2.62-6.69-4.56a2.93,2.93,0,0,1-1.18.84h0c-5.72,4.45,1.33,12.52,7.42,6.61,1-.76,2.12-1.6,3.51-1.2Z"/>
  <path class="lipFemaleMedium" d="M58.32,73.41a3.05,3.05,0,0,1-3.49.79c1.74-.22,1.4-1,1.22-1.73-.45-1.83.78-3.12,2.74-1,2.33,2.51,4.71.15,5.9,2.49,1,2.06-.27,3.25,3.38,5.7L65,78C61.75,76.77,59.22,75.35,58.32,73.41Z"/>
  <path class="lipOverlapLine" d="M57.16,72.83c.65-.24.83.2,1.16.58"/>
  <path class="lipEdgeLine" d="M55.71,75.81c-2.76,4.49,3.43,10.31,8.85,5"/>
  <path class="mouthInner" d="M58.32,73.41c-1.4,2.35-.29,3.78,1.65,4.33,1.34.38,2.86-.29,5,.23-1.9-1.09-2-2.5-3.06-3.28S59.53,74.55,58.32,73.41Z"/>
  <path class="noseLine" d="M69.67,66.5c1.25,1.3-.26,4.71-3.4,3.57-4.17-1.52-4.57-.44-7.18-1.39-2.45-.9-2.26-2.53-2.87-3.62-2.08-3.71,2-4.24,3.22-6.4"/>
  <g class="eyeFoldLine">
    <path d="M81.84,62.82C77.75,63,75.66,61,75.05,59.2"/>
    <path d="M61.13,51.31c-3.28.27-5-1.17-6-2.86"/>
  </g>
  <g class="eyeCornerLine">
    <path d="M88.41,61.49a7.6,7.6,0,0,1-3.14-1.21"/>
    <path d="M55.72,43.87A6.3,6.3,0,0,0,54.4,44"/>
    <path d="M55,45.46a2.93,2.93,0,0,1-.42-.64"/>
  </g>
  <g class="eyeCreaseLine">
    <path d="M75,54c4.29-1.57,8,2,10.38,4.53"/>
    <path d="M56.11,42.83a8.33,8.33,0,0,1,8,5.61"/>
  </g>
  <g class="eyebrowDarkBrown">
    <path d="M76.89,44.22c5.23,4.55,13.41,5.23,15.38,13.26-.79,1.29-2.12-4.24-11.06-7.12C75.83,48.62,75.75,47,76.89,44.22Z"/>
    <path d="M54.31,36.3c-.14.68-.22,1.2-.31,1.77,7.42-1.49,12.56,6.59,14.41,1.06C63.07,37.2,61,35.08,54.31,36.3Z"/>
  </g>
  <path class="hairDarkBrown" d="M56.08,28.41C55,7.67,83.91-2.42,100.86.86c37,7.15,45.89,34.91,44.63,48a26.7,26.7,0,0,0-4.29-6.83c1.86,6.14,6.49,23.16-8.1,37.28a26.8,26.8,0,0,0,1-7.88c-3,7.53-15,18.79-22.72,22.72a25.59,25.59,0,0,0,2.2-6.94c-3.71,4.67-21.78,15.26-25.57,15.8,6.14-8.21,11.26-27,12.08-37.41A16.49,16.49,0,0,1,93,71.12a50.81,50.81,0,0,0,5.9-22.19C92.08,47.08,68.22,30.29,62,20.26,59.59,22.11,57.71,25.18,56.08,28.41Z"/>
  <g class="hairOverlapLine">
    <path d="M68.94,12.3c-3,1.64-6.26,4.54-6.92,8"/>
    <path d="M98.91,48.93c.58-3-.12-11-1-14.86"/>
  </g>
</svg>
