<svg viewBox="0 0 168.95 415.64">
  <g class="purse">
    <path class="purseDark" d="M62.41,203.64c-4.78,1-15.94,4.72-17.74,5.75l8.23,30.38c1.2.14,7.44-1.57,9.88-2.64Z"/>
    <path class="purseLight" d="M53.78,239a235.82,235.82,0,0,0-5.38-26.33c-1.14-4.4-4.77-4.08-4.57-1.57a218.68,218.68,0,0,0,3.58,25.37C47.77,238.26,54.1,241.2,53.78,239Z"/>
  </g>
  <g class="sockWhite">
    <path d="M140.71,389.47c-1.84-4.88-6.41-10.76-6.09-11.48,3.35-.56,12.69-6.05,15.08-8.67.7-.32,4.12,7.48,7,11.68Z"/>
    <path d="M32.25,387.18c2.14-5.65,3.85-15,5.08-15,3.23,2.37,13.69,5.69,17.84,5.92.54.69-2.69,7-4.54,12.15Z"/>
  </g>
  <g class="soleWhite">
    <path d="M55.21,401.63c-.39,4-1.12,7.19-2.9,8.07-5.71,2.81-18.15-.7-31.38-.55C5.8,409.34-.83,404.29.39,398.64.39,398.64,55.39,401.54,55.21,401.63Z"/>
    <path d="M165,389.32c2.14.92,3.06,2.69,3.66,4.78-3.84,8-14.2,13.14-25.73,18.33-8.36,3.76-22.6,3.65-25,1.29-1.42-1.42-1.31-4.94-1.14-6.27Z"/>
  </g>
  <g class="catherineShoe">
    <path d="M52.94,385.26c2,.13,3.47,11.47,2.27,16.37-9.33,8.79-18.18,3.66-29.9,4-9.52.27-20.53-1.78-24.92-7,2.29-5.95,8.26-3.36,15.6-5.69,15.16-4.83,16.24-12.72,17.55-12.76,2.87.25,3.37,2.63,2.2,5.76C44.76,390.18,50.53,385.9,52.94,385.26Z"/>
    <path d="M153.93,376.33c2.09-.29,11.28,9.72,11.72,12.68-5.37,10.87-15.24,17-28.49,21.14-8.31,2.62-17.53,2.15-20.07-1.39.17-5.18,8.23-5.2,10.52-7.52,4.49-4.56,7-11.29,9.06-18.61,2.13-1.12,3.08,1.22,3.68,4.55C150.85,385.7,151.59,378.25,153.93,376.33Z"/>
  </g>
  <g class="catherineShoeStripe">
    <path d="M161.43,395.56c-7.15,2.9-20.19.21-27.58-4.43a35,35,0,0,1-4.13,7.63c4.85,2,10.84,4.92,14.44,8.86C151.26,404.66,157.1,400.84,161.43,395.56Z"/>
    <path d="M47.81,406.06c-9.45-3.35-15.75-10.27-21-18.35a33.78,33.78,0,0,1-7.19,3.93,33.8,33.8,0,0,1,5.65,14h.06C33.92,405.38,41,408.08,47.81,406.06Z"/>
  </g>
  <g class="shoelace">
    <path d="M128.74,402.22c3.41-2.83,6.19-6.81,8.85-11.71a14.93,14.93,0,0,1-3-1.21c-1.71,4.66-3.87,8.81-7,11.94A1.72,1.72,0,0,0,128.74,402.22Z"/>
    <path d="M16.36,394.58c4.69-.75,11.32-4,14.51-7.31a11.17,11.17,0,0,1-1.48-1.76c-2.49,2.43-6.53,5.25-13.4,7.44A3,3,0,0,0,16.36,394.58Z"/>
  </g>
  <path class="catherineShorts" d="M119.22,213.36c-6.57,4.64-58.76,3.19-58.76,3.19-2.3,11.42.55,15.34-1,17.4-2.07,2.8.42,3.72-.17,6.33a32.54,32.54,0,0,0-.49,9.5c.66,2.11,11,3.43,13.68,3.16.26,1.59-.26,2.38.66,3.3,1.32,2.11,44.2-2.35,46-6.18-2.5-4.35.35-7.93-2.15-12.16C121.57,230.66,121.64,220.44,119.22,213.36Z"/>
  <g class="catherineSweater">
    <path d="M62.5,174.18c-2.12.87-4.27,1.7-5.24,4.6-2.14,2-5.73,2.8-6.53,4.06-1.23,2,6.74,13.49,9.42,12.74Z"/>
    <path d="M62.49,107.07a22.55,22.55,0,0,1,7.41-6.23C80.41,90.33,97.32,89.78,107.43,98c14,11.1,16.83,25.84,11.53,52.93-2.08,10.67,2,10.14-.18,15.86-1.3,3.37,4.39,6.6.1,15.56,3.66,5.3,1.92,6.27,2,9.59.12,3.74,2,9.23-2.09,11.74,0,5.33,1.36,7.14.93,9.25C114.6,219.15,72.8,222,60,216.35c.38-1.76,0-5.19,1.08-8.17-4.47-10.34-1.19-18.48,0-27.88.73-5.72-2.35-9.84.22-16.91-1.75-3.57-2.53-7.89-2.89-13.1"/>
  </g>
  <g class="calLogo">
    <path d="M75,163.69c-1.74,6.15-4.93-2.1-7.46.17-1.64,1.47-3.37-2.33-3.79-3.55-.92-2.7-1.48-5.85-.62-8.63.59-1.94,2.48-3.32,3.34-5.15,2.6-5.5,6.43.75,6.7,4,.16,2,1.47,3.89,2.09,5.68C76.15,158.7,75.76,161.1,75,163.69Z"/>
    <path d="M73.43,122.46c.66,2,2.74,8.77-.07,9.88-.7-1-.31-2.15-.23-3.1C73.32,127,73.43,124.73,73.43,122.46Z"/>
    <path d="M71.33,119.86c-.55,3.31.25,7.11-1.19,10.23C67.44,128.91,70.43,121.71,71.33,119.86Z"/>
  </g>
  <path class="catherineSweater" d="M90.34,121.62c-6.49.88-11.39,6.64-16.35,6.84-.57-1.51-2-1.75-4-1.19.13-1.69-.88-2.5-2.84-2.58-1.26-2.72-.7-9.07-3.89-9.52,1.11-4,.83-6.58-.73-8.1a8.53,8.53,0,0,0-3-2.29c-1-2.74.3-4.94-.87-7C57,95,41.58,97.4,43.25,104c.73,2.86,2,3.81,2.62,7.27-3.93,6.55,1.94,5.9,1,9.89-.75,3.06,1.48,3.13,1.67,5.84.57,8,3.46,14.53,9.93,23.34,4.19,4.64,6,3.42,8.75,4,2.15.43,3.42,1.61,5.89.27,4-2.19,8.28-2.25,14.57-4.77,6.5-2.6,12-5.56,21.17-6.68"/>
  <path class="clothesDisplayLine" d="M77.45,219.28A18.15,18.15,0,0,0,88,221.63"/>
  <g class="clothesOverlapLine">
    <path d="M45.87,111.22c2.68-4.74,8.47-7,13.58-6.44"/>
    <path d="M62.49,107.07c1.56,1.52,1.84,4.11.73,8.1"/>
    <path d="M63.22,115.17c3.19.45,2.63,6.8,3.89,9.52,2,.08,3,.89,2.84,2.58,2-.56,3.47-.32,4,1.19,5-.2,9.86-6,16.35-6.84"/>
    <path d="M58.42,150.29c4.19,4.64,6,3.42,8.75,4,2.15.43,3.42,1.61,5.89.27,4-2.19,8.28-2.25,14.57-4.77,6.5-2.6,12-5.56,21.17-6.68"/>
    <path d="M57.26,178.78a3.43,3.43,0,0,1,3.83,1.52"/>
    <path d="M61.08,208.18c13.64,4.19,47.72,3.18,57.73-4.53"/>
    <path d="M74,97.46c-4.31,9.06,9.23,12,17.59,7.81,5.56-2.81,10.82-5.67,15.86-7.3"/>
    <path d="M63.88,221.52c-.72,11.6,3.63,13.26,3.73,15.13-1.45,3.31,1.87,3.83,1.87,3.83-1.87,3.63,2,4.15,2.28,5.7,1.27,2.65.47,4.77.75,6.76"/>
    <path d="M18.21,392.21a18.4,18.4,0,0,0,.61,1.81"/>
    <path d="M20.61,391.21a7.1,7.1,0,0,0,.82,1.9"/>
    <path d="M23,390.05A9.14,9.14,0,0,0,24,392"/>
    <path d="M25,388.9a8.23,8.23,0,0,0,1.35,1.77"/>
    <path d="M26.91,387.62a6.44,6.44,0,0,0,1.55,1.69"/>
    <path d="M133.68,391.56a9.65,9.65,0,0,0,2.59,1.29"/>
    <path d="M132.68,393.77a8.35,8.35,0,0,0,2.18,1.33"/>
    <path d="M131.54,396a7.61,7.61,0,0,0,1.79,1.34"/>
    <path d="M130.28,398a9.21,9.21,0,0,0,1.51,1.24"/>
    <path d="M128.86,399.86a6.08,6.08,0,0,0,1.42,1"/>
    <path d="M137.59,390.51c.78-1.62,1.09-3.23,2.76-3.33"/>
    <path d="M35.74,386c-1.41-1.28-3.09-.35-4.87,1.32"/>
  </g>
  <g class="clothesFoldLine">
    <path d="M61.31,163.39a30.2,30.2,0,0,1,1.95,9.42"/>
    <path d="M62,187.57c2,3.65,5.32,5.38,9.94,5.32"/>
    <path d="M79.79,155.43c-1.75,5.72-1.9,12.35-3.11,18.08"/>
    <path d="M82.51,164.47c-1.61,8.34-1,18-7.34,24"/>
    <path d="M95.22,146.75a104.1,104.1,0,0,0,9.64,30.68"/>
    <path d="M103,154A37.34,37.34,0,0,0,113.4,170.9"/>
    <path d="M118.88,182.32c-1.12,2-2.71,2.6-1.32,4.45"/>
    <path d="M114.65,195.2a43.77,43.77,0,0,1-15.47,7.44"/>
    <path d="M112.2,134.24A180,180,0,0,1,84.11,148.7"/>
    <path d="M108.28,132.93c-8.14,4.48-16.47,8.45-21.56,7.23"/>
    <path d="M63.22,115.17c-3.21-1.12-10.73.78-11.35-.62s4.22-2.91,7.33-2.91"/>
    <path d="M49.16,121.28c14.16-1,12.35-3.52,1.91-4.12"/>
    <path d="M67.11,124.69A14.73,14.73,0,0,0,58.8,127"/>
    <path d="M70,127.27c-5.42.94-9.44,7.47-5.52.34"/>
    <path d="M74,128.46c-2.8,1,1.59,3.17.58,9.49"/>
    <path d="M73,129.82c-3.61,1.32-6.08,4.87-7.71,10"/>
    <path d="M94.36,109.63c-4.07,3.79-7.25,8.06-8.5,13.35"/>
    <path d="M94.86,120.68a16.23,16.23,0,0,1-4.52.94c6.13-7.57,9.3-9.48,17.64-11.09,2.64-.51-9.1-3.71-16.13,5.93"/>
    <path d="M74.66,226.7c-3.83,3.94-8,7.05-7,10,.94,1,4.46,1.14,6.33.51"/>
    <path d="M69.48,240.48c5.6.52,13.58-3.32,15.75-2,1.47.91-.25,2.27-5.18,3"/>
    <path d="M83.47,243.07a23.76,23.76,0,0,1-9.53,1.35"/>
    <path d="M117.06,237.9c-.8,1.44-2,2-1.73,3.41"/>
    <path d="M114.19,243.28a8.77,8.77,0,0,0-6.74,4.77"/>
  </g>
  <g class="eye">
    <circle class="sclera" cx="76.56" cy="58.8" r="7.99"/>
    <ellipse class="irisBrown" cx="75.37" cy="60.36" rx="3.16" ry="3.32" transform="translate(-3.38 4.48) rotate(-3.33)"/>
    <ellipse class="pupil" cx="75.07" cy="60.53" rx="1.23" ry="1.29" transform="translate(-3.39 4.46) rotate(-3.33)"/>
  </g>
  <g class="skinLatino">
    <path d="M106.73,65c-6.89,4.73-6.46,27.55-2.56,30.71-7.84,2-13.73,6.84-18.2,7.33-9,1-11.18-3.37-7.74-8.21"/>
    <path d="M49.18,202.54c3.65-1.55,8.65-1.87,9.69-7.39-.44-4.73-3-9.65-7.23-11.9-2.07-1-4.87-.49-7.79.49-2.73.92-4.84.84-6.66,4.07-2,3.55-6.17,6-3.78,9.33-.92,1.54-.22,4.2,1.82,4.62-.21,1.41,1.33,3.16,3.15,3.51.77,1.68,3.06,1.9,4.35,1.95C46.59,207.36,47.85,205.27,49.18,202.54Z"/>
    <path d="M73.17,256.24c-.92-.92-.4-1.71-.66-3.3-2.14.22-9.25-.61-12.34-2.05C53.39,286.7,56,289,52.93,297.82c-2.38,6.88-.56,8.68-1.54,11.93C45,331,43,351.46,37.56,372.34c3.39,2.31,13.17,5.41,17.36,5.74,6-22.65,22.73-37.55,24.67-62.12l20.62-61.17C88.29,256.52,73.92,257.44,73.17,256.24Z"/>
    <path d="M149.44,369.59c-12.51-21-9-43.18-28.8-62.76-5.11-5.06-1.63-26.63-5.19-54.85-9.2,2.79-34.12,5.3-40.6,4.72,6.2,27.26,13.28,54.64,18.5,61.55,15.28,20.22,26.85,38.22,41.49,59.69C138.22,377.24,146.78,372.23,149.44,369.59Z"/>
    <path d="M48.52,56.59c.31-1.56-2.14-3.23-1.57-12C25.76,11.11,115.2-9.09,114.1,51.29c2.81,5.66-.28,8.67-1.54,11.61-2,4.58-3.44,9-7.37,7C99,89.52,87.52,91.28,81.45,94.6c-4.85,2.65-13.22,4.52-18.12-.39-6.76-6.8-14.4-5.73-13.91-28.42.22-2.91-1.11-2.93.08-4.33C48.43,61.06,48,58.59,48.52,56.59ZM72.19,60c1.29,0,2.29.57,3.79.54a14,14,0,0,0,6.52-1.69C80,58.18,77.17,57.27,75,57.47c-1.72.15-2.58,1.14-3.7,2.21C70.61,60.28,71.83,60,72.19,60Z"/>
    <path d="M58.47,97.65c4-7.11,2.86-10.63.63-15.48-1.43-3.12-1.57-5.6-3.26-9.21-1.46-2.62-6.3-.87-6.41,2.74-1,0-1.06-.94-1.7-.89-1.41.11-2.84,2.84-1.92,4.56a4.16,4.16,0,0,0-1.06,2.28c-1.83,0-3.83,1.86-3.94,3.21a3.53,3.53,0,0,0-2.28,5.67c1.55,2.51.32,7.51,4.6,12.18C43.54,97.22,56.51,95.26,58.47,97.65Z"/>
  </g>
  <g class="skinOverlapLine">
    <path d="M52.54,81.41c-2.54-3.78-4.34-3.52-6.73-2"/>
    <path d="M46.44,82.5a2.17,2.17,0,0,0-1.69-.85"/>
    <path d="M40.81,84.86a2.17,2.17,0,0,1,1.08.45"/>
    <path d="M49.43,75.7a10,10,0,0,0,0,2.8"/>
    <path d="M51,76.71a6.75,6.75,0,0,0,0,2.76"/>
    <path d="M56.12,194.54c-3.23.87-6.08,1-8-.7a5.55,5.55,0,0,1-4,1.61c-.63,5.61-8.62,6.8-8.34,3.23,1.54-2.53,1.74-4.8,3.49-6.69a18.77,18.77,0,0,1,4.22-2.92"/>
    <path d="M35.23,201.76c8.69,1.34,7.68,1.13,13.85-2.24,1.16.35,1.4,1.93.1,3-4.84,3.29-4.42,3.43-10.8,2.73"/>
    <path d="M33.41,197.14a3.73,3.73,0,0,0,2.69,1"/>
    <path d="M42.89,198.42c3.06.16,5.07-2.14,4.31-3.85"/>
    <path d="M49.08,199.52c1.48-1.22.28-3.47-1.85-3.44"/>
    <path d="M36.91,192.06a11,11,0,0,1,2.07.27"/>
  </g>
  <g class="skinFoldLine">
    <path d="M107,53.19c1-5.77,10.12-1.34,4.27,8.68"/>
    <path d="M105.25,56.78c3.4.34-.65,6.46,1.34,7,.94.27.89-2.11,2.76-4,2.43-2.47-.33-6.11-1.31-4.91"/>
  </g>
  <path class="skinEdgeLine" d="M55.47,83.32c-1.71.92-4.15-1.27-5.86.63-2.39,2.64-3.86.37-5.26,3.25-.92,1.9-2.2.86-2.75,2.81"/>
  <g class="purseStrap">
    <path d="M64.71,116.05c3.46-9,6.11-15.53,8.38-17.92a6.18,6.18,0,0,0-3.5,2.4c-1.58,2.26-3.73,7.51-6.37,14.64A2.26,2.26,0,0,1,64.71,116.05Z"/>
    <path d="M45.11,207c.4,1.46.67,2.36.67,2.36l-1.11.08s-.28-.84-.68-2.21A6.2,6.2,0,0,0,45.11,207Z"/>
    <path d="M41.86,190a10.7,10.7,0,0,1,.25-3c2.29-8.26,7.2-25.16,12.64-42.13l-1-1.7c-5.53,17.34-10.77,35.14-13.1,43.63a13.2,13.2,0,0,0-.18,4.17A16.79,16.79,0,0,1,41.86,190Z"/>
  </g>
  <path class="lipFemaleMedium__noStroke" d="M68.13,82.14c-1.8.47-3.14-.27-4.39-.11-.85.1-1.1,1-1.74,1.28-.44,2.88.75,4.15,4.57,3.44,1.5-.28,3.9,1,6.72-1.35,1.77-1.47,2.19-1.92,4.74-2.47C75.36,82.65,75.48,80.19,68.13,82.14Z"/>
  <path class="lipFemaleMedium" d="M62,83.31c1-.79.15-2.15,2.51-2.37,1.32-.12,1.68.52,3.2,0a10.1,10.1,0,0,1,4.68-.43c2.81.36,3.61,1.57,5.64,2.44-2.67-.28-2.55-2.74-9.9-.79-1.8.47-3.14-.27-4.39-.11C62.89,82.13,62.64,83.08,62,83.31Z"/>
  <path class="lipEdgeLine" d="M62.13,85.6c.49,1.21,1.87,1.62,4.44,1.15,1.5-.28,3.9,1,6.72-1.35"/>
  <g class="cheekLine">
    <path d="M60.19,74.46c-.91,1.23-.88,6.16-.87,7.89"/>
    <path d="M72.73,71c1.74.71,6.51,7.38,7.66,11"/>
  </g>
  <g class="noseLine">
    <path d="M60.82,71.44c-.64,1.1-1.55,2.87.53,4.56"/>
    <path d="M72.73,71c.63.3,1.37,2.79.07,3.92"/>
    <path d="M71.06,74.91c-1.28-.63-5.19,5.07-9.83.39"/>
  </g>
  <g class="eyeFoldLine">
    <path d="M51,64c1.75,1,5.45.36,7-.72"/>
    <path d="M72.32,62.78c1.82,1.27,6.63.76,8.79-.73"/>
  </g>
  <path class="eyeLashLine" d="M49.5,61.46c3-.26,4.5-1.81,10.44-.24"/>
  <path class="eyeCornerLine" d="M85.41,59a11.59,11.59,0,0,1-2.91-.11"/>
  <g class="eyeCreaseLine">
    <path d="M57.85,59.35a24.51,24.51,0,0,0-9.34.75"/>
    <path d="M82.2,57.28c-2.18-.89-9.07-1.76-10.86,1.24"/>
  </g>
  <g class="eyebrowDarkBrown">
    <path d="M67.92,50c1.9,8.25,10-2.27,19,2.23C79,47.27,73.72,52.11,67.92,50Z"/>
    <path d="M59.93,53c-2.11,7.62-8.15-.89-12.17.71C52,51.7,52.31,55.86,59.93,53Z"/>
  </g>
  <path class="hairBlack" d="M102,11.14C102.31-.4,81.12-1.46,70.7,2,45.92,10.13,47.88,20.41,41.91,23c-1.46.63-.39,3.32,1.13,3.88-1.91,5.6-.42,6.07-3.46,10.22-.57.78,1.24,3,4.23,3.16A8,8,0,0,0,47,44.59a27.75,27.75,0,0,1,.27-6.3,10.48,10.48,0,0,0,5.69-2.73c2.77.58,6.94,1.49,8.87-.91,6.35,3,15.75,1.55,18.2-5.14.78,5.51,4.38,8.59,10.58,10.4.67,6,9.32,5.28,8.62,15.5-.48,3.21,3.61.89,4.28-3.57-.14,4.47,3.49,3,3.54-2.81.37,3.59,3.13,2.69,3.54-.78a6.42,6.42,0,0,1,3.56,3c5.36-5.23,5.31-23.9,1.44-29.81,2.29-1.27,2.82-5.31,1.85-5.39C110.91,15.58,109.5,7.46,102,11.14Z"/>
  <g class="hairFoldLine">
    <path d="M90.56,39.91A26.78,26.78,0,0,0,95.36,41"/>
    <path d="M47.22,38.29a6.09,6.09,0,0,1-2.6-.33"/>
    <path d="M52.91,35.56a6.25,6.25,0,0,1-2.37-1"/>
    <path d="M61.78,34.65a18.87,18.87,0,0,1-2.07-1"/>
  </g>
  <path class="catherineGlasses" d="M66.15,56.45c6.49-3.86,15.39-4.65,23.31-3.17,1,.2,1.9,4.26.34,4.64C90,62.22,89.73,67.56,88,69c-3.69,3.12-13.16,3-15.4,1.06s-4.27-5-6-9.49c-.32-.82-3-.52-3.14.25-.57,4.6-1.44,8-2.91,10.07s-10.19,3.45-14.37,1c-2-1.15-3.71-6-4.73-10-1.45-.11-1.85-3.95-1-4.3,6.48-2.66,14.81-3.47,22.11-.84A7.88,7.88,0,0,0,66.15,56.45ZM43.1,59.4c-.9,1.6,1,9,3.46,11.13,2.22,1.94,10.67,1.57,12.86-.7C61,68.23,63,60.71,61,58.76,57.28,55.08,44.33,57.19,43.1,59.4Zm25.13-1.25c-1.34,2.24,3,9.34,5.08,10.71,3,2,12,1.13,13.72-1.18,2-2.57,1.55-10.56,0-12C85,53.6,70.79,53.87,68.23,58.15Z"/>
</svg>
