<svg viewBox="0 0 437.66 437.73">
  <g class="willyShoe">
    <path d="m183.22,402.79c1.3-3.29,3.55-6.76,6.32-10.33l25.7,3.1c2.81,9.26,6.62,17.53,12.59,23.64,2.37,1.65,8.14,3.48,10.26,6.82-12.02,17.13-50.58.43-54.87-23.23Z"/>
    <path d="m338.4,418.31c-.98-5.66-.93-11.2.12-16.62l26.01-7.74c5.45,4.77,12.09,8.11,19.92,10.01,4.08-.25,8.3.29,12.65,1.59,5,15.96-47.54,26.59-58.71,12.76Z"/>
  </g>
  <g class="soleWhite">
    <path d="m338.4,418.31c-.04,2.76-.22,5.22,1.78,7.21,2.66,3.55,21.54.75,35.29.11,11.99-.55,25.59-4.51,27.11-13.54.52-3.07-2.36-6.22-5.47-6.55-7.66,1.11-13.1,7.32-15.76,13.54-5.66,3.22-28.11,3.81-35.4,2.06-2.77-.67-5.44-2.17-7.55-2.84Z"/>
    <path d="m183.22,402.79c-1.78,2.64-3.37,4.96-2.75,8.6,1.15,5.23,11.34,9.41,20.48,17.46,12.38,10.91,33.23,10.27,38.65,4.34,1.85-2.02.43-5.63-1.51-7.18-4.34-3.46-15.03-1.33-23.4,3.72-6.91-.09-23.4-13.41-27.92-19.68-1.15-1.6-2.57-3.19-3.55-7.27Z"/>
    <path d="m173.28,422.44c3.9,5.43-7.19,10.22-12.81,10.58-8.07.51-15.31,2.97-20.16,3.02-3,.03-3.53-2.52-3.97-5.29,15.28-5.68,30.25-10.62,36.93-8.31Z"/>
    <path d="m129.56,426.92c2.83,5.85-10.97,6.83-15.22,6.31-6.87-.84-22.79-9.47-23.43-12.07-.53-2.16.05-4.03,1.21-5.75,15.79,3.81,31.89,7.61,37.45,11.51Z"/>
    <path d="m71.88,413.66c2.81,1.39,4.37,4.53,3.28,8.94-3.28,5.14-17.49,5.82-24.56,1.8l1.27-5.17c2.27-10.21,13.75-11.45,20.02-5.57Z"/>
    <path d="m25.43,422.78c-.52,1.8-.61,3.59-.19,5.36,1.64,3.13,7.13,3.87,10.89,6.27,8.42,5.36,22.73,2.9,24.49-1.11,1.28-3.7-.09-7.85-3.85-10.04-5.32-3.55-17.41-3.12-31.34-.48Z"/>
  </g>
  <g class="bennettShoe">
    <path d="m68.04,382.16c.92,4.9.27,10.09.63,15.71.28,4.33,1.28,11.21,3.2,15.79-4.93-2.46-16.34-1.39-20.02,5.57-4.53-8.86-6.15-16.99-6.01-26.41,1.43-8.05,4.94-8.01,7.68-14.15l14.51,3.49Z"/>
    <path d="m28.61,396.79c-.26,18.37-3.09,17.5-3.18,25.99,2.32,4.64,9.44,6.03,13.99,8.28,1.14-6.73,11.48-10.6,17.34-7.8-7.51-6.97-9.33-17.24-8.59-28.49l-19.56,2.02Z"/>
  </g>
  <g class="shoelace">
    <path d="m369.89,397.93c-3.05.72-6.52,2.69-10.1,4.99,4.88,2.8,10.06,4.9,15.59,6.19,3.14-2.45,6.18-4.26,9.08-5.16-5.43-1.32-10.28-3.33-14.56-6.02h0Z"/>
    <path d="m218.64,404.94h0c-3.73-.73-7.58-.5-11.5.28,2.42,5.5,6.33,10.4,11.31,14.88,3-.85,6.12-1.16,9.39-.9-3.87-3.95-6.82-8.81-9.19-14.26Z"/>
    <path d="m66.28,392.66c-3.47.14-6.95-.02-10.41-.6-.28,4.27.08,10.76,1.03,15.51,3.5-.47,6.67-.77,9.78-.33-.67-4.74-.55-9.09-.4-14.58Z"/>
    <path d="m47.72,407.13c-3.41-.3-7.71-.13-9.87.67.3,3.61,1.67,8.21,3.45,12.51,2.64-1.02,7.12-1.18,10.64-.93-2.2-3.68-3.59-7.83-4.22-12.26Z"/>
  </g>
  <g class="willy">
    <path class="willyPants" d="m324.25,217.68c3.02,13.57,9.59,25.62,14.93,53.28,1.98,10.27,3.74,15.18,5.6,29.58.99,7.69,4.65,11.15,5.34,19.05s4.27,7.43,4.5,20.21c.15,8.18,2.74,18.16,3.48,22.52.61,3.62,17.19,10.22,3.48,22.07,9.27.84,4.68,5.43,4.88,11.38-4.4,5.74-18.58,8.35-29.04,14.4-2.79-4.22-11.84-6.31-8.43-10.91,6.18-8.36-2.86-8.37-5.92-10.28-17.72-11.04-12.66-51.69-21.93-61.36-2.95-3.08-.26-9.31-3.15-12.99-6.17-7.87-4.29-7.6-7.3-11.73-5.4-7.41-5.95-13.12-9.8-21.5-.89,3.12-2.37,2.55-2.82,7.04-1.18,11.95-13.58,19.82-19.53,37.59-4.11,12.27-10.63,22.54-17.47,32.16,1.95,11.83-8.3,13.66-9.65,21.02-1.49,8.16-3.8,8.91-8.96,9.31.58,4.94-2.02,8.94-5.1,11.6-16.54,4.71-23.21-1.95-30.79-4.71-.52-2.05.46-4.75,1.72-7.58-3.2-5.74-6.55-12.48-1.61-20.11,9.54-14.72,11.54-31.08,15.51-31.05,11.26-15.51,6.55-21.14,14.25-32.74-2.07-6.43,5.86-6.66,4.6-11.72-2.18-7.35,3.63-23.28,7.03-79.22l96.2,4.67Z"/>
    <path class="willyShirt" d="m266.47,75.36l32.9,1.24c8.74,2.47,15.72,8.38,19.56,9.25,2.72.61,7.69-.23,9.42,5.51,2.56.99,5.65-.41,6.4,7.11,3.35,1.9,7.57,8.08,11.74,13.16,2.19,9.88-10.53,25.31-17.25,27.92-.76.2-1.69-1.11-3.16-2.15.16,3.75,5.49,5.15,2.42,9.94,5.78,24.19,5.56,36.15,3.56,48.35,1.63,3.72-.5,5.7-1.77,8.11-3.59,9.56-2.37,13.95-3.12,16.29-51.71,12.13-72.93-1.35-98.33-5.24-1.68-35.47-3.34-85.1-12.36-87.13,1.6-5.8,6.9-10.32,9.54-16.01,5.39-11.64,10.1-21.06,16.64-24.96,7.67-4.58,16.1-6.78,23.81-11.38Z"/>
  </g>
  <g class="christopher">
    <g class="sockWhite">
      <path d="m136.32,416.78c-.29-1.95-1.18-2.78-.97-4.36,2.89-.19,10.73-2.49,13.05-4.26,1.55,1.69,1.23,4.59,2.96,6.77-3.95,5.73-12.28,4.97-15.03,1.85Z"/>
      <path d="m98.88,405.34c.98-1.58.75-3.53,2.36-5.25,1.78,2.12,9.26,4.93,12.23,4.67-.24,2.54-1.95,3.92-2.44,6.43-6.36.07-10.6-1.72-12.15-5.85Z"/>
    </g>
    <g class="christopherShoe">
      <path d="m146.14,418.41c1.1-2.79,2.75-4.48,5.52-3.9,3.83,3.28,7.84,5.64,12.16,5.2,3.62-.37,7.97.06,9.47,2.74-2.46-.14-6.59,2.25-8.17,5.31-2.4,2.11-5.67,2.57-8.4,2.81-8.09.69-14.5,3.99-20.37.18-1.34-4.77-1.53-9.73-.02-13.97,1.9,1.21,7.03-.05,9.82,1.63Z"/>
      <path d="m106.82,410.3c1.58-1.58,4.79-1.68,5.66,0,6.74,13.05,14.8,10.44,17.08,16.61-3.34-1.48-8.93.14-11.81,3.62-10.09.65-22.2-7.61-25.64-15.13,1.69-4.4,3.82-7.99,6.78-10.07,3.11,3.85,6.64,3.02,7.94,4.97Z"/>
    </g>
    <g class="christopherStrap">
      <path d="m154.72,416.87c-2.93,1.52-5.39,3.52-6.88,6.3-.62,1.15,2.55,2.77,3.87,1.67-.71,1.19,4.07,2.18,4.94.89,1.72-2.53,4.15-4.51,7.17-6.03-3.18.33-6.2-.87-9.1-2.84Z"/>
      <path d="m105.55,415.42c1.44,2.69,4.22,5.07,7.56,7.32,2.47-1.41,6.01-2.1,9.01-1.87.96.07-1.2-2.57-4.48-3.36.38-1.02-1.83-3.45-3.06-3.67-3.35-.61-6.38-.03-9.02,1.59Z"/>
    </g>
    <path class="christopherShortsInner" d="m105.15,341.3c-.96-2.82,2.96-4.09,4.04-.17-1.87.4-3.71.78-4.04.17Z"/>
    <path class="christopherShorts" d="m153.02,290.38c.44,4.45,2.22,5.71.85,9.56-1.3,3.66,1.95,6.98-3.83,35.43-.74,1.48-8.89,2.82-12,1.78-.6-2.84-1.15-5.76-1.93-7.85-5.48-1.04-30.97,9.04-30.97,12-4.78-9.2-8.3-25.21-9.04-34.84-.16-2.12-1.93-2.77.15-5.15.59-2.96-2.22-4.89.74-6.96.12-1.8.64-2.65,1.48-4.19,18.54.73,36.75.85,54.55.22Z"/>
    <path class="christopherWaistband" d="m153.02,290.38c.59-1.21-.12-3.72-.1-5.83l-53.84-.6c-.36,2.62-1.28,4.74-.61,6.21,18.54.73,36.75.85,54.55.22Z"/>
    <path class="christopherShirt" d="m165.43,225.14c1.48,5.87-6.18,14.52-11.48,13.92-.74,8.1-1.13,11.5-1.06,17.07.16,14.35,2.93,15.98.49,20.36,1.24,1.84,1.69,3.79-.57,6.12.91.78.14,2.2.85,3.67-10.77,2.89-45.89,2.97-55.59-1.98,1.89-6.84-.52-16.11,1.95-21.57-12.94-8.09-12.74-20.23-7.14-36.28,2.16-6.83,2.16-15.11,8.64-18.95,3.21-1.9,7.37-2.13,13.23-4.27l24.92.48c18.59,3.91,16.96,12.79,25.75,21.43Z"/>
    <g class="triceratopsLogo">
      <path d="m129.49,252.65c-.37-.01-.85-.06-1.13-.12-.18.41-.38.83-.6,1.26-1.04,1.81-.2,2.29.21,3.24.53-.02,1.44-.15,1.85-.48-.04-1.35-1.22-1.62-.32-3.9Z"/>
      <path d="m152.55,242.97c.33-1.25.92-2.93-.16-4.05.46-1.24.57-2.78.21-3.8-.3,1.18-.85,2.29-1.51,2.97-.41-.16-.89-.3-1.44-.42-1.15-.25-2.15-.83-2.99-1.62-.22.35-.52,1.17-.68,1.61.33-2.69,2.15-5.63,3.83-7.61-2.36,1.38-4.2,3.95-5.27,6.48.04-.5.41-1.41.77-2.11-.83-1.3-1.43-3.06-1.64-4.6-1.23-1.26-2.86.25-2.63,1.7-1.75-.5-2.57,1.61-1.76,2.94-1.42,0-2.12,2.14-1.16,3.14-1.07.83-1.13,3.2.59,3.11-1.83.58-1.88-2.08-1.04-3.08-5.15-2.37-10.43-3.84-14.89-.12-2.49,2.07-3.62,6.01-5.64,8.69-2.04,2.71-5.65,3.21-8.89,3.31,4.29,2.25,7.58,1.98,11.68-.48.96,1.08,2.47,2.05,3.84,2.49.38-1.61-1.05-3.04-1.08-4.69.25,1.64,1.68,3.07,1.37,4.75-.43,2.35-.18,4.42.03,6.81.57.34,3.26.19,3.87-.27-.02-.4-.18-.73-.28-1.08-.45-1.09-1.04-1.5-.17-3.28,1.4-2.87,2.3-5.96.92-9.12,1.55,2.35.91,5.13.07,7.61,2,.33,4.36-.06,6.25-.75.07-1.45.38-3.16.9-4.06-.89,3.87.31,6.46.51,10.14.61.28,3.24.08,3.77-.38-.02-.42-.13-.78-.37-1.08-.94-1.21-1.02-2.81-.97-4.29.04-1.34,1.09-2.92,2.06-3.71,3.13-2.58,8.1.06,10.68-3.3-1.47.29-2.68,0-3.65-.81,1.61-.32,3.26-2.25,4.89-1.03Z"/>
      <path d="m140.47,248.64c-.93.91-1.54,1.8-1.65,3.17-.1,1.46.01,3.21,1.11,4.29.51-.03,1.15-.16,1.46-.45-.14-.97-.78-1.49-1.11-2.35-.58-1.52-.25-3.13.2-4.67Z"/>
    </g>
  </g>
  <g class="preteenBennett">
    <path class="converseLogo" d="m46.93,401.69c1.99,2.63,5.97-6.63,3.75-9.23-1.91-2.23-5.73,6.61-3.75,9.23Z"/>
    <path class="bennettJeans" d="m83.47,244.03c.49,9.05,2.61,10.87,2.38,16.44-.53,12.96,1.43,26.17-1.96,47.88-1.3,8.35,4.78,15.42-2.74,22.18.59,2.84,3.25,6.08-1.17,9.26-1.31,7.79-3.17,17.61-4.83,25.12-1.41,6.37,3.7,8.72-2.87,13.31,1.24,5.19-.5,6.93-5.7,8.13.2-4.32-10.29-4.81-10.49-.49-.99-2.06-5.8-2.16-7.23-5.82-1.14,7.65,3.42,12.58.24,14.58-2.57,1.63,4.24,5.33-1.97,8.08-.37-3.58-9.08-2.71-9.67.25-1.73,2.39-8.2,2.26-9.67,5.26-2.84-5.49-7.08-5.1-2.14-11.09-5.42-3.23-.03-7.74-.58-12.77-1.24-11.32-1.49-24.81-.83-37.26.24-4.53-3.47-7.52.3-10.87-5.08-2.53-.86-7.13-3.22-15.3-7.01-24.29-8.05-56.38-1.91-77.22l64.06.31Z"/>
    <path class="shirtWhite" d="m82.66,216.56c-.94,7.31,3.02,6.89.06,9.88-.64,3.74,2.41,6.69.32,10.23,1.07,2.82.1,5.96,1.46,9.42-4.71,1.3-13.48,9.26-25.5,9.58-19.82.54-28.58-4.55-40.93-11.04-45.9-92.77,89.77-154.9,64.58-28.07Z"/>
    <path class="bennettSleeves" d="m20.71,215.71c-.98,2.05-18.76,2.36-20.04.42.48-4.23-1.31-17.96.21-26.11-1.02-3.36,2.99-28.33,7.16-36.19,5.42-10.22,22.79-11.71,31.86-16.43l23.15,1.13c11.62,5.51,22.2,6.52,25.94,16.01,2.02,5.14,3.3,10.39,1.97,16.99.56,6.04,2.02,8.95.18,15.1,1.31,6.18,3.99,8.32,2.12,12.84,1.03,1.34,1.23,2.88.42,4.66,2,6.36-.93,4.64.99,11.15-2.12,1.06-9.29,1.77-12,1.27-.43-2.33.41-4.39-.14-7.2,2.14-5.33.09-6.69.62-9.37.81-4.04-.91-6.67-.71-11.41.27-6.39.72-13.56.04-21.14-1.21-7.57-9.33-10.77-15.7-16.53-6.06,5.35-20.8,5.25-27.57.61-6.26,6.66-12.77,10.6-16.73,14.64.1,8.08-2.59,15.16-2.63,25.05-.4,2.73.49,5.93-.4,7.57-.2,4.54,2.2,7.88.37,10.5.3,2.93.2,4.85.88,6.43Z"/>
  </g>
  <g class="clothesDisplayLine">
    <path d="m291.93,224.51c-.56,4.48,3.57,13.4-.57,21.5-3.68,7.2-1.68,14.64-7.31,20.32-3.56,3.6-1.59,8.52-3.15,15.09"/>
    <path d="m65.54,254.75c.86,2.14-1.37,3.04-.83,6.17,1.14,6.58-2.06,12.31-9.31,11.85,1.83-1.7.2-3.82,1.37-6.49,1.02-2.34-.98-5.02-.12-6.33.98-1.48,1.15-3.05.54-4.25"/>
    <path d="m37.94,253.45c-3.72,2.27-8.48,3.98-14.26,3.6"/>
    <path d="m76.07,250.42c2.35,2.35,4.93,4.4,7.75,5.55"/>
    <path d="m54.1,420.28c6.5,2.14,19.66,1.05,20.82-3.28"/>
    <path d="m39.43,431.06c6.82,2.92,17.31,1.41,21.52-2.06"/>
  </g>
  <g class="clothesOverlapLine">
    <path d="m151.52,222.68c1.75,4.79,2.81,11,2.43,16.37"/>
    <path d="m107.75,227.21c.13,3.92-.63,6.8-1.32,9.65-.52,2.15-.66,6.01-1.9,5.6"/>
    <path d="m324.39,111.87c2.66,9.77,1.12,20.88,1.69,25.53"/>
    <path d="m245.22,142.57c1.07.15,2.03.32,2.48-.47,5.93-10.29,12.62-20.3,14.06-28.52"/>
    <path d="m225.98,417.16c-2.88-.2-6.28.04-9.79.82"/>
    <path d="m224.4,415.14c-3.17-.44-6.66-.09-10.16.77"/>
    <path d="m222.96,413.08c-2.84-.38-6.63-.16-10.59.66"/>
    <path d="m221.55,410.77c-2.93-.71-7.07-.5-11,.52"/>
    <path d="m220.13,408.12c-2.29-.98-6.92-.78-11.45.18"/>
    <path d="m381.39,403.12c-3.37,1.37-6.27,3.15-8.78,5.27"/>
    <path d="m378.75,402.24c-3.27,1.42-6.11,3.22-8.5,5.41"/>
    <path d="m376.04,401.16c-3.31,1.57-6.22,3.37-8.47,5.51"/>
    <path d="m373.55,400c-3.13,1.29-6.11,3.15-8.97,5.4"/>
    <path d="m371.52,398.91c-3.01,1.15-6.14,3.05-9.31,5.33"/>
    <path d="m55.4,272.78c-1.61,18.22-.07,34.95-2.04,43.95-1.7,7.81,1.73,15.84-2.72,19.22,1.74,1.78,2.72,3.82.68,6.96,1.18,5.83-2.08,23.4-2.47,37.14"/>
    <path d="m66.21,395.54c-3.47.29-6.95.16-10.43-.37"/>
    <path d="m66.16,398.51c-3.27-.02-6.72-.17-10.32-.33"/>
    <path d="m66.21,401.65c-3.13-.22-6.55-.27-10.15-.21"/>
    <path d="m66.37,404.44c-3.25-.48-6.58-.43-9.98,0"/>
    <path d="m56.09,385.86c1,1.85-.22,3.02-.23,6.2"/>
    <path d="m66.58,386.35c.51,2.06-.24,3.61-.3,6.31"/>
    <path d="m38.24,410.55c4.03-.77,6.44-.78,9.97-.7"/>
    <path d="m38.84,413.15c4.04-.87,6.48-.86,10.06-.67"/>
    <path d="m39.55,415.57c3.98-1,6.39-1.05,10.13-.81"/>
    <path d="m40.37,417.94c3.85-1.17,6.29-1.17,10.26-1.01"/>
    <path d="m37.46,402.95c.5.92.27,3.4.39,4.86"/>
    <path d="m47.13,402.71c.42,1,.04,3.01.59,4.43"/>
    <path d="m144.54,304.71c-2.29,4.34-7.1,7.63-11.03,9.54-.42-3.18-6.38-12.87-9.22-12.3"/>
    <path d="m133.51,314.25c.32,4.24,4.35,14.22,2.61,15.05"/>
    <path d="m146.14,418.41c1.27.49,2.24,1.51,3.17,2.6"/>
    <path d="m106.82,410.3c.67.97,1.04,2.34,1.61,3.81"/>
  </g>
  <g class="clothesBorderLine">
    <path d="m108.99,419.58c1.85-1.41,6.17-2.08,8.65-2.07"/>
    <path d="m158.35,418.85c-2.76,1.17-5.23,3.42-6.64,5.99"/>
  </g>
  <g class="clothesFoldLine">
    <path d="m154.59,220.48c.08,3.86-.31,6.89-1.26,8.98"/>
    <path d="m156.06,227.81c.93,3.18,1.28,6.02.78,8.37"/>
    <path d="m103.71,215.48c-.41,4.47.41,8.93,2.59,13.37"/>
    <path d="m97.93,222.38c.29,3.94,1.32,7.91,2.85,11.9"/>
    <path d="m97.5,230.57c.19,1.99.61,3.62,1.38,4.74"/>
    <path d="m110.95,221.43c-.66,2.79-1.72,4.72-3.2,5.78,2.17-7.77-1.37-10.61-1.45-3.8"/>
    <path d="m113.89,243.51c.37,4.53,1.14,8.46,2.5,11.56"/>
    <path d="m111.21,250.84c1.16,6.16,2.67,11.68,4.92,15.87"/>
    <path d="m145.97,255.15c-.87,4.53-2.65,8.99-5.35,13.37"/>
    <path d="m149.94,254.8c-.39,2.53-1.05,4.98-2.24,7.24"/>
    <path d="m103.62,272.83c4.92,3.92,10.68,6.55,17.16,8.11"/>
    <path d="m150.71,272.14c-2.57,4.78-7.2,8.08-14.49,9.49"/>
    <path d="m153.38,276.48c-.69,1-1.89,1.52-2.33,3.76"/>
    <path d="m152.82,282.61c-1.89,1.04-3.94,1.55-6.16,1.43"/>
    <path d="m138.55,285.59c-6.3,1.01-12.42.91-18.37-.26"/>
    <path d="m101.12,276.71c6.04,6.12,22.17,7.16,3.36,6.55"/>
    <path d="m234.62,198.13c10.96,4.11,13.98,8.12-.64,6.97"/>
    <path d="m235.06,194.46c10.85,6.74,25.07,5.2,34.56-1.27"/>
    <path d="m271.92,197.69c-9.65,3.11-18.49,6.91-25.95,11.91"/>
    <path d="m274.83,202.74c-3.84,1.37-8.45,8.34-10.59,10.92"/>
    <path d="m274.72,206.53c-1.61,1.94-2.84,3.99-3.4,6.26"/>
    <path d="m288.59,212.37c7.7-4.36,14.94-4.98,21.61-1.11"/>
    <path d="m325.27,195.75c2.11,1.89,3.22,4.25,3.1,7.2"/>
    <path d="m327.71,188.88c1.33,3.99,3.1,4.1,4.35,6.81"/>
    <path d="m253.03,141.11c5.2,2.25,10.06,4.99,14.52,8.31"/>
    <path d="m253.83,131.42c3.86,5.48,8.63,9.92,16.55,13.85"/>
    <path d="m247.6,109.97c-1.69,7.61-2.36,14.12-1.77,21.5"/>
    <path d="m236.08,103.76c-3.36,6.1-7.54,10.66-12.63,15.62"/>
    <path d="m256.69,99.66c1.44,4.99,5.92,14.93.78,13.41"/>
    <path d="m261.13,98.11c1.22,7.54.27,11.44.83,12.4,1.23,2.12,4.05-9.74,2.28-20.38"/>
    <path d="m268.66,97c-.62,7.04-1.63,13.31-4.77,15.29"/>
    <path d="m271.88,124.27c8.64,1.33,22.39,1,33.36,1.33"/>
    <path d="m317.21,128.15c-12.56.85-24.28,1.31-34.58,1.11"/>
    <path d="m328.35,91.36c1.71,5.64,1.82,17.94,3.59,9.3"/>
    <path d="m334.75,98.48c.44,5.92-.16,11.03-1.04,15.93"/>
    <path d="m318.54,97.11c2.43,5.11,3.42,9.23,3.21,12.52"/>
    <path d="m325.63,110.63c1.66-8.87-.19-18.46-3.32-16.19-2.15,1.56,3.78,4.03,2.09,17.42"/>
    <path d="m361.59,384.4c-4.87,3.62-9.92,8.49.7,5.6"/>
    <path d="m350.54,352.39c-3.5,19.03-8.41,32.17-22.4,23.51"/>
    <path d="m337.29,397.55c23.09-12.23-6.06-7.6-12.5-9.96"/>
    <path d="m361.3,394.21c-7.37,4.82-15.9,6.54-25.37,7.55-2.03.22-1.85,1.38-.49,2.72"/>
    <path d="m336.67,289.48c-1.15,8.57-10.42,2.01-20.06-5.25"/>
    <path d="m334.53,318.37c5.01,9.07,11.55,19.36,16.13,14.33"/>
    <path d="m315.42,310.97c5.09-3.87,13.13,8.6,19.82,21.49"/>
    <path d="m297.99,314.65c2.87,2.8,5.1,5.63,5.42,8.52"/>
    <path d="m242,264.97c1.05,8.18,3.46,14.54,4.51,20.49"/>
    <path d="m237.48,273.73c1.77,10.06,5.26,19.29,7.45,27.4"/>
    <path d="m230.75,300.7c2.56-3.94-5.52-2.37-9.66.79"/>
    <path d="m235.08,309.37c15.77-8.82,8.28,2.56-13.8,19.91"/>
    <path d="m237.21,363.76c-4.2,3.77-7.27-.82-10.25-6.11"/>
    <path d="m199.8,348.19c8.88.25,15.05,9.5,18.29,21.68"/>
    <path d="m202.19,336.69c1.85-.13,4.27-1.63,6.99-3.84"/>
    <path d="m220.24,374.76c5.03,6.29,4.46,9.57-5,8.07"/>
    <path d="m188.28,387.85c1.05,1.91,5.09,3.04,5.73,7.07"/>
    <path d="m222.45,388.54c-9.96.41-23.72-2.97-24.89-.88-1.71,3.08,8.87,6.45,15.32,6.45"/>
    <path d="m296.35,254.29c5.28.29,12.1-.43,17.13.14"/>
    <path d="m279.79,249.29c-8.72-2.33-16.98-3.57-24.55-3.14"/>
    <path d="m280.37,253.43c-4.85.27-9.98,1.59-15.27,3.57"/>
    <path d="m291.93,250.15c5.28-6,15.14-13.33,16.99-11.56,1.06,1.02-7.12,6.07-12.71,10.28"/>
    <path d="m285.29,264.98c2.84,3.31,10.81,5.37,16.94,10.68"/>
    <path d="m16.75,212.28c-13.66-.07-14.35-2.02-10.74-2.88,3.64-.87,8.65,1.2,13.81-.12"/>
    <path d="m3.63,202.07c3.86,4.54,8.21,6.2,13.01,5.16"/>
    <path d="m.88,190.03c1.09,3.34,2.98,5.63,5.51,7.05"/>
    <path d="m5.12,192.78c.76,1.74,2.08,3.02,3.67,4.07"/>
    <path d="m9.02,179.77c.92,3.32,4.81,13.07,7.79,16.79"/>
    <path d="m8.16,169.28c.26,6.72,4.13,12.44,7.51,19.31"/>
    <path d="m15.73,171.23c1.56,2.07,2.79,4.2,3.38,6.42"/>
    <path d="m15.27,164.24c2.12,5.27,4.48,7.25,5.33,10.83"/>
    <path d="m12.63,155.76c3.73,4.36,6.13,10.2,9.85,10.4-2.46-13.33-11.25-15.59-5.09-6.79"/>
    <path d="m22.09,150.43c.63,1.78,1.43,6.08,1.32,8.65"/>
    <path d="m31.2,162.29c-2.41,1.26-5.11,1.32-6.25,3.15"/>
    <path d="m28.62,166.59c-2.18,1.09-4.89,1.9-6.28,3.38"/>
    <path d="m71.35,185.5c-10.57,2.37-21.53,2.66-32.84,1.03"/>
    <path d="m55.82,190.32c-8.52-.09-16.48-.66-23.44-2.06"/>
    <path d="m19.46,226.94c2.51,1.18,5.39,1.7,8.45,1.89"/>
    <path d="m19.26,229.63c5.71,2.18,13.63,2.9,22.18,3.21"/>
    <path d="m18.71,236.62c2.74,1.32,6.2,2.13,9.94,2.75"/>
    <path d="m18.52,239.83c4.51,2.52,9.9,4.13,15.75,5.28"/>
    <path d="m41.78,248.43c11.46,2.03,25.85.97,33.53-3.04"/>
    <path d="m75.31,236.74c-6.37,2.15-12.91,2.75-19.6,1.89"/>
    <path d="m83.05,236.67c-3.44,3.16-14.5,5.8-18.34,5.23"/>
    <path d="m79.2,225.79c-2.12,1.43-6.59,2.98-10.66,2.92"/>
    <path d="m82.72,226.44c-2.83,2.96-8.5,3.31-11.31,5.14"/>
    <path d="m57.25,220.24c-5.39-.06-17.42,1.09-22.93-1.32"/>
    <path d="m45.68,222.47c5.73.11,11.63.5,16.96-.4"/>
    <path d="m66.02,211.64c4.38-.32,8.76-1.21,13.12-2.69"/>
    <path d="m82.52,209.36c-3.05,2.12-6.61,3.29-10.65,3.59"/>
    <path d="m90.67,212.73c-7.45-.69,2.01-1.55,3.59-3.37"/>
    <path d="m93.67,204.14c-2.18,1.27-4.5,2.01-7.02,2"/>
    <path d="m87.86,198.86c-1.71,1.12-3.3,1.61-4.71,1.14"/>
    <path d="m93.25,199.48c-2.12,2.36-8.6,3.21-2.58,3.62"/>
    <path d="m91.13,186.64c-.64,1.85-1.31,3.15-2.01,3.91"/>
    <path d="m89.58,181.55c-1.2,4.09-2.63,6.96-4.41,7.74"/>
    <path d="m89.23,169.23c-.63,2.41-3.38,6.71-6.04,6.71"/>
    <path d="m90.95,171.54c-1.35,2.91-3.63,5.25-6.64,7.14"/>
    <path d="m82.48,167.45c-2.79-3.76-5.7-6.4-8.78-7.56"/>
    <path d="m85.22,156.45c.06,4.01-.16,7.73-1.78,9.97"/>
    <path d="m82.07,165.66c1.59-5.24,1.3-13.06-.17-13.22-2.12-.23-.01,3.9.23,9"/>
    <path d="m73.22,271.39c-3.48.61-7.16,1.73-11.06,3.44"/>
    <path d="m69.36,280.37c-2.25-.79-4.44-1.24-6.57-1.25"/>
    <path d="m51.31,275.78c-8.14-3.13-2.82-4.49,2.92-2.3"/>
    <path d="m49.85,277.66c-6.77-3.27-13.73-4.02-20.87-2.61"/>
    <path d="m35.87,277.45c-2.68.05-5.36.46-8.03,1.15"/>
    <path d="m49.74,279.95c-3.24.95-6.25,2.15-8.97,3.65"/>
    <path d="m80.84,323.28c-1.66,2.48-3.6,4.41-6.16,5.11"/>
    <path d="m64.04,329.13c-3.01-.68-5.67-1.89-7.72-4.07"/>
    <path d="m81.15,330.53c-1.48,1-2.74,2.07-1.99,3.81"/>
    <path d="m79.98,339.8c-1.28.97-2.79,1.48-4.57,1.44"/>
    <path d="m48.28,331.21c-4.28,4.07-11.57,4.18-19.41-.83"/>
    <path d="m24.55,336.23c5.37,1.35,15.08,0,11.01,3.85"/>
    <path d="m50.65,335.95c-4.35,1.73-13.11,1.94-1.64,5.18"/>
    <path d="m41.5,344.05c-4.77-.62-9.14-.26-12.94,1.46"/>
    <path d="m51.33,342.91c-.48.75-2.63,1.66-4.09.93"/>
    <path d="m52.89,326.78c1.34,3.75,9.56,5.1,3.6,8.19"/>
    <path d="m44.89,391.28c-5.36,2.13-10.7,1.84-16.02-.83"/>
    <path d="m25.65,397.13c4.79,2.08,16.05.65,6.87,4.69"/>
    <path d="m49.1,394.63c-5.1,3.02-17.72,2.29-3.53,4.27"/>
    <path d="m72.28,378.22c-2.26,1.22-4.71,1.69-7.41,1.27"/>
    <path d="m58.93,379.59c-4.34-.61-8.08-1.86-9.76-5.33"/>
    <path d="m60.07,342.07c7.32-1.25,8.84,7.5,6.57,20.83-.49,2.86-9.51,4.81-8.66,7.1.62,1.68,6.35,3.97,4.59,4.7-2.88,1.19-4.7,1.98-7.72,0"/>
    <path d="m71.55,347.39c-2.19,13.46-.38,17.68-2.71,19.06-2.3,1.36-7.96,2.87-6.05,4.07,2.77,1.74,7.67,6.41,9.29,3.55"/>
    <path d="m137.12,290.75c1.29,2.53.62,6.47.97,10.27.81,8.72-3.09,10.04-4.58,13.24"/>
    <path d="m144.59,317.25c-2.83-1.6-5.58-2.63-8.22-2.86"/>
    <path d="m148.28,305.58c-1.85,1.86-3.85,3.56-6.19,4.88"/>
    <path d="m124.29,301.96c-2.79,1.25,2.5,2.04,5.24,7.28"/>
    <path d="m130.61,311.73c-5.26-4.65-14.78-7.74-18.77-7.35"/>
    <path d="m121.77,308.99c-5.47-2.07-10.81-2.16-16.03-.47"/>
    <path d="m96.25,301.32c1.97-1.07,4.4-.99,6.75-.15"/>
    <path d="m96.99,294.36c5.38-1.38,14.76.87,21.96,5.33"/>
    <path d="m98.46,296.95c3.42-.43,7.18.33,11.18,1.96"/>
    <path d="m144.37,298.2c-3.41-.22-6.65-.23-9.62.08"/>
    <path d="m151.65,290.43c.38,1.45.6,3.11.39,4.41"/>
    <path d="m150.15,290.48c.25.76.33,1.63.17,2.33"/>
    <path d="m139.23,290.72c.44,1.24.54,2.28.3,3.49"/>
    <path d="m134.29,290.79c.43.95.54,1.67.15,2.48"/>
    <path d="m131.94,290.79c.39,1.5.42,2.71.07,3.97"/>
    <path d="m102.46,290.31c-.28,1.13-.32,2.27-.08,3.12"/>
    <path d="m100.13,290.23c-.24.58-.34,1.46-.26,2.03"/>
  </g>
  <g class="eye">
    <g class="sclera">
      <path d="m287.38,33.42c0,9.47,7.68,16.15,17.15,16.15s17.15-6.68,17.15-16.15-7.68-17.15-17.15-17.15-17.15,7.68-17.15,17.15Z"/>
      <circle cx="119.45" cy="164.82" r="14.29"/>
      <circle cx="58.71" cy="99.88" r="20.47"/>
    </g>
    <g class="irisBrown">
      <ellipse cx="72.54" cy="99.27" rx="3.06" ry="3.14"/>
      <ellipse cx="49.05" cy="99.23" rx="3.06" ry="3.14"/>
      <ellipse cx="124.96" cy="166.76" rx="2.92" ry="2.61" transform="translate(-72.26 234.06) rotate(-72)"/>
      <ellipse cx="107.93" cy="161.23" rx="2.92" ry="2.16" transform="translate(-78.76 214.04) rotate(-72)"/>
      <ellipse cx="297.76" cy="32.88" rx="2.79" ry="3.6"/>
      <ellipse cx="316.62" cy="32.88" rx="2.67" ry="3.6"/>
    </g>
    <g class="pupil">
      <ellipse cx="72.54" cy="99.27" rx="1.19" ry="1.22"/>
      <ellipse cx="49.05" cy="99.23" rx="1.19" ry="1.22"/>
      <ellipse cx="124.7" cy="166.52" rx="1.13" ry="1.02" transform="translate(-72.21 233.65) rotate(-72)"/>
      <ellipse cx="107.59" cy="160.96" rx="1.13" ry=".84" transform="translate(-78.75 213.53) rotate(-72)"/>
      <ellipse cx="298.28" cy="32.88" rx="1.09" ry="1.4"/>
      <ellipse cx="317.21" cy="32.88" rx="1.04" ry="1.4"/>
    </g>
  </g>
  <g class="skinLatino">
    <path d="m219.15,225.9c-2.52-20.7-14.69-39.04-11.85-67.18.4-3.91-1.31-7.33,11.24-30.22,6.71,3.55,13.98,9.18,26.68,14.07-2.51,6.62-5.58,12.88-9.31,18.72,2.99,20.25-2.38,40.15-.45,62.82.61,7.14,7.45,7.57,6.35,25.29.12,6.23-1.25,10.81,1.22,13.44.24,3.66-5.19,2.93-7.03-.98-.48,2.3-5.01,2.81-6.52.46-1.85,1.34-5.96,1.26-7.22-1.85-2.63.46-4.41-.57-5.2-3.36-2.7.47-5.2-8.99-2.99-16.77,3.09-10.86,5.34-10.6,5.07-14.44Z"/>
    <path d="m405.07,171.51c-8.57-4.18-9.3-10.05-12.58-9.51-19.93-3.27-38.22-.82-51.45-15.03-2.6-2.79-6.61-5.29-9.98-8.35,6.38-3.91,15.74-15.77,15.68-24.69,5.5,6.22,8.59,10.79,9.82,12.62,12.1.92,25.64,17.97,42.14,19.44,2.1-4.17,9.49-5.47,12.1-7.83,3.45-3.12,6.83-4.15,9.04-6.83,4.95-.28,3.3,7.45-1.77,9.42-1.58,1.55-3.09,2.86-4.5,3.84,3.11-1.21,5.75,1,12.16-1.48,2-.78,4.56-.88,7.12-1.36,4.56-.96,4.64,4.24-.96,6.16-2.64.96-6.48,2.08-10.89,4.4,5.28,1.04,7.55,2.08,14.51,2.32,3.34.32,2.54,6.32-4.74,6.24-4.72-.45-9.32-.47-12.68-.07,4.88,5.27,9.14,4.5,12.24,7.6,2.4,3.33-2.4,5.03-7.13,2.01-2.85-1.88-6.82-1.71-9.91-3.26-.92,1.44,1.79,5.36,3,7.17,2.01,2.44,3.23,4.89.9,5.83-2.56,1.03-4.72-1-6.13-3.21-2.16-3.04-3.19-2.32-6-5.43Z"/>
    <path d="m271.3,48.46c3,13.49-1.9,24.47-4.83,26.9,1.36,8.36,15.35,13.81,33.68,17.4,6.92-5.9,7.25-11.32-.78-16.15"/>
    <path d="m272.23,9.11c6.41-3.63,9.09-8.89,18.39-8.86,15.91.06,18.58,13.33,28.01,19.42,4.67,3.01,2.79,8.06,3.61,12.39.72,6.51,9.54,17.8,1.03,32.05-6.67,25.93-54.52,15.98-54.98-11.01-5.42,3.45-5.84-.32-9.37-2.83-6.56-4.66-6.68-15.52-1.47-18.43,4.35-9.21,11.1-19.89,14.79-22.73Zm29.75,23.67c-2.16-1.62-2.67-1.93-4.5-1.99-2.8-.09-5.64,1.86-7.63,2.97,2.21-.81,4.04-.41,6.26-.41,1.77,0,2.99-.52,5.15-.1.54.11,1.48.09.73-.48Zm9.31.37c1.64-.32,2.73.05,4.93.19,1.03.06,1.7-.11,3.05.07.19-.37.22-1.11.12-1.5-.57-.73-1.74-1.23-3.05-1.14-2.54.18-3.56.97-5.67,1.82-.49.19-.05.69.62.56Z"/>
  </g>
  <g class="skinEastAsian">
    <path d="m138.04,337.16l-22.56,17.56c-9.52,10.81-7.87,28.26-13.89,45.73,2.12,1.94,8.27,4.25,11.33,4.32,7.85-13.48,21.67-38.71,32.33-67.61-2.6.43-5.59.54-7.21,0Z"/>
    <path d="m141.85,363.26c-1.73-7.33.63-3.3-3.81-26.11-.6-2.84-1.15-5.76-1.93-7.85-4.55-.86-22.86,5.93-28.97,9.96,5.93,13.45,12.32,26.45,13.27,31.79,2.92,16.49,9.93,24.2,15.3,41.34,2.98-.33,9.91-2.35,12.39-4.02-2.31-12.73-3.2-24.24-5.13-32.9-.68-3.07.02-7.39-1.12-12.21Z"/>
    <path d="m114.83,187.63c4.29,1.19,1.18,10.59-.07,15.6,3.86,13.54,32.16,11.42,24.92.48.16-5.79.86-14.9,8.09-16.67"/>
    <path d="m207.73,253.53c-14.3-1.76-25.78-1.76-39.63-6.46-4.3-1.77-8.25-4.88-11.92-8.25,4.55-1.35,9.63-7.45,9.43-12.4,1.07.84,2.93,1.97,4.11,3.19,8.65,1.65,21.67,12.25,34.42,14.21,3.43-3.42,1.7-6.54,8.31-8.94,5.61-2.03,5.28.17,9.13,1.09,1.79.81-.06,5.54-5.63,3.26-.84-.07-1.28.46-1.75.72-1.45,4.81-1.09,10.96.22,14.25-1.99.45-4.88-.8-6.68-.68Z"/>
    <path d="m91.75,239.83c3.13.25,9.64,1.63,12.77,2.63.04,4.83-2.25,9.52-2.13,14.52-.2,6.11-2.35,9.8-3.43,10.77,1.67,1.91.91,5.47-2.42,5.48-9.44-9.93-8.04-18.2-4.79-33.4Z"/>
    <path d="m96.51,272.04c-1-8.85-4.62-12.51-5.02-17.65-.65-10.85,3.09-26.3,2.02-38.69-2.87.82-8.52,1.28-10.85.85-.94,7.31,3.02,6.89.06,9.88-.64,3.74,2.41,6.69.32,10.23,1.07,2.82.1,5.96,1.46,9.42-.27.08-.56.17-.86.29.69,7.07,2.41,9.03,2.2,14.08-.36,8.8.43,17.7-.09,29.3,1.47-.73,2.88-1.8,4.21-3.34,2.5-.76,3.49-1.45,4.45-5.1.87-5.65,2.42-6.35,2.09-9.28Z"/>
    <path d="m68.69,125.92c-2.82,4.81-3.18,9.98-2.92,15.24,5.49,11.78-30.66,12.13-29.06-.69,1.9-3.91,1.66-10.05-.24-17.9"/>
    <path d="m7.21,253.09c-.56-10.13-6.31-19.78-5.79-36.48,3.2,1.21,14.8,1.04,18.31-.26.51,11.44-2.52,24.25-.86,37.97.45,2.34,3.66,4.81,4.95,11.77,1.09,5.9-.67,8.48-.2,12.21.36,2.8-.5,3.22,0,5.59-.49,2.2-5.16,1.29-4.58-4.08.09-.88-.47-1.8-.39-2.91-2.18,1.84-.61,6.14-1.68,8.36.63,1.04,1.02,2.1,1,3.22,4.58.36,3.37,5.66,1.07,4.94-2.94-1-4.08-.36-5.59-3.3-2.01-.43-4.8-1.58-6.3-4.44-1.65-.14-3.37-.72-3.72-3.22-2.79-3.15-1.58-9.53-.87-14.01,2.38-11.42,4.57-11.18,4.67-15.36Z"/>
    <path d="m90.76,273.38c2.1-.64,1.74-3.76.16-4.32-1.32-.47-3.12-.4-5.16-.55.06,5.11.25,10.5.14,16.63,2.88.06,3.91-1.55,3.28-3.14,3.11-.02,3.47-3.22,1.95-3.93,2.95-.66,2.43-4.33-.38-4.69Z"/>
    <path d="m73.21,132.37c-3.9,3.18-4.89,6.13-12.03,6.68-6.15.47-6.68-.24-14.88-4.12-8.76-4.15-14.28-10.83-16.86-19.99-3.59,2.38-4.8-1.05-5.92-2.96-1.21-2.06-5.91-10.42-2.34-16.45-2.77-19.72,31.81-53.86,62.11-21.8-3.33,12.53,1.43,9.93-.82,24.12-.6,3.79,3.86,23.85-9.24,34.52Zm-17.37-32.55c-1.1-1.99-3-3.39-5.47-3.29-2.44.1-4.85,1.28-6.59,2.84,1.74,1.25,3.52,1.87,5.69,2,1.79.11,3.08-.61,5.44-.92.45-.06,1.39.21.92-.64Zm13.18.69c3.03,1.35,7.67,1.08,9.94-1.19-1.5-.85-2.54-2.63-6.02-2.6-2.05.02-3.25.89-4.99,3-.69.83.66.61,1.07.79Z"/>
    <path d="m132.74,195.94c-5.25,2.61-10.72,3.5-15.1,3.11-6.23-.55-8.2-.09-12.77-2.5-4.14-2.18-3.15-5.31-4.58-8.69-5.03-11.81,4.85-25.51,5.07-28.91.86-8.63,4.07-7.13,6.46-18.08,34.84-14.51,72.58,55.87,30.63,52.36m-19.48-26.04c1.05.32,1.94,1.04,3.48,1.59,2.04.72,2.68.35,4.63.61-1.08-1.46-1.5-2.88-3.91-3.67-1.96-.64-3.38-.26-4.6.58-.71.48.04.78.4.89Zm-9.93-3.85c-.51-1.92-1.88-3.28-3.82-3.75-.86-.21-1.42-.1-1.92.21-.38.52-.75,1.43-.61,2.17,1.36,1.51,4.36,1.44,5.55,1.79.59.17.92.04.8-.42Z"/>
  </g>
  <path class="lipMaleBrown__noStroke" d="m307.67,55.23c1.52.4,3.4.5,4.82.15,1.82.64,4.18.22,4.8,2.35-1.88,2.29.82,10.17-8.41,11.07-9.64.94-9.49-7.63-13.01-9.64,6.48-4.69,9.46-3.47,11.81-3.92Z"/>
  <g class="eyebrowLightGray">
    <path d="m321.64,24.53c-.2-1.01-.54-1.98-1.14-2.89-3.53-1.03-5.55.02-9.89-1.17-.61,5.53,6.54,2.52,11.02,4.07Z"/>
    <path d="m304.16,20.67c.32,4.75-7.13,2.42-10.54,2.84-8.21,1.01-8.36,3.9-9.98,3.04,8.11-8.11,12.95-5.5,20.52-5.88Z"/>
  </g>
  <path class="hairLightGray" d="m293.49,60.5c.58-5.55,7.67-7.74,11.31-6.92,4.32.97,6.32,1.24,10.56.25,1.24-.29,3.81-1.13,3.91,5.97.05,4.02-5.38,16.58-8.88,10.16-1.08.27-2.12.34-3.11.16-2.25,5.32-14.7-.91-13.79-9.62Zm-36.04-28.67c1.95-1.23,5.51-.91,6.84,1.35,7.71,3.74,1.68,17.35,1.1,27.76-.41,7.32,7.85,11.46,9.11,18.92,1.03-1.2,1.93-3.21,2.5-5.46,4.74,6.72,10.55,6.95,14.42,11.99.46-1.63.52-3.36.28-5.16,4.53,4.53,11.17,3.1,15.41,10.39,5.41-3.54,8.54-8.19,10.04-13.62.64,1.64,1.58,2.94,2.89,3.78.06-6.47,5.69-10.94,3.23-17.68-.96,1.59-2.28,2.88-3.99,3.85-1.08-3.27,2.39-8.29.29-14.6-1.33-4-4.67-1.95-7.22-2-5.14-.11-10.94-3.09-17.82,1.85-6.5,4.67-1.9,8.85-7.1,15.65-5.21-1.85-9.66-4.83-13.21-9.15,1.45.41,3.18.11,5.03-.52-8-5.31-9.48-15.7-8.05-25.54,1.36-9.42,9.82-14.02-2.25-21.05,1.01-1.28,1.99-2.42,3.28-3.49-11.49.58-11.57,9.85-18.7,13.13,1.96.55,3.88.46,5.74-.53-2.04,2.36-3.06,6.89-1.83,10.12Z"/>
  <g class="lipMaleMedium__noStroke">
    <path d="m106.74,179.03c.39-.24,1.26.59,2.44.98s2.7.17,3.09.88c.85,1.28,2.52,3.42,4.68,4.98-1.81,1.03-3.78,4.98-9.22,2.95-4.99-1.86-1.89-5.21-3.09-7.28,1.66-.78,1.19-2.18,2.1-2.52Z"/>
    <path d="m62.28,130.02c-5.44.63-5.6-4.66-7.91-6.21,2.96-1.42,3.89-3.86,6.19-4.31,1.95.76,3.32.76,5.31.08,1.91.35.91,2.69,2.59,3.67-1.56,1.73-.66,6.14-6.18,6.77Z"/>
  </g>
  <g class="mouthInner">
    <path d="m304.27,64.1c4.97,1.37,10.22-.09,12.53-6.89-2.6-1.87-2.76-.59-6.41-.55-3.74.04-4.73-2.74-13.23,1.95,2.31,2.1,3.46,4.49,7.11,5.49Z"/>
    <path d="m115.94,185.5c-3.25-1.46-3.64-3.56-5.79-3.48-1.53.06-1.49-.15-2.17-.71-.94-.78-2,.24-2.53.26.63.91.45,2.93,2.84,3.91,4.14,1.7,5.17.31,7.65.03Z"/>
    <path d="m67.69,123.01c-.59-.17-2.47-.62-2.59-1.3-2.56,1.26-3.9-.4-5-.11-1.45.38-2.21,1.34-5,2.1,1.86,1.66,8.65,5.33,12.6-.69Z"/>
  </g>
  <g class="tongue">
    <path d="m311.08,59.03c-4.71-1.76-8.22-2.27-10.62-2.04-.96.4-2.05.93-3.31,1.62,2.31,2.1,3.46,4.49,7.11,5.49,3.16.87,6.42.6,8.98-1.45.28-1.9-.8-3.48-2.16-3.62Z"/>
    <path d="m66.4,124.57c-.35-.76-1.03-1.34-1.99-1.78-2.3-.47-4.45-.61-5.87-.53-.81.43-1.75.97-3.44,1.43,1.67,1.49,7.37,4.59,11.31.87Z"/>
  </g>
  <g class="teeth">
    <path d="m315.16,56.32c-1.28-.39-2.07.31-4.77.34-3.52.04-4.61-2.43-11.83,1.21,4.47,2.48,17.34,4.35,16.6-1.55Z"/>
    <path d="m114.92,184.97c-2.34-1.39-2.87-3.03-4.77-2.95-1.53.06-1.49-.15-2.17-.71-.38-.31-.77-.33-1.15-.25-.22.67-.33,1.35-.19,1.56.98,1.61,4.7,2.76,8.28,2.35Z"/>
    <path d="m66.46,122.64c-.65-.23-1.29-.54-1.36-.93-2.56,1.26-3.9-.4-5-.11-.9.23-1.53.69-2.55,1.19,2.55,1.37,6.61,1.41,8.92-.14Z"/>
  </g>
  <g class="lipOverlapLine">
    <path d="m115.94,185.5c.51.23.98.38,1.43.42"/>
    <path d="m104.29,181.41c.38.15.76.18,1.16.16"/>
    <path d="m107.98,181.31c-.35-.31-.6-.6-.75-.92"/>
    <path d="m316.8,57.22c.32.24.54.53.66.88"/>
    <path d="m295.22,59.32c.6-.11,1.41-.42,1.94-.7"/>
    <path d="m53.65,123.77c.47.1.92.05,1.45-.07"/>
    <path d="m65.1,121.71c.2-.1.39-.23.57-.38"/>
    <path d="m67.69,123.01c.43.11.8.21,1.23.23"/>
  </g>
  <g class="lipEdgeLine">
    <path d="m106.74,179.03c.39-.24,1.26.59,2.44.98s2.7.17,3.09.88"/>
    <path d="m104.74,185.75c.18,2.45,4.39,4.25,7.48,3.41"/>
    <path d="m315.16,65.06c-2.74,5.05-10.95,4.44-13.62,1.76"/>
    <path d="m312.49,55.37c-1.41.35-3.3.25-4.82-.15"/>
    <path d="m60.55,119.5c1.95.76,3.32.76,5.31.08"/>
    <path d="m57.84,128.77c2.33,1.98,6.26,1.53,8.48-.57"/>
  </g>
  <path class="smileLine" d="m289.01,36.08c-1.76.51-3.38,1.23-4.91,2.11"/>
  <g class="cheekLine">
    <path d="m317.07,47.91c.85.85,1.61,1.9,2.2,3.12"/>
    <path d="m301.99,44.15c-1.12.21-1.97,1.36-3.21,2.34-1.53,1.21-2.98,2.56-3.7,4.01"/>
  </g>
  <g class="noseLine">
    <path d="m118.3,174.9c.62.91.58,2.89-1.53,3.43"/>
    <path d="m109.49,170.27c-1.67,1.91-3.56,2.27-2.48,4.9"/>
    <path d="m111.21,176.59c1.33-.33,2.96-1.37,3.48.78"/>
    <path d="m107.82,174.09c.08.6.35,1.02,1.15,1.66"/>
    <path d="m313.79,39.36c.31,1.35.95,1.61,1.93,3.7.96,2.04,4.58,2.8-.52,6.55"/>
    <path d="m301.99,44.15c-1.14.53-1.75,4.22.23,5.37"/>
    <path d="m304.77,49.25c-1.09-3.28,3.18-.21,4.79.21"/>
    <path d="m316.44,47.58c-.67-1.79-.46,1.51-3.31,1.9"/>
    <path d="m56.08,115.15c-1.31-.99-1-3.32.17-4.02"/>
    <path d="m66.48,114.58c-3.55,3.31-5.94-.22-8.3.31"/>
    <path d="m67.57,111.13c1.4.31,2.05,2.62.66,3.67"/>
  </g>
  <g class="eyeFoldLine">
    <path d="m129.18,171.59c-1.53.56-4.74-.32-6.02-1.96"/>
    <path d="m110.38,165.66c-1.35.2-4.07-.04-4.69-1.93"/>
    <path d="m319.65,37.33c-2.24,1.15-5.55.58-7.24-.47"/>
    <path d="m300.74,36.79c-1.97,1.63-6.33,1.7-8.71.26"/>
    <path d="m75.08,102.92c-1.19.95-3.49.64-4.76,0"/>
    <path d="m52.15,102.63c-2.54,1.51-4.96.6-6.07,0"/>
  </g>
  <g class="eyeCornerLine">
    <path d="m133.1,170.89c-.94-.28-1.48-.86-2.01-1.51"/>
    <path d="m107.31,159.8c-.38.08-1.02.32-1.37.25"/>
    <path d="m106.69,161.98c-.32-.31-.75-.54-.93-.67"/>
    <path d="m286.03,33.9c1.22.67,2.78.23,3.82-.13"/>
    <path d="m319.39,31.9c.37.21.59.36.99.42"/>
    <path d="m319.27,33.41c.55.11,1.12.16,1.74.68"/>
    <path d="m78.97,99.32c.52.31,1.24.79,1.71.7"/>
    <path d="m41.86,100.19c1-.21,1.41-.38,1.93-.82"/>
  </g>
  <g class="eyeCreaseLine">
    <path d="m311.37,30.37c7.03-3.02,8.96.05,8.75,1.25"/>
    <path d="m290.39,31.84c2.97-2.14,7.19-4.06,9.89-1.16"/>
    <path d="m43.85,97.13c2.58-1.35,7.16-4.15,11.15-.46"/>
  </g>
  <g class="eyebrowBlack">
    <path d="m135.85,166.47c-3.04-8.55-8.23-6.68-12.68-8.71,1.71,4.5,7.94,2,12.68,8.71Z"/>
    <path d="m106.95,153c-.24.45-.47.92-.68,1.45,3.9-.56,5.91,2.71,8.39.56-2.21-.61-4.49-2.99-7.71-2.01Z"/>
    <path d="m40.3,92.58c5.17-5.67,11.02-2.43,16.94-2.66-2.95,3.64-11.18-1.25-16.94,2.66Z"/>
    <path d="m67.55,90.19c3.72,1.06,8.81-2.73,13.37,2.89-5.24-3.34-10.64.38-13.37-2.89Z"/>
  </g>
  <g class="hairBlack">
    <path d="m164.77,141.85c.81-1.71,7.1-3.12,11.67.25-2.88-4.88-12.65-6.93-16.27-4.24,1.64-4.37-1.95-19.4-8.98-21.28,4.1,3.48,4.7,14.32,3.69,17.68-4.77-2.49-11.58-6.46-23.29-6.68-13.48-.26-19.4,8.25-27.48,10.43,1.82.65,6.18.81,8.13.33-4.43,2.15-6.83,7.79-6.82,11.97,7.21-3.77,11.46,7.34,25.5.05-.54,1.62-4.14,3.9-6.44,4.83,3.47-.12,9.49,1.52,16.41-8.08-4.09,11.46-1.84,19.74-.64,21.31-.15-1.63.85-6.44,1.9-8.44.34,3.57,1.16,6.87,2.87,10.09.95,3.7-1.74,8.76-4.41,12.58,5.69-2.26,6.66-8.66,8.27-6.18,1.54,2.07,4.17,5.04,6.2,6.81-.61,2.59-3.91,6.19-7.61,7.33-2.33.72-3.91,2.42-5.78,1.47-.97,1.89-1.23,4.08-1.57,6.23,2.21,3.37,5.79,5.39,9.59,5.18-3.38-4.12.11-7.57,7.27-10.86,8.41-3.86,16.55-12.87,15.52-29.16,2.28,3.36,3.63,6.98,3.86,10.92,3.47-11.63-2.26-25.01-11.59-32.55Z"/>
    <path d="m68.81,51.52c-9.9-3.8-24.8-2.06-30.04,1.5-.06-3.99,4.15-8.44,6.96-10.36-5.35.84-9.98,6.32-10.2,11.28-1.26-2.42-7.75-3.57-9.95,1.16,3.08-2.85,6.63-1.24,7.3,1.24-17.37,7.79-17.18,31.18-12.24,40.23.74-2.11,5.17-2.8,5.79,3.26.69.32,2.56.4,3.51.17.06-3.91-.88-4.41,2.39-9.83,3.02-.46,7.07-2.38,8.97-6.16-.14,1.67-.75,3.2-1.48,4.89,2.72-.75,6.5-6.52,6.34-16.44,3.51,20.14,18.29,12.35,23.53,16.01-.36-1.54-2.58-3.94-3.94-4.95,9.37,7.02,16.15-.43,21.14,5,1.17-4.19,1.38-7.47-.52-11.59,1.35.48,3.98,2.52,5.82,2.4-5.47-6.88-2.82-12.78-9.66-18.32,1.6,0,3.79-.6,5.33-1.51-5.95-1.14-13.32-5.77-19.06-7.98Z"/>
  </g>
  <g class="hairOverlapLine">
    <path d="m145.02,170.07c1.18,2.3,2.46,4.45,3.85,6.4"/>
    <path d="m155.08,183.28c1.18,1.2,2.45,2.24,3.82,3.15-1.49-2.71-2.55-5.79-3.3-9.14"/>
    <path d="m32.34,90.17c-1.3.47-3.62.69-4.51.75"/>
  </g>
  <g class="hairFoldLine">
    <path d="m268.95,12.59c-.37-.23-.74-.41-1.13-.54"/>
    <path d="m287.44,68.86c-.75.86-1.53,1.55-2.35,2.01"/>
    <path d="m319.29,67.96c.14.76.41,1.37.89,1.76"/>
  </g>
  <g class="skinOverlapLine">
    <path d="m20.54,270.86c0,2.22-.77,4.86-1.9,6.04"/>
    <path d="m11.47,277.21c-.36,3.87-.6,6.54-.1,8.19s.43,2.29,2.08,4.73"/>
    <path d="m6.57,276.79c0,3.51-.65,6.84.57,8.89"/>
    <path d="m3.35,276.3c-.36,1.79-.43,3.93.07,6.16"/>
    <path d="m89.97,286.43c.76-.93,1.24-2.83,1.58-5.34"/>
    <path d="m216.82,250.74c-.61,1.87-.22,4.1.26,6.37"/>
    <path d="m220.26,252.38c.08,2.29.86,5.43,2.02,8.09"/>
    <path d="m225.68,252.84c-.02,2.42,2.29,7.49,3.81,9.48"/>
    <path d="m236.02,261.85c.52-2.75-2.08-4.81-1.54-10.83"/>
    <path d="m90.76,273.38c-1.69-.14-3.32.11-4.89-.11"/>
    <path d="m91.14,278.07c-1.81.25-3.81.23-5.2.04"/>
    <path d="m89.19,282c-1.22.13-2.72.08-3.24-.1"/>
    <path d="m98.96,267.75c-.65-.79-2.97-1.3-3.39-.74"/>
    <path d="m153.6,181.88c-.16,2.04-1.83,4.63-6.02,6.56"/>
    <path d="m147.32,181.05c1.13-1.5,2.29-2.23,3.3-2.39"/>
    <path d="m146.86,182.46c1.8,2.48-2.72,3.54-1.71,4.86.7.91,1.24-1.42,3.51-1.99,3.22-.8,2.24-4.08.56-3.34"/>
    <path d="m141.69,192.09c-.97-.29-1.8-1.24-1.92-2.43"/>
  </g>
  <g class="skinFoldLine">
    <path d="m356.56,126.56c.04,2.67-.72,5.84-3.11,10.02"/>
    <path d="m235.92,161.29c-1.79-2.45-4.29-4.34-7.58-5.61"/>
    <path d="m421.02,150.47c.18,1.08,0,2.31-.8,3.38"/>
    <path d="m418.41,159.33c-.06.85-.31,1.95-1.13,2.26"/>
    <path d="m413.94,166.11c-.41.88-1.07,1.67-2.16,2.04"/>
    <path d="m238.6,246.88c-1.53,2.67-3.77,4.6-6.42,4.74"/>
    <path d="m169.71,229.61c1.59,1.45,2.31,4.3,1.97,6.38"/>
    <path d="m100.61,254.46c-1.9-.92-3.75-1.55-5.52-1.72"/>
    <path d="m212.1,240.51c.68.09,1.39-.22,2.1-.55"/>
    <path d="m208.88,248.72c1.42.29,3.52-.37,4.36-1.22"/>
    <path d="m24.73,101.49c-2.03-6.55-4.15-1.67-3.04,2.49"/>
    <path d="m25.71,104.22c-2.45,2.28,2.1,5.46.45,6.36-.74.41-.9-2.21-2.3-3.55-1.77-1.7-1.01-4.6.08-4.19"/>
    <path d="m263.73,38.6c-2.96-10.27-12.62-1.58-5.57,7.56"/>
    <path d="m264.14,41.06c-3.01,1.74,2.07,5.03.36,5.98-1.48.82-.41-2.04-3.68-2.6-3.57-.61-1.94-7.3.72-5.11"/>
    <path d="m264.29,33.18c.42.79.71,1.51.73,2.11"/>
  </g>
  <g class="skinCreaseLine">
    <path d="m414.4,151.87c-2.55,4.76-8.64,8.2-12.96,6.98"/>
    <path d="m398.51,149.18c-.63,1.57.55,4.95-.95,8.12"/>
    <path d="m428.71,144.97c.34.99.46,1.91.14,2.69"/>
    <path d="m430.22,156.58c.15,1.02.01,2.16-.68,2.88"/>
    <path d="m424.71,168.19c-.32.81-.76.54-1.58.95"/>
  </g>
  <g class="skinEdgeLine">
    <path d="m16.24,274.94c-3.65-2.01-4.01,0-6.16-1-2.45-1.14-2.87.64-4.58-.29-1.27-.69-2.22,0-2.65.14"/>
    <path d="m228.46,249.63c-2.53.8-3.37-.67-5.67-.37-2.84.37-3.39-1.6-4.99-1.42-2.17.25-2.47-1.05-3.14-1.54"/>
  </g>
</svg>