<svg viewBox="0 0 234.64 502.52">
  <path class="hairBlackDark" d="M66.36,69.08c8.4,3.85,13,3.41,9.36.48,3,1,11.36,1.47,13.41.09C95.82,29,45.25,31.37,66.36,69.08Z"/>
  <g class="eye">
    <path class="sclera" d="M129.62,54.63c-35.94-10.15-33-20.6,2.95-10.45C134.28,47,132.45,52.92,129.62,54.63Z"/>
    <g class="irisDarkBrown">
      <circle cx="109.22" cy="42.71" r="3.33"/>
      <circle cx="128.74" cy="48.22" r="3.33"/>
    </g>
    <g class="pupil">
      <circle cx="109.22" cy="42.71" r="1.29"/>
      <circle cx="128.74" cy="48.22" r="1.29"/>
    </g>
  </g>
  <g class="skinIndian">
    <path d="M49.9,211.82a172.65,172.65,0,0,1,8.71-31.25c2.14-5.84-3.38-28.73-1.47-46.71a153.16,153.16,0,0,1-5.51-18.76c-1.72-6.84-4.43-11.11-3.14-20.67s25.56-9,25.56-9C145.83,17.28,193.23,290.22,49.9,211.82Z"/>
    <path d="M99.05,78.86c-6.2-3.55-17.2-9.4-17.19-21C79,60.16,76.58,59,75.29,56.28c-1.12-2.39-2.45-4.66-3.25-6.6C53.8,19.31,115.57,8.17,133.56,24.47,144.8,53.36,131.26,111.41,99.05,78.86Zm17.11-32.94c-1.29-2.26-2.83-3.65-4.69-4-2.72-.53-4.2.29-6.32,1.13a12.1,12.1,0,0,0,5.4,2.82,23.82,23.82,0,0,0,4.66.44C115.64,46.36,116.63,46.75,116.16,45.92Zm16.62,3.9c-.28-1.66-1-2.3-2.08-2.62-1.43-.42-3.12,0-4.92,1.23-.84.59.24.86.52,1.11,2.43,2.09,5.13,2.56,6.34.77Z"/>
  </g>
  <path class="lipFemaleBrown__noStroke" d="M120.52,71.77c-1.23,1.16.76,5.37-5.54,4-4.44-1-4.58-4.63-7-6.67C111.23,68.28,116.91,68.34,120.52,71.77Z"/>
  <path class="lipFemaleBrown" d="M121.32,72.22a2.7,2.7,0,0,1-1.13-.75L109,68.9a5.67,5.67,0,0,1-2.43.15c4-.23,6.3-3.54,8.84-3.28C117.66,66,117,66.3,119,67c.89.29,2.24.12,2.77.74C123.27,69.44,118.19,68.5,121.32,72.22Z"/>
  <path class="mouthInner" d="M110.89,68.32l8.86,2.39a3.38,3.38,0,0,0,.44.76,6.76,6.76,0,0,1-5.11.36c-3.19-.73-3.27-1.49-6.07-2.93C109.45,68.83,110.89,68.32,110.89,68.32Z"/>
  <path class="teeth" d="M110.89,68.32c1.55-.6,3.09-1.47,4.54-.88a12.5,12.5,0,0,0,4.18,1.3,3.56,3.56,0,0,0,.14,2C117.45,71.59,113.71,70,110.89,68.32Z"/>
  <g class="lipEdgeLine">
    <path d="M119.36,74.84c-.6,2.16-5.75,1.64-8-1"/>
    <path d="M119.61,68.74a2.6,2.6,0,0,0,.84,0"/>
  </g>
  <g class="cheekLine">
    <path d="M124,63.74a11.77,11.77,0,0,1-.22,4.55"/>
    <path d="M113.91,56.75c-2.38.67-3.34,3.48-5.66,5.59a11.22,11.22,0,0,0-3.09,4.59"/>
  </g>
  <g class="noseLine">
    <path d="M113.22,61.53c-2.16-1.17-.84-4.11.69-4.78"/>
    <path d="M119.29,61.84c-1.14-.88-2.65-1.2-4.69.11"/>
    <path d="M123.57,50.37c.18,7,3.68,12.22-.25,13.72-2,.76-3.85-.53-5.13-1.93"/>
  </g>
  <g class="eyeFoldLine">
    <path d="M131.15,53.47a3.51,3.51,0,0,1-4-1.43"/>
    <path d="M113.71,48.15a9.19,9.19,0,0,1-7-2"/>
  </g>
  <path class="eyeCornerLine" d="M102.54,43a5.74,5.74,0,0,0,2.61.08"/>
  <g class="eyeCreaseLine">
    <path d="M126.27,46.72c3.91-2.62,7.26-.59,7.79,1.79"/>
    <path d="M104.19,41.87c3.7-2.11,9.52-3,11.93,1.22"/>
  </g>
  <g class="eyebrowBlack">
    <path d="M143.53,50.42c-2.54-6.17-11.14-11-15.32-11.13-1.17,0,.51,2.59,1.8,2.67C134.94,42.26,140.64,45.92,143.53,50.42Z"/>
    <path d="M102.67,37.19c5.58-4.09,15.82-2.29,18.42-.17.92.74-1.73,2-2.83,1.3A17.38,17.38,0,0,0,102.67,37.19Z"/>
  </g>
  <g class="hairBlack">
    <path d="M72,49.68c.74,1.8,1.93,3.88,3,6.07-1.58.8-3.25.47-4.88-1.71A15.36,15.36,0,0,1,72,49.68Z"/>
    <path d="M132.78,49.82c2.28-1.35,1.17-3.06,1.35-3.94s1-2.51.45-3.45a16.66,16.66,0,0,1-7.32-7.59c2,7.18-7.66-1.13-5.24-11.66-2.53,12.34-19.07,10.38-14.5,7.2C102.2,32,98.29,34.2,93.84,33.9c-2.37,1.84-5.14,3.43-5.77,7.62-.61,5-5.44,2.3-6.19.17-.95-4.89-13.72-5.84-9.84,8-6.45,10.41,1.4,22.63,9.7,33.29,2.77,3.56-2.83,7.45-15.72-3.08,2,8.49-8,4-13.66-12.2-1.39,7.12-6.91-1.41-5.65-12.14-3.33,6-6.12-5.91,4.66-18.71,4.39-5.23.36-9.73,12.65-19C70.38,13.09,82.88-5.94,96.66,2.29c10.84-5.24,30.12.34,37.63,11.88,2.46,3.8,7.69,8.91,8,21.23.16,6.46,2.09,6.13,3.2,15.44s-1.93,13.15-2.77,8.48c-2.62,34.91-19.75,34-15.27,28.08-11.08,7.06-19.41,6.37-17.21,1.48-10.74-.67-13.24-5.09-11.2-10,4.86,2.79,8.89,6.55,14.47,6.1,6.38-.52,6.19-4.2,8.79-6.48a28,28,0,0,0,9.89-23.25c-.23-2.36,2.46-2.79.44-4.92Z"/>
  </g>
  <g class="hairOverlapLine">
    <path d="M93.84,33.9c-4.84-.17-4.68-2.45-.82-2.56"/>
    <path d="M134.58,42.43c3.65,1.5,2.93-1,1.41-2.58"/>
  </g>
  <g class="phone">
    <path class="antennaLight" d="M64.82,38.26a.84.84,0,0,0-1,.09c-.77.53-1.65,2.07-1.35,2.4L68,46.45l4.73-1.52Z"/>
    <path class="phoneMedium" d="M114.69,80c-12.14,9.44-38.78-17-47.12-34.8,1.5-1.17,4.61-1.84,7-1.77,1.89.06,4,0,6.48,2.49,2.3,2.3,3.56,5.28,4.3,9.8,7.73,8,15.16,14,28,21.15C115.61,78.11,115.42,79.44,114.69,80Z"/>
    <path class="phoneDark" d="M107.52,81.17a14.88,14.88,0,0,0,7.66-1.91c-.14,4.15-3.43,9.86-5.41,11.31-1.61,1.12-5.59,1.82-7.84,1.53Z"/>
    <path class="phoneLight" d="M107.52,81.17c-.3,2.16-4.22,9.79-5.59,10.93C91,84.5,81.55,76.48,73.42,66.51c-1.07-1.05-3-1.21-4.82-2.87a14.82,14.82,0,0,1-3.89-6,13.93,13.93,0,0,1-.3-7.53c.48-2.53,2.74-5.58,5-5.46,2.67-.06,5.13,2.23,7.21,5.6,1.62,2.62,1.84,5.46,2.76,6.66C87.49,65.32,97.7,74.65,107.52,81.17Z"/>
  </g>
  <g class="skinIndian">
    <path d="M140.59,271.93a250.61,250.61,0,0,1-2.73,35.89c-8.94,26.62-17.25,53.25-20.79,72.77,1.94,14.85,3.63,28.89,3.51,41.14,0,2.89-.28,5.3-.16,9.14.08,2.67-2.57,4-3.89,2.84,0,2.85-2.21,4.69-4.39,4.33,0,2.19-3.7,3.08-4.72,1.72-.09,1.95-5.77,2.31-6.45.25-2.11,1.66-6.28,1-7.55-1.56-.86-1.72-.28-5.47-.28-7.51,0-3-.41-4.76.49-7.9,4.89-17.15.62-33.22,6.65-39.46C83.76,248.79,116.51,149,140.59,271.93Z"/>
    <path d="M100.91,149.13c-6.12,8.16-18.77,9.25-27.73,2.5"/>
    <path d="M67.05,134c-2.7-12.72,11.31-28.82,8.75-40.63C75.41,91.53,70.21,72,73.13,66s2.4-11.26,11.81-10.61c3.18.21,6.64.09,7.66,3.6a7.18,7.18,0,0,1,4.89,3.16c3.51,1.11,5,2.13,4.8,5.36,1.55.64,3.39,2.35,2.49,4.28-1.74,1.24-4.55.3-5.94,1.87a37.54,37.54,0,0,1-4.3,3.88c.18,11.77-5.9,16-6.09,18.11-1.9,15.22,6.38,37.6-3.35,51.35-3.06,4.32-6.89,6.58-11.92,4.61-7.14-2.8-12.38-8.93-16-17.77M95.85,68c-3.19-1-3,1-5.24,4A32.79,32.79,0,0,1,95.85,68Z"/>
  </g>
  <g class="skinBlack">
    <path d="M85.1,120.61c1.49,5.9,2.24,11.91,4.68,15.28,3.82,5.28-.44,18.56,16.16,33.69,3.12,2.84,5.72,7.77,10.13,8.63,19.12,3.71,42.54-18.15,43.51-41.86C133.65,126.1,108.66,120.1,85.1,120.61Z"/>
    <path d="M127.14,165.48c2.71.34,6.25,6.37,4.89,9.26-1.77,4.48-16.83,11.13-20.63,24.29-2.2,7.65-10.31,13.57-17.77,22C81.29,211,68,212.1,54.06,197.86c3.36-4.25,1-8.43,3.08-13.18.42-2.75-6-4.57-8.65-.12-2.51,4.25-9.43,3.94-8.35,13.27,1.69,14.72,6.58,9.44,12.13,17.18C66.11,231.69,77.62,248.68,97,248.49c5.71-.05,16.86-10.64,27.41-20.43,2.5,9.54,5.68,18.42,8.27,26.86,7.06,22.93,8.37,29.67,9.44,39.4-30.38,9.23-63.9,20.76-73.29,29.37s-18.63,79.5-24.14,94.59c-1.88,5.14-5.24,12.1-8.31,14-6.66,4.09-13.44,9.28-19.85,14-4.46,3.32-7,3.66-10.19,3.44-1.69-.11-3.21.94-2.93,1.79a1.78,1.78,0,0,0-1.77,2.29c-1.3.11-1.8,2.58-1.07,3.31-.59,5.87,9.31,3,11,1.78s10.11,1.81,23.18-2.29c5.94-1.86,15-1.67,24.84-1.78,4,0,5.43-2.84,4.71-8-1.34-9.64-1.11-18.5.89-25.35,9.41-32.17,30.85-43.22,26.31-71.88a335,335,0,0,0,38.23-.14c-7.73,16.56-14,33.13-17,49.69.12,17.5,55.9,34.1,71.9,44.38,9.68,6.22,18.56,13.92,19,25.54.47,12.46,2.68,21.77,1,24.72-4.15,7.25,1.89,11.58,6.7,5.87.88,2.37,4.44,2,5.84-.42a4.32,4.32,0,0,0,4.52-3.06c2-.29,2.92-2,3.36-4.38,3.1-1.08,3.39-3.8,1.89-6.85,3.64-5.14,2.77-17.07,5.69-31.65,2.41-7.41,3.43-14-4.67-15.32-12.13-1.44-20.18-3-29-8.16-17.55-10.2-35.7-37.63-51.4-39.49,36.27-30.85,46.87-48.66,52.31-51.75,24.79-14.14,21.08-36.59,10.85-54.9-5.44-9.74-3.81-35-10.51-65.62-4-18.45-13.11-37.52-21.64-55.44l-14-13.52c-1.53-3.08-4.07-8.52-3.44-12.73"/>
  </g>
  <path class="hairBlack" d="M85.1,120.61c-3.9-16.15,10.39-35.3,28-40.7,36.22-11.11,60.13,24.81,46.5,56.44-3.83,3.27-10.48,3.27-12.64,6.84-7.12-3.65-18.49,4.79-35-4-.43-21-16.28-17.5-10.37-7.56-1.56.94-3,1.86-4.23,2.73C93.7,125.74,88.59,128.16,85.1,120.61Z"/>
  <g class="skinIndian">
    <path d="M159.66,146.88c1,2.59,6.73,8.21,7.18,12.69-5.21,4-5.63,7.38-9.07,8.75-5.82,2.33-3.18,2.86-7.12,4-4.42,3.22,3.85,8.09,9.52,2.54-1.55,5.12.7,9,5.47,7.36-.47,3.37.91,4.67,2.65,5.2s3.75.09,4.42-1.92c.72,2.82,2.27,3.28,4,3.39s3.17-.42,4-3.34c2.34.81,4.37,1,5.94-2.7,2.57-6.08-.38-11.76-2.85-18-3.77-10.88,0-16.72-4.6-27.58C177,132,168.56,126.36,163.45,119,163.15,133.15,156,137.85,159.66,146.88Z"/>
    <path d="M135.12,393.62c-1.7-1.95-3.54-6-5.7-8-5.51-5.13-14.47-22.5-16-33-1.39-9.45,3.13-34.82,2.35-47.89-.3-5,.32-8.48-.65-15.17-2.07-14.27-6.2-26.35-11.27-43.93h0c-2.68,1.75-5,2.81-6.81,2.82-19.4.19-30.91-16.8-44.75-33.48a15.17,15.17,0,0,0-2.44-2.71c-4.22,24-.72,37.4,9.2,53.21,4.91,7.83,15.81,18.3,22.77,25.47-3.58,32.9,14.77,50,14.37,68.63-.16,7.27,1.51,9.92,1.72,16.39.1,2.9,4.57,18.5,6.94,20.89,2.57,2.6,1.47,9.77,8.07,7.66.94,2.18,5.19,1.78,5.94.2,1.12,1.36,5.94.68,6-1.61,2.1,1.53,5.45-.15,5.64-2.42C135.26,401.49,137.17,396,135.12,393.62Z"/>
  </g>
  <g class="skinDisplayLine">
    <path d="M105.33,182.62c3.75,2.7-4.61,2.87-2.2.63"/>
    <path d="M133.44,394.59a5.52,5.52,0,0,1-3.62,3.22c-.51.13-1.71-1.48-1.28-1.84.64-.55,1.91-1.44,3.05-2.44"/>
    <path d="M127.67,399.27a5.05,5.05,0,0,1-2.55,1.37"/>
    <path d="M122.52,401.32a5,5,0,0,1-3,.79"/>
    <path d="M116.88,402.31a4.62,4.62,0,0,1-3.13.19"/>
    <path d="M111.2,401.77a4.65,4.65,0,0,1-2.8.14"/>
    <path d="M100.17,433.43a10.31,10.31,0,0,0-4.45-.1c-.73.14-.63,3.79,0,4.27a4.6,4.6,0,0,0,4.45,0"/>
    <path d="M105.71,437.4a11,11,0,0,0-2.94.1"/>
    <path d="M110.8,436.42a9,9,0,0,0-2.69.29"/>
    <path d="M114.92,434.46a4.73,4.73,0,0,0-2,.29"/>
    <path d="M118.94,431.32a2.39,2.39,0,0,0-1.76.3"/>
  </g>
  <g class="skinOverlapLine">
    <path d="M168.53,132.22c-5.75.83-10.93,9.57-8.87,14.66"/>
    <path d="M97.49,62.17c-4.12-1.28-5.89-2.21-8.08-.64-1.45,1-3.18,4.24-5.66,7.85"/>
    <path d="M79.72,66c1.91-3.6,2.72-7,5.08-7.53,1.36-.32,4.89.11,7.8.56"/>
    <path d="M95.85,68a8.13,8.13,0,0,1,6.44-.5"/>
    <path d="M180.73,185.57c.88-2,2.42-8,1.91-10.22"/>
    <path d="M176.46,172.25c-.73,4.36-2.64,11.36-3.75,13.27"/>
    <path d="M169.26,170c-1.77,4.86-2.46,9.38-3.62,12.25"/>
    <path d="M160.17,174.88a29.21,29.21,0,0,1,2.66-7.4"/>
    <path d="M116.53,433.71c-.24-2.16-.1-4.33-.32-6"/>
    <path d="M112.14,438c-.12-2.68.4-5.55-.39-8.25"/>
    <path d="M107.42,439.76c-.56-2.79.53-6.44-.52-9.32"/>
    <path d="M101,440c1.31-1.48.84-5.91.73-9.13"/>
    <path d="M112.9,404.55c-.88-2.19-.43-5-1.36-7.53"/>
    <path d="M118.84,404.75c-1-1.08-1.37-6.71-2.14-8.15"/>
    <path d="M124.89,403.14c-1.58-1.68-1.87-6-3.31-7.59"/>
    <path d="M130.53,400.72c-1.55-.85-3-5-4.83-7.61"/>
    <path d="M3.43,451.53c.76,5.24,5,2.08,9.31,3.64"/>
    <path d="M1.66,453.82c.56,4,6.43,2.06,9.46,2.72"/>
    <path d="M.59,457.13c1.57,2.39,5.09.19,9.65.72"/>
    <path d="M213.18,487.22c0,3.19,3,6-1.82,12.42"/>
    <path d="M217.2,499.22c1.8-3.83.85-7.07-3.12-7.07"/>
    <path d="M221.72,496.16c.71-2.53,0-4.63-3-5.06"/>
    <path d="M225.08,491.78c.15-1.33,0-2.24-1.22-2.67"/>
    <path d="M147.57,390.31a30.73,30.73,0,0,0-12.74,1.33"/>
    <path d="M129.75,349.44c7.48.05,29.38-5.82,38.49-5.76,41.25.24,41.25-40.78,26.86-55.32"/>
    <path d="M198.63,288.36a9.64,9.64,0,0,0-.4,3.9"/>
    <path d="M196.78,338.46a29.06,29.06,0,0,1-8,.66"/>
    <path d="M136.32,218.45c-4,1.77-7.94,5.28-11.89,9.61"/>
    <path d="M142.14,294.32c.55-.26,2.41-.73,2.94-1.39"/>
    <path d="M93.63,221a13.83,13.83,0,0,0-4.22,16.5"/>
    <path d="M111.91,139.2c-.29,4.48-1,8.26-4.51,8.47"/>
  </g>
  <g class="skinFoldLine">
    <path d="M99.91,214.44c-6.28.13-11.94-.86-16.68-3.53"/>
    <path d="M81.8,291a26.71,26.71,0,0,1,.87-3.87"/>
    <path d="M80.7,44.62c-.31-4.74-5.87-5.08-7.33-1.16"/>
    <path d="M103.16,131c-4.44-6.58,6.71-3.67,5.21,9.55"/>
    <path d="M104.26,133c-.43-1.51.74-1.91,1.57.06,1.37,3.33,0,4.43,1,7"/>
  </g>
  <path class="skinCreaseLine" d="M172.39,193.74c16.64,36.84,18.13,72.3,20.54,79.35"/>
  <g class="skinEdgeLine">
    <path d="M164.41,167a6.91,6.91,0,0,1,3.78,1"/>
    <path d="M171.33,169.44a5.58,5.58,0,0,1,3.86,1.39"/>
    <path d="M178,172.2a6.15,6.15,0,0,1,3.36,1"/>
    <path d="M165.2,164.49c2.91-1.6,3.17,1.28,6.85.36,3.84-.95,3.39,2.46,6.78,2.18,2.46-.2,3.13,2.05,4.74,3.08"/>
    <path d="M15.39,455.53c9.67,1.5,43-6,46.67-2"/>
    <path d="M226.32,485.54c-1.7,2.67-9.08,4.14-11.21,2.3-3.39-2.93,0-7.29,2.89-11.52,6.47-9.67,5.29-22.2,9-33.19,1-2.85,2.6-3.69,4.61-3"/>
  </g>
</svg>
