<svg viewBox="0 0 1522.05 3261.1">
    <path class="hairBlackDark" d="M430.17,447.84c54.58,25,84.64,22.16,60.75,3.15,19.86,6.55,73.77,9.51,87.1.57C621.46,187.3,293.16,203,430.17,447.84Z"/>
    <g class="eye">
        <path class="sclera" d="M840.9,354C607.55,288.14,626.7,220.32,860,286.2,871.13,304.17,859.25,342.93,840.9,354Z"/>
        <g class="irisDarkBrown">
            <circle cx="708.4" cy="276.66" r="21.6"/>
            <circle cx="835.16" cy="312.41" r="21.6"/>
        </g>
        <g class="pupil">
            <circle cx="708.4" cy="276.66" r="8.4"/>
            <circle cx="835.16" cy="312.41" r="8.4"/>
        </g>
    </g>
    <g class="skinIndian">
        <path d="M323.35,1374.48c10.15-62.2,29.3-128.67,56.51-202.81,13.92-37.92-21.94-186.57-9.54-303.26-16.77-43.76-25.56-81.43-35.74-121.8-11.19-44.43-28.78-72.16-20.42-134.2,8.44-62.59,166-58.26,166-58.26C946.07,111.58,1253.84,1883.48,323.35,1374.48Z"/>
        <path d="M642.4,511.37c-40.26-23.06-111.68-61-111.62-136.16-18.42,14.76-34.24,7.44-42.65-10.49-7.27-15.49-15.88-30.21-21.09-42.84C348.63,124.75,749.66,52.4,866.44,158.2,939.41,345.78,851.53,722.63,642.4,511.37ZM753.46,297.46c-8.32-14.64-18.32-23.64-30.43-26-17.66-3.43-27.25,1.84-41,7.35,8,8.44,22.33,14.95,35.05,18.3,13,3.42,23.33,1.92,30.21,2.85C750.13,300.35,756.53,302.85,753.46,297.46Zm107.9,25.32c-1.8-10.73-6.24-14.9-13.47-17-9.29-2.7-20.27-.16-31.93,8-5.48,3.83,1.51,5.63,3.34,7.2,15.77,13.6,33.34,16.66,41.17,5Z"/>
    </g>
    <g class="head48__edited">
        <path class="lipFemaleBrown__noStroke" d="M781.78,465.34c-8,7.5,5,34.81-35.92,25.84-28.89-6.33-29.74-30-45.27-43.24C721.5,442.62,758.37,443,781.78,465.34Z"/>
        <path class="lipFemaleBrown" d="M787,468.22a17.19,17.19,0,0,1-7.36-4.88l-72.56-16.7c-4.51,1.6-10,1.69-15.78,1,25.83-1.47,40.92-22.94,57.38-21.27,14.57,1.48,10.52,3.47,23.32,7.67,5.79,1.9,14.52.77,18,4.81C799.65,450.15,766.67,444.1,787,468.22Z"/>
        <path class="mouthInner" d="M719.25,442.91l57.56,15.54a21.19,21.19,0,0,0,2.82,4.89c-10.35,5.17-18.94,5.66-33.16,2.38-20.72-4.79-21.23-9.7-39.4-19.08C709.9,446.21,719.25,442.91,719.25,442.91Z"/>
        <path class="teeth" d="M719.25,442.91c10.11-3.9,20.11-9.55,29.51-5.72,12.81,5.22,16,7.26,27.16,8.46a22.56,22.56,0,0,0,.89,12.8C761.85,464.13,737.57,453.9,719.25,442.91Z"/>
        <g class="lipEdgeLine">
            <path d="M774.29,485.23c-3.95,14-37.35,10.65-52.18-6.76"/>
            <path d="M775.92,445.65a17.94,17.94,0,0,0,5.42,0"/>
        </g>
        <g class="cheekLine">
            <path d="M804.25,413.21c2.22,7.48.31,19.44-1.4,29.48"/>
            <path d="M738.9,367.79c-15.49,4.35-21.72,22.58-36.76,36.27-15.39,14-17.71,25.56-20.08,29.85"/>
        </g>
        <g class="noseLine">
            <path d="M734.43,398.81c-14.06-7.57-5.51-26.63,4.47-31"/>
            <path d="M773.81,400.84c-7.42-5.71-17.22-7.77-30.44.68"/>
            <path d="M801.61,326.36c1.13,45.14,23.87,79.36-1.67,89.08-13,4.95-25-3.44-33.25-12.55"/>
        </g>
        <g class="eyeFoldLine">
            <path d="M850.78,346.48c-8.12,2.38-20.07.78-26-9.26"/>
            <path d="M737.58,312c-14.43,2.27-33-2.3-45.73-13.26"/>
        </g>
        <path class="eyeCornerLine" d="M665.1,278.29c2.3,1.55,14.28,1.57,16.93.53"/>
        <g class="eyeCreaseLine">
            <path d="M819.14,302.68c25.37-17,47.14-3.84,50.54,11.61"/>
            <path d="M675.77,271.19c24-13.71,61.79-19.2,77.49,7.93"/>
        </g>
        <g class="eyebrowBlack">
            <path d="M931.18,326.71c-16.52-40-72.31-71.68-99.44-72.27-7.65-.17,3.3,16.8,11.69,17.31C875.41,273.71,912.43,297.48,931.18,326.71Z"/>
            <path d="M665.91,240.83c36.25-26.54,102.68-14.86,119.61-1.12,5.94,4.82-11.27,12.87-18.42,8.47C741.34,232.35,702.82,225.32,665.91,240.83Z"/>
        </g>
        <g class="hairBlack">
            <path d="M467,321.88c4.83,11.71,12.57,25.21,19.47,39.46-10.22,5.13-21.08,3-31.66-11.14A101.6,101.6,0,0,1,467,321.88Z"/>
            <path d="M861.36,322.78c14.85-8.73,7.63-19.82,8.77-25.57,1-5,6.37-16.26,2.94-22.4-12.87-6-33.51-21.42-47.5-49.28,12.75,46.63-49.77-7.31-34-75.7-16.47,80.11-123.81,67.43-94.14,46.78-34.57,10.45-60,24.76-88.83,22.85-15.4,12-33.38,22.26-37.43,49.48-4,32.56-35.31,14.92-40.22,1.09-6.15-31.75-89-37.94-63.89,51.85-41.87,67.57,9.14,146.92,63,216.16,18,23.07-18.39,48.32-102-20,12.88,55.11-52,26-88.72-79.24-9,46.23-44.86-9.13-36.69-78.77-21.59,38.69-39.69-38.38,30.24-121.51,28.55-33.94,2.39-63.14,82.17-123.11,41.27-31,122.44-154.59,211.86-101.19,70.41-34,195.54,2.24,244.29,77.17,16,24.63,50,57.82,52,137.79C924.24,271.11,936.73,269,944,329.42c7.38,61.39-12.58,85.41-18,55.05-17,226.66-128.21,220.71-99.1,182.31-72,45.83-126,41.34-111.74,9.61-69.72-4.36-85.95-33.08-72.74-65,31.55,18.07,57.74,42.5,94,39.57,41.38-3.35,40.15-27.28,57-42.06,51-44.7,66.77-99.46,64.26-150.93-1.53-15.35,15.94-18.12,2.83-32Z"/>
        </g>
        <g class="hairOverlapLine">
            <path d="M608.58,219.46c-31.44-1.12-30.38-15.93-5.31-16.63"/>
            <path d="M873.07,274.81c23.68,9.76,19-6.22,9.13-16.7"/>
        </g>
    </g>
    <g class="phone">
        <path class="antennaLight" d="M420.18,247.76c-1.36-1.09-3.81-1.1-6.34.61-5,3.4-10.75,13.41-8.81,15.53l35.65,37,30.73-9.84Z"/>
        <path class="phoneMedium" d="M743.92,518.82C665.14,580.09,492.21,408.31,438,292.88,447.76,285.31,468,281,483.3,281.4c12.28.35,25.86,0,42.07,16.16,14.9,14.9,23.08,34.27,27.88,63.62,50.21,52,98.43,91.07,181.65,137.3C749.94,506.44,748.69,515.12,743.92,518.82Z"/>
        <path class="phoneDark" d="M697.39,526.3c17.74.26,35.55-3.93,49.74-12.35-.89,26.91-22.27,64-35.15,73.43-10.46,7.25-36.29,11.79-50.88,9.91Z"/>
        <path class="phoneLight" d="M697.39,526.3c-1.91,14-27.36,63.56-36.29,71C590.26,548,528.79,495.89,476,431.16c-6.94-6.81-19.62-7.87-31.25-18.61C434,403,423.78,387,419.48,373.3c-4.3-12.91-6.26-28.16-2-48.89,3.13-16.43,17.82-36.2,32.4-35.45,17.36-.35,33.28,14.53,46.82,36.4,10.52,17,11.91,35.42,17.9,43.21C567.36,423.44,633.64,484,697.39,526.3Z"/>
    </g>
    <g class="skinIndian">
        <path d="M912.07,1764.75c-.53,79.35-6.21,157.08-17.68,233-58.07,172.84-112,345.69-135,472.41,12.56,96.4,23.55,187.55,22.78,267.08-.18,18.75-1.81,34.42-1.05,59.37.52,17.33-16.68,26.16-25.25,18.42.2,18.49-14.37,30.4-28.49,28.1-.26,14.19-24,20-30.66,11.15-.59,12.67-37.45,15-41.86,1.61-13.7,10.83-40.79,6.4-49-10.07-5.59-11.19-1.82-35.57-1.82-48.79,0-19.28-2.65-30.89,3.16-51.26,31.77-111.39,4-215.66,43.16-256.17C543.16,1614.52,755.74,966.48,912.07,1764.75Z"/>
        <path d="M654.51,967.53c-39.74,53-121.86,60-180.08,16.21"/>
        <path d="M434.69,869.07c-17.57-82.64,73.39-187.12,56.8-263.78C489,593.6,455.18,466.78,474.12,428c19.33-39.63,15.57-73.09,76.68-68.9,20.63,1.42,43.14.6,49.73,23.37,9,1.8,24.3,7.19,31.76,20.57,22.76,7.19,32.55,13.81,31.15,34.75,10.06,4.21,22,15.31,16.19,27.83-11.34,8.06-29.57,1.92-38.56,12.11-8.69,9.85-17.38,16.24-28,25.16,1.2,76.44-38.31,103.66-39.53,117.62C561.28,719.25,615,864.54,551.85,953.8c-19.84,28.05-44.74,42.75-77.42,29.94-46.31-18.14-80.34-58-104.11-115.33m251.3-427.36c-20.66-6.43-19.29,6.43-34,25.71A206.9,206.9,0,0,1,621.62,441.05Z"/>
    </g>
    <g class="skinBlack">
        <path d="M551.86,782.35c9.65,38.33,14.52,77.33,30.38,99.23,24.79,34.24-2.9,120.46,104.92,218.7,20.24,18.45,37.12,50.45,65.75,56,124.15,24.11,276.17-117.81,282.49-271.74C867,818,704.77,779.05,551.86,782.35Z"/>
        <path d="M824.74,1073.66c17.61,2.19,40.59,41.34,31.75,60.16C845,1162.88,747.28,1206,722.62,1291.47c-14.33,49.64-66.94,88.08-115.38,142.69-80.15-65.18-166.16-57.81-256.88-150.29,21.78-27.55,6.57-54.72,20-85.58,2.72-17.82-39.05-29.67-56.15-.72-16.26,27.53-61.22,25.58-54.23,86.15,11,95.55,42.73,61.23,78.78,111.48,89.83,108.33,164.59,218.59,290.54,217.39,37-.35,109.43-69.07,177.91-132.63,16.24,61.89,36.86,119.56,53.73,174.39,45.8,148.85,54.28,192.61,61.27,255.77C724.9,1970,507.33,2044.87,446.34,2100.75c-60.21,55.18-120.92,516.11-156.74,614.09-12.19,33.35-34,78.56-53.92,90.79-43.21,26.5-87.23,60.23-128.84,91.14-28.94,21.5-45.47,23.76-66.16,22.33-11-.76-20.83,6.1-19,11.58-8.25,0-14,7.7-11.54,14.88-8.42.74-11.67,16.77-6.94,21.5-3.78,38.14,60.47,19.75,71.41,11.58s65.66,11.71,150.51-14.88c38.55-12.08,97.38-10.86,161.26-11.58,26.1-.29,35.27-18.41,30.6-52.1-8.7-62.63-7.2-120.14,5.78-164.57,61-208.89,200.25-280.57,170.81-466.68,77.26,4.76,160.62,3.87,248.14-.9-50.15,107.53-90.78,215.07-110.15,322.6.8,113.61,362.89,221.35,466.76,288.08,62.86,40.39,120.54,90.38,123.33,165.86,3,80.86,17.37,141.33,6.42,160.44-27,47.07,12.26,75.16,43.47,38.14,5.73,15.35,28.84,13.21,37.93-2.74,11.34.46,23.85-4.16,29.35-19.88,12.92-1.88,18.94-13,21.78-28.41,20.11-7,22-24.71,12.31-44.5,23.6-33.38,18-110.78,36.93-205.47,15.65-48.11,22.25-91-30.3-99.42-78.81-9.4-131-19.68-188.43-53-113.94-66.18-231.74-244.25-333.68-256.36C1192.88,2333,1261.7,2217.37,1297,2197.33c160.93-91.82,136.88-237.6,70.45-356.45-35.33-63.19-24.71-227.08-68.2-426C1273,1295.09,1214.12,1171.29,1158.7,1055l-90.94-87.79c-10-20-26.39-55.3-22.36-82.64"/>
    </g>
    <g class="head53__edited">
        <path class="hairBlack" d="M551.86,782.35c-25.33-104.84,67.45-229.17,181.62-264.18,235.16-72.12,390.36,161.05,301.92,366.38-24.89,21.23-68.06,21.24-82.09,44.44-46.24-23.72-120.06,31.07-227.43-25.93-2.8-136.42-105.66-113.62-67.28-49-10.15,6.07-19.75,12-27.52,17.71C607.66,815.68,574.51,831.38,551.86,782.35Z"/>
    </g>
    <g class="skinIndian">
        <path d="M1035.9,952.94c6.12,16.77,43.66,53.31,46.63,82.36-33.84,25.9-36.6,47.93-58.89,56.83-37.82,15.09-20.7,18.54-46.28,26.06-28.64,20.93,25,52.56,61.83,16.5-10.07,33.23,4.53,58.35,35.49,47.81-3,21.87,5.93,30.32,17.21,33.71s24.36.63,28.71-12.46c4.7,18.34,14.72,21.32,26.12,22s20.58-2.77,26-21.69c15.18,5.25,28.36,6.66,38.57-17.53,16.64-39.45-2.49-76.37-18.53-116.85-24.48-70.66.1-108.54-29.87-179.06-14.7-34.62-69.19-70.93-102.4-118.89C1058.52,863.78,1012.36,894.28,1035.9,952.94Z"/>
        <path d="M876.54,2554.77c-11-12.65-23-38.69-37-51.72-35.73-33.26-93.92-146-104-214.23-9-61.35,20.33-226,15.24-310.86-1.94-32.4,2.06-55.09-4.24-98.49-13.42-92.63-40.23-171.1-73.12-285.2h0c-17.41,11.34-32.55,18.21-44.2,18.32-125.95,1.2-200.71-109.06-290.54-217.39a99.48,99.48,0,0,0-15.86-17.6c-27.41,156.11-4.68,242.84,59.74,345.49,31.89,50.79,102.63,118.77,147.79,165.3C507.19,2102,626.33,2212.87,623.72,2334c-1,47.18,9.76,64.41,11.16,106.38.63,18.84,29.69,120.14,45.06,135.67,16.67,16.85,9.53,63.39,52.37,49.72,6.08,14.15,33.71,11.57,38.6,1.31,7.26,8.79,38.57,4.37,39.25-10.47,13.66,9.89,35.41-1,36.64-15.7C877.46,2605.83,889.89,2570.1,876.54,2554.77Z"/>
    </g>
    <g class="skinDisplayLine">
        <path d="M683.2,1185c24.33,17.53-30,18.58-14.31,4"/>
        <path d="M865.67,2561.06c-4.66,10.35-12.87,18.25-23.52,20.9-3.32.83-11.1-9.65-8.31-12,4.2-3.52,12.4-9.31,19.8-15.81"/>
        <path d="M828.19,2591.41c-5.1,4.78-10.58,7.9-16.55,8.91"/>
        <path d="M794.77,2604.77c-6.76,3.79-13.37,5.85-19.72,5.09"/>
        <path d="M758.18,2611.14c-7.25,2.49-14.2,3.62-20.37,1.27"/>
        <path d="M721.27,2607.64c-6.25,2.13-12.31,2.59-18.14,1"/>
        <path d="M649.67,2813.2a66.65,66.65,0,0,0-28.87-.63c-4.75.87-4.08,24.57,0,27.68,6.44,4.92,21.87,5.41,28.87.32"/>
        <path d="M685.63,2839a69.52,69.52,0,0,0-19.1.64"/>
        <path d="M718.72,2832.62a57,57,0,0,0-17.5,1.9"/>
        <path d="M745.45,2819.89a30.89,30.89,0,0,0-12.73,1.91"/>
        <path d="M771.54,2799.52a15.59,15.59,0,0,0-11.45,1.91"/>
    </g>
    <g class="skinOverlapLine">
        <path d="M1093.47,857.78c-37.32,5.35-71,62.1-57.57,95.16"/>
        <path d="M632.29,403c-26.74-8.33-38.26-14.4-52.45-4.2-9.41,6.76-20.67,27.55-36.74,51"/>
        <path d="M516.93,427.73c12.4-23.41,17.68-45.33,32.94-48.89,8.85-2.07,31.8.69,50.66,3.6"/>
        <path d="M621.62,441.05c10.1-5.05,21.12-8.72,41.82-3.29"/>
        <path d="M1172.69,1204.1c5.69-13.12,15.68-51.67,12.41-66.37"/>
        <path d="M1144.94,1117.62c-4.71,28.29-17.12,73.76-24.34,86.13"/>
        <path d="M1098.24,1102.92c-11.51,31.55-16,60.95-23.56,79.58"/>
        <path d="M1039.19,1134.69c2.91-14,9.43-33.94,17.27-48"/>
        <path d="M755.9,2815c-1.58-14-.65-28.1-2.07-39"/>
        <path d="M727.41,2843.13c-.82-17.43,2.56-36-2.56-53.53"/>
        <path d="M696.75,2854.28c-3.64-18.1,3.46-41.77-3.4-60.51"/>
        <path d="M654.89,2855.89c8.47-9.57,5.42-38.31,4.75-59.27"/>
        <path d="M732.31,2625.73c-5.7-14.21-2.76-32.26-8.82-48.92"/>
        <path d="M770.91,2627c-6.37-7.05-8.93-43.56-13.91-52.95"/>
        <path d="M810.16,2616.57c-10.26-11-12.12-39-21.47-49.27"/>
        <path d="M846.8,2600.87c-10.07-5.56-19.28-32.45-31.4-49.41"/>
        <path d="M21.66,2930.68c4.93,34.06,32.21,13.53,60.42,23.64"/>
        <path d="M10.12,2945.56c3.69,26.19,41.8,13.39,61.42,17.68"/>
        <path d="M3.18,2967.06c10.25,15.51,33.05,1.22,62.68,4.69"/>
        <path d="M1383.37,3162.41c-.09,20.73,19.67,38.88-11.85,80.64"/>
        <path d="M1409.45,3240.31c11.65-24.89,5.53-45.9-20.26-45.9"/>
        <path d="M1438.8,3220.43c4.57-16.43-.27-30-19.63-32.85"/>
        <path d="M1460.58,3192c1-8.67,0-14.52-7.94-17.34"/>
        <path d="M957.41,2533.25c-29.8-2.76-58.87.35-82.74,8.66"/>
        <path d="M841.69,2267.93c48.59.36,190.75-37.76,249.91-37.41,267.82,1.55,267.8-264.69,174.38-359.14"/>
        <path d="M1288.91,1871.38a62.76,62.76,0,0,0-2.63,25.37"/>
        <path d="M1276.85,2196.63a186.19,186.19,0,0,1-51.74,4.28"/>
        <path d="M884.34,1417.52c-25.83,11.54-51.54,34.28-77.17,62.44"/>
        <path d="M922.17,1910.12c3.58-1.72,15.6-4.73,19.06-9.07"/>
        <path d="M607.24,1434.16c-30.28,24.1-44.59,64.17-27.42,107.1"/>
        <path d="M725.88,903.06c-1.87,29.09-6.75,53.65-29.25,55"/>
    </g>
    <g class="skinFoldLine">
        <path d="M648,1391.49c-40.75.87-77.49-5.57-108.29-22.86"/>
        <path d="M530.39,1888.39c1.31-7.59,3.25-18.39,5.68-25.08"/>
        <path d="M523.27,289.07c-2-30.82-38.08-33-47.57-7.52"/>
        <path d="M669.09,849.85c-28.85-42.73,43.55-23.84,33.83,62"/>
        <path d="M676.24,862.46c-2.83-9.79,4.81-12.36,10.19.41,8.92,21.65.19,28.74,6.33,45.52"/>
    </g>
    <path class="skinCreaseLine" d="M1118.54,1257.13c108,239.16,117.68,469.38,133.33,515.14"/>
    <g class="skinEdgeLine">
        <path d="M1066.76,1083.7a44.7,44.7,0,0,1,24.53,6.8"/>
        <path d="M1111.68,1099.38c8.28-.7,20.42,3.88,25,9"/>
        <path d="M1155.18,1117.29c6.09-.2,15,2,21.8,6.65"/>
        <path d="M1071.84,1067.21c18.9-10.35,20.6,8.35,44.51,2.4,24.88-6.19,22,15.92,44,14.13,16-1.29,20.3,13.31,30.76,20"/>
        <path d="M99.26,2956.68c62.78,9.75,279.16-38.74,303-13.18"/>
        <path d="M1468.62,3151.49c-11,17.37-58.93,26.86-72.72,14.94-22-19,.31-47.36,18.7-74.8,42.05-62.79,34.36-144.13,58.35-215.44,6.23-18.54,16.85-24,29.92-19.45"/>
    </g>
</svg>
