<svg id="presence" xmlns="http://www.w3.org/2000/svg" viewBox="0 0 1522.05 3015.1">
  <defs>
    <style>
      .cls-1 {
        fill: none;
      }

      .cls-1, .cls-2, .cls-3, .cls-4, .cls-5 {
        stroke: #000;
        stroke-miterlimit: 10;
        stroke-width: 2px;
      }

      .cls-2 {
        fill: #95afc9;
      }

      .cls-3 {
        fill: #8fd9b2;
      }

      .cls-4 {
        fill: #86cca7;
      }

      .cls-5 {
        fill: #99e8be;
      }
    </style>
  </defs>
  <title>caressReflection</title>
  <g id="skinIndian">
    <path class="cls-1" d="M489.94,310.7c-91-25-167-9.21-175.78,55.7-8.36,62.05,9.23,89.78,20.42,134.2,10.18,40.38,19,78,35.74,121.81-12.4,116.69,23.46,265.34,9.54,303.25-27.21,74.15-46.36,140.62-56.51,202.82C828.66,1559.67,1292.68,490.5,489.94,310.7Z"/>
    <path class="cls-1" d="M912.07,1518.75c-.53,79.35-6.21,157.08-17.68,233-58.07,172.83-112,345.69-135,472.41,12.56,96.4,23.55,187.55,22.78,267.08-.18,18.74-1.81,34.42-1.05,59.36.52,17.34-16.68,26.17-25.25,18.43.2,18.49-14.37,30.4-28.49,28.1-.26,14.19-24,20-30.66,11.15-.59,12.67-37.45,15-41.86,1.61-13.7,10.83-40.79,6.4-49-10.07-5.59-11.19-1.82-35.57-1.82-48.79,0-19.29-2.65-30.89,3.16-51.26,31.77-111.39,4-215.66,43.16-256.18C543.16,1368.52,755.74,720.48,912.07,1518.75Z"/>
  </g>
  <g id="phone">
    <path id="antennaLight" class="cls-2" d="M420.18,1.76c-1.36-1.09-3.81-1.11-6.34.61-5,3.4-10.75,13.41-8.81,15.53l35.65,37,30.73-9.84Z"/>
    <path id="phoneMedium" class="cls-3" d="M743.92,272.82C665.14,334.09,492.21,162.31,438,46.88,447.76,39.31,468,35,483.3,35.4c12.28.35,25.86,0,42.07,16.16,14.9,14.9,23.08,34.27,27.88,63.61,50.21,52.05,98.43,91.08,181.65,137.31C749.94,260.44,748.69,269.11,743.92,272.82Z"/>
    <path id="phoneDark" class="cls-4" d="M697.39,280.3c17.74.26,35.55-3.93,49.74-12.35-.89,26.91-22.27,64-35.15,73.43-10.46,7.25-36.29,11.78-50.88,9.91Z"/>
    <path id="phoneLight" class="cls-5" d="M697.39,280.3c-1.91,14-27.36,63.56-36.29,71C590.26,302,528.79,249.89,476,185.16c-6.94-6.81-19.62-7.87-31.25-18.62C434,157,423.78,141,419.48,127.29c-4.3-12.9-6.26-28.16-2-48.88C420.65,62,435.34,42.21,449.92,43c17.36-.35,33.28,14.52,46.82,36.4,10.52,17,11.91,35.42,17.9,43.21C567.36,177.44,633.64,238,697.39,280.3Z"/>
  </g>
  <path id="skinBlack" class="cls-1" d="M342.13,1031.38c90.72,92.48,185,91.6,265.11,156.77,48.44-54.6,101-93,115.38-142.68C747.28,960,845,916.88,856.49,887.81l-17.61-53.72,187.91-81.28L1158.7,809c55.42,116.31,114.34,240.11,140.53,359.89,43.49,198.92,32.87,362.82,68.2,426,66.43,118.85,90.48,264.63-70.45,356.45-35.28,20-104.1,135.64-339.57,335.92,101.94,12.11,219.74,190.18,333.68,256.36,57.41,33.34,109.62,43.62,188.43,53,52.55,8.46,46,51.31,30.3,99.42-18.94,94.69-13.33,172.09-36.93,205.47,9.7,19.79,7.8,37.5-12.31,44.5-2.84,15.39-8.86,26.53-21.78,28.41-5.5,15.72-18,20.34-29.35,19.88-9.09,16-32.2,18.08-37.93,2.74-31.21,37-70.42,8.93-43.47-38.14,11-19.11-3.42-79.58-6.42-160.44-2.79-75.48-60.47-125.47-123.33-165.86-103.87-66.73-466-174.48-466.76-288.08,19.37-107.54,60-215.07,110.15-322.6-87.52,4.77-170.88,5.66-248.14.9,29.44,186.11-109.77,257.79-170.81,466.68-13,44.43-14.48,101.94-5.78,164.57,4.67,33.69-4.5,51.8-30.6,52.1-63.88.71-122.71-.51-161.26,11.58-84.85,26.58-139.46,6.62-150.51,14.88S-.6,2759.2,3.18,2721.06c-4.73-4.73-1.48-20.76,6.94-21.5-2.44-7.18,3.29-14.84,11.54-14.88-1.81-5.48,8-12.34,19-11.58,20.69,1.43,37.22-.83,66.16-22.33,41.61-30.91,85.63-64.65,128.84-91.14,19.95-12.24,41.73-57.44,53.92-90.79,35.82-98,96.53-558.91,156.74-614.09,61-55.89,283.56-130.73,480.83-190.63,20-77.86-20.47-106.93-66.27-255.77-16.87-54.83-37.49-112.5-53.73-174.4-68.48,63.57-140.86,132.29-177.91,132.64-125.95,1.19-218.43-132.64-308.27-241"/>
  <g id="skinOverlapLine">
    <path class="cls-1" d="M957.41,2287.25c-29.8-2.76-58.87.35-82.74,8.66"/>
    <path class="cls-1" d="M841.69,2021.93c48.59.35,190.75-37.76,249.91-37.42,267.82,1.56,267.8-264.68,174.38-359.13"/>
    <path class="cls-1" d="M1288.91,1625.38a62.74,62.74,0,0,0-2.63,25.37"/>
    <path class="cls-1" d="M1276.85,1950.62a185.8,185.8,0,0,1-51.74,4.29"/>
    <path class="cls-1" d="M884.34,1171.52c-25.83,11.54-51.54,34.28-77.17,62.43"/>
    <path class="cls-1" d="M927.17,1664.12c3.58-1.72,8.66-3.08,12.12-7.42"/>
    <path class="cls-1" d="M607.24,1188.15c-30.28,24.11-44.59,64.18-27.42,107.11"/>
  </g>
  <g id="skinEdgeLine">
    <path class="cls-1" d="M99.26,2710.68c62.78,9.75,279.16-38.74,303-13.18"/>
    <path class="cls-1" d="M1468.62,2905.49c-11,17.37-58.93,26.86-72.72,14.94-22-19,.31-47.36,18.7-74.81,42.05-62.78,34.36-144.12,58.35-215.43,6.23-18.54,16.85-24,29.92-19.45"/>
  </g>
  <path id="skinCreaseLine" class="cls-1" d="M1118.54,1011.13c108,239.16,117.68,469.37,133.33,515.14"/>
  <g id="skinOverlapLine-2" data-name="skinOverlapLine">
    <path class="cls-1" d="M21.66,2684.68c4.93,34.06,32.21,13.52,60.42,23.64"/>
    <path class="cls-1" d="M10.12,2699.56c3.69,26.19,41.8,13.39,61.42,17.68"/>
    <path class="cls-1" d="M3.18,2721.06c10.25,15.51,33.05,1.22,62.68,4.69"/>
    <path class="cls-1" d="M1383.37,2916.41c-.09,20.73,19.67,38.88-11.85,80.64"/>
    <path class="cls-1" d="M1409.45,2994.31c11.65-24.9,5.53-45.9-20.26-45.9"/>
    <path class="cls-1" d="M1438.8,2974.43c4.57-16.43-.27-30-19.63-32.85"/>
    <path class="cls-1" d="M1460.58,2946c1-8.67,0-14.52-7.94-17.35"/>
  </g>
  <g id="skinOverlapLine-3" data-name="skinOverlapLine">
    <path class="cls-1" d="M755.9,2569c-1.58-14-.65-28.1-2.07-39"/>
    <path class="cls-1" d="M727.41,2597.13c-.82-17.43,2.56-36-2.56-53.53"/>
    <path class="cls-1" d="M696.75,2608.28c-3.64-18.1,3.46-41.77-3.4-60.51"/>
    <path class="cls-1" d="M654.89,2609.89c8.47-9.57,5.42-38.31,4.75-59.27"/>
    <path class="cls-1" d="M732.31,2379.73c-5.7-14.21-2.76-32.26-8.82-48.92"/>
    <path class="cls-1" d="M770.91,2381c-6.37-7.05-8.93-43.56-13.91-52.95"/>
    <path class="cls-1" d="M810.16,2370.57c-10.26-11-12.12-39-21.47-49.27"/>
    <path class="cls-1" d="M846.8,2354.87c-10.07-5.56-19.28-32.45-31.4-49.41"/>
  </g>
  <g id="skinDisplayLine">
    <path class="cls-1" d="M865.67,2315.05c-4.66,10.35-12.87,18.26-23.52,20.91-3.32.83-11.1-9.65-8.31-12,4.2-3.51,12.4-9.3,19.8-15.81"/>
    <path class="cls-1" d="M828.19,2345.41c-5.1,4.78-10.58,7.9-16.55,8.91"/>
    <path class="cls-1" d="M794.77,2358.77c-6.76,3.79-13.37,5.85-19.72,5.09"/>
    <path class="cls-1" d="M758.18,2365.14c-7.25,2.48-14.2,3.62-20.37,1.27"/>
    <path class="cls-1" d="M721.27,2361.64c-6.25,2.13-12.31,2.59-18.14,1"/>
    <path class="cls-1" d="M649.67,2567.2a66.5,66.5,0,0,0-28.87-.63c-4.75.87-4.08,24.57,0,27.68,6.44,4.92,21.87,5.41,28.87.32"/>
    <path class="cls-1" d="M685.63,2593a69.52,69.52,0,0,0-19.1.64"/>
    <path class="cls-1" d="M718.72,2586.61a57.33,57.33,0,0,0-17.5,1.91"/>
    <path class="cls-1" d="M745.45,2573.89a31,31,0,0,0-12.73,1.9"/>
    <path class="cls-1" d="M771.54,2553.52a15.59,15.59,0,0,0-11.45,1.91"/>
  </g>
  <g id="skinIndian-2" data-name="skinIndian">
    <path class="cls-1" d="M1059.87,802.7c-12.07-22.05-36.68-44.63-39-62.33"/>
    <path class="cls-1" d="M1027.36,529.53c27.09,21.66,45.56,58.6,69.65,84.35,29,31,55.64,45,67.78,78.16,26.31,72-18.25,92.86-9.74,167.15"/>
    <path class="cls-1" d="M876.54,2308.77c-11-12.65-23-38.7-37-51.72-35.73-33.26-93.92-146-104-214.24-9-61.34,20.33-226,15.24-310.85-1.94-32.4,2.06-55.09-4.24-98.49-13.42-92.63-40.23-171.1-73.12-285.2-17.41,11.34-32.55,18.21-44.2,18.32-124.84,1.18-216.81-130.3-305.91-238.11-32.29,198,26.63,352.72,207,573.9-23.2,213.6,95.94,264.49,93.33,385.57-1,47.18,9.76,64.41,11.16,106.38.63,18.85,29.69,120.15,45.06,135.68,16.67,16.85,9.53,63.39,52.37,49.72,6.08,14.15,33.71,11.57,38.6,1.31,7.26,8.78,38.57,4.36,39.25-10.47,13.66,9.89,35.41-1,36.64-15.7C877.46,2359.83,889.89,2324.1,876.54,2308.77Z"/>
  </g>
  <path id="skinDisplayLine-2" data-name="skinDisplayLine" class="cls-1" d="M683.2,939c24.33,17.53-30,18.58-14.31,4"/>
  <g id="skinOverlapLine-4" data-name="skinOverlapLine">
    <path class="cls-1" d="M573.58,374.48C561.28,473.25,615,618.54,551.85,707.8c-19.84,28.05-44.74,42.75-77.42,29.94-46.31-18.14-80.34-58-104.11-115.33"/>
    <path class="cls-1" d="M434.69,623.07c-17.57-82.64,66.37-172.44,57.92-275.25"/>
    <path class="cls-1" d="M654.51,721.53c-39.74,53-121.86,60.05-180.08,16.21"/>
    <path class="cls-1" d="M1068.38,665.77c-27,13-53.41,39.41-47.52,74.6"/>
  </g>
  <path id="skinFoldLine" class="cls-1" d="M648,1145.49c-40.75.87-77.49-5.57-108.29-22.87"/>
</svg>
