<svg viewBox="0 0 363.91 524.26">
  <g class="soleWhite">
    <path d="m212.42,508.9c-.48,2.07-.64,4.5.38,5.67,2.4,2.74,8.06,3.38,13.63,6.08,6.8,3.31,26.05,2.86,31.26-2.64.59-1.76.42-3.29-.18-5.17l-45.09-3.94Z"/>
    <path d="m205.89,512.48c.55,1.9.5,3.76.08,5.55-3.69,6.51-35.26,8.57-40.66,1.8-.76-1.87-1.06-3.86-.75-5.92l41.33-1.43Z"/>
  </g>
  <g class="shoe">
    <path d="m239.88,487.71c3.57,5.8,7.19,11,11.01,14.03,5.5,3.02,7.45,6.77,6.62,11.09-1.61,5.1-23.44,7.87-32.47,2.77-2.69-1.52-8.23-2.95-12.61-6.71-.25-5.04,1.43-11.09,2.77-18.25l24.68-2.94Z"/>
    <path d="m202.31,489.4c-.36,9.48,3.58,14.4,3.58,23.08-3.22,7.6-35.87,8.95-41.33,1.43-1.43-10.56,9.21-8.77,10.73-25.76,7.58-3.82,16.74-2.94,27.02,1.25Z"/>
  </g>
  <g class="shoelace">
    <path d="m244.63,494.88h0c-5.31-1.94-14.46-1.66-20.67.51,1.42,3.15,3.15,5.86,5.28,7.96,5.2-2.89,15.07-3.67,21.65-1.61-2.14-1.7-4.22-4.07-6.26-6.86Z"/>
    <path d="m176.4,494.46c-.62,2.84-1.81,5.82-3.32,8.89,6.41-1.34,13.51-.91,21.07.67.63-2.78.32-5.63.95-8.92-6.86-1.61-13.24-2.14-18.7-.64Z"/>
  </g>
  <g class="sign">
    <path class="signHandle" d="m51.12,143.22l-15.78,79.72c-.69,3.1,7.56,4.91,8.25,1.81l15.61-79.45-8.07-2.08Z"/>
    <polygon class="signWhite" points="107.87 8.81 53.2 .26 10.41 33.47 .26 88.31 27.89 137.1 81.3 152.47 130.46 120.68 141.87 59.01 107.87 8.81"/>
    <path class="signRed" d="m83.4,53.49c10.54,2.1,10.54,13.23,8.09,26.47-2.45,13.24-6.39,23.49-16.86,20.94-10.27-2.5-10.21-13.46-7.82-26.41,2.4-12.95,6.24-23.07,16.59-21Zm-11.17,22.2c-1.33,7.2-2.16,17.62,3.55,18.98,5.78,1.37,8.75-8.66,10.1-15.95s2.17-17.8-3.64-18.99c-5.75-1.18-8.69,8.77-10.02,15.97Zm52.66.42c-1.66,8.98-9.63,12.26-18.23,10.33l-4.43-.99-3.93,21.24-6.07-1.5,8.91-48.16,10.58,2.11c8.66,1.59,14.84,8,13.18,16.98Zm-17.03,3.87c5.13,1.12,9.67.12,10.66-5.22.99-5.33-2.86-8.11-8-9.16l-4.45-.91-2.65,14.33,4.44.97Zm-40-23.21l-9.06-1.86-7.46,40.35-5.59-1.36,7.42-40.14-8.92-1.83,1.11-6.02,23.63,4.71-1.14,6.15ZM104.26,14.61L54.36,6.53,15.03,36.83l-9.31,50.35,25.47,44.64,48.84,13.77,44.64-29.12,10.37-56.06-30.78-45.81ZM20.22,73.45c-1.06,5.7.17,8.06,4.34,9.05,4.67,1.11,6.76-.99,7.23-6.46.64-7.47-15.17-11.92-13.25-22.28,1.34-7.24,5.55-12.1,13.29-10.56,7.83,1.56,9.98,6.88,8.83,14.22,0,0-5.5-1.16-5.5-1.16.38-3.92-1.26-6.31-4.45-6.97-3.5-.72-5.64.68-6.43,4.95-1.27,6.86,15.1,11.48,13.02,22.72-1.53,8.29-5.03,13.62-13.83,11.48-8.37-2.04-10.02-7.39-8.39-16.19l5.15,1.18Z"/>
  </g>
  <path class="pants" d="m161.3,293.99c-7.36,19.97-2.35,35.69-3.86,60.51-1.83,29.99,6.13,34.16,4.99,55.74-1,18.93,3.5,21.27,4.91,40.33-5.08,14.42-.68,16.47-1.41,21.69-.83,5.91,3.16,13.78,5.16,22.72,5.33-8.79,24.14-7.12,32.3-1.51,2.66-9.24,0-12.27,1-16.21,2.78-10.98,1.66-23.78.83-30.45,2.83-11.66.5-21.57,3.7-39.03.38,8.22,1.68,13.98,1.13,18.7-1.6,13.63,3.13,27.11,0,35.97-2.97,8.43,2.07,21.58,2.64,32.72,9.23-1.54,25.04-9.59,32.76-2.23.94-4.97-.5-10.44,1.13-13.7,2.92-5.86-.56-13.53-.75-20.56,8.28-13.88,1.88-38.03,4.52-43.68,9.15-19.63,6.57-38.96,7.53-47.36,2.58-22.45,1.17-36.51,3.95-46.6,2.34-8.49-.75-15.59-1.51-25.35l-99.01-1.7Z"/>
  <path class="shirt" d="m225.09,156.34c-10.06-2.04-26.67-.26-35.57,1.43-12.93,2.45-26.59,6.92-38.17,16.13-18.03,14.35-16.94,6.74-26.54,16.74,3.27,8.78,12.4,18.37,21.59,23.47,3.31-.24,12.05-1.6,19.44-6.94,31.03,21.64,89.4,8.78,91.85,16.94,6.53.41,21.84-9.39,23.47-15.31-2.86-9.39-9.15-15.87-11.43-23.68-6.83-23.33-26.69-24.09-44.65-28.78Z"/>
  <g class="eye">
    <circle class="sclera" cx="184.09" cy="124.26" r="16.48"/>
    <g class="irisBrown">
      <ellipse cx="188.07" cy="125.11" rx="3" ry="3.6" transform="translate(-23.45 45.84) rotate(-13.09)"/>
      <ellipse cx="170.87" cy="128.9" rx="2.76" ry="3.6" transform="translate(-24.75 42.04) rotate(-13.09)"/>
    </g>
    <g class="pupil">
      <ellipse cx="187.69" cy="125.2" rx="1.17" ry="1.4" transform="translate(-23.48 45.76) rotate(-13.09)"/>
      <ellipse cx="170.43" cy="129" rx="1.21" ry="1.4" transform="translate(-24.79 41.95) rotate(-13.09)"/>
    </g>
  </g>
  <g class="vest">
    <path d="m165.36,164.6c-1.63,4.9-1.24,12.13-2.07,16.58-1.12,5.99.76,15.89.54,21.82-.32,8.54,2.54,14.05-.36,23.61-5.62,18.58-6.97,39.38-4.65,51.34.8,4.12-2.84,18.72,5.32,22.05,14.61,5.98,37.94,8.9,48.17.85l-1.61-79.96c-4.52-10.79-19.09-28.2-22.08-63.4-8.91,1.27-22.38,6.21-23.26,7.11Z"/>
    <path d="m231.45,157.37c8.25,1.59,17.14,3.67,24.67,8.15-.36,14.23,3.03,25.67.41,48.28-1.35,11.65,11.82,39.96,4.88,60.8.59,3.81,4.35,6.69,1.73,12.28-1.98,4.24.26,9.05-1.48,11.82-3.67,5.87-55.13,16.07-57.73-5.9-7.45-62.9,13.29-90.3,27.53-135.43Z"/>
  </g>
  <g class="reflector">
    <path d="m261.47,242.81c-15.81.68-41.79.52-57.2-1-.98,6.42-1.62,13.21-1.83,20.51,14.9,2.02,46.91,2.42,60.98.14.2-6.49-.71-13.23-1.94-19.65Z"/>
    <path d="m244.08,243.18c-.02-23.58,2.31-53.26,6.47-80.48-5.06-2.16-10.48-3.56-15.74-4.66-5.13,27.51-8.24,55.85-9.56,84.93,6.22.17,12.69.24,18.83.21Z"/>
    <path d="m172.99,242.63c5.74.34,11.66.61,17.57.77-.25-10.94,1.08-22.33-.68-34.8-1.92-13.63-3.75-35.31-4.62-50.5-5.63,1.18-12.11,3.27-16.11,4.79.02,13.33,1.41,26.81,3.23,41.38,1.61,12.85.56,27.49.61,38.36Z"/>
    <path d="m204.01,243.55c-14.79.1-30.52-.78-44.14-1.81-1.29,7.23-1.98,14.36-2.11,20.77,15.35,1.48,30.27,2.21,44.63,2.01.12-7.48.7-14.42,1.62-20.97Z"/>
  </g>
  <g class="clothesDisplayLine">
    <path d="m212.75,328c-2.99.89-5.94.95-8.84.1"/>
    <path d="m207.77,306.92c-2.23,10.83-1.18,17.57-.44,21.69"/>
  </g>
  <g class="clothesOverlapLine">
    <path d="m208.92,407.78c1.03-12.6-.19-60.31-.43-79.17"/>
    <path d="m248.73,499.8c-6.7-1.33-16.37-.59-21.27,1.54"/>
    <path d="m247.36,498.32c-7.53-1.72-15.76-.89-21.2,1.18"/>
    <path d="m245.87,496.53c-7.34-1.71-14.91-1.2-20.85,1.02"/>
    <path d="m194.64,499.5c-6.12-1.38-14.37-1.66-19.56-.69"/>
    <path d="m194.78,497.39c-6.04-1.88-13.85-1.88-18.92-.86"/>
    <path d="m194.48,501.85c-5.58-1.53-14.1-2.06-20.26-.96"/>
  </g>
  <g class="clothesFoldLine">
    <path d="m263.98,182.28c.2,7.48,1.66,15.3,4.28,23.45"/>
    <path d="m222.59,182.28c-4.56,4-9.86,6.27-16.47,5.48"/>
    <path d="m195.57,189.77c5.16,2.82,11.6,2.92,18.79,1.41"/>
    <path d="m137.48,185.02c8.79,3.49,16.75,1.03,25.46,1.71"/>
    <path d="m137.48,188.95c4.99,1.59,10.96,2,17.29,2"/>
    <path d="m147.58,208.31c4.48-.27,8.53,1.9,14.16,1.37"/>
    <path d="m163.87,206.77c-2.35.35-4.64.36-6.88,0"/>
    <path d="m214.36,277.97c5.83,3.16,12.99,7.12,15.22,6.68,3.58-.71,7.1-2.53,12.15-4.11"/>
    <path d="m241.73,289.61c-4.69,2.23-9.03,4.74-12.84,7.7"/>
    <path d="m261.41,274.59c-.93,2.09-2.19,4.38-2.39,6.46"/>
    <path d="m158.81,277.96c.92,3.66,3.35,6.03,3.66,9.26"/>
    <path d="m245.82,458.68c-3.81,4.48-6.69,8.98-1.6,13.64"/>
    <path d="m244.6,452.56c-4.81,8.87-22.23,19.63-28.99,13.01"/>
    <path d="m240.05,472.79c-3.69-4.55-11.31-2.84-18.07.12"/>
    <path d="m231.99,481.19c-5.68-4.99-9.95-1.52-13.91,3.78"/>
    <path d="m174.15,476.93c4.65-7.93,10.01-10.41,16.38-2.96"/>
    <path d="m182.86,442.63c-7.76,8.01-13.32,16.35-13.26,25.55"/>
    <path d="m175.97,458.95c10.45-13.94,20.41,4.38,23.4,21.17"/>
    <path d="m205.22,446.81c-.37-3.45-1.17-6.4-2.47-8.79"/>
    <path d="m167.34,450.57c1.64-3.34,2.36-7.47,2.78-11.84"/>
    <path d="m245.85,422.55c-1.81-3.33-8.32,2.75-16.38,11.92"/>
    <path d="m252.11,351.3c-.23,18.7-3.16,26.43-14,34.11"/>
    <path d="m163.65,332.6c.66,29.11,4.05,46.17,22.34,50.1"/>
    <path d="m214.3,329.39c3.82-1.99,9.29-3.14,15.32-4.01"/>
    <path d="m199.94,327.13c-6.71-2.52-14.32-3.64-22.41-4.01"/>
    <path d="m197.64,330.96c-5.15-.88-12.36.82-19.92,2.96"/>
    <path d="m213.92,332.18c6.31.57,13.21,1.54,20.49,2.79"/>
    <path d="m202.81,334.8c-3.49,1.73-6.62,3.7-9.39,5.93"/>
  </g>
  <g class="clothesEdgeLine">
    <path d="m183.39,488.93c.49-3.56.51-7.2,0-10.94"/>
    <path d="m229.27,490.79c-.79-2.39,0-4.4-1.05-6.76"/>
  </g>
  <g class="skinLatino">
    <path d="m351.64,322.45l-12.74-16.78c4.77,4.13,8.22,7.78,11.05,10.7,6.38,8.2,11.47,2.01,8.87.08-4.59-4.34-9.23-10.78-14.25-14.95,5.42,3.59,5.68,5.41,10.16,8.07,7.77,6.93,10.75.47,7.79-1.65-8.46-6.42-14.05-13.97-20.09-20.54,1.66,0,3.85-.08,7.12,1.76,2.83,1.6,7.39.81,6.86-2.97-.68-1.59-5.97-2.95-9.32-5.68-7.25-5.32-16.03-2.87-19.4-6.07-19.07-17.68-24.18-31.68-36.18-45.35-2.61-2.97-1.24-4.07-10.68-19.38-2.77,5.96-16.93,14.8-23.14,14.42,6.84,11.76,11.27,20.27,15.21,27.45,9.46,17.21,24.4,18.05,39.9,32.94,4.42,4.85.43,13.72,12.55,24.52,2.96,3.25,5.18,7.84,9.32,12.71,3.03,3.56,7.68,2.08,6.94-1.32l1.67,1.82c5.05,7.51,9.77,2.4,8.34.23Z"/>
    <path d="m58.61,205.76c14.98,10.82,23.79,21.54,48.9,20.43,8.99-.4,22.46-7.41,36.72-13.38-8.42-5.32-16.42-14.1-19.42-22.18-8.49,3.02-14.97,8.24-17.87,7.7-15.8-2.97-27.14,1.37-41.67-6.99.49-6.49-2.44-8.64-5.03-11.36-3.07-3.21-6.71-4.13-10.72-2.29-5.26-1.64-10.21-2.9-13.6-2.22-3.83.74-4.48,5.25-3.46,7.05-2.63.56-4.14,6.52-1.55,8.25-2.16.65-2.3,7.24.55,7.73-1.3,6.57,3.49,8.11,11.14,6.92,3.31-.52,3.16-5.18,1.7-6.32,3.9-1.46,3.81-6.19,1.7-7.01,1.46-.59,2.45-1.55,3.08-3.34.41,1.22.44,2.98.74,4.32l-2.66,13.54c5.74,1.62,9.79-1.63,11.46-.84Z"/>
    <path d="m219.63,133.37c-.31,13.15,5.28,21.71,7.24,26.04-3.56,9.57-24.72,14.25-36.52,7.57.22-4.89-.31-9.26-1.56-13.14"/>
    <path d="m181.18,163.37c-2.73-4.19-16.19-10.73-13.74-35.82.41-4.25-2.86-5.39.06-13.02,1.44-3.75,4.04-26.32,23-31.11,9-2.27,17.46,2.84,24.52,6.58,7.97,4.42,13.24,12.15,16.99,21.76,2.39,3.37,2.19,8.78-2.15,15.56-2.29,3.58-3.55,6.43-8.2,3.99,1.25,23.97-17.65,29.3-22.07,32.03-6.59,4.07-14.61,5.89-18.42.04Zm4.11-37.59c.84-.12,2.13.17,4.24-.45,2.35-.68,3.96-1.78,6.84-2.21-2.32-1.01-5.5-1.94-7.56-1.46-1.93.45-3.62,1.78-4.42,3.8-.35.88.49.38.9.32Zm-9.06.91c-2.12-1.27-4.04-1.46-5.54-.7s-1.76,1.58-2.18,2.2c-.04.24.06.66.2.84,1.08-.19,1.86.17,2.84-.07,1.3-.33,2.48-1.26,4.11-1.5.4-.06,1.51-.21.58-.77Z"/>
  </g>
  <g class="skinOverlapLine">
    <path d="m333.19,308.59c2.12,4.19,6.15,8.2,8.44,11.8"/>
    <path d="m49.52,177.69c-2.11,1.92-4.33,3.18-6.16,6.59-1.03,2.06-1.61,3.57-3.16,5.46-.94,2.32,3,3.69,5.79,2.35"/>
    <path d="m55.3,184.5c-3.52,3.43-4.98,1.37-6.23,4.24"/>
    <path d="m49.81,193.06c.47,2.16,1.26,3.89,2.48,5"/>
    <path d="m32.46,182.51c2.1.96,8,1.77,10.89,1.77"/>
    <path d="m30.92,190.76c2.3.96,7.67,1.45,10.35,1.33"/>
    <path d="m31.46,198.49c3.17.86,9.87,1.31,12.83.6"/>
  </g>
  <g class="skinFoldLine">
    <path d="m287.08,232.39c-2.56,3.16-5.38,5.78-8.71,7.32"/>
    <path d="m109.61,201.39c1.1,4.65,1.81,8.78,1.52,11.62"/>
    <path d="m345.2,300.53c-.46.79-.99,1.53-1.54,1.67"/>
    <path d="m339.5,304.93c-.29.5-.82.98-1.38,1.17"/>
    <path d="m222.71,116.61c.73-11.04,13-4.67,7.13,6.1"/>
    <path d="m223.18,118.21c3.33,1.01-1.07,6.73.81,7.26,1.63.46.58-1.98,2.88-3.85,3.38-2.76.79-7.58-1.49-5.68"/>
  </g>
  <g class="skinCreaseLine">
    <path d="m340.53,292.16c-5.68,1.41-10.93.14-15.7-4.23"/>
    <path d="m337.69,298.7c-4.03-1.84-8.06-1.07-12.08,2.85"/>
    <path d="m326.77,277.55c-4.37,2.88-3.87,6.15-7.05,7.05"/>
    <path d="m63.88,195.15c-1.07,4.36-3.22,4.52-3.86,7.23"/>
  </g>
  <path class="lipMaleBrown__noStroke" d="m180.88,149.09c1.41.13,2.91-.01,4.4-.78,2.4-.17,6.12-2.65,9.76-2.7-3.64,2.57-3.73,8.13-9.5,9.06-7.13,1.16-6.55-4.48-8.72-5.46,1.14-.49,2.94.42,4.05-.13Z"/>
  <path class="lipBorderLine" d="m176.19,149.23c1.82-.32,3.56,1.28,7.4.61,4.89-.85,7.56-3.59,12.23-4.37"/>
  <g class="lipEdgeLine">
    <path d="m191.17,150.99c-2.22,3.72-8.85,5.43-11.82,2"/>
    <path d="m185.28,148.31c-1.49.77-3,.9-4.4.78"/>
  </g>
  <g class="cheekLine">
    <path d="m196.94,143.52c-.86-1.74-2.57-2.34-4.59-3.27s-2.66-2.24-4.43-2.45"/>
    <path d="m175.13,146.91c.24-1.19.58-2.17,1.01-2.92"/>
  </g>
  <g class="noseLine">
    <path d="m187.92,137.8c1.54.63,2.56,2.94.97,4.69"/>
    <path d="m178.22,131.7c-1.38,5.27-6.23,12.47.75,13.55,3.63.56,4.66-3.43,7.23-2.91"/>
  </g>
  <path class="eyeLidLine" d="m168.7,129.03s-.88,0-.57,1.35"/>
  <g class="eyeFoldLine">
    <path d="m169.71,133.02c1.47,1.04,3.86.79,6.24-.79"/>
    <path d="m187.39,129.52c2.4,1.33,5.23.57,7.24-1.33"/>
  </g>
  <g class="eyeCornerLine">
    <path d="m199.55,123.85c-1.02-.03-2.16-.32-3.19-.73"/>
    <path d="m168.5,128.19c-.25.3-.5.47-.75.45"/>
  </g>
  <g class="eyeCreaseLine">
    <path d="m184.43,122.92c.67-3.47,5.94-4.49,10.64-2.27"/>
    <path d="m167.96,125.93c1.91-2.74,3.71-2.94,6.24-2.11"/>
  </g>
  <g class="eyebrowLightGray">
    <path d="m179.19,115.44c.57,3.72,6.24,1.43,8.89.75,8.55-2.21,11.32,1.55,11.49-.31-10.19-6.35-16.84-.31-20.38-.44Z"/>
    <path d="m173.36,116.79c-2.53.72-4.29.5-6.89,1.22-.23,1.22-.24,2.21-.15,3.08,3.29-.44,7.94-1.36,7.04-4.29Z"/>
  </g>
  <path class="hairLightGray" d="m213.63,116.98c2.82-.68,4.99-1.71,6.47-3.11.76-6.52,8.45-8.05,11.91-2.12-.14-14.47-8.89-21.84-16.99-21.76.89.49,1.71,1.02,2.5,1.55-2.42,3.72-8.34,7.61-13.13,11.29,3.1,7.83,8.83,3.98,9.25,14.14Z"/>
  <path class="visor" d="m226.6,108.06c-9.6-14.91-31.12-26.83-44.04-22.8-3.77,1.18-7.1,6.32-11.3,10.09,35.86-1.76,37.64,10.17,50.05,15.22,1.23-1.81,3.06-2.53,5.29-2.51Z"/>
  <path class="visorBillTop" d="m167.97,112.98c-12.66-.15-21.94-11.54-16.54-17.89,5.37-6.32,10.16.71,28.34-1.04,19.53-1.88,29.32,9.09,36.89,14.06-16.01,4.78-30.27,3.47-44.35-7.5-1.71,3.55-3.12,7.77-4.34,12.38Z"/>
  <path class="visorBillBottom" d="m172.31,100.6c-7.83-7.14-19.07-8.97-20.76-2.15s7.64,13.77,16.42,14.53c1.29-4.74,2.69-9.08,4.34-12.38Z"/>
</svg>