<svg viewBox="0 0 171.69 418.34">
  <g class="soleWhite">
    <path d="m68.03,383.53l-51-17.04c-2.06,2.17-3.84,5.48-3.73,7.64,4.88,9.33,13.35,9.77,24.57,14.06,10.27,3.94,20.29,8.25,28.65,7.49,6.81-.62,8.03-8.57,1.52-12.15Z"/>
    <path d="m27.27,401.84c4.63,8.82,24.36,10.36,40.35,10.03,2.09-7.72,22.93-13.62,23.37-.73.13,3.92-3.48,6.3-11.38,6.77-10.45.61-21.26-.59-30.95-.82-8.67-.2-16.27-1.8-21.05-5.89-1.65-1.54-1.43-6.28-.33-9.37Z"/>
  </g>
  <g class="willyShoe">
    <path d="m61.96,391.01c1.84.54,6.29-4.67,6.08-7.49-6.94-3.75-11.52-9.35-14.03-16.57-15.39-5.5-31.04-12.76-36.97-.47,5.1,10.63,29.25,21.51,44.92,24.52Z"/>
    <path d="m67.62,411.88c1.63-6.01,14.63-10.92,20.5-6.71-4.36-3.52-11.96-4.45-13.36-5.06-8.59-3.36-15.04-8.88-20.01-15.89l-23.77.38c-1.76,6.15-3.14,12.01-3.71,17.24,4.63,8.82,24.36,10.36,40.35,10.03Z"/>
  </g>
  <path class="shoelace" d="m61.11,391.54c-3.51-.39-7.97.37-11.33,1.98,4.5,4.01,9.51,7.19,15.18,9.27,2.34-1.74,6.04-2.93,9.8-2.68-5.32-2.08-9.81-4.99-13.65-8.56h0Z"/>
  <g class="willyPants">
    <path d="m59.2,358.22c1.07-5.43,8.52-6.8,7.79-17.01-.9-12.64,16.03-24.52,15.38-49.31-.25-9.8,9.23-16.66,8.14-34.92-1.22-20.48-6.88-26.23-7.06-39.62,2.35-3.62-.54-5.07-1.45-8.69-28.93-4.08-51.74,145.47-22.81,149.55Z"/>
    <path d="m82.01,208.67c-.13,24.9-16.32,65.11-13.7,77.31.97,4.52-4.15,9.24-2.79,14.36,2.18,8.14-.02,12.7.39,20.09.32,5.72-10.65,20.6-6.72,33.79,2.35,5.07,1.98,8.2,3.8,12.31,4.95,11.19-16.47,7.24-5.25,21.17-5.97-.36-12.49,9.95-30.77,7.96,1.71-4.49,3.23-7.64-.54-7.42-9.41.54-9.95-5.97-3.8-14.48,3.71-5.13-13.57-17.01-3.98-54.29,3.19-12.4-.3-26.14-.72-41.7-.38-13.97-4.9-18.46-3.62-29.65,1.24-10.79-6.15-9.41-6.7-24.07-.41-11.18-6.7-14.84-1.63-32.58-2.9-4.34,2.53-4.61,2.71-7.5l73.48,20.27c.67.36.87,1.79-.18,4.42Z"/>
  </g>
  <path class="willyShirt" d="m95.98,131.18c1.76,7.74,9.75,18.86,5.91,38.57-2.74,14.06-3.45,19.81-9.43,24.52-2.52,1.99-.44,4.07-7.96,8.91-15.66,10.07-67.12,7.24-77.27-20.51-.85-2.31,1.69-2.47,1.43-6.36-2.6-5.71,2.21-5.45,1.3-9.92-2.63-4.96-.12-11.49-.65-16.17-2.31-20.64-4.28-53.49,13.95-81.35,9.67-11.59,94.03-1.32,72.73,62.3Z"/>
  <g class="clothesOverlapLine">
    <path d="m84.63,99.2c-2.16-3.09-4.75-7.73-8.31-11.34"/>
    <path d="m56.08,111.79c6.77,5.91,17.36,41.05,12.78,43.84"/>
    <path d="m21.51,118.19c-.26,15.69,6.88,27.75,8.53,34.57,2.78,11.52,5.23,13.64,7.98,12.91"/>
    <path d="m62.27,401.7c2.41-1.7,5.54-2.64,9.23-3.01"/>
    <path d="m59.4,400.29c3.17-1.55,6.33-2.54,9.5-2.97"/>
    <path d="m56.82,398.81c2.98-1.34,6.33-2.25,10.07-2.74"/>
    <path d="m54.57,397.32c2.92-1.56,6.43-2.33,10.19-2.73"/>
    <path d="m52.09,395.46c2.74-1.57,6.49-2.21,10.66-2.47"/>
  </g>
  <g class="clothesFoldLine">
    <path d="m64.34,78.88c6.96,12.37,10.08,19.61,12.38,31.65"/>
    <path d="m76.44,95.87c3.12,8.76,5.1,16.54,5.21,22.69"/>
    <path d="m49.24,95.88c7.5,1.8,14.04,5.87,20.01,11.28"/>
    <path d="m54.59,104.76c5.49,3.64,8.39,9.45,9.16,17.05"/>
    <path d="m45.15,110.26c5.03,1.52,9.16,5.29,12.68,10.57"/>
    <path d="m48.25,130.55c3.5,8.45,8.52,15.41,16.07,19.87"/>
    <path d="m33.03,134.08c1.41,8.46,2.06,15.86-.14,19.31"/>
    <path d="m27.81,113.64c-2.04,4.32-3.58,8.84-3.24,14.09"/>
    <path d="m12.73,165.3c8.99,15.67,23.97,21.83,39.41,21.39"/>
    <path d="m39.73,188.86c4.36,1.21,10.4,1.69,15.73,1.36"/>
    <path d="m67.02,135.86c3.24,1.79,6.18,2.45,9.42,2.73"/>
    <path d="m68.78,142.8c1.83-.39,4.28.15,6.82,0"/>
    <path d="m9.95,166.4c2.64,5.81,5.67,10.42,9.4,12.83"/>
    <path d="m11.32,176.27c2.87,5.8,6.63,10.69,11.98,13.95"/>
    <path d="m8.66,176.32c1.1,5.19,3.36,9.29,7.04,12.07"/>
    <path d="m91.39,118.97c1.98,3.97.81,9.65-3.65,13.1"/>
    <path d="m95.98,131.18c-.59,1.61-1.25,3-2.04,3.98"/>
    <path d="m82.01,208.67c-.99,1.22-2.76,1.64-4.94,1.65"/>
    <path d="m5.99,191.48c1.06,1.15,2.42,2.2,4.07,3.15"/>
    <path d="m7.64,212.43c4.37-2.72,7.54-5.73,4.22,2.56"/>
    <path d="m14.88,215.6c-2.72,6.55-4.83,12.94-1.36,17.8"/>
    <path d="m75.9,226.91c-2.05,3.13-3.88,7.05-5.58,11.46"/>
    <path d="m76.05,221.93c-3,1.52-5.8,3.56-8.45,6.03"/>
    <path d="m74.24,216.95c-3.85-.01-9.5.74-15.54,1.66"/>
    <path d="m52.14,227.51c-5.99-6.31-11.83-8.25-17.35-1.51"/>
    <path d="m24.24,236.11c-3.53,7.06-8.09,14.24-5.88,20.67"/>
    <path d="m49.13,242.18c1.13,8.68,6.23,16.39,10.09,22.33"/>
    <path d="m60.22,276.87c-7.99-28.21-18.18-29.11-29.79-4.37"/>
    <path d="m76.32,250.55c2.72,9.5,12.52,15.99-2.72,22.93"/>
    <path d="m57.01,295.84c5.28,6.18,7.2,13.93-4.83,15.12"/>
    <path d="m29.67,310.83c7.22,1.24,9.35,8.6,3.92,14.78"/>
    <path d="m40.83,321.24c1.06-8.6,7.88-7.41,16.93-7.41"/>
    <path d="m37.36,327.27c-13.12,15.39-3.69,27.59,19.61,37.26"/>
    <path d="m29.21,353.82c6.03,7.09,3.32,10.11-.91,15.08"/>
    <path d="m80.09,274.69c-4.97,1.27-7.94,3.8-12.07,8.03"/>
    <path d="m77.76,282.94c-3.47,6.19-5.48,11.17-10.45,14.03"/>
    <path d="m75.11,293.05c-3.65,3.97-6.64,10.53-8.53,16.08"/>
    <path d="m28.91,382.33c-3.56.93-6.91,1.64-6.79-.75.15-2.87,5.58-2.87,12.82-7.99,9.29-6.57,23.31-5.81,22.78-2.27s-17.2,3.62-21.57,9.35"/>
    <path d="m48.37,381.27c-4.98,1.36-14.45,4.5-13.27,5.88,1.39,1.63,9.29-1.56,12.82-.45"/>
    <path d="m92.46,194.28c-3.95,2.51-7.67,3.75-13.54,4.43"/>
  </g>
  <g class="eye">
    <circle class="sclera" cx="53.89" cy="32.04" r="17.67"/>
    <g class="irisBrown">
      <ellipse cx="52.26" cy="38.31" rx="2.79" ry="3.6" transform="translate(-9.24 17.89) rotate(-17.88)"/>
      <ellipse cx="68.51" cy="29.92" rx="2.47" ry="3.6" transform="translate(-5.88 22.47) rotate(-17.88)"/>
    </g>
    <g class="pupil">
      <ellipse cx="52.77" cy="38.15" rx="1.09" ry="1.4" transform="translate(-9.16 18.04) rotate(-17.88)"/>
      <ellipse cx="68.86" cy="29.8" rx="1.09" ry="1.4" transform="translate(-5.82 22.58) rotate(-17.88)"/>
    </g>
  </g>
  <g class="skinLatino">
    <path d="m122.67,184.14c-26,9.35-44.07,15.49-64.41,12.59-5.11-.73-15.2-17.67-20.24-31.05,7.89-.44,25.15-6.54,30.85-10.05,1.38,5.17,3.48,10.03,3.9,14.73,14.75-2.63,25.39,3.5,45.4-2.49,1.59-3.81,6.89-6.91,11.41-10.55,5.2-4.19,13.59-4.86,19.02-7.33,3.85-1.14,4.16,6.11-3.6,7.31-1.35.93-1.47.96-2.06,1.08,7.09-.09,12.89-1.65,20.62-2.36,4.98-.45,6.07,4.38,2.58,5.84,5.91-1.09,7.3,5.05,2.02,6.4,3.4,1.38,3.68,6.06-5.73,7.36,3.26.9,3.14,4.8-1.26,5.69-6.53,1.33-10.21,2.42-17.02,3.99-14.49,2.81-17.18-2.25-21.48-1.14Z"/>
    <path d="m12.18,17.04c6.18-7.05,8.33-12.85,17.14-15.83,12.01-4.06,21.19,5.66,32.3,10.71,12.19,5.54,9.68,13.5,10.66,15.91,2.19,5.45,8.26,6.36,8.34,23.34,1.7,17.01-40.22,36.42-56.64,9.98-4.39,4.14-5.8-.09-9.46-1.58-5.29-2.16-10.97-11.27-7.33-16.02-.55-8.17-.49-18.67,4.98-26.51Zm43.9,18.02c-5.81-2.77-9.97,2.89-11.06,4.65,2.23-.67,4.46.27,7.39-1.35,1.57-.86,1.56-1.31,3.18-2.27.36-.21,1.33-.63.48-1.03Zm8.24-3.61c1.45-.98,3.99-.47,5.86-3.07-.06-.88-.69-2.11-1.35-2.54-1.19.22-3.8.91-5.49,5.57-.18.49.41.42.97.04Z"/>
    <path d="m54.15,72.94c3.77,3.67,7.5,5.48,8.23,11.35-16.01,1.77-29.69,1.83-36.93-10.74-1.27-2.21.94-3.45,1.93-8.65"/>
  </g>
  <path class="lipMaleBrown__noStroke" d="m66.93,53.79c1.61-.47,2.8-1.26,4.16-2.71.89-1.07,1.56-2.65,2.21-2.49-1.16,3.64,2.96,11.08-3.12,14.44-7.05,3.9-10.32-3.88-14.01-4.74,2.06-3.73,7.89-2.58,10.75-4.5Z"/>
  <path class="mouthInner" d="m71.13,55.06c.9-1.07,1.03-2.69.84-4.23-.53.92-1.27,1.9-2.68,2.74-5.07,3.02-10.04,1.51-12.78,4.48,8.23,3.67,14.66,2.12,14.62-3Z"/>
  <path class="teeth" d="m69.29,53.58c-4.52,2.69-8.96,1.79-11.81,3.66,2.54,2.18,10.54,1.08,13.74-2.29.82-1.07.93-2.63.75-4.11-.53.92-1.27,1.9-2.68,2.74Z"/>
  <g class="lipOverlapLine">
    <path d="m56.51,58.06c-.22.24-.43.51-.62.81"/>
    <path d="m73.93,48.06c-.95.52-1.28,1.6-1.96,2.78"/>
  </g>
  <g class="lipEdgeLine">
    <path d="m73.48,56.62c.78,6.43-6.97,8.95-10.22,6.43"/>
    <path d="m71.09,51.08c-1.36,1.46-2.55,2.24-4.16,2.71"/>
  </g>
  <path class="smileLine" d="m43.11,43.6c-1.49.63-2.89,1.48-4.19,2.54"/>
  <g class="cheekLine">
    <path d="m51.36,58.65c5.26-3.71,6.66-10.02,7.89-11.79"/>
    <path d="m75.05,44.97c-.54-1.31-1.65-1.74-2.54-2.58"/>
  </g>
  <path class="noseLine" d="m66.81,36.57c1.51,2.16,7.95,5.14,5.22,8.41-.44,1.37-1,2.27-2.48,3.11-3.15,1.77-4.01.22-6.25,1.82-2.16,1.51-4.89-.82-4.05-3.04"/>
  <g class="eyeFoldLine">
    <path d="m71.66,30.38c-.15,2.03-2.39,3.69-4.2,3.92"/>
    <path d="m55.74,40.11c-1.04,2.24-4.75,3.92-7.64,3.08"/>
  </g>
  <g class="eyeCornerLine">
    <path d="m42.31,42.08c1.06-.25,2.08-1.39,2.71-2.38"/>
    <path d="m68.84,25.84c.6-.11,1.19-.08,1.51.09"/>
    <path d="m70.19,28.38c.31-.36.45-.46.58-1.05"/>
  </g>
  <g class="eyeCreaseLine">
    <path d="m54.61,33.46c-3.97-1.68-9.76,2.46-10.76,5.28"/>
    <path d="m69.56,24.77c-3.71-.83-6.16,2.63-7.22,5.21"/>
  </g>
  <g class="eyebrowLightGray">
    <path d="m54.39,24.45c1.11,3.54-5.53,2.93-9.07,4.96-8.26,4.73-6.59,6.57-8.16,5.92,4.53-10.45,11.01-9.19,17.22-10.88Z"/>
    <path d="m60.02,21.79c1.4,3.7,3.56-2.79,10.45-2.34-.44-.86-1.06-1.78-1.83-2.65-5.58,1.07-6.2,3.54-8.63,4.99Z"/>
  </g>
  <path class="hairLightGray" d="m55.04,63.66c-2.37-5.42,2.29-8.83,8.03-9.74,5.08-.8,6.27-2.03,7.98-3.75.93-.93,4.18-9.02,5.42,3.54.53,5.36-2.32,13.18-4.09,8.97-.84.7-1.58,1.23-2.53,1.49.09,5.85-11.81,6.38-14.82-.5ZM7.19,43.55c1.27-2.6,5.7-3.51,8.17-1.43,9.38,5.43,9.02,19.11,10.53,23.65,3.4,10.28,11.32,11.23,14.55,15.19.63-.99.69-3.32.16-4.75,6.88,4.5,11.58,2.46,17.29,7.22-.13-1.69-.53-3.33-1.38-4.94,5.26,2.44,10.96-1.31,17.87,3.93,3.86-5.19,4.23-10.31,4.4-16.09.85,1.67,1.82,2.67,3.34,3.01-2.06-4.55,1.52-9.37-1.5-18.18-.56,2.94-1.35,3.96-2.64,5.08-.96-1.27-.82-8.01-3.26-11.85-1.24-1.96-4.1,4.25-6.64,5.09-6,2-11.17,1.22-14.25,7.47-2.25,4.55-.54,6.24-1.65,13.44-5.67.35-11.71-2.41-16.54-5.75.76-.05,4.09-.49,4.9-1.49-9.03-2.93-13.23-8.96-15.69-16.9-2.82-9.1,5.42-20.32-14.89-23.11.41-2.2,1.48-4.89,2.22-6.1-3.72,2.47-5.53,2.13-7.99,8.03-2.33,5.57-1.13,8.5-3.62,11.56,2.03-.15,3.88-1.14,5.28-3.18-1.1,2.89-1.16,8.14,1.35,10.1Z"/>
  <g class="hairFoldLine">
    <path d="m9.96,23.14c-.48-.08-.96-.15-1.37-.12"/>
    <path d="m52.18,70.4c-.18.97-.37,2.11-.81,2.66"/>
    <path d="m77.98,56.26c.19.53.8,1.53,1.38,1.92"/>
  </g>
  <path class="skinLatino" d="m70.48,79.5c-1.03-1.67-4.29-2.82-7.24-5.13-3.08-2.05-1.41-5.96,1.73-5.32-2.43-3.33,2.11-11.79,4.16-12.94,2.95-1.66,9.29,1.54,11.34.83,2.18-.7,3.79,1.53,5.74,1.6,6.82.26,5.58,5.24,7.33,5.89,4.29,1.6,2.59,4.58,3.72,5.45,4.23,3.27,2.37,9.03,3.3,10.09,6.71,11.62,28.34,27.54,18.33,49.47-1.37,3-3.35,5.07-6.01,4.81-10.52-1.06-19.96-7.79-21.68-24.79-1.17-2.21-4.82-8.04-6.56-10.27.85-.91,3.94-1.66,5.21-2.26-.4-2.96-1.52-5.39-3.16-8.02-1.1-1.6-9.55,1.99-16.21-9.42Zm2.3-15.89c-.8,1.16-1.58,2.11-2.44,2.57.46.54.57.93.54,1.48,1.59-1.24,3.36-2.18,5.1-3.12-1.36-.12-2.14-.4-3.2-.94Z"/>
  <g class="skinOverlapLine">
    <path d="m89.84,96.93c.77,3.23,1.03,10.11,1.35,12.53"/>
    <path d="m72.77,170.35c-1.94.6-3.35,2.15-4.04,4.97"/>
    <path d="m142.94,158.36c-2.26,0-5.14.16-7.05-.42"/>
    <path d="m166.14,161.85c-5.25,1.04-11.26,1.93-16.95,2.97-.69.13-1.4-.13-1.79-.66"/>
    <path d="m168.16,168.25c-3.46.61-15.71,2.58-18.53,3.09"/>
    <path d="m162.43,175.61c-2.2.2-9.81,1.47-11.41,1.76-.98.17-1.55.56-1.79,1.5"/>
    <path d="m87.67,78.04c.15,2.18-3.98,4.41-.98,10.87"/>
    <path d="m87.62,70c-3.42,1.88-8.59,3.76-8.14,6.4.81,4.77,1.68,5.93,6.31,6.53"/>
    <path d="m83.94,66.23c-4.04,2.19-8.86,3.86-9.67,6.23-.36,1.17.73,5.9,1.77,6.93,1.52,1.5,3.32,2.57,5.1,1.77"/>
    <path d="m78.47,63.4c-.89.36-1.73.74-2.49,1.14"/>
    <path d="m70.88,67.66c-2.58,1.7-1.58,4.98.76,8.89,1.33,2.23,2.77,3.38,4.4,2.83"/>
    <path d="m64.97,69.05c1.51,1.83,1.51,5.52,4.9,3.94"/>
  </g>
  <g class="skinFoldLine">
    <path d="m87.67,78.04c-.62.74-2.54,1.21-3.26.8"/>
    <path d="m91.81,79.53c-1.38.66-3.87-.07-4.14-1.49.84-.77,1.03-2.12.84-3.28"/>
    <path d="m73.61,60.83c-.03.97-.28,1.89-.83,2.77"/>
    <path d="m16.14,47.19c-7.3-9.5-13.46,5.78-.07,10.11"/>
    <path d="m17.25,49.4c-1.66,2.63,3.95,4.92,2.45,6.41-1.2,1.19-1.2-1.52-4.48-1.96-3.63-.49-4.27-5.34-1.32-5.42"/>
    <path d="m15.36,42.13c.3.37,1.03,1.37,1.25,2"/>
  </g>
  <path class="skinCreaseLine" d="m98.87,84.64c-1.8,3.03-4.65,4.81-9.82,3.81"/>
</svg>