<svg id="presence" xmlns="http://www.w3.org/2000/svg" viewBox="0 0 2636.57 2453.04">
  <defs>
    <style>
      .cls-1 {
        fill: none;
        stroke: #000;
        stroke-miterlimit: 10;
        stroke-width: 2px;
      }
    </style>
  </defs>
  <title>present</title>
  <g id="bennett">
    <path id="skinEastAsian" class="cls-1" d="M442.92,1254.23s-25,295.28,10.44,406.93c58.08,182.77,231.63,349.53,234.58,444.23-9,52-6,112.4-11.31,170.23-4.19,45.36-39.29,82.81-16,109,2.61,18.44,2.61,34.73,20,31.89.1,10.69,8.92,14.25,17.55,11.83-1.76,11.53,12.12,19.37,23.38,13.58,11.67,13.63,39.5,14.31,56.17-3.21,58.94-61.94,30.92-167.79,74.64-251.19,8.73,1.61,15.51-3.81,20.86-14.45,9.6.17,15-7.7,17.66-20.86,15.74-9.37,19.26-28.49,12.15-53.23-10.25-35.71.74-83.11,1.54-139.39.32-22.16,8.2-42.17,8.87-67.7.72-27.61,19.1-46.27,39-63,113.54-95.4,190.62-199.51,193.53-296.28-7.43-108.21-35.6-214.21-59.66-341.32l-245.58,76.31c34.68,81.86,65.21,192.86,112.38,284.43-98.45,103-67.93,220.59-129.73,266.9-108,39.54-56.58,95.19-61.9,162.65-46.16-117.16-44.61-270.42-133.25-365-19.47-20.77,44.14-161,76.28-339.68Z"/>
    <g id="skinOverlapLine">
      <path class="cls-1" d="M761.53,1981.62c12.4,45.21,35.28,63.61,45,90.46,14.54,40,53.77,66.72,45.85,115.46"/>
      <path class="cls-1" d="M668.25,2354.17c-1.59,12.76-7.57,16.35-7.57,30.47"/>
      <path class="cls-1" d="M680.68,2416.53c-9.24-31.66,1.93-37.64,3.92-52.79"/>
      <path class="cls-1" d="M698.23,2428.36c-3.66-33.92,7.1-30.73,10.69-57.44"/>
      <path class="cls-1" d="M721.61,2441.94c-9.5-16,15.22-36.34,22-65.44"/>
      <path class="cls-1" d="M873.28,2173.09c4.69-19.47-8.47-23.06-6.87-43.39"/>
      <path class="cls-1" d="M890.94,2152.23c3.78-18.94-5.79-23.73-7.78-36.88"/>
    </g>
    <path id="skinDisplayLine" class="cls-1" d="M734.71,2413.06c10.5-1.69,20.95.2,31.35,5.08-3,17.21-21.61,29.24-40.25,18.65"/>
    <path id="bennettUnderwear" class="cls-1" d="M480.35,963.77c-32.94,57.24-30.7,106.18-34.74,158.44-4.15,53.51-11.06,107.38-10.85,151.8,19,12.65,253.91,39.76,302.71,12.65,4.45-28.94,13.28-55.7,29.81-78.61,14.37,19.21,27.37,47.37,39.76,79.52,44.28,8.13,276.5-58.74,289.15-75-1.68-32-9.43-59.61-17.17-82.23-8.61-25.16-12.11-65.67-25.3-94-14.53-31.19-8.7-94.44-42.45-105.53Z"/>
    <path id="bennettWaistband" class="cls-1" d="M996.34,870.45c-.08,19.69,9.14,35.3,14.93,60.39C981,933,957.72,947,923.62,949.2c-42.07,2.72-79.37,14.31-121.47,14.25-46.39-.06-107.53,11.67-162.86,9.5-69.22-2.71-101.94,7.11-158.94-9.18.95-26.8,7.4-31.64,8.14-61.75C614,922.38,872.83,903.7,996.34,870.45Z"/>
    <g id="clothesDisplayLine">
      <path class="cls-1" d="M745.51,966.94c-9.42,23.48,2.53,51.14-1.21,84.75-3,26.85,14.2,50,9,86.64-4.21,29.43,10.45,43.32,14,69.72"/>
    </g>
    <g id="clothesOverlapLine">
      <path class="cls-1" d="M851,1204c-56.44-1-114.44,5.83-173.8,19.48"/>
    </g>
    <g id="clothesFoldLine">
      <path class="cls-1" d="M989.32,1057.56c-65.05,16.44-123.75,37.53-174.15,64.73"/>
      <path class="cls-1" d="M1032,1091.22c-49.75,6.3-96.4,16.5-138.53,32.37"/>
      <path class="cls-1" d="M712.89,1137.18q-101.31-20.55-194.21-23.3"/>
      <path class="cls-1" d="M861.79,1258.89C839.23,1246.2,818,1236.75,799,1233"/>
      <path class="cls-1" d="M735.55,1234.29c-20.48,5.39-40.77,17-60.85,36.25"/>
      <path class="cls-1" d="M964.51,941.26c9.36,9.51,13.86,26.23,15.92,46.56"/>
      <path class="cls-1" d="M991,934c9.86,9.56,13.56,19.4,16.28,29.11"/>
      <path class="cls-1" d="M764.24,965.27c-1.9,14.22,3,37.2,6.44,59.49"/>
      <path class="cls-1" d="M722.44,970.24a52.24,52.24,0,0,0-1.84,29.48"/>
      <path class="cls-1" d="M518.68,971.6c-11.51,15.58-14.24,43.08-22.79,62.62"/>
      <path class="cls-1" d="M494.36,967.37c-7.9,9.83-11.82,21.7-11.9,35.54"/>
    </g>
    <path id="bennettUndershirt" class="cls-1" d="M777.63,64.64c96.32.07,141.52-77.71,214.51-14.16,33.14,28.84,71,57.42,71,88.86,21.84-.05,22.07,26.28,63.07,58.87C1100,220.28,1007.45,297,983.27,329.6c-1,85.15,4.46,195.06-5.26,252.28-3.47,20.47,16.67,19.5,0,32.58,14.88,60.48-1,133.5,25.23,221.8-94.6,38.89-174.68,35.38-262.79,42s-229.15,15.77-265.94-4.2c-2.1-58.87,1.05-126.14-13.66-199.72-22.06-7.28,9.46-27.33-1.05-62-17.87-9.46-3.46-16.88-4.21-31.53-3.15-62,2.1-135.6,4.21-221.8-41.12-20.53-84.41-38.14-129.3-53.6,29.44-82,44.15-209.18,111.43-235.46,28.87-11.28,85.14,2.2,150.87-4.33"/>
    <g id="clothesOverlapLine-2" data-name="clothesOverlapLine">
      <path class="cls-1" d="M977.47,274.06c3,24,6.68,37.75,5.8,55.54"/>
      <path class="cls-1" d="M459.8,359c.79-35.77,5.38-63,11.52-87.56"/>
    </g>
    <g id="clothesFoldLine-2" data-name="clothesFoldLine">
      <path class="cls-1" d="M460.85,674.38c24.21,4.68,48.11,4.79,71.83,2.12"/>
      <path class="cls-1" d="M474.73,655.58c4.47,5.7,23.37,5.86,44,5.36"/>
      <path class="cls-1" d="M459.8,612.36c11.24,6.13,25.61,7.84,41.22,7.8"/>
      <path class="cls-1" d="M978,614.46c-8.54,5.81-20.67,9.61-37,11.07"/>
      <path class="cls-1" d="M960.34,601.38a224.77,224.77,0,0,1-77.8,14"/>
      <path class="cls-1" d="M368,222.55c6.34,12.73,10.5,27.87,11.8,46.15"/>
      <path class="cls-1" d="M413.56,203.23c14.49,35.42,36.13,68.08,44.54,61.71,7.63-5.78-23.08-48.29-27.91-123.95"/>
      <path class="cls-1" d="M459.71,203.23c2.14,25.76,5.36,45.61,14.48,60.64"/>
      <path class="cls-1" d="M528.92,193.57c20.22,20.92,49.67,37.23,84.25,51"/>
      <path class="cls-1" d="M518.19,223.62c29.6,29.93,64,54.74,102.49,75.12"/>
      <path class="cls-1" d="M844.44,160.3c-42.91,36.55-87.8,64.7-135.22,82.1"/>
      <path class="cls-1" d="M875,157.62C834.78,208.06,792.5,262,743.56,290.16"/>
      <path class="cls-1" d="M931.9,170c2.69,63.86,39.17,73,6.44,95.52"/>
      <path class="cls-1" d="M958.2,179.09c-2.3,20.6-.83,39.86,7,56.87"/>
      <path class="cls-1" d="M992.54,110.94c.53,92.83-27.48,142-20.39,150.24,16.63,19.32,22-48.53,29-93.36"/>
    </g>
    <g id="skinEastAsian-2" data-name="skinEastAsian">
      <path class="cls-1" d="M777.63,6V64.64c39.08,28.55-28.63,95.38-76,101-35.18,4.18-126.3-19.22-108.81-100L591.3,0"/>
      <path class="cls-1" d="M.59,404.61c107.2,77.58,198.41,195.77,311.72,208,54.45,5.9,98.74-126.24,151.64-223.57,31-66.17-16.27-93.08-125.54-88.86-22.82,51-42.88,99.44-55,140.35-64.18-35.26-126.24-12.7-246.14-112.84"/>
      <path class="cls-1" d="M1384.27,118.1C1325.67,225.74,1263.48,258,1192.92,325c-25.19-39.83-53.21-77.15-82.39-113.62-28,23.49-75.38,63.84-105.43,94,57.87,94.83,151,198.15,203.37,187.68,131.55-37.66,155.47-195.53,241.58-330.67"/>
    </g>
    <g id="skinFoldLine">
      <path class="cls-1" d="M283.4,440.58c18.33,16.13,31.75,32.39,33.54,49"/>
    </g>
  </g>
  <g id="father">
    <path id="fatherChineseShirtInner" class="cls-1" d="M1151.35,525.72c137.55,19.21,91.87-79.93-43.23-85.77C1111,469.11,1130.47,522.57,1151.35,525.72Z"/>
    <path id="ghostTail" class="cls-1" d="M1443.64,710c-13.79,36.35-53,19.84-37.05,65.27-125.58,202.23-25.78,427.55,116.13,649.53,7,11-16.77,28.14,6.75,45.91-17.86-1.64-20.47,25.82-10.19,33.68-58.33,119,30,232.72-53.1,352.61-116.73,225.06,160.13,278.94,135.24,443.87C1768,2182.31,1680,2029.5,1696,1983.07c17.87-8.83,23.94-20.23,17.42-38.17,31.4-23.4,8.22-43,18.26-60.56,79.43-139.09,168-195.1,190.66-366.31,19.68-163,6.12-346.28-14.88-552.62-.93-9.13,23.4-28.32,0-42.38C1913.39,731.62,1703.54,511.28,1443.64,710Z"/>
    <g id="clothesCreaseLine">
      <path class="cls-1" d="M1815.9,1060.13c-85-19.91-176.52-31.89-270.57-39.32"/>
      <path class="cls-1" d="M1866.69,1099.84A1172.37,1172.37,0,0,0,1682,1065.52"/>
      <path class="cls-1" d="M1813.13,1267c-48.87-9.49-101.48-15.15-156.07-17.31"/>
      <path class="cls-1" d="M1851,1301.15c-40.56-10.32-98.79-17.6-133.9-18.47"/>
    </g>
    <g id="clothesFoldLine-3" data-name="clothesFoldLine">
      <path class="cls-1" d="M1519.28,1504.35c6.93,7,15.62,12.81,25.15,18"/>
      <path class="cls-1" d="M1529.47,1470.67c9,6.34,19.88,11.17,31.66,15.27"/>
      <path class="cls-1" d="M1713.42,1944.9c-22.76,15.2-91.57,14.52-108.52,2"/>
      <path class="cls-1" d="M1696,1983.07c-19.92,8.21-41.27,9.57-63.65,5.84"/>
      <path class="cls-1" d="M1907.5,923a297.43,297.43,0,0,0-57.85-21.47"/>
    </g>
    <path id="fatherChineseShirt" class="cls-1" d="M1935.12,168.61c22.27-38,83.48,34.32,149.58-17.65,2.54,26.93-12.3,41.77-12.78,69.84,106.23,54.1,175.09,137.71,168.2,204.6,10.94,22.29,15.77,44.92,14.76,67.87,46.23,26.56,34.23,81.64,47.21,103.29s21.64,7.86,17.71,35.41c4.92,25.57,42.3-20.66,73.77,82.62,26.89-8.87,50.55,10.07,72.79,41.32,48.2,17.7,50.17,35.41,63,44.26,35.81,24.8,68.85,32.46,105.22,67.88,11.08,8.13-70.64,123.56-84.57,118-45.34-18-80.77-41.8-119-62-41.69-22-89.51-46.23-110.17-70.82-19.17-22.82-51.05-31.89-70.81-49.2-18.26-16-22.64-33.92-42.31-51.13-31.48-27.55-62.39-106.44-84.59-154.44-13.33-28.8-28.53-28.52-38.37-64.92-61.46,77.45-37.34,116.41-81.86,128.47-10.21,22.26,12.05,38.95-21.34,66.78-24,46.52-47.75,108.46-71.42,175.3-87-24.1-167.88-54.72-228.1-81.76,83.19-200.95,41.28-217.39-21.41-9.14a2032.45,2032.45,0,0,1-233.74-96.46c7.42-29.68,21.57-43.84,31.54-68.64,10.35-25.76,14-62.53,29.68-86.26,19.27-29.22,10-42,16.69-62.15,7-21.05,25-9.13,26-55.5-49.16,32.46-77.92,91.68-112.24,85.19-10.66-2-47.3,37.1-130.78,32.46-54.84-3-124.29-32.46-136.35-36.17,51.42-1.86,71.42-56.58,96.47-150.27,36.6-4.83,71.47-7.33,103.88-6.49,15.77-47.3,32.76-31.62,38-38,13-15.77,21.33-34.32,40.81-32.46,1.18-28.89,46.38-43.6,62.15-70.5,3.71-32.46,34.57-33,49.16-53.79,38.7-55.19,97.39-91.83,150.26-92.76s103.77,16.34,153,31.54c7.58-18.24,16.76-33.86,27.83-46.38C1875.76,123.16,1943.47,138.93,1935.12,168.61Z"/>
    <g id="fatherChineseTrim">
      <path class="cls-1" d="M1700.82,812.9c14.35-55.49,28.79-117.68,52.58-174.13,22.5-53.4,44.42-106.47,61.28-163.61,14.39-48.8,34.15-83.37,50.88-122.6S1895,275,1916.12,239.85c52.35,21.73,136.61,18.15,171-11q-7.45-4.12-15.16-8.06c-105.73,44.11-225.37-3-226.77-107.84l-14.92-4.63c-.31,47.93,22.73,90.06,60.63,119.18-21.27,35.86-34.32,75.9-51.15,114.6-17.24,39.66-39,78.13-51.81,120.67-12.49,41.34-33.82,95.57-62.14,163.85-29.28,70.61-52.08,129.37-74.31,165.57-55.34-17.73-147.7-56.58-205.64-85.36,19.65-44.12,33.52-92.59,42.24-145h0c-15.66,23.73-19.33,60.5-29.68,86.26-10,24.8-24.12,39-31.54,68.64a2032.45,2032.45,0,0,0,233.74,96.46c18-35,38.41-80.34,60.29-131.71-14.15,49.89-27.29,97-38.88,140.85,60.22,27,141.08,57.66,228.1,81.76,23.67-66.84,47.41-128.78,71.42-175.3-26.71,34.18-53.55,90.52-80.44,154.78C1853.43,872.56,1753.43,836.89,1700.82,812.9Z"/>
      <path class="cls-1" d="M2204,325.34l-11.44-13.92h0c-52.16,57.13-108.54,149.65-127.95,250.65h0a295.53,295.53,0,0,1,20.07-28.46c21-70.37,65.84-153.5,119.33-208.26Z"/>
      <path class="cls-1" d="M1575.14,331.67c10.84-17.35,27.57-25.86,34-43.37,27.47-75.18,55.66-167.71,100.51-206.53-5.81-.32-11.65-.45-17.51-.35C1647.42,111.92,1620.68,224.68,1575.14,331.67Z"/>
    </g>
    <g id="fatherChineseTie">
      <path class="cls-1" d="M1846.11,223.71l-6.19,16.3a895.28,895.28,0,0,1,97.91,39.41l6.64-15.73A676.72,676.72,0,0,1,1846.11,223.71Z"/>
      <circle class="cls-1" cx="1893.38" cy="252.27" r="10.54"/>
      <path class="cls-1" d="M1785.12,362.52,1779.34,379a894.35,894.35,0,0,1,98.88,36.92l6.24-15.89A676.68,676.68,0,0,1,1785.12,362.52Z"/>
      <circle class="cls-1" cx="1833.09" cy="389.87" r="10.54"/>
      <path class="cls-1" d="M1734.13,500.13l-6.71,16.09A894,894,0,0,1,1824,558.78l7.14-15.51A677.18,677.18,0,0,1,1734.13,500.13Z"/>
      <circle class="cls-1" cx="1780.46" cy="530.2" r="10.54"/>
      <path class="cls-1" d="M1682.45,630.26l-6.71,16.09a894,894,0,0,1,96.61,42.52l7.13-15.51A678.2,678.2,0,0,1,1682.45,630.26Z"/>
      <circle class="cls-1" cx="1728.78" cy="660.31" r="10.54"/>
    </g>
    <g id="clothesOverlapLine-3" data-name="clothesOverlapLine">
      <path id="clothesOverlapLine-4" data-name="clothesOverlapLine" class="cls-1" d="M1935.12,168.61c-10.22,14.48-16.1,31.61-25.18,49.46-26.91,48.33-39.21,86.24-56.84,128-14.59,34.54-40.6,79.06-52,122.57-17.11,65.29-52.52,134.57-80.24,212.94"/>
      <path class="cls-1" d="M1575.14,331.67C1562,419,1519.57,419,1530.72,444.24c11.57,20.49,31,43.45,11.86,54.32"/>
    </g>
    <g id="clothesFoldLine-4" data-name="clothesFoldLine">
      <path class="cls-1" d="M2017.29,617.94c-11.63,15.1-25.87,25.24-44.28,27.46"/>
      <path class="cls-1" d="M2002.84,662.07c-10.77,0-20.2,2-22,15.84"/>
      <path class="cls-1" d="M1776.29,728.91c20.64,39.39,47,69.55,79.59,89.68"/>
      <path class="cls-1" d="M1599.74,145.47c-4.42,42.11-3.25,81,2.5,117.35"/>
      <path class="cls-1" d="M1581.25,220.57c.91,19.66,7,38.36,15.62,56.58"/>
      <path class="cls-1" d="M1535.29,267.09c6.86,32.63,19.21,59.89,36.53,82.29"/>
      <path class="cls-1" d="M1318.39,412.81c14.64,19.32,21.75,39.33,21.86,60"/>
      <path class="cls-1" d="M1311.66,442c-14.92-22-2.8,32.5-16.25,60"/>
      <path class="cls-1" d="M1340.25,410.57c35.25,35.25,46.38,76.52,10.65,129.47"/>
      <path class="cls-1" d="M1367.15,398.8c84.07,42,37,136.19,76.22,96.4"/>
      <path class="cls-1" d="M1351.7,369c40.67-1,72.62,57.3,113,71.31"/>
      <path class="cls-1" d="M1384.24,332.89c15.58-.29,28.35,2.22,38.4,6.5"/>
      <path class="cls-1" d="M1430.54,298.47c43.69,2.09,85.11,68.1,100.64,65.73"/>
      <path class="cls-1" d="M1492.69,228c-.12,25.83,6.56,46.08,17.93,62.49"/>
      <path class="cls-1" d="M2151.68,439c30.41-19.68.9,47.41-59.54,72"/>
      <path class="cls-1" d="M2213,396.92c-3.37,35.87-15.64,70-52.77,99.28"/>
      <path class="cls-1" d="M2240.12,425.4c-3.38,20.77-9.4,39.54-21.35,53.81"/>
      <path class="cls-1" d="M2227.71,546.29c13.29-15.91,24.15-30,27.17-53,33.21,18.59,17.11,120.55-30.75,137.1"/>
      <path class="cls-1" d="M2319.8,632c-41.11,65.48-99.36,69.64-95.67,79.8,3.58,9.83,38.91,4.92,61.72-13.87"/>
      <path class="cls-1" d="M2323.36,638.84c10.89,14.46,6.95,31.53-10.68,51"/>
      <path class="cls-1" d="M2348.46,684.49c-10.23,31.8-28.72,58.23-65.29,72.89"/>
      <path class="cls-1" d="M2393.57,714.59c5.43,29.38,4.89,65.16,12.58,66.5,15.52,2.7,29-24,15.21-43.39"/>
      <path class="cls-1" d="M2443.27,789.58c-4.51,22.63-13.34,42.42-30.41,56.8"/>
      <path class="cls-1" d="M2466.36,755.91c6.18,10.22,9.72,18.51,10.45,24.73"/>
      <path class="cls-1" d="M2525.29,796.81c14.58,20.27,31.13,89.82,54.39,60.3"/>
    </g>
  </g>
</svg>
