<svg viewBox="0 0 276.32 164.35">
  <path class="pillow" d="M256.08,96.17c-27,42.48-59.43,50.91-78.9,60.89-4.61,2.36-9,7.12-14.48,6.17-3.17-.55-15.58-9.39-23.17-11.65C58.09,127.36,43.27,105.3,17,94.41,7.14,90.32.68,87.76,1,81.79c.24-4.27,10.13-9.57,18.12-18.27C70.58,7.48,85.76,19,107.38,3c8.31-6.18,15.67,4,27.24,5.44,21.61,2.63,41.93,15.5,54.46,18,35.83,7,53.63,32.88,73.58,36.2,9.47,1.58,15.67,5,11.16,11.4C271.68,77,265.9,80.72,256.08,96.17Z"/>
  <path class="pillowDisplayLine" d="M166.25,153.81c25.34-24.72,34.34-21.72,72.86-56.51,12.55-10.79,13.31-13.42,26.71-24.13"/>
</svg>
