<svg viewBox="0 0 164.03 58.15">
  <path class="bennettPillow" d="M116.93,10.19c12.89.68,22.94,5.31,31.89,12.9,4,3.52,7,6.24,9.86,7.7,5.52,2.84,6.62,8,1.76,11.09-4.33,2.62-11.05,6.26-15.72,8.82-5.49,3.13-19.1,7.34-34,6.45-9.42-.4-19.63-.35-29.39.13C62,58.59,39.25,56.77,29,47,18.8,43.64,11.08,37.79,6.22,30.25,1.83,28.61-.1,26,.66,23c.5-2.37,3.39-4.22,7-5.18,3.9-1,8.18-3.45,13.9-6.33A109.62,109.62,0,0,1,80,1.06c5.81.51,12.26,1.72,17.12,2C105.18,3.74,112.77,5.86,116.93,10.19Z"/>
  <g class="pillowFoldLine">
    <path d="M6.22,30.25a11.89,11.89,0,0,1-1.53-4.71"/>
    <path d="M29,47a9,9,0,0,1-2.28-4.8"/>
    <path d="M116.93,10.19a49.28,49.28,0,0,0-14.82,1.58"/>
  </g>
  <path class="pillowDisplayLine" d="M35.08,46.11c9.74-2.86,27-3.75,41.21-2.66,11.52,1,31.41.48,47.49-.81,15.87-1.44,17.93-3.07,34.42-4"/>
</svg>
