<svg viewBox="0 0 192.02 53.12">
  <path class="bennettPillow" d="M100.92,5.42c19.77-8.17,55.17-6.13,72.89,8.48,4.8,3.91,8.52,6.76,12.81,8.16,5.84,2.09,6.59,7.34,1.52,9.25a51.59,51.59,0,0,0-12,6.6c-11.09,8.09-24.44,15.1-40,12-9.84,4.07-30.62,2.82-36.66.77-6.64,2.38-43.09,2.13-55.76.16-10.94-1.28-22.28-5.79-28.79-12.13-3.5-3.33-6.65-5.26-10.09-7.84C-1.41,27-.57,22.06,5.3,20.06a28.68,28.68,0,0,0,9.85-5.39C32,.45,82.61-3.89,100.92,5.42Z"/>
  <g class="pillowFoldLine">
    <path d="M100.92,5.42a40.86,40.86,0,0,1,7.25,3.91"/>
    <path d="M99.41,50.71a17.27,17.27,0,0,0,8.26-5.45"/>
    <path d="M136.07,49.94a29.37,29.37,0,0,0,6.2-3.91"/>
  </g>
  <path class="pillowDisplayLine" d="M9.52,26c6.4-1,13.28.3,19.65,2.26a93.73,93.73,0,0,0,34.33,3c7.84-.81,15.32-1.35,23.07.18"/>
</svg>
