<svg viewBox="0 0 1242.09 340.39">
    <path class="pillow" d="M652.9,33C781.25-20.1,1011.1-6.88,1126.14,88c31.19,25.36,55.28,43.92,83.18,53,37.91,13.54,42.78,47.66,9.82,60-28.76,11.72-57.48,26.63-78.06,42.88-72,52.53-158.68,98-259.94,78.12-63.92,26.4-198.77,18.28-238,5-43.09,15.45-279.76,13.82-362,1-71-8.3-144.68-37.55-186.92-78.7C71.47,227.62,51,215.13,28.69,198.38-11.39,172.92-6,141,32.14,128c23.37-7.5,41-16.81,64-35C205.78.7,534.07-27.48,652.9,33Z"/>
    <g class="pillowFoldLine">
        <path d="M652.9,33A257.81,257.81,0,0,1,700,58.35"/>
        <path d="M643.14,327c20.37-6.35,39.84-18.47,53.58-35.39"/>
        <path d="M881.14,322a193.05,193.05,0,0,0,40.23-25.41"/>
    </g>
    <path class="pillowDisplayLine" d="M59.56,166.31c41.54-6.43,86.2,1.94,127.54,14.63,75.47,19.89,150.94,27.5,222.9,19.3,50.9-5.26,99.46-8.77,149.77,1.17"/>
</svg>
