<svg viewBox="0 0 140.92 219.94">
  <g class="backpackStrapLight">
    <path d="M45.5,37.82a30.69,30.69,0,0,0-14.68-5.45C26.6,31.94,15.57,35.88,12,39.49,6.83,44.82,7.12,53.22,8.81,62.12Z"/>
    <path d="M94.23,36A40.19,40.19,0,0,0,83.5,27.25C81.2,25.91,69.34,25.88,64,29.41c-3,2-3.48,4.57-4.77,8Z"/>
  </g>
  <g class="backpackStrapDark">
    <path d="M68.45,36.85c-.65-2.25-2-4.23-3.78-3.69-1.4.43-2.19,2.34-2.5,4.1Z"/>
    <path d="M21.74,46.49c-1.67-3.46-5.45-4.39-7.42-3-2.2,1.51-2.81,7.81-2.17,13.33Z"/>
  </g>
  <path class="backpackAdjusterDark" d="M78.43,7.91C73.19.9,60.2-2.66,53.7,6.49a38.1,38.1,0,0,0-3,10.3c3.66-4.67,8-7.24,13.51-7.62,5.33-.36,10.26,2,15,7A15.93,15.93,0,0,0,78.43,7.91Z"/>
  <g class="backpackAdjusterLight">
    <path d="M86.38,35.9c-1.94-4.11-.07-11.23-.9-14.58a26.67,26.67,0,0,0-7-13.41C82,16.78,75,25.64,76.17,36.35Z"/>
    <path d="M54.71,37.63c-2-3.58-.53-5.1-2.12-9.52-2.72-7.59-1.82-14.72,1.11-21.62a47.45,47.45,0,0,0-9.25,15.76c-1.16,3.8.35,13.08-1.41,15.64C46.37,37.82,50.68,37.75,54.71,37.63Z"/>
  </g>
  <path class="backpackPocketMedium" d="M2.45,159.91c-.92,8.8.06,19.57-.71,30.18-.66,9.3-1,21.06,5.44,23,9.68,2.95,15.9,2,20.62,3.66C45,170.25,39.79,147.74,2.45,159.91Z"/>
  <path class="backpackDark" d="M122.63,51.43c-3.59-8.55-13-13.94-25.23-15.17-14.07-1.42-32.64,1.61-51.9,1.56C22.74,37.75,5.72,59.22,2.08,81.43c-2.31,14.13.92,32.94-1,52.19-.54,5.47,1.13,16.76,1.34,26.29,4.81,1.3,9.49.38,15.21.58,2.87.1,5.78,1.45,8.63,1.17Z"/>
  <path class="backpackLight" d="M132.37,101.81c1.47-9.82-1.71-21.59-2.57-28.58-3.29-26.57-15.73-34.66-36.89-28.29-29.16,8.77-34.63-5.28-53.62,8.59-7.92,5.8-12.82,27.57-13.75,50.33-.22,5.44.6,14.22,0,20.58-.77,8.15-.39,23.49.75,37.22.85,10.27-.41,19.6.9,30.44.8,6.59-1.35,15.34.61,24.67,15.93,5.08,25.35-.35,35.83-.43,11.69-.08,22.59-4.87,32.61-6.22,13.84-1.86,33.71-4.17,35.51-12.26Z"/>
  <path class="backpackPocketLight" d="M48.53,179.07c.51,6-1.64,7.82-.27,17.43.57,3.93-1.31,8.63,1.1,9.83,2.62.33,4.48,2,9.83,2.88C70,176.34,65.93,167.12,48.53,179.07Z"/>
  <path class="backpackMedium" d="M129.6,96c-4-9.14-13.3-12.54-23.08-12.39C97,83.81,86.78,86.74,75,87.22c-17.2.68-28.42,19.54-26.68,42.54,1.41,18.75-1.84,29.84.24,49.31a31,31,0,0,0,7.86,1.41Z"/>
  <path class="backpackReflector" d="M135.29,161.19c-.94-6.69-.08-13.23.25-19-8.8,3.7-76.94,9.12-76.94,9.12,1.32,8.13-3.61,19.53.4,29.26a24,24,0,0,0,.1,11c1,4.68-2.38,9.13.09,17.69,8.45,3,16.22-1,20.78-1.24,5.54-.3,8.11-2.49,13.38-2.7,5.78-.23,11.62-2.61,17.14-3.08s10.79-4,16.73-4.87c7.19-1,10.67-4.61,8.83-11.87C134.68,175.25,136.14,167.29,135.29,161.19Z"/>
  <path class="backpackLightest" d="M135.33,133.93c-1.37-8.06-.09-21.24-1.71-27.7h0c-3.22-8.56-11.11-14.92-20.16-15.37-9.71-.49-18.08,2.13-29,3.24-11.16,1.13-21,8.06-23.14,18.12-2.2,10.44-1.23,29-2.4,42.48,10.31,1,24.12-3,37.38-4.75,12-1.6,30.41-4.06,39.21-7.76A37.2,37.2,0,0,0,135.33,133.93Z"/>
  <path class="backpackOverlapLine" d="M112.74,44c-12.35-8.22-29.19-.31-46.15-.57S34.86,42,24.24,63.71c-7.91,16.2-5,37.24-6.64,53.32a123.43,123.43,0,0,0-.12,25.25c.51,6.12-.77,11,.18,18.21"/>
  <g class="backpackCreaseLine">
    <path d="M20,209.21c-1.45-2.77-3.41-6.39-4.57-4.24-1.6,2.94-2,4.32-3.91,3.24"/>
    <path d="M33.9,193.93c-6.54,3,5,8.38,6.76,13.52"/>
    <path d="M126.87,194.48c.78-6.45-3.61-.26-7.22,2.33"/>
    <path d="M74,205.84c-6.88,1.71-6.56-.78-2.07-5.15"/>
    <path d="M52.12,70c1.68,2.93,3.07,6.72,1.83,9.17-.84,1.67-4.46-1.58-6.14.74"/>
    <path d="M125.53,110.76c-4.31-3.84-2.07-6.64-3.11-8.39-2.64-4.43-4.56,4.08-8.15,6.47"/>
  </g>
  <g class="backpackZipperTeeth">
    <path d="M59,180.57c.85-5.64-1-14.7,0-25.87,1.17-13.46.2-32,2.4-42.48,2.13-10.06,12-17,23.14-18.12,10.89-1.11,19.26-3.73,29-3.24,9.05.45,16.94,6.81,20.16,15.37.65-10-11.75-18-21.06-18-9.71,0-21.44,2.71-28.07,3.24-12.29,1-23,8.08-25.73,20.39-2.78,12.65-1,28.92-2.41,42.8-.81,7.93.36,17,0,25.78Z"/>
    <path d="M134.56,118.49l0,2.58c-5.74,2.07-15.74,2.54-23.54,4.66-5.44,1.47-13.78,1.23-20.12,3-7.43,2.11-18.78,1.47-29,3.19l0-3c10.77-1.38,21-.82,28.88-2.86,6.63-1.73,16.14-2,20-3C118.62,121.15,128.19,120.57,134.56,118.49Z"/>
  </g>
  <g class="backpackZipperPull">
    <polygon points="76.75 42.79 74.74 53.63 78.94 54.09 79.57 42.42 84.98 52.79 88.38 50.73 82.31 42.02 76.75 42.79"/>
    <polygon points="64.57 130.28 66.39 143.62 62.02 144.02 61.95 130.6 64.57 130.28"/>
    <path d="M135.29,161.19c.56,4,.12,8.81.14,14.53l4.22-1.13Z"/>
  </g>
</svg>
