<svg viewBox="0 0 19.83 18.49">
  <path class="chromeLight" d="M2.58,7.19c-2-3.63,2.4-2.86,3-4.47,1.27-3,3.17.17,3.89-.53,1.3-1.46,1.26,1,3.43-1,3.18-2.47,1.82,2.33,4.56,3.1,2.44.78.84,2.93,1.61,3.63s-.57,1.45-.77,2.23c-.24,1,1,2.22.94,3-.1,3.42-3.16,1.77-4.6,3.59-2.27,2.89-3.18-.35-4.85.83-1.15.83-3-.34-4,0-1.51.64-1.1-1.91-2.46-1.92A3.16,3.16,0,0,1,1.06,15C-1.28,12.6,4.62,10.8,2.58,7.19Z"/>
  <g class="foilEdgeLine">
    <path d="M13.65,8.13A2.49,2.49,0,0,1,11.74,9c-1,0-1.09,1.11-.55,1.87a1.14,1.14,0,0,1-1.12,1.81"/>
    <path d="M5.25,13.91a2.2,2.2,0,0,0,.42-2.12c-.31-1.2,2.3-1.43,2.29-.3-.09.87-.14,1.49.47,1.77"/>
    <path d="M4.49,7C4.2,5.35,7,4.24,7.42,5.12A3.3,3.3,0,0,0,9.5,6.61c.85.06.32,1.48-.5,1.37A4.16,4.16,0,0,0,5.88,9"/>
    <path d="M9.39,3.67a1.93,1.93,0,0,1,2.06.79C12,5.23,13.65,5,13.93,6c.15.75.46.86,1.1,1"/>
    <path d="M16.09,13c.07.67-.51,1-1.19,1-.84,0-.74,1-1.62,1s-1,.22-.94.68"/>
    <path d="M18.86,7.44A2.59,2.59,0,0,1,16.81,9.7a2.64,2.64,0,0,0-2.28,1.72"/>
    <path d="M7.48,15.7a2.06,2.06,0,0,1-1.25,1.83"/>
  </g>
</svg>
