<svg viewBox="0 0 32.56 30.38">
  <path class="chromeLight" d="M4.37,11.86C1.06,6,8.28,7.22,9.27,4.61c2.05-4.9,5.14.27,6.31-.87,2.1-2.37,2,1.61,5.56-1.6,5.16-4,2.95,3.77,7.4,5,4,1.27,1.37,4.76,2.61,5.9,1.32,1.31-.91,2.35-1.25,3.61-.38,1.56,1.56,3.61,1.53,4.88-.16,5.55-5.13,2.87-7.46,5.82-3.69,4.69-5.16-.56-7.88,1.35-1.86,1.35-4.91-.55-6.54,0-2.44,1-1.78-3.1-4-3.12a5.15,5.15,0,0,1-3.67-1C-1.89,20.64,7.69,17.72,4.37,11.86Z"/>
  <g class="foilEdgeLine">
    <path d="M22.35,13.39a4.09,4.09,0,0,1-3.11,1.37c-1.55.08-1.76,1.8-.89,3a1.86,1.86,0,0,1-1.82,2.93"/>
    <path d="M8.72,22.76a3.63,3.63,0,0,0,.67-3.44c-.5-1.95,3.73-2.32,3.71-.48-.13,1.41-.22,2.41.77,2.87"/>
    <path d="M7.48,11.54c-.48-2.66,4-4.47,4.76-3a5.29,5.29,0,0,0,3.36,2.43c1.39.1.52,2.4-.8,2.21a6.73,6.73,0,0,0-5.07,1.71"/>
    <path d="M15.43,6.14a3.14,3.14,0,0,1,3.35,1.29c.92,1.25,3.57.84,4,2.44.26,1.22.76,1.4,1.8,1.59"/>
    <path d="M26.31,21.2c.1,1.1-.83,1.57-1.94,1.64-1.36,0-1.21,1.69-2.62,1.57-1.22-.06-1.72.36-1.53,1.1"/>
    <path d="M30.8,12.26a4.19,4.19,0,0,1-3.33,3.67c-2,.35-3.3,1.4-3.69,2.8"/>
    <path d="M12.34,25.68a3.38,3.38,0,0,1-2,3"/>
  </g>
</svg>
