<svg viewBox="0 0 32.44 102.85">
  <g class="labelReverse">
    <path d="M1,88.13C1,87,5,86,10.69,85.55V47C5,47.33,1,48.21,1,49.23Z"/>
    <path d="M13.09,26.15l-2.2-8.6-1.22.28c-.26,2.47-.54,4.92-.82,7.36A21.54,21.54,0,0,1,13.09,26.15Z"/>
  </g>
  <ellipse class="bottleBottom" cx="16.22" cy="98.85" rx="13.29" ry="2.97"/>
  <path class="beerSide" d="M16.22,41.73c7.55,0,13.7-1.12,13.7-2.54C31,41,31.44,43.24,31.44,46.83V97.08c0,6.36-30.47,6.36-30.44,0V46.83c0-3.59.41-5.83,1.52-7.64C2.52,40.73,8.71,41.7,16.22,41.73Z"/>
  <ellipse class="beerTop" cx="16.22" cy="39.24" rx="13.62" ry="2.49"/>
  <path class="bottleSide" d="M27.78,36.75a11.44,11.44,0,0,1-3.66-7.19q-1.36-10.89-2.36-22.2c.85-.26,1.36-.58,1.36-.92V2.54C23.12,1.69,20,1,16.22,1s-6.89.69-6.89,1.54v3.9c0,.34.5.66,1.35.92q-1,11.31-2.36,22.2a11.4,11.4,0,0,1-3.66,7.19C1.92,39.14,1,41.49,1,46.83V97.08c0,6.36,30.48,6.36,30.44,0V46.83C31.44,41.49,30.53,39.14,27.78,36.75Z"/>
  <path class="bottleCreaseLine" d="M21.76,7.36a28.11,28.11,0,0,1-11.08,0"/>
  <path class="bottleOverlapLine" d="M20.29,2.52a36.53,36.53,0,0,1-8.23,0"/>
  <g class="label">
    <path d="M1,88.13c0,1.53,6.82,2.76,15.22,2.76,2,0,3.89-.06,5.63-.19h0V51.47c-1.74.11-3.64.17-5.63.17C7.82,51.64,1,50.56,1,49.23Z"/>
    <path d="M16.91,27.15,19,18.55a71.6,71.6,0,0,1-9.62,1.62q-.29,2.68-.6,5.34C10.3,26.44,14,27,16.91,27.15Z"/>
  </g>
</svg>
