<svg viewBox="0 0 601.58 491.74">
  <polygon class="boxDark" points="600.58 459.61 375.74 490.59 375.74 109.36 600.58 90.12 600.58 459.61"/>
  <polygon class="boxLight" points="375.74 490.59 1 471.86 1 100.11 375.74 109.36 375.74 490.59"/>
  <path class="flap" d="M600.58,90.12Q558.49,45.63,523.61,1C421.81,21.65,243.75,19.07,148.06,1q27.28,40.91,56.48,79Z"/>
  <path class="flapDark" d="M600.58,90.12c-41.1-5.62-80.81-12.68-112.42-20-54.41,11.64-129.48,18.26-216,17l103.59,22.27Z"/>
  <path class="flapLight" d="M375.74,109.36C413.59,85,451,58.23,488.16,29.66,367.51,45.11,192.78,41,109.28,22.92,75.34,48.84,39.09,74.56,1,100.11Z"/>
  <path class="boxHole" d="M456.06,185.56l77.29-8c25-2.58,21.12-39.55-3.83-37l-77.3,8C426.13,151.3,430,188.27,456.06,185.56Z"/>
  <polyline class="mountainDark" points="375.74 324.38 399.09 333.52 453.38 307.56 479.91 321.44 521.8 297.8 561.04 316.35 581.81 302.68 600.58 312.56 600.58 459.61 375.74 490.59 375.74 324.38"/>
  <polygon class="mountainLight" points="1 301.13 24.93 312.57 45.29 301.13 56.71 306.85 74.16 297.8 151.18 333.52 193.3 308.48 211.2 317.16 223.9 308.85 266.9 328.95 311.44 309.31 336.23 319.81 349.98 311.13 375.74 324.38 375.74 490.59 1 471.86 1 301.13"/>
  <g class="bottleOpaque">
    <path d="M143.84,266.42c-4.67-2.65-9.63-6.54-13.52-15.47q-10.86-26.22-21.16-53.76c1.78-1.21,2.72-2.35,2.48-3.2l-2.76-9.72c-.6-2.12-8.2-1.77-17,.79s-15.39,6.35-14.79,8.48l2.76,9.71c.24.86,1.63,1.31,3.77,1.38q5.72,28.88,10.27,56.94c1.39,9.66-.77,15.63-3.34,20.39-4.62,7.81-5.07,14.29-1.29,27.6l35.57,125.29c4.42,15.87,74.7-4.63,70.12-20.46L159.41,289.1C155.63,275.79,151.85,270.55,143.84,266.42Z"/>
    <path d="M206.75,291.77c-2.62-6.32-4.61-14-1.91-25.43q8.46-33.06,18.42-66.87c2.6.37,4.33.11,4.72-.88l4.36-11.2c.95-2.45-6.68-8.45-17.05-13.4s-19.54-7-20.5-4.54l-4.36,11.2c-.39,1,.63,2.56,2.66,4.4q-15.37,31.22-31.28,60.73c-5.66,10-12.08,13.68-18,15.91-10.15,3.31-15.28,8.87-21.25,24.21L66.27,430.32c-7.21,18.22,75.86,57.92,82.89,39.6L205.42,325.5C211.4,310.17,211.54,302.22,206.75,291.77Z"/>
    <path d="M285,320.91c-2.79-4.58-5.27-10.31-4.59-19.61q2.49-27,6-54.83c2.06-.07,3.36-.52,3.54-1.34l2-9.36c.43-2.05-6.19-5.67-14.8-8.08S261.25,225,260.81,227l-2,9.36c-.17.83.8,1.91,2.6,3.07q-8.07,26.54-16.74,51.83c-3.14,8.61-7.65,12.38-12,15-7.44,4-10.71,9.08-13.45,21.9L193.47,448.87c-3.34,15.25,65.66,34.6,68.84,19.3L288.1,347.45C290.84,334.62,290,328.4,285,320.91Z"/>
  </g>
  <g class="label">
    <path d="M159.55,443.58c-1.71,4.39-21.65-.89-44.55-11.8a188.7,188.7,0,0,1-28.68-16.49h0L130,302.72a216.87,216.87,0,0,0,28.8,16.19c22.89,10.91,42.66,16.65,44.15,12.82Z"/>
    <path d="M213.19,234.88a108.2,108.2,0,0,1-19.4-4.87,170.48,170.48,0,0,1-16.29-14q-5.82,11.3-11.71,22.31a78.58,78.58,0,0,0,18.49,4.64,220.94,220.94,0,0,0,22.6,15.57Q210,246.74,213.19,234.88Z"/>
    <path d="M283,275.47a21.62,21.62,0,0,1-3.83-2.54l-9.38,19.28c4.11.48,9.67.85,11.52-.44Q282.13,283.66,283,275.47Z"/>
    <path d="M112,249.81l-1.19-22.88c-7.26,4.06-16.93,9.28-21,10.5q1.23,6.88,2.39,13.73C96.27,252.46,105.12,251.51,112,249.81Z"/>
    <path d="M111,315.43c-11.32,2.21-19.4,2.41-20,.11l8.43,29.71Z"/>
  </g>
  <g class="bottleCreaseLine">
    <path d="M223.26,199.47a83.12,83.12,0,0,1-30.17-14.42"/>
    <path d="M286.46,246.47a63,63,0,0,1-25-7"/>
    <path d="M109.16,197.19a62.36,62.36,0,0,1-25.52,7.44"/>
  </g>
  <g class="bottleCap">
    <path d="M257.48,233.89c4.93,3.59,28.61,10.33,34.7,9.73a3.39,3.39,0,0,1,.12-2.32c.23-3.49.65-7.3-.72-8.38-4.41-3.59-23.87-9.14-29.33-8.23-1.71.22-2.95,3.88-4,7.06A2.55,2.55,0,0,1,257.48,233.89Z"/>
    <path d="M189.45,176.53c5.5,5.58,34,19.34,41.78,20a4.23,4.23,0,0,1,.6-2.86c1-4.29,2.26-8.94.75-10.6-4.84-5.46-28.25-16.79-35.31-16.89-2.19-.12-4.47,4.16-6.46,7.88A3.12,3.12,0,0,1,189.45,176.53Z"/>
    <path d="M77.49,201.7c6.08.57,30.26-6.38,35.35-10.31a3.57,3.57,0,0,1-1-2.19c-1.48-3.35-3-7.08-4.69-7.32-5.62-.85-25.5,4.85-29.88,8.72-1.4,1.15-.72,5.2-.14,8.72A2.81,2.81,0,0,1,77.49,201.7Z"/>
  </g>
  <g class="bottleCapLightLine">
    <path d="M288.28,234.77a119.28,119.28,0,0,1-23.81-6.68"/>
    <path d="M105.11,185.42a117.71,117.71,0,0,1-24.25,7.07"/>
    <path d="M228.06,184.61A157.82,157.82,0,0,1,199.4,170.9"/>
  </g>
  <polyline class="iceDark" points="375.74 344.69 392.9 351.2 420.31 333.52 434.47 349.08 450.15 331.02 468.91 343.71 492.36 330.98 509.83 341.62 528.82 326.11 544.92 338.35 564.82 321.18 579.32 338.35 600.58 325.16 600.58 459.61 375.74 490.59 375.74 344.69"/>
  <polygon class="iceLight" points="1 334.53 14.17 345.79 40.63 325.31 64.37 335.55 92.09 319.73 111.23 339.88 123.75 332.76 145.63 348.58 171.69 329.04 194.84 343.21 221.5 330.9 236.59 342.78 253.96 332.69 283.87 346.26 302.02 333.69 322.83 346.79 335.75 339.21 360.68 356.96 375.74 344.69 375.74 490.59 1 471.86 1 334.53"/>
  <g class="iceOverlapLine">
    <line x1="111.23" y1="339.88" x2="89.1" y2="352.79"/>
    <line x1="194.85" y1="343.21" x2="207.15" y2="350.95"/>
    <line x1="322.83" y1="346.79" x2="309.53" y2="356.48"/>
    <line x1="392.9" y1="351.2" x2="403.51" y2="355.36"/>
    <line x1="468.91" y1="343.71" x2="475.8" y2="348.67"/>
    <line x1="544.92" y1="338.34" x2="540.06" y2="343.31"/>
    <line x1="14.17" y1="345.79" x2="21.75" y2="352.96"/>
  </g>
</svg>
