<svg viewBox="0 0 93.36 76.49">
  <polygon class="boxDark" points="92.86 71.14 58.22 75.92 58.22 17.19 92.86 14.23 92.86 71.14"/>
  <polygon class="boxLight" points="58.22 75.92 0.5 73.03 0.5 15.77 58.22 17.19 58.22 75.92"/>
  <path class="flap" d="M92.86,14.23Q86.38,7.38,81,.5C65.32,3.68,37.89,3.28,23.15.5q4.2,6.3,8.7,12.16Z"/>
  <path class="flapDark" d="M92.86,14.23c-6.33-.87-12.45-2-17.32-3.08C67.16,12.94,55.6,14,42.27,13.76l15.95,3.43Z"/>
  <path class="flapLight" d="M58.22,17.19c5.83-3.75,11.6-7.87,17.32-12.28C57,7.29,30,6.66,17.18,3.88,12,7.87,6.37,11.83.5,15.77Z"/>
  <path class="boxHole" d="M70.6,28.93l11.9-1.24A2.86,2.86,0,1,0,81.91,22L70,23.24A2.87,2.87,0,1,0,70.6,28.93Z"/>
  <polyline class="mountainDark" points="58.22 50.31 61.82 51.72 70.18 47.72 74.27 49.86 80.72 46.22 86.77 49.08 89.97 46.97 92.86 48.49 92.86 71.14 58.22 75.92 58.22 50.31"/>
  <polygon class="mountainLight" points="0.5 46.73 4.19 48.49 7.32 46.73 9.08 47.61 11.77 46.22 23.63 51.72 30.12 47.86 32.88 49.2 34.84 47.92 41.46 51.02 48.32 47.99 52.14 49.61 54.26 48.27 58.22 50.31 58.22 75.92 0.5 73.03 0.5 46.73"/>
  <g class="bottleOpaque">
    <path d="M22.5,41.38A4.56,4.56,0,0,1,20.42,39q-1.67-4-3.26-8.28c.28-.19.42-.36.38-.49l-.42-1.5c-.1-.33-1.27-.27-2.62.12s-2.37,1-2.28,1.31l.43,1.49c0,.14.25.21.58.22.59,3,1.11,5.89,1.58,8.77a4.72,4.72,0,0,1-.51,3.14c-.71,1.2-.78,2.2-.2,4.25l5.48,19.3c.68,2.44,11.5-.71,10.8-3.15L24.9,44.88C24.32,42.83,23.74,42,22.5,41.38Z"/>
    <path d="M32.19,45.29a5.94,5.94,0,0,1-.29-3.92q1.31-5.09,2.84-10.3c.4.06.66,0,.72-.13l.67-1.73c.15-.38-1-1.3-2.62-2.06s-3-1.08-3.16-.7l-.67,1.72c-.06.15.1.4.41.68q-2.37,4.82-4.82,9.35a5,5,0,0,1-2.78,2.46c-1.56.5-2.35,1.36-3.27,3.72L10.55,66.63c-1.11,2.81,11.69,8.92,12.77,6.1L32,50.49C32.91,48.12,32.93,46.9,32.19,45.29Z"/>
    <path d="M44.25,49.78a4.69,4.69,0,0,1-.71-3c.26-2.78.57-5.59.93-8.45.32,0,.52-.08.55-.21l.3-1.44c.07-.31-1-.87-2.28-1.24s-2.45-.42-2.52-.1l-.31,1.44c0,.12.13.29.4.47-.83,2.73-1.68,5.39-2.58,8a4,4,0,0,1-1.84,2.31c-1.14.62-1.65,1.4-2.07,3.37l-4,18.6c-.52,2.35,10.11,5.33,10.6,3l4-18.59C45.15,51.89,45,50.93,44.25,49.78Z"/>
  </g>
  <g class="label">
    <path d="M24.92,68.67c-.26.68-3.33-.13-6.86-1.81a30.61,30.61,0,0,1-4.42-2.54h0L20.38,47a33.38,33.38,0,0,0,4.43,2.49c3.53,1.68,6.57,2.56,6.8,2Z"/>
    <path d="M33.18,36.53a17.57,17.57,0,0,1-3-.75,27.85,27.85,0,0,1-2.51-2.16c-.6,1.16-1.2,2.3-1.81,3.43a12.29,12.29,0,0,0,2.85.72,36.2,36.2,0,0,0,3.48,2.4C32.53,39,32.85,37.74,33.18,36.53Z"/>
    <path d="M43.94,42.78a3.52,3.52,0,0,1-.59-.39l-1.44,3a3.67,3.67,0,0,0,1.77-.07C43.76,44.46,43.85,43.62,43.94,42.78Z"/>
    <path d="M17.6,38.82l-.19-3.52a24.67,24.67,0,0,1-3.23,1.62c.12.71.25,1.41.36,2.11A7.12,7.12,0,0,0,17.6,38.82Z"/>
    <path d="M17.45,48.93c-1.75.34-3,.37-3.09,0l1.3,4.58Z"/>
  </g>
  <g class="bottleCreaseLine">
    <path d="M34.74,31.07a12.81,12.81,0,0,1-4.65-2.22"/>
    <path d="M44.47,38.31a9.75,9.75,0,0,1-3.86-1.08"/>
    <path d="M17.16,30.72a9.64,9.64,0,0,1-3.93,1.15"/>
  </g>
  <g class="bottleCap">
    <path d="M40,36.37a15.33,15.33,0,0,0,5.34,1.5.53.53,0,0,1,0-.35c0-.54.1-1.13-.11-1.3A10.5,10.5,0,0,0,40.74,35c-.26,0-.45.59-.62,1.08A.38.38,0,0,1,40,36.37Z"/>
    <path d="M29.53,27.54A20.31,20.31,0,0,0,36,30.62a.67.67,0,0,1,.1-.45c.15-.66.34-1.37.11-1.63a13.77,13.77,0,0,0-5.44-2.6c-.34,0-.69.64-1,1.21A.5.5,0,0,1,29.53,27.54Z"/>
    <path d="M12.28,31.42a15.59,15.59,0,0,0,5.45-1.59.57.57,0,0,1-.16-.34c-.23-.52-.46-1.09-.72-1.13a10.38,10.38,0,0,0-4.6,1.34c-.22.18-.12.81,0,1.35A.42.42,0,0,1,12.28,31.42Z"/>
  </g>
  <g class="bottleCapLightLine">
    <path d="M44.75,36.51a18.41,18.41,0,0,1-3.67-1"/>
    <path d="M16.54,28.91A18.65,18.65,0,0,1,12.8,30"/>
    <path d="M35.48,28.78a24.5,24.5,0,0,1-4.42-2.11"/>
  </g>
  <polyline class="iceDark" points="58.22 53.44 60.87 54.44 65.09 51.72 67.27 54.12 69.69 51.34 72.58 53.29 76.19 51.33 78.88 52.97 81.8 50.58 84.28 52.46 87.35 49.82 89.58 52.46 92.86 50.43 92.86 71.14 58.22 75.92 58.22 53.44"/>
  <polygon class="iceLight" points="0.5 51.88 2.53 53.61 6.61 50.46 10.26 52.03 14.53 49.59 17.48 52.7 19.41 51.6 22.78 54.04 26.79 51.03 30.36 53.21 34.47 51.32 36.79 53.15 39.47 51.59 44.07 53.68 46.87 51.75 50.07 53.76 52.06 52.6 55.9 55.33 58.22 53.44 58.22 75.92 0.5 73.03 0.5 51.88"/>
  <g class="iceOverlapLine">
    <line x1="17.48" y1="52.7" x2="14.07" y2="54.69"/>
    <line x1="30.36" y1="53.21" x2="32.26" y2="54.4"/>
    <line x1="50.07" y1="53.76" x2="48.02" y2="55.26"/>
    <line x1="60.87" y1="54.44" x2="62.5" y2="55.08"/>
    <line x1="72.58" y1="53.29" x2="73.64" y2="54.05"/>
    <line x1="84.28" y1="52.46" x2="83.53" y2="53.23"/>
    <line x1="2.53" y1="53.61" x2="3.7" y2="54.71"/>
  </g>
</svg>
