<svg viewBox="0 0 242.65 641.32">
  <g class="brassLight">
    <path d="M224,254.16c1.6,0,3.69-1.29,3.69-2.89V241c0-1.6-2.09-2.89-3.69-2.89Z"/>
    <path d="M224,310.28c1.6,0,3.69-1.3,3.69-2.9V297.14c0-1.6-2.09-2.9-3.69-2.9Z"/>
    <path d="M224,94.26c1.6,0,4.63-1.29,4.63-2.89V77c0-1.6-3-2.9-4.63-2.9Z"/>
    <path d="M224,229.1c1.6,0,4.63-1.29,4.63-2.89V211.87c0-1.6-3-2.89-4.63-2.89Z"/>
    <path d="M224,455.05c1.6,0,4.63-1.3,4.63-2.9V437.81c0-1.6-3-2.89-4.63-2.89Z"/>
    <path d="M224,579.09c1.6,0,4.63-1.3,4.63-2.9V561.85c0-1.6-3-2.89-4.63-2.89Z"/>
  </g>
  <path class="handle" d="M236,305.88c3.58-2.44,3.28-11.47,3.28-11.47,3.15-2.19,3.3-38.33,0-40.73,0,0,.94-9.29-3.28-11.76-2.11-1.24-5.66-1.3-8.29-1.2v10.62c.84,0,1.29.88,1.5,2.39-3.34,2.68-3.35,37.61,0,40.64-.19,1.74-.63,2.77-1.51,2.77v10.24C230.17,307.48,234.1,307.09,236,305.88Z"/>
  <g class="caseMedium">
    <path d="M9.86,70.93A44.09,44.09,0,0,1,3.33,79,7.67,7.67,0,0,0,1,84.52V99a7.71,7.71,0,0,0,2.57,5.8,35.53,35.53,0,0,1,6.29,7.64Z"/>
    <path d="M9.86,530a44.09,44.09,0,0,1-6.53,8.06A7.67,7.67,0,0,0,1,543.62v14.49a7.71,7.71,0,0,0,2.57,5.8,35.35,35.35,0,0,1,6.29,7.65Z"/>
  </g>
  <rect class="caseLight" x="-202.75" y="213.61" width="639.32" height="214.11" rx="23.14" transform="translate(437.58 203.75) rotate(90)"/>
  <g class="caseEdgeLine">
    <path d="M239.23,294.41a38.07,38.07,0,0,1-10.06,0"/>
    <path d="M239.23,253.68a41.88,41.88,0,0,0-10.07,0"/>
  </g>
</svg>
