<svg viewBox="0 0 93.32 232.11">
  <path class="steelLight" d="M13.77,219.85c0,.66,14.72,1.48,32.87,1.48s32.88-.82,32.88-1.48-14.72-1.18-32.88-1.18S13.77,219.2,13.77,219.85Z"/>
  <g class="steelMedium">
    <path d="M79.52,219.85c0,.66-14.72,1.48-32.88,1.48s-32.87-.82-32.87-1.48v10c12.45,1.6,52,1.81,65.77,0v-10Z"/>
    <path d="M41.78,30.36V219.85a61,61,0,0,0,9.75,0V30.33C48.29,30.36,45,30.37,41.78,30.36Z"/>
  </g>
  <path class="lampshade" d="M79,3.87c-9.72-3.66-54.75-4-64.6,0l-13.24,90c9.14,2.66,83.34,2.25,91.08,0Z"/>
</svg>
