<svg viewBox="0 0 207.41 20.74">
  <polygon class="paperPurple" points="23.33 12.03 32.4 2.27 24.16 1.29 15.25 11.05 5.18 9.97 2 13.75 30.48 16.22 32.56 13.07 23.33 12.03"/>
  <polygon class="paperRed" points="134.82 3.89 136.84 18.12 126.56 18.43 116.77 10.52 115.88 18.55 106.33 18.82 105.66 4.62 118.86 4.26 126.76 10.16 125.6 4.15 134.82 3.89"/>
  <g class="paperBlue">
    <polygon points="97.53 4.34 99.02 18.61 90.71 18.76 80.04 10.89 78.67 18.86 69.31 18.75 69.09 4.09 81.36 4.19 88.1 9.4 87.32 4.25 97.53 4.34"/>
    <polygon points="165.02 2.82 170.52 17.82 144.61 19.7 142.27 15.47 158.14 14.38 157.06 12.12 147.88 12.59 147.18 9.67 155.63 9.26 155 7.1 140.79 7.69 139.83 3.75 165.02 2.82"/>
  </g>
  <g class="paperGreen">
    <polygon points="64.29 3.94 56.17 18.53 35.53 17.81 36.34 14.63 47.6 15 49.16 12.14 41.98 11.71 43.08 8.63 50.89 9.04 52.48 6.55 40.9 5.89 42.87 2.79 64.29 3.94"/>
    <path d="M199.05,1,206,15.3a97.65,97.65,0,0,1-13.06,1.78c-15,1-22.21-4.52-11.06-7.38-14-.34-15-6.49-.21-7.84C187.25,1.31,192.25,1,199.05,1ZM185,5.87l7,.77-1-2.33Zm2.72,6.8,7.46.7-1.31-2.47Z"/>
  </g>
</svg>
