<svg viewBox="0 0 249.18 24.57">
  <polygon class="paperPurple" points="27.69 14.29 38.63 2.54 28.7 1.35 17.96 13.11 5.83 11.81 2 16.36 36.31 19.34 38.82 15.54 27.69 14.29"/>
  <polygon class="paperRed" points="162.03 4.49 164.46 21.62 152.07 22 140.28 12.47 139.2 22.15 127.69 22.46 126.89 5.36 142.79 4.93 152.31 12.04 150.91 4.8 162.03 4.49"/>
  <g class="paperBlue">
    <polygon points="117.1 5.03 118.89 22.21 108.88 22.4 96.02 12.91 94.37 22.52 83.1 22.39 82.83 4.72 97.61 4.84 105.73 11.12 104.79 4.91 117.1 5.03"/>
    <polygon points="198.41 3.19 205.04 21.27 173.82 23.52 171 18.43 190.12 17.12 188.82 14.39 177.75 14.97 176.91 11.45 187.1 10.96 186.34 8.34 169.22 9.05 168.06 4.31 198.41 3.19"/>
  </g>
  <g class="paperGreen">
    <polygon points="77.05 4.54 67.27 22.11 42.39 21.25 43.38 17.43 56.94 17.87 58.82 14.42 50.16 13.9 51.5 10.19 60.9 10.68 62.82 7.69 48.87 6.9 51.24 3.16 77.05 4.54"/>
    <path d="M239.41,1l8.32,17.23A116.63,116.63,0,0,1,232,20.37c-18.08,1.25-26.76-5.45-13.33-8.88-16.85-.42-18.08-7.83-.25-9.45C225.2,1.38,231.22,1.05,239.41,1ZM222.48,6.87l8.46.92L229.8,5Zm3.27,8.19,9,.85-1.57-3Z"/>
  </g>
</svg>
