<svg viewBox="0 0 62.37 62.37">
  <rect class="noStroke" x="0.5" y="0.5" width="61.37" height="61.37"/>
  <path class="wrapperOuter" d="M20.71,59.13c3.17,1,6.45,1.86,10.09,2.7C34,61.25,39.38,60,42.15,59.25c-4-1-7.76-2-11.06-3a106.5,106.5,0,0,1-12.75-.82l1.78,1.09a5.66,5.66,0,0,1,3.4.54c1.56-.23,1.63-.13,3.07-.27,1,.38,2.83.15,4.11.3,2,1.47-2.19,2.39-8.2,1.52A4.94,4.94,0,0,0,20.71,59.13Z"/>
  <path class="wrapperInner" d="M38.07,59.18c-2.68-.73-5.18-1.43-7.37-2.11h0c-1,.15-2.28.79-3.66.65-.95.62-1.42.1-2.63.81a8.2,8.2,0,0,0-1.91.06c2.7.75,5.57,1.47,8.3,2.1C32.91,60.35,36.23,59.65,38.07,59.18Z"/>
</svg>
