<svg viewBox="0 0 402 402">
  <rect class="noStroke" x="1" y="1" width="400" height="400"/>
  <path class="wrapperOuter" d="M132.76,383.14c20.61,6.47,42,12.13,65.71,17.61,20.65-3.76,56-11.93,74-16.8-26.15-6.61-50.56-13.19-72.06-19.7-24.41.29-52.76-1.9-83.1-5.33L128.9,366c3.72-1.58,16.71.12,22.16,3.51,10.15-1.5,10.63-.88,20-1.78,6.59,2.51,18.45,1,26.81,1.95,12.94,9.58-14.29,15.57-53.47,9.92C139.42,380.35,135,381.66,132.76,383.14Z"/>
  <path class="wrapperInner" d="M245.91,383.46c-17.52-4.71-33.79-9.31-48-13.75h0c-6.61,1-14.84,5.17-23.89,4.27-6.13,4-9.21.64-17.11,5.26a51.77,51.77,0,0,0-12.46.39c17.59,4.87,36.28,9.62,54.11,13.72C212.25,391.12,233.89,386.56,245.91,383.46Z"/>
</svg>
