<svg viewBox="0 0 25.61 20.84">
  <g class="condomBag">
    <path d="M18.73,15.45S11.92,8.89,12,6.33C6.09-2.17-3.81,5.25,3.82,13.21,7.48,15.2,7.05,18.32,10,20Z"/>
    <path d="M19.84,19.39c.25-2.24,2.3-1.7,2.68-4.88.33-2.78,2-2.12,2.5-5.24a4.58,4.58,0,0,0-1-3.64c1.33-1.81,1.53-4.41,0-5-2.35-.93-3.47,3.41-5.33,4-2.57.88-1.78,4-3.48,5.69-2.1,2.06-.9,3.5-2.78,5.07-2.26,1.89-.87,3.13-2.52,4.6C10.7,20.57,19.21,20.44,19.84,19.39Z"/>
  </g>
  <g class="condomCreaseLine">
    <path d="M12.49,20.33a11.85,11.85,0,0,0,.42-1.6c.44-2.34,2.62-2.62,3-4.88C16.53,10,23,12.79,21.81,6.14"/>
    <path d="M17.28,20.13A6.27,6.27,0,0,0,18,18.32c.56-2.81,2.25-2.17,2.38-4.57"/>
    <path d="M8.16,15.34c.91,1.05,1.56,2.76,2.74,3.08"/>
  </g>
  <g class="condomFoldLine">
    <path d="M24,5.63A2.86,2.86,0,0,1,23.31,3"/>
    <path d="M3.52,9.35A8.8,8.8,0,0,1,7,12.7"/>
    <path d="M8.1,5.26c.4,1.47,1.21,4.05,2.46,5.2"/>
  </g>
  <path class="condomRing" d="M1.19,5.33a5.93,5.93,0,0,1,8.1-2.17,5.94,5.94,0,0,1,2.53,8,5.93,5.93,0,0,1-8.1,2.16A5.92,5.92,0,0,1,1.19,5.33Zm3.19,6.78a4.52,4.52,0,0,0,6.18-1.65A4.53,4.53,0,0,0,8.62,4.37,4.52,4.52,0,0,0,2.45,6,4.52,4.52,0,0,0,4.38,12.11Z"/>
</svg>
