<svg viewBox="0 0 37.01 36.55">
  <path class="wrapperOuter" d="M20.1,35.08c5.16-6.5,10.35-12.62,15.56-18.24C31,11.56,25.2,6.58,19.05,1.4,14.13,7,9.79,11.71,5.62,15.9a15.56,15.56,0,0,0,5.47,4.2c5.33-2.81,11.3,2.74,8.52,9.39-2-.88-4.46-1.46-5.35-3.2-3-2.18-3.89-1.47-5.36-3.78A10.58,10.58,0,0,1,3.61,19a21,21,0,0,0-2.26,3.51C8.63,26.37,15.41,30.66,20.1,35.08Z"/>
  <path class="wrapperInner" d="M19.55,6.56a84.67,84.67,0,0,1,11,10.33C26.77,21,23.15,25.2,19.61,29.49c-2-1.61-3.77-3.19-4-4.59-1.22-2.06-3.8-2.78-4.51-4.8a13.08,13.08,0,0,1-2.44-1.41C12.21,14.94,15.84,10.91,19.55,6.56Z"/>
</svg>
