<svg viewBox="0 0 101.6 101.6">
  <rect class="noStroke" x="1" y="1" width="99.6" height="99.6"/>
  <path class="wrapperOuter" d="M33.81,96.15c5.13,1.61,10.46,3,16.36,4.39,5.14-.94,13.94-3,18.42-4.18C62.08,94.71,56,93.07,50.65,91.45A171.48,171.48,0,0,1,30,90.12l2.89,1.77c.92-.39,4.16,0,5.51.88,2.53-.38,2.65-.22,5-.45,1.64.63,4.6.25,6.68.49,3.22,2.38-3.56,3.87-13.32,2.47A8.2,8.2,0,0,0,33.81,96.15Z"/>
  <path class="wrapperInner" d="M62,96.23c-4.36-1.17-8.41-2.32-12-3.42h0c-1.64.25-3.69,1.29-5.94,1.06-1.53,1-2.3.16-4.26,1.31a13,13,0,0,0-3.11.1c4.38,1.21,9,2.39,13.48,3.41C53.6,98.14,59,97,62,96.23Z"/>
</svg>
