<svg viewBox="0 0 122 122">
  <rect class="noStroke" x="1" y="1" width="120" height="120"/>
  <path class="wrapperOuter" d="M40.53,115.64c6.18,1.94,12.61,3.64,19.71,5.28,6.2-1.12,16.79-3.57,22.2-5-7.85-2-15.17-4-21.62-5.92a206.65,206.65,0,0,1-24.93-1.59l3.48,2.13c1.12-.47,5,0,6.65,1,3-.45,3.19-.26,6-.53,2,.75,5.54.29,8.05.58,3.88,2.88-4.29,4.67-16,3A9.78,9.78,0,0,0,40.53,115.64Z"/>
  <path class="wrapperInner" d="M74.47,115.74c-5.25-1.41-10.13-2.8-14.41-4.13h0c-2,.3-4.45,1.55-7.16,1.29-1.84,1.21-2.76.19-5.13,1.57a15.69,15.69,0,0,0-3.74.12c5.27,1.46,10.88,2.88,16.23,4.11C64.37,118,70.87,116.67,74.47,115.74Z"/>
</svg>
