<svg viewBox="0 0 193.83 755.59">
  <g class="chromeMedium">
    <ellipse cx="94.46" cy="554.38" rx="88.86" ry="4.84"/>
    <ellipse cx="94.46" cy="561.54" rx="91.17" ry="5.04"/>
    <ellipse cx="96.41" cy="477.82" rx="77.69" ry="3.7"/>
    <ellipse cx="96.41" cy="484.98" rx="79.7" ry="3.86"/>
  </g>
  <g class="shell">
    <path d="M94.46,572.9c-42.46,0-78-1.62-86.77-3.79V729.44c8.8,4.62,44.31,8.07,86.77,8.07s78-3.45,86.77-8.07V569.11C172.43,571.28,136.93,572.9,94.46,572.9Z"/>
    <path d="M96.38,553.15c35.05,0,64.81-1.25,75.5-3V492.38c-8.3,1.62-38.94,2.82-75.47,2.82S29.09,494,20.88,492.37v57.8C31.57,551.9,61.33,553.15,96.38,553.15Z"/>
    <path d="M94.23,369.92c-33.79,0-62.1,1.17-69.59,2.75V472c7.5,1.64,35.78,2.86,69.53,2.86,34,0,62.4-1.23,69.67-2.89V372.67C156.38,371.09,128.05,369.92,94.23,369.92Z"/>
    <path d="M95,258.26c-31.86,0-58.57,1.91-65.66,3.49v91.43h0c7-1.41,33.32-3,65.49-3,32.48,0,59,1.16,65.69,2.86v-91.3C153.44,260.16,126.89,258.26,95,258.26Z"/>
  </g>
  <g class="chromeLight">
    <path d="M183.33,735.87v4.67c0,5.88-39.79,10.65-88.87,10.65S5.6,746.42,5.6,740.54v-4.67C63.61,743.91,122.92,743.5,183.33,735.87Z"/>
    <path d="M183.33,726.86a3.88,3.88,0,0,0-2.1-2.3v4.61c-8.8,4.77-44.31,8.34-86.77,8.34s-78-3.57-86.77-8.34v-4.61a3.8,3.8,0,0,0-2.09,2.3l-2.31,6.52c0,6.13,40.82,11.09,91.17,11.09s91.17-5,91.17-11.09Z"/>
    <path d="M94.46,566.58c43.32,0,79.59-1.67,88.87-3.91v-8.29c0,2.68-39.79,4.84-88.87,4.84S5.6,557.06,5.6,554.38v8.29C14.88,564.91,51.14,566.58,94.46,566.58Z"/>
    <path d="M24.64,374.29c-1.17-.06-1.66-.29-1.94-.83l-1.85-6.31c0-2.06,32.86-3.73,73.38-3.73s73.38,1.67,73.38,3.73l-1.85,6.31c-.36.65-1,.83-1.92.83v-1.66c-7.46-1.58-35.79-2.76-69.61-2.76s-62.1,1.18-69.59,2.76Z"/>
    <path d="M174.1,491.5c0,2-34.78,3.7-77.69,3.7s-77.69-1.66-77.69-3.7l-2-6.52c0,2.13,35.68,3.86,79.7,3.86s79.7-1.73,79.7-3.86Z"/>
    <path d="M96.41,488.84c37.88,0,69.58-1.28,77.69-3v-8c0,2.05-34.78,3.71-77.69,3.71s-77.69-1.66-77.69-3.71v8C26.83,487.56,58.54,488.84,96.41,488.84Z"/>
    <path d="M94.46,566.58c-49.14,0-89.2-2.15-91.1-4.84l2.24,6.32c0,2.67,39.78,4.84,88.86,4.84s88.87-2.17,88.87-4.84l2.23-6.32C183.67,564.43,143.6,566.58,94.46,566.58Z"/>
    <path d="M173.62,548.75a2.87,2.87,0,0,0-1.74-1.43v2.85c-10.69,1.73-40.45,3-75.5,3s-64.81-1.25-75.5-3v-2.85c-1.14.51-1.59.95-1.74,1.43l-2.49,8c15.14,1.49,44.31,2.5,77.81,2.5,36.6,0,68-1.2,81.65-2.92Z"/>
    <path d="M96.41,481.53c31.75,0,59-.91,71.09-2.21l-1.86-8.13c0-.29-.62-.56-1.8-.83V472c-7.27,1.65-35.7,2.87-69.67,2.87-33.75,0-62-1.21-69.53-2.84v-1.72c-1.27.27-1.94.56-1.94.86l-1.82,7.5C29.09,480.32,59.79,481.53,96.41,481.53Z"/>
    <path d="M94.23,363.46c34.87,0,64.06,1.24,71.53,2.9v-6.09c0-2-32-3.59-71.53-3.59s-71.53,1.61-71.53,3.59v6.09C30.17,364.7,59.36,363.46,94.23,363.46Z"/>
    <path d="M29.31,264.17c-1.1-.07-1.32-1-1.58-1.58l-1.5-6.31c0-2.06,31.43-5,68.76-5s68.76,2.92,68.76,5l-1.5,6.31a2,2,0,0,1-1.75,1.55v-2.4c-7-1.58-33.6-3.48-65.51-3.48s-58.62,1.92-65.68,3.5Z"/>
    <path d="M94.23,356.68c33.16,0,61.05,1.13,69.15,2.67h0l-1.27-5.53c-.49-2.08-30-3.59-67.29-3.59s-66.79,2.1-67.28,3.59l-1.17,5.31h0C35.85,357.71,62.65,356.68,94.23,356.68Z"/>
    <path d="M95,251.3c32.6,0,60.7,2.4,67.3,4.2v-6.14c0-2-24.42-5.08-67.51-5.08s-67.51,3.1-67.51,5.08v6.26C33,253.78,61.63,251.3,95,251.3Z"/>
    <path d="M62.23,319c2.46,0,6.36,19.1,0,19.1C53.63,338.12,59.78,319,62.23,319Z"/>
    <path d="M129.44,319c-2.46,0-6.36,19.1,0,19.1C138,338.12,131.9,319,129.44,319Z"/>
    <path d="M82.71,443.05c2.46,0,6.37,19.09,0,19.09C74,462.14,80.25,443.05,82.71,443.05Z"/>
    <path d="M62.23,291.5c2.46,0,6.36-19.1,0-19.1C53.63,272.4,59.78,291.5,62.23,291.5Z"/>
    <path d="M129.44,291.5c-2.46,0-6.36-19.1,0-19.1C138,272.4,131.9,291.5,129.44,291.5Z"/>
    <path d="M156.09,441.3c2.46,0,12.13,19.1,0,19.1C151.9,460.4,154.7,441.3,156.09,441.3Z"/>
    <path d="M82.71,401.64c2.46,0,6.37-19.1,0-19.1C74,382.54,80.25,401.64,82.71,401.64Z"/>
    <path d="M156.09,403.63c2.46,0,12.13-19.1,0-19.1C151.9,384.53,154.7,403.63,156.09,403.63Z"/>
    <path d="M120.08,705.69c-2.45,0-6.37,19.1,0,19.1C128.76,724.79,122.54,705.69,120.08,705.69Z"/>
    <path d="M37.75,703.7c-2.45,0-12.12,19.1,0,19.1C42,722.8,39.15,703.7,37.75,703.7Z"/>
    <path d="M120.08,605.88c-2.45,0-6.37-19.1,0-19.1C128.76,586.78,122.54,605.88,120.08,605.88Z"/>
    <path d="M37.75,603.88c-2.45,0-12.12-19.09,0-19.09C42,584.79,39.15,603.88,37.75,603.88Z"/>
    <path d="M181.23,581.49v19C184.22,598.83,193.23,581.87,181.23,581.49Z"/>
    <path d="M181.23,697.29v19C193.23,715.88,184.22,698.92,181.23,697.29Z"/>
    <path d="M7.69,702.77c-2.21,4.43-3.65,10.37,0,12.72Z"/>
    <path d="M7.69,582.75c-3.65,2.36-2.21,8.29,0,12.72Z"/>
    <path d="M24.64,440.33c-2.54.24-13.07,19,0,19.09Z"/>
    <path d="M24.64,385c-13.07,0-2.54,18.85,0,19.09Z"/>
    <path d="M160.5,322.59V340C168.82,338.48,163.88,326.86,160.5,322.59Z"/>
    <path d="M160.5,292.17c3.38-4.27,8.33-15.9,0-17.37Z"/>
    <path d="M29.33,322.72c-3.36,4.35-8.1,15.68,0,17.22Z"/>
    <path d="M29.33,274.82c-8.1,1.53-3.36,12.86,0,17.22Z"/>
    <path d="M78.25,509.2v30.23H73.1c-2.72,0-2.72-30.23,0-30.23Z"/>
    <path d="M148.17,508.2v30.23h5.15c5.9,0,5.9-30.23,0-30.23Z"/>
    <path d="M171.88,506.21v30.23h4.34c5.91,0,5.91-30.23,0-30.23Z"/>
    <path d="M26,506.71v30.23H20.82c-5.9,0-5.9-30.23,0-30.23Z"/>
  </g>
  <g class="pad">
    <path d="M101.6,17.18H92.53L90.69,1.81c0-1.08,12.49-1.08,12.49,0Z"/>
    <path d="M113,20.25l-10.12,1.9-5.79-9.9A13.73,13.73,0,0,1,108.7,6.09a14.59,14.59,0,0,1,6.62,2.27Z"/>
    <path d="M81,20.25l10.12,1.9,5.78-9.9A13.72,13.72,0,0,0,85.3,6.09a14.59,14.59,0,0,0-6.62,2.27Z"/>
    <path d="M65.15,736.53c.56-.87,7.72-.79,8.16,0,2.61,4.16,3.89,9.43,3.74,15.91,0,2.87-15.64,2.87-15.64,0C61.41,746.1,62.57,740.74,65.15,736.53Z"/>
  </g>
  <path class="throneSide" d="M94.78,244.28c30,0,51,1.5,60.92,3.08.52-5.37.23-12.8-1.12-15.39-1.23-2.38-25.75-3.24-57.52-3.24s-56.41,1-57.51,3.24c-1.38,2.75-1.89,9.59-1.43,14.8C49.21,245.43,68.53,244.28,94.78,244.28Z"/>
  <g class="steelLight">
    <path d="M104.47,21.1l6.8-1.26v122c0,4.31-6.8,5.3-6.8,1Z"/>
    <path d="M82.81,19.84l6.8,1.22v121c0,5-6.8,4.06-6.8-.25Z"/>
    <path d="M71.07,730.05l-17-25.21V538.45c0-1-5.68-1-5.68,0V704.79a5.9,5.9,0,0,0,1,3.26l17,25.22v3.26c0,.94,5.68.94,5.68,0v-3.21A5.86,5.86,0,0,0,71.07,730.05Z"/>
  </g>
  <g class="steelDark">
    <path d="M48.87,680.36l5.19-.25c5.38,0,9.74,4.81,9.74,10.75s-4,10.33-9.74,10.74l-5.19.25Z"/>
    <path d="M105.26,96.39c0-1.52-16.4-1.52-16.4,0v12.67c0,1.08,16.4,1.08,16.4,0Z"/>
    <path d="M105.26,134.93c0-1.19-16.4-1.19-16.4,0V147.6c0,.84,16.4.84,16.4,0Z"/>
    <path d="M110.19,228.73H83.94a95.4,95.4,0,0,0,4.48-13.66c0-1.66,17.29-1.66,17.29,0A99,99,0,0,0,110.19,228.73Z"/>
  </g>
  <g class="supportOverlapLine">
    <path d="M99.14,217.56c0,4.36.43,8.37,2.44,11.17"/>
    <path d="M95.14,217.56c-.11,4.49-.62,8.51-2.28,11.17"/>
  </g>
  <g class="steelMedium">
    <path d="M103.19,214.16V147.55c0-.77-12.25-.77-12.25,0v66.61A55.75,55.75,0,0,1,103.19,214.16Z"/>
    <path d="M103.19,134.31V109.12c0-1-12.25-1-12.25,0v25.19A69.61,69.61,0,0,1,103.19,134.31Z"/>
    <path d="M103.19,95.6v-32c0-1-12.25-1-12.25,0v32A53.39,53.39,0,0,1,103.19,95.6Z"/>
    <ellipse cx="48.87" cy="691.1" rx="9.75" ry="10.75"/>
    <path d="M190.57,676.91h-9.34v21.5h9.34c1.25,0,2.26-4.81,2.26-10.75S191.82,676.91,190.57,676.91Z"/>
    <circle cx="97.8" cy="287.15" r="17.33"/>
  </g>
  <g class="steelMediumLight">
    <path d="M184.73,534.22V700.6l-.38.57a24.65,24.65,0,0,1,2.57,6.34l3.49-5.17V534.22C190.41,533.19,184.73,533.19,184.73,534.22Z"/>
    <path d="M98.32,62.88V17.18H95.81v45.7C96.64,62.87,97.49,62.87,98.32,62.88Z"/>
  </g>
  <path class="chromeDark" d="M81.75,292.47l1.89,2.9a42.62,42.62,0,0,0,28.33,0l1.88-2.9A48.29,48.29,0,0,1,81.75,292.47Z"/>
  <path class="chromeLight" d="M81.75,292.47a48.29,48.29,0,0,0,32.1,0V278.56a40.85,40.85,0,0,0-32.1,0Z"/>
  <path class="chromeDarkest" d="M97.8,278.3a7.11,7.11,0,0,0-7,6.21h-9V286h9a7.12,7.12,0,1,0,7.09-7.67Z"/>
</svg>
