<svg viewBox="0 0 822.1 863.79">
  <g class="steelLight">
    <path d="M354.76,735.75l-244.52,5.66c-20.1,1.23-18.57,29.16,1.52,27.93l243-5.09Z"/>
    <polygon points="363.07 523.47 320.99 736.53 329.34 736.34 363.07 563.12 363.07 523.47"/>
    <polygon points="681.72 740.65 420.62 736.2 420.62 764.61 713.2 770.84 681.72 740.65"/>
    <polygon points="354.76 445.17 46.96 802.13 66.17 819.82 354.76 485.55 354.76 445.17"/>
    <path d="M759.37,773.11,420.62,444.86v41.93c0,.17,317,307.69,317,307.69Z"/>
  </g>
  <g class="pad">
    <path d="M765.08,767.53l-32.31,31.65s11.58,45.32,37.45,48.1c26.63,2.86,43.07-15.44,50.65-31.46Z"/>
    <path d="M71.56,788.45l-29-.51L1.11,832.85c4,15,19.18,26.62,28.73,29.2,3.86,1.05,32.22.86,35,.19,14.61-3.5,24.48-44,24.48-44Z"/>
    <path d="M295.41,765.5a260.18,260.18,0,0,0-8.76,55c5.87,1.82,46,1.82,51.41,0,7-17.34,7.41-36.25,2.25-55.88Z"/>
  </g>
  <g class="steelDark">
    <path d="M354.76,769c0,6.1,65.86,6.1,65.86,0v-50.9c0-4.33-65.86-4.33-65.86,0Z"/>
    <path d="M354.76,486.79c0,4.75,65.86,4.75,65.86,0v-50.9c0-3.38-65.86-3.38-65.86,0Z"/>
    <path d="M335,110.07H440.41a378.4,378.4,0,0,0-18,54.85c0,6.67-69.44,6.67-69.44,0A395,395,0,0,0,335,110.07Z"/>
  </g>
  <g class="steelMedium">
    <path d="M363.07,168.57V436.09c0,3.11,49.24,3.11,49.24,0V168.57C399.14,170.37,376.24,170.37,363.07,168.57Z"/>
    <path d="M363.07,489.25V717.88c0,3.85,49.24,3.85,49.24,0V489.25C399.66,490.72,375.72,490.72,363.07,489.25Z"/>
  </g>
  <g class="supportOverlapLine">
    <path d="M379.36,154.91c.06-17.51-1.73-33.59-9.81-44.84"/>
    <path d="M395.4,154.91c.46-18,2.5-34.16,9.16-44.84"/>
  </g>
  <path class="throneSide" d="M618.69,14c8.8,13,8.28,66.51,0,83.07-4.44,8.88-103.42,13-231,13s-226-3.46-231-13c-7.75-14.95-6.75-70.07,0-83.07Z"/>
  <ellipse class="throneTop" cx="387.69" cy="14" rx="231" ry="13"/>
</svg>
