<svg viewBox="0 0 185.12 469.57">
  <g class="strapLight">
    <path d="M61.88,271.07c-8,10.43-10.18,29.85-10.28,53.77-.1,22.12-1.87,45.43-2.12,69.76-.13,11.8-4.16,18.17-11,25.38-4.42,4.66-12.18,8.08-19.13,7.26C9.09,426.05.5,427,2.47,434.38l6.16,13.37c5.83-9.69,16.07-7.93,24.39-11.38,9.52-3.95,18.63-9.65,24.3-21.29l6.84-32.75c2-13-.23-28.15,1.81-43.53l1.15-69.07Z"/>
    <path d="M119.21,463.27c-14.94,2.39-38.39-5.1-63,.39-6.81,1.41-13.13,2.24-16.87,0,13.53-2.5,18.85-5.84,27.36-8.1,13.22-3.52,25.42,7.81,40.41,4.41"/>
  </g>
  <path class="strapDark" d="M2.28,431.38C.53,437,.83,448.54,1.66,451.09c2.49,7.61,7.92,12.08,14.43,14.75,11.59,4.74,25.27,2.85,40.07-2.18-11,0-20.82-1.2-27.85-5.25C15.88,451.24,2.73,440.08,2.28,431.38Z"/>
  <path class="guitarSide" d="M90.47,461.38c-9.77-1.22-26.36-10.28-30.33-20.27-6.76-17-6.08-35,2.78-59.49,5.25-14.5,8.2-21.94,2.24-40.68-5-15.7-8-26.34-8.07-39.71,0-9.3,4.37-27.83,10-31.5,2.52-1.64,5.65-1.61,8.71-1,.3,13.25.71,26.38,8.26,31.69,8.21,3.53,15.53-6,14.63-21.14L88.77,101.65c-.71-9.61-4.7-17.09-11.4-18.27l5.69-1.49c8.67.11,11.61,6.83,9.25,18.58L128,305.11c3.35,4,9.62,1.6,12.15-5,3.62-9.48,1.22-20.79,5.56-26a9.45,9.45,0,0,1,7.83-2.29C156.05,354.42,139.31,421.17,90.47,461.38Z"/>
  <path class="guitarFront" d="M106.27,323.54l-1.68-.38-1.78-27.56c-2.94,8.17-10.07,13.49-17.23,6.73-5.2-4.93-5.51-19.08-5.54-27.22,0-9.34-9.73-7.66-12.48-.12-8,21.83-6.38,35,2.11,58.67,5.62,15.63,8.4,27,2.93,41.59-13.78,36.72-16.81,75.35,13.23,85,22.11,7.08,65.48-4.71,85.23-28,24.14-28.39,9.9-59.46-3.44-81.74-7.25-12.1-8.79-23.65-5.76-35.67,3.85-15.28,4.19-28.29-2.4-38.45-5.07-7.82-12.61-6.46-11.93,9.06.52,11.62-2.63,22.21-9.35,25.08-3.13,1.33-7.81-.85-10.16-5.44Z"/>
  <g class="leatherDark">
    <path d="M112.43,461.42c2.31.6,4.6,1.22,6.78,1.85,4.18-.78,9.54-1.51,14.46-3.56,5.29-2.2,6.56-4.22,5.77-5.75A111.65,111.65,0,0,1,112.43,461.42Z"/>
    <path d="M67.1,269.73a8.28,8.28,0,0,1,2.83-1.15h0l-3.1-2.77c-.73-.87-3.88,3.13-5,5.26a33.15,33.15,0,0,0,3.59.16A7.49,7.49,0,0,1,67.1,269.73Z"/>
  </g>
  <path class="leatherLight" d="M79.4,265.16c-1.55.43-10.24,1.44-12.56.65,1.69,2.95,4.24,3.57,9,3.31C81.16,268.84,81.9,265.52,79.4,265.16Z"/>
  <polygon class="fretboard" points="109.44 94.75 128.97 315.96 106.27 323.54 92.31 100.47 109.44 94.75"/>
  <polygon class="headstockSide" points="82.91 3.05 82.99 81.89 77.37 83.38 77.29 4.53 82.91 3.05"/>
  <path class="headstockFront" d="M82.91,3.05c8.21,11.13,11.8,12.32,12.48,18.19,3.38,16,7.56,30.35,13.81,43.84a4.46,4.46,0,0,1,.19,3.27c-2.35,7.14-.69,16.39,0,26.4l-17.13,5.72c-.74-10.1-3.63-16.74-9.32-18.58Z"/>
  <g class="metalDark">
    <path d="M152.76,385.93c-1.84-.2-3.11-2.46-2.82-5s2-4.51,3.84-4.31l5,.54-1,9.35Z"/>
    <path d="M88.78,66.07c-.89,0-1.6-1-1.6-2.25s.73-2.24,1.61-2.24h2.4l0,4.49Z"/>
    <path d="M88.75,77c-.89,0-1.6-1-1.6-2.25s.73-2.24,1.61-2.24h2.4l0,4.49Z"/>
    <path d="M88.74,55.12c-.89,0-1.6-1-1.6-2.25s.73-2.24,1.61-2.24h2.4l0,4.49Z"/>
    <path d="M88.85,44.18c-.89,0-1.6-1-1.6-2.25s.73-2.24,1.62-2.24h2.39l0,4.49Z"/>
    <path d="M88.81,33.23c-.89,0-1.6-1-1.6-2.25s.73-2.24,1.61-2.24h2.4l0,4.49Z"/>
    <path d="M88.8,22.28c-.89,0-1.6-1-1.6-2.25s.73-2.24,1.62-2.24h2.39l0,4.49Z"/>
    <path d="M163.16,408.81c-1.85-.2-3.11-2.46-2.83-5s2-4.51,3.85-4.31l5,.54-1,9.35Z"/>
  </g>
  <g class="metalLight">
    <ellipse cx="158.26" cy="381.8" rx="4.7" ry="3.36" transform="translate(-238.42 497.82) rotate(-83.79)"/>
    <ellipse cx="91.18" cy="63.84" rx="2.24" ry="1.6" transform="translate(27.01 154.78) rotate(-89.79)"/>
    <ellipse cx="91.15" cy="74.77" rx="2.24" ry="1.6" transform="translate(16.04 165.65) rotate(-89.79)"/>
    <ellipse cx="91.14" cy="52.89" rx="2.24" ry="1.6" transform="translate(37.92 143.83) rotate(-89.79)"/>
    <ellipse cx="91.25" cy="41.95" rx="2.24" ry="1.6" transform="translate(48.97 133.04) rotate(-89.79)"/>
    <ellipse cx="91.21" cy="31" rx="2.24" ry="1.6" transform="translate(59.88 122.09) rotate(-89.79)"/>
    <ellipse cx="91.2" cy="20.04" rx="2.24" ry="1.6" transform="translate(70.82 111.17) rotate(-89.79)"/>
    <ellipse cx="168.65" cy="404.68" rx="4.7" ry="3.36" transform="translate(-251.9 528.56) rotate(-83.79)"/>
    <path d="M76.36,267.38l2.17-4.26c0-.08-7.4-.51-7.41-.43l1.6,4.43C72.7,267.48,76.34,267.74,76.36,267.38Z"/>
  </g>
  <polygon class="humbuckerSide" points="107.58 389.99 106.28 373.4 134.91 363.84 137.72 364.63 110.38 390.79 107.58 389.99"/>
  <polygon class="humbuckerFront" points="137.72 364.63 139.01 381.23 110.38 390.79 109.09 374.19 137.72 364.63"/>
  <g class="bridgeNutDark">
    <polygon points="108.72 405.57 108.23 399.9 136.86 390.34 139.67 391.13 111.53 406.36 108.72 405.57"/>
    <polygon points="92.36 100.97 92.07 97.59 109.17 91.88 111.07 92.08 94.02 101.2 92.36 100.97"/>
  </g>
  <g class="bridgeNutLight">
    <polygon points="139.67 391.13 140.16 396.8 111.53 406.36 111.04 400.69 139.67 391.13"/>
    <polygon points="111.07 92.08 111.36 95.47 94.02 101.2 93.75 97.82 111.07 92.08"/>
  </g>
  <g class="pickupDark">
    <path d="M133,322.4l-2.69-.59a3.59,3.59,0,0,0-1.88.17l-22.1,7.37c-4.6,1.46-4.81,8.13-1.45,9l2.72.6Z"/>
    <path d="M133.64,331.3l-2.68-.59a3.73,3.73,0,0,0-1.89.16L107,338.25c-4.59,1.46-4.81,8.13-1.44,9l2.72.6Z"/>
    <path d="M134.85,347.81l-2.68-.6a3.59,3.59,0,0,0-1.88.17l-22.1,7.38c-4.6,1.45-4.81,8.12-1.45,9l2.72.6Z"/>
  </g>
  <g class="pickupLight">
    <path d="M131,322.54c5.14-1.72,6.36,6.91.65,8.82l-22.11,7.37c-5.4,1.81-6-7.11-.65-8.81Z"/>
    <path d="M131.61,331.44c5.14-1.72,6.36,6.91.65,8.82l-22.1,7.37c-5.4,1.81-6-7.11-.65-8.81Z"/>
    <path d="M132.83,347.94c5.14-1.72,6.36,6.91.64,8.82l-22.1,7.38c-5.4,1.8-6.05-7.11-.65-8.82Z"/>
  </g>
  <g class="tuningKey">
    <path d="M75.29,22.12a2.79,2.79,0,0,0,.46-1.67l1.56.26V18.63l-1.59-.21a3.72,3.72,0,0,0-.45-1.78,7,7,0,0,0-5.07-1.05c-.73.8-.78,4.3-.12,5.46A8.2,8.2,0,0,0,75.29,22.12Z"/>
    <path d="M75.34,33.6a5.27,5.27,0,0,0,.42-2.21l1.56.26V29.57l-1.58-.21a7,7,0,0,0-.41-2.25,7,7,0,0,0-5.07-1.05c-.73.8-.78,5.32-.12,6.48A8.22,8.22,0,0,0,75.34,33.6Z"/>
    <path d="M75.36,44.26a4.22,4.22,0,0,0,.4-2l1.57.22V40.45l-1.6-.19a5.22,5.22,0,0,0-.42-2,7.06,7.06,0,0,0-5.08-1c-.73.8-.74,4.85-.08,6A8.31,8.31,0,0,0,75.36,44.26Z"/>
    <path d="M77.34,53.45V51.37l-1.78-.25a11.66,11.66,0,0,0-.36-2.82,7.12,7.12,0,0,0-5.07-1c-.54,1-.76,6.55-.2,7.89a8.15,8.15,0,0,0,5.2,1.07,9.71,9.71,0,0,0,.43-3.07Z"/>
    <path d="M77.35,62.27,75.51,62a1.08,1.08,0,0,0-.14-.24,7.1,7.1,0,0,0-5.08-1c-.4.24-.43,2-.11,2.52a8.33,8.33,0,0,0,5.21,1.07.64.64,0,0,0,.17-.28l1.79.31Z"/>
    <path d="M77.36,73.43l-1.79-.24a12.23,12.23,0,0,0-.35-2.82,7,7,0,0,0-5.08-1.05c-.53,1-.75,6.55-.2,7.88a8.18,8.18,0,0,0,5.21,1.07,10,10,0,0,0,.43-3.07l1.78.31Z"/>
  </g>
</svg>
