<svg viewBox="0 0 222.63 564.92">
  <g class="strapLight">
    <path d="M74.34,326c-9.58,12.57-12.25,36-12.38,64.79-.12,26.65-2.25,54.73-2.55,84.05-.15,14.21-5,21.88-13.26,30.57-5.34,5.62-14.68,9.74-23.06,8.76-12.35-1.45-22.69-.3-20.32,8.6l7.43,16.1c7-11.67,19.35-9.55,29.38-13.71,11.47-4.75,22.45-11.63,29.27-25.65L77.09,460c2.39-15.68-.26-33.92,2.19-52.45l1.39-83.22Z"/>
    <path d="M143.43,557.53c-18,2.89-46.26-6.14-76,.48-8.2,1.69-15.82,2.69-20.33,0,16.3-3,22.71-7,33-9.76,15.93-4.23,30.62,9.41,48.68,5.32"/>
  </g>
  <path class="strapDark" d="M2.54,519.11C.43,525.83.8,539.79,1.8,542.86c3,9.17,9.54,14.55,17.39,17.77,14,5.71,30.43,3.44,48.27-2.62-13.21,0-25.09-1.45-33.55-6.33C18.93,543,3.09,529.59,2.54,519.11Z"/>
  <path class="guitarSide" d="M108.8,555.25C97,553.79,77,542.87,72.26,530.83c-8.15-20.53-7.33-42.16,3.35-71.67,6.32-17.47,9.88-26.43,2.7-49-6-18.91-9.67-31.73-9.73-47.84,0-11.2,5.26-33.53,12.06-37.95,3-2,6.81-1.93,10.5-1.18.36,16,.85,31.78,10,38.18,9.89,4.26,18.71-7.22,17.63-25.47l-12-214c-.86-11.59-5.67-20.59-13.74-22L99.87,98c10.45.14,14,8.24,11.15,22.39L154,367c4,4.86,11.6,1.92,14.64-6.05,4.36-11.42,1.48-25.05,6.7-31.37a11.41,11.41,0,0,1,9.44-2.75C187.81,426.39,167.64,506.82,108.8,555.25Z"/>
  <path class="guitarFront" d="M127.83,389.18l-2-.45-2.14-33.2c-3.53,9.84-12.13,16.25-20.75,8.09-6.28-5.93-6.64-23-6.69-32.78,0-11.26-11.71-9.23-15-.15-9.6,26.31-7.69,42.18,2.54,70.68,6.76,18.84,10.11,32.58,3.53,50.11C70.66,495.72,67,542.27,103.2,553.86c26.64,8.53,78.89-5.68,102.69-33.67C235,486,217.81,448.54,201.74,421.7c-8.73-14.57-10.58-28.5-6.93-43,4.64-18.41,5.05-34.08-2.89-46.33-6.12-9.43-15.19-7.78-14.37,10.91.61,14-3.18,26.77-11.28,30.23-3.76,1.6-9.4-1-12.24-6.56Z"/>
  <g class="leatherDark">
    <path d="M135.25,555.3c2.78.73,5.54,1.47,8.18,2.23,5-.94,11.49-1.81,17.41-4.28,6.38-2.66,7.91-5.09,7-6.94A134.25,134.25,0,0,1,135.25,555.3Z"/>
    <path d="M80.64,324.35A9.88,9.88,0,0,1,84.05,323h0l-3.74-3.32c-.87-1.06-4.67,3.76-6,6.32a37.56,37.56,0,0,0,4.33.2A9.34,9.34,0,0,1,80.64,324.35Z"/>
  </g>
  <path class="leatherLight" d="M95.45,318.84c-1.86.52-12.33,1.75-15.13.8,2.05,3.54,5.11,4.29,10.83,4C97.58,323.28,98.47,319.28,95.45,318.84Z"/>
  <polygon class="fretboard" points="131.65 113.53 155.19 380.05 127.83 389.18 111.02 120.42 131.65 113.53"/>
  <polygon class="headstockSide" points="99.69 3.05 99.78 98.04 93.01 99.83 92.92 4.83 99.69 3.05"/>
  <path class="headstockFront" d="M99.69,3.05c9.89,13.41,14.22,14.84,15,21.92,4.07,19.27,9.11,36.56,16.64,52.82a5.3,5.3,0,0,1,.23,3.93c-2.83,8.61-.83,19.75.06,31.81L111,120.42c-.9-12.16-4.39-20.16-11.24-22.38Z"/>
  <g class="metalDark">
    <path d="M183.85,464.35c-2.22-.24-3.75-3-3.41-6.07s2.41-5.43,4.63-5.19l6,.65L189.86,465Z"/>
    <path d="M106.76,79c-1.07,0-1.93-1.22-1.92-2.71s.87-2.7,1.94-2.7h2.88l0,5.41Z"/>
    <path d="M106.72,92.16c-1.07,0-1.93-1.22-1.92-2.71s.87-2.71,1.94-2.7h2.88l0,5.41Z"/>
    <path d="M106.71,65.79c-1.07,0-1.93-1.22-1.93-2.71s.88-2.7,2-2.7h2.88l0,5.41Z"/>
    <path d="M106.84,52.61c-1.07,0-1.93-1.22-1.92-2.71s.87-2.71,1.94-2.7h2.89l0,5.41Z"/>
    <path d="M106.79,39.41c-1.07,0-1.93-1.21-1.92-2.71s.87-2.7,1.94-2.69h2.89l0,5.41Z"/>
    <path d="M106.78,26.22c-1.06,0-1.93-1.22-1.92-2.71s.88-2.7,1.94-2.7h2.89l0,5.41Z"/>
    <path d="M196.37,491.92c-2.22-.25-3.75-3-3.41-6.07s2.42-5.44,4.64-5.2l6,.66-1.22,11.26Z"/>
  </g>
  <g class="metalLight">
    <ellipse cx="190.47" cy="459.37" rx="5.66" ry="4.05" transform="translate(-286.81 599.02) rotate(-83.79)"/>
    <ellipse cx="109.65" cy="76.29" rx="2.7" ry="1.93" transform="translate(32.96 185.66) rotate(-89.79)"/>
    <ellipse cx="109.61" cy="89.46" rx="2.7" ry="1.93" transform="translate(19.75 198.75) rotate(-89.79)"/>
    <ellipse cx="109.6" cy="63.1" rx="2.7" ry="1.93" transform="translate(46.1 172.46) rotate(-89.79)"/>
    <ellipse cx="109.74" cy="49.91" rx="2.7" ry="1.93" transform="translate(59.42 159.47) rotate(-89.79)"/>
    <ellipse cx="109.69" cy="36.72" rx="2.7" ry="1.93" transform="translate(72.56 146.27) rotate(-89.79)"/>
    <ellipse cx="109.68" cy="23.53" rx="2.7" ry="1.93" transform="translate(85.75 133.12) rotate(-89.79)"/>
    <ellipse cx="202.99" cy="486.94" rx="5.66" ry="4.05" transform="translate(-303.05 636.06) rotate(-83.79)"/>
    <path d="M91.8,321.52l2.61-5.14c0-.09-8.92-.61-8.92-.51l1.92,5.33C87.38,321.64,91.77,322,91.8,321.52Z"/>
  </g>
  <polygon class="humbuckerSide" points="129.41 469.25 127.85 449.25 162.34 437.74 165.72 438.69 132.79 470.2 129.41 469.25"/>
  <polygon class="humbuckerFront" points="165.72 438.69 167.28 458.69 132.79 470.2 131.23 450.21 165.72 438.69"/>
  <g class="bridgeNutDark">
    <polygon points="130.79 488.01 130.2 481.18 164.69 469.67 168.07 470.62 134.17 488.97 130.79 488.01"/>
    <polygon points="111.07 121.03 110.72 116.95 131.32 110.07 133.62 110.32 113.07 121.3 111.07 121.03"/>
  </g>
  <g class="bridgeNutLight">
    <polygon points="168.07 470.62 168.66 477.45 134.17 488.97 133.58 482.14 168.07 470.62"/>
    <polygon points="133.62 110.32 133.96 114.4 113.07 121.3 112.74 117.23 133.62 110.32"/>
  </g>
  <g class="pickupDark">
    <path d="M160,387.81l-3.23-.71a4.36,4.36,0,0,0-2.27.2l-26.63,8.89c-5.54,1.75-5.8,9.79-1.74,10.8l3.27.73Z"/>
    <path d="M160.81,398.54l-3.23-.72a4.51,4.51,0,0,0-2.28.2l-26.62,8.89c-5.54,1.75-5.8,9.79-1.74,10.81l3.27.72Z"/>
    <path d="M162.27,418.42,159,417.7a4.47,4.47,0,0,0-2.27.2l-26.63,8.89c-5.54,1.76-5.8,9.79-1.74,10.81l3.28.72Z"/>
  </g>
  <g class="pickupLight">
    <path d="M157.57,388c6.2-2.07,7.67,8.32.79,10.62l-26.63,8.89c-6.51,2.17-7.29-8.57-.78-10.62Z"/>
    <path d="M158.36,398.7c6.2-2.07,7.67,8.33.78,10.62l-26.62,8.89c-6.51,2.17-7.29-8.56-.79-10.62Z"/>
    <path d="M159.83,418.58c6.19-2.07,7.66,8.33.78,10.63L134,438.1c-6.51,2.17-7.29-8.57-.78-10.63Z"/>
  </g>
  <g class="tuningKey">
    <path d="M90.51,26a3.38,3.38,0,0,0,.55-2l1.88.32v-2.5L91,21.57a4.62,4.62,0,0,0-.54-2.15c-1.14-1.05-4.48-1.72-6.12-1.26-.88,1-.93,5.19-.14,6.58A10,10,0,0,0,90.51,26Z"/>
    <path d="M90.57,39.86a6.41,6.41,0,0,0,.5-2.67l1.88.32V35L91,34.75A8.1,8.1,0,0,0,90.55,32c-1.13-1.06-4.47-1.72-6.11-1.27-.88,1-.94,6.41-.14,7.81A9.88,9.88,0,0,0,90.57,39.86Z"/>
    <path d="M90.59,52.7a5,5,0,0,0,.48-2.37L93,50.6V48.11L91,47.89a6.52,6.52,0,0,0-.51-2.46c-1.14-1-4.48-1.72-6.12-1.26-.88,1-.89,5.84-.1,7.24A10,10,0,0,0,90.59,52.7Z"/>
    <path d="M93,63.77V61.26L90.83,61a14,14,0,0,0-.43-3.4c-1.13-1-4.47-1.72-6.11-1.26-.65,1.14-.91,7.89-.25,9.5a9.85,9.85,0,0,0,6.28,1.29,11.84,11.84,0,0,0,.51-3.7Z"/>
    <path d="M93,74.4l-2.22-.31a.89.89,0,0,0-.17-.29c-1.14-1-4.48-1.72-6.12-1.26-.48.3-.52,2.39-.12,3a10,10,0,0,0,6.27,1.29.79.79,0,0,0,.2-.34L93,76.9Z"/>
    <path d="M93,87.84l-2.16-.29a14.15,14.15,0,0,0-.42-3.4c-1.14-1.05-4.47-1.72-6.11-1.26-.65,1.14-.92,7.89-.25,9.5a9.84,9.84,0,0,0,6.28,1.29,12.15,12.15,0,0,0,.51-3.7l2.15.37Z"/>
  </g>
</svg>
