<svg viewBox="0 0 362.81 367.01">
    <g class="bottleWater">
        <path d="M334.2,47.67l-1-.62q-31.22,1.5-62.42,0c-.32.21-.64.42-1,.62-16,9.6-27.62,26.3-27.62,49.23V341.47c0,32.72,119.6,32.72,119.6,0V96.9C361.81,74,350.19,57.27,334.2,47.67Z"/>
        <path d="M213.59,47.67c-.33-.2-.65-.41-1-.62q-31.22,1.5-62.42,0l-1,.62c-16,9.6-27.62,26.3-27.62,49.23V341.47c0,32.72,119.61,32.72,119.61,0V96.9C241.21,74,229.58,57.27,213.59,47.67Z"/>
        <path d="M93,47.67l-1-.62q-31.2,1.5-62.42,0c-.32.21-.64.42-1,.62C12.62,57.27,1,74,1,96.9V341.47c0,32.72,119.6,32.72,119.6,0V96.9C120.6,74,109,57.27,93,47.67Z"/>
    </g>
    <g class="bottlePlastic">
        <path d="M322.81,31.35c-11.19.36-30.34.36-41.59,0-.2,6.85-4.49,11.84-10.42,15.71q31.21,1.5,62.42,0C327.3,43.18,323,38.19,322.81,31.35Z"/>
        <path d="M202.2,31.35c-11.19.36-30.33.36-41.59,0-.19,6.85-4.49,11.84-10.41,15.71q31.2,1.5,62.42,0C206.7,43.18,202.4,38.19,202.2,31.35Z"/>
        <path d="M81.6,31.35c-11.19.36-30.34.36-41.59,0-.2,6.85-4.49,11.84-10.42,15.71q31.21,1.5,62.42,0C86.09,43.18,81.8,38.19,81.6,31.35Z"/>
    </g>
    <g class="bottleLabel">
        <path d="M301.08,218.33a183.77,183.77,0,0,1-58.87-4V105.45c19.21,1.17,35.06,2.17,58.87,2Z"/>
        <path d="M180.47,218.33a183.79,183.79,0,0,1-58.87-4V105.45c19.22,1.17,35.07,2.17,58.87,2Z"/>
        <path d="M59.87,218.33a183.77,183.77,0,0,1-58.87-4V105.45c19.21,1.17,35.06,2.17,58.87,2Z"/>
    </g>
    <g class="bottleCap">
        <path d="M273.24,30.86c7.26,1,50.77,1,57.54,0V7a5.6,5.6,0,0,0-5.33-5.65q-23.44-.75-46.88,0A5.6,5.6,0,0,0,273.24,7Z"/>
        <path d="M152.64,30.86c7.25,1,50.77,1,57.54,0V7a5.6,5.6,0,0,0-5.34-5.65Q181.41.62,158,1.37A5.6,5.6,0,0,0,152.64,7Z"/>
        <path d="M32,30.86c7.26,1,50.78,1,57.54,0V7a5.6,5.6,0,0,0-5.33-5.65q-23.43-.75-46.87,0A5.6,5.6,0,0,0,32,7Z"/>
    </g>
</svg>
