<svg viewBox="0 0 377.69 120.71">
  <g class="handle">
    <path d="M141,36.22c-.1,4.45,27.59,4.45,27.43-.37a56.45,56.45,0,0,1,.33-8.51S192,22.62,192,19.43V9.61C192,5.41,175.36,1,154.81,1s-37.2,4.41-37.2,8.61v9.82c0,3.2,9.67,6.52,23.35,7.92A85.5,85.5,0,0,1,141,36.22Z"/>
    <path d="M111.1,39.84c1.47-.21.23,11.83-1.81,11.66L75.25,50c-1.73,4-17.65,7.9-37,7.9C17.66,57.88,1,53.48,1,49.27V37.46c0-4.2,16.66-8.61,37.2-8.61S75.71,31.66,75.39,38Z"/>
  </g>
  <g class="handleOverlapLine">
    <path d="M136.6,7.87c-1.89.49-3,1.07-3,1.68,0,1.82,9.48,3.28,21.18,3.28S176,11.37,176,9.55c0-.61-1.09-1.19-3-1.68"/>
    <path d="M20,35.72c-1.89.49-3,1.07-3,1.68,0,1.81,9.48,3.28,21.18,3.28s21.19-1.47,21.19-3.28c0-.61-1.09-1.19-3-1.68"/>
    <path d="M168.72,27.34c.38-3,1.1-5.55,2.37-7"/>
    <path d="M141,27.35a11.65,11.65,0,0,0-2.05-7"/>
  </g>
  <path class="bladeBottom" d="M144.2,30.94c-.17,5.61-3,12.36-3.21,18.63-.76,17.1,18.73,45.92,39.71,68L165,30.86C165,28.81,144.19,28.89,144.2,30.94Z"/>
  <path class="bladeTop" d="M150.22,39.42c-17.48.81-23.5,2.15-38.49,2.36a26.45,26.45,0,0,1-1,7.75L377.51,72.26C326.5,62.72,177.07,37.84,150.22,39.42Z"/>
  <ellipse class="screw" cx="154.96" cy="45.88" rx="7.77" ry="2.41"/>
</svg>
