<svg viewBox="0 0 1000.57 1521.73">
  <polygon class="mapleDarkest" points="524.08 1473.43 524.08 1146.57 969.82 1116.36 969.82 1428.42 524.08 1473.43"/>
  <polygon class="mapleDark" points="81.11 1422.95 524.08 1473.43 524.08 1146.57 81.11 1112.49 81.11 1422.95"/>
  <g class="oakMediumLight">
    <path d="M524.08,1473.43,81.11,1423c-25.67-.89-31.42,16.77-31.15,40l474.33,57.61Z"/>
    <path d="M81.11,1112.49c-31.78-.91-28.58-55.36-1.07-58.19L525,1084.37l-.9,62.2Z"/>
  </g>
  <g class="oakMedium">
    <path d="M524.08,1473.43l.21,47.17,475.27-50.89c.25-24.56-5.73-39.37-29.74-41.29Z"/>
    <path d="M524.08,1146.57l.9-62.2,445-26.19c30.34,1.76,30.67,53.52-.17,58.18Z"/>
  </g>
  <polygon class="oakLight" points="80.04 1054.3 524.98 1084.37 969.99 1058.18 524.05 1026.22 80.04 1054.3"/>
  <g class="steelMediumDark">
    <path d="M794.54,937.91V841.13c11-11.49,20-25.67,26.81-42.89q4.44-11.73,7.69-23.38V945.09c-.2,25.82-15.83,53.66-34.4,61L757.9,993.24C778.45,980.21,794.64,964.56,794.54,937.91Z"/>
    <path d="M424.72,1047.47v15.81c0,4,45.66,7.17,102,7.17s102-3.21,102-7.17v-15.81Z"/>
  </g>
  <path class="hornOuter" d="M433,860.66c36.44-16.78,63.12-18,89.28-20.74,44.33-4.14,107.59.59,144.83-2.36,52-5.6,78.2-35.37,86.62-86.94,4.42-42.25-11.38-71.87-39-86.69-47.59-26.87-107.9-45.45-166.53-62.81-70.43-20.3-143.72-8-219.28,29.9L492.09,273.45c14.68,70.22,41.88,123.84,84.72,159.48,63.82,52.25,135.91,80.89,193.11,133.3,67.23,57.21,85.1,143.14,51.43,232-29.63,75.06-102.22,92.52-186.65,80-65.69-10.74-146.76-13.47-188.88,5.63A46.71,46.71,0,0,0,433,860.66Z"/>
  <path class="hornInner" d="M185.08,138C126.44,157.17,77.42,245.61,80.3,305.2,35.12,337.88,8.21,427.28,27.43,489.76c-35.56,41.33-34.6,127.84-1,172.06-4.8,64.4,41.34,115.35,106.7,111.5,42.29,7.69,94.2-21.14,120.15-63.44,42.3-4.8,88.44-57.67,106.7-106.69,33.65-23.07,68.25-85.55,80.75-136.5,27.87-26.91,50.94-99,47.1-149C510,278.29,517.66,210,504.21,166.78,513.82,121.61,498.44,63,461,39.9,434-1.43,351.37-13.93,319.65,22.6,257.17,28.37,198.53,83.16,185.08,138Z"/>
  <g class="hornCreaseLine">
    <path d="M475.85,171.18c-18.2,47.36-26.05,95.2-16.59,143.85-28,42.85-41.4,91.12-39.66,144.78-39.68,35.28-66,78-75.62,130-42.26,25.15-74.66,58.55-96.82,100.51"/>
    <path d="M461,39.9c-16.83,43.27-12.46,102.17,4.9,161.09"/>
    <path d="M133.17,773.32C166,721.14,207,688.53,255.93,675"/>
    <path d="M319.65,22.6c6.6,104.65,64.1,220.6,139.61,292.43"/>
    <path d="M26.47,661.82c89.93-34.37,220.25-66,317.51-72"/>
    <path d="M80.3,305.2q170.58,81.56,339.3,154.61"/>
    <path d="M27.43,489.76c111-10.84,253.79,9.29,340.21,33.81"/>
    <path d="M185.08,138c51.1,88,146.92,181.91,242,249.83"/>
  </g>
  <g class="steelMediumLight">
    <path d="M668.26,886.62c9.44-4.15,8.47-48.21-3.92-53.56A109.92,109.92,0,0,0,703.78,821c18.64,1.24,29.68,54.41,15.62,63.57A237.41,237.41,0,0,1,668.26,886.62Z"/>
    <path d="M843.82,718.62c-9.67,10.29-86.47,12.82-96.35,1.49a154,154,0,0,1-.59,35.5c10.48,9.26,82.14,10.54,93.13-.91A215.11,215.11,0,0,0,843.82,718.62Z"/>
    <path d="M678.18,494.54c13.59,32-21.89,124.12-61.69,133.83-23.81-8.49-53-16.68-85.07-24.72,45.63-18.45,81-119,70.28-158.85C627.94,464,653.66,481.38,678.18,494.54Z"/>
    <path d="M188,995v31c0,13.17,151.66,23.84,338.74,23.84s338.75-10.67,338.75-23.84V995Z"/>
  </g>
  <ellipse class="rubberMediumDark" cx="526.69" cy="994.96" rx="338.75" ry="23.84"/>
  <ellipse class="label" cx="526.69" cy="994.96" rx="114.84" ry="8.08"/>
  <path class="brassMedium" d="M384.13,938.85c-19.31-3.41-34.08-22.19-34.08-44.85,0-25.08,18.1-45.41,40.42-45.41a91,91,0,0,1,21.88,1.75l-6,90.26A112.59,112.59,0,0,1,384.13,938.85Z"/>
  <ellipse class="brassDark" cx="406.49" cy="895.19" rx="40.6" ry="45.61"/>
  <g class="steelLight">
    <path d="M533.75,972.32a7.07,7.07,0,1,0-14.11,0V996c.78,1.81,12.94,2,14.11,0Z"/>
    <path d="M371.5,930.1l-29.44,61.13L382.29,937A28.38,28.38,0,0,0,371.5,930.1Z"/>
  </g>
</svg>
