<svg viewBox="0 0 250.64 380.51">
  <polygon class="mapleDarkest" points="131.25 367.63 131.25 286.25 242.24 278.73 242.24 356.43 131.25 367.63"/>
  <polygon class="mapleDark" points="20.95 355.06 131.25 367.63 131.25 286.25 20.95 277.76 20.95 355.06"/>
  <g class="oakMediumLight">
    <path d="M131.25,367.63,21,355.06c-6.39-.22-7.83,4.18-7.76,10L131.3,379.38Z"/>
    <path d="M21,277.76c-7.92-.23-7.12-13.78-.27-14.49l110.79,7.49-.22,15.49Z"/>
  </g>
  <g class="oakMedium">
    <path d="M131.25,367.63l.05,11.75,118.34-12.67c.06-6.12-1.43-9.8-7.4-10.28Z"/>
    <path d="M131.25,286.25l.22-15.49,110.81-6.52c7.55.44,7.64,13.32,0,14.48Z"/>
  </g>
  <polygon class="oakLight" points="20.68 263.27 131.47 270.76 242.28 264.24 131.24 256.28 20.68 263.27"/>
  <g class="steelMediumDark">
    <path d="M198.59,234.29v-24.1a32.68,32.68,0,0,0,6.68-10.68c.74-1.94,1.37-3.89,1.91-5.82v42.39c-.05,6.43-3.94,13.36-8.56,15.18l-9.15-3.19C194.59,244.82,198.62,240.93,198.59,234.29Z"/>
    <path d="M106.51,261.57v3.94c0,1,11.36,1.78,25.39,1.78s25.39-.8,25.39-1.78v-3.94Z"/>
  </g>
  <path class="bronzeDark" d="M108.57,215.06c9.07-4.18,15.71-4.49,22.23-5.17,11-1,26.79.15,36.06-.59,12.95-1.39,19.47-8.8,21.57-21.64,1.1-10.52-2.83-17.9-9.72-21.59-11.85-6.69-26.87-11.32-41.47-15.64-17.53-5.05-35.78-2-54.6,7.45l40.64-89c3.66,17.48,10.43,30.84,21.1,39.71,15.89,13,33.84,20.14,48.08,33.19,16.74,14.25,21.19,35.65,12.81,57.77-7.38,18.69-25.46,23-46.48,19.92-16.36-2.67-36.54-3.35-47,1.4A11.6,11.6,0,0,0,108.57,215.06Z"/>
  <path class="bronzeMediumDark" d="M46.84,35.1C32.23,39.89,20,61.91,20.75,76.75,9.5,84.88,2.8,107.14,7.58,122.7-1.27,133-1,154.53,7.34,165.54c-1.19,16,10.29,28.73,26.57,27.77,10.53,1.91,23.46-5.27,29.92-15.8,10.53-1.19,22-14.36,26.57-26.57,8.37-5.74,17-21.3,20.1-34,6.94-6.7,12.69-24.66,11.73-37.1,5.5-9.82,7.42-26.81,4.07-37.58,2.39-11.25-1.44-25.85-10.77-31.59C108.83.39,88.24-2.72,80.34,6.38,64.79,7.81,50.19,21.46,46.84,35.1Z"/>
  <g class="hornCreaseLine">
    <path d="M119.24,43.37c-4.53,11.8-6.49,23.71-4.13,35.82a60.81,60.81,0,0,0-9.88,36.05C95.35,124,88.8,134.66,86.4,147.62a63.08,63.08,0,0,0-24.11,25"/>
    <path d="M115.53,10.69c-4.19,10.77-3.11,25.44,1.22,40.11"/>
    <path d="M33.91,193.31q12.26-19.49,30.57-24.47"/>
    <path d="M80.34,6.38c1.65,26.06,16,54.93,34.77,72.81"/>
    <path d="M7.34,165.54C29.73,157,62.18,149.11,86.4,147.62"/>
    <path d="M20.75,76.75Q63.22,97,105.23,115.24"/>
    <path d="M7.58,122.7c27.64-2.7,63.19,2.31,84.71,8.42"/>
    <path d="M46.84,35.1C59.56,57,83.42,80.4,107.1,97.31"/>
  </g>
  <g class="steelMediumLight">
    <path d="M167.15,221.52c2.35-1,2.11-12-1-13.34a27.23,27.23,0,0,0,9.82-3c4.64.31,7.39,13.55,3.89,15.83A58.54,58.54,0,0,1,167.15,221.52Z"/>
    <path d="M210.86,179.69c-2.41,2.56-21.53,3.19-24,.37a38.35,38.35,0,0,1-.15,8.84c2.61,2.3,20.46,2.62,23.19-.23A53.23,53.23,0,0,0,210.86,179.69Z"/>
    <path d="M169.62,123.89c3.38,8-5.45,30.91-15.36,33.33-5.93-2.12-13.21-4.16-21.19-6.16,11.37-4.59,20.16-29.64,17.5-39.55A168.06,168.06,0,0,0,169.62,123.89Z"/>
    <path d="M47.55,248.5v7.72c0,3.28,37.76,5.93,84.35,5.93s84.35-2.65,84.35-5.93V248.5Z"/>
  </g>
  <ellipse class="rubberMediumDark" cx="131.9" cy="248.5" rx="84.35" ry="5.94"/>
  <ellipse class="label" cx="131.9" cy="248.5" rx="28.59" ry="2.01"/>
  <path class="brassMedium" d="M96.4,234.53c-4.81-.85-8.49-5.53-8.49-11.17,0-6.25,4.51-11.31,10.07-11.31a22.71,22.71,0,0,1,5.45.44L101.94,235A28.87,28.87,0,0,1,96.4,234.53Z"/>
  <ellipse class="brassDark" cx="101.97" cy="223.65" rx="10.11" ry="11.36"/>
  <g class="steelLight">
    <path d="M133.65,242.86a1.76,1.76,0,1,0-3.51,0v5.9c.2.45,3.22.5,3.51,0Z"/>
    <path d="M93.26,232.35l-7.34,15.22,10-13.5A7.07,7.07,0,0,0,93.26,232.35Z"/>
  </g>
</svg>
