<svg viewBox="0 0 1872.58 188.35">
    <path class="bodyBottom" d="M1842.07,171.12c-.35,7.68-2.69,16.21-8.88,16.73H39.38c-6.18-.52-8.53-9-8.87-16.73Z"/>
    <g class="bodySide">
        <path d="M1860.07,26.33c13.78,16-3,100-11.29,110.87,3.31,6.21.62,28.38-6.71,33.92,12.43-1.78,25.75-38.51,27.94-64.17C1872.83,79.11,1875.14,36.09,1860.07,26.33Z"/>
        <path d="M12.51,26.33c-13.78,16,3,100,11.28,110.87-3.3,6.21-.61,28.38,6.72,33.92C18.07,169.34,4.75,132.61,2.56,107-.25,79.11-2.56,36.09,12.51,26.33Z"/>
    </g>
    <path class="bodyFront" d="M1848.78,137.2c3.31,6.21.62,28.38-6.71,33.92H30.51c-7.33-5.54-10-27.71-6.72-33.92Z"/>
    <path class="bodyTop" d="M23.79,137.2C15.53,126.33-1.27,42.35,12.51,26.33,18.92,20.2,27.3,17.12,38,17.12H1834.6c10.68,0,19.05,3.08,25.47,9.21,13.78,16-3,100-11.29,110.87Z"/>
    <g class="keyBlack">
        <path d="M280.72,90.66c-.07-6.25.95-15.69,2.9-18.75,1-1.45,17.38-1.35,18.16,0,2,3.06,3,12.5,2.9,18.75Z"/>
        <path d="M324.2,90.66c-.07-6.25.95-15.69,2.91-18.75,1-1.45,17.38-1.35,18.15,0,2,3.06,3,12.5,2.91,18.75Z"/>
        <path d="M411.17,90.66c-.07-6.25.95-15.69,2.9-18.75,1-1.45,17.38-1.35,18.16,0,1.95,3.06,3,12.5,2.9,18.75Z"/>
        <path d="M454.65,90.66c-.07-6.25,1-15.69,2.91-18.75,1-1.45,17.37-1.35,18.15,0,2,3.06,3,12.5,2.91,18.75Z"/>
        <path d="M498.13,90.66c-.07-6.25.95-15.69,2.91-18.75,1-1.45,17.38-1.35,18.15,0,2,3.06,3,12.5,2.91,18.75Z"/>
        <path d="M585.1,90.66c-.07-6.25.95-15.69,2.9-18.75,1-1.45,17.38-1.35,18.16,0,2,3.06,3,12.5,2.91,18.75Z"/>
        <path d="M628.58,90.66c-.07-6.25.95-15.69,2.91-18.75,1-1.45,17.38-1.35,18.15,0,2,3.06,3,12.5,2.91,18.75Z"/>
        <path d="M715.55,90.66c-.07-6.25,1-15.69,2.9-18.75,1-1.45,17.38-1.35,18.16,0,1.95,3.06,3,12.5,2.9,18.75Z"/>
        <path d="M759,90.66c-.07-6.25,1-15.69,2.91-18.75,1-1.45,17.38-1.35,18.15,0,2,3.06,3,12.5,2.91,18.75Z"/>
        <path d="M802.51,90.66c-.06-6.25,1-15.69,2.91-18.75,1-1.45,17.38-1.35,18.16,0,1.95,3.06,3,12.5,2.9,18.75Z"/>
        <path d="M889.48,90.66c-.07-6.25.95-15.69,2.91-18.75,1-1.45,17.38-1.35,18.15,0,2,3.06,3,12.5,2.91,18.75Z"/>
        <path d="M933,90.66c-.07-6.25,1-15.69,2.91-18.75,1-1.45,17.38-1.35,18.15,0,2,3.06,3,12.5,2.91,18.75Z"/>
        <path d="M1019.93,90.66c-.07-6.25,1-15.69,2.9-18.75,1-1.45,17.38-1.35,18.16,0,2,3.06,3,12.5,2.91,18.75Z"/>
        <path d="M1063.41,90.66c-.07-6.25.95-15.69,2.91-18.75,1-1.45,17.38-1.35,18.15,0,2,3.06,3,12.5,2.91,18.75Z"/>
        <path d="M1106.9,90.66c-.07-6.25.95-15.69,2.9-18.75,1-1.45,17.38-1.35,18.16,0,2,3.06,3,12.5,2.9,18.75Z"/>
        <path d="M1193.86,90.66c-.07-6.25,1-15.69,2.91-18.75,1-1.45,17.38-1.35,18.15,0,2,3.06,3,12.5,2.91,18.75Z"/>
        <path d="M1237.34,90.66c-.06-6.25,1-15.69,2.91-18.75,1-1.45,17.38-1.35,18.16,0,1.95,3.06,3,12.5,2.9,18.75Z"/>
        <path d="M1324.31,90.66c-.07-6.25,1-15.69,2.91-18.75,1-1.45,17.38-1.35,18.15,0,2,3.06,3,12.5,2.91,18.75Z"/>
        <path d="M1367.79,90.66c-.07-6.25,1-15.69,2.91-18.75,1-1.45,17.38-1.35,18.15,0,2,3.06,3,12.5,2.91,18.75Z"/>
        <path d="M1411.28,90.66c-.07-6.25,1-15.69,2.9-18.75,1-1.45,17.38-1.35,18.16,0,2,3.06,3,12.5,2.9,18.75Z"/>
        <path d="M1498.24,90.66c-.07-6.25,1-15.69,2.91-18.75,1-1.45,17.38-1.35,18.15,0,2,3.06,3,12.5,2.91,18.75Z"/>
        <path d="M1541.73,90.66c-.07-6.25,1-15.69,2.9-18.75,1-1.45,17.38-1.35,18.16,0,2,3.06,3,12.5,2.9,18.75Z"/>
        <path d="M1628.69,90.66c-.07-6.25,1-15.69,2.91-18.75,1-1.45,17.38-1.35,18.15,0,2,3.06,3,12.5,2.91,18.75Z"/>
        <path d="M1672.17,90.66c-.06-6.25,1-15.69,2.91-18.75,1-1.45,17.38-1.35,18.16,0,2,3.06,3,12.5,2.9,18.75Z"/>
        <path d="M1715.66,90.66c-.07-6.25.95-15.69,2.9-18.75,1-1.45,17.38-1.35,18.16,0,2,3.06,3,12.5,2.9,18.75Z"/>
    </g>
    <rect class="keyWhiteBottom" x="244.69" y="90.66" width="1573.78" height="46.54"/>
    <rect class="keyWhiteTop" x="244.69" y="90.66" width="1573.78" height="13.02"/>
    <g class="keyBorderLine">
        <line x1="1731.09" y1="90.66" x2="1731.09" y2="137.2"/>
        <line x1="1687.39" y1="90.66" x2="1687.39" y2="137.2"/>
        <line x1="1774.78" y1="90.66" x2="1774.78" y2="137.2"/>
        <line x1="1643.7" y1="90.66" x2="1643.7" y2="137.2"/>
        <line x1="1600.01" y1="90.66" x2="1600.01" y2="137.2"/>
        <line x1="1556.32" y1="90.66" x2="1556.32" y2="137.2"/>
        <line x1="1512.63" y1="90.66" x2="1512.63" y2="137.2"/>
        <line x1="1468.93" y1="90.66" x2="1468.93" y2="137.2"/>
        <line x1="1425.24" y1="90.66" x2="1425.24" y2="137.2"/>
        <line x1="1381.55" y1="90.66" x2="1381.55" y2="137.2"/>
        <line x1="1337.86" y1="90.66" x2="1337.86" y2="137.2"/>
        <line x1="1294.17" y1="90.66" x2="1294.17" y2="137.2"/>
        <line x1="1250.48" y1="90.66" x2="1250.48" y2="137.2"/>
        <line x1="1206.78" y1="90.66" x2="1206.78" y2="137.2"/>
        <line x1="1163.09" y1="90.66" x2="1163.09" y2="137.2"/>
        <line x1="1119.4" y1="90.66" x2="1119.4" y2="137.2"/>
        <line x1="1075.71" y1="90.66" x2="1075.71" y2="137.2"/>
        <line x1="1032.02" y1="90.66" x2="1032.02" y2="137.2"/>
        <line x1="988.33" y1="90.66" x2="988.33" y2="137.2"/>
        <line x1="944.63" y1="90.66" x2="944.63" y2="137.2"/>
        <line x1="900.94" y1="90.66" x2="900.94" y2="137.2"/>
        <line x1="857.25" y1="90.66" x2="857.25" y2="137.2"/>
        <line x1="813.56" y1="90.66" x2="813.56" y2="137.2"/>
        <line x1="769.87" y1="90.66" x2="769.87" y2="137.2"/>
        <line x1="726.17" y1="90.66" x2="726.17" y2="137.2"/>
        <line x1="682.48" y1="90.66" x2="682.48" y2="137.2"/>
        <line x1="638.79" y1="90.66" x2="638.79" y2="137.2"/>
        <line x1="595.1" y1="90.66" x2="595.1" y2="137.2"/>
        <line x1="551.41" y1="90.66" x2="551.41" y2="137.2"/>
        <line x1="507.72" y1="90.66" x2="507.72" y2="137.2"/>
        <line x1="464.02" y1="90.66" x2="464.02" y2="137.2"/>
        <line x1="420.33" y1="90.66" x2="420.33" y2="137.2"/>
        <line x1="376.64" y1="90.66" x2="376.64" y2="137.2"/>
        <line x1="332.95" y1="90.66" x2="332.95" y2="137.2"/>
        <line x1="289.26" y1="90.66" x2="289.26" y2="137.2"/>
    </g>
    <g class="panel">
        <path d="M242.9,54.79c-10.27,0-10.65-12.18-10.14-22.54C233.5,18.68,238.94.5,249.66.5H1817.14c10.73,0,16.16,18.18,16.9,31.75.51,10.36.14,22.54-10.14,22.54Z"/>
        <path d="M89.85,74.36C67.29,74.36,53,85.12,51,99.69c-.76,7.52,7.27,12.53,20.35,12.7H194.63c13.09-.17,21.11-5.18,20.36-12.7-2-14.57-16.3-25.33-38.86-25.33Z"/>
    </g>
    <g class="dialSide">
        <path d="M657.49,39.83c0,1.15,6.77,3.08,15.12,3.08s15.12-1.93,15.12-3.08V13.28H657.49Z"/>
        <path d="M540.88,39.83c0,1.15,6.77,3.08,15.12,3.08s15.11-1.93,15.11-3.08V13.28H540.88Z"/>
        <path d="M714.08,39.83c0,1.15,6.77,3.08,15.12,3.08s15.11-1.93,15.11-3.08V13.28H714.08Z"/>
        <path d="M770.67,39.83c0,1.15,6.77,3.08,15.11,3.08S800.9,41,800.9,39.83V13.28H770.67Z"/>
        <path d="M827.26,39.83c0,1.15,6.76,3.08,15.11,3.08s15.12-1.93,15.12-3.08V13.28H827.26Z"/>
        <path d="M1233.6,42.17c2.8,2.74,16.12,4.74,36,4.74s33.94-2,36-4.74V10h-72Z"/>
    </g>
    <g class="dialTop">
        <ellipse cx="672.61" cy="13.28" rx="15.12" ry="2.08"/>
        <ellipse cx="556" cy="13.28" rx="15.12" ry="2.08"/>
        <ellipse cx="729.2" cy="13.28" rx="15.12" ry="2.08"/>
        <ellipse cx="785.78" cy="13.28" rx="15.12" ry="2.08"/>
        <ellipse cx="842.37" cy="13.28" rx="15.12" ry="2.08"/>
        <ellipse cx="1269.62" cy="9.96" rx="36.02" ry="3.53"/>
    </g>
    <polygon class="label" points="1720.03 36.99 1420.67 36.99 1421.67 23.65 1722.03 23.65 1720.03 36.99"/>
    <g class="wheel">
        <path d="M181.81,114.88H153c-.86-17,0-39.93,1-44h25.82C182.13,73.71,182.93,98.11,181.81,114.88Z"/>
        <path d="M83.82,114.88h28.81c.86-17,0-39.93-1-44H85.82C83.49,73.71,82.7,98.11,83.82,114.88Z"/>
    </g>
    <g class="wheelDisplayLine">
        <line x1="180.78" y1="73.64" x2="153.57" y2="73.64"/>
        <line x1="181.47" y1="78.42" x2="153.17" y2="78.42"/>
        <line x1="181.87" y1="83.2" x2="152.94" y2="83.2"/>
        <line x1="182.13" y1="87.98" x2="152.78" y2="87.98"/>
        <line x1="182.26" y1="92.76" x2="152.63" y2="92.76"/>
        <line x1="182.31" y1="97.54" x2="152.64" y2="97.54"/>
        <line x1="182.26" y1="102.32" x2="152.63" y2="102.32"/>
        <line x1="182.17" y1="107.1" x2="152.64" y2="107.1"/>
        <line x1="181.98" y1="111.88" x2="152.94" y2="111.88"/>
        <line x1="84.85" y1="73.64" x2="112.05" y2="73.64"/>
        <line x1="84.15" y1="78.42" x2="112.45" y2="78.42"/>
        <line x1="83.76" y1="83.2" x2="112.69" y2="83.2"/>
        <line x1="83.5" y1="87.98" x2="112.85" y2="87.98"/>
        <line x1="83.36" y1="92.76" x2="112.99" y2="92.76"/>
        <line x1="83.32" y1="97.54" x2="112.99" y2="97.54"/>
        <line x1="83.36" y1="102.32" x2="112.99" y2="102.32"/>
        <line x1="83.45" y1="107.1" x2="112.99" y2="107.1"/>
        <line x1="83.64" y1="111.88" x2="112.69" y2="111.88"/>
    </g>
</svg>
