<svg viewBox="0 0 259.99 329.84">
  <path class="head" d="M222.47,24.94c9.95,0,18,64.71,18,144.53S232.42,314,222.47,314s-18-64.71-18-144.54,8.06-144.53,18-144.53"/>
  <path class="shellInner" d="M241,24.94c10,0,18,64.71,18,144.53S250.93,314,241,314H222.47c9.95,0,18-64.71,18-144.54s-8.06-144.53-18-144.53Z"/>
  <path class="shell" d="M24.86,314C11.68,314,1,249.3,1,169.47S11.68,24.94,24.86,24.94H241c-9.95,0-18,64.71-18,144.53S231,314,241,314Z"/>
  <g class="chromeLight">
    <path d="M24.14,169.47C24.14,249.3,34.82,314,48,314c-.47,1.37-2.79,1.73-5,1.37-14.53-2.07-24.74-66.07-24.74-145.9S28.46,25.65,43,23.58c2.22-.36,4.54,0,5,1.36C34.82,24.94,24.14,89.65,24.14,169.47Z"/>
    <path d="M198.15,169.47c0,79.83,7.69,141,17.68,145.73,2.29,1.08,5.9.62,6.64-1.2-9.95,0-18-64.7-18-144.53s8.06-144.53,18-144.53c-.74-1.81-4.35-2.27-6.64-1.19C205.84,28.45,198.15,89.65,198.15,169.47Z"/>
    <path d="M63.41,225.71c0-2.9-22.53-7.49-22.53,0C40.88,235.86,63.41,228.61,63.41,225.71Z"/>
    <path d="M63.7,111.18c0,2.9-22.52,7.5-22.52,0C41.18,101,63.7,108.28,63.7,111.18Z"/>
    <path d="M75.56,38.59c0,1.79-22.53,2.79-22.53,0C53,23,75.56,35.69,75.56,38.59Z"/>
    <path d="M75.56,300.36c0-1.79-22.53-2.79-22.53,0C53,316,75.56,303.26,75.56,300.36Z"/>
    <path d="M162.14,225.71c0-2.9,22.53-7.49,22.53,0C184.67,235.86,162.14,228.61,162.14,225.71Z"/>
    <path d="M162.43,111.18c0,2.9,22.53,7.5,22.53,0C185,101,162.43,108.28,162.43,111.18Z"/>
    <path d="M171.35,38.59c0,1.79,22.52,2.79,22.52,0C193.87,23,171.35,35.69,171.35,38.59Z"/>
    <path d="M171.35,300.36c0-1.79,22.52-2.79,22.52,0C193.87,316,171.35,303.26,171.35,300.36Z"/>
  </g>
  <path class="pad" d="M218.42,305.14c-1-.63-8.6,3.16-8.66,4.22-.61,5.77.76,12,4.27,18.81,1.48,3,18.06-5.05,16.58-8.09C227.33,313.36,223.33,308.27,218.42,305.14Z"/>
  <path class="steelLight" d="M190.32,266.12,182,214.52l-45.74.2c-2.27.06-2.47-7.16-.19-7.22l51.63-.11,9.41,57.37,20,41c.49,1-5.53,3.93-6,2.93Z"/>
  <path class="steelDark" d="M150.7,212.63l.27-4.2a10,10,0,0,1,10.46-9.63c5.74,0,10.37,4.41,10.34,9.76l-.27,4.2Z"/>
  <ellipse class="steelMedium" cx="161.1" cy="212.21" rx="9.7" ry="10.4" transform="translate(-52.17 371.91) rotate(-89.62)"/>
  <g class="chromeDark">
    <polygon points="180.87 17.45 174.99 17.45 172.35 1 178.22 1 180.87 17.45"/>
    <path d="M184.18,24.94H181.5c-1.26,0-2.86,1.75-3.2,3.51v-11h5.88Z"/>
  </g>
  <g class="chromeMedium">
    <rect x="144.74" y="17.45" width="33.56" height="11"/>
    <polygon points="174.99 17.45 148.05 17.45 150.69 1 172.35 1 174.99 17.45"/>
  </g>
</svg>
