<svg viewBox="0 0 692.78 661.52">
    <path class="paperStackLight" d="M1.61,225.09c78.52,143.22,170.2,309.69,242.56,421.19C390.53,688.2,527,629.13,676.05,537.48l8.18-8.54L2.07,216.63Z"/>
    <path class="paperLight" d="M252.81,634.06C388.64,664,480.75,648,684.23,528.94Q544.34,263.33,396.44,2.08,203.89,117.74,2.07,216.63C89.88,376.6,185.51,539.48,252.81,634.06Z"/>
    <g class="wireDisplayLine">
        <path d="M411,27.89c7.15-1.49,12.26-5.11,12-8.87-.3-4.42-8-7.34-17.09-6.54s-21.41,7.08-15,11.88"/>
        <path d="M423.54,50.07c7.15-1.49,12.26-5.12,12-8.87-.3-4.43-7.94-7.35-17.08-6.55s-21.4,7.08-15,11.88"/>
        <path d="M436,72.27c7.14-1.49,12.25-5.12,12-8.88C447.73,59,440.09,56,431,56.84s-21.4,7.07-15,11.88"/>
        <path d="M448.46,94.48c7.14-1.49,12.26-5.12,12-8.88-.29-4.43-7.92-7.36-17.05-6.56s-21.39,7.07-15,11.88"/>
        <path d="M460.87,116.71c7.14-1.49,12.26-5.12,12-8.88-.28-4.43-7.9-7.37-17-6.57s-21.4,7.06-15,11.88"/>
        <path d="M473.26,139c7.13-1.48,12.25-5.11,12-8.88-.28-4.43-7.89-7.37-17-6.58s-21.39,7.06-15,11.89"/>
        <path d="M485.61,161.21c7.13-1.48,12.25-5.11,12-8.88-.28-4.44-7.88-7.38-17-6.59s-21.38,7.06-15,11.89"/>
        <path d="M497.94,183.49c7.13-1.48,12.25-5.11,12-8.88-.27-4.44-7.87-7.39-17-6.6s-21.38,7.06-15,11.89"/>
        <path d="M510.23,205.78c7.13-1.48,12.25-5.11,12-8.88-.27-4.45-7.85-7.39-17-6.61s-21.37,7.06-15,11.89"/>
        <path d="M522.5,228.09c7.12-1.48,12.25-5.11,12-8.88-.26-4.45-7.84-7.4-16.95-6.62s-21.36,7-15,11.89"/>
        <path d="M534.74,250.41c7.12-1.47,12.24-5.11,12-8.88-.26-4.45-7.83-7.41-16.93-6.63s-21.36,7-15,11.9"/>
        <path d="M546.94,272.76c7.12-1.48,12.25-5.11,12-8.89-.25-4.45-7.82-7.41-16.91-6.64s-21.36,7-15,11.9"/>
        <path d="M559.12,295.11c7.12-1.47,12.25-5.11,12-8.89-.25-4.45-7.81-7.41-16.9-6.64s-21.35,7.05-15,11.9"/>
        <path d="M571.27,317.49c7.12-1.48,12.24-5.11,12-8.89-.24-4.46-7.79-7.43-16.88-6.66s-21.35,7.05-15,11.9"/>
        <path d="M583.39,339.87c7.11-1.47,12.24-5.1,12-8.89-.24-4.45-7.79-7.43-16.87-6.66s-21.35,7-15,11.91"/>
        <path d="M595.48,362.28c7.11-1.47,12.24-5.11,12-8.89-.24-4.46-7.78-7.44-16.85-6.67s-21.34,7-15,11.9"/>
        <path d="M607.54,384.7c7.11-1.47,12.24-5.1,12-8.89-.23-4.47-7.76-7.45-16.83-6.68s-21.34,7-15,11.91"/>
        <path d="M620,406.87c7.11-1.47,12.23-5.1,12-8.89-.23-4.47-7.75-7.45-16.82-6.69s-21.33,7-15.05,11.91"/>
        <path d="M632,429.33c7.1-1.47,12.24-5.11,12-8.9-.23-4.47-7.74-7.46-16.81-6.7s-21.32,7-15,11.92"/>
        <path d="M644,451.8c7.1-1.47,12.24-5.11,12-8.9-.22-4.47-7.73-7.47-16.79-6.71s-21.32,7-15,11.92"/>
        <path d="M655.93,474.28c7.09-1.47,12.23-5.1,12.05-8.9-.22-4.47-7.72-7.47-16.77-6.71s-21.32,7-15.07,11.91"/>
        <path d="M667.84,496.78c7.1-1.46,12.23-5.1,12-8.9-.21-4.48-7.7-7.48-16.75-6.72s-21.31,7-15.07,11.92"/>
        <path d="M679.72,519.3c7.1-1.47,12.23-5.11,12.06-8.91-.21-4.48-7.69-7.48-16.74-6.73s-21.31,7-15.07,11.92"/>
    </g>
    <path class="skinIndian" d="M349.45,175.68c5.68.54,19-.05,25.36-.77-3.51,7.08-10.57,27.28-12.47,33.33ZM544.76,515.35c-17.2-45.85-45.32-76.71-74.07-101.55-11.95-10.33-20.88-18.83-29.44-32.71-10.91-17.7-24-56.43-33.4-75.18-6.76-13.49-10.87-27-7.56-40.37,10.37-42,23-86.1,22.83-128.86,0-10.28-7.08-15.81-17.85-14.7-26.79,2.77-53.9,12-81.29,24.66C236,71.81,144.91,204.58,271.2,283.2c-8.36,7.75-17.7,13.57-26,20.23a43.8,43.8,0,0,0-15.78,28.23c-3.46,23.62-3.16,48.22-1.81,73.39-14.39-12.15-38.85-20-58.46-41.78.75-12.4-.68-25.1-11.88-36.3-4.7-4.7-16.24-8.86-16.63-14.63-.36-5.41-8.26-6.21-12.55-7.95-7.12-2.88-16-1.22-20.39,4.28-4.18,5.3-3.29,10.57.86,15.93-2,3.21-1.93,6.7.11,9.33-9.24,11-4.34,23.25,3.63,31.81,13.8,14.81,32.08,14.65,40.36,19.83,16.75,16.79,29.5,28.64,44.61,45.43,16,17.79,39.5,28.6,53.61,29.3a15.15,15.15,0,0,0,14.64-7.87c9.79-16.86,9.1-38,11.13-57.74,22.55,22.42,41.46,48.93,46.67,83.28,4.33,28.48,11.86,56.07,30.29,81.81,14.66,20.48,29.9,31.28,50.82,49.47C416.16,602.38,529.81,529.11,544.76,515.35Z"/>
    <g class="bodyOverlapLine">
        <path d="M323.26,241.36c-3.88,7.73-5.36,11.41-11.41,15.52-11.72,6.65-33.46,6-45.5,2.32"/>
        <path d="M374.81,174.91c2.41-4.72,5.6-10.66,8.58-15.78"/>
        <path d="M227.63,405.05a55.6,55.6,0,0,1,9.58,10.32"/>
        <path d="M258.32,343.87c5.54,11.87,7.8,27.13,8.95,40.38"/>
        <path d="M108.69,333.93c4.72-3.88,10-6.85,15.85-5.55s6.7,5.56,11.94,11.34c4.23,5.61-1.48,11.31-6.7,12.17-4.15.68-7.32-1-9.7-4.15"/>
        <path d="M108.58,324.6c2.25-3.66,5.27-7.23,10.1-8.08,8.18-1.44,11.81,6,18.42,9,5.39,2.48,5,10.59-.62,14.16"/>
        <path d="M140.66,312.34c0,5.05-5.49,9.37-10.35,8.47"/>
        <path d="M129.78,351.89c4.41,3.12,14.88,2.87,23.69,13.76"/>
        <path d="M351.29,377.73c.12-13.21-7.44-26.81-16.26-34.66"/>
        <path d="M366.1,368.72c-11.27-7.3-17.61-19.62-19.2-33.06"/>
        <path d="M453.16,531.29c13.58,15.46,24.51,29.69,37.18,46.41"/>
        <line x1="472.7" y1="458.95" x2="468.54" y2="468.29"/>
        <line x1="395.28" y1="522.57" x2="383.97" y2="522.48"/>
        <line x1="518.09" y1="525.32" x2="510.65" y2="529.53"/>
        <line x1="440.7" y1="571.13" x2="433.83" y2="575.57"/>
        <path d="M396.66,440.94c4.63.42,7.17,6.34,5.91,7.49-1.67,1.51-4.8-.9-5-3.72"/>
    </g>
    <g class="skinDisplayLine">
        <path d="M307.06,182.43c-6.21,7-13.45,12.1-22.67,13.34"/>
        <path d="M271.68,203.48c-6.21,7-13.77,11.45-23,12.68"/>
        <path d="M298.19,215.15c-1.79,5.79-9,9.9-15.65,10"/>
        <path d="M311.52,220.54c-6.85,10.41-17.74,17.08-31.66,21"/>
        <path d="M308.87,233.45c-.27,5.33-8.86,11.3-14.84,9.85"/>
    </g>
    <g class="lingerie">
        <path d="M518.09,525.32Q496.62,491.53,472.7,459a264.1,264.1,0,0,1,16-28.53l-7.94-7.61c-15.51,27.09-30,50.55-54.32,66.08-29.58,18.89-65.43,22.9-95.54,24l4.64,13.27c18.56-3.53,35-3.48,48.41-3.64,16.76,20.58,33.65,33,49.86,53.09C417,587,406.46,601.18,404.45,609.25c6,5.13,10.8,8,17.13,12.58,17.59-24,53.83-40.58,68.76-44.13,8.73-10,41.57-30.92,62.8-37.37q-3.87-12.21-8.38-25C536.77,516.61,527.37,520.38,518.09,525.32ZM475.6,558.75c-6.26.84-22.36,4.76-34.9,12.38-15.18-18.65-30.35-31-45.42-48.56,38.93,1.07,51.5,13.78,57.88,8.72,9.5-7.53-1.06-23.22,15.38-63q22.6,30.16,42.11,61.24C494.63,539.16,480.2,551.31,475.6,558.75Z"/>
        <path d="M339.7,247.7c17.83,17.29,37.49,37.86,57.71,54.59.23,17.28-21.79,51.15-38.17,60.54a23,23,0,0,1-9,5.26c-8.77,6.73-57.67,15.28-74.71,7.27,1.77-26.63-5.82-60.3-8-89l-4.74,3.82c-1.73,25.87,8.28,53.55,4.42,81-3.93,28,18.9,55.95,41.16,52.47,23.54-3.68,40.1-19.62,42.88-46a47.51,47.51,0,0,0,14.81-9c20.42,10.19,47.68,4.54,59.32-14.19,15.15-24.38,2.95-44.79-27-63.25-19.15-11.78-33.55-29.11-52.09-46Z"/>
    </g>
    <path class="hairBlack" d="M260.27,162.3c4.1,18.37-1.89,42.16-15.93,33.1-4.54,18.89-8.26,33.2-17.67,23.08-15.82,5.05,7.14,35.44,19.46,29.76a53,53,0,0,0,20.22,11c8.6,16,7.82,25.3-1.36,29.79-3.69,2-14.67,4.61-19.62-1-4.81,10.24-20.2,7.45-30.2-4.86-9.74-12-17-28.4-19.92-47.33-2.5-16.36-4.29-32.07-6.17-46.92-4.31-34,15.61-58.21,44.44-64.12,23.61-24.67,51.29-13.69,72.17,7.12,11.73,11.69,23.35,22.37,35.11,32.42,26.06,22.3,30.36,51.47,11.4,56.93,5.14,10.53-9.12,36.1-22.42,31.78-2.63-1.47-4.37-5.85-6.52-11.66,7.45-12.89,9.39-31.33,2.5-48.71-4.23-10.68-11-16-15.67-26.26-4.06,1.32-9.89.56-15.29-1.67C300.72,180.78,279.29,179.61,260.27,162.3Z"/>
    <rect class="pencilBody" x="431.02" y="514.13" width="21.16" height="226.74" transform="translate(-239.17 981.5) rotate(-82.34)"/>
    <g class="pencilMetal">
        <polygon points="298.56 614.26 328.32 619.27 330.17 605.49 300.15 602.46 298.56 614.26"/>
        <rect x="327.94" y="617.97" width="84.71" height="13.84" transform="translate(653.99 1293.56) rotate(-172.34)"/>
        <polygon points="555.37 632.13 597.4 648.45 552.55 653.09 555.37 632.13"/>
    </g>
</svg>
