<svg viewBox="0 0 87.11 52.58">
  <path class="antennaMedium" d="M1.46,1.59q-.61,17.9-.41,35.78c0,1,1.17,1.29,2.61,1.29s2.57-.26,2.6-1.29C6.4,24,6.23,12.2,5.85,1.59c0-.43-1.23-.59-2.2-.59S1.48,1.18,1.46,1.59Z"/>
  <g class="phoneMedium">
    <path d="M44.7,28.21c4,1.17,19.94,1,23.85-.07l-4.12,6.58h-15Z"/>
    <path d="M69.41,28.09a60.72,60.72,0,0,1,9.22.82c3.08.58,5.13,3,6.1,5.92a26.52,26.52,0,0,1,1.21,11.38A4.53,4.53,0,0,1,81.82,50a63.43,63.43,0,0,1-9,.6Z"/>
    <path d="M51.5,35.09A40.22,40.22,0,0,1,45.82,29c-.58-.78-1-.82-1.9-1A93,93,0,0,0,33.4,26.88l5,8.23Z"/>
  </g>
  <path class="phoneDark" d="M75.86,34.33c-1-3.11-3-5.86-6.45-6.24a1.8,1.8,0,0,0-1.94.89C66,31.41,65,33.06,63.64,33.78s-22.56.9-23.8,0-3-3.34-4.63-6a2.07,2.07,0,0,0-1.81-.92c-7.15.17-14.3.56-21.45,1.21-3.49.38-5.42,3.13-6.45,6.24A29.38,29.38,0,0,0,4.23,46.6a4.6,4.6,0,0,0,4.35,4,541.37,541.37,0,0,0,64.2,0,4.59,4.59,0,0,0,4.35-4A29.38,29.38,0,0,0,75.86,34.33Z"/>
</svg>
