<svg viewBox="0 0 83.81 112.54">
  <path class="antennaMedium" d="M1.46,2.91q-.61,10.26-.41,20.5a2.46,2.46,0,0,0,2.61,2.27,2.46,2.46,0,0,0,2.6-2.27c.14-7.68,0-14.42-.41-20.5Z"/>
  <g class="antennaLight">
    <ellipse cx="3.66" cy="2.91" rx="2.2" ry="1.91"/>
    <path d="M6.31,19c0,1.43,0,2.9,0,4.4h2A18.78,18.78,0,0,1,9.09,19Z"/>
  </g>
  <path class="phoneLight" d="M17.53,11.64c-4.33,1.19-8.33,4.84-8.92,9.3a283.49,283.49,0,0,0-.82,71.67c1,9.12,7.59,16.91,16.68,18.23,6.53.94,33.25.94,39.78,0,9.08-1.32,15.65-9.11,16.68-18.23a284,284,0,0,0-.82-71.67c-.59-4.46-4.59-8.11-8.92-9.3C62.26,9.18,26.45,9.18,17.53,11.64Z"/>
  <path class="phoneMedium" d="M43.52,20c6.37-3.07,22.53-3,28.21,0V98.32H44.36Z"/>
  <g class="phoneDark">
    <path d="M71.73,20c-1.24.9-2.93,10.11-2.91,11.64,1,13,.55,36.59.25,51,.08,7.81-.86,10.44-2.54,12.77.38,1.16,4.11,5.23,5,5.57,1.57-1.83,3.6-8.06,3.77-13.23,1-18.32.91-49.6-.74-62.85C74.3,22.55,73.19,20.76,71.73,20Z"/>
    <path d="M43.52,20c1.25.9,2.93,10.11,2.92,11.64-1,13-.56,36.59-.25,51-.09,7.81.86,10.44,2.53,12.77-.37,1.16-4.11,5.23-4.95,5.57C42.2,99.22,40.13,93,40,87.82c-1-18.32-.9-49.6.75-62.85C41,22.55,42.07,20.76,43.52,20Z"/>
    <path d="M66.53,95.48c-2.87,1.06-14.93,1.06-17.81,0-.37,1.16-4.11,5.23-4.95,5.57,3.47,3.11,24.65,3.19,27.71,0C70.64,100.71,66.91,96.64,66.53,95.48Z"/>
  </g>
  <path class="buttonLarge" d="M17.85,92.46a41.23,41.23,0,0,0,11.74,0,1.74,1.74,0,0,0,1.49-1.73V84.3a1.74,1.74,0,0,0-1.5-1.73,43.32,43.32,0,0,0-11.71,0,1.75,1.75,0,0,0-1.51,1.73v6.43A1.75,1.75,0,0,0,17.85,92.46Z"/>
  <g class="buttonSmall">
    <path d="M18.58,57.23a2.12,2.12,0,1,0,0-4.24H15.13a2.12,2.12,0,1,0,0,4.24Z"/>
    <path d="M32.24,57.23a2.12,2.12,0,1,0,0-4.24H28.79a2.12,2.12,0,1,0,0,4.24Z"/>
  </g>
</svg>
