<svg viewBox="0 0 100.57 135.19">
  <path class="antennaMedium" d="M1.55,3.3Q.82,15.66,1.06,28A3,3,0,0,0,4.2,30.74,3,3,0,0,0,7.34,28c.16-9.25,0-17.37-.49-24.7Z"/>
  <g class="antennaLight">
    <ellipse cx="4.2" cy="3.3" rx="2.65" ry="2.3"/>
    <path d="M7.39,22.69c0,1.73,0,3.5,0,5.31H9.78a22.44,22.44,0,0,1,1-5.31Z"/>
  </g>
  <path class="phoneLight" d="M20.92,13.82c-5.22,1.43-10,5.84-10.76,11.2a342.18,342.18,0,0,0-1,86.35c1.24,11,9.15,20.38,20.1,22,7.87,1.14,40.05,1.14,47.92,0,11-1.58,18.86-11,20.1-22a342.18,342.18,0,0,0-1-86.35c-.72-5.36-5.54-9.77-10.76-11.2C74.81,10.86,31.67,10.86,20.92,13.82Z"/>
  <path class="phoneMedium" d="M52.23,23.93c7.67-3.69,27.14-3.61,34,0v94.33h-33Z"/>
  <g class="phoneDark">
    <path d="M86.22,23.93c-1.5,1.09-3.53,12.19-3.51,14,1.23,15.62.66,44.08.3,61.48.1,9.4-1,12.57-3.05,15.38.45,1.4,4.94,6.3,6,6.72,1.89-2.22,4.34-9.72,4.54-15.94,1.24-22.08,1.09-59.77-.9-75.73C89.31,27,88,24.8,86.22,23.93Z"/>
    <path d="M52.23,23.93c1.5,1.09,3.53,12.19,3.51,14-1.23,15.62-.66,44.08-.3,61.48-.1,9.4,1,12.57,3.05,15.38-.45,1.4-4.94,6.3-6,6.72-1.89-2.22-4.39-9.71-4.54-15.94-1.24-22.08-1.09-59.77.9-75.73C49.14,27,50.48,24.8,52.23,23.93Z"/>
    <path d="M80,114.83c-3.47,1.28-18,1.28-21.47,0-.45,1.4-4.94,6.3-6,6.72,4.18,3.74,29.7,3.83,33.39,0C84.9,121.13,80.41,116.23,80,114.83Z"/>
  </g>
  <path class="buttonLarge" d="M21.3,111.19a50.06,50.06,0,0,0,14.15,0,2.09,2.09,0,0,0,1.79-2.08v-7.75a2.1,2.1,0,0,0-1.81-2.09,52.91,52.91,0,0,0-14.11,0,2.1,2.1,0,0,0-1.81,2.09v7.75A2.09,2.09,0,0,0,21.3,111.19Z"/>
  <g class="buttonSmall">
    <path d="M22.18,68.74a2.56,2.56,0,1,0,0-5.11H18a2.56,2.56,0,1,0,0,5.11Z"/>
    <path d="M38.64,68.74a2.56,2.56,0,1,0,0-5.11H34.48a2.56,2.56,0,1,0,0,5.11Z"/>
  </g>
</svg>
