<svg viewBox="0 0 330.56 445.95">
  <path class="antennaMedium" d="M2.85,8.68Q.39,49.84,1.21,91c0,5,4.68,9.11,10.46,9.11S22.13,96,22.13,91C22.67,60.16,22,33.1,20.49,8.68Z"/>
  <g class="antennaLight">
    <ellipse cx="11.67" cy="8.68" rx="8.82" ry="7.68"/>
    <path d="M22.31,73.31c0,5.76-.07,11.65-.18,17.7h8.12c.08-3.36,1.87-15.27,3.24-17.7Z"/>
  </g>
  <path class="phoneLight" d="M67.39,43.72C50,48.51,34,63.18,31.55,81.06,18.17,180.72,17.3,271,28.28,368.91c4.11,36.63,30.49,67.92,67,73.2,26.25,3.79,133.52,3.79,159.76,0,36.49-5.28,62.87-36.57,67-73.2C333,271,332.1,180.72,318.72,81.06c-2.4-17.88-18.45-32.55-35.84-37.34C247,33.86,103.23,33.86,67.39,43.72Z"/>
  <path class="phoneMedium" d="M171.78,77.45c25.56-12.31,90.45-12.06,113.27,0V391.86H175.13Z"/>
  <g class="phoneDark">
    <path d="M285.05,77.45c-5,3.62-11.75,40.62-11.69,46.78,4.1,52.08,2.22,146.93,1,204.93.34,31.35-3.44,41.92-10.17,51.27,1.49,4.67,16.48,21,19.86,22.39,6.31-7.37,14.47-32.39,15.15-53.13,4.13-73.58,3.63-199.21-3-252.41C295.36,87.53,290.91,80.35,285.05,77.45Z"/>
    <path d="M171.78,77.45c5,3.62,11.75,40.62,11.69,46.78-4.1,52.08-2.22,146.93-1,204.93-.34,31.35,3.48,41.92,10.17,51.27-1.5,4.67-16.49,21-19.86,22.39-6.31-7.37-14.65-32.36-15.16-53.13-4.12-73.58-3.62-199.21,3-252.41C161.46,87.53,165.92,80.35,171.78,77.45Z"/>
    <path d="M264.19,380.43c-11.55,4.27-60,4.27-71.55,0-1.5,4.67-16.49,21-19.86,22.39,13.91,12.47,99,12.79,111.27,0C280.67,401.45,265.68,385.1,264.19,380.43Z"/>
  </g>
  <path class="buttonLarge" d="M68.68,368.31a167,167,0,0,0,47.15,0,7,7,0,0,0,6-6.94V335.53a7,7,0,0,0-6-6.95,174.53,174.53,0,0,0-47,0,7,7,0,0,0-6,6.95v25.84A7,7,0,0,0,68.68,368.31Z"/>
  <g class="buttonSmall">
    <path d="M71.59,226.81c11.91,0,11.91-17,0-17H57.74c-11.91,0-11.91,17,0,17Z"/>
    <path d="M126.46,226.81c11.91,0,11.91-17,0-17H112.6c-11.9,0-11.9,17,0,17Z"/>
  </g>
</svg>
