<svg viewBox="0 0 87.11 52.58">
  <path class="phoneLight" d="M35.92,22.44c1.58-3.52,4.61-4.72,9.54-5.35,7.74-1.08,18.18-.71,23.67,1,4,1.19,7.83,3.38,9.73,5.7L62.41,22.44Z"/>
  <g class="phoneMedium">
    <path d="M62.41,22.44C66.29,20.21,75,21,78.86,23.78c1.39,1.63,2.46,6.08,1.43,8.56-.8,1.44-18.26,4.39-20.69,1.92Z"/>
    <path d="M69.41,28.09a60.72,60.72,0,0,1,9.22.82c3.08.58,5.13,3,6.1,5.92a26.52,26.52,0,0,1,1.21,11.38A4.53,4.53,0,0,1,81.82,50a63.43,63.43,0,0,1-9,.6Z"/>
    <path d="M51.5,35.09A40.22,40.22,0,0,1,45.82,29c-.58-.78-1-.82-1.9-1A93,93,0,0,0,33.4,26.88l5,8.23Z"/>
  </g>
  <g class="phoneDark">
    <path d="M75.86,34.33c-1-3.11-3-5.85-6.45-6.24-.94-.08-1.86.06-1.94.89-.38,4.23-3.65,4.59-8.24,5.39-1.38.25-18.15.31-19.39-.59s-3-3.34-4.63-6a2.07,2.07,0,0,0-1.81-.92c-7.15.17-14.3.56-21.45,1.21-3.49.39-5.42,3.13-6.45,6.24A29.38,29.38,0,0,0,4.23,46.6a4.6,4.6,0,0,0,4.35,4,541.37,541.37,0,0,0,64.2,0,4.59,4.59,0,0,0,4.35-4A29.38,29.38,0,0,0,75.86,34.33Z"/>
    <path d="M62.29,32.74c-1.62,3.62-25.08,3-26.62-.6-.89-1.94-1.07-8.37.25-9.7,2.62-2.11,24.09-2,26.49,0C62.84,26,63.25,30.73,62.29,32.74Z"/>
  </g>
  <path class="antennaLight" d="M57.48,30.69a3,3,0,1,0,0-6.05H52.56a3,3,0,1,0,0,6.05Z"/>
  <g class="antennaMedium">
    <path d="M55.46,30a2.12,2.12,0,1,0,0-4.24H52A2.12,2.12,0,1,0,52,30Z"/>
    <path d="M5.5,34.33a13.73,13.73,0,0,1,.8-1.93c0-11.37-.12-21.53-.45-30.81,0-.43-1.23-.59-2.2-.59s-2.17.18-2.19.59q-.61,17.9-.41,35.78c0,1,1.33,1.26,3.41,1.26A27.77,27.77,0,0,1,5.5,34.33Z"/>
  </g>
</svg>
