<svg viewBox="0 0 53.44 32.17">
  <path class="antennaMedium" d="M.78.86q-.37,11-.25,22.05c0,.61.72.8,1.61.8s1.58-.16,1.6-.8c.09-8.26,0-15.51-.25-22C3.47.6,2.73.5,2.14.5S.79.61.78.86Z"/>
  <g class="phoneMedium">
    <path d="M27.43,17.27c2.47.72,12.28.62,14.69-.05l-2.54,4.06H30.34Z"/>
    <path d="M42.65,17.19a38.05,38.05,0,0,1,5.68.51,5,5,0,0,1,3.76,3.64,16.53,16.53,0,0,1,.75,7,2.81,2.81,0,0,1-2.55,2.35,39.32,39.32,0,0,1-5.56.37Z"/>
    <path d="M31.61,21.51a24.12,24.12,0,0,1-3.49-3.74c-.36-.48-.59-.5-1.17-.63a57.5,57.5,0,0,0-6.49-.69l3.08,5.06Z"/>
  </g>
  <path class="phoneDark" d="M46.62,21c-.63-1.91-1.82-3.6-4-3.84a1.1,1.1,0,0,0-1.19.55c-.88,1.5-1.52,2.51-2.37,3s-13.89.55-14.66,0A14.63,14.63,0,0,1,21.58,17a1.25,1.25,0,0,0-1.12-.56q-6.6.15-13.22.74c-2.14.24-3.33,1.93-4,3.84a18.11,18.11,0,0,0-.79,7.56,2.84,2.84,0,0,0,2.68,2.49,334.69,334.69,0,0,0,39.56,0,2.84,2.84,0,0,0,2.68-2.49A18.11,18.11,0,0,0,46.62,21Z"/>
</svg>
