<svg viewBox="0 0 330.56 470.62">
    <path class="antennaMedium" d="M2.85,33.35Q.39,74.51,1.21,115.67c0,5,4.68,9.12,10.46,9.12s10.46-4.08,10.46-9.12c.54-30.84-.13-57.91-1.64-82.32Z"/>
    <g class="antennaLight">
        <ellipse cx="11.67" cy="33.35" rx="8.82" ry="7.68"/>
        <path d="M22.31,98c0,5.76-.07,11.65-.18,17.69h8.12c.08-3.35,1.87-15.26,3.24-17.69Z"/>
        <path d="M268.57,3.31c-2.32-3-19.22-3.14-22.14,0l-4.14,66.21,30.45,4.14Z"/>
    </g>
    <path class="phoneLight" d="M67.39,68.39C50,73.18,34,87.85,31.55,105.73c-13.38,99.66-14.25,190-3.27,287.84,4.11,36.64,30.49,67.93,67,73.2,26.25,3.8,133.52,3.8,159.76,0,36.49-5.27,62.87-36.56,67-73.2,11-97.86,10.11-188.18-3.27-287.84-2.4-17.88-18.45-32.55-35.84-37.34C247,58.52,103.23,58.52,67.39,68.39Z"/>
    <path class="phoneMedium" d="M171.78,102.12c25.56-12.31,90.45-12.07,113.27,0V416.53H175.13Z"/>
    <g class="phoneDark">
        <path d="M285.05,102.12c-5,3.61-11.75,40.62-11.69,46.78,4.1,52.07,2.22,146.93,1,204.93.34,31.34-3.44,41.92-10.17,51.27,1.49,4.66,16.48,21,19.86,22.39,6.31-7.37,14.47-32.39,15.15-53.14,4.13-73.57,3.63-199.2-3-252.4C295.36,112.19,290.91,105,285.05,102.12Z"/>
        <path d="M171.78,102.12c5,3.61,11.75,40.62,11.69,46.78-4.1,52.07-2.22,146.93-1,204.93-.34,31.34,3.48,41.92,10.17,51.27-1.5,4.66-16.49,21-19.86,22.39-6.31-7.37-14.65-32.37-15.16-53.14-4.12-73.57-3.62-199.2,3-252.4C161.46,112.19,165.92,105,171.78,102.12Z"/>
        <path d="M264.19,405.1c-11.55,4.27-60,4.27-71.55,0-1.5,4.66-16.49,21-19.86,22.39,13.91,12.47,99,12.79,111.27,0C280.67,426.11,265.68,409.76,264.19,405.1Z"/>
    </g>
    <path class="phoneLight" d="M228.25,57.38a121.39,121.39,0,0,1,36.87,5.78c14,5.29,22.9,15,26.59,30.88,5.07,21.91,4.05,45.44.76,65-3.64,20-13.26,29.24-13.39,46.44V396.18c.42,17.77-4.88,27.61-19.63,30.26-3.59.57-19.65.85-31.2.85s-27.6-.28-31.19-.85C182.3,423.79,177,414,177.43,396.18V205.44C177.3,188.24,167.68,179,164,159c-3.29-19.52-4.32-43,.76-65,3.69-15.93,12.59-25.59,26.58-30.88A121.44,121.44,0,0,1,228.25,57.38Z"/>
    <path class="buttonLarge" d="M68.68,393a167.73,167.73,0,0,0,47.15,0,7,7,0,0,0,6-6.94V360.2a7,7,0,0,0-6-7,175.35,175.35,0,0,0-47,0,7,7,0,0,0-6,7V386A7,7,0,0,0,68.68,393Z"/>
    <g class="buttonSmall">
        <path d="M71.59,251.48c11.91,0,11.91-17,0-17H57.74c-11.91,0-11.91,17,0,17Z"/>
        <path d="M126.46,251.48c11.91,0,11.91-17,0-17H112.6c-11.9,0-11.9,17,0,17Z"/>
    </g>
</svg>
