<svg viewBox="0 0 104.55 62.94">
  <path class="phoneLight" d="M43.07,26.84c1.9-4.25,5.55-5.69,11.5-6.46,9.32-1.29,21.9-.84,28.52,1.19,4.84,1.45,9.42,4.08,11.71,6.88L75,26.84Z"/>
  <g class="phoneMedium">
    <path d="M75,26.84c4.68-2.7,15.19-1.79,19.82,1.61,1.68,2,3,7.32,1.73,10.31-1,1.73-22,5.29-24.93,2.32Z"/>
    <path d="M83.43,33.64a72.76,72.76,0,0,1,11.1,1c3.71.69,6.18,3.58,7.35,7.13a32.14,32.14,0,0,1,1.46,13.71,5.47,5.47,0,0,1-5,4.61,75.58,75.58,0,0,1-10.89.71Z"/>
    <path d="M61.84,42.07A47,47,0,0,1,55,34.78c-.7-.94-1.16-1-2.3-1.24A112.64,112.64,0,0,0,40,32.18l6,9.91Z"/>
  </g>
  <g class="phoneDark">
    <path d="M91.19,41.15c-1.24-3.73-3.56-7-7.76-7.51-1.14-.1-2.25.08-2.34,1.07-.46,5.09-4.41,5.53-9.93,6.49-1.67.3-21.87.38-23.37-.7s-3.65-4-5.57-7.21A2.47,2.47,0,0,0,40,32.18q-12.93.3-25.85,1.46c-4.2.46-6.53,3.78-7.76,7.51A35.24,35.24,0,0,0,4.89,55.93a5.53,5.53,0,0,0,5.24,4.86,648.09,648.09,0,0,0,77.35,0,5.54,5.54,0,0,0,5.25-4.86A35.4,35.4,0,0,0,91.19,41.15Z"/>
    <path d="M74.84,39.24c-2,4.37-30.22,3.58-32.07-.72-1.07-2.34-1.29-10.09.3-11.68,3.15-2.55,29-2.39,31.91,0C75.51,31.14,76,36.81,74.84,39.24Z"/>
  </g>
  <path class="antennaLight" d="M69,36.77a3.65,3.65,0,1,0,0-7.29H63.12a3.65,3.65,0,1,0,0,7.29Z"/>
  <g class="antennaMedium">
    <path d="M66.61,36a2.56,2.56,0,1,0,0-5.11H62.45a2.56,2.56,0,1,0,0,5.11Z"/>
    <path d="M6.43,41.15a16.85,16.85,0,0,1,1-2.32c.07-13.7-.14-25.94-.53-37.12C6.81,1.2,5.37,1,4.2,1s-2.63.21-2.65.71Q.82,23.26,1.06,44.82c0,1.19,1.6,1.52,4.1,1.52A35.07,35.07,0,0,1,6.43,41.15Z"/>
  </g>
</svg>
