<svg viewBox="0 0 104.55 62.94">
  <path class="antennaMedium" d="M1.55,1.71Q.82,23.26,1.06,44.82c0,1.19,1.41,1.56,3.14,1.56s3.11-.32,3.14-1.56c.16-16.15,0-30.33-.49-43.11C6.81,1.2,5.37,1,4.2,1S1.57,1.21,1.55,1.71Z"/>
  <g class="phoneMedium">
    <path d="M53.65,33.78c4.83,1.41,24,1.23,28.73-.08l-5,7.93H59.35Z"/>
    <path d="M83.43,33.64a72.76,72.76,0,0,1,11.1,1c3.71.69,6.18,3.58,7.35,7.13a32.14,32.14,0,0,1,1.46,13.71,5.47,5.47,0,0,1-5,4.61,75.58,75.58,0,0,1-10.89.71Z"/>
    <path d="M61.84,42.07A47,47,0,0,1,55,34.78c-.7-.94-1.16-1-2.3-1.24A112.64,112.64,0,0,0,40,32.18l6,9.91Z"/>
  </g>
  <path class="phoneDark" d="M91.19,41.15c-1.24-3.73-3.56-7-7.76-7.51a2.15,2.15,0,0,0-2.34,1.07c-1.73,2.93-3,4.92-4.62,5.79s-27.18,1.08-28.68,0-3.65-4-5.57-7.21A2.47,2.47,0,0,0,40,32.18q-12.93.3-25.85,1.46c-4.2.46-6.53,3.78-7.76,7.51A35.24,35.24,0,0,0,4.89,55.93a5.53,5.53,0,0,0,5.24,4.86,648.09,648.09,0,0,0,77.35,0,5.54,5.54,0,0,0,5.25-4.86A35.4,35.4,0,0,0,91.19,41.15Z"/>
</svg>
