<svg viewBox="0 0 343.82 205.15">
    <path class="phoneLight" d="M141.22,87.12c6.36-14.15,18.52-19,38.33-21.51,31.08-4.32,73-2.83,95.08,4C290.76,74.39,306,83.16,313.68,92.5l-66.07-5.38Z"/>
    <g class="phoneMedium">
        <path d="M247.61,87.12c15.59-9,50.63-6,66.07,5.38,5.6,6.53,9.88,24.39,5.75,34.37-3.22,5.76-73.32,17.62-83.1,7.72Z"/>
        <path d="M275.76,109.79a243,243,0,0,1,37,3.32c12.39,2.29,20.63,11.94,24.53,23.74a107.31,107.31,0,0,1,4.86,45.72c-1,8.46-8,14.13-16.57,15.35a254.2,254.2,0,0,1-36.3,2.39Z"/>
        <path d="M203.81,137.92c-9.09-8.39-16.52-15.51-22.79-24.33-2.34-3.13-3.84-3.27-7.64-4.13-7.82-1.33-27.4-4-42.26-4.51l20.07,33Z"/>
    </g>
    <g class="phoneDark">
        <path d="M301.63,134.84c-4.12-12.46-11.86-23.5-25.87-25-3.8-.31-7.5.27-7.8,3.58-1.53,17-14.69,18.44-33.1,21.63-5.56,1-72.9,1.27-77.88-2.34s-12.18-13.43-18.6-24a8.18,8.18,0,0,0-7.26-3.68Q88,105.92,45,109.79c-14,1.55-21.75,12.59-25.87,25A118.07,118.07,0,0,0,14,184.11a18.49,18.49,0,0,0,17.49,16.2,2165.69,2165.69,0,0,0,257.82,0,18.49,18.49,0,0,0,17.49-16.2A117.91,117.91,0,0,0,301.63,134.84Z"/>
        <path d="M247.13,128.46c-6.5,14.57-100.72,11.94-106.91-2.4-3.55-7.78-4.29-33.63,1-38.94,10.53-8.47,96.79-8,106.39,0C249.35,101.47,251,120.38,247.13,128.46Z"/>
    </g>
    <path class="antennaLight" d="M227.81,120.23c17,0,17-24.28,0-24.28H208.05c-17,0-17,24.28,0,24.28Z"/>
    <g class="antennaMedium">
        <path d="M219.71,117.61c11.9,0,11.9-17,0-17H205.85c-11.91,0-11.91,17,0,17Z"/>
        <path d="M19.09,134.84a55.3,55.3,0,0,1,3.19-7.73c.21-45.67-.47-86.48-1.79-123.75C20.38,1.66,15.55,1,11.66,1s-8.74.71-8.81,2.36Q.39,75.21,1.21,147.08c0,3.95,5.33,5,13.67,5A114.66,114.66,0,0,1,19.09,134.84Z"/>
    </g>
</svg>
