<svg viewBox="0 0 343.82 205.15">
    <path class="antennaMedium" d="M2.85,3.36Q.39,75.21,1.21,147.08c0,3.95,4.68,5.18,10.46,5.18s10.35-1,10.46-5.18C22.67,93.23,22,46,20.49,3.36,20.38,1.66,15.55,1,11.66,1S2.92,1.71,2.85,3.36Z"/>
    <g class="phoneMedium">
        <path d="M176.51,110.28c16.11,4.7,80.07,4.1,95.76-.3l-16.52,26.44H195.51Z"/>
        <path d="M275.76,109.79a243,243,0,0,1,37,3.32c12.39,2.29,20.63,11.94,24.53,23.74a107.31,107.31,0,0,1,4.86,45.72c-1,8.46-8,14.13-16.57,15.35a254.2,254.2,0,0,1-36.3,2.39Z"/>
        <path d="M203.81,137.92c-9.09-8.39-16.52-15.51-22.79-24.33-2.34-3.13-3.84-3.27-7.64-4.13-7.82-1.33-27.4-4-42.26-4.51l20.07,33Z"/>
    </g>
    <path class="phoneDark" d="M301.63,134.84c-4.12-12.46-11.86-23.5-25.87-25-3.8-.31-6.12.71-7.8,3.58-5.75,9.75-9.86,16.38-15.41,19.29-5.62,3.08-90.59,3.61-95.57,0s-12.18-13.43-18.6-24a8.18,8.18,0,0,0-7.26-3.68Q88,105.92,45,109.79c-14,1.55-21.75,12.59-25.87,25A118.07,118.07,0,0,0,14,184.11a18.49,18.49,0,0,0,17.49,16.2,2165.69,2165.69,0,0,0,257.82,0,18.49,18.49,0,0,0,17.49-16.2A117.91,117.91,0,0,0,301.63,134.84Z"/>
</svg>
