<svg viewBox="0 0 83.81 118.69">
  <path class="antennaMedium" d="M1.46,9.05q-.61,10.26-.41,20.5a2.45,2.45,0,0,0,2.61,2.27,2.45,2.45,0,0,0,2.6-2.27c.14-7.68,0-14.42-.41-20.5Z"/>
  <g class="antennaLight">
    <ellipse cx="3.66" cy="9.05" rx="2.2" ry="1.91"/>
    <path d="M6.31,25.15c0,1.43,0,2.9,0,4.4h2a18.78,18.78,0,0,1,.81-4.4Z"/>
    <path d="M67.62,1.57c-.57-.75-4.78-.78-5.51,0l-1,16.49,7.58,1Z"/>
  </g>
  <path class="phoneLight" d="M17.53,17.78C13.2,19,9.2,22.63,8.61,27.08a283.49,283.49,0,0,0-.82,71.67c1,9.12,7.59,16.91,16.68,18.23,6.53.94,33.25.94,39.78,0,9.08-1.32,15.65-9.11,16.68-18.23a284,284,0,0,0-.82-71.67c-.59-4.45-4.59-8.11-8.92-9.3C62.26,15.32,26.45,15.32,17.53,17.78Z"/>
  <path class="phoneMedium" d="M43.52,26.18c6.37-3.07,22.53-3,28.21,0v78.29H44.36Z"/>
  <g class="phoneDark">
    <path d="M71.73,26.18c-1.24.9-2.93,10.11-2.91,11.65,1,13,.55,36.58.25,51,.08,7.81-.86,10.44-2.54,12.77.38,1.16,4.11,5.23,5,5.58,1.57-1.84,3.6-8.07,3.77-13.23,1-18.32.91-49.61-.74-62.85C74.3,28.69,73.19,26.9,71.73,26.18Z"/>
    <path d="M43.52,26.18c1.25.9,2.93,10.11,2.92,11.65-1,13-.56,36.58-.25,51-.09,7.81.86,10.44,2.53,12.77-.37,1.16-4.11,5.23-4.95,5.58C42.2,105.36,40.13,99.14,40,94c-1-18.32-.9-49.61.75-62.85C41,28.69,42.07,26.9,43.52,26.18Z"/>
    <path d="M66.53,101.62c-2.87,1.06-14.93,1.06-17.81,0-.37,1.16-4.11,5.23-4.95,5.58,3.47,3.1,24.65,3.18,27.71,0C70.64,106.85,66.91,102.78,66.53,101.62Z"/>
  </g>
  <path class="phoneLight" d="M57.59,15a30.25,30.25,0,0,1,9.18,1.44,10,10,0,0,1,6.62,7.69,42.41,42.41,0,0,1,.19,16.17c-.91,5-3.31,7.28-3.34,11.56V99.4c.11,4.43-1.21,6.87-4.89,7.53-.89.15-4.89.22-7.76.22s-6.88-.07-7.77-.22c-3.68-.66-5-3.1-4.89-7.53V51.9c0-4.28-2.43-6.57-3.33-11.56a42.21,42.21,0,0,1,.19-16.17,10,10,0,0,1,6.62-7.69A30.25,30.25,0,0,1,57.59,15Z"/>
  <path class="buttonLarge" d="M17.85,98.6a41.23,41.23,0,0,0,11.74,0,1.74,1.74,0,0,0,1.49-1.73V90.44a1.75,1.75,0,0,0-1.5-1.73,43.32,43.32,0,0,0-11.71,0,1.75,1.75,0,0,0-1.51,1.73v6.43A1.75,1.75,0,0,0,17.85,98.6Z"/>
  <g class="buttonSmall">
    <path d="M18.58,63.37a2.12,2.12,0,1,0,0-4.24H15.13a2.12,2.12,0,1,0,0,4.24Z"/>
    <path d="M32.24,63.37a2.12,2.12,0,1,0,0-4.24H28.79a2.12,2.12,0,1,0,0,4.24Z"/>
  </g>
</svg>
