<svg viewBox="0 0 100.57 142.59">
  <path class="antennaMedium" d="M1.55,10.7Q.82,23.06,1.06,35.4A3,3,0,0,0,4.2,38.14,3,3,0,0,0,7.34,35.4c.16-9.25,0-17.37-.49-24.7Z"/>
  <g class="antennaLight">
    <ellipse cx="4.2" cy="10.7" rx="2.65" ry="2.3"/>
    <path d="M7.39,30.09c0,1.73,0,3.5,0,5.31H9.78a22.44,22.44,0,0,1,1-5.31Z"/>
    <path d="M81.27,1.69c-.69-.9-5.77-.94-6.64,0L73.39,21.56l9.13,1.24Z"/>
  </g>
  <path class="phoneLight" d="M20.92,21.22c-5.22,1.43-10,5.84-10.76,11.2a342.18,342.18,0,0,0-1,86.35c1.24,11,9.15,20.38,20.1,22,7.87,1.14,40.05,1.14,47.92,0,11-1.58,18.86-11,20.1-22a342.18,342.18,0,0,0-1-86.35c-.72-5.36-5.54-9.77-10.76-11.2C74.81,18.26,31.67,18.26,20.92,21.22Z"/>
  <path class="phoneMedium" d="M52.23,31.33c7.67-3.69,27.14-3.61,34,0v94.33h-33Z"/>
  <g class="phoneDark">
    <path d="M86.22,31.33c-1.5,1.09-3.53,12.19-3.51,14,1.23,15.62.66,44.08.3,61.48.1,9.4-1,12.57-3.05,15.38.45,1.4,4.94,6.3,6,6.72,1.89-2.22,4.34-9.72,4.54-15.94,1.24-22.08,1.09-59.77-.9-75.73C89.31,34.36,88,32.2,86.22,31.33Z"/>
    <path d="M52.23,31.33c1.5,1.09,3.53,12.19,3.51,14-1.23,15.62-.66,44.08-.3,61.48-.1,9.4,1,12.57,3.05,15.38-.45,1.4-4.94,6.3-6,6.72-1.89-2.22-4.39-9.71-4.54-15.94-1.24-22.08-1.09-59.77.9-75.73C49.14,34.36,50.48,32.2,52.23,31.33Z"/>
    <path d="M80,122.23c-3.47,1.28-18,1.28-21.47,0-.45,1.4-4.94,6.3-6,6.72,4.18,3.74,29.7,3.83,33.39,0C84.9,128.53,80.41,123.63,80,122.23Z"/>
  </g>
  <path class="phoneLight" d="M69.18,17.91a36.55,36.55,0,0,1,11.06,1.74,12.06,12.06,0,0,1,8,9.26,50.85,50.85,0,0,1,.23,19.49c-1.09,6-4,8.77-4,13.93v57.22c.13,5.34-1.46,8.29-5.88,9.08-1.08.17-5.9.26-9.36.26s-8.28-.09-9.36-.26c-4.43-.79-6-3.74-5.89-9.08V62.33c0-5.16-2.93-7.92-4-13.93a51.05,51.05,0,0,1,.23-19.49,12.09,12.09,0,0,1,8-9.26A36.56,36.56,0,0,1,69.18,17.91Z"/>
  <path class="buttonLarge" d="M21.3,118.59a50.06,50.06,0,0,0,14.15,0,2.09,2.09,0,0,0,1.79-2.08v-7.75a2.1,2.1,0,0,0-1.81-2.09,52.91,52.91,0,0,0-14.11,0,2.1,2.1,0,0,0-1.81,2.09v7.75A2.09,2.09,0,0,0,21.3,118.59Z"/>
  <g class="buttonSmall">
    <path d="M22.18,76.14a2.56,2.56,0,1,0,0-5.11H18a2.56,2.56,0,1,0,0,5.11Z"/>
    <path d="M38.64,76.14a2.56,2.56,0,1,0,0-5.11H34.48a2.56,2.56,0,1,0,0,5.11Z"/>
  </g>
</svg>
