<svg viewBox="0 0 1274.07 2110.22">
    <path class="base" d="M1025.63,2109.22c-136.64,0-247.41-21.57-247.41-48.18-.43-23.23,4.58-47.44,19.45-68.34,18.08-25.33,105.65-42.58,228-42.58s209.88,17.25,228,42.58c14.87,20.9,19.88,45.11,19.45,68.34C1273,2087.65,1162.27,2109.22,1025.63,2109.22Z"/>
    <path class="baseEdgeLine" d="M850.5,1984.78c0,13.58,78.41,24.58,175.13,24.58s175.13-11,175.13-24.58"/>
    <path class="micStand" d="M1003.44,612.8V1968.61c3.14,3.69,41,3.69,44.38,0V612.8C1035.71,613.47,1015.55,613.48,1003.44,612.8Z"/>
    <g class="bar">
        <path d="M1114.14,104.17,339.64,888.52l24,23.72,774.47-784.32A320,320,0,0,1,1114.14,104.17Z"/>
        <path d="M1042.48,499.88V408.72h-33.77v91.17C1018.92,499.38,1032.26,499.38,1042.48,499.88Z"/>
    </g>
    <g class="handle">
        <path d="M993.34,502.34c0-3.78,64.58-3.78,64.58,0V611.28c0,2.69-64.58,2.71-64.58,0Z"/>
        <path d="M1239.57,31.75,1142,130.55c-1.24,1.26-31.71-29-30.57-30.19L1209,1.56C1213.93-3.45,1244.51,26.74,1239.57,31.75Z"/>
        <path d="M46,1036.51c0,5.66,28.93,10.25,64.62,10.25s64.62-4.59,64.62-10.25v-30.09H46Z"/>
    </g>
    <g class="handleCreaseLine">
        <line x1="1012.36" y1="499.73" x2="1012.36" y2="613.15"/>
        <line x1="1001.36" y1="500.39" x2="1001.36" y2="612.68"/>
        <line x1="1025.63" y1="499.51" x2="1025.63" y2="613.3"/>
        <line x1="1038.9" y1="499.73" x2="1038.9" y2="613.14"/>
        <line x1="1049.9" y1="500.39" x2="1049.9" y2="612.67"/>
    </g>
    <g class="partDark">
        <path d="M930.49,348.75l14.29-14.47-34.57-34.14-14.29,14.47C894.73,315.83,929.3,350,930.49,348.75Z"/>
        <path d="M1030.64,247.33l-14.29,14.47-34.57-34.13,14.29-14.47C997.27,212,1031.84,246.12,1030.64,247.33Z"/>
        <path d="M1025.59,377a24.05,24.05,0,0,0,19.39-9.8c-1.62-10-4.38-18.4-9.5-24.77h-19.77c-5.12,6.37-7.88,14.78-9.5,24.77A24,24,0,0,0,1025.59,377Z"/>
        <rect x="220.23" y="924.77" width="90.88" height="36.3"/>
        <path d="M220.23,926.22c0-4.49-10.72-8.58-28.32-11.66V886.68c0-7.12-36.4-12.89-81.29-12.89s-81.29,5.77-81.29,12.89v27.88C11.72,917.64,1,921.73,1,926.22v33.6H29.33v38.77H191.91V959.82h28.32Z"/>
    </g>
    <g class="micInner">
        <rect x="185.82" y="897.04" width="6.09" height="101.55"/>
        <rect x="29.33" y="897.04" width="6.09" height="101.55"/>
    </g>
    <path class="micBody" d="M59.66,998.59l-9.5-134.43c0,3.57,120.91,3.57,120.91,0l-9.5,134.43Z"/>
    <polygon class="micBack" points="83.56 890.17 137.67 890.17 139.67 870.16 81.56 870.16 83.56 890.17"/>
    <path class="micHead" d="M58.66,729.73l-8.5,134.43c0,3.57,120.91,3.57,120.91,0l-8.5-134.43C162.57,721.62,58.66,721.62,58.66,729.73Z"/>
    <g class="partLight">
        <path d="M1025.59,377a24,24,0,0,1-19.38-9.8c-1.51,9.36-2,20.09-2.5,31.86h43.77c-.48-11.77-1-22.5-2.5-31.86A24.05,24.05,0,0,1,1025.59,377Z"/>
        <path d="M983.78,229.64,964.16,249.5l-32.34,32.75-19.61,19.87,30.58,30.19,19.61-19.87,47,46.36a23,23,0,0,0,32.33-32.75l-46.94-46.36,19.61-19.86Z"/>
        <path d="M1,926.22v33.6c0,9.61,49.08,17.39,109.62,17.39s109.61-7.78,109.61-17.39v-33.6c0,9.61-49.07,17.39-109.61,17.39S1,935.83,1,926.22Z"/>
        <path d="M191.91,981.57c0,7.12-36.4,12.89-81.29,12.89s-81.29-5.77-81.29-12.89v17c0,7.13,36.39,12.9,81.29,12.9s81.29-5.77,81.29-12.9Z"/>
        <path d="M191.91,886.68c0,7.12-36.4,12.9-81.29,12.9s-81.29-5.78-81.29-12.9v17c0,7.12,36.39,12.89,81.29,12.89s81.29-5.77,81.29-12.89Z"/>
        <path d="M337.28,886.25l-4.9-3.46-42.5,41.79,4.52,4.22c-8.94,9-8.5,24.72-.28,32.52s24,9.48,33.15.28l43.06-42.71Z"/>
    </g>
    <g class="clip">
        <path d="M1053.87,645.31c0-1.74-56.48-1.74-56.48,0v35.11c0,1.57,56.48,1.57,56.48,0v-.29c6.84.29,15.29.18,17.76-1V646.31C1069.16,645.16,1060.63,645,1053.87,645.31Z"/>
        <path d="M1043.22,169.44c-3.44-3.84-9.6-9.69-11.74-10.19l-20.25,20.51c.51,2.16,6.42,8.16,10.33,11.61l-.2.21c-1.1,1.11,29.47,31.3,30.57,30.19l21.86-22.14C1075,198.4,1044.44,168.2,1043.22,169.44Z"/>
    </g>
    <g class="standCreaseLine">
        <line x1="1053.87" y1="645.31" x2="1053.87" y2="680.42"/>
        <line x1="1043.22" y1="169.44" x2="1021.36" y2="191.58"/>
        <line x1="994.74" y1="279.69" x2="962.4" y2="312.44"/>
        <polyline points="220.23 928.79 294.4 928.79 337.28 886.25"/>
    </g>
    <g class="bolt">
        <path d="M371.89,910.46c1.08,1.07,7.9-5.84,6.82-6.9l-30.57-30.19c-1-1-7.84,5.9-6.82,6.9Z"/>
        <path d="M1047.08,399c1.52,0,1.52,9.7,0,9.7h-43c-1.43,0-1.43-9.7,0-9.7Z"/>
        <circle cx="1025.52" cy="342.42" r="14.39"/>
        <path d="M1047.82,1961.92v6.69c-3.42,3.69-41.24,3.69-44.38,0v-6.69c-6.83,1.65-11.14,4.14-11.14,7.23v4.2c0,5.76,14.92,9.43,33.33,9.43s33.33-3.67,33.33-9.43v-4.2C1059,1966.06,1054.65,1963.57,1047.82,1961.92Z"/>
        <circle cx="310.98" cy="945.18" r="10.4"/>
    </g>
    <path class="lever" d="M1037.88,349.77a15,15,0,0,1-2.12,2.77,14.28,14.28,0,0,1-4,2.81l45.39,48.26a12,12,0,0,1,2.51-3.35,12.25,12.25,0,0,1,3.49-2.29Z"/>
    <g class="ball">
        <circle cx="1007.14" cy="323.1" r="12.26"/>
        <circle cx="1088.1" cy="409.19" r="12.26"/>
    </g>
</svg>
