<svg viewBox="0 0 173.86 111.86">
  <g class="labelReverse">
    <path d="M56.06,52.35V93c-5.8-.55-19.88-.11-21.45,4.09V55.21C36.29,51.63,50.24,51.35,56.06,52.35Z"/>
    <path d="M29.84,97.19c.28-1.44-5.14-2.66-11.46-2.82V54.07c6.47-.2,11.39.68,11.45,1.75Z"/>
  </g>
  <g class="bottleBottom">
    <ellipse cx="49.05" cy="102.45" rx="12.44" ry="2.53"/>
    <ellipse cx="15.44" cy="104.56" rx="12.44" ry="2.53"/>
  </g>
  <g class="beerSide">
    <path d="M135.07,34.32c-.84-7.28-1.14-9.64-1.55-17.07,0,.93-12.82.93-12.82,0-.4,7.43-.71,9.79-1.54,17.07a18,18,0,0,1-3,8.69H138A18,18,0,0,1,135.07,34.32Z"/>
    <path d="M165.32,35.19c-.87-7.57-1.2-10.22-1.6-17.94,0,.93-12.71.93-12.71,0-.4,7.72-.73,10.37-1.6,17.94a18,18,0,0,1-2.95,8.69c-.1.16,21.91.16,21.8,0A18.11,18.11,0,0,1,165.32,35.19Z"/>
  </g>
  <g class="beerTop">
    <path d="M120.7,17.25c0,.93,12.82.93,12.82,0S120.7,16.33,120.7,17.25Z"/>
    <path d="M151,17.25c0,.93,12.71.93,12.71,0S151,16.33,151,17.25Z"/>
  </g>
  <g class="bottleSide">
    <path d="M43.92,4c-1.6.13-2,.92-1.94,3,0,1.76-.13,2.7,1.17,3.13q-.57,13.41-2.06,26.51a18.07,18.07,0,0,1-2.94,8.69c-1.94,3-3.6,6.47-3.54,9.87V99.4c0,2.55,1,3.68,3,4.13a46.09,46.09,0,0,0,23,0c1.82-.52,2.92-1.58,2.94-4.13V55.21c.06-3.4-1.6-6.84-3.53-9.87a18,18,0,0,1-3-8.69q-1.5-13.09-2.06-26.51c1.3-.43,1.17-1.37,1.17-3.13,0-2.08-.34-2.87-1.94-3A37.43,37.43,0,0,0,43.92,4Z"/>
    <path d="M168.26,43.88a18.11,18.11,0,0,1-2.94-8.69c-1-8.73-1.68-17.58-2.06-26.52,1.3-.42,1.17-1.37,1.17-3.12,0-2.08-.34-2.87-1.94-3a36.66,36.66,0,0,0-10.25,0c-1.61.13-2,.92-1.94,3,0,1.75-.13,2.7,1.17,3.12-.39,9-1.06,17.84-2.06,26.52a18,18,0,0,1-2.95,8.69C146.36,44,168.37,44,168.26,43.88Z"/>
    <path d="M138,43a18,18,0,0,1-2.94-8.69c-1-8.73-1.68-17.57-2.07-26.51,1.31-.43,1.18-1.37,1.18-3.13H120.05s-.13,2.7,1.17,3.13c-.39,8.94-1.06,17.78-2.06,26.51a18,18,0,0,1-3,8.69C116.08,43.21,138.14,43.21,138,43Z"/>
    <path d="M10.31,6.12c-1.6.13-2,.93-1.94,3,0,1.76-.13,2.71,1.17,3.13-.38,8.94-1,17.78-2.06,26.51a18,18,0,0,1-2.94,8.69C2.6,50.48,1,53.93,1,57.32v44.19c0,2.55,1,3.68,3,4.13a46.09,46.09,0,0,0,23,0c1.82-.52,2.92-1.58,2.94-4.13V57.32c.06-3.39-1.6-6.84-3.53-9.87a17.94,17.94,0,0,1-2.95-8.69c-1-8.73-1.67-17.57-2.06-26.51,1.3-.42,1.17-1.37,1.17-3.13,0-2.07-.33-2.87-1.94-3A37.43,37.43,0,0,0,10.31,6.12Z"/>
  </g>
  <g class="bottleCreaseLine">
    <path d="M54.94,10.14a41.58,41.58,0,0,1-11.79,0"/>
    <path d="M163.26,8.67a41.58,41.58,0,0,1-11.79,0"/>
    <path d="M133,7.81a41.88,41.88,0,0,1-11.78,0"/>
    <path d="M21.33,12.25a41.58,41.58,0,0,1-11.79,0"/>
  </g>
  <g class="bottleOverlapLine">
    <path d="M53.68,4.91a46.12,46.12,0,0,1-9.25,0"/>
    <path d="M20.08,7a46.22,46.22,0,0,1-9.26,0"/>
  </g>
  <g class="labelSecondary">
    <path d="M56.06,27.39q-.44-5-.75-10.09c-2.56-.46-8.94-.14-10.1.57-1.11,1-1,8.43,0,9.54s4,2.29,6.79,2.66C54.56,29.73,55.14,28.44,56.06,27.39Z"/>
    <path d="M15.37,20.17c-.67-.53-3.79-1-6.19-.92q-.37,6.15-.94,12.23a3.6,3.6,0,0,0,1.84.64c2,.11,4.22-1.34,5.29-2.41S16.48,21.14,15.37,20.17Z"/>
    <path d="M29.83,55.82c0,.49-.94,1-3.23,1.5v41.6c2.15-.58,3.13-1.17,3.24-1.73Z"/>
    <path d="M157.28,16.47c-.67-.52-3.76-.95-6.16-.92-.26,4.22-.59,8.18-1,12.24a3.79,3.79,0,0,0,1.84.64c2,.1,4.22-1.35,5.29-2.42S158.39,17.45,157.28,16.47Z"/>
    <path d="M134.13,25.18c-.29-3.35-.54-6.72-.75-10.09-2.56-.47-8.95-.15-10.1.56-1.11,1-1,8.44,0,9.54s4,2.3,6.79,2.66C132.63,27.51,133.21,26.22,134.13,25.18Z"/>
  </g>
  <g class="labelMain">
    <path d="M63.48,90.25V60.9c-1.58-4.41-4.46-7.18-9.54-7.18-9.59,0-14.65,10.63-14.65,22.82s5,21.32,14.65,21.32C58.94,97.86,61.86,94.91,63.48,90.25Z"/>
    <path d="M1.15,55.34a12,12,0,0,0-.15,2V99.45c9.34-.31,13.44-10.06,13.44-22.06S10.32,55.75,1.15,55.34Z"/>
  </g>
  <g class="bottleCap">
    <path d="M119.46,5.84c2.37.87,12.86.91,15.34,0a1.31,1.31,0,0,1-.16-.92c-.21-1.4-.38-2.94-1-3.21-2.16-.93-10.78-1-13,0-.7.27-.89,1.84-1,3.21A1,1,0,0,1,119.46,5.84Z"/>
    <path d="M149.67,6.65c2.38.87,12.86.91,15.35,0a1.26,1.26,0,0,1-.16-.92c-.21-1.4-.38-2.94-1.05-3.21-2.16-.93-10.77-1-13,0-.69.27-.88,1.84-1.05,3.21A1,1,0,0,1,149.67,6.65Z"/>
  </g>
  <g class="bottleCapLightLine">
    <path d="M132.39,2.8a52.93,52.93,0,0,1-10.53,0"/>
    <path d="M162.6,3.61a52.93,52.93,0,0,1-10.53,0"/>
  </g>
  <g class="bottleCapCreaseLine">
    <path d="M126.74,6c-.39-.89-1.26-.94-1.63,0"/>
    <path d="M129.12,6c-.39-.89-1.3-.92-1.67,0"/>
    <path d="M131.32,5.86c-.44-.85-1.19-.77-1.48.07"/>
    <path d="M133.43,5.63c-.55-.75-1.05-.68-1.33.15"/>
    <path d="M124.4,6c-.27-.84-1-.91-1.46-.06"/>
    <path d="M122.22,5.85c-.22-.87-1-1-1.4-.18"/>
    <path d="M119.58,4.92a.92.92,0,0,1,.56.68"/>
    <path d="M134.64,4.92a1.11,1.11,0,0,0-.49.61"/>
    <path d="M157,6.8c-.39-.89-1.26-.94-1.63,0"/>
    <path d="M159.33,6.8c-.39-.89-1.3-.92-1.66,0"/>
    <path d="M161.53,6.67c-.44-.86-1.19-.77-1.48.07"/>
    <path d="M163.64,6.44c-.54-.75-1-.68-1.33.15"/>
    <path d="M154.61,6.76c-.26-.84-1-.92-1.45-.06"/>
    <path d="M152.43,6.65c-.22-.86-1-1-1.4-.17"/>
    <path d="M149.79,5.73a.92.92,0,0,1,.56.68"/>
    <path d="M164.86,5.73a1,1,0,0,0-.49.61"/>
  </g>
  <polygon class="packageSideDark" points="144.14 74.97 144.14 110.69 172.86 106.1 172.86 72.53 144.14 74.97"/>
  <g class="packageSideLight">
    <polygon points="84.11 34.61 69.75 43.62 69.75 72.57 84.11 73.03 84.11 34.61"/>
    <polygon points="172.86 44.08 159.11 35.53 144.14 45.61 144.14 74.97 172.86 72.53 172.86 44.08"/>
  </g>
  <g class="packageFrontDark">
    <polygon points="69.75 72.57 69.75 106.71 144.14 110.69 144.14 74.97 69.75 72.57"/>
    <path d="M144.14,45.61l14.82-10V22.69L84.11,21.47V44l60,1.62ZM134,38.35l-26.75-.81c-6.38,0-6.5-9.81.2-9.78l26.76.57C140.75,28.36,140.49,38.39,134,38.35Z"/>
  </g>
  <polygon class="packageFrontLight" points="144.14 45.61 69.75 43.62 69.75 72.57 144.14 74.97 144.14 45.61"/>
  <polygon class="star" points="121.74 49.28 126.33 64.28 141.22 65 129.15 74.3 133.06 89.51 121.02 80.25 108.55 88.94 113.18 73.92 101.56 64.08 116.46 64.05 121.74 49.28"/>
</svg>
