<svg viewBox="0 0 128.05 135.42">
  <path class="bagFront" d="M39.21,133.67c-1.36-.23-6.46-3.89-13.46-6.32-5.15-1.79-11.13-5.41-16.07-7.09-5.91-2-8.15-3.55-8.68-4.07-.09-5.12,8.23-25.88,13.23-33,1.27-2,1.33-3.4,2.24-6.77,2.3-8.47,8.07-16.82,13.45-24.66a139.55,139.55,0,0,0,13.42-23l42-8.54C89.91,46.26,69.27,87.19,39.21,133.67Z"/>
  <path class="bagSideMedium" d="M39.21,133.67c-1.32-5.36,7.4-25.89,11.87-36.5,1.52-3.75,1.05-4.69,1.61-8,1.32-9.89,10.1-28.85,16.41-36C79.47,41.36,85.52,33,85.36,20.23c8.44,8.9,9.82,30.8-.89,75C73.62,112.37,58.29,124.93,39.21,133.67Z"/>
  <path class="bagSideDark" d="M84.47,95.27a80.68,80.68,0,0,0,.26-14.49c-.37-6.62,3.39-18.92,3.54-27.19.25-6.53-.65-12.94-.6-20.45-.11-5.35-.82-9.75-2.31-12.91L76,12.34c.58-3.82,4-5.23,9.63-4.7,2.27.33,4.18,2.09,5.71,5.52,2.18,4.91,6.46,9.38,8.62,13.9,3.38,7.11,7.28,13.67,10.15,21.43,5.83,14.53,8,29,5.88,43.31,4.67,10.23,8,19.48,9.9,28.74,1.08,4.15,1.31,8.41.64,10.16C108.11,121.92,92.78,111,84.47,95.27Z"/>
  <path class="bagSideLight" d="M126.56,130.7C110,114.44,98.05,109.25,84.47,95.27,68.94,106,57.28,120.93,39.21,133.67c1.82,1.45,35.38-.14,47.35.59,7.46.46,15-.18,24.93-.46C117.38,133.68,125.21,131.81,126.56,130.7Z"/>
  <path class="bagFlapBelow" d="M72.76,11.12c3.64,1.74,8.86,2.45,12.83,3.39.82,1.19.71,3.28-.23,5.72-4.31,9.79-16.68,19.59-19.89,17C51.57,31.74,57.06,22.63,72.76,11.12Z"/>
  <path class="bagFlapAbove" d="M80.5,8.93c-11.23,6.5-18.26,25.69-14.78,28.5-4.24-.6-9.22-1.79-14-2.42-5.92-.78-12-3.1-16.88-4-3.84-.68-6.61-.47-8.28-2.21C22.42,22.65,34.24,4,40.7,1.72c4.13-1.52,6.84-.22,13.71.12A173.17,173.17,0,0,1,71.66,3.71C78,4.6,80.89,6,85.66,7.64A15.18,15.18,0,0,0,80.5,8.93Z"/>
  <path class="bagCreaseLine" d="M47.46,91.88c-11.93-3-22.35-6.07-29.67-9.12"/>
</svg>
