<svg viewBox="0 0 178.83 581.39">
  <g class="oakMedium">
    <path d="M144.92,2.51l16.45,575.13c2.32,3.77,13.9,3.56,16.45,0L161.37,2.51C159.17.5,147.69.5,144.92,2.51Z"/>
    <path d="M33.91,2.51,17.46,577.64c-2.32,3.77-13.9,3.56-16.45,0L17.46,2.51C19.66.5,31.14.5,33.91,2.51Z"/>
  </g>
  <g class="oakLight">
    <path d="M146.76,66.31c2.85-1.52,2.48-15.74-.5-16.93H32.54c-3,1.19-3.36,15.41-.51,16.93Z"/>
    <path d="M149.41,154.12c2.86-1.52,2.48-15.75-.5-16.93h-119c-3,1.18-3.35,15.41-.5,16.93Z"/>
    <path d="M151.74,241.93c2.85-1.52,2.48-15.75-.5-16.93H27.56c-3,1.18-3.36,15.41-.51,16.93Z"/>
    <path d="M154.39,329.74c2.86-1.52,2.48-15.75-.5-16.93H24.9c-3,1.18-3.35,15.41-.5,16.93Z"/>
    <path d="M156.72,417.55c2.85-1.52,2.48-15.75-.5-16.93H22.58c-3,1.18-3.36,15.41-.51,16.93Z"/>
    <path d="M159.37,505.36c2.86-1.52,2.48-15.75-.5-16.93H19.92c-3,1.18-3.35,15.41-.5,16.93Z"/>
  </g>
</svg>
