<svg viewBox="0 0 215.04 700.06">
  <g class="oakMedium">
    <path d="M174.39,2.82l19.82,692.93c2.8,4.54,16.75,4.29,19.83,0L194.21,2.82C191.56.39,177.74.39,174.39,2.82Z"/>
    <path d="M40.65,2.82,20.83,695.75C18,700.29,4.09,700,1,695.75L20.83,2.82C23.48.39,37.31.39,40.65,2.82Z"/>
  </g>
  <g class="oakLight">
    <path d="M176.61,79.69c3.44-1.83,3-19-.6-20.4H39c-3.59,1.43-4,18.57-.6,20.4Z"/>
    <path d="M179.81,185.49c3.44-1.84,3-19-.6-20.41H35.79c-3.59,1.43-4,18.57-.6,20.41Z"/>
    <path d="M182.61,291.28c3.44-1.83,3-19-.6-20.4H33c-3.59,1.43-4,18.57-.6,20.4Z"/>
    <path d="M185.81,397.07c3.44-1.83,3-19-.6-20.4H29.79c-3.59,1.43-4,18.57-.6,20.4Z"/>
    <path d="M188.61,502.87c3.44-1.84,3-19-.6-20.4H27c-3.59,1.43-4,18.56-.6,20.4Z"/>
    <path d="M191.81,608.66c3.44-1.83,3-19-.6-20.4H23.79c-3.59,1.43-4,18.57-.6,20.4Z"/>
  </g>
</svg>
