<svg viewBox="0 0 710.71 401.44">
  <polygon class="boxDarkest" points="512.57 24.08 708.54 286.37 463.76 260.88 262.34 1.58 512.57 24.08"/>
  <polygon class="boxDarker" points="235.95 32.43 443.23 290.71 463.76 260.88 262.34 1.58 235.95 32.43"/>
  <g class="boxDark">
    <polygon points="454.27 90.04 298.58 62.13 298.58 270.94 454.27 310.99 454.27 90.04"/>
    <polygon points="688.13 319.85 443.23 290.71 463.76 260.88 708.54 286.37 688.13 319.85"/>
  </g>
  <polygon class="boxLight" points="298.58 62.13 1 74.46 1 296.88 298.58 270.94 298.58 62.13"/>
  <g class="boxLighter">
    <polygon points="150.56 333.69 1 296.88 1 74.46 150.56 102.84 150.56 333.69"/>
    <polygon points="487.89 59.13 235.95 32.43 262.34 1.58 512.57 24.08 487.89 59.13"/>
  </g>
  <g class="boxLightest">
    <polygon points="454.27 90.04 454.27 310.99 150.56 333.69 150.56 102.84 454.27 90.04"/>
    <polygon points="512.57 24.08 708.54 286.37 688.13 319.85 487.89 59.13 512.57 24.08"/>
  </g>
  <polygon class="photoRight" points="681.33 360.08 534.06 380.29 370.24 365.05 521.65 347.02 681.33 360.08"/>
  <polygon class="photoBelow" points="278.23 366.7 346.12 382.63 250.65 393.91 278.23 366.7"/>
  <polygon class="photoMiddle" points="277.23 370.71 281.04 400.44 94.08 400.12 132.1 372.23 277.23 370.71"/>
  <polygon class="photoTop" points="293.49 364.47 238.99 387.28 83.31 386.47 154.88 363.4 293.49 364.47"/>
</svg>
