<svg viewBox="0 0 673.18 180.44">
  <path class="bananaOuterRear" d="M413.72,97.34c-39.84,10.39-81.28,13.17-87.64.22,23.84,6.13,74.29-3,96.47-26.25,20-20,27.06-40,37.52-53.58C473.07,1.78,495.34-3.36,504,4.9,520,20.72,499.22,73.55,413.72,97.34Z"/>
  <g class="bananaOuterMiddle">
    <path d="M495.11,137.44c-45.89,3.16-92.08-2-126.79-14.34,11.48,15.78,24.67,20.65,54.12,25.78C455.34,152.28,478.26,147.38,495.11,137.44Z"/>
    <path d="M633.72,72.31c-3.23,14.42-4.29,32,1.58,39.51,8.08,9.06,20.94,17.34,35.51,23.76l-10.15,15.49c-16.4-15-31.82-24.88-46.18-26.7-18.8-2.2-32.87-17.74-32.87-35.36.54-22.16,8.57-39.39,20.85-49C620.64,41.86,631,52.72,633.72,72.31Z"/>
  </g>
  <path class="bananaInnerMiddle" d="M512.16,30C529.84,21.14,552,4.23,572.29,5c30.17,1.07,71.55,37.38,61.43,67.28-10.67-21.94-25.8-35.95-43-22.72C575.94,61.06,566.45,65,553,67.24Z"/>
  <path class="bananaInnerRear" d="M504,4.9C518.4,13,526.86,27.06,531.66,44.68l-64.29,4.48C488.71,39.94,508.74,17.28,504,4.9Z"/>
  <path class="bananaOuterFront" d="M522.35,38.25c-10.37-3.13-59.93,6.66-83,16.93C429.2,59.43,422.43,62.82,416,69.27c-6.46,6.25-10.49,8.17-15.28,9.62l3.39,24.55c5.5.32,11.71.42,16.75,2.75,6.67,3.55,10.34,5.77,17.84,7.86,14.34,4,31,3.33,48.95.4,15-2.28,31.25-7.52,48.26-14.4C549.64,74.72,543.91,54.43,522.35,38.25Z"/>
  <path class="bananaInnerFront" d="M522.35,38.25c29.07,5.64,53.34,41.48,56.73,71.68,1.12,20.89-11,35.56-31.33,42.9-31.33,10.44-78.79,2.18-125.31-4,32.67-.8,58.7-5.36,81.28-18.63C532.79,114.17,550.57,67.6,522.35,38.25Z"/>
  <g class="bananaEnd">
    <path d="M400.7,78.89c-7.19,2.34-3.78,26.23,3.39,24.55C412.28,99.29,408.87,81.37,400.7,78.89Z"/>
    <path d="M670.81,135.58c4.52,2.33-2.95,19.48-10.15,15.49C655.69,148.32,664.92,132.93,670.81,135.58Z"/>
  </g>
  <g class="bananaEdgeLine">
    <path d="M600.77,63.62c-8.25,19.35-6.69,35.75,9.12,47.88"/>
    <path d="M427.87,79.2c34.85,2.09,68.38-3.84,100.7-17.1"/>
    <path d="M594.69,21.82c-21-2.17-26.33,8-40.66,12.92"/>
    <path d="M478.55,21.83c-7.82,7.28-11.94,19-19.24,26.31"/>
  </g>
  <polygon class="puddingCupTop" points="232.28 61.73 208.48 174.97 156.65 158.47 181.22 50.03 232.28 61.73"/>
  <ellipse class="puddingCupInner" cx="193.35" cy="111.4" rx="47.5" ry="18.58" transform="translate(41.93 275.31) rotate(-77.22)"/>
  <path class="puddingCupBottom" d="M210.35,166.06c18.07.93,50.93,3.59,72.9,6.28,19.51,3.17,35.7-72.6,16.66-77.89-21-6.34-51.59-18.37-69.26-25Z"/>
  <g class="pudding">
    <path d="M62.46,178A163.23,163.23,0,0,1,5,175.46c-8-2.15-4.13-10.66,12.71-11,21.19,0,11.09-8,29.67-10.11a161.82,161.82,0,0,1,39.26.19c16.17,1.93,16,10.9-2.93,12.81C66.07,169.69,73.51,176.27,62.46,178Z"/>
    <path d="M191.48,155.14c-8.26,1.83-4.82,15.53-16.26,16.46-20.59,2-34.1.89-46.88-3.42-8-3.22,5.9-11.57,22.74-11.86,21.19,0,5-10.55,25-13.28a110.22,110.22,0,0,1,25.21-.19C198.42,148,195.19,152.22,191.48,155.14Z"/>
  </g>
</svg>
