<svg viewBox="0 0 50.12 40.8">
  <g class="condomBag">
    <path d="M36.65,30.24S23.33,17.42,23.4,12.4C11.94-4.23-7.42,10.29,7.49,25.85c7.17,3.89,6.31,10,12,13.34Z"/>
    <path d="M38.82,38c.5-4.39,4.49-3.34,5.23-9.55.66-5.44,4-4.15,4.9-10.25A9.07,9.07,0,0,0,47,11c2.6-3.53,3-8.62.09-9.76-4.59-1.83-6.8,6.66-10.43,7.9-5,1.71-3.47,7.85-6.8,11.12-4.1,4-1.75,6.84-5.43,9.91-4.43,3.7-1.72,6.13-4.93,9C21,40.24,37.59,40,38.82,38Z"/>
  </g>
  <g class="condomCreaseLine">
    <path d="M24.44,39.78a20.3,20.3,0,0,0,.82-3.14c.86-4.56,5.14-5.12,5.85-9.53C32.34,19.52,45,25,42.66,12"/>
    <path d="M33.81,39.39a11.94,11.94,0,0,0,1.48-3.54c1.1-5.49,4.4-4.25,4.67-8.93"/>
    <path d="M16,30c1.78,2.05,3.05,5.4,5.35,6"/>
  </g>
  <g class="condomFoldLine">
    <path d="M47,11A5.52,5.52,0,0,1,45.61,6"/>
    <path d="M6.9,18.31c2.53,1.59,5.13,3.46,6.71,6.54"/>
    <path d="M15.87,10.3c.77,2.88,2.36,7.92,4.8,10.18"/>
  </g>
  <path class="condomRing" d="M2.34,10.44A11.6,11.6,0,0,1,18.18,6.21a11.59,11.59,0,0,1,5,15.63A11.6,11.6,0,0,1,7.3,26.07,11.6,11.6,0,0,1,2.34,10.44ZM8.59,23.71a8.85,8.85,0,0,0,12.08-3.23A8.85,8.85,0,0,0,16.89,8.57,8.85,8.85,0,0,0,4.81,11.8,8.85,8.85,0,0,0,8.59,23.71Z"/>
</svg>
