<svg viewBox="0 0 402 402">
  <rect class="noStroke" x="1" y="1" width="400" height="400"/>
  <g class="condomBag">
    <path d="M233.55,359.14S188,373,183.09,382.71c-34.24,22.1-111.73-.63-49.44-18.21,23.74-9.45,25.55-11.76,44.2-15.4Z"/>
    <path d="M238.8,350.42c2.68,4.86,15.27,3.67,19.91,10.91,4.35,6.79,15.2,5.14,21.47,13.18,2.86,3.67,1.61,7.07-3.26,10.19,11.83,5.43,16.61,13.69,5.93,15.64-17.34,3.16-29.69-10.88-43.87-12.79-19.16-2.59-14.57-11.46-26.82-15.89-14.46-5.24-6.59-8.74-18.92-12.45-14.29-4.28-5.41-7-15.39-10.11C182.41,348,234.45,348.23,238.8,350.42Z"/>
  </g>
  <g class="condomCreaseLine">
    <path d="M193.32,348.46a14,14,0,0,1,2.57,3.4c2.83,5.15,16.88,5.78,19.74,11.05,5.29,9.75,47.4,2.58,44.68,20.32"/>
    <path d="M222.73,348.87a17.16,17.16,0,0,1,5.28,3.84c4.66,6.29,15.23,4.84,17.46,10.44"/>
    <path d="M165.19,359.43c6.18-2.41,10.71-6.22,18.14-6.9"/>
  </g>
  <g class="condomFoldLine">
    <path d="M276.92,384.7c-4.63,2.38-4.76,5-2.63,7.86"/>
    <path d="M130.82,376.61c9.55-2.14,19.88-6.93,25.36-10.86"/>
    <path d="M162.55,381.94c3.45-4.29,8.41-7.49,17.3-10.54"/>
  </g>
  <path class="condomRing" d="M145.75,362.57c22.5,0,40.75,7.4,40.75,16.53s-18.25,16.52-40.75,16.52S105,388.23,105,379.1,123.24,362.57,145.75,362.57Zm-30.7,16c0,5.11,13.74,9.25,30.7,9.25s30.7-4.14,30.7-9.25-13.75-9.26-30.7-9.26S115.05,373.46,115.05,378.57Z"/>
</svg>
