<svg viewBox="0 0 228.51 437.95">
  <g class="soleWhite">
    <path d="M209.65,348.24c7.49-3.2,14.79-5.4,18.59,3.39-3.28,7.87-14.6,11.59-27.78,20.63-9.1,6.25-17.84,11.15-20.27,11.48a11.94,11.94,0,0,1-4.43-5.66Z"/>
    <path d="M64.89,423.81c8.46.87,15.44,2,13.74,11.94-13.88,4-29.13.55-41.22,1.23-5.78.32-16,.35-17.84-.44-.85-1.05-1-4.76-.56-7.18Z"/>
  </g>
  <g class="bennettShoe">
    <path d="M45.88,397.15c-.39,5.72-.84,10.88,2.56,14.29,5.24,5.25,10.41,10.84,16.45,12.37a10.65,10.65,0,0,0-1.46,8.05c-12.35.41-21.38-1-29.77-.49-6.39.42-13.67-.55-14.65-2-.07-8.68,6.26-18.81,7.44-29.43Z"/>
    <path d="M176.35,341c3.45,5.16,7.39,9.26,12.84,9.85a39.57,39.57,0,0,0,20.46-2.62A15.15,15.15,0,0,0,214,357c-4,3.5-13.51,7.48-19.85,12.28-6,4.58-16.07,9-18.36,8.76-4.82-6.4-6.42-15-11.48-20Z"/>
  </g>
  <g class="shoelace">
    <path d="M48.44,411.44a10.23,10.23,0,0,1-1.67-2.23,16.59,16.59,0,0,0-2.2,1.51A42.1,42.1,0,0,0,57,423.22a12.22,12.22,0,0,1,2-2.2C55.33,418.52,51.9,414.91,48.44,411.44Z"/>
    <path d="M202.11,353.26a16.6,16.6,0,0,1-.09-2.75,40.13,40.13,0,0,1-12.83.35,12.44,12.44,0,0,1-4.29-1.29,11,11,0,0,0-.68,2.77C188.24,354.24,196.62,354.29,202.11,353.26Z"/>
  </g>
  <circle class="converseLogo" cx="182.06" cy="364.76" r="5.75"/>
  <path class="bennettJeans" d="M82.46,219.13c33.38,34.45,40.59,49.2,47.19,52.77,3.79,2.05,2.91,5.42,5.49,7,2.87,1.77,4.53,7.42,5.49,9.62,12.23,16.48,21,31.28,30.49,44.77,2.69,3.82,7.7,5.55,7.24,10.5-2-2.58-4.83,0-2.6,3.72-4,3.68-7.86,10.58-7.56,16.12-3.6.37-7.36-.86-9.56-1-2.19.82-4.65-2.38-4.09-5.21.4-2-7.4-.7-9.19-9.78-1-5-18.72-18-34.23-45.85-5,.27-3-3.23-4.43-3.37-5.09-.52-3.37-3.82-5.21-5.64-7.25-7.23-18.39-13.52-31.94-22.9-4.06,22.93-7.88,39.76-7.77,45.49.06,3.44.07,5.7-3.65,6.14,6.36,4.28-1.33,7.1-2.71,21.47-2.29,23.86-5.62,28.91-5.94,40.63-.12,4.56-2.19,4.73-.88,8.75.88,2.73-.28,4.62-2.07,6.15,1.6,1.46.72,4.75-1.32,5.74-.14-5.52-3.25-4.09-2.54,1.21-6.89.33-13.85,5.64-19.49,8.29-7.39-3.36-2.38-7.11-3.73-8.88-4-3.65.41-8.13,1-12,1.23-10.19.53-22.39.73-35.53A126.88,126.88,0,0,1,25,327.57c.17-.78-.95-4.34,2.08-6.57-5.73-4.06,2.29-2.6-2-73.35-4.17-3-.53-7-1.87-8.33-2.16-2.2-.85-6.25-1.15-7.4-2.71-10.52,1.34-22.89,8.33-32.61Z"/>
  <path class="bennettJacket" d="M112.85,105.1c5.25,19.32-.17,38.86-3.91,56.91-2.56,12.35-3.45,21.05-7.81,34.72a110.62,110.62,0,0,0-4,20.29c.45,2.77-17-2.33-27.85-6.16-11.74-4.12-37.71-15-36.86-16.92,3.9-12.09,2.4-11.74-.34-6.65-2.43,4.65-14.2-1.67-11.72-6.64,8.77-10.17,12.88-28.38,18.19-33.58,2.35-2.3,3.48-9.07,6.47-9.62-1.55-6.59,4.13-4.86,6.29-8C57,121.06,69.6,106.7,81.2,93.56,94.06,91.35,104.82,94.64,112.85,105.1Z"/>
  <path class="bennettHoodieInner" d="M86,83.34c-.2-.61,5.14-5.1,7-4.23,7.19,3.39,12.16,10,16.33,14.92,4.33,5.06,7.06,8.27,4.49,15.28C112.08,101.29,100.18,92.41,86,83.34Z"/>
  <path class="teeth" d="M142.3,88.59c-3.66-1.41-6,1.74-1.17,2.13A5.68,5.68,0,0,0,142.3,88.59Z"/>
  <g class="eye">
    <circle class="sclera" cx="147.54" cy="65.14" r="5.82"/>
    <path class="irisDarkBrown" d="M149,69.78c.37.12,1.72-1.08,2.31-2.9s.18-3.58-.19-3.7A19.86,19.86,0,0,0,149,69.78Z"/>
    <path class="pupil" d="M150.5,68c.29.09.62-.43.85-1.14s.27-1.33,0-1.43A10.55,10.55,0,0,0,150.5,68Z"/>
  </g>
  <g class="skinEastAsian">
    <path d="M89.37,56.93c3.44,3,7.23,16.41,4.34,22.52,6.81,3.48,11.59,9.86,15.63,14.58,2.38,2.78,4.28,5,5.07,7.61,3-8.42,15.17-19.19,23.37-16.38Z"/>
    <path d="M25.2,204.79c-3.64,2.69-7.44,4.33-9.65,5.59-2,1.13-5.68.24-8.51-.43-2.48-.59-3.85-2.69-6.61-4.58-.65-.79.58-1.59,1.46-1.52-.44-1.09.54-2.49,2-3a2.63,2.63,0,0,1,2.9-3.2c.29-3,3.39-4.84,4.58-7,5.28-9.77,8.49-8.13,9.87-9.58,5.67-4.8,13.15.07,10.17,6.24C27.3,195.79,27.87,202.81,25.2,204.79ZM15,201.34a15.71,15.71,0,0,1,2.7-4.59,8.92,8.92,0,0,1,.26-4.63c-2.8,2.85-4.08,8-8.2,8.4C10.84,203.17,11.65,201.49,15,201.34Z"/>
    <path d="M32.62,161.66c.79,6.29,2,11.73,9.54,12.23-.14,5.57-4,10.74-10.1,13.4a59.85,59.85,0,0,1,2.53-6c-2-1.91-2.35-7.44-1.36-12.14a10,10,0,0,1-5.34-.81A62.79,62.79,0,0,1,22,178.56a2.77,2.77,0,0,1,.63-4.17,2.36,2.36,0,0,1,1-3.26A2.46,2.46,0,0,1,22,169C26.66,166.13,22.88,162.35,32.62,161.66Z"/>
    <path d="M110.21,70.67c-4.27,1.58-5.28-.91-6.8-3.9-32-26.2,37.31-66.41,57.13-29.68-5.39,10.19-.08,20.68-6,28.15-3.09,3.89.57,13.61.69,16.91.21,5.37-5.9,2-6.95,2.26a4.24,4.24,0,0,0-.78,4.3c-.56,1.2-2.15,1.94-2.52,1.58-2-1.8-5.39-1.69-5.94-.77,3.25.77,7.26,3.93,4.7,6.1-6.46.16-2.31,8.76-11.45,7.19-2.4-.41-5.12-3.15-10.1-7.14s-9.65-8.88-11.69-14.42m41.14-16.58a20,20,0,0,0-5.72.72c1.61,1,3.17,2.23,4.67,3A5.33,5.33,0,0,0,151.64,64.67Z"/>
  </g>
  <g class="skinOverlapLine">
    <path d="M22.6,202.17a18.38,18.38,0,0,1-5.66,5.66c-1.42.68-6.69.63-8.39,0-2.32-.68-4.07-2.43-6.66-4"/>
    <path d="M3.85,200.8c2.27-.61,4.48.75,5.89,1.88l1.88-.72"/>
    <path d="M6.75,197.6a2.88,2.88,0,0,0,3,2.92"/>
    <path d="M22.63,174.39a1.55,1.55,0,0,0,1.54.87"/>
    <path d="M23.63,171.13a5.51,5.51,0,0,0,2.91,0"/>
  </g>
  <g class="skinFoldLine">
    <path d="M111.5,56.41c-.84-11.09-14.25-4.34-8.68,5.11"/>
    <path d="M109.47,59c-3.34,1.22.9,5.15-1,5.56-1.14.24-.67-1.91-3.15-4.24-2.65-2.48,2-6.5,3.29-4"/>
  </g>
  <g class="bennettHoodie">
    <path d="M69.26,210.86c-11.74-4.12-37.71-15-36.86-16.92-1.46,1.25-1.78,4.27-3.17,6-.93,2.46,19,11.14,36.66,16,10.53,2.91,18,6,19.38,5.11.82-.57.31-2.23,1.42-4.84C81.17,214.81,74.47,212.69,69.26,210.86Z"/>
    <path d="M113.83,109.31c.33-2.18,1.37-5.63-2.69-9.37-3.35-3.09-6.35-6.77-10-9.4-5.38-3.89-11.76-6.39-17.4-10.79-4.32-3.36-7.32-1.9-11,5.57-6.36,1.19-6.23,5.68-7,10.21-.5,3.07-3.47,5.23-1.16,10,1,1.62.67,4.08,2.8,3.8,12.06-15.52,27.14-18.42,37.85-8.88C108.12,103,112.3,105.16,113.83,109.31Z"/>
  </g>
  <g class="clothesDisplayLine">
    <path d="M73.41,218.55c-3.31,1.91-7.65,2.81-13.86,1.86"/>
    <path d="M63.43,431.86a48.27,48.27,0,0,0,14.83-2.39"/>
    <path d="M225.47,347.51c-1.83,2.71-6.88,6.83-11.5,9.53"/>
  </g>
  <g class="clothesOverlapLine">
    <path d="M42.16,173.89c3.66.66,5-.84,10.15-5.54,2.19-2,4.7-2.79,6.8-6.34,3-.54,4.11-2.68,4.71-5.24,5.18-.41,6.48-5,9.18-8.9,4.7-6.8,14.09-15,24.9-27.27"/>
    <path d="M75,107.49c-5.91,5.89-11.49,14.83-12.6,14.89-3.8.2-6.7,10.49-10.7,12.49-2.05.35-4.6,5-4.8,7.2-3.49,1.5-3.08,3.51-5.29,6-9.25,10.4-9.6,10.49-9,13.59"/>
    <path d="M88.55,177.59c-6.19,7.7-14.39,15.74-20.08,18.58"/>
    <path d="M84.38,221.13c.2,3.94-1.44,5-1.32,7.81.47,5.71-3.26,5.59-3.49,8.38.23,5.94-4.31,7.11-4.54,10-2.27,6.38-4,15.21-5.48,22.55"/>
    <path d="M42.67,405.47c.57,1.59.72,3.77,1.9,5.25"/>
    <path d="M48.44,411.44c-.71.64-1.4,1.24-2.09,1.77"/>
    <path d="M50.75,413.76c-.86.72-1.65,1.41-2.31,2"/>
    <path d="M52.8,415.79a20.6,20.6,0,0,0-2.45,2.07"/>
    <path d="M54.69,417.56c-.84.7-1.63,1.44-2.37,2.18"/>
    <path d="M56.94,419.49a8.65,8.65,0,0,0-2.25,2.18"/>
    <path d="M187.49,350.55a13.44,13.44,0,0,0-.63,2.66"/>
    <path d="M190.26,351a14.39,14.39,0,0,0-.37,2.73"/>
    <path d="M193.56,351.19a13.72,13.72,0,0,0-.4,2.74"/>
    <path d="M196.28,351.19a15.29,15.29,0,0,0-.3,2.71"/>
    <path d="M199.06,351q-.12,1.35-.12,2.73"/>
    <path d="M175.76,347.51c1.59-.09,4.89,3,8.46,4.83"/>
  </g>
  <g class="clothesFoldLine">
    <path d="M72.74,85.32C77,90.45,87.33,88.24,96.88,92"/>
    <path d="M66.41,91.52c-.3,3.08,5.3,5.88,1.21,9.25"/>
    <path d="M87.23,98c-7.62,3.56-10.6,8.39-12.22,9.51.86-2.66,2.83-5.11,5.18-7.49"/>
    <path d="M102.08,113.21c.26,2.61-1.4,5-4.18,7.39,4.38-1,7.28-5.94,7.75-11.44"/>
    <path d="M87,119.77c-9,5.13-17.32,8.12-23.72,4.92"/>
    <path d="M78.36,129.7A34.79,34.79,0,0,0,67.17,134"/>
    <path d="M51.84,137.71a14.4,14.4,0,0,0-1.93,7.81"/>
    <path d="M46.91,142.07c-.85,2.58-.29,4.86-1.72,4.51"/>
    <path d="M42.39,153.14c-2.09,1.92-4.12,3.31-6,3.08"/>
    <path d="M49.72,159.89a13,13,0,0,0-1.25,9.25"/>
    <path d="M59.11,162a5,5,0,0,1-3.31-1.83"/>
    <path d="M68.72,149.47a13.88,13.88,0,0,1-9,4.44"/>
    <path d="M63.82,156.77c-2-.18-3.86-.25-2.62,2.06"/>
    <path d="M45,137.45a2.88,2.88,0,0,0,1.83-1.77"/>
    <path d="M89.45,141.47c.48,6.36,3.27,10.78,4.44,14.85"/>
    <path d="M87.33,148.7a46.37,46.37,0,0,0,6.46,18.23"/>
    <path d="M54.5,166.67a47.08,47.08,0,0,0,5.83,10.92"/>
    <path d="M52.9,173.58a54.24,54.24,0,0,0,9.94,14.18"/>
    <path d="M73.06,241.13c-4.19-.28-9-1.16-13.51-1.66"/>
    <path d="M70,247.07c-1,.54-12.68,1.9-12.11,1.4"/>
    <path d="M127,272.84a25.44,25.44,0,0,1-12.45,9.85"/>
    <path d="M103.91,289.55c5.2-1.84,7-1.6,2.33,2.68"/>
    <path d="M111.48,295.61c5.12-7.45,15.51-15.43,16.33-14.15.64,1-6.67,9.84-13.07,14.38"/>
    <path d="M136,283.32c-3.56.7-6.17,4.66-9.9,8.15"/>
    <path d="M111.13,301.8c3.84-.95,9.23-5,5.94,1.26"/>
    <path d="M43.32,314.48c4.46,3.67,9.73,4.15,15.72,1.86"/>
    <path d="M41.23,319.37c6.63,3.61-4.3,5.59-10-.93"/>
    <path d="M27.05,321c3.5,2,5.67,4,.68,5.59"/>
    <path d="M58.13,321.52c-9.57.41-14.34,2.15.21,3.32"/>
    <path d="M54.5,330c-.39-2.63-10.2-2.09-20.56.23"/>
    <path d="M29,389.1a24.27,24.27,0,0,0,16.4,3.5"/>
    <path d="M20.49,392.9C24,396.67,33.24,394,32.79,396c-.32,1.42-7.62,2.54-9.48,1.73"/>
    <path d="M47.3,398.52c-2,1.29-9-.8-11.27,1.88"/>
    <path d="M19.45,404.88c4.12,1.19,17.4-5.3,13-.53"/>
    <path d="M170,337.69c-5.36,6-12.49,11.72-19.82,10.77"/>
    <path d="M173.68,335.83c2.08,2.31-1,6.73-6.91,11.4"/>
    <path d="M158.64,362.64c3.83-1.37,8.48-13.27,10.11-12.42.88.46.08,2.18-3.72,5.82"/>
    <path d="M152.22,355.82c7-1.42,8-6.54,9.44-4.26.8,2.15-2.1,2.62-6.41,4.24"/>
  </g>
  <g class="lipMaleMedium__noStroke">
    <path d="M139,89.52c1.66,2.8,1.17,5.1,4.7,6.1C146.3,93.45,142.29,90.29,139,89.52Z"/>
    <path d="M145,90.29c.37.36,2-.38,2.52-1.58h0c-2.79.78-7.12-1-8.46.81C139.59,88.6,143,88.49,145,90.29Z"/>
  </g>
  <path class="lipEdgeLine" d="M141.44,94.25a3.86,3.86,0,0,0,2.3,1.37"/>
  <path class="cheekLine" d="M138.21,91.29c1.65-4.13,3.36-4.55,4.83-6.71"/>
  <path class="noseLine" d="M151.09,84.17c-2.19-.87-4.23.28-5-.44a2.06,2.06,0,0,1,.68-3.34"/>
  <g class="eyeLidLine">
    <path d="M151.64,64.67c2.16.13,1.18-2.29,1.18-2.29"/>
    <path d="M150.59,68.42c.8.42.58,1.64-.87,2.11"/>
  </g>
  <path class="eyeCornerLine" d="M145.92,65.39a5.69,5.69,0,0,1-1.71.22"/>
  <path class="eyeCreaseLine" d="M147.45,63.73a13,13,0,0,1,5.56-.47"/>
  <path class="eyebrowBlack" d="M156.07,58.88c-4.25,3.72-6.27-1-11.87.7C148.77,55.66,151,59.22,156.07,58.88Z"/>
  <path class="hairBlack" d="M156.77,36.42c-3.49,12.51-.22,16.76,6.51,21.35-2.12-4.21,5-13.72-1.58-22.29,1.4.71,2.52,2.33,4.55,3.35-4.1-6.21-1.87-14.49-19.05-25-7.2-4.43-20.6-7.78-31.69-7,.87-3.51,5.16-5.55,9.15-6.37a13.15,13.15,0,0,0-13.09,6.79c-2.64-5.55-6.68-5.52-10.14-3.26,3.64-.72,6.73,1,6.95,4.49C90.7,13.55,75,47.36,92.21,68.25a27.56,27.56,0,0,0,11.2-1.48c-3.12-5.14-6.21-9.45-2-15.81,3.24-4.87,14.15-3.45,12.28,4.06A43.18,43.18,0,0,0,123,57.85c2-5.83.9-4.36,7.68-8.2,5.69.93,15,4.89,19.05-7.23a41.93,41.93,0,0,0-.69,5.94C150.37,45.5,154.63,43.44,156.77,36.42Z"/>
  <path class="hairOverlapLine" d="M130.69,49.65a28.7,28.7,0,0,0-6.09-.71c2.45-.8,3.81-1.26,5.2-1.86"/>
</svg>
