<svg viewBox="0 0 189.65 451.49">
  <g class="soleWhite">
    <path d="M143.42,431.63c7.08,1.33,16.1-1.82,15.05,9.48-9.37,7.7-24.34,5-38.88,5.91-7.36.44-13,2.32-19.88,1.53a11,11,0,0,1-1.78-6.12Z"/>
    <path d="M42.9,436.88c4,3.56,12.18,4,8,13.06-23.82,5.91-29.52-9.75-39.23-17.38-5.1-4-9.27-8-11.38-13.14a8.66,8.66,0,0,1,3.25-5.24Z"/>
  </g>
  <g class="bennettShoe">
    <path d="M114.74,404.5c3,8.29,6.18,15.9,9.71,17.88,6.28,3.53,12.13,7.32,19,9.25a13.92,13.92,0,0,0-.93,8.95c-7.43,1.61-19,.43-30.06,1.85-5.78.73-12.56,1.22-14.5,0-1.33-7.18,1.18-18.42-1.69-27.29Z"/>
    <path d="M40.07,399.78c-3.85,6.73-5.9,16.8-4.81,19.75,2.45,6.61,4.76,13.77,7.64,17.35a11.44,11.44,0,0,0-9,6.77C24.79,440.81,20.37,431.9,13,425.53c-4-3.48-9.38-9.16-9.49-11.35,2.24-4.9,12.2-10,18.09-16.8Z"/>
  </g>
  <g class="shoelace">
    <path d="M39.63,431c-1.51-3.45-2.91-7.57-4.37-11.5a13.23,13.23,0,0,1,0-5.56,14.7,14.7,0,0,0-3.54,0c-.82,4.06,1.11,10.34,4.18,17.57A11.67,11.67,0,0,1,39.63,431Z"/>
    <path d="M133.11,431.63a11.53,11.53,0,0,1,3-2.83c-3.94-1.89-7.71-4.21-11.65-6.42a11.94,11.94,0,0,1-3.84-4.33,13.12,13.12,0,0,0-3,2.18C119.75,424.71,125.83,428.31,133.11,431.63Z"/>
  </g>
  <circle class="converseLogo" cx="109.96" cy="430.84" r="5.75"/>
  <path class="bennettJeans" d="M111.47,229.73c-2.24,3.3-1.36,5.9-2.68,8.41-1.52,2.91,1,4.54-1.61,8.92,1.67,11.6,2.34,32.29,2.57,51.6.12,10-1.11,21.32.41,24.46,2.89,5.93-2.43,8.16-.14,12,2.4,4,0,5.7.29,8.33,4.82,15.06,2.65,41.65,5.42,50.53.79,1.74,3.9,3.83,1.7,9-.12,2.22-1.17,3.36-1.29,5.4-1.35-2.77-4-.34-4.54,3-4.8,1.48-9.52,7.54-14,11.62-1.34-4.22-5.9-3.91-6.48-7.86-5.41-2.78-.39-7.48-2.34-11.7-3.3-7.1-3.82-25.74-7.62-41.24C77.49,355,81.21,349.05,79,344c-1.58-3.52,1.12-5.26-.21-8.5-4.08,4.71-.63,6.27-4.73,9.83-2,7.32-20.34,31.15-25.78,44.57-1.83,4-3.32,10.25-9.82,13.22.11-2.54-2.31-1.93-4.26,2.08-4.76-1.8-10.75-2-16.38-3.68a7.61,7.61,0,0,1-1.17-4.33c-2.07-3,1.74-4.38,2.34-7-4.24-6.36,2.94-11.45,7-19.44,8.08-16,13.69-36.26,18.64-37.76-.31-3.89,1.06-5.78,4.68-5-5.11-4.18-.16-8.36-.44-11-1.58-14.8-1.73-34.55-1.21-55.65-2.82-3.17,1.08-5,.88-8-2.59-1.55.83-4.65-.14-7.46C44.51,235,50,217.56,57,210.37Z"/>
  <path class="bennettHoodieInner" d="M105.72,83.44c2.18-1.52,3.75-3.89,5.41-3.6,7.22,1.24,23.24,20.11,23.13,25.32Z"/>
  <g class="bennettHoodie">
    <path d="M117.74,218.94c-4,6.14-3.46,11.61-4.46,12.17-4.91,1-55.36-17.75-57.6-20.54-.33-1.12,2.9-4,3.13-7.26Z"/>
    <path d="M133.55,108.34c2.88-4.18-2.54-6.75-5.38-10.68-3.26-4.5-7.27-7.66-12.06-11-8.81-6.1-13.28-3.39-18.7-6.1-3.83-2.76-6.2.41-8.13,5.42-2-.27-4.87-2.64-5.82,3.25-.81,5,1,7.06,1.76,10.3.91,3.86-2.17,8,5,8.78Z"/>
  </g>
  <path class="bennettJacket" d="M133.55,108.34c-.64-2.28-2.94-4.45-4.84-4.58-3.25-8-12.94-9.14-19.24-8.85-5.25.25-9.91,0-19.2,13.43h0c-4.61,7-9.07,16.39-13.24,28.09-1.46,4.52-4,0-13.75,44.16-5.28,3.36-1.08,9.32-5.07,14-2.78,2.81-.91,5.38-2.1,8.65,5.16,3.5,17,8.09,25.22,10.26a75.47,75.47,0,0,0,0,14.1c2.12,2.61,18.7,2.61,21.39.12.93-.78-.16-6.6.5-9.27,4.64,1.72,18.77,2.77,19.74,1.09,3.58-16.88,4.83-32.21,6.5-45.38,1.55-12.17,5.81-17.4,5.19-27.83C134.37,141.68,139.49,137.67,133.55,108.34Z"/>
  <g class="clothesDisplayLine">
    <path d="M33.85,443.65c4.75,1.59,11.95,1.49,17.84,0"/>
    <path d="M142.49,440.58a36.19,36.19,0,0,0,15-5.64"/>
  </g>
  <g class="clothesOverlapLine">
    <path d="M128.71,103.76a9.16,9.16,0,0,1,.76,9.63c1.4,3.53,1.24,6.47-2.52,8.07a29.59,29.59,0,0,1-3.78,8.57c1.53,5.14-1.77,6.56-7.7,18.67-5.66,11.56-4.41,15.76-8.44,15.63a8,8,0,0,0-1.39,3.66c1.47,1.58,1.12,2.94-1.52,4,1.46,2.33,1.51,4.43-.63,6.18,2,1.38.12,9.83.13,14.37,0,5.1.75,9.85-.88,14.13,2.2,2.39,0,7.69.48,11.72"/>
    <path d="M101.1,117.67c-8.4,16.4-18.54,37.84-19,46.41-.49,8.28-.67,31.58-.73,49.4"/>
    <path d="M107.18,247.06c-5,7.17-5.52,16.83-9.25,19.71-2.87,18.4-9.58,38.79-16.54,59.32-.6,1.76.09,5.31-2.65,9.41"/>
    <path d="M34.15,405.36c.05,1.61-1.92,5-2.43,8.63"/>
    <path d="M31.57,417.1a7.65,7.65,0,0,1,3.4,0"/>
    <path d="M32,420.09a14.36,14.36,0,0,1,3.47,0"/>
    <path d="M32.73,423a6.48,6.48,0,0,1,3.7-.25"/>
    <path d="M33.61,425.71a7.9,7.9,0,0,1,3.73-.5"/>
    <path d="M34.78,428.82a7,7,0,0,1,3.63-.77"/>
    <path d="M117.64,420.23c-2.24-3.59-3.81-7.8-6-8.93"/>
    <path d="M119.46,422.93l3.26-2"/>
    <path d="M121.79,425.13a11.4,11.4,0,0,1,3.63-2.2"/>
    <path d="M124.45,427.05a10.29,10.29,0,0,1,3.49-2.67"/>
    <path d="M127.15,428.66a11.29,11.29,0,0,1,3.13-3"/>
    <path d="M130.28,430.29a11.59,11.59,0,0,1,2.66-3.1"/>
  </g>
  <g class="clothesFoldLine">
    <path d="M89.28,86c4.8,2.21,10.61,1.81,16.86.26"/>
    <path d="M98.58,111.75c-.8,4-.49,6.8,1.47,8"/>
    <path d="M107.53,99c-4.71,5.65-8.2,11.57-6.43,18.66"/>
    <path d="M118.5,99.89c-11.85-2.39-19.92,18-7.94,4.29"/>
    <path d="M120.9,104.56a16.93,16.93,0,0,0-8.2,3.28"/>
    <path d="M116,109.1c-3.78,1-6.88,2.72-9,5.42"/>
    <path d="M128,109.6c-.23.69,1.32,4,1.51,3.79"/>
    <path d="M127.2,115.66c.59,1.42.51,3.36-.25,5.8"/>
    <path d="M123.17,130c-1.69,5.7-8,10-18.29,13"/>
    <path d="M114.21,143.4a41.09,41.09,0,0,1-14.12,5.17"/>
    <path d="M107,164.33c-2.8.31-10-5.17-15.64-6.18"/>
    <path d="M105.64,168c-4.23-2.56-10-4.21-16.4-5.55"/>
    <path d="M88.49,165.47c5.17.63,13.87,4.54,7.44,3.91"/>
    <path d="M104.12,172c-2.12.45-4,1-2.64,2.65"/>
    <path d="M103.49,178.21c-1.38.53-2.49,1.09-2.52,1.76"/>
    <path d="M85.08,188.67c1.14,7.82,10.09,23.71,15.51,22.45"/>
    <path d="M84.07,202.42c2.41,5.13,9,8.32,9.59,12.36"/>
    <path d="M59,196.24c1.12,2.44,3.56,3.38,6.55,3.66"/>
    <path d="M63.28,180.59a8,8,0,0,0-1,3.8"/>
    <path d="M65,184.26c2.14.88,7.19-1,10-4.54"/>
    <path d="M119.64,158.53c-2.28,4.91-7.44,8.58-10.72,12.61"/>
    <path d="M126.57,151.47c-3.18,7.81-6.55,14.2-10.21,18.41"/>
    <path d="M112.83,185.77A58.58,58.58,0,0,1,103.74,197"/>
    <path d="M48.47,253.35a10.33,10.33,0,0,0,4.6.89"/>
    <path d="M99,254.61c-6.21,4.77-13.75,5.07-22.51,1.32"/>
    <path d="M103.46,254.24c-2.56,5.27-6.74,8.45-13.52,8.31"/>
    <path d="M97.93,266.77a7.5,7.5,0,0,1-3.66,1.07"/>
    <path d="M56.85,313.29c4.09,10.22,15.89,22.86-3.61,7.82"/>
    <path d="M49.24,328c2.92,1.64,10.5,1.76,10.13,3.21-.65,2.61-5.89-1.69-7.57-1.21"/>
    <path d="M47.71,333c4.68,1,1.68,2.58-4.1,2.58"/>
    <path d="M44.46,342.53c10.83-5.78,28.11-10.95,16.48.72"/>
    <path d="M106.91,326.62c-5.42,5.29-14.06-.41-19.36-.9"/>
    <path d="M110,335.1c-7-1.14-6.38-2.21-.71-5.23"/>
    <path d="M86.11,331c13.31.51,15.3,3-.84,8.78"/>
    <path d="M106.42,340c-3.15-3.9-19.23,3.31-20.91,10.54"/>
    <path d="M79,344a7.73,7.73,0,0,0,5,.33"/>
    <path d="M115.73,394c-.76,3.73,3.63,5.82-9.56,11"/>
    <path d="M87.88,387.86c2.38,7.73,5.47,14.77,11.57,16.91"/>
    <path d="M117.43,402.91c-4.05,5.75-10.39,7.65-18.84,6"/>
    <path d="M88.76,403.36a10.56,10.56,0,0,0,5.49,5.25"/>
    <path d="M91.1,415.06c3.73-2.78,7.49-3.06,7.84-1.77.23.9-3.74.23-5.55,1.69"/>
    <path d="M18.94,390.18c3.2,3.5,13.88,9,3,5.57"/>
    <path d="M36.17,402.29a9.21,9.21,0,0,0-8-1.89"/>
    <path d="M16.6,397.19c1.4,1.3,4,2.26,6.61,3"/>
    <path d="M43.89,393.9c-1.26,2.86-7.42,5-10.52,1.16-2.12-2.6-6.32-2.41-8.21-7.92"/>
  </g>
  <path class="teeth" d="M162.06,87.56c-5.14-2.55-7.66,2.07-1.59,3.41A14.39,14.39,0,0,0,162.06,87.56Z"/>
  <g class="skinEastAsian">
    <path d="M102,246.62c.26-4.55-.68-5.32-.55-7.65.29-5.25-.87-6.33-1-10.27a43.34,43.34,0,0,1-13.67.58c-1.73,4.61-6.19,5.31-6.43,16.58a18.71,18.71,0,0,0,16.38-2.47c0,8.69,5.11,11.17,6.21,8.92C103.4,252,102,248.24,102,246.62Z"/>
    <path d="M107.18,247.06c.1.65.18,1.33.26,2,1,.75,1.94,1,2.72.32.43-1.11-.25-3.5.6-7.18.94-3.47-.19-4.93-1-7.83a11.49,11.49,0,0,1-1,3.73C107.27,241.05,109.8,242.68,107.18,247.06Z"/>
    <path d="M110.35,56.89c4.18,5.69,5.8,16,1.64,23.17,6.19,2,17.26,14.2,21,21.31,3.87-8.41,18.23-20.32,26.09-17.63Z"/>
    <path d="M132,81.93c1.86,5,5.69,9.44,10.24,13.62,4.69,4.33,9,6.92,11.41,7.17,8.31.86,5-6.75,9.26-7.21,4.1-4.77-4-5.25-4.53-6.17.21-.42.48-.83.77-1.29a6.74,6.74,0,0,1,5.28.9c.44.36,2.26-.46,2.82-1.65a3.59,3.59,0,0,1,.85-3.61c5.06,2.78,7.81,1.42,7.43-2.19-.73-6.87-3.58-12.6-.46-16.48,6-7.42,2.49-17.73,6.34-28.28-19.59-36.85-90,2.46-58.1,28.87,1.94,3.38,2.66,6.64,8,4.71"/>
  </g>
  <g class="skinFoldLine">
    <path d="M132.37,56.43c-.74-10.87-14.79-4.1-8,5.7"/>
    <path d="M131.18,59.2c-3,1.35.89,5.37-1,5.92-1.32.39-.75-2.27-3.11-4.55s2.07-6.34,2.9-3.9"/>
  </g>
  <g class="lipMaleMedium__noStroke">
    <path d="M167.26,87.3c-2.08.9-4.92-.49-8.1.75a6.74,6.74,0,0,1,5.28.9c.44.36,2.26-.46,2.82-1.65Z"/>
    <path d="M158.43,89.39c1.91,1.83,1.69,4.84,4.49,6.12C167,90.82,159.24,90.28,158.43,89.39Z"/>
  </g>
  <path class="lipEdgeLine" d="M160.94,93.76a4.22,4.22,0,0,0,2,1.75"/>
  <path class="cheekLine" d="M157.4,90.73c1.4-1.18,1.07-3.63,6.16-6.25"/>
  <path class="noseLine" d="M171.14,83.68c-1.92-.36-3,.42-4-.31-1.4-1-1.27-2.44.21-3.57"/>
  <path class="eyeLidLine" d="M170.16,69.15c1.21-.2,1.89-2,1.17-2.64,1.8-.77,1.84-3,1.65-3.81"/>
  <path class="eyeLashLine" d="M162.74,64.13c3.5,2.09,3.83.16,8.59,2.38"/>
  <path class="eyebrowBlack" d="M175.16,60.58c-4,3-6.46-2.54-11.79-1.55C169.13,54.82,171.06,60,175.16,60.58Z"/>
  <path class="hairBlack" d="M176.8,37.81c-2.52,9.62-.11,14,6.35,18.4-1.73-7.13,5.56-9.83.9-21.1a13.29,13.29,0,0,0,5,3c-5.64-8-5.43-15.32-20.12-23.32-7.43-4-20.52-8.47-31.61-7.79,1.16-3.19,4.59-5.57,8.31-6.68C140.47-.17,135.58,3,132.88,7c-2.1-3.68-6.7-5.37-10.38-2.63,3.64-.7,5.66.83,6.74,3.72-18,5.14-32.07,36.54-16.25,60a18,18,0,0,0,10.33-2.51c-3.09-5.16-5.24-9.12-.47-15.2,3.31-4.22,12.19-2.68,11.63,4a39.28,39.28,0,0,0,9.26,2.95c2-5.81.41-6,8.16-8.85,4,.8,11.12,4.82,18.09-5.2a27.22,27.22,0,0,0-1.67,5.61C170.49,44.75,174.06,46.24,176.8,37.81Z"/>
  <path class="hairOverlapLine" d="M151.9,48.48A39.34,39.34,0,0,0,145,47.1a46.83,46.83,0,0,0,5.59-1.54"/>
</svg>
