<svg viewBox="0 0 127.83 461.27">
  <g class="soleWhite">
    <path d="M113.9,435.82c5.57.95,12-1.06,13.66,8.65-8.87,9.47-22.76,7.18-35.32,8.76-6.82.85-17.17.12-18.94-1.31a9.78,9.78,0,0,1-1.91-6.62Z"/>
    <path d="M46.54,446.36c6.75,1.78,14.56,2.25,12.81,11.48-20.17,7.22-30.56.16-43.11-2-5.09-.87-12.79-3.35-13.5-5.13a10.22,10.22,0,0,1,.71-6Z"/>
  </g>
  <g class="bennettShoe">
    <path d="M70.34,421.62c1.45,6.51-.25,16.69,1,23.68,11.37,4.49,20.73,1.65,33.4,1.42a14.68,14.68,0,0,1,9.11-10.9c-10.41-1.89-13.5-4.83-18.46-9.47-3.56-3.31-6-9-7.34-15.62Z"/>
    <path d="M33.17,415.66c-1.48,6.81-1.18,14.83.23,17.32,4.5,7.93,4.86,11.13,13.14,13.38-5.82,1-10.31,2.9-10.53,7.58-5.92,0-14-2.71-20.68-3.93-4.39-.81-10.22-3.18-11.88-5.31,2.13-10.33,8.17-16.69,8.17-28.09A45.77,45.77,0,0,1,33.17,415.66Z"/>
  </g>
  <g class="shoelace">
    <path d="M33.4,433a13.57,13.57,0,0,1-1.1-5,10.79,10.79,0,0,0-4.5.71,41.77,41.77,0,0,0,7,14.88A11.81,11.81,0,0,1,39,442.26C37.05,440.15,35.82,437.25,33.4,433Z"/>
    <path d="M95.44,426.35a16.13,16.13,0,0,1-2.15-2.46c-2,.44-5.38,2-5,2.71a55.9,55.9,0,0,0,11.83,11,19,19,0,0,1,6.76-3.53C101.67,432.2,99.05,429.73,95.44,426.35Z"/>
  </g>
  <ellipse class="converseLogo" cx="81.48" cy="437.61" rx="5.39" ry="5.75"/>
  <path class="bennettJeans" d="M80.15,234.41c1.87,10.59.29,17.45.78,24.61,4,59.19,8.94,68.34,5.28,72.89-2.82,3.5,5.29,5.91.93,11.21,2.08,10.82,2.81,44.07,4.52,64.32.22,2.65,2.82,5.45-1.54,10.43-.78-4.82-7.17-3.73-6.06,1.57-4.42.39-9.2,4.51-13.1,8.56-1.56-3-4.68-4.81-3.89-7.18-4.2-.3-3.27-4.5-.62-6.53-8.1-4-4.57-15-5.76-23.51-2.58-18.42-7.95-45.17-5-46.26-6.85-2.65,1.87-7.79-3.89-11.84-.63,2.34-.37,5.55-2.5,7.17,0,12.43-5,37.86-11.52,61.83-1.18,4.32,2,14-5.4,19.14-.36-4-6-3.41-6.44,1.73-4.92-.16-10.59,2.18-15.87,3.8-.95-2.25-2.66-2.87-1.26-5.2-3.42-4.37-.14-3-1.38-8.41-4.21-7-.36-9.49.46-16.05,2.32-18.4,5.89-51.64,8-52.79-2-3.74,1.71-6.85.78-10.13-3.12-5.29.95-9.06,0-16.19a345.05,345.05,0,0,1-3.12-47.5c-1.82-2.31-.86-5.49-1.4-7.79-3-12.83-1.23-24.5,3.88-38.78Z"/>
  <path class="shirtWhite" d="M80.52,224.87c-8.54,1.59-52.33-.53-64.37-5.33-.56,2.22-1.35,3.41-1,5.31,19.28,1.38,47.46,16.53,65.87,11.27-.75-1.87.46-3.62-1.16-5.26C82.35,228.84,80.31,227.66,80.52,224.87Z"/>
  <g class="bennettJacket">
    <path d="M79.9,230.86c1.62,1.64.41,3.39,1.16,5.26l-.61.17c.26,1.79.42,3.48.52,5.08,4.38-2.29,9.42-4.51,11.17-6.14-2.58-7.38-7.91-14.49-10.08-22.62l-1.54,12.26C80.31,227.66,82.35,228.84,79.9,230.86Z"/>
    <path d="M29,100.45c-10.59,5.06-23.37,15.42-18.86,22.8-2,1.91-1.65,6.09-2.33,8.83s-2.08,3.4-1.58,7.66c-4.48,19.49-9.72,41.42-2.15,49.94,3.33,3.74,7.59,3.43,12.61,2.6-2.62,5.46,2.77,7.81-.14,11.8-3.14,4.31-.81,4.72-1.16,7.16s-2.64,2.31-.86,7.53c9.42,5.54,60.59,7.95,66.84,5.9-.21-15.4,8.79-18.59,3.89-38.72-1.51-6.18.44-8.67.29-13.9-.17-6-.88-12.19-1.18-19.74,2.56-15.88,4.51-33.61,1.84-37.25-5.49-7.47-8.23-8.89-14.38-15.15Z"/>
  </g>
  <path class="bennettJacketInner" d="M52.87,152c1.64,3.81,4.52,11.91,10.78,17.17C64,167.89,54.12,152.61,52.87,152Z"/>
  <g class="zipperDisplayLine">
    <path d="M70.47,158.9c2.6,5.69.39,9.41.54,11.93.27,4.61,2.85,4.79.56,13.38,6.57,20.24-2.4,29.92-1.62,41.18"/>
    <path d="M66.13,110.85c2.94,3.83,1.44,8.53,2.13,11.39.88,3.65,1.77,5.5,1.88,9.77"/>
  </g>
  <path class="bennettJacketCollar" d="M54.43,117.5c-10.58-5.85-26.29-16-25.43-17,6.36-5.85,6.46-12.75,30.76-10.12,13.69,1.49,14.09,12.92,17,23.3-3.27-1.21-4.14-8.61-7.84-7.83L62,107C59.16,106.66,58.58,112.93,54.43,117.5Z"/>
  <g class="clothesDisplayLine">
    <path d="M75,237.15c-1,4.07,2.18,4.89.25,9.78-1,2.67.49,6.5-4.56,12.22-2.21,2.51-5,1.63-7.33,4.89,1.14-4.23,3.91-3.91,6-11.73.69-2.54.33-4.4,1-6.52,1-3.27-1-5.2-.2-8.62"/>
    <path d="M58.55,235.48a19,19,0,0,1-13,1.39"/>
    <path d="M104.79,446.72a44.68,44.68,0,0,0,20.81-7.45"/>
    <path d="M36,453.94c8.15.88,15.73.25,22.51-2.49"/>
  </g>
  <g class="clothesOverlapLine">
    <path d="M33.92,136c-1.25,8.62-2.9,16.18-5.41,21.45,1.09,2.12-.69,4.51-2.06,6.87,1.76-.49,1.76,2.74,10.59-2.36,1-2.65,3.17-3.1,5.49-3.23,0-3.93,5.4-2.45,10.34-6.73"/>
    <path d="M63.65,169.15c-1.8,4.56-32.24,21.66-47,23.13"/>
    <path d="M81.85,117.7a26.45,26.45,0,0,1,1.58,8.47"/>
    <path d="M47.32,185.72c-5.4,8.64-9.72,18.42-13.77,25.11"/>
    <path d="M27.8,428.72c-1.07-2.92-.41-4.15-1.85-6.17"/>
    <path d="M84.06,419.44c1.45,1,1.87,4.47,4.19,7.16"/>
    <path d="M28.48,431.31a19.15,19.15,0,0,1,4.18-.59"/>
    <path d="M29.43,434a13.08,13.08,0,0,1,4.25-.49"/>
    <path d="M30.57,436.54A16.17,16.17,0,0,1,35,435.8"/>
    <path d="M31.76,438.82A13.88,13.88,0,0,1,36,437.77"/>
    <path d="M33.16,441.18a8.93,8.93,0,0,1,4.18-1.1"/>
    <path d="M89.85,428.44a13,13,0,0,1,5.43-2.09"/>
    <path d="M92,430.72a11.71,11.71,0,0,1,5.56-2.43"/>
    <path d="M94.46,433.16a12.51,12.51,0,0,1,5.19-3.07"/>
    <path d="M96.24,434.71a17.36,17.36,0,0,1,5.82-2.93"/>
    <path d="M98.33,436.35a15.63,15.63,0,0,1,6.15-3.19"/>
    <path d="M63.34,264c-3.59,13.36-10.27,61.59-11.53,68.64"/>
  </g>
  <g class="clothesFoldLine">
    <path d="M10.14,123.25c2.31-4,8.12-2.71,4.54-5.57"/>
    <path d="M13.57,124.6c2.38-3.26,10.89-2,14.38,2.94"/>
    <path d="M37,121.57c1.27,3.82-.4,13.52-3.1,14.41.63-7.73-7.71-15-2-12.18"/>
    <path d="M37.73,134.37a15.69,15.69,0,0,1-4.41,5.48"/>
    <path d="M56.33,138.51a74.47,74.47,0,0,1-14.78,6.28"/>
    <path d="M51.72,145.11a58.43,58.43,0,0,1-13.19,6.51"/>
    <path d="M20.08,145.26c4,4.44,7,8.55,8.43,12.17"/>
    <path d="M21.12,154.49c1.44,3.95-3.34,8.58-9.94,11.2"/>
    <path d="M12.77,171.26c4.69-5.09,12.9-10.09,13.68-7-4.49,1.87-10.18,10.14-13.84,18.49"/>
    <path d="M27.16,165.54c-2.7.79-3.42,12.79-5.17,10.49"/>
    <path d="M37,161.94c.62,1.91-.12,6.64-1.3,12.26"/>
    <path d="M42.53,158.71c.71,1.84.89,6.27-.74,3.33"/>
    <path d="M24.81,193.15c-2.87.25-5,2.26-4,4.74"/>
    <path d="M26.31,205.76c-2.21-1.13-4.71-.22-7.36,1.74"/>
    <path d="M22.19,214.24c-.93-.47-5.07.84-4.49,1.62"/>
    <path d="M76.87,217.74a62,62,0,0,1-15.72-.25"/>
    <path d="M75.5,212.87c-6.73.74-12.73.64-17.47-.88"/>
    <path d="M32.82,220c-3.74-.37-8-2.07-10.5-1.12"/>
    <path d="M78.5,184a97.78,97.78,0,0,1-17.1-.5"/>
    <path d="M78.5,171.69a42.78,42.78,0,0,1-13.86-.13"/>
    <path d="M79.9,230.86c-9.86.66-29.07.3-13.84,2.4"/>
    <path d="M85.34,121.25a18.36,18.36,0,0,1-.36,8.53"/>
    <path d="M70.1,260.92c5.12-2.45,8.83-4,4,.23"/>
    <path d="M74.19,264.18a20.08,20.08,0,0,0-9.1.7"/>
    <path d="M60.88,262.43a35,35,0,0,0-10.27-.7"/>
    <path d="M58.32,266.4a21.16,21.16,0,0,0-8.53,2.69"/>
    <path d="M84.25,327.68c-3.27,3.51-10.64,2.92-16.83,1.05"/>
    <path d="M55.7,344.52c7.17,1.26,26.61-8.88,27.15-4.58.36,2.82-8.08,4.9-13.1,4.2"/>
    <path d="M56,336c6.77,1.29,17.75-6.27,20.22-2.22,1.22,2-5.69,3.81-14.73,4.67"/>
    <path d="M21.52,321.61c4.67,10.69,12.52,18.82,26.76,14.6"/>
    <path d="M49.31,339.85c-2.43,1-5.24,1.37-4.88,3.83"/>
    <path d="M44.43,348.46c-4.5-3.54-11.42-3.43-20.08-.7"/>
    <path d="M16.63,333.77c4.54,7,17.34,3.86,17.87,7.22.35,2.22-11.34,1.17-16.13,3.5"/>
    <path d="M13.51,270.08a6.23,6.23,0,0,0,3.86,2.27"/>
    <path d="M89.14,409c-8,3.9-17.42,1.53-24.21-6.76"/>
    <path d="M66.45,414.29c4.32.36,8.79-.33,4.16,2.71"/>
    <path d="M67.07,420.82c6.56.37,10-3.62,15-5.56"/>
    <path d="M17,407c6.14,5.94,14.12,8.81,18.11,3.89"/>
    <path d="M7.44,412.74c6.59,5.69,14.06,1.4,13.65,4.67-.2,1.63-7.36,1.43-9.47-.8"/>
    <path d="M8.82,421.15c2.64,1.38,5.66,1.35,8.9.56"/>
    <path d="M35.11,416.28c-.82,2.87-11,.24-9.62,2.87"/>
  </g>
  <g class="eye">
    <circle class="sclera" cx="43.52" cy="50.18" r="21.69"/>
    <g class="irisDarkBrown">
      <ellipse cx="52.85" cy="50.02" rx="3.3" ry="3.32"/>
      <ellipse cx="27.84" cy="49.71" rx="3.3" ry="3.32"/>
    </g>
    <g class="pupil">
      <ellipse cx="52.62" cy="50.02" rx="1.28" ry="1.29"/>
      <ellipse cx="27.61" cy="49.71" rx="1.28" ry="1.29"/>
    </g>
  </g>
  <g class="skinEastAsian">
    <path d="M71.06,73.79c-3.42,5.59-6,15.37-4,24.07,2.51,1.89,3,4.9,1.92,7.94-1.13,1.2-2.62,3.37-2.82,5-1.79-1.26-2.42-3.61-4.13-3.85-7.32-1.17-23-7.51-25.33-10.43,1.12-3.87.08-10.67-3.24-16.14"/>
    <path d="M65.38,160.26a31,31,0,0,0-5.48,5,51.56,51.56,0,0,1-6.65-12.34h0a20.1,20.1,0,0,0,3.94-4.15c1.51-1.78,3.51-11,11.21-15.57,5.28-3.17,8.18-.34,13.53-6.53,1.91-1.22,3.67,1.46,1.61,3.9,4-2.67,7,1.83,3,5.27,2-.15,2.59,4.73-.08,6.49.87.9.77,4-.76,5.27C85,158.79,69.56,157,65.38,160.26Z"/>
    <path d="M98,248.38c-1.2-6.89-5-8.9-7.26-12.13-2.32,1.48-6.27,3.28-9.8,5.12.42,6.9-.41,12.19,0,17.65q.31,4.69.63,9c2.1,1.1,3.25.83,4.73-.24,5.51.92,7,1,9.9-3.57,2.86-.81,3.2-3.91,4.08-6.33C101.09,255.64,99,252.47,98,248.38Z"/>
    <path d="M19.84,50.42c-.18-3.83-2.17-8.22,5.83-29C46.82-3.23,88.8,29.62,86.83,54.85,92,62,83.61,69.48,82,72.26c-1.12,2-4,2.78-6.22.44-4,10.3-12.12,16-21.37,19.17-5.82,2-7.74,3.6-14,2.91C33.67,94,33.27,91.32,28,87,16,77.15,20,52.84,19.84,50.42Zm29.39,2c2.49,2.12,8.63,2.3,12.33-.14-1.3-1.63-3.18-4.85-7.55-4.7-3.29.11-4.5,1.48-5.88,4C47.66,52.45,48.88,52.09,49.23,52.38ZM35.74,50.93c-1.54-2.47-3.52-3.83-6.47-3.75S24.8,49,24,51.43c2.44,2.52,7.58,2.64,10.62.38C34.93,51.53,36.32,51.86,35.74,50.93Z"/>
  </g>
  <g class="skinOverlapLine">
    <path d="M72.5,134.52c4.13-1.62,5.93-1.33,11-4"/>
    <path d="M86.59,135.81c-1.71,1.5-3.75,2.37-5.66,3.71"/>
    <path d="M86.51,142.3a9.33,9.33,0,0,1-3.09,1.87"/>
    <path d="M85.75,147.57c-.43.31-.87.57-1.28.84"/>
    <path d="M96.19,264.2c-2.45.53-4.75,2.21-6.3,1.78-2.62-1.44-.66-5,1.52-5.2"/>
    <path d="M86.29,267.77c-2.68-1.47-2.48-3-5.16-4.73.85-5.3,6.4-2.49,7.68,0"/>
    <path d="M81.69,250.5c.83,1.1,3.48.54,5.65,2.88,2.75,4.54,3.32,9.52,7.45,7.93,3.78-2.39-2.24-9.45-4-14.68"/>
  </g>
  <g class="skinFoldLine">
    <path d="M81.49,59.29c2.87-6.29,8.18.24,2.32,7.63"/>
    <path d="M80.39,62.22c2.39,2.2-2.76,4.56-1.11,5.68,1.14.78,1.33-1.81,2.82-2.58,2.64-1.35,2.41-4.73-.43-4.2"/>
  </g>
  <path class="skinCreaseLine" d="M81.94,255.71a8.37,8.37,0,0,1,7.16,1.09c-.83.63-1.67,1.1-2,2.14"/>
  <path class="braceletLight" d="M87.22,152.86c2.94-1.39.87-6.92,1.27-11.75.63-7.68-.57-13.41-4.95-10.57,4.79-3.22,7.08,1.51,6.26,10.21C89.35,145.57,91.05,151.84,87.22,152.86Z"/>
  <path class="braceletDark" d="M84.42,151.93a8.55,8.55,0,0,1-.79,1.08,3.55,3.55,0,0,0,3.59-.15A3.12,3.12,0,0,1,84.42,151.93Z"/>
  <path class="lipMaleMedium__noStroke" d="M37.45,72.41c1.66.8,2.65.47,4.54,0,2.84.61,3.91,3.82,6.53,6.32-2,.54-3.3,3.12-7.94,3.44-3.57.25-5.31-3.54-6.69-3.56C37.65,75.39,35.22,73.45,37.45,72.41Z"/>
  <path class="teeth" d="M35.12,78a23.64,23.64,0,0,0,3.62-3.2c2.08,1.37,3.16-.31,3.63-.22,2.09.65,3.08,2.26,4.69,3.25A33.17,33.17,0,0,0,35.12,78Z"/>
  <g class="lipOverlapLine">
    <path d="M38.74,74.81a5,5,0,0,0-1.13-.56"/>
    <path d="M35.12,78a9.78,9.78,0,0,1-1.82,1"/>
    <path d="M47.06,77.84a26,26,0,0,0,2.6,1.46"/>
  </g>
  <g class="lipEdgeLine">
    <path d="M42,72.45c-1.89.43-2.88.76-4.54,0"/>
    <path d="M44.88,81.11c-3.74,1.85-6.77,1.23-8.33-.85"/>
  </g>
  <g class="cheekLine">
    <path d="M34.17,67.07c-.61,1.14-1.7,1.89-2.23,3.5"/>
    <path d="M47.47,64.38a23.27,23.27,0,0,1,4.78,6.7"/>
  </g>
  <g class="noseLine">
    <path d="M35.62,62.2c-.46,2-3.32,4.1-.15,6.28"/>
    <path d="M47.47,64.38c1,.81.83,3.06-1,4.21"/>
    <path d="M44.46,68c-1.36-1.52-2.17.48-3.33.58"/>
    <path d="M35.68,67A4.57,4.57,0,0,0,38,68.69"/>
  </g>
  <g class="eyeFoldLine">
    <path d="M58.36,55.31c-2.59,1.92-6.85,1-8.62-.47"/>
    <path d="M33.78,54.42c-2.46,1.41-6.6,1.61-8.21.11"/>
  </g>
  <path class="eyeCreaseLine" d="M24.48,48c2.55-2.81,6.55-3.9,10.05-.56"/>
  <g class="eyebrowBlack">
    <path d="M47.13,40c3.26,4.88,11.68,1.3,17,5.85C60.15,39.41,54.33,41.65,47.13,40Z"/>
    <path d="M36.53,39.61c-2.72,3.9-9.62.81-14.68,4.23C26.41,37.82,29.26,41.11,36.53,39.61Z"/>
  </g>
  <path class="hairBlack" d="M54.11,35.94c.7,1.31,2.82,2.76,3.13,4.79-8.62-4-11.23,1-21-5.31A11.49,11.49,0,0,1,38.47,40C35,35.92,26.93,37.85,29.28,21.3c-1.79,8.62-3.8,16.79-12.21,19.52,2-5.4-3.47-8.1,3.06-18.12-1.48,1-3,2.09-4.81,2.18,5.77-3.05,3.56-10.81,16.11-17.17-1-1-2.34-.65-3.59-.32A4.85,4.85,0,0,1,34.14,6C34.58,3.31,37.89.31,42.3.26,39.2,1.68,38,3.58,38,4.78,42.89,3.05,66.51-1,79.34,12.94,93.06,27.85,89.75,45,86.83,54.85c-2.26-2.83-6.36-.1-6.53,1.91A16.33,16.33,0,0,1,75.41,55c.59-4.22,1-6-2.89-12.83C68.18,39.86,58.29,39.77,54.11,35.94Z"/>
  <path class="hairOverlapLine" d="M72.52,42.19a22.17,22.17,0,0,1,4.58,3.1"/>
</svg>
