<svg viewBox="0 0 207.33 457.21">
  <g class="soleWhite">
    <path d="M134.72,409.49c6.11-.73,15.28-6.35,18.23,1.45,.71,14.45-18.31,15.67-37.07,25.45-5.55,2.9-13.94,5.13-15.53,4.28-1.68-1.22-2.6-2.74-2.71-4.59l37.07-26.59Z"/>
    <path d="M58.15,440.78c6.89,.61,9.94,6.36,9.08,11.25-15.77,9.9-24.21,2.21-37.29-.12-5.79-1.03-14.76-3.21-16.35-5.9-.93-2-.86-3.96-.11-6.14l44.67,.91Z"/>
  </g>
  <g class="bennettShoe">
    <path d="M105.4,395.05c3.46,5.55,7.19,10.44,12.78,11.87,5.35,1.37,10.99,3.72,16.54,2.57-.95,4.05-.27,7.95,2.13,11.7-5.63,3.69-14.97,5.93-25.07,11.09-3.91,2-10.99,4.15-14.13,3.8-3.71-4.68-4.39-18.85-7.9-29.47l15.65-11.55Z"/>
    <path d="M38.55,410.4c-.6,5.32,.09,10.29,2.89,14.43,4.84,7.16,10.13,13.67,16.71,15.95-6.64,.47-10.91,3.53-12.61,9.42-5.09,.16-12.98-3.44-20.66-5.01-4.39-.9-10.2-3.31-11.39-5.32-1.13-5.73,4.23-16.42,3.61-25.98,5.81-6.5,14.1-7.03,21.46-3.49Z"/>
  </g>
  <g class="shoelace">
    <path d="M41.44,424.83c-.48-.72-.9-1.46-1.27-2.22-2.04-.29-4.5-.11-6.42,.76,1.07,4.39,4.18,9.62,8.14,14.99,2.5-1.11,6.16-1.72,9.3-1.78-3.56-3.09-6.74-7.29-9.75-11.75Z"/>
    <path d="M127.09,414.2c.32-1.58,1.25-3.08,2.61-4.51-3.9-.38-7.78-1.82-11.52-2.78-1.78-.46-3.37-1.26-4.83-2.33-1.43,.86-2.53,1.93-3.3,3.21,4.32,3.65,10.07,5.71,17.04,6.41Z"/>
  </g>
  <ellipse class="converseLogo" cx="104.7" cy="423.28" rx="5.67" ry="5.81" transform="translate(-145.39 66.09) rotate(-21.1)"/>
  <path class="bennettJeans" d="M3.7,216.71c-6.94,14.82-1.27,27.07-1.14,33.06-.69,2.17,.56,2.71,1.98,5.88,1.08,2.4,2.79,41.44,6.92,57.21,.61,3.52-4.05,6.43-.31,10.26,1.91,1.95-1.4,4.91,.92,7.66,1.51,1.79-2.32,5.72,.31,8.42-3.33,14.32,1.07,37.51,1.23,55.13,.05,5.97-5.14,11.83,.15,17-3.68,5.36,2.3,6.58,2.01,13.91,2.82-4.77,12.56-6.56,16.02-9.65-.24-4.26,6.81-4.87,6.77,1.42,2.47-2.01,3.13-4.38,1.71-7.14,4.83-5.18,.88-10.63,1.25-16.29,1.17-17.93,4.54-37.38,2.91-50.53,3.98-5.82-.13-9.93,1.68-12.25,3.67-4.72-1.08-2.91,3.05-19.6,9.95,18.84,2.44,19.6,9.17,22.52-2.14,5.66,2.63,6.58,2.76,9.34,.71,14.54,11.26,29.42,15.77,45.48,2.41,8.59,1.71,15.58,6.6,16.54-2.6,4.59,.46,6.58,3.83,5.51,.49,3.71,3.22,4.44,5.07,6.46,.76-3.94,7.55-9.32,11.07-14.02-2.05-4.39,1.93-7.3,4.11-4.71,1.28-3.31,1.53-4.88-.62-5.95,5.01-6.06-.57-5.86-2.6-11.03-5.84-14.87-8.02-38.14-11.94-47.47,2.85-4.45-2.45-6.58-1.84-10.26,1.81-5.64-2.67-9.11-3.68-15.01-1.08-6.36-1.71-12.2-3.06-17.46C51.45,244.81,20.8,213.56,3.7,216.71Z"/>
  <path class="dishroomApron" d="M80.91,160.54c-1.28,16.14,1.86,33.25-4.76,38.88,1.85,3.12,2.02,6.46-1.23,10.22,.87,2.54,.68,4.81-1.09,6.67,2.32,3.41,.08,3.76,.27,5.72,.24,2.51,2.32,3.41-1.09,7.22,2.39,1.94,3.32,4.31,1.91,7.36,1.49,1.9,1.82,3.99,.95,6.27-.82,1.23,4.09,11.36,6.4,30.71,2.59,3.81,.41,7.76,1.23,11.31,2.37,2.13,1.09,6.4,2.35,9.93-5.96,5.7-53.98,12.34-68.23,8.2-10.55-3.06-12.15-7.43-11.64-21.83,.78-22.07,1.26-43.56,3.66-61.38-5.56-13.51,31-118.97,58.83-118.71,19.75,8.47,17.06,30.76,12.44,59.44Z"/>
  <g class="dishroomShirt">
    <path d="M9.65,219.81c-2.9-.28-5.42-.99-7.55-2.14,.82-1.41,1.32-2.98,1.47-4.73-1.25-2.78,2.18-4.99,4.4-7.66-2.84-4.77,2.26-7.77,3.65-12.58-5.03-5.97,2.08-9.46,1.91-15.76-3.13-6.53-.31-6.25,2.05-11.45,2.07-4.55,.5-11.94,4.65-21.52,10.97,8.76,23.44,19.13,18.45,27.15-15.48,24.89-27.29,16.76-29.03,48.7Z"/>
    <path d="M63.97,103.1c3.03,5.25,3.79,15.2,3.93,26.41,3.01,.51,6.33,.55,9.83,.28,.7-8.02,2.59-28.23,1.39-30.16-5.84-2.85-12.71-5.18-15.15,3.47Z"/>
    <path d="M79.31,109.73c3.6,3.51,4.95,8.22,7.01,14.5,1.81,.82,4.01,.81,5.59,6.57,.56,2.06,6.24,.33,7.06,5.91-1.64,9.69-9.36,18.89-18.06,23.82,3.11-22.33,2.9-40.45-1.6-50.81Z"/>
  </g>
  <path class="dishroomApronLace" d="M11.6,192.69c1.02,1.34,2.34,2.45,3.87,3.39-.79,1.15-1.51,2.43-2.14,3.88-1.45-.95-2.71-2.04-3.68-3.32-.37-.18,1.57-4.13,1.94-3.95Z"/>
  <g class="book">
    <path class="bookCover" d="M72.56,123.47l-52.6,5.51c.86,12.82,1.09,24.86,.53,35.89l52.78-5.86c.63-9.36,.14-21.93-.71-35.54Z"/>
    <path class="paperDark" d="M79.55,161.39c-2.07-8.81-3.43-22.41-4.69-36.67l-2.31-1.24c.85,13.61,1.34,26.18,.71,35.54l6.29,2.38Z"/>
    <polygon class="paperDarker" points="79.55 161.39 73.27 159.01 20.49 164.87 28.46 166.95 79.55 161.39"/>
  </g>
  <g class="bennettSleeves">
    <path d="M61.43,163.79c-.14-2.74-1.38-2.28-2.86-3.96-3.82,.38-21.71-.18-26.18-.31-.41,3.88-4,6.49-.83,11.11-2.45,3.67,5.91,8.77,9.17,12.44,10.91,3.57,23.34-4.08,24.87-13.66-.16-2.46-1.09-4.55-4.18-5.61Z"/>
    <path d="M107.51,145.39c1.64-6.42-3.06-3.21-4.92-5.07-.45-.45-.78-4.67-3.61-3.59-1.47,8.68-7.81,16.97-15.37,22.14,4.1,2.29,8.85,7.94,18.08,10.84,4.98-3.49,15.72-16.31,17.15-20.6-7.76-.6-6.1-7.74-11.32-3.71Z"/>
  </g>
  <path class="dishroomShirt" d="M62.31,159.6c-6.09,.14-9.04,1.28-14.45,1.28-5.41,0-13.88-1.8-17.99-1.28,.41-10.33,1.18-20.97,2.27-31.89l-9.34,.98c4.04-25.85,13.45-29.66,18.55-38.23l16.44,8.64c8.23,6.26,6.8,21.96,4.96,43.78-.31,3.63,.67,5.01,.57,7.79s-1.7,5.1-.99,8.93Z"/>
  <path class="dishroomCollar" d="M39.78,91.02c3.12-3.97,3.83-9.78,7.96-8.64,16,4.38,23.64,5.64,31.38,17.26-2.55-.85-1.39,4.56-2.95,9.52,.14-3.83-1.01-9.72-2.27-10.06-2.43-.65-3.38,5.38-5.37,9.92-10.34-10.06-28.34-13.74-28.76-17.99Z"/>
  <g class="clothesDisplayLine">
    <path d="M76.18,109.15c.11,3.51-.13,6.06-.61,7.99"/>
    <path d="M136.85,421.18c7.23-3.88,11.24-8.58,11.17-14.28"/>
    <path d="M45.54,450.2c7.5,1.05,16.36-.03,20.81-4.14"/>
  </g>
  <g class="clothesOverlapLine">
    <path d="M49.16,311.18c.5-2.47,1-5.3,1.27-8.02"/>
    <path d="M103.42,403c1.98,.67,4,2.6,6.63,4.79"/>
    <path d="M31.78,415.58c.69,.94,.91,4.81,1.97,7.78"/>
    <path d="M34.67,426.19c2.14-.7,4.51-.98,7.04-.96"/>
    <path d="M35.91,428.94c2.18-.68,4.75-1.04,7.59-1.15"/>
    <path d="M37.3,431.49c2.33-.83,4.91-1.36,7.73-1.63"/>
    <path d="M38.65,433.68c2.34-.95,5.03-1.52,7.96-1.85"/>
    <path d="M40.26,436.08c2.97-1.11,5.62-1.68,8.43-1.91"/>
    <path d="M112.18,409.4c.89-1.26,2.05-2.39,3.46-3.41"/>
    <path d="M114.73,410.87c.95-1.38,2.11-2.69,3.45-3.95"/>
    <path d="M117.35,412.02c.82-1.58,2.06-3.01,3.62-4.33"/>
    <path d="M120.22,412.96c.83-1.66,1.89-3.18,3.21-4.56"/>
    <path d="M123.66,413.73c.33-1.59,1.35-3.1,2.84-4.56"/>
  </g>
  <g class="clothesFoldLine">
    <path d="M7.96,205.27c.74,1.19,.99,2.55,.46,4.2"/>
    <path d="M3.56,212.93c1.29,1.25,2.04,2.64,1.83,4.31"/>
    <path d="M16.98,198.93c5.01,6.59,11.09,6.85,12.54,8.34,2.21,2.27-.7,4.38-8.41,4.18"/>
    <path d="M26.76,200.24c3.72,2.98,8.41,4.57,14.1,4.74"/>
    <path d="M34,213.29c-4.07,2.25-9.79,4.21-14.34,5.01"/>
    <path d="M68.9,211.97c-5.83,1.03-13.1,1.24-18.69,.53"/>
    <path d="M57.86,200.51c-4.75-1.26-8.88-4.73-12.78-8.96"/>
    <path d="M76.15,199.43c-1.35,.98-2.85,1.58-4.61,1.48"/>
    <path d="M73.01,229.26c-2.14,1.69-8.86,1.56-5.83,3.67"/>
    <path d="M34.4,227.92c7.64,5.01,19.24,2.5,19.24,3.56,.75,.98-1.48,1.56-4.88,1.98"/>
    <path d="M29.13,252.17c1.61,12.91,1.51,27.51-.79,40.7"/>
    <path d="M33.35,244.66c2.02,11.9,5.33,22.95,10.67,28.7"/>
    <path d="M79.84,275.34c.92,6.46-14.34,6.85-21.59,1.19"/>
    <path d="M74.92,236.61c-1.01,1.32-2.5,1.46-1.28,3.3"/>
    <path d="M73.83,216.32c-12.31,5.8-31.65,2.91-33.11,4.62-2.24,2.64,13.18,3.95,24.51,3.16"/>
    <path d="M14.22,191.68c1.51-.83,3.23-.87,5.14-.2"/>
    <path d="M14.08,184.83c1.7,3.71,12.01-3.82,17.43-11.21"/>
    <path d="M20.83,166.9c-2.11,2.64-5.4,3.82-5.67,2.11"/>
    <path d="M34.66,172.04c.92,3.15,2.11,5.4,3.56,6.85"/>
    <path d="M41.29,165.89c1.9-1.42,3.31-3.07,3.82-5.13"/>
    <path d="M47.47,165.44c.74-1.77,2.5-3.37,5.02-4.85"/>
    <path d="M58.56,159.82c1.35,2.83-.33,6.63-5.11,9.63"/>
    <path d="M61.43,163.79c-.69,4.63-4.7,8.37-11.41,11.39"/>
    <path d="M62.69,165.89c-.07,2.3-.77,4.36-2.99,5.86"/>
    <path d="M30.26,127.9c-.97-.8-1.65-1.85-1.91-3.23"/>
    <path d="M31.22,118.38c-.77,4.69-.85,9.1,.91,9.33,2.13,.27,.2-19.69,13.71-22.93,4.72-1.13-3.79,2.13-7.03,8.88"/>
    <path d="M45.1,110.51c-3.74,2.97-6.61,6.43-7.77,10.83"/>
    <path d="M43.06,125.6c-1.5,15.47-3.61,28.81-9.53,28.96"/>
    <path d="M52.22,133.55c.46,8.42,5.64,23,8.88,17.4"/>
    <path d="M86.32,124.24c.78,2.38,.03,6.13,.78,5.52"/>
    <path d="M93.12,134.39c-5.39,2.65-1.21-2.52-1.84-5.52"/>
    <path d="M92.66,138.64c-4.43,2.01-7.07,3.2-10.08,6.33"/>
    <path d="M106.63,153.17c-2.64,4.59-5.39,8.68-8.51,10.92"/>
    <path d="M107.51,145.39c-2.26,4.39-5.44,8.91-9.39,13.52"/>
    <path d="M93.95,159.65c.86-3.02-1.48-2.17-5.83,1.11"/>
    <path d="M102.58,140.31c-1.04,5.18-9.48,13.89-8.54,14.71,1.35,1.18,8.05-5.83,9.16-10.92"/>
    <path d="M112.11,145.39c2.15,1.98-3.05,8.16-4.6,13.52"/>
    <path d="M43.87,326.68c-4.63,3.87-10.61,1.66-18.16-1.79"/>
    <path d="M11.16,323.12c1.97,1.81,4.67,3.68,7.87,4.7"/>
    <path d="M41.95,340.37c1.59-5.7-8.05-2.82-16.37,1.41"/>
    <path d="M26.22,329.49c11.32,2.93,10.77,5.3-4.48,8.19"/>
    <path d="M86.28,318.48c2.3,8.71-11.17,5.89-20.77-2.69"/>
    <path d="M63.21,322.45c7.43,4.99,20.36,5.51,3.84,7.94"/>
    <path d="M58.32,333.69c2.9,1.04,5.33,1,7.57,.54"/>
    <path d="M89.35,331.93c.1-6.87-9.79-1.23-18.34,5.76-3.83,3.13-1.18,3.88,4.1,3.71"/>
    <path d="M103.18,389.79c-5.96,3.41-15.64,4.99-20.5,1.79"/>
    <path d="M83.46,405.05c.74-1.46,1.83-2.76,3.06-3.99"/>
    <path d="M87.29,410.56c6.27-4.2,9.21-10.05,10.24-8.86,1.52,1.75-6.09,4.65-7.5,8.35"/>
    <path d="M106.91,392.34c-1.91,2.27-11.19,5.03-16.35,9.25"/>
    <path d="M38.8,404.51c-3.22,4.8-15.48,4.13-19.27,.62"/>
    <path d="M40.26,409.86c-1.06,.99-2.12,1.7-3.18,2"/>
    <path d="M13.76,411.33c3.81,2.98,20.53,2.16,7.23,4.51"/>
    <path d="M13.14,416.9c.83,1.58,4.67,1.71,7.38,1.62"/>
  </g>
  <g class="lancetPen">
    <path class="penCapLight" d="M179,175.79c-2.73-.59-4.78-.89-5.52-.72-1.77,.4-2.6,3.6-1.33,4.66,.67,.55,2.54,1.36,5.08,2.27-1.28-1.05,0-5.81,1.77-6.2Z"/>
    <path class="lancetPenLight" d="M206.53,184.49c-2.22-1.78-18.58-6.78-27.54-8.7-1.77,.4-3.05,5.15-1.77,6.2,8.63,3.1,24.97,7.42,27.98,7.16,1.55-.14,2.56-3.67,1.33-4.66Z"/>
    <path class="lancetPenDark" d="M206.53,184.49h0c-1.56-.58-3.06,4.33-1.33,4.66h0c1.55-.14,2.56-3.67,1.33-4.66Z"/>
  </g>
  <g class="eye">
    <path class="sclera" d="M107.27,62.69c-59.52-1.25-57.19-17.58,1.29-10.22,.62,2.84,.55,6.97-1.29,10.22Z"/>
    <g class="irisDarkBrown">
      <ellipse cx="87.18" cy="56.01" rx="3.35" ry="2.68" transform="translate(22.09 136.64) rotate(-83.81)"/>
      <ellipse cx="106.77" cy="57.61" rx="3.35" ry="2.13" transform="translate(37.97 157.55) rotate(-83.81)"/>
    </g>
    <g class="pupil">
      <ellipse cx="87.67" cy="56.22" rx="1.3" ry="1.04" transform="translate(22.32 137.31) rotate(-83.81)"/>
      <ellipse cx="107.16" cy="57.81" rx="1.3" ry=".83" transform="translate(38.12 158.11) rotate(-83.81)"/>
    </g>
  </g>
  <g class="skinEastAsian">
    <path d="M51.77,61.8c1.58,5.44-.16,12.18-4.58,21.76,1.68,3.79,21.38,10.76,26.71,15.53,.53-4.08,3.69-8.64,5.87-9.49"/>
    <path d="M184.02,184.22c1.77-3.4,5.16-.51,8.95,2.62,3.54,2.68-1.03,7.19-4.77,4.13-.96,2.44-4.31,3.42-6.22,1.7-2.29,3.75-5.98,2.2-8.18-.16,2.44,2.12-2.02,4.89-4.22,3.58-1.07-.63-4-2.44-5.55-3.09-8.22-2.93-7.9-10.5-10.18-11.24-19.46-4.44-40.32-6.19-51.48-12.57,4.87-3.82,13.81-14.45,16.08-19.18,13.15,7.19,25.6,14.94,41.17,19.12,7.63-5.07,12.74-.64,17.66-.16,8.16,.79,8.94,5.4,12.77,5.01,1.02,1.05-.48,3.81-4.09,3.51,0,0-4.94-1.27-6.96-1.7-2.73-.59-4.78-.89-5.52-.72-1.77,.4-2.6,3.6-1.33,4.66,.29,.24,.81,.53,1.51,.85,2.8-1.46,5.49,.99,8.08,2.93,.76,.24,1.52,.48,2.28,.71Z"/>
    <path d="M82.12,182.17c-6.34-2.61-11.64-6.76-16.57-12.51-1.6,8.82-12.42,15.92-22.64,13.96,8.86,9.12,24.49,8.15,40.73,13.93,4.13,1.26,5.31,1.02,7.75,.96,4.22-.1,7.74,.31,12.27-5.27,7.14-8.8,3.74-10.16,3.74-13.37,.1-6.28-2.3-5.38-3.06-8.21-.64-2.4-5.21-6.46-7.97-8.15-2.83-1.62-6.88-.97-8.97-1.57-3.29,1.49-1.12,6.21,5.16,6.36,.98,1.62,2.7,2.83,3.97,3.65-.29,1.67,.36,2.86,.82,3.82-3.05-.52-4.73-2.68-7.32-3.82-2.06-.83-3.69,.79-7-.34-2.47,.42-1.81,4.29,.14,5.64-1.86,0-3.67,3.73-1.04,4.92Z"/>
    <path d="M55.21,65.6c-5.68,2.43-7.76-5.84-9.24-8.15C28.95,33.7,96.65,1.27,112.85,36.66c.6,3.96-.43,6.66-.96,9.06-.59,2.68,.86,4.33-1.2,7.17-.69,.94,.92,3.46-1.83,4.35,.02-.35,.03-.73,.05-1.12-1.95-1.32-5.47-1.44-7.86,1.81-.55,.48-.03,.77,.47,.72,.48-.05,6.74,2.87,7.27-.77,2.18,2.17,.46,3.07,.5,3.79,.76,11.75-4.01,20.37-11.16,27.31-3.55,3.45-4.75,7.76-12.04,7.92-7.3,.16-9.07-3.24-16.03-7.21-3.63-2.07-10.17-7.83-12.5-13.82m33.08-19.41c-1.28-2.13-3.82-3.41-5.71-3.25-2.79,.24-4.81,1.19-6.58,2.14,3.02,1.85,7.18,4.05,11.72,1.86,.36-.17,1.03,.03,.57-.75Z"/>
  </g>
  <g class="skinOverlapLine">
    <path d="M83.16,177.25c1.29,.79,2.75,1.44,4.49,1.16-1.2,1.84-1.49,3.91-.8,5.54-1.24-.49-3.09-1.1-4.73-1.77"/>
    <path d="M97.35,175.77c1.48,.26,3.53,.29,4.9-.24"/>
    <path d="M188.19,190.97c-2.64-2.3-5.27-4.37-4.17-6.75"/>
    <path d="M173.66,180.58c-3.27,2.82,2.83,7.37,8.32,12.09"/>
    <path d="M181.74,183.51c.82,.79,1.1,1.38,2.02,1.77"/>
    <path d="M172.79,183.04c-1.86-1.24-5.73,.68-3.9,3.41,.84,1.52,2.89,4.18,4.91,6.05"/>
    <path d="M168.89,186.45c-2.58-1.17-5.31,2.05-1.29,6.53"/>
  </g>
  <g class="skinFoldLine">
    <path d="M84.18,182.95c1.88,.09,2.43-2.7,1.95-3.48"/>
    <path d="M179.44,173.39c-.22,1.08,.27,1.98,1.23,2.79"/>
    <path d="M55.05,51.49c.39-9.93-14.71-7.92-6.96,5.51"/>
    <path d="M54.1,52.59c-2.39,1.6,1.5,6.33-.95,7.25-1.29,.48,.19-3.22-2.53-5.06-4.25-2.88,1.45-6.64,1.91-4.11"/>
  </g>
  <path class="skinCreaseLine" d="M160.92,177.23c2.5,2.37,7.79,3.88,11.94,2.95"/>
  <path class="lipMaleMedium__noStroke" d="M91,78.24c1.31,1.08,3.23,1.46,4.68,.92,.45,.78,1.33,.55,2.34,.72-3.11,2.06-1.6,8.89-8.83,8-5.75-.7-4.94-7.68-7.36-9.72,2.21-.82,6.09,1.23,9.18,.07Z"/>
  <path class="mouthInner" d="M82.64,78.16c2.35,4.79,6.36,6.98,9.41,6.66,2.25-.24,2.84-2.03,4.3-4.46-2.29,.74-4.29,.1-6.27-.56-1.08-.36-5.55-1.08-7.43-1.65Z"/>
  <path class="teeth" d="M83.97,78.5c1.94,3.13,7.36,6.22,10.71,3.81,.33-.24,.83-1.07,1.16-1.81-2.08,.5-3.93-.09-5.77-.7-.87-.29-3.95-.82-6.1-1.31Z"/>
  <g class="lipOverlapLine">
    <path d="M98.59,79.29c-.73,1.11-1.7,.86-2.25,1.07"/>
    <path d="M81.37,78.16c.34,.1,.76-.09,1.27,0"/>
  </g>
  <g class="lipEdgeLine">
    <path d="M95.68,79.17c-1.45,.54-3.37,.16-4.68-.92"/>
    <path d="M94.1,86.65c-3.66,2.76-7.28,1.05-8.96-1.15"/>
  </g>
  <g class="cheekLine">
    <path d="M89.23,70.13c-1.34,.65-8.64,5.61-11.44,10.19"/>
    <path d="M100.55,78.29c.29-.97,.35-2.67,.15-3.55"/>
  </g>
  <g class="noseLine">
    <path d="M89.23,70.13c-.87,1.3-.93,2.67,.54,3.62"/>
    <path d="M91.89,74.12c3.54-.38,6.39,2.95,8.82,.62,3.05-2.92-1.01-6.49-.41-9.33"/>
  </g>
  <g class="eyeFoldLine">
    <path d="M80.82,59.91c1.86,1.7,5.53,1.61,6.81,.58"/>
    <path d="M103.02,62.44c1.14,1.2,4.28,.49,5.04-.31"/>
  </g>
  <g class="eyeCornerLine">
    <path d="M75.96,55.99c.8,0,1.42-.27,2.38-.61"/>
    <path d="M108.9,56.13c.24,.17,.46,.42,.49,.69"/>
  </g>
  <path class="eyeCreaseLine" d="M89.86,53.61c-2.52-3.29-7.89-1.9-10.96,.18"/>
  <g class="eyebrowBlack">
    <path d="M94.07,46.66c-3.72,4.74-9.58-2.19-17.85,3.46,6.44-7.26,10.55-2.7,17.85-3.46Z"/>
    <path d="M111.7,51.04c-2.92-1.77-5.41-.8-8.58-2.15,1.81,3.22,4.42,2.27,7.92,3.48,.31-.49,.52-.92,.66-1.33Z"/>
  </g>
  <g class="hairBlack">
    <path d="M44.08,50.05c-.7,.36-1.37,.74-2.02,1.1,.59,2.58,2.04,4.54,3.91,6.3-1.37-2.59-2.12-5.02-1.9-7.4Z"/>
    <path d="M110.08,34.71c5.36,2.41,6.31,8.02,2.95,13.74-2.67-2.19-5.91-1.73-7.85-4.38,.6,1.1,1.53,2.44,1.86,3.93-2.01-2.61-14.09-.88-13.39-11.73-.65,1.31-1.13,3.24-1.3,4.57-1.18-3.42-1.99-5.88-.25-12.18-3.57,12.2-7.78,11.95-9.62,16.09,.03-1.73,.73-3.74,1.68-5.71-3.49,5.86-11.65,7.41-16.05,5.65-5.01,2.41-3.87,4.1-4.52,6.88-1.58-.21-5.17-1.13-6.8-2.21,.06-1.55-.34-3.17-1.12-4.58,12.1-13.93,36.91-23.73,54.41-10.06Z"/>
  </g>
  <path class="hairOverlapLine" d="M68.11,44.69c-1.11-.43-2.04-.78-3.17-.89,2.04-.85,4.9-1,6.24-1.66"/>
  <path class="cafeteriaHatMesh" d="M41.44,24.9c.58-4.96,5.69-6.44,8.34-9.62,4.41-5.3,7.11-11.96,17.74-12.18,8.43-.18,16.2-3.64,22.27-2.67,8,1.28,9.57,4.85,14.97,7.07,3.4,1.4,6.97,3.58,6.43,6.87L41.44,24.9Z"/>
  <path class="cafeteriaHatDark" d="M110.08,34.71c4.28,1.93,5.75,5.9,4.45,10.33,3.13-.46,7.21-.51,12.43-5.03,6.82-9.37,.18-15.82-16.89-5.3Z"/>
  <g class="cafeteriaHat">
    <path d="M126.27,28.5c-19.68,2.98-34.64-.77-56.48,7.15,29.03,5.28,55.7-5.3,57.67-5.35,1.91,.62,1.47,7.3-.5,9.72,3.78-3.84,4.44-12.29-.7-11.52Z"/>
    <path d="M115.24,29.61c-.84-2.4-.1-3.43-.47-5.63-.35-2.05-1.36-2.58-1.82-4.49-.63-2.62,.93-2.86-1.74-5.13-20.46-12.72-37.54-5.92-46.25-3.46-10.22,2.89-22.99,13.09-24.36,14.7-2.02,3.2-.46,8.19-1.24,11.76-.93,4.26,.79,5.93,1.54,8.53,.52,1.8-.05,3.58,1.17,5.25,.63-.36,1.3-.73,2.02-1.1,0-7.31,7.5-10.23,11.59-5.28,4.84-1.94,8.15-7.57,14.13-9.13,17.59-6.38,30.72-5.19,45.44-6.04Z"/>
  </g>
  <path class="dullYellowMedium" d="M109.04,29.87c.98-.03,1.97-.07,2.97-.11,.48-.97,.88-1.92,1.01-2.9,.93,.12,.33-3.56,.04-4.47-1.08-3.41-5.27-3.57-7.2-6.48-1.25-1.88-3.7-1.78-5.42-2.47-.25,.42-.51,.58-.78,.42,.31-.39,.4-.86,.18-1.44-.63-.74-1.98,.61-2.75,.56-1.6-.1-1.32,1.62-2.48,1.9-.73,.18-1.96,.35-1.34,.97,.42,.41-.39,2.13,1.13,2.19,1.99,.08,2.6,1.17,3.85,1.3,.69,.07,1.27-.37,1.8-1.08,0,.54-.21,1.03-.56,1.49,2.03,.8,1.97,3.37,1.81,6.67-.02,.48-2.02-.45-1.72,1.57,.79,.16,1.19,.24,1.97,.43-.04-.83,.32-1.7,1.13-1.62,.42,.01,.32-1.8,.57-4.01,.06,1.51,.08,3.31-.05,4.19-.24,.62-1.31-.42-1.27,1.53,1.07,.26,1.59,.41,2.63,.73,.78-1.97,1.63-3.92,1.78-6.48,.14,1,.11,1.95-.14,2.86,.66,.44,1.37,.75,2.02,1-.07,.66-.02,1.45,.06,2.09,.05,.44-1.3-.45-1.26,1.2,.53-.02,1.06-.03,1.6-.05,.15-.44,.41-.57,.82-.55,.31,.1,.08-1.56,.92-2.19-.33,.58-.48,1.62-.54,2.3,0,.52-.5,.08-.79,.43Z"/>
</svg>