<svg viewBox="0 0 271.14 459.13">
  <g class="book">
    <path class="paperStackDark" d="M194.53,104.14c12.85,1.7,27.88,7.04,31.89,14.54,8.99-4.5,24.59-2.08,35.6,3.86-3.35-24.69-53.94-39.36-67.49-18.39Z"/>
    <path class="paperStackLight" d="M194.53,104.14c4.02-15.29,7.38-30.27,9.47-39.24l5.34-5.19c16.52,18.32,35.61,23.12,58.42,14.83l3.11,5.49c-3.38,12.4-5.79,27.36-8.86,42.5l-2.82-5.93c-18.48-14.81-38.84-20.54-61.41-15.57l-3.26,3.11Z"/>
    <path class="bookPageLight" d="M236.78,73.8c-1.75-11.14-16.68-14.87-27.44-14.09,0,0-7.18,26.51-11.55,41.31,12.79,1.14,25.08,6.32,28.6,14.96,4.51-5.46,21.14-3.58,32.81,.62,3.23-15.03,5.59-29.9,8.56-42.05-9.2-5.49-25.19-9.05-30.98-.74Z"/>
    <line class="paperCreaseLine" x1="236.78" y1="73.8" x2="226.39" y2="115.98"/>
  </g>
  <g class="tray">
    <path class="dullPurpleMediumDark" d="M25.9,176.71c1.28,1.61,3.02,2.47,4.92,2.23l65.89-7.95v-1.58l-70.8,7.3Z"/>
    <path class="dullPurpleMedium" d="M3.63,140.78l83.9,27.23,9.17-1.07-30.12-33.61c-3.08-3.19-7.3-3.87-10.33-3.6l-49.63,3.6c-3.39,.13-8.41,2.86-3,7.45Z"/>
    <path class="dullPurpleMediumLight" d="M3.63,140.78l51.6-4.3c2.59-.25,5.56,.65,8,3.35l24.3,28.17-63.27,7.94L3.63,140.78Z"/>
    <path class="dullPurpleLight" d="M30.45,174.43c-3.01,.35-5.95-1.04-7.58-3.59L2.97,139.75c-1.93-3.34,.4-6.13,3.66-6.42-4.99,.39-7.89,4.15-5.55,7.96l20.04,31.6c1.94,3.07,5.48,4.75,9.08,4.32l66.51-7.79v-2.47l-66.26,7.49Z"/>
    <path class="lancetPenLight" d="M49.05,148.22c-2.16,.77-9.89,8.9-13.79,14.07,2.12-1.36,5.84,1.8,4.85,4.28,4.69-4.52,11.86-13.32,12.28-15.39,.31-1.55-1.69-3.41-3.34-2.96Z"/>
    <path class="penCapLight" d="M35.27,162.3c-1.22,1.62-2.07,2.95-2.25,3.68-.31,1.21,2.47,3.66,3.68,3.27,.69-.22,1.93-1.23,3.42-2.66,.99-2.48-2.73-5.64-4.85-4.28Z"/>
    <path class="penCapDark" d="M36.7,169.24h0c1.48-1.51-2.35-4.99-3.68-3.27h0c-.83,1.76,1.98,4.27,3.68,3.27Z"/>
    <path class="penCapInner" d="M35.27,167.15c-.4-.36-.9-.45-1.11-.22s-.06,.72,.35,1.08,.9,.45,1.11,.22,.05-.72-.35-1.07Z"/>
  </g>
  <g class="soleWhite">
    <path d="M196.91,450.57c.78,2.05,.73,4.23-.41,6.6-3.14,2.03-17.66,2.57-22.18-.13-5.69-3.4-11.65-1.7-14.07-4.71-1.01-5.53,1.77-10.8,4.62-11.85l32.04,10.09Z"/>
    <path d="M149.48,442.37c.28,2.2,.11,4.39-.68,6.56-1.31,2.03-13.34,4.98-21.2,3.53-9.22-1.37-24.53,.2-28.98-3.47-.79-11.38,7-10.8,10.45-12.98l40.41,6.36Z"/>
  </g>
  <g class="bennettShoe">
    <path d="M193.67,421.48c-.77,10.49,4.04,21.32,3.23,29.09-3.84,3.4-16.65,2.54-19.31,1.86-5.69-1.47-12.98-2.12-14.57-3.37-.43-2.9,.29-5.82,1.85-8.58,5.55-4.25,8.94-10.97,10.66-19.6l18.14,.6Z"/>
    <path d="M143.98,420.27c1.81,7.31,6.02,14.53,5.5,22.1-3.57,4.09-12.66,5.3-20.62,4.47-9.05-.95-15.4,.19-22.26-1.7-.51-3.3,.49-6.51,2.47-9.13,3.87-2.58,9.63-9.37,15.91-16.59l19,.86Z"/>
  </g>
  <path class="converseLogo" d="M174.93,447.71c3.45,.81,3.81-10.93,.31-11.5-3.14-.51-3.62,10.72-.31,11.5Z"/>
  <path class="dishroomApronInner" d="M170.7,306.39c-.21-34.74-4.79-36.65-14.52,.47,5.14-.43,10.03-.62,14.52-.47Z"/>
  <path class="bennettJeans" d="M207.97,231.42c3.76,8.31,3.34,20.31,2.44,29.37,.79,3.46,1.1,6.81-.88,9.64-1.39,15.2-1.51,29.59-3.51,44.71-2.01,15.22,.8,20.52-2.19,24.11-.84,1.15,3.25,2.73-.06,6.61-1.31,10.77-.55,25.42-2.23,35.82-3.25,20.13,2.75,29.26-2.5,35.36,1.81,4.44-.31,7.51-3.58,8.35-3.83,8.84-29.43,.79-22.83-10.82-3.3-2.51-1.1-6.07-1.45-10.43-1.06-13.24,.26-50.81,.79-60.18-2.51-2.38-.08-5.83-.4-9.24-1.45-15.44-3.49-34.84-4.62-52-5.26,16.92-11.65,32.19-16.36,45.13-2.85,7.83-.21,14.26-4.88,15.7,4.49,2.9-1.21,5.86-.53,9.77,2.24,12.93,2.64,27.58,1.72,37.08-.91,9.33,5.91,11.36,.79,18.61-1.89,2.68,2.05,8.13-3.17,9.5,1.74,3.06,2.46,5.22-1.58,6.09-9.92,2.15-24.41-1.74-18.08-9.66-10.9-5.79-1.32-9.58-6.33-34.44-2.97-14.74-4.6-28.15-1.98-38.93-4.62-5.41,.22-6.6,.92-12.41,3.03-25.07,9.68-63.2,17.82-100.43l72.67,2.66Z"/>
  <g class="eye">
    <path class="sclera" d="M126.94,62.14l-1.79,2.76c-.75-1.22-1.2-2.83-1.16-4.19l2.95,1.42Z"/>
    <path class="irisDarkBrown" d="M125.77,65.95c-.17,.05-1.01-1.33-1.52-3.18s-.51-3.46-.33-3.5c.8,2.18,1.42,4.4,1.85,6.68Z"/>
  </g>
  <g class="skinEastAsian">
    <path d="M125.2,66.92s-1.74,8.4-1.6,10.28c.12,1.58,2.23,2.23,3.76,2.01-3.14-6.63-1.42-11.18-2.16-12.29Z"/>
    <path d="M118.73,37.17c5.1,13.73-.01,15.29,3.91,22.07,.52,.9-.94,1.05,3.33,3.07-.41,1.95-2.89,2.49-.77,4.6,.74,1.11-.98,5.66,2.16,12.3,.91,1.93,1.56,3.79,1.04,5.83-.15,.86,1.43,2.62,3.34,1.94-1.51,1.15-1.06,3.2-.23,3.55,5.98,1.84,2.86,9.07,8.79,9.37,16.04,.81,32.05-14.26,41.1-29.21-9.15-25.26-29.11-37.55-62.67-33.52Z"/>
    <path d="M224.6,134.95c-.21,3.64-2.11,6.2-3.17,10.13,1.02,11.62,3.89,20.2,9.83,23.74,3.33-8.47-.3-22.02,2.43-32.66,.82-3.45,8.38-5.91,8.97-19.56-3.59-.43-7.23-.33-10.93,.32,.26-4.16-2.46-7.39-2.42-10.92-3.51-1.43-5.88,3.29-3.57,8.53l.08,3.18c-1.38-1.9-3.09-3.5-5.12-4.81-1.65,1.66-.58,3.83-1.15,5.05-.57,1.91,1.6,2.86,2.78,2.52-1.28,4.2-.31,10.64,2.26,14.5Z"/>
    <path d="M82.15,182.73c9.83-3.22,19.99-4.74,26.62-8.48-4.52-.97-12.46-8.34-12.07-17.1-5.44,4.11-7.94,9.55-16.21,14.1-1.9-4.08-6.74-4.04-10.61-5.84-6.48-3.01-9.49,.64-12.32,.64-2.01,.27-1.17,4.77,1.57,5.13-1.13,2.28-3.02,4.46-6.17,5.09,1.61,3.69,4.42,3.11,5.15,4.2,5.75,6.48,14.49,6.02,24.05,2.26Z"/>
    <path d="M150.79,85.39c2.02,1.06,2.23,6.91,2.13,9.84,5.44-1.5,24.56-1.41,30.97-.45-.87-3.62-5.47-18.95-2.52-24.01"/>
  </g>
  <g class="skinOverlapLine">
    <path d="M222.33,120.46c1.5-.46,2.34-2.08,2.36-4.17"/>
    <path d="M225.82,117.7c-.38,4.67-5.15,6.06-1.23,17.25"/>
    <path d="M154.84,71.13c4.72,1.45,4.43-2.1,6.71-4.63"/>
  </g>
  <g class="skinFoldLine">
    <path d="M80.49,171.25c-1.28,.67-2.35,1.06-3.21,1.18"/>
    <path d="M59.12,171.19c.29-.4,.45-.96,.45-1.75"/>
    <path d="M231.37,119.05c.21-.64,.32-1.35,.36-2.13"/>
    <path d="M153.13,56.5c.34-10.05,12.08-4.35,5.45,7.7"/>
    <path d="M154.51,60.04c2.31,1.27-1.09,4.41,.8,5.06,1.31,.45,.71-1.4,2.59-4.09,2.32-3.3-1.33-6.91-2.68-4.59"/>
  </g>
  <g class="lipMaleMedium__noStroke">
    <path d="M128.4,85.04c-.15,.86,1.43,2.62,3.34,1.94-1.5-.62-2.26-.85-3.34-1.94Z"/>
    <path d="M131.75,86.98c-1.51,1.15-1.06,3.2-.23,3.55,.66-.96,.63-2.18,.23-3.55Z"/>
  </g>
  <path class="cheekLine" d="M130.65,84.93c.55,1.5,1.45,2.72,2.71,3.64"/>
  <path class="eyebrowBlack" d="M121.02,53.7c.01,.73,.08,1.44,.25,2.2,1.15-.25,2.65-.42,4.43-.01-1.32-1.45-3.13-1.97-4.68-2.19Z"/>
  <g class="hairBlack">
    <path d="M115.97,39.09c1.61,8.82,6.89,8.88,11.79,12.61l-2.82-4.79c3.73,4.78,9.03,3.66,14.52,4.12,3.28,2.72,2.7,2.88,3.6,6.82,2.63-.21,5.84-1.1,8.18-2.16-.1-1.83,.41-3.41,1.57-4.72-11.76-9.65-23.92-14.88-36.84-11.89Z"/>
    <path d="M194.96,46.83c-.05,1.82-.71,3.51-1.69,4.91l-3.95,8.04c-.67,5.01-5.26,7.46-7.92,10.91-5.42-2.88-12.39,3.48-19.85-4.18,2.79-3.17,3.6-6.93,3.01-11.11,10.5-8.66,20.71-12.66,30.4-8.57Z"/>
  </g>
  <path class="hairOverlapLine" d="M139.46,51.03c2.17,.09,4.07,.73,5.7,1.97-1.26-1.93-2.68-3.53-4.34-4.58,1.77,.21,3.52,.09,5.22-.44"/>
  <path class="cafeteriaHatAdjuster" d="M193.28,51.75c-1.28,3.77-9.5,2.14-11.66,.88-.87,2.1-1.38,4.32-3.08,6.39,3.67,1.57,10.83,1.75,12.75-.26,3.16-4.83,2.87-6.61,1.99-7.01Z"/>
  <path class="cafeteriaHatDark" d="M195.74,49.61c3.9-5.37-2.81-6.66-2.47,2.13,.96-.57,1.44-1.5,2.47-2.13Z"/>
  <g class="cafeteriaHat">
    <path d="M120.49,24.67c-15.02,1.38-19.44,.11-20.82,.82-8.71,10.55,17.25,14.59,33.73,15.72l-12.91-16.54Z"/>
    <path d="M152.81,50.97c4.31-4.88,11.46-1.56,11.75,4.43,5.69,1.91,10.68,3.2,13.98,3.61,3.47-4.22,1.97-9.04,8.74-12.27,2.16-1.03,3.7-.14,5.45-.04,2.96,.17,4.83-.09,3.01,2.91,2.44-1.44,.97-5.06,1.61-6.31,.68-1.33,4.24-7.35,1.4-9.51L133.31,4.23c-5.34,1.71-4.61,4.66-6.43,8.7-.88,1.96-3.38,2.72-3.8,5.86-.39,2.95-3.82,6.47-3.26,9.1,2.33,7.86,17.92,16.78,32.99,23.08"/>
  </g>
  <path class="cafeteriaHatMesh" d="M132.26,6.81c1.01-5.36,5.22-4.03,9.89-4.75,5.7-.87,14-3.98,21.36,.71,9.79,6.24,21.99,4.94,25.62,14.84,2.82,7.68,11.78,11.18,9.14,18.9-6.39,7.2-67.09-24.39-66.01-29.71Z"/>
  <path class="shirtWhite" d="M142.62,224.09l-1.09,9.02c10.13,3.24,60.79,4.05,67.58-.71l-1.9-9.82c-2.64,11.58-59.48,9.1-64.59,1.51Z"/>
  <g class="bennettSleeves">
    <path d="M227.92,161.44c-.05-1.21-.37-2.31-1.01-3.27-1.26,6.5-11.79,18.06-20.85,14.44,4.11,8.7,9.66,10.41,16.65,10.24,3.96-.1,4.97-2.73,5.31-5.98,4.73-6.23,6.39-11.76-.1-15.43Z"/>
    <path d="M104.72,149.42c-1.71,.48-3,1.45-3.18,3.7-2.26,.25-3.2,2.75-4.81,3.43-.8,9.16,7.67,16.94,12.25,17.74,1.37-.11,4.83-2.34,4.53-2.93,2.43,.26,3.7-2.49,6.34-5.25-7.88,1.14-13.82-4.24-15.13-16.69Z"/>
  </g>
  <path class="dishroomCollar" d="M190.17,104.57c-2.04-2.53-2.34-6.63-3.86-8.98,.03-1.84-33.03-2.35-34.96,.41-1.52,2.18-1.61,5.02-2.85,8.2l41.67,.37Z"/>
  <path class="dishroomShirt" d="M132.56,151.78c.75,23.64,4.82,47.52,10.07,72.31,5.11,7.59,61.96,10.07,64.59-1.51-3.07-15.68-.27-36.6-2.27-40.22,1.29-3.39,1.44-6.61,1.11-9.75,9.6,3.83,20.85-9.38,20.98-15.55-6.42-13.56-3.97-40.17-19.69-46.07-10.49-3.94-22.74-10.35-38.38-8.68-22.4,.37-22.35,2.86-29.54,5.47-21.28,7.73-25.07,26.67-34.84,40.08,1.17,16.18,9.62,21.43,20.26,16.76,3.28-3.88,5.34-8,7.71-12.85Z"/>
  <g class="dishroomApron">
    <path d="M205.73,192.73c-.88,11.69-1.67,13.11-1.47,17.03,.51,9.84,3.73,21.54,6.6,34.76-.3-17.48-4.23-34.7-5.13-51.79Z"/>
    <path d="M135.23,182.76c5.43,23.23,15.46,18.34,11.74,33.28-3.93,15.77-15.37,67.81-21.84,86.78-2.44,7.17-4.41,7.27-6.51,6.32,4.92-22.89,10.73-69.43,14.75-79.37-4.07-4.75-.68-5.77,1.19-9.16-4.75-4.75-.34-6.78,.51-9.84-.85-5.43,2.03-9.88,.16-28.02Z"/>
  </g>
  <g class="dishroomApronLace">
    <path d="M204.24,209.28c-.9,.17-1.83,.33-2.77,.48,0,0-1.95,2.27-4.84,1.57-2.55,1.92-6.17,1.48-8.51,.86-1.79,.63-3.23,.72-4.45,.48-6.39,1.82-16.71-.4-17.57-.99-2.97,.59-5.85,.2-8.12-.5,0,0-7.64-.39-10.21-.69,0,1.12-.14,2.39-.44,3.89,9.35,1.47,50,.61,57.2-1.11-.13-1.19-.3-3.83-.3-3.99Z"/>
    <path d="M182.52,217.04c.43,5.27,4.56,13.38-4.83,11.96-4.64-.7-.2-6.75,1.85-11.96h2.97Z"/>
    <path d="M179.55,217.04c-1,2.83-1.25,5.89-2.23,10.14-1.25,5.39-.54,10.48-2.29,15.85-.07,.62,3.21,1.01,3.28,.39,.44-6.34,1.18-16.09,2.53-25.97l-1.29-.41Z"/>
    <path d="M179.93,217.04c1.09,4.55-1.84,14.07-.39,27.25,.1,.7,3.55,.19,3.45-.51-1.22-4.78-.24-5.22-1.08-10.76-.39-2.61,.29-5.93,.29-7.84,0-2.85-1.08-5.13-1.37-7.73l-.91-.41Z"/>
    <path d="M179.82,211.5c4.99-1.63,6.17,6.28,.5,5.94,1.46-1.18,1.46-5.38-.5-5.94Z"/>
    <path d="M180.25,211.7c-2.83,.67-2.62,5.61,.28,5.55,1.15-1.27,1.17-4.59-.28-5.55Z"/>
  </g>
  <g class="clothesDisplayLine">
    <path d="M178.91,243.78c.25,9.72-1.13,18.27-4.65,25.27"/>
    <path d="M106.6,445.13c-2.98-.6-5.2-1.37-7.21-2.92"/>
    <path d="M163.02,449.06c-1.1-.6-1.96-1.38-2.58-2.36"/>
  </g>
  <g class="clothesOverlapLine">
    <path d="M208.22,132.71c1.77,9.96-1.04,24.56-2.17,39.9"/>
    <path d="M144.02,122.11c-.37,14.06-8.64,21.22-11.46,29.67"/>
    <path d="M152.32,271.97c8.05,4.26,15.5,1.46,18.01,1.74,13,1.45,16.2-3.36,17.72-.87,.62,1.01-2.79,2.09-8.72,3.2"/>
    <path d="M170.34,273.71c-.1,2.89-2.28,5.82-3.37,9.02"/>
  </g>
  <g class="clothesFoldLine">
    <path d="M211.78,128.52c.48,4,.62,7.89-1.62,10.95"/>
    <path d="M204.59,128.01c.01,3.72,.64,6.86,2.53,8.82"/>
    <path d="M215.33,139.97c.28,11.02,1.34,20.24,6.39,20.27"/>
    <path d="M225.47,174.13c-2.05-4.82,1.93-8.82,2.46-12.69,1.5,3.15,2.3,6.61-.93,11.78"/>
    <path d="M228.02,176.87c-1.64,1.72-3.26,1.96-3.36,3.24"/>
    <path d="M197.49,165.51c-4.47,6.29-9.9,10.7-17.13,11.55"/>
    <path d="M148.03,155.38c3.8,10.23,8.88,18.63,15.81,24.43"/>
    <path d="M201.04,176.66c-3.16,8.63-8.86,17.05-19.76,25.03"/>
    <path d="M204.95,182.36c-2.49,5.05-11.61,17.11-17.08,19.74"/>
    <path d="M145.5,177.27c6.22,9.84,12.43,18.47,18.65,21.89"/>
    <path d="M144.49,184.67c3.61,7.1,7.33,13.08,11.35,15.61"/>
    <path d="M201.47,209.77c.99-.82,1.98-2.33,2.96-4.32"/>
    <path d="M196.63,211.34c2.79-1.94,6.75-8.37,8.9-16.12"/>
    <path d="M188.12,212.2c1.54-.67,2.24-1.54,2.58-2.5"/>
    <path d="M166.11,211.68c-1.53-.7-2.85-1.56-3.61-2.85"/>
    <path d="M157.99,211.18c-2.94-1.21-5.09-2.98-6.51-5.28"/>
    <path d="M153.05,219.22c.57-1.99,2.07-3.31,4.15-4.19"/>
    <path d="M165.29,218.36c1.19-1.67,2.95-2.64,5.01-3.22"/>
    <path d="M190.7,214.56c3.09,.96,4.82,2.65,4.95,5.23"/>
    <path d="M198.65,214.04c1.87,1.18,2.67,2.44,2.83,3.74"/>
    <path d="M134.56,220.62c1.74,1.03,2.32,2.25,1.26,3.75"/>
    <path d="M135.07,210.78c.39,.76,1.12,1.34,2.23,1.7"/>
    <path d="M101.55,153.12c-.23,2.12,1.62,4.92-1.26,4.18"/>
    <path d="M100.28,161.07c1.83,5.37,7.96,11.21,13.23,10.29"/>
    <path d="M104.74,155.58c0,4.11,3.2,9.71,6.97,8.87"/>
    <path d="M125.76,136.62c-4.46,6.97-10.66,15.29-16.45,13.37"/>
    <path d="M137.07,132.04c1.56-5.07,2.29-1.37,1.71,4.34"/>
    <path d="M144.96,134.67c-1.49,3-3.31,5.6-5.83,7.43"/>
    <path d="M210.41,260.79c-.85,2.51-3.01,4.89-7.38,7.05"/>
    <path d="M143.28,273.64c9.39,6.3,17.49,2.9,17.99,4.4-.33,1.3-3.35,2.01-8.79,2.2"/>
    <path d="M164.96,279.43c-2.76,2.16-5.32,5.46-7.69,9.89"/>
    <path d="M171.06,281.93c.68,8.42,3.07,15.94,6.8,22.78"/>
    <path d="M183.95,280.73c-9.59-5.6-12.29-2-2.6,8.69"/>
    <path d="M126.09,312.21c-2.21,9.49-2.74,18.41,1.7,25.68"/>
    <path d="M147.27,328c-1.43,4.36-3.62,8.23-8.89,10.09"/>
    <path d="M189.74,336.29c-3.98,3.2-8.75,4.87-14.59,4.4"/>
    <path d="M199.94,339.59c-11.69,1.4-16.89,3.5,1.6,3.3"/>
    <path d="M177.55,345.89c14.19-.9,21.18,1.2,1,2.4"/>
    <path d="M200.44,348.08c-4.5,.6-7.59,.9-12.99,3.5"/>
    <path d="M145.72,343.57c-11.93,2.51-25.29-.78-25.42,.42-.16,1.5,10.89,4.4,21.78,1.8"/>
    <path d="M121.69,348.08c4.4,1.3,7.29,1.2-.5,5.3"/>
    <path d="M142.08,350.38c-7.29,.8-18.29,3.3-18.69,8.59"/>
    <path d="M198.4,411.37c-6.53,3.71-16.18,3.21-20.17-4.88"/>
    <path d="M199.05,417.04c-4.08,3.85-17.04,4.19-4.08,4.52"/>
    <path d="M172.64,414.57c4.35,4.15,7.61,5.81,9.92,5.33"/>
    <path d="M195.47,425.39c-5.04,1.6-11.03,1.05-15.24-1.72"/>
    <path d="M144.53,418.53c-4.47,1.01-8.85,.85-13.06-1.29"/>
    <path d="M131.8,400.39c-1.55,2.23-8.64,1.44-11.19,3.88"/>
    <path d="M144.21,398.18c.66,3.1,5.54,3.66,5.31,6.86"/>
    <path d="M144.1,409.26c-5.98-3.21-17.15-1.23-17.4,.44-.29,1.99,8.76,4.77,16.62,3.1"/>
  </g>
</svg>