<svg viewBox="0 0 217.13 434.5">
  <g class="soleWhite">
    <path d="M55.85,368.17c-5.79,5.76-9.61,10.74-2.3,16.92,8.48-.85,15-9.38,27.49-19.37,8.62-6.91,15.38-14,16.4-16.23a11.91,11.91,0,0,0-4.14-5.88Z"/>
    <path d="M128,420c4.29,2.16,5,8.89,3.57,11.6-2.22,2.58-27.07,5-31.51-1.66-1-1.5-3.68-2-3.68-3.17a10.48,10.48,0,0,1,.48-6.29"/>
  </g>
  <g class="bennettShoe">
    <path d="M57.65,333.43c3.94,4.79,5.79,10.4,4.71,15.78-1,5.19-1.27,11.65-6.51,19a11.77,11.77,0,0,1,6.4,5.76c4.51-2.83,11.23-10.3,17.66-15,6.13-4.45,13-13.07,13.39-15.34-4.72-6.47-15.87-11-19.19-17.32C65.83,326,59,327.14,57.65,333.43Z"/>
    <path d="M126.66,395.24c-3.34,8.72-3.08,17,1.36,24.76-9.25-4.16-21.28-3.87-27,3.86-1.87-.75-2.32-2.51-4.16-3.38.67-6.85,8.61-17.7,11.6-30C118.49,384.47,123.91,386.41,126.66,395.24Z"/>
  </g>
  <g class="shoelace">
    <path d="M66,343.31a12.09,12.09,0,0,0-3.52.38,16.24,16.24,0,0,1-.12,5.52c-.66,3.3-1,7.1-2.49,11.31a13.19,13.19,0,0,1,3.29.69C65.74,356.25,66.66,347.71,66,343.31Z"/>
    <path d="M122.89,414.19a41.44,41.44,0,0,0-13.92-.67,61.61,61.61,0,0,1,2.41-13.83,29.42,29.42,0,0,1,11.51,1.64A38.76,38.76,0,0,0,122.89,414.19Z"/>
  </g>
  <g class="converseLogo">
    <circle cx="78.74" cy="345.78" r="5.75"/>
    <path d="M103.46,404c-1.68,3.64-3.39,7-4.65,10C101.52,413.79,104.87,406.45,103.46,404Z"/>
  </g>
  <path class="bennettJeans" d="M97,240.09c16.17,13.38,19,46.27,26.64,63.55,1.23,4.92-1.94,9.82,1.49,12.64-4.41,1.7-2.06,6.38-3.72,10-8.86,19.53-6.9,39-14.66,48.63-4.79,4.12.73,9.31-1.32,12.2-2.35,2.56,1.26,6.43,1.45,8.58,1.69-1.79,4.53-1.08,5.54-2.65,3-5.35,12.58-2.82,11.3,2.65,1.22.71,1.12,2.34,1.37,4.58,3.13-2.8,8.64-6,5.59-9.41,5.66-.5,4.77-5,5.87-9.19,2.33-8.89,14.31-37,19-56.53,2.38-2.39,1-5.82,2.41-7.54,3.68-4.48.76-9.24.9-13.42.77-21.75-7.43-69.17-7.08-71.15s2.44-2.57,0-5.42c1.75-1.76.59-8.69-.77-9.5-.48-3.34,1.83-4.15.11-7.38L80,182.58c-4.86,7.93-10.85,5.24-10.24,10-1.55-.29-3.17-.27-2.84,2.13C45.41,213,9.45,248,3.19,259.9c-11,21,11,33.47,33.55,59.27,4.3,4.91,6.95,15.54,12.94,13.12,1,5.8,5.72,3.3,9.69,3.49-2.87-2.59-.78-5.08,3.05-1,3.79-1.06,8.85-4.75,15.09-4.31,1.23-5.14-2.93-5.93-3.41-7.92.92-4.37,1.37-7.61-3.26-9-12.08-12.08-26.21-36.81-31.12-36.75,1.07-2.74-2.32-3.73-5.87-5.12,4.29.3,7.14.19,6.46-3,3.77-3,7.26-.84,13-6.15C64,252.79,87.35,237.64,97,240.09Z"/>
  <path class="bennettSleeves" d="M145.66,88.58c-57.56,29.85,54.24,84.81,30,11.15Z"/>
  <path class="shirtWhite" d="M80.28,187.63C101.14,204.51,122.92,222,152.52,213c7.08-5.6,19.31-46.79,20.8-81.43a73.27,73.27,0,0,1-9.2-19.26c-6.45.78-20.1-4.75-22.68-11.34-6.3,2.78-15.56,4.39-23,2.78Z"/>
  <g class="meat">
    <path class="beef" d="M210.57,415.32c-1.76-2.18-6-3.2-9.82-3.71a250.86,250.86,0,0,0-28.61-2.14c-6.11-.11-11.11.7-14.46,2.26-4.58,2.14-11.29,6.21-12,8.65C172.9,429,196.06,430.14,210.57,415.32Z"/>
    <path class="foamWhite" d="M203.58,424.74l-10.38,4.79a10.67,10.67,0,0,1-5.4.93l-32.14-2.89a10.68,10.68,0,0,1-7.33-3.92l-2.63-3.27c2.92,2.05,41.57,4.9,44.78,4.51s18.85-7.9,20.09-9.57l-1.64,3.89A10.62,10.62,0,0,1,203.58,424.74Z"/>
    <rect class="foamYellow" x="12.24" y="362.74" width="37.21" height="54.85" rx="4.31" transform="translate(152.09 18.04) rotate(22.57)"/>
    <path class="foamBlue" d="M117.65,179.61,86.71,168.9a3.94,3.94,0,0,1-2.26-5.33l19.63-48a4.51,4.51,0,0,1,5.52-2.64l30.93,10.71a3.94,3.94,0,0,1,2.26,5.33l-19.63,48A4.5,4.5,0,0,1,117.65,179.61Z"/>
    <g class="foamEdgeLine">
      <path d="M8.76,407.92a2.59,2.59,0,0,1-1.4-3.38l2-4.72"/>
      <path d="M42.19,405l-5,12a2.57,2.57,0,0,1-3.37,1.39l-4.64-1.92"/>
      <path d="M52.93,372.41a2.57,2.57,0,0,1,1.39,3.37l-1.39,3.35"/>
      <path d="M24.47,363.37A2.59,2.59,0,0,1,27.85,362l3.31,1.38"/>
      <path d="M138.49,125.88a2.37,2.37,0,0,1,1.35,3.2l-1.06,2.6"/>
      <path d="M122.2,172.23,121,175.08a2.71,2.71,0,0,1-3.31,1.59l-8.6-3"/>
    </g>
    <g class="chicken">
      <path d="M36.28,409.9c-2.09,4.83-7.19,6.77-9.1,1.26-1.23-3.55-.77-7.92-1.4-12.33l9-25.29c6.18-2.67,11.06-.55,15.07,4.76-1.7,6.64-4.74,13.53-7.15,20.6C40.86,404.16,37.72,406.58,36.28,409.9Z"/>
      <path d="M35,376.34c-1.41,4-2.59,9.66-4.82,13.63s-3,8.6-5.08,11.19c-2.34,2.86-3.76,7.81-6.54,8.11-3,.32-5-2.55-5-5.26.27-4.07-.66-7.78.27-12,.74-3.41,2.25-4.47,3.14-8.88,1-4.79,4.14-7.35,5.48-12.81.91-3.71,6.25-4.87,10.3-2.1C35.64,370.17,36.32,372.56,35,376.34Z"/>
    </g>
    <g class="porkFat">
      <path d="M109.8,136.21c-4.37-1.8-8.45-.93-10.17,1.8s-1.9,3.45-3.29,5.08c-2.59,3.06.56,6.68,3.67,7.93,4,1.62,9.06,3.25,14.8,5.9,13.76,7.33,20-8.74,11.59-13.23C121.43,140.32,114.21,138,109.8,136.21Z"/>
      <path d="M133.29,125.66c8,1.47,4.11,10.75,1.72,14-3.38,4.58-7.79,3.34-20-1.44-4.83-1.89-10.09-4-11.2-6.71-1.43-3.49.5-8.63,1.52-10.7C108.82,113.67,124,124,133.29,125.66Z"/>
      <path d="M106.93,153.66a22.57,22.57,0,0,0-12.17-1.26c-2,.42-2.51,1.31-3.43,2.59-2.13,3-2.75,10.59,1.75,11.62,3.14.73,5.78,2.77,9.45,3.77,3.39.93,8,3.29,13.79,4.85,2.34.64,4.44-1.17,5.64-4.16,1.72-3.8,2.52-7.29.38-9.18a51.87,51.87,0,0,0-7.53-5C112.6,155.88,109.23,154.5,106.93,153.66Z"/>
    </g>
    <g class="porkMeat">
      <path d="M110.15,137.86c-3.77-1.53-8-1.08-9.44,1.24s-1.61,3.2-2.77,4.61c-2.32,2.82,1.33,5.31,4,6.37,3.48,1.38,7.61,2.83,12.54,5.09,12.42,6.57,18.86-6.32,10-10.85C120.17,141.46,113.94,139.41,110.15,137.86Z"/>
      <path d="M131.5,126.76c8.27,1,4.48,8.91,2.43,11.67-2.92,3.89-7.54,2.5-18.09-1.57-4.16-1.6-9.48-3.51-10.44-5.83-1.22-3,.27-7,1.15-8.81C109.59,116.15,123.45,125.77,131.5,126.76Z"/>
      <path d="M107.47,155.25a29.33,29.33,0,0,0-11.08-1.78c-5.26.28-7.55,10.23-2.16,11.82,2.88.86,6,2.84,9.13,3.7,2.92.79,7.13,3.12,12.07,4.45,2,.54,4,.21,5.4-3.42,1.47-3.22,1.51-4.74.92-6.25C120.62,160.86,111.65,156.66,107.47,155.25Z"/>
    </g>
    <g class="label">
      <path d="M170.08,419.36q3.07-2,6.17-4,10.14,1,20.14,2.91c-2,1.2-4.08,2.42-6.12,3.64Q180.22,420.16,170.08,419.36Z"/>
      <rect x="36.33" y="370.85" width="13.15" height="20.36" transform="translate(118.7 5.16) rotate(17.83)"/>
      <polygon points="103.81 129.17 107.98 116.75 126.84 121.85 122.66 134.27 103.81 129.17"/>
    </g>
    <g class="labelPrint">
      <path d="M174.54,417.36l2.4-1.55q9,.88,17.95,2.48l-2.65,1.46Q183.42,418.21,174.54,417.36Z"/>
      <polygon points="39.95 389.46 35.08 387.89 40.35 370.67 45.42 372.46 39.95 389.46"/>
      <polygon points="107.12 123.06 108.75 118.22 125.52 122.5 123.66 127.54 107.12 123.06"/>
    </g>
    <path class="flagLabelRed" d="M113.35,173.57l3.94.46c2.16.25,1.41-5.08,3.12-4.88h0c-1.71-.2,1-5.14-1.2-5.39l-3.94-.46Z"/>
    <g class="flagLabelWhite">
      <path d="M114.5,167.41l5.3.62c0-.6.16-1.36.25-2.07l-5.17-.6Z"/>
      <path d="M113.73,171.52l5.16.6c.19-.7.32-1.46.53-2l-5.31-.62Z"/>
    </g>
    <path class="flagLabelBlue" d="M111.26,173.33c1,.11,1.94-5,1-5.14,1,.12,1.94-5,1-5.13l2.09.24-1.92,10.27Z"/>
  </g>
  <g class="bennettJacketInner">
    <path d="M153.37,160.25c.84.5-10.14,19-11.54,18.39C140.89,177.32,150.41,158.44,153.37,160.25Z"/>
    <path d="M163.35,184.22c-2.14,7.73-.85,8.46-4.26,10-5.82,7.49,1.29,11.32-5,13.35a16,16,0,0,1-1.31,3.95c-.07.5-.15,1-.22,1.52,4.17.52,7.08,4.3,11,6.49C170.32,197.49,167.88,183.67,163.35,184.22Z"/>
  </g>
  <g class="bennettJacket">
    <path d="M175.13,196.2c8.51,3.75,15.91,5.72,20.83,3.73,8.4-3.38,9.16-27.54,7.33-46.7-1.06-11.19,2.28-10.43-.8-16.53,1.74-3.46-.27-6.29-.93-9.86s3.47-4.53-6-10.39c-1.06-5.34-1.86-6.67-8.39-7.73.53-4.67-2-.79-7.62-8-7.71,27.16-12.22,47-11.58,67.09a47.45,47.45,0,0,1-5.73-2.93c-.52-2.37-4.63-2.92-8.87-4.58l-11.54,18.39c7.78,4.14,15.92,8.85,23.62,12.86.65,10-2.51,23.79-5.12,39.6,3.49-3,8.73-4.23,9.44-5.82,2.63-5.92,2.84-12.41,3.36-18.62C175.66,204.63,174.81,199.81,175.13,196.2Z"/>
    <path d="M144.28,87.29c-2-5.31-3.1-3.36-5.51-4.63s-3.06-5.55-8.79-2.92c-8.78-6.49-9.19-1.87-14.79-.82-7.39,1.39-16,11.14-23.59,16.44-7.24,5-14.28,7.94-21.17,15-1.73.7-4.45-.89-5.76,2.59-4.7-1-4.45,3.93-8.44,7.63-4.25,4-12.25,10-16.37,14.66-4.42,4.33,11.57,20.68,16,16.36,6.38-5.73,15.15-11.67,18-16.36,1.88,1.1,3.07-1.29,4.15-1.62,1.8-.55,2.82-.27,2.76-3.83,8.92-.59,6.2-6.83,23.8-16.54-10,16.86-23.73,46.45-25.08,58.7-.37,3.41-5.34,10.54-7.27,13.63-2.19,2,4.77,7.91,6.36,13.09,6.23-8.35,6.17-18.3,12.36-30.53,8-15.76,15-30.65,22.72-41.8C122.42,113.66,137.07,103.3,144.28,87.29Z"/>
  </g>
  <g class="zipperDisplayLine">
    <path d="M173.62,123c-4,16.58-6.1,30.63-5.65,44.79"/>
    <path d="M165.45,191.5c.65,10-2.51,23.79-5.12,39.6"/>
    <path d="M78.57,198.62c6.23-8.35,6.17-18.3,12.36-30.53,8-15.76,15-30.65,22.72-41.8,5-7.27,12-13.78,18.45-21.06"/>
  </g>
  <path class="bennettJacketCollar" d="M175.62,99.73l-30-11.15a59,59,0,0,1-9,11c8.22-11.28,5.81-11-5.69-3.66,5.18-6.06,13.27-13.72,18.44-14.14,7.71-.63,21.43,5.37,26.52,11A21,21,0,0,1,182,106.44c-3.28-8-11.12,23.68-13.51,45.34C168.09,130.31,176.93,109.35,175.62,99.73Z"/>
  <g class="clothesDisplayLine">
    <path d="M106.59,206.67c-2.44,1.46-2.51,6.88-4.46,9.64-3.79,5.37-.93,7.56-2.52,10.39-1.83,3.27-2.78,5.61-2,8.22"/>
    <path d="M114.76,210.74c-2.33,1.82-3.05,6.63-4.35,9.28-2,4,.83,12.22-10.8,6.68"/>
    <path d="M55.72,378.77a38.61,38.61,0,0,0,6.53-4.84"/>
    <path d="M101,423.86c7.25,4.27,25,5,30.85,1.44"/>
  </g>
  <g class="clothesOverlapLine">
    <path d="M104.56,113.2c2.85-8.76,9.71-8.9,11.9-12.74"/>
    <path d="M179.14,140.24c-1,5.37.55,13.17.41,18.24-2.35,2.78,0,7.41-1,14.22"/>
    <path d="M168,167.76c4.32,1.28,8.57,4.44,14.88,6.77"/>
    <path d="M165.45,191.5a89.67,89.67,0,0,0,9.68,4.7"/>
    <path d="M182,106.44c.86,4.14-.78,6.83,2.51,10.58"/>
    <path d="M62.65,346.81a16.39,16.39,0,0,1,3.56-.14"/>
    <path d="M62.29,349.56a13.43,13.43,0,0,1,3.77.22"/>
    <path d="M61.77,352.59a27.31,27.31,0,0,1,3.86.53"/>
    <path d="M61.32,355.19A15,15,0,0,1,65,356"/>
    <path d="M60.69,357.86a14.76,14.76,0,0,1,3.61.74"/>
    <path d="M62.42,334.75c-.54,1.49,2.91,4.63,3.58,8.56"/>
    <path d="M110.72,402.1a36.13,36.13,0,0,1,11.82,1.58"/>
    <path d="M122.38,405.79a48.77,48.77,0,0,0-12.2-1.32"/>
    <path d="M109.72,406.9A52.88,52.88,0,0,1,122.36,408"/>
    <path d="M122.45,410.11a39.63,39.63,0,0,0-13.07-.94"/>
    <path d="M109.15,411.26a42,42,0,0,1,13.48.83"/>
    <path d="M112.45,393.07c.17,1.8-.64,4.3-1.07,6.62"/>
    <path d="M123.75,395.72c.32,1.46-.67,3.67-.86,5.61"/>
  </g>
  <g class="clothesFoldLine">
    <path d="M187.19,188.63c2.12-6.07,1.36-12.74-4.34-14.1"/>
    <path d="M194.58,190.44c1.47-10.89-10-22-13.55-16.63"/>
    <path d="M187.91,171a16.12,16.12,0,0,1,10.21,7.34"/>
    <path d="M180.29,160.19c2.41,3.4,13.56,2.07,17-3.94"/>
    <path d="M176.35,136.28c.75,1.95,1.66,3.35,2.79,4"/>
    <path d="M202.49,136.7a14.23,14.23,0,0,0-6.9-.82"/>
    <path d="M195.56,116.45c-2.24-1.21-5.92.13-4.78-3.28"/>
    <path d="M194.12,126.8c-13,2.48-2.74-4.68,3.27-3.41"/>
    <path d="M179.49,126.66c-1.27,3.54-1.85,9-.27,9.55,2,.74.54-6.68,5.41-13.42"/>
    <path d="M175.83,143.76c-1.92,7.24-5.74,13.91-1.33,22.9"/>
    <path d="M173.13,206.66c-3.24,1.63-5.59,5.88-7.2,12.28"/>
    <path d="M85,184.2a39,39,0,0,0,14.66,12"/>
    <path d="M148.65,210.82c-31.9,1.47-57.6-18.46-34.41-7.68"/>
    <path d="M90.76,181.57c10.18,13.42,32.49,23,45.93,24.52"/>
    <path d="M89.7,171.15c10.12,11.49,20.86,20.51,32.37,26.52"/>
    <path d="M116.75,192.06c-7.22-6-14.07-12.7-11.08-12.11,10.9,2.15,24.37,24.81,48.38,27.6"/>
    <path d="M115.72,180.69c10.28,9.64,24.51,12.26,37.81,8.42"/>
    <path d="M159.09,194.2c-11.62,3.33-26.48-2.43-27.57-1s9.45,6.94,17,8.86"/>
    <path d="M124.63,173.37a72.05,72.05,0,0,0,12.06,5"/>
    <path d="M126,170.16a27,27,0,0,0,7.19,3.21"/>
    <path d="M138.18,140.24a52.54,52.54,0,0,0,9.48,4.41"/>
    <path d="M139.52,137a26.78,26.78,0,0,0,6.38,3.27"/>
    <path d="M154.71,154.4a25.91,25.91,0,0,0,13.5.81"/>
    <path d="M163,159.57a82.1,82.1,0,0,1-11.52-2.81"/>
    <path d="M148.5,127.37a53.84,53.84,0,0,0,13.3,5.17"/>
    <path d="M152.64,126.63a69.77,69.77,0,0,0,17.89,3.79"/>
    <path d="M131.67,108.76a23.42,23.42,0,0,0,6.5,8.71"/>
    <path d="M134.47,108a8.33,8.33,0,0,0,4.29,5"/>
    <path d="M112.76,105.36c-3.38,1.1-1.33,4.43,2.81,5.76"/>
    <path d="M113.5,107.14c6.35-4.58,3.4-13.59,10.34-20.09"/>
    <path d="M111.88,89.56a39,39,0,0,1,2.8,10.34"/>
    <path d="M130,79.74c-1.75.81-3.48,1.54-4.37-.22"/>
    <path d="M138.77,82.66c-1.79,0-3.54,1.25-4.59.25"/>
    <path d="M115.41,92c.46-10.15,4.19-8.85,2-2.27-1.54,4.62,0,6.52-.94,10.71"/>
    <path d="M77.1,107.87c-2.85,6.64-2.8,12.82,4.35,17.84"/>
    <path d="M62.43,117.83c7.32,1.27,11,5.93,10.23,14.76"/>
    <path d="M69,115.75c-7.79-4.53,1.73-4.3,4,3.53,1.54,5.34,10.51,14.4,3.9,12.77"/>
    <path d="M55.27,130.15c1.33,4.9,4,7.56,8.15,7.79"/>
    <path d="M69.71,192.62c.9,1.19,4.44,3.55,5.39,5"/>
    <path d="M66.87,194.75c.26,1.83,2,3.1,3.66,4.2"/>
    <path d="M91.66,220.63A176.48,176.48,0,0,0,73.53,208"/>
    <path d="M93,228.63a116,116,0,0,0-18.29-6.26"/>
    <path d="M89.37,232.43c-5.7.95-12,2.37-17,3.64"/>
    <path d="M141.46,232.19a134.51,134.51,0,0,0-25.1-1.58"/>
    <path d="M126.42,244c-4.23-3.23-11.48-5.39-18.29-8.79"/>
    <path d="M110.19,244.38c3.24,5.23,5.69,10.45,9.73,15.52"/>
    <path d="M151.81,227.64c-3.71-1.67-9.49-1.74-15.18-1.47"/>
    <path d="M151,218.14c-2.79-.44-6.87.73-9.82,0"/>
    <path d="M155.58,325.17c-1.72,1.06-3.67.72-6.21,6.31"/>
    <path d="M122.23,287c3.17,8.28,7.17,15.44,13,20"/>
    <path d="M123.67,303.64c2.11,7.53,10.24,7.69,10.23,10.58,0,2-2.68.55-5.24-2.2"/>
    <path d="M125.16,316.28c3.16.9,5.61,5,1.21,5.55"/>
    <path d="M133.9,328c-.09-8.14-4.91-3.32-11,5"/>
    <path d="M134.31,378.09c-2.45,11.93-24.31,5.59-23.55-3.63"/>
    <path d="M130.71,390.89c-3.68-.39-5.35.39-1.67,3.28"/>
    <path d="M104.67,381.25c2.45,4.8,17.69,6.23,5.51,6.74"/>
    <path d="M70.84,313.56c2.81,3.54-1.68,6.86-11,8.7"/>
    <path d="M74.1,322.52c-2.08,3-10.79,3-11.81,5.74-.43,1.19,2.85.08,5.25-1"/>
    <path d="M49.68,332.29c3.86-1.79,8.31-7.25,7.79-4"/>
    <path d="M19.53,260.36c4.4,3.38,11.88,4.28,11.26,6.67-.31,1.17-9.06-2.86-17.26-2.53"/>
    <path d="M33.85,271.69c-6.17-.09-19-3.8-20.15-.84-.78,2,9.17.9,15,1.24"/>
    <path d="M10.15,277.53c13.86-.83,24.65-3,3.46,3.3"/>
    <path d="M26.08,282.07c3.22-3.3,10.07-6.56,6.85-2.2"/>
    <path d="M39.72,276.81c-.63,1.45-3.26,2.94-3.69,4.29"/>
    <path d="M40.31,268.72c-2.8-3.48-1.33-3.75,2.06-2.85"/>
  </g>
  <g class="eye">
    <circle class="sclera" cx="166.21" cy="61.44" r="23.16"/>
    <g class="irisDarkBrown">
      <ellipse cx="177.33" cy="67.37" rx="3.22" ry="3.35" transform="translate(50.67 208.58) rotate(-68.91)"/>
      <ellipse cx="153.14" cy="58.04" rx="3.22" ry="3.35" transform="matrix(0.36, -0.93, 0.93, 0.36, 43.89, 180.04)"/>
    </g>
    <g class="pupil">
      <ellipse cx="177.07" cy="67.6" rx="1.25" ry="1.3" transform="translate(50.29 208.49) rotate(-68.91)"/>
      <ellipse cx="152.88" cy="58.27" rx="1.25" ry="1.3" transform="translate(43.51 179.95) rotate(-68.91)"/>
    </g>
  </g>
  <g class="skinEastAsian">
    <path d="M180.79,89.51c-2.19,1.1-4.75,7.55-5.17,10.22-5.35,17-39.43,1.23-30-11.15"/>
    <path d="M123,139.58c-4.58-1.51-5.31-5.25-3-6,2.81.19,6.71,2.86,9.21,4.11,3.43,1.71,6.73,6.27,14.44,10.08,4.65,2.6,6.14,9.38,9.7,12.51.53.31-3.64,7.8-7.15,13.12a13.18,13.18,0,0,0-3.85-2.87c-.93-1.21-9.66,2.88-17.37-6.88-2.31-2.91-4.27-1.87-6.32-4.27-4.18-4.18-5.85-7-4-9.44-4.37-2.42-4.28-6.08-1.49-6.63-2-1.68-1.25-5.15,1.09-4.89,4.22,1.82,8.34,2.69,16.25,8.05A35,35,0,0,0,123,139.58Zm-3.12,13.94a8.43,8.43,0,0,0,5.67,3.78C123.4,155.86,121.88,154.88,119.92,153.52Z"/>
    <path d="M37.19,155.56c2.56-1,3.14,1,8.69.76,5-.21,4.54-2.41,9.17-2.16,8.94-.58,6.62-7,.17-6.87,0-3.31-1.33-8.76-6.12-8.27-1.91-2.81-.25-9.35-6.54-8.85-2.23.33-4.13,4.8-4.3,8.6-2.65-1.9-4.48-.06-6.37.33-1.65.35-1.9-.57-4.3,1.66-1.82-.33-3.73-3.28-5.46-2.71-1.9.33-5.21,2.63-4.8,5.85.75,1.41-.08,3.72,1.08,4.47,1.65.74,3.72-.37,4.3-2.9a3.59,3.59,0,0,0,1.57,1.91c1.49,9.84,6.37,11.82,9,12.24C36.28,163.59,39.92,159.78,37.19,155.56Z"/>
    <path d="M144.31,48.07c1.7-11.15,3.67-7.73,13.21-24.85,28.61-15.4,63.15,18.09,52.23,40.93,4.08,4.15-4.1,13.41-5.78,14.48-2.4,1.54-5.39,6.18-8.35,2.51-7.56,9.56-18.45,17.48-29.06,17.15-6.05-.18-7.49,1.65-14.48-1.61-5.67-2.65-5.68-5.77-9.92-12.62C132.78,68.85,144,50.36,144.31,48.07Zm28.3,17.09c2.88,2.74,8,5.51,11.37,2a10.24,10.24,0,0,0-4.52-3.68c-2.31-1-5.26-.44-7.56.69C171,64.63,172.28,64.85,172.61,65.16ZM159.47,59.8c-.89-2.66-2.12-4.19-4.68-4.91a13.29,13.29,0,0,0-6.25,0c2,4.41,7.13,4.19,9.7,5.1C158.67,60.09,159.82,60.84,159.47,59.8Z"/>
  </g>
  <g class="skinOverlapLine">
    <path d="M113.2,143.28c4.9,1.62,9.59,5.47,14.28,9"/>
    <path d="M114.69,149.91c1.8,1,3.71,2.55,5.23,3.61"/>
    <path d="M27.59,140.76c-1.9,2.6-3.79,4.58-3.31,6.62"/>
    <path d="M31.62,142.37c-3.13,3.71-1.59,6.57-.82,11.29.49,3.05,1.81,4.45,2.5,6"/>
    <path d="M38.26,138.77c.44,2.45-.3,4.76.94,5.83,1.81,1.15,6.09.74,5-6.92.85-.67,1.18-2,1.32-3.46"/>
    <path d="M49.1,139c1.38,3,3.78,4.81,4,8.46"/>
    <path d="M55.22,147.29c-2-.06-3.66.85-4.9,1"/>
    <path d="M37.19,155.56c-1.6-2.72-.24-6.34-1.27-8.79a4.69,4.69,0,0,0,2.86-2.7"/>
  </g>
  <g class="skinFoldLine">
    <path d="M51.54,152.2c-.92-.77-.73-2.9.09-3.63"/>
    <path d="M204.28,69.4c4.86-6.77,6.59.13.53,6.08"/>
    <path d="M202.59,71.84c1.56,1.75-3.4,3.89-2,4.88,1.21.81.77-1.66,3.22-2.46,2.23-.73,2.86-4.49,1.13-3.53"/>
  </g>
  <path class="skinCreaseLine" d="M45.69,143.7c-1.31,2.32-5.41,3.09-6.18,7.65"/>
  <path class="lipMaleMedium__noStroke" d="M155.56,80.12a4.94,4.94,0,0,0,4.93,1.6c1.57.62,3,3.29,5.75,4.75-2.6-.54-1.62,7.64-9.19,1.83-1.36-1-3.64-5.85-6.76-7.76C152.78,81.13,154.15,79.22,155.56,80.12Z"/>
  <path class="teeth" d="M159.62,83.25c2.2,1.73,2.83,4.53,3.79,1.57C162,83.43,160.81,83,159.62,83.25Z"/>
  <g class="lipOverlapLine">
    <path d="M166.79,86.62a8.1,8.1,0,0,1-3.38-1.8"/>
    <path d="M159.62,83.25c-1.21.28-2,.5-2.85-.25-2.16-1.93-5.32-1.09-7.23-3"/>
  </g>
  <g class="lipEdgeLine">
    <path d="M164.85,86.86c-1.11,4.4-4.42,4.76-8.2.88-1.08-1.11-2-2.65-3.43-4.26"/>
    <path d="M160.49,81.72a4.94,4.94,0,0,1-4.93-1.6"/>
  </g>
  <g class="cheekLine">
    <path d="M167.05,75.47c.89.63,1.26,2.85,1.4,3.86"/>
    <path d="M155.52,70.57c-1.5.51-1.68,1.38-3.28,2.15"/>
  </g>
  <path class="noseLine" d="M167.05,75.47c1.15,1.34-.55,4.26-2.39,3.88-4.43-.9-3.68.36-6.22-.67-2.8-1.13-2.4-2.36-3.85-3.41-1.67-1.2-1-3.92.93-4.7"/>
  <g class="eyeFoldLine">
    <path d="M181.31,70.56a8,8,0,0,1-8.57-2.37"/>
    <path d="M155.83,61.45c-2.51.6-5.79-1.27-7.11-3.26"/>
  </g>
  <path class="eyeCreaseLine" d="M149.17,53.88c3.13-1.29,10-2.09,10.32,5.3"/>
  <g class="eyeCornerLine">
    <path d="M148.54,54.84a4.83,4.83,0,0,1-1.43.1"/>
    <path d="M185,68.37A8.9,8.9,0,0,1,184,67.18"/>
  </g>
  <g class="eyebrowBlack">
    <path d="M172.35,54.53c2.5,5.73,11.17,1.27,16.59,9.85C186.24,54.38,178.09,57.21,172.35,54.53Z"/>
    <path d="M164.54,52.9c-4.68,2.16-8.32-5.68-16.43-5.36C156.74,44.79,159.25,51.26,164.54,52.9Z"/>
  </g>
  <path class="hairBlack" d="M182,54.15a13.38,13.38,0,0,1,1.31,4.68c-6.75-7.95-15.92-3.32-20.26-13,.25,1.76,1.95,4.51,1.39,6-1.07-2.64-10.35-5.6-5.58-20.8-2.72,6.66-6.7,13.83-17.31,12.65,4.46-5.27,1.27-12.62,9.13-18.91-1.72.69-3.57,2.22-5,1.66,5.83-3.77,4.74-15.31,25.19-19.47-.41-2.5-4.32-3.63-5.75-2.42,2.46-3.42,7.77-1.86,8.8,2.1.55-3.26,7.31-7.9,12-5.93-4.22-.8-8.5,3.86-8.75,6.23,4.46-.4,26,4.12,35.14,19.29,8.64,14.4,3.38,28.26-2.58,37.91-2.63-2-5.39.64-5.79,2.43a5.57,5.57,0,0,1-3.9.54c1.74-4.41.43-2.79-.51-6.65C194,58.83,187.76,61.5,182,54.15Z"/>
  <path class="hairOverlapLine" d="M199.55,60.47A7.2,7.2,0,0,1,203.07,63"/>
</svg>
