<svg viewBox="0 0 182.93 323.12">
  <g class="soleWhite">
    <path d="M99.13,300.2c.92,2.09.94,5.22.19,6.34-9.94,8.17-20.87,3.5-30.53,4.92l-.92-5.39Z"/>
    <path d="M74.2,311.25c.54,2.23.94,6,.19,6.9-13.47,7.62-22.89,3.53-34.49,4.26-8.68.93-20.86-.53-22.59-2.59-1.71-11.88,7.71-9.94,13.5-13.18Z"/>
  </g>
  <g class="bennettShoe">
    <path d="M91.12,277.53c2.87,9,7.09,14.15,8,22.67-8.06,7.37-19.75,5.64-31.26,5.87C59.25,277.64,65.82,266.77,91.12,277.53Z"/>
    <path d="M50.14,277c.24,7.53-.38,14.5-4.48,18.8a51.14,51.14,0,0,1-14.85,10.81c-2,2.65-3.11,7.37-1.38,9.9,2.65.92,13,0,21.63.69,9.82.74,19.91-2.53,23.14-6-.12-9.67-3.34-16.8-4.72-26.13Z"/>
  </g>
  <path class="shoelace" d="M37.19,306.07A25.8,25.8,0,0,0,49.64,291.3a6.67,6.67,0,0,1-1-.53,14.13,14.13,0,0,1-3,5.06,51.23,51.23,0,0,1-8.87,7.42A12.44,12.44,0,0,0,37.19,306.07Z"/>
  <path class="converseLogo" d="M74.56,289.63a4.83,4.83,0,0,0-3.63,2.78c.63,2.62,1.29,5.15,1.86,7.73a4.56,4.56,0,0,0,3.35.88C82.72,300.11,81.14,288.72,74.56,289.63Z"/>
  <path class="bennettJeans" d="M129.8,186.08c-5.94-.93-5.45,2.35-11.14,1.55-15.13-2.13-59.26-6.8-65.91-.72-7.32,1-11.67,5.47-13,16.79-2.16,19,4.26,47.59,4.27,53.89,0,3.44-2.24,7.72,5.16,10.75.26,1.73-4.24,4.25,0,8.39-1.36,1.45.32,2.82,1,4.38.74-3,2.15-1.82,1.53,1.89,4.15,2.77,10.69.78,18.35,5.43-.14-2.81,2.64-3.37.88-6.91,1.54-.32,2-1.06,2.69-2.61,6.33,3,14.52,4.76,18.82,2.31,2.75-1.57,1.86-4.82-.22-7.77,2.51-4.43,1.59-8.05-1.85-11.07-5-14.2-3.77-30.16-6.4-38,9.24,4.3,24.91,9.05,38.13,14.48,28.81,11.83,52-3.72,52.14-23.24C159.11,207.59,144.83,199,129.8,186.08Z"/>
  <g class="burger">
    <path class="burgerWrapper" d="M78.33,83.88C75.26,85.06,59.52,93,56.84,97.47c-1.2,2-2,1.71-2,2.75s.59-.08,1.91,4.9c.94,3.53,4.73,4.78,5.6,7,1,2.63,16.48-9.67,25.15-14.37C82.84,98.74,77,87,78.33,83.88Z"/>
    <path class="burgerPattyInner" d="M89.36,85.48c-2.14.4-4.66,2-4.28,2.57,1.27,1.31.87,2.81,2.47,4.23.33-.56,2.45-1.83,4.19-2.78C91.38,87.89,89.91,87.1,89.36,85.48Z"/>
    <g class="burgerBunInner">
      <path d="M81.9,82.92c1.77-1,3.66-1.78,5.26-1.06a11.4,11.4,0,0,0,2.2,3.62c-2,.93-4,2-4.34,2.61C82.28,87.75,81.88,85.5,81.9,82.92Z"/>
      <path d="M91.74,89.5c-1.74,1-3.86,2.22-4.19,2.78.79,1.36,2.07,2.15,2.63,3.8a10.23,10.23,0,0,0,3.61-3A7.5,7.5,0,0,1,91.74,89.5Z"/>
    </g>
    <g class="burgerPatty">
      <polygon points="79.95 91 79.95 91 79.95 91.01 79.95 91"/>
      <path d="M84.88,87.87A32.67,32.67,0,0,1,80,91.05a20.49,20.49,0,0,0,2.93,4.39,54.48,54.48,0,0,0,4.65-3.16C85.87,90.79,86.4,89.22,84.88,87.87Z"/>
    </g>
    <path class="burgerLettuce" d="M80.64,92.28c1.28-.83,3.21-2.64,3.52-3.9C83,89.14,81.3,90.22,80,91.05,80.15,91.41,80.37,91.81,80.64,92.28Z"/>
    <g class="burgerBun">
      <path d="M80,91.05c1.58-1,3.8-2.34,4.91-3.18-1.73-1.62-1.92-4-3.16-5.25a8.11,8.11,0,0,0-3.39,1.26C77.77,85.24,78.54,88.2,80,91.05Z"/>
      <path d="M87.55,92.28c-1.44,1-3.16,2.3-4.65,3.16,1.48,1.63,3.12,2.67,4.65,2.36a11.29,11.29,0,0,0,2.63-1.72C89.62,94.43,88.34,93.64,87.55,92.28Z"/>
    </g>
  </g>
  <g class="eye">
    <circle class="sclera" cx="96.01" cy="60.73" r="5.57"/>
    <path class="irisDarkBrown" d="M94.22,64.51c-.37.06-1.55-1.31-1.87-3.2s.32-3.57.7-3.64A19.45,19.45,0,0,1,94.22,64.51Z"/>
    <path class="pupil" d="M93,62.56c-.3,0-.56-.51-.68-1.25s-.08-1.35.23-1.4A10.81,10.81,0,0,1,93,62.56Z"/>
  </g>
  <g class="skinEastAsian">
    <path d="M149.08,59.31c-4.61,10.37-3.54,17.36-.71,23.86-5.64,7.93-15.29,15.85-24.53,17.06-1.84-9.22-12-18.62-22.32-24.84"/>
    <path d="M84.82,107.76"/>
    <path d="M84.61,107.24c4,11.41,11.25,17.15,17.09,23.41C101.32,147.07,76.11,106.12,84.61,107.24Z"/>
    <path d="M74.27,79.91c2.64,1,3.88,1.53,4.06,4l-3,1.38c1.27,6.39,4.59,14,12.24,12.54,2,1.18,2.39,4.16-.49,6-1.51,1-1.06,3.34-3.75,5.37,3.86,10.58,12.33,18.9,18.16,27L92.19,159c-9.63-12.69-13.08-31.89-21-42.81-2.13-3.21-5.76-3.16-9.95-11-2.11-4-1.83-5.79-2.7-7.87-1.34-3.21-1.39-5.64,1.3-6.47-.57-3.42,3.41-4.86,4.19-3.58-.5-3.81,1.82-5.49,4.77-5.13C69.5,80,72.35,79.17,74.27,79.91Z"/>
    <path d="M168.43,212.48c-8.33-14.11-18.88-21.93-32.43-21.28A226.66,226.66,0,0,0,168.43,212.48Z"/>
    <path d="M129.29,82.27c-2,3.15-5,5.92-8.73,8.88-5,4-12.94,7.68-15.32,8.16-10.75,2.2-7.7-9.44-12.16-10.31a2.19,2.19,0,0,1,.86-3.3c-.8-.44-1.63-1.11-1.64-1.86a13.26,13.26,0,0,0,.7-4.38c-1.38-.16-6.49,3.2-6.12-2.51.2-3.2,4.92-12.85,2.35-16.68C84,52.44,87.5,41.41,85.63,31c22.26-35.31,88,9.7,54.31,33.68-1.69,3.09-3.85,6.57-7.64,3.72M93.61,64.08a20.53,20.53,0,0,1,5.11-3.6c-1.61-.43-3.64-1.27-6.2-1.83A6,6,0,0,0,93.61,64.08Z"/>
  </g>
  <g class="skinOverlapLine">
    <path d="M68.83,82.06c-.32,1.77-.22,5.68.56,6.78"/>
    <path d="M64.06,87.19a44.64,44.64,0,0,0,.57,4.68"/>
    <path d="M59.87,90.77c.25,1.45.75,2.92.89,4"/>
  </g>
  <g class="skinFoldLine">
    <path d="M75,82.76a12.2,12.2,0,0,1,.35,2.5,4,4,0,0,0,1.51-2.56"/>
    <path d="M133.37,54c1.5-9.89,12.42-4.36,7.55,5.72"/>
    <path d="M133.69,56.75c3.16,1.08-1.59,4.79.88,5.65,1.62.56.58-2.76,3.45-4.34,2.67-1.48.06-5.73-1.48-4.46"/>
  </g>
  <path class="shirtWhite" d="M175.21,217.26c-11.42-4.61-16-16.2-25.7-20.39-8.33-3.6-25-5.59-25.22-11.8-3.63-2.89-1.32-7.06,1.36-11.31-3.48-3.23-1.61-6.58-1.12-9.56-4.22-4.6,2-7.33-1-14,5-28.28,13.43-51.18,28.7-63.49C167,96.75,176.67,115,180.69,142.33c.12,1.87,2.31,3.95.25,5.59,2.25,10,2.3,22.55.25,37.65.49,1.24,1.74,3-.75,4.47a37.61,37.61,0,0,1-1.86,11.55c-.5,1.25.74,4-2.36,5.84C175.47,211.16,177.5,214.13,175.21,217.26Z"/>
  <g class="bennettSleeves">
    <path d="M118.86,109.6c-2.43,1.64-4.54,6.48-6,7.18-1.93.23-.79,3.64-2,4.74-1.8,4.6-5.51,5.41-6.33,10.82-1.3-.3-1.3-1.5-2.86-2.33a6.61,6.61,0,0,0-1.93,3.73,20.29,20.29,0,0,1,2.37,3.7C107.3,154.2,115.79,132.32,118.86,109.6Z"/>
    <path d="M152.24,86.67c-1.74-.88-2.44-3.39-3.82-4.14-3.72,2.43-5.95,5-10,8.38-10,3.48-17.57,7.54-16.37,13.7-1.3,1.72-4,3.26-3.19,5a14.83,14.83,0,0,0-2.11,4.6c-3.6,2.93-2.27,7.59-4.53,10-2.82.34-1,4.89-4.47,8.63-1.61,1.28-2.45,2.64-2.13,4.13a2.69,2.69,0,0,0-1.73,2.93,7,7,0,0,0-2.27-3.86c-5.69,8.41-9.54,16.59-9.46,24.25,5.58,5.85,9.76,7.17,13.19,6,10.86-3.7,22.33-20.75,32.06-36.21,15.59.26,22.25-22.55,13.72-36.39C149.29,90.67,150.56,88.64,152.24,86.67Z"/>
  </g>
  <path class="clothesDisplayLine" d="M29.43,316.54c-2.88-.31-8.58-1.26-11.81-3.08"/>
  <g class="clothesOverlapLine">
    <path d="M137.41,130.06c2.12-3.4,2.12-5.71,4.31-5.59"/>
    <path d="M124.63,189.27c3.38,4.94,1.31,11.38,4.17,12,1.9.43-.35-7.35-2.54-11"/>
    <path d="M124.63,189.27c-.84-1.07-2.76.48-2.71,2.32-24.94-4.44-60.65-6.15-69.17-4.68"/>
    <path d="M84,224.38c-5.26-2.55-10.21-1.45-14.89-6.41,1.47,1.65,1.19,5.05-1.19,5,4.07,2.6,3,20.62,4.4,35.05.45,4.48,5.29,11.19.37,14.59a5.92,5.92,0,0,1,1,6.34"/>
    <path d="M39.71,304.55a9.71,9.71,0,0,1-.86-2.74"/>
    <path d="M42.22,302.61a13,13,0,0,1-1.28-2.41"/>
    <path d="M44.59,300.2c-.56-.59-1.08-1.19-1.57-1.8"/>
    <path d="M46.45,297.75c-.43-.48-.84-1-1.24-1.46"/>
    <path d="M48.16,294.79l-1-.82"/>
    <path d="M49.64,291.3c1.32-2.88.94-6.42,2.06-8.3"/>
  </g>
  <g class="clothesFoldLine">
    <path d="M149.39,120.33c3-5.46,1.44-10.65,1-8.72-1.78,7.17-5.16,12.74-8.63,12.86"/>
    <path d="M122.05,104.61c5.67-6.63,16.56-7,16.69-8.76s-5.67-1-13.22,3.91"/>
    <path d="M143.18,90.28a12,12,0,0,0-4.76.63"/>
    <path d="M118.86,109.6a13.81,13.81,0,0,1,5.89-3.26"/>
    <path d="M116.75,114.2a9.21,9.21,0,0,1,3.56-1.52"/>
    <path d="M131.92,113.62a26.34,26.34,0,0,1-15.28,4.21"/>
    <path d="M114.74,120.32c2.78-.77,5.13-.21,2,1.72"/>
    <path d="M136.66,113c-3.79,5-23.28,13.39-24.94,13.1"/>
    <path d="M146.91,114.63c-13.39,16.3-27.38,28.27-39.76,20.45"/>
    <path d="M105.62,137c-.19,2,2.17,3.53,3.19,4.76,4.5,5.45,2.61,10.4-1.48,3.14"/>
    <path d="M98.26,157.83c1.26-6.82,3-13,5.63-18-.06,8.23,2.91,19.11-1.07,22.33"/>
    <path d="M97.79,150.48a23.43,23.43,0,0,0-2,9.84"/>
    <path d="M104.51,132.34a8.65,8.65,0,0,0,0,5.3"/>
    <path d="M139.44,137.72a40.72,40.72,0,0,0,17.4,8.23"/>
    <path d="M134.4,138.51c6.14,5.73,13.72,9.64,22.44,12.09"/>
    <path d="M178.23,145.42a37.63,37.63,0,0,1-11.82-.13"/>
    <path d="M180.94,147.92c-1.26.87-3.21,1.13-5.5,1.09"/>
    <path d="M130.68,149c1.72,6.91,17,17.77,27.63,20.85"/>
    <path d="M159.5,174.64A45.26,45.26,0,0,0,176,177.83"/>
    <path d="M123.54,150.16c5.14,13.33,26.34,19.38,26.93,20.77,1,2.33-10.51-1.68-11-2.48"/>
    <path d="M124.53,164.2c3.76,3.8,9.86,3.7,6.81,6.46"/>
    <path d="M125.65,173.76c11.4,4.34,31.24,10.84,7.7,8.83"/>
    <path d="M179.82,186.73a13.29,13.29,0,0,1-5.18-.26"/>
    <path d="M180.44,190a12.48,12.48,0,0,1-6.06-.65"/>
    <path d="M130.68,186.33c9.29,2.53,22.6,3.22,35.2,7.57"/>
    <path d="M163.09,196.56a42.51,42.51,0,0,1,12.62,7.17"/>
    <path d="M167.87,201.74c4.12,2.26,6.37,4.92,8.35,5.69"/>
    <path d="M167.94,189c-12.68-2.57-24.71-7.3-11.73-5.13"/>
    <path d="M166,182.65c-12.39-2.56-26.3-6.93-27.63-9.75-.92-1.92,9.38,3.59,18.1,4.47"/>
    <path d="M71.8,265c-1.65,7.12-8.52,4.17-16.22-.39"/>
    <path d="M89.53,263.77c-1.64,2.24-4.89,2.63-9.38,1.59"/>
    <path d="M92.22,273.45c-5.87,3.68-12.39-.93-15.18.9-1.11.95,3,1.38,6.37,1.19"/>
    <path d="M72.66,272.57c-1.9,1-4.12-.05-6.67.82"/>
    <path d="M49.22,268.34c5.33,2.43,10.49,1,10.49,3.86,0,1.51-5,.24-8.9-1.67"/>
    <path d="M70.93,281.52c-3.35-.26-8.32-6.77-10.82-4.63-1.38,1.18,3.82,1.83,7.87,4.13"/>
    <path d="M49.22,276.73c2.23,1,8.11-.79,5.17,1.83"/>
    <path d="M67.89,222.93c-5.71-3.68-17.08-4-8.65-.58"/>
    <path d="M44.05,210.59c5.88,1.67,11.45,4,12.09,4.92,1.38,2.08-7.48-2-10.74,1"/>
    <path d="M69.08,218c-5.71-6.91-13.58-20.58-14.53-19.39-.6.75,1.19,3,3.73,5.8"/>
    <path d="M67.11,217.74c-7.87-3.18-15.82-9.86-14.71-11.21.66-.8,4.05,3.95,10.49,8.43"/>
    <path d="M61.46,200.65c3.05,2.56,6.21,4.35,9.7,4.13"/>
    <path d="M73.15,209.79c-4.5-1.57-3.66,3.18,2.7,7.47"/>
    <path d="M121.92,191.59c1.81,3.43,2.29,7.79,1.4,13.11"/>
    <path d="M132.81,191.59a30.4,30.4,0,0,0,10.38,13.51"/>
    <path d="M128.71,189.9c4,5,3.75,12.81,8.84,20.13"/>
  </g>
  <g class="fryContainer">
    <path class="containerDarkest" d="M56.15,186.93l6.09-3a3.17,3.17,0,0,0,1.59-1.78,56.1,56.1,0,0,0,1.91-6.28l1.72-2.57C58.18,173.43,56,175.39,56.15,186.93Z"/>
    <g class="containerDark">
      <path d="M.25,177.23l2.1,2.5s2.12,4.79,2.87,6.21c.86,1.65,2.09,2.11,4.31,2.08l44.09-.66c2.22,0,3.44-.54,4.25-2.21a65.18,65.18,0,0,0,2.06-6.28l1.41-2.56Z"/>
      <path d="M61.34,176.31l1.5,2.67s1.62,5,2.21,6.48c.68,1.72,1.86,2.32,4.07,2.52l13.12,1.18c1.94.17,2.72-.5,3.09-1.53l1.32-3.75a1.48,1.48,0,0,1,2.78.26l.64,3.91c.17,1.08.92,1.9,2.76,2.06l20.2,1.82c2.22.2,3.48-.17,4.46-1.74.85-1.37,3.33-6,3.33-6l2.28-2.34Z"/>
    </g>
    <g class="containerLight">
      <polygon points="67.46 173.29 14.51 174.09 0.25 177.23 61.34 176.31 67.46 173.29"/>
      <polygon points="67.46 173.29 61.34 176.31 123.25 181.88 120.47 178.07 67.46 173.29"/>
    </g>
    <g class="containerMedium">
      <polygon points="14.51 174.09 0.25 177.23 15.33 177 14.51 174.09"/>
      <polygon points="120.47 178.07 118.89 181.49 123.25 181.88 120.47 178.07"/>
      <polygon points="67.46 173.29 68.42 176.94 61.34 176.31 67.46 173.29"/>
    </g>
    <g class="containerCreaseLine">
      <polyline points="62.14 177.73 59.93 178.87 2.35 179.73"/>
      <line x1="62.84" y1="178.98" x2="120.82" y2="184.21"/>
    </g>
    <polygon class="fryDarkest" points="66.09 176.74 66.14 174.96 67.98 175.01 72.88 172.29 74.26 173.56 78.06 173 78.78 174.01 80.44 173.4 82.14 176.31 85.28 176.31 85.45 178.48 66.09 176.74"/>
    <polygon class="fryDarker" points="69.08 177.01 67.5 174.15 68.87 173.41 70.99 177.18 69.08 177.01"/>
    <g class="fryLight">
      <polygon points="76.36 172.98 75.02 172.91 70.15 177.1 71.45 177.22 76.36 172.98"/>
      <path d="M80,174.26,78.64,174a10.84,10.84,0,0,0-4,3.5Z"/>
      <polygon points="79.56 177.95 81.99 173.44 84.44 173.72 82.18 178.19 79.56 177.95"/>
    </g>
    <g class="fryDark">
      <polygon points="71.45 177.22 76.36 172.98 77.8 174.8 74.63 177.51 71.45 177.22"/>
      <polygon points="74.63 177.51 79.98 174.26 81.13 176.34 78.55 177.86 74.63 177.51"/>
      <polygon points="84.44 173.72 85.01 175.35 83.6 178.31 82.18 178.19 84.44 173.72"/>
    </g>
    <g class="fryMedium">
      <polygon points="72.43 175.14 70.73 172.23 68.87 173.41 70.69 176.64 72.43 175.14"/>
      <polygon points="82.09 178.18 79.93 176.15 77.94 177.8 82.09 178.18"/>
    </g>
  </g>
  <path class="lipMaleMedium__noStroke" d="M96.61,85c-1.86-.76-2.68-.14-4.31-1.2,0,.75.84,1.42,1.64,1.86a2.19,2.19,0,0,0-.86,3.3C95.6,87.73,95.51,86.3,96.61,85Z"/>
  <path class="lipBorderLine" d="M93.94,85.7A8.58,8.58,0,0,1,96.61,85"/>
  <path class="lipEdgeLine" d="M93.08,89a10.41,10.41,0,0,0,2.06-1.66"/>
  <path class="cheekLine" d="M98.39,89.36c-1-1-2.44-5-2-8.34"/>
  <path class="noseLine" d="M91.19,79c2.06-.55,3.8.32,4.72-.24a2.29,2.29,0,0,0-.14-3.91"/>
  <g class="eyeLidLine">
    <path d="M92.52,58.65c-2-.37-1-2.66-1-2.66"/>
    <path d="M93.61,64.08c-.75.8-.32,1.63.43,2.1"/>
  </g>
  <path class="eyeCornerLine" d="M98.72,60.48a6.16,6.16,0,0,0,1.67.18"/>
  <path class="eyebrowBlack" d="M89.38,52.56c2.71,4,6.88-.21,11.94,2.09C97,49.93,93.39,53.3,89.38,52.56Z"/>
  <path class="hairBlack" d="M82.87,32.64c-1.31,1.4-2.49,3.75-4.24,4.82,3-5.79,1.68-16.54,20.91-26.29,6.82-3.46,22.17-6.92,33-5.12C131.41,3.46,129.3,1.79,125,.29c4.95-.33,8.38,1.53,10.88,6.11,2.19-4.58,7.45-5.87,11.22-2-3.8-1.85-7.85-.64-8.66,3.05,19.69,9.05,30.31,39,9.56,60.41-3.18-.11-5.43-1.27-8-3.13,3.45-4.86,6.46-9.81,2.8-15.56-2.69-4.23-10.62-3.42-11.9,3a38.72,38.72,0,0,1-9.74,2.34c-1.68-5.07-.37-3.94-5.37-7.57-6.51-.11-14.49,3.47-19.09-1.14a49,49,0,0,1,2.88,4.55C91.55,45.39,79.5,48.77,82.87,32.64Z"/>
  <path class="hairOverlapLine" d="M115.73,46.93c1.34-.23,3.34.54,4.92.92-2-1.53-4.85-3.73-6.7-4"/>
</svg>
