<svg viewBox="0 0 184.57 443.93">
  <g class="bennettUnderwearInner">
    <path d="M55.78,249c-2.41-.21-4.19-4.6-4.26-7.48C58,243,63.41,247.79,55.78,249Z"/>
    <path d="M76.26,263.64c-.59,1.88,1,4.22,3.68,5.68C85.17,260.61,81.84,257.79,76.26,263.64Z"/>
  </g>
  <path class="bennettUndershirt" d="M112.12,86.1c16.2,9,30.76,8.31,37.67,17.42,9.1,9.57,7.9,15.6,14.12,21.18,3.41,3.06,1.65,4.29,1.1,5.18-4.48,7.27-11.95,13.71-19.19,14.94.55,1.8.72,2.85.2,3.74-.53,8.31.41,20.63-3.4,26.7-2.72,16.44,2.36,10.46-1.72,15-.36,3.48,1.33,7-1.1,8.79,2,2.83-.79,6.95.31,12.24a85.07,85.07,0,0,0-21.17-4.37c-21,3.9-42,1.21-54.18-5.07a29,29,0,0,0,1.43-9.55c-2.74-1.42.24-3.61,0-6.59C62.94,181.4,70,168,68.78,139.93c-.37,2.18-1.31,1.54-2,2.86-1.24,2.34-1.76,3.36-3.5,3.41-12-7.48-8.2-24-2.84-41.9C75.49,101.79,79.63,87.2,112.12,86.1Z"/>
  <path class="bennettWaistband" d="M139.71,228.78c-.86-5.93.94-6.21.24-11.48-15.27-13.32-25.46-9.93-36.5-11.93C88.68,202.69,80.57,203.44,69,202,68.88,212.7,102.65,221.78,139.71,228.78Z"/>
  <path class="bennettUnderwear" d="M52.73,197.32c3.51,1,7,1.7,9.71,3.67,1.2-2.23,6.37.25,7.79,2.9,1.49-1.31,4.64.49,5.65,2.12,2.91.45,6.75,4.29,14.61,4.75,14.26.81,35.31,6.11,40.44,10.34,2.61,2.15,4.92,1.2,8.78,7.68,2.31,16.59-14,45.83-23.87,51.94,2.83-2.93,4.46-6.73,5.64-9.25l-8.1,6.65c-8.47-9.5-33.81-18.4-37.12-14.48.29-1.29-.88-6.77-4.16-9.79-3.84-3.44-9.48-3.4-16.32-4.89C63.52,247.86,67.93,202.41,52.73,197.32Z"/>
  <g class="clothesDisplayLine">
    <path d="M90.49,210.76c-5.68,4.59-3.88,8.32-6.65,13.56-6.68,12.64-7.46,18.44-9.08,24.33"/>
  </g>
  <g class="clothesOverlapLine">
    <path d="M145.82,144.82c-3.39.89-4.52-5.52-6.72-10.14"/>
    <path d="M68.48,125.32c-.66,5.17-.22,9.14.3,14.61"/>
  </g>
  <g class="clothesFoldLine">
    <path d="M147.35,117.84c2.12,6.24,3.58,12.39,2.86,18.27"/>
    <path d="M138.11,120.48a64.1,64.1,0,0,0,1,14.2c-4.74-3.48-9.84-7.51-10.24-4.19"/>
    <path d="M136.57,114.87c-2.08,7.51-1.61,14.23,2.53,19.81"/>
    <path d="M128.86,122.79c2.1,4.62,7.47,9,4.08,1.21"/>
    <path d="M146,148.56c-3.33,4.86-9.56,8.62-18,11.53"/>
    <path d="M140.75,150.52c-2,2.37-5.53,4.37-10.24,6"/>
    <path d="M144.79,159.44c-.41,4.95-2.43,9.93-5.26,12.41"/>
    <path d="M132.76,177.35c-10.29,8.2-23.66,12.86-39.83,14.3"/>
    <path d="M142.62,175.26c-10.73,12-33.63,18.15-52.44,18.37"/>
    <path d="M108.29,135.45a185.4,185.4,0,0,1-24,2.42"/>
    <path d="M117.86,139c-9.57.55-17.26,1.33-23.33.88"/>
    <path d="M113.39,165.46a68,68,0,0,1-25.52,3.41"/>
    <path d="M99.53,170.86c-9,1-17.32,1.27-24-.44"/>
    <path d="M69.49,183.58a27.44,27.44,0,0,0,7.7,1.76"/>
    <path d="M66.19,185.68a27,27,0,0,0,8.47,2.19"/>
    <path d="M70.81,190.73a64.63,64.63,0,0,0,15.41,3"/>
    <path d="M66.19,192.27c6.45,3.3,17.28,4.59,29.16,5.39"/>
    <path d="M135.07,190.84a59.91,59.91,0,0,1-23.55,6.71"/>
    <path d="M140.9,190.23c-6.71,5.56-16.5,6.44-17.38,8.42-.78,1.76,8.25,2.53,14.63-1.87"/>
    <path d="M131.33,202.83c-7.92.33-12-3-21.68-1.54"/>
    <path d="M63.09,130.05c3.45,2.87,5.31,9.38,3.68,12.74"/>
    <path d="M64.41,111.79c-1.13,6.26,1.22,11.84,3.75,18.17"/>
    <path d="M69.34,107.39c-1.39,7.13-2.68,13.86-.86,17.93,1.4-4.6,5.81-7.41,10.87-9.57"/>
    <path d="M66.1,114.4c-.33,3.07,0,5.38,1.52,6.75"/>
    <path d="M77.48,101.45c-4.84,3.52-6.49,22.33-7.37,14"/>
    <path d="M80.23,110.8c-4.07,2.09-8.69,9.68-6.16,3"/>
    <path d="M97.73,229.3c10.34,6.67,20.82,8.24,27.92,16.49"/>
    <path d="M118.94,243.34c4.94,3.52,8.53,7.74,9.81,13.16"/>
    <path d="M114.81,222.32c5.26,1.17,10,3.12,13.81,6.7"/>
    <path d="M123.07,228.25a24.63,24.63,0,0,1,9.55,9"/>
    <path d="M75.88,206c2.14,2.44,1.31,3.45,5.91,7.69"/>
    <path d="M70.23,203.89c1.77,2.53,2.85,4.57,3.07,6"/>
    <path d="M62.44,201c7.16,1.27,11.65,17,12,24"/>
    <path d="M88.28,235.4c4.6,2.17,11.22,6.15,13.51,9.23"/>
    <path d="M75.11,228.51c5.32,5.68,9.91,5.92,16.87,12.38"/>
    <path d="M66.34,243.66c2.32-3.74,4.77-.65,5.29,4.38"/>
    <path d="M83.29,249.35c.57,3.27,5,5.8,5.67,7.61"/>
    <path d="M131.85,221.75a12,12,0,0,1,0,4.89"/>
    <path d="M134,222.83a22.29,22.29,0,0,1,0,6.19"/>
    <path d="M114.34,215.12c-1,1.37-1.35,3.47-2.3,4.71"/>
    <path d="M116.67,215.57a5,5,0,0,0-1.33,2.52"/>
    <line x1="102.99" y1="214.12" x2="108.97" y2="217.8"/>
    <path d="M80.37,209.63c3.55,4.61,13,9,15.63,11"/>
    <path d="M69.9,224.53c-1.59,12.46,9.85,21.14,2.2,29.32"/>
  </g>
  <g class="eye">
    <circle class="sclera" cx="75.11" cy="60.5" r="18.24"/>
    <g class="irisDarkBrown">
      <ellipse cx="82.42" cy="60.72" rx="2.99" ry="3.3" transform="translate(-5.81 8.8) rotate(-5.9)"/>
      <ellipse cx="61.58" cy="62.87" rx="2.99" ry="3.3" transform="translate(-6.14 6.67) rotate(-5.9)"/>
    </g>
    <g class="pupil">
      <ellipse cx="82.05" cy="60.91" rx="1.16" ry="1.28" transform="translate(-5.83 8.76) rotate(-5.9)"/>
      <ellipse cx="61.22" cy="63.07" rx="1.16" ry="1.28" transform="translate(-6.16 6.63) rotate(-5.9)"/>
    </g>
  </g>
  <g class="skinEastAsian">
    <path d="M111.6,63.68c-1.59,11.75.62,18.69,3.46,24.16,6.64,20.42-39.14,25.18-31.65,3.74"/>
    <path d="M140,217.3l-.64-6.31a85.94,85.94,0,0,0-20.37-4.1C124.42,207.4,132.16,210.37,140,217.3Z"/>
    <path d="M172.13,222.14c6.12-20.25,15.31-39.14,10.72-58.54-1.11-5.53-11.51-23.21-18.25-33.06-4.52,7-11.75,13.09-18.78,14.28h0c4,5.41,12.34,17.65,15.76,23.55-3.7,10.32,1.87,30.12-3.75,49.18-4,2.88-7.13,9.32-12.32,11.44-4.55,1.55-2,5.51-3.91,9.92,2.94,2.39,7.54-1.29,7.07-5.23a9.94,9.94,0,0,0,6,3c-2.12,5.88.29,8.39,3.82,7.29.43-2.22,1.45-3.69,1.56-5.49a9.48,9.48,0,0,0,2.61,1.1,7.28,7.28,0,0,0-.09,2.76c-2.09,5.94-.07,9.06,3.88,8.15.26-3,2-5.5,1.93-9.73a12.37,12.37,0,0,0,3.37.25c-2.3,4.5-.94,7.83,2.65,7.34.95-2.41,3.25-4.59,2.85-8.05,3.82-2.14-.17,7.27,7,4.84-.78-2.74.13-6-1.94-8.41-1.94-2.26-4.08-3.32-6.42-3.16C172.26,228.51,171.82,223.75,172.13,222.14Z"/>
    <path d="M121.48,271.47l-8.1,6.65c-6.68-7.49-23.84-14.61-32.43-15.36-8,17.67-18.73,48.57-19.39,54.17-9.07,31-.82,60.92-14.51,83-6.13,8-12.2,17-19.77,21.6-3.23,1.18-3.44,3.22-8.6,2.68-6.87,3.76-1.07,11,6.13,9.46a8.9,8.9,0,0,0-1,3.39c-.12,2.86,3.34,4.65,5.25,2.3-.09,1.94,3,3.66,5.28,2.47.32,1.94,4.73,2.58,6,.65,5.69,2.25,5.91-2.58,9-5.91,3.12-1.51,6-5.7,11.6-8.64,10.1-4.58,5.05-12.85,6.13-23.59,1.61-4.73.86-11.29,3.11-15.8,8.14-23.59,20-44.42,20.35-69C90.74,310.78,106.48,292,118,278A46.07,46.07,0,0,0,121.48,271.47Z"/>
    <path d="M37.32,291.39c.1-3.83-.59-8.77-.78-11.69C35.26,260.22,39.85,245,40,232.28c5.77,5.79,10.26,10.12,18.44,14.52C64,238,66,204.27,54.1,197.92c-13-5.08-24.33-9.28-32.49-9.66C4,188.72,4.34,206,7.08,223.62c2.69,17.3,7.85,34.44,11.57,55.59,2,19-3.74,21.52-8.45,30.86-4.4,8.71-11.4,6.68-8.65,12.78-1.41,2.26-1.86,4.46-.4,5.5.2,1.47,1.57,2,2.95,2.16-.29,3.15,3.74,3.05,4.72,1.28,2.41,3.25,5.88,2.89,9.73,1.28,10.62-.59,8.16-15.16,18.77-19.28C47.06,310,37.11,299.94,37.32,291.39Z"/>
    <path d="M105.72,82.63a32.53,32.53,0,0,1-11.7,10c-9,4.86-8.51,5.82-16.38,5.86-5.57,0-8-4.06-12-7.7-11.12-10-7.79-24.36-10.17-30-4.23-10.1,3.29-11.89-1.05-25.41,20-25.89,71.33-4.48,68.32,18.57.74,7.78-4.67,10.71-5.45,13.65-.6,2.28-4.39,4.37-6.87,2M79.3,60.93c5.26,2.31,10,.17,12-2.72-1.88-.89-4.84-2.48-7.51-2.15a6.53,6.53,0,0,0-5.32,4.1C78.13,61.17,78.94,60.77,79.3,60.93Zm-11.46.52a4.49,4.49,0,0,0-4.9-2c-1.25.17-3.11,1.49-3.82,1.9a3.29,3.29,0,0,0,.46,2.33c3.77,1.62,6.72-1.52,7.66-1.5C67.89,62.22,68.16,61.84,67.84,61.45Z"/>
    <path d="M63,111.19c-1.6,9.52-1.85,16.15-2.44,24.26a7.22,7.22,0,0,1,5.08,7.87c-4.42,13.1-3.74,28.38-21.59,30.76-7.65,1-8-9.22-8.51-14.12C33.69,144,46,135.42,49.89,110.38c1.28-4.4-4-13.35-.43-20.17,2.24-5.59,4.39-10,6.68-11.08C65.66,74.72,66.79,81,71.2,82.54c.66,1.25-.74,2.61-2.43,2.49,1.75.25,3.63,1.13,3.7,3.13,1.68.52,3.44,5,1.5,6.46-2.19,1.51-1.63,2.76-3.51,2.95C69.27,108.54,63.53,107.71,63,111.19Z"/>
  </g>
  <g class="skinDisplayLine">
    <path d="M15.05,328.39c-.56-1.45-3.43-1.84-5-1.75"/>
    <path d="M7,330.51a2.74,2.74,0,0,0-2.31,0"/>
    <path d="M18.68,424.24c1.91.61,5.15,1.74,5.52,3.69"/>
    <path d="M34.06,439.39a5.77,5.77,0,0,1-3.57-.93"/>
    <path d="M28.14,437.43a4.55,4.55,0,0,1-3.33-.74"/>
  </g>
  <g class="skinOverlapLine">
    <path d="M60.53,135.45c-1,8.75,1.65,19.76-5.42,29"/>
    <path d="M61.81,88.26a16.86,16.86,0,0,1,7-3.23c-1.53-4.81-5.85-3.81-11.59,1.72"/>
    <path d="M66.44,90.58c1.51-1.51,4.75-3.31,6-2.42"/>
    <path d="M71.4,93.92a6,6,0,0,0-.94,3.65"/>
    <path d="M156.19,227.93c1.95.13,3.94.47,4.72,1.74,1.06,1.71-.33,4.57-.89,8.82"/>
    <path d="M164,231.48c6.17-.27,4.83,4.47,4.38,9.29"/>
    <path d="M171.62,232.82c4.42.67,6.1,1.54,5.6,7.49"/>
    <path d="M170.65,237.47c1.86.29.64,1,1.07,3.55"/>
    <path d="M161.59,236.59c1.73-.19,1,1.28,1,3"/>
    <path d="M150.5,233.24a5.89,5.89,0,0,0,4.24.42c1.44-.63,0,1.13-.1,3"/>
    <path d="M40,232.28c-.12-7.84-1.49-15.87-5.84-21.84"/>
    <path d="M42.66,435.64c-1.46,2.54-1.13,5.54-2.27,6.87"/>
    <path d="M37.66,433.8c-1.88,2-1.64,5.28-3.29,8.06"/>
    <path d="M32.58,432c-2.61,2.77-2.15,5.08-3.49,7.36"/>
    <path d="M28.27,428.87c-1.15,1.77-2.92,3-3.46,4.83"/>
    <path d="M1.55,322.85a7.64,7.64,0,0,1,3.09-3.07"/>
    <path d="M1.15,328.35c-.51-3.44,3.64-5,5.8-6.49"/>
    <path d="M4.1,330.51c-.08-5.11,4.23-5.18,4.77-6.65"/>
    <path d="M8.82,331.79c-2.8-6,3.67-5.23,5.67-6.62"/>
    <path d="M18.55,333.07a3.15,3.15,0,0,0,1.26-2.22"/>
  </g>
  <g class="skinFoldLine">
    <path d="M161.58,168.37a18,18,0,0,1,8-5.78"/>
    <path d="M59.17,83.1a2.06,2.06,0,0,0,1.7.59"/>
    <path d="M113.28,55.28c1.66-10.33,11.47-2,5.56,6.17"/>
    <path d="M113.34,58.08c2.6,2-1.69,4.8.06,5.75,1.22.66,1.3-2.18,3-3.51,2.32-1.85,2.42-6.82-1.06-5.25"/>
  </g>
  <path class="lipMaleMedium__noStroke" d="M77,81.73a4.44,4.44,0,0,1-3.74-.11c-.75.58-2,.23-3.3.31a6.67,6.67,0,0,0,1.26.61,1.54,1.54,0,0,1-.63,2,11.35,11.35,0,0,0,1,1.64,2.89,2.89,0,0,1,.48.56A4.5,4.5,0,0,0,75.88,88c5.94-.5,5.46-4.72,10.59-5.75C82.8,81.29,78.7,82.8,77,81.73Z"/>
  <path class="lipBorderLine" d="M86.47,82.27c-5.11-.5-9.49,2-10.94,2-1,0-2.66-.86-4.22-1.46"/>
  <g class="lipEdgeLine">
    <path d="M77,81.73a4.44,4.44,0,0,1-3.74-.11"/>
    <path d="M81.51,85.41c-2.7,2.44-6.53,3.76-9.46,1.33"/>
  </g>
  <g class="cheekLine">
    <path d="M67.58,75.75A6.81,6.81,0,0,0,66.15,79"/>
    <path d="M80.85,71.62c1.18.48,1.56,1.77,4,3.64a12.19,12.19,0,0,1,3.47,4.66"/>
  </g>
  <g class="noseLine">
    <path d="M69.26,69.87c-.37,3.16-3.57,4.59-.43,7.71"/>
    <path d="M80.85,71.62c1.11.6,1.61,3.5,0,4.58"/>
    <path d="M78.86,75.91c-3.86.5-3.08,2-6,2.27-2.36.21-2.7-1.07-3.63-1.24"/>
  </g>
  <g class="eyeFoldLine">
    <path d="M89.15,63a7.47,7.47,0,0,1-6.57,1.21"/>
    <path d="M66.67,64.94c-1.77,1.56-5.31,1.87-7.06.73"/>
  </g>
  <g class="eyeCornerLine">
    <path d="M92.22,58.57q-.45-.16-.87-.36"/>
    <path d="M59.12,61.38a4.2,4.2,0,0,1-1.21.54"/>
    <path d="M59.58,63.71a5.85,5.85,0,0,0-1.28-.4"/>
  </g>
  <path class="eyeCreaseLine" d="M61.77,59.86c1.94-1,3-1.73,5.17-.46"/>
  <g class="eyebrowBlack">
    <path d="M75,52.25c4.23,4,8.94-2.87,18.17,1.49C86.1,46.6,79.85,52.56,75,52.25Z"/>
    <path d="M54.35,57.17a14,14,0,0,0,.33,1.4c5.79-3.52,10.56-.12,12.57-3.75C62.62,55.94,58,53.23,54.35,57.17Z"/>
  </g>
  <path class="hairBlack" d="M84.33,46a9.92,9.92,0,0,1,4.08,3.55c-6-2.45-17.11,2.42-23.1-2.64a14.84,14.84,0,0,0,3.21,4.16C61.25,49.7,58.7,44.59,57.63,38A20.42,20.42,0,0,1,51.2,55.74c2-5.62-4.89-10-.42-20.07a7.68,7.68,0,0,1-5.3,1.94c6.28-5.11,7.71-20.9,20.42-26.49-.66-1.69-3-2.95-4.6-2.28,1.94-2.22,5.37-1.33,7.36.76-.11-3.41,2.55-7.13,7.22-8.82-2.57,2-4.49,5.22-3.95,7.81C81.93,5.05,98,4,110.33,11.83c15.8,10,15.89,35.41,12.4,42.09-.48-7-9.61-9.33-11.45-1a20.74,20.74,0,0,1-5.7,1.85c-.22-4.68.08-5-4.5-8.36C94.89,45.41,91.16,49.36,84.33,46Z"/>
  <path class="hairOverlapLine" d="M102.13,43.82c2.92,1.13,3.67,2.77,4.82,3.74-1-.06-4.42-1.14-5.87-1.14"/>
  <g class="ghostTail">
    <path d="M55.9,364.08c50.55,2.57,62-46.38,45.89-65.76C96.27,306,90.85,313.84,90.6,319.57,88.3,336.4,75,344.4,57,344.71,46.17,346.37,44.43,363.5,55.9,364.08Z"/>
    <path d="M77.92,368.52c3.25,5.27,2.5,10.15,1.28,14.27a11.67,11.67,0,0,0-5.38-3.91Z"/>
    <path d="M76.63,272.92A361.5,361.5,0,0,0,39.46,240c-1,8.2-2,14.1-2.68,22.24-16.27-.16-24.3-10-26.89-23.79-11.76,3.71-12.74,19.85-2.51,29.67,9.73,9.34,27.42,17.19,41.49,4.76,2.44,1.93,12.65,11.17,20.47,19.19C71.58,285.77,74.05,279.39,76.63,272.92Z"/>
  </g>
  <path class="ghostOverlapLine" d="M48.87,272.89a126.62,126.62,0,0,0-12.09-10.64"/>
</svg>
