<svg viewBox="0 0 184.97 453">
  <g class="soleWhite">
    <path d="M73.28,439.29c.55,1.86.73,5.15,0,6s-2.55,1-3.85,3.57c-3,6-26.43,4.08-27.37,1-1.33-4.2-.09-9.29,2.49-10.92C54.24,431.14,64.6,432.41,73.28,439.29Z"/>
    <path d="M155.67,433.41c2.08.6,13.28,1.66,11.5,11.88-3.21,3.11-18.54,6.31-31.21,2.37-4.78-1.49-19.66.3-23.85-4.31-1.16-2.2-.81-3.8-.56-6.39C126,432,144,429.56,155.67,433.41Z"/>
  </g>
  <g class="bennettShoe">
    <path d="M70.2,411.68c-.47,11.46,2.47,16.59,3.08,27.61-.6,1.2-1.58,1.82-3.55,2.92-1.51.84-.92,2.24-2.55,2.75-1.22-10.74-19.58-8-22.59-6,5.28-8.69,4.82-15.73,7.07-29C57.56,406.36,63.48,407,70.2,411.68Z"/>
    <path d="M134.81,405.09c-1.28,9.85,3.29,14.59,6.54,18.68,3.89,4.9,9.49,7.61,14.32,9.64-5.32.1-11.77,4.43-11.77,9.62-5.12-.26-12.24-1.65-17.41-1.83-4.84-.17-13.34-1.46-14.94-4.24-1.29-5.84,6.2-18.23,4.57-28.63C120.52,404.39,128.93,402.12,134.81,405.09Z"/>
  </g>
  <g class="shoelace">
    <path d="M63.43,420.86a24,24,0,0,0-12-.17c-.39,5-.71,9.57-2.33,13.22a26.69,26.69,0,0,1,13.68.17C63.53,429.66,64.1,424.93,63.43,420.86Z"/>
    <path d="M141.35,423.77a42.8,42.8,0,0,1-4.43-6.12,20.22,20.22,0,0,0-6.47,1.3c2.81,7.63,4,10,10.37,14.36a72.32,72.32,0,0,1,9.31-2.5A28,28,0,0,1,141.35,423.77Z"/>
  </g>
  <g class="converseLogo">
    <path d="M70.13,436c-2.34.49-3.33-10.7-1.19-11.44C70.54,424,72.4,435.49,70.13,436Z"/>
    <path d="M122.48,435.84c5.46.67,6.43-10.63.56-11.5C117.55,423.52,116.64,435.13,122.48,435.84Z"/>
  </g>
  <path class="bennettJeans" d="M126.33,214.77c1.5,5.77,4,10.86,2.78,15.92,7.77,28.81,5.17,78.8,6.79,87.25,2,10.21-1.3,8.28-1,13.65,2.93,4.44-2.12,9.72-.17,31.5,2.12,12.84-.31,18.67.33,25.51.45,4.87,4,9.39-.49,11.87,5.24,3.6.81,8,.53,12.6.12-5.45-7.52-3.82-6.12,1.09-2.93,2.45-8.71,1.1-13.33,3.49a12.1,12.1,0,0,0-2.7-6.29c-8.82-2.58-9-10.73-4.3-13.82-5.36-3.9-3.39-8.29-3.9-11.7-3-19.69-1.44-38.23-3.74-48.89-1.79-5.36,3.57-8,.16-13.33-2.48-3.89.47-6.92-.48-10.07-6-19.84-5.11-46.94-10.65-51-4.34,2.69-4.72,12.26-5.91,23.08,2.6,8.45-5,13.09-4.23,37.14.49,15.28-3.09,10.24-3.41,16.74,2.9,7.62-1,12.26-.65,19.15.42,8.45-2.32,18.18-.65,27.11,1.11,5.95-.32,11.93,1.46,16.45,3.92,10-6.56,6-6.77,19.48-2.35-3-4.84-.73-6.17-3.45.51-4.38-11.4-5.73-12.09.18a1.87,1.87,0,0,1-2.88-1.86c1-7.86-4.55-11-1.13-16,2.92-4.32-5.13,2.53-2.72-22.05,1.16-11.82-.59-22.49.54-33.59.93-9-2.4-11.63-1.47-22.88,2-25.08-3-69.48,4.24-109.34Z"/>
  <path class="bennettSleeves" d="M44.32,139.28l79.09,15c1.69,2.75,2.06,7.85,4.35,8.92.87,4.86,3.85,4.47,5.47,6.48,2.7,3.35,4.82,5.88,9.34,6.85,5.57,1.18,9.08-4.68,13.45-8.68,1.5-1.37,4.24-2.54,5-8,.88-6.35-13.32-21.91-20.66-21.29.37-6-2.09-5.54-4-11.08s.12-7.58-3.61-11.08c-2.52-2.37-2.13-7.34-4.85-8.71.45-5.81-3.84-7.29-6.85-10.09-3.48-3.23-16.06-3.48-22-7.09H67.76c-9,3.36-31,13.57-33.49,19.92-.92,2.34-4.44,2-3.24,5.47-.62,4.86-6.21,4.54-6,8C21,129.73,17,132,13.6,135.83c-2.6,2.95-3.16,7.45-6.22,9-3.68,1.82-2.23,3.17-3.86,5.6-2.76,4.1-5.35,7-.75,18,2.74,6.58,25.83,2.61,26-5.1,0-1.3-.47-2.62-2.36-4,2.86-1.87-1.75-2.86,4-6.85,5.48.75,2.49-4.35,6.85-9.58A18.39,18.39,0,0,0,44.32,139.28Z"/>
  <path class="shirtWhite" d="M105.19,101.84c6.21,4.73,13.77,8.74,17.46,17.66a231.77,231.77,0,0,1,2,40.61c-.09,2.8,4,4.45-.35,7.51,1.89.83.94,8.63.94,13.71,0,2.83,3.31,3.89-.24,8.47-.82,15.86,6.27,13.61,1.53,19.94a15.1,15.1,0,0,1,1.17,7.16c-9.9,2.22-14.66,15.36-39.19,14.15-15-.74-29.88-5.2-41.77-14.38,6.69-21.41.29-21.13,3.26-30.4-.87-3.74-1.28-7.23-.7-10.17-2.83-5.52.71-11.66-1.42-20-2.6-4.37-.71-8.86-1.8-10.07a11,11,0,0,1-1.74-6.7C48,136.66,54.1,126,59.44,118.85c1.41-1.89,3.41-.64,4.83-4.3a46.6,46.6,0,0,1,5.8-8C79.16,112.24,99.24,110.35,105.19,101.84Z"/>
  <g class="clothesDisplayLine">
    <path d="M68.08,228A40.33,40.33,0,0,1,52,232.23"/>
    <path d="M111.65,226.8c2,3.27,6.91,3.74,12.87,3.1"/>
    <path d="M87.62,231.45c-.16,2.79,2.45,6.15,1.08,10.24-1.55,4.65,1.89,11.95-.46,18.3"/>
    <path d="M95.53,231.3c2.79,7-.22,10.3.79,15.38s-3.44,7.41-7.22,8.5"/>
    <path d="M67.18,445c-6.28,1.85-21.77,1.93-25.42-1"/>
    <path d="M143.9,443c7.18,1.27,18.44-1.44,22.32-4.41"/>
  </g>
  <g class="clothesOverlapLine">
    <path d="M63.74,418.29a4.07,4.07,0,0,0-.31,2.57"/>
    <path d="M63.15,431.7A35.2,35.2,0,0,0,50,431.32"/>
    <path d="M63.45,429.36a36.18,36.18,0,0,0-12.91-.47"/>
    <path d="M63.64,427.23a38,38,0,0,0-12.77-.5"/>
    <path d="M63.73,424.94a31.54,31.54,0,0,0-12.64-.26"/>
    <path d="M63.64,422.65a33.48,33.48,0,0,0-12.38.16"/>
    <path d="M131.51,421.74c2.39-.73,5.25-1.66,7-1.54"/>
    <path d="M132.59,424.3a26.08,26.08,0,0,1,7.76-1.77"/>
    <path d="M133.9,426.74a23.85,23.85,0,0,1,8.31-1.94"/>
    <path d="M135.55,428.92a26.48,26.48,0,0,1,8.57-2.23"/>
    <path d="M137.91,431.14a20.82,20.82,0,0,1,8.84-2.4"/>
    <path d="M129,414.16c.79,1,.74,3.26,1.44,4.79"/>
    <path d="M51.42,420.69a3.35,3.35,0,0,1,.23-2.22"/>
  </g>
  <g class="clothesFoldLine">
    <path d="M26.43,159.36c-6-1.92-26.72-3.23-20.65,1.16"/>
    <path d="M23.81,157.44C19.41,153.53,5.22,152,12,155.1"/>
    <path d="M27.44,157.44c-2.14-4.11-16.24-9.06-19.88-8"/>
    <path d="M14,138.29c2-1.82,10.27,5.23,14.48,11.3"/>
    <path d="M25.06,123.88c1.92,8.44,7,20,5.84,23.57"/>
    <path d="M28.76,125c8.4,9.25,20.92,11.21,2.27-9.12"/>
    <path d="M31.84,136c-.94-5,2.27-2.47,4.11-2,1.68.46,6.63-.84,1.77,3.17"/>
    <path d="M47.25,131.29c-2.84-1.4-4.48,7.47-10,11.64"/>
    <path d="M43.7,116.72c7.84,2.06.84-2.8-2.24-7.28"/>
    <path d="M38.19,120.46c-4.95-7.66.08-2.27,5.7-.28,5,1.75,8.65,1.39,5,5.23"/>
    <path d="M54.25,111.3a71.49,71.49,0,0,0,21,5"/>
    <path d="M86.1,119.52a85,85,0,0,1-21.67-2.15"/>
    <path d="M46.22,140.25c2.05,4.38,6.05,7.73,11.39,10.37"/>
    <path d="M46.06,146a41.85,41.85,0,0,0,18.56,11.46"/>
    <path d="M49.68,153.61c4.59,7.8,10.47,13.95,17.93,18"/>
    <path d="M47.86,156.05a57.94,57.94,0,0,0,28.43,24.83"/>
    <path d="M49.28,176.1c2.26,5.34,5.44,11.13,8.89,13.84"/>
    <path d="M53.88,177.8a52,52,0,0,0,24,25.68"/>
    <path d="M56,194.42c3.08,7.1,14.56,18.4,22.88,20.92"/>
    <path d="M50,186.27c3.74,17,20.61,33.08,42.28,37.85,4.59,1,.5,3-4.11,3.36"/>
    <path d="M60.44,219.17c3.73,2.3,9.07,3.86,14.82,4.67"/>
    <path d="M110.28,222.34A40.07,40.07,0,0,1,93,221.41"/>
    <path d="M119.25,210.11a31.76,31.76,0,0,1-19,2.24"/>
    <path d="M126.51,209.74c-5.69,4.71-13.74,6.82-25.19,5.23"/>
    <path d="M121.86,187.51c-5.79,4.67-20.54,4.11-25.21,1"/>
    <path d="M125,189.8c-3.21,3.13-14.79,4.81-17.59,4"/>
    <path d="M124.28,167.62A44.42,44.42,0,0,1,112.71,172"/>
    <path d="M118.69,167.62c-4.33,1.79-10,2.79-16.62,3.17"/>
    <path d="M114.37,119.48c-7.58,9.22-16.79,15.45-27.88,18.18"/>
    <path d="M92,133.29c-8.36,2.7-16,3.54-22.69,1.64"/>
    <path d="M124.89,104.86c-3.85-4.37,1.1,7.79-2.24,14.64"/>
    <path d="M127.89,107.7a26.31,26.31,0,0,1-4.48,17.71"/>
    <path d="M132.27,119.62c-.27,5.23-1.74,9.5-7.24,10.52"/>
    <path d="M127.22,132.74c4.35,1.6-.82,8.06-2.45,15.31"/>
    <path d="M127.08,152.24c.76,2.16-.13,7,.68,10.94"/>
    <path d="M142.52,142.93c-4.71.22-13.39,8.08-11.75,15.95"/>
    <path d="M135.15,168.78c-3.42-10,.65-20.62,4.78-23.19-6.43,12.84,8.2,29.61-1.23,23.73"/>
    <path d="M140.34,138.57c-3.74.73-8.81,6.8-9.43,6.06s-.14-2.6,1.64-4.51"/>
    <path d="M80.64,252.08a96,96,0,0,0-23,1.55"/>
    <path d="M100.64,250.84a107.46,107.46,0,0,1,19.08-.47"/>
    <path d="M96.75,256.11c6.11,1.09,13,3.8,20.33,7.29"/>
    <path d="M81.41,258.44a52.12,52.12,0,0,0-8.06,5.11"/>
    <path d="M69,266c3.25,11.79,9.86,27.87,13.48,23.11"/>
    <path d="M129.49,285.42c-2.63,11.77-7.69,24.35-21.24,29"/>
    <path d="M74,321.85c-8,5.5-17.24,6.72-25.89-.46"/>
    <path d="M46.72,327.37c9.16,1,14.85,2.8,3.28,9.16"/>
    <path d="M70.65,328.05c-3.09.95-8.57,2-7.83,3.27,1.06,1.84,9.27,3.76,10.33-.38"/>
    <path d="M71.71,339.33c-6.41-5.47-14.64-4.78-22.38.77"/>
    <path d="M76.52,339.55a8.44,8.44,0,0,1-.18-8.52"/>
    <path d="M129.72,321.88a23,23,0,0,1-23-.58"/>
    <path d="M134.93,331.59c-4.05-4.12-13.5-2-3-6.34"/>
    <path d="M104.76,325.44c10.79,1.35,14.55,2.41-.58,7.14"/>
    <path d="M105.05,337c3.28-.61,7,1.2,10.89,4.44"/>
    <path d="M130.4,341.73c-4.39-1.26-10.26,0-14.56,3"/>
    <path d="M131.07,334.22c-7.13-6-19.09-2-18.5.48s9.15,5.3,17.92,1.73"/>
    <path d="M49,394.47c4,3.73,7.78,3.37,11.34-.27"/>
    <path d="M72.2,397.47c-3.54,6.35-12.15,11.8-20.32,7.89-2.61-1.24,1.72-5,6.26-5.9"/>
    <path d="M70.2,411.68c8.63-8.22.83-7.5-10.06-2.05"/>
    <path d="M108.68,397.54c3.2,1.47,10.07,1.33,1.47,3.38"/>
    <path d="M113.05,394.38c6.93,3,13.71,3.52,20.34,1.54"/>
    <path d="M134.6,400.47a4.63,4.63,0,0,1-2.67-1.46"/>
    <path d="M113,411.36a9.78,9.78,0,0,0,5.16.72"/>
    <path d="M131.75,404.73c3.18-2-9.62-6.72-16.52-1.36-3,2.3,6.27,6.17,11.17,5.08"/>
  </g>
  <g class="eye">
    <circle class="sclera" cx="97.59" cy="43.36" r="17.84"/>
    <g class="irisDarkBrown">
      <circle cx="88.29" cy="44.12" r="3.3" transform="matrix(1, -0.1, 0.1, 1, -3.85, 8.75)"/>
      <circle cx="110.06" cy="41.85" r="3.3" transform="translate(-3.53 10.85) rotate(-5.55)"/>
    </g>
    <g class="pupil">
      <circle cx="88.51" cy="43.94" r="1.28" transform="translate(-3.84 8.77) rotate(-5.55)"/>
      <circle cx="110.28" cy="41.67" r="1.28" transform="translate(-3.51 10.87) rotate(-5.55)"/>
    </g>
  </g>
  <g class="skinEastAsian">
    <path d="M168.92,111.25c-3.56,17.77-2.37,34.71-9.38,49.66-7.18,9.19-20.91-4.63-18.79-14.69,5-10.31,12.31-15.21,16.28-40.62.92-3.57-2.39-4.22-2-15.81.91-8.09-2.23-11.65-1.47-13.6,3.22-2.29,6.53,1.86,6.62,5.85a11.31,11.31,0,0,1,1.18,4.07c3.31-2.2,5.86-2.37,9.59-8.48,1.78-3.9,3.92-5.58,5.73-9.11,2.2-6.19,6.22-7.21,8.05-5.35.21,2.28-2.68,5.43-3.84,9.22-1.29,4.18-3.94,5.87-4.88,9.18,2.38-1.23,6.08,3.2,3.62,5.23,1.36.28,3.46,4.45,1.09,5.64,3.73,3.73,1,4.61.57,6.56C177.88,108.5,170.33,108.5,168.92,111.25Z"/>
    <path d="M100.3,78.92c-.83,7.67-.54,12.38,1.55,14,3.7,15.21-40.76,15.35-35.6-.8,4.39-1.81,3.55-17.52-.7-25.76"/>
    <path d="M35.87,216.37c-3.93-3.22-8-12.32-7.73-17.09C20.86,188,9,180.43,4.06,168.78c.13-3,20.11-8.07,23.69-5.69C32.51,173.81,34,184.86,40.18,192c2.3,2.71,5.71.68,9.24,2.41.26,8.24,10,8.14,14,13.79,1.81,3.61,4.79,5.41,4.4,6.75-1.26,2.51-6.44,1.8-7.93-2.83a22.91,22.91,0,0,1-4-2.27c4.94,6.43,4.24,11.68,6.59,13.49.24,3.37-8.23,2.66-8.39-4.63-2-5.1-4.39-5.57-7.29-8.63,1.27,3.46,2.41,6.86,1.88,9.57-2.83,6.75-4.55,5.18-9,6.28-2.67-.47-2.67-2.59-2-4.08-1.52,0-3.21,0-3.85-.71C32.21,219.19,32.69,216.24,35.87,216.37Z"/>
    <path d="M113.57,79.54c-2.49,4.24-2.74,8.14-8.66,9.88-8,2.34-10.7.32-20.5-2.6A32.45,32.45,0,0,1,64.9,70.1c-1.66,3.3-5.18,1.79-6.41-.48-1.78-3.26-8.18-4.39-7.87-14C45.16,33,90.71,2.94,115.31,24.39c-1.86,7.75,2.27,6.7,1.6,16.88C117,45.13,124.73,60.54,113.57,79.54Zm-19-35.45a8,8,0,0,0-6.44-3c-3,.17-5.39,2.72-6.7,4.43,3.66,1.3,7.24,2.25,12.44-.56C94.24,44.76,95.09,44.87,94.58,44.09ZM105.39,44c1-.22,5.44,1.88,8.62-.9.36-.74-.09-3-.39-3.6-5.65-1.88-7.45,2.11-9.06,3.73C104.19,43.56,104.68,44.11,105.39,44Z"/>
  </g>
  <g class="skinOverlapLine">
    <path d="M41.71,212.75c1.72,1.64,2.25,3.48.79,6.2s-2.77,2.84-4.8,2.91"/>
    <path d="M49.32,203.86c2.45,2.32,4.9,3.51,6.57,6"/>
    <path d="M180.7,92.44c-6.33-3.86-7.47,3.36-9.38,4.58-2,3.72,5.11,5.62,6.58-.35"/>
    <path d="M179.61,86.8c-2.8-1.27-4.74.35-8.29,3.21-2,1.73-1.64,3.28-3.72,4.67-1.3.78.69,4.84,3.38,3.55"/>
    <path d="M176,81.57c-8.66,3.45-5.53,5.49-9.17,7.92-1.21,1.55.61,4.15,2.14,3.87"/>
  </g>
  <g class="skinFoldLine">
    <path d="M37.13,215.39a2.64,2.64,0,0,0-1,2.74"/>
    <path d="M60.06,56.22c-5.63-8.44-11.68,1.94-3.87,8.43"/>
    <path d="M60.31,58.8c-2.36,2,3.37,4.7,1.44,5.83-1.32.76-1.09-1.8-4-2.57-4.42-1.16-1.47-6.59.45-4.39"/>
  </g>
  <g class="skinCreaseLine">
    <path d="M167.45,96.63a23.85,23.85,0,0,1-2.46,5.48"/>
    <path d="M167.2,85.07c.49,1.28,1.18,1.92,1.1,3.06"/>
  </g>
  <path class="lipMaleMedium__noStroke" d="M100.22,64.69c1.23-.76,3.13,1.13,5.81-.79.41,1.1,1.78,1,2.38,2.3-.51,2.59,3.91,11.54-4,13.55-10,2.55-11.48-8.63-11.92-10.89C95.26,66.54,99.12,65.44,100.22,64.69Z"/>
  <path class="mouthInner" d="M108.41,66.2a4.38,4.38,0,0,1-2.72,2.47,5.32,5.32,0,0,1,1.71,4A16.38,16.38,0,0,0,108.41,66.2Z"/>
  <path class="tongue" d="M107.4,72.65a5.36,5.36,0,0,0-2.25-4.45A32.07,32.07,0,0,0,96,67.27a16,16,0,0,0-3.16,1.62c-.2,2.78,2.49,4.85,4.54,6C101.77,77.3,105.63,76.81,107.4,72.65Z"/>
  <path class="teeth" d="M108.41,66.2c-3.78-1.59-3.28,1-6.41.13-2.52-.73-7.33,1.25-9.19,2.56C97.85,70.63,107.28,69.91,108.41,66.2Z"/>
  <path class="lipOverlapLine" d="M108.41,66.2a7.31,7.31,0,0,0,1,.38"/>
  <g class="lipEdgeLine">
    <path d="M106,63.9c-2.68,1.92-4.58,0-5.81.79"/>
    <path d="M108.71,75.78c-1.36,4.71-8.23,5.32-10.88,2.84"/>
  </g>
  <g class="cheekLine">
    <path d="M108.24,56.32a14,14,0,0,1,4.08,7.62"/>
    <path d="M95.41,56.92c-2.5,1.41-5.84,9.1-6.31,11.27"/>
  </g>
  <g class="noseLine">
    <path d="M106.73,53.84c.66,2,3.18,3.06,1.09,5.67"/>
    <path d="M95.41,56.92c-.87.89-.72,3,1.07,4.16"/>
    <path d="M97.94,60c1.2-1.65,2.32.33,3.49.32"/>
    <path d="M107.27,58.25a3.35,3.35,0,0,1-2.29,2"/>
  </g>
  <g class="eyeFoldLine">
    <path d="M113.75,46.67a6.22,6.22,0,0,1-5.67.72"/>
    <path d="M92.67,49.13a8.39,8.39,0,0,1-7.62.83"/>
  </g>
  <path class="eyeLidLine" d="M114,43.06c1.68-.65,1.55,1.52,1.55,1.52"/>
  <g class="eyeCornerLine">
    <path d="M80,46.75a6.7,6.7,0,0,0,1.4-1.18"/>
    <path d="M113.62,39.46a5.8,5.8,0,0,0,1.53.49"/>
  </g>
  <path class="eyeCreaseLine" d="M81.66,43.3c2.58-3.52,7.63-5.25,11.2-2.15"/>
  <g class="eyebrowBlack">
    <path d="M95.28,32.48c-3,4.82-11.48-.67-18.42,6.76C81.05,30.5,89,33.87,95.28,32.48Z"/>
    <path d="M103.74,31.7c3.87,2.72,5.31-.58,12.31,1.32-.17-.51-.35-1-.51-1.45C109.81,29.54,107.25,32.14,103.74,31.7Z"/>
  </g>
  <path class="hairBlack" d="M79.48,18.48c3.73,16.2,16.73,9.43,24.54,12.84a32.88,32.88,0,0,0-3.43-4.13c4.55,3.36,12.2.51,18.16,5.26a17,17,0,0,0-5.57-17.82,4.73,4.73,0,0,0,5-2.18c-11.3-2.08-8.13-9.81-32.5-12-9.32-.83-23.66,3-28.11,8.22-.48-3.71,2.27-5.84,5-8.12-5.48,1.57-8.54,6-8,10.19-2.88-1.17-6.22,1.64-6.82,3.85,1.41-1.47,3.17-2.45,4.92-1.22-12.82,16.09-5,39.8-2.11,42.22.58-6.78,7.59-6.88,9.77-2.48,1,0,4.18-1.43,5.83-2.54-1.06-5.24-1.93-4.09,2.09-12.18,4.32-1.78,7.23-4,9.52-9.66a38.55,38.55,0,0,1,.52,5.9C79.62,32.22,81.57,30.19,79.48,18.48Z"/>
  <path class="hairOverlapLine" d="M68.31,38.41c-1.73.92-5.32,2-6.74,2.61a30,30,0,0,0,3.32-4.33"/>
</svg>
