<svg viewBox="0 0 435.04 133.69">
  <path class="sockWhite" d="M156.17,85.08c-5.64-1.5-15.32-5.13-19.06-7.22-1.93,4.45-2,12.2-8.51,19.21L102.81,121.2c13.74-.55,32.48,9,38.58,6.71,4.94-1.89,4.42-13.11,6.49-20.75C151.1,95.28,154,91.76,156.17,85.08Z"/>
  <g class="cube">
    <polygon class="blackDark" points="332.37 30.37 326.18 26.39 316.89 39.63 321.8 44.05 332.37 30.37"/>
    <g class="whiteMedium">
      <polygon points="331.55 36.25 328.29 40.5 325.31 39.51 328.82 34.96 331.55 36.25"/>
      <path d="M326.47,27.05,324.19,22,320.93,20l2.33,5.28Z"/>
      <polygon points="322.39 29.09 324.75 34.52 319.42 37.99 317.18 32.48 322.39 29.09"/>
    </g>
    <g class="flatBlueMedium">
      <polygon points="328.29 40.5 324.96 44.84 321.8 44.05 325.31 39.51 328.29 40.5"/>
      <polyline points="319.42 37.99 314.22 41.36 312.1 35.78 317.18 32.48 319.42 37.99"/>
      <polygon points="319.42 37.99 322.85 38.75 327.78 35.55 324.75 34.52 319.42 37.99"/>
      <polygon points="328.76 32.16 325.61 30.64 323.26 25.32 326.47 27.05 328.76 32.16"/>
    </g>
    <g class="flatGreenMedium">
      <polygon points="334.84 31.95 331.55 36.25 328.82 34.96 332.37 30.37 334.84 31.95"/>
      <polygon points="312.73 21.52 317.64 18.11 320 23.57 314.94 26.97 312.73 21.52"/>
      <polygon points="325.61 30.64 327.78 35.55 324.75 34.52 322.39 29.09 325.61 30.64"/>
    </g>
    <g class="flatYellowMedium">
      <polygon points="314.94 26.97 317.18 32.48 312.1 35.78 310.01 30.29 314.94 26.97"/>
      <polygon points="327.78 35.55 330.74 36.56 326.23 39.48 322.85 38.75 327.78 35.55"/>
      <polygon points="320.93 20.04 323.26 25.32 320 23.57 317.64 18.11 320.93 20.04"/>
    </g>
    <g class="flatOrangeMedium">
      <polygon points="310.01 30.29 307.94 24.85 312.73 21.52 314.94 26.97 310.01 30.29"/>
      <polygon points="326.23 39.48 321.53 42.53 317.91 41.95 322.85 38.75 326.23 39.48"/>
      <polygon points="320 23.57 323.26 25.32 325.61 30.64 322.39 29.09 320 23.57"/>
    </g>
    <g class="flatRedMedium">
      <path d="M317.18,32.48,314.94,27l5.06-3.4,2.4,5.52Z"/>
      <path d="M330.74,36.56l-2-4.4-3.16-1.52,2.17,4.91Z"/>
      <polygon points="322.85 38.75 319.42 37.99 314.22 41.36 317.91 41.95 322.85 38.75"/>
    </g>
  </g>
  <g class="eye">
    <circle class="sclera" cx="360.43" cy="32.87" r="5.85"/>
    <path class="irisDarkBrown" d="M355.88,35.49c-.35-.16-.54-2,.25-3.7s2.28-2.77,2.63-2.61A19.51,19.51,0,0,1,355.88,35.49Z"/>
    <path class="pupil" d="M356,33.21c-.28-.13-.17-.74.14-1.42s.7-1.16,1-1A10.52,10.52,0,0,1,356,33.21Z"/>
  </g>
  <g class="skinEastAsian">
    <path d="M174.52,13.14c-9.07-5.7-18.61.46-22,7.09-5.43,10.53-8.68,36.72-14.84,57.92a117.41,117.41,0,0,0,17.91,6.76c2.16-6.53,11.24-16.47,15.6-28.56a148.42,148.42,0,0,0,17,26l31.86-29C207.45,39.79,189.07,22.28,174.52,13.14Z"/>
    <path d="M67.42,106c32.91-4.75,51.7-15.19,62.71-16.1,20.51-1.69,42-6.36,58.83-6.78,17.09,15.83,22.38,30.54,2.72,42.89-23.48-.32-51.87-11.47-60-8.6-23.07,11.06-41.06,7.29-62.71,6.37Z"/>
    <path d="M314.57,16.09a4.64,4.64,0,0,0-2.45,2.54l-3.65,5.85,9.17-6.37L324.19,22l2,4.44L333.32,31c2.59-.86,3.24-4.27-.28-5.72-.1-3.67-4.26-2.9-5.77-4.09.31-3.8-3.16-3.89-5.78-4.91,2-2.45,1.49-3.59-1-5.55-3.46-2.7-4.54,1.78-7.12,2.7A2.09,2.09,0,0,0,314.57,16.09Z"/>
    <path d="M314.89,50.53c1.95,1.11,4.61.31,6.72.91,2.86-.29,3.81-4,0-5.82l-29.46,5c-4.94,11.55-11.39,16.09-13.36,27.79,10.63,5.76,28.83,2.27,43.28-4.63-7.4-1-26-.61-33.23-.3C295.41,48,299.44,46.55,314.89,50.53Z"/>
    <path d="M330.49,39.61c-3.51,2.14-5.42,6-10.52,7.38-4,1.06-8.27,8.75-13.92,7.59-3.24,9-5.28,16.15-5.69,21.36,14.82-4.75,21.2-1.89,33.17-3.86,3.76-.62,6.37-.61,13,1,4.11-.16,18.55-20.08,20.85-22.71L394.09,77c-17,3.37-23.53,6.28-31,19.17-10.87,25.85-54.44,36.81-86.76,33-9.23-1.08-23.06-2.59-31.71-1.94V74c10.73-3.11,29.07,1.63,39.65,1.92,3-8.13,5.46-13.5,7.88-22.92,1.12-4.19-4.81-8.73.86-20.93,2.66-5.73,4.67-2.66,7.64-7.7.33-2.61-.53-4.66,2.09-6.08,1.33-.71,3.67-1.05,4.92.84,1.87-1.26,5.13-1.26,6.47,1.45-3,1.75-.77,14.43,2.2,19.32.64,1.07,3.54.88,5.14-.22C325.87,35.52,330.71,35.94,330.49,39.61Z"/>
    <path d="M361.41,72.09c-3.9.3-8-.49-12.79-1.86-6.13-1.77-13.06-5-14.6-6.92-6.9-8.47,3.8-12.38,2.23-15.16a3.15,3.15,0,0,1,3.45-1.51,6.3,6.3,0,0,1,2.59-5.13c-.23-1.1-7.06-3.56-1-7,3.1-1.75,12.94-2.62,14.48-7,3.49-9.81,13.81-13.36,21.34-20.32,41.68-2.36,41.73,79.3,2.62,65.75-3.49.41-7.1-.08-7-4.82M355.9,32.32c1.27.67,3.67,1.44,5.71,2.64a20.09,20.09,0,0,0-2.84-6A6.18,6.18,0,0,0,355.9,32.32Z"/>
  </g>
  <g class="skinOverlapLine">
    <path d="M300.36,75.94,298.9,101.5c13.29-6.68,28.61-11.44,33.17-17.78"/>
    <path d="M345,106.44c-24,8.6-37.39,19.51-59.82,16.79-15.27-3-5-38-.93-47.34"/>
    <path d="M298.9,101.5a12.11,12.11,0,0,0-4.28,3.35"/>
    <path d="M307.65,19.1c-2.14,2.12-1.3,6.71-1.26,10.33"/>
    <path d="M300.64,24.34c.06,1.84.27,4-.19,4.71"/>
    <path d="M314.57,16.09c1.54.7,3.53.13,5.07-1.61"/>
    <path d="M321.49,16.26c-1.26-.24-2.4,1.1-2.07,2.9"/>
    <path d="M327.27,21.17c-1.23-.35-3-1.63-3.08.78"/>
    <path d="M333,25.26c-2.4-.13-3-2.2-4.55-1.33a2.42,2.42,0,0,0-.47,3.65"/>
    <path d="M171.16,56.35a33.48,33.48,0,0,0,3.53-18.47"/>
  </g>
  <g class="skinFoldLine">
    <path d="M384.5,60.46c9.32-3.82,12,9.89-1.28,10.54"/>
    <path d="M382.62,62.55c.79,3.92-4.88,2.12-3.82,4.56.8,1.86,2-.38,5.08,1.12,2,1,5.82-3.31,2.44-5.58"/>
  </g>
  <path class="sockWhite" d="M69,105.22c-.72,6.61-.87,12.93,1.39,19.17-12.21-.25-22.27,1-30.27,4.23-13.26,5.31-15.87-5.6-22.85-9.82C7,112.57-1.65,104.38.62,95.18c2.37-9.59,7.15-17,13.19-14.47C19.44,83,22.52,92.28,31.32,97.2c5.68,3.17,9.53,7.19,15.92,8.41S61.68,104.74,69,105.22Z"/>
  <path class="bennettUnderwear" d="M238.7,73.2,242,128.58c-13.13,5.89-30.17,4.85-48.64,4.69-4.64-5.84-1.87-17.41-2.86-22.84,0-.78,4.72-1.76,10.55-3.45a58.09,58.09,0,0,0-11,0c-.95-.3-1.93-16.79-1-23.86-1-.51-2.08-.55-2.05-1.26C190,76,213.62,53,220.25,51c1.24,5.94,6.74,3,5.49,7.86,2.27,7.68,7,4.61,5.71,8.79C235.13,67.67,235.89,71.39,238.7,73.2Z"/>
  <path class="bennettWaistband" d="M242,128.58a39.87,39.87,0,0,1,9.43-1c-4.15-12.28-3.06-43.94-3.62-54.74-2.71.11-5.62.41-9.1.36C238.38,82.7,237,115.12,242,128.58Z"/>
  <g class="clothesOverlapLine">
    <path d="M202.88,80.79c6.56-12.34,16.49-7.15,20.05-7.89,7.89-1.63,12.3.39,15.77.3"/>
    <path d="M189,83.07C196.38,81,203.44,81,209,80c4.73-.9,11.15,7.21,13.55,19"/>
  </g>
  <g class="clothesFoldLine">
    <path d="M197.4,81.41a25.77,25.77,0,0,1,2.83-10"/>
    <path d="M193.87,82a14.65,14.65,0,0,1,1.54-5.39"/>
    <path d="M225.74,58.87a25.83,25.83,0,0,1-3.16,8.29"/>
    <path d="M223.43,58c-.11,3.46-1.61,6.73-4.17,9.87"/>
    <path d="M225.64,89C222.38,83,216,78.16,211.07,80.1c2.78-2.83,9.86-1.56,13.66,3.22"/>
    <path d="M212.54,128.78c-7.09.46-16.53-1.29-19.75-4.58"/>
    <path d="M230.81,65.06c-1.31-.19-2.58.6-3.79,2.38"/>
    <path d="M238.68,75.84c-1.86,0-4.07-.42-6.29-.25"/>
    <path d="M238.76,78.59a21.27,21.27,0,0,0-5-.11"/>
    <path d="M240.12,122.42a8.85,8.85,0,0,1-3.72,1.19"/>
    <path d="M240.9,125.28a18,18,0,0,1-5.77,2.07"/>
  </g>
  <ellipse class="nippleEastAsian" cx="311.09" cy="75.87" rx="1.07" ry="1.86" transform="translate(171.08 363.85) rotate(-77.78)"/>
  <path class="lipMaleMedium__noStroke" d="M339.7,46.64a3.15,3.15,0,0,0-3.45,1.51c3.46,1.24,4.07-.06,7.23.67C341.6,48.18,340.61,47,339.7,46.64Z"/>
  <path class="lipBorderLine" d="M339.7,46.64c.91.39,1.9,1.54,3.78,2.18"/>
  <path class="lipEdgeLine" d="M336.25,48.15a12.43,12.43,0,0,0,2.95.46"/>
  <path class="cheekLine" d="M343,50.08c.57-.9.36-1.74.78-2.59"/>
  <path class="noseLine" d="M341.11,39.44c1.24,1.49,1.2,3.09,2.44,3.58,2,.78,3.65-.43,3.22-2.52"/>
  <g class="eyeLidLine">
    <path d="M358.77,29c-1.55-1.77,1.06-2.54,1.06-2.54"/>
    <path d="M355.9,32.32c-.78-.27-1.52.39-1.45,1.35"/>
  </g>
  <path class="eyeCornerLine" d="M361.61,35a3.81,3.81,0,0,0,1.12,1.34"/>
  <path class="eyebrowBlack" d="M360.23,22.78c-.39,5,5.28,2.83,6.3,9.27C367.46,23.82,362.18,26.41,360.23,22.78Z"/>
  <path class="hairBlack" d="M373.18,5.16a20.46,20.46,0,0,1-5.64-1c6.49-.89,16.08-9,35,1.3C409.39,9.13,420.9,20.46,425,30.82c2.12-2.65,2.22-6.08.79-10.8a11.36,11.36,0,0,1,.87,13.74c4.38.39,8.27,3.83,8.16,8-1.29-3.48-4.46-5.5-7.42-4.61,4.91,18.78-14,46.31-44.33,44.38-2.31-3-2.75-4.95-3.27-8.53,6,0,12.46,0,14.77-7.15,1.68-5.25-4.35-11.41-9.59-7.82a54.51,54.51,0,0,1-7.55-6.58c3.92-4.73,3.37-2,3.08-9.81-2.94-3.35-9-8.91-9.78-17.64-.24,1.82-.35,4-1.28,5.62C369.29,21.41,360,11.42,373.18,5.16Z"/>
  <path class="hairOverlapLine" d="M380.48,41.6a21.34,21.34,0,0,1,3,3.67c-.6-2.5-1.32-5.41-1.54-6.9"/>
</svg>
