<svg viewBox="0 0 326.2 457.38">
  <g class="guitarCase">
    <polygon class="guitarCaseLight" points="142.91 262.69 35.81 263.18 35.81 371.35 142.91 368.8 142.91 262.69"/>
    <path class="guitarLeatherLight" d="M35.81,371.35c-1.14,.29-3.63,.57-4.84,.66-2.27,.17-5.49,.2-7.99,.05,3.55-3.46,1.92-66.33,1.83-106.21l-22.47-2.45c1.03-.56,3.31-.93,4.87-.94l24.17-.09c5.85-.07,5.84,1.18,5.84,6.73,0,0-.32,72.68,0,96.9,.03,2.26-.1,4.39-1.39,5.34Z"/>
    <path class="guitarLeatherDark" d="M22.97,372.06l-19.67-1.27c-1.4-.11-3.05-1.7-3.05-3.7v-100.28c0-2.04,1.79-3.72,3.19-3.72H23.68c2.12-.05,3.87,1.96,3.87,4.09v101.27c0,2.16-2.43,3.72-4.58,3.61Z"/>
    <path class="guitarCaseDark" d="M19.19,367.12l-12.15-.53c-1.81-.08-3.23-1.57-3.23-3.37v-92.44c0-1.85,1.49-3.35,3.34-3.38h12.17c2.23-.02,4.05,1.78,4.05,4.01v91.71c0,2.28-1.9,4.1-4.18,4Z"/>
    <path class="rubberMediumDark" d="M150.83,249.42c-4.48-2.12-15.69-2.13-20.28,0-2.52,1.17-3.41,7.57-3.82,11.82,1.63-.31,4.59-.29,6.07,.05,.15-1.27,.37-6.18,1.38-6.98,1.62-1.29,11.84-1.23,13.47,0l3.17-4.88Z"/>
    <g class="steelMediumDark">
      <path d="M41.72,272.6c0,1.94,1.29,3.5,2.88,3.5,2.07,0,3.34-1.57,3.34-3.5s-1.37-3.5-3.34-3.5c-1.59,0-2.88,1.57-2.88,3.5Z"/>
      <path d="M41.72,362.96c0,1.94,1.29,3.5,2.88,3.5,2.07,0,3.34-1.57,3.34-3.5s-1.37-3.5-3.34-3.5c-1.59,0-2.88,1.57-2.88,3.5Z"/>
      <path d="M57,263.09v-1.5c-.01-1.59-13.49-1.37-13.48,.22v1.35l13.48-.06Z"/>
      <path d="M133.71,262.73v-.93c0-1.04-8.11-1.04-8.11,0v.97l8.11-.04Z"/>
      <path d="M125.18,262.77v-1.49c-.01-1.59-13.49-1.37-13.48,.22v1.34l13.48-.06Z"/>
      <path d="M52.1,260.15c-1.96,0-3.56,.31-3.56,1.43l7.11,.03c0-.8-1.59-1.45-3.55-1.46Z"/>
      <path d="M120.28,259.85c-1.96,0-3.56,.31-3.56,1.43l7.11,.03c0-.8-1.59-1.45-3.55-1.46Z"/>
    </g>
    <g class="steelDark">
      <path d="M3.59,266.62c.27,.96,1.14,1.53,2.32,1.54-.1,.96-.21,2.02,0,2.91,.2,.84,1.16,1.34,2.58,1.32s2.58-.52,2.81-1.35c.24-.86,.14-1.96,0-2.97,1.16,.05,2.16-.52,2.42-1.57,.11-.47,.17-2.12,.11-3.4H3.47c-.08,1.25-.01,3.04,.12,3.52Z"/>
      <path d="M11.3,366.03c.14-1,.23-2.1,0-2.97-.22-.85-1.09-1.8-2.81-1.84-1.94-.04-2.47,.8-2.7,1.66-.23,.88,.03,1.88,.12,2.84-1.18,.01-2.05,.58-2.32,1.54-.16,.55-.22,2.44-.09,3.54l10.25,.66c.14-1.17,.1-3.27-.05-3.86-.25-1.05-1.26-1.63-2.42-1.57Z"/>
      <path d="M3.38,370.79c.13,.81,.37,1.9,.64,2.41,.35,.67,1.21,1.04,2.7,1.04s2.43-.39,2.7-1.04c.21-.5,.34-1.31,.43-1.99l-6.47-.42Z"/>
      <path d="M21.3,371.95c.14,.91,.42,2.18,.73,2.77,.39,.75,1.35,1.17,3.02,1.17s2.72-.44,3.02-1.17c.27-.66,.43-1.78,.53-2.6-4.79,.03-6.27-.1-7.31-.17Z"/>
    </g>
    <line class="caseBorderLine" x1="8.49" y1="262.92" x2="8.49" y2="371.1"/>
  </g>
  <g class="soleWhite">
    <path d="M156.12,450.63c.04,1.96-.82,5.15-1.89,5.69-4.65,2.22-13.87-.76-19.7-1.05-11.47-.58-24.92-5.06-26.56-8.39-.2-4.46,7.36-9.54,11.05-9.36,13.86-4,29.12,3.53,37.1,13.1Z"/>
    <path d="M208.12,420.74c1.05,2.04,1.49,4.22,1.2,6.54-.79,6.36-10.74,8.18-17.42,15.2-7.1,7.46-25.52,9.68-31.7,3.23-2.03-6.08,1.77-9.73,7.74-11.7"/>
  </g>
  <g class="bennettShoe">
    <path d="M159.63,422.03c-5.17,11.34,.22,17.48-3.51,28.59-4.29,2.87-16.35-.97-21.72-1.26-.4-7.6-7.54-12.17-15.38-11.84,7.62-2.52,16.31-12.66,20.93-23.56,6.64-5.52,13.3,1.27,19.69,8.07Z"/>
    <path d="M196.6,399.4c3.32,9.09,10.69,14.52,11.52,21.34-1.15,3.79-4.81,8-11.24,11.61-5.82,3.26-10.65,8.99-14.1,9.68-.74-7-9.12-8.94-14.84-8.02,4.52-4.15,5.9-9.33,8.72-16.13,2.8-6.75,2.61-12.35,.95-18.89l18.98,.4Z"/>
  </g>
  <g class="shoelace">
    <path d="M125.59,433.74c4.22,.65,8.97,2.24,11.77,4.12,3.24-4.25,5.9-8.57,7.73-13-2.6-1.37-6.94-2.84-9.38-2.84-2.95,4.67-6.5,8.81-10.12,11.72Z"/>
    <path d="M181.82,429.47c2.95-5.48,5.05-11.1,6.11-16.89-3-1.12-6.48-1.45-9.43-.93-.33,2.01-.92,4.07-1.83,6.25-1.64,3.96-2.8,7.36-4.37,10.34,3.25-.33,7,.03,9.52,1.24Z"/>
  </g>
  <path class="converseLogo" d="M197.71,425.81c6.27-2.76,3.5-13.18-1.89-11.14-6.57,2.49-3.43,13.49,1.89,11.14Z"/>
  <g class="bennettJeans">
    <path d="M141.21,281.46l66.75,1.98c4.26-21.84,6.97-42,4.87-57.01l-67.11-1.26c-3.97,14.07-5.59,36.44-4.51,56.28Z"/>
    <path d="M143.01,394.21c-.9,7.4-7.95,12.38-3.87,16.86-.72,2.16-2.43,4.37-1.24,7.18,2.5-4.83,12.24-2.85,10.35,2.15,2.79,4.57,7.81,7.56,8.99,13.33,2.7-.15,2.65-2.99,3.37-5.51,5.77-4.15,1.98-8.48,3.97-11.73,5.77-4.87,4.23-13.79,6.94-23.53,1.44,3.61,1.56,11.85,7.28,13.11-.67-6.5,8.53-6.14,9.25-3.15,3.98,.98,8.73,.47,12.17,3.52,2.34-3.07-5.06-9.52-4.34-13.48-18.41-2.3-36.27-2.67-52.86,1.26Z"/>
  </g>
  <g class="bassCase">
    <g class="brassMedium">
      <path d="M109.96,278.76c.02-.82,.7-2.33,1.52-2.31l-6.64-.16c-.82-.02-1.5,1.48-1.52,2.3l6.64,.17Z"/>
      <path d="M156.21,279.96c.02-.82,.7-2.41,1.52-2.39l-6.64-.16c-.82-.02-1.5,1.56-1.52,2.38l6.64,.17Z"/>
      <path d="M290.49,283.41c.02-.82,.7-2.39,1.52-2.37l-6.64-.16c-.82-.02-1.5,1.54-1.52,2.36l6.64,.17Z"/>
      <path d="M210.17,281.35c.01-.63,.49-1.87,1.08-1.91l-3.73-.09c-.64-.02-1.18,1.24-1.19,1.91l3.85,.1Z"/>
      <path d="M231.11,281.88c.01-.63,.49-1.83,1.08-1.87l-3.73-.09c-.64-.02-1.18,1.2-1.19,1.87l3.85,.1Z"/>
      <path d="M235.22,279.66c0,.14,0,2.19-.01,2.33l5.17,.13c.02-.82,.7-2.32,1.52-2.3l-6.69-.16Z"/>
    </g>
    <g class="brassMediumLight">
      <path d="M109.96,278.76c.02-.82,.7-2.33,1.52-2.31l4.53,.11c.82,.02,1.47,1.56,1.45,2.38l-7.5-.18Z"/>
      <path d="M156.21,279.96c.02-.82,.7-2.41,1.52-2.39l4.53,.11c.82,.02,1.47,1.65,1.45,2.47l-7.5-.19Z"/>
      <path d="M210.17,281.35c.02-.67,.55-1.93,1.19-1.92l3.56,.09c.64,.02,1.15,1.31,1.14,1.97l-5.89-.15Z"/>
      <path d="M290.49,283.41c.02-.82,.7-2.39,1.52-2.37l4.53,.11c.82,.02,1.47,1.63,1.45,2.45l-7.5-.19Z"/>
      <path d="M240.38,282.12c.02-.82,.7-2.32,1.52-2.3l4.53,.11c.82,.02,1.47,1.57,1.45,2.39l-7.5-.2Z"/>
      <path d="M231.11,281.88c.02-.67,.55-1.89,1.19-1.88l3.56,.09c.64,.02,1.15,1.27,1.14,1.94l-5.89-.15Z"/>
    </g>
    <path class="oakDarker" d="M234.58,271.74c-.85-2.52-2.5-3.13-5.18-3.41-2.06-1.44-13.07-1.88-15.02-.49-2.81,.11-4.93,.87-5.64,3.22-.72,2.39-.72,5.31-.77,8.28l5.73,.15c-.31-4.64-.06-6.39,.56-6.48,2.14,1.44,13.08,1.66,14.98,.48,.7,.12,.74,2.25,.38,6.45l5.58,.14c.09-2.9-.06-6.17-.63-8.34Z"/>
    <g class="caseDark">
      <path d="M113.25,400.09c-1.26-1.27-2.78-2.42-4.47-3.46l-8.14,.16c1.51,.97,2.87,2.02,4.02,3.17,.79,.79,1.88,1.21,2.99,1.19l7.02-.15c-.53-.2-1.02-.51-1.42-.92Z"/>
      <path d="M285.8,396.61c-1.26-1.27-2.78-2.4-4.48-3.43l13.13-.26h0l-20.89,.42c1.52,.95,2.87,1.99,4.02,3.15,.75,.76,1.79,1.16,2.86,1.14l6.68-.14c-.49-.19-.95-.48-1.33-.87Z"/>
    </g>
    <g class="caseMedium">
      <path d="M87.28,387.29v-99.28c0-5.32,3.45-8.82,11.09-9.39v-.08l-16.11,.66c-4.77,.2-8.54,4.12-8.54,8.9v99.38c0,4.83,3.85,8.78,8.67,8.9l15.92,.42v-.15c-6.61-.74-11.03-4.14-11.03-9.35Z"/>
      <path d="M108.78,396.63c1.69,1.04,3.21,2.18,4.47,3.46,.79,.79,1.88,1.21,2.99,1.19l7.78-.17c1.18-.03,2.31-.54,3.08-1.44,1.12-1.32,2.51-2.46,4.06-3.49l-22.38,.45Z"/>
      <path d="M281.33,393.18c1.7,1.03,3.22,2.16,4.48,3.43,.75,.76,1.79,1.16,2.86,1.14l7.44-.16c1.13-.02,2.21-.52,2.95-1.38,1.12-1.32,2.51-2.45,4.08-3.46l-21.81,.44Z"/>
    </g>
    <path class="brassMediumDark" d="M82.51,387.52v-99.65c0-5.25,4.71-8.82,9.95-9.1l-7.28,.3c-4.02,.17-7.82,3.48-7.82,7.5v102.36c0,4.07,3.86,7.4,7.93,7.51l7.46,.2c-5.36-.14-10.24-3.76-10.24-9.12Z"/>
    <path class="caseLight" d="M325.95,384.37v-92.18c0-4.38-3.49-7.97-7.87-8.08l-217.39-5.59c-9.26,0-13.4,3.65-13.4,9.47v99.28c0,5.8,5.47,9.35,13.34,9.5l217.41-4.34c4.4-.09,7.92-3.68,7.92-8.08Z"/>
    <g class="caseEdgeLine">
      <path d="M278.75,393.51c.92,.28,2.6,3.35,3.98,3.35"/>
      <path d="M287.03,393.6c.92,.28,2.6,3.35,3.98,3.35"/>
      <path d="M105.87,396.86c.96,.29,2.72,3.51,4.16,3.51"/>
      <path d="M114.53,396.94c.96,.29,2.72,3.51,4.16,3.51"/>
      <path d="M214.38,267.84c1.64,.28,1.78,5.12-.12,5.17"/>
      <path d="M229.4,268.32c.74,1.07,.65,4.25-.15,5.16"/>
      <path d="M98.37,278.53l-9.64,.4c-4.59,.19-8.83,3.35-8.83,7.94v101.73c0,4.64,4.31,7.82,8.95,7.94l9.46,.25"/>
    </g>
  </g>
  <path class="shirtWhite" d="M144.24,227.22c5.08,2.39,8.48,9.07,19.42,10.9,20.46,3.44,35.1-13.59,53.17-9.11,9.83-74.39,9.45-136.43-43.11-129.7-24.35,12.7-28.88,73.99-27.99,102.82,.12,3.95-3.46,6.46-.15,8.36,.6,6.12-3.15,9.11-.15,11.35,.6,2.84-1.64,3.29-1.19,5.38Z"/>
  <path class="bennettSleeves" d="M173.43,102.99c3.16,10.74,20.35,12.27,27.93,10.03,1.75,5.86,3.48,10.92,5.85,13.65-.6,2.08,1.13,4.34,3.3,4.45-1.73,4.38,.89,5.26,.23,11.05-1.46,2.14-.31,4.24-.33,17.6,0,3.61-3.07,6.58-.55,8.43,.88,3.28-1.1,8,.66,9.63-1.42,2.42-1.31,4.53,.33,6.35-1.59,2.76,.33,7.33,.11,11.05-.14,2.36,22.73,3.67,22.87,1.31-.77-2.3,.62-4.68-1.09-5.91,1.23-2.33-.4-6.55,.22-8.1,2.84-7.11-1.2-9.63-.44-13.13,1.86-12.69,2.63-32.26,1.53-41.67,3.5-11.71-15.54-23.09-22.54-29.65l-30.22-5.69c-28.78,13.35-22.7,18.39-25.44,30.54,2.72-3.56,2.57-8.44,5.98-9.17,2.82-1.45,7.53-5.83,11.59-10.76Z"/>
  <g class="clothesDisplayLine">
    <path d="M164.22,269.55c-3.13-4,1.16-5.78-.52-6.96-8.07-5.64-2.18-9.03-4.17-12.35-2.09-3.48,1.95-8.5,.91-12.85"/>
    <path d="M167.62,238.58c1.47,2.33-2.67,6.49-1.32,9.74,1.74,4.17-.7,4.17,.7,7.48s-1.6,5.47-5.35,5.14"/>
    <path d="M182.41,236.32c3.56,2.99,8.89,4.05,14.85,4"/>
    <path d="M150.43,231.82c-1.41,1.53-3.26,2.63-5.52,2.59"/>
    <path d="M134.39,449.37c-9.15-.31-21.15-5.35-23.86-7.87"/>
    <path d="M182.78,442.03c-6.36,1.67-20.5,1.8-22.45-2.49"/>
  </g>
  <g class="clothesOverlapLine">
    <path d="M162.73,277.87c.28-1.38,.79-2.42,2.27-4.5-1.66-.14-2.35-2.21-.78-3.82"/>
    <path d="M148.25,420.39c-1.93,.22-2.08,2.42-3.16,4.46"/>
    <path d="M134.39,424.01c2.54,.13,6.61,1.56,9.67,3.13"/>
    <path d="M132.92,426.05c2.88,.22,7.31,1.84,9.96,3.41"/>
    <path d="M131.46,427.88c2.93,.14,7.41,2.05,10.17,3.74"/>
    <path d="M129.96,429.6c3.46,.48,7.13,2.24,10.27,4.22"/>
    <path d="M127.99,431.63c4.05,.67,7.66,2.09,10.88,4.18"/>
    <path d="M187.93,412.57c.44-4.03-1.14-7.79,.11-9.66"/>
    <path d="M187.26,415.68c-3.33-.92-6.51-1.35-9.45-1.02"/>
    <path d="M186.45,418.57c-3.38-.91-6.59-1.38-9.57-1.21"/>
    <path d="M185.47,421.43c-3.37-.88-6.64-1.31-9.77-1.16"/>
    <path d="M184.37,424.19c-3.37-.94-6.63-1.44-9.71-1.27"/>
    <path d="M183.16,426.85c-3.23-1.03-6.42-1.55-9.55-1.37"/>
  </g>
  <g class="clothesFoldLine">
    <path d="M161.73,105.74c-1.79,3.65-2.87,7.42-3.07,11.36"/>
    <path d="M167.82,112.97c-2.61,.11-6.32,.71-7.08,1.23,1-3.87,2.85-7.43,5.39-10.76"/>
    <path d="M166.19,114.93c-2.12,.06-4.05,.35-5.39,1.36"/>
    <path d="M161.14,131.75c4.79,2.48,12.08,4.15,18.42,5.34"/>
    <path d="M189.91,141.33c-7.85-1.08-16.65-2.54-22.94-4.63"/>
    <path d="M155.53,156.96c3.23,.86,7.04,.92,11.16,.54"/>
    <path d="M170.79,159.36c-2.67,1.09-16.62,.65-19.02-.54"/>
    <path d="M176.46,176.42c-9.73,3.38-20.72,5-29.64,3.1"/>
    <path d="M164.53,181.98c-5.74,1.24-12.95,1.51-18.47-.54"/>
    <path d="M147.76,208.39c2.68,1.55,7.95-.33,12.2-1.09"/>
    <path d="M145.58,210.49c1.91,1.3,4.44,1.26,7.24,.62"/>
    <path d="M145.43,221.84c10.72,8.92,28.71,10.42,45.29,6.15"/>
    <path d="M179.51,233.05c-3.16,1.14-20.96,.38-23.63-1.58"/>
    <path d="M154.62,223.41c6.98,3.18,15.14,3.57,24.01,2.29"/>
    <path d="M178.36,216.39c-2.34,2.29-15.79,5.66-19.49,3.32"/>
    <path d="M215.08,222.96c-6.39,.24-12.3,.91-17.5,2.22"/>
    <path d="M214.74,220.72c-8.25-.76-17.45,1.37-27.12,4.92"/>
    <path d="M213.55,213.74c-10.25,.48-18.52,4.45-25.93,7.17"/>
    <path d="M210.76,205.17c-8.11,2.5-14.37,10.07-.22,5.44"/>
    <path d="M203.84,205.01c-5.88,5.28-11.86,11.33-17.75,13.29"/>
    <path d="M200.47,196.95c-11.54,9.47-22.59,18.13-34.09,20.15"/>
    <path d="M210.07,177.19c-7.47,5.91-16.03,10.23-25.61,13.07"/>
    <path d="M207.76,181.65c-3.92,2.61-8.19,4.82-12.8,6.64"/>
    <path d="M204.39,163.79c-3.51,2.52-7.62,4.6-12.31,6.26"/>
    <path d="M207.98,163.9c-3.03,2.8-6.54,4.97-10.73,6.26"/>
    <path d="M198.24,138.12c4.04,2.54,8.44,4.36,11.83,6.43"/>
    <path d="M201.88,127.56c2.61,5.06,6.78,7.46,7.9,11.27"/>
    <path d="M207.82,120.15c-.05,4.52-.49,10.73-3.92,8.77"/>
    <path d="M210.06,125.27c-.76,3.02-.77,5.15,.44,5.85,.8-5.73,4.07-11,7.77-16.19"/>
    <path d="M210.66,138.12c3.48-16.93,16.76-21.02,9.03-14.59"/>
    <path d="M224.26,123.64c-3.37,1.77-6.33,3.89-8.66,6.53"/>
    <path d="M216.69,135.13c-2.01,3.92-4.03,5.23-5.96,7.05-1.67-1.49-4.77-2.42-7.87-4.27"/>
    <path d="M216.31,140.14c-2.27,1.4-4.39,2.99-5.44,5.99"/>
    <path d="M216.53,157.97c-2.08,3.05-4.23,5.59-6.59,6.86"/>
    <path d="M221.98,153.23c-2.51,4.84-5.22,9.12-8.39,12.09"/>
    <path d="M219.63,160.09c-1.36,3.97-5.66,11.6-8.28,12.2"/>
    <path d="M227.42,138.61c-2.89,37.24-21.62,37.32-7.9,36.23"/>
    <path d="M210.52,177.83c3.67,.77,9.15-.88,10.04,1.26"/>
    <path d="M210.85,184.17c3.23,.74,6.08-.84,7.7,.47"/>
    <path d="M232.73,190.63c-4-.48-13.02,.42-18.76-.92"/>
    <path d="M228.35,193.74c-4.85-.54-12.88-.08-15.79-1.2"/>
    <path d="M157.94,262.99c-2.29-2.19-6.78-3.65-11.62-4.98"/>
    <path d="M158.08,267.84c-3.88-.28-7.61,0-11.21,.83"/>
    <path d="M169.28,261.89c11.21-8.02,23.83-8.88,11.48-3.18"/>
    <path d="M164.22,269.55c3.83-3.11,8.86-3.89,14.33-3.78"/>
    <path d="M187.82,275.72c-5.26-3.32-16.05-4.15-22.83-2.35"/>
    <path d="M162.8,409.9c-3.32,3.87-16.46,1.52-20.61-2.63"/>
    <path d="M139.14,411.07c7.75,5.47,19.37,4.78,20.48,9.2,.63,2.53-3.33,.89-8.85-3.32"/>
    <path d="M160.61,428.2c-2.63,.15-4.35-1.56-5.55-4.34"/>
  </g>
  <g class="eye">
    <circle class="sclera" cx="192.4" cy="53.93" r="21.3"/>
    <g class="irisDarkBrown">
      <ellipse cx="207.89" cy="56.02" rx="3.47" ry="3.3" transform="translate(115.45 250.47) rotate(-79.66)"/>
      <ellipse cx="184.16" cy="51.85" rx="3.47" ry="3.3" transform="translate(100.08 223.7) rotate(-79.66)"/>
    </g>
    <g class="pupil">
      <ellipse cx="208.12" cy="56.06" rx="1.35" ry="1.28" transform="translate(115.6 250.73) rotate(-79.66)"/>
      <ellipse cx="184.38" cy="51.89" rx="1.35" ry="1.28" transform="translate(100.23 223.96) rotate(-79.66)"/>
    </g>
  </g>
  <g class="skinEastAsian">
    <path d="M213.55,267.89c-.21-.99-.05-1.95,1.44-3.16,1.31,.82,2.3,2.73,3.16,4.65-.46,1.06-.91,3.24-.86,4.48-1.28-.19-2.3-.43-3.02-.85-.68,0-.79,2.39-.63,5.25,1.71,1.24,5.57,1.89,8.21,1.13,1.38,.88,4.83,.63,5.46-.5,2.76-.13,3.28-2.89,4.52-6.59,1.38-4.14,2.15-7.96,1.63-9.29-1.94-6.14-4.84-13.91-4.63-17.56,1.6-15.64,5.78-36.34,4.04-48.22-3.78,1.16-17.6,.35-21.1-1.24-1.14,10.32,5.74,28.95,4.68,48.51,.24,3.7-5.3,4-7.77,15.26-.92,4.2-2.57,5.53,.06,11.29,.78-2.44,2.83-2.96,4.8-3.17Z"/>
    <path d="M220.48,70.69c-7.19,7-11.42,23.59-8.98,27.39,1.81,13.86-44.82,14.64-30.22-5.69"/>
    <path d="M133.5,248.49c1.3-.31,2.61-.4,4.1-.51,.09,1.9,.27,3.93,.18,5.49-2.53,.35-3.88,.23-4.22,2.1,.25,2.45,.85,4.43,1.74,5.34,1.13,1.16,3.5,2.19,5.62,3.58,.25-12.88,1.54-25.57,3.78-35.34h0c-4.88,9.91-10.09,7.97-11.2,19.33Z"/>
    <path d="M170.93,50.51c.3-10.99,3.44-10.45,9.61-29.05,25.24-20.46,60.37,11.72,53.91,36.18,3.74,4.42-2.82,15.43-4.02,16.54-2.11,1.94-4.6,6.84-7.9,3.2-6.86,11-14.13,14.95-24.49,17.27-4.89,1.1-7.3,1.9-13.77,.24-6.22-1.6-5.88-3.56-10.04-9.22-11.19-15.24-3.38-32.05-3.3-35.16Zm28.7,5.73c3.46,2.56,8.44,2.93,11.43,.98-1.35-1.95-3.37-3.37-5.73-3.91s-4.81,.48-6.47,2.05c-.71,.67,.41,.61,.77,.88Zm-12.35-2.55c-1.12-2.6-2.41-3.91-5.53-4.45-2.59-.45-4.96,.67-6.36,1.53,1.66,2.87,6.93,4.33,10.7,3.53,.44-.09,1.62,.4,1.19-.6Z"/>
  </g>
  <g class="skinOverlapLine">
    <path d="M221.85,279.39c2.64-1.24,2.81-6.53,3.71-10.5"/>
    <path d="M227.3,278.89c1.55-1.67,2.56-6.24,3.05-9.79"/>
    <path d="M141.14,258.01c-3.36-1.05-3.15-2.56-3.36-4.54,.14-2.42-.37-6.22-.23-8.73"/>
  </g>
  <g class="skinFoldLine">
    <path d="M213.48,262.65c.23,.9,.9,1.75,1.51,2.08"/>
    <path d="M215.33,275.21c.35-.77,.98-1.05,1.96-1.34"/>
    <path d="M229.12,64.07c4.38-8.39,6.08-.76,1.06,8.03"/>
    <path d="M227.89,67.72c1.31,2.48-2.5,6.06-.66,6.2,.77,.06,.18-1.51,2.23-3.95,1.68-2,1.62-6.34,.55-4.82"/>
  </g>
  <path class="lipMaleMedium__noStroke" d="M184.79,75.78c.91-.67,1.92,2.01,5.51,.8,2.55,.43,2.49,2.78,5.15,4.85-1.53,.52-3.18,4.2-8.44,2.72-5.79-1.63-4.66-4.86-5.69-5.78,2.76-.71,2.11-2.37,3.46-2.59Z"/>
  <path class="teeth" d="M192.91,79.72c-3.37-3.23-4.09,.86-7.51-2.2-.48,.25-.84,.37-1.17,.45,2.45,2,5.35,2.24,8.68,1.75Z"/>
  <g class="lipOverlapLine">
    <path d="M196.21,81.65c-1.29-.52-2.44-1.13-3.3-1.93"/>
    <path d="M184.92,76.8c.12,.24,.23,.47,.48,.72"/>
    <path d="M184.22,77.97c-2.1,.57-2.38,.05-3.47,.69"/>
  </g>
  <g class="lipEdgeLine">
    <path d="M190.31,76.58c-3.59,1.22-4.6-1.46-5.51-.8"/>
    <path d="M192.53,83.72c-4.27,2.01-9-.56-10.19-2.73"/>
  </g>
  <g class="cheekLine">
    <path d="M182.59,68.97c-.95,.55-2.38,1.83-2.84,2.95"/>
    <path d="M196.29,68.91c1.37,1.15,2.42,4.33,3.92,7.34"/>
  </g>
  <g class="noseLine">
    <path d="M184.05,66.63c-.87,.53-2.4,2.38-.63,4.37"/>
    <path d="M196.29,68.91c.89,.89,.52,3.73-2.05,4.2"/>
    <path d="M192.99,71.98c-1.48-.31-2.2,.8-4.7,.43-2.54-.38-3.05-1.58-4.09-1.94"/>
  </g>
  <g class="eyeFoldLine">
    <path d="M207.81,60.62c-2.74,1.21-6.41-.02-8.03-1.68"/>
    <path d="M184.71,56.2c-1.97,1.4-7.18,.57-8.88-1.71"/>
  </g>
  <g class="eyeCornerLine">
    <path d="M175.39,50.77c-.57,.22-1.38,.62-1.81,.75"/>
    <path d="M212.56,58.46c-.67-.33-1.13-.79-1.5-1.23"/>
  </g>
  <path class="eyeCreaseLine" d="M175.6,48.93c3.87-2.67,8.39-2.19,10.3,.04"/>
  <g class="eyebrowBlack">
    <path d="M197.44,43.77c3.32,6.68,14.01,2.32,18.22,9-3.19-8.84-12.55-4.87-18.22-9Z"/>
    <path d="M190.29,42.75c-4.27,4.68-10.21-2.46-16.94,2.31,5.47-6.27,9.56-1.64,16.94-2.31Z"/>
  </g>
  <path class="hairBlack" d="M206.65,41.49c.75,1.28,1.77,2.58,2.13,4.41-7.66-4.65-10.67,1.46-20.92-7.58,.58,1.68,1.75,3.42,1.47,4.96-1.43-3.21-11.13-4.83-8.31-18.89-1.43,7.05-2.59,15.34-12.95,16.72,3.98-6.02-1.21-10.21,5.77-17.39-1.63,.68-2.6,.93-4.6,1.14,5.39-2.84,3.79-10.26,17.52-16.97-.87-2.38-5.07-2.93-6.24-1.48,1.93-2.93,6.68-2.38,8.75,.39-.06-3.31,5.7-7.45,10.67-6.4-4.29,0-7.98,3.78-7.78,6.15,4.84-1.83,26.82-2.93,39.99,12.43,10.93,12.75,7.67,28.41,2.3,38.65-3.95-2.63-5.85,1.73-6.04,3.9-.94,.09-2.54-.51-3.31-.81,2.01-6.49,.21-5.94-1.85-12.45-6.76-4.79-9.94-1.77-16.6-6.8Z"/>
  <path class="hairOverlapLine" d="M223.25,48.29c1.59,.91,3.42,2.43,4.37,3.43"/>
</svg>