<svg viewBox="0 0 326.2 457.38">
  <g class="guitarCase">
    <polygon class="guitarCaseLight" points="142.91 262.69 35.81 263.18 35.81 371.35 142.91 368.8 142.91 262.69"/>
    <path class="guitarLeatherLight" d="M35.81,371.35A38.35,38.35,0,0,1,31,372a66.4,66.4,0,0,1-8,.05c3.56-3.45,1.93-66.33,1.83-106.21L2.33,263.4a12.68,12.68,0,0,1,4.87-.94l24.16-.09c5.85-.07,5.84,1.18,5.84,6.73,0,0-.32,72.68,0,96.9C37.23,368.26,37.1,370.4,35.81,371.35Z"/>
    <path class="guitarLeatherDark" d="M23,372.06,3.3,370.79a3.77,3.77,0,0,1-3-3.7V266.81c0-2,1.79-3.72,3.19-3.72H23.68a4,4,0,0,1,3.88,4.08V368.45C27.56,370.61,25.13,372.18,23,372.06Z"/>
    <path class="guitarCaseDark" d="M19.19,367.12,7,366.59a3.38,3.38,0,0,1-3.22-3.38V270.77a3.37,3.37,0,0,1,3.33-3.38H19.32a4,4,0,0,1,4.06,4v91.72A4,4,0,0,1,19.19,367.12Z"/>
    <path class="guitarHandle" d="M150.83,249.42c-4.48-2.12-15.69-2.13-20.27,0-2.52,1.17-3.42,7.57-3.83,11.81a19.34,19.34,0,0,1,6.08,0c.15-1.26.37-6.18,1.38-7,1.62-1.29,11.84-1.23,13.47,0Z"/>
    <g class="guitarBrassLight">
      <path d="M41.72,272.6c0,1.94,1.29,3.51,2.88,3.51a3.29,3.29,0,0,0,3.34-3.51,3.35,3.35,0,0,0-3.34-3.5C43,269.1,41.72,270.67,41.72,272.6Z"/>
      <path d="M41.72,363c0,1.94,1.29,3.51,2.88,3.51A3.29,3.29,0,0,0,47.94,363a3.35,3.35,0,0,0-3.34-3.5C43,359.46,41.72,361,41.72,363Z"/>
      <path d="M57,263.09v-1.5c0-1.59-13.49-1.37-13.48.21v1.35Z"/>
      <path d="M133.71,262.73v-.93c0-1-8.12-1-8.12,0v1Z"/>
      <path d="M125.18,262.77v-1.49c0-1.59-13.48-1.37-13.47.21v1.34Z"/>
      <path d="M52.1,260.15c-2,0-3.56.31-3.56,1.44l7.11,0C55.65,260.82,54.06,260.16,52.1,260.15Z"/>
      <path d="M120.28,259.85c-2,0-3.55.3-3.56,1.43l7.11,0C123.83,260.51,122.24,259.85,120.28,259.85Z"/>
    </g>
    <g class="guitarBrassMedium">
      <path d="M3.59,266.62a2.23,2.23,0,0,0,2.32,1.54,9.16,9.16,0,0,0,0,2.91c.2.84,1.16,1.34,2.58,1.32s2.59-.53,2.81-1.35a7.6,7.6,0,0,0,0-3,2.21,2.21,0,0,0,2.42-1.57,19,19,0,0,0,.11-3.4H3.47A17.2,17.2,0,0,0,3.59,266.62Z"/>
      <path d="M11.3,366a8,8,0,0,0,0-3,2.72,2.72,0,0,0-2.81-1.84c-1.94,0-2.47.8-2.69,1.66a8.3,8.3,0,0,0,.12,2.84,2.23,2.23,0,0,0-2.32,1.54,13.63,13.63,0,0,0-.09,3.54l10.26.66a17.13,17.13,0,0,0,0-3.86A2.21,2.21,0,0,0,11.3,366Z"/>
      <path d="M3.38,370.79A10.21,10.21,0,0,0,4,373.2c.36.68,1.21,1.05,2.7,1.05s2.43-.39,2.7-1.05a8.88,8.88,0,0,0,.44-2Z"/>
      <path d="M21.3,372a11.11,11.11,0,0,0,.73,2.77c.39.75,1.36,1.17,3,1.17s2.72-.43,3-1.17a11.84,11.84,0,0,0,.53-2.6C23.82,372.15,22.34,372,21.3,372Z"/>
    </g>
    <line class="caseBorderLine" x1="8.49" y1="262.92" x2="8.49" y2="371.1"/>
  </g>
  <g class="soleWhite">
    <path d="M156.12,450.63c0,2-.82,5.15-1.89,5.69-4.65,2.22-13.88-.76-19.7-1.05-11.47-.58-24.92-5.07-26.57-8.39-.2-4.46,7.37-9.54,11.06-9.36C132.88,433.52,148.13,441.05,156.12,450.63Z"/>
    <path d="M208.12,420.74a11,11,0,0,1,1.2,6.55c-.79,6.36-10.74,8.18-17.41,15.2-7.1,7.46-25.53,9.68-31.7,3.23-2-6.09,1.76-9.73,7.74-11.71"/>
  </g>
  <g class="bennettShoe">
    <path d="M159.63,422c-5.17,11.34.22,17.48-3.51,28.6-4.29,2.87-16.36-1-21.73-1.26-.39-7.61-7.53-12.18-15.37-11.85,7.62-2.52,16.3-12.66,20.92-23.56C146.58,408.44,153.24,415.23,159.63,422Z"/>
    <path d="M196.6,399.4c3.32,9.09,10.69,14.53,11.52,21.34-1.15,3.8-4.8,8-11.24,11.62-5.82,3.26-10.65,9-14.1,9.67-.73-7-9.12-8.94-14.83-8,4.51-4.14,5.9-9.33,8.72-16.12s2.61-12.35,1-18.89Z"/>
  </g>
  <g class="shoelace">
    <path d="M125.59,433.74c4.22.65,9,2.23,11.77,4.12a59.13,59.13,0,0,0,7.73-13c-2.6-1.37-6.94-2.84-9.38-2.84A48.23,48.23,0,0,1,125.59,433.74Z"/>
    <path d="M181.82,429.47a57.41,57.41,0,0,0,6.11-16.9,18.69,18.69,0,0,0-9.43-.93,28.92,28.92,0,0,1-1.83,6.25c-1.64,3.95-2.8,7.36-4.37,10.34A19.22,19.22,0,0,1,181.82,429.47Z"/>
  </g>
  <path class="converseLogo" d="M197.71,425.81c6.27-2.76,3.5-13.17-1.89-11.13C189.24,417.16,192.38,428.16,197.71,425.81Z"/>
  <g class="bennettJeans">
    <path d="M141.21,281.46l66.74,2c4.27-21.84,7-42,4.87-57l-67.1-1.26C141.75,239.25,140.12,261.62,141.21,281.46Z"/>
    <path d="M143,394.21c-.9,7.39-7.95,12.38-3.87,16.86-.72,2.16-2.44,4.36-1.24,7.17,2.5-4.83,12.24-2.84,10.35,2.15,2.79,4.57,7.81,7.57,9,13.33,2.7-.15,2.64-3,3.37-5.52,5.77-4.14,2-8.47,4-11.72,5.78-4.87,4.24-13.79,6.94-23.54,1.45,3.61,1.56,11.85,7.28,13.12-.67-6.5,8.53-6.14,9.25-3.15,4,1,8.72.46,12.16,3.52,2.34-3.07-5.06-9.52-4.33-13.49C177.45,390.65,159.6,390.27,143,394.21Z"/>
  </g>
  <g class="bassCase">
    <g class="brassMedium">
      <path d="M110,278.76c0-.82.7-2.32,1.52-2.3l-6.64-.16c-.82,0-1.5,1.48-1.52,2.3Z"/>
      <path d="M156.21,280c0-.82.7-2.41,1.52-2.39l-6.64-.16c-.82,0-1.5,1.56-1.52,2.38Z"/>
      <path d="M290.49,283.41c0-.82.7-2.38,1.52-2.36l-6.64-.17c-.82,0-1.5,1.54-1.52,2.36Z"/>
      <path d="M210.17,281.35c0-.63.49-1.87,1.08-1.92l-3.74-.09c-.64,0-1.17,1.24-1.19,1.91Z"/>
      <path d="M231.11,281.88c0-.62.49-1.83,1.08-1.87l-3.73-.1c-.65,0-1.18,1.21-1.2,1.88Z"/>
      <path d="M235.22,279.66c0,.14,0,2.19,0,2.33l5.17.13c0-.82.7-2.32,1.52-2.3Z"/>
    </g>
    <g class="brassLight">
      <path d="M110,278.76c0-.82.7-2.32,1.52-2.3l4.53.11c.82,0,1.47,1.56,1.45,2.38Z"/>
      <path d="M156.21,280c0-.82.7-2.41,1.52-2.39l4.53.11c.82,0,1.47,1.65,1.45,2.47Z"/>
      <path d="M210.17,281.35c0-.67.55-1.94,1.2-1.92l3.55.09c.65,0,1.16,1.31,1.14,2Z"/>
      <path d="M290.49,283.41c0-.82.7-2.38,1.52-2.36l4.53.11c.82,0,1.47,1.63,1.45,2.45Z"/>
      <path d="M240.38,282.12c0-.82.7-2.32,1.52-2.3l4.53.11c.82,0,1.47,1.56,1.45,2.38Z"/>
      <path d="M231.11,281.88c0-.67.56-1.89,1.2-1.87l3.56.08c.64,0,1.15,1.28,1.13,2Z"/>
    </g>
    <path class="handle" d="M234.58,271.74c-.85-2.53-2.5-3.13-5.18-3.42-2.06-1.44-13.07-1.88-15-.48-2.81.11-4.93.87-5.63,3.22a32,32,0,0,0-.77,8.28l5.73.15c-.31-4.64-.06-6.39.56-6.48,2.14,1.44,13.07,1.66,15,.48.7.12.74,2.24.37,6.45l5.59.14A32.67,32.67,0,0,0,234.58,271.74Z"/>
    <g class="caseDark">
      <path d="M113.25,400.09a23.9,23.9,0,0,0-4.47-3.46l-8.14.16a23.53,23.53,0,0,1,4,3.17,4,4,0,0,0,3,1.19l7-.15A4,4,0,0,1,113.25,400.09Z"/>
      <path d="M285.8,396.61a23.25,23.25,0,0,0-4.47-3.43l13.13-.26h0l-20.89.42a22.08,22.08,0,0,1,4,3.15,3.94,3.94,0,0,0,2.87,1.13l6.68-.14A3.74,3.74,0,0,1,285.8,396.61Z"/>
    </g>
    <g class="caseMedium">
      <path d="M87.28,387.29V288c0-5.31,3.45-8.82,11.09-9.39v-.08l-16.11.66a8.91,8.91,0,0,0-8.54,8.9v99.37a8.91,8.91,0,0,0,8.67,8.91l15.92.42v-.15C91.7,395.9,87.28,392.5,87.28,387.29Z"/>
      <path d="M108.78,396.63a23.9,23.9,0,0,1,4.47,3.46,4.11,4.11,0,0,0,3,1.19l7.78-.17a4.19,4.19,0,0,0,3.08-1.44,18.9,18.9,0,0,1,4.06-3.49Z"/>
      <path d="M281.33,393.18a23.25,23.25,0,0,1,4.47,3.43,3.9,3.9,0,0,0,2.87,1.14l7.44-.16a4,4,0,0,0,2.95-1.38,18.18,18.18,0,0,1,4.08-3.46Z"/>
    </g>
    <path class="brassDark" d="M82.51,387.52V287.88c0-5.26,4.71-8.83,9.95-9.11l-7.28.31c-4,.16-7.81,3.47-7.81,7.5V388.94c0,4.07,3.86,7.4,7.93,7.51l7.45.19C87.39,396.5,82.51,392.88,82.51,387.52Z"/>
    <path class="caseLight" d="M326,384.37V292.2a8.09,8.09,0,0,0-7.88-8.08l-217.39-5.59c-9.26,0-13.4,3.65-13.4,9.47v99.29c0,5.8,5.47,9.35,13.34,9.5L318,392.45A8.08,8.08,0,0,0,326,384.37Z"/>
    <g class="caseEdgeLine">
      <path d="M278.75,393.51c.92.28,2.6,3.35,4,3.35"/>
      <path d="M287,393.6c.92.28,2.6,3.36,4,3.36"/>
      <path d="M105.87,396.86c1,.28,2.72,3.5,4.16,3.5"/>
      <path d="M114.53,396.94c1,.29,2.71,3.5,4.16,3.5"/>
      <path d="M214.38,267.84c1.65.28,1.78,5.11-.11,5.17"/>
      <path d="M229.4,268.32c.74,1.08.65,4.25-.15,5.17"/>
      <path d="M98.37,278.53l-9.64.39c-4.59.19-8.83,3.35-8.83,7.94V388.59c0,4.65,4.32,7.83,9,8l9.45.25"/>
    </g>
  </g>
  <path class="shirtWhite" d="M144.24,227.22c5.07,2.39,8.48,9.06,19.41,10.9,20.46,3.44,35.1-13.59,53.17-9.11,9.84-74.39,9.45-136.43-43.1-129.7-24.35,12.7-28.89,74-28,102.82.12,4-3.46,6.45-.15,8.36.6,6.12-3.16,9.11-.15,11.35C146,224.68,143.79,225.13,144.24,227.22Z"/>
  <path class="bennettSleeves" d="M173.43,103c3.15,10.74,20.35,12.27,27.93,10,1.75,5.86,3.48,10.92,5.85,13.65a3.64,3.64,0,0,0,3.29,4.45c-1.73,4.38.89,5.26.24,11-1.46,2.15-.31,4.25-.33,17.6,0,3.62-3.07,6.59-.55,8.43.88,3.28-1.1,8,.66,9.63-1.43,2.41-1.31,4.53.33,6.34-1.59,2.76.33,7.33.11,11.05-.14,2.36,22.73,3.68,22.86,1.32-.76-2.3.62-4.68-1.09-5.91,1.23-2.33-.4-6.55.22-8.1,2.84-7.11-1.2-9.63-.44-13.13,1.86-12.69,2.63-32.26,1.53-41.67,3.51-11.71-15.53-23.09-22.54-29.65l-30.21-5.69c-28.78,13.35-22.7,18.39-25.44,30.54,2.72-3.56,2.57-8.44,6-9.18C164.66,112.3,169.36,107.93,173.43,103Z"/>
  <g class="clothesDisplayLine">
    <path d="M164.22,269.55c-3.13-4,1.16-5.79-.52-7-8.08-5.64-2.18-9-4.18-12.35-2.08-3.48,2-8.5.91-12.85"/>
    <path d="M167.62,238.58c1.47,2.33-2.67,6.5-1.31,9.75,1.74,4.17-.7,4.17.69,7.48s-1.6,5.47-5.35,5.13"/>
    <path d="M182.41,236.32c3.56,3,8.89,4.05,14.86,4"/>
    <path d="M150.43,231.82a7.25,7.25,0,0,1-5.52,2.59"/>
    <path d="M134.39,449.37c-9.14-.31-21.14-5.35-23.86-7.87"/>
    <path d="M182.78,442c-6.36,1.67-20.49,1.8-22.44-2.49"/>
  </g>
  <g class="clothesOverlapLine">
    <path d="M162.73,277.87a11,11,0,0,1,2.26-4.5c-1.66-.14-2.35-2.21-.77-3.82"/>
    <path d="M148.25,420.39c-1.93.22-2.08,2.42-3.16,4.47"/>
    <path d="M134.39,424c2.54.13,6.61,1.57,9.68,3.13"/>
    <path d="M132.92,426.05a27.24,27.24,0,0,1,10,3.4"/>
    <path d="M131.46,427.88c2.93.15,7.41,2.06,10.17,3.75"/>
    <path d="M130,429.6a27.55,27.55,0,0,1,10.28,4.22"/>
    <path d="M128,431.63a28,28,0,0,1,10.88,4.18"/>
    <path d="M187.93,412.57c.44-4-1.14-7.79.11-9.66"/>
    <path d="M187.26,415.68a25.3,25.3,0,0,0-9.45-1"/>
    <path d="M186.45,418.57a31.11,31.11,0,0,0-9.57-1.21"/>
    <path d="M185.47,421.43a32.51,32.51,0,0,0-9.77-1.15"/>
    <path d="M184.37,424.19a30.17,30.17,0,0,0-9.71-1.27"/>
    <path d="M183.16,426.85a26.43,26.43,0,0,0-9.55-1.37"/>
  </g>
  <g class="clothesFoldLine">
    <path d="M161.73,105.74a28.84,28.84,0,0,0-3.07,11.37"/>
    <path d="M167.82,113c-2.61.11-6.31.7-7.08,1.22a30.08,30.08,0,0,1,5.39-10.75"/>
    <path d="M166.19,114.93a9.35,9.35,0,0,0-5.39,1.36"/>
    <path d="M161.14,131.75c4.79,2.48,12.08,4.15,18.42,5.34"/>
    <path d="M189.91,141.33c-7.85-1.08-16.65-2.54-22.94-4.62"/>
    <path d="M155.53,157a32.85,32.85,0,0,0,11.16.55"/>
    <path d="M170.79,159.36c-2.66,1.09-16.62.65-19-.55"/>
    <path d="M176.46,176.42c-9.73,3.39-20.72,5-29.64,3.11"/>
    <path d="M164.53,182c-5.73,1.24-12.95,1.5-18.47-.55"/>
    <path d="M147.76,208.39c2.68,1.54,8-.33,12.2-1.09"/>
    <path d="M145.58,210.49c1.91,1.3,4.43,1.26,7.24.62"/>
    <path d="M145.43,221.84c10.72,8.92,28.71,10.42,45.29,6.15"/>
    <path d="M179.51,233.05c-3.16,1.15-21,.38-23.64-1.58"/>
    <path d="M154.62,223.41c7,3.19,15.14,3.57,24,2.29"/>
    <path d="M178.36,216.39c-2.34,2.29-15.79,5.66-19.49,3.32"/>
    <path d="M215.08,223a85.88,85.88,0,0,0-17.5,2.22"/>
    <path d="M214.74,220.72c-8.25-.75-17.45,1.37-27.12,4.93"/>
    <path d="M213.55,213.74c-10.25.47-18.53,4.45-25.93,7.17"/>
    <path d="M210.76,205.17c-8.11,2.51-14.38,10.08-.22,5.45"/>
    <path d="M203.84,205C198,210.29,192,216.34,186.09,218.3"/>
    <path d="M200.47,197c-11.54,9.48-22.59,18.13-34.09,20.15"/>
    <path d="M210.07,177.19a75.27,75.27,0,0,1-25.61,13.06"/>
    <path d="M207.76,181.65A68.42,68.42,0,0,1,195,188.29"/>
    <path d="M204.39,163.79a48.38,48.38,0,0,1-12.31,6.26"/>
    <path d="M208,163.9a27.62,27.62,0,0,1-10.72,6.26"/>
    <path d="M198.24,138.12c4,2.54,8.44,4.36,11.82,6.43"/>
    <path d="M201.88,127.56c2.62,5.06,6.78,7.46,7.9,11.27"/>
    <path d="M207.82,120.15c-.06,4.52-.49,10.73-3.92,8.77"/>
    <path d="M210.06,125.27c-.76,3-.77,5.15.44,5.85.8-5.73,4.07-11,7.77-16.19"/>
    <path d="M210.66,138.12c3.48-16.93,16.76-21,9-14.59"/>
    <path d="M224.26,123.64a29.88,29.88,0,0,0-8.65,6.53"/>
    <path d="M216.69,135.13c-2,3.92-4,5.22-5.95,7-1.67-1.49-4.77-2.41-7.88-4.27"/>
    <path d="M216.31,140.14c-2.26,1.4-4.39,3-5.44,6"/>
    <path d="M216.53,158c-2.07,3.05-4.23,5.58-6.59,6.86"/>
    <path d="M222,153.23c-2.52,4.84-5.23,9.12-8.39,12.09"/>
    <path d="M219.63,160.09c-1.36,4-5.66,11.6-8.27,12.2"/>
    <path d="M227.42,138.61c-2.88,37.25-21.62,37.32-7.89,36.23"/>
    <path d="M210.52,177.83c3.67.77,9.15-.89,10,1.26"/>
    <path d="M210.85,184.17c3.23.75,6.08-.83,7.7.48"/>
    <path d="M232.73,190.63c-4-.48-13,.42-18.76-.92"/>
    <path d="M228.35,193.74c-4.85-.55-12.89-.08-15.79-1.2"/>
    <path d="M157.94,263c-2.29-2.19-6.78-3.64-11.62-5"/>
    <path d="M158.08,267.84a37.53,37.53,0,0,0-11.21.83"/>
    <path d="M169.28,261.89c11.21-8,23.83-8.88,11.48-3.18"/>
    <path d="M164.22,269.55c3.83-3.12,8.86-3.9,14.33-3.79"/>
    <path d="M187.82,275.72c-5.26-3.32-16-4.15-22.83-2.35"/>
    <path d="M162.8,409.9c-3.32,3.87-16.46,1.52-20.61-2.63"/>
    <path d="M139.14,411.07c7.75,5.47,19.37,4.77,20.48,9.2.63,2.53-3.33.89-8.86-3.32"/>
    <path d="M160.61,428.2c-2.63.15-4.36-1.55-5.56-4.33"/>
  </g>
  <g class="eye">
    <circle class="sclera" cx="192.4" cy="53.93" r="21.3"/>
    <g class="irisDarkBrown">
      <ellipse cx="207.89" cy="56.02" rx="3.47" ry="3.3" transform="translate(115.45 250.47) rotate(-79.66)"/>
      <ellipse cx="184.16" cy="51.85" rx="3.47" ry="3.3" transform="matrix(0.18, -0.98, 0.98, 0.18, 100.08, 223.7)"/>
    </g>
    <g class="pupil">
      <ellipse cx="208.12" cy="56.06" rx="1.35" ry="1.28" transform="translate(115.6 250.73) rotate(-79.66)"/>
      <ellipse cx="184.38" cy="51.89" rx="1.35" ry="1.28" transform="translate(100.23 223.96) rotate(-79.66)"/>
    </g>
  </g>
  <g class="skinEastAsian">
    <path d="M213.55,267.89c-.21-1-.06-1.95,1.44-3.16,1.31.82,2.3,2.73,3.16,4.65a13.32,13.32,0,0,0-.87,4.48,8.41,8.41,0,0,1-3-.85c-.68,0-.79,2.38-.63,5.25,1.71,1.24,5.57,1.89,8.21,1.13,1.38.88,4.83.62,5.45-.5,2.77-.13,3.29-2.89,4.52-6.59,1.38-4.14,2.15-8,1.63-9.29-1.94-6.14-4.83-13.91-4.63-17.56,1.6-15.64,5.78-36.34,4-48.22-3.78,1.16-17.6.36-21.09-1.23-1.14,10.31,5.74,28.95,4.68,48.51.24,3.7-5.3,4-7.77,15.26-.92,4.21-2.57,5.54.07,11.29C209.52,268.62,211.57,268.1,213.55,267.89Z"/>
    <path d="M220.48,70.69c-7.19,7-11.43,23.58-9,27.39,1.81,13.86-44.81,14.64-30.21-5.69"/>
    <path d="M133.5,248.49a25.66,25.66,0,0,1,4.1-.51c.09,1.9.27,3.93.18,5.5-2.53.34-3.88.22-4.22,2.1.25,2.45.85,4.43,1.74,5.34,1.13,1.16,3.5,2.18,5.62,3.58.26-12.88,1.55-25.57,3.78-35.33h0C139.83,239.07,134.61,237.14,133.5,248.49Z"/>
    <path d="M170.93,50.51c.3-11,3.43-10.45,9.61-29C205.78,1,240.91,33.18,234.45,57.65c3.74,4.42-2.82,15.43-4,16.54-2.11,1.93-4.6,6.84-7.91,3.19-6.85,11-14.12,15-24.48,17.28-4.9,1.1-7.3,1.9-13.77.24-6.22-1.6-5.88-3.56-10-9.22C163,70.44,170.85,53.63,170.93,50.51Zm28.7,5.73c3.46,2.56,8.44,2.93,11.43,1a9.62,9.62,0,0,0-5.73-3.91,7.31,7.31,0,0,0-6.47,2C198.15,56,199.27,56,199.63,56.24Zm-12.35-2.55c-1.11-2.6-2.41-3.91-5.52-4.45a9.44,9.44,0,0,0-6.37,1.53c1.66,2.86,6.94,4.32,10.71,3.52C186.53,54.2,187.71,54.69,187.28,53.69Z"/>
  </g>
  <g class="skinOverlapLine">
    <path d="M221.85,279.39c2.63-1.25,2.8-6.54,3.71-10.5"/>
    <path d="M227.3,278.89c1.56-1.68,2.57-6.25,3.06-9.79"/>
    <path d="M141.14,258c-3.36-1-3.15-2.56-3.36-4.53.14-2.43-.37-6.22-.23-8.73"/>
  </g>
  <g class="skinFoldLine">
    <path d="M213.48,262.65a3.52,3.52,0,0,0,1.51,2.08"/>
    <path d="M215.33,275.21c.35-.77,1-1,1.95-1.35"/>
    <path d="M229.12,64.07c4.38-8.4,6.08-.77,1.06,8"/>
    <path d="M227.89,67.72c1.31,2.48-2.5,6.06-.66,6.2.77.06.19-1.5,2.23-3.94,1.69-2,1.62-6.34.55-4.82"/>
  </g>
  <path class="lipMaleMedium__noStroke" d="M184.79,75.78c.91-.67,1.93,2,5.52.8,2.55.43,2.48,2.78,5.15,4.84-1.53.52-3.18,4.21-8.44,2.73-5.8-1.63-4.66-4.86-5.69-5.79C184.08,77.65,183.44,76,184.79,75.78Z"/>
  <path class="teeth" d="M192.91,79.72c-3.37-3.23-4.09.86-7.51-2.2a4.84,4.84,0,0,1-1.18.45C186.67,80,189.58,80.21,192.91,79.72Z"/>
  <g class="lipOverlapLine">
    <path d="M196.21,81.65a10.49,10.49,0,0,1-3.3-1.93"/>
    <path d="M184.92,76.8a2.32,2.32,0,0,0,.48.72"/>
    <path d="M184.22,78c-2.1.57-2.38,0-3.46.69"/>
  </g>
  <g class="lipEdgeLine">
    <path d="M190.31,76.58c-3.59,1.21-4.61-1.47-5.52-.8"/>
    <path d="M192.53,83.72c-4.27,2-9-.56-10.19-2.73"/>
  </g>
  <g class="cheekLine">
    <path d="M182.59,69a7.68,7.68,0,0,0-2.84,3"/>
    <path d="M196.29,68.91c1.37,1.15,2.41,4.33,3.92,7.34"/>
  </g>
  <g class="noseLine">
    <path d="M184.05,66.63a2.79,2.79,0,0,0-.63,4.38"/>
    <path d="M196.29,68.91c.89.89.52,3.73-2,4.2"/>
    <path d="M193,72c-1.48-.31-2.2.8-4.69.43s-3.05-1.58-4.1-1.94"/>
  </g>
  <g class="eyeFoldLine">
    <path d="M207.81,60.62c-2.74,1.21-6.41,0-8-1.68"/>
    <path d="M184.71,56.2c-2,1.39-7.19.57-8.88-1.71"/>
  </g>
  <g class="eyeCornerLine">
    <path d="M175.39,50.77c-.56.22-1.38.62-1.8.74"/>
    <path d="M212.56,58.46a4.61,4.61,0,0,1-1.5-1.24"/>
  </g>
  <path class="eyeCreaseLine" d="M175.6,48.93c3.86-2.67,8.39-2.18,10.3,0"/>
  <g class="eyebrowBlack">
    <path d="M197.44,43.77c3.33,6.68,14,2.32,18.22,9C212.47,43.93,203.12,47.9,197.44,43.77Z"/>
    <path d="M190.29,42.75c-4.28,4.68-10.21-2.46-16.94,2.31C178.82,38.8,182.91,43.43,190.29,42.75Z"/>
  </g>
  <path class="hairBlack" d="M206.65,41.49a13.52,13.52,0,0,1,2.13,4.41c-7.65-4.65-10.66,1.46-20.92-7.58.57,1.68,1.75,3.42,1.47,5-1.44-3.21-11.13-4.83-8.31-18.89-1.43,7.05-2.59,15.34-13,16.72,4-6-1.22-10.21,5.77-17.38a13.88,13.88,0,0,1-4.6,1.14c5.39-2.85,3.79-10.26,17.52-17-.87-2.38-5.07-2.93-6.24-1.48,1.93-2.92,6.67-2.38,8.75.39C189.21,3.51,195-.64,199.94.42c-4.29,0-8,3.78-7.78,6.15C197,4.74,219,3.64,232.15,19c10.93,12.75,7.67,28.41,2.3,38.65-4-2.63-5.85,1.73-6,3.9a9.7,9.7,0,0,1-3.3-.81c2-6.49.21-5.94-1.85-12.45C216.5,43.5,213.31,46.52,206.65,41.49Z"/>
  <path class="hairOverlapLine" d="M223.25,48.29a21.79,21.79,0,0,1,4.38,3.42"/>
</svg>
