<svg viewBox="0 0 182.78 462.26">
  <g class="robitussin">
    <polygon class="labelWhiteMedium" points="142.08 142.02 137.85 140.96 169.53 117.38 174.85 117.63 142.08 142.02"/>
    <polygon class="labelWhiteLight" points="150.05 153.55 142.08 142.02 174.85 117.63 182.44 129.45 150.05 153.55"/>
    <g class="labelText">
      <polygon points="156.45 146.67 150.51 137.92 174.36 120.17 180.09 129.07 156.45 146.67"/>
      <polygon points="155.15 147.63 149.19 138.9 144.48 142.41 150.47 151.11 155.15 147.63"/>
    </g>
    <polygon class="labelLightGreen" points="158.6 125.52 163.54 126.05 142.08 142.02 137.85 140.96 158.6 125.52"/>
    <path class="labelDarkPurple" d="M144.37,136.57c-2.33,1.73-3.49,3.31-2.58,3.52s3.63-1,6-2.82,3.52-3.37,2.53-3.54S146.7,134.84,144.37,136.57Z"/>
    <polygon class="labelDarkGreen" points="150.82 131.77 154.43 132.34 160.41 127.89 156.65 127.44 150.82 131.77"/>
    <polygon class="labelBlack" points="158.6 125.52 163.54 126.05 172.8 119.16 167.54 118.86 158.6 125.52"/>
    <polygon class="labelLightPurple" points="160.78 123.89 165.81 124.37 170.54 120.85 165.36 120.49 160.78 123.89"/>
  </g>
  <g class="soleWhite">
    <path d="M105.72,438c2.08.6,12.41,1.6,10.63,11.81-3.21,3.11-18.74,4.44-31.73,1.76-5.51-1.14-17.79.74-22-3.88-1.16-2.2-.81-3.8-.55-6.38C76.55,436.33,94,434.12,105.72,438Z"/>
    <path d="M26.39,448.78c-.54,1.86-.45,5.29.23,6.12.71,1.43,4.25,2,6.17,3.31,8.92,6.12,32.9,3.9,34.35,0C69,454.93,67,447.84,61.07,446,51.42,438.22,35.08,441.9,26.39,448.78Z"/>
  </g>
  <g class="bennettShoe">
    <path d="M84.24,408.5C83,418.36,86.76,423.09,90,427.18c3.89,4.9,10.88,8.75,15.71,10.79-5.32.09-12.12,3.29-12.12,8.48-5.12-.26-10.58-.95-15.74-1.13-4.84-.16-14.17-1.26-15.77-4-1.29-5.85,4.63-18.14,3-28.55C69.48,408.8,78.36,405.54,84.24,408.5Z"/>
    <path d="M30.77,421c1.72,12-3.43,17.06-4.38,27.81.6,1.2,3.16,2.18,5.42,2.82,1.67.47,6.44,1.78,7.68,2.39,1.8-7.95,13.26-10.25,21.58-8-5.67-4.81-11.71-15.91-11.71-28.08C46.07,409.52,33.27,410.86,30.77,421Z"/>
  </g>
  <g class="shoelace">
    <path d="M90,427.18a42.68,42.68,0,0,1-4.43-6.11,20.54,20.54,0,0,0-6.47,1.29c2.81,7.64,4,10,10.37,14.36a71.5,71.5,0,0,1,9.17-2.36C95.59,432.34,92.46,430.27,90,427.18Z"/>
    <path d="M37.88,428.06c3.5-1.47,8.19-1.23,11.51-.59a46.8,46.8,0,0,0,3.83,13.08c-4.16-.27-8.57-.23-12.41,1A33.13,33.13,0,0,1,37.88,428.06Z"/>
  </g>
  <path class="converseLogo" d="M72,440.12c5.46.66,6.42-10.63.56-11.5C67.06,427.8,66.15,439.4,72,440.12Z"/>
  <path class="bennettJeans" d="M84.27,224.75c.43,10.57,8.55,11,4.12,57-4.21,43.67,4.83,41-1,48.61-1.89,3.09,4.73,4.46-.35,11.08,1.66,20.31-.94,30.94-.91,40.39.06,24,3.17,25.57-2.64,32.91-.6-2.82-5.19-1.54-5.07,3.32-4.63.68-9.51,4-13.67,5.54-1.47-.68-2.58-1.65-1.79-3.61-7.21-2.55-.62-6.88-4.12-9.87-4-3.45.1-19.61-1.87-33.86-3.18-23,.83-25-3.3-37.32a28.51,28.51,0,0,0-1.44,9.14,239.54,239.54,0,0,1-1.56,36.2c-2.68,23.8,3.71,24.34-.48,32-.78,1.43,4,2.31-.43,6.83-.79-5.17-9.89-5.2-11.85,1.25-3.27-.58-4.76,3.48-6.87,3.85-1.77-6.65-9.76-5.74-5.49-12.89-10-4.72-2-8.14-4-25.86-1.93-17.51-2.65-33.68-1.08-47.15-3-2.34-.14-5.2.72-8.05-5.25-3.71-.34-10.11-1.44-20.57-2.31-21.92-12.49-65.92-4.43-89.1Z"/>
  <g class="bennettHoodie">
    <path d="M85.75,173.5c1,3,1.14,5.84-1,8.49-.19,5.22,9.76,10,3.69,24.17-1.83,4.76,2.85,6.52-2.56,10.73-1,4.33.44,7.4-.32,9.76-4.12,5.06-49.78,5.25-71.11,0-.89-.31.45-5.29.35-11.85-2.15-4.56,1.36-5.73.48-9.28-2.34-4.55.59-6,.16-8.64-1.81-3.42,2.48-3.71.8-12-3.39-4.29.15-9.6-2.56-13-3.86-3.52-.14-6.1-1.42-9.47-2.63-6.93-1.45-14.78-3.23-25.11-.93-5.44.79-11.48,2.87-17.13,1.9-23,26.17-24.47,45.88-23,6.88,1.79,14.68,1.69,19,10.87,2.4,4.87,8.72,8.3,10.09,12.55,1,2.37,3.86,4.33,3.5,6.21,1.29,2.21,5,5.31,6.34,8.15,1.75-.5,2.86,0,3.23,1.56.9-3,2.85-.67,3.62-3.37-.09-5.59,2.53-4,3.42-6,1.08-2.34-.68-3.12,1.37-4.37-1.59-3.26-.62-5.23,2.33-6.21-1.16-1.72-.09-4.94,2.72-4.27,1.67-1.78,2.56-6.32,3.88-11.13.73-2.68,15.43,2.93,15.07,5.68-.53,4.12-3,6.54-3.69,11.27,2.2,2.38,1.94,7.86-2.45,8.28,1.74,2.37,2,4.56-.78,6.34-4.49,6.51,1.46,7.48-4.66,13.59a12.59,12.59,0,0,1,2.73-1.1c3.42-.47,6.44,14.43,3.08,15.23-3,.73-9.44,1.3-12.54,4-2.25,7.74-7.15,11.58-16.8,7.13C93.18,174.92,90.15,170.43,85.75,173.5Z"/>
    <path d="M11.93,120.19C15.27,108.29,24.4,100.67,32.8,106c7.22,4.55,13.83,4.57,22.48,1.25C66,99.49,61,85.62,20.5,94.31,13.9,95.86,12,93.92,8.07,96.9c-2.85,2.19-3,9.19,2.58,14.89C9.6,115.83,9.74,118.88,11.93,120.19Z"/>
  </g>
  <path class="bennettHoodieInner" d="M54.38,105.46c5.1-1.82,4-13.65-3.14-14.48-9.76-1.13-19.69-1.29-26-.6-3.62.39-6.67,3.94-7.94,9.2C28.84,98.14,43.14,108.14,54.38,105.46Z"/>
  <g class="zipperDisplayLine">
    <path d="M55.28,107.21c3.14,3.31,3.54,7.21,5.6,9.67,5.82,7,10.93,11.89,10.85,23.63,0,3.56,2,5.67,1.61,8.33"/>
    <path d="M73.08,173.6c3.09,8.49-1.32,10.32-.09,13.63,3.63,9.81,7,16.53-.92,27.57-.51,4.75-3.07,2.44-2.13,15.27"/>
  </g>
  <g class="hoodieLace">
    <path d="M75.31,126.39l2.32,5.5c.12.3-1.14.81-1.26.51L74,126.87Z"/>
    <path d="M59.42,104.57c4.19,4,5,7.07,8.09,10.94,2.23,2.78,6,5.82,8,10.58.33.53-1.4,1.34-1.84.77-2.07-4.49-5.16-7.09-7.42-9.92-3-3.7-4-7.17-8-11.12Z"/>
    <circle cx="58.18" cy="104.45" r="1.74"/>
    <path d="M59.14,131.11l1.34,5.82c.07.31-1.26.59-1.33.27l-1.34-5.84Z"/>
    <path d="M49.46,108.61A35.17,35.17,0,0,1,55,120.71c1.06,3.91,3.76,7.05,4.42,10.13.12.6-1.71,1.12-1.93.43-.71-3.07-3.11-6-4.16-9.64a39.65,39.65,0,0,0-5.46-12.25Z"/>
    <circle cx="48.34" cy="108.08" r="1.74"/>
  </g>
  <g class="clothesDisplayLine">
    <path d="M64,230.38c1.11,3.62-1.17,7.64,0,11.5,1.52,5-1,6-.14,9.94,1.25,5.8-1.1,7.59-1.65,12.7,7.64-2.11,9.62-7.28,8.83-13.66-.56-4.58,2.49-3.73.69-10.36-1-3.55,2-6-.31-10.54"/>
    <path d="M79.4,229.94c1.25,3.59,3.93,5.62,6.91,7"/>
    <path d="M52,232.08c-3,5.32-10,8.17-23.33,7"/>
    <path d="M93.6,446.45c7.28.39,17.92-.37,21.8-3.33"/>
    <path d="M39.49,454c8.2,2.56,23.88,1,27.84-1.56"/>
  </g>
  <g class="clothesOverlapLine">
    <path d="M120.82,146.39a41,41,0,0,1-9.19,1.9c-2.44-2.95-3-1.18-4.46-1s-2.48-1.39-3.33,2.09c-3.52.6-7.89-3.28-11.36,1.22-4.58-3.21-7.46,1.46-8.62.2-2.16-1.82-2.84-.57-4.8-.92-2.32-.42-4.07-3.18-7.78.43-.27-1.69-1.72-2.21-3.87-2,.62-5.85-3.63-5.86-6.93-7.64-1.54-.84-1.21-3.07-3.43-3.4-6.6-4.55-6.29-8.76-9.09-8.32-1.11-5.25-6.55-6.46-11.47-7.47"/>
    <path d="M111.63,148.29c2.64,3.37,3.84,11.57,2.46,16.22-4.73,6.84-6.08,3.19-10.1,5.05s-5.76,1.1-6.7,2.08"/>
    <path d="M85.75,173.5c-4.8,2.22-8.06.62-12,.14-2.61-.33-4.56,1.59-6.75-.1-1.39-1.59-3.38-.26-5-.8-1.24-.42-1.3-1.85-3.18-2.78-9.23-4.57-12.29-8.15-21.45-13.21-12.22-6.75-21-17.28-22-14.9"/>
    <path d="M85.91,216.89c-7.68,4.89-18.69,4.91-31.62,2.14-15.11-.37-29.42-1.17-39.46-4.23"/>
    <path d="M85.54,184.87c-6.25,2.47-20.79,3.38-30.22,2.24,1,9.66.92,20.63-7.61,21.36-2.82.24-3,4.71-2.74,10.26"/>
    <path d="M73.34,113c1.8,2,4.92,3.2,5,7.79,1.44,1.36,2.33,2.88,1.48,4.92A40.1,40.1,0,0,1,83,138.14c.16,3.2-.17,6.07,3.14,12.19"/>
    <path d="M113.45,112.36c.68,2.9,11.12,8,15.26,5.82"/>
    <path d="M62.21,264.52c-9,60.88-3.59,58.53-7.6,67.09a12.38,12.38,0,0,1-1,7.34"/>
    <path d="M80.17,425.16c2.39-.74,5.24-1.66,7-1.54"/>
    <path d="M81.25,427.71A26,26,0,0,1,89,426"/>
    <path d="M82.56,430.15a24.13,24.13,0,0,1,8.32-1.94"/>
    <path d="M84.21,432.34a26.56,26.56,0,0,1,8.57-2.26"/>
    <path d="M86.56,434.56a20.84,20.84,0,0,1,8.82-2.43"/>
    <path d="M78.39,418.07c.72,1.56.39,3,.72,4.29"/>
    <path d="M37.88,424.36c.14.8,0,2.17,0,3.7"/>
    <path d="M39.91,439.37a33.91,33.91,0,0,1,12.33-1"/>
    <path d="M39.18,437.15a33.3,33.3,0,0,1,12.3-.87"/>
    <path d="M38.61,434.8a38.38,38.38,0,0,1,12.17-.8"/>
    <path d="M38.24,432.64a42.29,42.29,0,0,1,12-.84"/>
    <path d="M38,430.31a29.1,29.1,0,0,1,11.84-.41"/>
  </g>
  <g class="clothesFoldLine">
    <path d="M88.47,206.16a8.6,8.6,0,0,1-3.51,3"/>
    <path d="M84.13,194.15c-5.41,4.22-11.89,4.53-19.31,1.46"/>
    <path d="M81.83,212.73a30,30,0,0,1-19.3,1.56"/>
    <path d="M47.71,208.47c3.23.81,6.9,2.78,9.81,2.48"/>
    <path d="M15.31,205.52c9.34,4.91,30.42,3.87,18.94,7.21"/>
    <path d="M15.47,196.88c5.63,3.85,18.36,6.87,7.4,6.56"/>
    <path d="M38.63,203.86c-4.86-2.09-10.38-4.1-9.91-6.79.41-2.4,3.86,2.51,23.06,3.76"/>
    <path d="M13.71,171.9c9.16,4.72,16.43,3.2,17.93,5.76.79,1.37-2.34,2.44-8.14,3.13"/>
    <path d="M13.58,144.79a10.57,10.57,0,0,0,9.67,1.91"/>
    <path d="M17.76,149.69a11.7,11.7,0,0,0,6.81-1.91"/>
    <path d="M26.11,163.05c9.81,8,30.25,9.92,30.16,13.15-.11,3.55-15.15.87-30.37-4.49"/>
    <path d="M41.34,193.32c4.09-2.45,9-2.19,14.39-.52"/>
    <path d="M78.7,183.4c-14.5,5.22-46.33-7.3-33.5,1.25"/>
    <path d="M22.77,140.09c5.61,4.58,12.45,4.52,20,1.67"/>
    <path d="M25.27,121.31a14.65,14.65,0,0,0-6.36,3.23c2-10,19.51-8.76,21.42-2.18"/>
    <path d="M10.65,111.79c1.68-3.53,4.39-6.55,2.72-9.06"/>
    <path d="M17.3,99.58c-3,.86-10.89,0-5.15-2.59"/>
    <path d="M41.13,119c-7.09-5.84,5.95-3.13,7.8,10"/>
    <path d="M48,128.94c-5.16-1-12.23,1.07-5-1.79"/>
    <path d="M57.05,137.26a5.9,5.9,0,0,0-4.44,1.16"/>
    <path d="M60.34,145c-3.73.2-7.1,1.67-6.16,2.92,2.08,2.78,8.76-5.64,13.23.38a10.85,10.85,0,0,0-4.88,3.9"/>
    <path d="M71.28,150.33c-2.42,2.1-4.22,4.3-4.89,6.67"/>
    <path d="M73,154.7C70.7,158.89,69.21,163,69.41,167"/>
    <path d="M76.3,140.41c-3.84.41-7.48.67-10.85.73"/>
    <path d="M92.48,150.62a8.52,8.52,0,0,1-3.65,2.73"/>
    <path d="M86.22,126.42c-1.61,1.82-3.23,3.16-4.89,3.47"/>
    <path d="M85.49,132.79a5,5,0,0,1-2.82,2.31"/>
    <path d="M96.76,135c-3.55,1.23-8.46,5.3-13.66,5.41"/>
    <path d="M86.32,143.64c2.82-1,4.73,1.37,3.61,5.89"/>
    <path d="M100,136.56c-3.3,2.29-3.15,6.72-1.56,12"/>
    <path d="M98.26,138.42c-3.23-1.81-5.47,3.55-4.74,11.11"/>
    <path d="M101.66,142.49a21.54,21.54,0,0,0,2.18,6.91c3.59,2.7,5.23,8.54,1.16,14.17"/>
    <path d="M103.61,133.19c1.08,3.5,3.49,6.64,6.5,9.62"/>
    <path d="M112.41,134.88a31.13,31.13,0,0,1,6.68,9.07"/>
    <path d="M108.4,122.84c4.11,5.77,9.08,5.92,8.81,6.71s-5.75-.89-6.68.11"/>
    <path d="M110.73,116.63c2.1,3.43,9,4.57,8.25,6.45-.42,1.08-3.53-.11-7.3-1.88"/>
    <path d="M126.26,126.46c-2.12-.46-3.56-.22-2,3.2"/>
    <path d="M125.48,132.8c-5,1.76-13.36-3.5-6.18,4.48"/>
    <path d="M16.27,184.87c7,2.88,14.91-2.33,17.24-.51,3.24,2.54,8.54,2.22,7.31,3.5-2.76,2.86-10.28,3.6-15.15,2.43"/>
    <path d="M57.24,264.11a92.73,92.73,0,0,0-16.15,2.21"/>
    <path d="M57.24,269.77A40.17,40.17,0,0,0,45.5,279"/>
    <path d="M73.11,260.38s5.6.28,8.36,1.52"/>
    <path d="M70.49,266a45.8,45.8,0,0,1,8.09,6.49"/>
    <path d="M85.06,323.05c-2.19,7.2-13.33,6.63-21.61-3.86"/>
    <path d="M38.32,315.6c-3.38,5.5-7.85,9.54-14.12,8.28"/>
    <path d="M21.19,334.26c3.14,1.91,7.51,2.7,3.14,6.32"/>
    <path d="M48.54,343.76c-5.11-6.21-17.26.41-21.12,3.86"/>
    <path d="M54.61,331.61c-3.86,3.73-9.85,3.13-5.79,8.7"/>
    <path d="M51.16,327.47c-6.16,5.77-13.92,10.2-17.67,8.28-11-5.66-3.31-5.93.42-9.52"/>
    <path d="M77.88,347.49a14.77,14.77,0,0,0-16.23-3.18"/>
    <path d="M58.2,332.85c3.11-5.42,8.66-5.18,14.85-1.24,3.45,2.2-2,4.75-12.5,7.73"/>
    <path d="M84.37,338.79c-1.38-2.72-5.15-3.4-10.21-.14-1.81,1.17,5,6.49,9,2.21"/>
    <path d="M60.5,405.19c6.59,4.31,12.94,6.14,18.41,3.31,4.61-2.38,5.66-3.56,1.46-5.11"/>
    <path d="M61.88,416.78c9.23-.94,9.55-2.75,2.12-5.24"/>
    <path d="M47.57,410.43c-6.29,2.39-14.2,1.16-22.41-2.48"/>
    <path d="M25.52,415.32c3.23-.19,9.3-1.78,10.87,1.6.64,1.36-3.53.72-8.33-.55"/>
    <path d="M29.08,420.65c3.31.41,5.24,3.45,11.32-.69"/>
    <path d="M62.93,420c1.07-1,5.76-1,8.66-2.94"/>
  </g>
  <g class="eye">
    <path class="sclera" d="M73.55,55.81,19.72,53l55.1-7.93C75.61,47.73,75.58,53.8,73.55,55.81Z"/>
    <g class="irisDarkBrown">
      <ellipse cx="57.62" cy="51.27" rx="2.38" ry="3.47" transform="translate(-3.07 3.68) rotate(-3.56)"/>
      <ellipse cx="72.88" cy="50.32" rx="1.87" ry="3.47" transform="translate(-2.98 4.62) rotate(-3.56)"/>
    </g>
    <g class="pupil">
      <ellipse cx="58.15" cy="51.24" rx="0.92" ry="1.35" transform="translate(-3.07 3.71) rotate(-3.56)"/>
      <ellipse cx="73.61" cy="50.28" rx="0.73" ry="1.35" transform="translate(-2.98 4.67) rotate(-3.56)"/>
    </g>
  </g>
  <g class="skinEastAsian">
    <path d="M12.88,66.11C24,75.8,24.55,85,23.65,94.8c5.64,3.55,20.3,5,30.73,10.66.78-2.88,1.75-7.21-.42-10-.59-3.68.38-12.62,6.82-22.49"/>
    <path d="M117.75,101.57C110,92.65,115.62,88.27,116,83c.19-2.9,2.16-4.07-1.87-6.5.29-3.56,5.18-3.23,7.21.05a37.64,37.64,0,0,0,2.93-8.22,3.46,3.46,0,0,1-.1-4.67c2.09-1.15,5.4-.63,5.92,1.26,1.94,6.81-.11,7-1.47,12.11,1.68-2.1,6.82.15,5.82,3.09,1.41-1,6,1,4.11,4.56,1.73-1.36,6.3.89,4.57,4-1.57,4.87-1.18,12.71-11.35,17.87C130,107.17,120,104.19,117.75,101.57Z"/>
    <path d="M158.91,143.38c-5.59-.56-11.75-2.12-14.71-4.74a24.61,24.61,0,0,0,3.22-2c5.55-3.38,4.73-8.19,1.44-8.25-3.74,4.31-10.73,5-15.68,8.42-3.79,2.6-4.57,7.45-8.8,8.64,2.52,1.42,4.52,10.29,3.39,13.73,5.34-.52,19.59,4.85,22.46-.17,1.12-2,4.43.4,6.25-4.41,4,.13,5.12-3,4.25-5,3.6,0,5.32-.26,5.56-2.4S163.85,143.65,158.91,143.38Z"/>
    <path d="M27.43,71.65c-4.67,3.14-6.11.29-8-1.25C-13.85,54.77,43.52-5.27,73,22.85c.25,12.74,4.72,12.31,3.4,20.88-.46,3,1.14,4.54-1.42,6.66a9.73,9.73,0,0,0-.35-2c-1.44-1.63-4.49-.1-6,3.07-.2.5.57.29.84.48C71.7,53.5,74.27,53.68,75,51c1.85.57,1.23,1.91,1.69,2.83,3.18,6.39,3.4,21.26-2.77,31.1C71.53,88.7,72.19,93,66,94c-5.83,1-6.54,0-15.87-2a33.16,33.16,0,0,1-17.88-10.5M60.08,51.62c-1.08-2.32-2.43-3.2-4.19-3.12-3.1.14-4.06,2.32-5.49,3.5,2.43,1.68,5.07,3.65,9.14.5C59.82,52.28,60.45,52.42,60.08,51.62Z"/>
  </g>
  <g class="skinOverlapLine">
    <path d="M121.32,76.51a7.25,7.25,0,0,1,1.32,4.92,14.27,14.27,0,0,1-.77,5.72"/>
    <path d="M128.6,77c-1.7,3.12-3,9.2-4.11,12.63-.84,2.65,2.7,4.81,4.52,2.63"/>
    <path d="M134.42,80.08c-1.68,4.84-4,8.16-5.23,11.65-1.16,2.55,2.64,4,4.15,2.47a33.25,33.25,0,0,0,5.19-9.56"/>
    <path d="M143.1,88.68a29.67,29.67,0,0,1-3.86,4.43c-1.44,1.7-4.21.18-4.21-1.26"/>
    <path d="M124.25,68.29c1.19.8,3.95,1.34,4.65-.12"/>
    <path d="M155.58,149.13a31.56,31.56,0,0,0,5.15.5"/>
    <path d="M154.12,154.31a8.44,8.44,0,0,0,2.36.31"/>
  </g>
  <g class="skinFoldLine">
    <path d="M127.6,72.3a4.65,4.65,0,0,1-4.15-1.08"/>
    <path d="M23.25,56.77c-4.41-9-14.79.75-6.33,7.78"/>
    <path d="M23.68,60.13c-1.81,2.11,3.09,5,.82,5.73-1.13.35-.39-1.7-3.93-2.45-4.81-1-2-7.32.15-5.79"/>
  </g>
  <path class="skinCreaseLine" d="M128.36,100.49a9.75,9.75,0,0,0,0-7.83"/>
  <g class="skinEdgeLine">
    <path d="M152.37,145.94c-.29,1.69-1.57,1.92-1.31,3.82.36,2.79-1.54,2.6-1.88,4.73s-2.33,1.28-2.62,2.91"/>
    <path d="M130.39,85.69a4.69,4.69,0,0,0-3.14-1.17"/>
    <path d="M135.44,88.47a4.15,4.15,0,0,0-2.85-1.39"/>
  </g>
  <path class="lipMaleMedium__noStroke" d="M71.14,72.49c-1.75,1.06-2.53,1.14-4.87.33-2.44.78-3.81,3.56-7,5.34,1.5,1,2.61,6.62,7.63,5.42,6-1.44,3.59-5,3.6-6C69.34,75.51,73.05,73.51,71.14,72.49Z"/>
  <path class="mouthInner" d="M70.54,77.57c-1-.24-1.3-1.49-1.67-2.5-1.58.66-2-.77-3.09-.41-1.45.47-3.85,2.68-6.47,3.5C61.65,78.58,66.74,82.6,70.54,77.57Z"/>
  <path class="tongue" d="M67,77.05a25.36,25.36,0,0,0-4.65-.34,13.77,13.77,0,0,1-3,1.45c1.93.35,5.74,3.15,9.16,1.28A4.34,4.34,0,0,0,67,77.05Z"/>
  <path class="teeth" d="M65.78,74.66a37.68,37.68,0,0,0-4.12,2.43c2.54.93,5.11,1.2,7,.3.61-.3.27-1.45.21-2.32C67.29,75.73,66.88,74.3,65.78,74.66Z"/>
  <g class="lipOverlapLine">
    <path d="M68.87,75.07c.32-.21,1-.64,1.32-.9"/>
    <path d="M70.54,77.57a2.07,2.07,0,0,0,1.16-.14"/>
  </g>
  <g class="lipEdgeLine">
    <path d="M66.27,72.82c2.34.81,3.12.73,4.87-.33"/>
    <path d="M61.71,81.72c2.69,2.82,8.14,2.7,9.38-1.67"/>
  </g>
  <path class="cheekLine" d="M61.39,64.83c-1.77,3-3.62,4-5.35,8.11"/>
  <g class="noseLine">
    <path d="M61.39,64.83c-1,1.2-1.37,4.36,2.5,4.82"/>
    <path d="M64.41,68.52c2.64-.55,5.41,1.82,8-.86,2-2-.56-5.24-1.77-7.77"/>
  </g>
  <g class="eyeFoldLine">
    <path d="M75.59,54.25a5.38,5.38,0,0,1-4.3,1"/>
    <path d="M58.87,55.12c-1.79,1.44-3.11,2.21-5.8.53"/>
  </g>
  <g class="eyeCornerLine">
    <path d="M48.76,52.56A3.39,3.39,0,0,0,50.4,52"/>
    <path d="M74.61,48.37a3.62,3.62,0,0,1,.89,1"/>
  </g>
  <path class="eyeCreaseLine" d="M53.11,47.88c3.14-1.66,3.81-1.67,5.9-.55"/>
  <g class="eyebrowBlack">
    <path d="M62,41c-3.17,4.68-9.66,1-14.58,5.12C51.38,39.68,54.83,43.1,62,41Z"/>
    <path d="M69.44,40.86c1.72,2.42,3.51,1.11,7.06,2,0-.48.09-.93.11-1.36C73.59,40.13,72,41.35,69.44,40.86Z"/>
  </g>
  <path class="hairBlack" d="M51.27,20.1C52.81,26.18,53,30.38,55.3,33A11.23,11.23,0,0,1,55.38,28c.68,9.66,12.86,6.44,18.25,10.48A10.28,10.28,0,0,0,70.46,35c2,1.46,4.39.67,7.85,3.8.76-6.14-.13-16-7.41-21.24,1.74.46,4.58,1.71,6.28,1.51C69.45,14.12,68,5.36,47,3.05,37.89,2.05,20.21,4.24,13.7,12A19.79,19.79,0,0,1,18.19.84c-4.7,2.39-7.4,8.73-7.63,13.52A7.27,7.27,0,0,0,.8,16.94c3.13-2,5.77-2.08,7.84.21C-1,30.77-1.49,59.43,16.08,72.44c1-.25,2.74-.85,3.39-2C15.11,65.71,11.25,64,12,56.47c.64-6.52,10.68-8.9,12.27-2a31.87,31.87,0,0,0,7.23-.59c-.28-5.32.12-4.63,4.18-11.54,4.32-1.19,8.59-2.31,10.33-9-.16,2.18-1.19,4.42-.57,6C46.18,35.43,53.06,32.8,51.27,20.1Z"/>
  <path class="hairOverlapLine" d="M35.67,42.37a42.21,42.21,0,0,0-7.15,1.74,31,31,0,0,1,3.19-3.71"/>
</svg>
