<svg viewBox="0 0 184.24 467.57">
  <path class="hairBlackDark" d="M41.26,104.86c9.08,2.29,14.94.4,9.45-1.82a25.52,25.52,0,0,0,10.45.43C60.27,62.23,13.59,71.67,41.26,104.86Z"/>
  <g class="hairBlack">
    <path d="M38.46,89.35c3.19.82,6.54-.35,8.34-4.19C42.79,80.59,40.12,82.5,38.46,89.35Z"/>
    <path d="M84.82,118.72c-1,6.75,8.82,1.27,12.39-9.15,3.74,8.07,9-14.74,5.76-30.76,6.7,4.81-.94-15.66-2.6-19.88-1.09-2.76-1-7.8-3.88-12.41-4-6.55-6-5.92-9.78-10.27-8.79-10.07-34.3-14.42-46.54-5.5-10-3.38-14.61,5.38-20.6,11.18C6,55.11,8.6,62.51,4.93,68.53c-9,14.74-2.81,39,.41,30.11,1.62,7.41,10.22,17.11,10.47,10.22,11.13,15.77,19.88,11.27,17.43,7.12,8.85,7.86,22.51,7.21,17.42,1.52-13.83-14-14.32-28.14-7.41-34.16C53.68,82.68,57.84,125.74,84.82,118.72Z"/>
    <path d="M101,31.65c-1.28.47-3.39,1.16-4.39,2.14-1.5-8.08,2.69-12.67,6.83-16.68-1.48.16-3.74.41-5.43-.47,8.74-4.32,9.93-11,28.74-12.48,10.13-.78,19.43,2.43,22.78,5.34,0-3.36-1.61-6.12-4-8.76C150.2,2.9,152.91,6.24,153,11c2.14-2.57,8.76-1.4,9.91,2.35-2.31-2.26-5.19-1.94-6.95.11,17.19,10.47,12.83,35,5.87,45.68C127.19,59.09,101,31.65,101,31.65Z"/>
  </g>
  <g class="hairOverlapLine">
    <path d="M150.15,44.06a33.11,33.11,0,0,0,4.6,2.5"/>
    <path d="M89.15,59.67c1.52,1.15,3.56-1.66.88-8.16"/>
    <path d="M63.39,60.91c-4.61.08-5.82-2.06-1.36-3.33"/>
  </g>
  <g class="eye">
    <circle class="sclera" cx="119.92" cy="54.5" r="21.3"/>
    <g class="irisDarkBrown">
      <ellipse cx="133.36" cy="46.32" rx="3.34" ry="3.3" transform="translate(74.28 174.54) rotate(-84.42)"/>
      <ellipse cx="109.33" cy="43.98" rx="3.34" ry="3.3" transform="translate(54.93 148.51) rotate(-84.42)"/>
    </g>
    <g class="pupil">
      <ellipse cx="133.59" cy="46.27" rx="1.3" ry="1.28" transform="translate(74.54 174.73) rotate(-84.42)"/>
      <ellipse cx="109.57" cy="43.92" rx="1.3" ry="1.28" transform="translate(55.2 148.7) rotate(-84.42)"/>
    </g>
  </g>
  <g class="skinEastAsian">
    <path d="M157.4,216.38c7.7-11.55,14.22-23.37,15.51-35.92,1.33-13,2.16-28.63,2.68-40.3.59-13.25,2.3-23.63-6.24-29.26-7.79-5.13-23.33-7.18-29.57-15.2-.88-6.7-.27-12.79,3-17.78l-35.44-4.54c3.73,5.61,2.07,16.1.27,21a10.33,10.33,0,0,1-3.9,2.17c-1,10.47-4,18.23-6.47,13-3.57,10.42-13.4,15.9-12.39,9.15-8.71,2.27-15.06-.7-20-5.72l13.87,96.82,38.62,66.92c.19-2.06.28-4.37.28-6.88a11.62,11.62,0,0,0,3.65-1.63c4.64,24.27,11.86,41.61,17.1,60,3,10.53,5.23,18.68,5.95,25.14,1.59,14.2,9,34.8,14.11,51.5l17.17-1.45c1.27-23.54.24-46.35-7.1-68.9C164.48,322.33,167.61,263.83,157.4,216.38Z"/>
    <path d="M161.82,59.05c-.25-.38-3.48-3.51-6.29-1.28a14.5,14.5,0,0,1-4.86-3c1.26-4.82,2.54-4.51-.52-10.71-4.67-3.23-6.18-8-7.29-12.55a12.68,12.68,0,0,0-.62,5.72c-1.76-1.58-4.38-6.78-3.12-14.74l-.34-.15c-5.57,13.75-18.48,6.2-24.3,9.49.26-1.14,2.1-3,3.38-4-6.52,3.7-11.66,2-16.86,3.82-1.07,2.44-2.8,5.77-2.17,10.91.37,3.1-8.88,25.39,2.92,38.82,4.32,4.9,5.07,6.89,10.76,8.4,5.92,1.56,7.1.62,17.18-1.13S143.41,83.79,149.11,76c2.88,3,6.44,1.11,8.07-1.18,2.11-3,9.48-8.79,4.63-15.7ZM112.69,46.59c-3.77,1-7.78,1-10.17-1.68,1.48-1.08,2.69-2.49,5.7-2.22s3.88,2,5.36,3.44C114.37,46.9,113.14,46.47,112.69,46.59Zm19.25,3a17,17,0,0,1-5.47-1.58c-.43-.16-1.41-.25-.67-.91,1.85-1.6,3.1-2.86,6.37-2.33,3.59.57,5,2.56,6.53,3.89A28.88,28.88,0,0,1,131.94,49.63Z"/>
  </g>
  <g class="skinIndian">
    <path d="M97.73,171.5c7.63-15,1.4-21.6-1.9-27.84C96.9,152.38,97.25,162.93,97.73,171.5Z"/>
    <path d="M148.94,438c-1.06-1.3-1.06-3.26-1.95-4.93-4.64-8.68-6.33-23-6.43-26.15-1.11-36.76,1.48-69.15-3.38-85.06-3.65-12-22.6-53-38.54-79.91-2-4-1.13-7.73-2.37-14,2.87,4.77,7.56,12.1,7.27,14.85a21.31,21.31,0,0,0,.38,8.4c4.57-4.61,1.8-6.81,15.35-14.47a13.92,13.92,0,0,1-6-6.19c-8.08-14.06-9.89-36.35-13.58-44-3-6.23-1.42-40.57-6.16-54.24s-17-9.56-21.64-16.25c-3.43-7.1,4.53-29.46,8.32-30.91l-33.4,0a7.1,7.1,0,0,1-5.56,4.38c2.6,9.42-1.41,25.31-8,35.75-17.71,47.44,7.31,65.93-9.85,103.17-11.57,25.13.88,46.19,1.71,50.94,2.12,12.1,5.12,22.42,7.25,31.24,4.9,20.2,8.34,26.61,6.15,33.74-10,32.62,4.5,52.58-7,74.26-2.37,4.45-13,13.38-1.95,18.85,14.86,7.36,15.62,15.52,22.37,19-1,1.34.37,3.86,2.29,4.17a3.12,3.12,0,0,0,3.15,1.26,3.47,3.47,0,0,0,4.26.47c1.77.92,4.07.2,4.57-1.5,4.62.54,6.26-4,3.4-6C64,451,63.23,439.6,56.26,430.44c-2.95-3.87-1.62-10.08-1.89-16.32-.51-11.5,12.51-45.9,15-72.12,1.47-15.5,1.73-32.41,1.79-50.17,13.2,20.05,36.45,35,36.23,39.61-1.08,22,13.28,37.72,11.9,61.54-.35,5.9-4,9.93-7.26,14.81-3,4.43-.14,9.2,5.25,13.42,9.94,7.79,9.81,18.69,13.76,21.8s1,10.55,9.4,11.3a14,14,0,0,1,1.77-1.75,30.92,30.92,0,0,0,4.88-5.19,2.36,2.36,0,0,0-.28-.95,3.12,3.12,0,0,0,1-3.88C149.67,442.14,150,439.27,148.94,438Z"/>
    <path d="M110,253.08c-.75,1.46-1.59,2.86-2.51,4.56l-.93-1.74c1.13-.12,2.22-2.24,3.44-2.82"/>
    <path d="M58.19,97.35c2,3.85,5.24,6.9,11.56,9.86,3.77,1.77,6.92,4.14,9.39,3.48,6.22-1.08,2.64-7.5,7.22-8.55,1.53-2,1-3.69-1.58-5.17,2,.23,3.83-.86,4.13-2.25.11-.55-.72-1.27-.89-4,1.59-.57,3.17.82,4.88-.73,2.56-2.33-1.17-8.82-4.27-14.74-1.88-3.58,2.62-5.63.52-15.6-2.35-2.07-4.6-7.92-4.55-11.29-2.75,13.33-13.07,15.13-8.37,8.95-6,2.84-7.13,3.3-12.84,3.58-2.69,2.23-4.13,6.38-4.15,9.94S55,74,50.72,69.72c-4.92-13.19-21.17-.28-7.47,13.62,1.14,1.16,3.26,6.65,8.5,2.17"/>
  </g>
  <path class="lipFemaleBrown" d="M81.39,93.75c3.91.75,5.58-.84,7.52,1-.3,1.39-2.12,2.48-4.13,2.25,2.59,1.48,3.11,3.22,1.58,5.17C83,99.41,83,96.62,81.39,93.75Z"/>
  <g class="sockWhite">
    <path d="M176.12,400.49c-1.5,2-15.53,4.34-19.3,1.71.32,7.78,4.52,15.87,1.77,21.48-4.86,9.92-7.37,21.35-16.37,28.88-4.95,4.13-4.38,8.51-1.46,9.89,13.35,6.3,25.21,1.33,28.71-6.24,4.38-9.49,14.84-13.71,14.52-20.2-.32-6.29-6-13.48-6.57-19.62C176.74,409,177.22,403.55,176.12,400.49Z"/>
    <path d="M97,405.12c-3.49,2.1-14.68,2.51-17.76-1-.65,2.92,1.48,13.32-.16,19.22-3.08,11.11-3,21.49-9,30.66-2.11,3.21-2.21,6.66,1.78,9.32,7.18,4.81,26.45,7.51,26.12-5.43-.25-10,2.59-9.57,2.51-20-.06-6.6-2-10.66-2.92-16.46C96.56,414.88,97.9,407.22,97,405.12Z"/>
  </g>
  <g class="nippleEastAsian">
    <ellipse cx="137.78" cy="139.65" rx="1.34" ry="2.34" transform="translate(-9.09 269.71) rotate(-86.91)"/>
    <ellipse cx="97.62" cy="136.06" rx="1.34" ry="2.34" transform="translate(-43.49 226.21) rotate(-86.91)"/>
  </g>
  <g class="skinEastAsian">
    <path d="M41.13,104.6c5.9,2.14,7.87,8.58,7.13,12.78a3.1,3.1,0,0,0,1.34,2.05A21.7,21.7,0,0,1,61,116.17c6.38-.09,7.6,3.25,9.87,3.92,1.56,2-1,5-8.21,2.33a4.75,4.75,0,0,1,.49,1.78,40.05,40.05,0,0,1,6.37,3.25c4.2,1.76,8,5.36,5,7.65-1.18,1-3.79-.63-6.32-1.21,2.79,1.76,5,2.71,5.35,4.25.34,1.8-.62,3.91-3.63,3.78,1,1.16-.4,5.55-6.84,3.15-2.68,2.55-7.41.7-10.36-1.26-5.08-3.36-7-10.05-8.18-10.42-9.91-5.28-20.39-8.23-19.62-23.56.21-4.22,8.13-9.09,16.94-11.3A51.89,51.89,0,0,1,41.13,104.6Z"/>
    <path d="M105.78,328.38c-5-6-20.75-17.7-31.84-32.61-.37,34.85,2.65,41.55,1.76,49.91-1.67,15.79,1,37.88,4.1,59,3.53,2.79,13,2.49,16.72.71,3.64-21,8.29-42.41,7.53-55.94C103.7,343,104.88,334.61,105.78,328.38Z"/>
  </g>
  <path class="lipMaleMedium__noStroke" d="M114.17,75.69c5.2,1.32,6.35-1,9.17-1.09-3.26-2.78-3-6.59-5.31-7.6-3.11,1-4,.22-5.6-.4-2.06.81-2.34,4.58-5.22,6.35C108.87,73.84,108.89,75.78,114.17,75.69Z"/>
  <path class="skinDisplayLine" d="M111.55,194.58c-1.28,4.37,2.92,5.62,1.62-.26"/>
  <g class="skinOverlapLine">
    <path d="M60.93,119.66a12.88,12.88,0,0,1,1.72,2.76"/>
    <path d="M58.6,122.51a26.59,26.59,0,0,1,4.54,1.69"/>
    <path d="M55.18,128.28c3.87,1.52,10.67,4.73,13,5.61"/>
    <path d="M52.4,133.57a61.28,61.28,0,0,0,17.54,8.35"/>
    <path d="M50.56,137.48c2.89,3.49,8.56,6.31,12.54,7.59"/>
    <path d="M46.61,114.46a6.19,6.19,0,0,1,1.65,2.92"/>
    <path d="M112.87,245a32,32,0,0,1-2.9,8.12"/>
    <path d="M116.49,254.79c-1.91,3.17-4.15,5.66-5.92,8.72"/>
    <path d="M121.71,257.64c-2.62,4.41-4.79,8.86-8.93,10.13"/>
    <path d="M126.55,258.19c-1.11,3.34-2.32,7.62-4.13,9.12"/>
    <path d="M117.58,269.86a10.35,10.35,0,0,1-3.6.26"/>
    <path d="M156,128.69c-3.19,9.66-1.64,34.3-5.18,54-8.24,13.3-8.94,28.4-18.46,41.6-3.17,4.4-7.16,10.1-13,12.44"/>
    <path d="M114.23,270.6"/>
    <path d="M157.4,216.38c-8.57,11.12-17.78,21.3-18.7,23.84-5.26,14.46-8.25,17.6-8.69,20.59-1.82,6.94-3.36,5.41-7.59,6.5-.41.34-.81.64-1.19.92"/>
    <path d="M37,231.7c-9.6,17.18-1.6,48,30.63,48.41"/>
    <path d="M33.65,232.59a20.21,20.21,0,0,1,1.53,3.09"/>
    <path d="M54.59,278c-6.77,2.65-18.27,2.14-24.9-2.62"/>
    <path d="M61,279.56c2.66,3.83,7.13,8.27,10.14,12.27"/>
    <path d="M59.14,453.6c1.63,2.2.31,4.78,7,7.28"/>
    <path d="M60.27,457.69c-1.32,1.32-.44,3.84,1.35,4.69"/>
    <path d="M57.5,458a2.53,2.53,0,0,0-.14,3.9"/>
    <path d="M54.29,457.88a2,2,0,0,0-.08,2.77"/>
    <path d="M147.86,442.54c-4.71-.25-2.38-3.48-4-5"/>
    <path d="M146.82,446.42c-3.13.43-4.1-1.39-4.06-3,0-.84-.57-1.34-.84-1.95"/>
    <path d="M145,449.94c-2.83.5-4.56-1.41-4.65-2.83a3.1,3.1,0,0,0-.8-2.22"/>
    <path d="M142.73,452.12c-2.5.76-4.45-1.08-4.23-2.53.13-.88-1.25-2.55-1.53-3"/>
    <path d="M73.05,141c3.15,9.57,2.86,26.44,5.73,49.24,1.92,15.32,10.74,25.65,17.49,37.73"/>
  </g>
  <g class="skinCreaseLine">
    <path d="M156.55,183.29a23.81,23.81,0,0,0-6.07-.53"/>
    <path d="M157.65,342.61a18.16,18.16,0,0,1-10.74,1.16"/>
    <path d="M93.86,344.64a22,22,0,0,1-12.48-1.16"/>
    <path d="M58.09,339.52c-4.88-1.38-10.49-1.68-14.52-.43"/>
    <path d="M126.53,320.87c-6.89.31-12.57,2.19-16.32,6.57"/>
    <path d="M43,142c-4.18,17.71,0,37.16.87,54.73"/>
  </g>
  <g class="skinEdgeLine">
    <path d="M59.5,132a13.26,13.26,0,0,1-1.62,3.39"/>
    <path d="M61.81,125.87a6.08,6.08,0,0,1-1.39,3.24"/>
    <path d="M56.34,137.82A3.86,3.86,0,0,1,55,140.13"/>
    <path d="M69.24,129.36A5.78,5.78,0,0,1,68,132.18"/>
    <path d="M67.05,135.56c.11.37-1.38,3.4-1.64,3.28"/>
    <path d="M63,141.21a4.53,4.53,0,0,1-1.27,2.28"/>
    <path d="M53.21,122c-2.51,1.71-.88,3.29-2.75,4.54-3.16,2.11-.49,4.28-2.19,5.75-1.22,1.05-.33,2.59-.41,3.89"/>
    <path d="M53.89,141.88a2.82,2.82,0,0,1-1,1.39"/>
    <path d="M88.22,191.57a4.46,4.46,0,0,1-5.54,0"/>
    <path d="M25.5,431c2.12-2.33,9.57,3.2,15.29,6.54,7,4.12,10.28,10,16.68,15.28,3,2.47-1.28,4.51-5.55,3.65"/>
    <path d="M113.28,408.66c4.89-2.87,11.5.33,16.21,6,6.29,7.58,12.51,14,13.36,20.54.49,3.83-6.3,10.43-11.25,8.32"/>
  </g>
  <g class="skinFoldLine">
    <path d="M154.58,63.05c4.45-7.89,11.15,1,2.68,8.8"/>
    <path d="M154.35,65.44c2.16,2.42-2.95,4.68-1.28,5.77.82.53.86-1.51,2.69-2,3.19-.82,2.05-5.89.43-4.8"/>
    <path d="M48.42,71.57c-.63-9.72-14.6-1.81-4.81,8.76"/>
    <path d="M48.39,74.45c-2.74,1.39,1.56,5.06-.54,5.94-1.46.61-1.23-2.68-2.9-3.5C41.17,75,42.79,69.44,46.23,72"/>
  </g>
  <g class="teeth">
    <path d="M85.1,95.39a11.89,11.89,0,0,1-3.71-1.64A10.53,10.53,0,0,0,84.78,97C85.11,96.85,85.4,95.67,85.1,95.39Z"/>
    <path d="M121.88,74.22c-2.59-1.78-4-4.69-4.78-4.22-2.79,1.77-3.83-1-4.64-.25a23.86,23.86,0,0,1-3.48,2.8C114.15,71.07,118.21,73,121.88,74.22Z"/>
  </g>
  <g class="lipOverlapLine">
    <path d="M123.83,74.49a2.44,2.44,0,0,1-2-.27"/>
    <path d="M109,72.55a4.32,4.32,0,0,1-2.35.33"/>
  </g>
  <g class="lipEdgeLine">
    <path d="M118,67c-3.11,1-4,.22-5.6-.4"/>
    <path d="M118.86,75.78c-1.7.58-2.69.16-4.69-.09-1.58-.19-2.58,0-4.16-.64"/>
    <path d="M85.1,95.39a4.51,4.51,0,0,0,2.34-.11"/>
  </g>
  <g class="cheekLine">
    <path d="M123,59c1.67,2,1.69,3.85,2.29,4.7"/>
    <path d="M82,89.47c0,4.3-1.67,3.55-1.91,8.17"/>
  </g>
  <g class="noseLine">
    <path d="M111.39,56.77c-.66,2-3.41,3.43-.9,6.38"/>
    <path d="M123,59c.88.9,1.13,4.05-.66,5.25"/>
    <path d="M120.76,62.75c-.42-2.69-3.7.9-4.35,1"/>
    <path d="M110.6,61.17c1.88-.11,1.12,1.69,2.55,2.12"/>
    <path d="M89.88,88.35c-1.3-.29-3-.82-4.23.35"/>
    <path d="M83.73,88.49c-1.3-.75-1.12-3.65.36-4.41"/>
  </g>
  <path class="eyeLidLine" d="M83.23,75c1.89-.08,2.77-1.59,2.25-2.18,1-1.18.22-3.8-.1-4.31"/>
  <path class="eyeLashLine" d="M78.77,71.19a19.54,19.54,0,0,1,6.71,1.66"/>
  <g class="eyeFoldLine">
    <path d="M104,49a6.82,6.82,0,0,0,6.74.36"/>
    <path d="M128.52,51.59a5.58,5.58,0,0,0,6.4.82"/>
  </g>
  <g class="eyeCornerLine">
    <path d="M102.52,44.91c-.2.12-.41.24-.64.35"/>
    <path d="M140.22,49.78a3.89,3.89,0,0,1-1.52-1.08"/>
  </g>
  <path class="eyeCreaseLine" d="M113.27,43.71c-2.2-2.62-6.67-3.65-9.77-1.15"/>
  <g class="eyebrowBlack">
    <path d="M116.38,34.34c-4,4.52-10.14,0-15.89,4.46C105.26,32.21,110,36,116.38,34.34Z"/>
    <path d="M125.78,35.75c2.64,4.44,10.28,0,16.61,6.94C138.76,34.09,131.71,37.58,125.78,35.75Z"/>
    <path d="M75.6,66c2.81-2.86,9.44-3.35,12.08-1.81.86.49-.31,2-1.25,1.62A12.15,12.15,0,0,0,75.6,66Z"/>
  </g>
</svg>
