<svg id="presence" xmlns="http://www.w3.org/2000/svg" viewBox="0 0 1130.4 807.67">
  <defs>
    <style>
      .cls-1 {
        fill: #e689d6;
      }

      .cls-1, .cls-2, .cls-3 {
        stroke: #000;
        stroke-miterlimit: 10;
        stroke-width: 2px;
      }

      .cls-2 {
        fill: #e6b0dd;
      }

      .cls-3 {
        fill: none;
      }
    </style>
  </defs>
  <title>hardOnReflection</title>
  <path id="wrapperOuter" class="cls-1" d="M352.29,63.83C378.41,43.12,403,22.3,425.54,1.35c21.21,18.81,41.2,42,62,66.71-22.46,19.75-41.42,37.18-58.25,54-6.9-5.47-13.86-14.79-16.87-22,11.28-21.42-11-45.4-37.7-34.23,3.55,8,5.84,17.91,12.85,21.47,8.75,12.08,5.89,15.63,15.17,21.56,2.54,8.49,5.95,13.57,14.16,21.24-3.83,3.72-14.08,9.08-14.08,9.08C387.25,109.92,370,82.68,352.29,63.83Z"/>
  <g id="wrapperInner">
    <path class="cls-2" d="M466.81,66.06a338,338,0,0,0-41.47-44.13c-16.4,15.13-33.38,29.66-50.6,43.89,6.47,8.21,12.79,15.12,18.41,16.12,8.31,4.9,11.17,15.27,19.29,18.11a53.45,53.45,0,0,0,5.66,9.83Q440.69,88.34,466.81,66.06Z"/>
  </g>
  <g id="skinIndian">
    <path class="cls-3" d="M199.43,167C51.91,182.79-54.27,375.84,32,456.64c-87.18,97.77,23.82,287.92,176.33,310.12C343,786.37,529.7,780.27,751.71,721.39l-56-156.29c-65.64-7.8-132.6-26.49-176.64-30Z"/>
    <path class="cls-3" d="M1033.6,592.8c13.65-6.51,26.23-10.59,39.16-17.45,24.07-12.78,45.69,6.68,35.7,27.14,14.87-1,19,18.66,11.42,24.37,13.32,4.28,11.42,23.7,1.9,27.5,7.44,6,2.38,25.23-11.9,28.56,10.34,9.33,2.79,27-16.18,28.55-11.42.95-12.13,15.35-33.72,24.47-23.1,9.76-37,11.66-77.94,27.3-28.93,11.06-47.06,30.22-77.71,28.37Z"/>
    <path class="cls-3" d="M132.27,231.78c46.22-29.62,80.45-120.08,136.47-122.67,103.13-4.77,85.92,92.09,105.55,98.51,15.59,5.1,30.59,1.91,46.11-3.26,95.34-31.75,198.22,122,95.07,187.39l-6.42,81c83.55,47.53,26.53,214.86-85.62,186.79C362.3,722.45,301.17,785.88,242,784.69c-64.65-1.31-83-40.07-114-86.88-35.79-53.94-69.11-99.72-64.17-179.69Z"/>
  </g>
  <g id="skinDisplayLine">
    <path class="cls-3" d="M1083.47,603c-1.11-7.07-2.93-15.81-8.22-20.4,4-3.17,13.21-7.44,16.38-6.41,7.22,2.33,12.3,11.35,9.1,21"/>
    <path class="cls-3" d="M1112.05,661.06a16,16,0,0,1-1.88,13.8"/>
    <path class="cls-3" d="M1113,633.76a17.06,17.06,0,0,1,3.45,13.49"/>
    <path class="cls-3" d="M1105.15,609.91c3.72,2.35,6.54,9.4,4.7,13.49"/>
  </g>
  <g id="skinOverlapLine">
    <path class="cls-3" d="M1108.46,602.49c-23.58,1.41-30.5,13.88-39.51,19.77"/>
    <path class="cls-3" d="M1119.88,626.86c-15.25-.5-32.8,9.17-44,16.87"/>
    <path class="cls-3" d="M1121.78,654.36c-12.65-2.32-29.62,3.57-47.29,14"/>
    <path class="cls-3" d="M1109.88,682.92c-7.33-.74-25.69,0-37.81,10.35"/>
  </g>
  <g id="skinEastAsian">
    <path class="cls-3" d="M570.29,204.48c134-31.29,215.51-151.35,346.63-118.16,40.86,10.35,59.47,46,82.35,84.17,35.68,59.48,71,141.27,70.74,246.3,5,115.58-29.13,193.49-65.27,268.32-25.42,52.65-53.54,98.72-95.12,111.75-47.58,14.9-85.33,5-146,4.64-41.52-.27-59.4,4.19-89.44,5.09-87.06,2.61-171.14-60.25-269-57.61"/>
    <path class="cls-3" d="M423.43,659.5c82.22,5.92,137.63-18.84,220.35,1.22,23.39,5.67,46.05,14.5,64.91,14-21-22.35-37.23-69-37.52-102.87L606.52,279.54"/>
  </g>
  <g id="skinOverlapLine-2" data-name="skinOverlapLine">
    <path class="cls-3" d="M821.71,134.42c-7.45,11.44-13,48.52-8.36,58.36"/>
    <path class="cls-3" d="M708.69,674.72c26.07-.37,45.94,9.74,86.06-6.57"/>
  </g>
  <path id="skinFoldLine" class="cls-3" d="M640.08,683.09c8.3,23.83,2.17,77.27-7.58,96.77"/>
</svg>
