<svg viewBox="0 0 133.95 430.19">
  <path class="hairRed" d="M51,73.51c3.22,8,10.74,19.3,23.7,22.08A8.53,8.53,0,0,1,73,91.32a17.84,17.84,0,0,0,14.43,2.06,5.53,5.53,0,0,1-1.67-2.12c4.55.93,10.19-1.42,11.44-5.49C82.6,87.86,102,71.91,51,73.51Z"/>
  <g class="skinAshkenazi">
    <path d="M29.38,231.48c-.39,1.27-5.09,5.26-9.17,4.84-1.69.59-2.29,2.46-4.41,2.89C12.58,221.55,27.94,218.24,29.38,231.48Z"/>
    <path d="M33.84,58.38c8.49,16.86,16.9,31.94,9.95,39.29C57.19,93.6,57.45,110,72.6,108.08,82.82,106.82,86.68,99.85,90,92.23c-9.66-2.72-18.49-5.13-16-21.42"/>
  </g>
  <path class="clothingGold" d="M48.37,92.65c7.44-.88,14.47,7.33,20,9.15,6.52,2.13,15-3.31,10.25-14.17-.3-.67,1.67-.6,2.24,1.41,3.91,13.9-8.4,16.12-12.85,14.58-6.6-2.29-14-10.8-21.06-8.92C46.17,94.91,46.17,92.91,48.37,92.65Z"/>
  <g class="bottle">
    <path class="labelReverse" d="M25.73,282.25c.27-.86-3-2-6.84-2.47l2.6-24.69c4,.3,6.94,1.15,6.91,1.81Z"/>
    <ellipse class="bottleBottom" cx="16.43" cy="285.84" rx="1.56" ry="7.67" transform="translate(-269.55 272.17) rotate(-83.97)"/>
    <path class="beerSide" d="M27.79,253.86h0c-.12.77-3.79,1.39-8.3,1.39s-8.29-.64-8.29-1.43h0a7.4,7.4,0,0,0-.54,2.14L7.78,283c-.15,1.56.41,2.32,1.54,2.71a28.32,28.32,0,0,0,14.08,1.49,2.28,2.28,0,0,0,2.07-2.34l2.86-27.07A9,9,0,0,0,27.79,253.86Z"/>
    <ellipse class="beerTop" cx="19.47" cy="253.82" rx="8.3" ry="1.43"/>
    <path class="bottleSide" d="M19.66,225.19c-1,0-1.27.44-1.39,1.71-.11,1.08-.25,1.65.52,2-.82,5.46-1.8,10.83-3,16.12a11.14,11.14,0,0,1-2.37,5.13,11.46,11.46,0,0,0-2.8,5.82L7.78,283c-.15,1.56.41,2.32,1.54,2.71a28.32,28.32,0,0,0,14.08,1.49,2.28,2.28,0,0,0,2.07-2.34l2.86-27.07a11.56,11.56,0,0,0-1.53-6.28A11,11,0,0,1,25.56,246c0-5.42.11-10.88.45-16.38.82-.18.81-.77.92-1.84.15-1.28,0-1.78-1-2A22.83,22.83,0,0,0,19.66,225.19Z"/>
    <path class="bottleCreaseLine" d="M26,229.66a25.84,25.84,0,0,1-7.22-.77"/>
    <path class="bottleOverlapLine" d="M25.58,226.37a28.43,28.43,0,0,1-5.67-.6"/>
    <g class="labelSecondary">
      <path d="M21.85,234.12a9.73,9.73,0,0,0-3.74-1c-.42,2.5-.87,5-1.37,7.43a2.22,2.22,0,0,0,1.09.51,4.91,4.91,0,0,0,3.4-1.13C21.91,239.35,22.47,234.79,21.85,234.12Z"/>
      <path d="M28.4,256.9c0,.31-.64.56-2.08.71L23.63,283.1c1.36-.21,2-.51,2.1-.85Z"/>
    </g>
    <path class="labelMain" d="M10.86,254.75a6.28,6.28,0,0,0-.22,1.21L7.91,281.77c5.75.42,8.89-5.3,9.67-12.65S16.45,255.6,10.86,254.75Z"/>
  </g>
  <path class="soleTan" d="M81.81,407.86c.23,4.51,1.26,10.07,2.89,11.6s7.48,2,11.38,1.67C93.62,416.47,87.46,411.67,81.81,407.86Z"/>
  <g class="maraShoe">
    <path d="M115.48,411.65c5.75,2.15,9.6,7.81,6,12.22-3,3.7-18.33,5.25-25-2.29-5.61-6.34-12.62-7.46-14.67-13.72-1.66-5.09-.34-14.54,2.25-17.92Z"/>
    <path d="M73.77,390.66c2.26,6.28,2.43,19.19,5.87,29.1,3,8.51-7.13,11.07-17.53,9.92-8-.87-10-5.55-8.76-11.92,1.16-6.1-.19-18.93,3.24-27.1Z"/>
  </g>
  <path class="maraDress" d="M126.83,235.69c-2.32-14.05-3-27.2-6.71-43-4-17-6.08-32.74-11-45,15.89-25.09-2.6-27.62-8.93-36.49-2.82-3.94-8-8-14.29-11.23a17.83,17.83,0,0,1-13.35,8.13C57.45,110,57.19,93.6,43.79,97.67c-1.54.21-5.74,3.62-7.94,6.06-6,5.27,5.65,32.16,12.36,53-2.67,16-2.25,32.88-3.14,39.63-1.51,11.27-.91,23.32-1.58,29.56-1.73,16.2-1.26,30.31-1.1,40.25,0,2.52,7.66,1.47,11,2.59,10.42,3.55,34,3.51,45.12-1.25,2.08-.89,15.62-.24,19.73-5.58,5.74-1,10.67-1.89,10.69-4.05A185,185,0,0,0,126.83,235.69Z"/>
  <path class="clothesDisplayLine" d="M109.17,147.67c-8.47,7.8-47.1,15-61,9.08"/>
  <g class="clothesOverlapLine">
    <path d="M79.37,151.84c-5.66,3.17-16,3.84-21.7-.58"/>
    <path d="M109.91,142.09a6.58,6.58,0,0,1-3,1.68"/>
  </g>
  <g class="clothesFoldLine">
    <path d="M86.94,195.25c3,22.9,10.65,39.71,25.09,40.66"/>
    <path d="M118.21,262c-.11-3.6.24-6.9,0-10.7"/>
    <path d="M98.48,267.53c.62-2.14-.08-5.28,0-8"/>
    <path d="M53.36,268.78c-.43-5.16-.09-9.62-2.72-15.12"/>
    <path d="M104.81,155.73c.23-4.46,3.9-1.6,4.58,2.52"/>
    <path d="M102,155.28a9.6,9.6,0,0,1,1.37,4.81"/>
    <path d="M84.77,162.26c.11-4,3.21-3.78,5-.46"/>
    <path d="M54,165.13c-.23-3.78-2.75-4.7-3.44-.23"/>
    <path d="M57.51,161.8c.27,2.19.44,4,.46,5.27"/>
    <path d="M102,132.54a78.09,78.09,0,0,1-21,5.67"/>
    <path d="M99.53,136.38a70.47,70.47,0,0,1-18.24,4.8"/>
  </g>
  <g class="eye">
    <path class="sclera" d="M92.85,41.17s-39,16-40.12,11C51.31,45.87,90.4,34.78,90.4,34.78,91.75,35.71,92.92,39.05,92.85,41.17Z"/>
    <g class="irisGreen">
      <ellipse cx="72.65" cy="44.49" rx="2.63" ry="3.4" transform="translate(-11.96 34.55) rotate(-24.78)"/>
      <ellipse cx="90.38" cy="38.17" rx="1.99" ry="3.4" transform="translate(-7.67 41.4) rotate(-24.78)"/>
    </g>
    <g class="pupil">
      <ellipse cx="73.1" cy="44.28" rx="1.02" ry="1.32" transform="translate(-11.83 34.72) rotate(-24.78)"/>
      <ellipse cx="90.86" cy="37.94" rx="0.77" ry="1.32" transform="translate(-7.54 41.58) rotate(-24.78)"/>
    </g>
  </g>
  <g class="skinAshkenazi">
    <path d="M6.89,244.3c-1.07-2.33,0-5.26.73-7.72.92-3.26.66-7.06,5.33-8.93,3.93-2,8.82-4.63,9.46-7.77,1.89-13.35-.85-28.78,6.09-48.31,2.23-6.28.79-15,1.17-24.72.68-17.71-2.91-34.85,6.73-42.94,10.11-4.1,20.27,9.83,14.47,24.94-.88,28.2-2.68,36-2.61,45.12.13,17.46-12,30.31-15.71,48.55-.76,3,3.89,6.34-1.3,15.8-.82,1.5-.46,3.42-1.22,4.28-1.68,1.91-2.22,4-3.44,4.28-4,.39-3.48-5.51-1-8.79.08-2.8.2-5.61.38-8.43.82-.18.81-.77.92-1.84.15-1.28,0-1.78-1-2a22.83,22.83,0,0,0-6.27-.66c-1,0-1.27.44-1.39,1.71-.11,1.08-.25,1.65.52,2q-.54,3.63-1.19,7.21a9.8,9.8,0,0,1,2.07,4.67c2.2,2.07,2.8,7.79-1.33,7.53-1-.14-.73-1.93-2.46-3.73,1.39,2.79,1.39,7.19-1.94,7.19a1.33,1.33,0,0,1-1.39-1.07C11,251.43,9,247.36,6.89,244.3Z"/>
    <path d="M114.15,104.88c7,16.86,22.54,27.07,19,42.11-1,4.36-.15,8.3-8.41,7.85-4.79-.27-10.47-3-15.39-7.65-.7-7.37,1-3,2.12-8.43-1.24-6.88-1.13-19.91-7.05-27.14-5.6.87-9.19,0-13.31-3.19-2,.2-4.47-1.44-6.37,0-2.53,3.59-7.31,2.11-5.26-1.37a7.93,7.93,0,0,1-.56-3.88c-2.16.84-3.92-2-2.22-2.81,1.28-.87,2.13-2.56,3.89-3.84-2.8-.66-3.83-3.52-1.52-4.49,2,.11,3.83-.67,6.69-.55,4,.17,5-.54,11.54-1.19C102.52,89.22,112.64,99.89,114.15,104.88Z"/>
    <path d="M100.23,388.86c-.27-18.64,7.22-48.22,6.23-65.75-.26-4.66,1.4-10.31,2-16.18,1.2-11.2,6.06-27.85,7.93-43.34-5.33,3.57-16.09,3.15-17.93,3.94a41.09,41.09,0,0,1-8.39,2.37c-4.81,10.59-8.81,27.12-11.88,50.26.66,24.24,5.08,46.55,6,60.23.18,2.71-1.1,6.21-.16,9.55,2.16,7.24,10,17.27,16.79,23.25a22.52,22.52,0,0,1,14.63-1.54C108.4,405.8,100.31,394.1,100.23,388.86Z"/>
    <path d="M57.62,269.9c3.88,18.68,7.8,40.17,5.6,47.91-7.6,26.75-5.58,47.26-5.32,57.59.13,5-2.18,11.94-1.31,15.26.61,2.08-1.65,12.23,2.22,25.17,2.78-1.71,11.68-1.47,15,0,2.9-12.39-1.52-29.79-.46-33.43,3.68-19.17,18.08-52.28,19.15-73.25.52-10.35,3.17-23.9,3.08-40.59C85.25,271.79,68.2,272,57.62,269.9Z"/>
    <path d="M51,73.51c-1.2,2.38-5.43,2.46-7.05.41C33,25,54.06,4.94,89,27.08c1.77,1.51,1.15,2.9,2,4.49.6,1.16,3.12,3.42.93,5.43a9.15,9.15,0,0,0-.47-.94c-3,0-5.83,2.29-6,5,0,.61.58.08.87.11a7.45,7.45,0,0,0,6.25-2c-.07-.32-.16-.66-.27-1,2.6.84,1.33,3.14,2,4,10,15.18,2.12,25.8,3.16,31.46.84,6.78-3.63,10.78-10.47,10.87-9.12.12-19.54.81-28.33-4.25m17-36.36c-2-1.3-3.94-1.8-6.12-.89-2.52,1-3.45,2.37-5,5.07,3.53.19,6.87,0,10.66-3.22C75.52,44.67,76.69,44.45,75.78,43.86Z"/>
  </g>
  <g class="skinOverlapLine">
    <path d="M80.63,96.57c5.05-3.22,5.41-2.55,12-3.34"/>
    <path d="M79,103.22c.27-1.48,1.77-2.48,3-3.45,2.71-2.19,4.42-1.92,8.25-2.4"/>
    <path d="M79.52,107.1c2.81-1.52,2.45-4,10-4.87"/>
    <path d="M12.48,235c.4,5.8,1.4,5.73,3.4,9.53"/>
    <path d="M10,235.38c-1.87,8.06.46,8.32,2.53,15.31"/>
  </g>
  <g class="skinFoldLine">
    <path d="M111.51,138.76c.87,4.52,2.43,8.07,5.2,10"/>
    <path d="M44.67,175.09a40.29,40.29,0,0,0-9.22-3"/>
    <path d="M44,64.54c2.09,1.43,3.75,5.06,1,3.77"/>
  </g>
  <g class="skinCreaseLine">
    <path d="M83.54,321.37a12.6,12.6,0,0,1-8.42-1.22"/>
    <path d="M103.91,320.15c-2,1.12-5.67,1.12-8.27,0"/>
  </g>
  <g class="maraStrap">
    <path d="M103.53,397.35h0a19.52,19.52,0,0,0-14.16,2.79c.8,1.18,1.67,2.35,2.57,3.5,3.07-2.34,9.61-3.82,13.85-2.8h0C105,399.67,104.21,398.49,103.53,397.35Z"/>
    <path d="M74.85,404.45c0-1.39-.08-2.78-.17-4.14-4.25-2.22-14.19-2-18.2-.49h0c0,1.26.05,2.62.16,4.07C61.42,402.1,70.11,401.92,74.85,404.45Z"/>
  </g>
  <g class="watch">
    <path class="maraWatchBand" d="M115.18,106.82a61.86,61.86,0,0,1-10,6.07c-.86.31,1,4.17,2,3.85a50.82,50.82,0,0,0,10.1-6.21C118.12,109.76,116.06,106.33,115.18,106.82Z"/>
    <path class="watchSide" d="M115.29,113.9c-1.3.71-3.18-.22-4.2-2.08s-.8-3.95.49-4.67l.88-.48,3.71,6.75Z"/>
    <ellipse class="watchFace" cx="114.31" cy="110.04" rx="2.68" ry="3.85" transform="translate(-38.86 68.63) rotate(-28.78)"/>
  </g>
  <path class="lipFemaleMedium__noStroke" d="M92.74,66c4.91,4.17-.92,8.9-7.63,7.36-3.9-1.36-4.57-4-6.43-5.65a4,4,0,0,0,.67-.31Z"/>
  <path class="lipFemaleMedium" d="M77.35,68.11a7.16,7.16,0,0,0,2-.68c5-.29,9.84-.75,13.23-5.16,1.16-.54,2.27-1.46,1.56-2.46a2.91,2.91,0,0,0-2.57,2.41C87.21,59.86,83.33,64.45,77.35,68.11Z"/>
  <g class="lipOverlapLine">
    <path d="M93.16,58.45c.34.61.87.92,1,1.36"/>
    <path d="M94.94,63.24c-1,.57-1.86.62-2.2-.16"/>
  </g>
  <path class="lipEdgeLine" d="M94.27,67.94c1.59,3.55-3.47,6.76-9.16,5.45"/>
  <path class="mouthInner" d="M92.58,62.27c2.1,9.12-7.43,8.78-13.23,5.16C84.62,63,88.71,64.26,92.58,62.27Z"/>
  <path class="tongue" d="M79.35,67.43a15.64,15.64,0,0,1,7.23-3.51c2.18,1,4.27,2.38,5.19,4.14C89.34,70.9,83.42,70,79.35,67.43Z"/>
  <g class="teeth">
    <path d="M91.18,65.58A17.81,17.81,0,0,1,90.66,63a10.36,10.36,0,0,0,1.92-.76A9.8,9.8,0,0,1,92.86,65,4.72,4.72,0,0,1,91.18,65.58Z"/>
    <path d="M89.68,63.28A7.06,7.06,0,0,1,90,66c-1.63,1.09-6.7,1.79-9.24.44C84.1,64.05,87,63.9,89.68,63.28Z"/>
  </g>
  <g class="cheekLine">
    <path d="M75.74,63.54c4.09-4.61,3.42-7.49,4.61-8.32"/>
    <path d="M94.37,57.21a9.83,9.83,0,0,0-1.53-1.65"/>
  </g>
  <g class="noseLine">
    <path d="M80.35,55.22c-1,1.16-.17,3.5,1.76,4.14"/>
    <path d="M86.92,46.05c3.16,3.8,8.9,7.53,5,10.44-2.52,1.88-6.31-.42-7.78,1.9"/>
  </g>
  <g class="eyeFoldLine">
    <path d="M93.45,41.39c-.33,1.12-1.77,2-4,2"/>
    <path d="M75.21,47.49a6.79,6.79,0,0,1-7,2.86"/>
  </g>
  <g class="eyeCornerLine">
    <path d="M63.15,49.06a4.55,4.55,0,0,0,1.54-1"/>
    <path d="M92.63,39.13a2,2,0,0,0,.38-.49"/>
    <path d="M91.48,36.06a3.07,3.07,0,0,1,.67.08"/>
  </g>
  <g class="eyeCreaseLine">
    <path d="M74.74,41.82c-2.45-1.65-6.59-1.47-9.65,3.36"/>
    <path d="M92.51,34.16a8,8,0,0,0-6.3,2.29"/>
  </g>
  <g class="eyebrowRed">
    <path d="M75.42,33.79c0,3.1-4.29,3.43-8,4.36-6.55,1.64-6.94,6.6-8,5.9C61.17,34.07,71.86,35,75.42,33.79Z"/>
    <path d="M90.71,30.81c-3,1.2-5.6,3.24-7.23.55,2.49-.58,3.55-2,6.7-2.73C90.46,29.35,90.49,30.06,90.71,30.81Z"/>
  </g>
  <path class="hairRed" d="M.53,89c4.24,4.9,10.89.26,10.43-4.18C10.25,77.88,2.87,72.67,8.12,51c2.31-9.51,1-17.23,8.09-30.52C26.41,1.33,68.42-8,77.44,9.51l4,3c4.44.95,12,10.85,10.22,13.19-8.9,12-34.55,1.92-45.92,5.78C54.24,47,43.5,46.93,51.07,61.8c-3.6-.92-6.64-3.49-9.55-7.28,3.09,15.66,13.2,35.62,2,43.27-2.37,5.84-10.84,11-17.26,10a5.94,5.94,0,0,0,2.46-2.07c-9.46,2.23-16.45-1.4-18.57-8C4.43,96.66,1.71,93.37.53,89Z"/>
  <path class="maraHeadband" d="M81.47,12.5c-20.6.95-35.81,14-41.07,28.85C37.05,20.73,55.42,1.59,75,8.4A16.67,16.67,0,0,1,81.47,12.5Z"/>
  <g class="hairOverlapLine">
    <path d="M40.4,41.35c.87,6.25,0,8.87,1.12,13.17"/>
    <path d="M43.63,93.84A14.48,14.48,0,0,1,39.41,100a13.7,13.7,0,0,0,4.15-2.16"/>
  </g>
</svg>
