<svg viewBox="0 0 1818.57 3337.15">
    <g class="tristan">
        <g class="soleTan">
            <path d="M1073.23,3192.85c7.17,6.73,6.15,31.3-.56,37.46-61,41.42-197,30.78-265.85-3.16l-.56,13.32c-26.86-2.31-66-11.2-71.08-21.83-4.25-12-2.22-31.57,2.79-41.46Z"/>
            <path d="M624.92,3205.16c6.88,10.23,7.51,21.9,4.71,26.94-12.87,19.59-171.5,51.61-254.33,8.51l3.36-26.49"/>
        </g>
        <g class="tristanBoot">
            <path d="M913.16,2915.8c21.82,239,142.72,148.88,160.07,277-1.12,22.94-142.34,53.38-228.36,17.35-32.32-13.54-95.7-8.4-106.9-33-1.67-98.51,29.67-182.46,24.07-251.86Z"/>
            <path d="M527,2924.2c-.56,250.18,96.83,170.7,97.95,281-2.24,15.11-153.36,47.57-246.26,9-25.56-86.28-25.74-183.91-13.44-287.12Z"/>
        </g>
        <path class="tristanJeans" d="M892.16,1602.54c32.86,176,51.64,450.68,30.52,666.63-3.24,33.11,3.52,63.38-7,110.32,19.24,34.21-1.79,52.42,3.52,79.25,19.22,96.93-10.24,228.05,5.87,275.2,31.69,92.71-21,83-10.56,117.36L757.19,2856c4.69-25.82-34-44.59-16.43-102.1-27-25.82-11.81-58.51-16.43-96.24-5.63-45.91-14.38-138.06-16.43-184.27-1.1-24.62-22.3-34,1.17-82.15-5.87-27-33.3-38.66-30.51-72.77,4-48.54-28.58-179.21-55.17-298.11-21.12,133.8-13.42,197.72-48.12,329.15-7.07,26.8,7.05,68.72-16.43,101.59,7,130.27-29.47,258.17-23.47,293.41,2,11.63,23.47,36.38-10.56,61,21.12,37.55-3.52,42.25,2.34,64.55-53.33,10.06-109,7.25-166.65-5.87l176-1241.72Z"/>
        <g class="tristanJeansInner">
            <path d="M919.59,2835.5c-55.81,14.92-105.74,16.73-167.16,4.09-13-2.69-11.33,105.17,0,110.44,35.17,16.36,111.69,22.38,171.25-4.91,18-8.23,10.36-35.33,8.18-54.81C928.89,2863.83,939,2830.31,919.59,2835.5Z"/>
            <path d="M534.36,2852.4c10.68-4.2,14,93.92,1.54,100.9-41.84,23.39-142.35,18.82-180.8,3.27l9-108C399.28,2867.4,484.45,2872,534.36,2852.4Z"/>
        </g>
        <path class="tristanShirt" d="M935.2,796.4c30.43,31,54.67,67,76.64,106.54,12.27,22.08,38,27.61,42.05,57.95,8.52,63.87-115.45,138.29-151.4,117.75-2.82,219.44-8.54,480.46,0,536.45-.86,10-249,16.12-376,19.49C419.63,1633.67,427.22,739.1,534,740,665.57,705,799.68,733.39,935.2,796.4Z"/>
        <g class="tristanVest">
            <path d="M768.67,726.65c61,1.76,133.59,27.11,181,52.25-20,8.59,7.82,36.88-13.14,44.63,11.17,15.85-17.85,26.3-4,48.88-19.5,5.46,4.55,27.25-22.71,36.54,22.47,25.21-17,26.94-2.47,55.79-32.59,22.22,19.25,40-6.24,53.9,3.79,197.5,9.88,381.6,20.3,540.45-22.23,19.34-134.39,33.84-180.79,33.84-8.42-64.6-1.94-205-1.94-331.62C760.94,1031.21,806.38,848.47,768.67,726.65Z"/>
            <path d="M579.46,1223.52c2.95,116.46-.34,235.07-8.89,355.47-58,6.4-128.3,7.52-203.28,6.66l-60-800.91L519.7,735.2Z"/>
        </g>
        <ellipse class="tristanPatchTopLeft" cx="830.57" cy="1178.84" rx="51.58" ry="64.79"/>
        <ellipse class="tristanPatchTopRight" cx="471.37" cy="1170.22" rx="42.78" ry="46.28"/>
        <path class="tristanPatchBottomLeft" d="M762.62,1376.34c33.46-8.18,87.74-9.66,129.39-17.84-1.49,29,6.69,88.48,6.69,159.13-25.28,11.89-109.31,26.77-130.13,24.54C759.65,1513.16,757.41,1398.65,762.62,1376.34Z"/>
        <ellipse class="clothingSilver" cx="840.04" cy="1070.57" rx="14.48" ry="11.52" transform="matrix(0.07, -1, 1, 0.07, -289.04, 1830.16)"/>
        <path class="tristanLapel" d="M761.87,748.65c30.87,69.42-31.34,297.14-23.17,512.66,30.71-161.09,92.91-274.4,108.36-359.15-17.62-4.5-35.44-29.66-54.32-41.88,14.89-5.85,30.11-16.35,45.54-30-33.32-27.77-41.1-120-77.2-123.3L564.46,692c-79.42-1.67-107.19,99.42-96.09,138.3,48.21,100.6,90,257.71,111.09,393.23C611.67,946.93,506.14,803.63,534,740Z"/>
    </g>
    <g class="miriam">
        <g class="miriamShoe">
            <path d="M229.77,3207.94,62.24,3076.75C40.07,3087.58-6,3154.16,14,3184.69s109.93,61.95,198,89.6C211,3246.93,219.79,3217.25,229.77,3207.94Z"/>
            <path d="M509.45,3248.06c36,6.48,87.45,28.61,88.26,48.5.95,23.27-68.71,42.66-121.52,39.18-59.06-3.89-222.28-.38-244.18-14.76-32.94-21.62-19.31-97.11-2.24-113Z"/>
        </g>
        <g class="miriamPantyhose">
            <path d="M229.77,3207.94a221.06,221.06,0,0,0,15.61-37c-20-26.17-40.51-49.8-39.82-66.45.91-22,14.32-62.89,35-114.64l-6.74-427.38c-89.14,118.28-38.64,345.64-171.56,514.29,2.83,28.49,19.78,57.81,36.06,74.5,24.2,24.82,76.77,49.95,123.69,68.51C224.37,3214.6,227,3210.5,229.77,3207.94Z"/>
            <path d="M374.19,3154.07c-19.48-161.62,26.14-484.06,43.56-550.2,14.31-54.32,33.88-213,41.55-305.58-69.2,14.46-179.69,26.38-256.21,7.41,14.42,110.88,44.76,211.74,26.68,277.54-47,170.94,9.19,351.64,24.07,505.49,4.23,43.82-5,83.31-24.07,119.21,23.13,20.44,43.27,37.2,86,50.73,59.11,18.72,153.88,22.5,193.72-10.61-18.4-4-31.85-11.81-45.85-21.78C416.83,3193,387,3193,374.19,3154.07Z"/>
        </g>
        <path class="miriamDress" d="M555.24,1924.24c-9.17,152.08-29.91,337.09-41.66,359.12-50,20.57-275.17,60.23-361.85.88-7.61-73.78-14.89-140.2-27.44-200.66-16.16-77.86-8.81-148.37,17.63-215.95L469.7,1332.38c22-1.46,41.94-13.28,47.82-23.56,34.62,32.77,45.33,80,34.25,132.8-17.2,82.05,10.29,202.72,7.35,392.23C558.35,1883.29,576.5,1891.1,555.24,1924.24Z"/>
        <path class="miriamJacket" d="M165.22,1087.05l175.93.2c107.28,51.31,129.36,214.51,128.55,245.13,56.41,73.61,35.92,157,35.76,186.74-.9,171.5,4.59,335.5-20.55,443.25-35,20.65-361-41-353-81.4l9.87-20.65c-24.24-35,8.09-38.61,14.37-57.47-34.12-33.22-11.67-61.95-7.18-87.09-26.94-21.55,13.08-47.6-12.57-153.54C95.14,1391.63,62.81,1309,165.22,1087.05Z"/>
    </g>
    <g class="clothesDisplayLine">
        <path d="M811.09,1018.8c24.27-1.23,57.87-.53,74.66-1.23a105.55,105.55,0,0,1,0,41.9c-14.06,15-34.27,34-44.79,34.39-11.89.39-37.79-12.6-49.59-20.51"/>
        <path d="M624,1631.94c13.78,63.84,1.72,158.37,5.34,217.86"/>
        <path d="M685.7,1630.07c10.06,58.31,27.29,200-57,201.6"/>
        <path d="M908.36,1706.1c-33-3.57-69.62-17.85-91.8-36.94"/>
        <path d="M781.54,2844.61c-10.69,21.2-11.25,95.57,0,114.58"/>
        <path d="M474.82,2968.37c8,52,20.92,100.5,39.84,145.68,20.21-2.6,52.05-1.8,67.12,9.41"/>
        <path d="M445.75,2969.54c8.72,49.17,21.59,98,38.13,147.31-46.46,5.61-66.14,23.19-80,49.69-8.5-.77-15.89.35-21.71,4.26"/>
        <path d="M873.94,2960.21c10.12,47.76,28.42,95.06,53.77,142-29.15,10.48-51.37,24.68-60.48,45.89-38.44,4.92-63.53,21.59-73.82,51.3"/>
        <path d="M896.64,2955c10.9,48.83,30.71,96.71,57.93,143.79,17.51-2.63,36.9.47,57.72,7.92"/>
        <path d="M771.56,3195.63c0-30.77-7.84-64.35-30.18-85.73"/>
    </g>
    <g class="clothesOverlapLine">
        <path d="M317.63,1328.5c-2.29,33.51,13.56,49.62,1.52,67,.76,53.3,21.32,68.53,6.09,80.72,11.43,11.43,7.27,41.06,12.19,56.35,5.56,17.31,20.56,12.19,9.14,31.22,3.8,11.43,25.89-4.57,19.8,17.52,22,1.36,41.56,25.23,65.49,31.22,15.79,4-30.36,133.68-46.46,131.27-42.64-6.38-137.45-34.5-147.73-61.21-6.58-17.08-12.19-7.61-28.18-44.93-29.12-67.94-40.36-168.3-54.07-249"/>
        <path d="M623.39,2020.35c8-41.85,5.34-110.83,14-152"/>
    </g>
    <g class="clothesFoldLine">
        <path d="M169.62,1109.87c28.14,30.31,168.77,57.53,223,150.46,22.73,39,53,57.37,77.94,125.56"/>
        <path d="M289.5,1215.13c24.64,19.48,37.82,84.8,28.13,113.37-14.65-26.11-32.91-45.31-56.78-53.78"/>
        <path d="M129.06,1308.52c4.64,36.65,12.66,65.19,26.36,80.14-8.59-26.85,5.73-41.75-10.31-67.53"/>
        <path d="M290.65,1369.83c-32.47-8.71-62.89-12.49-89.39-6.87"/>
        <path d="M246,1242.06c27.76,13.2,49.95,33.49,65.32,62.45"/>
        <path d="M247.67,1382.44c-29.92-5.7-57.55-5.51-81.36,4.58"/>
        <path d="M325.24,1476.24a156.81,156.81,0,0,0-74.7,29.39"/>
        <path d="M274,1473c-21.06,5-40.77,15-59,30.37"/>
        <path d="M346.57,1563.81q-43.23.45-103.48,30.06"/>
        <path d="M267.15,1631.12c-77.74,21.5,32.66-49.85,78.5-48.13-26.93,8-54.2,41-75.06,74.48"/>
        <path d="M329,1611.63c-15.47,10.32-37.25,40.11-43,56.16"/>
        <path d="M149,1715.76c31.05,25.37,83.68,19.28,62.56,47.72"/>
        <path d="M156.19,1802.85c9.46,4.81,16.27,10.26,6.68,19.64"/>
        <path d="M141.82,1860.32c20.11,17,52.89,29,91,39"/>
        <path d="M412.12,1795.56c-7.47,37.29-18.27,73.48-36.67,107.15"/>
        <path d="M447.62,1743.25c1.2,26.18-1.6,55.92-8.14,89"/>
        <path d="M440.94,1498.4c-3.86,39.95,7.4,85.06,2.89,121.81"/>
        <path d="M355.27,1343.7c5.56,35.66-9.62,75.81-18.49,127"/>
        <path d="M377.46,1407.18c-3.7,43.76-14.42,82.56-14.79,119.59"/>
        <path d="M1031.27,950.72c-27,25.94-60.32,25.74-99.75,0"/>
        <path d="M561,803.09c52.44,13.68,128.25,74.1,70.11,68.4"/>
        <path d="M624.28,896a269.24,269.24,0,0,1,110,33.06"/>
        <path d="M575.52,1498.26a434.63,434.63,0,0,0,102-14.73"/>
        <path d="M736.86,1534.86c-77.1,32.83-149.19-7.55-61.24-28.69"/>
        <path d="M649.64,1946.7c13.64,39.68,39.06,71.87,71.86,99.37"/>
        <path d="M644.29,1997.91c35.22,66.92,83.49,126.56,142.18,180.4"/>
        <path d="M709.07,2391.23c8.35-12,9.79-24.85,9.37-37.88"/>
        <path d="M915.63,2379.49c-5.33-10.85-10.68-15.44-16.8-23.84"/>
        <path d="M897.3,2435.91c-25.33-37.62-65-8.41-107.77,29.81"/>
        <path d="M905,2728.67c4.55,44-82.66-23.53-85.61-42.81"/>
        <path d="M910.3,2807.4c9.65-16.36-21-35.21-47.39-28.28-46.63,12.23-87.33,17.43-75.68,45.86"/>
        <path d="M740.76,2753.89c13.6,13,46,24.11,20.48,46.63"/>
        <path d="M524.81,2805.53c-19.67,10.51-40.87,20.67-34.92,37"/>
        <path d="M496,2790.58c-20.77,16.53-48.16,26.33-80.26,31.34"/>
        <path d="M547.22,2401.51c.76,18.34,9.17,29.81,11.62,49.58"/>
        <path d="M555.24,1924.24c-15.08,19.48-76.4,57-115.76,69.82"/>
        <path d="M543.82,1901.62c-9.15,13.73-41.94,33.29-53.84,36"/>
    </g>
    <path class="stubbleBlonde" d="M892.52,212.66C867.3,84.35,648,79.87,561.17,118.59,478.37,155.5,403.23,256.46,460,453.8,541.71,413.76,743.88,341.43,892.52,212.66Z"/>
    <g class="eye">
        <rect class="sclera" x="625.59" y="380.19" width="270.26" height="76.34" transform="translate(1521.45 836.71) rotate(180)"/>
        <g class="irisBlue">
            <ellipse cx="696.5" cy="410.54" rx="20.2" ry="23.4"/>
            <ellipse cx="853.25" cy="410.54" rx="20.2" ry="23.4"/>
        </g>
        <g class="pupil">
            <ellipse cx="699.1" cy="410.54" rx="7.86" ry="9.1"/>
            <ellipse cx="855.85" cy="410.54" rx="7.86" ry="9.1"/>
        </g>
    </g>
    <g class="skinNordic">
        <path d="M169.78,977.53l-4.56,109.52c50.2,43.81,128.6,52.12,190.67,103.23,50.33,41.45,78.58,95.75,113.81,142.1,22-1.46,41.94-13.28,47.82-23.56-43.48-39.3-102.74-156-168.84-207.16l-7.31-96.75"/>
        <path d="M580.67,982.06c-56.16-19.95-147-10.15-180.51-18.59L153,902.08C73.07,936.69,12.39,1025.83,1.56,1078.21c-4.52,21.83,19.59,46,31.61,53.71,91.85,58.72,255.11-45.6,365.38-82.83,16.13-9,45.89,68.84,112,45.77,1.07,5.73,6.61,12,11.53,15.08-14,3.63-30.8,24.79-14.22,33.6,7.25,4.92,20.66-5.64,30-5.89-8.62,11.91,1.92,27.72,15.84,19.44-6,11.29,6.25,23,13.76,15.71,22-22.79,41.69-12.69,55.68-52.57,16.14-4.94,18.62-24.46,16.75-55.58C640.47,1051.23,605.4,990.85,580.67,982.06Z"/>
        <path d="M768.73,658.27c-7.24,25.33-12.86,67.86-6.86,90.38C744.57,778.93,701.31,815,669.59,828,627.77,815,555.67,774.61,534,740c6.36-43.16,7-92.3,0-152.32"/>
        <path d="M1586.49,1434.27c21.57,17.56,44.15,27.09,60.09,41.14,26.7,30.6,56.8,16.06,44.07.27-14.86-15.32-29.85-37.59-53.94-55.58,17.63,4,63,38.53,77.82,48.19,26.72,30.14,52.88,9.67,44.35-2.84-9.66-14.78-25.45-32.7-58.43-54.88,13.82,2.94,33.41,15.65,53.88,25.88,46.63,35.82,63.68-4,49.47-13.08-26.72-20.47-78.42-52.13-122.54-63.71,34.09,8.52,60,10.84,86.52,23.08,32,23,65.59,1.4,41.71-17.93-35.26-27.29-92.12-42.08-141.53-56.33,7.3-1.22,16.43-4.87,28-11.56,30.44,10.95,68.78-16.44,55.39-40.78-8.21-14.27-59.15,12.7-108.34,4.26-50.75-8.71-97.26,19.58-137.1,10.23-166.94-39.18-258.24-126.13-351.83-152.85-25.84-7.37-63.17-72-103.3-131.13-17.9,50.93-99.5,99.71-137.86,95.17,32.66,36.84,58.21,77.7,105.62,135.46,113.93,138.79,321.15,114.88,464.3,155.72C1505.89,1379.58,1538.21,1430,1586.49,1434.27Z"/>
        <path d="M828.18,1845.8c-43.09-8.9-59.41-31-102.33-36.17-81.86-10.47-80-45.22-97-53.26-52.17-12.12-130.42-6.74-238.44-17.8-12.91-7,27.92-124,41.62-121.42,51.64,12.12,100.05,40.17,214.4,54.93,28.08-25.7,48.5-22.37,66.11-26.27,24.34-5.4,42.35-.11,64.73-3.72,14.33-2.31,19,2.38,41.4-1.42,20,0,6.19,41.88-32.84,37.12,42.19,17.72,85.91,21.68,125.65,38.6,21.52,9.16,13.81,40.88-32.84,25.18,17.61,8.57,36.18,11.9,41.89,22.84,4.74,9.48-1.6,28.6-38.08,17.14q-46.49-16.27-93.29-27.61c42.2,17,78.06,32.37,103.29,47.6,11.9,5.71,14.28,42.36-41.41,16.66-24.77-12.06-51.41-22.42-79-31.89,22.66,9.81,42.84,22.84,62.35,32.36C854.35,1827.59,852,1849.13,828.18,1845.8Z"/>
        <path d="M870.71,619.77c-19.57,35.85-43.8,69.27-79,89.85-43.83,25.59-108,8.71-149.18-13.52C556.28,649.58,515,604.19,507.26,519.26c-6.78,14.61-38.25,17.27-49.71-11.52-8.52-21.42-35.3-34.59-35.66-82.86-.48-63.44,63.4-65.2,70.59-16.22,10.92,4,22,4.13,34.18,1.61-.43-10.33-6.08-23.17-.85-35.52C555.8,304,581,323,571.22,221.86c48.86-20.12,137.94-24.72,193.7-1.73,26.44-15.52,103.46-21.84,127.6-7.47,11.58,53.11,24.42,123.24,17.19,150.51C893,415.5,940.28,492.31,870.71,619.77ZM725.17,412.22c-11.75-12.72-25.86-15.87-40.24-15.35-16.82.6-28.92,6.27-42.34,13.86,22.07,11,54.66,21.3,78,6.67C723.23,415.75,729.73,417.16,725.17,412.22Zm88.45,3.88c23.2,8.69,54.07,11,68.47-5.65-9.58-6.31-19.54-13.61-35.48-12.73-16.59.92-25,5.09-39.93,14.42C800.37,416.07,810.72,415,813.62,416.1Z"/>
    </g>
    <g class="skinOverlapLine">
        <path d="M465.4,1281.73c5.51,16.14,24.06,30.28,33,42.81"/>
        <path d="M754,1667a139.27,139.27,0,0,1,31.87,10.75"/>
        <path d="M794.9,1717.56c3,6.42,50.47,11.89,83.73,24"/>
        <path d="M118,978.45a116.17,116.17,0,0,1,42.72-.79"/>
        <path d="M1700.45,1410.57a327.82,327.82,0,0,1-39.37-17.85"/>
        <path d="M544.28,1056.69c10.58,15.45,20.41,33.29,21.75,39.5,4.38,17.55-16.64,38.82-28.2,41.46"/>
        <path d="M573.57,1043.38c10.94,15.09,26.08,42.66,24,53.7-10.31,53.6-25.66,45.89-43.86,60"/>
        <path d="M603.34,1031.78c32,46.66,27.85,45.53,19.77,88.45"/>
    </g>
    <g class="skinFoldLine">
        <path d="M1130.77,1153.76a177,177,0,0,1-45.4,54.19"/>
        <path d="M1683.55,1350.87c-.81,6.47-3,11.32-5.66,14"/>
        <path d="M1664.14,1387.24a19.75,19.75,0,0,1-8.53,12.06"/>
        <path d="M1641.15,1415.61c-2.79,3.73-6,6.07-9.57,6.74"/>
        <path d="M487.09,430.28c-24.86-84.29-78.17-10.44-33.86,49.36"/>
        <path d="M484.93,441.09c-14.95,12.34,14.26,32.67-.36,41.07-7.47,4.29-11.06-16.74-22-22.7-22.86-12.47-4-41.79,5.05-33.5"/>
    </g>
    <g class="skinCreaseLine">
        <path d="M1518.42,1288c-18.38,21.11-8.33,32.35-17.2,48.32-4.61,8.3-8.12,23.45-5.32,31.94"/>
        <path d="M1668,1308.48c-33.3,3.79-22.3,54.17-87.07,58"/>
        <path d="M1606.86,1377.84c-9.2,7.77-16.51,17.19-20.66,29.39"/>
    </g>
    <g class="head52">
        <path class="lipMaleLight__noStroke" d="M674.06,562.69c30.7,3.35,61.61,6.78,77.52,4.44,16.24,4.14,23.88,3.18,37.89-1.27,5.59,2,15.34.08,25.59-.28-15.75,17.57,7.22,61.09-57.49,71.52C694.59,631.7,702.83,590.72,674.06,562.69Z"/>
        <path class="mouthInner" d="M809.51,566.62c-16.43,4.12-24.46,11.62-40.65,12.39-21.36,1-54.6-14.73-94.8-16.32C728.28,621.34,793.11,622.09,809.51,566.62Z"/>
        <path class="teeth" d="M684.75,563.45c29,39.88,105.49,52.44,124.76,3.17-16.43,4.12-24.46,11.62-40.65,12.39C749.43,579.94,720.16,567,684.75,563.45Z"/>
        <g class="lipOverlapLine">
            <path d="M674.06,562.69c-3.68-.14-7.42-.17-11.21-.05"/>
            <path d="M823.8,564.31a86.62,86.62,0,0,0-14.29,2.31"/>
        </g>
        <g class="lipEdgeLine">
            <path d="M789.47,565.86c-14,4.45-21.65,5.41-37.89,1.27"/>
            <path d="M796.16,618.07c-15,23.25-61.45,27.39-82.15,1.6"/>
        </g>
        <g class="cheekLine">
            <path d="M823.49,514C833,529.08,848.68,532,853.8,547.25"/>
            <path d="M719.37,504c-13.44,6.46-20.07,18.21-43,26.41-16.81,6-30.94,16.19-33.66,28.54"/>
        </g>
        <path class="noseLine" d="M818.87,504.09c5.72,5.12,8,24-4.22,27.49-14,4.06-15.36,15.27-34.63,15.57-20.48,1.51-18-15.13-47.29-14.53-14.15.28-14.45-22.81-6-29.13"/>
        <g class="eyeFoldLine">
            <path d="M875.79,431.51c-20.78,15.05-47,9.63-63.55-1.51"/>
            <path d="M715.57,432.71c-13.86,11.14-40.36,12.35-54.51,1.51"/>
        </g>
        <g class="eyeCornerLine">
            <path d="M882.09,410.45a15.8,15.8,0,0,0,8.13,2.33"/>
            <path d="M613.85,411.49a41,41,0,0,0,28.74-.76"/>
        </g>
        <g class="eyeCreaseLine">
            <path d="M806.22,399c40.66-31.32,69.57-3,78.6,2.41"/>
            <path d="M638.47,404.4c21.85-18.53,72.2-26.53,90.65-2.11"/>
        </g>
        <g class="eyebrowBlonde">
            <path d="M814.58,356.84c3.49,6.44,16.1,10.37,31.71,3.5,24.51-10.8,42.36-2.93,60.16,2.15A120.7,120.7,0,0,0,814.58,356.84Z"/>
            <path d="M737.57,354.7c-4.07,8.44-15.17,9.08-31.71,4-44.71-13.69-93.12,13.42-90.09,12.53C669.76,340.46,723.28,349.07,737.57,354.7Z"/>
        </g>
        <path class="hairBlonde" d="M770.84,232.89c.17-20.22-41.05-11-48.33-35-4.15-13.73-4.06-31.29-16.18-37-17.9-8.48-9.3-26.62-22.37-27.64-11.64.84-11.24-17.09-19.27-16.27-11.43,1-17.66-4.49-22.27-12-5.54,5.39-14-3.59-31.32-1.14-31.88,5.53-68.36,18.76-98.52,45.62-1.18-7.44-9.76-16,6.59-26.62-3.14-10-1.46-19.34,4.28-28.21,14.63,3.8,21.78-3.42,20.27-23.39,14.69-2,9.2-17.42,17.81-24.12,11.3,19,33.26-13.55,19.52-20.39,6.45-2.81,11.49-1.58,15.51,2.58C617.44,26,615,7.42,636.2,4.83c-9.84,19.75,30.66,19.41,19.33-.5,10.49-4,23,8.92,23,8.92C679.9,3,699.46,19.77,697.37,2c12,7.53,20.08,17.11,22.84,29.48a86,86,0,0,1,36.6-11.84C739.62,36.93,766.73,55.47,774,36.83A39.56,39.56,0,0,1,787,65.36C802.49,68.94,814.32,77,819.8,92.82c-20.81-5.44-26.65,23.05-1.08,20.45-13.9,22.84,12.18,10.15,15.62,41.45-22-13.46-35,10.56-8.62,21-15.07,8.1-26.05,13.93-30.51,34.52C795.55,220.54,780.8,214.36,770.84,232.89Z"/>
    </g>
    <g class="head49">
        <path class="sclera" d="M482.32,806.56l-137,15.6-8.14-71.47,137-15.6C491.61,747.78,495.38,789,482.32,806.56Z"/>
        <g class="irisBlue">
            <ellipse cx="405.65" cy="779.36" rx="13.11" ry="22.05" transform="translate(-85.57 50.9) rotate(-6.5)"/>
            <ellipse cx="478.54" cy="771.06" rx="11.72" ry="22.05" transform="translate(-84.17 59.09) rotate(-6.5)"/>
        </g>
        <g class="pupil">
            <ellipse cx="409.56" cy="778.92" rx="5.1" ry="8.58" transform="translate(-85.5 51.34) rotate(-6.5)"/>
            <ellipse cx="483.02" cy="770.55" rx="4.56" ry="8.58" transform="translate(-84.08 59.6) rotate(-6.5)"/>
        </g>
        <g class="skinNordic">
            <path d="M488.18,760c-8.34-4.86-20.79,1.91-28.34,9.63a34.46,34.46,0,0,0,1.68,17c14.41,1.58,27.55,2.85,28.57-7.49,13.67,10.27-.19,18.91,2.07,22.47,29.63,46.67,28.86,99.89-.26,167.56-11.25,26.13,2,57.36-39.66,69.75-32.4,9.63-50.77-1.57-98.6-14.13-48.13-12.63-114.09-40.54-140.21-97.8-32.17,21.8-42.9,2.74-54.74-7.65C-160.62,731.39,209,392,436.44,585.47c21.62,29.58,28.93,54.47,38.63,80.75,9.2,24.92,21.68,52.88,17.22,72.68-2.2,9.77,9.15,12.73-3.11,26.26C488.89,763.41,488.59,761.67,488.18,760ZM415,765.25c-18.62-5.7-41.6,12-51.93,22.47,27.65,12.5,47.34,5.89,54.18,1C419.11,783.87,418,771.81,415,765.25Z"/>
        </g>
        <g class="skinFoldLine">
            <path d="M174,844.52c-26.89-56.79-81.43,12.4-19.87,52.2"/>
            <path d="M176.48,861c-13,12.83,20.19,26.47,11,34.49-10.33,9-11.95-12.2-25.81-15.66-23.74-5.93-10.51-39.21,1.72-31.52"/>
        </g>
        <path class="lipFemaleLight__noStroke" d="M397.24,928c8.19,8.72,11,16.13,16.1,22.5,36.44,45.85,88.35,8.06,53.3-12.6Z"/>
        <path class="lipFemaleLight" d="M397.24,928c26.1-4.69,45.67-19.2,58.88-16.49,16.64,3.41,31.74-4.68,36.48-.19,2.87,2.71-8.28,13.24-20.93,15.63Z"/>
        <path class="lipOverlapLine" d="M472.14,919c4.44-.06,8.72-.66,12.67-3.56"/>
        <path class="lipEdgeLine" d="M413.34,950.52c36.44,45.85,88.35,8.06,53.3-12.6"/>
        <path class="mouthInner" d="M455.92,950.91c-16.74-18-8.83-19.41,10.72-13C466.63,945.12,463.18,950.44,455.92,950.91Z"/>
        <path class="tongue" d="M408,927.56a83.59,83.59,0,0,1-10.76.46c21.69,6.83,33,22.64,58.68,22.89,1-4.44-.24-8.25-3.64-11.48C436.72,939.34,420.14,934.31,408,927.56Z"/>
        <path class="teeth" d="M472.14,919c-35.38-3.07-41.65,6-64.14,8.55,16,8.9,39.73,14.82,58.64,10.36C471.49,936.16,472.09,924.77,472.14,919Z"/>
        <path class="cheekLine" d="M375.73,921.18c3-10.61,16.56-20.1,30.36-33.37,12.88-12.38,17.21-23.4,26.55-29.6"/>
        <g class="noseLine">
            <path d="M432.64,858.21c-5.67,5.08-5.11,27.6,14.38,24.27,11.37-2,13.41-5.77,23.84-6.29"/>
            <path d="M459.84,769.6c-7.68,40.39,86.1,101.16,14.55,110.11"/>
        </g>
        <path class="eyeLidLine" d="M417.2,788.72c4.91-.77,6.68,4.22,5.49,10.51"/>
        <g class="eyeFoldLine">
            <path d="M493.1,797.46c-2.12,2.54-7.82,4.82-10.39,5.32"/>
            <path d="M418.12,805.16c-12.91,8.17-28.47,8.82-41.76,3.86"/>
        </g>
        <path class="eyeCornerLine" d="M347.09,797.59c5.27-.14,12.64-6.5,15.93-9.87"/>
        <g class="eyeCreaseLine">
            <path d="M420.71,767.13c4.89-21.77-39.86-8.86-62.1,9.53"/>
            <path d="M494.32,757.37c-.7-6.8-11.51-12.62-29.37-3.42"/>
        </g>
        <g class="eyebrowBlonde">
            <path d="M427,720.6c-15,28.56-57.95-3.9-100.44,37.94C375.06,705.52,393.42,728.43,427,720.6Z"/>
            <path d="M491.52,715.15c-6.46,1-12.75,2.15-19.9,1.87,6.34,8.69,13.06,9.2,21.38,7.85A83.39,83.39,0,0,0,491.52,715.15Z"/>
        </g>
    </g>
</svg>
