<svg viewBox="0 0 234.85 487.5">
  <g class="cigarette">
    <path class="cigaretteFilter" d="M5.31,218.71l-3.37,7.12A9.68,9.68,0,0,1,4.3,227l3.35-7.08A4.59,4.59,0,0,0,5.31,218.71Z"/>
    <path class="cigaretteBody" d="M.64,228.6c.56.65,1.4.59,2.41,1L4.3,227a9.68,9.68,0,0,0-2.36-1.12Z"/>
  </g>
  <g class="soleBlack">
    <path d="M176.5,434.56a20,20,0,0,1-.11,4.22c0,2.82-6.57,8.22-17.26,7.85v2C151.68,452.29,135.2,450,134,448a11.56,11.56,0,0,1-1.27-5.08Z"/>
    <path d="M155.77,476.56a10.47,10.47,0,0,1-.89,4.12c-1.48,2-7.91,4.46-15.63,3.18l-.11,2.18c-5.51,2.92-26-.1-27.78-2.05a23.1,23.1,0,0,1-.43-9.7Z"/>
  </g>
  <g class="boot">
    <path d="M123.78,343c.81-4.55,32.51-5.67,33.14-1,1.83,13.56,1,54.81,2.56,73,.78,9.14,6.13,8.9,13,11.19,4,1.32,5.78,6.9,2.82,11.18-6,8.78-15.53,5.77-23,7.52-4,.94-17.83.46-19.5-2-5-7.27-1.72-18.82-2.25-23.71C128.74,402.92,123.27,345.8,123.78,343Z"/>
    <path d="M115.43,449.6c6.85-31.83,8-64.72,13.76-80.46,2-5.37,33.19,1.21,31.86,6.68-7.9,32.58-19.84,69.22-18.29,80.43.83,6,6.47,7.52,10.18,9.34,4,2,4.62,8.85,2.83,11.13-5.28,6.76-14.26,3.62-22.93,4-10.18.42-21.31-2.58-21.91-6.41C109.19,463.37,114.59,453.52,115.43,449.6Z"/>
  </g>
  <path class="bootStrap" d="M159.79,384.41l-1.85,7.1a63.64,63.64,0,0,0-7.51-2.23c-3.73-.8-2.19-7.85,1.78-7.18A33.53,33.53,0,0,1,159.79,384.41Z"/>
  <polygon class="clothingSilver" points="155.31 382.21 153.1 390.56 150.22 389.8 152.41 381.5 155.31 382.21"/>
  <g class="jeans">
    <path d="M125,330.54c.92,2.27-2.75,3.2,1,5.32a26.89,26.89,0,0,0-.9,5.76c4.29-2.42,18.46-3.33,26.4-2.12l31.42-100.22-84.61-1c-5.33,16.23-.83,35.34,7,50.59A361.06,361.06,0,0,0,122.8,322C126,327.31,121.08,328.9,125,330.54Z"/>
    <path d="M135.19,275.84c.7,9.85-3,49-2.65,67.82.1,5.83-4.09,7.24-.32,9.64.1,1.93-3.58,3.74-.7,6.34a38.76,38.76,0,0,0-1.35,8.44c4.61-2.64,22.7.74,28.86,4.79,1.36-5.65,4.88-9.81,1.93-11.15,2.34-1,2.46-2.61,1.29-4.65,4.24-1.41,2-6.1,3.12-9.48,8.1-23.49,12.3-48,16.69-72.33,1.52-1.81,1.58-3.05.36-3.77,3.54-3.12.24-2.83,1.23-8.41,3.3-2.84.07-3.89.34-6.83a60.18,60.18,0,0,0-1.15-17"/>
  </g>
  <path class="jacketTop" d="M176.54,110.46c6.9,3.15,12.6,5.11,14.22,10.92,5.62,6,3.29,11.73,4.81,17.3,2.15,7.88,4,13.58,3.63,23.94-.56,15.51,4.59,14.6,1.06,19.87,4.69,3.08,5.47,12.58,8.41,19.25,2.62,5.94,6.63,10.84,8.68,17.71-.76,5.42-15,13.5-19.21,11.79-11.95-17.53-14.1-28-16.82-31.13-36-7.9-69-16.78-78.16-34.05-19.33,19.67-35.34,42.64-48.44,54-4.2-.81-14.87-11.81-16.33-16.5,2.75-2.26,5.83-8.58,10.19-9.21,6.63-10.19,15.85-17.15,22.78-27.33-.91-4.22,4.55-5,6.16-8.41a9,9,0,0,1,4-8.57c1.29-3.88,7.24-10.38,9.38-15.69,2.21-5.5,1.13-11.32,7-12.77,3.88-2.75,1.45-7,15.52-11.16Z"/>
  <path class="bag" d="M103.16,166.06l-3.92-.84c-3.73.93-7.12,1.62-10.82,2.31-5.48,1-9.35,2.44-13,3.21s-4.23,2.13-4,5.46c1.4,17.29,3,35.7,1.43,54.29-.89,10.33-1.22,18,4.56,18.76,6.7.94,11.86,5,18.55,1.32C95.48,241.68,112.89,194.37,103.16,166.06Z"/>
  <path class="bagLining" d="M99,167.27c-3.87,1.13-8.93,1.78-11.55,2.32-4,.82-6.87,1.91-11.29,2.84-3,.63-2.26,3.06,1.35,2.81,4.91-.33,7.48-1.7,12.27-2.37,3.13-.44,5.56-1.43,8.88-2.19C98.78,169.55,98.89,168.41,99,167.27Z"/>
  <g class="bagStrap">
    <path d="M96.12,166c3.82-19.9,12.49-40.57,17.17-55.52-4.08,1.58-15.37,33.64-21.55,56.45C93.4,166.56,94.46,166.34,96.12,166Z"/>
    <path d="M115.38,113.4c-7.5,17.44-13.15,43-12.67,67.75.09,4.67-4.94,4.12-4.79.66,1-24.17,6.49-53.75,15.37-71.37Z"/>
  </g>
  <g class="bagCreaseLine">
    <path d="M94.89,176.32a24.66,24.66,0,0,0-6.3,10.14"/>
    <path d="M82.3,202.73c6.75,3.23,2.61,9.21-1.69,15.36"/>
    <path d="M90.28,229.45c.11,3.91.64,7.35,3.84,7.83"/>
    <path d="M84.14,236.82c2.61,4.3,4.94,11.17.46,9.67"/>
  </g>
  <g class="jacketBottom">
    <path d="M221.92,226c-.65-2.22-2.33-2.33-4.57-6.5-.76,5.42-15,13.5-19.21,11.79,2.49,3.46,3.85,6.65,7,7.23C212.38,239.91,222.8,232.82,221.92,226Z"/>
    <path d="M38.39,203.52c-2.74,2.12-6.52,3.65-7.89,5.93.31,6.48,13.18,16.57,16.06,17.29A53,53,0,0,0,54.72,220C50.52,219.21,39.85,208.21,38.39,203.52Z"/>
    <path d="M111.76,112.18c-1.65-14.88,63-13.63,66.63-2.45,1.34,4.09-6,10.48-12,16.44-3.64,3.57-5.06,7.09-10.3,9.44-15.59,7-29.33,5.4-37.79-8.83C115.63,122.34,112.48,118.68,111.76,112.18Z"/>
    <path d="M182.75,229c1.49-7.51-1.43-11.46-3.06-16.86,1.73-3.78,1.7-7.16,1.63-12.06-5.43-6.32-1.94-5.29-2.89-8.23-1-3.13-5.15-1.07-2.41-10.19.63-2.1-1.63-7.44-2.34-14.17-9.8,3.5-64.3,3.34-70.52-1.46,2.93,23.55-2.48,31,.42,37.25-4.13,6.09-1.59,9.8-2.28,13.8-1.19,7-4.48,13.34-5.67,23.4,13.46,16.3,68.58,15.55,91.06,2.57C183.26,237.08,187.72,234.4,182.75,229Z"/>
  </g>
  <g class="clothesDisplayLine">
    <path d="M129.4,253.19c0,6.81.44,13.49,2.25,18.56"/>
  </g>
  <g class="clothesOverlapLine">
    <path d="M173.68,167.52c-.64-4.26-1.94-9.49-1.86-13.38"/>
    <path d="M106,274.15c12.28,6.47,24.93.78,29.23,1.69,6.88,1.46,13.07,2.12,19.06,1.22"/>
  </g>
  <g class="clothesFoldLine">
    <path d="M205,202.21c.49,4.69,3.13,7.92,7.31,10.1"/>
    <path d="M194.58,176.9c.87,3.72-.25,7.7-4,12"/>
    <path d="M200.26,182.49c-1.67,4.26-5.8,10.11,1,5.48"/>
    <path d="M165.37,151.34c-.85-3.87-1-7.3.49-9.62.36,5.72,4,7.91,6,12.42-.24-8.28,8.52-16.8,3.41-21.06-2.5-2.08-4.26,7.06-3.65,12.78"/>
    <path d="M190.76,121.38a9,9,0,0,0-3.48-2"/>
    <path d="M176,181.69c.07,2.41.59,3.48,1.28,4.09"/>
    <path d="M160.62,125.78c-6,1.1-12.65,4.26-16.31,8.28"/>
    <path d="M96.12,126.51c3.06,2.72,5,5.54,5.62,8.49"/>
    <path d="M100.3,139.14c-3.63.13-6.15,1.25-5.41,5.26"/>
    <path d="M81.57,150c-.87,2-1.14,3.72-.18,5"/>
    <path d="M77.52,158.57c.59,2.5,2.44,5.57,1,7.37"/>
    <path d="M91.62,142.94c3.41,13.75-2.19,10.35-8.16,13.87"/>
    <path d="M90.52,158.15c-7.42,1.1-7.18,3.29-6.08,10.24"/>
    <path d="M71.36,167a5.14,5.14,0,0,0,3,4"/>
    <path d="M48.58,194.31c-2.76,4.56-2,8.57,2.88,11.92"/>
    <path d="M103.58,203.31a11.67,11.67,0,0,1,2.89-3.17"/>
    <path d="M119.24,205.13c9,2.45,18.48,1.92,28.36-.61"/>
    <path d="M163.67,203.67c-18.14,11.93-48.27,6.81-48.56,9.49-.25,2.19,11.68,3.9,19.59,3.53"/>
    <path d="M120,220.22c16.8,5.23,29.58-.21,30.06,1.83.36,1.5-3.32,3.27-9.12,5.23"/>
    <path d="M179.69,212.17c-1.91,4-8.76,4.77-2.27,9.27"/>
    <path d="M169.87,220.59c3.53,4.5,8.4,6.2,7.55,10.95"/>
    <path d="M182.75,229c-.1,3.48-4.48,4.58.14,6.28"/>
    <path d="M183.65,263.08c-4,3.51-9.84,6-16.77,7.89"/>
    <path d="M184.16,257.8c-.15,1.84-3.22,5-7.7,6.88"/>
    <path d="M182.42,271.49a41.43,41.43,0,0,1-17.64,4.17"/>
    <path d="M182.06,275.26a35.91,35.91,0,0,1-11.23,3.36"/>
    <path d="M139,278.12c6,2.59,17.82,2.91,24.54,1.06"/>
    <path d="M130.76,279.3a39.49,39.49,0,0,1-13.69,2.86"/>
    <path d="M161,361.72a28.62,28.62,0,0,0-6.66-1.66"/>
    <path d="M131.52,359.64a35.18,35.18,0,0,0,3.47,1.14"/>
    <path d="M158.76,364.88a58.7,58.7,0,0,0-21.17-4.42"/>
    <path d="M149.73,358.33a74.4,74.4,0,0,0-13.17-1.46"/>
    <path d="M141.55,350.35c-4.24-.72-7.5-.36-9.05-1.5"/>
    <path d="M125.92,335.86a10.53,10.53,0,0,0,3.3.39"/>
    <path d="M125,330.54c2,.75,4.16.47,7,1.16"/>
    <path d="M124.59,326.43c.87,1.1,2.35,1.56,4.17,1.67"/>
    <path d="M131.94,332.44c-2.86.67-6.94.88-6.9-.58"/>
    <path d="M162.25,357.07c-20.71-5.13-23.57-2.56-30-3.77"/>
  </g>
  <g class="skinGallic">
    <path d="M30.55,210c-3.83-1.23-5.89-2.71-10.47-3.68-5.56-1.18-8.32-.31-12.21-.31-3.56-.26-3.44,3.59-5.19,7.26-1.22,2.53-.84,4.58-2.29,6.33-1,2.06,3.66,3.44,5.11-.23.76,3.39,2.37,4.2,4.05,3.06-.15,1.83,1.29,4.12,2.82,4-.23,2.59,2.21,3.31,3.21,3.51,2,.38,3.26-2,5.65-2.22,5.07-.4,10.49,1.94,16.7-7.08C34.37,217.3,31,213.26,30.55,210Z"/>
    <path d="M234.55,242c-2.59-8.15-6.94-8.53-12.81-13.45-1.2,4.65-6.85,8.89-12.27,9.89,1.8,10.77,8.3,6.86,10.41,16.51a3.25,3.25,0,0,0-.75,2.11c-3.07.59-3.83,5.12-1.46,5.08,2.59-.19,4.41,2.31,6.24-1.05,3,.86,3.37-1.23,5.58-3.15,3.64-1.82,3.52-4.83,3.91-8.17C233.69,247.32,234.84,244.83,234.55,242Z"/>
  </g>
  <g class="skinOverlapLine">
    <path d="M5.5,219.36c-.53-2-1-3.47-.23-4.73s5.5-2.52,10.92-5"/>
    <path d="M9.55,222.42c.68-1.76,4.65-5.5,6.94-6.72"/>
    <path d="M18.25,220.51c-2.29,1.68-5,4.26-5.88,5.88"/>
    <path d="M230.37,248.38c.92,2.92.19,8.19-.88,9.56"/>
    <path d="M223.91,261.09c-2-1.29-4.25-.46-4.62-1.15-2.15-4,3.71-4.66,5.46-3.63a4.17,4.17,0,0,1,.76-2.46c-2.15-1.17-2.83-3.24-4.66-5-3.23-3.06-6.18-2.69-9.08-11"/>
  </g>
  <g class="skinFoldLine">
    <path d="M7.9,210.93a3,3,0,0,0,1.65,1.45"/>
    <path d="M9.6,217.91a4,4,0,0,0,3,.8"/>
  </g>
  <path class="hairLightBrown" d="M193,48.22c-2.29,2.23-6.07-.92-8.19-5.29,0,2.17-.58,4.7-1.56,5.81,1.45,9.79.26,20.35,4.46,34.59.91,3.1,9.48,13.15,1.14,28.55,3.34-9.41,3.36-17.45-.62-23.85,2.29,10.61,1.91,23.25-12.17,26.68-3.21.78-6.58,6.48-17.57,7.33-5.35.41-14.84,8-32-.1-3.42-1.6-13.06-2.91-16.35-7.89-2.15-3.26-20.76-7.8-11.74-34.76-5.15,7.91-9.87,15.53-6.13,26-7.38-19.68,6.65-15,11.5-51.85C99.63,64,92.84,71.74,91.3,66.65c1.73,3.71,8.15-3.07,11.54-18.12,2.19-9.68,3.33-21.85,8.48-30.5a20.58,20.58,0,0,1-8.48,6.28c8.21-4.29,7.68-9.07,18.71-17.65C130.17,0,156.78-4.61,170.38,9.42,188.51,28.1,182.85,49.76,193,48.22Z"/>
</svg>
