<svg viewBox="0 0 307.55 412.95">
  <path class="paperLight" d="M304.34,102.55q-2.94,154.92,2.52,309.84C254.28,407,65.13,407,.7,411.88,4.52,308.92,1.75,37.94.52,5.51,80.69-1.14,220.09-1,307,5Q305.28,53.76,304.34,102.55ZM269.7,266.68a9.24,9.24,0,1,0,9.24-9.24A9.24,9.24,0,0,0,269.7,266.68Zm.31,38.51a9.24,9.24,0,1,0,9.24-9.25A9.24,9.24,0,0,0,270,305.19Zm.61,38.51a9.25,9.25,0,1,0,9.25-9.25A9.25,9.25,0,0,0,270.62,343.7Zm.93,38.5a9.24,9.24,0,1,0,9.24-9.24A9.25,9.25,0,0,0,271.55,382.2Zm-1.24-269.56a9.25,9.25,0,1,0,9.25-9.24A9.24,9.24,0,0,0,270.31,112.64Zm-.46,38.51a9.25,9.25,0,1,0,9.24-9.24A9.24,9.24,0,0,0,269.85,151.15Zm-.46,38.51a9.24,9.24,0,1,0,9.24-9.24A9.24,9.24,0,0,0,269.39,189.66Zm0,38.51a9.24,9.24,0,1,0,9.24-9.24A9.24,9.24,0,0,0,269.39,228.17Zm2.93-192.55a9.24,9.24,0,1,0,9.24-9.24A9.25,9.25,0,0,0,272.32,35.62Zm-1.08,38.51a9.24,9.24,0,1,0,9.24-9.24A9.25,9.25,0,0,0,271.24,74.13Z"/>
  <g class="blueDisplayLine">
    <path d="M304.34,94.74C235,91.55,78.66,92.61,2.14,95"/>
    <path d="M303.72,132.68C237.49,131,78.89,130.56,2.45,133"/>
    <path d="M303.26,170.6c-65-1.57-224.29-2.09-300.65.3"/>
    <path d="M303.1,208.54c-64.22-2.23-224.06-2.09-300.34.29"/>
    <path d="M303.26,246.48c-61.61-2.12-224.18-2.08-300.5.28"/>
    <path d="M303.57,284.43c-66.54-2-224.3-2.09-300.82.26"/>
    <path d="M304.19,322.37c-57.61-2.08-225.08-2.09-301.6.25"/>
    <path d="M305.12,360.3c-52.07-1.8-245.54-2.53-303,.25"/>
  </g>
  <path class="redDisplayLine" d="M64.5,2c.54,80.16.84,327.12.08,407.28"/>
</svg>
