<svg viewBox="0 0 307.55 412.95">
  <path class="paperLight" d="M304.34,102.55c-1.96,103.28-1.1,206.61,2.52,309.84-52.58-5.38-241.74-5.38-306.17-.51C4.52,308.92,1.75,37.94,.52,5.51,80.69-1.14,220.09-1.02,307.03,4.98c-1.17,32.51-2.07,65.04-2.69,97.57Zm-34.64,164.13c0,5.1,4.14,9.24,9.24,9.24s9.24-4.14,9.24-9.24-4.14-9.24-9.24-9.24-9.24,4.14-9.24,9.24Zm.31,38.51c0,5.1,4.14,9.24,9.24,9.24s9.24-4.14,9.24-9.24-4.14-9.24-9.24-9.24-9.24,4.14-9.24,9.24Zm.62,38.51c0,5.1,4.14,9.24,9.24,9.24s9.24-4.14,9.24-9.24-4.14-9.24-9.24-9.24-9.24,4.14-9.24,9.24Zm.92,38.51c0,5.1,4.14,9.24,9.24,9.24s9.24-4.14,9.24-9.24-4.14-9.24-9.24-9.24-9.24,4.14-9.24,9.24Zm-1.23-269.56c0,5.1,4.14,9.24,9.24,9.24s9.24-4.14,9.24-9.24-4.14-9.24-9.24-9.24-9.24,4.14-9.24,9.24Zm-.46,38.51c0,5.1,4.14,9.24,9.24,9.24s9.24-4.14,9.24-9.24-4.14-9.24-9.24-9.24-9.24,4.14-9.24,9.24Zm-.46,38.51c0,5.1,4.14,9.24,9.24,9.24s9.24-4.14,9.24-9.24-4.14-9.24-9.24-9.24-9.24,4.14-9.24,9.24Zm0,38.51c0,5.1,4.14,9.24,9.24,9.24s9.24-4.14,9.24-9.24-4.14-9.24-9.24-9.24-9.24,4.14-9.24,9.24Zm2.93-192.54c0,5.1,4.14,9.24,9.24,9.24s9.24-4.14,9.24-9.24-4.14-9.24-9.24-9.24-9.24,4.14-9.24,9.24Zm-1.08,38.51c0,5.1,4.14,9.24,9.24,9.24s9.24-4.14,9.24-9.24-4.14-9.24-9.24-9.24-9.24,4.14-9.24,9.24Z"/>
  <g class="blueDisplayLine">
    <path d="M304.34,94.74c-69.31-3.18-225.68-2.13-302.2,.27"/>
    <path d="M303.72,132.68c-66.23-1.69-224.83-2.12-301.27,.28"/>
    <path d="M303.26,170.6c-64.99-1.57-224.29-2.1-300.65,.29"/>
    <path d="M303.1,208.54c-64.22-2.23-224.06-2.09-300.34,.29"/>
    <path d="M303.26,246.48c-61.61-2.12-224.18-2.08-300.5,.28"/>
    <path d="M303.57,284.43c-66.54-2.03-224.3-2.1-300.82,.26"/>
    <path d="M304.19,322.37c-57.61-2.07-225.08-2.09-301.6,.26"/>
    <path d="M305.12,360.3c-52.07-1.8-245.54-2.53-302.99,.25"/>
  </g>
  <path class="redDisplayLine" d="M64.5,1.96c.54,80.16,.84,327.11,.08,407.28"/>
  <path class="promoIcon" d="M144.7,215.31l19.8,70.73c-38.5-34.82-96.7-68.66-145.73-94.99,49.03-26.3,107.23-60.14,145.73-94.97l-19.8,70.73c13.76-1.04,27.6-.55,41.26,1.46,34.73,5.9,72.82,23.54,72.82,81.41,0,49.37-40.3,66.29-81.74,67.2,36-9.6,51.77-25.2,51.77-52.51s-15.77-42.22-50.18-48.17c-11.22-1.77-22.62-2.07-33.91-.89Z"/>
</svg>