<svg viewBox="0 0 223.03 71.21">
  <path class="boyfriendPillow" d="M144.61,30c14-7.71,38.32-9.28,54.28.77,6,3.74,11.93,6.64,17,7,6.57.52,9.54,8.46,3,10.9-3.47,1.44-5.85,2.2-8.23,4.3-6.59,5.32-20.25,10.37-27.88,11.11C170.32,65.15,155.91,68,144,69.55c-14.46,2.15-32.41,1.12-43.61-1.41-3.91-.85-7.08-1.77-10.21-1.12-3.78.75-6.67.56-8.15-1.77a9.74,9.74,0,0,0-5.43-4.49c-2.55-.94-5.44-3.18-6.42-5.7l48.16-27C126.44,25.33,138,26.85,144.61,30Z"/>
  <path class="lizPillow" d="M4.18,50.21C-.42,49.13-1,42.8,4.15,41c3.25-1.16,6.64-4.53,8.92-7.88C27.09,11,65.45,5.48,81.12,13,93.6,4.73,123.67-1.77,138.56,1.26c4.81,1.1,7.46,2,11,1.22,6.76-1.3,10.15,4,5.87,8a19.57,19.57,0,0,0-5.3,8.53c-2.25,6.21-8.36,12.19-13.09,16.12-2.33,1.91-2.57,3.34-4.8,6-2.79,3.26-6.71,3.44-9.78,2.76-2.42-.63-7.54.59-10.54,1.9-15.22,6.11-33.09,10.8-45.27,11.31-15.29.86-44.54-1.12-54-4.44A57.16,57.16,0,0,0,4.18,50.21Z"/>
  <g class="pillowFoldLine">
    <path d="M144.61,30a23.24,23.24,0,0,1,6,3.37"/>
    <path d="M81.12,13a47.14,47.14,0,0,0-11.18,9.57"/>
  </g>
  <g class="pillowDisplayLine">
    <path d="M80.61,55.29a34.29,34.29,0,0,1,5.15,5.87"/>
    <path d="M149.55,10a27.86,27.86,0,0,1-5.13,5.3c-2.48,2.06-4.74,5.67-6.13,8.56A39.58,39.58,0,0,1,130,34.63"/>
  </g>
</svg>
