<svg id="buddhaShrine" 
    xmlns="http://www.w3.org/2000/svg" viewBox="0 0 1200.53 2000.84">
    <path class="base" d="M1122,1717.69c8.94.71,15.68,6.31,22.37,11.17,9.82,7.14,19.19,15,26.62,24.84,7.91,10.46,12.74,22.36,16,35,2.57,9.86,4.84,19.86,4.79,30,0,9.68,2.45,19.26.78,29-.54,3.12,1.63,6.11,1.49,9.49-.42,10.16-1.29,20.41-.33,30.47.85,9,.86,18.06,1.43,27,.66,10.42,3.22,21.14.61,31.43a59.51,59.51,0,0,1-17.89,29.94c-5.56,5-11.59,9.65-18.9,12.13-3.86,1.3-5.94,5.27-10,6.55a78.18,78.18,0,0,1-23,3.86c-355,2.39-710,.41-1065,1.09-17.91,0-33.39-5.46-46.58-17.94C2.85,1970.86,1.2,1957.19,2,1942.69a148.71,148.71,0,0,0-.48-26.52c-.54-4.43.13-9-.13-13.48-.8-14-.28-28,.31-42,.25-5.75,0-11.66-.23-17.49a124.18,124.18,0,0,1,2.47-28c2.77-14.23,7.87-27.72,13.58-41a52.28,52.28,0,0,1,7.5-12.47c8.93-10.82,18.34-21.16,30.87-28.15,6-3.36,12.88-4.13,19-6.93,5.84-2.65,11.68-5.29,17.49-8a8.18,8.18,0,0,1,4-1c.83,0,1.67,0,2.5,0q508,0,1016,0c2.17,0,4.33-.32,6.5-.5a1,1,0,0,0,0-.48,2.89,2.89,0,0,0-.49-.5Z"/>
    <path class="hair" d="M670,54.19c19.06,0,35.06,7.29,48.48,20.52,7.35,7.26,10,16.82,12.58,26.46a93.61,93.61,0,0,1,3.34,30.54c10.57,4,19.89,8,27.77,15.8a127.48,127.48,0,0,1,26.32,37.18c3.56,7.6,5.06,15.69,6.11,24,1,7.85.87,15.67.9,23.52,0,11.75-1.49,23.36-2.84,35a130,130,0,0,1-6.28,28.44c-.69,2,.2,3.38.19,5.05-.1,23.5-.07,47-.09,70.5,0,.33-.31.66-.6,1.25H413.45V358.19c0-11.17-.34-22.35.09-33.5.5-12.91-2.8-25.09-5.3-37.56-2.67-13.33-6.57-26.37-8.59-39.9-1.87-12.5-.74-24.71-.14-37,.67-13.74,5.4-26.08,12.21-38.13A70.63,70.63,0,0,1,443,142.75a34.32,34.32,0,0,1,10.49-3.41c3.61-.47,4-2.11,4-5.15,0-7-1.08-14-.12-21,1.27-9.38,3.75-18.31,8.58-26.48,2.56-4.31,4.65-8.87,8.93-12.07,11-8.2,22.28-15.28,36.55-15.39,2.33,0,4.67-1.54,7.41.32.43-7.47,2.43-14.23,5-20.91a37.93,37.93,0,0,1,9-14.06A107.74,107.74,0,0,1,554.3,7.93C561.88,3.54,570,3.17,578,1.85c11.41-1.88,23-.14,34.46.43a76.66,76.66,0,0,1,39.48,13c11.14,7.48,17.23,18.22,19,31.46.32,2.33.67,4.66,1,7Z"/>
    <path class="robe" d="M804,679.69c3.72,2.1,8,1.91,12,2.94,12.3,3.16,24.82,5.52,36.94,9.21,11.23,3.42,22.85,5.61,33.6,10.74,7.74,3.7,16.25,5.85,23.87,9.76A112.35,112.35,0,0,1,933.7,728.4c12.62,11.18,21.15,25.29,31.16,38.36,1.8,2.34,2.22,5.7,3.62,8.41,6.65,12.75,10,26.46,12.53,40.51,1.33,7.55,3.44,15,4.89,22.52,1.1,5.78,1.6,11.67,2.58,17.48,1.67,10,3.52,19.91,4.54,30,1.21,12,3,24,4.21,36,1,10.17,1.92,20.45,4,30.56,1.15,5.46.49,11.3.69,17a143.71,143.71,0,0,0,2.84,26c1.13,5.16.76,10.64,1.16,16q1.44,19,3,38c.62,7.67.95,15.38,2.07,23,2.42,16.59,1.48,33.46,4.32,50,.81,4.73.65,9.66.56,14.49-.34,19.55,1.73,39,3,58.46.93,13.84,0,27.41-.82,41-.28,4.71-3.38,9.74-7.18,13.51-7.65,7.6-15.24,15.16-24.37,21.19-5,3.27-9.35,7.63-14,11.5-7.72,6.47-16.57,11.34-24.06,17.93a165.82,165.82,0,0,1-22.81,16.55c-7.63,4.7-14.79,10.2-22.76,14.4-5.22,2.75-9.35,7.35-15,9.44h2.5a13.3,13.3,0,0,0,2.52,2.46c11.21,6.14,21.9,13.18,32.85,19.76,18.64,11.2,36.43,23.83,54.64,35.76q17.4,11.4,35,22.5c7.28,4.62,13.75,10.6,21.14,14.74,10.09,5.64,19.15,12.49,28.35,19.28,10.83,8,21.89,15.71,32.44,24.07,13,10.27,26.25,20.25,38.06,31.93,4.35,4.31,8.43,8.93,13,12.93,6.71,5.81,13.36,11.69,18.85,18.64,3,3.83,5.92,7.84,8.78,11.79a118.49,118.49,0,0,1,18.74,39.16c2.23,8.29,2.56,17,3.84,25.44,2.18,14.38-.37,28.32-3.15,42-2.62,12.86-10,24.06-20.6,32.59-5.09,4.1-9.83,8.75-15.55,11.91-7.92,4.36-15,10.15-23.45,13.61-18.17,7.41-37.4,10.57-56.53,13.84s-38.57,3.82-58,4.16c-8.67.15-17.34.6-26,1-10.5.46-21,1.42-31.5,1.38-13.5-.06-27-.7-40.5-1.46-9-.51-18.05.22-27-.56-13.49-1.18-27-1.71-40.51-1.75-20,0-40-1.52-60-2.13-.69,0-1.43-.33-2-.39-8-.82-16-2-24-2-9.52.08-19.09-.4-27.92-3.39-12.88-4.37-25.88-4.3-39.08-4.29q-100,.09-200,0-139.5,0-279,0c-2.2,0-4.44-.36-6.51,1-9.14,5.89-19.64,8-30,9.87a233.44,233.44,0,0,1-50,3.13c-15.23-.62-30.41-1.32-45.52-3.84-17.31-2.89-34.29-6.11-49.52-15.58A72.88,72.88,0,0,1,19,1695.68c-8.77-13.62-10.27-28.94-9.36-44.48.63-10.86.19-21.8,3.19-32.56,2.64-9.48,5.1-19,10.25-27.4,4.27-7,8-14.18,13.18-20.73,13.66-17.19,27.4-34.06,44.64-47.94,9.9-8,19.49-16.29,30.05-23.44,11.49-7.76,22.54-16.2,34.1-23.85,6.74-4.45,13.62-8.85,20.23-13.4,11-7.54,21.91-15.13,33.18-22.24q16.19-10.2,32-21c25.72-17.42,51.45-34.83,77-52.54,10.69-7.42,16.47-18.94,22.42-30,3.09-5.75,4.83-12.24,7.11-18.43a50.79,50.79,0,0,0,2-6.5,214.73,214.73,0,0,1,7-23c3.15-9.11,6.56-18.19,8.9-27.52,2.54-10.1,5.11-20.2,8.75-29.92,5.4-14.39,9.25-29.23,12.63-44.1,2.51-11.06,6-22,6.76-33.44a5.59,5.59,0,0,1,1.48-3.52c5.71-6.3,11.35-12.65,17-19,8.66-9.67,17.3-19.37,26-29q24.45-27,49-54c8.71-9.63,17.31-19.36,26-29q24.45-27,49-54c8.71-9.63,17.31-19.36,26-29q24.45-27,49-54c8.71-9.63,17.31-19.36,26-29q24.45-27,49-54c8.71-9.63,17.31-19.36,26-29,16.14-17.85,32.23-35.76,48.52-53.47,10.47-11.39,20.93-22.77,31-34.53Z"/>
    <path class="skin" d="M360.45,949.19c-.33,5-.25,10.07-1.1,15-1.3,7.56-3.71,15-4.78,22.53-1.38,9.8-3.25,19.54-3.73,29.48a36.11,36.11,0,0,1-2.51,11.46c-2,5,0,10-1.22,15.09-2.23,9.19-3.31,18.66-5.21,28-2.3,11.2-4.9,22.35-7.46,33.5a313.75,313.75,0,0,0-6.63,40c-1.66,17-2.26,34-3.48,51-.8,11.18-1.52,22.39-3.14,33.54-1,6.74-1.31,13.66-2.24,20.47-1.5,11-2.58,22.09-4.89,33-1.71,8-2.05,16.39-3.72,24.45a178.5,178.5,0,0,0-3.55,26.54c-.45,8.65-1.21,17.32-1.26,26-.06,10.35.1,20.75-1.3,31-.94,6.87,0,13.35.63,20s-.65,13.28,0,20c1,11.11,2.4,22,6.48,32.55,5.25,13.64,14.56,25.32,18.6,39.45a76.59,76.59,0,0,1,2.84,24,167.22,167.22,0,0,0,.11,19c.25,3.12-.88,6.33-.84,9.5.09,7.16.43,14.37.23,21.49-.36,13.11,2.78,25.93,2.26,39a47.55,47.55,0,0,1-3.55,17c-2.76,6.49-9.77,9.31-16.52,8.68-12.65-1.18-17.7-10.37-23-19.68h-1c-3.42,4.25-2.81,9.72-3.77,14.54-3.12,15.71-5.19,31.63-7.75,47.45-1.05,6.52-2.31,13-3.48,19.51l-1,1.5c.95-2.27,3.37-.86,5.18-2.27,6.62-5.18,15-7.33,22.87-9.54,16.12-4.49,32.78-6.34,49.45-7.69,4.66-.38,9.5-.54,13.94-1.35,6.16-1.11,12.42-2.22,18.59-3.49,9.76-2,19.76-2.66,29.48-5.1,12-3,24-5.75,35-11.64,9.08-4.88,18.18-9.76,26.58-15.87,12.42-9,24.77-18.1,36.45-28.06,8.37-7.13,16.49-14.56,25.09-21.39,4.41-3.51,8.88-7.38,14.92-8.1h-2q-16.4-33.18-32.79-66.34c1-.49,1.61-1.1,2.29-1.12,13.31-.57,26.41-2.82,39.49-5.07,9.46-1.63,18.83-3.4,27.54-7.91,11.95-6.17,22.44-14.45,32.83-22.74a76.34,76.34,0,0,0,16.19-16.83,13.75,13.75,0,0,0-3-1c-5.68-.16-11.34,0-17-.92-4.64-.76-9.51-1.91-14-1.74-5.45.21-10.34-1.7-15.51-1.78-6.22-.08-11.94-2.38-18-3.2a112.37,112.37,0,0,1-19-4c-12.45-4-24.48-9.16-37-12.93-6.56-2-13.34-3.62-19.43-6.63-8.54-4.22-17.65-6.53-26.63-9.17-7.24-2.13-14.95-2.6-22.41-3.88a337.79,337.79,0,0,0-40.54-4.71c-7.76-.37-14.46-2.3-19-9,2-12.26,2.67-12.69,12.43-20.22a65.47,65.47,0,0,1,16.54-9,116.42,116.42,0,0,1,33.07-7.62,187.37,187.37,0,0,1,39,.88c3.52.44,7.16.16,10.49,1,10.32,2.56,20.88,4,31.07,7.26,12,3.89,24.52,5.89,36.94,8.22,13.61,2.56,26.59,1.78,39-4.61,7.79-4,11-12.74,9-18-2.11-5.51-5.49-9.89-11-12.53-10-4.8-20.66-8-31-11.94-7.1-2.69-14.23-5.35-21.52-7.43-5.52-1.58-9.32-4.08-10.55-10.09-1.1-5.4.24-9.55,4-13.58,8.09-8.63,18.78-10.78,29.59-11.75a105.19,105.19,0,0,1,31,2.25,135.74,135.74,0,0,1,47.89,19.72c9.43,6.28,18.81,12.85,26.65,21.3,4.94,5.33,10.89,6.13,18,3,10.11-4.44,19.22-10.67,28.43-16.61,9.73-6.28,19.6-9.88,31.57-9.61,29.49.68,59,.23,88.5.23h5.38c.55,13.33-.12,26.16.43,39,.26,6-1.66,12.14-7.31,16-9.5,6.49-19,13.07-28.51,19.48-18,12-36.08,23.89-53.94,36.09-5.29,3.62-11.16,6.07-16.55,9.43l-1.5.5c5.4,3.5,10.62,7.22,16.46,10.07,9.15,4.46,18.76,7.32,28.52,10a398.89,398.89,0,0,0,46.06,9.67,256.84,256.84,0,0,0,50.48,3.1c7.66-.36,15.67.37,23.48,1.16,9.5,1,19,2,28.5,3a81.67,81.67,0,0,1,16.48,3.57c14.09,4.47,27.89,10,39.88,18.63,9.73,7,20,13.79,27.06,23.86,5.54,7.92,7.13,16.74,3.06,25.94-3.87,8.73-10.35,11.26-19.51,8.61-4.53-1.3-8.63-3.59-13-5-8-2.5-16.27-4.2-24.45-6.13-7.57-1.77-15.39-2.15-23.05-3.15-5.08-.66-10.53-1.52-16-.51-4.87.9-9.92-.34-15,0-15,1-29.47,4.4-44,8-22.31,5.48-43.81,13.25-65.44,20.72-11.88,4.11-23.5,8.87-35.09,13.78-14,5.92-27.23,13.33-41.42,18.7-2.82,1.07-3.13,3.37-3,6,1.15,28,.22,56,.52,84,0,2,0,4,0,6,0,11.69.07,12-11,14.41-12.26,2.65-24.34,6.16-36.36,9.5-10.05,2.79-19.91,6.76-30.15,8.94-11.83,2.52-23.47,5.86-35.46,7.71-16.71,2.58-33.27,6.2-50,8.28-18.27,2.26-36.5,5.78-55,5.47-9-.15-18.09-.33-27,.83-13.88,1.81-27.69.09-41.52.19-16.66.14-33.31-1.34-50-1.4-18.05-.07-36.15-.35-54-3.5-13-2.31-26.55-2.17-39-7.44a254.45,254.45,0,0,1-23.5-12l-2-1.5c2.65,1.41,1.29,3.55.42,5a26.52,26.52,0,0,1-12.35,10.7c-9.84,4.31-19.87,6.93-30.57,6.28-7.76-.48-15.68-1.72-22.39-5.62s-10-10.88-11.53-18.33c-1.46-7.06-3.93-13.82-5.33-20.94-2-10.16-3.85-20.36-5.78-30.54-2.45-13-3.76-26.08-6.19-39.06-1.58-8.49-3.13-17.15-3.39-25.94-.21-7-2.65-13.88-1.87-21,1-8.83-.85-17.68.45-26.51,1.52-10.36,2.54-20.75,4.82-31s4.15-20.71,6.77-30.94c2-7.91,4.67-15.66,6.93-23.52,3.33-11.6,6.71-23.21,6-35.49-.78-13.34-1.65-26.67-2.49-40-.31-4.84-.82-9.67-1-14.5-.42-13.17-.08-26.39-1.2-39.49-1.21-14.19.32-28.44-1.13-42.48-1.05-10.2-.5-20.5-2-30.49-1.84-12.31-.09-24.38-.28-36.54-.18-11.22.57-22.34,1.39-33.52.61-8.31.58-16.7,1.73-25,1.49-10.69,3.95-21.28,4.8-32,1.15-14.58,3.39-29,5.12-43.49.38-3.13-.42-6.23-.18-9.51,1.45-19.69,3-39.36,5.12-59,1.23-11.44.91-23.05,2.24-34.48,1.42-12.15,1.55-24.39,3.24-36.53,1.72-12.42,2.28-25,3.67-37.48a371.4,371.4,0,0,1,6.39-38c2.28-10.44,4-21,6.1-31.47,1-4.75,3.32-9.08,4.06-14,2.34-15.45,7.88-30,13.45-44.49,2.17-5.63,4.84-11.08,7.47-16.51a195.9,195.9,0,0,1,28.5-43.49c7.1-8.15,15.57-14.8,23.95-21.56,4.91-4,9.84-7.87,15-11.49,8.12-5.71,17.09-9.75,26-14.08,11.32-5.51,23.37-8.92,35.06-13.36a16,16,0,0,1,3.49-.53c3.06.06,5.29-2.1,8-3.07,10.72-3.84,21.24-8.28,32.07-11.79a153.7,153.7,0,0,0,16-6.56c12.61-5.71,25.59-10.38,36.57-19.45,12.09-10,19-22.29,21.48-37.62,2.34-14.32,2.22-28.63,1.5-43-.09-1.78-1-2.16-2.05-3-4.92-4.07-9.94-8-14.48-12.51-6.58-6.47-11.09-14.59-16.55-22-1.11-1.49-2.19-3-1-5v4c-3.07.55-3.62,3.54-4.36,5.55-4.86,13.16-13,23.17-26.71,27.2-4.21,1.23-9.31,1.65-14-1.16-8.65-5.21-12.63-12.91-13.42-22.59-.89-10.73.55-21.34,1.29-32,.87-12.44,2.88-24.71,1.16-37.55-1.64-12.29-3.2-24.73-5.39-36.86-2.92-16.19-7.34-32.21-11.95-48.11-3.44-11.87-8.11-23.63-6.7-36.47.2-1.9,1.06-3.73,1-5.49-.55-11.78,4.4-20.24,14.57-26,9.23-5.26,22.67-1,27.08,8.51,3.17,6.82,6.94,13.36,10.44,20l.5,4c-.17-.67-.7-1.7-.45-1.95,3.63-3.65,4.69-9,8.42-12.59,4.18-4,8.36-8.07,11.09-13.43,4.61-9,4.11-19,5.34-28.55,1.63-12.61,2.78-25.23,6.45-37.53,1.79-6,4.22-10,10.6-12.09,16.73-5.43,33.35-11.16,51.05-12.29,7-.45,14.13-.94,21,.1a112.69,112.69,0,0,1,43,15.8c1.34.84,2.79,1.7,4.5.54,8.3-5.65,18-7.36,27.51-9.4,10.22-2.2,20.49-4.12,30.95-5.36,14.16-1.68,27.74.84,41.54,2.66,9.52,1.25,17.72,5.91,26.49,9.09,4,1.45,7.81,3.69,9.34,7.56a102.82,102.82,0,0,1,5,16.48c2.59,12.3,2.65,24.92,2.08,37.45-.34,7.19,1,13.84,5.19,19.44,6.19,8.18,11.05,17.2,16.91,25.57l1,4.5c-1.62-4.74,1.34-9,1.48-13.5.37-12.19,6-21.91,14.58-29.94,5.58-5.19,12.79-5.28,19.39-2.92,13,4.65,16,17.45,15.48,29.35-.55,12.14-4.23,23.79-7.17,35.45-2.51,10-5.47,19.88-7.26,30.06-1.35,7.66-2.74,15.32-4,23-1.1,6.82-1.26,13.89-3.19,20.45-3.24,11-3.43,22.37-4.61,33.57-.95,9.06,1.16,18.11,3.67,27,3.41,12.06,5.74,24.24,2.73,37-2.75,11.61-18.1,19.5-28.61,17.91-4.41-.67-8.13-3.26-12.09-5.28-11.15-5.68-19.67-19.47-18.92-32.15l-1,4.5a45.83,45.83,0,0,0-9.06,12c-1.75,3.43-5,5.78-8,7.92-6.28,4.46-7.43,10.8-7.37,17.61.12,16.83-1.09,33.64.22,50.51.63,8.18,1.7,15.92,5.8,22.94,3.09,5.29,8.32,8.79,13,12.41a209.76,209.76,0,0,0,29.35,18.73c1.5.79,3.06,1.22,4.55,1.9s2.51,1.53,2.55,3.51c.23,14.33-.67,28.67.43,43,.18,2.28-2,3.53-3.14,4.87-7.53,9.08-15.58,17.73-23.32,26.64-12.56,14.45-25,29-37.54,43.47-7.74,8.91-15.72,17.62-23.46,26.53-10.24,11.77-20.3,23.7-30.54,35.47-7.74,8.91-15.72,17.62-23.46,26.53-12.56,14.45-25,29-37.54,43.47-7.74,8.91-15.72,17.62-23.46,26.53-10.24,11.77-20.3,23.7-30.54,35.47-7.74,8.91-15.72,17.62-23.46,26.53-10.24,11.77-20.3,23.7-30.54,35.47-7.74,8.91-15.72,17.62-23.46,26.53-12.56,14.45-25,29-37.54,43.47-5.5,6.32-11.22,12.44-17.16,19-6.22-9.34-11.56-19-18.52-27.33s-7.35-18.36-9.44-28.13a245.89,245.89,0,0,1-3.84-25.54c-1.25-11.82-2-23.7-3.61-35.48-1.65-12.47-1.85-25-3-37.51-.18-2-1.26-4-1.93-6Z"/>
    <path class="flange" d="M377.45,1162.69c4.27.59,6.78-3,9.89-4.71,15.71-8.57,31.18-17.64,45.58-28.33,10.31-7.65,20.35-15.65,30.53-23.46,15.66-12,31.81-23.44,46.87-36.16,16.4-13.83,32.62-27.89,47.83-43.14,9.21-9.23,19.42-17.61,28.66-26.84,15.17-15.16,29.62-31.06,44.1-46.9,13.53-14.82,27.39-29.42,39.85-45.11,13.59-17.12,28.54-33.15,40.38-51.73,8.16-12.81,18.62-24.13,27.2-36.7,12.66-18.56,25-37.34,36.15-56.9,4.61-8.13,10.42-15.66,14.28-24.11,6.14-13.43,14.66-25.72,19.18-39.91,2.07-6.51,5.83-12.34,7.62-19.49-20.74-5-41-11.47-60.52-21.31-1.5,7.52-5.37,13.94-8.32,20.7-5.23,12-11.84,23.4-17.76,35.1-7.67,15.16-16.76,29.5-25.64,43.92a536.6,536.6,0,0,1-36.79,52.65c-8.47,10.62-15.64,22.3-24.23,32.81-7.43,9.1-14.31,18.63-21.87,27.61-15.89,18.87-32.46,37.15-50,54.46-15.71,15.46-31,31.46-48,45.49-18.16,15-34.31,32.14-52.55,46.93-12.15,9.85-23.81,20.27-36,30-13.62,10.8-27.29,21.59-41.79,31.28-5.5,3.67-11,7.3-16.48,11-1.36.93-2.82,1.09-4.44,2,3.52,12.18,4.73,24.8,5.71,37.39.66,8.44,1.39,17,.22,25.5-.34,2.43.25,5,.42,7.49Z"/>
    <path class="flange" d="M501.45,1637.19c6.95-3.63,12.7-9,18.95-13.58,13.67-10.09,27-20.72,40.63-30.82,3-2.21,4-4.25,2.93-7.61-3.47-10.87-6.81-21.65-13.81-31.14-4.12-5.59-7-12.12-11.11-17.92a87.78,87.78,0,0,0-12.77-14.24c-4.19-3.84-10.44-2.32-15.82-2.13-13.33.46-26.7.75-40,1.37-12.87.61-25.76-2.58-38.52.57-1.12,1.69-.23,2.93,1,4a95.59,95.59,0,0,0,8.52,7c8.73,5.82,14.73,14,20.47,22.54,7,10.35,14.18,20.56,20.94,31a96,96,0,0,1,11,25c2.06,6.93,3.7,14,5.56,21,.44,1.69,1,3.34,1.49,5Z"/>
    <path class="flange" d="M846.45,1290.19a177,177,0,0,1,51,42.49c2.39,3,2,5.46-1.51,8.51a246.17,246.17,0,0,1-32,23.53c-5.79,3.64-11.35,7.63-17,11.47-2.48,1.68-4.36,1.4-6.56-1a117.69,117.69,0,0,0-29.55-22.36,287.79,287.79,0,0,0-40.39-18.18,349.51,349.51,0,0,0-36-10.46,3.32,3.32,0,0,1-2.06-1.16c.39-4.06,4.22-5.44,6.63-7.83,14.32-14.24,27.74-29.19,39-46,2.27-3.38,6.57-2,9.38-1.34,12.89,3,25.79,6.33,38,11.49,7,3,14.58,5.18,20.58,10.31Z"/>
    <path class="flange" d="M686,1714.19a2.88,2.88,0,0,1-.51.48.51.51,0,0,1-.48,0c-1.35-1.07-1.08-2.6-1-4,.27-4.17,1-8.34.91-12.5-.17-11.1,2.21-21.92,4.87-32.43,2.83-11.17,8.25-21.66,12.13-32.6,3.28-9.24,9.62-16.85,13.16-25.94a8.55,8.55,0,0,1,5.9-5c5.45-1.48,10.43-4.35,15.38-6.76,12.84-6.25,25.68-12.37,39.12-17.26,6.71-2.44,13.16-5.72,20.51-6l-1,1c.47,1.15-.61,1.93-1.07,2.43-8.27,9.14-13.32,20.38-19.72,30.7-3.79,6.12-6.26,13.18-8.5,20.28-2,6.45-5.32,12.62-7.89,19-4.79,11.85-7,24.24-10,36.54-3.18,13.22-2.88,26.9-6.25,40.06-.82,3.17.32,6.68-.63,10.17a320.67,320.67,0,0,0-55.73-6c-.27-4.13-.51-7.64-.74-11.15Z"/>
    <path class="robeLine fineLine" d="M855.45,862.19c1.39,10.46,2.63,20.92,3.09,31.49a249.26,249.26,0,0,1,0,28c-.22,3.14.39,6.33.42,9.5.05,7.53-1,15-1.15,22.5-.22,8.33-.56,16.66-.78,25-.2,7.75-2.17,15.28-2.94,23-.22,2.22.21,4.37,0,6.55-1.21,11.64-2.59,23.31-2.94,35-.27,9-1.39,18-1.33,27,.07,10.55,1,21,1.75,31.49.62,9,2,18,2.9,27,1.07,10.49,2,21,3,31.49.52,5,1.36,10,2,15,.52,4.33-.48,7.86-4.45,10.55-12.31,8.33-22.81,18.82-32.9,29.57-5.6,6-10,13-14.58,19.92-5.43,8.21-10.63,16.59-16.61,24.42a26.4,26.4,0,0,0-4.45,7.54"/>
    <path class="skinLine fineLine" d="M763.45,345.19c.86,12.33-.12,24.66,0,37,.07,7.39-1.5,14.75-1.63,22-.16,9.18-2.42,17.94-3.08,27-.7,9.74-3.11,19.35-4.78,29a161.52,161.52,0,0,1-18,52.48,3.9,3.9,0,0,1-3,2"/>
    <path class="skinLine fineLine" d="M491.45,552.19c3.06,6.57,9.7,9.17,15.11,12.84,10.46,7.08,21.73,13.11,33.93,16.51,15.65,4.37,31.57,7.55,48,8.24,15,.64,29.75-.87,44.47-2.81,7-.92,13.78-3.89,20.51-6.33a176.4,176.4,0,0,0,46.5-25.48c3.68-2.77,8.16-4.64,10.52-9"/>
    <path class="faceLine fineLine" d="M658,508.69a122.93,122.93,0,0,1-31.5,7.05c-17.33,1.38-34.68,2.42-52,.33-8.08-1-16-3.22-24-4.88-2.5-.52-5-1-7.5-1.5"/>
    <path class="skinLine fineLine" d="M361.45,849.19c-2,33.31-.43,66.67-1,100"/>
    <path class="robeLine fineLine" d="M431,1524.69q-11.51-1.26-23-2.5c-7.82-.84-15.68-1.27-23.51-1.85-16.3-1.2-32.61-2.62-49-2.14a15.55,15.55,0,0,0-2.5.49"/>
    <path class="skinLine fineLine" d="M315.45,1176.19a39.42,39.42,0,0,0-21-14.5,98.87,98.87,0,0,0-42.48-2.4c-8,1.24-16.06,2.82-22.52,8.4"/>
    <path class="skinLine fineLine" d="M743,1443.69a11.61,11.61,0,0,0-6.46,2.06c-13.56,8.24-28.25,13.66-43.56,17.35a190.1,190.1,0,0,1-25.45,3.85,217.19,217.19,0,0,1-33.53.74"/>
    <path class="faceLine fineLine" d="M723,329.19c-2.75-3.68-7.25-3.5-11-5.12-10-4.36-20.58-5.32-31-5.16a103.56,103.56,0,0,0-42,9.3c-.26.12-.34.64-.51,1"/>
    <path class="skinLine fineLine" d="M435.45,338.19c-.67,5.16-1.57,10.31-1.95,15.5-.54,7.48-1.6,15.09-.83,22.47.95,9,.84,18,1.09,27,.34,12.1,2.05,24,3.19,36,1.73,18.34,6.43,36,12.09,53.47,3.16,9.74,8.32,18.65,13.41,27.53"/>
    <path class="faceLine fineLine" d="M708,378.69c-16.38,12.52-35.11,13.92-54.48,10.84-7-1.11-14.54-1.67-20-7.34"/>
    <path class="skinLine fineLine" d="M715,1605.69c-8.67,2.66-17.18,6.16-26,7.76a120.44,120.44,0,0,1-26,2.15c-1.36-.06-2.66,0-4,0-3.47,0-7.28.25-10-2.45-3.25-3.3-8-2.66-11.54-5-7.37-4.78-14.91-9.34-22-14.55-12.63-9.33-26.91-11.78-42-10.83-3.2.2-6.93-.66-9.51,2.4"/>
    <path class="faceLine fineLine" d="M567,383.69c-5.64,4.45-12.57,6.31-19.08,8.8-3.74,1.43-8.29.64-12.41,1.24-13.85,2-26.29-2.42-38.51-8"/>
    <path class="faceLine fineLine" d="M638.45,472.19c-6.07,7.88-15.11,9.41-24,10.94-11.13,1.92-22.37,1.51-33.47-.06-7-1-14-2.65-20-6.88"/>
    <path class="skinLine fineLine" d="M287.45,1562.19c-.78,7.38.4,14.69.65,22,.35,10,2.34,19.65,3.34,29.49.08.82,0,1.66,0,2.5"/>
    <path class="faceLine fineLine" d="M568.45,334.19c-5-4.94-11.69-5.95-18-7.42-17.57-4.08-35.13-2.34-52.44,1.58-6.39,1.44-12.49,4.26-19,5.34"/>
    <path class="faceLine fineLine" d="M579,537.19c2.43,2.7,5.9,2.77,9,2.89,7.67.3,15.38.46,23-.93a24.13,24.13,0,0,0,4-1.46"/>
</svg>
