<svg viewBox="0 0 286.34 147.9">
  <path class="cactusFurther" d="M130,147.4H32.76A72.19,72.19,0,0,1,8.94,132c.58-9.24,3-18.77,6.53-28.49C9.93,97,3.72,89.35.5,80.58c4.68-6.29,12.73-11.67,20-16.45-1.64-9-2.08-17.47-.74-25.32,7.51-3.87,16.17-5.53,25.51-5.92C49.72,23.78,56.69,14.78,64.46,9.6,75.29,12.51,84.6,17.37,95,24.76c4.76-4.07,11.43-8.45,19.32-10,5.53,2.27,10.62,8.32,15.44,13.69Z"/>
  <path class="cactusCloser" d="M241.81,147.4c7.32-.89,15.88-2.73,21.54-6.19,2.61-7.91,1.21-15.5-.74-22.73,8.84-4.45,16.47-11,23.23-19A64.7,64.7,0,0,0,267.32,77c5.3-7.17,8.35-15.6,9.94-24.84-6.91-5-14.41-8.69-23.34-9.82-.32-10.21-3-19.31-8.33-27.18a65.72,65.72,0,0,0-27.53,4.45C211.3,11.94,203.58,4.13,194.79.5c-9,3.28-16.81,9.77-23.31,15.57A77.2,77.2,0,0,0,145.72,5.34a55.55,55.55,0,0,0-14.54,21.45c-10.79,1.47-20.66,4-29,8.42-.79,9.48.77,19.13,4.2,28.92a48,48,0,0,0-18,18C92.1,92,97.11,100.5,104.2,106.83c-3.87,9.45-6.51,18.78-7,27.91a102.91,102.91,0,0,0,29.49,12.66Z"/>
</svg>
