<svg viewBox="0 0 205.54 237.42">
  <g class="treeTrunkFurther">
    <path d="M114.64,167.91a12.46,12.46,0,0,1,2.91,3.63,11.14,11.14,0,0,1,1.12,2.14c.76,2.1,1.62,4.16,2.23,6.32a44.17,44.17,0,0,1,1.81,7c.21,2,1.43,3.16,2.43,4.51,4.09,5.55,8.29,11,12.45,16.51a6.37,6.37,0,0,1,.35.55l17.12-6.94-3.84-4.32q-3-3.35-5.93-6.7c-1-1.16-2.11-2.3-3.15-3.47-2-2.22-3.95-4.47-5.94-6.69-1-1.17-2.11-2.31-3.15-3.47-2-2.23-3.94-4.49-5.94-6.69-1-1.05-1.94-2.08-2.83-3.18a.81.81,0,0,0-.93-.28,11.37,11.37,0,0,1-2.4.25c-1.47.24-3,.24-4.46.35a5,5,0,0,1-1.39.15Z"/>
    <path d="M96.39,138.72c2,2,4,4,5.93,6.16.09.11.2.21.3.31,2.32,2.36,4.69,4.67,6.92,7.1s4.51,4.43,6.39,6.75c-.56,9.86-1.37,19.62-.56,29.47H96.23v-.81q0-24,0-48.06c0-.41.22-.82,0-1.23Z"/>
  </g>
  <path class="flameOuter" d="M59.89,169.91c-34.82-30.65-6.48-42.36-21.57-64.54,21.87,3.54,10.93,22.95,23.94,28.43,4.55,1.91,7.71-3.16,2.55-9.56-27.27-33.81,2.93-48.14-.62-68,6.86,2,9.4,16.18,7.24,22.29C108.56,39,62.19,38.06,91.3,1.94c-5.85,27.8,21.61,20.77,19,50.6-.12,1.39,3.23,5.39,7.32-.69,8-11.91-3.32-20.26,8.29-32.79-1.44,21,11.5,13.76,15,36.4,2.19,14-18.18,33.58-.78,44.83,1.08-10.63,4.78-19.72,9.46-21.77-5.3,21.92,17.34,21.15,7.42,49.12-3.75,10.57-17.39,20.23-9.63,20.37,7.56.15,7.39-12.29,20.72-10.11-15.49,8.14-5.94,22.62-20.88,31.4Z"/>
  <path class="flameMiddle" d="M94.54,190.09C68.51,173.3,54,155.9,53.72,140.8c8.68,6.7,16.47,9.63,25.88,8,6.47-31.27-25.57-34-14.48-61.46,2.41,10.11,6.62,17.87,15.09,19.72C73,74.56,100.24,76.41,95.77,39.6c7,9.3,10.39,22.92,6,40.2,13.86-1.69,21.72-15.25,25.72-29.27,14.17,16-22.8,34.05,8.47,71,6.19-2.68,9.09-9.79,10.94-18.33,18,27.11-40.36,45.13-4.91,86.94Z"/>
  <path class="flameInner" d="M89.92,136c-4-15.86-3.7-34.5,2.92-48.82.28,11.38,2.62,20,10.48,26.49.15-5.85,2-9.24,5.39-13.25-3.85,13.71,17.71,13.4,7.55,40.05Z"/>
  <path class="treeTrunkFurther" d="M131.58,183.78a1.84,1.84,0,0,0-.07.84v31.62c-18.33,4.35-50.06,5.12-67.78-1.08V183.78c.29,0,9.76,1.07,10,1.07,11.56,0,23.34,0,34.89,0,2.62,0,5.24-.35,7.86-.51.92,0,1.85-.06,2.77-.14,1.72-.14,3.47,0,5.15-.3s3.19-.28,4.79-.4a5.21,5.21,0,0,1,2.38.22Z"/>
  <path class="treeTrunkCloser" d="M109.71,168.14a18.13,18.13,0,0,0-2.09-2.53c-.93-1.1-2-2.11-2.91-3.17a1.08,1.08,0,0,1-.16-.77,44.77,44.77,0,0,1,.3-5.31c.16-1.28.12-2.58.3-3.86a9.56,9.56,0,0,0,.2-1.23.55.55,0,0,1,.67-.47,17.22,17.22,0,0,0,1.77,0V150q0-8.53,0-17.09c0-2-.19-3.92,0-5.85.15-1.63,0-3.24,0-4.86a2.63,2.63,0,0,0-1.61-2.55,22.56,22.56,0,0,0-6.24-2.07c-2.17-.39-4.34-.75-6.55-.93a30.15,30.15,0,0,0-5.62.24A10.8,10.8,0,0,0,82.45,119a2.53,2.53,0,0,0-1,1.92c-.12,1.62-.15,3.24-.33,4.85-.24,2.1-.36,4.22-.55,6.32-.15,1.63-.34,3.27-.41,4.92a31.86,31.86,0,0,1-.36,3.63c-.16,1-.15,2-.28,3.08-.25,1.9-.45,3.81-.79,5.69a24.59,24.59,0,0,0-.52,4c0,1.11-.18,2.2-.22,3.31a29.3,29.3,0,0,1,0,3.63,7.5,7.5,0,0,0,.27,2.07c.23,1.72.54,3.44.67,5.16a32.38,32.38,0,0,1,0,4.62q-.21,2.86-.69,5.7a63.51,63.51,0,0,1-1.38,6.49,50.09,50.09,0,0,0-1.16,4.91c-.22,1.3-.61,2.57-.91,3.85s-.6,2.33-1,3.45c-.6,1.83-.9,3.73-1.39,5.57a57.25,57.25,0,0,0-1,5.69.76.76,0,0,0,.39.69c2.59,2.14,5.19,4.26,7.77,6.4,2,1.68,4,3.39,6,5.08.21.18.45.32.72.51l15.16-11.46a34.2,34.2,0,0,1-.51-7.76,12.58,12.58,0,0,1,.41-3.55,1.18,1.18,0,0,0,0-.46c-.12-1.73.27-3.44.3-5.16,0-1.16.19-2.31.23-3.47,0-.83.22-1.63.26-2.46.11-2.18.32-4.37.52-6.55.18-1.9.3-3.82.65-5.69a5.28,5.28,0,0,1,2.68-3.44,21.79,21.79,0,0,0,3.37-2.42Z"/>
  <g class="treeTrunk">
    <path d="M109.56,159.9c-1.06-1.12-2.06-2.3-3.15-3.4-1.8-1.82-3.7-3.54-5.33-5.53a28.08,28.08,0,0,1-3.59-5.87,4.75,4.75,0,0,1,.14-4.22,33.32,33.32,0,0,1,3.6-6.33c.59-.75,1-1.63,1.62-2.38a15.79,15.79,0,0,1,7.24-5.25,24.47,24.47,0,0,1,5.48-1.12,3.69,3.69,0,0,1,2.53,1.14,15.59,15.59,0,0,1,2.37,2.94,65.6,65.6,0,0,1,4.11,5.68,4.78,4.78,0,0,0,1.13,1.34c.37.29.42.92.7,1.37a48.67,48.67,0,0,0,2.87,4.53,14.89,14.89,0,0,0,2.77,2.61c1.51,1.17,3.19,2.14,4.59,3.43,1.66,1.54,3.28,3.14,4.84,4.79a23.35,23.35,0,0,1,3.6,5.53c.73,1.39,1.64,2.65,2.49,4a12.49,12.49,0,0,0,2.05,2.32c1.33,1.18,2.35,2.62,3.6,3.87a1.09,1.09,0,0,1,.16.38l-.08-.54a10.33,10.33,0,0,0,1.15-1.77,2.94,2.94,0,0,1,2.63-1.74,7.48,7.48,0,0,1,3.83.69,8,8,0,0,1,3.74,8.76,21.41,21.41,0,0,0-.65,4.23,2.63,2.63,0,0,1-.22.69,2.46,2.46,0,0,0,.36,2.41c1.58,2.16,3.85,3.55,5.81,5.28a21.83,21.83,0,0,1,2.7,2.31c.78.94,1.89,1.55,2.75,2.41,1.95,2,4.08,3.78,5.9,5.77v11.59H147.06c.05-1.89-.1-3.74.09-5.58a2,2,0,0,0-.61-1.79,32.09,32.09,0,0,1-3.45-3.55,60.5,60.5,0,0,1-3.73-5.6,22.86,22.86,0,0,0-3.72-5.28,48.56,48.56,0,0,0-5-4.07,10.77,10.77,0,0,1-2.63-3,14.07,14.07,0,0,0-3-3.47,12.3,12.3,0,0,1-2.22-2.7,9,9,0,0,0-6-3.86,28.65,28.65,0,0,0-6.47-.38c-1.33.08-2.67,0-4,0-.64,0-1.28.07-1.92.07s-.94.22-.93-.84c0-2.9,0-5.8,0-8.7,0-1.21.28-1.49,1.54-1.38,1,.08,1.95.29,2.93.36s2.1.07,3.16.09"/>
    <path d="M75.73,189.32a50.09,50.09,0,0,1,1.16-4.91,63.51,63.51,0,0,0,1.38-6.49q.48-2.83.69-5.7a32.38,32.38,0,0,0,0-4.62c-.13-1.72-.44-3.44-.67-5.16a7.5,7.5,0,0,1-.27-2.07,29.3,29.3,0,0,0,0-3.63c0-1.11.21-2.2.22-3.31a24.59,24.59,0,0,1,.52-4c.34-1.88.54-3.79.79-5.69.13-1,.12-2.08.28-3.08,0-.25.08-.5.11-.75a7.38,7.38,0,0,1-.68.69,13.52,13.52,0,0,1-1.94,1.68.32.32,0,0,0-.1.1l0-.11a3.93,3.93,0,0,1-.46-1.61c-.36-1.6-.67-3.2-1.11-4.77-.17-.64-.24-1.45-1-1.77a4.47,4.47,0,0,0-2.6-.35,13.34,13.34,0,0,0-5.79,2.57,1.78,1.78,0,0,0-.61,2.54c.2.43.39.86.55,1.31a48.12,48.12,0,0,1,2.28,8.32A9.19,9.19,0,0,1,67.24,155c-1.43,2.19-3.06,4.26-4.68,6.32-.76,1-1.8,1.7-2.59,2.64a64.24,64.24,0,0,1-4.72,4.76,18.62,18.62,0,0,0-2.73,3.11c-1.08,1.7-2.45,3.18-3.56,4.87-1,1.46-2,2.88-3.06,4.3A28,28,0,0,1,39,188.32c-1.46,1-2.63,2.31-4,3.39A9.67,9.67,0,0,0,33.55,193a47,47,0,0,1-4.29,4.41,41.38,41.38,0,0,0-3.11,3.34v8.41H62.06c0-.2.3-.37.46-.6,1.58-2.35,3.11-4.74,4.71-7.08,1.34-2,2.62-4,4-6a34.81,34.81,0,0,1,4.37-5.35C75.62,189.91,75.68,189.61,75.73,189.32Z"/>
  </g>
  <g class="oakMediumDark">
    <path d="M103.16,170.37c.62.08.94-.33,1.23-.77a8,8,0,0,0,1.17-6.7,6.37,6.37,0,0,0-.63-1.92c-.82-1.3-2.05-1.58-3-.15a10.61,10.61,0,0,0-2,5.69c-.06,2,1.09,3.07,2.57,4,.11.07.35,0,.53-.07Z"/>
    <path d="M122.11,187.16a16.34,16.34,0,0,0-3.69,3.09,18.21,18.21,0,0,0-3.41,4.92c-.4,1-.6,2-.94,3s-.39,2.23-.7,3.33a7.54,7.54,0,0,0-.19,1.92c0,3.87,0,7.75,0,11.63a1.16,1.16,0,0,0,.06.26h34.12c.06-3,0-5.89,0-8.81a19.87,19.87,0,0,0-.41-4.4,38.63,38.63,0,0,0-2.18-7.23,27.44,27.44,0,0,0-2.82-4.71,14,14,0,0,0-3.64-3.69,12.19,12.19,0,0,0-6.85-2.23,16.68,16.68,0,0,0-4.7.76,16.12,16.12,0,0,0-4.55,2Z"/>
  </g>
  <g class="trunkCreaseLine">
    <path d="M77.15,183.1a22.27,22.27,0,0,0-4,4,1.14,1.14,0,0,1-.15.23c-2.09,1.85-3.47,4.31-5.36,6.34A48.57,48.57,0,0,0,64.42,198"/>
    <path d="M101.16,150.81a35.21,35.21,0,0,0-.42,4.09c-.09,1.62-.23,3.23-.37,4.84a36.74,36.74,0,0,1-.49,4c-.26,1.36-.26,2.77-.42,4.15-.21,1.79-.28,3.59-.38,5.39-.06,1.16-.09,2.31-.15,3.47-.12,2-.33,4-.6,5.93s-.41,3.69-.5,5.54c-.11,2.5-.38,5-.5,7.47-.07,1.39,0,2.78.06,4.16"/>
    <path d="M103.55,124.7c-.13,1.57-.27,3.13-.38,4.7-.12,1.8-.12,1-.31,2.77"/>
    <path d="M147.3,168.53a1.68,1.68,0,0,1-.85-.62,40.89,40.89,0,0,0-3.18-3.52,25.13,25.13,0,0,1-3-4.79,23.37,23.37,0,0,0-4.66-6c-1.2-1.08-2.33-2.27-3.59-3.25a52.32,52.32,0,0,1-4-3.68,24.86,24.86,0,0,1-4-5,21.16,21.16,0,0,0-1.93-2.68c-.29-.33-.54-.7-.83-1-.89-1-1.79-2-2.69-2.93a2.18,2.18,0,0,1-.62-.85"/>
    <path d="M160.77,173.07c.32,2-.16,4-.38,5.93a7.47,7.47,0,0,0,2.37,6.49c1.87,1.86,3.92,3.52,5.79,5.37"/>
  </g>
  <g class="ringCreaseLine">
    <path d="M102.63,163.21a3.26,3.26,0,0,0-.81,2.16,3.3,3.3,0,0,0,.1,1.78c.17.38.35.73.78.74s.62-.42.69-.83.1-.61.16-.92a4.64,4.64,0,0,0-.15-2.31c-.11-.35-.24-.67-.7-.62Z"/>
    <path d="M143.68,208.34c.44-2.83-.21-5.62-.6-8.38a15.87,15.87,0,0,0-2.19-5.59,13.53,13.53,0,0,0-6.69-5.57,6.89,6.89,0,0,0-2.77-.56,10,10,0,0,0-2.68,0,19.6,19.6,0,0,0-4,1.3,13.91,13.91,0,0,0-5.19,5.52,12.39,12.39,0,0,0-1.72,4.45"/>
    <path d="M130.35,202.72a2.54,2.54,0,0,0-2.77,1.31,7.07,7.07,0,0,0-1.3,4.08,3.29,3.29,0,0,0,2.15,3.07,2.75,2.75,0,0,0,1.91-.23c3.07-1.39,3.09-5.78,1.24-7.6a1.48,1.48,0,0,0-1.15-.55Z"/>
    <path d="M140.29,202.49a20.82,20.82,0,0,0-1.24-3.85,11.38,11.38,0,0,0-2.52-3.79,8.45,8.45,0,0,0-4.17-1.94c-1-.16-1.91-.09-2.86-.19a5.5,5.5,0,0,0-3.14.71,11,11,0,0,0-4.54,4.45,17.92,17.92,0,0,0-2,9.46.48.48,0,0,0,.08.16"/>
    <path d="M124.88,201.88a4.39,4.39,0,0,1,3.08-3.49,9.74,9.74,0,0,1,3.09-.7,5.06,5.06,0,0,1,4.08,1.87,10.61,10.61,0,0,1,2.1,8.56,13.68,13.68,0,0,1-.41,2.3,2,2,0,0,1-.92,1.24"/>
  </g>
  <g class="rockMedium">
    <path d="M22.3,222.28c-2.32,1.08-14.95,1.39-16.79-1.23-3.84-5.43-6.57-11.66-4-16.79,2.09-4.19,8.7-10.28,13.56-10.63,5.07-.36,9.67,0,12.63,2.93,1.16,1.15,4.77,4.47,4.77,4.47Z"/>
    <path d="M192,193.87c-.1,0-.23.1-.3.06a5,5,0,0,0-3.84-.08,32.06,32.06,0,0,0-5.18,1.63c-1.65.74-3.47,1-5,2.08a3.79,3.79,0,0,0-1.15,1.24c-.16.27-.32.55-.46.84-.75,1.57-.76,1.73-.08,3.39,1.55,3.78,2.9,7.64,4.33,11.47.87,2.34,1.79,4.65,2.61,7a1.29,1.29,0,0,0,1.07.78,44.81,44.81,0,0,0,6.55.49c2.12.07,4.21-.08,6.31-.21a6.16,6.16,0,0,0,3.69-1.76,11,11,0,0,0,3.29-4.62,19.6,19.6,0,0,0,1.16-5.61,29.42,29.42,0,0,0-.55-5.16,6.91,6.91,0,0,0-2.09-4A42.83,42.83,0,0,0,197,197.1c-1.58-1.1-3.18-2.19-4.85-3.16Z"/>
    <path d="M50.64,225.06c-1,1.71-2.86,2.74-5.72,3-8.9.79-16.77,1.32-19.85-.84-2-1.38-3.23-4.16-5.24-6.77-3.08-4-3.08-10.79.18-13.13,3.58-2.56,5.32-6.46,11.07-7.82,9.08-2.16,15.55,1.54,22.33,8.93Z"/>
    <path d="M166.16,200.26a8.28,8.28,0,0,0-3.17,1.67c-1,.71-1.83,1.52-2.82,2.2-1.35.94-2.8,1.77-4,2.8a9.79,9.79,0,0,0-2.74,2.88,1.31,1.31,0,0,0-.15.92,34,34,0,0,1,.61,3.47c.23,1.15.41,2.31.58,3.47s.38,2.3.51,3.46c.16,1.42.47,2.81.63,4.23a1.14,1.14,0,0,0,.89,1,15.06,15.06,0,0,0,2.17.41,32.8,32.8,0,0,0,5.31.51c1.78,0,3.55,0,5.31.17,1.36.09,2.73.09,4.09.15a6.7,6.7,0,0,0,2.62-.26,2.62,2.62,0,0,1,.84,0,20.63,20.63,0,0,0,5.08-.65,5.75,5.75,0,0,0,3.65-3,15.21,15.21,0,0,0,1.63-4.1,23.75,23.75,0,0,0,1-5.38,14.15,14.15,0,0,0-1.58-7.24,10.76,10.76,0,0,0-5.22-4.54,36.81,36.81,0,0,1-4.09-2,10,10,0,0,0-3-.8c-1.69-.44-3.25.23-4.86.44-1.05.13-2.11,0-3.16.2Z"/>
    <path d="M74.44,232.61a13.61,13.61,0,0,1,2.38-.31,17.8,17.8,0,0,0,5.48-1.92,8.87,8.87,0,0,0,2.52-2,4.06,4.06,0,0,0,.61-1.84c.64-2.3,1.19-4.62,1.8-6.93a1.62,1.62,0,0,0-.15-1.4,30.84,30.84,0,0,1-1.44-3,10,10,0,0,0-5.13-4.67c-1.39-.65-2.68-1.49-4.05-2.2a27.46,27.46,0,0,1-4-2.68,22.59,22.59,0,0,1-2.35-2,6.85,6.85,0,0,0-2.52-1.4,9.66,9.66,0,0,0-2.77-.66,10.42,10.42,0,0,0-2.69.3,13.13,13.13,0,0,0-2.7.58A15,15,0,0,0,57,203.49a12.72,12.72,0,0,0-3.16,2.08c-1,1.06-2,2.14-2.95,3.29a35.32,35.32,0,0,0-2.28,3.57,16.11,16.11,0,0,0-1.92,4.47,4.51,4.51,0,0,0,.11,2.6c.41,1.25.66,2.56,1.14,3.78a15.66,15.66,0,0,0,1.69,3.15,14,14,0,0,0,6.07,5.16,9.23,9.23,0,0,0,3.61.8c1.37,0,2.74-.13,4.08,0,2.29.15,4.58.09,6.86.15a36.47,36.47,0,0,0,3.77,0c.13,0,.28-.07.39.08Z"/>
    <path d="M146.53,202.18a11.32,11.32,0,0,1,3.61,1.54c.55.31,1.1.6,1.62.93a28.58,28.58,0,0,1,6.56,6.38c.73.88,1.42,1.77,2.08,2.7a5.89,5.89,0,0,1,1,2.94,14.92,14.92,0,0,1-2.54,9.68,10.07,10.07,0,0,1-3.6,3.09c-.63.36-1.16.85-1.83,1.19a30.66,30.66,0,0,1-5.4,2.14,12.43,12.43,0,0,1-3.08.43c-2.08.06-4.16,0-6.24,0-3.72-.08-7.45,0-11.17-.13a4.82,4.82,0,0,1-3.26-.94,9.73,9.73,0,0,0-2.13-1.1,19.92,19.92,0,0,1-2.39-1.7,1,1,0,0,1-.39-.92c0-2.8-.19-5.59-.18-8.4,0-1-.11-1.94-.12-2.92a2,2,0,0,1,.91-1.79c.41-.3.62-.88,1-1.2,1.7-1.38,3.21-3,5.28-3.9,1.19-.53,2.25-1.34,3.48-1.82a4.91,4.91,0,0,0,1.38-1,5.74,5.74,0,0,1,1.93-1.08c.88-.31,1.68-.83,2.55-1.12,1.14-.39,2.17-1,3.25-1.45s2.12-.56,3.12-.93a19.51,19.51,0,0,1,4.26-.64c.07,0,.15,0,.23.07Z"/>
    <path d="M123.19,217.36a3.37,3.37,0,0,0-1.17-2.15,23.27,23.27,0,0,0-3-2.81c-2-1.62-3.77-3.41-5.64-5.13a14.11,14.11,0,0,0-3.7-2.77,4.37,4.37,0,0,0-2.47-.36c-2.73.41-4.84,2-7,3.46-2.31,1.59-4.66,3.15-6.9,4.86s-4.46,3.07-6.57,4.76a10,10,0,0,0-4,6.37c-.42,2.89-.24,5.7,1.54,8.16A9.8,9.8,0,0,0,89.92,236a30.78,30.78,0,0,0,4.08.55c1.72.17,3.44.32,5.16.39,2.47.08,4.93-.29,7.39-.43a30.59,30.59,0,0,0,4.08-.58,15.65,15.65,0,0,0,2.08-.75,16.05,16.05,0,0,0,3.32-2.07c1.45-1,2.76-2.18,4.26-3a8,8,0,0,0,2.86-2.62,9.24,9.24,0,0,0,1.18-5.44,10.4,10.4,0,0,0-.76-3.85l-.3-.7Z"/>
  </g>
</svg>
