<svg viewBox="0 0 98.75 114.12">
  <path class="steelMediumDark" d="M6.6,4.57c0-5.43,85.73-5.43,85.73,0,0,27.14.31,54.28.88,80.92H5.72C6.29,58.85,6.58,31.71,6.6,4.57Z"/>
  <path class="steelDark" d="M.5,108.63c0-4.29,97.75-4.29,97.75,0q-.42-13.57-.74-27.16c0-4.65-96.27-4.65-96.27,0Q.91,95.06.5,108.63Z"/>
  <path class="steelDarker" d="M.5,108.63c0,6.66,97.75,6.66,97.75,0C98.25,104.34.5,104.34.5,108.63Z"/>
  <path class="steelDarkest" d="M5.15,108.92c.11,4.83,88.58,4.68,88.45,0C93.6,106.1,5.15,106.1,5.15,108.92Z"/>
  <g class="whiteMedium">
    <polygon points="52.21 82.04 52.21 80.08 46.73 80.08 46.73 82.04 41.09 82.04 41.09 84.49 57.85 84.49 57.85 82.04 52.21 82.04"/>
    <path d="M42.23,85.87l1.56,16.9H55.15l1.56-16.9Zm3.45,14.77L45.16,88h1.35L47,100.64Zm4.47,0H48.79V88h1.36Zm3.11,0H51.9L52.42,88h1.36Z"/>
  </g>
</svg>
