<svg viewBox="0 0 98.75 114.12">
  <path class="steelMediumDark" d="M6.6,4.57c0-5.43,85.73-5.43,85.73,0q0,40.71.88,81.41H5.72Q6.58,45.29,6.6,4.57Z"/>
  <path class="steelDark" d="M.5,108.63c0-4.29,97.75-4.29,97.75,0q-.42-13.57-.74-27.16c0-4.65-96.27-4.65-96.27,0Q.91,95.06.5,108.63Z"/>
  <path class="steelDarker" d="M.5,108.63c0,6.66,97.75,6.66,97.75,0C98.25,104.34.5,104.34.5,108.63Z"/>
  <path class="steelDarkest" d="M5.15,108.92c.11,4.83,88.58,4.68,88.45,0C93.6,106.1,5.15,106.1,5.15,108.92Z"/>
  <g class="whiteMedium">
    <path d="M46.23,89.41l-4.46-2.54,2.31-4a2.79,2.79,0,0,1,3.85-.18l1.13,1.86Q47.64,87,46.23,89.41Z"/>
    <path d="M42.66,95.5H40.29a2.66,2.66,0,0,1-1.53-3.62l1-1.72-1.62-.92,5.12,0,2.59,4.38-1.61-.87C43.72,93.65,43.19,94.58,42.66,95.5Z"/>
    <path d="M48.75,96.12v5.13H43.09c-.34,0-.58-.3-.76-.57-.91-1.61-1.79-3.22-2.77-4.79a1,1,0,0,0,.76.24Z"/>
    <path d="M58.57,96.15a1.32,1.32,0,0,0,.82-.3l-2.86,5a.8.8,0,0,1-.73.45H52.65v1.83l-2.57-4.36,2.58-4.38v1.77Z"/>
    <path d="M53.5,90.69,58,88.19l2.32,4c.87,1.3-.45,2.86-1.6,3.35-2.39,0-2.39,0-2.39,0Z"/>
    <path d="M48.57,82.27a1.65,1.65,0,0,0-.89-.6h6a.88.88,0,0,1,.8.39c.51.91,1,1.81,1.54,2.71l1.56-.86-2.55,4.31H50l1.53-.9Z"/>
  </g>
</svg>
