<svg id="cliffTree"
    xmlns="http://www.w3.org/2000/svg" viewBox="0 0 1432 1522.55">
    <path class="trunk" d="M1144,688c-1.81-1.07-3.25.2-4.46,1-4.76,3.37-9.15,7.32-14.09,10.37-10.44,6.46-18.52,15.35-27.13,23.89a153.09,153.09,0,0,0-24.89,32.15C1065,770,1057.09,784.77,1050,800c-4,8.44-9,16.42-12.32,25.07a177.31,177.31,0,0,1-30.71,51.89,251,251,0,0,1-26.38,26.61c-8.85,7.7-17.2,16-27,22.48-12.47,8.29-25.65,15.28-39,22-10.92,5.51-21.46,11.82-32.6,16.79a126.9,126.9,0,0,0-20.42,11.67c-19.35,13.32-38,27.64-58,40.07-11,6.85-21.7,14.27-33.18,21.87,3.37-32.79,2.36-65.12-.14-96.76,5-4.81,11.55-6.6,16.8-10.66,11.9-9.2,22.38-19.89,33.26-30.23C836,885.83,847.9,868.71,857.7,849.6c3.41-6.65,7.15-13.27,11.08-19.73C873.55,822,879,814.65,884,807c7.49-11.53,13.86-23.75,20.78-35.62,3.77-6.45,8.07-12.87,10.58-19.92,2.71-7.62,6.21-14.43,12.14-20a34.08,34.08,0,0,0,4-5c12-16.56,24.28-32.88,38.12-47.89,12.48-13.55,25.64-26.49,40.84-37.17,7-4.92,15-7.94,22.65-11.19s16.17-4.86,24.41-6.68c15.21-3.34,30.43-6.75,44.45-13.64,21.69-10.66,45.27-13.85,68.53-18.46,8.34-1.66,16.73-3,25-4.81,14.33-3.17,27.44-9.44,41-14.69,8.48-3.3,17.07-6.78,23.43-13.54A249.55,249.55,0,0,0,1276,539c4.58-6,8.26-12.68,13.16-18.37,6.68-7.75,12.21-16.36,18.86-24.12,1.27-1.49,2.4-3.26,2-5.47l8.5-10a29.94,29.94,0,0,1-11.88,10.72c-9.43,5-17.62,12.08-25.68,19.21-12.76,11.27-25.61,22.49-39,32.93-10.06,7.82-22.64,10.24-34.91,12.52-7.58,1.42-15,3.56-22.48,5.11-11.5,2.36-23,4.9-34.43,7.35-10.73,2.28-21.38,5.48-32.11,8a274.25,274.25,0,0,1-28.94,4.85c-7.09.87-14.45,1.34-21,4.83l7.5-3.5c.52-2.32,2.42-3.63,4-5,4.8-3.9,8.7-8.65,12.93-13.07,6.37-6.65,10.54-14.9,15.41-22.56,13.53-21.3,24.55-44,36.18-66.39,5-9.58,9.67-19.45,18.91-26.07,7.15-5.13,14.14-10.49,21-16,11.9-9.52,23.28-19.65,34.67-29.8,13.25-11.79,23.33-25.51,31.49-41.1,4.74-9.07,9.83-17.85,13.6-27.48,3.15-8,4.83-16.31,6.73-24.6,2.83-12.33,5.2-24.74,5.07-37.49a81.12,81.12,0,0,1,.72-10.53c.55-4.6,1.34-9.36,1-14a17.42,17.42,0,0,1,1.71-9l-3.5,7.5a114.15,114.15,0,0,0-9.13,26c-1.67,7-4.35,13.77-6.9,20.52-7.44,19.68-15.78,39-30.66,54.33-6.06,6.23-12.29,12.48-18,18.93-7,7.79-14,15.46-21.9,22.11-14.33,12.07-29.2,23.56-46.87,30.67-3,1.22-5.56,3.64-9,4l-.5,4a58.35,58.35,0,0,0,0-7c-1.35-11.25-4.43-22.2-7.69-32.93A168.72,168.72,0,0,1,1117.5,333a13.91,13.91,0,0,0,0-2.5c-.75-4.9,1.25-9.17,3-13.5l-4,11.5c-4,3.63-2.84,9.13-4.89,13.55-3.79,8.17-4.43,17.23-6,26a69.47,69.47,0,0,0-1,12.47c.1,14.85-2,29.64-1.15,44.5.72,13.53-.63,27-1.24,40.49-.51,11.18-.19,22.65-3.85,33.48-2.07,6.14-3.86,12.38-8.31,17.62-5.77,6.8-10.6,14.39-16.15,21.38-11.79,14.86-25,28-41.24,38.38-10.32,6.57-20.47,14.21-28.67,23.69a127.9,127.9,0,0,1-14.54,14Q969.73,630.72,950,647.5l1.5-2.5c-1.64-6.74-2.78-13.69-1.77-20.47.72-4.9.33-9.71.8-14.53.19-1.84.61-3.88.69-5.51.27-5.61,1.9-11,2.27-16.49.59-8.58,2.12-17,3.42-25.51.44-2.86,2.58-5.39,1.59-8.49l3-7c.4,2.09-1,3.9-2.1,4.89-10.91,10.09-16,23.64-21.75,36.68s-11,26.11-14,40c-2.36,11-5.28,22-8,32.89-2.32,9.45-5.43,19-11.65,27.11-9.24,12-14.74,26.33-23,39-9.43,14.44-17.34,29.82-27.92,43.56a125.8,125.8,0,0,0-12,19.47c-5.87,11.41-15.57,19.49-24.25,28.3a319.89,319.89,0,0,1-37.77,32.26c-4.2,3.12-9.47,5.42-11.58,10.89l.5-3.5a56.87,56.87,0,0,1-1.55-12.5c.44-28-.77-56,1.84-84a242.33,242.33,0,0,0,1.39-25.48A33,33,0,0,1,772.41,724c4.12-10.16,9.86-19.42,15.11-29,6.08-11.06,10.65-22.86,16.6-34,8.31-15.47,20-28.13,33.79-39.17,16.26-13,31.69-27,40.08-46.89,3.63-8.59,10.49-15.32,14.3-23.59,8.57-18.59,20.47-35.22,30-53.28C933,477.65,943,457,948.48,434.49a317.42,317.42,0,0,1,19.16-54.93c3.69-8.2,7.88-16.47,14.89-22.52a250.67,250.67,0,0,0,46.39-52.59c9.09-13.87,16.49-28.73,23.07-44a136.54,136.54,0,0,0,9.64-34.47c.74-5,.14-10.11,1-15,1.94-11.09.73-21.82-2.13-32.52l-1-7.5c0,1.83.57,3.53.1,5.52-2.38,10.12-4.07,20.41-6.67,30.46a209.92,209.92,0,0,1-28.34,63.58c-8,12.16-17.84,22.71-27.45,33.56-11.12,12.56-22.75,24.58-34.66,36.36-3,2.93-4.22,7.27-8,9.52l-1,1.5V326a4.94,4.94,0,0,0,0-1.49c-3-9.1-3-18.64-3.89-28a131,131,0,0,0-3-19,219,219,0,0,1-5.27-29c-.55-5.2-.1-10.41-.87-15.51-2.23-14.8-.42-29.68-1.15-44.52a93,93,0,0,1,1.09-21c1.3-7.23,1-14.72,2.23-22,2.51-15.42,5.76-30.74,9.23-45.94,3.32-14.53,6.83-29.16,12.49-43.15,2.05-5.05,3.55-10.67,3.19-16.42l5-10a26.81,26.81,0,0,1-6.76,10.25c-5.47,5.22-9.35,12-12.27,19.24C948.42,71.87,942.72,84,938.12,96.55c-4.82,13.17-7.91,26.93-11.92,40.36-2.79,9.3-3.79,18.87-6.37,28.18A94.54,94.54,0,0,0,916.72,200c1.11,10.62-1.67,20.69-2.06,31-.31,8.3.73,16.67,1.37,25,.59,7.52,2,14.95,2.59,22.49.64,8.21,2.44,16.32,3.32,24.52,1.11,10.34,3.21,20.52,3.78,31a257.7,257.7,0,0,1-.43,28.5c-.82,14.93-2.11,29.84-5.57,44.56-2.25,9.53-4.35,19.06-7.09,28.49-2,6.95-6,12.89-8.77,19.4-3.88,8.93-7.14,18.08-10.92,27C888,493.59,880.88,504,874,514.51c-10.68,16.41-22.13,32.34-35.23,46.8-10,11-19.59,22.66-31.67,31.85-6.41,4.88-10.49,12.4-16.61,17.86-17.82,15.91-27.81,37.41-40.45,57-1.83,2.84-3.41,5.86-5.61,8.42a6.34,6.34,0,0,0-2,4.54l.5-4.5a200.15,200.15,0,0,1-3.58-32.5c-.18-5.9,1.47-11.59,1.16-17.5-.37-7.09,1.34-14,2.47-21,1.65-10.2,3.57-20.35,5.46-30.51,2-10.53,4.56-20.84,9.44-30.52,6.69-13.27,10.87-27.34,13.67-42,2.68-14,6.22-27.85,13.31-40.56,7.76-13.88,15.75-27.62,23.44-41.53,7.92-14.34,14.9-29.21,22.1-43.94A126,126,0,0,0,843.42,330c1.07-14.66-.2-29.37-1.16-44-.88-13.37-1.52-26.66-.76-40l-1,5.5c-3.74,3.72-4,8.87-5.47,13.51-3.11,9.92-3.45,20.45-5.85,30.41-3.24,13.47-2.7,27.72-8.64,40.6a143.25,143.25,0,0,1-11,19.52C800.72,368.85,789.74,380.31,779,392a8.14,8.14,0,0,0-2.48,4l1-3c-1.33-1.08-1-2.6-1-4,.21-10.06.15-20.13-2.06-30-1.84-8.2-2.66-16.63-5.92-24.52q-13.24-32.12-26.93-64a140.4,140.4,0,0,1-11.08-53c-.15-7.73,1.48-15.35,1.81-23,.32-7.41,3-14.22,6-20.32,5.51-11.22,10.43-22.66,15-34.22,4.27-10.75,6.57-22.18,9.06-33.47a218.31,218.31,0,0,0,5-37.48c.49-11.35.56-22.75-1.85-34-2.09-9.75-5.8-18.67-12-26.49L750,1c3.77,5.31,2.64,11.73,3.21,17.53.87,8.74,2.17,17.62,1.23,26.46a52.92,52.92,0,0,1-5.07,17.95C744.05,73.59,740.91,85,736.55,96c-6.69,16.89-12.57,34.07-20.39,50.56-6.84,14.42-13.23,29.27-16.36,45A182.45,182.45,0,0,0,697.05,214c-3.68-3.48-6.78-6.58-10.07-9.47q-10.66-9.35-21.49-18.51c-15.29-12.94-24.8-29.32-27.77-49-.89-6-2.53-12.24-.74-18.48a3.22,3.22,0,0,0-1-3l3-7.5c-6.28,8.87-7.45,18.79-7.87,29.49-.33,8.57.23,17,.56,25.5.58,15.27,3.38,30.16,14.33,42s22.51,23.51,33.43,35.57c12.3,13.59,26.11,25.95,35.52,42,8,13.57,16.1,27.11,21.49,42,4,11.1,7.76,22.31,11.51,33.5,1.13,3.37.93,7,1.36,10.51,1.16,9.27,1,18.71,2.31,28,1,7.37.75,14.68.83,22,.18,15.73-2.34,31.11-5.26,46.54-1.82,9.62-3.63,19.14-6.63,28.49C737.87,502,733.08,509.29,729,517c-8.72,16.52-19.89,31.66-27.87,48.56-3.92,8.31-6.53,17.25-9.6,26-1.43,4-2.86,8.06-5.53,11.49l-.5,4c1.88-2.65-.69-4.68-1.1-7-1.36-7.77-2.8-15.52-6.83-22.56A48.19,48.19,0,0,1,672.13,565c-2.82-12-7.92-23.2-12.75-34.42C655,520.34,647.19,512.15,641,503c-10.41-15.36-23.55-28.49-35-43-4.92-6.23-10.54-12-14.86-18.6-6.28-9.6-12.9-19-17.34-29.83a186.9,186.9,0,0,1-6.4-18.05c-2.34-7.89-2.6-16-3.78-24A191.25,191.25,0,0,1,561.25,348c-.2-6.13-1.47-12.29-2-18.48-.35-3.84-.25-7.71-.73-11.53-.94-7.67-2-15.34-3-23-.69-5.16-1.11-10.35-1.86-15.52-1.4-9.6-3.26-19.19-3.16-29,0-1.36.67-3-1-4V232c.29,7.4-1.94,14.38-3.38,21.52-1.63,8.07-4.56,15.74-5.78,24-2.69,18-7.76,35.6-6.87,54a7,7,0,0,1-.47,2l1,3c-7.49-9.8-13.58-20.36-19.3-31.34a224.18,224.18,0,0,1-15.16-35.67c-3.25-10.28-5.06-20.92-7-31.49-1.89-10.22-4.17-20.3-8-30-3.67-9.36-5-19.42-8.09-29-3.82-11.95-7-24.07-12.27-35.6C461,136.46,458,129.5,454,123c-.61-1-1.63-1.69-3.25-3.31a22.41,22.41,0,0,0,.67,8.32,247.78,247.78,0,0,1,8.27,39.45c1.4,11.9,3.75,23.71,5.61,35.56,1.66,10.5,2.92,21.1,5.34,31.44,3.42,14.64,5.29,29.62,9.82,44,3.4,10.84,9.1,20.68,12.67,31.45,4.58,13.8,10.06,27.31,14.85,41,3.44,9.9,5.83,20.2,9.68,29.93,5.42,13.67,11.68,26.86,20.1,39.24,10.23,15,22.76,28,34.32,41.76a223.27,223.27,0,0,1,38.5,67,199.07,199.07,0,0,0,9.59,22.95c4,7.69,5.82,16,8.13,24.13,2.68,9.38,5.54,18.76,7.34,28.42,1.91,10.3,4,20.52,5,31,1.17,12.49,2.4,25,2.88,37.51.51,13.64,2.57,27.09,5,40.5a2.09,2.09,0,0,1,0,.5c-.73,14.69,1.91,29.33.84,44-.39,5.34-.81,10.66-.83,16,0,1.57-.24,3-2,3.5l-1.5,6c2.8-1.21,1.91-4.06,1.35-5.44a208.56,208.56,0,0,0-22.77-41.62c-11.71-16.62-25.33-31.61-38.52-47-11.85-13.83-24.25-27.19-38.21-38.77-13.39-11.1-25.18-23.91-39.17-34.42-12.51-9.41-24-20.35-32.73-33.73-3.36-5.16-2.84-11-3.33-16.54-.78-8.87-1.67-17.7-3-26.5a109.51,109.51,0,0,1-1-17,102.07,102.07,0,0,0-9-42c-3.53-8-6.4-16.31-9.57-24.47-3.88-10-9-19.13-16.92-26.58-.83-.79-2.31-1.74-2.08-3.42l1.5,3.5c-.33,1.17-1.26,2.56-.91,3.47,3.52,9.22,4.18,19.12,6.84,28.55,3.56,12.58,7.4,25.2,7,38.48-.17,5.35-1.8,10.67-1.8,16,0,10-1.84,20-1.13,30,.12,1.68.29,3.47-2,4-5.56-4.74-9.32-11-14-16.5-8.82-10.34-17.5-20.86-24.37-32.58-5.32-9.09-12.62-16.88-17.09-26.44-9-19.26-17.52-38.63-22.71-59.44-4.7-18.8-8.87-37.49-9.08-57-.08-6.78.21-13.64-.37-20.53a301,301,0,0,1-1.5-31c.2-11-.26-22-1.05-33-.25-3.48-.19-7.12-.94-10.49-2.19-9.8-2.68-19.9-5.78-29.55C341,228.49,341,223,339.4,218c-3.15-9.78-6.95-19.34-10.39-29-5.59-15.78-14.86-29.37-25.58-41.94-9-10.51-19.8-19.21-30.1-28.37-2.81-2.51-5-6.76-9.83-6.69L252,101a49.16,49.16,0,0,0,4.88,5.13c2.55,2.26,6,4.06,6.26,8.36.07,1.22,1.82,2.38,2.87,3.5,12.56,13.59,21.63,29.38,29.55,46,6,12.58,11.93,25.1,16.07,38.49A318.27,318.27,0,0,1,322.28,246c1.3,8.18,2,16.58,2.44,25,.39,6.84.78,13.66.76,20.51,0,9.43-1.59,18.76-3.24,27.95-.94,5.21-1.12,10.4-1.62,15.56-.83,8.65-2.73,17.19-2.34,26a15.41,15.41,0,0,0,1.22,6l-2-4c-13.68-12.77-29.68-21.49-46.9-28.75-13.5-5.69-27.16-11.18-40.16-18.14-11.91-6.38-23.64-13.09-34.29-21.3-6.46-5-11.56-11.74-17.07-17.88a4,4,0,0,0-2.58-1.43l-7-15.5c.94,3.49,1.76,7.05,4,10,2.61,3.42,1.91,7.84,3.55,11.48,2.7,6,6.38,11.49,9.91,17a97.14,97.14,0,0,0,35.48,33.58C244,344.05,265.1,356.78,286.52,369c16.85,9.6,29.59,23.24,40.59,39,6.18,8.84,10,18.55,13.38,28.58,5.37,16,10.53,32.05,16.12,48,1.26,3.59,4.17,6.57,5.84,10.06a222.34,222.34,0,0,0,29.82,46.25C401,551.29,410,562,421.06,570.42c6.7,5.13,9.93,12.94,15.84,18.68,7,6.83,13.09,14.61,19.17,22.35,2.93,3.72,7.19,6.16,10.82,9.18,13.87,11.55,28.78,21.92,40.2,36.3,9.9,12.45,20.61,24.26,29.4,37.58,1.4,2.12,2.68,4.32,4,6.49l-2.5-3c-2.28,1.29-4.34-.23-6.5-.5-15.43-1.92-30.25-6.17-45.06-10.82a275.53,275.53,0,0,0-35-8.07c-22.25-3.9-43.55-10.15-63.57-20.93-6.9-3.72-14.68-5.89-22-9-9.29-4-17.79-9.12-26.45-14.13C316,621,295.86,603.15,276.63,584.36A222.25,222.25,0,0,1,245,545.5c-2.46-3.82-5.75-6.85-8.92-10.08a404.63,404.63,0,0,0-45.15-39.33c-8.46-6.42-18.14-11.06-28-14.94-7.82-3.08-15.63-6.4-23.94-8.15-7-1.48-14-3-21-4.46a7.08,7.08,0,0,0-2.49.46l-3.5-1c19.16,13.45,40.56,23.52,58.86,38.17a164.16,164.16,0,0,1,22.85,22.15c8.15,9.64,16.53,19.13,24.72,28.74,11.29,13.26,22.17,26.86,33,40.46,11.43,14.31,25.13,26.23,39,38,4,3.43,8.73,6.32,11,11.45l-1.5-2c-9.83,1.5-19.63,3.83-29.51,4.3-14.31.68-28.64,2-43,1.16A93.59,93.59,0,0,1,215,649c-7.73-1.52-15.16-4.37-23-5.45l-8.5-6.5a100.75,100.75,0,0,0,56,30.56c11.43,2.15,23,2.15,34.5,3.1,12.84,1.06,25.76,1.4,38.54,3.65A77.35,77.35,0,0,0,333,675.5c7.23-.67,13.81,1.24,20.58,3.8a195.57,195.57,0,0,1,19.95,8.64c11.94,6.1,24.78,9.92,37.48,14,15.4,5,30.77,10,46,15.48,14.12,5.07,29,7.41,43.43,11.26A261.62,261.62,0,0,1,549,747c10.82,5.35,21,11.78,28.47,21.5,4.25,5.51,6.41,12.29,10.48,18,8.38,11.8,13,25.34,17.63,38.93,3.53,10.44,7.46,20.75,11.49,31,3.37,8.6,3.74,17.48,3.49,26.52-.09,3.34.68,6.68,1.1,10a218.82,218.82,0,0,1,1.76,38.52c-.88,17.83-1.41,35.66-2.09,53.49-.46,12.16-1.85,24.3-1.81,36.51,0,1.26.21,2.58-1.38,3.79-3.79-2.07-7.74-4.17-11.13-7.28-11.69-10.7-25.36-18.86-37.48-29a305.56,305.56,0,0,1-25.59-24.41c-8-8.52-12.11-19.07-15.75-29.64-6-17.33-14.43-33.49-22.42-49.82a161.79,161.79,0,0,0-19.22-30.64c-2-2.51-3.43-5.56-5.59-7.93-4.59-5-9.07-10.35-15.94-12.55l2,2c0,1-.4,2.25.06,3,10.35,16.21,15.54,34.52,21.46,52.53a80,80,0,0,1,4,22.51c.14,4.25,2.47,8.5,0,12.75l1,3.25c-.84-4.83-5.78-5.54-8.55-8.45-13.72-14.38-30.32-24.64-47.89-33.67a191.59,191.59,0,0,1-24-15c-14.58-10.48-28.82-21.39-45.53-28.48a53.91,53.91,0,0,1-11.48-6.5,533.57,533.57,0,0,0-67.48-43c-10.09-5.49-20.86-9.76-30.11-16.82-8.82-6.73-19-11.31-28.64-16.75-8.49-4.81-16.74-9.58-24.42-15.69-10-8-18.17-18-28.47-25.53-12.9-9.43-22-22.23-31.31-34.68-11.23-14.92-18.51-32.06-25-49.45-1.43-3.82-4.35-6.72-5.53-10.48-1.49-4.74-2.41-9.65-3.58-14.48l4,18c-1,6.27,2.07,11.78,3.64,17.46,5.57,20.2,14.54,39.11,23.39,58,7.05,15,17.85,27.49,29.09,39.41,6.77,7.19,13.2,14.78,20.87,21.12,11.3,9.35,23.59,17.29,36,24.93C238.75,796.2,248.39,803.37,259,809c18.61,9.9,34.07,24,50.09,37.39,11,9.22,23.31,16.83,35.36,24.69,9.49,6.18,19.42,11.77,27.61,19.86S389,907,397.48,915a5.74,5.74,0,0,1,.79,1.63c-2.19,2-5,1.54-7.28,1.72-10.75.81-21.51,1.65-32,4.21-15.19,3.72-30.76,5.15-46,8.32a78.17,78.17,0,0,1-21.49,1.78c-10.63-.74-21.39.39-32-1.25-10.2-1.58-20.42-2.92-30.57-5.18-12.81-2.85-24.87-7.67-36.82-12.54-9.62-3.93-19.65-7.24-28.61-12.73-7.4-4.55-14.5-9.63-22.06-13.89-7.4-4.17-15.49-7.59-21.29-13.74-7.44-7.9-16-14.37-24.11-21.41C85.62,842.88,73.41,836.55,62,829c-13.34-8.79-28.32-14.42-42.68-21.11C13.6,805.25,7.15,803.2,1,801l14.5,7c3.73,5.33,9.69,8,14.61,11.86,15.41,12,30.65,24.25,45.55,36.95,13.27,11.3,24.1,24.93,37.29,36.24,21.57,18.5,45.25,33.25,72,43a319.78,319.78,0,0,1,31,13.06c7.75,3.81,16,5.8,24.11,8.24a114,114,0,0,0,41.44,4.92c11.37-.86,22.71-.13,34-.91,9-.63,18-2.66,27-3.29,15.85-1.12,31-5.72,46.51-8.49a132.85,132.85,0,0,1,30.48-2.14c5.47.29,10.45,2.29,15.49,4.06,21.88,7.67,39.88,21.42,55.88,37.6,16.58,16.76,31.92,34.74,48.2,51.8,11.32,11.85,21.76,24.46,33.74,35.77,14.57,13.75,28.2,28.72,38,46.38a85.81,85.81,0,0,1,10.65,42.42c0,21,.6,42-.23,63-.47,12-1.91,24.12-1.46,36,1.39,36.35-.2,72.69.9,109,.26,8.49.3,17,.88,25.5.87,12.8-5.4,22.72-12.75,31.88a73.41,73.41,0,0,1-20.33,17.65c-6.19,3.6-13,6-19,9.92-13.05,8.35-26.67,15.86-39.34,24.73-9.54,6.69-19.82,11.72-30.14,16.78a185.06,185.06,0,0,0-32.5,20.52,9.6,9.6,0,0,1-2.48,1l3.5-.5c1.6.8,3.33.49,5,.49h442c1.67,0,3.4.31,5-.49l3.5-.5c-3.11,2-3.64-1.59-4.9-2.63a497.31,497.31,0,0,0-54.05-38.95c-12.43-7.75-24.15-16.62-36.62-24.3-9.56-5.88-19.39-11.38-27.84-18.72-11.92-10.34-23.32-20.94-25.36-38.37-1.15-9.83-3.62-19.51-3.8-29.53-.09-4.9.91-9.66,1-14.5A264.81,264.81,0,0,0,770.7,1320c-1.48-14.25-1.6-28.64-2.16-43-.2-5.18.65-10.37.77-15.5q.56-23.54,2-47c.55-9,1.9-18,1.21-27a12,12,0,0,1,0-3c1.65-9.33,2.81-18.74,4.91-28s3.94-18.63,9-27c4.94-8.16,9.55-16.55,14-25a147.08,147.08,0,0,1,27.34-36.16c10-9.74,20.14-19.55,31.46-28.13C871.79,1030.7,882.64,1019,894,1008c12.73-12.38,27.49-22,41.94-32.1,11.06-7.75,22.32-15.19,33.21-23.2,15.68-11.54,31.9-22.41,49.39-31.16,6.07-3,12.38-5.62,18.59-8.29,11.79-5.07,23.43-10.38,36.35-13,17.53-3.59,35-7.59,52.54-11.25,9.28-1.94,18.63-3.64,28-2.79,14.37,1.3,27,8.33,40,13.87,12.09,5.15,22.83,13.17,36,16.09a171.52,171.52,0,0,0,29.53,4.21,207.48,207.48,0,0,0,28.51-.57c10.75-1,21.35-2.63,32-4.26s20.8-4.09,29.42-10.59c4.48-3.38,9.08-5.7,14.58-6.39l-11.5,3.5c-2.2-2-4.86-.71-7-.35-12.94,2.2-25.51,5.83-39.06,4.13-8.65-1.08-17.6-1.5-25.89-3.59-17.68-4.44-35.75-8.65-51.47-18.36-9.69-6-21.1-9.52-28.61-18.83-1-1.29-2.22-1.11-3.5-.5l2.5-.5c2.65-2.56,5.16-5.15,8.45-7.08,14.44-8.48,28.74-17.22,43-25.93,7.79-4.75,16.44-7.8,23.62-13.86,12-10.11,25.29-18.43,37.07-28.93A351.75,351.75,0,0,0,1345.94,753c13.32-15.72,22.53-34.14,32.44-52,8.41-15.18,14.58-31.6,23.77-46.34,7.65-12.27,15.63-24.35,23.38-36.57.9-1.43,1.75-2.76,1.47-4.52l4-2c-9.89,1.54-15.18,9.71-21.92,15.59-15.33,13.36-27.53,29.47-38.5,46.46-5.2,8.06-12.59,14.37-17.16,22.91a128.48,128.48,0,0,1-11.52,18.46c-11.21,14.35-23.2,28-37.39,39.59-9.67,7.88-18.82,16.42-29.51,23-.45.28-1,.45-1.76.83a12.91,12.91,0,0,1-.71-2.82c0-11-.31-22,0-33a132.78,132.78,0,0,1,13.83-55.06c2-4.14,4.72-8.36,4.11-13.44l4-6c-3.25,6.32-9.93,9.3-14.18,14.86-7.67,10.06-14.94,20.4-22.19,30.73-7.68,10.94-10.31,23.94-12.64,36.91-2.4,13.29-5.09,26.59-10.62,38.94-5.83,13-14.23,24-27.3,31.19-21.08,11.64-42.12,23.26-65.08,30.83-12.22,4-24.35,8.43-37,11-7.11,1.44-14.34,2.28-21.49,3.57-13.26,2.4-26.48,5.05-40,5.46-1.71,0-3.56.48-5-1l-4,1c1.17-.33,2.81-.29,3.42-1.06,3.23-4.12,7.12-7.67,9.64-12.41,7.5-14.09,15.41-28,22.9-42,8.56-16.08,14.44-33.41,23-49.52,3.25-6.11,5-13.14,8.73-18.85,8.06-12.24,15.65-24.78,24.2-36.71,6.4-8.91,14.24-16.57,20.53-25.48,3.2-4.52,9-5.16,12.11-9.42"/>
</svg>
