<svg viewBox="0 0 441.54 469.42">
  <path class="treeTrunk" d="M341.18,220.39A64.35,64.35,0,0,0,329,236.3c-6.64,11.8-10.75,25.27-19.86,35.48-9.61,10.79-21.15,17.5-33.84,24-13.28,6.8-25.3,16.09-37.75,24.32a143.21,143.21,0,0,0,.58-18.76c-.07-2.21-1.11-7-.5-9.21.85-3.09,2.43-3.19,5.05-5.12a79.63,79.63,0,0,0,21.77-25.08c10.31-18.17,20.33-37.2,34.48-52.68,8-8.71,15.63-14.13,27.08-17,11.25-2.77,21.56-7.37,33-9.54,10.4-2,22.92-4.16,30.62-12,6.43-6.55,11.54-13.91,16.77-22.39-2.95,4.71-11.73,9.43-16,13.11-6.17,5.29-10.54,8.35-18.34,10.12-6.94,1.57-13.92,3-20.83,4.61-6.47,1.56-16.28,1.63-22,4.67,7.55-3.38,12.41-13.45,16.23-20.27,3.05-5.43,5.38-11.49,8.76-16.71s8.76-8.33,13.46-12.25c8.32-6.93,15.18-13.89,19.86-23.78a59.32,59.32,0,0,0,5.15-17.6c.59-4.37-.4-12,1.55-16.14-5.35,11.3-7,23.63-15.47,33.37a115.32,115.32,0,0,1-15,14.84c-3.6,2.85-12.91,6.35-14.7,9.71,0-11-7.08-23-3.69-34.2-3.39,7.86-4.57,14.52-5,23-.5,10.85,1.67,24.21-2.35,34.48-3.52,9-12.15,16.89-19.74,22.43-9,6.57-16.95,14.68-25.48,21.92.83-9.95-2.31-21.57,3.54-31-5.54,7.24-5.56,8.86-6.69,11.29a82.83,82.83,0,0,0-5,13.82,103.89,103.89,0,0,1-11.35,27.5c-4.58,8-9.52,16.16-14.86,23.65a66.11,66.11,0,0,1-9.44,10.14c-3.06,2.82-10.89,6.59-12.45,10.64-.09-9-.55-18.07,0-27.12.71-12.57,4-20.23,9.59-31.31,4.85-9.55,12.36-14.23,19.22-22,6.35-7.16,10.34-16.91,15.15-25.16,10.07-17.27,12-39.59,26.3-53.69,15.19-15,22-32.76,19.73-53.62,0,24-19.17,38.67-32.65,55.61,0-16.92-4.84-33.17-4.39-50.22a137.81,137.81,0,0,1,3.87-27.39c1.48-6.4,2.66-15.93,6.37-21.44-2.77,2.31-4.24,5.9-5.86,9.09a102,102,0,0,0-6.21,16.05c-2.53,8.18-4.91,16.86-5.18,25.42-.61,19.09,4.22,38,2.32,57-1.85,18.41-10.41,36.05-21.64,50.54-5.36,6.92-11.71,12.8-17.77,19a70.89,70.89,0,0,0-9.5,11.73c-1.55,2.45-7.13,8.79-7,11.67.65-9.48-.79-18.26,1-28,2-11.15,6-22.65,9.53-33.43,3.73-11.39,11.75-21.42,16.59-32.42,5.95-13.53,2.59-26,3.39-40.2-2,7.11-3.26,14.23-4.81,21.54a34.17,34.17,0,0,1-5,12.2c-2.18,3.32-9.48,8.6-10.19,12.47,3.4-21.26-16.68-38.71-13.78-60.31,1.52-11.29,8.39-21.18,10.17-32.7S238.49,11.74,231.25.5C236,9.9,229,24.65,225.89,32.9c-4.2,11-10.08,21.28-11,33.22-8.44-8-23.77-18.92-17.88-32.66-3.85,5.45-3.19,16.18-1.59,22.48,1.92,7.59,8.91,12.88,14,18.36,10.43,11.11,19.27,24,21.53,39.42,1.92,13.12,1.7,28.68-3.71,41-4.85,11-13.13,20.54-16,32.45,3-4.18-9.35-25.86-11.69-29.28-7.19-10.54-17.5-19.1-22.72-30.92-4.8-10.88-4.13-24.28-5.64-35.92-.82-6.39-1.84-11.55-1.84-19.41-1.85,9.4-4.62,21.72-4.78,32.2-8.18-10.71-10.55-22.37-13.81-35-2.45-9.49-9.14-22.28-11.84-31.77-.62,8.61,3.5,20.23,5,28.91a135.36,135.36,0,0,0,7.45,28.08c3.26,8.23,5.48,16.89,8.84,25.06,3.79,9.18,10,15.8,16.12,23.39,11.23,13.88,18.16,32.67,20.72,50.25,1.39,9.57,2.06,19.49,2.82,29.09.5,6.27,1.25,13.81-1.07,19.72,6.77-2.91-36.39-46.63-41.05-50.52-4.33-3.61-9.6-7.24-11.76-12.65-1.84-4.6-1.38-11-1.83-15.93a55,55,0,0,0-3.55-16.13c-.56-1.44-8.15-14.13-8.05-14.91,1.11,6,3.54,12.55,4.19,18.77.22,2.18.33,19.06-1.26,19.43-23.65-20.12-26.41-51.57-27.52-80.1-.47-12.31-2.95-25.79-9.09-36.65-5.32-9.41-14.56-13.82-21.15-21.57,9.1,10.79,16.11,22.29,19.8,36.25a77.34,77.34,0,0,1,2.76,23.88c-.34,6-4.28,16.34-1.77,21.81-5.32-8.82-20.24-11.74-28.8-16.42-7.5-4.1-13.9-8.78-17.41-16.54C56.63,96,68.69,102.42,81.89,110.06c7.42,4.31,14.3,8.43,19.07,15.8,4.67,7.2,5.67,15.84,9.09,23.58,12.22,27.62,41.26,41.69,56.65,66.71-2.81-2.06-7.85-1.92-11.5-2.9-7-1.87-14-3.35-21-5.06A104.36,104.36,0,0,1,96,189.66c-21.44-16.87-31.6-41.19-61.28-45.29,12,8.41,21.87,14.68,31.51,26,4.63,5.42,8.86,11.23,13.64,16.5,3.54,3.9,11.06,7.87,13.23,12.68-10.16-3.27-26.76,6.77-36.36-3.08,14.1,14.91,34.89,7.73,52.4,13,7.16,2.17,14.07,5.78,21.25,8.14,9.22,3,18.62,5.25,27.83,8.21,18.81,6.06,24.66,17.36,30.86,35.07,2.92,8.34,3.29,17.44,3.18,26.28-.05,4.25,1.63,26.43-1.62,28.89-10.35-5.64-22.17-15.48-27.11-26.21-4.2-9.13-9.25-29.26-20.06-32.72a66.31,66.31,0,0,1,8.78,29.58c-.8-4.56-12.48-10.21-15.79-12.12-5.49-3.16-10.42-6.88-15.77-10.23-11.41-7.14-22.9-14.39-34.73-20.89-22.76-12.49-44.94-28.3-51.4-55,4.79,21.55,13,39.64,31.78,52.41,9.89,6.72,19.71,12.68,29.09,20.11,7.84,6.21,23.08,12.22,27.48,21.64-2.24,2-9.25,1.32-12.09,1.83-5.76,1-11.62,2.6-17.46,3.07-12.16,1-24.31-1.73-35.46-6.39C36.88,272.31,22.34,254.78.5,247c11.16,3.83,21.64,15.79,29.87,23.92,11.84,11.71,27.69,19.92,43.77,24.25,15.1,4.07,30.9,0,45.9-2.39,17.09-2.68,28,8.37,38.83,20.12,10.23,11.13,26.81,23.25,31.48,38,4.8,15.19,2.21,35.69,2.23,51.51,0,15.25,3.71,34.52-11.08,44.06-6.77,4.36-14,8.53-21,12.58-5.31,3.1-11.47,7.67-17.05,9.9H284.39s-31.23-21.65-34.83-24.27c-12.67-9.19-10.78-20.4-11.62-34.37-1.74-28.88-3.53-60.1,18.44-82.09s49.61-45.32,80.58-52c7.16-1.54,14.63-4.17,22-2.45,7.18,1.69,13.13,6.66,20.18,8.64,6.8,1.9,14.27,1.56,21.18.75a57.25,57.25,0,0,0,9.75-1.56c3.57-1.1,6.51-2.77,10.36-4.62-6.61,2.93-16.77,2.71-23.72,1.48a62.27,62.27,0,0,1-16.34-5.19c-1.19-.58-10.78-7-11.39-6.76,15.86-8.22,32.85-19.23,44.64-32.94,6.69-7.78,10.88-17,15.51-26.09,2.92-5.72,7-15.27,11.94-18.91-9.52,1.48-18.92,18.91-23.9,26.17C410.83,224,403,235.05,392.44,240c-2.57-9.79.84-25.8,6.55-34-6.78,7.55-12.36,13.48-14.81,23.93-2.17,9.24-3.48,17.47-12,23.09-15.77,10.46-34.81,14.25-53.16,15.68,7.55-2.16,14.33-24.16,17.41-30.85a100.88,100.88,0,0,1,9-15.84c3.48-5,8.54-8.86,12-13.54"/>
</svg>
