<svg viewBox="0 0 337.32 638.2">
  <path class="cypressFurther" d="M163.4,637.7H84.28c-35.68-6.76-55.89-26.44-29.57-26.25C17.38,586-2.74,542.93,24.39,555.63,1.84,520.14-9.67,480.52,12.2,495.37c0,0-24-80.59.83-59.41-9.38-29.31-10.42-63.63,1.36-47.2-11.07-44.59-7.9-65.36,3.55-46.95-8.7-59.75-3-68.21,6.85-45.39-5.57-51.32.06-78.33,9.07-54.83C30.31,191.86,37.6,177.73,45.05,199c-1.8-40.39,5.25-65.76,12.54-49.36C61,108,69.35,86.07,76,102.5,79.11,69.12,87.8,30.68,94.71,45.35c21-81.59,24.18-29.64,28.76-15.78,4.86-17.12,13.68-10.72,21.2,27.09,9.5-20.59,13.7,4.64,20.28,45.78,6.58-21.12,17.67,4.76,16.17,42.16,18.8-66.49,47.19,264.89,45.25,278.48C227.57,515.36,219.41,637.7,163.4,637.7Z"/>
  <path class="cypressCloser" d="M269.87,637.7c27.35,0,45.84-33.64,20.43-24.57,41.67-33.84,48.7-79.31,27.33-57,15.45-24.86,26.54-71.81,8.53-53.7,9.88-29.57,17.27-63.95,1.56-46.23,9.08-28.37,10.52-50.92-1.18-34.59,9.62-38.77,6.86-53.6-3.09-37.6,7.56-51.94,2.61-65.72-6-45.88,4.85-44.62-.05-64.88-7.88-44.46,3.09-43.22-3.25-61.93-9.73-43.46,1.57-35.11-4.56-53.95-10.89-39.7-2.94-36.18-10.23-58.45-16-44.16-2.73-29-10.28-52.16-16.3-39.41-17.6-58.06-21-29.61-25-17.57-4.23-14.88-14.14,0-18.44,23.56-8.25-17.9-14.47,7.24-20.19,43-5.72-18.35-9.81,4.54-11.48,33.43-7.1-17.4-11.1,8.73-11.71,41.85-8.24-15.87-9.48,6.46-7.74,33.43-9.5-16.2-11.75,5.33-8,42.18-11.45-18.21-8.88,13.61-5,33.83-9.63-17.65-11.56,5.81-4.9,47.4-10.52-15.24-12.45,4-1.95,43.39-15.47-11.85-9.19,31.4,2.35,58.14-19.67-17.13-9,24.65,9.26,50.44-24.49-11.37-3.79,31.51,25.12,51.07-27.43-4.77,1,26.65,22.84,26.65Z"/>
</svg>
