<svg id="fireHydrant" 
    xmlns="http://www.w3.org/2000/svg" viewBox="0 0 554.78 974.2">
    <path class="cap" d="M326.86,45.09c2.34-8.86,3.05-18,4.46-27,1.51-9.71,1.32-9.61-8.45-12.53a97.07,97.07,0,0,0-27.51-4q-9,0-18-.5c-7.65-.41-15,1.4-22.5,2.55-3,.46-4.75,1.78-4.6,5.48.39,9.67-1.55,19.28-1,29,.4,6.67.45,7,7.06,7h70.5Z"/>
    <path class="cap" d="M510.36,439.59c-.9.09-1.52.6-1.48,1.5,1.12,29.33.17,58.66.5,88,0,.17.32.33,1.05,1.07,7.61-.39,15.8.71,23.93-1.08,7.35-1.62,10.2-7.85,13.47-13.51,3.45-6,4-12.9,4.89-19.5a106.36,106.36,0,0,0-1.43-38A27.93,27.93,0,0,0,543.92,444a13.69,13.69,0,0,0-9.56-3.88c-7.82-.37-15.66-.4-23.5-.56Z"/>
    <path class="valveOuter" d="M519.86,433.09c.52-7.51-2.05-14.5-4.11-21.47-3.3-11.21-8.05-21.73-17.36-29.56s-19.9-12.74-32.53-12a45.91,45.91,0,0,1-10.48-.52c-7.35-1.28-14.7,0-22-.13a60.87,60.87,0,0,0-27,5.73c-.4.19-.64.89-1,.94-9.39,1.3-10.2,7.44-10.16,15.54.3,60.66.13,121.33.24,182,0,3.5-2.25,7.55.09,10.36,3.17,3.82,8.31,5.26,12.86,7.06a74.46,74.46,0,0,0,28.47,4.81c9.81-.16,19.75-.41,29.51-2.21,6.15-1.14,12.22-2.31,18-4.92,6-2.68,9.89-7.46,13.91-12.14,8.37-9.75,12.79-21.55,17.08-33.45a138.72,138.72,0,0,0,8.51-49.5c-.35-19.14,1.4-38.55-3-57.51-.2-.83.42-1.82-.51-2.5Z"/>
    <path class="valveOuter" d="M346.86,82.09a69.84,69.84,0,0,0-2.65-30.95c-.92-2.88-2.71-6-5.86-7.54-7.19-3.49-14.44-6.82-22.48-8a280.76,280.76,0,0,0-47.51-3,124.09,124.09,0,0,0-27.49,3.55,14.18,14.18,0,0,0-6.52,4c-9.4,9.25-11.63,22-16.38,33.55-.31.75.76,1.93,2.39,2,10.34.54,20.69,1.07,31,2,18,1.58,36,1.23,54,3.28,13.56,1.55,27.3,1.39,41,1.18Z"/>
    <path class="valveInner" d="M389.86,386.59c-1.06,1.57-.46,3.34-.46,5q-.06,89.49,0,179c0,2,.21,4-.54,5.95,12,2,24.22,1.83,34.88-3.28a53.25,53.25,0,0,0,28.38-32.6,204.86,204.86,0,0,0,5.81-21.07c2.58-12.21,2.94-24.63,3.37-37,.4-11.38-2.54-22.44-4.94-33.48-1.74-8-3.69-16-7-23.49C442.73,410.72,432,399.77,418,391.39c-6.6-3.95-13.57-4.89-20.64-6.19-2.2-.4-4.64.55-7,.89Z"/>
    <path class="reservoir" d="M425.36,300.59c-1.6-.8-3.32-.49-5-.49q-143,0-286,0c-6.37,0-6-.05-6.34,6-.63,10-2.91,19.64-4.13,29.49a66.87,66.87,0,0,0-.51,8c0,14.36-2.25,28.59-2.32,43,0,7.78.06,15.72-.8,23.49-1.77,16,.23,32.06-1.07,48s.3,32.07-1,48,0,32-.92,48c-1,17.83-1.74,35.65-2,53.51-.24,19.17-1,38.33-1.39,57.5-.13,7.33.43,14.66.42,22,0,10.33-.72,20.68-.37,31,.49,14-.14,28,.18,42,.4,18,1.19,36,2.51,54,.55,7.45,2.49,14.91,2.72,22.52.29,9.33.7,18.66,1,28a63.17,63.17,0,0,0,1.27,11.25H425.43c-2.23-10.25-4.73-20.2-6.44-30.27a143.44,143.44,0,0,1-2.29-18c-.17-4-2-8-2.79-12-1.17-6.14-1.56-12.46-3.16-18.46-2.76-10.39-2.12-21-3.39-31.53-1.58-13.12-2-26.33-3.08-39.5-.43-5.51-.34-11-.42-16.5-.15-10.5-.12-21-.55-31.5-.53-13-1.41-26-.07-39a248.63,248.63,0,0,0,1.05-28c-.2-23.42,3-46.64,3.51-70,.13-5.83-.54-11.64,0-17.51,1.43-15.79.26-31.7,2-47.5.29-2.62-.46-5.33-.41-8,.3-13,1.08-26,2.41-39,1.43-14,2-28,3.67-42,1.93-16.13,1.07-32.52,4.06-48.48,2-10.5,2.06-21.36,5.77-31.56a16,16,0,0,0,.52-5.47c0-1.53.44-2.42,2-2.5Z"/>
    <path class="reservoir" d="M435.36,239.09c.27-11.69.83-23.52-1.26-35-2-11.09-2.81-22.55-7.6-33.12-1.71-3.77-1.32-8.44-2.73-12.4-4.16-11.69-8.79-23.05-15.65-33.7-8.16-12.68-19-22-31.33-29.72a139,139,0,0,0-26.37-12.76c-12.73-4.65-26.13-6.23-39.09-9.74a40.11,40.11,0,0,0-9.47-.93c-17.83-.32-35.7-1.35-53.5.82,0,0-3.28-.76-4.48-.43-7.89,2.14-16,1.18-24,2.32a76.35,76.35,0,0,0-42,20.08c-7.3,6.72-13.07,14.75-18.79,22.67s-12.16,15.72-15.5,24.92c-5.86,16.12-12.14,32.06-14.45,49.4-2.18,16.27-1.6,32.35-1.14,48.54h309.9Z"/>
    <path class="contour" d="M424.15,870.09c-1.86-8.25-3.77-16.34-5.16-24.52a143.44,143.44,0,0,1-2.29-18c-.17-4-2-8-2.79-12-1.17-6.14-1.56-12.46-3.16-18.46-2.76-10.39-2.12-21-3.39-31.53-1.58-13.12-2-26.33-3.08-39.5-.43-5.51-.34-11-.42-16.5-.15-10.5-.12-21-.55-31.5-.53-13-1.41-26-.07-39a248.63,248.63,0,0,0,1.05-28c-.2-23.42,3-46.64,3.51-70,.13-5.83-.54-11.64,0-17.51,1.43-15.79.26-31.7,2-47.5.29-2.62-.46-5.33-.41-8,.3-13,1.08-26,2.41-39,1.43-14,2-28,3.67-42,1.57-13.14,1.3-26.44,2.75-39.54-.46-.1-.93-.21-1.39-.35-4.1-1.19-7.95,1.5-10,5.35-3.2,6-3.81,12.67-5.31,19.06-1.71,7.23-2.72,14.67-3.89,22-.89,5.54-.93,11.35-1.83,16.94-1.82,11.45-1.48,23.07-3.14,34.56-.93,6.36-1,13.05-2,19.42-1.54,10.17-1.63,20.36-2.23,30.54-.6,10-.8,20-1,30-.17,7.19-1.57,14.27-1.66,21.5-.06,4-.48,8,.08,12,.6,4.33-.67,8.61-.72,13-.1,8.82,1,17.67-.56,26.54-.8,4.49.29,9.3.31,14,.06,13.83-.11,27.67.06,41.5.14,11.5.73,23,.93,34.5.22,12.33.37,24.68.33,37-.06,18.34.58,36.67.88,55,.23,14.21,2,28.37,3.71,42.52,1.3,11,2.21,22,3.32,33a75.24,75.24,0,0,1,.21,14.47Z"/>
    <path class="contour" d="M280.86,434.59c-.65,15.66-1.52,31.3-.57,47,.56,9.14.4,18.33.57,27.5q.5,26,1,52c.16,7.83,0,15.66.4,23.5q.84,18.72.53,37.5c-.25,17.36-1.4,34.68-2.62,52a273.6,273.6,0,0,0,.32,44c.08.94.33,2,.34,3,.21,13.16.81,26.34.4,39.49-.36,11.51-1.14,23-.4,34.51,1.12,17.32,1.94,34.67,3.07,52,.66,10.17.61,20.33.55,30.51,0,3.36.75,6.72-.69,10.25H215.69c-1.66-9.16-1-18.33-2.79-27.26-1.53-7.8-3.21-15.62-3.89-23.51-.58-6.81-.76-13.68-1.66-20.48-1-7.34-2.1-14.66-3-22-1-8.63-1.31-17.32-1.87-26-.58-9-.61-18.06-.44-27,.21-11-2.21-21.62-2.25-32.5s-.58-22-.31-33c.09-3.69-.32-7.39-.47-11-.25-6.35.77-12.63,0-19-.93-7.6.32-15.39,1.09-23,1.35-13.21-.13-26.4.86-39.51,1.25-16.5,1.21-33,2.67-49.53.88-9.91.88-20,.93-30,.07-14.34.35-28.74,2.66-43,1.3-8.07,1.49-16.31,2.1-24.48.93-12.49.65-25.06,1.79-37.48,1-10.33,1.75-20.83,3.89-31,3.14-14.93,10.68-21.08,27.83-21.42a60,60,0,0,1,25,5.34c7,3,10.53,8.2,12.65,15.5,3.59,12.36,1.83,24.72,1.17,37-.46,8.66.09,17.43-1.76,26-.23,1,.59,2.32.92,3.49Z"/>
    <path class="contour" d="M184.26,846.61c-2.38-11.76-3.49-23.66-4.88-35.52-2.21-18.78-4.79-37.49-4.66-56.5.09-12.67-1.72-25.34-1.74-38,0-23.51.09-47,.88-70.52.36-10.66.29-21.64-.23-32.5a339.92,339.92,0,0,1,.18-41.49c.75-10,1.12-20,1.53-30,.42-10.17.34-20.36,1.11-30.5.9-11.82,1.45-23.66,2.06-35.49.59-11.34,1-22.73,2.08-34,1.48-15.33,2.14-30.73,4-46.05,1.65-13.31.5-26.79-4.8-39.46-4.05-9.71-12.26-13.86-22-16.05-8.74-2-17.75-1.33-26.51-3-2.52-.47-5.05-.81-7.57-1.06a66.87,66.87,0,0,0-.41,7.07c0,14.36-2.25,28.59-2.32,43,0,7.78.06,15.72-.8,23.49-1.77,16,.23,32.06-1.07,48s.3,32.07-1,48,0,32-.92,48c-1,17.83-1.74,35.65-2,53.51-.24,19.17-1,38.33-1.39,57.5-.13,7.33.43,14.66.42,22,0,10.33-.72,20.68-.37,31,.49,14-.14,28,.18,42,.4,18,1.19,36,2.51,54,.55,7.45,2.49,14.91,2.72,22.52.29,9.33.7,18.66,1,28a66.93,66.93,0,0,0,.73,8.25h67C186.79,863.91,186,855.16,184.26,846.61Z"/>
    <path class="contour" d="M304.86,614.09c-.83,3.71.23,7.38.24,11,0,6.14.22,12.36-.36,18.49a61.55,61.55,0,0,0,.06,9c.4,8.49-1.17,17,.05,25.5.63,4.39-1,8.65-1,13,.21,10.67,1.14,21.35.77,32-.22,6.24.57,12.34.73,18.51.38,14.67.79,29.34,1.55,44a90.26,90.26,0,0,0,2.56,17.47c1.09,4.29-.21,8.34.09,12.56.86,12.31,1.12,24.67,2.29,37a274,274,0,0,1,1.44,31.26h65c.28-6-.7-11.65-1.17-17.24-1.24-14.71-4.55-29.32-5-44-.35-12.43-2.17-24.66-3.12-37-.84-11-1.37-22.09-1.33-33s-2.21-21.93-1-33c.66-6.24-.39-12.65-.3-19,.12-7.67.94-15.34.88-23-.1-14.67-1-29.34-.77-44,.17-9.35-.16-18.67-.1-28,.08-11.84.88-23.67.86-35.5,0-11.33,1.24-22.72-.89-34-.54-2.88.72-5.66.92-8.5.38-5.48,1.64-10.77.31-16.55-1.48-6.45.79-13.24.88-19.94.13-10,1.25-19.95,1-30-.22-9.81.8-19.66,1.37-29.49.18-3.18.71-6.33,1-9.5,1.12-14.21,2-28.45,4.59-42.49a69,69,0,0,0,.91-13.51c-.17-11.32-2.79-15-15.49-18a55.62,55.62,0,0,0-17-1.49c-14.42,1.06-24.58,7.26-29.93,20a69.76,69.76,0,0,0-5.11,26c-.16,9.17-1.09,18.34-.86,27.49.5,20-.64,40-.73,60-.09,21.33-.81,42.69-2,64-.6,10.36.11,20.74-.67,31-.52,6.84-.2,13.7-1,20.55-.69,5.9.16,12,.32,18Z"/>
    <path class="contour" d="M180,240.09a50.25,50.25,0,0,0-.22-6.5c-.7-11,1.59-21.76,3-32.45,1.63-12.79,4.73-25.49,7.94-38.1a243.38,243.38,0,0,1,12.12-36.48,30.16,30.16,0,0,0,2-8c.72-5.42-2.31-9-9.95-12a73,73,0,0,0-24.28-4.45c-4.13,4.82-7.84,10-11.53,15.07-5.7,7.9-12.16,15.72-15.5,24.92-5.86,16.12-12.14,32.06-14.45,49.4-2.18,16.27-1.6,32.35-1.14,48.54H180Z"/>
    <path class="contour" d="M224.86,132.59c-1.5,6.16-2.74,12.41-4.56,18.48-2.74,9.17-3.21,18.63-4.53,28-1.39,9.81-2,19.67-3.05,29.5a245.85,245.85,0,0,0-1.21,36.27h78c1.13-1.59.87-3.7.81-5.75-.32-10.84-.39-21.69-.61-32.51-.19-9.61-.88-19.31-.09-29,.47-5.74-1.17-11.64-1.78-17.48-1-10-2-20-3-30-.55-5.2-1.56-10.25-5-14.52-2.62-3.29-6.46-3.5-10-3.9-9.68-1.1-19.44-1.45-29,1-6.66,1.71-10.24,7-13,12.93-1,2.16-2,4.33-3,6.5Z"/>
    <path class="contour" d="M426.5,171c-1.71-3.77-1.32-8.44-2.73-12.4-4.16-11.69-8.79-23.05-15.65-33.7a88.53,88.53,0,0,0-18.34-20.41l-2.38.71c-3.92,1.16-5.22,6.37-4.11,10.88,2.12,8.59,8.13,15.13,11.53,23,3.2,7.41,7.14,14.76,8.69,22.55,1.24,6.22,2.84,12.51,3.38,18.92,1,11.9,3.76,23.55,4.65,35.49a120.34,120.34,0,0,1,.12,17.5c-.11,1.43.39,2.68.14,4.52,2.37,0,4.72,0,7.06,0,5.51-.08,11-.07,16.53,0,.27-11.34.74-22.81-1.29-33.9S431.29,181.59,426.5,171Z"/>
    <path class="contour" d="M316.86,242.59c1.84.16,3.67.47,5.5.48q30.25,0,60.5,0c1.46-8.37,0-16.72-.65-25a349.15,349.15,0,0,0-5.27-40,340,340,0,0,0-14.47-52c-3.34-9-10.79-12.2-18.64-14.87a59.09,59.09,0,0,0-25.95-2.91c-8.42,1-13.76,3.84-12.61,13.83,1.05,9.14,3.81,17.91,5.13,27,2.21,15.11,4.4,30.22,5,45.51.16,4.34.74,8.68,1.17,13,.89,8.68-.57,17.34.62,26.05.57,4.16-1.12,8.63-1.79,13Z"/>
    <path class="valveInner" d="M128.36,389.09v180.5c0,6.88,0,6.61,7,7.57,8.28,1.13,16.15-.48,24-2.58,6-1.59,9.1-6.53,12.46-11,8.36-11.17,13.36-23.6,16.35-37.41a238.32,238.32,0,0,0,5.22-46.56c.3-16.84-3.76-32.94-8.06-49a163.31,163.31,0,0,0-13.94-36c-2.64-4.88-7.77-6-12.07-6.73-9.68-1.71-19.62-.64-29.46-.69-.66,0-1.33.94-2,1.44Z"/>
    <path class="valveLine fineLine" d="M435.86,383.09c7.79,3.38,13.52,9.54,18.84,15.64a93.44,93.44,0,0,1,19.11,33.87,112.91,112.91,0,0,1,4.12,21.48,289.06,289.06,0,0,1,1.37,38,162.15,162.15,0,0,1-4,31.48c-2.48,11.12-5.48,22.08-11.37,32.06-2.77,4.7-5.58,9.21-10.07,12.46"/>
    <path class="valveOuter" d="M149.86,550.09c3.39-7.12,3.95-14.93,5.54-22.49,3.66-17.36,4.26-35,3.25-52.5-1.2-21.05-3.8-42-9.24-62.52a108.74,108.74,0,0,0-12.71-29.89A30.23,30.23,0,0,0,112.87,368c-9.67-.87-19.22-2.79-29-2.51-7,.19-14,1.14-21,1.79-7.77.73-13.36,6-18.07,12.23C34.53,393.18,29,408.84,24.92,425.1c-4.53,18.09-4.08,36.53-3.12,55,.26,5.14-.43,10.33-.41,15.5.08,15.5-.55,31,.52,46.49.53,7.62,3,14.93,5.65,21.93a61.32,61.32,0,0,0,20.25,27.14c12,9.36,25.26,11.6,40.08,9.67,7-.92,14-2.28,21-3,7.77-.85,14.07-4.31,19.93-8.76,10.64-8.06,15.64-19.89,19.92-32,.7-2,3.42-3.76,1.63-6.45Z"/>
    <path class="cap" d="M30.36,441.59c-6.37,1-12.42,2.52-17.56,6.93-4.13,3.55-5.46,8.57-6.72,13.13A135.73,135.73,0,0,0,1,499.09c.11,9.7,1.6,19.32,7.81,27.53,4,5.29,15.23,10.91,24.6,8.73,12.74-3,17-12.54,20.28-22.82,3.16-9.78,5-20,4.14-30.44-.72-9-2.05-18-5.44-26.52-3.91-9.86-11-14.48-21.54-14Z"/>
    <path class="valveLine fineLine" d="M70.36,393.59c.46,3.61,4,5,5.71,7.87C84.79,415.9,89,431.59,91.48,448.07a322.86,322.86,0,0,1,3.76,34,327.34,327.34,0,0,1-.09,38,218.79,218.79,0,0,1-5.47,33.48c-1.87,8-5.56,15.61-9.32,23"/>
    <path class="capLine fineLine" d="M27.86,463.59C35.07,477,35.92,490.77,31,505.12c-1.17,3.4-1,7.33-5.09,9"/>
    <path class="valveInner" d="M376.86,318.59a209.5,209.5,0,0,0,26.51-3.48c5.67-1.13,11.49-1.55,17-3.52,14.15-5,16.73-8.25,17.57-21.5.67-10.67.16-21.34.41-32a25.68,25.68,0,0,0-.51-3.75H121.26c1.31,12.94-1.28,25.57-.32,38.24.7,9.38,5.06,13.52,15.93,16,15.54,3.52,31.11,6.95,47,8.47,12.81,1.23,25.65,2.2,38.49,3,13.49.85,27.09.65,40.48,2.21,18.7,2.19,37.39,1,56,.55,17.32-.43,34.73-1.09,52-3.24,1.85-.23,3.67-.65,5.5-1Z"/>
    <path class="valveOuter" d="M230.36,231.59c-3,.94-6.16.37-9-.17-7.64-1.45-15.37-.62-23-1.69-16.24-2.26-32.52-4.12-48.5-8-8.42-2.08-16.93-3.8-24.94-7.18-2.27-1-3.79.11-5,1.17-2.4,2.17-3.21,5.23-4.25,8.36-4.27,13-2.43,25.48,1.6,38.08,2,6.18,6.43,8.65,12,10.55,10.81,3.64,22,6,33.08,8.1s22.18,3.57,33.42,4.58c14.83,1.35,29.79,1.49,44.51,3.85,8.16,1.31,16.35,1.06,24.52,1.8,18.47,1.68,37,0,55.49-.1,13.16-.1,26.35-1.55,39.52-2.6,9-.72,18-.88,27-1.85,14.75-1.6,29.47-3.39,44.07-6.6,14.87-3.27,18.92-13.88,20.22-26.28,1.09-10.39.69-21-3.73-31-2.42-5.47-5.11-6.35-11.07-5.11-10.82,2.25-21.5,5.07-32.4,7-11.19,2-22.43,2.45-33.57,4.13-9.79,1.48-19.69,1.63-29.49,2.67-13.34,1.42-26.68,1.22-40,1.75-13.16.51-26.34,1.09-39.5.91a189.14,189.14,0,0,1-30.5-2.37Z"/>
    <path class="valveInner" d="M180.36,864.59c-10.33-3-20.69-5.92-31-9a149.67,149.67,0,0,1-22-8.47c-2.24-1.09-4.39-2.45-7.16-2.54-8.43,9.15-14.71,19.28-17.11,32a105,105,0,0,0-1.71,18.55c-.08,10,0,20,0,30,0,1.15-.55,2.45.66,3.75H446a9.66,9.66,0,0,0,.38-1.75c0-14.84.45-29.69-.15-44.5a79.59,79.59,0,0,0-6.14-27.08c-3.15-7.68-9.34-11.11-15.66-15-2.33-1.43-3.33-.54-5.1,1-11.15,9.63-24.85,14.15-38.38,19.21-11.25,4.21-23,5.85-34.6,8.15-8.79,1.73-18,1.46-27,2.23-14.48,1.23-29,1-43.51,2.32-7.92.71-16-.34-24-.31-14.84,0-29.38-2.33-44-4.28-9-1.2-17.68-4.89-27-4.25Z"/>
    <path class="valveOuter" d="M100.86,890.09c-7.93,4.58-12.65,12-15.86,20-3.85,9.7-5.65,20-6.85,30.42a100.55,100.55,0,0,0,.67,28.53,9.48,9.48,0,0,1-.46,3c1,1.68,2.64,1,4,1q191.76,0,383.5.11c4,0,5.15-1.08,5.09-5.08-.2-15.05,0-30.15-2.72-45-2-10.64-6-20.66-13.28-29.1a39.55,39.55,0,0,0-5.61-4.89c-2.3-1.84-4.57-1.72-7.53-.68-7.85,2.77-16.1,4.39-23.91,7.24-13,4.74-26.73,5.59-40.1,8.05-10.65,2-21.6,3.17-32.39,4.67-7.32,1-14.79,1.8-22.09,3.49-4.95,1.15-10.34.83-15.46.94-9.35.2-18.65,1.63-28,1.21-10.87-.5-21.66,1.5-32.5,1-16-.74-32-1.92-48-3.83-14.26-1.7-28.61-2.94-42.45-6.74-16.53-4.54-33.44-7.22-50-11.39a13.49,13.49,0,0,1-5.51-2.48Z"/>
</svg>
