<svg viewBox="0 0 258.73 200.74">
  <path class="stoneMedium" d="M240.84,161.6q-.37-64.8,2-129.57l-14.32-4.67c-19.44-.16-39.26-.3-57.62-7.23-13.35-5-27.37-8.16-41.52-8.16s-28.18,3.12-41.53,8.16c-18.35,6.93-38.18,7.07-57.62,7.23L15.91,32q2.39,64.76,2,129.57L2.42,168.31h253.9Z"/>
  <g class="stoneDark">
    <path d="M2.42,168.31q-.19,16-.53,31.93h255q-.35-16-.53-31.93Q129.36,168.28,2.42,168.31Z"/>
    <path d="M17.86,165.84Q18.34,98.93,15.91,32c22.23-.22,44.9-.26,65.93-8.41,15.32-5.79,31.1-9.34,47.53-9.39,16.42.13,32.2,3.6,47.53,9.39,21,8.15,43.69,8.19,65.93,8.41q-2.47,66.87-2,133.81Q129.37,165.77,17.86,165.84Z"/>
  </g>
  <g class="rockMediumDark">
    <path d="M60,17.4c6.65,2.58.58,8.91-3.17,10.53-6,1.94-11.51,1.78-17.61.57-3.34-.73-3.6-4.82-2.3-7.33a15,15,0,0,1,9-5.87C51.1,14.1,55.22,15.27,60,17.4Z"/>
    <path d="M189.64,26.14c-3.87-.78-3.28-5.11-.93-7.1,3.7-3.25,8.95-.72,12.21,1.77,2.61,2.2.63,6-2.3,6.38A31.91,31.91,0,0,1,189.64,26.14Z"/>
    <path d="M142.13,7.35c.47,3-2.41,5-5,5.56a64.88,64.88,0,0,1-7.38-.1c-3-.34-4.91-3.6-4.43-6.37,1.55-2.95,5.26-4.23,8.45-3.58C136.84,3.28,140.57,4.41,142.13,7.35Z"/>
  </g>
  <g class="rockMedium">
    <path d="M115.11,1.39c4.14-2.07,9.25-.34,12,3.2,2.72,3.08-1.32,6.36-3.78,7.76-3.76,1.61-8.81,2.36-12.76,1-2.35-.83-4.75-2.2-5.67-4.66-.13-2.32,1.77-4.06,3.86-4.65A25.45,25.45,0,0,0,115.11,1.39Z"/>
    <path d="M35.12,30c3.48.09,6-4.37,4.62-7.38a6.27,6.27,0,0,0-5.9-3.52,46,46,0,0,0-5.38.24c-3.42.6-8.18,2.42-9.07,6.24-1,4.85,5.27,5.79,8.63,5.05A25.68,25.68,0,0,1,35.12,30Z"/>
  </g>
  <g class="rockMediumLight">
    <path d="M224.55,16.68c-3.3-1-6.65-1.62-10-2.37-4.18-1-10.25-2-12.79,2.54-1.33,2.71-3.52,7.82-.17,10.08,2.37,1.44,5.2,1.26,7.84,1.7a34.33,34.33,0,0,0,14.69.31C231.28,27.54,230.54,19.11,224.55,16.68Z"/>
    <path d="M51.65,21.65c5.83,1.46.44,6.77-2.46,7.82A28.78,28.78,0,0,1,39.4,30c-3.07-.68-5.18-5.15-1.47-6.72A17.48,17.48,0,0,1,51.65,21.65Z"/>
  </g>
  <g class="stoneEdgeLine">
    <path d="M36.31,22c-3.66,1.29-7.47,2.06-11,3.6-1.2-.2-2.59-1.21-3.44-1.32"/>
    <path d="M23.43,28.33a8.61,8.61,0,0,0,1.84-2.72"/>
    <path d="M121.47,4.39c-2.51,1.2-5.25,1.81-7.66,3.22-2.24-.2-3.43-1.29-4.89-1.26"/>
    <path d="M113.09,10.68c0-1.09.57-1.83.72-3.07"/>
    <path d="M137.92,6.43a37.63,37.63,0,0,1-5.1.09c.15,1.13-.4,2-.3,3"/>
    <path d="M129.85,5c1,.09,1.78,1.13,3,1.57"/>
    <path d="M204.51,16.89c5.83.34,10.41,2.7,15.65,5.05,1.24-.72,3.12-.57,4.65-.9"/>
    <path d="M218.74,24.91c.09-1.05,1.42-1.45,1.42-3"/>
  </g>
</svg>
