<svg viewBox="0 0 238.36 434.73">
  <rect class="steelDark" x="13.39" y="80.57" width="211.95" height="353.67"/>
  <g class="porcelainDarkest">
    <path d="M227.3,147.37c-15.49-5.33-200.76-5.13-215.9,0-13.8,4.68-15.08,255.93-.49,262.72,25.39,11.83,190,12.82,214.66.74C240.92,403.31,242.33,152.55,227.3,147.37Z"/>
    <path d="M224.84,132.09c-15.5,5.33-195.84,5.13-211,0C.07,127.41,1.25,16.64,15.84,9.85,41.22-2,196-3,220.65,9.11,236,16.63,239.87,126.91,224.84,132.09Z"/>
  </g>
  <g class="mapleDark">
    <path d="M34.75,111.29c-2.39,1-8.24,1.21-12.77.92-2.86-11.9-2.86-58.19,0-70.09,4.53-.3,10.38-.08,12.77.91C32.06,50.28,32.06,104.05,34.75,111.29Z"/>
    <path d="M34.75,169.47c-2.39-1-8.24-1.22-12.77-.92-2.86,11.9-2.86,58.19,0,70.09,4.53.3,10.38.07,12.77-.92C32.06,230.48,32.06,176.71,34.75,169.47Z"/>
  </g>
  <g class="brassDark">
    <path d="M22,42.12c.91-6.22,2.19-11.72,4-15.27,1.24-2,10.06-1.79,11.34,0s1.48,9.86.74,11.83a5.92,5.92,0,0,0-3.22,4.14c0,.07,0,.14,0,.21C32.36,42,26.51,41.82,22,42.12Z"/>
    <path d="M22,112.21c.91,6.21,2.19,11.71,4,15.26,1.24,2,10.06,1.8,11.34,0s1.48-9.86.74-11.83a5.9,5.9,0,0,1-3.22-4.14c0-.07,0-.14,0-.21C32.36,112.28,26.51,112.5,22,112.21Z"/>
    <path d="M22,238.64c.91,6.22,2.19,11.71,4,15.26,1.24,2,10.06,1.8,11.34,0s1.48-9.85.74-11.83a5.9,5.9,0,0,1-3.22-4.14c0-.06,0-.14,0-.21C32.36,238.71,26.51,238.94,22,238.64Z"/>
    <path d="M22,168.55c.91-6.22,2.19-11.71,4-15.27,1.24-2,10.06-1.79,11.34,0s1.48,9.86.74,11.83a5.94,5.94,0,0,0-3.22,4.15c0,.06,0,.14,0,.21C32.36,168.48,26.51,168.25,22,168.55Z"/>
  </g>
</svg>
