<svg id="howieFridge" 
    xmlns="http://www.w3.org/2000/svg" viewBox="0 0 952.65 1762.59">
    <path class="base" d="M53.47,1654.34c-.73,13,1.42,26,.13,39-.61,6.25.36,12.65.33,19-.06,14.5-.16,29-.62,43.5a20.87,20.87,0,0,0,.71,5.75H912c-.27-5.75.59-11.28-.67-16.72a14,14,0,0,1-.35-3c-.38-20.33-.36-40.68-1.2-61-.34-8.21.62-16.34.47-24H54.47Z"/>
    <path class="base" d="M890,574.84H52c-1.32-16-.91-31.49-1.12-47,0-3.23.85-4.55,4.08-4a9.38,9.38,0,0,0,1.5,0H887c2,0,4-.21,5.57.39q-.79,27.13-1.57,54.1Z"/>
    <path class="door" d="M807.47,554.34a5.84,5.84,0,0,0,4,2.06c15.16,1.63,30.39,2.15,45.53,4.27,13.71,1.92,27.21,3.89,40,9.6,13.64,6.07,23.19,16.55,30.79,28.68,6.1,9.73,9,20.71,11.14,32.31,2.39,13.18,2.85,26.46,4.15,39.62,1.19,11.89,2.4,23.91,2.62,36,.08,4.48-.31,9,.08,13.52,1.26,14.62,2.54,29.29,2.1,44-.21,7.18.52,14.31.31,21.51-.33,11.81,1,23.66,1.22,35.5.36,19.83.72,39.67.46,59.49-.23,17.54,1.9,35,1.64,52.5-.22,14.5-.06,29,0,43.5,0,15.84-.86,31.66-.11,47.51.54,11.31.17,22.66.09,34-.09,13.34-1.5,26.65-1,40,.08,2.17.62,4.36.44,6.5-1.5,18.14-1.28,36.33-1.52,54.5-.14,10.67-1.17,21.33-1.36,32-.13,8.18-.78,16.34-.94,24.5-.14,7.32,1.14,14.65,1.3,22,.25,11.32.14,22.66,0,34,0,3-1.35,6.15-.8,9,1,5.4.52,10.93,0,16-1.12,10.7-.45,21.38-1,32-.82,17.8.24,35.67-.68,53.49a7.74,7.74,0,0,0,0,2.5c2.06,7.09,1.06,14.41.73,21.49-.46,10,0,20-1.05,30-1.23,11.9-.24,24-1,36-1,15.8-.94,31.66-2,47.5-.73,11-1.82,22-2.42,33-.62,11.37-2.49,22.67-3.85,34-1.31,11-3,22-3.86,33a94.29,94.29,0,0,1-2.79,15.45c-1.93,7.71-2.39,16-6.42,23-5.06,8.8-10.77,17.15-19.4,23.08-10.34,7.11-21.43,12.08-34,13.49-9.35,1-18.64,2.62-28,3.39-9.84.81-19.57,2.53-29.49,2.69s-20,1.25-30,1.89c-14.51.93-29,2.75-43.5,3-2.67,0-5.38-.29-8,.05-16.6,2.19-33.35,1.78-50,2.82-11,.69-22,.2-33,.12-12.84-.1-25.68-.66-38.5-.33-5.86.15-11.67-1.61-17.5-.15-3.8.94-7.67.44-11.5.47-9.67.08-19.34-.09-29,.07-5.84.09-11.71,1.23-17.49.82-9.54-.69-19,.45-28.51.07-8.53-.34-17,1-25.51.79-17.48-.41-35,.47-52.49.75-2.67,0-5.36-.6-8-.43-13,.89-26.08-1.07-39-.66-15.27.48-30.33-1.75-45.51-1.37-3.17.08-6.37.69-9.5.42-13.48-1.18-27-.46-40.52-1.17-22-1.16-44-1.16-66-3.23-14-1.32-28-1.09-42-1.81-17.35-.9-34.69-1.69-52-3.16-5.81-.5-11.74-.84-17.45-1.45a92.07,92.07,0,0,1-26-7.14c-9.55-4.07-18.57-9.18-25.41-17.06a90.86,90.86,0,0,1-15-23.75,136.46,136.46,0,0,1-7.47-24.2,138.06,138.06,0,0,1-3.74-30c-.07-10.5-.8-21-1.44-31.49-.49-8-1.66-16-1.87-24-.24-9-1.56-18-2.07-27-.75-13.35-1.18-26.7-2.86-40a196.56,196.56,0,0,1-1.95-21.48c-.11-7.54-1.06-15-1.33-22.49-.39-11-1.39-22-2.45-33-.49-5,.29-10-.05-15-1-14.19-2.75-28.32-3.82-42.51-.95-12.48-1.39-25-2.07-37.5-.61-11.32-.79-22.64-.8-34s.92-22.74-1.2-34c-1.27-6.68.45-13.37-.07-20-1-12.33-1.77-24.66-2.55-37-.32-5.09.39-10,.51-15,.15-6.49-.8-13-.83-19.5,0-10.5-1.33-21-.06-31.5.24-2,1-4.2.39-6-1.77-5.46-.65-11.05-1.23-16.55-.65-6.26-.2-12.69-.4-19-.33-10.66-.82-21.39-.89-32-.1-14.15-.68-28.32-.46-42.5.16-10.16-.57-20.33-.9-30.5-.17-5-.55-10-.46-15,.16-8.34,1.19-16.7.84-25-.73-17.34.11-34.67-.34-52-.11-4,.32-8,.45-12,.19-6.16.09-12.32.39-18.5.57-11.84,2.08-23.72,1.82-35.49a357.84,357.84,0,0,1,1.55-41.48c2.07-22.17,1.48-44.37,2.8-66.52.71-11.85,1.83-23.68,3-35.5.77-7.86,1-16,3.19-23.44,3.19-10.9,3.74-22.22,7-33.14C26.12,591.62,29.8,577,44,568.38c9.1-5.52,18.33-10.53,29.47-11.17,9.34-.54,18.68-1,28-.78,15.89.29,31.59-2.6,47.5-2.29,5.25.1,10.94.3,16-2.3,0,0,2.78-.48.56-1.61a11.37,11.37,0,0,0-5.06-.88c-10.5-.51-21-.77-31.5-1.56-13.71-1-27.3-3.23-41-4.65-12.25-1.28-24.71-1.95-36.54-6.24-10-3.61-18.63-8.61-23.48-18.56a80,80,0,0,1-6.38-19.42c-2-9.68-2.55-19.37-3.62-29.08-.17-1.5-.69-3.06-.44-4.49,1.47-8.55-.82-17-1.12-25.49a279.62,279.62,0,0,0-4.12-37c-.77-4.52.24-8.73,0-13-1-20.83-2.2-41.65-1.8-62.5.11-5.89-.93-11.67-1-17.51-.09-7,.05-14,.54-21,.22-3.26-2.48-6-1.53-9,2.41-7.77.66-15.7,1.27-23.54,1.27-16.62-1.28-33.32.59-50,1.08-9.62.64-19.35,1.22-29,.94-15.86,3.17-31.65,4.25-47.51a155.52,155.52,0,0,1,9.28-44.43c2.06-5.47,2.41-11.39,5.29-16.58C37.8,55.53,46.86,43.71,59,34.33,67.54,27.67,76.81,22.11,87.49,20c11.38-2.27,23-3.53,34.48-5.11,7-1,14.08-2.8,21-2.27,10.21.79,20.36-.44,30.53-.26,5.94.1,12.48-.66,18.48-.62,17.73.12,35.27-2.45,53-2.15,13,.21,26-.82,39-1.49,17.16-.88,34.25-3,51.49-2.85,11.65.09,23.31-.91,35-1.05,15-.18,30-1.7,45-1.23,12.37.38,24.65-.92,37-.91,11.46,0,23-1.09,34.5-1,18.33.08,36.66,1.23,55,1.83,14.5.47,29,0,43.52,1.19,11,.93,22.3.28,33.48.58,23.38.61,46.66,2.63,70,3.71,11.32.53,22.67.63,34,1.06,6.33.25,12.76.25,19,.82,8.83.81,17.68,2.45,26.53,3.6,6.13.79,12.38.71,18.48,1.64,8.89,1.34,17.7,3.17,26.51,4.93,14.84,3,30.18,3.4,44.52,9,9.9,3.84,20.22,5.94,29.68,11.71,15.36,9.38,25.76,21.76,30.78,38.82a207.52,207.52,0,0,1,7.07,34.49c.75,6.49,1.3,13,1.6,19.5.72,15.68,2.23,31.34,3.34,47,.5,7,.46,14,.7,21,.33,9.5,1.12,19,2,28.53.81,8.74,1,17.65,1.47,26.47.72,13.33,0,26.74,1.88,40,1.21,8.65.27,17.39,1.1,26a371.29,371.29,0,0,1,1.35,38c-.1,21.88-2,43.67-3.06,65.5-.77,15-1.59,30.1-4,45a177.26,177.26,0,0,1-4.55,22c-3.71,12.53-10.81,23.23-19.36,33.06s-19.92,14.21-32,17.52a176.83,176.83,0,0,1-29,5.47c-6,.6-12,1.32-18,2s-12.59,0-18.43,1.34S807.47,554.34,807.47,554.34Z"/>
    <path class="brass" d="M824,924.34c13.16,1.14,26.33.14,40.34.65,1.84,1.39,1.69,4.63,2.05,7.37a77.6,77.6,0,0,1-1.49,26c-1.55,7.43-3,15.11-6.13,21.92-4.24,9.2-8.1,18.83-15.73,26.15-4.36,4.17-9.86,3.92-15,4.33a57.28,57.28,0,0,1-19-1.31c-5.61-1.46-7.29-2.53-7.9-9.07-1.32-14.33-.86-28.58,3.41-42.5a12.81,12.81,0,0,1,5.93-7.62c6.51-4,8.16-11.26,10.54-17.89.88-2.42,1.37-5,2-7.49Z"/>
    <path class="brass" d="M854,114.34c4.24.7,5.66,2.94,6.79,7.43,2.69,10.66,5.48,21.29,7.73,32.07,2.6,12.38,4.82,24.78,4.44,37.61-1.46.13-3,.37-4.46.38-15.34,0-30.67-.08-46,.09-3.51,0-5.05-1-5.57-4.57-1-6.66-.74-13.51-2.91-20a41.69,41.69,0,0,0-2.87-7.08c-2.09-3.76-.89-8.32-.94-12.42a154.69,154.69,0,0,1,2.15-29c.8-4.6,3.58-5.54,7.14-5.95,11.44-1.31,22.75-.1,34,2Z"/>
    <path class="brass" d="M869.47,476.84H822.05c-.84,3.6-1.54,7.35-2.63,11-1.18,3.95-2,8.23-5.48,11-4.89,3.91-6.11,9.59-6.29,15-.35,10.31-1.88,20.69.81,31.62,6,.34,12.28,2,19.06.08,3.91-1.12,8.29-.6,12.48-1.58,7.91-1.84,12.87-7.22,17.43-13.16,5.73-7.47,8.19-16.3,9.5-25.47a28.13,28.13,0,0,1,1.75-6.41c3-7.17,1.72-14.35,1.29-21.59Z"/>
    <path class="brass" d="M814,561.84c-5.32.94-6.87,4.24-7.7,9.47-1.92,12-2.25,24-2.35,36,0,2,0,4.08,1.12,5.44,6.15,7.55,7.94,17.06,11.81,25.62,1.14,2.51,2.64,2.45,4.62,2.45H857c6,0,7-.92,8-7,1.38-8.57-.49-16.77-2.48-25-1.67-7-2.94-14-4.56-21-1.34-5.72-3.7-11.1-6-16.51-1.77-4.22-5.52-5.68-9.51-6.45A135.06,135.06,0,0,0,818,562.32a26.05,26.05,0,0,1-3.5-.48Z"/>
    <path class="doorLine fineLine" d="M807.47,554.84c-5.5-.71-37.48-1.54-43-1.07-6,.52-12-.44-18-.08-10.8.64-21.66.21-32.5.52-10.31.29-20.66-.67-31-.83-13.5-.21-27,.34-40.51-.28-5.2-.23-10.74,1.35-16,.59-7.53-1.1-15-.28-22.53-.55-6.07-.21-12.31.73-18.49.68-3.67,0-7.33-.37-11-.47-13.84-.36-27.67-.91-41.5-1-19-.06-38,.75-57,.29-14-.35-28,.57-42,.22-13.16-.32-26.35.32-39.5-.17-14.17-.53-28.35-.68-42.5-.27-19.67.58-39.34.54-59,.21-12.53-.21-25.05.92-37.49.41-15.52-.63-31,.68-46.54-.37-10.18-.68-20.65-1.75-31,0-2.56.44-9.82-.74-12.48-.91"/>
    <path class="handle" d="M818,935.84a26.13,26.13,0,0,0,13,2.39,181.56,181.56,0,0,1,22-.24c4.31.2,8.25-1.64,12.52-1.24,1.4.13,1.56-1.61,2.07-2.87,2.54-6.29,3-13,3.8-19.55,1.72-14.45,2.88-29,4.07-43.49.51-6.2-1.87-12.18-1.56-18.5,1.2-24.5-1.41-49-.27-73.49.46-9.89-1-19.67-.61-29.51.29-8,1-16,.91-24-.23-15.18-.5-30.37-1.62-45.49a181,181,0,0,0-2.56-20.06c-.9-4.81-.57-10-1.14-15-.34-3-1.4-5.85-1.2-9,.28-4.15-2.82-4.2-5.9-4-8.83.54-17.69,1.58-26.5,1.34-7.32-.2-14.71.46-22.59-1.91a168.29,168.29,0,0,1,3.16,33.08c0,9.84-.27,19.8,1.15,29.47a246.09,246.09,0,0,1,2.08,36.53c0,16.35.93,32.66.83,49a164.32,164.32,0,0,0,1.06,23c2.84,21-.48,42,.9,63,1,15.88-1.38,31.64-.93,47.51.14,4.92-1.22,10.41-2.63,15.5-.68,2.45-1,5-1.53,7.49Z"/>
    <path class="handle" d="M875,252.34c.16,14.34-.5,28.74.75,43,1.09,12.37.73,24.71,1,37,.58,23.65.32,47.34-.44,71-.47,14.67-.87,29.34-1.4,44-.39,10.85-1.16,21.68-2,32.5-.35,4.55-3,5.94-9.44,6-8.84.11-17.67.49-26.5.43-6.55-.05-12.8-2-19.46-3.4,3.85-8.72,3.45-17.53,4.32-26.06,1.86-18.26,1.72-36.65,2.09-55,.37-17.83.13-35.67.65-53.49a182,182,0,0,0-1-27.52c-.66-5.4.52-11,.28-16.48-.83-19.18-1.33-38.4-3.16-57.48-1.09-11.35-2-22.7-2-34,0-7.5-.56-15-.32-22.5.09-2.62.56-3.64,3.54-4.13,9.32-1.52,18.71-.46,28-1.29,6.14-.55,12.34-.27,18.49-.63,3.85-.22,4.8,1.47,5.1,5.05,1,11.17.24,22.34.44,33.5.16,9,.64,18,1,27,0,.68.34,1.5-.48,2Z"/>
</svg>
