<svg id="odinTaiwanStairs" 
    xmlns="http://www.w3.org/2000/svg" viewBox="0 0 612.12 1150.26">
    <path class="fur" d="M4.32,528.2c-4.91,6-3.21,13.25-2.16,19.44,1.73,10.05,5.57,19.75,8.72,29.53.74,2.31,2.48,4.27,3.41,6.54C20.07,598,30.94,608.5,40.13,620.35a132.39,132.39,0,0,1,17.23,28.83c2.8,6.51,4.66,13.31,8.22,19.65a91.74,91.74,0,0,0,19.36,23.73c4,3.53,7.52,7.55,11.31,10.1.53,9-.77,17.46-.06,26.05.91,10.94,2,21.95,5,32.39,2.29,8.16,3.82,16.48,6,24.64,2.37,8.89,4.63,17.78,7.72,26.44a137,137,0,0,0,6,15c4.26,8.65,6,18.1,9.28,27.09,5.7,15.86,9.45,32.35,15.9,48,3.43,8.34,6.79,16.83,9.66,25.42,5.64,16.9,10.73,34,16.1,51,2.76,8.75,6.77,17,9.06,26,3.66,14.29,7.29,28.59,10.63,43,1.59,6.84,3.41,13.66,4.7,20.56.54,2.85.44,5.23-3.82,6.71-11.69,4.08-16.92,14.16-20,25.31a87,87,0,0,0-2.53,17,26.18,26.18,0,0,0,7.4,20.5c4.94,5.21,10.9,8,18,9.69,7.53,1.79,15,1.79,22.55,1.8,16.33,0,32.67-.14,49,.07,6.84.09,12.21-3.38,18-6a19.56,19.56,0,0,0,10.64-11.65c2.18-7.08,6.41-13.2,7.6-20.85,2.76-17.74,1.69-35.4.48-53-.46-6.66.06-13.4-1.22-20-.6-3.14,1.78-6.33-.34-9.54,6-2.88,12.67-2.19,18.38-5.35,4.91-2.72,9.68-5.66,14.4-8.67,3.5-2.23,4.44-6.3,6.15-9.88,2.86-6,5.63-11.86,5.84-18.56.11-3.15,2.53-4.24,4.58-4.89,12.56-4,23.37-11.22,33.85-18.77,5.67-4.08,10.34-9.68,14.58-15.37,5.37-7.21,10.74-14.28,14.35-22.84,3.06-7.26,4.35-14.7,5.53-22.15,2.07-13.08,3.09-26.32,4.69-39.47.85-7,2.15-14,2.87-21,.23-2.29,1.36-4,2.2-6.18,5.12,2.23,10.14,4.82,15.43,6.62A87.08,87.08,0,0,0,476.31,846c3-.12,6.16-.75,9-.2,6.31,1.23,12.38-.61,18.52-.89a82.32,82.32,0,0,0,27.87-6.58c11.07-4.67,21-11.77,26.17-23.66s10.26-23.92,13.36-36.54,8.57-24.17,12-36.49q6.16-21.88,11.83-43.92c1.76-6.86,4.56-13.56,6.26-20.56,4-16.53,9-33,9.71-50,.41-9.94-1.56-20-2.81-30-.76-6-3.09-11.71-4.83-17.53-3.54-11.84-7.11-23.7-12.21-34.92-5.64-12.4-8.82-25.5-11.56-38.62-1-4.89-1.16-10.28-1.68-15.45-1-10.12-2.11-20.38-1.42-30.47,1-14.84,1.5-29.69,1.56-44.52,0-14,.46-28,.43-42,0-5.93.16-12.11-.88-18-1.41-8-.07-16-.69-24-1.36-17.69-2.62-35.38-7.71-52.47-6.26-21-16.54-40-28.93-58-9.08-13.16-20-24.43-32.32-34.73-7.52-6.29-16-11.56-22.6-18.84a25.9,25.9,0,0,1-6.4-22.89,96.73,96.73,0,0,1,13.66-34.13c5.7-8.72,13.25-15.42,20.63-22.43,2.16-2,4-1.56,6.56-.57a193.59,193.59,0,0,0,19.48,6.53c15.81,4.23,35-4.11,41.49-18.43,4.81-10.71,4.28-21.57,1-32.5-5.45-18.11-18.24-29.7-35.08-36.27a84.09,84.09,0,0,0-46.84-4.4,106,106,0,0,0-34.13,13.06,138.35,138.35,0,0,0-38.17,33.82c-10.74,13.78-22.3,27-31.95,41.67a562.65,562.65,0,0,0-29.74,51.16c-6.24,12.12-16,20.79-26,29.49-13.57,11.82-28.45,21.76-43.48,31.54-4.65,3-8.67,7-13.06,10.41a145.43,145.43,0,0,0-28.9,29.58c-10,13.9-19.5,28.11-28.13,42.91-6,10.28-12.86,20.07-18.29,30.61-5,9.6-8.81,19.8-12.55,30-2.17,5.86-5.52,11.07-7.86,16.86-3.58,8.86-6.94,17.83-10.74,26.6-7.36,17-13.36,34.54-19.4,52-3.58,10.34-8.2,20.44-9.56,31.46a3.79,3.79,0,0,1-2.1,2.93c-13.19,7.64-23.44,19-35.42,28.12-3.67,2.82-7.87,4.92-11.08,8.41-2.56,2.8-6.42,2.8-9.41,1.88-8.24-2.54-16.85-2.84-25-2.49-13.76.58-27.81.6-41.06,6-6.31,2.59-13.29,3.58-18.45,8.62Z"/>
    <path class="furLine fineLine" d="M521.32,578.7c-.54,13.95-4.28,27-9.33,40.06-5.52,14.24-12.69,27.7-18.38,41.85-1.51,3.74-4.19,7.22-5.75,11.1-3.28,8.1-6.72,16.12-10.51,24-4.13,8.6-7.93,17.37-12.05,26-12.56,26.22-24.51,52.63-30.13,81.48-1.41,7.21-4.18,14.16-5.6,21.48-.58,3-.09,6.15-1.25,9.05"/>
    <path class="furLine fineLine" d="M150.32,475.2c4.42-5.38,10.52-8.44,16.56-11.38a7.69,7.69,0,0,0,4.52-5.1c2.73-8.49,7.63-16,11.48-24,3.37-7,7.18-13.76,11-20.52a126,126,0,0,1,20-26.51,55.44,55.44,0,0,1,11.48-8.52c5.35-3.22,9.63-1.93,13,1,6,5.17,9.39,11.95,12.54,19,2.13,4.76,5.06,9.19,6.84,14.06a152.56,152.56,0,0,1,4.6,17c3.15,13.16,7.88,24.62,19.77,33.34a333,333,0,0,1,35.85,30.06c11.87,11.61,19.8,25.71,27.3,40.15,2.49,4.78,2.9,10.39,4.95,15.5a305.77,305.77,0,0,0,20.55,42.5c4,6.71,8.35,13.38,10.52,21,2.05,7.19,2,14.35,1.11,22-.81,6.67-1.71,13-4.64,18.88-4.46,8.89-8.6,17.83-15.14,25.76-7.71,9.33-15.25,18.72-24.31,26.73-6.46,5.73-14.44,9.17-22.48,11.94s-16.4,4.13-24.44,6.69c-16.06,5.13-31.17,12.5-46,20.38-5.39,2.85-11.64,3-17.48,4.5s-11.88,1.54-18,1.21c-6.82-.38-13.37-2-20-3.25a229.43,229.43,0,0,1-25-6c-6-1.86-11.59-4.8-17.52-6.92-8.87-3.17-17.77-6.83-25.34-12.19-8.33-5.9-18-10.53-23.68-19.75"/>
    <path class="furLine fineLine" d="M301.82,1027.2c-3,.86-5.75,2.15-9,2-8.17-.24-16.4.69-24.49-.63-11.71-1.92-23.4-4.3-30-15.94a40.35,40.35,0,0,1-4.09-12.47,70.26,70.26,0,0,1-1.32-20,124.78,124.78,0,0,1,6.38-27.76l1-1.25c2.33-3.85,1.91-8.36,2.93-12.52,3.19-13,10.79-24,16.11-36a7,7,0,0,1,2.49-3c4.1-2.55,7.08-6.27,10.44-9.59a18.38,18.38,0,0,1,5-3.47,70.28,70.28,0,0,1,32-7.47c1.83,0,3.7.63,5.49.42,8.28-1,16.5-.88,24.48,1.64a26.61,26.61,0,0,0,7.53.92"/>
    <path class="furLine fineLine" d="M260.82,1079.2c-5.65-.38-10.67-3.11-15.92-4.75-7.33-2.31-14.68-2.35-22.08-2.72-9.1-.45-18.15,0-27,2.47"/>
    <path class="furLine fineLine" d="M351.32,953.7c-.75,10.07-1.48,20.15-4,30"/>
    <path class="furLine fineLine" d="M517.32,773.2c-18.67-7.85-37.61-10.69-57.56-4.7-5.73,1.72-10.88,5.09-16.94,5.7"/>
    <path class="furLine fineLine" d="M277.82,834.2c-3.1,1.18-1.67,4.22-1.79,6-.68,9.82-1.3,19.65.64,29.51.95,4.83-.94,10,.15,15"/>
</svg>
