<svg id="odinMat" 
    xmlns="http://www.w3.org/2000/svg" viewBox="0 0 959.71 434.95">
    <defs>
        <style>
      .cls-1 {
        fill: #f7931e;
      }

      .cls-1, .cls-2 {
        stroke: #000;
        stroke-linecap: round;
        stroke-linejoin: round;
        stroke-width: 2px;
      }

      .cls-2 {
        fill: none;
      }
        </style>
    </defs>
    <title>odinMat</title>
    <path class="cls-1" d="M667.71,90.42c5.06-6.87,9.31-14.43,15.95-20a15,15,0,0,0,4-6A193.11,193.11,0,0,1,700.8,39.66c4.64-7.54,8.17-15.93,14-22.7S727.07,4.32,736.09,1.73c4.22-1.21,7.74-1.07,11,1.65a26.73,26.73,0,0,1,8.41,13.51c3.19,11.34,7.3,22.35,11.16,33.45C770.32,60.81,774,71.25,775.21,82c2.16.78,4.32,1.47,6.41,2.35,7,2.94,13.39,7.3,20.12,10.75,21.1,10.84,38.69,25.17,50.9,45.72,1.6,2.68,4.13,6,6.91,5.23,4.38-1.22,8.69-1.42,13.08-1.71,12.83-.86,25.65-2,38.5-2.43,12.19-.43,24.35.95,36.49,1.95,4.9.4,8.17,4,10.1,8.93,2.32,5.92.15,11.24-2.26,16a120.87,120.87,0,0,1-29.88,38c-4.43,3.73-8.43,7.93-12.81,11.72-3.4,2.95-3.38,8.35-5.63,12.34-.74,1.29-1.27,2.7-2,4-4.07,6.89-8,13.85-12.3,20.62-5.68,8.92-11.27,17.72-18.55,25.52-5,5.34-9.52,11.06-15,16-3.62,3.24-6.45,7.25-11.05,9.49-2.14,1-3.63,3.33-5.58,4.86s-4.85,1.55-5.57,4.39a3.81,3.81,0,0,0,2.07,1.2c13.34,4.46,25.43,10.85,33.5,23,5.44,8.16,8.68,16.93,6.53,27a35.43,35.43,0,0,1-12.68,20.28c-13.06,10.38-28.64,14.82-45.31,13.58-9.79-.74-19.36.44-29,1.13-10.63.76-21.45,2.19-31.44-2.62-6.34-3.05-12.89-6.44-15.56-13.87v2.5c-2.28,2.58-5.56,2.52-8.51,2.93-10,1.41-19.86,3.52-30,3.59-13.34.09-26.72,1.1-40,.22-9.65-.64-19.43-.85-29-2.7-8.8-1.69-17.81-2.13-26.5-4.5-1.2-.33-2.11.09-3.08,1.4-6,8.14-14.45,12.61-23.85,16.24-13.52,5.22-27.46,8.32-41.5,11.59-10,2.32-20.16,2.84-30.07,5.21-14.95,3.58-30.32,3.18-45.46,4.83-11.33,1.23-22.79,1.59-34,3.69a11.82,11.82,0,0,1-2.5.47c-10.86-.37-21.64,1.13-32.5,1.18-16.51.09-33,1.78-49.5,1.63-10.18-.1-20.34.53-30.5.22-19.37-.58-38.7-1.44-58-3.25-12.14-1.14-24.34-2-36.47-3.3-14.69-1.62-29.46-3-44-5.61-19.13-3.51-38-8.35-57-12.26-7.85-1.61-15.8-2.83-23.46-5.16-8.11-2.47-16.06-5.49-24-8.44A199.43,199.43,0,0,1,28.67,371.3c-7.34-5.22-14.71-10.84-18.88-19-2.92-5.72-5.57-11.75-6.21-18.42-.92-9.66-2.9-19.19-2.54-29,.34-9,2.68-17.47,5.06-26,3.15-11.32,9.36-21.38,13.1-32.47,1.45-4.28,2.28-8.68,3.47-13,4.11-14.86,10.79-28.65,17.28-42.59,6.18-13.28,13.86-25.47,22.12-37.46C70.84,140.57,80,127.87,91.4,117.66c11.77-10.54,22.29-22.74,35.82-31.15,6.7-4.17,13.49-8.3,20.29-12.35,11.52-6.86,23.8-11.79,36.1-16.83,14.24-5.83,29.11-9.53,44-12.86,9.11-2,18.42-3.2,27.48-5.59,12.95-3.43,26.45-3.79,39.45-6.7,9.48-2.13,19.08-2.17,28.57-3,9.74-.86,19.68-.21,29.47-1.34s19.69-.68,29.52-1.13c10.24-.46,20.72-.41,31,1.57a67.55,67.55,0,0,0,13.48,1c10.8-.13,21.36,1.92,32,2.8,8.53.71,17.07,1.34,25.46,2.85,15.18,2.72,30.53,4.24,45.59,8.11,11.76,3,23.79,5.33,35.38,8.94,16.7,5.21,34,8.54,50,15.94,11.35,5.26,22.42,11.16,33.51,17,5,2.59,9.69,5.63,14.53,8.46A10.09,10.09,0,0,0,667.71,90.42Z"/>
    <path class="cls-2" d="M148.63,290.86c10.58,5,21.43,9.18,32.39,13.28a304.27,304.27,0,0,0,37.61,11.2c17.68,4.14,35.73,6.4,53.45,10.24,12,2.59,24.09,5,36.1,7.5,6.56,1.38,13.62,1,20.46,1.65,12,1.21,24,2,36,3.54,9.61,1.27,19.32,1.74,29,2.6,7.16.63,14.43.82,21.46,2.18a77.32,77.32,0,0,0,13,1.15c14.05.31,28,2.27,42,2.67,9.33.26,18.64.62,28,.09,10.81-.62,21.67.38,32.5-.6,9.15-.83,18.33-.52,27.5-.48a144.82,144.82,0,0,1,36.56,4.75c9.07,2.4,13.35,8.24,15.3,16.26,1.59,6.56,1.28,13.33-2.36,19.47"/>
    <path class="cls-2" d="M548.13,324.86c9.19-6.79,15.87-15.39,21.82-25.31,7.32-12.23,11.32-25.35,15.11-38.71,2.91-10.3,2.83-21,1.38-31.45-1-7.07-1.62-14.28-4.67-21.09-3.31-7.4-6.71-14.78-11.29-21.34-6.7-9.57-12.65-20.11-23.39-26-6.91-3.82-13.24-9-21.46-10.06"/>
    <path class="cls-2" d="M662.13,94.36c-3.87,9.73-8.36,19.3-14.21,27.86-6.5,9.51-11,19.83-15.84,30.12a109.26,109.26,0,0,0-6.39,19c-.85,3.24-1.67,6.69-1.44,10,.51,7.58-1.64,14.87-1.48,22.52.23,11.38.62,22.7,4.09,33.42,2.73,8.44,3.87,17.22,6.72,25.58,1.53,4.5.61,9.31,1.8,14.05,2.07,8.23,5,15.9,10.3,22.4,11.84,14.45,26.7,24.82,43.91,32.12,13,5.54,26.47,8.65,40.53,7.78,9.38-.59,18.66-2.6,28-3.84,8.32-1.1,16.64-2.35,25-2.91,6-.4,11.66-2.12,17.49-3.17,12.11-2.18,23.35-6.84,34-12.94"/>
    <path class="cls-2" d="M785.63,332.86c-11.51,2.89-22.6,6.7-32.53,13.46-4.91,3.35-6.91,8.56-8.85,13.59-2.65,6.86-2,14.24-1.52,21.44.12,1.69.39,4,2.9,4.51"/>
    <path class="cls-2" d="M586.13,264.86a272,272,0,0,1,27.54,8.37c7.72,2.83,14.39,7.63,22,10.63"/>
</svg>
