<svg viewBox="0 0 290.36 166.01">
  <path class="cypressCloser" d="M268.13,21.43c4.46-8.32-8.32-16-15.24-9.22-.91-9.28-24.17-6.48-22.2.86-2.28-11.12-22.25-9.87-22.54,0-4.25-9.61-22.76-7.53-24.3,2,1.23-10.12-18.09-13.19-20.92-3,.3-13.45-28.18-16.76-32.46-1.51-6.29-11.48-29-5.31-30.5,4.12C97,.7,68.19,2.87,69.35,17.32,68.75,4.77,44,2.52,44,17.9c-7.35-10.46-27.61.22-20.49,12.7C13.12,25.44,4,45.92,16.26,51,3,49.6-1.54,66.77,13,73.68,5.07,72.76,2.8,86.51,10.18,89.12.39,89-1.1,108.45,9.48,110.18c-11.28,5.9-2,29.46,13.8,25.27-11,7.25-2.26,31.9,14.16,30H259.78c14.94-1.6,18.41-20.56,7.76-27.63,16,3.72,21.55-17.6,10.12-23.61,15.4-1,15.64-28.53,4-31.29,9.81-4.6,6.74-18.09-3.38-21.77,9.2-4.91,5.22-16.87-4.72-17.37C285.66,38.07,281.8,19.65,268.13,21.43Z"/>
  <g class="rose">
    <path d="M48.06,118.8c6-9.19,15.22,12.6,4.2,9.45,2.36,9.19-17.85,4.46-11-3.41C32.57,122.74,44.12,109.35,48.06,118.8Z"/>
    <path d="M75.27,10.65c8.4,1.72,2.32,15.91-3.69,9.65-5.81,7.61-16.28-7.59-5.4-10.2C62.21,3.81,79.66,2.14,75.27,10.65Z"/>
    <path d="M3.55,84.86c-2.9-7.76,11.84-7.06,9.72-1.72,6.06-1.77,6.36,10,.2,8.93,2.75,3.21-6.73,7.59-8.19,1C1.79,97-2.54,85.06,3.55,84.86Z"/>
    <path d="M136.39,110.61c-4.72,8-15.3-7.09-6.19-8.29-4.33-8.44,17.25-6.22,11.51.89C150.62,103.35,142.31,119,136.39,110.61Z"/>
    <path d="M124.22,136.64c9.91-4.76,8.26,15.74-1.27,10.26-4.76,7.34-15.53-3.79-7.69-8.6C108.92,132,125.71,126.51,124.22,136.64Z"/>
    <path d="M189,30.64c7.7-1.89,6.42,10.71,1.15,8.65,2.83,4.24-7.72,6.56-7.72,1.8-3.47,1.42-5.52-4.75-1.91-7.11C174.17,30.16,188.56,22.71,189,30.64Z"/>
    <path d="M198.46,69.41c.82-9.85,17,0,9.35,4.42,7.79,5.42-10.61,15-10.58,4.61C189.63,80.53,190.75,66.61,198.46,69.41Z"/>
    <path d="M224.66,141.15c3.07-7.41,11.58,5.5,5.83,5.68,4.91,1.87-1.54,10.87-5.15,5.38-1.64,5.62-10.44-2.78-6.32-5.84C213.9,145.59,219.68,136.18,224.66,141.15Z"/>
    <path d="M282.72,59.68c9.41.27-.6,15.12-5,9-8.08,4.88-13.73-12-3.89-10.87C270.27,49.66,289.34,52,282.72,59.68Z"/>
    <path d="M99.72,46.64c1.91-8.07,12.27-1.19,7.54,2.07,6,1.9,1.23,11.9-3.25,7.54.49,4.19-9.87,2.34-7.39-4C91.54,53.57,94.55,43.42,99.72,46.64Z"/>
  </g>
</svg>
