<svg viewBox="0 0 481.1 168">
  <path class="cypressCloser" d="M21.74,23.42C17.28,15.1,34.17,7,39.11,14.81c.34-6.68,18.07-6.3,18.79,3.13,1.88-8.3,18.55-10.49,22-2.84,2.85-12.56,23.47-11,23.47-.13,4.7-7.24,18.57-6.39,21.92,2.71C124,7,138.51,5,143.91,10c-.11-7.69,17.46-6.92,17.73-.38,7.43-7.24,22.89-3.91,23.66,7.78C183.82,7.16,208.44.71,211.69,12c-.14-7.24,13.48-9.15,15.7-1.36,3-7.79,18.34-5.64,19.81,1.92,4.33-6.66,17.06-5,18.22,3.18C264.15,4.52,279.07,2.62,281.82,10c.24-7.31,12.47-8.51,16.61-1.91,5-10.47,22.33-7,23.38,1.41,2.88-8.65,23.05-2.88,21.32,6,3-8.85,22.85-11.43,24.36.27,3.44-9.37,18.37-8.11,19.64,1,4.62-10.45,26.54-7.33,25.19,6,2.44-10.23,22.93-8.36,25.58.57,3.62-10.86,29.15-3.18,22,9.29,8.68-3.56,14,12.78,4.64,15.11,13.28-1.38,20.38,23.91,5.82,30.67,10.93-1.27,14.28,16.83,3.6,19.84,8.2.58,9.41,14.38,0,15.6,11.34,8.59-.89,33.53-16.78,25.2,12.47,5.39,5.13,30.34-11.28,28.38H30.09c-15.21-2.48-17.33-18.58-6.54-25.2-16.92,4.42-24.42-23.34-13.43-29-9.81-1.64-9-14.1-.21-15.76-13.68-2.67-11.67-24.8,1-26.24-13.51-7-6.76-26.82,5.38-25.41C4.2,40.07,8.07,21.64,21.74,23.42Z"/>
  <g class="rose">
    <path d="M366,65.39c-6,9.19-15.23-12.6-4.2-9.45-2.37-9.18,17.85-4.46,11,3.42C380.8,63.22,367.55,75.66,366,65.39Z"/>
    <path d="M466.82,52.27c-7.63,10.86-16.83-12.09-4.1-10.75-2.36-9.18,16.36-4.94,9.54,2.93C480.92,46.55,470.75,61.72,466.82,52.27Z"/>
    <path d="M340.52,148.9c-8.59,1.17-3.53-16.77,3.69-9.66,5.8-7.81,16.28,9.92,5.4,10.2C353.58,155.74,336.13,157.41,340.52,148.9Z"/>
    <path d="M406.83,73.24C409.73,81,395,80.31,397.11,75c-6.06,1.78-6.36-10-.2-8.92-2.75-3.21,6.73-7.6,8.2-1C409.89,62.18,414.82,74.54,406.83,73.24Z"/>
    <path d="M462.29,145.82c2.9,7.77-9.9,6.33-7.78,1-5.25,2.13-5.4-9.63-.2-8.92-2.75-3.21,6.73-7.6,8.2-1C465.36,132.33,472.1,149.06,462.29,145.82Z"/>
    <path d="M269.43,50.31c4.71-8,13.73,7.92,4.62,9.13,4.34,9-16.31,7.38-10.94-.38C254.2,58.92,263.5,42,269.43,50.31Z"/>
    <path d="M308.26,26.56c-9.1,4.92-7.7-15.63,1.27-10.27,4.76-7.33,15.53,3.8,7.69,8.61C323.56,31.16,306.77,36.68,308.26,26.56Z"/>
    <path d="M12.58,49.26c-8.31,3.4-7-16.79,1.27-10.27,4.76-7.33,16.16,2.81,8.32,7.62C28.47,52.22,11,57.39,12.58,49.26Z"/>
    <path d="M187.37,150.4c-6.48,1.51-5.51-11-1.15-8.65-3.45-5.75,7.46-7.16,7.71-1.8,3.47-1.41,6.83,5.4,1.91,7.11C202.16,150.88,187.76,158.33,187.37,150.4Z"/>
    <path d="M187.54,104.68c-1.22,10.69-17.75,1.67-9.35-4.42-8.59-3.84,7.29-13.5,7-4.46C193.47,92.88,195.26,107.47,187.54,104.68Z"/>
    <path d="M85.93,20.13c1.75,10.49-14.47.63-9.35-4.42C67.35,11.1,86.43,1.82,87.16,11.1,95.15,9.22,94.87,23.6,85.93,20.13Z"/>
    <path d="M131.55,44c-4,8.21-12.65-4.61-5.83-5.68-4.91-1.87,1.54-10.87,5.15-5.38,2.62-6.22,11.34,2.23,6.31,5.85C142.31,39.52,136.52,48.93,131.55,44Z"/>
    <path d="M72.12,109.64c-3.79,7.69-12.06-5.31-5.83-5.68-4.91-1.88,1.55-10.88,5.15-5.39,2.59-5.93,11.89,2.3,6.32,5.85C82.51,106,76.15,116.62,72.12,109.64Z"/>
    <path d="M96.53,135.65c-11.44.42-.32-19.31,5-9,9.19-5.78,13.92,9.09,3.89,10.87C108.12,144.81,88.7,142.14,96.53,135.65Z"/>
    <path d="M305.51,126.86c-1.91,8.07-11.6-.18-6.86-3.44-7.12-2.54-2-12.33,3.25-7.54-.2-5.38,10.17-3.56,7.39,4C314.83,120.31,311.52,133.19,305.51,126.86Z"/>
    <path d="M215.77,13.28c-1.91,8.07-12.27,1.19-7.54-2.07-6-1.9-1.23-11.89,3.25-7.53.27-5.71,10.36-3.33,7.39,4C224.13,7.35,221.6,20.13,215.77,13.28Z"/>
  </g>
</svg>
