<svg viewBox="0 0 811.18 362.09">
  <g class="rubberMedium">
    <path d="M781.26,7.56c0-4.15,0-4.07,4.45-5.52A27.38,27.38,0,0,1,795.14.51a4.93,4.93,0,0,1,4.53,2.55c2.29,3.7,3.33,7.81,4.62,11.84,3.25,10.21,3.93,20.77,4.29,31.41a184.34,184.34,0,0,1-.68,23A59.87,59.87,0,0,1,806,79.6c-.89,3.22-2.62,4.63-5.83,5.31a59.81,59.81,0,0,1-11.28,1.16c-2.21,0-3.56-1.2-3.41-3.62Z"/>
    <path d="M783.88,263.66c0-1.4.6-2,2.09-2.13a44.3,44.3,0,0,1,15.19.84c2.76.73,3.52,3.36,4.7,5.49,1.92,3.49,2.32,7.45,3.13,11.26a82,82,0,0,1,1.54,13.61,178.36,178.36,0,0,1-1.85,33A97.48,97.48,0,0,1,799,356.6c-1.51,2.94-3.89,5.11-7.55,5-3.94-.14-7.87-.29-11.54-2.07-1.9-.92-3-2-1.82-4.21Z"/>
    <path d="M30.25,263.14c-.12-2.78-2.63-2.2-3.93-2.23a111.05,111.05,0,0,0-11.52.66c-4.24.34-5.84,3.62-7.62,6.79-3.91,7-5.1,14.72-6,22.53a148.64,148.64,0,0,0-.6,19.91C.78,322.4,3.7,333.34,7.79,344c1.59,4.13,3.58,8.14,5.56,12.13,1.88,3.78,4.91,4.36,8.26,4.6a42.38,42.38,0,0,0,12-.73c2.58-.57,3.32-1.44,3.4-4.19Z"/>
    <path d="M30.77,6.25c-1.63-2.67-4.58-2.6-7.09-3-1.95-.34-4-.36-6-.64-2.62-.38-4.27.81-5.81,2.85A34.58,34.58,0,0,0,6.22,18.05,100.52,100.52,0,0,0,2.85,40.81C2.74,47,2.34,53.23,3.06,59.4c.85,7.34,2.16,14.65,5.77,21.19,3.5,6.32,9.32,7.65,15.91,6.54,1.31-.22,2.68-.06,4-.72a5.23,5.23,0,0,0,3.13-4.22Z"/>
  </g>
  <g class="rubberDark">
    <path d="M33.91,268.9a16.3,16.3,0,0,0-1.57-5.5c-1.27-2.69-2.86-2.92-4.69-.51-2.68,3.49-4,7.64-5.23,11.78a82,82,0,0,0-3.56,17.8A157.88,157.88,0,0,0,18.61,310a115.17,115.17,0,0,0,2.26,17c1.62,7.91,3.85,15.67,7.83,22.78A41,41,0,0,0,34.14,358a3,3,0,0,0,2.91,1c1.24-.23,1.4-1.53,1.5-2.35a52.31,52.31,0,0,0,.08-6"/>
    <path d="M776.55,350.6c-.09,2.88-.29,5.79,2.24,8,3.24-2.07,4.29-5.43,5.56-8.52a97.67,97.67,0,0,0,6.25-22,171.16,171.16,0,0,0,2.07-37.42c-.53-8.37-1.15-16.89-5.1-24.63a7.16,7.16,0,0,0-1.08-2.07c-.85-.84-1.32-2.53-2.85-2.05s-2.19,2-2.36,3.61a20.43,20.43,0,0,0,0,2.35Z"/>
    <path d="M782.83,79.83a6.18,6.18,0,0,0,2.53,5.67c2.75-1.3,3.16-4,3.67-6.21a106.13,106.13,0,0,0,2.81-20.66A123.33,123.33,0,0,0,791.57,44c-.43-5-1-10-1.82-15a116.66,116.66,0,0,0-5.34-20.67,9.09,9.09,0,0,0-3.24-4.7c-2.36,2.4-2.15,5.27-2,8.11Z"/>
    <path d="M33.39,13.32c0-2,.23-4-.8-5.75-.53-.92-.62-2.26-2.08-2.36s-2,1-2.59,1.85c-2.39,3.56-3.44,7.67-4.47,11.76-1.48,5.86-1.93,11.9-3.14,17.81a10.42,10.42,0,0,0,0,2.09c.05,5-.41,9.92-.15,14.94A104.64,104.64,0,0,0,24.53,79a11.81,11.81,0,0,0,3.36,5.25c2,1.84,3.62,1.48,5-1a7.86,7.86,0,0,0,1-3.93"/>
  </g>
  <g class="ironDark">
    <path d="M781.79,11.23c7.85,12,9.42,57.62,3.92,69.39C523.07,92.93,145.2,88.48,30.25,80.1c-8.91-9.69-8.38-60,.78-69.14C261,23.8,526.21,21.7,781.79,11.23Z"/>
    <path d="M778.12,352.17c10.47-13.36,13.62-68.87,4.71-85.37C501.6,255.54,289.75,254,30.25,266.28c-12.57,22-7.6,71.75,5.76,86.15C239.73,342.48,542.18,344.05,778.12,352.17Z"/>
  </g>
  <g class="rubberMedium">
    <path d="M88.61,70.67c7.57-.73,13.48-3.82,17.07-11,4.84-9.63,3.76-18.6-2.15-27.26-3.15-4.59-7.55-7-13.07-7.93a27.68,27.68,0,0,0-15.71,2c-5.93,2.5-9.12,7.63-11.54,13.3-.16.36-.35.7-.52,1Z"/>
    <path d="M387.69,243.76a5.28,5.28,0,0,0-4.31,5c-.27,3-.64,6.1.54,9.19a5.15,5.15,0,0,0,3.76,3.38c3.85,1.15,7.86,1.22,11.8,1.47a151.31,151.31,0,0,0,16.22,0,34.67,34.67,0,0,0,11.28-2c2.13-.84,2.81-2.36,2.89-4.48a39.34,39.34,0,0,0-.63-7.84c-.47-2.76-2.93-3.67-5.42-4.21Z"/>
    <path d="M67.4,319.7c1.91,5.32,5.83,8.14,11.26,9.18A47.55,47.55,0,0,0,88.35,330c9.22-.15,15.67-5.06,19.48-12.7,4.45-8.94,4.63-18.39-1.73-26.85-4.15-5.51-10.1-7.77-17-7.63Z"/>
    <path d="M787,180.91c.71,1.32-.11,2.82.73,4.22,1.26,2.1,3.42,2.7,5.32,3.29,6.32,1.93,10.57-.25,13.29-6.48,3.35-7.69,3.54-15.83,3-24.07a39.27,39.27,0,0,0-2.11-10.75,21.75,21.75,0,0,0-2.72-4.92c-2.47-3.6-10.14-5.37-14.06-3.42-1.72.86-2.25,2.66-2.62,4.43a15.35,15.35,0,0,1-.8,3.66Z"/>
  </g>
  <g class="ironMedium">
    <path d="M104.32,301.63c-.87-6.12-3.14-11.1-9.94-12.6-2-.43-2.83-1.94-2.88-3.9a32.39,32.39,0,0,1,0-4.18c1.08-10.38.15-20.79.52-31.17,1.15-32.38.42-64.77.39-97.15,0-13.43,0-26.89-.54-40.32-.29-7.52.13-15-.48-22.52-.47-5.69-.17-11.36-.47-17a7.49,7.49,0,0,1,3.71-7.32c9.73-6,10.82-21,5.27-28.85-3.6-5.07-8.43-7.3-14.44-7.58A30.09,30.09,0,0,0,65.1,35.39c-5,3.94-8.14,9.4-9.75,15.64-1.67,6.48-1.49,13-1.15,19.64.44,8.54-.06,17.11.13,25.66,1.08,48.62.42,97.24.37,145.86,0,14-.06,27.94-.51,41.89-.19,6-.24,12.05-.42,18.07-.25,8.19,3.38,14.24,10.25,18.3,8.66,5.12,17.93,6.25,27.75,3.75a14.82,14.82,0,0,0,10.77-9.46,23.67,23.67,0,0,0,1.78-12.85Z"/>
    <path d="M794.09,162.58c-.25-5.23-.63-10.41-3.12-15.19a4.82,4.82,0,0,0-4.73-2.9c-14.75,0-29.52-.41-44.25.15-13.63.52-27.25-.14-40.85.46-20.61.91-41.21,0-61.81.49-49.31,1.09-98.63.21-148,.48-16.76.09-33.52,0-50.27,0a64,64,0,0,0-17.54,2.11,49.43,49.43,0,0,0-19.9,11c-5.86,5.31-10.78,11.35-13.61,18.85-2.44,6.49-4.31,13.08-4.25,20.16.13,14.75.09,29.5,0,44.25,0,2.26.76,2.93,2.93,3.2a168.3,168.3,0,0,0,21.74,1.45,123,123,0,0,0,12.83-1c1.66-.18,2.41-1.21,2.4-3.11-.09-12.3-.19-24.61,0-36.92a21,21,0,0,1,17-20.21,28.81,28.81,0,0,1,5.77-.47c56,0,112.08.29,168.11-.15,21.47-.17,43,.23,64.42-.5,16.07-.55,32.14.24,48.18-.51,13.1-.61,26.2.13,39.28-.54,5.68-.29,11.35-.19,17-.41,4.26-.16,5.95-1.58,7.35-5.75,1.1-3.24.91-6.63,1.28-9.95.17-1.57.19-3.14.28-4.72Z"/>
  </g>
  <g class="ironDarkest">
    <path d="M578.32,149c.51,2.6.22,5.23.25,7.85,0,4.45-.05,8.91,0,13.36a118.48,118.48,0,0,1-.84,17.91c1.66.41,3.15,1.12,5,.76,1.67-.31,3.48.19,5.22.16,4.45-.06,8.9.07,13.36-.16,2.82-.15,3.4-.24,4-3.48,1-6,1.33-12,1.81-18.07.61-7.81-.23-15.55-.78-23.31-.1-1.3-.46-2-1.86-2.11a161.5,161.5,0,0,0-25.93,0c-.27,0-.52.32-.78.5.09,2.1.65,4.16.52,6.28Z"/>
    <path d="M99.61,122c-15.54,0-31.08.05-46.61,0-2.59,0-3.27.67-3.35,2.93-.18,5-.1,10,0,14.92,0,1.95.88,3.17,3.13,3.16,15.1,0,30.2,0,45.3,0a4.26,4.26,0,0,0,1-.25Z"/>
  </g>
  <path class="steelDark" d="M551.61,177.25c9.8-2.46,19.81-4,29.6-6.53,2.29-.59,4.76,2.43,3.91,4.69q-5.34,14.16-10.73,28.28l6.81,2.88c2.84-8.53,6.73-16.65,9.64-25.15,1.08-3.13,2.38-5.68,6.53-5.85,3.74,3.9,7.2,8.59,11,12.94,3.45,3.9,6.28,8.32,10.23,11.78l5.5-5c-7.09-8.62-14.19-17.24-21.37-26,.93-.31,1-1.09,1.18-1.78a2.64,2.64,0,0,1,2.38-2.08q15.06-3.16,30.11-6.29l-1.57-7.6c-3.66.79-7.32,1.61-11,2.35-6.54,1.34-13.1,2.57-19.62,4-1.06.22-1.75.23-2.37-.59a2.2,2.2,0,0,1-.36-2.66c1-2.19,1.89-4.48,2.69-6.77,2.58-7.42,6-14.5,8.4-22L605,123c-3.58,9.34-7.13,18.69-10.75,28-1.08,2.77-3.88,3.3-5.72,1-6.55-8-13.35-15.86-19.67-24.07l-6.8,4.71c6.8,8.85,14.27,17.14,21.4,26-.87,4.53-5.11,4.37-8.58,5.11-7.59,1.61-15.24,2.9-22.78,4.75-.68.17-1.45-.29-2.09.27Z"/>
  <g class="dullRedDark">
    <path d="M588.27,112.57a56.92,56.92,0,0,1,18.06,1.85,51.78,51.78,0,0,1,26.73,17.52c10.67,13.27,13.9,28.44,10.31,44.75a48.86,48.86,0,0,1-18.17,28.58c-12.6,9.78-26.63,13.43-42.44,10.51a52,52,0,0,1-42-56.09,56.11,56.11,0,0,1,3.8-15.42,50.88,50.88,0,0,1,14.66-19.61,49.57,49.57,0,0,1,19.31-10.09c3.13-.83,6.37-1,9.45-2Zm.79,11c-3,.82-6.21,1-9.17,2.1-14,5.26-23.45,14.82-26.94,29.6-5.24,22.19,7.66,43.49,29.86,49.35,13,3.42,25.16.5,35.85-8a39.55,39.55,0,0,0,14.81-25.17c2-12.21-1.07-23.34-9.05-33a40.22,40.22,0,0,0-20.94-13.41,49.89,49.89,0,0,0-14.16-1.51Z"/>
    <path d="M106.42,150.54a81.54,81.54,0,0,1-2-17,80.37,80.37,0,0,1,2-18.07s1.65-3.71,2.09-4.45l.26-.79c3.32,4.23,4.11,9.37,4.63,14.41a68.69,68.69,0,0,1-1,22.24c-.67,2.95-1.28,6-3.29,8.45C108.09,154.63,106.42,150.54,106.42,150.54Zm.26-47.4c-4.1,1.61-5.88,5.27-7.26,8.93a53.85,53.85,0,0,0-3.25,18.3c-.12,7.78.44,15.43,3.19,22.78a19.77,19.77,0,0,0,3.41,6.28c3.49,4,7.89,3.92,11.51,0,3.28-3.55,4.15-8.13,4.88-12.58a79.52,79.52,0,0,0,1.13-16.75c-.32-6.49-1-12.92-3.13-19.12-1.88-5.34-5.08-7.85-10.22-7.85Z"/>
  </g>
  <path class="steelDark" d="M105.11,142.68c-.09-1.5,2.44-1.75,3-2.89a29.17,29.17,0,0,1,2.77,2.86c1.33,1.51,2.88,1.14,3.63-.76.6-1.51,1-3-.25-4.46a5,5,0,0,1-.53-1c-1.88-3.44-1.86-3.79.52-6.81,2.17-2.75,1.7-5.46-1.36-7.64-1,.11-1.32,1.12-2,1.61s-.86,1.39-2.28,1.3c-.9-.15-2-1.7-3.47-2.17a53.52,53.52,0,0,0-.27,18.16Z"/>
  <g class="steelMedium">
    <path d="M591.41,161.27c-1.63.92-2.92,2.16-2.57,4.19a4.09,4.09,0,0,0,3.08,3.46c1.8.55,2.8-.27,4-1.34a3.34,3.34,0,0,0,.93-3.66c-.48-1.36-1.39-2.79-3.31-2.65-.61,0-1.22,0-1.83,0"/>
    <path d="M111.13,129.06c-3.21,2.28-3.21,5.06,0,7.34a4.56,4.56,0,0,0,.26-7.34Z"/>
  </g>
</svg>
