<svg viewBox="0 0 416.59 379.8">
  <path class="treeTrunk" d="M243,379.3H137.89c13.07-8.15,24.31-17.12,33.51-27.69,4.19-106,3.28-225.67,2.22-253.74h36.29c-1.81,92.3-1.55,178.71,2.22,253.74A155.46,155.46,0,0,0,243,379.3Z"/>
  <g class="treeFurthest">
    <path d="M298.69,57.2c17.19,4.85,12.78,28.22-4,28.22C290,135.16,84.52,137.29,94.16,82.33c-10.14.44-15.43-11.9-5.29-18.95-7.49-12.79,2.2-32.62,15.43-29.54-4-8.81,6.17-16.75,13.66-11.9C122.37,8.72,139.12-.54,152.78,9.16c4-11,21.6-11.9,25.13-.44,3.53-8.38,16.31-8.38,19.4,2.64,11-9.7,29.53-6.61,34.38,8.82,5.29-6.61,17.19-2.65,17.63,8.37,13.22-8.81,31.74-1.76,33.94,15.43C291.2,39.13,301.33,47.51,298.69,57.2Z"/>
    <path d="M358.64,160.35c3.52-4.41,14.54-4,15.43,4.41,7.49-5.29,24.68,1.76,24.68,14.55,5.29-4.85,17.19,4.84,11,11.46,10.58,1.76,6.61,17.63-2.64,15.42.88,10.14-12.79,18.08-20.72,11-.88,8.38-12.34,10.14-16.75,4.85-17.17,24.05-124.67-25.92-73.17-42.75C276.07,151.11,348.35,137.93,358.64,160.35Z"/>
    <path d="M19.28,151.89c-10.51-.56-18.56,11-12.84,20.37-9.58,2.18-6.42,14.79,1.33,15.05-4.6,9.54,3.8,15.3,12.4,11.79-1.59,8.07,9.26,12.62,15.49,6.2,162.26,90.57,159.9-145.27,0-64C27.68,137,17.52,144.33,19.28,151.89Z"/>
    <path d="M271.36,267.91c.88,8.81-11,13.22-15.87,8.37-3.08,11.9-24.68,15-32.18,3.09-4.41,10.14-17.63,8.81-19.39.44-4.85,7.93-20.28,7.93-24.69.88-7.49,7.93-24.68,4.41-26.89-7.05-7.93,7.93-24.48-.53-20.22-9.27C85.46,252,178.44,201,193.7,228,226.08,198.91,325.16,249.59,271.36,267.91Z"/>
  </g>
  <g class="treeFurther">
    <path d="M277.81,97.16c5.61-10.86,33.22-4.69,34.1,7.65,11-8.81,31.3-.88,30.86,14.11,19.83,0,22,21.15,4.85,25.56.44,9.7-11,16.75-17.19,12.35.92,11.57-24.08,14.95-29.54,5.28,2.08,9.67-13.46,12-15.83,2.91-20.27,28.72-140.91-34.17-83.63-52.51C193.57,96.78,230.64,88.17,234,100.9,236.63,87.05,272.19,84.8,277.81,97.16Z"/>
    <path d="M176,211.52c21.6-18.77-37.2-50-56.84-26.12-9.26-11-28.21-9.26-31.74.44-4.4-5.29-17-3.53-17.86,4.85-7.93-7.06-18.64.88-17.76,11-9.25-2.21-14,15.51-3.38,17.27C42.2,225.6,53,237.39,59.76,230.44c-2.24,10.48,13.86,18,21.36,12.7,2.49,9.36,13.4,6.91,15.79.44,1.45,9.13,17.1,9.72,18.79-.55-.22,13.51,33,12.56,32.06-1.11,5.53,11.61,34.82,6.63,29.85-8.84C191.78,230.81,193.81,213.51,176,211.52Z"/>
  </g>
  <g class="treeMiddle">
    <path d="M50.75,137.51C36,139,41.27,112.08,54.16,118.91c-4.17-8.35,9.13-19.36,15.57-14.43,1.52-8,13.64-9.09,15.53-2.64,5.31-8.35,18.58-9.09,25-1.13,1.92-10.26,25.52-7.54,23.57.27,3.91-11.88,32.24-1,23.47,8.86,12.66-8.1,28.16,17.31,16.68,24.21,15.75,11.43-30.26,41.4-38.68,22.79-.76,6.81-14,9.8-16.69,2.21-2.43,7.59-23.6,6.59-26.64-3-3.6,7.34-20,4.54-22.25-4.19C60.27,159.86,46.58,150.41,50.75,137.51Z"/>
    <path d="M337.93,208.62c14.79-1.51,9.48,26.17-3.41,19.35,4.17,8.34-9.86,19.72-16.31,14.79-1.52,8-12.9,8.72-14.79,2.27-5.31,8.35-18.21,8.73-24.66.76-4.93,8.73-20.86,7.59-25.41-1.51-8,6.44-22.76.75-22-8.73-11.76,9.11-30.81-12-13.46-18.56-10.06-27.25,74.93-49.77,82.49-26.19,4.93-5.69,14.79-4.17,17.07,4.55C326.93,187.38,342.1,195.73,337.93,208.62Z"/>
  </g>
  <path class="treeCloser" d="M275,186c16.68-4.17,4.43-24-2.72-21.23,1.88-14.91-16.16-25.74-28.34-19-2.29-7.48-13.38-8.79-17.67-3.63-5.91-11.47-21.5-11.79-27.42-1.6-3.47-8.18-17.11-7.46-18.21.57-7.71-9.47-24.12-3.67-27,6-10.06-3.65-20.51,7.15-14.3,17.08-8,7.63-2.07,18.34,6.24,17.52-7.2,7.59,1.73,18.52,10.74,16.53,1.22,8.67,19.3,13,25.28,4-1.1,8,10.8,10.45,15.39,3.75,3.62,11.21,24.87,10.85,29,1.9,9.65,8.11,25.57,1.29,25.95-8.19C264.4,209.83,281.84,197.32,275,186Z"/>
</svg>
