<svg id="waitingRoomPlant"
    xmlns="http://www.w3.org/2000/svg" viewBox="0 0 602.5 1284.25">
    <path class="leavesRear" d="M332,306c.5-3,1.1-6,1.48-9,1.75-13.81,4.85-27.37,7.59-41,4.4-21.88,9.14-43.7,14-65.5,3.95-17.85,9.33-35.31,12.18-53.47,3.38-21.49,8.06-42.79,12.9-64,4.28-18.8,9.57-37.36,14.36-56A43.55,43.55,0,0,1,400,3.5L401,1c-.1,4.74,1.71,9.09,3.06,13.48,4.23,13.75,6.29,27.94,8.95,42,1.87,9.92,2.37,20,3.23,30,1.15,13.53,2.81,27.05,4.49,40.55,1.17,9.46,2,19,3.46,28.44,1.81,11.35,1.05,22.72,2,34,.89,10.52,1.77,21.08,3.65,31.55,1.42,7.86,1.06,16,2.25,24,2,13.08-2.88,24.91-6.17,37-6.1,22.4-12.55,44.7-18.95,67-4.41,15.36-9.08,30.65-13.46,46-6.26,22-12.31,44-18.54,66-4.25,15-8.65,30-13,45"/>
    <path class="leavesRear" d="M258,258c-.66-7-3.26-13.55-5.7-19.92-5.16-13.51-10.35-27-15.37-40.55-2.77-7.48-6.26-14.7-9.43-22-5.76-13.36-12.87-26.08-18.18-39.73-3.07.8-1.92,3.07-2.36,4.72a54.19,54.19,0,0,0-1.94,16c.4,9.86-2,19.66-1,29.49,1.23,11.37,0,22.7-.29,34-.25,10.5-.62,21-.81,31.51a106,106,0,0,0,1.1,18,38.88,38.88,0,0,1,.05,9A34.8,34.8,0,0,0,206.93,295c8,18.51,16.32,36.86,24.26,55.39,5.46,12.74,11.28,25.35,16.82,38.08,4.29,9.85,8.66,19.67,13,29.5Z"/>
    <path class="leavesCentre" d="M365,481c.79-12.69,4.26-24.95,6.17-37.47,1.49-9.73,3.4-19.43,5.66-29.07,2.92-12.52,5.69-25.07,9.13-37.47,3.68-13.28,6.83-26.72,10.59-40,6.12-21.61,13.72-42.75,20.86-64,6.85-20.42,15.06-40.31,22.54-60.49,2.71-7.3,6.5-14.25,8.82-21.55,7.22-22.81,18.8-43.67,28.64-65.25,6.38-14,13.3-28,23.25-40.46,6-7.48,10.39-16.57,15.9-24.68C521.81,52.8,529.88,48.59,538,44.4c1.18-.61,2-1.1,3-.36,1.37,1,.42,2.22.07,3.47-2.62,9.33-3.48,19-5,28.49-1.68,10.33-3.52,20.64-5,31-2.34,16.95-5.45,33.76-9,50.49-3.34,15.55-5.27,31.34-8,47-2.49,14.1-5.74,28.07-8.59,42.08-1.49,7.29-2.23,14.95-3.36,22.43-1.74,11.49-3,23.05-4.71,34.54-1,6.88-2.32,13.87-2.4,21-.06,4.34-1.24,8.66-1.88,13-.69,4.66-1.67,9.31-1.94,14-.49,8.52-1.9,16.93-2.38,25.48-.64,11.2-2.65,22.4-4.41,33.56S480,433,481.07,444.49c.95,9.94-1.81,19.37-2.93,29-.69,6-1.28,12-2.21,18-1.37,8.66-2.25,17.39-3.72,26-1,5.89-1.46,12-2.26,18-1.15,8.69-3,17.31-3.81,26-.51,5.71-1.51,11.32-2.18,17-1.07,9-2.52,18-3.77,27-.78,5.63-1.56,11.3-2.23,17-1,8.7-2.51,17.36-3.72,26-.84,6-1.47,12-2.3,18-1.21,8.68-2.37,17.38-3.69,26-.91,5.92-1.48,12-2.31,18-1.21,8.68-2.25,17.39-3.73,26-1,5.89-1.35,12-2.28,18-1.37,8.66-2.25,17.39-3.72,26-1,5.89-1.35,12-2.28,18-1.37,8.66-2.27,17.39-3.71,26-.93,5.57-1.59,11.29-2.26,17-1.07,9-2.52,18-3.77,27-.78,5.63-1.56,11.3-2.23,17-1.07,9-2.18,18.06-3.86,27-.59,3.13.1,6.5-1.79,9.82-20.82,1-41.8-1.64-62.81-.84Z"/>
    <path class="leavesFront" d="M455.5,922c1.36-9,3.08-17.86,2.52-27a41.63,41.63,0,0,1,0-7.49c.87-7.35,1.95-14.68,2.95-22,.89-6.48,1.6-13,2.11-19.49.66-8.52,2.36-16.94,3-25.5.35-4.67,1.09-9.39,1.61-14,.54-4.82,1.66-9.63,1.7-14.47.07-9.13,2.35-18,3.11-27,.62-7.18,1-14.47,2.67-21.45,1-4.37.28-8.74,1.63-13.1,2.11-6.78,2.58-14,4-21,2.16-10.39,3.36-21,5.16-31.46,1.87-10.86,4.11-21.65,5.94-32.52,2.46-14.64,4.09-29.45,7.18-44,4-18.86,8.91-37.54,12.31-56.54,2.38-13.29,5-26.6,6.37-40A266.61,266.61,0,0,1,524,468.51c2.73-11,5.59-22,8.28-33.05,3-12.14,4.51-24.63,6.68-37,1.15-6.5,1.73-13.18,3.66-19.45a156.73,156.73,0,0,0,5.16-22.58c2.28-15.22,6.31-30,9.88-44.92,4.93-20.59,11.06-40.88,15.95-61.52,5.1-21.58,9-43.49,16.27-64.56,3-8.66,5.34-17.58,7.45-26.5.83-3.5,4.09-6.42,2.63-10.47l1.5-2.5c-10.8,7.67-15.79,19.64-21.79,30.62-4.68,8.58-10.34,16.47-15.26,24.85a409.7,409.7,0,0,0-21.46,43c-6.3,14.34-13.15,28.47-18.87,43.05-8,20.42-16.84,40.56-23.53,61.48-3.32,10.4-6.36,21-10.81,30.87-5.13,11.41-8.82,23.22-12.17,35.13-5.41,19.22-10.34,38.58-15,58-2.52,10.44-5.53,20.7-8.43,31-2.14,7.61-2.85,15.62-4.15,23.46-2.19,13.16-5.31,26.27-6.24,39.52s-5.44,25.89-5.21,39.49c.19,10.46-3.75,21-5.51,31.5-1.8,10.81-3.95,21.55-5.23,32.47-1.08,9.18-2.13,18.4-3.6,27.56-1,6.5-1.16,13.27-1.37,20a150.56,150.56,0,0,1-2.74,25.53,82.61,82.61,0,0,0-1,10c-.95,11.56-3,23-4,34.51-1.12,13.43-3.29,26.69-5.32,40-1.91,12.48-2.47,25.1-4.6,37.56A112.18,112.18,0,0,0,403.94,881c-.28,9.67-.82,19.33-1.2,29-.18,4.63-.52,9.34-.74,14"/>
    <path class="leavesFront" d="M196,505.5c-5.18-8.18-8.3-17.35-12.45-26-4.38-9.16-8.87-18.21-13.84-27.1C163.79,441.81,159,430.61,153,420a332.61,332.61,0,0,1-16.61-35c-4.36-10.46-11.06-19.76-16-30-6.71-14-14.91-27.07-23.27-40.14-10.62-16.6-19.54-34.3-30.32-50.79-11-16.89-20.27-34.94-32.47-51C25.81,201.85,16.87,190.73,5.48,182c-.32-.24-1,0-1.48,0l-3-5c6.41,19.19,17.84,35.92,26.4,54.05a400.74,400.74,0,0,1,15.72,39.41c6.41,18.42,9.87,37.66,16.33,56.06C64.52,340.93,69,355.56,74,370q9.67,27.61,18.48,55.51c7.75,24.36,16,48.58,23.37,73,4.91,16.16,8.87,32.61,13.08,49,4.27,16.6,8.55,33.19,12.1,50,3.47,16.45,8,32.67,12.18,49,3.5,13.69,6.86,27.45,10.77,41.06,2.63,9.18,3.33,18.73,5.46,28,2.91,12.65,6.09,25.26,8.38,38,1.57,8.73,1.61,17.7,3.08,26.49,1.11,6.68,2.54,13.35,3.34,20,1.65,13.7,5.75,26.86,7.81,40.46,1.31,8.64,2.25,17.29,3.14,26,1.13,11.17,1.55,22.43,3.6,33.55,1.26,6.83.83,14,1.19,21,0,.34.31.67.65,1.34,23.51,1,47.16-1.65,70.83-.84"/>
    <path class="leavesCentre" d="M322.5,923.5c-16.34-.08-32.66,1-49,1.32-6.59.11-13.41-.27-20,1.18l1-1c-1.16-5.78-1.1-11.76-1.2-17.51-.21-12.29-1.86-24.43-3.58-36.45-2.18-15.18-3.89-30.44-6.47-45.58A413.32,413.32,0,0,0,233.48,783c-4.18-14.84-7.6-29.86-10.48-45-2.5-13.17-4.68-26.4-7.58-39.48-3.85-17.39-6.71-34.94-9.35-52.53-1.71-11.44-3-23-4-34.5-.53-6.36-1.58-12.66-2-19A303.75,303.75,0,0,0,195.78,559c-2.23-12.31-3.56-24.74-5.72-37-1.93-10.95-3.38-22-5.06-33-1.35-8.83-2.76-17.7-4.37-26.43-2.12-11.56-4.44-23.17-7.44-34.62-5-19.15-8.78-38.63-13.22-57.94-2.15-9.38-4.45-18.73-7-28-2-7.3-2.37-15-5.39-22-1.45-3.38-2.4-7-3.55-10.48-4.08-12.55-6.92-25.5-11.18-37.94a484.75,484.75,0,0,1-16.77-60.07c-1.79-8.77-2.37-17.84-4.7-26.45-4.22-15.62-8.42-31.23-11.82-47C96.8,125.3,92.35,113,91,100l1.5,2a3.54,3.54,0,0,1,3,1c15.83,15.23,31.89,30.35,44.81,48.14C153.78,169.62,167.62,188,178,208.52c7.91,15.73,14.61,32,22.26,47.87,6.56,13.55,13.37,27,19.62,40.69,5.76,12.61,12.24,24.88,17.46,37.8C241,344,245.3,353,249.61,362c4.13,8.55,6.34,17.69,9.25,26.6,1.83,5.64,4,11.34,4.14,17.45"/>
    <path class="leavesFront" d="M368,924c2.09-10.06,2-20.35,2.82-30.52.79-9.81,1.92-19.68,2-29.48.07-17.88,1.43-35.67,2.22-53.5.52-11.66.08-23.32.72-35,1-18.13,1.9-36.31,2.2-54.48.14-8.66-.71-17.33-.9-26-1-46.66,2.13-93.38-2-140-1-10.84-2.34-21.65-2.9-32.5-.62-12.21-1.6-24.37-3.06-36.5-.85-7.15-.95-14.4-2.11-21.49-2.53-15.44-5.31-30.85-5.85-46.51-.3-8.62-2.44-17-3-25.5-.74-11-2.94-21.69-4.63-32.49-1.81-11.55-4.2-23-6.44-34.51-1.57-8-2.23-16.44-5.26-23.88-3.48-8.54-4.35-17.39-6.15-26.13-1.85-9-2.66-18.14-5.42-27-5-16.11-11.19-31.89-14.59-48.46-3.31-16.14-8.76-31.7-11.85-47.93-2.57-13.44-8.09-26.29-11.62-39.58C287,93.33,284.19,73.57,276.92,55,272.43,43.59,269.26,31.8,266,20V13c.84,4.1-1.56,7.61-2.15,11.48C262.7,32,262.7,39.5,262.07,47c-1,12.3-2.13,24.59-2.28,37-.12,9.14-1.25,18.33-2,27.49-.79,10.33-.73,20.82-2.19,31-1.93,13.5-3,27-3.9,40.53-.42,6-.6,12-.71,18-.43,24-.18,48-1.25,72-.59,13.18-.87,26.35-.68,39.51A304.57,304.57,0,0,0,251.79,346c.59,4.74,1,9.62,1.27,14.47,1.84,32.65.06,65.35,1.18,98,.44,13,1.53,26,2.53,39,1,13.58-.09,27.32.32,41,.4,12.84,1.43,25.68,2.54,38.49q.3,3.51.33,7c.13,11.42,1.83,22.68,2.86,34,.68,7.49,1.16,15,2.17,22.48,1.33,9.86,2.23,19.78,4.45,29.51a43.63,43.63,0,0,1,1.43,11.48c-.23,5.22,2.15,9.82,2.42,15,.37,7,2.29,14,2.66,21,.6,11.54,1.24,23,2.87,34.53.65,4.56.75,9.31,1.16,14,.6,6.9,1.74,13.7,2.8,20.53.74,4.81,1.3,9.65,2.11,14.49,2.61,15.68,4.94,31.4,8.1,47q5.55,27.24,11,54.5c1.41,7,4.9,13.4,6,20.5"/>
    <path class="vase" d="M471,913a98.34,98.34,0,0,1-21,1.09c-10.9-.47-21.75,1.84-32.5.28a126.62,126.62,0,0,0-26-.69c-10.16.63-20.37,2.63-30.49,1.64-13.86-1.36-27.69-.67-41.52-.75-35.67-.21-71.33.12-107-.19-10.49-.08-20.95-2-31.5-1.87-1.84,0-3.67.16-6.22.28.76,7.55.64,15,1.51,22.17a200.26,200.26,0,0,1,1.38,21c.21,14.22,2,28.3,2.51,42.48.41,10.83,1.6,21.64,1.89,32.51.35,12.84,1.35,25.66,1.89,38.5.25,5.84.28,11.67.95,17.51,1.3,11.3,2.15,22.65,3.07,34,.47,5.82.21,11.66.73,17.53.58,6.43.92,13,1.44,19.46,1.31,16.17-.5,32.45,1.12,48.48,2.09,20.7,1.3,41.36,1.78,62,.11,4.85,1.69,9.59.66,14.75H462c0-1.2,0-2.22,0-3.25a284.05,284.05,0,0,1,1.23-41.48c2.9-28.17.8-56.37,2-84.51.45-10.84,0-21.74,1-32.49,1.38-14.86.76-29.69.7-44.52-.09-22.2.54-44.38,2.22-66.49,1.58-20.83,1.95-41.65,1.9-62.51,0-9.84-.29-19.7.95-29.5.22-1.69.4-3.54-1-5Z"/>
</svg>
