<svg viewBox="0 0 1137.08 2814.29">
  <g class="youngMomSock">
    <path d="M858.08,2412.31c22.1,48.22,41.94,93.81,58,102.22-8.33,44.43-94.39,84.29-111.4,36.79-7.36-24.92-22.75-51-38.17-76.21Z"/>
    <path d="M685.6,2520.23c0,45.8-9.07,97.11,2,112C672.29,2679.33,598.73,2670,554,2638c20.42-13.8,20.62-41.59,20.07-122.71Z"/>
  </g>
  <g class="soleLightTanDark">
    <polygon points="917.6 2660.08 935.58 2682.45 887.77 2679.52 917.6 2660.08"/>
    <polygon points="643.18 2803.25 593.24 2784.1 643.18 2772.74 643.18 2803.25"/>
  </g>
  <g class="soleLightTan">
    <path d="M979,2604.05c7.56,11.5,10.64,21.76,13.82,37.41-7,11-32.23,29-57.24,41l-18-22.37Z"/>
    <path d="M702.25,2748.19c-.09,11.75-2.89,26.26-6.65,41.77-7.13,8.82-34.58,13.65-52.42,13.29v-30.51Z"/>
  </g>
  <g class="youngMomShoe">
    <path d="M916.05,2514.53c27.93,10,70.6,74.68,63,89.52-33.4,64.77-93.17,62.66-152.38,117.1-50.83,46.72-106.87,42-138.15,28.47-.09-61.25,19.14-66.36,44.18-69.6C784.82,2673.25,919.7,2565.2,916.05,2514.53Z"/>
    <path d="M687.58,2632.25c17.3,34.24,24,78,14.67,115.94-32.55,31-95.94,32.88-146.9,51.63-45.4,16.7-124.07,19.18-161.62,0-16.11-43,13-60.56,54.72-76.36C503.36,2722.77,663.41,2722.77,687.58,2632.25Z"/>
  </g>
  <g class="youngMomShoeStripe">
    <path d="M893.23,2676.63c-17.1-68.59,46.29-101.07,53.74-137.19h0c-10.31-11.87-21.46-21.53-30.92-24.91-16.55,32.82-49.39,48.6-84,55-1.47-20.47-17.31-26.08-30.39-20.18-12.16,43.57-35.06,107.82-69,130.7,25.24,36.51,72.47-15.29,94,41.13C849.24,2700.35,893.23,2676.63,893.23,2676.63Z"/>
    <path d="M701.61,2671.05a175.61,175.61,0,0,0-14-38.8c-13.13,19.62-34.59,30.69-63.5,24-12.11-18.77-44.44-29.39-63.72-17.28,0,0-4-6.31-7.78-3.82-33.33,26.79-58.11,70.85-104.13,88.28,2.45,44.61,89.13-16.54,106.9,76.36,24-8.83,50.75-13.91,75.75-20.06C633.78,2707.7,693.27,2712.06,701.61,2671.05Z"/>
  </g>
  <path class="youngMomPants" d="M849.7,1353.82c-.93,61.93,22.15,52.7,10.29,95.17,14.16,115.62-38.91,187.16-75.45,381.53-13.89,73.89,2.86,86-33.44,120,1.89,21.38,10.68,45.66-12,65.16,16.65,21.81-3.15,51.81-3.43,88.31,43.12,59.81,87.88,195.1,143.18,309.52-15.7,26-114.1,77-142.33,76.31A551.75,551.75,0,0,0,715.09,2435c-1.94,27.35-6.74,59.95-8.58,95-63,22.52-83.36-6.88-146.61-6,4.1-138.87.89-262-5.73-415.06-98.47-192-138.5-666.15-123.58-748.58Z"/>
  <g class="youngMomShirt">
    <path d="M881.47,646.63c57.48,33.1,85.26,98.77,83.29,187.63,21.52,10.48,7.37,44.51,13.4,67L848.29,965.55c-22.93,129.35,24.32,124.33-10.34,196.63,31.64,46.31-13.6,65.41,0,97.13-122,39.22-259.89-144.6-395.59-368.53-14.23-4.94-27.66-15.24-33.25-30.13C463.41,754,392.22,652.87,881.47,646.63Z"/>
    <path d="M764,565.53c21.18-5,25.28,40.44,57,53.14-46.91,42.34-107.93,94-143.48,101.58C625.56,642.4,680.56,600,764,565.53Z"/>
  </g>
  <g class="clothesOverlapLine">
    <path d="M840.37,920.41C826,918.34,833.6,894.37,824,865"/>
    <path d="M735.67,2104c8.8,89.14-11.66,198.54-20.58,330.95"/>
    <path d="M554.17,2109c-11.75-141.9-16.34-318-17.91-508.66-4.94-33.88-31.76-31.76-41.64-70.58"/>
    <path d="M832,2569.5c-18,.44-37.15,12.3-48.72,34.55"/>
    <path d="M624.08,2656.28c-17.24-6.06-45.49-7.52-60.89,4.17-6.92,5.26-29.62,31.91-48.8,47"/>
    <path d="M563.19,2660.45c.2-10.37-.18-15.21-2.83-21.45"/>
  </g>
  <g class="clothesFoldLine">
    <path d="M865.46,800.44c13.95,25,31,46,52.17,61.7"/>
    <path d="M894.07,819c26.37,28.61,76.29,52.73,70.12,30.85"/>
    <path d="M821.71,765.1c-16.1,29.2-1,85.75-7.29,87.51-7.35,2-14.59-23-24.68-34.78"/>
    <path d="M839.66,798.19"/>
    <path d="M839.66,798.19C830.27,818.6,822.8,839.85,824,865c-7.11,6-20.75-7.29-30.85-7.86"/>
    <path d="M781.32,951.89c-6.17-37.58,25.24-23,14.09,25.3"/>
    <path d="M825.64,947.41c-7,8.44-11.6,17.47-12.83,27.36"/>
    <path d="M829,1120.74c-20.84,29.48-44.18,48.75-71.06,53.48"/>
    <path d="M821.71,1228.44c-7,4.88-11.55,11.55-11.2,21.81"/>
    <path d="M849.92,1428.08c-6.82,9.4-34.6,13.47-71.26,15.27"/>
    <path d="M787.38,1496.44c-159.26,15.27-198.53,55.26-203.62,49.45-7.27-8.32,16.1-20.77,36.36-30.55"/>
    <path d="M462.32,1550.25c18,10.34,32.95,22.15,42.9,36.36"/>
    <path d="M554.67,1588.07c29.82-.73,91.39-38.57,96.72-14.55,4.37,19.64-43.63,10.18-77.08,24.73"/>
    <path d="M610.67,1604.79c-25.45,2.91-85.81,12.36-37.09,26.18"/>
    <path d="M737.21,1847.68C702.3,1924.77,631,2021.49,592.49,2012"/>
    <path d="M751.1,1950.56c-9.53,9.11-16.08,17.84-18.26,30.2"/>
    <path d="M739.1,2015.72c-9.84,6.81-17.65,13.88-7,23.22"/>
    <path d="M680.48,2352.37c-17.86,53.64-42.42,111.78-32.72,146.9"/>
  </g>
  <g class="skinNordic">
    <path d="M1027,1475.82c-15.26-131.55,16.72-260.19-24.78-372.92-15.17-41.2-12.29-106-29.46-198.94-21.35,11.5-107.84,26-132.37,16.45,6.36,97.53,37.58,166.57,35.43,197.83-7,102.75,54.77,207.07,76.41,378.61-30.91,57.18-13.14,126-34.77,189.31-3.09,12.37,34,20.87,42.49-28.59,1.25-15.58,7.06-26.1,8.25-41.22,29.11,28.18,54.08,65.74,58.21,105.36-5.06,47.57,28,49.9,31.68,31.68-.37-23.74,1-52-3.86-81.91,7.44,16.41,13.77,32.7,17,48.68-3.71,44.92,32.19,49.59,32.19,33.27-1.87-6.06.4-16.92-.73-25.22,11.92,4.24,24.51,2.84,23.57-12.08-6.06-8.39-3.66-22.11-7.21-31.38,14.28,1.44,20.34-6.12,15.32-15.13-10.5-13-14.24-29.9-20.23-39.28-14-21.92-23.12-25.75-31.7-44.76C1053.82,1522.22,1029.48,1493.76,1027,1475.82Z"/>
    <path d="M207.4,1343.56c31.66-51.72,140.38-104.49,202.76-177.1l32.2-275.68a59.05,59.05,0,0,1-24.62-16c-20.06,28.5-55,118.39-73.13,137.38C275,1085,251.73,1196.85,155.68,1277.06c-38.25,34-104.53,48.8-120.21,74.68-23.59,38.91-33.61,44.81-34.2,56-1.18,15.33.82,44.81,19.69,54.83,13,6.94,26.3,20.64,33.38,11.21,23.14.78,40,14.52,45.4-4.72,15.44-9.43,35.22-8.87,34.19-16.51,18.55,1.59,24.92-12.19,12.39-23.76C161,1400.18,191.72,1400.67,207.4,1343.56Z"/>
    <path d="M764.27,506.92c-1.57,26.94-3.82,55.25,6.43,71.54C752.21,616.24,663.17,648.7,586.92,650c6-39.28,4.44-101.73-6.43-147.09"/>
    <path d="M533,446.79c13,55.26,83,96.35,147,114L881.07,308.8c65.21-381.72-521-140.28-439.91,90.84C453.24,434.09,513.22,502.35,533,446.79Z"/>
  </g>
  <g class="skinOverlapLine">
    <path d="M1042.1,1634.31c1.81,12.45,7.67,21.67,12.11,37.17"/>
    <path d="M1070.28,1622.41c13.06,26.11,17.72,30.31,24.72,57.35,6.62,25.62,3.73,32.64,7.66,48.45"/>
    <path d="M1084.27,1617.28c12.59,27,22.85,28,34.75,67.47"/>
    <path d="M184.29,1349.3c-16.1,30.23-57.33,49.87-88.75,41.23-10.6,9-21.6,13.74-27.88,14.53-11,35.34-53.8,42-51,19.24,16.1-21.6,9.82-39.27,61.26-74.61"/>
    <path d="M54.34,1473.79c8.22-16.5-1.49-29.73-15.18-38"/>
    <path d="M99.74,1469.07c3-12.51-14.25-26.27-31.79-22.49-2.47-4.76-7.54-7.79-13.48-10.25,11-2.95,19-11,24.81-22.93"/>
    <path d="M133.93,1452.56c1.18-16-22.55-26.48-37.66-14.61-21-4.32-.54-8.1,1.89-19.69"/>
    <path d="M146.32,1428.8c-10.13-6.23-25.77-4.61-32.79,4.15"/>
  </g>
  <g class="skinFoldLine">
    <path d="M365.31,1018.34a144.52,144.52,0,0,1,34.77,28"/>
    <path d="M970.8,1115.88c-22.35,4.38-42.67,9.71-57.94,17.38"/>
    <path d="M959.21,1604.84c3.37,4.78,5.62,8.16,9,11.51"/>
    <path d="M72.14,1433c3.69-2.7,11-2.49,14.82,0"/>
    <path d="M96.27,1438c-5.34,3.7-7.5,6.47-10.56,10.44"/>
    <path d="M84.77,1414.93c7.4,6.66,13.18.28,25.32,5.65"/>
    <path d="M499.42,358.34c-31-57.93-73.8,5.65-24.45,50.07"/>
    <path d="M503.28,373.05c-17.58,10.47,16.9,33.32,5.27,42.22-7,5.34-7.14-11.71-25.92-20.83-18.6-9-11.21-37.43-.79-33"/>
  </g>
  <g class="skinEdgeLine">
    <path d="M1082.92,1660.8c-4.37,3.85-9.08,6.93-14.62,8.15"/>
    <path d="M1045.81,1673.17a28,28,0,0,1-15.75,6.18"/>
    <path d="M1097.82,1650.67a23.75,23.75,0,0,1-10,6.55"/>
    <path d="M1107.28,1636.18c-2.11,3.8-4.42,5.9-7.91,6.4"/>
    <path d="M1075.73,1593.85c-3,6.14-14.06,5.35-19.81,10.7-6.45,6-15.09,3.19-22,7.57-18.78,11.85-24.13,2.74-34.83,10.27"/>
  </g>
  <path class="skinCreaseLine" d="M137.64,1403c-6-2.93-10.71-6.65-13.48-11.61"/>
  <g class="head49">
    <g class="hairBlonde">
      <path d="M436.66,386.73c-20,13.09-29.91,53.52-10,75.08-24.21-13.38-23.94-66.86-3-94.75C435.05,369.6,440.23,375.69,436.66,386.73Z"/>
      <path d="M400.84,156.81c-19.19,9.71-33.87,30.7-36.21,61.88,5.84-16.75,14.31-26.86,25.2-30.87A212.46,212.46,0,0,1,400.84,156.81Z"/>
      <path d="M439.9,377.38c19.18,45.35,37.4,49,47.5,65.12,5.76,9.17,35.48,26.93,45.57,4.29-6.28,69-115.23,13-99.15-70.51-13-1.47-16.89-17.61-11.31-20.92l-1-11.81c-21.76-9.88-35.58-46.78-33.22-73.64,2.28-25.88-14.45-51.55,12.51-113.1C442.19,40.43,487.42,55.25,530.59,27.08c54-35.21,77.49-14.4,101.15-21.82,46.79-14.68,73.1,13.28,93,13.17L538.65,355.27C510.44,374.66,472.6,383.74,439.9,377.38Z"/>
    </g>
    <g class="mask280">
      <path class="skinAshkenazi" d="M895.78,210.67c-24.43,112.92,23.64,150.4.44,246.66-18.35,76.17-92.33,125.62-151,128.16-40.57,1.75-109.85-19-162.45-65.25C582.79,520.24,479.13-131.27,895.78,210.67Z"/>
      <g class="skinDisplayLine">
        <path d="M783.43,368.37c51.05-5.21,54.7,63.75,3.61,68.37"/>
        <path d="M815.46,480.67c-18.27,10-49.23,14.25-74.08,8.87"/>
        <path d="M731.51,293.82c-15.2-2.39-33.3,3.39-43.25,13.85"/>
        <path d="M836.16,283.14c-15.19-2.38-31.93,3.26-41.88,13.72"/>
      </g>
      <g class="eyeBlob">
        <ellipse cx="721.93" cy="333.57" rx="15.17" ry="30.33" transform="translate(-20.63 48.87) rotate(-3.82)"/>
        <ellipse cx="825.39" cy="323.02" rx="15.17" ry="30.33" transform="translate(-19.7 55.75) rotate(-3.82)"/>
      </g>
      <path class="hairRed" d="M848.7,85.47c-13.54-11.71-47.48-33.69-49.14-50-7-12.07-17.93-22.45-31.72-30.93-48.5,17.78-179.43,35.23-231.52,35.4-24.69,177.88-13.4,384.81,60.86,559.53a64.9,64.9,0,0,0,6.88-10.89c31.23-62.86,24.3-104.22-9.68-228.58,16.65-56.64,49-80.12,20.16-187.06,73.36-3.16,181.33,144.92,288.05,83.25C940.48,220.89,906.09,92.89,848.7,85.47Z"/>
      <path class="hairOverlapLine" d="M555.28,231c6.54,53.95,25.92,83.37,39.1,129"/>
      <path class="maraHeadband" d="M848.7,85.47C773.79,47.63,599.44,105,555.28,231,520.45,66.64,716.73-2.2,799.56,35.43,819.83,41.38,850.06,72.36,848.7,85.47Z"/>
      <path class="maskBand" d="M422.51,355.36c28.64,4.38,73.42,2.33,111-1.05l-1.83-14.76c-37.13,4.28-81.26,7.19-110.1,4Z"/>
    </g>
  </g>
  <g class="baby">
    <path class="bonnet" d="M452.68,818.85c-44.81-57.51-35.59-131.65,11.15-187.68,11.24-13.47,15.31-34.07,34.66-39.45,20.06-5,41.4-27.68,68-20.77,35.31,9.17,64.67-2.38,87.06,30.06,28.56,41.38,50.19,41.82,47.79,82.61-1.87,31.7,9.13,35.73,5.44,57.49C689.8,872.7,552.07,891.75,452.68,818.85Z"/>
    <path class="babySock" d="M694.74,1204.35c46.78,17.07,89.35,37.37,85.55,78.25-5.35,57.52-62.54,98.13-62.34,163.14.08,24.89,12.68,55.41,32.55,77.45,27.21,30.19-18.71,45.92-63.36,11.06-13.53-10.57-21-18.83-39.22-24.84-28.51-9.43-34.31-25.33-20.16-44.44,39.2-52.93,17.13-101.25,49.74-161.53-5.39,2.7-12,3.86-17.24,4.36C679.65,1277,690.6,1242.22,694.74,1204.35Z"/>
    <path class="harness" d="M846.72,1280.33c1-13.79.9-28.32-8.09-27.42-73.26,5.84-90.76-75.22-86-182.87,36.58.8,80.93-3.52,110.51-18.31-6.05-23.91-13-52.46-17.85-85.18-30,10-60.08,13-93.5,12.15-8.74-162.61,55.41-367.26,145.81-318.43,2-10.08-9.64-20.63-21.47-22.95-11.15-2.18-18.44-10.15-28-15.26-37.07-19.74-74.88,9.89-105.67,58.22C708.66,733.36,671.2,813.73,643.77,829c-22.4,12.44-151.12,12.1-191.09-10.12C393.94,899.8,430,1024.66,397,1139.65c-17.77,61.94-5.15,113.75,28.21,153.27-6.54,8.19-9.11,18.83-6.54,30.63a57.42,57.42,0,0,1,0,23.15c-2.88,15.28,2.64,25.1,17.14,29.14a647.6,647.6,0,0,0,207.12,23.37c68.87-3.56,132.33-19.55,198.71-30.37,16.28-2.66,20.93-13.26,13.82-33C852,1326.22,845.37,1298.31,846.72,1280.33Z"/>
    <path class="babyOverlapLine" d="M425.21,1292.92c60.2,62,206.1,42.93,235.05,14.88"/>
    <g class="babyDisplayLine">
      <path d="M752.68,1070c-12.87-.3-21,.06-30.23-1-13.22-1.52-6.88-88.84,6.73-90.69,7.53-1,13.87.28,22.66.36"/>
      <path d="M463.83,631.17c21.4-18.08,73.8-24.81,104.74-12.3,55.87,22.61,68.15,68.57,66.47,115.85-1.31,36.76-15.55,85.78-61.34,102.48"/>
    </g>
    <g class="babyCreaseLine">
      <path d="M520.2,592.06c-4.83,7.54-12.79,12.07-23.75,13.72"/>
      <path d="M556.7,585c-7.62,18.66,16.66,27.26,40.93,13.6"/>
      <path d="M636.93,623.51c-19.56,21.57-1.93,37.54,30,33.23"/>
      <path d="M652.74,702.3c-10.64,20.41,8.91,35.94,33.35,35.07"/>
    </g>
  </g>
</svg>
