<svg class="presence" 
    xmlns="http://www.w3.org/2000/svg" viewBox="0 0 1129.96 2785.22">
    <g class="youngMomSock">
        <path d="M1039,2501.09c-26-11-44.54-38.57-59.54-71l-95.4,58.11c15.66,27.3,33.86,57.67,31.84,82.48C933.32,2623,1037,2565.4,1039,2501.09Z"/>
        <path d="M359.88,2630.59c-4.65-22.12,8-56.67,20.58-91.15l-103.67-26.62c-8.83,37.22-18.33,76.35-44.47,85.42C211,2647.65,335.52,2663,359.88,2630.59Z"/>
    </g>
    <g class="solLightTan">
        <path d="M1111.94,2589.23c8.76,10.62,12,21.59,16.91,36.81-16.75,21.45-37.21,39.22-60.77,53.88l-20.3-20.3Z"/>
        <path d="M357.44,2741.4c-.36,13.76-5.09,24.19-11.42,38.86-26.72,5.18-53.81,5.14-81.21.72l-2-28.63Z"/>
    </g>
    <g class="youngMomShoe">
        <path d="M1039,2501.09c28.84,6.9,72.91,71,72.91,88.14-20.94,74.72-84.9,77.08-139,136.57-47.93,52.67-109.17,63.8-167,49.95-19.63-73.37,36.61-64.12,59.16-80.36C944.66,2676.9,1054.48,2574.65,1039,2501.09Z"/>
        <path d="M359.88,2630.59c17.23,24.14,8.82,97.88-2.44,110.81-64.13,31.53-121,1.37-202.22,9.63C83.31,2758.34,34.47,2733,1.16,2709c17.46-60.93,65.76-48.06,93.44-45.5C143,2697,334.29,2681.66,359.88,2630.59Z"/>
    </g>
    <g class="youngMomShoeStripe">
        <path d="M1039,2501.09c-6,37.52-56.52,84.38-95.35,86.69.79-19.94-17.38-27.36-29.75-20.08-2.82,43-24.29,110-48.88,127.69,24.75,24.65,78-12.92,107.86,30.41,21.84-24,45.29-38.71,66.86-52.62-28.26-55.08,32-103.63,30.06-150.92C1059.31,2511.56,1048.37,2503.33,1039,2501.09Z"/>
        <path d="M155.22,2751c31.87-3.24,60-.56,86.29,2,18.76-58.59,100.14-54.91,128-83-.68-16.1-3.56-30.89-9.67-39.44-24.42,23-99.12,6.5-122.28-8.54,9.34-11.78,2.44-24-5.28-26.81-32.91,29.66-107.56,71.05-137.72,68.25C82.12,2707.93,159.08,2698.39,155.22,2751Z"/>
    </g>
    <path class="youngMomPants" d="M828.16,1368.12c18.06,54.2,14.8,155.52-23.86,225.45-8.29,15,4,45.08-14.31,69.18-45.5,350,30.11,288.83-10.74,344.73,20.19,6,26,18.6,19.09,37,30.7,13.66,23.29,39,34.82,54.21,30,39.57,101.52,206.54,159.61,322.73-1.19,41.75-116.9,89.47-141.95,83.5-20.8-66.13-99.32-174-140.75-252.88-46.88-89.28-116.9-138.37-124.06-256.46-22.66,38.17-28.21,105.63-51.29,121.67-15.51,118.09-73.08,273.05-124.37,435.28-31,6-132.41-17.51-151.49-35.4,15.35-44.36,23-155.19,50.41-249.43,20.11-69.07,33.4-169.54,60.84-284,15.44-64.47,42.94-399.61,108.55-598.81Z"/>
    <g class="youngMomShirt">
        <path d="M819.77,1283.31c4.54-20.92,4.16-39.84-2.52-56.21,21.88-17.69,5.42-33.19,13.25-61.66C858,1144,825.17,1120.2,842.1,1035c49.06-140.66,30.49-340.27-7.18-391.49C593.76,440.23,193.18,1469.08,819.77,1283.31Z"/>
        <path d="M604,729c-2.33-18.44,3.75-45.42,13.1-71,7.58-16.54,155.77-82,191.61-68.24,16.82,14.48,21.37,43.8,30.4,52.83-.07,4.07-17.59,11.5-27.4,13.34C727.64,619.17,654.53,627.57,604,729Z"/>
    </g>
    <g class="clothesOverlapLine">
        <path d="M650.35,685.51c-31.81,74.66-21.82,110.59-34.47,125.9-12,8-12.64,61.22-5.87,62.6"/>
        <path d="M774.92,830.7c-8,31.94-20,81.19-30.3,74.87"/>
        <path d="M586,1995.56c35.81-79.91,83.88-178.16,114.19-267,17.89-52.45,47.45-87.82,81.52-111.84"/>
        <path d="M943.68,2587.78c-17.39.07-30.14,13-39.87,34.22"/>
        <path d="M237.6,2622.05c-13.15-7.2-31.84-2.79-53.22,7.29"/>
    </g>
    <g class="clothesFoldLine">
        <path d="M723,777.47c-26.62,27.28-69.87,48.58-102.48,47.91"/>
        <path d="M783.57,764.83c2.79,16.68-1.36,39.82-8.65,65.87,13.37-7.25,32.3-59,26.62-93.82"/>
        <path d="M830.5,1165.44c-8.32,3.84-16.08,9.13-22.36,18.23"/>
        <path d="M817.25,1227.1c-4.46,3.68-8.94,7.16-12,8.09"/>
        <path d="M787.34,1640.32c-15.73,9.63-31.72,15.43-48,16"/>
        <path d="M749.81,1991.3c-16.59,31-36.54,56.43-63.94,69.5"/>
        <path d="M779.25,2007.48c-16.93,18.57-57.24,37.34-15.54,44.29"/>
        <path d="M798.34,2044.46c-5.73,5.49-7.34,11.58.82,19.12"/>
        <path d="M838.78,2262.36C852.16,2337,867,2413.17,852,2455.57"/>
        <path d="M534.72,2117.23c-9.36,6.84-17.22,14.53-19.13,25.58"/>
        <path d="M538.53,1801.56C498.75,1892.83,456,1977.75,391.88,2017"/>
    </g>
    <g class="baby">
        <path class="bonnet" d="M367.58,844c-108.79-80.59-69.93-229.59,49.71-266.58,42.67-13.19,50.51-37.33,62.84-37.25,22.35.13,21.14,22.89,44,31.7,29.56,11.37,19.22,24.26,44,37.81,34.28,18.76,11.55,34.28,27.78,51.6,11.34,12.09,15.61,30.9,8.33,46.16C548.76,840.41,468.76,918.52,367.58,844Z"/>
        <path class="harness" d="M541,1211.11c57,43.74,140.75,64.45,253.18,48,24.57-3.59,37.64-1.46,37.11,19.88s-5.74,38.41,2.65,59.34,10.78,37.21-11.27,39.76c-63,7.29-113.1,2.72-176.29,9.28-70.26,7.29-131.23,21.87-194.19,24.52-37-132.25-128.57-68.52-151.74-187.87-11.22-57.75,27.84-131.56,27.8-199.84,0-57.56,5.16-113,26.51-163.7,7.7-18.27,21.24-23,40.9-22.6,29.55.66,57.69,6.18,91,13.32,62.11-54.83,91.63-123.48,162.17-193.65,58.91-58.6,191.74-41,221.57,69,32.3,119.18,2.29,303-25.19,322.1-103.4,71.83-208.27,34.07-305.53,23.2ZM841.54,877.56c34.56-93.46-4.08-233.34-121.74-230.89-80.61,1.68-181.36,183.87-183.88,336.68C658.51,988.39,793.55,1007.34,841.54,877.56Z"/>
        <path class="babySock" d="M511.54,1232.22c42.15,23.78,82.58,58.63,70.74,98-16.64,55.31-76.51,91-95.31,151.81-6.92,22.36,8.63,32.65,16.41,52.77,3.13,8.11,9.41,14.35,13.82,18.64,29.19,28.43-27.56,39.06-64-2.49-11.32-12.9-28.3-16.66-44.93-26.15-26.07-14.9-29.7-32.93-10.94-47.55,55.5-43.26,29.83-103.64,80.92-151.14a28.85,28.85,0,0,1-12.65,1.81C459.26,1291.15,472.67,1247.36,511.54,1232.22Z"/>
        <g class="babyDisplayLine">
            <path d="M539.64,1071.93c-12.47-1.43-20.8-.27-29.81-1.7-13.15-2.09-11.07-86,2.54-87.88,7.53-1,14.76.92,23.55,1"/>
            <path d="M417.29,577.43c12.26-1.52,19.21,8.2,29.91,14.4,29.28,17,22.6,25.43,53.18,54.62,29.22,27.89,51.64,91.45,34,153.64"/>
        </g>
        <g class="babyCreaseLine">
            <path d="M498.59,583.27c-13.8,5.41-38.42,1.8-27-11.7"/>
            <path d="M555.93,636.11c-20.41,10.51-55.17,3.47-50.48-17.16"/>
            <path d="M585.35,712.36c-21.32,4.5-40.83-2.7-41.73-22.82"/>
        </g>
    </g>
    <g class="skinNordic">
        <path d="M406.32,1294.5c77.74-46.27,169.74-64.92,223.35-131.63,41-51,80.4-143.54,115-257.3-31-3-111.38-25-134.61-31.56-30.37,87.55-47,167.36-61.94,178.08-53.12,42.57-87.55,112.57-197.14,182.25-13.94-21.67-35.56-27.38-44.3-27.9-2.57-12.33-29.8-25.18-37.51-5.14,1.54,14.39-6.17,13.88,1.95,28.85-8.91,6-9.73,21.37-5.07,40.55,3.39,13.94-1.68,28.22,12.94,32.41,18.46,5.82,2,27.18,27.18,27.69,18.5,1,17.24,11.85,32.46,8.74,10.38-2.13,20.69,4,33.32-3.6C403.41,1317.06,399.05,1300.18,406.32,1294.5Z"/>
        <path d="M660.72,584.16c3.53,13.08,3.09,28.73-1.79,47.27,45-21.87,113.91-47,143.38-43.22-8.32-28.42-20.59-85.8-18.36-95.83"/>
        <path d="M400.33,583.64c-6.68-18-27-15.76-39.44,4.59-3.2,5.22-7.89,8.72-12,10-19.61-14.91-38.7,11-26.66,24.68-18.62-8.61-30.78,18.75-18.57,29.31-12.5,3.32-19.43,22.36-9.59,32.47-19.1,14.12-7.31,36,8.21,33.58,13.19-2,24.5-1.78,22.6-14.56,18.68,1.66,27.74-10.38,21.93-22.42,28.24,5.4,28.65-22.43,9.55-34.88,25.33,5,31.12-18.44,7.87-36.89C367.09,596.49,386.74,597.41,400.33,583.64Z"/>
    </g>
    <g class="skinOverlapLine">
        <path d="M271.07,1230.15c3.75,5.55,10.5,9.41,11.14,17.77"/>
        <path d="M348.85,598.19c7.25,5.19,9.85,6.3,15.34,11.29"/>
        <path d="M322.19,622.87c12.44,9.41,22.52,16.7,34.13,23.5"/>
        <path d="M303.62,652.18c14.34,13.23,33.67,24.27,43.15,29.07"/>
        <path d="M294,684.65c6.72,9.22,20.23,16.44,30.81,19"/>
    </g>
    <g class="skinFoldLine">
        <path d="M329.78,1242.77c5.79,1.29,11.58-3.21,21.15-8.43"/>
        <path d="M306.63,1206.44a49.21,49.21,0,0,0-9.95,0"/>
    </g>
    <path class="skinCreaseLine" d="M633.55,1101.51c-13.66,4-22.07,1-35.3-7.37"/>
    <g class="head49">
        <path class="skinNordic" d="M767.05,417.39c-7.14,14.21-13.76,34.66-40,27.54,5,37.88-23.57,101.64-76.16,142.36-32.1,24.85-79.53,46.9-94.9,48.7-65.47,7.66-38.86-58.83-61.67-63-17-4.81-3.75-23.42-3.75-23.42-7-1.18-11.58-4.32-12-12,5.22-10.74,7.29-22.31.57-29-32.71,11.15-47.45,4.28-43.07-18.39,8.33-43.16,37.09-75.13,17.34-99.88-26.11-32.72-25.36-81.78-33-117.95C329.86-50.18,955.54,216.51,767.05,417.39Z"/>
        <g class="skinFoldLine">
            <path d="M781.59,354.83c-.5,11.87-5.75,26.09-18.24,41.78"/>
            <path d="M724.82,368.71c16,7.1-7.05,34.3,4.8,38.88,8.19,3.17,3-13.74,20.67-24.87,9.07-5.71,10.78-13.52,9-20.28"/>
        </g>
        <g class="hairBlonde">
            <path d="M767.05,417.39C885.6,520.27,1002,304.8,877.9,119.89,859.7,30.21,769.65-16,694.46,6.76c-21.73,6.59-48.63-14.57-78.22,5.36C596,25.75,574.47,13,553.11,30c-35.49,28.24-42.22,3.68-71,45.7-10,14.57-119.24,91.55-61.74,196.74a413.11,413.11,0,0,1-4.95-50.79c19.71,89.57,130.86,167.14,235.68,160.25-11.34-4.4-22.36-11.61-32.55-18.42,26.93,12.09,52.64,10.84,76.61-5.15,34.37,12.73,69.17,8,100.9-11C799.59,376.12,778.18,393.17,767.05,417.39Z"/>
            <path d="M883.33,207.32c-31.39-40-23.49-108.29,6.09-99.27,22.69,6.91,30-21,49.05,6.92,22.76-26.32,55.71-14.49,56.32,10.21-8.38-16.5-24.49-19.2-31.42-4.09,18.39,4.16,32,13.48,37.62,32.58,30-4.06,38.28,43.91,7.59,64.11,30.31,24.82,36,50.94,18.27,69.08-6.43,6.59-.11,16.5-14.64,18.42,1.95,29.71-17.38,55.51-59.26,57.87,8.62,6.77,21.43,11.18,36.34,14.41C885.93,385.92,832.14,269.78,883.33,207.32Z"/>
        </g>
        <g class="hairOverlapLine">
            <path d="M796.07,347.23c9.89-4.57,17.81-12,27.42-23"/>
            <path d="M906.9,172.13c1-43.89,30.81-53.66,56.47-51"/>
            <path d="M1008.58,217.78c-8-6-17.42-11.36-27.33-11.52"/>
            <path d="M941.38,158.14c14.44,2.47,28.2,25.26,21.39,44.5-23-20.42-57.25-16.75-79.44,4.68"/>
            <path d="M1003.62,287.05c4.62,5.43,7.69,11.43,8.59,18.23"/>
            <path d="M919,225.52c-20.28,19-30.65,58.84-4.35,92.11"/>
            <path d="M992.16,249c-7.38-14.5-19.31-25.55-36.62-32.52-12.36,13.57-33,22-46.84,22"/>
            <path d="M933.74,280.83c-3.32-15.9-1.64-32.8,3.26-50.33.34,33.53,13.82,62.26,42.22,79.5"/>
            <path d="M1001,153.67c4.6,20.52,5.4,39.89-9,54.68"/>
            <path d="M938.47,115c1.71,3,2.76,5.48,2.84,7.37"/>
            <path d="M953,363.15a49,49,0,0,1-9.31-8.61"/>
        </g>
    </g>
</svg>
