<svg id="presence" xmlns="http://www.w3.org/2000/svg" viewBox="0 0 859.62 1061.55">
  <defs>
    <style>
      .cls-1 {
        fill: none;
        stroke: #000;
        stroke-miterlimit: 10;
        stroke-width: 2px;
      }
    </style>
  </defs>
  <title>perfuming</title>
  <path id="miriamDressInner" class="cls-1" d="M378.39,1045.05c-81.2-40.6-159.12-15.08-108.23,5.91C284.33,1056,325,1047.78,378.39,1045.05Z"/>
  <g id="skinWhite">
    <path class="cls-1" d="M857.84,894.34C799.79,843.12,707.6,781.66,641.58,745.23L424,787.76,707.6,969.46Z"/>
    <path class="cls-1" d="M520.93,1060.52c-85.37-10.24-176.43-9.1-255-36.42C244,891.89,290,808.37,424,787.76,551.52,848.09,671.17,900,707.6,969.46Z"/>
    <path class="cls-1" d="M199.57.28c12.78,43.6,9.5,81.82-43.84,103.24C24.62,494.61,701,467.69,467.25,94.07c-44.86-18.08-97.56,0-107.1-76"/>
  </g>
  <path id="miriamDress" class="cls-1" d="M97.36,643.89c-3.13,15.63-22.6,17.65-10,43.17-10.63,63.77-34.26,112-17.71,179.3,26.55,108.06,110.48,145,200.47,184.6-16.33-7.21,20.23-9.78,27-46.51,8.12-43.88-10.73-96.41,52.92-166.28,52.29-57.41,162.35-1.94,182.22-26.45,45.09-55.65,104.85-58.31,168.7-34.09-22.16-18.32-48.18-28.14-69-38.21-12.62-6.11-12.9-23-39.61-22.16-12.76-2-19.48-10.07-31.56-14.1,3.31-18.7-21.49-18.8-30.89-40.95,12.54-17.41-18.68-22.26-13.43-65.8,20.7-26.43-18.77-29.1-5.47-88.46,18.14-21.59,11.45-31.62,8.67-53,64.33-89-8.67-127-28.89-181-15.46-71.56-42.61-162.88-71.29-193.59-6.3-7.92-14.75-3.38-13.3-.32,35.62,39.38,59.48,129.2,76,202.54-42.7,39.16-207.8,46.69-261.56,17C206,226,176.9,131.46,155.73,103.52c-2.8-3.68-11,.44-9.41,4.71,17.38,23.62,47.8,111.24,64.44,192.73L94.14,566.23C105.79,593.06,72.62,618,97.36,643.89Z"/>
  <path id="clothesOverlapLine" class="cls-1" d="M248.75,762.7c107.55-25.45,208.8,53.79,264.84,55.6"/>
  <g id="clothesFoldLine">
    <path class="cls-1" d="M463.63,419c-56,16.68-111.75,26.94-167.28,29.64"/>
    <path class="cls-1" d="M420.58,447.22c-50.82,10.59-105,21.56-145.4,19.77"/>
    <path class="cls-1" d="M166.25,494.61c24.32,22.89,57.11,40.88,92.7,50"/>
    <path class="cls-1" d="M208.84,549.56c18.32,10.4,44.52,14.78,72.69,17.65"/>
    <path class="cls-1" d="M519.75,455c-8.34,8.67-15.32,17.28-10.95,25.41"/>
    <path class="cls-1" d="M511.08,508a199.21,199.21,0,0,1-84.15,49.38"/>
    <path class="cls-1" d="M516.55,596.41C492.09,620.27,464,640.1,430.46,654"/>
    <path class="cls-1" d="M467.16,608.85c-65.64,55-157.39,74.82-211,45.17"/>
    <path class="cls-1" d="M94.14,566.23c17.29,50.12,78,54.29,71.64,71.56-4.94,13.41-27.52,2.82-39.52,1.41"/>
    <path class="cls-1" d="M97.36,643.89c36.18,27.39,78.24,37.25,123.47,37.66"/>
    <path class="cls-1" d="M87.4,687.06c14.15,14.25,33.48,22.36,23.33,31.19"/>
    <path class="cls-1" d="M530,662.21c-14.12,5.22-57.88,5.22-85.41,22.16"/>
    <path class="cls-1" d="M130.61,783c44-50.52,126.87-53.39,191.17-52.09"/>
    <path class="cls-1" d="M560.87,703.16c-35.33-16.77-92.13,11.5-128.87,42.5"/>
    <path class="cls-1" d="M529,683.93c-39.65-8.93-97,39.34-160.16,48"/>
    <path class="cls-1" d="M592.43,717.26c-15.55.89-27.94,3.88-36.43,9.45"/>
    <path class="cls-1" d="M601.35,734.75c-22.86-1.21-44,5.13-63.15,19.52"/>
    <path class="cls-1" d="M276.37,947.93c-22.68,30.38-49.5,50.18-83.68,51.18"/>
  </g>
  <g id="skinWhite-2" data-name="skinWhite">
    <path class="cls-1" d="M530.28,94.07c43.8,186.64,161.88,217.75,102.84,362.49-10.62,26-41.76,22.44-70.47,5.08C480.53,412,511.87,177.87,456,101.69"/>
    <path class="cls-1" d="M146.32,108.23C.82,170.25,42.24,269.32,15.42,369c-16.41,61-23.49,151.73,4.45,193,18.52,27.36,47.71,19.08,88-2.8,70.74-38.46,94.22-169.24,160.25-260.65"/>
  </g>
  <g id="skinOverlapLine">
    <path class="cls-1" d="M22.2,467c7.73-31.12,43.56-47.42,80-81.28,27.29-25.35,50.11-64,85.32-115.82"/>
    <path class="cls-1" d="M148.54,276.74c-.24,26.25-7.22,41.94-8.61,63.83"/>
    <path class="cls-1" d="M370.14,282c1.79,12.54,4.83,23.46,7.1,33.18"/>
  </g>
</svg>
