<svg viewBox="0 0 156.04 238.17">
  <path class="hairBlonde" d="M84.42,20.66c5.14-8.9.46-21.81-10.87-19.12-12.48-2.3-35-3.69-49.88,15.62-5.25,7.06-10.52,10.48-12.46,23.37-3,23-6.44,28.08-10,44.92-3.39,17.13,5.15,26.2-.82,34.3,3.18.56,6.2-1,9.09-4.14,4.73,15.4,31.9,15.86,41.29,7.21Z"/>
  <g class="hairOverlapLine">
    <path d="M82.09,9.82c-3-3.3-8.08-4-12.48-1.39"/>
    <path d="M24.84,67.48a54.12,54.12,0,0,0,9.83-7.79"/>
    <path d="M42.71,47.35a54.16,54.16,0,0,0,2.56-5.7"/>
  </g>
  <g class="hairEdgeLine">
    <path d="M70.9,3a13.32,13.32,0,0,1,2.65-1.45"/>
    <path d="M66.26,3.22C58.29.77,49.33,5.5,43.93,20.87c-2.79,7.92-1.48,17.83-7.5,28.73"/>
  </g>
  <path class="miriamDressInner" d="M81.74,235.53c-12.51-6.25-24.51-2.32-16.67.91C67.25,237.22,73.52,236,81.74,235.53Z"/>
  <g class="miriamPantyhose">
    <path d="M155.59,212.32c-8.94-7.89-23.14-17.36-33.31-23L88.77,195.9l43.68,28Z"/>
    <path d="M103.7,237.92c-13.15-1.58-27.18-1.41-39.28-5.61C61,211.94,68.13,199.08,88.77,195.9c19.64,9.29,38.07,17.3,43.68,28Z"/>
  </g>
  <path class="skinNordic" d="M47.56,62c5.42,2.57,7.18,16.53,6.06,18.68-1.44,2.74-3.3,4.62-7.63,5.93-22.41,9.55-16,24.81-20.16,40.16-2.53,9.39-3.31,23.17.68,29.73,2.31,3.78,5.18,3.46,11.45.66,0,0,111.73-18.48,57.47-72.73-8-4.24-13.68,4.67-16.24-20.4"/>
  <path class="miriamDress" d="M38.45,172.2c-.48,2.41-3.48,2.72-1.53,6.65-1.64,9.82-5.28,18.78-2.73,29.16,4.09,16.64,17,22.33,30.88,28.43-2.52-1.11,3.11-1.5,4.16-7.16,1.25-6.76-1.65-14.85,8.15-25.61,8.06-8.85,25-.3,28.07-4.08,7-8.57,16.15-9,26-5.25-3.41-2.82-7.42-4.33-10.63-5.89-1.94-.94-2-3.54-6.1-3.41-2-.31-3-1.55-4.86-2.17.51-2.88-3.31-2.9-4.76-6.31,1.93-2.68-2.88-5-2.07-11.67,3.19-4.08-2.89-7.57-.84-16.71,2.79-3.33,1.76-4.87,1.33-8.16,9.91-13.71-1.33-19.56-4.44-27.88-2.39-11-6.57-25.09-11-29.82-1-1.22-2.27-.52-2,0,5.49,6.07,9.17,19.9,11.71,31.2-6.58,6-32,7.19-40.29,2.62-2.27-11.34-6.75-25.9-10-30.21-.43-.56-1.7.07-1.45.73,2.68,3.64,7.37,17.13,9.93,29.69L38,157.16C39.75,161.29,34.64,168.22,38.45,172.2Z"/>
  <path class="clothesOverlapLine" d="M61.77,192c16.57-3.92,32.16,8.29,40.8,8.57"/>
  <g class="clothesFoldLine">
    <path d="M94.87,134.48A108.75,108.75,0,0,1,69.1,139"/>
    <path d="M88.24,138.82c-7.83,1.64-16.18,3.33-22.4,3.05"/>
    <path d="M49.06,146.12a33.15,33.15,0,0,0,14.28,7.71"/>
    <path d="M55.62,154.59c2.83,1.6,6.86,2.28,11.2,2.72"/>
    <path d="M103.51,140c-1.28,1.34-2.36,2.66-1.68,3.91"/>
    <path d="M102.18,148.18a30.84,30.84,0,0,1-13,7.61"/>
    <path d="M103,164.89a41.87,41.87,0,0,1-13.26,8.87"/>
    <path d="M95.41,166c-10.11,8.48-24.24,11.53-32.5,7"/>
    <path d="M38,157.16c4.88,13,12,11,11,13.64-.76,2.06-4.24.43-6.09.22"/>
    <path d="M38.45,172.2c5.58,4.22,12,5.74,19,5.8"/>
    <path d="M36.92,178.85c2.18,2.19,5.15,3.44,3.59,4.8"/>
    <path d="M105.09,176.56c-2.17.81-8.92.81-13.16,3.42"/>
    <path d="M43.57,195.16c6.78-7.78,19.55-8.22,29.45-8"/>
    <path d="M109.85,182.87c-5.44-2.58-14.19,1.77-19.85,6.55"/>
    <path d="M104.94,179.91C98.83,178.53,90,186,80.27,187.29"/>
    <path d="M114.71,185a11.57,11.57,0,0,0-5.61,1.46"/>
    <path d="M116.08,187.74a14.47,14.47,0,0,0-9.72,3"/>
    <path d="M66,220.57c-3.5,4.68-7.63,7.73-12.89,7.89"/>
  </g>
  <g class="perfume">
    <path class="bottleSide" d="M57.45,116.09c0,1,3.8,1.83,8.48,1.83s8.47-.82,8.47-1.83v-24h-17Z"/>
    <ellipse class="bottleTop" cx="65.93" cy="92.06" rx="8.47" ry="1.84"/>
    <path class="capSide" d="M63,92.06c0,.42,1.29.76,2.89.76s2.88-.34,2.88-.76v-4.7H63Z"/>
    <ellipse class="capTop" cx="65.93" cy="87.36" rx="2.88" ry="0.76"/>
    <path class="tipSide" d="M64,87.36c0,.28.85.5,1.89.5s1.88-.22,1.88-.5V83.81H64Z"/>
    <ellipse class="tipTop" cx="65.93" cy="83.81" rx="1.88" ry="0.49"/>
  </g>
  <g class="skinNordic">
    <path d="M92.6,83.52c9.56,11.81,4.87,49.88,17.52,57.53,4.43,2.67,9.22,3.22,10.86-.79,9.09-22.29-9.1-27.08-15.84-55.83,4.62-4.24,6-8,7.86-11.61a5.9,5.9,0,0,0-.27-5.15c.15-2.81-1.65-4.3-2.91-6.22-1.13-1.73-.6-4-4.13-4.79-3.23-2.34-3.77-.78-5.8.48-.66-1.44.65-5-2.46-4.61-4.37,1-2.87,8.62-5.21,12.69C88.39,71.9,87.55,78.63,92.6,83.52Z"/>
    <path d="M26.87,141.88c1.2-4.8,6.71-7.31,12.33-12.52,4.2-3.91,7.67-9.77,13.09-17.76-2.6-13.48,2.43-16.08.59-22.31,1.45-2.3,4.44-.87,4.94,3.26,1-3.33.73-6,2.94-9.3,4.08-6.07,4.11-4.49,7.48-4.86,2,.46,1.44,3.61-2,5a15.76,15.76,0,0,0-2.31,10.34c2.88-2.16,5.64-5.31,7.27-5.44a3,3,0,0,1,2.87,4.63c2.23,1.1,3.31,2.12,1.66,5.28,1.56-.47,3.64,1.19,3.36,2.55a15.88,15.88,0,0,1-3.47,7.72c-5.46,6.4-9,5.61-10.85,7.42C53.5,130.5,52,150.88,38,157.16"/>
    <path d="M57.75,68.28A30.4,30.4,0,0,0,77.11,72.1C83.52,71.18,86,71,88.55,69.94c5.76-2.31,4.78-6.13,6.12-10.37C98,49.1,94,39.15,89.83,33.89c-.4-.51.93-1.43-.69-2.45,1-2-1.24-2.84-1.27-3.64-.22-4.38-3.55-6.44-4.82-9.37a22.21,22.21,0,0,0-7-9.36c-2.24-1.3-4.6-1.73-6.44-.64C57.84,4.27,53,20.67,45.27,41.65a21.08,21.08,0,0,0,3.65,9.84,12.32,12.32,0,0,1-6.21-4.14,71.79,71.79,0,0,1-8,12.34,35.82,35.82,0,0,0,6.08,4.55c1.74,1.16,5.7,3.9,8.94-1"/>
  </g>
  <g class="skinOverlapLine">
    <path d="M46.34,112.56c0,4-1.12,6.47-1.33,9.84"/>
    <path d="M80.47,113.38c.28,1.93.74,3.61,1.09,5.11"/>
    <path d="M52.89,101.77c1.83-4.2,4-6,4.93-9.22"/>
    <path d="M74.05,92.94c-1.61-.22-2.71,2.52-4,4.23"/>
    <path d="M75.71,98.22c-.58.23-1.18,1.35-1.79,2.46"/>
    <path d="M112.73,67.67c-1.89-2.75-4.38-6-7.64-2.7-3.53,3.54-1.85,4.86-2.75,7.37.36,1.74,4.25,2.58,4.85-2.15a3.44,3.44,0,0,0,2.33,1.55"/>
    <path d="M102.51,71.74c-2.68,1.86-4.87-1-4-1.76,2.4-2.84.27-4.27,4.58-8.05,1.8-1.58,3.59-4,6.76-.48"/>
    <path d="M105.69,56.66c-3.11,0-4.36,2-6.11,3.78-3.41,3.45-2.2,5.19-3.17,6.76-.48,1.25,1.08,2.51,2.55,2.15"/>
    <path d="M96.64,66.72c-1,.29-2.79-.72-1.78-2.22,1.85-3.17.12-3.65,5-7.36"/>
  </g>
  <g class="skinFoldLine">
    <path d="M96,80.78c.4-4.16,2.64-6.73,6.68-7.81"/>
    <path d="M107.14,74.83a2.18,2.18,0,0,0-1.71-1.39"/>
    <path d="M36.24,57.78a11.56,11.56,0,0,0,3.42,2.73"/>
    <path d="M42,51.46a7.58,7.58,0,0,0-.91-1.26"/>
    <path d="M39.47,53a1.9,1.9,0,0,1,.82.11"/>
    <path d="M42.52,54.51C41,57.27,46.27,58.3,44.44,60c-1.09,1-1.1-1.7-4.4-1.84-1.32-.05-2-1.5-2.07-2.87"/>
  </g>
  <path class="skinEdgeLine" d="M61,95.58c1.27,1.71,4,.5,5.64,3.17,1.12,1.77,3.39,1.33,4.37,3.59.83,2,2.32,2,3,3.32"/>
  <path class="skinCreaseLine" d="M97.73,76A7.17,7.17,0,0,0,99,71.71"/>
  <path class="lipFemaleLight__noStroke" d="M81.88,58.05c6.62.8,9.54-2,10.5-4.18-1.32,0-2-.92-5.17-.08-4.4,1.15-6,3.08-7.78,4.28a10.62,10.62,0,0,1,2.45,0"/>
  <path class="lipFemaleLight" d="M78,58.82c3.25-2.54,4.74-7.58,6.77-7.56s2.74-1,3.78-.68c1.24.39,2.32,2.63,3.79,3.29-1.32,0-2-.92-5.17-.08C81.72,55.23,80.56,57.87,78,58.82Z"/>
  <path class="lipEdgeLine" d="M81.88,58.05c5.14.62,8.05-.91,9.54-2.66"/>
  <g class="noseLine">
    <path d="M80.31,31.65C83,39.77,93.08,39.87,87.7,46.36"/>
    <path d="M78.55,44.9a2.38,2.38,0,0,0,1.33,3.61"/>
    <path d="M81.25,47.63c2.18-4.15,2.27-.53,2.94-.57"/>
    <path d="M88.07,44.48A4.38,4.38,0,0,1,86.23,47"/>
  </g>
  <g class="eyeFoldLine">
    <path d="M72.78,37.11c-1.18,1.49-5,2.62-7.07,2.21"/>
    <path d="M89.83,33.89a7.14,7.14,0,0,1-4.43.67"/>
  </g>
  <g class="eyeLashLine">
    <path d="M83.23,32.7c1.5-.36,3.6-1.7,5.91-1.26"/>
    <path d="M61.7,38.75c8.24-4.55,10.15-2.85,12.1-4"/>
  </g>
  <g class="eyebrowBlonde">
    <path d="M73.79,26.32c-1.64,4.59-10,1.19-15.75,8.41C62.58,25.94,67.87,28.27,73.79,26.32Z"/>
    <path d="M82.11,24.53c1.3,1.52,3,1.17,5.22.71a10.54,10.54,0,0,0-.92-1.84A20.92,20.92,0,0,1,82.11,24.53Z"/>
  </g>
</svg>
