<svg viewBox="0 0 1385.46 3059.07">
    <path class="hairBlonde" d="M665.61,1327.19c-50.7,65.54-225.11,92.25-272.16-1.18-15.08,23.15-32.66,36.49-53.63,36.38,29.4-58.34-53.78-155.42-17-296.79,22.26-85.53-.32-211,31.57-288.6,28.43-69.22,31-142.48,92.9-184.41,119.64-81.06,166.77-60.53,240.43-65,79.71-18.33,101.39,44.71,99.17,112.6Z"/>
    <g class="hairEdgeLine">
        <path d="M656.38,547.77c6.32-8.32,18.83-14.12,31.35-20.21"/>
        <path d="M511.14,793.55c23.3-108.23,9.46-218.17,125.79-237.68"/>
    </g>
    <g class="hairOverlapLine">
        <path d="M705.62,562.52c23.46-6,42.07.18,54.58,21.83"/>
        <path d="M446.08,995.29c21-20.32,39.9-45.38,56.22-72.43"/>
        <path d="M539.71,838c4.94-14.17,5.34-34.29,12.34-59.2"/>
    </g>
    <g class="racket">
        <path class="racketGrip" d="M154.46,675.28,1.94,969.73c-9.48,19.06,55.45,51.39,64.94,32.34L204,700.69C208.09,691.73,159.19,666.19,154.46,675.28Z"/>
        <path class="racketStrings" d="M215.51,217.86c-45.25,118.84-46.43,276,63.79,313.75,107.32,36.77,225.41-78.81,268.81-181.47,67.44-159.52,35.91-279-66.84-319.85C375.67-11.69,261.41,97.3,215.51,217.86Z"/>
        <path class="tennisRacket" d="M487.2,12C371.87-34,244.79,71.27,193.91,202.69c-27.07,69.91-36.15,146.79-28.11,209.08C177,498.56,172.3,592,154.46,675.28c2.23-4.3,14.35-.85,26.08,4.93,10.66-57.92,19.73-123.71,19.37-185,22,37.19,77.78,63.64,118.49,62.43-53.41,34.15-101.31,81-132.85,125.19,11,6.14,20.33,13.74,18.45,17.85,42.56-69.38,101.38-110.53,198.05-156.87,69.15-33.14,136-109.75,167.55-183.53C635.4,206.28,623.64,66.32,487.2,12Zm60.91,338.18c-29.05,68.72-91.57,143.22-161.92,174l-1.28.55c-34.37,14.73-70.57,19-105.61,7-110.22-37.76-109-194.91-63.79-313.75C261.41,97.3,375.67-11.69,481.27,30.29,584,71.13,615.55,190.62,548.11,350.14Z"/>
    </g>
    <g class="shoe">
        <path d="M697.79,2785.82c6.38,46.29,1.94,109.58,31.37,142-57.62,122.1-255.83,28.55-198.21-93.54,12.18-45,30.66-75.52,63.91-92.62C625.25,2726.05,694.09,2755.26,697.79,2785.82Z"/>
        <path d="M549,2828.74c15.06,20.8-13.43,64.37,47.24,127.82-146,146-213,8.53-213-50,10.65-42,22.56-67.26,50.09-95.71C462.09,2781.08,523.54,2793.54,549,2828.74Z"/>
    </g>
    <g class="soleWhite">
        <path d="M596.25,2956.56c-29.64-23.16-125-13.9-152.36,42.14-16.67-20.84-58.35-53.26-60.67-92.16-3.87,17.51-6.78,34.68-4.63,50,2.32,15.74,34.27,44.45,51.87,68.53,26.94,36.88,144.5,48.14,182.46,6C625,3017.76,617.55,2973.69,596.25,2956.56Z"/>
        <path d="M729.16,2927.84c-34.2-18.54-98.8-7-140,20.88q3.35,3.87,7.13,7.84c15.25,12.26,23.38,38.33,22.35,57.06,47.49,9.59,102.84,1.05,132.79-23.72C761.11,2977.86,755.09,2934.79,729.16,2927.84Z"/>
    </g>
    <g class="shoelace">
        <path d="M683.78,2820.48c-24.79-4.28-49.2-3.86-73.17,1.78a235,235,0,0,0,12,69c20.76-5.48,42.79-6.13,65.76-3.24A381.73,381.73,0,0,1,683.78,2820.48Z"/>
        <path d="M543.46,2870.49c-24.72-6.74-48.74-4.87-72.17,4.1,1,18.06,6.77,38.77,15.2,54.18,21.3-7.22,44.43-8.57,68.93-5.56C547.67,2905.73,544.83,2889.08,543.46,2870.49Z"/>
    </g>
    <g class="eye">
        <path class="sclera" d="M824.51,739l-238,7.77L804,683.57C819.23,694.07,828.75,721.21,824.51,739Z"/>
        <g class="irisBlue">
            <ellipse cx="713.76" cy="717.17" rx="17.08" ry="18.72" transform="translate(-245.57 395.5) rotate(-26.6)"/>
            <ellipse cx="807.8" cy="703.32" rx="15.7" ry="18.72" transform="translate(-229.42 436.15) rotate(-26.6)"/>
        </g>
        <g class="pupil">
            <ellipse cx="715.79" cy="714.02" rx="6.64" ry="7.28" transform="translate(-243.95 396.08) rotate(-26.6)"/>
            <ellipse cx="810.04" cy="700.06" rx="6.11" ry="7.28" transform="translate(-227.72 436.81) rotate(-26.6)"/>
        </g>
    </g>
    <g class="skinNordic">
        <path d="M989.66,1937.3c-9.4,174.59-64.5,392.93-110.17,507.25C825.64,2579.33,744.25,2644,685.27,2785c-1.74-22.31-68.89-22.83-80.68.82-11.45-8.16-17.19-20.26-13.9-38.61C668.44,2481.05,720,2225.17,736.5,1983Z"/>
        <path d="M753.65,1987.2c-3.66,455.17-32.58,413.87-59.18,492.68-50.56,149.84-137,243.08-152.88,364.41-8-20.38-63.64-17.81-79.08,4.82-15.36-9.8-25.63-20.92-25.77-35.9,56.19-169.09,23.93-290.67,102-418.75,10.41-17.1-71.86-317.38-62.88-434Z"/>
        <path d="M768.84,951.42c-1.16,39.1,10.17,92,30,91.19,21-.87,31.72,4.64,53.78-2.59,21.06-6.9,33.79-36.22,109.54-59.62,49.66-45.93,123.47-136.84,131-166.79,23.16-91.74,92.31-158.86,127.06-309.76-28-38.57-26.18-69.85-27-100.09-.87-32.86-2.5-53.88-8.29-76.26,8-26.69,43-6.54,44.22,36.18-.76,14.67,1.87,33.07,6.25,25.62,20.59-18,39.43-145.43,62.64-166.9,14-16.21,35.49.44,14.46,44.24-11.83,35.49-20.13,72.66-16.21,82.8,17.62-23.62,26.72-54.76,43.81-88.49,11.39-39.43,37.67-49.06,42-25-1.91,28.79-16.17,60.94-33.73,101.63,8.76-8.76,19.75-1.66,26.5,4.3,16,14.1-8.1,32.94-3.28,39.51.44,6.57,11.39,9.2,12.7,29.79,1.06,16.58-9.2,30.66-21,50.81-12.65,21.56-36.11,52.63-61.31,65.48-32.13,113.35-35.1,273.66-88.58,344.18-113.33,149.42-248.66,276.65-249.07,345.45-13.17,38.27-8.21,244.76-5.23,339.08,1.89,59.9,10.91,109.25,20.32,165,3.36,163.68-478.21,171.63-481.57,7.94,8.84-92.72,27.38-117.26,32.05-164.87,9.33-56-30.81-79.35-43.88-155.9-8.92-52.22,14.94-69.08-2.67-154-71.2-17-175.29,88.14-295.12,80.28-28.94-1.89-45.33-17.54-56.95-45.74-50.65-122.89-15.65-221-44.6-330.43l68.31-150.13c-17.87-16.17-16.8-47.19-.22-51.47,7.49-2.14,16.18,14.32,32.76,26.62,15,11.09,7.88,29.66,12.43,47.19,17,65.3-32.09,76.21-29.15,107.4,2.73,90.42,65.92,188.53,76,265,72.42-41,126.05-60.19,143.24-75,32.49-28,77.89-47,133.66-43.11,19.72,1.37,30.09-12.36,61.16-23.79,17.35-10.46,17.81-94.49-10.41-140.68"/>
        <path d="M119.37,750.86c-11.85-11.86-33.32-47.11-5.86-59.59,13.26-6,21,5.78,24.21,16.32C148.82,736.67,139.72,758.35,119.37,750.86Z"/>
        <path d="M115.82,749.86c-20.21-16.89-40-2.27-36.66,27.54-21.83.68-26.3,22.91-15,50.21-15.38-9-33.86,13.76-13.76,31.82a38.72,38.72,0,0,0-.81,18.32l7.07-13.65c10.47,6.4,17.51,5,22.7,5.53,11.58,1.1,13.69-16.31,3.35-22.14,26.07,15.44,35.09-4.37,24-22.72,24.46,7.28,28-17.18,11.64-38.23C115.18,780.79,109.9,765.34,115.82,749.86Z"/>
        <path d="M582.74,920.24c-6.81,36.55-40.52,21.6-52.52,15.13-8.41-4.38-21.38-7.85-27.92-12.51,16.8-27.75,30-53.29,37.41-84.88,10.22,10.81,28.16,14.73,38,14-13.78-15.54-27.24-43-25.68-73.21,31.08-101.86,45-198.25,128.08-200.58,6.9-7.83,17.42-14.27,25.49-15.68,27.57,14.4,59.7,48.18,72.28,66.72,13.17,19.43,20.89,13.65,34.23,53.28,3,8.79,21.36,11.08,10.43,29-6.07-20.61-35.92-10.76-37.11,10.62-.18,3.65,3.06,1.74,4.48,2.06,13.51,3.07,25.78,3.13,34.37-5.43,13.1,2,7.42,12.41,10,15,32.61,33,55.76,92.26,41.55,158.15-6.09,28.23-4.76,48.3-30.93,62.37C823.15,966,817.55,960.66,767.42,970c-42,7.78-97.79,6.46-135.63-19.06M738.36,726.25c-27-32-60.34.68-68.09,16.45,20.39-5.52,49.29,5.35,65.92-10.72C737.87,730.35,742.62,731.31,738.36,726.25Z"/>
    </g>
    <g class="skinDisplayLine">
        <path d="M741.41,1683.69c16,32.89-20.58,37.56-10.93,1.48"/>
    </g>
    <g class="skinOverlapLine">
        <path d="M463.24,1218.53a74.89,74.89,0,0,1,20.17,35.77"/>
        <path d="M679.7,1301.16c11.11,8.69,19.33,27.06,20,42.28"/>
        <path d="M746.86,1291c-9.18,12.56-11,31.11-8.11,45.57"/>
        <path d="M246.87,1203c.51,14.17-2.49,27.33-12.34,38.52"/>
        <path d="M1348.46,337.61c-26.71,16.1-28.76,31.84-37.32,38.69-6.84,12.32,14.38,35.25,39,3.76,4.48-5.72,8.47-4.85,13-11.29"/>
        <path d="M1360.09,385.54c-45.15,9.91-44.25,27.2-61.7,33.71-9.37,7.73,9.46,35.8,35.37,9.36,7.74-.13,16.56-2.44,28.38-6.79"/>
        <path d="M79.16,777.4c10.74,37,17.54,38,27.58,47.37"/>
        <path d="M64.16,827.61C70.86,839.24,77,844,82.71,847.49"/>
        <path d="M50.4,859.43a74.47,74.47,0,0,0,6.26,4.67"/>
        <path d="M155.05,808.28a23.54,23.54,0,0,0,7.95,5.58c-3.39,5.75-5.85,13.06-7.82,21.2"/>
    </g>
    <g class="skinFoldLine">
        <path d="M510.74,908c6.64,4.37,14.76,9.88,24.77,13"/>
        <path d="M538.49,867c-8.93,16.74,27.87,22.46,16.47,34.23-8,8.31-14.44-8.15-35.94-9.84"/>
    </g>
    <g class="skinCreaseLine">
        <path d="M1150.36,845.09c-14-9.94-30.27-16.74-48.61-20.72"/>
        <path d="M965.48,1107.27C953.87,1118.56,945,1133,940,1151.9"/>
        <path d="M679.64,2440.76c-22.12,7.46-43.2,8.15-62.78-1"/>
        <path d="M830,2448.37c-19.94,3.7-39,1.86-56.13-11.42"/>
        <path d="M1257.57,386c25.86,5.37,34.15,66.83,22,89.26"/>
        <path d="M1325.29,435.59a153.89,153.89,0,0,0,22,13.3"/>
        <path d="M1297.08,371.83c-3.33,15.49-1.1,30.14,8.18,43.73"/>
    </g>
    <path class="bikiniTop" d="M960.3,1354.2c-4.93,10.94,11.93,28.61-4.67,45.42-43.2,43.76-144.85,66.39-219.76-3.56-17.5,1.46-47.9,36.08-74.82,54.11-38,25.46-122.62,34.75-160.31,6.45-23.16-17.39-33.77-83.5-16.92-93.51,1.23-50.93,133.59-78.83,207.51-24,16.18,12,41.61,5.75,57.11-10.58,51.42-54.13,145.83-71.6,204.83-19.66C963.33,1317.67,969.17,1348.46,960.3,1354.2Z"/>
    <path class="shorts" d="M980.48,1715.16c6.12,31.37,13,52,9.18,67.32,2.29,18.36,11.15,32.11,1.53,41.31,17.59,39.79-3.06,87.92,12.24,133.83-22.55-12.51-35.19,29.64-51.26,9.18-10.91,35.64-32-1.61-45.9,23.48-20.66-10-29.93,28.86-53.56,6.88-11.47,16.83-33.46-1.08-48,18.61-16-17.7-39.63,15.71-53.72-11.43-17.1,28-42.4-8.27-55,16.18-11.8-27-44.21,5.9-54-23.61-20.6,19.39-51.65-6.34-63.89,10.49-16.2-26.51-50.43,6.65-56.67-22.29-16.53,23-39.73-6.78-55,4.7,8.42-31.37-1.53-62,9.18-75-7.64-7.17-10.71-21.42-4-47.44,3.87-15-9.79-38.24.92-58.9-8.15-24.32,13-50.49,23.42-83.39,60.74,45.14,196.91,58.91,246.64,62.74-.78-10.77,37.41-4.51,70.38-6.12C891,1777.89,955,1750.61,980.48,1715.16Z"/>
    <g class="clothesDisplayLine">
        <path d="M672.68,1787c-5.48,18.81-7.63,37.53-5,56.16"/>
        <path d="M648.51,1786.26c-5.5,18.31-7.58,36.11-5.69,53.31"/>
        <path d="M852.5,1784.84c5.41,17.87,7.64,35.46,5,52.6"/>
        <path d="M875.25,1783.42c5.28,16.67,5.57,34.27,3.68,50.76"/>
        <path d="M757.64,1983.83c33.07-4.84,50.75-33.3,47.79-58.25-2.68-22.69,8.11-51.89,1.72-69.66"/>
        <path d="M753.31,1997.6c7.53-16.1,7.5-39.33,1.82-67.76-4.3-21.49,4.26-42.64-2.85-71.08-6.19-24.75.86-51.76-9.73-70.92"/>
        <path d="M627.78,1840.32c-10.32,19.64-39.31,30.71-95.46,29.31"/>
        <path d="M888.22,1839.49c13.4,18.42,40.19,23.44,62.8,20.93"/>
        <path d="M617.23,2996c-21,27-136.79,37.78-173.34,2.74"/>
        <path d="M752,2951.79c-15.63,21.25-91.76,34-141.34,24"/>
    </g>
    <g class="clothesOverlapLine">
        <path d="M896.14,1890.63c-73.62,25.8-97.7,102.12-142.83,107-32.09-12.58-52.86-61-158.11-107"/>
        <path d="M544.72,2883.32c-24.54-3.54-48.57-2.22-71.89,4.61"/>
        <path d="M546.87,2896.41a170.48,170.48,0,0,0-70.52,7.07"/>
        <path d="M550.19,2909.29c-25.23-2.18-48.68-.49-69.75,6.37"/>
        <path d="M683.73,2835.46c-24.86-2.77-49-2.3-72.24,2.53"/>
        <path d="M684.45,2852.21c-24.38-3.05-48.06-2.57-70.88,2.22"/>
        <path d="M686,2869.88a242.49,242.49,0,0,0-68.79,2.49"/>
        <path d="M604.59,2785.82c5.64,7.51,4.82,21.82,6,36.44"/>
        <path d="M685.27,2785c3.54,8.36-1,20.07-1.49,35.48"/>
        <path d="M462.51,2849.11c7.72,5.46,7.25,14.74,8.78,25.48"/>
        <path d="M541.59,2844.29c4.35,7.09,1.93,16.71,1.87,26.2"/>
    </g>
    <g class="clothesFoldLine">
        <path d="M691.33,1339.06c30,21.79,65.66,55.8,98.49,71.35"/>
        <path d="M735.87,1396.06c-38.68-34-88.24-66.48-143.11-64.12"/>
        <path d="M960.3,1354.2c-16.55,6.83-35,10.75-54.85,12.55"/>
        <path d="M952.51,1372.3c-11.62,10.25-28.7,18.18-53.43,22.83"/>
        <path d="M527.38,1345.35c-16.92,3.49-32,8.85-43.56,17.76"/>
        <path d="M482.63,1404.72c7.76,3.65,18.26,4.56,30.59,2.74"/>
        <path d="M514.59,1423.64a332.17,332.17,0,0,0,131.51-18"/>
        <path d="M684.46,1370.93c-31.26-6.94-60.9-10.78-88.13-10"/>
        <path d="M650.21,1429.83c-30.27,19.4-62.71,27.94-98.18,21.47"/>
        <path d="M721,1383.53c-13.26,12.53-28,24.71-48.84,34.89"/>
        <path d="M810,1320.24c-37.27,12.67-57.1,32-77.07,51.63"/>
        <path d="M810,1338.61c-26.56,10.56-52.43,24.93-67,41.23,24.59,13.54,59.65,21.68,93.44,24.88"/>
        <path d="M861.64,1375.49c-34.31,5.67-70,5.93-99.55.63"/>
        <path d="M989.66,1782.48c-5.79,7.07-17,13.91-35.12,20.47"/>
        <path d="M991.19,1823.79c-8.05,6.91-24.45,11.51-45.87,14.72"/>
        <path d="M938.74,1887.68c-23.27,15.8-61,22-98.78,57.51"/>
        <path d="M837.77,1895.14c-34.69,16.68-95.27,22.39-143.56,16.68"/>
        <path d="M786.4,1940.8c-15.36,4.83-40.39,8.34-56.19,7"/>
        <path d="M540.12,1903c38.23,3.49,71.72,17.44,102.73,36.88"/>
        <path d="M472.49,1808.49c7,7.38,18.52,11,32.07,12.9"/>
        <path d="M475.55,1914.83c5.3,4,9.69,5.86,17.23,6.09"/>
    </g>
    <circle class="clothingSilver" cx="779.49" cy="1817.51" r="16.62"/>
    <g class="head49__edited">
        <path class="lipFemaleLight__noStroke" d="M842.93,851.69c-33.89.43-49.39,24.53-66,26.91,8.55-1.09,13.66-1.66,19.31-.45,24.56,5.23,47.43-.81,56.66-15.95C855.65,857.75,851.86,852.05,842.93,851.69Z"/>
        <path class="lipFemaleLight" d="M842.93,851.69c-33.89.43-49.39,24.53-66,26.91,22.36-17.74,9.77-45.19,38-48.91,10-1.32,17.66-10,26-3.34C846.28,830.65,853.46,840.5,842.93,851.69Z"/>
        <path class="lipEdgeLine" d="M796.28,878.15c24.56,5.23,47.43-.81,56.66-15.95"/>
        <path class="teeth" d="M809.7,850.3c-7.33,6.27-8.15,11.48-13.1,18.58,10.25-6.8,22.43-14.93,39.8-16.8C834.23,839.31,820.86,840.75,809.7,850.3Z"/>
        <g class="noseLine">
            <path d="M776.8,716.75c9.61,36.77,81.54,44.12,53.31,82.87"/>
            <path d="M770.83,792.78c-4.81,6-1.06,22,10.75,24.15"/>
            <path d="M793.93,811.56c4.07-10.1,16-20.63,14.81-5.81"/>
            <path d="M831.71,788.34c.22,6.87-5.64,12.26-11.05,17.08"/>
        </g>
        <g class="eyeFoldLine">
            <path d="M833.49,730.57c-1.7,4.3-7.29,6-13.37,6.88"/>
            <path d="M731.4,752.11c-7,8.59-26.73,9.36-35.18,6.43"/>
        </g>
        <path class="eyeCornerLine" d="M650.77,754.34a53.52,53.52,0,0,0,19.5-11.64"/>
        <g class="eyeCreaseLine">
            <path d="M779.15,702.69c14.6-15.9,40.63-11.59,46.23-5.43"/>
            <path d="M667.28,731.32c16.85-24.82,42.18-33.74,60.34-21.62"/>
        </g>
        <g class="eyebrowBlonde">
            <path d="M726.35,672.24c-5.05,24.93-73.43-3.66-105.92,59.86C650,655.92,693.24,680.05,726.35,672.24Z"/>
            <path d="M802.39,659.08c-8.62,2.84-16.72,5.78-25.84,7,9.45,6.36,19.05,5.31,30.59,3.06A95.06,95.06,0,0,0,802.39,659.08Z"/>
        </g>
    </g>
</svg>
