<svg viewBox="0 0 368.26 319.96">
  <path class="ground" d="M341.76,235.42H22.59c29.38,32,80.46,42.4,148.7,44.57,15.7,16,56.06,37.47,91.41,39.36-16.54-9.28-34.64-27.6-40.73-41.17C270.59,275.13,324.25,253.34,341.76,235.42Z"/>
  <path class="wall" d="M367.76,147.24C367.76,44.4,288.84.5,184.13.5,85,.5.5,49.36.5,147.24c0,39.39,8,67.06,22.09,88.18H341.76C358,214.17,367.76,186.44,367.76,147.24Z"/>
  <path class="cutout" d="M360.71,171.63c-4.62-19.89-6.41-43.07-3.41-57.57a17.74,17.74,0,0,1,7.9,2.69C359.9,86.7,346.52,63,327,45a38.81,38.81,0,0,0-11,10.75c7.74-.32,15.11,1.12,21.14,6.82-9.57,2.5-23.62,13.92-24.74,29.61a25.93,25.93,0,0,1,24.25-3.76c-12.81,3.86-18.74,15.88-19.32,34.23,6.95-9.44,15.76-14.27,27.35-12.19-.16,19.5-1.57,38-4.82,55.17-32.87-10.29-63.69-23.68-92.16-40.77A18.15,18.15,0,0,1,226,124.7C208.52,138.64,191.41,150,174.87,157c-16.94-6.19-32.48-13-46-20.7-4.65,3.79-12.78,3.5-17.38.27a756.06,756.06,0,0,1-84,31.52c-3.73-19.67-5.29-38.48-3.76-56.08,8.13-1.34,16.59,2.56,25.16,8.17-1.35-14.74-7.43-25.87-19.71-32.29,11.15,1.06,21.23,5.95,30.34,14.26-1-16.56-9.13-29.11-25.16-37.21,6.36-1.61,13.11-.52,20.1,2.21C51,59.58,46.09,54,39.4,50.46A126.42,126.42,0,0,0,4.09,113.84a20.06,20.06,0,0,1,7.14-.81c.39,17.28,0,38.71-3.24,60.73-2,.55-4,1.09-6,1.62,3,25.49,10.07,44.31,20.56,60H341.76c12.44-16.29,21.08-35.87,24.44-62.35Q363.44,172.37,360.71,171.63Z"/>
  <g class="supportFront">
    <polygon points="318.06 184.46 329.05 240.2 336.32 240.2 324.58 184.46 318.06 184.46"/>
    <polygon points="45.77 184.46 34.78 240.2 27.51 240.2 39.25 184.46 45.77 184.46"/>
  </g>
  <g class="supportSide">
    <polygon points="318.06 184.46 318.06 235.42 329.05 240.2 318.06 184.46"/>
    <polygon points="45.77 184.46 45.77 235.42 34.78 240.2 45.77 184.46"/>
  </g>
  <path class="mount" d="M74.14,25.28H299.28q-4.57-2.49-9.39-4.71H83.65C80.41,22.05,77.24,23.63,74.14,25.28Z"/>
  <g class="shutter">
    <polygon points="238.37 42.87 243.96 50.29 236.54 47.96 239.72 54.9 222.34 52.38 225.69 46.72 219.09 48.23 211.67 36.83 219.64 36.69 216.89 33.12 226.65 35.45 238.37 42.87"/>
    <polygon points="121.82 34.91 129.79 32.84 127.18 46.17 120.17 45.35 121.68 51.94 103.55 55.24 104.51 48.78 99.15 51.26 103.69 40.13 115.5 32.16 123.88 30.65 121.82 34.91"/>
  </g>
  <g class="stageLightSide">
    <path d="M114.34,25.18a50.5,50.5,0,0,0,6.4,11.08c1.65,2.88-.53,7.63-5.19,10.32s-9.53,2.54-11.19-.33a85.12,85.12,0,0,0-6.89-11.33Z"/>
    <path d="M222.11,34c-2,2.18-.93,6.67,3,10.32s8.55,4.59,10.56,2.41a101.65,101.65,0,0,1,9.84-10.15L231.2,23.34C227.79,27.67,224.78,31.72,222.11,34Z"/>
  </g>
  <g class="stageLightTop">
    <ellipse cx="105.9" cy="30.05" rx="9.74" ry="6.01" transform="translate(-0.84 56.98) rotate(-30)"/>
    <ellipse cx="238.37" cy="29.95" rx="5.37" ry="9.75" transform="translate(54.74 184.87) rotate(-47.31)"/>
  </g>
  <path class="skinIndian" d="M214.24,151.59c1,1.14,2,5.91,2.24,7.4,3.36,3.54,6.7,6.6,9,7.71,3-1.94,5.44-4.66,8.15-4.72,3.78-.21,5,4.19-.87,6,2.22,1.23,4.76,1.62,8.07,1.53s4.24,2.11,2.88,5.64c-1.17,3.32-3.1,5-6.48,5.63a16,16,0,0,1-11.72-3.71c-2.16-1.95-1.62-2.08-4.23-3.7a56.42,56.42,0,0,1-8.53-6.55Z"/>
  <path class="lizJeans" d="M213.4,173.18c2,3.83,2.21,11.23,2.4,19.59A174.59,174.59,0,0,1,210,237.58l-26.78,2.26a133.86,133.86,0,0,1-2-24.94c.16-3.84-.76-5.68-1.15-9.21-1.84-13-2.62-18.42-.17-28.37Z"/>
  <path class="lizShoe" d="M210.43,235.89c4,1.55,7.27,3.42,9.57,6.28,1.82,2.25.61,5.8-2,6.85-2.75,1-9.21,1-12.07-.22-3.54,3-7.63,3.13-12.36,2.91a64.19,64.19,0,0,1-14.12-3l2.38-8.34c5.83-3.82,11.69-4.9,17.68-1.63C203.22,236.81,207.46,235.18,210.43,235.89Z"/>
  <path class="lizShirt" d="M205.11,128.24c5.19,1.6,8,5.11,8.57,10.5,5.56,5.57,5.72,10.82,1.88,16-1.92,2.55-1.75,4.27-1.3,7.81.66,4.08,1.64,7.55,1.54,10.93-2.35,5-22.92,7-35.88,3.79L179,132.2C182.08,123,191.8,123.5,205.11,128.24Z"/>
  <path class="hairBlackDark" d="M213.68,85.47c2.45,2.9,3.18,6.93,2.63,11.71a19.71,19.71,0,0,0,2.18,11.59c4.62,8.81-.88,15.43-6.72,17.18-5.59,1.62-6.81,2.84-12.3,1.83C197.71,97.55,200.2,85.45,213.68,85.47Z"/>
  <g class="skinEastAsian">
    <path d="M182.83,158.76a29.82,29.82,0,0,0,.39,8.25c.57,2.45,1.95,4.25,3.75,6.29,3,3.37,5.19,6.91,4.32,11.21a8.36,8.36,0,0,1-4.21,5.45l-11.54-2,.18-29.62C177.6,159.54,180.05,159.5,182.83,158.76Z"/>
    <path d="M66.4,73.93c-1.8,4-2.75,7.58-2.14,10.59a22.5,22.5,0,0,1,.43,8.87,21.78,21.78,0,0,0,3.15,16.3c2.63,4.2,6.89,4.11,12.67,2.5-.11,3.73-2.49,6.79-5.78,9.38-3.69,2.65-5.3,5-5.68,8.14a182,182,0,0,0-1.5,21.89c-1.62,2.73-3.23,5.86-5.29,9.73-1.45,2.38-2.63,2.61-4.15,3.58-5.73,3.06-7.15,8-5.06,14.52,1.13,2.18,4.5,4,6.91,3.22a5,5,0,0,0,2.68-5.5,16.94,16.94,0,0,0,2.55-2.68l42.3,5.36c5.13-.12,7.39-2.67,7.9-6.7.26-3.28-.23-7.16-2.21-9.52-1.32-1.89-3-4.64-3-7.29.1-5.59-1.8-19.13-4.54-28.6-1-2.46-1.49-5-4.71-6.73-2.64-1.37-4.32-2.93-4.67-5.58-.69-3.88,0-7.52.69-11.63C94.78,77.74,84.41,69.28,66.4,73.93Z"/>
  </g>
  <g class="skinIndian">
    <path d="M209.34,86.29a21.73,21.73,0,0,1,2.44,11c-.25,5.89,3.94,3.93,4.79,7.76.89,4-3.64,3.13-3.63,6.33a13.9,13.9,0,0,1-3.16,8.86,8.66,8.66,0,0,1-5.66,3,7.79,7.79,0,0,0,1,5.07,11,11,0,0,1-5.56,4.74A34.91,34.91,0,0,1,190.7,128c-8-4.62-20.07-20.36-11.71-24.13C198.87,95,185.93,71.06,209.34,86.29Z"/>
    <path d="M174.57,177.9a14.93,14.93,0,0,0,7.9-.9c4-.71,5.58,4.22,1,6-3.34,1.13-6.37-.21-9.09-1.85Z"/>
    <path d="M174.9,184.41c5.43,3.49,9.52,4.87,12.47,1.89,1.71,1.9.66,5.15-1.68,6.22-4.26,1.59-8-1.7-11.35-4.83Z"/>
  </g>
  <g class="stephanieShoe">
    <path d="M111.55,235.61a16.32,16.32,0,0,1,5.15,11.22c.16,2.45-1.15,4.11-3.64,5-8,2.75-17.26,3.62-21.14,2.59-2.53-.47-4.9-1.18-5.38-3.4-.55-3.4,1-4.67,2.93-6.17a18.66,18.66,0,0,0,4.65-5.3Z"/>
    <path d="M70.18,237.43c2.35,3.1,3.3,6.39,2.27,11.06-.79,2.14-1.74,2.53-3.93,3-8.1,1.88-15.9,1.75-23-1.36-2.23-1.2-3-2.68-3-4.09a6.39,6.39,0,0,1,5.07-6.13C51.4,239,55,238,58.06,235.61Z"/>
  </g>
  <g class="stephanieDress">
    <path d="M107.54,135.65a5.79,5.79,0,0,1-3.1,1.47c-6.17,1.41-14.08,2.13-23,2.46a45,45,0,0,1-14.55-.38c-1.41,1.87-1.31,3.19-2.23,5.57s-2.05,3.31-2.21,5c2.55,3.31,14.93,5,21.35.85,9.54,1,21.32.41,23.7-4,3-.68,4.54-1.88,4.64-3.63-.76-1.78-1.2-1.71-2.26-3.36S109.12,137.38,107.54,135.65Z"/>
    <path d="M102,158.51c-10.28,3.33-20,3.79-28.38,1.51a57.2,57.2,0,0,1-5.37,6.76,4.78,4.78,0,0,0-1.81,3.51c-.31,1.53-.21,2.76-1.29,4.18-.77,8.41-1.54,20.07-3.62,28.78-3,10.79-7.14,20-12.32,27.41,2.14,4.18,10.85,8.5,17.34,8.16a82.15,82.15,0,0,1,18.13,1.36c9.47,1.44,18.2,1.73,24.08-2.41,4.37-3.18,7.4-6.16,10.94-8.09a8.74,8.74,0,0,0,4.65-4.8,66.06,66.06,0,0,0-5.72-7.84c-4.71-5.54-7.08-10.17-9.48-18.57-1.7-4.93-1.93-14.71-1.54-21.34C107.88,169.12,106.44,163.5,102,158.51Z"/>
  </g>
  <path class="bennettJeans" d="M176,173.69c-.17,12.36-.2,20.48-1,31.83-.58,10-.91,19.79-1.32,32.65l-15,5c-.25.08-19.66-1.66-19.66-1.66-1-19.57-.9-41.5-1.88-45.07A38.47,38.47,0,0,1,135.32,183C138.05,165.65,157,169.88,176,173.69Z"/>
  <path class="bennettShoe" d="M164.49,249.93a25.3,25.3,0,0,0,16.32.67c3.81-1,5.55-3.73,4.81-6.8a8.7,8.7,0,0,0-7-6.63,23,23,0,0,0-16.08,2.41,17.74,17.74,0,0,0-10.68-3.48c-5.72.08-12.35,1.57-14.26,3.31-2.07,2.07-2.52,7-1.07,9.45,2.07,2.73,9.18,4.08,14.25,4.14C156.87,253,161.18,251.9,164.49,249.93Z"/>
  <path class="bennettSleeves" d="M168.62,116.91c3.52.53,7,2.62,9.87,6.89,2.76,4,3.95,10,4.34,17.3a83.37,83.37,0,0,0,2.54,16.05c-1,1.94-7.32,3-9.65,1.19l-34.31-1.9c-4.21,3.3-12.08,2.65-14.81-.69,1.26-6.88,4.15-13.27,5.48-19.24a26.64,26.64,0,0,1,3.54-9.19c2.36-4.28,7.5-7.84,15.16-10.72C156.24,114.73,162.17,114.88,168.62,116.91Z"/>
  <path class="shirtWhite" d="M166.13,123.82a27.13,27.13,0,0,0,10.12,10.83c.88,8.46,1,34.64.14,38.6-6.29,4.09-25.66,4.9-37,.68-.17-5.46-.49-10.78-1-15.91a6.89,6.89,0,0,0,1.47-.6,90.2,90.2,0,0,1,3.35-21.17c6-1.86,9.87-6.3,12-12.26A19,19,0,0,0,166.13,123.82Z"/>
  <path class="skinBlack" d="M255.27,163.37c-4.6,6.55-7.07,12.59-1.53,17.76Z"/>
  <path class="khariPants" d="M297.13,184.81a241.94,241.94,0,0,1-4.6,57.39l-34.39-1.65c-3.23-18.57-4.72-29.62-5.53-49.58-.67-11.32,1.49-28.45,4.06-38.9C282.08,138.4,294.89,150.72,297.13,184.81Z"/>
  <path class="khariShoe" d="M291,240.06a5.6,5.6,0,0,1,4.06,3.77c.5,1.57.5,4.41-1.07,5.48-4.34,3.13-14.33,5.16-22.13,4.41-4.09-.53-5.85-1.36-7-3.13-5.17,1.07-12.3,1.3-17.41-.07-2.35-.78-3.49-1.71-3.28-3.63,1.1-6.16,4.91-8.89,11.39-9.68,7.9-1,10.84,1,16.68,3C277.62,237.69,286.2,238.56,291,240.06Z"/>
  <g class="clothesOverlapLine">
    <path d="M264.83,250.59c-.84-3.75,3-8.58,7.38-10.37-4.41-17.59-5.19-45.86-5.77-71.27"/>
    <path d="M203.43,185.87A362.74,362.74,0,0,1,198,238.19"/>
    <path d="M159.09,192.87c.38,10.89.58,28.59-.19,44.73"/>
    <path d="M81.48,139.58c.82,1.32.93,3,1.21,5.17s1,2.95,1.15,5.88"/>
    <path d="M104.44,137.12c.81,1.3.5,2.21,1.25,4.49s1.29,2,1.85,5"/>
    <line x1="143.18" y1="136.25" x2="143.96" y2="132.33"/>
    <line x1="176.25" y1="134.65" x2="176.09" y2="131.73"/>
    <path d="M162.58,239.58c2.33,2.56,4.11,8.29,1.91,10.35"/>
    <path d="M199.53,238.76c5,2.24,8.83,6.31,6.42,10"/>
  </g>
  <path class="skinBlack" d="M295.55,74.58c.27,5-.94,8.61-5,9.6-1.47,2-2.14,5.58-2.62,9.44a41.35,41.35,0,0,0,.75,10.9c6.7,2.31,11.1,6.53,12.59,13.15a69.25,69.25,0,0,1,3.58,18.8,43.3,43.3,0,0,1-.76,13.9q-2.18,7.65-3.76,15c-.46,2.55-.4,4.61.89,6,2.53,2.51,2.75,6.61,2,10.58-.92,2.07-3.66,3.49-5.14,5-1.78,2-3.18,1.77-5.82,1.37a4.89,4.89,0,0,1-3.75-3,27.49,27.49,0,0,1,.75-14.47,53.77,53.77,0,0,0,2.06-7.14l-16.91-7.52a29.77,29.77,0,0,1-13-.56c-5.82-18.75-2.45-46.36,6.39-51.1,1.95-1.32,2.46-2.13,2.46-3.67a16.33,16.33,0,0,1-10.57-4.63,17.74,17.74,0,0,1-5.55-13c.16-3.83.72-6.54-.1-10.1a39.69,39.69,0,0,1-.7-14.16C271.89,46.69,285.94,52,295.55,74.58Z"/>
  <g class="khariVest">
    <path d="M268.54,102.84c-4.82,2.37-8.45,5.86-10.24,11.06-4.34,14.07-4.78,29.87-3.1,45.72a11.12,11.12,0,0,0,7.24,2.9c-.8-16.4-.68-31.68,1.35-44.69A52.8,52.8,0,0,1,268.54,102.84Z"/>
    <path d="M288.71,103.15c-6.09,3.9-10.24,8.48-12.31,16.65-3.72,14.69-3.62,28.44-1.65,44.27a26.74,26.74,0,0,0,16.53-.35c1.26-6.07,1.16-11.44,1.78-18.48-2.69-8.17-5.28-15.1-4.24-23.27,1.24-8.27,4.31-13.74,9-12.93C295.64,106.66,292.32,104.83,288.71,103.15Z"/>
  </g>
  <g class="skinEastAsian">
    <path d="M168.62,117c0,.34,0,.69.07,1.08.7,3-16.3,4.75-17-1.48a10.45,10.45,0,0,0,1.32-3.87,17.14,17.14,0,0,1-6.86-7.61,19.55,19.55,0,0,1-1-11c.67-3.52.41-6.55.42-10.29,11.06-38.39,59.47,6.33,36.13,17.88C181.65,101.62,173.3,113.42,168.62,117Z"/>
    <path d="M137.31,158.29c1.5,4.85,1.63,12.14,2.82,15.31,3.77.66,8.53,3.12,9.82,5.79.66,2.46-.28,3.79-1.92,3.63a16.54,16.54,0,0,1-3.71-1.33,25.22,25.22,0,0,0-6.78,8.68,20.18,20.18,0,0,1-2.83-10.82c-1.91-5.71-5.73-13.16-6.54-16.94a8.25,8.25,0,0,1,.4-5.3A13.3,13.3,0,0,0,137.31,158.29Z"/>
  </g>
  <path class="mouthBlob" d="M210.05,112.75c-2.84.26-4.66-.07-8.86-.63,1.46,1.8,3.5,3.56,4.95,3.68C208.47,116,207.26,113.05,210.05,112.75Z"/>
  <g class="eyeBlob">
    <ellipse cx="164.93" cy="90.93" rx="3.19" ry="1.59" transform="translate(52.56 242.07) rotate(-82.24)"/>
    <ellipse cx="152.6" cy="89.54" rx="3.19" ry="1.59" transform="translate(43.28 228.66) rotate(-82.24)"/>
    <path d="M257.52,72.93a7.7,7.7,0,0,0,.05.94c.23,1.75,1.12,3.07,2,3s1.39-1.63,1.17-3.37a7.1,7.1,0,0,0-.17-.85Z"/>
    <path d="M268.34,72.65a7.66,7.66,0,0,0,.06.94c.25,1.74,1.16,3,2,2.93s1.37-1.64,1.12-3.39a6.91,6.91,0,0,0-.18-.84Z"/>
  </g>
  <g class="skinOverlapLine">
    <path d="M290.52,84.18c-1.19.08-1.94-.08-2.36-.58"/>
    <path d="M270.25,100.87c4.76.24,10.93-3.58,13.92-9"/>
    <path d="M187.37,186.3a9.85,9.85,0,0,0,1.8-3.15"/>
    <path d="M168.57,113.15c-5.63,2.37-10.52,2.49-15.58-.47"/>
    <path d="M103.51,131.43a16.8,16.8,0,0,1,.45,5.63"/>
    <path d="M80.16,132.1a27.52,27.52,0,0,1-.9,7.59"/>
    <path d="M103.21,149.67c.09,2.92-.23,6.9-1.17,8.84"/>
    <path d="M73.66,160a23.26,23.26,0,0,0,4.48-7.35"/>
    <path d="M62.64,177.15a5.55,5.55,0,0,1-2.29,1.19"/>
    <path d="M185.87,112a3.65,3.65,0,0,0,2.35-.11"/>
    <path d="M81,97.64a4.61,4.61,0,0,1-3.15.92"/>
    <path d="M204.12,123.17a12,12,0,0,1-5.47-.64"/>
    <line x1="80.51" y1="112.19" x2="80.5" y2="108.79"/>
  </g>
  <g class="skinDisplayLine">
    <path d="M209.28,99.13a6.26,6.26,0,0,0-6.86,1.22"/>
    <path d="M271.73,91.23a37.94,37.94,0,0,0-5,.1"/>
    <line x1="257.36" y1="73" x2="263.77" y2="72.28"/>
    <line x1="268.15" y1="72.51" x2="275.42" y2="71.58"/>
    <path d="M263.13,79.72c-4,1.72-1.26,6.34,2.4,4.74"/>
    <path d="M170.64,89.26a9.9,9.9,0,0,0-7-1.83"/>
    <path d="M158.59,87.49c-1.72-1.21-4.22-1.54-6.9-1.43"/>
    <path d="M156.82,94.65c-4.08.11-4.86,5.23-.06,5.56"/>
    <path d="M162.38,106.66c-1.44-.1-2.82-.21-4.13-.33"/>
  </g>
  <g class="hairBlack">
    <path d="M194.86,127.71c2.14-1.66,2.21-4.46-.73-5.38-4.11-1.24-7.1-4.92-8.26-10.31-2.39-1.16-4.32-2.7-4.91-6.09-.33-2.68,1.56-4.43,4.1-3.91,1.7.4,2.33,2.33,4.06,2.41-.7-3.27-.27-4.67.63-8,6.19-2.93,11-7,13.08-12.34,3.11,3.17,5.78,3.89,10,3.69,3-.32,4.64-3.13,2.35-4.76-3.72-2.62-3.53-4.14-5.28-6.2-2.83-4-11.95-7.9-20.36-6.55-2.22-6.8-7.06-10.56-13.95-12.46.77-4.17,3.13-7,6.72-9.57-4.58,1.75-8.82,4.3-11.05,8.28-2-3.66-3.93-6.12-7.2-7.12a8.26,8.26,0,0,1,3.26,7c-6.57.47-12.92,1.89-18,5.69-8.42,6-10.63,15.42-7.36,23.4,7-3,10.94-6.23,13.75-13.15,3.51,7.39,11,11.35,20.24,13.88a9.32,9.32,0,0,1,1.79,5.28l2.58.8c2.46-3.08,6-1.82,5.59,1.91-.42,2.59-1.54,5.42-3.68,7-1.26,1.08-2.37,1.53-3.64.83-2.48,5.11-5.72,8.84-10,11.09a18.33,18.33,0,0,0,.11,3.8c6.34,1.5,10.67,5.7,12.54,13.24A21.83,21.83,0,0,0,194.86,127.71Z"/>
    <path d="M276.33,58.13c-8.41,1.86-17.44,2.52-23,.89.18-5.57,2.58-9.21,6.23-11.33a28.68,28.68,0,0,1,25.92-2.27C296.42,50,300.8,63,295.55,74.58c-1.13-3.33-4.86-3.49-6.84-.76l-2.49-.58c.7-2.58-.91-5.3-3.78-7.22A19.18,19.18,0,0,1,276.33,58.13Z"/>
    <path d="M69.42,74.83c-2.79,1.21-6.69,1.32-8.58-.21s-1.13-4.78,1.11-6a16.19,16.19,0,0,0,5.11-4.25c4.25-4.57,8.1-6,18.66-7.2,12.52-1.53,24.41,4.9,25.92,18.84.66,5.38,1.79,10,4.86,12.15,5.69,3.88,1.36,9.34-2.5,10.16-1.7,6.81-10.56,9.17-19.76,8.63-6.07-.5-9.75-3.51-13.22-9.33,3.19-2.29,4.32-7.09,2.36-9.74-2-2.49-5-2.44-6.33-.37A4.55,4.55,0,0,1,74.89,90a11.3,11.3,0,0,0-3.2-6A9.9,9.9,0,0,1,69.42,74.83Z"/>
  </g>
  <g class="hairOverlapLine">
    <path d="M176,86.19a11.51,11.51,0,0,0,3.73.34"/>
    <path d="M189.75,96.42a8.55,8.55,0,0,1-4.42-.07"/>
    <path d="M185.91,94.18c5.18-7.56,6.51-15.52,3.65-23.92"/>
  </g>
</svg>
