<svg viewBox="0 0 381.35 233.02">
  <g class="sketchLightest">
    <path d="M247,29.88c-1.19,2.11-2.54,4.27,0,5.27.47,2,1.07,3.86,2.45,5.1a10.15,10.15,0,0,0,5,1.77c2,0,3.86-1.1,5.69-2.45,4.45,2.16,5-.59,5-4,4.31.25,3.37-3.37,2.45-7a12.22,12.22,0,0,0,2.95-6.67c-3-1.54-5.64-.88-8.14.58a15,15,0,0,0-6.48-2.22c0-1.95-1.44-3.77-3.72-5.32a9.9,9.9,0,0,0-3.63,7.94C245.82,25.39,244.08,27.81,247,29.88Z"/>
    <path d="M262.74,40.34a6.34,6.34,0,0,1-2.65-.77C258.26,40.92,256.4,42,254.4,42a10.15,10.15,0,0,1-5-1.77c-1.38-1.24-2-3.12-2.45-5.1a3.19,3.19,0,0,1-.74-.4A16.48,16.48,0,0,0,240,42.49a4.42,4.42,0,0,0-2.71,3.58l0,0c7.24,2.81,15.06,5.64,22.93,8.32h0a3.54,3.54,0,0,0,2.22-1.5,8.68,8.68,0,0,0,.59-4.22,15,15,0,0,1,0-3.08A10.19,10.19,0,0,0,262.74,40.34Z"/>
    <path d="M64.32,196.38a165.62,165.62,0,0,0,37.77-22.13c1.48-2.89,2.38-5.67,1.48-8.66-1.11-3.05-7.2-4.53-9.88-2.42s-2.73,5-2.78,8.33c-3.13-1.82-3.88-7.94-9.26-9.49.94-5.92,6.54-2,7.91-9.85,2.23-.82,3-3.15,1.79-7.32-.89-2.72-2.39-4.71-4.78-5.67-4.76-1.92-3.45-6.76-10.58-7.11-.26-3.78-1.29-6.52-3.72-7.31-3.73.7-6,4-7.9,8.05a29.79,29.79,0,0,0-7.61,1.64c-2.79-2.53-5.61-4.42-8.49-4.17-2.16,3.07-1.15,7.24,1.34,11.92-1.77,5.17-3.18,10.19,2.53,12.23-2,4.22-2.4,7.76,2.54,9.24a80.16,80.16,0,0,0-7.26,23.55A58.09,58.09,0,0,1,64.32,196.38Z"/>
    <path d="M195.76,99.12a36.27,36.27,0,0,1,8.33-23h0a68.46,68.46,0,0,1-15.22-6.67c.44-1.59.87-3.36,1.32-5.26-12.27-4.84-21.77,10.35-18.87,21.28,1.73,7.43,10.4,13.19,24.54,17.41C195.86,102.88,195.75,100.29,195.76,99.12Z"/>
    <path d="M307.21,103.67l-1.83,4C294.85,108,276,103,258.22,97.28h0c.29,9.85-2.53,19.5-8.47,26,17.36,6.88,49.75,15.17,60.52,6.92C315.91,126.63,323.09,108.68,307.21,103.67Z"/>
    <path d="M224.82,34.38a14.54,14.54,0,0,1,0-6.4,15.58,15.58,0,0,0-4.42,5.21c-.45.19-2.24-1.68-2.45-2.87-.85,1.18-1.49,4.62-1.17,7.07,2,1,4.23,2,6.57,3C224.5,39.24,225.2,37.12,224.82,34.38Z"/>
    <path d="M294.29,50.51a14.49,14.49,0,0,1-3.85,6.11,6.3,6.3,0,0,1-1.83-4.12c-2.19,2.22-2.92,6.2-2.07,10.25,2.76.79,5.42,1.54,8,2.22C298.18,59.89,294.42,54.92,294.29,50.51Z"/>
  </g>
  <g class="sketchLighter">
    <polygon points="373.57 140.25 361.37 189.6 307.21 164.93 317.93 128.24 373.57 140.25"/>
    <polygon points="160.45 80.55 154.72 105.87 121.63 98.85 129.02 67.42 160.45 80.55"/>
    <path d="M314,141.84l-18-5.51c-2.74.86-4.39,5.95-2.35,8.06l17.5,7.22Z"/>
    <path d="M178.13,97l-15.24-5.72c-2.44.92-3.31,4.88-1.94,6.7l13.86,4.64C176,100.82,177.08,99,178.13,97Z"/>
    <path d="M224.43,67.29c-17.38-.94-29.71,15.76-28.57,35.59,1.12,19.36,15.46,27,28.57,27.14,17.53.18,29.43-12.81,29.39-30.9C253.79,81.54,241.37,68.22,224.43,67.29Zm-.74,54.95c-10.39.05-21.1-8.9-20.88-23.17.21-12.89,8.32-24.34,21.06-23.71,12,.59,20.86,8.53,20.87,23.71C244.75,112,236.21,122.17,223.69,122.24Z"/>
    <path d="M324.64,67.42a14.46,14.46,0,0,0-3.42-3.66c0,1.54-.07,3.11-.17,4.7C318.5,76.4,198.61,36,202.77,27.19c.88-1.23,1.79-2.4,2.74-3.54a26.65,26.65,0,0,0-3.93.23c-5.35,3-13.69,13.37-11.19,22.19,10.5,13.11,109.9,49.17,130.48,44.06C324.8,88.08,326.53,75.81,324.64,67.42Z"/>
    <path d="M228.05,33.48a18.6,18.6,0,0,1,3-15.12c-5,1.76-9.49,4-11.9,8.35,0-1.48-.1-3.17,0-4.94-1.55,2.75-3.63,3.68-4.62,5.23a11.18,11.18,0,0,0-1.3,8.67c1.1.56,2.27,1.13,3.5,1.72-.32-2.45.32-5.89,1.17-7.07.21,1.19,2,3.06,2.45,2.87A15.58,15.58,0,0,1,224.82,28a14.54,14.54,0,0,0,0,6.4c.38,2.74-.32,4.86-1.47,6l2.93,1.25c4.45-2.08,5.6-7.7,5.6-11.54Z"/>
    <path d="M303.64,53.25a11.32,11.32,0,0,1-5,3.65c4.17-8.25,1.63-15.91-4.45-21.75.47,5.35-.47,9.9-3.79,13.1a25.51,25.51,0,0,0-.67-6.75c-1.12,3.94-5.06,5.78-6.49,9.86a15.75,15.75,0,0,0-.38,10.2v.1l3.68,1.08c-.85-4-.12-8,2.07-10.24a6.3,6.3,0,0,0,1.83,4.12,14.49,14.49,0,0,0,3.85-6.11c.13,4.41,3.89,9.38.22,14.46q2.53.68,4.9,1.27A16.17,16.17,0,0,0,303.64,53.25Z"/>
  </g>
  <g class="sketchMiddle">
    <polygon points="373.57 140.25 380.78 145.06 370.06 188.68 361.37 189.6 373.57 140.25"/>
    <path d="M161,98c-1.37-1.82-.5-5.78,1.94-6.7l1,.38,2.28-9.31-5.73-1.84-5.73,25.32h5.73l1.8-7.41Z"/>
    <path d="M147.45,160c-3.9-40.86-46.54-66.34-81.15-57a109.23,109.23,0,0,0-31.47,16.43c26.48-19.59,74.53-16.69,96.59,22.76-13.48,22.48-39.21,42.54-67.1,54.23-31-23.67-60-5.76-60.56,9.11,6,23.22,32.33,30.26,56.41,25.73,34.38-6.48,67.09-27.12,81-48.3C146.46,176.39,148.34,169.25,147.45,160Z"/>
    <path d="M296,136.33l1.46.45c.16-1.06.32-2.12.49-3.17-14.44.57-35.37-5.25-48.15-10.32-4.92,5.39-12,8.62-21.21,8A38.39,38.39,0,0,1,216.46,129c-10.39-2.66-19.7-10.65-20.6-26.1-7.05-2.1-12.74-4.59-16.89-7.48a98.1,98.1,0,0,1-6.81,11.25c20.89,19.48,95.33,41.12,124,42.49.07-1.2.16-2.39.26-3.58l-2.82-1.17C291.56,142.28,293.21,137.19,296,136.33Z"/>
    <path d="M188.87,69.45a68.46,68.46,0,0,0,15.22,6.67h0a36.27,36.27,0,0,0-8.33,23c0,.51,0,1.3,0,2-.35-19,11.76-34.75,28.63-33.84a31.77,31.77,0,0,1,12,3h0c12.17,2.72,21.26,10.21,21.75,27,17.78,5.65,36.55,10.7,47.09,10.4,1-2.21,5.26-11.57,11.11-17.06h0C290.51,91,211,62.31,193.09,48.57h0A154.22,154.22,0,0,1,188.87,69.45Z"/>
    <path d="M223.87,75.36c-12.74-.63-20.85,10.82-21.06,23.71-.17,11.38,6.59,19.37,14.61,22.12-6-3.93-10.4-11.2-10.26-20.78C207.35,88.52,213,77.31,223.87,75.36Z"/>
    <path d="M236.47,70.33h0c10.47,5,17.33,15.74,17.35,28.79,0,18.09-11.86,31.08-29.39,30.9a33.58,33.58,0,0,1-8-1.06,38.51,38.51,0,0,0,12.15,2.37c20.37,1.29,30.21-16.05,29.68-34.05C257.73,80.54,248.64,73.05,236.47,70.33Z"/>
  </g>
  <g class="sketchDarker">
    <path d="M188.17,117.3c15.64,13.28,31.26,35.43,27.89,61.58,13.39-19.9,33.42-33.18,63.46-31.82C252.65,142.29,212.64,130.21,188.17,117.3Z"/>
    <path d="M223.87,75.36c-10.9,2-16.52,13.16-16.71,25-.14,9.58,4.29,16.85,10.26,20.78l-.67-.25a19.19,19.19,0,0,0,6.94,1.3c12.52-.07,21.06-10.27,21.05-23.17C244.73,83.89,235.91,76,223.87,75.36Z"/>
    <path d="M46.63,187c-17.11-22.53-18.13-65.66,11.42-77.83a64.11,64.11,0,0,0-10.92,3.39c-16,11.29-19.4,29.31-17.84,52.4-11.63,9.72-30.36,24.72-25.53,40.58C4.19,193.51,23.09,179.57,46.63,187Z"/>
    <path d="M213.28,35.67a11.18,11.18,0,0,1,1.3-8.67c-6.77-1.25-11.18-1.36-11.81.19C201.93,29,206.1,32,213.33,35.7Z"/>
    <path d="M230.92,30.93c-1.13-.31-2.24-.62-3.33-.9a21,21,0,0,0,.46,3.45Z"/>
    <path d="M237.31,46.07A4.42,4.42,0,0,1,240,42.49a16.42,16.42,0,0,1,5.47-7.23c-4.74-1.49-9.34-2.87-13.64-4.07-.21,3.74-1.53,8.54-5.57,10.43h0c3.47,1.47,7.21,3,11.11,4.49Z"/>
    <path d="M299.42,55.16a19,19,0,0,1-.78,1.74,8.13,8.13,0,0,0,2.23-1.1Z"/>
    <path d="M303.68,57.06a16.72,16.72,0,0,1-4.26,9.17c12.27,3.06,20.88,4.27,21.63,2.23S314.67,62.1,303.68,57.06Z"/>
    <path d="M282.86,61.56a15.75,15.75,0,0,1,.38-10.2A9.93,9.93,0,0,1,284.46,49c-6.85-2.68-14.18-5.38-21.53-7.94a9.38,9.38,0,0,1,.18,4.56,15,15,0,0,0,0,3.08,8.68,8.68,0,0,1-.59,4.22,3.54,3.54,0,0,1-2.22,1.5h0c7.66,2.62,15.36,5.08,22.58,7.23Z"/>
  </g>
  <path class="sketchDarkest" d="M252.71,38.88a3.43,3.43,0,0,0,2.45-.84,5.12,5.12,0,0,0-3.53-1.33A3.06,3.06,0,0,0,252.71,38.88Z"/>
  <g class="eyeBlob">
    <path d="M251.17,33.34c.82.21,1.57,0,1.67-.39s-.47-.93-1.29-1.14-1.56,0-1.67.4S250.35,33.14,251.17,33.34Z"/>
    <path d="M257.94,35.47c.8.26,1.56.12,1.69-.29s-.41-1-1.21-1.21-1.56-.12-1.69.29S257.14,35.22,257.94,35.47Z"/>
  </g>
  <g class="sketchLine">
    <path d="M188.87,69.45C183,64,176.05,66.9,173,72.39"/>
    <path d="M191.9,70.85c-8.28,3.46-11.82,16.88-9.69,26.53"/>
    <path d="M274.56,102.05A202.41,202.41,0,0,0,267.49,129"/>
    <path d="M293.68,106.65c1.21,6-1.49,20.44-5.71,26.71"/>
    <path d="M305.38,107.68c9.29.55,8.05,16.28,0,24.94"/>
    <path d="M238.13,2.86a5.56,5.56,0,0,1-1.48,5.23,9.42,9.42,0,0,0-2.25,4.72"/>
    <path d="M291.17,9.94a19.41,19.41,0,0,0-2.9,7.82c-.26,2.24-1.87,4.37-4.61,6.41-2,1.19-3.42,3.45-4.62,6.18"/>
    <path d="M288.36,17a31.71,31.71,0,0,0,5.45,5.14c1.85,1.42,2.53,3.67,2.81,5.88"/>
    <path d="M286.34,21.73a15.41,15.41,0,0,0-6.63-1.89,20.1,20.1,0,0,1-4.72-.41"/>
    <path d="M238,5.81c.93,1.28,1.93,1.63,3.35,2.74s1.58,1.92,1.85,3.63"/>
    <path d="M321.05,68.46C325.68-.17,238.2-22.07,202.77,27.19"/>
    <path d="M34.83,119.39C21,127.86-9.48,172.17,3.76,205.49"/>
    <line x1="330.08" y1="130.86" x2="318.24" y2="169.95"/>
    <line x1="343.92" y1="133.85" x2="331.38" y2="175.94"/>
    <line x1="369.32" y1="157.43" x2="314.42" y2="140.25"/>
    <line x1="365.33" y1="173.58" x2="310.75" y2="152.81"/>
    <line x1="357.95" y1="136.88" x2="345.39" y2="182.32"/>
    <line x1="158.42" y1="89.51" x2="126.46" y2="78.31"/>
    <line x1="156.58" y1="97.65" x2="124.09" y2="88.38"/>
    <line x1="144.38" y1="73.84" x2="137.77" y2="102.27"/>
    <line x1="136.84" y1="70.69" x2="129.72" y2="100.56"/>
    <line x1="152.69" y1="77.31" x2="146.42" y2="104.11"/>
    <path d="M90.91,171.5a8.37,8.37,0,0,1,3.84,3.4"/>
    <path d="M80,183.11a11.58,11.58,0,0,0,5.18,2.69"/>
    <path d="M240,42.49a5.06,5.06,0,0,1,5.63,2.6"/>
    <path d="M253.82,52.07a3.14,3.14,0,0,1,1.71-3.47c2-.88,3.64-.38,5.35.93"/>
    <path d="M252.22,16.71a7.08,7.08,0,0,1,2.15,4.23"/>
    <path d="M268.7,22.42a9.92,9.92,0,0,0-5.19,1.48"/>
  </g>
</svg>
