<svg viewBox="0 0 230.73 221.31">
  <path class="skyMedium" d="M214.69,128.59c28.52,24-5.11,74.68-34,68.51-14.33,33.2-102.61,29.59-115.58,1.23C.27,211.62-21.07,80.89,25.65,67.47c-12.25-39.76,42-73.79,74.43-51,17-24.58,63.06-19.37,71,6.16C218.39,10.69,251,102.58,214.69,128.59Z"/>
  <path class="foliageNearest" d="M9.91,162.23c10.47,23.86,29.38,41.39,55.18,36.1,13,28.36,101.25,32,115.58-1.23,20.7,4.42,43.82-20.29,44.81-43.5-2.29-1.45-5.51-1.44-8.67.75,1.26-12.31-11.74-17.69-19.69-9.41a6.74,6.74,0,0,0-13-3.19c-5.08-12.2-19.56-11-23.07,0-4.85-11-22.4-7.57-22.88,2.84-5.81-4.28-12.51-.48-11.35,7.39-7.89-4.72-21.43,2-19.52,13-6.13-2.09-11.27,0-10.46,8-2.3-8.76-9.5-9.67-14.91-5-.3-12.89-12.29-17.44-21.28-7.81-2.85-7-10.3-7-13.49-.53-5-10.1-16.34-9.19-20.4,2A9.92,9.92,0,0,0,9.91,162.23Z"/>
  <path class="steelMedium" d="M114.71,66.35c.64,51.34.93,102.7-1.56,154q3.3.27,6.64.38c1.57-51.46.36-102.93-1.22-154.38C117,66.38,116.26,66.37,114.71,66.35Z"/>
  <path class="whiteLight" d="M112.6,108.85c1,4.15,4.32,6.36,4.9,8.52s0,3.07-1,7.08a16.65,16.65,0,0,0,5.93-9.23c.48-2.62-.38-10.73-1.39-17.24H112.6C111.53,101.93,111.38,105.61,112.6,108.85Z"/>
  <g class="blackDark">
    <path d="M117.08,98H112.6c-1.07,4-1.47,7.06-.25,10.87,1.09,3.26,2.76,4.81,4,6.45a34.76,34.76,0,0,0,4.47-5.6c-.39-.71-.82-1.42-1.28-2.1A13.57,13.57,0,0,1,117.08,98Z"/>
    <path d="M122.57,113.54a58.83,58.83,0,0,0-.34-6.3c-.43.84-.91,1.66-1.42,2.46A33.21,33.21,0,0,1,122.57,113.54Z"/>
  </g>
  <path class="whiteLight" d="M127,97.93c.15,2-3.22,4-10,5.1-4.46,1-4.83,3.25-4.46,5.82-3.21-2.08-.06-19.11,2-32C122.53,77.33,127.26,83.31,127,97.93Z"/>
  <g class="blackDark">
    <path d="M124.86,83.94a11.25,11.25,0,0,0-10.23-7.12L114,80.64q.15,2.85.39,5.61A34.65,34.65,0,0,1,124.86,83.94Z"/>
    <path d="M126.57,90.11a47.72,47.72,0,0,1,.44,7.82c.15,2-3.22,4-10,5.1l-.23,0c-.59-2.63-1.08-5.42-1.49-8.32h0C119,93.6,124,92.84,126.57,90.11Z"/>
    <path d="M113,87c-.54,3.45-1,6.87-1.36,9.94a10.12,10.12,0,0,1,3.72-2.18q-.57-4.1-.94-8.51A13.57,13.57,0,0,0,113,87Z"/>
  </g>
  <path class="whiteLight" d="M115,30.81c-4.59,17.63-8.05,35.51-11,47.05,2.51-1.37,13.2,6,17.42,10,3.13,3,5.58,7,5.52,10C129.56,80.22,121.44,53.8,115,30.81Z"/>
  <g class="blackDark">
    <path d="M112.18,42.38c.9-3.83,1.86-7.7,2.86-11.57,1.13,4,2.3,8.16,3.46,12.33-.22.74-.44,1.5-.67,2.26A21.15,21.15,0,0,0,112.18,42.38Z"/>
    <path d="M119.46,46.61c1.16,4.26,2.3,8.55,3.33,12.79a54.2,54.2,0,0,0-7.66-5.33c1-3,1.87-5.86,2.7-8.67C118.37,45.78,118.91,46.19,119.46,46.61Z"/>
    <path d="M110,51.77q-1,4.29-1.85,8.32a25.07,25.07,0,0,1,4.32,1.72c.93-2.61,1.82-5.2,2.65-7.74A28.29,28.29,0,0,0,110,51.77Z"/>
    <path d="M106.08,77.88c1.22-2.74,2.37-5.52,3.47-8.3a21.89,21.89,0,0,0-3.26-1.09c-.78,3.43-1.51,6.58-2.22,9.37a2.91,2.91,0,0,1,2,0Z"/>
    <path d="M112.48,61.81a46.23,46.23,0,0,1,8.71,5.91c-.86,2.61-1.72,5.11-2.62,7.45a39,39,0,0,0-9-5.59C110.58,67,111.55,64.39,112.48,61.81Z"/>
    <path d="M125.42,71.5c-.62-3.34-1.36-6.77-2.18-10.23q-1,3.33-2,6.45C122.62,68.91,124,70.18,125.42,71.5Z"/>
    <path d="M115.19,82.83a56.12,56.12,0,0,1,6.3,5A22.59,22.59,0,0,1,124,90.61c.67-1.07,1.48-4,2.44-8.12a72,72,0,0,0-7.85-7.32,72.81,72.81,0,0,1-3.38,7.66Z"/>
    <path d="M126.42,82.49l.43-1.83"/>
  </g>
</svg>
