<svg viewBox="0 0 305.9 247.33">
  <path class="floor" d="M74.57,221.3c20.24,31.1,81.27,34.32,108,6.74,28.71,22.54,82.7,3.6,89.92-25.64H23.08C35.67,216.41,54.1,227.07,74.57,221.3Z"/>
  <path class="wall" d="M289.34,115.67C308.41,84.28,266.86,27.79,230,37,225.63.48,133.77-14.42,112.77,19.62,81.48,1.93,27.8,27.39,30,66.67.46,70.78-9.93,121.06,13,137.09c-13.09,20-6.7,46.59,10.12,65.31H272.46a27.37,27.37,0,0,0,.74-8.51C301.08,193.89,320.73,136.5,289.34,115.67Z"/>
  <g class="oakDark">
    <path d="M260.23,186l.92,22a4.07,4.07,0,0,0,3.07,0l1.38-23.68Z"/>
    <path d="M40.34,186l-.91,22a4.07,4.07,0,0,1-3.07,0L35,184.34Z"/>
  </g>
  <g class="chairSeat">
    <path d="M275.79,116.27c-.59,23.66-2.1,44.73-6.93,60.69-2.7,8.76-3.31,8.56-10.48,9.19-12.46,1.08-26.13.76-40.76-.37v-7.35c13,.55,25.07.8,34.22-.59,4.2-.69,7.15-3.15,9.31-7.92,5.15-11.77,7.51-34.54,9.18-53.65C271.22,115,275.07,115.15,275.79,116.27Z"/>
    <path d="M24.79,116.27c.59,23.66,2.1,44.73,6.93,60.69,2.69,8.76,3.31,8.56,10.48,9.19,12.46,1.08,26.12.76,40.76-.37v-7.35c-13,.55-25.07.8-34.22-.59-4.2-.69-7.16-3.15-9.31-7.92-5.15-11.77-7.51-34.54-9.18-53.65C29.35,115,25.51,115.15,24.79,116.27Z"/>
  </g>
  <path class="dullOrangeDark" d="M183,141.69a122.85,122.85,0,0,0,8.15-14.07c0-.91-1.55-1.78-2.35-1.48A146.18,146.18,0,0,0,180.33,141Z"/>
  <path class="dullBlueDark" d="M168.8,142.6c1.5,1.58,1.67,8.16,0,9.81H130.3c-1.45-1.56-1.53-8.14,0-9.81Z"/>
  <path class="dullYellowDark" d="M134,142.6c-1.11-1.53-1.2-7.14,0-8.71h37.7c.94,1.57.94,7.18,0,8.71Z"/>
  <path class="dullPurpleDark" d="M168.8,123.67c1.23,1.3,1.67,8.86,0,10.22H131.22c-1.48-1.45-1.57-8.83,0-10.22Z"/>
  <path class="dullMaroonDark" d="M128.67,118.1c-5.71,11.9-10.46,22-15.22,34.32l-12-2.1c5-12.61,9.93-23,15.89-35.18Z"/>
  <path class="paperStackLight" d="M117.32,115.14l-3.08-1.56c-5.91,12.06-10.85,22.33-15.78,34.81l3,1.93C106.39,137.71,111.36,127.31,117.32,115.14Z"/>
  <path class="bookPageMedium" d="M121.79,110.8c2.72,2.25,3.86,4.27,5.81,6.39l-7.88-2C120.53,113.4,121,112.54,121.79,110.8Z"/>
  <path class="paperStackDark" d="M121.79,110.8c2.13,2,1.56,3.63,5.81,6.39-4.61-2.4-8.84-2.19-13.36-3.61l3.08,1.56,11.35,3,.35-.43-5.55-6.1Z"/>
  <path class="bennettShoe" d="M227.35,198.08a14,14,0,0,1,2.18,8.92c-.32,2.27-1.49,2.9-3.62,3.19-8.67,1.11-23.88,1.42-28.89,0-1.72-.49-2.34-2.55-2-4.68l-5.38-5.91c-1-7.62,3.71-10.9,10-12.77C205.73,177.75,216.55,187.93,227.35,198.08Z"/>
  <path class="bennettSoleBottom" d="M207.55,193.19c-7.75.73-14.76,2.19-17.86,6.39.51,4,1.36,5.78,5.38,5.91.69-5.58,7.31-7.71,13.05-9.21Z"/>
  <path class="bennettJeans" d="M259,158.47c.85,7.87-1.24,15.18-10.31,18.72-6.56,2.71-13.64,2.17-24.31,1.48,2,4.61,2.93,10.24,3.85,16.34.43,2.63-.67,3.29-2.29,3.68-7,1.5-14.82,1.24-18.89-1.91-.55-4.28-1.13-7.61-1.71-11a31.46,31.46,0,0,0-5.64,1,61.57,61.57,0,0,1-.06-19.74c.5-4.28,3.71-7.45,8.27-9.06a40.07,40.07,0,0,1,13-1.92Z"/>
  <path class="shirtWhite" d="M238.63,111.35c6.63,4.78,12.39,12.46,16,22.12a89.11,89.11,0,0,1,5.29,24.38c-7.47,6-31.74,5.64-38.07,1.73-1.9-6.39-3-13.8-4.37-21.63-4.1-6.69-6.69-13.61-6.67-20.93Z"/>
  <path class="bennettSleeves" d="M224.78,104.93c4.75,1.58,9.7,3.38,13.85,6.42,4,6.19-.49,14.5-6.2,16.37-4.38,6.65-8.75,13.14-14.62,18.3a23.54,23.54,0,0,1-7.89,4.3c-2.66-.71-4.49-6.1-5.92-10.5a57.93,57.93,0,0,1-9,3,56.14,56.14,0,0,0,6.25-5.24,37.08,37.08,0,0,0,3.49-4.27A119.17,119.17,0,0,0,211.32,123a27.94,27.94,0,0,0,2.32,7.61c2.17-2.6,4.19-5.55,6.28-8.3a32.94,32.94,0,0,1-3.18-5.87,19.7,19.7,0,0,1-6,1.88l.11-3.71Z"/>
  <path class="lizShoe" d="M89.59,196.89c7.32,1,13.29,2.93,15.07,7.59,1.3,3.25.63,5.27-2.15,6.1-5.47,1.62-15.08,2-24,.91-2.91-.23-4.42-1.74-5-3.73A10.18,10.18,0,0,1,76.21,197Z"/>
  <path class="lizJeans" d="M72.91,155.61c6,1.83,12.38,3.76,17.52,6.88a9.69,9.69,0,0,1,4.68,8.63c-.43,8.08-2.86,17-5.52,25.77-2.92,1.45-10.47,2-13.38.1a109.08,109.08,0,0,1-1.44-18.48c-7.81.87-18.26,1.32-25.79-.91-9.11-2.87-10.89-11.41-9.88-19.51Z"/>
  <path class="lizShirt" d="M73.89,109.66c7.36,11.37,11.25,14.59,10.82,20,2.21,7.63-.72,13.9-10.5,18.35.27,2.85.25,5.32-1.3,7.61-3.41,4.19-11.79,4.76-20,4.76a44.31,44.31,0,0,1-13.83-2.28c-1.34-4.29.57-21.17,5.52-31.37,2.72-5.69,6.3-12.29,11.63-17.06C61.62,105.61,67.55,106.08,73.89,109.66Z"/>
  <g class="clothesOverlapLine">
    <line x1="219.92" y1="122.33" x2="221.32" y2="120.41"/>
    <path d="M213.64,130.63a27,27,0,0,1-8.88,7.25c-1,.58-.78,1.31-.76,1.94"/>
    <path d="M224.38,178.67c-.55-1.14-1.1-2.33-1.65-3.58"/>
    <path d="M221.8,159.58c-4.21.57-8.18,1.19-11.44,3-3.92,2-6,4.92-6,9.34a78,78,0,0,0,1,13.89"/>
    <path d="M73.29,123.67c2.85-1.51,1.06-4-.77-6.5"/>
    <path d="M60,129.28c-3,1-3.94-1.37-4.71-4"/>
    <path d="M74.77,178.51a26.62,26.62,0,0,1,.31-4.7"/>
  </g>
  <path class="hairBlackDark" d="M97.07,75.09c1.28,4,1.85,7.76.6,10.91a18.59,18.59,0,0,0,1,10.73c1.42,4.53.15,8.07-3.55,10.73l-9.77,4c-3.72.84-7.8.32-12.12-1C71.39,87.3,83.61,74.69,97.07,75.09Z"/>
  <path class="skinIndian" d="M93.24,76.67a43.5,43.5,0,0,1,0,9.27c-.6,3.12,3.69,3.34,4.56,6.27.54,4.55-4,3.31-4.29,5.88A17.18,17.18,0,0,1,92,104c3.49.51,6.78,3.66,9.39,7.48a8.25,8.25,0,0,1,.89,6.61A136.56,136.56,0,0,1,94,140.23c.73.19,1.48.34,2.25.47,2.07-4.12,4.46-6.57,7.39-6.27.12,2.58.62,4.61,2.53,5.52a11.46,11.46,0,0,0,6.73.53c3-.45,4.13,1.06,3.29,3.21-3.07,7.63-10.59,10-19.38,5.43a65.6,65.6,0,0,1-15.35.85c-3.53-.33-6.77-1.24-8.83-3.13A62.63,62.63,0,0,1,60,129.28a56,56,0,0,0,13.29-5.61q3.45,5.85,6.65,11.7a10.85,10.85,0,0,0,1.3.86,7.52,7.52,0,0,0,3.47-6.58,44.69,44.69,0,0,0,8.89-10.19c-3.6-.39-7-.75-8.87-2.82-1.59-2.08-1.5-5.12-.86-7.72A27.72,27.72,0,0,1,76.19,107a10.28,10.28,0,0,0-1.4,5.33C59.42,102.18,53.71,88.59,55.05,71,73.86,63.16,86.67,62.56,93.24,76.67Z"/>
  <g class="skinEastAsian">
    <path d="M221.34,97.45a20.67,20.67,0,0,0,3.54,8,30.05,30.05,0,0,1-13.38,9.34,3.29,3.29,0,0,0-1.18-1.4,28.82,28.82,0,0,1-6.83,5,7,7,0,0,1-5.67-.22,17.54,17.54,0,0,1-7.67-7.69c-3.91,2.07-7.75-1.18-5.91-5.91a4.49,4.49,0,0,0-.51-4.28c-1.77-2.08-3.47-5.51-5.18-9.09C200.32,65.83,214.77,67.84,221.34,97.45Z"/>
    <path d="M205,139.48a16.71,16.71,0,0,1,4.93,10,94.65,94.65,0,0,1-23.16,3H176.43c-2.05-1.8-3.12-3.95-2.24-6.4,1.41-4.1,2.67-5.86,6.76-6.2,3.09-.1,5,.07,6.47,2.72a2.2,2.2,0,0,0,2.38,1.33C193.54,143.63,199.23,141.44,205,139.48Z"/>
  </g>
  <g class="eyeBlob">
    <ellipse cx="189.95" cy="98.41" rx="1.54" ry="3.07" transform="translate(-21.92 68.8) rotate(-19.43)"/>
    <ellipse cx="89.11" cy="85.87" rx="3.19" ry="1.59" transform="translate(-4.34 167.01) rotate(-84.91)"/>
  </g>
  <g class="skinDisplayLine">
    <path d="M195.81,99.6c-1.72,2.11-3.49,3.16-5.33,2.34"/>
    <path d="M91.2,101.07a13.2,13.2,0,0,1-6-1.89"/>
    <path d="M90.69,81.8a11.26,11.26,0,0,0-7.42,3.65"/>
  </g>
  <g class="skinOverlapLine">
    <path d="M217.24,95.14a5.64,5.64,0,0,1-1.63,2.53"/>
    <path d="M210.32,113.38a12.75,12.75,0,0,0,3.44-5.83"/>
    <path d="M66.5,93.92a5.94,5.94,0,0,0,4.15,2.35"/>
    <path d="M92,104c-1.87,3.78-4.71,5.25-8.11,4.9"/>
    <path d="M94,140.23a63.07,63.07,0,0,1-12.73-4"/>
  </g>
  <g class="hairBlack">
    <path d="M87.35,71.62c2.13,3.28,4.71,5.43,9,5.58A2.52,2.52,0,0,0,98.5,73c-1.57-2.06-3-3-4.72-6.9C90,58.93,84,54.29,74.55,54.39c-8.87.26-16.62,0-18.71,6-5.75,1.51-9.21,5-9.9,11.81-.82,8-1.85,11.71-3.74,16C40,93.32,42,103.71,50.78,108.84c8.1,4.51,14.26,3.93,20.44,1.16,3-1.47,3.22-4.16.76-5.42-4.46-2.59-5.41-5.79-5.48-10.66-2.41-2.92-2-6.72-.31-8.15,1.84-1.54,4.36-1.54,6.41,2.41,0-2.31,3.33-4.41,3.2-7.3C81,79.45,83.85,76.59,87.35,71.62Z"/>
    <path d="M221.88,97.45a6.31,6.31,0,0,1-4.64-2.31c.72-2.85.78-4.75-.87-6.58-3.18-3.55-6.88-.42-6.24,3.18L207.69,93c-.73-2.2-3-3.16-6.28-3.62-6.16,3.31-12.55,5.39-18.85,4.79-5.5-.62-8.43-4.78-8.43-9.85.06-7.09,3.42-13.33,9.11-18.34,5.21-4.6,12.49-6.94,19.8-7.33.63-2.47-.72-4.94-2.71-7,3,.77,5.15,2.75,5.87,6.64,1.56-4.85,5-8.18,9.88-10.34-4.1,3.9-6.92,7.6-6.25,11.27C227.3,64.19,233.3,81.83,221.88,97.45Z"/>
  </g>
  <g class="hairOverlapLine">
    <path d="M201.41,89.34a12.67,12.67,0,0,0,4.15-2.76"/>
    <path d="M75.8,80.88c-3.83.88-5.36-2.64-2-4.54"/>
  </g>
  <g class="steelDark">
    <path d="M190.71,160.37l-2.93,46.89a4,4,0,0,1-3.35,0l-2.93-46.89Z"/>
    <path d="M105.22,160.37l2.93,46.89a4,4,0,0,0,3.35,0l2.93-46.89Z"/>
  </g>
  <rect class="oakDark" x="79.57" y="152.41" width="133.96" height="7.95"/>
</svg>
