<svg viewBox="0 0 3150.22 1121.77">
    <g class="buildingsNear">
        <path d="M2363.17,639c-2.6-19,.84-58.93.84-58.93s-70,2.85-76.65.75c-1.49-25.3,1.59-76,1.59-76,.34,1.54-153.95.22-153.95.22,2.13,0,4.85,53.27,2.61,78.45-49.84,1.09-102.54,1.39-155.37.3.62,20.68,3,42.07,3.77,62.74C2111.62,641.55,2237.33,637.09,2363.17,639Z"/>
        <path d="M1175.39,652.6c1.77-28.43-2.45-119.52-2.28-119.52,77.41,2.24,155.76,5.63,233.17,2.29.35,0-.86,38.7-.86,38.7,0,3.21,219.59-1.37,219.59-1.37s-1.58,67.81-1.45,86.78C1474.59,655.4,1324.41,653.07,1175.39,652.6Z"/>
        <path d="M407.64,652.58c4-40.34-.53-115.13-4-162.88a1043,1043,0,0,0,118.22,0L521,535.27c32.13,3,71.33.73,113-1.47,0,.18-4.5,95.06-.41,121.56Z"/>
        <path d="M3036.73,671.41c-4-40.34-5.44-76.84-2-124.58a1045.54,1045.54,0,0,1-118.23,0l-.73,34.32c-32.13,3-69.7,2-111.41-.23,0,.19,4.49,65.07.41,91.56Z"/>
    </g>
    <g class="bushFurther">
        <path d="M1657.92,651.11c.16-47.7,51.49-56.24,65.37-37.45-4.83-36.28,49.93-50.57,68.57-21.26,8.1-40.24,73.54-37,83.15,1.06,29.14-29.65,72.89,5,68.73,58Z"/>
        <path d="M379.76,632.85c-2.88-25.37-51-50.94-72.82-16.41,8.27-31.39-38.72-53.67-65.92-26.34,8.06-45.78-58.78-60.05-78.12-29,9.25-25.49-29.39-42.9-43.31-18.29-15.82-41.05-85.36-11.36-77.21,31.44-18.05-16-41.49-3.21-41.38,61Z"/>
        <path d="M2432.69,653c-15.09-24.87,20.52-68,47.72-40.66-3.45-34.53,43.34-41.27,59.6-17.75,1.39-40.74,55.28-45.84,66.2-11.61,8.74-32,62.63-21.85,58.26,16.75,31.52-27.82,84.13,15.11,56,57.81Z"/>
        <path d="M1155.2,639.32H675.53c-10.67-26,19.5-48,45.63-36.73-6-35.69,43.1-42.77,65.32-22.28,12.73-22.41,60.32-24.42,63.78,3.36l55.64-15.58c7.45-32.79,50.06-32.31,67.89-12.24,12.82-28.21,59.26-23.42,65.67,4.45,22.79-25.48,74.5,3.73,65.66,35.62C1134.07,579.35,1169,610.47,1155.2,639.32Z"/>
        <path d="M2983.49,677.53l165.73.73c0-123.08-60.75-102.66-70.69-82.6,0-25.51-58.3-27.33-52.08,8.47C3013.2,592.09,2975.88,594.3,2983.49,677.53Z"/>
    </g>
    <g class="treeTrunk">
        <path d="M2897.75,509.51c-33.28,38.85-50.37,111-52.34,160.75-.35,8.72.74,49.21,1,47.44L2769.94,716c-.83-4.75.55-20.08.43-26.1-.52-24.9-.34-49.6-6.58-74.22-3.18-12.54-17.66-47.12-21.2-52.61-3.4-5.25-34.52-42.47-35.17-48.55Z"/>
        <path d="M2382,527c-.39-1,22.88,40.75,27.78,63.52a221.45,221.45,0,0,1,5.14,40c1.28,29.81,1.51,71.74,1.13,100.2l54.13-.56c0,.72-3.34-29.12-3.34-41.3,0-25.67-.81-51.1,4.76-74.81,4.65-19.82,23.82-65.13,36.54-80.91Z"/>
        <path d="M1301,495c-1.11,4.22-20.91,46.37-24.56,53.58-6.54,12.94-8.93,38.73-10.72,53-1.74,14,4.44,104.22,4.47,118.32,0,8-54.7-1.11-54.7-1.11-.29.55,5-76.47,3.35-104.38-.47-7.78-3.35-42.41-11.72-62.51-8.23-19.75-21.5-43.92-28.35-55.81Z"/>
        <path d="M809.2,544.79c.64,4.89,15.49,22.62,17.86,28.48,2.93,7.28,6.16,14.25,8.65,21.71a277,277,0,0,1,9.07,32c3,14.67,3.68,30,3.5,44.89-.18,14.57-2.39,46.76-2.25,46,0,0,78.19,1.32,78,0-.63-4.58-1.42-9.13-2.11-13.7-1.35-9-1.94-18-2.79-27-1.24-13.19,2.08-49.67,5-62.62,6.55-28.86,16.64-44.13,31.82-69.77Z"/>
    </g>
    <g class="treeFurther">
        <path d="M1423.54,340.15c15.28,23.44,16,58.56-9.32,73.92,8.11,12.28,7.17,29-4.13,38.42-9.33,7.75-21.94,10.88-33.27,5.67,5.38,8-9.67,33.51-15.07,39.65-13,14.77-41.47,24.86-59.72,13.94-1.29,1.31-2.88,11.24-5.12,14.06a46.34,46.34,0,0,1-23.79,15.46c-10.82,2.65-25.81,1.6-36.14-2.5-6-2.37-21.44-10.35-20.9-18.09-3.57,9.78-13.75,16.48-24.11,12.41-8.72-3.42-20.84-15.4-16.08-25.81-11.24,7.29-37.21-5.1-46.36-12.46-12.35-9.94-22.78-38.06-12.24-52.28l-52.6-107.71,49.25-114.43c-.78-12.76,18.82-28.53,30.13-31.28,10.55-2.57,28.18,0,36.85,5.6-1.76-17.78,20.55-35.49,36.79-36.29,13.38-.66,31.73,6.06,38.32,18.53-.54-.75,1.77,3.22,1.91,2.14,2.59-20.54,34.29-30.9,51.07-25.95,18.94,5.58,34.36,26,34.32,44.92,7.42-2.92,20.14,1.84,26.87,5.28,10.73,5.5,16.45,14.34,21.15,25,6.93,15.7,1.75,42.75-11.74,55.14,17.37-3.7,32,22.1,16.19,35.16C1407.21,321.72,1416.79,329.79,1423.54,340.15Z"/>
        <path d="M2572.53,222c-11.2-15.58-7.61-33.88-45.76-48.12-27.9-10.42-59.88,12.23-59.9,18.79,0,.82-4.47-29.58-36.65-29.58-23.63,0-41.44,12.17-40.38,30.14-9.32-5.71-21.89-2.63-32,2.94-8.54,4.68-13.19,16.4-12.61,26.64-24.14-1.43-48.53,18.6-51.34,43.1-1.73,15-.68,34.47,11.16,44.52-33.21,7.14-22.19,56.81-6.7,53.59-22,5.54-31.95,28.41-32,48.74,0,16.47,11.89,40.19,26.4,45-3.1,7.78-7.92,14.82-8.86,23.44-.86,7.94.7,17.54,3,25.17,3.47,11.57,11.73,18.9,21.34,25.61,13.69,9.55,31,6.61,46.48,3.36,10.16,22,37.42,26.38,54.14,6.7.15,8,16.34,20.19,23.29,23.47,10.8,5.1,27.29,8.45,39.23,7.69,5.53-.35,46.63-13.82,44.08-20.55,3.4,5.17,16.37,6.26,21.81,5.62,7.24-.86,15.09-4.13,19.79-9.81,3.76-4.55,9.47-20,7-26,7.77,6,21,5,29.92,0,8.2-4.57,18.15-19.5,14.18-27.93L2572.53,222"/>
    </g>
    <g class="treeCloser">
        <path d="M1096.08,477.82c14-3.55,24.61-7.5,34.06-19.13a65.68,65.68,0,0,0,14-34.48c1.38-14.07-1-27.11-8.42-39.29-4.58-7.49-16.65-23.63-26.26-24.31,11.74-4.12,22.94-28.1,21.66-39.49a33.8,33.8,0,0,0-11.8-22.19c-3.38-2.87-11.83-8.95-16-8.09,7.27,1.31,16.84-28.95,18.31-34.46a75.56,75.56,0,0,0-.43-40.85c-4-13.17-12.77-24.32-23.44-33-7.31-5.94-18.25-15.24-27.92-16.18,7.66-12.59,5-48.21-2.57-59.37-4.72-6.94-10-13.3-17.65-17.14-4.06-2-14.32-7-18.3-4.58,7-10,2.11-35.13-2.91-44.64-8.55-16.17-22.69-27.14-39.8-33.22-16.68-5.92-35.75-8.6-53.19-4.32-8.89,2.18-27.64,8.63-31.35,18C890.5,8.37,859.85,1.35,840.78,4.35c-17.94,2.82-46.36,20.25-44.42,41.86-9.24-4.75-24.05-7.84-32.71-1.35-8.49,6.37-19.11,23.08-11.94,33.72-71.7-21.37-105,90.92-51.91,125.19-48.56-13.92-92.41,68.54-30.7,112.19-5.83-2.28-18,6.55-22.2,10.06-6.61,5.52-10.24,12.55-13,20.66-6,17.82-3,34.15,10.63,47.42-7.68.6-15.28,24.88-16.19,31.14-2.28,15.55-.45,30,6.27,44.25,6.27,13.29,19.24,22.65,32,29.44,12,6.37,23.09,5.87,36,6.23-3.38,20.82,22.56,40.6,39.91,46.07,15.35,4.84,43.73,3.9,53.86-11.46-.72,21.78,28.79,34.51,45.21,37.94,13.3,2.77,26.72,4.14,40.18.82,11.82-2.91,17.8-8.92,25.12-18.11,15.86,6.32,33.76,14.05,50.53,4.76,12.28-6.8,29-22.71,27.61-38.25,14.36,12.39,50.09,11.35,67.3,5.26,11.83-4.18,24.33-12.6,31.08-23.23C1088.26,501.3,1096.82,487.31,1096.08,477.82Z"/>
        <path d="M2566.77,300.77c-21.9,8.32-34.12,26.56-36,50.23-1.18,14.61-.4,50.08,15.94,57.77-.9,8.06-7,14.82-7.58,23.54-.71,11.36,1.2,23.91,6.32,34.13,9.42,18.82,48.29,43.84,70.75,34.42-3.63,11.76,11.74,23.81,20.93,28.06,13,6,33.81.42,43.53-9.64,2.59,19.46,26.74,31.76,43.47,36.33s52.7-.46,63.7-15.4c12.54,16.18,30.65,22.66,50.28,19.65,15.45-2.36,39.48-17,41.81-34.72,9.16,16.21,41.48,18,57.31,15,23.63-4.41,48.34-25.77,49.85-51,30.2,10.41,57.27-28.52,41.86-56.09,9.34.44,23.09-10.28,29.3-16.75,21.59-22.47,25-53.29,21-82.87a84.1,84.1,0,0,0-22.68-46.12c-5.68-5.77-21.62-22.13-30.14-21.7,6-8.24,10.5-18,7.54-30.5-2.39-10.09-16.48-26.52-27.91-24.2,4.57-13.16,9.39-23.57,8.93-38.17-.46-14.77-4.37-17.9-12.19-30.53-9.87-16-38.74-39.63-59.81-32.16,7.54-11.87,6.39-33.7,2.66-46.76-5.47-19.21-21.29-34.71-38.85-43.27-20.45-10-43.81-14.68-66.39-9.89-17,3.59-28.8,11.48-40.31,23.45-4.21-5.37-20.76-8.71-26.94-9.65-19.56-3-41.23,2.92-58.17,12.66-22.55,12.95-46.48,48-37.12,75.69-9.74-9.8-36.72,5.15-44,12-10.09,9.55-21.6,27-15.17,41.55-15.14-.88-37.35,16-45.44,27.31-10.43,14.64-16.28,20.93-18.19,38.52C2553.13,249.49,2555.13,288,2566.77,300.77Z"/>
    </g>
    <path class="wall" d="M3149.22,635v485.78H1V635Z"/>
    <path class="ledge" d="M1,674.49H3149.22V635H1Z"/>
    <g class="brickDark">
        <path d="M820.48,747.12h74.46c0,11.52,0,23.18,0,34.18q-37.29-.27-74.56-.33c-.32-11.35-1.14-22.51-.22-33.85Z"/>
        <path d="M76.73,747.09q34,0,68.06,0c.16-11.88.19-23.25.08-35q-36.9,0-73.81,0v35Z"/>
        <path d="M595,747.13c0-11.69,0-23.38.06-35H520.8l0,2.32c.14,10.79.1,21.88-.13,32.68H595"/>
        <path d="M1196.13,748.27c0-.38,0-.77,0-1.16H1270c0,11.43,0,22.5,0,34.06h-73.79C1196.05,770.23,1196,759.44,1196.13,748.27Z"/>
        <path d="M1645,747.12c-24.54,0-49.16,0-73.67,0v34.1H1645c0-11.49,0-22.79,0-34"/>
        <path d="M1872.62,712.1h72.94V747h-75.34V712.1Z"/>
        <path d="M2319.8,747.08q-37.7,0-75.35-.12v34.27h75.35V747.08"/>
        <path d="M2477.68,746.88h-8v34.61l74.51-.06V746.86Z"/>
        <path d="M2846.67,746.75h-2.78v34.66q37-.36,73.67,0V746.72Z"/>
        <path d="M3068.26,747v34.49c23.5-.32,46.69-.38,70.33-.38V746.82c-23.56.14-47,.21-70.33.21"/>
    </g>
    <g class="brickLight">
        <path d="M296.13,748.17c0-.35,0-.7,0-1H370c0,11.13,0,22,0,33.28-24.59.25-49.18.12-73.78,0Q296,764.28,296.13,748.17Z"/>
        <path d="M1420.09,712.12h.73c.15,11.4.11,23.31-.11,35h-74.63c-.06-11.47-.06-23.41,0-35Z"/>
        <path d="M595,747.13q0,16.8.09,33.52c25.36-.1,50.72-.1,76.08.17-.16-11.12-.17-22.6,0-33.7H595"/>
        <path d="M972.88,712.13h72.91c.17,11.44.13,23.37-.14,35H971.89v-35Z"/>
        <path d="M1645,747.12c25.82,0,51.57,0,77-.06,0-4.74,0-20.32,0-31.54v-3.41h-77c0,11.73,0,23.34,0,35"/>
        <path d="M2030.53,747h-8.78V781.2h72V747Z"/>
        <path d="M2319.8,747.08q37.74,0,75.35-.17V712.06H2319.8v35"/>
        <path d="M2694.87,713v33.83l72.83,0V712c-24.29.08-48.52.08-72.83,0Z"/>
        <path d="M3068.26,747V712.1c-22.91,0-46.36,0-69.65-.05h-4.74c.1,11.61.09,23.13,0,34.76,24.9.16,49.65.23,74.41.23"/>
    </g>
    <g class="shrubCloser">
        <path d="M1600.17,1120.77c21.69-39.42,9.6-115.07,8.51-131.22-3.29-48.91-22.64-58.58-48.09-60.13a36.11,36.11,0,0,0-19.83-62.33c7.94-7.45,13.76-20.76,11.54-31.42a34,34,0,0,0-20.2-24,35.38,35.38,0,0,0-31.35,2.79c-4.41-14.05-16.06-28.42-30.25-32.36s-30.07-.69-41.94,8c-5.18,3.8-9.76,8.78-11.78,14.88-13.15-8.09-34.07-7.92-46.53,1.2a40.11,40.11,0,0,0-14.86,41c-46.79-6.76-64.9,70-22.75,81.18-39.09-5.43-44.11,30.68-44.93,50.24-.9,21.29-5.44,113,4.32,142.11Z"/>
        <path d="M2335.9,1120.77c12.75-15,10.06-56.46,10.06-140.42,0-21.77-22.74-48.56-39.31-48.93,9-10.36,12.1-25.73,7.3-38.64-5.51-14.83-21.06-25.32-36.87-24.87,18.86-42.88-53.33-69.87-73.19-33.74.15-46.2-87.26-47.49-88.39-.95-8.83-.82-21.15,3.23-25.56,10.94a23.83,23.83,0,0,0,1.31,25.16c-15.09,1.26-33.19,13.54-37.1,28.17-3.12,11.7.2,24.76,8,33.93-16.49-1.66-40.43,5.44-42.55,44.84-1.43,26.7-4,129,8.89,144.51Z"/>
        <path d="M509.5,1120.77c17.27-45.74,9.42-135.85,8.9-147.56-.59-13.32-8.28-27.58-19.14-35.47-5.67-4.12-17.15-8.07-23.4-6.32a35.41,35.41,0,0,0-20.23-58.51c6.87-8.2,12.05-21.48,10.64-32.09s-8-20.53-17.57-25.33-21.84-4-30.34,2.48c-6.6-12.21-17.91-25-31.5-27.87a48.56,48.56,0,0,0-39.28,9.16c-8.33,6.52-14.64,17.42-11.49,27.51-10.27-5.48-26.93-3.55-35,4.84a27.74,27.74,0,0,0-3.8,32.3c-18.37-3.18-41.44,7-48.54,24.23-5.89,14.28-2.51,31.66,7.51,43.28-18.87-.17-28.61,29.46-29.89,43.37-1.88,20.31-3.37,135.47,15.21,146Z"/>
    </g>
</svg>
