<svg viewBox="0 0 3150.22 1127.53">
    <g class="buildingsNear">
        <path d="M2332.54,668.79c-2.6-19,.84-58.92.84-58.92s-70,2.84-76.65.75c-1.49-25.3,1.59-76,1.59-76,.34,1.54-154,.22-154,.22,2.13,0,4.85,53.27,2.61,78.45-49.84,1.09-102.54,1.38-155.37.3.61,20.68,3,42.07,3.77,62.74C2081,671.35,2206.69,666.89,2332.54,668.79Z"/>
        <path d="M1184.76,652.4c1.76-28.43-2.45-89.52-2.28-89.52,77.41,2.24,155.76,5.63,233.16,2.29.35,0-.85,38.69-.85,38.69,0,3.22,219.59-1.36,219.59-1.36s-1.59,37.81-1.46,56.78C1484,655.2,1333.78,652.87,1184.76,652.4Z"/>
        <path d="M557,652.38c4-40.34-.53-85.13-4-132.88a1043,1043,0,0,0,118.22,0l-.9,45.57c32.14,3,71.34.73,113-1.47,0,.18-4.49,65.06-.41,91.56Z"/>
    </g>
    <g class="bushFurther">
        <path d="M1657.92,652.05a42.07,42.07,0,0,1,26.63-25c12-3.69,28.44.27,38.74,7.55,2.36-13.37,13.5-24.31,26.53-28.1s30.35-.06,42,6.85a49.92,49.92,0,0,1,40.1-23.22c16.08-.52,33.72,11.17,43,24.27a50,50,0,0,1,68.72,38.05Z"/>
        <path d="M379.76,653.79a54.25,54.25,0,0,0-72.82-16.41c.59.44-.54-3.7.05-3.26a45.88,45.88,0,0,0-66-23.07c-4.29-15.2-18.37-32.49-33.41-37.3a48.91,48.91,0,0,0-44.71,8.3c.93-8.94-8.35-21.3-16.78-24.44s-18-1.75-26.32,1.54c-10.09-17.95-35.57-26.94-55.41-21.41S28.8,560.35,29.45,580.93A29.29,29.29,0,0,0,9.66,591.19c-4.78,5.75-8.09,13.48-7.24,20.9l.26,44.16Z"/>
    </g>
    <g class="treeTrunk">
        <path d="M2897.75,515.27c-33.28,38.85-50.37,111.05-52.34,160.74-.35,8.72.74,49.21,1,47.45l-76.47-1.68c-.82-4.75.56-20.08.44-26.11-.52-24.9-.34-49.6-6.58-74.21-3.18-12.55-17.66-47.12-21.2-52.61-3.4-5.25-34.52-42.47-35.17-48.56Z"/>
        <path d="M2382,524.76c-.39-1,22.88,40.74,27.78,63.52a221.23,221.23,0,0,1,5.14,40c1.28,29.81,1.51,71.75,1.13,100.21l54.13-.56c0,.72-3.34-29.12-3.34-41.3,0-25.68-.81-51.11,4.76-74.81,4.65-19.83,23.82-65.13,36.54-80.91Z"/>
        <path d="M1301,500.76c-1.11,4.21-20.91,46.37-24.56,53.58-6.54,12.94-8.93,38.73-10.72,53-1.74,14,4.44,104.23,4.47,118.33,0,8-54.7-1.12-54.7-1.12-.29.56,5-76.46,3.35-104.37-.47-7.78-3.35-42.42-11.72-62.51-8.23-19.75-21.5-43.92-28.35-55.82Z"/>
        <path d="M809.19,551.55c.65,4.88,15.5,22.61,17.87,28.48,2.93,7.28,6.16,14.25,8.65,21.7a277.12,277.12,0,0,1,9.07,32c3,14.67,3.68,29.95,3.5,44.89-.18,14.57-2.39,46.75-2.25,46,0,0,78.19,1.33,78,0-.63-4.58-1.42-9.14-2.11-13.71-1.35-8.95-1.94-18-2.79-27-1.24-13.19,2.08-49.67,5-62.62,6.55-28.86,16.64-44.13,31.82-69.77Z"/>
    </g>
    <g class="treeFurther">
        <path d="M1423.54,345.9c15.28,23.44,16,58.56-9.32,73.93,8.11,12.28,7.17,29-4.13,38.41-9.33,7.76-21.94,10.89-33.27,5.68,5.38,8-9.67,33.51-15.07,39.64-13,14.78-41.47,24.86-59.72,13.94-1.29,1.32-2.88,11.25-5.12,14.07A46.4,46.4,0,0,1,1273.12,547c-10.82,2.65-25.81,1.6-36.14-2.5-6-2.38-21.44-10.36-20.9-18.1-3.57,9.79-13.75,16.49-24.11,12.42-8.72-3.42-20.84-15.41-16.08-25.81-11.24,7.29-37.21-5.1-46.36-12.46-12.35-9.94-22.78-38.07-12.24-52.29l-52.6-107.7,49.25-114.44c-.78-12.76,18.82-28.53,30.13-31.28,10.55-2.56,28.18,0,36.84,5.61-1.75-17.79,20.56-35.49,36.8-36.29,13.38-.66,31.73,6.06,38.32,18.53-.54-.76,1.77,3.22,1.91,2.13,2.59-20.53,34.29-30.9,51.07-25.95,18.94,5.59,34.36,26.06,34.32,44.93,7.42-2.92,20.14,1.84,26.87,5.28,10.73,5.49,16.45,14.33,21.15,25,6.93,15.7,1.75,42.75-11.74,55.14,17.37-3.69,32,22.11,16.19,35.17C1407.21,327.48,1416.79,335.55,1423.54,345.9Z"/>
        <path d="M2572.53,219.76c-11.21-15.58-7.61-33.87-45.76-48.12-27.9-10.42-59.88,12.24-59.9,18.79,0,.82-4.47-29.57-36.65-29.57-23.63,0-41.44,12.16-40.38,30.13-9.32-5.71-21.89-2.63-32,2.94-8.54,4.69-13.19,16.4-12.61,26.64-24.14-1.42-48.53,18.61-51.35,43.1-1.72,15.05-.67,34.47,11.17,44.53-33.21,7.14-22.19,56.81-6.7,53.58-22,5.54-31.95,28.42-32,48.75,0,16.47,11.88,40.18,26.4,45-3.1,7.77-7.92,14.81-8.86,23.44-.86,7.93.7,17.54,3,25.16,3.47,11.58,11.73,18.91,21.34,25.61,13.69,9.55,31,6.62,46.48,3.37,10.16,22,37.42,26.37,54.14,6.7.14,8,16.34,20.19,23.29,23.47,10.8,5.1,27.29,8.45,39.23,7.69,5.53-.36,46.63-13.83,44.08-20.56,3.39,5.18,16.37,6.27,21.81,5.62,7.24-.86,15.09-4.12,19.79-9.8,3.76-4.56,9.47-20,7-26,7.77,6,21,5,29.92,0,8.2-4.57,18.15-19.49,14.17-27.92l-35.54-272.63"/>
    </g>
    <g class="treeCloser">
        <path d="M1096.08,484.57c14-3.54,24.61-7.5,34.06-19.13a65.61,65.61,0,0,0,14-34.47c1.38-14.07-1-27.12-8.42-39.3-4.58-7.48-16.65-23.63-26.26-24.31,11.74-4.11,22.94-28.09,21.66-39.49a33.84,33.84,0,0,0-11.8-22.19c-3.38-2.86-11.83-8.94-16-8.08,7.27,1.3,16.84-29,18.31-34.46a75.56,75.56,0,0,0-.43-40.85c-4-13.17-12.77-24.32-23.44-33-7.31-5.93-18.25-15.23-27.92-16.17,7.66-12.59,5-35.22-2.57-46.37-4.72-6.94-10-13.3-17.65-17.15-4.06-2-14.32-7-18.3-4.57,7-10,2.11-35.13-2.91-44.64-8.55-16.17-22.69-27.14-39.8-33.22-16.68-5.93-35.75-8.61-53.19-4.32-8.89,2.18-27.64,8.63-31.35,18C890.5,28.13,859.85,21.1,840.78,24.1,822.84,26.93,794.42,44.35,796.36,66c-9.24-4.75-24.05-7.84-32.71-1.35-8.49,6.36-19.11,23.07-11.94,33.72-9.59-3-31.4,9.93-38.5,15.75-11.61,9.53-21,20.46-25.63,35-3.61,11.4-5.37,22.58-2.55,34.31,1.91,8,5.94,24.4,14.77,27.15-2.43.68-12.07,2.41-15.72,4.31-8,4.16-15,11.54-20.12,19.1-19.31,28.45-13.31,61.07,5.14,88.77-5.83-2.27-18,6.56-22.2,10.07-6.61,5.52-10.24,12.54-13,20.66-6,17.82-3,34.15,10.63,47.41-7.68.61-15.28,24.89-16.2,31.15-2.27,15.54-.44,30,6.28,44.24,6.27,13.3,19.24,22.66,32,29.44,12,6.38,23.09,5.87,36,6.24-3.38,20.82,22.56,40.59,39.91,46.07,15.35,4.84,43.72,3.9,53.86-11.46-.72,21.77,28.79,34.51,45.21,37.93,13.3,2.78,26.72,4.15,40.18.83,11.82-2.92,17.8-8.93,25.12-18.11,15.86,6.32,33.76,14.05,50.53,4.76,12.28-6.81,29-22.71,27.61-38.25,14.36,12.38,50.09,11.35,67.3,5.26,11.82-4.18,24.33-12.6,31.08-23.23C1088.26,508.05,1096.82,494.07,1096.08,484.57Z"/>
        <path d="M2566.77,306.53c-21.9,8.32-34.12,26.56-36,50.23-1.18,14.61-.4,50.08,15.94,57.77-.9,8.06-7,14.82-7.58,23.53-.71,11.37,1.2,23.92,6.32,34.14,9.42,18.81,48.29,43.83,70.75,34.42-3.63,11.75,11.73,23.81,20.93,28,13,6,33.81.42,43.53-9.63,2.59,19.45,26.74,31.76,43.47,36.32s52.7-.45,63.7-15.39c12.54,16.17,30.65,22.65,50.28,19.65,15.45-2.37,39.48-17,41.81-34.72,9.16,16.2,41.48,18,57.31,15,23.63-4.41,48.34-25.78,49.85-51,30.2,10.41,57.27-28.52,41.86-56.1,9.34.44,23.09-10.28,29.3-16.75,21.59-22.46,25-53.29,21-82.86a84.1,84.1,0,0,0-22.68-46.12c-5.68-5.77-21.62-22.13-30.14-21.71,6-8.23,10.5-18,7.54-30.49-2.39-10.1-16.48-26.53-27.91-24.2,4.57-13.16,9.39-23.58,8.93-38.17-.46-14.77-4.37-30.9-12.19-43.54-9.87-16-38.74-39.63-59.81-32.15,7.54-11.87,6.39-33.7,2.66-46.76-5.47-19.22-21.29-34.71-38.85-43.27-20.45-10-43.81-14.68-66.39-9.89-17,3.59-28.8,11.48-40.31,23.45-4.21-5.37-20.76-8.71-27-9.65-19.55-3-41.22,2.92-58.16,12.65-22.55,13-46.48,48-37.12,75.7-9.74-9.8-36.72,5.14-44,12-10.09,9.55-21.6,27-15.17,41.55-15.14-.89-37.35,15.95-45.44,27.31-10.43,14.63-16.28,33.93-18.19,51.52C2553.13,255.24,2555.13,293.74,2566.77,306.53Z"/>
    </g>
    <path class="wall" d="M3149.22,640.75c0,79.11,0,381.39,0,485.78H1V640.75Z"/>
    <path class="ledge" d="M1,680.25H3149.21c0-15.16,0-28.58,0-39.5H1Z"/>
    <g class="brickDark">
        <path d="M820.48,752.88h74.46c0,11.52,0,23.18-.05,34.18q-37.27-.27-74.55-.34c-.32-11.34-1.14-22.5-.22-33.84Z"/>
        <path d="M76.73,752.85q34,0,68.06,0c.16-11.87.18-23.25.08-35q-36.9,0-73.81,0v35Z"/>
        <path d="M595,752.89c0-11.69,0-23.38.06-35H520.79c0,.77,0,1.54,0,2.32.14,10.78.1,21.87-.13,32.67H595"/>
        <path d="M1196.13,754c0-.39,0-.78,0-1.17H1270c0,11.43,0,22.5,0,34h-73.79C1196,776,1196,765.19,1196.13,754Z"/>
        <path d="M1645,752.87c-24.54,0-49.16,0-73.67,0v34.11H1645c0-11.49,0-22.8,0-34.06"/>
        <path d="M1872.62,717.85h72.94v34.92h-75.34V717.85Z"/>
        <path d="M2319.8,752.84q-37.7,0-75.35-.13V787h75.35V752.84"/>
        <path d="M2477.68,752.64h-8v34.6l74.51,0V752.62Z"/>
        <path d="M2846.67,752.51h-2.78v34.65q37-.35,73.67.05V752.48Z"/>
        <path d="M3068.26,752.79v34.48c23.5-.32,46.69-.37,70.32-.38,0-7.95,0-25.22,0-34.31-23.56.13-47,.2-70.33.21"/>
    </g>
    <g class="brickLight">
        <path d="M296.13,753.92c0-.35,0-.69,0-1H370c0,11.12,0,21.94,0,33.28-24.59.24-49.18.12-73.78,0Q296,770,296.13,753.92Z"/>
        <path d="M1420.09,717.87h.73c.15,11.4.11,23.31-.11,35h-74.63c-.06-11.48-.07-23.41,0-35Z"/>
        <path d="M595,752.89q0,16.79.09,33.52c25.36-.1,50.72-.11,76.08.17-.16-11.13-.17-22.6,0-33.7H595"/>
        <path d="M972.88,717.88h72.91c.17,11.44.12,23.37-.14,35H971.89v-35Z"/>
        <path d="M1645,752.87c25.82,0,51.57,0,77,0,0-4.75,0-20.32,0-31.54v-3.42h-77c0,11.72,0,23.34,0,35"/>
        <path d="M2030.53,752.75h-8.78V787h72V752.74Z"/>
        <path d="M2319.8,752.84q37.74,0,75.35-.17c0-12,0-27,0-34.86H2319.8v35"/>
        <path d="M2694.87,718.74v33.83l72.83,0V717.8c-24.29.08-48.52.08-72.83,0Z"/>
        <path d="M3068.26,752.79V717.86c-22.91,0-46.36,0-69.65-.05l-4.74,0c.1,11.61.09,23.14,0,34.77,24.9.15,49.65.23,74.41.23"/>
    </g>
    <g class="shrubCloser">
        <path d="M1600.17,1126.53c21.69-39.43,9.6-115.07,8.51-131.23-3.29-48.9-22.64-58.58-48.09-60.12a36.12,36.12,0,0,0-19.83-62.34c7.94-7.45,13.76-20.75,11.54-31.41a33.92,33.92,0,0,0-20.2-24,35.35,35.35,0,0,0-31.35,2.79c-4.41-14.06-16.06-28.42-30.25-32.36s-30.07-.7-41.94,8c-5.18,3.81-9.76,8.79-11.78,14.89-13.15-8.09-34.07-7.92-46.53,1.19a40.13,40.13,0,0,0-14.86,41c-46.79-6.77-64.9,70-22.75,81.18-39.09-5.43-44.11,30.68-44.93,50.24-.9,21.29-5.44,113,4.32,142.11Z"/>
        <path d="M2335.9,1126.53c12.75-15,10.06-56.46,10.06-140.42,0-21.78-22.74-48.56-39.31-48.93,9-10.36,12.1-25.73,7.3-38.64-5.51-14.84-21.06-25.32-36.87-24.87,18.86-42.88-53.33-69.88-73.19-33.74.15-46.21-87.26-47.49-88.39-.95-8.83-.82-21.15,3.23-25.56,10.93a23.85,23.85,0,0,0,1.31,25.17c-15.09,1.25-33.19,13.54-37.1,28.17-3.12,11.7.2,24.76,8,33.93-16.49-1.66-40.43,5.43-42.55,44.83-1.43,26.7-4,129,8.89,144.52Z"/>
        <path d="M509.5,1126.53c17.27-45.74,9.42-135.85,8.9-147.57-.59-13.32-8.28-27.57-19.14-35.46-5.67-4.12-17.15-8.07-23.4-6.32a35.41,35.41,0,0,0-20.23-58.52c6.87-8.19,12.05-21.48,10.64-32.08s-8-20.53-17.57-25.33-21.84-4-30.34,2.48c-6.6-12.21-17.91-25-31.5-27.88A48.6,48.6,0,0,0,347.58,805c-8.33,6.52-14.64,17.41-11.49,27.51-10.27-5.49-26.93-3.56-35,4.84a27.73,27.73,0,0,0-3.8,32.3c-18.37-3.19-41.44,7-48.54,24.22-5.89,14.29-2.51,31.67,7.51,43.29-18.87-.18-28.61,29.46-29.9,43.36-1.87,20.32-3.36,135.47,15.22,146Z"/>
    </g>
</svg>
