<svg class="goKartBackdrop" 
    xmlns="http://www.w3.org/2000/svg" viewBox="0 0 3145.2 683.35">
    <path class="foliage" d="M3144,682.91v-.56H1V131.74a15.46,15.46,0,0,1,6.13-5.33c11.34-6.13,25.62-5.2,37.24.37S65.55,147.25,72.67,158c4.17-5.61,11.75-7.7,18.72-7.35,11,.54,21.22,6.19,29.09,13.83s15.52,23.44,20.6,33.18c-2.25-5.86,1.57-12.85,7.27-15.46s12.56-1.54,18.14,1.33,20.83,11.78,25.31,16.18c-11.41-7.49-16.52-23.29-11.66-36.05s24.66-23.6,38.16-21.6c-3.46-4.67-3.93-11.13-2.13-16.66s5.61-10.23,10-14c14.72-12.7,44.39-13.7,62-5.52-1.49-7.64,4.58-14.94,11.59-18.32C311.59,81.83,326,84,337.61,90a164.72,164.72,0,0,1,36,26.12c-1.45-4.16-.13-9,2.76-12.29a19.41,19.41,0,0,1,11.46-6c9.33-1.6,19,2,26.35,8s12.71,14,17.3,22.28c-.32-.75,1.74,6.83,1.42,6.08,10.95-11.81,30.23-12.73,44.76-5.78s25.09,20.13,33.63,33.78l-1.19-3.68,4.66,12.34c4.41-6.18,13.32-7.13,20.75-5.61,13.72,2.8,34.74,17.4,45.76,26-8.24-6.52-15-15.19-18.14-25.21s-2.48-21.43,2.89-30.47,21-19.92,31.52-19.37c-8-16.3-1.16-37.41,13.18-48.53s38.13-14.48,55.58-9.5c-2.08-6.76,2.27-14,7.91-18.27,8.72-6.61,20.41-8.39,31.22-6.71s24.77,3,34.18,8.61c.58-4.67,3.91-8.68,8-11s8.85-3.21,13.54-3.54c14.19-1,28.4,2.67,41.41,8.42s30,12.12,41.92,19.89c-2-2.78-.92-6.92,1.59-9.25s6-3.2,9.42-3.61c17.22-2,39.25,11.29,48.3,26.07,1.73-6.16,7.77-10.39,14.06-11.55s12.77.24,18.84,2.24c21.72,7.13,45.35,27.63,57.55,47,1.52-4.56,6.11-7.62,10.85-8.38s9.61.43,14.07,2.22c12.06,4.83,21.51,21.31,27.38,32.89,2.61-6.37,9.82-10,16.7-10.08s13.5,2.55,19.64,5.67c21.08,10.69,43.88,34.24,56.76,54.05a27,27,0,0,1-4.83-27.92c3.83-9.2,13.46-22.25,23.42-22.69A43.23,43.23,0,0,1,1171,88c12.26-10.6,37.29-13.43,52-6.55-2-4.38-.25-9.76,3.1-13.19s8.05-5.21,12.72-6.29c16.85-3.91,43.78,1.57,57.12,12.59,1.15-6.71,7.12-11.84,13.66-13.76s13.56-1.15,20.24.18c24.24,4.85,52.68,18.5,69.89,36.24,1.09-4.61,5.32-8,9.91-9.24s9.48-.5,14,.82a54.36,54.36,0,0,1,32,25.45c-.14-1.16,5.15,7.22,5,6.06,4.38-5.06,11.79-6.64,18.39-5.52s12.56,4.53,18.21,8.11c14.68,9.3,33,25.07,45.3,37.3-6.82-6.81-13-15-14.41-24.51s11-24.73,20.1-27.83a42.25,42.25,0,0,1,1.86-44.76c9.1-12.9,32.53-27.52,48-24.51,1.66-12.52,13.93-20.76,25.79-25.11,27.72-10.18,67.84-3.73,93.83,10.3-1.71-7.18,3.31-14.51,9.64-18.29,8.69-5.18,19.62-5.43,29.42-2.92s26.67,12.74,35.48,17.72c1.36-7.73,8.26-13.61,15.79-15.84s15.61-1.4,23.35,0c29,5.15,60.15,25.5,82.72,44.41-.23-3.94,2.22-7.7,5.51-9.89s7.3-3,11.23-3.32c15.7-1.2,31.19,5.38,43.68,15s29.42,31,39.23,43.27c-3.69-4.44,0-11.84,5.44-13.65s11.47.35,16.51,3.15c11.4,6.33,23.41,23.69,29.25,35.35,1.38-4.57,6-7.61,10.73-8.35s9.53.45,14,2c31.16,10.71,57.08,41.5,77.39,67.43a34.36,34.36,0,0,1-.82-37.63c7.23-11.18,29.36-20.22,42.43-17.63-4-10.19-1.27-22.28,5.48-30.89s17.05-14,27.73-16.34c21.13-4.71,50.39,6.81,65.66,22.16.32-6.85,6.13-12.63,12.77-14.31s13.78.15,19.73,3.53,15.16,17.29,20.07,22.07c.1-3.68,2.57-7,5.72-8.92A23.06,23.06,0,0,1,2376.59,99c15.32-1,30.44,5.24,42.66,14.53s24.57,28.3,33.61,40.7c2.89-4.89,8.84-7.36,14.52-7.41s11.18,1.95,16.39,4.24c23.82,10.46,50.11,31.32,64.95,52.69-8.81-9.24-16.27-20.39-18.21-33s5.66-29,16.55-35.71a35.31,35.31,0,0,1,3.22-38.57c8.61-10.66,29.44-14.5,42.52-10.42-4.7-5.62-4.25-14.3-.5-20.59s10.14-10.56,16.73-13.75c28.49-13.78,67.2-7.25,92.16,12.21,0-7.39,5.58-13.93,12.32-17s14.42-3.13,21.78-2.51c19.95,1.69,43.43,9.94,60.16,20.93,11.32-10.21,28.39-10.59,43.42-8,29.67,5,61.55,22.08,83,43.22a90.55,90.55,0,0,1,56.82,5.85c17.64,8,33,26.65,42.2,43.68a125.33,125.33,0,0,1,123.34,102.3Z"/>
</svg>
