<svg viewBox="0 0 1360.29 488.22">
  <path class="mountain" d="M1359.36,487.72l.43-367s-108.25-77.63-124.64-77.2-114.3,68.15-114.3,68.15S1058.32,72.38,1045,72C1016.49,71,651.6,265.6,651.6,265.6S369.47,90.07,345.81,92.22c-9.49.86-38.82,21.56-38.82,21.56s-63.86-43.25-75.05-44c-12.93-.86-78.06,37.95-78.06,37.95S75,54.26,62,54.26c-14.66,0-60.38,35.37-60.38,35.37V487.72Z"/>
  <polyline class="buildingsFarthest" points="1359.36 487.72 1356.94 141.97 1325.45 141.97 1323.73 157.49 1258.6 158.36 1259.46 146.28 1218.49 146.28 1221.08 112.21 1152.07 112.21 1147.33 144.99 1112.82 145.42 1114.98 126.44 1047.7 126.44 1049.42 100.56 995.08 100.56 991.2 146.71 939.44 147.14 940.73 98.84 927.36 98.84 929.52 34.57 887.68 34.57 886.39 57.43 847.57 57 848.87 18.18 820.4 18.18 821.7 0.5 785.47 0.5 785.47 25.95 762.18 26.38 760.02 115.66 748.81 115.66 749.67 10.85 706.97 10.85 706.97 24.22 687.13 24.22 687.56 120.83 674.62 121.26 674.62 103.15 628.9 104.01 628.9 116.95 613.81 117.38 613.38 101.42 546.1 103.15 546.1 139.38 534.45 139.81 533.16 84.6 525.82 84.6 524.96 56.57 513.32 41.04 504.69 57.43 505.98 84.6 499.08 85.03 500.38 149.3 457.25 149.73 456.38 110.91 446.9 111.34 446.9 94.09 423.61 94.95 423.61 112.21 414.98 112.21 414.98 133.34 358.05 134.2 358.05 151.02 333.03 151.02 332.17 143.26 298.96 143.26 295.08 92.37 262.3 93.23 263.59 111.34 245.91 111.78 247.63 144.12 173.88 145.85 175.18 170.43 129.03 170.86 128.16 158.79 91.5 159.22 91.5 171.73 0.5 172.59 1.63 486.86"/>
  <path class="foliageFar" d="M1359.59,481.14H.57V166.72C3.16,155.51,17,151.19,26.45,159c6.9-10.79,24.15-12.51,33.64-2.59,3.88-6.47,15.09-6.47,19,0,5.18-12.94,21.57-13.37,31.49-4.32a21.27,21.27,0,0,1,33.64,0c5.23-8.57,13.8-6.9,17.68,0,6.47-9.92,19.84-9.48,27.18,0,3.45-10.78,21.13-14.66,29.32-6.9a15.17,15.17,0,0,1,28,0c12.07-12.5,28-8.19,34.07,4.75,9.92-15.53,30.62-13.37,38.82.43,6-6.9,17.68-6.9,23.29.43,9.06-13.8,28.46-16.39,40.54-5.61,3.88-9.05,15.1-11.21,22.43-3,7.33-14.23,26.74-14.23,34.93-3,7.77-7.77,14.67-5.61,19,2.15,8.2-11.21,24.58-11.21,33.21.43,6-5.6,15.1-4.31,19,3,10.35-10.35,27.6-9.05,37.09.43,7.76-11.21,21.13-11.21,30.19-.43,7.13-9.52,17.68-8.62,25.88-.43,8.45-14,25-14.23,33.64-3.45,4.74-8.19,15.1-6.9,19.84,0,8.19-10.78,24.58-10.78,34.5-.43,10-7.46,22-4.74,27.61,3.88,8.19-7.33,22.86-7.76,27.6,1.73,3-6.9,12.08-7.77,16.82-2.16,5.61-10.78,22-12.08,30.19-2.16,3.88-7.76,16.82-9,22.43-2.58,10.35-15.1,32.35-14.24,41.84,0,7.33-11.22,23.29-11.22,30.19,0,7.76-11.22,26.31-11.22,34.5,0,6-6,17.68-6,22.86,2.15,3.88-8.19,15.1-8.19,21.13-2.15,10.79-9.06,26.31-7.77,33.64,2.58,4.75-6.47,17.26-5.6,20.71,2.59,6.9-13.37,25-13.37,33.21-2.59,3.88-4.74,14.66-3.88,18.11,1.73,6.9-8.2,23.72-8.2,30.62,1.72,10.36-13.37,32.35-12.94,39.25.44,7.77-7.77,21.57-3.89,23.29,5.17,8.63-8.19,25.45-8.63,33.64,1.29,12.51-17.25,35.37-12.93,45.29,1.73,5.61-6,16-5.18,21.13.86,11.65-15.52,31.06-13.8,41.84,0,4.31-5.6,15.53-4.74,20.27,1.73,10.78-13.37,27.17-5.61,30.62,8.19Z"/>
  <polygon class="buildingsFar" points="493.72 160.92 492.68 146.94 562.98 145.77 564.71 175.8 593.61 175.02 592.74 147.43 625.52 147.03 625.09 119.26 704.02 118.48 704.45 135.26 732.05 134.87 731.62 147.43 782.51 147.43 782.51 124.73 883.01 125.51 882.58 144.3 925.27 143.91 924.19 164.55 989.54 164.98 991.26 148.24 1052.51 148.24 1051.65 158.79 1096.5 158.79 1095.21 173.63 1153 173.63 1156.88 132.22 1190.52 132.22 1188.37 161.52 1212.52 161.52 1211.23 184.62 1251.34 184.62 1253.49 172.51 1320.35 172.51 1318.62 188.53 1359.16 188.53 1359.16 478.55 1 478.55 1 196.44 58.36 196.44 57.07 173.31 140.31 173.75 142.03 191.1 201.12 191.1 199.83 167.03 237.35 166.17 238.65 183.22 275.74 183.22 273.15 149.03 321.89 149.03 321.89 162.31 351.65 162.31 353.37 180.87 413.75 180.43 412.89 161.88 493.72 160.92"/>
  <path class="foliageMiddle" d="M1359.16,212c-9.43-8.77-27.24-7.53-33.3,3.92-16.18-16.17-43.13-14.15-58,.68-12.13-17.52-33-17.52-47.17-.68-11.14-14.87-27.63-13.47-40.44-.67-13.2-21.91-39.08-22.24-52.56-5.39-7.41-12.8-23.59-10.78-31,0-12.8-16.85-38.41-16.85-53.91-.67-15.67-11.65-34.37-7.42-43.13,6.06C986.88,203.8,964,203.13,956.56,218c-4.72-10.79-18.87-12.13-26.28-3.37-8.77-16.85-34.37-18.87-47.18-3.37-6.06-12.13-26.28-14.15-35-4.05-16.18-23.58-50.54-22.23-65.37,0-11.46-17.52-36.39-17.52-47.17,0-12.13-17.52-41.11-17.52-53.92,0-9.43-9.43-27.63-9.43-35.71,3.37-6.07-12.8-23.59-12.8-33-3.37C596,193,571.76,195,560.3,211.22c-7.41-10.11-27-8.76-32.35,4-10.78-20.89-39.08-20.89-51.89-4-6.06-7.42-22.91-10.38-28.3-1.62-10.78-12.8-37.07-12.8-47.85,2.7-16.17-20.9-50.54-20.22-61.32.67-12.13-12.13-33.7-6.07-36.4,8.09-13.47-12.81-39.76-17.79-52.56-2.29-19.54-27-55.26-20.22-70.76,2.69-8.76-9.43-24.93-12.4-33-3-18.2-24.26-48.52-21.57-65.37,0-6.74-8.77-24.26-7.42-31.67,2.69C32,200.3,7,206.37,1.63,227.93l-.2,258.93,1357.73.86Z"/>
</svg>
