<svg viewBox="0 0 3153.62 1131.65">
  <path class="mountain" d="M3151.62,1130.65l1-851s-251-180-289-179-265,158-265,158-145-91-176-92c-66-2.13-912,449-912,449s-654.14-407-709-402c-22,2-90,50-90,50s-148.06-100.27-174-102c-30-2-181,88-181,88s-183-124-213-124c-34,0-140,82-140,82v923Z"/>
  <polyline class="buildingsFarthest" points="3151.62 1130.65 3146 329 3073 329 3069 365 2918 367 2920 339 2825 339 2831 260 2671 260 2660 336 2580 337 2585 293 2429 293 2433 233 2307 233 2298 340 2178 341 2181 229 2150 229 2155 80 2058 80 2055 133 1965 132 1968 42 1902 42 1905 1 1821 1 1821 60 1767 61 1762 268 1736 268 1738 25 1639 25 1639 56 1593 56 1594 280 1564 281 1564 239 1458 241 1458 271 1423 272 1422 235 1266 239 1266 323 1239 324 1236 196 1219 196 1217 131 1190 95 1170 133 1173 196 1157 197 1160 346 1060 347 1058 257 1036 258 1036 218 982 220 982 260 962 260 962 309 830 311 830 350 772 350 770 332 693 332 684 214 608 216 611 258 570 259 574 334 403 338 406 395 299 396 297 368 212 369 212 398 1 400 3.62 1128.65"/>
  <path class="foliageFar" d="M3152.16,1115.39H1.16v-729c6-26,38-36,60-18,16-25,56-29,78-6,9-15,35-15,44,0,12-30,50-31,73-10,22-27,59-24,78,0,12.12-19.89,32-16,41,0,15-23,46-22,63,0,8-25,49-34,68-16,12-29,53-29,65,0,28-29,65-19,79,11,23-36,71-31,90,1,14-16,41-16,54,1,21-32,66-38,94-13,9-21,35-26,52-7,17-33,62-33,81-7,18-18,34-13,44,5,19-26,57-26,77,1,14-13,35-10,44,7,24-24,64-21,86,1,18-26,49-26,70-1,16.52-22.08,41-20,60-1,19.59-32.51,58-33,78-8,11-19,35-16,46,0,19-25,57-25,80-1,23.24-17.29,51-11,64,9,19-17,53-18,64,4,7-16,28-18,39-5,13-25,51-28,70-5,9-18,39-21,52-6,24-35,75-33,97,0,17-26,54-26,70,0,18-26,61-26,80,0,14-14,41-14,53,5,9-19,35-19,49-5,25-21,61-18,78,6,11-15,40-13,48,6,16-31,58-31,77-6,9-11,34-9,42,4,16-19,55-19,71,4,24-31,75-30,91,1,18-18,50-9,54,12,20-19,59-20,78,3,29-40,82-30,105,4,13-14,37-12,49,2,27-36,72-32,97,0,10-13,36-11,47,4,25-31,63-13,71,19Z"/>
  <polygon class="buildingsFar" points="1144.56 372.95 1142.16 340.53 1305.16 337.81 1309.16 407.44 1376.16 405.63 1374.16 341.66 1450.16 340.75 1449.16 276.36 1632.16 274.54 1633.16 313.44 1697.16 312.54 1696.16 341.66 1814.16 341.66 1814.16 289.04 2047.16 290.85 2046.16 334.41 2145.16 333.5 2142.63 381.36 2294.16 382.36 2298.16 343.54 2440.16 343.54 2438.16 368 2542.16 368 2539.16 402.43 2673.16 402.43 2682.16 306.39 2760.16 306.39 2755.16 374.34 2811.16 374.34 2808.16 427.9 2901.16 427.9 2906.16 399.81 3061.16 399.81 3057.16 436.96 3151.16 436.96 3151.16 1109.39 2.16 1109.39 2.16 455.3 135.16 455.3 132.16 401.68 325.16 402.68 329.16 442.92 466.16 442.92 463.16 387.11 550.16 385.11 553.16 424.66 639.16 424.66 633.16 345.37 746.16 345.37 746.16 376.17 815.16 376.17 819.16 419.19 959.16 418.19 957.16 375.17 1144.56 372.95"/>
  <path class="foliageMiddle" d="M3151.16,491.39c-21.88-20.31-63.16-17.45-77.22,9.11-37.5-37.5-100-32.81-134.38,1.56-28.12-40.62-76.56-40.62-109.37-1.56-25.82-34.49-64.06-31.25-93.75-1.56-30.62-50.8-90.63-51.56-121.88-12.5-17.18-29.69-54.68-25-71.87,0-29.69-39.06-89.06-39.06-125-1.56-36.33-27-79.69-17.19-100,14.06-29.69-26.56-82.81-28.13-100,6.25-10.94-25-43.75-28.13-60.94-7.81-20.31-39.07-79.69-43.75-109.37-7.82-14.07-28.12-60.94-32.81-81.25-9.37-37.5-54.69-117.19-51.56-151.57,0-26.56-40.63-84.37-40.63-109.37,0-28.13-40.63-95.31-40.63-125,0-21.88-21.88-64.06-21.88-82.81,7.81-14.07-29.69-54.69-29.69-76.57-7.81-39.06-32.81-95.31-28.13-121.87,9.37-17.19-23.43-62.5-20.31-75,9.38-25-48.44-90.63-48.44-120.31-9.38-14.07-17.18-53.13-24.06-65.63-3.75-25-29.68-85.94-29.68-110.94,6.25-37.5-48.43-117.18-46.87-142.18,1.57-28.13-28.13-78.13-14.07-84.38,18.75-31.25-29.69-92.19-41.25-121.87-5.32-45.32-62.5-128.13-46.87-164.07,6.25-20.31-21.87-57.81-28.75-76.56-6.87-42.19-56.25-112.5-50-151.56,0-15.63-20.31-56.25-17.19-73.44,6.25C73.94,464.25,16.13,478.31,3.63,528.31l-.47,600.34,3148,2Z"/>
</svg>
