<svg viewBox="0 0 3177.93 1159.66">
    <path class="mountain" d="M3176.93,599.61C3029.64,516,2886.7,444.37,2750.27,390.81c-88.66,48.54-167.12,81.78-278.9,165-23.3-20.39-63.22-37.62-107.73-54a54.1,54.1,0,0,0-36.38-.38c-52.55,18.22-100,38-129.79,63.26-65.56-40-133-72.57-203.13-94a58.37,58.37,0,0,0-37.29,1.17c-75,27.73-141.61,63-200.49,105.21-39.4-25.56-84.47-50.45-136-74.54a41.66,41.66,0,0,0-32.4-1.18c-48.83,18.48-90.11,39.11-118.61,63.35-57.49-39-114.72-72.77-171.65-100.17a61,61,0,0,0-49.49-1.49c-82.3,33.59-152.89,67.39-199.23,101.66a804.19,804.19,0,0,0-105.46-70.61,48.45,48.45,0,0,0-41.63-2.75Q780.11,540,673.22,599.61C572.51,540.37,471.88,490.3,371.37,453,256,488.84,130.71,545.14,1,610.37v548.29H3176.93Z"/>
    <g class="palmTrunk">
        <path d="M1617.74,1158.66c-6.59-339.74-.58-656.59,14.11-945.64L1657,230.33c-20.21,254.65-14.28,607.55,4,928.33Z"/>
        <path d="M1430.17,1158.66c-14.72-339.75-36.09-628.64-62.08-832.52l-23.08-.48c29.6,240,45.39,624.41,44.46,833Z"/>
    </g>
    <g class="palmFrond">
        <path d="M1258.81,361.17c-6.4-39.82,4.87-82.79,31-113.54-14.41-2-29.13,3-41.18,11.17a150.33,150.33,0,0,0-32.36,30,106.61,106.61,0,0,1,25.47-63.15c15.08-17.5,36.75-31.18,59.39-35.85a92.48,92.48,0,0,0-80-28.34c17.53-16.15,43.84-27.55,67.68-27.42A96.42,96.42,0,0,1,1353.61,160c25.83-27.32,66.88-42.45,103.48-33.84-22.74,8.94-46.28,30.25-57.41,52a92.55,92.55,0,0,1,58,21c16.18,13.37,26.7,35,30.73,55.57-20.21-20.64-55.29-27.6-83.08-19.7a90.59,90.59,0,0,1,70.94,76.9c-19.9-16.92-51.56-22.23-76.74-15.31,14.12,9.47,22.85,26.33,25.67,43.1s-.16,34.17-6.46,50c-3.73-14.57-13.66-27.93-24.86-38A77,77,0,0,0,1353.61,333c-7.79,1.8-15.37,7.21-20.88,13a155.27,155.27,0,0,0-29.23,43.67c-3.14-15.78-6.87-32.14-4.54-48.07s8.65-31.53,19.57-43.36c-13.71,4.32-27.71,13-37,24S1264.16,347.83,1258.81,361.17Z"/>
        <path d="M1598,53c-22.49,4.73-47.39,16.92-63.51,33.3a118.4,118.4,0,0,0-31.65,60.16c17-13.51,40.87-24.23,62.44-27-17.6,12.64-35,31.46-44.63,50.88A133.58,133.58,0,0,0,1507,233.2c16.14-26.75,45.76-47.48,76.77-51.29-15.41,18.28-27.73,41.72-32.13,65.23a139.77,139.77,0,0,0,5.2,70.75c6.18-20.79,16.86-43,30.93-59.46s33.47-29.05,54.93-32.13c28.38,13.87,42.47,34.28,51.11,47.22A74,74,0,0,1,1706,317.75c10.39-15.84,17.94-37.11,18.56-56a104.39,104.39,0,0,0-13.42-54.49c14.8,1.41,31.39,7.5,43.3,16.39a82.1,82.1,0,0,1,26.87,34.89c7.41-21.7,7.84-48-.86-69.22a96.76,96.76,0,0,0-45.8-49.35c13.82-4.15,29.6-5.45,43.36-1.1a73,73,0,0,1,35.09,24.27c-2-24.75-13.67-50.67-32.2-67.2a99.06,99.06,0,0,0-68.35-24.82c23.21-23.29,59.06-37.54,91.87-35.46-18.12-16-44.64-24.57-68.82-24.09s-47.82,8.71-68.51,21.24c-16.56-15.78-40-27.39-62.58-30.93a114.17,114.17,0,0,0-66.84,9.92c12.83,0,25.55,4.73,36.22,11.86A65.58,65.58,0,0,1,1598,53Z"/>
    </g>
</svg>
