<svg viewBox="0 0 3016 1299.14">
    <path class="foliage" d="M3014.5,188.14c-39.5-47.5-120.5-32.5-130,25-41.5-26.5-92.5,10.5-91,52-1.5-19.5-3.59-22.87-21-28,48.63,3.51,11.32-54-21-108,48.37-4.68,6.05-63-34.06-120a17.88,17.88,0,0,0-30,1.12c-35.43,59.27-76.71,122.36-24,123.93-29.14,55.11-73.92,118-18,131-18.63,15.61-32.25,30.16-33,42-16.5-22.5-51.5-23.5-70,0,13.5-16.5,3.73-21.31-17-49,46.13-5.54,4-59-31-108.53a16.89,16.89,0,0,0-27.78.24c-34.27,50.43-73.65,104-24.25,103.29-32.17,58.1-85.25,133.06-18,111-27,50.88-67.58,111.22-16,107-19.17,18.9-31.78,36.55-33,52-22.5-18.5-75.5-6.5-81,23-25.5-35.5-85.5-19.5-94,19-17.5-18.5-44.5-6.5-46.5,16.5-27-33-81-10-80.5,31.5-4.5-6.5-14.5-7.5-20,1-1.5-8.5-6.5-12.5-16-17,28.75-5.52,9.6-39.44-18.59-78.72a14.84,14.84,0,0,0-24.79,1c-24.27,40.53-48.9,81.27-12.62,86.69-22.79,31.94-51.9,64.5-7,65-21.21,31.77-55.12,66.88-15,72-15.1,11.55-12.36,22.62-8,33-10.5-24.5-47.5-25.5-53,0-2.5-22.5-29.5-28.5-46-11-7.5-43.5-71.5-41.5-76.5.5-18.5-18.5-45,2-37,22-24-9-44,16-36,42-2.61-2.55-10-3-14,0,0,0,5-9-7.5-18.5,11.25-5.56,2.47-13.85-7.5-28.5,13.61-1.68,6.35-19.35-3.51-32.52a8.51,8.51,0,0,0-13.75.1c-9.23,12.85-17.67,31.82-4.74,35.42-14.25,20.05-23.16,27.64-7.5,37.5-12,17-26.08,32.47-11,42-9.58,7.77-14.54,23.12-12,35-3.2-6.9-7.77-11.71-14-14,14.25-1.71,5.87-15.21-5-30,16.41-.43,6-13.93-6-28.19,12.26-3.26,7.49-15.41-1.1-29.56a9.31,9.31,0,0,0-15.68-.4c-8.93,13.24-16.75,26-3.83,29.45-12.66,15.46-26.67,31.39-10.35,36.7-12.31,15.86-21.71,29.3-3.5,32.5-9.12,6.9-20.42,16.72-17.5,21.5-11.5-22.5-42.5-22.5-51,0-1.5-17.5-24.5-24.5-35-7,4.5-34.5-38.5-55.5-65-32,14.5-28.5-10.5-54.5-41-50,10.5-22.5-6.5-37.5-29.5-29.5,12-10,7.54-14.31-6-29,23-12-.34-33.82-13.5-56.5,32.24-2.7,7.09-30.41-4-52,24.93-6.31,9.25-26.66-7.08-47.24a11.89,11.89,0,0,0-19,.48c-14.69,20.57-30.44,41.55-9.94,48.76-11.25,23.13-29.46,49.08-3,57-8.64,6.31-12.4,15.39-15.5,25.5-10.5-15.5-41-12-41.5,8.5-4.5-30.5-41-18.77-41.5-8.5-2-44-59-49-81.5-17.5,10.5-25.5-7.5-46.5-36-36,4.5-42.5-40.5-64.5-70.5-39.5-8-36-72-36-80.5,3.5-4.5-19.5-29.5-23.5-44-9,4.5-22.5-15.5-38.5-39-32,28.85-16.88,4.11-51.39-24-87,49.53-10.61,11.33-58.89-15.5-98.5,41-4.93,8.51-45.9-18.27-86.46a17.37,17.37,0,0,0-29-.07c-26.08,39.08-53.61,77.47-16.77,89.53-17.53,40.82-54.59,96.42-5.5,95.5-12.94,13.6-27.64,27.58-17,36a41.5,41.5,0,0,0-26,6c3.28-7.68-4.63-15.34-20-23,51-7.35,16.48-54.51-8-97,56.83,3.75,14.58-59-12-107,39.52-13.09,7.35-49.82-21.37-85.41a21,21,0,0,0-32.94.22c-28.45,36.25-60.63,73.61-26.69,91.19-19,29.66-47.5,63.5-32.5,82.5-10-6.29-14.18-7-22.5-3.5,13.12-34.06-18.5-53.5-44.5-41.5,10-31-28-64-57-49,10-15,6.47-36.79-38-76,53-5,2.08-71.16-30.5-128.5,61.55,1.5,21-53.28-13.69-104.85a22.45,22.45,0,0,0-37.67.63c-29.66,47.52-62.75,97.25-15.64,95.22-19,43.06-62.14,102.89-28,109-12.06,9.28-22.23,18.59-23,28-6.5-24.5-33.5-32.5-54-18,8.37-34.18-21.5-57.5-53-42-7.5-42.5-63.5-47.5-86-16v1111.5h3013Z"/>
</svg>
