<svg viewBox="0 0 3178 1068">
    <path class="mountain" d="M2,1067,1,180S254.15,0,292.48,1,578.75,174,578.75,174,725,83,756.26,82c66.54-2.12,900.82,434,900.82,434s583.75-364,639.08-359c22.19,2,90.77,50,90.77,50S2543.26,93.73,2569.42,92c30.26-2,182.55,88,182.55,88S3005.54,26,3035.8,26c34.29,0,141.2,82,141.2,82v959Z"/>
    <path class="foliageNear" d="M1.49,399c0-36,35.68-63.85,56-59-1-44,45-64,78-38,26-37,84-25,98,17,31-21,65-7,75,27-2.41-14.4,10.51-49,42-93-49.29,1.39-.79-57.27,19-110-42.65,4.75,27.24-104.33,38-105,11.13-.69,87.55,111.65,39,108,25.6,50.22,68.39,97.23,22.5,103.5,27.65,31.18,51.5,54.5,50.5,68.5,3-10,12.66-17.63,30.5-26.5-53.06-11-2-66,23-110-50.24-7.5,27-99.5,37.5-99.5,14,0,81.28,109,31.5,107.5,19.28,30.62,46.26,68,41,77,22.5-26.5,61.5-21.5,74,7,27.5-35.5,80.5-20.5,86,22,14.5-9.5,33.5,1.5,40,15-5.84-16,15.28-44.85,37-74-47.33-7.43,14.5-101.5,36.5-99.5,17,1.55,72.72,78.39,28.5,84.5,27.11,52.52,69.89,115.55,27,121,14,22.4,32.85,47,26,60,6.5-13.5,25.5-21.5,41-12-12.5-27.5,10.5-43.5,33-40-5-47.5,58-60.5,75-27,8.5-18.5,30.5-21.5,44-5-1-40.5,46-57.5,67-20.5,0-36,42.49-53,62-34.5-10-15.42,16.19-30.58,39-59-50.08-14.32-5.48-49.91,24.5-91.5-41.32-10.94,20-95,40-95,13.22,0,62,98,25,95,16.74,43.68,61.82,101.34,14.5,100.5,24.1,48,63.17,88.61,11,95,22.7,21.82,42.13,43.17,44,62,12.5-11.5,32.5-7.5,41,5-.5-52.5,54.5-82.5,104-55,18.5-29.5,56.5-19.5,65,7,28.5-32.5,91.5-23.5,98,26-1.5-27.5,22.5-44.5,50-35-25.5-49.5,20.5-88.5,68-67-3.5-28.5,32.5-41.5,51-18,8.5-48.5,69.5-59.5,99-20,20.5-22.5,64.5-3.5,64,23,31.5-15.5,66.5,5.5,73,35,4.89-14.83,14-22.88,30-20-46.45-14.39-5.22-53.53,23-89-40.93-7.42,27.17-102.12,39.5-101.5,17.46.89,64.58,106.74,24.5,112.5,25.19,55.2,62.93,97.94,21,100.5,24.8,45.34,63.66,98.7,21,102,26.1,25.74,36.95,41.42,39,61,2.36-10.95,17.7-40.77,30-46.5-45-11-4.29-43.94,26-83-49-3.33-9.12-50,19-91-39.13-4.14,24.49-84.8,36.5-84.5,15.18.39,64.32,92.3,28.5,101.5,21.6,38.32,52.12,81,22,94,13.41,7.65,23.24,17.95,28,32-3.5-21.5,35.5-47.5,58-38-2.38-11.7,12.34-31.64,30-53-36-.5-1.58-58.07,22-97.5-34,.5,13-88,28.49-89,13.63-.88,68,97.5,29.51,93,21.12,46.9,66.35,92.33,27,95.5,15.06,28.39,33.5,59.26,30,74,12.5-24.5,42.5-31.5,65-15,.5-64.5,64.5-79.5,102-37,27.5-22.5,62.5-6.5,60,30,29.5-13.5,66.86,11.52,66,50V1067H1.49Z"/>
</svg>
