<svg class="oceanFloorFar"
    xmlns="http://www.w3.org/2000/svg" viewBox="0 0 3148.72 1290.5">
    <path class="volcanoBack" d="M2021.5,561c-17.52-13-37.06-22.71-55-35-19.67-13.39-36.73-29.92-55-45-22.11-18.23-40.7-40-60.82-60.19-6.13-6.15-10.76-13.74-17-20-4.2-4.23-9-3.88-13.08-2.61-10.19,3.17-20.36,5.68-31.07,5.76a24.44,24.44,0,0,1-5,0c-15-3.11-15.73-3.08-23,9.07-12.74,21.43-29.22,40-45.24,58.82-19.57,23-39,46.36-63.87,64.08-10.16,7.24-20.86,13.71-33.56,22L1821.5,673Z"/>
    <path class="volcanoMiddle" d="M2878.5,464c-24.88-16.77-46.4-37.41-66.94-59.05-22.25-23.44-44.5-46.89-65.94-71.06-23-25.87-43.41-53.71-62.26-82.8-25.68-39.65-43.26-83.39-65-125-7.39-14.16-11.75-30.16-24.71-41.25-4.46-3.82-8.94-5.93-14.12-4.68-17.84,4.3-35.55,4.42-53-1.24-12.31-4-23.56-1.4-35.07,3-9.26,3.53-18.6,6.33-29,6.34-21.57,0-33.82,15.1-44.94,30.82-18.35,25.93-32,54.82-50,81a580.32,580.32,0,0,1-56.26,68.75c-13.38,14.16-24.9,29.73-37.56,44.4-13.45,15.58-28.72,29.33-42.24,44.79a707.56,707.56,0,0,1-99.16,93.78c-33,25.53-65.33,52-100.61,74.56-14.9,9.54-29.75,19.33-45.39,27.31-17.4,8.9-34.76,17.94-51.67,27.62-32.87,18.84-68.51,31.64-102.16,48.71-4.78,2.43-9.84,5.18-15,5.78-6.58.75-7,4.25-7,9.28q.06,320.5,0,641c0,1.12-.26,2.31,2,3.5H3147.61c-.11.5-.16-426.5.11-634.5,0-7.35-3.37-11.85-9.24-15-20.95-11.1-42.91-20.61-62.68-33.5-15.2-9.92-31.47-18.32-45.52-30.29-11.26-9.58-24.92-16.18-36.82-25.19-24.29-18.4-47.89-37.71-73-55a485.56,485.56,0,0,1-41-32Z"/>
    <path class="volcanoFront" d="M1008.5,1c-12,1.94-24.06,7.78-35.85,4.48-9.17-2.57-18-3-27.14-3.58-11-.74-21.59,1.5-32,4.29-9.24,2.48-17.77,1.82-27.12.22-11.78-2-21.12,4.61-29,13.53-33,37.41-54.45,82.59-82.62,123.28a1080.78,1080.78,0,0,1-92.2,114.88c-16,17.42-31.12,35.62-46,54-16.15,19.92-36.13,35.88-54,54-19.92,20.1-40.36,39.65-61,58.95q-30.6,28.53-63.07,54.92C432,501.48,406.29,524,378.58,544.12c-18.95,13.73-37.76,27.67-56.71,41.39-24.2,17.52-49.3,33.43-74.43,49.4-27.16,17.27-53.38,36.07-82,51-15.18,7.95-30.49,15.69-46,23-26.07,12.24-52,24.81-78.86,35.35C27.75,749.33,14.3,752.07,1,757.08V1289.5H2097.61c1.65-3.69.84-351.83,1-522.5,0-9.2-2-13.34-11.85-17.65-27.93-12.18-56.44-23-84.27-35.38-26.58-11.85-54.14-21.54-80-35-33-17.21-68.07-29.8-101-47.06-30-15.73-60.11-31.14-90-47-49-26.05-97.77-52.65-143-85q-60.39-43.2-122.86-83.24c-19.42-12.45-36.33-28.85-54.22-43.65-24-19.81-48.78-38.53-72.85-58.18-12.2-10-23.25-21.39-35.14-31.82-39-34.23-77.38-69.14-114.23-105.76-21.84-21.71-42.32-44.38-62.13-67.94C1105.92,84,1087,57.19,1068.55,30c-14.25-21-34.71-28.82-59-29Z"/>
    <g class="craterOverlapLine">
        <path d="M1035.5,20c-6.67,1-13.3,2.42-20,2.91-12.1.88-24-.86-36-2.55a77.29,77.29,0,0,0-40,4.57c-17.75,7.16-36.46,5.29-55,5.14-2.65,0-4.16-3.17-7-2.07"/>
        <path d="M2572.5,96c-17.67,7.2-35.4,11.59-55.07,8.41-12.76-2.06-26.1-1.56-39,3.29-8.07,3-17.22,4.75-25.89.3"/>
    </g>
</svg>
