<svg viewBox="0 0 1359.16 361.52">
  <path class="volcanoFar" d="M1358.23,361H.5V141.49c48.64-25.55,88-58.66,117.39-97.27a6.33,6.33,0,0,1,7.54-2c4.28,1.88,8.76,1.89,12.22-.62a6.43,6.43,0,0,1,8.06.31c18.7,16.56,45,28.5,71.23,36.3a6.28,6.28,0,0,0,5-.64c32.83-19.75,62.37-45,89.11-74.89a6.32,6.32,0,0,1,8-1.25,17.44,17.44,0,0,0,15,1.93A6.41,6.41,0,0,1,340.77,5C360.93,26.92,383,45.43,408.1,58.83a6.36,6.36,0,0,0,5.95,0L427.13,52a6.18,6.18,0,0,1,6,.05,4.86,4.86,0,0,0,3.89.48,6.26,6.26,0,0,1,5.55,1.22c24.54,19.86,51,35.61,81.87,41.64a6.3,6.3,0,0,0,3.66-.4c13.8-5.86,28.63-17.27,43.85-30.72a6.39,6.39,0,0,1,8-.47c4.78,3.47,9.94,3,15.44-1a6.36,6.36,0,0,1,7.36-.07c22.81,15.81,46.63,28,71.68,35.84a6.38,6.38,0,0,0,4-.1c31.26-11.21,56.65-34.12,78.42-64.22a6.27,6.27,0,0,1,6.94-2.36c3.53,1.14,7.12-.07,10.75-2.5a6.38,6.38,0,0,1,8.38,1.17C795.82,45.7,810,57.26,826.73,61.37a6.37,6.37,0,0,0,2.88.05C836.4,60,843,56.36,849.48,51.6a6.33,6.33,0,0,1,7.47,0,159.72,159.72,0,0,0,49.7,24.67,6.29,6.29,0,0,0,3.57,0c12.85-3.75,26.79-12.72,41.13-23.64a6.33,6.33,0,0,1,8.29.51,96,96,0,0,0,41,24.62,6.35,6.35,0,0,0,5-.59C1033,61.67,1057.38,40,1079.21,13a6.49,6.49,0,0,1,7-2.18,8.55,8.55,0,0,0,7.8-1.33,6.35,6.35,0,0,1,8.16.92c22.08,22.87,46.59,42,74,56.65a6.35,6.35,0,0,0,7.14-.79l11.53-9.92a6.28,6.28,0,0,1,7.27-.62,12.55,12.55,0,0,0,12.38.35,6.4,6.4,0,0,1,7.5,1.35c22.44,24.14,46.55,44.64,73,59.93a6.35,6.35,0,0,0,5,.57,87.29,87.29,0,0,0,17-7.18,6.38,6.38,0,0,1,7.51.94,185.09,185.09,0,0,0,34.13,26Z"/>
</svg>
