<svg viewBox="0 0 2090.62 1202.68">
  <path class="path" d="M771.83,539.36c340.74-144,890.09-160.88,853.28-314.46-4.95-20.66-25.38-38.88-38-45.36,111.51,9,196.3-21.55,243-37.1,54.26-18.09,130.37-32,260.29-17.29-45.87-11.53-156.69-25.79-268.67,3.45-167.76,43.79-302.38,13.51-388-.76-112.64-18.77-261.12-5.6-261.44-52C1171.93,27.72,1370.14,6.6,1487.16,9c168.47,3.51,242.64,44.51,320,27.78-80.52,11.92-159.59-30.6-320-35.48-95.85-2.92-355.36,12-341.08,87.56,15.25,80.6,346.63,28.14,382.26,126.67,21.56,59.62-346.54,115.86-575.47,146.69-266.64,35.9-525.3,51-745.56-12.6C130.53,327.48,69.66,319.87,1,329.85v53.44c147.59-17.66,223.77,81.07,428,89.95C44.1,625.35-6.69,903.82,251.47,1201.68H1962.9C1220.9,1126.24,211.85,776.08,771.83,539.36Z"/>
</svg>
