<svg viewBox="0 0 1259.52 751.04">
  <path class="snowglobeRoad" d="M567.67,301.31c178.6-51.6,642.31-83,559.1-178.23,131.06,6.39,120.56-13.45,115.35-18.88-7.58-7.91-26.59-12.23-26.7-16.2-.16-5.58,15.68-5.73,44.08-5.55-28.4-1.23-48.4-.75-46.93,6,1.2,5.56,17.33,10.45,20.24,17.86,3.49,8.9-72.63,9.64-147.81-8.77-63.23-15.48-152.35-26.7-206.75-28.36-113.57-3.48-248,3.68-357,27.93,258.46-50.74,567-10.5,573.2,38.64,6.72,52.84-329,69.46-395.12,72.56-716.3,33.58-804,345.41-608.9,542.2H1156.1C333,702.12,130.32,427.66,567.67,301.31Z"/>
  <path class="bookPageLight" d="M567.94,162.33,530.05,109l-31.59,42.8C518.31,140.72,542.43,148.45,567.94,162.33Z"/>
  <path class="bookPageMedium" d="M541.12,94l30.41,36.51c-22.81-1.88-47.06,4.61-73.07,21.28Z"/>
  <path class="bookPageDark" d="M558.1,180.43a113.7,113.7,0,0,1,9.84-18.1c-25.58-16.69-49.85-26.2-69.48-10.52q32-32.53,64.87-43.84l-16.6-20.76-68.4,66.34,5.88,23.52Z"/>
  <path class="bookCover" d="M481.36,1.24l65.4,81a4,4,0,0,1,0,5l-56.4,68.34a3.66,3.66,0,0,1-3.13,1.32h0a3.2,3.2,0,0,0-3.42,2.9,41,41,0,0,0,1,13,2.36,2.36,0,0,0,3.52,1.48h0A9,9,0,0,1,493.1,173c17.34.43,39.95,3.55,65,7.43,1-2.29,1.72-3.86,2.74-5.82l4.26,6.29a3.34,3.34,0,0,1-3.18,5.23,580.82,580.82,0,0,0-67.1-8.8,9.25,9.25,0,0,0-6.09,1.7h0a5.19,5.19,0,0,1-7.19-1.12c-18.47-24.76-36.69-49.15-51.88-74.78a47.51,47.51,0,0,1-6.56-20.26,39.89,39.89,0,0,1-.06-6,3.77,3.77,0,0,1,3.87-3.51h0a4.41,4.41,0,0,0,3.79-1.93L478.16,1.38A2,2,0,0,1,481.36,1.24Z"/>
  <polygon class="romanNumeral" points="476.98 52.42 471.68 45.48 459.65 63.32 464.83 70.08 468.91 64.15 495.36 98.68 491.08 104.3 496.22 111 509.08 94.43 503.83 87.55 499.41 93.35 472.77 58.53 476.98 52.42"/>
  <path class="spineCreaseLine" d="M431.28,75.3q25,38.76,55.29,77.17"/>
</svg>
