<svg viewBox="0 0 1355.71 288.44">
  <g class="marbleDarker">
    <path d="M376.84,107.17c.77-15.47,2.48-38.82,3.42-54.29,5.22-.13,8.67-.14,13.89,0,1.15,15.39,3.24,38.67,4.55,54.05Q387.77,106.95,376.84,107.17Z"/>
    <path d="M382.18,21.12q-.09,9.33-.14,18.65c4.39-.12,6.58-.1,11,.09q0-9.28.15-18.58A108.72,108.72,0,0,0,382.18,21.12Z"/>
  </g>
  <g class="marbleDarkest">
    <path d="M378.2,29c0,4.36-.05,6.54-.07,10.9q9.28-.33,18.56.15c0-4.34.05-6.51.09-10.84A185.75,185.75,0,0,0,378.2,29Z"/>
    <path d="M373.33,52.92c2.42,3.08,3.63,4.66,6.06,7.84,5.23-.12,10.4-.12,15.62,0,2.61-3.16,3.91-4.71,6.52-7.73A279.22,279.22,0,0,0,373.33,52.92Z"/>
  </g>
  <g class="marbleDark">
    <path d="M355.23,121.6q-.11-6.81-.19-13.62,32.18-1.41,64.36-.77.08,6.69.18,13.39Q387.41,121.05,355.23,121.6Z"/>
    <path d="M373.36,40.24q0,6.34,0,12.68a279.22,279.22,0,0,1,28.2.13q0-6.28.06-12.57A237.4,237.4,0,0,0,373.36,40.24Z"/>
    <path d="M389.24,21.12q-.83-7.74-1.64-15.49-.93,7.73-1.84,15.44C387.15,21.07,387.85,21.08,389.24,21.12Z"/>
  </g>
  <path class="mountain" d="M1355.21,46.27C1333.78,29.66,1297.85.69,1287,.5c-16.15-.28-64.81,32.77-86.2,48.5-19.56-11.2-60.18-37.5-72.89-36.23-12.94,1.29-64.32,37.32-93,58.24-23.45-13.19-58-36.68-72.46-36.22-14,.44-43.31,20.25-58.74,30.6-5.83-3.8-20.8-9.92-28.61-10.55-10.29-.82-52.47,26.43-77.16,42C786.36,89.69,767.78,77.46,759.59,77c-9.55-.5-42.42,16.88-56,26.16-5.82-4.33-20.29-12.52-26.4-12-6.9.55-24.93,12.39-36.78,19.82-4.12-2.91-12-7.63-18.52-7.53-4.8.08-18.95,10-27.84,16.22q290.49-.54,581,2.77,90.09,1,180.17,2.44Z"/>
  <path class="sand" d="M1355.21,124.66q-161-2.52-322.07-3.84-245.76-2-491.53-1.25Q271,120.43.5,124.66v163c0,.24,1354.71.24,1354.71,0Z"/>
  <path class="foliage" d="M1355.21,82.09c-2.7-2.26-6.73-2.9-11.14-1.39,1.56-11.42-11.16-17.91-20.18-12-5.2-6.71-15.47-5.61-18.23,2.75a10.76,10.76,0,0,0-17.88,7.94c-.26-7-8.18-11.48-14.19-7.53-1.12-9.95-15.38-11.68-17.73-1.53-6.87-3.19-15.38,2.26-12.7,10.18-7.79-2.37-16.94,3.29-16.61,11.87-.39-9.55-12.74-14.73-20.23-9.31-5.72-7.5-17.79-6.44-21.68,2.32-5.18-4.81-15.39-4.64-16.93,3.69.11-6.94-7.75-8.65-12.5-5.31-3.8-10.26-17.56-10.1-22.93-1.54-5.37-4.06-13.5-1.7-14.35,5.46-8.83-4.91-19,3.15-17.44,12.76-1.83-6.08-10.1-10.43-15.1-4.89a7.08,7.08,0,0,0-12.12-.54c-5.33-4.46-15.92-2.39-16.93,5-.44-5-5.72-6.29-9.91-4-.06-5.28-5.77-7.62-9.92-4.83-1.27-10.41-14.64-10.5-19.46-2.75a6.23,6.23,0,0,0-10.41,2.94c-5.8-4.2-15-.2-14.77,7.23-5.08-3.23-9.35.46-9.14,5.54-.48-6.33-7.79-7.46-12.09-3.54a6.86,6.86,0,0,0-13,2.08c-5.38-4.37-13-.81-12.17,5.53-1.52-4.36-6.75-4.87-10.36-1.36-3.82-6-13.5-3.82-15.6,2.5-6.9-3.34-16.39,2.46-15.07,10.48,108.58,2.83,247.19,80,255.82,168h194.94Z"/>
  <path class="water" d="M639.59,135.55C629.76,121,533.16,121.46,461.7,120.12c-153.57-2.88-307.62,2.36-461.2,4.75v88c93.59,0,337.38-9.08,424.84-18.61,66.41-7.24,75.9-40.88,151.57-47.82C582.42,146.08,644.64,143,639.59,135.55Z"/>
</svg>
