<svg viewBox="0 0 3144 669.45">
    <g class="lighthouseInner">
        <path d="M874.08,248.83c1.78-35.89,5.75-90,7.91-125.88,12.12-.29,20.1-.32,32.22,0,2.66,35.67,7.51,89.66,10.54,125.3Q899.42,248.31,874.08,248.83Z"/>
        <path d="M886.45,49.32q-.21,21.62-.32,43.22c10.17-.27,15.26-.22,25.42.23q.13-21.54.37-43.08A245.93,245.93,0,0,0,886.45,49.32Z"/>
    </g>
    <g class="lighthouseCentre">
        <path d="M877.22,67.63c-.08,10.1-.11,15.16-.15,25.27q21.51-.78,43,.34c.06-10,.1-15.08.19-25.13Q898.78,66.8,877.22,67.63Z"/>
        <path d="M865.93,123c5.61,7.15,8.43,10.8,14.06,18.18,12.12-.29,24.1-.28,36.22,0,6-7.31,9.06-10.91,15.1-17.92A648.09,648.09,0,0,0,865.93,123Z"/>
    </g>
    <g class="lighthouseOuter">
        <path d="M824,282.29q-.24-15.8-.44-31.58,74.61-3.27,149.23-1.8.18,15.53.42,31.06Q898.58,281,824,282.29Z"/>
        <path d="M866,93.64q-.06,14.7-.07,29.4a648.09,648.09,0,0,1,65.38.3q0-14.57.14-29.15A547.6,547.6,0,0,0,866,93.64Z"/>
        <path d="M902.83,49.3q-1.94-18-3.82-35.91-2.16,17.91-4.26,35.81C898,49.2,899.6,49.22,902.83,49.3Z"/>
    </g>
    <path class="mountain" d="M3142.5,107.62C3092.8,69.1,3009.5,2,2984.35,1.5,2946.93.85,2834.1,77.47,2784.5,114,2739.14,88,2645,27,2615.5,30c-30,3-149.13,86.54-215.57,135-54.37-30.59-134.43-85-168-84C2199.5,82,2131.5,128,2095.73,152c-13.52-8.81-48.23-23-66.34-24.45-23.86-1.9-121.65,61.28-178.91,97.47-26.92-16.67-70-45-89-46-22.14-1.17-98.35,39.13-129.8,60.65-13.49-10-47-29-61.19-27.92-16,1.27-57.8,28.73-85.29,45.94-9.55-6.72-27.72-17.67-42.94-17.44-11.13.18-43.94,23.22-64.55,37.59q673.51-1.25,1347,6.43,208.89,2.4,417.75,5.66Z"/>
    <path class="sand" d="M3142.5,289.36q-373.35-5.81-746.74-8.9-569.82-4.66-1139.66-2.88-627.33,2-1254.6,11.78v378c0,.55,3141,.55,3141,0Z"/>
    <path class="foliage" d="M3142.5,190.68c-6.27-5.25-15.62-6.74-25.84-3.23,3.62-26.49-25.87-41.53-46.79-27.71-12.06-15.55-35.87-13-42.27,6.38-16.6-13.9-40.57-3.18-41.44,18.41-.62-16.2-19-26.63-32.9-17.46-2.61-23.08-35.68-27.08-41.13-3.56-15.91-7.37-35.64,5.26-29.43,23.62-18.07-5.5-39.27,7.63-38.51,27.5-.91-22.12-29.54-34.14-46.91-21.58-13.26-17.39-41.26-14.91-50.27,5.4-12-11.17-35.68-10.77-39.25,8.55.25-16.09-18-20.07-29-12.32-8.83-23.8-40.73-23.4-53.18-3.57-12.45-9.4-31.29-3.94-33.26,12.65-20.48-11.36-43.94,7.32-40.44,29.6-4.24-14.1-23.43-24.18-35-11.33-6.11-11.1-20.84-11.38-28.09-1.26-12.37-10.34-36.91-5.55-39.26,11.65-1-11.65-13.25-14.59-23-9.2-.12-12.23-13.36-17.65-23-11.2-2.94-24.14-33.95-24.33-45.12-6.36-8.39-7.68-21.06-4.15-24.14,6.82-13.43-9.75-34.89-.48-34.25,16.74-11.78-7.49-21.68,1.07-21.18,12.85-1.11-14.67-18.06-17.3-28-8.19-7.28-14.51-27.79-10.71-30.14,4.8-12.46-10.12-30.06-1.87-28.2,12.82-3.54-10.1-15.65-11.29-24-3.14-8.85-13.92-31.3-8.87-36.15,5.79-16-7.74-38,5.71-34.94,24.31C2349.13,285,2670.5,464,2690.5,668h452Z"/>
    <path class="water" d="M1483.27,314.62C1460.48,281,1236.5,282,1070.83,278.84c-356.07-6.67-713.24,5.48-1069.33,11v204c217,.09,782.24-21.05,985-43.14,154-16.77,176-94.77,351.41-110.86C1350.73,339,1495,332,1483.27,314.62Z"/>
</svg>
