<svg viewBox="0 0 1281.24 373.94">
  <path class="mountain" d="M1280.74,100.53c-27.87-16.35-45.34-23.73-72.7-33a22.85,22.85,0,0,0-15.68.4c-29.68,11.61-56.6,25.23-80.1,41.32a492.9,492.9,0,0,0-84.69-40.2,33.12,33.12,0,0,0-23.43.38c-38.5,15.29-73.89,33.41-105.37,55.07a562,562,0,0,0-84.83-40.35,21.35,21.35,0,0,0-13.56-.54c-23.23,6.79-43.67,15-59.19,25.64a460.86,460.86,0,0,0-71.1-39.91,28.51,28.51,0,0,0-20.48-1.06,1199.84,1199.84,0,0,0-141.52,56.22A608.29,608.29,0,0,0,407.43,69.37a27.34,27.34,0,0,0-21-.28,703.8,703.8,0,0,0-91.15,43.8,223.83,223.83,0,0,0-54.84-26.38,17.9,17.9,0,0,0-12.08.31c-12.3,4.76-23.28,9.67-31.11,15.18-29.83-15.24-60.56-28-93.23-35.64a23.88,23.88,0,0,0-12.19.34C53.29,78.12,34.47,81.61.5,99.27V373.44H1280.74Z"/>
  <g class="palmTrunk">
    <path d="M172.09,373.44c1.14-92.29,4.41-240.84-2-317.26l5,1.37c7.19,83.38,4.53,227.13,4.73,315.89Z"/>
    <path d="M598.31,373.44c-2-100-8.87-270.15-4.53-325.6l-5.44,1.82c-5.46,70.33.7,235.51,1.12,323.78Z"/>
    <path d="M1156.15,373.44c-1.14-92.29-1.16-227.83,5.29-304.24l-5,1.36c-7.19,83.39-7.78,214.12-8,302.88Z"/>
  </g>
  <g class="palmFrond">
    <path d="M628.74,6.7C613.89-3.4,599.61,6,596.35,10.16c-7.79-9-21.22-13.73-31.05-5.16,11,.44,15.78,3.16,19.86,11A27.39,27.39,0,0,0,561,30.6c5.85-4.71,12.89-4.76,20.13-2.78a26.59,26.59,0,0,0-17.55,19.56c4-6.32,19.42-7.45,19.42-7.45-6.94,5.82-9.62,12.88-9.86,21.94,3.71-5.49,11.3-9.66,17.69-11.36,7.45,1,17.25,8.4,17.25,8.4.14.38-1.71-12.17-7-15.57,9,0,22.4,9.9,22.4,9.9-.32-9.55-6.66-18.72-15.69-21.84,4.09-2.33,14.12-1.65,21.38,5.23,1.77-7.63-13.38-20.82-22.27-20.2C607.94,9.69,617.63,4.59,628.74,6.7Z"/>
    <path d="M172.18,58.64c-3.88.58-12.88,8.3-13.35,13-.72-5.83.17-13,3.29-17.95-5.39,2.85-10.75,8.2-12.12,14.14-2-8.46,1.1-19.27,7.93-24.66-6.05-.95-13.25,1.9-16.5,7.09,1.54-7.49,6.81-18,18.6-18.64-2.69-9-13.43-12.54-17.1-12.49,9.62-1.74,16.08-5.33,28.6,4.31,2.38-3.57,12.14-11.8,24-7.51a14.68,14.68,0,0,0-12.11,10c4.57.17,16.57,3.88,20,16.29-9.15-7.86-15.86-4.43-18.84-2.55,8.14,3.13,15,11.9,15.16,20.63-3.81-4.65-10.39-7.66-16.37-7C188.73,58,191.87,66,190.65,73,187.94,64.15,174.42,58.31,172.18,58.64Z"/>
    <path d="M1172.66,84.7c.72-5.82.09-15.69-3-20.66,3.66.61,13.59,8.7,14.95,14.64,2.05-8.46-4.19-17.05-11-22.45,6-.94,13.25,1.9,16.5,7.1-1.54-7.5-7.72-20-19.51-20.64,2.7-9,14.34-10.54,18-10.49-9.62-1.75-16.08-5.34-28.6,4.3-2.38-3.57-12.14-11.79-24-7.51,5.46.66,11.08,6.88,12.59,12.17-4.57.17-17,1.74-20.46,14.16,9.15-7.87,15.86-4.43,18.84-2.56-8.14,3.13-15.58,8.65-15.77,17.38,3.81-4.65,12-8.9,18-8.24-5.43,4.63-9.58,17.06-8.36,24.08,3-7.14,9.88-13.82,17.46-15.43C1163.6,70.28,1172.73,79.52,1172.66,84.7Z"/>
  </g>
</svg>
