<svg viewBox="0 0 3168.5 1145.36">
    <path class="mountain" d="M1.5,171.86C86.22,117.27,178.24,73.36,275.92,37.6a51.79,51.79,0,0,1,41.92,2.71c41.74,22,82.29,46.62,121.66,76.55C469.72,95.14,503.25,76.38,540.1,58a38.54,38.54,0,0,1,33.18-.63C610.22,74.12,645.59,93,679.5,118.86c46.26-33.7,100.16-61.79,159.83-90.75a43.63,43.63,0,0,1,38.4.16C935,56.66,988.44,86.42,1037.5,123.86c23.25-18,52.78-30.88,85.9-45a38.8,38.8,0,0,1,28.89-.65,563.09,563.09,0,0,1,113.21,57.64c52.72-36.3,109.6-66.29,170.14-95.06a40.29,40.29,0,0,1,34.11-.27c40.66,18.68,77.94,40.39,111.75,69.33,41.37-28.33,89-50,141.16-70.66a48.44,48.44,0,0,1,37.48.82c62.07,27.61,119.22,57.44,172.36,94.84,20.17-18.11,44.79-30,72.83-41.63a34.36,34.36,0,0,1,26.29,0c33.81,13.94,63.86,27.58,89.88,46.63,47-35,101.77-65,162.34-96a49.88,49.88,0,0,1,47.35,1c71.73,40.75,179.31,111,179.31,111s169.81-94.37,281.7-147a82.57,82.57,0,0,1,70.27,0c100.14,47.06,199.07,105.07,305,172v634H1.5Z"/>
    <path class="foliageFar" d="M1.18,1144.36H3167.5V263.86c-.5-31.5-68.5-33.5-73.24-6.26,2.74-41.24-90.26-70.24-110-11.72-8.47-39.8-71.31-35.52-77.58-6.14-5.73-34.38-78.73-36.38-83.17.56-9.56-21.94-53.56-15.94-54.06,9.56-8.5-46.5-80.5-43.5-87.7-4-.8-32.52-87.8-47.52-92.66.56-5.14-26.08-47.14-26.08-55.64,1.42-16.5-34.5-70.5-31.5-81,3-12.5-47.5-74.5-50.5-94-5-18.5-30.5-72.5-34.5-86,9-15.5-30.5-50.5-26.5-60,2-19.5-53.5-95.5-36.5-104,5l-112-4c-25.5-31.5-65.5-33.5-88-2-13.5-25.5-45.5-23.5-57,2-21.5-38.5-72.5-33.5-90,4-11.5-28.5-48.5-27.5-60.35,1.88-9.15-28.38-61.15-28.38-68.65-3.91-11.5-28.47-67.5-24.47-73.12-1.67-4.38-30.8-74.38-35.8-88.19-.56l.31.26c-18.5-38.5-77.5-39.5-104-2-25.5-50.5-91.5-57.5-127-4-5.5-29.5-63.5-29.5-65.68,2.95-9.48-19.76-53.82-16.45-55.81,5.58-6.62-20.46-45-25-53.58-2.23-4.84-33.28-70.43-35.8-79.26-2.79-10.76-29.6-64.67-25.51-70.67,5.49-20-53-121-49-145.89-1C763,236.36,713,233.36,704.87,257.6c-2.67-24.11-43.87-31.24-54.14-7.51C641,219.36,600,222.36,590.5,253.86c-9.5-23.5-39.5-24.5-46,1-19.5-43.5-71.5-40.5-93.58,5.53-8.07-21.25-39-30.59-55.82-7.81-17.1-37.22-65.1-42.22-91.6-2.72-16.5-29.5-56.5-35.5-75.84-4-14.66-16.52-50.66-11.52-52.46,5C160,219.36,93,222.36,79.75,253.13,46.5,218.86,1.5,234.86,1.5,259.86Z"/>
    <g class="building">
        <path d="M719.48,417.84c2.33-40.16,3.94-80.1-1.83-118,19.62-.64,41.25-.91,60.88-.69,2.46-35.39.51-72.84-2.83-106,38.62-1.06,78.46,2,119.31,2.92-.16,24.67-1.33,49.33-1.5,74,20.57-.43,45.18-.3,70.29.77-4.57,46.1-3.64,96.38-2.28,147Q840.5,416.05,719.48,417.84Z"/>
        <path d="M53.48,382.84q1.37-58-1.79-116c25.84-1,55.48-3.58,88-2.62,0,11.2-1,18.8-1,30,21.63-.48,48.11.37,74.26.62-4.62,25.62-4.32,55.62-1.36,88Q132.5,381.72,53.48,382.84Z"/>
        <path d="M1071.48,431.84c1.2-30.34,1.23-60.68-1.41-91,19.13-.54,39.67-.84,61.06-.59-.63-16.4-1.12-31.66-1.18-47,33-1.55,67.46-.08,102.69,1.59q-1.07,68.49-2.12,137Q1151,430.72,1071.48,431.84Z"/>
        <path d="M3052.52,397.84c-1-31.34-.66-62.67,1.45-94-16.35-.26-31.47,0-50.06-.48-1.95-11.86-.68-23.4,1.14-33-29.18-.09-58.34,1.07-87.51,1.48q1,63,1.94,126Q2986,396.91,3052.52,397.84Z"/>
        <path d="M2352.48,428.84c.24-37.63-.28-75.29-1.76-113,18.74-.88,37.09-1,53.61-.68,1.34-25.67,0-51.33-1.79-77,25.16,0,52.14-.1,79.51-.5,1.25-17.67.28-36.34-1.13-54,27.8-.36,59-2.2,91.23-1.8-.54,27.62-1.78,59.15-1.58,89,27.85.74,58.33.92,88.39,1q-1.22,78.5-2.44,157Q2504.51,426.58,2352.48,428.84Z"/>
        <path d="M2196.52,387.84c-.57-39,.05-72.94,1.6-103-29.58-.85-60-.87-87.33-.78-1.47-26.66,1.18-53.33,2.23-80-41.46-.7-82.92-1.51-124.38-.21,2.93,61,3.65,123,2.84,184Q2094,386.36,2196.52,387.84Z"/>
    </g>
    <path class="foliageMiddle" d="M1586.78,373.33c0-34.7-52.59-47.83-67.76-15-5-38.45-67.76-48.76-91-15,10.11-57.2-89-72.21-107.2-26.26-31.35-39.38-114.28-15-107.2,45-36.41-22.5-75.85-.94-77.88,30-25.28-22.51-56.63,1.88-54.61,22.51,3-30-30.34-42.2-53.6-25.32,16.18-31.89-13.15-60-49.55-45-11.13-49.7-89-40.33-90,7.5-23.27-12.19-51.58,7.5-45.51,32.82-17.2-10.32-37.42,2.81-38.44,21.57,4-33.76-36.4-54.39-65.73-32.82-3-28.14-42.48-34.7-62.71-6.57-22.25-16.88-59.66-.94-56.63,27.2,2-30-36.41-45.95-56.64-27.2,5.06-44.07-62.7-60.95-91-22.5-10.11-46.89-77.87-36.58-88-5.63-33.38-35.64-90-15.94-91,27.19-2-30-30.34-32.82-47.54-21.56,8.09-28.14-40.45-49.7-59.67-18.76-29.8-28-63.17-.74-59.67,20.63-25.28-21.57-68.77.94-61.69,28.13C35.39,356.45,1,370.51,1,402.39v740H3166.85V404c-3.39-18.5-27.66-20.38-35.75-3.5,0-22.51-30.34-30.95-46.52-18.76,2-51.57-82.93-60.95-100.13-13.12-18.2-39.39-75.85-35.64-92,6.56-26.29-18.75-64.72,1.88-64.72,32.82-10.12-47.82-69.79-50.64-96.08-23.44-32.36-32.82-70.79-15.94-82.93,19.69-3-49.7-49.56-62.83-80.91-44.07-2-63.77-109.22-46.89-109.22-3.75-23.26-10.32-49.56,1.87-46.52,28.13-24.28-12.19-49.56,0-53.61,27.19,14.16-40.32-42.47-67.51-63.71-49.7-3-24.38-51.58-30.94-66.75-.94-13.15-30-65.74-16.87-67.76,6.57-16.18-13.13-41.46-5.63-43.49,12.19-1.7-38.22-53.6-39.39-67.76-15-19.21-28.14-65.73-12.2-63.71,17.81-36.75-6.77-60.53,2.29-66.75,32.82-28.17-24.27-54.27-24.94-77.87,2.82q-44.22-34.53-78.89,6.56c-25.69-23.31-51.32-24.1-76.86-1.87-7.67-27.57-27.67-34.15-55.62-27.2C1633.44,368.75,1616,364.79,1586.78,373.33Z"/>
</svg>
