<svg viewBox="0 0 3137.38 919.39">
    <path class="foliageNearest" d="M3136.37,918.39H1l.46-675.73c-.4-48.3,45.6-86.3,87.49-68.35.11-35.95,39.11-56.95,71.11-37.88-5-51.07,41-78.07,82.24-44.29,25.76-45.78,82.76-49.78,111.7-2.9,36.06-23.88,85.06-8.88,86.68,42.58,26.38-13.46,59.38,3.54,56.46,31.82,12.92-39.28,55.92-49.28,87.11-30.36,5.81-29.92,34.81-36.92,56.42-17.16,31.39-30.76,83.39-23.76,102.39,17.52,27-18.28,61-4.28,64.45,28.85-1.45-36.13,32.55-54.13,61.61-38.33-5.06-30.8,22.94-47.8,48.9-37.33-3-48.47,49-75.47,85.78-40.39,9.26-35.08,49.26-46.08,71-15.8,29.29-43.28,96.29-39.28,115.14,12.74,35.15-18,71.15,6,55.38,46.92,30.77-29.94,84.77-5.94,83.3,36.43,4.47-41.37,45.47-58.37,80.52-31.91,10-50.46,71-72.46,111.24-24.31,6.71-29.15,44.71-34.15,61-4.92,38.69-40.23,101.69-27.23,102.76,40.16,35.93-17.39,84.93,9.61,72.25,59.71,10.68-35.1,47.68-49.1,73.52-26.8,5.16-29.3,40.16-42.3,64.21-24.82,20-44.48,72-47.48,95.57-4.08,37.38-29.4,92.38-10.4,94.57,38.2,18.81-13.6,43.81-4.6,47.54,18.92-3.73-50.52,43.27-80.52,83.24-61.95-17-38.57,17-62.57,48.48-42.17,10.55-47.4,68.55-69.4,107.6-26.35,19.95-23,68.95-25,80.2,14.07,33.75-36.12,100.75-25.12,101,37.78,37.77-8.9,78.77,24.1,52.8,66.85,45-6.75,80,25.25,75,64.87,8.94-42.62,52.94-61.62,89.39-40.43,9.55-32.19,53.55-43.19,80-16.8,23.53-44.39,84.53-42.39,97,13.21,28.51-17.6,62.51-2.6,61.09,33.35,29.42-9.95,69.42,14.05,59.35,52,27.07-19.95,70.07-2.95,69.38,37.93Z"/>
</svg>
