<svg viewBox="0 0 1149.39 962.73">
        <path class="lizBlanket" d="M720.93,67.14c127.71-53.31,302.74,10.48,297.59,131.44,67.64,59.31,121.79,120.27,89.28,172.36,3.45,26.68,14.43,40.89,14.88,64.48,25.26,16.61,27.56,39,24.8,66.95-11.16,112.84-210.8,105.4-233.12,67Z"/>
        <g class="blanketFoldLine">
            <path d="M1018.52,198.58c-19.62-21.14-37.77-29-48.67-36.63C944,143.87,964,120,981.47,149.68"/>
            <path d="M810.36,107.71c147.87,13.56,189.19,133.66,229.87,282.81,12.68,46.49,46.49.65,16.14-50.36"/>
            <path d="M1107.8,370.94c-7.52-50.8-52.8-92-108.7-108.34"/>
            <path d="M1122.68,435.42c-3.56,41.79-23.79,68-74.06,66.16"/>
            <path d="M953.71,436.36c18.72,71.68,62.42,107.11,124.61,98.15"/>
        </g>
    </g>
    <path class="lizUndershirt" d="M533.21,114.7c-3.05-5.83,3-14.57,9.18-13.27l311.09,71.48c52.25,7.56,100.24,71.14,81.88,128.61C928.86,656.11,766.68,676,487,443.34Z"/>
    <g class="clothesFoldLine">
        <path d="M815,359.12a328,328,0,0,1-16.92,64.3"/>
        <path d="M820.28,401.9c-5.69,26.51-11.87,49.31-18.7,67.18"/>
        <path d="M544.56,496.55c21.34-6.37,47.77,6.61,63.63,15.74"/>
        <path d="M601.15,471.24c23.19-6.84,51.74-8.31,81.14-1.45"/>
        <path d="M570.35,487.4c12.49-5,29.84-5.5,42.34-1.52"/>
    </g>
    <g class="skinIndian">
        <path d="M510.86,154.82l22.35-40.12c70.55,74.74,217.31,100.43,227,112.76,39.71,50.47-1,231-60.37,240.38-47.47,7.52-90.41-20.91-216.24-38.62"/>
        <path d="M832.1,577.79c-20.71,11-66.54,6.92-88.5-3.44,1.85-33.57-38.23-80.43-56.93-84.22-55.92-11.35-135.28-43-199.63-46.79,30.25,68.3,56.26,158.2,108.61,170.56,74.71,17.62,166.23-6.53,237.82-17.6Q832.84,587,832.1,577.79Z"/>
        <path d="M834.26,708.73c-2.47,25-27.9,29.66-34.82,115.09,1.83,27.18-11.83,56.76-14.52,75.25-.66,14.2,33.66,11.88,37.29-27.72,2-7.59,8.26-27.73,14.86-36.64,1.48,12.51,17.85,19.36,13.62,55.63-9.37-5.58-23.73.73-23.56,10.68.07,4.26,9.18,3.82,12.57,13.55-24.65-8.44-27.94,9.34-26.2,13.47-25.33,5.37-26.86,37.2-10,33.37,11.31-4.79,15.72-.77,25.63-5.58,21.78,4.95,59.74-6.92,68-22.09,18.49-7.93,26.7-48.26,34-66,9.9-24.1-20.79-84.5-17.93-144.32,7.68-140.4,61.12-301.73,37.71-382.08S850.33,178.57,791,78C725.27-33.3,626.81-22.6,542.39,101.43c32,37.32,106.07,72.95,166.14,89.71C739.3,242,824.1,364.22,822.39,376.75,811.18,458.78,843.35,585.1,834.26,708.73Z"/>
    </g>
    <g class="skinOverlapLine">
        <path d="M670.79,151.54c18,6.65,27.27,25.94,37.74,39.6"/>
        <path d="M718.6,362.91c14,1.09,30.14,10.45,44.56,15.37"/>
        <path d="M673.2,537.29c14.83,2.38,44.6,25.71,70.4,37.06"/>
        <path d="M893.83,873.31c-14.52,50.19-11.88,54.8-64.68,82.52"/>
        <path d="M916,872.34c-1.16,15.45-13.53,49.84-18.82,61.4"/>
        <path d="M850.69,890.34c-1.67,13-4.61,18-12.66,25.81-16.49,16.11-14.38,9.4-24.53,11.89"/>
    </g>
    <path class="skinCreaseLine" d="M822.39,376.75c6.62-4.66,14.87-7.82,23.57-10.55"/>
    <g class="pillow">
        <path class="lizPillow" d="M460.72,473.1c236.68-73.61,310.21,16.73,388.42,22.65,35.08,2.66,47.64,37.5,14.72,56.62-37.28,21.67-55.2,75.1-134.75,79.27-154.37,8.11-470,6.8-618.31,0C74.58,630,54.47,602.26,27.86,599.07c-34.4-4.12-35.86-40-3.79-49C80.14,534.39,182.14,390.43,460.72,473.1Z"/>
        <path class="pillowFoldLine" d="M460.72,473.1c-17.87,7-28.67,13.13-39.64,21.52"/>
        <path class="pillowDisplayLine" d="M855.94,524.06c-69.08,27.18-83.8,56.62-108.72,61.15"/>
    </g>
    <g class="head48">
        <path class="skinIndian" d="M503.91,514.51a48.83,48.83,0,0,0,23.48-14.59c55.87-7.54,117.67-50.52,128.77-96.47,10.55-43.74,34.46-45.17,35.72-88.56.72-33.07-22.76-49.65-40.48-72.69-22.13-28.78-25.82-55.55-70.56-77.68C403.59,33.21,503.91,514.51,503.91,514.51Z"/>
        <path class="lipFemaleBrown__noStroke" d="M641.71,266.39c11.28,21.78,37.22,19.42,38.82,56.66,1.05,24.4-9.18,31.22-28.59,53,8.13-14.42,22.56-20.72,21.77-49.31C672.6,286.54,642.49,282.92,641.71,266.39Z"/>
        <g class="lipEdgeLine">
            <path d="M651.94,376c8.13-14.42,22.56-20.72,21.77-49.31-1.11-40.19-31.22-43.81-32-60.34"/>
            <path d="M664.18,288.45c23.21,17.55,18.87,53.57,7.24,65.61"/>
        </g>
        <path class="cheekLine" d="M632.86,263.05c-7.58,20.28-20.14,33.82-24.27,48.45"/>
        <path class="noseLine" d="M611.41,391.39c11.67,8.65,25.49-1,31.39-11.67,3.21-5.79,19.56-13.1,19.56-30,0-23.62-19.61-27.07-22.58-33.2-5.83-12.08-23.14-23.14-31.19-5"/>
        <g class="eyeLashLine">
            <path d="M543.54,241c47.09,23.51,28,53.24,32.59,72.59"/>
            <path d="M579.26,394.1c1.32,20.06,24.68,39.89-16.53,77.14"/>
        </g>
        <g class="eyebrowBlack">
            <path d="M519.13,230.89c27,19.24,51.32,59.11,50.86,99C565,311.92,555.33,262.05,519.13,230.89Z"/>
            <path d="M569.07,397.22c3.91,39.92-10.54,70.57-30.24,93.94C566.78,452.67,564.49,423.8,569.07,397.22Z"/>
        </g>
        <path class="hairBlack" d="M370,95.69c-47.9,5.48-117.53-6.45-163.47,30.51C163.84,170.33,107.12,183.63,62,272.4c-67,132-33.62,302.54,0,238.24,9.85,34.21,45.8,70.16,61.92,39.56,44.91,33.94,99.53,21.22,161.11,22.24,83.92,1.39,165.52,15.88,209.57-50.62,14.4,45.64,55.9-11.18,17.2-89.45,44.92-35.49,30.83-62.7,10.32-50.74,38.78-83.39,30.29-123.27.86-95.46,1.64-56.28-4.64-93.82-21.47-106.32,7.28-8.14,11.13-17.29,15.45-27.95,27.43,7.19,39.46,4.09,63.85,12.62,2.67-23.88-14.75-23.09-19.81-23.88C507,132.21,486.58,82.34,370,95.69Z"/>
        <g class="hairOverlapLine">
            <path d="M484.45,196.42c1.54-15.47,6.79-22.07,17.09-16.57"/>
            <path d="M517,151.9c2.06-5,3.44-9.19,3.71-14.51"/>
        </g>
    </g>
</svg>
