<svg viewBox="0 0 108.72 419.87">
  <path class="lizJeans" d="M78.22,198c4.08,8.95,5.06,25.43.83,36.06-.81,2.05,1.52,4.55-1.84,5.52-1.77,21.29-3.55,41.55-7.46,59.61-.64,3,1.8,3.87-.52,5.82-1.7,4,2,5.93-.66,7.68,7,22.11-1.36,43.47-2.06,60.23-1.15,5.15-29,4-34.06.46-1.42-4.09.42-8.6.2-10.93-.51-12-2.48-28-2.85-42.27-1.92-2.16,1.48-3-.13-7.1-2.31-1.93.9-1.84-.39-5.14-1.89-4.83.18-6.62-1.67-13.44-4.52-16.66-5.92-44.47-6.73-68-.15-4.48-2.85-17.72-.79-27.72Z"/>
  <path class="soleLightTanDark" d="M50.53,416.83l4.72.73v-3.31A46.84,46.84,0,0,1,50.53,416.83Z"/>
  <g class="soleLightTan">
    <path d="M48.71,397.6c.1,1.63-15.29,12.08-28.26,12.66-4.68.21-10.22-.49-12.54-2.38a2.87,2.87,0,0,1-.27-2.59Z"/>
    <path d="M67.28,405.1a49.92,49.92,0,0,1-1.48,9.58c-.41,1.11-6.6,2.53-10.55,2.88v-3.31a31.43,31.43,0,0,1-16.9,5.37,25.08,25.08,0,0,1-12.83-3.17,3.54,3.54,0,0,1-.28-2.93Z"/>
  </g>
  <g class="lizShoe">
    <path d="M50,377.65c.51,9.06,0,13.65-1.24,20-3.15,3.07-9.68,3.86-15.15,6.44-9.85,4.65-21.71,4.47-25.92,1.25-.55-8.1,5.53-6.54,8.88-8.91,4.32-3.05,6.42-4.15,10.25-8.34,1.88-2.07,5.17-5.29,5-11.31C35.59,372.9,44.49,372.2,50,377.65Z"/>
    <path d="M65.1,381.81c.52,10.28,3.48,16.14,2.18,23.29-3.23,3.48-10.12,5.13-15.51,8.54-8,5.05-22.92,3.25-26.53-.12-.14-6.3,6.1-6.46,9.32-9.46,4.19-3.9,6.32-7.39,9.28-12.93a31.49,31.49,0,0,0,3-10.2C52,375.71,60.15,376.86,65.1,381.81Z"/>
  </g>
  <g class="lizJeansCuff">
    <path d="M31.76,376.73c4,0,9.67-.83,12.05,1.69a28.64,28.64,0,0,1,3.12-.63,36,36,0,0,0-.32-5.7c-2.61,1.8-12.43,1.17-14.59-.6C31,371.44,30.77,376.68,31.76,376.73Z"/>
    <path d="M46.8,380.93c4.1,0,10.37-1.11,12.81,1.75a14.4,14.4,0,0,1,5.49-.87c3.45.25,3.49-9.88,1.46-9.89-2.4,4-16.28,4.83-19.85.9C45.4,372.84,45.49,381,46.8,380.93Z"/>
  </g>
  <path class="lizUndershirt" d="M41.69,98.93c-10.17-1.2-17.69,15.26-24.6,35.83C37.38,121.25,52.61,108.39,41.69,98.93Z"/>
  <path class="lizJacketInner" d="M18.6,199.61c-2.51.64-6.4.89-6.52-.77-.71-9.9,5-22.38,8.25-40.87Z"/>
  <g class="lizJacket">
    <path d="M71.78,86.55c6.41,10.41,15.63,14.63,14,22.26.83,2.68.46,9.43-1.1,14.06-5.33,15.73-5,23.12-9.33,35.79.37,3.67,4.95,6.41.48,11.56,1,2.39,3.64,3.73,2,7.49,1.44,9.79,4.8,15.73,4,20.68.11,4.21-61.29,7-64.14,1.48s2.68-23.38.4-31.14c-5.23-3.11-2.6-15.13,5.29-13.79l-3-4.89C4.16,129.11,56.89,99.38,71.78,86.55Z"/>
    <path d="M25.54,108.7c-2.18,2.55-4.8,3-4.84,6.3-14.16,12.47-12.79,28.39-.32,35.05C18.92,141.33,20.94,125.65,25.54,108.7Z"/>
  </g>
  <g class="lizJacketLapel">
    <path d="M69.78,84.49C53.72,93.64,16.39,126.58,20.64,133,28,120.71,40.73,116.23,54.29,107.6c.23-.62-1.3-3.41-2.18-4.7,4.21-.07,7.76.39,8.64,0,4.08-3.18,10.35-8.22,13.8-12.71C75.13,89.75,70.35,84.05,69.78,84.49Z"/>
    <path d="M30.43,101c0,.4.73.63,1.38,1.1a22.11,22.11,0,0,0-3.73,2c-6.91,9.79-10.23,21.28-8,35.33.6-21.65,13.87-38.16,26.88-51.86l1.16-2.28A83.33,83.33,0,0,0,30.43,101Z"/>
  </g>
  <g class="clothesDisplayLine">
    <path d="M21.29,201.76c-.37,25.45,5.39,27.77,7.23,33.59"/>
    <path d="M31.17,206.77c4.35,6.37,12.3,8.82,20.81,8.24"/>
    <path d="M24.51,201.76c-.3,9.32-.25,18.11,3.07,24.25,1.48,2.73,1.8,4.65-.62,5.93"/>
    <path d="M61.31,374.75c.85.69,1.25,6.57.54,7.33"/>
    <path d="M64.09,373.83c.89.89,1.34,7.13.53,7.95"/>
  </g>
  <g class="clothesOverlapLine">
    <path d="M23.35,154.94c2.75-.3,4,.47,6.88.49a10.73,10.73,0,0,1,9.82.63c4.38-1.82,4.08-.15,6.16.13,1.69-.74,3.07-.68,4.16.12,1.16.61.62-1.3,2.14-.75,1.51-6.17-.22-11.62,2.14-11.46.88-5.16-.21-11.68,2.64-15a16.2,16.2,0,0,1,1.38-7.3c-1-2.8.26-6.8,2.27-10.33"/>
    <path d="M75.37,158.66c-3,7.09-4.46,14.52-7,16.4-5.15,3.4-17.48,2.13-28.35.81-10.48-1.27-20.22-3-22-7.14"/>
    <path d="M43.81,378.42c.86,2.15,1.32,6.64,1,10.68"/>
    <path d="M59.61,382.68c1.46,2,1.28,7.68.74,12.53"/>
    <path d="M28.52,235.35c.66,26.39,6.67,53.67,12.08,76.43.71,1.76-2,3.24.92,4.86-.22,1-1.76,2.13.31,3.71-.15,13,2.58,36.27,4.88,52.47"/>
  </g>
  <g class="clothesFoldLine">
    <path d="M57.33,110.89c-4.36,1.58-8.84,5.92-12.59,8.11"/>
    <path d="M55,116.71c-3.75,3.64-10.07,4.91-13,7.91"/>
    <path d="M62.53,107.76c5.62-3.53,12.07-4.44,12-2.7-.06,1-7.28,1.56-13.55,6.44"/>
    <path d="M64.92,118.38a16.67,16.67,0,0,0-6.25,3.45"/>
    <path d="M77.65,123.26c-4.16,4-14.19,2.71-20.36,5.87"/>
    <path d="M61.28,130.44c4.86.06,4.22,1.81-2.81,5.52"/>
    <path d="M73,140c-5.58,2.49-13.25,2.29-18.32,4.09"/>
    <path d="M52.51,155.56c3.78,3,9.22,9.91,4.71,10.67"/>
    <path d="M52.22,168.1c-5.1-8.74-1.12-16.35.77-6.58"/>
    <path d="M42.34,158.75c.32,1.85,1.88-1.23,3.87-2.56"/>
    <path d="M40.05,156.06c-5.44,1.68-9.47,11-7,2.25"/>
    <path d="M25.2,142.49A19,19,0,0,1,20,140.76"/>
    <path d="M27,146.32c-2.74-.46-5.68-1.49-7.08-1.31"/>
    <path d="M45.52,147.32a27.13,27.13,0,0,0,7.69,2.42"/>
    <path d="M41.78,147a35.62,35.62,0,0,0,11,7.09"/>
    <path d="M77.81,177.71c-1.09,2.85-5.16,5.32-9.07,8.51"/>
    <path d="M69.38,181.12c-4.23,3.73-8.87,5.76-14,5.64"/>
    <path d="M75.85,170.22c-.92.6-1.71,1.9-1.28,4.34"/>
    <path d="M26.12,182a24.39,24.39,0,0,0,16.21,11.66"/>
    <path d="M69.23,305a30.56,30.56,0,0,1-10.09,2.41"/>
    <path d="M29.67,313.05c1.39.58,5.61.64,7.95.52"/>
    <path d="M29.8,320.15c1.32,1,4.95,1.44,8.1,1.44"/>
    <path d="M41.52,316.64c2.14.79,6.95,1.15,10.57.73"/>
    <path d="M41.83,320.35c1.68,1,7.11,1.42,11.63,1.12"/>
    <path d="M42.11,314.76c2.66,1.08,6.44,1.17,10.69.83"/>
    <path d="M42.77,318.74c3.8,1.13,10.57,1.13,16.51.12"/>
    <path d="M31.18,311.37a30.28,30.28,0,0,0,6.24.3"/>
    <path d="M31.84,318.86a21.7,21.7,0,0,0,7.6.89"/>
    <path d="M77.21,239.55A49.09,49.09,0,0,1,65.69,241"/>
    <path d="M76.14,238.09a51.22,51.22,0,0,1-13.24,1.18"/>
    <path d="M31,235c7.12-4,14.19-4.4,20-7.13"/>
    <path d="M33.44,236.84a89.81,89.81,0,0,0,15.09-.65"/>
    <path d="M28.67,239.55c-.54-1.63-2.18-2.35-3.43-3.9"/>
    <path d="M58.73,353.61c-2.14,7.6-4.33,15.08-8.85,16.19"/>
    <path d="M42.18,365.73c-1,2.3-7.79,4.16-8.85,1.15"/>
    <path d="M66.82,303.45a39.07,39.07,0,0,1-10.18,1.94"/>
  </g>
  <g class="eye">
    <path class="sclera" d="M31.86,43.54C67.38,50.7,69.53,40.06,34,32.9,31.22,34.58,30.12,40.73,31.86,43.54Z"/>
    <g class="irisDarkBrown">
      <ellipse cx="47.3" cy="41.56" rx="3.33" ry="2.24" transform="translate(-5.85 75.31) rotate(-73.72)"/>
      <ellipse cx="32.99" cy="38.12" rx="3.33" ry="1.77" transform="translate(-12.85 59.1) rotate(-73.72)"/>
    </g>
    <g class="pupil">
      <ellipse cx="46.65" cy="41.37" rx="1.29" ry="0.87" transform="translate(-6.13 74.56) rotate(-73.72)"/>
      <ellipse cx="32.34" cy="37.93" rx="1.29" ry="0.69" transform="translate(-13.14 58.34) rotate(-73.72)"/>
    </g>
  </g>
  <g class="skinIndian">
    <path d="M69.54,84.84A191.82,191.82,0,0,0,45,103.11c-8.82,4.34-11.27,5-11.16-.17,3.64-5.27,3.35-6,8.38-10.87,1.87-6,1.4-15.27-8.23-18.72C58.45,69.51,78.89,69.2,69.54,84.84Z"/>
    <path d="M10,146.27c-1.71,0-2.26.67-4,.24-3.67.39-.65,5.79,4,5.36C13.17,149.79,12.7,148,10,146.27Z"/>
    <path d="M23.35,154.94c-1-4.49-4.88-5.83-6.69-8.57-3.29-5-3.82-2.55-5.84-5.63-1.91-1.48-3.77,2.81-.78,5.53,2.43,2.75.83,6.47-3.62,4.4-2.55-1.22-4.27-2.07-5.3.17-.86,1.9.06,2.9,1.55,3.8-.39,14.72,10.15,19.64,15.39,14.09C14.94,164.84,16.63,154.44,23.35,154.94Z"/>
    <path d="M5.35,154.81c6.05.29,5.11,5.09.85,5-3-.09-5.95-.16-5.95-2.64C.25,153.91,2.64,154.68,5.35,154.81Z"/>
    <path d="M9.78,165.62c1.83-1.18,1-4.49-3.6-4.16-2.33.16-5.18-.29-4.78,2.8.12,2.15,1.63,2.69,3.67,2.6-2.38,1.55,0,5.22,3.71,3.52C12.09,169.25,12,166.7,9.78,165.62Z"/>
    <path d="M35.11,40.34c.38,0,1,.23.86-.58-.53-3.72-3.18-4.86-4.68-2.43a2.51,2.51,0,0,1,.5-2.28c.78-1-1.16-2.41,2.1-6.56-1.31-40,77.16,2.75,37.44,39.15-9,11.29-15.42,11.49-25.54,11.85-6.55.23-10.68.16-14.68-1.37-5.85-2.23-2.95-5.91-4.84-12.06-3-9.71.28-19.18,4.07-23.27.84-.91-1.51-2,.74-3.9C31.53,39.92,33.25,40.48,35.11,40.34Zm10.14,2.32a21,21,0,0,0,4,1.38,11.64,11.64,0,0,0,5.92-.2c-1.56-1.67-2.18-3.05-5-3.9-2.09-.62-3.55-.36-6.11,1.89C43.29,42.46,44.83,42.52,45.25,42.66Z"/>
  </g>
  <path class="skinOverlapLine" d="M5.07,166.86a12.15,12.15,0,0,0,4.71-1.24"/>
  <g class="skinEdgeLine">
    <path d="M3.54,155.82a3.89,3.89,0,0,0-.2,2.72"/>
    <path d="M4.35,163.05A3.86,3.86,0,0,0,4.87,166"/>
  </g>
  <path class="lipFemaleBrown__noStroke" d="M31.07,62.85c-1.78.46-3.33,4.1,1.77,5.56,5.74,1.64,6.58-2.61,8.33-3.82C33.19,61.4,34,63.49,31.07,62.85Z"/>
  <path class="lipFemaleBrown" d="M30.05,58.68c4.29,2,5.09.74,6.89,2.13,2.13,1.65,4,3.54,6.71,4.14a8.68,8.68,0,0,1-4.1-1l-8.48-1.09C29.28,62.28,27.94,57.72,30.05,58.68Z"/>
  <path class="teeth" d="M31.07,62.85a2.85,2.85,0,0,1,.28-1.8c2.55.89,4.2.13,5.65,1.14a14.67,14.67,0,0,0,2.55,1.75C35.16,64.63,32.05,64.51,31.07,62.85Z"/>
  <g class="lipEdgeLine">
    <path d="M29.68,64.09c-1.87,3.65,5.23,6,8.36,3.61"/>
    <path d="M31.35,61.05A3,3,0,0,1,29.79,60"/>
  </g>
  <g class="cheekLine">
    <path d="M30.55,55.48a3.58,3.58,0,0,0-1.34,1.75"/>
    <path d="M41.14,53.75c1.17,1.13.57,3.37,2,5.68,2,3.12,1.32,4.42,1.76,6.12"/>
  </g>
  <g class="noseLine">
    <path d="M34.28,55.77c2.62-1.18,2.44,1,4.76,1.49,2.49.47,3-2.34,2.1-3.51"/>
    <path d="M36.14,43c-3.37,7.23-8,8.94-5.59,12.48,1.07,1.58,4,1.59,6.37,1.35"/>
  </g>
  <g class="eyeFoldLine">
    <path d="M30.4,41.73a4.08,4.08,0,0,0,3.68,1.12"/>
    <path d="M44.83,45A7.08,7.08,0,0,0,52,46.39"/>
  </g>
  <path class="eyeCornerLine" d="M57.34,45a4,4,0,0,1-2.19-1.11"/>
  <g class="eyeCreaseLine">
    <path d="M36.83,36.56a3.55,3.55,0,0,0-5-1.51"/>
    <path d="M55,41.22c-2.36-3-5.72-5-9.42-2.52"/>
  </g>
  <g class="eyebrowBlack">
    <path d="M58.9,39.7C55,33.08,48.08,32.86,45,31.25c-.78-.41-.81,2.34,1.58,2.77C51.66,34.93,54.13,35.08,58.9,39.7Z"/>
    <path d="M34.07,31.1c2.06.63,4.14-1.72,2.5-1.69a31.61,31.61,0,0,1-3.21-.2,9.7,9.7,0,0,0-.87,1.48C33,30.8,33.52,30.93,34.07,31.1Z"/>
  </g>
  <path class="hairBlack" d="M61.81,36.57c2.33,6-2.23,22-5.49,28.41-1.66,3.27,2.32,4.49,4.54,1.94C56.6,80.09,51.31,83.7,48.57,87.13c-3.55,4.46,2.61,9,16.46,1.92-3.68,7.28,10,5.31,19.27-1.74-3.73,7.06,10.33-.2,14.34-4.22,14.58-14.6,8.46-27.48,9-41.2.68-16.46-4.94-18.1-10.26-26.49C91.43,6,76.06-1.11,67,3.67,61.25-2.61,47.91.39,40.28,7.58c-3,2.78-12.84,12.73-6.39,20.91a9.59,9.59,0,0,1,1.72-2.22c3.13-1.07,4.79-3.34,6.93-8.52-2,11.11,7.66,16,6.75,9.28,1.12,5.91,11.33,12.46,8.1,5.66A11.73,11.73,0,0,0,61.81,36.57Z"/>
  <g class="hairOverlapLine">
    <path d="M35.61,26.27c-1.58.38-2.26-1.1-.77-2.48"/>
    <path d="M61.81,36.57c7.88,3.7,8.33,0,5.46-1.75"/>
  </g>
</svg>
