<svg viewBox="0 0 128.8 414.56">
  <rect class="noStroke" x="16.11" y="233.29" width="75.46" height="181.02"/>
  <path class="hairBlackDark" d="M79.75,83.68c10.63-30.46-5-16.12-18,4.79C68,91.93,77.41,89,79.75,83.68Z"/>
  <path class="hairBlack" d="M50.14,87.3,81.63,62a44.8,44.8,0,0,1-8,27.53c-4.52,6.83,6.7,2.36,11.06-5.54.91,7.78,15-11.63,4.59-37.8C83.41,31.44,87.6,30.2,84,21.5c-2.14-5.15-7.54-8.3-9.32-10.91C67.81.52,46.68-4.66,32.52,6.65,21.77,2.13,16.2,15.13,10.33,23.55,1.2,36.63,3.7,48.09,2.05,54.05-3.87,75.33,6.59,95,8.18,85.48,16.09,96.11,30.53,98.1,24.9,90.84c13.29,5,18.13,2.27,13.8-.59C47.11,91.92,54.5,91.4,50.14,87.3Z"/>
  <g class="hairOverlapLine">
    <path d="M37.1,41.08c-3.43.42-3.24-1.47-.62-2.69"/>
    <path d="M80.53,34.53c3.28-.55,3.44-1.74,1.13-2.75"/>
  </g>
  <rect class="lizUndershirt" x="40.43" y="104.04" width="41.69" height="99.9"/>
  <path class="lizJeans" d="M16.53,233.29c-2.09-14.7-1.7-27.82,1.68-39,14.17,2,57.81,1.89,71.44.12a182.78,182.78,0,0,1,1,38.89Z"/>
  <g class="lizJacket">
    <path d="M110.72,185.58c-.59-3.52-6.12-10.9-7.74-14.3-1.93-4-1.16-7.05-4.39-11.41.23-3.85-1.39-6.16-1.86-8-1.18-4.74-1.38-9.71-3.39-15.89.5-27.45-2.41-27.9-3.43-32.31-.64-2.79-11.71-7.83-22.07-12.72,16.85,37.67-.37,63.87-2,88.9,1.34,9.26,1.49,23.29,7.73,22.87,8.91-.6,18.93-3.11,18.35-6.11-1.21-6.27-3.49-12.23-3.79-17.49C90.61,185,92.7,188,95.23,194,94.05,189.67,107.58,180.9,110.72,185.58Z"/>
    <path d="M10.56,106.82c.8-8.47,11.86-6.66,25.36-18.07,9.45,24.43,39.93,46,35.21,69.42-.29,7.76-2.53,14.7-3.86,21.6-1.48,7.7-2,20.71-5.41,21.8-7.16,3.05-45.76-4.26-45.47-6.43,1.67-5.66,2.73-13.77,4.66-19.38-6.62-.47-15.93-2.83-16.54-6.67-1.19-7.52-3.84-6.47-1.67-12.28C4.93,136.68,6.56,111.11,10.56,106.82Z"/>
  </g>
  <g class="lizJacketInner">
    <path d="M42.5,176.06c-6.67-1-5.17-19.09,2.07-18.84C51.35,157.45,48.44,177,42.5,176.06Z"/>
    <path d="M95.23,194c3.77,4.21,17.82-1.46,15.49-8.44C107.58,180.9,94.05,189.67,95.23,194Z"/>
  </g>
  <g class="lizJacketLapel">
    <path d="M74.86,107.17a18,18,0,0,1,4.34-1.62C77.75,99.77,75,95.17,71,92.29c-2.68-1.92-4.6-4.72-8.38-5.35,5.81,6.45,15.61,38.41,8.57,59.18l.45,6.43c7.07-15.28,9.91-30.55,8.42-42.3A20.66,20.66,0,0,0,74.86,107.17Z"/>
    <path d="M40,85c-.52-.68-6.4,3.69-10.52,7.54-1.31,1,2.46,11.29,4.55,14.15a45.25,45.25,0,0,1,8.62.07,21.93,21.93,0,0,0-4.87,5.08C49.52,125.32,70,132.3,71.13,158.17,81.29,126.46,34.8,104.6,40,85Z"/>
  </g>
  <g class="clothesDisplayLine">
    <path d="M49.7,204c-2.19,8.09-10.84,12.26-25.36,12.88"/>
    <path d="M75.85,203.67c2,6.49,6.19,10.2,13,11.87"/>
    <path d="M61.5,203.35c1.18,3.54.22,7,.59,8.85,1.28,6.29-.59,9.43-.59,13s-.86,5.33-2.07,8.12"/>
    <path d="M68.68,202.86c1.17,4.52.18,7,.49,9.53.52,4.35-.47,10-.79,12.39-.7,5.39-4,7.23-8.31,7"/>
  </g>
  <g class="clothesOverlapLine">
    <path d="M25.59,109.62c1.53,11.07-.7,27-2.75,36.25-.77,3.43,1.58,5.8-1,7.94a1.66,1.66,0,0,1,.72,2.41c4.37-.09,8.39,1.43,12.5,1.07a13.57,13.57,0,0,1,9.5-.07"/>
    <path d="M21.05,175.76c7.86.46,15.91-.21,21.45.3"/>
    <path d="M86.31,113.72c-.26,4.29,2.34,7.54,1.34,9.74,6.59,9.66,8.85,19.27-.35,28.74,2.58,5.54-.55,5.56-.81,8s.54,4-.44,6.61c-.79,2.11,2.78,9.47,2,12.35"/>
  </g>
  <g class="clothesFoldLine">
    <path d="M10.56,106.82a9.28,9.28,0,0,1,2.92-1.93"/>
    <path d="M15.55,113.7c-.17,7.77,3.11,16.59,5.53,25.83"/>
    <path d="M18.32,116.38c.42,4.4,2.76,9.15,4.57,14"/>
    <path d="M5.53,153.78a8.43,8.43,0,0,0-2.69,3"/>
    <path d="M21.85,153.81C7,151.71-1,168.64,13.74,156.55"/>
    <path d="M8.9,167.6c4.32-6.7,8.92-10,13.67-11.38-4.08,2.57-7.92,7.73-10.13,13.89"/>
    <path d="M35.07,157.29c-2.61,1.11-4.49,3.23-7.86,5"/>
    <path d="M30.24,113c3.64,6.09,9.58,10.19,15.72,14"/>
    <path d="M30.67,120.78c2.12,2.91,7,4.35,11.75,7.43"/>
    <path d="M28.42,140.13A15.56,15.56,0,0,1,24.33,138"/>
    <path d="M34.9,144.11a23,23,0,0,1-11.19-2.52"/>
    <path d="M41,154.47c-3.8-1.92-7.7-2.06-10.28-4.14"/>
    <path d="M23.07,150.84c5.52,2.77,13.59,3.13,10.62,5.38"/>
    <path d="M49.33,179a30.88,30.88,0,0,1-11.92,9.85"/>
    <path d="M56.75,174.17c-2.47,2.93-4,7.17-6.47,11.31"/>
    <path d="M53.9,148.51a23.53,23.53,0,0,1,6,3.78"/>
    <path d="M59.35,146.87c1.42,2.27,5.32,4.71,6.74,6.79"/>
    <path d="M84.57,119.92c.48,1.49.23,3.79-1.81,8"/>
    <path d="M87.65,123.46c-.11,1.13-.81,2.52-2.48,4.32"/>
    <path d="M77.05,148.6a12,12,0,0,1-4.47,1.9"/>
    <path d="M80.94,149.64A42.17,42.17,0,0,1,72.16,154"/>
    <path d="M87.3,152.2a8.66,8.66,0,0,0-2.9,3"/>
    <path d="M86.56,155.16c.15,2-2,3.29-6.83,3.72"/>
    <path d="M84.57,176.5c-3.79-.5-7.48-5.92-11.2-10.93"/>
    <path d="M94.07,151.1a10.64,10.64,0,0,1-4.49,3.55"/>
    <path d="M98.59,159.87a13.74,13.74,0,0,0-9.44,1.94"/>
    <path d="M87.94,159.83a13.79,13.79,0,0,1,6.82-1"/>
    <path d="M102.62,176.67c-.6,3.73-7.43,4-12.35.61"/>
  </g>
  <g class="eye">
    <ellipse class="sclera" cx="66.17" cy="50.44" rx="14.79" ry="14.94"/>
    <g class="irisDarkBrown">
      <ellipse cx="59.12" cy="47.49" rx="2.84" ry="3.33" transform="translate(-0.86 1.09) rotate(-1.05)"/>
      <ellipse cx="77.07" cy="46.41" rx="2.58" ry="3.33" transform="translate(-0.84 1.42) rotate(-1.05)"/>
    </g>
    <g class="pupil">
      <ellipse cx="59.33" cy="47.42" rx="1.1" ry="1.29" transform="translate(-0.86 1.09) rotate(-1.05)"/>
      <ellipse cx="77.25" cy="46.33" rx="1" ry="1.29" transform="translate(-0.83 1.42) rotate(-1.05)"/>
    </g>
  </g>
  <g class="skinIndian">
    <path d="M48.25,170.28c-1.78-.07-5.94,1.17-9.39,2-1.44-4.43-.33-11.43,2.84-14,2,0,4.56-.27,6.21-1.2,2.78-5.33,6.76-4.54,10.15-4.69,8.57-.4,7.76,1.38,11.24,4.86,3.92.94,7.74,1.27,7.34,4.86-.17,1.56-2,2.71-4.83,1.94,2.06.69,1.74,2.64,1.36,3.54-1,2.45-2.43,2-4.68,1.39-.33,1.93-1.46,3.72-3.95,3.17-.6,2.36-5,2.47-7.79,2.07C50.6,173.29,49.67,170.27,48.25,170.28Z"/>
    <path d="M67.2,72.86C64.13,76.18,63,83.72,64.8,90.18c2.54,4.1,4.5,10.34,6.25,17.8-5.43,8.8-9.59,9-18.95,2.67-5.61-6.45-13.07-14.56-13.94-21,1.25-12.45-.69-21.49-4.4-25.12"/>
    <path d="M107.61,192.42A6.85,6.85,0,0,0,111.5,190c.16.74.1,1.45.62,1.84-4.26,5.64,1.93,7.55,2.64,6a15.77,15.77,0,0,1,1.63-3c-.54,3.82,2.56,5.24,4.71,3.87.68.64,3.08.47,3.39-1.23,1.35,1,2.63,0,3.1-1.34.86-2.47,2.31-5.66-1.85-6.23.13-1-.44-4.42-3.7-4.11-2-2.21-2.92-1.88-4.59-3.11-2.53-1.86-3.76-3.09-6-1.94-7-.25-7,2.65-9.92,4.23-4.55,2.43-6.74,10.79-.73,11.62,2.44.47,3.36,1.09,5.22,1.1C108.75,197.68,110,193.65,107.61,192.42Z"/>
    <path d="M33,64.75c-4,4.8-6.45.16-7.52-.62-13.73-10-1.21-25.64,4.55-15.88,2.43,3.77,5.42,3.75,5,0-.83-4.16,1.25-4.75,2.05-7.19,4.77-.84,7.9-2.61,11.68-6.55-3.05,6.64,11.2.1,10.95-9.48,2.28,11.62,11.78,12.25,8,8a20.62,20.62,0,0,0,12.84,1.5c2.56,7.68,0,10.09,1,14.16,2.86,11.9,1.67,20.45-5,28.84-2.07,2.59-2.78,6.28-8.22,7.12-4.91.76-5.5,0-9.32-1.07C45.09,79.86,37,77.18,33,64.75ZM62.36,47.52c-.85-1.38-2.47-2.61-3.88-2.25-1.74.44-4.13,2.37-6.75,3.33,2.23.31,3.52,1.35,5.77,1.3,2.93-.07,3.43-1.31,4.31-1.43C62.25,48.41,62.83,48.27,62.36,47.52Zm10.5-.25c.74,0,1.94,1.34,4.31,1.13a5.1,5.1,0,0,0,2.33-1.1,3.44,3.44,0,0,0-.08-1.82c-1.69-.87-2.26-1.5-3.83-1.43a4.74,4.74,0,0,0-3.07,2.19C71.62,47.51,72.42,47.26,72.86,47.27Z"/>
  </g>
  <g class="skinOverlapLine">
    <path d="M58.71,154c2.88-.07,6.42,2.61,10.59,3.21"/>
    <path d="M67.65,162.93c1.32.33,2.7.68,4.16,1.07"/>
    <path d="M66.2,168.17a15.35,15.35,0,0,0,2.29.76"/>
    <path d="M63.34,171.88c.34.05.74.12,1.2.22"/>
    <path d="M125.74,189.88c.18,3.74-1,5.22-1.25,7.57"/>
    <path d="M122,185.77c1.13,1.43,1.14,4.34.09,8.15-.66,2.38,0,3.76-1,4.76"/>
    <path d="M112,181.42c1.08,1.46,5.12,3.06,5.68,5.13.75,2.75-.42,6.78-1.27,8.26"/>
    <path d="M109.74,186.82c.33.81,1.93.33,1.76,3.13"/>
    <path d="M107.61,192.42c-2.4-1.73-4.88-.64-5.53-3.45"/>
  </g>
  <g class="skinFoldLine">
    <path d="M100,191.89c.91-.87,2.35-1.06,4.1-.83"/>
    <path d="M106.1,186.28a4.94,4.94,0,0,0,4.61,1.29"/>
    <path d="M28.63,52.28c-2.48-10.42-13,1.34-3.38,9.21"/>
    <path d="M29,55.35c-1.39,1.81,2.94,4.26.91,5.39-.87.48-.83-1.18-3.09-2-3.67-1.35-1.94-7.87.27-5.62"/>
  </g>
  <path class="skinEdgeLine" d="M65.68,158.82c.84,3.81-1.19,4.29-1.15,6.78,0,2-1.92,2.07-2,4.13-.06,1.34-1,1.57-.93,1.84"/>
  <path class="lipFemaleBrown__noStroke" d="M73.64,70.18c-.55.92-.57,4.18-5.49,4.57-5.18.41-5-2.25-6.76-3.42C65.52,69.74,70.51,68,73.64,70.18Z"/>
  <path class="lipFemaleBrown" d="M74.69,70.7c-2.42-1.4-.24-4.81-2.29-4.06-3.89,1.42-4.57-1.23-6.84,1.45-1.18,1.39-2.58,2.21-5.2,3.43a7.87,7.87,0,0,0,2-.5c4.28-2.08,8.62-2.83,10.45-1.29C73.4,70,73.85,70.41,74.69,70.7Z"/>
  <path class="teeth" d="M72.83,69.73a4.19,4.19,0,0,1-1.44-1.43c-2,.31-4.16-.13-4.72.21-.87.54-2.82,1.8-4.29,2.51,3.61-1.47,4.6-.48,6.71-.6C70.71,70.33,71,69.4,72.83,69.73Z"/>
  <g class="lipEdgeLine">
    <path d="M72.92,72.47c-1.62,2-6.46,3.74-9.63,1"/>
    <path d="M71.39,68.3a2.62,2.62,0,0,0,1.13-.56"/>
  </g>
  <g class="cheekLine">
    <path d="M74.93,62.1c.73.59.92,2.15,1,3"/>
    <path d="M63.61,58.43c-1.63,1.3-1.7,3.86-3.52,6-2.37,2.81-1.84,4.15-2.1,5.17"/>
  </g>
  <g class="noseLine">
    <path d="M70.39,49.15c2.43,7.29,7.47,12.83,2.94,14.41-3.09,1.08-3.74-1.42-6.51-.72-5,1.25-3.89-3.71-3.21-4.41"/>
  </g>
  <g class="eyeFoldLine">
    <path d="M79.88,49c-1.12,1.68-3.88,2.53-5.59,1.19"/>
    <path d="M61.13,51.05c-1.73,1.61-4.38,1.72-7.72.58"/>
  </g>
  <g class="eyeCornerLine">
    <path d="M49.36,49.31a7,7,0,0,0,2.37-.71"/>
    <path d="M79.42,45.48a3.47,3.47,0,0,0,1,.39"/>
  </g>
  <g class="eyeCreaseLine">
    <path d="M72.65,43.73c2.14-2.42,4.61-1.74,6.8-.2"/>
    <path d="M51.45,46c3.84-2.19,7.36-4.48,10.9-1.08"/>
  </g>
  <g class="eyebrowBlack">
    <path d="M81.65,39.6c-3.55-2.53-6.15-2-8.85-2.6-1.59-.36,0,2.35,2.12,2.15a12.49,12.49,0,0,1,6.77,1C81.68,39.94,81.67,39.77,81.65,39.6Z"/>
    <path d="M48.4,43.88C53,37.74,59.92,38.3,63.15,37.05c.82-.32.54,2.42-1.88,2.58C56.13,40,53.65,39.83,48.4,43.88Z"/>
  </g>
</svg>
