<svg viewBox="0 0 714.29 2725.76">
  <path class="lizJeans" d="M507.17,1285.79c26.51,58.13,32.85,165.12,5.4,234.09-5.29,13.29,9.85,29.56-12,35.87-11.48,138.18-23.06,269.74-48.4,387-4.16,19.26,11.66,25.13-3.41,37.76-11,26.29,13,38.5-4.3,49.87,45.56,143.55-8.81,282.18-13.34,391-7.47,33.43-188.27,25.72-221.1,3-9.26-26.57,2.69-55.82,1.27-70.91C208,2275.27,195.27,2171.7,192.87,2079c-12.49-14,9.6-19.23-.87-46-15-12.54,5.84-12-2.53-33.37-12.25-31.35,1.16-43-10.83-87.26-29.34-108.19-38.44-288.69-43.7-441.6-1-29.06-18.54-115-5.14-180Z"/>
  <path class="soleLightTanDark" d="M327.4,2706.65l30.68,4.71v-21.49A310.22,310.22,0,0,1,327.4,2706.65Z"/>
  <g class="soleLightTan">
    <path d="M315.61,2581.77c.63,10.63-99.3,78.44-183.49,82.21-30.39,1.37-66.31-3.19-81.37-15.45-2.52-2.49-4.34-11.84-1.79-16.79Z"/>
    <path d="M436.14,2630.47c.64,12.07-6.81,54.51-9.61,62.23-2.65,7.19-42.8,16.37-68.45,18.66v-21.49c-33.15,20.92-67,34.08-109.75,34.86A163.36,163.36,0,0,1,165,2704.19c-2.58-2.82-4.44-13.44-1.83-19.06Z"/>
  </g>
  <g class="lizShoe">
    <path d="M323.63,2452.28c3.31,58.81.27,88.62-8,129.49-20.45,19.93-62.83,25.06-98.38,41.84-63.92,30.18-140.92,29-168.27,8.13-3.56-52.61,35.94-42.46,57.69-57.86,28-19.84,41.67-27,66.5-54.17,12.25-13.42,33.58-34.33,32.41-73.41C230.45,2421.4,288.24,2416.89,323.63,2452.28Z"/>
    <path d="M422,2479.25c3.39,66.76,22.63,104.83,14.14,151.22-20.93,22.63-65.66,33.32-100.69,55.44-51.94,32.78-148.78,21.11-172.24-.78-.87-40.9,39.64-42,60.53-61.4,27.23-25.34,41-48,60.23-83.95,9.71-18.17,15.56-40.72,19.23-66.18C337.12,2439.68,389.88,2447.13,422,2479.25Z"/>
  </g>
  <g class="lizJeansCuff">
    <path d="M205.56,2446.3c26,0,62.76-5.4,78.25,11a186.3,186.3,0,0,1,20.21-4.08c.08-13-.22-25.46-2.08-37-16.93,11.7-80.64,7.6-94.71-3.88C200.83,2412,199.16,2446,205.56,2446.3Z"/>
    <path d="M303.2,2473.6c26.59,0,67.31-7.27,83.16,11.31,12.23-3.49,23-6.79,35.64-5.66,22.43,1.66,22.66-64.14,9.48-64.15-15.6,25.67-105.67,31.34-128.87,5.84C294.14,2421,294.73,2473.69,303.2,2473.6Z"/>
  </g>
  <path class="lizUndershirt" d="M270,642.84c-66-7.78-114.88,99-159.71,232.61C242.07,787.71,341,704.25,270,642.84Z"/>
  <path class="lizJacketInner" d="M120.1,1296.42c-16.29,4.17-41.52,5.78-42.29-5-4.59-64.23,32.11-145.28,53.52-265.32Z"/>
  <g class="lizJacket">
    <path d="M465.36,562.48c41.64,67.58,101.5,95,91,144.48,5.43,17.4,3,61.22-7.14,91.26C514.64,900.37,517,948.3,488.65,1030.61c2.42,23.78,32.17,41.57,3.17,75.05,6.32,15.52,23.61,24.16,12.69,48.63,9.35,63.54,31.2,102.09,25.94,134.26.69,27.29-397.91,45.36-416.39,9.57-18.34-35.52,17.35-151.79,2.58-202.14-33.94-20.24-16.87-98.23,34.36-89.55l-19.34-31.74C26.37,838.75,368.7,645.78,465.36,562.48Z"/>
    <path d="M165.18,706.28C151,722.78,134,725.61,133.75,747.14c-91.93,80.94-83,184.33-2.09,227.55C122.23,918.11,135.32,816.29,165.18,706.28Z"/>
  </g>
  <g class="lizJacketLapel">
    <path d="M452.37,549.07c-104.26,59.43-346.56,273.23-319,315.17,47.69-80,130.43-109.09,218.48-165.15,1.47-4-8.47-22.13-14.21-30.51,27.37-.45,50.41,2.54,56.13,0,26.5-20.64,67.16-53.39,89.59-82.55C487.09,583.21,456.09,546.21,452.37,549.07Z"/>
    <path d="M196.93,656.39c0,2.61,4.74,4.09,8.94,7.11-7.46,3.78-19.59,8.81-24.21,13-44.86,63.55-66.41,138.17-52.22,229.36,3.88-140.51,90-247.73,174.46-336.67l7.57-14.78C266.66,585.15,227.57,618.75,196.93,656.39Z"/>
  </g>
  <g class="clothesDisplayLine">
    <path d="M137.62,1310.39c-2.43,165.21,35,180.28,46.94,218.06"/>
    <path d="M201.76,1343c28.18,41.3,79.81,57.21,135.08,53.45"/>
    <path d="M158.51,1310.39c-1.95,60.51-1.63,117.57,19.92,157.44,9.58,17.71,11.67,30.17-4,38.46"/>
    <path d="M397.41,2433.43c5.49,4.49,8.11,42.65,3.51,47.57"/>
    <path d="M415.46,2427.5c5.79,5.76,8.71,46.25,3.45,51.57"/>
  </g>
  <g class="clothesOverlapLine">
    <path d="M151,1006.43c17.8-1.94,26.13,3.07,44.62,3.19,21.85-9.49,43-7.08,63.74,4.09,28.48-11.83,26.54-1,40,.82,10.95-4.81,19.88-4.41,27,.81,7.53,4,4-8.43,13.89-4.9,9.8-40-1.38-75.39,13.89-74.36,5.72-33.5-1.32-75.81,17.16-97.23-.83-15.6,2.11-31.39,9-47.39-6.76-18.18,1.63-44.12,14.7-67"/>
    <path d="M488.65,1030.61c-19.11,46-28.91,94.22-45.25,106.48-33.44,22-113.5,13.78-184.11,5.21-68-8.26-131.24-19.52-142.65-46.32"/>
    <path d="M283.81,2457.26c5.54,14,8.53,43.09,6.26,69.33"/>
    <path d="M386.36,2484.91c9.45,13.13,8.28,49.88,4.78,81.38"/>
    <path d="M184.56,1528.45c4.24,171.34,43.25,348.43,78.4,496.22,4.62,11.38-13.18,21,6,31.54-1.41,6.7-11.38,13.84,2,24-.93,84.16,16.79,235.5,31.7,340.69"/>
  </g>
  <g class="clothesFoldLine">
    <path d="M371.54,720.44c-28.26,10.26-57.4,38.49-81.71,52.67"/>
    <path d="M356.69,758.26c-24.31,23.63-65.37,31.84-84.42,51.32"/>
    <path d="M405.31,700.18c36.47-23,78.37-28.83,77.66-17.59-.41,6.55-47.27,10.16-88,41.87"/>
    <path d="M420.84,769.06a108.66,108.66,0,0,0-40.55,22.4"/>
    <path d="M503.51,800.8c-27,25.78-92.12,17.56-132.21,38.05"/>
    <path d="M397.21,847.4c31.53.38,27.37,11.72-18.24,35.79"/>
    <path d="M473.12,909.53c-36.24,16.18-86,14.86-119,26.55"/>
    <path d="M340.25,1010.44c24.54,19.3,59.88,64.39,30.62,69.27"/>
    <path d="M338.4,1091.87c-33.12-56.72-7.26-106.17,5-42.75"/>
    <path d="M274.27,1031.15c2.09,12.06,12.2-8,25.12-16.62"/>
    <path d="M259.36,1013.71c-35.29,10.88-61.48,71.2-45.14,14.63"/>
    <path d="M163,925.63c-11.86-2.25-25.37-6.44-34-11.22"/>
    <path d="M174.83,950.47c-17.74-3-36.87-9.63-45.93-8.46"/>
    <path d="M294.88,957a174.66,174.66,0,0,0,49.95,15.69"/>
    <path d="M270.63,954.61c20.27,19.61,44.51,34.53,71.64,46"/>
    <path d="M504.51,1154.29c-7.1,18.45-33.46,34.5-58.89,55.19"/>
    <path d="M449.76,1176.37c-27.41,24.24-57.54,37.4-91.07,36.66"/>
    <path d="M491.82,1105.66c-6,3.88-11.11,12.32-8.35,28.13"/>
    <path d="M168.92,1182.28c24,39.12,58.14,65.54,105.26,75.7"/>
    <path d="M448.81,1980.5c-16.4,7.52-37.36,13.1-65.47,15.67"/>
    <path d="M192,2032.91c9.05,3.75,36.43,4.13,51.58,3.36"/>
    <path d="M192.87,2079c8.57,6.28,32.09,9.36,52.52,9.36"/>
    <path d="M268.91,2056.21c13.88,5.12,45.12,7.44,68.64,4.74"/>
    <path d="M270.91,2080.25c10.91,6.63,46.2,9.23,75.5,7.3"/>
    <path d="M272.77,2044c17.28,7,41.78,7.58,69.4,5.4"/>
    <path d="M277,2069.82c24.68,7.32,68.63,7.32,107.19.77"/>
    <path d="M201.82,2022a196.62,196.62,0,0,0,40.49,1.93"/>
    <path d="M206.06,2070.59c12.61,5,30.34,5.91,49.36,5.78"/>
    <path d="M500.62,1555.75c-20,5.86-46.05,8.36-74.78,9.37"/>
    <path d="M493.71,1546.22c-30.15,6.32-58.94,9.21-86,7.71"/>
    <path d="M200.28,1526.17c46.27-26.22,92.15-28.53,129.55-46.27"/>
    <path d="M216.47,1538.13a581.92,581.92,0,0,0,97.94-4.25"/>
    <path d="M185.52,1555.75c-3.5-10.58-14.16-15.31-22.26-25.34"/>
    <path d="M380.64,2296.18c-13.89,49.37-28.08,97.9-57.46,105.14"/>
    <path d="M273.2,2374.89c-6.32,14.94-50.56,27-57.46,7.47"/>
    <path d="M433.14,1970.55c-20.89,6.81-46.65,12.15-66.08,12.64"/>
  </g>
  <g class="eye">
    <path class="sclera" d="M206.19,283.21c237.67,48,251.61-21.12,13.94-69.07C202.06,225.06,194.92,265,206.19,283.21Z"/>
    <g class="irisDarkBrown">
      <ellipse cx="306.45" cy="270.36" rx="21.6" ry="14.57" transform="translate(-38.97 488.75) rotate(-73.72)"/>
      <ellipse cx="213.53" cy="248.07" rx="21.6" ry="11.48" transform="translate(-84.44 383.52) rotate(-73.72)"/>
    </g>
    <g class="pupil">
      <ellipse cx="302.25" cy="269.14" rx="8.4" ry="5.67" transform="translate(-40.81 483.84) rotate(-73.72)"/>
      <ellipse cx="209.3" cy="246.83" rx="8.4" ry="4.47" transform="translate(-86.3 378.56) rotate(-73.72)"/>
    </g>
  </g>
  <g class="skinIndian">
    <path d="M450.82,551.34C391.89,588.9,347.22,621.73,291.58,670c-57.28,28.18-73.15,32.72-72.46-1.11,23.62-34.19,27.78-45.2,60.42-76.59,12.16-38.77,7.83-92.9-54.68-115.34C383.6,452,511.51,449.84,450.82,551.34Z"/>
    <path d="M64.59,950.14c-11.15,0-14.69,4.36-25.73,1.59C15,954.25,34.66,989.3,64.59,986.5,84.89,973,81.86,961.09,64.59,950.14Z"/>
    <path d="M151,1006.43c-6.26-29.12-31.74-37.85-43.47-55.65-21.36-32.38-24.81-16.56-37.9-36.52-12.4-9.64-24.46,18.26-5,35.88C80.31,968,70,992.13,41,978.69c-16.54-7.92-27.73-13.41-34.36,1.14-5.6,12.3.37,18.81,10,24.66-2.5,95.58,65.9,127.48,100,91.49C96.34,1070.7,107.35,1003.2,151,1006.43Z"/>
    <path d="M34.13,1005.61c39.27,1.84,33.15,33,5.52,32.21C19.94,1037.24,1,1036.74,1,1020.64,1,999.78,16.49,1004.78,34.13,1005.61Z"/>
    <path d="M62.84,1075.74c11.92-7.63,6.2-29.09-23.37-27-15.08,1.07-33.63-1.86-31,18.17.8,14,10.6,17.46,23.85,16.93-15.5,10-.24,33.87,24.09,22.85C77.86,1099.31,77,1082.77,62.84,1075.74Z"/>
    <path d="M227.34,262.46c2.43-.19,6.65,1.48,5.55-3.77-3.42-24.12-20.65-31.54-30.41-15.75-1.38-4.38-.39-10.26,3.3-14.81,5.06-6.23-7.53-15.68,13.6-42.61-8.48-260,500.92,17.89,243.08,254.19C404,513,362.31,514.28,296.64,516.61c-42.53,1.52-69.36,1.07-95.29-8.86-38-14.53-19.14-38.4-31.46-78.29-19.46-63,1.88-124.54,26.45-151.12,5.44-5.88-9.81-13.17,4.79-25.29C204,259.71,215.25,263.38,227.34,262.46Zm65.78,15c6.63,2.09,12.68,6.53,25.86,9,12.93,2.39,27.62,3,38.42-1.29-10.09-10.84-14.16-19.79-32.68-25.31-13.58-4.05-23.08-2.32-39.67,12.28C280.39,276.23,290.39,276.64,293.12,277.5Z"/>
  </g>
  <path class="skinOverlapLine" d="M32.31,1083.85c12.28-.54,21.24-3.9,30.53-8.11"/>
  <g class="skinEdgeLine">
    <path d="M22.33,1012.17c-2.26,3.89-3.3,13.75-1.3,17.64"/>
    <path d="M27.6,1059.12c-1.3,4.93-.26,15.57,3.37,18.94"/>
  </g>
  <path class="lipFemaleBrown__noStroke" d="M201.11,408.58c-11.61,3-21.67,26.65,11.48,36.1,37.26,10.62,42.71-16.93,54.08-24.78C214.84,399.15,220.36,412.76,201.11,408.58Z"/>
  <path class="lipFemaleBrown" d="M194.48,381.53c27.84,12.71,33,4.81,44.7,13.83,13.81,10.67,25.88,23,43.56,26.85-5.24,1.18-20.11-2.78-26.58-6.53l-55.05-7.1C189.44,404.89,180.76,375.27,194.48,381.53Z"/>
  <path class="teeth" d="M201.11,408.58c-.53-2-.31-9.79,1.8-11.65,16.53,5.76,27.27.83,36.65,7.37,6.24,4.35,7.47,6.74,16.6,11.38C227.66,420.17,207.48,419.34,201.11,408.58Z"/>
  <g class="lipEdgeLine">
    <path d="M192,416.65c-12.11,23.66,34,38.89,54.32,23.46"/>
    <path d="M202.91,396.93c-4.18-1.38-8.61-4.16-10.15-6.9"/>
  </g>
  <g class="cheekLine">
    <path d="M197.69,360.75a23.09,23.09,0,0,0-8.7,11.37"/>
    <path d="M266.44,349.51c7.62,7.32,3.69,21.89,13.28,36.88,12.94,20.23,8.54,28.72,11.42,39.71"/>
  </g>
  <g class="noseLine">
    <path d="M221.93,362.65c17-7.69,15.85,6.77,30.88,9.63,16.17,3.07,19.28-15.16,13.63-22.77"/>
    <path d="M234,279.75c-21.87,46.93-51.81,58-36.3,81,6.94,10.28,25.75,10.32,41.34,8.75"/>
  </g>
  <g class="eyeFoldLine">
    <path d="M196.71,271.47c4.56,4.47,13.77,9.75,23.92,7.28"/>
    <path d="M290.39,292.54c11.71,8.79,23.77,15.94,46.75,9.22"/>
  </g>
  <path class="eyeCornerLine" d="M371.65,292.37c-6.62-.73-10.54-4.19-14.25-7.2"/>
  <g class="eyeCreaseLine">
    <path d="M238.45,237.92c-7.9-14.46-22.23-15.58-32.67-9.79"/>
    <path d="M356.55,268.2c-15.33-19.58-37.12-32.55-61.15-16.41"/>
  </g>
  <g class="eyebrowBlack">
    <path d="M381.76,258.28c-25.4-43-70.26-44.39-90.15-54.84-5.07-2.66-5.27,15.23,10.24,18C334.76,227.35,350.82,228.33,381.76,258.28Z"/>
    <path d="M220.56,202.47c13.35,4.08,26.85-11.16,16.23-10.95-7,.14-13.75-.81-20.87-1.33a66.62,66.62,0,0,0-5.63,9.61C213.6,200.5,217,201.39,220.56,202.47Z"/>
  </g>
  <path class="hairBlack" d="M406.76,243.25c15.09,38.75-2.49,152.82-23.6,194.37-10.79,21.25,4.59,25.65,19,9-27.67,85.52-63.52,106.41-81.28,128.72-23.06,29,16.91,58.07,106.81,12.44-23.85,47.25,65.11,34.48,125.11-11.33-24.22,45.87,67.08-1.26,93.13-27.35,94.61-94.79,60.69-184,64.34-273.06,4.38-106.82-39-119.49-73.57-174C598,41.05,506.92-6.88,448,24.17,410.8-16.66,330.72,0,281.19,46.68c-19.17,18.08-99.28,81-61.81,138.84,2.73-5.5,7.79-11,11.19-14.4,20.27-7,31.06-21.71,45-55.34-13.26,72.16,55.05,104.64,43.81,60.25,11.91,37,73.54,80.94,52.59,36.77C386.71,226.84,391.26,236.22,406.76,243.25Z"/>
  <g class="hairOverlapLine">
    <path d="M230.57,171.12c-10.3,2.49-14.7-7.17-5-16.1"/>
    <path d="M406.76,243.25c51.13,24,44.06,5.09,33-8.95"/>
  </g>
</svg>
