<svg viewBox="0 0 146.03 311.88">
  <g class="lizJeans">
    <path d="M55.15,182.13c18.41-1.52,58.5,4.66,63.79,11.85,6.49,8.79,2.55,42.57-1.89,70.73a44.16,44.16,0,0,1-21,1.51C89.93,233.37,76.56,205.18,55.15,182.13Z"/>
    <path d="M2.57,185.91c40.13-4.6,91.94-.4,102.25,8.44,10.06,8.63-1.76,42.51-8.39,75.53-6.36,2.47-13.19,1.94-19.85-1.27a29.64,29.64,0,0,1,1.12-11.49c2.28-8.14-2.15-15.91.62-36.29C14.78,241.13-7.51,221.46,2.57,185.91Z"/>
  </g>
  <g class="lizJeansCuff">
    <path d="M117.36,262.76c1.42.67.76,7.18-1.37,7.67-6.31,2.66-12.37,3.38-18.06,1.05-1.07-.7-1.2-4-.44-6.68C106.24,265.33,113.18,264.78,117.36,262.76Z"/>
    <path d="M96.89,267.82c-2.89,2.3-17.91,1.81-20.43-1-1.15.5-1.27,8.4.49,9.13,5.47,3.63,11.75,2.25,18.3-.87C96.83,275.48,98.08,268,96.89,267.82Z"/>
  </g>
  <path class="soleLightTanDark" d="M84.18,306.72V310l7.11-.59A29.48,29.48,0,0,1,84.18,306.72Z"/>
  <g class="soleLightTan">
    <path d="M99,291.3c-.1,1.64,15.29,13.16,28.26,13.74,4.68.21,10.21-.49,12.53-2.38a2.9,2.9,0,0,0,.28-2.59Z"/>
    <path d="M74.77,299.11a43.61,43.61,0,0,0,1.48,9c.41,1.11,4,1.6,7.93,1.95v-3.31c3.76,2.38,15,5,20.6,4.91,4.8-.05,9.17-.8,12.83-2.86a3.6,3.6,0,0,0,.28-2.94Z"/>
  </g>
  <g class="lizShoe">
    <path d="M103.94,272.12a19.39,19.39,0,0,0-6-.64c-.27,9.14-6.09,17.94,1.11,19.82,3.15,3.07,9.67,4.94,15.15,7.52,9.85,4.65,21.71,4.47,25.92,1.25.55-8.1-5.54-6.54-8.89-8.91a51.81,51.81,0,0,1-10.24-8.8c-1.89-2.07-5.17-5.91-5-11.93C113,270.48,105.8,270.12,103.94,272.12Z"/>
    <path d="M82.44,276.84A14.63,14.63,0,0,0,77,276c-1,10.33-4.6,14.8-2.18,23.14,4.09,3.9,10,5.2,15.5,7.46,9.11,3.72,24.28,2.38,27.62-.74.13-6.3-5.45-6.29-9.32-8.84-4.79-3.14-8-5.85-11-11.39-1.5-2.79-1.78-6.58-2.34-10.5C91.15,275.1,84.88,274,82.44,276.84Z"/>
  </g>
  <path class="lizShirt" d="M64.18,93.32c5.16,5.74,8,9.41,5.57,21.69,5.86,11.36,17.44,21.68-3.44,34.31-4.7,7.34,3.21,9.29-2.41,16.75,1.63,4.26,2.95,9.4-1.26,14.46a11.73,11.73,0,0,1,5.16,4.82q-5.47-.49-10.44-.79c-15.57-.2-21.93,4.71-33,5-9,.24-17-4.32-23.07-1,.58-3.3-2.2-5.28.23-6.74-.56-1.8-.15-4.16.69-6.77-1.68-2.87,1.38-3.44,2.41-10.56-3.33-4.93,1-1.72,2-12.5-2.64-2.53,1.38-3.1.92-8.15-2.93-2.74.6-3.45,1.26-9.3C11.14,113.24,18,96.1,32,83.8Z"/>
  <path class="lizShirtCollar" d="M48.77,98.74a14.14,14.14,0,0,1,6.45-4.92c2.57,1.11,4.93,7.16,5.32,13.1.87-3.34,1.17-9.91,2.21-9.69,1,.55,1.66,3.18,2.43,5.72,1.11-6.07.15-11.73-2.72-14.52-5.49-5.34-19-9.87-24.75-10.37-2.91-.24-4.38,4.07-7.63,6.47,1.06,2.4,4.28,4.56,6.35,6.59C41.19,92.34,46.15,93.91,48.77,98.74Z"/>
  <g class="clothesDisplayLine">
    <path d="M79.47,268.29c-.75.49-.9,7.26-.19,7.77"/>
    <path d="M77.58,267.61c-.6.46-.9,7.42,0,8.33"/>
    <path d="M105.43,265c-.6.81-.63,5.46,0,6.28"/>
    <path d="M102.27,265c-.64,1-.71,6.26-.15,6.79"/>
  </g>
  <g class="clothesOverlapLine">
    <path d="M103.94,272.12c-.93,2.33-1.11,7.57-.58,11.85"/>
    <path d="M82.44,276.84c-1.46,2-1.28,7.69-.74,12.54"/>
    <path d="M60.54,106.92c3.76,13.64,24.38,25.61-.23,46.08-2.2,6.15,0,5.52-2.06,13-1.59,5.82,5,7.18-3.1,18.26"/>
    <path d="M48.77,98.74a17.72,17.72,0,0,1,2.2,8"/>
    <path d="M33.54,90.21a26.53,26.53,0,0,0,2.89.91"/>
    <path d="M29.36,180.72c-3.76-.71-10,1.42-9-.71,3.3-7.06,30.52,9.65,42.3.52"/>
    <path d="M78.32,220.83a36.56,36.56,0,0,1,5.28-12.58"/>
  </g>
  <g class="clothesFoldLine">
    <path d="M25.18,101.09c10.48-6.63,16.87-.89,20.78.89"/>
    <path d="M30.92,93c4.44.35,11.54,2.77,6.22,4"/>
    <path d="M48.45,102.57c-1.48-4.14-4.86-6.39-6-3.73"/>
    <path d="M40.16,101.15c-9.71-2.19-19.72,6.16-9.48,2.9"/>
    <path d="M45.84,111.87c-3.91-.42-9.05-1.66-13.68-1.31"/>
    <path d="M25.41,112.28c3.19,1.06,8.47.48,13.86.89"/>
    <path d="M26.72,121.34c-2.61-.12-7.11.26-7,.47"/>
    <path d="M26.78,131.52a18.73,18.73,0,0,1-10.48,5.69"/>
    <path d="M31.28,130a37.07,37.07,0,0,1-7.35,8"/>
    <path d="M7.45,143.81c4.52,3.52,9.08,3.94,10.29,6.05.53.92-.5,2.8-6.06,1.2"/>
    <path d="M16.18,145.32c2.35,1,5.5,3.67,9.06,5"/>
    <path d="M6.53,152c2.45,1.6,6.37,2.43,10.54,3.13"/>
    <path d="M9,163.55c4.15,2.13,8.85,2.22,13.86,1.13"/>
    <path d="M4.58,164.46c5.56,3.83,13.49,5.07,13.67,8.09.12,2.11-9.18,2-13.32.42"/>
    <path d="M2.17,175c1.81,1.38,7.37,1.76,11.52,1.32"/>
    <path d="M1.48,181.79A7.63,7.63,0,0,1,5.4,181"/>
    <path d="M44.12,144a39.59,39.59,0,0,1-9.83,2.66"/>
    <path d="M47.85,143.54A12.75,12.75,0,0,1,40,148"/>
    <path d="M65.26,109.5a9.13,9.13,0,0,1,3.14,1.69"/>
    <path d="M60.11,113.82c-2.06,0-6.55,0-6.4-.11"/>
    <path d="M57.2,112.47a16.94,16.94,0,0,0-3.75-.72"/>
    <path d="M64.37,122.2a23.64,23.64,0,0,1-3.8.28"/>
    <path d="M65,124.06c-1.11.11-2.09.25-3.08.25"/>
    <path d="M70.83,123.69c-.84,0-1.59.1-2.2.19"/>
    <path d="M74.85,135.18a24.64,24.64,0,0,1-3.16.62"/>
    <path d="M56.73,154c-.14-.08-7-.57-6.91-.49"/>
    <path d="M57.54,155.37c-.18,0-7.28,0-7.19.06"/>
    <path d="M64.88,155.46a6.56,6.56,0,0,1-1.57,5"/>
    <path d="M63.92,166.05a3.33,3.33,0,0,0-1.29,3"/>
    <path d="M87.63,251.13c-2.51,4.76-5.06,9.42-8.89,11.14"/>
    <path d="M15.37,188.6a23.27,23.27,0,0,0-7.88,3.92"/>
    <path d="M20.58,189.4a58,58,0,0,0-9.44,10.42"/>
    <path d="M23.93,189.56A119.56,119.56,0,0,0,9.26,208.91"/>
    <path d="M28.21,189.26a95.73,95.73,0,0,0-9.3,12.53"/>
    <path d="M31.55,188.71c-4.82,6.21-9.85,13-12.55,19.17"/>
    <path d="M32.67,192.15c-3.18,3.18-9.55,18.35-9.55,21.63"/>
    <path d="M39,186.92c-1.66,3.31-3.87,6.86-4.64,9.72"/>
    <path d="M41.44,186.32a46.1,46.1,0,0,0-5.77,16.31"/>
    <path d="M77.05,209.94a20.84,20.84,0,0,0,2,8"/>
    <path d="M83,199.64a55.22,55.22,0,0,0-3.47,14"/>
    <path d="M83.7,203a30.63,30.63,0,0,0-2.22,8.91"/>
    <path d="M82,215.74a16.9,16.9,0,0,1,6.56-4.59"/>
    <path d="M83.7,211.43a41.87,41.87,0,0,1,11.61-9.08"/>
    <path d="M85.29,207.31a49.91,49.91,0,0,1,7-5.89"/>
  </g>
  <path class="clothesEdgeLine" d="M62.75,97.23a14.1,14.1,0,0,0,.55-5.85"/>
  <g class="food">
    <path class="cartonDarker" d="M106.68,158.07l-15.5.9-14.51,8.34c12.84.57,24.9.63,32.27-2.48Z"/>
    <g class="chopstick">
      <polygon points="89.24 113.24 91.6 182.14 92.36 182.1 90.32 113.2 89.24 113.24"/>
      <polygon points="83.24 113.03 90.87 181.54 91.63 181.44 84.32 112.9 83.24 113.03"/>
    </g>
    <polygon class="cartonDark" points="94.28 158.52 78.24 159.36 75.51 162.88 76.67 167.31 99.33 166.12 98.6 161.69 94.28 158.52"/>
    <g class="cartonMedium">
      <polygon points="108.5 157.22 101.76 158.07 99.79 161.66 99.33 166.12 108.94 164.84 109.55 160.25 108.5 157.22"/>
      <polygon points="82.05 191.62 76.67 167.31 99.33 166.12 99.43 190.65 82.05 191.62"/>
    </g>
    <g class="cartonLight">
      <polygon points="99.43 190.65 99.33 166.12 108.94 164.84 106.98 188.53 99.43 190.65"/>
      <polygon points="108.94 164.84 102.36 171.53 106.98 188.53 108.94 164.84"/>
      <polygon points="99.33 166.12 105.76 170.92 99.43 190.65 99.33 166.12"/>
    </g>
    <g class="printLight">
      <polygon points="85.83 184.17 94.03 183.73 94.37 186.79 86.17 187.22 85.83 184.17"/>
      <polygon points="86.49 178 91.98 177.7 92.32 180.75 86.84 181.05 86.49 178"/>
      <polygon points="87.16 171.83 89.93 171.67 90.27 174.72 87.5 174.88 87.16 171.83"/>
    </g>
    <g class="printDark">
      <polygon points="83.92 187.34 96.64 186.67 96.89 188.92 84.17 189.58 83.92 187.34"/>
      <polygon points="85.89 181.1 93.27 180.7 94.98 183.68 84.88 184.22 85.89 181.1"/>
      <polygon points="86.55 174.93 91.22 174.67 92.93 177.65 85.54 178.05 86.55 174.93"/>
      <polygon points="87.22 168.76 89.17 168.65 90.88 171.62 86.21 171.88 87.22 168.76"/>
    </g>
  </g>
  <g class="hairBlackDark">
    <path d="M95.74,81c-5.68,1.55-9.2-.36-6-2a11.32,11.32,0,0,1-6-2.76C95.47,27.64,113.38,36.46,95.74,81Z"/>
    <path d="M26.09,73.08c8.55,3.52,13.16,2.91,9.37.12,3.1.89,9.76,1.52,11.76.06C52.33,32.33,3.54,36.21,26.09,73.08Z"/>
  </g>
  <g class="eye">
    <path class="sclera" d="M90.33,61.2C54,52.45,56.57,41.9,92.88,50.65,94.69,53.35,93.09,59.39,90.33,61.2Z"/>
    <g class="irisDarkBrown">
      <ellipse cx="75.69" cy="51.81" rx="3.33" ry="2.28" transform="translate(15.17 120.74) rotate(-83.11)"/>
      <ellipse cx="91.71" cy="54.72" rx="3.33" ry="1.85" transform="translate(26.38 139.21) rotate(-83.11)"/>
    </g>
    <g class="pupil">
      <ellipse cx="76.2" cy="51.88" rx="1.29" ry="0.89" transform="translate(15.56 121.3) rotate(-83.11)"/>
      <ellipse cx="92.27" cy="54.79" rx="1.29" ry="0.72" transform="translate(26.81 139.82) rotate(-83.11)"/>
    </g>
  </g>
  <g class="skinIndian">
    <path d="M77.6,171.51l-.93-4.2-1.16-4.43,2.73-3.52,8.51-.45c-1.13-.79-2.26-1.63-3.38-2.48-6.54,1.1-12.8,1.13-18.49-1,.59,3.21,2.69,5.73-1,10.59C68.38,168,73.1,169.93,77.6,171.51Z"/>
    <path d="M114.51,137.25c-17.94,5.88-31.23-1.07-43.4-.43-1.17-.63-7-10.42-17.4-23.11-4.47.17-17.45,8.33-18.27,11,9.72,12.73,20.77,27.58,29.28,30.73,15,5.55,34-3.73,51.94-8.51,4.62,3.31,12.75-.69,14.22-6.59a25.49,25.49,0,0,1,4.57-3c3.7-2.06,5.84-4.48,4.32-6.48-1-1.34-4.28.13-6.59,2.11a10.27,10.27,0,0,1-4.11,2.08c.68-3.38,2.9-5.64,2.71-7.92a9.42,9.42,0,0,0,3.73-1.69c4.06,1,6.65-1.44,5.89-3.26,6.09-.13,4.62-5.69,2.72-4.87-1.69.34-2.54.17-3.4.4.76-1.3-.38-3-1.38-2.27s-2.69,1.21-3.43,2.09c-5.94,1.68-7.33,2.46-9.41,6C121.1,124.85,118.27,135.94,114.51,137.25Z"/>
    <path d="M40,57.49c2,11.76-.6,17.75-3.4,21.6,4.21,7.78,16.72,13.18,18.63,14.73s4.44,7.74,5.32,13.1c-.16-3.28.48-5.12.32-7.76.08-4.24,2.1-8,1.6-10.73,1.72-4.53,2.15-6.11,4.61-7"/>
    <path d="M108.72,167.44l.29-3.13c2.71-1.6,4.18-.61,4.93.3,1.75,2.12.9,3.85-1,5.61,2,.31,2.8,3.51.72,5.44,1.9,1.78,1,4.84-1.06,6,1.59.29.82,4-1.31,4.15-3.24,0-5.51-.14-4.25-3.28-1.55-.73-1.11-3.42.38-4.49-2-.43-1.74-4,.1-4.79C105.32,172.09,106.43,168.61,108.72,167.44Z"/>
    <path d="M41.8,59.68c-6.87,1.52-6.26-3.77-8-7.59-23.08-37.74,72.49-46.65,62.5-5.21.07,3.82-.5,4-1.53,5.56-.48.72,1,2.7-1.3,3.18a8.08,8.08,0,0,0,.18-1.2c-1.79-1.62-3.87-1.51-6.63.92-.7.51.1.5.24.63,1.83,1.57,4.78,2.37,6,.23,1.36,1.52-.5,1.64-.19,3.89,1,8.24-4.41,18.39-10.88,24.26-2.87,2.59-3.14,4.94-9.22,5.54-5.57.55-9.07-3.11-12.82-5.8-6.26-4.48-10.58-7.72-13.44-14.81M78.62,53.17c-1.28-2.82-3.06-3.36-4.56-3.51-2.65-.27-3.53.8-6.89,1,1.35,1.1,3.71,3,5.7,3.35,2.64.49,3.53-.24,4.56-.25C77.87,53.76,79,54,78.62,53.17Z"/>
  </g>
  <g class="skinOverlapLine">
    <path d="M48.06,105c3.35,3.85,7.39,8.72,5.65,8.74"/>
    <path d="M26.75,123.88c7.39,1,7.79,3.33,9.55,2"/>
    <path d="M65.38,112.16c1.72,1.13,3.37,1.68,4.37,2.85-.2-1.43-.26-2.89-1.35-3.82.78-1.06.66-2.59-.15-4.48"/>
    <path d="M135.91,117.56c1.9-.47,3.16,0,4.81.18-3.32.94-9.77,3.18-10.25,5.48"/>
    <path d="M126.46,128.75c1-1.71,1.45-3.73,2.86-4.8,1.75-1.33,5.83-2.85,7.65-2.47,3.17.64,3.43-.8,4.43.73"/>
    <path d="M124.59,126.77a27,27,0,0,0,1.91-3.2"/>
    <path d="M120.21,145.72c4-2.3,7.93-7,8.86-10.64"/>
    <path d="M113,170.22a11.1,11.1,0,0,1-5.42,3"/>
    <path d="M107.44,178c1.6-.3,3.92,0,6.24-2.38"/>
    <path d="M112.62,181.66a8.9,8.9,0,0,1-5.56.87"/>
  </g>
  <g class="skinFoldLine">
    <path d="M130.88,140.36a7.8,7.8,0,0,0,0-2.16"/>
    <path d="M43.64,46.77c.68-10.45-12.11-5.06-7.32,6"/>
    <path d="M42.42,49.17c-1.87,1.31.91,4.53-1.36,5-1,.19-.6-2.13-2.2-3.3C35.6,48.5,40,44.14,41.22,46.58"/>
  </g>
  <path class="lipFemaleBrown__noStroke" d="M71.39,76.77c1.37,1.46,1.84,5.94,6.36,5.84,3.39-.07,4.39-2.73,2.53-4.92-2,.36-6.26-1.29-6.26-1.29A7.13,7.13,0,0,1,71.39,76.77Z"/>
  <path class="lipFemaleBrown" d="M70.28,76.69c4.38-.46,5.94-4.14,7.41-3.17,2.73,1.82,4.88-.19,6,1.15.78.94-1.46,3.09-4.19,3.08L74,76.4A8.13,8.13,0,0,1,70.28,76.69Z"/>
  <path class="teeth" d="M74,76.4c1.28-.49,2.26-1.66,3.22-1.24a7.14,7.14,0,0,0,3.26.73,8.34,8.34,0,0,1-1,1.86C77.93,78.72,75.89,78,74,76.4Z"/>
  <g class="lipEdgeLine">
    <path d="M80.5,75.89a5.93,5.93,0,0,0,1.93-.28"/>
    <path d="M73,79.83c2.24,4.43,8.22,3,8.19.08"/>
  </g>
  <g class="cheekLine">
    <path d="M76.81,65.34c-2.82,1-2.77,3.38-5,5a15.34,15.34,0,0,0-4.14,4"/>
  </g>
  <g class="noseLine">
    <path d="M85.75,57.36c.43,7.57,3.5,15-1.29,15.08-2.67.06-2.2-1.69-5.35-2-4.88-.46-3.17-4.64-2.3-5.1"/>
  </g>
  <g class="eyeFoldLine">
    <path d="M92.29,59.29a3.9,3.9,0,0,1-3.93-.37"/>
    <path d="M76,55.9a5.93,5.93,0,0,1-6.46-1.43"/>
  </g>
  <path class="eyeCornerLine" d="M64.66,50.55a5.19,5.19,0,0,0,2.51.12"/>
  <g class="eyeCreaseLine">
    <path d="M87.75,53.56c3-2.27,6.24-1.89,7,.61"/>
    <path d="M68.85,48.52c4.53-.67,7.83-.8,10.38,2.9"/>
  </g>
  <g class="eyebrowBlack">
    <path d="M96.18,49.47c-1.82-1.15-3.6-1.33-5.43-2.19-1.48-.69-.59,2.51,1.55,2.65a11.69,11.69,0,0,1,3.59.69A4.37,4.37,0,0,0,96.18,49.47Z"/>
    <path d="M64.65,45.66c7.84-4.34,13.76-.92,17.22-.75.88.05-.49,2.44-2.77,1.59C74.27,44.71,72,43.39,64.65,45.66Z"/>
  </g>
  <path class="hairBlack" d="M97.39,47.2a12.47,12.47,0,0,1-7.91-6.46c3.1,6-7.22,3-4-8.91C80.11,43,62.25,42.1,70.67,36.85c-6,1.62-9.77,1.13-13.54,0-2.3,1.93-5.31,5.58-5.77,9.79C50.55,51,47.09,47.91,46,45c-1-11.59-16.28-7.32-12.17,7.06C29.16,62.29,32.53,77.63,40,90.4c2.27,3.89-4.76,9.72-16.16-8.38-.08,6.59-8.3-1.42-8.06-17.92-3.1,6.08-5.75-4.84,2.79-22.36,3-6.13,1-17.27,14.4-29.16C38.86,7.34,46.54-4.54,58.65,2.34,69.28-3.32,90,4.65,95.42,14.26c2.76,4.92,10.16,9.49,10.16,19.9,0,15,3.09,16.28,4.13,25.6C112,80.24,101,89.22,101.92,82.09,91.94,98,88.16,92.52,89.84,88.94,94,80.17,97,74.15,98.09,69.13c-1.9,3.25-3.54,1.71-2-2.06C97.82,63,98.2,53.59,97.39,47.2Z"/>
  <g class="hairOverlapLine">
    <path d="M57.13,36.83c-3.9-.94-5-3.83-.61-3.4"/>
    <path d="M97.39,47.2c1.86.46,2.21-1.26.63-2.82"/>
  </g>
</svg>
