<svg viewBox="0 0 1017.1 2705.8">
  <path class="lizJeans" d="M819.45,1296.32c13.61,57.86,19.72,139.7-6.67,198.85-4.14,9.28,4.75,24.71-9.35,30.59-8.17,128-34.76,264.37-70,381.16-5.54,18.35,7.18,34.11-11.51,38.77-7.22,25.7,23.63,28.45,1.76,47,36.19,123-20.45,301-38,440-73.51,27.22-138.72,34.63-165.23-50.27-5.44-122.44-15.1-248.18-16.39-329.91-18.52-10.58-.89-22.71-3-30.38-20.45-11.61,7-25,0-37.4-12.74-22.14-10.22-51.29-14.86-69.27-48.22-186.73-41.91-386.74-42.51-486.75-9.78-40-15.51-88-11.79-127.39C553.79,1276.16,692.66,1280.12,819.45,1296.32Z"/>
  <g class="soleLightTan">
    <path d="M343.46,2626.71c-1.26,4.89-1.44,12.44.42,15.77,7.87,8.47,21.87,13.42,38.52,15.81C460.8,2644,409.68,2635,343.46,2626.71Z"/>
    <path d="M366.67,2671.42c-1.29,4.88-1.48,12.43.43,15.76,22.7,23.64,94.71,19.85,138,9.72,33.33-7.81,66.2-21.92,91.28-25.41v26.38c29.24.86,77.51,1.06,82.14-6,10.94-16.75,19.35-44.87,20.21-59.92Z"/>
  </g>
  <g class="lizShoe">
    <path d="M424.66,2644.44c-37.73,1.75-68.3-4.86-81.2-17.73-2.52-12.8,9.44-36,30.37-40.12,43.26-8.6,75.7-36,112.28-66.13,30.32-25,38.37-61.1,38.1-99.53,28.87.15,42.45,6,55.37,13.5,1.18,43.17-54.42,179.26-154.92,210"/>
    <path d="M676.68,2480.85c3.53,75.11,29.88,90.33,22,151.08-33.13,25.31-82.92,10.18-136.75,32.27-81.54,33.45-170.37,31.29-195.29,7.22-2.59-12.81,9.75-31,31.36-35.13,44.66-8.6,78.15-42,115.92-72.13,31.3-25,44.77-61.1,44.49-99.53C585.54,2434.35,655,2446.57,676.68,2480.85Z"/>
  </g>
  <g class="lizJeansCuff">
    <path d="M524.21,2420.93c14.07.07,24.5,1.51,33,3.82V2381c-10.63-.16-33.42-3-37.07-5.76C510.61,2380.44,513.79,2420.93,524.21,2420.93Z"/>
    <path d="M558.44,2464.63c29.8.15,51,.39,59.13,14.64,19.49-1.87,56.67-2.1,59.11,1.58,18.13-1.58,18.5-52,10.05-56.1-21.16,13.28-116.3,8.88-129.52-3.82C550,2424.74,550.69,2461.93,558.44,2464.63Z"/>
  </g>
  <path class="skinIndian" d="M447.16,957.6c-54-3.42-85.94,6.94-199.2-24.51-27.37-6.85-57.34-75.23-103.27-80.67-29.39-8.67-31.3-26.92-73.93-31.64C33,816.61,32.42,825,9.38,826.2c-19.56,10.47-3.58,35.58,34.45,26,7.84.9,17.42,1.09,25.33,3.45C36,868.55,45.33,885.17,32,899.12c-6.26,9.71,14.21,21.09,31.38,2.31-5.6,9.05-.89,15.13-4.78,23.52-2.44,10.93,21.48,15.48,30.53-10.49.77,6.78,4.18,10,3.09,17.32,5.88,14.08,36.55,3,21.49-30.65a10.7,10.7,0,0,0,7.07-3.61c8.58,16.86,19.65,41,4.21,58.46-18,12.92-68.58-19.3-80.54,7.41,1.54,23.37,39.85,25.9,72.77,35.1,35.91,10,60,23.74,122.6-4.92,70.61,25.06,128.81,79.21,260.07,85.2Z"/>
  <path class="lizShirt" d="M780.67,609.75c20.08,37.68,99.07,104.42,54,276.26-7.41,28.22-3.36,91.78-16.32,156.54-4.1,25.86,13.37,33-9,59.52,18.3,21.71,2.68,29.78,10,68,4.47,23.25,16.5,64,17.94,130.09-52.1,2.88-96.61-21.35-195.78-9.57-97.6,8.78-129.3,35.21-197.59,41.36-3.17.2-2.8-6.42-1.94-14.71a53,53,0,0,1-25.14-16.49c5.53-71.65,7.72-108.44,23.83-201.11,7.2-41.44-8.38-63.41-7.1-128.34-5.77-6.85-7.2-13.6-3.12-20.24-71.09-76.47-46-167.84,49.73-239.25,3.87-13.12,13.45-21.53,27.25-26.48,9.06-48,34.56-63.32,62.11-84.61Z"/>
  <path class="lizShirtCollar" d="M554.18,603.36c14.92-16.2,32.27-24.29,53.21-35.6,29.87-16.15,104.4-17.14,155.3-7.27,26,5,25.37,38.43,32.64,56.08,1.78,8.25-85.3,24.41-173.59,57.65-5.19-29.08-4.69-60.3-14.22-67.73-12.07-19-12.79,62.53-50.7,86.94,13.82-40.22,8-83,1.31-83.39-3.07.53,0,8.82-11.85,51.37C552.05,624.94,548.41,611.56,554.18,603.36Z"/>
  <g class="clothesDisplayLine">
    <path d="M631.24,2432.82c5.32,7.84,4.77,38.19,0,45.53"/>
    <path d="M660.4,2431.44c6.51,6.46,7.06,39,0,46.72"/>
    <path d="M497.45,1322.4c16.56,22.62,54.63,45.31,90.49,45.31"/>
  </g>
  <g class="clothesOverlapLine">
    <path d="M617.57,2479.27c8.2,12.29,8.2,50.35,5.86,79.62"/>
    <path d="M820.8,763.8c-2.08,21.89-7.67,51.13-18.88,46.18"/>
    <path d="M662.77,790.44c-7.68-1.29-4-23-.39-37.06"/>
    <path d="M556.82,693.43c-18.54,30-44.78,43.53-66.16,59.2-113.56,83.22-35,169.84-28.28,228,6.38,55.18-14.61,132.7-11.69,195.66,2.42,52.41-12.41,76.53-8.72,140.88"/>
    <path d="M557.21,2381c-2.46-108.37-18.15-246.39-15-312.73C524,2056,545.32,2046.71,541,2039c-21.38-11.32,2.51-20.12-4.94-38.07-16.44-30.47-11.17-67.34-14-82.24C496.3,1784.34,483.13,1644,489.43,1514c-14.48-6.37-1.27-19-6.05-28.84-10.74-11-30.51-31.11-39.71-56.42"/>
  </g>
  <g class="clothesFoldLine">
    <path d="M681.12,699.58c-12.23,19.82-21.29,38.64-18.74,53.8A100,100,0,0,1,690,722.28"/>
    <path d="M588.12,770c21.74-11.51,49.58-17.73,72.39-8.59"/>
    <path d="M612.42,777.69c17.71-.55,33.84,1.71,46.9,9.48"/>
    <path d="M507.42,685.29a42.53,42.53,0,0,1,12.42-1.54"/>
    <path d="M512.93,702.28c-11.8,0-22.88,2.49-32.76,9.49"/>
    <path d="M561.93,730.87c-12,.9-24.5-1.26-36.72-2.79"/>
    <path d="M500.36,718.93c4.79-.12,9.38,1.54,13.82,4.4"/>
    <path d="M496,724.9A58.33,58.33,0,0,1,508.21,728"/>
    <path d="M421.83,783a115.58,115.58,0,0,1,20.1,5.66"/>
    <path d="M414.6,796.21a88,88,0,0,1,16.65,1.88"/>
    <path d="M415.23,808.77a36.29,36.29,0,0,1,15.71-3.45"/>
    <path d="M498.79,787.41c-1.38-.85-45.57-.74-45.17-.24"/>
    <path d="M487.17,801.55a218.07,218.07,0,0,0-38-8.42"/>
    <path d="M478.37,815.06c-13.41-6.14-26.38-9.43-34.7-13.51"/>
    <path d="M468.15,897.82c-10.11,0-20.56,3.45-31.85,2.82"/>
    <path d="M468.15,916c-9.65-2.9-19.93-2.83-28.47-4.91"/>
    <path d="M493.25,999.91c-9.86-.07-20.85,3.46-29.66,2.83"/>
    <path d="M407.38,895.93c5.52.4,11.82,2.21,19.16,6"/>
    <path d="M414.6,909.13a60.78,60.78,0,0,1,13.2,2.2"/>
    <path d="M430.44,951c4.88,2.49,11.81,2.79,20.83.83"/>
    <path d="M433.56,971.26c4.7,2,10.31,1.74,16.77-.56"/>
    <path d="M569.47,921.52A139.86,139.86,0,0,0,624.05,965"/>
    <path d="M545.22,916.46c10.21,21.14,22.35,38,37.9,47.51"/>
    <path d="M809.32,1102.07c-17.15,13.5-49.61,25.66-11.09,39.78"/>
    <path d="M724.61,1125.67c19.83,1,6.07,16.68-24.76,23.76"/>
    <path d="M780.09,1170.65c-36.63-5.88-81.9-1.16-115.61,15.67"/>
    <path d="M642.47,2296.52c-10.66,46.91-30.3,91.55-59,103.47"/>
    <path d="M504.07,2052.49c8,3.35,19.88,4.07,30.78,3.72"/>
    <path d="M501,2022.11c10,3.89,18.66,4.71,30.78,6.39"/>
    <path d="M513.52,2011.62c5.82,1.85,13.69,3.21,22.44,4.37"/>
    <path d="M513.52,2041.1c7,2.71,16.6,3.65,26.86,4.09"/>
    <path d="M542.23,2068.25c13.35,3.76,38.31,4,59.37,2.69"/>
    <path d="M541,2039c11,5,47,6.76,70.72,5"/>
    <path d="M552.35,2055.84c12.35,4.28,35.74,4.21,61.47,3.23"/>
    <path d="M548.39,2029.23c18.43,4.71,50.32,4.63,85.92,3.24"/>
    <path d="M721.9,1945.69a169.12,169.12,0,0,1-48.51,2.66"/>
    <path d="M723.66,1992.68c-16.48,7.08-53.51,10-85.86,8.15"/>
    <path d="M714.37,1982.86a191.26,191.26,0,0,1-56.08,5"/>
    <path d="M706.1,1934.33c-16.75,3-38.82,2.7-64.35.36"/>
    <path d="M803.43,1525.76c-15.55,3.25-38.71,5.17-67.23,6.16"/>
    <path d="M792.51,1514.11q-35.68,7-78,5.29"/>
    <path d="M489.43,1514c13,5.54,39.87,5.31,68.22,4.49"/>
    <path d="M512.89,1501.12c26.67,5,56.54,5.71,89,2.88"/>
    <path d="M506.64,1473.2c16.11-8.21,31.66-14.52,46.2-17.32"/>
    <path d="M509.52,1483.79c43.57-13.35,95.77-25,146.79-30.8"/>
  </g>
  <path class="clothesEdgeLine" d="M558.13,610c2.91-8.22,17.47-18.27,32-26.17"/>
  <g class="eye">
    <path class="sclera" d="M501.43,301c239.16,39.85,250.74-29.66,11.58-69.51C495.32,243,489.54,283.12,501.43,301Z"/>
    <g class="irisDarkBrown">
      <ellipse cx="623.53" cy="284.67" rx="21.6" ry="14.81" transform="translate(240.26 852.95) rotate(-80.54)"/>
      <ellipse cx="508.29" cy="263.47" rx="21.6" ry="12.03" transform="translate(164.87 721.56) rotate(-80.54)"/>
    </g>
    <g class="pupil">
      <ellipse cx="620.24" cy="284.12" rx="8.4" ry="5.76" transform="translate(238.06 849.24) rotate(-80.54)"/>
      <ellipse cx="504.67" cy="262.87" rx="8.4" ry="4.68" transform="translate(162.44 717.48) rotate(-80.54)"/>
    </g>
  </g>
  <g class="skinIndian">
    <path d="M316.57,1026.71c-11.93,20.87,30.72,50.63,53.68,65.21,21.05,13.38,32.32,23.82,70.59,28.92,111.66,11.07,218.37,35.72,293.06-11,28.05-17.55,47.66-167.26,68-299.83C773.31,802.79,697.7,789,662.77,790.44c-18.22,106.75-20.52,214.89-28.92,215.75-63.08,13.35-114.5,49-177.39,39.77-13.83-5.7-12.64-17.65-16.27-27.11,4.61-1.63,9.38-9.41,4.07-14.91-6.91-7.16-8.4-25.22-20.73-31.59,4.46-17.48-6.24-14.73-21.29-31C392.48,931,375,936.25,361.63,939c-17.95,3.68-28.31,23.82-32.2,37.13-3.37,11.55-10.29,14.24-12.05,21.85C315,1008.15,322.81,1014.24,316.57,1026.71Z"/>
    <path d="M789.81,442.08c-23.3,42.82-24.56,107.68-22.06,126.5-3.2,9.74-85.25,19-160.23,37.91-7,1.29-9,13.55-14.94,24.81,3.28-50.06,21.35-102.81-25.53-137.51"/>
    <path d="M536.62,276.76c2.6-1.17,10.12,1.95,4.58-5.81-12.28-20-30.6-33.37-44.25-10.62-3-5.42-7.5-11.23-2.63-19.95,6.45-11.56,5.87-24.17,10.43-38.94-37.58-256.13,503.66-47.79,290.43,221.47-60.51,95.71-120.26,85.85-182.72,96.48-39.39,6.71-53.82,9.67-78.62,1.6-43.21-14.06-32.09-34.18-49.73-66.07-32.79-59.31-13.39-134.23,5.84-168.31,3.95-7-4.65-11.46,5.85-21.85C497.78,281.78,520,284.29,536.62,276.76Zm69.53,12.88c6.69,1.87,13.72,10.76,27,12.74,13,1.94,30.68-1.76,41.33-6.38-15.62-12.52-22.18-22.75-34.73-25.78-13.77-3.32-23.12-1.4-39.2,13.75C596,288.22,603.4,288.88,606.15,289.64Z"/>
  </g>
  <g class="skinOverlapLine">
    <path d="M350,989.45c11.16-17.65.36-40.7,25.21-43.58,25.21-2.16,22.42,20.13,33.05,32.25,9,11.88,22.77,12,31.94,40.73"/>
    <path d="M423.53,972.35c-3.68,5.21-10.33,8-15.28,5.77"/>
    <path d="M69.16,855.7c15,4.37,38.74,15.46,51.64,41.82"/>
    <path d="M63.4,901.43c3.77-3.51,8.21-10.91,9.24-16.6,9.11.38,19.76-3.6,31.23-10"/>
    <path d="M89.15,914.46a23.47,23.47,0,0,0,.41-17.2c7-1.37,18.13-6.63,22.85-13.17"/>
  </g>
  <path class="lipFemaleBrown__noStroke" d="M597.77,438.15c-14-.06-24.73-3.81-37.87-12.73-6.5-4.41-16.26,5-39.87-6.69-5.91-2.93-9.29,7.6-18.69,2.15,11.1,8.62,15.1,27.89,37.27,31.58C557.14,455.55,577.59,444.48,597.77,438.15Z"/>
  <path class="lipFemaleBrown" d="M597.77,438.15c-14-.06-24.73-3.81-37.87-12.73-7.58-5.14-16.07,4.63-38.45-6.45-5.91-2.94-10.71,7.36-20.11,1.91,13.54-.15,14.81-15.06,22.47-12.05,16.72,6.59,22.08,1.86,29.7,3.53C566.34,415.17,570.51,426.65,597.77,438.15Z"/>
  <path class="lipEdgeLine" d="M514.52,434c4.26,17.92,34,24.61,52.06,14.78"/>
  <g class="cheekLine">
    <path d="M512.11,374.37C507,377.75,503.83,385,503,390.2"/>
    <path d="M587.51,357.64c9.76,9.42,6.31,24.29,16.36,39.59S611,423.37,615.11,431"/>
  </g>
  <g class="noseLine">
    <path d="M551.65,287.29c-21.1,49-58.43,84.52-30.14,97.51,19.36,8.88,25.07-6.85,42.55-.63,31.34,11.13,27.42-21.57,23.45-26.53"/>
  </g>
  <g class="eyeFoldLine">
    <path d="M490.77,281.22c6.23,9.24,23.54,15.59,35.82,11.92"/>
    <path d="M606.46,301.6c8.92,15.33,23.52,20.33,42.47,14.59"/>
  </g>
  <path class="eyeCornerLine" d="M684.16,298.59c-2.72.52-7.68-.58-9.7-2.59"/>
  <g class="eyeCreaseLine">
    <path d="M542.83,255.07c-10.37-20.91-49.27-28.29-49.2-.85"/>
    <path d="M674.24,281.8C659.81,259.25,630,246,607,266.28"/>
  </g>
  <g class="eyebrowBlack">
    <path d="M547.58,200.86c-13.74.26-26.23-3.65-43-.36.05.31.09.62.13.94-.59,1.92-1.1,3.81-1.55,5.67,8.61,0,17.82,1.52,28.13,4.68C544.68,215.88,558.19,200.66,547.58,200.86Z"/>
    <path d="M699.21,260.25c-28.1-41.27-73-39.81-93.47-49-5.24-2.33-4.29,15.53,11.37,17.32C650.33,232.39,666.42,232.34,699.21,260.25Z"/>
  </g>
  <path class="hairBlack" d="M713.82,240c14.67,37.81-1.21,143.11-19,182.49-9,20-2.6,37.3,15.53,19.59-22.08,74.17-53.92,112-70.12,135.07-21,30,33.33,53.56,113.06,2.27-20.4,33,57.9,29.67,113.47-10.74-15.48,30.87,31.07,33.15,79.26-22.56,116.55-134.75,52.28-201.23,53.59-283.79,1.61-100.79-43.45-127.6-80.85-172.7-51-61.47-121.21-90-182.73-69.83-22.26-35.18-140.74-20-189.84,38.17-32.63,38.66-76.1,71.28-41.42,132.51,2.2-6.15,5.22-11.27,8.09-14.05C537.43,173.52,550,166,563.5,123.2c-15.2,68.75,63.21,98.16,48.3,61.66,37.46,35.72,90.27,68.43,70.05,25.53C691.72,225.55,700.51,231.11,713.82,240Z"/>
  <g class="hairOverlapLine">
    <path d="M512.84,176.39c-14.3-1.77-12.43-9-.5-18.94"/>
    <path d="M713.82,240c67.53,28.94,62.4,5,46.67-6.7"/>
  </g>
</svg>
