<svg viewBox="0 0 962.62 2732.4">
  <g class="skinIndian">
    <path d="M446.34,1952.7c-25.41,78.26-158.49,323.62-206,459.41-35.21,10.46-67.56,3.67-97-20.74,45.49-105.68,45-292.11,94.28-359.09C289.39,1953.63,362,1937.19,446.34,1952.7Z"/>
    <path d="M395.91,1943.79c11.73,41.2-.51,80.82,6.51,108.86,24.6,98.26,7.3,289.95,18.21,423.28L324,2486.05c-16.7-142.76-107.61-248.13-94.4-433.76,1.85-26-8.8-65.23-18.22-107.38Z"/>
    <path d="M778.91,1179.44c-89.81-21-196.09-20.21-270.18-80.83-11.4-103.32,12.8-147.38,75.59-127.23a188.67,188.67,0,0,1,6.74,34.43c61.37,27.69,127.3,98.78,190.85,108.52a87.56,87.56,0,0,1,18.78-38.95c1.28-11.86,6.62-19.71,17.57-23.72,22.28-28.41,15.17-61,44.64-69.27,8.31-13,26.64-11.86,41.88-12.47,24.21-1,28,23.43,44,24.45,9.52,1.84,7.3,13.43,2.61,16.58,5.49,3.55,9.49,5.17,10.24,12.33-5.49,17.11-30.54,13.83-38.93-6.5-9.07,4-16.79,39.37-19.5,71-4.22,49.15-22,98.79-62.63,94.92C802.5,1205.6,795.66,1180.8,778.91,1179.44Z"/>
    <path d="M223.12,474c16.49,16.91,20.11,112.28,1.53,124.27C172.71,633.2,76,631.9,45.72,749.13c113.13,5.36,415.82,9.18,509.07,2.3-11.46-111.6-83.37-105.14-144.52-138-15.54-9-10.71-118.89,5.78-128.55"/>
  </g>
  <g class="soleLightTan">
    <path d="M542.74,2684.1c.3,9.79-.65,21.23-5.78,26.07-29.29,27.63-123.48,31.12-164.56-6.48-19.79-3-42.49-4.12-48.06-12.79-7-10.85-11.88-37-16-62.79"/>
    <path d="M89.69,2462.61c-3.42,20.55-6.69,40-4.54,54.4,2.77,18.49,28.94,27.25,28.94,27.25,3.19,18.71-10.82,70.7,18.23,95.91,30.09,26.1,115.65,18.12,130.83,3.22,5.34-5.23,6.18-13,6-20.95Z"/>
  </g>
  <g class="lizShoe">
    <path d="M315.49,2472.81c4.86,7.34,9.22,5.74,18.38,6,7.34-30,76.49,10.06,105.3-25.31,1.46,44,16.79,77.4,26.42,102.06,16.44,42.11,17.21,49.26,41,72,11.26,10.79,37.19,20.73,36.19,56.54-17.82,34.57-130.79,41.56-163.41,1.73-26.7-32.6-54-28.45-71-57.72C298.61,2571,326.12,2556.13,315.49,2472.81Z"/>
    <path d="M154.88,2392.62c13.15-19.61,39.68,38.8,94.64,4.66-7.35,22.27-13.65,43.08-10.41,67.57,6.43,48.51-.59,90.57,12.31,116.36,16.31,8.14,22.92,24,17.76,41.23-12.36,21.79-130.82,27.51-148.41-18.39-10.87-28.36,4.93-58.16-12.69-84.36-11.77-17.5-19.14-43-18.39-57.08,2.59-48.54,34.07-47,56.54-103.81C141,2371.26,141.27,2386.22,154.88,2392.62Z"/>
  </g>
  <g class="senoritaDress">
    <path d="M512.7,1104.27c50,118,75.18,278.43,87.25,444.9,8,109.88,22.44,225.89,30.17,365.06-1,7.75-58.34,15.09-107,15.66,1.36,11.81.87,21.16-2.3,22.18-111.38,35.74-126-6.3-163.73,7-56.82,20-128.22,15.74-152.41-4.3-54.31,4.1-97.73,6.37-126.86-9.84-1.54-.86-2.55-8.23-2.23-18.69-19.14,1-48.08-1.34-48.63-6.07-11.9-101.83,5.84-231.26,9.75-394.62,4.5-187.65,39.76-345.93,88.4-426.39C210.61,1123.43,427,1124.26,512.7,1104.27Z"/>
    <path d="M584,870c3.45-31.65-10.66-105.18-29.16-118.53-93.25,6.88-395.94,3.06-509.07-2.3C30.93,771.44,16.61,815.25,12,854.76,7.34,894-10.56,987.12,12.59,989.21l112.06,97.31c100.08,23,293.67,22.55,388.76,5.56,43.7-28.22,29.9-64.26,42-102.65C627,979,574.75,954.29,584,870Z"/>
  </g>
  <g class="senoritaStripe">
    <path d="M589,1432.29c-4.5-38.42-9.9-76-16.36-112.29-26.1,8.91-56.51,4.17-71,8.83-46.56,15-115.45,2.85-139,6.41-44.88,7.2-91.61,5.14-139.67-3.56-24.23,3.56-51.23,5.81-78.39.71-20.36-3.81-54.35.31-89.79-8.9-6,36.69-10.68,76-13.84,117.28,17.58,2.67,35.83,4.17,57.39,2.44,35.7,8.11,73.89,8,113.71,2.76,50.51,13.51,103.81,16,158.43,4,24.23-5,51.31,17.81,131.13-1.43C515.71,1444.53,546.23,1450.6,589,1432.29Z"/>
    <path d="M612.14,1692.05c-30.62,12.37-67.63,18-90.9,16.76l-.26,31c-75.11,20.67-127.67,1-149.06,8-54.08,17.69-138.46,6.38-169.86-7.59C170,1744.4,98.4,1738.35,87,1728.37l0-23c-17.52.58-41.79-6.13-57.69-14.9-2.49,41.59-4.83,80.16-5.84,116.16,18.59,9.07,35.84,16,58.35,15.39l-1.72,16.49c52,28.51,112.26,9.66,131.5,14.65,86.33,28.7,140-2.1,168.9,3,42.5,7.49,89.15,3,140.1-8.75l-.1-25.52c32.82,5.46,68.16-.06,102.23-14C619.37,1767.41,615.7,1729.1,612.14,1692.05Z"/>
    <path d="M584,870c-6.6,2.17-14.67,2.25-21.87,2.16-48.85-30.47-90.09-3.87-127-10.27-79.39-13.74-76.34,16.2-167.26-3.07-36.42-7.72-112,4-139.83,23.45-16.87-6-28.72-1.16-57-6.63-18.93-3.66-39.09,4.89-61.49-2.5h0C3.26,916.75-7.44,987.41,12.59,989.21c53.69,12.48,77.44-25.61,134-30.93,35.66-3.36,70.81,15.9,93,7.37,76.59-29.49,109.29,7.41,139.67-4.1,51.44-19.48,68.81,2.05,100.35,3.28,43.82,1.71,53.25-13.93,79.85-5.77a94.7,94.7,0,0,1-4,30.37C627,979,574.75,954.29,584,870Z"/>
  </g>
  <path class="senoritaBelt" d="M125.13,1099.11c85.48,24.32,301.83,25.15,387.57,5.16,4.57.26,5.27-11.92.71-12.19-95.09,17-288.68,17.42-388.76-5.56C120.11,1086.69,120.59,1099.28,125.13,1099.11Z"/>
  <g class="clothesOverlapLine">
    <path d="M531.53,776c15.9,59.6,35.81,92.95,40.14,147.5,3,37.61,13.43,51.52-14.26,58.06"/>
    <path d="M125.19,922.41c1.84-42.69,9.18-107.65,20.75-150.84"/>
    <path d="M154.88,2392.62c-12.38,20.14-13,47.62-24.84,61.79"/>
    <path d="M333.87,2478.8c-7.17,21.62-.79,55.28-2.53,86.61"/>
    <path d="M251.42,2581.21c-16.49-7.36-43-9.05-56.95-6.1"/>
  </g>
  <g class="clothesFoldLine">
    <path d="M515.29,1512.93c12.85,115.19.16,293.82,7.85,417"/>
    <path d="M75.61,1926.19c-1-71.87,11.71-131.33,11.51-169.6-.41-78.31-1-211.26,12.87-327.89"/>
    <path d="M204.7,1954.72c-1.63-14,.75-37-1.76-69.44"/>
    <path d="M201.77,1760.1c2.11-151,6.52-295.66,17.54-402.76"/>
    <path d="M408.05,1137.79a1206.85,1206.85,0,0,1,11.21,167.41"/>
    <path d="M482,1109.83c10.76,31.48,17.29,71,23.21,111.66"/>
    <path d="M502.21,1122.84c8.21,18.58,13.08,35.46,14.95,50.82"/>
    <path d="M207,1112.73a216.52,216.52,0,0,0-5.27,46"/>
    <path d="M131.52,1107.15A161.55,161.55,0,0,0,114.33,1155"/>
    <path d="M280.23,1117.43a221.34,221.34,0,0,0-5.22,56.23"/>
    <path d="M232.41,1209.54c-5.16,30.12-8.68,59-7.47,84.45"/>
    <path d="M155.43,1117.61c-14.84,6-23.32,29.38-28.4,62"/>
    <path d="M260.81,1131.81c-.74,9-1.49,34.38-3,38.86"/>
    <path d="M370.68,1154.23c9.71-37.37,20.18-5.23,19.43,50.07"/>
    <path d="M455.88,1129.57c12.68-11.71,17.63,12.23,21.67,40.35"/>
    <path d="M439.75,850.52c3.41,26.13,4.54,51.17,3.41,69.13"/>
    <path d="M322,857.35c2,18.41,1.21,44.57,1.89,68.43"/>
    <path d="M79.14,829.39c-8.59,23.78-10.09,54.24-10.27,84.12"/>
    <path d="M323.86,991.9a555,555,0,0,1,108.39,4.78"/>
    <path d="M362.72,1008.26c-27-2.87-52.87-3.22-76.35,1.37"/>
    <path d="M147.17,1091a51.46,51.46,0,0,0-1-20.32"/>
    <path d="M166.85,1094.15c5.64-31.67-7.26-50.4-9.94-23.44"/>
    <path d="M225.77,1100.19c11.19-38-8.76-53.77-8-27.49"/>
    <path d="M297.41,1103.91c-2.79-10.77-.1-23.63-4-28.78"/>
    <path d="M392.67,1103.3c.64-16.23,3-31.1,8-43.74"/>
    <path d="M408.05,1102.64c-3-33.35,16.77-55.29,11.21-25.32"/>
    <path d="M475.63,1097.43c7.55-49.3,37.72-52,16.31-18.65"/>
    <path d="M498.77,1094.46c6.08-6.46,10.15-15.71,12.88-26.87"/>
  </g>
  <g class="eye">
    <circle class="sclera" cx="255.97" cy="307.42" r="116.3"/>
    <g class="irisDarkBrown">
      <ellipse cx="297.45" cy="291.94" rx="21.6" ry="20.57" transform="translate(-23.52 557.8) rotate(-84.1)"/>
      <ellipse cx="165.57" cy="269.43" rx="21.6" ry="19.12" transform="translate(-119.45 406.43) rotate(-84.1)"/>
    </g>
    <g class="pupil">
      <ellipse cx="296.03" cy="291.31" rx="8.4" ry="8" transform="translate(-24.16 555.83) rotate(-84.1)"/>
      <ellipse cx="164.26" cy="268.81" rx="8.4" ry="7.44" transform="translate(-120.01 404.58) rotate(-84.1)"/>
    </g>
  </g>
  <g class="skinIndian">
    <path d="M295.87,855.25C199.22,978.48,164.93,1105.88,58.56,1115c-51.47,4.42-54.67-63.4-46-125.79,7.63,2.08,22.93,3.62,33.3,1.57,28.12-45,106.54-67.48,182.22-172.31,9.91-12.09,9-32.94,37.64-59,19.88-18.12,42.8-25.42,64.52-40.62,10.05-5.35,15.84,7.32,10.41,18.9,11.59-2.07,36.56-6.22,54.65-2.53,23.29,4.76,35.48,11.95,51.77,14.84,11.94,1.09,8.68,18.1-6.88,20.63,5.07,3.26,6.51,11.59,13.75,16.65,8.69,7.6-9.41,29.87-35.83,6.35,16.19,15.59,13.39,29.49,18.46,46.5,1.08,10.13-16.65,9.41-26.43.36,2.9,11.22-5.42,14.84-3.61,27.15-1,13-33.3,6.24-22.69-20a13.68,13.68,0,0,1-8.44-1.44C358.55,861.74,325.84,864.77,295.87,855.25Z"/>
    <path d="M449.52,454.13c-43.85,66.87-107.38,77-166.26,84.6-34.13,4.38-48.52,13.68-86.07,3.39-41.65-11.42-36-29.14-58.86-65.36-43-68.13-19.29-139.82-.37-199.34,6.28-19.75,1.11-26.14,5.41-47C110.13-27.19,678.85,192.56,449.52,454.13ZM278.65,294.07c5.62,1.26,12.09,10.74,31,12.77,14.53,1.56,29.69-2.72,41-5.19C340.85,291,325.85,276,309.79,274.58c-11.7-1-26.63,6-34.78,14.23C270.8,293.06,275.85,293.44,278.65,294.07Zm-74.38-21.86c-9.37-12.36-18.05-18.18-26.94-19.4-13.34-1.83-19.39,2.75-28.44,12.81,2.28,6,8,13.59,20.35,16.94,19.27,5.2,27.5-4.22,32.28-3.87C204.38,278.89,210.37,280.25,204.27,272.21Z"/>
  </g>
  <g class="skinOverlapLine">
    <path d="M45.89,990.78c-7.83,11-13.56,22.14-16.45,32.68"/>
    <path d="M591.06,1005.81c-11.57-.48-23,3.84-34.3,14.23"/>
    <path d="M518.94,753.25c-.23-4.25-1.55-8.39-1-13.08"/>
    <path d="M146,752.4c-.2-4.53.53-10.07.94-15.93"/>
    <path d="M292.76,753.94c16.2-11.49,31.52-12.37,47.92-16.19"/>
    <path d="M376.42,753.06c16.79-.59,49.79,6.77,63.8,17.63"/>
    <path d="M418.14,793.69c-6.37-4.69-22.57-5.87-29.05-5.58"/>
    <path d="M387.14,817.34c7.46,5.75,18.06-1.88,23,23.21"/>
    <path d="M800.69,1075.38a170.13,170.13,0,0,1-4.71,32.71"/>
    <path d="M818.26,1051.66c10.12-1.79,15.39-11.8,24.87-13.38,10-2.1,18.23,25.77-10,39.46-2.17,11.91-4.54,21.39-1.11,32.46"/>
    <path d="M862.9,982.39c11.05-2.06,22.75-8.84,32.29-7.11,12.27,2.23,15.9,16.12,27.23,24.28,6.06,5.27-1.84,27.4-29,9.48-7.38,3.36-16.27,4.58-22.54,3.17-3.7,16.5-11.09,38.12-18.74,53.42"/>
    <path d="M870.49,1065.09c9.81-16.47,10.94-36.44,20.11-54.88"/>
    <path d="M951.36,1011c-4.21,5.44-20.68,5.42-29.92,1"/>
    <path d="M907.94,1015.54c-10.74,15.56-13.12,41.7-19.62,51.42"/>
  </g>
  <g class="skinFoldLine">
    <path d="M893.13,1068.51a9.69,9.69,0,0,0-9.72-.47"/>
    <path d="M874.08,1067.19c-2.33-2.63-5.46-2.71-9.25-.69"/>
    <path d="M893.44,1009c-3.93-2.45-9-8.49-9.1-13.26"/>
    <path d="M833.18,1077.74a15.6,15.6,0,0,1-8.3,1.33"/>
    <path d="M870.9,1012.21a24.18,24.18,0,0,1-10.18-4.82"/>
  </g>
  <g class="skinCreaseLine">
    <path d="M840.54,1182.74c22-29.63,22.92-69.89,10.89-86.11"/>
    <path d="M862,1074.64c0,24.08,13.56,28.88,31.87,30"/>
  </g>
  <path class="skinEdgeLine" d="M356.43,753.54c3.82,10.6,21.11,9.92,16.47,26.25-3.75,13.19,4.7,14.93.66,24.64-3.23,7.74,1.19,14.7-4.08,22.59"/>
  <g class="head48__edited">
    <path class="lipFemaleBrown__noStroke" d="M175.8,439.7c.43,7.43-4.45,30.7,27.35,36.19,33.43,5.77,41.28-16.44,56-23.46C240.26,437.2,208.86,428.34,175.8,439.7Z"/>
    <path class="lipFemaleBrown" d="M167.41,439.33c4.59,1.21,8.93.75,14-1.26l71.1,11.44c3,1.95,12.56,5.41,19.12,5.62-29.41-8.88-29.41-29.74-45.08-35-8.13-2.75-10.31-.7-23.69-2.22-6.06-.69-17.15-6.5-21.79-3.9C164.31,423.37,193,431.47,167.41,439.33Z"/>
    <path class="mouthInner" d="M243.46,443.38l-53.32-11.61a42.47,42.47,0,0,1-8.71,6.3c10.79,3.36,16.89,10.12,25.95,12.09,15.7,3.41,19-1.85,45.15-.65C249.54,448.44,245.47,445.05,243.46,443.38Z"/>
    <path class="teeth" d="M243.46,443.38c-8.18-6.66-14.89-16.75-27.91-16.35-5.91.19-14.23.43-20.52-1.23a20.64,20.64,0,0,1-4.89,6C198,444.13,221,446.61,243.46,443.38Z"/>
    <g class="lipEdgeLine">
      <path d="M176,450.8c1.42,29.7,49.17,32.23,65.74,15.78"/>
      <path d="M195,425.8a43.11,43.11,0,0,1-10.9-4.24"/>
    </g>
    <g class="cheekLine">
      <path d="M177.7,381.11c-5.93,7.18-10.75,15.6-12.5,26.77"/>
      <path d="M255,366.41c16.17,11.68,9.41,19.15,18.28,39.17,7.43,16.74,10.51,19.64,10.33,37"/>
    </g>
    <g class="noseLine">
      <path d="M248.06,396.58c15.94-1,14.17-22,6.93-30.17"/>
      <path d="M218.68,299.73c-26.82,43-55.39,67.51-37.5,86.4,16.47,17.41,42.45-6.94,55.46,6.78"/>
    </g>
    <g class="eyeFoldLine">
      <path d="M154,287.1c6,9.7,22.43,12,35.82,7.17"/>
      <path d="M282.57,310.88c10.3,11.37,32.24,16.18,50.2,6.36"/>
    </g>
    <g class="eyeCornerLine">
      <path d="M366.1,305.42c-6.92.62-12.43-1.11-15.44-3.77"/>
    </g>
    <g class="eyeCreaseLine">
      <path d="M207.27,261.63c-16-26-39.06-22.84-54.93-10.16"/>
      <path d="M352,287.4c-16.86-21.92-50.67-35.39-70.1-14.11"/>
    </g>
    <g class="eyebrowBlack">
      <path d="M382.71,266c-24.91-29.54-77.95-48.43-104.85-40.44-7.33,2.18,7.89,14.71,16.27,14.1C330.77,237,356.22,243.55,382.71,266Z"/>
      <path d="M218.84,212.73c-15.51-7.93-49-9.09-76.77,2.18q.09,2.72.3,5.52c18.44-6.1,32.56-6.05,55.21,2.5C205.44,225.9,225.66,216.21,218.84,212.73Z"/>
    </g>
    <path class="hairBlack" d="M395.3,257c9.75,55.77-8.22,148-34.31,197.62-11.74,22.34,2.17,32.7,19.79,7.95C359.44,537,345.32,568.3,328.39,590.86c-25.54,34,55.68,53.43,124.36-6.54-13.28,38.37,32,27.62,87.34-34.67-10.56,29.64,26.92,14.86,49.57-13.54,107.23-134.43,61.79-195.27,48.15-294.22-14.31-103.84-44.46-116-81.2-155.56C505.16,30.93,455.73,1.42,389.24,24,364.94-18.4,262.48,3.5,217.62,43.92c-46.38,41.8-116.43,117.27-74.25,186.52,1.82-10.81,8.32-31.59,13.18-41.81,35.91-4.53,62.55-8.72,81.57-48.86-11.19,69.1,43.41,86.56,30.57,49.08,35.16,33.81,97.44,66.11,72.08,26.55C362.71,234.67,365.38,245.09,395.3,257Z"/>
    <g class="hairOverlapLine">
      <path d="M156.55,188.63c-16.58,1.72-23.23-10.82-3.62-19.74"/>
      <path d="M395.3,257c32.29,10.71,39.13-2,22.87-11.8"/>
    </g>
  </g>
</svg>
