<svg id="presence" xmlns="http://www.w3.org/2000/svg" viewBox="0 0 1441.06 1068.48">
  <defs>
    <style>
      .cls-1 {
        fill: #888f9e;
      }

      .cls-1, .cls-2, .cls-3, .cls-4 {
        stroke: #000;
        stroke-miterlimit: 10;
        stroke-width: 2px;
      }

      .cls-2 {
        fill: #9aa2b3;
      }

      .cls-3 {
        fill: #606a80;
      }

      .cls-4 {
        fill: none;
      }
    </style>
  </defs>
  <title>goKarts</title>
  <g id="wheel">
    <path id="wheelHubDark" class="cls-1" d="M727.07,347.33h0L654.33,222c-13.72,0-28.11,26.2-26.57,41.82l82.16,105.84h0c-19.17,35.94-23.54,65.68-12.29,69.15C709.91,437.12,752.92,358.33,727.07,347.33Z"/>
    <path id="wheelHubLight" class="cls-2" d="M712.52,269.26a584.91,584.91,0,0,1-16.61,58.67l30.83,52.72c-7.49,21.49-17.26,40.41-26.93,49.77l-61.57,27.26s-8,13.7-12,20.13l65.07-31.63c19.39-8.59,28-17.21,40.74-47.58s12-42.25,5.32-62.42Z"/>
    <path id="wheelHandle" class="cls-3" d="M697.23,137.61c39.43,21.46,28.6,123.77-20.53,241.11S562.44,577.63,519.33,562.53c-50.81-17.8-28.6-123.77,20.53-241.1S653.65,113.9,697.23,137.61ZM548,485.64c19.93-21.5,47.92-70.5,72.88-130.1s40.26-114.09,41.55-143.35c-19.93,21.5-47.26,70.78-72.88,130.1S549.33,457.36,548,485.64Z"/>
    <g id="wheelOverlapLine">
      <path class="cls-4" d="M662.48,212.19c.54-12.27-1.38-20.11-6.06-22.07"/>
      <path class="cls-4" d="M528,496.91c4.7,2,11.67-2.21,20.07-11.27"/>
    </g>
  </g>
  <path id="lizUndershirt" class="cls-4" d="M409.46,584.48c16.19,37.78,20.92,85,12.14,120.76C295.1,820.35,163.21,873.49,23.8,840Z"/>
  <path id="lizJeans" class="cls-4" d="M23.8,840c54.41-4.61,104.86-12.36,150.29-24.09,40.47-29.89,80.14-58.61,88.28-41.27,7.57-8.68,23.07-15.46,32-10.17C301.5,750.51,310.17,746,320,748.91c29.59-17.43,57.44-32.64,82.38-44.1-2.43-6.27,9.36-13.72,12.94-9.08,132.95-73,257.7-136.83,330.31-105.8,121,51.73,253.84,120.4,371,196.13l-57.85,99.05c-15.35,1.61-73.37-19.57-87.16-23.77-85.81-26.12-190.58-28.75-252.78-89.54-11.49,12.49-17.44-4-20.49-1.94.32,8.21-3.49,12.27-13,10.62,1.75,24.62-15,9.21-18.83,20.27C554.91,932.28,438.56,1052,295.43,1064.84,86.11,1083.63-16.51,1001.54,23.8,840Z"/>
  <path id="lizJeansCuff" class="cls-4" d="M1105.19,778.71c8.49-3.66,37.82,12.21,39.53,20.83-.11,46.79-15,84.19-53,107-9.82,4.13-44.13-11.87-44-22.33C1062.24,867.22,1099.26,800.05,1105.19,778.71Z"/>
  <g id="clothesDisplayLine">
    <path class="cls-4" d="M1079.8,832.87c2.81,6.74,36.33,26,43.84,23.82"/>
    <path class="cls-4" d="M1070.74,849c2,5.85,33.32,23.5,41.45,22.63"/>
  </g>
  <g id="clothesFoldLine">
    <path class="cls-4" d="M685.34,780.48c-13.16-17.73-22.13-39.07-29.49-61.81"/>
    <path class="cls-4" d="M698.36,769.86c-11.36-19.52-14.73-45-17-71.38"/>
    <path class="cls-4" d="M718.85,771.8c-3.57-7,6.71-25.7,10.52-43.61"/>
    <path class="cls-4" d="M705.75,761.72c2.67-21.34,10.29-34.29,18.67-65.91"/>
    <path class="cls-4" d="M415.36,695.73c3.54,14.56,28.11,57.19,48.87,89.23"/>
    <path class="cls-4" d="M402.42,704.81c4.29,14.62,40.47,75.21,66,116"/>
    <path class="cls-4" d="M174.09,815.86c-32.71,28.12-62,57.26-86.24,87.95"/>
    <path class="cls-4" d="M262.37,774.59c-17.19,18.75-45,92.74-60.24,147.13"/>
    <path class="cls-4" d="M294.35,764.42c-4.6,11.77-3.89,62.37,0,105.49"/>
    <path class="cls-4" d="M239.85,785a408.85,408.85,0,0,0-103.62,92.57"/>
    <path class="cls-4" d="M202.9,838.67a471.11,471.11,0,0,0-64.77,107.81"/>
    <path class="cls-4" d="M274.13,781.53C252.75,813.68,237.76,856.2,228,907.24"/>
    <path class="cls-4" d="M306.9,765.53c-7.52,18.72-3.79,67.36,2.28,122.28"/>
    <path class="cls-4" d="M942,716.5c50.7,49.57,98.09,99.33,85.59,152.59"/>
    <path class="cls-4" d="M667.71,781a129.55,129.55,0,0,1-16.63-29.11"/>
  </g>
  <path id="lizSoleSide" class="cls-4" d="M1426.49,752.9c4.77,1.67,11.13,5.75,12.81,9.2,6.83,32.06-33.73,88.52-66.41,118.64-25.17,23.21-59.3,41.49-76.26,60.29l21.83,14.8c-15.7,24.69-42.63,64.75-51.09,64.6-20-.34-48-9.17-60.93-16.9Z"/>
  <path id="lizShoe" class="cls-4" d="M1091.77,906.49c60.18,45.09,60,69.43,114.67,97,39.54-13.21,55-62.91,103.46-95.07,73.46-48.7,122.53-121.42,116.59-155.56-9.14-9.34-31.09-9.32-46.67,6.24-32.19,32.13-83.6,39.11-129.76,53.44-38.26,11.87-73.69,8.76-105.34-13-16.61,24.74-28.32,42.45-21.08,57.15C1111.15,871.76,1090.09,902.41,1091.77,906.49Z"/>
  <g id="clothesOverlapLine">
    <path class="cls-4" d="M1123.64,856.69c5.57,13.68,37.07,35,62.61,49.53"/>
  </g>
  <g id="lizJacket">
    <path class="cls-4" d="M557.72,322c-2.73-15.24-56.82-71.5-75.8-81.61-9.12-.46-31.77,37.75-67.68,69.51C433.63,392.11,509,427,557.72,322Z"/>
    <path class="cls-4" d="M57.72,122.7c87.8-71.91,364.71,143.41,390.65,222.69,5.22-2,13-6.75,16.76-11.21-3.53-29,20.38-19.28,54.52-76.44,7.16-12,97.05,70.44,86.59,82.59C540,417.23,495.92,521.47,446.38,552.57c-4.84,75.79-102.81,113.23-230.3,161.34C147.8,739.68,78.17,812.54,6.46,843.22c-6.87-18.66,24.2-29.08,15.38-49.93-3.26-7.71-1.41-16.84,2.6-34.48s-20-32.07-16.83-52.92c2.65-17.24,25.35-36.72,25.92-56.6C14.82,617.69,38.41,608,32.46,564c-8-59.34-2.1-139.74-8.7-153.19-13.75-28-.53-44-2.46-74C16.37,260.36,32.26,189.79,57.72,122.7Z"/>
  </g>
  <path id="lizJacketInner" class="cls-4" d="M446.38,552.57C415.7,663,250.53,681,190.06,675c-12.69,0-89.77,114.28-183.6,168.24,54.66-13,91.23-36.11,116.61-54,21.15-14.92,49.27-15.18,85.1-59.22C367.92,685.72,442.56,626.35,446.38,552.57Z"/>
  <g id="lizJacketLapel">
    <path class="cls-4" d="M74.07,65.91c-4.62-2-28.16,51.41-23.55,53.44A1177.33,1177.33,0,0,1,166.16,155c5.91,1.28,16.48-9.52,29-15.63,0,10.74-3.23,23.22,0,26.78C303.8,209.82,397.73,270,448.37,345.39,442,285.06,278.94,144.8,74.07,65.91Z"/>
    <path class="cls-4" d="M218,94.2c24.49,20.56,45.81,48.2,57.28,75.22,4.91,3.14,49.15,33.19,67.62,48.93C315,181,261.29,129.47,218,94.2Z"/>
  </g>
  <g id="clothesOverlapLine-2" data-name="clothesOverlapLine">
    <path class="cls-4" d="M263.08,260.65c6,6.09,10.32,13.45,13.94,21.28,20.61,7.77,14.81,29.72,32.29,56.5,19.79,3.86,21.94,22.18,28.48,34.5,4.48,8.43,14.41,8.88,13.15,26.21,9.14,15.55,24.95,4,21.48,25.15,5.54,5.38,6.78-7.05,12.48-1.47.92-14.37,26.19-17.17,43.29-52.1-1.47-21.5,11.89-21.65,20.18-25.33"/>
    <path class="cls-4" d="M446.38,552.57c-32.87,23.63-75.78,42.19-96.16,34.28-94-36.44-218.65-254.91-257.16-266.92"/>
  </g>
  <g id="clothesFoldLine-2" data-name="clothesFoldLine">
    <path class="cls-4" d="M196.61,781c-28,7.54-53.57,11.74-73.54,8.17"/>
    <path class="cls-4" d="M208.17,730c-19.68,4.36-35.57,7.6-47.42,6.39"/>
    <path class="cls-4" d="M188.49,599C139.1,664.65,61.38,733.14,28.82,700.5"/>
    <path class="cls-4" d="M33.53,649.29c5.2,7.44,7.3,17.15,4.76,30.24"/>
    <path class="cls-4" d="M115.42,362.89c-28.42,16.48-57.21,24.35-86.6,17.6"/>
    <path class="cls-4" d="M156,431.23c-19.38,12.24-39.69,20.77-61.57,23"/>
    <path class="cls-4" d="M148.58,472.5c17.56-9.58,34-20.33,48-33.72"/>
    <path class="cls-4" d="M79.57,167.36c15.73-12.88,34.64-20.62,57-22.77"/>
    <path class="cls-4" d="M254.12,209.31a82.08,82.08,0,0,1,9,51.34c-33.31-86.52-129.29-30.59-138.86-54-8.35-20.47,40.59-24.36,83.89-10.83"/>
    <path class="cls-4" d="M175.64,250.58c35.18,23.68,67.66,21,101.38,31.35"/>
    <path class="cls-4" d="M309.31,338.43c25.61,20.89-17.3,35.29-73.46,33.94"/>
    <path class="cls-4" d="M302.84,263.44A283.11,283.11,0,0,0,354.25,304"/>
    <path class="cls-4" d="M332.6,324.33c17.48-1.37-10.82-26.39-43.24-32.51"/>
    <path class="cls-4" d="M350.94,399.14c.11,14.12-12.3,26.63-34.57,41.56"/>
    <path class="cls-4" d="M372.42,424.29c.1,14.38-56.73,87.45-22.9,110.45"/>
    <path class="cls-4" d="M365.76,513.77c11.09-26.77,12.16-54.57,11.5-82.54"/>
    <path class="cls-4" d="M384.9,422.82c5.21,28.71,18.41,55.49,7.92,88.92"/>
    <path class="cls-4" d="M428.19,370.72c1.81,17.2,2.12,35.57-4.25,59.16"/>
    <path class="cls-4" d="M465.13,334.18c3.22,8.67.3,19.14-3.3,27.36"/>
    <path class="cls-4" d="M491.6,348.69c5.48,34.74,8,68.86-6.77,99.45"/>
  </g>
  <g id="skinIndian">
    <path class="cls-4" d="M552.64,162.24C533,182.5,510.72,211.63,487.52,244c15.31,10.93,41.55,37.11,57.28,56.95l46.52-88.31"/>
    <path class="cls-4" d="M566.32,181.77c-14.49,27.12-27.58,52.1-41.25,75.32,11.65,3.65,38.34,25.68,58.13,46.36,8.37-24.89,20.66-53.25,32.35-72.84"/>
    <path class="cls-4" d="M78.07,0l-.56,67.23A1072.59,1072.59,0,0,1,275.3,169.42c-12.45-29.33-36.51-59.4-63.62-80.33l3.82-70"/>
  </g>
</svg>
