<svg id="presence" xmlns="http://www.w3.org/2000/svg" viewBox="0 0 1194.53 916.97">
  <defs>
    <style>
      .cls-1 {
        fill: none;
        stroke-miterlimit: 10;
      }

      .cls-1, .cls-2 {
        stroke: #000;
        stroke-width: 2px;
      }

      .cls-2 {
        fill: #d6bb45;
        stroke-linecap: round;
        stroke-linejoin: round;
      }
    </style>
  </defs>
  <title>leavingCrumbled</title>
  <g id="lizSock">
    <path class="cls-1" d="M141.43,448.67c-16,8.21-31.94,13.3-50,14.35-41.53,2.42-72-16.27-83.49,8.94-7.46,16.32,39.32,53.85,74.51,72C181.08,528.16,179.38,492.66,141.43,448.67Z"/>
    <path class="cls-1" d="M157.41,685.06c-13.5,17.39-128.55,35.83-152.6-1.45-15.69-24.33,21.65-30.07,29.66-35.68,14-9.82,34.29-71.81,44.1-111.45,9.62-36.48,48.51-51.31,79.77-29.26C207.13,575.19,198.76,616.67,157.41,685.06Z"/>
  </g>
  <path id="clothesOverlapLine" class="cls-1" d="M115.45,626.54c7.72-1.1,14.8,2.24,23.37,26.53,1.23,3.51,1.15,8.56,6.6,9.38"/>
  <g id="skinIndian">
    <path class="cls-1" d="M1147.75,507c-20.62,38.08-66,59.59-111.24,93l-12.72,162.89c62-30.19,106.48-120.78,170-181.17"/>
    <path class="cls-1" d="M807.64,430c-52.76-93.79-90.13-134.1-118.57-172.92-20.36-27.79-27.25-74-57.24-109.48C639.45,16.75,429.2-44.69,386,39.79,294.06-16.56,110.38,67.87,114,276.68c1.84,106.53,28.09,217.15,71.22,330.76-18.51,9.26-37.44,30.37-41.68,51.23,47.19,92,91.59,158.93,181.56,150.68,8.88,94.48,73.63,87.54,100.75,91.48l85-42.25c-10.12-12.38-33.87-20.26-44.08-32.72-2.64-1.32,1-12.23-10.17-33.53,30.63-42.58,41.12-81.42,57.91-101.19,35.84-15,49.5-48.66,72.5-75.12"/>
  </g>
  <g id="skinOverlapLine">
    <path class="cls-1" d="M185.19,607.44c10.24,25.61,20.43,53.91,30.57,84.65"/>
    <path class="cls-1" d="M438.71,115.19a132.57,132.57,0,0,1,6.2,21.4"/>
    <path class="cls-1" d="M149.11,227.48c3.47,55.8,27.53,98.41,64.78,118.08"/>
    <path class="cls-1" d="M221.41,355.76c16.13,55.2,69.48,40,123.59,158.85"/>
    <path class="cls-1" d="M387.67,606.06c-7.62,73.93-61.73,111.27-62.6,203.29"/>
    <path class="cls-1" d="M549.15,611.71c-7.35,36.22-19.94,59.31-34.65,79.43"/>
    <path class="cls-1" d="M573.82,611.19c-13.12,10.49-25.17,26.73-31.77,27.37"/>
    <path class="cls-1" d="M333.25,490.8c5.95,34.83-12.95,110.41,41.29,165.91"/>
    <path class="cls-1" d="M368.13,769.19c22.59-16.76,74.34-5.1,88.46,23.14"/>
    <path class="cls-1" d="M466.76,825.86c-5.24-5-8.11-9.76-11.94-16"/>
  </g>
  <path id="skinCreaseLine" class="cls-1" d="M478.19,212.31c35.72,82.37,97.67,118.81,147.24,227.42"/>
  <path id="lizPanties" class="cls-1" d="M632,143.81c-41-34.45-99.05-37.65-137.39-48.44C420,74.37,417.46,49,386,39.79c27,19.56,21.18,58-30.37,89.48-82,50-142.2,117.34-141.75,216.29,0,4.24,5.08,11.84,7.52,10.2C221,165.05,460.78,39.79,637,154.14,639.43,152.91,634.23,145.69,632,143.81Z"/>
  <path id="braceletLight" class="cls-2" d="M504.14,852.44c-16.16-18.69-47.17-5.23-64.6,9.79C420.46,878.65,414.18,897.58,431,916c-18.84-13.6-23.12-39.94,4.3-62.2C458.93,834.56,491.38,830.38,504.14,852.44Z"/>
</svg>
