<svg viewBox="0 0 1371.99 1044.12">
    <g class="lizSock">
        <path d="M141.43,448.67c-16,8.21-31.94,13.3-50,14.35-41.53,2.42-72-16.27-83.49,8.94-7.46,16.32,39.32,53.85,74.51,72C181.08,528.16,179.38,492.66,141.43,448.67Z"/>
        <path d="M157.41,685.06c-13.5,17.39-128.55,35.83-152.6-1.45-15.69-24.33,21.65-30.07,29.66-35.68,14-9.82,34.29-71.81,44.1-111.45,9.62-36.48,48.51-51.31,79.77-29.26C207.13,575.19,198.76,616.67,157.41,685.06Z"/>
    </g>
    <path class="clothesOverlapLine" d="M115.45,626.54c7.72-1.1,14.8,2.24,23.37,26.53,1.23,3.51,1.15,8.56,6.6,9.38"/>
    <path class="hairBlack" d="M580.6,789.8c-21.63,11.7-18.17,59-6.49,75.63-28.27-20.23-35.27,28.28,29.36,77.15-51.82.14-6.39,56.91,81.22,52.7-29.3,32.45,61.62,12.84,98.31-4.17,41.91-19.42,32.08-40.65,93.77-55.68,134.29-32.73,115.37-52.59,174.71-84.74,72.7-39.38,131-213.9,72-251.12,34.71-32.87-27.06-136.52-98.36-163.47-62.14-23.48-94.88-85.62-210.23-35.19-59.17,25.87-160,23.16-169.6,156.89Z"/>
    <g class="skinIndian">
        <path d="M1334.11,448.92c37.12,14.94,45.72-20.66,28.07-21.11-14.94-2.26-29.37-11.19-45.69-8.06-22.22,4.27-23.58,12.87-36.26,17.4a45.16,45.16,0,0,0,6.34-18.56,89.4,89.4,0,0,0,27.62-17.66c38,10,46.14-16.5,34.48-21.92-24.45-3.17-28.67-17.51-60.65-1.54-28.16,14-27.25,19.84-40.83,33.42l.45-9.5L1269.82,376c35.77,4.08,38-32.14,22.64-30.33-22.19,5.43-29.43-13.13-56.63,14.44-24.29,24.62-20.52,30.83-31.84,55.28-16.3,28.07-42.06,36.63-63.28,98.54a105.9,105.9,0,0,1-16.07,22.17c11.22,26.15,12.66,50.38-1.12,63.44,11.69,7.38,18.76,20.16,22,36.2,15.18-19,31-37.65,48.29-54,32.48-19.29,50.57-7.22,75.58-39,21.79,1.07,29.08-15.65,22-21,21.08-13.22,19.94-30,42.22-28.86,13.8,22.07,38,6.14,28.38-3.87-9.5-7.69-5.29-23-24.75-23.84-18.1-.77-33.59,5.67-48.42,17.75C1300.93,468.72,1301.28,456,1334.11,448.92Z"/>
        <path d="M807.64,430c-52.76-93.79-90.13-134.1-118.57-172.92-20.36-27.79-27.25-74-57.24-109.48C639.45,16.75,429.2-44.69,386,39.79,294.06-16.56,110.38,67.87,114,276.68c1.84,106.53,28.09,217.15,71.22,330.76-18.51,9.26-37.44,30.37-41.68,51.23,47.19,92,91.59,158.93,181.56,150.68,8.88,94.48,73.63,87.54,100.75,91.48-2.38,8.35-13.92,12.47-22.4,26.41-5.38,2.06-9.42,5.06-11.72,9.29-36.77,14.14-27.27,29.9-45.46,43.84-8.48,8.69,4.85,20.81,17,17.17-15.55,22.63,27.68,36,36.17-9.29,7.6-9.57,13.58-17.56,15.35-26.66a93.33,93.33,0,0,0,26.06.21c-5.9,21.14-7.35,72.46,3.38,79.08,11.39,7,26.29-2.26,27.08-31,1.27-17.41,10.77-37,19.07-52.38,3.53,9.17,17.08,23.57,22.78,49.85,2.85,41.8,28.5,39.9,32,23.43,4.08-24.1-.94-47.07-8.55-74.73,8.55,2.54,28.18-4.75,45.6,15.52,17.1,45.28,52.35,24.7,41.26,13-9.5-13.3-2.06-18.05-9-28.36-19.56-29-37-24.84-53.76-49.22-29.77-43.38-40.23-46.26-50-51.61-11.68-6.37-33.6-17.06-43.81-29.52-2.64-1.32,1-12.23-10.17-33.53,30.63-42.58,41.12-81.42,57.91-101.19,29.32-5.84,45.14-40.77,86.88-.22"/>
        <path d="M688.45,527.54c-3.61-14.6,5.63-31.63,19.61-38.16,11.53-5.38,17.67-15.17,32.33-23.07,67.35-36.32,114.44,38.29,42.7,67-18.12,10.82-28,31.45-21.87,43.56,3.4,6.71,29.65-3.41,43.4,13.08-4.44,21.52,24.33,73.31,39.57,82.68-50.25-31.41-7.57,102.54,76,89.43-63.61,8.29-66.77,50-37.25,35.13-9.68,13.69-12.75,35.37-9.36,51.41-31.85,8.75-42.21,3.46-51.34-.2-13.45-5.4-18,2.89-25.22-5-8.13,6-10.55-3.59-15.8-2-64,18.93-124.81,2.44-153.55-21.62-25.48-21.34-45.91-22.6-53.45-47.26-2.82-9.2-11.38-32.58-5.35-49.77,14.74-41.93,12.3-57.3,25-89.27C619.34,569.45,633.35,557.49,688.45,527.54Z"/>
    </g>
    <g class="skinOverlapLine">
        <path d="M185.19,607.44c10.24,25.61,20.43,53.91,30.57,84.65"/>
        <path d="M438.71,115.19a132.57,132.57,0,0,1,6.2,21.4"/>
        <path d="M149.11,227.48c3.47,55.8,27.53,98.41,64.78,118.08"/>
        <path d="M221.41,355.76c16.13,55.2,69.48,40,123.59,158.85"/>
        <path d="M387.67,606.06c-7.62,73.93-61.73,111.27-62.6,203.29"/>
        <path d="M549.15,611.71c-7.35,36.22-19.94,59.31-34.65,79.43"/>
        <path d="M573.82,611.19c-13.12,10.49-25.17,26.73-31.77,27.37"/>
        <path d="M333.25,490.8c5.95,34.83-19.57,112.49,41.29,165.91"/>
        <path d="M368.13,769.19c22.59-16.76,74.34-5.1,88.46,23.14"/>
        <path d="M466.76,825.86c-5.24-5-8.11-9.76-11.94-16"/>
        <path d="M1205.6,472c8.22,25.73,16.08,28.77,33.23,28.59,32.87,1.79,38.31,14.65,52.6,21.08"/>
        <path d="M1269.42,542.7c-25.94-.64-29.88-9.93-46.67-6.36-3.79,31.28-53.24,46.45-76.82,7.15"/>
        <path d="M1247.19,410.89c-.69,11.68-2.34,22.06-6.62,28.86"/>
        <path d="M1280.23,437.15c-4.82,6.39-8.62,13-14.83,18.81"/>
        <path d="M434.53,923.81c-11.47-.17-22.14.61-31.11,3.43"/>
        <path d="M391.7,936.53c-23.78,29.11-21.29,54-28.49,61"/>
        <path d="M458.78,938.25c-7.46,5-16.59,16.6-18,23.55"/>
    </g>
    <g class="skinFoldLine">
        <path d="M1269.82,376c-3.67-.72-6.88-1.8-9-3.71"/>
        <path d="M1314.19,400.93c-3.68-1.31-7-3-8.92-6.54"/>
        <path d="M1334.11,448.92c-3.59-2-6.4-5.35-7.15-8.16"/>
        <path d="M1333.51,483.77a11.92,11.92,0,0,0,.14,9.06"/>
        <path d="M530,964.38c-7.65.77-14.54,2.23-20.09,4.9"/>
        <path d="M469.74,966.34c-8.11-3.64-15.74-5.27-22.55-3.43"/>
        <path d="M780.35,514.72c44.65-19.57,8-70.7-44.09-33.79"/>
        <path d="M751.43,512.07c-11.21-13.87-26.76,10.66-32-3.45-2.25-6.05,15.62-5.21,22.41-15.43,14-21.12,46.54-9.9,26.56,6.34"/>
    </g>
    <g class="skinCreaseLine">
        <path d="M478.19,212.31c35.72,82.37,97.67,118.81,147.24,227.42"/>
        <path d="M1239.75,465.41c5.9,13.14-4.62,24,2.61,36.21"/>
    </g>
    <path class="lizPanties" d="M632,143.81c-41-34.45-99.05-37.65-137.39-48.44C420,74.37,417.46,49,386,39.79c27,19.56,21.18,58-30.37,89.48-82,50-142.2,117.34-141.75,216.29,0,4.24,5.08,11.84,7.52,10.2C221,165.05,460.78,39.79,637,154.14,639.43,152.91,634.23,145.69,632,143.81Z"/>
    <path class="braceletLight" d="M422,907.08c-10.38-14.44-9-35.22,13.25-53.31,23.65-19.21,56.1-23.39,68.86-1.33-16.16-18.69-47.17-5.23-64.6,9.79-15.32,13.19-22.39,28-15.87,42.84C423.1,905.83,422.54,906.5,422,907.08Z"/>
    <g class="head48">
        <g class="hairOverlapLine">
            <path d="M873.61,848.61c3.32,20.51,15.26,20.22,23.1,5.58"/>
            <path d="M829.57,583.49c-1.59-5.52-19.88-34.15-25,6.47"/>
        </g>
        <path class="lipFemaleBrown__noStroke" d="M650.25,791.55c9,24.46-34.24,24-40.73-12.67-5.8-32.75,6.74-31.34,12.92-58.3Z"/>
        <path class="lipFemaleBrown" d="M656.89,808.93c2.9-4.49,11.66-2.78,3.86-11.79-20.09-6.1-33.84-77.47-33.84-77.47,23.92.27,45.09,16.14,38.8,38.67-9.8,35.1,9,38.84,8.77,46.19C674.21,812.25,663,804.78,656.89,808.93Z"/>
        <path class="mouthInner" d="M660.75,797.14c-9.9-10.61-16.61-1-23.28-8.77,4.92-21-28.28-73-10.56-68.7C691.14,737.1,642.36,765.49,660.75,797.14Z"/>
        <path class="tongue" d="M660.65,742.06A111.64,111.64,0,0,1,651,769c-2.51,4.82-7.52,8.1-13.45,9.24-3.29-24.06-26-62.33-10.67-58.6C649.73,725.87,658.28,733.44,660.65,742.06Z"/>
        <g class="teeth">
            <path d="M650.25,791.55c-8.84-18.23-3.45-43.51,7.62-55.36,11.69,16.61-10.5,37.92,2.88,60.95C657.55,796.55,651.5,794.13,650.25,791.55Z"/>
            <path d="M627.89,745.89c-5.72-15.73-10.11-28.44-1-26.22,4,1.1,7.62,2.24,10.8,3.41C632.52,729.28,629.42,737.42,627.89,745.89Z"/>
        </g>
        <g class="lipEdgeLine">
            <path d="M610,751.35c-6,24.79,2.41,51.06,24.7,56.6"/>
            <path d="M668.51,806.18c1.27-2.91-3.17-3.06-7.76-9"/>
            <path d="M638.77,800.26c-2.1-3.33-2.47-7.32-1.3-11.89"/>
        </g>
        <g class="cheekLine">
            <path d="M677.05,821.51c-6.71,2.78-17.49,1.79-24.18-.66"/>
            <path d="M709.88,766.36c-8.77-10.82-21.7-19.49-37.2-38.65-11.52-14.24-47.56-28.41-66.21-21.52"/>
        </g>
        <g class="noseLine">
            <path d="M781.8,809.7c-48.94,19.84-105.34,49-104.85,15,.3-21.3,7.78-21.78,6.49-41.5-1.89-28.84,19.24-24.74,26.44-16.84"/>
        </g>
        <g class="eyeFoldLine">
            <path d="M786.2,842.77c-3-3.15-5.52-10.91-4.75-17.41"/>
            <path d="M750,751.81c-10.38-10.11-9.06-25.58-6.46-38.56"/>
        </g>
        <g class="eyeLashLine">
            <path d="M792.54,819.73c-1.83,9.19,1.71,20,4.51,23.68"/>
            <path d="M757.91,683c4.3,21.71-17.94,34.16,9.33,81.29"/>
        </g>
        <g class="eyebrowBlack">
            <path d="M814,825.38c3.77,8.34,9.75,16.39,15.23,25.68-2.55-.84-4.77-1.79-6.92-2.65a27.16,27.16,0,0,0-6.27-1.73q-2.09-1.95-4.35-3.78C803.13,836.07,809.58,815.7,814,825.38Z"/>
            <path d="M778.33,670.84c36.16,46.74,13.91,83,18.49,108.1,1,5.64-16-5.83-12-21.06C794.19,722.88,798,711.84,778.33,670.84Z"/>
        </g>
    </g>
</svg>
