<svg viewBox="0 0 125.43 418.86">
  <path class="lizJeans" d="M72.32,206.63c-1,10.53-2.73,19.86-5.74,28.56-2.19,11.1.09,16.7-6.16,61.33-1.07,3.79,1.72,4.49-.35,6.65a32.75,32.75,0,0,1-1.42,9.32,1.33,1.33,0,0,1-.18,2.47c0,1.15,1.35,2.81-.66,3.72-1,17.17-2.86,35.18-3.37,53.88-5.06,5.15-14.29,6.19-24.65,5-2.15-21.46-9.82-38.81-5.53-58.13-2.28-1.95.89-2.23-.51-7.92-3.22-2,.42-3.69-.19-5.6-3.59-1.73.47-3-.65-7.47a294.4,294.4,0,0,1-9.47-53.18c-2.52-2.1-.14-3.36-.42-4.2-4.2-10.77-3.36-26.73.28-37.65Z"/>
  <g class="soleLightTan">
    <path d="M82.86,406.57a3.57,3.57,0,0,1-.06,2.28c-1.46,1.51-4.18,2.38-7.34,2.76C67.51,408.36,75.56,407.52,82.86,406.57Z"/>
    <path d="M78,413.62a3.47,3.47,0,0,1-.07,2.27c-3.5,3.65-14.59,3.06-21.25,1.5-5.14-1.2-9.93-3.1-13.79-3.64v3.91c-4.51.13-11.94.17-12.65-.93a22.19,22.19,0,0,1-3.12-9.07Z"/>
  </g>
  <g class="lizShoe">
    <path d="M44.21,379.42c0-3.5,7.13-5.13,10.41-1.85,0,5.92,0,10.16,4.86,14,5.81,4.65,12.25,8.39,19.13,9.72a5.08,5.08,0,0,1,4.25,5.27c-1.55,2-5,3.09-9.39,3.28C56.38,404.17,46.8,393.92,44.21,379.42Z"/>
    <path d="M29.7,384.39c.58,12.93-3.69,16.45-2.63,23.27,4.55,4.76,12.72,2.58,20.93,5.36,13.1,4.44,26.44,5.17,30,.6a5.11,5.11,0,0,0-4.26-5.28c-6.88-1.32-11.93-7-17.75-11.6-4.82-3.85-6.43-9.13-6.39-15.05C44.73,376.88,29.7,378,29.7,384.39Z"/>
  </g>
  <g class="lizJeansCuff">
    <path d="M54.62,377.57c1.18,0,1.06-7.05-.13-7-1.61.91-4.05,1-6,1-.08,1.89-.09,3.86,0,5.93A27.87,27.87,0,0,1,54.62,377.57Z"/>
    <path d="M29.7,384.39c.37-.57,5.52-.52,8.52-.23,1.25-2.19,6.74-2.45,11.33-2.47.89-1.4.43-7.25-1.13-6.9-2.09,1.25-15.45,1.74-18.86.63C27.79,375.45,27.92,384.41,29.7,384.39Z"/>
  </g>
  <g class="lizJacket">
    <path d="M21.37,172c.13,1.78-5.85,2.22-6,.45,2.41-10.37-3.48-11.8-.27-16C11.87,152,16.62,148.7,19,138.67Z"/>
    <path d="M24.54,98.32c17.25-4.71,40.38,8.26,55.86,32,7.94,16.12-3.37,24-3.22,30.94,2.43-.09,5.56-1.49,6-.65,1.31,3.26,2.5,14.14,1.81,18.39.09.87-2.61.6-6.82,1.77,2.12,9.39,3.8,22.71,2.44,26-4.89,5.54-56.9,4.61-69-1.86,4.2-10.12,3.66-22,7.14-25.66-4.34-4.29,1.95-5.24,1.31-10.56C16.9,142.32,16.51,114.38,24.54,98.32Z"/>
  </g>
  <g class="lizJacketLapel">
    <path d="M59.07,106.61a98.45,98.45,0,0,1,12,10C66.87,111,62.64,103.08,55,96.52Z"/>
    <path d="M26.09,89.13c-.71-.33-4.07,7.81-3.37,8.14,3.62,2.25,9.78,4,17,6.45,1.16.21,3.63-1.38,6-2.34.19,2.05-.22,3.73.44,4.64,11.5,4.41,24.49,11.16,34.22,24.27C78.52,120.44,57,100.92,26.09,89.13Z"/>
  </g>
  <g class="clothesDisplayLine">
    <path d="M67,211.6c-3.84,6.7-10.4,11.08-22.31,10.94"/>
    <path d="M32.74,375.92c-.68,1.38-.68,7.26,0,8"/>
    <path d="M35.71,376c-.59,1.21-.73,7.1.2,8"/>
  </g>
  <g class="clothesOverlapLine">
    <path d="M50.2,119.19c.64,5.34-2,11.46-2.39,18.76,2.32,3.23-.72,6-.91,9.55,2.39,2.81-.36,3.18-.46,9.33,1.69,1.18,2.07,4.48,0,5.13.78,1.81,2-.19,2.2,1.49,1.43-1.17,3.76-.39,4.15.71,3-.9,4.59.52,9.9.46,1.2-1.12,4.21-.39,6.84-1,1.06-2.79,4.54-1.88,7.65-2.35"/>
    <path d="M23.07,121.46c-1.05,9.81,1,20.47.53,29.56-.64,12.19.09,26.27,3.76,29.13,6.38,5,31.21,2.94,50.78.59"/>
    <path d="M38.22,384.16c-1.77,2.71-1.54,7.66-1.49,12.41"/>
    <path d="M48.49,371.52c.95-19.68,3.25-37.15,4.32-55,2.85-2.08,0-3,.67-5.73,4.61-19.49,6.24-41.83,8.65-65.71a1.73,1.73,0,0,0,.71-2.73c.89-3.06,2.64-4.36,3.74-7.12"/>
  </g>
  <g class="clothesFoldLine">
    <path d="M21.8,115c-1.82,7.11-2.26,13.11,1,16"/>
    <path d="M15.11,156.48c2.12-.89,2.71-1.56.71-3.08"/>
    <path d="M18.76,179.23c2,1.41,4.51,2.74,1,5"/>
    <path d="M27.11,189.61c5.64,5.94,13.12,8.23,22,7.69"/>
    <path d="M71.87,189.53c-3.09,6.25-7.74,10.7-14.66,12.55"/>
    <path d="M34.48,128.86c5.41,6.19,10.76,6.55,13.33,9.09"/>
    <path d="M42.86,144.46c1.49,1.73,3.19,2,4,3"/>
    <path d="M46.44,156.83c-2.6-.89-6.87-.38-11.18-1.71"/>
    <path d="M46.44,162c-2.95,1.47-7.34,2.57-9.69,7.12"/>
    <path d="M46.08,163.51c-2.35,2.19-4.4,7.5-5.41,4.86"/>
    <path d="M48.64,163.45c-1.78,1.78-4.44,11.29-7.34,11"/>
    <path d="M52.79,164.16c-.82.75-1.07,2.64-2,4.68"/>
    <path d="M62.69,164.62c-1.65,1.91-1.25,5.55-4.78,9.63"/>
    <path d="M69.53,163.58c-.83,1.63-1.51,3.56-2.91,3.93"/>
    <path d="M44.75,118.77c-3.38-3.5-7.33-3.5-6.28-5.64.72-1.45,6.51-.63,10.2,6.9"/>
    <path d="M53.68,117.67a36.78,36.78,0,0,0,10.66,8.39"/>
    <path d="M52,124c2.9,1.26,6.06,2.15,7.52,3.45"/>
    <path d="M55.25,139.91a23.38,23.38,0,0,1-6.58.26"/>
    <path d="M52.43,142.74c-1.84.2-3.3.42-4.42.66"/>
    <path d="M58.31,151.83c-3.29,3-6.8,4.86-10.66,4.94"/>
    <path d="M55.09,157c-2.72,1.91-5.28,3.4-7.44,3.86"/>
    <path d="M70,155.51c2.35,1.1,4.87,1.51,6.58,2.36"/>
    <path d="M74.67,159.28c-.24-.1-7.61-.26-7.6-.16"/>
    <path d="M13.44,245.22a25.69,25.69,0,0,0,10.2,1.59"/>
    <path d="M14.69,242.93c3.9,1.59,9.49,1.86,15.64,1.7"/>
    <path d="M62.13,245a39,39,0,0,1-11.79.82"/>
    <path d="M59.77,243.47a59,59,0,0,1-12.64.14"/>
    <path d="M40.24,235.55c13.38,5.53,27.73,6.28,16.66,1.84"/>
    <path d="M23.56,305.87a25.12,25.12,0,0,0,5.87,1.36"/>
    <path d="M23.75,311.47a27.09,27.09,0,0,0,5.75.95"/>
    <path d="M24.26,319.39a15.86,15.86,0,0,0,5.92,1.09"/>
    <path d="M24.78,304c2,.9,5.45,1.42,9.36,1.78"/>
    <path d="M24.85,309.56a36.1,36.1,0,0,0,9.29,1.16"/>
    <path d="M25.88,317.89a34.82,34.82,0,0,0,9.15,1"/>
    <path d="M52.81,316.48a40.06,40.06,0,0,1-11.7,1.14"/>
    <path d="M51.22,314.61c-1.84.8-4.86,1-7.58.89"/>
    <path d="M60.07,303.17a13.12,13.12,0,0,1-5,.59"/>
    <path d="M58.47,315a13.77,13.77,0,0,1-4.49.26"/>
    <path d="M57.81,318.68a13.94,13.94,0,0,1-5.15.34"/>
    <path d="M58.47,301.7a8.11,8.11,0,0,1-3.11.35"/>
    <path d="M35.91,361.09c1.34,4.51,3.79,8.47,7.26,9.33"/>
  </g>
  <path class="hairBlackDark" d="M83.49,87.37c5.58-26.74-8.66-21.76-12.6-2.21C72.85,88,81.21,90,83.49,87.37Z"/>
  <g class="eye">
    <circle class="sclera" cx="75.69" cy="53.11" r="6.82"/>
    <path class="irisDarkBrown" d="M78.22,57.69c.35.12,1.69-1,2.32-2.7s.3-3.43-.05-3.56A18.91,18.91,0,0,0,78.22,57.69Z"/>
    <path class="pupil" d="M79.68,56.05c.28.1.61-.39.86-1.06s.3-1.27,0-1.37A10.1,10.1,0,0,0,79.68,56.05Z"/>
  </g>
  <path class="teeth" d="M75,76.77c-4.28-1.93-6,1.75-1.67,3.69A11,11,0,0,0,75,76.77Z"/>
  <g class="skinIndian">
    <path d="M26.46,89.34a148.21,148.21,0,0,1,32.61,17.27c-.94-3-1.86-6.81-4.1-10.09-1.82-8.33,5.72-16,10.24-17.8C39.34,45.34,16.41,27,26.46,89.34Z"/>
    <path d="M124.38,149.75c-5.2-1.47-4.67-3.28-11.75-4.05-8.06-.88-7.94-.29-13.74.24-4.81.85-8.5,10.55-15.69,14.77.84,2.21,1.61,7.46,1.87,12a37.6,37.6,0,0,1,6.07-4.07c6.93.71,12.26-2.59,14-7.52-1,4.19,1.81,4.09,2.56,3.2.48-1.15,2.54-1.77,3.39-3.26,6.62,2.47,7.92-3,2.48-5.12.5-1.89.22-3.28-1.15-4.05a1.6,1.6,0,0,0,.79-1.43,28.21,28.21,0,0,1,5.4,1.27C123.32,155.36,126.81,151,124.38,149.75Z"/>
    <path d="M14.28,195.94c1.56-7.33,2-14.09,4.48-16.71-3.25-3.21-.55-4.55.75-7.24a9.24,9.24,0,0,0-4.13.49c-3.72-.49-6.81,1.33-9.33,5.29-1.75-2-3.75.27-4.69,1.47-1.27,1.61-1.9,3.51.62,5.4-.56,2.59-1.33,3.51-.37,5.21a13.88,13.88,0,0,0,3.32,3.76c.93,2.19,1.69,2.26,5.05,1.69C11,196.51,12.47,196.53,14.28,195.94Z"/>
    <path d="M41.9,61.75c-6.57,1.81-6-2.85-8-4.74-30.35-7.47,16.72-36.2,54-27,0,0,5.07,52.53-4.95,43.57-1.59-.16-2.79-1.25-4.38-1.58-.15,1.58.9,3.66.83,4.16-1.15,3.25-3.19.35-7.13,1.23l-.72,1.23c4,1.58,6.29,5.12,3,6.09-3.26,2.16-.38,5.18-3.84,7.42-4.27,2.79-7.49-1.79-10.17-3.24-8.5-4.62-14.84-10-17.41-17.71m37.67-19c-2.57-.1-6.31.51-7.57,1.24a27.91,27.91,0,0,0,6.38,3.29C80.43,55.7,81.22,53.2,80.81,52.09Z"/>
  </g>
  <g class="skinOverlapLine">
    <path d="M113.26,150.49c.26-4.44-4.93-3.48-10.81-4.06"/>
    <path d="M103,151c3.2,0,7.4-.05,9.47.95"/>
    <path d="M105.44,155.62c5.82-.13,7.86.54,5.7,5.47a11.52,11.52,0,0,0,2.48-5.12"/>
    <path d="M107.56,160.62a3.55,3.55,0,0,1-3.72.07"/>
    <path d="M11.59,179.17c-1.52,2.61-1.71,2.84-6.42,1.05a10.72,10.72,0,0,1,.88-2.45"/>
    <path d="M10.65,187.05A20.64,20.64,0,0,1,2,184.64"/>
    <path d="M13.31,190.8C9,194,7.63,195.15,4.93,193.61"/>
    <path d="M10,195.3a22.73,22.73,0,0,0,4.64-1"/>
    <path d="M9.12,187c-3.11,3.63-7.54,1.91-5.93-1.7"/>
  </g>
  <g class="skinFoldLine">
    <path d="M4.72,190.55a4.94,4.94,0,0,0,1.37,2.86"/>
    <path d="M41.56,46.89c1.74-10-15.11-3.41-6.29,8.27"/>
    <path d="M41,49.72C38.61,51,42.9,55.66,40,56.27c-1.55.33-.28-2.91-2.6-4.36-4.29-2.68,0-9,2-5.37"/>
  </g>
  <path class="skinEdgeLine" d="M97.73,147.13c.14,1.06,1.22,1.5,1,3.06-.32,2.52,1.29,2,1.13,4.62-.11,1.72,1,1.87.81,3.54"/>
  <g class="lipFemaleBrown">
    <path d="M72.69,76.69l-.44.66h0c3.94-.88,6,2,7.13-1.23C77.15,76.53,74.53,76.29,72.69,76.69Z"/>
    <path d="M71.53,78.58a9.89,9.89,0,0,0,3,6.09C77.82,83.7,75.51,80.16,71.53,78.58Z"/>
  </g>
  <path class="cheekLine" d="M70.79,80.17c2.07-5.3,6.35-7,6.11-13"/>
  <path class="noseLine" d="M81.74,71.93c-2-.82-3.85.65-5.37-1.05"/>
  <g class="eyeLidLine">
    <path d="M80.81,52.09c2.08,0,1.1-2.41,1.1-2.41"/>
    <path d="M79.62,56.62c.55.5.68,3.28-3.28,1.21"/>
  </g>
  <path class="eyeCornerLine" d="M73.24,53.33a3.91,3.91,0,0,1-1.78-.27"/>
  <path class="eyeCreaseLine" d="M74.31,51.34a20.24,20.24,0,0,1,7.82-.72"/>
  <path class="hairBlack" d="M91.57,59.19c-4-14.72,8-18.78-.83-35C81,3.22,49.87-4,41.62,2.68c-8.3-3.41-16.39,2.75-22.26,8.61C11.45,19.21,6.92,20.65,5.42,36,4.7,46.65,0,57.26,2.85,68.22c1.83,7.36,11.54,20.65,12.38,14C22.82,92,30,94.32,27.68,89.63,39.26,100.29,50.14,100,44.75,94.06,33.87,80.2,31.14,68,33.89,57,23,42.39,42.89,32.47,44.15,45.2c4.56,4,8.8,6.3,9.35,2.71.82-5.35,1.43-4.46,4-6.64a24.81,24.81,0,0,0,16.7-2c-6.58,7,7.3,2.7,11.5-6.61-.88,4.07-.68,7.61.84,10.8-.52,8.28-5,9.82-3.2,15.71,2.06,6.71,5.34,15-.44,14.37.75,5.14-.26,11.9-4.08,20.38C75.6,101.14,88.6,94,90.19,83,95,88.2,95,71.88,91.57,59.19Z"/>
  <g class="hairOverlapLine">
    <path d="M86.57,43.46c2.05,2,4,.13,4.18-1.92"/>
    <path d="M57.53,41.27c-4.55-.71-4.27-2.14-.72-3"/>
  </g>
  <path class="eyebrowBlack" d="M71.46,47.86c2.9-2.76,9.54-3,12.13-1.44.84.52-.37,2-1.29,1.59A12.17,12.17,0,0,0,71.46,47.86Z"/>
</svg>
