<svg viewBox="0 0 161.71 419.69">
  <path class="lizJeans" d="M99.11,202c1.17,8.57,2.14,16.76,1.48,24.42-.47,5.44,3.59,5.64,0,8.88,2.36,24.14.88,48.35-2.71,72.85-.8,5.45-1.07,8.91-2.89,14.6-.76,2.36-4.55,22.56-13,50-6.18,1.79-11.82.91-17.51-3,2.76-18.61-1.05-43.12,4.25-55.48-2.4-2.2,1.25-2.44,1-6.41-2.59-2.44,1.47-2.58-.35-8a152.39,152.39,0,0,1-4.65-15,225.93,225.93,0,0,1-3.25,24.62c-.53,2.9,2.61,5.34-.81,6.62-.66,16.32-2.72,38.43-4.41,59.19H39.05c-2.7-21.51-11-40.46-5.81-65.23-2.35-2.71,1.19-1.58.7-4.87-3.84-1.69-.53-2.76-1.51-7-8.61-37-13.11-76.4-7.4-100.19Z"/>
  <g class="lizJeansCuff">
    <path d="M64.7,367.91c-2.63-.64-4.37,9.21-2.64,9.91,9.09,6,14.88,4.65,19.21,0,1.7.29,2.86-6.27,1.15-6.57C79,373.22,67.6,371.54,64.7,367.91Z"/>
    <path d="M56.38,373.56c-3.73,1-14.34,1.14-17.6-.24-2-.08-2.57,9.55-.82,10,6.32,5.18,13.84,1.31,19.14-3C58.19,379.85,58.43,373.92,56.38,373.56Z"/>
  </g>
  <g class="soleLightTan">
    <path d="M90.53,410.08a4.89,4.89,0,0,1-1,2.79c-3.15,2.51-16.47,3-19.62.91C67.33,406.88,78.92,408.63,90.53,410.08Z"/>
    <path d="M71.45,413.48a13.6,13.6,0,0,1-.83,3.36c-2.13,3.54-25.93,3.87-29.19-1.55a3.78,3.78,0,0,1-2.76-1.19c-1.26-2.28-1.85-5.6-2.17-9.17Z"/>
  </g>
  <g class="lizShoe">
    <path d="M62.06,377.82a2.91,2.91,0,0,0,1.92.74c1.45-6.95,8.82,3.24,17.29-.74-.09,3-.88,6.4-.22,7.25,3.8,4.87,1.87,12.9,5.23,17.5,4.38,1.42,5.87,4.09,4.25,7.51a29.15,29.15,0,0,1-20.36.82c-7.19-5.34-12.52-11.11-12.38-18.14C59.14,387.13,62.19,385.69,62.06,377.82Z"/>
    <path d="M38,383.29a4.56,4.56,0,0,0,2.71.5c.73-6.61,7.49.36,16.43-3.47-.73,8.94,1.52,11.78,3,15.48,2.15,5.46,3.09,5.87,5.17,8.67,2.2,3,7.19,2.63,6.21,9-1.72,4-23.26,3.75-28.62-.6-2.24-1.82-4.08-4.9-6.33-7.95C35.07,399.94,38.58,392.49,38,383.29Z"/>
  </g>
  <path class="hairBlack" d="M47.78,85.22l27.21-2c-3.23,10.15,9.83,7.75,13.58-.65,1,4.67,7-1.89,8.17-13.33,3.12,5.93,4.93-8-5.06-25.91-4-8.22-2.39-14.8-6.82-23.33-2.61-5-8.88-8.8-11-11.19C66.16.35,39.61-4.44,31.28,7,20,3.37,16,18.29,9.51,27.24,1.35,38.51,5.67,46.35,1.76,56.75c-5.9,15.68,7.31,34.88,8.15,27.52C18.7,95.38,34.08,98,27.73,91.07c10.93,1.52,18.59-.39,13.93-2.93C50.06,88.45,51,86.89,47.78,85.22Z"/>
  <path class="skinIndian" d="M127.22,177.73c-8.44-2.94-23.26-.62-40.62-10l6.65-60.52c2.59,6.2,7.53,36.87,8.63,43.64,8.5,5.09,11.45,11.52,23.55,15.21,2.55.77,3.61-4.46,9.16-8,3.65-2.34,6.22-7,8.17-7.64,1.48-.53,7.21-.27,10.16,1.65,6.17,1.21,4.89,4.19,7.87,5.92,1.61.94,0,3.31-1.57,3.57.8,1.37.74,3,2,4.06,1.3,2.35-5,5.21-6.6-1.65-3.57-2.35-3.57-.09-8.05,1.34,3.61.75,7.44-.56,10.74,5,1.74,1.91-1.39,6-4.87,1.65-2.78-1.73-3-.52-4.52-.43C137.81,182.43,129.75,178.61,127.22,177.73Z"/>
  <path class="lizShirt" d="M70.21,88.29c11.15,7.49,22.64,5.91,26.65,26.32a10.69,10.69,0,0,1-3.74,3.46c7.62,10.58,14,16.33,1.8,29.77.28,1.46.19,2.75-.83,3.6.39,7.84,2,16.06.42,20.09.42,2.61,2.87,4.85,1,8.44-.5,3.53,3.78,3.33,1.8,6.93-.41,3.67,2.49,11.46,3.18,16.48-7.2,1.66-12.11,9-22.3,9.42-23.26,4.57-32.68-12.88-54.84-12.75,3.33-5.53,1-7.4,1.53-11.35.32-2.47,3.46-4.43,4.29-7.9-2.77-4.84.28-6.92,1.11-9.55-3.88-3.6-2.15-5.72-3.05-10.11a293.72,293.72,0,0,1-5-33.65c-10.52-15.93-1.81-28.12,16.33-34.9Z"/>
  <g class="lizShirtCollar">
    <path d="M70.44,94.45a91,91,0,0,1,5.37,7.48c-.13-4.1-.34-7.84-2-9.8C72.93,91.29,70.44,93.71,70.44,94.45Z"/>
    <path d="M44.07,84.1c-3.49,1.05-4.38,5.1-6.25,7.46-1.33,1.67,3.81,7.13,6.9,12.08,3.48-4.06,7.58-7.91,11.57-8.21,3,1.92,7.18,4.16,9.27,6.78,1.53-2.62,5.74-10.63,8.21-10.08A31.23,31.23,0,0,0,66.32,83Z"/>
  </g>
  <g class="clothesDisplayLine">
    <path d="M75.08,213.29c-.11,11.93-1.57,22.56-6.33,26.36"/>
    <path d="M82.2,212.22c.31,6.77-.66,9.58-1.08,13.91-.39,4-2.54,6.55-8.22,6.32"/>
    <path d="M53.79,209.66c-4.41,3.72-13.14,5.47-22.2,4.2"/>
    <path d="M88.68,209.57c2.43,2.93,5.57,5.35,8.79,5.91"/>
    <path d="M66.6,369.46c-.75.51-2.5,6.76-2.12,7.66"/>
    <path d="M65.08,368.33c-1.27,1.23-2.94,8.1-2.63,9.74"/>
    <path d="M39.93,373.68c-1.11,1.21-1.11,9-.2,10.11"/>
    <path d="M38.78,373.32c-1.17,1.61-1.28,8.54-.4,10.19"/>
  </g>
  <g class="clothesOverlapLine">
    <path d="M86.28,402.57A16.54,16.54,0,0,0,73.82,404"/>
    <path d="M64,378.56a104.94,104.94,0,0,0-1.91,11"/>
    <path d="M40.67,383.79a44.78,44.78,0,0,0,0,10.18"/>
    <path d="M65.56,102.21c5.81,17.17,19.35,23.26,13.09,44.07-2.47,8.21,2,27.07-.45,40.17-1.13,6.08,1.15,16.63,0,26.35"/>
    <path d="M64.71,284.85c1.8-12.08,3.09-28.05,4-45.2"/>
  </g>
  <g class="clothesFoldLine">
    <path d="M30.59,103.53c5.24,1.45,8.77,4.34,9.44,9.57a14.54,14.54,0,0,0-8-5.5"/>
    <path d="M42.17,105.79c3,4.54,5.09,9.33,5.43,14.56"/>
    <path d="M50.4,116.83"/>
    <path d="M47.41,110.32"/>
    <path d="M85.58,113.75c2.69.18,5.19,1.68,7.54,4.32-.84-3.75-4.4-5.94-9.89-7"/>
    <path d="M89.47,106.06a18.77,18.77,0,0,1-.28,7"/>
    <path d="M91.1,110.32a5.15,5.15,0,0,1-.95,3.4"/>
    <path d="M47.41,110.32a26.28,26.28,0,0,1,3,6.51"/>
    <path d="M73.82,110.23c-1,.1-2.84.7-4.26.81"/>
    <path d="M77.26,112c-2.28-.21-5,.07-7.14,0"/>
    <path d="M82.69,124.7a33.19,33.19,0,0,1-4.61,1.21"/>
    <path d="M85.85,126.87c-1.93,0-4.39.23-7.17.55"/>
    <path d="M83.77,129.2a33.91,33.91,0,0,1-4.51,0"/>
    <path d="M84.86,143.24a41.28,41.28,0,0,0-5.52.48"/>
    <path d="M86.39,146a66.15,66.15,0,0,1-7.45-.67"/>
    <path d="M87.06,159.67a25.64,25.64,0,0,1-6.83,1.1"/>
    <path d="M86,162.92a35.55,35.55,0,0,1-6.17-.22"/>
    <path d="M76.38,161.93c-1.82,0-5.84.49-7.44.16"/>
    <path d="M76.79,145c-2.09.12-4.21.31-6.33.55"/>
    <path d="M74.92,143.59q-3.18-.27-6.44-.39"/>
    <path d="M74.31,125.9a47.89,47.89,0,0,1-5-.11"/>
    <path d="M76.46,127.72a69.28,69.28,0,0,1-7.71.44"/>
    <path d="M75.42,129.31c-1.6.23-3.7,1.19-4.69,1"/>
    <path d="M43.54,146.71a20.36,20.36,0,0,1-6.8,1.82"/>
    <path d="M45.64,148.38a18.66,18.66,0,0,1-5.5,1.8"/>
    <path d="M29.59,161.1c1.53,6.25,3.61,7.5,7.27,9.51"/>
    <path d="M30.25,171.25c6.33,6.19,19,9,4.25,8.31"/>
    <path d="M29.14,180.8c1.27,1.42,1.83,2.91-.53,4.74"/>
    <path d="M31,187.42c2.53-2.4,5.47,0,8.41,2.44"/>
    <path d="M94.92,147.84a13.11,13.11,0,0,1-4.56,1.29"/>
    <path d="M94.09,151.44a4.35,4.35,0,0,1-3.09,1"/>
    <path d="M94.51,171.53c-1,2.68-3.06,4.32-1,4.95"/>
    <path d="M95.48,180c-2,3.49-7.69,5.65-2.21,7.14"/>
    <path d="M99.36,231.83a29.68,29.68,0,0,0-10.93-.1"/>
    <path d="M94.17,235.29c-3.37-.46-13.75-.82-17.21-.1"/>
    <path d="M73.77,237.29a21.33,21.33,0,0,1,9.29,4.28"/>
    <path d="M64.48,234.47a141.06,141.06,0,0,0-26.68,1"/>
    <path d="M66.48,237.2a17.86,17.86,0,0,0-7.92,2.91"/>
    <path d="M69.71,307.85a33,33,0,0,0,9.71,3.94"/>
    <path d="M68.7,314.26a39.39,39.39,0,0,0,20.55,5.45"/>
    <path d="M60.65,316.09c-6.31,1.2-13.64.86-21.76-.66"/>
    <path d="M33.94,305.18a31.87,31.87,0,0,0,8.23,1.6"/>
    <path d="M72.4,306.78a23.36,23.36,0,0,0,9.66,3.37"/>
    <path d="M76,315.06c4.37,1.92,9.63,2.6,15.48,2.46"/>
    <path d="M35,302.68c2.47,1.4,7,2,12.3,2.28"/>
    <path d="M38.62,312.79a53.48,53.48,0,0,0,16,1.36"/>
    <path d="M34.49,307.94a4.76,4.76,0,0,0,2.92.76"/>
    <path d="M41.94,364.24c3.36,4.35,7.13,7,11.87,5.74"/>
  </g>
  <g class="hairOverlapLine">
    <path d="M35.59,44.55c-2.38.22-2.69-1.49-1-3a18.21,18.21,0,0,1-5.1,1.81"/>
    <path d="M80.83,33.52c3.28-.84,4.77-3.61,1.53-3.91"/>
  </g>
  <g class="eye">
    <ellipse class="sclera" cx="64.77" cy="52.62" rx="19.11" ry="14.21"/>
    <g class="irisDarkBrown">
      <ellipse cx="54.63" cy="54.27" rx="3.23" ry="3.39" transform="translate(-7.56 8.87) rotate(-8.68)"/>
      <ellipse cx="76.15" cy="48.42" rx="3.23" ry="3.39" transform="translate(-6.44 12.05) rotate(-8.68)"/>
    </g>
    <g class="pupil">
      <ellipse cx="54.85" cy="54.16" rx="1.26" ry="1.32" transform="translate(-7.55 8.9) rotate(-8.68)"/>
      <ellipse cx="76.36" cy="48.31" rx="1.26" ry="1.32" transform="matrix(0.99, -0.15, 0.15, 0.99, -6.42, 12.08)"/>
    </g>
  </g>
  <g class="skinIndian">
    <path d="M68,85.06c-.87,3.76,2.24,5.76-2.4,17.15-6.32-7.91-15.62-8.86-22.14-16.49"/>
    <path d="M35.55,69.24c-4.21,4.49-7.45-.62-8.36-1.61C14.78,54.18,25.39,42.83,30.76,53c3.24,2.31,4.57,1,3.49-2.29-.6-2.62.74-3.6,1.34-6.14C40,43.94,43.41,43,46.9,38.63c-2.19,6.34,8,2.55,6.21-9.14,2.57,13.12,22,8.5,14.15,4.22,4.29,1.5,8.9,1.12,13.57-.19,3.27,7.58,1.09,8.68,2.44,12.73,3.94,11.85,3.81,21.57-2.78,30.45-2,2.72-3.57,7-8.19,8.33a16.86,16.86,0,0,1-8.43.22C50.29,83.06,40.86,81,35.55,69.24ZM59.54,52c-2.94,0-3.82-.79-5.83-.33-2.78.63-5.6,1.51-6.8,1.87,2,.27,4.87,1.82,8.06,1.29,3.69-.62,3.54-1.18,4.22-1.53C59.59,53,60.65,51.94,59.54,52ZM72,49.2c1.4-.36,1.93.39,4.55-.31,1.63-.44,3.73-2.13,3.48-3.93-1.66.45-2.28.32-4.41.71-2.39.43-3,1.26-4.42,3C70.52,49.57,71.56,49.31,72,49.2Z"/>
    <path d="M63.32,90.23c1.05,23.19,9.27,49.74-8.22,61.33-5.27,3.49-19.31-12-30.67-23.49-6.7-6.8.63-19,15.6-15,2.65,1.49,5.79,5.8,8.95,8.54C51.2,116,52.67,104,52.7,92.54c-.07-2.72-12.53-7.42-13.87-11.15-1.17-2.89-3-6.41-4.11-9.75s-1-7.71-2.23-9.52c-.69-1.19,1-3,2.65-1.82-.48-1.47-.24-2.44-1.06-4-.3-2.67,3.3-2.62,4.9.05-1-5,4.77-5,5.4.72,3.17-1,4.33,1.61,4.54,4.81a15.8,15.8,0,0,0,5.87,7.42C61.93,73.22,67.05,82.28,63.32,90.23Z"/>
  </g>
  <g class="skinFoldLine">
    <path d="M30.09,56.59c-3.66-9.94-10.57-.49-3.09,7"/>
    <path d="M30.73,59c-1.25,2,3.33,5,1.32,5.77-.88.35-1.48-2.48-2.45-2.92-3.08-1.4-3.35-6.85-1.39-5.36"/>
  </g>
  <g class="skinOverlapLine">
    <path d="M49,121.64c-1.95,5.11-4.28,10.77-4.42,15.12"/>
    <path d="M101.88,150.83c-1.55-.39-3.9-.42-5.08.68"/>
    <path d="M44.38,57c-1.67.32.21,10,5.06,14.25"/>
    <path d="M39,56.31c.69,1.88-.6,6.43,5.68,17.81"/>
    <path d="M35.14,60.3c.65,5.4,2.93,12.23,5.91,16"/>
    <path d="M152.92,152c1.29.61.89,2.19,2.23,2.9,1.9,2.52-3.29,4.35-5.9.7a4.1,4.1,0,0,1-3.71-.39,35.58,35.58,0,0,1-4.65,5"/>
    <path d="M144.52,162.09c4.88-2.05,2.44-4.26,8.66-4.42,1.66,2.6,3.94,4.26,6,3.84"/>
    <path d="M152.4,171.91a2.51,2.51,0,0,1,.23-2.73"/>
    <path d="M136.18,166c1.75.2,4.22-.23,5.84.24s1.81,1.43,5.3,2.64c2,.54-.58,6-7.85,2.35-2.16,3.76-5.17,6-10.26,4.56"/>
    <path d="M135,171.56c1.86-.11,2.2-1.33,4.47-.35"/>
    <path d="M149.25,155.62a4.38,4.38,0,0,1-.7-2.2"/>
    <path d="M154.58,163.92a2.61,2.61,0,0,1,.75-1.82"/>
  </g>
  <path class="skinEdgeLine" d="M53.09,73.73c-.77,1-2.33,1.29-3,2.33-1.21,1.92-3,1.36-4.53,3.43s-3.37.32-5.05,2.39"/>
  <path class="lipFemaleBrown__noStroke" d="M59.6,71.72c3.34-1.1,6.51,1.6,10.45.82s4.84-3.38,7.57-5c-1.91,3.6.14,7.65-6.58,9C65.05,77.85,63.76,72.67,59.6,71.72Z"/>
  <path class="lipFemaleBrown" d="M59.6,71.72c3.34-1.1,6.51,1.6,10.45.82s4.84-3.38,7.57-5c-2.52.78-3.93,3.24-7.89,3.91C66.31,72,62.81,70.09,59.6,71.72Z"/>
  <path class="lipEdgeLine" d="M76.2,72.68c-.77,3.41-7,5.73-10.77,2.89"/>
  <g class="cheekLine">
    <path d="M75.63,61.89a6.9,6.9,0,0,1,3.15,2.93"/>
    <path d="M63,63.84c-1.46,1.44-.85,2.25-2.46,4.1S58.26,69.82,57.43,71"/>
  </g>
  <g class="noseLine">
    <path d="M69.94,52.81c3.45,8.37,8.08,8.57,4.61,12-1.38,1.38-1.2,2.13-3.37,2.83-1.53.49-3-.68-5.69-.47A2.41,2.41,0,0,1,63,63.84"/>
  </g>
  <g class="eyeFoldLine">
    <path d="M80.13,49c-.95,1.4-3.59,2.9-5.65,2.31"/>
    <path d="M58.46,55.65c-2.25,2.32-5.3,2-11.14-.13"/>
  </g>
  <g class="eyeCornerLine">
    <path d="M80,45a1.76,1.76,0,0,0,.93-.45"/>
    <path d="M43.52,53.25a8.73,8.73,0,0,0,3.39.24"/>
  </g>
  <g class="eyeCreaseLine">
    <path d="M71,46.82c2.65-3.25,6.26-1.83,9.61-3.56"/>
    <path d="M46.63,52.26c3.43-.67,6.59-3.64,11.57-2.32"/>
  </g>
  <g class="eyebrowBlack">
    <path d="M82.21,39.12c-5.78-3.19-9,.44-12.62.64-1.67.08.83,2.71,2.67,1.52C75.57,39.14,78.33,37.82,82.21,39.12Z"/>
    <path d="M43.52,49.15c5.29-6.6,12.71-5.27,16.16-7.32.77-.46.38,2.72-2.08,3C51.93,45.31,49,44.58,43.52,49.15Z"/>
  </g>
</svg>
