<svg id="presence" xmlns="http://www.w3.org/2000/svg" viewBox="0 0 722.37 2220.45">
  <defs>
    <style>
      .cls-1 {
        fill: none;
        stroke: #000;
        stroke-miterlimit: 10;
        stroke-width: 2px;
      }
    </style>
  </defs>
  <title>openingDoor</title>
  <path id="lizJeans" class="cls-1" d="M527.72,812.55c7.63,55.63,13.91,108.85,9.6,158.55-3.06,35.3,23.29,36.61,0,57.65,15.31,156.7,5.7,313.87-17.6,473-5.18,35.34-6.92,57.8-18.76,94.75-4.9,15.32-29.52,141.46-84.57,319.79-40.1,11.6-76.73,5.92-113.67-19.44,17.92-120.85-6.82-275,27.59-355.19-15.58-14.31,8.11-15.86,6.54-41.64-16.8-15.83,9.52-16.73-2.26-52-10.67-31.92-22.65-63.65-30.16-97.26a1492.07,1492.07,0,0,1-21.11,159.84c-3.49,18.78,16.95,34.64-5.28,43-4.3,105.9-17.67,244.49-28.65,379.25H137.8c-17.55-139.68-71.63-257.67-37.7-418.46-15.25-17.61,7.71-10.3,4.52-31.66-24.93-11-3.44-17.92-9.8-45.24-55.89-240.25-85.12-496-48-650.43Z"/>
  <g id="lizJeansCuff">
    <path class="cls-1" d="M304.34,1884.94c-17.07-4.18-28.4,59.79-17.17,64.27,59,39.19,96.62,30.24,124.71,0,11.08,2,18.57-40.7,7.48-42.64C396.85,1919.39,323.15,1908.45,304.34,1884.94Z"/>
    <path class="cls-1" d="M250.3,1921.6c-24.23,6.75-93.05,7.38-114.21-1.59-12.93-.5-16.72,62-5.38,64.76,41.08,33.62,89.86,8.5,124.27-19.28C262.06,1962.44,263.64,1923.93,250.3,1921.6Z"/>
  </g>
  <g id="clothesDisplayLine">
    <path class="cls-1" d="M371.73,886.09c-.75,77.51-10.21,146.5-41.07,171.16"/>
    <path class="cls-1" d="M417.91,879.2c2.06,43.9-4.26,62.16-7,90.29-2.5,25.66-16.46,42.52-53.35,41"/>
    <path class="cls-1" d="M233.52,862.54c-28.66,24.13-85.3,35.55-144.13,27.26"/>
    <path class="cls-1" d="M460,862c15.78,19,36.15,34.73,57.07,38.37"/>
    <path class="cls-1" d="M316.69,1895c-4.92,3.35-16.27,43.89-13.76,49.78"/>
    <path class="cls-1" d="M306.77,1887.61c-8.25,8-19.06,52.58-17.06,63.26"/>
    <path class="cls-1" d="M143.52,1922.35c-7.18,7.9-7.18,58.72-1.28,65.64"/>
    <path class="cls-1" d="M136.09,1920c-7.61,10.49-8.31,55.49-2.63,66.17"/>
  </g>
  <g id="clothesOverlapLine">
    <path class="cls-1" d="M304.43,1350.7c11.66-78.44,20-182.12,26.23-293.45"/>
  </g>
  <g id="clothesFoldLine">
    <path class="cls-1" d="M529.35,1006.45c-22.56-4.75-46.3-4.55-71-.59"/>
    <path class="cls-1" d="M495.65,1028.92c-21.88-3-89.28-5.33-111.75-.6"/>
    <path class="cls-1" d="M363.21,1041.92c20.64,3.52,40.73,12.94,60.31,27.79"/>
    <path class="cls-1" d="M302.9,1023.59c-52.81-3.82-111.16-.92-173.23,6.51"/>
    <path class="cls-1" d="M315.91,1041.33c-20.38,2.67-37.31,9.22-51.44,18.92"/>
    <path class="cls-1" d="M336.85,1500c17.66,11.58,39.44,19.4,63,25.56"/>
    <path class="cls-1" d="M330.31,1541.63c35.27,22,89.07,37.13,133.41,35.36"/>
    <path class="cls-1" d="M278,1553.52c-41,7.76-88.54,5.57-141.27-4.32"/>
    <path class="cls-1" d="M104.62,1482.65c16.5,5.94,34.59,8.88,53.43,10.38"/>
    <path class="cls-1" d="M354.34,1493c17.54,11.51,38.66,18.51,62.67,21.88"/>
    <path class="cls-1" d="M377.4,1546.83c28.37,12.44,62.54,16.84,100.51,16"/>
    <path class="cls-1" d="M111.34,1466.43c16,9.07,45.56,12.84,79.82,14.78"/>
    <path class="cls-1" d="M135,1532.05c30,8.36,65.54,10.35,104.06,8.87"/>
    <path class="cls-1" d="M108.2,1500.62c5,3.57,11.45,5,19,4.89"/>
    <path class="cls-1" d="M156.54,1861.05c21.82,28.25,46.32,45.62,77.11,37.33"/>
  </g>
  <g id="lizSoleSide">
    <path class="cls-1" d="M472,2158.65c1.21.4-2.66,15.45-6.39,18.11-20.51,16.34-107,19.34-127.4,5.94C321.4,2137.88,396.66,2149.24,472,2158.65Z"/>
    <path class="cls-1" d="M348.12,2180.74s-2.18,16.61-5.33,21.84c-13.84,23-168.39,25.09-189.5-10-8.16-.1-15-4.13-18-7.76-8.16-14.77-12-36.34-14.08-59.55Z"/>
  </g>
  <g id="lizShoe">
    <path class="cls-1" d="M287.17,1949.21c3.17,3.07,7.44,4.52,12.47,4.85,9.41-45.11,57.25,21,112.24-4.85-.54,19.64-5.71,41.58-1.39,47.12,24.66,31.58,12.13,83.75,33.95,113.62,28.41,9.18,38.07,26.53,27.57,48.7-42,18.66-92.57,18.66-132.18,5.33-46.65-34.65-81.27-72.1-80.37-117.77C268.21,2009.68,288,2000.35,287.17,1949.21Z"/>
    <path class="cls-1" d="M130.71,1984.77c4.4,2.82,10.68,3.61,17.62,3.22,4.73-42.9,48.63,2.38,106.65-22.5-4.74,58,9.89,76.47,19.31,100.46,13.93,35.44,20,38.15,33.55,56.33,14.31,19.25,46.7,17,40.28,58.46-11.14,25.78-151,24.35-185.78-3.88-14.55-11.79-26.45-31.84-41.1-51.64C112,2092.83,134.75,2044.48,130.71,1984.77Z"/>
  </g>
  <path id="lizShirt" class="cls-1" d="M335.1,74.64c72.37,48.62,152,38.38,178,170.82-5.05,8.55-13.52,15.91-24.28,22.48,49.43,68.7,91.05,106,11.69,193.3,1.83,9.48,1.21,17.82-5.39,23.38,2.5,50.87,12.73,104.21,2.7,130.36,2.78,17,18.63,31.5,6.29,54.85-3.19,22.88,24.56,21.57,11.69,44.95-2.65,23.86,16.18,74.4,20.68,107-46.76,10.79-78.63,58.15-144.76,61.14-151,29.67-212.18-83.61-356-82.71,21.58-36,6.56-48.06,9.89-73.73,2.08-16,22.48-28.77,27.87-51.25-18-31.46,1.8-45,7.19-62-25.17-23.38-13.91-37.13-19.78-65.64C48.3,486.42,35.71,411.79,28.52,329.08c-68.33-103.4-1.8-182.52,116-226.57Z"/>
  <g id="lizShirtCollar">
    <path class="cls-1" d="M337.75,115.28c8.79,10.6,20.69,28,33.72,47.92-.85-26.67-2.2-50.92-13.27-63.64C352,98.17,344.79,105.19,337.75,115.28Z"/>
    <path class="cls-1" d="M180.38,47.39C157.75,54.24,152,80.56,139.85,95.82c-8.64,10.89,24.74,46.33,44.74,78.44,22.64-26.32,49.24-51.36,75.16-53.27,19.7,12.46,36.59,27,50.19,44,9.9-17,32.25-69,48.26-65.42-13.46-23.41-28.15-42.74-48.32-59Z"/>
  </g>
  <g id="clothesOverlapLine-2" data-name="clothesOverlapLine">
    <path class="cls-1" d="M444.44,2110c-26.49-8-60.12-3.87-80.9,9"/>
    <path class="cls-1" d="M299.64,1954.06a679.32,679.32,0,0,0-12.37,71.57"/>
    <path class="cls-1" d="M148.33,1988c-2.7,21.77-2.08,35.31.21,66.07"/>
    <path class="cls-1" d="M309.94,165c37.71,111.49,125.57,151,84.94,286.11-16,53.32,12.79,175.74-2.93,260.77-7.29,39.48,7.49,107.95-.21,171"/>
  </g>
  <g id="clothesFoldLine-2" data-name="clothesFoldLine">
    <path class="cls-1" d="M82.88,173.57c34.05,9.4,57,28.19,61.28,62.12-14.9-19.25-32.67-31-51.89-35.7"/>
    <path class="cls-1" d="M158,188.25c19.7,29.44,33.08,60.52,35.27,94.48"/>
    <path class="cls-1" d="M211.48,259.89"/>
    <path class="cls-1" d="M192.09,217.61"/>
    <path class="cls-1" d="M439.89,239.92c17.45,1.12,33.71,10.88,48.95,28-5.47-24.31-28.56-38.56-64.22-45.63"/>
    <path class="cls-1" d="M465.13,190c2.12,17.28,1.71,32.66-1.8,45.68"/>
    <path class="cls-1" d="M475.7,217.61a33.62,33.62,0,0,1-6.15,22.12"/>
    <path class="cls-1" d="M192.09,217.61a172.06,172.06,0,0,1,19.39,42.28"/>
    <path class="cls-1" d="M363.55,217c-6.66.67-18.45,4.6-27.67,5.29"/>
    <path class="cls-1" d="M385.86,228.67c-14.81-1.39-32.54.46-46.36,0"/>
    <path class="cls-1" d="M421.1,311c-6.16,3-18.45,5-29.88,7.85"/>
    <path class="cls-1" d="M441.65,325.06c-12.54.19-28.51,1.53-46.56,3.59"/>
    <path class="cls-1" d="M428.14,340.19c-8.78,1.22-19.41.12-29.27,0"/>
    <path class="cls-1" d="M435.19,431.38a271.08,271.08,0,0,0-35.84,3.1"/>
    <path class="cls-1" d="M445.17,449a436.12,436.12,0,0,1-48.42-4.34"/>
    <path class="cls-1" d="M449.49,538c-15.32,4.45-30.15,7-44.33,7.15"/>
    <path class="cls-1" d="M442.34,559.1c-14.65.45-28.49.32-40-1.43"/>
    <path class="cls-1" d="M380.13,552.67c-11.8.35-37.89,3.21-48.26,1.07"/>
    <path class="cls-1" d="M382.84,442.91c-13.61.8-27.33,2-41.11,3.58"/>
    <path class="cls-1" d="M370.69,433.62c-13.76-1.18-27.72-2-41.83-2.5"/>
    <path class="cls-1" d="M366.75,318.79c-2,.29-33.16,0-32.18-.72"/>
    <path class="cls-1" d="M380.69,330.59c-17.29,1-35.39,3.93-50.05,2.86"/>
    <path class="cls-1" d="M373.9,341c-10.37,1.43-24,7.69-30.39,6.44"/>
    <path class="cls-1" d="M167,453.88c-15.14,6.8-29.85,10.69-44.14,11.81"/>
    <path class="cls-1" d="M180.62,464.71a121,121,0,0,1-35.73,11.69"/>
    <path class="cls-1" d="M76.4,547.3C86.35,587.86,99.87,596,123.59,609"/>
    <path class="cls-1" d="M80.66,613.19c41.14,40.21,123.14,58.53,27.62,54"/>
    <path class="cls-1" d="M73.47,675.22c8.26,9.18,11.87,18.88-3.44,30.72"/>
    <path class="cls-1" d="M85.58,718.19c16.42-15.63,35.47-.27,54.58,15.81"/>
    <path class="cls-1" d="M500.53,461.24c-10.45,4.8-20.38,7.8-29.6,8.34"/>
    <path class="cls-1" d="M495.14,484.62a28.5,28.5,0,0,1-20.08,6.2"/>
    <path class="cls-1" d="M497.84,615c-6.26,17.43-19.83,28-6.26,32.18"/>
    <path class="cls-1" d="M504.13,669.83c-12.91,22.63-49.9,36.63-14.32,46.36"/>
  </g>
  <g id="skinIndian">
    <path class="cls-1" d="M507.67,252.85a82.42,82.42,0,0,1-18.83,15.09c14.37,20,28.07,37.28,38.33,53.94C520.27,299.37,513.33,275.93,507.67,252.85Z"/>
    <path class="cls-1" d="M710.61,444.35c-80,26.68-109.46-2.73-153.93-15.73-2.16-13.82-6.5-30.56-11.92-49.16-1.59,23.07-14.3,48.87-44.23,81.78,1.83,9.48,1.21,17.82-5.39,23.38,1.2,24.34,4.16,49.24,5.83,71.46,106.2,46.7,163.41-28.48,221.27-35.79"/>
    <path class="cls-1" d="M295.35,87.24c6.84,150.51,60.2,322.91-53.36,398.16-34.18,22.65-125.37-77.81-199.08-152.56C-.57,288.75,47,209.7,144.16,235.69c17.23,9.64,37.62,37.63,58.15,55.42,14.36-36.94,25.82-118.55,26-192.92"/>
    <path class="cls-1" d="M320.89,24.6,322,67.92c10.52,36.33-1.53,76.28-12.05,97.06-41.07-51.31-91.43-57.5-133.77-107.06L177.23,0"/>
  </g>
  <g id="skinOverlapLine">
    <path class="cls-1" d="M202.31,291.11c-12.72,33.18-27.79,69.91-28.73,98.17"/>
    <path class="cls-1" d="M556.68,428.62c-11.24-1-21.45.14-29.51,5.86"/>
  </g>
</svg>
