<svg viewBox="0 0 1203.58 2113.69">
  <path class="lizShortsInner" d="M448.22,1603.2c-59.88-27.3,2.94-23.43,64.17-20C489.36,1597,465.82,1605.9,448.22,1603.2Z"/>
  <g class="skinIndian">
    <path d="M721.53,1332c59.05,18.28,128.46,41.63,146.1,70.31,29.23,47.52,27.46,240.23,23.3,426.15L790,1841.4C744.66,1647.71,642.89,1444.19,721.53,1332Z"/>
    <path d="M459.5,1308.94c181.51,27.6,382.67,40,408.35,134.12,39.84,145.94,72.36,289.62,99.89,429.28L866.4,1895.66c-61-151.18-162.4-243.39-158.15-347.38-77.83,32.92-185.47,43.1-297.13,40.89C404.2,1487.81,419.27,1394,459.5,1308.94Z"/>
  </g>
  <path class="lizShorts" d="M448.22,1603.2c-44,4.46-77.54-5-108.2-1.74-140.18,14.85-297-65.82-246.81-266,102.24-45.09,245.9-50.3,395.93-44.66-75.29,102.5-53,191.1-54.54,229.51C433.54,1546.23,416.86,1582.23,448.22,1603.2Z"/>
  <g class="lizSock">
    <path d="M835.81,1829.66c-36.93,5.3-51,3.56-49.69,8.33,23.7,85.45-21.81,159.41-10.81,205.88,5.73,24.22,60.56,26.3,101.13,19.7,13.46-63.74,10-125.69-10-167.91C857,1872.34,846.61,1850.43,835.81,1829.66Z"/>
    <path d="M972.64,1868.1c8,34.36,17.76,57.22,30.2,84.87,15.6,34.68,63.08,46,97.16,75.75,27.31,23.85,76.73,22.88,89.31,27.69,20.48,7.82,14,34.93,2.17,39.67-44.87,18-97,19.36-154.25,13.57-43.56-4.41-94.17.69-144.62-5.28-25.22-3-30.56-35.6-24.5-66.15,9.66-48.61,9-92.33-6.31-142.79-2.34-7.73,7.85-5.83,56.5-18C962.58,1866.27,970.58,1859.29,972.64,1868.1Z"/>
  </g>
  <path class="lizUndershirt" d="M375,617.41S150.28,601,153.67,660.47l-59.8,444c13.07,85.37-21.13,68.72.64,94.85,8.72,20-20.27,24.25-4.48,39,20.76,19.32-21.65,37.71-.74,71.69-14.34,12.16-7.84,26.13-12.2,41.81,48.79,3.49,89.77-19.44,180.33-41.81,74.05-18.3,142.87-9.71,223.4-24.65-11.08-166.27,13.74-161.84,4-190.21,14.18-25.71,6.56-77.93,5.32-85.11,114.38-75.82,18.62-189.6-29.52-252.86C425.61,712.2,417.92,634.37,375,617.41Z"/>
  <path class="clothesOverlapLine" d="M490.13,1010c-18.48,10-41,5.86-56.09,7.42-19,2-45.71,13.12-103.45,1.31"/>
  <g class="clothesFoldLine">
    <path d="M351.77,1307.55c-67.26,11.38-118,30.46-162,76.62"/>
    <path d="M409.28,1302.69c-101.76,43.23-107.73,102.57-136.51,94-32.83-9.77,16.22-45.85,56.53-64.2"/>
    <path d="M396.75,1469.15c-43,48.43-97.89,74.94-167.37,74.45"/>
    <path d="M491.34,858c-21.53,3.18-41.74,3.57-60.37.65"/>
    <path d="M516.27,867.79c-21,4.28-40.49,6.85-57.08,5.9"/>
    <path d="M318.12,935.37a446.33,446.33,0,0,1-77,0"/>
    <path d="M297.78,953.09c-22.53,2.48-44,0-62,0"/>
    <path d="M483,1030.36c-10.81,6.5-33,6.71-52.06,8-15.28,1.06-42.64,8.53-65,6.56"/>
    <path d="M484.81,1095.08c-18.91,16.48-49,25.76-91.24,27.29"/>
    <path d="M442.78,1096.12c-19,6.56-53.8,20.34-90.28,17.89"/>
    <path d="M98.32,1175.52c13.15,11.38,30.25,17.83,50.52,20.34"/>
    <path d="M94.51,1199.3c38.54,20.25,89.42,17.76,89.72,20.65.45,4.32-23.38,7.32-44.73,7.66"/>
    <path d="M125,1245.74c32.84,3.14,69.7-1.61,104.76-6"/>
    <path d="M111.3,1265.48c51.17,3.23,132.79-15.72,214.76-26.19"/>
    <path d="M89.29,1309.94c46.58,6.31,135.5-30.52,141.27-23.1,5.64,7.25-57.62,26.19-97.51,37.07"/>
    <path d="M397.38,1244.53c-52.79,15.71-75.75.81-144.66,41.5"/>
    <path d="M437.86,1259.42c-39,6.95-96.49,5.26-157.4,12"/>
  </g>
  <path class="fur" d="M523.46,1104.68c-74.12,20.17-113.69,155.56-64.26,207.21,3.34,16.09,14.15,26.14,27.27,26,3.28,3.41,6,5.2,11.72,5.77a204.13,204.13,0,0,0,42.59,0c7.24-.73,13.76-5.57,17.13-13.36a158,158,0,0,0,57.27,3.58c2.36,8.8,6.73,15.58,17.3,17.72,17.21,3.22,35.12,3.75,49.44-.67,18.31,1.47,32-1.26,38.73-12,50.11,0,62.32-38.32,70-76.13,10.48-55.24-13.09-101.06-61.37-133.57"/>
  <path class="hairBlackDark" d="M107.18,507c60.09,15.31,97.84,6.75,61.53-8,20.83,6.07,64.44,5,87-10.62C250.77,223.35-75.58,286.42,107.18,507Z"/>
  <g class="eye">
    <circle class="sclera" cx="448.33" cy="317.99" r="89.27"/>
    <g class="irisDarkBrown">
      <ellipse cx="406.07" cy="311.43" rx="21.82" ry="14.96" transform="translate(58.12 686.67) rotate(-84.65)"/>
      <ellipse cx="519.35" cy="324.98" rx="21.82" ry="12.15" transform="translate(147.34 811.74) rotate(-84.65)"/>
    </g>
    <g class="pupil">
      <ellipse cx="409.42" cy="311.74" rx="8.48" ry="5.82" transform="translate(60.85 690.3) rotate(-84.65)"/>
      <ellipse cx="523.04" cy="325.32" rx="8.48" ry="4.73" transform="translate(150.34 815.73) rotate(-84.65)"/>
    </g>
  </g>
  <g class="skinIndian">
    <path d="M620.59,1017.84c-27.55,41.05-69.05,76.24-133.49,88.5a38.78,38.78,0,0,0-2.29-11.26c14.18-25.71-3.55-39.89-1.78-64.72,7.59-6.24,8.34-13.21,7.1-20.39A149.27,149.27,0,0,0,518,986.55c11.56-1.45,20.8-2.12,30.2-5.3-5.7-17.77,13.41-33.85,26.82-53.62-1.68-17.44,9.38-48.27,22.11-56,10.39-6,26.16-.82,28.49,10.05,2,9.39,0,20.78,7.38,29.83,5.18-41.59,15.65-42,29.33-39,7.88,1.75,22.46,3.41,8.54,46.69,9.39-18.43,16.76-27.82,28.83-23.79,9.56,3.19,17.09,13,13.41,28.13,18,4.32,19,21.15,16.68,30.48-2.7,10.88-13.3,26.17-21.05,29.2C688.7,1007.71,660.64,1021.08,620.59,1017.84Z"/>
    <path d="M437.65,717c-16.84-73-27.58-76.28-45.32-87.66C413.39,650.66,421.37,681.4,437.65,717Z"/>
    <path d="M413,450.63c-27.57,19-46,133.59-37.94,166.78,41.28,38.52,39.9,78.15,66,122.42,43,73-55.7,53.85-71.87,13.61-15.49-38.54-25.84-55.59-42.56-79.63-39.42-56.68-120.28-62.34-154.71-40.31C204.42,580.89,210,405.05,131.51,376"/>
    <path d="M434.43,1224.32C314.51,1186,176.7,1193.64,93.87,1104.45c-33.94-36.55-9.24-118.91.94-189C92.63,828.33,113,726.34,153.67,661.47c31.18-49.69,129-34.79,164.53,17.41,18.56,27.25,45.12,80.15,41.42,102.34-.74,34.76-62.87,110.95-103.55,101.3C240.15,943,222.54,992.8,213.62,1026.85,284.72,1067.12,356.89,1135,462,1153.14c22.37,5.61,44.1-34.54,97.88,16.3,22.1,14,8.84,38.31-18.31,25.89,5.16,10.31,6.89,19.42,10.94,26.41.37-11.78,15.11-18.78,21-8.1,9.21-19.52,36.72-23.6,24.21,18,20.73-24.68,52-22.47,43.94-3.68-3,2.94-10.16,11.1-14.21,14,20.47-17.74,53.62-3.74,35.1,13.63-18.42,13.26-17.58,22.41-48.15,23.52-24.68,15.47-47.89,0-75.62,10.42C487.75,1308.78,443.64,1224.32,434.43,1224.32Z"/>
    <path d="M218.49,405.6c-15,13.15-36.88,0-41.61-11.82-6.13-15.35-21.46-28.73-27.37-41.67C-18.93,148.86,521.3,117.4,521.3,117.4c63.48,5.95,73.68,451.34-80.88,446.37-33.94,1.68-44.69-4.07-63.92-11.93-68.08-27.81-112.43-48.48-137-87.49M431.68,318c-3.61-18.08-15.52-20.14-30.1-17.91-8.14,1.24-18.89,7.86-38.56,12.09,11.42,6.19,18.38,8.56,31.72,10,13.59,1.5,23.4-1.28,30.49-1.38C428.14,320.74,432.93,324.15,431.68,318Zm63.11,12.34c9.08,5.72,32.17,8,40.92,1.35a16,16,0,0,0,.78-7.25c-4.54-5.09-13.11-10-18.11-10.69-12.21-1.75-23,4.74-29.28,13.24C486.84,329.85,492.84,329.06,494.79,330.29Z"/>
  </g>
  <g class="skinOverlapLine">
    <path d="M140.64,731.77A1481.6,1481.6,0,0,0,94.81,915.42"/>
    <path d="M289.55,785.5c-8.19,23.16-23.31,58.92-33.48,97"/>
    <path d="M418.39,763.49c1.38,9.43,12.11,16.78,16.9,25.1"/>
    <path d="M713.15,923.58c-9.54,21.22-18.78,39.9-29.84,49.29-16.27,13.8-33.88.6-25.75-23,1.54-4.5,8.32-13.82,13.35-30.58"/>
    <path d="M708.78,983.26c-14.07,5.7-27.81-2.35-25.47-10.39"/>
    <path d="M575.06,927.63c-1.35,29.82,34.52,23.12,32.5-11.07A29.31,29.31,0,0,1,617,905.17"/>
    <path d="M548.24,981.25c3,11.73,10.1,16.76,20.19,20.63"/>
    <path d="M594.08,975.83c-10-8-4.28-10.33-7.3-17.71"/>
    <path d="M633,911.53c-1,6.55-2.32,11.74-2.91,17.49"/>
    <path d="M657.56,949.82c-3,6.89-6.72,10.41-9.22,8.3"/>
    <path d="M516.36,1184.17c9.95,8.84,14.74,4,25.16,11.16"/>
    <path d="M545.1,1259.69c34.62,19.89,47,22.24,69.25,19.52"/>
    <path d="M552.46,1221.74c7.74,9.58,26.89,16.21,44.21,27.26,7-5.52,20.63.74,30.73-6.94"/>
    <path d="M597.67,1231.69c-14.26-.74-17.95,6.26-29.89,1.39a45.85,45.85,0,0,1,5.68-19.44"/>
    <path d="M708.25,1548.28c.7-18.45,5.08-35.4,14.38-50.38"/>
  </g>
  <g class="skinFoldLine">
    <path d="M213.62,1026.85c-8.59-2.08-16.56-3-23.38-1.64"/>
    <path d="M621.09,926.93c-6.24.83-11.23-.83-13.71-2.89"/>
    <path d="M572,965.61c5.75-.36,13.31,2.29,19.6,8.06"/>
    <path d="M203.44,310.74c-5.38-69.12-76.8-6.84-32,50.67"/>
    <path d="M206,336.28c-11,10.34,11,25.93-3.51,31.1-6.2,2.21-3.43-13.25-17.31-21.12-22.5-12.78-2.87-46.41,9.11-29.31"/>
  </g>
  <path class="fur" d="M523.46,1104.68c9.73,32,19.61,36.53,37.22,76.08,12.6,28.31,54.75,40.1,84.19,29,16.28-5.88,15.17-18.15,43.1-31.2,39.86-18.63,34.62-65.23,63.56-86.3,12.28-13,27-25.55,44.71-39.67,5.67-4.51-.26-12.48-7.16-11.15-9.23,1.68-20,3.15-30.32,1.47a180.63,180.63,0,0,0-42.53-.63c-11.58-19.16-42.52-36.84-66-42,.21-21.77-1.54-42.6-4.84-66.77-1.26-9.26-10.43-10.33-15.31-4.54-12.59,14.9-24,26.11-33,42.22-8.07,12.94-17.54,20.94-28.71,30.64C536.44,1030.71,510.52,1062.12,523.46,1104.68Z"/>
  <path class="nose" d="M646.88,1176.84c-1.07-8-25.48-18.83-34.36-13.93-3.27,2.23,3.75,19.63,10.83,22.91C629.2,1188.33,647.26,1181.2,646.88,1176.84Z"/>
  <g class="furOverlapLine">
    <path d="M636,941c3.59,24.68.72,49.15-8.29,73.4"/>
    <path d="M782.19,1053.12c-21.19,9.53-40.54,3.08-62.35,15.36"/>
    <path d="M681.92,1350.93c20.62-14.63,11-50.38-27-49.39-27.47.33-41.71,10.6-39.69,32.34"/>
    <path d="M720.65,1338.93c13.34-21.5,8.71-40-11.16-52.59-17.71-10.13-46.5-6.44-54.62,15.2"/>
    <path d="M557.91,1330.3c7.59-22.14-12.28-35.72-29.1-35.72-40.44-.66-52,18.88-42.34,43.31"/>
    <path d="M459.2,1311.89c-1.95-13.33,1.26-29.49,23-37.43"/>
  </g>
  <g class="head48__edited">
    <path class="lipFemaleBrown__noStroke" d="M487.83,472.06c-8.46,6.17-7.24,18.17-37,17.15-42.08-1.45-44.57-15.53-64-18.51,28-.39,43.1-16.75,51.74-11.74,20,11.57,30.35-.84,36.12,4.67A35.89,35.89,0,0,0,487.83,472.06Z"/>
    <path class="lipFemaleBrown" d="M487.83,472.06c-8.47-3.73-7.53-13.88-13.66-17.94-7.3-4.84-14.48,5.16-30.87-4.83-12.7-7.75-25.34,16.06-56.53,21.41,28-.39,42.5-16.22,51.74-11.74,20.78,10.07,30.35-.84,36.12,4.67A35.89,35.89,0,0,0,487.83,472.06Z"/>
    <path class="lipEdgeLine" d="M477.69,482.89c-9.71,8.35-17.17,5.55-27.19,5.28-10.85-.29-22.86,1.88-35.44-7.33"/>
    <g class="cheekLine">
      <path d="M493.39,423.84c3.61,7.1,7.75,23,7.89,33.42"/>
      <path d="M427.09,394.72c-16,8.14-14.72,19.36-31,34-12.36,11.13-17.86,14.86-22.27,26.57"/>
    </g>
    <g class="noseLine">
      <path d="M423.86,418.83c-8.08-5.9-6-17.87,3.23-24.11"/>
      <path d="M462.35,423.72c-9.84-.87-23.5-15.79-30.61-4.7"/>
      <path d="M476.48,348.45c11.3,48.36,33.11,68,9.28,82.46-12.15,7.37-27.44-.15-36.42-7.49"/>
    </g>
    <g class="eyeFoldLine">
      <path d="M530.26,347.13c-8.1,5.51-19.06,6.14-30-.5"/>
      <path d="M424.78,338.57c-14.22,4.45-40.38,3-54.88-6.14"/>
    </g>
    <path class="eyeCornerLine" d="M338.13,314.84c8.17,1.32,17.59-.14,24.89-2.71"/>
    <g class="eyeCreaseLine">
      <path d="M500.79,307.72c12.05-8.78,34.64,1.93,40.79,13.73"/>
      <path d="M357.65,306.2c22.36-10.57,62.35-26.94,77.11-3.67"/>
    </g>
    <g class="eyebrowBlack">
      <path d="M517.48,275.66c15.47-.6,27.95,1.42,38.89,6.16a34.18,34.18,0,0,0,.46-4.42c-20.18-14-36.24-12.11-52.53-16.75C493.88,257.68,503.25,276.22,517.48,275.66Z"/>
      <path d="M342,268.5c41.71-29.22,84-11.63,106.86-12.95,5.84-.34-1.52,16.37-17.1,12.41C398.72,259.58,383.39,253.72,342,268.5Z"/>
    </g>
    <g class="hairBlack">
      <path d="M149.51,352.11a269.49,269.49,0,0,0-5.31,46c11.11,0,22.15-1.12,31.85-6.24C169.46,377.3,155.17,364.51,149.51,352.11Z"/>
      <path d="M577.28,351.81c-14.48-60.37-2.54-67.07.42-88.76,10.76-1.86,13.75-10.23,3.61-17.11,4.31-23.8,1.52-42.56-5.23-71.49-8.4-35.93-25.33-48.23-35.32-75.8-27.52-75.91-197-131.39-279.54-73.83C185.74-7.82,137.67,69.11,100.67,102.43,10.49,183.63,41,267.75,23.93,309.6-26,432,19,503.19,33.51,460.39c20.3,87.16,68.35,121.39,62.6,78.08,91.82,107.87,129.75,66.86,112.65,42.43C154.94,504,133,434.26,149.51,352.11c-29.85-75.64,53.28-122,67.75-57.87,11.77,21.95,39.13,33.09,40.28,3.72-1-28,3.82-30.18,17.08-45,40.58,1.66,65.73-6.16,103.7-22.44-40.57,32.65,57.85,29,82.7-47.45C453,252,527.5,272.16,507.19,240.14c20.15,12.72,26.89,18.42,48.34,21.4,4.06,25-1.92,26.52-7.19,37.65-2.69,5.68,9,27.66-10.2,29.65,13,10.63-.61,12.38,4,28.21,9.6,60.12-6.81,127.29-51.05,164-22.12,18.34-22.71,36.29-50.63,42.77-7,10-11.61,21.28-22.77,35-16.53,20.38,27,36.64,79.46-23.73C494.66,626.87,611.15,493,577.28,351.81Z"/>
    </g>
    <g class="hairOverlapLine">
      <path d="M274.62,252.93c-23.39.36-24.16-12.9-4.64-19.19"/>
      <path d="M555.53,261.54c5.74,1.71,14.93,1.95,22.17,1.51"/>
      <path d="M567.22,241.38c4.12,0,9.07,2,14.09,4.56"/>
    </g>
  </g>
</svg>
