<svg id="presence" xmlns="http://www.w3.org/2000/svg" viewBox="0 0 652.36 2216.67">
  <defs>
    <style>
      .cls-1 {
        fill: none;
      }

      .cls-1, .cls-2, .cls-3, .cls-4, .cls-5, .cls-6, .cls-7, .cls-8 {
        stroke: #000;
        stroke-miterlimit: 10;
        stroke-width: 2px;
      }

      .cls-2 {
        fill: #62b380;
      }

      .cls-3 {
        fill: #609675;
      }

      .cls-4 {
        fill: #6bc28b;
      }

      .cls-5 {
        fill: #84b39d;
      }

      .cls-6 {
        fill: #5f7369;
      }

      .cls-7 {
        fill: #6e857a;
      }

      .cls-8 {
        fill: #7ca894;
      }
    </style>
  </defs>
  <title>rumpledLinens</title>
  <g id="lizJeans">
    <path class="cls-1" d="M533.7,1212.36a1981.66,1981.66,0,0,1-38.6,226.18c-4,17.44,14.64,36.78-7.41,42.43a362.16,362.16,0,0,1-4,57.92c7.18,6,6.74,15.36-4,18.19-4.14,13,16.91,27.1-1.35,33-7.43,121.27-24.1,215.36-23.57,313.86l-127.3,11.45C383,1546.89,434.92,1140.48,533.7,1212.36Z"/>
    <path class="cls-1" d="M201.31,1212.87l289.54.63c-.49,92-15.83,178.7-22.93,241.7-11.12,98.73-40.35,153.06-59.75,228.21-24.64,95.51-54.91,160.21-71.55,229.13L225,1885.74c11.21-121.2-12.92-256.76,38.4-354.61-10.76-7.93-1.51-17.18,5.39-18.17-14.61-14.41,6.45-13.39,4.88-33.75-16.41-9.93,3.62-19.17.75-29.62C248,1382,222.83,1308,201.31,1212.87Z"/>
  </g>
  <g id="lizJeansCuff">
    <path class="cls-1" d="M454.72,1891.06c6.11,1,9.93,37.48,3.88,40.53-40.26,19.61-79.88,28.47-118.24,16.22-5.34-4.32-6.73-42.21-1.21-45.34C359.69,1907.69,433,1902.13,454.72,1891.06Z"/>
    <path class="cls-1" d="M225.71,1877.05c-8-1.61-17.36,45-9.37,46.57,20.95,44.35,60.51,44.05,110,20,10.9,2.57,19.78-38.33,12.85-41.18C327.34,1909.27,233.65,1886.58,225.71,1877.05Z"/>
  </g>
  <g id="clothesDisplayLine">
    <path class="cls-1" d="M244.47,1885.78c-9.28,8.75-14.81,39-13.3,48.59"/>
    <path class="cls-1" d="M362.3,1904.44c-2.73,5.64-3.58,36.09-1.2,40.53"/>
    <path class="cls-1" d="M231.17,1880.59c-4.92,2.65-15.14,41.2-11.41,46"/>
    <path class="cls-1" d="M349.57,1904c-2.14,6.33-3.84,34.87,0,41.61"/>
  </g>
  <g id="clothesFoldLine">
    <path class="cls-1" d="M487.69,1481c-8.8,1.4-16.75,1.67-23.21,0"/>
    <path class="cls-1" d="M479.61,1557.08c-12.15,1.88-23.84.77-32.1,0"/>
    <path class="cls-1" d="M478.26,1590.08c-15.25,2.11-29.08,2.35-40.94,0"/>
    <path class="cls-1" d="M485,1468.06c-6.38,1.28-12.63,1.59-18.64,0"/>
    <path class="cls-1" d="M474.16,1544.51c-9.06.82-17.23,1.1-23.15,0"/>
    <path class="cls-1" d="M464.48,1577.69a62.68,62.68,0,0,1-23.19,0"/>
    <path class="cls-1" d="M263.37,1531.13c20.25,13.8,54,23.95,90.76,33.28"/>
    <path class="cls-1" d="M268.76,1513c5.11,4.77,16.69,9.24,32.28,13.53"/>
    <path class="cls-1" d="M273.64,1479.21c29.59,14.27,67.71,19.39,108.94,21.2"/>
    <path class="cls-1" d="M289.19,1533.6a511.21,511.21,0,0,0,87.7,19.44"/>
    <path class="cls-1" d="M287.29,1468.65c17.27,9.6,41.74,13.86,70.16,15.17"/>
    <path class="cls-1" d="M274.49,1499.47c7.23,5.54,16.53,9,27.5,10.9"/>
    <path class="cls-1" d="M375.57,1817.56c12.81,27.2,31.94,46.37,59.67,54.64"/>
  </g>
  <g id="lizSoleSide">
    <path class="cls-1" d="M650.37,2138.37c1.29,4.88,1.48,12.43-.43,15.76-22.7,23.65-94.71,19.85-138,9.72-33.33-7.81-66.19-21.92-91.28-25.4v26.37c-29.24.86-77.51,1.06-82.14-6-10.94-16.74-19.35-44.87-20.21-59.92"/>
    <path class="cls-1" d="M417.64,2189.91c.35,7.45-.21,16.35-5.24,19.1-24.69,12.8-91.9,6.68-121.62-14.35-37.48-23.31-44.34-56.06-75.43-73.43l-13.72,23.31c-19.2-4.57-71.32-30.23-71.32-43.43,0-15.54,6.57-42.14,13.22-68Z"/>
  </g>
  <g id="lizShoe">
    <path class="cls-1" d="M340.36,1947.81c-3.53,75.11-29.88,90.33-22,151.07,33.13,25.32,82.92,10.18,136.76,32.27,81.53,33.45,170.36,31.3,195.28,7.22,2.59-12.81-9.75-31-31.36-35.13-44.66-8.6-78.15-42-115.92-72.13-31.3-25-44.77-61.09-44.49-99.52-29.8.14-51,.39-59.13,14.63C380,1944.35,342.8,1944.12,340.36,1947.81Z"/>
    <path class="cls-1" d="M326.3,1943.65c-6.35,25.9-15.41,49.16-6.84,66,20.76,40.77,31.76,104.49,45.45,127,33.81.78,57.26,24.6,52.73,53.31-53.38,25.52-119,5.13-150-38.56-33.24-46.92-113.38-83.08-124.13-118.27,5.37-31.76,52.29-65,72.81-109.46,9.07,8.44,21,14.83,34.21,19.54,9.28-16.08,26.38-8.88,47.4-3.42A125.33,125.33,0,0,0,326.3,1943.65Z"/>
  </g>
  <g id="clothesOverlapLine">
    <path class="cls-1" d="M399.47,1946.22c-8.2,12.3-8.2,50.35-5.86,79.62"/>
    <path class="cls-1" d="M250.55,1943.16c-14.48,22.49-22.9,48.09-29.53,73.27"/>
    <path class="cls-1" d="M369.91,2136.6c-13.52-.68-29,2.42-38.85,8"/>
  </g>
  <g id="lizCoat">
    <path class="cls-1" d="M538.75,594.28c35,19.16,70.06,45.23,98.72,64.34-37.58.63-70.06,75.79-59.87,100.63C552.29,747.83,546.53,667.48,538.75,594.28Z"/>
    <path class="cls-1" d="M612.24,435.28c5.8,84.89-60.74,213.24-47.44,246.65C621,823.1,574.39,1027.31,595,1215.08c-8.22,27.41-416.65,31.52-464.36,11.59,0,0-10.6-420.83,46.89-457,0-135.53-68.29-508.67,63.17-638.4,118.11,2.06,236.74,55.26,235.9,62.13-16,12.15,78.82,28.78,123.51,54.81-5.78,32.81-16,50.8-21,75.9C579,324.09,611.31,421.61,612.24,435.28Z"/>
  </g>
  <g id="lizCoatInner">
    <path class="cls-1" d="M589.19,787.29c13.41,122.21-8,268.84,3.85,408.06,20.2.8,43-10.41,39.39-15.27C604.7,1056.28,614.89,909,589.19,787.29Z"/>
    <path class="cls-1" d="M637.47,658.62c-37.58.63-70.06,75.79-59.87,100.63C604.46,775.23,664.33,674.6,637.47,658.62Z"/>
  </g>
  <g id="lizCoatButton">
    <ellipse class="cls-1" cx="534.59" cy="936.49" rx="8.1" ry="23.41"/>
    <ellipse class="cls-1" cx="570.04" cy="932.75" rx="8.1" ry="23.41"/>
    <ellipse class="cls-1" cx="530.96" cy="786.39" rx="23.41" ry="8.1" transform="translate(-269.47 1295.92) rotate(-88.45)"/>
    <ellipse class="cls-1" cx="566.73" cy="785.6" rx="23.41" ry="8.1" transform="translate(-233.89 1330.91) rotate(-88.45)"/>
    <ellipse class="cls-1" cx="524.92" cy="621.97" rx="23.41" ry="8.1" transform="translate(-120.82 1117.34) rotate(-87.33)"/>
    <ellipse class="cls-1" cx="561.57" cy="620.65" rx="23.41" ry="8.1" transform="translate(-89.2 1147.03) rotate(-86.83)"/>
    <ellipse class="cls-1" cx="561.03" cy="480.18" rx="23.41" ry="8.1" transform="translate(-6.57 952.59) rotate(-80.33)"/>
    <ellipse class="cls-1" cx="593.26" cy="478.17" rx="23.41" ry="8.1" transform="translate(17.84 977.66) rotate(-79.83)"/>
  </g>
  <path id="lizCoatBelt" class="cls-1" d="M155,614c3.13,18.49,334.52,25.24,420.66,8.93,6.48-1.22,6,70.53,0,73.37-53.63,25.5-421.77,22.53-422.31-4.69Z"/>
  <path id="lizCoatBuckle" class="cls-1" d="M572,623.55c-.83-11.78-47.71-6.35-48.41,5.08-3.34,4-1.57,74.69,1,78.17,1.88,8.48,46.74,3.34,47.57-9.1A179.78,179.78,0,0,1,538.65,705c-2.19,0-2.24-77.51,0-77.52C549.56,626.54,560.72,625.45,572,623.55Z"/>
  <g id="backpack">
    <path id="backpackMedium" class="cls-2" d="M55,341.89c-19.73-1.72-32.48,7.95-37.47,34.55C-.38,471.76-.11,581.23,2,688.94c.66,34.1,13.39,58.89,42.95,55.93Z"/>
    <path id="backpackPocket" class="cls-3" d="M188.85,538.28C190.42,596.67,212,677.41,176,790.58c-7.21,20.18-129.2,10.81-147.27-37-16.06-42.48-10-137-7.86-228.28Z"/>
    <path id="backpackLight" class="cls-4" d="M188.57,535.69c8.31-81.43-30-277,53.29-398.44-8.39-10.33-15.91-10.1-31.2-2.55-6.44-11.33-42-8.75-50.82.11-99.2-12.32-131.4,202.92-137.6,385.52C78.17,533.45,110.24,544.55,188.57,535.69Z"/>
    <path id="backpackTrim" class="cls-5" d="M189.09,529.67c-70.64,3.79-120.42-4.2-166.68-14.36-6.29-1.38-9.32,11.71-1.62,13.37,41,8.78,100.65,17.89,168.21,13.84Z"/>
    <path id="backpackAdjusterDark" class="cls-6" d="M233.9,71.9c-9.93-9.93-12-25.61-29.78-29.26-8.33,8.75-10,16.24-8.3,23.7,3.82,1,8.9,2.6,13.33,7.59,12.54,14.11,32.07,17.83,31.5,57.32,2-5,4.08-9.41,6.87-15C248.87,99.87,245.4,83.39,233.9,71.9Z"/>
    <g id="backpackAdjusterLight">
      <path class="cls-7" d="M204.12,42.64C174.47,73.81,228.77,89,223.54,143.35a35,35,0,0,0-7.4,9.54c-1.92-37.6-25.53-39.24-32.7-64C180,77,186.32,45,204.12,42.64Z"/>
      <path class="cls-7" d="M271.9,578.13C244.29,626.2,223,661,195.28,693.56c-1.62,14.37-2.85,31.42-6.41,46.83,42.06-38.22,76.87-84.37,108.61-143.21C286.55,593.73,279.17,588,271.9,578.13Z"/>
    </g>
    <g id="backpackStrap">
      <path class="cls-8" d="M217.93,181.25c-5.08-5.81,14.5-41.09,23.93-44C379.78,103.86,453.09,236.7,411,383.32c-12.34-26.85-8.44-52.38-23.95-66.78-11.07-10.27-12.34-68.23-37-111C348.57,146.69,258.58,138.43,217.93,181.25Z"/>
      <path class="cls-8" d="M299.93,486.4c15.56,25.82,31.68,48.59,48.64,66.78-15.88,24.68-37.3,48.36-51.09,44-10.93-3.45-18.31-9.21-25.58-19C259.56,561.44,282.85,519.14,299.93,486.4Z"/>
    </g>
    <path id="backpackOverlapLine" class="cls-1" d="M159.84,134.81C96,186.57,80.64,366.29,85.31,526.44"/>
    <g id="backpackCreaseLine">
      <path class="cls-1" d="M210.66,134.7c-10.38,3.57-29.92,33.58-33.7,55.87"/>
      <path class="cls-1" d="M56.88,522.17c-1.64-12.77-1.93-30-1.91-47.92"/>
      <path class="cls-1" d="M46.77,533.74c-2.11,9.29-3.56,20.13-2,30.26"/>
      <path class="cls-1" d="M106.18,541.44c-2.41,8.57-4.22,28.07-2.86,40"/>
      <path class="cls-1" d="M155.64,543.51c-1.89,10.15-2.29,21.78-2.61,33.9"/>
    </g>
  </g>
  <g id="lizCoatLapel">
    <path class="cls-1" d="M476.55,193.38c1-49.89-35.71-.58-68.55,64.31-26-78.18-82-120.15-167.35-126.44,9.28-22.93,24.72-46.86,36.26-52.8,26.66-13.72,154.69,24.18,218.6,76.77C489.08,154.82,482.79,170.88,476.55,193.38Z"/>
    <path class="cls-1" d="M453.32,289.32"/>
    <path class="cls-1" d="M453.32,289.32c-11.7-6-23.47-11.57-35.07-16.46-.07-19.84,41.82-86.07,58.3-79.48q4.45,4.88,8.83,9.73C474.26,223.73,469.08,256.06,453.32,289.32Z"/>
    <path class="cls-1" d="M567.06,369.2c22.48,22,38.92,44.79,45.18,66.08,3.57-34-9.51-71.45-33.22-111.19C575.46,341.6,571.66,357.73,567.06,369.2Z"/>
  </g>
  <g id="clothesOverlapLine-2" data-name="clothesOverlapLine">
    <path class="cls-1" d="M567.06,369.2c-36.85,91.19-80.14,203.19-135,222.72-32.23,11.48-63.11-21-83.5-38.74"/>
    <path class="cls-1" d="M299.93,486.4C282.47,454.71,265.76,414,249.49,368"/>
    <path class="cls-1" d="M411,383.32c17.51,13.45-.29,21.85,14.34,19.68-2.27-46.3,21-62.13,26.62-87.47-2.31-10.21-2.06-16,1.37-26.21"/>
    <path class="cls-1" d="M423.58,143.19c17.72,9.76,33.75,19.63,45.5,29.77"/>
    <path class="cls-1" d="M292.25,84.17c-3.68-1.43-6.68-2.61-8.39-3.34"/>
  </g>
  <g id="clothesFoldLine-2" data-name="clothesFoldLine">
    <path class="cls-1" d="M452,315.53c.45,19,16.38,40.34,17.13,59.9"/>
    <path class="cls-1" d="M378.81,343.08c-31.25,9.87-60.15,8.17-85.76-9.77"/>
    <path class="cls-1" d="M317.13,174.58C296,185.4,333.68,182.1,350,205.49"/>
    <path class="cls-1" d="M204.29,282.9c10,18.05,9.27,67.86,45.2,85.11-16.46-33-23.2-59.94-21.7-104.5,1-30.28-16.1-35.21-10,1.34"/>
    <path class="cls-1" d="M334.52,464.6c14.6-43.44,61-73.74,79.39-67"/>
    <path class="cls-1" d="M365.6,529.76c-5.22-54.6,22.91-110,59.73-126.76-28,31.05-41.44,66-34.2,106.39"/>
    <path class="cls-1" d="M430.28,435.71c2.32-12.76-5.46-23.24-4.95-32.71"/>
    <path class="cls-1" d="M528.48,540.22c-17.12-23.69-30.07,32-38.75,82.79"/>
    <path class="cls-1" d="M485.33,742.79a87.12,87.12,0,0,0,0-31.81"/>
    <path class="cls-1" d="M453.18,763.93c8.51,9.63,19.6-16,20.38-52.95"/>
    <path class="cls-1" d="M470.79,604.52c-2,11-2.82,19.74-2.63,26.64"/>
    <path class="cls-1" d="M365,607.6a123.88,123.88,0,0,0-3,24.33"/>
    <path class="cls-1" d="M355.42,747.64c3.83-8.38,4.71-21.7,6.6-33.85"/>
    <path class="cls-1" d="M340,763.93c4.38-16,2.05-35.89,8.57-50.2"/>
    <path class="cls-1" d="M241.86,591.3c-3.7-26.09-17.12-3.33-8.89,36"/>
    <path class="cls-1" d="M219.34,737.45c-5.43,20.82,18.82,20.35,20.39-27.66"/>
    <path class="cls-1" d="M254.13,740.39c-.79-10,3.62-18.95,4-29.41"/>
    <path class="cls-1" d="M418.08,890c-36,72.41-85.37,127.9-149.88,164.35"/>
    <path class="cls-1" d="M557.45,1051.72c-13.44,55.85-31.72,108.74-67.06,151.19"/>
  </g>
  <path id="clothesBorderLine" class="cls-1" d="M577.24,333c-23.51-6.46-94.86-34.9-122.17-47.47"/>
  <g id="skinIndian">
    <path class="cls-1" d="M507.08,146.66c-.59,26.14-8.25,41.35-14.11,61.11,17.09,6.54,43.62,14.14,68.22,23.15,1.43-17.57,2.45-37.74,8.79-51.85"/>
    <path class="cls-1" d="M296.13.05l-3.88,84.12c38.9,13.94,89.41,34.72,131.33,59l-5-96.06"/>
  </g>
</svg>
