<svg viewBox="0 0 122.34 417.41">
  <path class="hairBlackDark" d="M28.62,83.77c9.25,1.46,13.38-.36,7.71-2.07a48.53,48.53,0,0,0,14.43-.42C46.08,39.72-1,54.15,28.62,83.77Z"/>
  <g class="lizJeans">
    <path d="M82.31,261.53a325.36,325.36,0,0,1-6,35.92c-.62,2.69,2.25,5.67-1.14,6.54a56.18,56.18,0,0,1-.62,8.92c1.1.92,1,2.36-.63,2.8-.63,2,2.61,4.18-.2,5.08-1.15,18.68-3.72,33.18-3.64,48.35l-19.6,1.76C59.09,314.14,67.09,250.46,82.31,261.53Z"/>
    <path d="M31.1,261.61l44.6.1c-.07,14.17-2.43,28.6-3.53,38.31C70.46,315.23,66,323.59,63,335.17c-3.8,14.71-8.46,24.68-11,35.29l-18-4.89c1.73-18.67-1.22-38.78,6.69-53.86-1.66-1.22-.24-2.64.82-2.8-2.25-2.22,1-2.06.76-5.19-2.53-1.53.55-3,.11-4.57A264.23,264.23,0,0,1,31.1,261.61Z"/>
  </g>
  <g class="lizJeansCuff">
    <path d="M70.14,367.16c.94.15,1.53,5.77.6,6.24-6.21,3-12.31,4.38-18.22,2.5-.82-.67-1-6.5-.18-7C55.5,369.72,66.8,368.86,70.14,367.16Z"/>
    <path d="M34.09,364.23c-1.23-.25-2.67,7.39-1.44,7.63,3.23,6.83,10.09,7.1,17.71,3.4,1.68.39,3-5.91,2-6.35C50.52,370,35.32,365.7,34.09,364.23Z"/>
  </g>
  <g class="soleLightTan">
    <path d="M100.28,405.25a4,4,0,0,1-.07,2.43c-3.5,3.64-14.59,3.06-21.25,1.5-5.14-1.21-10.2-3.38-14.06-3.92v4.06c-4.51.14-11.94.17-12.66-.92a23,23,0,0,1-3.11-9.23"/>
    <path d="M64.43,413.19c0,1.15,0,2.52-.81,2.94-3.8,2-14.16,1-18.73-2.21-5.78-3.59-6.83-8.63-11.62-11.31l-2.12,3.59c-2.95-.7-11.75-5-11.75-7,0-2.39,1-6.49,2-10.48Z"/>
  </g>
  <g class="lizShoe">
    <path d="M52.52,375.9c-.54,11.57-4.6,13.91-3.39,23.27,5.1,3.9,12.77,1.57,21.07,5,12.56,5.15,26.24,4.82,30.08,1.11.4-2-1.51-4.77-4.83-5.41-6.88-1.33-12-6.47-17.86-11.11-4.82-3.85-6.9-9.41-6.85-15.33-4.59,0-7.86.06-9.11,2.25C58.63,375.36,52.9,375.33,52.52,375.9Z"/>
    <path d="M50.36,375.26c-1,4-2.38,7.57-1.06,10.16,3.2,6.28,4.9,16.09,7,19.56,5.21.12,8.83,3.79,8.13,8.21a19.06,19.06,0,0,1-23.11-5.94c-5.11-7.23-18.23-13.11-19.89-18.53.83-4.89,8.06-10,11.22-16.86a19.64,19.64,0,0,0,6,3.32c1.43-2.48,4.06-1.37,7.3-.53A19.52,19.52,0,0,0,50.36,375.26Z"/>
  </g>
  <g class="lizCoat">
    <path d="M85.08,166.33c5.4,2.95,10.8,7,15.21,9.91-5.79.09-10.79,11.67-9.22,15.5C87.17,190,86.28,177.6,85.08,166.33Z"/>
    <path d="M96.56,142.61c.89,13.07-9.36,32.84-7.31,38,8.66,21.74,1.48,53.2,4.65,82.12-1.27,4.22-64.18,4.86-71.53,1.79,0,0-1.55-64.42,6.14-71.63,0-20.88-9.85-79.38,10.4-99.37,28,.49,35.19,4.83,34,10.22-2.47,1.87,14.89,6,21.77,10.06-.89,5-2.46,7.82-3.24,11.69C91.44,125.48,96.42,140.5,96.56,142.61Z"/>
  </g>
  <g class="lizCoatInner">
    <path d="M90.85,196.06c2.07,18.82-1.23,41.41.6,62.85,3.11.13,6.62-1.6,6.06-2.35C93.24,237.49,94.81,214.81,90.85,196.06Z"/>
    <path d="M100.29,176.24c-4.06.07-7.73,5.78-9,10.5q.62,2.56,1,5.25C96.78,191.48,104.05,178.47,100.29,176.24Z"/>
  </g>
  <g class="clothingPearl">
    <ellipse cx="82.44" cy="219.04" rx="1.25" ry="3.61"/>
    <ellipse cx="87.9" cy="218.46" rx="1.25" ry="3.61"/>
    <ellipse cx="81.88" cy="195.92" rx="3.61" ry="1.25" transform="translate(-116.17 272.48) rotate(-88.45)"/>
    <ellipse cx="87.39" cy="195.8" rx="3.61" ry="1.25" transform="translate(-110.69 277.87) rotate(-88.45)"/>
    <ellipse cx="80.95" cy="170.59" rx="3.61" ry="1.25" transform="translate(-93.22 243.51) rotate(-87.33)"/>
    <ellipse cx="86.6" cy="170.39" rx="3.61" ry="1.25" transform="translate(-88.32 247.43) rotate(-86.83)"/>
    <ellipse cx="86.52" cy="148.75" rx="3.61" ry="1.25" transform="translate(-74.66 209.05) rotate(-80.33)"/>
    <ellipse cx="91.48" cy="148.44" rx="3.61" ry="1.25" transform="translate(-70.78 212.27) rotate(-79.83)"/>
  </g>
  <path class="lizCoatBelt" d="M24,169.36c.48,2.85,51.53,3.89,64.8,1.38,1-.19.92,10.86,0,11.3-8.26,3.93-65,3.47-65-.73Z"/>
  <path class="clothingBrass" d="M88.21,170.84c-.13-1.82-7.35-1-7.46.78-.51.61-.24,11.5.16,12,.29,1.31,7.2.51,7.33-1.4a28,28,0,0,1-5.17,1.12c-.34,0-.35-11.93,0-11.94C84.75,171.3,86.47,171.13,88.21,170.84Z"/>
  <g class="backpack">
    <path class="backpackMedium" d="M8.56,127.45c-3-.27-5,1.22-5.77,5.32C0,147.45.08,164.32.4,180.91.5,186.16,2.46,190,7,189.52Z"/>
    <path class="backpackPocket" d="M29.19,157.7c.24,9,2.33,33.51-3.92,37.57-3.47,2.25-18,3-20.75-4.4C2.05,184.33,3,169.78,3.31,155.71Z"/>
    <path class="backpackLight" d="M29.14,157.3c1.28-12.54-4.62-42.67,8.21-61.37-1.29-1.59-2.45-1.56-4.81-.39-1-1.75-6.47-1.35-7.82,0-15.28-1.9-20.24,31.26-21.2,59.39C12.14,157,17.08,158.67,29.14,157.3Z"/>
    <path class="backpackTrim" d="M29.22,156.37a88.93,88.93,0,0,1-25.67-2.21c-1-.21-1.44,1.81-.25,2.06a96.75,96.75,0,0,0,25.91,2.13Z"/>
    <path class="backpackAdjusterDark" d="M36.13,85.86c-1.53-1.53-1.86-3.94-4.59-4.51A3.78,3.78,0,0,0,30.26,85a4,4,0,0,1,2.05,1.17c1.93,2.18,4.94,2.75,4.85,8.83.32-.77.63-1.45,1.06-2.3A8.45,8.45,0,0,0,36.13,85.86Z"/>
    <g class="backpackAdjusterLight">
      <path d="M31.54,81.35c-4.57,4.81,3.79,7.15,3,15.52a5.24,5.24,0,0,0-1.14,1.47c-.3-5.79-3.93-6-5-9.86C27.82,86.64,28.8,81.71,31.54,81.35Z"/>
      <path d="M42,163.84a114.19,114.19,0,0,1-12.47,17.84,49.29,49.29,0,0,1-.94,7.15,82,82,0,0,0,17.35-22.06A7.34,7.34,0,0,1,42,163.84Z"/>
    </g>
    <g class="backpackStrap">
      <path d="M33.66,102.71c-.78-.9,2.24-6.33,3.69-6.78,21.25-5.15,32.54,15.32,26.05,37.9-1.9-4.14-1.3-8.07-3.69-10.28C58,122,57.81,113,54,106.44,53.79,97.38,39.93,96.11,33.66,102.71Z"/>
      <path d="M46.3,149.71A62.34,62.34,0,0,0,53.79,160c-2.45,3.8-5.75,7.44-7.87,6.77A7.34,7.34,0,0,1,42,163.84C40.08,161.27,43.67,154.75,46.3,149.71Z"/>
    </g>
    <path class="backpackOverlapLine" d="M24.72,95.55c-9.84,8-12.2,35.66-11.48,60.33"/>
    <g class="backpackCreaseLine">
      <path d="M32.54,95.54c-1.59.54-4.6,5.17-5.19,8.6"/>
      <path d="M8.86,155.22a62.07,62.07,0,0,1-.3-7.38"/>
      <path d="M7.3,157a12.49,12.49,0,0,0-.3,4.66"/>
      <path d="M16.45,158.19a20.7,20.7,0,0,0-.44,6.16"/>
      <path d="M24.07,158.51a34.73,34.73,0,0,0-.4,5.22"/>
    </g>
  </g>
  <g class="lizCoatLapel">
    <path d="M73.5,103.8c.15-7.68-5.5.68-10.56,10.68-4-12-13.57-17.55-25.78-19.48,1.43-3.53.73-8,2.51-8.9C43.78,84,66.58,89.83,76.42,97.92,75.43,97.86,74.46,100.34,73.5,103.8Z"/>
    <path d="M72.08,120.12"/>
    <path d="M72.08,120.12c-1.8-.93-5.77-2.55-7.56-3.3,0-3.06,6.44-14,9-13,.46.5,3.07,2.54,3.52,3C75.31,110,74.51,115,72.08,120.12Z"/>
    <path d="M89.6,132.43c3.46,3.39,6,6.9,7,10.18.55-5.24-1.47-11-5.12-17.13A43.6,43.6,0,0,1,89.6,132.43Z"/>
  </g>
  <g class="clothesDisplayLine">
    <path d="M37,365.57c-1.43,1.35-2.28,6.47-2,7.95"/>
    <path d="M55.9,369.22c-.42.86-.55,5.56-.18,6.24"/>
    <path d="M34.93,364.77c-.75.41-2.33,6.81-1.75,7.55"/>
    <path d="M53.94,369.14c-.33,1-.59,5.37,0,6.41"/>
  </g>
  <g class="clothesOverlapLine">
    <path d="M89.6,132.43c-5.68,14-12.34,32.06-20.79,35.07-5,1.77-11.88-4.78-15-7.5"/>
    <path d="M46.3,149.71a125.86,125.86,0,0,1-7.77-18.24"/>
    <path d="M63.4,133.83c2.7,2.07,0,3.37,2.21,3-.35-7.13,5.39-8.8,6.26-12.7a6.31,6.31,0,0,1,.21-4"/>
    <path d="M68.59,98a18.67,18.67,0,0,1,3.76,2.65"/>
    <path d="M41.74,86.81c-.41-.13-.72-.25-1-.33"/>
    <path d="M61.63,375.65c-1.26,1.9-1.26,7.76-.9,12.27"/>
    <path d="M38.69,375.18a39,39,0,0,0-4.55,11.29"/>
    <path d="M57.07,405a11.87,11.87,0,0,0-6,1.23"/>
  </g>
  <path class="clothesBorderLine" d="M91.17,126.85c-3.62-1-14.61-5.37-18.82-7.31"/>
  <g class="clothesFoldLine">
    <path d="M71.87,124.16c.07,2.92,2.52,6.21,2.64,9.23"/>
    <path d="M58.45,127.63c-4.82,1.52-9.27,1.26-13.21-1.5"/>
    <path d="M48.94,101.68c-3.25,1.67,2.55,1.16,5.07,4.76"/>
    <path d="M31.56,118.36c1.55,2.78,1.43,10.46,7,13.11-2.54-5.08-3.58-9.23-3.35-16.09.16-4.67-2.48-5.43-1.53.2"/>
    <path d="M51.62,146.35C53.87,139.66,61,135,63.85,136"/>
    <path d="M56.41,156.39c-.8-8.41,3.53-16.95,9.2-19.53-4.31,4.79-6.38,10.17-5.27,16.39"/>
    <path d="M66.37,141.9c.36-2-.84-3.58-.76-5"/>
    <path d="M81.5,158c-2.64-3.65-4.63,4.93-6,12.75"/>
    <path d="M74.85,189.2a13.4,13.4,0,0,0,0-4.9"/>
    <path d="M69.9,192.46c1.31,1.48,3-2.47,3.14-8.16"/>
    <path d="M72.62,167.9a19.73,19.73,0,0,0-.41,4.11"/>
    <path d="M56.32,168.38a19,19,0,0,0-.46,3.75"/>
    <path d="M54.84,190a23.1,23.1,0,0,0,1-5.21"/>
    <path d="M52.47,192.46c.67-2.47.31-5.53,1.32-7.73"/>
    <path d="M37.35,165.87c-.57-4-2.64-.52-1.37,5.54"/>
    <path d="M33.88,188.38c-.83,3.21,2.9,3.13,3.14-4.26"/>
    <path d="M39.24,188.83c-.12-1.54.56-2.92.62-4.53"/>
    <path d="M64.5,211.88C59,223,51.34,231.58,41.41,237.19"/>
    <path d="M86,236.79c-2.07,8.6-4.88,16.75-10.33,23.29"/>
    <path d="M75.22,304a9.32,9.32,0,0,1-3.58,0"/>
    <path d="M74,315.71a19.75,19.75,0,0,1-4.94,0"/>
    <path d="M73.77,320.79a19,19,0,0,1-6.31,0"/>
    <path d="M74.8,302a6.32,6.32,0,0,1-2.87,0"/>
    <path d="M73.13,313.77a14,14,0,0,1-3.56,0"/>
    <path d="M71.64,318.89a9.94,9.94,0,0,1-3.57,0"/>
    <path d="M40.67,311.71c3.11,2.13,8.31,3.69,14,5.13"/>
    <path d="M41.49,308.91c.79.74,2.58,1.43,5,2.09"/>
    <path d="M42.25,303.72c4.55,2.19,10.43,3,16.78,3.26"/>
    <path d="M44.64,312.09a78.52,78.52,0,0,0,13.51,3"/>
    <path d="M44.35,302.09c2.66,1.48,6.43,2.13,10.81,2.34"/>
    <path d="M42.38,306.84a9.51,9.51,0,0,0,4.23,1.68"/>
    <path d="M58,355.83c2,4.19,4.92,7.15,9.19,8.42"/>
  </g>
  <g class="eye">
    <circle class="sclera" cx="75.18" cy="48.16" r="13.48"/>
    <g class="irisDarkBrown">
      <ellipse cx="69.67" cy="49.86" rx="2.28" ry="3.33"/>
      <ellipse cx="87.07" cy="49.71" rx="1.85" ry="3.33"/>
    </g>
    <g class="pupil">
      <ellipse cx="70.19" cy="49.86" rx="0.89" ry="1.29"/>
      <ellipse cx="87.64" cy="49.71" rx="0.72" ry="1.29"/>
    </g>
  </g>
  <g class="skinIndian">
    <path d="M35.32,59c8.07,8.27,6.47,22.37,6.42,27.81,6,2.15,20.39,7.46,26.85,11.2-.54-9.72,3-20.53,8.79-22.51"/>
    <path d="M97.64,177.06c5.79-8.6,2.38-16.76,10.39-17.36,6.26-.47,4.22,3.25,5.55,4.76a4.86,4.86,0,0,1,5,1.92c.78,1,0,3-.16,4.29,2.83.85,3.41,2.76,1.85,5.66,3,2.66,1.7,4-.35,6a5.49,5.49,0,0,1-6,1.59c-2.88,4.72-6,8.92-11.59,8.32-6.63,1.81-7.76-2.44-10.76-6.6C92.69,182.28,95.43,178.14,97.64,177.06ZM109.08,166a4.59,4.59,0,0,1-.34-.59,4.17,4.17,0,0,1-1.65.45c0,.4-.11.79-.17,1.18C107.71,166.66,108.39,166.24,109.08,166Z"/>
    <path d="M40,62.56c-2.54,3.17-5.33,1-6.62-.73-.8-1.07-1.63-1.45-2.46-2.66C6.54,34.76,92.2,8.31,92.2,41,98.36,73.26,84.79,90.31,76,88c-6.55.53-8.62-1.8-11.41-2.69-11-3.52-15.74-7.72-19.21-13.23M72,49.35a3,3,0,0,0-3.41-2.15,28.11,28.11,0,0,1-6.72,2.08c2.33-.15,4,.69,6,.91A10.5,10.5,0,0,0,71,50C71.45,50,72.31,50.25,72,49.35ZM82.82,50c2,.86,5.34-.12,5.76-.94a1.81,1.81,0,0,0,0-.8c-.36-.11-1.59-.68-2.78-1-.87-.24-2.69.86-3.86,2.34C81.62,50,82.5,49.83,82.82,50Z"/>
  </g>
  <path class="lipFemaleBrown__noStroke" d="M80.56,72.84c2.18.28,3,5.39-3.69,5.4-5.12,0-5.27-2.78-8-5.19C75,73,77.65,72.35,80.56,72.84Z"/>
  <path class="lipFemaleBrown" d="M80.56,72.84c3-1.77,3.26-4.14,1.7-3.47-4.84,2.07-5.45-.89-8,.81-2.28,1.51-4.47,3-6.06,2.6a2.38,2.38,0,0,0,.84.32C71.46,74.42,80.56,72.84,80.56,72.84Z"/>
  <path class="teeth" d="M80.42,73.78a6.36,6.36,0,0,0,0-2.8c-3.37,1.17-4.72-.25-6.35.13s-3.4,2.4-5.07,2c3.91,1.94,4.29.54,7.31,1C78.56,74.48,78.54,74.72,80.42,73.78Z"/>
  <g class="lipEdgeLine">
    <path d="M82.19,75.29c-.29,3-6,4.32-9.89,1"/>
    <path d="M80.45,71a7.88,7.88,0,0,0,1.21-.53"/>
    <path d="M80.42,73.78c.17-.1.44-.19.61-.31"/>
  </g>
  <g class="cheekLine">
    <path d="M74.36,62.19c-2.62,1.35-3.15,3.54-5.07,5.61a13.64,13.64,0,0,0-3.4,5.32"/>
  </g>
  <g class="noseLine">
    <path d="M80,50.08c1.64,8.41,8,15.72,3.35,17-3.17.86-3.66-1.13-6.49-.72-4.37.63-3.25-3.5-2.52-4.15"/>
  </g>
  <g class="eyeFoldLine">
    <path d="M88.74,52c-1.31,1.13-4.29.91-5.61,0"/>
    <path d="M70.94,51.85c-1.84,1.49-5.21,1.7-8.45.33"/>
  </g>
  <path class="eyeCornerLine" d="M57.52,49.65a8.47,8.47,0,0,0,4.34-.37"/>
  <g class="eyeCreaseLine">
    <path d="M82.11,46.79c2-2.08,5.29-1.17,7.36.51"/>
    <path d="M60.49,47.7c3.82-2.48,8.07-4.26,11.36-.62"/>
  </g>
  <g class="eyebrowBlack">
    <path d="M85.33,42.22a13.22,13.22,0,0,1,5.22.87,8,8,0,0,0,0-1.08c-2.39-1.15-4.87-1.46-6.67-2.42C82.42,38.82,83.18,42.29,85.33,42.22Z"/>
    <path d="M56.76,45.83c5.24-5.24,12.37-4,15.95-5.59.8-.37.09,2.69-2.33,2.66C64.8,42.82,61.91,42.93,56.76,45.83Z"/>
  </g>
  <path class="hairBlack" d="M95,51a41.27,41.27,0,0,1-1.47-12.73c1.94-.81,1.85-2.44.23-3.33.31-3.64.62-6.77-.8-11-1.77-5.29-5.12-8.31-6.71-11-6.15-10.53-29.14-18-44.06-7.71C31.16.09,24.63,13,19,20.06,7.55,34.59,11.6,46.71,9.46,53.19c-5.37,16.34,1.44,24.87,3,18.23C15.54,84.7,24.05,91.6,22.58,85.17c15.32,14.92,20.74,7.65,17.83,4.22C31.27,78.64,25.74,70.06,31,59.17c-8.75-12.71,3.25-22.79,7.47-12.9,2.07,5.68,6.49,5.09,6.37,1.34-.54-4.2,2.46-6.46,3.78-8.67,4.82-.5,8-.29,12.31-2.18C55.49,43.19,72.78,39.47,74,27.3c0,12.26,10.37,14.1,6.86,9.57a15,15,0,0,0,9,1.89c1,3.7.74,4.93.1,6.67-.32.9.95,3-1.43,3.6,2.38,1.86.58,3.18.9,4.13C91.77,62.07,91,71.59,85,79.62c-1.69,2.27-2.53,7.1-9,8.41a7.83,7.83,0,0,1-1.67,4c-2.18,2.82,5.85,5.26,11.78-5.21C86.47,94.67,102.16,78.23,95,51Z"/>
  <g class="hairOverlapLine">
    <path d="M48.57,38.94c-3.51.38-4.83-1.91-2-3.13"/>
    <path d="M89.91,38.76a20.44,20.44,0,0,0,3.66-.5"/>
    <path d="M91.62,34.11a9.75,9.75,0,0,1,2.18.82"/>
  </g>
  <path class="skinIndian" d="M89.75,105.44c-1,2.22-.86,2.83-1.08,5.6-3.79-1.43-8-2.93-10.59-3.9a27.62,27.62,0,0,0,1.36-5.69c.87-2.65-2.06-12.69,0-17.74,2.25-11.79,4.75-11.15,8.39-12.32,4.16-1.34,4.6,1.08,7.4,2,2.05.78,1.12,4.25-2.78,3.49a12.64,12.64,0,0,1,3.41,3.25A3.15,3.15,0,0,1,99,82.88c3.41,1,2.65,3.81,2.19,5.32-.88,2.88-1.22,4-3.76,4.3C97.21,101.24,91.58,102.12,89.75,105.44Z"/>
  <g class="skinOverlapLine">
    <path d="M84.21,81.45c2.25-4.35,4.65-7.08,8.22-4.52"/>
    <path d="M87.05,83.55c3-1.17,5.81-2.93,8.79-3.37"/>
    <path d="M91.64,85.51c2.69-1.17,5.24-2.73,7.39-2.63"/>
    <path d="M97.46,92.5a10.41,10.41,0,0,0-.36-2.91"/>
    <path d="M89.79,82.36a2.83,2.83,0,0,0,.73-1.56"/>
    <path d="M98.48,88.72a2.65,2.65,0,0,1-2.64.85"/>
    <path d="M94.61,186.14a14.75,14.75,0,0,1,3-9.08"/>
    <path d="M102.36,192.26c4-2.58,5.28-9.76,3.18-11.83a15.86,15.86,0,0,1,1.09-2.52c5-1.76,5.05-7.2,1.51-6-3.46,3.33-4.69-.75-8.36,8.1"/>
    <path d="M106.92,167a26,26,0,0,1-1.43,5.27"/>
    <path d="M113.58,164.46c1.26,2-2.38,4.52-4.5,1.5"/>
    <path d="M118.47,170.67a10.94,10.94,0,0,0-.63,2.48c0,2.39-5.24,1.21-3.93-3-2.81.53-3,1.42-3.75,2"/>
    <path d="M120.32,176.33c-2.26,5.06-3.36,4-5.36,7.08-1.17,2-5.85-2-.95-5.57a9.32,9.32,0,0,1,1.45-2.54c-2.83-.3-2.66.51-3.68.91"/>
    <path d="M114.8,168.62a3.08,3.08,0,0,0-.89,1.51"/>
    <path d="M108.74,165.37a6.68,6.68,0,0,1-.48-2.54"/>
  </g>
  <path class="skinEdgeLine" d="M80.47,84.11c.65,1,1.78.32,2.67,1.79.77,1.29,2.23.71,3.32,2.1s2.69,1.16,3.92,1.88"/>
  <g class="skinFoldLine">
    <path d="M104.63,181.53a2.94,2.94,0,0,0,.91-1.1"/>
    <path d="M112.21,177.12a1.4,1.4,0,0,0-1.32-1.3"/>
    <path d="M106.06,172.82a1.19,1.19,0,0,0-1.51-.57"/>
    <path d="M36.62,49.37c-1.74-10.56-10.71-.76-4.09,8.07"/>
    <path d="M36.76,52.46c-1.52,1.71,2.63,4.46.52,5.44-.9.42-.7-1.94-2.9-2.93-3.56-1.6-1.42-7.28.62-4.88"/>
  </g>
  <path class="skinCreaseLine" d="M106,179.27c.43,2,3.43,2,5.14,3.44"/>
</svg>
