<svg viewBox="0 0 985.89 1549.16">
    <g class="lizSock">
        <path d="M782,1171.53c37.24-3.11,86.45-2.16,100.85,11.37,21.33,20,10.58,106.56-33.1,126.2-20.37,9.15-45.37,10.6-71.89,10.34C688.34,1289.44,704.37,1198.42,782,1171.53Z"/>
        <path d="M732.3,1282.2c29,2.59,58.33,14.69,61.1,42.93,5.39,55.07-33.69,117.4-90.06,105-72.16-15.89-166-21.73-221.35-68.27C560.75,1268.5,642.93,1224,732.3,1282.2Z"/>
    </g>
    <path class="lizUndershirt" d="M8.52,1159.56c-7.92-9.61,6.14-16.27,8.87-28.18-18.52-28.36,9.94-49.78,19.36-69.58-9.42-23.72,13-26.48,17.13-40.54-6.17-25.6,21.92-31.11,27.64-70.79-3-29.73,7.73-29.56,11.91-47.35,12.68-54,35.81-128.36,58.88-182L328.25,535c13.79-15.79,15,16.95,144.9,66.84,95.42,36.64,115.68,18.73,115.53,37.91L574.35,852c8.91,65.65-19.79,120-75.42,140.56-19.71,23-4.41,39.72-29.87,56.19,1.83,11,0,21.83-13.16,32.4,5.56,12.46-4.08,33.55-14.7,42.27C308.15,1185.27,150.37,1194.82,8.52,1159.56Z"/>
    <path class="lizShortsInner" d="M386.14,1441.67c-33.59-21.51-19.28-26.66,8.77-38.1C398.06,1413.52,394.54,1435.25,386.14,1441.67Z"/>
    <path class="lizShorts" d="M8.52,1159.56c34.48,9.78,116-6,184-3.43,43.25,1.65,112-22.65,157.28-29.52-27.46,14.42-5.49,282.8,36.38,315.06-34.32,8.92-121.53,8.33-207.39,3.43C34.36,1436.85-20.56,1317.08,8.52,1159.56Z"/>
    <path class="clothesOverlapLine" d="M498.93,992.6c-61.87,9.1-91.47-18.08-126.91-28.75-26-7.83-79.38-1.14-108.42-15.74"/>
    <g class="clothesFoldLine">
        <path d="M50.3,1220.85c15.57-14.07,44.7-29.64,66.79-37.17"/>
        <path d="M151.25,1178.66c-40.68,20.59-68.65,102.33-84.38,93.91-17.44-9.33,6.32-39.71,27.62-60.76"/>
        <path d="M326.43,1300.7c-35.66,54.24-110.78,97.81-191.76,114"/>
        <path d="M81.52,950.47c5.34,21.93,13.63,41,25.27,56.9"/>
        <path d="M90.51,1049.26c11.7,19.68,25.5,34.73,41.1,45.76"/>
        <path d="M53.88,1021.26c14.27,45.3,73.16,71.89,30.22,59"/>
        <path d="M36.75,1061.8c19.29,21.1,44.32,36.54,72.87,48.51"/>
        <path d="M17.39,1131.38c7.46,9.92,29.85,12.5,17,17.67"/>
        <path d="M28.5,1106.66c34.43,28.48,74.54,43.22,120.16,44.62"/>
        <path d="M455.9,1081.19c-22.13,12.18-58.65,17.52-101.15,20"/>
        <path d="M469.06,1048.79c-14.05,12.3-43.26,22.53-79.22,28.71"/>
        <path d="M457.29,1039.22c-9.43,6.6-22.89,12.09-40.56,16.4"/>
        <path d="M477.79,1008.68c-22,3.67-49.67-5.92-70.63-11.39"/>
        <path d="M354.29,977.24c-22.79.13-64.47-.49-75.6-8.21"/>
        <path d="M493.74,875.15c-27.08-4.93-55.14-15-80.2-24.15"/>
        <path d="M462.3,883.36C424,872.87,390.74,864.63,368,850.54"/>
    </g>
    <g class="photo">
        <path class="photoFrame" d="M275.35,1392.42l-85-1.91c3.76,58.76-35.15,113.14-77.52,155.16l101.59,2.48C248.55,1506.12,275.35,1451.74,275.35,1392.42Z"/>
        <g class="photoCel">
            <path d="M151.88,1513.07l76.94,1.79A298.6,298.6,0,0,1,210,1540.73l-80.6-2C135,1532.94,145,1522,151.88,1513.07Z"/>
            <path d="M154.07,1510.21l76.59,1.77a271.48,271.48,0,0,0,14.41-25.71l-73.74-1.71C167.37,1490.72,159.49,1503.06,154.07,1510.21Z"/>
            <path d="M246.56,1483.18l-73.44-1.71a219.21,219.21,0,0,0,15-31.29l70.65,1.65C257.77,1456.44,251,1473.78,246.56,1483.18Z"/>
            <path d="M198.74,1399l68,1.55a175,175,0,0,1-7,47.75l-70.37-1.63C194.81,1431.72,198,1411.85,198.74,1399Z"/>
        </g>
        <g class="lizShirt">
            <path d="M212.31,1399.32c1.32,2.69,5.9,5.46,8.85,5.44a11.86,11.86,0,0,1,8,.26c3-.38,5.55-2.9,7.6-5.13Z"/>
            <path d="M201.33,1450.49c1,1.72,5.36,4.18,8.31,4.17a17.94,17.94,0,0,1,8,.17c3.07-.25,5.84-2.34,8.1-3.77Z"/>
            <path d="M184.47,1484.87c.92,1.37,5.28,4,8.43,4a25.21,25.21,0,0,1,8.52.13c3.31-.2,6.46-2.35,9.05-3.49Z"/>
            <path d="M165.72,1513.39c.75,1.38,5.1,3.89,8.4,3.88a27.58,27.58,0,0,1,8.93.14c3.5-.2,7-2.24,9.91-3.39Z"/>
        </g>
        <g class="skinIndian">
            <path d="M216.87,1433.1c12.85,1.51,20.09-19.14,10.71-24.19l1.61-3.89a11.81,11.81,0,0,0-8-.26l-.39,3.28C209.16,1410.42,204.12,1431.61,216.87,1433.1Z"/>
            <path d="M202.61,1472.78c12.7,1,21.94-12.24,13-15.47l2-2.48a17.86,17.86,0,0,0-8-.17l-.71,2.1C197.09,1458.28,190,1471.82,202.61,1472.78Z"/>
            <path d="M183.12,1503.33c13.44.77,24.95-9.79,15.88-12.38l2.42-2a24.83,24.83,0,0,0-8.52-.13l-1,1.67C179.06,1491.72,169.79,1502.57,183.12,1503.33Z"/>
            <path d="M161.57,1531.78c14,.77,27.73-9.8,18.62-12.38l2.86-2a27.41,27.41,0,0,0-8.93-.14l-1.33,1.68C159.14,1520.17,147.7,1531,161.57,1531.78Z"/>
        </g>
        <g class="hairBlackDark">
            <path d="M228.53,1406.63c4.17-.22,12.26,1.47,11.1,6.08-4,14.92-10.37,24.89-23.59,23.34-13.42-1.57-13.64-11.18-11.47-25.79,1.09-5,19.72-6.72,17.59-1.84-6.21,4.38-7.76,7.62-8,14.64,5.45-.55,11.84-.37,16,1.4,3-6.91,2-12.71-2.55-15.55Z"/>
            <path d="M216.83,1455.85c4.19-.14,12.12,1,10.51,3.89-5.49,9.54-12.78,15.91-25.84,14.92-13.27-1-12.56-7.14-9-16.48,1.57-3.2,20.37-4.3,17.76-1.18-6.63,2.8-8.49,4.87-9.44,9.36,5.5-.35,11.88-.24,15.86.9,3.66-4.42,3.27-8.13-1-10Z"/>
            <path d="M200.42,1489.78c4.49-.11,12.82.76,10.74,3.12-7.07,7.63-15.65,12.73-29.47,11.94-14-.8-12.5-5.72-7.5-13.2,2.08-2.56,22.28-3.44,19.1-.94-7.42,2.24-9.68,3.9-11.25,7.49,5.92-.28,12.71-.19,16.81.72,4.47-3.54,4.51-6.5.15-8Z"/>
            <path d="M181.87,1518.23c4.73-.12,13.33.75,10.77,3.11-8.62,7.64-18.42,12.74-32.81,12-14.6-.81-12.22-5.73-5.8-13.2,2.59-2.56,23.94-3.44,20.21-.95-8.15,2.25-10.78,3.91-13,7.5,6.25-.28,13.36-.19,17.53.72,5.25-3.54,5.76-6.51,1.41-8Z"/>
        </g>
        <g class="bennettSleeves">
            <path d="M236.79,1399.89c.35,2,2.06,8,6,9.06a14.37,14.37,0,0,1,8.13.23c5.26-.61,10.69-6,13-8.69Z"/>
            <path d="M225.74,1451.06c.16,1.25,1.29,5.62,5.13,6.28a21.69,21.69,0,0,1,8.1.15c5.32-.39,11.28-4.09,13.86-5.8Z"/>
            <path d="M210.47,1485.47c0,1,.73,5,4.75,5.5a30.85,30.85,0,0,1,8.63.12c5.72-.31,12.47-3.58,15.43-4.95Z"/>
            <path d="M193,1514a4.81,4.81,0,0,0,4.25,5.4,33.41,33.41,0,0,1,9,.12c6.05-.32,13.64-3.44,17-4.81Z"/>
        </g>
        <g class="skinEastAsian">
            <path d="M240.83,1439.53c14.17.4,19.65-22.25,8.75-26.61l1.34-3.74a14.41,14.41,0,0,0-8.13-.23l-.24,3.62C229.92,1415.83,226.68,1439.12,240.83,1439.53Z"/>
            <path d="M225.94,1476.89c14.14.26,21.81-14.22,11.33-17l1.7-2.38a22,22,0,0,0-8.1-.15l-.6,2.31C217.33,1461.73,211.84,1476.63,225.94,1476.89Z"/>
            <path d="M207.5,1506.62c15.06.21,25.07-11.39,14.23-13.62l2.12-1.91a30.59,30.59,0,0,0-8.63-.12l-.93,1.85C200.22,1494.49,192.48,1506.41,207.5,1506.62Z"/>
            <path d="M186.64,1535.07c15.77.21,28.11-11.39,17.09-13.62l2.53-1.91a33.53,33.53,0,0,0-9-.12l-1.26,1.85C180.91,1522.94,170.91,1534.86,186.64,1535.07Z"/>
        </g>
        <g class="hairBlack">
            <path d="M242.41,1433.75c3.29-4.21,8.67-7,14.58-8.84-2,26.65-37.76,21-26.74-1.29C236.12,1426.21,240.62,1430,242.41,1433.75Z"/>
            <path d="M228.09,1473.19c3.69-2.69,9.34-4.44,15.43-5.64-4.52,17-39.79,13.44-26.61-.83C222.52,1468.37,226.67,1470.79,228.09,1473.19Z"/>
            <path d="M210.26,1503.66c4.28-2.15,10.52-3.56,17.18-4.52-7,13.64-44.16,10.76-28.3-.66C204.92,1499.81,209,1501.74,210.26,1503.66Z"/>
            <path d="M190,1532.11c4.84-2.16,11.61-3.56,18.75-4.52-9.47,13.64-48.05,10.76-29.6-.67C185,1528.25,189,1530.18,190,1532.11Z"/>
        </g>
    </g>
    <path class="hairBlackDark" d="M724.49,597.72c-40.64,1-65.85-13.06-40.44-23.18-31.24,1.66-51.49-14.41-64.06-31.62C811.6,172.33,1014.57,281.18,724.49,597.72Z"/>
    <path class="hairBlack" d="M488.71,527.45,786.26,388.82c-8.31,40.1-23.07,71.31-43.19,110.65-6.85,13.39,3.11,21.47,21.07,8-27.85,52.09-44.51,79-90.93,117.21-30.39,25,28.21,33.14,75.31,1-24,38.44,48,25.56,88.63-33.05-24.68,49.5,114.89-27,76.44-161.13-12.06-42-17.79-88.12-16.4-144.55,1.9-76.72-29.65-91.67-41.47-127.9C835,95.58,751.05,5,649,23.38c-42.77-49.91-162.59-7.21-201.95,39.2-18.46,21.77-58.49,45.06-70.92,66.72-34.15,59.5-50.43,105.86-62.24,121-74.79,95.92-38.18,249.7-16,177.05,15.29,99.06,76.58,148,66.16,75.84,48,66.07,80.49,53,70.14,29.36C482,564.28,503.7,553.5,488.71,527.45Z"/>
    <g class="hairOverlapLine">
        <path d="M505.82,220.25c-16.44-8.63-14-18.44,4.8-17.27"/>
        <path d="M785.57,343.35c35.2,14.47,40.14,1,31.54-7.89"/>
    </g>
    <g class="eye">
        <circle class="sclera" cx="593.31" cy="413.66" r="150.24"/>
        <g class="irisDarkBrown">
            <circle cx="696.32" cy="395.71" r="21.6"/>
            <circle cx="548.22" cy="340.2" r="21.6"/>
        </g>
        <g class="pupil">
            <circle cx="696.32" cy="395.71" r="8.4"/>
            <circle cx="548.22" cy="340.2" r="8.4"/>
        </g>
    </g>
    <g class="skinIndian">
        <path d="M743.41,1041.94c-101.73,3.28-183.7,57.17-274.1,18.33a36,36,0,0,0-.25-11.48c25.46-16.47,10.16-33.16,29.87-56.19,26.4-9.77,46.72-27.14,59.85-49.71,50.06,15.19,90.15,35.17,185.48,25,27.52-7.48,34.31-29.33,86.71-28.16,28.37.63,35.21.14,58.43,12.79,13,7.05,19.74,14.82,27.65,24.46,19.49,5.76,33.37,16.34,32.37,23.91-2.64,19.91-14.8,22.82-19.62,26.64-8.49,6.73-20.49,10.54-26.16-2.61,2.16,17.83-5.45,26.91-26.7,24.51-1.14,12.22-8.3,18.13-23,16.14.48,23.48-32.29,19.57-45,1C762,1065.58,753.69,1042.59,743.41,1041.94Z"/>
        <path d="M748.85,1050c-29.45-13-196.14,18.94-291.38,41.19-.62,11.74-8.16,25.62-16.27,32.28l308.69,88.92c22.67-12.53,43.6-30.79,49.64-59.47C807.74,1114,787.64,1067.06,748.85,1050Z"/>
        <path d="M711.61,1096c-29.65-15.08-250.81,9.9-365.69,34.76-18.58,32.41-4.38,221.36,25.89,289.53,93.75-35.66,188.62-87.84,266.88-144.31,31.55,12.93,67.75,2.58,93.61,6.2a148.55,148.55,0,0,0,25.83-53.37C773.66,1167.55,741.31,1111.12,711.61,1096Z"/>
        <path d="M426,439.7c-12.05,54.65-31.14,94.18-82.79,94.57,11.43,47.46,9.67,92.85,9.67,159.88,0,69.51,160,115,185,70.6,16.28-28.88,34.27-89.33,39.89-135.73-16.09-14.85-10-13.39-25.61-29.5-11.47-11.83-9.7-25.26-.69-46.55"/>
        <path d="M588.68,639.7c-3.87,39.7-16,79.6-32.43,124.26-2.38,11.9,12.86,56.18,18.1,88.08C628.62,764.43,640,689.43,588.68,639.7Z"/>
        <path d="M233.36,1226.39c4.56-100.46,45-193.06,31.39-270.14-8.27-46.75,2.73-140.78,8.7-219.43,15.21-2.69,62.2-19.32,62.8-29.52,4.14-70.78.47-134.59-8-172.35-61,1.19-137.32,13.66-166.81,73.56-24.9,50.57-4.44,238.09-20.76,317.84-24.81,121.35,9.31,184,17.67,307.45-24.72,17.35-33,79.14-45.15,84.93-20.89,9.94-8.29,28-3.88,36.7,10.68,21,21.24,15.77,42.2,16.69,8.52,10.22,30.67,17.89,40.89,9.79a57.57,57.57,0,0,0,13.21,6.82c4.26,15.33.88,39.66,11.5,42.74,26.4,7.67,27.75-18.73,26.83-39.7l14.07.33c-7.68-18.28,13.62-25.95,3.52-86.45C253.26,1256.08,231.6,1235,233.36,1226.39Z"/>
        <path d="M407,345c-30.88,7.53-27.06-26.87-28.74-35.28-21.13-106.22,76.69-140.16,61.33-63.8,3.89,27.12,19.23,33.33,25.8,11.22,5.65-17.58,25.45-30.65,40.48-36.86,16.67,8.91,56.46,20.49,95.13,15.58-39.77,15.18,23.26,37.82,54.61-20.72C631.08,273.2,757.47,351.45,731,299.34c15.11,19.72,27.89,34.58,54.58,44,2,9,3.2,24.23-.3,41.86-8.48,16.36-20.12,28.52-23.46,37.94C738.65,488.38,706.6,550.48,631.1,564.9c-21.13,4-52,27.36-93.28,9.27C502.33,558.63,492,536.73,478.34,523,423.13,467.58,399.36,412.44,407,345Zm276.42,44.69c6.12.9,9.5,4.57,22,9.51,11.35,4.5,22.52,3.75,35.68,2-9.82-6.72-16.56-12.69-29.44-19.46-9-4.72-23.16-2.07-36.13,1.33C669.44,384.65,680.54,389.24,683.37,389.66Zm-83-36.36c-10.44-18.64-18.14-25.44-36.2-27.74-18.78-2.39-29-3.69-37.76-3.69,10.59,11.3,18.92,16.85,33.16,23.36,13,5.94,21.4,4.08,29.83,7C592.07,353.22,603.69,359.29,600.34,353.3Z"/>
    </g>
    <g class="skinOverlapLine">
        <path d="M289.25,650.81c-8,22-12.29,53-15.8,86"/>
        <path d="M439.15,744.29c-4.11,10.65-2,19.25-4.3,27.46"/>
        <path d="M581.13,751.53c-8.25,15-14.08,31.78-19,47.86"/>
        <path d="M812.41,967.24c17.88,5.42,30.91.72,52.4,7.31,9.83,3,11.71,11.42,37.2,18.24"/>
        <path d="M761.18,1028.42c29.28,7.61,57.72,3.79,69.38-21.66a39.74,39.74,0,0,0,16.4-1.18c10.53,6.74,26.34,11.71,38.8,9.34"/>
        <path d="M927.75,1002.07a18.85,18.85,0,0,0-13.06,3.51"/>
        <path d="M876.94,1049.44c-25.3-5.21-51.35-16-58.18-27.37"/>
        <path d="M854,1065.58c-24.28-5.84-55.89-17-52.61-35.33"/>
        <path d="M809,1066.56c-8-8.28-8.84-18.53-3.61-23.14"/>
        <path d="M132,1315.12c8.63,3.6-1.08,41,19.51,57"/>
        <path d="M165.58,1296.3c-.43,50.69,1.27,64.32,26.83,85.61"/>
        <path d="M202.21,1289.91c-5.54,43.45,3,69.43,3.41,98.82"/>
        <path d="M242.67,1295c-5.11,38.76.85,68.58,1.28,96.75"/>
        <path d="M638.69,1276A179.67,179.67,0,0,0,654,1264.74"/>
        <path d="M666.47,1074.24c-17.88,4-33.73,10-46.46,19.13"/>
    </g>
    <g class="skinFoldLine">
        <path d="M850.77,956.87a27.13,27.13,0,0,0-9.66,13.76"/>
        <path d="M131,1343.43c2.65,1,4.26,2.56,7.37,2.67-.67,2.63-1.69,5-4.82,6.7"/>
        <path d="M425.54,256.91c12.34-58.21-49.32-28.34-36.17,34.13"/>
        <path d="M418,279.3c-15.47,6.69.25,40.84-14.37,37.23-6.54-1.62,2.05-16.48-1.34-25.94-9.05-25.24,8.54-44.12,13.29-31.4"/>
    </g>
    <g class="skinEdgeLine">
        <path d="M196,1351.26c-6.41,2.47-12.87,3.57-19.39,2.2"/>
        <path d="M164.66,1358.19c-4.49,2.84-9.14,3.58-14.11,3.41"/>
        <path d="M232.09,1338c-6.75-1.57-19.09-1-22.92,2"/>
        <path d="M238.71,1268c-25.24-12.16-25.9,5.14-45.72-6.61-18.17-10.77-23.25,10.33-36.19,8.44-14-2-16.44,10.05-21.36,14.15"/>
    </g>
    <path class="skinCreaseLine" d="M264.75,956.25c-11.91-.31-23.53-16.49-31.42-15.43"/>
    <g class="wishbone">
        <g class="wishboneDark">
            <path d="M911.54,967.52l-7.36-3.29-10.25-1.7c-2,10.89.53,24.41,8.08,30.26,6.21,5.15-2.38,20.08-16.25,22.13l6.69,6.28C930,1001.68,899.79,984.11,911.54,967.52Z"/>
            <path d="M977.54,947l-7.31-3.54C956,966.65,929.94,988,912,983.29,920,999.21,956.56,983.5,977.54,947Z"/>
        </g>
        <path class="wishboneLight" d="M984.58,952.6l-7-5.59c-25.73,44.74-74.88,58.24-66,20.51L900.48,966c-2.87,14.49.86,24.54,8.33,29.7l-16.36,25.55,11.19,3.73,14.93-26.12C940.75,1003.68,969.54,977.82,984.58,952.6Z"/>
    </g>
    <g class="head48__edited">
        <path class="lipFemaleBrown__noStroke" d="M529.19,468.5c14.38,8.27,27,25.34,51.85,35.61,22.1,9.15,36,3.18,56.71,2.06-20,12.78-27,30.09-64.59,19.15C540.21,515.75,537.56,485.55,529.19,468.5Z"/>
        <path class="lipFemaleBrown" d="M529.19,468.5c14.77,5.44,27,25.34,51.85,35.61,22.1,9.15,36.14,1,56.71,2.06-7.64-1.54-11.66-2.62-16.21-2.62-7.13,0-11.27-2.82-22.81-2.89-15.8-.09-20.39-8.76-35.47-15.2C546,478.11,541.4,473,529.19,468.5Z"/>
        <path class="lipEdgeLine" d="M618.06,520.78c-23.75,17-66.73,5-77.84-25.4"/>
        <g class="cheekLine">
            <path d="M649.51,454.59c6.51,20.12,7.62,31,2.68,50.33"/>
            <path d="M576,430.78c-17.6,1.93-42.29,22.27-57.37,19.92"/>
        </g>
        <path class="noseLine" d="M652.52,412.15c-4.55,18.57-5.7,35.29-3,42.44,5.22,21.72-14.19,23.4-19.18,23.9-8.42.86-13.72,9.26-28.43,5.38-20-5.27-13.31-16.34-29.64-27.54-10.89-7.49-8.33-19.38,3.71-25.55"/>
        <g class="eyeFoldLine">
            <path d="M734.19,415.08c-17.26,3.63-40.5-4-50.55-14.54"/>
            <path d="M583.31,363.13c-10.38,3.26-38.47-4.57-48.93-19.37"/>
        </g>
        <g class="eyeCornerLine">
            <path d="M526.38,321.87c-10.7,0-15.26-5.09-18.6-7.65"/>
            <path d="M754.83,406.31A52.84,52.84,0,0,1,741,401.2"/>
        </g>
        <g class="eyeCreaseLine">
            <path d="M694.56,370.46c16.12-2.3,35,10.48,51.76,25.8"/>
            <path d="M537.3,314.4c31-.39,52,5.48,66.3,24.48"/>
        </g>
        <g class="eyebrowBlack">
            <path d="M774,384.4c-16.83-38.48-50.41-40.2-69.42-53.24-8.75-6-6.31,16.94,7.61,18.06C737.23,351.22,759.43,362.82,774,384.4Z"/>
            <path d="M519.05,287.06c52.27-12.88,85.3,13.94,110.66,17,5.7.69-8.56,15.21-21.91,6.83C577.12,291.61,564.37,285.17,519.05,287.06Z"/>
        </g>
    </g>
</svg>
